0
SECTION
2
HEADER
9
$EXTMIN
10
 0
20
 100
30
0.0
9
$EXTMAX
10
 0
20
 100
30
0.0
9
$LIMMIN
10
 100
20
 0
9
$LIMMAX
10
 0
20
 100
9
$PSLTSCALE
70
1
0
ENDSEC
0
SECTION
2
TABLES
0
TABLE
2
LAYER
70
2
0
LAYER
2
0
70
0
62
7
6
CONTINUOUS
0
LAYER
2
Halfen
70
0
62
7
6
CONTINUOUS
0
ENDTAB
0
ENDSEC
0
SECTION
2
ENTITIES
0
POLYLINE
8
Halfen
62
7
66
1
10
0.0
20
0.0
30
0.0
70
1
0
VERTEX
8
Halfen
62
7
10
 0
20
-73.5
30
0
0
VERTEX
8
Halfen
62
7
10
 1000
20
-73.5
30
0
0
VERTEX
8
Halfen
62
7
10
 1000
20
 73.5
30
0
0
VERTEX
8
Halfen
62
7
10
 0
20
 73.5
30
0
0
SEQEND
8
Halfen
0
POLYLINE
8
Halfen
62
7
66
1
10
0.0
20
0.0
30
0.0
70
1
0
VERTEX
8
Halfen
62
7
10
 0
20
-60
30
0
0
VERTEX
8
Halfen
62
7
10
 1000
20
-60
30
0
0
VERTEX
8
Halfen
62
7
10
 1000
20
 60
30
0
0
VERTEX
8
Halfen
62
7
10
 0
20
 60
30
0
0
SEQEND
8
Halfen
0
POLYLINE
8
Halfen
62
7
66
1
10
0.0
20
0.0
30
0.0
70
1
0
VERTEX
8
Halfen
62
7
10
 20
20
-32.5
30
0
0
VERTEX
8
Halfen
62
7
10
 37
20
-1.5
30
0
0
VERTEX
8
Halfen
62
7
10
 28
20
-1.5
30
0
0
VERTEX
8
Halfen
62
7
10
 28
20
 32.5
30
0
0
VERTEX
8
Halfen
62
7
10
 12
20
 32.5
30
0
0
VERTEX
8
Halfen
62
7
10
 12
20
-1.5
30
0
0
VERTEX
8
Halfen
62
7
10
 3
20
-1.5
30
0
0
SEQEND
8
Halfen
0
POLYLINE
8
Halfen
62
7
66
1
10
0.0
20
0.0
30
0.0
70
1
0
VERTEX
8
Halfen
62
7
10
 980
20
-32.5
30
0
0
VERTEX
8
Halfen
62
7
10
 997
20
-1.5
30
0
0
VERTEX
8
Halfen
62
7
10
 988
20
-1.5
30
0
0
VERTEX
8
Halfen
62
7
10
 988
20
 32.5
30
0
0
VERTEX
8
Halfen
62
7
10
 972
20
 32.5
30
0
0
VERTEX
8
Halfen
62
7
10
 972
20
-1.5
30
0
0
VERTEX
8
Halfen
62
7
10
 963
20
-1.5
30
0
0
SEQEND
8
Halfen
0
POLYLINE
8
Halfen
62
7
66
1
10
0.0
20
0.0
30
0.0
70
1
0
VERTEX
8
Halfen
62
7
10
 89
20
-697.88
30
0
0
VERTEX
8
Halfen
62
7
10
 89
20
 702.801
30
0
0
VERTEX
8
Halfen
62
7
10
 79
20
 702.801
30
0
0
VERTEX
8
Halfen
62
7
10
 79
20
-697.88
30
0
0
SEQEND
8
Halfen
0
POLYLINE
8
Halfen
62
7
66
1
10
0.0
20
0.0
30
0.0
70
1
0
VERTEX
8
Halfen
62
7
10
 175
20
-697.88
30
0
0
VERTEX
8
Halfen
62
7
10
 175
20
 702.801
30
0
0
VERTEX
8
Halfen
62
7
10
 165
20
 702.801
30
0
0
VERTEX
8
Halfen
62
7
10
 165
20
-697.88
30
0
0
SEQEND
8
Halfen
0
POLYLINE
8
Halfen
62
7
66
1
10
0.0
20
0.0
30
0.0
70
1
0
VERTEX
8
Halfen
62
7
10
 261
20
-697.88
30
0
0
VERTEX
8
Halfen
62
7
10
 261
20
 702.801
30
0
0
VERTEX
8
Halfen
62
7
10
 251
20
 702.801
30
0
0
VERTEX
8
Halfen
62
7
10
 251
20
-697.88
30
0
0
SEQEND
8
Halfen
0
POLYLINE
8
Halfen
62
7
66
1
10
0.0
20
0.0
30
0.0
70
1
0
VERTEX
8
Halfen
62
7
10
 347
20
-697.88
30
0
0
VERTEX
8
Halfen
62
7
10
 347
20
 702.801
30
0
0
VERTEX
8
Halfen
62
7
10
 337
20
 702.801
30
0
0
VERTEX
8
Halfen
62
7
10
 337
20
-697.88
30
0
0
SEQEND
8
Halfen
0
POLYLINE
8
Halfen
62
7
66
1
10
0.0
20
0.0
30
0.0
70
1
0
VERTEX
8
Halfen
62
7
10
 433
20
-697.88
30
0
0
VERTEX
8
Halfen
62
7
10
 433
20
 702.801
30
0
0
VERTEX
8
Halfen
62
7
10
 423
20
 702.801
30
0
0
VERTEX
8
Halfen
62
7
10
 423
20
-697.88
30
0
0
SEQEND
8
Halfen
0
POLYLINE
8
Halfen
62
7
66
1
10
0.0
20
0.0
30
0.0
70
1
0
VERTEX
8
Halfen
62
7
10
 589
20
-697.88
30
0
0
VERTEX
8
Halfen
62
7
10
 589
20
 702.801
30
0
0
VERTEX
8
Halfen
62
7
10
 579
20
 702.801
30
0
0
VERTEX
8
Halfen
62
7
10
 579
20
-697.88
30
0
0
SEQEND
8
Halfen
0
POLYLINE
8
Halfen
62
7
66
1
10
0.0
20
0.0
30
0.0
70
1
0
VERTEX
8
Halfen
62
7
10
 675
20
-697.88
30
0
0
VERTEX
8
Halfen
62
7
10
 675
20
 702.801
30
0
0
VERTEX
8
Halfen
62
7
10
 665
20
 702.801
30
0
0
VERTEX
8
Halfen
62
7
10
 665
20
-697.88
30
0
0
SEQEND
8
Halfen
0
POLYLINE
8
Halfen
62
7
66
1
10
0.0
20
0.0
30
0.0
70
1
0
VERTEX
8
Halfen
62
7
10
 761
20
-697.88
30
0
0
VERTEX
8
Halfen
62
7
10
 761
20
 702.801
30
0
0
VERTEX
8
Halfen
62
7
10
 751
20
 702.801
30
0
0
VERTEX
8
Halfen
62
7
10
 751
20
-697.88
30
0
0
SEQEND
8
Halfen
0
POLYLINE
8
Halfen
62
7
66
1
10
0.0
20
0.0
30
0.0
70
1
0
VERTEX
8
Halfen
62
7
10
 847
20
-697.88
30
0
0
VERTEX
8
Halfen
62
7
10
 847
20
 702.801
30
0
0
VERTEX
8
Halfen
62
7
10
 837
20
 702.801
30
0
0
VERTEX
8
Halfen
62
7
10
 837
20
-697.88
30
0
0
SEQEND
8
Halfen
0
POLYLINE
8
Halfen
62
7
66
1
10
0.0
20
0.0
30
0.0
70
1
0
VERTEX
8
Halfen
62
7
10
 933
20
-697.88
30
0
0
VERTEX
8
Halfen
62
7
10
 933
20
 702.801
30
0
0
VERTEX
8
Halfen
62
7
10
 923
20
 702.801
30
0
0
VERTEX
8
Halfen
62
7
10
 923
20
-697.88
30
0
0
SEQEND
8
Halfen
0
POLYLINE
8
Halfen
62
7
66
1
10
0.0
20
0.0
30
0.0
70
1
0
VERTEX
8
Halfen
62
7
10
 921
20
-697.88
30
0
0
VERTEX
8
Halfen
62
7
10
 921
20
 702.801
30
0
0
VERTEX
8
Halfen
62
7
10
 911
20
 702.801
30
0
0
VERTEX
8
Halfen
62
7
10
 911
20
-697.88
30
0
0
SEQEND
8
Halfen
0
POLYLINE
8
Halfen
62
7
66
1
10
0.0
20
0.0
30
0.0
70
1
0
VERTEX
8
Halfen
62
7
10
 835
20
-697.88
30
0
0
VERTEX
8
Halfen
62
7
10
 835
20
 702.801
30
0
0
VERTEX
8
Halfen
62
7
10
 825
20
 702.801
30
0
0
VERTEX
8
Halfen
62
7
10
 825
20
-697.88
30
0
0
SEQEND
8
Halfen
0
POLYLINE
8
Halfen
62
7
66
1
10
0.0
20
0.0
30
0.0
70
1
0
VERTEX
8
Halfen
62
7
10
 749
20
-697.88
30
0
0
VERTEX
8
Halfen
62
7
10
 749
20
 702.801
30
0
0
VERTEX
8
Halfen
62
7
10
 739
20
 702.801
30
0
0
VERTEX
8
Halfen
62
7
10
 739
20
-697.88
30
0
0
SEQEND
8
Halfen
0
POLYLINE
8
Halfen
62
7
66
1
10
0.0
20
0.0
30
0.0
70
1
0
VERTEX
8
Halfen
62
7
10
 663
20
-697.88
30
0
0
VERTEX
8
Halfen
62
7
10
 663
20
 702.801
30
0
0
VERTEX
8
Halfen
62
7
10
 653
20
 702.801
30
0
0
VERTEX
8
Halfen
62
7
10
 653
20
-697.88
30
0
0
SEQEND
8
Halfen
0
POLYLINE
8
Halfen
62
7
66
1
10
0.0
20
0.0
30
0.0
70
1
0
VERTEX
8
Halfen
62
7
10
 577
20
-697.88
30
0
0
VERTEX
8
Halfen
62
7
10
 577
20
 702.801
30
0
0
VERTEX
8
Halfen
62
7
10
 567
20
 702.801
30
0
0
VERTEX
8
Halfen
62
7
10
 567
20
-697.88
30
0
0
SEQEND
8
Halfen
0
POLYLINE
8
Halfen
62
7
66
1
10
0.0
20
0.0
30
0.0
70
1
0
VERTEX
8
Halfen
62
7
10
 421
20
-697.88
30
0
0
VERTEX
8
Halfen
62
7
10
 421
20
 702.801
30
0
0
VERTEX
8
Halfen
62
7
10
 411
20
 702.801
30
0
0
VERTEX
8
Halfen
62
7
10
 411
20
-697.88
30
0
0
SEQEND
8
Halfen
0
POLYLINE
8
Halfen
62
7
66
1
10
0.0
20
0.0
30
0.0
70
1
0
VERTEX
8
Halfen
62
7
10
 335
20
-697.88
30
0
0
VERTEX
8
Halfen
62
7
10
 335
20
 702.801
30
0
0
VERTEX
8
Halfen
62
7
10
 325
20
 702.801
30
0
0
VERTEX
8
Halfen
62
7
10
 325
20
-697.88
30
0
0
SEQEND
8
Halfen
0
POLYLINE
8
Halfen
62
7
66
1
10
0.0
20
0.0
30
0.0
70
1
0
VERTEX
8
Halfen
62
7
10
 249
20
-697.88
30
0
0
VERTEX
8
Halfen
62
7
10
 249
20
 702.801
30
0
0
VERTEX
8
Halfen
62
7
10
 239
20
 702.801
30
0
0
VERTEX
8
Halfen
62
7
10
 239
20
-697.88
30
0
0
SEQEND
8
Halfen
0
POLYLINE
8
Halfen
62
7
66
1
10
0.0
20
0.0
30
0.0
70
1
0
VERTEX
8
Halfen
62
7
10
 163
20
-697.88
30
0
0
VERTEX
8
Halfen
62
7
10
 163
20
 702.801
30
0
0
VERTEX
8
Halfen
62
7
10
 153
20
 702.801
30
0
0
VERTEX
8
Halfen
62
7
10
 153
20
-697.88
30
0
0
SEQEND
8
Halfen
0
POLYLINE
8
Halfen
62
7
66
1
10
0.0
20
0.0
30
0.0
70
1
0
VERTEX
8
Halfen
62
7
10
 77
20
-697.88
30
0
0
VERTEX
8
Halfen
62
7
10
 77
20
 702.801
30
0
0
VERTEX
8
Halfen
62
7
10
 67
20
 702.801
30
0
0
VERTEX
8
Halfen
62
7
10
 67
20
-697.88
30
0
0
SEQEND
8
Halfen
0
POLYLINE
8
Halfen
62
7
66
1
10
0.0
20
0.0
30
0.0
70
1
0
VERTEX
8
Halfen
62
7
10
 1400
20
-60
30
0
0
VERTEX
8
Halfen
62
7
10
 1400
20
 60
30
0
0
VERTEX
8
Halfen
62
7
10
 1386.5
20
 73.5
30
0
0
VERTEX
8
Halfen
62
7
10
 1386.5
20
 60
30
0
0
VERTEX
8
Halfen
62
7
10
 1250
20
 60
30
0
0
VERTEX
8
Halfen
62
7
10
 1250
20
-60
30
0
0
VERTEX
8
Halfen
62
7
10
 1386.5
20
-60
30
0
0
VERTEX
8
Halfen
62
7
10
 1386.5
20
-73.5
30
0
0
SEQEND
8
Halfen
0
POLYLINE
8
Halfen
62
7
66
1
10
0.0
20
0.0
30
0.0
70
1
0
VERTEX
8
Halfen
62
7
10
 1250
20
-60
30
0
0
VERTEX
8
Halfen
62
7
10
 1250
20
 60
30
0
0
VERTEX
8
Halfen
62
7
10
 1213.5
20
 60
30
0
0
VERTEX
8
Halfen
62
7
10
 1213.5
20
 73.5
30
0
0
VERTEX
8
Halfen
62
7
10
 1200
20
 60
30
0
0
VERTEX
8
Halfen
62
7
10
 1200
20
-60
30
0
0
VERTEX
8
Halfen
62
7
10
 1213.5
20
-73.5
30
0
0
VERTEX
8
Halfen
62
7
10
 1213.5
20
-60
30
0
0
SEQEND
8
Halfen
0
POLYLINE
8
Halfen
62
7
66
1
10
0.0
20
0.0
30
0.0
70
1
0
VERTEX
8
Halfen
62
7
10
 1397.5
20
-58.75
30
0
0
VERTEX
8
Halfen
62
7
10
 1397.5
20
 58.75
30
0
0
VERTEX
8
Halfen
62
7
10
 1389
20
 67.25
30
0
0
VERTEX
8
Halfen
62
7
10
 1389
20
 58
30
0
0
VERTEX
8
Halfen
62
7
10
 1252
20
 58
30
0
0
VERTEX
8
Halfen
62
7
10
 1252
20
-58
30
0
0
VERTEX
8
Halfen
62
7
10
 1389
20
-58
30
0
0
VERTEX
8
Halfen
62
7
10
 1389
20
-67.25
30
0
0
SEQEND
8
Halfen
0
POLYLINE
8
Halfen
62
7
66
1
10
0.0
20
0.0
30
0.0
70
1
0
VERTEX
8
Halfen
62
7
10
 1248
20
-58
30
0
0
VERTEX
8
Halfen
62
7
10
 1248
20
 58
30
0
0
VERTEX
8
Halfen
62
7
10
 1211
20
 58
30
0
0
VERTEX
8
Halfen
62
7
10
 1211
20
 67.25
30
0
0
VERTEX
8
Halfen
62
7
10
 1202.5
20
 58.75
30
0
0
VERTEX
8
Halfen
62
7
10
 1202.5
20
-58.75
30
0
0
VERTEX
8
Halfen
62
7
10
 1211
20
-67.25
30
0
0
VERTEX
8
Halfen
62
7
10
 1211
20
-58
30
0
0
SEQEND
8
Halfen
0
POLYLINE
8
Halfen
62
7
66
1
10
0.0
20
0.0
30
0.0
70
1
0
VERTEX
8
Halfen
62
7
10
 1370
20
-697.88
30
0
0
VERTEX
8
Halfen
62
7
10
 1370
20
-94.13
30
0
0
VERTEX
8
Halfen
62
7
10
 1369.466
20
-87.614
30
0
0
VERTEX
8
Halfen
62
7
10
 1367.877
20
-81.272
30
0
0
VERTEX
8
Halfen
62
7
10
 1365.277
20
-75.274
30
0
0
VERTEX
8
Halfen
62
7
10
 1361.734
20
-69.779
30
0
0
VERTEX
8
Halfen
62
7
10
 1246.199
20
 80.788
30
0
0
VERTEX
8
Halfen
62
7
10
 1243.542
20
 84.909
30
0
0
VERTEX
8
Halfen
62
7
10
 1241.592
20
 89.408
30
0
0
VERTEX
8
Halfen
62
7
10
 1240.401
20
 94.164
30
0
0
VERTEX
8
Halfen
62
7
10
 1240
20
 99.051
30
0
0
VERTEX
8
Halfen
62
7
10
 1240
20
 163.801
30
0
0
VERTEX
8
Halfen
62
7
10
 1240
20
 702.801
30
0
0
VERTEX
8
Halfen
62
7
10
 1230
20
 702.801
30
0
0
VERTEX
8
Halfen
62
7
10
 1230
20
 163.801
30
0
0
VERTEX
8
Halfen
62
7
10
 1230
20
 99.051
30
0
0
VERTEX
8
Halfen
62
7
10
 1230.534
20
 92.535
30
0
0
VERTEX
8
Halfen
62
7
10
 1232.123
20
 86.194
30
0
0
VERTEX
8
Halfen
62
7
10
 1234.723
20
 80.195
30
0
0
VERTEX
8
Halfen
62
7
10
 1238.266
20
 74.701
30
0
0
VERTEX
8
Halfen
62
7
10
 1353.801
20
-75.867
30
0
0
VERTEX
8
Halfen
62
7
10
 1356.458
20
-79.988
30
0
0
VERTEX
8
Halfen
62
7
10
 1358.408
20
-84.487
30
0
0
VERTEX
8
Halfen
62
7
10
 1359.599
20
-89.243
30
0
0
VERTEX
8
Halfen
62
7
10
 1360
20
-94.13
30
0
0
VERTEX
8
Halfen
62
7
10
 1360
20
-697.88
30
0
0
SEQEND
8
Halfen
0
POLYLINE
8
Halfen
62
7
66
1
10
0.0
20
0.0
30
0.0
70
1
0
VERTEX
8
Halfen
62
7
10
 1230
20
-697.88
30
0
0
VERTEX
8
Halfen
62
7
10
 1230
20
-94.13
30
0
0
VERTEX
8
Halfen
62
7
10
 1230.534
20
-87.614
30
0
0
VERTEX
8
Halfen
62
7
10
 1232.123
20
-81.272
30
0
0
VERTEX
8
Halfen
62
7
10
 1234.723
20
-75.274
30
0
0
VERTEX
8
Halfen
62
7
10
 1238.266
20
-69.779
30
0
0
VERTEX
8
Halfen
62
7
10
 1353.801
20
 80.788
30
0
0
VERTEX
8
Halfen
62
7
10
 1356.458
20
 84.909
30
0
0
VERTEX
8
Halfen
62
7
10
 1358.408
20
 89.408
30
0
0
VERTEX
8
Halfen
62
7
10
 1359.599
20
 94.164
30
0
0
VERTEX
8
Halfen
62
7
10
 1360
20
 99.051
30
0
0
VERTEX
8
Halfen
62
7
10
 1360
20
 163.801
30
0
0
VERTEX
8
Halfen
62
7
10
 1360
20
 702.801
30
0
0
VERTEX
8
Halfen
62
7
10
 1370
20
 702.801
30
0
0
VERTEX
8
Halfen
62
7
10
 1370
20
 163.801
30
0
0
VERTEX
8
Halfen
62
7
10
 1370
20
 99.051
30
0
0
VERTEX
8
Halfen
62
7
10
 1369.466
20
 92.535
30
0
0
VERTEX
8
Halfen
62
7
10
 1367.877
20
 86.194
30
0
0
VERTEX
8
Halfen
62
7
10
 1365.277
20
 80.195
30
0
0
VERTEX
8
Halfen
62
7
10
 1361.734
20
 74.701
30
0
0
VERTEX
8
Halfen
62
7
10
 1246.199
20
-75.867
30
0
0
VERTEX
8
Halfen
62
7
10
 1243.542
20
-79.988
30
0
0
VERTEX
8
Halfen
62
7
10
 1241.592
20
-84.487
30
0
0
VERTEX
8
Halfen
62
7
10
 1240.401
20
-89.243
30
0
0
VERTEX
8
Halfen
62
7
10
 1240
20
-94.13
30
0
0
VERTEX
8
Halfen
62
7
10
 1240
20
-697.88
30
0
0
SEQEND
8
Halfen
0
ENDSEC
0
EOF
