0
SECTION
2
HEADER
9
$EXTMIN
10
 0
20
 100
30
0.0
9
$EXTMAX
10
 0
20
 100
30
0.0
9
$LIMMIN
10
 100
20
 0
9
$LIMMAX
10
 0
20
 100
9
$PSLTSCALE
70
1
0
ENDSEC
0
SECTION
2
TABLES
0
TABLE
2
LAYER
70
2
0
LAYER
2
0
70
0
62
7
6
CONTINUOUS
0
LAYER
2
Halfen
70
0
62
7
6
CONTINUOUS
0
ENDTAB
0
ENDSEC
0
SECTION
2
ENTITIES
0
POLYLINE
8
Halfen
62
7
66
1
10
0.0
20
0.0
30
0.0
70
1
0
VERTEX
8
Halfen
62
7
10
 0
20
-73.5
30
0
0
VERTEX
8
Halfen
62
7
10
 250
20
-73.5
30
0
0
VERTEX
8
Halfen
62
7
10
 250
20
 73.5
30
0
0
VERTEX
8
Halfen
62
7
10
 0
20
 73.5
30
0
0
SEQEND
8
Halfen
0
POLYLINE
8
Halfen
62
7
66
1
10
0.0
20
0.0
30
0.0
70
1
0
VERTEX
8
Halfen
62
7
10
 0
20
-60
30
0
0
VERTEX
8
Halfen
62
7
10
 250
20
-60
30
0
0
VERTEX
8
Halfen
62
7
10
 250
20
 60
30
0
0
VERTEX
8
Halfen
62
7
10
 0
20
 60
30
0
0
SEQEND
8
Halfen
0
POLYLINE
8
Halfen
62
7
66
1
10
0.0
20
0.0
30
0.0
70
1
0
VERTEX
8
Halfen
62
7
10
 20
20
-32.5
30
0
0
VERTEX
8
Halfen
62
7
10
 37
20
-1.5
30
0
0
VERTEX
8
Halfen
62
7
10
 28
20
-1.5
30
0
0
VERTEX
8
Halfen
62
7
10
 28
20
 32.5
30
0
0
VERTEX
8
Halfen
62
7
10
 12
20
 32.5
30
0
0
VERTEX
8
Halfen
62
7
10
 12
20
-1.5
30
0
0
VERTEX
8
Halfen
62
7
10
 3
20
-1.5
30
0
0
SEQEND
8
Halfen
0
POLYLINE
8
Halfen
62
7
66
1
10
0.0
20
0.0
30
0.0
70
1
0
VERTEX
8
Halfen
62
7
10
 230
20
-32.5
30
0
0
VERTEX
8
Halfen
62
7
10
 247
20
-1.5
30
0
0
VERTEX
8
Halfen
62
7
10
 238
20
-1.5
30
0
0
VERTEX
8
Halfen
62
7
10
 238
20
 32.5
30
0
0
VERTEX
8
Halfen
62
7
10
 222
20
 32.5
30
0
0
VERTEX
8
Halfen
62
7
10
 222
20
-1.5
30
0
0
VERTEX
8
Halfen
62
7
10
 213
20
-1.5
30
0
0
SEQEND
8
Halfen
0
POLYLINE
8
Halfen
62
7
66
1
10
0.0
20
0.0
30
0.0
70
1
0
VERTEX
8
Halfen
62
7
10
 68
20
-775
30
0
0
VERTEX
8
Halfen
62
7
10
 68
20
-160
30
0
0
VERTEX
8
Halfen
62
7
10
 56
20
-160
30
0
0
VERTEX
8
Halfen
62
7
10
 56
20
-775
30
0
0
SEQEND
8
Halfen
0
POLYLINE
8
Halfen
62
7
66
1
10
0.0
20
0.0
30
0.0
70
1
0
VERTEX
8
Halfen
62
7
10
 67.25
20
-160
30
0
0
VERTEX
8
Halfen
62
7
10
 67.25
20
-62
30
0
0
VERTEX
8
Halfen
62
7
10
 56.75
20
-62
30
0
0
VERTEX
8
Halfen
62
7
10
 56.75
20
-160
30
0
0
SEQEND
8
Halfen
0
POLYLINE
8
Halfen
62
7
66
1
10
0.0
20
0.0
30
0.0
70
1
0
VERTEX
8
Halfen
62
7
10
 68
20
-62
30
0
0
VERTEX
8
Halfen
62
7
10
 68
20
-60
30
0
0
VERTEX
8
Halfen
62
7
10
 56
20
-60
30
0
0
VERTEX
8
Halfen
62
7
10
 56
20
-62
30
0
0
SEQEND
8
Halfen
0
POLYLINE
8
Halfen
62
7
66
1
10
0.0
20
0.0
30
0.0
70
1
0
VERTEX
8
Halfen
62
7
10
 67.25
20
-60
30
0
0
VERTEX
8
Halfen
62
7
10
 67.25
20
 60
30
0
0
VERTEX
8
Halfen
62
7
10
 56.75
20
 60
30
0
0
VERTEX
8
Halfen
62
7
10
 56.75
20
-60
30
0
0
SEQEND
8
Halfen
0
POLYLINE
8
Halfen
62
7
66
1
10
0.0
20
0.0
30
0.0
70
1
0
VERTEX
8
Halfen
62
7
10
 68
20
 60
30
0
0
VERTEX
8
Halfen
62
7
10
 68
20
 62
30
0
0
VERTEX
8
Halfen
62
7
10
 56
20
 62
30
0
0
VERTEX
8
Halfen
62
7
10
 56
20
 60
30
0
0
SEQEND
8
Halfen
0
POLYLINE
8
Halfen
62
7
66
1
10
0.0
20
0.0
30
0.0
70
1
0
VERTEX
8
Halfen
62
7
10
 67.25
20
 62
30
0
0
VERTEX
8
Halfen
62
7
10
 67.25
20
 160
30
0
0
VERTEX
8
Halfen
62
7
10
 56.75
20
 160
30
0
0
VERTEX
8
Halfen
62
7
10
 56.75
20
 62
30
0
0
SEQEND
8
Halfen
0
POLYLINE
8
Halfen
62
7
66
1
10
0.0
20
0.0
30
0.0
70
1
0
VERTEX
8
Halfen
62
7
10
 68
20
 160
30
0
0
VERTEX
8
Halfen
62
7
10
 68
20
 775
30
0
0
VERTEX
8
Halfen
62
7
10
 56
20
 775
30
0
0
VERTEX
8
Halfen
62
7
10
 56
20
 160
30
0
0
SEQEND
8
Halfen
0
POLYLINE
8
Halfen
62
7
66
1
10
0.0
20
0.0
30
0.0
70
1
0
VERTEX
8
Halfen
62
7
10
 152
20
-775
30
0
0
VERTEX
8
Halfen
62
7
10
 152
20
-160
30
0
0
VERTEX
8
Halfen
62
7
10
 140
20
-160
30
0
0
VERTEX
8
Halfen
62
7
10
 140
20
-775
30
0
0
SEQEND
8
Halfen
0
POLYLINE
8
Halfen
62
7
66
1
10
0.0
20
0.0
30
0.0
70
1
0
VERTEX
8
Halfen
62
7
10
 151.25
20
-160
30
0
0
VERTEX
8
Halfen
62
7
10
 151.25
20
-62
30
0
0
VERTEX
8
Halfen
62
7
10
 140.75
20
-62
30
0
0
VERTEX
8
Halfen
62
7
10
 140.75
20
-160
30
0
0
SEQEND
8
Halfen
0
POLYLINE
8
Halfen
62
7
66
1
10
0.0
20
0.0
30
0.0
70
1
0
VERTEX
8
Halfen
62
7
10
 152
20
-62
30
0
0
VERTEX
8
Halfen
62
7
10
 152
20
-60
30
0
0
VERTEX
8
Halfen
62
7
10
 140
20
-60
30
0
0
VERTEX
8
Halfen
62
7
10
 140
20
-62
30
0
0
SEQEND
8
Halfen
0
POLYLINE
8
Halfen
62
7
66
1
10
0.0
20
0.0
30
0.0
70
1
0
VERTEX
8
Halfen
62
7
10
 151.25
20
-60
30
0
0
VERTEX
8
Halfen
62
7
10
 151.25
20
 60
30
0
0
VERTEX
8
Halfen
62
7
10
 140.75
20
 60
30
0
0
VERTEX
8
Halfen
62
7
10
 140.75
20
-60
30
0
0
SEQEND
8
Halfen
0
POLYLINE
8
Halfen
62
7
66
1
10
0.0
20
0.0
30
0.0
70
1
0
VERTEX
8
Halfen
62
7
10
 152
20
 60
30
0
0
VERTEX
8
Halfen
62
7
10
 152
20
 62
30
0
0
VERTEX
8
Halfen
62
7
10
 140
20
 62
30
0
0
VERTEX
8
Halfen
62
7
10
 140
20
 60
30
0
0
SEQEND
8
Halfen
0
POLYLINE
8
Halfen
62
7
66
1
10
0.0
20
0.0
30
0.0
70
1
0
VERTEX
8
Halfen
62
7
10
 151.25
20
 62
30
0
0
VERTEX
8
Halfen
62
7
10
 151.25
20
 160
30
0
0
VERTEX
8
Halfen
62
7
10
 140.75
20
 160
30
0
0
VERTEX
8
Halfen
62
7
10
 140.75
20
 62
30
0
0
SEQEND
8
Halfen
0
POLYLINE
8
Halfen
62
7
66
1
10
0.0
20
0.0
30
0.0
70
1
0
VERTEX
8
Halfen
62
7
10
 152
20
 160
30
0
0
VERTEX
8
Halfen
62
7
10
 152
20
 775
30
0
0
VERTEX
8
Halfen
62
7
10
 140
20
 775
30
0
0
VERTEX
8
Halfen
62
7
10
 140
20
 160
30
0
0
SEQEND
8
Halfen
0
POLYLINE
8
Halfen
62
7
66
1
10
0.0
20
0.0
30
0.0
70
1
0
VERTEX
8
Halfen
62
7
10
 98
20
-578.609
30
0
0
VERTEX
8
Halfen
62
7
10
 98
20
 577.25
30
0
0
VERTEX
8
Halfen
62
7
10
 90
20
 577.25
30
0
0
VERTEX
8
Halfen
62
7
10
 90
20
-578.609
30
0
0
SEQEND
8
Halfen
0
POLYLINE
8
Halfen
62
7
66
1
10
0.0
20
0.0
30
0.0
70
1
0
VERTEX
8
Halfen
62
7
10
 106
20
-577.251
30
0
0
VERTEX
8
Halfen
62
7
10
 106
20
 578.609
30
0
0
VERTEX
8
Halfen
62
7
10
 98
20
 578.609
30
0
0
VERTEX
8
Halfen
62
7
10
 98
20
-577.251
30
0
0
SEQEND
8
Halfen
0
POLYLINE
8
Halfen
62
7
66
1
10
0.0
20
0.0
30
0.0
70
1
0
VERTEX
8
Halfen
62
7
10
 650
20
-60
30
0
0
VERTEX
8
Halfen
62
7
10
 650
20
 60
30
0
0
VERTEX
8
Halfen
62
7
10
 636.5
20
 73.5
30
0
0
VERTEX
8
Halfen
62
7
10
 636.5
20
 60
30
0
0
VERTEX
8
Halfen
62
7
10
 500
20
 60
30
0
0
VERTEX
8
Halfen
62
7
10
 500
20
-60
30
0
0
VERTEX
8
Halfen
62
7
10
 636.5
20
-60
30
0
0
VERTEX
8
Halfen
62
7
10
 636.5
20
-73.5
30
0
0
SEQEND
8
Halfen
0
POLYLINE
8
Halfen
62
7
66
1
10
0.0
20
0.0
30
0.0
70
1
0
VERTEX
8
Halfen
62
7
10
 500
20
-60
30
0
0
VERTEX
8
Halfen
62
7
10
 500
20
 60
30
0
0
VERTEX
8
Halfen
62
7
10
 463.5
20
 60
30
0
0
VERTEX
8
Halfen
62
7
10
 463.5
20
 73.5
30
0
0
VERTEX
8
Halfen
62
7
10
 450
20
 60
30
0
0
VERTEX
8
Halfen
62
7
10
 450
20
-60
30
0
0
VERTEX
8
Halfen
62
7
10
 463.5
20
-73.5
30
0
0
VERTEX
8
Halfen
62
7
10
 463.5
20
-60
30
0
0
SEQEND
8
Halfen
0
POLYLINE
8
Halfen
62
7
66
1
10
0.0
20
0.0
30
0.0
70
1
0
VERTEX
8
Halfen
62
7
10
 647.5
20
-58.75
30
0
0
VERTEX
8
Halfen
62
7
10
 647.5
20
 58.75
30
0
0
VERTEX
8
Halfen
62
7
10
 639
20
 67.25
30
0
0
VERTEX
8
Halfen
62
7
10
 639
20
 58
30
0
0
VERTEX
8
Halfen
62
7
10
 502
20
 58
30
0
0
VERTEX
8
Halfen
62
7
10
 502
20
-58
30
0
0
VERTEX
8
Halfen
62
7
10
 639
20
-58
30
0
0
VERTEX
8
Halfen
62
7
10
 639
20
-67.25
30
0
0
SEQEND
8
Halfen
0
POLYLINE
8
Halfen
62
7
66
1
10
0.0
20
0.0
30
0.0
70
1
0
VERTEX
8
Halfen
62
7
10
 498
20
-58
30
0
0
VERTEX
8
Halfen
62
7
10
 498
20
 58
30
0
0
VERTEX
8
Halfen
62
7
10
 461
20
 58
30
0
0
VERTEX
8
Halfen
62
7
10
 461
20
 67.25
30
0
0
VERTEX
8
Halfen
62
7
10
 452.5
20
 58.75
30
0
0
VERTEX
8
Halfen
62
7
10
 452.5
20
-58.75
30
0
0
VERTEX
8
Halfen
62
7
10
 461
20
-67.25
30
0
0
VERTEX
8
Halfen
62
7
10
 461
20
-58
30
0
0
SEQEND
8
Halfen
0
POLYLINE
8
Halfen
62
7
66
1
10
0.0
20
0.0
30
0.0
70
1
0
VERTEX
8
Halfen
62
7
10
 497
20
-775
30
0
0
VERTEX
8
Halfen
62
7
10
 497
20
-160
30
0
0
VERTEX
8
Halfen
62
7
10
 485
20
-160
30
0
0
VERTEX
8
Halfen
62
7
10
 485
20
-775
30
0
0
SEQEND
8
Halfen
0
POLYLINE
8
Halfen
62
7
66
1
10
0.0
20
0.0
30
0.0
70
1
0
VERTEX
8
Halfen
62
7
10
 496.25
20
-160
30
0
0
VERTEX
8
Halfen
62
7
10
 496.25
20
-62
30
0
0
VERTEX
8
Halfen
62
7
10
 485.75
20
-62
30
0
0
VERTEX
8
Halfen
62
7
10
 485.75
20
-160
30
0
0
SEQEND
8
Halfen
0
POLYLINE
8
Halfen
62
7
66
1
10
0.0
20
0.0
30
0.0
70
1
0
VERTEX
8
Halfen
62
7
10
 497
20
-62
30
0
0
VERTEX
8
Halfen
62
7
10
 497
20
-60
30
0
0
VERTEX
8
Halfen
62
7
10
 485
20
-60
30
0
0
VERTEX
8
Halfen
62
7
10
 485
20
-62
30
0
0
SEQEND
8
Halfen
0
POLYLINE
8
Halfen
62
7
66
1
10
0.0
20
0.0
30
0.0
70
1
0
VERTEX
8
Halfen
62
7
10
 496.25
20
-60
30
0
0
VERTEX
8
Halfen
62
7
10
 496.25
20
 60
30
0
0
VERTEX
8
Halfen
62
7
10
 485.75
20
 60
30
0
0
VERTEX
8
Halfen
62
7
10
 485.75
20
-60
30
0
0
SEQEND
8
Halfen
0
POLYLINE
8
Halfen
62
7
66
1
10
0.0
20
0.0
30
0.0
70
1
0
VERTEX
8
Halfen
62
7
10
 497
20
 60
30
0
0
VERTEX
8
Halfen
62
7
10
 497
20
 62
30
0
0
VERTEX
8
Halfen
62
7
10
 485
20
 62
30
0
0
VERTEX
8
Halfen
62
7
10
 485
20
 60
30
0
0
SEQEND
8
Halfen
0
POLYLINE
8
Halfen
62
7
66
1
10
0.0
20
0.0
30
0.0
70
1
0
VERTEX
8
Halfen
62
7
10
 496.25
20
 62
30
0
0
VERTEX
8
Halfen
62
7
10
 496.25
20
 160
30
0
0
VERTEX
8
Halfen
62
7
10
 485.75
20
 160
30
0
0
VERTEX
8
Halfen
62
7
10
 485.75
20
 62
30
0
0
SEQEND
8
Halfen
0
POLYLINE
8
Halfen
62
7
66
1
10
0.0
20
0.0
30
0.0
70
1
0
VERTEX
8
Halfen
62
7
10
 497
20
 160
30
0
0
VERTEX
8
Halfen
62
7
10
 497
20
 775
30
0
0
VERTEX
8
Halfen
62
7
10
 485
20
 775
30
0
0
VERTEX
8
Halfen
62
7
10
 485
20
 160
30
0
0
SEQEND
8
Halfen
0
POLYLINE
8
Halfen
62
7
66
1
10
0.0
20
0.0
30
0.0
70
1
0
VERTEX
8
Halfen
62
7
10
 620
20
-775
30
0
0
VERTEX
8
Halfen
62
7
10
 620
20
-160
30
0
0
VERTEX
8
Halfen
62
7
10
 608
20
-160
30
0
0
VERTEX
8
Halfen
62
7
10
 608
20
-775
30
0
0
SEQEND
8
Halfen
0
POLYLINE
8
Halfen
62
7
66
1
10
0.0
20
0.0
30
0.0
70
1
0
VERTEX
8
Halfen
62
7
10
 619.25
20
-160
30
0
0
VERTEX
8
Halfen
62
7
10
 619.25
20
-62
30
0
0
VERTEX
8
Halfen
62
7
10
 608.75
20
-62
30
0
0
VERTEX
8
Halfen
62
7
10
 608.75
20
-160
30
0
0
SEQEND
8
Halfen
0
POLYLINE
8
Halfen
62
7
66
1
10
0.0
20
0.0
30
0.0
70
1
0
VERTEX
8
Halfen
62
7
10
 620
20
-62
30
0
0
VERTEX
8
Halfen
62
7
10
 620
20
-60
30
0
0
VERTEX
8
Halfen
62
7
10
 608
20
-60
30
0
0
VERTEX
8
Halfen
62
7
10
 608
20
-62
30
0
0
SEQEND
8
Halfen
0
POLYLINE
8
Halfen
62
7
66
1
10
0.0
20
0.0
30
0.0
70
1
0
VERTEX
8
Halfen
62
7
10
 619.25
20
-60
30
0
0
VERTEX
8
Halfen
62
7
10
 619.25
20
 60
30
0
0
VERTEX
8
Halfen
62
7
10
 608.75
20
 60
30
0
0
VERTEX
8
Halfen
62
7
10
 608.75
20
-60
30
0
0
SEQEND
8
Halfen
0
POLYLINE
8
Halfen
62
7
66
1
10
0.0
20
0.0
30
0.0
70
1
0
VERTEX
8
Halfen
62
7
10
 620
20
 60
30
0
0
VERTEX
8
Halfen
62
7
10
 620
20
 62
30
0
0
VERTEX
8
Halfen
62
7
10
 608
20
 62
30
0
0
VERTEX
8
Halfen
62
7
10
 608
20
 60
30
0
0
SEQEND
8
Halfen
0
POLYLINE
8
Halfen
62
7
66
1
10
0.0
20
0.0
30
0.0
70
1
0
VERTEX
8
Halfen
62
7
10
 619.25
20
 62
30
0
0
VERTEX
8
Halfen
62
7
10
 619.25
20
 160
30
0
0
VERTEX
8
Halfen
62
7
10
 608.75
20
 160
30
0
0
VERTEX
8
Halfen
62
7
10
 608.75
20
 62
30
0
0
SEQEND
8
Halfen
0
POLYLINE
8
Halfen
62
7
66
1
10
0.0
20
0.0
30
0.0
70
1
0
VERTEX
8
Halfen
62
7
10
 620
20
 160
30
0
0
VERTEX
8
Halfen
62
7
10
 620
20
 775
30
0
0
VERTEX
8
Halfen
62
7
10
 608
20
 775
30
0
0
VERTEX
8
Halfen
62
7
10
 608
20
 160
30
0
0
SEQEND
8
Halfen
0
POLYLINE
8
Halfen
62
7
66
1
10
0.0
20
0.0
30
0.0
70
1
0
VERTEX
8
Halfen
62
7
10
 620
20
-578.609
30
0
0
VERTEX
8
Halfen
62
7
10
 620
20
-87.856
30
0
0
VERTEX
8
Halfen
62
7
10
 619.514
20
-82.3
30
0
0
VERTEX
8
Halfen
62
7
10
 618.07
20
-76.912
30
0
0
VERTEX
8
Halfen
62
7
10
 615.713
20
-71.856
30
0
0
VERTEX
8
Halfen
62
7
10
 531.215
20
 74.497
30
0
0
VERTEX
8
Halfen
62
7
10
 529.447
20
 78.289
30
0
0
VERTEX
8
Halfen
62
7
10
 528.365
20
 82.33
30
0
0
VERTEX
8
Halfen
62
7
10
 528
20
 86.497
30
0
0
VERTEX
8
Halfen
62
7
10
 528
20
 577.25
30
0
0
VERTEX
8
Halfen
62
7
10
 520
20
 577.25
30
0
0
VERTEX
8
Halfen
62
7
10
 520
20
 86.497
30
0
0
VERTEX
8
Halfen
62
7
10
 520.486
20
 80.941
30
0
0
VERTEX
8
Halfen
62
7
10
 521.93
20
 75.553
30
0
0
VERTEX
8
Halfen
62
7
10
 524.287
20
 70.497
30
0
0
VERTEX
8
Halfen
62
7
10
 608.785
20
-75.856
30
0
0
VERTEX
8
Halfen
62
7
10
 610.553
20
-79.648
30
0
0
VERTEX
8
Halfen
62
7
10
 611.635
20
-83.689
30
0
0
VERTEX
8
Halfen
62
7
10
 612
20
-87.856
30
0
0
VERTEX
8
Halfen
62
7
10
 612
20
-578.609
30
0
0
SEQEND
8
Halfen
0
POLYLINE
8
Halfen
62
7
66
1
10
0.0
20
0.0
30
0.0
70
1
0
VERTEX
8
Halfen
62
7
10
 520
20
-577.251
30
0
0
VERTEX
8
Halfen
62
7
10
 520
20
-86.497
30
0
0
VERTEX
8
Halfen
62
7
10
 520.486
20
-80.941
30
0
0
VERTEX
8
Halfen
62
7
10
 521.93
20
-75.553
30
0
0
VERTEX
8
Halfen
62
7
10
 524.287
20
-70.497
30
0
0
VERTEX
8
Halfen
62
7
10
 608.785
20
 75.856
30
0
0
VERTEX
8
Halfen
62
7
10
 610.553
20
 79.648
30
0
0
VERTEX
8
Halfen
62
7
10
 611.635
20
 83.689
30
0
0
VERTEX
8
Halfen
62
7
10
 612
20
 87.856
30
0
0
VERTEX
8
Halfen
62
7
10
 612
20
 578.609
30
0
0
VERTEX
8
Halfen
62
7
10
 620
20
 578.609
30
0
0
VERTEX
8
Halfen
62
7
10
 620
20
 87.856
30
0
0
VERTEX
8
Halfen
62
7
10
 619.514
20
 82.3
30
0
0
VERTEX
8
Halfen
62
7
10
 618.07
20
 76.912
30
0
0
VERTEX
8
Halfen
62
7
10
 615.713
20
 71.856
30
0
0
VERTEX
8
Halfen
62
7
10
 531.215
20
-74.497
30
0
0
VERTEX
8
Halfen
62
7
10
 529.447
20
-78.289
30
0
0
VERTEX
8
Halfen
62
7
10
 528.365
20
-82.33
30
0
0
VERTEX
8
Halfen
62
7
10
 528
20
-86.497
30
0
0
VERTEX
8
Halfen
62
7
10
 528
20
-577.251
30
0
0
SEQEND
8
Halfen
0
ENDSEC
0
EOF
