0
SECTION
2
HEADER
9
$EXTMIN
10
 0
20
 100
30
0.0
9
$EXTMAX
10
 0
20
 100
30
0.0
9
$LIMMIN
10
 100
20
 0
9
$LIMMAX
10
 0
20
 100
9
$PSLTSCALE
70
1
0
ENDSEC
0
SECTION
2
TABLES
0
TABLE
2
LAYER
70
2
0
LAYER
2
0
70
0
62
7
6
CONTINUOUS
0
LAYER
2
Halfen
70
0
62
7
6
CONTINUOUS
0
ENDTAB
0
ENDSEC
0
SECTION
2
ENTITIES
0
POLYLINE
8
Halfen
62
7
66
1
10
0.0
20
0.0
30
0.0
70
1
0
VERTEX
8
Halfen
62
7
10
 0
20
-73.5
30
0
0
VERTEX
8
Halfen
62
7
10
 250
20
-73.5
30
0
0
VERTEX
8
Halfen
62
7
10
 250
20
 73.5
30
0
0
VERTEX
8
Halfen
62
7
10
 0
20
 73.5
30
0
0
SEQEND
8
Halfen
0
POLYLINE
8
Halfen
62
7
66
1
10
0.0
20
0.0
30
0.0
70
1
0
VERTEX
8
Halfen
62
7
10
 0
20
-60
30
0
0
VERTEX
8
Halfen
62
7
10
 250
20
-60
30
0
0
VERTEX
8
Halfen
62
7
10
 250
20
 60
30
0
0
VERTEX
8
Halfen
62
7
10
 0
20
 60
30
0
0
SEQEND
8
Halfen
0
POLYLINE
8
Halfen
62
7
66
1
10
0.0
20
0.0
30
0.0
70
1
0
VERTEX
8
Halfen
62
7
10
 20
20
-32.5
30
0
0
VERTEX
8
Halfen
62
7
10
 37
20
-1.5
30
0
0
VERTEX
8
Halfen
62
7
10
 28
20
-1.5
30
0
0
VERTEX
8
Halfen
62
7
10
 28
20
 32.5
30
0
0
VERTEX
8
Halfen
62
7
10
 12
20
 32.5
30
0
0
VERTEX
8
Halfen
62
7
10
 12
20
-1.5
30
0
0
VERTEX
8
Halfen
62
7
10
 3
20
-1.5
30
0
0
SEQEND
8
Halfen
0
POLYLINE
8
Halfen
62
7
66
1
10
0.0
20
0.0
30
0.0
70
1
0
VERTEX
8
Halfen
62
7
10
 230
20
-32.5
30
0
0
VERTEX
8
Halfen
62
7
10
 247
20
-1.5
30
0
0
VERTEX
8
Halfen
62
7
10
 238
20
-1.5
30
0
0
VERTEX
8
Halfen
62
7
10
 238
20
 32.5
30
0
0
VERTEX
8
Halfen
62
7
10
 222
20
 32.5
30
0
0
VERTEX
8
Halfen
62
7
10
 222
20
-1.5
30
0
0
VERTEX
8
Halfen
62
7
10
 213
20
-1.5
30
0
0
SEQEND
8
Halfen
0
POLYLINE
8
Halfen
62
7
66
1
10
0.0
20
0.0
30
0.0
70
1
0
VERTEX
8
Halfen
62
7
10
 68
20
-775
30
0
0
VERTEX
8
Halfen
62
7
10
 68
20
-160
30
0
0
VERTEX
8
Halfen
62
7
10
 56
20
-160
30
0
0
VERTEX
8
Halfen
62
7
10
 56
20
-775
30
0
0
SEQEND
8
Halfen
0
POLYLINE
8
Halfen
62
7
66
1
10
0.0
20
0.0
30
0.0
70
1
0
VERTEX
8
Halfen
62
7
10
 67.25
20
-160
30
0
0
VERTEX
8
Halfen
62
7
10
 67.25
20
-62
30
0
0
VERTEX
8
Halfen
62
7
10
 56.75
20
-62
30
0
0
VERTEX
8
Halfen
62
7
10
 56.75
20
-160
30
0
0
SEQEND
8
Halfen
0
POLYLINE
8
Halfen
62
7
66
1
10
0.0
20
0.0
30
0.0
70
1
0
VERTEX
8
Halfen
62
7
10
 68
20
-62
30
0
0
VERTEX
8
Halfen
62
7
10
 68
20
-60
30
0
0
VERTEX
8
Halfen
62
7
10
 56
20
-60
30
0
0
VERTEX
8
Halfen
62
7
10
 56
20
-62
30
0
0
SEQEND
8
Halfen
0
POLYLINE
8
Halfen
62
7
66
1
10
0.0
20
0.0
30
0.0
70
1
0
VERTEX
8
Halfen
62
7
10
 67.25
20
-60
30
0
0
VERTEX
8
Halfen
62
7
10
 67.25
20
 60
30
0
0
VERTEX
8
Halfen
62
7
10
 56.75
20
 60
30
0
0
VERTEX
8
Halfen
62
7
10
 56.75
20
-60
30
0
0
SEQEND
8
Halfen
0
POLYLINE
8
Halfen
62
7
66
1
10
0.0
20
0.0
30
0.0
70
1
0
VERTEX
8
Halfen
62
7
10
 68
20
 60
30
0
0
VERTEX
8
Halfen
62
7
10
 68
20
 62
30
0
0
VERTEX
8
Halfen
62
7
10
 56
20
 62
30
0
0
VERTEX
8
Halfen
62
7
10
 56
20
 60
30
0
0
SEQEND
8
Halfen
0
POLYLINE
8
Halfen
62
7
66
1
10
0.0
20
0.0
30
0.0
70
1
0
VERTEX
8
Halfen
62
7
10
 67.25
20
 62
30
0
0
VERTEX
8
Halfen
62
7
10
 67.25
20
 160
30
0
0
VERTEX
8
Halfen
62
7
10
 56.75
20
 160
30
0
0
VERTEX
8
Halfen
62
7
10
 56.75
20
 62
30
0
0
SEQEND
8
Halfen
0
POLYLINE
8
Halfen
62
7
66
1
10
0.0
20
0.0
30
0.0
70
1
0
VERTEX
8
Halfen
62
7
10
 68
20
 160
30
0
0
VERTEX
8
Halfen
62
7
10
 68
20
 775
30
0
0
VERTEX
8
Halfen
62
7
10
 56
20
 775
30
0
0
VERTEX
8
Halfen
62
7
10
 56
20
 160
30
0
0
SEQEND
8
Halfen
0
POLYLINE
8
Halfen
62
7
66
1
10
0.0
20
0.0
30
0.0
70
1
0
VERTEX
8
Halfen
62
7
10
 152
20
-775
30
0
0
VERTEX
8
Halfen
62
7
10
 152
20
-160
30
0
0
VERTEX
8
Halfen
62
7
10
 140
20
-160
30
0
0
VERTEX
8
Halfen
62
7
10
 140
20
-775
30
0
0
SEQEND
8
Halfen
0
POLYLINE
8
Halfen
62
7
66
1
10
0.0
20
0.0
30
0.0
70
1
0
VERTEX
8
Halfen
62
7
10
 151.25
20
-160
30
0
0
VERTEX
8
Halfen
62
7
10
 151.25
20
-62
30
0
0
VERTEX
8
Halfen
62
7
10
 140.75
20
-62
30
0
0
VERTEX
8
Halfen
62
7
10
 140.75
20
-160
30
0
0
SEQEND
8
Halfen
0
POLYLINE
8
Halfen
62
7
66
1
10
0.0
20
0.0
30
0.0
70
1
0
VERTEX
8
Halfen
62
7
10
 152
20
-62
30
0
0
VERTEX
8
Halfen
62
7
10
 152
20
-60
30
0
0
VERTEX
8
Halfen
62
7
10
 140
20
-60
30
0
0
VERTEX
8
Halfen
62
7
10
 140
20
-62
30
0
0
SEQEND
8
Halfen
0
POLYLINE
8
Halfen
62
7
66
1
10
0.0
20
0.0
30
0.0
70
1
0
VERTEX
8
Halfen
62
7
10
 151.25
20
-60
30
0
0
VERTEX
8
Halfen
62
7
10
 151.25
20
 60
30
0
0
VERTEX
8
Halfen
62
7
10
 140.75
20
 60
30
0
0
VERTEX
8
Halfen
62
7
10
 140.75
20
-60
30
0
0
SEQEND
8
Halfen
0
POLYLINE
8
Halfen
62
7
66
1
10
0.0
20
0.0
30
0.0
70
1
0
VERTEX
8
Halfen
62
7
10
 152
20
 60
30
0
0
VERTEX
8
Halfen
62
7
10
 152
20
 62
30
0
0
VERTEX
8
Halfen
62
7
10
 140
20
 62
30
0
0
VERTEX
8
Halfen
62
7
10
 140
20
 60
30
0
0
SEQEND
8
Halfen
0
POLYLINE
8
Halfen
62
7
66
1
10
0.0
20
0.0
30
0.0
70
1
0
VERTEX
8
Halfen
62
7
10
 151.25
20
 62
30
0
0
VERTEX
8
Halfen
62
7
10
 151.25
20
 160
30
0
0
VERTEX
8
Halfen
62
7
10
 140.75
20
 160
30
0
0
VERTEX
8
Halfen
62
7
10
 140.75
20
 62
30
0
0
SEQEND
8
Halfen
0
POLYLINE
8
Halfen
62
7
66
1
10
0.0
20
0.0
30
0.0
70
1
0
VERTEX
8
Halfen
62
7
10
 152
20
 160
30
0
0
VERTEX
8
Halfen
62
7
10
 152
20
 775
30
0
0
VERTEX
8
Halfen
62
7
10
 140
20
 775
30
0
0
VERTEX
8
Halfen
62
7
10
 140
20
 160
30
0
0
SEQEND
8
Halfen
0
POLYLINE
8
Halfen
62
7
66
1
10
0.0
20
0.0
30
0.0
70
1
0
VERTEX
8
Halfen
62
7
10
 98
20
-455.516
30
0
0
VERTEX
8
Halfen
62
7
10
 98
20
 455.381
30
0
0
VERTEX
8
Halfen
62
7
10
 92
20
 455.381
30
0
0
VERTEX
8
Halfen
62
7
10
 92
20
-455.516
30
0
0
SEQEND
8
Halfen
0
POLYLINE
8
Halfen
62
7
66
1
10
0.0
20
0.0
30
0.0
70
1
0
VERTEX
8
Halfen
62
7
10
 104
20
-455.382
30
0
0
VERTEX
8
Halfen
62
7
10
 104
20
 455.516
30
0
0
VERTEX
8
Halfen
62
7
10
 98
20
 455.516
30
0
0
VERTEX
8
Halfen
62
7
10
 98
20
-455.382
30
0
0
SEQEND
8
Halfen
0
POLYLINE
8
Halfen
62
7
66
1
10
0.0
20
0.0
30
0.0
70
1
0
VERTEX
8
Halfen
62
7
10
 650
20
-60
30
0
0
VERTEX
8
Halfen
62
7
10
 650
20
 60
30
0
0
VERTEX
8
Halfen
62
7
10
 636.5
20
 73.5
30
0
0
VERTEX
8
Halfen
62
7
10
 636.5
20
 60
30
0
0
VERTEX
8
Halfen
62
7
10
 520
20
 60
30
0
0
VERTEX
8
Halfen
62
7
10
 520
20
-60
30
0
0
VERTEX
8
Halfen
62
7
10
 636.5
20
-60
30
0
0
VERTEX
8
Halfen
62
7
10
 636.5
20
-73.5
30
0
0
SEQEND
8
Halfen
0
POLYLINE
8
Halfen
62
7
66
1
10
0.0
20
0.0
30
0.0
70
1
0
VERTEX
8
Halfen
62
7
10
 520
20
-60
30
0
0
VERTEX
8
Halfen
62
7
10
 520
20
 60
30
0
0
VERTEX
8
Halfen
62
7
10
 463.5
20
 60
30
0
0
VERTEX
8
Halfen
62
7
10
 463.5
20
 73.5
30
0
0
VERTEX
8
Halfen
62
7
10
 450
20
 60
30
0
0
VERTEX
8
Halfen
62
7
10
 450
20
-60
30
0
0
VERTEX
8
Halfen
62
7
10
 463.5
20
-73.5
30
0
0
VERTEX
8
Halfen
62
7
10
 463.5
20
-60
30
0
0
SEQEND
8
Halfen
0
POLYLINE
8
Halfen
62
7
66
1
10
0.0
20
0.0
30
0.0
70
1
0
VERTEX
8
Halfen
62
7
10
 647.5
20
-58.75
30
0
0
VERTEX
8
Halfen
62
7
10
 647.5
20
 58.75
30
0
0
VERTEX
8
Halfen
62
7
10
 639
20
 67.25
30
0
0
VERTEX
8
Halfen
62
7
10
 639
20
 58
30
0
0
VERTEX
8
Halfen
62
7
10
 522
20
 58
30
0
0
VERTEX
8
Halfen
62
7
10
 522
20
-58
30
0
0
VERTEX
8
Halfen
62
7
10
 639
20
-58
30
0
0
VERTEX
8
Halfen
62
7
10
 639
20
-67.25
30
0
0
SEQEND
8
Halfen
0
POLYLINE
8
Halfen
62
7
66
1
10
0.0
20
0.0
30
0.0
70
1
0
VERTEX
8
Halfen
62
7
10
 518
20
-58
30
0
0
VERTEX
8
Halfen
62
7
10
 518
20
 58
30
0
0
VERTEX
8
Halfen
62
7
10
 461
20
 58
30
0
0
VERTEX
8
Halfen
62
7
10
 461
20
 67.25
30
0
0
VERTEX
8
Halfen
62
7
10
 452.5
20
 58.75
30
0
0
VERTEX
8
Halfen
62
7
10
 452.5
20
-58.75
30
0
0
VERTEX
8
Halfen
62
7
10
 461
20
-67.25
30
0
0
VERTEX
8
Halfen
62
7
10
 461
20
-58
30
0
0
SEQEND
8
Halfen
0
POLYLINE
8
Halfen
62
7
66
1
10
0.0
20
0.0
30
0.0
70
1
0
VERTEX
8
Halfen
62
7
10
 512
20
-775
30
0
0
VERTEX
8
Halfen
62
7
10
 512
20
-160
30
0
0
VERTEX
8
Halfen
62
7
10
 500
20
-160
30
0
0
VERTEX
8
Halfen
62
7
10
 500
20
-775
30
0
0
SEQEND
8
Halfen
0
POLYLINE
8
Halfen
62
7
66
1
10
0.0
20
0.0
30
0.0
70
1
0
VERTEX
8
Halfen
62
7
10
 511.25
20
-160
30
0
0
VERTEX
8
Halfen
62
7
10
 511.25
20
-62
30
0
0
VERTEX
8
Halfen
62
7
10
 500.75
20
-62
30
0
0
VERTEX
8
Halfen
62
7
10
 500.75
20
-160
30
0
0
SEQEND
8
Halfen
0
POLYLINE
8
Halfen
62
7
66
1
10
0.0
20
0.0
30
0.0
70
1
0
VERTEX
8
Halfen
62
7
10
 512
20
-62
30
0
0
VERTEX
8
Halfen
62
7
10
 512
20
-60
30
0
0
VERTEX
8
Halfen
62
7
10
 500
20
-60
30
0
0
VERTEX
8
Halfen
62
7
10
 500
20
-62
30
0
0
SEQEND
8
Halfen
0
POLYLINE
8
Halfen
62
7
66
1
10
0.0
20
0.0
30
0.0
70
1
0
VERTEX
8
Halfen
62
7
10
 511.25
20
-60
30
0
0
VERTEX
8
Halfen
62
7
10
 511.25
20
 60
30
0
0
VERTEX
8
Halfen
62
7
10
 500.75
20
 60
30
0
0
VERTEX
8
Halfen
62
7
10
 500.75
20
-60
30
0
0
SEQEND
8
Halfen
0
POLYLINE
8
Halfen
62
7
66
1
10
0.0
20
0.0
30
0.0
70
1
0
VERTEX
8
Halfen
62
7
10
 512
20
 60
30
0
0
VERTEX
8
Halfen
62
7
10
 512
20
 62
30
0
0
VERTEX
8
Halfen
62
7
10
 500
20
 62
30
0
0
VERTEX
8
Halfen
62
7
10
 500
20
 60
30
0
0
SEQEND
8
Halfen
0
POLYLINE
8
Halfen
62
7
66
1
10
0.0
20
0.0
30
0.0
70
1
0
VERTEX
8
Halfen
62
7
10
 511.25
20
 62
30
0
0
VERTEX
8
Halfen
62
7
10
 511.25
20
 160
30
0
0
VERTEX
8
Halfen
62
7
10
 500.75
20
 160
30
0
0
VERTEX
8
Halfen
62
7
10
 500.75
20
 62
30
0
0
SEQEND
8
Halfen
0
POLYLINE
8
Halfen
62
7
66
1
10
0.0
20
0.0
30
0.0
70
1
0
VERTEX
8
Halfen
62
7
10
 512
20
 160
30
0
0
VERTEX
8
Halfen
62
7
10
 512
20
 775
30
0
0
VERTEX
8
Halfen
62
7
10
 500
20
 775
30
0
0
VERTEX
8
Halfen
62
7
10
 500
20
 160
30
0
0
SEQEND
8
Halfen
0
POLYLINE
8
Halfen
62
7
66
1
10
0.0
20
0.0
30
0.0
70
1
0
VERTEX
8
Halfen
62
7
10
 620
20
-775
30
0
0
VERTEX
8
Halfen
62
7
10
 620
20
-160
30
0
0
VERTEX
8
Halfen
62
7
10
 608
20
-160
30
0
0
VERTEX
8
Halfen
62
7
10
 608
20
-775
30
0
0
SEQEND
8
Halfen
0
POLYLINE
8
Halfen
62
7
66
1
10
0.0
20
0.0
30
0.0
70
1
0
VERTEX
8
Halfen
62
7
10
 619.25
20
-160
30
0
0
VERTEX
8
Halfen
62
7
10
 619.25
20
-62
30
0
0
VERTEX
8
Halfen
62
7
10
 608.75
20
-62
30
0
0
VERTEX
8
Halfen
62
7
10
 608.75
20
-160
30
0
0
SEQEND
8
Halfen
0
POLYLINE
8
Halfen
62
7
66
1
10
0.0
20
0.0
30
0.0
70
1
0
VERTEX
8
Halfen
62
7
10
 620
20
-62
30
0
0
VERTEX
8
Halfen
62
7
10
 620
20
-60
30
0
0
VERTEX
8
Halfen
62
7
10
 608
20
-60
30
0
0
VERTEX
8
Halfen
62
7
10
 608
20
-62
30
0
0
SEQEND
8
Halfen
0
POLYLINE
8
Halfen
62
7
66
1
10
0.0
20
0.0
30
0.0
70
1
0
VERTEX
8
Halfen
62
7
10
 619.25
20
-60
30
0
0
VERTEX
8
Halfen
62
7
10
 619.25
20
 60
30
0
0
VERTEX
8
Halfen
62
7
10
 608.75
20
 60
30
0
0
VERTEX
8
Halfen
62
7
10
 608.75
20
-60
30
0
0
SEQEND
8
Halfen
0
POLYLINE
8
Halfen
62
7
66
1
10
0.0
20
0.0
30
0.0
70
1
0
VERTEX
8
Halfen
62
7
10
 620
20
 60
30
0
0
VERTEX
8
Halfen
62
7
10
 620
20
 62
30
0
0
VERTEX
8
Halfen
62
7
10
 608
20
 62
30
0
0
VERTEX
8
Halfen
62
7
10
 608
20
 60
30
0
0
SEQEND
8
Halfen
0
POLYLINE
8
Halfen
62
7
66
1
10
0.0
20
0.0
30
0.0
70
1
0
VERTEX
8
Halfen
62
7
10
 619.25
20
 62
30
0
0
VERTEX
8
Halfen
62
7
10
 619.25
20
 160
30
0
0
VERTEX
8
Halfen
62
7
10
 608.75
20
 160
30
0
0
VERTEX
8
Halfen
62
7
10
 608.75
20
 62
30
0
0
SEQEND
8
Halfen
0
POLYLINE
8
Halfen
62
7
66
1
10
0.0
20
0.0
30
0.0
70
1
0
VERTEX
8
Halfen
62
7
10
 620
20
 160
30
0
0
VERTEX
8
Halfen
62
7
10
 620
20
 775
30
0
0
VERTEX
8
Halfen
62
7
10
 608
20
 775
30
0
0
VERTEX
8
Halfen
62
7
10
 608
20
 160
30
0
0
SEQEND
8
Halfen
0
POLYLINE
8
Halfen
62
7
66
1
10
0.0
20
0.0
30
0.0
70
1
0
VERTEX
8
Halfen
62
7
10
 620
20
-455.516
30
0
0
VERTEX
8
Halfen
62
7
10
 620
20
-81.305
30
0
0
VERTEX
8
Halfen
62
7
10
 619.766
20
-77.965
30
0
0
VERTEX
8
Halfen
62
7
10
 619.07
20
-74.69
30
0
0
VERTEX
8
Halfen
62
7
10
 617.925
20
-71.543
30
0
0
VERTEX
8
Halfen
62
7
10
 616.353
20
-68.587
30
0
0
VERTEX
8
Halfen
62
7
10
 528.735
20
 71.631
30
0
0
VERTEX
8
Halfen
62
7
10
 527.556
20
 73.849
30
0
0
VERTEX
8
Halfen
62
7
10
 526.697
20
 76.208
30
0
0
VERTEX
8
Halfen
62
7
10
 526.175
20
 78.665
30
0
0
VERTEX
8
Halfen
62
7
10
 526
20
 81.17
30
0
0
VERTEX
8
Halfen
62
7
10
 526
20
 455.381
30
0
0
VERTEX
8
Halfen
62
7
10
 520
20
 455.381
30
0
0
VERTEX
8
Halfen
62
7
10
 520
20
 81.17
30
0
0
VERTEX
8
Halfen
62
7
10
 520.234
20
 77.83
30
0
0
VERTEX
8
Halfen
62
7
10
 520.93
20
 74.555
30
0
0
VERTEX
8
Halfen
62
7
10
 522.075
20
 71.408
30
0
0
VERTEX
8
Halfen
62
7
10
 523.647
20
 68.452
30
0
0
VERTEX
8
Halfen
62
7
10
 611.265
20
-71.766
30
0
0
VERTEX
8
Halfen
62
7
10
 612.444
20
-73.984
30
0
0
VERTEX
8
Halfen
62
7
10
 613.303
20
-76.343
30
0
0
VERTEX
8
Halfen
62
7
10
 613.825
20
-78.8
30
0
0
VERTEX
8
Halfen
62
7
10
 614
20
-81.305
30
0
0
VERTEX
8
Halfen
62
7
10
 614
20
-455.516
30
0
0
SEQEND
8
Halfen
0
POLYLINE
8
Halfen
62
7
66
1
10
0.0
20
0.0
30
0.0
70
1
0
VERTEX
8
Halfen
62
7
10
 520
20
-455.382
30
0
0
VERTEX
8
Halfen
62
7
10
 520
20
-81.17
30
0
0
VERTEX
8
Halfen
62
7
10
 520.234
20
-77.83
30
0
0
VERTEX
8
Halfen
62
7
10
 520.93
20
-74.555
30
0
0
VERTEX
8
Halfen
62
7
10
 522.075
20
-71.408
30
0
0
VERTEX
8
Halfen
62
7
10
 523.647
20
-68.452
30
0
0
VERTEX
8
Halfen
62
7
10
 611.265
20
 71.766
30
0
0
VERTEX
8
Halfen
62
7
10
 612.444
20
 73.984
30
0
0
VERTEX
8
Halfen
62
7
10
 613.303
20
 76.343
30
0
0
VERTEX
8
Halfen
62
7
10
 613.825
20
 78.8
30
0
0
VERTEX
8
Halfen
62
7
10
 614
20
 81.305
30
0
0
VERTEX
8
Halfen
62
7
10
 614
20
 455.516
30
0
0
VERTEX
8
Halfen
62
7
10
 620
20
 455.516
30
0
0
VERTEX
8
Halfen
62
7
10
 620
20
 81.305
30
0
0
VERTEX
8
Halfen
62
7
10
 619.766
20
 77.965
30
0
0
VERTEX
8
Halfen
62
7
10
 619.07
20
 74.69
30
0
0
VERTEX
8
Halfen
62
7
10
 617.925
20
 71.543
30
0
0
VERTEX
8
Halfen
62
7
10
 616.353
20
 68.587
30
0
0
VERTEX
8
Halfen
62
7
10
 528.735
20
-71.631
30
0
0
VERTEX
8
Halfen
62
7
10
 527.556
20
-73.849
30
0
0
VERTEX
8
Halfen
62
7
10
 526.697
20
-76.208
30
0
0
VERTEX
8
Halfen
62
7
10
 526.175
20
-78.665
30
0
0
VERTEX
8
Halfen
62
7
10
 526
20
-81.17
30
0
0
VERTEX
8
Halfen
62
7
10
 526
20
-455.382
30
0
0
SEQEND
8
Halfen
0
ENDSEC
0
EOF
