0
SECTION
2
HEADER
9
$EXTMIN
10
 0
20
 100
30
0.0
9
$EXTMAX
10
 0
20
 100
30
0.0
9
$LIMMIN
10
 100
20
 0
9
$LIMMAX
10
 0
20
 100
9
$PSLTSCALE
70
1
0
ENDSEC
0
SECTION
2
TABLES
0
TABLE
2
LAYER
70
2
0
LAYER
2
0
70
0
62
7
6
CONTINUOUS
0
LAYER
2
Halfen
70
0
62
7
6
CONTINUOUS
0
ENDTAB
0
ENDSEC
0
SECTION
2
ENTITIES
0
POLYLINE
8
Halfen
62
7
66
1
10
0.0
20
0.0
30
0.0
70
1
0
VERTEX
8
Halfen
62
7
10
 0
20
-73.5
30
0
0
VERTEX
8
Halfen
62
7
10
 500
20
-73.5
30
0
0
VERTEX
8
Halfen
62
7
10
 500
20
 73.5
30
0
0
VERTEX
8
Halfen
62
7
10
 0
20
 73.5
30
0
0
SEQEND
8
Halfen
0
POLYLINE
8
Halfen
62
7
66
1
10
0.0
20
0.0
30
0.0
70
1
0
VERTEX
8
Halfen
62
7
10
 0
20
-60
30
0
0
VERTEX
8
Halfen
62
7
10
 500
20
-60
30
0
0
VERTEX
8
Halfen
62
7
10
 500
20
 60
30
0
0
VERTEX
8
Halfen
62
7
10
 0
20
 60
30
0
0
SEQEND
8
Halfen
0
POLYLINE
8
Halfen
62
7
66
1
10
0.0
20
0.0
30
0.0
70
1
0
VERTEX
8
Halfen
62
7
10
 20
20
-32.5
30
0
0
VERTEX
8
Halfen
62
7
10
 37
20
-1.5
30
0
0
VERTEX
8
Halfen
62
7
10
 28
20
-1.5
30
0
0
VERTEX
8
Halfen
62
7
10
 28
20
 32.5
30
0
0
VERTEX
8
Halfen
62
7
10
 12
20
 32.5
30
0
0
VERTEX
8
Halfen
62
7
10
 12
20
-1.5
30
0
0
VERTEX
8
Halfen
62
7
10
 3
20
-1.5
30
0
0
SEQEND
8
Halfen
0
POLYLINE
8
Halfen
62
7
66
1
10
0.0
20
0.0
30
0.0
70
1
0
VERTEX
8
Halfen
62
7
10
 480
20
-32.5
30
0
0
VERTEX
8
Halfen
62
7
10
 497
20
-1.5
30
0
0
VERTEX
8
Halfen
62
7
10
 488
20
-1.5
30
0
0
VERTEX
8
Halfen
62
7
10
 488
20
 32.5
30
0
0
VERTEX
8
Halfen
62
7
10
 472
20
 32.5
30
0
0
VERTEX
8
Halfen
62
7
10
 472
20
-1.5
30
0
0
VERTEX
8
Halfen
62
7
10
 463
20
-1.5
30
0
0
SEQEND
8
Halfen
0
POLYLINE
8
Halfen
62
7
66
1
10
0.0
20
0.0
30
0.0
70
1
0
VERTEX
8
Halfen
62
7
10
 73
20
-454.728
30
0
0
VERTEX
8
Halfen
62
7
10
 73
20
 216.629
30
0
0
VERTEX
8
Halfen
62
7
10
 67
20
 216.629
30
0
0
VERTEX
8
Halfen
62
7
10
 67
20
-454.728
30
0
0
SEQEND
8
Halfen
0
POLYLINE
8
Halfen
62
7
66
1
10
0.0
20
0.0
30
0.0
70
1
0
VERTEX
8
Halfen
62
7
10
 193
20
-454.728
30
0
0
VERTEX
8
Halfen
62
7
10
 193
20
 216.629
30
0
0
VERTEX
8
Halfen
62
7
10
 187
20
 216.629
30
0
0
VERTEX
8
Halfen
62
7
10
 187
20
-454.728
30
0
0
SEQEND
8
Halfen
0
POLYLINE
8
Halfen
62
7
66
1
10
0.0
20
0.0
30
0.0
70
1
0
VERTEX
8
Halfen
62
7
10
 323
20
-454.728
30
0
0
VERTEX
8
Halfen
62
7
10
 323
20
 216.629
30
0
0
VERTEX
8
Halfen
62
7
10
 317
20
 216.629
30
0
0
VERTEX
8
Halfen
62
7
10
 317
20
-454.728
30
0
0
SEQEND
8
Halfen
0
POLYLINE
8
Halfen
62
7
66
1
10
0.0
20
0.0
30
0.0
70
1
0
VERTEX
8
Halfen
62
7
10
 443
20
-454.728
30
0
0
VERTEX
8
Halfen
62
7
10
 443
20
 216.629
30
0
0
VERTEX
8
Halfen
62
7
10
 437
20
 216.629
30
0
0
VERTEX
8
Halfen
62
7
10
 437
20
-454.728
30
0
0
SEQEND
8
Halfen
0
POLYLINE
8
Halfen
62
7
66
1
10
0.0
20
0.0
30
0.0
70
1
0
VERTEX
8
Halfen
62
7
10
 433
20
-454.728
30
0
0
VERTEX
8
Halfen
62
7
10
 433
20
 216.629
30
0
0
VERTEX
8
Halfen
62
7
10
 427
20
 216.629
30
0
0
VERTEX
8
Halfen
62
7
10
 427
20
-454.728
30
0
0
SEQEND
8
Halfen
0
POLYLINE
8
Halfen
62
7
66
1
10
0.0
20
0.0
30
0.0
70
1
0
VERTEX
8
Halfen
62
7
10
 313
20
-454.728
30
0
0
VERTEX
8
Halfen
62
7
10
 313
20
 216.629
30
0
0
VERTEX
8
Halfen
62
7
10
 307
20
 216.629
30
0
0
VERTEX
8
Halfen
62
7
10
 307
20
-454.728
30
0
0
SEQEND
8
Halfen
0
POLYLINE
8
Halfen
62
7
66
1
10
0.0
20
0.0
30
0.0
70
1
0
VERTEX
8
Halfen
62
7
10
 183
20
-454.728
30
0
0
VERTEX
8
Halfen
62
7
10
 183
20
 216.629
30
0
0
VERTEX
8
Halfen
62
7
10
 177
20
 216.629
30
0
0
VERTEX
8
Halfen
62
7
10
 177
20
-454.728
30
0
0
SEQEND
8
Halfen
0
POLYLINE
8
Halfen
62
7
66
1
10
0.0
20
0.0
30
0.0
70
1
0
VERTEX
8
Halfen
62
7
10
 63
20
-454.728
30
0
0
VERTEX
8
Halfen
62
7
10
 63
20
 216.629
30
0
0
VERTEX
8
Halfen
62
7
10
 57
20
 216.629
30
0
0
VERTEX
8
Halfen
62
7
10
 57
20
-454.728
30
0
0
SEQEND
8
Halfen
0
POLYLINE
8
Halfen
62
7
66
1
10
0.0
20
0.0
30
0.0
70
1
0
VERTEX
8
Halfen
62
7
10
 900
20
-60
30
0
0
VERTEX
8
Halfen
62
7
10
 900
20
 60
30
0
0
VERTEX
8
Halfen
62
7
10
 886.5
20
 73.5
30
0
0
VERTEX
8
Halfen
62
7
10
 886.5
20
 60
30
0
0
VERTEX
8
Halfen
62
7
10
 750
20
 60
30
0
0
VERTEX
8
Halfen
62
7
10
 750
20
-60
30
0
0
VERTEX
8
Halfen
62
7
10
 886.5
20
-60
30
0
0
VERTEX
8
Halfen
62
7
10
 886.5
20
-73.5
30
0
0
SEQEND
8
Halfen
0
POLYLINE
8
Halfen
62
7
66
1
10
0.0
20
0.0
30
0.0
70
1
0
VERTEX
8
Halfen
62
7
10
 750
20
-60
30
0
0
VERTEX
8
Halfen
62
7
10
 750
20
 60
30
0
0
VERTEX
8
Halfen
62
7
10
 713.5
20
 60
30
0
0
VERTEX
8
Halfen
62
7
10
 713.5
20
 73.5
30
0
0
VERTEX
8
Halfen
62
7
10
 700
20
 60
30
0
0
VERTEX
8
Halfen
62
7
10
 700
20
-60
30
0
0
VERTEX
8
Halfen
62
7
10
 713.5
20
-73.5
30
0
0
VERTEX
8
Halfen
62
7
10
 713.5
20
-60
30
0
0
SEQEND
8
Halfen
0
POLYLINE
8
Halfen
62
7
66
1
10
0.0
20
0.0
30
0.0
70
1
0
VERTEX
8
Halfen
62
7
10
 897.5
20
-58.75
30
0
0
VERTEX
8
Halfen
62
7
10
 897.5
20
 58.75
30
0
0
VERTEX
8
Halfen
62
7
10
 889
20
 67.25
30
0
0
VERTEX
8
Halfen
62
7
10
 889
20
 58
30
0
0
VERTEX
8
Halfen
62
7
10
 752
20
 58
30
0
0
VERTEX
8
Halfen
62
7
10
 752
20
-58
30
0
0
VERTEX
8
Halfen
62
7
10
 889
20
-58
30
0
0
VERTEX
8
Halfen
62
7
10
 889
20
-67.25
30
0
0
SEQEND
8
Halfen
0
POLYLINE
8
Halfen
62
7
66
1
10
0.0
20
0.0
30
0.0
70
1
0
VERTEX
8
Halfen
62
7
10
 748
20
-58
30
0
0
VERTEX
8
Halfen
62
7
10
 748
20
 58
30
0
0
VERTEX
8
Halfen
62
7
10
 711
20
 58
30
0
0
VERTEX
8
Halfen
62
7
10
 711
20
 67.25
30
0
0
VERTEX
8
Halfen
62
7
10
 702.5
20
 58.75
30
0
0
VERTEX
8
Halfen
62
7
10
 702.5
20
-58.75
30
0
0
VERTEX
8
Halfen
62
7
10
 711
20
-67.25
30
0
0
VERTEX
8
Halfen
62
7
10
 711
20
-58
30
0
0
SEQEND
8
Halfen
0
POLYLINE
8
Halfen
62
7
66
1
10
0.0
20
0.0
30
0.0
70
1
0
VERTEX
8
Halfen
62
7
10
 870
20
-454.728
30
0
0
VERTEX
8
Halfen
62
7
10
 870
20
-80.478
30
0
0
VERTEX
8
Halfen
62
7
10
 869.679
20
-76.568
30
0
0
VERTEX
8
Halfen
62
7
10
 868.726
20
-72.763
30
0
0
VERTEX
8
Halfen
62
7
10
 867.166
20
-69.164
30
0
0
VERTEX
8
Halfen
62
7
10
 865.04
20
-65.868
30
0
0
VERTEX
8
Halfen
62
7
10
 749.72
20
 84.421
30
0
0
VERTEX
8
Halfen
62
7
10
 748.125
20
 86.894
30
0
0
VERTEX
8
Halfen
62
7
10
 746.955
20
 89.593
30
0
0
VERTEX
8
Halfen
62
7
10
 746.24
20
 92.447
30
0
0
VERTEX
8
Halfen
62
7
10
 746
20
 95.379
30
0
0
VERTEX
8
Halfen
62
7
10
 746
20
 192.629
30
0
0
VERTEX
8
Halfen
62
7
10
 746.222
20
 195.445
30
0
0
VERTEX
8
Halfen
62
7
10
 746.881
20
 198.191
30
0
0
VERTEX
8
Halfen
62
7
10
 747.962
20
 200.801
30
0
0
VERTEX
8
Halfen
62
7
10
 749.438
20
 203.209
30
0
0
VERTEX
8
Halfen
62
7
10
 751.272
20
 205.357
30
0
0
VERTEX
8
Halfen
62
7
10
 753.42
20
 207.191
30
0
0
VERTEX
8
Halfen
62
7
10
 755.828
20
 208.667
30
0
0
VERTEX
8
Halfen
62
7
10
 758.438
20
 209.748
30
0
0
VERTEX
8
Halfen
62
7
10
 761.184
20
 210.407
30
0
0
VERTEX
8
Halfen
62
7
10
 764
20
 210.629
30
0
0
VERTEX
8
Halfen
62
7
10
 835
20
 210.629
30
0
0
VERTEX
8
Halfen
62
7
10
 835
20
 216.629
30
0
0
VERTEX
8
Halfen
62
7
10
 764
20
 216.629
30
0
0
VERTEX
8
Halfen
62
7
10
 760.246
20
 216.333
30
0
0
VERTEX
8
Halfen
62
7
10
 756.584
20
 215.454
30
0
0
VERTEX
8
Halfen
62
7
10
 753.104
20
 214.013
30
0
0
VERTEX
8
Halfen
62
7
10
 749.893
20
 212.045
30
0
0
VERTEX
8
Halfen
62
7
10
 747.029
20
 209.599
30
0
0
VERTEX
8
Halfen
62
7
10
 744.584
20
 206.736
30
0
0
VERTEX
8
Halfen
62
7
10
 742.616
20
 203.525
30
0
0
VERTEX
8
Halfen
62
7
10
 741.175
20
 200.045
30
0
0
VERTEX
8
Halfen
62
7
10
 740.295
20
 196.383
30
0
0
VERTEX
8
Halfen
62
7
10
 740
20
 192.629
30
0
0
VERTEX
8
Halfen
62
7
10
 740
20
 95.379
30
0
0
VERTEX
8
Halfen
62
7
10
 740.321
20
 91.47
30
0
0
VERTEX
8
Halfen
62
7
10
 741.274
20
 87.665
30
0
0
VERTEX
8
Halfen
62
7
10
 742.834
20
 84.066
30
0
0
VERTEX
8
Halfen
62
7
10
 744.96
20
 80.769
30
0
0
VERTEX
8
Halfen
62
7
10
 860.28
20
-69.52
30
0
0
VERTEX
8
Halfen
62
7
10
 861.875
20
-71.993
30
0
0
VERTEX
8
Halfen
62
7
10
 863.045
20
-74.692
30
0
0
VERTEX
8
Halfen
62
7
10
 863.76
20
-77.546
30
0
0
VERTEX
8
Halfen
62
7
10
 864
20
-80.478
30
0
0
VERTEX
8
Halfen
62
7
10
 864
20
-454.728
30
0
0
SEQEND
8
Halfen
0
POLYLINE
8
Halfen
62
7
66
1
10
0.0
20
0.0
30
0.0
70
1
0
VERTEX
8
Halfen
62
7
10
 740
20
-454.728
30
0
0
VERTEX
8
Halfen
62
7
10
 740
20
-80.478
30
0
0
VERTEX
8
Halfen
62
7
10
 740.321
20
-76.568
30
0
0
VERTEX
8
Halfen
62
7
10
 741.274
20
-72.763
30
0
0
VERTEX
8
Halfen
62
7
10
 742.834
20
-69.164
30
0
0
VERTEX
8
Halfen
62
7
10
 744.96
20
-65.868
30
0
0
VERTEX
8
Halfen
62
7
10
 860.28
20
 84.421
30
0
0
VERTEX
8
Halfen
62
7
10
 861.875
20
 86.894
30
0
0
VERTEX
8
Halfen
62
7
10
 863.045
20
 89.593
30
0
0
VERTEX
8
Halfen
62
7
10
 863.76
20
 92.447
30
0
0
VERTEX
8
Halfen
62
7
10
 864
20
 95.379
30
0
0
VERTEX
8
Halfen
62
7
10
 864
20
 192.629
30
0
0
VERTEX
8
Halfen
62
7
10
 863.778
20
 195.445
30
0
0
VERTEX
8
Halfen
62
7
10
 863.119
20
 198.191
30
0
0
VERTEX
8
Halfen
62
7
10
 862.038
20
 200.801
30
0
0
VERTEX
8
Halfen
62
7
10
 860.562
20
 203.209
30
0
0
VERTEX
8
Halfen
62
7
10
 858.728
20
 205.357
30
0
0
VERTEX
8
Halfen
62
7
10
 856.58
20
 207.191
30
0
0
VERTEX
8
Halfen
62
7
10
 854.172
20
 208.667
30
0
0
VERTEX
8
Halfen
62
7
10
 851.562
20
 209.748
30
0
0
VERTEX
8
Halfen
62
7
10
 848.816
20
 210.407
30
0
0
VERTEX
8
Halfen
62
7
10
 846
20
 210.629
30
0
0
VERTEX
8
Halfen
62
7
10
 775
20
 210.629
30
0
0
VERTEX
8
Halfen
62
7
10
 775
20
 216.629
30
0
0
VERTEX
8
Halfen
62
7
10
 846
20
 216.629
30
0
0
VERTEX
8
Halfen
62
7
10
 849.754
20
 216.333
30
0
0
VERTEX
8
Halfen
62
7
10
 853.416
20
 215.454
30
0
0
VERTEX
8
Halfen
62
7
10
 856.896
20
 214.013
30
0
0
VERTEX
8
Halfen
62
7
10
 860.107
20
 212.045
30
0
0
VERTEX
8
Halfen
62
7
10
 862.971
20
 209.599
30
0
0
VERTEX
8
Halfen
62
7
10
 865.416
20
 206.736
30
0
0
VERTEX
8
Halfen
62
7
10
 867.384
20
 203.525
30
0
0
VERTEX
8
Halfen
62
7
10
 868.825
20
 200.045
30
0
0
VERTEX
8
Halfen
62
7
10
 869.705
20
 196.383
30
0
0
VERTEX
8
Halfen
62
7
10
 870
20
 192.629
30
0
0
VERTEX
8
Halfen
62
7
10
 870
20
 95.379
30
0
0
VERTEX
8
Halfen
62
7
10
 869.679
20
 91.47
30
0
0
VERTEX
8
Halfen
62
7
10
 868.726
20
 87.665
30
0
0
VERTEX
8
Halfen
62
7
10
 867.166
20
 84.066
30
0
0
VERTEX
8
Halfen
62
7
10
 865.04
20
 80.769
30
0
0
VERTEX
8
Halfen
62
7
10
 749.72
20
-69.52
30
0
0
VERTEX
8
Halfen
62
7
10
 748.125
20
-71.993
30
0
0
VERTEX
8
Halfen
62
7
10
 746.955
20
-74.692
30
0
0
VERTEX
8
Halfen
62
7
10
 746.24
20
-77.546
30
0
0
VERTEX
8
Halfen
62
7
10
 746
20
-80.478
30
0
0
VERTEX
8
Halfen
62
7
10
 746
20
-454.728
30
0
0
SEQEND
8
Halfen
0
ENDSEC
0
EOF
