0
SECTION
2
HEADER
9
$EXTMIN
10
 0
20
 100
30
0.0
9
$EXTMAX
10
 0
20
 100
30
0.0
9
$LIMMIN
10
 100
20
 0
9
$LIMMAX
10
 0
20
 100
9
$PSLTSCALE
70
1
0
ENDSEC
0
SECTION
2
TABLES
0
TABLE
2
LAYER
70
2
0
LAYER
2
0
70
0
62
7
6
CONTINUOUS
0
LAYER
2
Halfen
70
0
62
7
6
CONTINUOUS
0
ENDTAB
0
ENDSEC
0
SECTION
2
ENTITIES
0
POLYLINE
8
Halfen
62
7
66
1
10
0.0
20
0.0
30
0.0
70
1
0
VERTEX
8
Halfen
62
7
10
 0
20
-73.5
30
0
0
VERTEX
8
Halfen
62
7
10
 500
20
-73.5
30
0
0
VERTEX
8
Halfen
62
7
10
 500
20
 73.5
30
0
0
VERTEX
8
Halfen
62
7
10
 0
20
 73.5
30
0
0
SEQEND
8
Halfen
0
POLYLINE
8
Halfen
62
7
66
1
10
0.0
20
0.0
30
0.0
70
1
0
VERTEX
8
Halfen
62
7
10
 0
20
-60
30
0
0
VERTEX
8
Halfen
62
7
10
 500
20
-60
30
0
0
VERTEX
8
Halfen
62
7
10
 500
20
 60
30
0
0
VERTEX
8
Halfen
62
7
10
 0
20
 60
30
0
0
SEQEND
8
Halfen
0
POLYLINE
8
Halfen
62
7
66
1
10
0.0
20
0.0
30
0.0
70
1
0
VERTEX
8
Halfen
62
7
10
 20
20
-32.5
30
0
0
VERTEX
8
Halfen
62
7
10
 37
20
-1.5
30
0
0
VERTEX
8
Halfen
62
7
10
 28
20
-1.5
30
0
0
VERTEX
8
Halfen
62
7
10
 28
20
 32.5
30
0
0
VERTEX
8
Halfen
62
7
10
 12
20
 32.5
30
0
0
VERTEX
8
Halfen
62
7
10
 12
20
-1.5
30
0
0
VERTEX
8
Halfen
62
7
10
 3
20
-1.5
30
0
0
SEQEND
8
Halfen
0
POLYLINE
8
Halfen
62
7
66
1
10
0.0
20
0.0
30
0.0
70
1
0
VERTEX
8
Halfen
62
7
10
 480
20
-32.5
30
0
0
VERTEX
8
Halfen
62
7
10
 497
20
-1.5
30
0
0
VERTEX
8
Halfen
62
7
10
 488
20
-1.5
30
0
0
VERTEX
8
Halfen
62
7
10
 488
20
 32.5
30
0
0
VERTEX
8
Halfen
62
7
10
 472
20
 32.5
30
0
0
VERTEX
8
Halfen
62
7
10
 472
20
-1.5
30
0
0
VERTEX
8
Halfen
62
7
10
 463
20
-1.5
30
0
0
SEQEND
8
Halfen
0
POLYLINE
8
Halfen
62
7
66
1
10
0.0
20
0.0
30
0.0
70
1
0
VERTEX
8
Halfen
62
7
10
 90
20
-819.914
30
0
0
VERTEX
8
Halfen
62
7
10
 90
20
 823.254
30
0
0
VERTEX
8
Halfen
62
7
10
 78
20
 823.254
30
0
0
VERTEX
8
Halfen
62
7
10
 78
20
-819.914
30
0
0
SEQEND
8
Halfen
0
POLYLINE
8
Halfen
62
7
66
1
10
0.0
20
0.0
30
0.0
70
1
0
VERTEX
8
Halfen
62
7
10
 205
20
-819.914
30
0
0
VERTEX
8
Halfen
62
7
10
 205
20
 823.254
30
0
0
VERTEX
8
Halfen
62
7
10
 193
20
 823.254
30
0
0
VERTEX
8
Halfen
62
7
10
 193
20
-819.914
30
0
0
SEQEND
8
Halfen
0
POLYLINE
8
Halfen
62
7
66
1
10
0.0
20
0.0
30
0.0
70
1
0
VERTEX
8
Halfen
62
7
10
 319
20
-819.914
30
0
0
VERTEX
8
Halfen
62
7
10
 319
20
 823.254
30
0
0
VERTEX
8
Halfen
62
7
10
 307
20
 823.254
30
0
0
VERTEX
8
Halfen
62
7
10
 307
20
-819.914
30
0
0
SEQEND
8
Halfen
0
POLYLINE
8
Halfen
62
7
66
1
10
0.0
20
0.0
30
0.0
70
1
0
VERTEX
8
Halfen
62
7
10
 434
20
-819.914
30
0
0
VERTEX
8
Halfen
62
7
10
 434
20
 823.254
30
0
0
VERTEX
8
Halfen
62
7
10
 422
20
 823.254
30
0
0
VERTEX
8
Halfen
62
7
10
 422
20
-819.914
30
0
0
SEQEND
8
Halfen
0
POLYLINE
8
Halfen
62
7
66
1
10
0.0
20
0.0
30
0.0
70
1
0
VERTEX
8
Halfen
62
7
10
 900
20
-60
30
0
0
VERTEX
8
Halfen
62
7
10
 900
20
 60
30
0
0
VERTEX
8
Halfen
62
7
10
 886.5
20
 73.5
30
0
0
VERTEX
8
Halfen
62
7
10
 886.5
20
 60
30
0
0
VERTEX
8
Halfen
62
7
10
 750
20
 60
30
0
0
VERTEX
8
Halfen
62
7
10
 750
20
-60
30
0
0
VERTEX
8
Halfen
62
7
10
 886.5
20
-60
30
0
0
VERTEX
8
Halfen
62
7
10
 886.5
20
-73.5
30
0
0
SEQEND
8
Halfen
0
POLYLINE
8
Halfen
62
7
66
1
10
0.0
20
0.0
30
0.0
70
1
0
VERTEX
8
Halfen
62
7
10
 750
20
-60
30
0
0
VERTEX
8
Halfen
62
7
10
 750
20
 60
30
0
0
VERTEX
8
Halfen
62
7
10
 713.5
20
 60
30
0
0
VERTEX
8
Halfen
62
7
10
 713.5
20
 73.5
30
0
0
VERTEX
8
Halfen
62
7
10
 700
20
 60
30
0
0
VERTEX
8
Halfen
62
7
10
 700
20
-60
30
0
0
VERTEX
8
Halfen
62
7
10
 713.5
20
-73.5
30
0
0
VERTEX
8
Halfen
62
7
10
 713.5
20
-60
30
0
0
SEQEND
8
Halfen
0
POLYLINE
8
Halfen
62
7
66
1
10
0.0
20
0.0
30
0.0
70
1
0
VERTEX
8
Halfen
62
7
10
 897.5
20
-58.75
30
0
0
VERTEX
8
Halfen
62
7
10
 897.5
20
 58.75
30
0
0
VERTEX
8
Halfen
62
7
10
 889
20
 67.25
30
0
0
VERTEX
8
Halfen
62
7
10
 889
20
 58
30
0
0
VERTEX
8
Halfen
62
7
10
 752
20
 58
30
0
0
VERTEX
8
Halfen
62
7
10
 752
20
-58
30
0
0
VERTEX
8
Halfen
62
7
10
 889
20
-58
30
0
0
VERTEX
8
Halfen
62
7
10
 889
20
-67.25
30
0
0
SEQEND
8
Halfen
0
POLYLINE
8
Halfen
62
7
66
1
10
0.0
20
0.0
30
0.0
70
1
0
VERTEX
8
Halfen
62
7
10
 748
20
-58
30
0
0
VERTEX
8
Halfen
62
7
10
 748
20
 58
30
0
0
VERTEX
8
Halfen
62
7
10
 711
20
 58
30
0
0
VERTEX
8
Halfen
62
7
10
 711
20
 67.25
30
0
0
VERTEX
8
Halfen
62
7
10
 702.5
20
 58.75
30
0
0
VERTEX
8
Halfen
62
7
10
 702.5
20
-58.75
30
0
0
VERTEX
8
Halfen
62
7
10
 711
20
-67.25
30
0
0
VERTEX
8
Halfen
62
7
10
 711
20
-58
30
0
0
SEQEND
8
Halfen
0
POLYLINE
8
Halfen
62
7
66
1
10
0.0
20
0.0
30
0.0
70
1
0
VERTEX
8
Halfen
62
7
10
 870
20
-819.914
30
0
0
VERTEX
8
Halfen
62
7
10
 870
20
-98.785
30
0
0
VERTEX
8
Halfen
62
7
10
 869.271
20
-90.449
30
0
0
VERTEX
8
Halfen
62
7
10
 867.105
20
-82.368
30
0
0
VERTEX
8
Halfen
62
7
10
 863.569
20
-74.785
30
0
0
VERTEX
8
Halfen
62
7
10
 771.823
20
 84.124
30
0
0
VERTEX
8
Halfen
62
7
10
 769.171
20
 89.812
30
0
0
VERTEX
8
Halfen
62
7
10
 767.547
20
 95.873
30
0
0
VERTEX
8
Halfen
62
7
10
 767
20
 102.124
30
0
0
VERTEX
8
Halfen
62
7
10
 767
20
 162.254
30
0
0
VERTEX
8
Halfen
62
7
10
 767
20
 823.254
30
0
0
VERTEX
8
Halfen
62
7
10
 755
20
 823.254
30
0
0
VERTEX
8
Halfen
62
7
10
 755
20
 162.254
30
0
0
VERTEX
8
Halfen
62
7
10
 755
20
 102.124
30
0
0
VERTEX
8
Halfen
62
7
10
 755.729
20
 93.789
30
0
0
VERTEX
8
Halfen
62
7
10
 757.895
20
 85.707
30
0
0
VERTEX
8
Halfen
62
7
10
 761.431
20
 78.124
30
0
0
VERTEX
8
Halfen
62
7
10
 853.177
20
-80.785
30
0
0
VERTEX
8
Halfen
62
7
10
 855.829
20
-86.472
30
0
0
VERTEX
8
Halfen
62
7
10
 857.453
20
-92.533
30
0
0
VERTEX
8
Halfen
62
7
10
 858
20
-98.785
30
0
0
VERTEX
8
Halfen
62
7
10
 858
20
-819.914
30
0
0
SEQEND
8
Halfen
0
ENDSEC
0
EOF
