0
SECTION
2
HEADER
9
$EXTMIN
10
 0
20
 100
30
0.0
9
$EXTMAX
10
 0
20
 100
30
0.0
9
$LIMMIN
10
 100
20
 0
9
$LIMMAX
10
 0
20
 100
9
$PSLTSCALE
70
1
0
ENDSEC
0
SECTION
2
TABLES
0
TABLE
2
LAYER
70
2
0
LAYER
2
0
70
0
62
7
6
CONTINUOUS
0
LAYER
2
Halfen
70
0
62
7
6
CONTINUOUS
0
ENDTAB
0
ENDSEC
0
SECTION
2
ENTITIES
0
POLYLINE
8
Halfen
62
7
66
1
10
0.0
20
0.0
30
0.0
70
1
0
VERTEX
8
Halfen
62
7
10
 0
20
-73.5
30
0
0
VERTEX
8
Halfen
62
7
10
 1000
20
-73.5
30
0
0
VERTEX
8
Halfen
62
7
10
 1000
20
 73.5
30
0
0
VERTEX
8
Halfen
62
7
10
 0
20
 73.5
30
0
0
SEQEND
8
Halfen
0
POLYLINE
8
Halfen
62
7
66
1
10
0.0
20
0.0
30
0.0
70
1
0
VERTEX
8
Halfen
62
7
10
 0
20
-60
30
0
0
VERTEX
8
Halfen
62
7
10
 1000
20
-60
30
0
0
VERTEX
8
Halfen
62
7
10
 1000
20
 60
30
0
0
VERTEX
8
Halfen
62
7
10
 0
20
 60
30
0
0
SEQEND
8
Halfen
0
POLYLINE
8
Halfen
62
7
66
1
10
0.0
20
0.0
30
0.0
70
1
0
VERTEX
8
Halfen
62
7
10
 20
20
-32.5
30
0
0
VERTEX
8
Halfen
62
7
10
 37
20
-1.5
30
0
0
VERTEX
8
Halfen
62
7
10
 28
20
-1.5
30
0
0
VERTEX
8
Halfen
62
7
10
 28
20
 32.5
30
0
0
VERTEX
8
Halfen
62
7
10
 12
20
 32.5
30
0
0
VERTEX
8
Halfen
62
7
10
 12
20
-1.5
30
0
0
VERTEX
8
Halfen
62
7
10
 3
20
-1.5
30
0
0
SEQEND
8
Halfen
0
POLYLINE
8
Halfen
62
7
66
1
10
0.0
20
0.0
30
0.0
70
1
0
VERTEX
8
Halfen
62
7
10
 980
20
-32.5
30
0
0
VERTEX
8
Halfen
62
7
10
 997
20
-1.5
30
0
0
VERTEX
8
Halfen
62
7
10
 988
20
-1.5
30
0
0
VERTEX
8
Halfen
62
7
10
 988
20
 32.5
30
0
0
VERTEX
8
Halfen
62
7
10
 972
20
 32.5
30
0
0
VERTEX
8
Halfen
62
7
10
 972
20
-1.5
30
0
0
VERTEX
8
Halfen
62
7
10
 963
20
-1.5
30
0
0
SEQEND
8
Halfen
0
POLYLINE
8
Halfen
62
7
66
1
10
0.0
20
0.0
30
0.0
70
1
0
VERTEX
8
Halfen
62
7
10
 74
20
-576.569
30
0
0
VERTEX
8
Halfen
62
7
10
 74
20
 635.197
30
0
0
VERTEX
8
Halfen
62
7
10
 66
20
 635.197
30
0
0
VERTEX
8
Halfen
62
7
10
 66
20
-576.569
30
0
0
SEQEND
8
Halfen
0
POLYLINE
8
Halfen
62
7
66
1
10
0.0
20
0.0
30
0.0
70
1
0
VERTEX
8
Halfen
62
7
10
 134
20
-576.569
30
0
0
VERTEX
8
Halfen
62
7
10
 134
20
 635.197
30
0
0
VERTEX
8
Halfen
62
7
10
 126
20
 635.197
30
0
0
VERTEX
8
Halfen
62
7
10
 126
20
-576.569
30
0
0
SEQEND
8
Halfen
0
POLYLINE
8
Halfen
62
7
66
1
10
0.0
20
0.0
30
0.0
70
1
0
VERTEX
8
Halfen
62
7
10
 194
20
-576.569
30
0
0
VERTEX
8
Halfen
62
7
10
 194
20
 635.197
30
0
0
VERTEX
8
Halfen
62
7
10
 186
20
 635.197
30
0
0
VERTEX
8
Halfen
62
7
10
 186
20
-576.569
30
0
0
SEQEND
8
Halfen
0
POLYLINE
8
Halfen
62
7
66
1
10
0.0
20
0.0
30
0.0
70
1
0
VERTEX
8
Halfen
62
7
10
 324
20
-576.569
30
0
0
VERTEX
8
Halfen
62
7
10
 324
20
 635.197
30
0
0
VERTEX
8
Halfen
62
7
10
 316
20
 635.197
30
0
0
VERTEX
8
Halfen
62
7
10
 316
20
-576.569
30
0
0
SEQEND
8
Halfen
0
POLYLINE
8
Halfen
62
7
66
1
10
0.0
20
0.0
30
0.0
70
1
0
VERTEX
8
Halfen
62
7
10
 384
20
-576.569
30
0
0
VERTEX
8
Halfen
62
7
10
 384
20
 635.197
30
0
0
VERTEX
8
Halfen
62
7
10
 376
20
 635.197
30
0
0
VERTEX
8
Halfen
62
7
10
 376
20
-576.569
30
0
0
SEQEND
8
Halfen
0
POLYLINE
8
Halfen
62
7
66
1
10
0.0
20
0.0
30
0.0
70
1
0
VERTEX
8
Halfen
62
7
10
 444
20
-576.569
30
0
0
VERTEX
8
Halfen
62
7
10
 444
20
 635.197
30
0
0
VERTEX
8
Halfen
62
7
10
 436
20
 635.197
30
0
0
VERTEX
8
Halfen
62
7
10
 436
20
-576.569
30
0
0
SEQEND
8
Halfen
0
POLYLINE
8
Halfen
62
7
66
1
10
0.0
20
0.0
30
0.0
70
1
0
VERTEX
8
Halfen
62
7
10
 574
20
-576.569
30
0
0
VERTEX
8
Halfen
62
7
10
 574
20
 635.197
30
0
0
VERTEX
8
Halfen
62
7
10
 566
20
 635.197
30
0
0
VERTEX
8
Halfen
62
7
10
 566
20
-576.569
30
0
0
SEQEND
8
Halfen
0
POLYLINE
8
Halfen
62
7
66
1
10
0.0
20
0.0
30
0.0
70
1
0
VERTEX
8
Halfen
62
7
10
 634
20
-576.569
30
0
0
VERTEX
8
Halfen
62
7
10
 634
20
 635.197
30
0
0
VERTEX
8
Halfen
62
7
10
 626
20
 635.197
30
0
0
VERTEX
8
Halfen
62
7
10
 626
20
-576.569
30
0
0
SEQEND
8
Halfen
0
POLYLINE
8
Halfen
62
7
66
1
10
0.0
20
0.0
30
0.0
70
1
0
VERTEX
8
Halfen
62
7
10
 694
20
-576.569
30
0
0
VERTEX
8
Halfen
62
7
10
 694
20
 635.197
30
0
0
VERTEX
8
Halfen
62
7
10
 686
20
 635.197
30
0
0
VERTEX
8
Halfen
62
7
10
 686
20
-576.569
30
0
0
SEQEND
8
Halfen
0
POLYLINE
8
Halfen
62
7
66
1
10
0.0
20
0.0
30
0.0
70
1
0
VERTEX
8
Halfen
62
7
10
 824
20
-576.569
30
0
0
VERTEX
8
Halfen
62
7
10
 824
20
 635.197
30
0
0
VERTEX
8
Halfen
62
7
10
 816
20
 635.197
30
0
0
VERTEX
8
Halfen
62
7
10
 816
20
-576.569
30
0
0
SEQEND
8
Halfen
0
POLYLINE
8
Halfen
62
7
66
1
10
0.0
20
0.0
30
0.0
70
1
0
VERTEX
8
Halfen
62
7
10
 884
20
-576.569
30
0
0
VERTEX
8
Halfen
62
7
10
 884
20
 635.197
30
0
0
VERTEX
8
Halfen
62
7
10
 876
20
 635.197
30
0
0
VERTEX
8
Halfen
62
7
10
 876
20
-576.569
30
0
0
SEQEND
8
Halfen
0
POLYLINE
8
Halfen
62
7
66
1
10
0.0
20
0.0
30
0.0
70
1
0
VERTEX
8
Halfen
62
7
10
 944
20
-576.569
30
0
0
VERTEX
8
Halfen
62
7
10
 944
20
 635.197
30
0
0
VERTEX
8
Halfen
62
7
10
 936
20
 635.197
30
0
0
VERTEX
8
Halfen
62
7
10
 936
20
-576.569
30
0
0
SEQEND
8
Halfen
0
POLYLINE
8
Halfen
62
7
66
1
10
0.0
20
0.0
30
0.0
70
1
0
VERTEX
8
Halfen
62
7
10
 934
20
-576.569
30
0
0
VERTEX
8
Halfen
62
7
10
 934
20
 635.197
30
0
0
VERTEX
8
Halfen
62
7
10
 926
20
 635.197
30
0
0
VERTEX
8
Halfen
62
7
10
 926
20
-576.569
30
0
0
SEQEND
8
Halfen
0
POLYLINE
8
Halfen
62
7
66
1
10
0.0
20
0.0
30
0.0
70
1
0
VERTEX
8
Halfen
62
7
10
 874
20
-576.569
30
0
0
VERTEX
8
Halfen
62
7
10
 874
20
 635.197
30
0
0
VERTEX
8
Halfen
62
7
10
 866
20
 635.197
30
0
0
VERTEX
8
Halfen
62
7
10
 866
20
-576.569
30
0
0
SEQEND
8
Halfen
0
POLYLINE
8
Halfen
62
7
66
1
10
0.0
20
0.0
30
0.0
70
1
0
VERTEX
8
Halfen
62
7
10
 814
20
-576.569
30
0
0
VERTEX
8
Halfen
62
7
10
 814
20
 635.197
30
0
0
VERTEX
8
Halfen
62
7
10
 806
20
 635.197
30
0
0
VERTEX
8
Halfen
62
7
10
 806
20
-576.569
30
0
0
SEQEND
8
Halfen
0
POLYLINE
8
Halfen
62
7
66
1
10
0.0
20
0.0
30
0.0
70
1
0
VERTEX
8
Halfen
62
7
10
 684
20
-576.569
30
0
0
VERTEX
8
Halfen
62
7
10
 684
20
 635.197
30
0
0
VERTEX
8
Halfen
62
7
10
 676
20
 635.197
30
0
0
VERTEX
8
Halfen
62
7
10
 676
20
-576.569
30
0
0
SEQEND
8
Halfen
0
POLYLINE
8
Halfen
62
7
66
1
10
0.0
20
0.0
30
0.0
70
1
0
VERTEX
8
Halfen
62
7
10
 624
20
-576.569
30
0
0
VERTEX
8
Halfen
62
7
10
 624
20
 635.197
30
0
0
VERTEX
8
Halfen
62
7
10
 616
20
 635.197
30
0
0
VERTEX
8
Halfen
62
7
10
 616
20
-576.569
30
0
0
SEQEND
8
Halfen
0
POLYLINE
8
Halfen
62
7
66
1
10
0.0
20
0.0
30
0.0
70
1
0
VERTEX
8
Halfen
62
7
10
 564
20
-576.569
30
0
0
VERTEX
8
Halfen
62
7
10
 564
20
 635.197
30
0
0
VERTEX
8
Halfen
62
7
10
 556
20
 635.197
30
0
0
VERTEX
8
Halfen
62
7
10
 556
20
-576.569
30
0
0
SEQEND
8
Halfen
0
POLYLINE
8
Halfen
62
7
66
1
10
0.0
20
0.0
30
0.0
70
1
0
VERTEX
8
Halfen
62
7
10
 434
20
-576.569
30
0
0
VERTEX
8
Halfen
62
7
10
 434
20
 635.197
30
0
0
VERTEX
8
Halfen
62
7
10
 426
20
 635.197
30
0
0
VERTEX
8
Halfen
62
7
10
 426
20
-576.569
30
0
0
SEQEND
8
Halfen
0
POLYLINE
8
Halfen
62
7
66
1
10
0.0
20
0.0
30
0.0
70
1
0
VERTEX
8
Halfen
62
7
10
 374
20
-576.569
30
0
0
VERTEX
8
Halfen
62
7
10
 374
20
 635.197
30
0
0
VERTEX
8
Halfen
62
7
10
 366
20
 635.197
30
0
0
VERTEX
8
Halfen
62
7
10
 366
20
-576.569
30
0
0
SEQEND
8
Halfen
0
POLYLINE
8
Halfen
62
7
66
1
10
0.0
20
0.0
30
0.0
70
1
0
VERTEX
8
Halfen
62
7
10
 314
20
-576.569
30
0
0
VERTEX
8
Halfen
62
7
10
 314
20
 635.197
30
0
0
VERTEX
8
Halfen
62
7
10
 306
20
 635.197
30
0
0
VERTEX
8
Halfen
62
7
10
 306
20
-576.569
30
0
0
SEQEND
8
Halfen
0
POLYLINE
8
Halfen
62
7
66
1
10
0.0
20
0.0
30
0.0
70
1
0
VERTEX
8
Halfen
62
7
10
 184
20
-576.569
30
0
0
VERTEX
8
Halfen
62
7
10
 184
20
 635.197
30
0
0
VERTEX
8
Halfen
62
7
10
 176
20
 635.197
30
0
0
VERTEX
8
Halfen
62
7
10
 176
20
-576.569
30
0
0
SEQEND
8
Halfen
0
POLYLINE
8
Halfen
62
7
66
1
10
0.0
20
0.0
30
0.0
70
1
0
VERTEX
8
Halfen
62
7
10
 124
20
-576.569
30
0
0
VERTEX
8
Halfen
62
7
10
 124
20
 635.197
30
0
0
VERTEX
8
Halfen
62
7
10
 116
20
 635.197
30
0
0
VERTEX
8
Halfen
62
7
10
 116
20
-576.569
30
0
0
SEQEND
8
Halfen
0
POLYLINE
8
Halfen
62
7
66
1
10
0.0
20
0.0
30
0.0
70
1
0
VERTEX
8
Halfen
62
7
10
 64
20
-576.569
30
0
0
VERTEX
8
Halfen
62
7
10
 64
20
 635.197
30
0
0
VERTEX
8
Halfen
62
7
10
 56
20
 635.197
30
0
0
VERTEX
8
Halfen
62
7
10
 56
20
-576.569
30
0
0
SEQEND
8
Halfen
0
POLYLINE
8
Halfen
62
7
66
1
10
0.0
20
0.0
30
0.0
70
1
0
VERTEX
8
Halfen
62
7
10
 1480
20
-60
30
0
0
VERTEX
8
Halfen
62
7
10
 1480
20
 60
30
0
0
VERTEX
8
Halfen
62
7
10
 1466.5
20
 73.5
30
0
0
VERTEX
8
Halfen
62
7
10
 1466.5
20
 60
30
0
0
VERTEX
8
Halfen
62
7
10
 1250
20
 60
30
0
0
VERTEX
8
Halfen
62
7
10
 1250
20
-60
30
0
0
VERTEX
8
Halfen
62
7
10
 1466.5
20
-60
30
0
0
VERTEX
8
Halfen
62
7
10
 1466.5
20
-73.5
30
0
0
SEQEND
8
Halfen
0
POLYLINE
8
Halfen
62
7
66
1
10
0.0
20
0.0
30
0.0
70
1
0
VERTEX
8
Halfen
62
7
10
 1250
20
-60
30
0
0
VERTEX
8
Halfen
62
7
10
 1250
20
 60
30
0
0
VERTEX
8
Halfen
62
7
10
 1213.5
20
 60
30
0
0
VERTEX
8
Halfen
62
7
10
 1213.5
20
 73.5
30
0
0
VERTEX
8
Halfen
62
7
10
 1200
20
 60
30
0
0
VERTEX
8
Halfen
62
7
10
 1200
20
-60
30
0
0
VERTEX
8
Halfen
62
7
10
 1213.5
20
-73.5
30
0
0
VERTEX
8
Halfen
62
7
10
 1213.5
20
-60
30
0
0
SEQEND
8
Halfen
0
POLYLINE
8
Halfen
62
7
66
1
10
0.0
20
0.0
30
0.0
70
1
0
VERTEX
8
Halfen
62
7
10
 1477.5
20
-58.75
30
0
0
VERTEX
8
Halfen
62
7
10
 1477.5
20
 58.75
30
0
0
VERTEX
8
Halfen
62
7
10
 1469
20
 67.25
30
0
0
VERTEX
8
Halfen
62
7
10
 1469
20
 58
30
0
0
VERTEX
8
Halfen
62
7
10
 1252
20
 58
30
0
0
VERTEX
8
Halfen
62
7
10
 1252
20
-58
30
0
0
VERTEX
8
Halfen
62
7
10
 1469
20
-58
30
0
0
VERTEX
8
Halfen
62
7
10
 1469
20
-67.25
30
0
0
SEQEND
8
Halfen
0
POLYLINE
8
Halfen
62
7
66
1
10
0.0
20
0.0
30
0.0
70
1
0
VERTEX
8
Halfen
62
7
10
 1248
20
-58
30
0
0
VERTEX
8
Halfen
62
7
10
 1248
20
 58
30
0
0
VERTEX
8
Halfen
62
7
10
 1211
20
 58
30
0
0
VERTEX
8
Halfen
62
7
10
 1211
20
 67.25
30
0
0
VERTEX
8
Halfen
62
7
10
 1202.5
20
 58.75
30
0
0
VERTEX
8
Halfen
62
7
10
 1202.5
20
-58.75
30
0
0
VERTEX
8
Halfen
62
7
10
 1211
20
-67.25
30
0
0
VERTEX
8
Halfen
62
7
10
 1211
20
-58
30
0
0
SEQEND
8
Halfen
0
POLYLINE
8
Halfen
62
7
66
1
10
0.0
20
0.0
30
0.0
70
1
0
VERTEX
8
Halfen
62
7
10
 1450
20
-576.569
30
0
0
VERTEX
8
Halfen
62
7
10
 1450
20
-88.284
30
0
0
VERTEX
8
Halfen
62
7
10
 1449.606
20
-83.278
30
0
0
VERTEX
8
Halfen
62
7
10
 1448.434
20
-78.396
30
0
0
VERTEX
8
Halfen
62
7
10
 1446.512
20
-73.757
30
0
0
VERTEX
8
Halfen
62
7
10
 1443.889
20
-69.475
30
0
0
VERTEX
8
Halfen
62
7
10
 1440.627
20
-65.657
30
0
0
VERTEX
8
Halfen
62
7
10
 1245.029
20
 129.941
30
0
0
VERTEX
8
Halfen
62
7
10
 1242.584
20
 132.805
30
0
0
VERTEX
8
Halfen
62
7
10
 1240.616
20
 136.016
30
0
0
VERTEX
8
Halfen
62
7
10
 1239.175
20
 139.495
30
0
0
VERTEX
8
Halfen
62
7
10
 1238.295
20
 143.157
30
0
0
VERTEX
8
Halfen
62
7
10
 1238
20
 146.912
30
0
0
VERTEX
8
Halfen
62
7
10
 1238
20
 635.197
30
0
0
VERTEX
8
Halfen
62
7
10
 1230
20
 635.197
30
0
0
VERTEX
8
Halfen
62
7
10
 1230
20
 146.912
30
0
0
VERTEX
8
Halfen
62
7
10
 1230.394
20
 141.906
30
0
0
VERTEX
8
Halfen
62
7
10
 1231.566
20
 137.023
30
0
0
VERTEX
8
Halfen
62
7
10
 1233.488
20
 132.384
30
0
0
VERTEX
8
Halfen
62
7
10
 1236.111
20
 128.103
30
0
0
VERTEX
8
Halfen
62
7
10
 1239.373
20
 124.284
30
0
0
VERTEX
8
Halfen
62
7
10
 1434.971
20
-71.314
30
0
0
VERTEX
8
Halfen
62
7
10
 1437.416
20
-74.177
30
0
0
VERTEX
8
Halfen
62
7
10
 1439.384
20
-77.388
30
0
0
VERTEX
8
Halfen
62
7
10
 1440.825
20
-80.868
30
0
0
VERTEX
8
Halfen
62
7
10
 1441.705
20
-84.53
30
0
0
VERTEX
8
Halfen
62
7
10
 1442
20
-88.284
30
0
0
VERTEX
8
Halfen
62
7
10
 1442
20
-576.569
30
0
0
SEQEND
8
Halfen
0
POLYLINE
8
Halfen
62
7
66
1
10
0.0
20
0.0
30
0.0
70
1
0
VERTEX
8
Halfen
62
7
10
 1230
20
-576.569
30
0
0
VERTEX
8
Halfen
62
7
10
 1230
20
-88.284
30
0
0
VERTEX
8
Halfen
62
7
10
 1230.394
20
-83.278
30
0
0
VERTEX
8
Halfen
62
7
10
 1231.566
20
-78.396
30
0
0
VERTEX
8
Halfen
62
7
10
 1233.488
20
-73.757
30
0
0
VERTEX
8
Halfen
62
7
10
 1236.111
20
-69.475
30
0
0
VERTEX
8
Halfen
62
7
10
 1239.373
20
-65.657
30
0
0
VERTEX
8
Halfen
62
7
10
 1434.971
20
 129.941
30
0
0
VERTEX
8
Halfen
62
7
10
 1437.416
20
 132.805
30
0
0
VERTEX
8
Halfen
62
7
10
 1439.384
20
 136.016
30
0
0
VERTEX
8
Halfen
62
7
10
 1440.825
20
 139.495
30
0
0
VERTEX
8
Halfen
62
7
10
 1441.705
20
 143.157
30
0
0
VERTEX
8
Halfen
62
7
10
 1442
20
 146.912
30
0
0
VERTEX
8
Halfen
62
7
10
 1442
20
 635.197
30
0
0
VERTEX
8
Halfen
62
7
10
 1450
20
 635.197
30
0
0
VERTEX
8
Halfen
62
7
10
 1450
20
 146.912
30
0
0
VERTEX
8
Halfen
62
7
10
 1449.606
20
 141.906
30
0
0
VERTEX
8
Halfen
62
7
10
 1448.434
20
 137.023
30
0
0
VERTEX
8
Halfen
62
7
10
 1446.512
20
 132.384
30
0
0
VERTEX
8
Halfen
62
7
10
 1443.889
20
 128.103
30
0
0
VERTEX
8
Halfen
62
7
10
 1440.627
20
 124.284
30
0
0
VERTEX
8
Halfen
62
7
10
 1245.029
20
-71.314
30
0
0
VERTEX
8
Halfen
62
7
10
 1242.584
20
-74.177
30
0
0
VERTEX
8
Halfen
62
7
10
 1240.616
20
-77.388
30
0
0
VERTEX
8
Halfen
62
7
10
 1239.175
20
-80.868
30
0
0
VERTEX
8
Halfen
62
7
10
 1238.295
20
-84.53
30
0
0
VERTEX
8
Halfen
62
7
10
 1238
20
-88.284
30
0
0
VERTEX
8
Halfen
62
7
10
 1238
20
-576.569
30
0
0
SEQEND
8
Halfen
0
ENDSEC
0
EOF
