0
SECTION
2
HEADER
9
$EXTMIN
10
 0
20
 100
30
0.0
9
$EXTMAX
10
 0
20
 100
30
0.0
9
$LIMMIN
10
 100
20
 0
9
$LIMMAX
10
 0
20
 100
9
$PSLTSCALE
70
1
0
ENDSEC
0
SECTION
2
TABLES
0
TABLE
2
LAYER
70
2
0
LAYER
2
0
70
0
62
7
6
CONTINUOUS
0
LAYER
2
Halfen
70
0
62
7
6
CONTINUOUS
0
ENDTAB
0
ENDSEC
0
SECTION
2
ENTITIES
0
POLYLINE
8
Halfen
62
7
66
1
10
0.0
20
0.0
30
0.0
70
1
0
VERTEX
8
Halfen
62
7
10
 0
20
-73.5
30
0
0
VERTEX
8
Halfen
62
7
10
 500
20
-73.5
30
0
0
VERTEX
8
Halfen
62
7
10
 500
20
 73.5
30
0
0
VERTEX
8
Halfen
62
7
10
 0
20
 73.5
30
0
0
SEQEND
8
Halfen
0
POLYLINE
8
Halfen
62
7
66
1
10
0.0
20
0.0
30
0.0
70
1
0
VERTEX
8
Halfen
62
7
10
 0
20
-60
30
0
0
VERTEX
8
Halfen
62
7
10
 500
20
-60
30
0
0
VERTEX
8
Halfen
62
7
10
 500
20
 60
30
0
0
VERTEX
8
Halfen
62
7
10
 0
20
 60
30
0
0
SEQEND
8
Halfen
0
POLYLINE
8
Halfen
62
7
66
1
10
0.0
20
0.0
30
0.0
70
1
0
VERTEX
8
Halfen
62
7
10
 20
20
-32.5
30
0
0
VERTEX
8
Halfen
62
7
10
 37
20
-1.5
30
0
0
VERTEX
8
Halfen
62
7
10
 28
20
-1.5
30
0
0
VERTEX
8
Halfen
62
7
10
 28
20
 32.5
30
0
0
VERTEX
8
Halfen
62
7
10
 12
20
 32.5
30
0
0
VERTEX
8
Halfen
62
7
10
 12
20
-1.5
30
0
0
VERTEX
8
Halfen
62
7
10
 3
20
-1.5
30
0
0
SEQEND
8
Halfen
0
POLYLINE
8
Halfen
62
7
66
1
10
0.0
20
0.0
30
0.0
70
1
0
VERTEX
8
Halfen
62
7
10
 480
20
-32.5
30
0
0
VERTEX
8
Halfen
62
7
10
 497
20
-1.5
30
0
0
VERTEX
8
Halfen
62
7
10
 488
20
-1.5
30
0
0
VERTEX
8
Halfen
62
7
10
 488
20
 32.5
30
0
0
VERTEX
8
Halfen
62
7
10
 472
20
 32.5
30
0
0
VERTEX
8
Halfen
62
7
10
 472
20
-1.5
30
0
0
VERTEX
8
Halfen
62
7
10
 463
20
-1.5
30
0
0
SEQEND
8
Halfen
0
POLYLINE
8
Halfen
62
7
66
1
10
0.0
20
0.0
30
0.0
70
1
0
VERTEX
8
Halfen
62
7
10
 265
20
-69.3
30
0
0
VERTEX
8
Halfen
62
7
10
 265
20
-56.8
30
0
0
VERTEX
8
Halfen
62
7
10
 265
20
 69.3
30
0
0
VERTEX
8
Halfen
62
7
10
 264.958
20
 70.359
30
0
0
VERTEX
8
Halfen
62
7
10
 264.834
20
 71.412
30
0
0
VERTEX
8
Halfen
62
7
10
 264.627
20
 72.452
30
0
0
VERTEX
8
Halfen
62
7
10
 264.339
20
 73.472
30
0
0
VERTEX
8
Halfen
62
7
10
 263.972
20
 74.466
30
0
0
VERTEX
8
Halfen
62
7
10
 263.529
20
 75.429
30
0
0
VERTEX
8
Halfen
62
7
10
 263.011
20
 76.354
30
0
0
VERTEX
8
Halfen
62
7
10
 262.422
20
 77.235
30
0
0
VERTEX
8
Halfen
62
7
10
 261.765
20
 78.068
30
0
0
VERTEX
8
Halfen
62
7
10
 261.046
20
 78.846
30
0
0
VERTEX
8
Halfen
62
7
10
 260.268
20
 79.565
30
0
0
VERTEX
8
Halfen
62
7
10
 259.435
20
 80.222
30
0
0
VERTEX
8
Halfen
62
7
10
 258.554
20
 80.811
30
0
0
VERTEX
8
Halfen
62
7
10
 257.629
20
 81.329
30
0
0
VERTEX
8
Halfen
62
7
10
 256.666
20
 81.772
30
0
0
VERTEX
8
Halfen
62
7
10
 255.672
20
 82.139
30
0
0
VERTEX
8
Halfen
62
7
10
 254.652
20
 82.427
30
0
0
VERTEX
8
Halfen
62
7
10
 253.612
20
 82.634
30
0
0
VERTEX
8
Halfen
62
7
10
 252.559
20
 82.758
30
0
0
VERTEX
8
Halfen
62
7
10
 251.5
20
 82.8
30
0
0
VERTEX
8
Halfen
62
7
10
 248.5
20
 82.8
30
0
0
VERTEX
8
Halfen
62
7
10
 247.441
20
 82.758
30
0
0
VERTEX
8
Halfen
62
7
10
 246.388
20
 82.634
30
0
0
VERTEX
8
Halfen
62
7
10
 245.348
20
 82.427
30
0
0
VERTEX
8
Halfen
62
7
10
 244.328
20
 82.139
30
0
0
VERTEX
8
Halfen
62
7
10
 243.334
20
 81.772
30
0
0
VERTEX
8
Halfen
62
7
10
 242.371
20
 81.329
30
0
0
VERTEX
8
Halfen
62
7
10
 241.446
20
 80.811
30
0
0
VERTEX
8
Halfen
62
7
10
 240.565
20
 80.222
30
0
0
VERTEX
8
Halfen
62
7
10
 239.732
20
 79.565
30
0
0
VERTEX
8
Halfen
62
7
10
 238.954
20
 78.846
30
0
0
VERTEX
8
Halfen
62
7
10
 238.235
20
 78.068
30
0
0
VERTEX
8
Halfen
62
7
10
 237.578
20
 77.235
30
0
0
VERTEX
8
Halfen
62
7
10
 236.989
20
 76.354
30
0
0
VERTEX
8
Halfen
62
7
10
 236.471
20
 75.429
30
0
0
VERTEX
8
Halfen
62
7
10
 236.028
20
 74.466
30
0
0
VERTEX
8
Halfen
62
7
10
 235.661
20
 73.472
30
0
0
VERTEX
8
Halfen
62
7
10
 235.373
20
 72.452
30
0
0
VERTEX
8
Halfen
62
7
10
 235.166
20
 71.412
30
0
0
VERTEX
8
Halfen
62
7
10
 235.042
20
 70.359
30
0
0
VERTEX
8
Halfen
62
7
10
 235
20
 69.3
30
0
0
VERTEX
8
Halfen
62
7
10
 235
20
-56.8
30
0
0
VERTEX
8
Halfen
62
7
10
 235
20
-69.3
30
0
0
VERTEX
8
Halfen
62
7
10
 235.042
20
-70.359
30
0
0
VERTEX
8
Halfen
62
7
10
 235.166
20
-71.412
30
0
0
VERTEX
8
Halfen
62
7
10
 235.373
20
-72.452
30
0
0
VERTEX
8
Halfen
62
7
10
 235.661
20
-73.472
30
0
0
VERTEX
8
Halfen
62
7
10
 236.028
20
-74.466
30
0
0
VERTEX
8
Halfen
62
7
10
 236.471
20
-75.429
30
0
0
VERTEX
8
Halfen
62
7
10
 236.989
20
-76.354
30
0
0
VERTEX
8
Halfen
62
7
10
 237.578
20
-77.235
30
0
0
VERTEX
8
Halfen
62
7
10
 238.235
20
-78.068
30
0
0
VERTEX
8
Halfen
62
7
10
 238.954
20
-78.846
30
0
0
VERTEX
8
Halfen
62
7
10
 239.732
20
-79.565
30
0
0
VERTEX
8
Halfen
62
7
10
 240.565
20
-80.222
30
0
0
VERTEX
8
Halfen
62
7
10
 241.446
20
-80.811
30
0
0
VERTEX
8
Halfen
62
7
10
 242.371
20
-81.329
30
0
0
VERTEX
8
Halfen
62
7
10
 243.334
20
-81.772
30
0
0
VERTEX
8
Halfen
62
7
10
 244.328
20
-82.139
30
0
0
VERTEX
8
Halfen
62
7
10
 245.348
20
-82.427
30
0
0
VERTEX
8
Halfen
62
7
10
 246.388
20
-82.634
30
0
0
VERTEX
8
Halfen
62
7
10
 247.441
20
-82.758
30
0
0
VERTEX
8
Halfen
62
7
10
 248.5
20
-82.8
30
0
0
VERTEX
8
Halfen
62
7
10
 251.5
20
-82.8
30
0
0
VERTEX
8
Halfen
62
7
10
 252.559
20
-82.758
30
0
0
VERTEX
8
Halfen
62
7
10
 253.612
20
-82.634
30
0
0
VERTEX
8
Halfen
62
7
10
 254.652
20
-82.427
30
0
0
VERTEX
8
Halfen
62
7
10
 255.672
20
-82.139
30
0
0
VERTEX
8
Halfen
62
7
10
 256.666
20
-81.772
30
0
0
VERTEX
8
Halfen
62
7
10
 257.629
20
-81.329
30
0
0
VERTEX
8
Halfen
62
7
10
 258.554
20
-80.811
30
0
0
VERTEX
8
Halfen
62
7
10
 259.435
20
-80.222
30
0
0
VERTEX
8
Halfen
62
7
10
 260.268
20
-79.565
30
0
0
VERTEX
8
Halfen
62
7
10
 261.046
20
-78.846
30
0
0
VERTEX
8
Halfen
62
7
10
 261.765
20
-78.068
30
0
0
VERTEX
8
Halfen
62
7
10
 262.422
20
-77.235
30
0
0
VERTEX
8
Halfen
62
7
10
 263.011
20
-76.354
30
0
0
VERTEX
8
Halfen
62
7
10
 263.529
20
-75.429
30
0
0
VERTEX
8
Halfen
62
7
10
 263.972
20
-74.466
30
0
0
VERTEX
8
Halfen
62
7
10
 264.339
20
-73.472
30
0
0
VERTEX
8
Halfen
62
7
10
 264.627
20
-72.452
30
0
0
VERTEX
8
Halfen
62
7
10
 264.834
20
-71.412
30
0
0
VERTEX
8
Halfen
62
7
10
 264.958
20
-70.359
30
0
0
VERTEX
8
Halfen
62
7
10
 265
20
-69.3
30
0
0
SEQEND
8
Halfen
0
POLYLINE
8
Halfen
62
7
66
1
10
0.0
20
0.0
30
0.0
70
1
0
VERTEX
8
Halfen
62
7
10
 194
20
-576.569
30
0
0
VERTEX
8
Halfen
62
7
10
 194
20
 635.197
30
0
0
VERTEX
8
Halfen
62
7
10
 186
20
 635.197
30
0
0
VERTEX
8
Halfen
62
7
10
 186
20
-576.569
30
0
0
SEQEND
8
Halfen
0
POLYLINE
8
Halfen
62
7
66
1
10
0.0
20
0.0
30
0.0
70
1
0
VERTEX
8
Halfen
62
7
10
 324
20
-576.569
30
0
0
VERTEX
8
Halfen
62
7
10
 324
20
 635.197
30
0
0
VERTEX
8
Halfen
62
7
10
 316
20
 635.197
30
0
0
VERTEX
8
Halfen
62
7
10
 316
20
-576.569
30
0
0
SEQEND
8
Halfen
0
POLYLINE
8
Halfen
62
7
66
1
10
0.0
20
0.0
30
0.0
70
1
0
VERTEX
8
Halfen
62
7
10
 980
20
-60
30
0
0
VERTEX
8
Halfen
62
7
10
 980
20
 60
30
0
0
VERTEX
8
Halfen
62
7
10
 966.5
20
 73.5
30
0
0
VERTEX
8
Halfen
62
7
10
 966.5
20
 60
30
0
0
VERTEX
8
Halfen
62
7
10
 750
20
 60
30
0
0
VERTEX
8
Halfen
62
7
10
 750
20
-60
30
0
0
VERTEX
8
Halfen
62
7
10
 966.5
20
-60
30
0
0
VERTEX
8
Halfen
62
7
10
 966.5
20
-73.5
30
0
0
SEQEND
8
Halfen
0
POLYLINE
8
Halfen
62
7
66
1
10
0.0
20
0.0
30
0.0
70
1
0
VERTEX
8
Halfen
62
7
10
 750
20
-60
30
0
0
VERTEX
8
Halfen
62
7
10
 750
20
 60
30
0
0
VERTEX
8
Halfen
62
7
10
 713.5
20
 60
30
0
0
VERTEX
8
Halfen
62
7
10
 713.5
20
 73.5
30
0
0
VERTEX
8
Halfen
62
7
10
 700
20
 60
30
0
0
VERTEX
8
Halfen
62
7
10
 700
20
-60
30
0
0
VERTEX
8
Halfen
62
7
10
 713.5
20
-73.5
30
0
0
VERTEX
8
Halfen
62
7
10
 713.5
20
-60
30
0
0
SEQEND
8
Halfen
0
POLYLINE
8
Halfen
62
7
66
1
10
0.0
20
0.0
30
0.0
70
1
0
VERTEX
8
Halfen
62
7
10
 977.5
20
-58.75
30
0
0
VERTEX
8
Halfen
62
7
10
 977.5
20
 58.75
30
0
0
VERTEX
8
Halfen
62
7
10
 969
20
 67.25
30
0
0
VERTEX
8
Halfen
62
7
10
 969
20
 58
30
0
0
VERTEX
8
Halfen
62
7
10
 752
20
 58
30
0
0
VERTEX
8
Halfen
62
7
10
 752
20
-58
30
0
0
VERTEX
8
Halfen
62
7
10
 969
20
-58
30
0
0
VERTEX
8
Halfen
62
7
10
 969
20
-67.25
30
0
0
SEQEND
8
Halfen
0
POLYLINE
8
Halfen
62
7
66
1
10
0.0
20
0.0
30
0.0
70
1
0
VERTEX
8
Halfen
62
7
10
 748
20
-58
30
0
0
VERTEX
8
Halfen
62
7
10
 748
20
 58
30
0
0
VERTEX
8
Halfen
62
7
10
 711
20
 58
30
0
0
VERTEX
8
Halfen
62
7
10
 711
20
 67.25
30
0
0
VERTEX
8
Halfen
62
7
10
 702.5
20
 58.75
30
0
0
VERTEX
8
Halfen
62
7
10
 702.5
20
-58.75
30
0
0
VERTEX
8
Halfen
62
7
10
 711
20
-67.25
30
0
0
VERTEX
8
Halfen
62
7
10
 711
20
-58
30
0
0
SEQEND
8
Halfen
0
POLYLINE
8
Halfen
62
7
66
1
10
0.0
20
0.0
30
0.0
70
1
0
VERTEX
8
Halfen
62
7
10
 965
20
-81.8
30
0
0
VERTEX
8
Halfen
62
7
10
 965
20
 81.8
30
0
0
VERTEX
8
Halfen
62
7
10
 961
20
 81.8
30
0
0
VERTEX
8
Halfen
62
7
10
 960.846
20
 81.797
30
0
0
VERTEX
8
Halfen
62
7
10
 960.691
20
 81.786
30
0
0
VERTEX
8
Halfen
62
7
10
 960.538
20
 81.769
30
0
0
VERTEX
8
Halfen
62
7
10
 960.385
20
 81.746
30
0
0
VERTEX
8
Halfen
62
7
10
 960.234
20
 81.715
30
0
0
VERTEX
8
Halfen
62
7
10
 960.084
20
 81.678
30
0
0
VERTEX
8
Halfen
62
7
10
 959.936
20
 81.634
30
0
0
VERTEX
8
Halfen
62
7
10
 959.789
20
 81.584
30
0
0
VERTEX
8
Halfen
62
7
10
 959.646
20
 81.527
30
0
0
VERTEX
8
Halfen
62
7
10
 959.505
20
 81.464
30
0
0
VERTEX
8
Halfen
62
7
10
 959.366
20
 81.395
30
0
0
VERTEX
8
Halfen
62
7
10
 959.231
20
 81.32
30
0
0
VERTEX
8
Halfen
62
7
10
 959.1
20
 81.239
30
0
0
VERTEX
8
Halfen
62
7
10
 958.972
20
 81.153
30
0
0
VERTEX
8
Halfen
62
7
10
 958.848
20
 81.06
30
0
0
VERTEX
8
Halfen
62
7
10
 958.728
20
 80.963
30
0
0
VERTEX
8
Halfen
62
7
10
 958.613
20
 80.86
30
0
0
VERTEX
8
Halfen
62
7
10
 958.502
20
 80.752
30
0
0
VERTEX
8
Halfen
62
7
10
 958.397
20
 80.639
30
0
0
VERTEX
8
Halfen
62
7
10
 958.296
20
 80.522
30
0
0
VERTEX
8
Halfen
62
7
10
 957.41
20
 79.491
30
0
0
VERTEX
8
Halfen
62
7
10
 956.479
20
 78.5
30
0
0
VERTEX
8
Halfen
62
7
10
 955.505
20
 77.551
30
0
0
VERTEX
8
Halfen
62
7
10
 954.491
20
 76.646
30
0
0
VERTEX
8
Halfen
62
7
10
 953.437
20
 75.787
30
0
0
VERTEX
8
Halfen
62
7
10
 952.347
20
 74.975
30
0
0
VERTEX
8
Halfen
62
7
10
 951.222
20
 74.211
30
0
0
VERTEX
8
Halfen
62
7
10
 950.064
20
 73.499
30
0
0
VERTEX
8
Halfen
62
7
10
 948.876
20
 72.838
30
0
0
VERTEX
8
Halfen
62
7
10
 947.66
20
 72.23
30
0
0
VERTEX
8
Halfen
62
7
10
 946.418
20
 71.676
30
0
0
VERTEX
8
Halfen
62
7
10
 945.153
20
 71.178
30
0
0
VERTEX
8
Halfen
62
7
10
 943.867
20
 70.736
30
0
0
VERTEX
8
Halfen
62
7
10
 942.563
20
 70.351
30
0
0
VERTEX
8
Halfen
62
7
10
 941.243
20
 70.024
30
0
0
VERTEX
8
Halfen
62
7
10
 939.911
20
 69.756
30
0
0
VERTEX
8
Halfen
62
7
10
 938.567
20
 69.547
30
0
0
VERTEX
8
Halfen
62
7
10
 937.216
20
 69.397
30
0
0
VERTEX
8
Halfen
62
7
10
 935.859
20
 69.307
30
0
0
VERTEX
8
Halfen
62
7
10
 934.5
20
 69.277
30
0
0
VERTEX
8
Halfen
62
7
10
 912.5
20
 69.277
30
0
0
VERTEX
8
Halfen
62
7
10
 911.141
20
 69.307
30
0
0
VERTEX
8
Halfen
62
7
10
 909.784
20
 69.397
30
0
0
VERTEX
8
Halfen
62
7
10
 908.433
20
 69.547
30
0
0
VERTEX
8
Halfen
62
7
10
 907.089
20
 69.756
30
0
0
VERTEX
8
Halfen
62
7
10
 905.757
20
 70.024
30
0
0
VERTEX
8
Halfen
62
7
10
 904.437
20
 70.351
30
0
0
VERTEX
8
Halfen
62
7
10
 903.133
20
 70.736
30
0
0
VERTEX
8
Halfen
62
7
10
 901.847
20
 71.178
30
0
0
VERTEX
8
Halfen
62
7
10
 900.582
20
 71.676
30
0
0
VERTEX
8
Halfen
62
7
10
 899.34
20
 72.23
30
0
0
VERTEX
8
Halfen
62
7
10
 898.124
20
 72.838
30
0
0
VERTEX
8
Halfen
62
7
10
 896.936
20
 73.499
30
0
0
VERTEX
8
Halfen
62
7
10
 895.778
20
 74.211
30
0
0
VERTEX
8
Halfen
62
7
10
 894.653
20
 74.975
30
0
0
VERTEX
8
Halfen
62
7
10
 893.563
20
 75.787
30
0
0
VERTEX
8
Halfen
62
7
10
 892.509
20
 76.646
30
0
0
VERTEX
8
Halfen
62
7
10
 891.495
20
 77.551
30
0
0
VERTEX
8
Halfen
62
7
10
 890.521
20
 78.5
30
0
0
VERTEX
8
Halfen
62
7
10
 889.59
20
 79.491
30
0
0
VERTEX
8
Halfen
62
7
10
 888.704
20
 80.522
30
0
0
VERTEX
8
Halfen
62
7
10
 888.603
20
 80.639
30
0
0
VERTEX
8
Halfen
62
7
10
 888.498
20
 80.752
30
0
0
VERTEX
8
Halfen
62
7
10
 888.387
20
 80.86
30
0
0
VERTEX
8
Halfen
62
7
10
 888.272
20
 80.963
30
0
0
VERTEX
8
Halfen
62
7
10
 888.152
20
 81.06
30
0
0
VERTEX
8
Halfen
62
7
10
 888.028
20
 81.153
30
0
0
VERTEX
8
Halfen
62
7
10
 887.9
20
 81.239
30
0
0
VERTEX
8
Halfen
62
7
10
 887.769
20
 81.32
30
0
0
VERTEX
8
Halfen
62
7
10
 887.634
20
 81.395
30
0
0
VERTEX
8
Halfen
62
7
10
 887.495
20
 81.464
30
0
0
VERTEX
8
Halfen
62
7
10
 887.354
20
 81.527
30
0
0
VERTEX
8
Halfen
62
7
10
 887.211
20
 81.584
30
0
0
VERTEX
8
Halfen
62
7
10
 887.064
20
 81.634
30
0
0
VERTEX
8
Halfen
62
7
10
 886.916
20
 81.678
30
0
0
VERTEX
8
Halfen
62
7
10
 886.766
20
 81.715
30
0
0
VERTEX
8
Halfen
62
7
10
 886.615
20
 81.746
30
0
0
VERTEX
8
Halfen
62
7
10
 886.462
20
 81.769
30
0
0
VERTEX
8
Halfen
62
7
10
 886.309
20
 81.786
30
0
0
VERTEX
8
Halfen
62
7
10
 886.154
20
 81.797
30
0
0
VERTEX
8
Halfen
62
7
10
 886
20
 81.8
30
0
0
VERTEX
8
Halfen
62
7
10
 882
20
 81.8
30
0
0
VERTEX
8
Halfen
62
7
10
 882
20
-81.8
30
0
0
VERTEX
8
Halfen
62
7
10
 886
20
-81.8
30
0
0
VERTEX
8
Halfen
62
7
10
 886.154
20
-81.797
30
0
0
VERTEX
8
Halfen
62
7
10
 886.309
20
-81.786
30
0
0
VERTEX
8
Halfen
62
7
10
 886.462
20
-81.769
30
0
0
VERTEX
8
Halfen
62
7
10
 886.615
20
-81.746
30
0
0
VERTEX
8
Halfen
62
7
10
 886.766
20
-81.715
30
0
0
VERTEX
8
Halfen
62
7
10
 886.916
20
-81.678
30
0
0
VERTEX
8
Halfen
62
7
10
 887.064
20
-81.634
30
0
0
VERTEX
8
Halfen
62
7
10
 887.211
20
-81.584
30
0
0
VERTEX
8
Halfen
62
7
10
 887.354
20
-81.527
30
0
0
VERTEX
8
Halfen
62
7
10
 887.495
20
-81.464
30
0
0
VERTEX
8
Halfen
62
7
10
 887.634
20
-81.395
30
0
0
VERTEX
8
Halfen
62
7
10
 887.769
20
-81.32
30
0
0
VERTEX
8
Halfen
62
7
10
 887.9
20
-81.239
30
0
0
VERTEX
8
Halfen
62
7
10
 888.028
20
-81.153
30
0
0
VERTEX
8
Halfen
62
7
10
 888.152
20
-81.06
30
0
0
VERTEX
8
Halfen
62
7
10
 888.272
20
-80.963
30
0
0
VERTEX
8
Halfen
62
7
10
 888.387
20
-80.86
30
0
0
VERTEX
8
Halfen
62
7
10
 888.498
20
-80.752
30
0
0
VERTEX
8
Halfen
62
7
10
 888.603
20
-80.639
30
0
0
VERTEX
8
Halfen
62
7
10
 888.704
20
-80.522
30
0
0
VERTEX
8
Halfen
62
7
10
 889.59
20
-79.491
30
0
0
VERTEX
8
Halfen
62
7
10
 890.521
20
-78.5
30
0
0
VERTEX
8
Halfen
62
7
10
 891.495
20
-77.551
30
0
0
VERTEX
8
Halfen
62
7
10
 892.509
20
-76.646
30
0
0
VERTEX
8
Halfen
62
7
10
 893.563
20
-75.787
30
0
0
VERTEX
8
Halfen
62
7
10
 894.653
20
-74.975
30
0
0
VERTEX
8
Halfen
62
7
10
 895.778
20
-74.211
30
0
0
VERTEX
8
Halfen
62
7
10
 896.936
20
-73.499
30
0
0
VERTEX
8
Halfen
62
7
10
 898.124
20
-72.838
30
0
0
VERTEX
8
Halfen
62
7
10
 899.34
20
-72.23
30
0
0
VERTEX
8
Halfen
62
7
10
 900.582
20
-71.676
30
0
0
VERTEX
8
Halfen
62
7
10
 901.847
20
-71.178
30
0
0
VERTEX
8
Halfen
62
7
10
 903.133
20
-70.736
30
0
0
VERTEX
8
Halfen
62
7
10
 904.437
20
-70.351
30
0
0
VERTEX
8
Halfen
62
7
10
 905.757
20
-70.024
30
0
0
VERTEX
8
Halfen
62
7
10
 907.089
20
-69.756
30
0
0
VERTEX
8
Halfen
62
7
10
 908.433
20
-69.547
30
0
0
VERTEX
8
Halfen
62
7
10
 909.784
20
-69.397
30
0
0
VERTEX
8
Halfen
62
7
10
 911.141
20
-69.307
30
0
0
VERTEX
8
Halfen
62
7
10
 912.5
20
-69.277
30
0
0
VERTEX
8
Halfen
62
7
10
 934.5
20
-69.277
30
0
0
VERTEX
8
Halfen
62
7
10
 935.859
20
-69.307
30
0
0
VERTEX
8
Halfen
62
7
10
 937.216
20
-69.397
30
0
0
VERTEX
8
Halfen
62
7
10
 938.567
20
-69.547
30
0
0
VERTEX
8
Halfen
62
7
10
 939.911
20
-69.756
30
0
0
VERTEX
8
Halfen
62
7
10
 941.243
20
-70.024
30
0
0
VERTEX
8
Halfen
62
7
10
 942.563
20
-70.351
30
0
0
VERTEX
8
Halfen
62
7
10
 943.867
20
-70.736
30
0
0
VERTEX
8
Halfen
62
7
10
 945.153
20
-71.178
30
0
0
VERTEX
8
Halfen
62
7
10
 946.418
20
-71.676
30
0
0
VERTEX
8
Halfen
62
7
10
 947.66
20
-72.23
30
0
0
VERTEX
8
Halfen
62
7
10
 948.876
20
-72.838
30
0
0
VERTEX
8
Halfen
62
7
10
 950.064
20
-73.499
30
0
0
VERTEX
8
Halfen
62
7
10
 951.222
20
-74.211
30
0
0
VERTEX
8
Halfen
62
7
10
 952.347
20
-74.975
30
0
0
VERTEX
8
Halfen
62
7
10
 953.437
20
-75.787
30
0
0
VERTEX
8
Halfen
62
7
10
 954.491
20
-76.646
30
0
0
VERTEX
8
Halfen
62
7
10
 955.505
20
-77.551
30
0
0
VERTEX
8
Halfen
62
7
10
 956.479
20
-78.5
30
0
0
VERTEX
8
Halfen
62
7
10
 957.41
20
-79.491
30
0
0
VERTEX
8
Halfen
62
7
10
 958.296
20
-80.522
30
0
0
VERTEX
8
Halfen
62
7
10
 958.397
20
-80.639
30
0
0
VERTEX
8
Halfen
62
7
10
 958.502
20
-80.752
30
0
0
VERTEX
8
Halfen
62
7
10
 958.613
20
-80.86
30
0
0
VERTEX
8
Halfen
62
7
10
 958.728
20
-80.963
30
0
0
VERTEX
8
Halfen
62
7
10
 958.848
20
-81.06
30
0
0
VERTEX
8
Halfen
62
7
10
 958.972
20
-81.153
30
0
0
VERTEX
8
Halfen
62
7
10
 959.1
20
-81.239
30
0
0
VERTEX
8
Halfen
62
7
10
 959.231
20
-81.32
30
0
0
VERTEX
8
Halfen
62
7
10
 959.366
20
-81.395
30
0
0
VERTEX
8
Halfen
62
7
10
 959.505
20
-81.464
30
0
0
VERTEX
8
Halfen
62
7
10
 959.646
20
-81.527
30
0
0
VERTEX
8
Halfen
62
7
10
 959.789
20
-81.584
30
0
0
VERTEX
8
Halfen
62
7
10
 959.936
20
-81.634
30
0
0
VERTEX
8
Halfen
62
7
10
 960.084
20
-81.678
30
0
0
VERTEX
8
Halfen
62
7
10
 960.234
20
-81.715
30
0
0
VERTEX
8
Halfen
62
7
10
 960.385
20
-81.746
30
0
0
VERTEX
8
Halfen
62
7
10
 960.538
20
-81.769
30
0
0
VERTEX
8
Halfen
62
7
10
 960.691
20
-81.786
30
0
0
VERTEX
8
Halfen
62
7
10
 960.846
20
-81.797
30
0
0
VERTEX
8
Halfen
62
7
10
 961
20
-81.8
30
0
0
SEQEND
8
Halfen
0
POLYLINE
8
Halfen
62
7
66
1
10
0.0
20
0.0
30
0.0
70
1
0
VERTEX
8
Halfen
62
7
10
 950
20
-576.569
30
0
0
VERTEX
8
Halfen
62
7
10
 950
20
-88.284
30
0
0
VERTEX
8
Halfen
62
7
10
 949.606
20
-83.278
30
0
0
VERTEX
8
Halfen
62
7
10
 948.434
20
-78.396
30
0
0
VERTEX
8
Halfen
62
7
10
 946.512
20
-73.757
30
0
0
VERTEX
8
Halfen
62
7
10
 943.889
20
-69.475
30
0
0
VERTEX
8
Halfen
62
7
10
 940.627
20
-65.657
30
0
0
VERTEX
8
Halfen
62
7
10
 745.029
20
 129.941
30
0
0
VERTEX
8
Halfen
62
7
10
 742.584
20
 132.805
30
0
0
VERTEX
8
Halfen
62
7
10
 740.616
20
 136.016
30
0
0
VERTEX
8
Halfen
62
7
10
 739.175
20
 139.495
30
0
0
VERTEX
8
Halfen
62
7
10
 738.295
20
 143.157
30
0
0
VERTEX
8
Halfen
62
7
10
 738
20
 146.912
30
0
0
VERTEX
8
Halfen
62
7
10
 738
20
 635.197
30
0
0
VERTEX
8
Halfen
62
7
10
 730
20
 635.197
30
0
0
VERTEX
8
Halfen
62
7
10
 730
20
 146.912
30
0
0
VERTEX
8
Halfen
62
7
10
 730.394
20
 141.906
30
0
0
VERTEX
8
Halfen
62
7
10
 731.566
20
 137.023
30
0
0
VERTEX
8
Halfen
62
7
10
 733.488
20
 132.384
30
0
0
VERTEX
8
Halfen
62
7
10
 736.111
20
 128.103
30
0
0
VERTEX
8
Halfen
62
7
10
 739.373
20
 124.284
30
0
0
VERTEX
8
Halfen
62
7
10
 934.971
20
-71.314
30
0
0
VERTEX
8
Halfen
62
7
10
 937.416
20
-74.177
30
0
0
VERTEX
8
Halfen
62
7
10
 939.384
20
-77.388
30
0
0
VERTEX
8
Halfen
62
7
10
 940.825
20
-80.868
30
0
0
VERTEX
8
Halfen
62
7
10
 941.705
20
-84.53
30
0
0
VERTEX
8
Halfen
62
7
10
 942
20
-88.284
30
0
0
VERTEX
8
Halfen
62
7
10
 942
20
-576.569
30
0
0
SEQEND
8
Halfen
0
ENDSEC
0
EOF
