  0
SECTION
  2
HEADER
  9
$ACADVER
  1
AC1018
  9
$ACADMAINTVER
 70
    39
  9
$DWGCODEPAGE
  3
ANSI_1252
  9
$LASTSAVEDBY
  1
uhlaender
  9
$INSBASE
 10
1975.478541664943
 20
1828.310160663761
 30
0.0
  9
$EXTMIN
 10
1087.550617588744
 20
406.9917291799829
 30
-0.0015258207003583
  9
$EXTMAX
 10
2892.338271199482
 20
2575.151919782945
 30
0.0000000349246037
  9
$LIMMIN
 10
0.0
 20
0.0
  9
$LIMMAX
 10
841.0
 20
1189.0
  9
$ORTHOMODE
 70
     1
  9
$REGENMODE
 70
     1
  9
$FILLMODE
 70
     1
  9
$QTEXTMODE
 70
     0
  9
$MIRRTEXT
 70
     1
  9
$LTSCALE
 40
5.0
  9
$ATTMODE
 70
     1
  9
$TEXTSIZE
 40
3.5
  9
$TRACEWID
 40
0.05
  9
$TEXTSTYLE
  7
ARIAL50
  9
$CLAYER
  8
HALFEN
  9
$CELTYPE
  6
BYLAYER
  9
$CECOLOR
 62
   256
  9
$CELTSCALE
 40
1.0
  9
$DISPSILH
 70
     0
  9
$DIMSCALE
 40
1.0
  9
$DIMASZ
 40
2.5
  9
$DIMEXO
 40
1.0
  9
$DIMDLI
 40
10.0
  9
$DIMRND
 40
0.0
  9
$DIMDLE
 40
0.0
  9
$DIMEXE
 40
1.0
  9
$DIMTP
 40
0.1
  9
$DIMTM
 40
0.1
  9
$DIMTXT
 40
3.5
  9
$DIMCEN
 40
0.09
  9
$DIMTSZ
 40
0.0
  9
$DIMTOL
 70
     0
  9
$DIMLIM
 70
     0
  9
$DIMTIH
 70
     0
  9
$DIMTOH
 70
     0
  9
$DIMSE1
 70
     0
  9
$DIMSE2
 70
     0
  9
$DIMTAD
 70
     1
  9
$DIMZIN
 70
     8
  9
$DIMBLK
  1

  9
$DIMASO
 70
     1
  9
$DIMSHO
 70
     1
  9
$DIMPOST
  1

  9
$DIMAPOST
  1

  9
$DIMALT
 70
     0
  9
$DIMALTD
 70
     2
  9
$DIMALTF
 40
0.0393701
  9
$DIMLFAC
 40
1.0
  9
$DIMTOFL
 70
     1
  9
$DIMTVP
 40
0.0
  9
$DIMTIX
 70
     0
  9
$DIMSOXD
 70
     0
  9
$DIMSAH
 70
     0
  9
$DIMBLK1
  1

  9
$DIMBLK2
  1

  9
$DIMSTYLE
  2
GEN-ISO
  9
$DIMCLRD
 70
     1
  9
$DIMCLRE
 70
     1
  9
$DIMCLRT
 70
     7
  9
$DIMTFAC
 40
0.71
  9
$DIMGAP
 40
3.0
  9
$DIMJUST
 70
     0
  9
$DIMSD1
 70
     0
  9
$DIMSD2
 70
     0
  9
$DIMTOLJ
 70
     0
  9
$DIMTZIN
 70
     0
  9
$DIMALTZ
 70
     0
  9
$DIMALTTZ
 70
     0
  9
$DIMUPT
 70
     0
  9
$DIMDEC
 70
     1
  9
$DIMTDEC
 70
     3
  9
$DIMALTU
 70
     2
  9
$DIMALTTD
 70
     4
  9
$DIMTXSTY
  7
STANDARD
  9
$DIMAUNIT
 70
     0
  9
$DIMADEC
 70
     0
  9
$DIMALTRND
 40
0.0
  9
$DIMAZIN
 70
     0
  9
$DIMDSEP
 70
    46
  9
$DIMATFIT
 70
     3
  9
$DIMFRAC
 70
     0
  9
$DIMLDRBLK
  1

  9
$DIMLUNIT
 70
     2
  9
$DIMLWD
 70
    -2
  9
$DIMLWE
 70
    -2
  9
$DIMTMOVE
 70
     0
  9
$LUNITS
 70
     2
  9
$LUPREC
 70
     2
  9
$SKETCHINC
 40
0.1
  9
$FILLETRAD
 40
0.0
  9
$AUNITS
 70
     0
  9
$AUPREC
 70
     0
  9
$MENU
  1
.
  9
$ELEVATION
 40
0.0
  9
$PELEVATION
 40
0.0
  9
$THICKNESS
 40
0.0
  9
$LIMCHECK
 70
     0
  9
$CHAMFERA
 40
2.5
  9
$CHAMFERB
 40
2.5
  9
$CHAMFERC
 40
1.0
  9
$CHAMFERD
 40
0.0
  9
$SKPOLY
 70
     0
  9
$TDCREATE
 40
2451438.371298843
  9
$TDUCREATE
 40
2451438.287965509
  9
$TDUPDATE
 40
2453937.331103148
  9
$TDUUPDATE
 40
2453937.247769815
  9
$TDINDWG
 40
1.1915019792
  9
$TDUSRTIMER
 40
1.1915019792
  9
$USRTIMER
 70
     1
  9
$ANGBASE
 50
0.0
  9
$ANGDIR
 70
     0
  9
$PDMODE
 70
     0
  9
$PDSIZE
 40
0.0
  9
$PLINEWID
 40
0.0
  9
$SPLFRAME
 70
     0
  9
$SPLINETYPE
 70
     6
  9
$SPLINESEGS
 70
     8
  9
$HANDSEED
  5
14F
  9
$SURFTAB1
 70
     6
  9
$SURFTAB2
 70
     6
  9
$SURFTYPE
 70
     6
  9
$SURFU
 70
     6
  9
$SURFV
 70
     6
  9
$UCSBASE
  2

  9
$UCSNAME
  2

  9
$UCSORG
 10
0.0
 20
0.0
 30
0.0
  9
$UCSXDIR
 10
1.0
 20
0.0
 30
0.0
  9
$UCSYDIR
 10
0.0
 20
1.0
 30
0.0
  9
$UCSORTHOREF
  2

  9
$UCSORTHOVIEW
 70
     0
  9
$UCSORGTOP
 10
0.0
 20
0.0
 30
0.0
  9
$UCSORGBOTTOM
 10
0.0
 20
0.0
 30
0.0
  9
$UCSORGLEFT
 10
0.0
 20
0.0
 30
0.0
  9
$UCSORGRIGHT
 10
0.0
 20
0.0
 30
0.0
  9
$UCSORGFRONT
 10
0.0
 20
0.0
 30
0.0
  9
$UCSORGBACK
 10
0.0
 20
0.0
 30
0.0
  9
$PUCSBASE
  2

  9
$PUCSNAME
  2

  9
$PUCSORG
 10
0.0
 20
0.0
 30
0.0
  9
$PUCSXDIR
 10
1.0
 20
0.0
 30
0.0
  9
$PUCSYDIR
 10
0.0
 20
1.0
 30
0.0
  9
$PUCSORTHOREF
  2

  9
$PUCSORTHOVIEW
 70
     0
  9
$PUCSORGTOP
 10
0.0
 20
0.0
 30
0.0
  9
$PUCSORGBOTTOM
 10
0.0
 20
0.0
 30
0.0
  9
$PUCSORGLEFT
 10
0.0
 20
0.0
 30
0.0
  9
$PUCSORGRIGHT
 10
0.0
 20
0.0
 30
0.0
  9
$PUCSORGFRONT
 10
0.0
 20
0.0
 30
0.0
  9
$PUCSORGBACK
 10
0.0
 20
0.0
 30
0.0
  9
$USERI1
 70
     0
  9
$USERI2
 70
     0
  9
$USERI3
 70
     0
  9
$USERI4
 70
     0
  9
$USERI5
 70
     0
  9
$USERR1
 40
0.0
  9
$USERR2
 40
0.0
  9
$USERR3
 40
0.0
  9
$USERR4
 40
0.0
  9
$USERR5
 40
0.0
  9
$WORLDVIEW
 70
     1
  9
$SHADEDGE
 70
     3
  9
$SHADEDIF
 70
    70
  9
$TILEMODE
 70
     1
  9
$MAXACTVP
 70
    48
  9
$PINSBASE
 10
0.0
 20
0.0
 30
0.0
  9
$PLIMCHECK
 70
     0
  9
$PEXTMIN
 10
1.000000000000000E+20
 20
1.000000000000000E+20
 30
1.000000000000000E+20
  9
$PEXTMAX
 10
-1.000000000000000E+20
 20
-1.000000000000000E+20
 30
-1.000000000000000E+20
  9
$PLIMMIN
 10
0.0
 20
0.0
  9
$PLIMMAX
 10
12.0
 20
9.0
  9
$UNITMODE
 70
     0
  9
$VISRETAIN
 70
     1
  9
$PLINEGEN
 70
     0
  9
$PSLTSCALE
 70
     1
  9
$TREEDEPTH
 70
  3020
  9
$CMLSTYLE
  2
STANDARD
  9
$CMLJUST
 70
     0
  9
$CMLSCALE
 40
1.0
  9
$PROXYGRAPHICS
 70
     1
  9
$MEASUREMENT
 70
     1
  9
$CELWEIGHT
370
    -1
  9
$ENDCAPS
280
     0
  9
$JOINSTYLE
280
     0
  9
$LWDISPLAY
290
     0
  9
$INSUNITS
 70
     4
  9
$HYPERLINKBASE
  1

  9
$STYLESHEET
  1

  9
$XEDIT
290
     1
  9
$CEPSNTYPE
380
     0
  9
$PSTYLEMODE
290
     1
  9
$FINGERPRINTGUID
  2
{DB9364DC-E4DC-43FC-95C9-238926D34999}
  9
$VERSIONGUID
  2
{22154607-AF53-4CD5-88EC-11CCDC937293}
  9
$EXTNAMES
290
     1
  9
$PSVPSCALE
 40
0.0
  9
$OLESTARTUP
290
     0
  9
$SORTENTS
280
   127
  9
$INDEXCTL
280
     0
  9
$HIDETEXT
280
     1
  9
$XCLIPFRAME
290
     0
  9
$HALOGAP
280
     0
  9
$OBSCOLOR
 70
   257
  9
$OBSLTYPE
280
     0
  9
$INTERSECTIONDISPLAY
280
     0
  9
$INTERSECTIONCOLOR
 70
   257
  9
$DIMASSOC
280
     1
  9
$PROJECTNAME
  1

  0
ENDSEC
  0
SECTION
  2
CLASSES
  0
CLASS
  1
ACDBDICTIONARYWDFLT
  2
AcDbDictionaryWithDefault
  3
ObjectDBX Classes
 90
        0
 91
        1
280
     0
281
     0
  0
CLASS
  1
TABLESTYLE
  2
AcDbTableStyle
  3
ObjectDBX Classes
 90
     2047
 91
        1
280
     0
281
     0
  0
CLASS
  1
DICTIONARYVAR
  2
AcDbDictionaryVar
  3
ObjectDBX Classes
 90
        0
 91
        4
280
     0
281
     0
  0
ENDSEC
  0
SECTION
  2
TABLES
  0
TABLE
  2
VPORT
  5
19
330
0
100
AcDbSymbolTable
 70
     4
  0
VPORT
  5
14E
330
19
100
AcDbSymbolTableRecord
100
AcDbViewportTableRecord
  2
*Active
 70
     0
 10
0.0
 20
0.0
 11
1.0
 21
1.0
 12
1989.944444394113
 22
1491.071824481464
 13
0.0
 23
0.0
 14
273.4512969780281
 24
273.4512969780281
 15
10.0
 25
10.0
 16
0.0
 26
0.0
 36
1.0
 17
0.0
 27
0.0
 37
0.0
 40
2182.503036406289
 41
1.656732891832229
 42
50.0
 43
0.0
 44
0.0
 50
0.0
 51
0.0
 71
     0
 72
   100
 73
     1
 74
     1
 75
     0
 76
     0
 77
     0
 78
     1
281
     0
 65
     1
110
0.0
120
0.0
130
0.0
111
1.0
121
0.0
131
0.0
112
0.0
122
1.0
132
0.0
 79
     0
146
0.0
  0
ENDTAB
  0
TABLE
  2
LTYPE
  5
14
330
0
100
AcDbSymbolTable
 70
     1
  0
LTYPE
  5
15
330
14
100
AcDbSymbolTableRecord
100
AcDbLinetypeTableRecord
  2
BYBLOCK
 70
     0
  3

 72
    65
 73
     0
 40
0.0
  0
LTYPE
  5
16
330
14
100
AcDbSymbolTableRecord
100
AcDbLinetypeTableRecord
  2
BYLAYER
 70
     0
  3

 72
    65
 73
     0
 40
0.0
  0
LTYPE
  5
8
330
14
100
AcDbSymbolTableRecord
100
AcDbLinetypeTableRecord
  2
CONTINUOUS
 70
     0
  3
Solid line
 72
    65
 73
     0
 40
0.0
  0
ENDTAB
  0
TABLE
  2
LAYER
  5
10
330
0
100
AcDbSymbolTable
 70
     2
  0
LAYER
  5
4
330
10
100
AcDbSymbolTableRecord
100
AcDbLayerTableRecord
  2
0
 70
     0
 62
     7
  6
CONTINUOUS
370
    -3
390
5
  0
LAYER
  5
25
330
10
100
AcDbSymbolTableRecord
100
AcDbLayerTableRecord
  2
HALFEN
 70
     0
 62
     2
  6
CONTINUOUS
370
    -3
390
5
  0
ENDTAB
  0
TABLE
  2
STYLE
  5
11
330
0
100
AcDbSymbolTable
 70
     2
  0
STYLE
  5
12
330
11
100
AcDbSymbolTableRecord
100
AcDbTextStyleTableRecord
  2
STANDARD
 70
     0
 40
0.0
 41
1.0
 50
0.0
 71
     0
 42
0.2
  3
geniso.shx
  4

  0
STYLE
  5
26
330
11
100
AcDbSymbolTableRecord
100
AcDbTextStyleTableRecord
  2
ARIAL50
 70
     0
 40
5.0
 41
1.0
 50
0.0
 71
     0
 42
3.5
  3
ARIAL.TTF
  4

1001
ACAD
1000
Arial
1071
       34
  0
ENDTAB
  0
TABLE
  2
VIEW
  5
17
330
0
100
AcDbSymbolTable
 70
     0
  0
ENDTAB
  0
TABLE
  2
UCS
  5
18
330
0
100
AcDbSymbolTable
 70
     0
  0
ENDTAB
  0
TABLE
  2
APPID
  5
1B
330
0
100
AcDbSymbolTable
 70
     2
  0
APPID
  5
1C
330
1B
100
AcDbSymbolTableRecord
100
AcDbRegAppTableRecord
  2
ACAD
 70
     0
  0
APPID
  5
12B
330
1B
100
AcDbSymbolTableRecord
100
AcDbRegAppTableRecord
  2
DCO15
 70
     0
  0
ENDTAB
  0
TABLE
  2
DIMSTYLE
  5
1D
330
0
100
AcDbSymbolTable
 70
     1
100
AcDbDimStyleTable
 71
     0
  0
DIMSTYLE
105
29
330
1D
100
AcDbSymbolTableRecord
100
AcDbDimStyleTableRecord
  2
GEN-ISO
 70
     0
 41
2.5
 42
1.0
 43
10.0
 44
1.0
 47
0.1
 48
0.1
 73
     0
 74
     0
 77
     1
 78
     8
140
3.5
141
0.0
143
0.0393701
146
0.71
147
3.0
172
     1
176
     1
177
     1
178
     7
271
     1
272
     3
274
     4
283
     0
340
12
  0
ENDTAB
  0
TABLE
  2
BLOCK_RECORD
  5
1
330
0
100
AcDbSymbolTable
 70
     0
  0
BLOCK_RECORD
  5
2
330
1
100
AcDbSymbolTableRecord
100
AcDbBlockTableRecord
  2
*MODEL_SPACE
340
A
  0
BLOCK_RECORD
  5
C
330
1
100
AcDbSymbolTableRecord
100
AcDbBlockTableRecord
  2
*PAPER_SPACE
340
F
  0
ENDTAB
  0
ENDSEC
  0
SECTION
  2
BLOCKS
  0
BLOCK
  5
3
330
2
100
AcDbEntity
  8
0
100
AcDbBlockBegin
  2
*MODEL_SPACE
 70
     0
 10
0.0
 20
0.0
 30
0.0
  3
*MODEL_SPACE
  1

  0
ENDBLK
  5
9
330
2
100
AcDbEntity
  8
0
100
AcDbBlockEnd
  0
BLOCK
  5
D
330
C
100
AcDbEntity
 67
     1
  8
0
100
AcDbBlockBegin
  2
*PAPER_SPACE
 70
     0
 10
0.0
 20
0.0
 30
0.0
  3
*PAPER_SPACE
  1

  0
ENDBLK
  5
E
330
C
100
AcDbEntity
 67
     1
  8
0
100
AcDbBlockEnd
  0
ENDSEC
  0
SECTION
  2
ENTITIES
  0
TEXT
  5
2A
330
2
100
AcDbEntity
  8
HALFEN
100
AcDbText
 10
1517.250000000002
 20
2558.749999999993
 30
0.0
 40
5.0
  1
HKW 50/ 5 - fv - 750/ 2
  7
ARIAL50
100
AcDbText
  0
LINE
  5
2B
330
2
100
AcDbEntity
  8
HALFEN
100
AcDbLine
 10
1462.250000000002
 20
2566.249999999993
 30
0.0
 11
1612.250000000002
 21
2566.249999999993
 31
0.0
  0
LINE
  5
2C
330
2
100
AcDbEntity
  8
HALFEN
100
AcDbLine
 10
1462.250000000002
 20
2556.249999999993
 30
0.0
 11
1612.250000000002
 21
2556.249999999993
 31
0.0
  0
LINE
  5
2D
330
2
100
AcDbEntity
  8
HALFEN
100
AcDbLine
 10
1462.250000000002
 20
2546.249999999993
 30
0.0
 11
1612.250000000002
 21
2546.249999999993
 31
0.0
  0
TEXT
  5
2E
330
2
100
AcDbEntity
  8
HALFEN
100
AcDbText
 10
1462.250000000002
 20
2568.749999999993
 30
0.0
 40
5.0
  1
fv
  7
ARIAL50
100
AcDbText
  0
TEXT
  5
2F
330
2
100
AcDbEntity
  8
HALFEN
100
AcDbText
 10
1467.250000000002
 20
2558.749999999993
 30
0.0
 40
5.0
  1
Benennung
  7
ARIAL50
100
AcDbText
  0
TEXT
  5
30
330
2
100
AcDbEntity
  8
HALFEN
100
AcDbText
 10
1467.250000000002
 20
2548.749999999993
 30
0.0
 40
5.0
  1
Id. Nr.
  7
ARIAL50
100
AcDbText
  0
LINE
  5
31
330
2
100
AcDbEntity
  8
HALFEN
100
AcDbLine
 10
1462.250000000002
 20
2546.249999999993
 30
0.0
 11
1462.250000000002
 21
2566.249999999993
 31
0.0
  0
LINE
  5
32
330
2
100
AcDbEntity
  8
HALFEN
100
AcDbLine
 10
1512.250000000002
 20
2546.249999999993
 30
0.0
 11
1512.250000000002
 21
2566.249999999993
 31
0.0
  0
TEXT
  5
33
330
2
100
AcDbEntity
  8
HALFEN
100
AcDbText
 10
1517.250000000002
 20
2548.749999999993
 30
0.0
 40
5.0
  1
0027.010-00002
  7
ARIAL50
100
AcDbText
  0
LINE
  5
34
330
2
100
AcDbEntity
  8
HALFEN
100
AcDbLine
 10
1612.250000000002
 20
2546.249999999993
 30
0.0
 11
1612.250000000002
 21
2566.249999999993
 31
0.0
  0
TEXT
  5
35
330
2
100
AcDbEntity
  8
HALFEN
100
AcDbText
 10
1687.250000000002
 20
2558.749999999993
 30
0.0
 40
5.0
  1
HKW 50/ 5 - A2 - 750/ 2
  7
ARIAL50
100
AcDbText
  0
LINE
  5
36
330
2
100
AcDbEntity
  8
HALFEN
100
AcDbLine
 10
1632.250000000002
 20
2546.249999999993
 30
0.0
 11
1782.250000000002
 21
2546.249999999993
 31
0.0
  0
LINE
  5
37
330
2
100
AcDbEntity
  8
HALFEN
100
AcDbLine
 10
1632.250000000002
 20
2556.249999999993
 30
0.0
 11
1782.250000000002
 21
2556.249999999993
 31
0.0
  0
LINE
  5
38
330
2
100
AcDbEntity
  8
HALFEN
100
AcDbLine
 10
1632.250000000002
 20
2566.249999999993
 30
0.0
 11
1782.250000000002
 21
2566.249999999993
 31
0.0
  0
TEXT
  5
39
330
2
100
AcDbEntity
  8
HALFEN
100
AcDbText
 10
1637.250000000002
 20
2548.749999999993
 30
0.0
 40
5.0
  1
Id. Nr.
  7
ARIAL50
100
AcDbText
  0
TEXT
  5
3A
330
2
100
AcDbEntity
  8
HALFEN
100
AcDbText
 10
1637.250000000002
 20
2558.749999999993
 30
0.0
 40
5.0
  1
Benennung
  7
ARIAL50
100
AcDbText
  0
TEXT
  5
3B
330
2
100
AcDbEntity
  8
HALFEN
100
AcDbText
 10
1632.250000000002
 20
2568.749999999993
 30
0.0
 40
5.0
  1
A2
  7
ARIAL50
100
AcDbText
  0
LINE
  5
3C
330
2
100
AcDbEntity
  8
HALFEN
100
AcDbLine
 10
1632.250000000002
 20
2546.249999999993
 30
0.0
 11
1632.250000000002
 21
2566.249999999993
 31
0.0
  0
TEXT
  5
3D
330
2
100
AcDbEntity
  8
HALFEN
100
AcDbText
 10
1687.250000000002
 20
2548.749999999993
 30
0.0
 40
5.0
  1
0027.010-00007
  7
ARIAL50
100
AcDbText
  0
LINE
  5
3E
330
2
100
AcDbEntity
  8
HALFEN
100
AcDbLine
 10
1682.250000000002
 20
2546.249999999993
 30
0.0
 11
1682.250000000002
 21
2566.249999999993
 31
0.0
  0
LINE
  5
3F
330
2
100
AcDbEntity
  8
HALFEN
100
AcDbLine
 10
1782.250000000002
 20
2546.249999999993
 30
0.0
 11
1782.250000000002
 21
2566.249999999993
 31
0.0
  0
LINE
  5
40
330
2
100
AcDbEntity
  8
HALFEN
100
AcDbLine
 10
1513.115005079685
 20
2427.088241940988
 30
0.0
 11
1473.743578974888
 21
2427.775472739964
 31
0.0
  0
LINE
  5
41
330
2
100
AcDbEntity
  8
HALFEN
100
AcDbLine
 10
1462.937230798977
 20
2438.581820915874
 30
0.0
 11
1462.250000000002
 21
2477.953247020671
 31
0.0
  0
LINE
  5
42
330
2
100
AcDbEntity
  8
HALFEN
100
AcDbLine
 10
1513.202267111872
 20
2432.08748041677
 30
0.0
 11
1472.865299311344
 21
2432.791564808735
 31
0.0
  0
LINE
  5
43
330
2
100
AcDbEntity
  8
HALFEN
100
AcDbLine
 10
1467.953322867749
 20
2437.703541252331
 30
0.0
 11
1467.249238475783
 21
2478.040509052858
 31
0.0
  0
LINE
  5
44
330
2
100
AcDbEntity
  8
HALFEN
100
AcDbLine
 10
1462.250000000002
 20
2477.953247020671
 30
0.0
 11
1467.249238475783
 21
2478.040509052858
 31
0.0
  0
LINE
  5
45
330
2
100
AcDbEntity
  8
HALFEN
100
AcDbLine
 10
1513.202267111872
 20
2432.08748041677
 30
0.0
 11
1513.115005079685
 21
2427.088241940988
 31
0.0
  0
ARC
  5
46
330
2
100
AcDbEntity
  8
HALFEN
100
AcDbCircle
 10
1473.935555445698
 20
2438.773797386684
 30
0.0
 40
11.0
100
AcDbArc
 50
180.9999999999997
 51
269.0000000000001
  0
ARC
  5
47
330
2
100
AcDbEntity
  8
HALFEN
100
AcDbCircle
 10
1472.952561343531
 20
2437.790803284517
 30
0.0
 40
5.0
100
AcDbArc
 50
180.9999999999997
 51
269.0000000000001
  0
ARC
  5
48
330
2
100
AcDbEntity
  8
HALFEN
100
AcDbCircle
 10
1492.230988663617
 20
2456.953535443711
 30
0.0
 40
24.5
100
AcDbArc
 50
135.0
 51
315.0
  0
LINE
  5
49
330
2
100
AcDbEntity
  8
HALFEN
100
AcDbLine
 10
1561.527453219898
 20
2491.601767721852
 30
0.0
 11
1555.870598970406
 21
2497.258621971345
 31
0.0
  0
ARC
  5
4A
330
2
100
AcDbEntity
  8
HALFEN
100
AcDbCircle
 10
1492.230988663617
 20
2456.953535443711
 30
0.0
 40
16.5
100
AcDbArc
 50
135.0
 51
315.0
  0
LINE
  5
4B
330
2
100
AcDbEntity
  8
HALFEN
100
AcDbLine
 10
1480.563726774038
 20
2468.62079733329
 30
0.0
 11
1532.536075191249
 21
2520.593145750501
 31
0.0
  0
LINE
  5
4C
330
2
100
AcDbEntity
  8
HALFEN
100
AcDbLine
 10
1503.898250553194
 20
2445.286273554133
 30
0.0
 11
1555.870598970406
 21
2497.258621971345
 31
0.0
  0
LINE
  5
4D
330
2
100
AcDbEntity
  8
HALFEN
100
AcDbLine
 10
1474.906872524546
 20
2474.277651582782
 30
0.0
 11
1526.879220941757
 21
2526.249999999993
 31
0.0
  0
LINE
  5
4E
330
2
100
AcDbEntity
  8
HALFEN
100
AcDbLine
 10
1509.555104802687
 20
2439.629419304641
 30
0.0
 11
1561.527453219898
 21
2491.601767721852
 31
0.0
  0
LINE
  5
4F
330
2
100
AcDbEntity
  8
HALFEN
100
AcDbLine
 10
1532.536075191249
 20
2520.593145750501
 30
0.0
 11
1526.879220941757
 21
2526.249999999993
 31
0.0
  0
LINE
  5
50
330
2
100
AcDbEntity
  8
HALFEN
100
AcDbLine
 10
1462.250000000002
 20
2407.088241940988
 30
0.0
 11
1513.202267111872
 21
2407.088241940988
 31
0.0
  0
LINE
  5
51
330
2
100
AcDbEntity
  8
HALFEN
100
AcDbLine
 10
1462.250000000002
 20
2407.088241940988
 30
0.0
 11
1462.250000000002
 21
1657.088241940987
 31
0.0
  0
LINE
  5
52
330
2
100
AcDbEntity
  8
HALFEN
100
AcDbLine
 10
1513.115005079685
 20
2407.088241940988
 30
0.0
 11
1513.115005079685
 21
1657.088241940987
 31
0.0
  0
LINE
  5
53
330
2
100
AcDbEntity
  8
HALFEN
100
AcDbLine
 10
1513.202267111872
 20
2407.088241940988
 30
0.0
 11
1513.202267111872
 21
1657.088241940987
 31
0.0
  0
LINE
  5
54
330
2
100
AcDbEntity
  8
HALFEN
100
AcDbLine
 10
1462.250000000002
 20
1657.088241940987
 30
0.0
 11
1513.202267111872
 21
1657.088241940987
 31
0.0
  0
LINE
  5
55
330
2
100
AcDbEntity
  8
HALFEN
100
AcDbLine
 10
1139.555104802687
 20
2439.629419304641
 30
0.0
 11
1191.527453219898
 21
2491.601767721852
 31
0.0
  0
LINE
  5
56
330
2
100
AcDbEntity
  8
HALFEN
100
AcDbLine
 10
1133.898250553194
 20
2445.286273554133
 30
0.0
 11
1185.870598970406
 21
2497.258621971345
 31
0.0
  0
LINE
  5
57
330
2
100
AcDbEntity
  8
HALFEN
100
AcDbLine
 10
1110.563726774038
 20
2468.62079733329
 30
0.0
 11
1162.536075191249
 21
2520.593145750501
 31
0.0
  0
LINE
  5
58
330
2
100
AcDbEntity
  8
HALFEN
100
AcDbLine
 10
1104.906872524546
 20
2474.277651582782
 30
0.0
 11
1156.879220941757
 21
2526.249999999993
 31
0.0
  0
LINE
  5
59
330
2
100
AcDbEntity
  8
HALFEN
100
AcDbLine
 10
1143.115005079685
 20
2278.088241940988
 30
0.0
 11
1188.699026095152
 21
2278.088241940988
 31
0.0
  0
LINE
  5
5A
330
2
100
AcDbEntity
  8
HALFEN
100
AcDbLine
 10
1143.115005079685
 20
2286.088241940987
 30
0.0
 11
1188.699026095152
 21
2286.088241940987
 31
0.0
  0
TEXT
  5
5B
330
2
100
AcDbEntity
  8
HALFEN
100
AcDbText
 10
1147.250000000002
 20
2548.749999999993
 30
0.0
 40
5.0
  1
0027.010-00001
  7
ARIAL50
100
AcDbText
  0
TEXT
  5
5C
330
2
100
AcDbEntity
  8
HALFEN
100
AcDbText
 10
1147.250000000002
 20
2558.749999999993
 30
0.0
 40
5.0
  1
HKW 50/ 5 - fv - 500/ 2
  7
ARIAL50
100
AcDbText
  0
LINE
  5
5D
330
2
100
AcDbEntity
  8
HALFEN
100
AcDbLine
 10
1092.250000000002
 20
2546.249999999993
 30
0.0
 11
1242.250000000002
 21
2546.249999999993
 31
0.0
  0
LINE
  5
5E
330
2
100
AcDbEntity
  8
HALFEN
100
AcDbLine
 10
1092.250000000002
 20
2556.249999999993
 30
0.0
 11
1242.250000000002
 21
2556.249999999993
 31
0.0
  0
LINE
  5
5F
330
2
100
AcDbEntity
  8
HALFEN
100
AcDbLine
 10
1092.250000000002
 20
2566.249999999993
 30
0.0
 11
1242.250000000002
 21
2566.249999999993
 31
0.0
  0
LINE
  5
60
330
2
100
AcDbEntity
  8
HALFEN
100
AcDbLine
 10
1143.202267111871
 20
2407.088241940988
 30
0.0
 11
1143.202267111871
 21
1907.088241940987
 31
0.0
  0
LINE
  5
61
330
2
100
AcDbEntity
  8
HALFEN
100
AcDbLine
 10
1143.115005079685
 20
2407.088241940988
 30
0.0
 11
1143.115005079685
 21
1907.088241940987
 31
0.0
  0
LINE
  5
62
330
2
100
AcDbEntity
  8
HALFEN
100
AcDbLine
 10
1092.250000000002
 20
2407.088241940988
 30
0.0
 11
1092.250000000002
 21
1907.088241940987
 31
0.0
  0
LINE
  5
63
330
2
100
AcDbEntity
  8
HALFEN
100
AcDbLine
 10
1092.250000000002
 20
1907.088241940987
 30
0.0
 11
1143.202267111871
 21
1907.088241940987
 31
0.0
  0
LINE
  5
64
330
2
100
AcDbEntity
  8
HALFEN
100
AcDbLine
 10
1092.250000000002
 20
2477.953247020671
 30
0.0
 11
1097.249238475784
 21
2478.040509052858
 31
0.0
  0
LINE
  5
65
330
2
100
AcDbEntity
  8
HALFEN
100
AcDbLine
 10
1092.937230798977
 20
2438.581820915874
 30
0.0
 11
1092.250000000002
 21
2477.953247020671
 31
0.0
  0
ARC
  5
66
330
2
100
AcDbEntity
  8
HALFEN
100
AcDbCircle
 10
1122.230988663617
 20
2456.953535443711
 30
0.0
 40
24.5
100
AcDbArc
 50
135.0
 51
315.0
  0
ARC
  5
67
330
2
100
AcDbEntity
  8
HALFEN
100
AcDbCircle
 10
1103.935555445698
 20
2438.773797386684
 30
0.0
 40
11.0
100
AcDbArc
 50
180.9999999999997
 51
269.0000000000001
  0
LINE
  5
68
330
2
100
AcDbEntity
  8
HALFEN
100
AcDbLine
 10
1092.250000000002
 20
2407.088241940988
 30
0.0
 11
1143.202267111871
 21
2407.088241940988
 31
0.0
  0
ARC
  5
69
330
2
100
AcDbEntity
  8
HALFEN
100
AcDbCircle
 10
1122.230988663617
 20
2456.953535443711
 30
0.0
 40
16.5
100
AcDbArc
 50
135.0
 51
315.0
  0
LINE
  5
6A
330
2
100
AcDbEntity
  8
HALFEN
100
AcDbLine
 10
1143.202267111871
 20
2432.08748041677
 30
0.0
 11
1102.865299311344
 21
2432.791564808735
 31
0.0
  0
LINE
  5
6B
330
2
100
AcDbEntity
  8
HALFEN
100
AcDbLine
 10
1143.115005079685
 20
2427.088241940988
 30
0.0
 11
1103.743578974888
 21
2427.775472739964
 31
0.0
  0
LINE
  5
6C
330
2
100
AcDbEntity
  8
HALFEN
100
AcDbLine
 10
1097.953322867748
 20
2437.703541252331
 30
0.0
 11
1097.249238475784
 21
2478.040509052858
 31
0.0
  0
ARC
  5
6D
330
2
100
AcDbEntity
  8
HALFEN
100
AcDbCircle
 10
1102.952561343531
 20
2437.790803284517
 30
0.0
 40
5.0
100
AcDbArc
 50
180.9999999999997
 51
269.0000000000001
  0
LINE
  5
6E
330
2
100
AcDbEntity
  8
HALFEN
100
AcDbLine
 10
1143.202267111871
 20
2432.08748041677
 30
0.0
 11
1143.115005079685
 21
2427.088241940988
 31
0.0
  0
TEXT
  5
6F
330
2
100
AcDbEntity
  8
HALFEN
100
AcDbText
 10
1092.250000000002
 20
2568.749999999993
 30
0.0
 40
5.0
  1
fv
  7
ARIAL50
100
AcDbText
  0
LINE
  5
70
330
2
100
AcDbEntity
  8
HALFEN
100
AcDbLine
 10
1092.250000000002
 20
2546.249999999993
 30
0.0
 11
1092.250000000002
 21
2566.249999999993
 31
0.0
  0
TEXT
  5
71
330
2
100
AcDbEntity
  8
HALFEN
100
AcDbText
 10
1097.250000000002
 20
2558.749999999993
 30
0.0
 40
5.0
  1
Benennung
  7
ARIAL50
100
AcDbText
  0
TEXT
  5
72
330
2
100
AcDbEntity
  8
HALFEN
100
AcDbText
 10
1097.250000000002
 20
2548.749999999993
 30
0.0
 40
5.0
  1
Id. Nr.
  7
ARIAL50
100
AcDbText
  0
LINE
  5
73
330
2
100
AcDbEntity
  8
HALFEN
100
AcDbLine
 10
1142.250000000002
 20
2546.249999999993
 30
0.0
 11
1142.250000000002
 21
2566.249999999993
 31
0.0
  0
TEXT
  5
74
330
2
100
AcDbEntity
  8
HALFEN
100
AcDbText
 10
1317.250000000002
 20
2558.749999999993
 30
0.0
 40
5.0
  1
HKW 50/ 5 - A2 - 500/ 2
  7
ARIAL50
100
AcDbText
  0
LINE
  5
75
330
2
100
AcDbEntity
  8
HALFEN
100
AcDbLine
 10
1262.250000000002
 20
2566.249999999993
 30
0.0
 11
1412.250000000002
 21
2566.249999999993
 31
0.0
  0
LINE
  5
76
330
2
100
AcDbEntity
  8
HALFEN
100
AcDbLine
 10
1262.250000000002
 20
2556.249999999993
 30
0.0
 11
1412.250000000002
 21
2556.249999999993
 31
0.0
  0
LINE
  5
77
330
2
100
AcDbEntity
  8
HALFEN
100
AcDbLine
 10
1262.250000000002
 20
2546.249999999993
 30
0.0
 11
1412.250000000002
 21
2546.249999999993
 31
0.0
  0
LINE
  5
78
330
2
100
AcDbEntity
  8
HALFEN
100
AcDbLine
 10
1191.527453219898
 20
2491.601767721852
 30
0.0
 11
1185.870598970406
 21
2497.258621971345
 31
0.0
  0
LINE
  5
79
330
2
100
AcDbEntity
  8
HALFEN
100
AcDbLine
 10
1162.536075191249
 20
2520.593145750501
 30
0.0
 11
1156.879220941757
 21
2526.249999999993
 31
0.0
  0
LINE
  5
7A
330
2
100
AcDbEntity
  8
HALFEN
100
AcDbLine
 10
1242.250000000002
 20
2546.249999999993
 30
0.0
 11
1242.250000000002
 21
2566.249999999993
 31
0.0
  0
TEXT
  5
7B
330
2
100
AcDbEntity
  8
HALFEN
100
AcDbText
 10
1267.250000000002
 20
2548.749999999993
 30
0.0
 40
5.0
  1
Id. Nr.
  7
ARIAL50
100
AcDbText
  0
TEXT
  5
7C
330
2
100
AcDbEntity
  8
HALFEN
100
AcDbText
 10
1267.250000000002
 20
2558.749999999993
 30
0.0
 40
5.0
  1
Benennung
  7
ARIAL50
100
AcDbText
  0
LINE
  5
7D
330
2
100
AcDbEntity
  8
HALFEN
100
AcDbLine
 10
1262.250000000002
 20
2546.249999999993
 30
0.0
 11
1262.250000000002
 21
2566.249999999993
 31
0.0
  0
TEXT
  5
7E
330
2
100
AcDbEntity
  8
HALFEN
100
AcDbText
 10
1262.250000000002
 20
2568.749999999993
 30
0.0
 40
5.0
  1
A2
  7
ARIAL50
100
AcDbText
  0
LINE
  5
7F
330
2
100
AcDbEntity
  8
HALFEN
100
AcDbLine
 10
1312.250000000002
 20
2546.249999999993
 30
0.0
 11
1312.250000000002
 21
2566.249999999993
 31
0.0
  0
TEXT
  5
80
330
2
100
AcDbEntity
  8
HALFEN
100
AcDbText
 10
1317.250000000002
 20
2548.749999999993
 30
0.0
 40
5.0
  1
0027.010-00006
  7
ARIAL50
100
AcDbText
  0
LINE
  5
81
330
2
100
AcDbEntity
  8
HALFEN
100
AcDbLine
 10
1412.250000000002
 20
2546.249999999993
 30
0.0
 11
1412.250000000002
 21
2566.249999999993
 31
0.0
  0
LINE
  5
82
330
2
100
AcDbEntity
  8
HALFEN
100
AcDbLine
 10
1832.250000000002
 20
2566.249999999993
 30
0.0
 11
1982.250000000002
 21
2566.249999999993
 31
0.0
  0
LINE
  5
83
330
2
100
AcDbEntity
  8
HALFEN
100
AcDbLine
 10
1832.250000000002
 20
2556.249999999993
 30
0.0
 11
1982.250000000002
 21
2556.249999999993
 31
0.0
  0
LINE
  5
84
330
2
100
AcDbEntity
  8
HALFEN
100
AcDbLine
 10
1832.250000000002
 20
2546.249999999993
 30
0.0
 11
1982.250000000002
 21
2546.249999999993
 31
0.0
  0
LINE
  5
85
330
2
100
AcDbEntity
  8
HALFEN
100
AcDbLine
 10
1832.250000000002
 20
2407.088241940988
 30
0.0
 11
1832.250000000002
 21
1407.088241940987
 31
0.0
  0
LINE
  5
86
330
2
100
AcDbEntity
  8
HALFEN
100
AcDbLine
 10
1883.115005079685
 20
2407.088241940988
 30
0.0
 11
1883.115005079685
 21
1407.088241940987
 31
0.0
  0
LINE
  5
87
330
2
100
AcDbEntity
  8
HALFEN
100
AcDbLine
 10
1883.202267111872
 20
2407.088241940988
 30
0.0
 11
1883.202267111872
 21
1407.088241940987
 31
0.0
  0
LINE
  5
88
330
2
100
AcDbEntity
  8
HALFEN
100
AcDbLine
 10
1832.250000000002
 20
1407.088241940987
 30
0.0
 11
1883.202267111872
 21
1407.088241940987
 31
0.0
  0
LINE
  5
89
330
2
100
AcDbEntity
  8
HALFEN
100
AcDbLine
 10
1931.527453219898
 20
2491.601767721852
 30
0.0
 11
1925.870598970406
 21
2497.258621971345
 31
0.0
  0
LINE
  5
8A
330
2
100
AcDbEntity
  8
HALFEN
100
AcDbLine
 10
1844.906872524546
 20
2474.277651582782
 30
0.0
 11
1896.879220941757
 21
2526.249999999993
 31
0.0
  0
LINE
  5
8B
330
2
100
AcDbEntity
  8
HALFEN
100
AcDbLine
 10
1850.563726774038
 20
2468.62079733329
 30
0.0
 11
1902.536075191249
 21
2520.593145750501
 31
0.0
  0
LINE
  5
8C
330
2
100
AcDbEntity
  8
HALFEN
100
AcDbLine
 10
1873.898250553194
 20
2445.286273554133
 30
0.0
 11
1925.870598970406
 21
2497.258621971345
 31
0.0
  0
LINE
  5
8D
330
2
100
AcDbEntity
  8
HALFEN
100
AcDbLine
 10
1883.115005079685
 20
2427.088241940988
 30
0.0
 11
1843.743578974888
 21
2427.775472739964
 31
0.0
  0
LINE
  5
8E
330
2
100
AcDbEntity
  8
HALFEN
100
AcDbLine
 10
1883.202267111872
 20
2432.08748041677
 30
0.0
 11
1842.865299311344
 21
2432.791564808735
 31
0.0
  0
ARC
  5
8F
330
2
100
AcDbEntity
  8
HALFEN
100
AcDbCircle
 10
1862.230988663617
 20
2456.953535443711
 30
0.0
 40
16.5
100
AcDbArc
 50
135.0
 51
315.0
  0
LINE
  5
90
330
2
100
AcDbEntity
  8
HALFEN
100
AcDbLine
 10
1832.250000000002
 20
2407.088241940988
 30
0.0
 11
1883.202267111872
 21
2407.088241940988
 31
0.0
  0
ARC
  5
91
330
2
100
AcDbEntity
  8
HALFEN
100
AcDbCircle
 10
1862.230988663617
 20
2456.953535443711
 30
0.0
 40
24.5
100
AcDbArc
 50
135.0
 51
315.0
  0
LINE
  5
92
330
2
100
AcDbEntity
  8
HALFEN
100
AcDbLine
 10
1837.953322867749
 20
2437.703541252331
 30
0.0
 11
1837.249238475784
 21
2478.040509052858
 31
0.0
  0
LINE
  5
93
330
2
100
AcDbEntity
  8
HALFEN
100
AcDbLine
 10
1832.937230798977
 20
2438.581820915874
 30
0.0
 11
1832.250000000002
 21
2477.953247020671
 31
0.0
  0
ARC
  5
94
330
2
100
AcDbEntity
  8
HALFEN
100
AcDbCircle
 10
1843.935555445698
 20
2438.773797386684
 30
0.0
 40
11.0
100
AcDbArc
 50
180.9999999999997
 51
269.0000000000001
  0
ARC
  5
95
330
2
100
AcDbEntity
  8
HALFEN
100
AcDbCircle
 10
1842.952561343531
 20
2437.790803284517
 30
0.0
 40
5.0
100
AcDbArc
 50
180.9999999999997
 51
269.0000000000001
  0
LINE
  5
96
330
2
100
AcDbEntity
  8
HALFEN
100
AcDbLine
 10
1832.250000000002
 20
2477.953247020671
 30
0.0
 11
1837.249238475784
 21
2478.040509052858
 31
0.0
  0
LINE
  5
97
330
2
100
AcDbEntity
  8
HALFEN
100
AcDbLine
 10
1879.555104802687
 20
2439.629419304641
 30
0.0
 11
1931.527453219898
 21
2491.601767721852
 31
0.0
  0
LINE
  5
98
330
2
100
AcDbEntity
  8
HALFEN
100
AcDbLine
 10
1883.202267111872
 20
2432.08748041677
 30
0.0
 11
1883.115005079685
 21
2427.088241940988
 31
0.0
  0
TEXT
  5
99
330
2
100
AcDbEntity
  8
HALFEN
100
AcDbText
 10
1837.250000000002
 20
2548.749999999993
 30
0.0
 40
5.0
  1
Id. Nr.
  7
ARIAL50
100
AcDbText
  0
TEXT
  5
9A
330
2
100
AcDbEntity
  8
HALFEN
100
AcDbText
 10
1837.250000000002
 20
2558.749999999993
 30
0.0
 40
5.0
  1
Benennung
  7
ARIAL50
100
AcDbText
  0
TEXT
  5
9B
330
2
100
AcDbEntity
  8
HALFEN
100
AcDbText
 10
1832.250000000002
 20
2568.749999999993
 30
0.0
 40
5.0
  1
fv
  7
ARIAL50
100
AcDbText
  0
LINE
  5
9C
330
2
100
AcDbEntity
  8
HALFEN
100
AcDbLine
 10
1832.250000000002
 20
2546.249999999993
 30
0.0
 11
1832.250000000002
 21
2566.249999999993
 31
0.0
  0
TEXT
  5
9D
330
2
100
AcDbEntity
  8
HALFEN
100
AcDbText
 10
1887.250000000002
 20
2558.749999999993
 30
0.0
 40
5.0
  1
HKW 50/ 5 - fv - 1000/ 2
  7
ARIAL50
100
AcDbText
  0
TEXT
  5
9E
330
2
100
AcDbEntity
  8
HALFEN
100
AcDbText
 10
1887.250000000002
 20
2548.749999999993
 30
0.0
 40
5.0
  1
0027.010-00003
  7
ARIAL50
100
AcDbText
  0
LINE
  5
9F
330
2
100
AcDbEntity
  8
HALFEN
100
AcDbLine
 10
1902.536075191249
 20
2520.593145750501
 30
0.0
 11
1896.879220941757
 21
2526.249999999993
 31
0.0
  0
LINE
  5
A0
330
2
100
AcDbEntity
  8
HALFEN
100
AcDbLine
 10
1882.250000000002
 20
2546.249999999993
 30
0.0
 11
1882.250000000002
 21
2566.249999999993
 31
0.0
  0
TEXT
  5
A1
330
2
100
AcDbEntity
  8
HALFEN
100
AcDbText
 10
2057.250000000002
 20
2548.749999999993
 30
0.0
 40
5.0
  1
0027.010-00008
  7
ARIAL50
100
AcDbText
  0
LINE
  5
A2
330
2
100
AcDbEntity
  8
HALFEN
100
AcDbLine
 10
2002.250000000002
 20
2546.249999999993
 30
0.0
 11
2152.250000000002
 21
2546.249999999993
 31
0.0
  0
LINE
  5
A3
330
2
100
AcDbEntity
  8
HALFEN
100
AcDbLine
 10
2002.250000000002
 20
2556.249999999993
 30
0.0
 11
2152.250000000002
 21
2556.249999999993
 31
0.0
  0
LINE
  5
A4
330
2
100
AcDbEntity
  8
HALFEN
100
AcDbLine
 10
2002.250000000002
 20
2566.249999999993
 30
0.0
 11
2152.250000000002
 21
2566.249999999993
 31
0.0
  0
TEXT
  5
A5
330
2
100
AcDbEntity
  8
HALFEN
100
AcDbText
 10
2057.250000000002
 20
2558.749999999993
 30
0.0
 40
5.0
  1
HKW 50/ 5 - A2 - 1000/ 2
  7
ARIAL50
100
AcDbText
  0
TEXT
  5
A6
330
2
100
AcDbEntity
  8
HALFEN
100
AcDbText
 10
2007.250000000002
 20
2558.749999999993
 30
0.0
 40
5.0
  1
Benennung
  7
ARIAL50
100
AcDbText
  0
TEXT
  5
A7
330
2
100
AcDbEntity
  8
HALFEN
100
AcDbText
 10
2007.250000000002
 20
2548.749999999993
 30
0.0
 40
5.0
  1
Id. Nr.
  7
ARIAL50
100
AcDbText
  0
LINE
  5
A8
330
2
100
AcDbEntity
  8
HALFEN
100
AcDbLine
 10
1982.250000000002
 20
2546.249999999993
 30
0.0
 11
1982.250000000002
 21
2566.249999999993
 31
0.0
  0
TEXT
  5
A9
330
2
100
AcDbEntity
  8
HALFEN
100
AcDbText
 10
2002.250000000002
 20
2568.749999999993
 30
0.0
 40
5.0
  1
A2
  7
ARIAL50
100
AcDbText
  0
LINE
  5
AA
330
2
100
AcDbEntity
  8
HALFEN
100
AcDbLine
 10
2002.250000000002
 20
2546.249999999993
 30
0.0
 11
2002.250000000002
 21
2566.249999999993
 31
0.0
  0
LINE
  5
AB
330
2
100
AcDbEntity
  8
HALFEN
100
AcDbLine
 10
2052.250000000002
 20
2546.249999999993
 30
0.0
 11
2052.250000000002
 21
2566.249999999993
 31
0.0
  0
LINE
  5
AC
330
2
100
AcDbEntity
  8
HALFEN
100
AcDbLine
 10
2152.250000000002
 20
2546.249999999993
 30
0.0
 11
2152.250000000002
 21
2566.249999999993
 31
0.0
  0
LINE
  5
AD
330
2
100
AcDbEntity
  8
HALFEN
100
AcDbLine
 10
2202.250000000002
 20
2566.249999999993
 30
0.0
 11
2352.250000000002
 21
2566.249999999993
 31
0.0
  0
LINE
  5
AE
330
2
100
AcDbEntity
  8
HALFEN
100
AcDbLine
 10
2202.250000000002
 20
2556.249999999993
 30
0.0
 11
2352.250000000002
 21
2556.249999999993
 31
0.0
  0
LINE
  5
AF
330
2
100
AcDbEntity
  8
HALFEN
100
AcDbLine
 10
2202.250000000002
 20
2546.249999999993
 30
0.0
 11
2352.250000000002
 21
2546.249999999993
 31
0.0
  0
LINE
  5
B0
330
2
100
AcDbEntity
  8
HALFEN
100
AcDbLine
 10
2202.250000000002
 20
2407.088241940988
 30
0.0
 11
2202.250000000002
 21
907.0882419409873
 31
0.0
  0
LINE
  5
B1
330
2
100
AcDbEntity
  8
HALFEN
100
AcDbLine
 10
2253.115005079685
 20
2407.088241940988
 30
0.0
 11
2253.115005079685
 21
907.0882419409873
 31
0.0
  0
LINE
  5
B2
330
2
100
AcDbEntity
  8
HALFEN
100
AcDbLine
 10
2253.202267111872
 20
2407.088241940988
 30
0.0
 11
2253.202267111872
 21
907.0882419409873
 31
0.0
  0
LINE
  5
B3
330
2
100
AcDbEntity
  8
HALFEN
100
AcDbLine
 10
2202.250000000002
 20
907.0882419409873
 30
0.0
 11
2253.202267111872
 21
907.0882419409873
 31
0.0
  0
LINE
  5
B4
330
2
100
AcDbEntity
  8
HALFEN
100
AcDbLine
 10
2301.527453219898
 20
2491.601767721852
 30
0.0
 11
2295.870598970406
 21
2497.258621971345
 31
0.0
  0
LINE
  5
B5
330
2
100
AcDbEntity
  8
HALFEN
100
AcDbLine
 10
2214.906872524546
 20
2474.277651582782
 30
0.0
 11
2266.879220941757
 21
2526.249999999993
 31
0.0
  0
LINE
  5
B6
330
2
100
AcDbEntity
  8
HALFEN
100
AcDbLine
 10
2220.563726774039
 20
2468.62079733329
 30
0.0
 11
2272.536075191249
 21
2520.593145750501
 31
0.0
  0
LINE
  5
B7
330
2
100
AcDbEntity
  8
HALFEN
100
AcDbLine
 10
2243.898250553195
 20
2445.286273554133
 30
0.0
 11
2295.870598970406
 21
2497.258621971345
 31
0.0
  0
LINE
  5
B8
330
2
100
AcDbEntity
  8
HALFEN
100
AcDbLine
 10
2253.115005079685
 20
2427.088241940988
 30
0.0
 11
2213.743578974888
 21
2427.775472739964
 31
0.0
  0
LINE
  5
B9
330
2
100
AcDbEntity
  8
HALFEN
100
AcDbLine
 10
2253.202267111872
 20
2432.08748041677
 30
0.0
 11
2212.865299311344
 21
2432.791564808735
 31
0.0
  0
ARC
  5
BA
330
2
100
AcDbEntity
  8
HALFEN
100
AcDbCircle
 10
2232.230988663617
 20
2456.953535443711
 30
0.0
 40
16.5
100
AcDbArc
 50
135.0
 51
315.0
  0
LINE
  5
BB
330
2
100
AcDbEntity
  8
HALFEN
100
AcDbLine
 10
2202.250000000002
 20
2407.088241940988
 30
0.0
 11
2253.202267111872
 21
2407.088241940988
 31
0.0
  0
ARC
  5
BC
330
2
100
AcDbEntity
  8
HALFEN
100
AcDbCircle
 10
2232.230988663617
 20
2456.953535443711
 30
0.0
 40
24.5
100
AcDbArc
 50
135.0
 51
315.0
  0
LINE
  5
BD
330
2
100
AcDbEntity
  8
HALFEN
100
AcDbLine
 10
2207.953322867749
 20
2437.703541252331
 30
0.0
 11
2207.249238475784
 21
2478.040509052858
 31
0.0
  0
LINE
  5
BE
330
2
100
AcDbEntity
  8
HALFEN
100
AcDbLine
 10
2202.937230798978
 20
2438.581820915874
 30
0.0
 11
2202.250000000002
 21
2477.953247020671
 31
0.0
  0
ARC
  5
BF
330
2
100
AcDbEntity
  8
HALFEN
100
AcDbCircle
 10
2213.935555445698
 20
2438.773797386684
 30
0.0
 40
11.0
100
AcDbArc
 50
180.9999999999997
 51
269.0000000000001
  0
ARC
  5
C0
330
2
100
AcDbEntity
  8
HALFEN
100
AcDbCircle
 10
2212.952561343531
 20
2437.790803284517
 30
0.0
 40
5.0
100
AcDbArc
 50
180.9999999999997
 51
269.0000000000001
  0
LINE
  5
C1
330
2
100
AcDbEntity
  8
HALFEN
100
AcDbLine
 10
2202.250000000002
 20
2477.953247020671
 30
0.0
 11
2207.249238475784
 21
2478.040509052858
 31
0.0
  0
LINE
  5
C2
330
2
100
AcDbEntity
  8
HALFEN
100
AcDbLine
 10
2249.555104802687
 20
2439.629419304641
 30
0.0
 11
2301.527453219898
 21
2491.601767721852
 31
0.0
  0
LINE
  5
C3
330
2
100
AcDbEntity
  8
HALFEN
100
AcDbLine
 10
2253.202267111872
 20
2432.08748041677
 30
0.0
 11
2253.115005079685
 21
2427.088241940988
 31
0.0
  0
TEXT
  5
C4
330
2
100
AcDbEntity
  8
HALFEN
100
AcDbText
 10
2207.250000000002
 20
2548.749999999993
 30
0.0
 40
5.0
  1
Id. Nr.
  7
ARIAL50
100
AcDbText
  0
TEXT
  5
C5
330
2
100
AcDbEntity
  8
HALFEN
100
AcDbText
 10
2207.250000000002
 20
2558.749999999993
 30
0.0
 40
5.0
  1
Benennung
  7
ARIAL50
100
AcDbText
  0
TEXT
  5
C6
330
2
100
AcDbEntity
  8
HALFEN
100
AcDbText
 10
2202.250000000002
 20
2568.749999999993
 30
0.0
 40
5.0
  1
fv
  7
ARIAL50
100
AcDbText
  0
LINE
  5
C7
330
2
100
AcDbEntity
  8
HALFEN
100
AcDbLine
 10
2202.250000000002
 20
2546.249999999993
 30
0.0
 11
2202.250000000002
 21
2566.249999999993
 31
0.0
  0
TEXT
  5
C8
330
2
100
AcDbEntity
  8
HALFEN
100
AcDbText
 10
2257.250000000002
 20
2558.749999999993
 30
0.0
 40
5.0
  1
HKW 50/ 5 - fv - 1500/ 3
  7
ARIAL50
100
AcDbText
  0
TEXT
  5
C9
330
2
100
AcDbEntity
  8
HALFEN
100
AcDbText
 10
2257.250000000002
 20
2548.749999999993
 30
0.0
 40
5.0
  1
0027.010-00004
  7
ARIAL50
100
AcDbText
  0
LINE
  5
CA
330
2
100
AcDbEntity
  8
HALFEN
100
AcDbLine
 10
2272.536075191249
 20
2520.593145750501
 30
0.0
 11
2266.879220941757
 21
2526.249999999993
 31
0.0
  0
LINE
  5
CB
330
2
100
AcDbEntity
  8
HALFEN
100
AcDbLine
 10
2252.250000000002
 20
2546.249999999993
 30
0.0
 11
2252.250000000002
 21
2566.249999999993
 31
0.0
  0
TEXT
  5
CC
330
2
100
AcDbEntity
  8
HALFEN
100
AcDbText
 10
2427.250000000002
 20
2548.749999999993
 30
0.0
 40
5.0
  1
0027.010-00009
  7
ARIAL50
100
AcDbText
  0
LINE
  5
CD
330
2
100
AcDbEntity
  8
HALFEN
100
AcDbLine
 10
2372.250000000002
 20
2546.249999999993
 30
0.0
 11
2522.250000000002
 21
2546.249999999993
 31
0.0
  0
LINE
  5
CE
330
2
100
AcDbEntity
  8
HALFEN
100
AcDbLine
 10
2372.250000000002
 20
2556.249999999993
 30
0.0
 11
2522.250000000002
 21
2556.249999999993
 31
0.0
  0
LINE
  5
CF
330
2
100
AcDbEntity
  8
HALFEN
100
AcDbLine
 10
2372.250000000002
 20
2566.249999999993
 30
0.0
 11
2522.250000000002
 21
2566.249999999993
 31
0.0
  0
TEXT
  5
D0
330
2
100
AcDbEntity
  8
HALFEN
100
AcDbText
 10
2427.250000000002
 20
2558.749999999993
 30
0.0
 40
5.0
  1
HKW 50/ 5 - A2 - 1500/ 3
  7
ARIAL50
100
AcDbText
  0
TEXT
  5
D1
330
2
100
AcDbEntity
  8
HALFEN
100
AcDbText
 10
2377.250000000002
 20
2558.749999999993
 30
0.0
 40
5.0
  1
Benennung
  7
ARIAL50
100
AcDbText
  0
TEXT
  5
D2
330
2
100
AcDbEntity
  8
HALFEN
100
AcDbText
 10
2377.250000000002
 20
2548.749999999993
 30
0.0
 40
5.0
  1
Id. Nr.
  7
ARIAL50
100
AcDbText
  0
LINE
  5
D3
330
2
100
AcDbEntity
  8
HALFEN
100
AcDbLine
 10
2352.250000000002
 20
2546.249999999993
 30
0.0
 11
2352.250000000002
 21
2566.249999999993
 31
0.0
  0
TEXT
  5
D4
330
2
100
AcDbEntity
  8
HALFEN
100
AcDbText
 10
2372.250000000002
 20
2568.749999999993
 30
0.0
 40
5.0
  1
A2
  7
ARIAL50
100
AcDbText
  0
LINE
  5
D5
330
2
100
AcDbEntity
  8
HALFEN
100
AcDbLine
 10
2372.250000000002
 20
2546.249999999993
 30
0.0
 11
2372.250000000002
 21
2566.249999999993
 31
0.0
  0
LINE
  5
D6
330
2
100
AcDbEntity
  8
HALFEN
100
AcDbLine
 10
2422.250000000002
 20
2546.249999999993
 30
0.0
 11
2422.250000000002
 21
2566.249999999993
 31
0.0
  0
LINE
  5
D7
330
2
100
AcDbEntity
  8
HALFEN
100
AcDbLine
 10
2522.250000000002
 20
2546.249999999993
 30
0.0
 11
2522.250000000002
 21
2566.249999999993
 31
0.0
  0
LINE
  5
D8
330
2
100
AcDbEntity
  8
HALFEN
100
AcDbLine
 10
2572.250000000002
 20
2566.249999999993
 30
0.0
 11
2722.250000000002
 21
2566.249999999993
 31
0.0
  0
LINE
  5
D9
330
2
100
AcDbEntity
  8
HALFEN
100
AcDbLine
 10
2572.250000000002
 20
2556.249999999993
 30
0.0
 11
2722.250000000002
 21
2556.249999999993
 31
0.0
  0
LINE
  5
DA
330
2
100
AcDbEntity
  8
HALFEN
100
AcDbLine
 10
2572.250000000002
 20
2546.249999999993
 30
0.0
 11
2722.250000000002
 21
2546.249999999993
 31
0.0
  0
LINE
  5
DB
330
2
100
AcDbEntity
  8
HALFEN
100
AcDbLine
 10
2572.250000000002
 20
2407.088241940988
 30
0.0
 11
2572.250000000002
 21
407.0882419409872
 31
0.0
  0
LINE
  5
DC
330
2
100
AcDbEntity
  8
HALFEN
100
AcDbLine
 10
2623.115005079685
 20
2407.088241940988
 30
0.0
 11
2623.115005079685
 21
407.0882419409872
 31
0.0
  0
LINE
  5
DD
330
2
100
AcDbEntity
  8
HALFEN
100
AcDbLine
 10
2623.202267111872
 20
2407.088241940988
 30
0.0
 11
2623.202267111872
 21
407.0882419409872
 31
0.0
  0
LINE
  5
DE
330
2
100
AcDbEntity
  8
HALFEN
100
AcDbLine
 10
2572.250000000002
 20
407.0882419409872
 30
0.0
 11
2623.202267111872
 21
407.0882419409872
 31
0.0
  0
LINE
  5
DF
330
2
100
AcDbEntity
  8
HALFEN
100
AcDbLine
 10
2671.527453219898
 20
2491.601767721852
 30
0.0
 11
2665.870598970406
 21
2497.258621971345
 31
0.0
  0
LINE
  5
E0
330
2
100
AcDbEntity
  8
HALFEN
100
AcDbLine
 10
2584.906872524546
 20
2474.277651582782
 30
0.0
 11
2636.879220941757
 21
2526.249999999993
 31
0.0
  0
LINE
  5
E1
330
2
100
AcDbEntity
  8
HALFEN
100
AcDbLine
 10
2590.563726774039
 20
2468.62079733329
 30
0.0
 11
2642.53607519125
 21
2520.593145750501
 31
0.0
  0
LINE
  5
E2
330
2
100
AcDbEntity
  8
HALFEN
100
AcDbLine
 10
2613.898250553195
 20
2445.286273554133
 30
0.0
 11
2665.870598970406
 21
2497.258621971345
 31
0.0
  0
LINE
  5
E3
330
2
100
AcDbEntity
  8
HALFEN
100
AcDbLine
 10
2623.115005079685
 20
2427.088241940988
 30
0.0
 11
2583.743578974888
 21
2427.775472739964
 31
0.0
  0
LINE
  5
E4
330
2
100
AcDbEntity
  8
HALFEN
100
AcDbLine
 10
2623.202267111872
 20
2432.08748041677
 30
0.0
 11
2582.865299311345
 21
2432.791564808735
 31
0.0
  0
ARC
  5
E5
330
2
100
AcDbEntity
  8
HALFEN
100
AcDbCircle
 10
2602.230988663617
 20
2456.953535443711
 30
0.0
 40
16.5
100
AcDbArc
 50
135.0
 51
315.0
  0
LINE
  5
E6
330
2
100
AcDbEntity
  8
HALFEN
100
AcDbLine
 10
2572.250000000002
 20
2407.088241940988
 30
0.0
 11
2623.202267111872
 21
2407.088241940988
 31
0.0
  0
ARC
  5
E7
330
2
100
AcDbEntity
  8
HALFEN
100
AcDbCircle
 10
2602.230988663617
 20
2456.953535443711
 30
0.0
 40
24.5
100
AcDbArc
 50
135.0
 51
315.0
  0
LINE
  5
E8
330
2
100
AcDbEntity
  8
HALFEN
100
AcDbLine
 10
2577.953322867749
 20
2437.703541252331
 30
0.0
 11
2577.249238475784
 21
2478.040509052858
 31
0.0
  0
LINE
  5
E9
330
2
100
AcDbEntity
  8
HALFEN
100
AcDbLine
 10
2572.937230798978
 20
2438.581820915874
 30
0.0
 11
2572.250000000002
 21
2477.953247020671
 31
0.0
  0
ARC
  5
EA
330
2
100
AcDbEntity
  8
HALFEN
100
AcDbCircle
 10
2583.935555445698
 20
2438.773797386684
 30
0.0
 40
11.0
100
AcDbArc
 50
180.9999999999997
 51
269.0000000000001
  0
ARC
  5
EB
330
2
100
AcDbEntity
  8
HALFEN
100
AcDbCircle
 10
2582.952561343531
 20
2437.790803284517
 30
0.0
 40
5.0
100
AcDbArc
 50
180.9999999999997
 51
269.0000000000001
  0
LINE
  5
EC
330
2
100
AcDbEntity
  8
HALFEN
100
AcDbLine
 10
2572.250000000002
 20
2477.953247020671
 30
0.0
 11
2577.249238475784
 21
2478.040509052858
 31
0.0
  0
LINE
  5
ED
330
2
100
AcDbEntity
  8
HALFEN
100
AcDbLine
 10
2619.555104802687
 20
2439.629419304641
 30
0.0
 11
2671.527453219898
 21
2491.601767721852
 31
0.0
  0
LINE
  5
EE
330
2
100
AcDbEntity
  8
HALFEN
100
AcDbLine
 10
2623.202267111872
 20
2432.08748041677
 30
0.0
 11
2623.115005079685
 21
2427.088241940988
 31
0.0
  0
TEXT
  5
EF
330
2
100
AcDbEntity
  8
HALFEN
100
AcDbText
 10
2577.250000000002
 20
2548.749999999993
 30
0.0
 40
5.0
  1
Id. Nr.
  7
ARIAL50
100
AcDbText
  0
TEXT
  5
F0
330
2
100
AcDbEntity
  8
HALFEN
100
AcDbText
 10
2577.250000000002
 20
2558.749999999993
 30
0.0
 40
5.0
  1
Benennung
  7
ARIAL50
100
AcDbText
  0
TEXT
  5
F1
330
2
100
AcDbEntity
  8
HALFEN
100
AcDbText
 10
2572.250000000002
 20
2568.749999999993
 30
0.0
 40
5.0
  1
fv
  7
ARIAL50
100
AcDbText
  0
LINE
  5
F2
330
2
100
AcDbEntity
  8
HALFEN
100
AcDbLine
 10
2572.250000000002
 20
2546.249999999993
 30
0.0
 11
2572.250000000002
 21
2566.249999999993
 31
0.0
  0
TEXT
  5
F3
330
2
100
AcDbEntity
  8
HALFEN
100
AcDbText
 10
2627.250000000002
 20
2558.749999999993
 30
0.0
 40
5.0
  1
HKW 50/ 5 - fv - 2000/ 4
  7
ARIAL50
100
AcDbText
  0
TEXT
  5
F4
330
2
100
AcDbEntity
  8
HALFEN
100
AcDbText
 10
2627.250000000002
 20
2548.749999999993
 30
0.0
 40
5.0
  1
0027.010-00005
  7
ARIAL50
100
AcDbText
  0
LINE
  5
F5
330
2
100
AcDbEntity
  8
HALFEN
100
AcDbLine
 10
2642.53607519125
 20
2520.593145750501
 30
0.0
 11
2636.879220941757
 21
2526.249999999993
 31
0.0
  0
LINE
  5
F6
330
2
100
AcDbEntity
  8
HALFEN
100
AcDbLine
 10
2622.250000000002
 20
2546.249999999993
 30
0.0
 11
2622.250000000002
 21
2566.249999999993
 31
0.0
  0
TEXT
  5
F7
330
2
100
AcDbEntity
  8
HALFEN
100
AcDbText
 10
2797.250000000002
 20
2548.749999999993
 30
0.0
 40
5.0
  1
0027.010-00010
  7
ARIAL50
100
AcDbText
  0
LINE
  5
F8
330
2
100
AcDbEntity
  8
HALFEN
100
AcDbLine
 10
2742.250000000002
 20
2546.249999999993
 30
0.0
 11
2892.250000000002
 21
2546.249999999993
 31
0.0
  0
LINE
  5
F9
330
2
100
AcDbEntity
  8
HALFEN
100
AcDbLine
 10
2742.250000000002
 20
2556.249999999993
 30
0.0
 11
2892.250000000002
 21
2556.249999999993
 31
0.0
  0
LINE
  5
FA
330
2
100
AcDbEntity
  8
HALFEN
100
AcDbLine
 10
2742.250000000002
 20
2566.249999999993
 30
0.0
 11
2892.250000000002
 21
2566.249999999993
 31
0.0
  0
TEXT
  5
FB
330
2
100
AcDbEntity
  8
HALFEN
100
AcDbText
 10
2797.250000000002
 20
2558.749999999993
 30
0.0
 40
5.0
  1
HKW 50/ 5 - A2 - 2000/ 4
  7
ARIAL50
100
AcDbText
  0
TEXT
  5
FC
330
2
100
AcDbEntity
  8
HALFEN
100
AcDbText
 10
2747.250000000002
 20
2558.749999999993
 30
0.0
 40
5.0
  1
Benennung
  7
ARIAL50
100
AcDbText
  0
TEXT
  5
FD
330
2
100
AcDbEntity
  8
HALFEN
100
AcDbText
 10
2747.250000000002
 20
2548.749999999993
 30
0.0
 40
5.0
  1
Id. Nr.
  7
ARIAL50
100
AcDbText
  0
LINE
  5
FE
330
2
100
AcDbEntity
  8
HALFEN
100
AcDbLine
 10
2722.250000000002
 20
2546.249999999993
 30
0.0
 11
2722.250000000002
 21
2566.249999999993
 31
0.0
  0
TEXT
  5
FF
330
2
100
AcDbEntity
  8
HALFEN
100
AcDbText
 10
2742.250000000002
 20
2568.749999999993
 30
0.0
 40
5.0
  1
A2
  7
ARIAL50
100
AcDbText
  0
LINE
  5
100
330
2
100
AcDbEntity
  8
HALFEN
100
AcDbLine
 10
2742.250000000002
 20
2546.249999999993
 30
0.0
 11
2742.250000000002
 21
2566.249999999993
 31
0.0
  0
LINE
  5
101
330
2
100
AcDbEntity
  8
HALFEN
100
AcDbLine
 10
2792.250000000002
 20
2546.249999999993
 30
0.0
 11
2792.250000000002
 21
2566.249999999993
 31
0.0
  0
LINE
  5
102
330
2
100
AcDbEntity
  8
HALFEN
100
AcDbLine
 10
2892.250000000002
 20
2546.249999999993
 30
0.0
 11
2892.250000000002
 21
2566.249999999993
 31
0.0
  0
ELLIPSE
  5
103
330
2
100
AcDbEntity
  8
HALFEN
100
AcDbEllipse
 10
1188.699026095152
 20
2282.088241940988
 30
0.0
 11
0.0
 21
4.0
 31
0.0
210
0.0
220
0.0
230
1.0
 40
0.7071067811864964
 41
3.141592653589793
 42
6.283185307179586
  0
LINE
  5
104
330
2
100
AcDbEntity
  8
HALFEN
100
AcDbLine
 10
1513.115005079685
 20
2286.088241940987
 30
0.0
 11
1558.699026095152
 21
2286.088241940987
 31
0.0
  0
LINE
  5
105
330
2
100
AcDbEntity
  8
HALFEN
100
AcDbLine
 10
1513.115005079685
 20
2278.088241940988
 30
0.0
 11
1558.699026095152
 21
2278.088241940988
 31
0.0
  0
ELLIPSE
  5
106
330
2
100
AcDbEntity
  8
HALFEN
100
AcDbEllipse
 10
1558.699026095152
 20
2282.088241940988
 30
0.0
 11
0.0
 21
4.0
 31
0.0
210
0.0
220
0.0
230
1.0
 40
0.7071067811864964
 41
3.141592653589793
 42
6.283185307179586
  0
ELLIPSE
  5
107
330
2
100
AcDbEntity
  8
HALFEN
100
AcDbEllipse
 10
1928.786288127338
 20
2157.088241940988
 30
0.0
 11
0.0
 21
4.0
 31
0.0
210
0.0
220
0.0
230
1.0
 40
0.7071067811864964
 41
3.141592653589793
 42
6.283185307179586
  0
LINE
  5
108
330
2
100
AcDbEntity
  8
HALFEN
100
AcDbLine
 10
1883.202267111872
 20
2153.088241940988
 30
0.0
 11
1928.786288127338
 21
2153.088241940988
 31
0.0
  0
LINE
  5
109
330
2
100
AcDbEntity
  8
HALFEN
100
AcDbLine
 10
1883.202267111872
 20
2161.088241940987
 30
0.0
 11
1928.786288127338
 21
2161.088241940987
 31
0.0
  0
LINE
  5
10A
330
2
100
AcDbEntity
  8
HALFEN
100
AcDbLine
 10
2253.202267111872
 20
2153.088241940988
 30
0.0
 11
2298.786288127339
 21
2153.088241940988
 31
0.0
  0
LINE
  5
10B
330
2
100
AcDbEntity
  8
HALFEN
100
AcDbLine
 10
2253.202267111872
 20
2161.088241940987
 30
0.0
 11
2298.786288127339
 21
2161.088241940987
 31
0.0
  0
ELLIPSE
  5
10C
330
2
100
AcDbEntity
  8
HALFEN
100
AcDbEllipse
 10
2298.786288127339
 20
2157.088241940988
 30
0.0
 11
0.0
 21
4.0
 31
0.0
210
0.0
220
0.0
230
1.0
 40
0.7071067811864964
 41
3.141592653589793
 42
6.283185307179586
  0
LINE
  5
10D
330
2
100
AcDbEntity
  8
HALFEN
100
AcDbLine
 10
2623.202267111872
 20
2153.088241940988
 30
0.0
 11
2668.786288127339
 21
2153.088241940988
 31
0.0
  0
LINE
  5
10E
330
2
100
AcDbEntity
  8
HALFEN
100
AcDbLine
 10
2623.202267111872
 20
2161.088241940987
 30
0.0
 11
2668.786288127339
 21
2161.088241940987
 31
0.0
  0
ELLIPSE
  5
10F
330
2
100
AcDbEntity
  8
HALFEN
100
AcDbEllipse
 10
2668.786288127339
 20
2157.088241940988
 30
0.0
 11
0.0
 21
4.0
 31
0.0
210
0.0
220
0.0
230
1.0
 40
0.7071067811864964
 41
3.141592653589793
 42
6.283185307179586
  0
LINE
  5
110
330
2
100
AcDbEntity
  8
HALFEN
100
AcDbLine
 10
1143.115005079685
 20
2036.088241940987
 30
0.0
 11
1188.699026095152
 21
2036.088241940987
 31
0.0
  0
LINE
  5
111
330
2
100
AcDbEntity
  8
HALFEN
100
AcDbLine
 10
1143.115005079685
 20
2028.088241940988
 30
0.0
 11
1188.699026095152
 21
2028.088241940988
 31
0.0
  0
ELLIPSE
  5
112
330
2
100
AcDbEntity
  8
HALFEN
100
AcDbEllipse
 10
1188.699026095152
 20
2032.088241940988
 30
0.0
 11
0.0
 21
4.0
 31
0.0
210
0.0
220
0.0
230
1.0
 40
0.7071067811864964
 41
3.141592653589793
 42
6.283185307179586
  0
ELLIPSE
  5
113
330
2
100
AcDbEntity
  8
HALFEN
100
AcDbEllipse
 10
1558.699026095152
 20
1782.088241940987
 30
0.0
 11
0.0
 21
4.0
 31
0.0
210
0.0
220
0.0
230
1.0
 40
0.7071067811864964
 41
3.141592653589793
 42
6.283185307179586
  0
LINE
  5
114
330
2
100
AcDbEntity
  8
HALFEN
100
AcDbLine
 10
1513.115005079685
 20
1778.088241940987
 30
0.0
 11
1558.699026095152
 21
1778.088241940988
 31
0.0
  0
LINE
  5
115
330
2
100
AcDbEntity
  8
HALFEN
100
AcDbLine
 10
1513.115005079685
 20
1786.088241940987
 30
0.0
 11
1558.699026095152
 21
1786.088241940987
 31
0.0
  0
LINE
  5
116
330
2
100
AcDbEntity
  8
HALFEN
100
AcDbLine
 10
1883.202267111872
 20
1653.088241940987
 30
0.0
 11
1928.786288127338
 21
1653.088241940988
 31
0.0
  0
LINE
  5
117
330
2
100
AcDbEntity
  8
HALFEN
100
AcDbLine
 10
1883.202267111872
 20
1661.088241940987
 30
0.0
 11
1928.786288127338
 21
1661.088241940987
 31
0.0
  0
ELLIPSE
  5
118
330
2
100
AcDbEntity
  8
HALFEN
100
AcDbEllipse
 10
1928.786288127338
 20
1657.088241940987
 30
0.0
 11
0.0
 21
4.0
 31
0.0
210
0.0
220
0.0
230
1.0
 40
0.7071067811864964
 41
3.141592653589793
 42
6.283185307179586
  0
LINE
  5
119
330
2
100
AcDbEntity
  8
HALFEN
100
AcDbLine
 10
2253.202267111872
 20
1661.088241940987
 30
0.0
 11
2298.786288127339
 21
1661.088241940987
 31
0.0
  0
LINE
  5
11A
330
2
100
AcDbEntity
  8
HALFEN
100
AcDbLine
 10
2253.202267111872
 20
1653.088241940987
 30
0.0
 11
2298.786288127339
 21
1653.088241940988
 31
0.0
  0
ELLIPSE
  5
11B
330
2
100
AcDbEntity
  8
HALFEN
100
AcDbEllipse
 10
2298.786288127339
 20
1657.088241940987
 30
0.0
 11
0.0
 21
4.0
 31
0.0
210
0.0
220
0.0
230
1.0
 40
0.7071067811864964
 41
3.141592653589793
 42
6.283185307179586
  0
LINE
  5
11C
330
2
100
AcDbEntity
  8
HALFEN
100
AcDbLine
 10
2623.202267111872
 20
1661.088241940987
 30
0.0
 11
2668.786288127339
 21
1661.088241940987
 31
0.0
  0
LINE
  5
11D
330
2
100
AcDbEntity
  8
HALFEN
100
AcDbLine
 10
2623.202267111872
 20
1653.088241940987
 30
0.0
 11
2668.786288127339
 21
1653.088241940988
 31
0.0
  0
ELLIPSE
  5
11E
330
2
100
AcDbEntity
  8
HALFEN
100
AcDbEllipse
 10
2668.786288127339
 20
1657.088241940987
 30
0.0
 11
0.0
 21
4.0
 31
0.0
210
0.0
220
0.0
230
1.0
 40
0.7071067811864964
 41
3.141592653589793
 42
6.283185307179586
  0
LINE
  5
11F
330
2
100
AcDbEntity
  8
HALFEN
100
AcDbLine
 10
2253.202267111872
 20
1153.088241940987
 30
0.0
 11
2298.786288127339
 21
1153.088241940988
 31
0.0
  0
LINE
  5
120
330
2
100
AcDbEntity
  8
HALFEN
100
AcDbLine
 10
2253.202267111872
 20
1161.088241940987
 30
0.0
 11
2298.786288127339
 21
1161.088241940987
 31
0.0
  0
ELLIPSE
  5
121
330
2
100
AcDbEntity
  8
HALFEN
100
AcDbEllipse
 10
2298.786288127339
 20
1157.088241940987
 30
0.0
 11
0.0
 21
4.0
 31
0.0
210
0.0
220
0.0
230
1.0
 40
0.7071067811864964
 41
3.141592653589793
 42
6.283185307179586
  0
LINE
  5
122
330
2
100
AcDbEntity
  8
HALFEN
100
AcDbLine
 10
2623.202267111872
 20
1153.088241940987
 30
0.0
 11
2668.786288127339
 21
1153.088241940988
 31
0.0
  0
LINE
  5
123
330
2
100
AcDbEntity
  8
HALFEN
100
AcDbLine
 10
2623.202267111872
 20
1161.088241940987
 30
0.0
 11
2668.786288127339
 21
1161.088241940987
 31
0.0
  0
ELLIPSE
  5
124
330
2
100
AcDbEntity
  8
HALFEN
100
AcDbEllipse
 10
2668.786288127339
 20
1157.088241940987
 30
0.0
 11
0.0
 21
4.0
 31
0.0
210
0.0
220
0.0
230
1.0
 40
0.7071067811864964
 41
3.141592653589793
 42
6.283185307179586
  0
LINE
  5
125
330
2
100
AcDbEntity
  8
HALFEN
100
AcDbLine
 10
2623.202267111872
 20
661.0882419409872
 30
0.0
 11
2668.786288127339
 21
661.0882419409872
 31
0.0
  0
LINE
  5
126
330
2
100
AcDbEntity
  8
HALFEN
100
AcDbLine
 10
2623.202267111872
 20
653.0882419409872
 30
0.0
 11
2668.786288127339
 21
653.0882419409877
 31
0.0
  0
ELLIPSE
  5
127
330
2
100
AcDbEntity
  8
HALFEN
100
AcDbEllipse
 10
2668.786288127339
 20
657.0882419409872
 30
0.0
 11
0.0
 21
4.0
 31
0.0
210
0.0
220
0.0
230
1.0
 40
0.7071067811864964
 41
3.141592653589793
 42
6.283185307179586
  0
ENDSEC
  0
SECTION
  2
OBJECTS
  0
DICTIONARY
  5
7
330
0
100
AcDbDictionary
281
     1
  3
ACAD_COLOR
350
23
  3
ACAD_GROUP
350
1F
  3
ACAD_LAYOUT
350
B
  3
ACAD_MATERIAL
350
22
  3
ACAD_MLINESTYLE
350
20
  3
ACAD_PLOTSETTINGS
350
21
  3
ACAD_PLOTSTYLENAME
350
6
  3
ACAD_TABLESTYLE
350
24
  3
AcDbVariableDictionary
350
12D
  3
ASE_INDEX_DICTIONARY
350
12A
  0
DICTIONARY
  5
23
102
{ACAD_REACTORS
330
7
102
}
330
7
100
AcDbDictionary
281
     1
  0
DICTIONARY
  5
1F
102
{ACAD_REACTORS
330
7
102
}
330
7
100
AcDbDictionary
281
     1
  0
DICTIONARY
  5
B
102
{ACAD_REACTORS
330
7
102
}
330
7
100
AcDbDictionary
281
     1
  3
Layout1
350
F
  3
Model
350
A
  0
DICTIONARY
  5
22
102
{ACAD_REACTORS
330
7
102
}
330
7
100
AcDbDictionary
281
     1
  0
DICTIONARY
  5
20
102
{ACAD_REACTORS
330
7
102
}
330
7
100
AcDbDictionary
281
     1
  3
STANDARD
350
27
  0
DICTIONARY
  5
21
102
{ACAD_REACTORS
330
7
102
}
330
7
100
AcDbDictionary
281
     1
  0
ACDBDICTIONARYWDFLT
  5
6
102
{ACAD_REACTORS
330
7
102
}
330
7
100
AcDbDictionary
281
     1
  3
Normal
350
5
100
AcDbDictionaryWithDefault
340
5
  0
DICTIONARY
  5
24
102
{ACAD_REACTORS
330
7
102
}
330
7
100
AcDbDictionary
281
     1
  3
Standard
350
28
  0
DICTIONARY
  5
12D
102
{ACAD_REACTORS
330
7
102
}
330
7
100
AcDbDictionary
281
     1
  3
CTABLESTYLE
350
12E
  3
DIMASSOC
350
13B
  3
HIDETEXT
350
13A
  3
PROJECTNAME
350
13C
  0
DICTIONARY
  5
12A
102
{ACAD_REACTORS
330
7
102
}
330
7
100
AcDbDictionary
281
     1
  3
ASEBlockHierarchyIndexRecord
350
12C
1001
DCO15
1040
1565416336.953
  0
LAYOUT
  5
F
102
{ACAD_REACTORS
330
B
102
}
330
B
100
AcDbPlotSettings
  1

  2
\\DLANT038\DLAKBHL013
  4

  6

 40
0.0
 41
0.0
 42
0.0
 43
0.0
 44
0.0
 45
0.0
 46
0.0
 47
0.0
 48
0.0
 49
0.0
140
0.0
141
0.0
142
1.0
143
1.0
 70
   688
 72
     0
 73
     0
 74
     5
  7

 75
    16
147
1.0
 76
     0
 77
     2
 78
   300
148
0.0
149
0.0
100
AcDbLayout
  1
Layout1
 70
     1
 71
     1
 10
0.0
 20
0.0
 11
12.0
 21
9.0
 12
0.0
 22
0.0
 32
0.0
 14
1.000000000000000E+20
 24
1.000000000000000E+20
 34
1.000000000000000E+20
 15
-1.000000000000000E+20
 25
-1.000000000000000E+20
 35
-1.000000000000000E+20
146
0.0
 13
0.0
 23
0.0
 33
0.0
 16
1.0
 26
0.0
 36
0.0
 17
0.0
 27
1.0
 37
0.0
 76
     0
330
C
  0
LAYOUT
  5
A
102
{ACAD_REACTORS
330
B
102
}
330
B
100
AcDbPlotSettings
  1

  2
\\DLANT038\DLAKBHL013
  4

  6

 40
0.0
 41
0.0
 42
0.0
 43
0.0
 44
0.0
 45
0.0
 46
0.0
 47
0.0
 48
0.0
 49
0.0
140
0.0
141
0.0
142
1.0
143
1.0
 70
  1712
 72
     0
 73
     0
 74
     0
  7

 75
     0
147
1.0
 76
     0
 77
     2
 78
   300
148
0.0
149
0.0
100
AcDbLayout
  1
Model
 70
     1
 71
     0
 10
0.0
 20
0.0
 11
12.0
 21
9.0
 12
0.0
 22
0.0
 32
0.0
 14
0.0
 24
0.0
 34
0.0
 15
0.0
 25
0.0
 35
0.0
146
0.0
 13
0.0
 23
0.0
 33
0.0
 16
1.0
 26
0.0
 36
0.0
 17
0.0
 27
1.0
 37
0.0
 76
     0
330
2
  0
MLINESTYLE
  5
27
102
{ACAD_REACTORS
330
20
102
}
330
20
100
AcDbMlineStyle
  2
STANDARD
 70
     0
  3

 62
     0
 51
90.0
 52
90.0
 71
     2
 49
0.5
 62
   256
  6
BYLAYER
 49
-0.5
 62
   256
  6
BYLAYER
  0
ACDBPLACEHOLDER
  5
5
102
{ACAD_REACTORS
330
6
102
}
330
6
  0
TABLESTYLE
  5
28
102
{ACAD_REACTORS
330
24
102
}
330
24
100
AcDbTableStyle
  3
Standard
 70
     0
 71
     0
 40
1.5
 41
1.5
280
     0
281
     0
  7
STANDARD
140
4.5
170
     2
 62
     0
 63
     7
283
     0
274
    -2
284
     1
 64
     0
275
    -2
285
     1
 65
     0
276
    -2
286
     1
 66
     0
277
    -2
287
     1
 67
     0
278
    -2
288
     1
 68
     0
279
    -2
289
     1
 69
     0
  7
STANDARD
140
6.0
170
     5
 62
     0
 63
     7
283
     0
274
    -2
284
     1
 64
     0
275
    -2
285
     1
 65
     0
276
    -2
286
     1
 66
     0
277
    -2
287
     1
 67
     0
278
    -2
288
     1
 68
     0
279
    -2
289
     1
 69
     0
  7
STANDARD
140
4.5
170
     5
 62
     0
 63
     7
283
     0
274
    -2
284
     1
 64
     0
275
    -2
285
     1
 65
     0
276
    -2
286
     1
 66
     0
277
    -2
287
     1
 67
     0
278
    -2
288
     1
 68
     0
279
    -2
289
     1
 69
     0
  0
DICTIONARYVAR
  5
12E
102
{ACAD_REACTORS
330
12D
102
}
330
12D
100
DictionaryVariables
280
     0
  1
STANDARD
  0
DICTIONARYVAR
  5
13B
102
{ACAD_REACTORS
330
12D
102
}
330
12D
100
DictionaryVariables
280
     0
  1
1
  0
DICTIONARYVAR
  5
13A
102
{ACAD_REACTORS
330
12D
102
}
330
12D
100
DictionaryVariables
280
     0
  1
1
  0
DICTIONARYVAR
  5
13C
102
{ACAD_REACTORS
330
12D
102
}
330
12D
100
DictionaryVariables
280
     0
  1

  0
XRECORD
  5
12C
102
{ACAD_REACTORS
330
12A
102
}
330
12A
100
AcDbXrecord
280
     1
  0
ENDSEC
  0
EOF
