0
SECTION
2
HEADER
9
$EXTMIN
10
 0
20
 100
30
0.0
9
$EXTMAX
10
 0
20
 100
30
0.0
9
$LIMMIN
10
 100
20
 0
9
$LIMMAX
10
 0
20
 100
9
$PSLTSCALE
70
1
0
ENDSEC
0
SECTION
2
TABLES
0
TABLE
2
LAYER
70
2
0
LAYER
2
0
70
0
62
7
6
CONTINUOUS
0
LAYER
2
Halfen
70
0
62
7
6
CONTINUOUS
0
ENDTAB
0
ENDSEC
0
SECTION
2
ENTITIES
0
POLYLINE
8
Halfen
62
7
66
1
10
0.0
20
0.0
30
0.0
70
1
0
VERTEX
8
Halfen
62
7
10
 0
20
-73.5
30
0
0
VERTEX
8
Halfen
62
7
10
 1000
20
-73.5
30
0
0
VERTEX
8
Halfen
62
7
10
 1000
20
 73.5
30
0
0
VERTEX
8
Halfen
62
7
10
 0
20
 73.5
30
0
0
SEQEND
8
Halfen
0
POLYLINE
8
Halfen
62
7
66
1
10
0.0
20
0.0
30
0.0
70
1
0
VERTEX
8
Halfen
62
7
10
 0
20
-60
30
0
0
VERTEX
8
Halfen
62
7
10
 1000
20
-60
30
0
0
VERTEX
8
Halfen
62
7
10
 1000
20
 60
30
0
0
VERTEX
8
Halfen
62
7
10
 0
20
 60
30
0
0
SEQEND
8
Halfen
0
POLYLINE
8
Halfen
62
7
66
1
10
0.0
20
0.0
30
0.0
70
1
0
VERTEX
8
Halfen
62
7
10
 20
20
-32.5
30
0
0
VERTEX
8
Halfen
62
7
10
 37
20
-1.5
30
0
0
VERTEX
8
Halfen
62
7
10
 28
20
-1.5
30
0
0
VERTEX
8
Halfen
62
7
10
 28
20
 32.5
30
0
0
VERTEX
8
Halfen
62
7
10
 12
20
 32.5
30
0
0
VERTEX
8
Halfen
62
7
10
 12
20
-1.5
30
0
0
VERTEX
8
Halfen
62
7
10
 3
20
-1.5
30
0
0
SEQEND
8
Halfen
0
POLYLINE
8
Halfen
62
7
66
1
10
0.0
20
0.0
30
0.0
70
1
0
VERTEX
8
Halfen
62
7
10
 980
20
-32.5
30
0
0
VERTEX
8
Halfen
62
7
10
 997
20
-1.5
30
0
0
VERTEX
8
Halfen
62
7
10
 988
20
-1.5
30
0
0
VERTEX
8
Halfen
62
7
10
 988
20
 32.5
30
0
0
VERTEX
8
Halfen
62
7
10
 972
20
 32.5
30
0
0
VERTEX
8
Halfen
62
7
10
 972
20
-1.5
30
0
0
VERTEX
8
Halfen
62
7
10
 963
20
-1.5
30
0
0
SEQEND
8
Halfen
0
POLYLINE
8
Halfen
62
7
66
1
10
0.0
20
0.0
30
0.0
70
1
0
VERTEX
8
Halfen
62
7
10
 97
20
-69.3
30
0
0
VERTEX
8
Halfen
62
7
10
 97
20
-56.8
30
0
0
VERTEX
8
Halfen
62
7
10
 97
20
 69.3
30
0
0
VERTEX
8
Halfen
62
7
10
 96.958
20
 70.359
30
0
0
VERTEX
8
Halfen
62
7
10
 96.834
20
 71.412
30
0
0
VERTEX
8
Halfen
62
7
10
 96.627
20
 72.452
30
0
0
VERTEX
8
Halfen
62
7
10
 96.339
20
 73.472
30
0
0
VERTEX
8
Halfen
62
7
10
 95.972
20
 74.466
30
0
0
VERTEX
8
Halfen
62
7
10
 95.529
20
 75.429
30
0
0
VERTEX
8
Halfen
62
7
10
 95.011
20
 76.354
30
0
0
VERTEX
8
Halfen
62
7
10
 94.422
20
 77.235
30
0
0
VERTEX
8
Halfen
62
7
10
 93.765
20
 78.068
30
0
0
VERTEX
8
Halfen
62
7
10
 93.046
20
 78.846
30
0
0
VERTEX
8
Halfen
62
7
10
 92.268
20
 79.565
30
0
0
VERTEX
8
Halfen
62
7
10
 91.435
20
 80.222
30
0
0
VERTEX
8
Halfen
62
7
10
 90.554
20
 80.811
30
0
0
VERTEX
8
Halfen
62
7
10
 89.629
20
 81.329
30
0
0
VERTEX
8
Halfen
62
7
10
 88.666
20
 81.772
30
0
0
VERTEX
8
Halfen
62
7
10
 87.672
20
 82.139
30
0
0
VERTEX
8
Halfen
62
7
10
 86.652
20
 82.427
30
0
0
VERTEX
8
Halfen
62
7
10
 85.612
20
 82.634
30
0
0
VERTEX
8
Halfen
62
7
10
 84.559
20
 82.758
30
0
0
VERTEX
8
Halfen
62
7
10
 83.5
20
 82.8
30
0
0
VERTEX
8
Halfen
62
7
10
 80.5
20
 82.8
30
0
0
VERTEX
8
Halfen
62
7
10
 79.441
20
 82.758
30
0
0
VERTEX
8
Halfen
62
7
10
 78.388
20
 82.634
30
0
0
VERTEX
8
Halfen
62
7
10
 77.348
20
 82.427
30
0
0
VERTEX
8
Halfen
62
7
10
 76.328
20
 82.139
30
0
0
VERTEX
8
Halfen
62
7
10
 75.334
20
 81.772
30
0
0
VERTEX
8
Halfen
62
7
10
 74.371
20
 81.329
30
0
0
VERTEX
8
Halfen
62
7
10
 73.446
20
 80.811
30
0
0
VERTEX
8
Halfen
62
7
10
 72.565
20
 80.222
30
0
0
VERTEX
8
Halfen
62
7
10
 71.732
20
 79.565
30
0
0
VERTEX
8
Halfen
62
7
10
 70.954
20
 78.846
30
0
0
VERTEX
8
Halfen
62
7
10
 70.235
20
 78.068
30
0
0
VERTEX
8
Halfen
62
7
10
 69.578
20
 77.235
30
0
0
VERTEX
8
Halfen
62
7
10
 68.989
20
 76.354
30
0
0
VERTEX
8
Halfen
62
7
10
 68.471
20
 75.429
30
0
0
VERTEX
8
Halfen
62
7
10
 68.028
20
 74.466
30
0
0
VERTEX
8
Halfen
62
7
10
 67.661
20
 73.472
30
0
0
VERTEX
8
Halfen
62
7
10
 67.373
20
 72.452
30
0
0
VERTEX
8
Halfen
62
7
10
 67.166
20
 71.412
30
0
0
VERTEX
8
Halfen
62
7
10
 67.042
20
 70.359
30
0
0
VERTEX
8
Halfen
62
7
10
 67
20
 69.3
30
0
0
VERTEX
8
Halfen
62
7
10
 67
20
-56.8
30
0
0
VERTEX
8
Halfen
62
7
10
 67
20
-69.3
30
0
0
VERTEX
8
Halfen
62
7
10
 67.042
20
-70.359
30
0
0
VERTEX
8
Halfen
62
7
10
 67.166
20
-71.412
30
0
0
VERTEX
8
Halfen
62
7
10
 67.373
20
-72.452
30
0
0
VERTEX
8
Halfen
62
7
10
 67.661
20
-73.472
30
0
0
VERTEX
8
Halfen
62
7
10
 68.028
20
-74.466
30
0
0
VERTEX
8
Halfen
62
7
10
 68.471
20
-75.429
30
0
0
VERTEX
8
Halfen
62
7
10
 68.989
20
-76.354
30
0
0
VERTEX
8
Halfen
62
7
10
 69.578
20
-77.235
30
0
0
VERTEX
8
Halfen
62
7
10
 70.235
20
-78.068
30
0
0
VERTEX
8
Halfen
62
7
10
 70.954
20
-78.846
30
0
0
VERTEX
8
Halfen
62
7
10
 71.732
20
-79.565
30
0
0
VERTEX
8
Halfen
62
7
10
 72.565
20
-80.222
30
0
0
VERTEX
8
Halfen
62
7
10
 73.446
20
-80.811
30
0
0
VERTEX
8
Halfen
62
7
10
 74.371
20
-81.329
30
0
0
VERTEX
8
Halfen
62
7
10
 75.334
20
-81.772
30
0
0
VERTEX
8
Halfen
62
7
10
 76.328
20
-82.139
30
0
0
VERTEX
8
Halfen
62
7
10
 77.348
20
-82.427
30
0
0
VERTEX
8
Halfen
62
7
10
 78.388
20
-82.634
30
0
0
VERTEX
8
Halfen
62
7
10
 79.441
20
-82.758
30
0
0
VERTEX
8
Halfen
62
7
10
 80.5
20
-82.8
30
0
0
VERTEX
8
Halfen
62
7
10
 83.5
20
-82.8
30
0
0
VERTEX
8
Halfen
62
7
10
 84.559
20
-82.758
30
0
0
VERTEX
8
Halfen
62
7
10
 85.612
20
-82.634
30
0
0
VERTEX
8
Halfen
62
7
10
 86.652
20
-82.427
30
0
0
VERTEX
8
Halfen
62
7
10
 87.672
20
-82.139
30
0
0
VERTEX
8
Halfen
62
7
10
 88.666
20
-81.772
30
0
0
VERTEX
8
Halfen
62
7
10
 89.629
20
-81.329
30
0
0
VERTEX
8
Halfen
62
7
10
 90.554
20
-80.811
30
0
0
VERTEX
8
Halfen
62
7
10
 91.435
20
-80.222
30
0
0
VERTEX
8
Halfen
62
7
10
 92.268
20
-79.565
30
0
0
VERTEX
8
Halfen
62
7
10
 93.046
20
-78.846
30
0
0
VERTEX
8
Halfen
62
7
10
 93.765
20
-78.068
30
0
0
VERTEX
8
Halfen
62
7
10
 94.422
20
-77.235
30
0
0
VERTEX
8
Halfen
62
7
10
 95.011
20
-76.354
30
0
0
VERTEX
8
Halfen
62
7
10
 95.529
20
-75.429
30
0
0
VERTEX
8
Halfen
62
7
10
 95.972
20
-74.466
30
0
0
VERTEX
8
Halfen
62
7
10
 96.339
20
-73.472
30
0
0
VERTEX
8
Halfen
62
7
10
 96.627
20
-72.452
30
0
0
VERTEX
8
Halfen
62
7
10
 96.834
20
-71.412
30
0
0
VERTEX
8
Halfen
62
7
10
 96.958
20
-70.359
30
0
0
VERTEX
8
Halfen
62
7
10
 97
20
-69.3
30
0
0
SEQEND
8
Halfen
0
POLYLINE
8
Halfen
62
7
66
1
10
0.0
20
0.0
30
0.0
70
1
0
VERTEX
8
Halfen
62
7
10
 183
20
-69.3
30
0
0
VERTEX
8
Halfen
62
7
10
 183
20
-56.8
30
0
0
VERTEX
8
Halfen
62
7
10
 183
20
 69.3
30
0
0
VERTEX
8
Halfen
62
7
10
 182.958
20
 70.359
30
0
0
VERTEX
8
Halfen
62
7
10
 182.834
20
 71.412
30
0
0
VERTEX
8
Halfen
62
7
10
 182.627
20
 72.452
30
0
0
VERTEX
8
Halfen
62
7
10
 182.339
20
 73.472
30
0
0
VERTEX
8
Halfen
62
7
10
 181.972
20
 74.466
30
0
0
VERTEX
8
Halfen
62
7
10
 181.529
20
 75.429
30
0
0
VERTEX
8
Halfen
62
7
10
 181.011
20
 76.354
30
0
0
VERTEX
8
Halfen
62
7
10
 180.422
20
 77.235
30
0
0
VERTEX
8
Halfen
62
7
10
 179.765
20
 78.068
30
0
0
VERTEX
8
Halfen
62
7
10
 179.046
20
 78.846
30
0
0
VERTEX
8
Halfen
62
7
10
 178.268
20
 79.565
30
0
0
VERTEX
8
Halfen
62
7
10
 177.435
20
 80.222
30
0
0
VERTEX
8
Halfen
62
7
10
 176.554
20
 80.811
30
0
0
VERTEX
8
Halfen
62
7
10
 175.629
20
 81.329
30
0
0
VERTEX
8
Halfen
62
7
10
 174.666
20
 81.772
30
0
0
VERTEX
8
Halfen
62
7
10
 173.672
20
 82.139
30
0
0
VERTEX
8
Halfen
62
7
10
 172.652
20
 82.427
30
0
0
VERTEX
8
Halfen
62
7
10
 171.612
20
 82.634
30
0
0
VERTEX
8
Halfen
62
7
10
 170.559
20
 82.758
30
0
0
VERTEX
8
Halfen
62
7
10
 169.5
20
 82.8
30
0
0
VERTEX
8
Halfen
62
7
10
 166.5
20
 82.8
30
0
0
VERTEX
8
Halfen
62
7
10
 165.441
20
 82.758
30
0
0
VERTEX
8
Halfen
62
7
10
 164.388
20
 82.634
30
0
0
VERTEX
8
Halfen
62
7
10
 163.348
20
 82.427
30
0
0
VERTEX
8
Halfen
62
7
10
 162.328
20
 82.139
30
0
0
VERTEX
8
Halfen
62
7
10
 161.334
20
 81.772
30
0
0
VERTEX
8
Halfen
62
7
10
 160.371
20
 81.329
30
0
0
VERTEX
8
Halfen
62
7
10
 159.446
20
 80.811
30
0
0
VERTEX
8
Halfen
62
7
10
 158.565
20
 80.222
30
0
0
VERTEX
8
Halfen
62
7
10
 157.732
20
 79.565
30
0
0
VERTEX
8
Halfen
62
7
10
 156.954
20
 78.846
30
0
0
VERTEX
8
Halfen
62
7
10
 156.235
20
 78.068
30
0
0
VERTEX
8
Halfen
62
7
10
 155.578
20
 77.235
30
0
0
VERTEX
8
Halfen
62
7
10
 154.989
20
 76.354
30
0
0
VERTEX
8
Halfen
62
7
10
 154.471
20
 75.429
30
0
0
VERTEX
8
Halfen
62
7
10
 154.028
20
 74.466
30
0
0
VERTEX
8
Halfen
62
7
10
 153.661
20
 73.472
30
0
0
VERTEX
8
Halfen
62
7
10
 153.373
20
 72.452
30
0
0
VERTEX
8
Halfen
62
7
10
 153.166
20
 71.412
30
0
0
VERTEX
8
Halfen
62
7
10
 153.042
20
 70.359
30
0
0
VERTEX
8
Halfen
62
7
10
 153
20
 69.3
30
0
0
VERTEX
8
Halfen
62
7
10
 153
20
-56.8
30
0
0
VERTEX
8
Halfen
62
7
10
 153
20
-69.3
30
0
0
VERTEX
8
Halfen
62
7
10
 153.042
20
-70.359
30
0
0
VERTEX
8
Halfen
62
7
10
 153.166
20
-71.412
30
0
0
VERTEX
8
Halfen
62
7
10
 153.373
20
-72.452
30
0
0
VERTEX
8
Halfen
62
7
10
 153.661
20
-73.472
30
0
0
VERTEX
8
Halfen
62
7
10
 154.028
20
-74.466
30
0
0
VERTEX
8
Halfen
62
7
10
 154.471
20
-75.429
30
0
0
VERTEX
8
Halfen
62
7
10
 154.989
20
-76.354
30
0
0
VERTEX
8
Halfen
62
7
10
 155.578
20
-77.235
30
0
0
VERTEX
8
Halfen
62
7
10
 156.235
20
-78.068
30
0
0
VERTEX
8
Halfen
62
7
10
 156.954
20
-78.846
30
0
0
VERTEX
8
Halfen
62
7
10
 157.732
20
-79.565
30
0
0
VERTEX
8
Halfen
62
7
10
 158.565
20
-80.222
30
0
0
VERTEX
8
Halfen
62
7
10
 159.446
20
-80.811
30
0
0
VERTEX
8
Halfen
62
7
10
 160.371
20
-81.329
30
0
0
VERTEX
8
Halfen
62
7
10
 161.334
20
-81.772
30
0
0
VERTEX
8
Halfen
62
7
10
 162.328
20
-82.139
30
0
0
VERTEX
8
Halfen
62
7
10
 163.348
20
-82.427
30
0
0
VERTEX
8
Halfen
62
7
10
 164.388
20
-82.634
30
0
0
VERTEX
8
Halfen
62
7
10
 165.441
20
-82.758
30
0
0
VERTEX
8
Halfen
62
7
10
 166.5
20
-82.8
30
0
0
VERTEX
8
Halfen
62
7
10
 169.5
20
-82.8
30
0
0
VERTEX
8
Halfen
62
7
10
 170.559
20
-82.758
30
0
0
VERTEX
8
Halfen
62
7
10
 171.612
20
-82.634
30
0
0
VERTEX
8
Halfen
62
7
10
 172.652
20
-82.427
30
0
0
VERTEX
8
Halfen
62
7
10
 173.672
20
-82.139
30
0
0
VERTEX
8
Halfen
62
7
10
 174.666
20
-81.772
30
0
0
VERTEX
8
Halfen
62
7
10
 175.629
20
-81.329
30
0
0
VERTEX
8
Halfen
62
7
10
 176.554
20
-80.811
30
0
0
VERTEX
8
Halfen
62
7
10
 177.435
20
-80.222
30
0
0
VERTEX
8
Halfen
62
7
10
 178.268
20
-79.565
30
0
0
VERTEX
8
Halfen
62
7
10
 179.046
20
-78.846
30
0
0
VERTEX
8
Halfen
62
7
10
 179.765
20
-78.068
30
0
0
VERTEX
8
Halfen
62
7
10
 180.422
20
-77.235
30
0
0
VERTEX
8
Halfen
62
7
10
 181.011
20
-76.354
30
0
0
VERTEX
8
Halfen
62
7
10
 181.529
20
-75.429
30
0
0
VERTEX
8
Halfen
62
7
10
 181.972
20
-74.466
30
0
0
VERTEX
8
Halfen
62
7
10
 182.339
20
-73.472
30
0
0
VERTEX
8
Halfen
62
7
10
 182.627
20
-72.452
30
0
0
VERTEX
8
Halfen
62
7
10
 182.834
20
-71.412
30
0
0
VERTEX
8
Halfen
62
7
10
 182.958
20
-70.359
30
0
0
VERTEX
8
Halfen
62
7
10
 183
20
-69.3
30
0
0
SEQEND
8
Halfen
0
POLYLINE
8
Halfen
62
7
66
1
10
0.0
20
0.0
30
0.0
70
1
0
VERTEX
8
Halfen
62
7
10
 347
20
-69.3
30
0
0
VERTEX
8
Halfen
62
7
10
 347
20
-56.8
30
0
0
VERTEX
8
Halfen
62
7
10
 347
20
 69.3
30
0
0
VERTEX
8
Halfen
62
7
10
 346.958
20
 70.359
30
0
0
VERTEX
8
Halfen
62
7
10
 346.834
20
 71.412
30
0
0
VERTEX
8
Halfen
62
7
10
 346.627
20
 72.452
30
0
0
VERTEX
8
Halfen
62
7
10
 346.339
20
 73.472
30
0
0
VERTEX
8
Halfen
62
7
10
 345.972
20
 74.466
30
0
0
VERTEX
8
Halfen
62
7
10
 345.529
20
 75.429
30
0
0
VERTEX
8
Halfen
62
7
10
 345.011
20
 76.354
30
0
0
VERTEX
8
Halfen
62
7
10
 344.422
20
 77.235
30
0
0
VERTEX
8
Halfen
62
7
10
 343.765
20
 78.068
30
0
0
VERTEX
8
Halfen
62
7
10
 343.046
20
 78.846
30
0
0
VERTEX
8
Halfen
62
7
10
 342.268
20
 79.565
30
0
0
VERTEX
8
Halfen
62
7
10
 341.435
20
 80.222
30
0
0
VERTEX
8
Halfen
62
7
10
 340.554
20
 80.811
30
0
0
VERTEX
8
Halfen
62
7
10
 339.629
20
 81.329
30
0
0
VERTEX
8
Halfen
62
7
10
 338.666
20
 81.772
30
0
0
VERTEX
8
Halfen
62
7
10
 337.672
20
 82.139
30
0
0
VERTEX
8
Halfen
62
7
10
 336.652
20
 82.427
30
0
0
VERTEX
8
Halfen
62
7
10
 335.612
20
 82.634
30
0
0
VERTEX
8
Halfen
62
7
10
 334.559
20
 82.758
30
0
0
VERTEX
8
Halfen
62
7
10
 333.5
20
 82.8
30
0
0
VERTEX
8
Halfen
62
7
10
 330.5
20
 82.8
30
0
0
VERTEX
8
Halfen
62
7
10
 329.441
20
 82.758
30
0
0
VERTEX
8
Halfen
62
7
10
 328.388
20
 82.634
30
0
0
VERTEX
8
Halfen
62
7
10
 327.348
20
 82.427
30
0
0
VERTEX
8
Halfen
62
7
10
 326.328
20
 82.139
30
0
0
VERTEX
8
Halfen
62
7
10
 325.334
20
 81.772
30
0
0
VERTEX
8
Halfen
62
7
10
 324.371
20
 81.329
30
0
0
VERTEX
8
Halfen
62
7
10
 323.446
20
 80.811
30
0
0
VERTEX
8
Halfen
62
7
10
 322.565
20
 80.222
30
0
0
VERTEX
8
Halfen
62
7
10
 321.732
20
 79.565
30
0
0
VERTEX
8
Halfen
62
7
10
 320.954
20
 78.846
30
0
0
VERTEX
8
Halfen
62
7
10
 320.235
20
 78.068
30
0
0
VERTEX
8
Halfen
62
7
10
 319.578
20
 77.235
30
0
0
VERTEX
8
Halfen
62
7
10
 318.989
20
 76.354
30
0
0
VERTEX
8
Halfen
62
7
10
 318.471
20
 75.429
30
0
0
VERTEX
8
Halfen
62
7
10
 318.028
20
 74.466
30
0
0
VERTEX
8
Halfen
62
7
10
 317.661
20
 73.472
30
0
0
VERTEX
8
Halfen
62
7
10
 317.373
20
 72.452
30
0
0
VERTEX
8
Halfen
62
7
10
 317.166
20
 71.412
30
0
0
VERTEX
8
Halfen
62
7
10
 317.042
20
 70.359
30
0
0
VERTEX
8
Halfen
62
7
10
 317
20
 69.3
30
0
0
VERTEX
8
Halfen
62
7
10
 317
20
-56.8
30
0
0
VERTEX
8
Halfen
62
7
10
 317
20
-69.3
30
0
0
VERTEX
8
Halfen
62
7
10
 317.042
20
-70.359
30
0
0
VERTEX
8
Halfen
62
7
10
 317.166
20
-71.412
30
0
0
VERTEX
8
Halfen
62
7
10
 317.373
20
-72.452
30
0
0
VERTEX
8
Halfen
62
7
10
 317.661
20
-73.472
30
0
0
VERTEX
8
Halfen
62
7
10
 318.028
20
-74.466
30
0
0
VERTEX
8
Halfen
62
7
10
 318.471
20
-75.429
30
0
0
VERTEX
8
Halfen
62
7
10
 318.989
20
-76.354
30
0
0
VERTEX
8
Halfen
62
7
10
 319.578
20
-77.235
30
0
0
VERTEX
8
Halfen
62
7
10
 320.235
20
-78.068
30
0
0
VERTEX
8
Halfen
62
7
10
 320.954
20
-78.846
30
0
0
VERTEX
8
Halfen
62
7
10
 321.732
20
-79.565
30
0
0
VERTEX
8
Halfen
62
7
10
 322.565
20
-80.222
30
0
0
VERTEX
8
Halfen
62
7
10
 323.446
20
-80.811
30
0
0
VERTEX
8
Halfen
62
7
10
 324.371
20
-81.329
30
0
0
VERTEX
8
Halfen
62
7
10
 325.334
20
-81.772
30
0
0
VERTEX
8
Halfen
62
7
10
 326.328
20
-82.139
30
0
0
VERTEX
8
Halfen
62
7
10
 327.348
20
-82.427
30
0
0
VERTEX
8
Halfen
62
7
10
 328.388
20
-82.634
30
0
0
VERTEX
8
Halfen
62
7
10
 329.441
20
-82.758
30
0
0
VERTEX
8
Halfen
62
7
10
 330.5
20
-82.8
30
0
0
VERTEX
8
Halfen
62
7
10
 333.5
20
-82.8
30
0
0
VERTEX
8
Halfen
62
7
10
 334.559
20
-82.758
30
0
0
VERTEX
8
Halfen
62
7
10
 335.612
20
-82.634
30
0
0
VERTEX
8
Halfen
62
7
10
 336.652
20
-82.427
30
0
0
VERTEX
8
Halfen
62
7
10
 337.672
20
-82.139
30
0
0
VERTEX
8
Halfen
62
7
10
 338.666
20
-81.772
30
0
0
VERTEX
8
Halfen
62
7
10
 339.629
20
-81.329
30
0
0
VERTEX
8
Halfen
62
7
10
 340.554
20
-80.811
30
0
0
VERTEX
8
Halfen
62
7
10
 341.435
20
-80.222
30
0
0
VERTEX
8
Halfen
62
7
10
 342.268
20
-79.565
30
0
0
VERTEX
8
Halfen
62
7
10
 343.046
20
-78.846
30
0
0
VERTEX
8
Halfen
62
7
10
 343.765
20
-78.068
30
0
0
VERTEX
8
Halfen
62
7
10
 344.422
20
-77.235
30
0
0
VERTEX
8
Halfen
62
7
10
 345.011
20
-76.354
30
0
0
VERTEX
8
Halfen
62
7
10
 345.529
20
-75.429
30
0
0
VERTEX
8
Halfen
62
7
10
 345.972
20
-74.466
30
0
0
VERTEX
8
Halfen
62
7
10
 346.339
20
-73.472
30
0
0
VERTEX
8
Halfen
62
7
10
 346.627
20
-72.452
30
0
0
VERTEX
8
Halfen
62
7
10
 346.834
20
-71.412
30
0
0
VERTEX
8
Halfen
62
7
10
 346.958
20
-70.359
30
0
0
VERTEX
8
Halfen
62
7
10
 347
20
-69.3
30
0
0
SEQEND
8
Halfen
0
POLYLINE
8
Halfen
62
7
66
1
10
0.0
20
0.0
30
0.0
70
1
0
VERTEX
8
Halfen
62
7
10
 433
20
-69.3
30
0
0
VERTEX
8
Halfen
62
7
10
 433
20
-56.8
30
0
0
VERTEX
8
Halfen
62
7
10
 433
20
 69.3
30
0
0
VERTEX
8
Halfen
62
7
10
 432.958
20
 70.359
30
0
0
VERTEX
8
Halfen
62
7
10
 432.834
20
 71.412
30
0
0
VERTEX
8
Halfen
62
7
10
 432.627
20
 72.452
30
0
0
VERTEX
8
Halfen
62
7
10
 432.339
20
 73.472
30
0
0
VERTEX
8
Halfen
62
7
10
 431.972
20
 74.466
30
0
0
VERTEX
8
Halfen
62
7
10
 431.529
20
 75.429
30
0
0
VERTEX
8
Halfen
62
7
10
 431.011
20
 76.354
30
0
0
VERTEX
8
Halfen
62
7
10
 430.422
20
 77.235
30
0
0
VERTEX
8
Halfen
62
7
10
 429.765
20
 78.068
30
0
0
VERTEX
8
Halfen
62
7
10
 429.046
20
 78.846
30
0
0
VERTEX
8
Halfen
62
7
10
 428.268
20
 79.565
30
0
0
VERTEX
8
Halfen
62
7
10
 427.435
20
 80.222
30
0
0
VERTEX
8
Halfen
62
7
10
 426.554
20
 80.811
30
0
0
VERTEX
8
Halfen
62
7
10
 425.629
20
 81.329
30
0
0
VERTEX
8
Halfen
62
7
10
 424.666
20
 81.772
30
0
0
VERTEX
8
Halfen
62
7
10
 423.672
20
 82.139
30
0
0
VERTEX
8
Halfen
62
7
10
 422.652
20
 82.427
30
0
0
VERTEX
8
Halfen
62
7
10
 421.612
20
 82.634
30
0
0
VERTEX
8
Halfen
62
7
10
 420.559
20
 82.758
30
0
0
VERTEX
8
Halfen
62
7
10
 419.5
20
 82.8
30
0
0
VERTEX
8
Halfen
62
7
10
 416.5
20
 82.8
30
0
0
VERTEX
8
Halfen
62
7
10
 415.441
20
 82.758
30
0
0
VERTEX
8
Halfen
62
7
10
 414.388
20
 82.634
30
0
0
VERTEX
8
Halfen
62
7
10
 413.348
20
 82.427
30
0
0
VERTEX
8
Halfen
62
7
10
 412.328
20
 82.139
30
0
0
VERTEX
8
Halfen
62
7
10
 411.334
20
 81.772
30
0
0
VERTEX
8
Halfen
62
7
10
 410.371
20
 81.329
30
0
0
VERTEX
8
Halfen
62
7
10
 409.446
20
 80.811
30
0
0
VERTEX
8
Halfen
62
7
10
 408.565
20
 80.222
30
0
0
VERTEX
8
Halfen
62
7
10
 407.732
20
 79.565
30
0
0
VERTEX
8
Halfen
62
7
10
 406.954
20
 78.846
30
0
0
VERTEX
8
Halfen
62
7
10
 406.235
20
 78.068
30
0
0
VERTEX
8
Halfen
62
7
10
 405.578
20
 77.235
30
0
0
VERTEX
8
Halfen
62
7
10
 404.989
20
 76.354
30
0
0
VERTEX
8
Halfen
62
7
10
 404.471
20
 75.429
30
0
0
VERTEX
8
Halfen
62
7
10
 404.028
20
 74.466
30
0
0
VERTEX
8
Halfen
62
7
10
 403.661
20
 73.472
30
0
0
VERTEX
8
Halfen
62
7
10
 403.373
20
 72.452
30
0
0
VERTEX
8
Halfen
62
7
10
 403.166
20
 71.412
30
0
0
VERTEX
8
Halfen
62
7
10
 403.042
20
 70.359
30
0
0
VERTEX
8
Halfen
62
7
10
 403
20
 69.3
30
0
0
VERTEX
8
Halfen
62
7
10
 403
20
-56.8
30
0
0
VERTEX
8
Halfen
62
7
10
 403
20
-69.3
30
0
0
VERTEX
8
Halfen
62
7
10
 403.042
20
-70.359
30
0
0
VERTEX
8
Halfen
62
7
10
 403.166
20
-71.412
30
0
0
VERTEX
8
Halfen
62
7
10
 403.373
20
-72.452
30
0
0
VERTEX
8
Halfen
62
7
10
 403.661
20
-73.472
30
0
0
VERTEX
8
Halfen
62
7
10
 404.028
20
-74.466
30
0
0
VERTEX
8
Halfen
62
7
10
 404.471
20
-75.429
30
0
0
VERTEX
8
Halfen
62
7
10
 404.989
20
-76.354
30
0
0
VERTEX
8
Halfen
62
7
10
 405.578
20
-77.235
30
0
0
VERTEX
8
Halfen
62
7
10
 406.235
20
-78.068
30
0
0
VERTEX
8
Halfen
62
7
10
 406.954
20
-78.846
30
0
0
VERTEX
8
Halfen
62
7
10
 407.732
20
-79.565
30
0
0
VERTEX
8
Halfen
62
7
10
 408.565
20
-80.222
30
0
0
VERTEX
8
Halfen
62
7
10
 409.446
20
-80.811
30
0
0
VERTEX
8
Halfen
62
7
10
 410.371
20
-81.329
30
0
0
VERTEX
8
Halfen
62
7
10
 411.334
20
-81.772
30
0
0
VERTEX
8
Halfen
62
7
10
 412.328
20
-82.139
30
0
0
VERTEX
8
Halfen
62
7
10
 413.348
20
-82.427
30
0
0
VERTEX
8
Halfen
62
7
10
 414.388
20
-82.634
30
0
0
VERTEX
8
Halfen
62
7
10
 415.441
20
-82.758
30
0
0
VERTEX
8
Halfen
62
7
10
 416.5
20
-82.8
30
0
0
VERTEX
8
Halfen
62
7
10
 419.5
20
-82.8
30
0
0
VERTEX
8
Halfen
62
7
10
 420.559
20
-82.758
30
0
0
VERTEX
8
Halfen
62
7
10
 421.612
20
-82.634
30
0
0
VERTEX
8
Halfen
62
7
10
 422.652
20
-82.427
30
0
0
VERTEX
8
Halfen
62
7
10
 423.672
20
-82.139
30
0
0
VERTEX
8
Halfen
62
7
10
 424.666
20
-81.772
30
0
0
VERTEX
8
Halfen
62
7
10
 425.629
20
-81.329
30
0
0
VERTEX
8
Halfen
62
7
10
 426.554
20
-80.811
30
0
0
VERTEX
8
Halfen
62
7
10
 427.435
20
-80.222
30
0
0
VERTEX
8
Halfen
62
7
10
 428.268
20
-79.565
30
0
0
VERTEX
8
Halfen
62
7
10
 429.046
20
-78.846
30
0
0
VERTEX
8
Halfen
62
7
10
 429.765
20
-78.068
30
0
0
VERTEX
8
Halfen
62
7
10
 430.422
20
-77.235
30
0
0
VERTEX
8
Halfen
62
7
10
 431.011
20
-76.354
30
0
0
VERTEX
8
Halfen
62
7
10
 431.529
20
-75.429
30
0
0
VERTEX
8
Halfen
62
7
10
 431.972
20
-74.466
30
0
0
VERTEX
8
Halfen
62
7
10
 432.339
20
-73.472
30
0
0
VERTEX
8
Halfen
62
7
10
 432.627
20
-72.452
30
0
0
VERTEX
8
Halfen
62
7
10
 432.834
20
-71.412
30
0
0
VERTEX
8
Halfen
62
7
10
 432.958
20
-70.359
30
0
0
VERTEX
8
Halfen
62
7
10
 433
20
-69.3
30
0
0
SEQEND
8
Halfen
0
POLYLINE
8
Halfen
62
7
66
1
10
0.0
20
0.0
30
0.0
70
1
0
VERTEX
8
Halfen
62
7
10
 597
20
-69.3
30
0
0
VERTEX
8
Halfen
62
7
10
 597
20
-56.8
30
0
0
VERTEX
8
Halfen
62
7
10
 597
20
 69.3
30
0
0
VERTEX
8
Halfen
62
7
10
 596.958
20
 70.359
30
0
0
VERTEX
8
Halfen
62
7
10
 596.834
20
 71.412
30
0
0
VERTEX
8
Halfen
62
7
10
 596.627
20
 72.452
30
0
0
VERTEX
8
Halfen
62
7
10
 596.339
20
 73.472
30
0
0
VERTEX
8
Halfen
62
7
10
 595.972
20
 74.466
30
0
0
VERTEX
8
Halfen
62
7
10
 595.529
20
 75.429
30
0
0
VERTEX
8
Halfen
62
7
10
 595.011
20
 76.354
30
0
0
VERTEX
8
Halfen
62
7
10
 594.422
20
 77.235
30
0
0
VERTEX
8
Halfen
62
7
10
 593.765
20
 78.068
30
0
0
VERTEX
8
Halfen
62
7
10
 593.046
20
 78.846
30
0
0
VERTEX
8
Halfen
62
7
10
 592.268
20
 79.565
30
0
0
VERTEX
8
Halfen
62
7
10
 591.435
20
 80.222
30
0
0
VERTEX
8
Halfen
62
7
10
 590.554
20
 80.811
30
0
0
VERTEX
8
Halfen
62
7
10
 589.629
20
 81.329
30
0
0
VERTEX
8
Halfen
62
7
10
 588.666
20
 81.772
30
0
0
VERTEX
8
Halfen
62
7
10
 587.672
20
 82.139
30
0
0
VERTEX
8
Halfen
62
7
10
 586.652
20
 82.427
30
0
0
VERTEX
8
Halfen
62
7
10
 585.612
20
 82.634
30
0
0
VERTEX
8
Halfen
62
7
10
 584.559
20
 82.758
30
0
0
VERTEX
8
Halfen
62
7
10
 583.5
20
 82.8
30
0
0
VERTEX
8
Halfen
62
7
10
 580.5
20
 82.8
30
0
0
VERTEX
8
Halfen
62
7
10
 579.441
20
 82.758
30
0
0
VERTEX
8
Halfen
62
7
10
 578.388
20
 82.634
30
0
0
VERTEX
8
Halfen
62
7
10
 577.348
20
 82.427
30
0
0
VERTEX
8
Halfen
62
7
10
 576.328
20
 82.139
30
0
0
VERTEX
8
Halfen
62
7
10
 575.334
20
 81.772
30
0
0
VERTEX
8
Halfen
62
7
10
 574.371
20
 81.329
30
0
0
VERTEX
8
Halfen
62
7
10
 573.446
20
 80.811
30
0
0
VERTEX
8
Halfen
62
7
10
 572.565
20
 80.222
30
0
0
VERTEX
8
Halfen
62
7
10
 571.732
20
 79.565
30
0
0
VERTEX
8
Halfen
62
7
10
 570.954
20
 78.846
30
0
0
VERTEX
8
Halfen
62
7
10
 570.235
20
 78.068
30
0
0
VERTEX
8
Halfen
62
7
10
 569.578
20
 77.235
30
0
0
VERTEX
8
Halfen
62
7
10
 568.989
20
 76.354
30
0
0
VERTEX
8
Halfen
62
7
10
 568.471
20
 75.429
30
0
0
VERTEX
8
Halfen
62
7
10
 568.028
20
 74.466
30
0
0
VERTEX
8
Halfen
62
7
10
 567.661
20
 73.472
30
0
0
VERTEX
8
Halfen
62
7
10
 567.373
20
 72.452
30
0
0
VERTEX
8
Halfen
62
7
10
 567.166
20
 71.412
30
0
0
VERTEX
8
Halfen
62
7
10
 567.042
20
 70.359
30
0
0
VERTEX
8
Halfen
62
7
10
 567
20
 69.3
30
0
0
VERTEX
8
Halfen
62
7
10
 567
20
-56.8
30
0
0
VERTEX
8
Halfen
62
7
10
 567
20
-69.3
30
0
0
VERTEX
8
Halfen
62
7
10
 567.042
20
-70.359
30
0
0
VERTEX
8
Halfen
62
7
10
 567.166
20
-71.412
30
0
0
VERTEX
8
Halfen
62
7
10
 567.373
20
-72.452
30
0
0
VERTEX
8
Halfen
62
7
10
 567.661
20
-73.472
30
0
0
VERTEX
8
Halfen
62
7
10
 568.028
20
-74.466
30
0
0
VERTEX
8
Halfen
62
7
10
 568.471
20
-75.429
30
0
0
VERTEX
8
Halfen
62
7
10
 568.989
20
-76.354
30
0
0
VERTEX
8
Halfen
62
7
10
 569.578
20
-77.235
30
0
0
VERTEX
8
Halfen
62
7
10
 570.235
20
-78.068
30
0
0
VERTEX
8
Halfen
62
7
10
 570.954
20
-78.846
30
0
0
VERTEX
8
Halfen
62
7
10
 571.732
20
-79.565
30
0
0
VERTEX
8
Halfen
62
7
10
 572.565
20
-80.222
30
0
0
VERTEX
8
Halfen
62
7
10
 573.446
20
-80.811
30
0
0
VERTEX
8
Halfen
62
7
10
 574.371
20
-81.329
30
0
0
VERTEX
8
Halfen
62
7
10
 575.334
20
-81.772
30
0
0
VERTEX
8
Halfen
62
7
10
 576.328
20
-82.139
30
0
0
VERTEX
8
Halfen
62
7
10
 577.348
20
-82.427
30
0
0
VERTEX
8
Halfen
62
7
10
 578.388
20
-82.634
30
0
0
VERTEX
8
Halfen
62
7
10
 579.441
20
-82.758
30
0
0
VERTEX
8
Halfen
62
7
10
 580.5
20
-82.8
30
0
0
VERTEX
8
Halfen
62
7
10
 583.5
20
-82.8
30
0
0
VERTEX
8
Halfen
62
7
10
 584.559
20
-82.758
30
0
0
VERTEX
8
Halfen
62
7
10
 585.612
20
-82.634
30
0
0
VERTEX
8
Halfen
62
7
10
 586.652
20
-82.427
30
0
0
VERTEX
8
Halfen
62
7
10
 587.672
20
-82.139
30
0
0
VERTEX
8
Halfen
62
7
10
 588.666
20
-81.772
30
0
0
VERTEX
8
Halfen
62
7
10
 589.629
20
-81.329
30
0
0
VERTEX
8
Halfen
62
7
10
 590.554
20
-80.811
30
0
0
VERTEX
8
Halfen
62
7
10
 591.435
20
-80.222
30
0
0
VERTEX
8
Halfen
62
7
10
 592.268
20
-79.565
30
0
0
VERTEX
8
Halfen
62
7
10
 593.046
20
-78.846
30
0
0
VERTEX
8
Halfen
62
7
10
 593.765
20
-78.068
30
0
0
VERTEX
8
Halfen
62
7
10
 594.422
20
-77.235
30
0
0
VERTEX
8
Halfen
62
7
10
 595.011
20
-76.354
30
0
0
VERTEX
8
Halfen
62
7
10
 595.529
20
-75.429
30
0
0
VERTEX
8
Halfen
62
7
10
 595.972
20
-74.466
30
0
0
VERTEX
8
Halfen
62
7
10
 596.339
20
-73.472
30
0
0
VERTEX
8
Halfen
62
7
10
 596.627
20
-72.452
30
0
0
VERTEX
8
Halfen
62
7
10
 596.834
20
-71.412
30
0
0
VERTEX
8
Halfen
62
7
10
 596.958
20
-70.359
30
0
0
VERTEX
8
Halfen
62
7
10
 597
20
-69.3
30
0
0
SEQEND
8
Halfen
0
POLYLINE
8
Halfen
62
7
66
1
10
0.0
20
0.0
30
0.0
70
1
0
VERTEX
8
Halfen
62
7
10
 683
20
-69.3
30
0
0
VERTEX
8
Halfen
62
7
10
 683
20
-56.8
30
0
0
VERTEX
8
Halfen
62
7
10
 683
20
 69.3
30
0
0
VERTEX
8
Halfen
62
7
10
 682.958
20
 70.359
30
0
0
VERTEX
8
Halfen
62
7
10
 682.834
20
 71.412
30
0
0
VERTEX
8
Halfen
62
7
10
 682.627
20
 72.452
30
0
0
VERTEX
8
Halfen
62
7
10
 682.339
20
 73.472
30
0
0
VERTEX
8
Halfen
62
7
10
 681.972
20
 74.466
30
0
0
VERTEX
8
Halfen
62
7
10
 681.529
20
 75.429
30
0
0
VERTEX
8
Halfen
62
7
10
 681.011
20
 76.354
30
0
0
VERTEX
8
Halfen
62
7
10
 680.422
20
 77.235
30
0
0
VERTEX
8
Halfen
62
7
10
 679.765
20
 78.068
30
0
0
VERTEX
8
Halfen
62
7
10
 679.046
20
 78.846
30
0
0
VERTEX
8
Halfen
62
7
10
 678.268
20
 79.565
30
0
0
VERTEX
8
Halfen
62
7
10
 677.435
20
 80.222
30
0
0
VERTEX
8
Halfen
62
7
10
 676.554
20
 80.811
30
0
0
VERTEX
8
Halfen
62
7
10
 675.629
20
 81.329
30
0
0
VERTEX
8
Halfen
62
7
10
 674.666
20
 81.772
30
0
0
VERTEX
8
Halfen
62
7
10
 673.672
20
 82.139
30
0
0
VERTEX
8
Halfen
62
7
10
 672.652
20
 82.427
30
0
0
VERTEX
8
Halfen
62
7
10
 671.612
20
 82.634
30
0
0
VERTEX
8
Halfen
62
7
10
 670.559
20
 82.758
30
0
0
VERTEX
8
Halfen
62
7
10
 669.5
20
 82.8
30
0
0
VERTEX
8
Halfen
62
7
10
 666.5
20
 82.8
30
0
0
VERTEX
8
Halfen
62
7
10
 665.441
20
 82.758
30
0
0
VERTEX
8
Halfen
62
7
10
 664.388
20
 82.634
30
0
0
VERTEX
8
Halfen
62
7
10
 663.348
20
 82.427
30
0
0
VERTEX
8
Halfen
62
7
10
 662.328
20
 82.139
30
0
0
VERTEX
8
Halfen
62
7
10
 661.334
20
 81.772
30
0
0
VERTEX
8
Halfen
62
7
10
 660.371
20
 81.329
30
0
0
VERTEX
8
Halfen
62
7
10
 659.446
20
 80.811
30
0
0
VERTEX
8
Halfen
62
7
10
 658.565
20
 80.222
30
0
0
VERTEX
8
Halfen
62
7
10
 657.732
20
 79.565
30
0
0
VERTEX
8
Halfen
62
7
10
 656.954
20
 78.846
30
0
0
VERTEX
8
Halfen
62
7
10
 656.235
20
 78.068
30
0
0
VERTEX
8
Halfen
62
7
10
 655.578
20
 77.235
30
0
0
VERTEX
8
Halfen
62
7
10
 654.989
20
 76.354
30
0
0
VERTEX
8
Halfen
62
7
10
 654.471
20
 75.429
30
0
0
VERTEX
8
Halfen
62
7
10
 654.028
20
 74.466
30
0
0
VERTEX
8
Halfen
62
7
10
 653.661
20
 73.472
30
0
0
VERTEX
8
Halfen
62
7
10
 653.373
20
 72.452
30
0
0
VERTEX
8
Halfen
62
7
10
 653.166
20
 71.412
30
0
0
VERTEX
8
Halfen
62
7
10
 653.042
20
 70.359
30
0
0
VERTEX
8
Halfen
62
7
10
 653
20
 69.3
30
0
0
VERTEX
8
Halfen
62
7
10
 653
20
-56.8
30
0
0
VERTEX
8
Halfen
62
7
10
 653
20
-69.3
30
0
0
VERTEX
8
Halfen
62
7
10
 653.042
20
-70.359
30
0
0
VERTEX
8
Halfen
62
7
10
 653.166
20
-71.412
30
0
0
VERTEX
8
Halfen
62
7
10
 653.373
20
-72.452
30
0
0
VERTEX
8
Halfen
62
7
10
 653.661
20
-73.472
30
0
0
VERTEX
8
Halfen
62
7
10
 654.028
20
-74.466
30
0
0
VERTEX
8
Halfen
62
7
10
 654.471
20
-75.429
30
0
0
VERTEX
8
Halfen
62
7
10
 654.989
20
-76.354
30
0
0
VERTEX
8
Halfen
62
7
10
 655.578
20
-77.235
30
0
0
VERTEX
8
Halfen
62
7
10
 656.235
20
-78.068
30
0
0
VERTEX
8
Halfen
62
7
10
 656.954
20
-78.846
30
0
0
VERTEX
8
Halfen
62
7
10
 657.732
20
-79.565
30
0
0
VERTEX
8
Halfen
62
7
10
 658.565
20
-80.222
30
0
0
VERTEX
8
Halfen
62
7
10
 659.446
20
-80.811
30
0
0
VERTEX
8
Halfen
62
7
10
 660.371
20
-81.329
30
0
0
VERTEX
8
Halfen
62
7
10
 661.334
20
-81.772
30
0
0
VERTEX
8
Halfen
62
7
10
 662.328
20
-82.139
30
0
0
VERTEX
8
Halfen
62
7
10
 663.348
20
-82.427
30
0
0
VERTEX
8
Halfen
62
7
10
 664.388
20
-82.634
30
0
0
VERTEX
8
Halfen
62
7
10
 665.441
20
-82.758
30
0
0
VERTEX
8
Halfen
62
7
10
 666.5
20
-82.8
30
0
0
VERTEX
8
Halfen
62
7
10
 669.5
20
-82.8
30
0
0
VERTEX
8
Halfen
62
7
10
 670.559
20
-82.758
30
0
0
VERTEX
8
Halfen
62
7
10
 671.612
20
-82.634
30
0
0
VERTEX
8
Halfen
62
7
10
 672.652
20
-82.427
30
0
0
VERTEX
8
Halfen
62
7
10
 673.672
20
-82.139
30
0
0
VERTEX
8
Halfen
62
7
10
 674.666
20
-81.772
30
0
0
VERTEX
8
Halfen
62
7
10
 675.629
20
-81.329
30
0
0
VERTEX
8
Halfen
62
7
10
 676.554
20
-80.811
30
0
0
VERTEX
8
Halfen
62
7
10
 677.435
20
-80.222
30
0
0
VERTEX
8
Halfen
62
7
10
 678.268
20
-79.565
30
0
0
VERTEX
8
Halfen
62
7
10
 679.046
20
-78.846
30
0
0
VERTEX
8
Halfen
62
7
10
 679.765
20
-78.068
30
0
0
VERTEX
8
Halfen
62
7
10
 680.422
20
-77.235
30
0
0
VERTEX
8
Halfen
62
7
10
 681.011
20
-76.354
30
0
0
VERTEX
8
Halfen
62
7
10
 681.529
20
-75.429
30
0
0
VERTEX
8
Halfen
62
7
10
 681.972
20
-74.466
30
0
0
VERTEX
8
Halfen
62
7
10
 682.339
20
-73.472
30
0
0
VERTEX
8
Halfen
62
7
10
 682.627
20
-72.452
30
0
0
VERTEX
8
Halfen
62
7
10
 682.834
20
-71.412
30
0
0
VERTEX
8
Halfen
62
7
10
 682.958
20
-70.359
30
0
0
VERTEX
8
Halfen
62
7
10
 683
20
-69.3
30
0
0
SEQEND
8
Halfen
0
POLYLINE
8
Halfen
62
7
66
1
10
0.0
20
0.0
30
0.0
70
1
0
VERTEX
8
Halfen
62
7
10
 847
20
-69.3
30
0
0
VERTEX
8
Halfen
62
7
10
 847
20
-56.8
30
0
0
VERTEX
8
Halfen
62
7
10
 847
20
 69.3
30
0
0
VERTEX
8
Halfen
62
7
10
 846.958
20
 70.359
30
0
0
VERTEX
8
Halfen
62
7
10
 846.834
20
 71.412
30
0
0
VERTEX
8
Halfen
62
7
10
 846.627
20
 72.452
30
0
0
VERTEX
8
Halfen
62
7
10
 846.339
20
 73.472
30
0
0
VERTEX
8
Halfen
62
7
10
 845.972
20
 74.466
30
0
0
VERTEX
8
Halfen
62
7
10
 845.529
20
 75.429
30
0
0
VERTEX
8
Halfen
62
7
10
 845.011
20
 76.354
30
0
0
VERTEX
8
Halfen
62
7
10
 844.422
20
 77.235
30
0
0
VERTEX
8
Halfen
62
7
10
 843.765
20
 78.068
30
0
0
VERTEX
8
Halfen
62
7
10
 843.046
20
 78.846
30
0
0
VERTEX
8
Halfen
62
7
10
 842.268
20
 79.565
30
0
0
VERTEX
8
Halfen
62
7
10
 841.435
20
 80.222
30
0
0
VERTEX
8
Halfen
62
7
10
 840.554
20
 80.811
30
0
0
VERTEX
8
Halfen
62
7
10
 839.629
20
 81.329
30
0
0
VERTEX
8
Halfen
62
7
10
 838.666
20
 81.772
30
0
0
VERTEX
8
Halfen
62
7
10
 837.672
20
 82.139
30
0
0
VERTEX
8
Halfen
62
7
10
 836.652
20
 82.427
30
0
0
VERTEX
8
Halfen
62
7
10
 835.612
20
 82.634
30
0
0
VERTEX
8
Halfen
62
7
10
 834.559
20
 82.758
30
0
0
VERTEX
8
Halfen
62
7
10
 833.5
20
 82.8
30
0
0
VERTEX
8
Halfen
62
7
10
 830.5
20
 82.8
30
0
0
VERTEX
8
Halfen
62
7
10
 829.441
20
 82.758
30
0
0
VERTEX
8
Halfen
62
7
10
 828.388
20
 82.634
30
0
0
VERTEX
8
Halfen
62
7
10
 827.348
20
 82.427
30
0
0
VERTEX
8
Halfen
62
7
10
 826.328
20
 82.139
30
0
0
VERTEX
8
Halfen
62
7
10
 825.334
20
 81.772
30
0
0
VERTEX
8
Halfen
62
7
10
 824.371
20
 81.329
30
0
0
VERTEX
8
Halfen
62
7
10
 823.446
20
 80.811
30
0
0
VERTEX
8
Halfen
62
7
10
 822.565
20
 80.222
30
0
0
VERTEX
8
Halfen
62
7
10
 821.732
20
 79.565
30
0
0
VERTEX
8
Halfen
62
7
10
 820.954
20
 78.846
30
0
0
VERTEX
8
Halfen
62
7
10
 820.235
20
 78.068
30
0
0
VERTEX
8
Halfen
62
7
10
 819.578
20
 77.235
30
0
0
VERTEX
8
Halfen
62
7
10
 818.989
20
 76.354
30
0
0
VERTEX
8
Halfen
62
7
10
 818.471
20
 75.429
30
0
0
VERTEX
8
Halfen
62
7
10
 818.028
20
 74.466
30
0
0
VERTEX
8
Halfen
62
7
10
 817.661
20
 73.472
30
0
0
VERTEX
8
Halfen
62
7
10
 817.373
20
 72.452
30
0
0
VERTEX
8
Halfen
62
7
10
 817.166
20
 71.412
30
0
0
VERTEX
8
Halfen
62
7
10
 817.042
20
 70.359
30
0
0
VERTEX
8
Halfen
62
7
10
 817
20
 69.3
30
0
0
VERTEX
8
Halfen
62
7
10
 817
20
-56.8
30
0
0
VERTEX
8
Halfen
62
7
10
 817
20
-69.3
30
0
0
VERTEX
8
Halfen
62
7
10
 817.042
20
-70.359
30
0
0
VERTEX
8
Halfen
62
7
10
 817.166
20
-71.412
30
0
0
VERTEX
8
Halfen
62
7
10
 817.373
20
-72.452
30
0
0
VERTEX
8
Halfen
62
7
10
 817.661
20
-73.472
30
0
0
VERTEX
8
Halfen
62
7
10
 818.028
20
-74.466
30
0
0
VERTEX
8
Halfen
62
7
10
 818.471
20
-75.429
30
0
0
VERTEX
8
Halfen
62
7
10
 818.989
20
-76.354
30
0
0
VERTEX
8
Halfen
62
7
10
 819.578
20
-77.235
30
0
0
VERTEX
8
Halfen
62
7
10
 820.235
20
-78.068
30
0
0
VERTEX
8
Halfen
62
7
10
 820.954
20
-78.846
30
0
0
VERTEX
8
Halfen
62
7
10
 821.732
20
-79.565
30
0
0
VERTEX
8
Halfen
62
7
10
 822.565
20
-80.222
30
0
0
VERTEX
8
Halfen
62
7
10
 823.446
20
-80.811
30
0
0
VERTEX
8
Halfen
62
7
10
 824.371
20
-81.329
30
0
0
VERTEX
8
Halfen
62
7
10
 825.334
20
-81.772
30
0
0
VERTEX
8
Halfen
62
7
10
 826.328
20
-82.139
30
0
0
VERTEX
8
Halfen
62
7
10
 827.348
20
-82.427
30
0
0
VERTEX
8
Halfen
62
7
10
 828.388
20
-82.634
30
0
0
VERTEX
8
Halfen
62
7
10
 829.441
20
-82.758
30
0
0
VERTEX
8
Halfen
62
7
10
 830.5
20
-82.8
30
0
0
VERTEX
8
Halfen
62
7
10
 833.5
20
-82.8
30
0
0
VERTEX
8
Halfen
62
7
10
 834.559
20
-82.758
30
0
0
VERTEX
8
Halfen
62
7
10
 835.612
20
-82.634
30
0
0
VERTEX
8
Halfen
62
7
10
 836.652
20
-82.427
30
0
0
VERTEX
8
Halfen
62
7
10
 837.672
20
-82.139
30
0
0
VERTEX
8
Halfen
62
7
10
 838.666
20
-81.772
30
0
0
VERTEX
8
Halfen
62
7
10
 839.629
20
-81.329
30
0
0
VERTEX
8
Halfen
62
7
10
 840.554
20
-80.811
30
0
0
VERTEX
8
Halfen
62
7
10
 841.435
20
-80.222
30
0
0
VERTEX
8
Halfen
62
7
10
 842.268
20
-79.565
30
0
0
VERTEX
8
Halfen
62
7
10
 843.046
20
-78.846
30
0
0
VERTEX
8
Halfen
62
7
10
 843.765
20
-78.068
30
0
0
VERTEX
8
Halfen
62
7
10
 844.422
20
-77.235
30
0
0
VERTEX
8
Halfen
62
7
10
 845.011
20
-76.354
30
0
0
VERTEX
8
Halfen
62
7
10
 845.529
20
-75.429
30
0
0
VERTEX
8
Halfen
62
7
10
 845.972
20
-74.466
30
0
0
VERTEX
8
Halfen
62
7
10
 846.339
20
-73.472
30
0
0
VERTEX
8
Halfen
62
7
10
 846.627
20
-72.452
30
0
0
VERTEX
8
Halfen
62
7
10
 846.834
20
-71.412
30
0
0
VERTEX
8
Halfen
62
7
10
 846.958
20
-70.359
30
0
0
VERTEX
8
Halfen
62
7
10
 847
20
-69.3
30
0
0
SEQEND
8
Halfen
0
POLYLINE
8
Halfen
62
7
66
1
10
0.0
20
0.0
30
0.0
70
1
0
VERTEX
8
Halfen
62
7
10
 933
20
-69.3
30
0
0
VERTEX
8
Halfen
62
7
10
 933
20
-56.8
30
0
0
VERTEX
8
Halfen
62
7
10
 933
20
 69.3
30
0
0
VERTEX
8
Halfen
62
7
10
 932.958
20
 70.359
30
0
0
VERTEX
8
Halfen
62
7
10
 932.834
20
 71.412
30
0
0
VERTEX
8
Halfen
62
7
10
 932.627
20
 72.452
30
0
0
VERTEX
8
Halfen
62
7
10
 932.339
20
 73.472
30
0
0
VERTEX
8
Halfen
62
7
10
 931.972
20
 74.466
30
0
0
VERTEX
8
Halfen
62
7
10
 931.529
20
 75.429
30
0
0
VERTEX
8
Halfen
62
7
10
 931.011
20
 76.354
30
0
0
VERTEX
8
Halfen
62
7
10
 930.422
20
 77.235
30
0
0
VERTEX
8
Halfen
62
7
10
 929.765
20
 78.068
30
0
0
VERTEX
8
Halfen
62
7
10
 929.046
20
 78.846
30
0
0
VERTEX
8
Halfen
62
7
10
 928.268
20
 79.565
30
0
0
VERTEX
8
Halfen
62
7
10
 927.435
20
 80.222
30
0
0
VERTEX
8
Halfen
62
7
10
 926.554
20
 80.811
30
0
0
VERTEX
8
Halfen
62
7
10
 925.629
20
 81.329
30
0
0
VERTEX
8
Halfen
62
7
10
 924.666
20
 81.772
30
0
0
VERTEX
8
Halfen
62
7
10
 923.672
20
 82.139
30
0
0
VERTEX
8
Halfen
62
7
10
 922.652
20
 82.427
30
0
0
VERTEX
8
Halfen
62
7
10
 921.612
20
 82.634
30
0
0
VERTEX
8
Halfen
62
7
10
 920.559
20
 82.758
30
0
0
VERTEX
8
Halfen
62
7
10
 919.5
20
 82.8
30
0
0
VERTEX
8
Halfen
62
7
10
 916.5
20
 82.8
30
0
0
VERTEX
8
Halfen
62
7
10
 915.441
20
 82.758
30
0
0
VERTEX
8
Halfen
62
7
10
 914.388
20
 82.634
30
0
0
VERTEX
8
Halfen
62
7
10
 913.348
20
 82.427
30
0
0
VERTEX
8
Halfen
62
7
10
 912.328
20
 82.139
30
0
0
VERTEX
8
Halfen
62
7
10
 911.334
20
 81.772
30
0
0
VERTEX
8
Halfen
62
7
10
 910.371
20
 81.329
30
0
0
VERTEX
8
Halfen
62
7
10
 909.446
20
 80.811
30
0
0
VERTEX
8
Halfen
62
7
10
 908.565
20
 80.222
30
0
0
VERTEX
8
Halfen
62
7
10
 907.732
20
 79.565
30
0
0
VERTEX
8
Halfen
62
7
10
 906.954
20
 78.846
30
0
0
VERTEX
8
Halfen
62
7
10
 906.235
20
 78.068
30
0
0
VERTEX
8
Halfen
62
7
10
 905.578
20
 77.235
30
0
0
VERTEX
8
Halfen
62
7
10
 904.989
20
 76.354
30
0
0
VERTEX
8
Halfen
62
7
10
 904.471
20
 75.429
30
0
0
VERTEX
8
Halfen
62
7
10
 904.028
20
 74.466
30
0
0
VERTEX
8
Halfen
62
7
10
 903.661
20
 73.472
30
0
0
VERTEX
8
Halfen
62
7
10
 903.373
20
 72.452
30
0
0
VERTEX
8
Halfen
62
7
10
 903.166
20
 71.412
30
0
0
VERTEX
8
Halfen
62
7
10
 903.042
20
 70.359
30
0
0
VERTEX
8
Halfen
62
7
10
 903
20
 69.3
30
0
0
VERTEX
8
Halfen
62
7
10
 903
20
-56.8
30
0
0
VERTEX
8
Halfen
62
7
10
 903
20
-69.3
30
0
0
VERTEX
8
Halfen
62
7
10
 903.042
20
-70.359
30
0
0
VERTEX
8
Halfen
62
7
10
 903.166
20
-71.412
30
0
0
VERTEX
8
Halfen
62
7
10
 903.373
20
-72.452
30
0
0
VERTEX
8
Halfen
62
7
10
 903.661
20
-73.472
30
0
0
VERTEX
8
Halfen
62
7
10
 904.028
20
-74.466
30
0
0
VERTEX
8
Halfen
62
7
10
 904.471
20
-75.429
30
0
0
VERTEX
8
Halfen
62
7
10
 904.989
20
-76.354
30
0
0
VERTEX
8
Halfen
62
7
10
 905.578
20
-77.235
30
0
0
VERTEX
8
Halfen
62
7
10
 906.235
20
-78.068
30
0
0
VERTEX
8
Halfen
62
7
10
 906.954
20
-78.846
30
0
0
VERTEX
8
Halfen
62
7
10
 907.732
20
-79.565
30
0
0
VERTEX
8
Halfen
62
7
10
 908.565
20
-80.222
30
0
0
VERTEX
8
Halfen
62
7
10
 909.446
20
-80.811
30
0
0
VERTEX
8
Halfen
62
7
10
 910.371
20
-81.329
30
0
0
VERTEX
8
Halfen
62
7
10
 911.334
20
-81.772
30
0
0
VERTEX
8
Halfen
62
7
10
 912.328
20
-82.139
30
0
0
VERTEX
8
Halfen
62
7
10
 913.348
20
-82.427
30
0
0
VERTEX
8
Halfen
62
7
10
 914.388
20
-82.634
30
0
0
VERTEX
8
Halfen
62
7
10
 915.441
20
-82.758
30
0
0
VERTEX
8
Halfen
62
7
10
 916.5
20
-82.8
30
0
0
VERTEX
8
Halfen
62
7
10
 919.5
20
-82.8
30
0
0
VERTEX
8
Halfen
62
7
10
 920.559
20
-82.758
30
0
0
VERTEX
8
Halfen
62
7
10
 921.612
20
-82.634
30
0
0
VERTEX
8
Halfen
62
7
10
 922.652
20
-82.427
30
0
0
VERTEX
8
Halfen
62
7
10
 923.672
20
-82.139
30
0
0
VERTEX
8
Halfen
62
7
10
 924.666
20
-81.772
30
0
0
VERTEX
8
Halfen
62
7
10
 925.629
20
-81.329
30
0
0
VERTEX
8
Halfen
62
7
10
 926.554
20
-80.811
30
0
0
VERTEX
8
Halfen
62
7
10
 927.435
20
-80.222
30
0
0
VERTEX
8
Halfen
62
7
10
 928.268
20
-79.565
30
0
0
VERTEX
8
Halfen
62
7
10
 929.046
20
-78.846
30
0
0
VERTEX
8
Halfen
62
7
10
 929.765
20
-78.068
30
0
0
VERTEX
8
Halfen
62
7
10
 930.422
20
-77.235
30
0
0
VERTEX
8
Halfen
62
7
10
 931.011
20
-76.354
30
0
0
VERTEX
8
Halfen
62
7
10
 931.529
20
-75.429
30
0
0
VERTEX
8
Halfen
62
7
10
 931.972
20
-74.466
30
0
0
VERTEX
8
Halfen
62
7
10
 932.339
20
-73.472
30
0
0
VERTEX
8
Halfen
62
7
10
 932.627
20
-72.452
30
0
0
VERTEX
8
Halfen
62
7
10
 932.834
20
-71.412
30
0
0
VERTEX
8
Halfen
62
7
10
 932.958
20
-70.359
30
0
0
VERTEX
8
Halfen
62
7
10
 933
20
-69.3
30
0
0
SEQEND
8
Halfen
0
POLYLINE
8
Halfen
62
7
66
1
10
0.0
20
0.0
30
0.0
70
1
0
VERTEX
8
Halfen
62
7
10
 61
20
-775
30
0
0
VERTEX
8
Halfen
62
7
10
 61
20
-160
30
0
0
VERTEX
8
Halfen
62
7
10
 49
20
-160
30
0
0
VERTEX
8
Halfen
62
7
10
 49
20
-775
30
0
0
SEQEND
8
Halfen
0
POLYLINE
8
Halfen
62
7
66
1
10
0.0
20
0.0
30
0.0
70
1
0
VERTEX
8
Halfen
62
7
10
 60.25
20
-160
30
0
0
VERTEX
8
Halfen
62
7
10
 60.25
20
-62
30
0
0
VERTEX
8
Halfen
62
7
10
 49.75
20
-62
30
0
0
VERTEX
8
Halfen
62
7
10
 49.75
20
-160
30
0
0
SEQEND
8
Halfen
0
POLYLINE
8
Halfen
62
7
66
1
10
0.0
20
0.0
30
0.0
70
1
0
VERTEX
8
Halfen
62
7
10
 61
20
-62
30
0
0
VERTEX
8
Halfen
62
7
10
 61
20
-60
30
0
0
VERTEX
8
Halfen
62
7
10
 49
20
-60
30
0
0
VERTEX
8
Halfen
62
7
10
 49
20
-62
30
0
0
SEQEND
8
Halfen
0
POLYLINE
8
Halfen
62
7
66
1
10
0.0
20
0.0
30
0.0
70
1
0
VERTEX
8
Halfen
62
7
10
 60.25
20
-60
30
0
0
VERTEX
8
Halfen
62
7
10
 60.25
20
 60
30
0
0
VERTEX
8
Halfen
62
7
10
 49.75
20
 60
30
0
0
VERTEX
8
Halfen
62
7
10
 49.75
20
-60
30
0
0
SEQEND
8
Halfen
0
POLYLINE
8
Halfen
62
7
66
1
10
0.0
20
0.0
30
0.0
70
1
0
VERTEX
8
Halfen
62
7
10
 61
20
 60
30
0
0
VERTEX
8
Halfen
62
7
10
 61
20
 62
30
0
0
VERTEX
8
Halfen
62
7
10
 49
20
 62
30
0
0
VERTEX
8
Halfen
62
7
10
 49
20
 60
30
0
0
SEQEND
8
Halfen
0
POLYLINE
8
Halfen
62
7
66
1
10
0.0
20
0.0
30
0.0
70
1
0
VERTEX
8
Halfen
62
7
10
 60.25
20
 62
30
0
0
VERTEX
8
Halfen
62
7
10
 60.25
20
 160
30
0
0
VERTEX
8
Halfen
62
7
10
 49.75
20
 160
30
0
0
VERTEX
8
Halfen
62
7
10
 49.75
20
 62
30
0
0
SEQEND
8
Halfen
0
POLYLINE
8
Halfen
62
7
66
1
10
0.0
20
0.0
30
0.0
70
1
0
VERTEX
8
Halfen
62
7
10
 61
20
 160
30
0
0
VERTEX
8
Halfen
62
7
10
 61
20
 775
30
0
0
VERTEX
8
Halfen
62
7
10
 49
20
 775
30
0
0
VERTEX
8
Halfen
62
7
10
 49
20
 160
30
0
0
SEQEND
8
Halfen
0
POLYLINE
8
Halfen
62
7
66
1
10
0.0
20
0.0
30
0.0
70
1
0
VERTEX
8
Halfen
62
7
10
 126
20
-775
30
0
0
VERTEX
8
Halfen
62
7
10
 126
20
-160
30
0
0
VERTEX
8
Halfen
62
7
10
 114
20
-160
30
0
0
VERTEX
8
Halfen
62
7
10
 114
20
-775
30
0
0
SEQEND
8
Halfen
0
POLYLINE
8
Halfen
62
7
66
1
10
0.0
20
0.0
30
0.0
70
1
0
VERTEX
8
Halfen
62
7
10
 125.25
20
-160
30
0
0
VERTEX
8
Halfen
62
7
10
 125.25
20
-62
30
0
0
VERTEX
8
Halfen
62
7
10
 114.75
20
-62
30
0
0
VERTEX
8
Halfen
62
7
10
 114.75
20
-160
30
0
0
SEQEND
8
Halfen
0
POLYLINE
8
Halfen
62
7
66
1
10
0.0
20
0.0
30
0.0
70
1
0
VERTEX
8
Halfen
62
7
10
 126
20
-62
30
0
0
VERTEX
8
Halfen
62
7
10
 126
20
-60
30
0
0
VERTEX
8
Halfen
62
7
10
 114
20
-60
30
0
0
VERTEX
8
Halfen
62
7
10
 114
20
-62
30
0
0
SEQEND
8
Halfen
0
POLYLINE
8
Halfen
62
7
66
1
10
0.0
20
0.0
30
0.0
70
1
0
VERTEX
8
Halfen
62
7
10
 125.25
20
-60
30
0
0
VERTEX
8
Halfen
62
7
10
 125.25
20
 60
30
0
0
VERTEX
8
Halfen
62
7
10
 114.75
20
 60
30
0
0
VERTEX
8
Halfen
62
7
10
 114.75
20
-60
30
0
0
SEQEND
8
Halfen
0
POLYLINE
8
Halfen
62
7
66
1
10
0.0
20
0.0
30
0.0
70
1
0
VERTEX
8
Halfen
62
7
10
 126
20
 60
30
0
0
VERTEX
8
Halfen
62
7
10
 126
20
 62
30
0
0
VERTEX
8
Halfen
62
7
10
 114
20
 62
30
0
0
VERTEX
8
Halfen
62
7
10
 114
20
 60
30
0
0
SEQEND
8
Halfen
0
POLYLINE
8
Halfen
62
7
66
1
10
0.0
20
0.0
30
0.0
70
1
0
VERTEX
8
Halfen
62
7
10
 125.25
20
 62
30
0
0
VERTEX
8
Halfen
62
7
10
 125.25
20
 160
30
0
0
VERTEX
8
Halfen
62
7
10
 114.75
20
 160
30
0
0
VERTEX
8
Halfen
62
7
10
 114.75
20
 62
30
0
0
SEQEND
8
Halfen
0
POLYLINE
8
Halfen
62
7
66
1
10
0.0
20
0.0
30
0.0
70
1
0
VERTEX
8
Halfen
62
7
10
 126
20
 160
30
0
0
VERTEX
8
Halfen
62
7
10
 126
20
 775
30
0
0
VERTEX
8
Halfen
62
7
10
 114
20
 775
30
0
0
VERTEX
8
Halfen
62
7
10
 114
20
 160
30
0
0
SEQEND
8
Halfen
0
POLYLINE
8
Halfen
62
7
66
1
10
0.0
20
0.0
30
0.0
70
1
0
VERTEX
8
Halfen
62
7
10
 191
20
-775
30
0
0
VERTEX
8
Halfen
62
7
10
 191
20
-160
30
0
0
VERTEX
8
Halfen
62
7
10
 179
20
-160
30
0
0
VERTEX
8
Halfen
62
7
10
 179
20
-775
30
0
0
SEQEND
8
Halfen
0
POLYLINE
8
Halfen
62
7
66
1
10
0.0
20
0.0
30
0.0
70
1
0
VERTEX
8
Halfen
62
7
10
 190.25
20
-160
30
0
0
VERTEX
8
Halfen
62
7
10
 190.25
20
-62
30
0
0
VERTEX
8
Halfen
62
7
10
 179.75
20
-62
30
0
0
VERTEX
8
Halfen
62
7
10
 179.75
20
-160
30
0
0
SEQEND
8
Halfen
0
POLYLINE
8
Halfen
62
7
66
1
10
0.0
20
0.0
30
0.0
70
1
0
VERTEX
8
Halfen
62
7
10
 191
20
-62
30
0
0
VERTEX
8
Halfen
62
7
10
 191
20
-60
30
0
0
VERTEX
8
Halfen
62
7
10
 179
20
-60
30
0
0
VERTEX
8
Halfen
62
7
10
 179
20
-62
30
0
0
SEQEND
8
Halfen
0
POLYLINE
8
Halfen
62
7
66
1
10
0.0
20
0.0
30
0.0
70
1
0
VERTEX
8
Halfen
62
7
10
 190.25
20
-60
30
0
0
VERTEX
8
Halfen
62
7
10
 190.25
20
 60
30
0
0
VERTEX
8
Halfen
62
7
10
 179.75
20
 60
30
0
0
VERTEX
8
Halfen
62
7
10
 179.75
20
-60
30
0
0
SEQEND
8
Halfen
0
POLYLINE
8
Halfen
62
7
66
1
10
0.0
20
0.0
30
0.0
70
1
0
VERTEX
8
Halfen
62
7
10
 191
20
 60
30
0
0
VERTEX
8
Halfen
62
7
10
 191
20
 62
30
0
0
VERTEX
8
Halfen
62
7
10
 179
20
 62
30
0
0
VERTEX
8
Halfen
62
7
10
 179
20
 60
30
0
0
SEQEND
8
Halfen
0
POLYLINE
8
Halfen
62
7
66
1
10
0.0
20
0.0
30
0.0
70
1
0
VERTEX
8
Halfen
62
7
10
 190.25
20
 62
30
0
0
VERTEX
8
Halfen
62
7
10
 190.25
20
 160
30
0
0
VERTEX
8
Halfen
62
7
10
 179.75
20
 160
30
0
0
VERTEX
8
Halfen
62
7
10
 179.75
20
 62
30
0
0
SEQEND
8
Halfen
0
POLYLINE
8
Halfen
62
7
66
1
10
0.0
20
0.0
30
0.0
70
1
0
VERTEX
8
Halfen
62
7
10
 191
20
 160
30
0
0
VERTEX
8
Halfen
62
7
10
 191
20
 775
30
0
0
VERTEX
8
Halfen
62
7
10
 179
20
 775
30
0
0
VERTEX
8
Halfen
62
7
10
 179
20
 160
30
0
0
SEQEND
8
Halfen
0
POLYLINE
8
Halfen
62
7
66
1
10
0.0
20
0.0
30
0.0
70
1
0
VERTEX
8
Halfen
62
7
10
 256
20
-775
30
0
0
VERTEX
8
Halfen
62
7
10
 256
20
-160
30
0
0
VERTEX
8
Halfen
62
7
10
 244
20
-160
30
0
0
VERTEX
8
Halfen
62
7
10
 244
20
-775
30
0
0
SEQEND
8
Halfen
0
POLYLINE
8
Halfen
62
7
66
1
10
0.0
20
0.0
30
0.0
70
1
0
VERTEX
8
Halfen
62
7
10
 255.25
20
-160
30
0
0
VERTEX
8
Halfen
62
7
10
 255.25
20
-62
30
0
0
VERTEX
8
Halfen
62
7
10
 244.75
20
-62
30
0
0
VERTEX
8
Halfen
62
7
10
 244.75
20
-160
30
0
0
SEQEND
8
Halfen
0
POLYLINE
8
Halfen
62
7
66
1
10
0.0
20
0.0
30
0.0
70
1
0
VERTEX
8
Halfen
62
7
10
 256
20
-62
30
0
0
VERTEX
8
Halfen
62
7
10
 256
20
-60
30
0
0
VERTEX
8
Halfen
62
7
10
 244
20
-60
30
0
0
VERTEX
8
Halfen
62
7
10
 244
20
-62
30
0
0
SEQEND
8
Halfen
0
POLYLINE
8
Halfen
62
7
66
1
10
0.0
20
0.0
30
0.0
70
1
0
VERTEX
8
Halfen
62
7
10
 255.25
20
-60
30
0
0
VERTEX
8
Halfen
62
7
10
 255.25
20
 60
30
0
0
VERTEX
8
Halfen
62
7
10
 244.75
20
 60
30
0
0
VERTEX
8
Halfen
62
7
10
 244.75
20
-60
30
0
0
SEQEND
8
Halfen
0
POLYLINE
8
Halfen
62
7
66
1
10
0.0
20
0.0
30
0.0
70
1
0
VERTEX
8
Halfen
62
7
10
 256
20
 60
30
0
0
VERTEX
8
Halfen
62
7
10
 256
20
 62
30
0
0
VERTEX
8
Halfen
62
7
10
 244
20
 62
30
0
0
VERTEX
8
Halfen
62
7
10
 244
20
 60
30
0
0
SEQEND
8
Halfen
0
POLYLINE
8
Halfen
62
7
66
1
10
0.0
20
0.0
30
0.0
70
1
0
VERTEX
8
Halfen
62
7
10
 255.25
20
 62
30
0
0
VERTEX
8
Halfen
62
7
10
 255.25
20
 160
30
0
0
VERTEX
8
Halfen
62
7
10
 244.75
20
 160
30
0
0
VERTEX
8
Halfen
62
7
10
 244.75
20
 62
30
0
0
SEQEND
8
Halfen
0
POLYLINE
8
Halfen
62
7
66
1
10
0.0
20
0.0
30
0.0
70
1
0
VERTEX
8
Halfen
62
7
10
 256
20
 160
30
0
0
VERTEX
8
Halfen
62
7
10
 256
20
 775
30
0
0
VERTEX
8
Halfen
62
7
10
 244
20
 775
30
0
0
VERTEX
8
Halfen
62
7
10
 244
20
 160
30
0
0
SEQEND
8
Halfen
0
POLYLINE
8
Halfen
62
7
66
1
10
0.0
20
0.0
30
0.0
70
1
0
VERTEX
8
Halfen
62
7
10
 321
20
-775
30
0
0
VERTEX
8
Halfen
62
7
10
 321
20
-160
30
0
0
VERTEX
8
Halfen
62
7
10
 309
20
-160
30
0
0
VERTEX
8
Halfen
62
7
10
 309
20
-775
30
0
0
SEQEND
8
Halfen
0
POLYLINE
8
Halfen
62
7
66
1
10
0.0
20
0.0
30
0.0
70
1
0
VERTEX
8
Halfen
62
7
10
 320.25
20
-160
30
0
0
VERTEX
8
Halfen
62
7
10
 320.25
20
-62
30
0
0
VERTEX
8
Halfen
62
7
10
 309.75
20
-62
30
0
0
VERTEX
8
Halfen
62
7
10
 309.75
20
-160
30
0
0
SEQEND
8
Halfen
0
POLYLINE
8
Halfen
62
7
66
1
10
0.0
20
0.0
30
0.0
70
1
0
VERTEX
8
Halfen
62
7
10
 321
20
-62
30
0
0
VERTEX
8
Halfen
62
7
10
 321
20
-60
30
0
0
VERTEX
8
Halfen
62
7
10
 309
20
-60
30
0
0
VERTEX
8
Halfen
62
7
10
 309
20
-62
30
0
0
SEQEND
8
Halfen
0
POLYLINE
8
Halfen
62
7
66
1
10
0.0
20
0.0
30
0.0
70
1
0
VERTEX
8
Halfen
62
7
10
 320.25
20
-60
30
0
0
VERTEX
8
Halfen
62
7
10
 320.25
20
 60
30
0
0
VERTEX
8
Halfen
62
7
10
 309.75
20
 60
30
0
0
VERTEX
8
Halfen
62
7
10
 309.75
20
-60
30
0
0
SEQEND
8
Halfen
0
POLYLINE
8
Halfen
62
7
66
1
10
0.0
20
0.0
30
0.0
70
1
0
VERTEX
8
Halfen
62
7
10
 321
20
 60
30
0
0
VERTEX
8
Halfen
62
7
10
 321
20
 62
30
0
0
VERTEX
8
Halfen
62
7
10
 309
20
 62
30
0
0
VERTEX
8
Halfen
62
7
10
 309
20
 60
30
0
0
SEQEND
8
Halfen
0
POLYLINE
8
Halfen
62
7
66
1
10
0.0
20
0.0
30
0.0
70
1
0
VERTEX
8
Halfen
62
7
10
 320.25
20
 62
30
0
0
VERTEX
8
Halfen
62
7
10
 320.25
20
 160
30
0
0
VERTEX
8
Halfen
62
7
10
 309.75
20
 160
30
0
0
VERTEX
8
Halfen
62
7
10
 309.75
20
 62
30
0
0
SEQEND
8
Halfen
0
POLYLINE
8
Halfen
62
7
66
1
10
0.0
20
0.0
30
0.0
70
1
0
VERTEX
8
Halfen
62
7
10
 321
20
 160
30
0
0
VERTEX
8
Halfen
62
7
10
 321
20
 775
30
0
0
VERTEX
8
Halfen
62
7
10
 309
20
 775
30
0
0
VERTEX
8
Halfen
62
7
10
 309
20
 160
30
0
0
SEQEND
8
Halfen
0
POLYLINE
8
Halfen
62
7
66
1
10
0.0
20
0.0
30
0.0
70
1
0
VERTEX
8
Halfen
62
7
10
 386
20
-775
30
0
0
VERTEX
8
Halfen
62
7
10
 386
20
-160
30
0
0
VERTEX
8
Halfen
62
7
10
 374
20
-160
30
0
0
VERTEX
8
Halfen
62
7
10
 374
20
-775
30
0
0
SEQEND
8
Halfen
0
POLYLINE
8
Halfen
62
7
66
1
10
0.0
20
0.0
30
0.0
70
1
0
VERTEX
8
Halfen
62
7
10
 385.25
20
-160
30
0
0
VERTEX
8
Halfen
62
7
10
 385.25
20
-62
30
0
0
VERTEX
8
Halfen
62
7
10
 374.75
20
-62
30
0
0
VERTEX
8
Halfen
62
7
10
 374.75
20
-160
30
0
0
SEQEND
8
Halfen
0
POLYLINE
8
Halfen
62
7
66
1
10
0.0
20
0.0
30
0.0
70
1
0
VERTEX
8
Halfen
62
7
10
 386
20
-62
30
0
0
VERTEX
8
Halfen
62
7
10
 386
20
-60
30
0
0
VERTEX
8
Halfen
62
7
10
 374
20
-60
30
0
0
VERTEX
8
Halfen
62
7
10
 374
20
-62
30
0
0
SEQEND
8
Halfen
0
POLYLINE
8
Halfen
62
7
66
1
10
0.0
20
0.0
30
0.0
70
1
0
VERTEX
8
Halfen
62
7
10
 385.25
20
-60
30
0
0
VERTEX
8
Halfen
62
7
10
 385.25
20
 60
30
0
0
VERTEX
8
Halfen
62
7
10
 374.75
20
 60
30
0
0
VERTEX
8
Halfen
62
7
10
 374.75
20
-60
30
0
0
SEQEND
8
Halfen
0
POLYLINE
8
Halfen
62
7
66
1
10
0.0
20
0.0
30
0.0
70
1
0
VERTEX
8
Halfen
62
7
10
 386
20
 60
30
0
0
VERTEX
8
Halfen
62
7
10
 386
20
 62
30
0
0
VERTEX
8
Halfen
62
7
10
 374
20
 62
30
0
0
VERTEX
8
Halfen
62
7
10
 374
20
 60
30
0
0
SEQEND
8
Halfen
0
POLYLINE
8
Halfen
62
7
66
1
10
0.0
20
0.0
30
0.0
70
1
0
VERTEX
8
Halfen
62
7
10
 385.25
20
 62
30
0
0
VERTEX
8
Halfen
62
7
10
 385.25
20
 160
30
0
0
VERTEX
8
Halfen
62
7
10
 374.75
20
 160
30
0
0
VERTEX
8
Halfen
62
7
10
 374.75
20
 62
30
0
0
SEQEND
8
Halfen
0
POLYLINE
8
Halfen
62
7
66
1
10
0.0
20
0.0
30
0.0
70
1
0
VERTEX
8
Halfen
62
7
10
 386
20
 160
30
0
0
VERTEX
8
Halfen
62
7
10
 386
20
 775
30
0
0
VERTEX
8
Halfen
62
7
10
 374
20
 775
30
0
0
VERTEX
8
Halfen
62
7
10
 374
20
 160
30
0
0
SEQEND
8
Halfen
0
POLYLINE
8
Halfen
62
7
66
1
10
0.0
20
0.0
30
0.0
70
1
0
VERTEX
8
Halfen
62
7
10
 451
20
-775
30
0
0
VERTEX
8
Halfen
62
7
10
 451
20
-160
30
0
0
VERTEX
8
Halfen
62
7
10
 439
20
-160
30
0
0
VERTEX
8
Halfen
62
7
10
 439
20
-775
30
0
0
SEQEND
8
Halfen
0
POLYLINE
8
Halfen
62
7
66
1
10
0.0
20
0.0
30
0.0
70
1
0
VERTEX
8
Halfen
62
7
10
 450.25
20
-160
30
0
0
VERTEX
8
Halfen
62
7
10
 450.25
20
-62
30
0
0
VERTEX
8
Halfen
62
7
10
 439.75
20
-62
30
0
0
VERTEX
8
Halfen
62
7
10
 439.75
20
-160
30
0
0
SEQEND
8
Halfen
0
POLYLINE
8
Halfen
62
7
66
1
10
0.0
20
0.0
30
0.0
70
1
0
VERTEX
8
Halfen
62
7
10
 451
20
-62
30
0
0
VERTEX
8
Halfen
62
7
10
 451
20
-60
30
0
0
VERTEX
8
Halfen
62
7
10
 439
20
-60
30
0
0
VERTEX
8
Halfen
62
7
10
 439
20
-62
30
0
0
SEQEND
8
Halfen
0
POLYLINE
8
Halfen
62
7
66
1
10
0.0
20
0.0
30
0.0
70
1
0
VERTEX
8
Halfen
62
7
10
 450.25
20
-60
30
0
0
VERTEX
8
Halfen
62
7
10
 450.25
20
 60
30
0
0
VERTEX
8
Halfen
62
7
10
 439.75
20
 60
30
0
0
VERTEX
8
Halfen
62
7
10
 439.75
20
-60
30
0
0
SEQEND
8
Halfen
0
POLYLINE
8
Halfen
62
7
66
1
10
0.0
20
0.0
30
0.0
70
1
0
VERTEX
8
Halfen
62
7
10
 451
20
 60
30
0
0
VERTEX
8
Halfen
62
7
10
 451
20
 62
30
0
0
VERTEX
8
Halfen
62
7
10
 439
20
 62
30
0
0
VERTEX
8
Halfen
62
7
10
 439
20
 60
30
0
0
SEQEND
8
Halfen
0
POLYLINE
8
Halfen
62
7
66
1
10
0.0
20
0.0
30
0.0
70
1
0
VERTEX
8
Halfen
62
7
10
 450.25
20
 62
30
0
0
VERTEX
8
Halfen
62
7
10
 450.25
20
 160
30
0
0
VERTEX
8
Halfen
62
7
10
 439.75
20
 160
30
0
0
VERTEX
8
Halfen
62
7
10
 439.75
20
 62
30
0
0
SEQEND
8
Halfen
0
POLYLINE
8
Halfen
62
7
66
1
10
0.0
20
0.0
30
0.0
70
1
0
VERTEX
8
Halfen
62
7
10
 451
20
 160
30
0
0
VERTEX
8
Halfen
62
7
10
 451
20
 775
30
0
0
VERTEX
8
Halfen
62
7
10
 439
20
 775
30
0
0
VERTEX
8
Halfen
62
7
10
 439
20
 160
30
0
0
SEQEND
8
Halfen
0
POLYLINE
8
Halfen
62
7
66
1
10
0.0
20
0.0
30
0.0
70
1
0
VERTEX
8
Halfen
62
7
10
 561
20
-775
30
0
0
VERTEX
8
Halfen
62
7
10
 561
20
-160
30
0
0
VERTEX
8
Halfen
62
7
10
 549
20
-160
30
0
0
VERTEX
8
Halfen
62
7
10
 549
20
-775
30
0
0
SEQEND
8
Halfen
0
POLYLINE
8
Halfen
62
7
66
1
10
0.0
20
0.0
30
0.0
70
1
0
VERTEX
8
Halfen
62
7
10
 560.25
20
-160
30
0
0
VERTEX
8
Halfen
62
7
10
 560.25
20
-62
30
0
0
VERTEX
8
Halfen
62
7
10
 549.75
20
-62
30
0
0
VERTEX
8
Halfen
62
7
10
 549.75
20
-160
30
0
0
SEQEND
8
Halfen
0
POLYLINE
8
Halfen
62
7
66
1
10
0.0
20
0.0
30
0.0
70
1
0
VERTEX
8
Halfen
62
7
10
 561
20
-62
30
0
0
VERTEX
8
Halfen
62
7
10
 561
20
-60
30
0
0
VERTEX
8
Halfen
62
7
10
 549
20
-60
30
0
0
VERTEX
8
Halfen
62
7
10
 549
20
-62
30
0
0
SEQEND
8
Halfen
0
POLYLINE
8
Halfen
62
7
66
1
10
0.0
20
0.0
30
0.0
70
1
0
VERTEX
8
Halfen
62
7
10
 560.25
20
-60
30
0
0
VERTEX
8
Halfen
62
7
10
 560.25
20
 60
30
0
0
VERTEX
8
Halfen
62
7
10
 549.75
20
 60
30
0
0
VERTEX
8
Halfen
62
7
10
 549.75
20
-60
30
0
0
SEQEND
8
Halfen
0
POLYLINE
8
Halfen
62
7
66
1
10
0.0
20
0.0
30
0.0
70
1
0
VERTEX
8
Halfen
62
7
10
 561
20
 60
30
0
0
VERTEX
8
Halfen
62
7
10
 561
20
 62
30
0
0
VERTEX
8
Halfen
62
7
10
 549
20
 62
30
0
0
VERTEX
8
Halfen
62
7
10
 549
20
 60
30
0
0
SEQEND
8
Halfen
0
POLYLINE
8
Halfen
62
7
66
1
10
0.0
20
0.0
30
0.0
70
1
0
VERTEX
8
Halfen
62
7
10
 560.25
20
 62
30
0
0
VERTEX
8
Halfen
62
7
10
 560.25
20
 160
30
0
0
VERTEX
8
Halfen
62
7
10
 549.75
20
 160
30
0
0
VERTEX
8
Halfen
62
7
10
 549.75
20
 62
30
0
0
SEQEND
8
Halfen
0
POLYLINE
8
Halfen
62
7
66
1
10
0.0
20
0.0
30
0.0
70
1
0
VERTEX
8
Halfen
62
7
10
 561
20
 160
30
0
0
VERTEX
8
Halfen
62
7
10
 561
20
 775
30
0
0
VERTEX
8
Halfen
62
7
10
 549
20
 775
30
0
0
VERTEX
8
Halfen
62
7
10
 549
20
 160
30
0
0
SEQEND
8
Halfen
0
POLYLINE
8
Halfen
62
7
66
1
10
0.0
20
0.0
30
0.0
70
1
0
VERTEX
8
Halfen
62
7
10
 626
20
-775
30
0
0
VERTEX
8
Halfen
62
7
10
 626
20
-160
30
0
0
VERTEX
8
Halfen
62
7
10
 614
20
-160
30
0
0
VERTEX
8
Halfen
62
7
10
 614
20
-775
30
0
0
SEQEND
8
Halfen
0
POLYLINE
8
Halfen
62
7
66
1
10
0.0
20
0.0
30
0.0
70
1
0
VERTEX
8
Halfen
62
7
10
 625.25
20
-160
30
0
0
VERTEX
8
Halfen
62
7
10
 625.25
20
-62
30
0
0
VERTEX
8
Halfen
62
7
10
 614.75
20
-62
30
0
0
VERTEX
8
Halfen
62
7
10
 614.75
20
-160
30
0
0
SEQEND
8
Halfen
0
POLYLINE
8
Halfen
62
7
66
1
10
0.0
20
0.0
30
0.0
70
1
0
VERTEX
8
Halfen
62
7
10
 626
20
-62
30
0
0
VERTEX
8
Halfen
62
7
10
 626
20
-60
30
0
0
VERTEX
8
Halfen
62
7
10
 614
20
-60
30
0
0
VERTEX
8
Halfen
62
7
10
 614
20
-62
30
0
0
SEQEND
8
Halfen
0
POLYLINE
8
Halfen
62
7
66
1
10
0.0
20
0.0
30
0.0
70
1
0
VERTEX
8
Halfen
62
7
10
 625.25
20
-60
30
0
0
VERTEX
8
Halfen
62
7
10
 625.25
20
 60
30
0
0
VERTEX
8
Halfen
62
7
10
 614.75
20
 60
30
0
0
VERTEX
8
Halfen
62
7
10
 614.75
20
-60
30
0
0
SEQEND
8
Halfen
0
POLYLINE
8
Halfen
62
7
66
1
10
0.0
20
0.0
30
0.0
70
1
0
VERTEX
8
Halfen
62
7
10
 626
20
 60
30
0
0
VERTEX
8
Halfen
62
7
10
 626
20
 62
30
0
0
VERTEX
8
Halfen
62
7
10
 614
20
 62
30
0
0
VERTEX
8
Halfen
62
7
10
 614
20
 60
30
0
0
SEQEND
8
Halfen
0
POLYLINE
8
Halfen
62
7
66
1
10
0.0
20
0.0
30
0.0
70
1
0
VERTEX
8
Halfen
62
7
10
 625.25
20
 62
30
0
0
VERTEX
8
Halfen
62
7
10
 625.25
20
 160
30
0
0
VERTEX
8
Halfen
62
7
10
 614.75
20
 160
30
0
0
VERTEX
8
Halfen
62
7
10
 614.75
20
 62
30
0
0
SEQEND
8
Halfen
0
POLYLINE
8
Halfen
62
7
66
1
10
0.0
20
0.0
30
0.0
70
1
0
VERTEX
8
Halfen
62
7
10
 626
20
 160
30
0
0
VERTEX
8
Halfen
62
7
10
 626
20
 775
30
0
0
VERTEX
8
Halfen
62
7
10
 614
20
 775
30
0
0
VERTEX
8
Halfen
62
7
10
 614
20
 160
30
0
0
SEQEND
8
Halfen
0
POLYLINE
8
Halfen
62
7
66
1
10
0.0
20
0.0
30
0.0
70
1
0
VERTEX
8
Halfen
62
7
10
 691
20
-775
30
0
0
VERTEX
8
Halfen
62
7
10
 691
20
-160
30
0
0
VERTEX
8
Halfen
62
7
10
 679
20
-160
30
0
0
VERTEX
8
Halfen
62
7
10
 679
20
-775
30
0
0
SEQEND
8
Halfen
0
POLYLINE
8
Halfen
62
7
66
1
10
0.0
20
0.0
30
0.0
70
1
0
VERTEX
8
Halfen
62
7
10
 690.25
20
-160
30
0
0
VERTEX
8
Halfen
62
7
10
 690.25
20
-62
30
0
0
VERTEX
8
Halfen
62
7
10
 679.75
20
-62
30
0
0
VERTEX
8
Halfen
62
7
10
 679.75
20
-160
30
0
0
SEQEND
8
Halfen
0
POLYLINE
8
Halfen
62
7
66
1
10
0.0
20
0.0
30
0.0
70
1
0
VERTEX
8
Halfen
62
7
10
 691
20
-62
30
0
0
VERTEX
8
Halfen
62
7
10
 691
20
-60
30
0
0
VERTEX
8
Halfen
62
7
10
 679
20
-60
30
0
0
VERTEX
8
Halfen
62
7
10
 679
20
-62
30
0
0
SEQEND
8
Halfen
0
POLYLINE
8
Halfen
62
7
66
1
10
0.0
20
0.0
30
0.0
70
1
0
VERTEX
8
Halfen
62
7
10
 690.25
20
-60
30
0
0
VERTEX
8
Halfen
62
7
10
 690.25
20
 60
30
0
0
VERTEX
8
Halfen
62
7
10
 679.75
20
 60
30
0
0
VERTEX
8
Halfen
62
7
10
 679.75
20
-60
30
0
0
SEQEND
8
Halfen
0
POLYLINE
8
Halfen
62
7
66
1
10
0.0
20
0.0
30
0.0
70
1
0
VERTEX
8
Halfen
62
7
10
 691
20
 60
30
0
0
VERTEX
8
Halfen
62
7
10
 691
20
 62
30
0
0
VERTEX
8
Halfen
62
7
10
 679
20
 62
30
0
0
VERTEX
8
Halfen
62
7
10
 679
20
 60
30
0
0
SEQEND
8
Halfen
0
POLYLINE
8
Halfen
62
7
66
1
10
0.0
20
0.0
30
0.0
70
1
0
VERTEX
8
Halfen
62
7
10
 690.25
20
 62
30
0
0
VERTEX
8
Halfen
62
7
10
 690.25
20
 160
30
0
0
VERTEX
8
Halfen
62
7
10
 679.75
20
 160
30
0
0
VERTEX
8
Halfen
62
7
10
 679.75
20
 62
30
0
0
SEQEND
8
Halfen
0
POLYLINE
8
Halfen
62
7
66
1
10
0.0
20
0.0
30
0.0
70
1
0
VERTEX
8
Halfen
62
7
10
 691
20
 160
30
0
0
VERTEX
8
Halfen
62
7
10
 691
20
 775
30
0
0
VERTEX
8
Halfen
62
7
10
 679
20
 775
30
0
0
VERTEX
8
Halfen
62
7
10
 679
20
 160
30
0
0
SEQEND
8
Halfen
0
POLYLINE
8
Halfen
62
7
66
1
10
0.0
20
0.0
30
0.0
70
1
0
VERTEX
8
Halfen
62
7
10
 756
20
-775
30
0
0
VERTEX
8
Halfen
62
7
10
 756
20
-160
30
0
0
VERTEX
8
Halfen
62
7
10
 744
20
-160
30
0
0
VERTEX
8
Halfen
62
7
10
 744
20
-775
30
0
0
SEQEND
8
Halfen
0
POLYLINE
8
Halfen
62
7
66
1
10
0.0
20
0.0
30
0.0
70
1
0
VERTEX
8
Halfen
62
7
10
 755.25
20
-160
30
0
0
VERTEX
8
Halfen
62
7
10
 755.25
20
-62
30
0
0
VERTEX
8
Halfen
62
7
10
 744.75
20
-62
30
0
0
VERTEX
8
Halfen
62
7
10
 744.75
20
-160
30
0
0
SEQEND
8
Halfen
0
POLYLINE
8
Halfen
62
7
66
1
10
0.0
20
0.0
30
0.0
70
1
0
VERTEX
8
Halfen
62
7
10
 756
20
-62
30
0
0
VERTEX
8
Halfen
62
7
10
 756
20
-60
30
0
0
VERTEX
8
Halfen
62
7
10
 744
20
-60
30
0
0
VERTEX
8
Halfen
62
7
10
 744
20
-62
30
0
0
SEQEND
8
Halfen
0
POLYLINE
8
Halfen
62
7
66
1
10
0.0
20
0.0
30
0.0
70
1
0
VERTEX
8
Halfen
62
7
10
 755.25
20
-60
30
0
0
VERTEX
8
Halfen
62
7
10
 755.25
20
 60
30
0
0
VERTEX
8
Halfen
62
7
10
 744.75
20
 60
30
0
0
VERTEX
8
Halfen
62
7
10
 744.75
20
-60
30
0
0
SEQEND
8
Halfen
0
POLYLINE
8
Halfen
62
7
66
1
10
0.0
20
0.0
30
0.0
70
1
0
VERTEX
8
Halfen
62
7
10
 756
20
 60
30
0
0
VERTEX
8
Halfen
62
7
10
 756
20
 62
30
0
0
VERTEX
8
Halfen
62
7
10
 744
20
 62
30
0
0
VERTEX
8
Halfen
62
7
10
 744
20
 60
30
0
0
SEQEND
8
Halfen
0
POLYLINE
8
Halfen
62
7
66
1
10
0.0
20
0.0
30
0.0
70
1
0
VERTEX
8
Halfen
62
7
10
 755.25
20
 62
30
0
0
VERTEX
8
Halfen
62
7
10
 755.25
20
 160
30
0
0
VERTEX
8
Halfen
62
7
10
 744.75
20
 160
30
0
0
VERTEX
8
Halfen
62
7
10
 744.75
20
 62
30
0
0
SEQEND
8
Halfen
0
POLYLINE
8
Halfen
62
7
66
1
10
0.0
20
0.0
30
0.0
70
1
0
VERTEX
8
Halfen
62
7
10
 756
20
 160
30
0
0
VERTEX
8
Halfen
62
7
10
 756
20
 775
30
0
0
VERTEX
8
Halfen
62
7
10
 744
20
 775
30
0
0
VERTEX
8
Halfen
62
7
10
 744
20
 160
30
0
0
SEQEND
8
Halfen
0
POLYLINE
8
Halfen
62
7
66
1
10
0.0
20
0.0
30
0.0
70
1
0
VERTEX
8
Halfen
62
7
10
 821
20
-775
30
0
0
VERTEX
8
Halfen
62
7
10
 821
20
-160
30
0
0
VERTEX
8
Halfen
62
7
10
 809
20
-160
30
0
0
VERTEX
8
Halfen
62
7
10
 809
20
-775
30
0
0
SEQEND
8
Halfen
0
POLYLINE
8
Halfen
62
7
66
1
10
0.0
20
0.0
30
0.0
70
1
0
VERTEX
8
Halfen
62
7
10
 820.25
20
-160
30
0
0
VERTEX
8
Halfen
62
7
10
 820.25
20
-62
30
0
0
VERTEX
8
Halfen
62
7
10
 809.75
20
-62
30
0
0
VERTEX
8
Halfen
62
7
10
 809.75
20
-160
30
0
0
SEQEND
8
Halfen
0
POLYLINE
8
Halfen
62
7
66
1
10
0.0
20
0.0
30
0.0
70
1
0
VERTEX
8
Halfen
62
7
10
 821
20
-62
30
0
0
VERTEX
8
Halfen
62
7
10
 821
20
-60
30
0
0
VERTEX
8
Halfen
62
7
10
 809
20
-60
30
0
0
VERTEX
8
Halfen
62
7
10
 809
20
-62
30
0
0
SEQEND
8
Halfen
0
POLYLINE
8
Halfen
62
7
66
1
10
0.0
20
0.0
30
0.0
70
1
0
VERTEX
8
Halfen
62
7
10
 820.25
20
-60
30
0
0
VERTEX
8
Halfen
62
7
10
 820.25
20
 60
30
0
0
VERTEX
8
Halfen
62
7
10
 809.75
20
 60
30
0
0
VERTEX
8
Halfen
62
7
10
 809.75
20
-60
30
0
0
SEQEND
8
Halfen
0
POLYLINE
8
Halfen
62
7
66
1
10
0.0
20
0.0
30
0.0
70
1
0
VERTEX
8
Halfen
62
7
10
 821
20
 60
30
0
0
VERTEX
8
Halfen
62
7
10
 821
20
 62
30
0
0
VERTEX
8
Halfen
62
7
10
 809
20
 62
30
0
0
VERTEX
8
Halfen
62
7
10
 809
20
 60
30
0
0
SEQEND
8
Halfen
0
POLYLINE
8
Halfen
62
7
66
1
10
0.0
20
0.0
30
0.0
70
1
0
VERTEX
8
Halfen
62
7
10
 820.25
20
 62
30
0
0
VERTEX
8
Halfen
62
7
10
 820.25
20
 160
30
0
0
VERTEX
8
Halfen
62
7
10
 809.75
20
 160
30
0
0
VERTEX
8
Halfen
62
7
10
 809.75
20
 62
30
0
0
SEQEND
8
Halfen
0
POLYLINE
8
Halfen
62
7
66
1
10
0.0
20
0.0
30
0.0
70
1
0
VERTEX
8
Halfen
62
7
10
 821
20
 160
30
0
0
VERTEX
8
Halfen
62
7
10
 821
20
 775
30
0
0
VERTEX
8
Halfen
62
7
10
 809
20
 775
30
0
0
VERTEX
8
Halfen
62
7
10
 809
20
 160
30
0
0
SEQEND
8
Halfen
0
POLYLINE
8
Halfen
62
7
66
1
10
0.0
20
0.0
30
0.0
70
1
0
VERTEX
8
Halfen
62
7
10
 886
20
-775
30
0
0
VERTEX
8
Halfen
62
7
10
 886
20
-160
30
0
0
VERTEX
8
Halfen
62
7
10
 874
20
-160
30
0
0
VERTEX
8
Halfen
62
7
10
 874
20
-775
30
0
0
SEQEND
8
Halfen
0
POLYLINE
8
Halfen
62
7
66
1
10
0.0
20
0.0
30
0.0
70
1
0
VERTEX
8
Halfen
62
7
10
 885.25
20
-160
30
0
0
VERTEX
8
Halfen
62
7
10
 885.25
20
-62
30
0
0
VERTEX
8
Halfen
62
7
10
 874.75
20
-62
30
0
0
VERTEX
8
Halfen
62
7
10
 874.75
20
-160
30
0
0
SEQEND
8
Halfen
0
POLYLINE
8
Halfen
62
7
66
1
10
0.0
20
0.0
30
0.0
70
1
0
VERTEX
8
Halfen
62
7
10
 886
20
-62
30
0
0
VERTEX
8
Halfen
62
7
10
 886
20
-60
30
0
0
VERTEX
8
Halfen
62
7
10
 874
20
-60
30
0
0
VERTEX
8
Halfen
62
7
10
 874
20
-62
30
0
0
SEQEND
8
Halfen
0
POLYLINE
8
Halfen
62
7
66
1
10
0.0
20
0.0
30
0.0
70
1
0
VERTEX
8
Halfen
62
7
10
 885.25
20
-60
30
0
0
VERTEX
8
Halfen
62
7
10
 885.25
20
 60
30
0
0
VERTEX
8
Halfen
62
7
10
 874.75
20
 60
30
0
0
VERTEX
8
Halfen
62
7
10
 874.75
20
-60
30
0
0
SEQEND
8
Halfen
0
POLYLINE
8
Halfen
62
7
66
1
10
0.0
20
0.0
30
0.0
70
1
0
VERTEX
8
Halfen
62
7
10
 886
20
 60
30
0
0
VERTEX
8
Halfen
62
7
10
 886
20
 62
30
0
0
VERTEX
8
Halfen
62
7
10
 874
20
 62
30
0
0
VERTEX
8
Halfen
62
7
10
 874
20
 60
30
0
0
SEQEND
8
Halfen
0
POLYLINE
8
Halfen
62
7
66
1
10
0.0
20
0.0
30
0.0
70
1
0
VERTEX
8
Halfen
62
7
10
 885.25
20
 62
30
0
0
VERTEX
8
Halfen
62
7
10
 885.25
20
 160
30
0
0
VERTEX
8
Halfen
62
7
10
 874.75
20
 160
30
0
0
VERTEX
8
Halfen
62
7
10
 874.75
20
 62
30
0
0
SEQEND
8
Halfen
0
POLYLINE
8
Halfen
62
7
66
1
10
0.0
20
0.0
30
0.0
70
1
0
VERTEX
8
Halfen
62
7
10
 886
20
 160
30
0
0
VERTEX
8
Halfen
62
7
10
 886
20
 775
30
0
0
VERTEX
8
Halfen
62
7
10
 874
20
 775
30
0
0
VERTEX
8
Halfen
62
7
10
 874
20
 160
30
0
0
SEQEND
8
Halfen
0
POLYLINE
8
Halfen
62
7
66
1
10
0.0
20
0.0
30
0.0
70
1
0
VERTEX
8
Halfen
62
7
10
 951
20
-775
30
0
0
VERTEX
8
Halfen
62
7
10
 951
20
-160
30
0
0
VERTEX
8
Halfen
62
7
10
 939
20
-160
30
0
0
VERTEX
8
Halfen
62
7
10
 939
20
-775
30
0
0
SEQEND
8
Halfen
0
POLYLINE
8
Halfen
62
7
66
1
10
0.0
20
0.0
30
0.0
70
1
0
VERTEX
8
Halfen
62
7
10
 950.25
20
-160
30
0
0
VERTEX
8
Halfen
62
7
10
 950.25
20
-62
30
0
0
VERTEX
8
Halfen
62
7
10
 939.75
20
-62
30
0
0
VERTEX
8
Halfen
62
7
10
 939.75
20
-160
30
0
0
SEQEND
8
Halfen
0
POLYLINE
8
Halfen
62
7
66
1
10
0.0
20
0.0
30
0.0
70
1
0
VERTEX
8
Halfen
62
7
10
 951
20
-62
30
0
0
VERTEX
8
Halfen
62
7
10
 951
20
-60
30
0
0
VERTEX
8
Halfen
62
7
10
 939
20
-60
30
0
0
VERTEX
8
Halfen
62
7
10
 939
20
-62
30
0
0
SEQEND
8
Halfen
0
POLYLINE
8
Halfen
62
7
66
1
10
0.0
20
0.0
30
0.0
70
1
0
VERTEX
8
Halfen
62
7
10
 950.25
20
-60
30
0
0
VERTEX
8
Halfen
62
7
10
 950.25
20
 60
30
0
0
VERTEX
8
Halfen
62
7
10
 939.75
20
 60
30
0
0
VERTEX
8
Halfen
62
7
10
 939.75
20
-60
30
0
0
SEQEND
8
Halfen
0
POLYLINE
8
Halfen
62
7
66
1
10
0.0
20
0.0
30
0.0
70
1
0
VERTEX
8
Halfen
62
7
10
 951
20
 60
30
0
0
VERTEX
8
Halfen
62
7
10
 951
20
 62
30
0
0
VERTEX
8
Halfen
62
7
10
 939
20
 62
30
0
0
VERTEX
8
Halfen
62
7
10
 939
20
 60
30
0
0
SEQEND
8
Halfen
0
POLYLINE
8
Halfen
62
7
66
1
10
0.0
20
0.0
30
0.0
70
1
0
VERTEX
8
Halfen
62
7
10
 950.25
20
 62
30
0
0
VERTEX
8
Halfen
62
7
10
 950.25
20
 160
30
0
0
VERTEX
8
Halfen
62
7
10
 939.75
20
 160
30
0
0
VERTEX
8
Halfen
62
7
10
 939.75
20
 62
30
0
0
SEQEND
8
Halfen
0
POLYLINE
8
Halfen
62
7
66
1
10
0.0
20
0.0
30
0.0
70
1
0
VERTEX
8
Halfen
62
7
10
 951
20
 160
30
0
0
VERTEX
8
Halfen
62
7
10
 951
20
 775
30
0
0
VERTEX
8
Halfen
62
7
10
 939
20
 775
30
0
0
VERTEX
8
Halfen
62
7
10
 939
20
 160
30
0
0
SEQEND
8
Halfen
0
POLYLINE
8
Halfen
62
7
66
1
10
0.0
20
0.0
30
0.0
70
1
0
VERTEX
8
Halfen
62
7
10
 1470
20
-60
30
0
0
VERTEX
8
Halfen
62
7
10
 1470
20
 60
30
0
0
VERTEX
8
Halfen
62
7
10
 1456.5
20
 73.5
30
0
0
VERTEX
8
Halfen
62
7
10
 1456.5
20
 60
30
0
0
VERTEX
8
Halfen
62
7
10
 1270
20
 60
30
0
0
VERTEX
8
Halfen
62
7
10
 1270
20
-60
30
0
0
VERTEX
8
Halfen
62
7
10
 1456.5
20
-60
30
0
0
VERTEX
8
Halfen
62
7
10
 1456.5
20
-73.5
30
0
0
SEQEND
8
Halfen
0
POLYLINE
8
Halfen
62
7
66
1
10
0.0
20
0.0
30
0.0
70
1
0
VERTEX
8
Halfen
62
7
10
 1270
20
-60
30
0
0
VERTEX
8
Halfen
62
7
10
 1270
20
 60
30
0
0
VERTEX
8
Halfen
62
7
10
 1213.5
20
 60
30
0
0
VERTEX
8
Halfen
62
7
10
 1213.5
20
 73.5
30
0
0
VERTEX
8
Halfen
62
7
10
 1200
20
 60
30
0
0
VERTEX
8
Halfen
62
7
10
 1200
20
-60
30
0
0
VERTEX
8
Halfen
62
7
10
 1213.5
20
-73.5
30
0
0
VERTEX
8
Halfen
62
7
10
 1213.5
20
-60
30
0
0
SEQEND
8
Halfen
0
POLYLINE
8
Halfen
62
7
66
1
10
0.0
20
0.0
30
0.0
70
1
0
VERTEX
8
Halfen
62
7
10
 1467.5
20
-58.75
30
0
0
VERTEX
8
Halfen
62
7
10
 1467.5
20
 58.75
30
0
0
VERTEX
8
Halfen
62
7
10
 1459
20
 67.25
30
0
0
VERTEX
8
Halfen
62
7
10
 1459
20
 58
30
0
0
VERTEX
8
Halfen
62
7
10
 1272
20
 58
30
0
0
VERTEX
8
Halfen
62
7
10
 1272
20
-58
30
0
0
VERTEX
8
Halfen
62
7
10
 1459
20
-58
30
0
0
VERTEX
8
Halfen
62
7
10
 1459
20
-67.25
30
0
0
SEQEND
8
Halfen
0
POLYLINE
8
Halfen
62
7
66
1
10
0.0
20
0.0
30
0.0
70
1
0
VERTEX
8
Halfen
62
7
10
 1268
20
-58
30
0
0
VERTEX
8
Halfen
62
7
10
 1268
20
 58
30
0
0
VERTEX
8
Halfen
62
7
10
 1211
20
 58
30
0
0
VERTEX
8
Halfen
62
7
10
 1211
20
 67.25
30
0
0
VERTEX
8
Halfen
62
7
10
 1202.5
20
 58.75
30
0
0
VERTEX
8
Halfen
62
7
10
 1202.5
20
-58.75
30
0
0
VERTEX
8
Halfen
62
7
10
 1211
20
-67.25
30
0
0
VERTEX
8
Halfen
62
7
10
 1211
20
-58
30
0
0
SEQEND
8
Halfen
0
POLYLINE
8
Halfen
62
7
66
1
10
0.0
20
0.0
30
0.0
70
1
0
VERTEX
8
Halfen
62
7
10
 1455
20
-81.8
30
0
0
VERTEX
8
Halfen
62
7
10
 1455
20
 81.8
30
0
0
VERTEX
8
Halfen
62
7
10
 1451
20
 81.8
30
0
0
VERTEX
8
Halfen
62
7
10
 1450.846
20
 81.797
30
0
0
VERTEX
8
Halfen
62
7
10
 1450.691
20
 81.786
30
0
0
VERTEX
8
Halfen
62
7
10
 1450.538
20
 81.769
30
0
0
VERTEX
8
Halfen
62
7
10
 1450.385
20
 81.746
30
0
0
VERTEX
8
Halfen
62
7
10
 1450.234
20
 81.715
30
0
0
VERTEX
8
Halfen
62
7
10
 1450.084
20
 81.678
30
0
0
VERTEX
8
Halfen
62
7
10
 1449.936
20
 81.634
30
0
0
VERTEX
8
Halfen
62
7
10
 1449.789
20
 81.584
30
0
0
VERTEX
8
Halfen
62
7
10
 1449.646
20
 81.527
30
0
0
VERTEX
8
Halfen
62
7
10
 1449.505
20
 81.464
30
0
0
VERTEX
8
Halfen
62
7
10
 1449.366
20
 81.395
30
0
0
VERTEX
8
Halfen
62
7
10
 1449.231
20
 81.32
30
0
0
VERTEX
8
Halfen
62
7
10
 1449.1
20
 81.239
30
0
0
VERTEX
8
Halfen
62
7
10
 1448.972
20
 81.153
30
0
0
VERTEX
8
Halfen
62
7
10
 1448.848
20
 81.06
30
0
0
VERTEX
8
Halfen
62
7
10
 1448.728
20
 80.963
30
0
0
VERTEX
8
Halfen
62
7
10
 1448.613
20
 80.86
30
0
0
VERTEX
8
Halfen
62
7
10
 1448.502
20
 80.752
30
0
0
VERTEX
8
Halfen
62
7
10
 1448.397
20
 80.639
30
0
0
VERTEX
8
Halfen
62
7
10
 1448.296
20
 80.522
30
0
0
VERTEX
8
Halfen
62
7
10
 1447.41
20
 79.491
30
0
0
VERTEX
8
Halfen
62
7
10
 1446.479
20
 78.5
30
0
0
VERTEX
8
Halfen
62
7
10
 1445.505
20
 77.551
30
0
0
VERTEX
8
Halfen
62
7
10
 1444.491
20
 76.646
30
0
0
VERTEX
8
Halfen
62
7
10
 1443.437
20
 75.787
30
0
0
VERTEX
8
Halfen
62
7
10
 1442.347
20
 74.975
30
0
0
VERTEX
8
Halfen
62
7
10
 1441.222
20
 74.211
30
0
0
VERTEX
8
Halfen
62
7
10
 1440.064
20
 73.499
30
0
0
VERTEX
8
Halfen
62
7
10
 1438.876
20
 72.838
30
0
0
VERTEX
8
Halfen
62
7
10
 1437.66
20
 72.23
30
0
0
VERTEX
8
Halfen
62
7
10
 1436.418
20
 71.676
30
0
0
VERTEX
8
Halfen
62
7
10
 1435.153
20
 71.178
30
0
0
VERTEX
8
Halfen
62
7
10
 1433.867
20
 70.736
30
0
0
VERTEX
8
Halfen
62
7
10
 1432.563
20
 70.351
30
0
0
VERTEX
8
Halfen
62
7
10
 1431.243
20
 70.024
30
0
0
VERTEX
8
Halfen
62
7
10
 1429.911
20
 69.756
30
0
0
VERTEX
8
Halfen
62
7
10
 1428.567
20
 69.547
30
0
0
VERTEX
8
Halfen
62
7
10
 1427.216
20
 69.397
30
0
0
VERTEX
8
Halfen
62
7
10
 1425.859
20
 69.307
30
0
0
VERTEX
8
Halfen
62
7
10
 1424.5
20
 69.277
30
0
0
VERTEX
8
Halfen
62
7
10
 1402.5
20
 69.277
30
0
0
VERTEX
8
Halfen
62
7
10
 1401.141
20
 69.307
30
0
0
VERTEX
8
Halfen
62
7
10
 1399.784
20
 69.397
30
0
0
VERTEX
8
Halfen
62
7
10
 1398.433
20
 69.547
30
0
0
VERTEX
8
Halfen
62
7
10
 1397.089
20
 69.756
30
0
0
VERTEX
8
Halfen
62
7
10
 1395.757
20
 70.024
30
0
0
VERTEX
8
Halfen
62
7
10
 1394.437
20
 70.351
30
0
0
VERTEX
8
Halfen
62
7
10
 1393.133
20
 70.736
30
0
0
VERTEX
8
Halfen
62
7
10
 1391.847
20
 71.178
30
0
0
VERTEX
8
Halfen
62
7
10
 1390.582
20
 71.676
30
0
0
VERTEX
8
Halfen
62
7
10
 1389.34
20
 72.23
30
0
0
VERTEX
8
Halfen
62
7
10
 1388.124
20
 72.838
30
0
0
VERTEX
8
Halfen
62
7
10
 1386.936
20
 73.499
30
0
0
VERTEX
8
Halfen
62
7
10
 1385.778
20
 74.211
30
0
0
VERTEX
8
Halfen
62
7
10
 1384.653
20
 74.975
30
0
0
VERTEX
8
Halfen
62
7
10
 1383.563
20
 75.787
30
0
0
VERTEX
8
Halfen
62
7
10
 1382.509
20
 76.646
30
0
0
VERTEX
8
Halfen
62
7
10
 1381.495
20
 77.551
30
0
0
VERTEX
8
Halfen
62
7
10
 1380.521
20
 78.5
30
0
0
VERTEX
8
Halfen
62
7
10
 1379.59
20
 79.491
30
0
0
VERTEX
8
Halfen
62
7
10
 1378.704
20
 80.522
30
0
0
VERTEX
8
Halfen
62
7
10
 1378.603
20
 80.639
30
0
0
VERTEX
8
Halfen
62
7
10
 1378.498
20
 80.752
30
0
0
VERTEX
8
Halfen
62
7
10
 1378.387
20
 80.86
30
0
0
VERTEX
8
Halfen
62
7
10
 1378.272
20
 80.963
30
0
0
VERTEX
8
Halfen
62
7
10
 1378.152
20
 81.06
30
0
0
VERTEX
8
Halfen
62
7
10
 1378.028
20
 81.153
30
0
0
VERTEX
8
Halfen
62
7
10
 1377.9
20
 81.239
30
0
0
VERTEX
8
Halfen
62
7
10
 1377.769
20
 81.32
30
0
0
VERTEX
8
Halfen
62
7
10
 1377.634
20
 81.395
30
0
0
VERTEX
8
Halfen
62
7
10
 1377.495
20
 81.464
30
0
0
VERTEX
8
Halfen
62
7
10
 1377.354
20
 81.527
30
0
0
VERTEX
8
Halfen
62
7
10
 1377.211
20
 81.584
30
0
0
VERTEX
8
Halfen
62
7
10
 1377.064
20
 81.634
30
0
0
VERTEX
8
Halfen
62
7
10
 1376.916
20
 81.678
30
0
0
VERTEX
8
Halfen
62
7
10
 1376.766
20
 81.715
30
0
0
VERTEX
8
Halfen
62
7
10
 1376.615
20
 81.746
30
0
0
VERTEX
8
Halfen
62
7
10
 1376.462
20
 81.769
30
0
0
VERTEX
8
Halfen
62
7
10
 1376.309
20
 81.786
30
0
0
VERTEX
8
Halfen
62
7
10
 1376.154
20
 81.797
30
0
0
VERTEX
8
Halfen
62
7
10
 1376
20
 81.8
30
0
0
VERTEX
8
Halfen
62
7
10
 1372
20
 81.8
30
0
0
VERTEX
8
Halfen
62
7
10
 1372
20
-81.8
30
0
0
VERTEX
8
Halfen
62
7
10
 1376
20
-81.8
30
0
0
VERTEX
8
Halfen
62
7
10
 1376.154
20
-81.797
30
0
0
VERTEX
8
Halfen
62
7
10
 1376.309
20
-81.786
30
0
0
VERTEX
8
Halfen
62
7
10
 1376.462
20
-81.769
30
0
0
VERTEX
8
Halfen
62
7
10
 1376.615
20
-81.746
30
0
0
VERTEX
8
Halfen
62
7
10
 1376.766
20
-81.715
30
0
0
VERTEX
8
Halfen
62
7
10
 1376.916
20
-81.678
30
0
0
VERTEX
8
Halfen
62
7
10
 1377.064
20
-81.634
30
0
0
VERTEX
8
Halfen
62
7
10
 1377.211
20
-81.584
30
0
0
VERTEX
8
Halfen
62
7
10
 1377.354
20
-81.527
30
0
0
VERTEX
8
Halfen
62
7
10
 1377.495
20
-81.464
30
0
0
VERTEX
8
Halfen
62
7
10
 1377.634
20
-81.395
30
0
0
VERTEX
8
Halfen
62
7
10
 1377.769
20
-81.32
30
0
0
VERTEX
8
Halfen
62
7
10
 1377.9
20
-81.239
30
0
0
VERTEX
8
Halfen
62
7
10
 1378.028
20
-81.153
30
0
0
VERTEX
8
Halfen
62
7
10
 1378.152
20
-81.06
30
0
0
VERTEX
8
Halfen
62
7
10
 1378.272
20
-80.963
30
0
0
VERTEX
8
Halfen
62
7
10
 1378.387
20
-80.86
30
0
0
VERTEX
8
Halfen
62
7
10
 1378.498
20
-80.752
30
0
0
VERTEX
8
Halfen
62
7
10
 1378.603
20
-80.639
30
0
0
VERTEX
8
Halfen
62
7
10
 1378.704
20
-80.522
30
0
0
VERTEX
8
Halfen
62
7
10
 1379.59
20
-79.491
30
0
0
VERTEX
8
Halfen
62
7
10
 1380.521
20
-78.5
30
0
0
VERTEX
8
Halfen
62
7
10
 1381.495
20
-77.551
30
0
0
VERTEX
8
Halfen
62
7
10
 1382.509
20
-76.646
30
0
0
VERTEX
8
Halfen
62
7
10
 1383.563
20
-75.787
30
0
0
VERTEX
8
Halfen
62
7
10
 1384.653
20
-74.975
30
0
0
VERTEX
8
Halfen
62
7
10
 1385.778
20
-74.211
30
0
0
VERTEX
8
Halfen
62
7
10
 1386.936
20
-73.499
30
0
0
VERTEX
8
Halfen
62
7
10
 1388.124
20
-72.838
30
0
0
VERTEX
8
Halfen
62
7
10
 1389.34
20
-72.23
30
0
0
VERTEX
8
Halfen
62
7
10
 1390.582
20
-71.676
30
0
0
VERTEX
8
Halfen
62
7
10
 1391.847
20
-71.178
30
0
0
VERTEX
8
Halfen
62
7
10
 1393.133
20
-70.736
30
0
0
VERTEX
8
Halfen
62
7
10
 1394.437
20
-70.351
30
0
0
VERTEX
8
Halfen
62
7
10
 1395.757
20
-70.024
30
0
0
VERTEX
8
Halfen
62
7
10
 1397.089
20
-69.756
30
0
0
VERTEX
8
Halfen
62
7
10
 1398.433
20
-69.547
30
0
0
VERTEX
8
Halfen
62
7
10
 1399.784
20
-69.397
30
0
0
VERTEX
8
Halfen
62
7
10
 1401.141
20
-69.307
30
0
0
VERTEX
8
Halfen
62
7
10
 1402.5
20
-69.277
30
0
0
VERTEX
8
Halfen
62
7
10
 1424.5
20
-69.277
30
0
0
VERTEX
8
Halfen
62
7
10
 1425.859
20
-69.307
30
0
0
VERTEX
8
Halfen
62
7
10
 1427.216
20
-69.397
30
0
0
VERTEX
8
Halfen
62
7
10
 1428.567
20
-69.547
30
0
0
VERTEX
8
Halfen
62
7
10
 1429.911
20
-69.756
30
0
0
VERTEX
8
Halfen
62
7
10
 1431.243
20
-70.024
30
0
0
VERTEX
8
Halfen
62
7
10
 1432.563
20
-70.351
30
0
0
VERTEX
8
Halfen
62
7
10
 1433.867
20
-70.736
30
0
0
VERTEX
8
Halfen
62
7
10
 1435.153
20
-71.178
30
0
0
VERTEX
8
Halfen
62
7
10
 1436.418
20
-71.676
30
0
0
VERTEX
8
Halfen
62
7
10
 1437.66
20
-72.23
30
0
0
VERTEX
8
Halfen
62
7
10
 1438.876
20
-72.838
30
0
0
VERTEX
8
Halfen
62
7
10
 1440.064
20
-73.499
30
0
0
VERTEX
8
Halfen
62
7
10
 1441.222
20
-74.211
30
0
0
VERTEX
8
Halfen
62
7
10
 1442.347
20
-74.975
30
0
0
VERTEX
8
Halfen
62
7
10
 1443.437
20
-75.787
30
0
0
VERTEX
8
Halfen
62
7
10
 1444.491
20
-76.646
30
0
0
VERTEX
8
Halfen
62
7
10
 1445.505
20
-77.551
30
0
0
VERTEX
8
Halfen
62
7
10
 1446.479
20
-78.5
30
0
0
VERTEX
8
Halfen
62
7
10
 1447.41
20
-79.491
30
0
0
VERTEX
8
Halfen
62
7
10
 1448.296
20
-80.522
30
0
0
VERTEX
8
Halfen
62
7
10
 1448.397
20
-80.639
30
0
0
VERTEX
8
Halfen
62
7
10
 1448.502
20
-80.752
30
0
0
VERTEX
8
Halfen
62
7
10
 1448.613
20
-80.86
30
0
0
VERTEX
8
Halfen
62
7
10
 1448.728
20
-80.963
30
0
0
VERTEX
8
Halfen
62
7
10
 1448.848
20
-81.06
30
0
0
VERTEX
8
Halfen
62
7
10
 1448.972
20
-81.153
30
0
0
VERTEX
8
Halfen
62
7
10
 1449.1
20
-81.239
30
0
0
VERTEX
8
Halfen
62
7
10
 1449.231
20
-81.32
30
0
0
VERTEX
8
Halfen
62
7
10
 1449.366
20
-81.395
30
0
0
VERTEX
8
Halfen
62
7
10
 1449.505
20
-81.464
30
0
0
VERTEX
8
Halfen
62
7
10
 1449.646
20
-81.527
30
0
0
VERTEX
8
Halfen
62
7
10
 1449.789
20
-81.584
30
0
0
VERTEX
8
Halfen
62
7
10
 1449.936
20
-81.634
30
0
0
VERTEX
8
Halfen
62
7
10
 1450.084
20
-81.678
30
0
0
VERTEX
8
Halfen
62
7
10
 1450.234
20
-81.715
30
0
0
VERTEX
8
Halfen
62
7
10
 1450.385
20
-81.746
30
0
0
VERTEX
8
Halfen
62
7
10
 1450.538
20
-81.769
30
0
0
VERTEX
8
Halfen
62
7
10
 1450.691
20
-81.786
30
0
0
VERTEX
8
Halfen
62
7
10
 1450.846
20
-81.797
30
0
0
VERTEX
8
Halfen
62
7
10
 1451
20
-81.8
30
0
0
SEQEND
8
Halfen
0
POLYLINE
8
Halfen
62
7
66
1
10
0.0
20
0.0
30
0.0
70
1
0
VERTEX
8
Halfen
62
7
10
 1262
20
-775
30
0
0
VERTEX
8
Halfen
62
7
10
 1262
20
-160
30
0
0
VERTEX
8
Halfen
62
7
10
 1250
20
-160
30
0
0
VERTEX
8
Halfen
62
7
10
 1250
20
-775
30
0
0
SEQEND
8
Halfen
0
POLYLINE
8
Halfen
62
7
66
1
10
0.0
20
0.0
30
0.0
70
1
0
VERTEX
8
Halfen
62
7
10
 1261.25
20
-160
30
0
0
VERTEX
8
Halfen
62
7
10
 1261.25
20
-62
30
0
0
VERTEX
8
Halfen
62
7
10
 1250.75
20
-62
30
0
0
VERTEX
8
Halfen
62
7
10
 1250.75
20
-160
30
0
0
SEQEND
8
Halfen
0
POLYLINE
8
Halfen
62
7
66
1
10
0.0
20
0.0
30
0.0
70
1
0
VERTEX
8
Halfen
62
7
10
 1262
20
-62
30
0
0
VERTEX
8
Halfen
62
7
10
 1262
20
-60
30
0
0
VERTEX
8
Halfen
62
7
10
 1250
20
-60
30
0
0
VERTEX
8
Halfen
62
7
10
 1250
20
-62
30
0
0
SEQEND
8
Halfen
0
POLYLINE
8
Halfen
62
7
66
1
10
0.0
20
0.0
30
0.0
70
1
0
VERTEX
8
Halfen
62
7
10
 1261.25
20
-60
30
0
0
VERTEX
8
Halfen
62
7
10
 1261.25
20
 60
30
0
0
VERTEX
8
Halfen
62
7
10
 1250.75
20
 60
30
0
0
VERTEX
8
Halfen
62
7
10
 1250.75
20
-60
30
0
0
SEQEND
8
Halfen
0
POLYLINE
8
Halfen
62
7
66
1
10
0.0
20
0.0
30
0.0
70
1
0
VERTEX
8
Halfen
62
7
10
 1262
20
 60
30
0
0
VERTEX
8
Halfen
62
7
10
 1262
20
 62
30
0
0
VERTEX
8
Halfen
62
7
10
 1250
20
 62
30
0
0
VERTEX
8
Halfen
62
7
10
 1250
20
 60
30
0
0
SEQEND
8
Halfen
0
POLYLINE
8
Halfen
62
7
66
1
10
0.0
20
0.0
30
0.0
70
1
0
VERTEX
8
Halfen
62
7
10
 1261.25
20
 62
30
0
0
VERTEX
8
Halfen
62
7
10
 1261.25
20
 160
30
0
0
VERTEX
8
Halfen
62
7
10
 1250.75
20
 160
30
0
0
VERTEX
8
Halfen
62
7
10
 1250.75
20
 62
30
0
0
SEQEND
8
Halfen
0
POLYLINE
8
Halfen
62
7
66
1
10
0.0
20
0.0
30
0.0
70
1
0
VERTEX
8
Halfen
62
7
10
 1262
20
 160
30
0
0
VERTEX
8
Halfen
62
7
10
 1262
20
 775
30
0
0
VERTEX
8
Halfen
62
7
10
 1250
20
 775
30
0
0
VERTEX
8
Halfen
62
7
10
 1250
20
 160
30
0
0
SEQEND
8
Halfen
0
ENDSEC
0
EOF
