  0
SECTION
  2
HEADER
  9
$ACADVER
  1
AC1032
  9
$ACADMAINTVER
 90
4
  9
$DWGCODEPAGE
  3
ANSI_1252
  9
$LASTSAVEDBY
  1
ezdxf
  9
$REQUIREDVERSIONS
160
0
  9
$INSBASE
 10
0.0
 20
0.0
 30
0.0
  9
$EXTMIN
 10
1e+20
 20
1e+20
 30
1e+20
  9
$EXTMAX
 10
-1e+20
 20
-1e+20
 30
-1e+20
  9
$LIMMIN
 10
0.0
 20
0.0
  9
$LIMMAX
 10
420.0
 20
297.0
  9
$ORTHOMODE
 70
0
  9
$REGENMODE
 70
1
  9
$FILLMODE
 70
1
  9
$QTEXTMODE
 70
0
  9
$MIRRTEXT
 70
1
  9
$LTSCALE
 40
1.0
  9
$ATTMODE
 70
1
  9
$TEXTSIZE
 40
2.5
  9
$TRACEWID
 40
1.0
  9
$TEXTSTYLE
  7
Standard
  9
$CLAYER
  8
0
  9
$CELTYPE
  6
ByLayer
  9
$CECOLOR
 62
256
  9
$CELTSCALE
 40
1.0
  9
$DISPSILH
 70
0
  9
$DIMSCALE
 40
1.0
  9
$DIMASZ
 40
2.5
  9
$DIMEXO
 40
0.625
  9
$DIMDLI
 40
3.75
  9
$DIMRND
 40
0.0
  9
$DIMDLE
 40
0.0
  9
$DIMEXE
 40
1.25
  9
$DIMTP
 40
0.0
  9
$DIMTM
 40
0.0
  9
$DIMTXT
 40
2.5
  9
$DIMCEN
 40
2.5
  9
$DIMTSZ
 40
0.0
  9
$DIMTOL
 70
0
  9
$DIMLIM
 70
0
  9
$DIMTIH
 70
0
  9
$DIMTOH
 70
0
  9
$DIMSE1
 70
0
  9
$DIMSE2
 70
0
  9
$DIMTAD
 70
1
  9
$DIMZIN
 70
8
  9
$DIMBLK
  1

  9
$DIMASO
 70
1
  9
$DIMSHO
 70
1
  9
$DIMPOST
  1

  9
$DIMAPOST
  1

  9
$DIMALT
 70
0
  9
$DIMALTD
 70
3
  9
$DIMALTF
 40
0.03937007874
  9
$DIMLFAC
 40
1.0
  9
$DIMTOFL
 70
1
  9
$DIMTVP
 40
0.0
  9
$DIMTIX
 70
0
  9
$DIMSOXD
 70
0
  9
$DIMSAH
 70
0
  9
$DIMBLK1
  1

  9
$DIMBLK2
  1

  9
$DIMSTYLE
  2
ISO-25
  9
$DIMCLRD
 70
0
  9
$DIMCLRE
 70
0
  9
$DIMCLRT
 70
0
  9
$DIMTFAC
 40
1.0
  9
$DIMGAP
 40
0.625
  9
$DIMJUST
 70
0
  9
$DIMSD1
 70
0
  9
$DIMSD2
 70
0
  9
$DIMTOLJ
 70
0
  9
$DIMTZIN
 70
8
  9
$DIMALTZ
 70
0
  9
$DIMALTTZ
 70
0
  9
$DIMUPT
 70
0
  9
$DIMDEC
 70
2
  9
$DIMTDEC
 70
2
  9
$DIMALTU
 70
2
  9
$DIMALTTD
 70
3
  9
$DIMTXSTY
  7
Standard
  9
$DIMAUNIT
 70
0
  9
$DIMADEC
 70
0
  9
$DIMALTRND
 40
0.0
  9
$DIMAZIN
 70
0
  9
$DIMDSEP
 70
44
  9
$DIMATFIT
 70
3
  9
$DIMFRAC
 70
0
  9
$DIMLDRBLK
  1

  9
$DIMLUNIT
 70
2
  9
$DIMLWD
 70
-2
  9
$DIMLWE
 70
-2
  9
$DIMTMOVE
 70
0
  9
$DIMFXL
 40
1.0
  9
$DIMFXLON
 70
0
  9
$DIMJOGANG
 40
0.785398163397
  9
$DIMTFILL
 70
0
  9
$DIMTFILLCLR
 70
0
  9
$DIMARCSYM
 70
0
  9
$DIMLTYPE
  6

  9
$DIMLTEX1
  6

  9
$DIMLTEX2
  6

  9
$DIMTXTDIRECTION
 70
0
  9
$LUNITS
 70
2
  9
$LUPREC
 70
4
  9
$SKETCHINC
 40
1.0
  9
$FILLETRAD
 40
10.0
  9
$AUNITS
 70
0
  9
$AUPREC
 70
2
  9
$MENU
  1
.
  9
$ELEVATION
 40
0.0
  9
$PELEVATION
 40
0.0
  9
$THICKNESS
 40
0.0
  9
$LIMCHECK
 70
0
  9
$CHAMFERA
 40
0.0
  9
$CHAMFERB
 40
0.0
  9
$CHAMFERC
 40
0.0
  9
$CHAMFERD
 40
0.0
  9
$SKPOLY
 70
0
  9
$TDCREATE
 40
2461085.245983796
  9
$TDUCREATE
 40
2458532.153996898
  9
$TDUPDATE
 40
2461085.245983796
  9
$TDUUPDATE
 40
2458532.1544311
  9
$TDINDWG
 40
0.0
  9
$TDUSRTIMER
 40
0.0
  9
$USRTIMER
 70
1
  9
$ANGBASE
 50
0.0
  9
$ANGDIR
 70
0
  9
$PDMODE
 70
0
  9
$PDSIZE
 40
0.0
  9
$PLINEWID
 40
0.0
  9
$SPLFRAME
 70
0
  9
$SPLINETYPE
 70
6
  9
$SPLINESEGS
 70
8
  9
$HANDSEED
  5
9B
  9
$SURFTAB1
 70
6
  9
$SURFTAB2
 70
6
  9
$SURFTYPE
 70
6
  9
$SURFU
 70
6
  9
$SURFV
 70
6
  9
$UCSBASE
  2

  9
$UCSNAME
  2

  9
$UCSORG
 10
0.0
 20
0.0
 30
0.0
  9
$UCSXDIR
 10
1.0
 20
0.0
 30
0.0
  9
$UCSYDIR
 10
0.0
 20
1.0
 30
0.0
  9
$UCSORTHOREF
  2

  9
$UCSORTHOVIEW
 70
0
  9
$UCSORGTOP
 10
0.0
 20
0.0
 30
0.0
  9
$UCSORGBOTTOM
 10
0.0
 20
0.0
 30
0.0
  9
$UCSORGLEFT
 10
0.0
 20
0.0
 30
0.0
  9
$UCSORGRIGHT
 10
0.0
 20
0.0
 30
0.0
  9
$UCSORGFRONT
 10
0.0
 20
0.0
 30
0.0
  9
$UCSORGBACK
 10
0.0
 20
0.0
 30
0.0
  9
$PUCSBASE
  2

  9
$PUCSNAME
  2

  9
$PUCSORG
 10
0.0
 20
0.0
 30
0.0
  9
$PUCSXDIR
 10
1.0
 20
0.0
 30
0.0
  9
$PUCSYDIR
 10
0.0
 20
1.0
 30
0.0
  9
$PUCSORTHOREF
  2

  9
$PUCSORTHOVIEW
 70
0
  9
$PUCSORGTOP
 10
0.0
 20
0.0
 30
0.0
  9
$PUCSORGBOTTOM
 10
0.0
 20
0.0
 30
0.0
  9
$PUCSORGLEFT
 10
0.0
 20
0.0
 30
0.0
  9
$PUCSORGRIGHT
 10
0.0
 20
0.0
 30
0.0
  9
$PUCSORGFRONT
 10
0.0
 20
0.0
 30
0.0
  9
$PUCSORGBACK
 10
0.0
 20
0.0
 30
0.0
  9
$USERI1
 70
0
  9
$USERI2
 70
0
  9
$USERI3
 70
0
  9
$USERI4
 70
0
  9
$USERI5
 70
0
  9
$USERR1
 40
0.0
  9
$USERR2
 40
0.0
  9
$USERR3
 40
0.0
  9
$USERR4
 40
0.0
  9
$USERR5
 40
0.0
  9
$WORLDVIEW
 70
1
  9
$SHADEDGE
 70
3
  9
$SHADEDIF
 70
70
  9
$TILEMODE
 70
1
  9
$MAXACTVP
 70
64
  9
$PINSBASE
 10
0.0
 20
0.0
 30
0.0
  9
$PLIMCHECK
 70
0
  9
$PEXTMIN
 10
1e+20
 20
1e+20
 30
1e+20
  9
$PEXTMAX
 10
-1e+20
 20
-1e+20
 30
-1e+20
  9
$PLIMMIN
 10
0.0
 20
0.0
  9
$PLIMMAX
 10
420.0
 20
297.0
  9
$UNITMODE
 70
0
  9
$VISRETAIN
 70
1
  9
$PLINEGEN
 70
0
  9
$PSLTSCALE
 70
1
  9
$TREEDEPTH
 70
3020
  9
$CMLSTYLE
  2
Standard
  9
$CMLJUST
 70
0
  9
$CMLSCALE
 40
20.0
  9
$PROXYGRAPHICS
 70
1
  9
$MEASUREMENT
 70
1
  9
$CELWEIGHT
370
-1
  9
$ENDCAPS
280
0
  9
$JOINSTYLE
280
0
  9
$LWDISPLAY
290
0
  9
$INSUNITS
 70
6
  9
$HYPERLINKBASE
  1

  9
$STYLESHEET
  1

  9
$XEDIT
290
1
  9
$CEPSNTYPE
380
0
  9
$PSTYLEMODE
290
1
  9
$FINGERPRINTGUID
  2
{51854A89-FF86-4573-BF26-FFAB3C17F239}
  9
$VERSIONGUID
  2
{4DBA990C-909B-446B-B474-87B79088DB12}
  9
$EXTNAMES
290
1
  9
$PSVPSCALE
 40
0.0
  9
$OLESTARTUP
290
0
  9
$SORTENTS
280
127
  9
$INDEXCTL
280
0
  9
$HIDETEXT
280
1
  9
$XCLIPFRAME
280
1
  9
$HALOGAP
280
0
  9
$OBSCOLOR
 70
257
  9
$OBSLTYPE
280
0
  9
$INTERSECTIONDISPLAY
280
0
  9
$INTERSECTIONCOLOR
 70
257
  9
$DIMASSOC
280
2
  9
$PROJECTNAME
  1

  9
$CAMERADISPLAY
290
0
  9
$LENSLENGTH
 40
50.0
  9
$CAMERAHEIGHT
 40
0.0
  9
$STEPSPERSEC
 40
24.0
  9
$STEPSIZE
 40
100.0
  9
$3DDWFPREC
 40
2.0
  9
$PSOLWIDTH
 40
0.005
  9
$PSOLHEIGHT
 40
0.08
  9
$LOFTANG1
 40
1.570796326795
  9
$LOFTANG2
 40
1.570796326795
  9
$LOFTMAG1
 40
0.0
  9
$LOFTMAG2
 40
0.0
  9
$LOFTPARAM
 70
7
  9
$LOFTNORMALS
280
1
  9
$LATITUDE
 40
37.795
  9
$LONGITUDE
 40
-122.394
  9
$NORTHDIRECTION
 40
0.0
  9
$TIMEZONE
 70
-8000
  9
$LIGHTGLYPHDISPLAY
280
1
  9
$TILEMODELIGHTSYNCH
280
1
  9
$CMATERIAL
347
20
  9
$SOLIDHIST
280
0
  9
$SHOWHIST
280
1
  9
$DWFFRAME
280
2
  9
$DGNFRAME
280
2
  9
$REALWORLDSCALE
290
1
  9
$INTERFERECOLOR
 62
256
  9
$CSHADOW
280
0
  9
$SHADOWPLANELOCATION
 40
0.0
  0
ENDSEC
  0
SECTION
  2
CLASSES
  0
CLASS
  1
ACDBDICTIONARYWDFLT
  2
AcDbDictionaryWithDefault
  3
ObjectDBX Classes
 90
0
 91
0
280
0
281
0
  0
CLASS
  1
SUN
  2
AcDbSun
  3
SCENEOE
 90
1153
 91
0
280
0
281
0
  0
CLASS
  1
VISUALSTYLE
  2
AcDbVisualStyle
  3
ObjectDBX Classes
 90
4095
 91
0
280
0
281
0
  0
CLASS
  1
MATERIAL
  2
AcDbMaterial
  3
ObjectDBX Classes
 90
1153
 91
0
280
0
281
0
  0
CLASS
  1
SCALE
  2
AcDbScale
  3
ObjectDBX Classes
 90
1153
 91
0
280
0
281
0
  0
CLASS
  1
TABLESTYLE
  2
AcDbTableStyle
  3
ObjectDBX Classes
 90
4095
 91
0
280
0
281
0
  0
CLASS
  1
MLEADERSTYLE
  2
AcDbMLeaderStyle
  3
ACDB_MLEADERSTYLE_CLASS
 90
4095
 91
0
280
0
281
0
  0
CLASS
  1
DICTIONARYVAR
  2
AcDbDictionaryVar
  3
ObjectDBX Classes
 90
0
 91
0
280
0
281
0
  0
CLASS
  1
CELLSTYLEMAP
  2
AcDbCellStyleMap
  3
ObjectDBX Classes
 90
1152
 91
0
280
0
281
0
  0
CLASS
  1
MENTALRAYRENDERSETTINGS
  2
AcDbMentalRayRenderSettings
  3
SCENEOE
 90
1024
 91
0
280
0
281
0
  0
CLASS
  1
ACDBDETAILVIEWSTYLE
  2
AcDbDetailViewStyle
  3
ObjectDBX Classes
 90
1025
 91
0
280
0
281
0
  0
CLASS
  1
ACDBSECTIONVIEWSTYLE
  2
AcDbSectionViewStyle
  3
ObjectDBX Classes
 90
1025
 91
0
280
0
281
0
  0
CLASS
  1
RASTERVARIABLES
  2
AcDbRasterVariables
  3
ISM
 90
0
 91
0
280
0
281
0
  0
CLASS
  1
LAYOUT
  2
AcDbLayout
  3
ObjectDBX Classes
 90
0
 91
0
280
0
281
0
  0
CLASS
  1
ACDBPLACEHOLDER
  2
AcDbPlaceHolder
  3
ObjectDBX Classes
 90
0
 91
0
280
0
281
0
  0
ENDSEC
  0
SECTION
  2
TABLES
  0
TABLE
  2
VPORT
  5
8
330
0
100
AcDbSymbolTable
 70
1
  0
VPORT
  5
23
330
8
100
AcDbSymbolTableRecord
100
AcDbViewportTableRecord
  2
*Active
 70
0
 10
0.0
 20
0.0
 11
1.0
 21
1.0
 12
0.0
 22
0.0
 13
0.0
 23
0.0
 14
0.5
 24
0.5
 15
0.5
 25
0.5
 16
0.0
 26
0.0
 36
1.0
 17
0.0
 27
0.0
 37
0.0
 40
1000.0
 41
1.34
 42
50.0
 43
0.0
 44
0.0
 50
0.0
 51
0.0
 71
0
 72
1000
 73
1
 74
3
 75
0
 76
0
 77
0
 78
0
281
0
 65
0
146
0.0
  0
ENDTAB
  0
TABLE
  2
LTYPE
  5
2
330
0
100
AcDbSymbolTable
 70
3
  0
LTYPE
  5
24
330
2
100
AcDbSymbolTableRecord
100
AcDbLinetypeTableRecord
  2
ByBlock
 70
0
  3

 72
65
 73
0
 40
0.0
  0
LTYPE
  5
25
330
2
100
AcDbSymbolTableRecord
100
AcDbLinetypeTableRecord
  2
ByLayer
 70
0
  3

 72
65
 73
0
 40
0.0
  0
LTYPE
  5
26
330
2
100
AcDbSymbolTableRecord
100
AcDbLinetypeTableRecord
  2
Continuous
 70
0
  3

 72
65
 73
0
 40
0.0
  0
ENDTAB
  0
TABLE
  2
LAYER
  5
1
330
0
100
AcDbSymbolTable
 70
4
  0
LAYER
  5
27
330
1
100
AcDbSymbolTableRecord
100
AcDbLayerTableRecord
  2
0
 70
0
 62
7
  6
Continuous
370
-3
390
13
347
21
  0
LAYER
  5
28
330
1
100
AcDbSymbolTableRecord
100
AcDbLayerTableRecord
  2
Defpoints
 70
0
 62
7
  6
Continuous
290
0
370
-3
390
13
347
21
  0
LAYER
  5
94
330
1
100
AcDbSymbolTableRecord
100
AcDbLayerTableRecord
  2
A-DETL-GENF
 70
0
 62
92
  6
Continuous
370
18
390
13
347
21
348
0
  0
LAYER
  5
95
330
1
100
AcDbSymbolTableRecord
100
AcDbLayerTableRecord
  2
A-DETL-MEDM
 70
0
 62
33
  6
Continuous
370
18
390
13
347
21
348
0
  0
ENDTAB
  0
TABLE
  2
STYLE
  5
5
330
0
100
AcDbSymbolTable
 70
1
  0
STYLE
  5
29
330
5
100
AcDbSymbolTableRecord
100
AcDbTextStyleTableRecord
  2
Standard
 70
0
 40
0.0
 41
1.0
 50
0.0
 71
0
 42
2.5
  3
txt
  4

  0
ENDTAB
  0
TABLE
  2
VIEW
  5
7
330
0
100
AcDbSymbolTable
 70
0
  0
ENDTAB
  0
TABLE
  2
UCS
  5
6
330
0
100
AcDbSymbolTable
 70
0
  0
ENDTAB
  0
TABLE
  2
APPID
  5
3
330
0
100
AcDbSymbolTable
 70
3
  0
APPID
  5
2A
330
3
100
AcDbSymbolTableRecord
100
AcDbRegAppTableRecord
  2
ACAD
 70
0
  0
APPID
  5
98
330
3
100
AcDbSymbolTableRecord
100
AcDbRegAppTableRecord
  2
HATCHBACKGROUNDCOLOR
 70
0
  0
APPID
  5
99
330
3
100
AcDbSymbolTableRecord
100
AcDbRegAppTableRecord
  2
EZDXF
 70
0
  0
ENDTAB
  0
TABLE
  2
DIMSTYLE
  5
4
330
0
100
AcDbSymbolTable
 70
1
100
AcDbDimStyleTable
  0
DIMSTYLE
105
2B
330
4
100
AcDbSymbolTableRecord
100
AcDbDimStyleTableRecord
  2
Standard
 70
0
 40
1.0
 41
2.5
 42
0.625
 43
3.75
 44
1.25
 45
0.0
 46
0.0
 47
0.0
 48
0.0
 49
2.5
140
2.5
141
2.5
142
0.0
143
0.03937007874
144
1.0
145
0.0
146
1.0
147
0.625
148
0.0
 69
0
 70
0
 71
0
 72
0
 73
0
 74
0
 75
0
 76
0
 77
1
 78
8
 79
3
170
0
171
3
172
1
173
0
174
0
175
0
176
0
177
0
178
0
179
2
271
2
272
2
273
2
274
3
275
0
276
0
277
2
278
44
279
0
280
0
281
0
282
0
283
0
284
8
285
0
286
0
288
0
289
3
290
0
371
-2
372
-2
  0
ENDTAB
  0
TABLE
  2
BLOCK_RECORD
  5
9
330
0
100
AcDbSymbolTable
 70
3
  0
BLOCK_RECORD
  5
17
330
9
100
AcDbSymbolTableRecord
100
AcDbBlockTableRecord
  2
*Model_Space
340
1A
 70
0
280
1
281
0
  0
BLOCK_RECORD
  5
1B
330
9
100
AcDbSymbolTableRecord
100
AcDbBlockTableRecord
  2
*Paper_Space
340
1E
 70
0
280
1
281
0
  0
BLOCK_RECORD
  5
2F
330
9
100
AcDbSymbolTableRecord
100
AcDbBlockTableRecord
  2
37 DI opstand lichtkoepel - opstand 300mm-1586006-00_0 Basismaterialen
340
0
 70
0
280
1
281
0
  0
ENDTAB
  0
ENDSEC
  0
SECTION
  2
BLOCKS
  0
BLOCK
  5
18
330
17
100
AcDbEntity
  8
0
100
AcDbBlockBegin
  2
*Model_Space
 70
0
 10
0.0
 20
0.0
 30
0.0
  3
*Model_Space
  1

  0
ENDBLK
  5
19
330
17
100
AcDbEntity
  8
0
100
AcDbBlockEnd
  0
BLOCK
  5
1C
330
1B
100
AcDbEntity
  8
0
100
AcDbBlockBegin
  2
*Paper_Space
 70
0
 10
0.0
 20
0.0
 30
0.0
  3
*Paper_Space
  1

  0
ENDBLK
  5
1D
330
1B
100
AcDbEntity
  8
0
100
AcDbBlockEnd
  0
BLOCK
  5
30
330
2F
100
AcDbEntity
  8
0
100
AcDbBlockBegin
  2
37 DI opstand lichtkoepel - opstand 300mm-1586006-00_0 Basismaterialen
 70
0
 10
0.0
 20
0.0
 30
0.0
  3
37 DI opstand lichtkoepel - opstand 300mm-1586006-00_0 Basismaterialen
  1

  0
HATCH
  5
32
330
2F
100
AcDbEntity
  8
A-DETL-GENF
370
13
100
AcDbHatch
 10
0.0
 20
0.0
 30
0.0
210
0.0
220
0.0
230
1.0
  2
FP_577
 70
0
 71
0
 91
1
 92
1
 93
32
 72
1
 10
-113.3000000000349
 20
1.708392021688496
 11
-1.159379456630091
 21
1.708392021688496
 72
1
 10
-1.159379456630097
 20
1.708392021688496
 11
98.29999999996465
 21
255.3298096372595
 72
1
 10
98.29999999996465
 20
255.3298096372595
 11
98.29999999996465
 21
298.3083920216904
 72
1
 10
98.29999999996465
 20
298.3083920216904
 11
46.77491721759762
 21
298.3083920216904
 72
1
 10
46.77491721759762
 20
298.3083920216904
 11
47.31161956516403
 21
297.3792038040394
 72
1
 10
47.31161956516403
 20
297.3792038040394
 11
47.62357895687076
 21
296.352499615081
 72
1
 10
47.62357895687076
 20
296.352499615081
 11
47.69453452491159
 21
295.2817963597075
 72
1
 10
47.69453452491159
 20
295.2817963597075
 11
47.52078771382723
 21
294.2229043919701
 72
1
 10
47.52078771382723
 20
294.2229043919701
 11
47.11139506751581
 21
293.2310184031322
 72
1
 10
47.11139506751581
 20
293.2310184031322
 11
46.44106724233624
 21
292.306977297939
 72
1
 10
46.44106724233624
 20
292.306977297939
 11
45.56773493141332
 21
291.5718024670361
 72
1
 10
45.56773493141332
 20
291.5718024670361
 11
44.54292005052287
 21
291.0688652769131
 72
1
 10
44.54292005052287
 20
291.0688652769131
 11
43.42708117348595
 21
290.8278363205768
 72
1
 10
43.42708117348595
 20
290.8278363205768
 11
42.28604680101237
 21
290.8629350119105
 72
1
 10
42.28604680101237
 20
290.8629350119105
 11
39.5417150954969
 21
290.1275935476379
 72
1
 10
39.5417150954969
 20
290.1275935476379
 11
39.25158479042828
 21
289.9134472976658
 72
1
 10
39.25158479042828
 20
289.9134472976658
 11
39.17692714732842
 21
289.6816141485417
 72
1
 10
39.17692714732842
 20
289.6816141485417
 11
39.18459282962702
 21
289.559122182146
 72
1
 10
39.18459282962702
 20
289.559122182146
 11
39.37651424250756
 21
289.2538348067494
 72
1
 10
39.37651424250756
 20
289.2538348067494
 11
61.84619648447681
 21
272.6799041106403
 72
1
 10
61.84619648447681
 20
272.6799041106403
 11
64.04650558189006
 21
270.5615398467395
 72
1
 10
64.04650558189006
 20
270.5615398467395
 11
65.62356794893321
 21
267.9458751952253
 72
1
 10
65.62356794893321
 20
267.9458751952253
 11
66.4699093915058
 21
265.011163379511
 72
1
 10
66.4699093915058
 20
265.011163379511
 11
66.52785313894904
 21
261.9574001599963
 72
1
 10
66.52785313894904
 20
261.9574001599963
 11
65.79345042065447
 21
258.9926944535035
 72
1
 10
65.79345042065447
 20
258.9926944535035
 11
-27.52536707758959
 21
21.02970983931439
 72
1
 10
-27.52536707758959
 20
21.02970983931439
 11
-27.96806298958328
 21
20.22648736949865
 72
1
 10
-27.96806298958328
 20
20.22648736949865
 11
-28.60237108123925
 21
19.56406812809959
 72
1
 10
-28.60237108123925
 20
19.56406812809959
 11
-29.3856539604966
 21
19.08697910330824
 72
1
 10
-29.3856539604966
 20
19.08697910330824
 11
-30.26526033745546
 21
18.82728961926542
 72
1
 10
-30.26526033745546
 20
18.82728961926542
 11
-113.3000000000349
 21
5.675878850538419
 72
1
 10
-113.3000000000349
 20
5.675878850538419
 11
-113.3000000000349
 21
1.708392021688496
 97
0
 75
0
 76
2
 52
0.0
 41
1.0
 77
0
 78
2
 53
128.587
 43
250.182
 44
67.811
 45
-23.44986018274244
 46
-18.71106777845216
 79
0
 53
188.587
 43
250.182
 44
67.811
 45
4.479329936700827
 46
-29.66370852267423
 79
0
 98
1
 10
0.0
 20
0.0
  0
LINE
  5
33
330
2F
100
AcDbEntity
  8
A-DETL-MEDM
100
AcDbLine
 10
42.28604680102773
 20
290.8629350119108
 30
0.0
 11
39.54171509551422
 21
290.1275935476387
 31
0.0
  0
ARC
  5
34
330
2F
100
AcDbEntity
  8
A-DETL-MEDM
100
AcDbCircle
 10
39.66943141300268
 20
289.650949761827
 30
0.0
 40
0.493457957992028
100
AcDbArc
 50
105.0000000003263
 51
233.5870305251803
  0
LINE
  5
35
330
2F
100
AcDbEntity
  8
A-DETL-MEDM
100
AcDbLine
 10
39.37651424252547
 20
289.2538348067507
 30
0.0
 11
61.8461964844762
 21
272.6799041106132
 31
0.0
  0
ARC
  5
36
330
2F
100
AcDbEntity
  8
A-DETL-MEDM
100
AcDbCircle
 10
54.90106399837839
 20
263.2642185407903
 30
0.0
 40
11.70000000000005
100
AcDbArc
 50
338.5870305246104
 51
53.5870305251807
  0
LINE
  5
37
330
2F
100
AcDbEntity
  8
A-DETL-MEDM
100
AcDbLine
 10
65.79345042066943
 20
258.9926944535037
 30
0.0
 11
-27.52536707757306
 21
21.02970983931521
 31
0.0
  0
ARC
  5
38
330
2F
100
AcDbEntity
  8
A-DETL-MEDM
100
AcDbCircle
 10
-30.81863968163464
 20
22.32118929192274
 30
0.0
 40
3.537451571565373
100
AcDbArc
 50
278.9999999998474
 51
338.5870305246101
  0
LINE
  5
39
330
2F
100
AcDbEntity
  8
A-DETL-MEDM
100
AcDbLine
 10
-30.26526033744039
 20
18.82728961926619
 30
0.0
 11
-113.3000000000215
 21
5.675878850540111
 31
0.0
  0
LINE
  5
3A
330
2F
100
AcDbEntity
  8
A-DETL-MEDM
100
AcDbLine
 10
-113.3000000000215
 20
5.675878850540111
 30
0.0
 11
-113.3000000000215
 21
1.708392021689985
 31
0.0
  0
LINE
  5
3B
330
2F
100
AcDbEntity
  8
A-DETL-MEDM
100
AcDbLine
 10
-113.3000000000215
 20
1.708392021689985
 30
0.0
 11
-1.159379456611434
 21
1.708392021689985
 31
0.0
  0
LINE
  5
3C
330
2F
100
AcDbEntity
  8
A-DETL-MEDM
100
AcDbLine
 10
-1.159379456611468
 20
1.708392021689951
 30
0.0
 11
98.29999999997872
 21
255.3298096372591
 31
0.0
  0
LINE
  5
3D
330
2F
100
AcDbEntity
  8
A-DETL-MEDM
100
AcDbLine
 10
98.29999999997872
 20
255.3298096372591
 30
0.0
 11
98.29999999997872
 21
298.3083920216904
 31
0.0
  0
LINE
  5
3E
330
2F
100
AcDbEntity
  8
A-DETL-MEDM
100
AcDbLine
 10
98.29999999997872
 20
298.3083920216904
 30
0.0
 11
46.77491721761392
 21
298.3083920216904
 31
0.0
  0
ARC
  5
3F
330
2F
100
AcDbEntity
  8
A-DETL-MEDM
100
AcDbCircle
 10
42.99999999997858
 20
295.5083920216902
 30
0.0
 40
4.70000000000009
100
AcDbArc
 50
331.0171647683116
 51
36.56573693218564
  0
ARC
  5
40
330
2F
100
AcDbEntity
  8
A-DETL-MEDM
100
AcDbCircle
 10
42.99999999997859
 20
295.5083920216901
 30
0.0
 40
4.700000000000052
100
AcDbArc
 50
261.262663447571
 51
331.0171647683122
  0
ARC
  5
41
330
2F
100
AcDbEntity
  8
A-DETL-GENF
100
AcDbCircle
 10
449.9999999999785
 20
-102.5079513968632
 30
0.0
 40
555.6467330465824
100
AcDbArc
 50
100.3680393838767
 51
131.5790026425066
  0
LINE
  5
42
330
2F
100
AcDbEntity
  8
A-DETL-GENF
100
AcDbLine
 10
81.24386750447265
 20
313.1387816497189
 30
0.0
 11
32.24386750447262
 21
313.1387816497189
 31
0.0
  0
LINE
  5
43
330
2F
100
AcDbEntity
  8
A-DETL-GENF
100
AcDbLine
 10
32.24386750447262
 20
313.1387816497189
 30
0.0
 11
30.8626966545894
 21
309.6034194703134
 31
0.0
  0
LINE
  5
44
330
2F
100
AcDbEntity
  8
A-DETL-GENF
100
AcDbLine
 10
30.86269665458941
 20
309.6034194703134
 30
0.0
 11
30.17902181316132
 21
303.4268059413039
 31
0.0
  0
LINE
  5
45
330
2F
100
AcDbEntity
  8
A-DETL-GENF
100
AcDbLine
 10
30.17902181316132
 20
303.4268059413038
 30
0.0
 11
29.39005223983676
 21
293.5870195964431
 31
0.0
  0
LINE
  5
46
330
2F
100
AcDbEntity
  8
A-DETL-GENF
100
AcDbLine
 10
29.39005223983667
 20
293.5870195964423
 30
0.0
 11
28.45776836515907
 21
286.5017468250041
 31
0.0
  0
LINE
  5
47
330
2F
100
AcDbEntity
  8
A-DETL-GENF
100
AcDbLine
 10
28.45776836515907
 20
286.5017468250041
 30
0.0
 11
27.04355480278575
 21
285.0875332626346
 31
0.0
  0
LINE
  5
48
330
2F
100
AcDbEntity
  8
A-DETL-GENF
100
AcDbLine
 10
27.04355480278575
 20
285.0875332626346
 30
0.0
 11
25.50864948229758
 21
285.0875332626346
 31
0.0
  0
ARC
  5
49
330
2F
100
AcDbEntity
  8
A-DETL-GENF
100
AcDbCircle
 10
449.9999999999785
 20
-109.3405140427832
 30
0.0
 40
557.4792956925024
100
AcDbArc
 50
100.3335822006139
 51
131.1386149029603
  0
LINE
  5
4A
330
2F
100
AcDbEntity
  8
A-DETL-GENF
100
AcDbLine
 10
83.24386750447233
 20
310.5083925923862
 30
0.0
 11
33.98193006587137
 21
310.5083925923862
 31
0.0
  0
LINE
  5
4B
330
2F
100
AcDbEntity
  8
A-DETL-GENF
100
AcDbLine
 10
33.98193006587137
 20
310.5083925923862
 30
0.0
 11
33.36060972231314
 21
308.3870722488241
 31
0.0
  0
LINE
  5
4C
330
2F
100
AcDbEntity
  8
A-DETL-GENF
100
AcDbLine
 10
33.36060972231313
 20
308.3870722488241
 30
0.0
 11
32.04363173517815
 21
288.2346893788234
 31
0.0
  0
LINE
  5
4D
330
2F
100
AcDbEntity
  8
A-DETL-GENF
100
AcDbLine
 10
32.04363173517815
 20
288.2346893788234
 30
0.0
 11
29.73009901886153
 21
280.9495647403544
 31
0.0
  0
LINE
  5
4E
330
2F
100
AcDbEntity
  8
A-DETL-GENF
100
AcDbLine
 10
28.77700474182021
 20
280.252238325378
 30
0.0
 11
25.50864948229758
 21
280.252238325378
 31
0.0
  0
LINE
  5
4F
330
2F
100
AcDbEntity
  8
A-DETL-GENF
100
AcDbLine
 10
24.50864948229753
 20
281.252238325378
 30
0.0
 11
24.50864948229753
 21
284.0875332626346
 31
0.0
  0
LINE
  5
50
330
2F
100
AcDbEntity
  8
A-DETL-GENF
100
AcDbLine
 10
83.74386750446916
 20
310.5083925923862
 30
0.0
 11
45.74386750447266
 21
310.5083925923862
 31
0.0
  0
LINE
  5
51
330
2F
100
AcDbEntity
  8
A-DETL-GENF
100
AcDbLine
 10
45.74386750447266
 20
310.5083925923862
 30
0.0
 11
45.74386750447266
 21
308.0083925923862
 31
0.0
  0
LINE
  5
52
330
2F
100
AcDbEntity
  8
A-DETL-GENF
100
AcDbLine
 10
45.74386750447266
 20
308.0083925923862
 30
0.0
 11
45.74386750447266
 21
305.5083925923863
 31
0.0
  0
LINE
  5
53
330
2F
100
AcDbEntity
  8
A-DETL-GENF
100
AcDbLine
 10
45.74386750447266
 20
305.5083925923863
 30
0.0
 11
45.74386750447266
 21
303.0083925923863
 31
0.0
  0
ARC
  5
54
330
2F
100
AcDbEntity
  8
A-DETL-GENF
100
AcDbCircle
 10
449.9999999999785
 20
-194.5199669143457
 30
0.0
 40
620.6587485640646
100
AcDbArc
 50
99.27186071215213
 51
125.9363623575365
  0
LINE
  5
55
330
2F
100
AcDbEntity
  8
A-DETL-GENF
100
AcDbLine
 10
85.74386750447263
 20
308.0083925923862
 30
0.0
 11
45.74386750447266
 21
308.0083925923862
 31
0.0
  0
LINE
  5
56
330
2F
100
AcDbEntity
  8
A-DETL-GENF
100
AcDbLine
 10
45.74386750447266
 20
308.0083925923862
 30
0.0
 11
45.74386750447266
 21
305.5083925923863
 31
0.0
  0
ARC
  5
57
330
2F
100
AcDbEntity
  8
A-DETL-GENF
100
AcDbCircle
 10
449.9999999999785
 20
-295.6240539711531
 30
0.0
 40
704.7628356208721
100
AcDbArc
 50
98.15732584889103
 51
121.0736697075942
  0
LINE
  5
58
330
2F
100
AcDbEntity
  8
A-DETL-GENF
100
AcDbLine
 10
86.24386750447266
 20
308.0083925923862
 30
0.0
 11
45.74386750447266
 21
308.0083925923862
 31
0.0
  0
LINE
  5
59
330
2F
100
AcDbEntity
  8
A-DETL-GENF
100
AcDbLine
 10
45.74386750447266
 20
308.0083925923862
 30
0.0
 11
45.74386750447266
 21
310.5083925923862
 31
0.0
  0
LINE
  5
5A
330
2F
100
AcDbEntity
  8
A-DETL-GENF
100
AcDbLine
 10
45.74386750447266
 20
310.5083925923862
 30
0.0
 11
83.74386750446916
 21
310.5083925923862
 31
0.0
  0
ARC
  5
5B
330
2F
100
AcDbEntity
  8
A-DETL-GENF
100
AcDbCircle
 10
449.9999999999785
 20
-185.18703192292
 30
0.0
 40
616.3258135726384
100
AcDbArc
 50
99.33762555977603
 51
126.4597069431363
  0
ARC
  5
5C
330
2F
100
AcDbEntity
  8
A-DETL-GENF
100
AcDbCircle
 10
449.9999999999785
 20
-308.6002351353635
 30
0.0
 40
712.7390167850828
100
AcDbArc
 50
98.06542683119594
 51
120.501281799668
  0
LINE
  5
5D
330
2F
100
AcDbEntity
  8
A-DETL-GENF
100
AcDbLine
 10
88.24386750447214
 20
305.5083925923863
 30
0.0
 11
45.74386750447266
 21
305.5083925923863
 31
0.0
  0
LINE
  5
5E
330
2F
100
AcDbEntity
  8
A-DETL-GENF
100
AcDbLine
 10
45.74386750447266
 20
305.5083925923863
 30
0.0
 11
45.74386750447266
 21
308.0083925923862
 31
0.0
  0
ARC
  5
5F
330
2F
100
AcDbEntity
  8
A-DETL-GENF
100
AcDbCircle
 10
449.9999999999785
 20
-453.047791434735
 30
0.0
 40
840.1865730844542
100
AcDbArc
 50
96.83561565691276
 51
115.465740249605
  0
LINE
  5
60
330
2F
100
AcDbEntity
  8
A-DETL-GENF
100
AcDbLine
 10
88.74386750447243
 20
305.5083925923863
 30
0.0
 11
45.74386750447266
 21
305.5083925923863
 31
0.0
  0
LINE
  5
61
330
2F
100
AcDbEntity
  8
A-DETL-GENF
100
AcDbLine
 10
45.74386750447266
 20
305.5083925923863
 30
0.0
 11
45.74386750447266
 21
303.0083925923863
 31
0.0
  0
ARC
  5
62
330
2F
100
AcDbEntity
  8
A-DETL-GENF
100
AcDbCircle
 10
449.9999999999785
 20
-472.9472909711588
 30
0.0
 40
855.086072620878
100
AcDbArc
 50
96.71595460604216
 51
114.8434465212656
  0
LINE
  5
63
330
2F
100
AcDbEntity
  8
A-DETL-GENF
100
AcDbLine
 10
90.7438675044725
 20
303.0083925923863
 30
0.0
 11
45.74386750447266
 21
303.0083925923863
 31
0.0
  0
LINE
  5
64
330
2F
100
AcDbEntity
  8
A-DETL-MEDM
100
AcDbLine
 10
99.99999999997848
 20
304.0083920216901
 30
0.0
 11
99.99999999997848
 21
255.0083920214966
 31
0.0
  0
LINE
  5
65
330
2F
100
AcDbEntity
  8
A-DETL-MEDM
100
AcDbLine
 10
-28.86501084388522
 20
22.27003584963558
 30
0.0
 11
64.210795983247
 21
259.6133432525093
 31
0.0
  0
ARC
  5
66
330
2F
100
AcDbEntity
  8
A-DETL-MEDM
100
AcDbCircle
 10
54.9010639983784
 20
263.2642185407903
 30
0.0
 40
10.00000000000004
100
AcDbArc
 50
338.58703052461
 51
53.58703052518036
  0
LINE
  5
67
330
2F
100
AcDbEntity
  8
A-DETL-GENF
100
AcDbLine
 10
60.83707467025393
 20
271.3118130449085
 30
0.0
 11
39.03400252047904
 21
287.3940434423902
 31
0.0
  0
LINE
  5
68
330
2F
100
AcDbEntity
  8
A-DETL-MEDM
100
AcDbLine
 10
-81.90978126240317
 20
12.36879179041207
 30
0.0
 11
-31.1886270441898
 21
20.40223341433489
 31
0.0
  0
LINE
  5
69
330
2F
100
AcDbEntity
  8
A-DETL-MEDM
100
AcDbLine
 10
99.99999999997848
 20
255.0083920214966
 30
0.0
 11
-8.46e-14
 21
0.0083920216900672
 31
0.0
  0
LINE
  5
6A
330
2F
100
AcDbEntity
  8
A-DETL-MEDM
100
AcDbLine
 10
-115.0000000000215
 20
5.406625301844079
 30
0.0
 11
-130.0000000000215
 21
3.03085869694865
 31
0.0
  0
LINE
  5
6B
330
2F
100
AcDbEntity
  8
A-DETL-MEDM
100
AcDbLine
 10
-1.015e-13
 20
0.008392021690101
 30
0.0
 11
-113.0000000000214
 21
0.008392021690101
 31
0.0
  0
ARC
  5
6C
330
2F
100
AcDbEntity
  8
A-DETL-MEDM
100
AcDbCircle
 10
-113.0000000000214
 20
2.008392021690187
 30
0.0
 40
2.000000000000019
100
AcDbArc
 50
180.0000000000004
 51
270.0000000000001
  0
LINE
  5
6D
330
2F
100
AcDbEntity
  8
A-DETL-MEDM
100
AcDbLine
 10
-115.0000000000215
 20
2.008392021690172
 30
0.0
 11
-115.0000000000215
 21
5.406625301844079
 31
0.0
  0
LINE
  5
6E
330
2F
100
AcDbEntity
  8
A-DETL-MEDM
100
AcDbLine
 10
-131.2000000000212
 20
2.840797368542411
 30
0.0
 11
-149.0170307047399
 21
0.0188569321872474
 31
0.0
  0
ARC
  5
6F
330
2F
100
AcDbEntity
  8
A-DETL-MEDM
100
AcDbCircle
 10
-149.150000000021
 20
0.8583920216904491
 30
0.0
 40
0.8500000000000038
100
AcDbArc
 50
98.99999999998457
 51
278.9999999998213
  0
LINE
  5
70
330
2F
100
AcDbEntity
  8
A-DETL-MEDM
100
AcDbLine
 10
-149.2829692953045
 20
1.697927111193013
 30
0.0
 11
-81.909781262439
 21
12.36879179063828
 31
0.0
  0
LINE
  5
71
330
2F
100
AcDbEntity
  8
A-DETL-MEDM
100
AcDbLine
 10
-131.2000000000212
 20
2.840797368542411
 30
0.0
 11
-131.2000000000212
 21
0.6000000000001005
 31
0.0
  0
LINE
  5
72
330
2F
100
AcDbEntity
  8
A-DETL-MEDM
100
AcDbLine
 10
-130.0000000000215
 20
0.6000000000000967
 30
0.0
 11
-130.0000000000215
 21
3.03085869694865
 31
0.0
  0
LINE
  5
73
330
2F
100
AcDbEntity
  8
A-DETL-MEDM
100
AcDbLine
 10
42.99999999997858
 20
300.0083920216901
 30
0.0
 11
98.29999999997872
 21
300.0083920216901
 31
0.0
  0
ARC
  5
74
330
2F
100
AcDbEntity
  8
A-DETL-MEDM
100
AcDbCircle
 10
42.99999999997858
 20
295.5083920216902
 30
0.0
 40
4.499999999999992
100
AcDbArc
 50
90.0
 51
119.9264348667847
  0
ARC
  5
75
330
2F
100
AcDbEntity
  8
A-DETL-MEDM
100
AcDbCircle
 10
41.12917130657877
 20
298.7583920216902
 30
0.0
 40
0.7500000000000325
100
AcDbArc
 50
119.926434866785
 51
299.926434866783
  0
ARC
  5
76
330
2F
100
AcDbEntity
  8
A-DETL-MEDM
100
AcDbCircle
 10
42.99999999997858
 20
295.5083920216902
 30
0.0
 40
2.999999999999988
100
AcDbArc
 50
255.164888417882
 51
119.926434866785
  0
LINE
  5
77
330
2F
100
AcDbEntity
  8
A-DETL-MEDM
100
AcDbLine
 10
37.86310674619777
 20
291.4377813027207
 30
0.0
 11
42.23188542518456
 21
292.6083920216921
 31
0.0
  0
LINE
  5
78
330
2F
100
AcDbEntity
  8
A-DETL-MEDM
100
AcDbLine
 10
35.47553944016013
 20
281.8617718737162
 30
0.0
 11
37.86310674619777
 21
291.4377813027207
 31
0.0
  0
ARC
  5
79
330
2F
100
AcDbEntity
  8
A-DETL-MEDM
100
AcDbCircle
 10
41.29731379777917
 20
280.4102405001903
 30
0.0
 40
5.999999999999994
100
AcDbArc
 50
166.0000000005828
 51
216.0000000002676
  0
LINE
  5
7A
330
2F
100
AcDbEntity
  8
A-DETL-MEDM
100
AcDbLine
 10
36.44321183155637
 20
276.8835289864203
 30
0.0
 11
41.43268258891505
 21
270.0161116433399
 31
0.0
  0
ARC
  5
7B
330
2F
100
AcDbEntity
  8
A-DETL-MEDM
100
AcDbCircle
 10
43.85973357197914
 20
271.7794674001906
 30
0.0
 40
2.999999999999995
100
AcDbArc
 50
216.0000000002682
 51
315.9999999979121
  0
ARC
  5
7C
330
2F
100
AcDbEntity
  8
A-DETL-MEDM
100
AcDbCircle
 10
43.85973357197914
 20
271.7794674001906
 30
0.0
 40
1.299999999999974
100
AcDbArc
 50
215.9999999998712
 51
315.9999999979114
  0
LINE
  5
7D
330
2F
100
AcDbEntity
  8
A-DETL-MEDM
100
AcDbLine
 10
42.80801147927195
 20
271.0153465721997
 30
0.0
 11
37.84514903343691
 21
277.8461407164644
 31
0.0
  0
LINE
  5
7E
330
2F
100
AcDbEntity
  8
A-DETL-MEDM
100
AcDbLine
 10
37.13599367983074
 20
281.4944287388706
 30
0.0
 11
38.6732736141276
 21
287.6601217887408
 31
0.0
  0
LINE
  5
7F
330
2F
100
AcDbEntity
  8
A-DETL-MEDM
100
AcDbLine
 10
60.83707467025393
 20
271.3118130449085
 30
0.0
 11
38.6732736141276
 21
287.6601217887408
 31
0.0
  0
ARC
  5
80
330
2F
100
AcDbEntity
  8
A-DETL-MEDM
100
AcDbCircle
 10
45.40631414265274
 20
270.2859519036475
 30
0.0
 40
0.8500000000000135
100
AcDbArc
 50
315.9999999979108
 51
135.9999999979136
  0
LINE
  5
81
330
2F
100
AcDbEntity
  8
A-DETL-MEDM
100
AcDbLine
 10
98.8263518223089
 20
304.993199774696
 30
0.0
 11
93.32635182231184
 21
304.0234013807784
 31
0.0
  0
LINE
  5
82
330
2F
100
AcDbEntity
  8
A-DETL-MEDM
100
AcDbLine
 10
95.07760793984207
 20
301.4002135238527
 30
0.0
 11
96.5928932188281
 21
302.9154988028399
 31
0.0
  0
ARC
  5
83
330
2F
100
AcDbEntity
  8
A-DETL-MEDM
100
AcDbCircle
 10
97.2999999999787
 20
302.2083920216899
 30
0.0
 40
1.000000000000042
100
AcDbArc
 50
0.0
 51
135.0000000000229
  0
LINE
  5
84
330
2F
100
AcDbEntity
  8
A-DETL-MEDM
100
AcDbLine
 10
98.29999999997872
 20
302.2083920216899
 30
0.0
 11
98.29999999997872
 21
300.0083920216901
 31
0.0
  0
LINE
  5
85
330
2F
100
AcDbEntity
  8
A-DETL-MEDM
100
AcDbLine
 10
93.15797985664945
 20
302.0989010070011
 30
0.0
 11
95.0776079398421
 21
301.4002135238527
 31
0.0
  0
ARC
  5
86
330
2F
100
AcDbEntity
  8
A-DETL-MEDM
100
AcDbCircle
 10
93.49999999997846
 20
303.0385936277898
 30
0.0
 40
1.000000000000036
100
AcDbArc
 50
100.0000000002189
 51
249.9999999998723
  0
ARC
  5
87
330
2F
100
AcDbEntity
  8
A-DETL-MEDM
100
AcDbCircle
 10
98.99999999997858
 20
304.0083920216901
 30
0.0
 40
0.9999999999999147
100
AcDbArc
 50
0.0
 51
100.0000000002187
  0
LINE
  5
88
330
2F
100
AcDbEntity
  8
A-DETL-GENF
100
AcDbLine
 10
55.23806289429419
 20
313.1387816497189
 30
0.0
 11
55.23806289429419
 21
319.1387816497189
 31
0.0
  0
LINE
  5
89
330
2F
100
AcDbEntity
  8
A-DETL-GENF
100
AcDbLine
 10
55.23806289429419
 20
319.1387816497189
 30
0.0
 11
75.23806289429412
 21
319.1387816497189
 31
0.0
  0
LINE
  5
8A
330
2F
100
AcDbEntity
  8
A-DETL-GENF
100
AcDbLine
 10
57.23806289429415
 20
319.1387816497189
 30
0.0
 11
57.23806289429415
 21
325.1387816497189
 31
0.0
  0
LINE
  5
8B
330
2F
100
AcDbEntity
  8
A-DETL-GENF
100
AcDbLine
 10
57.23806289429415
 20
325.1387816497189
 30
0.0
 11
73.23806289429416
 21
325.1387816497189
 31
0.0
  0
LINE
  5
8C
330
2F
100
AcDbEntity
  8
A-DETL-GENF
100
AcDbLine
 10
73.23806289429416
 20
325.1387816497189
 30
0.0
 11
73.23806289429416
 21
319.1387816497189
 31
0.0
  0
LINE
  5
8D
330
2F
100
AcDbEntity
  8
A-DETL-GENF
100
AcDbLine
 10
75.23806289429412
 20
319.1387816497189
 30
0.0
 11
75.23806289429412
 21
313.1387816497189
 31
0.0
  0
ARC
  5
8E
330
2F
100
AcDbEntity
  8
A-DETL-MEDM
100
AcDbCircle
 10
-130.6000000000214
 20
0.6000000000001005
 30
0.0
 40
0.5999999999999938
100
AcDbArc
 50
180.0000000000001
 51
359.9999999999995
  0
ARC
  5
8F
330
2F
100
AcDbEntity
  8
A-DETL-MEDM
100
AcDbCircle
 10
41.40246081265405
 20
280.4306790094279
 30
0.0
 40
4.397079176265872
100
AcDbArc
 50
165.9999999997498
 51
215.9999999998714
  0
ARC
  5
90
330
2F
100
AcDbEntity
  8
A-DETL-GENF
100
AcDbCircle
 10
28.77700474182021
 20
281.252238325378
 30
0.0
 40
1.000000000000001
100
AcDbArc
 50
269.9999999999997
 51
342.381744177317
  0
ARC
  5
91
330
2F
100
AcDbEntity
  8
A-DETL-GENF
100
AcDbCircle
 10
25.50864948229758
 20
281.252238325378
 30
0.0
 40
1.0
100
AcDbArc
 50
180.0
 51
269.9999999999997
  0
ARC
  5
92
330
2F
100
AcDbEntity
  8
A-DETL-GENF
100
AcDbCircle
 10
25.50864948229758
 20
284.0875332626346
 30
0.0
 40
1.0
100
AcDbArc
 50
90.0
 51
180.0
  0
ARC
  5
93
330
2F
100
AcDbEntity
  8
A-DETL-MEDM
100
AcDbCircle
 10
-31.65793043933649
 20
23.36529843611621
 30
0.0
 40
3.0
100
AcDbArc
 50
279.0000000005022
 51
338.5870305246095
  0
ENDBLK
  5
31
330
2F
100
AcDbEntity
  8
0
100
AcDbBlockEnd
  0
ENDSEC
  0
SECTION
  2
ENTITIES
  0
INSERT
  5
96
330
17
100
AcDbEntity
  8
0
100
AcDbBlockReference
  2
37 DI opstand lichtkoepel - opstand 300mm-1586006-00_0 Basismaterialen
 10
0.0
 20
0.0
 30
0.0
  0
ENDSEC
  0
SECTION
  2
OBJECTS
  0
DICTIONARY
  5
A
330
0
100
AcDbDictionary
281
1
  3
ACAD_COLOR
350
B
  3
ACAD_GROUP
350
C
  3
ACAD_LAYOUT
350
D
  3
ACAD_MATERIAL
350
E
  3
ACAD_MLEADERSTYLE
350
F
  3
ACAD_MLINESTYLE
350
10
  3
ACAD_PLOTSETTINGS
350
11
  3
ACAD_PLOTSTYLENAME
350
12
  3
ACAD_SCALELIST
350
14
  3
ACAD_TABLESTYLE
350
15
  3
ACAD_VISUALSTYLE
350
16
  3
EZDXF_META
350
2D
  0
DICTIONARY
  5
B
330
A
100
AcDbDictionary
281
1
  0
DICTIONARY
  5
C
330
A
100
AcDbDictionary
281
1
  0
DICTIONARY
  5
D
330
A
100
AcDbDictionary
281
1
  3
Model
350
1A
  3
Layout1
350
1E
  0
DICTIONARY
  5
E
330
A
100
AcDbDictionary
281
1
  3
ByBlock
350
1F
  3
ByLayer
350
20
  3
Global
350
21
  0
DICTIONARY
  5
F
330
A
100
AcDbDictionary
281
1
  3
Standard
350
2C
  0
DICTIONARY
  5
10
330
A
100
AcDbDictionary
281
1
  3
Standard
350
22
  0
DICTIONARY
  5
11
330
A
100
AcDbDictionary
281
1
  0
ACDBDICTIONARYWDFLT
  5
12
330
A
100
AcDbDictionary
281
1
  3
Normal
350
13
100
AcDbDictionaryWithDefault
340
13
  0
ACDBPLACEHOLDER
  5
13
330
12
  0
DICTIONARY
  5
14
330
A
100
AcDbDictionary
281
1
  0
DICTIONARY
  5
15
330
A
100
AcDbDictionary
281
1
  0
DICTIONARY
  5
16
330
A
100
AcDbDictionary
281
1
  0
LAYOUT
  5
1A
330
D
100
AcDbPlotSettings
  1

  4
A3
  6

 40
7.5
 41
20.0
 42
7.5
 43
20.0
 44
420.0
 45
297.0
 46
0.0
 47
0.0
 48
0.0
 49
0.0
140
0.0
141
0.0
142
1.0
143
1.0
 70
1024
 72
1
 73
0
 74
5
  7

 75
16
 76
0
 77
2
 78
300
147
1.0
148
0.0
149
0.0
100
AcDbLayout
  1
Model
 70
1
 71
0
 10
0.0
 20
0.0
 11
420.0
 21
297.0
 12
0.0
 22
0.0
 32
0.0
 14
1e+20
 24
1e+20
 34
1e+20
 15
-1e+20
 25
-1e+20
 35
-1e+20
146
0.0
 13
0.0
 23
0.0
 33
0.0
 16
1.0
 26
0.0
 36
0.0
 17
0.0
 27
1.0
 37
0.0
 76
1
330
17
  0
LAYOUT
  5
1E
330
D
100
AcDbPlotSettings
  1

  4
A3
  6

 40
7.5
 41
20.0
 42
7.5
 43
20.0
 44
420.0
 45
297.0
 46
0.0
 47
0.0
 48
0.0
 49
0.0
140
0.0
141
0.0
142
1.0
143
1.0
 70
0
 72
1
 73
0
 74
5
  7

 75
16
 76
0
 77
2
 78
300
147
1.0
148
0.0
149
0.0
100
AcDbLayout
  1
Layout1
 70
1
 71
1
 10
0.0
 20
0.0
 11
420.0
 21
297.0
 12
0.0
 22
0.0
 32
0.0
 14
1e+20
 24
1e+20
 34
1e+20
 15
-1e+20
 25
-1e+20
 35
-1e+20
146
0.0
 13
0.0
 23
0.0
 33
0.0
 16
1.0
 26
0.0
 36
0.0
 17
0.0
 27
1.0
 37
0.0
 76
1
330
1B
  0
MATERIAL
  5
1F
102
{ACAD_REACTORS
330
E
102
}
330
E
100
AcDbMaterial
  1
ByBlock
  2

 70
0
 40
1.0
 71
1
 41
1.0
 91
-1023410177
 42
1.0
 72
1
  3

 73
1
 74
1
 75
1
 44
0.5
 73
0
 45
1.0
 46
1.0
 77
1
  4

 78
1
 79
1
170
1
 48
1.0
171
1
  6

172
1
173
1
174
1
140
1.0
141
1.0
175
1
  7

176
1
177
1
178
1
143
1.0
179
1
  8

270
1
271
1
272
1
145
1.0
146
1.0
273
1
  9

274
1
275
1
276
1
 42
1.0
 72
1
  3

 73
1
 74
1
 75
1
 94
63
  0
MATERIAL
  5
20
102
{ACAD_REACTORS
330
E
102
}
330
E
100
AcDbMaterial
  1
ByLayer
  2

 70
0
 40
1.0
 71
1
 41
1.0
 91
-1023410177
 42
1.0
 72
1
  3

 73
1
 74
1
 75
1
 44
0.5
 73
0
 45
1.0
 46
1.0
 77
1
  4

 78
1
 79
1
170
1
 48
1.0
171
1
  6

172
1
173
1
174
1
140
1.0
141
1.0
175
1
  7

176
1
177
1
178
1
143
1.0
179
1
  8

270
1
271
1
272
1
145
1.0
146
1.0
273
1
  9

274
1
275
1
276
1
 42
1.0
 72
1
  3

 73
1
 74
1
 75
1
 94
63
  0
MATERIAL
  5
21
102
{ACAD_REACTORS
330
E
102
}
330
E
100
AcDbMaterial
  1
Global
  2

 70
0
 40
1.0
 71
1
 41
1.0
 91
-1023410177
 42
1.0
 72
1
  3

 73
1
 74
1
 75
1
 44
0.5
 73
0
 45
1.0
 46
1.0
 77
1
  4

 78
1
 79
1
170
1
 48
1.0
171
1
  6

172
1
173
1
174
1
140
1.0
141
1.0
175
1
  7

176
1
177
1
178
1
143
1.0
179
1
  8

270
1
271
1
272
1
145
1.0
146
1.0
273
1
  9

274
1
275
1
276
1
 42
1.0
 72
1
  3

 73
1
 74
1
 75
1
 94
63
  0
MLINESTYLE
  5
22
102
{ACAD_REACTORS
330
10
102
}
330
10
100
AcDbMlineStyle
  2
Standard
 70
0
  3

 62
256
 51
90.0
 52
90.0
 71
2
 49
0.5
 62
256
  6
BYLAYER
 49
-0.5
 62
256
  6
BYLAYER
  0
MLEADERSTYLE
  5
2C
102
{ACAD_REACTORS
330
F
102
}
330
F
100
AcDbMLeaderStyle
179
2
170
2
171
1
172
0
 90
2
 40
0.0
 41
0.0
173
1
 91
-1056964608
 92
-2
290
1
 42
2.0
291
1
 43
8.0
  3
Standard
 44
4.0
300

342
29
174
1
175
1
176
0
178
1
 93
-1056964608
 45
4.0
292
0
297
0
 46
4.0
 94
-1056964608
 47
1.0
 49
1.0
140
1.0
294
1
141
0.0
177
0
142
1.0
295
0
296
0
143
3.75
271
0
272
9
273
9
  0
DICTIONARY
  5
2D
330
A
100
AcDbDictionary
280
1
281
1
  3
CREATED_BY_EZDXF
350
2E
  3
WRITTEN_BY_EZDXF
350
9A
  0
DICTIONARYVAR
  5
2E
330
2D
100
DictionaryVariables
280
0
  1
1.4.3 @ 2026-02-13T04:54:13.373180+00:00
  0
DICTIONARYVAR
  5
9A
330
2D
100
DictionaryVariables
280
0
  1
1.4.3 @ 2026-02-13T04:54:13.379704+00:00
  0
ENDSEC
  0
EOF
