0
SECTION
2
HEADER
9
$EXTMIN
10
 0
20
 100
30
0.0
9
$EXTMAX
10
 0
20
 100
30
0.0
9
$LIMMIN
10
 100
20
 0
9
$LIMMAX
10
 0
20
 100
9
$PSLTSCALE
70
1
0
ENDSEC
0
SECTION
2
TABLES
0
TABLE
2
LAYER
70
2
0
LAYER
2
0
70
0
62
7
6
CONTINUOUS
0
LAYER
2
Halfen
70
0
62
7
6
CONTINUOUS
0
ENDTAB
0
ENDSEC
0
SECTION
2
ENTITIES
0
POLYLINE
8
Halfen
62
7
66
1
10
0.0
20
0.0
30
0.0
70
1
0
VERTEX
8
Halfen
62
7
10
 0
20
-73.5
30
0
0
VERTEX
8
Halfen
62
7
10
 250
20
-73.5
30
0
0
VERTEX
8
Halfen
62
7
10
 250
20
 73.5
30
0
0
VERTEX
8
Halfen
62
7
10
 0
20
 73.5
30
0
0
SEQEND
8
Halfen
0
POLYLINE
8
Halfen
62
7
66
1
10
0.0
20
0.0
30
0.0
70
1
0
VERTEX
8
Halfen
62
7
10
 0
20
-60
30
0
0
VERTEX
8
Halfen
62
7
10
 250
20
-60
30
0
0
VERTEX
8
Halfen
62
7
10
 250
20
 60
30
0
0
VERTEX
8
Halfen
62
7
10
 0
20
 60
30
0
0
SEQEND
8
Halfen
0
POLYLINE
8
Halfen
62
7
66
1
10
0.0
20
0.0
30
0.0
70
1
0
VERTEX
8
Halfen
62
7
10
 20
20
-32.5
30
0
0
VERTEX
8
Halfen
62
7
10
 37
20
-1.5
30
0
0
VERTEX
8
Halfen
62
7
10
 28
20
-1.5
30
0
0
VERTEX
8
Halfen
62
7
10
 28
20
 32.5
30
0
0
VERTEX
8
Halfen
62
7
10
 12
20
 32.5
30
0
0
VERTEX
8
Halfen
62
7
10
 12
20
-1.5
30
0
0
VERTEX
8
Halfen
62
7
10
 3
20
-1.5
30
0
0
SEQEND
8
Halfen
0
POLYLINE
8
Halfen
62
7
66
1
10
0.0
20
0.0
30
0.0
70
1
0
VERTEX
8
Halfen
62
7
10
 230
20
-32.5
30
0
0
VERTEX
8
Halfen
62
7
10
 247
20
-1.5
30
0
0
VERTEX
8
Halfen
62
7
10
 238
20
-1.5
30
0
0
VERTEX
8
Halfen
62
7
10
 238
20
 32.5
30
0
0
VERTEX
8
Halfen
62
7
10
 222
20
 32.5
30
0
0
VERTEX
8
Halfen
62
7
10
 222
20
-1.5
30
0
0
VERTEX
8
Halfen
62
7
10
 213
20
-1.5
30
0
0
SEQEND
8
Halfen
0
POLYLINE
8
Halfen
62
7
66
1
10
0.0
20
0.0
30
0.0
70
1
0
VERTEX
8
Halfen
62
7
10
 73
20
-456.927
30
0
0
VERTEX
8
Halfen
62
7
10
 73
20
 214.971
30
0
0
VERTEX
8
Halfen
62
7
10
 67
20
 214.971
30
0
0
VERTEX
8
Halfen
62
7
10
 67
20
-456.927
30
0
0
SEQEND
8
Halfen
0
POLYLINE
8
Halfen
62
7
66
1
10
0.0
20
0.0
30
0.0
70
1
0
VERTEX
8
Halfen
62
7
10
 133
20
-456.927
30
0
0
VERTEX
8
Halfen
62
7
10
 133
20
 214.971
30
0
0
VERTEX
8
Halfen
62
7
10
 127
20
 214.971
30
0
0
VERTEX
8
Halfen
62
7
10
 127
20
-456.927
30
0
0
SEQEND
8
Halfen
0
POLYLINE
8
Halfen
62
7
66
1
10
0.0
20
0.0
30
0.0
70
1
0
VERTEX
8
Halfen
62
7
10
 193
20
-456.927
30
0
0
VERTEX
8
Halfen
62
7
10
 193
20
 214.971
30
0
0
VERTEX
8
Halfen
62
7
10
 187
20
 214.971
30
0
0
VERTEX
8
Halfen
62
7
10
 187
20
-456.927
30
0
0
SEQEND
8
Halfen
0
POLYLINE
8
Halfen
62
7
66
1
10
0.0
20
0.0
30
0.0
70
1
0
VERTEX
8
Halfen
62
7
10
 620
20
-60
30
0
0
VERTEX
8
Halfen
62
7
10
 620
20
 60
30
0
0
VERTEX
8
Halfen
62
7
10
 606.5
20
 73.5
30
0
0
VERTEX
8
Halfen
62
7
10
 606.5
20
 60
30
0
0
VERTEX
8
Halfen
62
7
10
 500
20
 60
30
0
0
VERTEX
8
Halfen
62
7
10
 500
20
-60
30
0
0
VERTEX
8
Halfen
62
7
10
 606.5
20
-60
30
0
0
VERTEX
8
Halfen
62
7
10
 606.5
20
-73.5
30
0
0
SEQEND
8
Halfen
0
POLYLINE
8
Halfen
62
7
66
1
10
0.0
20
0.0
30
0.0
70
1
0
VERTEX
8
Halfen
62
7
10
 500
20
-60
30
0
0
VERTEX
8
Halfen
62
7
10
 500
20
 60
30
0
0
VERTEX
8
Halfen
62
7
10
 463.5
20
 60
30
0
0
VERTEX
8
Halfen
62
7
10
 463.5
20
 73.5
30
0
0
VERTEX
8
Halfen
62
7
10
 450
20
 60
30
0
0
VERTEX
8
Halfen
62
7
10
 450
20
-60
30
0
0
VERTEX
8
Halfen
62
7
10
 463.5
20
-73.5
30
0
0
VERTEX
8
Halfen
62
7
10
 463.5
20
-60
30
0
0
SEQEND
8
Halfen
0
POLYLINE
8
Halfen
62
7
66
1
10
0.0
20
0.0
30
0.0
70
1
0
VERTEX
8
Halfen
62
7
10
 617.5
20
-58.75
30
0
0
VERTEX
8
Halfen
62
7
10
 617.5
20
 58.75
30
0
0
VERTEX
8
Halfen
62
7
10
 609
20
 67.25
30
0
0
VERTEX
8
Halfen
62
7
10
 609
20
 58
30
0
0
VERTEX
8
Halfen
62
7
10
 502
20
 58
30
0
0
VERTEX
8
Halfen
62
7
10
 502
20
-58
30
0
0
VERTEX
8
Halfen
62
7
10
 609
20
-58
30
0
0
VERTEX
8
Halfen
62
7
10
 609
20
-67.25
30
0
0
SEQEND
8
Halfen
0
POLYLINE
8
Halfen
62
7
66
1
10
0.0
20
0.0
30
0.0
70
1
0
VERTEX
8
Halfen
62
7
10
 498
20
-58
30
0
0
VERTEX
8
Halfen
62
7
10
 498
20
 58
30
0
0
VERTEX
8
Halfen
62
7
10
 461
20
 58
30
0
0
VERTEX
8
Halfen
62
7
10
 461
20
 67.25
30
0
0
VERTEX
8
Halfen
62
7
10
 452.5
20
 58.75
30
0
0
VERTEX
8
Halfen
62
7
10
 452.5
20
-58.75
30
0
0
VERTEX
8
Halfen
62
7
10
 461
20
-67.25
30
0
0
VERTEX
8
Halfen
62
7
10
 461
20
-58
30
0
0
SEQEND
8
Halfen
0
POLYLINE
8
Halfen
62
7
66
1
10
0.0
20
0.0
30
0.0
70
1
0
VERTEX
8
Halfen
62
7
10
 590
20
-456.927
30
0
0
VERTEX
8
Halfen
62
7
10
 590
20
-79.715
30
0
0
VERTEX
8
Halfen
62
7
10
 589.766
20
-76.375
30
0
0
VERTEX
8
Halfen
62
7
10
 589.07
20
-73.1
30
0
0
VERTEX
8
Halfen
62
7
10
 587.925
20
-69.953
30
0
0
VERTEX
8
Halfen
62
7
10
 586.353
20
-66.997
30
0
0
VERTEX
8
Halfen
62
7
10
 498.735
20
 73.221
30
0
0
VERTEX
8
Halfen
62
7
10
 497.556
20
 75.438
30
0
0
VERTEX
8
Halfen
62
7
10
 496.697
20
 77.798
30
0
0
VERTEX
8
Halfen
62
7
10
 496.175
20
 80.255
30
0
0
VERTEX
8
Halfen
62
7
10
 496
20
 82.76
30
0
0
VERTEX
8
Halfen
62
7
10
 496
20
 190.971
30
0
0
VERTEX
8
Halfen
62
7
10
 496.222
20
 193.787
30
0
0
VERTEX
8
Halfen
62
7
10
 496.881
20
 196.534
30
0
0
VERTEX
8
Halfen
62
7
10
 497.962
20
 199.143
30
0
0
VERTEX
8
Halfen
62
7
10
 499.438
20
 201.551
30
0
0
VERTEX
8
Halfen
62
7
10
 501.272
20
 203.699
30
0
0
VERTEX
8
Halfen
62
7
10
 503.42
20
 205.534
30
0
0
VERTEX
8
Halfen
62
7
10
 505.828
20
 207.009
30
0
0
VERTEX
8
Halfen
62
7
10
 508.438
20
 208.09
30
0
0
VERTEX
8
Halfen
62
7
10
 511.184
20
 208.75
30
0
0
VERTEX
8
Halfen
62
7
10
 514
20
 208.971
30
0
0
VERTEX
8
Halfen
62
7
10
 536
20
 208.971
30
0
0
VERTEX
8
Halfen
62
7
10
 538.816
20
 208.75
30
0
0
VERTEX
8
Halfen
62
7
10
 541.562
20
 208.09
30
0
0
VERTEX
8
Halfen
62
7
10
 544.172
20
 207.009
30
0
0
VERTEX
8
Halfen
62
7
10
 546.58
20
 205.534
30
0
0
VERTEX
8
Halfen
62
7
10
 548.728
20
 203.699
30
0
0
VERTEX
8
Halfen
62
7
10
 550.562
20
 201.551
30
0
0
VERTEX
8
Halfen
62
7
10
 552.038
20
 199.143
30
0
0
VERTEX
8
Halfen
62
7
10
 553.119
20
 196.534
30
0
0
VERTEX
8
Halfen
62
7
10
 553.778
20
 193.787
30
0
0
VERTEX
8
Halfen
62
7
10
 554
20
 190.971
30
0
0
VERTEX
8
Halfen
62
7
10
 554
20
 138.971
30
0
0
VERTEX
8
Halfen
62
7
10
 560
20
 138.971
30
0
0
VERTEX
8
Halfen
62
7
10
 560
20
 190.971
30
0
0
VERTEX
8
Halfen
62
7
10
 559.705
20
 194.726
30
0
0
VERTEX
8
Halfen
62
7
10
 558.825
20
 198.388
30
0
0
VERTEX
8
Halfen
62
7
10
 557.384
20
 201.867
30
0
0
VERTEX
8
Halfen
62
7
10
 555.416
20
 205.078
30
0
0
VERTEX
8
Halfen
62
7
10
 552.971
20
 207.942
30
0
0
VERTEX
8
Halfen
62
7
10
 550.107
20
 210.388
30
0
0
VERTEX
8
Halfen
62
7
10
 546.896
20
 212.355
30
0
0
VERTEX
8
Halfen
62
7
10
 543.416
20
 213.797
30
0
0
VERTEX
8
Halfen
62
7
10
 539.754
20
 214.676
30
0
0
VERTEX
8
Halfen
62
7
10
 536
20
 214.971
30
0
0
VERTEX
8
Halfen
62
7
10
 514
20
 214.971
30
0
0
VERTEX
8
Halfen
62
7
10
 510.246
20
 214.676
30
0
0
VERTEX
8
Halfen
62
7
10
 506.584
20
 213.797
30
0
0
VERTEX
8
Halfen
62
7
10
 503.104
20
 212.355
30
0
0
VERTEX
8
Halfen
62
7
10
 499.893
20
 210.388
30
0
0
VERTEX
8
Halfen
62
7
10
 497.029
20
 207.942
30
0
0
VERTEX
8
Halfen
62
7
10
 494.584
20
 205.078
30
0
0
VERTEX
8
Halfen
62
7
10
 492.616
20
 201.867
30
0
0
VERTEX
8
Halfen
62
7
10
 491.175
20
 198.388
30
0
0
VERTEX
8
Halfen
62
7
10
 490.295
20
 194.726
30
0
0
VERTEX
8
Halfen
62
7
10
 490
20
 190.971
30
0
0
VERTEX
8
Halfen
62
7
10
 490
20
 82.76
30
0
0
VERTEX
8
Halfen
62
7
10
 490.234
20
 79.419
30
0
0
VERTEX
8
Halfen
62
7
10
 490.93
20
 76.144
30
0
0
VERTEX
8
Halfen
62
7
10
 492.075
20
 72.998
30
0
0
VERTEX
8
Halfen
62
7
10
 493.647
20
 70.042
30
0
0
VERTEX
8
Halfen
62
7
10
 581.265
20
-70.177
30
0
0
VERTEX
8
Halfen
62
7
10
 582.444
20
-72.394
30
0
0
VERTEX
8
Halfen
62
7
10
 583.303
20
-74.754
30
0
0
VERTEX
8
Halfen
62
7
10
 583.825
20
-77.21
30
0
0
VERTEX
8
Halfen
62
7
10
 584
20
-79.715
30
0
0
VERTEX
8
Halfen
62
7
10
 584
20
-456.927
30
0
0
SEQEND
8
Halfen
0
ENDSEC
0
EOF
