0
SECTION
2
HEADER
9
$EXTMIN
10
 0
20
 100
30
0.0
9
$EXTMAX
10
 0
20
 100
30
0.0
9
$LIMMIN
10
 100
20
 0
9
$LIMMAX
10
 0
20
 100
9
$PSLTSCALE
70
1
0
ENDSEC
0
SECTION
2
TABLES
0
TABLE
2
LAYER
70
2
0
LAYER
2
0
70
0
62
7
6
CONTINUOUS
0
LAYER
2
Halfen
70
0
62
7
6
CONTINUOUS
0
ENDTAB
0
ENDSEC
0
SECTION
2
ENTITIES
0
POLYLINE
8
Halfen
62
7
66
1
10
0.0
20
0.0
30
0.0
70
1
0
VERTEX
8
Halfen
62
7
10
 0
20
-73.5
30
0
0
VERTEX
8
Halfen
62
7
10
 500
20
-73.5
30
0
0
VERTEX
8
Halfen
62
7
10
 500
20
 73.5
30
0
0
VERTEX
8
Halfen
62
7
10
 0
20
 73.5
30
0
0
SEQEND
8
Halfen
0
POLYLINE
8
Halfen
62
7
66
1
10
0.0
20
0.0
30
0.0
70
1
0
VERTEX
8
Halfen
62
7
10
 0
20
-60
30
0
0
VERTEX
8
Halfen
62
7
10
 500
20
-60
30
0
0
VERTEX
8
Halfen
62
7
10
 500
20
 60
30
0
0
VERTEX
8
Halfen
62
7
10
 0
20
 60
30
0
0
SEQEND
8
Halfen
0
POLYLINE
8
Halfen
62
7
66
1
10
0.0
20
0.0
30
0.0
70
1
0
VERTEX
8
Halfen
62
7
10
 20
20
-32.5
30
0
0
VERTEX
8
Halfen
62
7
10
 37
20
-1.5
30
0
0
VERTEX
8
Halfen
62
7
10
 28
20
-1.5
30
0
0
VERTEX
8
Halfen
62
7
10
 28
20
 32.5
30
0
0
VERTEX
8
Halfen
62
7
10
 12
20
 32.5
30
0
0
VERTEX
8
Halfen
62
7
10
 12
20
-1.5
30
0
0
VERTEX
8
Halfen
62
7
10
 3
20
-1.5
30
0
0
SEQEND
8
Halfen
0
POLYLINE
8
Halfen
62
7
66
1
10
0.0
20
0.0
30
0.0
70
1
0
VERTEX
8
Halfen
62
7
10
 480
20
-32.5
30
0
0
VERTEX
8
Halfen
62
7
10
 497
20
-1.5
30
0
0
VERTEX
8
Halfen
62
7
10
 488
20
-1.5
30
0
0
VERTEX
8
Halfen
62
7
10
 488
20
 32.5
30
0
0
VERTEX
8
Halfen
62
7
10
 472
20
 32.5
30
0
0
VERTEX
8
Halfen
62
7
10
 472
20
-1.5
30
0
0
VERTEX
8
Halfen
62
7
10
 463
20
-1.5
30
0
0
SEQEND
8
Halfen
0
POLYLINE
8
Halfen
62
7
66
1
10
0.0
20
0.0
30
0.0
70
1
0
VERTEX
8
Halfen
62
7
10
 265
20
-69.3
30
0
0
VERTEX
8
Halfen
62
7
10
 265
20
-56.8
30
0
0
VERTEX
8
Halfen
62
7
10
 265
20
 69.3
30
0
0
VERTEX
8
Halfen
62
7
10
 264.958
20
 70.359
30
0
0
VERTEX
8
Halfen
62
7
10
 264.834
20
 71.412
30
0
0
VERTEX
8
Halfen
62
7
10
 264.627
20
 72.452
30
0
0
VERTEX
8
Halfen
62
7
10
 264.339
20
 73.472
30
0
0
VERTEX
8
Halfen
62
7
10
 263.972
20
 74.466
30
0
0
VERTEX
8
Halfen
62
7
10
 263.529
20
 75.429
30
0
0
VERTEX
8
Halfen
62
7
10
 263.011
20
 76.354
30
0
0
VERTEX
8
Halfen
62
7
10
 262.422
20
 77.235
30
0
0
VERTEX
8
Halfen
62
7
10
 261.765
20
 78.068
30
0
0
VERTEX
8
Halfen
62
7
10
 261.046
20
 78.846
30
0
0
VERTEX
8
Halfen
62
7
10
 260.268
20
 79.565
30
0
0
VERTEX
8
Halfen
62
7
10
 259.435
20
 80.222
30
0
0
VERTEX
8
Halfen
62
7
10
 258.554
20
 80.811
30
0
0
VERTEX
8
Halfen
62
7
10
 257.629
20
 81.329
30
0
0
VERTEX
8
Halfen
62
7
10
 256.666
20
 81.772
30
0
0
VERTEX
8
Halfen
62
7
10
 255.672
20
 82.139
30
0
0
VERTEX
8
Halfen
62
7
10
 254.652
20
 82.427
30
0
0
VERTEX
8
Halfen
62
7
10
 253.612
20
 82.634
30
0
0
VERTEX
8
Halfen
62
7
10
 252.559
20
 82.758
30
0
0
VERTEX
8
Halfen
62
7
10
 251.5
20
 82.8
30
0
0
VERTEX
8
Halfen
62
7
10
 248.5
20
 82.8
30
0
0
VERTEX
8
Halfen
62
7
10
 247.441
20
 82.758
30
0
0
VERTEX
8
Halfen
62
7
10
 246.388
20
 82.634
30
0
0
VERTEX
8
Halfen
62
7
10
 245.348
20
 82.427
30
0
0
VERTEX
8
Halfen
62
7
10
 244.328
20
 82.139
30
0
0
VERTEX
8
Halfen
62
7
10
 243.334
20
 81.772
30
0
0
VERTEX
8
Halfen
62
7
10
 242.371
20
 81.329
30
0
0
VERTEX
8
Halfen
62
7
10
 241.446
20
 80.811
30
0
0
VERTEX
8
Halfen
62
7
10
 240.565
20
 80.222
30
0
0
VERTEX
8
Halfen
62
7
10
 239.732
20
 79.565
30
0
0
VERTEX
8
Halfen
62
7
10
 238.954
20
 78.846
30
0
0
VERTEX
8
Halfen
62
7
10
 238.235
20
 78.068
30
0
0
VERTEX
8
Halfen
62
7
10
 237.578
20
 77.235
30
0
0
VERTEX
8
Halfen
62
7
10
 236.989
20
 76.354
30
0
0
VERTEX
8
Halfen
62
7
10
 236.471
20
 75.429
30
0
0
VERTEX
8
Halfen
62
7
10
 236.028
20
 74.466
30
0
0
VERTEX
8
Halfen
62
7
10
 235.661
20
 73.472
30
0
0
VERTEX
8
Halfen
62
7
10
 235.373
20
 72.452
30
0
0
VERTEX
8
Halfen
62
7
10
 235.166
20
 71.412
30
0
0
VERTEX
8
Halfen
62
7
10
 235.042
20
 70.359
30
0
0
VERTEX
8
Halfen
62
7
10
 235
20
 69.3
30
0
0
VERTEX
8
Halfen
62
7
10
 235
20
-56.8
30
0
0
VERTEX
8
Halfen
62
7
10
 235
20
-69.3
30
0
0
VERTEX
8
Halfen
62
7
10
 235.042
20
-70.359
30
0
0
VERTEX
8
Halfen
62
7
10
 235.166
20
-71.412
30
0
0
VERTEX
8
Halfen
62
7
10
 235.373
20
-72.452
30
0
0
VERTEX
8
Halfen
62
7
10
 235.661
20
-73.472
30
0
0
VERTEX
8
Halfen
62
7
10
 236.028
20
-74.466
30
0
0
VERTEX
8
Halfen
62
7
10
 236.471
20
-75.429
30
0
0
VERTEX
8
Halfen
62
7
10
 236.989
20
-76.354
30
0
0
VERTEX
8
Halfen
62
7
10
 237.578
20
-77.235
30
0
0
VERTEX
8
Halfen
62
7
10
 238.235
20
-78.068
30
0
0
VERTEX
8
Halfen
62
7
10
 238.954
20
-78.846
30
0
0
VERTEX
8
Halfen
62
7
10
 239.732
20
-79.565
30
0
0
VERTEX
8
Halfen
62
7
10
 240.565
20
-80.222
30
0
0
VERTEX
8
Halfen
62
7
10
 241.446
20
-80.811
30
0
0
VERTEX
8
Halfen
62
7
10
 242.371
20
-81.329
30
0
0
VERTEX
8
Halfen
62
7
10
 243.334
20
-81.772
30
0
0
VERTEX
8
Halfen
62
7
10
 244.328
20
-82.139
30
0
0
VERTEX
8
Halfen
62
7
10
 245.348
20
-82.427
30
0
0
VERTEX
8
Halfen
62
7
10
 246.388
20
-82.634
30
0
0
VERTEX
8
Halfen
62
7
10
 247.441
20
-82.758
30
0
0
VERTEX
8
Halfen
62
7
10
 248.5
20
-82.8
30
0
0
VERTEX
8
Halfen
62
7
10
 251.5
20
-82.8
30
0
0
VERTEX
8
Halfen
62
7
10
 252.559
20
-82.758
30
0
0
VERTEX
8
Halfen
62
7
10
 253.612
20
-82.634
30
0
0
VERTEX
8
Halfen
62
7
10
 254.652
20
-82.427
30
0
0
VERTEX
8
Halfen
62
7
10
 255.672
20
-82.139
30
0
0
VERTEX
8
Halfen
62
7
10
 256.666
20
-81.772
30
0
0
VERTEX
8
Halfen
62
7
10
 257.629
20
-81.329
30
0
0
VERTEX
8
Halfen
62
7
10
 258.554
20
-80.811
30
0
0
VERTEX
8
Halfen
62
7
10
 259.435
20
-80.222
30
0
0
VERTEX
8
Halfen
62
7
10
 260.268
20
-79.565
30
0
0
VERTEX
8
Halfen
62
7
10
 261.046
20
-78.846
30
0
0
VERTEX
8
Halfen
62
7
10
 261.765
20
-78.068
30
0
0
VERTEX
8
Halfen
62
7
10
 262.422
20
-77.235
30
0
0
VERTEX
8
Halfen
62
7
10
 263.011
20
-76.354
30
0
0
VERTEX
8
Halfen
62
7
10
 263.529
20
-75.429
30
0
0
VERTEX
8
Halfen
62
7
10
 263.972
20
-74.466
30
0
0
VERTEX
8
Halfen
62
7
10
 264.339
20
-73.472
30
0
0
VERTEX
8
Halfen
62
7
10
 264.627
20
-72.452
30
0
0
VERTEX
8
Halfen
62
7
10
 264.834
20
-71.412
30
0
0
VERTEX
8
Halfen
62
7
10
 264.958
20
-70.359
30
0
0
VERTEX
8
Halfen
62
7
10
 265
20
-69.3
30
0
0
SEQEND
8
Halfen
0
POLYLINE
8
Halfen
62
7
66
1
10
0.0
20
0.0
30
0.0
70
1
0
VERTEX
8
Halfen
62
7
10
 73
20
-456.177
30
0
0
VERTEX
8
Halfen
62
7
10
 73
20
 216.147
30
0
0
VERTEX
8
Halfen
62
7
10
 67
20
 216.147
30
0
0
VERTEX
8
Halfen
62
7
10
 67
20
-456.177
30
0
0
SEQEND
8
Halfen
0
POLYLINE
8
Halfen
62
7
66
1
10
0.0
20
0.0
30
0.0
70
1
0
VERTEX
8
Halfen
62
7
10
 193
20
-456.177
30
0
0
VERTEX
8
Halfen
62
7
10
 193
20
 216.147
30
0
0
VERTEX
8
Halfen
62
7
10
 187
20
 216.147
30
0
0
VERTEX
8
Halfen
62
7
10
 187
20
-456.177
30
0
0
SEQEND
8
Halfen
0
POLYLINE
8
Halfen
62
7
66
1
10
0.0
20
0.0
30
0.0
70
1
0
VERTEX
8
Halfen
62
7
10
 323
20
-456.177
30
0
0
VERTEX
8
Halfen
62
7
10
 323
20
 216.147
30
0
0
VERTEX
8
Halfen
62
7
10
 317
20
 216.147
30
0
0
VERTEX
8
Halfen
62
7
10
 317
20
-456.177
30
0
0
SEQEND
8
Halfen
0
POLYLINE
8
Halfen
62
7
66
1
10
0.0
20
0.0
30
0.0
70
1
0
VERTEX
8
Halfen
62
7
10
 930
20
-60
30
0
0
VERTEX
8
Halfen
62
7
10
 930
20
 60
30
0
0
VERTEX
8
Halfen
62
7
10
 916.5
20
 73.5
30
0
0
VERTEX
8
Halfen
62
7
10
 916.5
20
 60
30
0
0
VERTEX
8
Halfen
62
7
10
 750
20
 60
30
0
0
VERTEX
8
Halfen
62
7
10
 750
20
-60
30
0
0
VERTEX
8
Halfen
62
7
10
 916.5
20
-60
30
0
0
VERTEX
8
Halfen
62
7
10
 916.5
20
-73.5
30
0
0
SEQEND
8
Halfen
0
POLYLINE
8
Halfen
62
7
66
1
10
0.0
20
0.0
30
0.0
70
1
0
VERTEX
8
Halfen
62
7
10
 750
20
-60
30
0
0
VERTEX
8
Halfen
62
7
10
 750
20
 60
30
0
0
VERTEX
8
Halfen
62
7
10
 713.5
20
 60
30
0
0
VERTEX
8
Halfen
62
7
10
 713.5
20
 73.5
30
0
0
VERTEX
8
Halfen
62
7
10
 700
20
 60
30
0
0
VERTEX
8
Halfen
62
7
10
 700
20
-60
30
0
0
VERTEX
8
Halfen
62
7
10
 713.5
20
-73.5
30
0
0
VERTEX
8
Halfen
62
7
10
 713.5
20
-60
30
0
0
SEQEND
8
Halfen
0
POLYLINE
8
Halfen
62
7
66
1
10
0.0
20
0.0
30
0.0
70
1
0
VERTEX
8
Halfen
62
7
10
 927.5
20
-58.75
30
0
0
VERTEX
8
Halfen
62
7
10
 927.5
20
 58.75
30
0
0
VERTEX
8
Halfen
62
7
10
 919
20
 67.25
30
0
0
VERTEX
8
Halfen
62
7
10
 919
20
 58
30
0
0
VERTEX
8
Halfen
62
7
10
 752
20
 58
30
0
0
VERTEX
8
Halfen
62
7
10
 752
20
-58
30
0
0
VERTEX
8
Halfen
62
7
10
 919
20
-58
30
0
0
VERTEX
8
Halfen
62
7
10
 919
20
-67.25
30
0
0
SEQEND
8
Halfen
0
POLYLINE
8
Halfen
62
7
66
1
10
0.0
20
0.0
30
0.0
70
1
0
VERTEX
8
Halfen
62
7
10
 748
20
-58
30
0
0
VERTEX
8
Halfen
62
7
10
 748
20
 58
30
0
0
VERTEX
8
Halfen
62
7
10
 711
20
 58
30
0
0
VERTEX
8
Halfen
62
7
10
 711
20
 67.25
30
0
0
VERTEX
8
Halfen
62
7
10
 702.5
20
 58.75
30
0
0
VERTEX
8
Halfen
62
7
10
 702.5
20
-58.75
30
0
0
VERTEX
8
Halfen
62
7
10
 711
20
-67.25
30
0
0
VERTEX
8
Halfen
62
7
10
 711
20
-58
30
0
0
SEQEND
8
Halfen
0
POLYLINE
8
Halfen
62
7
66
1
10
0.0
20
0.0
30
0.0
70
1
0
VERTEX
8
Halfen
62
7
10
 915
20
-81.8
30
0
0
VERTEX
8
Halfen
62
7
10
 915
20
 81.8
30
0
0
VERTEX
8
Halfen
62
7
10
 911
20
 81.8
30
0
0
VERTEX
8
Halfen
62
7
10
 910.846
20
 81.797
30
0
0
VERTEX
8
Halfen
62
7
10
 910.691
20
 81.786
30
0
0
VERTEX
8
Halfen
62
7
10
 910.538
20
 81.769
30
0
0
VERTEX
8
Halfen
62
7
10
 910.385
20
 81.746
30
0
0
VERTEX
8
Halfen
62
7
10
 910.234
20
 81.715
30
0
0
VERTEX
8
Halfen
62
7
10
 910.084
20
 81.678
30
0
0
VERTEX
8
Halfen
62
7
10
 909.936
20
 81.634
30
0
0
VERTEX
8
Halfen
62
7
10
 909.789
20
 81.584
30
0
0
VERTEX
8
Halfen
62
7
10
 909.646
20
 81.527
30
0
0
VERTEX
8
Halfen
62
7
10
 909.505
20
 81.464
30
0
0
VERTEX
8
Halfen
62
7
10
 909.366
20
 81.395
30
0
0
VERTEX
8
Halfen
62
7
10
 909.231
20
 81.32
30
0
0
VERTEX
8
Halfen
62
7
10
 909.1
20
 81.239
30
0
0
VERTEX
8
Halfen
62
7
10
 908.972
20
 81.153
30
0
0
VERTEX
8
Halfen
62
7
10
 908.848
20
 81.06
30
0
0
VERTEX
8
Halfen
62
7
10
 908.728
20
 80.963
30
0
0
VERTEX
8
Halfen
62
7
10
 908.613
20
 80.86
30
0
0
VERTEX
8
Halfen
62
7
10
 908.502
20
 80.752
30
0
0
VERTEX
8
Halfen
62
7
10
 908.397
20
 80.639
30
0
0
VERTEX
8
Halfen
62
7
10
 908.296
20
 80.522
30
0
0
VERTEX
8
Halfen
62
7
10
 907.41
20
 79.491
30
0
0
VERTEX
8
Halfen
62
7
10
 906.479
20
 78.5
30
0
0
VERTEX
8
Halfen
62
7
10
 905.505
20
 77.551
30
0
0
VERTEX
8
Halfen
62
7
10
 904.491
20
 76.646
30
0
0
VERTEX
8
Halfen
62
7
10
 903.437
20
 75.787
30
0
0
VERTEX
8
Halfen
62
7
10
 902.347
20
 74.975
30
0
0
VERTEX
8
Halfen
62
7
10
 901.222
20
 74.211
30
0
0
VERTEX
8
Halfen
62
7
10
 900.064
20
 73.499
30
0
0
VERTEX
8
Halfen
62
7
10
 898.876
20
 72.838
30
0
0
VERTEX
8
Halfen
62
7
10
 897.66
20
 72.23
30
0
0
VERTEX
8
Halfen
62
7
10
 896.418
20
 71.676
30
0
0
VERTEX
8
Halfen
62
7
10
 895.153
20
 71.178
30
0
0
VERTEX
8
Halfen
62
7
10
 893.867
20
 70.736
30
0
0
VERTEX
8
Halfen
62
7
10
 892.563
20
 70.351
30
0
0
VERTEX
8
Halfen
62
7
10
 891.243
20
 70.024
30
0
0
VERTEX
8
Halfen
62
7
10
 889.911
20
 69.756
30
0
0
VERTEX
8
Halfen
62
7
10
 888.567
20
 69.547
30
0
0
VERTEX
8
Halfen
62
7
10
 887.216
20
 69.397
30
0
0
VERTEX
8
Halfen
62
7
10
 885.859
20
 69.307
30
0
0
VERTEX
8
Halfen
62
7
10
 884.5
20
 69.277
30
0
0
VERTEX
8
Halfen
62
7
10
 862.5
20
 69.277
30
0
0
VERTEX
8
Halfen
62
7
10
 861.141
20
 69.307
30
0
0
VERTEX
8
Halfen
62
7
10
 859.784
20
 69.397
30
0
0
VERTEX
8
Halfen
62
7
10
 858.433
20
 69.547
30
0
0
VERTEX
8
Halfen
62
7
10
 857.089
20
 69.756
30
0
0
VERTEX
8
Halfen
62
7
10
 855.757
20
 70.024
30
0
0
VERTEX
8
Halfen
62
7
10
 854.437
20
 70.351
30
0
0
VERTEX
8
Halfen
62
7
10
 853.133
20
 70.736
30
0
0
VERTEX
8
Halfen
62
7
10
 851.847
20
 71.178
30
0
0
VERTEX
8
Halfen
62
7
10
 850.582
20
 71.676
30
0
0
VERTEX
8
Halfen
62
7
10
 849.34
20
 72.23
30
0
0
VERTEX
8
Halfen
62
7
10
 848.124
20
 72.838
30
0
0
VERTEX
8
Halfen
62
7
10
 846.936
20
 73.499
30
0
0
VERTEX
8
Halfen
62
7
10
 845.778
20
 74.211
30
0
0
VERTEX
8
Halfen
62
7
10
 844.653
20
 74.975
30
0
0
VERTEX
8
Halfen
62
7
10
 843.563
20
 75.787
30
0
0
VERTEX
8
Halfen
62
7
10
 842.509
20
 76.646
30
0
0
VERTEX
8
Halfen
62
7
10
 841.495
20
 77.551
30
0
0
VERTEX
8
Halfen
62
7
10
 840.521
20
 78.5
30
0
0
VERTEX
8
Halfen
62
7
10
 839.59
20
 79.491
30
0
0
VERTEX
8
Halfen
62
7
10
 838.704
20
 80.522
30
0
0
VERTEX
8
Halfen
62
7
10
 838.603
20
 80.639
30
0
0
VERTEX
8
Halfen
62
7
10
 838.498
20
 80.752
30
0
0
VERTEX
8
Halfen
62
7
10
 838.387
20
 80.86
30
0
0
VERTEX
8
Halfen
62
7
10
 838.272
20
 80.963
30
0
0
VERTEX
8
Halfen
62
7
10
 838.152
20
 81.06
30
0
0
VERTEX
8
Halfen
62
7
10
 838.028
20
 81.153
30
0
0
VERTEX
8
Halfen
62
7
10
 837.9
20
 81.239
30
0
0
VERTEX
8
Halfen
62
7
10
 837.769
20
 81.32
30
0
0
VERTEX
8
Halfen
62
7
10
 837.634
20
 81.395
30
0
0
VERTEX
8
Halfen
62
7
10
 837.495
20
 81.464
30
0
0
VERTEX
8
Halfen
62
7
10
 837.354
20
 81.527
30
0
0
VERTEX
8
Halfen
62
7
10
 837.211
20
 81.584
30
0
0
VERTEX
8
Halfen
62
7
10
 837.064
20
 81.634
30
0
0
VERTEX
8
Halfen
62
7
10
 836.916
20
 81.678
30
0
0
VERTEX
8
Halfen
62
7
10
 836.766
20
 81.715
30
0
0
VERTEX
8
Halfen
62
7
10
 836.615
20
 81.746
30
0
0
VERTEX
8
Halfen
62
7
10
 836.462
20
 81.769
30
0
0
VERTEX
8
Halfen
62
7
10
 836.309
20
 81.786
30
0
0
VERTEX
8
Halfen
62
7
10
 836.154
20
 81.797
30
0
0
VERTEX
8
Halfen
62
7
10
 836
20
 81.8
30
0
0
VERTEX
8
Halfen
62
7
10
 832
20
 81.8
30
0
0
VERTEX
8
Halfen
62
7
10
 832
20
-81.8
30
0
0
VERTEX
8
Halfen
62
7
10
 836
20
-81.8
30
0
0
VERTEX
8
Halfen
62
7
10
 836.154
20
-81.797
30
0
0
VERTEX
8
Halfen
62
7
10
 836.309
20
-81.786
30
0
0
VERTEX
8
Halfen
62
7
10
 836.462
20
-81.769
30
0
0
VERTEX
8
Halfen
62
7
10
 836.615
20
-81.746
30
0
0
VERTEX
8
Halfen
62
7
10
 836.766
20
-81.715
30
0
0
VERTEX
8
Halfen
62
7
10
 836.916
20
-81.678
30
0
0
VERTEX
8
Halfen
62
7
10
 837.064
20
-81.634
30
0
0
VERTEX
8
Halfen
62
7
10
 837.211
20
-81.584
30
0
0
VERTEX
8
Halfen
62
7
10
 837.354
20
-81.527
30
0
0
VERTEX
8
Halfen
62
7
10
 837.495
20
-81.464
30
0
0
VERTEX
8
Halfen
62
7
10
 837.634
20
-81.395
30
0
0
VERTEX
8
Halfen
62
7
10
 837.769
20
-81.32
30
0
0
VERTEX
8
Halfen
62
7
10
 837.9
20
-81.239
30
0
0
VERTEX
8
Halfen
62
7
10
 838.028
20
-81.153
30
0
0
VERTEX
8
Halfen
62
7
10
 838.152
20
-81.06
30
0
0
VERTEX
8
Halfen
62
7
10
 838.272
20
-80.963
30
0
0
VERTEX
8
Halfen
62
7
10
 838.387
20
-80.86
30
0
0
VERTEX
8
Halfen
62
7
10
 838.498
20
-80.752
30
0
0
VERTEX
8
Halfen
62
7
10
 838.603
20
-80.639
30
0
0
VERTEX
8
Halfen
62
7
10
 838.704
20
-80.522
30
0
0
VERTEX
8
Halfen
62
7
10
 839.59
20
-79.491
30
0
0
VERTEX
8
Halfen
62
7
10
 840.521
20
-78.5
30
0
0
VERTEX
8
Halfen
62
7
10
 841.495
20
-77.551
30
0
0
VERTEX
8
Halfen
62
7
10
 842.509
20
-76.646
30
0
0
VERTEX
8
Halfen
62
7
10
 843.563
20
-75.787
30
0
0
VERTEX
8
Halfen
62
7
10
 844.653
20
-74.975
30
0
0
VERTEX
8
Halfen
62
7
10
 845.778
20
-74.211
30
0
0
VERTEX
8
Halfen
62
7
10
 846.936
20
-73.499
30
0
0
VERTEX
8
Halfen
62
7
10
 848.124
20
-72.838
30
0
0
VERTEX
8
Halfen
62
7
10
 849.34
20
-72.23
30
0
0
VERTEX
8
Halfen
62
7
10
 850.582
20
-71.676
30
0
0
VERTEX
8
Halfen
62
7
10
 851.847
20
-71.178
30
0
0
VERTEX
8
Halfen
62
7
10
 853.133
20
-70.736
30
0
0
VERTEX
8
Halfen
62
7
10
 854.437
20
-70.351
30
0
0
VERTEX
8
Halfen
62
7
10
 855.757
20
-70.024
30
0
0
VERTEX
8
Halfen
62
7
10
 857.089
20
-69.756
30
0
0
VERTEX
8
Halfen
62
7
10
 858.433
20
-69.547
30
0
0
VERTEX
8
Halfen
62
7
10
 859.784
20
-69.397
30
0
0
VERTEX
8
Halfen
62
7
10
 861.141
20
-69.307
30
0
0
VERTEX
8
Halfen
62
7
10
 862.5
20
-69.277
30
0
0
VERTEX
8
Halfen
62
7
10
 884.5
20
-69.277
30
0
0
VERTEX
8
Halfen
62
7
10
 885.859
20
-69.307
30
0
0
VERTEX
8
Halfen
62
7
10
 887.216
20
-69.397
30
0
0
VERTEX
8
Halfen
62
7
10
 888.567
20
-69.547
30
0
0
VERTEX
8
Halfen
62
7
10
 889.911
20
-69.756
30
0
0
VERTEX
8
Halfen
62
7
10
 891.243
20
-70.024
30
0
0
VERTEX
8
Halfen
62
7
10
 892.563
20
-70.351
30
0
0
VERTEX
8
Halfen
62
7
10
 893.867
20
-70.736
30
0
0
VERTEX
8
Halfen
62
7
10
 895.153
20
-71.178
30
0
0
VERTEX
8
Halfen
62
7
10
 896.418
20
-71.676
30
0
0
VERTEX
8
Halfen
62
7
10
 897.66
20
-72.23
30
0
0
VERTEX
8
Halfen
62
7
10
 898.876
20
-72.838
30
0
0
VERTEX
8
Halfen
62
7
10
 900.064
20
-73.499
30
0
0
VERTEX
8
Halfen
62
7
10
 901.222
20
-74.211
30
0
0
VERTEX
8
Halfen
62
7
10
 902.347
20
-74.975
30
0
0
VERTEX
8
Halfen
62
7
10
 903.437
20
-75.787
30
0
0
VERTEX
8
Halfen
62
7
10
 904.491
20
-76.646
30
0
0
VERTEX
8
Halfen
62
7
10
 905.505
20
-77.551
30
0
0
VERTEX
8
Halfen
62
7
10
 906.479
20
-78.5
30
0
0
VERTEX
8
Halfen
62
7
10
 907.41
20
-79.491
30
0
0
VERTEX
8
Halfen
62
7
10
 908.296
20
-80.522
30
0
0
VERTEX
8
Halfen
62
7
10
 908.397
20
-80.639
30
0
0
VERTEX
8
Halfen
62
7
10
 908.502
20
-80.752
30
0
0
VERTEX
8
Halfen
62
7
10
 908.613
20
-80.86
30
0
0
VERTEX
8
Halfen
62
7
10
 908.728
20
-80.963
30
0
0
VERTEX
8
Halfen
62
7
10
 908.848
20
-81.06
30
0
0
VERTEX
8
Halfen
62
7
10
 908.972
20
-81.153
30
0
0
VERTEX
8
Halfen
62
7
10
 909.1
20
-81.239
30
0
0
VERTEX
8
Halfen
62
7
10
 909.231
20
-81.32
30
0
0
VERTEX
8
Halfen
62
7
10
 909.366
20
-81.395
30
0
0
VERTEX
8
Halfen
62
7
10
 909.505
20
-81.464
30
0
0
VERTEX
8
Halfen
62
7
10
 909.646
20
-81.527
30
0
0
VERTEX
8
Halfen
62
7
10
 909.789
20
-81.584
30
0
0
VERTEX
8
Halfen
62
7
10
 909.936
20
-81.634
30
0
0
VERTEX
8
Halfen
62
7
10
 910.084
20
-81.678
30
0
0
VERTEX
8
Halfen
62
7
10
 910.234
20
-81.715
30
0
0
VERTEX
8
Halfen
62
7
10
 910.385
20
-81.746
30
0
0
VERTEX
8
Halfen
62
7
10
 910.538
20
-81.769
30
0
0
VERTEX
8
Halfen
62
7
10
 910.691
20
-81.786
30
0
0
VERTEX
8
Halfen
62
7
10
 910.846
20
-81.797
30
0
0
VERTEX
8
Halfen
62
7
10
 911
20
-81.8
30
0
0
SEQEND
8
Halfen
0
POLYLINE
8
Halfen
62
7
66
1
10
0.0
20
0.0
30
0.0
70
1
0
VERTEX
8
Halfen
62
7
10
 900
20
-456.177
30
0
0
VERTEX
8
Halfen
62
7
10
 900
20
-81.213
30
0
0
VERTEX
8
Halfen
62
7
10
 899.705
20
-77.459
30
0
0
VERTEX
8
Halfen
62
7
10
 898.825
20
-73.797
30
0
0
VERTEX
8
Halfen
62
7
10
 897.384
20
-70.317
30
0
0
VERTEX
8
Halfen
62
7
10
 895.416
20
-67.106
30
0
0
VERTEX
8
Halfen
62
7
10
 892.971
20
-64.243
30
0
0
VERTEX
8
Halfen
62
7
10
 751.272
20
 77.456
30
0
0
VERTEX
8
Halfen
62
7
10
 749.438
20
 79.604
30
0
0
VERTEX
8
Halfen
62
7
10
 747.962
20
 82.012
30
0
0
VERTEX
8
Halfen
62
7
10
 746.881
20
 84.621
30
0
0
VERTEX
8
Halfen
62
7
10
 746.222
20
 87.368
30
0
0
VERTEX
8
Halfen
62
7
10
 746
20
 90.184
30
0
0
VERTEX
8
Halfen
62
7
10
 746
20
 192.147
30
0
0
VERTEX
8
Halfen
62
7
10
 746.222
20
 194.963
30
0
0
VERTEX
8
Halfen
62
7
10
 746.881
20
 197.71
30
0
0
VERTEX
8
Halfen
62
7
10
 747.962
20
 200.319
30
0
0
VERTEX
8
Halfen
62
7
10
 749.438
20
 202.728
30
0
0
VERTEX
8
Halfen
62
7
10
 751.272
20
 204.875
30
0
0
VERTEX
8
Halfen
62
7
10
 753.42
20
 206.71
30
0
0
VERTEX
8
Halfen
62
7
10
 755.828
20
 208.186
30
0
0
VERTEX
8
Halfen
62
7
10
 758.438
20
 209.266
30
0
0
VERTEX
8
Halfen
62
7
10
 761.184
20
 209.926
30
0
0
VERTEX
8
Halfen
62
7
10
 764
20
 210.147
30
0
0
VERTEX
8
Halfen
62
7
10
 835
20
 210.147
30
0
0
VERTEX
8
Halfen
62
7
10
 835
20
 216.147
30
0
0
VERTEX
8
Halfen
62
7
10
 764
20
 216.147
30
0
0
VERTEX
8
Halfen
62
7
10
 760.246
20
 215.852
30
0
0
VERTEX
8
Halfen
62
7
10
 756.584
20
 214.973
30
0
0
VERTEX
8
Halfen
62
7
10
 753.104
20
 213.532
30
0
0
VERTEX
8
Halfen
62
7
10
 749.893
20
 211.564
30
0
0
VERTEX
8
Halfen
62
7
10
 747.029
20
 209.118
30
0
0
VERTEX
8
Halfen
62
7
10
 744.584
20
 206.254
30
0
0
VERTEX
8
Halfen
62
7
10
 742.616
20
 203.043
30
0
0
VERTEX
8
Halfen
62
7
10
 741.175
20
 199.564
30
0
0
VERTEX
8
Halfen
62
7
10
 740.295
20
 195.902
30
0
0
VERTEX
8
Halfen
62
7
10
 740
20
 192.147
30
0
0
VERTEX
8
Halfen
62
7
10
 740
20
 90.184
30
0
0
VERTEX
8
Halfen
62
7
10
 740.295
20
 86.429
30
0
0
VERTEX
8
Halfen
62
7
10
 741.175
20
 82.767
30
0
0
VERTEX
8
Halfen
62
7
10
 742.616
20
 79.288
30
0
0
VERTEX
8
Halfen
62
7
10
 744.584
20
 76.077
30
0
0
VERTEX
8
Halfen
62
7
10
 747.029
20
 73.213
30
0
0
VERTEX
8
Halfen
62
7
10
 888.728
20
-68.485
30
0
0
VERTEX
8
Halfen
62
7
10
 890.562
20
-70.633
30
0
0
VERTEX
8
Halfen
62
7
10
 892.038
20
-73.041
30
0
0
VERTEX
8
Halfen
62
7
10
 893.119
20
-75.651
30
0
0
VERTEX
8
Halfen
62
7
10
 893.778
20
-78.397
30
0
0
VERTEX
8
Halfen
62
7
10
 894
20
-81.213
30
0
0
VERTEX
8
Halfen
62
7
10
 894
20
-456.177
30
0
0
SEQEND
8
Halfen
0
ENDSEC
0
EOF
