0
SECTION
2
HEADER
9
$EXTMIN
10
 0
20
 100
30
0.0
9
$EXTMAX
10
 0
20
 100
30
0.0
9
$LIMMIN
10
 100
20
 0
9
$LIMMAX
10
 0
20
 100
9
$PSLTSCALE
70
1
0
ENDSEC
0
SECTION
2
TABLES
0
TABLE
2
LAYER
70
2
0
LAYER
2
0
70
0
62
7
6
CONTINUOUS
0
LAYER
2
Halfen
70
0
62
7
6
CONTINUOUS
0
ENDTAB
0
ENDSEC
0
SECTION
2
ENTITIES
0
POLYLINE
8
Halfen
62
7
66
1
10
0.0
20
0.0
30
0.0
70
1
0
VERTEX
8
Halfen
62
7
10
 0
20
-73.5
30
0
0
VERTEX
8
Halfen
62
7
10
 250
20
-73.5
30
0
0
VERTEX
8
Halfen
62
7
10
 250
20
 73.5
30
0
0
VERTEX
8
Halfen
62
7
10
 0
20
 73.5
30
0
0
SEQEND
8
Halfen
0
POLYLINE
8
Halfen
62
7
66
1
10
0.0
20
0.0
30
0.0
70
1
0
VERTEX
8
Halfen
62
7
10
 0
20
-60
30
0
0
VERTEX
8
Halfen
62
7
10
 250
20
-60
30
0
0
VERTEX
8
Halfen
62
7
10
 250
20
 60
30
0
0
VERTEX
8
Halfen
62
7
10
 0
20
 60
30
0
0
SEQEND
8
Halfen
0
POLYLINE
8
Halfen
62
7
66
1
10
0.0
20
0.0
30
0.0
70
1
0
VERTEX
8
Halfen
62
7
10
 20
20
-32.5
30
0
0
VERTEX
8
Halfen
62
7
10
 37
20
-1.5
30
0
0
VERTEX
8
Halfen
62
7
10
 28
20
-1.5
30
0
0
VERTEX
8
Halfen
62
7
10
 28
20
 32.5
30
0
0
VERTEX
8
Halfen
62
7
10
 12
20
 32.5
30
0
0
VERTEX
8
Halfen
62
7
10
 12
20
-1.5
30
0
0
VERTEX
8
Halfen
62
7
10
 3
20
-1.5
30
0
0
SEQEND
8
Halfen
0
POLYLINE
8
Halfen
62
7
66
1
10
0.0
20
0.0
30
0.0
70
1
0
VERTEX
8
Halfen
62
7
10
 230
20
-32.5
30
0
0
VERTEX
8
Halfen
62
7
10
 247
20
-1.5
30
0
0
VERTEX
8
Halfen
62
7
10
 238
20
-1.5
30
0
0
VERTEX
8
Halfen
62
7
10
 238
20
 32.5
30
0
0
VERTEX
8
Halfen
62
7
10
 222
20
 32.5
30
0
0
VERTEX
8
Halfen
62
7
10
 222
20
-1.5
30
0
0
VERTEX
8
Halfen
62
7
10
 213
20
-1.5
30
0
0
SEQEND
8
Halfen
0
POLYLINE
8
Halfen
62
7
66
1
10
0.0
20
0.0
30
0.0
70
1
0
VERTEX
8
Halfen
62
7
10
 140
20
-69.3
30
0
0
VERTEX
8
Halfen
62
7
10
 140
20
-56.8
30
0
0
VERTEX
8
Halfen
62
7
10
 140
20
 69.3
30
0
0
VERTEX
8
Halfen
62
7
10
 139.958
20
 70.359
30
0
0
VERTEX
8
Halfen
62
7
10
 139.834
20
 71.412
30
0
0
VERTEX
8
Halfen
62
7
10
 139.627
20
 72.452
30
0
0
VERTEX
8
Halfen
62
7
10
 139.339
20
 73.472
30
0
0
VERTEX
8
Halfen
62
7
10
 138.972
20
 74.466
30
0
0
VERTEX
8
Halfen
62
7
10
 138.529
20
 75.429
30
0
0
VERTEX
8
Halfen
62
7
10
 138.011
20
 76.354
30
0
0
VERTEX
8
Halfen
62
7
10
 137.422
20
 77.235
30
0
0
VERTEX
8
Halfen
62
7
10
 136.765
20
 78.068
30
0
0
VERTEX
8
Halfen
62
7
10
 136.046
20
 78.846
30
0
0
VERTEX
8
Halfen
62
7
10
 135.268
20
 79.565
30
0
0
VERTEX
8
Halfen
62
7
10
 134.435
20
 80.222
30
0
0
VERTEX
8
Halfen
62
7
10
 133.554
20
 80.811
30
0
0
VERTEX
8
Halfen
62
7
10
 132.629
20
 81.329
30
0
0
VERTEX
8
Halfen
62
7
10
 131.666
20
 81.772
30
0
0
VERTEX
8
Halfen
62
7
10
 130.672
20
 82.139
30
0
0
VERTEX
8
Halfen
62
7
10
 129.652
20
 82.427
30
0
0
VERTEX
8
Halfen
62
7
10
 128.612
20
 82.634
30
0
0
VERTEX
8
Halfen
62
7
10
 127.559
20
 82.758
30
0
0
VERTEX
8
Halfen
62
7
10
 126.5
20
 82.8
30
0
0
VERTEX
8
Halfen
62
7
10
 123.5
20
 82.8
30
0
0
VERTEX
8
Halfen
62
7
10
 122.441
20
 82.758
30
0
0
VERTEX
8
Halfen
62
7
10
 121.388
20
 82.634
30
0
0
VERTEX
8
Halfen
62
7
10
 120.348
20
 82.427
30
0
0
VERTEX
8
Halfen
62
7
10
 119.328
20
 82.139
30
0
0
VERTEX
8
Halfen
62
7
10
 118.334
20
 81.772
30
0
0
VERTEX
8
Halfen
62
7
10
 117.371
20
 81.329
30
0
0
VERTEX
8
Halfen
62
7
10
 116.446
20
 80.811
30
0
0
VERTEX
8
Halfen
62
7
10
 115.565
20
 80.222
30
0
0
VERTEX
8
Halfen
62
7
10
 114.732
20
 79.565
30
0
0
VERTEX
8
Halfen
62
7
10
 113.954
20
 78.846
30
0
0
VERTEX
8
Halfen
62
7
10
 113.235
20
 78.068
30
0
0
VERTEX
8
Halfen
62
7
10
 112.578
20
 77.235
30
0
0
VERTEX
8
Halfen
62
7
10
 111.989
20
 76.354
30
0
0
VERTEX
8
Halfen
62
7
10
 111.471
20
 75.429
30
0
0
VERTEX
8
Halfen
62
7
10
 111.028
20
 74.466
30
0
0
VERTEX
8
Halfen
62
7
10
 110.661
20
 73.472
30
0
0
VERTEX
8
Halfen
62
7
10
 110.373
20
 72.452
30
0
0
VERTEX
8
Halfen
62
7
10
 110.166
20
 71.412
30
0
0
VERTEX
8
Halfen
62
7
10
 110.042
20
 70.359
30
0
0
VERTEX
8
Halfen
62
7
10
 110
20
 69.3
30
0
0
VERTEX
8
Halfen
62
7
10
 110
20
-56.8
30
0
0
VERTEX
8
Halfen
62
7
10
 110
20
-69.3
30
0
0
VERTEX
8
Halfen
62
7
10
 110.042
20
-70.359
30
0
0
VERTEX
8
Halfen
62
7
10
 110.166
20
-71.412
30
0
0
VERTEX
8
Halfen
62
7
10
 110.373
20
-72.452
30
0
0
VERTEX
8
Halfen
62
7
10
 110.661
20
-73.472
30
0
0
VERTEX
8
Halfen
62
7
10
 111.028
20
-74.466
30
0
0
VERTEX
8
Halfen
62
7
10
 111.471
20
-75.429
30
0
0
VERTEX
8
Halfen
62
7
10
 111.989
20
-76.354
30
0
0
VERTEX
8
Halfen
62
7
10
 112.578
20
-77.235
30
0
0
VERTEX
8
Halfen
62
7
10
 113.235
20
-78.068
30
0
0
VERTEX
8
Halfen
62
7
10
 113.954
20
-78.846
30
0
0
VERTEX
8
Halfen
62
7
10
 114.732
20
-79.565
30
0
0
VERTEX
8
Halfen
62
7
10
 115.565
20
-80.222
30
0
0
VERTEX
8
Halfen
62
7
10
 116.446
20
-80.811
30
0
0
VERTEX
8
Halfen
62
7
10
 117.371
20
-81.329
30
0
0
VERTEX
8
Halfen
62
7
10
 118.334
20
-81.772
30
0
0
VERTEX
8
Halfen
62
7
10
 119.328
20
-82.139
30
0
0
VERTEX
8
Halfen
62
7
10
 120.348
20
-82.427
30
0
0
VERTEX
8
Halfen
62
7
10
 121.388
20
-82.634
30
0
0
VERTEX
8
Halfen
62
7
10
 122.441
20
-82.758
30
0
0
VERTEX
8
Halfen
62
7
10
 123.5
20
-82.8
30
0
0
VERTEX
8
Halfen
62
7
10
 126.5
20
-82.8
30
0
0
VERTEX
8
Halfen
62
7
10
 127.559
20
-82.758
30
0
0
VERTEX
8
Halfen
62
7
10
 128.612
20
-82.634
30
0
0
VERTEX
8
Halfen
62
7
10
 129.652
20
-82.427
30
0
0
VERTEX
8
Halfen
62
7
10
 130.672
20
-82.139
30
0
0
VERTEX
8
Halfen
62
7
10
 131.666
20
-81.772
30
0
0
VERTEX
8
Halfen
62
7
10
 132.629
20
-81.329
30
0
0
VERTEX
8
Halfen
62
7
10
 133.554
20
-80.811
30
0
0
VERTEX
8
Halfen
62
7
10
 134.435
20
-80.222
30
0
0
VERTEX
8
Halfen
62
7
10
 135.268
20
-79.565
30
0
0
VERTEX
8
Halfen
62
7
10
 136.046
20
-78.846
30
0
0
VERTEX
8
Halfen
62
7
10
 136.765
20
-78.068
30
0
0
VERTEX
8
Halfen
62
7
10
 137.422
20
-77.235
30
0
0
VERTEX
8
Halfen
62
7
10
 138.011
20
-76.354
30
0
0
VERTEX
8
Halfen
62
7
10
 138.529
20
-75.429
30
0
0
VERTEX
8
Halfen
62
7
10
 138.972
20
-74.466
30
0
0
VERTEX
8
Halfen
62
7
10
 139.339
20
-73.472
30
0
0
VERTEX
8
Halfen
62
7
10
 139.627
20
-72.452
30
0
0
VERTEX
8
Halfen
62
7
10
 139.834
20
-71.412
30
0
0
VERTEX
8
Halfen
62
7
10
 139.958
20
-70.359
30
0
0
VERTEX
8
Halfen
62
7
10
 140
20
-69.3
30
0
0
SEQEND
8
Halfen
0
POLYLINE
8
Halfen
62
7
66
1
10
0.0
20
0.0
30
0.0
70
1
0
VERTEX
8
Halfen
62
7
10
 74
20
-575.304
30
0
0
VERTEX
8
Halfen
62
7
10
 74
20
 585.215
30
0
0
VERTEX
8
Halfen
62
7
10
 66
20
 585.215
30
0
0
VERTEX
8
Halfen
62
7
10
 66
20
-575.304
30
0
0
SEQEND
8
Halfen
0
POLYLINE
8
Halfen
62
7
66
1
10
0.0
20
0.0
30
0.0
70
1
0
VERTEX
8
Halfen
62
7
10
 194
20
-575.304
30
0
0
VERTEX
8
Halfen
62
7
10
 194
20
 585.215
30
0
0
VERTEX
8
Halfen
62
7
10
 186
20
 585.215
30
0
0
VERTEX
8
Halfen
62
7
10
 186
20
-575.304
30
0
0
SEQEND
8
Halfen
0
POLYLINE
8
Halfen
62
7
66
1
10
0.0
20
0.0
30
0.0
70
1
0
VERTEX
8
Halfen
62
7
10
 184
20
-575.304
30
0
0
VERTEX
8
Halfen
62
7
10
 184
20
 585.215
30
0
0
VERTEX
8
Halfen
62
7
10
 176
20
 585.215
30
0
0
VERTEX
8
Halfen
62
7
10
 176
20
-575.304
30
0
0
SEQEND
8
Halfen
0
POLYLINE
8
Halfen
62
7
66
1
10
0.0
20
0.0
30
0.0
70
1
0
VERTEX
8
Halfen
62
7
10
 64
20
-575.304
30
0
0
VERTEX
8
Halfen
62
7
10
 64
20
 585.215
30
0
0
VERTEX
8
Halfen
62
7
10
 56
20
 585.215
30
0
0
VERTEX
8
Halfen
62
7
10
 56
20
-575.304
30
0
0
SEQEND
8
Halfen
0
POLYLINE
8
Halfen
62
7
66
1
10
0.0
20
0.0
30
0.0
70
1
0
VERTEX
8
Halfen
62
7
10
 680
20
-60
30
0
0
VERTEX
8
Halfen
62
7
10
 680
20
 60
30
0
0
VERTEX
8
Halfen
62
7
10
 666.5
20
 73.5
30
0
0
VERTEX
8
Halfen
62
7
10
 666.5
20
 60
30
0
0
VERTEX
8
Halfen
62
7
10
 500
20
 60
30
0
0
VERTEX
8
Halfen
62
7
10
 500
20
-60
30
0
0
VERTEX
8
Halfen
62
7
10
 666.5
20
-60
30
0
0
VERTEX
8
Halfen
62
7
10
 666.5
20
-73.5
30
0
0
SEQEND
8
Halfen
0
POLYLINE
8
Halfen
62
7
66
1
10
0.0
20
0.0
30
0.0
70
1
0
VERTEX
8
Halfen
62
7
10
 500
20
-60
30
0
0
VERTEX
8
Halfen
62
7
10
 500
20
 60
30
0
0
VERTEX
8
Halfen
62
7
10
 463.5
20
 60
30
0
0
VERTEX
8
Halfen
62
7
10
 463.5
20
 73.5
30
0
0
VERTEX
8
Halfen
62
7
10
 450
20
 60
30
0
0
VERTEX
8
Halfen
62
7
10
 450
20
-60
30
0
0
VERTEX
8
Halfen
62
7
10
 463.5
20
-73.5
30
0
0
VERTEX
8
Halfen
62
7
10
 463.5
20
-60
30
0
0
SEQEND
8
Halfen
0
POLYLINE
8
Halfen
62
7
66
1
10
0.0
20
0.0
30
0.0
70
1
0
VERTEX
8
Halfen
62
7
10
 677.5
20
-58.75
30
0
0
VERTEX
8
Halfen
62
7
10
 677.5
20
 58.75
30
0
0
VERTEX
8
Halfen
62
7
10
 669
20
 67.25
30
0
0
VERTEX
8
Halfen
62
7
10
 669
20
 58
30
0
0
VERTEX
8
Halfen
62
7
10
 502
20
 58
30
0
0
VERTEX
8
Halfen
62
7
10
 502
20
-58
30
0
0
VERTEX
8
Halfen
62
7
10
 669
20
-58
30
0
0
VERTEX
8
Halfen
62
7
10
 669
20
-67.25
30
0
0
SEQEND
8
Halfen
0
POLYLINE
8
Halfen
62
7
66
1
10
0.0
20
0.0
30
0.0
70
1
0
VERTEX
8
Halfen
62
7
10
 498
20
-58
30
0
0
VERTEX
8
Halfen
62
7
10
 498
20
 58
30
0
0
VERTEX
8
Halfen
62
7
10
 461
20
 58
30
0
0
VERTEX
8
Halfen
62
7
10
 461
20
 67.25
30
0
0
VERTEX
8
Halfen
62
7
10
 452.5
20
 58.75
30
0
0
VERTEX
8
Halfen
62
7
10
 452.5
20
-58.75
30
0
0
VERTEX
8
Halfen
62
7
10
 461
20
-67.25
30
0
0
VERTEX
8
Halfen
62
7
10
 461
20
-58
30
0
0
SEQEND
8
Halfen
0
POLYLINE
8
Halfen
62
7
66
1
10
0.0
20
0.0
30
0.0
70
1
0
VERTEX
8
Halfen
62
7
10
 665
20
-81.8
30
0
0
VERTEX
8
Halfen
62
7
10
 665
20
 81.8
30
0
0
VERTEX
8
Halfen
62
7
10
 661
20
 81.8
30
0
0
VERTEX
8
Halfen
62
7
10
 660.846
20
 81.797
30
0
0
VERTEX
8
Halfen
62
7
10
 660.691
20
 81.786
30
0
0
VERTEX
8
Halfen
62
7
10
 660.538
20
 81.769
30
0
0
VERTEX
8
Halfen
62
7
10
 660.385
20
 81.746
30
0
0
VERTEX
8
Halfen
62
7
10
 660.234
20
 81.715
30
0
0
VERTEX
8
Halfen
62
7
10
 660.084
20
 81.678
30
0
0
VERTEX
8
Halfen
62
7
10
 659.936
20
 81.634
30
0
0
VERTEX
8
Halfen
62
7
10
 659.789
20
 81.584
30
0
0
VERTEX
8
Halfen
62
7
10
 659.646
20
 81.527
30
0
0
VERTEX
8
Halfen
62
7
10
 659.505
20
 81.464
30
0
0
VERTEX
8
Halfen
62
7
10
 659.366
20
 81.395
30
0
0
VERTEX
8
Halfen
62
7
10
 659.231
20
 81.32
30
0
0
VERTEX
8
Halfen
62
7
10
 659.1
20
 81.239
30
0
0
VERTEX
8
Halfen
62
7
10
 658.972
20
 81.153
30
0
0
VERTEX
8
Halfen
62
7
10
 658.848
20
 81.06
30
0
0
VERTEX
8
Halfen
62
7
10
 658.728
20
 80.963
30
0
0
VERTEX
8
Halfen
62
7
10
 658.613
20
 80.86
30
0
0
VERTEX
8
Halfen
62
7
10
 658.502
20
 80.752
30
0
0
VERTEX
8
Halfen
62
7
10
 658.397
20
 80.639
30
0
0
VERTEX
8
Halfen
62
7
10
 658.296
20
 80.522
30
0
0
VERTEX
8
Halfen
62
7
10
 657.41
20
 79.491
30
0
0
VERTEX
8
Halfen
62
7
10
 656.479
20
 78.5
30
0
0
VERTEX
8
Halfen
62
7
10
 655.505
20
 77.551
30
0
0
VERTEX
8
Halfen
62
7
10
 654.491
20
 76.646
30
0
0
VERTEX
8
Halfen
62
7
10
 653.437
20
 75.787
30
0
0
VERTEX
8
Halfen
62
7
10
 652.347
20
 74.975
30
0
0
VERTEX
8
Halfen
62
7
10
 651.222
20
 74.211
30
0
0
VERTEX
8
Halfen
62
7
10
 650.064
20
 73.499
30
0
0
VERTEX
8
Halfen
62
7
10
 648.876
20
 72.838
30
0
0
VERTEX
8
Halfen
62
7
10
 647.66
20
 72.23
30
0
0
VERTEX
8
Halfen
62
7
10
 646.418
20
 71.676
30
0
0
VERTEX
8
Halfen
62
7
10
 645.153
20
 71.178
30
0
0
VERTEX
8
Halfen
62
7
10
 643.867
20
 70.736
30
0
0
VERTEX
8
Halfen
62
7
10
 642.563
20
 70.351
30
0
0
VERTEX
8
Halfen
62
7
10
 641.243
20
 70.024
30
0
0
VERTEX
8
Halfen
62
7
10
 639.911
20
 69.756
30
0
0
VERTEX
8
Halfen
62
7
10
 638.567
20
 69.547
30
0
0
VERTEX
8
Halfen
62
7
10
 637.216
20
 69.397
30
0
0
VERTEX
8
Halfen
62
7
10
 635.859
20
 69.307
30
0
0
VERTEX
8
Halfen
62
7
10
 634.5
20
 69.277
30
0
0
VERTEX
8
Halfen
62
7
10
 612.5
20
 69.277
30
0
0
VERTEX
8
Halfen
62
7
10
 611.141
20
 69.307
30
0
0
VERTEX
8
Halfen
62
7
10
 609.784
20
 69.397
30
0
0
VERTEX
8
Halfen
62
7
10
 608.433
20
 69.547
30
0
0
VERTEX
8
Halfen
62
7
10
 607.089
20
 69.756
30
0
0
VERTEX
8
Halfen
62
7
10
 605.757
20
 70.024
30
0
0
VERTEX
8
Halfen
62
7
10
 604.437
20
 70.351
30
0
0
VERTEX
8
Halfen
62
7
10
 603.133
20
 70.736
30
0
0
VERTEX
8
Halfen
62
7
10
 601.847
20
 71.178
30
0
0
VERTEX
8
Halfen
62
7
10
 600.582
20
 71.676
30
0
0
VERTEX
8
Halfen
62
7
10
 599.34
20
 72.23
30
0
0
VERTEX
8
Halfen
62
7
10
 598.124
20
 72.838
30
0
0
VERTEX
8
Halfen
62
7
10
 596.936
20
 73.499
30
0
0
VERTEX
8
Halfen
62
7
10
 595.778
20
 74.211
30
0
0
VERTEX
8
Halfen
62
7
10
 594.653
20
 74.975
30
0
0
VERTEX
8
Halfen
62
7
10
 593.563
20
 75.787
30
0
0
VERTEX
8
Halfen
62
7
10
 592.509
20
 76.646
30
0
0
VERTEX
8
Halfen
62
7
10
 591.495
20
 77.551
30
0
0
VERTEX
8
Halfen
62
7
10
 590.521
20
 78.5
30
0
0
VERTEX
8
Halfen
62
7
10
 589.59
20
 79.491
30
0
0
VERTEX
8
Halfen
62
7
10
 588.704
20
 80.522
30
0
0
VERTEX
8
Halfen
62
7
10
 588.603
20
 80.639
30
0
0
VERTEX
8
Halfen
62
7
10
 588.498
20
 80.752
30
0
0
VERTEX
8
Halfen
62
7
10
 588.387
20
 80.86
30
0
0
VERTEX
8
Halfen
62
7
10
 588.272
20
 80.963
30
0
0
VERTEX
8
Halfen
62
7
10
 588.152
20
 81.06
30
0
0
VERTEX
8
Halfen
62
7
10
 588.028
20
 81.153
30
0
0
VERTEX
8
Halfen
62
7
10
 587.9
20
 81.239
30
0
0
VERTEX
8
Halfen
62
7
10
 587.769
20
 81.32
30
0
0
VERTEX
8
Halfen
62
7
10
 587.634
20
 81.395
30
0
0
VERTEX
8
Halfen
62
7
10
 587.495
20
 81.464
30
0
0
VERTEX
8
Halfen
62
7
10
 587.354
20
 81.527
30
0
0
VERTEX
8
Halfen
62
7
10
 587.211
20
 81.584
30
0
0
VERTEX
8
Halfen
62
7
10
 587.064
20
 81.634
30
0
0
VERTEX
8
Halfen
62
7
10
 586.916
20
 81.678
30
0
0
VERTEX
8
Halfen
62
7
10
 586.766
20
 81.715
30
0
0
VERTEX
8
Halfen
62
7
10
 586.615
20
 81.746
30
0
0
VERTEX
8
Halfen
62
7
10
 586.462
20
 81.769
30
0
0
VERTEX
8
Halfen
62
7
10
 586.309
20
 81.786
30
0
0
VERTEX
8
Halfen
62
7
10
 586.154
20
 81.797
30
0
0
VERTEX
8
Halfen
62
7
10
 586
20
 81.8
30
0
0
VERTEX
8
Halfen
62
7
10
 582
20
 81.8
30
0
0
VERTEX
8
Halfen
62
7
10
 582
20
-81.8
30
0
0
VERTEX
8
Halfen
62
7
10
 586
20
-81.8
30
0
0
VERTEX
8
Halfen
62
7
10
 586.154
20
-81.797
30
0
0
VERTEX
8
Halfen
62
7
10
 586.309
20
-81.786
30
0
0
VERTEX
8
Halfen
62
7
10
 586.462
20
-81.769
30
0
0
VERTEX
8
Halfen
62
7
10
 586.615
20
-81.746
30
0
0
VERTEX
8
Halfen
62
7
10
 586.766
20
-81.715
30
0
0
VERTEX
8
Halfen
62
7
10
 586.916
20
-81.678
30
0
0
VERTEX
8
Halfen
62
7
10
 587.064
20
-81.634
30
0
0
VERTEX
8
Halfen
62
7
10
 587.211
20
-81.584
30
0
0
VERTEX
8
Halfen
62
7
10
 587.354
20
-81.527
30
0
0
VERTEX
8
Halfen
62
7
10
 587.495
20
-81.464
30
0
0
VERTEX
8
Halfen
62
7
10
 587.634
20
-81.395
30
0
0
VERTEX
8
Halfen
62
7
10
 587.769
20
-81.32
30
0
0
VERTEX
8
Halfen
62
7
10
 587.9
20
-81.239
30
0
0
VERTEX
8
Halfen
62
7
10
 588.028
20
-81.153
30
0
0
VERTEX
8
Halfen
62
7
10
 588.152
20
-81.06
30
0
0
VERTEX
8
Halfen
62
7
10
 588.272
20
-80.963
30
0
0
VERTEX
8
Halfen
62
7
10
 588.387
20
-80.86
30
0
0
VERTEX
8
Halfen
62
7
10
 588.498
20
-80.752
30
0
0
VERTEX
8
Halfen
62
7
10
 588.603
20
-80.639
30
0
0
VERTEX
8
Halfen
62
7
10
 588.704
20
-80.522
30
0
0
VERTEX
8
Halfen
62
7
10
 589.59
20
-79.491
30
0
0
VERTEX
8
Halfen
62
7
10
 590.521
20
-78.5
30
0
0
VERTEX
8
Halfen
62
7
10
 591.495
20
-77.551
30
0
0
VERTEX
8
Halfen
62
7
10
 592.509
20
-76.646
30
0
0
VERTEX
8
Halfen
62
7
10
 593.563
20
-75.787
30
0
0
VERTEX
8
Halfen
62
7
10
 594.653
20
-74.975
30
0
0
VERTEX
8
Halfen
62
7
10
 595.778
20
-74.211
30
0
0
VERTEX
8
Halfen
62
7
10
 596.936
20
-73.499
30
0
0
VERTEX
8
Halfen
62
7
10
 598.124
20
-72.838
30
0
0
VERTEX
8
Halfen
62
7
10
 599.34
20
-72.23
30
0
0
VERTEX
8
Halfen
62
7
10
 600.582
20
-71.676
30
0
0
VERTEX
8
Halfen
62
7
10
 601.847
20
-71.178
30
0
0
VERTEX
8
Halfen
62
7
10
 603.133
20
-70.736
30
0
0
VERTEX
8
Halfen
62
7
10
 604.437
20
-70.351
30
0
0
VERTEX
8
Halfen
62
7
10
 605.757
20
-70.024
30
0
0
VERTEX
8
Halfen
62
7
10
 607.089
20
-69.756
30
0
0
VERTEX
8
Halfen
62
7
10
 608.433
20
-69.547
30
0
0
VERTEX
8
Halfen
62
7
10
 609.784
20
-69.397
30
0
0
VERTEX
8
Halfen
62
7
10
 611.141
20
-69.307
30
0
0
VERTEX
8
Halfen
62
7
10
 612.5
20
-69.277
30
0
0
VERTEX
8
Halfen
62
7
10
 634.5
20
-69.277
30
0
0
VERTEX
8
Halfen
62
7
10
 635.859
20
-69.307
30
0
0
VERTEX
8
Halfen
62
7
10
 637.216
20
-69.397
30
0
0
VERTEX
8
Halfen
62
7
10
 638.567
20
-69.547
30
0
0
VERTEX
8
Halfen
62
7
10
 639.911
20
-69.756
30
0
0
VERTEX
8
Halfen
62
7
10
 641.243
20
-70.024
30
0
0
VERTEX
8
Halfen
62
7
10
 642.563
20
-70.351
30
0
0
VERTEX
8
Halfen
62
7
10
 643.867
20
-70.736
30
0
0
VERTEX
8
Halfen
62
7
10
 645.153
20
-71.178
30
0
0
VERTEX
8
Halfen
62
7
10
 646.418
20
-71.676
30
0
0
VERTEX
8
Halfen
62
7
10
 647.66
20
-72.23
30
0
0
VERTEX
8
Halfen
62
7
10
 648.876
20
-72.838
30
0
0
VERTEX
8
Halfen
62
7
10
 650.064
20
-73.499
30
0
0
VERTEX
8
Halfen
62
7
10
 651.222
20
-74.211
30
0
0
VERTEX
8
Halfen
62
7
10
 652.347
20
-74.975
30
0
0
VERTEX
8
Halfen
62
7
10
 653.437
20
-75.787
30
0
0
VERTEX
8
Halfen
62
7
10
 654.491
20
-76.646
30
0
0
VERTEX
8
Halfen
62
7
10
 655.505
20
-77.551
30
0
0
VERTEX
8
Halfen
62
7
10
 656.479
20
-78.5
30
0
0
VERTEX
8
Halfen
62
7
10
 657.41
20
-79.491
30
0
0
VERTEX
8
Halfen
62
7
10
 658.296
20
-80.522
30
0
0
VERTEX
8
Halfen
62
7
10
 658.397
20
-80.639
30
0
0
VERTEX
8
Halfen
62
7
10
 658.502
20
-80.752
30
0
0
VERTEX
8
Halfen
62
7
10
 658.613
20
-80.86
30
0
0
VERTEX
8
Halfen
62
7
10
 658.728
20
-80.963
30
0
0
VERTEX
8
Halfen
62
7
10
 658.848
20
-81.06
30
0
0
VERTEX
8
Halfen
62
7
10
 658.972
20
-81.153
30
0
0
VERTEX
8
Halfen
62
7
10
 659.1
20
-81.239
30
0
0
VERTEX
8
Halfen
62
7
10
 659.231
20
-81.32
30
0
0
VERTEX
8
Halfen
62
7
10
 659.366
20
-81.395
30
0
0
VERTEX
8
Halfen
62
7
10
 659.505
20
-81.464
30
0
0
VERTEX
8
Halfen
62
7
10
 659.646
20
-81.527
30
0
0
VERTEX
8
Halfen
62
7
10
 659.789
20
-81.584
30
0
0
VERTEX
8
Halfen
62
7
10
 659.936
20
-81.634
30
0
0
VERTEX
8
Halfen
62
7
10
 660.084
20
-81.678
30
0
0
VERTEX
8
Halfen
62
7
10
 660.234
20
-81.715
30
0
0
VERTEX
8
Halfen
62
7
10
 660.385
20
-81.746
30
0
0
VERTEX
8
Halfen
62
7
10
 660.538
20
-81.769
30
0
0
VERTEX
8
Halfen
62
7
10
 660.691
20
-81.786
30
0
0
VERTEX
8
Halfen
62
7
10
 660.846
20
-81.797
30
0
0
VERTEX
8
Halfen
62
7
10
 661
20
-81.8
30
0
0
SEQEND
8
Halfen
0
POLYLINE
8
Halfen
62
7
66
1
10
0.0
20
0.0
30
0.0
70
1
0
VERTEX
8
Halfen
62
7
10
 650
20
-575.304
30
0
0
VERTEX
8
Halfen
62
7
10
 650
20
-87.304
30
0
0
VERTEX
8
Halfen
62
7
10
 649.573
20
-82.091
30
0
0
VERTEX
8
Halfen
62
7
10
 648.302
20
-77.018
30
0
0
VERTEX
8
Halfen
62
7
10
 646.221
20
-72.219
30
0
0
VERTEX
8
Halfen
62
7
10
 643.387
20
-67.824
30
0
0
VERTEX
8
Halfen
62
7
10
 527.96
20
 82.605
30
0
0
VERTEX
8
Halfen
62
7
10
 525.834
20
 85.902
30
0
0
VERTEX
8
Halfen
62
7
10
 524.274
20
 89.501
30
0
0
VERTEX
8
Halfen
62
7
10
 523.321
20
 93.306
30
0
0
VERTEX
8
Halfen
62
7
10
 523
20
 97.215
30
0
0
VERTEX
8
Halfen
62
7
10
 523
20
 585.215
30
0
0
VERTEX
8
Halfen
62
7
10
 515
20
 585.215
30
0
0
VERTEX
8
Halfen
62
7
10
 515
20
 97.215
30
0
0
VERTEX
8
Halfen
62
7
10
 515.427
20
 92.002
30
0
0
VERTEX
8
Halfen
62
7
10
 516.698
20
 86.929
30
0
0
VERTEX
8
Halfen
62
7
10
 518.779
20
 82.13
30
0
0
VERTEX
8
Halfen
62
7
10
 521.613
20
 77.735
30
0
0
VERTEX
8
Halfen
62
7
10
 637.04
20
-72.694
30
0
0
VERTEX
8
Halfen
62
7
10
 639.166
20
-75.99
30
0
0
VERTEX
8
Halfen
62
7
10
 640.726
20
-79.589
30
0
0
VERTEX
8
Halfen
62
7
10
 641.679
20
-83.394
30
0
0
VERTEX
8
Halfen
62
7
10
 642
20
-87.304
30
0
0
VERTEX
8
Halfen
62
7
10
 642
20
-575.304
30
0
0
SEQEND
8
Halfen
0
POLYLINE
8
Halfen
62
7
66
1
10
0.0
20
0.0
30
0.0
70
1
0
VERTEX
8
Halfen
62
7
10
 515
20
-575.304
30
0
0
VERTEX
8
Halfen
62
7
10
 515
20
-87.304
30
0
0
VERTEX
8
Halfen
62
7
10
 515.427
20
-82.091
30
0
0
VERTEX
8
Halfen
62
7
10
 516.698
20
-77.018
30
0
0
VERTEX
8
Halfen
62
7
10
 518.779
20
-72.219
30
0
0
VERTEX
8
Halfen
62
7
10
 521.613
20
-67.824
30
0
0
VERTEX
8
Halfen
62
7
10
 637.04
20
 82.605
30
0
0
VERTEX
8
Halfen
62
7
10
 639.166
20
 85.902
30
0
0
VERTEX
8
Halfen
62
7
10
 640.726
20
 89.501
30
0
0
VERTEX
8
Halfen
62
7
10
 641.679
20
 93.306
30
0
0
VERTEX
8
Halfen
62
7
10
 642
20
 97.215
30
0
0
VERTEX
8
Halfen
62
7
10
 642
20
 585.215
30
0
0
VERTEX
8
Halfen
62
7
10
 650
20
 585.215
30
0
0
VERTEX
8
Halfen
62
7
10
 650
20
 97.215
30
0
0
VERTEX
8
Halfen
62
7
10
 649.573
20
 92.002
30
0
0
VERTEX
8
Halfen
62
7
10
 648.302
20
 86.929
30
0
0
VERTEX
8
Halfen
62
7
10
 646.221
20
 82.13
30
0
0
VERTEX
8
Halfen
62
7
10
 643.387
20
 77.735
30
0
0
VERTEX
8
Halfen
62
7
10
 527.96
20
-72.694
30
0
0
VERTEX
8
Halfen
62
7
10
 525.834
20
-75.99
30
0
0
VERTEX
8
Halfen
62
7
10
 524.274
20
-79.589
30
0
0
VERTEX
8
Halfen
62
7
10
 523.321
20
-83.394
30
0
0
VERTEX
8
Halfen
62
7
10
 523
20
-87.304
30
0
0
VERTEX
8
Halfen
62
7
10
 523
20
-575.304
30
0
0
SEQEND
8
Halfen
0
ENDSEC
0
EOF
