0
SECTION
2
HEADER
9
$EXTMIN
10
 0
20
 100
30
0.0
9
$EXTMAX
10
 0
20
 100
30
0.0
9
$LIMMIN
10
 100
20
 0
9
$LIMMAX
10
 0
20
 100
9
$PSLTSCALE
70
1
0
ENDSEC
0
SECTION
2
TABLES
0
TABLE
2
LAYER
70
2
0
LAYER
2
0
70
0
62
7
6
CONTINUOUS
0
LAYER
2
Halfen
70
0
62
7
6
CONTINUOUS
0
ENDTAB
0
ENDSEC
0
SECTION
2
ENTITIES
0
POLYLINE
8
Halfen
62
7
66
1
10
0.0
20
0.0
30
0.0
70
1
0
VERTEX
8
Halfen
62
7
10
 0
20
-73.5
30
0
0
VERTEX
8
Halfen
62
7
10
 250
20
-73.5
30
0
0
VERTEX
8
Halfen
62
7
10
 250
20
 73.5
30
0
0
VERTEX
8
Halfen
62
7
10
 0
20
 73.5
30
0
0
SEQEND
8
Halfen
0
POLYLINE
8
Halfen
62
7
66
1
10
0.0
20
0.0
30
0.0
70
1
0
VERTEX
8
Halfen
62
7
10
 0
20
-60
30
0
0
VERTEX
8
Halfen
62
7
10
 250
20
-60
30
0
0
VERTEX
8
Halfen
62
7
10
 250
20
 60
30
0
0
VERTEX
8
Halfen
62
7
10
 0
20
 60
30
0
0
SEQEND
8
Halfen
0
POLYLINE
8
Halfen
62
7
66
1
10
0.0
20
0.0
30
0.0
70
1
0
VERTEX
8
Halfen
62
7
10
 20
20
-32.5
30
0
0
VERTEX
8
Halfen
62
7
10
 37
20
-1.5
30
0
0
VERTEX
8
Halfen
62
7
10
 28
20
-1.5
30
0
0
VERTEX
8
Halfen
62
7
10
 28
20
 32.5
30
0
0
VERTEX
8
Halfen
62
7
10
 12
20
 32.5
30
0
0
VERTEX
8
Halfen
62
7
10
 12
20
-1.5
30
0
0
VERTEX
8
Halfen
62
7
10
 3
20
-1.5
30
0
0
SEQEND
8
Halfen
0
POLYLINE
8
Halfen
62
7
66
1
10
0.0
20
0.0
30
0.0
70
1
0
VERTEX
8
Halfen
62
7
10
 230
20
-32.5
30
0
0
VERTEX
8
Halfen
62
7
10
 247
20
-1.5
30
0
0
VERTEX
8
Halfen
62
7
10
 238
20
-1.5
30
0
0
VERTEX
8
Halfen
62
7
10
 238
20
 32.5
30
0
0
VERTEX
8
Halfen
62
7
10
 222
20
 32.5
30
0
0
VERTEX
8
Halfen
62
7
10
 222
20
-1.5
30
0
0
VERTEX
8
Halfen
62
7
10
 213
20
-1.5
30
0
0
SEQEND
8
Halfen
0
POLYLINE
8
Halfen
62
7
66
1
10
0.0
20
0.0
30
0.0
70
1
0
VERTEX
8
Halfen
62
7
10
 152
20
-775
30
0
0
VERTEX
8
Halfen
62
7
10
 152
20
-160
30
0
0
VERTEX
8
Halfen
62
7
10
 140
20
-160
30
0
0
VERTEX
8
Halfen
62
7
10
 140
20
-775
30
0
0
SEQEND
8
Halfen
0
POLYLINE
8
Halfen
62
7
66
1
10
0.0
20
0.0
30
0.0
70
1
0
VERTEX
8
Halfen
62
7
10
 151.25
20
-160
30
0
0
VERTEX
8
Halfen
62
7
10
 151.25
20
-62
30
0
0
VERTEX
8
Halfen
62
7
10
 140.75
20
-62
30
0
0
VERTEX
8
Halfen
62
7
10
 140.75
20
-160
30
0
0
SEQEND
8
Halfen
0
POLYLINE
8
Halfen
62
7
66
1
10
0.0
20
0.0
30
0.0
70
1
0
VERTEX
8
Halfen
62
7
10
 152
20
-62
30
0
0
VERTEX
8
Halfen
62
7
10
 152
20
-60
30
0
0
VERTEX
8
Halfen
62
7
10
 140
20
-60
30
0
0
VERTEX
8
Halfen
62
7
10
 140
20
-62
30
0
0
SEQEND
8
Halfen
0
POLYLINE
8
Halfen
62
7
66
1
10
0.0
20
0.0
30
0.0
70
1
0
VERTEX
8
Halfen
62
7
10
 151.25
20
-60
30
0
0
VERTEX
8
Halfen
62
7
10
 151.25
20
 60
30
0
0
VERTEX
8
Halfen
62
7
10
 140.75
20
 60
30
0
0
VERTEX
8
Halfen
62
7
10
 140.75
20
-60
30
0
0
SEQEND
8
Halfen
0
POLYLINE
8
Halfen
62
7
66
1
10
0.0
20
0.0
30
0.0
70
1
0
VERTEX
8
Halfen
62
7
10
 152
20
 60
30
0
0
VERTEX
8
Halfen
62
7
10
 152
20
 62
30
0
0
VERTEX
8
Halfen
62
7
10
 140
20
 62
30
0
0
VERTEX
8
Halfen
62
7
10
 140
20
 60
30
0
0
SEQEND
8
Halfen
0
POLYLINE
8
Halfen
62
7
66
1
10
0.0
20
0.0
30
0.0
70
1
0
VERTEX
8
Halfen
62
7
10
 151.25
20
 62
30
0
0
VERTEX
8
Halfen
62
7
10
 151.25
20
 160
30
0
0
VERTEX
8
Halfen
62
7
10
 140.75
20
 160
30
0
0
VERTEX
8
Halfen
62
7
10
 140.75
20
 62
30
0
0
SEQEND
8
Halfen
0
POLYLINE
8
Halfen
62
7
66
1
10
0.0
20
0.0
30
0.0
70
1
0
VERTEX
8
Halfen
62
7
10
 152
20
 160
30
0
0
VERTEX
8
Halfen
62
7
10
 152
20
 775
30
0
0
VERTEX
8
Halfen
62
7
10
 140
20
 775
30
0
0
VERTEX
8
Halfen
62
7
10
 140
20
 160
30
0
0
SEQEND
8
Halfen
0
POLYLINE
8
Halfen
62
7
66
1
10
0.0
20
0.0
30
0.0
70
1
0
VERTEX
8
Halfen
62
7
10
 98
20
-819.108
30
0
0
VERTEX
8
Halfen
62
7
10
 98
20
 163.766
30
0
0
VERTEX
8
Halfen
62
7
10
 86
20
 163.766
30
0
0
VERTEX
8
Halfen
62
7
10
 86
20
-819.108
30
0
0
SEQEND
8
Halfen
0
POLYLINE
8
Halfen
62
7
66
1
10
0.0
20
0.0
30
0.0
70
1
0
VERTEX
8
Halfen
62
7
10
 98
20
 163.766
30
0
0
VERTEX
8
Halfen
62
7
10
 98
20
 824.766
30
0
0
VERTEX
8
Halfen
62
7
10
 86
20
 824.766
30
0
0
VERTEX
8
Halfen
62
7
10
 86
20
 163.766
30
0
0
SEQEND
8
Halfen
0
POLYLINE
8
Halfen
62
7
66
1
10
0.0
20
0.0
30
0.0
70
1
0
VERTEX
8
Halfen
62
7
10
 110
20
-824.767
30
0
0
VERTEX
8
Halfen
62
7
10
 110
20
 158.108
30
0
0
VERTEX
8
Halfen
62
7
10
 98
20
 158.108
30
0
0
VERTEX
8
Halfen
62
7
10
 98
20
-824.767
30
0
0
SEQEND
8
Halfen
0
POLYLINE
8
Halfen
62
7
66
1
10
0.0
20
0.0
30
0.0
70
1
0
VERTEX
8
Halfen
62
7
10
 110
20
 158.108
30
0
0
VERTEX
8
Halfen
62
7
10
 110
20
 819.108
30
0
0
VERTEX
8
Halfen
62
7
10
 98
20
 819.108
30
0
0
VERTEX
8
Halfen
62
7
10
 98
20
 158.108
30
0
0
SEQEND
8
Halfen
0
POLYLINE
8
Halfen
62
7
66
1
10
0.0
20
0.0
30
0.0
70
1
0
VERTEX
8
Halfen
62
7
10
 680
20
-60
30
0
0
VERTEX
8
Halfen
62
7
10
 680
20
 60
30
0
0
VERTEX
8
Halfen
62
7
10
 666.5
20
 73.5
30
0
0
VERTEX
8
Halfen
62
7
10
 666.5
20
 60
30
0
0
VERTEX
8
Halfen
62
7
10
 500
20
 60
30
0
0
VERTEX
8
Halfen
62
7
10
 500
20
-60
30
0
0
VERTEX
8
Halfen
62
7
10
 666.5
20
-60
30
0
0
VERTEX
8
Halfen
62
7
10
 666.5
20
-73.5
30
0
0
SEQEND
8
Halfen
0
POLYLINE
8
Halfen
62
7
66
1
10
0.0
20
0.0
30
0.0
70
1
0
VERTEX
8
Halfen
62
7
10
 500
20
-60
30
0
0
VERTEX
8
Halfen
62
7
10
 500
20
 60
30
0
0
VERTEX
8
Halfen
62
7
10
 463.5
20
 60
30
0
0
VERTEX
8
Halfen
62
7
10
 463.5
20
 73.5
30
0
0
VERTEX
8
Halfen
62
7
10
 450
20
 60
30
0
0
VERTEX
8
Halfen
62
7
10
 450
20
-60
30
0
0
VERTEX
8
Halfen
62
7
10
 463.5
20
-73.5
30
0
0
VERTEX
8
Halfen
62
7
10
 463.5
20
-60
30
0
0
SEQEND
8
Halfen
0
POLYLINE
8
Halfen
62
7
66
1
10
0.0
20
0.0
30
0.0
70
1
0
VERTEX
8
Halfen
62
7
10
 677.5
20
-58.75
30
0
0
VERTEX
8
Halfen
62
7
10
 677.5
20
 58.75
30
0
0
VERTEX
8
Halfen
62
7
10
 669
20
 67.25
30
0
0
VERTEX
8
Halfen
62
7
10
 669
20
 58
30
0
0
VERTEX
8
Halfen
62
7
10
 502
20
 58
30
0
0
VERTEX
8
Halfen
62
7
10
 502
20
-58
30
0
0
VERTEX
8
Halfen
62
7
10
 669
20
-58
30
0
0
VERTEX
8
Halfen
62
7
10
 669
20
-67.25
30
0
0
SEQEND
8
Halfen
0
POLYLINE
8
Halfen
62
7
66
1
10
0.0
20
0.0
30
0.0
70
1
0
VERTEX
8
Halfen
62
7
10
 498
20
-58
30
0
0
VERTEX
8
Halfen
62
7
10
 498
20
 58
30
0
0
VERTEX
8
Halfen
62
7
10
 461
20
 58
30
0
0
VERTEX
8
Halfen
62
7
10
 461
20
 67.25
30
0
0
VERTEX
8
Halfen
62
7
10
 452.5
20
 58.75
30
0
0
VERTEX
8
Halfen
62
7
10
 452.5
20
-58.75
30
0
0
VERTEX
8
Halfen
62
7
10
 461
20
-67.25
30
0
0
VERTEX
8
Halfen
62
7
10
 461
20
-58
30
0
0
SEQEND
8
Halfen
0
POLYLINE
8
Halfen
62
7
66
1
10
0.0
20
0.0
30
0.0
70
1
0
VERTEX
8
Halfen
62
7
10
 492
20
-775
30
0
0
VERTEX
8
Halfen
62
7
10
 492
20
-160
30
0
0
VERTEX
8
Halfen
62
7
10
 480
20
-160
30
0
0
VERTEX
8
Halfen
62
7
10
 480
20
-775
30
0
0
SEQEND
8
Halfen
0
POLYLINE
8
Halfen
62
7
66
1
10
0.0
20
0.0
30
0.0
70
1
0
VERTEX
8
Halfen
62
7
10
 491.25
20
-160
30
0
0
VERTEX
8
Halfen
62
7
10
 491.25
20
-62
30
0
0
VERTEX
8
Halfen
62
7
10
 480.75
20
-62
30
0
0
VERTEX
8
Halfen
62
7
10
 480.75
20
-160
30
0
0
SEQEND
8
Halfen
0
POLYLINE
8
Halfen
62
7
66
1
10
0.0
20
0.0
30
0.0
70
1
0
VERTEX
8
Halfen
62
7
10
 492
20
-62
30
0
0
VERTEX
8
Halfen
62
7
10
 492
20
-60
30
0
0
VERTEX
8
Halfen
62
7
10
 480
20
-60
30
0
0
VERTEX
8
Halfen
62
7
10
 480
20
-62
30
0
0
SEQEND
8
Halfen
0
POLYLINE
8
Halfen
62
7
66
1
10
0.0
20
0.0
30
0.0
70
1
0
VERTEX
8
Halfen
62
7
10
 491.25
20
-60
30
0
0
VERTEX
8
Halfen
62
7
10
 491.25
20
 60
30
0
0
VERTEX
8
Halfen
62
7
10
 480.75
20
 60
30
0
0
VERTEX
8
Halfen
62
7
10
 480.75
20
-60
30
0
0
SEQEND
8
Halfen
0
POLYLINE
8
Halfen
62
7
66
1
10
0.0
20
0.0
30
0.0
70
1
0
VERTEX
8
Halfen
62
7
10
 492
20
 60
30
0
0
VERTEX
8
Halfen
62
7
10
 492
20
 62
30
0
0
VERTEX
8
Halfen
62
7
10
 480
20
 62
30
0
0
VERTEX
8
Halfen
62
7
10
 480
20
 60
30
0
0
SEQEND
8
Halfen
0
POLYLINE
8
Halfen
62
7
66
1
10
0.0
20
0.0
30
0.0
70
1
0
VERTEX
8
Halfen
62
7
10
 491.25
20
 62
30
0
0
VERTEX
8
Halfen
62
7
10
 491.25
20
 160
30
0
0
VERTEX
8
Halfen
62
7
10
 480.75
20
 160
30
0
0
VERTEX
8
Halfen
62
7
10
 480.75
20
 62
30
0
0
SEQEND
8
Halfen
0
POLYLINE
8
Halfen
62
7
66
1
10
0.0
20
0.0
30
0.0
70
1
0
VERTEX
8
Halfen
62
7
10
 492
20
 160
30
0
0
VERTEX
8
Halfen
62
7
10
 492
20
 775
30
0
0
VERTEX
8
Halfen
62
7
10
 480
20
 775
30
0
0
VERTEX
8
Halfen
62
7
10
 480
20
 160
30
0
0
SEQEND
8
Halfen
0
POLYLINE
8
Halfen
62
7
66
1
10
0.0
20
0.0
30
0.0
70
1
0
VERTEX
8
Halfen
62
7
10
 650
20
-775
30
0
0
VERTEX
8
Halfen
62
7
10
 650
20
-160
30
0
0
VERTEX
8
Halfen
62
7
10
 638
20
-160
30
0
0
VERTEX
8
Halfen
62
7
10
 638
20
-775
30
0
0
SEQEND
8
Halfen
0
POLYLINE
8
Halfen
62
7
66
1
10
0.0
20
0.0
30
0.0
70
1
0
VERTEX
8
Halfen
62
7
10
 649.25
20
-160
30
0
0
VERTEX
8
Halfen
62
7
10
 649.25
20
-62
30
0
0
VERTEX
8
Halfen
62
7
10
 638.75
20
-62
30
0
0
VERTEX
8
Halfen
62
7
10
 638.75
20
-160
30
0
0
SEQEND
8
Halfen
0
POLYLINE
8
Halfen
62
7
66
1
10
0.0
20
0.0
30
0.0
70
1
0
VERTEX
8
Halfen
62
7
10
 650
20
-62
30
0
0
VERTEX
8
Halfen
62
7
10
 650
20
-60
30
0
0
VERTEX
8
Halfen
62
7
10
 638
20
-60
30
0
0
VERTEX
8
Halfen
62
7
10
 638
20
-62
30
0
0
SEQEND
8
Halfen
0
POLYLINE
8
Halfen
62
7
66
1
10
0.0
20
0.0
30
0.0
70
1
0
VERTEX
8
Halfen
62
7
10
 649.25
20
-60
30
0
0
VERTEX
8
Halfen
62
7
10
 649.25
20
 60
30
0
0
VERTEX
8
Halfen
62
7
10
 638.75
20
 60
30
0
0
VERTEX
8
Halfen
62
7
10
 638.75
20
-60
30
0
0
SEQEND
8
Halfen
0
POLYLINE
8
Halfen
62
7
66
1
10
0.0
20
0.0
30
0.0
70
1
0
VERTEX
8
Halfen
62
7
10
 650
20
 60
30
0
0
VERTEX
8
Halfen
62
7
10
 650
20
 62
30
0
0
VERTEX
8
Halfen
62
7
10
 638
20
 62
30
0
0
VERTEX
8
Halfen
62
7
10
 638
20
 60
30
0
0
SEQEND
8
Halfen
0
POLYLINE
8
Halfen
62
7
66
1
10
0.0
20
0.0
30
0.0
70
1
0
VERTEX
8
Halfen
62
7
10
 649.25
20
 62
30
0
0
VERTEX
8
Halfen
62
7
10
 649.25
20
 160
30
0
0
VERTEX
8
Halfen
62
7
10
 638.75
20
 160
30
0
0
VERTEX
8
Halfen
62
7
10
 638.75
20
 62
30
0
0
SEQEND
8
Halfen
0
POLYLINE
8
Halfen
62
7
66
1
10
0.0
20
0.0
30
0.0
70
1
0
VERTEX
8
Halfen
62
7
10
 650
20
 160
30
0
0
VERTEX
8
Halfen
62
7
10
 650
20
 775
30
0
0
VERTEX
8
Halfen
62
7
10
 638
20
 775
30
0
0
VERTEX
8
Halfen
62
7
10
 638
20
 160
30
0
0
SEQEND
8
Halfen
0
POLYLINE
8
Halfen
62
7
66
1
10
0.0
20
0.0
30
0.0
70
1
0
VERTEX
8
Halfen
62
7
10
 650
20
-819.108
30
0
0
VERTEX
8
Halfen
62
7
10
 650
20
-104.608
30
0
0
VERTEX
8
Halfen
62
7
10
 649.359
20
-96.789
30
0
0
VERTEX
8
Halfen
62
7
10
 647.453
20
-89.179
30
0
0
VERTEX
8
Halfen
62
7
10
 644.332
20
-81.981
30
0
0
VERTEX
8
Halfen
62
7
10
 640.081
20
-75.388
30
0
0
VERTEX
8
Halfen
62
7
10
 514.439
20
 88.352
30
0
0
VERTEX
8
Halfen
62
7
10
 511.251
20
 93.297
30
0
0
VERTEX
8
Halfen
62
7
10
 508.911
20
 98.695
30
0
0
VERTEX
8
Halfen
62
7
10
 507.481
20
 104.403
30
0
0
VERTEX
8
Halfen
62
7
10
 507
20
 110.267
30
0
0
VERTEX
8
Halfen
62
7
10
 507
20
 163.766
30
0
0
VERTEX
8
Halfen
62
7
10
 495
20
 163.766
30
0
0
VERTEX
8
Halfen
62
7
10
 495
20
 110.267
30
0
0
VERTEX
8
Halfen
62
7
10
 495.641
20
 102.448
30
0
0
VERTEX
8
Halfen
62
7
10
 497.547
20
 94.838
30
0
0
VERTEX
8
Halfen
62
7
10
 500.668
20
 87.64
30
0
0
VERTEX
8
Halfen
62
7
10
 504.919
20
 81.046
30
0
0
VERTEX
8
Halfen
62
7
10
 630.561
20
-82.693
30
0
0
VERTEX
8
Halfen
62
7
10
 633.749
20
-87.638
30
0
0
VERTEX
8
Halfen
62
7
10
 636.089
20
-93.037
30
0
0
VERTEX
8
Halfen
62
7
10
 637.519
20
-98.744
30
0
0
VERTEX
8
Halfen
62
7
10
 638
20
-104.608
30
0
0
VERTEX
8
Halfen
62
7
10
 638
20
-819.108
30
0
0
SEQEND
8
Halfen
0
POLYLINE
8
Halfen
62
7
66
1
10
0.0
20
0.0
30
0.0
70
1
0
VERTEX
8
Halfen
62
7
10
 507
20
 163.766
30
0
0
VERTEX
8
Halfen
62
7
10
 507
20
 824.766
30
0
0
VERTEX
8
Halfen
62
7
10
 495
20
 824.766
30
0
0
VERTEX
8
Halfen
62
7
10
 495
20
 163.766
30
0
0
SEQEND
8
Halfen
0
POLYLINE
8
Halfen
62
7
66
1
10
0.0
20
0.0
30
0.0
70
1
0
VERTEX
8
Halfen
62
7
10
 495
20
-824.767
30
0
0
VERTEX
8
Halfen
62
7
10
 495
20
-110.267
30
0
0
VERTEX
8
Halfen
62
7
10
 495.641
20
-102.448
30
0
0
VERTEX
8
Halfen
62
7
10
 497.547
20
-94.838
30
0
0
VERTEX
8
Halfen
62
7
10
 500.668
20
-87.64
30
0
0
VERTEX
8
Halfen
62
7
10
 504.919
20
-81.046
30
0
0
VERTEX
8
Halfen
62
7
10
 630.561
20
 82.693
30
0
0
VERTEX
8
Halfen
62
7
10
 633.749
20
 87.638
30
0
0
VERTEX
8
Halfen
62
7
10
 636.089
20
 93.037
30
0
0
VERTEX
8
Halfen
62
7
10
 637.519
20
 98.744
30
0
0
VERTEX
8
Halfen
62
7
10
 638
20
 104.608
30
0
0
VERTEX
8
Halfen
62
7
10
 638
20
 158.108
30
0
0
VERTEX
8
Halfen
62
7
10
 650
20
 158.108
30
0
0
VERTEX
8
Halfen
62
7
10
 650
20
 104.608
30
0
0
VERTEX
8
Halfen
62
7
10
 649.359
20
 96.789
30
0
0
VERTEX
8
Halfen
62
7
10
 647.453
20
 89.179
30
0
0
VERTEX
8
Halfen
62
7
10
 644.332
20
 81.981
30
0
0
VERTEX
8
Halfen
62
7
10
 640.081
20
 75.388
30
0
0
VERTEX
8
Halfen
62
7
10
 514.439
20
-88.352
30
0
0
VERTEX
8
Halfen
62
7
10
 511.251
20
-93.297
30
0
0
VERTEX
8
Halfen
62
7
10
 508.911
20
-98.695
30
0
0
VERTEX
8
Halfen
62
7
10
 507.481
20
-104.403
30
0
0
VERTEX
8
Halfen
62
7
10
 507
20
-110.267
30
0
0
VERTEX
8
Halfen
62
7
10
 507
20
-824.767
30
0
0
SEQEND
8
Halfen
0
POLYLINE
8
Halfen
62
7
66
1
10
0.0
20
0.0
30
0.0
70
1
0
VERTEX
8
Halfen
62
7
10
 638
20
 158.108
30
0
0
VERTEX
8
Halfen
62
7
10
 638
20
 819.108
30
0
0
VERTEX
8
Halfen
62
7
10
 650
20
 819.108
30
0
0
VERTEX
8
Halfen
62
7
10
 650
20
 158.108
30
0
0
SEQEND
8
Halfen
0
ENDSEC
0
EOF
