0
SECTION
2
HEADER
9
$EXTMIN
10
 0
20
 100
30
0.0
9
$EXTMAX
10
 0
20
 100
30
0.0
9
$LIMMIN
10
 100
20
 0
9
$LIMMAX
10
 0
20
 100
9
$PSLTSCALE
70
1
0
ENDSEC
0
SECTION
2
TABLES
0
TABLE
2
LAYER
70
2
0
LAYER
2
0
70
0
62
7
6
CONTINUOUS
0
LAYER
2
Halfen
70
0
62
7
6
CONTINUOUS
0
ENDTAB
0
ENDSEC
0
SECTION
2
ENTITIES
0
POLYLINE
8
Halfen
62
7
66
1
10
0.0
20
0.0
30
0.0
70
1
0
VERTEX
8
Halfen
62
7
10
 0
20
-73.5
30
0
0
VERTEX
8
Halfen
62
7
10
 1000
20
-73.5
30
0
0
VERTEX
8
Halfen
62
7
10
 1000
20
 73.5
30
0
0
VERTEX
8
Halfen
62
7
10
 0
20
 73.5
30
0
0
SEQEND
8
Halfen
0
POLYLINE
8
Halfen
62
7
66
1
10
0.0
20
0.0
30
0.0
70
1
0
VERTEX
8
Halfen
62
7
10
 0
20
-60
30
0
0
VERTEX
8
Halfen
62
7
10
 1000
20
-60
30
0
0
VERTEX
8
Halfen
62
7
10
 1000
20
 60
30
0
0
VERTEX
8
Halfen
62
7
10
 0
20
 60
30
0
0
SEQEND
8
Halfen
0
POLYLINE
8
Halfen
62
7
66
1
10
0.0
20
0.0
30
0.0
70
1
0
VERTEX
8
Halfen
62
7
10
 20
20
-32.5
30
0
0
VERTEX
8
Halfen
62
7
10
 37
20
-1.5
30
0
0
VERTEX
8
Halfen
62
7
10
 28
20
-1.5
30
0
0
VERTEX
8
Halfen
62
7
10
 28
20
 32.5
30
0
0
VERTEX
8
Halfen
62
7
10
 12
20
 32.5
30
0
0
VERTEX
8
Halfen
62
7
10
 12
20
-1.5
30
0
0
VERTEX
8
Halfen
62
7
10
 3
20
-1.5
30
0
0
SEQEND
8
Halfen
0
POLYLINE
8
Halfen
62
7
66
1
10
0.0
20
0.0
30
0.0
70
1
0
VERTEX
8
Halfen
62
7
10
 980
20
-32.5
30
0
0
VERTEX
8
Halfen
62
7
10
 997
20
-1.5
30
0
0
VERTEX
8
Halfen
62
7
10
 988
20
-1.5
30
0
0
VERTEX
8
Halfen
62
7
10
 988
20
 32.5
30
0
0
VERTEX
8
Halfen
62
7
10
 972
20
 32.5
30
0
0
VERTEX
8
Halfen
62
7
10
 972
20
-1.5
30
0
0
VERTEX
8
Halfen
62
7
10
 963
20
-1.5
30
0
0
SEQEND
8
Halfen
0
POLYLINE
8
Halfen
62
7
66
1
10
0.0
20
0.0
30
0.0
70
1
0
VERTEX
8
Halfen
62
7
10
 151
20
-69.3
30
0
0
VERTEX
8
Halfen
62
7
10
 151
20
-56.8
30
0
0
VERTEX
8
Halfen
62
7
10
 151
20
 69.3
30
0
0
VERTEX
8
Halfen
62
7
10
 150.958
20
 70.359
30
0
0
VERTEX
8
Halfen
62
7
10
 150.834
20
 71.412
30
0
0
VERTEX
8
Halfen
62
7
10
 150.627
20
 72.452
30
0
0
VERTEX
8
Halfen
62
7
10
 150.339
20
 73.472
30
0
0
VERTEX
8
Halfen
62
7
10
 149.972
20
 74.466
30
0
0
VERTEX
8
Halfen
62
7
10
 149.529
20
 75.429
30
0
0
VERTEX
8
Halfen
62
7
10
 149.011
20
 76.354
30
0
0
VERTEX
8
Halfen
62
7
10
 148.422
20
 77.235
30
0
0
VERTEX
8
Halfen
62
7
10
 147.765
20
 78.068
30
0
0
VERTEX
8
Halfen
62
7
10
 147.046
20
 78.846
30
0
0
VERTEX
8
Halfen
62
7
10
 146.268
20
 79.565
30
0
0
VERTEX
8
Halfen
62
7
10
 145.435
20
 80.222
30
0
0
VERTEX
8
Halfen
62
7
10
 144.554
20
 80.811
30
0
0
VERTEX
8
Halfen
62
7
10
 143.629
20
 81.329
30
0
0
VERTEX
8
Halfen
62
7
10
 142.666
20
 81.772
30
0
0
VERTEX
8
Halfen
62
7
10
 141.672
20
 82.139
30
0
0
VERTEX
8
Halfen
62
7
10
 140.652
20
 82.427
30
0
0
VERTEX
8
Halfen
62
7
10
 139.612
20
 82.634
30
0
0
VERTEX
8
Halfen
62
7
10
 138.559
20
 82.758
30
0
0
VERTEX
8
Halfen
62
7
10
 137.5
20
 82.8
30
0
0
VERTEX
8
Halfen
62
7
10
 134.5
20
 82.8
30
0
0
VERTEX
8
Halfen
62
7
10
 133.441
20
 82.758
30
0
0
VERTEX
8
Halfen
62
7
10
 132.388
20
 82.634
30
0
0
VERTEX
8
Halfen
62
7
10
 131.348
20
 82.427
30
0
0
VERTEX
8
Halfen
62
7
10
 130.328
20
 82.139
30
0
0
VERTEX
8
Halfen
62
7
10
 129.334
20
 81.772
30
0
0
VERTEX
8
Halfen
62
7
10
 128.371
20
 81.329
30
0
0
VERTEX
8
Halfen
62
7
10
 127.446
20
 80.811
30
0
0
VERTEX
8
Halfen
62
7
10
 126.565
20
 80.222
30
0
0
VERTEX
8
Halfen
62
7
10
 125.732
20
 79.565
30
0
0
VERTEX
8
Halfen
62
7
10
 124.954
20
 78.846
30
0
0
VERTEX
8
Halfen
62
7
10
 124.235
20
 78.068
30
0
0
VERTEX
8
Halfen
62
7
10
 123.578
20
 77.235
30
0
0
VERTEX
8
Halfen
62
7
10
 122.989
20
 76.354
30
0
0
VERTEX
8
Halfen
62
7
10
 122.471
20
 75.429
30
0
0
VERTEX
8
Halfen
62
7
10
 122.028
20
 74.466
30
0
0
VERTEX
8
Halfen
62
7
10
 121.661
20
 73.472
30
0
0
VERTEX
8
Halfen
62
7
10
 121.373
20
 72.452
30
0
0
VERTEX
8
Halfen
62
7
10
 121.166
20
 71.412
30
0
0
VERTEX
8
Halfen
62
7
10
 121.042
20
 70.359
30
0
0
VERTEX
8
Halfen
62
7
10
 121
20
 69.3
30
0
0
VERTEX
8
Halfen
62
7
10
 121
20
-56.8
30
0
0
VERTEX
8
Halfen
62
7
10
 121
20
-69.3
30
0
0
VERTEX
8
Halfen
62
7
10
 121.042
20
-70.359
30
0
0
VERTEX
8
Halfen
62
7
10
 121.166
20
-71.412
30
0
0
VERTEX
8
Halfen
62
7
10
 121.373
20
-72.452
30
0
0
VERTEX
8
Halfen
62
7
10
 121.661
20
-73.472
30
0
0
VERTEX
8
Halfen
62
7
10
 122.028
20
-74.466
30
0
0
VERTEX
8
Halfen
62
7
10
 122.471
20
-75.429
30
0
0
VERTEX
8
Halfen
62
7
10
 122.989
20
-76.354
30
0
0
VERTEX
8
Halfen
62
7
10
 123.578
20
-77.235
30
0
0
VERTEX
8
Halfen
62
7
10
 124.235
20
-78.068
30
0
0
VERTEX
8
Halfen
62
7
10
 124.954
20
-78.846
30
0
0
VERTEX
8
Halfen
62
7
10
 125.732
20
-79.565
30
0
0
VERTEX
8
Halfen
62
7
10
 126.565
20
-80.222
30
0
0
VERTEX
8
Halfen
62
7
10
 127.446
20
-80.811
30
0
0
VERTEX
8
Halfen
62
7
10
 128.371
20
-81.329
30
0
0
VERTEX
8
Halfen
62
7
10
 129.334
20
-81.772
30
0
0
VERTEX
8
Halfen
62
7
10
 130.328
20
-82.139
30
0
0
VERTEX
8
Halfen
62
7
10
 131.348
20
-82.427
30
0
0
VERTEX
8
Halfen
62
7
10
 132.388
20
-82.634
30
0
0
VERTEX
8
Halfen
62
7
10
 133.441
20
-82.758
30
0
0
VERTEX
8
Halfen
62
7
10
 134.5
20
-82.8
30
0
0
VERTEX
8
Halfen
62
7
10
 137.5
20
-82.8
30
0
0
VERTEX
8
Halfen
62
7
10
 138.559
20
-82.758
30
0
0
VERTEX
8
Halfen
62
7
10
 139.612
20
-82.634
30
0
0
VERTEX
8
Halfen
62
7
10
 140.652
20
-82.427
30
0
0
VERTEX
8
Halfen
62
7
10
 141.672
20
-82.139
30
0
0
VERTEX
8
Halfen
62
7
10
 142.666
20
-81.772
30
0
0
VERTEX
8
Halfen
62
7
10
 143.629
20
-81.329
30
0
0
VERTEX
8
Halfen
62
7
10
 144.554
20
-80.811
30
0
0
VERTEX
8
Halfen
62
7
10
 145.435
20
-80.222
30
0
0
VERTEX
8
Halfen
62
7
10
 146.268
20
-79.565
30
0
0
VERTEX
8
Halfen
62
7
10
 147.046
20
-78.846
30
0
0
VERTEX
8
Halfen
62
7
10
 147.765
20
-78.068
30
0
0
VERTEX
8
Halfen
62
7
10
 148.422
20
-77.235
30
0
0
VERTEX
8
Halfen
62
7
10
 149.011
20
-76.354
30
0
0
VERTEX
8
Halfen
62
7
10
 149.529
20
-75.429
30
0
0
VERTEX
8
Halfen
62
7
10
 149.972
20
-74.466
30
0
0
VERTEX
8
Halfen
62
7
10
 150.339
20
-73.472
30
0
0
VERTEX
8
Halfen
62
7
10
 150.627
20
-72.452
30
0
0
VERTEX
8
Halfen
62
7
10
 150.834
20
-71.412
30
0
0
VERTEX
8
Halfen
62
7
10
 150.958
20
-70.359
30
0
0
VERTEX
8
Halfen
62
7
10
 151
20
-69.3
30
0
0
SEQEND
8
Halfen
0
POLYLINE
8
Halfen
62
7
66
1
10
0.0
20
0.0
30
0.0
70
1
0
VERTEX
8
Halfen
62
7
10
 265
20
-69.3
30
0
0
VERTEX
8
Halfen
62
7
10
 265
20
-56.8
30
0
0
VERTEX
8
Halfen
62
7
10
 265
20
 69.3
30
0
0
VERTEX
8
Halfen
62
7
10
 264.958
20
 70.359
30
0
0
VERTEX
8
Halfen
62
7
10
 264.834
20
 71.412
30
0
0
VERTEX
8
Halfen
62
7
10
 264.627
20
 72.452
30
0
0
VERTEX
8
Halfen
62
7
10
 264.339
20
 73.472
30
0
0
VERTEX
8
Halfen
62
7
10
 263.972
20
 74.466
30
0
0
VERTEX
8
Halfen
62
7
10
 263.529
20
 75.429
30
0
0
VERTEX
8
Halfen
62
7
10
 263.011
20
 76.354
30
0
0
VERTEX
8
Halfen
62
7
10
 262.422
20
 77.235
30
0
0
VERTEX
8
Halfen
62
7
10
 261.765
20
 78.068
30
0
0
VERTEX
8
Halfen
62
7
10
 261.046
20
 78.846
30
0
0
VERTEX
8
Halfen
62
7
10
 260.268
20
 79.565
30
0
0
VERTEX
8
Halfen
62
7
10
 259.435
20
 80.222
30
0
0
VERTEX
8
Halfen
62
7
10
 258.554
20
 80.811
30
0
0
VERTEX
8
Halfen
62
7
10
 257.629
20
 81.329
30
0
0
VERTEX
8
Halfen
62
7
10
 256.666
20
 81.772
30
0
0
VERTEX
8
Halfen
62
7
10
 255.672
20
 82.139
30
0
0
VERTEX
8
Halfen
62
7
10
 254.652
20
 82.427
30
0
0
VERTEX
8
Halfen
62
7
10
 253.612
20
 82.634
30
0
0
VERTEX
8
Halfen
62
7
10
 252.559
20
 82.758
30
0
0
VERTEX
8
Halfen
62
7
10
 251.5
20
 82.8
30
0
0
VERTEX
8
Halfen
62
7
10
 248.5
20
 82.8
30
0
0
VERTEX
8
Halfen
62
7
10
 247.441
20
 82.758
30
0
0
VERTEX
8
Halfen
62
7
10
 246.388
20
 82.634
30
0
0
VERTEX
8
Halfen
62
7
10
 245.348
20
 82.427
30
0
0
VERTEX
8
Halfen
62
7
10
 244.328
20
 82.139
30
0
0
VERTEX
8
Halfen
62
7
10
 243.334
20
 81.772
30
0
0
VERTEX
8
Halfen
62
7
10
 242.371
20
 81.329
30
0
0
VERTEX
8
Halfen
62
7
10
 241.446
20
 80.811
30
0
0
VERTEX
8
Halfen
62
7
10
 240.565
20
 80.222
30
0
0
VERTEX
8
Halfen
62
7
10
 239.732
20
 79.565
30
0
0
VERTEX
8
Halfen
62
7
10
 238.954
20
 78.846
30
0
0
VERTEX
8
Halfen
62
7
10
 238.235
20
 78.068
30
0
0
VERTEX
8
Halfen
62
7
10
 237.578
20
 77.235
30
0
0
VERTEX
8
Halfen
62
7
10
 236.989
20
 76.354
30
0
0
VERTEX
8
Halfen
62
7
10
 236.471
20
 75.429
30
0
0
VERTEX
8
Halfen
62
7
10
 236.028
20
 74.466
30
0
0
VERTEX
8
Halfen
62
7
10
 235.661
20
 73.472
30
0
0
VERTEX
8
Halfen
62
7
10
 235.373
20
 72.452
30
0
0
VERTEX
8
Halfen
62
7
10
 235.166
20
 71.412
30
0
0
VERTEX
8
Halfen
62
7
10
 235.042
20
 70.359
30
0
0
VERTEX
8
Halfen
62
7
10
 235
20
 69.3
30
0
0
VERTEX
8
Halfen
62
7
10
 235
20
-56.8
30
0
0
VERTEX
8
Halfen
62
7
10
 235
20
-69.3
30
0
0
VERTEX
8
Halfen
62
7
10
 235.042
20
-70.359
30
0
0
VERTEX
8
Halfen
62
7
10
 235.166
20
-71.412
30
0
0
VERTEX
8
Halfen
62
7
10
 235.373
20
-72.452
30
0
0
VERTEX
8
Halfen
62
7
10
 235.661
20
-73.472
30
0
0
VERTEX
8
Halfen
62
7
10
 236.028
20
-74.466
30
0
0
VERTEX
8
Halfen
62
7
10
 236.471
20
-75.429
30
0
0
VERTEX
8
Halfen
62
7
10
 236.989
20
-76.354
30
0
0
VERTEX
8
Halfen
62
7
10
 237.578
20
-77.235
30
0
0
VERTEX
8
Halfen
62
7
10
 238.235
20
-78.068
30
0
0
VERTEX
8
Halfen
62
7
10
 238.954
20
-78.846
30
0
0
VERTEX
8
Halfen
62
7
10
 239.732
20
-79.565
30
0
0
VERTEX
8
Halfen
62
7
10
 240.565
20
-80.222
30
0
0
VERTEX
8
Halfen
62
7
10
 241.446
20
-80.811
30
0
0
VERTEX
8
Halfen
62
7
10
 242.371
20
-81.329
30
0
0
VERTEX
8
Halfen
62
7
10
 243.334
20
-81.772
30
0
0
VERTEX
8
Halfen
62
7
10
 244.328
20
-82.139
30
0
0
VERTEX
8
Halfen
62
7
10
 245.348
20
-82.427
30
0
0
VERTEX
8
Halfen
62
7
10
 246.388
20
-82.634
30
0
0
VERTEX
8
Halfen
62
7
10
 247.441
20
-82.758
30
0
0
VERTEX
8
Halfen
62
7
10
 248.5
20
-82.8
30
0
0
VERTEX
8
Halfen
62
7
10
 251.5
20
-82.8
30
0
0
VERTEX
8
Halfen
62
7
10
 252.559
20
-82.758
30
0
0
VERTEX
8
Halfen
62
7
10
 253.612
20
-82.634
30
0
0
VERTEX
8
Halfen
62
7
10
 254.652
20
-82.427
30
0
0
VERTEX
8
Halfen
62
7
10
 255.672
20
-82.139
30
0
0
VERTEX
8
Halfen
62
7
10
 256.666
20
-81.772
30
0
0
VERTEX
8
Halfen
62
7
10
 257.629
20
-81.329
30
0
0
VERTEX
8
Halfen
62
7
10
 258.554
20
-80.811
30
0
0
VERTEX
8
Halfen
62
7
10
 259.435
20
-80.222
30
0
0
VERTEX
8
Halfen
62
7
10
 260.268
20
-79.565
30
0
0
VERTEX
8
Halfen
62
7
10
 261.046
20
-78.846
30
0
0
VERTEX
8
Halfen
62
7
10
 261.765
20
-78.068
30
0
0
VERTEX
8
Halfen
62
7
10
 262.422
20
-77.235
30
0
0
VERTEX
8
Halfen
62
7
10
 263.011
20
-76.354
30
0
0
VERTEX
8
Halfen
62
7
10
 263.529
20
-75.429
30
0
0
VERTEX
8
Halfen
62
7
10
 263.972
20
-74.466
30
0
0
VERTEX
8
Halfen
62
7
10
 264.339
20
-73.472
30
0
0
VERTEX
8
Halfen
62
7
10
 264.627
20
-72.452
30
0
0
VERTEX
8
Halfen
62
7
10
 264.834
20
-71.412
30
0
0
VERTEX
8
Halfen
62
7
10
 264.958
20
-70.359
30
0
0
VERTEX
8
Halfen
62
7
10
 265
20
-69.3
30
0
0
SEQEND
8
Halfen
0
POLYLINE
8
Halfen
62
7
66
1
10
0.0
20
0.0
30
0.0
70
1
0
VERTEX
8
Halfen
62
7
10
 379
20
-69.3
30
0
0
VERTEX
8
Halfen
62
7
10
 379
20
-56.8
30
0
0
VERTEX
8
Halfen
62
7
10
 379
20
 69.3
30
0
0
VERTEX
8
Halfen
62
7
10
 378.958
20
 70.359
30
0
0
VERTEX
8
Halfen
62
7
10
 378.834
20
 71.412
30
0
0
VERTEX
8
Halfen
62
7
10
 378.627
20
 72.452
30
0
0
VERTEX
8
Halfen
62
7
10
 378.339
20
 73.472
30
0
0
VERTEX
8
Halfen
62
7
10
 377.972
20
 74.466
30
0
0
VERTEX
8
Halfen
62
7
10
 377.529
20
 75.429
30
0
0
VERTEX
8
Halfen
62
7
10
 377.011
20
 76.354
30
0
0
VERTEX
8
Halfen
62
7
10
 376.422
20
 77.235
30
0
0
VERTEX
8
Halfen
62
7
10
 375.765
20
 78.068
30
0
0
VERTEX
8
Halfen
62
7
10
 375.046
20
 78.846
30
0
0
VERTEX
8
Halfen
62
7
10
 374.268
20
 79.565
30
0
0
VERTEX
8
Halfen
62
7
10
 373.435
20
 80.222
30
0
0
VERTEX
8
Halfen
62
7
10
 372.554
20
 80.811
30
0
0
VERTEX
8
Halfen
62
7
10
 371.629
20
 81.329
30
0
0
VERTEX
8
Halfen
62
7
10
 370.666
20
 81.772
30
0
0
VERTEX
8
Halfen
62
7
10
 369.672
20
 82.139
30
0
0
VERTEX
8
Halfen
62
7
10
 368.652
20
 82.427
30
0
0
VERTEX
8
Halfen
62
7
10
 367.612
20
 82.634
30
0
0
VERTEX
8
Halfen
62
7
10
 366.559
20
 82.758
30
0
0
VERTEX
8
Halfen
62
7
10
 365.5
20
 82.8
30
0
0
VERTEX
8
Halfen
62
7
10
 362.5
20
 82.8
30
0
0
VERTEX
8
Halfen
62
7
10
 361.441
20
 82.758
30
0
0
VERTEX
8
Halfen
62
7
10
 360.388
20
 82.634
30
0
0
VERTEX
8
Halfen
62
7
10
 359.348
20
 82.427
30
0
0
VERTEX
8
Halfen
62
7
10
 358.328
20
 82.139
30
0
0
VERTEX
8
Halfen
62
7
10
 357.334
20
 81.772
30
0
0
VERTEX
8
Halfen
62
7
10
 356.371
20
 81.329
30
0
0
VERTEX
8
Halfen
62
7
10
 355.446
20
 80.811
30
0
0
VERTEX
8
Halfen
62
7
10
 354.565
20
 80.222
30
0
0
VERTEX
8
Halfen
62
7
10
 353.732
20
 79.565
30
0
0
VERTEX
8
Halfen
62
7
10
 352.954
20
 78.846
30
0
0
VERTEX
8
Halfen
62
7
10
 352.235
20
 78.068
30
0
0
VERTEX
8
Halfen
62
7
10
 351.578
20
 77.235
30
0
0
VERTEX
8
Halfen
62
7
10
 350.989
20
 76.354
30
0
0
VERTEX
8
Halfen
62
7
10
 350.471
20
 75.429
30
0
0
VERTEX
8
Halfen
62
7
10
 350.028
20
 74.466
30
0
0
VERTEX
8
Halfen
62
7
10
 349.661
20
 73.472
30
0
0
VERTEX
8
Halfen
62
7
10
 349.373
20
 72.452
30
0
0
VERTEX
8
Halfen
62
7
10
 349.166
20
 71.412
30
0
0
VERTEX
8
Halfen
62
7
10
 349.042
20
 70.359
30
0
0
VERTEX
8
Halfen
62
7
10
 349
20
 69.3
30
0
0
VERTEX
8
Halfen
62
7
10
 349
20
-56.8
30
0
0
VERTEX
8
Halfen
62
7
10
 349
20
-69.3
30
0
0
VERTEX
8
Halfen
62
7
10
 349.042
20
-70.359
30
0
0
VERTEX
8
Halfen
62
7
10
 349.166
20
-71.412
30
0
0
VERTEX
8
Halfen
62
7
10
 349.373
20
-72.452
30
0
0
VERTEX
8
Halfen
62
7
10
 349.661
20
-73.472
30
0
0
VERTEX
8
Halfen
62
7
10
 350.028
20
-74.466
30
0
0
VERTEX
8
Halfen
62
7
10
 350.471
20
-75.429
30
0
0
VERTEX
8
Halfen
62
7
10
 350.989
20
-76.354
30
0
0
VERTEX
8
Halfen
62
7
10
 351.578
20
-77.235
30
0
0
VERTEX
8
Halfen
62
7
10
 352.235
20
-78.068
30
0
0
VERTEX
8
Halfen
62
7
10
 352.954
20
-78.846
30
0
0
VERTEX
8
Halfen
62
7
10
 353.732
20
-79.565
30
0
0
VERTEX
8
Halfen
62
7
10
 354.565
20
-80.222
30
0
0
VERTEX
8
Halfen
62
7
10
 355.446
20
-80.811
30
0
0
VERTEX
8
Halfen
62
7
10
 356.371
20
-81.329
30
0
0
VERTEX
8
Halfen
62
7
10
 357.334
20
-81.772
30
0
0
VERTEX
8
Halfen
62
7
10
 358.328
20
-82.139
30
0
0
VERTEX
8
Halfen
62
7
10
 359.348
20
-82.427
30
0
0
VERTEX
8
Halfen
62
7
10
 360.388
20
-82.634
30
0
0
VERTEX
8
Halfen
62
7
10
 361.441
20
-82.758
30
0
0
VERTEX
8
Halfen
62
7
10
 362.5
20
-82.8
30
0
0
VERTEX
8
Halfen
62
7
10
 365.5
20
-82.8
30
0
0
VERTEX
8
Halfen
62
7
10
 366.559
20
-82.758
30
0
0
VERTEX
8
Halfen
62
7
10
 367.612
20
-82.634
30
0
0
VERTEX
8
Halfen
62
7
10
 368.652
20
-82.427
30
0
0
VERTEX
8
Halfen
62
7
10
 369.672
20
-82.139
30
0
0
VERTEX
8
Halfen
62
7
10
 370.666
20
-81.772
30
0
0
VERTEX
8
Halfen
62
7
10
 371.629
20
-81.329
30
0
0
VERTEX
8
Halfen
62
7
10
 372.554
20
-80.811
30
0
0
VERTEX
8
Halfen
62
7
10
 373.435
20
-80.222
30
0
0
VERTEX
8
Halfen
62
7
10
 374.268
20
-79.565
30
0
0
VERTEX
8
Halfen
62
7
10
 375.046
20
-78.846
30
0
0
VERTEX
8
Halfen
62
7
10
 375.765
20
-78.068
30
0
0
VERTEX
8
Halfen
62
7
10
 376.422
20
-77.235
30
0
0
VERTEX
8
Halfen
62
7
10
 377.011
20
-76.354
30
0
0
VERTEX
8
Halfen
62
7
10
 377.529
20
-75.429
30
0
0
VERTEX
8
Halfen
62
7
10
 377.972
20
-74.466
30
0
0
VERTEX
8
Halfen
62
7
10
 378.339
20
-73.472
30
0
0
VERTEX
8
Halfen
62
7
10
 378.627
20
-72.452
30
0
0
VERTEX
8
Halfen
62
7
10
 378.834
20
-71.412
30
0
0
VERTEX
8
Halfen
62
7
10
 378.958
20
-70.359
30
0
0
VERTEX
8
Halfen
62
7
10
 379
20
-69.3
30
0
0
SEQEND
8
Halfen
0
POLYLINE
8
Halfen
62
7
66
1
10
0.0
20
0.0
30
0.0
70
1
0
VERTEX
8
Halfen
62
7
10
 651
20
-69.3
30
0
0
VERTEX
8
Halfen
62
7
10
 651
20
-56.8
30
0
0
VERTEX
8
Halfen
62
7
10
 651
20
 69.3
30
0
0
VERTEX
8
Halfen
62
7
10
 650.958
20
 70.359
30
0
0
VERTEX
8
Halfen
62
7
10
 650.834
20
 71.412
30
0
0
VERTEX
8
Halfen
62
7
10
 650.627
20
 72.452
30
0
0
VERTEX
8
Halfen
62
7
10
 650.339
20
 73.472
30
0
0
VERTEX
8
Halfen
62
7
10
 649.972
20
 74.466
30
0
0
VERTEX
8
Halfen
62
7
10
 649.529
20
 75.429
30
0
0
VERTEX
8
Halfen
62
7
10
 649.011
20
 76.354
30
0
0
VERTEX
8
Halfen
62
7
10
 648.422
20
 77.235
30
0
0
VERTEX
8
Halfen
62
7
10
 647.765
20
 78.068
30
0
0
VERTEX
8
Halfen
62
7
10
 647.046
20
 78.846
30
0
0
VERTEX
8
Halfen
62
7
10
 646.268
20
 79.565
30
0
0
VERTEX
8
Halfen
62
7
10
 645.435
20
 80.222
30
0
0
VERTEX
8
Halfen
62
7
10
 644.554
20
 80.811
30
0
0
VERTEX
8
Halfen
62
7
10
 643.629
20
 81.329
30
0
0
VERTEX
8
Halfen
62
7
10
 642.666
20
 81.772
30
0
0
VERTEX
8
Halfen
62
7
10
 641.672
20
 82.139
30
0
0
VERTEX
8
Halfen
62
7
10
 640.652
20
 82.427
30
0
0
VERTEX
8
Halfen
62
7
10
 639.612
20
 82.634
30
0
0
VERTEX
8
Halfen
62
7
10
 638.559
20
 82.758
30
0
0
VERTEX
8
Halfen
62
7
10
 637.5
20
 82.8
30
0
0
VERTEX
8
Halfen
62
7
10
 634.5
20
 82.8
30
0
0
VERTEX
8
Halfen
62
7
10
 633.441
20
 82.758
30
0
0
VERTEX
8
Halfen
62
7
10
 632.388
20
 82.634
30
0
0
VERTEX
8
Halfen
62
7
10
 631.348
20
 82.427
30
0
0
VERTEX
8
Halfen
62
7
10
 630.328
20
 82.139
30
0
0
VERTEX
8
Halfen
62
7
10
 629.334
20
 81.772
30
0
0
VERTEX
8
Halfen
62
7
10
 628.371
20
 81.329
30
0
0
VERTEX
8
Halfen
62
7
10
 627.446
20
 80.811
30
0
0
VERTEX
8
Halfen
62
7
10
 626.565
20
 80.222
30
0
0
VERTEX
8
Halfen
62
7
10
 625.732
20
 79.565
30
0
0
VERTEX
8
Halfen
62
7
10
 624.954
20
 78.846
30
0
0
VERTEX
8
Halfen
62
7
10
 624.235
20
 78.068
30
0
0
VERTEX
8
Halfen
62
7
10
 623.578
20
 77.235
30
0
0
VERTEX
8
Halfen
62
7
10
 622.989
20
 76.354
30
0
0
VERTEX
8
Halfen
62
7
10
 622.471
20
 75.429
30
0
0
VERTEX
8
Halfen
62
7
10
 622.028
20
 74.466
30
0
0
VERTEX
8
Halfen
62
7
10
 621.661
20
 73.472
30
0
0
VERTEX
8
Halfen
62
7
10
 621.373
20
 72.452
30
0
0
VERTEX
8
Halfen
62
7
10
 621.166
20
 71.412
30
0
0
VERTEX
8
Halfen
62
7
10
 621.042
20
 70.359
30
0
0
VERTEX
8
Halfen
62
7
10
 621
20
 69.3
30
0
0
VERTEX
8
Halfen
62
7
10
 621
20
-56.8
30
0
0
VERTEX
8
Halfen
62
7
10
 621
20
-69.3
30
0
0
VERTEX
8
Halfen
62
7
10
 621.042
20
-70.359
30
0
0
VERTEX
8
Halfen
62
7
10
 621.166
20
-71.412
30
0
0
VERTEX
8
Halfen
62
7
10
 621.373
20
-72.452
30
0
0
VERTEX
8
Halfen
62
7
10
 621.661
20
-73.472
30
0
0
VERTEX
8
Halfen
62
7
10
 622.028
20
-74.466
30
0
0
VERTEX
8
Halfen
62
7
10
 622.471
20
-75.429
30
0
0
VERTEX
8
Halfen
62
7
10
 622.989
20
-76.354
30
0
0
VERTEX
8
Halfen
62
7
10
 623.578
20
-77.235
30
0
0
VERTEX
8
Halfen
62
7
10
 624.235
20
-78.068
30
0
0
VERTEX
8
Halfen
62
7
10
 624.954
20
-78.846
30
0
0
VERTEX
8
Halfen
62
7
10
 625.732
20
-79.565
30
0
0
VERTEX
8
Halfen
62
7
10
 626.565
20
-80.222
30
0
0
VERTEX
8
Halfen
62
7
10
 627.446
20
-80.811
30
0
0
VERTEX
8
Halfen
62
7
10
 628.371
20
-81.329
30
0
0
VERTEX
8
Halfen
62
7
10
 629.334
20
-81.772
30
0
0
VERTEX
8
Halfen
62
7
10
 630.328
20
-82.139
30
0
0
VERTEX
8
Halfen
62
7
10
 631.348
20
-82.427
30
0
0
VERTEX
8
Halfen
62
7
10
 632.388
20
-82.634
30
0
0
VERTEX
8
Halfen
62
7
10
 633.441
20
-82.758
30
0
0
VERTEX
8
Halfen
62
7
10
 634.5
20
-82.8
30
0
0
VERTEX
8
Halfen
62
7
10
 637.5
20
-82.8
30
0
0
VERTEX
8
Halfen
62
7
10
 638.559
20
-82.758
30
0
0
VERTEX
8
Halfen
62
7
10
 639.612
20
-82.634
30
0
0
VERTEX
8
Halfen
62
7
10
 640.652
20
-82.427
30
0
0
VERTEX
8
Halfen
62
7
10
 641.672
20
-82.139
30
0
0
VERTEX
8
Halfen
62
7
10
 642.666
20
-81.772
30
0
0
VERTEX
8
Halfen
62
7
10
 643.629
20
-81.329
30
0
0
VERTEX
8
Halfen
62
7
10
 644.554
20
-80.811
30
0
0
VERTEX
8
Halfen
62
7
10
 645.435
20
-80.222
30
0
0
VERTEX
8
Halfen
62
7
10
 646.268
20
-79.565
30
0
0
VERTEX
8
Halfen
62
7
10
 647.046
20
-78.846
30
0
0
VERTEX
8
Halfen
62
7
10
 647.765
20
-78.068
30
0
0
VERTEX
8
Halfen
62
7
10
 648.422
20
-77.235
30
0
0
VERTEX
8
Halfen
62
7
10
 649.011
20
-76.354
30
0
0
VERTEX
8
Halfen
62
7
10
 649.529
20
-75.429
30
0
0
VERTEX
8
Halfen
62
7
10
 649.972
20
-74.466
30
0
0
VERTEX
8
Halfen
62
7
10
 650.339
20
-73.472
30
0
0
VERTEX
8
Halfen
62
7
10
 650.627
20
-72.452
30
0
0
VERTEX
8
Halfen
62
7
10
 650.834
20
-71.412
30
0
0
VERTEX
8
Halfen
62
7
10
 650.958
20
-70.359
30
0
0
VERTEX
8
Halfen
62
7
10
 651
20
-69.3
30
0
0
SEQEND
8
Halfen
0
POLYLINE
8
Halfen
62
7
66
1
10
0.0
20
0.0
30
0.0
70
1
0
VERTEX
8
Halfen
62
7
10
 765
20
-69.3
30
0
0
VERTEX
8
Halfen
62
7
10
 765
20
-56.8
30
0
0
VERTEX
8
Halfen
62
7
10
 765
20
 69.3
30
0
0
VERTEX
8
Halfen
62
7
10
 764.958
20
 70.359
30
0
0
VERTEX
8
Halfen
62
7
10
 764.834
20
 71.412
30
0
0
VERTEX
8
Halfen
62
7
10
 764.627
20
 72.452
30
0
0
VERTEX
8
Halfen
62
7
10
 764.339
20
 73.472
30
0
0
VERTEX
8
Halfen
62
7
10
 763.972
20
 74.466
30
0
0
VERTEX
8
Halfen
62
7
10
 763.529
20
 75.429
30
0
0
VERTEX
8
Halfen
62
7
10
 763.011
20
 76.354
30
0
0
VERTEX
8
Halfen
62
7
10
 762.422
20
 77.235
30
0
0
VERTEX
8
Halfen
62
7
10
 761.765
20
 78.068
30
0
0
VERTEX
8
Halfen
62
7
10
 761.046
20
 78.846
30
0
0
VERTEX
8
Halfen
62
7
10
 760.268
20
 79.565
30
0
0
VERTEX
8
Halfen
62
7
10
 759.435
20
 80.222
30
0
0
VERTEX
8
Halfen
62
7
10
 758.554
20
 80.811
30
0
0
VERTEX
8
Halfen
62
7
10
 757.629
20
 81.329
30
0
0
VERTEX
8
Halfen
62
7
10
 756.666
20
 81.772
30
0
0
VERTEX
8
Halfen
62
7
10
 755.672
20
 82.139
30
0
0
VERTEX
8
Halfen
62
7
10
 754.652
20
 82.427
30
0
0
VERTEX
8
Halfen
62
7
10
 753.612
20
 82.634
30
0
0
VERTEX
8
Halfen
62
7
10
 752.559
20
 82.758
30
0
0
VERTEX
8
Halfen
62
7
10
 751.5
20
 82.8
30
0
0
VERTEX
8
Halfen
62
7
10
 748.5
20
 82.8
30
0
0
VERTEX
8
Halfen
62
7
10
 747.441
20
 82.758
30
0
0
VERTEX
8
Halfen
62
7
10
 746.388
20
 82.634
30
0
0
VERTEX
8
Halfen
62
7
10
 745.348
20
 82.427
30
0
0
VERTEX
8
Halfen
62
7
10
 744.328
20
 82.139
30
0
0
VERTEX
8
Halfen
62
7
10
 743.334
20
 81.772
30
0
0
VERTEX
8
Halfen
62
7
10
 742.371
20
 81.329
30
0
0
VERTEX
8
Halfen
62
7
10
 741.446
20
 80.811
30
0
0
VERTEX
8
Halfen
62
7
10
 740.565
20
 80.222
30
0
0
VERTEX
8
Halfen
62
7
10
 739.732
20
 79.565
30
0
0
VERTEX
8
Halfen
62
7
10
 738.954
20
 78.846
30
0
0
VERTEX
8
Halfen
62
7
10
 738.235
20
 78.068
30
0
0
VERTEX
8
Halfen
62
7
10
 737.578
20
 77.235
30
0
0
VERTEX
8
Halfen
62
7
10
 736.989
20
 76.354
30
0
0
VERTEX
8
Halfen
62
7
10
 736.471
20
 75.429
30
0
0
VERTEX
8
Halfen
62
7
10
 736.028
20
 74.466
30
0
0
VERTEX
8
Halfen
62
7
10
 735.661
20
 73.472
30
0
0
VERTEX
8
Halfen
62
7
10
 735.373
20
 72.452
30
0
0
VERTEX
8
Halfen
62
7
10
 735.166
20
 71.412
30
0
0
VERTEX
8
Halfen
62
7
10
 735.042
20
 70.359
30
0
0
VERTEX
8
Halfen
62
7
10
 735
20
 69.3
30
0
0
VERTEX
8
Halfen
62
7
10
 735
20
-56.8
30
0
0
VERTEX
8
Halfen
62
7
10
 735
20
-69.3
30
0
0
VERTEX
8
Halfen
62
7
10
 735.042
20
-70.359
30
0
0
VERTEX
8
Halfen
62
7
10
 735.166
20
-71.412
30
0
0
VERTEX
8
Halfen
62
7
10
 735.373
20
-72.452
30
0
0
VERTEX
8
Halfen
62
7
10
 735.661
20
-73.472
30
0
0
VERTEX
8
Halfen
62
7
10
 736.028
20
-74.466
30
0
0
VERTEX
8
Halfen
62
7
10
 736.471
20
-75.429
30
0
0
VERTEX
8
Halfen
62
7
10
 736.989
20
-76.354
30
0
0
VERTEX
8
Halfen
62
7
10
 737.578
20
-77.235
30
0
0
VERTEX
8
Halfen
62
7
10
 738.235
20
-78.068
30
0
0
VERTEX
8
Halfen
62
7
10
 738.954
20
-78.846
30
0
0
VERTEX
8
Halfen
62
7
10
 739.732
20
-79.565
30
0
0
VERTEX
8
Halfen
62
7
10
 740.565
20
-80.222
30
0
0
VERTEX
8
Halfen
62
7
10
 741.446
20
-80.811
30
0
0
VERTEX
8
Halfen
62
7
10
 742.371
20
-81.329
30
0
0
VERTEX
8
Halfen
62
7
10
 743.334
20
-81.772
30
0
0
VERTEX
8
Halfen
62
7
10
 744.328
20
-82.139
30
0
0
VERTEX
8
Halfen
62
7
10
 745.348
20
-82.427
30
0
0
VERTEX
8
Halfen
62
7
10
 746.388
20
-82.634
30
0
0
VERTEX
8
Halfen
62
7
10
 747.441
20
-82.758
30
0
0
VERTEX
8
Halfen
62
7
10
 748.5
20
-82.8
30
0
0
VERTEX
8
Halfen
62
7
10
 751.5
20
-82.8
30
0
0
VERTEX
8
Halfen
62
7
10
 752.559
20
-82.758
30
0
0
VERTEX
8
Halfen
62
7
10
 753.612
20
-82.634
30
0
0
VERTEX
8
Halfen
62
7
10
 754.652
20
-82.427
30
0
0
VERTEX
8
Halfen
62
7
10
 755.672
20
-82.139
30
0
0
VERTEX
8
Halfen
62
7
10
 756.666
20
-81.772
30
0
0
VERTEX
8
Halfen
62
7
10
 757.629
20
-81.329
30
0
0
VERTEX
8
Halfen
62
7
10
 758.554
20
-80.811
30
0
0
VERTEX
8
Halfen
62
7
10
 759.435
20
-80.222
30
0
0
VERTEX
8
Halfen
62
7
10
 760.268
20
-79.565
30
0
0
VERTEX
8
Halfen
62
7
10
 761.046
20
-78.846
30
0
0
VERTEX
8
Halfen
62
7
10
 761.765
20
-78.068
30
0
0
VERTEX
8
Halfen
62
7
10
 762.422
20
-77.235
30
0
0
VERTEX
8
Halfen
62
7
10
 763.011
20
-76.354
30
0
0
VERTEX
8
Halfen
62
7
10
 763.529
20
-75.429
30
0
0
VERTEX
8
Halfen
62
7
10
 763.972
20
-74.466
30
0
0
VERTEX
8
Halfen
62
7
10
 764.339
20
-73.472
30
0
0
VERTEX
8
Halfen
62
7
10
 764.627
20
-72.452
30
0
0
VERTEX
8
Halfen
62
7
10
 764.834
20
-71.412
30
0
0
VERTEX
8
Halfen
62
7
10
 764.958
20
-70.359
30
0
0
VERTEX
8
Halfen
62
7
10
 765
20
-69.3
30
0
0
SEQEND
8
Halfen
0
POLYLINE
8
Halfen
62
7
66
1
10
0.0
20
0.0
30
0.0
70
1
0
VERTEX
8
Halfen
62
7
10
 879
20
-69.3
30
0
0
VERTEX
8
Halfen
62
7
10
 879
20
-56.8
30
0
0
VERTEX
8
Halfen
62
7
10
 879
20
 69.3
30
0
0
VERTEX
8
Halfen
62
7
10
 878.958
20
 70.359
30
0
0
VERTEX
8
Halfen
62
7
10
 878.834
20
 71.412
30
0
0
VERTEX
8
Halfen
62
7
10
 878.627
20
 72.452
30
0
0
VERTEX
8
Halfen
62
7
10
 878.339
20
 73.472
30
0
0
VERTEX
8
Halfen
62
7
10
 877.972
20
 74.466
30
0
0
VERTEX
8
Halfen
62
7
10
 877.529
20
 75.429
30
0
0
VERTEX
8
Halfen
62
7
10
 877.011
20
 76.354
30
0
0
VERTEX
8
Halfen
62
7
10
 876.422
20
 77.235
30
0
0
VERTEX
8
Halfen
62
7
10
 875.765
20
 78.068
30
0
0
VERTEX
8
Halfen
62
7
10
 875.046
20
 78.846
30
0
0
VERTEX
8
Halfen
62
7
10
 874.268
20
 79.565
30
0
0
VERTEX
8
Halfen
62
7
10
 873.435
20
 80.222
30
0
0
VERTEX
8
Halfen
62
7
10
 872.554
20
 80.811
30
0
0
VERTEX
8
Halfen
62
7
10
 871.629
20
 81.329
30
0
0
VERTEX
8
Halfen
62
7
10
 870.666
20
 81.772
30
0
0
VERTEX
8
Halfen
62
7
10
 869.672
20
 82.139
30
0
0
VERTEX
8
Halfen
62
7
10
 868.652
20
 82.427
30
0
0
VERTEX
8
Halfen
62
7
10
 867.612
20
 82.634
30
0
0
VERTEX
8
Halfen
62
7
10
 866.559
20
 82.758
30
0
0
VERTEX
8
Halfen
62
7
10
 865.5
20
 82.8
30
0
0
VERTEX
8
Halfen
62
7
10
 862.5
20
 82.8
30
0
0
VERTEX
8
Halfen
62
7
10
 861.441
20
 82.758
30
0
0
VERTEX
8
Halfen
62
7
10
 860.388
20
 82.634
30
0
0
VERTEX
8
Halfen
62
7
10
 859.348
20
 82.427
30
0
0
VERTEX
8
Halfen
62
7
10
 858.328
20
 82.139
30
0
0
VERTEX
8
Halfen
62
7
10
 857.334
20
 81.772
30
0
0
VERTEX
8
Halfen
62
7
10
 856.371
20
 81.329
30
0
0
VERTEX
8
Halfen
62
7
10
 855.446
20
 80.811
30
0
0
VERTEX
8
Halfen
62
7
10
 854.565
20
 80.222
30
0
0
VERTEX
8
Halfen
62
7
10
 853.732
20
 79.565
30
0
0
VERTEX
8
Halfen
62
7
10
 852.954
20
 78.846
30
0
0
VERTEX
8
Halfen
62
7
10
 852.235
20
 78.068
30
0
0
VERTEX
8
Halfen
62
7
10
 851.578
20
 77.235
30
0
0
VERTEX
8
Halfen
62
7
10
 850.989
20
 76.354
30
0
0
VERTEX
8
Halfen
62
7
10
 850.471
20
 75.429
30
0
0
VERTEX
8
Halfen
62
7
10
 850.028
20
 74.466
30
0
0
VERTEX
8
Halfen
62
7
10
 849.661
20
 73.472
30
0
0
VERTEX
8
Halfen
62
7
10
 849.373
20
 72.452
30
0
0
VERTEX
8
Halfen
62
7
10
 849.166
20
 71.412
30
0
0
VERTEX
8
Halfen
62
7
10
 849.042
20
 70.359
30
0
0
VERTEX
8
Halfen
62
7
10
 849
20
 69.3
30
0
0
VERTEX
8
Halfen
62
7
10
 849
20
-56.8
30
0
0
VERTEX
8
Halfen
62
7
10
 849
20
-69.3
30
0
0
VERTEX
8
Halfen
62
7
10
 849.042
20
-70.359
30
0
0
VERTEX
8
Halfen
62
7
10
 849.166
20
-71.412
30
0
0
VERTEX
8
Halfen
62
7
10
 849.373
20
-72.452
30
0
0
VERTEX
8
Halfen
62
7
10
 849.661
20
-73.472
30
0
0
VERTEX
8
Halfen
62
7
10
 850.028
20
-74.466
30
0
0
VERTEX
8
Halfen
62
7
10
 850.471
20
-75.429
30
0
0
VERTEX
8
Halfen
62
7
10
 850.989
20
-76.354
30
0
0
VERTEX
8
Halfen
62
7
10
 851.578
20
-77.235
30
0
0
VERTEX
8
Halfen
62
7
10
 852.235
20
-78.068
30
0
0
VERTEX
8
Halfen
62
7
10
 852.954
20
-78.846
30
0
0
VERTEX
8
Halfen
62
7
10
 853.732
20
-79.565
30
0
0
VERTEX
8
Halfen
62
7
10
 854.565
20
-80.222
30
0
0
VERTEX
8
Halfen
62
7
10
 855.446
20
-80.811
30
0
0
VERTEX
8
Halfen
62
7
10
 856.371
20
-81.329
30
0
0
VERTEX
8
Halfen
62
7
10
 857.334
20
-81.772
30
0
0
VERTEX
8
Halfen
62
7
10
 858.328
20
-82.139
30
0
0
VERTEX
8
Halfen
62
7
10
 859.348
20
-82.427
30
0
0
VERTEX
8
Halfen
62
7
10
 860.388
20
-82.634
30
0
0
VERTEX
8
Halfen
62
7
10
 861.441
20
-82.758
30
0
0
VERTEX
8
Halfen
62
7
10
 862.5
20
-82.8
30
0
0
VERTEX
8
Halfen
62
7
10
 865.5
20
-82.8
30
0
0
VERTEX
8
Halfen
62
7
10
 866.559
20
-82.758
30
0
0
VERTEX
8
Halfen
62
7
10
 867.612
20
-82.634
30
0
0
VERTEX
8
Halfen
62
7
10
 868.652
20
-82.427
30
0
0
VERTEX
8
Halfen
62
7
10
 869.672
20
-82.139
30
0
0
VERTEX
8
Halfen
62
7
10
 870.666
20
-81.772
30
0
0
VERTEX
8
Halfen
62
7
10
 871.629
20
-81.329
30
0
0
VERTEX
8
Halfen
62
7
10
 872.554
20
-80.811
30
0
0
VERTEX
8
Halfen
62
7
10
 873.435
20
-80.222
30
0
0
VERTEX
8
Halfen
62
7
10
 874.268
20
-79.565
30
0
0
VERTEX
8
Halfen
62
7
10
 875.046
20
-78.846
30
0
0
VERTEX
8
Halfen
62
7
10
 875.765
20
-78.068
30
0
0
VERTEX
8
Halfen
62
7
10
 876.422
20
-77.235
30
0
0
VERTEX
8
Halfen
62
7
10
 877.011
20
-76.354
30
0
0
VERTEX
8
Halfen
62
7
10
 877.529
20
-75.429
30
0
0
VERTEX
8
Halfen
62
7
10
 877.972
20
-74.466
30
0
0
VERTEX
8
Halfen
62
7
10
 878.339
20
-73.472
30
0
0
VERTEX
8
Halfen
62
7
10
 878.627
20
-72.452
30
0
0
VERTEX
8
Halfen
62
7
10
 878.834
20
-71.412
30
0
0
VERTEX
8
Halfen
62
7
10
 878.958
20
-70.359
30
0
0
VERTEX
8
Halfen
62
7
10
 879
20
-69.3
30
0
0
SEQEND
8
Halfen
0
POLYLINE
8
Halfen
62
7
66
1
10
0.0
20
0.0
30
0.0
70
1
0
VERTEX
8
Halfen
62
7
10
 90
20
-819.914
30
0
0
VERTEX
8
Halfen
62
7
10
 90
20
 823.254
30
0
0
VERTEX
8
Halfen
62
7
10
 78
20
 823.254
30
0
0
VERTEX
8
Halfen
62
7
10
 78
20
-819.914
30
0
0
SEQEND
8
Halfen
0
POLYLINE
8
Halfen
62
7
66
1
10
0.0
20
0.0
30
0.0
70
1
0
VERTEX
8
Halfen
62
7
10
 205
20
-819.914
30
0
0
VERTEX
8
Halfen
62
7
10
 205
20
 823.254
30
0
0
VERTEX
8
Halfen
62
7
10
 193
20
 823.254
30
0
0
VERTEX
8
Halfen
62
7
10
 193
20
-819.914
30
0
0
SEQEND
8
Halfen
0
POLYLINE
8
Halfen
62
7
66
1
10
0.0
20
0.0
30
0.0
70
1
0
VERTEX
8
Halfen
62
7
10
 319
20
-819.914
30
0
0
VERTEX
8
Halfen
62
7
10
 319
20
 823.254
30
0
0
VERTEX
8
Halfen
62
7
10
 307
20
 823.254
30
0
0
VERTEX
8
Halfen
62
7
10
 307
20
-819.914
30
0
0
SEQEND
8
Halfen
0
POLYLINE
8
Halfen
62
7
66
1
10
0.0
20
0.0
30
0.0
70
1
0
VERTEX
8
Halfen
62
7
10
 434
20
-819.914
30
0
0
VERTEX
8
Halfen
62
7
10
 434
20
 823.254
30
0
0
VERTEX
8
Halfen
62
7
10
 422
20
 823.254
30
0
0
VERTEX
8
Halfen
62
7
10
 422
20
-819.914
30
0
0
SEQEND
8
Halfen
0
POLYLINE
8
Halfen
62
7
66
1
10
0.0
20
0.0
30
0.0
70
1
0
VERTEX
8
Halfen
62
7
10
 590
20
-819.914
30
0
0
VERTEX
8
Halfen
62
7
10
 590
20
 823.254
30
0
0
VERTEX
8
Halfen
62
7
10
 578
20
 823.254
30
0
0
VERTEX
8
Halfen
62
7
10
 578
20
-819.914
30
0
0
SEQEND
8
Halfen
0
POLYLINE
8
Halfen
62
7
66
1
10
0.0
20
0.0
30
0.0
70
1
0
VERTEX
8
Halfen
62
7
10
 705
20
-819.914
30
0
0
VERTEX
8
Halfen
62
7
10
 705
20
 823.254
30
0
0
VERTEX
8
Halfen
62
7
10
 693
20
 823.254
30
0
0
VERTEX
8
Halfen
62
7
10
 693
20
-819.914
30
0
0
SEQEND
8
Halfen
0
POLYLINE
8
Halfen
62
7
66
1
10
0.0
20
0.0
30
0.0
70
1
0
VERTEX
8
Halfen
62
7
10
 819
20
-819.914
30
0
0
VERTEX
8
Halfen
62
7
10
 819
20
 823.254
30
0
0
VERTEX
8
Halfen
62
7
10
 807
20
 823.254
30
0
0
VERTEX
8
Halfen
62
7
10
 807
20
-819.914
30
0
0
SEQEND
8
Halfen
0
POLYLINE
8
Halfen
62
7
66
1
10
0.0
20
0.0
30
0.0
70
1
0
VERTEX
8
Halfen
62
7
10
 934
20
-819.914
30
0
0
VERTEX
8
Halfen
62
7
10
 934
20
 823.254
30
0
0
VERTEX
8
Halfen
62
7
10
 922
20
 823.254
30
0
0
VERTEX
8
Halfen
62
7
10
 922
20
-819.914
30
0
0
SEQEND
8
Halfen
0
POLYLINE
8
Halfen
62
7
66
1
10
0.0
20
0.0
30
0.0
70
1
0
VERTEX
8
Halfen
62
7
10
 1400
20
-60
30
0
0
VERTEX
8
Halfen
62
7
10
 1400
20
 60
30
0
0
VERTEX
8
Halfen
62
7
10
 1386.5
20
 73.5
30
0
0
VERTEX
8
Halfen
62
7
10
 1386.5
20
 60
30
0
0
VERTEX
8
Halfen
62
7
10
 1250
20
 60
30
0
0
VERTEX
8
Halfen
62
7
10
 1250
20
-60
30
0
0
VERTEX
8
Halfen
62
7
10
 1386.5
20
-60
30
0
0
VERTEX
8
Halfen
62
7
10
 1386.5
20
-73.5
30
0
0
SEQEND
8
Halfen
0
POLYLINE
8
Halfen
62
7
66
1
10
0.0
20
0.0
30
0.0
70
1
0
VERTEX
8
Halfen
62
7
10
 1250
20
-60
30
0
0
VERTEX
8
Halfen
62
7
10
 1250
20
 60
30
0
0
VERTEX
8
Halfen
62
7
10
 1213.5
20
 60
30
0
0
VERTEX
8
Halfen
62
7
10
 1213.5
20
 73.5
30
0
0
VERTEX
8
Halfen
62
7
10
 1200
20
 60
30
0
0
VERTEX
8
Halfen
62
7
10
 1200
20
-60
30
0
0
VERTEX
8
Halfen
62
7
10
 1213.5
20
-73.5
30
0
0
VERTEX
8
Halfen
62
7
10
 1213.5
20
-60
30
0
0
SEQEND
8
Halfen
0
POLYLINE
8
Halfen
62
7
66
1
10
0.0
20
0.0
30
0.0
70
1
0
VERTEX
8
Halfen
62
7
10
 1397.5
20
-58.75
30
0
0
VERTEX
8
Halfen
62
7
10
 1397.5
20
 58.75
30
0
0
VERTEX
8
Halfen
62
7
10
 1389
20
 67.25
30
0
0
VERTEX
8
Halfen
62
7
10
 1389
20
 58
30
0
0
VERTEX
8
Halfen
62
7
10
 1252
20
 58
30
0
0
VERTEX
8
Halfen
62
7
10
 1252
20
-58
30
0
0
VERTEX
8
Halfen
62
7
10
 1389
20
-58
30
0
0
VERTEX
8
Halfen
62
7
10
 1389
20
-67.25
30
0
0
SEQEND
8
Halfen
0
POLYLINE
8
Halfen
62
7
66
1
10
0.0
20
0.0
30
0.0
70
1
0
VERTEX
8
Halfen
62
7
10
 1248
20
-58
30
0
0
VERTEX
8
Halfen
62
7
10
 1248
20
 58
30
0
0
VERTEX
8
Halfen
62
7
10
 1211
20
 58
30
0
0
VERTEX
8
Halfen
62
7
10
 1211
20
 67.25
30
0
0
VERTEX
8
Halfen
62
7
10
 1202.5
20
 58.75
30
0
0
VERTEX
8
Halfen
62
7
10
 1202.5
20
-58.75
30
0
0
VERTEX
8
Halfen
62
7
10
 1211
20
-67.25
30
0
0
VERTEX
8
Halfen
62
7
10
 1211
20
-58
30
0
0
SEQEND
8
Halfen
0
POLYLINE
8
Halfen
62
7
66
1
10
0.0
20
0.0
30
0.0
70
1
0
VERTEX
8
Halfen
62
7
10
 1385
20
-81.8
30
0
0
VERTEX
8
Halfen
62
7
10
 1385
20
 81.8
30
0
0
VERTEX
8
Halfen
62
7
10
 1381
20
 81.8
30
0
0
VERTEX
8
Halfen
62
7
10
 1380.846
20
 81.797
30
0
0
VERTEX
8
Halfen
62
7
10
 1380.691
20
 81.786
30
0
0
VERTEX
8
Halfen
62
7
10
 1380.538
20
 81.769
30
0
0
VERTEX
8
Halfen
62
7
10
 1380.385
20
 81.746
30
0
0
VERTEX
8
Halfen
62
7
10
 1380.234
20
 81.715
30
0
0
VERTEX
8
Halfen
62
7
10
 1380.084
20
 81.678
30
0
0
VERTEX
8
Halfen
62
7
10
 1379.936
20
 81.634
30
0
0
VERTEX
8
Halfen
62
7
10
 1379.789
20
 81.584
30
0
0
VERTEX
8
Halfen
62
7
10
 1379.646
20
 81.527
30
0
0
VERTEX
8
Halfen
62
7
10
 1379.505
20
 81.464
30
0
0
VERTEX
8
Halfen
62
7
10
 1379.366
20
 81.395
30
0
0
VERTEX
8
Halfen
62
7
10
 1379.231
20
 81.32
30
0
0
VERTEX
8
Halfen
62
7
10
 1379.1
20
 81.239
30
0
0
VERTEX
8
Halfen
62
7
10
 1378.972
20
 81.153
30
0
0
VERTEX
8
Halfen
62
7
10
 1378.848
20
 81.06
30
0
0
VERTEX
8
Halfen
62
7
10
 1378.728
20
 80.963
30
0
0
VERTEX
8
Halfen
62
7
10
 1378.613
20
 80.86
30
0
0
VERTEX
8
Halfen
62
7
10
 1378.502
20
 80.752
30
0
0
VERTEX
8
Halfen
62
7
10
 1378.397
20
 80.639
30
0
0
VERTEX
8
Halfen
62
7
10
 1378.296
20
 80.522
30
0
0
VERTEX
8
Halfen
62
7
10
 1377.41
20
 79.491
30
0
0
VERTEX
8
Halfen
62
7
10
 1376.479
20
 78.5
30
0
0
VERTEX
8
Halfen
62
7
10
 1375.505
20
 77.551
30
0
0
VERTEX
8
Halfen
62
7
10
 1374.491
20
 76.646
30
0
0
VERTEX
8
Halfen
62
7
10
 1373.437
20
 75.787
30
0
0
VERTEX
8
Halfen
62
7
10
 1372.347
20
 74.975
30
0
0
VERTEX
8
Halfen
62
7
10
 1371.222
20
 74.211
30
0
0
VERTEX
8
Halfen
62
7
10
 1370.064
20
 73.499
30
0
0
VERTEX
8
Halfen
62
7
10
 1368.876
20
 72.838
30
0
0
VERTEX
8
Halfen
62
7
10
 1367.66
20
 72.23
30
0
0
VERTEX
8
Halfen
62
7
10
 1366.418
20
 71.676
30
0
0
VERTEX
8
Halfen
62
7
10
 1365.153
20
 71.178
30
0
0
VERTEX
8
Halfen
62
7
10
 1363.867
20
 70.736
30
0
0
VERTEX
8
Halfen
62
7
10
 1362.563
20
 70.351
30
0
0
VERTEX
8
Halfen
62
7
10
 1361.243
20
 70.024
30
0
0
VERTEX
8
Halfen
62
7
10
 1359.911
20
 69.756
30
0
0
VERTEX
8
Halfen
62
7
10
 1358.567
20
 69.547
30
0
0
VERTEX
8
Halfen
62
7
10
 1357.216
20
 69.397
30
0
0
VERTEX
8
Halfen
62
7
10
 1355.859
20
 69.307
30
0
0
VERTEX
8
Halfen
62
7
10
 1354.5
20
 69.277
30
0
0
VERTEX
8
Halfen
62
7
10
 1332.5
20
 69.277
30
0
0
VERTEX
8
Halfen
62
7
10
 1331.141
20
 69.307
30
0
0
VERTEX
8
Halfen
62
7
10
 1329.784
20
 69.397
30
0
0
VERTEX
8
Halfen
62
7
10
 1328.433
20
 69.547
30
0
0
VERTEX
8
Halfen
62
7
10
 1327.089
20
 69.756
30
0
0
VERTEX
8
Halfen
62
7
10
 1325.757
20
 70.024
30
0
0
VERTEX
8
Halfen
62
7
10
 1324.437
20
 70.351
30
0
0
VERTEX
8
Halfen
62
7
10
 1323.133
20
 70.736
30
0
0
VERTEX
8
Halfen
62
7
10
 1321.847
20
 71.178
30
0
0
VERTEX
8
Halfen
62
7
10
 1320.582
20
 71.676
30
0
0
VERTEX
8
Halfen
62
7
10
 1319.34
20
 72.23
30
0
0
VERTEX
8
Halfen
62
7
10
 1318.124
20
 72.838
30
0
0
VERTEX
8
Halfen
62
7
10
 1316.936
20
 73.499
30
0
0
VERTEX
8
Halfen
62
7
10
 1315.778
20
 74.211
30
0
0
VERTEX
8
Halfen
62
7
10
 1314.653
20
 74.975
30
0
0
VERTEX
8
Halfen
62
7
10
 1313.563
20
 75.787
30
0
0
VERTEX
8
Halfen
62
7
10
 1312.509
20
 76.646
30
0
0
VERTEX
8
Halfen
62
7
10
 1311.495
20
 77.551
30
0
0
VERTEX
8
Halfen
62
7
10
 1310.521
20
 78.5
30
0
0
VERTEX
8
Halfen
62
7
10
 1309.59
20
 79.491
30
0
0
VERTEX
8
Halfen
62
7
10
 1308.704
20
 80.522
30
0
0
VERTEX
8
Halfen
62
7
10
 1308.603
20
 80.639
30
0
0
VERTEX
8
Halfen
62
7
10
 1308.498
20
 80.752
30
0
0
VERTEX
8
Halfen
62
7
10
 1308.387
20
 80.86
30
0
0
VERTEX
8
Halfen
62
7
10
 1308.272
20
 80.963
30
0
0
VERTEX
8
Halfen
62
7
10
 1308.152
20
 81.06
30
0
0
VERTEX
8
Halfen
62
7
10
 1308.028
20
 81.153
30
0
0
VERTEX
8
Halfen
62
7
10
 1307.9
20
 81.239
30
0
0
VERTEX
8
Halfen
62
7
10
 1307.769
20
 81.32
30
0
0
VERTEX
8
Halfen
62
7
10
 1307.634
20
 81.395
30
0
0
VERTEX
8
Halfen
62
7
10
 1307.495
20
 81.464
30
0
0
VERTEX
8
Halfen
62
7
10
 1307.354
20
 81.527
30
0
0
VERTEX
8
Halfen
62
7
10
 1307.211
20
 81.584
30
0
0
VERTEX
8
Halfen
62
7
10
 1307.064
20
 81.634
30
0
0
VERTEX
8
Halfen
62
7
10
 1306.916
20
 81.678
30
0
0
VERTEX
8
Halfen
62
7
10
 1306.766
20
 81.715
30
0
0
VERTEX
8
Halfen
62
7
10
 1306.615
20
 81.746
30
0
0
VERTEX
8
Halfen
62
7
10
 1306.462
20
 81.769
30
0
0
VERTEX
8
Halfen
62
7
10
 1306.309
20
 81.786
30
0
0
VERTEX
8
Halfen
62
7
10
 1306.154
20
 81.797
30
0
0
VERTEX
8
Halfen
62
7
10
 1306
20
 81.8
30
0
0
VERTEX
8
Halfen
62
7
10
 1302
20
 81.8
30
0
0
VERTEX
8
Halfen
62
7
10
 1302
20
-81.8
30
0
0
VERTEX
8
Halfen
62
7
10
 1306
20
-81.8
30
0
0
VERTEX
8
Halfen
62
7
10
 1306.154
20
-81.797
30
0
0
VERTEX
8
Halfen
62
7
10
 1306.309
20
-81.786
30
0
0
VERTEX
8
Halfen
62
7
10
 1306.462
20
-81.769
30
0
0
VERTEX
8
Halfen
62
7
10
 1306.615
20
-81.746
30
0
0
VERTEX
8
Halfen
62
7
10
 1306.766
20
-81.715
30
0
0
VERTEX
8
Halfen
62
7
10
 1306.916
20
-81.678
30
0
0
VERTEX
8
Halfen
62
7
10
 1307.064
20
-81.634
30
0
0
VERTEX
8
Halfen
62
7
10
 1307.211
20
-81.584
30
0
0
VERTEX
8
Halfen
62
7
10
 1307.354
20
-81.527
30
0
0
VERTEX
8
Halfen
62
7
10
 1307.495
20
-81.464
30
0
0
VERTEX
8
Halfen
62
7
10
 1307.634
20
-81.395
30
0
0
VERTEX
8
Halfen
62
7
10
 1307.769
20
-81.32
30
0
0
VERTEX
8
Halfen
62
7
10
 1307.9
20
-81.239
30
0
0
VERTEX
8
Halfen
62
7
10
 1308.028
20
-81.153
30
0
0
VERTEX
8
Halfen
62
7
10
 1308.152
20
-81.06
30
0
0
VERTEX
8
Halfen
62
7
10
 1308.272
20
-80.963
30
0
0
VERTEX
8
Halfen
62
7
10
 1308.387
20
-80.86
30
0
0
VERTEX
8
Halfen
62
7
10
 1308.498
20
-80.752
30
0
0
VERTEX
8
Halfen
62
7
10
 1308.603
20
-80.639
30
0
0
VERTEX
8
Halfen
62
7
10
 1308.704
20
-80.522
30
0
0
VERTEX
8
Halfen
62
7
10
 1309.59
20
-79.491
30
0
0
VERTEX
8
Halfen
62
7
10
 1310.521
20
-78.5
30
0
0
VERTEX
8
Halfen
62
7
10
 1311.495
20
-77.551
30
0
0
VERTEX
8
Halfen
62
7
10
 1312.509
20
-76.646
30
0
0
VERTEX
8
Halfen
62
7
10
 1313.563
20
-75.787
30
0
0
VERTEX
8
Halfen
62
7
10
 1314.653
20
-74.975
30
0
0
VERTEX
8
Halfen
62
7
10
 1315.778
20
-74.211
30
0
0
VERTEX
8
Halfen
62
7
10
 1316.936
20
-73.499
30
0
0
VERTEX
8
Halfen
62
7
10
 1318.124
20
-72.838
30
0
0
VERTEX
8
Halfen
62
7
10
 1319.34
20
-72.23
30
0
0
VERTEX
8
Halfen
62
7
10
 1320.582
20
-71.676
30
0
0
VERTEX
8
Halfen
62
7
10
 1321.847
20
-71.178
30
0
0
VERTEX
8
Halfen
62
7
10
 1323.133
20
-70.736
30
0
0
VERTEX
8
Halfen
62
7
10
 1324.437
20
-70.351
30
0
0
VERTEX
8
Halfen
62
7
10
 1325.757
20
-70.024
30
0
0
VERTEX
8
Halfen
62
7
10
 1327.089
20
-69.756
30
0
0
VERTEX
8
Halfen
62
7
10
 1328.433
20
-69.547
30
0
0
VERTEX
8
Halfen
62
7
10
 1329.784
20
-69.397
30
0
0
VERTEX
8
Halfen
62
7
10
 1331.141
20
-69.307
30
0
0
VERTEX
8
Halfen
62
7
10
 1332.5
20
-69.277
30
0
0
VERTEX
8
Halfen
62
7
10
 1354.5
20
-69.277
30
0
0
VERTEX
8
Halfen
62
7
10
 1355.859
20
-69.307
30
0
0
VERTEX
8
Halfen
62
7
10
 1357.216
20
-69.397
30
0
0
VERTEX
8
Halfen
62
7
10
 1358.567
20
-69.547
30
0
0
VERTEX
8
Halfen
62
7
10
 1359.911
20
-69.756
30
0
0
VERTEX
8
Halfen
62
7
10
 1361.243
20
-70.024
30
0
0
VERTEX
8
Halfen
62
7
10
 1362.563
20
-70.351
30
0
0
VERTEX
8
Halfen
62
7
10
 1363.867
20
-70.736
30
0
0
VERTEX
8
Halfen
62
7
10
 1365.153
20
-71.178
30
0
0
VERTEX
8
Halfen
62
7
10
 1366.418
20
-71.676
30
0
0
VERTEX
8
Halfen
62
7
10
 1367.66
20
-72.23
30
0
0
VERTEX
8
Halfen
62
7
10
 1368.876
20
-72.838
30
0
0
VERTEX
8
Halfen
62
7
10
 1370.064
20
-73.499
30
0
0
VERTEX
8
Halfen
62
7
10
 1371.222
20
-74.211
30
0
0
VERTEX
8
Halfen
62
7
10
 1372.347
20
-74.975
30
0
0
VERTEX
8
Halfen
62
7
10
 1373.437
20
-75.787
30
0
0
VERTEX
8
Halfen
62
7
10
 1374.491
20
-76.646
30
0
0
VERTEX
8
Halfen
62
7
10
 1375.505
20
-77.551
30
0
0
VERTEX
8
Halfen
62
7
10
 1376.479
20
-78.5
30
0
0
VERTEX
8
Halfen
62
7
10
 1377.41
20
-79.491
30
0
0
VERTEX
8
Halfen
62
7
10
 1378.296
20
-80.522
30
0
0
VERTEX
8
Halfen
62
7
10
 1378.397
20
-80.639
30
0
0
VERTEX
8
Halfen
62
7
10
 1378.502
20
-80.752
30
0
0
VERTEX
8
Halfen
62
7
10
 1378.613
20
-80.86
30
0
0
VERTEX
8
Halfen
62
7
10
 1378.728
20
-80.963
30
0
0
VERTEX
8
Halfen
62
7
10
 1378.848
20
-81.06
30
0
0
VERTEX
8
Halfen
62
7
10
 1378.972
20
-81.153
30
0
0
VERTEX
8
Halfen
62
7
10
 1379.1
20
-81.239
30
0
0
VERTEX
8
Halfen
62
7
10
 1379.231
20
-81.32
30
0
0
VERTEX
8
Halfen
62
7
10
 1379.366
20
-81.395
30
0
0
VERTEX
8
Halfen
62
7
10
 1379.505
20
-81.464
30
0
0
VERTEX
8
Halfen
62
7
10
 1379.646
20
-81.527
30
0
0
VERTEX
8
Halfen
62
7
10
 1379.789
20
-81.584
30
0
0
VERTEX
8
Halfen
62
7
10
 1379.936
20
-81.634
30
0
0
VERTEX
8
Halfen
62
7
10
 1380.084
20
-81.678
30
0
0
VERTEX
8
Halfen
62
7
10
 1380.234
20
-81.715
30
0
0
VERTEX
8
Halfen
62
7
10
 1380.385
20
-81.746
30
0
0
VERTEX
8
Halfen
62
7
10
 1380.538
20
-81.769
30
0
0
VERTEX
8
Halfen
62
7
10
 1380.691
20
-81.786
30
0
0
VERTEX
8
Halfen
62
7
10
 1380.846
20
-81.797
30
0
0
VERTEX
8
Halfen
62
7
10
 1381
20
-81.8
30
0
0
SEQEND
8
Halfen
0
POLYLINE
8
Halfen
62
7
66
1
10
0.0
20
0.0
30
0.0
70
1
0
VERTEX
8
Halfen
62
7
10
 1370
20
-819.914
30
0
0
VERTEX
8
Halfen
62
7
10
 1370
20
-98.785
30
0
0
VERTEX
8
Halfen
62
7
10
 1369.271
20
-90.449
30
0
0
VERTEX
8
Halfen
62
7
10
 1367.105
20
-82.368
30
0
0
VERTEX
8
Halfen
62
7
10
 1363.569
20
-74.785
30
0
0
VERTEX
8
Halfen
62
7
10
 1271.823
20
 84.124
30
0
0
VERTEX
8
Halfen
62
7
10
 1269.171
20
 89.812
30
0
0
VERTEX
8
Halfen
62
7
10
 1267.547
20
 95.873
30
0
0
VERTEX
8
Halfen
62
7
10
 1267
20
 102.124
30
0
0
VERTEX
8
Halfen
62
7
10
 1267
20
 162.254
30
0
0
VERTEX
8
Halfen
62
7
10
 1267
20
 823.254
30
0
0
VERTEX
8
Halfen
62
7
10
 1255
20
 823.254
30
0
0
VERTEX
8
Halfen
62
7
10
 1255
20
 162.254
30
0
0
VERTEX
8
Halfen
62
7
10
 1255
20
 102.124
30
0
0
VERTEX
8
Halfen
62
7
10
 1255.729
20
 93.789
30
0
0
VERTEX
8
Halfen
62
7
10
 1257.895
20
 85.707
30
0
0
VERTEX
8
Halfen
62
7
10
 1261.431
20
 78.124
30
0
0
VERTEX
8
Halfen
62
7
10
 1353.177
20
-80.785
30
0
0
VERTEX
8
Halfen
62
7
10
 1355.829
20
-86.472
30
0
0
VERTEX
8
Halfen
62
7
10
 1357.453
20
-92.533
30
0
0
VERTEX
8
Halfen
62
7
10
 1358
20
-98.785
30
0
0
VERTEX
8
Halfen
62
7
10
 1358
20
-819.914
30
0
0
SEQEND
8
Halfen
0
ENDSEC
0
EOF
