0
SECTION
2
HEADER
9
$EXTMIN
10
 0
20
 100
30
0.0
9
$EXTMAX
10
 0
20
 100
30
0.0
9
$LIMMIN
10
 100
20
 0
9
$LIMMAX
10
 0
20
 100
9
$PSLTSCALE
70
1
0
ENDSEC
0
SECTION
2
TABLES
0
TABLE
2
LAYER
70
2
0
LAYER
2
0
70
0
62
7
6
CONTINUOUS
0
LAYER
2
Halfen
70
0
62
7
6
CONTINUOUS
0
ENDTAB
0
ENDSEC
0
SECTION
2
ENTITIES
0
POLYLINE
8
Halfen
62
7
66
1
10
0.0
20
0.0
30
0.0
70
1
0
VERTEX
8
Halfen
62
7
10
 0
20
-73.5
30
0
0
VERTEX
8
Halfen
62
7
10
 1000
20
-73.5
30
0
0
VERTEX
8
Halfen
62
7
10
 1000
20
 73.5
30
0
0
VERTEX
8
Halfen
62
7
10
 0
20
 73.5
30
0
0
SEQEND
8
Halfen
0
POLYLINE
8
Halfen
62
7
66
1
10
0.0
20
0.0
30
0.0
70
1
0
VERTEX
8
Halfen
62
7
10
 0
20
-60
30
0
0
VERTEX
8
Halfen
62
7
10
 1000
20
-60
30
0
0
VERTEX
8
Halfen
62
7
10
 1000
20
 60
30
0
0
VERTEX
8
Halfen
62
7
10
 0
20
 60
30
0
0
SEQEND
8
Halfen
0
POLYLINE
8
Halfen
62
7
66
1
10
0.0
20
0.0
30
0.0
70
1
0
VERTEX
8
Halfen
62
7
10
 20
20
-32.5
30
0
0
VERTEX
8
Halfen
62
7
10
 37
20
-1.5
30
0
0
VERTEX
8
Halfen
62
7
10
 28
20
-1.5
30
0
0
VERTEX
8
Halfen
62
7
10
 28
20
 32.5
30
0
0
VERTEX
8
Halfen
62
7
10
 12
20
 32.5
30
0
0
VERTEX
8
Halfen
62
7
10
 12
20
-1.5
30
0
0
VERTEX
8
Halfen
62
7
10
 3
20
-1.5
30
0
0
SEQEND
8
Halfen
0
POLYLINE
8
Halfen
62
7
66
1
10
0.0
20
0.0
30
0.0
70
1
0
VERTEX
8
Halfen
62
7
10
 980
20
-32.5
30
0
0
VERTEX
8
Halfen
62
7
10
 997
20
-1.5
30
0
0
VERTEX
8
Halfen
62
7
10
 988
20
-1.5
30
0
0
VERTEX
8
Halfen
62
7
10
 988
20
 32.5
30
0
0
VERTEX
8
Halfen
62
7
10
 972
20
 32.5
30
0
0
VERTEX
8
Halfen
62
7
10
 972
20
-1.5
30
0
0
VERTEX
8
Halfen
62
7
10
 963
20
-1.5
30
0
0
SEQEND
8
Halfen
0
POLYLINE
8
Halfen
62
7
66
1
10
0.0
20
0.0
30
0.0
70
1
0
VERTEX
8
Halfen
62
7
10
 68
20
-775
30
0
0
VERTEX
8
Halfen
62
7
10
 68
20
-160
30
0
0
VERTEX
8
Halfen
62
7
10
 56
20
-160
30
0
0
VERTEX
8
Halfen
62
7
10
 56
20
-775
30
0
0
SEQEND
8
Halfen
0
POLYLINE
8
Halfen
62
7
66
1
10
0.0
20
0.0
30
0.0
70
1
0
VERTEX
8
Halfen
62
7
10
 67.25
20
-160
30
0
0
VERTEX
8
Halfen
62
7
10
 67.25
20
-62
30
0
0
VERTEX
8
Halfen
62
7
10
 56.75
20
-62
30
0
0
VERTEX
8
Halfen
62
7
10
 56.75
20
-160
30
0
0
SEQEND
8
Halfen
0
POLYLINE
8
Halfen
62
7
66
1
10
0.0
20
0.0
30
0.0
70
1
0
VERTEX
8
Halfen
62
7
10
 68
20
-62
30
0
0
VERTEX
8
Halfen
62
7
10
 68
20
-60
30
0
0
VERTEX
8
Halfen
62
7
10
 56
20
-60
30
0
0
VERTEX
8
Halfen
62
7
10
 56
20
-62
30
0
0
SEQEND
8
Halfen
0
POLYLINE
8
Halfen
62
7
66
1
10
0.0
20
0.0
30
0.0
70
1
0
VERTEX
8
Halfen
62
7
10
 67.25
20
-60
30
0
0
VERTEX
8
Halfen
62
7
10
 67.25
20
 60
30
0
0
VERTEX
8
Halfen
62
7
10
 56.75
20
 60
30
0
0
VERTEX
8
Halfen
62
7
10
 56.75
20
-60
30
0
0
SEQEND
8
Halfen
0
POLYLINE
8
Halfen
62
7
66
1
10
0.0
20
0.0
30
0.0
70
1
0
VERTEX
8
Halfen
62
7
10
 68
20
 60
30
0
0
VERTEX
8
Halfen
62
7
10
 68
20
 62
30
0
0
VERTEX
8
Halfen
62
7
10
 56
20
 62
30
0
0
VERTEX
8
Halfen
62
7
10
 56
20
 60
30
0
0
SEQEND
8
Halfen
0
POLYLINE
8
Halfen
62
7
66
1
10
0.0
20
0.0
30
0.0
70
1
0
VERTEX
8
Halfen
62
7
10
 67.25
20
 62
30
0
0
VERTEX
8
Halfen
62
7
10
 67.25
20
 160
30
0
0
VERTEX
8
Halfen
62
7
10
 56.75
20
 160
30
0
0
VERTEX
8
Halfen
62
7
10
 56.75
20
 62
30
0
0
SEQEND
8
Halfen
0
POLYLINE
8
Halfen
62
7
66
1
10
0.0
20
0.0
30
0.0
70
1
0
VERTEX
8
Halfen
62
7
10
 68
20
 160
30
0
0
VERTEX
8
Halfen
62
7
10
 68
20
 775
30
0
0
VERTEX
8
Halfen
62
7
10
 56
20
 775
30
0
0
VERTEX
8
Halfen
62
7
10
 56
20
 160
30
0
0
SEQEND
8
Halfen
0
POLYLINE
8
Halfen
62
7
66
1
10
0.0
20
0.0
30
0.0
70
1
0
VERTEX
8
Halfen
62
7
10
 152
20
-775
30
0
0
VERTEX
8
Halfen
62
7
10
 152
20
-160
30
0
0
VERTEX
8
Halfen
62
7
10
 140
20
-160
30
0
0
VERTEX
8
Halfen
62
7
10
 140
20
-775
30
0
0
SEQEND
8
Halfen
0
POLYLINE
8
Halfen
62
7
66
1
10
0.0
20
0.0
30
0.0
70
1
0
VERTEX
8
Halfen
62
7
10
 151.25
20
-160
30
0
0
VERTEX
8
Halfen
62
7
10
 151.25
20
-62
30
0
0
VERTEX
8
Halfen
62
7
10
 140.75
20
-62
30
0
0
VERTEX
8
Halfen
62
7
10
 140.75
20
-160
30
0
0
SEQEND
8
Halfen
0
POLYLINE
8
Halfen
62
7
66
1
10
0.0
20
0.0
30
0.0
70
1
0
VERTEX
8
Halfen
62
7
10
 152
20
-62
30
0
0
VERTEX
8
Halfen
62
7
10
 152
20
-60
30
0
0
VERTEX
8
Halfen
62
7
10
 140
20
-60
30
0
0
VERTEX
8
Halfen
62
7
10
 140
20
-62
30
0
0
SEQEND
8
Halfen
0
POLYLINE
8
Halfen
62
7
66
1
10
0.0
20
0.0
30
0.0
70
1
0
VERTEX
8
Halfen
62
7
10
 151.25
20
-60
30
0
0
VERTEX
8
Halfen
62
7
10
 151.25
20
 60
30
0
0
VERTEX
8
Halfen
62
7
10
 140.75
20
 60
30
0
0
VERTEX
8
Halfen
62
7
10
 140.75
20
-60
30
0
0
SEQEND
8
Halfen
0
POLYLINE
8
Halfen
62
7
66
1
10
0.0
20
0.0
30
0.0
70
1
0
VERTEX
8
Halfen
62
7
10
 152
20
 60
30
0
0
VERTEX
8
Halfen
62
7
10
 152
20
 62
30
0
0
VERTEX
8
Halfen
62
7
10
 140
20
 62
30
0
0
VERTEX
8
Halfen
62
7
10
 140
20
 60
30
0
0
SEQEND
8
Halfen
0
POLYLINE
8
Halfen
62
7
66
1
10
0.0
20
0.0
30
0.0
70
1
0
VERTEX
8
Halfen
62
7
10
 151.25
20
 62
30
0
0
VERTEX
8
Halfen
62
7
10
 151.25
20
 160
30
0
0
VERTEX
8
Halfen
62
7
10
 140.75
20
 160
30
0
0
VERTEX
8
Halfen
62
7
10
 140.75
20
 62
30
0
0
SEQEND
8
Halfen
0
POLYLINE
8
Halfen
62
7
66
1
10
0.0
20
0.0
30
0.0
70
1
0
VERTEX
8
Halfen
62
7
10
 152
20
 160
30
0
0
VERTEX
8
Halfen
62
7
10
 152
20
 775
30
0
0
VERTEX
8
Halfen
62
7
10
 140
20
 775
30
0
0
VERTEX
8
Halfen
62
7
10
 140
20
 160
30
0
0
SEQEND
8
Halfen
0
POLYLINE
8
Halfen
62
7
66
1
10
0.0
20
0.0
30
0.0
70
1
0
VERTEX
8
Halfen
62
7
10
 416
20
-775
30
0
0
VERTEX
8
Halfen
62
7
10
 416
20
-160
30
0
0
VERTEX
8
Halfen
62
7
10
 404
20
-160
30
0
0
VERTEX
8
Halfen
62
7
10
 404
20
-775
30
0
0
SEQEND
8
Halfen
0
POLYLINE
8
Halfen
62
7
66
1
10
0.0
20
0.0
30
0.0
70
1
0
VERTEX
8
Halfen
62
7
10
 415.25
20
-160
30
0
0
VERTEX
8
Halfen
62
7
10
 415.25
20
-62
30
0
0
VERTEX
8
Halfen
62
7
10
 404.75
20
-62
30
0
0
VERTEX
8
Halfen
62
7
10
 404.75
20
-160
30
0
0
SEQEND
8
Halfen
0
POLYLINE
8
Halfen
62
7
66
1
10
0.0
20
0.0
30
0.0
70
1
0
VERTEX
8
Halfen
62
7
10
 416
20
-62
30
0
0
VERTEX
8
Halfen
62
7
10
 416
20
-60
30
0
0
VERTEX
8
Halfen
62
7
10
 404
20
-60
30
0
0
VERTEX
8
Halfen
62
7
10
 404
20
-62
30
0
0
SEQEND
8
Halfen
0
POLYLINE
8
Halfen
62
7
66
1
10
0.0
20
0.0
30
0.0
70
1
0
VERTEX
8
Halfen
62
7
10
 415.25
20
-60
30
0
0
VERTEX
8
Halfen
62
7
10
 415.25
20
 60
30
0
0
VERTEX
8
Halfen
62
7
10
 404.75
20
 60
30
0
0
VERTEX
8
Halfen
62
7
10
 404.75
20
-60
30
0
0
SEQEND
8
Halfen
0
POLYLINE
8
Halfen
62
7
66
1
10
0.0
20
0.0
30
0.0
70
1
0
VERTEX
8
Halfen
62
7
10
 416
20
 60
30
0
0
VERTEX
8
Halfen
62
7
10
 416
20
 62
30
0
0
VERTEX
8
Halfen
62
7
10
 404
20
 62
30
0
0
VERTEX
8
Halfen
62
7
10
 404
20
 60
30
0
0
SEQEND
8
Halfen
0
POLYLINE
8
Halfen
62
7
66
1
10
0.0
20
0.0
30
0.0
70
1
0
VERTEX
8
Halfen
62
7
10
 415.25
20
 62
30
0
0
VERTEX
8
Halfen
62
7
10
 415.25
20
 160
30
0
0
VERTEX
8
Halfen
62
7
10
 404.75
20
 160
30
0
0
VERTEX
8
Halfen
62
7
10
 404.75
20
 62
30
0
0
SEQEND
8
Halfen
0
POLYLINE
8
Halfen
62
7
66
1
10
0.0
20
0.0
30
0.0
70
1
0
VERTEX
8
Halfen
62
7
10
 416
20
 160
30
0
0
VERTEX
8
Halfen
62
7
10
 416
20
 775
30
0
0
VERTEX
8
Halfen
62
7
10
 404
20
 775
30
0
0
VERTEX
8
Halfen
62
7
10
 404
20
 160
30
0
0
SEQEND
8
Halfen
0
POLYLINE
8
Halfen
62
7
66
1
10
0.0
20
0.0
30
0.0
70
1
0
VERTEX
8
Halfen
62
7
10
 548
20
-775
30
0
0
VERTEX
8
Halfen
62
7
10
 548
20
-160
30
0
0
VERTEX
8
Halfen
62
7
10
 536
20
-160
30
0
0
VERTEX
8
Halfen
62
7
10
 536
20
-775
30
0
0
SEQEND
8
Halfen
0
POLYLINE
8
Halfen
62
7
66
1
10
0.0
20
0.0
30
0.0
70
1
0
VERTEX
8
Halfen
62
7
10
 547.25
20
-160
30
0
0
VERTEX
8
Halfen
62
7
10
 547.25
20
-62
30
0
0
VERTEX
8
Halfen
62
7
10
 536.75
20
-62
30
0
0
VERTEX
8
Halfen
62
7
10
 536.75
20
-160
30
0
0
SEQEND
8
Halfen
0
POLYLINE
8
Halfen
62
7
66
1
10
0.0
20
0.0
30
0.0
70
1
0
VERTEX
8
Halfen
62
7
10
 548
20
-62
30
0
0
VERTEX
8
Halfen
62
7
10
 548
20
-60
30
0
0
VERTEX
8
Halfen
62
7
10
 536
20
-60
30
0
0
VERTEX
8
Halfen
62
7
10
 536
20
-62
30
0
0
SEQEND
8
Halfen
0
POLYLINE
8
Halfen
62
7
66
1
10
0.0
20
0.0
30
0.0
70
1
0
VERTEX
8
Halfen
62
7
10
 547.25
20
-60
30
0
0
VERTEX
8
Halfen
62
7
10
 547.25
20
 60
30
0
0
VERTEX
8
Halfen
62
7
10
 536.75
20
 60
30
0
0
VERTEX
8
Halfen
62
7
10
 536.75
20
-60
30
0
0
SEQEND
8
Halfen
0
POLYLINE
8
Halfen
62
7
66
1
10
0.0
20
0.0
30
0.0
70
1
0
VERTEX
8
Halfen
62
7
10
 548
20
 60
30
0
0
VERTEX
8
Halfen
62
7
10
 548
20
 62
30
0
0
VERTEX
8
Halfen
62
7
10
 536
20
 62
30
0
0
VERTEX
8
Halfen
62
7
10
 536
20
 60
30
0
0
SEQEND
8
Halfen
0
POLYLINE
8
Halfen
62
7
66
1
10
0.0
20
0.0
30
0.0
70
1
0
VERTEX
8
Halfen
62
7
10
 547.25
20
 62
30
0
0
VERTEX
8
Halfen
62
7
10
 547.25
20
 160
30
0
0
VERTEX
8
Halfen
62
7
10
 536.75
20
 160
30
0
0
VERTEX
8
Halfen
62
7
10
 536.75
20
 62
30
0
0
SEQEND
8
Halfen
0
POLYLINE
8
Halfen
62
7
66
1
10
0.0
20
0.0
30
0.0
70
1
0
VERTEX
8
Halfen
62
7
10
 548
20
 160
30
0
0
VERTEX
8
Halfen
62
7
10
 548
20
 775
30
0
0
VERTEX
8
Halfen
62
7
10
 536
20
 775
30
0
0
VERTEX
8
Halfen
62
7
10
 536
20
 160
30
0
0
SEQEND
8
Halfen
0
POLYLINE
8
Halfen
62
7
66
1
10
0.0
20
0.0
30
0.0
70
1
0
VERTEX
8
Halfen
62
7
10
 596
20
-775
30
0
0
VERTEX
8
Halfen
62
7
10
 596
20
-160
30
0
0
VERTEX
8
Halfen
62
7
10
 584
20
-160
30
0
0
VERTEX
8
Halfen
62
7
10
 584
20
-775
30
0
0
SEQEND
8
Halfen
0
POLYLINE
8
Halfen
62
7
66
1
10
0.0
20
0.0
30
0.0
70
1
0
VERTEX
8
Halfen
62
7
10
 595.25
20
-160
30
0
0
VERTEX
8
Halfen
62
7
10
 595.25
20
-62
30
0
0
VERTEX
8
Halfen
62
7
10
 584.75
20
-62
30
0
0
VERTEX
8
Halfen
62
7
10
 584.75
20
-160
30
0
0
SEQEND
8
Halfen
0
POLYLINE
8
Halfen
62
7
66
1
10
0.0
20
0.0
30
0.0
70
1
0
VERTEX
8
Halfen
62
7
10
 596
20
-62
30
0
0
VERTEX
8
Halfen
62
7
10
 596
20
-60
30
0
0
VERTEX
8
Halfen
62
7
10
 584
20
-60
30
0
0
VERTEX
8
Halfen
62
7
10
 584
20
-62
30
0
0
SEQEND
8
Halfen
0
POLYLINE
8
Halfen
62
7
66
1
10
0.0
20
0.0
30
0.0
70
1
0
VERTEX
8
Halfen
62
7
10
 595.25
20
-60
30
0
0
VERTEX
8
Halfen
62
7
10
 595.25
20
 60
30
0
0
VERTEX
8
Halfen
62
7
10
 584.75
20
 60
30
0
0
VERTEX
8
Halfen
62
7
10
 584.75
20
-60
30
0
0
SEQEND
8
Halfen
0
POLYLINE
8
Halfen
62
7
66
1
10
0.0
20
0.0
30
0.0
70
1
0
VERTEX
8
Halfen
62
7
10
 596
20
 60
30
0
0
VERTEX
8
Halfen
62
7
10
 596
20
 62
30
0
0
VERTEX
8
Halfen
62
7
10
 584
20
 62
30
0
0
VERTEX
8
Halfen
62
7
10
 584
20
 60
30
0
0
SEQEND
8
Halfen
0
POLYLINE
8
Halfen
62
7
66
1
10
0.0
20
0.0
30
0.0
70
1
0
VERTEX
8
Halfen
62
7
10
 595.25
20
 62
30
0
0
VERTEX
8
Halfen
62
7
10
 595.25
20
 160
30
0
0
VERTEX
8
Halfen
62
7
10
 584.75
20
 160
30
0
0
VERTEX
8
Halfen
62
7
10
 584.75
20
 62
30
0
0
SEQEND
8
Halfen
0
POLYLINE
8
Halfen
62
7
66
1
10
0.0
20
0.0
30
0.0
70
1
0
VERTEX
8
Halfen
62
7
10
 596
20
 160
30
0
0
VERTEX
8
Halfen
62
7
10
 596
20
 775
30
0
0
VERTEX
8
Halfen
62
7
10
 584
20
 775
30
0
0
VERTEX
8
Halfen
62
7
10
 584
20
 160
30
0
0
SEQEND
8
Halfen
0
POLYLINE
8
Halfen
62
7
66
1
10
0.0
20
0.0
30
0.0
70
1
0
VERTEX
8
Halfen
62
7
10
 680
20
-775
30
0
0
VERTEX
8
Halfen
62
7
10
 680
20
-160
30
0
0
VERTEX
8
Halfen
62
7
10
 668
20
-160
30
0
0
VERTEX
8
Halfen
62
7
10
 668
20
-775
30
0
0
SEQEND
8
Halfen
0
POLYLINE
8
Halfen
62
7
66
1
10
0.0
20
0.0
30
0.0
70
1
0
VERTEX
8
Halfen
62
7
10
 679.25
20
-160
30
0
0
VERTEX
8
Halfen
62
7
10
 679.25
20
-62
30
0
0
VERTEX
8
Halfen
62
7
10
 668.75
20
-62
30
0
0
VERTEX
8
Halfen
62
7
10
 668.75
20
-160
30
0
0
SEQEND
8
Halfen
0
POLYLINE
8
Halfen
62
7
66
1
10
0.0
20
0.0
30
0.0
70
1
0
VERTEX
8
Halfen
62
7
10
 680
20
-62
30
0
0
VERTEX
8
Halfen
62
7
10
 680
20
-60
30
0
0
VERTEX
8
Halfen
62
7
10
 668
20
-60
30
0
0
VERTEX
8
Halfen
62
7
10
 668
20
-62
30
0
0
SEQEND
8
Halfen
0
POLYLINE
8
Halfen
62
7
66
1
10
0.0
20
0.0
30
0.0
70
1
0
VERTEX
8
Halfen
62
7
10
 679.25
20
-60
30
0
0
VERTEX
8
Halfen
62
7
10
 679.25
20
 60
30
0
0
VERTEX
8
Halfen
62
7
10
 668.75
20
 60
30
0
0
VERTEX
8
Halfen
62
7
10
 668.75
20
-60
30
0
0
SEQEND
8
Halfen
0
POLYLINE
8
Halfen
62
7
66
1
10
0.0
20
0.0
30
0.0
70
1
0
VERTEX
8
Halfen
62
7
10
 680
20
 60
30
0
0
VERTEX
8
Halfen
62
7
10
 680
20
 62
30
0
0
VERTEX
8
Halfen
62
7
10
 668
20
 62
30
0
0
VERTEX
8
Halfen
62
7
10
 668
20
 60
30
0
0
SEQEND
8
Halfen
0
POLYLINE
8
Halfen
62
7
66
1
10
0.0
20
0.0
30
0.0
70
1
0
VERTEX
8
Halfen
62
7
10
 679.25
20
 62
30
0
0
VERTEX
8
Halfen
62
7
10
 679.25
20
 160
30
0
0
VERTEX
8
Halfen
62
7
10
 668.75
20
 160
30
0
0
VERTEX
8
Halfen
62
7
10
 668.75
20
 62
30
0
0
SEQEND
8
Halfen
0
POLYLINE
8
Halfen
62
7
66
1
10
0.0
20
0.0
30
0.0
70
1
0
VERTEX
8
Halfen
62
7
10
 680
20
 160
30
0
0
VERTEX
8
Halfen
62
7
10
 680
20
 775
30
0
0
VERTEX
8
Halfen
62
7
10
 668
20
 775
30
0
0
VERTEX
8
Halfen
62
7
10
 668
20
 160
30
0
0
SEQEND
8
Halfen
0
POLYLINE
8
Halfen
62
7
66
1
10
0.0
20
0.0
30
0.0
70
1
0
VERTEX
8
Halfen
62
7
10
 944
20
-775
30
0
0
VERTEX
8
Halfen
62
7
10
 944
20
-160
30
0
0
VERTEX
8
Halfen
62
7
10
 932
20
-160
30
0
0
VERTEX
8
Halfen
62
7
10
 932
20
-775
30
0
0
SEQEND
8
Halfen
0
POLYLINE
8
Halfen
62
7
66
1
10
0.0
20
0.0
30
0.0
70
1
0
VERTEX
8
Halfen
62
7
10
 943.25
20
-160
30
0
0
VERTEX
8
Halfen
62
7
10
 943.25
20
-62
30
0
0
VERTEX
8
Halfen
62
7
10
 932.75
20
-62
30
0
0
VERTEX
8
Halfen
62
7
10
 932.75
20
-160
30
0
0
SEQEND
8
Halfen
0
POLYLINE
8
Halfen
62
7
66
1
10
0.0
20
0.0
30
0.0
70
1
0
VERTEX
8
Halfen
62
7
10
 944
20
-62
30
0
0
VERTEX
8
Halfen
62
7
10
 944
20
-60
30
0
0
VERTEX
8
Halfen
62
7
10
 932
20
-60
30
0
0
VERTEX
8
Halfen
62
7
10
 932
20
-62
30
0
0
SEQEND
8
Halfen
0
POLYLINE
8
Halfen
62
7
66
1
10
0.0
20
0.0
30
0.0
70
1
0
VERTEX
8
Halfen
62
7
10
 943.25
20
-60
30
0
0
VERTEX
8
Halfen
62
7
10
 943.25
20
 60
30
0
0
VERTEX
8
Halfen
62
7
10
 932.75
20
 60
30
0
0
VERTEX
8
Halfen
62
7
10
 932.75
20
-60
30
0
0
SEQEND
8
Halfen
0
POLYLINE
8
Halfen
62
7
66
1
10
0.0
20
0.0
30
0.0
70
1
0
VERTEX
8
Halfen
62
7
10
 944
20
 60
30
0
0
VERTEX
8
Halfen
62
7
10
 944
20
 62
30
0
0
VERTEX
8
Halfen
62
7
10
 932
20
 62
30
0
0
VERTEX
8
Halfen
62
7
10
 932
20
 60
30
0
0
SEQEND
8
Halfen
0
POLYLINE
8
Halfen
62
7
66
1
10
0.0
20
0.0
30
0.0
70
1
0
VERTEX
8
Halfen
62
7
10
 943.25
20
 62
30
0
0
VERTEX
8
Halfen
62
7
10
 943.25
20
 160
30
0
0
VERTEX
8
Halfen
62
7
10
 932.75
20
 160
30
0
0
VERTEX
8
Halfen
62
7
10
 932.75
20
 62
30
0
0
SEQEND
8
Halfen
0
POLYLINE
8
Halfen
62
7
66
1
10
0.0
20
0.0
30
0.0
70
1
0
VERTEX
8
Halfen
62
7
10
 944
20
 160
30
0
0
VERTEX
8
Halfen
62
7
10
 944
20
 775
30
0
0
VERTEX
8
Halfen
62
7
10
 932
20
 775
30
0
0
VERTEX
8
Halfen
62
7
10
 932
20
 160
30
0
0
SEQEND
8
Halfen
0
POLYLINE
8
Halfen
62
7
66
1
10
0.0
20
0.0
30
0.0
70
1
0
VERTEX
8
Halfen
62
7
10
 98
20
-704.762
30
0
0
VERTEX
8
Halfen
62
7
10
 98
20
 159.422
30
0
0
VERTEX
8
Halfen
62
7
10
 88
20
 159.422
30
0
0
VERTEX
8
Halfen
62
7
10
 88
20
-704.762
30
0
0
SEQEND
8
Halfen
0
POLYLINE
8
Halfen
62
7
66
1
10
0.0
20
0.0
30
0.0
70
1
0
VERTEX
8
Halfen
62
7
10
 98
20
 159.422
30
0
0
VERTEX
8
Halfen
62
7
10
 98
20
 698.422
30
0
0
VERTEX
8
Halfen
62
7
10
 88
20
 698.422
30
0
0
VERTEX
8
Halfen
62
7
10
 88
20
 159.422
30
0
0
SEQEND
8
Halfen
0
POLYLINE
8
Halfen
62
7
66
1
10
0.0
20
0.0
30
0.0
70
1
0
VERTEX
8
Halfen
62
7
10
 108
20
-698.422
30
0
0
VERTEX
8
Halfen
62
7
10
 108
20
 165.762
30
0
0
VERTEX
8
Halfen
62
7
10
 98
20
 165.762
30
0
0
VERTEX
8
Halfen
62
7
10
 98
20
-698.422
30
0
0
SEQEND
8
Halfen
0
POLYLINE
8
Halfen
62
7
66
1
10
0.0
20
0.0
30
0.0
70
1
0
VERTEX
8
Halfen
62
7
10
 108
20
 165.762
30
0
0
VERTEX
8
Halfen
62
7
10
 108
20
 704.762
30
0
0
VERTEX
8
Halfen
62
7
10
 98
20
 704.762
30
0
0
VERTEX
8
Halfen
62
7
10
 98
20
 165.762
30
0
0
SEQEND
8
Halfen
0
POLYLINE
8
Halfen
62
7
66
1
10
0.0
20
0.0
30
0.0
70
1
0
VERTEX
8
Halfen
62
7
10
 230
20
-704.762
30
0
0
VERTEX
8
Halfen
62
7
10
 230
20
 159.422
30
0
0
VERTEX
8
Halfen
62
7
10
 220
20
 159.422
30
0
0
VERTEX
8
Halfen
62
7
10
 220
20
-704.762
30
0
0
SEQEND
8
Halfen
0
POLYLINE
8
Halfen
62
7
66
1
10
0.0
20
0.0
30
0.0
70
1
0
VERTEX
8
Halfen
62
7
10
 230
20
 159.422
30
0
0
VERTEX
8
Halfen
62
7
10
 230
20
 698.422
30
0
0
VERTEX
8
Halfen
62
7
10
 220
20
 698.422
30
0
0
VERTEX
8
Halfen
62
7
10
 220
20
 159.422
30
0
0
SEQEND
8
Halfen
0
POLYLINE
8
Halfen
62
7
66
1
10
0.0
20
0.0
30
0.0
70
1
0
VERTEX
8
Halfen
62
7
10
 240
20
-698.422
30
0
0
VERTEX
8
Halfen
62
7
10
 240
20
 165.762
30
0
0
VERTEX
8
Halfen
62
7
10
 230
20
 165.762
30
0
0
VERTEX
8
Halfen
62
7
10
 230
20
-698.422
30
0
0
SEQEND
8
Halfen
0
POLYLINE
8
Halfen
62
7
66
1
10
0.0
20
0.0
30
0.0
70
1
0
VERTEX
8
Halfen
62
7
10
 240
20
 165.762
30
0
0
VERTEX
8
Halfen
62
7
10
 240
20
 704.762
30
0
0
VERTEX
8
Halfen
62
7
10
 230
20
 704.762
30
0
0
VERTEX
8
Halfen
62
7
10
 230
20
 165.762
30
0
0
SEQEND
8
Halfen
0
POLYLINE
8
Halfen
62
7
66
1
10
0.0
20
0.0
30
0.0
70
1
0
VERTEX
8
Halfen
62
7
10
 362
20
-704.762
30
0
0
VERTEX
8
Halfen
62
7
10
 362
20
 159.422
30
0
0
VERTEX
8
Halfen
62
7
10
 352
20
 159.422
30
0
0
VERTEX
8
Halfen
62
7
10
 352
20
-704.762
30
0
0
SEQEND
8
Halfen
0
POLYLINE
8
Halfen
62
7
66
1
10
0.0
20
0.0
30
0.0
70
1
0
VERTEX
8
Halfen
62
7
10
 362
20
 159.422
30
0
0
VERTEX
8
Halfen
62
7
10
 362
20
 698.422
30
0
0
VERTEX
8
Halfen
62
7
10
 352
20
 698.422
30
0
0
VERTEX
8
Halfen
62
7
10
 352
20
 159.422
30
0
0
SEQEND
8
Halfen
0
POLYLINE
8
Halfen
62
7
66
1
10
0.0
20
0.0
30
0.0
70
1
0
VERTEX
8
Halfen
62
7
10
 372
20
-698.422
30
0
0
VERTEX
8
Halfen
62
7
10
 372
20
 165.762
30
0
0
VERTEX
8
Halfen
62
7
10
 362
20
 165.762
30
0
0
VERTEX
8
Halfen
62
7
10
 362
20
-698.422
30
0
0
SEQEND
8
Halfen
0
POLYLINE
8
Halfen
62
7
66
1
10
0.0
20
0.0
30
0.0
70
1
0
VERTEX
8
Halfen
62
7
10
 372
20
 165.762
30
0
0
VERTEX
8
Halfen
62
7
10
 372
20
 704.762
30
0
0
VERTEX
8
Halfen
62
7
10
 362
20
 704.762
30
0
0
VERTEX
8
Halfen
62
7
10
 362
20
 165.762
30
0
0
SEQEND
8
Halfen
0
POLYLINE
8
Halfen
62
7
66
1
10
0.0
20
0.0
30
0.0
70
1
0
VERTEX
8
Halfen
62
7
10
 626
20
-704.762
30
0
0
VERTEX
8
Halfen
62
7
10
 626
20
 159.422
30
0
0
VERTEX
8
Halfen
62
7
10
 616
20
 159.422
30
0
0
VERTEX
8
Halfen
62
7
10
 616
20
-704.762
30
0
0
SEQEND
8
Halfen
0
POLYLINE
8
Halfen
62
7
66
1
10
0.0
20
0.0
30
0.0
70
1
0
VERTEX
8
Halfen
62
7
10
 626
20
 159.422
30
0
0
VERTEX
8
Halfen
62
7
10
 626
20
 698.422
30
0
0
VERTEX
8
Halfen
62
7
10
 616
20
 698.422
30
0
0
VERTEX
8
Halfen
62
7
10
 616
20
 159.422
30
0
0
SEQEND
8
Halfen
0
POLYLINE
8
Halfen
62
7
66
1
10
0.0
20
0.0
30
0.0
70
1
0
VERTEX
8
Halfen
62
7
10
 636
20
-698.422
30
0
0
VERTEX
8
Halfen
62
7
10
 636
20
 165.762
30
0
0
VERTEX
8
Halfen
62
7
10
 626
20
 165.762
30
0
0
VERTEX
8
Halfen
62
7
10
 626
20
-698.422
30
0
0
SEQEND
8
Halfen
0
POLYLINE
8
Halfen
62
7
66
1
10
0.0
20
0.0
30
0.0
70
1
0
VERTEX
8
Halfen
62
7
10
 636
20
 165.762
30
0
0
VERTEX
8
Halfen
62
7
10
 636
20
 704.762
30
0
0
VERTEX
8
Halfen
62
7
10
 626
20
 704.762
30
0
0
VERTEX
8
Halfen
62
7
10
 626
20
 165.762
30
0
0
SEQEND
8
Halfen
0
POLYLINE
8
Halfen
62
7
66
1
10
0.0
20
0.0
30
0.0
70
1
0
VERTEX
8
Halfen
62
7
10
 758
20
-704.762
30
0
0
VERTEX
8
Halfen
62
7
10
 758
20
 159.422
30
0
0
VERTEX
8
Halfen
62
7
10
 748
20
 159.422
30
0
0
VERTEX
8
Halfen
62
7
10
 748
20
-704.762
30
0
0
SEQEND
8
Halfen
0
POLYLINE
8
Halfen
62
7
66
1
10
0.0
20
0.0
30
0.0
70
1
0
VERTEX
8
Halfen
62
7
10
 758
20
 159.422
30
0
0
VERTEX
8
Halfen
62
7
10
 758
20
 698.422
30
0
0
VERTEX
8
Halfen
62
7
10
 748
20
 698.422
30
0
0
VERTEX
8
Halfen
62
7
10
 748
20
 159.422
30
0
0
SEQEND
8
Halfen
0
POLYLINE
8
Halfen
62
7
66
1
10
0.0
20
0.0
30
0.0
70
1
0
VERTEX
8
Halfen
62
7
10
 768
20
-698.422
30
0
0
VERTEX
8
Halfen
62
7
10
 768
20
 165.762
30
0
0
VERTEX
8
Halfen
62
7
10
 758
20
 165.762
30
0
0
VERTEX
8
Halfen
62
7
10
 758
20
-698.422
30
0
0
SEQEND
8
Halfen
0
POLYLINE
8
Halfen
62
7
66
1
10
0.0
20
0.0
30
0.0
70
1
0
VERTEX
8
Halfen
62
7
10
 768
20
 165.762
30
0
0
VERTEX
8
Halfen
62
7
10
 768
20
 704.762
30
0
0
VERTEX
8
Halfen
62
7
10
 758
20
 704.762
30
0
0
VERTEX
8
Halfen
62
7
10
 758
20
 165.762
30
0
0
SEQEND
8
Halfen
0
POLYLINE
8
Halfen
62
7
66
1
10
0.0
20
0.0
30
0.0
70
1
0
VERTEX
8
Halfen
62
7
10
 890
20
-704.762
30
0
0
VERTEX
8
Halfen
62
7
10
 890
20
 159.422
30
0
0
VERTEX
8
Halfen
62
7
10
 880
20
 159.422
30
0
0
VERTEX
8
Halfen
62
7
10
 880
20
-704.762
30
0
0
SEQEND
8
Halfen
0
POLYLINE
8
Halfen
62
7
66
1
10
0.0
20
0.0
30
0.0
70
1
0
VERTEX
8
Halfen
62
7
10
 890
20
 159.422
30
0
0
VERTEX
8
Halfen
62
7
10
 890
20
 698.422
30
0
0
VERTEX
8
Halfen
62
7
10
 880
20
 698.422
30
0
0
VERTEX
8
Halfen
62
7
10
 880
20
 159.422
30
0
0
SEQEND
8
Halfen
0
POLYLINE
8
Halfen
62
7
66
1
10
0.0
20
0.0
30
0.0
70
1
0
VERTEX
8
Halfen
62
7
10
 900
20
-698.422
30
0
0
VERTEX
8
Halfen
62
7
10
 900
20
 165.762
30
0
0
VERTEX
8
Halfen
62
7
10
 890
20
 165.762
30
0
0
VERTEX
8
Halfen
62
7
10
 890
20
-698.422
30
0
0
SEQEND
8
Halfen
0
POLYLINE
8
Halfen
62
7
66
1
10
0.0
20
0.0
30
0.0
70
1
0
VERTEX
8
Halfen
62
7
10
 900
20
 165.762
30
0
0
VERTEX
8
Halfen
62
7
10
 900
20
 704.762
30
0
0
VERTEX
8
Halfen
62
7
10
 890
20
 704.762
30
0
0
VERTEX
8
Halfen
62
7
10
 890
20
 165.762
30
0
0
SEQEND
8
Halfen
0
POLYLINE
8
Halfen
62
7
66
1
10
0.0
20
0.0
30
0.0
70
1
0
VERTEX
8
Halfen
62
7
10
 1400
20
-60
30
0
0
VERTEX
8
Halfen
62
7
10
 1400
20
 60
30
0
0
VERTEX
8
Halfen
62
7
10
 1386.5
20
 73.5
30
0
0
VERTEX
8
Halfen
62
7
10
 1386.5
20
 60
30
0
0
VERTEX
8
Halfen
62
7
10
 1250
20
 60
30
0
0
VERTEX
8
Halfen
62
7
10
 1250
20
-60
30
0
0
VERTEX
8
Halfen
62
7
10
 1386.5
20
-60
30
0
0
VERTEX
8
Halfen
62
7
10
 1386.5
20
-73.5
30
0
0
SEQEND
8
Halfen
0
POLYLINE
8
Halfen
62
7
66
1
10
0.0
20
0.0
30
0.0
70
1
0
VERTEX
8
Halfen
62
7
10
 1250
20
-60
30
0
0
VERTEX
8
Halfen
62
7
10
 1250
20
 60
30
0
0
VERTEX
8
Halfen
62
7
10
 1213.5
20
 60
30
0
0
VERTEX
8
Halfen
62
7
10
 1213.5
20
 73.5
30
0
0
VERTEX
8
Halfen
62
7
10
 1200
20
 60
30
0
0
VERTEX
8
Halfen
62
7
10
 1200
20
-60
30
0
0
VERTEX
8
Halfen
62
7
10
 1213.5
20
-73.5
30
0
0
VERTEX
8
Halfen
62
7
10
 1213.5
20
-60
30
0
0
SEQEND
8
Halfen
0
POLYLINE
8
Halfen
62
7
66
1
10
0.0
20
0.0
30
0.0
70
1
0
VERTEX
8
Halfen
62
7
10
 1397.5
20
-58.75
30
0
0
VERTEX
8
Halfen
62
7
10
 1397.5
20
 58.75
30
0
0
VERTEX
8
Halfen
62
7
10
 1389
20
 67.25
30
0
0
VERTEX
8
Halfen
62
7
10
 1389
20
 58
30
0
0
VERTEX
8
Halfen
62
7
10
 1252
20
 58
30
0
0
VERTEX
8
Halfen
62
7
10
 1252
20
-58
30
0
0
VERTEX
8
Halfen
62
7
10
 1389
20
-58
30
0
0
VERTEX
8
Halfen
62
7
10
 1389
20
-67.25
30
0
0
SEQEND
8
Halfen
0
POLYLINE
8
Halfen
62
7
66
1
10
0.0
20
0.0
30
0.0
70
1
0
VERTEX
8
Halfen
62
7
10
 1248
20
-58
30
0
0
VERTEX
8
Halfen
62
7
10
 1248
20
 58
30
0
0
VERTEX
8
Halfen
62
7
10
 1211
20
 58
30
0
0
VERTEX
8
Halfen
62
7
10
 1211
20
 67.25
30
0
0
VERTEX
8
Halfen
62
7
10
 1202.5
20
 58.75
30
0
0
VERTEX
8
Halfen
62
7
10
 1202.5
20
-58.75
30
0
0
VERTEX
8
Halfen
62
7
10
 1211
20
-67.25
30
0
0
VERTEX
8
Halfen
62
7
10
 1211
20
-58
30
0
0
SEQEND
8
Halfen
0
POLYLINE
8
Halfen
62
7
66
1
10
0.0
20
0.0
30
0.0
70
1
0
VERTEX
8
Halfen
62
7
10
 1247
20
-775
30
0
0
VERTEX
8
Halfen
62
7
10
 1247
20
-160
30
0
0
VERTEX
8
Halfen
62
7
10
 1235
20
-160
30
0
0
VERTEX
8
Halfen
62
7
10
 1235
20
-775
30
0
0
SEQEND
8
Halfen
0
POLYLINE
8
Halfen
62
7
66
1
10
0.0
20
0.0
30
0.0
70
1
0
VERTEX
8
Halfen
62
7
10
 1246.25
20
-160
30
0
0
VERTEX
8
Halfen
62
7
10
 1246.25
20
-62
30
0
0
VERTEX
8
Halfen
62
7
10
 1235.75
20
-62
30
0
0
VERTEX
8
Halfen
62
7
10
 1235.75
20
-160
30
0
0
SEQEND
8
Halfen
0
POLYLINE
8
Halfen
62
7
66
1
10
0.0
20
0.0
30
0.0
70
1
0
VERTEX
8
Halfen
62
7
10
 1247
20
-62
30
0
0
VERTEX
8
Halfen
62
7
10
 1247
20
-60
30
0
0
VERTEX
8
Halfen
62
7
10
 1235
20
-60
30
0
0
VERTEX
8
Halfen
62
7
10
 1235
20
-62
30
0
0
SEQEND
8
Halfen
0
POLYLINE
8
Halfen
62
7
66
1
10
0.0
20
0.0
30
0.0
70
1
0
VERTEX
8
Halfen
62
7
10
 1246.25
20
-60
30
0
0
VERTEX
8
Halfen
62
7
10
 1246.25
20
 60
30
0
0
VERTEX
8
Halfen
62
7
10
 1235.75
20
 60
30
0
0
VERTEX
8
Halfen
62
7
10
 1235.75
20
-60
30
0
0
SEQEND
8
Halfen
0
POLYLINE
8
Halfen
62
7
66
1
10
0.0
20
0.0
30
0.0
70
1
0
VERTEX
8
Halfen
62
7
10
 1247
20
 60
30
0
0
VERTEX
8
Halfen
62
7
10
 1247
20
 62
30
0
0
VERTEX
8
Halfen
62
7
10
 1235
20
 62
30
0
0
VERTEX
8
Halfen
62
7
10
 1235
20
 60
30
0
0
SEQEND
8
Halfen
0
POLYLINE
8
Halfen
62
7
66
1
10
0.0
20
0.0
30
0.0
70
1
0
VERTEX
8
Halfen
62
7
10
 1246.25
20
 62
30
0
0
VERTEX
8
Halfen
62
7
10
 1246.25
20
 160
30
0
0
VERTEX
8
Halfen
62
7
10
 1235.75
20
 160
30
0
0
VERTEX
8
Halfen
62
7
10
 1235.75
20
 62
30
0
0
SEQEND
8
Halfen
0
POLYLINE
8
Halfen
62
7
66
1
10
0.0
20
0.0
30
0.0
70
1
0
VERTEX
8
Halfen
62
7
10
 1247
20
 160
30
0
0
VERTEX
8
Halfen
62
7
10
 1247
20
 775
30
0
0
VERTEX
8
Halfen
62
7
10
 1235
20
 775
30
0
0
VERTEX
8
Halfen
62
7
10
 1235
20
 160
30
0
0
SEQEND
8
Halfen
0
POLYLINE
8
Halfen
62
7
66
1
10
0.0
20
0.0
30
0.0
70
1
0
VERTEX
8
Halfen
62
7
10
 1370
20
-775
30
0
0
VERTEX
8
Halfen
62
7
10
 1370
20
-160
30
0
0
VERTEX
8
Halfen
62
7
10
 1358
20
-160
30
0
0
VERTEX
8
Halfen
62
7
10
 1358
20
-775
30
0
0
SEQEND
8
Halfen
0
POLYLINE
8
Halfen
62
7
66
1
10
0.0
20
0.0
30
0.0
70
1
0
VERTEX
8
Halfen
62
7
10
 1369.25
20
-160
30
0
0
VERTEX
8
Halfen
62
7
10
 1369.25
20
-62
30
0
0
VERTEX
8
Halfen
62
7
10
 1358.75
20
-62
30
0
0
VERTEX
8
Halfen
62
7
10
 1358.75
20
-160
30
0
0
SEQEND
8
Halfen
0
POLYLINE
8
Halfen
62
7
66
1
10
0.0
20
0.0
30
0.0
70
1
0
VERTEX
8
Halfen
62
7
10
 1370
20
-62
30
0
0
VERTEX
8
Halfen
62
7
10
 1370
20
-60
30
0
0
VERTEX
8
Halfen
62
7
10
 1358
20
-60
30
0
0
VERTEX
8
Halfen
62
7
10
 1358
20
-62
30
0
0
SEQEND
8
Halfen
0
POLYLINE
8
Halfen
62
7
66
1
10
0.0
20
0.0
30
0.0
70
1
0
VERTEX
8
Halfen
62
7
10
 1369.25
20
-60
30
0
0
VERTEX
8
Halfen
62
7
10
 1369.25
20
 60
30
0
0
VERTEX
8
Halfen
62
7
10
 1358.75
20
 60
30
0
0
VERTEX
8
Halfen
62
7
10
 1358.75
20
-60
30
0
0
SEQEND
8
Halfen
0
POLYLINE
8
Halfen
62
7
66
1
10
0.0
20
0.0
30
0.0
70
1
0
VERTEX
8
Halfen
62
7
10
 1370
20
 60
30
0
0
VERTEX
8
Halfen
62
7
10
 1370
20
 62
30
0
0
VERTEX
8
Halfen
62
7
10
 1358
20
 62
30
0
0
VERTEX
8
Halfen
62
7
10
 1358
20
 60
30
0
0
SEQEND
8
Halfen
0
POLYLINE
8
Halfen
62
7
66
1
10
0.0
20
0.0
30
0.0
70
1
0
VERTEX
8
Halfen
62
7
10
 1369.25
20
 62
30
0
0
VERTEX
8
Halfen
62
7
10
 1369.25
20
 160
30
0
0
VERTEX
8
Halfen
62
7
10
 1358.75
20
 160
30
0
0
VERTEX
8
Halfen
62
7
10
 1358.75
20
 62
30
0
0
SEQEND
8
Halfen
0
POLYLINE
8
Halfen
62
7
66
1
10
0.0
20
0.0
30
0.0
70
1
0
VERTEX
8
Halfen
62
7
10
 1370
20
 160
30
0
0
VERTEX
8
Halfen
62
7
10
 1370
20
 775
30
0
0
VERTEX
8
Halfen
62
7
10
 1358
20
 775
30
0
0
VERTEX
8
Halfen
62
7
10
 1358
20
 160
30
0
0
SEQEND
8
Halfen
0
POLYLINE
8
Halfen
62
7
66
1
10
0.0
20
0.0
30
0.0
70
1
0
VERTEX
8
Halfen
62
7
10
 1370
20
-704.762
30
0
0
VERTEX
8
Halfen
62
7
10
 1370
20
-94.821
30
0
0
VERTEX
8
Halfen
62
7
10
 1369.392
20
-87.875
30
0
0
VERTEX
8
Halfen
62
7
10
 1367.588
20
-81.14
30
0
0
VERTEX
8
Halfen
62
7
10
 1364.641
20
-74.821
30
0
0
VERTEX
8
Halfen
62
7
10
 1279.019
20
 73.481
30
0
0
VERTEX
8
Halfen
62
7
10
 1276.809
20
 78.22
30
0
0
VERTEX
8
Halfen
62
7
10
 1275.456
20
 83.271
30
0
0
VERTEX
8
Halfen
62
7
10
 1275
20
 88.481
30
0
0
VERTEX
8
Halfen
62
7
10
 1275
20
 159.422
30
0
0
VERTEX
8
Halfen
62
7
10
 1265
20
 159.422
30
0
0
VERTEX
8
Halfen
62
7
10
 1265
20
 88.481
30
0
0
VERTEX
8
Halfen
62
7
10
 1265.608
20
 81.535
30
0
0
VERTEX
8
Halfen
62
7
10
 1267.412
20
 74.8
30
0
0
VERTEX
8
Halfen
62
7
10
 1270.359
20
 68.481
30
0
0
VERTEX
8
Halfen
62
7
10
 1355.981
20
-79.821
30
0
0
VERTEX
8
Halfen
62
7
10
 1358.191
20
-84.56
30
0
0
VERTEX
8
Halfen
62
7
10
 1359.544
20
-89.611
30
0
0
VERTEX
8
Halfen
62
7
10
 1360
20
-94.821
30
0
0
VERTEX
8
Halfen
62
7
10
 1360
20
-704.762
30
0
0
SEQEND
8
Halfen
0
POLYLINE
8
Halfen
62
7
66
1
10
0.0
20
0.0
30
0.0
70
1
0
VERTEX
8
Halfen
62
7
10
 1275
20
 159.422
30
0
0
VERTEX
8
Halfen
62
7
10
 1275
20
 698.422
30
0
0
VERTEX
8
Halfen
62
7
10
 1265
20
 698.422
30
0
0
VERTEX
8
Halfen
62
7
10
 1265
20
 159.422
30
0
0
SEQEND
8
Halfen
0
POLYLINE
8
Halfen
62
7
66
1
10
0.0
20
0.0
30
0.0
70
1
0
VERTEX
8
Halfen
62
7
10
 1265
20
-698.422
30
0
0
VERTEX
8
Halfen
62
7
10
 1265
20
-88.481
30
0
0
VERTEX
8
Halfen
62
7
10
 1265.608
20
-81.535
30
0
0
VERTEX
8
Halfen
62
7
10
 1267.412
20
-74.8
30
0
0
VERTEX
8
Halfen
62
7
10
 1270.359
20
-68.481
30
0
0
VERTEX
8
Halfen
62
7
10
 1355.981
20
 79.82
30
0
0
VERTEX
8
Halfen
62
7
10
 1358.191
20
 84.56
30
0
0
VERTEX
8
Halfen
62
7
10
 1359.544
20
 89.611
30
0
0
VERTEX
8
Halfen
62
7
10
 1360
20
 94.82
30
0
0
VERTEX
8
Halfen
62
7
10
 1360
20
 165.762
30
0
0
VERTEX
8
Halfen
62
7
10
 1370
20
 165.762
30
0
0
VERTEX
8
Halfen
62
7
10
 1370
20
 94.82
30
0
0
VERTEX
8
Halfen
62
7
10
 1369.392
20
 87.875
30
0
0
VERTEX
8
Halfen
62
7
10
 1367.588
20
 81.14
30
0
0
VERTEX
8
Halfen
62
7
10
 1364.641
20
 74.82
30
0
0
VERTEX
8
Halfen
62
7
10
 1279.019
20
-73.481
30
0
0
VERTEX
8
Halfen
62
7
10
 1276.809
20
-78.22
30
0
0
VERTEX
8
Halfen
62
7
10
 1275.456
20
-83.271
30
0
0
VERTEX
8
Halfen
62
7
10
 1275
20
-88.481
30
0
0
VERTEX
8
Halfen
62
7
10
 1275
20
-698.422
30
0
0
SEQEND
8
Halfen
0
POLYLINE
8
Halfen
62
7
66
1
10
0.0
20
0.0
30
0.0
70
1
0
VERTEX
8
Halfen
62
7
10
 1360
20
 165.762
30
0
0
VERTEX
8
Halfen
62
7
10
 1360
20
 704.762
30
0
0
VERTEX
8
Halfen
62
7
10
 1370
20
 704.762
30
0
0
VERTEX
8
Halfen
62
7
10
 1370
20
 165.762
30
0
0
SEQEND
8
Halfen
0
ENDSEC
0
EOF
