0
SECTION
2
HEADER
9
$EXTMIN
10
 0
20
 100
30
0.0
9
$EXTMAX
10
 0
20
 100
30
0.0
9
$LIMMIN
10
 100
20
 0
9
$LIMMAX
10
 0
20
 100
9
$PSLTSCALE
70
1
0
ENDSEC
0
SECTION
2
TABLES
0
TABLE
2
LAYER
70
2
0
LAYER
2
0
70
0
62
7
6
CONTINUOUS
0
LAYER
2
Halfen
70
0
62
7
6
CONTINUOUS
0
ENDTAB
0
ENDSEC
0
SECTION
2
ENTITIES
0
POLYLINE
8
Halfen
62
7
66
1
10
0.0
20
0.0
30
0.0
70
1
0
VERTEX
8
Halfen
62
7
10
 0
20
-73.5
30
0
0
VERTEX
8
Halfen
62
7
10
 250
20
-73.5
30
0
0
VERTEX
8
Halfen
62
7
10
 250
20
 73.5
30
0
0
VERTEX
8
Halfen
62
7
10
 0
20
 73.5
30
0
0
SEQEND
8
Halfen
0
POLYLINE
8
Halfen
62
7
66
1
10
0.0
20
0.0
30
0.0
70
1
0
VERTEX
8
Halfen
62
7
10
 0
20
-60
30
0
0
VERTEX
8
Halfen
62
7
10
 250
20
-60
30
0
0
VERTEX
8
Halfen
62
7
10
 250
20
 60
30
0
0
VERTEX
8
Halfen
62
7
10
 0
20
 60
30
0
0
SEQEND
8
Halfen
0
POLYLINE
8
Halfen
62
7
66
1
10
0.0
20
0.0
30
0.0
70
1
0
VERTEX
8
Halfen
62
7
10
 20
20
-32.5
30
0
0
VERTEX
8
Halfen
62
7
10
 37
20
-1.5
30
0
0
VERTEX
8
Halfen
62
7
10
 28
20
-1.5
30
0
0
VERTEX
8
Halfen
62
7
10
 28
20
 32.5
30
0
0
VERTEX
8
Halfen
62
7
10
 12
20
 32.5
30
0
0
VERTEX
8
Halfen
62
7
10
 12
20
-1.5
30
0
0
VERTEX
8
Halfen
62
7
10
 3
20
-1.5
30
0
0
SEQEND
8
Halfen
0
POLYLINE
8
Halfen
62
7
66
1
10
0.0
20
0.0
30
0.0
70
1
0
VERTEX
8
Halfen
62
7
10
 230
20
-32.5
30
0
0
VERTEX
8
Halfen
62
7
10
 247
20
-1.5
30
0
0
VERTEX
8
Halfen
62
7
10
 238
20
-1.5
30
0
0
VERTEX
8
Halfen
62
7
10
 238
20
 32.5
30
0
0
VERTEX
8
Halfen
62
7
10
 222
20
 32.5
30
0
0
VERTEX
8
Halfen
62
7
10
 222
20
-1.5
30
0
0
VERTEX
8
Halfen
62
7
10
 213
20
-1.5
30
0
0
SEQEND
8
Halfen
0
POLYLINE
8
Halfen
62
7
66
1
10
0.0
20
0.0
30
0.0
70
1
0
VERTEX
8
Halfen
62
7
10
 140
20
-69.3
30
0
0
VERTEX
8
Halfen
62
7
10
 140
20
-56.8
30
0
0
VERTEX
8
Halfen
62
7
10
 140
20
 69.3
30
0
0
VERTEX
8
Halfen
62
7
10
 139.958
20
 70.359
30
0
0
VERTEX
8
Halfen
62
7
10
 139.834
20
 71.412
30
0
0
VERTEX
8
Halfen
62
7
10
 139.627
20
 72.452
30
0
0
VERTEX
8
Halfen
62
7
10
 139.339
20
 73.472
30
0
0
VERTEX
8
Halfen
62
7
10
 138.972
20
 74.466
30
0
0
VERTEX
8
Halfen
62
7
10
 138.529
20
 75.429
30
0
0
VERTEX
8
Halfen
62
7
10
 138.011
20
 76.354
30
0
0
VERTEX
8
Halfen
62
7
10
 137.422
20
 77.235
30
0
0
VERTEX
8
Halfen
62
7
10
 136.765
20
 78.068
30
0
0
VERTEX
8
Halfen
62
7
10
 136.046
20
 78.846
30
0
0
VERTEX
8
Halfen
62
7
10
 135.268
20
 79.565
30
0
0
VERTEX
8
Halfen
62
7
10
 134.435
20
 80.222
30
0
0
VERTEX
8
Halfen
62
7
10
 133.554
20
 80.811
30
0
0
VERTEX
8
Halfen
62
7
10
 132.629
20
 81.329
30
0
0
VERTEX
8
Halfen
62
7
10
 131.666
20
 81.772
30
0
0
VERTEX
8
Halfen
62
7
10
 130.672
20
 82.139
30
0
0
VERTEX
8
Halfen
62
7
10
 129.652
20
 82.427
30
0
0
VERTEX
8
Halfen
62
7
10
 128.612
20
 82.634
30
0
0
VERTEX
8
Halfen
62
7
10
 127.559
20
 82.758
30
0
0
VERTEX
8
Halfen
62
7
10
 126.5
20
 82.8
30
0
0
VERTEX
8
Halfen
62
7
10
 123.5
20
 82.8
30
0
0
VERTEX
8
Halfen
62
7
10
 122.441
20
 82.758
30
0
0
VERTEX
8
Halfen
62
7
10
 121.388
20
 82.634
30
0
0
VERTEX
8
Halfen
62
7
10
 120.348
20
 82.427
30
0
0
VERTEX
8
Halfen
62
7
10
 119.328
20
 82.139
30
0
0
VERTEX
8
Halfen
62
7
10
 118.334
20
 81.772
30
0
0
VERTEX
8
Halfen
62
7
10
 117.371
20
 81.329
30
0
0
VERTEX
8
Halfen
62
7
10
 116.446
20
 80.811
30
0
0
VERTEX
8
Halfen
62
7
10
 115.565
20
 80.222
30
0
0
VERTEX
8
Halfen
62
7
10
 114.732
20
 79.565
30
0
0
VERTEX
8
Halfen
62
7
10
 113.954
20
 78.846
30
0
0
VERTEX
8
Halfen
62
7
10
 113.235
20
 78.068
30
0
0
VERTEX
8
Halfen
62
7
10
 112.578
20
 77.235
30
0
0
VERTEX
8
Halfen
62
7
10
 111.989
20
 76.354
30
0
0
VERTEX
8
Halfen
62
7
10
 111.471
20
 75.429
30
0
0
VERTEX
8
Halfen
62
7
10
 111.028
20
 74.466
30
0
0
VERTEX
8
Halfen
62
7
10
 110.661
20
 73.472
30
0
0
VERTEX
8
Halfen
62
7
10
 110.373
20
 72.452
30
0
0
VERTEX
8
Halfen
62
7
10
 110.166
20
 71.412
30
0
0
VERTEX
8
Halfen
62
7
10
 110.042
20
 70.359
30
0
0
VERTEX
8
Halfen
62
7
10
 110
20
 69.3
30
0
0
VERTEX
8
Halfen
62
7
10
 110
20
-56.8
30
0
0
VERTEX
8
Halfen
62
7
10
 110
20
-69.3
30
0
0
VERTEX
8
Halfen
62
7
10
 110.042
20
-70.359
30
0
0
VERTEX
8
Halfen
62
7
10
 110.166
20
-71.412
30
0
0
VERTEX
8
Halfen
62
7
10
 110.373
20
-72.452
30
0
0
VERTEX
8
Halfen
62
7
10
 110.661
20
-73.472
30
0
0
VERTEX
8
Halfen
62
7
10
 111.028
20
-74.466
30
0
0
VERTEX
8
Halfen
62
7
10
 111.471
20
-75.429
30
0
0
VERTEX
8
Halfen
62
7
10
 111.989
20
-76.354
30
0
0
VERTEX
8
Halfen
62
7
10
 112.578
20
-77.235
30
0
0
VERTEX
8
Halfen
62
7
10
 113.235
20
-78.068
30
0
0
VERTEX
8
Halfen
62
7
10
 113.954
20
-78.846
30
0
0
VERTEX
8
Halfen
62
7
10
 114.732
20
-79.565
30
0
0
VERTEX
8
Halfen
62
7
10
 115.565
20
-80.222
30
0
0
VERTEX
8
Halfen
62
7
10
 116.446
20
-80.811
30
0
0
VERTEX
8
Halfen
62
7
10
 117.371
20
-81.329
30
0
0
VERTEX
8
Halfen
62
7
10
 118.334
20
-81.772
30
0
0
VERTEX
8
Halfen
62
7
10
 119.328
20
-82.139
30
0
0
VERTEX
8
Halfen
62
7
10
 120.348
20
-82.427
30
0
0
VERTEX
8
Halfen
62
7
10
 121.388
20
-82.634
30
0
0
VERTEX
8
Halfen
62
7
10
 122.441
20
-82.758
30
0
0
VERTEX
8
Halfen
62
7
10
 123.5
20
-82.8
30
0
0
VERTEX
8
Halfen
62
7
10
 126.5
20
-82.8
30
0
0
VERTEX
8
Halfen
62
7
10
 127.559
20
-82.758
30
0
0
VERTEX
8
Halfen
62
7
10
 128.612
20
-82.634
30
0
0
VERTEX
8
Halfen
62
7
10
 129.652
20
-82.427
30
0
0
VERTEX
8
Halfen
62
7
10
 130.672
20
-82.139
30
0
0
VERTEX
8
Halfen
62
7
10
 131.666
20
-81.772
30
0
0
VERTEX
8
Halfen
62
7
10
 132.629
20
-81.329
30
0
0
VERTEX
8
Halfen
62
7
10
 133.554
20
-80.811
30
0
0
VERTEX
8
Halfen
62
7
10
 134.435
20
-80.222
30
0
0
VERTEX
8
Halfen
62
7
10
 135.268
20
-79.565
30
0
0
VERTEX
8
Halfen
62
7
10
 136.046
20
-78.846
30
0
0
VERTEX
8
Halfen
62
7
10
 136.765
20
-78.068
30
0
0
VERTEX
8
Halfen
62
7
10
 137.422
20
-77.235
30
0
0
VERTEX
8
Halfen
62
7
10
 138.011
20
-76.354
30
0
0
VERTEX
8
Halfen
62
7
10
 138.529
20
-75.429
30
0
0
VERTEX
8
Halfen
62
7
10
 138.972
20
-74.466
30
0
0
VERTEX
8
Halfen
62
7
10
 139.339
20
-73.472
30
0
0
VERTEX
8
Halfen
62
7
10
 139.627
20
-72.452
30
0
0
VERTEX
8
Halfen
62
7
10
 139.834
20
-71.412
30
0
0
VERTEX
8
Halfen
62
7
10
 139.958
20
-70.359
30
0
0
VERTEX
8
Halfen
62
7
10
 140
20
-69.3
30
0
0
SEQEND
8
Halfen
0
POLYLINE
8
Halfen
62
7
66
1
10
0.0
20
0.0
30
0.0
70
1
0
VERTEX
8
Halfen
62
7
10
 193
20
-457.177
30
0
0
VERTEX
8
Halfen
62
7
10
 193
20
 215.147
30
0
0
VERTEX
8
Halfen
62
7
10
 187
20
 215.147
30
0
0
VERTEX
8
Halfen
62
7
10
 187
20
-457.177
30
0
0
SEQEND
8
Halfen
0
POLYLINE
8
Halfen
62
7
66
1
10
0.0
20
0.0
30
0.0
70
1
0
VERTEX
8
Halfen
62
7
10
 183
20
-457.177
30
0
0
VERTEX
8
Halfen
62
7
10
 183
20
 215.147
30
0
0
VERTEX
8
Halfen
62
7
10
 177
20
 215.147
30
0
0
VERTEX
8
Halfen
62
7
10
 177
20
-457.177
30
0
0
SEQEND
8
Halfen
0
POLYLINE
8
Halfen
62
7
66
1
10
0.0
20
0.0
30
0.0
70
1
0
VERTEX
8
Halfen
62
7
10
 740
20
-60
30
0
0
VERTEX
8
Halfen
62
7
10
 740
20
 60
30
0
0
VERTEX
8
Halfen
62
7
10
 726.5
20
 73.5
30
0
0
VERTEX
8
Halfen
62
7
10
 726.5
20
 60
30
0
0
VERTEX
8
Halfen
62
7
10
 500
20
 60
30
0
0
VERTEX
8
Halfen
62
7
10
 500
20
-60
30
0
0
VERTEX
8
Halfen
62
7
10
 726.5
20
-60
30
0
0
VERTEX
8
Halfen
62
7
10
 726.5
20
-73.5
30
0
0
SEQEND
8
Halfen
0
POLYLINE
8
Halfen
62
7
66
1
10
0.0
20
0.0
30
0.0
70
1
0
VERTEX
8
Halfen
62
7
10
 500
20
-60
30
0
0
VERTEX
8
Halfen
62
7
10
 500
20
 60
30
0
0
VERTEX
8
Halfen
62
7
10
 463.5
20
 60
30
0
0
VERTEX
8
Halfen
62
7
10
 463.5
20
 73.5
30
0
0
VERTEX
8
Halfen
62
7
10
 450
20
 60
30
0
0
VERTEX
8
Halfen
62
7
10
 450
20
-60
30
0
0
VERTEX
8
Halfen
62
7
10
 463.5
20
-73.5
30
0
0
VERTEX
8
Halfen
62
7
10
 463.5
20
-60
30
0
0
SEQEND
8
Halfen
0
POLYLINE
8
Halfen
62
7
66
1
10
0.0
20
0.0
30
0.0
70
1
0
VERTEX
8
Halfen
62
7
10
 737.5
20
-58.75
30
0
0
VERTEX
8
Halfen
62
7
10
 737.5
20
 58.75
30
0
0
VERTEX
8
Halfen
62
7
10
 729
20
 67.25
30
0
0
VERTEX
8
Halfen
62
7
10
 729
20
 58
30
0
0
VERTEX
8
Halfen
62
7
10
 502
20
 58
30
0
0
VERTEX
8
Halfen
62
7
10
 502
20
-58
30
0
0
VERTEX
8
Halfen
62
7
10
 729
20
-58
30
0
0
VERTEX
8
Halfen
62
7
10
 729
20
-67.25
30
0
0
SEQEND
8
Halfen
0
POLYLINE
8
Halfen
62
7
66
1
10
0.0
20
0.0
30
0.0
70
1
0
VERTEX
8
Halfen
62
7
10
 498
20
-58
30
0
0
VERTEX
8
Halfen
62
7
10
 498
20
 58
30
0
0
VERTEX
8
Halfen
62
7
10
 461
20
 58
30
0
0
VERTEX
8
Halfen
62
7
10
 461
20
 67.25
30
0
0
VERTEX
8
Halfen
62
7
10
 452.5
20
 58.75
30
0
0
VERTEX
8
Halfen
62
7
10
 452.5
20
-58.75
30
0
0
VERTEX
8
Halfen
62
7
10
 461
20
-67.25
30
0
0
VERTEX
8
Halfen
62
7
10
 461
20
-58
30
0
0
SEQEND
8
Halfen
0
POLYLINE
8
Halfen
62
7
66
1
10
0.0
20
0.0
30
0.0
70
1
0
VERTEX
8
Halfen
62
7
10
 725
20
-81.8
30
0
0
VERTEX
8
Halfen
62
7
10
 725
20
 81.8
30
0
0
VERTEX
8
Halfen
62
7
10
 721
20
 81.8
30
0
0
VERTEX
8
Halfen
62
7
10
 720.846
20
 81.797
30
0
0
VERTEX
8
Halfen
62
7
10
 720.691
20
 81.786
30
0
0
VERTEX
8
Halfen
62
7
10
 720.538
20
 81.769
30
0
0
VERTEX
8
Halfen
62
7
10
 720.385
20
 81.746
30
0
0
VERTEX
8
Halfen
62
7
10
 720.234
20
 81.715
30
0
0
VERTEX
8
Halfen
62
7
10
 720.084
20
 81.678
30
0
0
VERTEX
8
Halfen
62
7
10
 719.936
20
 81.634
30
0
0
VERTEX
8
Halfen
62
7
10
 719.789
20
 81.584
30
0
0
VERTEX
8
Halfen
62
7
10
 719.646
20
 81.527
30
0
0
VERTEX
8
Halfen
62
7
10
 719.505
20
 81.464
30
0
0
VERTEX
8
Halfen
62
7
10
 719.366
20
 81.395
30
0
0
VERTEX
8
Halfen
62
7
10
 719.231
20
 81.32
30
0
0
VERTEX
8
Halfen
62
7
10
 719.1
20
 81.239
30
0
0
VERTEX
8
Halfen
62
7
10
 718.972
20
 81.153
30
0
0
VERTEX
8
Halfen
62
7
10
 718.848
20
 81.06
30
0
0
VERTEX
8
Halfen
62
7
10
 718.728
20
 80.963
30
0
0
VERTEX
8
Halfen
62
7
10
 718.613
20
 80.86
30
0
0
VERTEX
8
Halfen
62
7
10
 718.502
20
 80.752
30
0
0
VERTEX
8
Halfen
62
7
10
 718.397
20
 80.639
30
0
0
VERTEX
8
Halfen
62
7
10
 718.296
20
 80.522
30
0
0
VERTEX
8
Halfen
62
7
10
 717.41
20
 79.491
30
0
0
VERTEX
8
Halfen
62
7
10
 716.479
20
 78.5
30
0
0
VERTEX
8
Halfen
62
7
10
 715.505
20
 77.551
30
0
0
VERTEX
8
Halfen
62
7
10
 714.491
20
 76.646
30
0
0
VERTEX
8
Halfen
62
7
10
 713.437
20
 75.787
30
0
0
VERTEX
8
Halfen
62
7
10
 712.347
20
 74.975
30
0
0
VERTEX
8
Halfen
62
7
10
 711.222
20
 74.211
30
0
0
VERTEX
8
Halfen
62
7
10
 710.064
20
 73.499
30
0
0
VERTEX
8
Halfen
62
7
10
 708.876
20
 72.838
30
0
0
VERTEX
8
Halfen
62
7
10
 707.66
20
 72.23
30
0
0
VERTEX
8
Halfen
62
7
10
 706.418
20
 71.676
30
0
0
VERTEX
8
Halfen
62
7
10
 705.153
20
 71.178
30
0
0
VERTEX
8
Halfen
62
7
10
 703.867
20
 70.736
30
0
0
VERTEX
8
Halfen
62
7
10
 702.563
20
 70.351
30
0
0
VERTEX
8
Halfen
62
7
10
 701.243
20
 70.024
30
0
0
VERTEX
8
Halfen
62
7
10
 699.911
20
 69.756
30
0
0
VERTEX
8
Halfen
62
7
10
 698.567
20
 69.547
30
0
0
VERTEX
8
Halfen
62
7
10
 697.216
20
 69.397
30
0
0
VERTEX
8
Halfen
62
7
10
 695.859
20
 69.307
30
0
0
VERTEX
8
Halfen
62
7
10
 694.5
20
 69.277
30
0
0
VERTEX
8
Halfen
62
7
10
 672.5
20
 69.277
30
0
0
VERTEX
8
Halfen
62
7
10
 671.141
20
 69.307
30
0
0
VERTEX
8
Halfen
62
7
10
 669.784
20
 69.397
30
0
0
VERTEX
8
Halfen
62
7
10
 668.433
20
 69.547
30
0
0
VERTEX
8
Halfen
62
7
10
 667.089
20
 69.756
30
0
0
VERTEX
8
Halfen
62
7
10
 665.757
20
 70.024
30
0
0
VERTEX
8
Halfen
62
7
10
 664.437
20
 70.351
30
0
0
VERTEX
8
Halfen
62
7
10
 663.133
20
 70.736
30
0
0
VERTEX
8
Halfen
62
7
10
 661.847
20
 71.178
30
0
0
VERTEX
8
Halfen
62
7
10
 660.582
20
 71.676
30
0
0
VERTEX
8
Halfen
62
7
10
 659.34
20
 72.23
30
0
0
VERTEX
8
Halfen
62
7
10
 658.124
20
 72.838
30
0
0
VERTEX
8
Halfen
62
7
10
 656.936
20
 73.499
30
0
0
VERTEX
8
Halfen
62
7
10
 655.778
20
 74.211
30
0
0
VERTEX
8
Halfen
62
7
10
 654.653
20
 74.975
30
0
0
VERTEX
8
Halfen
62
7
10
 653.563
20
 75.787
30
0
0
VERTEX
8
Halfen
62
7
10
 652.509
20
 76.646
30
0
0
VERTEX
8
Halfen
62
7
10
 651.495
20
 77.551
30
0
0
VERTEX
8
Halfen
62
7
10
 650.521
20
 78.5
30
0
0
VERTEX
8
Halfen
62
7
10
 649.59
20
 79.491
30
0
0
VERTEX
8
Halfen
62
7
10
 648.704
20
 80.522
30
0
0
VERTEX
8
Halfen
62
7
10
 648.603
20
 80.639
30
0
0
VERTEX
8
Halfen
62
7
10
 648.498
20
 80.752
30
0
0
VERTEX
8
Halfen
62
7
10
 648.387
20
 80.86
30
0
0
VERTEX
8
Halfen
62
7
10
 648.272
20
 80.963
30
0
0
VERTEX
8
Halfen
62
7
10
 648.152
20
 81.06
30
0
0
VERTEX
8
Halfen
62
7
10
 648.028
20
 81.153
30
0
0
VERTEX
8
Halfen
62
7
10
 647.9
20
 81.239
30
0
0
VERTEX
8
Halfen
62
7
10
 647.769
20
 81.32
30
0
0
VERTEX
8
Halfen
62
7
10
 647.634
20
 81.395
30
0
0
VERTEX
8
Halfen
62
7
10
 647.495
20
 81.464
30
0
0
VERTEX
8
Halfen
62
7
10
 647.354
20
 81.527
30
0
0
VERTEX
8
Halfen
62
7
10
 647.211
20
 81.584
30
0
0
VERTEX
8
Halfen
62
7
10
 647.064
20
 81.634
30
0
0
VERTEX
8
Halfen
62
7
10
 646.916
20
 81.678
30
0
0
VERTEX
8
Halfen
62
7
10
 646.766
20
 81.715
30
0
0
VERTEX
8
Halfen
62
7
10
 646.615
20
 81.746
30
0
0
VERTEX
8
Halfen
62
7
10
 646.462
20
 81.769
30
0
0
VERTEX
8
Halfen
62
7
10
 646.309
20
 81.786
30
0
0
VERTEX
8
Halfen
62
7
10
 646.154
20
 81.797
30
0
0
VERTEX
8
Halfen
62
7
10
 646
20
 81.8
30
0
0
VERTEX
8
Halfen
62
7
10
 642
20
 81.8
30
0
0
VERTEX
8
Halfen
62
7
10
 642
20
-81.8
30
0
0
VERTEX
8
Halfen
62
7
10
 646
20
-81.8
30
0
0
VERTEX
8
Halfen
62
7
10
 646.154
20
-81.797
30
0
0
VERTEX
8
Halfen
62
7
10
 646.309
20
-81.786
30
0
0
VERTEX
8
Halfen
62
7
10
 646.462
20
-81.769
30
0
0
VERTEX
8
Halfen
62
7
10
 646.615
20
-81.746
30
0
0
VERTEX
8
Halfen
62
7
10
 646.766
20
-81.715
30
0
0
VERTEX
8
Halfen
62
7
10
 646.916
20
-81.678
30
0
0
VERTEX
8
Halfen
62
7
10
 647.064
20
-81.634
30
0
0
VERTEX
8
Halfen
62
7
10
 647.211
20
-81.584
30
0
0
VERTEX
8
Halfen
62
7
10
 647.354
20
-81.527
30
0
0
VERTEX
8
Halfen
62
7
10
 647.495
20
-81.464
30
0
0
VERTEX
8
Halfen
62
7
10
 647.634
20
-81.395
30
0
0
VERTEX
8
Halfen
62
7
10
 647.769
20
-81.32
30
0
0
VERTEX
8
Halfen
62
7
10
 647.9
20
-81.239
30
0
0
VERTEX
8
Halfen
62
7
10
 648.028
20
-81.153
30
0
0
VERTEX
8
Halfen
62
7
10
 648.152
20
-81.06
30
0
0
VERTEX
8
Halfen
62
7
10
 648.272
20
-80.963
30
0
0
VERTEX
8
Halfen
62
7
10
 648.387
20
-80.86
30
0
0
VERTEX
8
Halfen
62
7
10
 648.498
20
-80.752
30
0
0
VERTEX
8
Halfen
62
7
10
 648.603
20
-80.639
30
0
0
VERTEX
8
Halfen
62
7
10
 648.704
20
-80.522
30
0
0
VERTEX
8
Halfen
62
7
10
 649.59
20
-79.491
30
0
0
VERTEX
8
Halfen
62
7
10
 650.521
20
-78.5
30
0
0
VERTEX
8
Halfen
62
7
10
 651.495
20
-77.551
30
0
0
VERTEX
8
Halfen
62
7
10
 652.509
20
-76.646
30
0
0
VERTEX
8
Halfen
62
7
10
 653.563
20
-75.787
30
0
0
VERTEX
8
Halfen
62
7
10
 654.653
20
-74.975
30
0
0
VERTEX
8
Halfen
62
7
10
 655.778
20
-74.211
30
0
0
VERTEX
8
Halfen
62
7
10
 656.936
20
-73.499
30
0
0
VERTEX
8
Halfen
62
7
10
 658.124
20
-72.838
30
0
0
VERTEX
8
Halfen
62
7
10
 659.34
20
-72.23
30
0
0
VERTEX
8
Halfen
62
7
10
 660.582
20
-71.676
30
0
0
VERTEX
8
Halfen
62
7
10
 661.847
20
-71.178
30
0
0
VERTEX
8
Halfen
62
7
10
 663.133
20
-70.736
30
0
0
VERTEX
8
Halfen
62
7
10
 664.437
20
-70.351
30
0
0
VERTEX
8
Halfen
62
7
10
 665.757
20
-70.024
30
0
0
VERTEX
8
Halfen
62
7
10
 667.089
20
-69.756
30
0
0
VERTEX
8
Halfen
62
7
10
 668.433
20
-69.547
30
0
0
VERTEX
8
Halfen
62
7
10
 669.784
20
-69.397
30
0
0
VERTEX
8
Halfen
62
7
10
 671.141
20
-69.307
30
0
0
VERTEX
8
Halfen
62
7
10
 672.5
20
-69.277
30
0
0
VERTEX
8
Halfen
62
7
10
 694.5
20
-69.277
30
0
0
VERTEX
8
Halfen
62
7
10
 695.859
20
-69.307
30
0
0
VERTEX
8
Halfen
62
7
10
 697.216
20
-69.397
30
0
0
VERTEX
8
Halfen
62
7
10
 698.567
20
-69.547
30
0
0
VERTEX
8
Halfen
62
7
10
 699.911
20
-69.756
30
0
0
VERTEX
8
Halfen
62
7
10
 701.243
20
-70.024
30
0
0
VERTEX
8
Halfen
62
7
10
 702.563
20
-70.351
30
0
0
VERTEX
8
Halfen
62
7
10
 703.867
20
-70.736
30
0
0
VERTEX
8
Halfen
62
7
10
 705.153
20
-71.178
30
0
0
VERTEX
8
Halfen
62
7
10
 706.418
20
-71.676
30
0
0
VERTEX
8
Halfen
62
7
10
 707.66
20
-72.23
30
0
0
VERTEX
8
Halfen
62
7
10
 708.876
20
-72.838
30
0
0
VERTEX
8
Halfen
62
7
10
 710.064
20
-73.499
30
0
0
VERTEX
8
Halfen
62
7
10
 711.222
20
-74.211
30
0
0
VERTEX
8
Halfen
62
7
10
 712.347
20
-74.975
30
0
0
VERTEX
8
Halfen
62
7
10
 713.437
20
-75.787
30
0
0
VERTEX
8
Halfen
62
7
10
 714.491
20
-76.646
30
0
0
VERTEX
8
Halfen
62
7
10
 715.505
20
-77.551
30
0
0
VERTEX
8
Halfen
62
7
10
 716.479
20
-78.5
30
0
0
VERTEX
8
Halfen
62
7
10
 717.41
20
-79.491
30
0
0
VERTEX
8
Halfen
62
7
10
 718.296
20
-80.522
30
0
0
VERTEX
8
Halfen
62
7
10
 718.397
20
-80.639
30
0
0
VERTEX
8
Halfen
62
7
10
 718.502
20
-80.752
30
0
0
VERTEX
8
Halfen
62
7
10
 718.613
20
-80.86
30
0
0
VERTEX
8
Halfen
62
7
10
 718.728
20
-80.963
30
0
0
VERTEX
8
Halfen
62
7
10
 718.848
20
-81.06
30
0
0
VERTEX
8
Halfen
62
7
10
 718.972
20
-81.153
30
0
0
VERTEX
8
Halfen
62
7
10
 719.1
20
-81.239
30
0
0
VERTEX
8
Halfen
62
7
10
 719.231
20
-81.32
30
0
0
VERTEX
8
Halfen
62
7
10
 719.366
20
-81.395
30
0
0
VERTEX
8
Halfen
62
7
10
 719.505
20
-81.464
30
0
0
VERTEX
8
Halfen
62
7
10
 719.646
20
-81.527
30
0
0
VERTEX
8
Halfen
62
7
10
 719.789
20
-81.584
30
0
0
VERTEX
8
Halfen
62
7
10
 719.936
20
-81.634
30
0
0
VERTEX
8
Halfen
62
7
10
 720.084
20
-81.678
30
0
0
VERTEX
8
Halfen
62
7
10
 720.234
20
-81.715
30
0
0
VERTEX
8
Halfen
62
7
10
 720.385
20
-81.746
30
0
0
VERTEX
8
Halfen
62
7
10
 720.538
20
-81.769
30
0
0
VERTEX
8
Halfen
62
7
10
 720.691
20
-81.786
30
0
0
VERTEX
8
Halfen
62
7
10
 720.846
20
-81.797
30
0
0
VERTEX
8
Halfen
62
7
10
 721
20
-81.8
30
0
0
SEQEND
8
Halfen
0
POLYLINE
8
Halfen
62
7
66
1
10
0.0
20
0.0
30
0.0
70
1
0
VERTEX
8
Halfen
62
7
10
 710
20
-457.177
30
0
0
VERTEX
8
Halfen
62
7
10
 710
20
-81.213
30
0
0
VERTEX
8
Halfen
62
7
10
 709.705
20
-77.459
30
0
0
VERTEX
8
Halfen
62
7
10
 708.825
20
-73.797
30
0
0
VERTEX
8
Halfen
62
7
10
 707.384
20
-70.317
30
0
0
VERTEX
8
Halfen
62
7
10
 705.416
20
-67.106
30
0
0
VERTEX
8
Halfen
62
7
10
 702.971
20
-64.243
30
0
0
VERTEX
8
Halfen
62
7
10
 501.272
20
 137.456
30
0
0
VERTEX
8
Halfen
62
7
10
 499.438
20
 139.604
30
0
0
VERTEX
8
Halfen
62
7
10
 497.962
20
 142.012
30
0
0
VERTEX
8
Halfen
62
7
10
 496.881
20
 144.621
30
0
0
VERTEX
8
Halfen
62
7
10
 496.222
20
 147.368
30
0
0
VERTEX
8
Halfen
62
7
10
 496
20
 150.184
30
0
0
VERTEX
8
Halfen
62
7
10
 496
20
 191.147
30
0
0
VERTEX
8
Halfen
62
7
10
 496.222
20
 193.963
30
0
0
VERTEX
8
Halfen
62
7
10
 496.881
20
 196.71
30
0
0
VERTEX
8
Halfen
62
7
10
 497.962
20
 199.319
30
0
0
VERTEX
8
Halfen
62
7
10
 499.438
20
 201.728
30
0
0
VERTEX
8
Halfen
62
7
10
 501.272
20
 203.875
30
0
0
VERTEX
8
Halfen
62
7
10
 503.42
20
 205.71
30
0
0
VERTEX
8
Halfen
62
7
10
 505.828
20
 207.186
30
0
0
VERTEX
8
Halfen
62
7
10
 508.438
20
 208.266
30
0
0
VERTEX
8
Halfen
62
7
10
 511.184
20
 208.926
30
0
0
VERTEX
8
Halfen
62
7
10
 514
20
 209.147
30
0
0
VERTEX
8
Halfen
62
7
10
 610
20
 209.147
30
0
0
VERTEX
8
Halfen
62
7
10
 610
20
 215.147
30
0
0
VERTEX
8
Halfen
62
7
10
 514
20
 215.147
30
0
0
VERTEX
8
Halfen
62
7
10
 510.246
20
 214.852
30
0
0
VERTEX
8
Halfen
62
7
10
 506.584
20
 213.973
30
0
0
VERTEX
8
Halfen
62
7
10
 503.104
20
 212.532
30
0
0
VERTEX
8
Halfen
62
7
10
 499.893
20
 210.564
30
0
0
VERTEX
8
Halfen
62
7
10
 497.029
20
 208.118
30
0
0
VERTEX
8
Halfen
62
7
10
 494.584
20
 205.254
30
0
0
VERTEX
8
Halfen
62
7
10
 492.616
20
 202.043
30
0
0
VERTEX
8
Halfen
62
7
10
 491.175
20
 198.564
30
0
0
VERTEX
8
Halfen
62
7
10
 490.295
20
 194.902
30
0
0
VERTEX
8
Halfen
62
7
10
 490
20
 191.147
30
0
0
VERTEX
8
Halfen
62
7
10
 490
20
 150.184
30
0
0
VERTEX
8
Halfen
62
7
10
 490.295
20
 146.429
30
0
0
VERTEX
8
Halfen
62
7
10
 491.175
20
 142.767
30
0
0
VERTEX
8
Halfen
62
7
10
 492.616
20
 139.288
30
0
0
VERTEX
8
Halfen
62
7
10
 494.584
20
 136.077
30
0
0
VERTEX
8
Halfen
62
7
10
 497.029
20
 133.213
30
0
0
VERTEX
8
Halfen
62
7
10
 698.728
20
-68.485
30
0
0
VERTEX
8
Halfen
62
7
10
 700.562
20
-70.633
30
0
0
VERTEX
8
Halfen
62
7
10
 702.038
20
-73.041
30
0
0
VERTEX
8
Halfen
62
7
10
 703.119
20
-75.651
30
0
0
VERTEX
8
Halfen
62
7
10
 703.778
20
-78.397
30
0
0
VERTEX
8
Halfen
62
7
10
 704
20
-81.213
30
0
0
VERTEX
8
Halfen
62
7
10
 704
20
-457.177
30
0
0
SEQEND
8
Halfen
0
POLYLINE
8
Halfen
62
7
66
1
10
0.0
20
0.0
30
0.0
70
1
0
VERTEX
8
Halfen
62
7
10
 490
20
-457.324
30
0
0
VERTEX
8
Halfen
62
7
10
 490
20
-81.361
30
0
0
VERTEX
8
Halfen
62
7
10
 490.295
20
-77.606
30
0
0
VERTEX
8
Halfen
62
7
10
 491.175
20
-73.944
30
0
0
VERTEX
8
Halfen
62
7
10
 492.616
20
-70.465
30
0
0
VERTEX
8
Halfen
62
7
10
 494.584
20
-67.254
30
0
0
VERTEX
8
Halfen
62
7
10
 497.029
20
-64.39
30
0
0
VERTEX
8
Halfen
62
7
10
 698.728
20
 137.308
30
0
0
VERTEX
8
Halfen
62
7
10
 700.562
20
 139.456
30
0
0
VERTEX
8
Halfen
62
7
10
 702.038
20
 141.865
30
0
0
VERTEX
8
Halfen
62
7
10
 703.119
20
 144.474
30
0
0
VERTEX
8
Halfen
62
7
10
 703.778
20
 147.221
30
0
0
VERTEX
8
Halfen
62
7
10
 704
20
 150.036
30
0
0
VERTEX
8
Halfen
62
7
10
 704
20
 191
30
0
0
VERTEX
8
Halfen
62
7
10
 703.778
20
 193.816
30
0
0
VERTEX
8
Halfen
62
7
10
 703.119
20
 196.562
30
0
0
VERTEX
8
Halfen
62
7
10
 702.038
20
 199.172
30
0
0
VERTEX
8
Halfen
62
7
10
 700.562
20
 201.58
30
0
0
VERTEX
8
Halfen
62
7
10
 698.728
20
 203.728
30
0
0
VERTEX
8
Halfen
62
7
10
 696.58
20
 205.562
30
0
0
VERTEX
8
Halfen
62
7
10
 694.172
20
 207.038
30
0
0
VERTEX
8
Halfen
62
7
10
 691.562
20
 208.119
30
0
0
VERTEX
8
Halfen
62
7
10
 688.816
20
 208.778
30
0
0
VERTEX
8
Halfen
62
7
10
 686
20
 209
30
0
0
VERTEX
8
Halfen
62
7
10
 590
20
 209
30
0
0
VERTEX
8
Halfen
62
7
10
 590
20
 215
30
0
0
VERTEX
8
Halfen
62
7
10
 686
20
 215
30
0
0
VERTEX
8
Halfen
62
7
10
 689.754
20
 214.705
30
0
0
VERTEX
8
Halfen
62
7
10
 693.416
20
 213.825
30
0
0
VERTEX
8
Halfen
62
7
10
 696.896
20
 212.384
30
0
0
VERTEX
8
Halfen
62
7
10
 700.107
20
 210.416
30
0
0
VERTEX
8
Halfen
62
7
10
 702.971
20
 207.971
30
0
0
VERTEX
8
Halfen
62
7
10
 705.416
20
 205.107
30
0
0
VERTEX
8
Halfen
62
7
10
 707.384
20
 201.896
30
0
0
VERTEX
8
Halfen
62
7
10
 708.825
20
 198.416
30
0
0
VERTEX
8
Halfen
62
7
10
 709.705
20
 194.754
30
0
0
VERTEX
8
Halfen
62
7
10
 710
20
 191
30
0
0
VERTEX
8
Halfen
62
7
10
 710
20
 150.036
30
0
0
VERTEX
8
Halfen
62
7
10
 709.705
20
 146.282
30
0
0
VERTEX
8
Halfen
62
7
10
 708.825
20
 142.62
30
0
0
VERTEX
8
Halfen
62
7
10
 707.384
20
 139.141
30
0
0
VERTEX
8
Halfen
62
7
10
 705.416
20
 135.929
30
0
0
VERTEX
8
Halfen
62
7
10
 702.971
20
 133.066
30
0
0
VERTEX
8
Halfen
62
7
10
 501.272
20
-68.633
30
0
0
VERTEX
8
Halfen
62
7
10
 499.438
20
-70.78
30
0
0
VERTEX
8
Halfen
62
7
10
 497.962
20
-73.189
30
0
0
VERTEX
8
Halfen
62
7
10
 496.881
20
-75.798
30
0
0
VERTEX
8
Halfen
62
7
10
 496.222
20
-78.545
30
0
0
VERTEX
8
Halfen
62
7
10
 496
20
-81.361
30
0
0
VERTEX
8
Halfen
62
7
10
 496
20
-457.324
30
0
0
SEQEND
8
Halfen
0
ENDSEC
0
EOF
