0
SECTION
2
HEADER
9
$EXTMIN
10
 0
20
 100
30
0.0
9
$EXTMAX
10
 0
20
 100
30
0.0
9
$LIMMIN
10
 100
20
 0
9
$LIMMAX
10
 0
20
 100
9
$PSLTSCALE
70
1
0
ENDSEC
0
SECTION
2
TABLES
0
TABLE
2
LAYER
70
2
0
LAYER
2
0
70
0
62
7
6
CONTINUOUS
0
LAYER
2
Halfen
70
0
62
7
6
CONTINUOUS
0
ENDTAB
0
ENDSEC
0
SECTION
2
ENTITIES
0
POLYLINE
8
Halfen
62
7
66
1
10
0.0
20
0.0
30
0.0
70
1
0
VERTEX
8
Halfen
62
7
10
 0
20
-73.5
30
0
0
VERTEX
8
Halfen
62
7
10
 1000
20
-73.5
30
0
0
VERTEX
8
Halfen
62
7
10
 1000
20
 73.5
30
0
0
VERTEX
8
Halfen
62
7
10
 0
20
 73.5
30
0
0
SEQEND
8
Halfen
0
POLYLINE
8
Halfen
62
7
66
1
10
0.0
20
0.0
30
0.0
70
1
0
VERTEX
8
Halfen
62
7
10
 0
20
-60
30
0
0
VERTEX
8
Halfen
62
7
10
 1000
20
-60
30
0
0
VERTEX
8
Halfen
62
7
10
 1000
20
 60
30
0
0
VERTEX
8
Halfen
62
7
10
 0
20
 60
30
0
0
SEQEND
8
Halfen
0
POLYLINE
8
Halfen
62
7
66
1
10
0.0
20
0.0
30
0.0
70
1
0
VERTEX
8
Halfen
62
7
10
 20
20
-32.5
30
0
0
VERTEX
8
Halfen
62
7
10
 37
20
-1.5
30
0
0
VERTEX
8
Halfen
62
7
10
 28
20
-1.5
30
0
0
VERTEX
8
Halfen
62
7
10
 28
20
 32.5
30
0
0
VERTEX
8
Halfen
62
7
10
 12
20
 32.5
30
0
0
VERTEX
8
Halfen
62
7
10
 12
20
-1.5
30
0
0
VERTEX
8
Halfen
62
7
10
 3
20
-1.5
30
0
0
SEQEND
8
Halfen
0
POLYLINE
8
Halfen
62
7
66
1
10
0.0
20
0.0
30
0.0
70
1
0
VERTEX
8
Halfen
62
7
10
 980
20
-32.5
30
0
0
VERTEX
8
Halfen
62
7
10
 997
20
-1.5
30
0
0
VERTEX
8
Halfen
62
7
10
 988
20
-1.5
30
0
0
VERTEX
8
Halfen
62
7
10
 988
20
 32.5
30
0
0
VERTEX
8
Halfen
62
7
10
 972
20
 32.5
30
0
0
VERTEX
8
Halfen
62
7
10
 972
20
-1.5
30
0
0
VERTEX
8
Halfen
62
7
10
 963
20
-1.5
30
0
0
SEQEND
8
Halfen
0
POLYLINE
8
Halfen
62
7
66
1
10
0.0
20
0.0
30
0.0
70
1
0
VERTEX
8
Halfen
62
7
10
 68
20
-775
30
0
0
VERTEX
8
Halfen
62
7
10
 68
20
-160
30
0
0
VERTEX
8
Halfen
62
7
10
 56
20
-160
30
0
0
VERTEX
8
Halfen
62
7
10
 56
20
-775
30
0
0
SEQEND
8
Halfen
0
POLYLINE
8
Halfen
62
7
66
1
10
0.0
20
0.0
30
0.0
70
1
0
VERTEX
8
Halfen
62
7
10
 67.25
20
-160
30
0
0
VERTEX
8
Halfen
62
7
10
 67.25
20
-62
30
0
0
VERTEX
8
Halfen
62
7
10
 56.75
20
-62
30
0
0
VERTEX
8
Halfen
62
7
10
 56.75
20
-160
30
0
0
SEQEND
8
Halfen
0
POLYLINE
8
Halfen
62
7
66
1
10
0.0
20
0.0
30
0.0
70
1
0
VERTEX
8
Halfen
62
7
10
 68
20
-62
30
0
0
VERTEX
8
Halfen
62
7
10
 68
20
-60
30
0
0
VERTEX
8
Halfen
62
7
10
 56
20
-60
30
0
0
VERTEX
8
Halfen
62
7
10
 56
20
-62
30
0
0
SEQEND
8
Halfen
0
POLYLINE
8
Halfen
62
7
66
1
10
0.0
20
0.0
30
0.0
70
1
0
VERTEX
8
Halfen
62
7
10
 67.25
20
-60
30
0
0
VERTEX
8
Halfen
62
7
10
 67.25
20
 60
30
0
0
VERTEX
8
Halfen
62
7
10
 56.75
20
 60
30
0
0
VERTEX
8
Halfen
62
7
10
 56.75
20
-60
30
0
0
SEQEND
8
Halfen
0
POLYLINE
8
Halfen
62
7
66
1
10
0.0
20
0.0
30
0.0
70
1
0
VERTEX
8
Halfen
62
7
10
 68
20
 60
30
0
0
VERTEX
8
Halfen
62
7
10
 68
20
 62
30
0
0
VERTEX
8
Halfen
62
7
10
 56
20
 62
30
0
0
VERTEX
8
Halfen
62
7
10
 56
20
 60
30
0
0
SEQEND
8
Halfen
0
POLYLINE
8
Halfen
62
7
66
1
10
0.0
20
0.0
30
0.0
70
1
0
VERTEX
8
Halfen
62
7
10
 67.25
20
 62
30
0
0
VERTEX
8
Halfen
62
7
10
 67.25
20
 160
30
0
0
VERTEX
8
Halfen
62
7
10
 56.75
20
 160
30
0
0
VERTEX
8
Halfen
62
7
10
 56.75
20
 62
30
0
0
SEQEND
8
Halfen
0
POLYLINE
8
Halfen
62
7
66
1
10
0.0
20
0.0
30
0.0
70
1
0
VERTEX
8
Halfen
62
7
10
 68
20
 160
30
0
0
VERTEX
8
Halfen
62
7
10
 68
20
 775
30
0
0
VERTEX
8
Halfen
62
7
10
 56
20
 775
30
0
0
VERTEX
8
Halfen
62
7
10
 56
20
 160
30
0
0
SEQEND
8
Halfen
0
POLYLINE
8
Halfen
62
7
66
1
10
0.0
20
0.0
30
0.0
70
1
0
VERTEX
8
Halfen
62
7
10
 152
20
-775
30
0
0
VERTEX
8
Halfen
62
7
10
 152
20
-160
30
0
0
VERTEX
8
Halfen
62
7
10
 140
20
-160
30
0
0
VERTEX
8
Halfen
62
7
10
 140
20
-775
30
0
0
SEQEND
8
Halfen
0
POLYLINE
8
Halfen
62
7
66
1
10
0.0
20
0.0
30
0.0
70
1
0
VERTEX
8
Halfen
62
7
10
 151.25
20
-160
30
0
0
VERTEX
8
Halfen
62
7
10
 151.25
20
-62
30
0
0
VERTEX
8
Halfen
62
7
10
 140.75
20
-62
30
0
0
VERTEX
8
Halfen
62
7
10
 140.75
20
-160
30
0
0
SEQEND
8
Halfen
0
POLYLINE
8
Halfen
62
7
66
1
10
0.0
20
0.0
30
0.0
70
1
0
VERTEX
8
Halfen
62
7
10
 152
20
-62
30
0
0
VERTEX
8
Halfen
62
7
10
 152
20
-60
30
0
0
VERTEX
8
Halfen
62
7
10
 140
20
-60
30
0
0
VERTEX
8
Halfen
62
7
10
 140
20
-62
30
0
0
SEQEND
8
Halfen
0
POLYLINE
8
Halfen
62
7
66
1
10
0.0
20
0.0
30
0.0
70
1
0
VERTEX
8
Halfen
62
7
10
 151.25
20
-60
30
0
0
VERTEX
8
Halfen
62
7
10
 151.25
20
 60
30
0
0
VERTEX
8
Halfen
62
7
10
 140.75
20
 60
30
0
0
VERTEX
8
Halfen
62
7
10
 140.75
20
-60
30
0
0
SEQEND
8
Halfen
0
POLYLINE
8
Halfen
62
7
66
1
10
0.0
20
0.0
30
0.0
70
1
0
VERTEX
8
Halfen
62
7
10
 152
20
 60
30
0
0
VERTEX
8
Halfen
62
7
10
 152
20
 62
30
0
0
VERTEX
8
Halfen
62
7
10
 140
20
 62
30
0
0
VERTEX
8
Halfen
62
7
10
 140
20
 60
30
0
0
SEQEND
8
Halfen
0
POLYLINE
8
Halfen
62
7
66
1
10
0.0
20
0.0
30
0.0
70
1
0
VERTEX
8
Halfen
62
7
10
 151.25
20
 62
30
0
0
VERTEX
8
Halfen
62
7
10
 151.25
20
 160
30
0
0
VERTEX
8
Halfen
62
7
10
 140.75
20
 160
30
0
0
VERTEX
8
Halfen
62
7
10
 140.75
20
 62
30
0
0
SEQEND
8
Halfen
0
POLYLINE
8
Halfen
62
7
66
1
10
0.0
20
0.0
30
0.0
70
1
0
VERTEX
8
Halfen
62
7
10
 152
20
 160
30
0
0
VERTEX
8
Halfen
62
7
10
 152
20
 775
30
0
0
VERTEX
8
Halfen
62
7
10
 140
20
 775
30
0
0
VERTEX
8
Halfen
62
7
10
 140
20
 160
30
0
0
SEQEND
8
Halfen
0
POLYLINE
8
Halfen
62
7
66
1
10
0.0
20
0.0
30
0.0
70
1
0
VERTEX
8
Halfen
62
7
10
 200
20
-775
30
0
0
VERTEX
8
Halfen
62
7
10
 200
20
-160
30
0
0
VERTEX
8
Halfen
62
7
10
 188
20
-160
30
0
0
VERTEX
8
Halfen
62
7
10
 188
20
-775
30
0
0
SEQEND
8
Halfen
0
POLYLINE
8
Halfen
62
7
66
1
10
0.0
20
0.0
30
0.0
70
1
0
VERTEX
8
Halfen
62
7
10
 199.25
20
-160
30
0
0
VERTEX
8
Halfen
62
7
10
 199.25
20
-62
30
0
0
VERTEX
8
Halfen
62
7
10
 188.75
20
-62
30
0
0
VERTEX
8
Halfen
62
7
10
 188.75
20
-160
30
0
0
SEQEND
8
Halfen
0
POLYLINE
8
Halfen
62
7
66
1
10
0.0
20
0.0
30
0.0
70
1
0
VERTEX
8
Halfen
62
7
10
 200
20
-62
30
0
0
VERTEX
8
Halfen
62
7
10
 200
20
-60
30
0
0
VERTEX
8
Halfen
62
7
10
 188
20
-60
30
0
0
VERTEX
8
Halfen
62
7
10
 188
20
-62
30
0
0
SEQEND
8
Halfen
0
POLYLINE
8
Halfen
62
7
66
1
10
0.0
20
0.0
30
0.0
70
1
0
VERTEX
8
Halfen
62
7
10
 199.25
20
-60
30
0
0
VERTEX
8
Halfen
62
7
10
 199.25
20
 60
30
0
0
VERTEX
8
Halfen
62
7
10
 188.75
20
 60
30
0
0
VERTEX
8
Halfen
62
7
10
 188.75
20
-60
30
0
0
SEQEND
8
Halfen
0
POLYLINE
8
Halfen
62
7
66
1
10
0.0
20
0.0
30
0.0
70
1
0
VERTEX
8
Halfen
62
7
10
 200
20
 60
30
0
0
VERTEX
8
Halfen
62
7
10
 200
20
 62
30
0
0
VERTEX
8
Halfen
62
7
10
 188
20
 62
30
0
0
VERTEX
8
Halfen
62
7
10
 188
20
 60
30
0
0
SEQEND
8
Halfen
0
POLYLINE
8
Halfen
62
7
66
1
10
0.0
20
0.0
30
0.0
70
1
0
VERTEX
8
Halfen
62
7
10
 199.25
20
 62
30
0
0
VERTEX
8
Halfen
62
7
10
 199.25
20
 160
30
0
0
VERTEX
8
Halfen
62
7
10
 188.75
20
 160
30
0
0
VERTEX
8
Halfen
62
7
10
 188.75
20
 62
30
0
0
SEQEND
8
Halfen
0
POLYLINE
8
Halfen
62
7
66
1
10
0.0
20
0.0
30
0.0
70
1
0
VERTEX
8
Halfen
62
7
10
 200
20
 160
30
0
0
VERTEX
8
Halfen
62
7
10
 200
20
 775
30
0
0
VERTEX
8
Halfen
62
7
10
 188
20
 775
30
0
0
VERTEX
8
Halfen
62
7
10
 188
20
 160
30
0
0
SEQEND
8
Halfen
0
POLYLINE
8
Halfen
62
7
66
1
10
0.0
20
0.0
30
0.0
70
1
0
VERTEX
8
Halfen
62
7
10
 284
20
-775
30
0
0
VERTEX
8
Halfen
62
7
10
 284
20
-160
30
0
0
VERTEX
8
Halfen
62
7
10
 272
20
-160
30
0
0
VERTEX
8
Halfen
62
7
10
 272
20
-775
30
0
0
SEQEND
8
Halfen
0
POLYLINE
8
Halfen
62
7
66
1
10
0.0
20
0.0
30
0.0
70
1
0
VERTEX
8
Halfen
62
7
10
 283.25
20
-160
30
0
0
VERTEX
8
Halfen
62
7
10
 283.25
20
-62
30
0
0
VERTEX
8
Halfen
62
7
10
 272.75
20
-62
30
0
0
VERTEX
8
Halfen
62
7
10
 272.75
20
-160
30
0
0
SEQEND
8
Halfen
0
POLYLINE
8
Halfen
62
7
66
1
10
0.0
20
0.0
30
0.0
70
1
0
VERTEX
8
Halfen
62
7
10
 284
20
-62
30
0
0
VERTEX
8
Halfen
62
7
10
 284
20
-60
30
0
0
VERTEX
8
Halfen
62
7
10
 272
20
-60
30
0
0
VERTEX
8
Halfen
62
7
10
 272
20
-62
30
0
0
SEQEND
8
Halfen
0
POLYLINE
8
Halfen
62
7
66
1
10
0.0
20
0.0
30
0.0
70
1
0
VERTEX
8
Halfen
62
7
10
 283.25
20
-60
30
0
0
VERTEX
8
Halfen
62
7
10
 283.25
20
 60
30
0
0
VERTEX
8
Halfen
62
7
10
 272.75
20
 60
30
0
0
VERTEX
8
Halfen
62
7
10
 272.75
20
-60
30
0
0
SEQEND
8
Halfen
0
POLYLINE
8
Halfen
62
7
66
1
10
0.0
20
0.0
30
0.0
70
1
0
VERTEX
8
Halfen
62
7
10
 284
20
 60
30
0
0
VERTEX
8
Halfen
62
7
10
 284
20
 62
30
0
0
VERTEX
8
Halfen
62
7
10
 272
20
 62
30
0
0
VERTEX
8
Halfen
62
7
10
 272
20
 60
30
0
0
SEQEND
8
Halfen
0
POLYLINE
8
Halfen
62
7
66
1
10
0.0
20
0.0
30
0.0
70
1
0
VERTEX
8
Halfen
62
7
10
 283.25
20
 62
30
0
0
VERTEX
8
Halfen
62
7
10
 283.25
20
 160
30
0
0
VERTEX
8
Halfen
62
7
10
 272.75
20
 160
30
0
0
VERTEX
8
Halfen
62
7
10
 272.75
20
 62
30
0
0
SEQEND
8
Halfen
0
POLYLINE
8
Halfen
62
7
66
1
10
0.0
20
0.0
30
0.0
70
1
0
VERTEX
8
Halfen
62
7
10
 284
20
 160
30
0
0
VERTEX
8
Halfen
62
7
10
 284
20
 775
30
0
0
VERTEX
8
Halfen
62
7
10
 272
20
 775
30
0
0
VERTEX
8
Halfen
62
7
10
 272
20
 160
30
0
0
SEQEND
8
Halfen
0
POLYLINE
8
Halfen
62
7
66
1
10
0.0
20
0.0
30
0.0
70
1
0
VERTEX
8
Halfen
62
7
10
 332
20
-775
30
0
0
VERTEX
8
Halfen
62
7
10
 332
20
-160
30
0
0
VERTEX
8
Halfen
62
7
10
 320
20
-160
30
0
0
VERTEX
8
Halfen
62
7
10
 320
20
-775
30
0
0
SEQEND
8
Halfen
0
POLYLINE
8
Halfen
62
7
66
1
10
0.0
20
0.0
30
0.0
70
1
0
VERTEX
8
Halfen
62
7
10
 331.25
20
-160
30
0
0
VERTEX
8
Halfen
62
7
10
 331.25
20
-62
30
0
0
VERTEX
8
Halfen
62
7
10
 320.75
20
-62
30
0
0
VERTEX
8
Halfen
62
7
10
 320.75
20
-160
30
0
0
SEQEND
8
Halfen
0
POLYLINE
8
Halfen
62
7
66
1
10
0.0
20
0.0
30
0.0
70
1
0
VERTEX
8
Halfen
62
7
10
 332
20
-62
30
0
0
VERTEX
8
Halfen
62
7
10
 332
20
-60
30
0
0
VERTEX
8
Halfen
62
7
10
 320
20
-60
30
0
0
VERTEX
8
Halfen
62
7
10
 320
20
-62
30
0
0
SEQEND
8
Halfen
0
POLYLINE
8
Halfen
62
7
66
1
10
0.0
20
0.0
30
0.0
70
1
0
VERTEX
8
Halfen
62
7
10
 331.25
20
-60
30
0
0
VERTEX
8
Halfen
62
7
10
 331.25
20
 60
30
0
0
VERTEX
8
Halfen
62
7
10
 320.75
20
 60
30
0
0
VERTEX
8
Halfen
62
7
10
 320.75
20
-60
30
0
0
SEQEND
8
Halfen
0
POLYLINE
8
Halfen
62
7
66
1
10
0.0
20
0.0
30
0.0
70
1
0
VERTEX
8
Halfen
62
7
10
 332
20
 60
30
0
0
VERTEX
8
Halfen
62
7
10
 332
20
 62
30
0
0
VERTEX
8
Halfen
62
7
10
 320
20
 62
30
0
0
VERTEX
8
Halfen
62
7
10
 320
20
 60
30
0
0
SEQEND
8
Halfen
0
POLYLINE
8
Halfen
62
7
66
1
10
0.0
20
0.0
30
0.0
70
1
0
VERTEX
8
Halfen
62
7
10
 331.25
20
 62
30
0
0
VERTEX
8
Halfen
62
7
10
 331.25
20
 160
30
0
0
VERTEX
8
Halfen
62
7
10
 320.75
20
 160
30
0
0
VERTEX
8
Halfen
62
7
10
 320.75
20
 62
30
0
0
SEQEND
8
Halfen
0
POLYLINE
8
Halfen
62
7
66
1
10
0.0
20
0.0
30
0.0
70
1
0
VERTEX
8
Halfen
62
7
10
 332
20
 160
30
0
0
VERTEX
8
Halfen
62
7
10
 332
20
 775
30
0
0
VERTEX
8
Halfen
62
7
10
 320
20
 775
30
0
0
VERTEX
8
Halfen
62
7
10
 320
20
 160
30
0
0
SEQEND
8
Halfen
0
POLYLINE
8
Halfen
62
7
66
1
10
0.0
20
0.0
30
0.0
70
1
0
VERTEX
8
Halfen
62
7
10
 416
20
-775
30
0
0
VERTEX
8
Halfen
62
7
10
 416
20
-160
30
0
0
VERTEX
8
Halfen
62
7
10
 404
20
-160
30
0
0
VERTEX
8
Halfen
62
7
10
 404
20
-775
30
0
0
SEQEND
8
Halfen
0
POLYLINE
8
Halfen
62
7
66
1
10
0.0
20
0.0
30
0.0
70
1
0
VERTEX
8
Halfen
62
7
10
 415.25
20
-160
30
0
0
VERTEX
8
Halfen
62
7
10
 415.25
20
-62
30
0
0
VERTEX
8
Halfen
62
7
10
 404.75
20
-62
30
0
0
VERTEX
8
Halfen
62
7
10
 404.75
20
-160
30
0
0
SEQEND
8
Halfen
0
POLYLINE
8
Halfen
62
7
66
1
10
0.0
20
0.0
30
0.0
70
1
0
VERTEX
8
Halfen
62
7
10
 416
20
-62
30
0
0
VERTEX
8
Halfen
62
7
10
 416
20
-60
30
0
0
VERTEX
8
Halfen
62
7
10
 404
20
-60
30
0
0
VERTEX
8
Halfen
62
7
10
 404
20
-62
30
0
0
SEQEND
8
Halfen
0
POLYLINE
8
Halfen
62
7
66
1
10
0.0
20
0.0
30
0.0
70
1
0
VERTEX
8
Halfen
62
7
10
 415.25
20
-60
30
0
0
VERTEX
8
Halfen
62
7
10
 415.25
20
 60
30
0
0
VERTEX
8
Halfen
62
7
10
 404.75
20
 60
30
0
0
VERTEX
8
Halfen
62
7
10
 404.75
20
-60
30
0
0
SEQEND
8
Halfen
0
POLYLINE
8
Halfen
62
7
66
1
10
0.0
20
0.0
30
0.0
70
1
0
VERTEX
8
Halfen
62
7
10
 416
20
 60
30
0
0
VERTEX
8
Halfen
62
7
10
 416
20
 62
30
0
0
VERTEX
8
Halfen
62
7
10
 404
20
 62
30
0
0
VERTEX
8
Halfen
62
7
10
 404
20
 60
30
0
0
SEQEND
8
Halfen
0
POLYLINE
8
Halfen
62
7
66
1
10
0.0
20
0.0
30
0.0
70
1
0
VERTEX
8
Halfen
62
7
10
 415.25
20
 62
30
0
0
VERTEX
8
Halfen
62
7
10
 415.25
20
 160
30
0
0
VERTEX
8
Halfen
62
7
10
 404.75
20
 160
30
0
0
VERTEX
8
Halfen
62
7
10
 404.75
20
 62
30
0
0
SEQEND
8
Halfen
0
POLYLINE
8
Halfen
62
7
66
1
10
0.0
20
0.0
30
0.0
70
1
0
VERTEX
8
Halfen
62
7
10
 416
20
 160
30
0
0
VERTEX
8
Halfen
62
7
10
 416
20
 775
30
0
0
VERTEX
8
Halfen
62
7
10
 404
20
 775
30
0
0
VERTEX
8
Halfen
62
7
10
 404
20
 160
30
0
0
SEQEND
8
Halfen
0
POLYLINE
8
Halfen
62
7
66
1
10
0.0
20
0.0
30
0.0
70
1
0
VERTEX
8
Halfen
62
7
10
 596
20
-775
30
0
0
VERTEX
8
Halfen
62
7
10
 596
20
-160
30
0
0
VERTEX
8
Halfen
62
7
10
 584
20
-160
30
0
0
VERTEX
8
Halfen
62
7
10
 584
20
-775
30
0
0
SEQEND
8
Halfen
0
POLYLINE
8
Halfen
62
7
66
1
10
0.0
20
0.0
30
0.0
70
1
0
VERTEX
8
Halfen
62
7
10
 595.25
20
-160
30
0
0
VERTEX
8
Halfen
62
7
10
 595.25
20
-62
30
0
0
VERTEX
8
Halfen
62
7
10
 584.75
20
-62
30
0
0
VERTEX
8
Halfen
62
7
10
 584.75
20
-160
30
0
0
SEQEND
8
Halfen
0
POLYLINE
8
Halfen
62
7
66
1
10
0.0
20
0.0
30
0.0
70
1
0
VERTEX
8
Halfen
62
7
10
 596
20
-62
30
0
0
VERTEX
8
Halfen
62
7
10
 596
20
-60
30
0
0
VERTEX
8
Halfen
62
7
10
 584
20
-60
30
0
0
VERTEX
8
Halfen
62
7
10
 584
20
-62
30
0
0
SEQEND
8
Halfen
0
POLYLINE
8
Halfen
62
7
66
1
10
0.0
20
0.0
30
0.0
70
1
0
VERTEX
8
Halfen
62
7
10
 595.25
20
-60
30
0
0
VERTEX
8
Halfen
62
7
10
 595.25
20
 60
30
0
0
VERTEX
8
Halfen
62
7
10
 584.75
20
 60
30
0
0
VERTEX
8
Halfen
62
7
10
 584.75
20
-60
30
0
0
SEQEND
8
Halfen
0
POLYLINE
8
Halfen
62
7
66
1
10
0.0
20
0.0
30
0.0
70
1
0
VERTEX
8
Halfen
62
7
10
 596
20
 60
30
0
0
VERTEX
8
Halfen
62
7
10
 596
20
 62
30
0
0
VERTEX
8
Halfen
62
7
10
 584
20
 62
30
0
0
VERTEX
8
Halfen
62
7
10
 584
20
 60
30
0
0
SEQEND
8
Halfen
0
POLYLINE
8
Halfen
62
7
66
1
10
0.0
20
0.0
30
0.0
70
1
0
VERTEX
8
Halfen
62
7
10
 595.25
20
 62
30
0
0
VERTEX
8
Halfen
62
7
10
 595.25
20
 160
30
0
0
VERTEX
8
Halfen
62
7
10
 584.75
20
 160
30
0
0
VERTEX
8
Halfen
62
7
10
 584.75
20
 62
30
0
0
SEQEND
8
Halfen
0
POLYLINE
8
Halfen
62
7
66
1
10
0.0
20
0.0
30
0.0
70
1
0
VERTEX
8
Halfen
62
7
10
 596
20
 160
30
0
0
VERTEX
8
Halfen
62
7
10
 596
20
 775
30
0
0
VERTEX
8
Halfen
62
7
10
 584
20
 775
30
0
0
VERTEX
8
Halfen
62
7
10
 584
20
 160
30
0
0
SEQEND
8
Halfen
0
POLYLINE
8
Halfen
62
7
66
1
10
0.0
20
0.0
30
0.0
70
1
0
VERTEX
8
Halfen
62
7
10
 680
20
-775
30
0
0
VERTEX
8
Halfen
62
7
10
 680
20
-160
30
0
0
VERTEX
8
Halfen
62
7
10
 668
20
-160
30
0
0
VERTEX
8
Halfen
62
7
10
 668
20
-775
30
0
0
SEQEND
8
Halfen
0
POLYLINE
8
Halfen
62
7
66
1
10
0.0
20
0.0
30
0.0
70
1
0
VERTEX
8
Halfen
62
7
10
 679.25
20
-160
30
0
0
VERTEX
8
Halfen
62
7
10
 679.25
20
-62
30
0
0
VERTEX
8
Halfen
62
7
10
 668.75
20
-62
30
0
0
VERTEX
8
Halfen
62
7
10
 668.75
20
-160
30
0
0
SEQEND
8
Halfen
0
POLYLINE
8
Halfen
62
7
66
1
10
0.0
20
0.0
30
0.0
70
1
0
VERTEX
8
Halfen
62
7
10
 680
20
-62
30
0
0
VERTEX
8
Halfen
62
7
10
 680
20
-60
30
0
0
VERTEX
8
Halfen
62
7
10
 668
20
-60
30
0
0
VERTEX
8
Halfen
62
7
10
 668
20
-62
30
0
0
SEQEND
8
Halfen
0
POLYLINE
8
Halfen
62
7
66
1
10
0.0
20
0.0
30
0.0
70
1
0
VERTEX
8
Halfen
62
7
10
 679.25
20
-60
30
0
0
VERTEX
8
Halfen
62
7
10
 679.25
20
 60
30
0
0
VERTEX
8
Halfen
62
7
10
 668.75
20
 60
30
0
0
VERTEX
8
Halfen
62
7
10
 668.75
20
-60
30
0
0
SEQEND
8
Halfen
0
POLYLINE
8
Halfen
62
7
66
1
10
0.0
20
0.0
30
0.0
70
1
0
VERTEX
8
Halfen
62
7
10
 680
20
 60
30
0
0
VERTEX
8
Halfen
62
7
10
 680
20
 62
30
0
0
VERTEX
8
Halfen
62
7
10
 668
20
 62
30
0
0
VERTEX
8
Halfen
62
7
10
 668
20
 60
30
0
0
SEQEND
8
Halfen
0
POLYLINE
8
Halfen
62
7
66
1
10
0.0
20
0.0
30
0.0
70
1
0
VERTEX
8
Halfen
62
7
10
 679.25
20
 62
30
0
0
VERTEX
8
Halfen
62
7
10
 679.25
20
 160
30
0
0
VERTEX
8
Halfen
62
7
10
 668.75
20
 160
30
0
0
VERTEX
8
Halfen
62
7
10
 668.75
20
 62
30
0
0
SEQEND
8
Halfen
0
POLYLINE
8
Halfen
62
7
66
1
10
0.0
20
0.0
30
0.0
70
1
0
VERTEX
8
Halfen
62
7
10
 680
20
 160
30
0
0
VERTEX
8
Halfen
62
7
10
 680
20
 775
30
0
0
VERTEX
8
Halfen
62
7
10
 668
20
 775
30
0
0
VERTEX
8
Halfen
62
7
10
 668
20
 160
30
0
0
SEQEND
8
Halfen
0
POLYLINE
8
Halfen
62
7
66
1
10
0.0
20
0.0
30
0.0
70
1
0
VERTEX
8
Halfen
62
7
10
 728
20
-775
30
0
0
VERTEX
8
Halfen
62
7
10
 728
20
-160
30
0
0
VERTEX
8
Halfen
62
7
10
 716
20
-160
30
0
0
VERTEX
8
Halfen
62
7
10
 716
20
-775
30
0
0
SEQEND
8
Halfen
0
POLYLINE
8
Halfen
62
7
66
1
10
0.0
20
0.0
30
0.0
70
1
0
VERTEX
8
Halfen
62
7
10
 727.25
20
-160
30
0
0
VERTEX
8
Halfen
62
7
10
 727.25
20
-62
30
0
0
VERTEX
8
Halfen
62
7
10
 716.75
20
-62
30
0
0
VERTEX
8
Halfen
62
7
10
 716.75
20
-160
30
0
0
SEQEND
8
Halfen
0
POLYLINE
8
Halfen
62
7
66
1
10
0.0
20
0.0
30
0.0
70
1
0
VERTEX
8
Halfen
62
7
10
 728
20
-62
30
0
0
VERTEX
8
Halfen
62
7
10
 728
20
-60
30
0
0
VERTEX
8
Halfen
62
7
10
 716
20
-60
30
0
0
VERTEX
8
Halfen
62
7
10
 716
20
-62
30
0
0
SEQEND
8
Halfen
0
POLYLINE
8
Halfen
62
7
66
1
10
0.0
20
0.0
30
0.0
70
1
0
VERTEX
8
Halfen
62
7
10
 727.25
20
-60
30
0
0
VERTEX
8
Halfen
62
7
10
 727.25
20
 60
30
0
0
VERTEX
8
Halfen
62
7
10
 716.75
20
 60
30
0
0
VERTEX
8
Halfen
62
7
10
 716.75
20
-60
30
0
0
SEQEND
8
Halfen
0
POLYLINE
8
Halfen
62
7
66
1
10
0.0
20
0.0
30
0.0
70
1
0
VERTEX
8
Halfen
62
7
10
 728
20
 60
30
0
0
VERTEX
8
Halfen
62
7
10
 728
20
 62
30
0
0
VERTEX
8
Halfen
62
7
10
 716
20
 62
30
0
0
VERTEX
8
Halfen
62
7
10
 716
20
 60
30
0
0
SEQEND
8
Halfen
0
POLYLINE
8
Halfen
62
7
66
1
10
0.0
20
0.0
30
0.0
70
1
0
VERTEX
8
Halfen
62
7
10
 727.25
20
 62
30
0
0
VERTEX
8
Halfen
62
7
10
 727.25
20
 160
30
0
0
VERTEX
8
Halfen
62
7
10
 716.75
20
 160
30
0
0
VERTEX
8
Halfen
62
7
10
 716.75
20
 62
30
0
0
SEQEND
8
Halfen
0
POLYLINE
8
Halfen
62
7
66
1
10
0.0
20
0.0
30
0.0
70
1
0
VERTEX
8
Halfen
62
7
10
 728
20
 160
30
0
0
VERTEX
8
Halfen
62
7
10
 728
20
 775
30
0
0
VERTEX
8
Halfen
62
7
10
 716
20
 775
30
0
0
VERTEX
8
Halfen
62
7
10
 716
20
 160
30
0
0
SEQEND
8
Halfen
0
POLYLINE
8
Halfen
62
7
66
1
10
0.0
20
0.0
30
0.0
70
1
0
VERTEX
8
Halfen
62
7
10
 812
20
-775
30
0
0
VERTEX
8
Halfen
62
7
10
 812
20
-160
30
0
0
VERTEX
8
Halfen
62
7
10
 800
20
-160
30
0
0
VERTEX
8
Halfen
62
7
10
 800
20
-775
30
0
0
SEQEND
8
Halfen
0
POLYLINE
8
Halfen
62
7
66
1
10
0.0
20
0.0
30
0.0
70
1
0
VERTEX
8
Halfen
62
7
10
 811.25
20
-160
30
0
0
VERTEX
8
Halfen
62
7
10
 811.25
20
-62
30
0
0
VERTEX
8
Halfen
62
7
10
 800.75
20
-62
30
0
0
VERTEX
8
Halfen
62
7
10
 800.75
20
-160
30
0
0
SEQEND
8
Halfen
0
POLYLINE
8
Halfen
62
7
66
1
10
0.0
20
0.0
30
0.0
70
1
0
VERTEX
8
Halfen
62
7
10
 812
20
-62
30
0
0
VERTEX
8
Halfen
62
7
10
 812
20
-60
30
0
0
VERTEX
8
Halfen
62
7
10
 800
20
-60
30
0
0
VERTEX
8
Halfen
62
7
10
 800
20
-62
30
0
0
SEQEND
8
Halfen
0
POLYLINE
8
Halfen
62
7
66
1
10
0.0
20
0.0
30
0.0
70
1
0
VERTEX
8
Halfen
62
7
10
 811.25
20
-60
30
0
0
VERTEX
8
Halfen
62
7
10
 811.25
20
 60
30
0
0
VERTEX
8
Halfen
62
7
10
 800.75
20
 60
30
0
0
VERTEX
8
Halfen
62
7
10
 800.75
20
-60
30
0
0
SEQEND
8
Halfen
0
POLYLINE
8
Halfen
62
7
66
1
10
0.0
20
0.0
30
0.0
70
1
0
VERTEX
8
Halfen
62
7
10
 812
20
 60
30
0
0
VERTEX
8
Halfen
62
7
10
 812
20
 62
30
0
0
VERTEX
8
Halfen
62
7
10
 800
20
 62
30
0
0
VERTEX
8
Halfen
62
7
10
 800
20
 60
30
0
0
SEQEND
8
Halfen
0
POLYLINE
8
Halfen
62
7
66
1
10
0.0
20
0.0
30
0.0
70
1
0
VERTEX
8
Halfen
62
7
10
 811.25
20
 62
30
0
0
VERTEX
8
Halfen
62
7
10
 811.25
20
 160
30
0
0
VERTEX
8
Halfen
62
7
10
 800.75
20
 160
30
0
0
VERTEX
8
Halfen
62
7
10
 800.75
20
 62
30
0
0
SEQEND
8
Halfen
0
POLYLINE
8
Halfen
62
7
66
1
10
0.0
20
0.0
30
0.0
70
1
0
VERTEX
8
Halfen
62
7
10
 812
20
 160
30
0
0
VERTEX
8
Halfen
62
7
10
 812
20
 775
30
0
0
VERTEX
8
Halfen
62
7
10
 800
20
 775
30
0
0
VERTEX
8
Halfen
62
7
10
 800
20
 160
30
0
0
SEQEND
8
Halfen
0
POLYLINE
8
Halfen
62
7
66
1
10
0.0
20
0.0
30
0.0
70
1
0
VERTEX
8
Halfen
62
7
10
 860
20
-775
30
0
0
VERTEX
8
Halfen
62
7
10
 860
20
-160
30
0
0
VERTEX
8
Halfen
62
7
10
 848
20
-160
30
0
0
VERTEX
8
Halfen
62
7
10
 848
20
-775
30
0
0
SEQEND
8
Halfen
0
POLYLINE
8
Halfen
62
7
66
1
10
0.0
20
0.0
30
0.0
70
1
0
VERTEX
8
Halfen
62
7
10
 859.25
20
-160
30
0
0
VERTEX
8
Halfen
62
7
10
 859.25
20
-62
30
0
0
VERTEX
8
Halfen
62
7
10
 848.75
20
-62
30
0
0
VERTEX
8
Halfen
62
7
10
 848.75
20
-160
30
0
0
SEQEND
8
Halfen
0
POLYLINE
8
Halfen
62
7
66
1
10
0.0
20
0.0
30
0.0
70
1
0
VERTEX
8
Halfen
62
7
10
 860
20
-62
30
0
0
VERTEX
8
Halfen
62
7
10
 860
20
-60
30
0
0
VERTEX
8
Halfen
62
7
10
 848
20
-60
30
0
0
VERTEX
8
Halfen
62
7
10
 848
20
-62
30
0
0
SEQEND
8
Halfen
0
POLYLINE
8
Halfen
62
7
66
1
10
0.0
20
0.0
30
0.0
70
1
0
VERTEX
8
Halfen
62
7
10
 859.25
20
-60
30
0
0
VERTEX
8
Halfen
62
7
10
 859.25
20
 60
30
0
0
VERTEX
8
Halfen
62
7
10
 848.75
20
 60
30
0
0
VERTEX
8
Halfen
62
7
10
 848.75
20
-60
30
0
0
SEQEND
8
Halfen
0
POLYLINE
8
Halfen
62
7
66
1
10
0.0
20
0.0
30
0.0
70
1
0
VERTEX
8
Halfen
62
7
10
 860
20
 60
30
0
0
VERTEX
8
Halfen
62
7
10
 860
20
 62
30
0
0
VERTEX
8
Halfen
62
7
10
 848
20
 62
30
0
0
VERTEX
8
Halfen
62
7
10
 848
20
 60
30
0
0
SEQEND
8
Halfen
0
POLYLINE
8
Halfen
62
7
66
1
10
0.0
20
0.0
30
0.0
70
1
0
VERTEX
8
Halfen
62
7
10
 859.25
20
 62
30
0
0
VERTEX
8
Halfen
62
7
10
 859.25
20
 160
30
0
0
VERTEX
8
Halfen
62
7
10
 848.75
20
 160
30
0
0
VERTEX
8
Halfen
62
7
10
 848.75
20
 62
30
0
0
SEQEND
8
Halfen
0
POLYLINE
8
Halfen
62
7
66
1
10
0.0
20
0.0
30
0.0
70
1
0
VERTEX
8
Halfen
62
7
10
 860
20
 160
30
0
0
VERTEX
8
Halfen
62
7
10
 860
20
 775
30
0
0
VERTEX
8
Halfen
62
7
10
 848
20
 775
30
0
0
VERTEX
8
Halfen
62
7
10
 848
20
 160
30
0
0
SEQEND
8
Halfen
0
POLYLINE
8
Halfen
62
7
66
1
10
0.0
20
0.0
30
0.0
70
1
0
VERTEX
8
Halfen
62
7
10
 944
20
-775
30
0
0
VERTEX
8
Halfen
62
7
10
 944
20
-160
30
0
0
VERTEX
8
Halfen
62
7
10
 932
20
-160
30
0
0
VERTEX
8
Halfen
62
7
10
 932
20
-775
30
0
0
SEQEND
8
Halfen
0
POLYLINE
8
Halfen
62
7
66
1
10
0.0
20
0.0
30
0.0
70
1
0
VERTEX
8
Halfen
62
7
10
 943.25
20
-160
30
0
0
VERTEX
8
Halfen
62
7
10
 943.25
20
-62
30
0
0
VERTEX
8
Halfen
62
7
10
 932.75
20
-62
30
0
0
VERTEX
8
Halfen
62
7
10
 932.75
20
-160
30
0
0
SEQEND
8
Halfen
0
POLYLINE
8
Halfen
62
7
66
1
10
0.0
20
0.0
30
0.0
70
1
0
VERTEX
8
Halfen
62
7
10
 944
20
-62
30
0
0
VERTEX
8
Halfen
62
7
10
 944
20
-60
30
0
0
VERTEX
8
Halfen
62
7
10
 932
20
-60
30
0
0
VERTEX
8
Halfen
62
7
10
 932
20
-62
30
0
0
SEQEND
8
Halfen
0
POLYLINE
8
Halfen
62
7
66
1
10
0.0
20
0.0
30
0.0
70
1
0
VERTEX
8
Halfen
62
7
10
 943.25
20
-60
30
0
0
VERTEX
8
Halfen
62
7
10
 943.25
20
 60
30
0
0
VERTEX
8
Halfen
62
7
10
 932.75
20
 60
30
0
0
VERTEX
8
Halfen
62
7
10
 932.75
20
-60
30
0
0
SEQEND
8
Halfen
0
POLYLINE
8
Halfen
62
7
66
1
10
0.0
20
0.0
30
0.0
70
1
0
VERTEX
8
Halfen
62
7
10
 944
20
 60
30
0
0
VERTEX
8
Halfen
62
7
10
 944
20
 62
30
0
0
VERTEX
8
Halfen
62
7
10
 932
20
 62
30
0
0
VERTEX
8
Halfen
62
7
10
 932
20
 60
30
0
0
SEQEND
8
Halfen
0
POLYLINE
8
Halfen
62
7
66
1
10
0.0
20
0.0
30
0.0
70
1
0
VERTEX
8
Halfen
62
7
10
 943.25
20
 62
30
0
0
VERTEX
8
Halfen
62
7
10
 943.25
20
 160
30
0
0
VERTEX
8
Halfen
62
7
10
 932.75
20
 160
30
0
0
VERTEX
8
Halfen
62
7
10
 932.75
20
 62
30
0
0
SEQEND
8
Halfen
0
POLYLINE
8
Halfen
62
7
66
1
10
0.0
20
0.0
30
0.0
70
1
0
VERTEX
8
Halfen
62
7
10
 944
20
 160
30
0
0
VERTEX
8
Halfen
62
7
10
 944
20
 775
30
0
0
VERTEX
8
Halfen
62
7
10
 932
20
 775
30
0
0
VERTEX
8
Halfen
62
7
10
 932
20
 160
30
0
0
SEQEND
8
Halfen
0
POLYLINE
8
Halfen
62
7
66
1
10
0.0
20
0.0
30
0.0
70
1
0
VERTEX
8
Halfen
62
7
10
 98
20
-700.497
30
0
0
VERTEX
8
Halfen
62
7
10
 98
20
 162.71
30
0
0
VERTEX
8
Halfen
62
7
10
 88
20
 162.71
30
0
0
VERTEX
8
Halfen
62
7
10
 88
20
-700.497
30
0
0
SEQEND
8
Halfen
0
POLYLINE
8
Halfen
62
7
66
1
10
0.0
20
0.0
30
0.0
70
1
0
VERTEX
8
Halfen
62
7
10
 98
20
 162.71
30
0
0
VERTEX
8
Halfen
62
7
10
 98
20
 701.71
30
0
0
VERTEX
8
Halfen
62
7
10
 88
20
 701.71
30
0
0
VERTEX
8
Halfen
62
7
10
 88
20
 162.71
30
0
0
SEQEND
8
Halfen
0
POLYLINE
8
Halfen
62
7
66
1
10
0.0
20
0.0
30
0.0
70
1
0
VERTEX
8
Halfen
62
7
10
 108
20
-701.71
30
0
0
VERTEX
8
Halfen
62
7
10
 108
20
 161.497
30
0
0
VERTEX
8
Halfen
62
7
10
 98
20
 161.497
30
0
0
VERTEX
8
Halfen
62
7
10
 98
20
-701.71
30
0
0
SEQEND
8
Halfen
0
POLYLINE
8
Halfen
62
7
66
1
10
0.0
20
0.0
30
0.0
70
1
0
VERTEX
8
Halfen
62
7
10
 108
20
 161.497
30
0
0
VERTEX
8
Halfen
62
7
10
 108
20
 700.497
30
0
0
VERTEX
8
Halfen
62
7
10
 98
20
 700.497
30
0
0
VERTEX
8
Halfen
62
7
10
 98
20
 161.497
30
0
0
SEQEND
8
Halfen
0
POLYLINE
8
Halfen
62
7
66
1
10
0.0
20
0.0
30
0.0
70
1
0
VERTEX
8
Halfen
62
7
10
 230
20
-700.497
30
0
0
VERTEX
8
Halfen
62
7
10
 230
20
 162.71
30
0
0
VERTEX
8
Halfen
62
7
10
 220
20
 162.71
30
0
0
VERTEX
8
Halfen
62
7
10
 220
20
-700.497
30
0
0
SEQEND
8
Halfen
0
POLYLINE
8
Halfen
62
7
66
1
10
0.0
20
0.0
30
0.0
70
1
0
VERTEX
8
Halfen
62
7
10
 230
20
 162.71
30
0
0
VERTEX
8
Halfen
62
7
10
 230
20
 701.71
30
0
0
VERTEX
8
Halfen
62
7
10
 220
20
 701.71
30
0
0
VERTEX
8
Halfen
62
7
10
 220
20
 162.71
30
0
0
SEQEND
8
Halfen
0
POLYLINE
8
Halfen
62
7
66
1
10
0.0
20
0.0
30
0.0
70
1
0
VERTEX
8
Halfen
62
7
10
 240
20
-701.71
30
0
0
VERTEX
8
Halfen
62
7
10
 240
20
 161.497
30
0
0
VERTEX
8
Halfen
62
7
10
 230
20
 161.497
30
0
0
VERTEX
8
Halfen
62
7
10
 230
20
-701.71
30
0
0
SEQEND
8
Halfen
0
POLYLINE
8
Halfen
62
7
66
1
10
0.0
20
0.0
30
0.0
70
1
0
VERTEX
8
Halfen
62
7
10
 240
20
 161.497
30
0
0
VERTEX
8
Halfen
62
7
10
 240
20
 700.497
30
0
0
VERTEX
8
Halfen
62
7
10
 230
20
 700.497
30
0
0
VERTEX
8
Halfen
62
7
10
 230
20
 161.497
30
0
0
SEQEND
8
Halfen
0
POLYLINE
8
Halfen
62
7
66
1
10
0.0
20
0.0
30
0.0
70
1
0
VERTEX
8
Halfen
62
7
10
 362
20
-700.497
30
0
0
VERTEX
8
Halfen
62
7
10
 362
20
 162.71
30
0
0
VERTEX
8
Halfen
62
7
10
 352
20
 162.71
30
0
0
VERTEX
8
Halfen
62
7
10
 352
20
-700.497
30
0
0
SEQEND
8
Halfen
0
POLYLINE
8
Halfen
62
7
66
1
10
0.0
20
0.0
30
0.0
70
1
0
VERTEX
8
Halfen
62
7
10
 362
20
 162.71
30
0
0
VERTEX
8
Halfen
62
7
10
 362
20
 701.71
30
0
0
VERTEX
8
Halfen
62
7
10
 352
20
 701.71
30
0
0
VERTEX
8
Halfen
62
7
10
 352
20
 162.71
30
0
0
SEQEND
8
Halfen
0
POLYLINE
8
Halfen
62
7
66
1
10
0.0
20
0.0
30
0.0
70
1
0
VERTEX
8
Halfen
62
7
10
 372
20
-701.71
30
0
0
VERTEX
8
Halfen
62
7
10
 372
20
 161.497
30
0
0
VERTEX
8
Halfen
62
7
10
 362
20
 161.497
30
0
0
VERTEX
8
Halfen
62
7
10
 362
20
-701.71
30
0
0
SEQEND
8
Halfen
0
POLYLINE
8
Halfen
62
7
66
1
10
0.0
20
0.0
30
0.0
70
1
0
VERTEX
8
Halfen
62
7
10
 372
20
 161.497
30
0
0
VERTEX
8
Halfen
62
7
10
 372
20
 700.497
30
0
0
VERTEX
8
Halfen
62
7
10
 362
20
 700.497
30
0
0
VERTEX
8
Halfen
62
7
10
 362
20
 161.497
30
0
0
SEQEND
8
Halfen
0
POLYLINE
8
Halfen
62
7
66
1
10
0.0
20
0.0
30
0.0
70
1
0
VERTEX
8
Halfen
62
7
10
 626
20
-700.497
30
0
0
VERTEX
8
Halfen
62
7
10
 626
20
 162.71
30
0
0
VERTEX
8
Halfen
62
7
10
 616
20
 162.71
30
0
0
VERTEX
8
Halfen
62
7
10
 616
20
-700.497
30
0
0
SEQEND
8
Halfen
0
POLYLINE
8
Halfen
62
7
66
1
10
0.0
20
0.0
30
0.0
70
1
0
VERTEX
8
Halfen
62
7
10
 626
20
 162.71
30
0
0
VERTEX
8
Halfen
62
7
10
 626
20
 701.71
30
0
0
VERTEX
8
Halfen
62
7
10
 616
20
 701.71
30
0
0
VERTEX
8
Halfen
62
7
10
 616
20
 162.71
30
0
0
SEQEND
8
Halfen
0
POLYLINE
8
Halfen
62
7
66
1
10
0.0
20
0.0
30
0.0
70
1
0
VERTEX
8
Halfen
62
7
10
 636
20
-701.71
30
0
0
VERTEX
8
Halfen
62
7
10
 636
20
 161.497
30
0
0
VERTEX
8
Halfen
62
7
10
 626
20
 161.497
30
0
0
VERTEX
8
Halfen
62
7
10
 626
20
-701.71
30
0
0
SEQEND
8
Halfen
0
POLYLINE
8
Halfen
62
7
66
1
10
0.0
20
0.0
30
0.0
70
1
0
VERTEX
8
Halfen
62
7
10
 636
20
 161.497
30
0
0
VERTEX
8
Halfen
62
7
10
 636
20
 700.497
30
0
0
VERTEX
8
Halfen
62
7
10
 626
20
 700.497
30
0
0
VERTEX
8
Halfen
62
7
10
 626
20
 161.497
30
0
0
SEQEND
8
Halfen
0
POLYLINE
8
Halfen
62
7
66
1
10
0.0
20
0.0
30
0.0
70
1
0
VERTEX
8
Halfen
62
7
10
 758
20
-700.497
30
0
0
VERTEX
8
Halfen
62
7
10
 758
20
 162.71
30
0
0
VERTEX
8
Halfen
62
7
10
 748
20
 162.71
30
0
0
VERTEX
8
Halfen
62
7
10
 748
20
-700.497
30
0
0
SEQEND
8
Halfen
0
POLYLINE
8
Halfen
62
7
66
1
10
0.0
20
0.0
30
0.0
70
1
0
VERTEX
8
Halfen
62
7
10
 758
20
 162.71
30
0
0
VERTEX
8
Halfen
62
7
10
 758
20
 701.71
30
0
0
VERTEX
8
Halfen
62
7
10
 748
20
 701.71
30
0
0
VERTEX
8
Halfen
62
7
10
 748
20
 162.71
30
0
0
SEQEND
8
Halfen
0
POLYLINE
8
Halfen
62
7
66
1
10
0.0
20
0.0
30
0.0
70
1
0
VERTEX
8
Halfen
62
7
10
 768
20
-701.71
30
0
0
VERTEX
8
Halfen
62
7
10
 768
20
 161.497
30
0
0
VERTEX
8
Halfen
62
7
10
 758
20
 161.497
30
0
0
VERTEX
8
Halfen
62
7
10
 758
20
-701.71
30
0
0
SEQEND
8
Halfen
0
POLYLINE
8
Halfen
62
7
66
1
10
0.0
20
0.0
30
0.0
70
1
0
VERTEX
8
Halfen
62
7
10
 768
20
 161.497
30
0
0
VERTEX
8
Halfen
62
7
10
 768
20
 700.497
30
0
0
VERTEX
8
Halfen
62
7
10
 758
20
 700.497
30
0
0
VERTEX
8
Halfen
62
7
10
 758
20
 161.497
30
0
0
SEQEND
8
Halfen
0
POLYLINE
8
Halfen
62
7
66
1
10
0.0
20
0.0
30
0.0
70
1
0
VERTEX
8
Halfen
62
7
10
 890
20
-700.497
30
0
0
VERTEX
8
Halfen
62
7
10
 890
20
 162.71
30
0
0
VERTEX
8
Halfen
62
7
10
 880
20
 162.71
30
0
0
VERTEX
8
Halfen
62
7
10
 880
20
-700.497
30
0
0
SEQEND
8
Halfen
0
POLYLINE
8
Halfen
62
7
66
1
10
0.0
20
0.0
30
0.0
70
1
0
VERTEX
8
Halfen
62
7
10
 890
20
 162.71
30
0
0
VERTEX
8
Halfen
62
7
10
 890
20
 701.71
30
0
0
VERTEX
8
Halfen
62
7
10
 880
20
 701.71
30
0
0
VERTEX
8
Halfen
62
7
10
 880
20
 162.71
30
0
0
SEQEND
8
Halfen
0
POLYLINE
8
Halfen
62
7
66
1
10
0.0
20
0.0
30
0.0
70
1
0
VERTEX
8
Halfen
62
7
10
 900
20
-701.71
30
0
0
VERTEX
8
Halfen
62
7
10
 900
20
 161.497
30
0
0
VERTEX
8
Halfen
62
7
10
 890
20
 161.497
30
0
0
VERTEX
8
Halfen
62
7
10
 890
20
-701.71
30
0
0
SEQEND
8
Halfen
0
POLYLINE
8
Halfen
62
7
66
1
10
0.0
20
0.0
30
0.0
70
1
0
VERTEX
8
Halfen
62
7
10
 900
20
 161.497
30
0
0
VERTEX
8
Halfen
62
7
10
 900
20
 700.497
30
0
0
VERTEX
8
Halfen
62
7
10
 890
20
 700.497
30
0
0
VERTEX
8
Halfen
62
7
10
 890
20
 161.497
30
0
0
SEQEND
8
Halfen
0
POLYLINE
8
Halfen
62
7
66
1
10
0.0
20
0.0
30
0.0
70
1
0
VERTEX
8
Halfen
62
7
10
 1490
20
-60
30
0
0
VERTEX
8
Halfen
62
7
10
 1490
20
 60
30
0
0
VERTEX
8
Halfen
62
7
10
 1476.5
20
 73.5
30
0
0
VERTEX
8
Halfen
62
7
10
 1476.5
20
 60
30
0
0
VERTEX
8
Halfen
62
7
10
 1270
20
 60
30
0
0
VERTEX
8
Halfen
62
7
10
 1270
20
-60
30
0
0
VERTEX
8
Halfen
62
7
10
 1476.5
20
-60
30
0
0
VERTEX
8
Halfen
62
7
10
 1476.5
20
-73.5
30
0
0
SEQEND
8
Halfen
0
POLYLINE
8
Halfen
62
7
66
1
10
0.0
20
0.0
30
0.0
70
1
0
VERTEX
8
Halfen
62
7
10
 1270
20
-60
30
0
0
VERTEX
8
Halfen
62
7
10
 1270
20
 60
30
0
0
VERTEX
8
Halfen
62
7
10
 1213.5
20
 60
30
0
0
VERTEX
8
Halfen
62
7
10
 1213.5
20
 73.5
30
0
0
VERTEX
8
Halfen
62
7
10
 1200
20
 60
30
0
0
VERTEX
8
Halfen
62
7
10
 1200
20
-60
30
0
0
VERTEX
8
Halfen
62
7
10
 1213.5
20
-73.5
30
0
0
VERTEX
8
Halfen
62
7
10
 1213.5
20
-60
30
0
0
SEQEND
8
Halfen
0
POLYLINE
8
Halfen
62
7
66
1
10
0.0
20
0.0
30
0.0
70
1
0
VERTEX
8
Halfen
62
7
10
 1487.5
20
-58.75
30
0
0
VERTEX
8
Halfen
62
7
10
 1487.5
20
 58.75
30
0
0
VERTEX
8
Halfen
62
7
10
 1479
20
 67.25
30
0
0
VERTEX
8
Halfen
62
7
10
 1479
20
 58
30
0
0
VERTEX
8
Halfen
62
7
10
 1272
20
 58
30
0
0
VERTEX
8
Halfen
62
7
10
 1272
20
-58
30
0
0
VERTEX
8
Halfen
62
7
10
 1479
20
-58
30
0
0
VERTEX
8
Halfen
62
7
10
 1479
20
-67.25
30
0
0
SEQEND
8
Halfen
0
POLYLINE
8
Halfen
62
7
66
1
10
0.0
20
0.0
30
0.0
70
1
0
VERTEX
8
Halfen
62
7
10
 1268
20
-58
30
0
0
VERTEX
8
Halfen
62
7
10
 1268
20
 58
30
0
0
VERTEX
8
Halfen
62
7
10
 1211
20
 58
30
0
0
VERTEX
8
Halfen
62
7
10
 1211
20
 67.25
30
0
0
VERTEX
8
Halfen
62
7
10
 1202.5
20
 58.75
30
0
0
VERTEX
8
Halfen
62
7
10
 1202.5
20
-58.75
30
0
0
VERTEX
8
Halfen
62
7
10
 1211
20
-67.25
30
0
0
VERTEX
8
Halfen
62
7
10
 1211
20
-58
30
0
0
SEQEND
8
Halfen
0
POLYLINE
8
Halfen
62
7
66
1
10
0.0
20
0.0
30
0.0
70
1
0
VERTEX
8
Halfen
62
7
10
 1262
20
-775
30
0
0
VERTEX
8
Halfen
62
7
10
 1262
20
-160
30
0
0
VERTEX
8
Halfen
62
7
10
 1250
20
-160
30
0
0
VERTEX
8
Halfen
62
7
10
 1250
20
-775
30
0
0
SEQEND
8
Halfen
0
POLYLINE
8
Halfen
62
7
66
1
10
0.0
20
0.0
30
0.0
70
1
0
VERTEX
8
Halfen
62
7
10
 1261.25
20
-160
30
0
0
VERTEX
8
Halfen
62
7
10
 1261.25
20
-62
30
0
0
VERTEX
8
Halfen
62
7
10
 1250.75
20
-62
30
0
0
VERTEX
8
Halfen
62
7
10
 1250.75
20
-160
30
0
0
SEQEND
8
Halfen
0
POLYLINE
8
Halfen
62
7
66
1
10
0.0
20
0.0
30
0.0
70
1
0
VERTEX
8
Halfen
62
7
10
 1262
20
-62
30
0
0
VERTEX
8
Halfen
62
7
10
 1262
20
-60
30
0
0
VERTEX
8
Halfen
62
7
10
 1250
20
-60
30
0
0
VERTEX
8
Halfen
62
7
10
 1250
20
-62
30
0
0
SEQEND
8
Halfen
0
POLYLINE
8
Halfen
62
7
66
1
10
0.0
20
0.0
30
0.0
70
1
0
VERTEX
8
Halfen
62
7
10
 1261.25
20
-60
30
0
0
VERTEX
8
Halfen
62
7
10
 1261.25
20
 60
30
0
0
VERTEX
8
Halfen
62
7
10
 1250.75
20
 60
30
0
0
VERTEX
8
Halfen
62
7
10
 1250.75
20
-60
30
0
0
SEQEND
8
Halfen
0
POLYLINE
8
Halfen
62
7
66
1
10
0.0
20
0.0
30
0.0
70
1
0
VERTEX
8
Halfen
62
7
10
 1262
20
 60
30
0
0
VERTEX
8
Halfen
62
7
10
 1262
20
 62
30
0
0
VERTEX
8
Halfen
62
7
10
 1250
20
 62
30
0
0
VERTEX
8
Halfen
62
7
10
 1250
20
 60
30
0
0
SEQEND
8
Halfen
0
POLYLINE
8
Halfen
62
7
66
1
10
0.0
20
0.0
30
0.0
70
1
0
VERTEX
8
Halfen
62
7
10
 1261.25
20
 62
30
0
0
VERTEX
8
Halfen
62
7
10
 1261.25
20
 160
30
0
0
VERTEX
8
Halfen
62
7
10
 1250.75
20
 160
30
0
0
VERTEX
8
Halfen
62
7
10
 1250.75
20
 62
30
0
0
SEQEND
8
Halfen
0
POLYLINE
8
Halfen
62
7
66
1
10
0.0
20
0.0
30
0.0
70
1
0
VERTEX
8
Halfen
62
7
10
 1262
20
 160
30
0
0
VERTEX
8
Halfen
62
7
10
 1262
20
 775
30
0
0
VERTEX
8
Halfen
62
7
10
 1250
20
 775
30
0
0
VERTEX
8
Halfen
62
7
10
 1250
20
 160
30
0
0
SEQEND
8
Halfen
0
POLYLINE
8
Halfen
62
7
66
1
10
0.0
20
0.0
30
0.0
70
1
0
VERTEX
8
Halfen
62
7
10
 1460
20
-775
30
0
0
VERTEX
8
Halfen
62
7
10
 1460
20
-160
30
0
0
VERTEX
8
Halfen
62
7
10
 1448
20
-160
30
0
0
VERTEX
8
Halfen
62
7
10
 1448
20
-775
30
0
0
SEQEND
8
Halfen
0
POLYLINE
8
Halfen
62
7
66
1
10
0.0
20
0.0
30
0.0
70
1
0
VERTEX
8
Halfen
62
7
10
 1459.25
20
-160
30
0
0
VERTEX
8
Halfen
62
7
10
 1459.25
20
-62
30
0
0
VERTEX
8
Halfen
62
7
10
 1448.75
20
-62
30
0
0
VERTEX
8
Halfen
62
7
10
 1448.75
20
-160
30
0
0
SEQEND
8
Halfen
0
POLYLINE
8
Halfen
62
7
66
1
10
0.0
20
0.0
30
0.0
70
1
0
VERTEX
8
Halfen
62
7
10
 1460
20
-62
30
0
0
VERTEX
8
Halfen
62
7
10
 1460
20
-60
30
0
0
VERTEX
8
Halfen
62
7
10
 1448
20
-60
30
0
0
VERTEX
8
Halfen
62
7
10
 1448
20
-62
30
0
0
SEQEND
8
Halfen
0
POLYLINE
8
Halfen
62
7
66
1
10
0.0
20
0.0
30
0.0
70
1
0
VERTEX
8
Halfen
62
7
10
 1459.25
20
-60
30
0
0
VERTEX
8
Halfen
62
7
10
 1459.25
20
 60
30
0
0
VERTEX
8
Halfen
62
7
10
 1448.75
20
 60
30
0
0
VERTEX
8
Halfen
62
7
10
 1448.75
20
-60
30
0
0
SEQEND
8
Halfen
0
POLYLINE
8
Halfen
62
7
66
1
10
0.0
20
0.0
30
0.0
70
1
0
VERTEX
8
Halfen
62
7
10
 1460
20
 60
30
0
0
VERTEX
8
Halfen
62
7
10
 1460
20
 62
30
0
0
VERTEX
8
Halfen
62
7
10
 1448
20
 62
30
0
0
VERTEX
8
Halfen
62
7
10
 1448
20
 60
30
0
0
SEQEND
8
Halfen
0
POLYLINE
8
Halfen
62
7
66
1
10
0.0
20
0.0
30
0.0
70
1
0
VERTEX
8
Halfen
62
7
10
 1459.25
20
 62
30
0
0
VERTEX
8
Halfen
62
7
10
 1459.25
20
 160
30
0
0
VERTEX
8
Halfen
62
7
10
 1448.75
20
 160
30
0
0
VERTEX
8
Halfen
62
7
10
 1448.75
20
 62
30
0
0
SEQEND
8
Halfen
0
POLYLINE
8
Halfen
62
7
66
1
10
0.0
20
0.0
30
0.0
70
1
0
VERTEX
8
Halfen
62
7
10
 1460
20
 160
30
0
0
VERTEX
8
Halfen
62
7
10
 1460
20
 775
30
0
0
VERTEX
8
Halfen
62
7
10
 1448
20
 775
30
0
0
VERTEX
8
Halfen
62
7
10
 1448
20
 160
30
0
0
SEQEND
8
Halfen
0
POLYLINE
8
Halfen
62
7
66
1
10
0.0
20
0.0
30
0.0
70
1
0
VERTEX
8
Halfen
62
7
10
 1460
20
-700.497
30
0
0
VERTEX
8
Halfen
62
7
10
 1460
20
-98.891
30
0
0
VERTEX
8
Halfen
62
7
10
 1459.508
20
-92.633
30
0
0
VERTEX
8
Halfen
62
7
10
 1458.042
20
-86.53
30
0
0
VERTEX
8
Halfen
62
7
10
 1455.64
20
-80.731
30
0
0
VERTEX
8
Halfen
62
7
10
 1452.361
20
-75.379
30
0
0
VERTEX
8
Halfen
62
7
10
 1448.284
20
-70.607
30
0
0
VERTEX
8
Halfen
62
7
10
 1298.787
20
 78.891
30
0
0
VERTEX
8
Halfen
62
7
10
 1295.729
20
 82.471
30
0
0
VERTEX
8
Halfen
62
7
10
 1293.27
20
 86.484
30
0
0
VERTEX
8
Halfen
62
7
10
 1291.468
20
 90.834
30
0
0
VERTEX
8
Halfen
62
7
10
 1290.369
20
 95.411
30
0
0
VERTEX
8
Halfen
62
7
10
 1290
20
 100.104
30
0
0
VERTEX
8
Halfen
62
7
10
 1290
20
 162.71
30
0
0
VERTEX
8
Halfen
62
7
10
 1280
20
 162.71
30
0
0
VERTEX
8
Halfen
62
7
10
 1280
20
 100.104
30
0
0
VERTEX
8
Halfen
62
7
10
 1280.492
20
 93.847
30
0
0
VERTEX
8
Halfen
62
7
10
 1281.958
20
 87.743
30
0
0
VERTEX
8
Halfen
62
7
10
 1284.36
20
 81.944
30
0
0
VERTEX
8
Halfen
62
7
10
 1287.639
20
 76.593
30
0
0
VERTEX
8
Halfen
62
7
10
 1291.716
20
 71.82
30
0
0
VERTEX
8
Halfen
62
7
10
 1441.213
20
-77.678
30
0
0
VERTEX
8
Halfen
62
7
10
 1444.271
20
-81.257
30
0
0
VERTEX
8
Halfen
62
7
10
 1446.73
20
-85.271
30
0
0
VERTEX
8
Halfen
62
7
10
 1448.532
20
-89.62
30
0
0
VERTEX
8
Halfen
62
7
10
 1449.631
20
-94.198
30
0
0
VERTEX
8
Halfen
62
7
10
 1450
20
-98.891
30
0
0
VERTEX
8
Halfen
62
7
10
 1450
20
-700.497
30
0
0
SEQEND
8
Halfen
0
POLYLINE
8
Halfen
62
7
66
1
10
0.0
20
0.0
30
0.0
70
1
0
VERTEX
8
Halfen
62
7
10
 1290
20
 162.71
30
0
0
VERTEX
8
Halfen
62
7
10
 1290
20
 701.71
30
0
0
VERTEX
8
Halfen
62
7
10
 1280
20
 701.71
30
0
0
VERTEX
8
Halfen
62
7
10
 1280
20
 162.71
30
0
0
SEQEND
8
Halfen
0
POLYLINE
8
Halfen
62
7
66
1
10
0.0
20
0.0
30
0.0
70
1
0
VERTEX
8
Halfen
62
7
10
 1280
20
-701.71
30
0
0
VERTEX
8
Halfen
62
7
10
 1280
20
-100.104
30
0
0
VERTEX
8
Halfen
62
7
10
 1280.492
20
-93.847
30
0
0
VERTEX
8
Halfen
62
7
10
 1281.958
20
-87.743
30
0
0
VERTEX
8
Halfen
62
7
10
 1284.36
20
-81.944
30
0
0
VERTEX
8
Halfen
62
7
10
 1287.639
20
-76.593
30
0
0
VERTEX
8
Halfen
62
7
10
 1291.716
20
-71.82
30
0
0
VERTEX
8
Halfen
62
7
10
 1441.213
20
 77.678
30
0
0
VERTEX
8
Halfen
62
7
10
 1444.271
20
 81.257
30
0
0
VERTEX
8
Halfen
62
7
10
 1446.73
20
 85.271
30
0
0
VERTEX
8
Halfen
62
7
10
 1448.532
20
 89.62
30
0
0
VERTEX
8
Halfen
62
7
10
 1449.631
20
 94.198
30
0
0
VERTEX
8
Halfen
62
7
10
 1450
20
 98.891
30
0
0
VERTEX
8
Halfen
62
7
10
 1450
20
 161.497
30
0
0
VERTEX
8
Halfen
62
7
10
 1460
20
 161.497
30
0
0
VERTEX
8
Halfen
62
7
10
 1460
20
 98.891
30
0
0
VERTEX
8
Halfen
62
7
10
 1459.508
20
 92.634
30
0
0
VERTEX
8
Halfen
62
7
10
 1458.042
20
 86.53
30
0
0
VERTEX
8
Halfen
62
7
10
 1455.64
20
 80.731
30
0
0
VERTEX
8
Halfen
62
7
10
 1452.361
20
 75.38
30
0
0
VERTEX
8
Halfen
62
7
10
 1448.284
20
 70.607
30
0
0
VERTEX
8
Halfen
62
7
10
 1298.787
20
-78.891
30
0
0
VERTEX
8
Halfen
62
7
10
 1295.729
20
-82.47
30
0
0
VERTEX
8
Halfen
62
7
10
 1293.27
20
-86.484
30
0
0
VERTEX
8
Halfen
62
7
10
 1291.468
20
-90.833
30
0
0
VERTEX
8
Halfen
62
7
10
 1290.369
20
-95.411
30
0
0
VERTEX
8
Halfen
62
7
10
 1290
20
-100.104
30
0
0
VERTEX
8
Halfen
62
7
10
 1290
20
-701.71
30
0
0
SEQEND
8
Halfen
0
POLYLINE
8
Halfen
62
7
66
1
10
0.0
20
0.0
30
0.0
70
1
0
VERTEX
8
Halfen
62
7
10
 1450
20
 161.497
30
0
0
VERTEX
8
Halfen
62
7
10
 1450
20
 700.497
30
0
0
VERTEX
8
Halfen
62
7
10
 1460
20
 700.497
30
0
0
VERTEX
8
Halfen
62
7
10
 1460
20
 161.497
30
0
0
SEQEND
8
Halfen
0
ENDSEC
0
EOF
