0
SECTION
2
HEADER
9
$EXTMIN
10
 0
20
 100
30
0.0
9
$EXTMAX
10
 0
20
 100
30
0.0
9
$LIMMIN
10
 100
20
 0
9
$LIMMAX
10
 0
20
 100
9
$PSLTSCALE
70
1
0
ENDSEC
0
SECTION
2
TABLES
0
TABLE
2
LAYER
70
2
0
LAYER
2
0
70
0
62
7
6
CONTINUOUS
0
LAYER
2
Halfen
70
0
62
7
6
CONTINUOUS
0
ENDTAB
0
ENDSEC
0
SECTION
2
ENTITIES
0
POLYLINE
8
Halfen
62
7
66
1
10
0.0
20
0.0
30
0.0
70
1
0
VERTEX
8
Halfen
62
7
10
 0
20
-73.5
30
0
0
VERTEX
8
Halfen
62
7
10
 250
20
-73.5
30
0
0
VERTEX
8
Halfen
62
7
10
 250
20
 73.5
30
0
0
VERTEX
8
Halfen
62
7
10
 0
20
 73.5
30
0
0
SEQEND
8
Halfen
0
POLYLINE
8
Halfen
62
7
66
1
10
0.0
20
0.0
30
0.0
70
1
0
VERTEX
8
Halfen
62
7
10
 0
20
-60
30
0
0
VERTEX
8
Halfen
62
7
10
 250
20
-60
30
0
0
VERTEX
8
Halfen
62
7
10
 250
20
 60
30
0
0
VERTEX
8
Halfen
62
7
10
 0
20
 60
30
0
0
SEQEND
8
Halfen
0
POLYLINE
8
Halfen
62
7
66
1
10
0.0
20
0.0
30
0.0
70
1
0
VERTEX
8
Halfen
62
7
10
 20
20
-32.5
30
0
0
VERTEX
8
Halfen
62
7
10
 37
20
-1.5
30
0
0
VERTEX
8
Halfen
62
7
10
 28
20
-1.5
30
0
0
VERTEX
8
Halfen
62
7
10
 28
20
 32.5
30
0
0
VERTEX
8
Halfen
62
7
10
 12
20
 32.5
30
0
0
VERTEX
8
Halfen
62
7
10
 12
20
-1.5
30
0
0
VERTEX
8
Halfen
62
7
10
 3
20
-1.5
30
0
0
SEQEND
8
Halfen
0
POLYLINE
8
Halfen
62
7
66
1
10
0.0
20
0.0
30
0.0
70
1
0
VERTEX
8
Halfen
62
7
10
 230
20
-32.5
30
0
0
VERTEX
8
Halfen
62
7
10
 247
20
-1.5
30
0
0
VERTEX
8
Halfen
62
7
10
 238
20
-1.5
30
0
0
VERTEX
8
Halfen
62
7
10
 238
20
 32.5
30
0
0
VERTEX
8
Halfen
62
7
10
 222
20
 32.5
30
0
0
VERTEX
8
Halfen
62
7
10
 222
20
-1.5
30
0
0
VERTEX
8
Halfen
62
7
10
 213
20
-1.5
30
0
0
SEQEND
8
Halfen
0
POLYLINE
8
Halfen
62
7
66
1
10
0.0
20
0.0
30
0.0
70
1
0
VERTEX
8
Halfen
62
7
10
 193
20
-457.177
30
0
0
VERTEX
8
Halfen
62
7
10
 193
20
 215.147
30
0
0
VERTEX
8
Halfen
62
7
10
 187
20
 215.147
30
0
0
VERTEX
8
Halfen
62
7
10
 187
20
-457.177
30
0
0
SEQEND
8
Halfen
0
POLYLINE
8
Halfen
62
7
66
1
10
0.0
20
0.0
30
0.0
70
1
0
VERTEX
8
Halfen
62
7
10
 740
20
-60
30
0
0
VERTEX
8
Halfen
62
7
10
 740
20
 60
30
0
0
VERTEX
8
Halfen
62
7
10
 726.5
20
 73.5
30
0
0
VERTEX
8
Halfen
62
7
10
 726.5
20
 60
30
0
0
VERTEX
8
Halfen
62
7
10
 500
20
 60
30
0
0
VERTEX
8
Halfen
62
7
10
 500
20
-60
30
0
0
VERTEX
8
Halfen
62
7
10
 726.5
20
-60
30
0
0
VERTEX
8
Halfen
62
7
10
 726.5
20
-73.5
30
0
0
SEQEND
8
Halfen
0
POLYLINE
8
Halfen
62
7
66
1
10
0.0
20
0.0
30
0.0
70
1
0
VERTEX
8
Halfen
62
7
10
 500
20
-60
30
0
0
VERTEX
8
Halfen
62
7
10
 500
20
 60
30
0
0
VERTEX
8
Halfen
62
7
10
 463.5
20
 60
30
0
0
VERTEX
8
Halfen
62
7
10
 463.5
20
 73.5
30
0
0
VERTEX
8
Halfen
62
7
10
 450
20
 60
30
0
0
VERTEX
8
Halfen
62
7
10
 450
20
-60
30
0
0
VERTEX
8
Halfen
62
7
10
 463.5
20
-73.5
30
0
0
VERTEX
8
Halfen
62
7
10
 463.5
20
-60
30
0
0
SEQEND
8
Halfen
0
POLYLINE
8
Halfen
62
7
66
1
10
0.0
20
0.0
30
0.0
70
1
0
VERTEX
8
Halfen
62
7
10
 737.5
20
-58.75
30
0
0
VERTEX
8
Halfen
62
7
10
 737.5
20
 58.75
30
0
0
VERTEX
8
Halfen
62
7
10
 729
20
 67.25
30
0
0
VERTEX
8
Halfen
62
7
10
 729
20
 58
30
0
0
VERTEX
8
Halfen
62
7
10
 502
20
 58
30
0
0
VERTEX
8
Halfen
62
7
10
 502
20
-58
30
0
0
VERTEX
8
Halfen
62
7
10
 729
20
-58
30
0
0
VERTEX
8
Halfen
62
7
10
 729
20
-67.25
30
0
0
SEQEND
8
Halfen
0
POLYLINE
8
Halfen
62
7
66
1
10
0.0
20
0.0
30
0.0
70
1
0
VERTEX
8
Halfen
62
7
10
 498
20
-58
30
0
0
VERTEX
8
Halfen
62
7
10
 498
20
 58
30
0
0
VERTEX
8
Halfen
62
7
10
 461
20
 58
30
0
0
VERTEX
8
Halfen
62
7
10
 461
20
 67.25
30
0
0
VERTEX
8
Halfen
62
7
10
 452.5
20
 58.75
30
0
0
VERTEX
8
Halfen
62
7
10
 452.5
20
-58.75
30
0
0
VERTEX
8
Halfen
62
7
10
 461
20
-67.25
30
0
0
VERTEX
8
Halfen
62
7
10
 461
20
-58
30
0
0
SEQEND
8
Halfen
0
POLYLINE
8
Halfen
62
7
66
1
10
0.0
20
0.0
30
0.0
70
1
0
VERTEX
8
Halfen
62
7
10
 710
20
-457.177
30
0
0
VERTEX
8
Halfen
62
7
10
 710
20
-81.213
30
0
0
VERTEX
8
Halfen
62
7
10
 709.705
20
-77.459
30
0
0
VERTEX
8
Halfen
62
7
10
 708.825
20
-73.797
30
0
0
VERTEX
8
Halfen
62
7
10
 707.384
20
-70.317
30
0
0
VERTEX
8
Halfen
62
7
10
 705.416
20
-67.106
30
0
0
VERTEX
8
Halfen
62
7
10
 702.971
20
-64.243
30
0
0
VERTEX
8
Halfen
62
7
10
 501.272
20
 137.456
30
0
0
VERTEX
8
Halfen
62
7
10
 499.438
20
 139.604
30
0
0
VERTEX
8
Halfen
62
7
10
 497.962
20
 142.012
30
0
0
VERTEX
8
Halfen
62
7
10
 496.881
20
 144.621
30
0
0
VERTEX
8
Halfen
62
7
10
 496.222
20
 147.368
30
0
0
VERTEX
8
Halfen
62
7
10
 496
20
 150.184
30
0
0
VERTEX
8
Halfen
62
7
10
 496
20
 191.147
30
0
0
VERTEX
8
Halfen
62
7
10
 496.222
20
 193.963
30
0
0
VERTEX
8
Halfen
62
7
10
 496.881
20
 196.71
30
0
0
VERTEX
8
Halfen
62
7
10
 497.962
20
 199.319
30
0
0
VERTEX
8
Halfen
62
7
10
 499.438
20
 201.728
30
0
0
VERTEX
8
Halfen
62
7
10
 501.272
20
 203.875
30
0
0
VERTEX
8
Halfen
62
7
10
 503.42
20
 205.71
30
0
0
VERTEX
8
Halfen
62
7
10
 505.828
20
 207.186
30
0
0
VERTEX
8
Halfen
62
7
10
 508.438
20
 208.266
30
0
0
VERTEX
8
Halfen
62
7
10
 511.184
20
 208.926
30
0
0
VERTEX
8
Halfen
62
7
10
 514
20
 209.147
30
0
0
VERTEX
8
Halfen
62
7
10
 610
20
 209.147
30
0
0
VERTEX
8
Halfen
62
7
10
 610
20
 215.147
30
0
0
VERTEX
8
Halfen
62
7
10
 514
20
 215.147
30
0
0
VERTEX
8
Halfen
62
7
10
 510.246
20
 214.852
30
0
0
VERTEX
8
Halfen
62
7
10
 506.584
20
 213.973
30
0
0
VERTEX
8
Halfen
62
7
10
 503.104
20
 212.532
30
0
0
VERTEX
8
Halfen
62
7
10
 499.893
20
 210.564
30
0
0
VERTEX
8
Halfen
62
7
10
 497.029
20
 208.118
30
0
0
VERTEX
8
Halfen
62
7
10
 494.584
20
 205.254
30
0
0
VERTEX
8
Halfen
62
7
10
 492.616
20
 202.043
30
0
0
VERTEX
8
Halfen
62
7
10
 491.175
20
 198.564
30
0
0
VERTEX
8
Halfen
62
7
10
 490.295
20
 194.902
30
0
0
VERTEX
8
Halfen
62
7
10
 490
20
 191.147
30
0
0
VERTEX
8
Halfen
62
7
10
 490
20
 150.184
30
0
0
VERTEX
8
Halfen
62
7
10
 490.295
20
 146.429
30
0
0
VERTEX
8
Halfen
62
7
10
 491.175
20
 142.767
30
0
0
VERTEX
8
Halfen
62
7
10
 492.616
20
 139.288
30
0
0
VERTEX
8
Halfen
62
7
10
 494.584
20
 136.077
30
0
0
VERTEX
8
Halfen
62
7
10
 497.029
20
 133.213
30
0
0
VERTEX
8
Halfen
62
7
10
 698.728
20
-68.485
30
0
0
VERTEX
8
Halfen
62
7
10
 700.562
20
-70.633
30
0
0
VERTEX
8
Halfen
62
7
10
 702.038
20
-73.041
30
0
0
VERTEX
8
Halfen
62
7
10
 703.119
20
-75.651
30
0
0
VERTEX
8
Halfen
62
7
10
 703.778
20
-78.397
30
0
0
VERTEX
8
Halfen
62
7
10
 704
20
-81.213
30
0
0
VERTEX
8
Halfen
62
7
10
 704
20
-457.177
30
0
0
SEQEND
8
Halfen
0
ENDSEC
0
EOF
