  0
SECTION
  2
HEADER
  9
$ACADVER
  1
AC1032
  9
$ACADMAINTVER
 90
4
  9
$DWGCODEPAGE
  3
ANSI_1252
  9
$LASTSAVEDBY
  1
ezdxf
  9
$REQUIREDVERSIONS
160
0
  9
$INSBASE
 10
0.0
 20
0.0
 30
0.0
  9
$EXTMIN
 10
1e+20
 20
1e+20
 30
1e+20
  9
$EXTMAX
 10
-1e+20
 20
-1e+20
 30
-1e+20
  9
$LIMMIN
 10
0.0
 20
0.0
  9
$LIMMAX
 10
420.0
 20
297.0
  9
$ORTHOMODE
 70
0
  9
$REGENMODE
 70
1
  9
$FILLMODE
 70
1
  9
$QTEXTMODE
 70
0
  9
$MIRRTEXT
 70
1
  9
$LTSCALE
 40
1.0
  9
$ATTMODE
 70
1
  9
$TEXTSIZE
 40
2.5
  9
$TRACEWID
 40
1.0
  9
$TEXTSTYLE
  7
Standard
  9
$CLAYER
  8
0
  9
$CELTYPE
  6
ByLayer
  9
$CECOLOR
 62
256
  9
$CELTSCALE
 40
1.0
  9
$DISPSILH
 70
0
  9
$DIMSCALE
 40
1.0
  9
$DIMASZ
 40
2.5
  9
$DIMEXO
 40
0.625
  9
$DIMDLI
 40
3.75
  9
$DIMRND
 40
0.0
  9
$DIMDLE
 40
0.0
  9
$DIMEXE
 40
1.25
  9
$DIMTP
 40
0.0
  9
$DIMTM
 40
0.0
  9
$DIMTXT
 40
2.5
  9
$DIMCEN
 40
2.5
  9
$DIMTSZ
 40
0.0
  9
$DIMTOL
 70
0
  9
$DIMLIM
 70
0
  9
$DIMTIH
 70
0
  9
$DIMTOH
 70
0
  9
$DIMSE1
 70
0
  9
$DIMSE2
 70
0
  9
$DIMTAD
 70
1
  9
$DIMZIN
 70
8
  9
$DIMBLK
  1

  9
$DIMASO
 70
1
  9
$DIMSHO
 70
1
  9
$DIMPOST
  1

  9
$DIMAPOST
  1

  9
$DIMALT
 70
0
  9
$DIMALTD
 70
3
  9
$DIMALTF
 40
0.03937007874
  9
$DIMLFAC
 40
1.0
  9
$DIMTOFL
 70
1
  9
$DIMTVP
 40
0.0
  9
$DIMTIX
 70
0
  9
$DIMSOXD
 70
0
  9
$DIMSAH
 70
0
  9
$DIMBLK1
  1

  9
$DIMBLK2
  1

  9
$DIMSTYLE
  2
ISO-25
  9
$DIMCLRD
 70
0
  9
$DIMCLRE
 70
0
  9
$DIMCLRT
 70
0
  9
$DIMTFAC
 40
1.0
  9
$DIMGAP
 40
0.625
  9
$DIMJUST
 70
0
  9
$DIMSD1
 70
0
  9
$DIMSD2
 70
0
  9
$DIMTOLJ
 70
0
  9
$DIMTZIN
 70
8
  9
$DIMALTZ
 70
0
  9
$DIMALTTZ
 70
0
  9
$DIMUPT
 70
0
  9
$DIMDEC
 70
2
  9
$DIMTDEC
 70
2
  9
$DIMALTU
 70
2
  9
$DIMALTTD
 70
3
  9
$DIMTXSTY
  7
Standard
  9
$DIMAUNIT
 70
0
  9
$DIMADEC
 70
0
  9
$DIMALTRND
 40
0.0
  9
$DIMAZIN
 70
0
  9
$DIMDSEP
 70
44
  9
$DIMATFIT
 70
3
  9
$DIMFRAC
 70
0
  9
$DIMLDRBLK
  1

  9
$DIMLUNIT
 70
2
  9
$DIMLWD
 70
-2
  9
$DIMLWE
 70
-2
  9
$DIMTMOVE
 70
0
  9
$DIMFXL
 40
1.0
  9
$DIMFXLON
 70
0
  9
$DIMJOGANG
 40
0.785398163397
  9
$DIMTFILL
 70
0
  9
$DIMTFILLCLR
 70
0
  9
$DIMARCSYM
 70
0
  9
$DIMLTYPE
  6

  9
$DIMLTEX1
  6

  9
$DIMLTEX2
  6

  9
$DIMTXTDIRECTION
 70
0
  9
$LUNITS
 70
2
  9
$LUPREC
 70
4
  9
$SKETCHINC
 40
1.0
  9
$FILLETRAD
 40
10.0
  9
$AUNITS
 70
0
  9
$AUPREC
 70
2
  9
$MENU
  1
.
  9
$ELEVATION
 40
0.0
  9
$PELEVATION
 40
0.0
  9
$THICKNESS
 40
0.0
  9
$LIMCHECK
 70
0
  9
$CHAMFERA
 40
0.0
  9
$CHAMFERB
 40
0.0
  9
$CHAMFERC
 40
0.0
  9
$CHAMFERD
 40
0.0
  9
$SKPOLY
 70
0
  9
$TDCREATE
 40
2461085.245949074
  9
$TDUCREATE
 40
2458532.153996898
  9
$TDUPDATE
 40
2461085.245949074
  9
$TDUUPDATE
 40
2458532.1544311
  9
$TDINDWG
 40
0.0
  9
$TDUSRTIMER
 40
0.0
  9
$USRTIMER
 70
1
  9
$ANGBASE
 50
0.0
  9
$ANGDIR
 70
0
  9
$PDMODE
 70
0
  9
$PDSIZE
 40
0.0
  9
$PLINEWID
 40
0.0
  9
$SPLFRAME
 70
0
  9
$SPLINETYPE
 70
6
  9
$SPLINESEGS
 70
8
  9
$HANDSEED
  5
5B
  9
$SURFTAB1
 70
6
  9
$SURFTAB2
 70
6
  9
$SURFTYPE
 70
6
  9
$SURFU
 70
6
  9
$SURFV
 70
6
  9
$UCSBASE
  2

  9
$UCSNAME
  2

  9
$UCSORG
 10
0.0
 20
0.0
 30
0.0
  9
$UCSXDIR
 10
1.0
 20
0.0
 30
0.0
  9
$UCSYDIR
 10
0.0
 20
1.0
 30
0.0
  9
$UCSORTHOREF
  2

  9
$UCSORTHOVIEW
 70
0
  9
$UCSORGTOP
 10
0.0
 20
0.0
 30
0.0
  9
$UCSORGBOTTOM
 10
0.0
 20
0.0
 30
0.0
  9
$UCSORGLEFT
 10
0.0
 20
0.0
 30
0.0
  9
$UCSORGRIGHT
 10
0.0
 20
0.0
 30
0.0
  9
$UCSORGFRONT
 10
0.0
 20
0.0
 30
0.0
  9
$UCSORGBACK
 10
0.0
 20
0.0
 30
0.0
  9
$PUCSBASE
  2

  9
$PUCSNAME
  2

  9
$PUCSORG
 10
0.0
 20
0.0
 30
0.0
  9
$PUCSXDIR
 10
1.0
 20
0.0
 30
0.0
  9
$PUCSYDIR
 10
0.0
 20
1.0
 30
0.0
  9
$PUCSORTHOREF
  2

  9
$PUCSORTHOVIEW
 70
0
  9
$PUCSORGTOP
 10
0.0
 20
0.0
 30
0.0
  9
$PUCSORGBOTTOM
 10
0.0
 20
0.0
 30
0.0
  9
$PUCSORGLEFT
 10
0.0
 20
0.0
 30
0.0
  9
$PUCSORGRIGHT
 10
0.0
 20
0.0
 30
0.0
  9
$PUCSORGFRONT
 10
0.0
 20
0.0
 30
0.0
  9
$PUCSORGBACK
 10
0.0
 20
0.0
 30
0.0
  9
$USERI1
 70
0
  9
$USERI2
 70
0
  9
$USERI3
 70
0
  9
$USERI4
 70
0
  9
$USERI5
 70
0
  9
$USERR1
 40
0.0
  9
$USERR2
 40
0.0
  9
$USERR3
 40
0.0
  9
$USERR4
 40
0.0
  9
$USERR5
 40
0.0
  9
$WORLDVIEW
 70
1
  9
$SHADEDGE
 70
3
  9
$SHADEDIF
 70
70
  9
$TILEMODE
 70
1
  9
$MAXACTVP
 70
64
  9
$PINSBASE
 10
0.0
 20
0.0
 30
0.0
  9
$PLIMCHECK
 70
0
  9
$PEXTMIN
 10
1e+20
 20
1e+20
 30
1e+20
  9
$PEXTMAX
 10
-1e+20
 20
-1e+20
 30
-1e+20
  9
$PLIMMIN
 10
0.0
 20
0.0
  9
$PLIMMAX
 10
420.0
 20
297.0
  9
$UNITMODE
 70
0
  9
$VISRETAIN
 70
1
  9
$PLINEGEN
 70
0
  9
$PSLTSCALE
 70
1
  9
$TREEDEPTH
 70
3020
  9
$CMLSTYLE
  2
Standard
  9
$CMLJUST
 70
0
  9
$CMLSCALE
 40
20.0
  9
$PROXYGRAPHICS
 70
1
  9
$MEASUREMENT
 70
1
  9
$CELWEIGHT
370
-1
  9
$ENDCAPS
280
0
  9
$JOINSTYLE
280
0
  9
$LWDISPLAY
290
0
  9
$INSUNITS
 70
6
  9
$HYPERLINKBASE
  1

  9
$STYLESHEET
  1

  9
$XEDIT
290
1
  9
$CEPSNTYPE
380
0
  9
$PSTYLEMODE
290
1
  9
$FINGERPRINTGUID
  2
{C911B37E-1F5A-4059-8C0F-947AD57C53F9}
  9
$VERSIONGUID
  2
{752D30BE-171D-4DB7-8674-DE79393E898C}
  9
$EXTNAMES
290
1
  9
$PSVPSCALE
 40
0.0
  9
$OLESTARTUP
290
0
  9
$SORTENTS
280
127
  9
$INDEXCTL
280
0
  9
$HIDETEXT
280
1
  9
$XCLIPFRAME
280
1
  9
$HALOGAP
280
0
  9
$OBSCOLOR
 70
257
  9
$OBSLTYPE
280
0
  9
$INTERSECTIONDISPLAY
280
0
  9
$INTERSECTIONCOLOR
 70
257
  9
$DIMASSOC
280
2
  9
$PROJECTNAME
  1

  9
$CAMERADISPLAY
290
0
  9
$LENSLENGTH
 40
50.0
  9
$CAMERAHEIGHT
 40
0.0
  9
$STEPSPERSEC
 40
24.0
  9
$STEPSIZE
 40
100.0
  9
$3DDWFPREC
 40
2.0
  9
$PSOLWIDTH
 40
0.005
  9
$PSOLHEIGHT
 40
0.08
  9
$LOFTANG1
 40
1.570796326795
  9
$LOFTANG2
 40
1.570796326795
  9
$LOFTMAG1
 40
0.0
  9
$LOFTMAG2
 40
0.0
  9
$LOFTPARAM
 70
7
  9
$LOFTNORMALS
280
1
  9
$LATITUDE
 40
37.795
  9
$LONGITUDE
 40
-122.394
  9
$NORTHDIRECTION
 40
0.0
  9
$TIMEZONE
 70
-8000
  9
$LIGHTGLYPHDISPLAY
280
1
  9
$TILEMODELIGHTSYNCH
280
1
  9
$CMATERIAL
347
20
  9
$SOLIDHIST
280
0
  9
$SHOWHIST
280
1
  9
$DWFFRAME
280
2
  9
$DGNFRAME
280
2
  9
$REALWORLDSCALE
290
1
  9
$INTERFERECOLOR
 62
256
  9
$CSHADOW
280
0
  9
$SHADOWPLANELOCATION
 40
0.0
  0
ENDSEC
  0
SECTION
  2
CLASSES
  0
CLASS
  1
ACDBDICTIONARYWDFLT
  2
AcDbDictionaryWithDefault
  3
ObjectDBX Classes
 90
0
 91
0
280
0
281
0
  0
CLASS
  1
SUN
  2
AcDbSun
  3
SCENEOE
 90
1153
 91
0
280
0
281
0
  0
CLASS
  1
VISUALSTYLE
  2
AcDbVisualStyle
  3
ObjectDBX Classes
 90
4095
 91
0
280
0
281
0
  0
CLASS
  1
MATERIAL
  2
AcDbMaterial
  3
ObjectDBX Classes
 90
1153
 91
0
280
0
281
0
  0
CLASS
  1
SCALE
  2
AcDbScale
  3
ObjectDBX Classes
 90
1153
 91
0
280
0
281
0
  0
CLASS
  1
TABLESTYLE
  2
AcDbTableStyle
  3
ObjectDBX Classes
 90
4095
 91
0
280
0
281
0
  0
CLASS
  1
MLEADERSTYLE
  2
AcDbMLeaderStyle
  3
ACDB_MLEADERSTYLE_CLASS
 90
4095
 91
0
280
0
281
0
  0
CLASS
  1
DICTIONARYVAR
  2
AcDbDictionaryVar
  3
ObjectDBX Classes
 90
0
 91
0
280
0
281
0
  0
CLASS
  1
CELLSTYLEMAP
  2
AcDbCellStyleMap
  3
ObjectDBX Classes
 90
1152
 91
0
280
0
281
0
  0
CLASS
  1
MENTALRAYRENDERSETTINGS
  2
AcDbMentalRayRenderSettings
  3
SCENEOE
 90
1024
 91
0
280
0
281
0
  0
CLASS
  1
ACDBDETAILVIEWSTYLE
  2
AcDbDetailViewStyle
  3
ObjectDBX Classes
 90
1025
 91
0
280
0
281
0
  0
CLASS
  1
ACDBSECTIONVIEWSTYLE
  2
AcDbSectionViewStyle
  3
ObjectDBX Classes
 90
1025
 91
0
280
0
281
0
  0
CLASS
  1
RASTERVARIABLES
  2
AcDbRasterVariables
  3
ISM
 90
0
 91
0
280
0
281
0
  0
CLASS
  1
LAYOUT
  2
AcDbLayout
  3
ObjectDBX Classes
 90
0
 91
0
280
0
281
0
  0
CLASS
  1
ACDBPLACEHOLDER
  2
AcDbPlaceHolder
  3
ObjectDBX Classes
 90
0
 91
0
280
0
281
0
  0
ENDSEC
  0
SECTION
  2
TABLES
  0
TABLE
  2
VPORT
  5
8
330
0
100
AcDbSymbolTable
 70
1
  0
VPORT
  5
23
330
8
100
AcDbSymbolTableRecord
100
AcDbViewportTableRecord
  2
*Active
 70
0
 10
0.0
 20
0.0
 11
1.0
 21
1.0
 12
0.0
 22
0.0
 13
0.0
 23
0.0
 14
0.5
 24
0.5
 15
0.5
 25
0.5
 16
0.0
 26
0.0
 36
1.0
 17
0.0
 27
0.0
 37
0.0
 40
1000.0
 41
1.34
 42
50.0
 43
0.0
 44
0.0
 50
0.0
 51
0.0
 71
0
 72
1000
 73
1
 74
3
 75
0
 76
0
 77
0
 78
0
281
0
 65
0
146
0.0
  0
ENDTAB
  0
TABLE
  2
LTYPE
  5
2
330
0
100
AcDbSymbolTable
 70
4
  0
LTYPE
  5
24
330
2
100
AcDbSymbolTableRecord
100
AcDbLinetypeTableRecord
  2
ByBlock
 70
0
  3

 72
65
 73
0
 40
0.0
  0
LTYPE
  5
25
330
2
100
AcDbSymbolTableRecord
100
AcDbLinetypeTableRecord
  2
ByLayer
 70
0
  3

 72
65
 73
0
 40
0.0
  0
LTYPE
  5
26
330
2
100
AcDbSymbolTableRecord
100
AcDbLinetypeTableRecord
  2
Continuous
 70
0
  3

 72
65
 73
0
 40
0.0
  0
LTYPE
  5
55
330
2
100
AcDbSymbolTableRecord
100
AcDbLinetypeTableRecord
  2
Dash
 70
0
  3

 72
65
 73
2
 40
6.350000000000001
 49
3.175
 74
0
 49
-3.175
 74
0
  0
ENDTAB
  0
TABLE
  2
LAYER
  5
1
330
0
100
AcDbSymbolTable
 70
4
  0
LAYER
  5
27
330
1
100
AcDbSymbolTableRecord
100
AcDbLayerTableRecord
  2
0
 70
0
 62
7
  6
Continuous
370
-3
390
13
347
21
  0
LAYER
  5
28
330
1
100
AcDbSymbolTableRecord
100
AcDbLayerTableRecord
  2
Defpoints
 70
0
 62
7
  6
Continuous
290
0
370
-3
390
13
347
21
  0
LAYER
  5
53
330
1
100
AcDbSymbolTableRecord
100
AcDbLayerTableRecord
  2
A-DETL-GENF-HDLN
 70
0
 62
1
  6
Dash
370
18
390
13
347
21
348
0
  0
LAYER
  5
54
330
1
100
AcDbSymbolTableRecord
100
AcDbLayerTableRecord
  2
A-DETL-GENF
 70
0
 62
92
  6
Continuous
370
18
390
13
347
21
348
0
  0
ENDTAB
  0
TABLE
  2
STYLE
  5
5
330
0
100
AcDbSymbolTable
 70
1
  0
STYLE
  5
29
330
5
100
AcDbSymbolTableRecord
100
AcDbTextStyleTableRecord
  2
Standard
 70
0
 40
0.0
 41
1.0
 50
0.0
 71
0
 42
2.5
  3
txt
  4

  0
ENDTAB
  0
TABLE
  2
VIEW
  5
7
330
0
100
AcDbSymbolTable
 70
0
  0
ENDTAB
  0
TABLE
  2
UCS
  5
6
330
0
100
AcDbSymbolTable
 70
0
  0
ENDTAB
  0
TABLE
  2
APPID
  5
3
330
0
100
AcDbSymbolTable
 70
3
  0
APPID
  5
2A
330
3
100
AcDbSymbolTableRecord
100
AcDbRegAppTableRecord
  2
ACAD
 70
0
  0
APPID
  5
58
330
3
100
AcDbSymbolTableRecord
100
AcDbRegAppTableRecord
  2
HATCHBACKGROUNDCOLOR
 70
0
  0
APPID
  5
59
330
3
100
AcDbSymbolTableRecord
100
AcDbRegAppTableRecord
  2
EZDXF
 70
0
  0
ENDTAB
  0
TABLE
  2
DIMSTYLE
  5
4
330
0
100
AcDbSymbolTable
 70
1
100
AcDbDimStyleTable
  0
DIMSTYLE
105
2B
330
4
100
AcDbSymbolTableRecord
100
AcDbDimStyleTableRecord
  2
Standard
 70
0
 40
1.0
 41
2.5
 42
0.625
 43
3.75
 44
1.25
 45
0.0
 46
0.0
 47
0.0
 48
0.0
 49
2.5
140
2.5
141
2.5
142
0.0
143
0.03937007874
144
1.0
145
0.0
146
1.0
147
0.625
148
0.0
 69
0
 70
0
 71
0
 72
0
 73
0
 74
0
 75
0
 76
0
 77
1
 78
8
 79
3
170
0
171
3
172
1
173
0
174
0
175
0
176
0
177
0
178
0
179
2
271
2
272
2
273
2
274
3
275
0
276
0
277
2
278
44
279
0
280
0
281
0
282
0
283
0
284
8
285
0
286
0
288
0
289
3
290
0
371
-2
372
-2
  0
ENDTAB
  0
TABLE
  2
BLOCK_RECORD
  5
9
330
0
100
AcDbSymbolTable
 70
3
  0
BLOCK_RECORD
  5
17
330
9
100
AcDbSymbolTableRecord
100
AcDbBlockTableRecord
  2
*Model_Space
340
1A
 70
0
280
1
281
0
  0
BLOCK_RECORD
  5
1B
330
9
100
AcDbSymbolTableRecord
100
AcDbBlockTableRecord
  2
*Paper_Space
340
1E
 70
0
280
1
281
0
  0
BLOCK_RECORD
  5
2F
330
9
100
AcDbSymbolTableRecord
100
AcDbBlockTableRecord
  2
28 kokerprofiel - 80x80x5-1485262-00_0 Basismaterialen
340
0
 70
0
280
1
281
0
  0
ENDTAB
  0
ENDSEC
  0
SECTION
  2
BLOCKS
  0
BLOCK
  5
18
330
17
100
AcDbEntity
  8
0
100
AcDbBlockBegin
  2
*Model_Space
 70
0
 10
0.0
 20
0.0
 30
0.0
  3
*Model_Space
  1

  0
ENDBLK
  5
19
330
17
100
AcDbEntity
  8
0
100
AcDbBlockEnd
  0
BLOCK
  5
1C
330
1B
100
AcDbEntity
  8
0
100
AcDbBlockBegin
  2
*Paper_Space
 70
0
 10
0.0
 20
0.0
 30
0.0
  3
*Paper_Space
  1

  0
ENDBLK
  5
1D
330
1B
100
AcDbEntity
  8
0
100
AcDbBlockEnd
  0
BLOCK
  5
30
330
2F
100
AcDbEntity
  8
0
100
AcDbBlockBegin
  2
28 kokerprofiel - 80x80x5-1485262-00_0 Basismaterialen
 70
0
 10
0.0
 20
0.0
 30
0.0
  3
28 kokerprofiel - 80x80x5-1485262-00_0 Basismaterialen
  1

  0
HATCH
  5
32
330
2F
100
AcDbEntity
  8
A-DETL-GENF
  6
Dash
100
AcDbHatch
 10
0.0
 20
0.0
 30
0.0
210
0.0
220
0.0
230
1.0
  2
SOLID
 70
1
 71
0
 91
2
 92
1
 93
28
 72
1
 10
-35.00000000001803
 20
-39.99999999999741
 11
34.99999999997904
 21
-39.99999999999741
 72
1
 10
34.99999999997905
 20
-39.99999999999741
 11
36.29409522549298
 21
-39.82962913144166
 72
1
 10
36.29409522549298
 20
-39.82962913144166
 11
37.49999999998281
 21
-39.33012701891796
 72
1
 10
37.49999999998281
 20
-39.33012701891796
 11
38.53553390591365
 21
-38.53553390592989
 72
1
 10
38.53553390591365
 20
-38.53553390592989
 11
39.33012701890279
 21
-37.49999999999689
 72
1
 10
39.33012701890279
 20
-37.49999999999689
 11
39.82962913142758
 21
-36.29409522550814
 72
1
 10
39.82962913142758
 20
-36.29409522550814
 11
39.99999999998225
 21
-34.99999999999638
 72
1
 10
39.99999999998225
 20
-34.99999999999638
 11
39.99999999998225
 21
35.00000000000287
 72
1
 10
39.99999999998225
 20
35.00000000000287
 11
39.82962913142758
 21
36.29409522551681
 72
1
 10
39.82962913142758
 20
36.29409522551681
 11
39.33012701890279
 21
37.50000000000339
 72
1
 10
39.33012701890279
 20
37.50000000000339
 11
38.53553390591365
 21
38.53553390593638
 72
1
 10
38.53553390591365
 20
38.53553390593638
 11
37.49999999998281
 21
39.33012701892662
 72
1
 10
37.49999999998281
 20
39.33012701892662
 11
36.29409522549298
 21
39.82962913144815
 72
1
 10
36.29409522549298
 20
39.82962913144815
 11
34.99999999997905
 21
40.00000000000389
 72
1
 10
34.99999999997905
 20
40.00000000000389
 11
-35.00000000001803
 21
40.00000000000389
 72
1
 10
-35.00000000001803
 20
40.00000000000389
 11
-36.29409522553197
 21
39.82962913145032
 72
1
 10
-36.29409522553197
 20
39.82962913145032
 11
-37.5000000000218
 21
39.33012701892662
 72
1
 10
-37.5000000000218
 20
39.33012701892662
 11
-38.53553390595262
 21
38.53553390593638
 72
1
 10
-38.53553390595262
 20
38.53553390593638
 11
-39.33012701894178
 21
37.50000000000339
 72
1
 10
-39.33012701894178
 20
37.50000000000339
 11
-39.82962913146656
 21
36.29409522551681
 72
1
 10
-39.82962913146656
 20
36.29409522551681
 11
-40.00000000002122
 21
35.00000000000287
 72
1
 10
-40.00000000002122
 20
35.00000000000287
 11
-40.00000000002122
 21
-34.99999999999638
 72
1
 10
-40.00000000002122
 20
-34.99999999999638
 11
-39.82962913146656
 21
-36.29409522550814
 72
1
 10
-39.82962913146656
 20
-36.29409522550814
 11
-39.33012701894178
 21
-37.49999999999689
 72
1
 10
-39.33012701894178
 20
-37.49999999999689
 11
-38.53553390595262
 21
-38.53553390592772
 72
1
 10
-38.53553390595262
 20
-38.53553390592772
 11
-37.5000000000218
 21
-39.33012701891796
 72
1
 10
-37.5000000000218
 20
-39.33012701891796
 11
-36.29409522553197
 21
-39.82962913144166
 72
1
 10
-36.29409522553197
 20
-39.82962913144166
 11
-35.00000000001803
 21
-39.99999999999741
 97
0
 92
1
 93
24
 72
1
 10
33.49999999997939
 20
-34.99999999999638
 11
-33.88822856767081
 21
-34.94888873942824
 72
1
 10
-33.88822856767082
 20
-34.94888873942824
 11
-34.25000000001821
 21
-34.79903810567168
 72
1
 10
-34.25000000001821
 20
-34.79903810567168
 11
-34.56066017179745
 21
-34.5606601717758
 72
1
 10
-34.56066017179745
 20
-34.5606601717758
 11
-34.79903810569334
 21
-34.24999999999438
 72
1
 10
-34.79903810569334
 20
-34.24999999999438
 11
-34.94888873945424
 21
-33.88822856764808
 72
1
 10
-34.94888873945424
 20
-33.88822856764808
 11
-35.00000000001803
 21
-33.49999999999455
 72
1
 10
-35.00000000001803
 20
-33.49999999999455
 11
-34.9488887394499
 21
33.88822856765565
 72
1
 10
-34.9488887394499
 20
33.88822856765566
 11
-34.79903810569334
 21
34.25000000000304
 72
1
 10
-34.79903810569334
 20
34.25000000000304
 11
-34.56066017179745
 21
34.56066017178121
 72
1
 10
-34.56066017179745
 20
34.56066017178121
 11
-34.25000000001821
 21
34.79903810567817
 72
1
 10
-34.25000000001821
 20
34.79903810567817
 11
-33.88822856767082
 21
34.94888873943474
 72
1
 10
-33.88822856767082
 20
34.94888873943474
 11
-33.50000000001838
 21
35.00000000000287
 72
1
 10
-33.50000000001838
 20
35.00000000000287
 11
33.88822856763183
 21
34.94888873943474
 72
1
 10
33.88822856763184
 20
34.94888873943474
 11
34.24999999997922
 21
34.79903810567817
 72
1
 10
34.24999999997922
 20
34.79903810567817
 11
34.56066017175847
 21
34.56066017178121
 72
1
 10
34.56066017175847
 20
34.56066017178121
 11
34.79903810565435
 21
34.25000000000088
 72
1
 10
34.79903810565435
 20
34.25000000000088
 11
34.94888873941092
 21
33.88822856765566
 72
1
 10
34.94888873941092
 20
33.88822856765566
 11
34.99999999997905
 21
33.50000000000104
 72
1
 10
34.99999999997905
 20
33.50000000000104
 11
34.94888873941092
 21
-33.88822856764808
 72
1
 10
34.94888873941092
 20
-33.88822856764808
 11
34.79903810565435
 21
-34.2499999999933
 72
1
 10
34.79903810565435
 20
-34.2499999999933
 11
34.56066017175847
 21
-34.56066017177363
 72
1
 10
34.56066017175847
 20
-34.56066017177363
 11
34.24999999997922
 21
-34.79903810567059
 72
1
 10
34.24999999997922
 20
-34.79903810567059
 11
33.88822856763184
 21
-34.94888873942716
 72
1
 10
33.88822856763184
 20
-34.94888873942716
 11
33.49999999997939
 21
-34.99999999999638
 97
0
 75
0
 76
1
 98
1
 10
0.0
 20
0.0
450
0
451
0
460
0.0
461
0.0
452
0
462
0.0
453
0
470

  0
LINE
  5
33
330
2F
100
AcDbEntity
  8
A-DETL-GENF
100
AcDbLine
 10
34.99999999999978
 20
40.0
 30
0.0
 11
-34.99999999999963
 21
40.0
 31
0.0
  0
ARC
  5
34
330
2F
100
AcDbEntity
  8
A-DETL-GENF
100
AcDbCircle
 10
-34.9999999999996
 20
34.9999999999996
 30
0.0
 40
5.000000000000174
100
AcDbArc
 50
89.99999999999987
 51
180.0000000000046
  0
LINE
  5
35
330
2F
100
AcDbEntity
  8
A-DETL-GENF
100
AcDbLine
 10
-40.0
 20
34.99999999999884
 30
0.0
 11
-40.0
 21
-34.99999999999962
 31
0.0
  0
ARC
  5
36
330
2F
100
AcDbEntity
  8
A-DETL-GENF
100
AcDbCircle
 10
-34.99999999999924
 20
-34.99999999999961
 30
0.0
 40
5.000000000000799
100
AcDbArc
 50
180.0
 51
269.9999999999928
  0
LINE
  5
37
330
2F
100
AcDbEntity
  8
A-DETL-GENF
100
AcDbLine
 10
-34.99999999999963
 20
-40.00000000000038
 30
0.0
 11
34.99999999999978
 21
-40.00000000000038
 31
0.0
  0
ARC
  5
38
330
2F
100
AcDbEntity
  8
A-DETL-GENF
100
AcDbCircle
 10
34.99999999999975
 20
-34.99999999999991
 30
0.0
 40
5.000000000000471
100
AcDbArc
 50
269.9999999999994
 51
359.9999999999992
  0
LINE
  5
39
330
2F
100
AcDbEntity
  8
A-DETL-GENF
100
AcDbLine
 10
40.00000000000023
 20
-34.99999999999962
 30
0.0
 11
40.00000000000023
 21
34.99999999999884
 31
0.0
  0
ARC
  5
3A
330
2F
100
AcDbEntity
  8
A-DETL-GENF
100
AcDbCircle
 10
34.99999999999906
 20
34.99999999999884
 30
0.0
 40
5.000000000000571
100
AcDbArc
 50
359.9999999999992
 51
89.99999999999955
  0
ARC
  5
3B
330
2F
100
AcDbEntity
  8
A-DETL-GENF
100
AcDbCircle
 10
33.49999999999856
 20
33.49999999999763
 30
0.0
 40
1.50000000000001
100
AcDbArc
 50
359.9999999999995
 51
89.99999999999984
  0
LINE
  5
3C
330
2F
100
AcDbEntity
  8
A-DETL-GENF
100
AcDbLine
 10
34.99999999999978
 20
33.49999999999763
 30
0.0
 11
34.99999999999978
 21
-33.49999999999762
 31
0.0
  0
ARC
  5
3D
330
2F
100
AcDbEntity
  8
A-DETL-GENF
100
AcDbCircle
 10
33.49999999999778
 20
-33.49999999999762
 30
0.0
 40
1.500000000000005
100
AcDbArc
 50
270.0000000000003
 51
1.399e-13
  0
LINE
  5
3E
330
2F
100
AcDbEntity
  8
A-DETL-GENF
100
AcDbLine
 10
33.49999999999778
 20
-34.99999999999962
 30
0.0
 11
-33.49999999999936
 21
-34.99999999999962
 31
0.0
  0
ARC
  5
3F
330
2F
100
AcDbEntity
  8
A-DETL-GENF
100
AcDbCircle
 10
-33.49999999999936
 20
-33.4999999999992
 30
0.0
 40
1.500000000000014
100
AcDbArc
 50
180.0000000000004
 51
269.9999999999997
  0
LINE
  5
40
330
2F
100
AcDbEntity
  8
A-DETL-GENF
100
AcDbLine
 10
-34.99999999999977
 20
-33.49999999999921
 30
0.0
 11
-34.99999999999977
 21
33.49999999999805
 31
0.0
  0
ARC
  5
41
330
2F
100
AcDbEntity
  8
A-DETL-GENF
100
AcDbCircle
 10
-33.49999999999897
 20
33.49999999999805
 30
0.0
 40
1.5
100
AcDbArc
 50
90.0
 51
180.0
  0
LINE
  5
42
330
2F
100
AcDbEntity
  8
A-DETL-GENF
100
AcDbLine
 10
-33.49999999999897
 20
34.99999999999884
 30
0.0
 11
33.49999999999857
 21
34.99999999999884
 31
0.0
  0
LINE
  5
43
330
2F
100
AcDbEntity
  8
A-DETL-GENF-HDLN
100
AcDbLine
 10
-34.99999999999975
 20
40.0
 30
0.0
 11
35.00000000000014
 21
40.0
 31
0.0
  0
LINE
  5
44
330
2F
100
AcDbEntity
  8
A-DETL-GENF-HDLN
100
AcDbLine
 10
-40.0
 20
-35.00000000000033
 30
0.0
 11
-40.0
 21
34.99999999999978
 31
0.0
  0
LINE
  5
45
330
2F
100
AcDbEntity
  8
A-DETL-GENF-HDLN
100
AcDbLine
 10
34.99999999999994
 20
-40.00000000000038
 30
0.0
 11
-34.99999999999994
 21
-40.00000000000038
 31
0.0
  0
LINE
  5
46
330
2F
100
AcDbEntity
  8
A-DETL-GENF-HDLN
100
AcDbLine
 10
40.00000000000023
 20
34.9999999999999
 30
0.0
 11
40.00000000000023
 21
-35.00000000000008
 31
0.0
  0
LINE
  5
47
330
2F
100
AcDbEntity
  8
A-DETL-GENF-HDLN
100
AcDbLine
 10
-33.49999999999962
 20
34.99999999999884
 30
0.0
 11
33.50000000000014
 21
34.99999999999884
 31
0.0
  0
LINE
  5
48
330
2F
100
AcDbEntity
  8
A-DETL-GENF-HDLN
100
AcDbLine
 10
-34.99999999999963
 20
-33.50000000000011
 30
0.0
 11
-34.99999999999963
 21
33.49999999999884
 31
0.0
  0
LINE
  5
49
330
2F
100
AcDbEntity
  8
A-DETL-GENF-HDLN
100
AcDbLine
 10
33.49999999999994
 20
-34.99999999999962
 30
0.0
 11
-33.50000000000011
 21
-34.99999999999962
 31
0.0
  0
LINE
  5
4A
330
2F
100
AcDbEntity
  8
A-DETL-GENF-HDLN
100
AcDbLine
 10
34.99999999999978
 20
33.4999999999992
 30
0.0
 11
34.99999999999978
 21
-33.49999999999977
 31
0.0
  0
ARC
  5
4B
330
2F
100
AcDbEntity
  8
A-DETL-GENF-HDLN
100
AcDbCircle
 10
-33.49999999999962
 20
33.49999999999884
 30
0.0
 40
1.499999999999998
100
AcDbArc
 50
89.99999999999987
 51
179.9999999999998
  0
ARC
  5
4C
330
2F
100
AcDbEntity
  8
A-DETL-GENF-HDLN
100
AcDbCircle
 10
-34.99999999999977
 20
34.99999999999977
 30
0.0
 40
5.000000000000113
100
AcDbArc
 50
89.99999999999984
 51
179.9999999999998
  0
ARC
  5
4D
330
2F
100
AcDbEntity
  8
A-DETL-GENF-HDLN
100
AcDbCircle
 10
35.00000000000012
 20
34.9999999999999
 30
0.0
 40
5.000000000000351
100
AcDbArc
 50
359.9999999999996
 51
90.00000000000006
  0
ARC
  5
4E
330
2F
100
AcDbEntity
  8
A-DETL-GENF-HDLN
100
AcDbCircle
 10
34.99999999999993
 20
-35.00000000000008
 30
0.0
 40
5.000000000000366
100
AcDbArc
 50
269.9999999999996
 51
3.82e-14
  0
ARC
  5
4F
330
2F
100
AcDbEntity
  8
A-DETL-GENF-HDLN
100
AcDbCircle
 10
-34.99999999999995
 20
-35.00000000000032
 30
0.0
 40
4.999999999999483
100
AcDbArc
 50
179.9999999999997
 51
269.9999999999994
  0
ARC
  5
50
330
2F
100
AcDbEntity
  8
A-DETL-GENF-HDLN
100
AcDbCircle
 10
-33.50000000000012
 20
-33.5000000000001
 30
0.0
 40
1.5
100
AcDbArc
 50
179.9999999999997
 51
269.9999999999994
  0
ARC
  5
51
330
2F
100
AcDbEntity
  8
A-DETL-GENF-HDLN
100
AcDbCircle
 10
33.49999999999994
 20
-33.49999999999977
 30
0.0
 40
1.499999999999998
100
AcDbArc
 50
269.9999999999995
 51
1.272e-13
  0
ARC
  5
52
330
2F
100
AcDbEntity
  8
A-DETL-GENF-HDLN
100
AcDbCircle
 10
33.50000000000014
 20
33.4999999999992
 30
0.0
 40
1.500000000000003
100
AcDbArc
 50
359.9999999999995
 51
90.00000000000014
  0
ENDBLK
  5
31
330
2F
100
AcDbEntity
  8
0
100
AcDbBlockEnd
  0
ENDSEC
  0
SECTION
  2
ENTITIES
  0
INSERT
  5
56
330
17
100
AcDbEntity
  8
0
100
AcDbBlockReference
  2
28 kokerprofiel - 80x80x5-1485262-00_0 Basismaterialen
 10
0.0
 20
0.0
 30
0.0
  0
ENDSEC
  0
SECTION
  2
OBJECTS
  0
DICTIONARY
  5
A
330
0
100
AcDbDictionary
281
1
  3
ACAD_COLOR
350
B
  3
ACAD_GROUP
350
C
  3
ACAD_LAYOUT
350
D
  3
ACAD_MATERIAL
350
E
  3
ACAD_MLEADERSTYLE
350
F
  3
ACAD_MLINESTYLE
350
10
  3
ACAD_PLOTSETTINGS
350
11
  3
ACAD_PLOTSTYLENAME
350
12
  3
ACAD_SCALELIST
350
14
  3
ACAD_TABLESTYLE
350
15
  3
ACAD_VISUALSTYLE
350
16
  3
EZDXF_META
350
2D
  0
DICTIONARY
  5
B
330
A
100
AcDbDictionary
281
1
  0
DICTIONARY
  5
C
330
A
100
AcDbDictionary
281
1
  0
DICTIONARY
  5
D
330
A
100
AcDbDictionary
281
1
  3
Model
350
1A
  3
Layout1
350
1E
  0
DICTIONARY
  5
E
330
A
100
AcDbDictionary
281
1
  3
ByBlock
350
1F
  3
ByLayer
350
20
  3
Global
350
21
  0
DICTIONARY
  5
F
330
A
100
AcDbDictionary
281
1
  3
Standard
350
2C
  0
DICTIONARY
  5
10
330
A
100
AcDbDictionary
281
1
  3
Standard
350
22
  0
DICTIONARY
  5
11
330
A
100
AcDbDictionary
281
1
  0
ACDBDICTIONARYWDFLT
  5
12
330
A
100
AcDbDictionary
281
1
  3
Normal
350
13
100
AcDbDictionaryWithDefault
340
13
  0
ACDBPLACEHOLDER
  5
13
330
12
  0
DICTIONARY
  5
14
330
A
100
AcDbDictionary
281
1
  0
DICTIONARY
  5
15
330
A
100
AcDbDictionary
281
1
  0
DICTIONARY
  5
16
330
A
100
AcDbDictionary
281
1
  0
LAYOUT
  5
1A
330
D
100
AcDbPlotSettings
  1

  4
A3
  6

 40
7.5
 41
20.0
 42
7.5
 43
20.0
 44
420.0
 45
297.0
 46
0.0
 47
0.0
 48
0.0
 49
0.0
140
0.0
141
0.0
142
1.0
143
1.0
 70
1024
 72
1
 73
0
 74
5
  7

 75
16
 76
0
 77
2
 78
300
147
1.0
148
0.0
149
0.0
100
AcDbLayout
  1
Model
 70
1
 71
0
 10
0.0
 20
0.0
 11
420.0
 21
297.0
 12
0.0
 22
0.0
 32
0.0
 14
1e+20
 24
1e+20
 34
1e+20
 15
-1e+20
 25
-1e+20
 35
-1e+20
146
0.0
 13
0.0
 23
0.0
 33
0.0
 16
1.0
 26
0.0
 36
0.0
 17
0.0
 27
1.0
 37
0.0
 76
1
330
17
  0
LAYOUT
  5
1E
330
D
100
AcDbPlotSettings
  1

  4
A3
  6

 40
7.5
 41
20.0
 42
7.5
 43
20.0
 44
420.0
 45
297.0
 46
0.0
 47
0.0
 48
0.0
 49
0.0
140
0.0
141
0.0
142
1.0
143
1.0
 70
0
 72
1
 73
0
 74
5
  7

 75
16
 76
0
 77
2
 78
300
147
1.0
148
0.0
149
0.0
100
AcDbLayout
  1
Layout1
 70
1
 71
1
 10
0.0
 20
0.0
 11
420.0
 21
297.0
 12
0.0
 22
0.0
 32
0.0
 14
1e+20
 24
1e+20
 34
1e+20
 15
-1e+20
 25
-1e+20
 35
-1e+20
146
0.0
 13
0.0
 23
0.0
 33
0.0
 16
1.0
 26
0.0
 36
0.0
 17
0.0
 27
1.0
 37
0.0
 76
1
330
1B
  0
MATERIAL
  5
1F
102
{ACAD_REACTORS
330
E
102
}
330
E
100
AcDbMaterial
  1
ByBlock
  2

 70
0
 40
1.0
 71
1
 41
1.0
 91
-1023410177
 42
1.0
 72
1
  3

 73
1
 74
1
 75
1
 44
0.5
 73
0
 45
1.0
 46
1.0
 77
1
  4

 78
1
 79
1
170
1
 48
1.0
171
1
  6

172
1
173
1
174
1
140
1.0
141
1.0
175
1
  7

176
1
177
1
178
1
143
1.0
179
1
  8

270
1
271
1
272
1
145
1.0
146
1.0
273
1
  9

274
1
275
1
276
1
 42
1.0
 72
1
  3

 73
1
 74
1
 75
1
 94
63
  0
MATERIAL
  5
20
102
{ACAD_REACTORS
330
E
102
}
330
E
100
AcDbMaterial
  1
ByLayer
  2

 70
0
 40
1.0
 71
1
 41
1.0
 91
-1023410177
 42
1.0
 72
1
  3

 73
1
 74
1
 75
1
 44
0.5
 73
0
 45
1.0
 46
1.0
 77
1
  4

 78
1
 79
1
170
1
 48
1.0
171
1
  6

172
1
173
1
174
1
140
1.0
141
1.0
175
1
  7

176
1
177
1
178
1
143
1.0
179
1
  8

270
1
271
1
272
1
145
1.0
146
1.0
273
1
  9

274
1
275
1
276
1
 42
1.0
 72
1
  3

 73
1
 74
1
 75
1
 94
63
  0
MATERIAL
  5
21
102
{ACAD_REACTORS
330
E
102
}
330
E
100
AcDbMaterial
  1
Global
  2

 70
0
 40
1.0
 71
1
 41
1.0
 91
-1023410177
 42
1.0
 72
1
  3

 73
1
 74
1
 75
1
 44
0.5
 73
0
 45
1.0
 46
1.0
 77
1
  4

 78
1
 79
1
170
1
 48
1.0
171
1
  6

172
1
173
1
174
1
140
1.0
141
1.0
175
1
  7

176
1
177
1
178
1
143
1.0
179
1
  8

270
1
271
1
272
1
145
1.0
146
1.0
273
1
  9

274
1
275
1
276
1
 42
1.0
 72
1
  3

 73
1
 74
1
 75
1
 94
63
  0
MLINESTYLE
  5
22
102
{ACAD_REACTORS
330
10
102
}
330
10
100
AcDbMlineStyle
  2
Standard
 70
0
  3

 62
256
 51
90.0
 52
90.0
 71
2
 49
0.5
 62
256
  6
BYLAYER
 49
-0.5
 62
256
  6
BYLAYER
  0
MLEADERSTYLE
  5
2C
102
{ACAD_REACTORS
330
F
102
}
330
F
100
AcDbMLeaderStyle
179
2
170
2
171
1
172
0
 90
2
 40
0.0
 41
0.0
173
1
 91
-1056964608
 92
-2
290
1
 42
2.0
291
1
 43
8.0
  3
Standard
 44
4.0
300

342
29
174
1
175
1
176
0
178
1
 93
-1056964608
 45
4.0
292
0
297
0
 46
4.0
 94
-1056964608
 47
1.0
 49
1.0
140
1.0
294
1
141
0.0
177
0
142
1.0
295
0
296
0
143
3.75
271
0
272
9
273
9
  0
DICTIONARY
  5
2D
330
A
100
AcDbDictionary
280
1
281
1
  3
CREATED_BY_EZDXF
350
2E
  3
WRITTEN_BY_EZDXF
350
5A
  0
DICTIONARYVAR
  5
2E
330
2D
100
DictionaryVariables
280
0
  1
1.4.3 @ 2026-02-13T04:54:10.803317+00:00
  0
DICTIONARYVAR
  5
5A
330
2D
100
DictionaryVariables
280
0
  1
1.4.3 @ 2026-02-13T04:54:10.806232+00:00
  0
ENDSEC
  0
EOF
