  0
SECTION
  2
HEADER
  9
$ACADVER
  1
AC1032
  9
$ACADMAINTVER
 90
4
  9
$DWGCODEPAGE
  3
ANSI_1252
  9
$LASTSAVEDBY
  1
ezdxf
  9
$REQUIREDVERSIONS
160
0
  9
$INSBASE
 10
0.0
 20
0.0
 30
0.0
  9
$EXTMIN
 10
1e+20
 20
1e+20
 30
1e+20
  9
$EXTMAX
 10
-1e+20
 20
-1e+20
 30
-1e+20
  9
$LIMMIN
 10
0.0
 20
0.0
  9
$LIMMAX
 10
420.0
 20
297.0
  9
$ORTHOMODE
 70
0
  9
$REGENMODE
 70
1
  9
$FILLMODE
 70
1
  9
$QTEXTMODE
 70
0
  9
$MIRRTEXT
 70
1
  9
$LTSCALE
 40
1.0
  9
$ATTMODE
 70
1
  9
$TEXTSIZE
 40
2.5
  9
$TRACEWID
 40
1.0
  9
$TEXTSTYLE
  7
Standard
  9
$CLAYER
  8
0
  9
$CELTYPE
  6
ByLayer
  9
$CECOLOR
 62
256
  9
$CELTSCALE
 40
1.0
  9
$DISPSILH
 70
0
  9
$DIMSCALE
 40
1.0
  9
$DIMASZ
 40
2.5
  9
$DIMEXO
 40
0.625
  9
$DIMDLI
 40
3.75
  9
$DIMRND
 40
0.0
  9
$DIMDLE
 40
0.0
  9
$DIMEXE
 40
1.25
  9
$DIMTP
 40
0.0
  9
$DIMTM
 40
0.0
  9
$DIMTXT
 40
2.5
  9
$DIMCEN
 40
2.5
  9
$DIMTSZ
 40
0.0
  9
$DIMTOL
 70
0
  9
$DIMLIM
 70
0
  9
$DIMTIH
 70
0
  9
$DIMTOH
 70
0
  9
$DIMSE1
 70
0
  9
$DIMSE2
 70
0
  9
$DIMTAD
 70
1
  9
$DIMZIN
 70
8
  9
$DIMBLK
  1

  9
$DIMASO
 70
1
  9
$DIMSHO
 70
1
  9
$DIMPOST
  1

  9
$DIMAPOST
  1

  9
$DIMALT
 70
0
  9
$DIMALTD
 70
3
  9
$DIMALTF
 40
0.03937007874
  9
$DIMLFAC
 40
1.0
  9
$DIMTOFL
 70
1
  9
$DIMTVP
 40
0.0
  9
$DIMTIX
 70
0
  9
$DIMSOXD
 70
0
  9
$DIMSAH
 70
0
  9
$DIMBLK1
  1

  9
$DIMBLK2
  1

  9
$DIMSTYLE
  2
ISO-25
  9
$DIMCLRD
 70
0
  9
$DIMCLRE
 70
0
  9
$DIMCLRT
 70
0
  9
$DIMTFAC
 40
1.0
  9
$DIMGAP
 40
0.625
  9
$DIMJUST
 70
0
  9
$DIMSD1
 70
0
  9
$DIMSD2
 70
0
  9
$DIMTOLJ
 70
0
  9
$DIMTZIN
 70
8
  9
$DIMALTZ
 70
0
  9
$DIMALTTZ
 70
0
  9
$DIMUPT
 70
0
  9
$DIMDEC
 70
2
  9
$DIMTDEC
 70
2
  9
$DIMALTU
 70
2
  9
$DIMALTTD
 70
3
  9
$DIMTXSTY
  7
Standard
  9
$DIMAUNIT
 70
0
  9
$DIMADEC
 70
0
  9
$DIMALTRND
 40
0.0
  9
$DIMAZIN
 70
0
  9
$DIMDSEP
 70
44
  9
$DIMATFIT
 70
3
  9
$DIMFRAC
 70
0
  9
$DIMLDRBLK
  1

  9
$DIMLUNIT
 70
2
  9
$DIMLWD
 70
-2
  9
$DIMLWE
 70
-2
  9
$DIMTMOVE
 70
0
  9
$DIMFXL
 40
1.0
  9
$DIMFXLON
 70
0
  9
$DIMJOGANG
 40
0.785398163397
  9
$DIMTFILL
 70
0
  9
$DIMTFILLCLR
 70
0
  9
$DIMARCSYM
 70
0
  9
$DIMLTYPE
  6

  9
$DIMLTEX1
  6

  9
$DIMLTEX2
  6

  9
$DIMTXTDIRECTION
 70
0
  9
$LUNITS
 70
2
  9
$LUPREC
 70
4
  9
$SKETCHINC
 40
1.0
  9
$FILLETRAD
 40
10.0
  9
$AUNITS
 70
0
  9
$AUPREC
 70
2
  9
$MENU
  1
.
  9
$ELEVATION
 40
0.0
  9
$PELEVATION
 40
0.0
  9
$THICKNESS
 40
0.0
  9
$LIMCHECK
 70
0
  9
$CHAMFERA
 40
0.0
  9
$CHAMFERB
 40
0.0
  9
$CHAMFERC
 40
0.0
  9
$CHAMFERD
 40
0.0
  9
$SKPOLY
 70
0
  9
$TDCREATE
 40
2461085.2459375
  9
$TDUCREATE
 40
2458532.153996898
  9
$TDUPDATE
 40
2461085.2459375
  9
$TDUUPDATE
 40
2458532.1544311
  9
$TDINDWG
 40
0.0
  9
$TDUSRTIMER
 40
0.0
  9
$USRTIMER
 70
1
  9
$ANGBASE
 50
0.0
  9
$ANGDIR
 70
0
  9
$PDMODE
 70
0
  9
$PDSIZE
 40
0.0
  9
$PLINEWID
 40
0.0
  9
$SPLFRAME
 70
0
  9
$SPLINETYPE
 70
6
  9
$SPLINESEGS
 70
8
  9
$HANDSEED
  5
64
  9
$SURFTAB1
 70
6
  9
$SURFTAB2
 70
6
  9
$SURFTYPE
 70
6
  9
$SURFU
 70
6
  9
$SURFV
 70
6
  9
$UCSBASE
  2

  9
$UCSNAME
  2

  9
$UCSORG
 10
0.0
 20
0.0
 30
0.0
  9
$UCSXDIR
 10
1.0
 20
0.0
 30
0.0
  9
$UCSYDIR
 10
0.0
 20
1.0
 30
0.0
  9
$UCSORTHOREF
  2

  9
$UCSORTHOVIEW
 70
0
  9
$UCSORGTOP
 10
0.0
 20
0.0
 30
0.0
  9
$UCSORGBOTTOM
 10
0.0
 20
0.0
 30
0.0
  9
$UCSORGLEFT
 10
0.0
 20
0.0
 30
0.0
  9
$UCSORGRIGHT
 10
0.0
 20
0.0
 30
0.0
  9
$UCSORGFRONT
 10
0.0
 20
0.0
 30
0.0
  9
$UCSORGBACK
 10
0.0
 20
0.0
 30
0.0
  9
$PUCSBASE
  2

  9
$PUCSNAME
  2

  9
$PUCSORG
 10
0.0
 20
0.0
 30
0.0
  9
$PUCSXDIR
 10
1.0
 20
0.0
 30
0.0
  9
$PUCSYDIR
 10
0.0
 20
1.0
 30
0.0
  9
$PUCSORTHOREF
  2

  9
$PUCSORTHOVIEW
 70
0
  9
$PUCSORGTOP
 10
0.0
 20
0.0
 30
0.0
  9
$PUCSORGBOTTOM
 10
0.0
 20
0.0
 30
0.0
  9
$PUCSORGLEFT
 10
0.0
 20
0.0
 30
0.0
  9
$PUCSORGRIGHT
 10
0.0
 20
0.0
 30
0.0
  9
$PUCSORGFRONT
 10
0.0
 20
0.0
 30
0.0
  9
$PUCSORGBACK
 10
0.0
 20
0.0
 30
0.0
  9
$USERI1
 70
0
  9
$USERI2
 70
0
  9
$USERI3
 70
0
  9
$USERI4
 70
0
  9
$USERI5
 70
0
  9
$USERR1
 40
0.0
  9
$USERR2
 40
0.0
  9
$USERR3
 40
0.0
  9
$USERR4
 40
0.0
  9
$USERR5
 40
0.0
  9
$WORLDVIEW
 70
1
  9
$SHADEDGE
 70
3
  9
$SHADEDIF
 70
70
  9
$TILEMODE
 70
1
  9
$MAXACTVP
 70
64
  9
$PINSBASE
 10
0.0
 20
0.0
 30
0.0
  9
$PLIMCHECK
 70
0
  9
$PEXTMIN
 10
1e+20
 20
1e+20
 30
1e+20
  9
$PEXTMAX
 10
-1e+20
 20
-1e+20
 30
-1e+20
  9
$PLIMMIN
 10
0.0
 20
0.0
  9
$PLIMMAX
 10
420.0
 20
297.0
  9
$UNITMODE
 70
0
  9
$VISRETAIN
 70
1
  9
$PLINEGEN
 70
0
  9
$PSLTSCALE
 70
1
  9
$TREEDEPTH
 70
3020
  9
$CMLSTYLE
  2
Standard
  9
$CMLJUST
 70
0
  9
$CMLSCALE
 40
20.0
  9
$PROXYGRAPHICS
 70
1
  9
$MEASUREMENT
 70
1
  9
$CELWEIGHT
370
-1
  9
$ENDCAPS
280
0
  9
$JOINSTYLE
280
0
  9
$LWDISPLAY
290
0
  9
$INSUNITS
 70
6
  9
$HYPERLINKBASE
  1

  9
$STYLESHEET
  1

  9
$XEDIT
290
1
  9
$CEPSNTYPE
380
0
  9
$PSTYLEMODE
290
1
  9
$FINGERPRINTGUID
  2
{26F33336-4B67-435C-8643-9590DBF4FD89}
  9
$VERSIONGUID
  2
{E19DBD09-1DF5-46B6-8DA1-CC6606A648F4}
  9
$EXTNAMES
290
1
  9
$PSVPSCALE
 40
0.0
  9
$OLESTARTUP
290
0
  9
$SORTENTS
280
127
  9
$INDEXCTL
280
0
  9
$HIDETEXT
280
1
  9
$XCLIPFRAME
280
1
  9
$HALOGAP
280
0
  9
$OBSCOLOR
 70
257
  9
$OBSLTYPE
280
0
  9
$INTERSECTIONDISPLAY
280
0
  9
$INTERSECTIONCOLOR
 70
257
  9
$DIMASSOC
280
2
  9
$PROJECTNAME
  1

  9
$CAMERADISPLAY
290
0
  9
$LENSLENGTH
 40
50.0
  9
$CAMERAHEIGHT
 40
0.0
  9
$STEPSPERSEC
 40
24.0
  9
$STEPSIZE
 40
100.0
  9
$3DDWFPREC
 40
2.0
  9
$PSOLWIDTH
 40
0.005
  9
$PSOLHEIGHT
 40
0.08
  9
$LOFTANG1
 40
1.570796326795
  9
$LOFTANG2
 40
1.570796326795
  9
$LOFTMAG1
 40
0.0
  9
$LOFTMAG2
 40
0.0
  9
$LOFTPARAM
 70
7
  9
$LOFTNORMALS
280
1
  9
$LATITUDE
 40
37.795
  9
$LONGITUDE
 40
-122.394
  9
$NORTHDIRECTION
 40
0.0
  9
$TIMEZONE
 70
-8000
  9
$LIGHTGLYPHDISPLAY
280
1
  9
$TILEMODELIGHTSYNCH
280
1
  9
$CMATERIAL
347
20
  9
$SOLIDHIST
280
0
  9
$SHOWHIST
280
1
  9
$DWFFRAME
280
2
  9
$DGNFRAME
280
2
  9
$REALWORLDSCALE
290
1
  9
$INTERFERECOLOR
 62
256
  9
$CSHADOW
280
0
  9
$SHADOWPLANELOCATION
 40
0.0
  0
ENDSEC
  0
SECTION
  2
CLASSES
  0
CLASS
  1
ACDBDICTIONARYWDFLT
  2
AcDbDictionaryWithDefault
  3
ObjectDBX Classes
 90
0
 91
0
280
0
281
0
  0
CLASS
  1
SUN
  2
AcDbSun
  3
SCENEOE
 90
1153
 91
0
280
0
281
0
  0
CLASS
  1
VISUALSTYLE
  2
AcDbVisualStyle
  3
ObjectDBX Classes
 90
4095
 91
0
280
0
281
0
  0
CLASS
  1
MATERIAL
  2
AcDbMaterial
  3
ObjectDBX Classes
 90
1153
 91
0
280
0
281
0
  0
CLASS
  1
SCALE
  2
AcDbScale
  3
ObjectDBX Classes
 90
1153
 91
0
280
0
281
0
  0
CLASS
  1
TABLESTYLE
  2
AcDbTableStyle
  3
ObjectDBX Classes
 90
4095
 91
0
280
0
281
0
  0
CLASS
  1
MLEADERSTYLE
  2
AcDbMLeaderStyle
  3
ACDB_MLEADERSTYLE_CLASS
 90
4095
 91
0
280
0
281
0
  0
CLASS
  1
DICTIONARYVAR
  2
AcDbDictionaryVar
  3
ObjectDBX Classes
 90
0
 91
0
280
0
281
0
  0
CLASS
  1
CELLSTYLEMAP
  2
AcDbCellStyleMap
  3
ObjectDBX Classes
 90
1152
 91
0
280
0
281
0
  0
CLASS
  1
MENTALRAYRENDERSETTINGS
  2
AcDbMentalRayRenderSettings
  3
SCENEOE
 90
1024
 91
0
280
0
281
0
  0
CLASS
  1
ACDBDETAILVIEWSTYLE
  2
AcDbDetailViewStyle
  3
ObjectDBX Classes
 90
1025
 91
0
280
0
281
0
  0
CLASS
  1
ACDBSECTIONVIEWSTYLE
  2
AcDbSectionViewStyle
  3
ObjectDBX Classes
 90
1025
 91
0
280
0
281
0
  0
CLASS
  1
RASTERVARIABLES
  2
AcDbRasterVariables
  3
ISM
 90
0
 91
0
280
0
281
0
  0
CLASS
  1
LAYOUT
  2
AcDbLayout
  3
ObjectDBX Classes
 90
0
 91
0
280
0
281
0
  0
CLASS
  1
ACDBPLACEHOLDER
  2
AcDbPlaceHolder
  3
ObjectDBX Classes
 90
0
 91
0
280
0
281
0
  0
ENDSEC
  0
SECTION
  2
TABLES
  0
TABLE
  2
VPORT
  5
8
330
0
100
AcDbSymbolTable
 70
1
  0
VPORT
  5
23
330
8
100
AcDbSymbolTableRecord
100
AcDbViewportTableRecord
  2
*Active
 70
0
 10
0.0
 20
0.0
 11
1.0
 21
1.0
 12
0.0
 22
0.0
 13
0.0
 23
0.0
 14
0.5
 24
0.5
 15
0.5
 25
0.5
 16
0.0
 26
0.0
 36
1.0
 17
0.0
 27
0.0
 37
0.0
 40
1000.0
 41
1.34
 42
50.0
 43
0.0
 44
0.0
 50
0.0
 51
0.0
 71
0
 72
1000
 73
1
 74
3
 75
0
 76
0
 77
0
 78
0
281
0
 65
0
146
0.0
  0
ENDTAB
  0
TABLE
  2
LTYPE
  5
2
330
0
100
AcDbSymbolTable
 70
4
  0
LTYPE
  5
24
330
2
100
AcDbSymbolTableRecord
100
AcDbLinetypeTableRecord
  2
ByBlock
 70
0
  3

 72
65
 73
0
 40
0.0
  0
LTYPE
  5
25
330
2
100
AcDbSymbolTableRecord
100
AcDbLinetypeTableRecord
  2
ByLayer
 70
0
  3

 72
65
 73
0
 40
0.0
  0
LTYPE
  5
26
330
2
100
AcDbSymbolTableRecord
100
AcDbLinetypeTableRecord
  2
Continuous
 70
0
  3

 72
65
 73
0
 40
0.0
  0
LTYPE
  5
5E
330
2
100
AcDbSymbolTableRecord
100
AcDbLinetypeTableRecord
  2
MV_hartlijn_staal
 70
0
  3

 72
65
 73
4
 40
6.599999999999999
 49
5.0
 74
0
 49
-0.8
 74
0
 49
0.0
 74
0
 49
-0.8
 74
0
  0
ENDTAB
  0
TABLE
  2
LAYER
  5
1
330
0
100
AcDbSymbolTable
 70
3
  0
LAYER
  5
27
330
1
100
AcDbSymbolTableRecord
100
AcDbLayerTableRecord
  2
0
 70
0
 62
7
  6
Continuous
370
-3
390
13
347
21
  0
LAYER
  5
28
330
1
100
AcDbSymbolTableRecord
100
AcDbLayerTableRecord
  2
Defpoints
 70
0
 62
7
  6
Continuous
290
0
370
-3
390
13
347
21
  0
LAYER
  5
5D
330
1
100
AcDbSymbolTableRecord
100
AcDbLayerTableRecord
  2
A-DETL-GENF
 70
0
 62
92
  6
Continuous
370
18
390
13
347
21
348
0
  0
ENDTAB
  0
TABLE
  2
STYLE
  5
5
330
0
100
AcDbSymbolTable
 70
1
  0
STYLE
  5
29
330
5
100
AcDbSymbolTableRecord
100
AcDbTextStyleTableRecord
  2
Standard
 70
0
 40
0.0
 41
1.0
 50
0.0
 71
0
 42
2.5
  3
txt
  4

  0
ENDTAB
  0
TABLE
  2
VIEW
  5
7
330
0
100
AcDbSymbolTable
 70
0
  0
ENDTAB
  0
TABLE
  2
UCS
  5
6
330
0
100
AcDbSymbolTable
 70
0
  0
ENDTAB
  0
TABLE
  2
APPID
  5
3
330
0
100
AcDbSymbolTable
 70
3
  0
APPID
  5
2A
330
3
100
AcDbSymbolTableRecord
100
AcDbRegAppTableRecord
  2
ACAD
 70
0
  0
APPID
  5
61
330
3
100
AcDbSymbolTableRecord
100
AcDbRegAppTableRecord
  2
HATCHBACKGROUNDCOLOR
 70
0
  0
APPID
  5
62
330
3
100
AcDbSymbolTableRecord
100
AcDbRegAppTableRecord
  2
EZDXF
 70
0
  0
ENDTAB
  0
TABLE
  2
DIMSTYLE
  5
4
330
0
100
AcDbSymbolTable
 70
1
100
AcDbDimStyleTable
  0
DIMSTYLE
105
2B
330
4
100
AcDbSymbolTableRecord
100
AcDbDimStyleTableRecord
  2
Standard
 70
0
 40
1.0
 41
2.5
 42
0.625
 43
3.75
 44
1.25
 45
0.0
 46
0.0
 47
0.0
 48
0.0
 49
2.5
140
2.5
141
2.5
142
0.0
143
0.03937007874
144
1.0
145
0.0
146
1.0
147
0.625
148
0.0
 69
0
 70
0
 71
0
 72
0
 73
0
 74
0
 75
0
 76
0
 77
1
 78
8
 79
3
170
0
171
3
172
1
173
0
174
0
175
0
176
0
177
0
178
0
179
2
271
2
272
2
273
2
274
3
275
0
276
0
277
2
278
44
279
0
280
0
281
0
282
0
283
0
284
8
285
0
286
0
288
0
289
3
290
0
371
-2
372
-2
  0
ENDTAB
  0
TABLE
  2
BLOCK_RECORD
  5
9
330
0
100
AcDbSymbolTable
 70
3
  0
BLOCK_RECORD
  5
17
330
9
100
AcDbSymbolTableRecord
100
AcDbBlockTableRecord
  2
*Model_Space
340
1A
 70
0
280
1
281
0
  0
BLOCK_RECORD
  5
1B
330
9
100
AcDbSymbolTableRecord
100
AcDbBlockTableRecord
  2
*Paper_Space
340
1E
 70
0
280
1
281
0
  0
BLOCK_RECORD
  5
2F
330
9
100
AcDbSymbolTableRecord
100
AcDbBlockTableRecord
  2
28 Staalprofielen NP-profiel - NP 20-4448326-00_0 Basismaterialen
340
0
 70
0
280
1
281
0
  0
ENDTAB
  0
ENDSEC
  0
SECTION
  2
BLOCKS
  0
BLOCK
  5
18
330
17
100
AcDbEntity
  8
0
100
AcDbBlockBegin
  2
*Model_Space
 70
0
 10
0.0
 20
0.0
 30
0.0
  3
*Model_Space
  1

  0
ENDBLK
  5
19
330
17
100
AcDbEntity
  8
0
100
AcDbBlockEnd
  0
BLOCK
  5
1C
330
1B
100
AcDbEntity
  8
0
100
AcDbBlockBegin
  2
*Paper_Space
 70
0
 10
0.0
 20
0.0
 30
0.0
  3
*Paper_Space
  1

  0
ENDBLK
  5
1D
330
1B
100
AcDbEntity
  8
0
100
AcDbBlockEnd
  0
BLOCK
  5
30
330
2F
100
AcDbEntity
  8
0
100
AcDbBlockBegin
  2
28 Staalprofielen NP-profiel - NP 20-4448326-00_0 Basismaterialen
 70
0
 10
0.0
 20
0.0
 30
0.0
  3
28 Staalprofielen NP-profiel - NP 20-4448326-00_0 Basismaterialen
  1

  0
HATCH
  5
32
330
2F
100
AcDbEntity
  8
A-DETL-GENF
370
13
100
AcDbHatch
 10
0.0
 20
0.0
 30
0.0
210
0.0
220
0.0
230
1.0
  2
FP_498
 70
0
 71
0
 91
1
 92
1
 93
30
 72
1
 10
-45.00000000000276
 20
140.6817706328641
 11
-45.00000000000276
 21
132.5139846460482
 72
1
 10
-45.00000000000276
 20
132.5139846460482
 11
-6.080635930938754
 21
127.0650038411676
 72
1
 10
-6.080635930938751
 20
127.0650038411676
 11
-5.093025638324059
 21
125.9137837024074
 72
1
 10
-5.093025638324059
 20
125.9137837024074
 11
-4.357241825003484
 21
124.5873960976632
 72
1
 10
-4.357241825003484
 20
124.5873960976632
 11
-3.903378793198191
 21
123.1400916216353
 72
1
 10
-3.903378793198191
 20
123.1400916216353
 11
-3.750000000003478
 21
121.631066491375
 72
1
 10
-3.750000000003478
 20
121.631066491375
 11
-3.750000000003478
 21
-40.3398510387055
 72
1
 10
-3.750000000003478
 20
-40.33985103870551
 11
-3.897297590146763
 21
-41.81896133618308
 72
1
 10
-3.897297590146763
 20
-41.81896133618308
 11
-4.333404605896885
 21
-43.23997313169431
 72
1
 10
-4.333404605896885
 20
-43.23997313169431
 11
-5.041191043924004
 21
-44.54706999509293
 72
1
 10
-5.041191043924004
 20
-44.54706999509293
 11
-5.99285550780005
 21
-45.6889100015613
 72
1
 10
-5.99285550780005
 20
-45.6889100015613
 11
-45.00000000000276
 21
-51.15018067428112
 72
1
 10
-45.00000000000276
 20
-51.15018067428112
 11
-45.00000000000276
 21
-59.31822936717487
 72
1
 10
-45.00000000000276
 20
-59.31822936717487
 11
44.99999999998975
 21
-59.31822936717487
 72
1
 10
44.99999999998976
 20
-59.31822936717487
 11
44.99999999998976
 21
-51.1501806742768
 72
1
 10
44.99999999998976
 20
-51.1501806742768
 11
8.175368289127391
 21
-45.99447692271547
 72
1
 10
8.175368289127391
 20
-45.99447692271547
 11
6.698696186167467
 21
-45.11484716297787
 72
1
 10
6.698696186167467
 20
-45.11484716297787
 11
5.461063334441814
 21
-43.92213012267867
 72
1
 10
5.461063334441814
 20
-43.92213012267867
 11
4.527471509774978
 21
-42.47896855210151
 72
1
 10
4.527471509774978
 20
-42.47896855210151
 11
3.946953934263047
 21
-40.86115881100398
 72
1
 10
3.946953934263047
 20
-40.86115881100398
 11
3.750000000003478
 21
-39.15366996428653
 72
1
 10
3.750000000003478
 20
-39.15366996428653
 11
3.750000000003478
 21
120.7485310476525
 72
1
 10
3.750000000003478
 20
120.7485310476525
 11
3.916044282277346
 21
122.3179556334259
 72
1
 10
3.916044282277346
 20
122.3179556334259
 11
4.406824941447291
 21
123.8178884914837
 72
1
 10
4.406824941447291
 20
123.8178884914837
 11
5.20061095824185
 21
125.1819148818621
 72
1
 10
5.20061095824185
 20
125.1819148818621
 11
6.262254698130516
 21
126.3496377957604
 72
1
 10
6.262254698130516
 20
126.3496377957604
 11
7.5447481950412
 21
127.269352243013
 72
1
 10
7.5447481950412
 20
127.269352243013
 11
44.99999999994645
 21
132.5133471799498
 72
1
 10
44.99999999994645
 20
132.5133471799498
 11
44.99999999994645
 21
140.6817706328641
 72
1
 10
44.99999999994645
 20
140.6817706328641
 11
-45.00000000000276
 21
140.6817706328641
 97
0
 75
0
 76
2
 52
0.0
 41
1.0
 77
0
 78
2
 53
225.0
 43
314.778
 44
-1847.974
 45
12.57235856949681
 46
-12.57235856949681
 79
0
 53
225.0
 43
314.778
 44
-1867.024
 45
12.57235856949681
 46
-12.57235856949681
 79
0
 98
1
 10
0.0
 20
0.0
  0
LINE
  5
33
330
2F
100
AcDbEntity
  8
A-DETL-GENF
100
AcDbLine
 10
-44.99999999999967
 20
-59.31822936717519
 30
0.0
 11
44.99999999998766
 21
-59.31822936717519
 31
0.0
  0
LINE
  5
34
330
2F
100
AcDbEntity
  8
A-DETL-GENF
100
AcDbLine
 10
44.99999999998764
 20
-59.31822936717519
 30
0.0
 11
44.99999999998764
 21
-51.15018067427822
 31
0.0
  0
LINE
  5
35
330
2F
100
AcDbEntity
  8
A-DETL-GENF
100
AcDbLine
 10
44.99999999998764
 20
-51.15018067427822
 30
0.0
 11
22.63002705779316
 21
-48.0182293671754
 31
0.0
  0
LINE
  5
36
330
2F
100
AcDbEntity
  8
A-DETL-GENF
100
AcDbLine
 10
22.63002705779316
 20
-48.0182293671754
 30
0.0
 11
8.175368289128196
 21
-45.99447692271648
 31
0.0
  0
ARC
  5
37
330
2F
100
AcDbEntity
  8
A-DETL-GENF
100
AcDbCircle
 10
11.25000000000041
 20
-39.15366996428691
 30
0.0
 40
7.499999999999984
100
AcDbArc
 50
179.9999999999997
 51
245.7982498738001
  0
LINE
  5
38
330
2F
100
AcDbEntity
  8
A-DETL-GENF
100
AcDbLine
 10
3.750000000000433
 20
-39.15366996428691
 30
0.0
 11
3.750000000000433
 21
120.748531047653
 31
0.0
  0
ARC
  5
39
330
2F
100
AcDbEntity
  8
A-DETL-GENF
100
AcDbCircle
 10
11.25000000000045
 20
120.748531047653
 30
0.0
 40
7.500000000000006
100
AcDbArc
 50
119.6060432842162
 51
179.9999999999995
  0
LINE
  5
3A
330
2F
100
AcDbEntity
  8
A-DETL-GENF
100
AcDbLine
 10
7.544748195042697
 20
127.2693522430131
 30
0.0
 11
22.63270378219437
 21
129.3817706328251
 31
0.0
  0
LINE
  5
3B
330
2F
100
AcDbEntity
  8
A-DETL-GENF
100
AcDbLine
 10
22.63270378219437
 20
129.3817706328251
 30
0.0
 11
44.99999999995069
 21
132.5133471799484
 31
0.0
  0
LINE
  5
3C
330
2F
100
AcDbEntity
  8
A-DETL-GENF
100
AcDbLine
 10
44.99999999995069
 20
132.5133471799484
 30
0.0
 11
44.99999999995069
 21
140.6817706328634
 31
0.0
  0
LINE
  5
3D
330
2F
100
AcDbEntity
  8
A-DETL-GENF
100
AcDbLine
 10
44.99999999995069
 20
140.6817706328634
 30
0.0
 11
-44.99999999999988
 21
140.6817706328634
 31
0.0
  0
LINE
  5
3E
330
2F
100
AcDbEntity
  8
A-DETL-GENF
100
AcDbLine
 10
-44.99999999999988
 20
140.6817706328634
 30
0.0
 11
-44.99999999999988
 21
132.513984646048
 31
0.0
  0
LINE
  5
3F
330
2F
100
AcDbEntity
  8
A-DETL-GENF
100
AcDbLine
 10
-44.99999999999988
 20
132.513984646048
 30
0.0
 11
-22.62815067843899
 21
129.3817706328246
 31
0.0
  0
LINE
  5
40
330
2F
100
AcDbEntity
  8
A-DETL-GENF
100
AcDbLine
 10
-22.62815067843899
 20
129.3817706328246
 30
0.0
 11
-6.080635930937136
 21
127.0650038411676
 31
0.0
  0
ARC
  5
41
330
2F
100
AcDbEntity
  8
A-DETL-GENF
100
AcDbCircle
 10
-11.24999999999998
 20
121.6310664913739
 30
0.0
 40
7.500000000000059
100
AcDbArc
 50
0.0
 51
46.42934610131814
  0
LINE
  5
42
330
2F
100
AcDbEntity
  8
A-DETL-GENF
100
AcDbLine
 10
-3.749999999999925
 20
121.6310664913739
 30
0.0
 11
-3.749999999999925
 21
-40.33985103870751
 31
0.0
  0
ARC
  5
43
330
2F
100
AcDbEntity
  8
A-DETL-GENF
100
AcDbCircle
 10
-11.24999999999995
 20
-40.3398510387075
 30
0.0
 40
7.500000000000023
100
AcDbArc
 50
314.5034811997501
 51
359.9999999999996
  0
LINE
  5
44
330
2F
100
AcDbEntity
  8
A-DETL-GENF
100
AcDbLine
 10
-5.992855507796607
 20
-45.68891000156223
 30
0.0
 11
-22.63002705779238
 21
-48.01822936717574
 31
0.0
  0
LINE
  5
45
330
2F
100
AcDbEntity
  8
A-DETL-GENF
100
AcDbLine
 10
-22.63002705779238
 20
-48.01822936717574
 30
0.0
 11
-44.99999999999967
 21
-51.15018067428039
 31
0.0
  0
LINE
  5
46
330
2F
100
AcDbEntity
  8
A-DETL-GENF
100
AcDbLine
 10
-44.99999999999967
 20
-51.15018067428039
 30
0.0
 11
-44.99999999999967
 21
-59.31822936717519
 31
0.0
  0
LINE
  5
47
330
2F
100
AcDbEntity
  8
A-DETL-GENF
100
AcDbLine
 10
44.99999999998766
 20
-59.31822936717519
 30
0.0
 11
44.99999999998766
 21
-51.15018067427821
 31
0.0
  0
LINE
  5
48
330
2F
100
AcDbEntity
  8
A-DETL-GENF
100
AcDbLine
 10
3.750000000000435
 20
-39.15366996428693
 30
0.0
 11
3.750000000000435
 21
120.748531047653
 31
0.0
  0
LINE
  5
49
330
2F
100
AcDbEntity
  8
A-DETL-GENF
100
AcDbLine
 10
44.99999999998766
 20
-59.31822936717519
 30
0.0
 11
-44.99999999999967
 21
-59.31822936717519
 31
0.0
  0
LINE
  5
4A
330
2F
100
AcDbEntity
  8
A-DETL-GENF
100
AcDbLine
 10
-44.99999999999967
 20
-59.31822936717519
 30
0.0
 11
-44.99999999999967
 21
-51.15018067428039
 31
0.0
  0
ARC
  5
4B
330
2F
100
AcDbEntity
  8
A-DETL-GENF
100
AcDbCircle
 10
-11.24999999999992
 20
-40.33985103870752
 30
0.0
 40
7.500000000000003
100
AcDbArc
 50
314.5034811997498
 51
0.0
  0
LINE
  5
4C
330
2F
100
AcDbEntity
  8
A-DETL-GENF
100
AcDbLine
 10
-3.749999999999928
 20
-40.33985103870752
 30
0.0
 11
-3.749999999999928
 21
121.6310664913739
 31
0.0
  0
LINE
  5
4D
330
2F
100
AcDbEntity
  8
A-DETL-GENF
100
AcDbLine
 10
44.99999999995068
 20
132.5133471799484
 30
0.0
 11
22.63270378219436
 21
129.3817706328251
 31
0.0
  0
ARC
  5
4E
330
2F
100
AcDbEntity
  8
A-DETL-GENF
100
AcDbCircle
 10
11.25000000000043
 20
120.748531047653
 30
0.0
 40
7.499999999999997
100
AcDbArc
 50
119.6060432842168
 51
179.9999999999998
  0
LINE
  5
4F
330
2F
100
AcDbEntity
  8
A-DETL-GENF
100
AcDbLine
 10
44.99999999995068
 20
140.6817706328634
 30
0.0
 11
-44.99999999999988
 21
140.6817706328634
 31
0.0
  0
LINE
  5
50
330
2F
100
AcDbEntity
  8
A-DETL-GENF
100
AcDbLine
 10
-44.99999999999988
 20
140.6817706328634
 30
0.0
 11
-44.99999999999988
 21
132.513984646048
 31
0.0
  0
LINE
  5
51
330
2F
100
AcDbEntity
  8
A-DETL-GENF
100
AcDbLine
 10
-44.99999999999988
 20
132.513984646048
 30
0.0
 11
-22.62815067844232
 21
129.3817706328251
 31
0.0
  0
LINE
  5
52
330
2F
100
AcDbEntity
  8
A-DETL-GENF
100
AcDbLine
 10
-44.99999999999967
 20
-51.15018067428039
 30
0.0
 11
-22.63002705778971
 21
-48.01822936717537
 31
0.0
  0
LINE
  5
53
330
2F
100
AcDbEntity
  8
A-DETL-GENF
100
AcDbLine
 10
44.99999999998766
 20
-51.15018067427821
 30
0.0
 11
22.63002705779303
 21
-48.01822936717537
 31
0.0
  0
ARC
  5
54
330
2F
100
AcDbEntity
  8
A-DETL-GENF
100
AcDbCircle
 10
11.25000000000043
 20
-39.15366996428691
 30
0.0
 40
7.500000000000002
100
AcDbArc
 50
179.9999999999998
 51
245.7982498737998
  0
ARC
  5
55
330
2F
100
AcDbEntity
  8
A-DETL-GENF
100
AcDbCircle
 10
-11.24999999999992
 20
121.6310664913739
 30
0.0
 40
7.500000000000005
100
AcDbArc
 50
359.9999999999996
 51
46.42934610131864
  0
LINE
  5
56
330
2F
100
AcDbEntity
  8
A-DETL-GENF
100
AcDbLine
 10
44.99999999995068
 20
140.6817706328634
 30
0.0
 11
44.99999999995068
 21
132.5133471799484
 31
0.0
  0
LINE
  5
57
330
2F
100
AcDbEntity
  8
A-DETL-GENF
100
AcDbLine
 10
-22.63002705778971
 20
-48.01822936717537
 30
0.0
 11
-5.992855507796605
 21
-45.68891000156224
 31
0.0
  0
LINE
  5
58
330
2F
100
AcDbEntity
  8
A-DETL-GENF
100
AcDbLine
 10
22.63002705779303
 20
-48.01822936717537
 30
0.0
 11
8.175368289128128
 21
-45.99447692271648
 31
0.0
  0
LINE
  5
59
330
2F
100
AcDbEntity
  8
A-DETL-GENF
100
AcDbLine
 10
22.63270378219436
 20
129.3817706328251
 30
0.0
 11
7.544748195042672
 21
127.2693522430131
 31
0.0
  0
LINE
  5
5A
330
2F
100
AcDbEntity
  8
A-DETL-GENF
100
AcDbLine
 10
-22.62815067844232
 20
129.3817706328251
 30
0.0
 11
-6.080635930937165
 21
127.0650038411676
 31
0.0
  0
LINE
  5
5B
330
2F
100
AcDbEntity
  8
A-DETL-GENF
  6
MV_hartlijn_staal
370
13
100
AcDbLine
 10
-5.8437e-12
 20
-65.31822936717585
 30
0.0
 11
-5.8437e-12
 21
146.7668922637123
 31
0.0
  0
LINE
  5
5C
330
2F
100
AcDbEntity
  8
A-DETL-GENF
  6
MV_hartlijn_staal
370
13
100
AcDbLine
 10
-50.99999999999976
 20
40.66325218609502
 30
0.0
 11
51.00000000000033
 21
40.66325218609502
 31
0.0
  0
ENDBLK
  5
31
330
2F
100
AcDbEntity
  8
0
100
AcDbBlockEnd
  0
ENDSEC
  0
SECTION
  2
ENTITIES
  0
INSERT
  5
5F
330
17
100
AcDbEntity
  8
0
100
AcDbBlockReference
  2
28 Staalprofielen NP-profiel - NP 20-4448326-00_0 Basismaterialen
 10
0.0
 20
0.0
 30
0.0
  0
ENDSEC
  0
SECTION
  2
OBJECTS
  0
DICTIONARY
  5
A
330
0
100
AcDbDictionary
281
1
  3
ACAD_COLOR
350
B
  3
ACAD_GROUP
350
C
  3
ACAD_LAYOUT
350
D
  3
ACAD_MATERIAL
350
E
  3
ACAD_MLEADERSTYLE
350
F
  3
ACAD_MLINESTYLE
350
10
  3
ACAD_PLOTSETTINGS
350
11
  3
ACAD_PLOTSTYLENAME
350
12
  3
ACAD_SCALELIST
350
14
  3
ACAD_TABLESTYLE
350
15
  3
ACAD_VISUALSTYLE
350
16
  3
EZDXF_META
350
2D
  0
DICTIONARY
  5
B
330
A
100
AcDbDictionary
281
1
  0
DICTIONARY
  5
C
330
A
100
AcDbDictionary
281
1
  0
DICTIONARY
  5
D
330
A
100
AcDbDictionary
281
1
  3
Model
350
1A
  3
Layout1
350
1E
  0
DICTIONARY
  5
E
330
A
100
AcDbDictionary
281
1
  3
ByBlock
350
1F
  3
ByLayer
350
20
  3
Global
350
21
  0
DICTIONARY
  5
F
330
A
100
AcDbDictionary
281
1
  3
Standard
350
2C
  0
DICTIONARY
  5
10
330
A
100
AcDbDictionary
281
1
  3
Standard
350
22
  0
DICTIONARY
  5
11
330
A
100
AcDbDictionary
281
1
  0
ACDBDICTIONARYWDFLT
  5
12
330
A
100
AcDbDictionary
281
1
  3
Normal
350
13
100
AcDbDictionaryWithDefault
340
13
  0
ACDBPLACEHOLDER
  5
13
330
12
  0
DICTIONARY
  5
14
330
A
100
AcDbDictionary
281
1
  0
DICTIONARY
  5
15
330
A
100
AcDbDictionary
281
1
  0
DICTIONARY
  5
16
330
A
100
AcDbDictionary
281
1
  0
LAYOUT
  5
1A
330
D
100
AcDbPlotSettings
  1

  4
A3
  6

 40
7.5
 41
20.0
 42
7.5
 43
20.0
 44
420.0
 45
297.0
 46
0.0
 47
0.0
 48
0.0
 49
0.0
140
0.0
141
0.0
142
1.0
143
1.0
 70
1024
 72
1
 73
0
 74
5
  7

 75
16
 76
0
 77
2
 78
300
147
1.0
148
0.0
149
0.0
100
AcDbLayout
  1
Model
 70
1
 71
0
 10
0.0
 20
0.0
 11
420.0
 21
297.0
 12
0.0
 22
0.0
 32
0.0
 14
1e+20
 24
1e+20
 34
1e+20
 15
-1e+20
 25
-1e+20
 35
-1e+20
146
0.0
 13
0.0
 23
0.0
 33
0.0
 16
1.0
 26
0.0
 36
0.0
 17
0.0
 27
1.0
 37
0.0
 76
1
330
17
  0
LAYOUT
  5
1E
330
D
100
AcDbPlotSettings
  1

  4
A3
  6

 40
7.5
 41
20.0
 42
7.5
 43
20.0
 44
420.0
 45
297.0
 46
0.0
 47
0.0
 48
0.0
 49
0.0
140
0.0
141
0.0
142
1.0
143
1.0
 70
0
 72
1
 73
0
 74
5
  7

 75
16
 76
0
 77
2
 78
300
147
1.0
148
0.0
149
0.0
100
AcDbLayout
  1
Layout1
 70
1
 71
1
 10
0.0
 20
0.0
 11
420.0
 21
297.0
 12
0.0
 22
0.0
 32
0.0
 14
1e+20
 24
1e+20
 34
1e+20
 15
-1e+20
 25
-1e+20
 35
-1e+20
146
0.0
 13
0.0
 23
0.0
 33
0.0
 16
1.0
 26
0.0
 36
0.0
 17
0.0
 27
1.0
 37
0.0
 76
1
330
1B
  0
MATERIAL
  5
1F
102
{ACAD_REACTORS
330
E
102
}
330
E
100
AcDbMaterial
  1
ByBlock
  2

 70
0
 40
1.0
 71
1
 41
1.0
 91
-1023410177
 42
1.0
 72
1
  3

 73
1
 74
1
 75
1
 44
0.5
 73
0
 45
1.0
 46
1.0
 77
1
  4

 78
1
 79
1
170
1
 48
1.0
171
1
  6

172
1
173
1
174
1
140
1.0
141
1.0
175
1
  7

176
1
177
1
178
1
143
1.0
179
1
  8

270
1
271
1
272
1
145
1.0
146
1.0
273
1
  9

274
1
275
1
276
1
 42
1.0
 72
1
  3

 73
1
 74
1
 75
1
 94
63
  0
MATERIAL
  5
20
102
{ACAD_REACTORS
330
E
102
}
330
E
100
AcDbMaterial
  1
ByLayer
  2

 70
0
 40
1.0
 71
1
 41
1.0
 91
-1023410177
 42
1.0
 72
1
  3

 73
1
 74
1
 75
1
 44
0.5
 73
0
 45
1.0
 46
1.0
 77
1
  4

 78
1
 79
1
170
1
 48
1.0
171
1
  6

172
1
173
1
174
1
140
1.0
141
1.0
175
1
  7

176
1
177
1
178
1
143
1.0
179
1
  8

270
1
271
1
272
1
145
1.0
146
1.0
273
1
  9

274
1
275
1
276
1
 42
1.0
 72
1
  3

 73
1
 74
1
 75
1
 94
63
  0
MATERIAL
  5
21
102
{ACAD_REACTORS
330
E
102
}
330
E
100
AcDbMaterial
  1
Global
  2

 70
0
 40
1.0
 71
1
 41
1.0
 91
-1023410177
 42
1.0
 72
1
  3

 73
1
 74
1
 75
1
 44
0.5
 73
0
 45
1.0
 46
1.0
 77
1
  4

 78
1
 79
1
170
1
 48
1.0
171
1
  6

172
1
173
1
174
1
140
1.0
141
1.0
175
1
  7

176
1
177
1
178
1
143
1.0
179
1
  8

270
1
271
1
272
1
145
1.0
146
1.0
273
1
  9

274
1
275
1
276
1
 42
1.0
 72
1
  3

 73
1
 74
1
 75
1
 94
63
  0
MLINESTYLE
  5
22
102
{ACAD_REACTORS
330
10
102
}
330
10
100
AcDbMlineStyle
  2
Standard
 70
0
  3

 62
256
 51
90.0
 52
90.0
 71
2
 49
0.5
 62
256
  6
BYLAYER
 49
-0.5
 62
256
  6
BYLAYER
  0
MLEADERSTYLE
  5
2C
102
{ACAD_REACTORS
330
F
102
}
330
F
100
AcDbMLeaderStyle
179
2
170
2
171
1
172
0
 90
2
 40
0.0
 41
0.0
173
1
 91
-1056964608
 92
-2
290
1
 42
2.0
291
1
 43
8.0
  3
Standard
 44
4.0
300

342
29
174
1
175
1
176
0
178
1
 93
-1056964608
 45
4.0
292
0
297
0
 46
4.0
 94
-1056964608
 47
1.0
 49
1.0
140
1.0
294
1
141
0.0
177
0
142
1.0
295
0
296
0
143
3.75
271
0
272
9
273
9
  0
DICTIONARY
  5
2D
330
A
100
AcDbDictionary
280
1
281
1
  3
CREATED_BY_EZDXF
350
2E
  3
WRITTEN_BY_EZDXF
350
63
  0
DICTIONARYVAR
  5
2E
330
2D
100
DictionaryVariables
280
0
  1
1.4.3 @ 2026-02-13T04:54:09.986169+00:00
  0
DICTIONARYVAR
  5
63
330
2D
100
DictionaryVariables
280
0
  1
1.4.3 @ 2026-02-13T04:54:09.989706+00:00
  0
ENDSEC
  0
EOF
