  0
SECTION
  2
HEADER
  9
$ACADVER
  1
AC1032
  9
$ACADMAINTVER
 90
4
  9
$DWGCODEPAGE
  3
ANSI_1252
  9
$LASTSAVEDBY
  1
ezdxf
  9
$REQUIREDVERSIONS
160
0
  9
$INSBASE
 10
0.0
 20
0.0
 30
0.0
  9
$EXTMIN
 10
1e+20
 20
1e+20
 30
1e+20
  9
$EXTMAX
 10
-1e+20
 20
-1e+20
 30
-1e+20
  9
$LIMMIN
 10
0.0
 20
0.0
  9
$LIMMAX
 10
420.0
 20
297.0
  9
$ORTHOMODE
 70
0
  9
$REGENMODE
 70
1
  9
$FILLMODE
 70
1
  9
$QTEXTMODE
 70
0
  9
$MIRRTEXT
 70
1
  9
$LTSCALE
 40
1.0
  9
$ATTMODE
 70
1
  9
$TEXTSIZE
 40
2.5
  9
$TRACEWID
 40
1.0
  9
$TEXTSTYLE
  7
Standard
  9
$CLAYER
  8
0
  9
$CELTYPE
  6
ByLayer
  9
$CECOLOR
 62
256
  9
$CELTSCALE
 40
1.0
  9
$DISPSILH
 70
0
  9
$DIMSCALE
 40
1.0
  9
$DIMASZ
 40
2.5
  9
$DIMEXO
 40
0.625
  9
$DIMDLI
 40
3.75
  9
$DIMRND
 40
0.0
  9
$DIMDLE
 40
0.0
  9
$DIMEXE
 40
1.25
  9
$DIMTP
 40
0.0
  9
$DIMTM
 40
0.0
  9
$DIMTXT
 40
2.5
  9
$DIMCEN
 40
2.5
  9
$DIMTSZ
 40
0.0
  9
$DIMTOL
 70
0
  9
$DIMLIM
 70
0
  9
$DIMTIH
 70
0
  9
$DIMTOH
 70
0
  9
$DIMSE1
 70
0
  9
$DIMSE2
 70
0
  9
$DIMTAD
 70
1
  9
$DIMZIN
 70
8
  9
$DIMBLK
  1

  9
$DIMASO
 70
1
  9
$DIMSHO
 70
1
  9
$DIMPOST
  1

  9
$DIMAPOST
  1

  9
$DIMALT
 70
0
  9
$DIMALTD
 70
3
  9
$DIMALTF
 40
0.03937007874
  9
$DIMLFAC
 40
1.0
  9
$DIMTOFL
 70
1
  9
$DIMTVP
 40
0.0
  9
$DIMTIX
 70
0
  9
$DIMSOXD
 70
0
  9
$DIMSAH
 70
0
  9
$DIMBLK1
  1

  9
$DIMBLK2
  1

  9
$DIMSTYLE
  2
ISO-25
  9
$DIMCLRD
 70
0
  9
$DIMCLRE
 70
0
  9
$DIMCLRT
 70
0
  9
$DIMTFAC
 40
1.0
  9
$DIMGAP
 40
0.625
  9
$DIMJUST
 70
0
  9
$DIMSD1
 70
0
  9
$DIMSD2
 70
0
  9
$DIMTOLJ
 70
0
  9
$DIMTZIN
 70
8
  9
$DIMALTZ
 70
0
  9
$DIMALTTZ
 70
0
  9
$DIMUPT
 70
0
  9
$DIMDEC
 70
2
  9
$DIMTDEC
 70
2
  9
$DIMALTU
 70
2
  9
$DIMALTTD
 70
3
  9
$DIMTXSTY
  7
Standard
  9
$DIMAUNIT
 70
0
  9
$DIMADEC
 70
0
  9
$DIMALTRND
 40
0.0
  9
$DIMAZIN
 70
0
  9
$DIMDSEP
 70
44
  9
$DIMATFIT
 70
3
  9
$DIMFRAC
 70
0
  9
$DIMLDRBLK
  1

  9
$DIMLUNIT
 70
2
  9
$DIMLWD
 70
-2
  9
$DIMLWE
 70
-2
  9
$DIMTMOVE
 70
0
  9
$DIMFXL
 40
1.0
  9
$DIMFXLON
 70
0
  9
$DIMJOGANG
 40
0.785398163397
  9
$DIMTFILL
 70
0
  9
$DIMTFILLCLR
 70
0
  9
$DIMARCSYM
 70
0
  9
$DIMLTYPE
  6

  9
$DIMLTEX1
  6

  9
$DIMLTEX2
  6

  9
$DIMTXTDIRECTION
 70
0
  9
$LUNITS
 70
2
  9
$LUPREC
 70
4
  9
$SKETCHINC
 40
1.0
  9
$FILLETRAD
 40
10.0
  9
$AUNITS
 70
0
  9
$AUPREC
 70
2
  9
$MENU
  1
.
  9
$ELEVATION
 40
0.0
  9
$PELEVATION
 40
0.0
  9
$THICKNESS
 40
0.0
  9
$LIMCHECK
 70
0
  9
$CHAMFERA
 40
0.0
  9
$CHAMFERB
 40
0.0
  9
$CHAMFERC
 40
0.0
  9
$CHAMFERD
 40
0.0
  9
$SKPOLY
 70
0
  9
$TDCREATE
 40
2461085.245960648
  9
$TDUCREATE
 40
2458532.153996898
  9
$TDUPDATE
 40
2461085.245960648
  9
$TDUUPDATE
 40
2458532.1544311
  9
$TDINDWG
 40
0.0
  9
$TDUSRTIMER
 40
0.0
  9
$USRTIMER
 70
1
  9
$ANGBASE
 50
0.0
  9
$ANGDIR
 70
0
  9
$PDMODE
 70
0
  9
$PDSIZE
 40
0.0
  9
$PLINEWID
 40
0.0
  9
$SPLFRAME
 70
0
  9
$SPLINETYPE
 70
6
  9
$SPLINESEGS
 70
8
  9
$HANDSEED
  5
8D
  9
$SURFTAB1
 70
6
  9
$SURFTAB2
 70
6
  9
$SURFTYPE
 70
6
  9
$SURFU
 70
6
  9
$SURFV
 70
6
  9
$UCSBASE
  2

  9
$UCSNAME
  2

  9
$UCSORG
 10
0.0
 20
0.0
 30
0.0
  9
$UCSXDIR
 10
1.0
 20
0.0
 30
0.0
  9
$UCSYDIR
 10
0.0
 20
1.0
 30
0.0
  9
$UCSORTHOREF
  2

  9
$UCSORTHOVIEW
 70
0
  9
$UCSORGTOP
 10
0.0
 20
0.0
 30
0.0
  9
$UCSORGBOTTOM
 10
0.0
 20
0.0
 30
0.0
  9
$UCSORGLEFT
 10
0.0
 20
0.0
 30
0.0
  9
$UCSORGRIGHT
 10
0.0
 20
0.0
 30
0.0
  9
$UCSORGFRONT
 10
0.0
 20
0.0
 30
0.0
  9
$UCSORGBACK
 10
0.0
 20
0.0
 30
0.0
  9
$PUCSBASE
  2

  9
$PUCSNAME
  2

  9
$PUCSORG
 10
0.0
 20
0.0
 30
0.0
  9
$PUCSXDIR
 10
1.0
 20
0.0
 30
0.0
  9
$PUCSYDIR
 10
0.0
 20
1.0
 30
0.0
  9
$PUCSORTHOREF
  2

  9
$PUCSORTHOVIEW
 70
0
  9
$PUCSORGTOP
 10
0.0
 20
0.0
 30
0.0
  9
$PUCSORGBOTTOM
 10
0.0
 20
0.0
 30
0.0
  9
$PUCSORGLEFT
 10
0.0
 20
0.0
 30
0.0
  9
$PUCSORGRIGHT
 10
0.0
 20
0.0
 30
0.0
  9
$PUCSORGFRONT
 10
0.0
 20
0.0
 30
0.0
  9
$PUCSORGBACK
 10
0.0
 20
0.0
 30
0.0
  9
$USERI1
 70
0
  9
$USERI2
 70
0
  9
$USERI3
 70
0
  9
$USERI4
 70
0
  9
$USERI5
 70
0
  9
$USERR1
 40
0.0
  9
$USERR2
 40
0.0
  9
$USERR3
 40
0.0
  9
$USERR4
 40
0.0
  9
$USERR5
 40
0.0
  9
$WORLDVIEW
 70
1
  9
$SHADEDGE
 70
3
  9
$SHADEDIF
 70
70
  9
$TILEMODE
 70
1
  9
$MAXACTVP
 70
64
  9
$PINSBASE
 10
0.0
 20
0.0
 30
0.0
  9
$PLIMCHECK
 70
0
  9
$PEXTMIN
 10
1e+20
 20
1e+20
 30
1e+20
  9
$PEXTMAX
 10
-1e+20
 20
-1e+20
 30
-1e+20
  9
$PLIMMIN
 10
0.0
 20
0.0
  9
$PLIMMAX
 10
420.0
 20
297.0
  9
$UNITMODE
 70
0
  9
$VISRETAIN
 70
1
  9
$PLINEGEN
 70
0
  9
$PSLTSCALE
 70
1
  9
$TREEDEPTH
 70
3020
  9
$CMLSTYLE
  2
Standard
  9
$CMLJUST
 70
0
  9
$CMLSCALE
 40
20.0
  9
$PROXYGRAPHICS
 70
1
  9
$MEASUREMENT
 70
1
  9
$CELWEIGHT
370
-1
  9
$ENDCAPS
280
0
  9
$JOINSTYLE
280
0
  9
$LWDISPLAY
290
0
  9
$INSUNITS
 70
6
  9
$HYPERLINKBASE
  1

  9
$STYLESHEET
  1

  9
$XEDIT
290
1
  9
$CEPSNTYPE
380
0
  9
$PSTYLEMODE
290
1
  9
$FINGERPRINTGUID
  2
{091DE65D-0A62-403B-84E0-099F6B4FA06B}
  9
$VERSIONGUID
  2
{99640DED-829F-4823-A677-2F86E1DB2BE3}
  9
$EXTNAMES
290
1
  9
$PSVPSCALE
 40
0.0
  9
$OLESTARTUP
290
0
  9
$SORTENTS
280
127
  9
$INDEXCTL
280
0
  9
$HIDETEXT
280
1
  9
$XCLIPFRAME
280
1
  9
$HALOGAP
280
0
  9
$OBSCOLOR
 70
257
  9
$OBSLTYPE
280
0
  9
$INTERSECTIONDISPLAY
280
0
  9
$INTERSECTIONCOLOR
 70
257
  9
$DIMASSOC
280
2
  9
$PROJECTNAME
  1

  9
$CAMERADISPLAY
290
0
  9
$LENSLENGTH
 40
50.0
  9
$CAMERAHEIGHT
 40
0.0
  9
$STEPSPERSEC
 40
24.0
  9
$STEPSIZE
 40
100.0
  9
$3DDWFPREC
 40
2.0
  9
$PSOLWIDTH
 40
0.005
  9
$PSOLHEIGHT
 40
0.08
  9
$LOFTANG1
 40
1.570796326795
  9
$LOFTANG2
 40
1.570796326795
  9
$LOFTMAG1
 40
0.0
  9
$LOFTMAG2
 40
0.0
  9
$LOFTPARAM
 70
7
  9
$LOFTNORMALS
280
1
  9
$LATITUDE
 40
37.795
  9
$LONGITUDE
 40
-122.394
  9
$NORTHDIRECTION
 40
0.0
  9
$TIMEZONE
 70
-8000
  9
$LIGHTGLYPHDISPLAY
280
1
  9
$TILEMODELIGHTSYNCH
280
1
  9
$CMATERIAL
347
20
  9
$SOLIDHIST
280
0
  9
$SHOWHIST
280
1
  9
$DWFFRAME
280
2
  9
$DGNFRAME
280
2
  9
$REALWORLDSCALE
290
1
  9
$INTERFERECOLOR
 62
256
  9
$CSHADOW
280
0
  9
$SHADOWPLANELOCATION
 40
0.0
  0
ENDSEC
  0
SECTION
  2
CLASSES
  0
CLASS
  1
ACDBDICTIONARYWDFLT
  2
AcDbDictionaryWithDefault
  3
ObjectDBX Classes
 90
0
 91
0
280
0
281
0
  0
CLASS
  1
SUN
  2
AcDbSun
  3
SCENEOE
 90
1153
 91
0
280
0
281
0
  0
CLASS
  1
VISUALSTYLE
  2
AcDbVisualStyle
  3
ObjectDBX Classes
 90
4095
 91
0
280
0
281
0
  0
CLASS
  1
MATERIAL
  2
AcDbMaterial
  3
ObjectDBX Classes
 90
1153
 91
0
280
0
281
0
  0
CLASS
  1
SCALE
  2
AcDbScale
  3
ObjectDBX Classes
 90
1153
 91
0
280
0
281
0
  0
CLASS
  1
TABLESTYLE
  2
AcDbTableStyle
  3
ObjectDBX Classes
 90
4095
 91
0
280
0
281
0
  0
CLASS
  1
MLEADERSTYLE
  2
AcDbMLeaderStyle
  3
ACDB_MLEADERSTYLE_CLASS
 90
4095
 91
0
280
0
281
0
  0
CLASS
  1
DICTIONARYVAR
  2
AcDbDictionaryVar
  3
ObjectDBX Classes
 90
0
 91
0
280
0
281
0
  0
CLASS
  1
CELLSTYLEMAP
  2
AcDbCellStyleMap
  3
ObjectDBX Classes
 90
1152
 91
0
280
0
281
0
  0
CLASS
  1
MENTALRAYRENDERSETTINGS
  2
AcDbMentalRayRenderSettings
  3
SCENEOE
 90
1024
 91
0
280
0
281
0
  0
CLASS
  1
ACDBDETAILVIEWSTYLE
  2
AcDbDetailViewStyle
  3
ObjectDBX Classes
 90
1025
 91
0
280
0
281
0
  0
CLASS
  1
ACDBSECTIONVIEWSTYLE
  2
AcDbSectionViewStyle
  3
ObjectDBX Classes
 90
1025
 91
0
280
0
281
0
  0
CLASS
  1
RASTERVARIABLES
  2
AcDbRasterVariables
  3
ISM
 90
0
 91
0
280
0
281
0
  0
CLASS
  1
LAYOUT
  2
AcDbLayout
  3
ObjectDBX Classes
 90
0
 91
0
280
0
281
0
  0
CLASS
  1
ACDBPLACEHOLDER
  2
AcDbPlaceHolder
  3
ObjectDBX Classes
 90
0
 91
0
280
0
281
0
  0
ENDSEC
  0
SECTION
  2
TABLES
  0
TABLE
  2
VPORT
  5
8
330
0
100
AcDbSymbolTable
 70
1
  0
VPORT
  5
23
330
8
100
AcDbSymbolTableRecord
100
AcDbViewportTableRecord
  2
*Active
 70
0
 10
0.0
 20
0.0
 11
1.0
 21
1.0
 12
0.0
 22
0.0
 13
0.0
 23
0.0
 14
0.5
 24
0.5
 15
0.5
 25
0.5
 16
0.0
 26
0.0
 36
1.0
 17
0.0
 27
0.0
 37
0.0
 40
1000.0
 41
1.34
 42
50.0
 43
0.0
 44
0.0
 50
0.0
 51
0.0
 71
0
 72
1000
 73
1
 74
3
 75
0
 76
0
 77
0
 78
0
281
0
 65
0
146
0.0
  0
ENDTAB
  0
TABLE
  2
LTYPE
  5
2
330
0
100
AcDbSymbolTable
 70
4
  0
LTYPE
  5
24
330
2
100
AcDbSymbolTableRecord
100
AcDbLinetypeTableRecord
  2
ByBlock
 70
0
  3

 72
65
 73
0
 40
0.0
  0
LTYPE
  5
25
330
2
100
AcDbSymbolTableRecord
100
AcDbLinetypeTableRecord
  2
ByLayer
 70
0
  3

 72
65
 73
0
 40
0.0
  0
LTYPE
  5
26
330
2
100
AcDbSymbolTableRecord
100
AcDbLinetypeTableRecord
  2
Continuous
 70
0
  3

 72
65
 73
0
 40
0.0
  0
LTYPE
  5
87
330
2
100
AcDbSymbolTableRecord
100
AcDbLinetypeTableRecord
  2
MV_hartlijn_staal
 70
0
  3

 72
65
 73
4
 40
6.599999999999999
 49
5.0
 74
0
 49
-0.8
 74
0
 49
0.0
 74
0
 49
-0.8
 74
0
  0
ENDTAB
  0
TABLE
  2
LAYER
  5
1
330
0
100
AcDbSymbolTable
 70
3
  0
LAYER
  5
27
330
1
100
AcDbSymbolTableRecord
100
AcDbLayerTableRecord
  2
0
 70
0
 62
7
  6
Continuous
370
-3
390
13
347
21
  0
LAYER
  5
28
330
1
100
AcDbSymbolTableRecord
100
AcDbLayerTableRecord
  2
Defpoints
 70
0
 62
7
  6
Continuous
290
0
370
-3
390
13
347
21
  0
LAYER
  5
86
330
1
100
AcDbSymbolTableRecord
100
AcDbLayerTableRecord
  2
A-DETL-GENF
 70
0
 62
92
  6
Continuous
370
18
390
13
347
21
348
0
  0
ENDTAB
  0
TABLE
  2
STYLE
  5
5
330
0
100
AcDbSymbolTable
 70
1
  0
STYLE
  5
29
330
5
100
AcDbSymbolTableRecord
100
AcDbTextStyleTableRecord
  2
Standard
 70
0
 40
0.0
 41
1.0
 50
0.0
 71
0
 42
2.5
  3
txt
  4

  0
ENDTAB
  0
TABLE
  2
VIEW
  5
7
330
0
100
AcDbSymbolTable
 70
0
  0
ENDTAB
  0
TABLE
  2
UCS
  5
6
330
0
100
AcDbSymbolTable
 70
0
  0
ENDTAB
  0
TABLE
  2
APPID
  5
3
330
0
100
AcDbSymbolTable
 70
3
  0
APPID
  5
2A
330
3
100
AcDbSymbolTableRecord
100
AcDbRegAppTableRecord
  2
ACAD
 70
0
  0
APPID
  5
8A
330
3
100
AcDbSymbolTableRecord
100
AcDbRegAppTableRecord
  2
HATCHBACKGROUNDCOLOR
 70
0
  0
APPID
  5
8B
330
3
100
AcDbSymbolTableRecord
100
AcDbRegAppTableRecord
  2
EZDXF
 70
0
  0
ENDTAB
  0
TABLE
  2
DIMSTYLE
  5
4
330
0
100
AcDbSymbolTable
 70
1
100
AcDbDimStyleTable
  0
DIMSTYLE
105
2B
330
4
100
AcDbSymbolTableRecord
100
AcDbDimStyleTableRecord
  2
Standard
 70
0
 40
1.0
 41
2.5
 42
0.625
 43
3.75
 44
1.25
 45
0.0
 46
0.0
 47
0.0
 48
0.0
 49
2.5
140
2.5
141
2.5
142
0.0
143
0.03937007874
144
1.0
145
0.0
146
1.0
147
0.625
148
0.0
 69
0
 70
0
 71
0
 72
0
 73
0
 74
0
 75
0
 76
0
 77
1
 78
8
 79
3
170
0
171
3
172
1
173
0
174
0
175
0
176
0
177
0
178
0
179
2
271
2
272
2
273
2
274
3
275
0
276
0
277
2
278
44
279
0
280
0
281
0
282
0
283
0
284
8
285
0
286
0
288
0
289
3
290
0
371
-2
372
-2
  0
ENDTAB
  0
TABLE
  2
BLOCK_RECORD
  5
9
330
0
100
AcDbSymbolTable
 70
3
  0
BLOCK_RECORD
  5
17
330
9
100
AcDbSymbolTableRecord
100
AcDbBlockTableRecord
  2
*Model_Space
340
1A
 70
0
280
1
281
0
  0
BLOCK_RECORD
  5
1B
330
9
100
AcDbSymbolTableRecord
100
AcDbBlockTableRecord
  2
*Paper_Space
340
1E
 70
0
280
1
281
0
  0
BLOCK_RECORD
  5
2F
330
9
100
AcDbSymbolTableRecord
100
AcDbBlockTableRecord
  2
28 schroeven 2D - Verzonken schroef 4_0x40mm-3245472-00_0 Basismaterialen
340
0
 70
0
280
1
281
0
  0
ENDTAB
  0
ENDSEC
  0
SECTION
  2
BLOCKS
  0
BLOCK
  5
18
330
17
100
AcDbEntity
  8
0
100
AcDbBlockBegin
  2
*Model_Space
 70
0
 10
0.0
 20
0.0
 30
0.0
  3
*Model_Space
  1

  0
ENDBLK
  5
19
330
17
100
AcDbEntity
  8
0
100
AcDbBlockEnd
  0
BLOCK
  5
1C
330
1B
100
AcDbEntity
  8
0
100
AcDbBlockBegin
  2
*Paper_Space
 70
0
 10
0.0
 20
0.0
 30
0.0
  3
*Paper_Space
  1

  0
ENDBLK
  5
1D
330
1B
100
AcDbEntity
  8
0
100
AcDbBlockEnd
  0
BLOCK
  5
30
330
2F
100
AcDbEntity
  8
0
100
AcDbBlockBegin
  2
28 schroeven 2D - Verzonken schroef 4_0x40mm-3245472-00_0 Basismaterialen
 70
0
 10
0.0
 20
0.0
 30
0.0
  3
28 schroeven 2D - Verzonken schroef 4_0x40mm-3245472-00_0 Basismaterialen
  1

  0
LINE
  5
32
330
2F
100
AcDbEntity
  8
A-DETL-GENF
370
5
100
AcDbLine
 10
-0.9999999999996161
 20
-3.996135097562573
 30
0.0
 11
1.02840832689618
 21
-3.261852564724141
 31
0.0
  0
ARC
  5
33
330
2F
100
AcDbEntity
  8
A-DETL-GENF
370
5
100
AcDbCircle
 10
2.500000000000429
 20
-3.552400233235626
 30
0.0
 40
1.500000000000001
100
AcDbArc
 50
129.9999999997252
 51
180.0
  0
LINE
  5
34
330
2F
100
AcDbEntity
  8
A-DETL-GENF
370
5
100
AcDbLine
 10
4.400000000000291
 20
0.0
 30
0.0
 11
1.535818585470794
 21
-2.403333568545161
 31
0.0
  0
LINE
  5
35
330
2F
100
AcDbEntity
  8
A-DETL-GENF
370
5
100
AcDbLine
 10
-4.400000000000011
 20
0.0
 30
0.0
 11
4.400000000000291
 21
0.0
 31
0.0
  0
LINE
  5
36
330
2F
100
AcDbEntity
  8
A-DETL-GENF
370
5
100
AcDbLine
 10
-4.042473922221859
 20
-0.2999999999999318
 30
0.0
 11
4.04247392222042
 21
-0.2999999999999318
 31
0.0
  0
LINE
  5
37
330
2F
100
AcDbEntity
  8
A-DETL-GENF
370
5
100
AcDbLine
 10
-1.535818585469822
 20
-2.40333356855731
 30
0.0
 11
-4.400000000000011
 21
0.0
 31
0.0
  0
ARC
  5
38
330
2F
100
AcDbEntity
  8
A-DETL-GENF
370
5
100
AcDbCircle
 10
-2.499999999999927
 20
-3.552400233235931
 30
0.0
 40
1.500000000000001
100
AcDbArc
 50
359.9999999999996
 51
50.00000000000046
  0
LINE
  5
39
330
2F
100
AcDbEntity
  8
A-DETL-GENF
370
5
100
AcDbLine
 10
-0.9999999999996161
 20
-3.552400233235931
 30
0.0
 11
-0.9999999999996161
 21
-34.9999999999979
 31
0.0
  0
LINE
  5
3A
330
2F
100
AcDbEntity
  8
A-DETL-GENF
370
5
100
AcDbLine
 10
0.9999999999913564
 20
-34.99999999999742
 30
0.0
 11
0.9999999999913564
 21
-3.552400233235626
 31
0.0
  0
LINE
  5
3B
330
2F
100
AcDbEntity
  8
A-DETL-GENF
370
5
100
AcDbLine
 10
-0.9999999999996161
 20
-34.9999999999979
 30
0.0
 11
-5e-16
 21
-40.00000000000027
 31
0.0
  0
LINE
  5
3C
330
2F
100
AcDbEntity
  8
A-DETL-GENF
370
5
100
AcDbLine
 10
-5e-16
 20
-40.00000000000027
 30
0.0
 11
0.9999999999913564
 21
-34.99999999999742
 31
0.0
  0
LINE
  5
3D
330
2F
100
AcDbEntity
  8
A-DETL-GENF
370
5
100
AcDbLine
 10
1.25094808138748
 20
-5.608479498605498
 30
0.0
 11
2.0
 21
-4.968505096435271
 31
0.0
  0
LINE
  5
3E
330
2F
100
AcDbEntity
  8
A-DETL-GENF
370
5
100
AcDbLine
 10
-2.0
 20
-5.899697989282839
 30
0.0
 11
-1.250948081387281
 21
-5.259723587112567
 31
0.0
  0
LINE
  5
3F
330
2F
100
AcDbEntity
  8
A-DETL-GENF
370
5
100
AcDbLine
 10
2.0
 20
-4.968505096435271
 30
0.0
 11
-2.0
 21
-5.899697989282839
 31
0.0
  0
SPLINE
  5
40
330
2F
100
AcDbEntity
  8
A-DETL-GENF
370
5
100
AcDbSpline
 70
8
 71
2
 72
6
 73
3
 74
0
 42
1e-09
 40
0.0
 40
0.0
 40
0.0
 40
0.0080843581380993
 40
0.0080843581380993
 40
0.0080843581380993
 10
-2.0
 20
-5.899697989282839
 30
0.0
 10
-1.500030101451394
 20
-6.140305971628829
 30
0.0
 10
1.25094808138748
 20
-5.608479498605498
 30
0.0
  0
SPLINE
  5
41
330
2F
100
AcDbEntity
  8
A-DETL-GENF
370
5
100
AcDbSpline
 70
8
 71
2
 72
6
 73
3
 74
0
 42
1e-09
 40
0.0
 40
0.0
 40
0.0
 40
0.0081625666579304
 40
0.0081625666579304
 40
0.0081625666579304
 10
-1.250948081387281
 20
-5.259723587112567
 30
0.0
 10
1.8005603865825
 20
-4.750427551356744
 30
0.0
 10
2.000000000000002
 20
-4.968505096435271
 30
0.0
  0
LINE
  5
42
330
2F
100
AcDbEntity
  8
A-DETL-GENF
  6
MV_hartlijn_staal
370
13
100
AcDbLine
 10
-5e-16
 20
9.101516289598125
 30
0.0
 11
-5e-16
 21
-45.89848371040143
 31
0.0
  0
LINE
  5
43
330
2F
100
AcDbEntity
  8
A-DETL-GENF
370
5
100
AcDbLine
 10
1.250948081387398
 20
-34.60263541704626
 30
0.0
 11
1.999999999999919
 21
-33.96266101487603
 31
0.0
  0
LINE
  5
44
330
2F
100
AcDbEntity
  8
A-DETL-GENF
370
5
100
AcDbLine
 10
-2.000000000000082
 20
-34.8938539077236
 30
0.0
 11
-1.250948081387363
 21
-34.25387950555333
 31
0.0
  0
LINE
  5
45
330
2F
100
AcDbEntity
  8
A-DETL-GENF
370
5
100
AcDbLine
 10
1.999999999999919
 20
-33.96266101487603
 30
0.0
 11
-2.000000000000082
 21
-34.8938539077236
 31
0.0
  0
SPLINE
  5
46
330
2F
100
AcDbEntity
  8
A-DETL-GENF
370
5
100
AcDbSpline
 70
8
 71
2
 72
6
 73
3
 74
0
 42
1e-09
 40
0.0
 40
0.0
 40
0.0
 40
0.0080843581380993
 40
0.0080843581380993
 40
0.0080843581380993
 10
-2.000000000000082
 20
-34.8938539077236
 30
0.0
 10
-1.500030101451476
 20
-35.13446189006959
 30
0.0
 10
1.250948081387399
 20
-34.60263541704626
 30
0.0
  0
SPLINE
  5
47
330
2F
100
AcDbEntity
  8
A-DETL-GENF
370
5
100
AcDbSpline
 70
8
 71
2
 72
6
 73
3
 74
0
 42
1e-09
 40
0.0
 40
0.0
 40
0.0
 40
0.0081625666579304
 40
0.0081625666579304
 40
0.0081625666579304
 10
-1.250948081387363
 20
-34.25387950555333
 30
0.0
 10
1.800560386582419
 20
-33.7445834697975
 30
0.0
 10
1.99999999999992
 20
-33.96266101487603
 30
0.0
  0
LINE
  5
48
330
2F
100
AcDbEntity
  8
A-DETL-GENF
370
5
100
AcDbLine
 10
1.25094808138748
 20
-8.244311854827385
 30
0.0
 11
2.0
 21
-7.604337452657158
 31
0.0
  0
LINE
  5
49
330
2F
100
AcDbEntity
  8
A-DETL-GENF
370
5
100
AcDbLine
 10
-2.0
 20
-8.535530345504727
 30
0.0
 11
-1.250948081387281
 21
-7.895555943334454
 31
0.0
  0
LINE
  5
4A
330
2F
100
AcDbEntity
  8
A-DETL-GENF
370
5
100
AcDbLine
 10
2.0
 20
-7.604337452657158
 30
0.0
 11
-2.0
 21
-8.535530345504727
 31
0.0
  0
SPLINE
  5
4B
330
2F
100
AcDbEntity
  8
A-DETL-GENF
370
5
100
AcDbSpline
 70
8
 71
2
 72
6
 73
3
 74
0
 42
1e-09
 40
0.0
 40
0.0
 40
0.0
 40
0.0080843581380993
 40
0.0080843581380993
 40
0.0080843581380993
 10
-2.0
 20
-8.535530345504727
 30
0.0
 10
-1.500030101451394
 20
-8.776138327850717
 30
0.0
 10
1.25094808138748
 20
-8.244311854827385
 30
0.0
  0
SPLINE
  5
4C
330
2F
100
AcDbEntity
  8
A-DETL-GENF
370
5
100
AcDbSpline
 70
8
 71
2
 72
6
 73
3
 74
0
 42
1e-09
 40
0.0
 40
0.0
 40
0.0
 40
0.0081625666579304
 40
0.0081625666579304
 40
0.0081625666579304
 10
-1.250948081387281
 20
-7.895555943334454
 30
0.0
 10
1.8005603865825
 20
-7.386259907578631
 30
0.0
 10
2.000000000000002
 20
-7.604337452657158
 30
0.0
  0
LINE
  5
4D
330
2F
100
AcDbEntity
  8
A-DETL-GENF
370
5
100
AcDbLine
 10
1.25094808138748
 20
-10.88014421104927
 30
0.0
 11
2.0
 21
-10.24016980887904
 31
0.0
  0
LINE
  5
4E
330
2F
100
AcDbEntity
  8
A-DETL-GENF
370
5
100
AcDbLine
 10
-2.0
 20
-11.17136270172661
 30
0.0
 11
-1.250948081387281
 21
-10.53138829955634
 31
0.0
  0
LINE
  5
4F
330
2F
100
AcDbEntity
  8
A-DETL-GENF
370
5
100
AcDbLine
 10
2.0
 20
-10.24016980887904
 30
0.0
 11
-2.0
 21
-11.17136270172661
 31
0.0
  0
SPLINE
  5
50
330
2F
100
AcDbEntity
  8
A-DETL-GENF
370
5
100
AcDbSpline
 70
8
 71
2
 72
6
 73
3
 74
0
 42
1e-09
 40
0.0
 40
0.0
 40
0.0
 40
0.0080843581380993
 40
0.0080843581380993
 40
0.0080843581380993
 10
-2.0
 20
-11.17136270172661
 30
0.0
 10
-1.500030101451394
 20
-11.4119706840726
 30
0.0
 10
1.25094808138748
 20
-10.88014421104927
 30
0.0
  0
SPLINE
  5
51
330
2F
100
AcDbEntity
  8
A-DETL-GENF
370
5
100
AcDbSpline
 70
8
 71
2
 72
6
 73
3
 74
0
 42
1e-09
 40
0.0
 40
0.0
 40
0.0
 40
0.0081625666579304
 40
0.0081625666579304
 40
0.0081625666579304
 10
-1.250948081387281
 20
-10.53138829955634
 30
0.0
 10
1.8005603865825
 20
-10.02209226380052
 30
0.0
 10
2.000000000000002
 20
-10.24016980887904
 30
0.0
  0
LINE
  5
52
330
2F
100
AcDbEntity
  8
A-DETL-GENF
370
5
100
AcDbLine
 10
1.25094808138748
 20
-13.51597656727116
 30
0.0
 11
2.0
 21
-12.87600216510093
 31
0.0
  0
LINE
  5
53
330
2F
100
AcDbEntity
  8
A-DETL-GENF
370
5
100
AcDbLine
 10
-2.0
 20
-13.8071950579485
 30
0.0
 11
-1.250948081387281
 21
-13.16722065577822
 31
0.0
  0
LINE
  5
54
330
2F
100
AcDbEntity
  8
A-DETL-GENF
370
5
100
AcDbLine
 10
2.0
 20
-12.87600216510093
 30
0.0
 11
-2.0
 21
-13.8071950579485
 31
0.0
  0
SPLINE
  5
55
330
2F
100
AcDbEntity
  8
A-DETL-GENF
370
5
100
AcDbSpline
 70
8
 71
2
 72
6
 73
3
 74
0
 42
1e-09
 40
0.0
 40
0.0
 40
0.0
 40
0.0080843581380993
 40
0.0080843581380993
 40
0.0080843581380993
 10
-2.0
 20
-13.8071950579485
 30
0.0
 10
-1.500030101451394
 20
-14.04780304029449
 30
0.0
 10
1.25094808138748
 20
-13.51597656727116
 30
0.0
  0
SPLINE
  5
56
330
2F
100
AcDbEntity
  8
A-DETL-GENF
370
5
100
AcDbSpline
 70
8
 71
2
 72
6
 73
3
 74
0
 42
1e-09
 40
0.0
 40
0.0
 40
0.0
 40
0.0081625666579304
 40
0.0081625666579304
 40
0.0081625666579304
 10
-1.250948081387281
 20
-13.16722065577823
 30
0.0
 10
1.8005603865825
 20
-12.6579246200224
 30
0.0
 10
2.000000000000002
 20
-12.87600216510093
 30
0.0
  0
LINE
  5
57
330
2F
100
AcDbEntity
  8
A-DETL-GENF
370
5
100
AcDbLine
 10
1.25094808138748
 20
-16.15180892349304
 30
0.0
 11
2.0
 21
-15.51183452132282
 31
0.0
  0
LINE
  5
58
330
2F
100
AcDbEntity
  8
A-DETL-GENF
370
5
100
AcDbLine
 10
-2.0
 20
-16.44302741417039
 30
0.0
 11
-1.250948081387281
 21
-15.80305301200011
 31
0.0
  0
LINE
  5
59
330
2F
100
AcDbEntity
  8
A-DETL-GENF
370
5
100
AcDbLine
 10
2.0
 20
-15.51183452132282
 30
0.0
 11
-2.0
 21
-16.44302741417039
 31
0.0
  0
SPLINE
  5
5A
330
2F
100
AcDbEntity
  8
A-DETL-GENF
370
5
100
AcDbSpline
 70
8
 71
2
 72
6
 73
3
 74
0
 42
1e-09
 40
0.0
 40
0.0
 40
0.0
 40
0.0080843581380993
 40
0.0080843581380993
 40
0.0080843581380993
 10
-2.0
 20
-16.44302741417039
 30
0.0
 10
-1.500030101451394
 20
-16.68363539651638
 30
0.0
 10
1.25094808138748
 20
-16.15180892349304
 30
0.0
  0
SPLINE
  5
5B
330
2F
100
AcDbEntity
  8
A-DETL-GENF
370
5
100
AcDbSpline
 70
8
 71
2
 72
6
 73
3
 74
0
 42
1e-09
 40
0.0
 40
0.0
 40
0.0
 40
0.0081625666579304
 40
0.0081625666579304
 40
0.0081625666579304
 10
-1.250948081387281
 20
-15.80305301200011
 30
0.0
 10
1.8005603865825
 20
-15.29375697624429
 30
0.0
 10
2.000000000000002
 20
-15.51183452132282
 30
0.0
  0
LINE
  5
5C
330
2F
100
AcDbEntity
  8
A-DETL-GENF
370
5
100
AcDbLine
 10
1.25094808138748
 20
-18.78764127971493
 30
0.0
 11
2.0
 21
-18.1476668775447
 31
0.0
  0
LINE
  5
5D
330
2F
100
AcDbEntity
  8
A-DETL-GENF
370
5
100
AcDbLine
 10
-2.0
 20
-19.07885977039227
 30
0.0
 11
-1.250948081387281
 21
-18.438885368222
 31
0.0
  0
LINE
  5
5E
330
2F
100
AcDbEntity
  8
A-DETL-GENF
370
5
100
AcDbLine
 10
2.0
 20
-18.1476668775447
 30
0.0
 11
-2.0
 21
-19.07885977039227
 31
0.0
  0
SPLINE
  5
5F
330
2F
100
AcDbEntity
  8
A-DETL-GENF
370
5
100
AcDbSpline
 70
8
 71
2
 72
6
 73
3
 74
0
 42
1e-09
 40
0.0
 40
0.0
 40
0.0
 40
0.0080843581380993
 40
0.0080843581380993
 40
0.0080843581380993
 10
-2.0
 20
-19.07885977039227
 30
0.0
 10
-1.500030101451394
 20
-19.31946775273827
 30
0.0
 10
1.25094808138748
 20
-18.78764127971493
 30
0.0
  0
SPLINE
  5
60
330
2F
100
AcDbEntity
  8
A-DETL-GENF
370
5
100
AcDbSpline
 70
8
 71
2
 72
6
 73
3
 74
0
 42
1e-09
 40
0.0
 40
0.0
 40
0.0
 40
0.0081625666579304
 40
0.0081625666579304
 40
0.0081625666579304
 10
-1.250948081387281
 20
-18.438885368222
 30
0.0
 10
1.8005603865825
 20
-17.92958933246618
 30
0.0
 10
2.000000000000002
 20
-18.1476668775447
 30
0.0
  0
LINE
  5
61
330
2F
100
AcDbEntity
  8
A-DETL-GENF
370
5
100
AcDbLine
 10
1.25094808138748
 20
-21.42347363593682
 30
0.0
 11
2.0
 21
-20.78349923376659
 31
0.0
  0
LINE
  5
62
330
2F
100
AcDbEntity
  8
A-DETL-GENF
370
5
100
AcDbLine
 10
-2.0
 20
-21.71469212661417
 30
0.0
 11
-1.250948081387281
 21
-21.07471772444389
 31
0.0
  0
LINE
  5
63
330
2F
100
AcDbEntity
  8
A-DETL-GENF
370
5
100
AcDbLine
 10
2.0
 20
-20.78349923376659
 30
0.0
 11
-2.0
 21
-21.71469212661417
 31
0.0
  0
SPLINE
  5
64
330
2F
100
AcDbEntity
  8
A-DETL-GENF
370
5
100
AcDbSpline
 70
8
 71
2
 72
6
 73
3
 74
0
 42
1e-09
 40
0.0
 40
0.0
 40
0.0
 40
0.0080843581380993
 40
0.0080843581380993
 40
0.0080843581380993
 10
-2.0
 20
-21.71469212661417
 30
0.0
 10
-1.500030101451394
 20
-21.95530010896016
 30
0.0
 10
1.25094808138748
 20
-21.42347363593682
 30
0.0
  0
SPLINE
  5
65
330
2F
100
AcDbEntity
  8
A-DETL-GENF
370
5
100
AcDbSpline
 70
8
 71
2
 72
6
 73
3
 74
0
 42
1e-09
 40
0.0
 40
0.0
 40
0.0
 40
0.0081625666579304
 40
0.0081625666579304
 40
0.0081625666579304
 10
-1.250948081387281
 20
-21.07471772444389
 30
0.0
 10
1.8005603865825
 20
-20.56542168868807
 30
0.0
 10
2.000000000000002
 20
-20.78349923376659
 30
0.0
  0
LINE
  5
66
330
2F
100
AcDbEntity
  8
A-DETL-GENF
370
5
100
AcDbLine
 10
1.25094808138748
 20
-24.05930599215871
 30
0.0
 11
2.0
 21
-23.41933158998848
 31
0.0
  0
LINE
  5
67
330
2F
100
AcDbEntity
  8
A-DETL-GENF
370
5
100
AcDbLine
 10
-2.0
 20
-24.35052448283605
 30
0.0
 11
-1.250948081387281
 21
-23.71055008066578
 31
0.0
  0
LINE
  5
68
330
2F
100
AcDbEntity
  8
A-DETL-GENF
370
5
100
AcDbLine
 10
2.0
 20
-23.41933158998848
 30
0.0
 11
-2.0
 21
-24.35052448283605
 31
0.0
  0
SPLINE
  5
69
330
2F
100
AcDbEntity
  8
A-DETL-GENF
370
5
100
AcDbSpline
 70
8
 71
2
 72
6
 73
3
 74
0
 42
1e-09
 40
0.0
 40
0.0
 40
0.0
 40
0.0080843581380993
 40
0.0080843581380993
 40
0.0080843581380993
 10
-2.0
 20
-24.35052448283605
 30
0.0
 10
-1.500030101451394
 20
-24.59113246518204
 30
0.0
 10
1.25094808138748
 20
-24.05930599215871
 30
0.0
  0
SPLINE
  5
6A
330
2F
100
AcDbEntity
  8
A-DETL-GENF
370
5
100
AcDbSpline
 70
8
 71
2
 72
6
 73
3
 74
0
 42
1e-09
 40
0.0
 40
0.0
 40
0.0
 40
0.0081625666579304
 40
0.0081625666579304
 40
0.0081625666579304
 10
-1.250948081387281
 20
-23.71055008066578
 30
0.0
 10
1.8005603865825
 20
-23.20125404490996
 30
0.0
 10
2.000000000000002
 20
-23.41933158998848
 30
0.0
  0
LINE
  5
6B
330
2F
100
AcDbEntity
  8
A-DETL-GENF
370
5
100
AcDbLine
 10
1.25094808138748
 20
-26.6951383483806
 30
0.0
 11
2.0
 21
-26.05516394621037
 31
0.0
  0
LINE
  5
6C
330
2F
100
AcDbEntity
  8
A-DETL-GENF
370
5
100
AcDbLine
 10
-2.0
 20
-26.98635683905794
 30
0.0
 11
-1.250948081387281
 21
-26.34638243688767
 31
0.0
  0
LINE
  5
6D
330
2F
100
AcDbEntity
  8
A-DETL-GENF
370
5
100
AcDbLine
 10
2.0
 20
-26.05516394621037
 30
0.0
 11
-2.0
 21
-26.98635683905794
 31
0.0
  0
SPLINE
  5
6E
330
2F
100
AcDbEntity
  8
A-DETL-GENF
370
5
100
AcDbSpline
 70
8
 71
2
 72
6
 73
3
 74
0
 42
1e-09
 40
0.0
 40
0.0
 40
0.0
 40
0.0080843581380993
 40
0.0080843581380993
 40
0.0080843581380993
 10
-2.0
 20
-26.98635683905794
 30
0.0
 10
-1.500030101451394
 20
-27.22696482140393
 30
0.0
 10
1.25094808138748
 20
-26.6951383483806
 30
0.0
  0
SPLINE
  5
6F
330
2F
100
AcDbEntity
  8
A-DETL-GENF
370
5
100
AcDbSpline
 70
8
 71
2
 72
6
 73
3
 74
0
 42
1e-09
 40
0.0
 40
0.0
 40
0.0
 40
0.0081625666579304
 40
0.0081625666579304
 40
0.0081625666579304
 10
-1.250948081387281
 20
-26.34638243688767
 30
0.0
 10
1.8005603865825
 20
-25.83708640113185
 30
0.0
 10
2.000000000000002
 20
-26.05516394621037
 30
0.0
  0
LINE
  5
70
330
2F
100
AcDbEntity
  8
A-DETL-GENF
370
5
100
AcDbLine
 10
1.25094808138748
 20
-29.33097070460248
 30
0.0
 11
2.0
 21
-28.69099630243226
 31
0.0
  0
LINE
  5
71
330
2F
100
AcDbEntity
  8
A-DETL-GENF
370
5
100
AcDbLine
 10
-2.0
 20
-29.62218919527983
 30
0.0
 11
-1.250948081387281
 21
-28.98221479310955
 31
0.0
  0
LINE
  5
72
330
2F
100
AcDbEntity
  8
A-DETL-GENF
370
5
100
AcDbLine
 10
2.0
 20
-28.69099630243226
 30
0.0
 11
-2.0
 21
-29.62218919527983
 31
0.0
  0
SPLINE
  5
73
330
2F
100
AcDbEntity
  8
A-DETL-GENF
370
5
100
AcDbSpline
 70
8
 71
2
 72
6
 73
3
 74
0
 42
1e-09
 40
0.0
 40
0.0
 40
0.0
 40
0.0080843581380993
 40
0.0080843581380993
 40
0.0080843581380993
 10
-2.0
 20
-29.62218919527983
 30
0.0
 10
-1.500030101451394
 20
-29.86279717762582
 30
0.0
 10
1.25094808138748
 20
-29.33097070460248
 30
0.0
  0
SPLINE
  5
74
330
2F
100
AcDbEntity
  8
A-DETL-GENF
370
5
100
AcDbSpline
 70
8
 71
2
 72
6
 73
3
 74
0
 42
1e-09
 40
0.0
 40
0.0
 40
0.0
 40
0.0081625666579304
 40
0.0081625666579304
 40
0.0081625666579304
 10
-1.250948081387281
 20
-28.98221479310955
 30
0.0
 10
1.8005603865825
 20
-28.47291875735373
 30
0.0
 10
2.000000000000002
 20
-28.69099630243226
 30
0.0
  0
LINE
  5
75
330
2F
100
AcDbEntity
  8
A-DETL-GENF
370
5
100
AcDbLine
 10
1.25094808138748
 20
-31.96680306082437
 30
0.0
 11
2.0
 21
-31.32682865865414
 31
0.0
  0
LINE
  5
76
330
2F
100
AcDbEntity
  8
A-DETL-GENF
370
5
100
AcDbLine
 10
-2.0
 20
-32.25802155150172
 30
0.0
 11
-1.250948081387281
 21
-31.61804714933144
 31
0.0
  0
LINE
  5
77
330
2F
100
AcDbEntity
  8
A-DETL-GENF
370
5
100
AcDbLine
 10
2.0
 20
-31.32682865865414
 30
0.0
 11
-2.0
 21
-32.25802155150172
 31
0.0
  0
SPLINE
  5
78
330
2F
100
AcDbEntity
  8
A-DETL-GENF
370
5
100
AcDbSpline
 70
8
 71
2
 72
6
 73
3
 74
0
 42
1e-09
 40
0.0
 40
0.0
 40
0.0
 40
0.0080843581380993
 40
0.0080843581380993
 40
0.0080843581380993
 10
-2.0
 20
-32.25802155150172
 30
0.0
 10
-1.500030101451394
 20
-32.4986295338477
 30
0.0
 10
1.25094808138748
 20
-31.96680306082437
 30
0.0
  0
SPLINE
  5
79
330
2F
100
AcDbEntity
  8
A-DETL-GENF
370
5
100
AcDbSpline
 70
8
 71
2
 72
6
 73
3
 74
0
 42
1e-09
 40
0.0
 40
0.0
 40
0.0
 40
0.0081625666579304
 40
0.0081625666579304
 40
0.0081625666579304
 10
-1.250948081387281
 20
-31.61804714933144
 30
0.0
 10
1.8005603865825
 20
-31.10875111357562
 30
0.0
 10
2.000000000000002
 20
-31.32682865865414
 30
0.0
  0
LINE
  5
7A
330
2F
100
AcDbEntity
  8
A-DETL-GENF
370
5
100
AcDbLine
 10
0.5071564845722937
 20
-36.7113431253486
 30
0.0
 11
1.256208403184814
 21
-36.07136872317838
 31
0.0
  0
LINE
  5
7B
330
2F
100
AcDbEntity
  8
A-DETL-GENF
370
5
100
AcDbLine
 10
-1.256208403184781
 20
-36.65625489166892
 30
0.0
 11
-0.5071564845720627
 21
-36.01628048949865
 31
0.0
  0
LINE
  5
7C
330
2F
100
AcDbEntity
  8
A-DETL-GENF
370
5
100
AcDbLine
 10
1.256208403184814
 20
-36.07136872317838
 30
0.0
 11
-1.256208403184782
 21
-36.65625489166892
 31
0.0
  0
SPLINE
  5
7D
330
2F
100
AcDbEntity
  8
A-DETL-GENF
370
5
100
AcDbSpline
 70
8
 71
2
 72
6
 73
3
 74
0
 42
1e-09
 40
0.0
 40
0.0
 40
0.0
 40
0.0080843581380993
 40
0.0080843581380993
 40
0.0080843581380993
 10
-1.256208403184781
 20
-36.65625489166892
 30
0.0
 10
-1.003571311398893
 20
-36.8178676599423
 30
0.0
 10
0.507156484572294
 20
-36.7113431253486
 30
0.0
  0
SPLINE
  5
7E
330
2F
100
AcDbEntity
  8
A-DETL-GENF
370
5
100
AcDbSpline
 70
8
 71
2
 72
6
 73
3
 74
0
 42
1e-09
 40
0.0
 40
0.0
 40
0.0
 40
0.0081625666579304
 40
0.0081625666579304
 40
0.0081625666579304
 10
-0.5071564845720629
 20
-36.01628048949865
 30
0.0
 10
1.163368613109087
 20
-35.94138395726082
 30
0.0
 10
1.256208403184814
 20
-36.07136872317838
 30
0.0
  0
LINE
  5
7F
330
2F
100
AcDbEntity
  8
A-DETL-GENF
370
5
100
AcDbLine
 10
-0.2291364813735424
 20
-39.10725476209748
 30
0.0
 11
0.5199154372389787
 21
-38.46728035992726
 31
0.0
  0
LINE
  5
80
330
2F
100
AcDbEntity
  8
A-DETL-GENF
370
5
100
AcDbLine
 10
-0.5199154372394594
 20
-38.70935113994671
 30
0.0
 11
0.22913648137326
 21
-38.06937673777644
 31
0.0
  0
LINE
  5
81
330
2F
100
AcDbEntity
  8
A-DETL-GENF
370
5
100
AcDbLine
 10
0.5199154372389787
 20
-38.46728035992726
 30
0.0
 11
-0.5199154372394594
 21
-38.70935113994671
 31
0.0
  0
SPLINE
  5
82
330
2F
100
AcDbEntity
  8
A-DETL-GENF
370
5
100
AcDbSpline
 70
8
 71
2
 72
6
 73
3
 74
0
 42
1e-09
 40
0.0
 40
0.0
 40
0.0
 40
0.0080843581380993
 40
0.0080843581380993
 40
0.0080843581380993
 10
-0.5199154372394594
 20
-38.70935113994671
 30
0.0
 10
-0.512117634639857
 20
-38.79276509458185
 30
0.0
 10
-0.2291364813735425
 20
-39.10725476209748
 30
0.0
  0
SPLINE
  5
83
330
2F
100
AcDbEntity
  8
A-DETL-GENF
370
5
100
AcDbSpline
 70
8
 71
2
 72
6
 73
3
 74
0
 42
1e-09
 40
0.0
 40
0.0
 40
0.0
 40
0.0081625666579304
 40
0.0081625666579304
 40
0.0081625666579304
 10
0.2291364813732601
 20
-38.06937673777643
 30
0.0
 10
0.5326007706436267
 20
-38.42450025446101
 30
0.0
 10
0.5199154372389787
 20
-38.46728035992726
 30
0.0
  0
LINE
  5
84
330
2F
100
AcDbEntity
  8
A-DETL-GENF
100
AcDbLine
 10
-0.9999999999996161
 20
-3.552400233235931
 30
0.0
 11
-0.9999999999996161
 21
0.0
 31
0.0
  0
LINE
  5
85
330
2F
100
AcDbEntity
  8
A-DETL-GENF
100
AcDbLine
 10
0.9999999999913564
 20
-3.552400233235626
 30
0.0
 11
0.9999999999913564
 21
0.0
 31
0.0
  0
ENDBLK
  5
31
330
2F
100
AcDbEntity
  8
0
100
AcDbBlockEnd
  0
ENDSEC
  0
SECTION
  2
ENTITIES
  0
INSERT
  5
88
330
17
100
AcDbEntity
  8
0
100
AcDbBlockReference
  2
28 schroeven 2D - Verzonken schroef 4_0x40mm-3245472-00_0 Basismaterialen
 10
0.0
 20
0.0
 30
0.0
  0
ENDSEC
  0
SECTION
  2
OBJECTS
  0
DICTIONARY
  5
A
330
0
100
AcDbDictionary
281
1
  3
ACAD_COLOR
350
B
  3
ACAD_GROUP
350
C
  3
ACAD_LAYOUT
350
D
  3
ACAD_MATERIAL
350
E
  3
ACAD_MLEADERSTYLE
350
F
  3
ACAD_MLINESTYLE
350
10
  3
ACAD_PLOTSETTINGS
350
11
  3
ACAD_PLOTSTYLENAME
350
12
  3
ACAD_SCALELIST
350
14
  3
ACAD_TABLESTYLE
350
15
  3
ACAD_VISUALSTYLE
350
16
  3
EZDXF_META
350
2D
  0
DICTIONARY
  5
B
330
A
100
AcDbDictionary
281
1
  0
DICTIONARY
  5
C
330
A
100
AcDbDictionary
281
1
  0
DICTIONARY
  5
D
330
A
100
AcDbDictionary
281
1
  3
Model
350
1A
  3
Layout1
350
1E
  0
DICTIONARY
  5
E
330
A
100
AcDbDictionary
281
1
  3
ByBlock
350
1F
  3
ByLayer
350
20
  3
Global
350
21
  0
DICTIONARY
  5
F
330
A
100
AcDbDictionary
281
1
  3
Standard
350
2C
  0
DICTIONARY
  5
10
330
A
100
AcDbDictionary
281
1
  3
Standard
350
22
  0
DICTIONARY
  5
11
330
A
100
AcDbDictionary
281
1
  0
ACDBDICTIONARYWDFLT
  5
12
330
A
100
AcDbDictionary
281
1
  3
Normal
350
13
100
AcDbDictionaryWithDefault
340
13
  0
ACDBPLACEHOLDER
  5
13
330
12
  0
DICTIONARY
  5
14
330
A
100
AcDbDictionary
281
1
  0
DICTIONARY
  5
15
330
A
100
AcDbDictionary
281
1
  0
DICTIONARY
  5
16
330
A
100
AcDbDictionary
281
1
  0
LAYOUT
  5
1A
330
D
100
AcDbPlotSettings
  1

  4
A3
  6

 40
7.5
 41
20.0
 42
7.5
 43
20.0
 44
420.0
 45
297.0
 46
0.0
 47
0.0
 48
0.0
 49
0.0
140
0.0
141
0.0
142
1.0
143
1.0
 70
1024
 72
1
 73
0
 74
5
  7

 75
16
 76
0
 77
2
 78
300
147
1.0
148
0.0
149
0.0
100
AcDbLayout
  1
Model
 70
1
 71
0
 10
0.0
 20
0.0
 11
420.0
 21
297.0
 12
0.0
 22
0.0
 32
0.0
 14
1e+20
 24
1e+20
 34
1e+20
 15
-1e+20
 25
-1e+20
 35
-1e+20
146
0.0
 13
0.0
 23
0.0
 33
0.0
 16
1.0
 26
0.0
 36
0.0
 17
0.0
 27
1.0
 37
0.0
 76
1
330
17
  0
LAYOUT
  5
1E
330
D
100
AcDbPlotSettings
  1

  4
A3
  6

 40
7.5
 41
20.0
 42
7.5
 43
20.0
 44
420.0
 45
297.0
 46
0.0
 47
0.0
 48
0.0
 49
0.0
140
0.0
141
0.0
142
1.0
143
1.0
 70
0
 72
1
 73
0
 74
5
  7

 75
16
 76
0
 77
2
 78
300
147
1.0
148
0.0
149
0.0
100
AcDbLayout
  1
Layout1
 70
1
 71
1
 10
0.0
 20
0.0
 11
420.0
 21
297.0
 12
0.0
 22
0.0
 32
0.0
 14
1e+20
 24
1e+20
 34
1e+20
 15
-1e+20
 25
-1e+20
 35
-1e+20
146
0.0
 13
0.0
 23
0.0
 33
0.0
 16
1.0
 26
0.0
 36
0.0
 17
0.0
 27
1.0
 37
0.0
 76
1
330
1B
  0
MATERIAL
  5
1F
102
{ACAD_REACTORS
330
E
102
}
330
E
100
AcDbMaterial
  1
ByBlock
  2

 70
0
 40
1.0
 71
1
 41
1.0
 91
-1023410177
 42
1.0
 72
1
  3

 73
1
 74
1
 75
1
 44
0.5
 73
0
 45
1.0
 46
1.0
 77
1
  4

 78
1
 79
1
170
1
 48
1.0
171
1
  6

172
1
173
1
174
1
140
1.0
141
1.0
175
1
  7

176
1
177
1
178
1
143
1.0
179
1
  8

270
1
271
1
272
1
145
1.0
146
1.0
273
1
  9

274
1
275
1
276
1
 42
1.0
 72
1
  3

 73
1
 74
1
 75
1
 94
63
  0
MATERIAL
  5
20
102
{ACAD_REACTORS
330
E
102
}
330
E
100
AcDbMaterial
  1
ByLayer
  2

 70
0
 40
1.0
 71
1
 41
1.0
 91
-1023410177
 42
1.0
 72
1
  3

 73
1
 74
1
 75
1
 44
0.5
 73
0
 45
1.0
 46
1.0
 77
1
  4

 78
1
 79
1
170
1
 48
1.0
171
1
  6

172
1
173
1
174
1
140
1.0
141
1.0
175
1
  7

176
1
177
1
178
1
143
1.0
179
1
  8

270
1
271
1
272
1
145
1.0
146
1.0
273
1
  9

274
1
275
1
276
1
 42
1.0
 72
1
  3

 73
1
 74
1
 75
1
 94
63
  0
MATERIAL
  5
21
102
{ACAD_REACTORS
330
E
102
}
330
E
100
AcDbMaterial
  1
Global
  2

 70
0
 40
1.0
 71
1
 41
1.0
 91
-1023410177
 42
1.0
 72
1
  3

 73
1
 74
1
 75
1
 44
0.5
 73
0
 45
1.0
 46
1.0
 77
1
  4

 78
1
 79
1
170
1
 48
1.0
171
1
  6

172
1
173
1
174
1
140
1.0
141
1.0
175
1
  7

176
1
177
1
178
1
143
1.0
179
1
  8

270
1
271
1
272
1
145
1.0
146
1.0
273
1
  9

274
1
275
1
276
1
 42
1.0
 72
1
  3

 73
1
 74
1
 75
1
 94
63
  0
MLINESTYLE
  5
22
102
{ACAD_REACTORS
330
10
102
}
330
10
100
AcDbMlineStyle
  2
Standard
 70
0
  3

 62
256
 51
90.0
 52
90.0
 71
2
 49
0.5
 62
256
  6
BYLAYER
 49
-0.5
 62
256
  6
BYLAYER
  0
MLEADERSTYLE
  5
2C
102
{ACAD_REACTORS
330
F
102
}
330
F
100
AcDbMLeaderStyle
179
2
170
2
171
1
172
0
 90
2
 40
0.0
 41
0.0
173
1
 91
-1056964608
 92
-2
290
1
 42
2.0
291
1
 43
8.0
  3
Standard
 44
4.0
300

342
29
174
1
175
1
176
0
178
1
 93
-1056964608
 45
4.0
292
0
297
0
 46
4.0
 94
-1056964608
 47
1.0
 49
1.0
140
1.0
294
1
141
0.0
177
0
142
1.0
295
0
296
0
143
3.75
271
0
272
9
273
9
  0
DICTIONARY
  5
2D
330
A
100
AcDbDictionary
280
1
281
1
  3
CREATED_BY_EZDXF
350
2E
  3
WRITTEN_BY_EZDXF
350
8C
  0
DICTIONARYVAR
  5
2E
330
2D
100
DictionaryVariables
280
0
  1
1.4.3 @ 2026-02-13T04:54:11.215714+00:00
  0
DICTIONARYVAR
  5
8C
330
2D
100
DictionaryVariables
280
0
  1
1.4.3 @ 2026-02-13T04:54:11.223221+00:00
  0
ENDSEC
  0
EOF
