0
SECTION
2
HEADER
9
$EXTMIN
10
 0
20
 100
30
0.0
9
$EXTMAX
10
 0
20
 100
30
0.0
9
$LIMMIN
10
 100
20
 0
9
$LIMMAX
10
 0
20
 100
9
$PSLTSCALE
70
1
0
ENDSEC
0
SECTION
2
TABLES
0
TABLE
2
LAYER
70
2
0
LAYER
2
0
70
0
62
7
6
CONTINUOUS
0
LAYER
2
Halfen
70
0
62
7
6
CONTINUOUS
0
ENDTAB
0
ENDSEC
0
SECTION
2
ENTITIES
0
POLYLINE
8
Halfen
62
7
66
1
10
0.0
20
0.0
30
0.0
70
1
0
VERTEX
8
Halfen
62
7
10
 0
20
-73.5
30
0
0
VERTEX
8
Halfen
62
7
10
 250
20
-73.5
30
0
0
VERTEX
8
Halfen
62
7
10
 250
20
 73.5
30
0
0
VERTEX
8
Halfen
62
7
10
 0
20
 73.5
30
0
0
SEQEND
8
Halfen
0
POLYLINE
8
Halfen
62
7
66
1
10
0.0
20
0.0
30
0.0
70
1
0
VERTEX
8
Halfen
62
7
10
 0
20
-60
30
0
0
VERTEX
8
Halfen
62
7
10
 250
20
-60
30
0
0
VERTEX
8
Halfen
62
7
10
 250
20
 60
30
0
0
VERTEX
8
Halfen
62
7
10
 0
20
 60
30
0
0
SEQEND
8
Halfen
0
POLYLINE
8
Halfen
62
7
66
1
10
0.0
20
0.0
30
0.0
70
1
0
VERTEX
8
Halfen
62
7
10
 20
20
-32.5
30
0
0
VERTEX
8
Halfen
62
7
10
 37
20
-1.5
30
0
0
VERTEX
8
Halfen
62
7
10
 28
20
-1.5
30
0
0
VERTEX
8
Halfen
62
7
10
 28
20
 32.5
30
0
0
VERTEX
8
Halfen
62
7
10
 12
20
 32.5
30
0
0
VERTEX
8
Halfen
62
7
10
 12
20
-1.5
30
0
0
VERTEX
8
Halfen
62
7
10
 3
20
-1.5
30
0
0
SEQEND
8
Halfen
0
POLYLINE
8
Halfen
62
7
66
1
10
0.0
20
0.0
30
0.0
70
1
0
VERTEX
8
Halfen
62
7
10
 230
20
-32.5
30
0
0
VERTEX
8
Halfen
62
7
10
 247
20
-1.5
30
0
0
VERTEX
8
Halfen
62
7
10
 238
20
-1.5
30
0
0
VERTEX
8
Halfen
62
7
10
 238
20
 32.5
30
0
0
VERTEX
8
Halfen
62
7
10
 222
20
 32.5
30
0
0
VERTEX
8
Halfen
62
7
10
 222
20
-1.5
30
0
0
VERTEX
8
Halfen
62
7
10
 213
20
-1.5
30
0
0
SEQEND
8
Halfen
0
POLYLINE
8
Halfen
62
7
66
1
10
0.0
20
0.0
30
0.0
70
1
0
VERTEX
8
Halfen
62
7
10
 68
20
-775
30
0
0
VERTEX
8
Halfen
62
7
10
 68
20
-160
30
0
0
VERTEX
8
Halfen
62
7
10
 56
20
-160
30
0
0
VERTEX
8
Halfen
62
7
10
 56
20
-775
30
0
0
SEQEND
8
Halfen
0
POLYLINE
8
Halfen
62
7
66
1
10
0.0
20
0.0
30
0.0
70
1
0
VERTEX
8
Halfen
62
7
10
 67.25
20
-160
30
0
0
VERTEX
8
Halfen
62
7
10
 67.25
20
-62
30
0
0
VERTEX
8
Halfen
62
7
10
 56.75
20
-62
30
0
0
VERTEX
8
Halfen
62
7
10
 56.75
20
-160
30
0
0
SEQEND
8
Halfen
0
POLYLINE
8
Halfen
62
7
66
1
10
0.0
20
0.0
30
0.0
70
1
0
VERTEX
8
Halfen
62
7
10
 68
20
-62
30
0
0
VERTEX
8
Halfen
62
7
10
 68
20
-60
30
0
0
VERTEX
8
Halfen
62
7
10
 56
20
-60
30
0
0
VERTEX
8
Halfen
62
7
10
 56
20
-62
30
0
0
SEQEND
8
Halfen
0
POLYLINE
8
Halfen
62
7
66
1
10
0.0
20
0.0
30
0.0
70
1
0
VERTEX
8
Halfen
62
7
10
 67.25
20
-60
30
0
0
VERTEX
8
Halfen
62
7
10
 67.25
20
 60
30
0
0
VERTEX
8
Halfen
62
7
10
 56.75
20
 60
30
0
0
VERTEX
8
Halfen
62
7
10
 56.75
20
-60
30
0
0
SEQEND
8
Halfen
0
POLYLINE
8
Halfen
62
7
66
1
10
0.0
20
0.0
30
0.0
70
1
0
VERTEX
8
Halfen
62
7
10
 68
20
 60
30
0
0
VERTEX
8
Halfen
62
7
10
 68
20
 62
30
0
0
VERTEX
8
Halfen
62
7
10
 56
20
 62
30
0
0
VERTEX
8
Halfen
62
7
10
 56
20
 60
30
0
0
SEQEND
8
Halfen
0
POLYLINE
8
Halfen
62
7
66
1
10
0.0
20
0.0
30
0.0
70
1
0
VERTEX
8
Halfen
62
7
10
 67.25
20
 62
30
0
0
VERTEX
8
Halfen
62
7
10
 67.25
20
 160
30
0
0
VERTEX
8
Halfen
62
7
10
 56.75
20
 160
30
0
0
VERTEX
8
Halfen
62
7
10
 56.75
20
 62
30
0
0
SEQEND
8
Halfen
0
POLYLINE
8
Halfen
62
7
66
1
10
0.0
20
0.0
30
0.0
70
1
0
VERTEX
8
Halfen
62
7
10
 68
20
 160
30
0
0
VERTEX
8
Halfen
62
7
10
 68
20
 775
30
0
0
VERTEX
8
Halfen
62
7
10
 56
20
 775
30
0
0
VERTEX
8
Halfen
62
7
10
 56
20
 160
30
0
0
SEQEND
8
Halfen
0
POLYLINE
8
Halfen
62
7
66
1
10
0.0
20
0.0
30
0.0
70
1
0
VERTEX
8
Halfen
62
7
10
 152
20
-775
30
0
0
VERTEX
8
Halfen
62
7
10
 152
20
-160
30
0
0
VERTEX
8
Halfen
62
7
10
 140
20
-160
30
0
0
VERTEX
8
Halfen
62
7
10
 140
20
-775
30
0
0
SEQEND
8
Halfen
0
POLYLINE
8
Halfen
62
7
66
1
10
0.0
20
0.0
30
0.0
70
1
0
VERTEX
8
Halfen
62
7
10
 151.25
20
-160
30
0
0
VERTEX
8
Halfen
62
7
10
 151.25
20
-62
30
0
0
VERTEX
8
Halfen
62
7
10
 140.75
20
-62
30
0
0
VERTEX
8
Halfen
62
7
10
 140.75
20
-160
30
0
0
SEQEND
8
Halfen
0
POLYLINE
8
Halfen
62
7
66
1
10
0.0
20
0.0
30
0.0
70
1
0
VERTEX
8
Halfen
62
7
10
 152
20
-62
30
0
0
VERTEX
8
Halfen
62
7
10
 152
20
-60
30
0
0
VERTEX
8
Halfen
62
7
10
 140
20
-60
30
0
0
VERTEX
8
Halfen
62
7
10
 140
20
-62
30
0
0
SEQEND
8
Halfen
0
POLYLINE
8
Halfen
62
7
66
1
10
0.0
20
0.0
30
0.0
70
1
0
VERTEX
8
Halfen
62
7
10
 151.25
20
-60
30
0
0
VERTEX
8
Halfen
62
7
10
 151.25
20
 60
30
0
0
VERTEX
8
Halfen
62
7
10
 140.75
20
 60
30
0
0
VERTEX
8
Halfen
62
7
10
 140.75
20
-60
30
0
0
SEQEND
8
Halfen
0
POLYLINE
8
Halfen
62
7
66
1
10
0.0
20
0.0
30
0.0
70
1
0
VERTEX
8
Halfen
62
7
10
 152
20
 60
30
0
0
VERTEX
8
Halfen
62
7
10
 152
20
 62
30
0
0
VERTEX
8
Halfen
62
7
10
 140
20
 62
30
0
0
VERTEX
8
Halfen
62
7
10
 140
20
 60
30
0
0
SEQEND
8
Halfen
0
POLYLINE
8
Halfen
62
7
66
1
10
0.0
20
0.0
30
0.0
70
1
0
VERTEX
8
Halfen
62
7
10
 151.25
20
 62
30
0
0
VERTEX
8
Halfen
62
7
10
 151.25
20
 160
30
0
0
VERTEX
8
Halfen
62
7
10
 140.75
20
 160
30
0
0
VERTEX
8
Halfen
62
7
10
 140.75
20
 62
30
0
0
SEQEND
8
Halfen
0
POLYLINE
8
Halfen
62
7
66
1
10
0.0
20
0.0
30
0.0
70
1
0
VERTEX
8
Halfen
62
7
10
 152
20
 160
30
0
0
VERTEX
8
Halfen
62
7
10
 152
20
 775
30
0
0
VERTEX
8
Halfen
62
7
10
 140
20
 775
30
0
0
VERTEX
8
Halfen
62
7
10
 140
20
 160
30
0
0
SEQEND
8
Halfen
0
POLYLINE
8
Halfen
62
7
66
1
10
0.0
20
0.0
30
0.0
70
1
0
VERTEX
8
Halfen
62
7
10
 98
20
-454.298
30
0
0
VERTEX
8
Halfen
62
7
10
 98
20
 459.026
30
0
0
VERTEX
8
Halfen
62
7
10
 92
20
 459.026
30
0
0
VERTEX
8
Halfen
62
7
10
 92
20
-454.298
30
0
0
SEQEND
8
Halfen
0
POLYLINE
8
Halfen
62
7
66
1
10
0.0
20
0.0
30
0.0
70
1
0
VERTEX
8
Halfen
62
7
10
 104
20
-459.026
30
0
0
VERTEX
8
Halfen
62
7
10
 104
20
 454.298
30
0
0
VERTEX
8
Halfen
62
7
10
 98
20
 454.298
30
0
0
VERTEX
8
Halfen
62
7
10
 98
20
-459.026
30
0
0
SEQEND
8
Halfen
0
POLYLINE
8
Halfen
62
7
66
1
10
0.0
20
0.0
30
0.0
70
1
0
VERTEX
8
Halfen
62
7
10
 690
20
-60
30
0
0
VERTEX
8
Halfen
62
7
10
 690
20
 60
30
0
0
VERTEX
8
Halfen
62
7
10
 676.5
20
 73.5
30
0
0
VERTEX
8
Halfen
62
7
10
 676.5
20
 60
30
0
0
VERTEX
8
Halfen
62
7
10
 500
20
 60
30
0
0
VERTEX
8
Halfen
62
7
10
 500
20
-60
30
0
0
VERTEX
8
Halfen
62
7
10
 676.5
20
-60
30
0
0
VERTEX
8
Halfen
62
7
10
 676.5
20
-73.5
30
0
0
SEQEND
8
Halfen
0
POLYLINE
8
Halfen
62
7
66
1
10
0.0
20
0.0
30
0.0
70
1
0
VERTEX
8
Halfen
62
7
10
 500
20
-60
30
0
0
VERTEX
8
Halfen
62
7
10
 500
20
 60
30
0
0
VERTEX
8
Halfen
62
7
10
 463.5
20
 60
30
0
0
VERTEX
8
Halfen
62
7
10
 463.5
20
 73.5
30
0
0
VERTEX
8
Halfen
62
7
10
 450
20
 60
30
0
0
VERTEX
8
Halfen
62
7
10
 450
20
-60
30
0
0
VERTEX
8
Halfen
62
7
10
 463.5
20
-73.5
30
0
0
VERTEX
8
Halfen
62
7
10
 463.5
20
-60
30
0
0
SEQEND
8
Halfen
0
POLYLINE
8
Halfen
62
7
66
1
10
0.0
20
0.0
30
0.0
70
1
0
VERTEX
8
Halfen
62
7
10
 687.5
20
-58.75
30
0
0
VERTEX
8
Halfen
62
7
10
 687.5
20
 58.75
30
0
0
VERTEX
8
Halfen
62
7
10
 679
20
 67.25
30
0
0
VERTEX
8
Halfen
62
7
10
 679
20
 58
30
0
0
VERTEX
8
Halfen
62
7
10
 502
20
 58
30
0
0
VERTEX
8
Halfen
62
7
10
 502
20
-58
30
0
0
VERTEX
8
Halfen
62
7
10
 679
20
-58
30
0
0
VERTEX
8
Halfen
62
7
10
 679
20
-67.25
30
0
0
SEQEND
8
Halfen
0
POLYLINE
8
Halfen
62
7
66
1
10
0.0
20
0.0
30
0.0
70
1
0
VERTEX
8
Halfen
62
7
10
 498
20
-58
30
0
0
VERTEX
8
Halfen
62
7
10
 498
20
 58
30
0
0
VERTEX
8
Halfen
62
7
10
 461
20
 58
30
0
0
VERTEX
8
Halfen
62
7
10
 461
20
 67.25
30
0
0
VERTEX
8
Halfen
62
7
10
 452.5
20
 58.75
30
0
0
VERTEX
8
Halfen
62
7
10
 452.5
20
-58.75
30
0
0
VERTEX
8
Halfen
62
7
10
 461
20
-67.25
30
0
0
VERTEX
8
Halfen
62
7
10
 461
20
-58
30
0
0
SEQEND
8
Halfen
0
POLYLINE
8
Halfen
62
7
66
1
10
0.0
20
0.0
30
0.0
70
1
0
VERTEX
8
Halfen
62
7
10
 492
20
-775
30
0
0
VERTEX
8
Halfen
62
7
10
 492
20
-160
30
0
0
VERTEX
8
Halfen
62
7
10
 480
20
-160
30
0
0
VERTEX
8
Halfen
62
7
10
 480
20
-775
30
0
0
SEQEND
8
Halfen
0
POLYLINE
8
Halfen
62
7
66
1
10
0.0
20
0.0
30
0.0
70
1
0
VERTEX
8
Halfen
62
7
10
 491.25
20
-160
30
0
0
VERTEX
8
Halfen
62
7
10
 491.25
20
-62
30
0
0
VERTEX
8
Halfen
62
7
10
 480.75
20
-62
30
0
0
VERTEX
8
Halfen
62
7
10
 480.75
20
-160
30
0
0
SEQEND
8
Halfen
0
POLYLINE
8
Halfen
62
7
66
1
10
0.0
20
0.0
30
0.0
70
1
0
VERTEX
8
Halfen
62
7
10
 492
20
-62
30
0
0
VERTEX
8
Halfen
62
7
10
 492
20
-60
30
0
0
VERTEX
8
Halfen
62
7
10
 480
20
-60
30
0
0
VERTEX
8
Halfen
62
7
10
 480
20
-62
30
0
0
SEQEND
8
Halfen
0
POLYLINE
8
Halfen
62
7
66
1
10
0.0
20
0.0
30
0.0
70
1
0
VERTEX
8
Halfen
62
7
10
 491.25
20
-60
30
0
0
VERTEX
8
Halfen
62
7
10
 491.25
20
 60
30
0
0
VERTEX
8
Halfen
62
7
10
 480.75
20
 60
30
0
0
VERTEX
8
Halfen
62
7
10
 480.75
20
-60
30
0
0
SEQEND
8
Halfen
0
POLYLINE
8
Halfen
62
7
66
1
10
0.0
20
0.0
30
0.0
70
1
0
VERTEX
8
Halfen
62
7
10
 492
20
 60
30
0
0
VERTEX
8
Halfen
62
7
10
 492
20
 62
30
0
0
VERTEX
8
Halfen
62
7
10
 480
20
 62
30
0
0
VERTEX
8
Halfen
62
7
10
 480
20
 60
30
0
0
SEQEND
8
Halfen
0
POLYLINE
8
Halfen
62
7
66
1
10
0.0
20
0.0
30
0.0
70
1
0
VERTEX
8
Halfen
62
7
10
 491.25
20
 62
30
0
0
VERTEX
8
Halfen
62
7
10
 491.25
20
 160
30
0
0
VERTEX
8
Halfen
62
7
10
 480.75
20
 160
30
0
0
VERTEX
8
Halfen
62
7
10
 480.75
20
 62
30
0
0
SEQEND
8
Halfen
0
POLYLINE
8
Halfen
62
7
66
1
10
0.0
20
0.0
30
0.0
70
1
0
VERTEX
8
Halfen
62
7
10
 492
20
 160
30
0
0
VERTEX
8
Halfen
62
7
10
 492
20
 775
30
0
0
VERTEX
8
Halfen
62
7
10
 480
20
 775
30
0
0
VERTEX
8
Halfen
62
7
10
 480
20
 160
30
0
0
SEQEND
8
Halfen
0
POLYLINE
8
Halfen
62
7
66
1
10
0.0
20
0.0
30
0.0
70
1
0
VERTEX
8
Halfen
62
7
10
 660
20
-775
30
0
0
VERTEX
8
Halfen
62
7
10
 660
20
-160
30
0
0
VERTEX
8
Halfen
62
7
10
 648
20
-160
30
0
0
VERTEX
8
Halfen
62
7
10
 648
20
-775
30
0
0
SEQEND
8
Halfen
0
POLYLINE
8
Halfen
62
7
66
1
10
0.0
20
0.0
30
0.0
70
1
0
VERTEX
8
Halfen
62
7
10
 659.25
20
-160
30
0
0
VERTEX
8
Halfen
62
7
10
 659.25
20
-62
30
0
0
VERTEX
8
Halfen
62
7
10
 648.75
20
-62
30
0
0
VERTEX
8
Halfen
62
7
10
 648.75
20
-160
30
0
0
SEQEND
8
Halfen
0
POLYLINE
8
Halfen
62
7
66
1
10
0.0
20
0.0
30
0.0
70
1
0
VERTEX
8
Halfen
62
7
10
 660
20
-62
30
0
0
VERTEX
8
Halfen
62
7
10
 660
20
-60
30
0
0
VERTEX
8
Halfen
62
7
10
 648
20
-60
30
0
0
VERTEX
8
Halfen
62
7
10
 648
20
-62
30
0
0
SEQEND
8
Halfen
0
POLYLINE
8
Halfen
62
7
66
1
10
0.0
20
0.0
30
0.0
70
1
0
VERTEX
8
Halfen
62
7
10
 659.25
20
-60
30
0
0
VERTEX
8
Halfen
62
7
10
 659.25
20
 60
30
0
0
VERTEX
8
Halfen
62
7
10
 648.75
20
 60
30
0
0
VERTEX
8
Halfen
62
7
10
 648.75
20
-60
30
0
0
SEQEND
8
Halfen
0
POLYLINE
8
Halfen
62
7
66
1
10
0.0
20
0.0
30
0.0
70
1
0
VERTEX
8
Halfen
62
7
10
 660
20
 60
30
0
0
VERTEX
8
Halfen
62
7
10
 660
20
 62
30
0
0
VERTEX
8
Halfen
62
7
10
 648
20
 62
30
0
0
VERTEX
8
Halfen
62
7
10
 648
20
 60
30
0
0
SEQEND
8
Halfen
0
POLYLINE
8
Halfen
62
7
66
1
10
0.0
20
0.0
30
0.0
70
1
0
VERTEX
8
Halfen
62
7
10
 659.25
20
 62
30
0
0
VERTEX
8
Halfen
62
7
10
 659.25
20
 160
30
0
0
VERTEX
8
Halfen
62
7
10
 648.75
20
 160
30
0
0
VERTEX
8
Halfen
62
7
10
 648.75
20
 62
30
0
0
SEQEND
8
Halfen
0
POLYLINE
8
Halfen
62
7
66
1
10
0.0
20
0.0
30
0.0
70
1
0
VERTEX
8
Halfen
62
7
10
 660
20
 160
30
0
0
VERTEX
8
Halfen
62
7
10
 660
20
 775
30
0
0
VERTEX
8
Halfen
62
7
10
 648
20
 775
30
0
0
VERTEX
8
Halfen
62
7
10
 648
20
 160
30
0
0
SEQEND
8
Halfen
0
POLYLINE
8
Halfen
62
7
66
1
10
0.0
20
0.0
30
0.0
70
1
0
VERTEX
8
Halfen
62
7
10
 660
20
-454.298
30
0
0
VERTEX
8
Halfen
62
7
10
 660
20
-83.335
30
0
0
VERTEX
8
Halfen
62
7
10
 659.705
20
-79.58
30
0
0
VERTEX
8
Halfen
62
7
10
 658.825
20
-75.918
30
0
0
VERTEX
8
Halfen
62
7
10
 657.384
20
-72.439
30
0
0
VERTEX
8
Halfen
62
7
10
 655.416
20
-69.228
30
0
0
VERTEX
8
Halfen
62
7
10
 652.971
20
-66.364
30
0
0
VERTEX
8
Halfen
62
7
10
 511.272
20
 75.335
30
0
0
VERTEX
8
Halfen
62
7
10
 509.438
20
 77.482
30
0
0
VERTEX
8
Halfen
62
7
10
 507.962
20
 79.891
30
0
0
VERTEX
8
Halfen
62
7
10
 506.881
20
 82.5
30
0
0
VERTEX
8
Halfen
62
7
10
 506.222
20
 85.247
30
0
0
VERTEX
8
Halfen
62
7
10
 506
20
 88.062
30
0
0
VERTEX
8
Halfen
62
7
10
 506
20
 459.026
30
0
0
VERTEX
8
Halfen
62
7
10
 500
20
 459.026
30
0
0
VERTEX
8
Halfen
62
7
10
 500
20
 88.062
30
0
0
VERTEX
8
Halfen
62
7
10
 500.295
20
 84.308
30
0
0
VERTEX
8
Halfen
62
7
10
 501.175
20
 80.646
30
0
0
VERTEX
8
Halfen
62
7
10
 502.616
20
 77.167
30
0
0
VERTEX
8
Halfen
62
7
10
 504.584
20
 73.956
30
0
0
VERTEX
8
Halfen
62
7
10
 507.029
20
 71.092
30
0
0
VERTEX
8
Halfen
62
7
10
 648.728
20
-70.607
30
0
0
VERTEX
8
Halfen
62
7
10
 650.562
20
-72.754
30
0
0
VERTEX
8
Halfen
62
7
10
 652.038
20
-75.163
30
0
0
VERTEX
8
Halfen
62
7
10
 653.119
20
-77.772
30
0
0
VERTEX
8
Halfen
62
7
10
 653.778
20
-80.519
30
0
0
VERTEX
8
Halfen
62
7
10
 654
20
-83.335
30
0
0
VERTEX
8
Halfen
62
7
10
 654
20
-454.298
30
0
0
SEQEND
8
Halfen
0
POLYLINE
8
Halfen
62
7
66
1
10
0.0
20
0.0
30
0.0
70
1
0
VERTEX
8
Halfen
62
7
10
 500
20
-459.026
30
0
0
VERTEX
8
Halfen
62
7
10
 500
20
-88.062
30
0
0
VERTEX
8
Halfen
62
7
10
 500.295
20
-84.308
30
0
0
VERTEX
8
Halfen
62
7
10
 501.175
20
-80.646
30
0
0
VERTEX
8
Halfen
62
7
10
 502.616
20
-77.167
30
0
0
VERTEX
8
Halfen
62
7
10
 504.584
20
-73.956
30
0
0
VERTEX
8
Halfen
62
7
10
 507.029
20
-71.092
30
0
0
VERTEX
8
Halfen
62
7
10
 648.728
20
 70.607
30
0
0
VERTEX
8
Halfen
62
7
10
 650.562
20
 72.754
30
0
0
VERTEX
8
Halfen
62
7
10
 652.038
20
 75.163
30
0
0
VERTEX
8
Halfen
62
7
10
 653.119
20
 77.772
30
0
0
VERTEX
8
Halfen
62
7
10
 653.778
20
 80.519
30
0
0
VERTEX
8
Halfen
62
7
10
 654
20
 83.335
30
0
0
VERTEX
8
Halfen
62
7
10
 654
20
 454.298
30
0
0
VERTEX
8
Halfen
62
7
10
 660
20
 454.298
30
0
0
VERTEX
8
Halfen
62
7
10
 660
20
 83.335
30
0
0
VERTEX
8
Halfen
62
7
10
 659.705
20
 79.58
30
0
0
VERTEX
8
Halfen
62
7
10
 658.825
20
 75.918
30
0
0
VERTEX
8
Halfen
62
7
10
 657.384
20
 72.439
30
0
0
VERTEX
8
Halfen
62
7
10
 655.416
20
 69.228
30
0
0
VERTEX
8
Halfen
62
7
10
 652.971
20
 66.364
30
0
0
VERTEX
8
Halfen
62
7
10
 511.272
20
-75.334
30
0
0
VERTEX
8
Halfen
62
7
10
 509.438
20
-77.482
30
0
0
VERTEX
8
Halfen
62
7
10
 507.962
20
-79.891
30
0
0
VERTEX
8
Halfen
62
7
10
 506.881
20
-82.5
30
0
0
VERTEX
8
Halfen
62
7
10
 506.222
20
-85.247
30
0
0
VERTEX
8
Halfen
62
7
10
 506
20
-88.062
30
0
0
VERTEX
8
Halfen
62
7
10
 506
20
-459.026
30
0
0
SEQEND
8
Halfen
0
ENDSEC
0
EOF
