0
SECTION
2
HEADER
9
$EXTMIN
10
 0
20
 100
30
0.0
9
$EXTMAX
10
 0
20
 100
30
0.0
9
$LIMMIN
10
 100
20
 0
9
$LIMMAX
10
 0
20
 100
9
$PSLTSCALE
70
1
0
ENDSEC
0
SECTION
2
TABLES
0
TABLE
2
LAYER
70
2
0
LAYER
2
0
70
0
62
7
6
CONTINUOUS
0
LAYER
2
Halfen
70
0
62
7
6
CONTINUOUS
0
ENDTAB
0
ENDSEC
0
SECTION
2
ENTITIES
0
POLYLINE
8
Halfen
62
7
66
1
10
0.0
20
0.0
30
0.0
70
1
0
VERTEX
8
Halfen
62
7
10
 0
20
-73.5
30
0
0
VERTEX
8
Halfen
62
7
10
 250
20
-73.5
30
0
0
VERTEX
8
Halfen
62
7
10
 250
20
 73.5
30
0
0
VERTEX
8
Halfen
62
7
10
 0
20
 73.5
30
0
0
SEQEND
8
Halfen
0
POLYLINE
8
Halfen
62
7
66
1
10
0.0
20
0.0
30
0.0
70
1
0
VERTEX
8
Halfen
62
7
10
 0
20
-60
30
0
0
VERTEX
8
Halfen
62
7
10
 250
20
-60
30
0
0
VERTEX
8
Halfen
62
7
10
 250
20
 60
30
0
0
VERTEX
8
Halfen
62
7
10
 0
20
 60
30
0
0
SEQEND
8
Halfen
0
POLYLINE
8
Halfen
62
7
66
1
10
0.0
20
0.0
30
0.0
70
1
0
VERTEX
8
Halfen
62
7
10
 20
20
-32.5
30
0
0
VERTEX
8
Halfen
62
7
10
 37
20
-1.5
30
0
0
VERTEX
8
Halfen
62
7
10
 28
20
-1.5
30
0
0
VERTEX
8
Halfen
62
7
10
 28
20
 32.5
30
0
0
VERTEX
8
Halfen
62
7
10
 12
20
 32.5
30
0
0
VERTEX
8
Halfen
62
7
10
 12
20
-1.5
30
0
0
VERTEX
8
Halfen
62
7
10
 3
20
-1.5
30
0
0
SEQEND
8
Halfen
0
POLYLINE
8
Halfen
62
7
66
1
10
0.0
20
0.0
30
0.0
70
1
0
VERTEX
8
Halfen
62
7
10
 230
20
-32.5
30
0
0
VERTEX
8
Halfen
62
7
10
 247
20
-1.5
30
0
0
VERTEX
8
Halfen
62
7
10
 238
20
-1.5
30
0
0
VERTEX
8
Halfen
62
7
10
 238
20
 32.5
30
0
0
VERTEX
8
Halfen
62
7
10
 222
20
 32.5
30
0
0
VERTEX
8
Halfen
62
7
10
 222
20
-1.5
30
0
0
VERTEX
8
Halfen
62
7
10
 213
20
-1.5
30
0
0
SEQEND
8
Halfen
0
POLYLINE
8
Halfen
62
7
66
1
10
0.0
20
0.0
30
0.0
70
1
0
VERTEX
8
Halfen
62
7
10
 68
20
-775
30
0
0
VERTEX
8
Halfen
62
7
10
 68
20
-160
30
0
0
VERTEX
8
Halfen
62
7
10
 56
20
-160
30
0
0
VERTEX
8
Halfen
62
7
10
 56
20
-775
30
0
0
SEQEND
8
Halfen
0
POLYLINE
8
Halfen
62
7
66
1
10
0.0
20
0.0
30
0.0
70
1
0
VERTEX
8
Halfen
62
7
10
 67.25
20
-160
30
0
0
VERTEX
8
Halfen
62
7
10
 67.25
20
-62
30
0
0
VERTEX
8
Halfen
62
7
10
 56.75
20
-62
30
0
0
VERTEX
8
Halfen
62
7
10
 56.75
20
-160
30
0
0
SEQEND
8
Halfen
0
POLYLINE
8
Halfen
62
7
66
1
10
0.0
20
0.0
30
0.0
70
1
0
VERTEX
8
Halfen
62
7
10
 68
20
-62
30
0
0
VERTEX
8
Halfen
62
7
10
 68
20
-60
30
0
0
VERTEX
8
Halfen
62
7
10
 56
20
-60
30
0
0
VERTEX
8
Halfen
62
7
10
 56
20
-62
30
0
0
SEQEND
8
Halfen
0
POLYLINE
8
Halfen
62
7
66
1
10
0.0
20
0.0
30
0.0
70
1
0
VERTEX
8
Halfen
62
7
10
 67.25
20
-60
30
0
0
VERTEX
8
Halfen
62
7
10
 67.25
20
 60
30
0
0
VERTEX
8
Halfen
62
7
10
 56.75
20
 60
30
0
0
VERTEX
8
Halfen
62
7
10
 56.75
20
-60
30
0
0
SEQEND
8
Halfen
0
POLYLINE
8
Halfen
62
7
66
1
10
0.0
20
0.0
30
0.0
70
1
0
VERTEX
8
Halfen
62
7
10
 68
20
 60
30
0
0
VERTEX
8
Halfen
62
7
10
 68
20
 62
30
0
0
VERTEX
8
Halfen
62
7
10
 56
20
 62
30
0
0
VERTEX
8
Halfen
62
7
10
 56
20
 60
30
0
0
SEQEND
8
Halfen
0
POLYLINE
8
Halfen
62
7
66
1
10
0.0
20
0.0
30
0.0
70
1
0
VERTEX
8
Halfen
62
7
10
 67.25
20
 62
30
0
0
VERTEX
8
Halfen
62
7
10
 67.25
20
 160
30
0
0
VERTEX
8
Halfen
62
7
10
 56.75
20
 160
30
0
0
VERTEX
8
Halfen
62
7
10
 56.75
20
 62
30
0
0
SEQEND
8
Halfen
0
POLYLINE
8
Halfen
62
7
66
1
10
0.0
20
0.0
30
0.0
70
1
0
VERTEX
8
Halfen
62
7
10
 68
20
 160
30
0
0
VERTEX
8
Halfen
62
7
10
 68
20
 775
30
0
0
VERTEX
8
Halfen
62
7
10
 56
20
 775
30
0
0
VERTEX
8
Halfen
62
7
10
 56
20
 160
30
0
0
SEQEND
8
Halfen
0
POLYLINE
8
Halfen
62
7
66
1
10
0.0
20
0.0
30
0.0
70
1
0
VERTEX
8
Halfen
62
7
10
 152
20
-775
30
0
0
VERTEX
8
Halfen
62
7
10
 152
20
-160
30
0
0
VERTEX
8
Halfen
62
7
10
 140
20
-160
30
0
0
VERTEX
8
Halfen
62
7
10
 140
20
-775
30
0
0
SEQEND
8
Halfen
0
POLYLINE
8
Halfen
62
7
66
1
10
0.0
20
0.0
30
0.0
70
1
0
VERTEX
8
Halfen
62
7
10
 151.25
20
-160
30
0
0
VERTEX
8
Halfen
62
7
10
 151.25
20
-62
30
0
0
VERTEX
8
Halfen
62
7
10
 140.75
20
-62
30
0
0
VERTEX
8
Halfen
62
7
10
 140.75
20
-160
30
0
0
SEQEND
8
Halfen
0
POLYLINE
8
Halfen
62
7
66
1
10
0.0
20
0.0
30
0.0
70
1
0
VERTEX
8
Halfen
62
7
10
 152
20
-62
30
0
0
VERTEX
8
Halfen
62
7
10
 152
20
-60
30
0
0
VERTEX
8
Halfen
62
7
10
 140
20
-60
30
0
0
VERTEX
8
Halfen
62
7
10
 140
20
-62
30
0
0
SEQEND
8
Halfen
0
POLYLINE
8
Halfen
62
7
66
1
10
0.0
20
0.0
30
0.0
70
1
0
VERTEX
8
Halfen
62
7
10
 151.25
20
-60
30
0
0
VERTEX
8
Halfen
62
7
10
 151.25
20
 60
30
0
0
VERTEX
8
Halfen
62
7
10
 140.75
20
 60
30
0
0
VERTEX
8
Halfen
62
7
10
 140.75
20
-60
30
0
0
SEQEND
8
Halfen
0
POLYLINE
8
Halfen
62
7
66
1
10
0.0
20
0.0
30
0.0
70
1
0
VERTEX
8
Halfen
62
7
10
 152
20
 60
30
0
0
VERTEX
8
Halfen
62
7
10
 152
20
 62
30
0
0
VERTEX
8
Halfen
62
7
10
 140
20
 62
30
0
0
VERTEX
8
Halfen
62
7
10
 140
20
 60
30
0
0
SEQEND
8
Halfen
0
POLYLINE
8
Halfen
62
7
66
1
10
0.0
20
0.0
30
0.0
70
1
0
VERTEX
8
Halfen
62
7
10
 151.25
20
 62
30
0
0
VERTEX
8
Halfen
62
7
10
 151.25
20
 160
30
0
0
VERTEX
8
Halfen
62
7
10
 140.75
20
 160
30
0
0
VERTEX
8
Halfen
62
7
10
 140.75
20
 62
30
0
0
SEQEND
8
Halfen
0
POLYLINE
8
Halfen
62
7
66
1
10
0.0
20
0.0
30
0.0
70
1
0
VERTEX
8
Halfen
62
7
10
 152
20
 160
30
0
0
VERTEX
8
Halfen
62
7
10
 152
20
 775
30
0
0
VERTEX
8
Halfen
62
7
10
 140
20
 775
30
0
0
VERTEX
8
Halfen
62
7
10
 140
20
 160
30
0
0
SEQEND
8
Halfen
0
POLYLINE
8
Halfen
62
7
66
1
10
0.0
20
0.0
30
0.0
70
1
0
VERTEX
8
Halfen
62
7
10
 98
20
-579.398
30
0
0
VERTEX
8
Halfen
62
7
10
 98
20
 592.368
30
0
0
VERTEX
8
Halfen
62
7
10
 90
20
 592.368
30
0
0
VERTEX
8
Halfen
62
7
10
 90
20
-579.398
30
0
0
SEQEND
8
Halfen
0
POLYLINE
8
Halfen
62
7
66
1
10
0.0
20
0.0
30
0.0
70
1
0
VERTEX
8
Halfen
62
7
10
 106
20
-592.368
30
0
0
VERTEX
8
Halfen
62
7
10
 106
20
 579.398
30
0
0
VERTEX
8
Halfen
62
7
10
 98
20
 579.398
30
0
0
VERTEX
8
Halfen
62
7
10
 98
20
-592.368
30
0
0
SEQEND
8
Halfen
0
POLYLINE
8
Halfen
62
7
66
1
10
0.0
20
0.0
30
0.0
70
1
0
VERTEX
8
Halfen
62
7
10
 690
20
-60
30
0
0
VERTEX
8
Halfen
62
7
10
 690
20
 60
30
0
0
VERTEX
8
Halfen
62
7
10
 676.5
20
 73.5
30
0
0
VERTEX
8
Halfen
62
7
10
 676.5
20
 60
30
0
0
VERTEX
8
Halfen
62
7
10
 500
20
 60
30
0
0
VERTEX
8
Halfen
62
7
10
 500
20
-60
30
0
0
VERTEX
8
Halfen
62
7
10
 676.5
20
-60
30
0
0
VERTEX
8
Halfen
62
7
10
 676.5
20
-73.5
30
0
0
SEQEND
8
Halfen
0
POLYLINE
8
Halfen
62
7
66
1
10
0.0
20
0.0
30
0.0
70
1
0
VERTEX
8
Halfen
62
7
10
 500
20
-60
30
0
0
VERTEX
8
Halfen
62
7
10
 500
20
 60
30
0
0
VERTEX
8
Halfen
62
7
10
 463.5
20
 60
30
0
0
VERTEX
8
Halfen
62
7
10
 463.5
20
 73.5
30
0
0
VERTEX
8
Halfen
62
7
10
 450
20
 60
30
0
0
VERTEX
8
Halfen
62
7
10
 450
20
-60
30
0
0
VERTEX
8
Halfen
62
7
10
 463.5
20
-73.5
30
0
0
VERTEX
8
Halfen
62
7
10
 463.5
20
-60
30
0
0
SEQEND
8
Halfen
0
POLYLINE
8
Halfen
62
7
66
1
10
0.0
20
0.0
30
0.0
70
1
0
VERTEX
8
Halfen
62
7
10
 687.5
20
-58.75
30
0
0
VERTEX
8
Halfen
62
7
10
 687.5
20
 58.75
30
0
0
VERTEX
8
Halfen
62
7
10
 679
20
 67.25
30
0
0
VERTEX
8
Halfen
62
7
10
 679
20
 58
30
0
0
VERTEX
8
Halfen
62
7
10
 502
20
 58
30
0
0
VERTEX
8
Halfen
62
7
10
 502
20
-58
30
0
0
VERTEX
8
Halfen
62
7
10
 679
20
-58
30
0
0
VERTEX
8
Halfen
62
7
10
 679
20
-67.25
30
0
0
SEQEND
8
Halfen
0
POLYLINE
8
Halfen
62
7
66
1
10
0.0
20
0.0
30
0.0
70
1
0
VERTEX
8
Halfen
62
7
10
 498
20
-58
30
0
0
VERTEX
8
Halfen
62
7
10
 498
20
 58
30
0
0
VERTEX
8
Halfen
62
7
10
 461
20
 58
30
0
0
VERTEX
8
Halfen
62
7
10
 461
20
 67.25
30
0
0
VERTEX
8
Halfen
62
7
10
 452.5
20
 58.75
30
0
0
VERTEX
8
Halfen
62
7
10
 452.5
20
-58.75
30
0
0
VERTEX
8
Halfen
62
7
10
 461
20
-67.25
30
0
0
VERTEX
8
Halfen
62
7
10
 461
20
-58
30
0
0
SEQEND
8
Halfen
0
POLYLINE
8
Halfen
62
7
66
1
10
0.0
20
0.0
30
0.0
70
1
0
VERTEX
8
Halfen
62
7
10
 492
20
-775
30
0
0
VERTEX
8
Halfen
62
7
10
 492
20
-160
30
0
0
VERTEX
8
Halfen
62
7
10
 480
20
-160
30
0
0
VERTEX
8
Halfen
62
7
10
 480
20
-775
30
0
0
SEQEND
8
Halfen
0
POLYLINE
8
Halfen
62
7
66
1
10
0.0
20
0.0
30
0.0
70
1
0
VERTEX
8
Halfen
62
7
10
 491.25
20
-160
30
0
0
VERTEX
8
Halfen
62
7
10
 491.25
20
-62
30
0
0
VERTEX
8
Halfen
62
7
10
 480.75
20
-62
30
0
0
VERTEX
8
Halfen
62
7
10
 480.75
20
-160
30
0
0
SEQEND
8
Halfen
0
POLYLINE
8
Halfen
62
7
66
1
10
0.0
20
0.0
30
0.0
70
1
0
VERTEX
8
Halfen
62
7
10
 492
20
-62
30
0
0
VERTEX
8
Halfen
62
7
10
 492
20
-60
30
0
0
VERTEX
8
Halfen
62
7
10
 480
20
-60
30
0
0
VERTEX
8
Halfen
62
7
10
 480
20
-62
30
0
0
SEQEND
8
Halfen
0
POLYLINE
8
Halfen
62
7
66
1
10
0.0
20
0.0
30
0.0
70
1
0
VERTEX
8
Halfen
62
7
10
 491.25
20
-60
30
0
0
VERTEX
8
Halfen
62
7
10
 491.25
20
 60
30
0
0
VERTEX
8
Halfen
62
7
10
 480.75
20
 60
30
0
0
VERTEX
8
Halfen
62
7
10
 480.75
20
-60
30
0
0
SEQEND
8
Halfen
0
POLYLINE
8
Halfen
62
7
66
1
10
0.0
20
0.0
30
0.0
70
1
0
VERTEX
8
Halfen
62
7
10
 492
20
 60
30
0
0
VERTEX
8
Halfen
62
7
10
 492
20
 62
30
0
0
VERTEX
8
Halfen
62
7
10
 480
20
 62
30
0
0
VERTEX
8
Halfen
62
7
10
 480
20
 60
30
0
0
SEQEND
8
Halfen
0
POLYLINE
8
Halfen
62
7
66
1
10
0.0
20
0.0
30
0.0
70
1
0
VERTEX
8
Halfen
62
7
10
 491.25
20
 62
30
0
0
VERTEX
8
Halfen
62
7
10
 491.25
20
 160
30
0
0
VERTEX
8
Halfen
62
7
10
 480.75
20
 160
30
0
0
VERTEX
8
Halfen
62
7
10
 480.75
20
 62
30
0
0
SEQEND
8
Halfen
0
POLYLINE
8
Halfen
62
7
66
1
10
0.0
20
0.0
30
0.0
70
1
0
VERTEX
8
Halfen
62
7
10
 492
20
 160
30
0
0
VERTEX
8
Halfen
62
7
10
 492
20
 775
30
0
0
VERTEX
8
Halfen
62
7
10
 480
20
 775
30
0
0
VERTEX
8
Halfen
62
7
10
 480
20
 160
30
0
0
SEQEND
8
Halfen
0
POLYLINE
8
Halfen
62
7
66
1
10
0.0
20
0.0
30
0.0
70
1
0
VERTEX
8
Halfen
62
7
10
 660
20
-775
30
0
0
VERTEX
8
Halfen
62
7
10
 660
20
-160
30
0
0
VERTEX
8
Halfen
62
7
10
 648
20
-160
30
0
0
VERTEX
8
Halfen
62
7
10
 648
20
-775
30
0
0
SEQEND
8
Halfen
0
POLYLINE
8
Halfen
62
7
66
1
10
0.0
20
0.0
30
0.0
70
1
0
VERTEX
8
Halfen
62
7
10
 659.25
20
-160
30
0
0
VERTEX
8
Halfen
62
7
10
 659.25
20
-62
30
0
0
VERTEX
8
Halfen
62
7
10
 648.75
20
-62
30
0
0
VERTEX
8
Halfen
62
7
10
 648.75
20
-160
30
0
0
SEQEND
8
Halfen
0
POLYLINE
8
Halfen
62
7
66
1
10
0.0
20
0.0
30
0.0
70
1
0
VERTEX
8
Halfen
62
7
10
 660
20
-62
30
0
0
VERTEX
8
Halfen
62
7
10
 660
20
-60
30
0
0
VERTEX
8
Halfen
62
7
10
 648
20
-60
30
0
0
VERTEX
8
Halfen
62
7
10
 648
20
-62
30
0
0
SEQEND
8
Halfen
0
POLYLINE
8
Halfen
62
7
66
1
10
0.0
20
0.0
30
0.0
70
1
0
VERTEX
8
Halfen
62
7
10
 659.25
20
-60
30
0
0
VERTEX
8
Halfen
62
7
10
 659.25
20
 60
30
0
0
VERTEX
8
Halfen
62
7
10
 648.75
20
 60
30
0
0
VERTEX
8
Halfen
62
7
10
 648.75
20
-60
30
0
0
SEQEND
8
Halfen
0
POLYLINE
8
Halfen
62
7
66
1
10
0.0
20
0.0
30
0.0
70
1
0
VERTEX
8
Halfen
62
7
10
 660
20
 60
30
0
0
VERTEX
8
Halfen
62
7
10
 660
20
 62
30
0
0
VERTEX
8
Halfen
62
7
10
 648
20
 62
30
0
0
VERTEX
8
Halfen
62
7
10
 648
20
 60
30
0
0
SEQEND
8
Halfen
0
POLYLINE
8
Halfen
62
7
66
1
10
0.0
20
0.0
30
0.0
70
1
0
VERTEX
8
Halfen
62
7
10
 659.25
20
 62
30
0
0
VERTEX
8
Halfen
62
7
10
 659.25
20
 160
30
0
0
VERTEX
8
Halfen
62
7
10
 648.75
20
 160
30
0
0
VERTEX
8
Halfen
62
7
10
 648.75
20
 62
30
0
0
SEQEND
8
Halfen
0
POLYLINE
8
Halfen
62
7
66
1
10
0.0
20
0.0
30
0.0
70
1
0
VERTEX
8
Halfen
62
7
10
 660
20
 160
30
0
0
VERTEX
8
Halfen
62
7
10
 660
20
 775
30
0
0
VERTEX
8
Halfen
62
7
10
 648
20
 775
30
0
0
VERTEX
8
Halfen
62
7
10
 648
20
 160
30
0
0
SEQEND
8
Halfen
0
POLYLINE
8
Halfen
62
7
66
1
10
0.0
20
0.0
30
0.0
70
1
0
VERTEX
8
Halfen
62
7
10
 660
20
-579.398
30
0
0
VERTEX
8
Halfen
62
7
10
 660
20
-91.113
30
0
0
VERTEX
8
Halfen
62
7
10
 659.606
20
-86.107
30
0
0
VERTEX
8
Halfen
62
7
10
 658.434
20
-81.224
30
0
0
VERTEX
8
Halfen
62
7
10
 656.512
20
-76.585
30
0
0
VERTEX
8
Halfen
62
7
10
 653.889
20
-72.304
30
0
0
VERTEX
8
Halfen
62
7
10
 650.627
20
-68.485
30
0
0
VERTEX
8
Halfen
62
7
10
 495.029
20
 87.113
30
0
0
VERTEX
8
Halfen
62
7
10
 492.584
20
 89.976
30
0
0
VERTEX
8
Halfen
62
7
10
 490.616
20
 93.187
30
0
0
VERTEX
8
Halfen
62
7
10
 489.175
20
 96.667
30
0
0
VERTEX
8
Halfen
62
7
10
 488.295
20
 100.329
30
0
0
VERTEX
8
Halfen
62
7
10
 488
20
 104.083
30
0
0
VERTEX
8
Halfen
62
7
10
 488
20
 592.368
30
0
0
VERTEX
8
Halfen
62
7
10
 480
20
 592.368
30
0
0
VERTEX
8
Halfen
62
7
10
 480
20
 104.083
30
0
0
VERTEX
8
Halfen
62
7
10
 480.394
20
 99.077
30
0
0
VERTEX
8
Halfen
62
7
10
 481.566
20
 94.195
30
0
0
VERTEX
8
Halfen
62
7
10
 483.488
20
 89.556
30
0
0
VERTEX
8
Halfen
62
7
10
 486.111
20
 85.274
30
0
0
VERTEX
8
Halfen
62
7
10
 489.373
20
 81.456
30
0
0
VERTEX
8
Halfen
62
7
10
 644.971
20
-74.142
30
0
0
VERTEX
8
Halfen
62
7
10
 647.416
20
-77.006
30
0
0
VERTEX
8
Halfen
62
7
10
 649.384
20
-80.217
30
0
0
VERTEX
8
Halfen
62
7
10
 650.825
20
-83.696
30
0
0
VERTEX
8
Halfen
62
7
10
 651.705
20
-87.358
30
0
0
VERTEX
8
Halfen
62
7
10
 652
20
-91.113
30
0
0
VERTEX
8
Halfen
62
7
10
 652
20
-579.398
30
0
0
SEQEND
8
Halfen
0
POLYLINE
8
Halfen
62
7
66
1
10
0.0
20
0.0
30
0.0
70
1
0
VERTEX
8
Halfen
62
7
10
 480
20
-592.368
30
0
0
VERTEX
8
Halfen
62
7
10
 480
20
-104.083
30
0
0
VERTEX
8
Halfen
62
7
10
 480.394
20
-99.077
30
0
0
VERTEX
8
Halfen
62
7
10
 481.566
20
-94.195
30
0
0
VERTEX
8
Halfen
62
7
10
 483.488
20
-89.556
30
0
0
VERTEX
8
Halfen
62
7
10
 486.111
20
-85.274
30
0
0
VERTEX
8
Halfen
62
7
10
 489.373
20
-81.456
30
0
0
VERTEX
8
Halfen
62
7
10
 644.971
20
 74.142
30
0
0
VERTEX
8
Halfen
62
7
10
 647.416
20
 77.006
30
0
0
VERTEX
8
Halfen
62
7
10
 649.384
20
 80.217
30
0
0
VERTEX
8
Halfen
62
7
10
 650.825
20
 83.696
30
0
0
VERTEX
8
Halfen
62
7
10
 651.705
20
 87.358
30
0
0
VERTEX
8
Halfen
62
7
10
 652
20
 91.113
30
0
0
VERTEX
8
Halfen
62
7
10
 652
20
 579.398
30
0
0
VERTEX
8
Halfen
62
7
10
 660
20
 579.398
30
0
0
VERTEX
8
Halfen
62
7
10
 660
20
 91.113
30
0
0
VERTEX
8
Halfen
62
7
10
 659.606
20
 86.107
30
0
0
VERTEX
8
Halfen
62
7
10
 658.434
20
 81.224
30
0
0
VERTEX
8
Halfen
62
7
10
 656.512
20
 76.585
30
0
0
VERTEX
8
Halfen
62
7
10
 653.889
20
 72.304
30
0
0
VERTEX
8
Halfen
62
7
10
 650.627
20
 68.485
30
0
0
VERTEX
8
Halfen
62
7
10
 495.029
20
-87.113
30
0
0
VERTEX
8
Halfen
62
7
10
 492.584
20
-89.976
30
0
0
VERTEX
8
Halfen
62
7
10
 490.616
20
-93.187
30
0
0
VERTEX
8
Halfen
62
7
10
 489.175
20
-96.667
30
0
0
VERTEX
8
Halfen
62
7
10
 488.295
20
-100.329
30
0
0
VERTEX
8
Halfen
62
7
10
 488
20
-104.083
30
0
0
VERTEX
8
Halfen
62
7
10
 488
20
-592.368
30
0
0
SEQEND
8
Halfen
0
ENDSEC
0
EOF
