0
SECTION
2
HEADER
9
$EXTMIN
10
 0
20
 100
30
0.0
9
$EXTMAX
10
 0
20
 100
30
0.0
9
$LIMMIN
10
 100
20
 0
9
$LIMMAX
10
 0
20
 100
9
$PSLTSCALE
70
1
0
ENDSEC
0
SECTION
2
TABLES
0
TABLE
2
LAYER
70
2
0
LAYER
2
0
70
0
62
7
6
CONTINUOUS
0
LAYER
2
Halfen
70
0
62
7
6
CONTINUOUS
0
ENDTAB
0
ENDSEC
0
SECTION
2
ENTITIES
0
POLYLINE
8
Halfen
62
7
66
1
10
0.0
20
0.0
30
0.0
70
1
0
VERTEX
8
Halfen
62
7
10
 0
20
-73.5
30
0
0
VERTEX
8
Halfen
62
7
10
 250
20
-73.5
30
0
0
VERTEX
8
Halfen
62
7
10
 250
20
 73.5
30
0
0
VERTEX
8
Halfen
62
7
10
 0
20
 73.5
30
0
0
SEQEND
8
Halfen
0
POLYLINE
8
Halfen
62
7
66
1
10
0.0
20
0.0
30
0.0
70
1
0
VERTEX
8
Halfen
62
7
10
 0
20
-60
30
0
0
VERTEX
8
Halfen
62
7
10
 250
20
-60
30
0
0
VERTEX
8
Halfen
62
7
10
 250
20
 60
30
0
0
VERTEX
8
Halfen
62
7
10
 0
20
 60
30
0
0
SEQEND
8
Halfen
0
POLYLINE
8
Halfen
62
7
66
1
10
0.0
20
0.0
30
0.0
70
1
0
VERTEX
8
Halfen
62
7
10
 20
20
-32.5
30
0
0
VERTEX
8
Halfen
62
7
10
 37
20
-1.5
30
0
0
VERTEX
8
Halfen
62
7
10
 28
20
-1.5
30
0
0
VERTEX
8
Halfen
62
7
10
 28
20
 32.5
30
0
0
VERTEX
8
Halfen
62
7
10
 12
20
 32.5
30
0
0
VERTEX
8
Halfen
62
7
10
 12
20
-1.5
30
0
0
VERTEX
8
Halfen
62
7
10
 3
20
-1.5
30
0
0
SEQEND
8
Halfen
0
POLYLINE
8
Halfen
62
7
66
1
10
0.0
20
0.0
30
0.0
70
1
0
VERTEX
8
Halfen
62
7
10
 230
20
-32.5
30
0
0
VERTEX
8
Halfen
62
7
10
 247
20
-1.5
30
0
0
VERTEX
8
Halfen
62
7
10
 238
20
-1.5
30
0
0
VERTEX
8
Halfen
62
7
10
 238
20
 32.5
30
0
0
VERTEX
8
Halfen
62
7
10
 222
20
 32.5
30
0
0
VERTEX
8
Halfen
62
7
10
 222
20
-1.5
30
0
0
VERTEX
8
Halfen
62
7
10
 213
20
-1.5
30
0
0
SEQEND
8
Halfen
0
POLYLINE
8
Halfen
62
7
66
1
10
0.0
20
0.0
30
0.0
70
1
0
VERTEX
8
Halfen
62
7
10
 68
20
-775
30
0
0
VERTEX
8
Halfen
62
7
10
 68
20
-160
30
0
0
VERTEX
8
Halfen
62
7
10
 56
20
-160
30
0
0
VERTEX
8
Halfen
62
7
10
 56
20
-775
30
0
0
SEQEND
8
Halfen
0
POLYLINE
8
Halfen
62
7
66
1
10
0.0
20
0.0
30
0.0
70
1
0
VERTEX
8
Halfen
62
7
10
 67.25
20
-160
30
0
0
VERTEX
8
Halfen
62
7
10
 67.25
20
-62
30
0
0
VERTEX
8
Halfen
62
7
10
 56.75
20
-62
30
0
0
VERTEX
8
Halfen
62
7
10
 56.75
20
-160
30
0
0
SEQEND
8
Halfen
0
POLYLINE
8
Halfen
62
7
66
1
10
0.0
20
0.0
30
0.0
70
1
0
VERTEX
8
Halfen
62
7
10
 68
20
-62
30
0
0
VERTEX
8
Halfen
62
7
10
 68
20
-60
30
0
0
VERTEX
8
Halfen
62
7
10
 56
20
-60
30
0
0
VERTEX
8
Halfen
62
7
10
 56
20
-62
30
0
0
SEQEND
8
Halfen
0
POLYLINE
8
Halfen
62
7
66
1
10
0.0
20
0.0
30
0.0
70
1
0
VERTEX
8
Halfen
62
7
10
 67.25
20
-60
30
0
0
VERTEX
8
Halfen
62
7
10
 67.25
20
 60
30
0
0
VERTEX
8
Halfen
62
7
10
 56.75
20
 60
30
0
0
VERTEX
8
Halfen
62
7
10
 56.75
20
-60
30
0
0
SEQEND
8
Halfen
0
POLYLINE
8
Halfen
62
7
66
1
10
0.0
20
0.0
30
0.0
70
1
0
VERTEX
8
Halfen
62
7
10
 68
20
 60
30
0
0
VERTEX
8
Halfen
62
7
10
 68
20
 62
30
0
0
VERTEX
8
Halfen
62
7
10
 56
20
 62
30
0
0
VERTEX
8
Halfen
62
7
10
 56
20
 60
30
0
0
SEQEND
8
Halfen
0
POLYLINE
8
Halfen
62
7
66
1
10
0.0
20
0.0
30
0.0
70
1
0
VERTEX
8
Halfen
62
7
10
 67.25
20
 62
30
0
0
VERTEX
8
Halfen
62
7
10
 67.25
20
 160
30
0
0
VERTEX
8
Halfen
62
7
10
 56.75
20
 160
30
0
0
VERTEX
8
Halfen
62
7
10
 56.75
20
 62
30
0
0
SEQEND
8
Halfen
0
POLYLINE
8
Halfen
62
7
66
1
10
0.0
20
0.0
30
0.0
70
1
0
VERTEX
8
Halfen
62
7
10
 68
20
 160
30
0
0
VERTEX
8
Halfen
62
7
10
 68
20
 775
30
0
0
VERTEX
8
Halfen
62
7
10
 56
20
 775
30
0
0
VERTEX
8
Halfen
62
7
10
 56
20
 160
30
0
0
SEQEND
8
Halfen
0
POLYLINE
8
Halfen
62
7
66
1
10
0.0
20
0.0
30
0.0
70
1
0
VERTEX
8
Halfen
62
7
10
 152
20
-775
30
0
0
VERTEX
8
Halfen
62
7
10
 152
20
-160
30
0
0
VERTEX
8
Halfen
62
7
10
 140
20
-160
30
0
0
VERTEX
8
Halfen
62
7
10
 140
20
-775
30
0
0
SEQEND
8
Halfen
0
POLYLINE
8
Halfen
62
7
66
1
10
0.0
20
0.0
30
0.0
70
1
0
VERTEX
8
Halfen
62
7
10
 151.25
20
-160
30
0
0
VERTEX
8
Halfen
62
7
10
 151.25
20
-62
30
0
0
VERTEX
8
Halfen
62
7
10
 140.75
20
-62
30
0
0
VERTEX
8
Halfen
62
7
10
 140.75
20
-160
30
0
0
SEQEND
8
Halfen
0
POLYLINE
8
Halfen
62
7
66
1
10
0.0
20
0.0
30
0.0
70
1
0
VERTEX
8
Halfen
62
7
10
 152
20
-62
30
0
0
VERTEX
8
Halfen
62
7
10
 152
20
-60
30
0
0
VERTEX
8
Halfen
62
7
10
 140
20
-60
30
0
0
VERTEX
8
Halfen
62
7
10
 140
20
-62
30
0
0
SEQEND
8
Halfen
0
POLYLINE
8
Halfen
62
7
66
1
10
0.0
20
0.0
30
0.0
70
1
0
VERTEX
8
Halfen
62
7
10
 151.25
20
-60
30
0
0
VERTEX
8
Halfen
62
7
10
 151.25
20
 60
30
0
0
VERTEX
8
Halfen
62
7
10
 140.75
20
 60
30
0
0
VERTEX
8
Halfen
62
7
10
 140.75
20
-60
30
0
0
SEQEND
8
Halfen
0
POLYLINE
8
Halfen
62
7
66
1
10
0.0
20
0.0
30
0.0
70
1
0
VERTEX
8
Halfen
62
7
10
 152
20
 60
30
0
0
VERTEX
8
Halfen
62
7
10
 152
20
 62
30
0
0
VERTEX
8
Halfen
62
7
10
 140
20
 62
30
0
0
VERTEX
8
Halfen
62
7
10
 140
20
 60
30
0
0
SEQEND
8
Halfen
0
POLYLINE
8
Halfen
62
7
66
1
10
0.0
20
0.0
30
0.0
70
1
0
VERTEX
8
Halfen
62
7
10
 151.25
20
 62
30
0
0
VERTEX
8
Halfen
62
7
10
 151.25
20
 160
30
0
0
VERTEX
8
Halfen
62
7
10
 140.75
20
 160
30
0
0
VERTEX
8
Halfen
62
7
10
 140.75
20
 62
30
0
0
SEQEND
8
Halfen
0
POLYLINE
8
Halfen
62
7
66
1
10
0.0
20
0.0
30
0.0
70
1
0
VERTEX
8
Halfen
62
7
10
 152
20
 160
30
0
0
VERTEX
8
Halfen
62
7
10
 152
20
 775
30
0
0
VERTEX
8
Halfen
62
7
10
 140
20
 775
30
0
0
VERTEX
8
Halfen
62
7
10
 140
20
 160
30
0
0
SEQEND
8
Halfen
0
POLYLINE
8
Halfen
62
7
66
1
10
0.0
20
0.0
30
0.0
70
1
0
VERTEX
8
Halfen
62
7
10
 98
20
-579.398
30
0
0
VERTEX
8
Halfen
62
7
10
 98
20
 592.368
30
0
0
VERTEX
8
Halfen
62
7
10
 90
20
 592.368
30
0
0
VERTEX
8
Halfen
62
7
10
 90
20
-579.398
30
0
0
SEQEND
8
Halfen
0
POLYLINE
8
Halfen
62
7
66
1
10
0.0
20
0.0
30
0.0
70
1
0
VERTEX
8
Halfen
62
7
10
 106
20
-592.368
30
0
0
VERTEX
8
Halfen
62
7
10
 106
20
 579.398
30
0
0
VERTEX
8
Halfen
62
7
10
 98
20
 579.398
30
0
0
VERTEX
8
Halfen
62
7
10
 98
20
-592.368
30
0
0
SEQEND
8
Halfen
0
POLYLINE
8
Halfen
62
7
66
1
10
0.0
20
0.0
30
0.0
70
1
0
VERTEX
8
Halfen
62
7
10
 710
20
-60
30
0
0
VERTEX
8
Halfen
62
7
10
 710
20
 60
30
0
0
VERTEX
8
Halfen
62
7
10
 696.5
20
 73.5
30
0
0
VERTEX
8
Halfen
62
7
10
 696.5
20
 60
30
0
0
VERTEX
8
Halfen
62
7
10
 500
20
 60
30
0
0
VERTEX
8
Halfen
62
7
10
 500
20
-60
30
0
0
VERTEX
8
Halfen
62
7
10
 696.5
20
-60
30
0
0
VERTEX
8
Halfen
62
7
10
 696.5
20
-73.5
30
0
0
SEQEND
8
Halfen
0
POLYLINE
8
Halfen
62
7
66
1
10
0.0
20
0.0
30
0.0
70
1
0
VERTEX
8
Halfen
62
7
10
 500
20
-60
30
0
0
VERTEX
8
Halfen
62
7
10
 500
20
 60
30
0
0
VERTEX
8
Halfen
62
7
10
 463.5
20
 60
30
0
0
VERTEX
8
Halfen
62
7
10
 463.5
20
 73.5
30
0
0
VERTEX
8
Halfen
62
7
10
 450
20
 60
30
0
0
VERTEX
8
Halfen
62
7
10
 450
20
-60
30
0
0
VERTEX
8
Halfen
62
7
10
 463.5
20
-73.5
30
0
0
VERTEX
8
Halfen
62
7
10
 463.5
20
-60
30
0
0
SEQEND
8
Halfen
0
POLYLINE
8
Halfen
62
7
66
1
10
0.0
20
0.0
30
0.0
70
1
0
VERTEX
8
Halfen
62
7
10
 707.5
20
-58.75
30
0
0
VERTEX
8
Halfen
62
7
10
 707.5
20
 58.75
30
0
0
VERTEX
8
Halfen
62
7
10
 699
20
 67.25
30
0
0
VERTEX
8
Halfen
62
7
10
 699
20
 58
30
0
0
VERTEX
8
Halfen
62
7
10
 502
20
 58
30
0
0
VERTEX
8
Halfen
62
7
10
 502
20
-58
30
0
0
VERTEX
8
Halfen
62
7
10
 699
20
-58
30
0
0
VERTEX
8
Halfen
62
7
10
 699
20
-67.25
30
0
0
SEQEND
8
Halfen
0
POLYLINE
8
Halfen
62
7
66
1
10
0.0
20
0.0
30
0.0
70
1
0
VERTEX
8
Halfen
62
7
10
 498
20
-58
30
0
0
VERTEX
8
Halfen
62
7
10
 498
20
 58
30
0
0
VERTEX
8
Halfen
62
7
10
 461
20
 58
30
0
0
VERTEX
8
Halfen
62
7
10
 461
20
 67.25
30
0
0
VERTEX
8
Halfen
62
7
10
 452.5
20
 58.75
30
0
0
VERTEX
8
Halfen
62
7
10
 452.5
20
-58.75
30
0
0
VERTEX
8
Halfen
62
7
10
 461
20
-67.25
30
0
0
VERTEX
8
Halfen
62
7
10
 461
20
-58
30
0
0
SEQEND
8
Halfen
0
POLYLINE
8
Halfen
62
7
66
1
10
0.0
20
0.0
30
0.0
70
1
0
VERTEX
8
Halfen
62
7
10
 497
20
-775
30
0
0
VERTEX
8
Halfen
62
7
10
 497
20
-160
30
0
0
VERTEX
8
Halfen
62
7
10
 485
20
-160
30
0
0
VERTEX
8
Halfen
62
7
10
 485
20
-775
30
0
0
SEQEND
8
Halfen
0
POLYLINE
8
Halfen
62
7
66
1
10
0.0
20
0.0
30
0.0
70
1
0
VERTEX
8
Halfen
62
7
10
 496.25
20
-160
30
0
0
VERTEX
8
Halfen
62
7
10
 496.25
20
-62
30
0
0
VERTEX
8
Halfen
62
7
10
 485.75
20
-62
30
0
0
VERTEX
8
Halfen
62
7
10
 485.75
20
-160
30
0
0
SEQEND
8
Halfen
0
POLYLINE
8
Halfen
62
7
66
1
10
0.0
20
0.0
30
0.0
70
1
0
VERTEX
8
Halfen
62
7
10
 497
20
-62
30
0
0
VERTEX
8
Halfen
62
7
10
 497
20
-60
30
0
0
VERTEX
8
Halfen
62
7
10
 485
20
-60
30
0
0
VERTEX
8
Halfen
62
7
10
 485
20
-62
30
0
0
SEQEND
8
Halfen
0
POLYLINE
8
Halfen
62
7
66
1
10
0.0
20
0.0
30
0.0
70
1
0
VERTEX
8
Halfen
62
7
10
 496.25
20
-60
30
0
0
VERTEX
8
Halfen
62
7
10
 496.25
20
 60
30
0
0
VERTEX
8
Halfen
62
7
10
 485.75
20
 60
30
0
0
VERTEX
8
Halfen
62
7
10
 485.75
20
-60
30
0
0
SEQEND
8
Halfen
0
POLYLINE
8
Halfen
62
7
66
1
10
0.0
20
0.0
30
0.0
70
1
0
VERTEX
8
Halfen
62
7
10
 497
20
 60
30
0
0
VERTEX
8
Halfen
62
7
10
 497
20
 62
30
0
0
VERTEX
8
Halfen
62
7
10
 485
20
 62
30
0
0
VERTEX
8
Halfen
62
7
10
 485
20
 60
30
0
0
SEQEND
8
Halfen
0
POLYLINE
8
Halfen
62
7
66
1
10
0.0
20
0.0
30
0.0
70
1
0
VERTEX
8
Halfen
62
7
10
 496.25
20
 62
30
0
0
VERTEX
8
Halfen
62
7
10
 496.25
20
 160
30
0
0
VERTEX
8
Halfen
62
7
10
 485.75
20
 160
30
0
0
VERTEX
8
Halfen
62
7
10
 485.75
20
 62
30
0
0
SEQEND
8
Halfen
0
POLYLINE
8
Halfen
62
7
66
1
10
0.0
20
0.0
30
0.0
70
1
0
VERTEX
8
Halfen
62
7
10
 497
20
 160
30
0
0
VERTEX
8
Halfen
62
7
10
 497
20
 775
30
0
0
VERTEX
8
Halfen
62
7
10
 485
20
 775
30
0
0
VERTEX
8
Halfen
62
7
10
 485
20
 160
30
0
0
SEQEND
8
Halfen
0
POLYLINE
8
Halfen
62
7
66
1
10
0.0
20
0.0
30
0.0
70
1
0
VERTEX
8
Halfen
62
7
10
 680
20
-775
30
0
0
VERTEX
8
Halfen
62
7
10
 680
20
-160
30
0
0
VERTEX
8
Halfen
62
7
10
 668
20
-160
30
0
0
VERTEX
8
Halfen
62
7
10
 668
20
-775
30
0
0
SEQEND
8
Halfen
0
POLYLINE
8
Halfen
62
7
66
1
10
0.0
20
0.0
30
0.0
70
1
0
VERTEX
8
Halfen
62
7
10
 679.25
20
-160
30
0
0
VERTEX
8
Halfen
62
7
10
 679.25
20
-62
30
0
0
VERTEX
8
Halfen
62
7
10
 668.75
20
-62
30
0
0
VERTEX
8
Halfen
62
7
10
 668.75
20
-160
30
0
0
SEQEND
8
Halfen
0
POLYLINE
8
Halfen
62
7
66
1
10
0.0
20
0.0
30
0.0
70
1
0
VERTEX
8
Halfen
62
7
10
 680
20
-62
30
0
0
VERTEX
8
Halfen
62
7
10
 680
20
-60
30
0
0
VERTEX
8
Halfen
62
7
10
 668
20
-60
30
0
0
VERTEX
8
Halfen
62
7
10
 668
20
-62
30
0
0
SEQEND
8
Halfen
0
POLYLINE
8
Halfen
62
7
66
1
10
0.0
20
0.0
30
0.0
70
1
0
VERTEX
8
Halfen
62
7
10
 679.25
20
-60
30
0
0
VERTEX
8
Halfen
62
7
10
 679.25
20
 60
30
0
0
VERTEX
8
Halfen
62
7
10
 668.75
20
 60
30
0
0
VERTEX
8
Halfen
62
7
10
 668.75
20
-60
30
0
0
SEQEND
8
Halfen
0
POLYLINE
8
Halfen
62
7
66
1
10
0.0
20
0.0
30
0.0
70
1
0
VERTEX
8
Halfen
62
7
10
 680
20
 60
30
0
0
VERTEX
8
Halfen
62
7
10
 680
20
 62
30
0
0
VERTEX
8
Halfen
62
7
10
 668
20
 62
30
0
0
VERTEX
8
Halfen
62
7
10
 668
20
 60
30
0
0
SEQEND
8
Halfen
0
POLYLINE
8
Halfen
62
7
66
1
10
0.0
20
0.0
30
0.0
70
1
0
VERTEX
8
Halfen
62
7
10
 679.25
20
 62
30
0
0
VERTEX
8
Halfen
62
7
10
 679.25
20
 160
30
0
0
VERTEX
8
Halfen
62
7
10
 668.75
20
 160
30
0
0
VERTEX
8
Halfen
62
7
10
 668.75
20
 62
30
0
0
SEQEND
8
Halfen
0
POLYLINE
8
Halfen
62
7
66
1
10
0.0
20
0.0
30
0.0
70
1
0
VERTEX
8
Halfen
62
7
10
 680
20
 160
30
0
0
VERTEX
8
Halfen
62
7
10
 680
20
 775
30
0
0
VERTEX
8
Halfen
62
7
10
 668
20
 775
30
0
0
VERTEX
8
Halfen
62
7
10
 668
20
 160
30
0
0
SEQEND
8
Halfen
0
POLYLINE
8
Halfen
62
7
66
1
10
0.0
20
0.0
30
0.0
70
1
0
VERTEX
8
Halfen
62
7
10
 680
20
-579.398
30
0
0
VERTEX
8
Halfen
62
7
10
 680
20
-91.113
30
0
0
VERTEX
8
Halfen
62
7
10
 679.606
20
-86.107
30
0
0
VERTEX
8
Halfen
62
7
10
 678.434
20
-81.224
30
0
0
VERTEX
8
Halfen
62
7
10
 676.512
20
-76.585
30
0
0
VERTEX
8
Halfen
62
7
10
 673.889
20
-72.304
30
0
0
VERTEX
8
Halfen
62
7
10
 670.627
20
-68.485
30
0
0
VERTEX
8
Halfen
62
7
10
 515.029
20
 87.113
30
0
0
VERTEX
8
Halfen
62
7
10
 512.584
20
 89.976
30
0
0
VERTEX
8
Halfen
62
7
10
 510.616
20
 93.187
30
0
0
VERTEX
8
Halfen
62
7
10
 509.175
20
 96.667
30
0
0
VERTEX
8
Halfen
62
7
10
 508.295
20
 100.329
30
0
0
VERTEX
8
Halfen
62
7
10
 508
20
 104.083
30
0
0
VERTEX
8
Halfen
62
7
10
 508
20
 592.368
30
0
0
VERTEX
8
Halfen
62
7
10
 500
20
 592.368
30
0
0
VERTEX
8
Halfen
62
7
10
 500
20
 104.083
30
0
0
VERTEX
8
Halfen
62
7
10
 500.394
20
 99.077
30
0
0
VERTEX
8
Halfen
62
7
10
 501.566
20
 94.195
30
0
0
VERTEX
8
Halfen
62
7
10
 503.488
20
 89.556
30
0
0
VERTEX
8
Halfen
62
7
10
 506.111
20
 85.274
30
0
0
VERTEX
8
Halfen
62
7
10
 509.373
20
 81.456
30
0
0
VERTEX
8
Halfen
62
7
10
 664.971
20
-74.142
30
0
0
VERTEX
8
Halfen
62
7
10
 667.416
20
-77.006
30
0
0
VERTEX
8
Halfen
62
7
10
 669.384
20
-80.217
30
0
0
VERTEX
8
Halfen
62
7
10
 670.825
20
-83.696
30
0
0
VERTEX
8
Halfen
62
7
10
 671.705
20
-87.358
30
0
0
VERTEX
8
Halfen
62
7
10
 672
20
-91.113
30
0
0
VERTEX
8
Halfen
62
7
10
 672
20
-579.398
30
0
0
SEQEND
8
Halfen
0
POLYLINE
8
Halfen
62
7
66
1
10
0.0
20
0.0
30
0.0
70
1
0
VERTEX
8
Halfen
62
7
10
 500
20
-592.368
30
0
0
VERTEX
8
Halfen
62
7
10
 500
20
-104.083
30
0
0
VERTEX
8
Halfen
62
7
10
 500.394
20
-99.077
30
0
0
VERTEX
8
Halfen
62
7
10
 501.566
20
-94.195
30
0
0
VERTEX
8
Halfen
62
7
10
 503.488
20
-89.556
30
0
0
VERTEX
8
Halfen
62
7
10
 506.111
20
-85.274
30
0
0
VERTEX
8
Halfen
62
7
10
 509.373
20
-81.456
30
0
0
VERTEX
8
Halfen
62
7
10
 664.971
20
 74.142
30
0
0
VERTEX
8
Halfen
62
7
10
 667.416
20
 77.006
30
0
0
VERTEX
8
Halfen
62
7
10
 669.384
20
 80.217
30
0
0
VERTEX
8
Halfen
62
7
10
 670.825
20
 83.696
30
0
0
VERTEX
8
Halfen
62
7
10
 671.705
20
 87.358
30
0
0
VERTEX
8
Halfen
62
7
10
 672
20
 91.113
30
0
0
VERTEX
8
Halfen
62
7
10
 672
20
 579.398
30
0
0
VERTEX
8
Halfen
62
7
10
 680
20
 579.398
30
0
0
VERTEX
8
Halfen
62
7
10
 680
20
 91.113
30
0
0
VERTEX
8
Halfen
62
7
10
 679.606
20
 86.107
30
0
0
VERTEX
8
Halfen
62
7
10
 678.434
20
 81.224
30
0
0
VERTEX
8
Halfen
62
7
10
 676.512
20
 76.585
30
0
0
VERTEX
8
Halfen
62
7
10
 673.889
20
 72.304
30
0
0
VERTEX
8
Halfen
62
7
10
 670.627
20
 68.485
30
0
0
VERTEX
8
Halfen
62
7
10
 515.029
20
-87.113
30
0
0
VERTEX
8
Halfen
62
7
10
 512.584
20
-89.976
30
0
0
VERTEX
8
Halfen
62
7
10
 510.616
20
-93.187
30
0
0
VERTEX
8
Halfen
62
7
10
 509.175
20
-96.667
30
0
0
VERTEX
8
Halfen
62
7
10
 508.295
20
-100.329
30
0
0
VERTEX
8
Halfen
62
7
10
 508
20
-104.083
30
0
0
VERTEX
8
Halfen
62
7
10
 508
20
-592.368
30
0
0
SEQEND
8
Halfen
0
ENDSEC
0
EOF
