0
SECTION
2
HEADER
9
$EXTMIN
10
 0
20
 100
30
0.0
9
$EXTMAX
10
 0
20
 100
30
0.0
9
$LIMMIN
10
 100
20
 0
9
$LIMMAX
10
 0
20
 100
9
$PSLTSCALE
70
1
0
ENDSEC
0
SECTION
2
TABLES
0
TABLE
2
LAYER
70
2
0
LAYER
2
0
70
0
62
7
6
CONTINUOUS
0
LAYER
2
Halfen
70
0
62
7
6
CONTINUOUS
0
ENDTAB
0
ENDSEC
0
SECTION
2
ENTITIES
0
POLYLINE
8
Halfen
62
7
66
1
10
0.0
20
0.0
30
0.0
70
1
0
VERTEX
8
Halfen
62
7
10
 0
20
-73.5
30
0
0
VERTEX
8
Halfen
62
7
10
 1000
20
-73.5
30
0
0
VERTEX
8
Halfen
62
7
10
 1000
20
 73.5
30
0
0
VERTEX
8
Halfen
62
7
10
 0
20
 73.5
30
0
0
SEQEND
8
Halfen
0
POLYLINE
8
Halfen
62
7
66
1
10
0.0
20
0.0
30
0.0
70
1
0
VERTEX
8
Halfen
62
7
10
 0
20
-60
30
0
0
VERTEX
8
Halfen
62
7
10
 1000
20
-60
30
0
0
VERTEX
8
Halfen
62
7
10
 1000
20
 60
30
0
0
VERTEX
8
Halfen
62
7
10
 0
20
 60
30
0
0
SEQEND
8
Halfen
0
POLYLINE
8
Halfen
62
7
66
1
10
0.0
20
0.0
30
0.0
70
1
0
VERTEX
8
Halfen
62
7
10
 20
20
-32.5
30
0
0
VERTEX
8
Halfen
62
7
10
 37
20
-1.5
30
0
0
VERTEX
8
Halfen
62
7
10
 28
20
-1.5
30
0
0
VERTEX
8
Halfen
62
7
10
 28
20
 32.5
30
0
0
VERTEX
8
Halfen
62
7
10
 12
20
 32.5
30
0
0
VERTEX
8
Halfen
62
7
10
 12
20
-1.5
30
0
0
VERTEX
8
Halfen
62
7
10
 3
20
-1.5
30
0
0
SEQEND
8
Halfen
0
POLYLINE
8
Halfen
62
7
66
1
10
0.0
20
0.0
30
0.0
70
1
0
VERTEX
8
Halfen
62
7
10
 980
20
-32.5
30
0
0
VERTEX
8
Halfen
62
7
10
 997
20
-1.5
30
0
0
VERTEX
8
Halfen
62
7
10
 988
20
-1.5
30
0
0
VERTEX
8
Halfen
62
7
10
 988
20
 32.5
30
0
0
VERTEX
8
Halfen
62
7
10
 972
20
 32.5
30
0
0
VERTEX
8
Halfen
62
7
10
 972
20
-1.5
30
0
0
VERTEX
8
Halfen
62
7
10
 963
20
-1.5
30
0
0
SEQEND
8
Halfen
0
POLYLINE
8
Halfen
62
7
66
1
10
0.0
20
0.0
30
0.0
70
1
0
VERTEX
8
Halfen
62
7
10
 215
20
-69.3
30
0
0
VERTEX
8
Halfen
62
7
10
 215
20
-56.8
30
0
0
VERTEX
8
Halfen
62
7
10
 215
20
 69.3
30
0
0
VERTEX
8
Halfen
62
7
10
 214.958
20
 70.359
30
0
0
VERTEX
8
Halfen
62
7
10
 214.834
20
 71.412
30
0
0
VERTEX
8
Halfen
62
7
10
 214.627
20
 72.452
30
0
0
VERTEX
8
Halfen
62
7
10
 214.339
20
 73.472
30
0
0
VERTEX
8
Halfen
62
7
10
 213.972
20
 74.466
30
0
0
VERTEX
8
Halfen
62
7
10
 213.529
20
 75.429
30
0
0
VERTEX
8
Halfen
62
7
10
 213.011
20
 76.354
30
0
0
VERTEX
8
Halfen
62
7
10
 212.422
20
 77.235
30
0
0
VERTEX
8
Halfen
62
7
10
 211.765
20
 78.068
30
0
0
VERTEX
8
Halfen
62
7
10
 211.046
20
 78.846
30
0
0
VERTEX
8
Halfen
62
7
10
 210.268
20
 79.565
30
0
0
VERTEX
8
Halfen
62
7
10
 209.435
20
 80.222
30
0
0
VERTEX
8
Halfen
62
7
10
 208.554
20
 80.811
30
0
0
VERTEX
8
Halfen
62
7
10
 207.629
20
 81.329
30
0
0
VERTEX
8
Halfen
62
7
10
 206.666
20
 81.772
30
0
0
VERTEX
8
Halfen
62
7
10
 205.672
20
 82.139
30
0
0
VERTEX
8
Halfen
62
7
10
 204.652
20
 82.427
30
0
0
VERTEX
8
Halfen
62
7
10
 203.612
20
 82.634
30
0
0
VERTEX
8
Halfen
62
7
10
 202.559
20
 82.758
30
0
0
VERTEX
8
Halfen
62
7
10
 201.5
20
 82.8
30
0
0
VERTEX
8
Halfen
62
7
10
 198.5
20
 82.8
30
0
0
VERTEX
8
Halfen
62
7
10
 197.441
20
 82.758
30
0
0
VERTEX
8
Halfen
62
7
10
 196.388
20
 82.634
30
0
0
VERTEX
8
Halfen
62
7
10
 195.348
20
 82.427
30
0
0
VERTEX
8
Halfen
62
7
10
 194.328
20
 82.139
30
0
0
VERTEX
8
Halfen
62
7
10
 193.334
20
 81.772
30
0
0
VERTEX
8
Halfen
62
7
10
 192.371
20
 81.329
30
0
0
VERTEX
8
Halfen
62
7
10
 191.446
20
 80.811
30
0
0
VERTEX
8
Halfen
62
7
10
 190.565
20
 80.222
30
0
0
VERTEX
8
Halfen
62
7
10
 189.732
20
 79.565
30
0
0
VERTEX
8
Halfen
62
7
10
 188.954
20
 78.846
30
0
0
VERTEX
8
Halfen
62
7
10
 188.235
20
 78.068
30
0
0
VERTEX
8
Halfen
62
7
10
 187.578
20
 77.235
30
0
0
VERTEX
8
Halfen
62
7
10
 186.989
20
 76.354
30
0
0
VERTEX
8
Halfen
62
7
10
 186.471
20
 75.429
30
0
0
VERTEX
8
Halfen
62
7
10
 186.028
20
 74.466
30
0
0
VERTEX
8
Halfen
62
7
10
 185.661
20
 73.472
30
0
0
VERTEX
8
Halfen
62
7
10
 185.373
20
 72.452
30
0
0
VERTEX
8
Halfen
62
7
10
 185.166
20
 71.412
30
0
0
VERTEX
8
Halfen
62
7
10
 185.042
20
 70.359
30
0
0
VERTEX
8
Halfen
62
7
10
 185
20
 69.3
30
0
0
VERTEX
8
Halfen
62
7
10
 185
20
-56.8
30
0
0
VERTEX
8
Halfen
62
7
10
 185
20
-69.3
30
0
0
VERTEX
8
Halfen
62
7
10
 185.042
20
-70.359
30
0
0
VERTEX
8
Halfen
62
7
10
 185.166
20
-71.412
30
0
0
VERTEX
8
Halfen
62
7
10
 185.373
20
-72.452
30
0
0
VERTEX
8
Halfen
62
7
10
 185.661
20
-73.472
30
0
0
VERTEX
8
Halfen
62
7
10
 186.028
20
-74.466
30
0
0
VERTEX
8
Halfen
62
7
10
 186.471
20
-75.429
30
0
0
VERTEX
8
Halfen
62
7
10
 186.989
20
-76.354
30
0
0
VERTEX
8
Halfen
62
7
10
 187.578
20
-77.235
30
0
0
VERTEX
8
Halfen
62
7
10
 188.235
20
-78.068
30
0
0
VERTEX
8
Halfen
62
7
10
 188.954
20
-78.846
30
0
0
VERTEX
8
Halfen
62
7
10
 189.732
20
-79.565
30
0
0
VERTEX
8
Halfen
62
7
10
 190.565
20
-80.222
30
0
0
VERTEX
8
Halfen
62
7
10
 191.446
20
-80.811
30
0
0
VERTEX
8
Halfen
62
7
10
 192.371
20
-81.329
30
0
0
VERTEX
8
Halfen
62
7
10
 193.334
20
-81.772
30
0
0
VERTEX
8
Halfen
62
7
10
 194.328
20
-82.139
30
0
0
VERTEX
8
Halfen
62
7
10
 195.348
20
-82.427
30
0
0
VERTEX
8
Halfen
62
7
10
 196.388
20
-82.634
30
0
0
VERTEX
8
Halfen
62
7
10
 197.441
20
-82.758
30
0
0
VERTEX
8
Halfen
62
7
10
 198.5
20
-82.8
30
0
0
VERTEX
8
Halfen
62
7
10
 201.5
20
-82.8
30
0
0
VERTEX
8
Halfen
62
7
10
 202.559
20
-82.758
30
0
0
VERTEX
8
Halfen
62
7
10
 203.612
20
-82.634
30
0
0
VERTEX
8
Halfen
62
7
10
 204.652
20
-82.427
30
0
0
VERTEX
8
Halfen
62
7
10
 205.672
20
-82.139
30
0
0
VERTEX
8
Halfen
62
7
10
 206.666
20
-81.772
30
0
0
VERTEX
8
Halfen
62
7
10
 207.629
20
-81.329
30
0
0
VERTEX
8
Halfen
62
7
10
 208.554
20
-80.811
30
0
0
VERTEX
8
Halfen
62
7
10
 209.435
20
-80.222
30
0
0
VERTEX
8
Halfen
62
7
10
 210.268
20
-79.565
30
0
0
VERTEX
8
Halfen
62
7
10
 211.046
20
-78.846
30
0
0
VERTEX
8
Halfen
62
7
10
 211.765
20
-78.068
30
0
0
VERTEX
8
Halfen
62
7
10
 212.422
20
-77.235
30
0
0
VERTEX
8
Halfen
62
7
10
 213.011
20
-76.354
30
0
0
VERTEX
8
Halfen
62
7
10
 213.529
20
-75.429
30
0
0
VERTEX
8
Halfen
62
7
10
 213.972
20
-74.466
30
0
0
VERTEX
8
Halfen
62
7
10
 214.339
20
-73.472
30
0
0
VERTEX
8
Halfen
62
7
10
 214.627
20
-72.452
30
0
0
VERTEX
8
Halfen
62
7
10
 214.834
20
-71.412
30
0
0
VERTEX
8
Halfen
62
7
10
 214.958
20
-70.359
30
0
0
VERTEX
8
Halfen
62
7
10
 215
20
-69.3
30
0
0
SEQEND
8
Halfen
0
POLYLINE
8
Halfen
62
7
66
1
10
0.0
20
0.0
30
0.0
70
1
0
VERTEX
8
Halfen
62
7
10
 515
20
-69.3
30
0
0
VERTEX
8
Halfen
62
7
10
 515
20
-56.8
30
0
0
VERTEX
8
Halfen
62
7
10
 515
20
 69.3
30
0
0
VERTEX
8
Halfen
62
7
10
 514.958
20
 70.359
30
0
0
VERTEX
8
Halfen
62
7
10
 514.834
20
 71.412
30
0
0
VERTEX
8
Halfen
62
7
10
 514.627
20
 72.452
30
0
0
VERTEX
8
Halfen
62
7
10
 514.339
20
 73.472
30
0
0
VERTEX
8
Halfen
62
7
10
 513.972
20
 74.466
30
0
0
VERTEX
8
Halfen
62
7
10
 513.529
20
 75.429
30
0
0
VERTEX
8
Halfen
62
7
10
 513.011
20
 76.354
30
0
0
VERTEX
8
Halfen
62
7
10
 512.422
20
 77.235
30
0
0
VERTEX
8
Halfen
62
7
10
 511.765
20
 78.068
30
0
0
VERTEX
8
Halfen
62
7
10
 511.046
20
 78.846
30
0
0
VERTEX
8
Halfen
62
7
10
 510.268
20
 79.565
30
0
0
VERTEX
8
Halfen
62
7
10
 509.435
20
 80.222
30
0
0
VERTEX
8
Halfen
62
7
10
 508.554
20
 80.811
30
0
0
VERTEX
8
Halfen
62
7
10
 507.629
20
 81.329
30
0
0
VERTEX
8
Halfen
62
7
10
 506.666
20
 81.772
30
0
0
VERTEX
8
Halfen
62
7
10
 505.672
20
 82.139
30
0
0
VERTEX
8
Halfen
62
7
10
 504.652
20
 82.427
30
0
0
VERTEX
8
Halfen
62
7
10
 503.612
20
 82.634
30
0
0
VERTEX
8
Halfen
62
7
10
 502.559
20
 82.758
30
0
0
VERTEX
8
Halfen
62
7
10
 501.5
20
 82.8
30
0
0
VERTEX
8
Halfen
62
7
10
 498.5
20
 82.8
30
0
0
VERTEX
8
Halfen
62
7
10
 497.441
20
 82.758
30
0
0
VERTEX
8
Halfen
62
7
10
 496.388
20
 82.634
30
0
0
VERTEX
8
Halfen
62
7
10
 495.348
20
 82.427
30
0
0
VERTEX
8
Halfen
62
7
10
 494.328
20
 82.139
30
0
0
VERTEX
8
Halfen
62
7
10
 493.334
20
 81.772
30
0
0
VERTEX
8
Halfen
62
7
10
 492.371
20
 81.329
30
0
0
VERTEX
8
Halfen
62
7
10
 491.446
20
 80.811
30
0
0
VERTEX
8
Halfen
62
7
10
 490.565
20
 80.222
30
0
0
VERTEX
8
Halfen
62
7
10
 489.732
20
 79.565
30
0
0
VERTEX
8
Halfen
62
7
10
 488.954
20
 78.846
30
0
0
VERTEX
8
Halfen
62
7
10
 488.235
20
 78.068
30
0
0
VERTEX
8
Halfen
62
7
10
 487.578
20
 77.235
30
0
0
VERTEX
8
Halfen
62
7
10
 486.989
20
 76.354
30
0
0
VERTEX
8
Halfen
62
7
10
 486.471
20
 75.429
30
0
0
VERTEX
8
Halfen
62
7
10
 486.028
20
 74.466
30
0
0
VERTEX
8
Halfen
62
7
10
 485.661
20
 73.472
30
0
0
VERTEX
8
Halfen
62
7
10
 485.373
20
 72.452
30
0
0
VERTEX
8
Halfen
62
7
10
 485.166
20
 71.412
30
0
0
VERTEX
8
Halfen
62
7
10
 485.042
20
 70.359
30
0
0
VERTEX
8
Halfen
62
7
10
 485
20
 69.3
30
0
0
VERTEX
8
Halfen
62
7
10
 485
20
-56.8
30
0
0
VERTEX
8
Halfen
62
7
10
 485
20
-69.3
30
0
0
VERTEX
8
Halfen
62
7
10
 485.042
20
-70.359
30
0
0
VERTEX
8
Halfen
62
7
10
 485.166
20
-71.412
30
0
0
VERTEX
8
Halfen
62
7
10
 485.373
20
-72.452
30
0
0
VERTEX
8
Halfen
62
7
10
 485.661
20
-73.472
30
0
0
VERTEX
8
Halfen
62
7
10
 486.028
20
-74.466
30
0
0
VERTEX
8
Halfen
62
7
10
 486.471
20
-75.429
30
0
0
VERTEX
8
Halfen
62
7
10
 486.989
20
-76.354
30
0
0
VERTEX
8
Halfen
62
7
10
 487.578
20
-77.235
30
0
0
VERTEX
8
Halfen
62
7
10
 488.235
20
-78.068
30
0
0
VERTEX
8
Halfen
62
7
10
 488.954
20
-78.846
30
0
0
VERTEX
8
Halfen
62
7
10
 489.732
20
-79.565
30
0
0
VERTEX
8
Halfen
62
7
10
 490.565
20
-80.222
30
0
0
VERTEX
8
Halfen
62
7
10
 491.446
20
-80.811
30
0
0
VERTEX
8
Halfen
62
7
10
 492.371
20
-81.329
30
0
0
VERTEX
8
Halfen
62
7
10
 493.334
20
-81.772
30
0
0
VERTEX
8
Halfen
62
7
10
 494.328
20
-82.139
30
0
0
VERTEX
8
Halfen
62
7
10
 495.348
20
-82.427
30
0
0
VERTEX
8
Halfen
62
7
10
 496.388
20
-82.634
30
0
0
VERTEX
8
Halfen
62
7
10
 497.441
20
-82.758
30
0
0
VERTEX
8
Halfen
62
7
10
 498.5
20
-82.8
30
0
0
VERTEX
8
Halfen
62
7
10
 501.5
20
-82.8
30
0
0
VERTEX
8
Halfen
62
7
10
 502.559
20
-82.758
30
0
0
VERTEX
8
Halfen
62
7
10
 503.612
20
-82.634
30
0
0
VERTEX
8
Halfen
62
7
10
 504.652
20
-82.427
30
0
0
VERTEX
8
Halfen
62
7
10
 505.672
20
-82.139
30
0
0
VERTEX
8
Halfen
62
7
10
 506.666
20
-81.772
30
0
0
VERTEX
8
Halfen
62
7
10
 507.629
20
-81.329
30
0
0
VERTEX
8
Halfen
62
7
10
 508.554
20
-80.811
30
0
0
VERTEX
8
Halfen
62
7
10
 509.435
20
-80.222
30
0
0
VERTEX
8
Halfen
62
7
10
 510.268
20
-79.565
30
0
0
VERTEX
8
Halfen
62
7
10
 511.046
20
-78.846
30
0
0
VERTEX
8
Halfen
62
7
10
 511.765
20
-78.068
30
0
0
VERTEX
8
Halfen
62
7
10
 512.422
20
-77.235
30
0
0
VERTEX
8
Halfen
62
7
10
 513.011
20
-76.354
30
0
0
VERTEX
8
Halfen
62
7
10
 513.529
20
-75.429
30
0
0
VERTEX
8
Halfen
62
7
10
 513.972
20
-74.466
30
0
0
VERTEX
8
Halfen
62
7
10
 514.339
20
-73.472
30
0
0
VERTEX
8
Halfen
62
7
10
 514.627
20
-72.452
30
0
0
VERTEX
8
Halfen
62
7
10
 514.834
20
-71.412
30
0
0
VERTEX
8
Halfen
62
7
10
 514.958
20
-70.359
30
0
0
VERTEX
8
Halfen
62
7
10
 515
20
-69.3
30
0
0
SEQEND
8
Halfen
0
POLYLINE
8
Halfen
62
7
66
1
10
0.0
20
0.0
30
0.0
70
1
0
VERTEX
8
Halfen
62
7
10
 815
20
-69.3
30
0
0
VERTEX
8
Halfen
62
7
10
 815
20
-56.8
30
0
0
VERTEX
8
Halfen
62
7
10
 815
20
 69.3
30
0
0
VERTEX
8
Halfen
62
7
10
 814.958
20
 70.359
30
0
0
VERTEX
8
Halfen
62
7
10
 814.834
20
 71.412
30
0
0
VERTEX
8
Halfen
62
7
10
 814.627
20
 72.452
30
0
0
VERTEX
8
Halfen
62
7
10
 814.339
20
 73.472
30
0
0
VERTEX
8
Halfen
62
7
10
 813.972
20
 74.466
30
0
0
VERTEX
8
Halfen
62
7
10
 813.529
20
 75.429
30
0
0
VERTEX
8
Halfen
62
7
10
 813.011
20
 76.354
30
0
0
VERTEX
8
Halfen
62
7
10
 812.422
20
 77.235
30
0
0
VERTEX
8
Halfen
62
7
10
 811.765
20
 78.068
30
0
0
VERTEX
8
Halfen
62
7
10
 811.046
20
 78.846
30
0
0
VERTEX
8
Halfen
62
7
10
 810.268
20
 79.565
30
0
0
VERTEX
8
Halfen
62
7
10
 809.435
20
 80.222
30
0
0
VERTEX
8
Halfen
62
7
10
 808.554
20
 80.811
30
0
0
VERTEX
8
Halfen
62
7
10
 807.629
20
 81.329
30
0
0
VERTEX
8
Halfen
62
7
10
 806.666
20
 81.772
30
0
0
VERTEX
8
Halfen
62
7
10
 805.672
20
 82.139
30
0
0
VERTEX
8
Halfen
62
7
10
 804.652
20
 82.427
30
0
0
VERTEX
8
Halfen
62
7
10
 803.612
20
 82.634
30
0
0
VERTEX
8
Halfen
62
7
10
 802.559
20
 82.758
30
0
0
VERTEX
8
Halfen
62
7
10
 801.5
20
 82.8
30
0
0
VERTEX
8
Halfen
62
7
10
 798.5
20
 82.8
30
0
0
VERTEX
8
Halfen
62
7
10
 797.441
20
 82.758
30
0
0
VERTEX
8
Halfen
62
7
10
 796.388
20
 82.634
30
0
0
VERTEX
8
Halfen
62
7
10
 795.348
20
 82.427
30
0
0
VERTEX
8
Halfen
62
7
10
 794.328
20
 82.139
30
0
0
VERTEX
8
Halfen
62
7
10
 793.334
20
 81.772
30
0
0
VERTEX
8
Halfen
62
7
10
 792.371
20
 81.329
30
0
0
VERTEX
8
Halfen
62
7
10
 791.446
20
 80.811
30
0
0
VERTEX
8
Halfen
62
7
10
 790.565
20
 80.222
30
0
0
VERTEX
8
Halfen
62
7
10
 789.732
20
 79.565
30
0
0
VERTEX
8
Halfen
62
7
10
 788.954
20
 78.846
30
0
0
VERTEX
8
Halfen
62
7
10
 788.235
20
 78.068
30
0
0
VERTEX
8
Halfen
62
7
10
 787.578
20
 77.235
30
0
0
VERTEX
8
Halfen
62
7
10
 786.989
20
 76.354
30
0
0
VERTEX
8
Halfen
62
7
10
 786.471
20
 75.429
30
0
0
VERTEX
8
Halfen
62
7
10
 786.028
20
 74.466
30
0
0
VERTEX
8
Halfen
62
7
10
 785.661
20
 73.472
30
0
0
VERTEX
8
Halfen
62
7
10
 785.373
20
 72.452
30
0
0
VERTEX
8
Halfen
62
7
10
 785.166
20
 71.412
30
0
0
VERTEX
8
Halfen
62
7
10
 785.042
20
 70.359
30
0
0
VERTEX
8
Halfen
62
7
10
 785
20
 69.3
30
0
0
VERTEX
8
Halfen
62
7
10
 785
20
-56.8
30
0
0
VERTEX
8
Halfen
62
7
10
 785
20
-69.3
30
0
0
VERTEX
8
Halfen
62
7
10
 785.042
20
-70.359
30
0
0
VERTEX
8
Halfen
62
7
10
 785.166
20
-71.412
30
0
0
VERTEX
8
Halfen
62
7
10
 785.373
20
-72.452
30
0
0
VERTEX
8
Halfen
62
7
10
 785.661
20
-73.472
30
0
0
VERTEX
8
Halfen
62
7
10
 786.028
20
-74.466
30
0
0
VERTEX
8
Halfen
62
7
10
 786.471
20
-75.429
30
0
0
VERTEX
8
Halfen
62
7
10
 786.989
20
-76.354
30
0
0
VERTEX
8
Halfen
62
7
10
 787.578
20
-77.235
30
0
0
VERTEX
8
Halfen
62
7
10
 788.235
20
-78.068
30
0
0
VERTEX
8
Halfen
62
7
10
 788.954
20
-78.846
30
0
0
VERTEX
8
Halfen
62
7
10
 789.732
20
-79.565
30
0
0
VERTEX
8
Halfen
62
7
10
 790.565
20
-80.222
30
0
0
VERTEX
8
Halfen
62
7
10
 791.446
20
-80.811
30
0
0
VERTEX
8
Halfen
62
7
10
 792.371
20
-81.329
30
0
0
VERTEX
8
Halfen
62
7
10
 793.334
20
-81.772
30
0
0
VERTEX
8
Halfen
62
7
10
 794.328
20
-82.139
30
0
0
VERTEX
8
Halfen
62
7
10
 795.348
20
-82.427
30
0
0
VERTEX
8
Halfen
62
7
10
 796.388
20
-82.634
30
0
0
VERTEX
8
Halfen
62
7
10
 797.441
20
-82.758
30
0
0
VERTEX
8
Halfen
62
7
10
 798.5
20
-82.8
30
0
0
VERTEX
8
Halfen
62
7
10
 801.5
20
-82.8
30
0
0
VERTEX
8
Halfen
62
7
10
 802.559
20
-82.758
30
0
0
VERTEX
8
Halfen
62
7
10
 803.612
20
-82.634
30
0
0
VERTEX
8
Halfen
62
7
10
 804.652
20
-82.427
30
0
0
VERTEX
8
Halfen
62
7
10
 805.672
20
-82.139
30
0
0
VERTEX
8
Halfen
62
7
10
 806.666
20
-81.772
30
0
0
VERTEX
8
Halfen
62
7
10
 807.629
20
-81.329
30
0
0
VERTEX
8
Halfen
62
7
10
 808.554
20
-80.811
30
0
0
VERTEX
8
Halfen
62
7
10
 809.435
20
-80.222
30
0
0
VERTEX
8
Halfen
62
7
10
 810.268
20
-79.565
30
0
0
VERTEX
8
Halfen
62
7
10
 811.046
20
-78.846
30
0
0
VERTEX
8
Halfen
62
7
10
 811.765
20
-78.068
30
0
0
VERTEX
8
Halfen
62
7
10
 812.422
20
-77.235
30
0
0
VERTEX
8
Halfen
62
7
10
 813.011
20
-76.354
30
0
0
VERTEX
8
Halfen
62
7
10
 813.529
20
-75.429
30
0
0
VERTEX
8
Halfen
62
7
10
 813.972
20
-74.466
30
0
0
VERTEX
8
Halfen
62
7
10
 814.339
20
-73.472
30
0
0
VERTEX
8
Halfen
62
7
10
 814.627
20
-72.452
30
0
0
VERTEX
8
Halfen
62
7
10
 814.834
20
-71.412
30
0
0
VERTEX
8
Halfen
62
7
10
 814.958
20
-70.359
30
0
0
VERTEX
8
Halfen
62
7
10
 815
20
-69.3
30
0
0
SEQEND
8
Halfen
0
POLYLINE
8
Halfen
62
7
66
1
10
0.0
20
0.0
30
0.0
70
1
0
VERTEX
8
Halfen
62
7
10
 256
20
-775
30
0
0
VERTEX
8
Halfen
62
7
10
 256
20
-160
30
0
0
VERTEX
8
Halfen
62
7
10
 244
20
-160
30
0
0
VERTEX
8
Halfen
62
7
10
 244
20
-775
30
0
0
SEQEND
8
Halfen
0
POLYLINE
8
Halfen
62
7
66
1
10
0.0
20
0.0
30
0.0
70
1
0
VERTEX
8
Halfen
62
7
10
 255.25
20
-160
30
0
0
VERTEX
8
Halfen
62
7
10
 255.25
20
-62
30
0
0
VERTEX
8
Halfen
62
7
10
 244.75
20
-62
30
0
0
VERTEX
8
Halfen
62
7
10
 244.75
20
-160
30
0
0
SEQEND
8
Halfen
0
POLYLINE
8
Halfen
62
7
66
1
10
0.0
20
0.0
30
0.0
70
1
0
VERTEX
8
Halfen
62
7
10
 256
20
-62
30
0
0
VERTEX
8
Halfen
62
7
10
 256
20
-60
30
0
0
VERTEX
8
Halfen
62
7
10
 244
20
-60
30
0
0
VERTEX
8
Halfen
62
7
10
 244
20
-62
30
0
0
SEQEND
8
Halfen
0
POLYLINE
8
Halfen
62
7
66
1
10
0.0
20
0.0
30
0.0
70
1
0
VERTEX
8
Halfen
62
7
10
 255.25
20
-60
30
0
0
VERTEX
8
Halfen
62
7
10
 255.25
20
 60
30
0
0
VERTEX
8
Halfen
62
7
10
 244.75
20
 60
30
0
0
VERTEX
8
Halfen
62
7
10
 244.75
20
-60
30
0
0
SEQEND
8
Halfen
0
POLYLINE
8
Halfen
62
7
66
1
10
0.0
20
0.0
30
0.0
70
1
0
VERTEX
8
Halfen
62
7
10
 256
20
 60
30
0
0
VERTEX
8
Halfen
62
7
10
 256
20
 62
30
0
0
VERTEX
8
Halfen
62
7
10
 244
20
 62
30
0
0
VERTEX
8
Halfen
62
7
10
 244
20
 60
30
0
0
SEQEND
8
Halfen
0
POLYLINE
8
Halfen
62
7
66
1
10
0.0
20
0.0
30
0.0
70
1
0
VERTEX
8
Halfen
62
7
10
 255.25
20
 62
30
0
0
VERTEX
8
Halfen
62
7
10
 255.25
20
 160
30
0
0
VERTEX
8
Halfen
62
7
10
 244.75
20
 160
30
0
0
VERTEX
8
Halfen
62
7
10
 244.75
20
 62
30
0
0
SEQEND
8
Halfen
0
POLYLINE
8
Halfen
62
7
66
1
10
0.0
20
0.0
30
0.0
70
1
0
VERTEX
8
Halfen
62
7
10
 256
20
 160
30
0
0
VERTEX
8
Halfen
62
7
10
 256
20
 775
30
0
0
VERTEX
8
Halfen
62
7
10
 244
20
 775
30
0
0
VERTEX
8
Halfen
62
7
10
 244
20
 160
30
0
0
SEQEND
8
Halfen
0
POLYLINE
8
Halfen
62
7
66
1
10
0.0
20
0.0
30
0.0
70
1
0
VERTEX
8
Halfen
62
7
10
 756
20
-775
30
0
0
VERTEX
8
Halfen
62
7
10
 756
20
-160
30
0
0
VERTEX
8
Halfen
62
7
10
 744
20
-160
30
0
0
VERTEX
8
Halfen
62
7
10
 744
20
-775
30
0
0
SEQEND
8
Halfen
0
POLYLINE
8
Halfen
62
7
66
1
10
0.0
20
0.0
30
0.0
70
1
0
VERTEX
8
Halfen
62
7
10
 755.25
20
-160
30
0
0
VERTEX
8
Halfen
62
7
10
 755.25
20
-62
30
0
0
VERTEX
8
Halfen
62
7
10
 744.75
20
-62
30
0
0
VERTEX
8
Halfen
62
7
10
 744.75
20
-160
30
0
0
SEQEND
8
Halfen
0
POLYLINE
8
Halfen
62
7
66
1
10
0.0
20
0.0
30
0.0
70
1
0
VERTEX
8
Halfen
62
7
10
 756
20
-62
30
0
0
VERTEX
8
Halfen
62
7
10
 756
20
-60
30
0
0
VERTEX
8
Halfen
62
7
10
 744
20
-60
30
0
0
VERTEX
8
Halfen
62
7
10
 744
20
-62
30
0
0
SEQEND
8
Halfen
0
POLYLINE
8
Halfen
62
7
66
1
10
0.0
20
0.0
30
0.0
70
1
0
VERTEX
8
Halfen
62
7
10
 755.25
20
-60
30
0
0
VERTEX
8
Halfen
62
7
10
 755.25
20
 60
30
0
0
VERTEX
8
Halfen
62
7
10
 744.75
20
 60
30
0
0
VERTEX
8
Halfen
62
7
10
 744.75
20
-60
30
0
0
SEQEND
8
Halfen
0
POLYLINE
8
Halfen
62
7
66
1
10
0.0
20
0.0
30
0.0
70
1
0
VERTEX
8
Halfen
62
7
10
 756
20
 60
30
0
0
VERTEX
8
Halfen
62
7
10
 756
20
 62
30
0
0
VERTEX
8
Halfen
62
7
10
 744
20
 62
30
0
0
VERTEX
8
Halfen
62
7
10
 744
20
 60
30
0
0
SEQEND
8
Halfen
0
POLYLINE
8
Halfen
62
7
66
1
10
0.0
20
0.0
30
0.0
70
1
0
VERTEX
8
Halfen
62
7
10
 755.25
20
 62
30
0
0
VERTEX
8
Halfen
62
7
10
 755.25
20
 160
30
0
0
VERTEX
8
Halfen
62
7
10
 744.75
20
 160
30
0
0
VERTEX
8
Halfen
62
7
10
 744.75
20
 62
30
0
0
SEQEND
8
Halfen
0
POLYLINE
8
Halfen
62
7
66
1
10
0.0
20
0.0
30
0.0
70
1
0
VERTEX
8
Halfen
62
7
10
 756
20
 160
30
0
0
VERTEX
8
Halfen
62
7
10
 756
20
 775
30
0
0
VERTEX
8
Halfen
62
7
10
 744
20
 775
30
0
0
VERTEX
8
Halfen
62
7
10
 744
20
 160
30
0
0
SEQEND
8
Halfen
0
POLYLINE
8
Halfen
62
7
66
1
10
0.0
20
0.0
30
0.0
70
1
0
VERTEX
8
Halfen
62
7
10
 1450
20
-60
30
0
0
VERTEX
8
Halfen
62
7
10
 1450
20
 60
30
0
0
VERTEX
8
Halfen
62
7
10
 1436.5
20
 73.5
30
0
0
VERTEX
8
Halfen
62
7
10
 1436.5
20
 60
30
0
0
VERTEX
8
Halfen
62
7
10
 1250
20
 60
30
0
0
VERTEX
8
Halfen
62
7
10
 1250
20
-60
30
0
0
VERTEX
8
Halfen
62
7
10
 1436.5
20
-60
30
0
0
VERTEX
8
Halfen
62
7
10
 1436.5
20
-73.5
30
0
0
SEQEND
8
Halfen
0
POLYLINE
8
Halfen
62
7
66
1
10
0.0
20
0.0
30
0.0
70
1
0
VERTEX
8
Halfen
62
7
10
 1250
20
-60
30
0
0
VERTEX
8
Halfen
62
7
10
 1250
20
 60
30
0
0
VERTEX
8
Halfen
62
7
10
 1213.5
20
 60
30
0
0
VERTEX
8
Halfen
62
7
10
 1213.5
20
 73.5
30
0
0
VERTEX
8
Halfen
62
7
10
 1200
20
 60
30
0
0
VERTEX
8
Halfen
62
7
10
 1200
20
-60
30
0
0
VERTEX
8
Halfen
62
7
10
 1213.5
20
-73.5
30
0
0
VERTEX
8
Halfen
62
7
10
 1213.5
20
-60
30
0
0
SEQEND
8
Halfen
0
POLYLINE
8
Halfen
62
7
66
1
10
0.0
20
0.0
30
0.0
70
1
0
VERTEX
8
Halfen
62
7
10
 1447.5
20
-58.75
30
0
0
VERTEX
8
Halfen
62
7
10
 1447.5
20
 58.75
30
0
0
VERTEX
8
Halfen
62
7
10
 1439
20
 67.25
30
0
0
VERTEX
8
Halfen
62
7
10
 1439
20
 58
30
0
0
VERTEX
8
Halfen
62
7
10
 1252
20
 58
30
0
0
VERTEX
8
Halfen
62
7
10
 1252
20
-58
30
0
0
VERTEX
8
Halfen
62
7
10
 1439
20
-58
30
0
0
VERTEX
8
Halfen
62
7
10
 1439
20
-67.25
30
0
0
SEQEND
8
Halfen
0
POLYLINE
8
Halfen
62
7
66
1
10
0.0
20
0.0
30
0.0
70
1
0
VERTEX
8
Halfen
62
7
10
 1248
20
-58
30
0
0
VERTEX
8
Halfen
62
7
10
 1248
20
 58
30
0
0
VERTEX
8
Halfen
62
7
10
 1211
20
 58
30
0
0
VERTEX
8
Halfen
62
7
10
 1211
20
 67.25
30
0
0
VERTEX
8
Halfen
62
7
10
 1202.5
20
 58.75
30
0
0
VERTEX
8
Halfen
62
7
10
 1202.5
20
-58.75
30
0
0
VERTEX
8
Halfen
62
7
10
 1211
20
-67.25
30
0
0
VERTEX
8
Halfen
62
7
10
 1211
20
-58
30
0
0
SEQEND
8
Halfen
0
POLYLINE
8
Halfen
62
7
66
1
10
0.0
20
0.0
30
0.0
70
1
0
VERTEX
8
Halfen
62
7
10
 1435
20
-81.8
30
0
0
VERTEX
8
Halfen
62
7
10
 1435
20
 81.8
30
0
0
VERTEX
8
Halfen
62
7
10
 1431
20
 81.8
30
0
0
VERTEX
8
Halfen
62
7
10
 1430.846
20
 81.797
30
0
0
VERTEX
8
Halfen
62
7
10
 1430.691
20
 81.786
30
0
0
VERTEX
8
Halfen
62
7
10
 1430.538
20
 81.769
30
0
0
VERTEX
8
Halfen
62
7
10
 1430.385
20
 81.746
30
0
0
VERTEX
8
Halfen
62
7
10
 1430.234
20
 81.715
30
0
0
VERTEX
8
Halfen
62
7
10
 1430.084
20
 81.678
30
0
0
VERTEX
8
Halfen
62
7
10
 1429.936
20
 81.634
30
0
0
VERTEX
8
Halfen
62
7
10
 1429.789
20
 81.584
30
0
0
VERTEX
8
Halfen
62
7
10
 1429.646
20
 81.527
30
0
0
VERTEX
8
Halfen
62
7
10
 1429.505
20
 81.464
30
0
0
VERTEX
8
Halfen
62
7
10
 1429.366
20
 81.395
30
0
0
VERTEX
8
Halfen
62
7
10
 1429.231
20
 81.32
30
0
0
VERTEX
8
Halfen
62
7
10
 1429.1
20
 81.239
30
0
0
VERTEX
8
Halfen
62
7
10
 1428.972
20
 81.153
30
0
0
VERTEX
8
Halfen
62
7
10
 1428.848
20
 81.06
30
0
0
VERTEX
8
Halfen
62
7
10
 1428.728
20
 80.963
30
0
0
VERTEX
8
Halfen
62
7
10
 1428.613
20
 80.86
30
0
0
VERTEX
8
Halfen
62
7
10
 1428.502
20
 80.752
30
0
0
VERTEX
8
Halfen
62
7
10
 1428.397
20
 80.639
30
0
0
VERTEX
8
Halfen
62
7
10
 1428.296
20
 80.522
30
0
0
VERTEX
8
Halfen
62
7
10
 1427.41
20
 79.491
30
0
0
VERTEX
8
Halfen
62
7
10
 1426.479
20
 78.5
30
0
0
VERTEX
8
Halfen
62
7
10
 1425.505
20
 77.551
30
0
0
VERTEX
8
Halfen
62
7
10
 1424.491
20
 76.646
30
0
0
VERTEX
8
Halfen
62
7
10
 1423.437
20
 75.787
30
0
0
VERTEX
8
Halfen
62
7
10
 1422.347
20
 74.975
30
0
0
VERTEX
8
Halfen
62
7
10
 1421.222
20
 74.211
30
0
0
VERTEX
8
Halfen
62
7
10
 1420.064
20
 73.499
30
0
0
VERTEX
8
Halfen
62
7
10
 1418.876
20
 72.838
30
0
0
VERTEX
8
Halfen
62
7
10
 1417.66
20
 72.23
30
0
0
VERTEX
8
Halfen
62
7
10
 1416.418
20
 71.676
30
0
0
VERTEX
8
Halfen
62
7
10
 1415.153
20
 71.178
30
0
0
VERTEX
8
Halfen
62
7
10
 1413.867
20
 70.736
30
0
0
VERTEX
8
Halfen
62
7
10
 1412.563
20
 70.351
30
0
0
VERTEX
8
Halfen
62
7
10
 1411.243
20
 70.024
30
0
0
VERTEX
8
Halfen
62
7
10
 1409.911
20
 69.756
30
0
0
VERTEX
8
Halfen
62
7
10
 1408.567
20
 69.547
30
0
0
VERTEX
8
Halfen
62
7
10
 1407.216
20
 69.397
30
0
0
VERTEX
8
Halfen
62
7
10
 1405.859
20
 69.307
30
0
0
VERTEX
8
Halfen
62
7
10
 1404.5
20
 69.277
30
0
0
VERTEX
8
Halfen
62
7
10
 1382.5
20
 69.277
30
0
0
VERTEX
8
Halfen
62
7
10
 1381.141
20
 69.307
30
0
0
VERTEX
8
Halfen
62
7
10
 1379.784
20
 69.397
30
0
0
VERTEX
8
Halfen
62
7
10
 1378.433
20
 69.547
30
0
0
VERTEX
8
Halfen
62
7
10
 1377.089
20
 69.756
30
0
0
VERTEX
8
Halfen
62
7
10
 1375.757
20
 70.024
30
0
0
VERTEX
8
Halfen
62
7
10
 1374.437
20
 70.351
30
0
0
VERTEX
8
Halfen
62
7
10
 1373.133
20
 70.736
30
0
0
VERTEX
8
Halfen
62
7
10
 1371.847
20
 71.178
30
0
0
VERTEX
8
Halfen
62
7
10
 1370.582
20
 71.676
30
0
0
VERTEX
8
Halfen
62
7
10
 1369.34
20
 72.23
30
0
0
VERTEX
8
Halfen
62
7
10
 1368.124
20
 72.838
30
0
0
VERTEX
8
Halfen
62
7
10
 1366.936
20
 73.499
30
0
0
VERTEX
8
Halfen
62
7
10
 1365.778
20
 74.211
30
0
0
VERTEX
8
Halfen
62
7
10
 1364.653
20
 74.975
30
0
0
VERTEX
8
Halfen
62
7
10
 1363.563
20
 75.787
30
0
0
VERTEX
8
Halfen
62
7
10
 1362.509
20
 76.646
30
0
0
VERTEX
8
Halfen
62
7
10
 1361.495
20
 77.551
30
0
0
VERTEX
8
Halfen
62
7
10
 1360.521
20
 78.5
30
0
0
VERTEX
8
Halfen
62
7
10
 1359.59
20
 79.491
30
0
0
VERTEX
8
Halfen
62
7
10
 1358.704
20
 80.522
30
0
0
VERTEX
8
Halfen
62
7
10
 1358.603
20
 80.639
30
0
0
VERTEX
8
Halfen
62
7
10
 1358.498
20
 80.752
30
0
0
VERTEX
8
Halfen
62
7
10
 1358.387
20
 80.86
30
0
0
VERTEX
8
Halfen
62
7
10
 1358.272
20
 80.963
30
0
0
VERTEX
8
Halfen
62
7
10
 1358.152
20
 81.06
30
0
0
VERTEX
8
Halfen
62
7
10
 1358.028
20
 81.153
30
0
0
VERTEX
8
Halfen
62
7
10
 1357.9
20
 81.239
30
0
0
VERTEX
8
Halfen
62
7
10
 1357.769
20
 81.32
30
0
0
VERTEX
8
Halfen
62
7
10
 1357.634
20
 81.395
30
0
0
VERTEX
8
Halfen
62
7
10
 1357.495
20
 81.464
30
0
0
VERTEX
8
Halfen
62
7
10
 1357.354
20
 81.527
30
0
0
VERTEX
8
Halfen
62
7
10
 1357.211
20
 81.584
30
0
0
VERTEX
8
Halfen
62
7
10
 1357.064
20
 81.634
30
0
0
VERTEX
8
Halfen
62
7
10
 1356.916
20
 81.678
30
0
0
VERTEX
8
Halfen
62
7
10
 1356.766
20
 81.715
30
0
0
VERTEX
8
Halfen
62
7
10
 1356.615
20
 81.746
30
0
0
VERTEX
8
Halfen
62
7
10
 1356.462
20
 81.769
30
0
0
VERTEX
8
Halfen
62
7
10
 1356.309
20
 81.786
30
0
0
VERTEX
8
Halfen
62
7
10
 1356.154
20
 81.797
30
0
0
VERTEX
8
Halfen
62
7
10
 1356
20
 81.8
30
0
0
VERTEX
8
Halfen
62
7
10
 1352
20
 81.8
30
0
0
VERTEX
8
Halfen
62
7
10
 1352
20
-81.8
30
0
0
VERTEX
8
Halfen
62
7
10
 1356
20
-81.8
30
0
0
VERTEX
8
Halfen
62
7
10
 1356.154
20
-81.797
30
0
0
VERTEX
8
Halfen
62
7
10
 1356.309
20
-81.786
30
0
0
VERTEX
8
Halfen
62
7
10
 1356.462
20
-81.769
30
0
0
VERTEX
8
Halfen
62
7
10
 1356.615
20
-81.746
30
0
0
VERTEX
8
Halfen
62
7
10
 1356.766
20
-81.715
30
0
0
VERTEX
8
Halfen
62
7
10
 1356.916
20
-81.678
30
0
0
VERTEX
8
Halfen
62
7
10
 1357.064
20
-81.634
30
0
0
VERTEX
8
Halfen
62
7
10
 1357.211
20
-81.584
30
0
0
VERTEX
8
Halfen
62
7
10
 1357.354
20
-81.527
30
0
0
VERTEX
8
Halfen
62
7
10
 1357.495
20
-81.464
30
0
0
VERTEX
8
Halfen
62
7
10
 1357.634
20
-81.395
30
0
0
VERTEX
8
Halfen
62
7
10
 1357.769
20
-81.32
30
0
0
VERTEX
8
Halfen
62
7
10
 1357.9
20
-81.239
30
0
0
VERTEX
8
Halfen
62
7
10
 1358.028
20
-81.153
30
0
0
VERTEX
8
Halfen
62
7
10
 1358.152
20
-81.06
30
0
0
VERTEX
8
Halfen
62
7
10
 1358.272
20
-80.963
30
0
0
VERTEX
8
Halfen
62
7
10
 1358.387
20
-80.86
30
0
0
VERTEX
8
Halfen
62
7
10
 1358.498
20
-80.752
30
0
0
VERTEX
8
Halfen
62
7
10
 1358.603
20
-80.639
30
0
0
VERTEX
8
Halfen
62
7
10
 1358.704
20
-80.522
30
0
0
VERTEX
8
Halfen
62
7
10
 1359.59
20
-79.491
30
0
0
VERTEX
8
Halfen
62
7
10
 1360.521
20
-78.5
30
0
0
VERTEX
8
Halfen
62
7
10
 1361.495
20
-77.551
30
0
0
VERTEX
8
Halfen
62
7
10
 1362.509
20
-76.646
30
0
0
VERTEX
8
Halfen
62
7
10
 1363.563
20
-75.787
30
0
0
VERTEX
8
Halfen
62
7
10
 1364.653
20
-74.975
30
0
0
VERTEX
8
Halfen
62
7
10
 1365.778
20
-74.211
30
0
0
VERTEX
8
Halfen
62
7
10
 1366.936
20
-73.499
30
0
0
VERTEX
8
Halfen
62
7
10
 1368.124
20
-72.838
30
0
0
VERTEX
8
Halfen
62
7
10
 1369.34
20
-72.23
30
0
0
VERTEX
8
Halfen
62
7
10
 1370.582
20
-71.676
30
0
0
VERTEX
8
Halfen
62
7
10
 1371.847
20
-71.178
30
0
0
VERTEX
8
Halfen
62
7
10
 1373.133
20
-70.736
30
0
0
VERTEX
8
Halfen
62
7
10
 1374.437
20
-70.351
30
0
0
VERTEX
8
Halfen
62
7
10
 1375.757
20
-70.024
30
0
0
VERTEX
8
Halfen
62
7
10
 1377.089
20
-69.756
30
0
0
VERTEX
8
Halfen
62
7
10
 1378.433
20
-69.547
30
0
0
VERTEX
8
Halfen
62
7
10
 1379.784
20
-69.397
30
0
0
VERTEX
8
Halfen
62
7
10
 1381.141
20
-69.307
30
0
0
VERTEX
8
Halfen
62
7
10
 1382.5
20
-69.277
30
0
0
VERTEX
8
Halfen
62
7
10
 1404.5
20
-69.277
30
0
0
VERTEX
8
Halfen
62
7
10
 1405.859
20
-69.307
30
0
0
VERTEX
8
Halfen
62
7
10
 1407.216
20
-69.397
30
0
0
VERTEX
8
Halfen
62
7
10
 1408.567
20
-69.547
30
0
0
VERTEX
8
Halfen
62
7
10
 1409.911
20
-69.756
30
0
0
VERTEX
8
Halfen
62
7
10
 1411.243
20
-70.024
30
0
0
VERTEX
8
Halfen
62
7
10
 1412.563
20
-70.351
30
0
0
VERTEX
8
Halfen
62
7
10
 1413.867
20
-70.736
30
0
0
VERTEX
8
Halfen
62
7
10
 1415.153
20
-71.178
30
0
0
VERTEX
8
Halfen
62
7
10
 1416.418
20
-71.676
30
0
0
VERTEX
8
Halfen
62
7
10
 1417.66
20
-72.23
30
0
0
VERTEX
8
Halfen
62
7
10
 1418.876
20
-72.838
30
0
0
VERTEX
8
Halfen
62
7
10
 1420.064
20
-73.499
30
0
0
VERTEX
8
Halfen
62
7
10
 1421.222
20
-74.211
30
0
0
VERTEX
8
Halfen
62
7
10
 1422.347
20
-74.975
30
0
0
VERTEX
8
Halfen
62
7
10
 1423.437
20
-75.787
30
0
0
VERTEX
8
Halfen
62
7
10
 1424.491
20
-76.646
30
0
0
VERTEX
8
Halfen
62
7
10
 1425.505
20
-77.551
30
0
0
VERTEX
8
Halfen
62
7
10
 1426.479
20
-78.5
30
0
0
VERTEX
8
Halfen
62
7
10
 1427.41
20
-79.491
30
0
0
VERTEX
8
Halfen
62
7
10
 1428.296
20
-80.522
30
0
0
VERTEX
8
Halfen
62
7
10
 1428.397
20
-80.639
30
0
0
VERTEX
8
Halfen
62
7
10
 1428.502
20
-80.752
30
0
0
VERTEX
8
Halfen
62
7
10
 1428.613
20
-80.86
30
0
0
VERTEX
8
Halfen
62
7
10
 1428.728
20
-80.963
30
0
0
VERTEX
8
Halfen
62
7
10
 1428.848
20
-81.06
30
0
0
VERTEX
8
Halfen
62
7
10
 1428.972
20
-81.153
30
0
0
VERTEX
8
Halfen
62
7
10
 1429.1
20
-81.239
30
0
0
VERTEX
8
Halfen
62
7
10
 1429.231
20
-81.32
30
0
0
VERTEX
8
Halfen
62
7
10
 1429.366
20
-81.395
30
0
0
VERTEX
8
Halfen
62
7
10
 1429.505
20
-81.464
30
0
0
VERTEX
8
Halfen
62
7
10
 1429.646
20
-81.527
30
0
0
VERTEX
8
Halfen
62
7
10
 1429.789
20
-81.584
30
0
0
VERTEX
8
Halfen
62
7
10
 1429.936
20
-81.634
30
0
0
VERTEX
8
Halfen
62
7
10
 1430.084
20
-81.678
30
0
0
VERTEX
8
Halfen
62
7
10
 1430.234
20
-81.715
30
0
0
VERTEX
8
Halfen
62
7
10
 1430.385
20
-81.746
30
0
0
VERTEX
8
Halfen
62
7
10
 1430.538
20
-81.769
30
0
0
VERTEX
8
Halfen
62
7
10
 1430.691
20
-81.786
30
0
0
VERTEX
8
Halfen
62
7
10
 1430.846
20
-81.797
30
0
0
VERTEX
8
Halfen
62
7
10
 1431
20
-81.8
30
0
0
SEQEND
8
Halfen
0
POLYLINE
8
Halfen
62
7
66
1
10
0.0
20
0.0
30
0.0
70
1
0
VERTEX
8
Halfen
62
7
10
 1242
20
-775
30
0
0
VERTEX
8
Halfen
62
7
10
 1242
20
-160
30
0
0
VERTEX
8
Halfen
62
7
10
 1230
20
-160
30
0
0
VERTEX
8
Halfen
62
7
10
 1230
20
-775
30
0
0
SEQEND
8
Halfen
0
POLYLINE
8
Halfen
62
7
66
1
10
0.0
20
0.0
30
0.0
70
1
0
VERTEX
8
Halfen
62
7
10
 1241.25
20
-160
30
0
0
VERTEX
8
Halfen
62
7
10
 1241.25
20
-62
30
0
0
VERTEX
8
Halfen
62
7
10
 1230.75
20
-62
30
0
0
VERTEX
8
Halfen
62
7
10
 1230.75
20
-160
30
0
0
SEQEND
8
Halfen
0
POLYLINE
8
Halfen
62
7
66
1
10
0.0
20
0.0
30
0.0
70
1
0
VERTEX
8
Halfen
62
7
10
 1242
20
-62
30
0
0
VERTEX
8
Halfen
62
7
10
 1242
20
-60
30
0
0
VERTEX
8
Halfen
62
7
10
 1230
20
-60
30
0
0
VERTEX
8
Halfen
62
7
10
 1230
20
-62
30
0
0
SEQEND
8
Halfen
0
POLYLINE
8
Halfen
62
7
66
1
10
0.0
20
0.0
30
0.0
70
1
0
VERTEX
8
Halfen
62
7
10
 1241.25
20
-60
30
0
0
VERTEX
8
Halfen
62
7
10
 1241.25
20
 60
30
0
0
VERTEX
8
Halfen
62
7
10
 1230.75
20
 60
30
0
0
VERTEX
8
Halfen
62
7
10
 1230.75
20
-60
30
0
0
SEQEND
8
Halfen
0
POLYLINE
8
Halfen
62
7
66
1
10
0.0
20
0.0
30
0.0
70
1
0
VERTEX
8
Halfen
62
7
10
 1242
20
 60
30
0
0
VERTEX
8
Halfen
62
7
10
 1242
20
 62
30
0
0
VERTEX
8
Halfen
62
7
10
 1230
20
 62
30
0
0
VERTEX
8
Halfen
62
7
10
 1230
20
 60
30
0
0
SEQEND
8
Halfen
0
POLYLINE
8
Halfen
62
7
66
1
10
0.0
20
0.0
30
0.0
70
1
0
VERTEX
8
Halfen
62
7
10
 1241.25
20
 62
30
0
0
VERTEX
8
Halfen
62
7
10
 1241.25
20
 160
30
0
0
VERTEX
8
Halfen
62
7
10
 1230.75
20
 160
30
0
0
VERTEX
8
Halfen
62
7
10
 1230.75
20
 62
30
0
0
SEQEND
8
Halfen
0
POLYLINE
8
Halfen
62
7
66
1
10
0.0
20
0.0
30
0.0
70
1
0
VERTEX
8
Halfen
62
7
10
 1242
20
 160
30
0
0
VERTEX
8
Halfen
62
7
10
 1242
20
 775
30
0
0
VERTEX
8
Halfen
62
7
10
 1230
20
 775
30
0
0
VERTEX
8
Halfen
62
7
10
 1230
20
 160
30
0
0
SEQEND
8
Halfen
0
ENDSEC
0
EOF
