  0
SECTION
  2
HEADER
  9
$ACADVER
  1
AC1032
  9
$ACADMAINTVER
 90
4
  9
$DWGCODEPAGE
  3
ANSI_1252
  9
$LASTSAVEDBY
  1
ezdxf
  9
$REQUIREDVERSIONS
160
0
  9
$INSBASE
 10
0.0
 20
0.0
 30
0.0
  9
$EXTMIN
 10
1e+20
 20
1e+20
 30
1e+20
  9
$EXTMAX
 10
-1e+20
 20
-1e+20
 30
-1e+20
  9
$LIMMIN
 10
0.0
 20
0.0
  9
$LIMMAX
 10
420.0
 20
297.0
  9
$ORTHOMODE
 70
0
  9
$REGENMODE
 70
1
  9
$FILLMODE
 70
1
  9
$QTEXTMODE
 70
0
  9
$MIRRTEXT
 70
1
  9
$LTSCALE
 40
1.0
  9
$ATTMODE
 70
1
  9
$TEXTSIZE
 40
2.5
  9
$TRACEWID
 40
1.0
  9
$TEXTSTYLE
  7
Standard
  9
$CLAYER
  8
0
  9
$CELTYPE
  6
ByLayer
  9
$CECOLOR
 62
256
  9
$CELTSCALE
 40
1.0
  9
$DISPSILH
 70
0
  9
$DIMSCALE
 40
1.0
  9
$DIMASZ
 40
2.5
  9
$DIMEXO
 40
0.625
  9
$DIMDLI
 40
3.75
  9
$DIMRND
 40
0.0
  9
$DIMDLE
 40
0.0
  9
$DIMEXE
 40
1.25
  9
$DIMTP
 40
0.0
  9
$DIMTM
 40
0.0
  9
$DIMTXT
 40
2.5
  9
$DIMCEN
 40
2.5
  9
$DIMTSZ
 40
0.0
  9
$DIMTOL
 70
0
  9
$DIMLIM
 70
0
  9
$DIMTIH
 70
0
  9
$DIMTOH
 70
0
  9
$DIMSE1
 70
0
  9
$DIMSE2
 70
0
  9
$DIMTAD
 70
1
  9
$DIMZIN
 70
8
  9
$DIMBLK
  1

  9
$DIMASO
 70
1
  9
$DIMSHO
 70
1
  9
$DIMPOST
  1

  9
$DIMAPOST
  1

  9
$DIMALT
 70
0
  9
$DIMALTD
 70
3
  9
$DIMALTF
 40
0.03937007874
  9
$DIMLFAC
 40
1.0
  9
$DIMTOFL
 70
1
  9
$DIMTVP
 40
0.0
  9
$DIMTIX
 70
0
  9
$DIMSOXD
 70
0
  9
$DIMSAH
 70
0
  9
$DIMBLK1
  1

  9
$DIMBLK2
  1

  9
$DIMSTYLE
  2
ISO-25
  9
$DIMCLRD
 70
0
  9
$DIMCLRE
 70
0
  9
$DIMCLRT
 70
0
  9
$DIMTFAC
 40
1.0
  9
$DIMGAP
 40
0.625
  9
$DIMJUST
 70
0
  9
$DIMSD1
 70
0
  9
$DIMSD2
 70
0
  9
$DIMTOLJ
 70
0
  9
$DIMTZIN
 70
8
  9
$DIMALTZ
 70
0
  9
$DIMALTTZ
 70
0
  9
$DIMUPT
 70
0
  9
$DIMDEC
 70
2
  9
$DIMTDEC
 70
2
  9
$DIMALTU
 70
2
  9
$DIMALTTD
 70
3
  9
$DIMTXSTY
  7
Standard
  9
$DIMAUNIT
 70
0
  9
$DIMADEC
 70
0
  9
$DIMALTRND
 40
0.0
  9
$DIMAZIN
 70
0
  9
$DIMDSEP
 70
44
  9
$DIMATFIT
 70
3
  9
$DIMFRAC
 70
0
  9
$DIMLDRBLK
  1

  9
$DIMLUNIT
 70
2
  9
$DIMLWD
 70
-2
  9
$DIMLWE
 70
-2
  9
$DIMTMOVE
 70
0
  9
$DIMFXL
 40
1.0
  9
$DIMFXLON
 70
0
  9
$DIMJOGANG
 40
0.785398163397
  9
$DIMTFILL
 70
0
  9
$DIMTFILLCLR
 70
0
  9
$DIMARCSYM
 70
0
  9
$DIMLTYPE
  6

  9
$DIMLTEX1
  6

  9
$DIMLTEX2
  6

  9
$DIMTXTDIRECTION
 70
0
  9
$LUNITS
 70
2
  9
$LUPREC
 70
4
  9
$SKETCHINC
 40
1.0
  9
$FILLETRAD
 40
10.0
  9
$AUNITS
 70
0
  9
$AUPREC
 70
2
  9
$MENU
  1
.
  9
$ELEVATION
 40
0.0
  9
$PELEVATION
 40
0.0
  9
$THICKNESS
 40
0.0
  9
$LIMCHECK
 70
0
  9
$CHAMFERA
 40
0.0
  9
$CHAMFERB
 40
0.0
  9
$CHAMFERC
 40
0.0
  9
$CHAMFERD
 40
0.0
  9
$SKPOLY
 70
0
  9
$TDCREATE
 40
2461085.245983796
  9
$TDUCREATE
 40
2458532.153996898
  9
$TDUPDATE
 40
2461085.245983796
  9
$TDUUPDATE
 40
2458532.1544311
  9
$TDINDWG
 40
0.0
  9
$TDUSRTIMER
 40
0.0
  9
$USRTIMER
 70
1
  9
$ANGBASE
 50
0.0
  9
$ANGDIR
 70
0
  9
$PDMODE
 70
0
  9
$PDSIZE
 40
0.0
  9
$PLINEWID
 40
0.0
  9
$SPLFRAME
 70
0
  9
$SPLINETYPE
 70
6
  9
$SPLINESEGS
 70
8
  9
$HANDSEED
  5
98
  9
$SURFTAB1
 70
6
  9
$SURFTAB2
 70
6
  9
$SURFTYPE
 70
6
  9
$SURFU
 70
6
  9
$SURFV
 70
6
  9
$UCSBASE
  2

  9
$UCSNAME
  2

  9
$UCSORG
 10
0.0
 20
0.0
 30
0.0
  9
$UCSXDIR
 10
1.0
 20
0.0
 30
0.0
  9
$UCSYDIR
 10
0.0
 20
1.0
 30
0.0
  9
$UCSORTHOREF
  2

  9
$UCSORTHOVIEW
 70
0
  9
$UCSORGTOP
 10
0.0
 20
0.0
 30
0.0
  9
$UCSORGBOTTOM
 10
0.0
 20
0.0
 30
0.0
  9
$UCSORGLEFT
 10
0.0
 20
0.0
 30
0.0
  9
$UCSORGRIGHT
 10
0.0
 20
0.0
 30
0.0
  9
$UCSORGFRONT
 10
0.0
 20
0.0
 30
0.0
  9
$UCSORGBACK
 10
0.0
 20
0.0
 30
0.0
  9
$PUCSBASE
  2

  9
$PUCSNAME
  2

  9
$PUCSORG
 10
0.0
 20
0.0
 30
0.0
  9
$PUCSXDIR
 10
1.0
 20
0.0
 30
0.0
  9
$PUCSYDIR
 10
0.0
 20
1.0
 30
0.0
  9
$PUCSORTHOREF
  2

  9
$PUCSORTHOVIEW
 70
0
  9
$PUCSORGTOP
 10
0.0
 20
0.0
 30
0.0
  9
$PUCSORGBOTTOM
 10
0.0
 20
0.0
 30
0.0
  9
$PUCSORGLEFT
 10
0.0
 20
0.0
 30
0.0
  9
$PUCSORGRIGHT
 10
0.0
 20
0.0
 30
0.0
  9
$PUCSORGFRONT
 10
0.0
 20
0.0
 30
0.0
  9
$PUCSORGBACK
 10
0.0
 20
0.0
 30
0.0
  9
$USERI1
 70
0
  9
$USERI2
 70
0
  9
$USERI3
 70
0
  9
$USERI4
 70
0
  9
$USERI5
 70
0
  9
$USERR1
 40
0.0
  9
$USERR2
 40
0.0
  9
$USERR3
 40
0.0
  9
$USERR4
 40
0.0
  9
$USERR5
 40
0.0
  9
$WORLDVIEW
 70
1
  9
$SHADEDGE
 70
3
  9
$SHADEDIF
 70
70
  9
$TILEMODE
 70
1
  9
$MAXACTVP
 70
64
  9
$PINSBASE
 10
0.0
 20
0.0
 30
0.0
  9
$PLIMCHECK
 70
0
  9
$PEXTMIN
 10
1e+20
 20
1e+20
 30
1e+20
  9
$PEXTMAX
 10
-1e+20
 20
-1e+20
 30
-1e+20
  9
$PLIMMIN
 10
0.0
 20
0.0
  9
$PLIMMAX
 10
420.0
 20
297.0
  9
$UNITMODE
 70
0
  9
$VISRETAIN
 70
1
  9
$PLINEGEN
 70
0
  9
$PSLTSCALE
 70
1
  9
$TREEDEPTH
 70
3020
  9
$CMLSTYLE
  2
Standard
  9
$CMLJUST
 70
0
  9
$CMLSCALE
 40
20.0
  9
$PROXYGRAPHICS
 70
1
  9
$MEASUREMENT
 70
1
  9
$CELWEIGHT
370
-1
  9
$ENDCAPS
280
0
  9
$JOINSTYLE
280
0
  9
$LWDISPLAY
290
0
  9
$INSUNITS
 70
6
  9
$HYPERLINKBASE
  1

  9
$STYLESHEET
  1

  9
$XEDIT
290
1
  9
$CEPSNTYPE
380
0
  9
$PSTYLEMODE
290
1
  9
$FINGERPRINTGUID
  2
{94A1DB71-0FC5-4B9D-8660-B980BA567751}
  9
$VERSIONGUID
  2
{B1AA3740-F685-40A4-8D7F-D3A3F76A0F32}
  9
$EXTNAMES
290
1
  9
$PSVPSCALE
 40
0.0
  9
$OLESTARTUP
290
0
  9
$SORTENTS
280
127
  9
$INDEXCTL
280
0
  9
$HIDETEXT
280
1
  9
$XCLIPFRAME
280
1
  9
$HALOGAP
280
0
  9
$OBSCOLOR
 70
257
  9
$OBSLTYPE
280
0
  9
$INTERSECTIONDISPLAY
280
0
  9
$INTERSECTIONCOLOR
 70
257
  9
$DIMASSOC
280
2
  9
$PROJECTNAME
  1

  9
$CAMERADISPLAY
290
0
  9
$LENSLENGTH
 40
50.0
  9
$CAMERAHEIGHT
 40
0.0
  9
$STEPSPERSEC
 40
24.0
  9
$STEPSIZE
 40
100.0
  9
$3DDWFPREC
 40
2.0
  9
$PSOLWIDTH
 40
0.005
  9
$PSOLHEIGHT
 40
0.08
  9
$LOFTANG1
 40
1.570796326795
  9
$LOFTANG2
 40
1.570796326795
  9
$LOFTMAG1
 40
0.0
  9
$LOFTMAG2
 40
0.0
  9
$LOFTPARAM
 70
7
  9
$LOFTNORMALS
280
1
  9
$LATITUDE
 40
37.795
  9
$LONGITUDE
 40
-122.394
  9
$NORTHDIRECTION
 40
0.0
  9
$TIMEZONE
 70
-8000
  9
$LIGHTGLYPHDISPLAY
280
1
  9
$TILEMODELIGHTSYNCH
280
1
  9
$CMATERIAL
347
20
  9
$SOLIDHIST
280
0
  9
$SHOWHIST
280
1
  9
$DWFFRAME
280
2
  9
$DGNFRAME
280
2
  9
$REALWORLDSCALE
290
1
  9
$INTERFERECOLOR
 62
256
  9
$CSHADOW
280
0
  9
$SHADOWPLANELOCATION
 40
0.0
  0
ENDSEC
  0
SECTION
  2
CLASSES
  0
CLASS
  1
ACDBDICTIONARYWDFLT
  2
AcDbDictionaryWithDefault
  3
ObjectDBX Classes
 90
0
 91
0
280
0
281
0
  0
CLASS
  1
SUN
  2
AcDbSun
  3
SCENEOE
 90
1153
 91
0
280
0
281
0
  0
CLASS
  1
VISUALSTYLE
  2
AcDbVisualStyle
  3
ObjectDBX Classes
 90
4095
 91
0
280
0
281
0
  0
CLASS
  1
MATERIAL
  2
AcDbMaterial
  3
ObjectDBX Classes
 90
1153
 91
0
280
0
281
0
  0
CLASS
  1
SCALE
  2
AcDbScale
  3
ObjectDBX Classes
 90
1153
 91
0
280
0
281
0
  0
CLASS
  1
TABLESTYLE
  2
AcDbTableStyle
  3
ObjectDBX Classes
 90
4095
 91
0
280
0
281
0
  0
CLASS
  1
MLEADERSTYLE
  2
AcDbMLeaderStyle
  3
ACDB_MLEADERSTYLE_CLASS
 90
4095
 91
0
280
0
281
0
  0
CLASS
  1
DICTIONARYVAR
  2
AcDbDictionaryVar
  3
ObjectDBX Classes
 90
0
 91
0
280
0
281
0
  0
CLASS
  1
CELLSTYLEMAP
  2
AcDbCellStyleMap
  3
ObjectDBX Classes
 90
1152
 91
0
280
0
281
0
  0
CLASS
  1
MENTALRAYRENDERSETTINGS
  2
AcDbMentalRayRenderSettings
  3
SCENEOE
 90
1024
 91
0
280
0
281
0
  0
CLASS
  1
ACDBDETAILVIEWSTYLE
  2
AcDbDetailViewStyle
  3
ObjectDBX Classes
 90
1025
 91
0
280
0
281
0
  0
CLASS
  1
ACDBSECTIONVIEWSTYLE
  2
AcDbSectionViewStyle
  3
ObjectDBX Classes
 90
1025
 91
0
280
0
281
0
  0
CLASS
  1
RASTERVARIABLES
  2
AcDbRasterVariables
  3
ISM
 90
0
 91
0
280
0
281
0
  0
CLASS
  1
LAYOUT
  2
AcDbLayout
  3
ObjectDBX Classes
 90
0
 91
0
280
0
281
0
  0
CLASS
  1
ACDBPLACEHOLDER
  2
AcDbPlaceHolder
  3
ObjectDBX Classes
 90
0
 91
0
280
0
281
0
  0
ENDSEC
  0
SECTION
  2
TABLES
  0
TABLE
  2
VPORT
  5
8
330
0
100
AcDbSymbolTable
 70
1
  0
VPORT
  5
23
330
8
100
AcDbSymbolTableRecord
100
AcDbViewportTableRecord
  2
*Active
 70
0
 10
0.0
 20
0.0
 11
1.0
 21
1.0
 12
0.0
 22
0.0
 13
0.0
 23
0.0
 14
0.5
 24
0.5
 15
0.5
 25
0.5
 16
0.0
 26
0.0
 36
1.0
 17
0.0
 27
0.0
 37
0.0
 40
1000.0
 41
1.34
 42
50.0
 43
0.0
 44
0.0
 50
0.0
 51
0.0
 71
0
 72
1000
 73
1
 74
3
 75
0
 76
0
 77
0
 78
0
281
0
 65
0
146
0.0
  0
ENDTAB
  0
TABLE
  2
LTYPE
  5
2
330
0
100
AcDbSymbolTable
 70
3
  0
LTYPE
  5
24
330
2
100
AcDbSymbolTableRecord
100
AcDbLinetypeTableRecord
  2
ByBlock
 70
0
  3

 72
65
 73
0
 40
0.0
  0
LTYPE
  5
25
330
2
100
AcDbSymbolTableRecord
100
AcDbLinetypeTableRecord
  2
ByLayer
 70
0
  3

 72
65
 73
0
 40
0.0
  0
LTYPE
  5
26
330
2
100
AcDbSymbolTableRecord
100
AcDbLinetypeTableRecord
  2
Continuous
 70
0
  3

 72
65
 73
0
 40
0.0
  0
ENDTAB
  0
TABLE
  2
LAYER
  5
1
330
0
100
AcDbSymbolTable
 70
4
  0
LAYER
  5
27
330
1
100
AcDbSymbolTableRecord
100
AcDbLayerTableRecord
  2
0
 70
0
 62
7
  6
Continuous
370
-3
390
13
347
21
  0
LAYER
  5
28
330
1
100
AcDbSymbolTableRecord
100
AcDbLayerTableRecord
  2
Defpoints
 70
0
 62
7
  6
Continuous
290
0
370
-3
390
13
347
21
  0
LAYER
  5
91
330
1
100
AcDbSymbolTableRecord
100
AcDbLayerTableRecord
  2
A-DETL-GENF
 70
0
 62
92
  6
Continuous
370
18
390
13
347
21
348
0
  0
LAYER
  5
92
330
1
100
AcDbSymbolTableRecord
100
AcDbLayerTableRecord
  2
A-DETL-MEDM
 70
0
 62
33
  6
Continuous
370
18
390
13
347
21
348
0
  0
ENDTAB
  0
TABLE
  2
STYLE
  5
5
330
0
100
AcDbSymbolTable
 70
1
  0
STYLE
  5
29
330
5
100
AcDbSymbolTableRecord
100
AcDbTextStyleTableRecord
  2
Standard
 70
0
 40
0.0
 41
1.0
 50
0.0
 71
0
 42
2.5
  3
txt
  4

  0
ENDTAB
  0
TABLE
  2
VIEW
  5
7
330
0
100
AcDbSymbolTable
 70
0
  0
ENDTAB
  0
TABLE
  2
UCS
  5
6
330
0
100
AcDbSymbolTable
 70
0
  0
ENDTAB
  0
TABLE
  2
APPID
  5
3
330
0
100
AcDbSymbolTable
 70
3
  0
APPID
  5
2A
330
3
100
AcDbSymbolTableRecord
100
AcDbRegAppTableRecord
  2
ACAD
 70
0
  0
APPID
  5
95
330
3
100
AcDbSymbolTableRecord
100
AcDbRegAppTableRecord
  2
HATCHBACKGROUNDCOLOR
 70
0
  0
APPID
  5
96
330
3
100
AcDbSymbolTableRecord
100
AcDbRegAppTableRecord
  2
EZDXF
 70
0
  0
ENDTAB
  0
TABLE
  2
DIMSTYLE
  5
4
330
0
100
AcDbSymbolTable
 70
1
100
AcDbDimStyleTable
  0
DIMSTYLE
105
2B
330
4
100
AcDbSymbolTableRecord
100
AcDbDimStyleTableRecord
  2
Standard
 70
0
 40
1.0
 41
2.5
 42
0.625
 43
3.75
 44
1.25
 45
0.0
 46
0.0
 47
0.0
 48
0.0
 49
2.5
140
2.5
141
2.5
142
0.0
143
0.03937007874
144
1.0
145
0.0
146
1.0
147
0.625
148
0.0
 69
0
 70
0
 71
0
 72
0
 73
0
 74
0
 75
0
 76
0
 77
1
 78
8
 79
3
170
0
171
3
172
1
173
0
174
0
175
0
176
0
177
0
178
0
179
2
271
2
272
2
273
2
274
3
275
0
276
0
277
2
278
44
279
0
280
0
281
0
282
0
283
0
284
8
285
0
286
0
288
0
289
3
290
0
371
-2
372
-2
  0
ENDTAB
  0
TABLE
  2
BLOCK_RECORD
  5
9
330
0
100
AcDbSymbolTable
 70
3
  0
BLOCK_RECORD
  5
17
330
9
100
AcDbSymbolTableRecord
100
AcDbBlockTableRecord
  2
*Model_Space
340
1A
 70
0
280
1
281
0
  0
BLOCK_RECORD
  5
1B
330
9
100
AcDbSymbolTableRecord
100
AcDbBlockTableRecord
  2
*Paper_Space
340
1E
 70
0
280
1
281
0
  0
BLOCK_RECORD
  5
2F
330
9
100
AcDbSymbolTableRecord
100
AcDbBlockTableRecord
  2
37 DI opstand lichtkoepel - opstand 150mm-1586011-00_0 Basismaterialen
340
0
 70
0
280
1
281
0
  0
ENDTAB
  0
ENDSEC
  0
SECTION
  2
BLOCKS
  0
BLOCK
  5
18
330
17
100
AcDbEntity
  8
0
100
AcDbBlockBegin
  2
*Model_Space
 70
0
 10
0.0
 20
0.0
 30
0.0
  3
*Model_Space
  1

  0
ENDBLK
  5
19
330
17
100
AcDbEntity
  8
0
100
AcDbBlockEnd
  0
BLOCK
  5
1C
330
1B
100
AcDbEntity
  8
0
100
AcDbBlockBegin
  2
*Paper_Space
 70
0
 10
0.0
 20
0.0
 30
0.0
  3
*Paper_Space
  1

  0
ENDBLK
  5
1D
330
1B
100
AcDbEntity
  8
0
100
AcDbBlockEnd
  0
BLOCK
  5
30
330
2F
100
AcDbEntity
  8
0
100
AcDbBlockBegin
  2
37 DI opstand lichtkoepel - opstand 150mm-1586011-00_0 Basismaterialen
 70
0
 10
0.0
 20
0.0
 30
0.0
  3
37 DI opstand lichtkoepel - opstand 150mm-1586011-00_0 Basismaterialen
  1

  0
HATCH
  5
32
330
2F
100
AcDbEntity
  8
A-DETL-GENF
370
13
100
AcDbHatch
 10
0.0
 20
0.0
 30
0.0
210
0.0
220
0.0
230
1.0
  2
FP_576
 70
0
 71
0
 91
1
 92
1
 93
30
 72
1
 10
-0.7041630560485601
 20
1.708392021690662
 11
98.29999999994298
 21
100.7125550776454
 72
1
 10
98.29999999994298
 20
100.7125550776454
 11
98.29999999994298
 21
148.3000000000009
 72
1
 10
98.29999999994298
 20
148.3000000000009
 11
46.77491721759762
 21
148.3000000000009
 72
1
 10
46.77491721759762
 20
148.3000000000009
 11
47.31161956516403
 21
147.37081178235
 72
1
 10
47.31161956516403
 20
147.37081178235
 11
47.62357895687076
 21
146.3441075933915
 72
1
 10
47.62357895687076
 20
146.3441075933915
 11
47.69453452491159
 21
145.273404338018
 72
1
 10
47.69453452491159
 20
145.273404338018
 11
47.52078771382723
 21
144.2145123702784
 72
1
 10
47.52078771382723
 20
144.2145123702784
 11
47.11139506751581
 21
143.2226263814449
 72
1
 10
47.11139506751581
 20
143.2226263814449
 11
46.44106724233624
 21
142.2985852762495
 72
1
 10
46.44106724233624
 20
142.2985852762495
 11
45.56773493141332
 21
141.5634104453467
 72
1
 10
45.56773493141332
 20
141.5634104453467
 11
44.54292005052287
 21
141.0604732552258
 72
1
 10
44.54292005052287
 20
141.0604732552258
 11
43.42708117348595
 21
140.8194442988873
 72
1
 10
43.42708117348595
 20
140.8194442988873
 11
42.28604680101237
 21
140.8545429902232
 72
1
 10
42.28604680101237
 20
140.8545429902232
 11
39.42803602858619
 21
140.0729401569428
 72
1
 10
39.42803602858619
 20
140.0729401569428
 11
39.25158479042828
 21
139.9050552759742
 72
1
 10
39.25158479042828
 20
139.9050552759742
 11
39.17692714732842
 21
139.6732221268522
 72
1
 10
39.17692714732842
 20
139.6732221268522
 11
39.18459282962702
 21
139.5507301604566
 72
1
 10
39.18459282962702
 20
139.5507301604566
 11
39.37651424250756
 21
139.2454427850622
 72
1
 10
39.37651424250756
 20
139.2454427850622
 11
59.86143104385877
 21
124.1355009654053
 72
1
 10
59.86143104385877
 20
124.1355009654053
 11
61.9896962025813
 21
122.1190342186994
 72
1
 10
61.9896962025813
 20
122.1190342186994
 11
63.56329629387125
 21
119.6452853472334
 72
1
 10
63.56329629387125
 20
119.6452853472334
 11
64.48762835542605
 21
116.862973185312
 72
1
 10
64.48762835542605
 20
116.862973185312
 11
64.70712264519227
 21
113.9393670245651
 72
1
 10
64.70712264519227
 20
113.9393670245651
 11
64.2085834280206
 21
111.0502305834575
 72
1
 10
64.2085834280206
 20
111.0502305834575
 11
63.0219822875639
 21
108.3692553019841
 72
1
 10
63.0219822875639
 20
108.3692553019841
 11
61.21865627037671
 21
106.0576182192813
 72
1
 10
61.21865627037671
 20
106.0576182192813
 11
-25.21118551805626
 21
19.62777643088297
 72
1
 10
-25.21118551805626
 20
19.62777643088297
 11
-113.3000000000349
 21
5.675878850540584
 72
1
 10
-113.3000000000349
 20
5.675878850540584
 11
-113.3000000000349
 21
1.708392021690662
 72
1
 10
-113.3000000000349
 20
1.708392021690662
 11
-0.7041630560485573
 21
1.708392021690662
 97
0
 75
0
 76
2
 52
0.0
 41
1.0
 77
0
 78
2
 53
105.0
 43
239.521
 44
29.924
 45
-28.97777478867205
 46
-7.764571353075625
 79
0
 53
165.0
 43
239.521
 44
29.924
 45
-7.76457135307563
 46
-28.97777478867205
 79
0
 98
1
 10
0.0
 20
0.0
  0
LINE
  5
33
330
2F
100
AcDbEntity
  8
A-DETL-MEDM
100
AcDbLine
 10
42.28604680102795
 20
140.8545429902206
 30
0.0
 11
39.54171509551424
 21
140.1192015259484
 31
0.0
  0
ARC
  5
34
330
2F
100
AcDbEntity
  8
A-DETL-MEDM
100
AcDbCircle
 10
39.66943141300268
 20
139.6425577401368
 30
0.0
 40
0.4934579579920261
100
AcDbArc
 50
105.0000000003253
 51
233.5870305251813
  0
LINE
  5
35
330
2F
100
AcDbEntity
  8
A-DETL-MEDM
100
AcDbLine
 10
39.37651424252548
 20
139.2454427850605
 30
0.0
 11
59.8614310438813
 21
124.1355009654143
 31
0.0
  0
ARC
  5
36
330
2F
100
AcDbEntity
  8
A-DETL-MEDM
100
AcDbCircle
 10
52.76354747036348
 20
114.5127270193114
 30
0.0
 40
11.95732953634331
100
AcDbArc
 50
314.9999999999894
 51
53.58703052518073
  0
LINE
  5
37
330
2F
100
AcDbEntity
  8
A-DETL-MEDM
100
AcDbLine
 10
61.21865627039224
 20
106.0576182192795
 30
0.0
 11
-25.21118551803743
 21
19.62777643088186
 31
0.0
  0
LINE
  5
38
330
2F
100
AcDbEntity
  8
A-DETL-MEDM
100
AcDbLine
 10
-25.21118551803741
 20
19.62777643088188
 30
0.0
 11
-113.3000000000214
 21
5.675878850540043
 31
0.0
  0
LINE
  5
39
330
2F
100
AcDbEntity
  8
A-DETL-MEDM
100
AcDbLine
 10
-113.3000000000214
 20
5.675878850540043
 30
0.0
 11
-113.3000000000214
 21
1.708392021689917
 31
0.0
  0
LINE
  5
3A
330
2F
100
AcDbEntity
  8
A-DETL-MEDM
100
AcDbLine
 10
-113.3000000000214
 20
1.708392021689917
 30
0.0
 11
-0.7041630560316064
 21
1.708392021689917
 31
0.0
  0
LINE
  5
3B
330
2F
100
AcDbEntity
  8
A-DETL-MEDM
100
AcDbLine
 10
-0.7041630560316064
 20
1.708392021689934
 30
0.0
 11
98.29999999995913
 21
100.7125550776446
 31
0.0
  0
LINE
  5
3C
330
2F
100
AcDbEntity
  8
A-DETL-MEDM
100
AcDbLine
 10
98.29999999995913
 20
100.7125550776446
 30
0.0
 11
98.29999999995913
 21
148.3000000000003
 31
0.0
  0
LINE
  5
3D
330
2F
100
AcDbEntity
  8
A-DETL-MEDM
100
AcDbLine
 10
98.29999999995913
 20
148.3000000000003
 30
0.0
 11
46.77491721761392
 21
148.3000000000003
 31
0.0
  0
ARC
  5
3E
330
2F
100
AcDbEntity
  8
A-DETL-MEDM
100
AcDbCircle
 10
42.99999999997858
 20
145.5000000000001
 30
0.0
 40
4.700000000000086
100
AcDbArc
 50
331.0171647683116
 51
36.56573693218592
  0
ARC
  5
3F
330
2F
100
AcDbEntity
  8
A-DETL-MEDM
100
AcDbCircle
 10
42.99999999997859
 20
145.5
 30
0.0
 40
4.700000000000057
100
AcDbArc
 50
261.2626634475738
 51
331.0171647683117
  0
LINE
  5
40
330
2F
100
AcDbEntity
  8
A-DETL-GENF
100
AcDbLine
 10
81.24386750446939
 20
163.1303896280287
 30
0.0
 11
32.24386750447235
 21
163.1303896280287
 31
0.0
  0
LINE
  5
41
330
2F
100
AcDbEntity
  8
A-DETL-GENF
100
AcDbLine
 10
32.24386750447235
 20
163.1303896280287
 30
0.0
 11
30.86269665458914
 21
159.5950274486233
 31
0.0
  0
LINE
  5
42
330
2F
100
AcDbEntity
  8
A-DETL-GENF
100
AcDbLine
 10
30.86269665458914
 20
159.5950274486233
 30
0.0
 11
30.17902181316076
 21
153.4184139196112
 31
0.0
  0
LINE
  5
43
330
2F
100
AcDbEntity
  8
A-DETL-GENF
100
AcDbLine
 10
30.17902181316078
 20
153.4184139196115
 30
0.0
 11
29.39005223983629
 21
143.578627574751
 31
0.0
  0
LINE
  5
44
330
2F
100
AcDbEntity
  8
A-DETL-GENF
100
AcDbLine
 10
29.39005223983627
 20
143.5786275747506
 30
0.0
 11
28.45776836515888
 21
136.4933548033141
 31
0.0
  0
LINE
  5
45
330
2F
100
AcDbEntity
  8
A-DETL-GENF
100
AcDbLine
 10
28.45776836515888
 20
136.4933548033141
 30
0.0
 11
27.04355480278552
 21
135.0791412409444
 31
0.0
  0
LINE
  5
46
330
2F
100
AcDbEntity
  8
A-DETL-GENF
100
AcDbLine
 10
27.04355480278552
 20
135.0791412409444
 30
0.0
 11
25.5086494822973
 21
135.0791412409444
 31
0.0
  0
ARC
  5
47
330
2F
100
AcDbEntity
  8
A-DETL-GENF
100
AcDbCircle
 10
449.9999999999782
 20
-259.3405140427833
 30
0.0
 40
557.4729755189703
100
AcDbArc
 50
100.3337006413602
 51
131.1391823352594
  0
LINE
  5
48
330
2F
100
AcDbEntity
  8
A-DETL-GENF
100
AcDbLine
 10
83.24386750446953
 20
160.500000570696
 30
0.0
 11
33.9819300658711
 21
160.500000570696
 31
0.0
  0
LINE
  5
49
330
2F
100
AcDbEntity
  8
A-DETL-GENF
100
AcDbLine
 10
33.9819300658711
 20
160.500000570696
 30
0.0
 11
33.36060972231285
 21
158.3786802271339
 31
0.0
  0
LINE
  5
4A
330
2F
100
AcDbEntity
  8
A-DETL-GENF
100
AcDbLine
 10
33.36060972231285
 20
158.3786802271339
 30
0.0
 11
32.04363173517791
 21
138.2262973571328
 31
0.0
  0
LINE
  5
4B
330
2F
100
AcDbEntity
  8
A-DETL-GENF
100
AcDbLine
 10
32.04363173517789
 20
138.2262973571328
 30
0.0
 11
29.73009901886135
 21
130.9411727186642
 31
0.0
  0
LINE
  5
4C
330
2F
100
AcDbEntity
  8
A-DETL-GENF
100
AcDbLine
 10
28.77700474181994
 20
130.2438463036878
 30
0.0
 11
25.5086494822973
 21
130.2438463036878
 31
0.0
  0
LINE
  5
4D
330
2F
100
AcDbEntity
  8
A-DETL-GENF
100
AcDbLine
 10
24.5086494822974
 20
131.2438463036878
 30
0.0
 11
24.5086494822974
 21
134.0791412409444
 31
0.0
  0
LINE
  5
4E
330
2F
100
AcDbEntity
  8
A-DETL-GENF
100
AcDbLine
 10
83.74386750446897
 20
160.500000570696
 30
0.0
 11
45.74386750447252
 21
160.500000570696
 31
0.0
  0
LINE
  5
4F
330
2F
100
AcDbEntity
  8
A-DETL-GENF
100
AcDbLine
 10
45.74386750447252
 20
160.500000570696
 30
0.0
 11
45.74386750447252
 21
158.000000570696
 31
0.0
  0
LINE
  5
50
330
2F
100
AcDbEntity
  8
A-DETL-GENF
100
AcDbLine
 10
45.74386750447252
 20
158.000000570696
 30
0.0
 11
45.74386750447252
 21
155.5000005706961
 31
0.0
  0
LINE
  5
51
330
2F
100
AcDbEntity
  8
A-DETL-GENF
100
AcDbLine
 10
45.74386750447252
 20
155.5000005706961
 30
0.0
 11
45.74386750447252
 21
153.0000005706961
 31
0.0
  0
ARC
  5
52
330
2F
100
AcDbEntity
  8
A-DETL-GENF
100
AcDbCircle
 10
449.9999999999782
 20
-344.5199669143458
 30
0.0
 40
620.6519538209408
100
AcDbArc
 50
99.27196311362307
 51
125.9368170262742
  0
LINE
  5
53
330
2F
100
AcDbEntity
  8
A-DETL-GENF
100
AcDbLine
 10
85.74386750447238
 20
158.000000570696
 30
0.0
 11
45.74386750447252
 21
158.000000570696
 31
0.0
  0
LINE
  5
54
330
2F
100
AcDbEntity
  8
A-DETL-GENF
100
AcDbLine
 10
45.74386750447252
 20
158.000000570696
 30
0.0
 11
45.74386750447252
 21
155.5000005706961
 31
0.0
  0
ARC
  5
55
330
2F
100
AcDbEntity
  8
A-DETL-GENF
100
AcDbCircle
 10
449.9999999999782
 20
-445.6240539711532
 30
0.0
 40
704.7556478309554
100
AcDbArc
 50
98.15740961203787
 51
121.0740218497305
  0
LINE
  5
56
330
2F
100
AcDbEntity
  8
A-DETL-GENF
100
AcDbLine
 10
86.24386750447232
 20
158.000000570696
 30
0.0
 11
45.74386750447252
 21
158.000000570696
 31
0.0
  0
LINE
  5
57
330
2F
100
AcDbEntity
  8
A-DETL-GENF
100
AcDbLine
 10
45.74386750447252
 20
158.000000570696
 30
0.0
 11
45.74386750447252
 21
160.500000570696
 31
0.0
  0
LINE
  5
58
330
2F
100
AcDbEntity
  8
A-DETL-GENF
100
AcDbLine
 10
45.74386750447252
 20
160.500000570696
 30
0.0
 11
83.74386750446897
 21
160.500000570696
 31
0.0
  0
ARC
  5
59
330
2F
100
AcDbEntity
  8
A-DETL-GENF
100
AcDbCircle
 10
449.9999999999782
 20
-335.1870319229202
 30
0.0
 40
616.3190640998336
100
AcDbArc
 50
99.3377287336471
 51
126.4601705588802
  0
ARC
  5
5A
330
2F
100
AcDbEntity
  8
A-DETL-GENF
100
AcDbCircle
 10
449.9999999999782
 20
-458.6002351353636
 30
0.0
 40
712.7317860824959
100
AcDbArc
 50
98.06550920018294
 51
120.5016242112694
  0
LINE
  5
5B
330
2F
100
AcDbEntity
  8
A-DETL-GENF
100
AcDbLine
 10
88.24386750447214
 20
155.5000005706961
 30
0.0
 11
45.74386750447252
 21
155.5000005706961
 31
0.0
  0
LINE
  5
5C
330
2F
100
AcDbEntity
  8
A-DETL-GENF
100
AcDbLine
 10
45.74386750447252
 20
155.5000005706961
 30
0.0
 11
45.74386750447252
 21
158.000000570696
 31
0.0
  0
ARC
  5
5D
330
2F
100
AcDbEntity
  8
A-DETL-GENF
100
AcDbCircle
 10
449.9999999999782
 20
-603.0477914347351
 30
0.0
 40
840.1789964179812
100
AcDbArc
 50
96.83567759408685
 51
115.4659863186031
  0
LINE
  5
5E
330
2F
100
AcDbEntity
  8
A-DETL-GENF
100
AcDbLine
 10
88.74386750447175
 20
155.5000005706961
 30
0.0
 11
45.74386750447252
 21
155.5000005706961
 31
0.0
  0
LINE
  5
5F
330
2F
100
AcDbEntity
  8
A-DETL-GENF
100
AcDbLine
 10
45.74386750447252
 20
155.5000005706961
 30
0.0
 11
45.74386750447252
 21
153.0000005706961
 31
0.0
  0
ARC
  5
60
330
2F
100
AcDbEntity
  8
A-DETL-GENF
100
AcDbCircle
 10
449.9999999999782
 20
-622.9472909711588
 30
0.0
 40
855.0784572112489
100
AcDbArc
 50
96.71601469441958
 51
114.8436827744237
  0
LINE
  5
61
330
2F
100
AcDbEntity
  8
A-DETL-GENF
100
AcDbLine
 10
90.74386750447171
 20
153.0000005706961
 30
0.0
 11
45.74386750447252
 21
153.0000005706961
 31
0.0
  0
LINE
  5
62
330
2F
100
AcDbEntity
  8
A-DETL-MEDM
100
AcDbLine
 10
99.99999999997767
 20
153.9999999999943
 30
0.0
 11
99.9999999999776
 21
100.0083920216313
 31
0.0
  0
LINE
  5
63
330
2F
100
AcDbEntity
  8
A-DETL-MEDM
100
AcDbLine
 10
-81.90978126243903
 20
12.36879179063817
 30
0.0
 11
-26.02268708073229
 21
21.22043792422008
 31
0.0
  0
LINE
  5
64
330
2F
100
AcDbEntity
  8
A-DETL-MEDM
100
AcDbLine
 10
99.99999999997758
 20
100.0083920216312
 30
0.0
 11
-1.69e-14
 21
0.0083920216900672
 31
0.0
  0
LINE
  5
65
330
2F
100
AcDbEntity
  8
A-DETL-MEDM
100
AcDbLine
 10
-115.0000000000213
 20
5.406625301844033
 30
0.0
 11
-130.0000000000213
 21
3.030858696948603
 31
0.0
  0
LINE
  5
66
330
2F
100
AcDbEntity
  8
A-DETL-MEDM
100
AcDbLine
 10
1.69e-14
 20
0.008392021690101
 30
0.0
 11
-113.0000000000214
 21
0.008392021690101
 31
0.0
  0
ARC
  5
67
330
2F
100
AcDbEntity
  8
A-DETL-MEDM
100
AcDbCircle
 10
-113.0000000000214
 20
2.00839202169012
 30
0.0
 40
2.000000000000019
100
AcDbArc
 50
180.0
 51
269.9999999999997
  0
LINE
  5
68
330
2F
100
AcDbEntity
  8
A-DETL-MEDM
100
AcDbLine
 10
-115.0000000000213
 20
2.008392021690119
 30
0.0
 11
-115.0000000000213
 21
5.406625301844033
 31
0.0
  0
LINE
  5
69
330
2F
100
AcDbEntity
  8
A-DETL-MEDM
100
AcDbLine
 10
-131.2000000000212
 20
2.840797368542344
 30
0.0
 11
-149.0170307047399
 21
0.0188569321871797
 31
0.0
  0
ARC
  5
6A
330
2F
100
AcDbEntity
  8
A-DETL-MEDM
100
AcDbCircle
 10
-149.150000000021
 20
0.8583920216903814
 30
0.0
 40
0.8500000000000038
100
AcDbArc
 50
98.99999999998457
 51
278.9999999998213
  0
LINE
  5
6B
330
2F
100
AcDbEntity
  8
A-DETL-MEDM
100
AcDbLine
 10
-149.2829692953045
 20
1.697927111192945
 30
0.0
 11
-81.909781262439
 21
12.36879179063821
 31
0.0
  0
LINE
  5
6C
330
2F
100
AcDbEntity
  8
A-DETL-MEDM
100
AcDbLine
 10
-131.2000000000212
 20
2.840797368542344
 30
0.0
 11
-131.2000000000212
 21
0.599999999999999
 31
0.0
  0
LINE
  5
6D
330
2F
100
AcDbEntity
  8
A-DETL-MEDM
100
AcDbLine
 10
-130.0000000000213
 20
0.599999999999999
 30
0.0
 11
-130.0000000000213
 21
3.030858696948603
 31
0.0
  0
LINE
  5
6E
330
2F
100
AcDbEntity
  8
A-DETL-MEDM
100
AcDbLine
 10
42.99999999997831
 20
149.9999999999999
 30
0.0
 11
98.29999999997806
 21
149.9999999999999
 31
0.0
  0
ARC
  5
6F
330
2F
100
AcDbEntity
  8
A-DETL-MEDM
100
AcDbCircle
 10
42.99999999997831
 20
145.5000000000001
 30
0.0
 40
4.499999999999982
100
AcDbArc
 50
89.99999999999982
 51
119.9264348667829
  0
ARC
  5
70
330
2F
100
AcDbEntity
  8
A-DETL-MEDM
100
AcDbCircle
 10
41.12917130657864
 20
148.75
 30
0.0
 40
0.750000000000035
100
AcDbArc
 50
119.9264348667833
 51
299.9264348667804
  0
ARC
  5
71
330
2F
100
AcDbEntity
  8
A-DETL-MEDM
100
AcDbCircle
 10
42.99999999997831
 20
145.5000000000001
 30
0.0
 40
2.99999999999999
100
AcDbArc
 50
255.1648884178819
 51
119.9264348667831
  0
LINE
  5
72
330
2F
100
AcDbEntity
  8
A-DETL-MEDM
100
AcDbLine
 10
37.86310674619758
 20
141.4293892810306
 30
0.0
 11
42.23188542518427
 21
142.600000000002
 31
0.0
  0
LINE
  5
73
330
2F
100
AcDbEntity
  8
A-DETL-MEDM
100
AcDbLine
 10
35.47553944014849
 20
131.8533798519801
 30
0.0
 11
37.86310674619758
 21
141.4293892810306
 31
0.0
  0
ARC
  5
74
330
2F
100
AcDbEntity
  8
A-DETL-MEDM
100
AcDbCircle
 10
41.29731379777889
 20
130.4018484784514
 30
0.0
 40
5.999999999999996
100
AcDbArc
 50
166.0000000005833
 51
216.0000000002682
  0
LINE
  5
75
330
2F
100
AcDbEntity
  8
A-DETL-MEDM
100
AcDbLine
 10
36.44321183157934
 20
126.8751369646982
 30
0.0
 11
41.4326825889148
 21
120.0077196216498
 31
0.0
  0
ARC
  5
76
330
2F
100
AcDbEntity
  8
A-DETL-MEDM
100
AcDbCircle
 10
43.85973357196087
 20
121.7710753784874
 30
0.0
 40
2.999999999999996
100
AcDbArc
 50
216.0000000002684
 51
315.9999999981609
  0
ARC
  5
77
330
2F
100
AcDbEntity
  8
A-DETL-MEDM
100
AcDbCircle
 10
43.85973357196087
 20
121.7710753784874
 30
0.0
 40
1.299999999999976
100
AcDbArc
 50
215.9999999998721
 51
315.9999999981609
  0
LINE
  5
78
330
2F
100
AcDbEntity
  8
A-DETL-MEDM
100
AcDbLine
 10
42.80801147927173
 20
121.0069545505095
 30
0.0
 11
37.84514903343678
 21
127.8377486947742
 31
0.0
  0
LINE
  5
79
330
2F
100
AcDbEntity
  8
A-DETL-MEDM
100
AcDbLine
 10
37.13599367983056
 20
131.4860367171803
 30
0.0
 11
38.67327361412744
 21
137.6517297670506
 31
0.0
  0
LINE
  5
7A
330
2F
100
AcDbEntity
  8
A-DETL-MEDM
100
AcDbLine
 10
59.09301656711893
 20
122.5898610280152
 30
0.0
 11
38.67327361412744
 21
137.6517297670506
 31
0.0
  0
ARC
  5
7B
330
2F
100
AcDbEntity
  8
A-DETL-MEDM
100
AcDbCircle
 10
45.40631414263447
 20
120.2775598819573
 30
0.0
 40
0.8500000000000124
100
AcDbArc
 50
315.999999998161
 51
135.9999999981617
  0
LINE
  5
7C
330
2F
100
AcDbEntity
  8
A-DETL-MEDM
100
AcDbLine
 10
98.82635182230709
 20
154.9848077530057
 30
0.0
 11
93.3263518223136
 21
154.0150093590877
 31
0.0
  0
LINE
  5
7D
330
2F
100
AcDbEntity
  8
A-DETL-MEDM
100
AcDbLine
 10
95.07760793984124
 20
151.3918215021625
 30
0.0
 11
96.59289321879108
 21
152.9071067811136
 31
0.0
  0
ARC
  5
7E
330
2F
100
AcDbEntity
  8
A-DETL-MEDM
100
AcDbCircle
 10
97.29999999997801
 20
152.1999999999272
 30
0.0
 40
1.000000000000042
100
AcDbArc
 50
0.0
 51
135.0000000000234
  0
LINE
  5
7F
330
2F
100
AcDbEntity
  8
A-DETL-MEDM
100
AcDbLine
 10
98.29999999997806
 20
152.1999999999272
 30
0.0
 11
98.29999999997806
 21
149.9999999999999
 31
0.0
  0
LINE
  5
80
330
2F
100
AcDbEntity
  8
A-DETL-MEDM
100
AcDbLine
 10
93.1579798566581
 20
152.0905089853075
 30
0.0
 11
95.07760793984124
 21
151.3918215021625
 31
0.0
  0
ARC
  5
81
330
2F
100
AcDbEntity
  8
A-DETL-MEDM
100
AcDbCircle
 10
93.49999999998295
 20
153.0302016060846
 30
0.0
 40
1.000000000000049
100
AcDbArc
 50
100.0000000002279
 51
249.9999999998701
  0
ARC
  5
82
330
2F
100
AcDbEntity
  8
A-DETL-MEDM
100
AcDbCircle
 10
98.9999999999779
 20
153.9999999999943
 30
0.0
 40
0.9999999999999005
100
AcDbArc
 50
0.0
 51
100.0000000002277
  0
LINE
  5
83
330
2F
100
AcDbEntity
  8
A-DETL-GENF
100
AcDbLine
 10
55.23806289429392
 20
163.1303896280287
 30
0.0
 11
55.23806289429392
 21
169.1303896280287
 31
0.0
  0
LINE
  5
84
330
2F
100
AcDbEntity
  8
A-DETL-GENF
100
AcDbLine
 10
55.23806289429392
 20
169.1303896280287
 30
0.0
 11
75.23806289429398
 21
169.1303896280287
 31
0.0
  0
LINE
  5
85
330
2F
100
AcDbEntity
  8
A-DETL-GENF
100
AcDbLine
 10
57.23806289429401
 20
169.1303896280287
 30
0.0
 11
57.23806289429401
 21
175.1303896280287
 31
0.0
  0
LINE
  5
86
330
2F
100
AcDbEntity
  8
A-DETL-GENF
100
AcDbLine
 10
57.23806289429401
 20
175.1303896280287
 30
0.0
 11
73.23806289429389
 21
175.1303896280287
 31
0.0
  0
LINE
  5
87
330
2F
100
AcDbEntity
  8
A-DETL-GENF
100
AcDbLine
 10
73.23806289429389
 20
175.1303896280287
 30
0.0
 11
73.23806289429389
 21
169.1303896280287
 31
0.0
  0
LINE
  5
88
330
2F
100
AcDbEntity
  8
A-DETL-GENF
100
AcDbLine
 10
75.23806289429398
 20
169.1303896280287
 30
0.0
 11
75.23806289429398
 21
163.1303896280287
 31
0.0
  0
ARC
  5
89
330
2F
100
AcDbEntity
  8
A-DETL-MEDM
100
AcDbCircle
 10
-130.6000000000572
 20
0.599999999999999
 30
0.0
 40
0.5999999999999944
100
AcDbArc
 50
179.9999999999996
 51
0.0
  0
ARC
  5
8A
330
2F
100
AcDbEntity
  8
A-DETL-MEDM
100
AcDbCircle
 10
41.40246081265377
 20
130.4222869877376
 30
0.0
 40
4.397079176265877
100
AcDbArc
 50
165.9999999997495
 51
215.9999999998717
  0
ARC
  5
8B
330
2F
100
AcDbEntity
  8
A-DETL-GENF
100
AcDbCircle
 10
28.77700474181994
 20
131.2438463036878
 30
0.0
 40
0.9999999999999978
100
AcDbArc
 50
269.9999999999997
 51
342.3817441773165
  0
ARC
  5
8C
330
2F
100
AcDbEntity
  8
A-DETL-GENF
100
AcDbCircle
 10
25.5086494822973
 20
131.2438463036878
 30
0.0
 40
1.0
100
AcDbArc
 50
180.0
 51
269.9999999999997
  0
ARC
  5
8D
330
2F
100
AcDbEntity
  8
A-DETL-GENF
100
AcDbCircle
 10
25.5086494822973
 20
134.0791412409444
 30
0.0
 40
1.0
100
AcDbArc
 50
90.0
 51
180.0
  0
LINE
  5
8E
330
2F
100
AcDbEntity
  8
A-DETL-MEDM
100
AcDbLine
 10
60.22807370708471
 20
107.4711987120057
 30
0.0
 11
-26.02268708073226
 21
21.22043792422011
 31
0.0
  0
ARC
  5
8F
330
2F
100
AcDbEntity
  8
A-DETL-MEDM
100
AcDbCircle
 10
53.15700589522049
 20
114.5422665238725
 30
0.0
 40
10.0
100
AcDbArc
 50
314.9999999999892
 51
53.58703052515802
  0
ARC
  5
90
330
2F
100
AcDbEntity
  8
A-DETL-GENF
100
AcDbCircle
 10
449.9999999999799
 20
-252.5079513968652
 30
0.0
 40
555.640455495251
100
AcDbArc
 50
100.3681578161455
 51
131.5795769385946
  0
ENDBLK
  5
31
330
2F
100
AcDbEntity
  8
0
100
AcDbBlockEnd
  0
ENDSEC
  0
SECTION
  2
ENTITIES
  0
INSERT
  5
93
330
17
100
AcDbEntity
  8
0
100
AcDbBlockReference
  2
37 DI opstand lichtkoepel - opstand 150mm-1586011-00_0 Basismaterialen
 10
0.0
 20
0.0
 30
0.0
  0
ENDSEC
  0
SECTION
  2
OBJECTS
  0
DICTIONARY
  5
A
330
0
100
AcDbDictionary
281
1
  3
ACAD_COLOR
350
B
  3
ACAD_GROUP
350
C
  3
ACAD_LAYOUT
350
D
  3
ACAD_MATERIAL
350
E
  3
ACAD_MLEADERSTYLE
350
F
  3
ACAD_MLINESTYLE
350
10
  3
ACAD_PLOTSETTINGS
350
11
  3
ACAD_PLOTSTYLENAME
350
12
  3
ACAD_SCALELIST
350
14
  3
ACAD_TABLESTYLE
350
15
  3
ACAD_VISUALSTYLE
350
16
  3
EZDXF_META
350
2D
  0
DICTIONARY
  5
B
330
A
100
AcDbDictionary
281
1
  0
DICTIONARY
  5
C
330
A
100
AcDbDictionary
281
1
  0
DICTIONARY
  5
D
330
A
100
AcDbDictionary
281
1
  3
Model
350
1A
  3
Layout1
350
1E
  0
DICTIONARY
  5
E
330
A
100
AcDbDictionary
281
1
  3
ByBlock
350
1F
  3
ByLayer
350
20
  3
Global
350
21
  0
DICTIONARY
  5
F
330
A
100
AcDbDictionary
281
1
  3
Standard
350
2C
  0
DICTIONARY
  5
10
330
A
100
AcDbDictionary
281
1
  3
Standard
350
22
  0
DICTIONARY
  5
11
330
A
100
AcDbDictionary
281
1
  0
ACDBDICTIONARYWDFLT
  5
12
330
A
100
AcDbDictionary
281
1
  3
Normal
350
13
100
AcDbDictionaryWithDefault
340
13
  0
ACDBPLACEHOLDER
  5
13
330
12
  0
DICTIONARY
  5
14
330
A
100
AcDbDictionary
281
1
  0
DICTIONARY
  5
15
330
A
100
AcDbDictionary
281
1
  0
DICTIONARY
  5
16
330
A
100
AcDbDictionary
281
1
  0
LAYOUT
  5
1A
330
D
100
AcDbPlotSettings
  1

  4
A3
  6

 40
7.5
 41
20.0
 42
7.5
 43
20.0
 44
420.0
 45
297.0
 46
0.0
 47
0.0
 48
0.0
 49
0.0
140
0.0
141
0.0
142
1.0
143
1.0
 70
1024
 72
1
 73
0
 74
5
  7

 75
16
 76
0
 77
2
 78
300
147
1.0
148
0.0
149
0.0
100
AcDbLayout
  1
Model
 70
1
 71
0
 10
0.0
 20
0.0
 11
420.0
 21
297.0
 12
0.0
 22
0.0
 32
0.0
 14
1e+20
 24
1e+20
 34
1e+20
 15
-1e+20
 25
-1e+20
 35
-1e+20
146
0.0
 13
0.0
 23
0.0
 33
0.0
 16
1.0
 26
0.0
 36
0.0
 17
0.0
 27
1.0
 37
0.0
 76
1
330
17
  0
LAYOUT
  5
1E
330
D
100
AcDbPlotSettings
  1

  4
A3
  6

 40
7.5
 41
20.0
 42
7.5
 43
20.0
 44
420.0
 45
297.0
 46
0.0
 47
0.0
 48
0.0
 49
0.0
140
0.0
141
0.0
142
1.0
143
1.0
 70
0
 72
1
 73
0
 74
5
  7

 75
16
 76
0
 77
2
 78
300
147
1.0
148
0.0
149
0.0
100
AcDbLayout
  1
Layout1
 70
1
 71
1
 10
0.0
 20
0.0
 11
420.0
 21
297.0
 12
0.0
 22
0.0
 32
0.0
 14
1e+20
 24
1e+20
 34
1e+20
 15
-1e+20
 25
-1e+20
 35
-1e+20
146
0.0
 13
0.0
 23
0.0
 33
0.0
 16
1.0
 26
0.0
 36
0.0
 17
0.0
 27
1.0
 37
0.0
 76
1
330
1B
  0
MATERIAL
  5
1F
102
{ACAD_REACTORS
330
E
102
}
330
E
100
AcDbMaterial
  1
ByBlock
  2

 70
0
 40
1.0
 71
1
 41
1.0
 91
-1023410177
 42
1.0
 72
1
  3

 73
1
 74
1
 75
1
 44
0.5
 73
0
 45
1.0
 46
1.0
 77
1
  4

 78
1
 79
1
170
1
 48
1.0
171
1
  6

172
1
173
1
174
1
140
1.0
141
1.0
175
1
  7

176
1
177
1
178
1
143
1.0
179
1
  8

270
1
271
1
272
1
145
1.0
146
1.0
273
1
  9

274
1
275
1
276
1
 42
1.0
 72
1
  3

 73
1
 74
1
 75
1
 94
63
  0
MATERIAL
  5
20
102
{ACAD_REACTORS
330
E
102
}
330
E
100
AcDbMaterial
  1
ByLayer
  2

 70
0
 40
1.0
 71
1
 41
1.0
 91
-1023410177
 42
1.0
 72
1
  3

 73
1
 74
1
 75
1
 44
0.5
 73
0
 45
1.0
 46
1.0
 77
1
  4

 78
1
 79
1
170
1
 48
1.0
171
1
  6

172
1
173
1
174
1
140
1.0
141
1.0
175
1
  7

176
1
177
1
178
1
143
1.0
179
1
  8

270
1
271
1
272
1
145
1.0
146
1.0
273
1
  9

274
1
275
1
276
1
 42
1.0
 72
1
  3

 73
1
 74
1
 75
1
 94
63
  0
MATERIAL
  5
21
102
{ACAD_REACTORS
330
E
102
}
330
E
100
AcDbMaterial
  1
Global
  2

 70
0
 40
1.0
 71
1
 41
1.0
 91
-1023410177
 42
1.0
 72
1
  3

 73
1
 74
1
 75
1
 44
0.5
 73
0
 45
1.0
 46
1.0
 77
1
  4

 78
1
 79
1
170
1
 48
1.0
171
1
  6

172
1
173
1
174
1
140
1.0
141
1.0
175
1
  7

176
1
177
1
178
1
143
1.0
179
1
  8

270
1
271
1
272
1
145
1.0
146
1.0
273
1
  9

274
1
275
1
276
1
 42
1.0
 72
1
  3

 73
1
 74
1
 75
1
 94
63
  0
MLINESTYLE
  5
22
102
{ACAD_REACTORS
330
10
102
}
330
10
100
AcDbMlineStyle
  2
Standard
 70
0
  3

 62
256
 51
90.0
 52
90.0
 71
2
 49
0.5
 62
256
  6
BYLAYER
 49
-0.5
 62
256
  6
BYLAYER
  0
MLEADERSTYLE
  5
2C
102
{ACAD_REACTORS
330
F
102
}
330
F
100
AcDbMLeaderStyle
179
2
170
2
171
1
172
0
 90
2
 40
0.0
 41
0.0
173
1
 91
-1056964608
 92
-2
290
1
 42
2.0
291
1
 43
8.0
  3
Standard
 44
4.0
300

342
29
174
1
175
1
176
0
178
1
 93
-1056964608
 45
4.0
292
0
297
0
 46
4.0
 94
-1056964608
 47
1.0
 49
1.0
140
1.0
294
1
141
0.0
177
0
142
1.0
295
0
296
0
143
3.75
271
0
272
9
273
9
  0
DICTIONARY
  5
2D
330
A
100
AcDbDictionary
280
1
281
1
  3
CREATED_BY_EZDXF
350
2E
  3
WRITTEN_BY_EZDXF
350
97
  0
DICTIONARYVAR
  5
2E
330
2D
100
DictionaryVariables
280
0
  1
1.4.3 @ 2026-02-13T04:54:13.361306+00:00
  0
DICTIONARYVAR
  5
97
330
2D
100
DictionaryVariables
280
0
  1
1.4.3 @ 2026-02-13T04:54:13.367804+00:00
  0
ENDSEC
  0
EOF
