0
SECTION
2
HEADER
9
$EXTMIN
10
 0
20
 100
30
0.0
9
$EXTMAX
10
 0
20
 100
30
0.0
9
$LIMMIN
10
 100
20
 0
9
$LIMMAX
10
 0
20
 100
9
$PSLTSCALE
70
1
0
ENDSEC
0
SECTION
2
TABLES
0
TABLE
2
LAYER
70
2
0
LAYER
2
0
70
0
62
7
6
CONTINUOUS
0
LAYER
2
Halfen
70
0
62
7
6
CONTINUOUS
0
ENDTAB
0
ENDSEC
0
SECTION
2
ENTITIES
0
POLYLINE
8
Halfen
62
7
66
1
10
0.0
20
0.0
30
0.0
70
1
0
VERTEX
8
Halfen
62
7
10
 0
20
-73.5
30
0
0
VERTEX
8
Halfen
62
7
10
 1000
20
-73.5
30
0
0
VERTEX
8
Halfen
62
7
10
 1000
20
 73.5
30
0
0
VERTEX
8
Halfen
62
7
10
 0
20
 73.5
30
0
0
SEQEND
8
Halfen
0
POLYLINE
8
Halfen
62
7
66
1
10
0.0
20
0.0
30
0.0
70
1
0
VERTEX
8
Halfen
62
7
10
 0
20
-60
30
0
0
VERTEX
8
Halfen
62
7
10
 1000
20
-60
30
0
0
VERTEX
8
Halfen
62
7
10
 1000
20
 60
30
0
0
VERTEX
8
Halfen
62
7
10
 0
20
 60
30
0
0
SEQEND
8
Halfen
0
POLYLINE
8
Halfen
62
7
66
1
10
0.0
20
0.0
30
0.0
70
1
0
VERTEX
8
Halfen
62
7
10
 20
20
-32.5
30
0
0
VERTEX
8
Halfen
62
7
10
 37
20
-1.5
30
0
0
VERTEX
8
Halfen
62
7
10
 28
20
-1.5
30
0
0
VERTEX
8
Halfen
62
7
10
 28
20
 32.5
30
0
0
VERTEX
8
Halfen
62
7
10
 12
20
 32.5
30
0
0
VERTEX
8
Halfen
62
7
10
 12
20
-1.5
30
0
0
VERTEX
8
Halfen
62
7
10
 3
20
-1.5
30
0
0
SEQEND
8
Halfen
0
POLYLINE
8
Halfen
62
7
66
1
10
0.0
20
0.0
30
0.0
70
1
0
VERTEX
8
Halfen
62
7
10
 980
20
-32.5
30
0
0
VERTEX
8
Halfen
62
7
10
 997
20
-1.5
30
0
0
VERTEX
8
Halfen
62
7
10
 988
20
-1.5
30
0
0
VERTEX
8
Halfen
62
7
10
 988
20
 32.5
30
0
0
VERTEX
8
Halfen
62
7
10
 972
20
 32.5
30
0
0
VERTEX
8
Halfen
62
7
10
 972
20
-1.5
30
0
0
VERTEX
8
Halfen
62
7
10
 963
20
-1.5
30
0
0
SEQEND
8
Halfen
0
POLYLINE
8
Halfen
62
7
66
1
10
0.0
20
0.0
30
0.0
70
1
0
VERTEX
8
Halfen
62
7
10
 89
20
-696.961
30
0
0
VERTEX
8
Halfen
62
7
10
 89
20
 745.246
30
0
0
VERTEX
8
Halfen
62
7
10
 79
20
 745.246
30
0
0
VERTEX
8
Halfen
62
7
10
 79
20
-696.961
30
0
0
SEQEND
8
Halfen
0
POLYLINE
8
Halfen
62
7
66
1
10
0.0
20
0.0
30
0.0
70
1
0
VERTEX
8
Halfen
62
7
10
 175
20
-696.961
30
0
0
VERTEX
8
Halfen
62
7
10
 175
20
 745.246
30
0
0
VERTEX
8
Halfen
62
7
10
 165
20
 745.246
30
0
0
VERTEX
8
Halfen
62
7
10
 165
20
-696.961
30
0
0
SEQEND
8
Halfen
0
POLYLINE
8
Halfen
62
7
66
1
10
0.0
20
0.0
30
0.0
70
1
0
VERTEX
8
Halfen
62
7
10
 261
20
-696.961
30
0
0
VERTEX
8
Halfen
62
7
10
 261
20
 745.246
30
0
0
VERTEX
8
Halfen
62
7
10
 251
20
 745.246
30
0
0
VERTEX
8
Halfen
62
7
10
 251
20
-696.961
30
0
0
SEQEND
8
Halfen
0
POLYLINE
8
Halfen
62
7
66
1
10
0.0
20
0.0
30
0.0
70
1
0
VERTEX
8
Halfen
62
7
10
 347
20
-696.961
30
0
0
VERTEX
8
Halfen
62
7
10
 347
20
 745.246
30
0
0
VERTEX
8
Halfen
62
7
10
 337
20
 745.246
30
0
0
VERTEX
8
Halfen
62
7
10
 337
20
-696.961
30
0
0
SEQEND
8
Halfen
0
POLYLINE
8
Halfen
62
7
66
1
10
0.0
20
0.0
30
0.0
70
1
0
VERTEX
8
Halfen
62
7
10
 433
20
-696.961
30
0
0
VERTEX
8
Halfen
62
7
10
 433
20
 745.246
30
0
0
VERTEX
8
Halfen
62
7
10
 423
20
 745.246
30
0
0
VERTEX
8
Halfen
62
7
10
 423
20
-696.961
30
0
0
SEQEND
8
Halfen
0
POLYLINE
8
Halfen
62
7
66
1
10
0.0
20
0.0
30
0.0
70
1
0
VERTEX
8
Halfen
62
7
10
 589
20
-696.961
30
0
0
VERTEX
8
Halfen
62
7
10
 589
20
 745.246
30
0
0
VERTEX
8
Halfen
62
7
10
 579
20
 745.246
30
0
0
VERTEX
8
Halfen
62
7
10
 579
20
-696.961
30
0
0
SEQEND
8
Halfen
0
POLYLINE
8
Halfen
62
7
66
1
10
0.0
20
0.0
30
0.0
70
1
0
VERTEX
8
Halfen
62
7
10
 675
20
-696.961
30
0
0
VERTEX
8
Halfen
62
7
10
 675
20
 745.246
30
0
0
VERTEX
8
Halfen
62
7
10
 665
20
 745.246
30
0
0
VERTEX
8
Halfen
62
7
10
 665
20
-696.961
30
0
0
SEQEND
8
Halfen
0
POLYLINE
8
Halfen
62
7
66
1
10
0.0
20
0.0
30
0.0
70
1
0
VERTEX
8
Halfen
62
7
10
 761
20
-696.961
30
0
0
VERTEX
8
Halfen
62
7
10
 761
20
 745.246
30
0
0
VERTEX
8
Halfen
62
7
10
 751
20
 745.246
30
0
0
VERTEX
8
Halfen
62
7
10
 751
20
-696.961
30
0
0
SEQEND
8
Halfen
0
POLYLINE
8
Halfen
62
7
66
1
10
0.0
20
0.0
30
0.0
70
1
0
VERTEX
8
Halfen
62
7
10
 847
20
-696.961
30
0
0
VERTEX
8
Halfen
62
7
10
 847
20
 745.246
30
0
0
VERTEX
8
Halfen
62
7
10
 837
20
 745.246
30
0
0
VERTEX
8
Halfen
62
7
10
 837
20
-696.961
30
0
0
SEQEND
8
Halfen
0
POLYLINE
8
Halfen
62
7
66
1
10
0.0
20
0.0
30
0.0
70
1
0
VERTEX
8
Halfen
62
7
10
 933
20
-696.961
30
0
0
VERTEX
8
Halfen
62
7
10
 933
20
 745.246
30
0
0
VERTEX
8
Halfen
62
7
10
 923
20
 745.246
30
0
0
VERTEX
8
Halfen
62
7
10
 923
20
-696.961
30
0
0
SEQEND
8
Halfen
0
POLYLINE
8
Halfen
62
7
66
1
10
0.0
20
0.0
30
0.0
70
1
0
VERTEX
8
Halfen
62
7
10
 1550
20
-60
30
0
0
VERTEX
8
Halfen
62
7
10
 1550
20
 60
30
0
0
VERTEX
8
Halfen
62
7
10
 1536.5
20
 73.5
30
0
0
VERTEX
8
Halfen
62
7
10
 1536.5
20
 60
30
0
0
VERTEX
8
Halfen
62
7
10
 1250
20
 60
30
0
0
VERTEX
8
Halfen
62
7
10
 1250
20
-60
30
0
0
VERTEX
8
Halfen
62
7
10
 1536.5
20
-60
30
0
0
VERTEX
8
Halfen
62
7
10
 1536.5
20
-73.5
30
0
0
SEQEND
8
Halfen
0
POLYLINE
8
Halfen
62
7
66
1
10
0.0
20
0.0
30
0.0
70
1
0
VERTEX
8
Halfen
62
7
10
 1250
20
-60
30
0
0
VERTEX
8
Halfen
62
7
10
 1250
20
 60
30
0
0
VERTEX
8
Halfen
62
7
10
 1213.5
20
 60
30
0
0
VERTEX
8
Halfen
62
7
10
 1213.5
20
 73.5
30
0
0
VERTEX
8
Halfen
62
7
10
 1200
20
 60
30
0
0
VERTEX
8
Halfen
62
7
10
 1200
20
-60
30
0
0
VERTEX
8
Halfen
62
7
10
 1213.5
20
-73.5
30
0
0
VERTEX
8
Halfen
62
7
10
 1213.5
20
-60
30
0
0
SEQEND
8
Halfen
0
POLYLINE
8
Halfen
62
7
66
1
10
0.0
20
0.0
30
0.0
70
1
0
VERTEX
8
Halfen
62
7
10
 1547.5
20
-58.75
30
0
0
VERTEX
8
Halfen
62
7
10
 1547.5
20
 58.75
30
0
0
VERTEX
8
Halfen
62
7
10
 1539
20
 67.25
30
0
0
VERTEX
8
Halfen
62
7
10
 1539
20
 58
30
0
0
VERTEX
8
Halfen
62
7
10
 1252
20
 58
30
0
0
VERTEX
8
Halfen
62
7
10
 1252
20
-58
30
0
0
VERTEX
8
Halfen
62
7
10
 1539
20
-58
30
0
0
VERTEX
8
Halfen
62
7
10
 1539
20
-67.25
30
0
0
SEQEND
8
Halfen
0
POLYLINE
8
Halfen
62
7
66
1
10
0.0
20
0.0
30
0.0
70
1
0
VERTEX
8
Halfen
62
7
10
 1248
20
-58
30
0
0
VERTEX
8
Halfen
62
7
10
 1248
20
 58
30
0
0
VERTEX
8
Halfen
62
7
10
 1211
20
 58
30
0
0
VERTEX
8
Halfen
62
7
10
 1211
20
 67.25
30
0
0
VERTEX
8
Halfen
62
7
10
 1202.5
20
 58.75
30
0
0
VERTEX
8
Halfen
62
7
10
 1202.5
20
-58.75
30
0
0
VERTEX
8
Halfen
62
7
10
 1211
20
-67.25
30
0
0
VERTEX
8
Halfen
62
7
10
 1211
20
-58
30
0
0
SEQEND
8
Halfen
0
POLYLINE
8
Halfen
62
7
66
1
10
0.0
20
0.0
30
0.0
70
1
0
VERTEX
8
Halfen
62
7
10
 1520
20
-696.961
30
0
0
VERTEX
8
Halfen
62
7
10
 1520
20
-95.355
30
0
0
VERTEX
8
Halfen
62
7
10
 1519.508
20
-89.098
30
0
0
VERTEX
8
Halfen
62
7
10
 1518.042
20
-82.995
30
0
0
VERTEX
8
Halfen
62
7
10
 1515.64
20
-77.196
30
0
0
VERTEX
8
Halfen
62
7
10
 1512.361
20
-71.844
30
0
0
VERTEX
8
Halfen
62
7
10
 1508.284
20
-67.071
30
0
0
VERTEX
8
Halfen
62
7
10
 1318.787
20
 122.426
30
0
0
VERTEX
8
Halfen
62
7
10
 1315.729
20
 126.006
30
0
0
VERTEX
8
Halfen
62
7
10
 1313.27
20
 130.02
30
0
0
VERTEX
8
Halfen
62
7
10
 1311.468
20
 134.369
30
0
0
VERTEX
8
Halfen
62
7
10
 1310.369
20
 138.947
30
0
0
VERTEX
8
Halfen
62
7
10
 1310
20
 143.64
30
0
0
VERTEX
8
Halfen
62
7
10
 1310
20
 206.246
30
0
0
VERTEX
8
Halfen
62
7
10
 1310
20
 745.246
30
0
0
VERTEX
8
Halfen
62
7
10
 1300
20
 745.246
30
0
0
VERTEX
8
Halfen
62
7
10
 1300
20
 206.246
30
0
0
VERTEX
8
Halfen
62
7
10
 1300
20
 143.64
30
0
0
VERTEX
8
Halfen
62
7
10
 1300.492
20
 137.382
30
0
0
VERTEX
8
Halfen
62
7
10
 1301.958
20
 131.279
30
0
0
VERTEX
8
Halfen
62
7
10
 1304.36
20
 125.48
30
0
0
VERTEX
8
Halfen
62
7
10
 1307.639
20
 120.128
30
0
0
VERTEX
8
Halfen
62
7
10
 1311.716
20
 115.355
30
0
0
VERTEX
8
Halfen
62
7
10
 1501.213
20
-74.142
30
0
0
VERTEX
8
Halfen
62
7
10
 1504.271
20
-77.722
30
0
0
VERTEX
8
Halfen
62
7
10
 1506.73
20
-81.736
30
0
0
VERTEX
8
Halfen
62
7
10
 1508.532
20
-86.085
30
0
0
VERTEX
8
Halfen
62
7
10
 1509.631
20
-90.662
30
0
0
VERTEX
8
Halfen
62
7
10
 1510
20
-95.355
30
0
0
VERTEX
8
Halfen
62
7
10
 1510
20
-696.961
30
0
0
SEQEND
8
Halfen
0
ENDSEC
0
EOF
