0
SECTION
2
HEADER
0
ENDSEC
0
SECTION
2
TABLES
0
TABLE
2
LTYPE
70
4
0
LTYPE
2
CONTINUOUS
70
0
3
Solid line
72
65
73
0
40
0.0
0
LTYPE
2
HIDDEN
70
0
3
hidden
72
65
73
2
40
9.524999999999999
49
6.35
49
-3.175
0
LTYPE
2
DASHED
70
0
3
dashed
72
65
73
2
40
12.7
49
6.35
49
-6.35
0
ENDTAB
0
TABLE
2
LAYER
70
1
0
LAYER
2
0
70
0
62
7
6
CONTINUOUS
0
ENDTAB
0
ENDSEC
0
SECTION
2
ENTITIES
0
LINE
8
0
6
CONTINUOUS
10
83.0
20
-14.86
30
0
11
83.0
21
14.86
31
0
0
LINE
8
0
6
CONTINUOUS
10
1.5
20
-14.86
30
0
11
1.5
21
14.86
31
0
0
LINE
8
0
6
CONTINUOUS
10
85.0
20
2.5
30
0
11
-13.0
21
2.5
31
0
0
LINE
8
0
6
CONTINUOUS
10
85.0
20
-2.5
30
0
11
-13.0
21
-2.5
31
0
0
LINE
8
0
6
CONTINUOUS
10
-0.0
20
-14.86
30
0
11
0.0
21
14.86
31
0
0
LINE
8
0
6
CONTINUOUS
10
85.0
20
-4.0
30
0
11
-13.0
21
-4.0
31
0
0
LINE
8
0
6
CONTINUOUS
10
-13.0
20
4.0
30
0
11
85.0
21
4.0
31
0
0
LINE
8
0
6
CONTINUOUS
10
85.0
20
-14.86
30
0
11
85.0
21
14.86
31
0
0
LINE
8
0
6
CONTINUOUS
10
0.0
20
-14.86
30
0
11
0.0
21
14.86
31
0
0
LINE
8
0
6
CONTINUOUS
10
-13.0
20
0.0
30
0
11
85.0
21
0.0
31
0
0
LINE
8
0
6
CONTINUOUS
10
-7.0
20
6.25
30
0
11
-6.0
21
4.0
31
0
0
LINE
8
0
6
CONTINUOUS
10
-6.0
20
4.0
30
0
11
-2.5
21
4.0
31
0
0
LINE
8
0
6
CONTINUOUS
10
-2.5
20
4.0
30
0
11
-1.5
21
6.25
31
0
0
LINE
8
0
6
CONTINUOUS
10
-6.0
20
-3.87
30
0
11
-2.5
21
-3.87
31
0
0
LINE
8
0
6
CONTINUOUS
10
-6.0
20
4.0
30
0
11
-7.0
21
1.75
31
0
0
LINE
8
0
6
CONTINUOUS
10
-7.0
20
1.75
30
0
11
-7.0
21
-1.75
31
0
0
LINE
8
0
6
CONTINUOUS
10
-7.0
20
-1.75
30
0
11
-6.0
21
-3.87
31
0
0
LINE
8
0
6
CONTINUOUS
10
-6.0
20
-3.87
30
0
11
-7.0
21
-6.0
31
0
0
LINE
8
0
6
CONTINUOUS
10
-1.5
20
-6.0
30
0
11
-2.24
21
-7.0
31
0
0
LINE
8
0
6
CONTINUOUS
10
-2.24
20
-7.0
30
0
11
-6.34
21
-7.0
31
0
0
LINE
8
0
6
CONTINUOUS
10
-6.34
20
-7.0
30
0
11
-7.0
21
-6.0
31
0
0
LINE
8
0
6
CONTINUOUS
10
-7.0
20
-6.0
30
0
11
-7.0
21
6.25
31
0
0
LINE
8
0
6
CONTINUOUS
10
-7.0
20
6.25
30
0
11
-6.31
21
7.0
31
0
0
LINE
8
0
6
CONTINUOUS
10
-6.31
20
7.0
30
0
11
-2.15
21
7.0
31
0
0
LINE
8
0
6
CONTINUOUS
10
-2.15
20
7.0
30
0
11
-1.5
21
6.25
31
0
0
LINE
8
0
6
CONTINUOUS
10
-1.5
20
6.25
30
0
11
-1.5
21
0.0
31
0
0
LINE
8
0
6
CONTINUOUS
10
-1.5
20
0.0
30
0
11
-1.5
21
8.0
31
0
0
LINE
8
0
6
CONTINUOUS
10
-1.5
20
8.0
30
0
11
0.0
21
8.0
31
0
0
LINE
8
0
6
CONTINUOUS
10
0.0
20
8.0
30
0
11
0.0
21
-8.0
31
0
0
LINE
8
0
6
CONTINUOUS
10
0.0
20
-8.0
30
0
11
-1.5
21
-8.0
31
0
0
LINE
8
0
6
CONTINUOUS
10
-1.5
20
-8.0
30
0
11
-1.5
21
0.0
31
0
0
LINE
8
0
6
CONTINUOUS
10
-1.5
20
0.0
30
0
11
-1.5
21
-6.0
31
0
0
LINE
8
0
6
CONTINUOUS
10
-1.5
20
-6.0
30
0
11
-2.5
21
-3.87
31
0
0
LINE
8
0
6
CONTINUOUS
10
-2.5
20
-3.87
30
0
11
-1.5
21
-1.75
31
0
0
LINE
8
0
6
CONTINUOUS
10
-1.5
20
-1.75
30
0
11
-1.5
21
1.75
31
0
0
LINE
8
0
6
CONTINUOUS
10
-1.5
20
1.75
30
0
11
-2.5
21
4.0
31
0
0
LINE
8
0
6
DASHED
10
0.0
20
4.0
30
0
11
83.0
21
4.0
31
0
0
LINE
8
0
6
DASHED
10
0.0
20
-4.0
30
0
11
83.0
21
-4.0
31
0
0
LINE
8
0
6
DASHED
10
85.0
20
2.5
30
0
11
85.0
21
-2.5
31
0
0
LINE
8
0
6
DASHED
10
85.0
20
-2.5
30
0
11
83.0
21
-4.0
31
0
0
LINE
8
0
6
DASHED
10
85.0
20
2.5
30
0
11
83.0
21
4.0
31
0
0
LINE
8
0
6
HIDDEN
10
0.0
20
4.0
30
0
11
1.5
21
2.5
31
0
0
LINE
8
0
6
HIDDEN
10
1.5
20
2.5
30
0
11
83.0
21
2.5
31
0
0
LINE
8
0
6
HIDDEN
10
0.0
20
-4.0
30
0
11
1.5
21
-2.5
31
0
0
LINE
8
0
6
HIDDEN
10
1.5
20
-2.5
30
0
11
83.0
21
-2.5
31
0
0
LINE
8
0
6
DASHED
10
83.0
20
-4.0
30
0
11
83.0
21
4.0
31
0
0
LINE
8
0
6
HIDDEN
10
0.0
20
4.0
30
0
11
0.0
21
-4.0
31
0
0
ENDSEC
0
EOF