0
SECTION
2
HEADER
0
ENDSEC
0
SECTION
2
TABLES
0
TABLE
2
LTYPE
70
2
0
LTYPE
2
CONTINUOUS
70
0
3
Solid line
72
65
73
0
40
0.0
0
ENDTAB
0
TABLE
2
LAYER
70
1
0
LAYER
2
0
70
0
62
7
6
CONTINUOUS
0
ENDTAB
0
ENDSEC
0
SECTION
2
ENTITIES
0
LINE
8
0
6
CONTINUOUS
10
1050.0
20
-1300.0
30
0
11
-31.07
21
-1300.0
31
0
0
LINE
8
0
6
CONTINUOUS
10
0.0
20
-1300.0
30
0
11
0.0
21
3.19
31
0
0
LINE
8
0
6
CONTINUOUS
10
-31.07
20
0.0
30
0
11
1050.0
21
0.0
31
0
0
LINE
8
0
6
CONTINUOUS
10
350.0
20
-0.0
30
0
11
350.0
21
-1300.0
31
0
0
LINE
8
0
6
CONTINUOUS
10
1050.0
20
-866.67
30
0
11
-0.0
21
-866.67
31
0
0
LINE
8
0
6
CONTINUOUS
10
175.0
20
-0.0
30
0
11
175.0
21
-1300.0
31
0
0
LINE
8
0
6
CONTINUOUS
10
1050.0
20
-1083.33
30
0
11
-0.0
21
-1083.33
31
0
0
LINE
8
0
6
CONTINUOUS
10
1050.0
20
-1300.0
30
0
11
-0.0
21
-1300.0
31
0
0
LINE
8
0
6
CONTINUOUS
10
1050.0
20
-0.0
30
0
11
-0.0
21
-0.0
31
0
0
LINE
8
0
6
CONTINUOUS
10
1050.0
20
-1300.0
30
0
11
1050.0
21
-0.0
31
0
0
LINE
8
0
6
CONTINUOUS
10
-0.0
20
-1300.0
30
0
11
-0.0
21
-0.0
31
0
0
LINE
8
0
6
CONTINUOUS
10
525.0
20
-1300.0
30
0
11
525.0
21
-0.0
31
0
0
LINE
8
0
6
CONTINUOUS
10
-0.0
20
-650.0
30
0
11
1050.0
21
-650.0
31
0
0
LINE
8
0
6
CONTINUOUS
10
-0.0
20
-1300.0
30
0
11
1050.0
21
-1300.0
31
0
0
LINE
8
0
6
CONTINUOUS
10
-0.0
20
-0.0
30
0
11
-0.0
21
-1300.0
31
0
0
LINE
8
0
6
CONTINUOUS
10
1050.0
20
-0.0
30
0
11
-0.0
21
-0.0
31
0
0
LINE
8
0
6
CONTINUOUS
10
1050.0
20
-1300.0
30
0
11
1050.0
21
-0.0
31
0
0
LINE
8
0
6
CONTINUOUS
10
50.0
20
-900.0
30
0
11
900.0
21
-900.0
31
0
0
LINE
8
0
6
CONTINUOUS
10
900.0
20
-900.0
30
0
11
900.0
21
-50.0
31
0
0
LINE
8
0
6
CONTINUOUS
10
550.0
20
-550.0
30
0
11
850.0
21
-850.0
31
0
0
LINE
8
0
6
CONTINUOUS
10
350.0
20
-550.0
30
0
11
50.0
21
-850.0
31
0
0
LINE
8
0
6
CONTINUOUS
10
350.0
20
-350.0
30
0
11
50.0
21
-50.0
31
0
0
LINE
8
0
6
CONTINUOUS
10
550.0
20
-350.0
30
0
11
850.0
21
-50.0
31
0
0
ENDSEC
0
EOF