0
SECTION
2
HEADER
0
ENDSEC
0
SECTION
2
TABLES
0
TABLE
2
LTYPE
70
2
0
LTYPE
2
CONTINUOUS
70
0
3
Solid line
72
65
73
0
40
0.0
0
ENDTAB
0
TABLE
2
LAYER
70
1
0
LAYER
2
0
70
0
62
7
6
CONTINUOUS
0
ENDTAB
0
ENDSEC
0
SECTION
2
ENTITIES
0
LINE
8
0
6
CONTINUOUS
10
400.0
20
-800.0
30
0
11
-31.07
21
-800.0
31
0
0
LINE
8
0
6
CONTINUOUS
10
0.0
20
-800.0
30
0
11
0.0
21
3.19
31
0
0
LINE
8
0
6
CONTINUOUS
10
-31.07
20
0.0
30
0
11
400.0
21
0.0
31
0
0
LINE
8
0
6
CONTINUOUS
10
133.33
20
-0.0
30
0
11
133.33
21
-800.0
31
0
0
LINE
8
0
6
CONTINUOUS
10
400.0
20
-533.33
30
0
11
0.0
21
-533.33
31
0
0
LINE
8
0
6
CONTINUOUS
10
66.67
20
-0.0
30
0
11
66.67
21
-800.0
31
0
0
LINE
8
0
6
CONTINUOUS
10
400.0
20
-666.67
30
0
11
0.0
21
-666.67
31
0
0
LINE
8
0
6
CONTINUOUS
10
400.0
20
-800.0
30
0
11
0.0
21
-800.0
31
0
0
LINE
8
0
6
CONTINUOUS
10
400.0
20
-0.0
30
0
11
0.0
21
-0.0
31
0
0
LINE
8
0
6
CONTINUOUS
10
400.0
20
-800.0
30
0
11
400.0
21
-0.0
31
0
0
LINE
8
0
6
CONTINUOUS
10
-0.0
20
-800.0
30
0
11
0.0
21
-0.0
31
0
0
LINE
8
0
6
CONTINUOUS
10
200.0
20
-800.0
30
0
11
200.0
21
-0.0
31
0
0
LINE
8
0
6
CONTINUOUS
10
0.0
20
-400.0
30
0
11
400.0
21
-400.0
31
0
0
LINE
8
0
6
CONTINUOUS
10
0.0
20
-800.0
30
0
11
400.0
21
-800.0
31
0
0
LINE
8
0
6
CONTINUOUS
10
0.0
20
-0.0
30
0
11
0.0
21
-800.0
31
0
0
LINE
8
0
6
CONTINUOUS
10
400.0
20
-0.0
30
0
11
0.0
21
-0.0
31
0
0
LINE
8
0
6
CONTINUOUS
10
400.0
20
-800.0
30
0
11
400.0
21
-0.0
31
0
0
ARC
8
0
6
CONTINUOUS
10
300.0
20
-200.0
30
0
40
100.0
50
270.0
51
0.0
0
LINE
8
0
6
CONTINUOUS
10
400.0
20
-200.0
30
0
11
400.0
21
-0.0
31
0
0
LINE
8
0
6
CONTINUOUS
10
400.0
20
-0.0
30
0
11
50.0
21
-0.0
31
0
0
LINE
8
0
6
CONTINUOUS
10
50.0
20
-0.0
30
0
11
50.0
21
-200.0
31
0
0
ARC
8
0
6
CONTINUOUS
10
150.0
20
-200.0
30
0
40
100.0
50
180.0
51
270.0
0
LINE
8
0
6
CONTINUOUS
10
150.0
20
-300.0
30
0
11
300.0
21
-300.0
31
0
0
ARC
8
0
6
CONTINUOUS
10
300.0
20
-200.0
30
0
40
75.0
50
270.0
51
0.0
0
LINE
8
0
6
CONTINUOUS
10
300.0
20
-275.0
30
0
11
150.0
21
-275.0
31
0
0
ARC
8
0
6
CONTINUOUS
10
150.0
20
-200.0
30
0
40
75.0
50
180.0
51
270.0
0
LINE
8
0
6
CONTINUOUS
10
75.0
20
-200.0
30
0
11
75.0
21
-95.35
31
0
0
ARC
8
0
6
CONTINUOUS
10
120.0
20
-95.35
30
0
40
45.0
50
90.0
51
180.0
0
LINE
8
0
6
CONTINUOUS
10
120.0
20
-50.35
30
0
11
330.0
21
-50.35
31
0
0
ARC
8
0
6
CONTINUOUS
10
330.0
20
-95.35
30
0
40
45.0
50
0.0
51
90.0
0
LINE
8
0
6
CONTINUOUS
10
375.0
20
-95.35
30
0
11
375.0
21
-200.0
31
0
0
LINE
8
0
6
CONTINUOUS
10
225.0
20
-0.0
30
0
11
225.0
21
-154.56
31
0
0
LINE
8
0
6
CONTINUOUS
10
175.0
20
-98.56
30
0
11
275.0
21
-98.56
31
0
0
ENDSEC
0
EOF