0
SECTION
2
HEADER
0
ENDSEC
0
SECTION
2
TABLES
0
TABLE
2
LTYPE
70
2
0
LTYPE
2
CONTINUOUS
70
0
3
Solid line
72
65
73
0
40
0.0
0
ENDTAB
0
TABLE
2
LAYER
70
1
0
LAYER
2
0
70
0
62
7
6
CONTINUOUS
0
ENDTAB
0
ENDSEC
0
SECTION
2
ENTITIES
0
LINE
8
0
6
CONTINUOUS
10
667.89
20
-88.0
30
0
11
-632.11
21
-88.0
31
0
0
LINE
8
0
6
CONTINUOUS
10
0.0
20
-181.52
30
0
11
0.0
21
73.2
31
0
0
LINE
8
0
6
CONTINUOUS
10
-632.11
20
0.0
30
0
11
667.89
21
0.0
31
0
0
LINE
8
0
6
CONTINUOUS
10
-499.67
20
-23.26
30
0
11
-507.22
21
-22.6
31
0
0
ARC
8
0
6
CONTINUOUS
10
-507.0100001316251
20
-20.20920514153086
30
0
40
2.4
50
180.01897584851025
51
264.98020302273716
0
LINE
8
0
6
CONTINUOUS
10
-509.41
20
-20.21
30
0
11
-509.41
21
-18.52
31
0
0
ARC
8
0
6
CONTINUOUS
10
-507.01000000000005
20
-18.52
30
0
40
2.4
50
89.99999999999865
51
180.0
0
LINE
8
0
6
CONTINUOUS
10
-507.01
20
-16.12
30
0
11
-495.93
21
-16.12
31
0
0
ARC
8
0
6
CONTINUOUS
10
-495.92831192859876
20
-18.51999940633637
30
0
40
2.4
50
2.1490814442132207
51
90.04029973949292
0
ARC
8
0
6
CONTINUOUS
10
-490.231833505877
20
-18.320010104807327
30
0
40
3.3
50
181.91003763089253
51
269.8582102653775
0
LINE
8
0
6
CONTINUOUS
10
-490.24
20
-21.62
30
0
11
-482.25
21
-21.62
31
0
0
LINE
8
0
6
CONTINUOUS
10
-482.25
20
-21.62
30
0
11
-471.12
21
-21.62
31
0
0
ARC
8
0
6
CONTINUOUS
10
-471.11649386489535
20
-18.320001862573765
30
0
40
3.3
50
269.93912521766845
51
346.3280151773356
0
LINE
8
0
6
CONTINUOUS
10
-467.91
20
-19.1
30
0
11
-464.14
21
-3.74
31
0
0
ARC
8
0
6
CONTINUOUS
10
-460.1334549071658
20
-4.999998579001721
30
0
40
4.2
50
89.95286866153938
51
162.5424171973293
0
LINE
8
0
6
CONTINUOUS
10
-460.13
20
-0.8
30
0
11
525.66
21
-0.8
31
0
0
ARC
8
0
6
CONTINUOUS
10
525.6629419285714
20
-5.199999016483559
30
0
40
4.4
50
15.150977622790014
51
90.03830911439344
0
LINE
8
0
6
CONTINUOUS
10
529.91
20
-4.05
30
0
11
530.94
21
-7.88
31
0
0
ARC
8
0
6
CONTINUOUS
10
528.6214661001561
20
-8.500000447802057
30
0
40
2.4
50
269.9649994347863
51
14.97120206206437
0
LINE
8
0
6
CONTINUOUS
10
528.62
20
-10.9
30
0
11
511.75
21
-10.9
31
0
0
ARC
8
0
6
CONTINUOUS
10
511.7464280190887
20
-14.199998066810398
30
0
40
3.3
50
89.93798197858062
51
121.95280982326501
0
LINE
8
0
6
CONTINUOUS
10
510.0
20
-11.4
30
0
11
506.59
21
-13.53
31
0
0
ARC
8
0
6
CONTINUOUS
10
505.3096914892351
20
-11.5000221387259
30
0
40
2.4
50
270.24609832333175
51
302.2396598820633
0
LINE
8
0
6
CONTINUOUS
10
505.32
20
-13.9
30
0
11
487.83
21
-13.9
31
0
0
ARC
8
0
6
CONTINUOUS
10
487.8299999999999
20
-17.2
30
0
40
3.3
50
89.99999999999902
51
180.0
0
LINE
8
0
6
CONTINUOUS
10
484.53
20
-17.2
30
0
11
484.53
21
-21.8
31
0
0
ARC
8
0
6
CONTINUOUS
10
487.82999207201243
20
-21.79276642172024
30
0
40
3.3
50
180.1255920721531
51
264.95855117858684
0
LINE
8
0
6
CONTINUOUS
10
487.54
20
-25.08
30
0
11
500.33
21
-26.2
31
0
0
ARC
8
0
6
CONTINUOUS
10
500.159305751033
20
-27.043849682401554
30
0
40
0.8609406559801915
50
276.0469404859901
51
78.56449093429877
0
LINE
8
0
6
CONTINUOUS
10
500.25
20
-27.9
30
0
11
485.93
21
-27.9
31
0
0
LINE
8
0
6
CONTINUOUS
10
485.93
20
-27.9
30
0
11
485.93
21
-28.7
31
0
0
LINE
8
0
6
CONTINUOUS
10
485.93
20
-28.7
30
0
11
500.25
21
-28.7
31
0
0
ARC
8
0
6
CONTINUOUS
10
500.22094476011705
20
-27.050255840126916
30
0
40
1.65
50
271.00898706992893
51
83.77008933049068
0
LINE
8
0
6
CONTINUOUS
10
500.4
20
-25.41
30
0
11
487.61
21
-24.29
31
0
0
ARC
8
0
6
CONTINUOUS
10
487.82999998185716
20
-21.799698811793466
30
0
40
2.5
50
180.00690272524614
51
264.9514414593334
0
LINE
8
0
6
CONTINUOUS
10
485.33
20
-21.8
30
0
11
485.33
21
-17.2
31
0
0
ARC
8
0
6
CONTINUOUS
10
487.83
20
-17.2
30
0
40
2.5
50
90.0
51
180.0
0
LINE
8
0
6
CONTINUOUS
10
487.83
20
-14.7
30
0
11
505.32
21
-14.7
31
0
0
ARC
8
0
6
CONTINUOUS
10
505.3182648414779
20
-11.500000470433642
30
0
40
3.2
50
270.0310678953041
51
302.1266292290616
0
LINE
8
0
6
CONTINUOUS
10
507.02
20
-14.21
30
0
11
510.43
21
-12.08
31
0
0
ARC
8
0
6
CONTINUOUS
10
511.7549985614328
20
-14.199995002871727
30
0
40
2.5
50
90.11455866582277
51
122.00541594849902
0
LINE
8
0
6
CONTINUOUS
10
511.75
20
-11.7
30
0
11
528.62
21
-11.7
31
0
0
ARC
8
0
6
CONTINUOUS
10
528.6195146111183
20
-8.500000036812867
30
0
40
3.2
50
270.00869085451507
51
15.032980779708037
0
LINE
8
0
6
CONTINUOUS
10
531.71
20
-7.67
30
0
11
530.68
21
-3.85
31
0
0
ARC
8
0
6
CONTINUOUS
10
525.6582970266138
20
-5.199999721142458
30
0
40
5.2
50
15.04723847790473
51
89.98123592511651
0
LINE
8
0
6
CONTINUOUS
10
525.66
20
0.0
30
0
11
-460.13
21
0.0
31
0
0
ARC
8
0
6
CONTINUOUS
10
-460.1340597911362
20
-4.999998351809322
30
0
40
5.0
50
89.95347821532611
51
162.78250834113882
0
LINE
8
0
6
CONTINUOUS
10
-464.91
20
-3.52
30
0
11
-468.69
21
-18.91
31
0
0
ARC
8
0
6
CONTINUOUS
10
-471.1193826561377
20
-18.32000007622269
30
0
40
2.5
50
269.98585152072894
51
346.3494251244365
0
LINE
8
0
6
CONTINUOUS
10
-471.12
20
-20.82
30
0
11
-482.25
21
-20.82
31
0
0
LINE
8
0
6
CONTINUOUS
10
-482.25
20
-20.82
30
0
11
-490.24
21
-20.82
31
0
0
ARC
8
0
6
CONTINUOUS
10
-490.2312798409799
20
-18.320015208280925
30
0
40
2.5
50
181.83342927336253
51
269.8001482713318
0
ARC
8
0
6
CONTINUOUS
10
-495.92774923813175
20
-18.5199992084485
30
0
40
3.2
50
2.149081444213314
51
90.04029973949159
0
LINE
8
0
6
CONTINUOUS
10
-495.93
20
-15.32
30
0
11
-507.01
21
-15.32
31
0
0
ARC
8
0
6
CONTINUOUS
10
-507.01
20
-18.520000000000003
30
0
40
3.2
50
90.0
51
179.99999999999994
0
LINE
8
0
6
CONTINUOUS
10
-510.21
20
-18.52
30
0
11
-510.21
21
-20.21
31
0
0
ARC
8
0
6
CONTINUOUS
10
-507.01000080760167
20
-20.212273466519395
30
0
40
3.2
50
179.95929373519257
51
264.9802143840484
0
LINE
8
0
6
CONTINUOUS
10
-507.29
20
-23.4
30
0
11
-499.74
21
-24.06
31
0
0
ARC
8
0
6
CONTINUOUS
10
-499.9586143523932
20
-26.550423210004215
30
0
40
2.5
50
24.845275555767664
51
84.98332064471144
0
ARC
8
0
6
CONTINUOUS
10
-494.0599035820099
20
-23.820000001162054
30
0
40
4.0
50
204.83458747136018
51
269.9986189140243
0
LINE
8
0
6
CONTINUOUS
10
-494.06
20
-27.82
30
0
11
-487.91
21
-27.82
31
0
0
LINE
8
0
6
CONTINUOUS
10
-487.91
20
-27.82
30
0
11
-487.91
21
-27.02
31
0
0
LINE
8
0
6
CONTINUOUS
10
-487.91
20
-27.02
30
0
11
-494.06
21
-27.02
31
0
0
ARC
8
0
6
CONTINUOUS
10
-494.0640738224134
20
-23.82000259313059
30
0
40
3.2
50
204.75564376285212
51
270.0729415293191
0
ARC
8
0
6
CONTINUOUS
10
-499.96444156885997
20
-26.54683801890621
30
0
40
3.3
50
24.85062114229684
51
84.88099274387135
0
ARC
8
0
6
CONTINUOUS
10
-486.53000000000003
20
-86.0
30
0
40
1.2
50
180.0
51
270.00000000000273
0
LINE
8
0
6
CONTINUOUS
10
-487.73
20
-86.0
30
0
11
-487.73
21
-84.21
31
0
0
ARC
8
0
6
CONTINUOUS
10
-490.52998483101
20
-84.21921662160783
30
0
40
2.8
50
0.1885980261114913
51
144.16630807775098
0
LINE
8
0
6
CONTINUOUS
10
-492.8
20
-82.58
30
0
11
-502.31
21
-80.68
31
0
0
ARC
8
0
6
CONTINUOUS
10
-502.16076117647856
20
-80.20012641056341
30
0
40
0.5025444142409932
50
95.62280694116903
51
252.72450899971707
0
LINE
8
0
6
CONTINUOUS
10
-502.21
20
-79.7
30
0
11
-499.1
21
-79.7
31
0
0
ARC
8
0
6
CONTINUOUS
10
-499.1
20
-77.9
30
0
40
1.8
50
270.0
51
0.0
0
LINE
8
0
6
CONTINUOUS
10
-497.3
20
-77.9
30
0
11
-497.3
21
-76.91
31
0
0
LINE
8
0
6
CONTINUOUS
10
-497.3
20
-76.91
30
0
11
-493.1
21
-76.91
31
0
0
LINE
8
0
6
CONTINUOUS
10
-493.1
20
-76.91
30
0
11
-493.1
21
-76.11
31
0
0
LINE
8
0
6
CONTINUOUS
10
-493.1
20
-76.11
30
0
11
-497.1
21
-76.11
31
0
0
ARC
8
0
6
CONTINUOUS
10
-497.1
20
-77.11
30
0
40
1.0
50
90.0
51
180.0
0
LINE
8
0
6
CONTINUOUS
10
-498.1
20
-77.11
30
0
11
-498.1
21
-77.9
31
0
0
ARC
8
0
6
CONTINUOUS
10
-499.1
20
-77.9
30
0
40
1.0
50
270.0
51
0.0
0
LINE
8
0
6
CONTINUOUS
10
-499.1
20
-78.9
30
0
11
-502.21
21
-78.9
31
0
0
ARC
8
0
6
CONTINUOUS
10
-502.2351009260682
20
-80.18975576893865
30
0
40
1.29
50
88.88506364799487
51
259.95972613869
0
LINE
8
0
6
CONTINUOUS
10
-502.46
20
-81.46
30
0
11
-493.08
21
-83.34
31
0
0
ARC
8
0
6
CONTINUOUS
10
-492.88410726371313
20
-82.35937467100321
30
0
40
1.0
50
258.70312052627
51
321.63818629743315
0
ARC
8
0
6
CONTINUOUS
10
-490.5299799023498
20
-84.21896605803968
30
0
40
2.0
50
0.25685950265109037
51
141.72160766501582
0
LINE
8
0
6
CONTINUOUS
10
-488.53
20
-84.21
30
0
11
-488.53
21
-86.0
31
0
0
ARC
8
0
6
CONTINUOUS
10
-486.53
20
-86.0
30
0
40
2.0
50
180.0
51
270.0
0
LINE
8
0
6
CONTINUOUS
10
-486.53
20
-88.0
30
0
11
-472.38
21
-88.0
31
0
0
LINE
8
0
6
CONTINUOUS
10
-472.38
20
-88.0
30
0
11
-470.55
21
-87.0
31
0
0
LINE
8
0
6
CONTINUOUS
10
-470.55
20
-87.0
30
0
11
-439.05
21
-87.0
31
0
0
LINE
8
0
6
CONTINUOUS
10
-439.05
20
-87.0
30
0
11
-437.22
21
-88.0
31
0
0
LINE
8
0
6
CONTINUOUS
10
-437.22
20
-88.0
30
0
11
-405.72
21
-88.0
31
0
0
LINE
8
0
6
CONTINUOUS
10
-405.72
20
-88.0
30
0
11
-403.89
21
-87.0
31
0
0
LINE
8
0
6
CONTINUOUS
10
-403.89
20
-87.0
30
0
11
-372.39
21
-87.0
31
0
0
LINE
8
0
6
CONTINUOUS
10
-372.39
20
-87.0
30
0
11
-370.56
21
-88.0
31
0
0
LINE
8
0
6
CONTINUOUS
10
-370.56
20
-88.0
30
0
11
-339.06
21
-88.0
31
0
0
LINE
8
0
6
CONTINUOUS
10
-339.06
20
-88.0
30
0
11
-337.23
21
-87.0
31
0
0
LINE
8
0
6
CONTINUOUS
10
-337.23
20
-87.0
30
0
11
-305.73
21
-87.0
31
0
0
LINE
8
0
6
CONTINUOUS
10
-305.73
20
-87.0
30
0
11
-303.9
21
-88.0
31
0
0
LINE
8
0
6
CONTINUOUS
10
-303.9
20
-88.0
30
0
11
-272.4
21
-88.0
31
0
0
LINE
8
0
6
CONTINUOUS
10
-272.4
20
-88.0
30
0
11
-270.57
21
-87.0
31
0
0
LINE
8
0
6
CONTINUOUS
10
-270.57
20
-87.0
30
0
11
-239.07
21
-87.0
31
0
0
LINE
8
0
6
CONTINUOUS
10
-239.07
20
-87.0
30
0
11
-237.24
21
-88.0
31
0
0
LINE
8
0
6
CONTINUOUS
10
-237.24
20
-88.0
30
0
11
-205.74
21
-88.0
31
0
0
LINE
8
0
6
CONTINUOUS
10
-205.74
20
-88.0
30
0
11
-203.91
21
-87.0
31
0
0
LINE
8
0
6
CONTINUOUS
10
-203.91
20
-87.0
30
0
11
-172.41
21
-87.0
31
0
0
LINE
8
0
6
CONTINUOUS
10
-172.41
20
-87.0
30
0
11
-170.58
21
-88.0
31
0
0
LINE
8
0
6
CONTINUOUS
10
-170.58
20
-88.0
30
0
11
-139.08
21
-88.0
31
0
0
LINE
8
0
6
CONTINUOUS
10
-139.08
20
-88.0
30
0
11
-137.25
21
-87.0
31
0
0
LINE
8
0
6
CONTINUOUS
10
-137.25
20
-87.0
30
0
11
-105.75
21
-87.0
31
0
0
LINE
8
0
6
CONTINUOUS
10
-105.75
20
-87.0
30
0
11
-103.92
21
-88.0
31
0
0
LINE
8
0
6
CONTINUOUS
10
-103.92
20
-88.0
30
0
11
-72.42
21
-88.0
31
0
0
LINE
8
0
6
CONTINUOUS
10
-72.42
20
-88.0
30
0
11
-70.59
21
-87.0
31
0
0
LINE
8
0
6
CONTINUOUS
10
-70.59
20
-87.0
30
0
11
-39.09
21
-87.0
31
0
0
LINE
8
0
6
CONTINUOUS
10
-39.09
20
-87.0
30
0
11
-37.26
21
-88.0
31
0
0
LINE
8
0
6
CONTINUOUS
10
-37.26
20
-88.0
30
0
11
-5.76
21
-88.0
31
0
0
LINE
8
0
6
CONTINUOUS
10
-5.76
20
-88.0
30
0
11
-3.93
21
-87.0
31
0
0
LINE
8
0
6
CONTINUOUS
10
-3.93
20
-87.0
30
0
11
27.57
21
-87.0
31
0
0
LINE
8
0
6
CONTINUOUS
10
27.57
20
-87.0
30
0
11
29.4
21
-88.0
31
0
0
LINE
8
0
6
CONTINUOUS
10
29.4
20
-88.0
30
0
11
60.9
21
-88.0
31
0
0
LINE
8
0
6
CONTINUOUS
10
60.9
20
-88.0
30
0
11
62.73
21
-87.0
31
0
0
LINE
8
0
6
CONTINUOUS
10
62.73
20
-87.0
30
0
11
94.23
21
-87.0
31
0
0
LINE
8
0
6
CONTINUOUS
10
94.23
20
-87.0
30
0
11
96.06
21
-88.0
31
0
0
LINE
8
0
6
CONTINUOUS
10
96.06
20
-88.0
30
0
11
127.56
21
-88.0
31
0
0
LINE
8
0
6
CONTINUOUS
10
127.56
20
-88.0
30
0
11
129.39
21
-87.0
31
0
0
LINE
8
0
6
CONTINUOUS
10
129.39
20
-87.0
30
0
11
160.89
21
-87.0
31
0
0
LINE
8
0
6
CONTINUOUS
10
160.89
20
-87.0
30
0
11
162.72
21
-88.0
31
0
0
LINE
8
0
6
CONTINUOUS
10
162.72
20
-88.0
30
0
11
194.22
21
-88.0
31
0
0
LINE
8
0
6
CONTINUOUS
10
194.22
20
-88.0
30
0
11
196.05
21
-87.0
31
0
0
LINE
8
0
6
CONTINUOUS
10
196.05
20
-87.0
30
0
11
227.55
21
-87.0
31
0
0
LINE
8
0
6
CONTINUOUS
10
227.55
20
-87.0
30
0
11
229.38
21
-88.0
31
0
0
LINE
8
0
6
CONTINUOUS
10
229.38
20
-88.0
30
0
11
260.88
21
-88.0
31
0
0
LINE
8
0
6
CONTINUOUS
10
260.88
20
-88.0
30
0
11
262.71
21
-87.0
31
0
0
LINE
8
0
6
CONTINUOUS
10
262.71
20
-87.0
30
0
11
294.21
21
-87.0
31
0
0
LINE
8
0
6
CONTINUOUS
10
294.21
20
-87.0
30
0
11
296.04
21
-88.0
31
0
0
LINE
8
0
6
CONTINUOUS
10
296.04
20
-88.0
30
0
11
327.54
21
-88.0
31
0
0
LINE
8
0
6
CONTINUOUS
10
327.54
20
-88.0
30
0
11
329.37
21
-87.0
31
0
0
LINE
8
0
6
CONTINUOUS
10
329.37
20
-87.0
30
0
11
360.87
21
-87.0
31
0
0
LINE
8
0
6
CONTINUOUS
10
360.87
20
-87.0
30
0
11
362.7
21
-88.0
31
0
0
LINE
8
0
6
CONTINUOUS
10
362.7
20
-88.0
30
0
11
394.2
21
-88.0
31
0
0
LINE
8
0
6
CONTINUOUS
10
394.2
20
-88.0
30
0
11
396.03
21
-87.0
31
0
0
LINE
8
0
6
CONTINUOUS
10
396.03
20
-87.0
30
0
11
427.53
21
-87.0
31
0
0
LINE
8
0
6
CONTINUOUS
10
427.53
20
-87.0
30
0
11
429.36
21
-88.0
31
0
0
LINE
8
0
6
CONTINUOUS
10
429.36
20
-88.0
30
0
11
460.86
21
-88.0
31
0
0
LINE
8
0
6
CONTINUOUS
10
460.86
20
-88.0
30
0
11
462.69
21
-87.0
31
0
0
LINE
8
0
6
CONTINUOUS
10
462.69
20
-87.0
30
0
11
494.19
21
-87.0
31
0
0
LINE
8
0
6
CONTINUOUS
10
494.19
20
-87.0
30
0
11
496.02
21
-88.0
31
0
0
LINE
8
0
6
CONTINUOUS
10
496.02
20
-88.0
30
0
11
509.12
21
-88.0
31
0
0
ARC
8
0
6
CONTINUOUS
10
509.0281405741787
20
-86.24239883765179
30
0
40
1.76
50
272.99178971483315
51
78.13526131385271
0
LINE
8
0
6
CONTINUOUS
10
509.39
20
-84.52
30
0
11
497.12
21
-82.07
31
0
0
ARC
8
0
6
CONTINUOUS
10
497.5351915424017
20
-79.9197172318232
30
0
40
2.19
50
90.92073682189287
51
259.07142327362646
0
LINE
8
0
6
CONTINUOUS
10
497.5
20
-77.73
30
0
11
500.9
21
-77.73
31
0
0
ARC
8
0
6
CONTINUOUS
10
500.9
20
-76.73
30
0
40
1.0
50
270.0
51
0.0
0
ARC
8
0
6
CONTINUOUS
10
500.9
20
-76.73
30
0
40
1.0
50
0.0
51
90.0
0
LINE
8
0
6
CONTINUOUS
10
500.9
20
-75.73
30
0
11
497.5
21
-75.73
31
0
0
LINE
8
0
6
CONTINUOUS
10
497.5
20
-75.73
30
0
11
497.5
21
-76.53
31
0
0
LINE
8
0
6
CONTINUOUS
10
497.5
20
-76.53
30
0
11
500.9
21
-76.53
31
0
0
LINE
8
0
6
CONTINUOUS
10
500.9
20
-76.53
30
0
11
500.12
21
-76.93
31
0
0
LINE
8
0
6
CONTINUOUS
10
500.12
20
-76.93
30
0
11
497.5
21
-76.93
31
0
0
ARC
8
0
6
CONTINUOUS
10
497.5717392105543
20
-79.91913925498112
30
0
40
2.99
50
91.37483226018058
51
258.58546045578066
0
LINE
8
0
6
CONTINUOUS
10
496.98
20
-82.85
30
0
11
509.23
21
-85.31
31
0
0
ARC
8
0
6
CONTINUOUS
10
509.00932296274806
20
-86.24429205563875
30
0
40
0.96
50
275.4199667847055
51
76.71046910255579
0
LINE
8
0
6
CONTINUOUS
10
509.1
20
-87.2
30
0
11
496.22
21
-87.2
31
0
0
LINE
8
0
6
CONTINUOUS
10
496.22
20
-87.2
30
0
11
494.4
21
-86.2
31
0
0
LINE
8
0
6
CONTINUOUS
10
494.4
20
-86.2
30
0
11
462.49
21
-86.2
31
0
0
LINE
8
0
6
CONTINUOUS
10
462.49
20
-86.2
30
0
11
460.66
21
-87.2
31
0
0
LINE
8
0
6
CONTINUOUS
10
460.66
20
-87.2
30
0
11
429.56
21
-87.2
31
0
0
LINE
8
0
6
CONTINUOUS
10
429.56
20
-87.2
30
0
11
427.74
21
-86.2
31
0
0
LINE
8
0
6
CONTINUOUS
10
427.74
20
-86.2
30
0
11
395.83
21
-86.2
31
0
0
LINE
8
0
6
CONTINUOUS
10
395.83
20
-86.2
30
0
11
394.0
21
-87.2
31
0
0
LINE
8
0
6
CONTINUOUS
10
394.0
20
-87.2
30
0
11
362.9
21
-87.2
31
0
0
LINE
8
0
6
CONTINUOUS
10
362.9
20
-87.2
30
0
11
361.08
21
-86.2
31
0
0
LINE
8
0
6
CONTINUOUS
10
361.08
20
-86.2
30
0
11
329.17
21
-86.2
31
0
0
LINE
8
0
6
CONTINUOUS
10
329.17
20
-86.2
30
0
11
327.34
21
-87.2
31
0
0
LINE
8
0
6
CONTINUOUS
10
327.34
20
-87.2
30
0
11
296.24
21
-87.2
31
0
0
LINE
8
0
6
CONTINUOUS
10
296.24
20
-87.2
30
0
11
294.42
21
-86.2
31
0
0
LINE
8
0
6
CONTINUOUS
10
294.42
20
-86.2
30
0
11
262.51
21
-86.2
31
0
0
LINE
8
0
6
CONTINUOUS
10
262.51
20
-86.2
30
0
11
260.68
21
-87.2
31
0
0
LINE
8
0
6
CONTINUOUS
10
260.68
20
-87.2
30
0
11
229.58
21
-87.2
31
0
0
LINE
8
0
6
CONTINUOUS
10
229.58
20
-87.2
30
0
11
227.76
21
-86.2
31
0
0
LINE
8
0
6
CONTINUOUS
10
227.76
20
-86.2
30
0
11
195.85
21
-86.2
31
0
0
LINE
8
0
6
CONTINUOUS
10
195.85
20
-86.2
30
0
11
194.02
21
-87.2
31
0
0
LINE
8
0
6
CONTINUOUS
10
194.02
20
-87.2
30
0
11
162.92
21
-87.2
31
0
0
LINE
8
0
6
CONTINUOUS
10
162.92
20
-87.2
30
0
11
161.1
21
-86.2
31
0
0
LINE
8
0
6
CONTINUOUS
10
161.1
20
-86.2
30
0
11
129.19
21
-86.2
31
0
0
LINE
8
0
6
CONTINUOUS
10
129.19
20
-86.2
30
0
11
127.36
21
-87.2
31
0
0
LINE
8
0
6
CONTINUOUS
10
127.36
20
-87.2
30
0
11
96.26
21
-87.2
31
0
0
LINE
8
0
6
CONTINUOUS
10
96.26
20
-87.2
30
0
11
94.44
21
-86.2
31
0
0
LINE
8
0
6
CONTINUOUS
10
94.44
20
-86.2
30
0
11
62.53
21
-86.2
31
0
0
LINE
8
0
6
CONTINUOUS
10
62.53
20
-86.2
30
0
11
60.7
21
-87.2
31
0
0
LINE
8
0
6
CONTINUOUS
10
60.7
20
-87.2
30
0
11
29.6
21
-87.2
31
0
0
LINE
8
0
6
CONTINUOUS
10
29.6
20
-87.2
30
0
11
27.78
21
-86.2
31
0
0
LINE
8
0
6
CONTINUOUS
10
27.78
20
-86.2
30
0
11
-4.13
21
-86.2
31
0
0
LINE
8
0
6
CONTINUOUS
10
-4.13
20
-86.2
30
0
11
-5.96
21
-87.2
31
0
0
LINE
8
0
6
CONTINUOUS
10
-5.96
20
-87.2
30
0
11
-37.06
21
-87.2
31
0
0
LINE
8
0
6
CONTINUOUS
10
-37.06
20
-87.2
30
0
11
-38.88
21
-86.2
31
0
0
LINE
8
0
6
CONTINUOUS
10
-38.88
20
-86.2
30
0
11
-70.79
21
-86.2
31
0
0
LINE
8
0
6
CONTINUOUS
10
-70.79
20
-86.2
30
0
11
-72.62
21
-87.2
31
0
0
LINE
8
0
6
CONTINUOUS
10
-72.62
20
-87.2
30
0
11
-103.72
21
-87.2
31
0
0
LINE
8
0
6
CONTINUOUS
10
-103.72
20
-87.2
30
0
11
-105.54
21
-86.2
31
0
0
LINE
8
0
6
CONTINUOUS
10
-105.54
20
-86.2
30
0
11
-137.45
21
-86.2
31
0
0
LINE
8
0
6
CONTINUOUS
10
-137.45
20
-86.2
30
0
11
-139.28
21
-87.2
31
0
0
LINE
8
0
6
CONTINUOUS
10
-139.28
20
-87.2
30
0
11
-170.38
21
-87.2
31
0
0
LINE
8
0
6
CONTINUOUS
10
-170.38
20
-87.2
30
0
11
-172.2
21
-86.2
31
0
0
LINE
8
0
6
CONTINUOUS
10
-172.2
20
-86.2
30
0
11
-204.11
21
-86.2
31
0
0
LINE
8
0
6
CONTINUOUS
10
-204.11
20
-86.2
30
0
11
-205.94
21
-87.2
31
0
0
LINE
8
0
6
CONTINUOUS
10
-205.94
20
-87.2
30
0
11
-237.04
21
-87.2
31
0
0
LINE
8
0
6
CONTINUOUS
10
-237.04
20
-87.2
30
0
11
-238.86
21
-86.2
31
0
0
LINE
8
0
6
CONTINUOUS
10
-238.86
20
-86.2
30
0
11
-270.77
21
-86.2
31
0
0
LINE
8
0
6
CONTINUOUS
10
-270.77
20
-86.2
30
0
11
-272.6
21
-87.2
31
0
0
LINE
8
0
6
CONTINUOUS
10
-272.6
20
-87.2
30
0
11
-303.7
21
-87.2
31
0
0
LINE
8
0
6
CONTINUOUS
10
-303.7
20
-87.2
30
0
11
-305.52
21
-86.2
31
0
0
LINE
8
0
6
CONTINUOUS
10
-305.52
20
-86.2
30
0
11
-337.43
21
-86.2
31
0
0
LINE
8
0
6
CONTINUOUS
10
-337.43
20
-86.2
30
0
11
-339.26
21
-87.2
31
0
0
LINE
8
0
6
CONTINUOUS
10
-339.26
20
-87.2
30
0
11
-370.36
21
-87.2
31
0
0
LINE
8
0
6
CONTINUOUS
10
-370.36
20
-87.2
30
0
11
-372.18
21
-86.2
31
0
0
LINE
8
0
6
CONTINUOUS
10
-372.18
20
-86.2
30
0
11
-404.09
21
-86.2
31
0
0
LINE
8
0
6
CONTINUOUS
10
-404.09
20
-86.2
30
0
11
-405.92
21
-87.2
31
0
0
LINE
8
0
6
CONTINUOUS
10
-405.92
20
-87.2
30
0
11
-437.02
21
-87.2
31
0
0
LINE
8
0
6
CONTINUOUS
10
-437.02
20
-87.2
30
0
11
-438.84
21
-86.2
31
0
0
LINE
8
0
6
CONTINUOUS
10
-438.84
20
-86.2
30
0
11
-470.75
21
-86.2
31
0
0
LINE
8
0
6
CONTINUOUS
10
-470.75
20
-86.2
30
0
11
-472.58
21
-87.2
31
0
0
LINE
8
0
6
CONTINUOUS
10
-472.58
20
-87.2
30
0
11
-486.53
21
-87.2
31
0
0
ARC
8
0
6
CONTINUOUS
10
-494.0599035820099
20
-23.820000001162054
30
0
40
4.0
50
204.83458747136018
51
269.9986189140243
0
ARC
8
0
6
CONTINUOUS
10
-499.9571145190296
20
-26.553656375487382
30
0
40
2.5
50
24.926958879674164
51
42.02559771253466
0
ARC
8
0
6
CONTINUOUS
10
-507.01000080760167
20
-20.212273466519395
30
0
40
3.2
50
179.95929373519257
51
264.9802143840484
0
ARC
8
0
6
CONTINUOUS
10
-507.01
20
-18.520000000000003
30
0
40
3.2
50
90.0
51
179.99999999999994
0
ARC
8
0
6
CONTINUOUS
10
-495.92774923813175
20
-18.5199992084485
30
0
40
3.2
50
2.149081444213314
51
90.04029973949159
0
ARC
8
0
6
CONTINUOUS
10
-490.2312798409799
20
-18.320015208280925
30
0
40
2.5
50
181.83342927336253
51
269.8001482713318
0
ARC
8
0
6
CONTINUOUS
10
-471.1193826561377
20
-18.32000007622269
30
0
40
2.5
50
269.98585152072894
51
346.3494251244365
0
ARC
8
0
6
CONTINUOUS
10
-460.1340597911362
20
-4.999998351809322
30
0
40
5.0
50
89.95347821532611
51
162.78250834113882
0
ARC
8
0
6
CONTINUOUS
10
525.6582970266138
20
-5.199999721142458
30
0
40
5.2
50
15.04723847790473
51
89.98123592511651
0
ARC
8
0
6
CONTINUOUS
10
528.6195146111183
20
-8.500000036812867
30
0
40
3.2
50
270.00869085451507
51
15.032980779708037
0
ARC
8
0
6
CONTINUOUS
10
511.7549985614328
20
-14.199995002871727
30
0
40
2.5
50
90.11455866582277
51
122.00541594849902
0
ARC
8
0
6
CONTINUOUS
10
505.3182648414779
20
-11.500000470433642
30
0
40
3.2
50
270.0310678953041
51
302.1266292290616
0
ARC
8
0
6
CONTINUOUS
10
487.83
20
-17.2
30
0
40
2.5
50
90.0
51
180.0
0
ARC
8
0
6
CONTINUOUS
10
487.82999998185716
20
-21.799698811793466
30
0
40
2.5
50
180.00690272524614
51
264.9514414593334
0
ARC
8
0
6
CONTINUOUS
10
500.22094476011705
20
-27.050255840126916
30
0
40
1.65
50
271.00898706992893
51
83.77008933049068
0
ARC
8
0
6
CONTINUOUS
10
-497.1
20
-77.11
30
0
40
1.0
50
90.0
51
180.0
0
ARC
8
0
6
CONTINUOUS
10
-499.1
20
-77.9
30
0
40
1.0
50
270.0
51
0.0
0
ARC
8
0
6
CONTINUOUS
10
-502.2351009260682
20
-80.18975576893865
30
0
40
1.29
50
88.88506364799487
51
259.95972613869
0
ARC
8
0
6
CONTINUOUS
10
-492.88410726371313
20
-82.35937467100321
30
0
40
1.0
50
258.70312052627
51
321.63818629743315
0
ARC
8
0
6
CONTINUOUS
10
-490.5299799023498
20
-84.21896605803968
30
0
40
2.0
50
0.25685950265109037
51
141.72160766501582
0
ARC
8
0
6
CONTINUOUS
10
-486.53
20
-86.0
30
0
40
2.0
50
180.0
51
270.0
0
ARC
8
0
6
CONTINUOUS
10
500.9
20
-76.73
30
0
40
1.0
50
270.0
51
0.0
0
ARC
8
0
6
CONTINUOUS
10
500.9
20
-76.73
30
0
40
1.0
50
0.0
51
90.0
0
LINE
8
0
6
CONTINUOUS
10
-487.91
20
-27.82
30
0
11
-494.06
21
-27.82
31
0
0
LINE
8
0
6
CONTINUOUS
10
-499.74
20
-24.06
30
0
11
-507.29
21
-23.4
31
0
0
LINE
8
0
6
CONTINUOUS
10
-510.21
20
-20.21
30
0
11
-510.21
21
-18.52
31
0
0
LINE
8
0
6
CONTINUOUS
10
-507.01
20
-15.32
30
0
11
-495.93
21
-15.32
31
0
0
LINE
8
0
6
CONTINUOUS
10
-490.24
20
-20.82
30
0
11
-482.25
21
-20.82
31
0
0
LINE
8
0
6
CONTINUOUS
10
-482.25
20
-20.82
30
0
11
-471.12
21
-20.82
31
0
0
LINE
8
0
6
CONTINUOUS
10
-468.69
20
-18.91
30
0
11
-464.91
21
-3.52
31
0
0
LINE
8
0
6
CONTINUOUS
10
-460.13
20
0.0
30
0
11
525.66
21
0.0
31
0
0
LINE
8
0
6
CONTINUOUS
10
530.68
20
-3.85
30
0
11
531.71
21
-7.67
31
0
0
LINE
8
0
6
CONTINUOUS
10
528.62
20
-11.7
30
0
11
511.75
21
-11.7
31
0
0
LINE
8
0
6
CONTINUOUS
10
510.43
20
-12.08
30
0
11
507.02
21
-14.21
31
0
0
LINE
8
0
6
CONTINUOUS
10
505.32
20
-14.7
30
0
11
487.83
21
-14.7
31
0
0
LINE
8
0
6
CONTINUOUS
10
485.33
20
-17.2
30
0
11
485.33
21
-21.8
31
0
0
LINE
8
0
6
CONTINUOUS
10
487.61
20
-24.29
30
0
11
500.4
21
-25.41
31
0
0
LINE
8
0
6
CONTINUOUS
10
500.25
20
-28.7
30
0
11
485.93
21
-28.7
31
0
0
LINE
8
0
6
CONTINUOUS
10
-497.1
20
-76.11
30
0
11
-493.1
21
-76.11
31
0
0
LINE
8
0
6
CONTINUOUS
10
-493.1
20
-76.11
30
0
11
-497.1
21
-76.11
31
0
0
LINE
8
0
6
CONTINUOUS
10
-498.1
20
-77.11
30
0
11
-498.1
21
-77.9
31
0
0
LINE
8
0
6
CONTINUOUS
10
-499.1
20
-78.9
30
0
11
-502.21
21
-78.9
31
0
0
LINE
8
0
6
CONTINUOUS
10
-502.46
20
-81.46
30
0
11
-493.08
21
-83.34
31
0
0
LINE
8
0
6
CONTINUOUS
10
-488.53
20
-84.21
30
0
11
-488.53
21
-86.0
31
0
0
LINE
8
0
6
CONTINUOUS
10
-486.53
20
-88.0
30
0
11
-472.38
21
-88.0
31
0
0
LINE
8
0
6
CONTINUOUS
10
-470.55
20
-87.0
30
0
11
-439.05
21
-87.0
31
0
0
LINE
8
0
6
CONTINUOUS
10
-437.22
20
-88.0
30
0
11
-405.72
21
-88.0
31
0
0
LINE
8
0
6
CONTINUOUS
10
-403.89
20
-87.0
30
0
11
-372.39
21
-87.0
31
0
0
LINE
8
0
6
CONTINUOUS
10
-370.56
20
-88.0
30
0
11
-339.06
21
-88.0
31
0
0
LINE
8
0
6
CONTINUOUS
10
-337.23
20
-87.0
30
0
11
-305.73
21
-87.0
31
0
0
LINE
8
0
6
CONTINUOUS
10
-303.9
20
-88.0
30
0
11
-272.4
21
-88.0
31
0
0
LINE
8
0
6
CONTINUOUS
10
-270.57
20
-87.0
30
0
11
-239.07
21
-87.0
31
0
0
LINE
8
0
6
CONTINUOUS
10
-237.24
20
-88.0
30
0
11
-205.74
21
-88.0
31
0
0
LINE
8
0
6
CONTINUOUS
10
-203.91
20
-87.0
30
0
11
-172.41
21
-87.0
31
0
0
LINE
8
0
6
CONTINUOUS
10
-170.58
20
-88.0
30
0
11
-139.08
21
-88.0
31
0
0
LINE
8
0
6
CONTINUOUS
10
-137.25
20
-87.0
30
0
11
-105.75
21
-87.0
31
0
0
LINE
8
0
6
CONTINUOUS
10
-103.92
20
-88.0
30
0
11
-72.42
21
-88.0
31
0
0
LINE
8
0
6
CONTINUOUS
10
-70.59
20
-87.0
30
0
11
-39.09
21
-87.0
31
0
0
LINE
8
0
6
CONTINUOUS
10
-37.26
20
-88.0
30
0
11
-5.76
21
-88.0
31
0
0
LINE
8
0
6
CONTINUOUS
10
-3.93
20
-87.0
30
0
11
27.57
21
-87.0
31
0
0
LINE
8
0
6
CONTINUOUS
10
29.4
20
-88.0
30
0
11
60.9
21
-88.0
31
0
0
LINE
8
0
6
CONTINUOUS
10
62.73
20
-87.0
30
0
11
94.23
21
-87.0
31
0
0
LINE
8
0
6
CONTINUOUS
10
96.06
20
-88.0
30
0
11
127.56
21
-88.0
31
0
0
LINE
8
0
6
CONTINUOUS
10
129.39
20
-87.0
30
0
11
160.89
21
-87.0
31
0
0
LINE
8
0
6
CONTINUOUS
10
162.72
20
-88.0
30
0
11
194.22
21
-88.0
31
0
0
LINE
8
0
6
CONTINUOUS
10
196.05
20
-87.0
30
0
11
227.55
21
-87.0
31
0
0
LINE
8
0
6
CONTINUOUS
10
229.38
20
-88.0
30
0
11
260.88
21
-88.0
31
0
0
LINE
8
0
6
CONTINUOUS
10
262.71
20
-87.0
30
0
11
294.21
21
-87.0
31
0
0
LINE
8
0
6
CONTINUOUS
10
296.04
20
-88.0
30
0
11
327.54
21
-88.0
31
0
0
LINE
8
0
6
CONTINUOUS
10
329.37
20
-87.0
30
0
11
360.87
21
-87.0
31
0
0
LINE
8
0
6
CONTINUOUS
10
362.7
20
-88.0
30
0
11
394.2
21
-88.0
31
0
0
LINE
8
0
6
CONTINUOUS
10
396.03
20
-87.0
30
0
11
427.53
21
-87.0
31
0
0
LINE
8
0
6
CONTINUOUS
10
429.36
20
-88.0
30
0
11
460.86
21
-88.0
31
0
0
LINE
8
0
6
CONTINUOUS
10
462.69
20
-87.0
30
0
11
494.19
21
-87.0
31
0
0
LINE
8
0
6
CONTINUOUS
10
496.02
20
-88.0
30
0
11
509.12
21
-88.0
31
0
0
LINE
8
0
6
CONTINUOUS
10
509.39
20
-84.52
30
0
11
497.12
21
-82.07
31
0
0
LINE
8
0
6
CONTINUOUS
10
497.5
20
-77.73
30
0
11
500.9
21
-77.73
31
0
0
LINE
8
0
6
CONTINUOUS
10
500.9
20
-75.73
30
0
11
497.5
21
-75.73
31
0
0
ARC
8
0
6
CONTINUOUS
10
500.47512579813133
20
-19.1904951293385
30
0
40
11.14
50
173.8135424824435
51
181.6949723857662
0
ARC
8
0
6
CONTINUOUS
10
477.89302500773124
20
-16.605216071980376
30
0
40
11.59
50
353.1378537205555
51
358.69091271949054
0
ARC
8
0
6
CONTINUOUS
10
488.63617887059326
20
-16.658184274505626
30
0
40
0.87
50
345.90878204893477
51
93.70236013559722
0
ARC
8
0
6
CONTINUOUS
10
487.7857313022725
20
-17.701553618345642
30
0
40
2.07
50
67.43665096863766
51
97.65475140586409
0
ARC
8
0
6
CONTINUOUS
10
488.1056432345849
20
-17.852170603388227
30
0
40
2.29
50
117.4503359889944
51
139.6664638123372
0
ARC
8
0
6
CONTINUOUS
10
488.5460760398177
20
-17.623583482714682
30
0
40
2.52
50
150.168315191352
51
187.90129143837194
0
ARC
8
0
6
CONTINUOUS
10
512.664729033283
20
-19.130085550690346
30
0
40
26.64
50
177.50416549141113
51
181.13978468708368
0
ARC
8
0
6
CONTINUOUS
10
478.0175487520984
20
-20.325
30
0
40
8.04
50
355.2555632951795
51
4.74443670482046
0
ARC
8
0
6
CONTINUOUS
10
491.5521606975317
20
-20.695651175242453
30
0
40
5.53
50
183.0511607789761
51
196.86498041794732
0
ARC
8
0
6
CONTINUOUS
10
490.4766771050959
20
-19.382256534745117
30
0
40
5.14
50
215.26661614906152
51
228.63663397034364
0
ARC
8
0
6
CONTINUOUS
10
487.48185912224125
20
-21.50674400957693
30
0
40
1.97
50
287.06596597374323
51
320.8690875444638
0
ARC
8
0
6
CONTINUOUS
10
488.2780026258719
20
-21.627600853408385
30
0
40
1.34
50
303.1112678491941
51
20.880408938979947
0
ARC
8
0
6
CONTINUOUS
10
493.1915819294173
20
-19.89711621681639
30
0
40
3.87
50
174.40787841220552
51
198.8894119543322
0
ARC
8
0
6
CONTINUOUS
10
525.9880109491609
20
-19.809005666547904
30
0
40
36.11
50
176.38149408305227
51
179.3986202206816
0
ARC
8
0
6
CONTINUOUS
10
487.85686236251155
20
-16.61602277101171
30
0
40
2.28
50
336.6416126748431
51
12.822993069068778
0
ARC
8
0
6
CONTINUOUS
10
488.45685565879194
20
-16.679036420279328
30
0
40
1.72
50
19.31947219505762
51
77.4703748891788
0
ARC
8
0
6
CONTINUOUS
10
487.5398245415962
20
-18.01560065103664
30
0
40
3.28
50
66.83713083601157
51
92.96786039583766
0
ARC
8
0
6
CONTINUOUS
10
488.4531425023567
20
-17.876726821181094
30
0
40
3.27
50
118.75618019628013
51
137.55827297846082
0
ARC
8
0
6
CONTINUOUS
10
489.388966972433
20
-17.60941233819748
30
0
40
3.87
50
149.9245402954554
51
178.67612261227293
0
ARC
8
0
6
CONTINUOUS
10
438.1512229398871
20
-17.86038188747471
30
0
40
47.37
50
357.9196007339256
51
0.411708114982306
0
ARC
8
0
6
CONTINUOUS
10
475.2240922103236
20
-20.63524274641478
30
0
40
10.32
50
356.0841988491385
51
5.868877222382845
0
ARC
8
0
6
CONTINUOUS
10
488.7397579669508
20
-21.37947954225805
30
0
40
3.22
50
179.29749446419328
51
209.60056578872667
0
ARC
8
0
6
CONTINUOUS
10
487.77659452097726
20
-21.951707033552612
30
0
40
2.1
50
209.0060134331179
51
245.32781593325518
0
ARC
8
0
6
CONTINUOUS
10
487.2430131304182
20
-21.155371232484594
30
0
40
3.13
50
286.27139550575896
51
312.3113288362094
0
ARC
8
0
6
CONTINUOUS
10
488.0421319388093
20
-21.76354720706456
30
0
40
2.15
50
307.46745744100843
51
11.36150584980683
0
ARC
8
0
6
CONTINUOUS
10
493.89956049619377
20
-19.83587364713495
30
0
40
4.04
50
174.2341227345563
51
201.85805928034736
0
LINE
8
0
6
CONTINUOUS
10
485.5
20
-19.28
30
0
11
486.03
21
-18.68
31
0
0
LINE
8
0
6
CONTINUOUS
10
485.52
20
-18.17
30
0
11
486.03
21
-17.55
31
0
0
LINE
8
0
6
CONTINUOUS
10
485.52
20
-19.86
30
0
11
486.02
21
-19.24
31
0
0
LINE
8
0
6
CONTINUOUS
10
485.51
20
-18.73
30
0
11
486.05
21
-18.14
31
0
0
LINE
8
0
6
CONTINUOUS
10
485.52
20
-17.61
30
0
11
486.16
21
-16.82
31
0
0
LINE
8
0
6
CONTINUOUS
10
490.0
20
-22.65
30
0
11
488.53
21
-24.01
31
0
0
LINE
8
0
6
CONTINUOUS
10
488.53
20
-24.01
30
0
11
487.91
21
-23.38
31
0
0
LINE
8
0
6
CONTINUOUS
10
487.91
20
-23.38
30
0
11
487.35
21
-24.1
31
0
0
LINE
8
0
6
CONTINUOUS
10
486.09
20
-21.57
30
0
11
485.53
21
-21.01
31
0
0
LINE
8
0
6
CONTINUOUS
10
488.12
20
-24.16
30
0
11
487.35
21
-23.39
31
0
0
LINE
8
0
6
CONTINUOUS
10
486.26
20
-22.3
30
0
11
485.52
21
-21.56
31
0
0
LINE
8
0
6
CONTINUOUS
10
485.52
20
-21.56
30
0
11
486.03
21
-20.94
31
0
0
LINE
8
0
6
CONTINUOUS
10
487.51
20
-24.12
30
0
11
485.64
21
-22.24
31
0
0
LINE
8
0
6
CONTINUOUS
10
490.03
20
-20.99
30
0
11
489.34
21
-20.3
31
0
0
LINE
8
0
6
CONTINUOUS
10
487.87
20
-24.14
30
0
11
490.19
21
-21.72
31
0
0
LINE
8
0
6
CONTINUOUS
10
490.19
20
-21.72
30
0
11
489.45
21
-20.87
31
0
0
LINE
8
0
6
CONTINUOUS
10
489.88
20
-20.28
30
0
11
489.33
21
-19.72
31
0
0
LINE
8
0
6
CONTINUOUS
10
489.33
20
-19.72
30
0
11
489.88
21
-19.15
31
0
0
LINE
8
0
6
CONTINUOUS
10
489.35
20
-18.62
30
0
11
489.92
21
-18.06
31
0
0
LINE
8
0
6
CONTINUOUS
10
489.44
20
-17.58
30
0
11
490.13
21
-16.8
31
0
0
LINE
8
0
6
CONTINUOUS
10
489.34
20
-19.29
30
0
11
489.9
21
-18.6
31
0
0
LINE
8
0
6
CONTINUOUS
10
487.51
20
-15.65
30
0
11
486.88
21
-15.01
31
0
0
LINE
8
0
6
CONTINUOUS
10
486.88
20
-15.01
30
0
11
485.88
21
-15.97
31
0
0
LINE
8
0
6
CONTINUOUS
10
489.38
20
-18.11
30
0
11
489.95
21
-17.53
31
0
0
LINE
8
0
6
CONTINUOUS
10
489.47
20
-17.05
30
0
11
490.11
21
-16.26
31
0
0
LINE
8
0
6
CONTINUOUS
10
488.07
20
-15.65
30
0
11
487.2
21
-14.78
31
0
0
LINE
8
0
6
CONTINUOUS
10
490.14
20
-16.58
30
0
11
488.41
21
-14.85
31
0
0
LINE
8
0
6
CONTINUOUS
10
490.09
20
-17.1
30
0
11
489.45
21
-16.36
31
0
0
LINE
8
0
6
CONTINUOUS
10
489.95
20
-15.83
30
0
11
489.3
21
-15.18
31
0
0
LINE
8
0
6
CONTINUOUS
10
488.85
20
-15.82
30
0
11
487.73
21
-14.74
31
0
0
LINE
8
0
6
CONTINUOUS
10
487.73
20
-14.74
30
0
11
485.6
21
-16.82
31
0
0
LINE
8
0
6
CONTINUOUS
10
489.05
20
-15.06
30
0
11
488.39
21
-15.72
31
0
0
LINE
8
0
6
CONTINUOUS
10
488.62
20
-14.92
30
0
11
487.91
21
-15.63
31
0
0
LINE
8
0
6
CONTINUOUS
10
488.18
20
-14.8
30
0
11
487.32
21
-15.66
31
0
0
LINE
8
0
6
CONTINUOUS
10
-460.13
20
-0.8
30
0
11
525.66
21
-0.8
31
0
0
LINE
8
0
6
CONTINUOUS
10
-487.91
20
-27.02
30
0
11
-494.06
21
-27.02
31
0
0
ARC
8
0
6
CONTINUOUS
10
-494.0640738224134
20
-23.82000259313059
30
0
40
3.2
50
204.75564376285212
51
270.0729415293191
0
ARC
8
0
6
CONTINUOUS
10
-499.96444156885997
20
-26.54683801890621
30
0
40
3.3
50
24.85062114229684
51
84.88099274387135
0
LINE
8
0
6
CONTINUOUS
10
-499.67
20
-23.26
30
0
11
-507.22
21
-22.6
31
0
0
ARC
8
0
6
CONTINUOUS
10
-507.0100001316251
20
-20.20920514153086
30
0
40
2.4
50
180.01897584851025
51
264.98020302273716
0
LINE
8
0
6
CONTINUOUS
10
-509.41
20
-20.21
30
0
11
-509.41
21
-18.52
31
0
0
ARC
8
0
6
CONTINUOUS
10
-507.01000000000005
20
-18.52
30
0
40
2.4
50
89.99999999999865
51
180.0
0
LINE
8
0
6
CONTINUOUS
10
-507.01
20
-16.12
30
0
11
-495.93
21
-16.12
31
0
0
ARC
8
0
6
CONTINUOUS
10
-495.92831192859876
20
-18.51999940633637
30
0
40
2.4
50
2.1490814442132207
51
90.04029973949292
0
ARC
8
0
6
CONTINUOUS
10
-490.231833505877
20
-18.320010104807327
30
0
40
3.3
50
181.91003763089253
51
269.8582102653775
0
LINE
8
0
6
CONTINUOUS
10
-490.24
20
-21.62
30
0
11
-482.25
21
-21.62
31
0
0
LINE
8
0
6
CONTINUOUS
10
-482.25
20
-21.62
30
0
11
-471.12
21
-21.62
31
0
0
ARC
8
0
6
CONTINUOUS
10
-471.11649386489535
20
-18.320001862573765
30
0
40
3.3
50
269.93912521766845
51
346.3280151773356
0
LINE
8
0
6
CONTINUOUS
10
-467.91
20
-19.1
30
0
11
-464.14
21
-3.74
31
0
0
ARC
8
0
6
CONTINUOUS
10
-460.1334549071658
20
-4.999998579001721
30
0
40
4.2
50
89.95286866153938
51
162.5424171973293
0
ARC
8
0
6
CONTINUOUS
10
525.6629419285714
20
-5.199999016483559
30
0
40
4.4
50
15.150977622790014
51
90.03830911439344
0
LINE
8
0
6
CONTINUOUS
10
529.91
20
-4.05
30
0
11
530.94
21
-7.88
31
0
0
ARC
8
0
6
CONTINUOUS
10
528.6214661001561
20
-8.500000447802057
30
0
40
2.4
50
269.9649994347863
51
14.97120206206437
0
LINE
8
0
6
CONTINUOUS
10
528.62
20
-10.9
30
0
11
511.75
21
-10.9
31
0
0
ARC
8
0
6
CONTINUOUS
10
511.7464280190887
20
-14.199998066810398
30
0
40
3.3
50
89.93798197858062
51
121.95280982326501
0
LINE
8
0
6
CONTINUOUS
10
510.0
20
-11.4
30
0
11
506.59
21
-13.53
31
0
0
ARC
8
0
6
CONTINUOUS
10
505.3096914892351
20
-11.5000221387259
30
0
40
2.4
50
270.24609832333175
51
302.2396598820633
0
LINE
8
0
6
CONTINUOUS
10
505.32
20
-13.9
30
0
11
487.83
21
-13.9
31
0
0
ARC
8
0
6
CONTINUOUS
10
487.8299999999999
20
-17.2
30
0
40
3.3
50
89.99999999999902
51
180.0
0
LINE
8
0
6
CONTINUOUS
10
484.53
20
-17.2
30
0
11
484.53
21
-21.8
31
0
0
ARC
8
0
6
CONTINUOUS
10
487.82999207201243
20
-21.79276642172024
30
0
40
3.3
50
180.1255920721531
51
264.95855117858684
0
LINE
8
0
6
CONTINUOUS
10
487.54
20
-25.08
30
0
11
500.33
21
-26.2
31
0
0
ARC
8
0
6
CONTINUOUS
10
500.159305751033
20
-27.043849682401554
30
0
40
0.8609406559801915
50
276.0469404859901
51
78.56449093429877
0
LINE
8
0
6
CONTINUOUS
10
500.25
20
-27.9
30
0
11
485.93
21
-27.9
31
0
0
LINE
8
0
6
CONTINUOUS
10
-472.38
20
-88.0
30
0
11
-470.55
21
-87.0
31
0
0
LINE
8
0
6
CONTINUOUS
10
-439.05
20
-87.0
30
0
11
-437.22
21
-88.0
31
0
0
LINE
8
0
6
CONTINUOUS
10
-405.72
20
-88.0
30
0
11
-403.89
21
-87.0
31
0
0
LINE
8
0
6
CONTINUOUS
10
-372.39
20
-87.0
30
0
11
-370.56
21
-88.0
31
0
0
LINE
8
0
6
CONTINUOUS
10
-339.06
20
-88.0
30
0
11
-337.23
21
-87.0
31
0
0
LINE
8
0
6
CONTINUOUS
10
-305.73
20
-87.0
30
0
11
-303.9
21
-88.0
31
0
0
LINE
8
0
6
CONTINUOUS
10
-272.4
20
-88.0
30
0
11
-270.57
21
-87.0
31
0
0
LINE
8
0
6
CONTINUOUS
10
-239.07
20
-87.0
30
0
11
-237.24
21
-88.0
31
0
0
LINE
8
0
6
CONTINUOUS
10
-205.74
20
-88.0
30
0
11
-203.91
21
-87.0
31
0
0
LINE
8
0
6
CONTINUOUS
10
-172.41
20
-87.0
30
0
11
-170.58
21
-88.0
31
0
0
LINE
8
0
6
CONTINUOUS
10
-139.08
20
-88.0
30
0
11
-137.25
21
-87.0
31
0
0
LINE
8
0
6
CONTINUOUS
10
-105.75
20
-87.0
30
0
11
-103.92
21
-88.0
31
0
0
LINE
8
0
6
CONTINUOUS
10
-72.42
20
-88.0
30
0
11
-70.59
21
-87.0
31
0
0
LINE
8
0
6
CONTINUOUS
10
-39.09
20
-87.0
30
0
11
-37.26
21
-88.0
31
0
0
LINE
8
0
6
CONTINUOUS
10
-5.76
20
-88.0
30
0
11
-3.93
21
-87.0
31
0
0
LINE
8
0
6
CONTINUOUS
10
27.57
20
-87.0
30
0
11
29.4
21
-88.0
31
0
0
LINE
8
0
6
CONTINUOUS
10
60.9
20
-88.0
30
0
11
62.73
21
-87.0
31
0
0
LINE
8
0
6
CONTINUOUS
10
94.23
20
-87.0
30
0
11
96.06
21
-88.0
31
0
0
LINE
8
0
6
CONTINUOUS
10
127.56
20
-88.0
30
0
11
129.39
21
-87.0
31
0
0
LINE
8
0
6
CONTINUOUS
10
160.89
20
-87.0
30
0
11
162.72
21
-88.0
31
0
0
LINE
8
0
6
CONTINUOUS
10
194.22
20
-88.0
30
0
11
196.05
21
-87.0
31
0
0
LINE
8
0
6
CONTINUOUS
10
227.55
20
-87.0
30
0
11
229.38
21
-88.0
31
0
0
LINE
8
0
6
CONTINUOUS
10
260.88
20
-88.0
30
0
11
262.71
21
-87.0
31
0
0
LINE
8
0
6
CONTINUOUS
10
294.21
20
-87.0
30
0
11
296.04
21
-88.0
31
0
0
LINE
8
0
6
CONTINUOUS
10
327.54
20
-88.0
30
0
11
329.37
21
-87.0
31
0
0
LINE
8
0
6
CONTINUOUS
10
360.87
20
-87.0
30
0
11
362.7
21
-88.0
31
0
0
LINE
8
0
6
CONTINUOUS
10
394.2
20
-88.0
30
0
11
396.03
21
-87.0
31
0
0
LINE
8
0
6
CONTINUOUS
10
427.53
20
-87.0
30
0
11
429.36
21
-88.0
31
0
0
LINE
8
0
6
CONTINUOUS
10
460.86
20
-88.0
30
0
11
462.69
21
-87.0
31
0
0
LINE
8
0
6
CONTINUOUS
10
494.19
20
-87.0
30
0
11
496.02
21
-88.0
31
0
0
ARC
8
0
6
CONTINUOUS
10
509.0281405741787
20
-86.24239883765179
30
0
40
1.76
50
272.99178971483315
51
78.13526131385271
0
ARC
8
0
6
CONTINUOUS
10
497.5351915424017
20
-79.9197172318232
30
0
40
2.19
50
90.92073682189287
51
259.07142327362646
0
LINE
8
0
6
CONTINUOUS
10
-493.1
20
-76.91
30
0
11
-497.3
21
-76.91
31
0
0
ARC
8
0
6
CONTINUOUS
10
-499.1
20
-77.9
30
0
40
1.8
50
270.0
51
0.0
0
LINE
8
0
6
CONTINUOUS
10
-499.1
20
-79.7
30
0
11
-502.21
21
-79.7
31
0
0
ARC
8
0
6
CONTINUOUS
10
-502.16076117647856
20
-80.20012641056341
30
0
40
0.5025444142409932
50
95.62280694116903
51
252.72450899971707
0
LINE
8
0
6
CONTINUOUS
10
-502.31
20
-80.68
30
0
11
-492.8
21
-82.58
31
0
0
LINE
8
0
6
CONTINUOUS
10
-497.3
20
-77.9
30
0
11
-497.3
21
-76.91
31
0
0
LINE
8
0
6
CONTINUOUS
10
-493.1
20
-76.91
30
0
11
-493.1
21
-76.11
31
0
0
ARC
8
0
6
CONTINUOUS
10
-490.52998483101
20
-84.21921662160783
30
0
40
2.8
50
0.1885980261114913
51
144.16630807775098
0
LINE
8
0
6
CONTINUOUS
10
-487.73
20
-84.21
30
0
11
-487.73
21
-86.0
31
0
0
ARC
8
0
6
CONTINUOUS
10
-486.53000000000003
20
-86.0
30
0
40
1.2
50
180.0
51
270.00000000000273
0
LINE
8
0
6
CONTINUOUS
10
-486.53
20
-87.2
30
0
11
-472.58
21
-87.2
31
0
0
LINE
8
0
6
CONTINUOUS
10
-472.58
20
-87.2
30
0
11
-470.75
21
-86.2
31
0
0
LINE
8
0
6
CONTINUOUS
10
-470.75
20
-86.2
30
0
11
-438.84
21
-86.2
31
0
0
LINE
8
0
6
CONTINUOUS
10
-438.84
20
-86.2
30
0
11
-437.02
21
-87.2
31
0
0
LINE
8
0
6
CONTINUOUS
10
-437.02
20
-87.2
30
0
11
-405.92
21
-87.2
31
0
0
LINE
8
0
6
CONTINUOUS
10
-405.92
20
-87.2
30
0
11
-404.09
21
-86.2
31
0
0
LINE
8
0
6
CONTINUOUS
10
-404.09
20
-86.2
30
0
11
-372.18
21
-86.2
31
0
0
LINE
8
0
6
CONTINUOUS
10
-372.18
20
-86.2
30
0
11
-370.36
21
-87.2
31
0
0
LINE
8
0
6
CONTINUOUS
10
-370.36
20
-87.2
30
0
11
-339.26
21
-87.2
31
0
0
LINE
8
0
6
CONTINUOUS
10
-339.26
20
-87.2
30
0
11
-337.43
21
-86.2
31
0
0
LINE
8
0
6
CONTINUOUS
10
-337.43
20
-86.2
30
0
11
-305.52
21
-86.2
31
0
0
LINE
8
0
6
CONTINUOUS
10
-305.52
20
-86.2
30
0
11
-303.7
21
-87.2
31
0
0
LINE
8
0
6
CONTINUOUS
10
-303.7
20
-87.2
30
0
11
-272.6
21
-87.2
31
0
0
LINE
8
0
6
CONTINUOUS
10
-272.6
20
-87.2
30
0
11
-270.77
21
-86.2
31
0
0
LINE
8
0
6
CONTINUOUS
10
-270.77
20
-86.2
30
0
11
-238.86
21
-86.2
31
0
0
LINE
8
0
6
CONTINUOUS
10
-238.86
20
-86.2
30
0
11
-237.04
21
-87.2
31
0
0
LINE
8
0
6
CONTINUOUS
10
-237.04
20
-87.2
30
0
11
-205.94
21
-87.2
31
0
0
LINE
8
0
6
CONTINUOUS
10
-205.94
20
-87.2
30
0
11
-204.11
21
-86.2
31
0
0
LINE
8
0
6
CONTINUOUS
10
-204.11
20
-86.2
30
0
11
-172.2
21
-86.2
31
0
0
LINE
8
0
6
CONTINUOUS
10
-172.2
20
-86.2
30
0
11
-170.38
21
-87.2
31
0
0
LINE
8
0
6
CONTINUOUS
10
-170.38
20
-87.2
30
0
11
-139.28
21
-87.2
31
0
0
LINE
8
0
6
CONTINUOUS
10
-139.28
20
-87.2
30
0
11
-137.45
21
-86.2
31
0
0
LINE
8
0
6
CONTINUOUS
10
-137.45
20
-86.2
30
0
11
-105.54
21
-86.2
31
0
0
LINE
8
0
6
CONTINUOUS
10
-105.54
20
-86.2
30
0
11
-103.72
21
-87.2
31
0
0
LINE
8
0
6
CONTINUOUS
10
-103.72
20
-87.2
30
0
11
-72.62
21
-87.2
31
0
0
LINE
8
0
6
CONTINUOUS
10
-72.62
20
-87.2
30
0
11
-70.79
21
-86.2
31
0
0
LINE
8
0
6
CONTINUOUS
10
-70.79
20
-86.2
30
0
11
-38.88
21
-86.2
31
0
0
LINE
8
0
6
CONTINUOUS
10
-38.88
20
-86.2
30
0
11
-37.06
21
-87.2
31
0
0
LINE
8
0
6
CONTINUOUS
10
-37.06
20
-87.2
30
0
11
-5.96
21
-87.2
31
0
0
LINE
8
0
6
CONTINUOUS
10
-5.96
20
-87.2
30
0
11
-4.13
21
-86.2
31
0
0
LINE
8
0
6
CONTINUOUS
10
-4.13
20
-86.2
30
0
11
27.78
21
-86.2
31
0
0
LINE
8
0
6
CONTINUOUS
10
27.78
20
-86.2
30
0
11
29.6
21
-87.2
31
0
0
LINE
8
0
6
CONTINUOUS
10
29.6
20
-87.2
30
0
11
60.7
21
-87.2
31
0
0
LINE
8
0
6
CONTINUOUS
10
60.7
20
-87.2
30
0
11
62.53
21
-86.2
31
0
0
LINE
8
0
6
CONTINUOUS
10
62.53
20
-86.2
30
0
11
94.44
21
-86.2
31
0
0
LINE
8
0
6
CONTINUOUS
10
94.44
20
-86.2
30
0
11
96.26
21
-87.2
31
0
0
LINE
8
0
6
CONTINUOUS
10
96.26
20
-87.2
30
0
11
127.36
21
-87.2
31
0
0
LINE
8
0
6
CONTINUOUS
10
127.36
20
-87.2
30
0
11
129.19
21
-86.2
31
0
0
LINE
8
0
6
CONTINUOUS
10
129.19
20
-86.2
30
0
11
161.1
21
-86.2
31
0
0
LINE
8
0
6
CONTINUOUS
10
161.1
20
-86.2
30
0
11
162.92
21
-87.2
31
0
0
LINE
8
0
6
CONTINUOUS
10
162.92
20
-87.2
30
0
11
194.02
21
-87.2
31
0
0
LINE
8
0
6
CONTINUOUS
10
194.02
20
-87.2
30
0
11
195.85
21
-86.2
31
0
0
LINE
8
0
6
CONTINUOUS
10
195.85
20
-86.2
30
0
11
227.76
21
-86.2
31
0
0
LINE
8
0
6
CONTINUOUS
10
227.76
20
-86.2
30
0
11
229.58
21
-87.2
31
0
0
LINE
8
0
6
CONTINUOUS
10
229.58
20
-87.2
30
0
11
260.68
21
-87.2
31
0
0
LINE
8
0
6
CONTINUOUS
10
260.68
20
-87.2
30
0
11
262.51
21
-86.2
31
0
0
LINE
8
0
6
CONTINUOUS
10
262.51
20
-86.2
30
0
11
294.42
21
-86.2
31
0
0
LINE
8
0
6
CONTINUOUS
10
294.42
20
-86.2
30
0
11
296.24
21
-87.2
31
0
0
LINE
8
0
6
CONTINUOUS
10
296.24
20
-87.2
30
0
11
327.34
21
-87.2
31
0
0
LINE
8
0
6
CONTINUOUS
10
327.34
20
-87.2
30
0
11
329.17
21
-86.2
31
0
0
LINE
8
0
6
CONTINUOUS
10
329.17
20
-86.2
30
0
11
361.08
21
-86.2
31
0
0
LINE
8
0
6
CONTINUOUS
10
361.08
20
-86.2
30
0
11
362.9
21
-87.2
31
0
0
LINE
8
0
6
CONTINUOUS
10
362.9
20
-87.2
30
0
11
394.0
21
-87.2
31
0
0
LINE
8
0
6
CONTINUOUS
10
394.0
20
-87.2
30
0
11
395.83
21
-86.2
31
0
0
LINE
8
0
6
CONTINUOUS
10
395.83
20
-86.2
30
0
11
427.74
21
-86.2
31
0
0
LINE
8
0
6
CONTINUOUS
10
427.74
20
-86.2
30
0
11
429.56
21
-87.2
31
0
0
LINE
8
0
6
CONTINUOUS
10
429.56
20
-87.2
30
0
11
460.66
21
-87.2
31
0
0
LINE
8
0
6
CONTINUOUS
10
460.66
20
-87.2
30
0
11
462.49
21
-86.2
31
0
0
LINE
8
0
6
CONTINUOUS
10
462.49
20
-86.2
30
0
11
494.4
21
-86.2
31
0
0
LINE
8
0
6
CONTINUOUS
10
494.4
20
-86.2
30
0
11
496.22
21
-87.2
31
0
0
LINE
8
0
6
CONTINUOUS
10
496.22
20
-87.2
30
0
11
509.1
21
-87.2
31
0
0
ARC
8
0
6
CONTINUOUS
10
509.00932296274806
20
-86.24429205563875
30
0
40
0.96
50
275.4199667847055
51
76.71046910255579
0
LINE
8
0
6
CONTINUOUS
10
509.23
20
-85.31
30
0
11
496.98
21
-82.85
31
0
0
ARC
8
0
6
CONTINUOUS
10
497.5717392105543
20
-79.91913925498112
30
0
40
2.99
50
91.37483226018058
51
258.58546045578066
0
LINE
8
0
6
CONTINUOUS
10
497.5
20
-76.93
30
0
11
500.12
21
-76.93
31
0
0
LINE
8
0
6
CONTINUOUS
10
500.9
20
-76.53
30
0
11
497.5
21
-76.53
31
0
0
LINE
8
0
6
CONTINUOUS
10
497.5
20
-75.73
30
0
11
497.5
21
-76.53
31
0
0
LINE
8
0
6
CONTINUOUS
10
500.12
20
-76.93
30
0
11
500.9
21
-76.53
31
0
0
LINE
8
0
6
CONTINUOUS
10
-498.1
20
-77.11
30
0
11
-498.1
21
-24.88
31
0
0
LINE
8
0
6
CONTINUOUS
10
-493.1
20
-76.11
30
0
11
-498.1
21
-76.11
31
0
0
LINE
8
0
6
CONTINUOUS
10
-498.1
20
-76.11
30
0
11
-498.1
21
-24.88
31
0
0
LINE
8
0
6
CONTINUOUS
10
-498.1
20
-77.11
30
0
11
-454.04
21
-0.8
31
0
0
LINE
8
0
6
CONTINUOUS
10
-404.58
20
-86.47
30
0
11
-454.04
21
-0.8
31
0
0
LINE
8
0
6
CONTINUOUS
10
-404.58
20
-86.47
30
0
11
-355.12
21
-0.8
31
0
0
LINE
8
0
6
CONTINUOUS
10
-305.82
20
-86.2
30
0
11
-355.12
21
-0.8
31
0
0
LINE
8
0
6
CONTINUOUS
10
-305.82
20
-86.2
30
0
11
-256.51
21
-0.8
31
0
0
LINE
8
0
6
CONTINUOUS
10
-206.63
20
-87.2
30
0
11
-256.51
21
-0.8
31
0
0
LINE
8
0
6
CONTINUOUS
10
-206.63
20
-87.2
30
0
11
-156.74
21
-0.8
31
0
0
LINE
8
0
6
CONTINUOUS
10
-107.44
20
-86.2
30
0
11
-156.74
21
-0.8
31
0
0
LINE
8
0
6
CONTINUOUS
10
-107.44
20
-86.2
30
0
11
-58.13
21
-0.8
31
0
0
LINE
8
0
6
CONTINUOUS
10
-8.25
20
-87.2
30
0
11
-58.13
21
-0.8
31
0
0
LINE
8
0
6
CONTINUOUS
10
-8.25
20
-87.2
30
0
11
41.63
21
-0.8
31
0
0
LINE
8
0
6
CONTINUOUS
10
90.94
20
-86.2
30
0
11
41.63
21
-0.8
31
0
0
LINE
8
0
6
CONTINUOUS
10
90.94
20
-86.2
30
0
11
140.24
21
-0.8
31
0
0
LINE
8
0
6
CONTINUOUS
10
190.13
20
-87.2
30
0
11
140.24
21
-0.8
31
0
0
LINE
8
0
6
CONTINUOUS
10
190.13
20
-87.2
30
0
11
240.01
21
-0.8
31
0
0
LINE
8
0
6
CONTINUOUS
10
289.32
20
-86.2
30
0
11
240.01
21
-0.8
31
0
0
LINE
8
0
6
CONTINUOUS
10
289.32
20
-86.2
30
0
11
338.62
21
-0.8
31
0
0
LINE
8
0
6
CONTINUOUS
10
388.51
20
-87.2
30
0
11
338.62
21
-0.8
31
0
0
LINE
8
0
6
CONTINUOUS
10
388.51
20
-87.2
30
0
11
438.39
21
-0.8
31
0
0
LINE
8
0
6
CONTINUOUS
10
487.69
20
-86.2
30
0
11
438.39
21
-0.8
31
0
0
LINE
8
0
6
CONTINUOUS
10
487.69
20
-86.2
30
0
11
497.5
21
-69.21
31
0
0
LINE
8
0
6
CONTINUOUS
10
497.5
20
-76.93
30
0
11
497.5
21
-28.7
31
0
0
ENDSEC
0
EOF