0
SECTION
2
HEADER
0
ENDSEC
0
SECTION
2
TABLES
0
TABLE
2
LTYPE
70
2
0
LTYPE
2
CONTINUOUS
70
0
3
Solid line
72
65
73
0
40
0.0
0
ENDTAB
0
TABLE
2
LAYER
70
1
0
LAYER
2
0
70
0
62
7
6
CONTINUOUS
0
ENDTAB
0
ENDSEC
0
SECTION
2
ENTITIES
0
LINE
8
0
6
CONTINUOUS
10
34.63
20
37.5
30
0
11
-0.0
21
37.5
31
0
0
LINE
8
0
6
CONTINUOUS
10
34.63
20
-37.5
30
0
11
-0.0
21
-37.5
31
0
0
LINE
8
0
6
CONTINUOUS
10
0.0
20
37.5
30
0
11
0.0
21
-37.5
31
0
0
LINE
8
0
6
CONTINUOUS
10
-0.0
20
0.0
30
0
11
34.63
21
0.0
31
0
0
LINE
8
0
6
CONTINUOUS
10
2.95
20
-20.6
30
0
11
2.95
21
20.6
31
0
0
LINE
8
0
6
CONTINUOUS
10
0.98
20
20.13
30
0
11
0.98
21
-20.13
31
0
0
LINE
8
0
6
CONTINUOUS
10
34.63
20
-35.54
30
0
11
1.96
21
-35.54
31
0
0
LINE
8
0
6
CONTINUOUS
10
1.96
20
-35.54
30
0
11
1.96
21
-22.56
31
0
0
LINE
8
0
6
CONTINUOUS
10
1.96
20
-22.56
30
0
11
2.95
21
-20.6
31
0
0
LINE
8
0
6
CONTINUOUS
10
0.98
20
-20.13
30
0
11
-0.0
21
-22.1
31
0
0
LINE
8
0
6
CONTINUOUS
10
-0.0
20
-22.1
30
0
11
-0.0
21
-35.78
31
0
0
LINE
8
0
6
CONTINUOUS
10
1.72
20
-37.5
30
0
11
34.63
21
-37.5
31
0
0
LINE
8
0
6
CONTINUOUS
10
34.63
20
-37.5
30
0
11
34.63
21
-35.54
31
0
0
ARC
8
0
6
CONTINUOUS
10
1.7200000000000002
20
-35.78
30
0
40
1.72
50
180.0
51
270.0
0
LINE
8
0
6
CONTINUOUS
10
34.63
20
35.54
30
0
11
1.96
21
35.54
31
0
0
LINE
8
0
6
CONTINUOUS
10
1.96
20
35.54
30
0
11
1.96
21
22.56
31
0
0
LINE
8
0
6
CONTINUOUS
10
1.96
20
22.56
30
0
11
2.95
21
20.6
31
0
0
LINE
8
0
6
CONTINUOUS
10
0.98
20
20.13
30
0
11
0.0
21
22.1
31
0
0
LINE
8
0
6
CONTINUOUS
10
0.0
20
22.1
30
0
11
0.0
21
35.78
31
0
0
LINE
8
0
6
CONTINUOUS
10
1.72
20
37.5
30
0
11
34.63
21
37.5
31
0
0
LINE
8
0
6
CONTINUOUS
10
34.63
20
37.5
30
0
11
34.63
21
35.54
31
0
0
ARC
8
0
6
CONTINUOUS
10
1.7200000000000002
20
35.78
30
0
40
1.72
50
90.00000000000001
51
180.0
0
ENDSEC
0
EOF