0
SECTION
2
HEADER
0
ENDSEC
0
SECTION
2
TABLES
0
TABLE
2
LTYPE
70
2
0
LTYPE
2
CONTINUOUS
70
0
3
Solid line
72
65
73
0
40
0.0
0
ENDTAB
0
TABLE
2
LAYER
70
1
0
LAYER
2
0
70
0
62
7
6
CONTINUOUS
0
ENDTAB
0
ENDSEC
0
SECTION
2
ENTITIES
0
LINE
8
0
6
CONTINUOUS
10
0.0
20
-150.0
30
0
11
0.0
21
0.0
31
0
0
LINE
8
0
6
CONTINUOUS
10
-900.0
20
0.0
30
0
11
0.0
21
0.0
31
0
0
LINE
8
0
6
CONTINUOUS
10
0.0
20
0.0
30
0
11
-150.0
21
-150.0
31
0
0
LINE
8
0
6
CONTINUOUS
10
-300.0
20
0.0
30
0
11
-150.0
21
-150.0
31
0
0
LINE
8
0
6
CONTINUOUS
10
-56.57
20
0.0
30
0
11
-178.28
21
-121.72
31
0
0
LINE
8
0
6
CONTINUOUS
10
-113.14
20
0.0
30
0
11
-206.57
21
-93.43
31
0
0
LINE
8
0
6
CONTINUOUS
10
-169.71
20
0.0
30
0
11
-234.85
21
-65.15
31
0
0
LINE
8
0
6
CONTINUOUS
10
-226.27
20
0.0
30
0
11
-263.14
21
-36.86
31
0
0
LINE
8
0
6
CONTINUOUS
10
-300.0
20
-56.57
30
0
11
-206.57
21
-150.0
31
0
0
LINE
8
0
6
CONTINUOUS
10
-300.0
20
-113.14
30
0
11
-263.14
21
-150.0
31
0
0
LINE
8
0
6
CONTINUOUS
10
-28.28
20
-28.28
30
0
11
0.0
21
-56.57
31
0
0
LINE
8
0
6
CONTINUOUS
10
-56.57
20
-56.57
30
0
11
0.0
21
-113.14
31
0
0
LINE
8
0
6
CONTINUOUS
10
-84.85
20
-84.85
30
0
11
-19.71
21
-150.0
31
0
0
LINE
8
0
6
CONTINUOUS
10
-113.14
20
-113.14
30
0
11
-76.27
21
-150.0
31
0
0
LINE
8
0
6
CONTINUOUS
10
-141.42
20
-141.42
30
0
11
-132.84
21
-150.0
31
0
0
LINE
8
0
6
CONTINUOUS
10
-300.0
20
0.0
30
0
11
-450.0
21
-150.0
31
0
0
LINE
8
0
6
CONTINUOUS
10
-600.0
20
-0.0
30
0
11
-450.0
21
-150.0
31
0
0
LINE
8
0
6
CONTINUOUS
10
-356.57
20
0.0
30
0
11
-478.28
21
-121.72
31
0
0
LINE
8
0
6
CONTINUOUS
10
-413.14
20
0.0
30
0
11
-506.57
21
-93.43
31
0
0
LINE
8
0
6
CONTINUOUS
10
-469.71
20
0.0
30
0
11
-534.85
21
-65.15
31
0
0
LINE
8
0
6
CONTINUOUS
10
-526.27
20
0.0
30
0
11
-563.14
21
-36.86
31
0
0
LINE
8
0
6
CONTINUOUS
10
-582.84
20
0.0
30
0
11
-591.42
21
-8.58
31
0
0
LINE
8
0
6
CONTINUOUS
10
-600.0
20
-56.57
30
0
11
-506.57
21
-150.0
31
0
0
LINE
8
0
6
CONTINUOUS
10
-600.0
20
-113.14
30
0
11
-563.14
21
-150.0
31
0
0
LINE
8
0
6
CONTINUOUS
10
-328.28
20
-28.28
30
0
11
-300.0
21
-56.57
31
0
0
LINE
8
0
6
CONTINUOUS
10
-356.57
20
-56.57
30
0
11
-300.0
21
-113.14
31
0
0
LINE
8
0
6
CONTINUOUS
10
-384.85
20
-84.85
30
0
11
-319.71
21
-150.0
31
0
0
LINE
8
0
6
CONTINUOUS
10
-413.14
20
-113.14
30
0
11
-376.27
21
-150.0
31
0
0
LINE
8
0
6
CONTINUOUS
10
-441.42
20
-141.42
30
0
11
-432.84
21
-150.0
31
0
0
LINE
8
0
6
CONTINUOUS
10
0.0
20
0.0
30
0
11
-900.0
21
-0.0
31
0
0
LINE
8
0
6
CONTINUOUS
10
-600.0
20
-0.0
30
0
11
-750.0
21
-150.0
31
0
0
LINE
8
0
6
CONTINUOUS
10
-900.0
20
-0.0
30
0
11
-750.0
21
-150.0
31
0
0
LINE
8
0
6
CONTINUOUS
10
-656.57
20
-0.0
30
0
11
-778.28
21
-121.72
31
0
0
LINE
8
0
6
CONTINUOUS
10
-713.14
20
-0.0
30
0
11
-806.57
21
-93.43
31
0
0
LINE
8
0
6
CONTINUOUS
10
-769.71
20
-0.0
30
0
11
-834.85
21
-65.15
31
0
0
LINE
8
0
6
CONTINUOUS
10
-826.27
20
-0.0
30
0
11
-863.14
21
-36.86
31
0
0
LINE
8
0
6
CONTINUOUS
10
-882.84
20
-0.0
30
0
11
-891.42
21
-8.58
31
0
0
LINE
8
0
6
CONTINUOUS
10
-900.0
20
-56.57
30
0
11
-806.57
21
-150.0
31
0
0
LINE
8
0
6
CONTINUOUS
10
-900.0
20
-113.14
30
0
11
-863.14
21
-150.0
31
0
0
LINE
8
0
6
CONTINUOUS
10
-628.28
20
-28.28
30
0
11
-600.0
21
-56.57
31
0
0
LINE
8
0
6
CONTINUOUS
10
-656.57
20
-56.57
30
0
11
-600.0
21
-113.14
31
0
0
LINE
8
0
6
CONTINUOUS
10
-684.85
20
-84.85
30
0
11
-619.71
21
-150.0
31
0
0
LINE
8
0
6
CONTINUOUS
10
-713.14
20
-113.14
30
0
11
-676.27
21
-150.0
31
0
0
LINE
8
0
6
CONTINUOUS
10
-741.42
20
-141.42
30
0
11
-732.84
21
-150.0
31
0
0
ENDSEC
0
EOF