0
SECTION
2
HEADER
0
ENDSEC
0
SECTION
2
TABLES
0
TABLE
2
LTYPE
70
2
0
LTYPE
2
CONTINUOUS
70
0
3
Solid line
72
65
73
0
40
0.0
0
ENDTAB
0
TABLE
2
LAYER
70
1
0
LAYER
2
0
70
0
62
7
6
CONTINUOUS
0
ENDTAB
0
ENDSEC
0
SECTION
2
ENTITIES
0
LINE
8
0
6
CONTINUOUS
10
0.0
20
-13.0
30
0
11
0.0
21
13.0
31
0
0
LINE
8
0
6
CONTINUOUS
10
-11.26
20
0.0
30
0
11
11.26
21
0.0
31
0
0
ARC
8
0
6
CONTINUOUS
10
0.0
20
0.0
30
0
40
10.0
50
180.0
51
-0.0
0
ARC
8
0
6
CONTINUOUS
10
0.0
20
0.0
30
0
40
10.0
50
0.0
51
180.0
0
LINE
8
0
6
CONTINUOUS
10
-8.23
20
4.75
30
0
11
-8.23
21
-4.75
31
0
0
LINE
8
0
6
CONTINUOUS
10
-8.23
20
-4.75
30
0
11
-0.0
21
-9.5
31
0
0
LINE
8
0
6
CONTINUOUS
10
-0.0
20
-9.5
30
0
11
8.23
21
-4.75
31
0
0
LINE
8
0
6
CONTINUOUS
10
8.23
20
-4.75
30
0
11
8.23
21
4.75
31
0
0
LINE
8
0
6
CONTINUOUS
10
8.23
20
4.75
30
0
11
0.0
21
9.5
31
0
0
LINE
8
0
6
CONTINUOUS
10
0.0
20
9.5
30
0
11
-8.23
21
4.75
31
0
0
LINE
8
0
6
CONTINUOUS
10
0.0
20
9.5
30
0
11
-8.23
21
4.75
31
0
0
LINE
8
0
6
CONTINUOUS
10
-8.23
20
4.75
30
0
11
-8.23
21
-4.75
31
0
0
LINE
8
0
6
CONTINUOUS
10
-8.23
20
-4.75
30
0
11
-0.0
21
-9.5
31
0
0
LINE
8
0
6
CONTINUOUS
10
-0.0
20
-9.5
30
0
11
8.23
21
-4.75
31
0
0
LINE
8
0
6
CONTINUOUS
10
8.23
20
-4.75
30
0
11
8.23
21
4.75
31
0
0
LINE
8
0
6
CONTINUOUS
10
8.23
20
4.75
30
0
11
0.0
21
9.5
31
0
0
ENDSEC
0
EOF