0
SECTION
2
HEADER
0
ENDSEC
0
SECTION
2
TABLES
0
TABLE
2
LTYPE
70
2
0
LTYPE
2
CONTINUOUS
70
0
3
Solid line
72
65
73
0
40
0.0
0
ENDTAB
0
TABLE
2
LAYER
70
1
0
LAYER
2
0
70
0
62
7
6
CONTINUOUS
0
ENDTAB
0
ENDSEC
0
SECTION
2
ENTITIES
0
LINE
8
0
6
CONTINUOUS
10
0.0
20
14.86
30
0
11
0.0
21
-14.86
31
0
0
LINE
8
0
6
CONTINUOUS
10
-13.0
20
0.0
30
0
11
0.0
21
0.0
31
0
0
LINE
8
0
6
CONTINUOUS
10
-9.5
20
-8.48
30
0
11
-8.14
21
-5.43
31
0
0
LINE
8
0
6
CONTINUOUS
10
-8.14
20
-5.43
30
0
11
-3.39
21
-5.43
31
0
0
LINE
8
0
6
CONTINUOUS
10
-3.39
20
-5.43
30
0
11
-2.04
21
-8.48
31
0
0
LINE
8
0
6
CONTINUOUS
10
-8.14
20
5.26
30
0
11
-3.39
21
5.26
31
0
0
LINE
8
0
6
CONTINUOUS
10
-8.14
20
-5.43
30
0
11
-9.5
21
-2.37
31
0
0
LINE
8
0
6
CONTINUOUS
10
-9.5
20
-2.37
30
0
11
-9.5
21
2.37
31
0
0
LINE
8
0
6
CONTINUOUS
10
-9.5
20
2.37
30
0
11
-8.14
21
5.26
31
0
0
LINE
8
0
6
CONTINUOUS
10
-8.14
20
5.26
30
0
11
-9.5
21
8.14
31
0
0
LINE
8
0
6
CONTINUOUS
10
-2.04
20
8.14
30
0
11
-3.04
21
9.5
31
0
0
LINE
8
0
6
CONTINUOUS
10
-3.04
20
9.5
30
0
11
-8.61
21
9.5
31
0
0
LINE
8
0
6
CONTINUOUS
10
-8.61
20
9.5
30
0
11
-9.5
21
8.14
31
0
0
LINE
8
0
6
CONTINUOUS
10
-9.5
20
8.14
30
0
11
-9.5
21
-8.48
31
0
0
LINE
8
0
6
CONTINUOUS
10
-9.5
20
-8.48
30
0
11
-8.57
21
-9.5
31
0
0
LINE
8
0
6
CONTINUOUS
10
-8.57
20
-9.5
30
0
11
-2.91
21
-9.5
31
0
0
LINE
8
0
6
CONTINUOUS
10
-2.91
20
-9.5
30
0
11
-2.04
21
-8.48
31
0
0
LINE
8
0
6
CONTINUOUS
10
-2.04
20
-8.48
30
0
11
-2.04
21
0.0
31
0
0
LINE
8
0
6
CONTINUOUS
10
-2.04
20
0.0
30
0
11
-2.04
21
-10.86
31
0
0
LINE
8
0
6
CONTINUOUS
10
-2.04
20
-10.86
30
0
11
0.0
21
-10.86
31
0
0
LINE
8
0
6
CONTINUOUS
10
0.0
20
-10.86
30
0
11
0.0
21
10.86
31
0
0
LINE
8
0
6
CONTINUOUS
10
0.0
20
10.86
30
0
11
-2.04
21
10.86
31
0
0
LINE
8
0
6
CONTINUOUS
10
-2.04
20
10.86
30
0
11
-2.04
21
0.0
31
0
0
LINE
8
0
6
CONTINUOUS
10
-2.04
20
0.0
30
0
11
-2.04
21
8.14
31
0
0
LINE
8
0
6
CONTINUOUS
10
-2.04
20
8.14
30
0
11
-3.39
21
5.26
31
0
0
LINE
8
0
6
CONTINUOUS
10
-3.39
20
5.26
30
0
11
-2.04
21
2.38
31
0
0
LINE
8
0
6
CONTINUOUS
10
-2.04
20
2.38
30
0
11
-2.04
21
-2.37
31
0
0
LINE
8
0
6
CONTINUOUS
10
-2.04
20
-2.37
30
0
11
-3.39
21
-5.43
31
0
0
ENDSEC
0
EOF