0
SECTION
2
HEADER
0
ENDSEC
0
SECTION
2
TABLES
0
TABLE
2
LTYPE
70
2
0
LTYPE
2
CONTINUOUS
70
0
3
Solid line
72
65
73
0
40
0.0
0
ENDTAB
0
TABLE
2
LAYER
70
1
0
LAYER
2
0
70
0
62
7
6
CONTINUOUS
0
ENDTAB
0
ENDSEC
0
SECTION
2
ENTITIES
0
LINE
8
0
6
CONTINUOUS
10
0.0
20
-6.0
30
0
11
0.0
21
6.0
31
0
0
LINE
8
0
6
CONTINUOUS
10
-0.0
20
0.0
30
0
11
58.34
21
0.0
31
0
0
LINE
8
0
6
CONTINUOUS
10
9.98
20
1.5
30
0
11
10.48
21
2.0
31
0
0
LINE
8
0
6
CONTINUOUS
10
10.48
20
2.0
30
0
11
10.88
21
1.5
31
0
0
LINE
8
0
6
CONTINUOUS
10
10.88
20
1.5
30
0
11
11.39
21
1.5
31
0
0
LINE
8
0
6
CONTINUOUS
10
11.39
20
1.5
30
0
11
11.89
21
2.0
31
0
0
LINE
8
0
6
CONTINUOUS
10
11.89
20
2.0
30
0
11
12.29
21
1.5
31
0
0
LINE
8
0
6
CONTINUOUS
10
12.29
20
1.5
30
0
11
12.8
21
1.5
31
0
0
LINE
8
0
6
CONTINUOUS
10
12.8
20
1.5
30
0
11
13.3
21
2.0
31
0
0
LINE
8
0
6
CONTINUOUS
10
13.3
20
2.0
30
0
11
13.7
21
1.5
31
0
0
LINE
8
0
6
CONTINUOUS
10
13.7
20
1.5
30
0
11
14.21
21
1.5
31
0
0
LINE
8
0
6
CONTINUOUS
10
14.21
20
1.5
30
0
11
14.71
21
2.0
31
0
0
LINE
8
0
6
CONTINUOUS
10
14.71
20
2.0
30
0
11
15.11
21
1.5
31
0
0
LINE
8
0
6
CONTINUOUS
10
15.91
20
-1.5
30
0
11
15.41
21
-2.0
31
0
0
LINE
8
0
6
CONTINUOUS
10
15.41
20
-2.0
30
0
11
15.01
21
-1.5
31
0
0
LINE
8
0
6
CONTINUOUS
10
15.01
20
-1.5
30
0
11
14.5
21
-1.5
31
0
0
LINE
8
0
6
CONTINUOUS
10
14.5
20
-1.5
30
0
11
14.0
21
-2.0
31
0
0
LINE
8
0
6
CONTINUOUS
10
14.0
20
-2.0
30
0
11
13.6
21
-1.5
31
0
0
LINE
8
0
6
CONTINUOUS
10
13.6
20
-1.5
30
0
11
13.09
21
-1.5
31
0
0
LINE
8
0
6
CONTINUOUS
10
13.09
20
-1.5
30
0
11
12.59
21
-2.0
31
0
0
LINE
8
0
6
CONTINUOUS
10
12.59
20
-2.0
30
0
11
12.19
21
-1.5
31
0
0
LINE
8
0
6
CONTINUOUS
10
12.19
20
-1.5
30
0
11
11.68
21
-1.5
31
0
0
LINE
8
0
6
CONTINUOUS
10
11.68
20
-1.5
30
0
11
11.18
21
-2.0
31
0
0
LINE
8
0
6
CONTINUOUS
10
11.18
20
-2.0
30
0
11
10.78
21
-1.5
31
0
0
LINE
8
0
6
CONTINUOUS
10
10.48
20
2.0
30
0
11
11.18
21
-2.0
31
0
0
LINE
8
0
6
CONTINUOUS
10
11.89
20
2.0
30
0
11
12.59
21
-2.0
31
0
0
LINE
8
0
6
CONTINUOUS
10
13.3
20
2.0
30
0
11
14.0
21
-2.0
31
0
0
LINE
8
0
6
CONTINUOUS
10
14.71
20
2.0
30
0
11
15.41
21
-2.0
31
0
0
LINE
8
0
6
CONTINUOUS
10
14.21
20
1.5
30
0
11
14.71
21
2.0
31
0
0
LINE
8
0
6
CONTINUOUS
10
14.71
20
2.0
30
0
11
15.11
21
1.5
31
0
0
LINE
8
0
6
CONTINUOUS
10
15.11
20
1.5
30
0
11
15.62
21
1.5
31
0
0
LINE
8
0
6
CONTINUOUS
10
16.42
20
-1.5
30
0
11
15.91
21
-1.5
31
0
0
LINE
8
0
6
CONTINUOUS
10
15.91
20
-1.5
30
0
11
15.41
21
-2.0
31
0
0
LINE
8
0
6
CONTINUOUS
10
15.41
20
-2.0
30
0
11
15.01
21
-1.5
31
0
0
LINE
8
0
6
CONTINUOUS
10
14.71
20
2.0
30
0
11
15.41
21
-2.0
31
0
0
LINE
8
0
6
CONTINUOUS
10
16.12
20
2.0
30
0
11
16.82
21
-2.0
31
0
0
LINE
8
0
6
CONTINUOUS
10
17.53
20
2.0
30
0
11
18.23
21
-2.0
31
0
0
LINE
8
0
6
CONTINUOUS
10
18.94
20
2.0
30
0
11
19.64
21
-1.98
31
0
0
LINE
8
0
6
CONTINUOUS
10
16.12
20
2.0
30
0
11
16.52
21
1.5
31
0
0
LINE
8
0
6
CONTINUOUS
10
17.03
20
1.5
30
0
11
17.53
21
2.0
31
0
0
LINE
8
0
6
CONTINUOUS
10
17.53
20
2.0
30
0
11
17.93
21
1.5
31
0
0
LINE
8
0
6
CONTINUOUS
10
18.23
20
-2.0
30
0
11
17.83
21
-1.5
31
0
0
LINE
8
0
6
CONTINUOUS
10
17.32
20
-1.5
30
0
11
16.82
21
-2.0
31
0
0
LINE
8
0
6
CONTINUOUS
10
16.82
20
-2.0
30
0
11
16.42
21
-1.5
31
0
0
LINE
8
0
6
CONTINUOUS
10
16.12
20
2.0
30
0
11
16.82
21
-2.0
31
0
0
LINE
8
0
6
CONTINUOUS
10
17.53
20
2.0
30
0
11
18.23
21
-2.0
31
0
0
LINE
8
0
6
CONTINUOUS
10
18.73
20
-1.5
30
0
11
18.23
21
-2.0
31
0
0
LINE
8
0
6
CONTINUOUS
10
15.62
20
1.5
30
0
11
16.12
21
2.0
31
0
0
LINE
8
0
6
CONTINUOUS
10
24.98
20
1.5
30
0
11
25.49
21
1.5
31
0
0
LINE
8
0
6
CONTINUOUS
10
25.49
20
1.5
30
0
11
25.99
21
2.0
31
0
0
LINE
8
0
6
CONTINUOUS
10
25.99
20
2.0
30
0
11
26.39
21
1.5
31
0
0
LINE
8
0
6
CONTINUOUS
10
27.19
20
-1.5
30
0
11
26.69
21
-2.0
31
0
0
LINE
8
0
6
CONTINUOUS
10
26.69
20
-2.0
30
0
11
26.29
21
-1.5
31
0
0
LINE
8
0
6
CONTINUOUS
10
26.29
20
-1.5
30
0
11
25.78
21
-1.5
31
0
0
LINE
8
0
6
CONTINUOUS
10
25.99
20
2.0
30
0
11
26.69
21
-2.0
31
0
0
LINE
8
0
6
CONTINUOUS
10
26.39
20
1.5
30
0
11
26.9
21
1.5
31
0
0
LINE
8
0
6
CONTINUOUS
10
27.7
20
-1.5
30
0
11
27.19
21
-1.5
31
0
0
LINE
8
0
6
CONTINUOUS
10
27.4
20
2.0
30
0
11
28.1
21
-2.0
31
0
0
LINE
8
0
6
CONTINUOUS
10
26.9
20
1.5
30
0
11
27.4
21
2.0
31
0
0
LINE
8
0
6
CONTINUOUS
10
27.4
20
2.0
30
0
11
27.8
21
1.5
31
0
0
LINE
8
0
6
CONTINUOUS
10
28.6
20
-1.5
30
0
11
28.1
21
-2.0
31
0
0
LINE
8
0
6
CONTINUOUS
10
28.1
20
-2.0
30
0
11
27.7
21
-1.5
31
0
0
LINE
8
0
6
CONTINUOUS
10
29.11
20
-1.5
30
0
11
28.6
21
-1.5
31
0
0
LINE
8
0
6
CONTINUOUS
10
28.81
20
2.0
30
0
11
29.51
21
-2.0
31
0
0
LINE
8
0
6
CONTINUOUS
10
28.31
20
1.5
30
0
11
28.81
21
2.0
31
0
0
LINE
8
0
6
CONTINUOUS
10
29.51
20
-2.0
30
0
11
29.11
21
-1.5
31
0
0
LINE
8
0
6
CONTINUOUS
10
27.8
20
1.5
30
0
11
28.31
21
1.5
31
0
0
LINE
8
0
6
CONTINUOUS
10
19.24
20
-1.5
30
0
11
18.73
21
-1.5
31
0
0
LINE
8
0
6
CONTINUOUS
10
17.83
20
-1.5
30
0
11
17.32
21
-1.5
31
0
0
LINE
8
0
6
CONTINUOUS
10
17.93
20
1.5
30
0
11
18.44
21
1.5
31
0
0
LINE
8
0
6
CONTINUOUS
10
16.52
20
1.5
30
0
11
17.03
21
1.5
31
0
0
LINE
8
0
6
CONTINUOUS
10
18.44
20
1.5
30
0
11
18.94
21
2.0
31
0
0
LINE
8
0
6
CONTINUOUS
10
55.6
20
2.0
30
0
11
58.34
21
-0.0
31
0
0
LINE
8
0
6
CONTINUOUS
10
58.34
20
-0.0
30
0
11
56.3
21
-2.0
31
0
0
LINE
8
0
6
CONTINUOUS
10
55.6
20
2.0
30
0
11
56.3
21
-2.0
31
0
0
LINE
8
0
6
CONTINUOUS
10
28.81
20
2.0
30
0
11
29.21
21
1.5
31
0
0
LINE
8
0
6
CONTINUOUS
10
30.01
20
-1.5
30
0
11
29.51
21
-2.0
31
0
0
LINE
8
0
6
CONTINUOUS
10
30.22
20
2.0
30
0
11
30.92
21
-1.99
31
0
0
LINE
8
0
6
CONTINUOUS
10
30.52
20
-1.5
30
0
11
30.01
21
-1.5
31
0
0
LINE
8
0
6
CONTINUOUS
10
29.72
20
1.5
30
0
11
30.22
21
2.0
31
0
0
LINE
8
0
6
CONTINUOUS
10
30.91
20
-1.98
30
0
11
30.52
21
-1.5
31
0
0
LINE
8
0
6
CONTINUOUS
10
29.21
20
1.5
30
0
11
29.72
21
1.5
31
0
0
LINE
8
0
6
CONTINUOUS
10
31.63
20
2.01
30
0
11
32.33
21
-2.0
31
0
0
LINE
8
0
6
CONTINUOUS
10
32.33
20
-2.0
30
0
11
31.93
21
-1.5
31
0
0
LINE
8
0
6
CONTINUOUS
10
33.04
20
2.01
30
0
11
33.74
21
-2.0
31
0
0
LINE
8
0
6
CONTINUOUS
10
33.74
20
-2.0
30
0
11
33.34
21
-1.5
31
0
0
LINE
8
0
6
CONTINUOUS
10
34.45
20
2.0
30
0
11
35.15
21
-2.0
31
0
0
LINE
8
0
6
CONTINUOUS
10
35.15
20
-2.0
30
0
11
34.75
21
-1.5
31
0
0
LINE
8
0
6
CONTINUOUS
10
35.86
20
2.0
30
0
11
36.56
21
-2.0
31
0
0
LINE
8
0
6
CONTINUOUS
10
36.56
20
-2.0
30
0
11
36.16
21
-1.5
31
0
0
LINE
8
0
6
CONTINUOUS
10
37.27
20
2.0
30
0
11
37.97
21
-2.0
31
0
0
LINE
8
0
6
CONTINUOUS
10
37.97
20
-2.0
30
0
11
37.57
21
-1.5
31
0
0
LINE
8
0
6
CONTINUOUS
10
38.68
20
2.0
30
0
11
39.38
21
-2.0
31
0
0
LINE
8
0
6
CONTINUOUS
10
39.38
20
-2.0
30
0
11
38.98
21
-1.5
31
0
0
LINE
8
0
6
CONTINUOUS
10
40.09
20
2.0
30
0
11
40.79
21
-2.0
31
0
0
LINE
8
0
6
CONTINUOUS
10
40.79
20
-2.0
30
0
11
40.39
21
-1.5
31
0
0
LINE
8
0
6
CONTINUOUS
10
41.5
20
2.0
30
0
11
42.2
21
-2.0
31
0
0
LINE
8
0
6
CONTINUOUS
10
42.2
20
-2.0
30
0
11
41.8
21
-1.5
31
0
0
LINE
8
0
6
CONTINUOUS
10
42.91
20
2.0
30
0
11
43.61
21
-2.0
31
0
0
LINE
8
0
6
CONTINUOUS
10
43.61
20
-2.0
30
0
11
43.21
21
-1.5
31
0
0
LINE
8
0
6
CONTINUOUS
10
44.32
20
2.0
30
0
11
45.02
21
-2.0
31
0
0
LINE
8
0
6
CONTINUOUS
10
45.02
20
-2.0
30
0
11
44.62
21
-1.5
31
0
0
LINE
8
0
6
CONTINUOUS
10
45.73
20
2.0
30
0
11
46.43
21
-2.0
31
0
0
LINE
8
0
6
CONTINUOUS
10
46.43
20
-2.0
30
0
11
46.03
21
-1.5
31
0
0
LINE
8
0
6
CONTINUOUS
10
47.14
20
2.0
30
0
11
47.84
21
-2.0
31
0
0
LINE
8
0
6
CONTINUOUS
10
47.84
20
-2.0
30
0
11
47.44
21
-1.5
31
0
0
LINE
8
0
6
CONTINUOUS
10
48.55
20
2.0
30
0
11
49.25
21
-2.0
31
0
0
LINE
8
0
6
CONTINUOUS
10
49.25
20
-2.0
30
0
11
48.85
21
-1.5
31
0
0
LINE
8
0
6
CONTINUOUS
10
49.96
20
2.0
30
0
11
50.66
21
-2.0
31
0
0
LINE
8
0
6
CONTINUOUS
10
50.66
20
-2.0
30
0
11
50.26
21
-1.5
31
0
0
LINE
8
0
6
CONTINUOUS
10
51.37
20
2.0
30
0
11
52.07
21
-2.0
31
0
0
LINE
8
0
6
CONTINUOUS
10
52.07
20
-2.0
30
0
11
51.67
21
-1.5
31
0
0
LINE
8
0
6
CONTINUOUS
10
52.78
20
2.0
30
0
11
53.48
21
-2.0
31
0
0
LINE
8
0
6
CONTINUOUS
10
53.48
20
-2.0
30
0
11
53.08
21
-1.5
31
0
0
LINE
8
0
6
CONTINUOUS
10
54.19
20
2.0
30
0
11
54.89
21
-2.0
31
0
0
LINE
8
0
6
CONTINUOUS
10
54.89
20
-2.0
30
0
11
54.49
21
-1.5
31
0
0
LINE
8
0
6
CONTINUOUS
10
31.41
20
-1.5
30
0
11
30.92
21
-1.99
31
0
0
LINE
8
0
6
CONTINUOUS
10
31.93
20
-1.5
30
0
11
31.41
21
-1.5
31
0
0
LINE
8
0
6
CONTINUOUS
10
31.11
20
1.5
30
0
11
31.63
21
2.01
31
0
0
LINE
8
0
6
CONTINUOUS
10
30.62
20
1.5
30
0
11
31.11
21
1.5
31
0
0
LINE
8
0
6
CONTINUOUS
10
30.22
20
2.0
30
0
11
30.62
21
1.5
31
0
0
LINE
8
0
6
CONTINUOUS
10
32.52
20
1.5
30
0
11
33.04
21
2.01
31
0
0
LINE
8
0
6
CONTINUOUS
10
0.0
20
-6.0
30
0
11
0.0
21
6.0
31
0
0
LINE
8
0
6
CONTINUOUS
10
-0.0
20
6.0
30
0
11
4.5
21
1.5
31
0
0
LINE
8
0
6
CONTINUOUS
10
-0.0
20
-6.0
30
0
11
4.5
21
-1.5
31
0
0
LINE
8
0
6
CONTINUOUS
10
4.5
20
1.5
30
0
11
5.75
21
1.5
31
0
0
LINE
8
0
6
CONTINUOUS
10
5.75
20
1.5
30
0
11
6.25
21
2.0
31
0
0
LINE
8
0
6
CONTINUOUS
10
6.25
20
2.0
30
0
11
6.65
21
1.5
31
0
0
LINE
8
0
6
CONTINUOUS
10
6.65
20
1.5
30
0
11
7.16
21
1.5
31
0
0
LINE
8
0
6
CONTINUOUS
10
7.16
20
1.5
30
0
11
7.66
21
2.0
31
0
0
LINE
8
0
6
CONTINUOUS
10
7.66
20
2.0
30
0
11
8.06
21
1.5
31
0
0
LINE
8
0
6
CONTINUOUS
10
8.06
20
1.5
30
0
11
8.57
21
1.5
31
0
0
LINE
8
0
6
CONTINUOUS
10
8.57
20
1.5
30
0
11
9.07
21
2.0
31
0
0
LINE
8
0
6
CONTINUOUS
10
9.07
20
2.0
30
0
11
9.47
21
1.5
31
0
0
LINE
8
0
6
CONTINUOUS
10
9.47
20
1.5
30
0
11
9.98
21
1.5
31
0
0
LINE
8
0
6
CONTINUOUS
10
9.98
20
1.5
30
0
11
10.48
21
2.0
31
0
0
LINE
8
0
6
CONTINUOUS
10
18.94
20
2.0
30
0
11
19.34
21
1.5
31
0
0
LINE
8
0
6
CONTINUOUS
10
19.34
20
1.5
30
0
11
19.85
21
1.5
31
0
0
LINE
8
0
6
CONTINUOUS
10
19.85
20
1.5
30
0
11
20.35
21
2.0
31
0
0
LINE
8
0
6
CONTINUOUS
10
20.35
20
2.0
30
0
11
20.75
21
1.5
31
0
0
LINE
8
0
6
CONTINUOUS
10
20.75
20
1.5
30
0
11
21.26
21
1.5
31
0
0
LINE
8
0
6
CONTINUOUS
10
21.26
20
1.5
30
0
11
21.76
21
2.0
31
0
0
LINE
8
0
6
CONTINUOUS
10
21.76
20
2.0
30
0
11
22.16
21
1.5
31
0
0
LINE
8
0
6
CONTINUOUS
10
22.16
20
1.5
30
0
11
22.67
21
1.5
31
0
0
LINE
8
0
6
CONTINUOUS
10
22.67
20
1.5
30
0
11
23.17
21
2.0
31
0
0
LINE
8
0
6
CONTINUOUS
10
23.17
20
2.0
30
0
11
23.57
21
1.5
31
0
0
LINE
8
0
6
CONTINUOUS
10
23.57
20
1.5
30
0
11
24.08
21
1.5
31
0
0
LINE
8
0
6
CONTINUOUS
10
24.08
20
1.5
30
0
11
24.58
21
2.0
31
0
0
LINE
8
0
6
CONTINUOUS
10
24.58
20
2.0
30
0
11
24.98
21
1.5
31
0
0
LINE
8
0
6
CONTINUOUS
10
25.78
20
-1.5
30
0
11
25.28
21
-2.0
31
0
0
LINE
8
0
6
CONTINUOUS
10
25.28
20
-2.0
30
0
11
24.88
21
-1.5
31
0
0
LINE
8
0
6
CONTINUOUS
10
24.88
20
-1.5
30
0
11
24.37
21
-1.5
31
0
0
LINE
8
0
6
CONTINUOUS
10
24.37
20
-1.5
30
0
11
23.87
21
-2.0
31
0
0
LINE
8
0
6
CONTINUOUS
10
23.87
20
-2.0
30
0
11
23.47
21
-1.5
31
0
0
LINE
8
0
6
CONTINUOUS
10
23.47
20
-1.5
30
0
11
22.96
21
-1.5
31
0
0
LINE
8
0
6
CONTINUOUS
10
22.96
20
-1.5
30
0
11
22.46
21
-2.0
31
0
0
LINE
8
0
6
CONTINUOUS
10
22.46
20
-2.0
30
0
11
22.06
21
-1.5
31
0
0
LINE
8
0
6
CONTINUOUS
10
22.06
20
-1.5
30
0
11
21.55
21
-1.5
31
0
0
LINE
8
0
6
CONTINUOUS
10
21.55
20
-1.5
30
0
11
21.05
21
-2.0
31
0
0
LINE
8
0
6
CONTINUOUS
10
21.05
20
-2.0
30
0
11
20.65
21
-1.5
31
0
0
LINE
8
0
6
CONTINUOUS
10
20.65
20
-1.5
30
0
11
20.14
21
-1.5
31
0
0
LINE
8
0
6
CONTINUOUS
10
20.14
20
-1.5
30
0
11
19.64
21
-2.0
31
0
0
LINE
8
0
6
CONTINUOUS
10
19.64
20
-2.0
30
0
11
19.24
21
-1.5
31
0
0
LINE
8
0
6
CONTINUOUS
10
11.68
20
-1.5
30
0
11
11.18
21
-2.0
31
0
0
LINE
8
0
6
CONTINUOUS
10
11.18
20
-2.0
30
0
11
10.78
21
-1.5
31
0
0
LINE
8
0
6
CONTINUOUS
10
10.78
20
-1.5
30
0
11
10.27
21
-1.5
31
0
0
LINE
8
0
6
CONTINUOUS
10
10.27
20
-1.5
30
0
11
9.77
21
-2.0
31
0
0
LINE
8
0
6
CONTINUOUS
10
9.77
20
-2.0
30
0
11
9.37
21
-1.5
31
0
0
LINE
8
0
6
CONTINUOUS
10
9.37
20
-1.5
30
0
11
8.86
21
-1.5
31
0
0
LINE
8
0
6
CONTINUOUS
10
8.86
20
-1.5
30
0
11
8.36
21
-2.0
31
0
0
LINE
8
0
6
CONTINUOUS
10
8.36
20
-2.0
30
0
11
7.96
21
-1.5
31
0
0
LINE
8
0
6
CONTINUOUS
10
7.96
20
-1.5
30
0
11
7.45
21
-1.5
31
0
0
LINE
8
0
6
CONTINUOUS
10
7.45
20
-1.5
30
0
11
6.95
21
-2.0
31
0
0
LINE
8
0
6
CONTINUOUS
10
6.95
20
-2.0
30
0
11
6.55
21
-1.5
31
0
0
LINE
8
0
6
CONTINUOUS
10
6.55
20
-1.5
30
0
11
4.5
21
-1.5
31
0
0
LINE
8
0
6
CONTINUOUS
10
6.25
20
2.0
30
0
11
6.95
21
-2.0
31
0
0
LINE
8
0
6
CONTINUOUS
10
7.66
20
2.0
30
0
11
8.36
21
-2.0
31
0
0
LINE
8
0
6
CONTINUOUS
10
20.35
20
2.0
30
0
11
21.05
21
-2.0
31
0
0
LINE
8
0
6
CONTINUOUS
10
9.07
20
2.0
30
0
11
9.77
21
-2.0
31
0
0
LINE
8
0
6
CONTINUOUS
10
10.48
20
2.0
30
0
11
11.18
21
-2.0
31
0
0
LINE
8
0
6
CONTINUOUS
10
18.94
20
2.0
30
0
11
19.64
21
-2.0
31
0
0
LINE
8
0
6
CONTINUOUS
10
21.76
20
2.0
30
0
11
22.46
21
-2.0
31
0
0
LINE
8
0
6
CONTINUOUS
10
23.17
20
2.0
30
0
11
23.87
21
-2.0
31
0
0
LINE
8
0
6
CONTINUOUS
10
24.58
20
2.0
30
0
11
25.28
21
-2.0
31
0
0
ENDSEC
0
EOF