0
SECTION
2
HEADER
0
ENDSEC
0
SECTION
2
TABLES
0
TABLE
2
LTYPE
70
4
0
LTYPE
2
CONTINUOUS
70
0
3
Solid line
72
65
73
0
40
0.0
0
LTYPE
2
DASHED
70
0
3
dashed
72
65
73
2
40
12.7
49
6.35
49
-6.35
0
LTYPE
2
CENTER
70
0
3
center
72
65
73
4
40
28.575
49
12.7
49
-6.35
49
3.175
49
-6.35
0
ENDTAB
0
TABLE
2
LAYER
70
1
0
LAYER
2
0
70
0
62
7
6
CONTINUOUS
0
ENDTAB
0
ENDSEC
0
SECTION
2
ENTITIES
0
LINE
8
0
6
CONTINUOUS
10
-15.0
20
-4.0
30
0
11
-15.0
21
4.0
31
0
0
LINE
8
0
6
CONTINUOUS
10
28.0
20
-4.0
30
0
11
28.0
21
4.0
31
0
0
LINE
8
0
6
CONTINUOUS
10
20.0
20
-4.0
30
0
11
20.0
21
4.0
31
0
0
LINE
8
0
6
CONTINUOUS
10
36.0
20
-4.0
30
0
11
-15.0
21
-4.0
31
0
0
LINE
8
0
6
CONTINUOUS
10
36.0
20
4.0
30
0
11
-15.0
21
4.0
31
0
0
LINE
8
0
6
CONTINUOUS
10
24.0
20
-4.0
30
0
11
24.0
21
4.0
31
0
0
LINE
8
0
6
CONTINUOUS
10
0.0
20
-4.0
30
0
11
0.0
21
4.0
31
0
0
LINE
8
0
6
CONTINUOUS
10
-15.0
20
0.0
30
0
11
36.0
21
0.0
31
0
0
LINE
8
0
6
CENTER
10
-15.0
20
0.0
30
0
11
36.0
21
0.0
31
0
0
LINE
8
0
6
DASHED
10
0.0
20
4.0
30
0
11
20.0
21
4.0
31
0
0
LINE
8
0
6
DASHED
10
20.0
20
4.0
30
0
11
28.0
21
-4.0
31
0
0
LINE
8
0
6
DASHED
10
0.0
20
-4.0
30
0
11
20.0
21
-4.0
31
0
0
LINE
8
0
6
DASHED
10
20.0
20
-4.0
30
0
11
28.0
21
4.0
31
0
0
ENDSEC
0
EOF