0
SECTION
2
HEADER
0
ENDSEC
0
SECTION
2
TABLES
0
TABLE
2
LTYPE
70
2
0
LTYPE
2
CONTINUOUS
70
0
3
Solid line
72
65
73
0
40
0.0
0
ENDTAB
0
TABLE
2
LAYER
70
1
0
LAYER
2
0
70
0
62
7
6
CONTINUOUS
0
ENDTAB
0
ENDSEC
0
SECTION
2
ENTITIES
0
LINE
8
0
6
CONTINUOUS
10
0.0
20
5.73
30
0
11
0.0
21
-5.73
31
0
0
LINE
8
0
6
CONTINUOUS
10
-2.73
20
0.0
30
0
11
27.05
21
0.0
31
0
0
LINE
8
0
6
CONTINUOUS
10
5.48
20
-1.5
30
0
11
5.98
21
-2.0
31
0
0
LINE
8
0
6
CONTINUOUS
10
5.98
20
-2.0
30
0
11
6.38
21
-1.5
31
0
0
LINE
8
0
6
CONTINUOUS
10
6.38
20
-1.5
30
0
11
6.89
21
-1.5
31
0
0
LINE
8
0
6
CONTINUOUS
10
6.89
20
-1.5
30
0
11
7.39
21
-2.0
31
0
0
LINE
8
0
6
CONTINUOUS
10
7.39
20
-2.0
30
0
11
7.79
21
-1.5
31
0
0
LINE
8
0
6
CONTINUOUS
10
7.79
20
-1.5
30
0
11
8.3
21
-1.5
31
0
0
LINE
8
0
6
CONTINUOUS
10
8.3
20
-1.5
30
0
11
8.8
21
-2.0
31
0
0
LINE
8
0
6
CONTINUOUS
10
8.8
20
-2.0
30
0
11
9.2
21
-1.5
31
0
0
LINE
8
0
6
CONTINUOUS
10
9.2
20
-1.5
30
0
11
9.71
21
-1.5
31
0
0
LINE
8
0
6
CONTINUOUS
10
9.71
20
-1.5
30
0
11
10.21
21
-2.0
31
0
0
LINE
8
0
6
CONTINUOUS
10
10.21
20
-2.0
30
0
11
10.61
21
-1.5
31
0
0
LINE
8
0
6
CONTINUOUS
10
11.41
20
1.5
30
0
11
10.91
21
2.0
31
0
0
LINE
8
0
6
CONTINUOUS
10
10.91
20
2.0
30
0
11
10.51
21
1.5
31
0
0
LINE
8
0
6
CONTINUOUS
10
10.51
20
1.5
30
0
11
10.0
21
1.5
31
0
0
LINE
8
0
6
CONTINUOUS
10
10.0
20
1.5
30
0
11
9.5
21
2.0
31
0
0
LINE
8
0
6
CONTINUOUS
10
9.5
20
2.0
30
0
11
9.1
21
1.5
31
0
0
LINE
8
0
6
CONTINUOUS
10
9.1
20
1.5
30
0
11
8.59
21
1.5
31
0
0
LINE
8
0
6
CONTINUOUS
10
8.59
20
1.5
30
0
11
8.09
21
2.0
31
0
0
LINE
8
0
6
CONTINUOUS
10
8.09
20
2.0
30
0
11
7.69
21
1.5
31
0
0
LINE
8
0
6
CONTINUOUS
10
7.69
20
1.5
30
0
11
7.18
21
1.5
31
0
0
LINE
8
0
6
CONTINUOUS
10
7.18
20
1.5
30
0
11
6.68
21
2.0
31
0
0
LINE
8
0
6
CONTINUOUS
10
6.68
20
2.0
30
0
11
6.28
21
1.5
31
0
0
LINE
8
0
6
CONTINUOUS
10
5.98
20
-2.0
30
0
11
6.68
21
2.0
31
0
0
LINE
8
0
6
CONTINUOUS
10
7.39
20
-2.0
30
0
11
8.09
21
2.0
31
0
0
LINE
8
0
6
CONTINUOUS
10
8.8
20
-2.0
30
0
11
9.5
21
2.0
31
0
0
LINE
8
0
6
CONTINUOUS
10
10.21
20
-2.0
30
0
11
10.91
21
2.0
31
0
0
LINE
8
0
6
CONTINUOUS
10
9.71
20
-1.5
30
0
11
10.21
21
-2.0
31
0
0
LINE
8
0
6
CONTINUOUS
10
10.21
20
-2.0
30
0
11
10.61
21
-1.5
31
0
0
LINE
8
0
6
CONTINUOUS
10
10.61
20
-1.5
30
0
11
11.12
21
-1.5
31
0
0
LINE
8
0
6
CONTINUOUS
10
11.92
20
1.5
30
0
11
11.41
21
1.5
31
0
0
LINE
8
0
6
CONTINUOUS
10
11.41
20
1.5
30
0
11
10.91
21
2.0
31
0
0
LINE
8
0
6
CONTINUOUS
10
10.91
20
2.0
30
0
11
10.51
21
1.5
31
0
0
LINE
8
0
6
CONTINUOUS
10
10.21
20
-2.0
30
0
11
10.91
21
2.0
31
0
0
LINE
8
0
6
CONTINUOUS
10
11.62
20
-2.0
30
0
11
12.32
21
2.0
31
0
0
LINE
8
0
6
CONTINUOUS
10
13.03
20
-2.0
30
0
11
13.73
21
2.0
31
0
0
LINE
8
0
6
CONTINUOUS
10
14.44
20
-2.0
30
0
11
15.14
21
2.0
31
0
0
LINE
8
0
6
CONTINUOUS
10
11.62
20
-2.0
30
0
11
12.02
21
-1.5
31
0
0
LINE
8
0
6
CONTINUOUS
10
12.53
20
-1.5
30
0
11
13.03
21
-2.0
31
0
0
LINE
8
0
6
CONTINUOUS
10
13.03
20
-2.0
30
0
11
13.43
21
-1.5
31
0
0
LINE
8
0
6
CONTINUOUS
10
13.73
20
2.0
30
0
11
13.33
21
1.5
31
0
0
LINE
8
0
6
CONTINUOUS
10
12.82
20
1.5
30
0
11
12.32
21
2.0
31
0
0
LINE
8
0
6
CONTINUOUS
10
12.32
20
2.0
30
0
11
11.92
21
1.5
31
0
0
LINE
8
0
6
CONTINUOUS
10
11.62
20
-2.0
30
0
11
12.32
21
2.0
31
0
0
LINE
8
0
6
CONTINUOUS
10
13.03
20
-2.0
30
0
11
13.73
21
2.0
31
0
0
LINE
8
0
6
CONTINUOUS
10
14.23
20
1.5
30
0
11
13.73
21
2.0
31
0
0
LINE
8
0
6
CONTINUOUS
10
11.12
20
-1.5
30
0
11
11.62
21
-2.0
31
0
0
ARC
8
0
6
CONTINUOUS
10
8.631388415157126
20
0.0050000000000001155
30
0
40
11.36
50
162.4524926986865
51
197.5475073013135
0
LINE
8
0
6
CONTINUOUS
10
-0.0
20
-1.5
30
0
11
1.25
21
-1.5
31
0
0
LINE
8
0
6
CONTINUOUS
10
1.25
20
-1.5
30
0
11
1.75
21
-2.0
31
0
0
LINE
8
0
6
CONTINUOUS
10
1.75
20
-2.0
30
0
11
2.15
21
-1.5
31
0
0
LINE
8
0
6
CONTINUOUS
10
2.15
20
-1.5
30
0
11
2.66
21
-1.5
31
0
0
LINE
8
0
6
CONTINUOUS
10
2.66
20
-1.5
30
0
11
3.16
21
-2.0
31
0
0
LINE
8
0
6
CONTINUOUS
10
3.16
20
-2.0
30
0
11
3.56
21
-1.5
31
0
0
LINE
8
0
6
CONTINUOUS
10
3.56
20
-1.5
30
0
11
4.07
21
-1.5
31
0
0
LINE
8
0
6
CONTINUOUS
10
4.07
20
-1.5
30
0
11
4.57
21
-2.0
31
0
0
LINE
8
0
6
CONTINUOUS
10
4.57
20
-2.0
30
0
11
4.97
21
-1.5
31
0
0
LINE
8
0
6
CONTINUOUS
10
4.97
20
-1.5
30
0
11
5.48
21
-1.5
31
0
0
LINE
8
0
6
CONTINUOUS
10
5.48
20
-1.5
30
0
11
5.98
21
-2.0
31
0
0
LINE
8
0
6
CONTINUOUS
10
5.98
20
-2.0
30
0
11
6.38
21
-1.5
31
0
0
LINE
8
0
6
CONTINUOUS
10
6.38
20
-1.5
30
0
11
13.94
21
-1.5
31
0
0
LINE
8
0
6
CONTINUOUS
10
13.94
20
-1.5
30
0
11
14.44
21
-2.0
31
0
0
LINE
8
0
6
CONTINUOUS
10
14.44
20
-2.0
30
0
11
14.84
21
-1.5
31
0
0
LINE
8
0
6
CONTINUOUS
10
14.84
20
-1.5
30
0
11
15.35
21
-1.5
31
0
0
LINE
8
0
6
CONTINUOUS
10
15.35
20
-1.5
30
0
11
15.85
21
-2.0
31
0
0
LINE
8
0
6
CONTINUOUS
10
15.85
20
-2.0
30
0
11
16.25
21
-1.5
31
0
0
LINE
8
0
6
CONTINUOUS
10
16.25
20
-1.5
30
0
11
16.76
21
-1.5
31
0
0
LINE
8
0
6
CONTINUOUS
10
16.76
20
-1.5
30
0
11
17.26
21
-2.0
31
0
0
LINE
8
0
6
CONTINUOUS
10
17.26
20
-2.0
30
0
11
17.66
21
-1.5
31
0
0
LINE
8
0
6
CONTINUOUS
10
17.66
20
-1.5
30
0
11
18.17
21
-1.5
31
0
0
LINE
8
0
6
CONTINUOUS
10
18.17
20
-1.5
30
0
11
18.67
21
-2.0
31
0
0
LINE
8
0
6
CONTINUOUS
10
18.67
20
-2.0
30
0
11
19.07
21
-1.5
31
0
0
LINE
8
0
6
CONTINUOUS
10
19.07
20
-1.5
30
0
11
19.58
21
-1.5
31
0
0
LINE
8
0
6
CONTINUOUS
10
19.58
20
-1.5
30
0
11
20.08
21
-2.0
31
0
0
LINE
8
0
6
CONTINUOUS
10
20.08
20
-2.0
30
0
11
20.48
21
-1.5
31
0
0
LINE
8
0
6
CONTINUOUS
10
20.48
20
-1.5
30
0
11
26.18
21
-1.5
31
0
0
LINE
8
0
6
CONTINUOUS
10
26.18
20
-1.5
30
0
11
27.05
21
0.0
31
0
0
LINE
8
0
6
CONTINUOUS
10
27.05
20
0.0
30
0
11
26.18
21
1.5
31
0
0
LINE
8
0
6
CONTINUOUS
10
26.18
20
1.5
30
0
11
21.28
21
1.5
31
0
0
LINE
8
0
6
CONTINUOUS
10
21.28
20
1.5
30
0
11
20.78
21
2.0
31
0
0
LINE
8
0
6
CONTINUOUS
10
20.78
20
2.0
30
0
11
20.38
21
1.5
31
0
0
LINE
8
0
6
CONTINUOUS
10
20.38
20
1.5
30
0
11
19.87
21
1.5
31
0
0
LINE
8
0
6
CONTINUOUS
10
19.87
20
1.5
30
0
11
19.37
21
2.0
31
0
0
LINE
8
0
6
CONTINUOUS
10
19.37
20
2.0
30
0
11
18.97
21
1.5
31
0
0
LINE
8
0
6
CONTINUOUS
10
18.97
20
1.5
30
0
11
18.46
21
1.5
31
0
0
LINE
8
0
6
CONTINUOUS
10
18.46
20
1.5
30
0
11
17.96
21
2.0
31
0
0
LINE
8
0
6
CONTINUOUS
10
17.96
20
2.0
30
0
11
17.56
21
1.5
31
0
0
LINE
8
0
6
CONTINUOUS
10
17.56
20
1.5
30
0
11
17.05
21
1.5
31
0
0
LINE
8
0
6
CONTINUOUS
10
17.05
20
1.5
30
0
11
16.55
21
2.0
31
0
0
LINE
8
0
6
CONTINUOUS
10
16.55
20
2.0
30
0
11
16.15
21
1.5
31
0
0
LINE
8
0
6
CONTINUOUS
10
16.15
20
1.5
30
0
11
15.64
21
1.5
31
0
0
LINE
8
0
6
CONTINUOUS
10
15.64
20
1.5
30
0
11
15.14
21
2.0
31
0
0
LINE
8
0
6
CONTINUOUS
10
15.14
20
2.0
30
0
11
14.74
21
1.5
31
0
0
LINE
8
0
6
CONTINUOUS
10
14.74
20
1.5
30
0
11
7.18
21
1.5
31
0
0
LINE
8
0
6
CONTINUOUS
10
7.18
20
1.5
30
0
11
6.68
21
2.0
31
0
0
LINE
8
0
6
CONTINUOUS
10
6.68
20
2.0
30
0
11
6.28
21
1.5
31
0
0
LINE
8
0
6
CONTINUOUS
10
6.28
20
1.5
30
0
11
5.77
21
1.5
31
0
0
LINE
8
0
6
CONTINUOUS
10
5.77
20
1.5
30
0
11
5.27
21
2.0
31
0
0
LINE
8
0
6
CONTINUOUS
10
5.27
20
2.0
30
0
11
4.87
21
1.5
31
0
0
LINE
8
0
6
CONTINUOUS
10
4.87
20
1.5
30
0
11
4.36
21
1.5
31
0
0
LINE
8
0
6
CONTINUOUS
10
4.36
20
1.5
30
0
11
3.86
21
2.0
31
0
0
LINE
8
0
6
CONTINUOUS
10
3.86
20
2.0
30
0
11
3.46
21
1.5
31
0
0
LINE
8
0
6
CONTINUOUS
10
3.46
20
1.5
30
0
11
2.95
21
1.5
31
0
0
LINE
8
0
6
CONTINUOUS
10
2.95
20
1.5
30
0
11
2.45
21
2.0
31
0
0
LINE
8
0
6
CONTINUOUS
10
2.45
20
2.0
30
0
11
2.05
21
1.5
31
0
0
LINE
8
0
6
CONTINUOUS
10
2.05
20
1.5
30
0
11
-0.0
21
1.5
31
0
0
LINE
8
0
6
CONTINUOUS
10
-1.2
20
-4.42
30
0
11
-2.2
21
-3.42
31
0
0
LINE
8
0
6
CONTINUOUS
10
-2.2
20
3.43
30
0
11
-1.2
21
4.43
31
0
0
LINE
8
0
6
CONTINUOUS
10
1.75
20
-2.0
30
0
11
2.45
21
2.0
31
0
0
LINE
8
0
6
CONTINUOUS
10
3.16
20
-2.0
30
0
11
3.86
21
2.0
31
0
0
LINE
8
0
6
CONTINUOUS
10
27.05
20
0.0
30
0
11
26.17
21
-0.59
31
0
0
LINE
8
0
6
CONTINUOUS
10
26.17
20
-0.59
30
0
11
20.71
21
-0.62
31
0
0
LINE
8
0
6
CONTINUOUS
10
20.71
20
-0.62
30
0
11
20.48
21
-1.5
31
0
0
LINE
8
0
6
CONTINUOUS
10
15.85
20
-2.0
30
0
11
16.55
21
2.0
31
0
0
LINE
8
0
6
CONTINUOUS
10
4.57
20
-2.0
30
0
11
5.27
21
2.0
31
0
0
LINE
8
0
6
CONTINUOUS
10
5.98
20
-2.0
30
0
11
6.68
21
2.0
31
0
0
LINE
8
0
6
CONTINUOUS
10
14.44
20
-2.0
30
0
11
15.14
21
2.0
31
0
0
LINE
8
0
6
CONTINUOUS
10
17.26
20
-2.0
30
0
11
17.96
21
2.0
31
0
0
LINE
8
0
6
CONTINUOUS
10
18.67
20
-2.0
30
0
11
19.37
21
2.0
31
0
0
LINE
8
0
6
CONTINUOUS
10
20.08
20
-2.0
30
0
11
20.78
21
2.0
31
0
0
LINE
8
0
6
CONTINUOUS
10
-1.2
20
5.73
30
0
11
-0.0
21
5.73
31
0
0
LINE
8
0
6
CONTINUOUS
10
-0.0
20
5.73
30
0
11
-0.0
21
-5.73
31
0
0
LINE
8
0
6
CONTINUOUS
10
-0.0
20
-5.73
30
0
11
-1.2
21
-5.73
31
0
0
LINE
8
0
6
CONTINUOUS
10
-1.2
20
-5.73
30
0
11
-1.2
21
5.73
31
0
0
ENDSEC
0
EOF