0
SECTION
2
HEADER
0
ENDSEC
0
SECTION
2
TABLES
0
TABLE
2
LTYPE
70
2
0
LTYPE
2
CONTINUOUS
70
0
3
Solid line
72
65
73
0
40
0.0
0
ENDTAB
0
TABLE
2
LAYER
70
1
0
LAYER
2
0
70
0
62
7
6
CONTINUOUS
0
ENDTAB
0
ENDSEC
0
SECTION
2
ENTITIES
0
LINE
8
0
6
CONTINUOUS
10
64.5
20
20.35
30
0
11
-20.5
21
20.35
31
0
0
LINE
8
0
6
CONTINUOUS
10
64.5
20
23.35
30
0
11
-20.5
21
23.35
31
0
0
LINE
8
0
6
CONTINUOUS
10
64.5
20
29.35
30
0
11
-20.5
21
29.35
31
0
0
LINE
8
0
6
CONTINUOUS
10
0.0
20
-13.5
30
0
11
0.0
21
73.5
31
0
0
LINE
8
0
6
CONTINUOUS
10
-20.5
20
0.0
30
0
11
64.5
21
0.0
31
0
0
LINE
8
0
6
CONTINUOUS
10
63.0
20
71.49
30
0
11
63.0
21
36.0
31
0
0
ARC
8
0
6
CONTINUOUS
10
62.0
20
36.0
30
0
40
1.0
50
270.0
51
0.0
0
LINE
8
0
6
CONTINUOUS
10
62.0
20
35.0
30
0
11
52.0
21
35.0
31
0
0
ARC
8
0
6
CONTINUOUS
10
51.99702530469116
20
35.999995575584116
30
0
40
1.0
50
163.1417790940372
51
270.17043773789663
0
LINE
8
0
6
CONTINUOUS
10
51.04
20
36.29
30
0
11
51.54
21
40.13
31
0
0
ARC
8
0
6
CONTINUOUS
10
47.05523711498857
20
40.500002520564436
30
0
40
4.5
50
355.2836571699368
51
89.93935705324165
0
LINE
8
0
6
CONTINUOUS
10
47.06
20
45.0
30
0
11
42.5
21
45.0
31
0
0
ARC
8
0
6
CONTINUOUS
10
42.5
20
40.5
30
0
40
4.5
50
90.0
51
180.0
0
LINE
8
0
6
CONTINUOUS
10
38.0
20
40.5
30
0
11
38.0
21
-11.5
31
0
0
ARC
8
0
6
CONTINUOUS
10
37.5
20
-11.5
30
0
40
0.5
50
270.0
51
0.0
0
LINE
8
0
6
CONTINUOUS
10
37.5
20
-12.0
30
0
11
9.5
21
-12.0
31
0
0
ARC
8
0
6
CONTINUOUS
10
9.5
20
-8.5
30
0
40
3.5
50
180.0
51
270.0
0
LINE
8
0
6
CONTINUOUS
10
6.0
20
-8.5
30
0
11
6.0
21
40.61
31
0
0
ARC
8
0
6
CONTINUOUS
10
1.5013446404289952
20
40.50000020089532
30
0
40
4.5
50
1.4007004580697497
51
90.01712049393123
0
LINE
8
0
6
CONTINUOUS
10
1.5
20
45.0
30
0
11
-3.06
21
45.0
31
0
0
ARC
8
0
6
CONTINUOUS
10
-3.0552371149885795
20
40.500002520564436
30
0
40
4.5
50
90.06064294675822
51
184.71634283006318
0
LINE
8
0
6
CONTINUOUS
10
-7.54
20
40.13
30
0
11
-7.04
21
36.29
31
0
0
ARC
8
0
6
CONTINUOUS
10
-7.997025304691164
20
35.999995575584116
30
0
40
1.0
50
269.82956226210376
51
16.85822090596272
0
LINE
8
0
6
CONTINUOUS
10
-8.0
20
35.0
30
0
11
-18.0
21
35.0
31
0
0
ARC
8
0
6
CONTINUOUS
10
-18.0
20
36.0
30
0
40
1.0
50
180.0
51
270.0
0
LINE
8
0
6
CONTINUOUS
10
-19.0
20
36.0
30
0
11
-19.0
21
71.49
31
0
0
ARC
8
0
6
CONTINUOUS
10
-18.5
20
71.49
30
0
40
0.5
50
90.0
51
180.0
0
LINE
8
0
6
CONTINUOUS
10
-18.5
20
71.99
30
0
11
62.5
21
71.99
31
0
0
ARC
8
0
6
CONTINUOUS
10
62.5
20
71.49
30
0
40
0.5
50
0.0
51
90.0
0
ARC
8
0
6
CONTINUOUS
10
62.5
20
71.5
30
0
40
2.0
50
0.0
51
90.0
0
LINE
8
0
6
CONTINUOUS
10
62.5
20
73.5
30
0
11
-18.5
21
73.5
31
0
0
ARC
8
0
6
CONTINUOUS
10
-18.5
20
71.5
30
0
40
2.0
50
90.0
51
180.0
0
LINE
8
0
6
CONTINUOUS
10
-20.5
20
71.5
30
0
11
-20.5
21
36.0
31
0
0
ARC
8
0
6
CONTINUOUS
10
-18.0
20
36.0
30
0
40
2.5
50
180.0
51
270.0
0
LINE
8
0
6
CONTINUOUS
10
-18.0
20
33.5
30
0
11
-8.0
21
33.5
31
0
0
ARC
8
0
6
CONTINUOUS
10
-7.999382619112606
20
35.999999923768165
30
0
40
2.5
50
269.9858506721763
51
13.65057847112754
0
LINE
8
0
6
CONTINUOUS
10
-5.57
20
36.59
30
0
11
-6.04
21
40.24
31
0
0
ARC
8
0
6
CONTINUOUS
10
-3.0512890030261746
20
40.50001264693804
30
0
40
3.0
50
90.16636802110011
51
184.97211401919625
0
LINE
8
0
6
CONTINUOUS
10
-3.06
20
43.5
30
0
11
1.5
21
43.5
31
0
0
ARC
8
0
6
CONTINUOUS
10
1.5013502947661945
20
40.50000030388267
30
0
40
3.0
50
1.7191255145329192
51
90.02578873127128
0
LINE
8
0
6
CONTINUOUS
10
4.5
20
40.59
30
0
11
4.5
21
-8.5
31
0
0
ARC
8
0
6
CONTINUOUS
10
9.5
20
-8.5
30
0
40
5.0
50
180.0
51
270.0
0
LINE
8
0
6
CONTINUOUS
10
9.5
20
-13.5
30
0
11
37.5
21
-13.5
31
0
0
ARC
8
0
6
CONTINUOUS
10
37.5
20
-11.5
30
0
40
2.0
50
270.0
51
0.0
0
LINE
8
0
6
CONTINUOUS
10
39.5
20
-11.5
30
0
11
39.5
21
40.5
31
0
0
ARC
8
0
6
CONTINUOUS
10
42.5
20
40.5
30
0
40
3.0
50
90.0
51
180.0
0
LINE
8
0
6
CONTINUOUS
10
42.5
20
43.5
30
0
11
47.06
21
43.5
31
0
0
ARC
8
0
6
CONTINUOUS
10
47.06128792684188
20
40.500000276459275
30
0
40
3.0
50
355.02812313190225
51
90.02459759154262
0
LINE
8
0
6
CONTINUOUS
10
50.05
20
40.24
30
0
11
49.57
21
36.59
31
0
0
ARC
8
0
6
CONTINUOUS
10
51.9993826191126
20
35.999999923768165
30
0
40
2.5
50
166.34942152887243
51
270.0141493278238
0
LINE
8
0
6
CONTINUOUS
10
52.0
20
33.5
30
0
11
62.0
21
33.5
31
0
0
ARC
8
0
6
CONTINUOUS
10
62.0
20
36.0
30
0
40
2.5
50
270.0
51
0.0
0
LINE
8
0
6
CONTINUOUS
10
64.5
20
36.0
30
0
11
64.5
21
71.5
31
0
0
LINE
8
0
6
CONTINUOUS
10
48.92
20
30.28
30
0
11
41.61
21
31.87
31
0
0
LINE
8
0
6
CONTINUOUS
10
41.61
20
31.87
30
0
11
41.61
21
35.93
31
0
0
LINE
8
0
6
CONTINUOUS
10
41.61
20
35.93
30
0
11
47.73
21
35.09
31
0
0
ARC
8
0
6
CONTINUOUS
10
50.92117616223468
20
35.43712346735005
30
0
40
3.21
50
186.2079992800944
51
287.7539251850429
0
ARC
8
0
6
CONTINUOUS
10
49.44984833765109
20
32.69250093038083
30
0
40
2.47
50
257.6130131815765
51
352.73153879609737
0
ARC
8
0
6
CONTINUOUS
10
49.04351342857714
20
33.918590012414406
30
0
40
4.57
50
268.5766937992746
51
342.8366890019312
0
ARC
8
0
6
CONTINUOUS
10
52.334360578449264
20
32.39364854747973
30
0
40
1.09
50
9.310828290760872
51
128.2197634407314
0
ARC
8
0
6
CONTINUOUS
10
51.268472694329674
20
35.74952122793837
30
0
40
2.53
50
196.2866564361199
51
278.9025221379543
0
LINE
8
0
6
CONTINUOUS
10
48.84
20
35.04
30
0
11
48.52
21
41.99
31
0
0
ARC
8
0
6
CONTINUOUS
10
42.17388151316266
20
28.10116707023152
30
0
40
15.27
50
65.4432787484626
51
92.19136240146051
0
ARC
8
0
6
CONTINUOUS
10
42.505513717309704
20
40.50310752155112
30
0
40
3.0
50
107.76846635444255
51
153.96219089808454
0
LINE
8
0
6
CONTINUOUS
10
39.81
20
41.82
30
0
11
40.56
21
42.05
31
0
0
LINE
8
0
6
CONTINUOUS
10
40.56
20
42.05
30
0
11
40.56
21
37.08
31
0
0
LINE
8
0
6
CONTINUOUS
10
40.56
20
37.08
30
0
11
39.5
21
36.28
31
0
0
LINE
8
0
6
CONTINUOUS
10
39.5
20
36.28
30
0
11
39.5
21
35.46
31
0
0
LINE
8
0
6
CONTINUOUS
10
39.5
20
35.46
30
0
11
40.56
21
35.89
31
0
0
LINE
8
0
6
CONTINUOUS
10
40.56
20
35.89
30
0
11
40.56
21
32.34
31
0
0
ARC
8
0
6
CONTINUOUS
10
39.57478039610592
20
32.43717166306486
30
0
40
0.99
50
265.66799394967893
51
354.36716686956953
0
LINE
8
0
6
CONTINUOUS
10
39.5
20
31.45
30
0
11
39.5
21
30.66
31
0
0
ARC
8
0
6
CONTINUOUS
10
40.82702311691785
20
28.930430791449602
30
0
40
2.18
50
80.41543292386045
51
127.49745584356309
0
LINE
8
0
6
CONTINUOUS
10
41.19
20
31.08
30
0
11
48.93
21
29.35
31
0
0
LINE
8
0
6
CONTINUOUS
10
41.61
20
36.94
30
0
11
41.61
21
42.1
31
0
0
ARC
8
0
6
CONTINUOUS
10
42.762897077319025
20
26.883613164449677
30
0
40
15.26
50
71.67793942320806
51
94.3328399983155
0
LINE
8
0
6
CONTINUOUS
10
47.56
20
41.37
30
0
11
47.76
21
36.09
31
0
0
LINE
8
0
6
CONTINUOUS
10
47.76
20
36.09
30
0
11
41.61
21
36.94
31
0
0
ARC
8
0
6
CONTINUOUS
10
-5.449848337651092
20
32.69250093038083
30
0
40
2.47
50
187.2684612039026
51
282.38698681842357
0
ARC
8
0
6
CONTINUOUS
10
-6.9211761622346835
20
35.43712346735005
30
0
40
3.21
50
252.24607481495713
51
353.7920007199056
0
LINE
8
0
6
CONTINUOUS
10
-3.73
20
35.09
30
0
11
2.39
21
35.93
31
0
0
LINE
8
0
6
CONTINUOUS
10
2.39
20
35.93
30
0
11
2.39
21
31.87
31
0
0
LINE
8
0
6
CONTINUOUS
10
2.39
20
31.87
30
0
11
-4.92
21
30.28
31
0
0
LINE
8
0
6
CONTINUOUS
10
-4.93
20
29.35
30
0
11
2.81
21
31.08
31
0
0
ARC
8
0
6
CONTINUOUS
10
3.172976883082153
20
28.930430791449602
30
0
40
2.18
50
52.50254415643697
51
99.58456707613969
0
LINE
8
0
6
CONTINUOUS
10
4.5
20
30.66
30
0
11
4.5
21
31.45
31
0
0
ARC
8
0
6
CONTINUOUS
10
4.425219603894081
20
32.43717166306486
30
0
40
0.99
50
185.6328331304305
51
274.3320060503209
0
LINE
8
0
6
CONTINUOUS
10
3.44
20
32.34
30
0
11
3.44
21
35.89
31
0
0
LINE
8
0
6
CONTINUOUS
10
3.44
20
35.89
30
0
11
4.5
21
35.46
31
0
0
LINE
8
0
6
CONTINUOUS
10
4.5
20
35.46
30
0
11
4.5
21
36.28
31
0
0
LINE
8
0
6
CONTINUOUS
10
4.5
20
36.28
30
0
11
3.44
21
37.08
31
0
0
LINE
8
0
6
CONTINUOUS
10
3.44
20
37.08
30
0
11
3.44
21
42.05
31
0
0
LINE
8
0
6
CONTINUOUS
10
3.44
20
42.05
30
0
11
4.2
21
41.82
31
0
0
ARC
8
0
6
CONTINUOUS
10
1.5063306950580742
20
40.499338924775294
30
0
40
3.0
50
26.117941713427797
51
72.46891974516682
0
ARC
8
0
6
CONTINUOUS
10
1.826118486837343
20
28.10116707023152
30
0
40
15.27
50
87.8086375985395
51
114.55672125153741
0
LINE
8
0
6
CONTINUOUS
10
-4.52
20
41.99
30
0
11
-4.84
21
35.04
31
0
0
ARC
8
0
6
CONTINUOUS
10
-7.268472694329674
20
35.74952122793837
30
0
40
2.53
50
261.09747786204565
51
343.71334356388013
0
ARC
8
0
6
CONTINUOUS
10
-8.33436057844927
20
32.39364854747973
30
0
40
1.09
50
51.780236559268516
51
170.6891717092391
0
ARC
8
0
6
CONTINUOUS
10
-5.043513428577146
20
33.918590012414406
30
0
40
4.57
50
197.1633109980688
51
271.4233062007254
0
LINE
8
0
6
CONTINUOUS
10
2.39
20
36.94
30
0
11
-3.76
21
36.09
31
0
0
LINE
8
0
6
CONTINUOUS
10
-3.76
20
36.09
30
0
11
-3.55
21
41.37
31
0
0
ARC
8
0
6
CONTINUOUS
10
1.2452459901503539
20
26.88299838151638
30
0
40
15.26
50
85.69782128594183
51
108.31471629278677
0
LINE
8
0
6
CONTINUOUS
10
2.39
20
42.1
30
0
11
2.39
21
36.94
31
0
0
LINE
8
0
6
CONTINUOUS
10
63.0
20
13.34
30
0
11
63.0
21
-2.15
31
0
0
ARC
8
0
6
CONTINUOUS
10
62.0
20
-2.15
30
0
40
1.0
50
270.0
51
0.0
0
LINE
8
0
6
CONTINUOUS
10
62.0
20
-3.15
30
0
11
42.0
21
-3.15
31
0
0
ARC
8
0
6
CONTINUOUS
10
42.0
20
-2.15
30
0
40
1.0
50
180.0
51
270.0
0
LINE
8
0
6
CONTINUOUS
10
41.0
20
-2.15
30
0
11
41.0
21
-0.02
31
0
0
ARC
8
0
6
CONTINUOUS
10
42.0
20
-0.019999999999999962
30
0
40
1.0
50
90.0
51
180.0
0
LINE
8
0
6
CONTINUOUS
10
42.0
20
0.98
30
0
11
45.25
21
0.11
31
0
0
LINE
8
0
6
CONTINUOUS
10
45.25
20
0.11
30
0
11
45.62
21
1.51
31
0
0
LINE
8
0
6
CONTINUOUS
10
45.62
20
1.51
30
0
11
42.0
21
2.48
31
0
0
ARC
8
0
6
CONTINUOUS
10
42.0
20
-0.019999999999999796
30
0
40
2.5
50
90.0
51
180.0
0
LINE
8
0
6
CONTINUOUS
10
39.5
20
-0.02
30
0
11
39.5
21
-2.15
31
0
0
ARC
8
0
6
CONTINUOUS
10
42.0
20
-2.150000000000001
30
0
40
2.5
50
179.99999999999997
51
270.0
0
LINE
8
0
6
CONTINUOUS
10
42.0
20
-4.65
30
0
11
62.0
21
-4.65
31
0
0
ARC
8
0
6
CONTINUOUS
10
62.0
20
-2.150000000000001
30
0
40
2.5
50
270.0
51
2.035554996136651e-14
0
LINE
8
0
6
CONTINUOUS
10
64.5
20
-2.15
30
0
11
64.5
21
13.35
31
0
0
ARC
8
0
6
CONTINUOUS
10
62.5
20
13.35
30
0
40
2.0
50
0.0
51
90.0
0
LINE
8
0
6
CONTINUOUS
10
62.5
20
15.35
30
0
11
41.5
21
15.35
31
0
0
ARC
8
0
6
CONTINUOUS
10
41.5
20
13.35
30
0
40
2.0
50
90.0
51
180.0
0
LINE
8
0
6
CONTINUOUS
10
39.5
20
13.35
30
0
11
39.5
21
11.98
31
0
0
LINE
8
0
6
CONTINUOUS
10
39.5
20
11.98
30
0
11
41.0
21
11.98
31
0
0
LINE
8
0
6
CONTINUOUS
10
41.0
20
11.98
30
0
11
41.0
21
13.34
31
0
0
ARC
8
0
6
CONTINUOUS
10
41.5
20
13.34
30
0
40
0.5
50
90.0
51
180.0
0
LINE
8
0
6
CONTINUOUS
10
41.5
20
13.84
30
0
11
62.5
21
13.84
31
0
0
ARC
8
0
6
CONTINUOUS
10
62.5
20
13.34
30
0
40
0.5
50
0.0
51
90.0
0
ENDSEC
0
EOF