0
SECTION
2
HEADER
0
ENDSEC
0
SECTION
2
TABLES
0
TABLE
2
LTYPE
70
2
0
LTYPE
2
CONTINUOUS
70
0
3
Solid line
72
65
73
0
40
0.0
0
ENDTAB
0
TABLE
2
LAYER
70
1
0
LAYER
2
0
70
0
62
7
6
CONTINUOUS
0
ENDTAB
0
ENDSEC
0
SECTION
2
ENTITIES
0
LINE
8
0
6
CONTINUOUS
10
119.2
20
8.0
30
0
11
119.2
21
-8.0
31
0
0
LINE
8
0
6
CONTINUOUS
10
55.01
20
8.0
30
0
11
55.01
21
-8.0
31
0
0
LINE
8
0
6
CONTINUOUS
10
0.0
20
-8.0
30
0
11
0.0
21
8.0
31
0
0
LINE
8
0
6
CONTINUOUS
10
-7.0
20
0.0
30
0
11
119.2
21
0.0
31
0
0
ARC
8
0
6
CONTINUOUS
10
-5.746713379644165
20
2.995
30
0
40
1.25
50
126.48620998257445
51
233.51379001742555
0
ARC
8
0
6
CONTINUOUS
10
-2.8482421826815556
20
0.0
30
0
40
4.15
50
151.34606871237224
51
208.65393128762776
0
ARC
8
0
6
CONTINUOUS
10
-5.746713379644165
20
-2.995
30
0
40
1.25
50
126.48620998257445
51
233.51379001742555
0
ARC
8
0
6
CONTINUOUS
10
101.26565418551137
20
0.5817882950806649
30
0
40
1.99
50
87.57080034246523
51
250.15208012516774
0
LINE
8
0
6
CONTINUOUS
10
58.59
20
0.0
30
0
11
58.63
21
2.57
31
0
0
LINE
8
0
6
CONTINUOUS
10
58.63
20
2.57
30
0
11
59.08
21
3.15
31
0
0
LINE
8
0
6
CONTINUOUS
10
59.08
20
3.15
30
0
11
59.74
21
2.57
31
0
0
LINE
8
0
6
CONTINUOUS
10
59.74
20
2.57
30
0
11
60.45
21
2.57
31
0
0
LINE
8
0
6
CONTINUOUS
10
60.45
20
2.57
30
0
11
60.89
21
3.15
31
0
0
LINE
8
0
6
CONTINUOUS
10
60.89
20
3.15
30
0
11
61.56
21
2.57
31
0
0
LINE
8
0
6
CONTINUOUS
10
61.56
20
2.57
30
0
11
62.26
21
2.57
31
0
0
LINE
8
0
6
CONTINUOUS
10
62.26
20
2.57
30
0
11
62.71
21
3.15
31
0
0
LINE
8
0
6
CONTINUOUS
10
62.71
20
3.15
30
0
11
63.37
21
2.57
31
0
0
LINE
8
0
6
CONTINUOUS
10
63.37
20
2.57
30
0
11
64.08
21
2.57
31
0
0
LINE
8
0
6
CONTINUOUS
10
64.08
20
2.57
30
0
11
64.52
21
3.15
31
0
0
LINE
8
0
6
CONTINUOUS
10
64.52
20
3.15
30
0
11
65.19
21
2.57
31
0
0
LINE
8
0
6
CONTINUOUS
10
65.19
20
2.57
30
0
11
65.89
21
2.57
31
0
0
LINE
8
0
6
CONTINUOUS
10
65.89
20
2.57
30
0
11
66.34
21
3.15
31
0
0
LINE
8
0
6
CONTINUOUS
10
66.34
20
3.15
30
0
11
67.0
21
2.57
31
0
0
LINE
8
0
6
CONTINUOUS
10
67.0
20
2.57
30
0
11
67.71
21
2.57
31
0
0
LINE
8
0
6
CONTINUOUS
10
67.71
20
2.57
30
0
11
68.15
21
3.15
31
0
0
LINE
8
0
6
CONTINUOUS
10
68.15
20
3.15
30
0
11
68.82
21
2.57
31
0
0
LINE
8
0
6
CONTINUOUS
10
68.82
20
2.57
30
0
11
69.52
21
2.57
31
0
0
LINE
8
0
6
CONTINUOUS
10
69.52
20
2.57
30
0
11
69.97
21
3.15
31
0
0
LINE
8
0
6
CONTINUOUS
10
69.97
20
3.15
30
0
11
70.63
21
2.57
31
0
0
LINE
8
0
6
CONTINUOUS
10
70.63
20
2.57
30
0
11
71.34
21
2.57
31
0
0
LINE
8
0
6
CONTINUOUS
10
71.34
20
2.57
30
0
11
71.78
21
3.15
31
0
0
LINE
8
0
6
CONTINUOUS
10
71.78
20
3.15
30
0
11
72.45
21
2.57
31
0
0
LINE
8
0
6
CONTINUOUS
10
72.45
20
2.57
30
0
11
73.15
21
2.57
31
0
0
LINE
8
0
6
CONTINUOUS
10
73.15
20
2.57
30
0
11
73.6
21
3.15
31
0
0
LINE
8
0
6
CONTINUOUS
10
73.6
20
3.15
30
0
11
74.26
21
2.57
31
0
0
LINE
8
0
6
CONTINUOUS
10
74.26
20
2.57
30
0
11
74.97
21
2.57
31
0
0
LINE
8
0
6
CONTINUOUS
10
74.97
20
2.57
30
0
11
75.41
21
3.15
31
0
0
LINE
8
0
6
CONTINUOUS
10
75.41
20
3.15
30
0
11
76.08
21
2.57
31
0
0
LINE
8
0
6
CONTINUOUS
10
76.08
20
2.57
30
0
11
76.78
21
2.57
31
0
0
LINE
8
0
6
CONTINUOUS
10
76.78
20
2.57
30
0
11
77.23
21
3.15
31
0
0
LINE
8
0
6
CONTINUOUS
10
77.23
20
3.15
30
0
11
77.89
21
2.57
31
0
0
LINE
8
0
6
CONTINUOUS
10
77.89
20
2.57
30
0
11
78.6
21
2.57
31
0
0
LINE
8
0
6
CONTINUOUS
10
78.6
20
2.57
30
0
11
79.04
21
3.15
31
0
0
LINE
8
0
6
CONTINUOUS
10
79.04
20
3.15
30
0
11
79.71
21
2.57
31
0
0
LINE
8
0
6
CONTINUOUS
10
79.71
20
2.57
30
0
11
80.41
21
2.57
31
0
0
LINE
8
0
6
CONTINUOUS
10
80.41
20
2.57
30
0
11
80.86
21
3.15
31
0
0
LINE
8
0
6
CONTINUOUS
10
80.86
20
3.15
30
0
11
81.52
21
2.57
31
0
0
LINE
8
0
6
CONTINUOUS
10
81.52
20
2.57
30
0
11
82.23
21
2.57
31
0
0
LINE
8
0
6
CONTINUOUS
10
82.23
20
2.57
30
0
11
82.67
21
3.15
31
0
0
LINE
8
0
6
CONTINUOUS
10
82.67
20
3.15
30
0
11
83.34
21
2.57
31
0
0
LINE
8
0
6
CONTINUOUS
10
83.34
20
2.57
30
0
11
84.04
21
2.57
31
0
0
LINE
8
0
6
CONTINUOUS
10
84.04
20
2.57
30
0
11
84.49
21
3.15
31
0
0
LINE
8
0
6
CONTINUOUS
10
84.49
20
3.15
30
0
11
85.15
21
2.57
31
0
0
LINE
8
0
6
CONTINUOUS
10
85.15
20
2.57
30
0
11
85.86
21
2.57
31
0
0
LINE
8
0
6
CONTINUOUS
10
85.86
20
2.57
30
0
11
86.3
21
3.15
31
0
0
LINE
8
0
6
CONTINUOUS
10
86.3
20
3.15
30
0
11
86.97
21
2.57
31
0
0
LINE
8
0
6
CONTINUOUS
10
86.97
20
2.57
30
0
11
87.67
21
2.57
31
0
0
LINE
8
0
6
CONTINUOUS
10
87.67
20
2.57
30
0
11
88.12
21
3.15
31
0
0
LINE
8
0
6
CONTINUOUS
10
88.12
20
3.15
30
0
11
88.78
21
2.57
31
0
0
LINE
8
0
6
CONTINUOUS
10
88.78
20
2.57
30
0
11
89.49
21
2.57
31
0
0
LINE
8
0
6
CONTINUOUS
10
89.49
20
2.57
30
0
11
89.93
21
3.15
31
0
0
LINE
8
0
6
CONTINUOUS
10
89.93
20
3.15
30
0
11
90.6
21
2.57
31
0
0
LINE
8
0
6
CONTINUOUS
10
90.6
20
2.57
30
0
11
91.3
21
2.57
31
0
0
LINE
8
0
6
CONTINUOUS
10
91.3
20
2.57
30
0
11
91.75
21
3.15
31
0
0
LINE
8
0
6
CONTINUOUS
10
91.75
20
3.15
30
0
11
92.41
21
2.57
31
0
0
LINE
8
0
6
CONTINUOUS
10
92.41
20
2.57
30
0
11
93.12
21
2.57
31
0
0
LINE
8
0
6
CONTINUOUS
10
93.12
20
2.57
30
0
11
93.56
21
3.15
31
0
0
LINE
8
0
6
CONTINUOUS
10
93.56
20
3.15
30
0
11
94.23
21
2.57
31
0
0
LINE
8
0
6
CONTINUOUS
10
94.23
20
2.57
30
0
11
94.93
21
2.57
31
0
0
LINE
8
0
6
CONTINUOUS
10
94.93
20
2.57
30
0
11
95.38
21
3.15
31
0
0
LINE
8
0
6
CONTINUOUS
10
95.38
20
3.15
30
0
11
96.04
21
2.57
31
0
0
LINE
8
0
6
CONTINUOUS
10
96.04
20
2.57
30
0
11
117.91
21
2.57
31
0
0
LINE
8
0
6
CONTINUOUS
10
117.91
20
2.57
30
0
11
119.2
21
-0.0
31
0
0
LINE
8
0
6
CONTINUOUS
10
119.2
20
0.0
30
0
11
117.91
21
-2.58
31
0
0
LINE
8
0
6
CONTINUOUS
10
117.91
20
-2.58
30
0
11
96.68
21
-2.58
31
0
0
LINE
8
0
6
CONTINUOUS
10
96.68
20
-2.58
30
0
11
96.22
21
-3.15
31
0
0
LINE
8
0
6
CONTINUOUS
10
96.22
20
-3.15
30
0
11
95.57
21
-2.58
31
0
0
LINE
8
0
6
CONTINUOUS
10
95.57
20
-2.58
30
0
11
94.87
21
-2.58
31
0
0
LINE
8
0
6
CONTINUOUS
10
94.87
20
-2.58
30
0
11
94.4
21
-3.15
31
0
0
LINE
8
0
6
CONTINUOUS
10
94.4
20
-3.15
30
0
11
93.75
21
-2.58
31
0
0
LINE
8
0
6
CONTINUOUS
10
93.75
20
-2.58
30
0
11
93.05
21
-2.58
31
0
0
LINE
8
0
6
CONTINUOUS
10
93.05
20
-2.58
30
0
11
92.59
21
-3.15
31
0
0
LINE
8
0
6
CONTINUOUS
10
92.59
20
-3.15
30
0
11
91.94
21
-2.58
31
0
0
LINE
8
0
6
CONTINUOUS
10
91.94
20
-2.58
30
0
11
91.24
21
-2.58
31
0
0
LINE
8
0
6
CONTINUOUS
10
91.24
20
-2.58
30
0
11
90.77
21
-3.15
31
0
0
LINE
8
0
6
CONTINUOUS
10
90.77
20
-3.15
30
0
11
90.12
21
-2.58
31
0
0
LINE
8
0
6
CONTINUOUS
10
90.12
20
-2.58
30
0
11
89.42
21
-2.58
31
0
0
LINE
8
0
6
CONTINUOUS
10
89.42
20
-2.58
30
0
11
88.96
21
-3.15
31
0
0
LINE
8
0
6
CONTINUOUS
10
88.96
20
-3.15
30
0
11
88.31
21
-2.58
31
0
0
LINE
8
0
6
CONTINUOUS
10
88.31
20
-2.58
30
0
11
87.61
21
-2.58
31
0
0
LINE
8
0
6
CONTINUOUS
10
87.61
20
-2.58
30
0
11
87.14
21
-3.15
31
0
0
LINE
8
0
6
CONTINUOUS
10
87.14
20
-3.15
30
0
11
86.49
21
-2.58
31
0
0
LINE
8
0
6
CONTINUOUS
10
86.49
20
-2.58
30
0
11
85.79
21
-2.58
31
0
0
LINE
8
0
6
CONTINUOUS
10
85.79
20
-2.58
30
0
11
85.33
21
-3.15
31
0
0
LINE
8
0
6
CONTINUOUS
10
85.33
20
-3.15
30
0
11
84.68
21
-2.58
31
0
0
LINE
8
0
6
CONTINUOUS
10
84.68
20
-2.58
30
0
11
83.98
21
-2.58
31
0
0
LINE
8
0
6
CONTINUOUS
10
83.98
20
-2.58
30
0
11
83.51
21
-3.15
31
0
0
LINE
8
0
6
CONTINUOUS
10
83.51
20
-3.15
30
0
11
82.86
21
-2.58
31
0
0
LINE
8
0
6
CONTINUOUS
10
82.86
20
-2.58
30
0
11
82.16
21
-2.58
31
0
0
LINE
8
0
6
CONTINUOUS
10
82.16
20
-2.58
30
0
11
81.7
21
-3.15
31
0
0
LINE
8
0
6
CONTINUOUS
10
81.7
20
-3.15
30
0
11
81.05
21
-2.58
31
0
0
LINE
8
0
6
CONTINUOUS
10
81.05
20
-2.58
30
0
11
80.35
21
-2.58
31
0
0
LINE
8
0
6
CONTINUOUS
10
80.35
20
-2.58
30
0
11
79.88
21
-3.15
31
0
0
LINE
8
0
6
CONTINUOUS
10
79.88
20
-3.15
30
0
11
79.23
21
-2.58
31
0
0
LINE
8
0
6
CONTINUOUS
10
79.23
20
-2.58
30
0
11
78.53
21
-2.58
31
0
0
LINE
8
0
6
CONTINUOUS
10
78.53
20
-2.58
30
0
11
78.07
21
-3.15
31
0
0
LINE
8
0
6
CONTINUOUS
10
78.07
20
-3.15
30
0
11
77.42
21
-2.58
31
0
0
LINE
8
0
6
CONTINUOUS
10
77.42
20
-2.58
30
0
11
76.72
21
-2.58
31
0
0
LINE
8
0
6
CONTINUOUS
10
76.72
20
-2.58
30
0
11
76.25
21
-3.15
31
0
0
LINE
8
0
6
CONTINUOUS
10
76.25
20
-3.15
30
0
11
75.6
21
-2.58
31
0
0
LINE
8
0
6
CONTINUOUS
10
75.6
20
-2.58
30
0
11
74.9
21
-2.58
31
0
0
LINE
8
0
6
CONTINUOUS
10
74.9
20
-2.58
30
0
11
74.44
21
-3.15
31
0
0
LINE
8
0
6
CONTINUOUS
10
74.44
20
-3.15
30
0
11
73.79
21
-2.58
31
0
0
LINE
8
0
6
CONTINUOUS
10
73.79
20
-2.58
30
0
11
73.09
21
-2.58
31
0
0
LINE
8
0
6
CONTINUOUS
10
73.09
20
-2.58
30
0
11
72.62
21
-3.15
31
0
0
LINE
8
0
6
CONTINUOUS
10
72.62
20
-3.15
30
0
11
71.97
21
-2.58
31
0
0
LINE
8
0
6
CONTINUOUS
10
71.97
20
-2.58
30
0
11
71.27
21
-2.58
31
0
0
LINE
8
0
6
CONTINUOUS
10
71.27
20
-2.58
30
0
11
70.81
21
-3.15
31
0
0
LINE
8
0
6
CONTINUOUS
10
70.81
20
-3.15
30
0
11
70.16
21
-2.58
31
0
0
LINE
8
0
6
CONTINUOUS
10
70.16
20
-2.58
30
0
11
69.46
21
-2.58
31
0
0
LINE
8
0
6
CONTINUOUS
10
69.46
20
-2.58
30
0
11
68.99
21
-3.15
31
0
0
LINE
8
0
6
CONTINUOUS
10
68.99
20
-3.15
30
0
11
68.34
21
-2.58
31
0
0
LINE
8
0
6
CONTINUOUS
10
68.34
20
-2.58
30
0
11
67.64
21
-2.58
31
0
0
LINE
8
0
6
CONTINUOUS
10
67.64
20
-2.58
30
0
11
67.18
21
-3.15
31
0
0
LINE
8
0
6
CONTINUOUS
10
67.18
20
-3.15
30
0
11
66.53
21
-2.58
31
0
0
LINE
8
0
6
CONTINUOUS
10
66.53
20
-2.58
30
0
11
65.83
21
-2.58
31
0
0
LINE
8
0
6
CONTINUOUS
10
65.83
20
-2.58
30
0
11
65.36
21
-3.15
31
0
0
LINE
8
0
6
CONTINUOUS
10
65.36
20
-3.15
30
0
11
64.71
21
-2.58
31
0
0
LINE
8
0
6
CONTINUOUS
10
64.71
20
-2.58
30
0
11
64.01
21
-2.58
31
0
0
LINE
8
0
6
CONTINUOUS
10
64.01
20
-2.58
30
0
11
63.55
21
-3.15
31
0
0
LINE
8
0
6
CONTINUOUS
10
63.55
20
-3.15
30
0
11
62.9
21
-2.58
31
0
0
LINE
8
0
6
CONTINUOUS
10
62.9
20
-2.58
30
0
11
62.2
21
-2.58
31
0
0
LINE
8
0
6
CONTINUOUS
10
62.2
20
-2.58
30
0
11
61.73
21
-3.15
31
0
0
LINE
8
0
6
CONTINUOUS
10
61.73
20
-3.15
30
0
11
61.08
21
-2.58
31
0
0
LINE
8
0
6
CONTINUOUS
10
61.08
20
-2.58
30
0
11
60.38
21
-2.58
31
0
0
LINE
8
0
6
CONTINUOUS
10
60.38
20
-2.58
30
0
11
59.92
21
-3.15
31
0
0
LINE
8
0
6
CONTINUOUS
10
59.92
20
-3.15
30
0
11
59.27
21
-2.58
31
0
0
LINE
8
0
6
CONTINUOUS
10
59.27
20
-2.58
30
0
11
58.63
21
-2.58
31
0
0
LINE
8
0
6
CONTINUOUS
10
66.34
20
3.15
30
0
11
65.36
21
-3.15
31
0
0
LINE
8
0
6
CONTINUOUS
10
59.17
20
-2.58
30
0
11
0.0
21
-2.58
31
0
0
LINE
8
0
6
CONTINUOUS
10
59.17
20
2.57
30
0
11
0.0
21
2.57
31
0
0
LINE
8
0
6
CONTINUOUS
10
-7.0
20
-2.99
30
0
11
-7.0
21
2.99
31
0
0
LINE
8
0
6
CONTINUOUS
10
-7.0
20
2.99
30
0
11
-7.0
21
-2.99
31
0
0
LINE
8
0
6
CONTINUOUS
10
-1.0
20
-8.0
30
0
11
-1.0
21
8.0
31
0
0
LINE
8
0
6
CONTINUOUS
10
-1.0
20
8.0
30
0
11
0.0
21
8.0
31
0
0
LINE
8
0
6
CONTINUOUS
10
0.0
20
8.0
30
0
11
0.0
21
-8.0
31
0
0
LINE
8
0
6
CONTINUOUS
10
0.0
20
-8.0
30
0
11
-1.0
21
-8.0
31
0
0
LINE
8
0
6
CONTINUOUS
10
-1.0
20
-8.0
30
0
11
-2.0
21
-3.75
31
0
0
LINE
8
0
6
CONTINUOUS
10
-1.0
20
8.0
30
0
11
-2.0
21
3.75
31
0
0
LINE
8
0
6
CONTINUOUS
10
-6.49
20
4.0
30
0
11
-2.0
21
4.0
31
0
0
LINE
8
0
6
CONTINUOUS
10
-2.0
20
4.0
30
0
11
-2.0
21
-4.0
31
0
0
LINE
8
0
6
CONTINUOUS
10
-2.0
20
-4.0
30
0
11
-6.49
21
-4.0
31
0
0
LINE
8
0
6
CONTINUOUS
10
-2.0
20
1.99
30
0
11
-6.49
21
1.99
31
0
0
LINE
8
0
6
CONTINUOUS
10
-2.0
20
-1.99
30
0
11
-6.49
21
-1.99
31
0
0
LINE
8
0
6
CONTINUOUS
10
64.52
20
3.15
30
0
11
63.55
21
-3.15
31
0
0
LINE
8
0
6
CONTINUOUS
10
62.71
20
3.15
30
0
11
61.73
21
-3.15
31
0
0
LINE
8
0
6
CONTINUOUS
10
60.89
20
3.15
30
0
11
59.92
21
-3.15
31
0
0
LINE
8
0
6
CONTINUOUS
10
59.74
20
2.57
30
0
11
58.59
21
0.0
31
0
0
LINE
8
0
6
CONTINUOUS
10
58.59
20
0.0
30
0
11
59.08
21
3.15
31
0
0
LINE
8
0
6
CONTINUOUS
10
91.75
20
3.15
30
0
11
90.77
21
-3.15
31
0
0
LINE
8
0
6
CONTINUOUS
10
73.6
20
3.15
30
0
11
72.62
21
-3.15
31
0
0
LINE
8
0
6
CONTINUOUS
10
71.78
20
3.15
30
0
11
70.81
21
-3.15
31
0
0
LINE
8
0
6
CONTINUOUS
10
69.97
20
3.15
30
0
11
68.99
21
-3.15
31
0
0
LINE
8
0
6
CONTINUOUS
10
68.15
20
3.15
30
0
11
67.18
21
-3.15
31
0
0
LINE
8
0
6
CONTINUOUS
10
89.93
20
3.15
30
0
11
88.96
21
-3.15
31
0
0
LINE
8
0
6
CONTINUOUS
10
88.12
20
3.15
30
0
11
87.14
21
-3.15
31
0
0
LINE
8
0
6
CONTINUOUS
10
86.3
20
3.15
30
0
11
85.33
21
-3.15
31
0
0
LINE
8
0
6
CONTINUOUS
10
84.49
20
3.15
30
0
11
83.51
21
-3.15
31
0
0
LINE
8
0
6
CONTINUOUS
10
82.67
20
3.15
30
0
11
81.7
21
-3.15
31
0
0
LINE
8
0
6
CONTINUOUS
10
80.86
20
3.15
30
0
11
79.88
21
-3.15
31
0
0
LINE
8
0
6
CONTINUOUS
10
79.04
20
3.15
30
0
11
78.07
21
-3.15
31
0
0
LINE
8
0
6
CONTINUOUS
10
77.23
20
3.15
30
0
11
76.25
21
-3.15
31
0
0
LINE
8
0
6
CONTINUOUS
10
75.41
20
3.15
30
0
11
74.44
21
-3.15
31
0
0
LINE
8
0
6
CONTINUOUS
10
95.38
20
3.15
30
0
11
94.4
21
-3.15
31
0
0
LINE
8
0
6
CONTINUOUS
10
93.56
20
3.15
30
0
11
92.59
21
-3.15
31
0
0
LINE
8
0
6
CONTINUOUS
10
117.91
20
-1.29
30
0
11
100.59
21
-1.29
31
0
0
LINE
8
0
6
CONTINUOUS
10
100.59
20
-1.29
30
0
11
119.2
21
0.0
31
0
0
LINE
8
0
6
CONTINUOUS
10
119.2
20
-0.0
30
0
11
117.91
21
-1.29
31
0
0
LINE
8
0
6
CONTINUOUS
10
117.91
20
-1.29
30
0
11
117.91
21
-2.58
31
0
0
LINE
8
0
6
CONTINUOUS
10
95.57
20
-2.58
30
0
11
96.51
21
-0.0
31
0
0
LINE
8
0
6
CONTINUOUS
10
96.51
20
-0.0
30
0
11
96.68
21
-2.58
31
0
0
LINE
8
0
6
CONTINUOUS
10
96.22
20
-3.15
30
0
11
96.51
21
-0.0
31
0
0
ENDSEC
0
EOF