0
SECTION
2
HEADER
0
ENDSEC
0
SECTION
2
TABLES
0
TABLE
2
LTYPE
70
2
0
LTYPE
2
CONTINUOUS
70
0
3
Solid line
72
65
73
0
40
0.0
0
ENDTAB
0
TABLE
2
LAYER
70
1
0
LAYER
2
0
70
0
62
7
6
CONTINUOUS
0
ENDTAB
0
ENDSEC
0
SECTION
2
ENTITIES
0
LINE
8
0
6
CONTINUOUS
10
900.0
20
-1200.0
30
0
11
-31.07
21
-1200.0
31
0
0
LINE
8
0
6
CONTINUOUS
10
0.0
20
-1200.0
30
0
11
0.0
21
3.19
31
0
0
LINE
8
0
6
CONTINUOUS
10
-31.07
20
0.0
30
0
11
900.0
21
0.0
31
0
0
LINE
8
0
6
CONTINUOUS
10
300.0
20
-0.0
30
0
11
300.0
21
-1200.0
31
0
0
LINE
8
0
6
CONTINUOUS
10
900.0
20
-800.0
30
0
11
-0.0
21
-800.0
31
0
0
LINE
8
0
6
CONTINUOUS
10
150.0
20
-0.0
30
0
11
150.0
21
-1200.0
31
0
0
LINE
8
0
6
CONTINUOUS
10
900.0
20
-1000.0
30
0
11
-0.0
21
-1000.0
31
0
0
LINE
8
0
6
CONTINUOUS
10
900.0
20
-1200.0
30
0
11
-0.0
21
-1200.0
31
0
0
LINE
8
0
6
CONTINUOUS
10
900.0
20
-0.0
30
0
11
-0.0
21
-0.0
31
0
0
LINE
8
0
6
CONTINUOUS
10
900.0
20
-1200.0
30
0
11
900.0
21
-0.0
31
0
0
LINE
8
0
6
CONTINUOUS
10
-0.0
20
-1200.0
30
0
11
-0.0
21
-0.0
31
0
0
LINE
8
0
6
CONTINUOUS
10
450.0
20
-1200.0
30
0
11
450.0
21
-0.0
31
0
0
LINE
8
0
6
CONTINUOUS
10
-0.0
20
-600.0
30
0
11
900.0
21
-600.0
31
0
0
LINE
8
0
6
CONTINUOUS
10
-0.0
20
-1200.0
30
0
11
900.0
21
-1200.0
31
0
0
LINE
8
0
6
CONTINUOUS
10
-0.0
20
-0.0
30
0
11
-0.0
21
-1200.0
31
0
0
LINE
8
0
6
CONTINUOUS
10
900.0
20
-0.0
30
0
11
-0.0
21
-0.0
31
0
0
LINE
8
0
6
CONTINUOUS
10
900.0
20
-1200.0
30
0
11
900.0
21
-0.0
31
0
0
LINE
8
0
6
CONTINUOUS
10
575.0
20
-150.0
30
0
11
625.0
21
-350.0
31
0
0
LINE
8
0
6
CONTINUOUS
10
625.0
20
-350.0
30
0
11
625.0
21
-525.0
31
0
0
ARC
8
0
6
CONTINUOUS
10
450.0
20
-525.0
30
0
40
175.0
50
180.0
51
0.0
0
LINE
8
0
6
CONTINUOUS
10
275.0
20
-525.0
30
0
11
275.0
21
-350.0
31
0
0
LINE
8
0
6
CONTINUOUS
10
275.0
20
-350.0
30
0
11
325.0
21
-150.0
31
0
0
LINE
8
0
6
CONTINUOUS
10
375.0
20
-300.0
30
0
11
525.0
21
-300.0
31
0
0
ARC
8
0
6
CONTINUOUS
10
525.0
20
-350.0
30
0
40
50.0
50
0.0
51
90.0
0
LINE
8
0
6
CONTINUOUS
10
575.0
20
-350.0
30
0
11
575.0
21
-525.0
31
0
0
ARC
8
0
6
CONTINUOUS
10
450.0
20
-525.0
30
0
40
125.0
50
180.0
51
0.0
0
LINE
8
0
6
CONTINUOUS
10
325.0
20
-525.0
30
0
11
325.0
21
-350.0
31
0
0
ARC
8
0
6
CONTINUOUS
10
375.0
20
-350.0
30
0
40
50.0
50
90.0
51
180.0
0
LINE
8
0
6
CONTINUOUS
10
600.0
20
-150.0
30
0
11
300.0
21
-150.0
31
0
0
ARC
8
0
6
CONTINUOUS
10
300.0
20
-125.0
30
0
40
25.0
50
180.0
51
270.0
0
LINE
8
0
6
CONTINUOUS
10
275.0
20
-125.0
30
0
11
275.0
21
-25.0
31
0
0
ARC
8
0
6
CONTINUOUS
10
300.0
20
-25.0
30
0
40
25.0
50
90.0
51
180.0
0
LINE
8
0
6
CONTINUOUS
10
300.0
20
-0.0
30
0
11
600.0
21
-0.0
31
0
0
ARC
8
0
6
CONTINUOUS
10
600.0
20
-25.0
30
0
40
25.0
50
0.0
51
90.0
0
LINE
8
0
6
CONTINUOUS
10
625.0
20
-25.0
30
0
11
625.0
21
-125.0
31
0
0
ARC
8
0
6
CONTINUOUS
10
600.0
20
-125.0
30
0
40
25.0
50
270.0
51
0.0
0
ENDSEC
0
EOF