0
SECTION
2
HEADER
0
ENDSEC
0
SECTION
2
TABLES
0
TABLE
2
LTYPE
70
2
0
LTYPE
2
CONTINUOUS
70
0
3
Solid line
72
65
73
0
40
0.0
0
ENDTAB
0
TABLE
2
LAYER
70
1
0
LAYER
2
0
70
0
62
7
6
CONTINUOUS
0
ENDTAB
0
ENDSEC
0
SECTION
2
ENTITIES
0
LINE
8
0
6
CONTINUOUS
10
600.0
20
-1800.0
30
0
11
-31.07
21
-1800.0
31
0
0
LINE
8
0
6
CONTINUOUS
10
0.0
20
-1800.0
30
0
11
0.0
21
3.19
31
0
0
LINE
8
0
6
CONTINUOUS
10
-31.07
20
0.0
30
0
11
600.0
21
0.0
31
0
0
LINE
8
0
6
CONTINUOUS
10
200.0
20
-0.0
30
0
11
200.0
21
-1800.0
31
0
0
LINE
8
0
6
CONTINUOUS
10
600.0
20
-1200.0
30
0
11
-0.0
21
-1200.0
31
0
0
LINE
8
0
6
CONTINUOUS
10
100.0
20
-0.0
30
0
11
100.0
21
-1800.0
31
0
0
LINE
8
0
6
CONTINUOUS
10
600.0
20
-1500.0
30
0
11
-0.0
21
-1500.0
31
0
0
LINE
8
0
6
CONTINUOUS
10
600.0
20
-1800.0
30
0
11
-0.0
21
-1800.0
31
0
0
LINE
8
0
6
CONTINUOUS
10
600.0
20
-0.0
30
0
11
-0.0
21
-0.0
31
0
0
LINE
8
0
6
CONTINUOUS
10
600.0
20
-1800.0
30
0
11
600.0
21
-0.0
31
0
0
LINE
8
0
6
CONTINUOUS
10
-0.0
20
-1800.0
30
0
11
-0.0
21
-0.0
31
0
0
LINE
8
0
6
CONTINUOUS
10
300.0
20
-1800.0
30
0
11
300.0
21
-0.0
31
0
0
LINE
8
0
6
CONTINUOUS
10
-0.0
20
-900.0
30
0
11
600.0
21
-900.0
31
0
0
LINE
8
0
6
CONTINUOUS
10
-0.0
20
-1800.0
30
0
11
600.0
21
-1800.0
31
0
0
LINE
8
0
6
CONTINUOUS
10
-0.0
20
-0.0
30
0
11
-0.0
21
-1800.0
31
0
0
LINE
8
0
6
CONTINUOUS
10
600.0
20
-0.0
30
0
11
-0.0
21
-0.0
31
0
0
LINE
8
0
6
CONTINUOUS
10
600.0
20
-1800.0
30
0
11
600.0
21
-0.0
31
0
0
LINE
8
0
6
CONTINUOUS
10
-0.0
20
0.0
30
0
11
-0.0
21
-500.0
31
0
0
LINE
8
0
6
CONTINUOUS
10
-0.0
20
-500.0
30
0
11
599.99
21
-500.0
31
0
0
LINE
8
0
6
CONTINUOUS
10
599.99
20
-500.0
30
0
11
599.99
21
-0.0
31
0
0
LINE
8
0
6
CONTINUOUS
10
150.49
20
-550.49
30
0
11
150.49
21
-500.0
31
0
0
LINE
8
0
6
CONTINUOUS
10
157.84
20
-500.0
30
0
11
157.84
21
-550.49
31
0
0
LINE
8
0
6
CONTINUOUS
10
179.13
20
-500.0
30
0
11
179.13
21
-550.49
31
0
0
LINE
8
0
6
CONTINUOUS
10
212.32
20
-500.0
30
0
11
212.32
21
-550.49
31
0
0
LINE
8
0
6
CONTINUOUS
10
254.13
20
-500.0
30
0
11
254.13
21
-550.49
31
0
0
LINE
8
0
6
CONTINUOUS
10
300.49
20
-500.0
30
0
11
300.49
21
-550.49
31
0
0
LINE
8
0
6
CONTINUOUS
10
346.85
20
-500.0
30
0
11
346.85
21
-550.49
31
0
0
LINE
8
0
6
CONTINUOUS
10
388.66
20
-500.0
30
0
11
388.66
21
-550.49
31
0
0
LINE
8
0
6
CONTINUOUS
10
421.85
20
-500.0
30
0
11
421.85
21
-550.49
31
0
0
LINE
8
0
6
CONTINUOUS
10
443.15
20
-500.0
30
0
11
443.15
21
-550.49
31
0
0
LINE
8
0
6
CONTINUOUS
10
450.49
20
-550.49
30
0
11
450.49
21
-500.0
31
0
0
LINE
8
0
6
CONTINUOUS
10
-0.0
20
0.0
30
0
11
599.99
21
-0.0
31
0
0
LINE
8
0
6
CONTINUOUS
10
450.49
20
-550.49
30
0
11
150.49
21
-550.49
31
0
0
ENDSEC
0
EOF