0
SECTION
2
HEADER
0
ENDSEC
0
SECTION
2
TABLES
0
TABLE
2
LTYPE
70
2
0
LTYPE
2
CONTINUOUS
70
0
3
Solid line
72
65
73
0
40
0.0
0
ENDTAB
0
TABLE
2
LAYER
70
1
0
LAYER
2
0
70
0
62
7
6
CONTINUOUS
0
ENDTAB
0
ENDSEC
0
SECTION
2
ENTITIES
0
LINE
8
0
6
CONTINUOUS
10
-120.0
20
-500.0
30
0
11
520.0
21
-500.0
31
0
0
LINE
8
0
6
CONTINUOUS
10
400.0
20
-570.0
30
0
11
400.0
21
0.0
31
0
0
LINE
8
0
6
CONTINUOUS
10
0.0
20
-570.0
30
0
11
0.0
21
0.0
31
0
0
LINE
8
0
6
CONTINUOUS
10
-120.0
20
0.0
30
0
11
520.0
21
0.0
31
0
0
LINE
8
0
6
CONTINUOUS
10
0.0
20
-500.0
30
0
11
0.0
21
0.0
31
0
0
LINE
8
0
6
CONTINUOUS
10
-0.0
20
0.0
30
0
11
-100.0
21
0.0
31
0
0
LINE
8
0
6
CONTINUOUS
10
-100.0
20
0.0
30
0
11
-100.0
21
-100.0
31
0
0
LINE
8
0
6
CONTINUOUS
10
-100.0
20
-100.0
30
0
11
-120.0
21
-154.95
31
0
0
LINE
8
0
6
CONTINUOUS
10
-120.0
20
-154.95
30
0
11
-120.0
21
-570.0
31
0
0
LINE
8
0
6
CONTINUOUS
10
-120.0
20
-570.0
30
0
11
520.0
21
-570.0
31
0
0
LINE
8
0
6
CONTINUOUS
10
520.0
20
-570.0
30
0
11
520.0
21
-154.95
31
0
0
LINE
8
0
6
CONTINUOUS
10
520.0
20
-154.95
30
0
11
500.0
21
-100.0
31
0
0
LINE
8
0
6
CONTINUOUS
10
500.0
20
-100.0
30
0
11
500.0
21
0.0
31
0
0
LINE
8
0
6
CONTINUOUS
10
500.0
20
0.0
30
0
11
400.0
21
0.0
31
0
0
LINE
8
0
6
CONTINUOUS
10
400.0
20
0.0
30
0
11
400.0
21
-500.0
31
0
0
LINE
8
0
6
CONTINUOUS
10
400.0
20
-500.0
30
0
11
0.0
21
-500.0
31
0
0
ENDSEC
0
EOF