0
SECTION
2
HEADER
0
ENDSEC
0
SECTION
2
TABLES
0
TABLE
2
LTYPE
70
4
0
LTYPE
2
CONTINUOUS
70
0
3
Solid line
72
65
73
0
40
0.0
0
LTYPE
2
DASHED
70
0
3
dashed
72
65
73
2
40
12.7
49
6.35
49
-6.35
0
LTYPE
2
CENTER
70
0
3
center
72
65
73
4
40
28.575
49
12.7
49
-6.35
49
3.175
49
-6.35
0
ENDTAB
0
TABLE
2
LAYER
70
1
0
LAYER
2
0
70
0
62
7
6
CONTINUOUS
0
ENDTAB
0
ENDSEC
0
SECTION
2
ENTITIES
0
LINE
8
0
6
CONTINUOUS
10
50.0
20
35.0
30
0
11
50.0
21
-150.0
31
0
0
LINE
8
0
6
CONTINUOUS
10
75.0
20
-125.0
30
0
11
-40.0
21
-125.0
31
0
0
LINE
8
0
6
CONTINUOUS
10
75.0
20
-6.0
30
0
11
-40.0
21
-6.0
31
0
0
LINE
8
0
6
CONTINUOUS
10
6.0
20
35.0
30
0
11
6.0
21
-150.0
31
0
0
LINE
8
0
6
CONTINUOUS
10
75.0
20
35.0
30
0
11
75.0
21
-150.0
31
0
0
LINE
8
0
6
CONTINUOUS
10
75.0
20
-150.0
30
0
11
-40.0
21
-150.0
31
0
0
LINE
8
0
6
CONTINUOUS
10
0.0
20
35.0
30
0
11
0.0
21
-150.0
31
0
0
LINE
8
0
6
CONTINUOUS
10
-40.0
20
0.0
30
0
11
75.0
21
0.0
31
0
0
LINE
8
0
6
DASHED
10
75.0
20
-6.0
30
0
11
6.0
21
-6.0
31
0
0
LINE
8
0
6
DASHED
10
6.0
20
-6.0
30
0
11
6.0
21
-150.0
31
0
0
LINE
8
0
6
DASHED
10
6.0
20
-150.0
30
0
11
0.0
21
-150.0
31
0
0
LINE
8
0
6
DASHED
10
0.0
20
-150.0
30
0
11
0.0
21
-6.0
31
0
0
LINE
8
0
6
DASHED
10
75.0
20
-6.0
30
0
11
75.0
21
0.0
31
0
0
LINE
8
0
6
DASHED
10
75.0
20
0.0
30
0
11
6.0
21
0.0
31
0
0
ARC
8
0
6
DASHED
10
6.0
20
-6.0
30
0
40
6.0
50
90.0
51
180.0
0
LINE
8
0
6
CONTINUOUS
10
0.0
20
-135.0
30
0
11
6.0
21
-135.0
31
0
0
LINE
8
0
6
CONTINUOUS
10
0.0
20
-115.0
30
0
11
6.0
21
-115.0
31
0
0
LINE
8
0
6
CENTER
10
-40.0
20
-125.0
30
0
11
15.0
21
-125.0
31
0
0
LINE
8
0
6
CENTER
10
50.0
20
-15.0
30
0
11
50.0
21
35.0
31
0
0
ENDSEC
0
EOF