0
SECTION
2
HEADER
0
ENDSEC
0
SECTION
2
TABLES
0
TABLE
2
LTYPE
70
2
0
LTYPE
2
CONTINUOUS
70
0
3
Solid line
72
65
73
0
40
0.0
0
ENDTAB
0
TABLE
2
LAYER
70
1
0
LAYER
2
0
70
0
62
7
6
CONTINUOUS
0
ENDTAB
0
ENDSEC
0
SECTION
2
ENTITIES
0
LINE
8
0
6
CONTINUOUS
10
5.77
20
-10.0
30
0
11
5.77
21
0.0
31
0
0
LINE
8
0
6
CONTINUOUS
10
11.55
20
-10.0
30
0
11
11.55
21
0.0
31
0
0
LINE
8
0
6
CONTINUOUS
10
280.0
20
-10.0
30
0
11
0.0
21
-10.0
31
0
0
LINE
8
0
6
CONTINUOUS
10
280.0
20
-10.0
30
0
11
280.0
21
0.0
31
0
0
LINE
8
0
6
CONTINUOUS
10
0.0
20
-10.0
30
0
11
0.0
21
0.0
31
0
0
LINE
8
0
6
CONTINUOUS
10
0.0
20
0.0
30
0
11
280.0
21
0.0
31
0
0
LINE
8
0
6
CONTINUOUS
10
280.0
20
-10.0
30
0
11
280.0
21
0.0
31
0
0
LINE
8
0
6
CONTINUOUS
10
280.0
20
0.0
30
0
11
0.0
21
0.0
31
0
0
LINE
8
0
6
CONTINUOUS
10
0.0
20
0.0
30
0
11
0.0
21
-10.0
31
0
0
LINE
8
0
6
CONTINUOUS
10
0.0
20
-10.0
30
0
11
280.0
21
-10.0
31
0
0
LINE
8
0
6
CONTINUOUS
10
0.0
20
0.0
30
0
11
280.0
21
0.0
31
0
0
LINE
8
0
6
CONTINUOUS
10
0.0
20
-10.0
30
0
11
0.0
21
0.0
31
0
0
LINE
8
0
6
CONTINUOUS
10
280.0
20
-10.0
30
0
11
0.0
21
-10.0
31
0
0
LINE
8
0
6
CONTINUOUS
10
280.0
20
0.0
30
0
11
280.0
21
-10.0
31
0
0
LINE
8
0
6
CONTINUOUS
10
5.77
20
-10.0
30
0
11
5.77
21
0.0
31
0
0
LINE
8
0
6
CONTINUOUS
10
11.55
20
-0.0
30
0
11
0.0
21
-0.0
31
0
0
LINE
8
0
6
CONTINUOUS
10
11.55
20
-10.0
30
0
11
11.55
21
0.0
31
0
0
LINE
8
0
6
CONTINUOUS
10
0.0
20
-10.0
30
0
11
0.0
21
0.0
31
0
0
LINE
8
0
6
CONTINUOUS
10
0.0
20
-10.0
30
0
11
11.55
21
-10.0
31
0
0
LINE
8
0
6
CONTINUOUS
10
5.77
20
0.0
30
0
11
11.55
21
-10.0
31
0
0
LINE
8
0
6
CONTINUOUS
10
17.32
20
-10.0
30
0
11
17.32
21
0.0
31
0
0
LINE
8
0
6
CONTINUOUS
10
23.09
20
-0.0
30
0
11
11.55
21
-0.0
31
0
0
LINE
8
0
6
CONTINUOUS
10
23.09
20
-10.0
30
0
11
23.09
21
0.0
31
0
0
LINE
8
0
6
CONTINUOUS
10
11.55
20
-10.0
30
0
11
11.55
21
0.0
31
0
0
LINE
8
0
6
CONTINUOUS
10
11.55
20
-10.0
30
0
11
23.09
21
-10.0
31
0
0
LINE
8
0
6
CONTINUOUS
10
17.32
20
0.0
30
0
11
23.09
21
-10.0
31
0
0
LINE
8
0
6
CONTINUOUS
10
5.77
20
-10.0
30
0
11
5.77
21
0.0
31
0
0
LINE
8
0
6
CONTINUOUS
10
11.55
20
-0.0
30
0
11
0.0
21
-0.0
31
0
0
LINE
8
0
6
CONTINUOUS
10
11.55
20
-10.0
30
0
11
11.55
21
0.0
31
0
0
LINE
8
0
6
CONTINUOUS
10
0.0
20
-10.0
30
0
11
0.0
21
0.0
31
0
0
LINE
8
0
6
CONTINUOUS
10
0.0
20
-10.0
30
0
11
11.55
21
-10.0
31
0
0
LINE
8
0
6
CONTINUOUS
10
0.0
20
-10.0
30
0
11
5.77
21
0.0
31
0
0
LINE
8
0
6
CONTINUOUS
10
17.32
20
-10.0
30
0
11
17.32
21
0.0
31
0
0
LINE
8
0
6
CONTINUOUS
10
23.09
20
-0.0
30
0
11
11.55
21
-0.0
31
0
0
LINE
8
0
6
CONTINUOUS
10
23.09
20
-10.0
30
0
11
23.09
21
0.0
31
0
0
LINE
8
0
6
CONTINUOUS
10
11.55
20
-10.0
30
0
11
11.55
21
0.0
31
0
0
LINE
8
0
6
CONTINUOUS
10
11.55
20
-10.0
30
0
11
23.09
21
-10.0
31
0
0
LINE
8
0
6
CONTINUOUS
10
11.55
20
-10.0
30
0
11
17.32
21
0.0
31
0
0
LINE
8
0
6
CONTINUOUS
10
28.87
20
-10.0
30
0
11
28.87
21
0.0
31
0
0
LINE
8
0
6
CONTINUOUS
10
34.64
20
-0.0
30
0
11
23.09
21
-0.0
31
0
0
LINE
8
0
6
CONTINUOUS
10
34.64
20
-10.0
30
0
11
34.64
21
0.0
31
0
0
LINE
8
0
6
CONTINUOUS
10
23.09
20
-10.0
30
0
11
23.09
21
0.0
31
0
0
LINE
8
0
6
CONTINUOUS
10
23.09
20
-10.0
30
0
11
34.64
21
-10.0
31
0
0
LINE
8
0
6
CONTINUOUS
10
23.09
20
-10.0
30
0
11
28.87
21
0.0
31
0
0
LINE
8
0
6
CONTINUOUS
10
28.87
20
-10.0
30
0
11
28.87
21
0.0
31
0
0
LINE
8
0
6
CONTINUOUS
10
34.64
20
-0.0
30
0
11
23.09
21
-0.0
31
0
0
LINE
8
0
6
CONTINUOUS
10
34.64
20
-10.0
30
0
11
34.64
21
0.0
31
0
0
LINE
8
0
6
CONTINUOUS
10
23.09
20
-10.0
30
0
11
23.09
21
0.0
31
0
0
LINE
8
0
6
CONTINUOUS
10
23.09
20
-10.0
30
0
11
34.64
21
-10.0
31
0
0
LINE
8
0
6
CONTINUOUS
10
28.87
20
0.0
30
0
11
34.64
21
-10.0
31
0
0
LINE
8
0
6
CONTINUOUS
10
40.41
20
-10.0
30
0
11
40.41
21
0.0
31
0
0
LINE
8
0
6
CONTINUOUS
10
46.19
20
-0.0
30
0
11
34.64
21
-0.0
31
0
0
LINE
8
0
6
CONTINUOUS
10
46.19
20
-10.0
30
0
11
46.19
21
0.0
31
0
0
LINE
8
0
6
CONTINUOUS
10
34.64
20
-10.0
30
0
11
34.64
21
0.0
31
0
0
LINE
8
0
6
CONTINUOUS
10
34.64
20
-10.0
30
0
11
46.19
21
-10.0
31
0
0
LINE
8
0
6
CONTINUOUS
10
40.41
20
0.0
30
0
11
46.19
21
-10.0
31
0
0
LINE
8
0
6
CONTINUOUS
10
51.96
20
-10.0
30
0
11
51.96
21
0.0
31
0
0
LINE
8
0
6
CONTINUOUS
10
57.74
20
-0.0
30
0
11
46.19
21
-0.0
31
0
0
LINE
8
0
6
CONTINUOUS
10
57.74
20
-10.0
30
0
11
57.74
21
-0.0
31
0
0
LINE
8
0
6
CONTINUOUS
10
46.19
20
-10.0
30
0
11
46.19
21
0.0
31
0
0
LINE
8
0
6
CONTINUOUS
10
46.19
20
-10.0
30
0
11
57.74
21
-10.0
31
0
0
LINE
8
0
6
CONTINUOUS
10
51.96
20
0.0
30
0
11
57.74
21
-10.0
31
0
0
LINE
8
0
6
CONTINUOUS
10
63.51
20
-10.0
30
0
11
63.51
21
-0.0
31
0
0
LINE
8
0
6
CONTINUOUS
10
69.28
20
-0.0
30
0
11
57.74
21
-0.0
31
0
0
LINE
8
0
6
CONTINUOUS
10
69.28
20
-10.0
30
0
11
69.28
21
-0.0
31
0
0
LINE
8
0
6
CONTINUOUS
10
57.74
20
-10.0
30
0
11
57.74
21
-0.0
31
0
0
LINE
8
0
6
CONTINUOUS
10
57.74
20
-10.0
30
0
11
69.28
21
-10.0
31
0
0
LINE
8
0
6
CONTINUOUS
10
63.51
20
-0.0
30
0
11
69.28
21
-10.0
31
0
0
LINE
8
0
6
CONTINUOUS
10
75.06
20
-10.0
30
0
11
75.06
21
-0.0
31
0
0
LINE
8
0
6
CONTINUOUS
10
80.83
20
-0.0
30
0
11
69.28
21
-0.0
31
0
0
LINE
8
0
6
CONTINUOUS
10
80.83
20
-10.0
30
0
11
80.83
21
-0.0
31
0
0
LINE
8
0
6
CONTINUOUS
10
69.28
20
-10.0
30
0
11
69.28
21
-0.0
31
0
0
LINE
8
0
6
CONTINUOUS
10
69.28
20
-10.0
30
0
11
80.83
21
-10.0
31
0
0
LINE
8
0
6
CONTINUOUS
10
75.06
20
-0.0
30
0
11
80.83
21
-10.0
31
0
0
LINE
8
0
6
CONTINUOUS
10
86.6
20
-10.0
30
0
11
86.6
21
-0.0
31
0
0
LINE
8
0
6
CONTINUOUS
10
92.38
20
-0.0
30
0
11
80.83
21
-0.0
31
0
0
LINE
8
0
6
CONTINUOUS
10
92.38
20
-10.0
30
0
11
92.38
21
-0.0
31
0
0
LINE
8
0
6
CONTINUOUS
10
80.83
20
-10.0
30
0
11
80.83
21
-0.0
31
0
0
LINE
8
0
6
CONTINUOUS
10
80.83
20
-10.0
30
0
11
92.38
21
-10.0
31
0
0
LINE
8
0
6
CONTINUOUS
10
86.6
20
-0.0
30
0
11
92.38
21
-10.0
31
0
0
LINE
8
0
6
CONTINUOUS
10
40.41
20
-10.0
30
0
11
40.41
21
0.0
31
0
0
LINE
8
0
6
CONTINUOUS
10
46.19
20
-0.0
30
0
11
34.64
21
-0.0
31
0
0
LINE
8
0
6
CONTINUOUS
10
46.19
20
-10.0
30
0
11
46.19
21
0.0
31
0
0
LINE
8
0
6
CONTINUOUS
10
34.64
20
-10.0
30
0
11
34.64
21
0.0
31
0
0
LINE
8
0
6
CONTINUOUS
10
34.64
20
-10.0
30
0
11
46.19
21
-10.0
31
0
0
LINE
8
0
6
CONTINUOUS
10
34.64
20
-10.0
30
0
11
40.41
21
0.0
31
0
0
LINE
8
0
6
CONTINUOUS
10
51.96
20
-10.0
30
0
11
51.96
21
0.0
31
0
0
LINE
8
0
6
CONTINUOUS
10
57.74
20
-0.0
30
0
11
46.19
21
-0.0
31
0
0
LINE
8
0
6
CONTINUOUS
10
57.74
20
-10.0
30
0
11
57.74
21
-0.0
31
0
0
LINE
8
0
6
CONTINUOUS
10
46.19
20
-10.0
30
0
11
46.19
21
0.0
31
0
0
LINE
8
0
6
CONTINUOUS
10
46.19
20
-10.0
30
0
11
57.74
21
-10.0
31
0
0
LINE
8
0
6
CONTINUOUS
10
46.19
20
-10.0
30
0
11
51.96
21
0.0
31
0
0
LINE
8
0
6
CONTINUOUS
10
63.51
20
-10.0
30
0
11
63.51
21
-0.0
31
0
0
LINE
8
0
6
CONTINUOUS
10
69.28
20
-0.0
30
0
11
57.74
21
-0.0
31
0
0
LINE
8
0
6
CONTINUOUS
10
69.28
20
-10.0
30
0
11
69.28
21
-0.0
31
0
0
LINE
8
0
6
CONTINUOUS
10
57.74
20
-10.0
30
0
11
57.74
21
-0.0
31
0
0
LINE
8
0
6
CONTINUOUS
10
57.74
20
-10.0
30
0
11
69.28
21
-10.0
31
0
0
LINE
8
0
6
CONTINUOUS
10
57.74
20
-10.0
30
0
11
63.51
21
-0.0
31
0
0
LINE
8
0
6
CONTINUOUS
10
75.06
20
-10.0
30
0
11
75.06
21
-0.0
31
0
0
LINE
8
0
6
CONTINUOUS
10
80.83
20
-0.0
30
0
11
69.28
21
-0.0
31
0
0
LINE
8
0
6
CONTINUOUS
10
80.83
20
-10.0
30
0
11
80.83
21
-0.0
31
0
0
LINE
8
0
6
CONTINUOUS
10
69.28
20
-10.0
30
0
11
69.28
21
-0.0
31
0
0
LINE
8
0
6
CONTINUOUS
10
69.28
20
-10.0
30
0
11
80.83
21
-10.0
31
0
0
LINE
8
0
6
CONTINUOUS
10
69.28
20
-10.0
30
0
11
75.06
21
-0.0
31
0
0
LINE
8
0
6
CONTINUOUS
10
86.6
20
-10.0
30
0
11
86.6
21
-0.0
31
0
0
LINE
8
0
6
CONTINUOUS
10
92.38
20
-0.0
30
0
11
80.83
21
-0.0
31
0
0
LINE
8
0
6
CONTINUOUS
10
92.38
20
-10.0
30
0
11
92.38
21
-0.0
31
0
0
LINE
8
0
6
CONTINUOUS
10
80.83
20
-10.0
30
0
11
80.83
21
-0.0
31
0
0
LINE
8
0
6
CONTINUOUS
10
80.83
20
-10.0
30
0
11
92.38
21
-10.0
31
0
0
LINE
8
0
6
CONTINUOUS
10
80.83
20
-10.0
30
0
11
86.6
21
-0.0
31
0
0
LINE
8
0
6
CONTINUOUS
10
98.15
20
-10.0
30
0
11
98.15
21
-0.0
31
0
0
LINE
8
0
6
CONTINUOUS
10
103.92
20
-0.0
30
0
11
92.38
21
-0.0
31
0
0
LINE
8
0
6
CONTINUOUS
10
103.92
20
-10.0
30
0
11
103.92
21
-0.0
31
0
0
LINE
8
0
6
CONTINUOUS
10
92.38
20
-10.0
30
0
11
92.38
21
-0.0
31
0
0
LINE
8
0
6
CONTINUOUS
10
92.38
20
-10.0
30
0
11
103.92
21
-10.0
31
0
0
LINE
8
0
6
CONTINUOUS
10
92.38
20
-10.0
30
0
11
98.15
21
-0.0
31
0
0
LINE
8
0
6
CONTINUOUS
10
280.0
20
-10.0
30
0
11
280.0
21
-5.03
31
0
0
LINE
8
0
6
CONTINUOUS
10
277.13
20
-10.0
30
0
11
277.13
21
-5.03
31
0
0
LINE
8
0
6
CONTINUOUS
10
277.13
20
-10.0
30
0
11
280.0
21
-10.0
31
0
0
LINE
8
0
6
CONTINUOUS
10
280.0
20
-10.0
30
0
11
277.13
21
-10.0
31
0
0
LINE
8
0
6
CONTINUOUS
10
280.0
20
-10.0
30
0
11
280.0
21
-5.03
31
0
0
LINE
8
0
6
CONTINUOUS
10
280.0
20
-5.03
30
0
11
277.13
21
-10.0
31
0
0
LINE
8
0
6
CONTINUOUS
10
98.15
20
-10.0
30
0
11
98.15
21
0.0
31
0
0
LINE
8
0
6
CONTINUOUS
10
103.92
20
-0.0
30
0
11
92.38
21
-0.0
31
0
0
LINE
8
0
6
CONTINUOUS
10
103.92
20
-10.0
30
0
11
103.92
21
0.0
31
0
0
LINE
8
0
6
CONTINUOUS
10
92.38
20
-10.0
30
0
11
92.38
21
0.0
31
0
0
LINE
8
0
6
CONTINUOUS
10
92.38
20
-10.0
30
0
11
103.92
21
-10.0
31
0
0
LINE
8
0
6
CONTINUOUS
10
98.15
20
0.0
30
0
11
103.92
21
-10.0
31
0
0
LINE
8
0
6
CONTINUOUS
10
109.7
20
-10.0
30
0
11
109.7
21
0.0
31
0
0
LINE
8
0
6
CONTINUOUS
10
115.47
20
-0.0
30
0
11
103.92
21
-0.0
31
0
0
LINE
8
0
6
CONTINUOUS
10
115.47
20
-10.0
30
0
11
115.47
21
0.0
31
0
0
LINE
8
0
6
CONTINUOUS
10
103.92
20
-10.0
30
0
11
103.92
21
0.0
31
0
0
LINE
8
0
6
CONTINUOUS
10
103.92
20
-10.0
30
0
11
115.47
21
-10.0
31
0
0
LINE
8
0
6
CONTINUOUS
10
109.7
20
0.0
30
0
11
115.47
21
-10.0
31
0
0
LINE
8
0
6
CONTINUOUS
10
121.24
20
-10.0
30
0
11
121.24
21
0.0
31
0
0
LINE
8
0
6
CONTINUOUS
10
127.02
20
-0.0
30
0
11
115.47
21
-0.0
31
0
0
LINE
8
0
6
CONTINUOUS
10
127.02
20
-10.0
30
0
11
127.02
21
0.0
31
0
0
LINE
8
0
6
CONTINUOUS
10
115.47
20
-10.0
30
0
11
115.47
21
0.0
31
0
0
LINE
8
0
6
CONTINUOUS
10
115.47
20
-10.0
30
0
11
127.02
21
-10.0
31
0
0
LINE
8
0
6
CONTINUOUS
10
121.24
20
0.0
30
0
11
127.02
21
-10.0
31
0
0
LINE
8
0
6
CONTINUOUS
10
132.79
20
-10.0
30
0
11
132.79
21
0.0
31
0
0
LINE
8
0
6
CONTINUOUS
10
138.56
20
-0.0
30
0
11
127.02
21
-0.0
31
0
0
LINE
8
0
6
CONTINUOUS
10
138.56
20
-10.0
30
0
11
138.56
21
0.0
31
0
0
LINE
8
0
6
CONTINUOUS
10
127.02
20
-10.0
30
0
11
127.02
21
0.0
31
0
0
LINE
8
0
6
CONTINUOUS
10
127.02
20
-10.0
30
0
11
138.56
21
-10.0
31
0
0
LINE
8
0
6
CONTINUOUS
10
132.79
20
0.0
30
0
11
138.56
21
-10.0
31
0
0
LINE
8
0
6
CONTINUOUS
10
144.34
20
-10.0
30
0
11
144.34
21
0.0
31
0
0
LINE
8
0
6
CONTINUOUS
10
150.11
20
-0.0
30
0
11
138.56
21
-0.0
31
0
0
LINE
8
0
6
CONTINUOUS
10
150.11
20
-10.0
30
0
11
150.11
21
0.0
31
0
0
LINE
8
0
6
CONTINUOUS
10
138.56
20
-10.0
30
0
11
138.56
21
0.0
31
0
0
LINE
8
0
6
CONTINUOUS
10
138.56
20
-10.0
30
0
11
150.11
21
-10.0
31
0
0
LINE
8
0
6
CONTINUOUS
10
144.34
20
0.0
30
0
11
150.11
21
-10.0
31
0
0
LINE
8
0
6
CONTINUOUS
10
155.88
20
-10.0
30
0
11
155.88
21
0.0
31
0
0
LINE
8
0
6
CONTINUOUS
10
161.66
20
-0.0
30
0
11
150.11
21
-0.0
31
0
0
LINE
8
0
6
CONTINUOUS
10
161.66
20
-10.0
30
0
11
161.66
21
0.0
31
0
0
LINE
8
0
6
CONTINUOUS
10
150.11
20
-10.0
30
0
11
150.11
21
0.0
31
0
0
LINE
8
0
6
CONTINUOUS
10
150.11
20
-10.0
30
0
11
161.66
21
-10.0
31
0
0
LINE
8
0
6
CONTINUOUS
10
155.88
20
0.0
30
0
11
161.66
21
-10.0
31
0
0
LINE
8
0
6
CONTINUOUS
10
167.43
20
-10.0
30
0
11
167.43
21
0.0
31
0
0
LINE
8
0
6
CONTINUOUS
10
173.21
20
-0.0
30
0
11
161.66
21
-0.0
31
0
0
LINE
8
0
6
CONTINUOUS
10
173.21
20
-10.0
30
0
11
173.21
21
0.0
31
0
0
LINE
8
0
6
CONTINUOUS
10
161.66
20
-10.0
30
0
11
161.66
21
0.0
31
0
0
LINE
8
0
6
CONTINUOUS
10
161.66
20
-10.0
30
0
11
173.21
21
-10.0
31
0
0
LINE
8
0
6
CONTINUOUS
10
167.43
20
0.0
30
0
11
173.21
21
-10.0
31
0
0
LINE
8
0
6
CONTINUOUS
10
178.98
20
-10.0
30
0
11
178.98
21
0.0
31
0
0
LINE
8
0
6
CONTINUOUS
10
184.75
20
-0.0
30
0
11
173.21
21
-0.0
31
0
0
LINE
8
0
6
CONTINUOUS
10
184.75
20
-10.0
30
0
11
184.75
21
0.0
31
0
0
LINE
8
0
6
CONTINUOUS
10
173.21
20
-10.0
30
0
11
173.21
21
0.0
31
0
0
LINE
8
0
6
CONTINUOUS
10
173.21
20
-10.0
30
0
11
184.75
21
-10.0
31
0
0
LINE
8
0
6
CONTINUOUS
10
178.98
20
0.0
30
0
11
184.75
21
-10.0
31
0
0
LINE
8
0
6
CONTINUOUS
10
190.53
20
-10.0
30
0
11
190.53
21
0.0
31
0
0
LINE
8
0
6
CONTINUOUS
10
196.3
20
-0.0
30
0
11
184.75
21
-0.0
31
0
0
LINE
8
0
6
CONTINUOUS
10
196.3
20
-10.0
30
0
11
196.3
21
0.0
31
0
0
LINE
8
0
6
CONTINUOUS
10
184.75
20
-10.0
30
0
11
184.75
21
0.0
31
0
0
LINE
8
0
6
CONTINUOUS
10
184.75
20
-10.0
30
0
11
196.3
21
-10.0
31
0
0
LINE
8
0
6
CONTINUOUS
10
190.53
20
0.0
30
0
11
196.3
21
-10.0
31
0
0
LINE
8
0
6
CONTINUOUS
10
202.07
20
-10.0
30
0
11
202.07
21
0.0
31
0
0
LINE
8
0
6
CONTINUOUS
10
207.85
20
-0.0
30
0
11
196.3
21
-0.0
31
0
0
LINE
8
0
6
CONTINUOUS
10
207.85
20
-10.0
30
0
11
207.85
21
0.0
31
0
0
LINE
8
0
6
CONTINUOUS
10
196.3
20
-10.0
30
0
11
196.3
21
0.0
31
0
0
LINE
8
0
6
CONTINUOUS
10
196.3
20
-10.0
30
0
11
207.85
21
-10.0
31
0
0
LINE
8
0
6
CONTINUOUS
10
202.07
20
0.0
30
0
11
207.85
21
-10.0
31
0
0
LINE
8
0
6
CONTINUOUS
10
213.62
20
-10.0
30
0
11
213.62
21
0.0
31
0
0
LINE
8
0
6
CONTINUOUS
10
219.39
20
-0.0
30
0
11
207.85
21
-0.0
31
0
0
LINE
8
0
6
CONTINUOUS
10
219.39
20
-10.0
30
0
11
219.39
21
0.0
31
0
0
LINE
8
0
6
CONTINUOUS
10
207.85
20
-10.0
30
0
11
207.85
21
0.0
31
0
0
LINE
8
0
6
CONTINUOUS
10
207.85
20
-10.0
30
0
11
219.39
21
-10.0
31
0
0
LINE
8
0
6
CONTINUOUS
10
213.62
20
0.0
30
0
11
219.39
21
-10.0
31
0
0
LINE
8
0
6
CONTINUOUS
10
225.17
20
-10.0
30
0
11
225.17
21
0.0
31
0
0
LINE
8
0
6
CONTINUOUS
10
230.94
20
-0.0
30
0
11
219.39
21
-0.0
31
0
0
LINE
8
0
6
CONTINUOUS
10
230.94
20
-10.0
30
0
11
230.94
21
0.0
31
0
0
LINE
8
0
6
CONTINUOUS
10
219.39
20
-10.0
30
0
11
219.39
21
0.0
31
0
0
LINE
8
0
6
CONTINUOUS
10
219.39
20
-10.0
30
0
11
230.94
21
-10.0
31
0
0
LINE
8
0
6
CONTINUOUS
10
225.17
20
0.0
30
0
11
230.94
21
-10.0
31
0
0
LINE
8
0
6
CONTINUOUS
10
236.71
20
-10.0
30
0
11
236.71
21
0.0
31
0
0
LINE
8
0
6
CONTINUOUS
10
242.49
20
-0.0
30
0
11
230.94
21
-0.0
31
0
0
LINE
8
0
6
CONTINUOUS
10
242.49
20
-10.0
30
0
11
242.49
21
0.0
31
0
0
LINE
8
0
6
CONTINUOUS
10
230.94
20
-10.0
30
0
11
230.94
21
0.0
31
0
0
LINE
8
0
6
CONTINUOUS
10
230.94
20
-10.0
30
0
11
242.49
21
-10.0
31
0
0
LINE
8
0
6
CONTINUOUS
10
236.71
20
0.0
30
0
11
242.49
21
-10.0
31
0
0
LINE
8
0
6
CONTINUOUS
10
248.26
20
-10.0
30
0
11
248.26
21
0.0
31
0
0
LINE
8
0
6
CONTINUOUS
10
254.03
20
-0.0
30
0
11
242.49
21
-0.0
31
0
0
LINE
8
0
6
CONTINUOUS
10
254.03
20
-10.0
30
0
11
254.03
21
0.0
31
0
0
LINE
8
0
6
CONTINUOUS
10
242.49
20
-10.0
30
0
11
242.49
21
0.0
31
0
0
LINE
8
0
6
CONTINUOUS
10
242.49
20
-10.0
30
0
11
254.03
21
-10.0
31
0
0
LINE
8
0
6
CONTINUOUS
10
248.26
20
0.0
30
0
11
254.03
21
-10.0
31
0
0
LINE
8
0
6
CONTINUOUS
10
259.81
20
-10.0
30
0
11
259.81
21
0.0
31
0
0
LINE
8
0
6
CONTINUOUS
10
265.58
20
-0.0
30
0
11
254.03
21
-0.0
31
0
0
LINE
8
0
6
CONTINUOUS
10
265.58
20
-10.0
30
0
11
265.58
21
0.0
31
0
0
LINE
8
0
6
CONTINUOUS
10
254.03
20
-10.0
30
0
11
254.03
21
0.0
31
0
0
LINE
8
0
6
CONTINUOUS
10
254.03
20
-10.0
30
0
11
265.58
21
-10.0
31
0
0
LINE
8
0
6
CONTINUOUS
10
259.81
20
0.0
30
0
11
265.58
21
-10.0
31
0
0
LINE
8
0
6
CONTINUOUS
10
271.35
20
-10.0
30
0
11
271.35
21
0.0
31
0
0
LINE
8
0
6
CONTINUOUS
10
277.13
20
-0.0
30
0
11
265.58
21
-0.0
31
0
0
LINE
8
0
6
CONTINUOUS
10
277.13
20
-10.0
30
0
11
277.13
21
0.0
31
0
0
LINE
8
0
6
CONTINUOUS
10
265.58
20
-10.0
30
0
11
265.58
21
0.0
31
0
0
LINE
8
0
6
CONTINUOUS
10
265.58
20
-10.0
30
0
11
277.13
21
-10.0
31
0
0
LINE
8
0
6
CONTINUOUS
10
271.35
20
0.0
30
0
11
277.13
21
-10.0
31
0
0
LINE
8
0
6
CONTINUOUS
10
109.7
20
-10.0
30
0
11
109.7
21
0.0
31
0
0
LINE
8
0
6
CONTINUOUS
10
115.47
20
-0.0
30
0
11
103.92
21
-0.0
31
0
0
LINE
8
0
6
CONTINUOUS
10
115.47
20
-10.0
30
0
11
115.47
21
0.0
31
0
0
LINE
8
0
6
CONTINUOUS
10
103.92
20
-10.0
30
0
11
103.92
21
0.0
31
0
0
LINE
8
0
6
CONTINUOUS
10
103.92
20
-10.0
30
0
11
115.47
21
-10.0
31
0
0
LINE
8
0
6
CONTINUOUS
10
103.92
20
-10.0
30
0
11
109.7
21
0.0
31
0
0
LINE
8
0
6
CONTINUOUS
10
121.24
20
-10.0
30
0
11
121.24
21
0.0
31
0
0
LINE
8
0
6
CONTINUOUS
10
127.02
20
-0.0
30
0
11
115.47
21
-0.0
31
0
0
LINE
8
0
6
CONTINUOUS
10
127.02
20
-10.0
30
0
11
127.02
21
0.0
31
0
0
LINE
8
0
6
CONTINUOUS
10
115.47
20
-10.0
30
0
11
115.47
21
0.0
31
0
0
LINE
8
0
6
CONTINUOUS
10
115.47
20
-10.0
30
0
11
127.02
21
-10.0
31
0
0
LINE
8
0
6
CONTINUOUS
10
115.47
20
-10.0
30
0
11
121.24
21
0.0
31
0
0
LINE
8
0
6
CONTINUOUS
10
132.79
20
-10.0
30
0
11
132.79
21
0.0
31
0
0
LINE
8
0
6
CONTINUOUS
10
138.56
20
-0.0
30
0
11
127.02
21
-0.0
31
0
0
LINE
8
0
6
CONTINUOUS
10
138.56
20
-10.0
30
0
11
138.56
21
0.0
31
0
0
LINE
8
0
6
CONTINUOUS
10
127.02
20
-10.0
30
0
11
127.02
21
0.0
31
0
0
LINE
8
0
6
CONTINUOUS
10
127.02
20
-10.0
30
0
11
138.56
21
-10.0
31
0
0
LINE
8
0
6
CONTINUOUS
10
127.02
20
-10.0
30
0
11
132.79
21
0.0
31
0
0
LINE
8
0
6
CONTINUOUS
10
144.34
20
-10.0
30
0
11
144.34
21
0.0
31
0
0
LINE
8
0
6
CONTINUOUS
10
150.11
20
-0.0
30
0
11
138.56
21
-0.0
31
0
0
LINE
8
0
6
CONTINUOUS
10
150.11
20
-10.0
30
0
11
150.11
21
0.0
31
0
0
LINE
8
0
6
CONTINUOUS
10
138.56
20
-10.0
30
0
11
138.56
21
0.0
31
0
0
LINE
8
0
6
CONTINUOUS
10
138.56
20
-10.0
30
0
11
150.11
21
-10.0
31
0
0
LINE
8
0
6
CONTINUOUS
10
138.56
20
-10.0
30
0
11
144.34
21
0.0
31
0
0
LINE
8
0
6
CONTINUOUS
10
155.88
20
-10.0
30
0
11
155.88
21
0.0
31
0
0
LINE
8
0
6
CONTINUOUS
10
161.66
20
-0.0
30
0
11
150.11
21
-0.0
31
0
0
LINE
8
0
6
CONTINUOUS
10
161.66
20
-10.0
30
0
11
161.66
21
0.0
31
0
0
LINE
8
0
6
CONTINUOUS
10
150.11
20
-10.0
30
0
11
150.11
21
0.0
31
0
0
LINE
8
0
6
CONTINUOUS
10
150.11
20
-10.0
30
0
11
161.66
21
-10.0
31
0
0
LINE
8
0
6
CONTINUOUS
10
150.11
20
-10.0
30
0
11
155.88
21
0.0
31
0
0
LINE
8
0
6
CONTINUOUS
10
167.43
20
-10.0
30
0
11
167.43
21
0.0
31
0
0
LINE
8
0
6
CONTINUOUS
10
173.21
20
-0.0
30
0
11
161.66
21
-0.0
31
0
0
LINE
8
0
6
CONTINUOUS
10
173.21
20
-10.0
30
0
11
173.21
21
0.0
31
0
0
LINE
8
0
6
CONTINUOUS
10
161.66
20
-10.0
30
0
11
161.66
21
0.0
31
0
0
LINE
8
0
6
CONTINUOUS
10
161.66
20
-10.0
30
0
11
173.21
21
-10.0
31
0
0
LINE
8
0
6
CONTINUOUS
10
161.66
20
-10.0
30
0
11
167.43
21
0.0
31
0
0
LINE
8
0
6
CONTINUOUS
10
178.98
20
-10.0
30
0
11
178.98
21
0.0
31
0
0
LINE
8
0
6
CONTINUOUS
10
184.75
20
-0.0
30
0
11
173.21
21
-0.0
31
0
0
LINE
8
0
6
CONTINUOUS
10
184.75
20
-10.0
30
0
11
184.75
21
0.0
31
0
0
LINE
8
0
6
CONTINUOUS
10
173.21
20
-10.0
30
0
11
173.21
21
0.0
31
0
0
LINE
8
0
6
CONTINUOUS
10
173.21
20
-10.0
30
0
11
184.75
21
-10.0
31
0
0
LINE
8
0
6
CONTINUOUS
10
173.21
20
-10.0
30
0
11
178.98
21
0.0
31
0
0
LINE
8
0
6
CONTINUOUS
10
190.53
20
-10.0
30
0
11
190.53
21
0.0
31
0
0
LINE
8
0
6
CONTINUOUS
10
196.3
20
-0.0
30
0
11
184.75
21
-0.0
31
0
0
LINE
8
0
6
CONTINUOUS
10
196.3
20
-10.0
30
0
11
196.3
21
0.0
31
0
0
LINE
8
0
6
CONTINUOUS
10
184.75
20
-10.0
30
0
11
184.75
21
0.0
31
0
0
LINE
8
0
6
CONTINUOUS
10
184.75
20
-10.0
30
0
11
196.3
21
-10.0
31
0
0
LINE
8
0
6
CONTINUOUS
10
184.75
20
-10.0
30
0
11
190.53
21
0.0
31
0
0
LINE
8
0
6
CONTINUOUS
10
202.07
20
-10.0
30
0
11
202.07
21
0.0
31
0
0
LINE
8
0
6
CONTINUOUS
10
207.85
20
-0.0
30
0
11
196.3
21
-0.0
31
0
0
LINE
8
0
6
CONTINUOUS
10
207.85
20
-10.0
30
0
11
207.85
21
0.0
31
0
0
LINE
8
0
6
CONTINUOUS
10
196.3
20
-10.0
30
0
11
196.3
21
0.0
31
0
0
LINE
8
0
6
CONTINUOUS
10
196.3
20
-10.0
30
0
11
207.85
21
-10.0
31
0
0
LINE
8
0
6
CONTINUOUS
10
196.3
20
-10.0
30
0
11
202.07
21
0.0
31
0
0
LINE
8
0
6
CONTINUOUS
10
213.62
20
-10.0
30
0
11
213.62
21
0.0
31
0
0
LINE
8
0
6
CONTINUOUS
10
219.39
20
-0.0
30
0
11
207.85
21
-0.0
31
0
0
LINE
8
0
6
CONTINUOUS
10
219.39
20
-10.0
30
0
11
219.39
21
0.0
31
0
0
LINE
8
0
6
CONTINUOUS
10
207.85
20
-10.0
30
0
11
207.85
21
0.0
31
0
0
LINE
8
0
6
CONTINUOUS
10
207.85
20
-10.0
30
0
11
219.39
21
-10.0
31
0
0
LINE
8
0
6
CONTINUOUS
10
207.85
20
-10.0
30
0
11
213.62
21
0.0
31
0
0
LINE
8
0
6
CONTINUOUS
10
225.17
20
-10.0
30
0
11
225.17
21
0.0
31
0
0
LINE
8
0
6
CONTINUOUS
10
230.94
20
-0.0
30
0
11
219.39
21
-0.0
31
0
0
LINE
8
0
6
CONTINUOUS
10
230.94
20
-10.0
30
0
11
230.94
21
0.0
31
0
0
LINE
8
0
6
CONTINUOUS
10
219.39
20
-10.0
30
0
11
219.39
21
0.0
31
0
0
LINE
8
0
6
CONTINUOUS
10
219.39
20
-10.0
30
0
11
230.94
21
-10.0
31
0
0
LINE
8
0
6
CONTINUOUS
10
219.39
20
-10.0
30
0
11
225.17
21
0.0
31
0
0
LINE
8
0
6
CONTINUOUS
10
236.71
20
-10.0
30
0
11
236.71
21
0.0
31
0
0
LINE
8
0
6
CONTINUOUS
10
242.49
20
-0.0
30
0
11
230.94
21
-0.0
31
0
0
LINE
8
0
6
CONTINUOUS
10
242.49
20
-10.0
30
0
11
242.49
21
0.0
31
0
0
LINE
8
0
6
CONTINUOUS
10
230.94
20
-10.0
30
0
11
230.94
21
0.0
31
0
0
LINE
8
0
6
CONTINUOUS
10
230.94
20
-10.0
30
0
11
242.49
21
-10.0
31
0
0
LINE
8
0
6
CONTINUOUS
10
230.94
20
-10.0
30
0
11
236.71
21
0.0
31
0
0
LINE
8
0
6
CONTINUOUS
10
248.26
20
-10.0
30
0
11
248.26
21
0.0
31
0
0
LINE
8
0
6
CONTINUOUS
10
254.03
20
-0.0
30
0
11
242.49
21
-0.0
31
0
0
LINE
8
0
6
CONTINUOUS
10
254.03
20
-10.0
30
0
11
254.03
21
0.0
31
0
0
LINE
8
0
6
CONTINUOUS
10
242.49
20
-10.0
30
0
11
242.49
21
0.0
31
0
0
LINE
8
0
6
CONTINUOUS
10
242.49
20
-10.0
30
0
11
254.03
21
-10.0
31
0
0
LINE
8
0
6
CONTINUOUS
10
242.49
20
-10.0
30
0
11
248.26
21
0.0
31
0
0
LINE
8
0
6
CONTINUOUS
10
259.81
20
-10.0
30
0
11
259.81
21
0.0
31
0
0
LINE
8
0
6
CONTINUOUS
10
265.58
20
-0.0
30
0
11
254.03
21
-0.0
31
0
0
LINE
8
0
6
CONTINUOUS
10
265.58
20
-10.0
30
0
11
265.58
21
0.0
31
0
0
LINE
8
0
6
CONTINUOUS
10
254.03
20
-10.0
30
0
11
254.03
21
0.0
31
0
0
LINE
8
0
6
CONTINUOUS
10
254.03
20
-10.0
30
0
11
265.58
21
-10.0
31
0
0
LINE
8
0
6
CONTINUOUS
10
254.03
20
-10.0
30
0
11
259.81
21
0.0
31
0
0
LINE
8
0
6
CONTINUOUS
10
271.35
20
-10.0
30
0
11
271.35
21
0.0
31
0
0
LINE
8
0
6
CONTINUOUS
10
277.13
20
-0.0
30
0
11
265.58
21
-0.0
31
0
0
LINE
8
0
6
CONTINUOUS
10
277.13
20
-10.0
30
0
11
277.13
21
0.0
31
0
0
LINE
8
0
6
CONTINUOUS
10
265.58
20
-10.0
30
0
11
265.58
21
0.0
31
0
0
LINE
8
0
6
CONTINUOUS
10
265.58
20
-10.0
30
0
11
277.13
21
-10.0
31
0
0
LINE
8
0
6
CONTINUOUS
10
265.58
20
-10.0
30
0
11
271.35
21
0.0
31
0
0
ENDSEC
0
EOF