0
SECTION
2
HEADER
0
ENDSEC
0
SECTION
2
TABLES
0
TABLE
2
LTYPE
70
4
0
LTYPE
2
CONTINUOUS
70
0
3
Solid line
72
65
73
0
40
0.0
0
LTYPE
2
HIDDEN
70
0
3
hidden
72
65
73
2
40
9.524999999999999
49
6.35
49
-3.175
0
LTYPE
2
CENTER
70
0
3
center
72
65
73
4
40
28.575
49
12.7
49
-6.35
49
3.175
49
-6.35
0
ENDTAB
0
TABLE
2
LAYER
70
1
0
LAYER
2
0
70
0
62
7
6
CONTINUOUS
0
ENDTAB
0
ENDSEC
0
SECTION
2
ENTITIES
0
LINE
8
0
6
CONTINUOUS
10
218.0
20
30.0
30
0
11
-79.0
21
30.0
31
0
0
LINE
8
0
6
CONTINUOUS
10
218.0
20
180.0
30
0
11
-79.0
21
180.0
31
0
0
LINE
8
0
6
CONTINUOUS
10
150.0
20
-5.0
30
0
11
150.0
21
238.5
31
0
0
LINE
8
0
6
CONTINUOUS
10
218.0
20
-1.0
30
0
11
-79.0
21
-1.0
31
0
0
LINE
8
0
6
CONTINUOUS
10
10.0
20
-5.0
30
0
11
10.0
21
238.5
31
0
0
LINE
8
0
6
CONTINUOUS
10
0.0
20
-5.0
30
0
11
0.0
21
238.5
31
0
0
LINE
8
0
6
CONTINUOUS
10
-79.0
20
0.0
30
0
11
218.0
21
0.0
31
0
0
ARC
8
0
6
CONTINUOUS
10
7.0
20
2.0
30
0
40
3.0
50
270.0
51
0.0
0
LINE
8
0
6
CONTINUOUS
10
7.0
20
-1.0
30
0
11
-79.0
21
-1.0
31
0
0
LINE
8
0
6
CONTINUOUS
10
-79.0
20
-1.0
30
0
11
-79.0
21
-5.0
31
0
0
LINE
8
0
6
CONTINUOUS
10
-79.0
20
-5.0
30
0
11
7.0
21
-5.0
31
0
0
ARC
8
0
6
CONTINUOUS
10
7.0
20
2.0000000000000004
30
0
40
7.0
50
270.0
51
360.0
0
LINE
8
0
6
CONTINUOUS
10
14.0
20
2.0
30
0
11
14.0
21
60.0
31
0
0
LINE
8
0
6
CONTINUOUS
10
14.0
20
60.0
30
0
11
10.0
21
60.0
31
0
0
LINE
8
0
6
CONTINUOUS
10
10.0
20
60.0
30
0
11
10.0
21
2.0
31
0
0
LINE
8
0
6
HIDDEN
10
103.0
20
131.0
30
0
11
103.0
21
229.5
31
0
0
LINE
8
0
6
HIDDEN
10
103.0
20
229.5
30
0
11
107.0
21
229.5
31
0
0
LINE
8
0
6
HIDDEN
10
107.0
20
229.5
30
0
11
107.0
21
238.5
31
0
0
LINE
8
0
6
HIDDEN
10
107.0
20
238.5
30
0
11
150.0
21
238.5
31
0
0
LINE
8
0
6
HIDDEN
10
150.0
20
238.5
30
0
11
150.0
21
229.5
31
0
0
LINE
8
0
6
HIDDEN
10
150.0
20
229.5
30
0
11
146.0
21
229.5
31
0
0
LINE
8
0
6
HIDDEN
10
146.0
20
229.5
30
0
11
146.0
21
228.5
31
0
0
LINE
8
0
6
HIDDEN
10
146.0
20
228.5
30
0
11
138.5
21
228.5
31
0
0
LINE
8
0
6
HIDDEN
10
138.5
20
228.5
30
0
11
138.5
21
221.5
31
0
0
LINE
8
0
6
HIDDEN
10
138.5
20
221.5
30
0
11
146.0
21
221.5
31
0
0
LINE
8
0
6
HIDDEN
10
146.0
20
221.5
30
0
11
146.0
21
214.5
31
0
0
LINE
8
0
6
HIDDEN
10
146.0
20
214.5
30
0
11
138.5
21
214.5
31
0
0
LINE
8
0
6
HIDDEN
10
138.5
20
214.5
30
0
11
138.5
21
207.5
31
0
0
LINE
8
0
6
HIDDEN
10
138.5
20
207.5
30
0
11
146.0
21
207.5
31
0
0
LINE
8
0
6
HIDDEN
10
146.0
20
207.5
30
0
11
146.0
21
200.5
31
0
0
LINE
8
0
6
HIDDEN
10
146.0
20
200.5
30
0
11
138.5
21
200.5
31
0
0
LINE
8
0
6
HIDDEN
10
138.5
20
200.5
30
0
11
138.5
21
193.5
31
0
0
LINE
8
0
6
HIDDEN
10
138.5
20
193.5
30
0
11
146.0
21
193.5
31
0
0
LINE
8
0
6
HIDDEN
10
146.0
20
193.5
30
0
11
146.0
21
186.5
31
0
0
LINE
8
0
6
HIDDEN
10
146.0
20
186.5
30
0
11
138.5
21
186.5
31
0
0
LINE
8
0
6
HIDDEN
10
138.5
20
186.5
30
0
11
138.5
21
179.5
31
0
0
LINE
8
0
6
HIDDEN
10
138.5
20
179.5
30
0
11
146.0
21
179.5
31
0
0
LINE
8
0
6
HIDDEN
10
146.0
20
179.5
30
0
11
146.0
21
172.5
31
0
0
LINE
8
0
6
HIDDEN
10
146.0
20
172.5
30
0
11
138.5
21
172.5
31
0
0
LINE
8
0
6
HIDDEN
10
138.5
20
172.5
30
0
11
138.5
21
165.5
31
0
0
LINE
8
0
6
HIDDEN
10
138.5
20
165.5
30
0
11
146.0
21
165.5
31
0
0
LINE
8
0
6
HIDDEN
10
14.0
20
131.0
30
0
11
146.0
21
131.0
31
0
0
LINE
8
0
6
HIDDEN
10
146.0
20
80.0
30
0
11
146.0
21
131.0
31
0
0
LINE
8
0
6
HIDDEN
10
133.5
20
63.59
30
0
11
133.5
21
77.5
31
0
0
ARC
8
0
6
HIDDEN
10
136.0
20
77.5
30
0
40
2.5
50
90.0
51
180.0
0
LINE
8
0
6
HIDDEN
10
136.0
20
80.0
30
0
11
146.0
21
80.0
31
0
0
LINE
8
0
6
HIDDEN
10
133.5
20
46.59
30
0
11
133.5
21
30.0
31
0
0
LINE
8
0
6
HIDDEN
10
133.5
20
30.0
30
0
11
14.0
21
30.0
31
0
0
LINE
8
0
6
HIDDEN
10
14.0
20
30.0
30
0
11
14.0
21
131.0
31
0
0
LINE
8
0
6
CENTER
10
218.0
20
180.0
30
0
11
73.0
21
180.0
31
0
0
LINE
8
0
6
HIDDEN
10
138.5
20
63.59
30
0
11
103.5
21
63.59
31
0
0
LINE
8
0
6
HIDDEN
10
103.5
20
46.59
30
0
11
138.5
21
46.59
31
0
0
LINE
8
0
6
HIDDEN
10
138.5
20
46.59
30
0
11
138.5
21
63.59
31
0
0
LINE
8
0
6
HIDDEN
10
103.5
20
63.59
30
0
11
103.5
21
46.59
31
0
0
ARC
8
0
6
HIDDEN
10
102.12810350244634
20
55.09
30
0
40
8.61
50
80.83155134811554
51
279.16844865188443
0
LINE
8
0
6
HIDDEN
10
143.91
20
44.56
30
0
11
148.58
21
44.56
31
0
0
ARC
8
0
6
HIDDEN
10
146.88884654747125
20
47.17
30
0
40
3.11
50
302.9412809374653
51
57.058719062534664
0
LINE
8
0
6
HIDDEN
10
148.58
20
49.78
30
0
11
143.91
21
49.78
31
0
0
ARC
8
0
6
HIDDEN
10
145.60115345252876
20
47.17
30
0
40
3.11
50
122.94128093746535
51
237.05871906253464
0
LINE
8
0
6
HIDDEN
10
143.91
20
60.22
30
0
11
148.58
21
60.22
31
0
0
ARC
8
0
6
HIDDEN
10
139.67752843306985
20
55.0
30
0
40
10.32
50
329.61460067328824
51
30.38539932671175
0
LINE
8
0
6
HIDDEN
10
148.58
20
49.78
30
0
11
143.91
21
49.78
31
0
0
ARC
8
0
6
HIDDEN
10
152.81247156693016
20
55.0
30
0
40
10.32
50
149.61460067328827
51
210.38539932671173
0
LINE
8
0
6
HIDDEN
10
143.91
20
65.44
30
0
11
148.58
21
65.44
31
0
0
ARC
8
0
6
HIDDEN
10
146.88884654747125
20
62.83
30
0
40
3.11
50
302.9412809374653
51
57.058719062534664
0
LINE
8
0
6
HIDDEN
10
148.58
20
60.22
30
0
11
143.91
21
60.22
31
0
0
ARC
8
0
6
HIDDEN
10
145.60115345252876
20
62.83
30
0
40
3.11
50
122.94128093746535
51
237.05871906253464
0
LINE
8
0
6
HIDDEN
10
142.5
20
47.17
30
0
11
142.5
21
62.83
31
0
0
LINE
8
0
6
HIDDEN
10
150.0
20
47.17
30
0
11
150.0
21
62.83
31
0
0
LINE
8
0
6
HIDDEN
10
106.34
20
61.09
30
0
11
142.5
21
61.09
31
0
0
LINE
8
0
6
HIDDEN
10
109.62
20
49.09
30
0
11
142.5
21
49.09
31
0
0
ARC
8
0
6
HIDDEN
10
144.0
20
194.5
30
0
40
6.0
50
0.0
51
90.0
0
LINE
8
0
6
HIDDEN
10
144.0
20
200.5
30
0
11
139.0
21
200.5
31
0
0
LINE
8
0
6
HIDDEN
10
139.0
20
200.5
30
0
11
139.0
21
196.5
31
0
0
LINE
8
0
6
HIDDEN
10
139.0
20
196.5
30
0
11
144.0
21
196.5
31
0
0
ARC
8
0
6
HIDDEN
10
144.0
20
194.5
30
0
40
2.0
50
0.0
51
90.0
0
LINE
8
0
6
HIDDEN
10
146.0
20
194.5
30
0
11
146.0
21
143.5
31
0
0
LINE
8
0
6
HIDDEN
10
146.0
20
143.5
30
0
11
150.0
21
143.5
31
0
0
LINE
8
0
6
HIDDEN
10
150.0
20
143.5
30
0
11
150.0
21
194.5
31
0
0
LINE
8
0
6
HIDDEN
10
146.0
20
131.0
30
0
11
146.0
21
165.5
31
0
0
LINE
8
0
6
HIDDEN
10
107.0
20
236.5
30
0
11
150.0
21
236.5
31
0
0
ENDSEC
0
EOF