0
SECTION
2
HEADER
0
ENDSEC
0
SECTION
2
TABLES
0
TABLE
2
LTYPE
70
3
0
LTYPE
2
CONTINUOUS
70
0
3
Solid line
72
65
73
0
40
0.0
0
LTYPE
2
HIDDEN
70
0
3
hidden
72
65
73
2
40
9.524999999999999
49
6.35
49
-3.175
0
ENDTAB
0
TABLE
2
LAYER
70
1
0
LAYER
2
0
70
0
62
7
6
CONTINUOUS
0
ENDTAB
0
ENDSEC
0
SECTION
2
ENTITIES
0
LINE
8
0
6
CONTINUOUS
10
0.0
20
-19.0
30
0
11
0.0
21
19.0
31
0
0
LINE
8
0
6
CONTINUOUS
10
-0.0
20
0.0
30
0
11
68.0
21
0.0
31
0
0
LINE
8
0
6
CONTINUOUS
10
14.0
20
19.0
30
0
11
3.0
21
19.0
31
0
0
ARC
8
0
6
CONTINUOUS
10
3.0
20
16.0
30
0
40
3.0
50
90.0
51
180.0
0
LINE
8
0
6
CONTINUOUS
10
0.0
20
16.0
30
0
11
0.0
21
9.0
31
0
0
LINE
8
0
6
CONTINUOUS
10
0.0
20
9.0
30
0
11
3.0
21
9.0
31
0
0
LINE
8
0
6
CONTINUOUS
10
3.0
20
9.0
30
0
11
3.0
21
16.0
31
0
0
LINE
8
0
6
CONTINUOUS
10
3.0
20
16.0
30
0
11
14.0
21
16.0
31
0
0
LINE
8
0
6
CONTINUOUS
10
14.0
20
16.0
30
0
11
14.0
21
-16.0
31
0
0
LINE
8
0
6
CONTINUOUS
10
14.0
20
-16.0
30
0
11
3.0
21
-16.0
31
0
0
LINE
8
0
6
CONTINUOUS
10
3.0
20
-16.0
30
0
11
3.0
21
-9.0
31
0
0
LINE
8
0
6
CONTINUOUS
10
3.0
20
-9.0
30
0
11
0.0
21
-9.0
31
0
0
LINE
8
0
6
CONTINUOUS
10
0.0
20
-9.0
30
0
11
0.0
21
-16.0
31
0
0
ARC
8
0
6
CONTINUOUS
10
3.0
20
-16.0
30
0
40
3.0
50
180.0
51
270.0
0
LINE
8
0
6
CONTINUOUS
10
3.0
20
-19.0
30
0
11
14.0
21
-19.0
31
0
0
ARC
8
0
6
CONTINUOUS
10
14.0
20
-16.0
30
0
40
3.0
50
270.0
51
0.0
0
LINE
8
0
6
CONTINUOUS
10
17.0
20
-16.0
30
0
11
17.0
21
16.0
31
0
0
ARC
8
0
6
CONTINUOUS
10
14.0
20
16.0
30
0
40
3.0
50
0.0
51
90.0
0
LINE
8
0
6
HIDDEN
10
62.12
20
3.5
30
0
11
17.0
21
3.5
31
0
0
LINE
8
0
6
HIDDEN
10
17.0
20
-3.5
30
0
11
62.12
21
-3.5
31
0
0
LINE
8
0
6
HIDDEN
10
63.49
20
-12.0
30
0
11
62.12
21
-3.5
31
0
0
LINE
8
0
6
HIDDEN
10
63.49
20
12.0
30
0
11
63.49
21
-12.0
31
0
0
LINE
8
0
6
HIDDEN
10
63.49
20
12.0
30
0
11
62.12
21
3.5
31
0
0
LINE
8
0
6
HIDDEN
10
62.12
20
-3.5
30
0
11
62.12
21
3.5
31
0
0
LINE
8
0
6
HIDDEN
10
66.63
20
12.0
30
0
11
66.63
21
-12.0
31
0
0
LINE
8
0
6
HIDDEN
10
68.0
20
3.5
30
0
11
66.63
21
12.0
31
0
0
LINE
8
0
6
HIDDEN
10
68.0
20
-3.5
30
0
11
68.0
21
3.5
31
0
0
LINE
8
0
6
HIDDEN
10
66.63
20
-12.0
30
0
11
68.0
21
-3.5
31
0
0
LINE
8
0
6
HIDDEN
10
66.63
20
-12.0
30
0
11
63.49
21
-12.0
31
0
0
LINE
8
0
6
HIDDEN
10
66.63
20
12.0
30
0
11
63.49
21
12.0
31
0
0
ENDSEC
0
EOF