0
SECTION
2
HEADER
0
ENDSEC
0
SECTION
2
TABLES
0
TABLE
2
LTYPE
70
4
0
LTYPE
2
CONTINUOUS
70
0
3
Solid line
72
65
73
0
40
0.0
0
LTYPE
2
HIDDEN
70
0
3
hidden
72
65
73
2
40
9.524999999999999
49
6.35
49
-3.175
0
LTYPE
2
CENTER
70
0
3
center
72
65
73
4
40
28.575
49
12.7
49
-6.35
49
3.175
49
-6.35
0
ENDTAB
0
TABLE
2
LAYER
70
1
0
LAYER
2
0
70
0
62
7
6
CONTINUOUS
0
ENDTAB
0
ENDSEC
0
SECTION
2
ENTITIES
0
LINE
8
0
6
CONTINUOUS
10
263.0
20
90.0
30
0
11
-79.0
21
90.0
31
0
0
LINE
8
0
6
CONTINUOUS
10
-79.0
20
240.0
30
0
11
263.0
21
240.0
31
0
0
LINE
8
0
6
CONTINUOUS
10
150.0
20
-5.0
30
0
11
150.0
21
297.5
31
0
0
LINE
8
0
6
CONTINUOUS
10
263.0
20
-1.0
30
0
11
-79.0
21
-1.0
31
0
0
LINE
8
0
6
CONTINUOUS
10
10.0
20
-5.0
30
0
11
10.0
21
297.5
31
0
0
LINE
8
0
6
CONTINUOUS
10
0.0
20
-5.0
30
0
11
0.0
21
297.5
31
0
0
LINE
8
0
6
CONTINUOUS
10
-79.0
20
0.0
30
0
11
263.0
21
0.0
31
0
0
ARC
8
0
6
CONTINUOUS
10
7.0
20
2.0
30
0
40
3.0
50
270.0
51
0.0
0
LINE
8
0
6
CONTINUOUS
10
7.0
20
-1.0
30
0
11
-79.0
21
-1.0
31
0
0
LINE
8
0
6
CONTINUOUS
10
-79.0
20
-1.0
30
0
11
-79.0
21
-5.0
31
0
0
LINE
8
0
6
CONTINUOUS
10
-79.0
20
-5.0
30
0
11
7.0
21
-5.0
31
0
0
ARC
8
0
6
CONTINUOUS
10
7.0
20
2.0000000000000004
30
0
40
7.0
50
270.0
51
360.0
0
LINE
8
0
6
CONTINUOUS
10
14.0
20
2.0
30
0
11
14.0
21
43.0
31
0
0
LINE
8
0
6
CONTINUOUS
10
14.0
20
43.0
30
0
11
10.0
21
43.0
31
0
0
LINE
8
0
6
CONTINUOUS
10
10.0
20
43.0
30
0
11
10.0
21
2.0
31
0
0
LINE
8
0
6
HIDDEN
10
103.0
20
190.0
30
0
11
103.0
21
288.5
31
0
0
LINE
8
0
6
HIDDEN
10
103.0
20
288.5
30
0
11
107.0
21
288.5
31
0
0
LINE
8
0
6
HIDDEN
10
107.0
20
288.5
30
0
11
107.0
21
297.5
31
0
0
LINE
8
0
6
HIDDEN
10
107.0
20
297.5
30
0
11
150.0
21
297.5
31
0
0
LINE
8
0
6
HIDDEN
10
150.0
20
297.5
30
0
11
150.0
21
289.5
31
0
0
LINE
8
0
6
HIDDEN
10
150.0
20
289.5
30
0
11
146.0
21
289.5
31
0
0
LINE
8
0
6
HIDDEN
10
146.0
20
289.5
30
0
11
146.0
21
288.5
31
0
0
LINE
8
0
6
HIDDEN
10
146.0
20
288.5
30
0
11
138.5
21
288.5
31
0
0
LINE
8
0
6
HIDDEN
10
138.5
20
288.5
30
0
11
138.5
21
281.5
31
0
0
LINE
8
0
6
HIDDEN
10
138.5
20
281.5
30
0
11
146.0
21
281.5
31
0
0
LINE
8
0
6
HIDDEN
10
146.0
20
281.5
30
0
11
146.0
21
274.5
31
0
0
LINE
8
0
6
HIDDEN
10
146.0
20
274.5
30
0
11
138.5
21
274.5
31
0
0
LINE
8
0
6
HIDDEN
10
138.5
20
274.5
30
0
11
138.5
21
267.5
31
0
0
LINE
8
0
6
HIDDEN
10
138.5
20
267.5
30
0
11
146.0
21
267.5
31
0
0
LINE
8
0
6
HIDDEN
10
146.0
20
267.5
30
0
11
146.0
21
260.5
31
0
0
LINE
8
0
6
HIDDEN
10
146.0
20
260.5
30
0
11
138.5
21
260.5
31
0
0
LINE
8
0
6
HIDDEN
10
138.5
20
260.5
30
0
11
138.5
21
253.5
31
0
0
LINE
8
0
6
HIDDEN
10
138.5
20
253.5
30
0
11
146.0
21
253.5
31
0
0
LINE
8
0
6
HIDDEN
10
146.0
20
253.5
30
0
11
146.0
21
246.5
31
0
0
LINE
8
0
6
HIDDEN
10
146.0
20
246.5
30
0
11
138.5
21
246.5
31
0
0
LINE
8
0
6
HIDDEN
10
138.5
20
246.5
30
0
11
138.5
21
239.5
31
0
0
LINE
8
0
6
HIDDEN
10
138.5
20
239.5
30
0
11
146.0
21
239.5
31
0
0
LINE
8
0
6
HIDDEN
10
146.0
20
239.5
30
0
11
146.0
21
232.5
31
0
0
LINE
8
0
6
HIDDEN
10
146.0
20
232.5
30
0
11
138.5
21
232.5
31
0
0
LINE
8
0
6
HIDDEN
10
138.5
20
232.5
30
0
11
138.5
21
225.5
31
0
0
LINE
8
0
6
HIDDEN
10
138.5
20
225.5
30
0
11
146.0
21
225.5
31
0
0
LINE
8
0
6
HIDDEN
10
44.0
20
190.0
30
0
11
146.0
21
190.0
31
0
0
LINE
8
0
6
HIDDEN
10
146.0
20
145.0
30
0
11
146.0
21
190.0
31
0
0
LINE
8
0
6
HIDDEN
10
133.5
20
123.59
30
0
11
133.5
21
142.5
31
0
0
ARC
8
0
6
HIDDEN
10
136.0
20
142.5
30
0
40
2.5
50
90.0
51
180.0
0
LINE
8
0
6
HIDDEN
10
136.0
20
145.0
30
0
11
146.0
21
145.0
31
0
0
LINE
8
0
6
HIDDEN
10
133.5
20
106.59
30
0
11
133.5
21
90.0
31
0
0
LINE
8
0
6
HIDDEN
10
133.5
20
90.0
30
0
11
44.0
21
90.0
31
0
0
LINE
8
0
6
HIDDEN
10
44.0
20
90.0
30
0
11
44.0
21
190.0
31
0
0
LINE
8
0
6
CENTER
10
263.0
20
240.0
30
0
11
78.0
21
240.0
31
0
0
LINE
8
0
6
HIDDEN
10
138.5
20
123.59
30
0
11
103.5
21
123.59
31
0
0
LINE
8
0
6
HIDDEN
10
103.5
20
106.59
30
0
11
138.5
21
106.59
31
0
0
LINE
8
0
6
HIDDEN
10
138.5
20
106.59
30
0
11
138.5
21
123.59
31
0
0
LINE
8
0
6
HIDDEN
10
103.5
20
123.59
30
0
11
103.5
21
106.59
31
0
0
ARC
8
0
6
HIDDEN
10
102.12810350244634
20
115.09
30
0
40
8.61
50
80.83155134811554
51
279.16844865188443
0
LINE
8
0
6
HIDDEN
10
143.91
20
104.56
30
0
11
148.58
21
104.56
31
0
0
ARC
8
0
6
HIDDEN
10
146.88884654747125
20
107.17
30
0
40
3.11
50
302.9412809374653
51
57.058719062534664
0
LINE
8
0
6
HIDDEN
10
148.58
20
109.78
30
0
11
143.91
21
109.78
31
0
0
ARC
8
0
6
HIDDEN
10
145.60115345252876
20
107.17
30
0
40
3.11
50
122.94128093746535
51
237.05871906253464
0
LINE
8
0
6
HIDDEN
10
143.91
20
120.22
30
0
11
148.58
21
120.22
31
0
0
ARC
8
0
6
HIDDEN
10
139.67752843306985
20
115.0
30
0
40
10.32
50
329.61460067328824
51
30.38539932671175
0
LINE
8
0
6
HIDDEN
10
148.58
20
109.78
30
0
11
143.91
21
109.78
31
0
0
ARC
8
0
6
HIDDEN
10
152.81247156693016
20
115.0
30
0
40
10.32
50
149.61460067328827
51
210.38539932671173
0
LINE
8
0
6
HIDDEN
10
143.91
20
125.44
30
0
11
148.58
21
125.44
31
0
0
ARC
8
0
6
HIDDEN
10
146.88884654747125
20
122.83
30
0
40
3.11
50
302.9412809374653
51
57.058719062534664
0
LINE
8
0
6
HIDDEN
10
148.58
20
120.22
30
0
11
143.91
21
120.22
31
0
0
ARC
8
0
6
HIDDEN
10
145.60115345252876
20
122.83
30
0
40
3.11
50
122.94128093746535
51
237.05871906253464
0
LINE
8
0
6
HIDDEN
10
142.5
20
107.17
30
0
11
142.5
21
122.83
31
0
0
LINE
8
0
6
HIDDEN
10
150.0
20
107.17
30
0
11
150.0
21
122.83
31
0
0
LINE
8
0
6
HIDDEN
10
106.34
20
121.09
30
0
11
142.5
21
121.09
31
0
0
LINE
8
0
6
HIDDEN
10
109.62
20
109.09
30
0
11
142.5
21
109.09
31
0
0
ARC
8
0
6
HIDDEN
10
144.0
20
254.5
30
0
40
6.0
50
0.0
51
90.0
0
LINE
8
0
6
HIDDEN
10
144.0
20
260.5
30
0
11
139.0
21
260.5
31
0
0
LINE
8
0
6
HIDDEN
10
139.0
20
260.5
30
0
11
139.0
21
256.5
31
0
0
LINE
8
0
6
HIDDEN
10
139.0
20
256.5
30
0
11
144.0
21
256.5
31
0
0
ARC
8
0
6
HIDDEN
10
144.0
20
254.5
30
0
40
2.0
50
0.0
51
90.0
0
LINE
8
0
6
HIDDEN
10
146.0
20
254.5
30
0
11
146.0
21
202.5
31
0
0
LINE
8
0
6
HIDDEN
10
146.0
20
202.5
30
0
11
150.0
21
202.5
31
0
0
LINE
8
0
6
HIDDEN
10
150.0
20
202.5
30
0
11
150.0
21
254.5
31
0
0
LINE
8
0
6
HIDDEN
10
146.0
20
190.0
30
0
11
146.0
21
225.5
31
0
0
LINE
8
0
6
HIDDEN
10
107.0
20
295.5
30
0
11
150.0
21
295.5
31
0
0
LINE
8
0
6
CONTINUOUS
10
44.0
20
140.0
30
0
11
44.0
21
0.0
31
0
0
LINE
8
0
6
CONTINUOUS
10
44.0
20
-0.0
30
0
11
14.0
21
0.0
31
0
0
LINE
8
0
6
CONTINUOUS
10
14.0
20
0.0
30
0
11
14.0
21
140.0
31
0
0
LINE
8
0
6
CONTINUOUS
10
14.0
20
140.0
30
0
11
44.0
21
140.0
31
0
0
LINE
8
0
6
HIDDEN
10
38.0
20
140.0
30
0
11
38.0
21
0.0
31
0
0
LINE
8
0
6
CONTINUOUS
10
150.0
20
221.0
30
0
11
150.0
21
259.0
31
0
0
LINE
8
0
6
CONTINUOUS
10
150.0
20
240.0
30
0
11
218.0
21
240.0
31
0
0
LINE
8
0
6
CONTINUOUS
10
164.0
20
259.0
30
0
11
153.0
21
259.0
31
0
0
ARC
8
0
6
CONTINUOUS
10
153.0
20
256.0
30
0
40
3.0
50
90.0
51
180.0
0
LINE
8
0
6
CONTINUOUS
10
150.0
20
256.0
30
0
11
150.0
21
249.0
31
0
0
LINE
8
0
6
CONTINUOUS
10
150.0
20
249.0
30
0
11
153.0
21
249.0
31
0
0
LINE
8
0
6
CONTINUOUS
10
153.0
20
249.0
30
0
11
153.0
21
256.0
31
0
0
LINE
8
0
6
CONTINUOUS
10
153.0
20
256.0
30
0
11
164.0
21
256.0
31
0
0
LINE
8
0
6
CONTINUOUS
10
164.0
20
256.0
30
0
11
164.0
21
224.0
31
0
0
LINE
8
0
6
CONTINUOUS
10
164.0
20
224.0
30
0
11
153.0
21
224.0
31
0
0
LINE
8
0
6
CONTINUOUS
10
153.0
20
224.0
30
0
11
153.0
21
231.0
31
0
0
LINE
8
0
6
CONTINUOUS
10
153.0
20
231.0
30
0
11
150.0
21
231.0
31
0
0
LINE
8
0
6
CONTINUOUS
10
150.0
20
231.0
30
0
11
150.0
21
224.0
31
0
0
ARC
8
0
6
CONTINUOUS
10
153.0
20
224.0
30
0
40
3.0
50
180.0
51
270.0
0
LINE
8
0
6
CONTINUOUS
10
153.0
20
221.0
30
0
11
164.0
21
221.0
31
0
0
ARC
8
0
6
CONTINUOUS
10
164.0
20
224.0
30
0
40
3.0
50
270.0
51
0.0
0
LINE
8
0
6
CONTINUOUS
10
167.0
20
224.0
30
0
11
167.0
21
256.0
31
0
0
ARC
8
0
6
CONTINUOUS
10
164.0
20
256.0
30
0
40
3.0
50
0.0
51
90.0
0
LINE
8
0
6
HIDDEN
10
212.12
20
243.5
30
0
11
167.0
21
243.5
31
0
0
LINE
8
0
6
HIDDEN
10
167.0
20
236.5
30
0
11
212.12
21
236.5
31
0
0
LINE
8
0
6
HIDDEN
10
213.49
20
228.0
30
0
11
212.12
21
236.5
31
0
0
LINE
8
0
6
HIDDEN
10
213.49
20
252.0
30
0
11
213.49
21
228.0
31
0
0
LINE
8
0
6
HIDDEN
10
213.49
20
252.0
30
0
11
212.12
21
243.5
31
0
0
LINE
8
0
6
HIDDEN
10
212.12
20
236.5
30
0
11
212.12
21
243.5
31
0
0
LINE
8
0
6
HIDDEN
10
216.63
20
252.0
30
0
11
216.63
21
228.0
31
0
0
LINE
8
0
6
HIDDEN
10
218.0
20
243.5
30
0
11
216.63
21
252.0
31
0
0
LINE
8
0
6
HIDDEN
10
218.0
20
236.5
30
0
11
218.0
21
243.5
31
0
0
LINE
8
0
6
HIDDEN
10
216.63
20
228.0
30
0
11
218.0
21
236.5
31
0
0
LINE
8
0
6
HIDDEN
10
216.63
20
228.0
30
0
11
213.49
21
228.0
31
0
0
LINE
8
0
6
HIDDEN
10
216.63
20
252.0
30
0
11
213.49
21
252.0
31
0
0
ENDSEC
0
EOF