0
SECTION
2
HEADER
0
ENDSEC
0
SECTION
2
TABLES
0
TABLE
2
LTYPE
70
2
0
LTYPE
2
CONTINUOUS
70
0
3
Solid line
72
65
73
0
40
0.0
0
ENDTAB
0
TABLE
2
LAYER
70
1
0
LAYER
2
0
70
0
62
7
6
CONTINUOUS
0
ENDTAB
0
ENDSEC
0
SECTION
2
ENTITIES
0
LINE
8
0
6
CONTINUOUS
10
15.61
20
-5.06
30
0
11
-100.0
21
-5.06
31
0
0
LINE
8
0
6
CONTINUOUS
10
13.49
20
116.0
30
0
11
13.49
21
-7.83
31
0
0
LINE
8
0
6
CONTINUOUS
10
15.61
20
116.0
30
0
11
-100.0
21
116.0
31
0
0
LINE
8
0
6
CONTINUOUS
10
8.0
20
-7.83
30
0
11
8.0
21
116.0
31
0
0
LINE
8
0
6
CONTINUOUS
10
5.0
20
-7.83
30
0
11
5.0
21
116.0
31
0
0
LINE
8
0
6
CONTINUOUS
10
-82.0
20
-7.83
30
0
11
-82.0
21
116.0
31
0
0
LINE
8
0
6
CONTINUOUS
10
-100.0
20
-1.0
30
0
11
15.61
21
-1.0
31
0
0
LINE
8
0
6
CONTINUOUS
10
-100.0
20
-7.83
30
0
11
-100.0
21
116.0
31
0
0
LINE
8
0
6
CONTINUOUS
10
-100.0
20
-4.0
30
0
11
15.61
21
-4.0
31
0
0
LINE
8
0
6
CONTINUOUS
10
0.0
20
-7.83
30
0
11
0.0
21
116.0
31
0
0
LINE
8
0
6
CONTINUOUS
10
-82.0
20
-4.0
30
0
11
5.0
21
-4.0
31
0
0
ARC
8
0
6
CONTINUOUS
10
5.0
20
-0.9999999999999998
30
0
40
3.0
50
270.0
51
360.0
0
LINE
8
0
6
CONTINUOUS
10
8.0
20
-1.0
30
0
11
8.0
21
116.0
31
0
0
LINE
8
0
6
CONTINUOUS
10
8.0
20
116.0
30
0
11
5.0
21
116.0
31
0
0
LINE
8
0
6
CONTINUOUS
10
5.0
20
116.0
30
0
11
5.0
21
0.0
31
0
0
ARC
8
0
6
CONTINUOUS
10
4.0
20
-5.551115123125783e-17
30
0
40
1.0
50
270.0
51
3.1805546814635168e-15
0
LINE
8
0
6
CONTINUOUS
10
4.0
20
-1.0
30
0
11
-82.0
21
-1.0
31
0
0
LINE
8
0
6
CONTINUOUS
10
-82.0
20
-1.0
30
0
11
-82.0
21
-4.0
31
0
0
ENDSEC
0
EOF