0
SECTION
2
HEADER
0
ENDSEC
0
SECTION
2
TABLES
0
TABLE
2
LTYPE
70
2
0
LTYPE
2
CONTINUOUS
70
0
3
Solid line
72
65
73
0
40
0.0
0
ENDTAB
0
TABLE
2
LAYER
70
1
0
LAYER
2
0
70
0
62
7
6
CONTINUOUS
0
ENDTAB
0
ENDSEC
0
SECTION
2
ENTITIES
0
LINE
8
0
6
CONTINUOUS
10
25.0
20
4.47
30
0
11
-25.0
21
4.47
31
0
0
LINE
8
0
6
CONTINUOUS
10
12.5
20
-0.0
30
0
11
12.5
21
52.0
31
0
0
LINE
8
0
6
CONTINUOUS
10
-12.5
20
-0.0
30
0
11
-12.5
21
52.0
31
0
0
LINE
8
0
6
CONTINUOUS
10
2.5
20
-0.0
30
0
11
2.5
21
52.0
31
0
0
LINE
8
0
6
CONTINUOUS
10
-2.5
20
-0.0
30
0
11
-2.5
21
52.0
31
0
0
LINE
8
0
6
CONTINUOUS
10
25.0
20
26.0
30
0
11
-25.0
21
26.0
31
0
0
LINE
8
0
6
CONTINUOUS
10
25.0
20
50.0
30
0
11
-25.0
21
50.0
31
0
0
LINE
8
0
6
CONTINUOUS
10
25.0
20
52.0
30
0
11
-25.0
21
52.0
31
0
0
LINE
8
0
6
CONTINUOUS
10
25.0
20
-0.0
30
0
11
25.0
21
52.0
31
0
0
LINE
8
0
6
CONTINUOUS
10
-25.0
20
-0.0
30
0
11
-25.0
21
52.0
31
0
0
LINE
8
0
6
CONTINUOUS
10
0.0
20
-0.0
30
0
11
0.0
21
52.0
31
0
0
LINE
8
0
6
CONTINUOUS
10
-25.0
20
0.0
30
0
11
25.0
21
0.0
31
0
0
ARC
8
0
6
CONTINUOUS
10
-23.8300427358299
20
5.6399999992195085
30
0
40
1.17
50
179.51028648207588
51
270.0020928057161
0
LINE
8
0
6
CONTINUOUS
10
-23.83
20
4.47
30
0
11
-10.73
21
4.47
31
0
0
LINE
8
0
6
CONTINUOUS
10
-10.73
20
4.47
30
0
11
-2.5
21
25.2
31
0
0
LINE
8
0
6
CONTINUOUS
10
-2.5
20
25.2
30
0
11
2.5
21
25.2
31
0
0
LINE
8
0
6
CONTINUOUS
10
2.5
20
25.2
30
0
11
10.73
21
4.47
31
0
0
LINE
8
0
6
CONTINUOUS
10
10.73
20
4.47
30
0
11
23.81
21
4.47
31
0
0
ARC
8
0
6
CONTINUOUS
10
23.810000000000002
20
5.659999999999999
30
0
40
1.19
50
269.99999999999983
51
4.276376042303896e-14
0
LINE
8
0
6
CONTINUOUS
10
25.0
20
5.66
30
0
11
25.0
21
50.82
31
0
0
ARC
8
0
6
CONTINUOUS
10
23.82
20
50.81999999999999
30
0
40
1.18
50
3.4500932137909343e-13
51
90.0
0
LINE
8
0
6
CONTINUOUS
10
23.82
20
52.0
30
0
11
19.01
21
52.0
31
0
0
LINE
8
0
6
CONTINUOUS
10
19.01
20
52.0
30
0
11
19.01
21
51.2
31
0
0
LINE
8
0
6
CONTINUOUS
10
19.01
20
51.2
30
0
11
24.2
21
51.2
31
0
0
LINE
8
0
6
CONTINUOUS
10
24.2
20
51.2
30
0
11
24.2
21
5.27
31
0
0
LINE
8
0
6
CONTINUOUS
10
24.2
20
5.27
30
0
11
11.25
21
5.27
31
0
0
LINE
8
0
6
CONTINUOUS
10
11.25
20
5.27
30
0
11
3.34
21
25.28
31
0
0
ARC
8
0
6
CONTINUOUS
10
2.2271642998333094
20
24.78000329557635
30
0
40
1.22
50
24.194367437184354
51
89.86682475589154
0
LINE
8
0
6
CONTINUOUS
10
2.23
20
26.0
30
0
11
-2.22
21
26.0
31
0
0
ARC
8
0
6
CONTINUOUS
10
-2.2207144190926877
20
24.770000207477512
30
0
40
1.23
50
89.96672097470235
51
155.5037315695127
0
LINE
8
0
6
CONTINUOUS
10
-3.34
20
25.28
30
0
11
-11.25
21
5.27
31
0
0
LINE
8
0
6
CONTINUOUS
10
-11.25
20
5.27
30
0
11
-24.2
21
5.27
31
0
0
LINE
8
0
6
CONTINUOUS
10
-24.2
20
5.27
30
0
11
-24.2
21
48.27
31
0
0
ARC
8
0
6
CONTINUOUS
10
-23.880858324500085
20
48.24657798131867
30
0
40
0.32
50
24.641787135044208
51
175.80255013222816
0
LINE
8
0
6
CONTINUOUS
10
-23.59
20
48.38
30
0
11
-21.99
21
44.43
31
0
0
LINE
8
0
6
CONTINUOUS
10
-21.99
20
44.43
30
0
11
-21.25
21
44.73
31
0
0
LINE
8
0
6
CONTINUOUS
10
-21.25
20
44.73
30
0
11
-23.14
21
49.4
31
0
0
ARC
8
0
6
CONTINUOUS
10
-24.03012323480951
20
49.01453842363699
30
0
40
0.97
50
23.414683054960083
51
179.0866798060301
0
LINE
8
0
6
CONTINUOUS
10
-25.0
20
49.03
30
0
11
-25.0
21
5.65
31
0
0
LINE
8
0
6
CONTINUOUS
10
23.81
20
0.0
30
0
11
23.81
21
4.47
31
0
0
LINE
8
0
6
CONTINUOUS
10
23.81
20
4.47
30
0
11
11.81
21
4.47
31
0
0
LINE
8
0
6
CONTINUOUS
10
11.81
20
4.47
30
0
11
11.81
21
0.0
31
0
0
LINE
8
0
6
CONTINUOUS
10
11.81
20
0.0
30
0
11
23.81
21
0.0
31
0
0
LINE
8
0
6
CONTINUOUS
10
-11.83
20
-0.0
30
0
11
-11.83
21
4.47
31
0
0
LINE
8
0
6
CONTINUOUS
10
-11.83
20
4.47
30
0
11
-23.83
21
4.47
31
0
0
LINE
8
0
6
CONTINUOUS
10
-23.83
20
4.47
30
0
11
-23.83
21
-0.0
31
0
0
LINE
8
0
6
CONTINUOUS
10
-23.83
20
-0.0
30
0
11
-11.83
21
-0.0
31
0
0
ENDSEC
0
EOF