0
SECTION
2
HEADER
0
ENDSEC
0
SECTION
2
TABLES
0
TABLE
2
LTYPE
70
2
0
LTYPE
2
CONTINUOUS
70
0
3
Solid line
72
65
73
0
40
0.0
0
ENDTAB
0
TABLE
2
LAYER
70
1
0
LAYER
2
0
70
0
62
7
6
CONTINUOUS
0
ENDTAB
0
ENDSEC
0
SECTION
2
ENTITIES
0
LINE
8
0
6
CONTINUOUS
10
59.2
20
-10.0
30
0
11
59.2
21
60.0
31
0
0
LINE
8
0
6
CONTINUOUS
10
60.0
20
59.2
30
0
11
-10.0
21
59.2
31
0
0
LINE
8
0
6
CONTINUOUS
10
0.0
20
-10.0
30
0
11
0.0
21
60.0
31
0
0
LINE
8
0
6
CONTINUOUS
10
-10.0
20
0.0
30
0
11
60.0
21
0.0
31
0
0
LINE
8
0
6
CONTINUOUS
10
-0.8
20
-0.8
30
0
11
58.4
21
-0.8
31
0
0
LINE
8
0
6
CONTINUOUS
10
58.4
20
-0.8
30
0
11
58.4
21
-10.0
31
0
0
LINE
8
0
6
CONTINUOUS
10
58.4
20
-10.0
30
0
11
59.2
21
-10.0
31
0
0
LINE
8
0
6
CONTINUOUS
10
59.2
20
-10.0
30
0
11
59.2
21
0.0
31
0
0
LINE
8
0
6
CONTINUOUS
10
59.2
20
0.0
30
0
11
-0.0
21
0.0
31
0
0
LINE
8
0
6
CONTINUOUS
10
-0.0
20
0.0
30
0
11
0.0
21
59.2
31
0
0
LINE
8
0
6
CONTINUOUS
10
0.0
20
59.2
30
0
11
-10.0
21
59.2
31
0
0
LINE
8
0
6
CONTINUOUS
10
-10.0
20
59.2
30
0
11
-10.0
21
58.4
31
0
0
LINE
8
0
6
CONTINUOUS
10
-10.0
20
58.4
30
0
11
-0.8
21
58.4
31
0
0
LINE
8
0
6
CONTINUOUS
10
-0.8
20
58.4
30
0
11
-0.8
21
-0.8
31
0
0
ENDSEC
0
EOF