0
SECTION
2
HEADER
0
ENDSEC
0
SECTION
2
TABLES
0
TABLE
2
LTYPE
70
2
0
LTYPE
2
CONTINUOUS
70
0
3
Solid line
72
65
73
0
40
0.0
0
ENDTAB
0
TABLE
2
LAYER
70
1
0
LAYER
2
0
70
0
62
7
6
CONTINUOUS
0
ENDTAB
0
ENDSEC
0
SECTION
2
ENTITIES
0
LINE
8
0
6
CONTINUOUS
10
50.0
20
-40.0
30
0
11
-50.0
21
-40.0
31
0
0
LINE
8
0
6
CONTINUOUS
10
50.0
20
-40.0
30
0
11
50.0
21
0.0
31
0
0
LINE
8
0
6
CONTINUOUS
10
-50.0
20
-40.0
30
0
11
-50.0
21
0.0
31
0
0
LINE
8
0
6
CONTINUOUS
10
0.0
20
-40.0
30
0
11
0.0
21
0.0
31
0
0
LINE
8
0
6
CONTINUOUS
10
-50.0
20
0.0
30
0
11
50.0
21
0.0
31
0
0
LINE
8
0
6
CONTINUOUS
10
-50.0
20
-1.0
30
0
11
-50.0
21
-40.0
31
0
0
LINE
8
0
6
CONTINUOUS
10
-50.0
20
-40.0
30
0
11
-48.0
21
-40.0
31
0
0
LINE
8
0
6
CONTINUOUS
10
-48.0
20
-40.0
30
0
11
-48.0
21
-2.0
31
0
0
LINE
8
0
6
CONTINUOUS
10
-48.0
20
-2.0
30
0
11
48.0
21
-2.0
31
0
0
LINE
8
0
6
CONTINUOUS
10
48.0
20
-2.0
30
0
11
48.0
21
-40.0
31
0
0
LINE
8
0
6
CONTINUOUS
10
48.0
20
-40.0
30
0
11
50.0
21
-40.0
31
0
0
LINE
8
0
6
CONTINUOUS
10
50.0
20
-40.0
30
0
11
50.0
21
-1.0
31
0
0
LINE
8
0
6
CONTINUOUS
10
50.0
20
-1.0
30
0
11
49.0
21
-0.0
31
0
0
LINE
8
0
6
CONTINUOUS
10
49.0
20
-0.0
30
0
11
-49.0
21
-0.0
31
0
0
LINE
8
0
6
CONTINUOUS
10
-49.0
20
-0.0
30
0
11
-50.0
21
-1.0
31
0
0
LINE
8
0
6
CONTINUOUS
10
-48.0
20
-2.0
30
0
11
48.0
21
-2.0
31
0
0
LINE
8
0
6
CONTINUOUS
10
48.0
20
-2.0
30
0
11
48.0
21
-40.0
31
0
0
LINE
8
0
6
CONTINUOUS
10
48.0
20
-40.0
30
0
11
50.0
21
-40.0
31
0
0
LINE
8
0
6
CONTINUOUS
10
50.0
20
-40.0
30
0
11
50.0
21
-1.0
31
0
0
LINE
8
0
6
CONTINUOUS
10
50.0
20
-1.0
30
0
11
49.0
21
0.0
31
0
0
LINE
8
0
6
CONTINUOUS
10
49.0
20
0.0
30
0
11
-49.0
21
0.0
31
0
0
LINE
8
0
6
CONTINUOUS
10
-49.0
20
0.0
30
0
11
-50.0
21
-1.0
31
0
0
LINE
8
0
6
CONTINUOUS
10
-50.0
20
-1.0
30
0
11
-50.0
21
-40.0
31
0
0
LINE
8
0
6
CONTINUOUS
10
-50.0
20
-40.0
30
0
11
-48.0
21
-40.0
31
0
0
LINE
8
0
6
CONTINUOUS
10
-48.0
20
-40.0
30
0
11
-48.0
21
-2.0
31
0
0
LINE
8
0
6
CONTINUOUS
10
-50.0
20
-40.0
30
0
11
-50.0
21
-1.0
31
0
0
LINE
8
0
6
CONTINUOUS
10
-50.0
20
-1.0
30
0
11
-49.0
21
0.0
31
0
0
LINE
8
0
6
CONTINUOUS
10
50.0
20
-40.0
30
0
11
50.0
21
-1.0
31
0
0
LINE
8
0
6
CONTINUOUS
10
50.0
20
-1.0
30
0
11
49.0
21
0.0
31
0
0
LINE
8
0
6
CONTINUOUS
10
49.0
20
0.0
30
0
11
-49.0
21
0.0
31
0
0
LINE
8
0
6
CONTINUOUS
10
-48.0
20
-40.0
30
0
11
-48.0
21
-2.0
31
0
0
LINE
8
0
6
CONTINUOUS
10
-48.0
20
-2.0
30
0
11
48.0
21
-2.0
31
0
0
LINE
8
0
6
CONTINUOUS
10
48.0
20
-40.0
30
0
11
48.0
21
-2.0
31
0
0
LINE
8
0
6
CONTINUOUS
10
-50.0
20
-40.0
30
0
11
-48.0
21
-40.0
31
0
0
LINE
8
0
6
CONTINUOUS
10
48.0
20
-40.0
30
0
11
50.0
21
-40.0
31
0
0
ENDSEC
0
EOF