0
SECTION
2
HEADER
0
ENDSEC
0
SECTION
2
TABLES
0
TABLE
2
LTYPE
70
3
0
LTYPE
2
CONTINUOUS
70
0
3
Solid line
72
65
73
0
40
0.0
0
LTYPE
2
HIDDEN
70
0
3
hidden
72
65
73
2
40
9.524999999999999
49
6.35
49
-3.175
0
ENDTAB
0
TABLE
2
LAYER
70
1
0
LAYER
2
0
70
0
62
7
6
CONTINUOUS
0
ENDTAB
0
ENDSEC
0
SECTION
2
ENTITIES
0
LINE
8
0
6
CONTINUOUS
10
10.0
20
-0.0
30
0
11
10.0
21
350.0
31
0
0
LINE
8
0
6
CONTINUOUS
10
248.39
20
-0.0
30
0
11
248.39
21
350.0
31
0
0
LINE
8
0
6
CONTINUOUS
10
25.0
20
-0.0
30
0
11
25.0
21
350.0
31
0
0
LINE
8
0
6
CONTINUOUS
10
248.39
20
350.0
30
0
11
-0.0
21
350.0
31
0
0
LINE
8
0
6
CONTINUOUS
10
0.0
20
-0.0
30
0
11
0.0
21
350.0
31
0
0
LINE
8
0
6
CONTINUOUS
10
-0.0
20
0.0
30
0
11
248.39
21
0.0
31
0
0
LINE
8
0
6
CONTINUOUS
10
-0.0
20
0.0
30
0
11
248.39
21
0.0
31
0
0
LINE
8
0
6
CONTINUOUS
10
248.39
20
0.0
30
0
11
248.39
21
300.0
31
0
0
LINE
8
0
6
CONTINUOUS
10
248.39
20
300.0
30
0
11
124.92
21
300.0
31
0
0
ARC
8
0
6
CONTINUOUS
10
124.92063374196734
20
285.00000001338765
30
0
40
15.0
50
90.00242071600263
51
182.0248723998656
0
LINE
8
0
6
CONTINUOUS
10
109.93
20
284.47
30
0
11
109.43
21
270.0
31
0
0
LINE
8
0
6
CONTINUOUS
10
109.43
20
270.0
30
0
11
10.0
21
270.0
31
0
0
LINE
8
0
6
CONTINUOUS
10
10.0
20
270.0
30
0
11
10.0
21
350.0
31
0
0
LINE
8
0
6
CONTINUOUS
10
10.0
20
350.0
30
0
11
-0.0
21
350.0
31
0
0
LINE
8
0
6
CONTINUOUS
10
-0.0
20
350.0
30
0
11
-0.0
21
0.0
31
0
0
LINE
8
0
6
HIDDEN
10
10.0
20
270.0
30
0
11
10.0
21
0.0
31
0
0
LINE
8
0
6
HIDDEN
10
10.0
20
-0.0
30
0
11
100.0
21
-0.0
31
0
0
LINE
8
0
6
HIDDEN
10
100.0
20
-0.0
30
0
11
109.42
21
269.84
31
0
0
LINE
8
0
6
CONTINUOUS
10
10.0
20
350.0
30
0
11
10.0
21
270.0
31
0
0
LINE
8
0
6
CONTINUOUS
10
10.0
20
270.0
30
0
11
109.43
21
270.0
31
0
0
LINE
8
0
6
CONTINUOUS
10
109.43
20
270.0
30
0
11
109.97
21
285.52
31
0
0
ARC
8
0
6
CONTINUOUS
10
124.96098395815177
20
285.00000003227245
30
0
40
15.0
50
90.00375844329032
51
178.013348378996
0
LINE
8
0
6
CONTINUOUS
10
124.96
20
300.0
30
0
11
248.39
21
300.0
31
0
0
LINE
8
0
6
CONTINUOUS
10
248.39
20
300.0
30
0
11
248.39
21
350.0
31
0
0
LINE
8
0
6
CONTINUOUS
10
248.39
20
350.0
30
0
11
10.0
21
350.0
31
0
0
ENDSEC
0
EOF