0
SECTION
2
HEADER
0
ENDSEC
0
SECTION
2
TABLES
0
TABLE
2
LTYPE
70
2
0
LTYPE
2
CONTINUOUS
70
0
3
Solid line
72
65
73
0
40
0.0
0
ENDTAB
0
TABLE
2
LAYER
70
1
0
LAYER
2
0
70
0
62
7
6
CONTINUOUS
0
ENDTAB
0
ENDSEC
0
SECTION
2
ENTITIES
0
LINE
8
0
6
CONTINUOUS
10
250.0
20
0.0
30
0
11
250.0
21
230.0
31
0
0
LINE
8
0
6
CONTINUOUS
10
375.0
20
0.0
30
0
11
375.0
21
230.0
31
0
0
LINE
8
0
6
CONTINUOUS
10
125.0
20
0.0
30
0
11
125.0
21
230.0
31
0
0
LINE
8
0
6
CONTINUOUS
10
520.0
20
115.0
30
0
11
0.0
21
115.0
31
0
0
LINE
8
0
6
CONTINUOUS
10
520.0
20
230.0
30
0
11
0.0
21
230.0
31
0
0
LINE
8
0
6
CONTINUOUS
10
520.0
20
0.0
30
0
11
520.0
21
230.0
31
0
0
LINE
8
0
6
CONTINUOUS
10
0.0
20
0.0
30
0
11
0.0
21
230.0
31
0
0
LINE
8
0
6
CONTINUOUS
10
0.0
20
0.0
30
0
11
520.0
21
0.0
31
0
0
LINE
8
0
6
CONTINUOUS
10
125.0
20
25.0
30
0
11
125.0
21
205.0
31
0
0
LINE
8
0
6
CONTINUOUS
10
35.0
20
115.0
30
0
11
215.0
21
115.0
31
0
0
ARC
8
0
6
CONTINUOUS
10
125.0
20
115.0
30
0
40
90.0
50
180.0
51
0.0
0
ARC
8
0
6
CONTINUOUS
10
125.0
20
115.0
30
0
40
90.0
50
0.0
51
180.0
0
LINE
8
0
6
CONTINUOUS
10
375.0
20
25.0
30
0
11
375.0
21
205.0
31
0
0
LINE
8
0
6
CONTINUOUS
10
285.0
20
115.0
30
0
11
465.0
21
115.0
31
0
0
ARC
8
0
6
CONTINUOUS
10
375.0
20
115.0
30
0
40
90.0
50
180.0
51
0.0
0
ARC
8
0
6
CONTINUOUS
10
375.0
20
115.0
30
0
40
90.0
50
0.0
51
180.0
0
LINE
8
0
6
CONTINUOUS
10
0.0
20
0.0
30
0
11
520.0
21
0.0
31
0
0
LINE
8
0
6
CONTINUOUS
10
0.0
20
230.0
30
0
11
520.0
21
230.0
31
0
0
ENDSEC
0
EOF