0
SECTION
2
HEADER
0
ENDSEC
0
SECTION
2
TABLES
0
TABLE
2
LTYPE
70
2
0
LTYPE
2
CONTINUOUS
70
0
3
Solid line
72
65
73
0
40
0.0
0
ENDTAB
0
TABLE
2
LAYER
70
1
0
LAYER
2
0
70
0
62
7
6
CONTINUOUS
0
ENDTAB
0
ENDSEC
0
SECTION
2
ENTITIES
0
LINE
8
0
6
CONTINUOUS
10
543.87
20
0.0
30
0
11
543.87
21
340.0
31
0
0
LINE
8
0
6
CONTINUOUS
10
815.81
20
0.0
30
0
11
815.81
21
340.0
31
0
0
LINE
8
0
6
CONTINUOUS
10
271.94
20
0.0
30
0
11
271.94
21
340.0
31
0
0
LINE
8
0
6
CONTINUOUS
10
1494.68
20
170.0
30
0
11
0.0
21
170.0
31
0
0
LINE
8
0
6
CONTINUOUS
10
1494.68
20
340.0
30
0
11
0.0
21
340.0
31
0
0
LINE
8
0
6
CONTINUOUS
10
1460.0
20
0.0
30
0
11
1460.0
21
340.0
31
0
0
LINE
8
0
6
CONTINUOUS
10
0.0
20
0.0
30
0
11
0.0
21
340.0
31
0
0
LINE
8
0
6
CONTINUOUS
10
0.0
20
0.0
30
0
11
1494.68
21
0.0
31
0
0
LINE
8
0
6
CONTINUOUS
10
271.94
20
35.0
30
0
11
271.94
21
305.0
31
0
0
LINE
8
0
6
CONTINUOUS
10
136.94
20
170.0
30
0
11
406.94
21
170.0
31
0
0
ARC
8
0
6
CONTINUOUS
10
271.94
20
170.0
30
0
40
135.0
50
180.0
51
0.0
0
ARC
8
0
6
CONTINUOUS
10
271.94
20
170.0
30
0
40
135.0
50
0.0
51
180.0
0
LINE
8
0
6
CONTINUOUS
10
815.81
20
35.0
30
0
11
815.81
21
305.0
31
0
0
LINE
8
0
6
CONTINUOUS
10
680.81
20
170.0
30
0
11
950.81
21
170.0
31
0
0
ARC
8
0
6
CONTINUOUS
10
815.81
20
170.0
30
0
40
135.0
50
180.0
51
0.0
0
ARC
8
0
6
CONTINUOUS
10
815.81
20
170.0
30
0
40
135.0
50
0.0
51
180.0
0
LINE
8
0
6
CONTINUOUS
10
1359.68
20
35.0
30
0
11
1359.68
21
305.0
31
0
0
LINE
8
0
6
CONTINUOUS
10
1224.68
20
170.0
30
0
11
1494.68
21
170.0
31
0
0
ARC
8
0
6
CONTINUOUS
10
1359.68
20
170.0
30
0
40
135.0
50
180.0
51
0.0
0
ARC
8
0
6
CONTINUOUS
10
1359.68
20
170.0
30
0
40
135.0
50
0.0
51
180.0
0
LINE
8
0
6
CONTINUOUS
10
0.0
20
0.0
30
0
11
1460.0
21
0.0
31
0
0
LINE
8
0
6
CONTINUOUS
10
0.0
20
340.0
30
0
11
1460.0
21
340.0
31
0
0
ENDSEC
0
EOF