0
SECTION
2
HEADER
0
ENDSEC
0
SECTION
2
TABLES
0
TABLE
2
LTYPE
70
2
0
LTYPE
2
CONTINUOUS
70
0
3
Solid line
72
65
73
0
40
0.0
0
ENDTAB
0
TABLE
2
LAYER
70
1
0
LAYER
2
0
70
0
62
7
6
CONTINUOUS
0
ENDTAB
0
ENDSEC
0
SECTION
2
ENTITIES
0
LINE
8
0
6
CONTINUOUS
10
-47.34
20
225.0
30
0
11
1011.18
21
225.0
31
0
0
LINE
8
0
6
CONTINUOUS
10
-47.34
20
210.0
30
0
11
1011.18
21
210.0
31
0
0
LINE
8
0
6
CONTINUOUS
10
-47.34
20
100.0
30
0
11
1011.18
21
100.0
31
0
0
LINE
8
0
6
CONTINUOUS
10
700.0
20
-0.05
30
0
11
700.0
21
225.0
31
0
0
LINE
8
0
6
CONTINUOUS
10
-47.34
20
95.0
30
0
11
1011.18
21
95.0
31
0
0
LINE
8
0
6
CONTINUOUS
10
-47.34
20
75.0
30
0
11
1011.18
21
75.0
31
0
0
LINE
8
0
6
CONTINUOUS
10
1000.0
20
-0.05
30
0
11
1000.0
21
225.0
31
0
0
LINE
8
0
6
CONTINUOUS
10
-47.34
20
51.0
30
0
11
1011.18
21
51.0
31
0
0
LINE
8
0
6
CONTINUOUS
10
-47.34
20
60.0
30
0
11
1011.18
21
60.0
31
0
0
LINE
8
0
6
CONTINUOUS
10
-47.34
20
160.0
30
0
11
1011.18
21
160.0
31
0
0
LINE
8
0
6
CONTINUOUS
10
-47.34
20
46.0
30
0
11
1011.18
21
46.0
31
0
0
LINE
8
0
6
CONTINUOUS
10
900.0
20
-0.05
30
0
11
900.0
21
225.0
31
0
0
LINE
8
0
6
CONTINUOUS
10
600.0
20
-0.05
30
0
11
600.0
21
225.0
31
0
0
LINE
8
0
6
CONTINUOUS
10
0.0
20
-0.05
30
0
11
0.0
21
225.0
31
0
0
LINE
8
0
6
CONTINUOUS
10
-47.34
20
0.0
30
0
11
1011.18
21
0.0
31
0
0
ARC
8
0
6
CONTINUOUS
10
587.5000000156048
20
4.6996170058710725
30
0
40
4.7
50
270.73145516132183
51
0.004668924934071023
0
LINE
8
0
6
CONTINUOUS
10
592.2
20
4.7
30
0
11
592.2
21
12.51
31
0
0
ARC
8
0
6
CONTINUOUS
10
595.7
20
12.510000000000003
30
0
40
3.5
50
90.0
51
180.00000000000006
0
LINE
8
0
6
CONTINUOUS
10
595.7
20
16.01
30
0
11
606.3
21
16.01
31
0
0
ARC
8
0
6
CONTINUOUS
10
606.3
20
12.510000000000003
30
0
40
3.5
50
359.99999999999994
51
90.0
0
LINE
8
0
6
CONTINUOUS
10
609.8
20
12.51
30
0
11
609.8
21
5.21
31
0
0
LINE
8
0
6
CONTINUOUS
10
609.8
20
5.21
30
0
11
611.0
21
5.21
31
0
0
LINE
8
0
6
CONTINUOUS
10
611.0
20
5.21
30
0
11
611.0
21
12.51
31
0
0
ARC
8
0
6
CONTINUOUS
10
606.3
20
12.509999999999998
30
0
40
4.7
50
2.1654840384432247e-14
51
90.0
0
LINE
8
0
6
CONTINUOUS
10
606.3
20
17.21
30
0
11
595.7
21
17.21
31
0
0
ARC
8
0
6
CONTINUOUS
10
595.7
20
12.509999999999998
30
0
40
4.7
50
90.0
51
179.99999999999997
0
LINE
8
0
6
CONTINUOUS
10
591.0
20
12.51
30
0
11
591.0
21
4.7
31
0
0
ARC
8
0
6
CONTINUOUS
10
587.5000000182234
20
4.699642839179784
30
0
40
3.5
50
270.81853868062024
51
0.005846802183234979
0
LINE
8
0
6
CONTINUOUS
10
587.55
20
1.2
30
0
11
549.34
21
1.2
31
0
0
ARC
8
0
6
CONTINUOUS
10
549.34685926206
20
5.199994118811176
30
0
40
4.0
50
225.03175158179656
51
269.9017482601946
0
LINE
8
0
6
CONTINUOUS
10
546.52
20
2.37
30
0
11
543.21
21
5.68
31
0
0
ARC
8
0
6
CONTINUOUS
10
539.5360884287429
20
2.000003564324736
30
0
40
5.2
50
45.04740839430899
51
90.067084875104
0
LINE
8
0
6
CONTINUOUS
10
539.53
20
7.2
30
0
11
534.85
21
7.2
31
0
0
ARC
8
0
6
CONTINUOUS
10
534.8539094730755
20
2.0000014696136423
30
0
40
5.2
50
90.04307621700933
51
134.9525589380194
0
LINE
8
0
6
CONTINUOUS
10
531.18
20
5.68
30
0
11
527.87
21
2.37
31
0
0
ARC
8
0
6
CONTINUOUS
10
525.0431453876039
20
5.199998763316911
30
0
40
4.0
50
269.95494563669746
51
314.9681542816478
0
LINE
8
0
6
CONTINUOUS
10
525.04
20
1.2
30
0
11
513.15
21
1.2
31
0
0
ARC
8
0
6
CONTINUOUS
10
513.1532599887511
20
5.199998671558948
30
0
40
4.0
50
202.95447873652748
51
269.9533040956561
0
LINE
8
0
6
CONTINUOUS
10
509.47
20
3.64
30
0
11
507.94
21
7.23
31
0
0
ARC
8
0
6
CONTINUOUS
10
510.0565443479459
20
8.130133336333287
30
0
40
2.3
50
153.3994215776574
51
203.03929353034513
0
ARC
8
0
6
CONTINUOUS
10
504.4884177960451
20
12.283906276581803
30
0
40
4.7
50
318.34368341536344
51
87.66385239051588
0
ARC
8
0
6
CONTINUOUS
10
505.36898189389007
20
19.17438008327904
30
0
40
2.3
50
202.88364018437392
51
252.56898180343774
0
LINE
8
0
6
CONTINUOUS
10
503.25
20
18.28
30
0
11
495.44
21
36.69
31
0
0
ARC
8
0
6
CONTINUOUS
10
497.5565443479459
20
37.59013333633329
30
0
40
2.3
50
153.39942157765748
51
203.0392935303452
0
ARC
8
0
6
CONTINUOUS
10
491.9884177960451
20
41.743906276581804
30
0
40
4.7
50
318.3436834153634
51
87.66385239051587
0
ARC
8
0
6
CONTINUOUS
10
492.86407648496595
20
48.635914243024224
30
0
40
2.3
50
203.19587638760538
51
252.69701837241814
0
LINE
8
0
6
CONTINUOUS
10
490.75
20
47.73
30
0
11
489.73
21
50.13
31
0
0
ARC
8
0
6
CONTINUOUS
10
474.81788741512855
20
43.80000013774737
30
0
40
16.2
50
23.000597775748165
51
89.99252825942348
0
LINE
8
0
6
CONTINUOUS
10
474.82
20
60.0
30
0
11
469.31
21
60.0
31
0
0
ARC
8
0
6
CONTINUOUS
10
469.0315484186157
20
56.491062344535905
30
0
40
3.51
50
85.44989110234152
51
159.67922589260317
0
ARC
8
0
6
CONTINUOUS
10
464.31
20
58.8032062934323
30
0
40
1.8
50
217.3971865212923
51
322.60281347870773
0
ARC
8
0
6
CONTINUOUS
10
459.58884106002887
20
56.49001113453938
30
0
40
3.51
50
20.339073537218173
51
90.14431793781054
0
LINE
8
0
6
CONTINUOUS
10
459.58
20
60.0
30
0
11
429.86
21
60.0
31
0
0
ARC
8
0
6
CONTINUOUS
10
429.86263870680756
20
62.999998839537504
30
0
40
3.0
50
135.0356193924304
51
269.94960440568707
0
LINE
8
0
6
CONTINUOUS
10
427.74
20
65.12
30
0
11
430.45
21
67.82
31
0
0
ARC
8
0
6
CONTINUOUS
10
427.490337870803
20
70.80000001359008
30
0
40
4.2
50
314.80381537569895
51
90.00460918358388
0
LINE
8
0
6
CONTINUOUS
10
427.49
20
75.0
30
0
11
411.94
21
75.0
31
0
0
ARC
8
0
6
CONTINUOUS
10
411.93969694330144
20
70.80000001093373
30
0
40
4.2
50
89.99586574528679
51
225.00292346501135
0
LINE
8
0
6
CONTINUOUS
10
408.97
20
67.83
30
0
11
411.68
21
65.12
31
0
0
ARC
8
0
6
CONTINUOUS
10
409.55736129319246
20
62.999998839537504
30
0
40
3.0
50
270.05039559431293
51
44.96438060756961
0
LINE
8
0
6
CONTINUOUS
10
409.56
20
60.0
30
0
11
379.82
21
60.0
31
0
0
ARC
8
0
6
CONTINUOUS
10
379.8111589399711
20
56.49001113453938
30
0
40
3.51
50
89.85568206218947
51
159.66092646278184
0
ARC
8
0
6
CONTINUOUS
10
375.09000000000003
20
58.80320629343233
30
0
40
1.8
50
217.3971865212932
51
322.6028134787057
0
ARC
8
0
6
CONTINUOUS
10
370.3684515813843
20
56.491062344535905
30
0
40
3.51
50
20.320774107396844
51
94.5501088976594
0
LINE
8
0
6
CONTINUOUS
10
370.09
20
60.0
30
0
11
364.58
21
60.0
31
0
0
ARC
8
0
6
CONTINUOUS
10
364.5821125848715
20
43.80000013774737
30
0
40
16.2
50
90.00747174057673
51
156.99940222425184
0
LINE
8
0
6
CONTINUOUS
10
349.67
20
50.13
30
0
11
348.65
21
47.73
31
0
0
ARC
8
0
6
CONTINUOUS
10
346.535923515034
20
48.63591424302421
30
0
40
2.3
50
287.3029816275833
51
336.8041236123949
0
ARC
8
0
6
CONTINUOUS
10
347.4115822039549
20
41.743906276581804
30
0
40
4.7
50
92.33614760948343
51
221.6563165846366
0
ARC
8
0
6
CONTINUOUS
10
341.8434556520541
20
37.59013333633329
30
0
40
2.3
50
336.9607064696548
51
26.600578422342522
0
LINE
8
0
6
CONTINUOUS
10
343.96
20
36.69
30
0
11
336.15
21
18.28
31
0
0
ARC
8
0
6
CONTINUOUS
10
334.0310181061099
20
19.17438008327902
30
0
40
2.3
50
287.43101819656374
51
337.11635981562654
0
ARC
8
0
6
CONTINUOUS
10
334.9115822039549
20
12.283906276581803
30
0
40
4.7
50
92.33614760948343
51
221.65631658463658
0
ARC
8
0
6
CONTINUOUS
10
329.3434556520541
20
8.130133336333287
30
0
40
2.3
50
336.9607064696549
51
26.6005784223426
0
LINE
8
0
6
CONTINUOUS
10
331.46
20
7.23
30
0
11
329.93
21
3.64
31
0
0
ARC
8
0
6
CONTINUOUS
10
326.245477414723
20
5.1970142319785815
30
0
40
4.0
50
272.2139238766319
51
337.09193842660056
0
LINE
8
0
6
CONTINUOUS
10
326.4
20
1.2
30
0
11
314.34
21
1.2
31
0
0
ARC
8
0
6
CONTINUOUS
10
314.336854612396
20
5.199998763316911
30
0
40
4.0
50
225.03184571835337
51
270.04505436330334
0
LINE
8
0
6
CONTINUOUS
10
311.51
20
2.37
30
0
11
308.2
21
5.68
31
0
0
ARC
8
0
6
CONTINUOUS
10
304.52609052692446
20
2.0000014696136423
30
0
40
5.2
50
45.047441061981054
51
89.95692378299067
0
LINE
8
0
6
CONTINUOUS
10
304.53
20
7.2
30
0
11
299.84
21
7.2
31
0
0
ARC
8
0
6
CONTINUOUS
10
299.84390947307554
20
2.0000014696136432
30
0
40
5.2
50
90.04307621700995
51
134.95255893801894
0
LINE
8
0
6
CONTINUOUS
10
296.17
20
5.68
30
0
11
292.86
21
2.37
31
0
0
ARC
8
0
6
CONTINUOUS
10
290.03314538760395
20
5.199998763316911
30
0
40
4.0
50
269.95494563669666
51
314.9681542816472
0
LINE
8
0
6
CONTINUOUS
10
290.03
20
1.2
30
0
11
249.36
21
1.2
31
0
0
ARC
8
0
6
CONTINUOUS
10
249.35685461239603
20
5.199998763316912
30
0
40
4.0
50
225.0318457183531
51
270.04505436330334
0
LINE
8
0
6
CONTINUOUS
10
246.53
20
2.37
30
0
11
243.23
21
5.68
31
0
0
ARC
8
0
6
CONTINUOUS
10
239.5560884287428
20
2.0000035643247367
30
0
40
5.2
50
45.04740839430854
51
90.06708487510244
0
LINE
8
0
6
CONTINUOUS
10
239.55
20
7.2
30
0
11
234.87
21
7.2
31
0
0
ARC
8
0
6
CONTINUOUS
10
234.86391157125718
20
2.0000035643247367
30
0
40
5.2
50
89.93291512489725
51
134.95259160569148
0
LINE
8
0
6
CONTINUOUS
10
231.19
20
5.68
30
0
11
227.89
21
2.37
31
0
0
ARC
8
0
6
CONTINUOUS
10
225.06314538760395
20
5.199998763316911
30
0
40
4.0
50
269.95494563669706
51
314.9681542816469
0
LINE
8
0
6
CONTINUOUS
10
225.06
20
1.2
30
0
11
213.15
21
1.2
31
0
0
ARC
8
0
6
CONTINUOUS
10
213.15325998875105
20
5.199998671558948
30
0
40
4.0
50
202.95447873652748
51
269.9533040956569
0
LINE
8
0
6
CONTINUOUS
10
209.47
20
3.64
30
0
11
207.94
21
7.23
31
0
0
ARC
8
0
6
CONTINUOUS
10
210.05654434794585
20
8.130133336333287
30
0
40
2.3
50
153.3994215776571
51
203.0392935303454
0
ARC
8
0
6
CONTINUOUS
10
204.4884177960451
20
12.283906276581803
30
0
40
4.7
50
318.34368341536344
51
87.66385239051588
0
ARC
8
0
6
CONTINUOUS
10
205.36898189389004
20
19.17438008327904
30
0
40
2.3
50
202.8836401843742
51
252.56898180343842
0
LINE
8
0
6
CONTINUOUS
10
203.25
20
18.28
30
0
11
195.44
21
36.69
31
0
0
ARC
8
0
6
CONTINUOUS
10
197.55654434794585
20
37.59013333633329
30
0
40
2.3
50
153.39942157765717
51
203.03929353034547
0
ARC
8
0
6
CONTINUOUS
10
191.9884177960451
20
41.743906276581804
30
0
40
4.7
50
318.3436834153634
51
87.66385239051587
0
ARC
8
0
6
CONTINUOUS
10
192.86407648496592
20
48.635914243024224
30
0
40
2.3
50
203.19587638760567
51
252.69701837241882
0
LINE
8
0
6
CONTINUOUS
10
190.75
20
47.73
30
0
11
189.73
21
50.13
31
0
0
ARC
8
0
6
CONTINUOUS
10
174.81788741512852
20
43.80000013774737
30
0
40
16.2
50
23.000597775748165
51
89.99252825942338
0
LINE
8
0
6
CONTINUOUS
10
174.82
20
60.0
30
0
11
169.31
21
60.0
31
0
0
ARC
8
0
6
CONTINUOUS
10
169.03154841861573
20
56.491062344535905
30
0
40
3.51
50
85.44989110234152
51
159.67922589260317
0
ARC
8
0
6
CONTINUOUS
10
164.31
20
58.8032062934323
30
0
40
1.8
50
217.3971865212923
51
322.60281347870773
0
ARC
8
0
6
CONTINUOUS
10
159.58884106002884
20
56.49001113453938
30
0
40
3.51
50
20.339073537218013
51
90.14431793780962
0
LINE
8
0
6
CONTINUOUS
10
159.58
20
60.0
30
0
11
129.86
21
60.0
31
0
0
ARC
8
0
6
CONTINUOUS
10
129.86263870680756
20
62.999998839537504
30
0
40
3.0
50
135.0356193924306
51
269.94960440568707
0
LINE
8
0
6
CONTINUOUS
10
127.74
20
65.12
30
0
11
130.45
21
67.82
31
0
0
ARC
8
0
6
CONTINUOUS
10
127.49033787080297
20
70.80000001359008
30
0
40
4.2
50
314.80381537569906
51
90.00460918358388
0
LINE
8
0
6
CONTINUOUS
10
127.49
20
75.0
30
0
11
111.94
21
75.0
31
0
0
ARC
8
0
6
CONTINUOUS
10
111.93969694330139
20
70.80000001093373
30
0
40
4.2
50
89.99586574528603
51
225.0029234650116
0
LINE
8
0
6
CONTINUOUS
10
108.97
20
67.83
30
0
11
111.68
21
65.12
31
0
0
ARC
8
0
6
CONTINUOUS
10
109.55736129319244
20
62.999998839537504
30
0
40
3.0
50
270.0503955943132
51
44.96438060756942
0
LINE
8
0
6
CONTINUOUS
10
109.56
20
60.0
30
0
11
79.82
21
60.0
31
0
0
ARC
8
0
6
CONTINUOUS
10
79.81115893997115
20
56.49001113453938
30
0
40
3.51
50
89.85568206219017
51
159.660926462782
0
ARC
8
0
6
CONTINUOUS
10
75.09
20
58.803206293432304
30
0
40
1.8
50
217.39718652129247
51
322.6028134787073
0
ARC
8
0
6
CONTINUOUS
10
70.36845158138426
20
56.491062344535905
30
0
40
3.51
50
20.320774107396765
51
94.55010889765826
0
LINE
8
0
6
CONTINUOUS
10
70.09
20
60.0
30
0
11
64.58
21
60.0
31
0
0
ARC
8
0
6
CONTINUOUS
10
64.58211258487145
20
43.80000013774737
30
0
40
16.2
50
90.00747174057659
51
156.99940222425184
0
LINE
8
0
6
CONTINUOUS
10
49.67
20
50.13
30
0
11
48.65
21
47.73
31
0
0
ARC
8
0
6
CONTINUOUS
10
46.535923515034085
20
48.635914243024224
30
0
40
2.3
50
287.3029816275812
51
336.8041236123943
0
ARC
8
0
6
CONTINUOUS
10
47.411582203954914
20
41.743906276581804
30
0
40
4.7
50
92.33614760948421
51
221.65631658463647
0
ARC
8
0
6
CONTINUOUS
10
41.84345565205415
20
37.59013333633329
30
0
40
2.3
50
336.9607064696545
51
26.60057842234284
0
LINE
8
0
6
CONTINUOUS
10
43.96
20
36.69
30
0
11
36.15
21
18.28
31
0
0
ARC
8
0
6
CONTINUOUS
10
34.03101810610997
20
19.174380083279036
30
0
40
2.3
50
287.4310181965616
51
337.1163598156258
0
ARC
8
0
6
CONTINUOUS
10
34.911582203954914
20
12.283906276581803
30
0
40
4.7
50
92.33614760948421
51
221.65631658463644
0
ARC
8
0
6
CONTINUOUS
10
29.343455652054157
20
8.130133336333287
30
0
40
2.3
50
336.96070646965455
51
26.600578422342956
0
LINE
8
0
6
CONTINUOUS
10
31.46
20
7.23
30
0
11
29.93
21
3.64
31
0
0
ARC
8
0
6
CONTINUOUS
10
26.24674001124896
20
5.199998671558948
30
0
40
4.0
50
270.0466959043431
51
337.04552126347244
0
LINE
8
0
6
CONTINUOUS
10
26.25
20
1.2
30
0
11
-1.57
21
1.2
31
0
0
ARC
8
0
6
CONTINUOUS
10
-1.5681540207703835
20
4.349999459104824
30
0
40
3.15
50
193.58693440034958
51
269.9664232301652
0
LINE
8
0
6
CONTINUOUS
10
-4.63
20
3.61
30
0
11
-6.34
21
10.71
31
0
0
ARC
8
0
6
CONTINUOUS
10
-3.2781542821850795
20
11.450000540741991
30
0
40
3.15
50
90.03357201492645
51
193.58695464083445
0
LINE
8
0
6
CONTINUOUS
10
-3.28
20
14.6
30
0
11
4.56
21
14.6
31
0
0
ARC
8
0
6
CONTINUOUS
10
4.56
20
12.85
30
0
40
1.75
50
0.0
51
90.0
0
LINE
8
0
6
CONTINUOUS
10
6.31
20
12.85
30
0
11
6.31
21
7.8
31
0
0
LINE
8
0
6
CONTINUOUS
10
6.31
20
7.8
30
0
11
7.51
21
7.8
31
0
0
LINE
8
0
6
CONTINUOUS
10
7.51
20
7.8
30
0
11
7.51
21
12.85
31
0
0
ARC
8
0
6
CONTINUOUS
10
4.56
20
12.85
30
0
40
2.95
50
0.0
51
90.0
0
LINE
8
0
6
CONTINUOUS
10
4.56
20
15.8
30
0
11
-3.28
21
15.8
31
0
0
ARC
8
0
6
CONTINUOUS
10
-2.9548647450193086
20
11.191454994689902
30
0
40
4.62
50
94.03556050604415
51
189.61236906688782
0
LINE
8
0
6
CONTINUOUS
10
-7.51
20
10.42
30
0
11
-5.8
21
3.33
31
0
0
ARC
8
0
6
CONTINUOUS
10
-1.57127467770645
20
4.349991249272907
30
0
40
4.35
50
193.56101657043695
51
269.88507483274986
0
LINE
8
0
6
CONTINUOUS
10
-1.58
20
-0.0
30
0
11
26.25
21
-0.0
31
0
0
ARC
8
0
6
CONTINUOUS
10
26.25261003683491
20
5.199999344971856
30
0
40
5.2
50
269.9712415189821
51
337.02157443180556
0
LINE
8
0
6
CONTINUOUS
10
31.04
20
3.17
30
0
11
32.57
21
6.76
31
0
0
ARC
8
0
6
CONTINUOUS
10
29.34849268743971
20
8.128170543141659
30
0
40
3.5
50
336.989123007795
51
29.657117882475937
0
ARC
8
0
6
CONTINUOUS
10
34.908937185580044
20
12.29001141048804
30
0
40
3.5
50
90.14630387740803
51
223.97058470921132
0
ARC
8
0
6
CONTINUOUS
10
34.02925123338174
20
19.179955248293517
30
0
40
3.5
50
284.4056478042444
51
336.9573775853827
0
LINE
8
0
6
CONTINUOUS
10
37.25
20
17.81
30
0
11
45.07
21
36.22
31
0
0
LINE
8
0
6
CONTINUOUS
10
45.07
20
36.22
30
0
11
49.76
21
47.27
31
0
0
LINE
8
0
6
CONTINUOUS
10
49.76
20
47.27
30
0
11
50.97
21
50.13
31
0
0
ARC
8
0
6
CONTINUOUS
10
64.57893747600966
20
43.800000037631904
30
0
40
15.0
50
89.9959414573114
51
155.03907977277962
0
LINE
8
0
6
CONTINUOUS
10
64.58
20
58.8
30
0
11
70.37
21
58.8
31
0
0
ARC
8
0
6
CONTINUOUS
10
70.3692987215273
20
56.49000010644838
30
0
40
2.31
50
16.860544992692237
51
89.98260593187598
0
ARC
8
0
6
CONTINUOUS
10
75.09
20
58.80313724320277
30
0
40
3.0
50
213.21021614810576
51
326.78978385189413
0
ARC
8
0
6
CONTINUOUS
10
79.81070691144801
20
56.49001869303988
30
0
40
2.31
50
89.7694994853149
51
163.13993672408344
0
LINE
8
0
6
CONTINUOUS
10
79.82
20
58.8
30
0
11
109.56
21
58.8
31
0
0
ARC
8
0
6
CONTINUOUS
10
109.56030305669861
20
62.99999998906626
30
0
40
4.2
50
269.995865745286
51
45.00292346501168
0
LINE
8
0
6
CONTINUOUS
10
112.53
20
65.97
30
0
11
109.82
21
68.68
31
0
0
ARC
8
0
6
CONTINUOUS
10
111.94263870680757
20
70.8000011604625
30
0
40
3.0
50
90.05039559431349
51
224.96438060756913
0
LINE
8
0
6
CONTINUOUS
10
111.94
20
73.8
30
0
11
127.46
21
73.8
31
0
0
ARC
8
0
6
CONTINUOUS
10
127.45736129319245
20
70.8000011604625
30
0
40
3.0
50
315.0356193924307
51
89.94960440568705
0
LINE
8
0
6
CONTINUOUS
10
129.58
20
68.68
30
0
11
126.87
21
65.97
31
0
0
ARC
8
0
6
CONTINUOUS
10
129.83969694330142
20
62.99999998906626
30
0
40
4.2
50
134.9970765349886
51
270.0041342547136
0
LINE
8
0
6
CONTINUOUS
10
129.84
20
58.8
30
0
11
159.58
21
58.8
31
0
0
ARC
8
0
6
CONTINUOUS
10
159.58929308855198
20
56.49001869303988
30
0
40
2.31
50
16.860063275916467
51
90.23050051468476
0
ARC
8
0
6
CONTINUOUS
10
164.31
20
58.803137243202784
30
0
40
3.0
50
213.2102161481061
51
326.7897838518939
0
ARC
8
0
6
CONTINUOUS
10
169.0307012784727
20
56.49000010644838
30
0
40
2.31
50
90.01739406812368
51
163.1394550073078
0
LINE
8
0
6
CONTINUOUS
10
169.03
20
58.8
30
0
11
174.82
21
58.8
31
0
0
ARC
8
0
6
CONTINUOUS
10
174.82106252399035
20
43.800000037631904
30
0
40
15.0
50
24.960920227220427
51
90.00405854268864
0
LINE
8
0
6
CONTINUOUS
10
188.43
20
50.13
30
0
11
189.64
21
47.27
31
0
0
LINE
8
0
6
CONTINUOUS
10
189.64
20
47.27
30
0
11
194.33
21
36.22
31
0
0
LINE
8
0
6
CONTINUOUS
10
194.33
20
36.22
30
0
11
202.15
21
17.81
31
0
0
ARC
8
0
6
CONTINUOUS
10
205.37074876661825
20
19.179955248293517
30
0
40
3.5
50
203.0426224146174
51
255.59435219575573
0
ARC
8
0
6
CONTINUOUS
10
204.49106281441993
20
12.290011410488042
30
0
40
3.5
50
316.02941529078885
51
89.85369612259163
0
ARC
8
0
6
CONTINUOUS
10
210.05150731256032
20
8.12817054314168
30
0
40
3.5
50
150.34288211752465
51
203.01087699220523
0
LINE
8
0
6
CONTINUOUS
10
206.83
20
6.76
30
0
11
208.36
21
3.17
31
0
0
ARC
8
0
6
CONTINUOUS
10
213.1473899631651
20
5.199999344971856
30
0
40
5.2
50
202.97842556819447
51
270.0287584810179
0
LINE
8
0
6
CONTINUOUS
10
213.15
20
-0.0
30
0
11
225.07
21
-0.0
31
0
0
ARC
8
0
6
CONTINUOUS
10
225.06609052692446
20
5.199998530386357
30
0
40
5.2
50
270.0430762170096
51
314.9525589380192
0
LINE
8
0
6
CONTINUOUS
10
228.74
20
1.52
30
0
11
232.04
21
4.83
31
0
0
ARC
8
0
6
CONTINUOUS
10
234.86685461239603
20
2.0000012366830884
30
0
40
4.0
50
89.95494563669665
51
134.9681542816469
0
LINE
8
0
6
CONTINUOUS
10
234.87
20
6.0
30
0
11
239.55
21
6.0
31
0
0
ARC
8
0
6
CONTINUOUS
10
239.55314538760396
20
2.000001236683089
30
0
40
4.0
50
45.0318457183531
51
90.04505436330295
0
LINE
8
0
6
CONTINUOUS
10
242.38
20
4.83
30
0
11
245.69
21
1.52
31
0
0
ARC
8
0
6
CONTINUOUS
10
249.36390947307555
20
5.199998530386357
30
0
40
5.2
50
225.04744106198083
51
269.9569237829903
0
LINE
8
0
6
CONTINUOUS
10
249.36
20
-0.0
30
0
11
290.03
21
-0.0
31
0
0
ARC
8
0
6
CONTINUOUS
10
290.03608842874286
20
5.1999964356752635
30
0
40
5.2
50
269.9329151248966
51
314.952591605691
0
LINE
8
0
6
CONTINUOUS
10
293.71
20
1.52
30
0
11
297.02
21
4.83
31
0
0
ARC
8
0
6
CONTINUOUS
10
299.8468592620599
20
2.0000058811888253
30
0
40
4.0
50
90.09825173980539
51
134.96824841820288
0
LINE
8
0
6
CONTINUOUS
10
299.84
20
6.0
30
0
11
304.53
21
6.0
31
0
0
ARC
8
0
6
CONTINUOUS
10
304.5231407379401
20
2.0000058811888244
30
0
40
4.0
50
45.03175158179714
51
89.90174826019542
0
LINE
8
0
6
CONTINUOUS
10
307.35
20
4.83
30
0
11
310.66
21
1.52
31
0
0
ARC
8
0
6
CONTINUOUS
10
314.3339115712572
20
5.1999964356752635
30
0
40
5.2
50
225.04740839430852
51
270.0670848751021
0
LINE
8
0
6
CONTINUOUS
10
314.34
20
-0.0
30
0
11
326.25
21
-0.0
31
0
0
ARC
8
0
6
CONTINUOUS
10
326.2526100368349
20
5.199999344971856
30
0
40
5.2
50
269.9712415189824
51
337.0215744318058
0
LINE
8
0
6
CONTINUOUS
10
331.04
20
3.17
30
0
11
332.57
21
6.76
31
0
0
ARC
8
0
6
CONTINUOUS
10
329.3484926874397
20
8.128170543141652
30
0
40
3.5
50
336.989123007795
51
29.65711788247621
0
ARC
8
0
6
CONTINUOUS
10
334.90893718558004
20
12.290011410488042
30
0
40
3.5
50
90.14630387740837
51
223.97058470921115
0
ARC
8
0
6
CONTINUOUS
10
334.02925123338173
20
19.179955248293524
30
0
40
3.5
50
284.4056478042442
51
336.9573775853827
0
LINE
8
0
6
CONTINUOUS
10
337.25
20
17.81
30
0
11
345.07
21
36.22
31
0
0
LINE
8
0
6
CONTINUOUS
10
345.07
20
36.22
30
0
11
349.76
21
47.27
31
0
0
LINE
8
0
6
CONTINUOUS
10
349.76
20
47.27
30
0
11
350.98
21
50.13
31
0
0
ARC
8
0
6
CONTINUOUS
10
364.5789374760096
20
43.800000037631904
30
0
40
15.0
50
89.99594145731135
51
155.03907977277953
0
LINE
8
0
6
CONTINUOUS
10
364.58
20
58.8
30
0
11
370.37
21
58.8
31
0
0
ARC
8
0
6
CONTINUOUS
10
370.36929872152734
20
56.49000010644838
30
0
40
2.31
50
16.860544992692642
51
89.98260593187703
0
ARC
8
0
6
CONTINUOUS
10
375.09000000000003
20
58.803137243202734
30
0
40
3.0
50
213.21021614810473
51
326.7897838518947
0
ARC
8
0
6
CONTINUOUS
10
379.81070691144805
20
56.49001869303988
30
0
40
2.31
50
89.76949948531595
51
163.13993672408353
0
LINE
8
0
6
CONTINUOUS
10
379.82
20
58.8
30
0
11
409.56
21
58.8
31
0
0
ARC
8
0
6
CONTINUOUS
10
409.56030305669856
20
62.99999998906626
30
0
40
4.2
50
269.9958657452868
51
45.00292346501141
0
LINE
8
0
6
CONTINUOUS
10
412.53
20
65.97
30
0
11
409.82
21
68.68
31
0
0
ARC
8
0
6
CONTINUOUS
10
411.94263870680754
20
70.8000011604625
30
0
40
3.0
50
90.05039559431295
51
224.9643806075695
0
LINE
8
0
6
CONTINUOUS
10
411.94
20
73.8
30
0
11
427.46
21
73.8
31
0
0
ARC
8
0
6
CONTINUOUS
10
427.45736129319243
20
70.8000011604625
30
0
40
3.0
50
315.0356193924305
51
89.94960440568705
0
LINE
8
0
6
CONTINUOUS
10
429.58
20
68.68
30
0
11
426.87
21
65.97
31
0
0
ARC
8
0
6
CONTINUOUS
10
429.8396969433014
20
62.99999998906626
30
0
40
4.2
50
134.9970765349886
51
270.0041342547132
0
LINE
8
0
6
CONTINUOUS
10
429.84
20
58.8
30
0
11
459.58
21
58.8
31
0
0
ARC
8
0
6
CONTINUOUS
10
459.589293088552
20
56.49001869303988
30
0
40
2.31
50
16.860063275916467
51
90.23050051468547
0
ARC
8
0
6
CONTINUOUS
10
464.31
20
58.803137243202784
30
0
40
3.0
50
213.2102161481061
51
326.7897838518939
0
ARC
8
0
6
CONTINUOUS
10
469.03070127847263
20
56.49000010644838
30
0
40
2.31
50
90.01739406812298
51
163.13945500730736
0
LINE
8
0
6
CONTINUOUS
10
469.03
20
58.8
30
0
11
474.82
21
58.8
31
0
0
ARC
8
0
6
CONTINUOUS
10
474.82106252399035
20
43.800000037631904
30
0
40
15.0
50
24.960920227220385
51
90.00405854268864
0
LINE
8
0
6
CONTINUOUS
10
488.42
20
50.13
30
0
11
489.64
21
47.27
31
0
0
LINE
8
0
6
CONTINUOUS
10
489.64
20
47.27
30
0
11
494.33
21
36.22
31
0
0
LINE
8
0
6
CONTINUOUS
10
494.33
20
36.22
30
0
11
502.15
21
17.81
31
0
0
ARC
8
0
6
CONTINUOUS
10
505.37074876661825
20
19.179955248293524
30
0
40
3.5
50
203.0426224146173
51
255.59435219575576
0
ARC
8
0
6
CONTINUOUS
10
504.49106281441993
20
12.290011410488042
30
0
40
3.5
50
316.02941529078885
51
89.85369612259163
0
ARC
8
0
6
CONTINUOUS
10
510.05150731256026
20
8.128170543141652
30
0
40
3.5
50
150.3428821175238
51
203.010876992205
0
LINE
8
0
6
CONTINUOUS
10
506.83
20
6.76
30
0
11
508.36
21
3.17
31
0
0
ARC
8
0
6
CONTINUOUS
10
513.1473899631651
20
5.199999344971856
30
0
40
5.2
50
202.97842556819447
51
270.0287584810176
0
LINE
8
0
6
CONTINUOUS
10
513.15
20
-0.0
30
0
11
525.04
21
-0.0
31
0
0
ARC
8
0
6
CONTINUOUS
10
525.0460884287429
20
5.1999964356752635
30
0
40
5.2
50
269.932915124896
51
314.952591605691
0
LINE
8
0
6
CONTINUOUS
10
528.72
20
1.52
30
0
11
532.02
21
4.83
31
0
0
ARC
8
0
6
CONTINUOUS
10
534.846854612396
20
2.000001236683089
30
0
40
4.0
50
89.95494563669583
51
134.96815428164663
0
LINE
8
0
6
CONTINUOUS
10
534.85
20
6.0
30
0
11
539.53
21
6.0
31
0
0
ARC
8
0
6
CONTINUOUS
10
539.5331453876039
20
2.000001236683089
30
0
40
4.0
50
45.03184571835224
51
90.04505436330254
0
LINE
8
0
6
CONTINUOUS
10
542.36
20
4.83
30
0
11
545.67
21
1.52
31
0
0
ARC
8
0
6
CONTINUOUS
10
549.3439094730755
20
5.199998530386357
30
0
40
5.2
50
225.0474410619806
51
269.95692378299066
0
LINE
8
0
6
CONTINUOUS
10
549.34
20
-0.0
30
0
11
587.56
21
-0.0
31
0
0
LINE
8
0
6
CONTINUOUS
10
49.76
20
47.27
30
0
11
45.07
21
36.22
31
0
0
LINE
8
0
6
CONTINUOUS
10
45.07
20
36.22
30
0
11
37.25
21
17.81
31
0
0
ARC
8
0
6
CONTINUOUS
10
34.02925123338174
20
19.179955248293517
30
0
40
3.5
50
284.4056478042444
51
336.9573775853827
0
ARC
8
0
6
CONTINUOUS
10
34.908937185580044
20
12.29001141048804
30
0
40
3.5
50
90.14630387740803
51
223.97058470921132
0
ARC
8
0
6
CONTINUOUS
10
29.34849268743971
20
8.128170543141659
30
0
40
3.5
50
336.989123007795
51
29.657117882475937
0
LINE
8
0
6
CONTINUOUS
10
32.57
20
6.76
30
0
11
31.04
21
3.17
31
0
0
ARC
8
0
6
CONTINUOUS
10
26.25261003683491
20
5.199999344971856
30
0
40
5.2
50
269.9712415189821
51
337.02157443180556
0
LINE
8
0
6
CONTINUOUS
10
26.25
20
-0.0
30
0
11
213.15
21
-0.0
31
0
0
ARC
8
0
6
CONTINUOUS
10
213.1473899631651
20
5.199999344971856
30
0
40
5.2
50
202.97842556819447
51
270.0287584810179
0
LINE
8
0
6
CONTINUOUS
10
208.36
20
3.17
30
0
11
206.83
21
6.76
31
0
0
ARC
8
0
6
CONTINUOUS
10
210.05150731256032
20
8.12817054314168
30
0
40
3.5
50
150.34288211752465
51
203.01087699220523
0
ARC
8
0
6
CONTINUOUS
10
204.49106281441993
20
12.290011410488042
30
0
40
3.5
50
316.02941529078885
51
89.85369612259163
0
ARC
8
0
6
CONTINUOUS
10
205.37074876661825
20
19.179955248293517
30
0
40
3.5
50
203.0426224146174
51
255.59435219575573
0
LINE
8
0
6
CONTINUOUS
10
202.15
20
17.81
30
0
11
194.33
21
36.22
31
0
0
LINE
8
0
6
CONTINUOUS
10
194.33
20
36.22
30
0
11
189.64
21
47.27
31
0
0
LINE
8
0
6
CONTINUOUS
10
189.64
20
47.27
30
0
11
188.43
21
50.13
31
0
0
ARC
8
0
6
CONTINUOUS
10
174.82106252399035
20
43.800000037631904
30
0
40
15.0
50
24.960920227220427
51
90.00405854268864
0
LINE
8
0
6
CONTINUOUS
10
174.82
20
58.8
30
0
11
169.03
21
58.8
31
0
0
ARC
8
0
6
CONTINUOUS
10
169.0307012784727
20
56.49000010644838
30
0
40
2.31
50
90.01739406812368
51
163.1394550073078
0
ARC
8
0
6
CONTINUOUS
10
164.31
20
58.803137243202784
30
0
40
3.0
50
213.2102161481061
51
326.7897838518939
0
ARC
8
0
6
CONTINUOUS
10
159.58929308855198
20
56.49001869303988
30
0
40
2.31
50
16.860063275916467
51
90.23050051468476
0
LINE
8
0
6
CONTINUOUS
10
159.58
20
58.8
30
0
11
129.84
21
58.8
31
0
0
ARC
8
0
6
CONTINUOUS
10
129.83969694330142
20
62.99999998906626
30
0
40
4.2
50
134.9970765349886
51
270.0041342547136
0
LINE
8
0
6
CONTINUOUS
10
126.87
20
65.97
30
0
11
129.58
21
68.68
31
0
0
ARC
8
0
6
CONTINUOUS
10
127.45736129319245
20
70.8000011604625
30
0
40
3.0
50
315.0356193924307
51
89.94960440568705
0
LINE
8
0
6
CONTINUOUS
10
127.46
20
73.8
30
0
11
111.94
21
73.8
31
0
0
ARC
8
0
6
CONTINUOUS
10
111.94263870680757
20
70.8000011604625
30
0
40
3.0
50
90.05039559431349
51
224.96438060756913
0
LINE
8
0
6
CONTINUOUS
10
109.82
20
68.68
30
0
11
112.53
21
65.97
31
0
0
ARC
8
0
6
CONTINUOUS
10
109.56030305669861
20
62.99999998906626
30
0
40
4.2
50
269.995865745286
51
45.00292346501168
0
LINE
8
0
6
CONTINUOUS
10
109.56
20
58.8
30
0
11
79.82
21
58.8
31
0
0
ARC
8
0
6
CONTINUOUS
10
79.81070691144801
20
56.49001869303988
30
0
40
2.31
50
89.7694994853149
51
163.13993672408344
0
ARC
8
0
6
CONTINUOUS
10
75.09
20
58.80313724320277
30
0
40
3.0
50
213.21021614810576
51
326.78978385189413
0
ARC
8
0
6
CONTINUOUS
10
70.3692987215273
20
56.49000010644838
30
0
40
2.31
50
16.860544992692237
51
89.98260593187598
0
LINE
8
0
6
CONTINUOUS
10
70.37
20
58.8
30
0
11
64.58
21
58.8
31
0
0
ARC
8
0
6
CONTINUOUS
10
64.57893747600966
20
43.800000037631904
30
0
40
15.0
50
89.9959414573114
51
155.03907977277962
0
LINE
8
0
6
CONTINUOUS
10
50.97
20
50.13
30
0
11
49.76
21
47.27
31
0
0
ARC
8
0
6
CONTINUOUS
10
225.06609052692446
20
5.199998530386357
30
0
40
5.2
50
270.0430762170096
51
314.9525589380192
0
LINE
8
0
6
CONTINUOUS
10
225.07
20
-0.0
30
0
11
249.35
21
-0.0
31
0
0
ARC
8
0
6
CONTINUOUS
10
249.36390947307555
20
5.199998530386357
30
0
40
5.2
50
225.04744106198083
51
269.9569237829903
0
LINE
8
0
6
CONTINUOUS
10
245.69
20
1.52
30
0
11
242.38
21
4.83
31
0
0
ARC
8
0
6
CONTINUOUS
10
239.55314538760396
20
2.000001236683089
30
0
40
4.0
50
45.0318457183531
51
90.04505436330295
0
LINE
8
0
6
CONTINUOUS
10
239.55
20
6.0
30
0
11
234.87
21
6.0
31
0
0
ARC
8
0
6
CONTINUOUS
10
234.86685461239603
20
2.0000012366830884
30
0
40
4.0
50
89.95494563669665
51
134.9681542816469
0
LINE
8
0
6
CONTINUOUS
10
232.04
20
4.83
30
0
11
228.74
21
1.52
31
0
0
ARC
8
0
6
CONTINUOUS
10
290.03608842874286
20
5.1999964356752635
30
0
40
5.2
50
269.9329151248966
51
314.952591605691
0
LINE
8
0
6
CONTINUOUS
10
290.03
20
-0.0
30
0
11
314.34
21
-0.0
31
0
0
ARC
8
0
6
CONTINUOUS
10
314.3339115712572
20
5.1999964356752635
30
0
40
5.2
50
225.04740839430852
51
270.0670848751021
0
LINE
8
0
6
CONTINUOUS
10
310.66
20
1.52
30
0
11
307.35
21
4.83
31
0
0
ARC
8
0
6
CONTINUOUS
10
304.5231407379401
20
2.0000058811888244
30
0
40
4.0
50
45.03175158179714
51
89.90174826019542
0
LINE
8
0
6
CONTINUOUS
10
304.53
20
6.0
30
0
11
299.84
21
6.0
31
0
0
ARC
8
0
6
CONTINUOUS
10
299.8468592620599
20
2.0000058811888253
30
0
40
4.0
50
90.09825173980539
51
134.96824841820288
0
LINE
8
0
6
CONTINUOUS
10
297.02
20
4.83
30
0
11
293.71
21
1.52
31
0
0
ARC
8
0
6
CONTINUOUS
10
326.2526100368349
20
5.199999344971856
30
0
40
5.2
50
269.9712415189824
51
337.0215744318058
0
LINE
8
0
6
CONTINUOUS
10
326.25
20
-0.0
30
0
11
513.15
21
-0.0
31
0
0
ARC
8
0
6
CONTINUOUS
10
513.1473899631651
20
5.199999344971856
30
0
40
5.2
50
202.97842556819447
51
270.0287584810176
0
LINE
8
0
6
CONTINUOUS
10
508.36
20
3.17
30
0
11
506.83
21
6.76
31
0
0
ARC
8
0
6
CONTINUOUS
10
510.05150731256026
20
8.128170543141652
30
0
40
3.5
50
150.3428821175238
51
203.010876992205
0
ARC
8
0
6
CONTINUOUS
10
504.49106281441993
20
12.290011410488042
30
0
40
3.5
50
316.02941529078885
51
89.85369612259163
0
ARC
8
0
6
CONTINUOUS
10
505.37074876661825
20
19.179955248293524
30
0
40
3.5
50
203.0426224146173
51
255.59435219575576
0
LINE
8
0
6
CONTINUOUS
10
502.15
20
17.81
30
0
11
494.33
21
36.22
31
0
0
LINE
8
0
6
CONTINUOUS
10
494.33
20
36.22
30
0
11
489.64
21
47.27
31
0
0
LINE
8
0
6
CONTINUOUS
10
489.64
20
47.27
30
0
11
488.42
21
50.13
31
0
0
ARC
8
0
6
CONTINUOUS
10
474.82106252399035
20
43.800000037631904
30
0
40
15.0
50
24.960920227220385
51
90.00405854268864
0
LINE
8
0
6
CONTINUOUS
10
474.82
20
58.8
30
0
11
469.03
21
58.8
31
0
0
ARC
8
0
6
CONTINUOUS
10
469.03070127847263
20
56.49000010644838
30
0
40
2.31
50
90.01739406812298
51
163.13945500730736
0
ARC
8
0
6
CONTINUOUS
10
464.31
20
58.803137243202784
30
0
40
3.0
50
213.2102161481061
51
326.7897838518939
0
ARC
8
0
6
CONTINUOUS
10
459.589293088552
20
56.49001869303988
30
0
40
2.31
50
16.860063275916467
51
90.23050051468547
0
LINE
8
0
6
CONTINUOUS
10
459.58
20
58.8
30
0
11
429.84
21
58.8
31
0
0
ARC
8
0
6
CONTINUOUS
10
429.8396969433014
20
62.99999998906626
30
0
40
4.2
50
134.9970765349886
51
270.0041342547132
0
LINE
8
0
6
CONTINUOUS
10
426.87
20
65.97
30
0
11
429.58
21
68.68
31
0
0
ARC
8
0
6
CONTINUOUS
10
427.45736129319243
20
70.8000011604625
30
0
40
3.0
50
315.0356193924305
51
89.94960440568705
0
LINE
8
0
6
CONTINUOUS
10
427.46
20
73.8
30
0
11
411.94
21
73.8
31
0
0
ARC
8
0
6
CONTINUOUS
10
411.94263870680754
20
70.8000011604625
30
0
40
3.0
50
90.05039559431295
51
224.9643806075695
0
LINE
8
0
6
CONTINUOUS
10
409.82
20
68.68
30
0
11
412.53
21
65.97
31
0
0
ARC
8
0
6
CONTINUOUS
10
409.56030305669856
20
62.99999998906626
30
0
40
4.2
50
269.9958657452868
51
45.00292346501141
0
LINE
8
0
6
CONTINUOUS
10
409.56
20
58.8
30
0
11
379.82
21
58.8
31
0
0
ARC
8
0
6
CONTINUOUS
10
379.81070691144805
20
56.49001869303988
30
0
40
2.31
50
89.76949948531595
51
163.13993672408353
0
ARC
8
0
6
CONTINUOUS
10
375.09000000000003
20
58.803137243202734
30
0
40
3.0
50
213.21021614810473
51
326.7897838518947
0
ARC
8
0
6
CONTINUOUS
10
370.36929872152734
20
56.49000010644838
30
0
40
2.31
50
16.860544992692642
51
89.98260593187703
0
LINE
8
0
6
CONTINUOUS
10
370.37
20
58.8
30
0
11
364.58
21
58.8
31
0
0
ARC
8
0
6
CONTINUOUS
10
364.5789374760096
20
43.800000037631904
30
0
40
15.0
50
89.99594145731135
51
155.03907977277953
0
LINE
8
0
6
CONTINUOUS
10
350.98
20
50.13
30
0
11
349.76
21
47.27
31
0
0
LINE
8
0
6
CONTINUOUS
10
349.76
20
47.27
30
0
11
345.07
21
36.22
31
0
0
LINE
8
0
6
CONTINUOUS
10
345.07
20
36.22
30
0
11
337.25
21
17.81
31
0
0
ARC
8
0
6
CONTINUOUS
10
334.02925123338173
20
19.179955248293524
30
0
40
3.5
50
284.4056478042442
51
336.9573775853827
0
ARC
8
0
6
CONTINUOUS
10
334.90893718558004
20
12.290011410488042
30
0
40
3.5
50
90.14630387740837
51
223.97058470921115
0
ARC
8
0
6
CONTINUOUS
10
329.3484926874397
20
8.128170543141652
30
0
40
3.5
50
336.989123007795
51
29.65711788247621
0
LINE
8
0
6
CONTINUOUS
10
332.57
20
6.76
30
0
11
331.04
21
3.17
31
0
0
ARC
8
0
6
CONTINUOUS
10
525.0460884287429
20
5.1999964356752635
30
0
40
5.2
50
269.932915124896
51
314.952591605691
0
LINE
8
0
6
CONTINUOUS
10
525.04
20
-0.0
30
0
11
549.34
21
-0.0
31
0
0
ARC
8
0
6
CONTINUOUS
10
549.3439094730755
20
5.199998530386357
30
0
40
5.2
50
225.0474410619806
51
269.95692378299066
0
LINE
8
0
6
CONTINUOUS
10
545.67
20
1.52
30
0
11
542.36
21
4.83
31
0
0
ARC
8
0
6
CONTINUOUS
10
539.5331453876039
20
2.000001236683089
30
0
40
4.0
50
45.03184571835224
51
90.04505436330254
0
LINE
8
0
6
CONTINUOUS
10
539.53
20
6.0
30
0
11
534.85
21
6.0
31
0
0
ARC
8
0
6
CONTINUOUS
10
534.846854612396
20
2.000001236683089
30
0
40
4.0
50
89.95494563669583
51
134.96815428164663
0
LINE
8
0
6
CONTINUOUS
10
532.02
20
4.83
30
0
11
528.72
21
1.52
31
0
0
ARC
8
0
6
CONTINUOUS
10
587.5000001763207
20
4.698712593763375
30
0
40
4.7
50
271.3410853535608
51
0.01569424357443691
0
LINE
8
0
6
CONTINUOUS
10
587.61
20
0.0
30
0
11
600.0
21
0.0
31
0
0
LINE
8
0
6
CONTINUOUS
10
600.0
20
0.0
30
0
11
600.0
21
16.01
31
0
0
LINE
8
0
6
CONTINUOUS
10
600.0
20
16.01
30
0
11
595.7
21
16.01
31
0
0
ARC
8
0
6
CONTINUOUS
10
595.7
20
12.510000000000003
30
0
40
3.5
50
90.0
51
180.00000000000006
0
LINE
8
0
6
CONTINUOUS
10
592.2
20
12.51
30
0
11
592.2
21
4.7
31
0
0
ENDSEC
0
EOF