0
SECTION
2
HEADER
0
ENDSEC
0
SECTION
2
TABLES
0
TABLE
2
LTYPE
70
2
0
LTYPE
2
CONTINUOUS
70
0
3
Solid line
72
65
73
0
40
0.0
0
ENDTAB
0
TABLE
2
LAYER
70
1
0
LAYER
2
0
70
0
62
7
6
CONTINUOUS
0
ENDTAB
0
ENDSEC
0
SECTION
2
ENTITIES
0
LINE
8
0
6
CONTINUOUS
10
-47.34
20
225.0
30
0
11
1011.18
21
225.0
31
0
0
LINE
8
0
6
CONTINUOUS
10
-47.34
20
210.0
30
0
11
1011.18
21
210.0
31
0
0
LINE
8
0
6
CONTINUOUS
10
-47.34
20
100.0
30
0
11
1011.18
21
100.0
31
0
0
LINE
8
0
6
CONTINUOUS
10
700.0
20
-0.05
30
0
11
700.0
21
225.0
31
0
0
LINE
8
0
6
CONTINUOUS
10
-47.34
20
95.0
30
0
11
1011.18
21
95.0
31
0
0
LINE
8
0
6
CONTINUOUS
10
-47.34
20
75.0
30
0
11
1011.18
21
75.0
31
0
0
LINE
8
0
6
CONTINUOUS
10
1000.0
20
-0.05
30
0
11
1000.0
21
225.0
31
0
0
LINE
8
0
6
CONTINUOUS
10
-47.34
20
51.0
30
0
11
1011.18
21
51.0
31
0
0
LINE
8
0
6
CONTINUOUS
10
-47.34
20
60.0
30
0
11
1011.18
21
60.0
31
0
0
LINE
8
0
6
CONTINUOUS
10
-47.34
20
160.0
30
0
11
1011.18
21
160.0
31
0
0
LINE
8
0
6
CONTINUOUS
10
-47.34
20
46.0
30
0
11
1011.18
21
46.0
31
0
0
LINE
8
0
6
CONTINUOUS
10
900.0
20
-0.05
30
0
11
900.0
21
225.0
31
0
0
LINE
8
0
6
CONTINUOUS
10
600.0
20
-0.05
30
0
11
600.0
21
225.0
31
0
0
LINE
8
0
6
CONTINUOUS
10
0.0
20
-0.05
30
0
11
0.0
21
225.0
31
0
0
LINE
8
0
6
CONTINUOUS
10
-47.34
20
0.0
30
0
11
1011.18
21
0.0
31
0
0
ARC
8
0
6
CONTINUOUS
10
653.6022563062214
20
2.749998545451463
30
0
40
1.75
50
269.9261275088044
51
319.35066594042775
0
LINE
8
0
6
CONTINUOUS
10
653.6
20
1.0
30
0
11
612.61
21
1.0
31
0
0
ARC
8
0
6
CONTINUOUS
10
612.6122774949417
20
3.999999135502674
30
0
40
3.0
50
210.22075857899046
51
269.95650304648086
0
LINE
8
0
6
CONTINUOUS
10
610.02
20
2.49
30
0
11
605.86
21
9.62
31
0
0
LINE
8
0
6
CONTINUOUS
10
605.86
20
9.62
30
0
11
577.1
21
59.0
31
0
0
ARC
8
0
6
CONTINUOUS
10
573.6358971700303
20
57.00000210415227
30
0
40
4.0
50
29.999965197607818
51
89.94123127936389
0
LINE
8
0
6
CONTINUOUS
10
573.64
20
61.0
30
0
11
522.63
21
61.0
31
0
0
ARC
8
0
6
CONTINUOUS
10
522.636253996929
20
62.74998882497072
30
0
40
1.75
50
139.7802695355814
51
269.79524091894353
0
LINE
8
0
6
CONTINUOUS
10
521.3
20
63.88
30
0
11
523.49
21
66.48
31
0
0
ARC
8
0
6
CONTINUOUS
10
521.3853428719785
20
68.25000519023781
30
0
40
2.75
50
319.93634717309396
51
90.1113178936138
0
LINE
8
0
6
CONTINUOUS
10
521.38
20
71.0
30
0
11
498.88
21
71.0
31
0
0
LINE
8
0
6
CONTINUOUS
10
498.88
20
71.0
30
0
11
476.38
21
71.0
31
0
0
ARC
8
0
6
CONTINUOUS
10
476.3846581750891
20
68.25000394520195
30
0
40
2.75
50
90.0970523274433
51
220.06361893289133
0
LINE
8
0
6
CONTINUOUS
10
474.28
20
66.48
30
0
11
476.47
21
63.88
31
0
0
ARC
8
0
6
CONTINUOUS
10
475.13373993238326
20
62.749996003682796
30
0
40
1.75
50
269.8775528546639
51
40.2194226569416
0
LINE
8
0
6
CONTINUOUS
10
475.13
20
61.0
30
0
11
424.13
21
61.0
31
0
0
ARC
8
0
6
CONTINUOUS
10
424.1341028299698
20
57.00000210415227
30
0
40
4.0
50
90.05876872063693
51
150.00003480239218
0
LINE
8
0
6
CONTINUOUS
10
420.67
20
59.0
30
0
11
387.75
21
2.49
31
0
0
ARC
8
0
6
CONTINUOUS
10
385.15772250505836
20
3.9999991355026743
30
0
40
3.0
50
270.04349695351806
51
329.7792414210084
0
LINE
8
0
6
CONTINUOUS
10
385.16
20
1.0
30
0
11
344.16
21
1.0
31
0
0
ARC
8
0
6
CONTINUOUS
10
344.167757206391
20
2.7499828072724055
30
0
40
1.75
50
220.64865491746704
51
269.7460247757001
0
ARC
8
0
6
CONTINUOUS
10
330.899104589276
20
-8.660224768239022
30
0
40
15.75
50
40.698440098323175
51
84.60478869366612
0
ARC
8
0
6
CONTINUOUS
10
333.871783010498
20
-8.659192691257719
30
0
40
15.75
50
95.4349960690337
51
139.30651191368173
0
ARC
8
0
6
CONTINUOUS
10
320.6022563062215
20
2.749998545451463
30
0
40
1.75
50
269.92612750880255
51
319.35066594042775
0
LINE
8
0
6
CONTINUOUS
10
320.6
20
1.0
30
0
11
279.61
21
1.0
31
0
0
ARC
8
0
6
CONTINUOUS
10
279.6122774949417
20
3.999999135502674
30
0
40
3.0
50
210.220758578991
51
269.95650304648194
0
LINE
8
0
6
CONTINUOUS
10
277.02
20
2.49
30
0
11
244.1
21
59.0
31
0
0
ARC
8
0
6
CONTINUOUS
10
240.63589717003023
20
57.00000210415227
30
0
40
4.0
50
29.999965197607818
51
89.94123127936348
0
LINE
8
0
6
CONTINUOUS
10
240.64
20
61.0
30
0
11
189.63
21
61.0
31
0
0
ARC
8
0
6
CONTINUOUS
10
189.6362539969291
20
62.74998882497072
30
0
40
1.75
50
139.7802695355826
51
269.79524091893984
0
LINE
8
0
6
CONTINUOUS
10
188.3
20
63.88
30
0
11
190.49
21
66.48
31
0
0
ARC
8
0
6
CONTINUOUS
10
188.38534287197862
20
68.25000519023781
30
0
40
2.75
50
319.9363471730928
51
90.11131789361558
0
LINE
8
0
6
CONTINUOUS
10
188.38
20
71.0
30
0
11
165.88
21
71.0
31
0
0
LINE
8
0
6
CONTINUOUS
10
165.88
20
71.0
30
0
11
143.38
21
71.0
31
0
0
ARC
8
0
6
CONTINUOUS
10
143.38465817508913
20
68.25000394520195
30
0
40
2.75
50
90.09705232744389
51
220.06361893289133
0
LINE
8
0
6
CONTINUOUS
10
141.28
20
66.48
30
0
11
143.47
21
63.88
31
0
0
ARC
8
0
6
CONTINUOUS
10
142.13373993238326
20
62.749996003682796
30
0
40
1.75
50
269.8775528546639
51
40.21942265694221
0
LINE
8
0
6
CONTINUOUS
10
142.13
20
61.0
30
0
11
91.13
21
61.0
31
0
0
ARC
8
0
6
CONTINUOUS
10
91.13410282996979
20
57.00000210415227
30
0
40
4.0
50
90.05876872063713
51
150.00003480239238
0
LINE
8
0
6
CONTINUOUS
10
87.67
20
59.0
30
0
11
54.75
21
2.49
31
0
0
ARC
8
0
6
CONTINUOUS
10
52.15772250505831
20
3.999999135502674
30
0
40
3.0
50
270.04349695351846
51
329.7792414210089
0
LINE
8
0
6
CONTINUOUS
10
52.16
20
1.0
30
0
11
10.09
21
1.0
31
0
0
ARC
8
0
6
CONTINUOUS
10
10.09232428914547
20
2.74999845647931
30
0
40
1.75
50
190.2033319903782
51
269.92390171568195
0
LINE
8
0
6
CONTINUOUS
10
8.37
20
2.44
30
0
11
6.36
21
13.73
31
0
0
ARC
8
0
6
CONTINUOUS
10
3.6522147691923283
20
13.250000891855159
30
0
40
2.75
50
10.052188592971527
51
90.0461443421942
0
LINE
8
0
6
CONTINUOUS
10
3.65
20
16.0
30
0
11
-3.65
21
16.0
31
0
0
ARC
8
0
6
CONTINUOUS
10
-3.6522147691923283
20
13.250000891855159
30
0
40
2.75
50
89.9538556578058
51
169.94781140702847
0
LINE
8
0
6
CONTINUOUS
10
-6.36
20
13.73
30
0
11
-7.26
21
8.67
31
0
0
LINE
8
0
6
CONTINUOUS
10
-7.26
20
8.67
30
0
11
-6.27
21
8.5
31
0
0
LINE
8
0
6
CONTINUOUS
10
-6.27
20
8.5
30
0
11
-5.37
21
13.56
31
0
0
ARC
8
0
6
CONTINUOUS
10
-3.647675710854531
20
13.25000154352069
30
0
40
1.75
50
90.07609828431802
51
169.79666800962184
0
LINE
8
0
6
CONTINUOUS
10
-3.65
20
15.0
30
0
11
3.65
21
15.0
31
0
0
ARC
8
0
6
CONTINUOUS
10
3.647675710854531
20
13.25000154352069
30
0
40
1.75
50
10.203331990378175
51
89.92390171568198
0
LINE
8
0
6
CONTINUOUS
10
5.37
20
13.56
30
0
11
7.38
21
2.27
31
0
0
ARC
8
0
6
CONTINUOUS
10
10.087785230807672
20
2.7499991081448414
30
0
40
2.75
50
190.0521885929715
51
270.0461443421942
0
LINE
8
0
6
CONTINUOUS
10
10.09
20
-0.0
30
0
11
52.3
21
0.0
31
0
0
ARC
8
0
6
CONTINUOUS
10
52.16027347985723
20
3.997558817524614
30
0
40
4.0
50
272.0018422276427
51
329.8748992142058
0
LINE
8
0
6
CONTINUOUS
10
55.62
20
1.99
30
0
11
88.54
21
58.5
31
0
0
ARC
8
0
6
CONTINUOUS
10
91.13808249740515
20
57.00001088781381
30
0
40
3.0
50
90.15436451649056
51
150.00024011036408
0
LINE
8
0
6
CONTINUOUS
10
91.13
20
60.0
30
0
11
142.13
21
60.0
31
0
0
ARC
8
0
6
CONTINUOUS
10
142.13534287197862
20
62.7499948097622
30
0
40
2.75
50
269.8886821063844
51
40.06365282690697
0
LINE
8
0
6
CONTINUOUS
10
144.24
20
64.52
30
0
11
142.05
21
67.12
31
0
0
ARC
8
0
6
CONTINUOUS
10
143.3862539969291
20
68.25001117502927
30
0
40
1.75
50
90.20475908106019
51
220.21973046441707
0
LINE
8
0
6
CONTINUOUS
10
143.38
20
70.0
30
0
11
165.88
21
70.0
31
0
0
LINE
8
0
6
CONTINUOUS
10
165.88
20
70.0
30
0
11
188.38
21
70.0
31
0
0
ARC
8
0
6
CONTINUOUS
10
188.38373993238324
20
68.2500039963172
30
0
40
1.75
50
319.78057734305855
51
90.12244714533516
0
LINE
8
0
6
CONTINUOUS
10
189.72
20
67.12
30
0
11
187.53
21
64.52
31
0
0
ARC
8
0
6
CONTINUOUS
10
189.63465817508913
20
62.749996054798046
30
0
40
2.75
50
139.93638106710867
51
269.90294767255614
0
LINE
8
0
6
CONTINUOUS
10
189.63
20
60.0
30
0
11
240.64
21
60.0
31
0
0
ARC
8
0
6
CONTINUOUS
10
240.63191750259486
20
57.00001088781381
30
0
40
3.0
50
29.999759889636067
51
89.84563548350998
0
LINE
8
0
6
CONTINUOUS
10
243.23
20
58.5
30
0
11
276.15
21
1.99
31
0
0
ARC
8
0
6
CONTINUOUS
10
279.6083090429885
20
3.9999996425830324
30
0
40
4.0
50
210.165531040105
51
270.0242211757461
0
LINE
8
0
6
CONTINUOUS
10
279.61
20
-0.0
30
0
11
320.6
21
-0.0
31
0
0
ARC
8
0
6
CONTINUOUS
10
320.6023210240685
20
2.7499990205175115
30
0
40
2.75
50
269.95164185488727
51
319.38984833431016
0
ARC
8
0
6
CONTINUOUS
10
333.86696874690347
20
-8.664856862870323
30
0
40
14.75
50
95.78589873036182
51
139.26717247179448
0
ARC
8
0
6
CONTINUOUS
10
330.9039834438342
20
-8.665962494021455
30
0
40
14.75
50
40.73849549583907
51
84.25686084434957
0
ARC
8
0
6
CONTINUOUS
10
344.167687348634
20
2.7499892553737335
30
0
40
2.75
50
220.60988366452295
51
269.8398351978149
0
LINE
8
0
6
CONTINUOUS
10
344.16
20
-0.0
30
0
11
385.16
21
-0.0
31
0
0
ARC
8
0
6
CONTINUOUS
10
385.16169095701144
20
3.999999642583033
30
0
40
4.0
50
269.9757788242555
51
329.8344689598954
0
LINE
8
0
6
CONTINUOUS
10
388.62
20
1.99
30
0
11
421.54
21
58.5
31
0
0
ARC
8
0
6
CONTINUOUS
10
424.1380824974052
20
57.00001088781381
30
0
40
3.0
50
90.15436451649164
51
150.00024011036447
0
LINE
8
0
6
CONTINUOUS
10
424.13
20
60.0
30
0
11
475.13
21
60.0
31
0
0
ARC
8
0
6
CONTINUOUS
10
475.1353428719786
20
62.7499948097622
30
0
40
2.75
50
269.888682106385
51
40.06365282690658
0
LINE
8
0
6
CONTINUOUS
10
477.24
20
64.52
30
0
11
475.05
21
67.12
31
0
0
ARC
8
0
6
CONTINUOUS
10
476.3862539969291
20
68.25001117502927
30
0
40
1.75
50
90.20475908106019
51
220.21973046441707
0
LINE
8
0
6
CONTINUOUS
10
476.38
20
70.0
30
0
11
498.88
21
70.0
31
0
0
LINE
8
0
6
CONTINUOUS
10
498.88
20
70.0
30
0
11
521.38
21
70.0
31
0
0
ARC
8
0
6
CONTINUOUS
10
521.3837399323832
20
68.2500039963172
30
0
40
1.75
50
319.780577343061
51
90.12244714533237
0
LINE
8
0
6
CONTINUOUS
10
522.72
20
67.12
30
0
11
520.53
21
64.52
31
0
0
ARC
8
0
6
CONTINUOUS
10
522.634658175089
20
62.74999605479805
30
0
40
2.75
50
139.93638106710802
51
269.9029476725579
0
LINE
8
0
6
CONTINUOUS
10
522.63
20
60.0
30
0
11
573.64
21
60.0
31
0
0
ARC
8
0
6
CONTINUOUS
10
573.6319175025948
20
57.00001088781381
30
0
40
3.0
50
29.999759889634976
51
89.84563548350836
0
LINE
8
0
6
CONTINUOUS
10
576.23
20
58.5
30
0
11
609.15
21
1.99
31
0
0
ARC
8
0
6
CONTINUOUS
10
612.6083090429885
20
3.9999996425830324
30
0
40
4.0
50
210.165531040105
51
270.0242211757461
0
LINE
8
0
6
CONTINUOUS
10
612.61
20
-0.0
30
0
11
653.6
21
-0.0
31
0
0
ARC
8
0
6
CONTINUOUS
10
653.6023210240685
20
2.7499990205175115
30
0
40
2.75
50
269.95164185488727
51
319.38984833431095
0
ARC
8
0
6
CONTINUOUS
10
666.8669687469037
20
-8.664856862870316
30
0
40
14.75
50
95.78589873036272
51
139.26717247179494
0
ARC
8
0
6
CONTINUOUS
10
663.9039834438342
20
-8.66596249402146
30
0
40
14.75
50
40.73849549583909
51
84.25686084434979
0
ARC
8
0
6
CONTINUOUS
10
677.1676873486341
20
2.7499892553737326
30
0
40
2.75
50
220.60988366452216
51
269.83983519781134
0
LINE
8
0
6
CONTINUOUS
10
677.16
20
-0.0
30
0
11
718.16
21
-0.0
31
0
0
ARC
8
0
6
CONTINUOUS
10
718.1616909570115
20
3.9999996425830324
30
0
40
4.0
50
269.97577882425384
51
329.834468959895
0
LINE
8
0
6
CONTINUOUS
10
721.62
20
1.99
30
0
11
754.54
21
58.5
31
0
0
ARC
8
0
6
CONTINUOUS
10
757.1380824974052
20
57.00001088781381
30
0
40
3.0
50
90.15436451649164
51
150.00024011036504
0
LINE
8
0
6
CONTINUOUS
10
757.13
20
60.0
30
0
11
808.13
21
60.0
31
0
0
ARC
8
0
6
CONTINUOUS
10
808.1353428719785
20
62.7499948097622
30
0
40
2.75
50
269.8886821063862
51
40.06365282690582
0
LINE
8
0
6
CONTINUOUS
10
810.24
20
64.52
30
0
11
808.05
21
67.12
31
0
0
ARC
8
0
6
CONTINUOUS
10
809.386253996929
20
68.25001117502927
30
0
40
1.75
50
90.20475908105647
51
220.21973046441826
0
LINE
8
0
6
CONTINUOUS
10
809.38
20
70.0
30
0
11
831.88
21
70.0
31
0
0
LINE
8
0
6
CONTINUOUS
10
831.88
20
70.0
30
0
11
854.38
21
70.0
31
0
0
ARC
8
0
6
CONTINUOUS
10
854.3837399323832
20
68.2500039963172
30
0
40
1.75
50
319.780577343061
51
90.12244714533237
0
LINE
8
0
6
CONTINUOUS
10
855.72
20
67.12
30
0
11
853.53
21
64.52
31
0
0
ARC
8
0
6
CONTINUOUS
10
855.634658175089
20
62.74999605479805
30
0
40
2.75
50
139.93638106710802
51
269.9029476725579
0
LINE
8
0
6
CONTINUOUS
10
855.63
20
60.0
30
0
11
906.64
21
60.0
31
0
0
ARC
8
0
6
CONTINUOUS
10
906.6319175025948
20
57.00001088781381
30
0
40
3.0
50
29.999759889634976
51
89.84563548350836
0
LINE
8
0
6
CONTINUOUS
10
909.23
20
58.5
30
0
11
942.15
21
1.99
31
0
0
ARC
8
0
6
CONTINUOUS
10
945.6083090429885
20
3.9999996425830324
30
0
40
4.0
50
210.165531040105
51
270.0242211757461
0
LINE
8
0
6
CONTINUOUS
10
945.61
20
-0.0
30
0
11
986.51
21
-0.0
31
0
0
ARC
8
0
6
CONTINUOUS
10
986.5040054688114
20
2.7499934664642076
30
0
40
2.75
50
270.1248951306421
51
349.7362646041328
0
LINE
8
0
6
CONTINUOUS
10
989.21
20
2.26
30
0
11
991.61
21
15.56
31
0
0
ARC
8
0
6
CONTINUOUS
10
993.3329110916123
20
15.253279654409349
30
0
40
1.75
50
86.49166952389365
51
169.90570082814247
0
LINE
8
0
6
CONTINUOUS
10
993.44
20
17.0
30
0
11
1000.0
21
16.5
31
0
0
LINE
8
0
6
CONTINUOUS
10
1000.0
20
16.5
30
0
11
1006.55
21
17.0
31
0
0
ARC
8
0
6
CONTINUOUS
10
1006.6669761135241
20
15.253913922836336
30
0
40
1.75
50
10.073207129340895
51
93.83270780701005
0
LINE
8
0
6
CONTINUOUS
10
1008.39
20
15.56
30
0
11
1010.2
21
5.5
31
0
0
LINE
8
0
6
CONTINUOUS
10
1010.2
20
5.5
30
0
11
1011.18
21
5.68
31
0
0
LINE
8
0
6
CONTINUOUS
10
1011.18
20
5.68
30
0
11
1009.37
21
15.74
31
0
0
ARC
8
0
6
CONTINUOUS
10
1006.664440560203
20
15.247609791196034
30
0
40
2.75
50
10.314487254725227
51
94.26341739249253
0
LINE
8
0
6
CONTINUOUS
10
1006.46
20
17.99
30
0
11
1000.0
21
17.5
31
0
0
LINE
8
0
6
CONTINUOUS
10
1000.0
20
17.5
30
0
11
993.54
21
17.99
31
0
0
ARC
8
0
6
CONTINUOUS
10
993.3256963921119
20
15.248362904459047
30
0
40
2.75
50
85.53048939723635
51
169.70146106208915
0
LINE
8
0
6
CONTINUOUS
10
990.62
20
15.74
30
0
11
988.23
21
2.44
31
0
0
ARC
8
0
6
CONTINUOUS
10
986.5076757108545
20
2.74999845647931
30
0
40
1.75
50
270.0760982843178
51
349.79666800962195
0
LINE
8
0
6
CONTINUOUS
10
986.51
20
1.0
30
0
11
945.61
21
1.0
31
0
0
ARC
8
0
6
CONTINUOUS
10
945.6122774949417
20
3.999999135502674
30
0
40
3.0
50
210.22075857899046
51
269.95650304648086
0
LINE
8
0
6
CONTINUOUS
10
943.02
20
2.49
30
0
11
910.1
21
59.0
31
0
0
ARC
8
0
6
CONTINUOUS
10
906.6358971700303
20
57.00000210415227
30
0
40
4.0
50
29.999965197607818
51
89.94123127936389
0
LINE
8
0
6
CONTINUOUS
10
906.64
20
61.0
30
0
11
855.63
21
61.0
31
0
0
ARC
8
0
6
CONTINUOUS
10
855.636253996929
20
62.74998882497072
30
0
40
1.75
50
139.7802695355814
51
269.79524091894353
0
LINE
8
0
6
CONTINUOUS
10
854.3
20
63.88
30
0
11
856.49
21
66.48
31
0
0
ARC
8
0
6
CONTINUOUS
10
854.3853428719785
20
68.25000519023781
30
0
40
2.75
50
319.93634717309396
51
90.1113178936138
0
LINE
8
0
6
CONTINUOUS
10
854.38
20
71.0
30
0
11
831.88
21
71.0
31
0
0
LINE
8
0
6
CONTINUOUS
10
831.88
20
71.0
30
0
11
809.38
21
71.0
31
0
0
ARC
8
0
6
CONTINUOUS
10
809.384658175089
20
68.25000394520195
30
0
40
2.75
50
90.09705232744211
51
220.0636189328921
0
LINE
8
0
6
CONTINUOUS
10
807.28
20
66.48
30
0
11
809.47
21
63.88
31
0
0
ARC
8
0
6
CONTINUOUS
10
808.1337399323833
20
62.749996003682796
30
0
40
1.75
50
269.8775528546639
51
40.2194226569416
0
LINE
8
0
6
CONTINUOUS
10
808.13
20
61.0
30
0
11
757.13
21
61.0
31
0
0
ARC
8
0
6
CONTINUOUS
10
757.1341028299697
20
57.00000210415227
30
0
40
4.0
50
90.05876872063612
51
150.00003480239218
0
LINE
8
0
6
CONTINUOUS
10
753.67
20
59.0
30
0
11
720.75
21
2.49
31
0
0
ARC
8
0
6
CONTINUOUS
10
718.1577225050582
20
3.999999135502674
30
0
40
3.0
50
270.04349695351914
51
329.77924142100954
0
LINE
8
0
6
CONTINUOUS
10
718.16
20
1.0
30
0
11
677.16
21
1.0
31
0
0
ARC
8
0
6
CONTINUOUS
10
677.1677572063911
20
2.7499828072724046
30
0
40
1.75
50
220.6486549174658
51
269.74602477569454
0
ARC
8
0
6
CONTINUOUS
10
663.899104589276
20
-8.66022476823903
30
0
40
15.75
50
40.69844009832306
51
84.60478869366612
0
ARC
8
0
6
CONTINUOUS
10
666.871783010498
20
-8.659192691257724
30
0
40
15.75
50
95.4349960690337
51
139.30651191368187
0
LINE
8
0
6
CONTINUOUS
10
88.54
20
58.5
30
0
11
55.62
21
1.99
31
0
0
ARC
8
0
6
CONTINUOUS
10
52.16027347985723
20
3.997558817524614
30
0
40
4.0
50
272.0018422276427
51
329.8748992142058
0
LINE
8
0
6
CONTINUOUS
10
52.3
20
0.0
30
0
11
279.74
21
0.0
31
0
0
ARC
8
0
6
CONTINUOUS
10
279.6095447078265
20
3.997872111104096
30
0
40
4.0
50
210.1302893090501
51
271.86896583856486
0
LINE
8
0
6
CONTINUOUS
10
276.15
20
1.99
30
0
11
243.23
21
58.5
31
0
0
ARC
8
0
6
CONTINUOUS
10
240.63191750259486
20
57.00001088781381
30
0
40
3.0
50
29.999759889636067
51
89.84563548350998
0
LINE
8
0
6
CONTINUOUS
10
240.64
20
60.0
30
0
11
189.63
21
60.0
31
0
0
ARC
8
0
6
CONTINUOUS
10
189.63465817508913
20
62.749996054798046
30
0
40
2.75
50
139.93638106710867
51
269.90294767255614
0
LINE
8
0
6
CONTINUOUS
10
187.53
20
64.52
30
0
11
189.72
21
67.12
31
0
0
ARC
8
0
6
CONTINUOUS
10
188.38373993238324
20
68.2500039963172
30
0
40
1.75
50
319.78057734305855
51
90.12244714533516
0
LINE
8
0
6
CONTINUOUS
10
188.38
20
70.0
30
0
11
165.88
21
70.0
31
0
0
LINE
8
0
6
CONTINUOUS
10
165.88
20
70.0
30
0
11
143.38
21
70.0
31
0
0
ARC
8
0
6
CONTINUOUS
10
143.3862539969291
20
68.25001117502927
30
0
40
1.75
50
90.20475908106019
51
220.21973046441707
0
LINE
8
0
6
CONTINUOUS
10
142.05
20
67.12
30
0
11
144.24
21
64.52
31
0
0
ARC
8
0
6
CONTINUOUS
10
142.13534287197862
20
62.7499948097622
30
0
40
2.75
50
269.8886821063844
51
40.06365282690697
0
LINE
8
0
6
CONTINUOUS
10
142.13
20
60.0
30
0
11
91.13
21
60.0
31
0
0
ARC
8
0
6
CONTINUOUS
10
91.13808249740515
20
57.00001088781381
30
0
40
3.0
50
90.15436451649056
51
150.00024011036408
0
ARC
8
0
6
CONTINUOUS
10
320.6023210240685
20
2.7499990205175115
30
0
40
2.75
50
269.95164185488727
51
319.38984833431016
0
LINE
8
0
6
CONTINUOUS
10
320.6
20
-0.0
30
0
11
344.16
21
-0.0
31
0
0
ARC
8
0
6
CONTINUOUS
10
344.167687348634
20
2.7499892553737335
30
0
40
2.75
50
220.60988366452295
51
269.8398351978149
0
ARC
8
0
6
CONTINUOUS
10
330.9039834438342
20
-8.665962494021455
30
0
40
14.75
50
40.73849549583907
51
84.25686084434957
0
ARC
8
0
6
CONTINUOUS
10
333.86696874690347
20
-8.664856862870323
30
0
40
14.75
50
95.78589873036182
51
139.26717247179448
0
ARC
8
0
6
CONTINUOUS
10
385.16169095701144
20
3.999999642583033
30
0
40
4.0
50
269.9757788242555
51
329.8344689598954
0
LINE
8
0
6
CONTINUOUS
10
385.16
20
-0.0
30
0
11
612.61
21
-0.0
31
0
0
ARC
8
0
6
CONTINUOUS
10
612.6083090429885
20
3.9999996425830324
30
0
40
4.0
50
210.165531040105
51
270.0242211757461
0
LINE
8
0
6
CONTINUOUS
10
609.15
20
1.99
30
0
11
576.23
21
58.5
31
0
0
ARC
8
0
6
CONTINUOUS
10
573.6319175025948
20
57.00001088781381
30
0
40
3.0
50
29.999759889634976
51
89.84563548350836
0
LINE
8
0
6
CONTINUOUS
10
573.64
20
60.0
30
0
11
522.63
21
60.0
31
0
0
ARC
8
0
6
CONTINUOUS
10
522.634658175089
20
62.74999605479805
30
0
40
2.75
50
139.93638106710802
51
269.9029476725579
0
LINE
8
0
6
CONTINUOUS
10
520.53
20
64.52
30
0
11
522.72
21
67.12
31
0
0
ARC
8
0
6
CONTINUOUS
10
521.3837399323832
20
68.2500039963172
30
0
40
1.75
50
319.780577343061
51
90.12244714533237
0
LINE
8
0
6
CONTINUOUS
10
521.38
20
70.0
30
0
11
498.88
21
70.0
31
0
0
LINE
8
0
6
CONTINUOUS
10
498.88
20
70.0
30
0
11
476.38
21
70.0
31
0
0
ARC
8
0
6
CONTINUOUS
10
476.3862539969291
20
68.25001117502927
30
0
40
1.75
50
90.20475908106019
51
220.21973046441707
0
LINE
8
0
6
CONTINUOUS
10
475.05
20
67.12
30
0
11
477.24
21
64.52
31
0
0
ARC
8
0
6
CONTINUOUS
10
475.1353428719786
20
62.7499948097622
30
0
40
2.75
50
269.888682106385
51
40.06365282690658
0
LINE
8
0
6
CONTINUOUS
10
475.13
20
60.0
30
0
11
424.13
21
60.0
31
0
0
ARC
8
0
6
CONTINUOUS
10
424.1380824974052
20
57.00001088781381
30
0
40
3.0
50
90.15436451649164
51
150.00024011036447
0
LINE
8
0
6
CONTINUOUS
10
421.54
20
58.5
30
0
11
388.62
21
1.99
31
0
0
ARC
8
0
6
CONTINUOUS
10
653.6023210240685
20
2.7499990205175115
30
0
40
2.75
50
269.95164185488727
51
319.38984833431095
0
LINE
8
0
6
CONTINUOUS
10
653.6
20
-0.0
30
0
11
677.16
21
-0.0
31
0
0
ARC
8
0
6
CONTINUOUS
10
677.1676873486341
20
2.7499892553737326
30
0
40
2.75
50
220.60988366452216
51
269.83983519781134
0
ARC
8
0
6
CONTINUOUS
10
663.9039834438342
20
-8.66596249402146
30
0
40
14.75
50
40.73849549583909
51
84.25686084434979
0
ARC
8
0
6
CONTINUOUS
10
666.8669687469037
20
-8.664856862870316
30
0
40
14.75
50
95.78589873036272
51
139.26717247179494
0
ARC
8
0
6
CONTINUOUS
10
718.1616909570115
20
3.9999996425830324
30
0
40
4.0
50
269.97577882425384
51
329.834468959895
0
LINE
8
0
6
CONTINUOUS
10
718.16
20
-0.0
30
0
11
945.61
21
-0.0
31
0
0
ARC
8
0
6
CONTINUOUS
10
945.6083090429885
20
3.9999996425830324
30
0
40
4.0
50
210.165531040105
51
270.0242211757461
0
LINE
8
0
6
CONTINUOUS
10
942.15
20
1.99
30
0
11
909.23
21
58.5
31
0
0
ARC
8
0
6
CONTINUOUS
10
906.6319175025948
20
57.00001088781381
30
0
40
3.0
50
29.999759889634976
51
89.84563548350836
0
LINE
8
0
6
CONTINUOUS
10
906.64
20
60.0
30
0
11
855.63
21
60.0
31
0
0
ARC
8
0
6
CONTINUOUS
10
855.634658175089
20
62.74999605479805
30
0
40
2.75
50
139.93638106710802
51
269.9029476725579
0
LINE
8
0
6
CONTINUOUS
10
853.53
20
64.52
30
0
11
855.72
21
67.12
31
0
0
ARC
8
0
6
CONTINUOUS
10
854.3837399323832
20
68.2500039963172
30
0
40
1.75
50
319.780577343061
51
90.12244714533237
0
LINE
8
0
6
CONTINUOUS
10
854.38
20
70.0
30
0
11
831.88
21
70.0
31
0
0
LINE
8
0
6
CONTINUOUS
10
831.88
20
70.0
30
0
11
809.38
21
70.0
31
0
0
ARC
8
0
6
CONTINUOUS
10
809.386253996929
20
68.25001117502927
30
0
40
1.75
50
90.20475908105647
51
220.21973046441826
0
LINE
8
0
6
CONTINUOUS
10
808.05
20
67.12
30
0
11
810.24
21
64.52
31
0
0
ARC
8
0
6
CONTINUOUS
10
808.1353428719785
20
62.7499948097622
30
0
40
2.75
50
269.8886821063862
51
40.06365282690582
0
LINE
8
0
6
CONTINUOUS
10
808.13
20
60.0
30
0
11
757.13
21
60.0
31
0
0
ARC
8
0
6
CONTINUOUS
10
757.1380824974052
20
57.00001088781381
30
0
40
3.0
50
90.15436451649164
51
150.00024011036504
0
LINE
8
0
6
CONTINUOUS
10
754.54
20
58.5
30
0
11
721.62
21
1.99
31
0
0
ARC
8
0
6
CONTINUOUS
10
986.5040054688114
20
2.7499934664642076
30
0
40
2.75
50
270.1248951306421
51
349.7362646041328
0
LINE
8
0
6
CONTINUOUS
10
986.51
20
-0.0
30
0
11
1000.0
21
-0.0
31
0
0
LINE
8
0
6
CONTINUOUS
10
1000.0
20
-0.0
30
0
11
1000.0
21
16.5
31
0
0
LINE
8
0
6
CONTINUOUS
10
1000.0
20
16.5
30
0
11
993.44
21
17.0
31
0
0
ARC
8
0
6
CONTINUOUS
10
993.3329110916123
20
15.253279654409349
30
0
40
1.75
50
86.49166952389365
51
169.90570082814247
0
LINE
8
0
6
CONTINUOUS
10
991.61
20
15.56
30
0
11
989.21
21
2.26
31
0
0
LINE
8
0
6
CONTINUOUS
10
3.65
20
15.0
30
0
11
0.0
21
15.0
31
0
0
LINE
8
0
6
CONTINUOUS
10
0.0
20
15.0
30
0
11
0.0
21
0.0
31
0
0
LINE
8
0
6
CONTINUOUS
10
0.0
20
0.0
30
0
11
10.15
21
-0.0
31
0
0
ARC
8
0
6
CONTINUOUS
10
10.087909251178274
20
2.7492989540809774
30
0
40
2.75
50
190.0373739195152
51
271.2937600683038
0
LINE
8
0
6
CONTINUOUS
10
7.38
20
2.27
30
0
11
5.37
21
13.56
31
0
0
ARC
8
0
6
CONTINUOUS
10
3.647675710854531
20
13.25000154352069
30
0
40
1.75
50
10.203331990378175
51
89.92390171568198
0
ENDSEC
0
EOF