0
SECTION
2
HEADER
0
ENDSEC
0
SECTION
2
TABLES
0
TABLE
2
LTYPE
70
2
0
LTYPE
2
CONTINUOUS
70
0
3
Solid line
72
65
73
0
40
0.0
0
ENDTAB
0
TABLE
2
LAYER
70
1
0
LAYER
2
0
70
0
62
7
6
CONTINUOUS
0
ENDTAB
0
ENDSEC
0
SECTION
2
ENTITIES
0
LINE
8
0
6
CONTINUOUS
10
900.0
20
-0.0
30
0
11
900.0
21
350.0
31
0
0
LINE
8
0
6
CONTINUOUS
10
1200.0
20
-0.0
30
0
11
1200.0
21
350.0
31
0
0
LINE
8
0
6
CONTINUOUS
10
0.0
20
-0.0
30
0
11
0.0
21
350.0
31
0
0
LINE
8
0
6
CONTINUOUS
10
-0.0
20
0.0
30
0
11
1200.0
21
0.0
31
0
0
LINE
8
0
6
CONTINUOUS
10
1197.0
20
0.0
30
0
11
1197.0
21
216.67
31
0
0
LINE
8
0
6
CONTINUOUS
10
1197.0
20
216.67
30
0
11
1160.0
21
216.67
31
0
0
LINE
8
0
6
CONTINUOUS
10
1160.0
20
216.67
30
0
11
1140.0
21
236.67
31
0
0
LINE
8
0
6
CONTINUOUS
10
1140.0
20
236.67
30
0
11
1140.0
21
290.0
31
0
0
LINE
8
0
6
CONTINUOUS
10
1140.0
20
290.0
30
0
11
1160.0
21
310.0
31
0
0
LINE
8
0
6
CONTINUOUS
10
1160.0
20
310.0
30
0
11
1160.0
21
350.0
31
0
0
LINE
8
0
6
CONTINUOUS
10
1160.0
20
350.0
30
0
11
-0.0
21
350.0
31
0
0
LINE
8
0
6
CONTINUOUS
10
-0.0
20
350.0
30
0
11
-0.0
21
310.0
31
0
0
LINE
8
0
6
CONTINUOUS
10
-0.0
20
310.0
30
0
11
20.0
21
290.0
31
0
0
LINE
8
0
6
CONTINUOUS
10
20.0
20
290.0
30
0
11
20.0
21
236.67
31
0
0
LINE
8
0
6
CONTINUOUS
10
20.0
20
236.67
30
0
11
-0.0
21
216.67
31
0
0
LINE
8
0
6
CONTINUOUS
10
-0.0
20
216.67
30
0
11
-0.0
21
100.0
31
0
0
LINE
8
0
6
CONTINUOUS
10
-0.0
20
100.0
30
0
11
-0.0
21
0.0
31
0
0
LINE
8
0
6
CONTINUOUS
10
-0.0
20
0.0
30
0
11
1197.0
21
0.0
31
0
0
LINE
8
0
6
CONTINUOUS
10
-0.0
20
30.0
30
0
11
270.0
21
300.0
31
0
0
LINE
8
0
6
CONTINUOUS
10
270.0
20
300.0
30
0
11
570.0
21
0.0
31
0
0
LINE
8
0
6
CONTINUOUS
10
570.0
20
0.0
30
0
11
870.0
21
300.0
31
0
0
LINE
8
0
6
CONTINUOUS
10
870.0
20
300.0
30
0
11
1170.0
21
-0.0
31
0
0
LINE
8
0
6
CONTINUOUS
10
1170.0
20
-0.0
30
0
11
1197.0
21
27.0
31
0
0
LINE
8
0
6
CONTINUOUS
10
160.0
20
300.0
30
0
11
1000.0
21
300.0
31
0
0
LINE
8
0
6
CONTINUOUS
10
1000.0
20
300.0
30
0
11
1052.0
21
260.0
31
0
0
LINE
8
0
6
CONTINUOUS
10
1052.0
20
260.0
30
0
11
1093.59
21
121.38
31
0
0
ARC
8
0
6
CONTINUOUS
10
1122.3249196441245
20
129.99999959661835
30
0
40
30.0
50
196.69837293817983
51
269.99060417178976
0
LINE
8
0
6
CONTINUOUS
10
1122.32
20
100.0
30
0
11
1160.0
21
100.0
31
0
0
LINE
8
0
6
CONTINUOUS
10
1160.0
20
100.0
30
0
11
1160.0
21
216.67
31
0
0
LINE
8
0
6
CONTINUOUS
10
1160.0
20
216.67
30
0
11
1140.0
21
236.67
31
0
0
LINE
8
0
6
CONTINUOUS
10
1140.0
20
236.67
30
0
11
1140.0
21
290.0
31
0
0
LINE
8
0
6
CONTINUOUS
10
1140.0
20
290.0
30
0
11
1160.0
21
310.0
31
0
0
LINE
8
0
6
CONTINUOUS
10
1160.0
20
310.0
30
0
11
1160.0
21
350.0
31
0
0
LINE
8
0
6
CONTINUOUS
10
1160.0
20
350.0
30
0
11
-0.0
21
350.0
31
0
0
LINE
8
0
6
CONTINUOUS
10
-0.0
20
350.0
30
0
11
-0.0
21
310.0
31
0
0
LINE
8
0
6
CONTINUOUS
10
-0.0
20
310.0
30
0
11
20.0
21
290.0
31
0
0
LINE
8
0
6
CONTINUOUS
10
20.0
20
290.0
30
0
11
20.0
21
236.67
31
0
0
LINE
8
0
6
CONTINUOUS
10
20.0
20
236.67
30
0
11
-0.0
21
216.67
31
0
0
LINE
8
0
6
CONTINUOUS
10
-0.0
20
216.67
30
0
11
-0.0
21
100.0
31
0
0
LINE
8
0
6
CONTINUOUS
10
-0.0
20
100.0
30
0
11
37.68
21
100.0
31
0
0
ARC
8
0
6
CONTINUOUS
10
37.67508035587537
20
129.99999959661835
30
0
40
30.0
50
270.00939582821036
51
343.30162706182017
0
LINE
8
0
6
CONTINUOUS
10
66.41
20
121.38
30
0
11
108.0
21
260.0
31
0
0
LINE
8
0
6
CONTINUOUS
10
108.0
20
260.0
30
0
11
160.0
21
300.0
31
0
0
ENDSEC
0
EOF