0
SECTION
2
HEADER
0
ENDSEC
0
SECTION
2
TABLES
0
TABLE
2
LTYPE
70
2
0
LTYPE
2
CONTINUOUS
70
0
3
Solid line
72
65
73
0
40
0.0
0
ENDTAB
0
TABLE
2
LAYER
70
1
0
LAYER
2
0
70
0
62
7
6
CONTINUOUS
0
ENDTAB
0
ENDSEC
0
SECTION
2
ENTITIES
0
LINE
8
0
6
CONTINUOUS
10
1200.0
20
-0.0
30
0
11
1200.0
21
500.0
31
0
0
LINE
8
0
6
CONTINUOUS
10
0.0
20
-0.0
30
0
11
0.0
21
500.0
31
0
0
LINE
8
0
6
CONTINUOUS
10
-0.0
20
0.0
30
0
11
1200.0
21
0.0
31
0
0
LINE
8
0
6
CONTINUOUS
10
1200.0
20
0.0
30
0
11
1200.0
21
100.0
31
0
0
LINE
8
0
6
CONTINUOUS
10
1200.0
20
100.0
30
0
11
1100.0
21
100.0
31
0
0
LINE
8
0
6
CONTINUOUS
10
1100.0
20
100.0
30
0
11
1100.0
21
120.0
31
0
0
LINE
8
0
6
CONTINUOUS
10
1100.0
20
120.0
30
0
11
420.0
21
120.0
31
0
0
ARC
8
0
6
CONTINUOUS
10
420.0
20
140.0
30
0
40
20.0
50
180.0
51
270.0
0
LINE
8
0
6
CONTINUOUS
10
400.0
20
140.0
30
0
11
400.0
21
200.0
31
0
0
ARC
8
0
6
CONTINUOUS
10
420.0
20
200.0
30
0
40
20.0
50
90.0
51
180.0
0
LINE
8
0
6
CONTINUOUS
10
420.0
20
220.0
30
0
11
570.0
21
220.0
31
0
0
LINE
8
0
6
CONTINUOUS
10
570.0
20
220.0
30
0
11
700.0
21
270.0
31
0
0
LINE
8
0
6
CONTINUOUS
10
700.0
20
270.0
30
0
11
700.0
21
500.0
31
0
0
LINE
8
0
6
CONTINUOUS
10
700.0
20
500.0
30
0
11
580.0
21
500.0
31
0
0
LINE
8
0
6
CONTINUOUS
10
580.0
20
500.0
30
0
11
580.0
21
330.0
31
0
0
ARC
8
0
6
CONTINUOUS
10
570.0
20
330.0
30
0
40
10.0
50
270.0
51
0.0
0
LINE
8
0
6
CONTINUOUS
10
570.0
20
320.0
30
0
11
430.0
21
320.0
31
0
0
LINE
8
0
6
CONTINUOUS
10
430.0
20
320.0
30
0
11
217.67
21
290.16
31
0
0
ARC
8
0
6
CONTINUOUS
10
220.4401609798318
20
270.35277384019116
30
0
40
20.0
50
97.96152266550618
51
138.63440584292914
0
LINE
8
0
6
CONTINUOUS
10
205.43
20
283.57
30
0
11
-0.0
21
50.0
31
0
0
LINE
8
0
6
CONTINUOUS
10
-0.0
20
50.0
30
0
11
44.4
21
0.0
31
0
0
LINE
8
0
6
CONTINUOUS
10
44.4
20
0.0
30
0
11
73.85
21
33.16
31
0
0
ARC
8
0
6
CONTINUOUS
10
88.8
20
19.87476383348794
30
0
40
20.0
50
41.62571823706027
51
138.37428176293972
0
LINE
8
0
6
CONTINUOUS
10
103.75
20
33.16
30
0
11
133.2
21
-0.0
31
0
0
LINE
8
0
6
CONTINUOUS
10
133.2
20
-0.0
30
0
11
162.65
21
33.16
31
0
0
ARC
8
0
6
CONTINUOUS
10
177.60000000000002
20
19.87476383348794
30
0
40
20.0
50
41.62571823706029
51
138.37428176293977
0
LINE
8
0
6
CONTINUOUS
10
192.55
20
33.16
30
0
11
222.0
21
-0.0
31
0
0
LINE
8
0
6
CONTINUOUS
10
222.0
20
-0.0
30
0
11
251.45
21
33.16
31
0
0
ARC
8
0
6
CONTINUOUS
10
266.4
20
19.874763833487957
30
0
40
20.0
50
41.62571823706015
51
138.37428176293975
0
LINE
8
0
6
CONTINUOUS
10
281.35
20
33.16
30
0
11
310.8
21
-0.0
31
0
0
LINE
8
0
6
CONTINUOUS
10
310.8
20
0.0
30
0
11
1200.0
21
0.0
31
0
0
LINE
8
0
6
CONTINUOUS
10
400.0
20
174.2
30
0
11
324.39
21
305.16
31
0
0
LINE
8
0
6
CONTINUOUS
10
426.44
20
220.0
30
0
11
484.18
21
320.0
31
0
0
LINE
8
0
6
CONTINUOUS
10
431.29
20
120.0
30
0
11
500.58
21
0.0
31
0
0
LINE
8
0
6
CONTINUOUS
10
324.39
20
305.16
30
0
11
170.47
21
38.57
31
0
0
LINE
8
0
6
CONTINUOUS
10
170.47
20
38.57
30
0
11
98.93
21
162.48
31
0
0
LINE
8
0
6
CONTINUOUS
10
98.93
20
162.48
30
0
11
20.6
21
26.8
31
0
0
LINE
8
0
6
CONTINUOUS
10
500.58
20
0.0
30
0
11
569.86
21
120.0
31
0
0
LINE
8
0
6
CONTINUOUS
10
569.86
20
120.0
30
0
11
639.14
21
0.0
31
0
0
LINE
8
0
6
CONTINUOUS
10
639.14
20
-0.0
30
0
11
708.42
21
120.0
31
0
0
LINE
8
0
6
CONTINUOUS
10
708.42
20
120.0
30
0
11
777.7
21
-0.0
31
0
0
LINE
8
0
6
CONTINUOUS
10
777.7
20
-0.0
30
0
11
846.99
21
120.0
31
0
0
LINE
8
0
6
CONTINUOUS
10
846.99
20
120.0
30
0
11
916.27
21
-0.0
31
0
0
LINE
8
0
6
CONTINUOUS
10
916.27
20
-0.0
30
0
11
985.55
21
120.0
31
0
0
LINE
8
0
6
CONTINUOUS
10
985.55
20
120.0
30
0
11
1054.83
21
-0.0
31
0
0
LINE
8
0
6
CONTINUOUS
10
1054.83
20
-0.0
30
0
11
1112.57
21
100.0
31
0
0
LINE
8
0
6
CONTINUOUS
10
1112.57
20
100.0
30
0
11
1170.3
21
-0.0
31
0
0
LINE
8
0
6
CONTINUOUS
10
1170.3
20
-0.0
30
0
11
1200.0
21
51.44
31
0
0
LINE
8
0
6
CONTINUOUS
10
484.18
20
320.0
30
0
11
541.91
21
220.0
31
0
0
LINE
8
0
6
CONTINUOUS
10
541.91
20
220.0
30
0
11
645.83
21
400.0
31
0
0
LINE
8
0
6
CONTINUOUS
10
674.7
20
450.0
30
0
11
700.0
21
493.82
31
0
0
LINE
8
0
6
CONTINUOUS
10
645.83
20
400.0
30
0
11
674.7
21
450.0
31
0
0
ENDSEC
0
EOF