0
SECTION
2
HEADER
0
ENDSEC
0
SECTION
2
TABLES
0
TABLE
2
LTYPE
70
2
0
LTYPE
2
CONTINUOUS
70
0
3
Solid line
72
65
73
0
40
0.0
0
ENDTAB
0
TABLE
2
LAYER
70
1
0
LAYER
2
0
70
0
62
7
6
CONTINUOUS
0
ENDTAB
0
ENDSEC
0
SECTION
2
ENTITIES
0
LINE
8
0
6
CONTINUOUS
10
-37.94
20
-80.0
30
0
11
1047.74
21
-80.0
31
0
0
LINE
8
0
6
CONTINUOUS
10
-37.94
20
-160.0
30
0
11
1047.74
21
-160.0
31
0
0
LINE
8
0
6
CONTINUOUS
10
-37.94
20
-60.0
30
0
11
1047.74
21
-60.0
31
0
0
LINE
8
0
6
CONTINUOUS
10
1010.0
20
0.0
30
0
11
1010.0
21
-160.0
31
0
0
LINE
8
0
6
CONTINUOUS
10
900.0
20
0.0
30
0
11
900.0
21
-160.0
31
0
0
LINE
8
0
6
CONTINUOUS
10
600.0
20
0.0
30
0
11
600.0
21
-160.0
31
0
0
LINE
8
0
6
CONTINUOUS
10
0.0
20
0.0
30
0
11
0.0
21
-160.0
31
0
0
LINE
8
0
6
CONTINUOUS
10
-37.94
20
0.0
30
0
11
1047.74
21
0.0
31
0
0
LINE
8
0
6
CONTINUOUS
10
-13.96
20
-3.06
30
0
11
-7.95
21
-3.06
31
0
0
ARC
8
0
6
CONTINUOUS
10
-7.953940616802152
20
-6.059997411922087
30
0
40
3.0
50
5.9311015508477976
51
89.92473974121064
0
LINE
8
0
6
CONTINUOUS
10
-4.97
20
-5.75
30
0
11
-4.0
21
-16.91
31
0
0
ARC
8
0
6
CONTINUOUS
10
0.0
20
-16.91
30
0
40
4.0
50
180.0
51
0.0
0
LINE
8
0
6
CONTINUOUS
10
4.0
20
-16.91
30
0
11
5.1
21
-4.27
31
0
0
ARC
8
0
6
CONTINUOUS
10
8.097866833472686
20
-4.539989719738443
30
0
40
3.01
50
90.14974646819321
51
174.85379059023956
0
LINE
8
0
6
CONTINUOUS
10
8.09
20
-1.53
30
0
11
46.73
21
-1.53
31
0
0
LINE
8
0
6
CONTINUOUS
10
46.73
20
-1.53
30
0
11
47.69
21
-1.62
31
0
0
LINE
8
0
6
CONTINUOUS
10
47.69
20
-1.62
30
0
11
48.61
21
-1.9
31
0
0
LINE
8
0
6
CONTINUOUS
10
48.61
20
-1.9
30
0
11
49.46
21
-2.34
31
0
0
LINE
8
0
6
CONTINUOUS
10
49.46
20
-2.34
30
0
11
50.22
21
-2.95
31
0
0
LINE
8
0
6
CONTINUOUS
10
50.22
20
-2.95
30
0
11
50.84
21
-3.69
31
0
0
LINE
8
0
6
CONTINUOUS
10
50.84
20
-3.69
30
0
11
51.31
21
-4.53
31
0
0
LINE
8
0
6
CONTINUOUS
10
51.31
20
-4.53
30
0
11
81.44
21
-73.35
31
0
0
LINE
8
0
6
CONTINUOUS
10
81.44
20
-73.35
30
0
11
83.57
21
-77.19
31
0
0
LINE
8
0
6
CONTINUOUS
10
83.57
20
-77.19
30
0
11
84.39
21
-78.15
31
0
0
LINE
8
0
6
CONTINUOUS
10
84.39
20
-78.15
30
0
11
85.37
21
-78.93
31
0
0
LINE
8
0
6
CONTINUOUS
10
85.37
20
-78.93
30
0
11
86.48
21
-79.52
31
0
0
LINE
8
0
6
CONTINUOUS
10
86.48
20
-79.52
30
0
11
87.69
21
-79.88
31
0
0
LINE
8
0
6
CONTINUOUS
10
87.69
20
-79.88
30
0
11
88.94
21
-80.0
31
0
0
LINE
8
0
6
CONTINUOUS
10
88.94
20
-80.0
30
0
11
124.02
21
-80.0
31
0
0
ARC
8
0
6
CONTINUOUS
10
124.00637633878983
20
-81.52993934384838
30
0
40
1.53
50
314.5647459685682
51
89.48981136977436
0
LINE
8
0
6
CONTINUOUS
10
125.08
20
-82.62
30
0
11
123.9
21
-83.81
31
0
0
ARC
8
0
6
CONTINUOUS
10
126.07668883692138
20
-85.96072678581494
30
0
40
3.06
50
135.3437382121649
51
268.7512119494003
0
LINE
8
0
6
CONTINUOUS
10
126.01
20
-89.02
30
0
11
173.95
21
-89.02
31
0
0
ARC
8
0
6
CONTINUOUS
10
173.93264190000673
20
-85.9600492330162
30
0
40
3.06
50
270.32501673328005
51
44.63842968082585
0
LINE
8
0
6
CONTINUOUS
10
176.11
20
-83.81
30
0
11
174.91
21
-82.61
31
0
0
ARC
8
0
6
CONTINUOUS
10
175.9933804688651
20
-81.52963582080781
30
0
40
1.53
50
91.25013839521313
51
224.92012895040264
0
LINE
8
0
6
CONTINUOUS
10
175.96
20
-80.0
30
0
11
211.07
21
-80.0
31
0
0
LINE
8
0
6
CONTINUOUS
10
211.07
20
-80.0
30
0
11
212.32
21
-79.88
31
0
0
LINE
8
0
6
CONTINUOUS
10
212.32
20
-79.88
30
0
11
213.53
21
-79.52
31
0
0
LINE
8
0
6
CONTINUOUS
10
213.53
20
-79.52
30
0
11
214.64
21
-78.93
31
0
0
LINE
8
0
6
CONTINUOUS
10
214.64
20
-78.93
30
0
11
215.62
21
-78.15
31
0
0
LINE
8
0
6
CONTINUOUS
10
215.62
20
-78.15
30
0
11
216.43
21
-77.19
31
0
0
LINE
8
0
6
CONTINUOUS
10
216.43
20
-77.19
30
0
11
218.56
21
-73.38
31
0
0
LINE
8
0
6
CONTINUOUS
10
218.56
20
-73.38
30
0
11
248.7
21
-4.53
31
0
0
LINE
8
0
6
CONTINUOUS
10
248.7
20
-4.53
30
0
11
249.17
21
-3.69
31
0
0
LINE
8
0
6
CONTINUOUS
10
249.17
20
-3.69
30
0
11
249.79
21
-2.95
31
0
0
LINE
8
0
6
CONTINUOUS
10
249.79
20
-2.95
30
0
11
250.54
21
-2.34
31
0
0
LINE
8
0
6
CONTINUOUS
10
250.54
20
-2.34
30
0
11
251.4
21
-1.9
31
0
0
LINE
8
0
6
CONTINUOUS
10
251.4
20
-1.9
30
0
11
252.32
21
-1.62
31
0
0
LINE
8
0
6
CONTINUOUS
10
252.32
20
-1.62
30
0
11
253.28
21
-1.53
31
0
0
LINE
8
0
6
CONTINUOUS
10
253.28
20
-1.53
30
0
11
290.0
21
-1.53
31
0
0
ARC
8
0
6
CONTINUOUS
10
290.0145535043228
20
-4.519964580979502
30
0
40
2.99
50
64.11258570641449
51
90.27888216301085
0
LINE
8
0
6
CONTINUOUS
10
291.32
20
-1.83
30
0
11
298.03
21
-5.11
31
0
0
LINE
8
0
6
CONTINUOUS
10
298.03
20
-5.11
30
0
11
298.79
21
-5.4
31
0
0
LINE
8
0
6
CONTINUOUS
10
298.79
20
-5.4
30
0
11
299.6
21
-5.55
31
0
0
LINE
8
0
6
CONTINUOUS
10
299.6
20
-5.55
30
0
11
300.42
21
-5.55
31
0
0
LINE
8
0
6
CONTINUOUS
10
300.42
20
-5.55
30
0
11
301.22
21
-5.4
31
0
0
LINE
8
0
6
CONTINUOUS
10
301.22
20
-5.4
30
0
11
301.99
21
-5.11
31
0
0
LINE
8
0
6
CONTINUOUS
10
301.99
20
-5.11
30
0
11
308.7
21
-1.83
31
0
0
ARC
8
0
6
CONTINUOUS
10
309.9984614461871
20
-4.4899996001439195
30
0
40
2.96
50
89.97021870135043
51
116.01901488248406
0
LINE
8
0
6
CONTINUOUS
10
310.0
20
-1.53
30
0
11
346.74
21
-1.53
31
0
0
LINE
8
0
6
CONTINUOUS
10
346.74
20
-1.53
30
0
11
347.69
21
-1.62
31
0
0
LINE
8
0
6
CONTINUOUS
10
347.69
20
-1.62
30
0
11
348.62
21
-1.9
31
0
0
LINE
8
0
6
CONTINUOUS
10
348.62
20
-1.9
30
0
11
349.47
21
-2.34
31
0
0
LINE
8
0
6
CONTINUOUS
10
349.47
20
-2.34
30
0
11
350.22
21
-2.95
31
0
0
LINE
8
0
6
CONTINUOUS
10
350.22
20
-2.95
30
0
11
350.85
21
-3.69
31
0
0
LINE
8
0
6
CONTINUOUS
10
350.85
20
-3.69
30
0
11
351.32
21
-4.53
31
0
0
LINE
8
0
6
CONTINUOUS
10
351.32
20
-4.53
30
0
11
381.44
21
-73.35
31
0
0
LINE
8
0
6
CONTINUOUS
10
381.44
20
-73.35
30
0
11
383.58
21
-77.19
31
0
0
LINE
8
0
6
CONTINUOUS
10
383.58
20
-77.19
30
0
11
384.39
21
-78.15
31
0
0
LINE
8
0
6
CONTINUOUS
10
384.39
20
-78.15
30
0
11
385.37
21
-78.93
31
0
0
LINE
8
0
6
CONTINUOUS
10
385.37
20
-78.93
30
0
11
386.49
21
-79.52
31
0
0
LINE
8
0
6
CONTINUOUS
10
386.49
20
-79.52
30
0
11
387.69
21
-79.88
31
0
0
LINE
8
0
6
CONTINUOUS
10
387.69
20
-79.88
30
0
11
388.94
21
-80.0
31
0
0
LINE
8
0
6
CONTINUOUS
10
388.94
20
-80.0
30
0
11
424.02
21
-80.0
31
0
0
ARC
8
0
6
CONTINUOUS
10
424.01631925220227
20
-81.52999557257387
30
0
40
1.53
50
314.5677466317658
51
89.86216240674302
0
LINE
8
0
6
CONTINUOUS
10
425.09
20
-82.62
30
0
11
423.94
21
-83.77
31
0
0
ARC
8
0
6
CONTINUOUS
10
426.0766338115544
20
-85.96052412799368
30
0
40
3.06
50
134.28647668710178
51
268.9395216805941
0
LINE
8
0
6
CONTINUOUS
10
426.02
20
-89.02
30
0
11
473.96
21
-89.02
31
0
0
ARC
8
0
6
CONTINUOUS
10
473.9327134230546
20
-85.96012166210507
30
0
40
3.06
50
270.5109236654899
51
44.64033563706915
0
LINE
8
0
6
CONTINUOUS
10
476.11
20
-83.81
30
0
11
474.92
21
-82.61
31
0
0
ARC
8
0
6
CONTINUOUS
10
476.0031370456774
20
-81.52939177299024
30
0
40
1.53
50
91.615619752409
51
224.93303714042986
0
LINE
8
0
6
CONTINUOUS
10
475.96
20
-80.0
30
0
11
511.08
21
-80.0
31
0
0
LINE
8
0
6
CONTINUOUS
10
511.08
20
-80.0
30
0
11
512.33
21
-79.88
31
0
0
LINE
8
0
6
CONTINUOUS
10
512.33
20
-79.88
30
0
11
513.53
21
-79.52
31
0
0
LINE
8
0
6
CONTINUOUS
10
513.53
20
-79.52
30
0
11
514.65
21
-78.93
31
0
0
LINE
8
0
6
CONTINUOUS
10
514.65
20
-78.93
30
0
11
515.63
21
-78.15
31
0
0
LINE
8
0
6
CONTINUOUS
10
515.63
20
-78.15
30
0
11
516.44
21
-77.19
31
0
0
LINE
8
0
6
CONTINUOUS
10
516.44
20
-77.19
30
0
11
518.58
21
-73.36
31
0
0
LINE
8
0
6
CONTINUOUS
10
518.58
20
-73.36
30
0
11
548.71
21
-4.53
31
0
0
LINE
8
0
6
CONTINUOUS
10
548.71
20
-4.53
30
0
11
549.18
21
-3.69
31
0
0
LINE
8
0
6
CONTINUOUS
10
549.18
20
-3.69
30
0
11
549.8
21
-2.95
31
0
0
LINE
8
0
6
CONTINUOUS
10
549.8
20
-2.95
30
0
11
550.55
21
-2.34
31
0
0
LINE
8
0
6
CONTINUOUS
10
550.55
20
-2.34
30
0
11
551.4
21
-1.9
31
0
0
LINE
8
0
6
CONTINUOUS
10
551.4
20
-1.9
30
0
11
552.33
21
-1.62
31
0
0
LINE
8
0
6
CONTINUOUS
10
552.33
20
-1.62
30
0
11
553.29
21
-1.53
31
0
0
LINE
8
0
6
CONTINUOUS
10
553.29
20
-1.53
30
0
11
590.01
21
-1.53
31
0
0
ARC
8
0
6
CONTINUOUS
10
590.024553504323
20
-4.519964580979501
30
0
40
2.99
50
64.11258570641644
51
90.27888216301412
0
LINE
8
0
6
CONTINUOUS
10
591.33
20
-1.83
30
0
11
598.03
21
-5.11
31
0
0
LINE
8
0
6
CONTINUOUS
10
598.03
20
-5.11
30
0
11
598.8
21
-5.4
31
0
0
LINE
8
0
6
CONTINUOUS
10
598.8
20
-5.4
30
0
11
599.6
21
-5.55
31
0
0
LINE
8
0
6
CONTINUOUS
10
599.6
20
-5.55
30
0
11
600.42
21
-5.55
31
0
0
LINE
8
0
6
CONTINUOUS
10
600.42
20
-5.55
30
0
11
601.23
21
-5.4
31
0
0
LINE
8
0
6
CONTINUOUS
10
601.23
20
-5.4
30
0
11
602.0
21
-5.11
31
0
0
LINE
8
0
6
CONTINUOUS
10
602.0
20
-5.11
30
0
11
608.71
21
-1.83
31
0
0
ARC
8
0
6
CONTINUOUS
10
610.0084614461871
20
-4.4899996001439195
30
0
40
2.96
50
89.97021870135043
51
116.01901488248306
0
LINE
8
0
6
CONTINUOUS
10
610.01
20
-1.53
30
0
11
646.74
21
-1.53
31
0
0
LINE
8
0
6
CONTINUOUS
10
646.74
20
-1.53
30
0
11
647.7
21
-1.62
31
0
0
LINE
8
0
6
CONTINUOUS
10
647.7
20
-1.62
30
0
11
648.62
21
-1.9
31
0
0
LINE
8
0
6
CONTINUOUS
10
648.62
20
-1.9
30
0
11
649.48
21
-2.34
31
0
0
LINE
8
0
6
CONTINUOUS
10
649.48
20
-2.34
30
0
11
650.23
21
-2.95
31
0
0
LINE
8
0
6
CONTINUOUS
10
650.23
20
-2.95
30
0
11
650.85
21
-3.69
31
0
0
LINE
8
0
6
CONTINUOUS
10
650.85
20
-3.69
30
0
11
651.32
21
-4.53
31
0
0
LINE
8
0
6
CONTINUOUS
10
651.32
20
-4.53
30
0
11
681.45
21
-73.36
31
0
0
LINE
8
0
6
CONTINUOUS
10
681.45
20
-73.36
30
0
11
683.59
21
-77.19
31
0
0
LINE
8
0
6
CONTINUOUS
10
683.59
20
-77.19
30
0
11
684.4
21
-78.15
31
0
0
LINE
8
0
6
CONTINUOUS
10
684.4
20
-78.15
30
0
11
685.38
21
-78.93
31
0
0
LINE
8
0
6
CONTINUOUS
10
685.38
20
-78.93
30
0
11
686.49
21
-79.52
31
0
0
LINE
8
0
6
CONTINUOUS
10
686.49
20
-79.52
30
0
11
687.7
21
-79.88
31
0
0
LINE
8
0
6
CONTINUOUS
10
687.7
20
-79.88
30
0
11
688.95
21
-80.0
31
0
0
LINE
8
0
6
CONTINUOUS
10
688.95
20
-80.0
30
0
11
724.03
21
-80.0
31
0
0
ARC
8
0
6
CONTINUOUS
10
724.0263192522024
20
-81.52999557257387
30
0
40
1.53
50
314.56774663176424
51
89.86216240674727
0
LINE
8
0
6
CONTINUOUS
10
725.1
20
-82.62
30
0
11
723.92
21
-83.81
31
0
0
ARC
8
0
6
CONTINUOUS
10
726.0966888369213
20
-85.96072678581494
30
0
40
3.06
50
135.34373821216474
51
268.75121194940084
0
LINE
8
0
6
CONTINUOUS
10
726.03
20
-89.02
30
0
11
773.96
21
-89.02
31
0
0
ARC
8
0
6
CONTINUOUS
10
773.9426419000066
20
-85.9600492330162
30
0
40
3.06
50
270.32501673328323
51
44.63842968082436
0
LINE
8
0
6
CONTINUOUS
10
776.12
20
-83.81
30
0
11
774.93
21
-82.61
31
0
0
ARC
8
0
6
CONTINUOUS
10
776.0131370456775
20
-81.52939177299025
30
0
40
1.53
50
91.61561975240899
51
224.93303714042648
0
LINE
8
0
6
CONTINUOUS
10
775.97
20
-80.0
30
0
11
811.09
21
-80.0
31
0
0
LINE
8
0
6
CONTINUOUS
10
811.09
20
-80.0
30
0
11
812.34
21
-79.88
31
0
0
LINE
8
0
6
CONTINUOUS
10
812.34
20
-79.88
30
0
11
813.54
21
-79.52
31
0
0
LINE
8
0
6
CONTINUOUS
10
813.54
20
-79.52
30
0
11
814.65
21
-78.93
31
0
0
LINE
8
0
6
CONTINUOUS
10
814.65
20
-78.93
30
0
11
815.64
21
-78.15
31
0
0
LINE
8
0
6
CONTINUOUS
10
815.64
20
-78.15
30
0
11
816.45
21
-77.19
31
0
0
LINE
8
0
6
CONTINUOUS
10
816.45
20
-77.19
30
0
11
818.58
21
-73.36
31
0
0
LINE
8
0
6
CONTINUOUS
10
818.58
20
-73.36
30
0
11
848.71
21
-4.53
31
0
0
LINE
8
0
6
CONTINUOUS
10
848.71
20
-4.53
30
0
11
849.18
21
-3.69
31
0
0
LINE
8
0
6
CONTINUOUS
10
849.18
20
-3.69
30
0
11
849.81
21
-2.95
31
0
0
LINE
8
0
6
CONTINUOUS
10
849.81
20
-2.95
30
0
11
850.56
21
-2.34
31
0
0
LINE
8
0
6
CONTINUOUS
10
850.56
20
-2.34
30
0
11
851.41
21
-1.9
31
0
0
LINE
8
0
6
CONTINUOUS
10
851.41
20
-1.9
30
0
11
852.34
21
-1.62
31
0
0
LINE
8
0
6
CONTINUOUS
10
852.34
20
-1.62
30
0
11
853.29
21
-1.53
31
0
0
LINE
8
0
6
CONTINUOUS
10
853.29
20
-1.53
30
0
11
895.31
21
-1.53
31
0
0
ARC
8
0
6
CONTINUOUS
10
895.2921293149182
20
-4.539946949468496
30
0
40
3.01
50
5.145391977059574
51
89.65982696091214
0
LINE
8
0
6
CONTINUOUS
10
898.29
20
-4.27
30
0
11
899.2
21
-14.6
31
0
0
LINE
8
0
6
CONTINUOUS
10
899.2
20
-14.6
30
0
11
900.82
21
-14.6
31
0
0
LINE
8
0
6
CONTINUOUS
10
900.82
20
-14.6
30
0
11
899.81
21
-4.14
31
0
0
LINE
8
0
6
CONTINUOUS
10
899.81
20
-4.14
30
0
11
899.66
21
-3.31
31
0
0
LINE
8
0
6
CONTINUOUS
10
899.66
20
-3.31
30
0
11
899.36
21
-2.53
31
0
0
LINE
8
0
6
CONTINUOUS
10
899.36
20
-2.53
30
0
11
898.93
21
-1.81
31
0
0
LINE
8
0
6
CONTINUOUS
10
898.93
20
-1.81
30
0
11
898.36
21
-1.19
31
0
0
LINE
8
0
6
CONTINUOUS
10
898.36
20
-1.19
30
0
11
897.7
21
-0.68
31
0
0
LINE
8
0
6
CONTINUOUS
10
897.7
20
-0.68
30
0
11
896.95
21
-0.31
31
0
0
LINE
8
0
6
CONTINUOUS
10
896.95
20
-0.31
30
0
11
896.14
21
-0.08
31
0
0
LINE
8
0
6
CONTINUOUS
10
896.14
20
-0.08
30
0
11
895.31
21
0.0
31
0
0
LINE
8
0
6
CONTINUOUS
10
895.31
20
0.0
30
0
11
853.29
21
0.0
31
0
0
LINE
8
0
6
CONTINUOUS
10
853.29
20
0.0
30
0
11
852.04
21
-0.12
31
0
0
LINE
8
0
6
CONTINUOUS
10
852.04
20
-0.12
30
0
11
850.84
21
-0.48
31
0
0
LINE
8
0
6
CONTINUOUS
10
850.84
20
-0.48
30
0
11
849.72
21
-1.07
31
0
0
LINE
8
0
6
CONTINUOUS
10
849.72
20
-1.07
30
0
11
848.74
21
-1.85
31
0
0
LINE
8
0
6
CONTINUOUS
10
848.74
20
-1.85
30
0
11
847.93
21
-2.81
31
0
0
LINE
8
0
6
CONTINUOUS
10
847.93
20
-2.81
30
0
11
847.32
21
-3.91
31
0
0
LINE
8
0
6
CONTINUOUS
10
847.32
20
-3.91
30
0
11
817.18
21
-72.77
31
0
0
LINE
8
0
6
CONTINUOUS
10
817.18
20
-72.77
30
0
11
815.2
21
-76.31
31
0
0
LINE
8
0
6
CONTINUOUS
10
815.2
20
-76.31
30
0
11
814.57
21
-77.05
31
0
0
LINE
8
0
6
CONTINUOUS
10
814.57
20
-77.05
30
0
11
813.82
21
-77.66
31
0
0
LINE
8
0
6
CONTINUOUS
10
813.82
20
-77.66
30
0
11
812.97
21
-78.1
31
0
0
LINE
8
0
6
CONTINUOUS
10
812.97
20
-78.1
30
0
11
812.04
21
-78.38
31
0
0
LINE
8
0
6
CONTINUOUS
10
812.04
20
-78.38
30
0
11
811.09
21
-78.47
31
0
0
LINE
8
0
6
CONTINUOUS
10
811.09
20
-78.47
30
0
11
776.0
21
-78.47
31
0
0
ARC
8
0
6
CONTINUOUS
10
776.0174375101553
20
-81.52995031548546
30
0
40
3.06
50
90.32650364199823
51
224.90218554123234
0
LINE
8
0
6
CONTINUOUS
10
773.85
20
-83.69
30
0
11
775.03
21
-84.87
31
0
0
ARC
8
0
6
CONTINUOUS
10
773.9665768002376
20
-85.9700141354579
30
0
40
1.53
50
269.75370976680506
51
45.96897020058489
0
LINE
8
0
6
CONTINUOUS
10
773.96
20
-87.5
30
0
11
726.04
21
-87.5
31
0
0
ARC
8
0
6
CONTINUOUS
10
726.0733804688651
20
-85.9703641791922
30
0
40
1.53
50
135.07987104959773
51
268.7498616047837
0
LINE
8
0
6
CONTINUOUS
10
724.99
20
-84.89
30
0
11
726.19
21
-83.69
31
0
0
ARC
8
0
6
CONTINUOUS
10
724.0225220814425
20
-81.52999086285139
30
0
40
3.06
50
315.09888631033164
51
89.85998248387605
0
LINE
8
0
6
CONTINUOUS
10
724.03
20
-78.47
30
0
11
688.95
21
-78.47
31
0
0
LINE
8
0
6
CONTINUOUS
10
688.95
20
-78.47
30
0
11
687.99
21
-78.38
31
0
0
LINE
8
0
6
CONTINUOUS
10
687.99
20
-78.38
30
0
11
687.07
21
-78.1
31
0
0
LINE
8
0
6
CONTINUOUS
10
687.07
20
-78.1
30
0
11
686.21
21
-77.66
31
0
0
LINE
8
0
6
CONTINUOUS
10
686.21
20
-77.66
30
0
11
685.46
21
-77.05
31
0
0
LINE
8
0
6
CONTINUOUS
10
685.46
20
-77.05
30
0
11
684.84
21
-76.31
31
0
0
LINE
8
0
6
CONTINUOUS
10
684.84
20
-76.31
30
0
11
682.87
21
-72.78
31
0
0
LINE
8
0
6
CONTINUOUS
10
682.87
20
-72.78
30
0
11
652.72
21
-3.91
31
0
0
LINE
8
0
6
CONTINUOUS
10
652.72
20
-3.91
30
0
11
652.11
21
-2.81
31
0
0
LINE
8
0
6
CONTINUOUS
10
652.11
20
-2.81
30
0
11
651.29
21
-1.85
31
0
0
LINE
8
0
6
CONTINUOUS
10
651.29
20
-1.85
30
0
11
650.31
21
-1.07
31
0
0
LINE
8
0
6
CONTINUOUS
10
650.31
20
-1.07
30
0
11
649.2
21
-0.48
31
0
0
LINE
8
0
6
CONTINUOUS
10
649.2
20
-0.48
30
0
11
647.99
21
-0.12
31
0
0
LINE
8
0
6
CONTINUOUS
10
647.99
20
-0.12
30
0
11
646.74
21
0.0
31
0
0
LINE
8
0
6
CONTINUOUS
10
646.74
20
0.0
30
0
11
610.02
21
0.0
31
0
0
ARC
8
0
6
CONTINUOUS
10
610.0243429485456
20
-4.509997908957157
30
0
40
4.51
50
90.055173538972
51
116.10307402116247
0
LINE
8
0
6
CONTINUOUS
10
608.04
20
-0.46
30
0
11
601.33
21
-3.74
31
0
0
ARC
8
0
6
CONTINUOUS
10
600.0150000000001
20
-1.054692755009214
30
0
40
2.99
50
243.90892162443697
51
296.0910783755611
0
LINE
8
0
6
CONTINUOUS
10
598.7
20
-3.74
30
0
11
591.99
21
-0.46
31
0
0
ARC
8
0
6
CONTINUOUS
10
590.0056570514544
20
-4.509997908957157
30
0
40
4.51
50
63.89692597883753
51
89.94482646102801
0
LINE
8
0
6
CONTINUOUS
10
590.01
20
0.0
30
0
11
553.29
21
0.0
31
0
0
LINE
8
0
6
CONTINUOUS
10
553.29
20
0.0
30
0
11
552.04
21
-0.12
31
0
0
LINE
8
0
6
CONTINUOUS
10
552.04
20
-0.12
30
0
11
550.83
21
-0.48
31
0
0
LINE
8
0
6
CONTINUOUS
10
550.83
20
-0.48
30
0
11
549.72
21
-1.07
31
0
0
LINE
8
0
6
CONTINUOUS
10
549.72
20
-1.07
30
0
11
548.74
21
-1.85
31
0
0
LINE
8
0
6
CONTINUOUS
10
548.74
20
-1.85
30
0
11
547.92
21
-2.81
31
0
0
LINE
8
0
6
CONTINUOUS
10
547.92
20
-2.81
30
0
11
547.31
21
-3.91
31
0
0
LINE
8
0
6
CONTINUOUS
10
547.31
20
-3.91
30
0
11
517.17
21
-72.77
31
0
0
LINE
8
0
6
CONTINUOUS
10
517.17
20
-72.77
30
0
11
515.19
21
-76.31
31
0
0
LINE
8
0
6
CONTINUOUS
10
515.19
20
-76.31
30
0
11
514.57
21
-77.05
31
0
0
LINE
8
0
6
CONTINUOUS
10
514.57
20
-77.05
30
0
11
513.82
21
-77.66
31
0
0
LINE
8
0
6
CONTINUOUS
10
513.82
20
-77.66
30
0
11
512.96
21
-78.1
31
0
0
LINE
8
0
6
CONTINUOUS
10
512.96
20
-78.1
30
0
11
512.04
21
-78.38
31
0
0
LINE
8
0
6
CONTINUOUS
10
512.04
20
-78.38
30
0
11
511.08
21
-78.47
31
0
0
LINE
8
0
6
CONTINUOUS
10
511.08
20
-78.47
30
0
11
476.0
21
-78.47
31
0
0
ARC
8
0
6
CONTINUOUS
10
476.00747791855747
20
-81.52999086285139
30
0
40
3.06
50
90.14001751612395
51
224.9011136896691
0
LINE
8
0
6
CONTINUOUS
10
473.84
20
-83.69
30
0
11
475.02
21
-84.87
31
0
0
ARC
8
0
6
CONTINUOUS
10
473.9565661644362
20
-85.97000385334691
30
0
40
1.53
50
270.12859114412777
51
45.96841621735696
0
LINE
8
0
6
CONTINUOUS
10
473.96
20
-87.5
30
0
11
426.03
21
-87.5
31
0
0
ARC
8
0
6
CONTINUOUS
10
426.0731370456774
20
-85.97060822700976
30
0
40
1.53
50
135.06696285957014
51
268.384380247591
0
LINE
8
0
6
CONTINUOUS
10
424.99
20
-84.89
30
0
11
426.18
21
-83.69
31
0
0
ARC
8
0
6
CONTINUOUS
10
424.0125220814425
20
-81.52999086285139
30
0
40
3.06
50
315.09888631033084
51
89.85998248387605
0
LINE
8
0
6
CONTINUOUS
10
424.02
20
-78.47
30
0
11
388.94
21
-78.47
31
0
0
LINE
8
0
6
CONTINUOUS
10
388.94
20
-78.47
30
0
11
387.98
21
-78.38
31
0
0
LINE
8
0
6
CONTINUOUS
10
387.98
20
-78.38
30
0
11
387.06
21
-78.1
31
0
0
LINE
8
0
6
CONTINUOUS
10
387.06
20
-78.1
30
0
11
386.21
21
-77.66
31
0
0
LINE
8
0
6
CONTINUOUS
10
386.21
20
-77.66
30
0
11
385.46
21
-77.05
31
0
0
LINE
8
0
6
CONTINUOUS
10
385.46
20
-77.05
30
0
11
384.83
21
-76.31
31
0
0
LINE
8
0
6
CONTINUOUS
10
384.83
20
-76.31
30
0
11
382.86
21
-72.79
31
0
0
LINE
8
0
6
CONTINUOUS
10
382.86
20
-72.79
30
0
11
352.71
21
-3.91
31
0
0
LINE
8
0
6
CONTINUOUS
10
352.71
20
-3.91
30
0
11
352.1
21
-2.81
31
0
0
LINE
8
0
6
CONTINUOUS
10
352.1
20
-2.81
30
0
11
351.29
21
-1.85
31
0
0
LINE
8
0
6
CONTINUOUS
10
351.29
20
-1.85
30
0
11
350.31
21
-1.07
31
0
0
LINE
8
0
6
CONTINUOUS
10
350.31
20
-1.07
30
0
11
349.19
21
-0.48
31
0
0
LINE
8
0
6
CONTINUOUS
10
349.19
20
-0.48
30
0
11
347.99
21
-0.12
31
0
0
LINE
8
0
6
CONTINUOUS
10
347.99
20
-0.12
30
0
11
346.74
21
0.0
31
0
0
LINE
8
0
6
CONTINUOUS
10
346.74
20
0.0
30
0
11
310.01
21
0.0
31
0
0
ARC
8
0
6
CONTINUOUS
10
310.01434294854556
20
-4.509997908957157
30
0
40
4.51
50
90.05517353897127
51
116.10307402116183
0
LINE
8
0
6
CONTINUOUS
10
308.03
20
-0.46
30
0
11
301.32
21
-3.74
31
0
0
ARC
8
0
6
CONTINUOUS
10
300.005
20
-1.054692755009214
30
0
40
2.99
50
243.90892162443794
51
296.09107837556206
0
LINE
8
0
6
CONTINUOUS
10
298.69
20
-3.74
30
0
11
291.98
21
-0.46
31
0
0
ARC
8
0
6
CONTINUOUS
10
289.99565705145443
20
-4.509997908957157
30
0
40
4.51
50
63.89692597883818
51
89.94482646102874
0
LINE
8
0
6
CONTINUOUS
10
290.0
20
0.0
30
0
11
253.28
21
0.0
31
0
0
LINE
8
0
6
CONTINUOUS
10
253.28
20
0.0
30
0
11
252.03
21
-0.12
31
0
0
LINE
8
0
6
CONTINUOUS
10
252.03
20
-0.12
30
0
11
250.82
21
-0.48
31
0
0
LINE
8
0
6
CONTINUOUS
10
250.82
20
-0.48
30
0
11
249.71
21
-1.07
31
0
0
LINE
8
0
6
CONTINUOUS
10
249.71
20
-1.07
30
0
11
248.73
21
-1.85
31
0
0
LINE
8
0
6
CONTINUOUS
10
248.73
20
-1.85
30
0
11
247.92
21
-2.81
31
0
0
LINE
8
0
6
CONTINUOUS
10
247.92
20
-2.81
30
0
11
247.3
21
-3.91
31
0
0
LINE
8
0
6
CONTINUOUS
10
247.3
20
-3.91
30
0
11
217.18
21
-72.74
31
0
0
LINE
8
0
6
CONTINUOUS
10
217.18
20
-72.74
30
0
11
215.18
21
-76.31
31
0
0
LINE
8
0
6
CONTINUOUS
10
215.18
20
-76.31
30
0
11
214.56
21
-77.05
31
0
0
LINE
8
0
6
CONTINUOUS
10
214.56
20
-77.05
30
0
11
213.81
21
-77.66
31
0
0
LINE
8
0
6
CONTINUOUS
10
213.81
20
-77.66
30
0
11
212.95
21
-78.1
31
0
0
LINE
8
0
6
CONTINUOUS
10
212.95
20
-78.1
30
0
11
212.03
21
-78.38
31
0
0
LINE
8
0
6
CONTINUOUS
10
212.03
20
-78.38
30
0
11
211.07
21
-78.47
31
0
0
LINE
8
0
6
CONTINUOUS
10
211.07
20
-78.47
30
0
11
175.99
21
-78.47
31
0
0
ARC
8
0
6
CONTINUOUS
10
175.99747791855756
20
-81.52999086285139
30
0
40
3.06
50
90.14001751612555
51
224.9011136896684
0
LINE
8
0
6
CONTINUOUS
10
173.83
20
-83.69
30
0
11
175.02
21
-84.88
31
0
0
ARC
8
0
6
CONTINUOUS
10
173.94631925220233
20
-85.97000442742613
30
0
40
1.53
50
270.13783759325486
51
45.43225336823501
0
LINE
8
0
6
CONTINUOUS
10
173.95
20
-87.5
30
0
11
126.03
21
-87.5
31
0
0
ARC
8
0
6
CONTINUOUS
10
126.06338046886509
20
-85.97036417919219
30
0
40
1.53
50
135.079871049597
51
268.7498616047869
0
LINE
8
0
6
CONTINUOUS
10
124.98
20
-84.89
30
0
11
126.17
21
-83.69
31
0
0
ARC
8
0
6
CONTINUOUS
10
124.00256248984459
20
-81.52995031548546
30
0
40
3.06
50
315.097814458769
51
89.67349635800045
0
LINE
8
0
6
CONTINUOUS
10
124.02
20
-78.47
30
0
11
88.94
21
-78.47
31
0
0
LINE
8
0
6
CONTINUOUS
10
88.94
20
-78.47
30
0
11
87.98
21
-78.38
31
0
0
LINE
8
0
6
CONTINUOUS
10
87.98
20
-78.38
30
0
11
87.05
21
-78.1
31
0
0
LINE
8
0
6
CONTINUOUS
10
87.05
20
-78.1
30
0
11
86.2
21
-77.66
31
0
0
LINE
8
0
6
CONTINUOUS
10
86.2
20
-77.66
30
0
11
85.45
21
-77.05
31
0
0
LINE
8
0
6
CONTINUOUS
10
85.45
20
-77.05
30
0
11
84.83
21
-76.31
31
0
0
LINE
8
0
6
CONTINUOUS
10
84.83
20
-76.31
30
0
11
82.85
21
-72.77
31
0
0
LINE
8
0
6
CONTINUOUS
10
82.85
20
-72.77
30
0
11
52.71
21
-3.91
31
0
0
LINE
8
0
6
CONTINUOUS
10
52.71
20
-3.91
30
0
11
52.09
21
-2.81
31
0
0
LINE
8
0
6
CONTINUOUS
10
52.09
20
-2.81
30
0
11
51.28
21
-1.85
31
0
0
LINE
8
0
6
CONTINUOUS
10
51.28
20
-1.85
30
0
11
50.3
21
-1.07
31
0
0
LINE
8
0
6
CONTINUOUS
10
50.3
20
-1.07
30
0
11
49.18
21
-0.48
31
0
0
LINE
8
0
6
CONTINUOUS
10
49.18
20
-0.48
30
0
11
47.98
21
-0.12
31
0
0
LINE
8
0
6
CONTINUOUS
10
47.98
20
-0.12
30
0
11
46.73
21
0.0
31
0
0
LINE
8
0
6
CONTINUOUS
10
46.73
20
0.0
30
0
11
8.09
21
0.0
31
0
0
LINE
8
0
6
CONTINUOUS
10
8.09
20
0.0
30
0
11
7.25
21
-0.08
31
0
0
LINE
8
0
6
CONTINUOUS
10
7.25
20
-0.08
30
0
11
6.45
21
-0.31
31
0
0
LINE
8
0
6
CONTINUOUS
10
6.45
20
-0.31
30
0
11
5.7
21
-0.68
31
0
0
LINE
8
0
6
CONTINUOUS
10
5.7
20
-0.68
30
0
11
5.03
21
-1.19
31
0
0
LINE
8
0
6
CONTINUOUS
10
5.03
20
-1.19
30
0
11
4.47
21
-1.81
31
0
0
LINE
8
0
6
CONTINUOUS
10
4.47
20
-1.81
30
0
11
4.03
21
-2.53
31
0
0
LINE
8
0
6
CONTINUOUS
10
4.03
20
-2.53
30
0
11
3.73
21
-3.31
31
0
0
LINE
8
0
6
CONTINUOUS
10
3.73
20
-3.31
30
0
11
3.59
21
-4.14
31
0
0
LINE
8
0
6
CONTINUOUS
10
3.59
20
-4.14
30
0
11
2.48
21
-16.78
31
0
0
ARC
8
0
6
CONTINUOUS
10
0.0
20
-16.78
30
0
40
2.48
50
180.0
51
0.0
0
LINE
8
0
6
CONTINUOUS
10
-2.48
20
-16.78
30
0
11
-3.45
21
-5.67
31
0
0
LINE
8
0
6
CONTINUOUS
10
-3.45
20
-5.67
30
0
11
-3.6
21
-4.84
31
0
0
LINE
8
0
6
CONTINUOUS
10
-3.6
20
-4.84
30
0
11
-3.9
21
-4.05
31
0
0
LINE
8
0
6
CONTINUOUS
10
-3.9
20
-4.05
30
0
11
-4.34
21
-3.34
31
0
0
LINE
8
0
6
CONTINUOUS
10
-4.34
20
-3.34
30
0
11
-4.9
21
-2.72
31
0
0
LINE
8
0
6
CONTINUOUS
10
-4.9
20
-2.72
30
0
11
-5.57
21
-2.21
31
0
0
LINE
8
0
6
CONTINUOUS
10
-5.57
20
-2.21
30
0
11
-6.32
21
-1.83
31
0
0
LINE
8
0
6
CONTINUOUS
10
-6.32
20
-1.83
30
0
11
-7.12
21
-1.6
31
0
0
LINE
8
0
6
CONTINUOUS
10
-7.12
20
-1.6
30
0
11
-7.95
21
-1.53
31
0
0
LINE
8
0
6
CONTINUOUS
10
-7.95
20
-1.53
30
0
11
-13.96
21
-1.53
31
0
0
LINE
8
0
6
CONTINUOUS
10
-13.96
20
-1.53
30
0
11
-13.96
21
-3.06
31
0
0
LINE
8
0
6
CONTINUOUS
10
82.85
20
-72.77
30
0
11
84.83
21
-76.31
31
0
0
LINE
8
0
6
CONTINUOUS
10
84.83
20
-76.31
30
0
11
85.45
21
-77.05
31
0
0
LINE
8
0
6
CONTINUOUS
10
85.45
20
-77.05
30
0
11
86.2
21
-77.66
31
0
0
LINE
8
0
6
CONTINUOUS
10
86.2
20
-77.66
30
0
11
87.05
21
-78.1
31
0
0
LINE
8
0
6
CONTINUOUS
10
87.05
20
-78.1
30
0
11
87.98
21
-78.38
31
0
0
LINE
8
0
6
CONTINUOUS
10
87.98
20
-78.38
30
0
11
88.94
21
-78.47
31
0
0
LINE
8
0
6
CONTINUOUS
10
88.94
20
-78.47
30
0
11
124.02
21
-78.47
31
0
0
ARC
8
0
6
CONTINUOUS
10
124.00256248984459
20
-81.52995031548546
30
0
40
3.06
50
315.097814458769
51
89.67349635800045
0
LINE
8
0
6
CONTINUOUS
10
126.17
20
-83.69
30
0
11
124.98
21
-84.89
31
0
0
ARC
8
0
6
CONTINUOUS
10
126.06338046886509
20
-85.97036417919219
30
0
40
1.53
50
135.079871049597
51
268.7498616047869
0
LINE
8
0
6
CONTINUOUS
10
126.03
20
-87.5
30
0
11
173.95
21
-87.5
31
0
0
ARC
8
0
6
CONTINUOUS
10
173.94631925220233
20
-85.97000442742613
30
0
40
1.53
50
270.13783759325486
51
45.43225336823501
0
LINE
8
0
6
CONTINUOUS
10
175.02
20
-84.88
30
0
11
173.83
21
-83.69
31
0
0
ARC
8
0
6
CONTINUOUS
10
175.99747791855756
20
-81.52999086285139
30
0
40
3.06
50
90.14001751612555
51
224.9011136896684
0
LINE
8
0
6
CONTINUOUS
10
175.99
20
-78.47
30
0
11
211.07
21
-78.47
31
0
0
LINE
8
0
6
CONTINUOUS
10
211.07
20
-78.47
30
0
11
212.03
21
-78.38
31
0
0
LINE
8
0
6
CONTINUOUS
10
212.03
20
-78.38
30
0
11
212.95
21
-78.1
31
0
0
LINE
8
0
6
CONTINUOUS
10
212.95
20
-78.1
30
0
11
213.81
21
-77.66
31
0
0
LINE
8
0
6
CONTINUOUS
10
213.81
20
-77.66
30
0
11
214.56
21
-77.05
31
0
0
LINE
8
0
6
CONTINUOUS
10
214.56
20
-77.05
30
0
11
215.18
21
-76.31
31
0
0
LINE
8
0
6
CONTINUOUS
10
215.18
20
-76.31
30
0
11
217.18
21
-72.74
31
0
0
LINE
8
0
6
CONTINUOUS
10
217.18
20
-72.74
30
0
11
247.3
21
-3.91
31
0
0
LINE
8
0
6
CONTINUOUS
10
247.3
20
-3.91
30
0
11
247.92
21
-2.81
31
0
0
LINE
8
0
6
CONTINUOUS
10
247.92
20
-2.81
30
0
11
248.73
21
-1.85
31
0
0
LINE
8
0
6
CONTINUOUS
10
248.73
20
-1.85
30
0
11
249.71
21
-1.07
31
0
0
LINE
8
0
6
CONTINUOUS
10
249.71
20
-1.07
30
0
11
250.82
21
-0.48
31
0
0
LINE
8
0
6
CONTINUOUS
10
250.82
20
-0.48
30
0
11
252.03
21
-0.12
31
0
0
LINE
8
0
6
CONTINUOUS
10
252.03
20
-0.12
30
0
11
253.28
21
0.0
31
0
0
LINE
8
0
6
CONTINUOUS
10
253.28
20
0.0
30
0
11
46.73
21
0.0
31
0
0
LINE
8
0
6
CONTINUOUS
10
46.73
20
0.0
30
0
11
47.98
21
-0.12
31
0
0
LINE
8
0
6
CONTINUOUS
10
47.98
20
-0.12
30
0
11
49.18
21
-0.48
31
0
0
LINE
8
0
6
CONTINUOUS
10
49.18
20
-0.48
30
0
11
50.3
21
-1.07
31
0
0
LINE
8
0
6
CONTINUOUS
10
50.3
20
-1.07
30
0
11
51.28
21
-1.85
31
0
0
LINE
8
0
6
CONTINUOUS
10
51.28
20
-1.85
30
0
11
52.09
21
-2.81
31
0
0
LINE
8
0
6
CONTINUOUS
10
52.09
20
-2.81
30
0
11
52.71
21
-3.91
31
0
0
LINE
8
0
6
CONTINUOUS
10
52.71
20
-3.91
30
0
11
82.85
21
-72.77
31
0
0
LINE
8
0
6
CONTINUOUS
10
2.48
20
-16.78
30
0
11
3.59
21
-4.14
31
0
0
LINE
8
0
6
CONTINUOUS
10
3.59
20
-4.14
30
0
11
3.73
21
-3.31
31
0
0
LINE
8
0
6
CONTINUOUS
10
3.73
20
-3.31
30
0
11
4.03
21
-2.53
31
0
0
LINE
8
0
6
CONTINUOUS
10
4.03
20
-2.53
30
0
11
4.47
21
-1.81
31
0
0
LINE
8
0
6
CONTINUOUS
10
4.47
20
-1.81
30
0
11
5.03
21
-1.19
31
0
0
LINE
8
0
6
CONTINUOUS
10
5.03
20
-1.19
30
0
11
5.7
21
-0.68
31
0
0
LINE
8
0
6
CONTINUOUS
10
5.7
20
-0.68
30
0
11
6.45
21
-0.31
31
0
0
LINE
8
0
6
CONTINUOUS
10
6.45
20
-0.31
30
0
11
7.25
21
-0.08
31
0
0
LINE
8
0
6
CONTINUOUS
10
7.25
20
-0.08
30
0
11
8.08
21
0.0
31
0
0
LINE
8
0
6
CONTINUOUS
10
8.08
20
0.0
30
0
11
-0.0
21
0.0
31
0
0
LINE
8
0
6
CONTINUOUS
10
-0.0
20
0.0
30
0
11
-0.0
21
-6.27
31
0
0
LINE
8
0
6
CONTINUOUS
10
-0.0
20
-6.27
30
0
11
0.8
21
-14.6
31
0
0
LINE
8
0
6
CONTINUOUS
10
0.8
20
-14.6
30
0
11
0.0
21
-14.6
31
0
0
LINE
8
0
6
CONTINUOUS
10
0.0
20
-14.6
30
0
11
0.0
21
-19.26
31
0
0
ARC
8
0
6
CONTINUOUS
10
-2.220446049250313e-16
20
-16.780000000000005
30
0
40
2.48
50
270.0
51
8.207883048938106e-14
0
LINE
8
0
6
CONTINUOUS
10
382.85
20
-72.77
30
0
11
384.83
21
-76.31
31
0
0
LINE
8
0
6
CONTINUOUS
10
384.83
20
-76.31
30
0
11
385.45
21
-77.05
31
0
0
LINE
8
0
6
CONTINUOUS
10
385.45
20
-77.05
30
0
11
386.21
21
-77.66
31
0
0
LINE
8
0
6
CONTINUOUS
10
386.21
20
-77.66
30
0
11
387.06
21
-78.1
31
0
0
LINE
8
0
6
CONTINUOUS
10
387.06
20
-78.1
30
0
11
387.98
21
-78.38
31
0
0
LINE
8
0
6
CONTINUOUS
10
387.98
20
-78.38
30
0
11
388.94
21
-78.47
31
0
0
LINE
8
0
6
CONTINUOUS
10
388.94
20
-78.47
30
0
11
424.02
21
-78.47
31
0
0
ARC
8
0
6
CONTINUOUS
10
424.0125220814425
20
-81.52999086285139
30
0
40
3.06
50
315.09888631033084
51
89.85998248387605
0
LINE
8
0
6
CONTINUOUS
10
426.18
20
-83.69
30
0
11
424.99
21
-84.89
31
0
0
ARC
8
0
6
CONTINUOUS
10
426.0731370456774
20
-85.97060822700976
30
0
40
1.53
50
135.06696285957014
51
268.384380247591
0
LINE
8
0
6
CONTINUOUS
10
426.03
20
-87.5
30
0
11
473.96
21
-87.5
31
0
0
ARC
8
0
6
CONTINUOUS
10
473.94637633878983
20
-85.97006065615162
30
0
40
1.53
50
270.5101886302251
51
45.435254031432194
0
LINE
8
0
6
CONTINUOUS
10
475.02
20
-84.88
30
0
11
473.84
21
-83.69
31
0
0
ARC
8
0
6
CONTINUOUS
10
476.00747791855747
20
-81.52999086285139
30
0
40
3.06
50
90.14001751612395
51
224.9011136896691
0
LINE
8
0
6
CONTINUOUS
10
476.0
20
-78.47
30
0
11
511.08
21
-78.47
31
0
0
LINE
8
0
6
CONTINUOUS
10
511.08
20
-78.47
30
0
11
512.04
21
-78.38
31
0
0
LINE
8
0
6
CONTINUOUS
10
512.04
20
-78.38
30
0
11
512.96
21
-78.1
31
0
0
LINE
8
0
6
CONTINUOUS
10
512.96
20
-78.1
30
0
11
513.81
21
-77.66
31
0
0
LINE
8
0
6
CONTINUOUS
10
513.81
20
-77.66
30
0
11
514.57
21
-77.05
31
0
0
LINE
8
0
6
CONTINUOUS
10
514.57
20
-77.05
30
0
11
515.19
21
-76.31
31
0
0
LINE
8
0
6
CONTINUOUS
10
515.19
20
-76.31
30
0
11
517.18
21
-72.74
31
0
0
LINE
8
0
6
CONTINUOUS
10
517.18
20
-72.74
30
0
11
547.31
21
-3.91
31
0
0
LINE
8
0
6
CONTINUOUS
10
547.31
20
-3.91
30
0
11
547.92
21
-2.81
31
0
0
LINE
8
0
6
CONTINUOUS
10
547.92
20
-2.81
30
0
11
548.74
21
-1.85
31
0
0
LINE
8
0
6
CONTINUOUS
10
548.74
20
-1.85
30
0
11
549.72
21
-1.07
31
0
0
LINE
8
0
6
CONTINUOUS
10
549.72
20
-1.07
30
0
11
550.83
21
-0.48
31
0
0
LINE
8
0
6
CONTINUOUS
10
550.83
20
-0.48
30
0
11
552.04
21
-0.12
31
0
0
LINE
8
0
6
CONTINUOUS
10
552.04
20
-0.12
30
0
11
553.29
21
0.0
31
0
0
LINE
8
0
6
CONTINUOUS
10
553.29
20
0.0
30
0
11
346.73
21
0.0
31
0
0
LINE
8
0
6
CONTINUOUS
10
346.73
20
0.0
30
0
11
347.99
21
-0.12
31
0
0
LINE
8
0
6
CONTINUOUS
10
347.99
20
-0.12
30
0
11
349.19
21
-0.48
31
0
0
LINE
8
0
6
CONTINUOUS
10
349.19
20
-0.48
30
0
11
350.31
21
-1.07
31
0
0
LINE
8
0
6
CONTINUOUS
10
350.31
20
-1.07
30
0
11
351.29
21
-1.85
31
0
0
LINE
8
0
6
CONTINUOUS
10
351.29
20
-1.85
30
0
11
352.1
21
-2.81
31
0
0
LINE
8
0
6
CONTINUOUS
10
352.1
20
-2.81
30
0
11
352.71
21
-3.91
31
0
0
LINE
8
0
6
CONTINUOUS
10
352.71
20
-3.91
30
0
11
382.85
21
-72.77
31
0
0
LINE
8
0
6
CONTINUOUS
10
682.86
20
-72.77
30
0
11
684.84
21
-76.31
31
0
0
LINE
8
0
6
CONTINUOUS
10
684.84
20
-76.31
30
0
11
685.46
21
-77.05
31
0
0
LINE
8
0
6
CONTINUOUS
10
685.46
20
-77.05
30
0
11
686.21
21
-77.66
31
0
0
LINE
8
0
6
CONTINUOUS
10
686.21
20
-77.66
30
0
11
687.07
21
-78.1
31
0
0
LINE
8
0
6
CONTINUOUS
10
687.07
20
-78.1
30
0
11
687.99
21
-78.38
31
0
0
LINE
8
0
6
CONTINUOUS
10
687.99
20
-78.38
30
0
11
688.95
21
-78.47
31
0
0
LINE
8
0
6
CONTINUOUS
10
688.95
20
-78.47
30
0
11
724.03
21
-78.47
31
0
0
ARC
8
0
6
CONTINUOUS
10
724.0225220814425
20
-81.52999086285139
30
0
40
3.06
50
315.09888631033164
51
89.85998248387605
0
LINE
8
0
6
CONTINUOUS
10
726.19
20
-83.69
30
0
11
724.99
21
-84.89
31
0
0
ARC
8
0
6
CONTINUOUS
10
726.0733804688651
20
-85.9703641791922
30
0
40
1.53
50
135.07987104959773
51
268.7498616047837
0
LINE
8
0
6
CONTINUOUS
10
726.04
20
-87.5
30
0
11
773.96
21
-87.5
31
0
0
ARC
8
0
6
CONTINUOUS
10
773.9563192522023
20
-85.97000442742613
30
0
40
1.53
50
270.13783759325696
51
45.43225336823577
0
LINE
8
0
6
CONTINUOUS
10
775.03
20
-84.88
30
0
11
773.85
21
-83.69
31
0
0
ARC
8
0
6
CONTINUOUS
10
776.0174375101553
20
-81.52995031548546
30
0
40
3.06
50
90.32650364199823
51
224.90218554123234
0
LINE
8
0
6
CONTINUOUS
10
776.0
20
-78.47
30
0
11
811.09
21
-78.47
31
0
0
LINE
8
0
6
CONTINUOUS
10
811.09
20
-78.47
30
0
11
812.04
21
-78.38
31
0
0
LINE
8
0
6
CONTINUOUS
10
812.04
20
-78.38
30
0
11
812.97
21
-78.1
31
0
0
LINE
8
0
6
CONTINUOUS
10
812.97
20
-78.1
30
0
11
813.82
21
-77.66
31
0
0
LINE
8
0
6
CONTINUOUS
10
813.82
20
-77.66
30
0
11
814.57
21
-77.05
31
0
0
LINE
8
0
6
CONTINUOUS
10
814.57
20
-77.05
30
0
11
815.2
21
-76.31
31
0
0
LINE
8
0
6
CONTINUOUS
10
815.2
20
-76.31
30
0
11
817.19
21
-72.74
31
0
0
LINE
8
0
6
CONTINUOUS
10
817.19
20
-72.74
30
0
11
847.32
21
-3.91
31
0
0
LINE
8
0
6
CONTINUOUS
10
847.32
20
-3.91
30
0
11
847.93
21
-2.81
31
0
0
LINE
8
0
6
CONTINUOUS
10
847.93
20
-2.81
30
0
11
848.74
21
-1.85
31
0
0
LINE
8
0
6
CONTINUOUS
10
848.74
20
-1.85
30
0
11
849.72
21
-1.07
31
0
0
LINE
8
0
6
CONTINUOUS
10
849.72
20
-1.07
30
0
11
850.84
21
-0.48
31
0
0
LINE
8
0
6
CONTINUOUS
10
850.84
20
-0.48
30
0
11
852.04
21
-0.12
31
0
0
LINE
8
0
6
CONTINUOUS
10
852.04
20
-0.12
30
0
11
853.29
21
0.0
31
0
0
LINE
8
0
6
CONTINUOUS
10
853.29
20
0.0
30
0
11
646.74
21
0.0
31
0
0
LINE
8
0
6
CONTINUOUS
10
646.74
20
0.0
30
0
11
647.99
21
-0.12
31
0
0
LINE
8
0
6
CONTINUOUS
10
647.99
20
-0.12
30
0
11
649.2
21
-0.48
31
0
0
LINE
8
0
6
CONTINUOUS
10
649.2
20
-0.48
30
0
11
650.31
21
-1.07
31
0
0
LINE
8
0
6
CONTINUOUS
10
650.31
20
-1.07
30
0
11
651.29
21
-1.85
31
0
0
LINE
8
0
6
CONTINUOUS
10
651.29
20
-1.85
30
0
11
652.1
21
-2.81
31
0
0
LINE
8
0
6
CONTINUOUS
10
652.1
20
-2.81
30
0
11
652.72
21
-3.91
31
0
0
LINE
8
0
6
CONTINUOUS
10
652.72
20
-3.91
30
0
11
682.86
21
-72.77
31
0
0
LINE
8
0
6
CONTINUOUS
10
291.98
20
-0.46
30
0
11
298.69
21
-3.74
31
0
0
ARC
8
0
6
CONTINUOUS
10
300.005
20
-1.054692755009214
30
0
40
2.99
50
243.90892162443794
51
296.09107837556206
0
LINE
8
0
6
CONTINUOUS
10
301.32
20
-3.74
30
0
11
308.03
21
-0.46
31
0
0
ARC
8
0
6
CONTINUOUS
10
310.01434294854556
20
-4.509997908957157
30
0
40
4.51
50
90.05517353897127
51
116.10307402116183
0
LINE
8
0
6
CONTINUOUS
10
310.0
20
0.0
30
0
11
290.0
21
0.0
31
0
0
ARC
8
0
6
CONTINUOUS
10
289.99565705145443
20
-4.509997908957157
30
0
40
4.51
50
63.89692597883818
51
89.94482646102874
0
LINE
8
0
6
CONTINUOUS
10
591.99
20
-0.46
30
0
11
598.7
21
-3.74
31
0
0
ARC
8
0
6
CONTINUOUS
10
600.0150000000001
20
-1.054692755009214
30
0
40
2.99
50
243.90892162443697
51
296.0910783755611
0
LINE
8
0
6
CONTINUOUS
10
601.33
20
-3.74
30
0
11
608.04
21
-0.46
31
0
0
ARC
8
0
6
CONTINUOUS
10
610.0243429485456
20
-4.509997908957157
30
0
40
4.51
50
90.055173538972
51
116.10307402116247
0
LINE
8
0
6
CONTINUOUS
10
610.01
20
0.0
30
0
11
590.01
21
0.0
31
0
0
ARC
8
0
6
CONTINUOUS
10
590.0056570514544
20
-4.509997908957157
30
0
40
4.51
50
63.89692597883753
51
89.94482646102801
0
LINE
8
0
6
CONTINUOUS
10
900.0
20
-6.27
30
0
11
900.0
21
0.0
31
0
0
LINE
8
0
6
CONTINUOUS
10
900.0
20
0.0
30
0
11
895.31
21
0.0
31
0
0
LINE
8
0
6
CONTINUOUS
10
895.31
20
0.0
30
0
11
896.14
21
-0.08
31
0
0
LINE
8
0
6
CONTINUOUS
10
896.14
20
-0.08
30
0
11
896.95
21
-0.31
31
0
0
LINE
8
0
6
CONTINUOUS
10
896.95
20
-0.31
30
0
11
897.7
21
-0.68
31
0
0
LINE
8
0
6
CONTINUOUS
10
897.7
20
-0.68
30
0
11
898.36
21
-1.19
31
0
0
LINE
8
0
6
CONTINUOUS
10
898.36
20
-1.19
30
0
11
898.93
21
-1.81
31
0
0
LINE
8
0
6
CONTINUOUS
10
898.93
20
-1.81
30
0
11
899.36
21
-2.53
31
0
0
LINE
8
0
6
CONTINUOUS
10
899.36
20
-2.53
30
0
11
899.66
21
-3.31
31
0
0
LINE
8
0
6
CONTINUOUS
10
899.66
20
-3.31
30
0
11
899.81
21
-4.14
31
0
0
LINE
8
0
6
CONTINUOUS
10
899.81
20
-4.14
30
0
11
900.0
21
-6.27
31
0
0
ARC
8
0
6
CONTINUOUS
10
895.2921293149182
20
-4.539946949468496
30
0
40
3.01
50
5.145391977059574
51
89.65982696091214
0
LINE
8
0
6
CONTINUOUS
10
895.31
20
-1.53
30
0
11
892.05
21
-1.53
31
0
0
LINE
8
0
6
CONTINUOUS
10
892.05
20
-1.53
30
0
11
892.88
21
-1.6
31
0
0
LINE
8
0
6
CONTINUOUS
10
892.88
20
-1.6
30
0
11
893.68
21
-1.83
31
0
0
LINE
8
0
6
CONTINUOUS
10
893.68
20
-1.83
30
0
11
894.43
21
-2.21
31
0
0
LINE
8
0
6
CONTINUOUS
10
894.43
20
-2.21
30
0
11
895.1
21
-2.72
31
0
0
LINE
8
0
6
CONTINUOUS
10
895.1
20
-2.72
30
0
11
895.66
21
-3.34
31
0
0
LINE
8
0
6
CONTINUOUS
10
895.66
20
-3.34
30
0
11
896.1
21
-4.05
31
0
0
LINE
8
0
6
CONTINUOUS
10
896.1
20
-4.05
30
0
11
896.4
21
-4.84
31
0
0
LINE
8
0
6
CONTINUOUS
10
896.4
20
-4.84
30
0
11
896.55
21
-5.67
31
0
0
LINE
8
0
6
CONTINUOUS
10
896.55
20
-5.67
30
0
11
897.52
21
-16.78
31
0
0
ARC
8
0
6
CONTINUOUS
10
900.0
20
-16.780000000000005
30
0
40
2.48
50
179.99999999999991
51
270.0
0
LINE
8
0
6
CONTINUOUS
10
900.0
20
-19.26
30
0
11
900.0
21
-14.6
31
0
0
LINE
8
0
6
CONTINUOUS
10
900.0
20
-14.6
30
0
11
899.2
21
-14.6
31
0
0
LINE
8
0
6
CONTINUOUS
10
899.2
20
-14.6
30
0
11
898.29
21
-4.27
31
0
0
ENDSEC
0
EOF