0
SECTION
2
HEADER
0
ENDSEC
0
SECTION
2
TABLES
0
TABLE
2
LTYPE
70
3
0
LTYPE
2
CONTINUOUS
70
0
3
Solid line
72
65
73
0
40
0.0
0
LTYPE
2
HIDDEN
70
0
3
hidden
72
65
73
2
40
9.524999999999999
49
6.35
49
-3.175
0
ENDTAB
0
TABLE
2
LAYER
70
1
0
LAYER
2
0
70
0
62
7
6
CONTINUOUS
0
ENDTAB
0
ENDSEC
0
SECTION
2
ENTITIES
0
LINE
8
0
6
CONTINUOUS
10
769.12
20
-400.0
30
0
11
769.12
21
0.0
31
0
0
LINE
8
0
6
CONTINUOUS
10
769.12
20
-50.0
30
0
11
-0.0
21
-50.0
31
0
0
LINE
8
0
6
CONTINUOUS
10
0.0
20
-400.0
30
0
11
0.0
21
0.0
31
0
0
LINE
8
0
6
CONTINUOUS
10
-0.0
20
0.0
30
0
11
769.12
21
0.0
31
0
0
LINE
8
0
6
CONTINUOUS
10
125.0
20
-221.0
30
0
11
769.12
21
-221.0
31
0
0
LINE
8
0
6
CONTINUOUS
10
769.12
20
-221.0
30
0
11
769.12
21
-100.0
31
0
0
LINE
8
0
6
CONTINUOUS
10
769.12
20
-100.0
30
0
11
132.0
21
-100.0
31
0
0
LINE
8
0
6
CONTINUOUS
10
132.0
20
-100.0
30
0
11
132.0
21
-150.0
31
0
0
LINE
8
0
6
CONTINUOUS
10
132.0
20
-150.0
30
0
11
125.0
21
-150.0
31
0
0
LINE
8
0
6
CONTINUOUS
10
125.0
20
-150.0
30
0
11
125.0
21
-221.0
31
0
0
LINE
8
0
6
CONTINUOUS
10
0.0
20
-50.0
30
0
11
17.0
21
-100.0
31
0
0
LINE
8
0
6
CONTINUOUS
10
17.0
20
-100.0
30
0
11
67.0
21
-100.0
31
0
0
LINE
8
0
6
CONTINUOUS
10
67.0
20
-100.0
30
0
11
82.0
21
-150.0
31
0
0
LINE
8
0
6
CONTINUOUS
10
82.0
20
-150.0
30
0
11
132.0
21
-150.0
31
0
0
LINE
8
0
6
CONTINUOUS
10
132.0
20
-150.0
30
0
11
132.0
21
-100.0
31
0
0
LINE
8
0
6
CONTINUOUS
10
132.0
20
-100.0
30
0
11
769.12
21
-100.0
31
0
0
LINE
8
0
6
CONTINUOUS
10
769.12
20
-100.0
30
0
11
769.12
21
-50.0
31
0
0
LINE
8
0
6
CONTINUOUS
10
769.12
20
-50.0
30
0
11
0.0
21
-50.0
31
0
0
LINE
8
0
6
CONTINUOUS
10
-0.0
20
-50.0
30
0
11
-0.0
21
-400.0
31
0
0
LINE
8
0
6
CONTINUOUS
10
-0.0
20
-400.0
30
0
11
125.0
21
-400.0
31
0
0
LINE
8
0
6
CONTINUOUS
10
125.0
20
-400.0
30
0
11
125.0
21
-150.0
31
0
0
LINE
8
0
6
CONTINUOUS
10
125.0
20
-150.0
30
0
11
82.0
21
-150.0
31
0
0
LINE
8
0
6
CONTINUOUS
10
82.0
20
-150.0
30
0
11
67.0
21
-100.0
31
0
0
LINE
8
0
6
CONTINUOUS
10
67.0
20
-100.0
30
0
11
17.0
21
-100.0
31
0
0
LINE
8
0
6
CONTINUOUS
10
17.0
20
-100.0
30
0
11
-0.0
21
-50.0
31
0
0
LINE
8
0
6
HIDDEN
10
769.12
20
-300.0
30
0
11
125.0
21
-300.0
31
0
0
LINE
8
0
6
CONTINUOUS
10
-0.0
20
-400.0
30
0
11
769.12
21
-400.0
31
0
0
ENDSEC
0
EOF