0
SECTION
2
HEADER
0
ENDSEC
0
SECTION
2
TABLES
0
TABLE
2
LTYPE
70
2
0
LTYPE
2
CONTINUOUS
70
0
3
Solid line
72
65
73
0
40
0.0
0
ENDTAB
0
TABLE
2
LAYER
70
1
0
LAYER
2
0
70
0
62
7
6
CONTINUOUS
0
ENDTAB
0
ENDSEC
0
SECTION
2
ENTITIES
0
LINE
8
0
6
CONTINUOUS
10
170.0
20
60.0
30
0
11
-170.0
21
60.0
31
0
0
LINE
8
0
6
CONTINUOUS
10
150.0
20
-20.0
30
0
11
150.0
21
80.0
31
0
0
LINE
8
0
6
CONTINUOUS
10
-150.0
20
-20.0
30
0
11
-150.0
21
80.0
31
0
0
LINE
8
0
6
CONTINUOUS
10
0.0
20
-20.0
30
0
11
0.0
21
80.0
31
0
0
LINE
8
0
6
CONTINUOUS
10
-170.0
20
0.0
30
0
11
170.0
21
0.0
31
0
0
LINE
8
0
6
CONTINUOUS
10
150.0
20
-0.0
30
0
11
150.0
21
60.0
31
0
0
LINE
8
0
6
CONTINUOUS
10
150.0
20
60.0
30
0
11
-150.0
21
60.0
31
0
0
LINE
8
0
6
CONTINUOUS
10
-150.0
20
60.0
30
0
11
-150.0
21
-0.0
31
0
0
LINE
8
0
6
CONTINUOUS
10
-150.0
20
-0.0
30
0
11
150.0
21
-0.0
31
0
0
LINE
8
0
6
CONTINUOUS
10
151.0
20
60.0
30
0
11
149.0
21
60.0
31
0
0
LINE
8
0
6
CONTINUOUS
10
151.0
20
-0.0
30
0
11
149.0
21
-0.0
31
0
0
LINE
8
0
6
CONTINUOUS
10
150.0
20
-20.0
30
0
11
150.0
21
80.0
31
0
0
LINE
8
0
6
CONTINUOUS
10
151.0
20
80.0
30
0
11
149.0
21
80.0
31
0
0
LINE
8
0
6
CONTINUOUS
10
149.0
20
80.0
30
0
11
149.0
21
-20.0
31
0
0
LINE
8
0
6
CONTINUOUS
10
149.0
20
-20.0
30
0
11
151.0
21
-20.0
31
0
0
LINE
8
0
6
CONTINUOUS
10
151.0
20
-20.0
30
0
11
151.0
21
80.0
31
0
0
LINE
8
0
6
CONTINUOUS
10
150.0
20
80.0
30
0
11
150.0
21
-20.0
31
0
0
LINE
8
0
6
CONTINUOUS
10
150.0
20
59.0
30
0
11
150.0
21
61.0
31
0
0
LINE
8
0
6
CONTINUOUS
10
-150.0
20
59.0
30
0
11
-150.0
21
61.0
31
0
0
LINE
8
0
6
CONTINUOUS
10
-170.0
20
60.0
30
0
11
170.0
21
60.0
31
0
0
LINE
8
0
6
CONTINUOUS
10
170.0
20
59.0
30
0
11
170.0
21
61.0
31
0
0
LINE
8
0
6
CONTINUOUS
10
170.0
20
61.0
30
0
11
-170.0
21
61.0
31
0
0
LINE
8
0
6
CONTINUOUS
10
-170.0
20
61.0
30
0
11
-170.0
21
59.0
31
0
0
LINE
8
0
6
CONTINUOUS
10
-170.0
20
59.0
30
0
11
170.0
21
59.0
31
0
0
LINE
8
0
6
CONTINUOUS
10
170.0
20
60.0
30
0
11
-170.0
21
60.0
31
0
0
LINE
8
0
6
CONTINUOUS
10
-149.0
20
60.0
30
0
11
-151.0
21
60.0
31
0
0
LINE
8
0
6
CONTINUOUS
10
-149.0
20
-0.0
30
0
11
-151.0
21
-0.0
31
0
0
LINE
8
0
6
CONTINUOUS
10
-150.0
20
-20.0
30
0
11
-150.0
21
80.0
31
0
0
LINE
8
0
6
CONTINUOUS
10
-149.0
20
80.0
30
0
11
-151.0
21
80.0
31
0
0
LINE
8
0
6
CONTINUOUS
10
-151.0
20
80.0
30
0
11
-151.0
21
-20.0
31
0
0
LINE
8
0
6
CONTINUOUS
10
-151.0
20
-20.0
30
0
11
-149.0
21
-20.0
31
0
0
LINE
8
0
6
CONTINUOUS
10
-149.0
20
-20.0
30
0
11
-149.0
21
80.0
31
0
0
LINE
8
0
6
CONTINUOUS
10
-150.0
20
80.0
30
0
11
-150.0
21
-20.0
31
0
0
ENDSEC
0
EOF