0
SECTION
2
HEADER
0
ENDSEC
0
SECTION
2
TABLES
0
TABLE
2
LTYPE
70
2
0
LTYPE
2
CONTINUOUS
70
0
3
Solid line
72
65
73
0
40
0.0
0
ENDTAB
0
TABLE
2
LAYER
70
1
0
LAYER
2
0
70
0
62
7
6
CONTINUOUS
0
ENDTAB
0
ENDSEC
0
SECTION
2
ENTITIES
0
LINE
8
0
6
CONTINUOUS
10
1200.0
20
-0.0
30
0
11
1200.0
21
200.0
31
0
0
LINE
8
0
6
CONTINUOUS
10
0.0
20
-0.0
30
0
11
0.0
21
200.0
31
0
0
LINE
8
0
6
CONTINUOUS
10
0.0
20
0.0
30
0
11
1200.0
21
0.0
31
0
0
LINE
8
0
6
CONTINUOUS
10
5.0
20
20.0
30
0
11
0.0
21
20.0
31
0
0
LINE
8
0
6
CONTINUOUS
10
0.0
20
20.0
30
0
11
0.0
21
10.0
31
0
0
LINE
8
0
6
CONTINUOUS
10
0.0
20
10.0
30
0
11
10.0
21
0.0
31
0
0
LINE
8
0
6
CONTINUOUS
10
10.0
20
0.0
30
0
11
1190.0
21
-0.0
31
0
0
LINE
8
0
6
CONTINUOUS
10
1190.0
20
-0.0
30
0
11
1200.0
21
10.0
31
0
0
LINE
8
0
6
CONTINUOUS
10
1200.0
20
10.0
30
0
11
1200.0
21
20.0
31
0
0
LINE
8
0
6
CONTINUOUS
10
1200.0
20
20.0
30
0
11
1195.0
21
20.0
31
0
0
LINE
8
0
6
CONTINUOUS
10
1195.0
20
20.0
30
0
11
1183.49
21
100.6
31
0
0
LINE
8
0
6
CONTINUOUS
10
1183.49
20
100.6
30
0
11
1169.34
21
114.75
31
0
0
LINE
8
0
6
CONTINUOUS
10
1169.34
20
114.75
30
0
11
1164.39
21
149.39
31
0
0
LINE
8
0
6
CONTINUOUS
10
1164.39
20
149.39
30
0
11
1175.0
21
160.0
31
0
0
LINE
8
0
6
CONTINUOUS
10
1175.0
20
160.0
30
0
11
1175.0
21
200.0
31
0
0
LINE
8
0
6
CONTINUOUS
10
1175.0
20
200.0
30
0
11
25.0
21
200.0
31
0
0
LINE
8
0
6
CONTINUOUS
10
25.0
20
200.0
30
0
11
25.0
21
160.0
31
0
0
LINE
8
0
6
CONTINUOUS
10
25.0
20
160.0
30
0
11
35.61
21
149.39
31
0
0
LINE
8
0
6
CONTINUOUS
10
35.61
20
149.39
30
0
11
30.66
21
114.75
31
0
0
LINE
8
0
6
CONTINUOUS
10
30.66
20
114.75
30
0
11
16.51
21
100.6
31
0
0
LINE
8
0
6
CONTINUOUS
10
16.51
20
100.6
30
0
11
5.0
21
20.0
31
0
0
LINE
8
0
6
CONTINUOUS
10
1175.0
20
200.0
30
0
11
25.0
21
200.0
31
0
0
LINE
8
0
6
CONTINUOUS
10
25.0
20
200.0
30
0
11
25.0
21
160.0
31
0
0
LINE
8
0
6
CONTINUOUS
10
25.0
20
160.0
30
0
11
35.61
21
149.39
31
0
0
LINE
8
0
6
CONTINUOUS
10
35.61
20
149.39
30
0
11
30.66
21
114.75
31
0
0
LINE
8
0
6
CONTINUOUS
10
30.66
20
114.75
30
0
11
16.51
21
100.6
31
0
0
LINE
8
0
6
CONTINUOUS
10
16.51
20
100.6
30
0
11
5.0
21
20.0
31
0
0
LINE
8
0
6
CONTINUOUS
10
5.0
20
20.0
30
0
11
0.0
21
20.0
31
0
0
LINE
8
0
6
CONTINUOUS
10
0.0
20
20.0
30
0
11
0.0
21
10.0
31
0
0
LINE
8
0
6
CONTINUOUS
10
0.0
20
10.0
30
0
11
10.0
21
0.0
31
0
0
LINE
8
0
6
CONTINUOUS
10
10.0
20
0.0
30
0
11
1190.0
21
-0.0
31
0
0
LINE
8
0
6
CONTINUOUS
10
1190.0
20
-0.0
30
0
11
1200.0
21
10.0
31
0
0
LINE
8
0
6
CONTINUOUS
10
1200.0
20
10.0
30
0
11
1200.0
21
20.0
31
0
0
LINE
8
0
6
CONTINUOUS
10
1200.0
20
20.0
30
0
11
1195.0
21
20.0
31
0
0
LINE
8
0
6
CONTINUOUS
10
1195.0
20
20.0
30
0
11
1183.49
21
100.6
31
0
0
LINE
8
0
6
CONTINUOUS
10
1183.49
20
100.6
30
0
11
1169.34
21
114.75
31
0
0
LINE
8
0
6
CONTINUOUS
10
1169.34
20
114.75
30
0
11
1164.39
21
149.39
31
0
0
LINE
8
0
6
CONTINUOUS
10
1164.39
20
149.39
30
0
11
1175.0
21
160.0
31
0
0
LINE
8
0
6
CONTINUOUS
10
1175.0
20
160.0
30
0
11
1175.0
21
200.0
31
0
0
ENDSEC
0
EOF