0
SECTION
2
HEADER
0
ENDSEC
0
SECTION
2
TABLES
0
TABLE
2
LTYPE
70
2
0
LTYPE
2
CONTINUOUS
70
0
3
Solid line
72
65
73
0
40
0.0
0
ENDTAB
0
TABLE
2
LAYER
70
1
0
LAYER
2
0
70
0
62
7
6
CONTINUOUS
0
ENDTAB
0
ENDSEC
0
SECTION
2
ENTITIES
0
LINE
8
0
6
CONTINUOUS
10
0.0
20
-107.0
30
0
11
0.0
21
170.0
31
0
0
LINE
8
0
6
CONTINUOUS
10
-102.5
20
0.0
30
0
11
597.5
21
0.0
31
0
0
ARC
8
0
6
CONTINUOUS
10
53.00000149367514
20
46.15613519092073
30
0
40
5.0
50
0.04428745418324723
51
76.11347726894671
0
LINE
8
0
6
CONTINUOUS
10
54.2
20
51.01
30
0
11
41.89
21
54.28
31
0
0
LINE
8
0
6
CONTINUOUS
10
41.89
20
54.28
30
0
11
35.0
21
56.0
31
0
0
ARC
8
0
6
CONTINUOUS
10
37.75100516547182
20
67.03217433598415
30
0
40
11.37
50
182.27920097581745
51
255.99816559235472
0
LINE
8
0
6
CONTINUOUS
10
26.39
20
66.58
30
0
11
30.0
21
140.0
31
0
0
LINE
8
0
6
CONTINUOUS
10
30.0
20
140.0
30
0
11
30.0
21
170.0
31
0
0
LINE
8
0
6
CONTINUOUS
10
30.0
20
170.0
30
0
11
-30.0
21
170.0
31
0
0
LINE
8
0
6
CONTINUOUS
10
-30.0
20
170.0
30
0
11
-30.0
21
140.0
31
0
0
LINE
8
0
6
CONTINUOUS
10
-30.0
20
140.0
30
0
11
-26.37
21
66.01
31
0
0
ARC
8
0
6
CONTINUOUS
10
-36.389550332412675
20
66.10492700484613
30
0
40
10.02
50
284.85905606422887
51
359.4571858181911
0
LINE
8
0
6
CONTINUOUS
10
-33.82
20
56.42
30
0
11
-54.28
21
50.99
31
0
0
ARC
8
0
6
CONTINUOUS
10
-53.00000114528859
20
46.15661578891793
30
0
40
5.0
50
104.83283434435911
51
179.96121979464232
0
LINE
8
0
6
CONTINUOUS
10
-58.0
20
46.16
30
0
11
-58.0
21
-0.0
31
0
0
LINE
8
0
6
CONTINUOUS
10
-58.0
20
-0.0
30
0
11
58.0
21
-0.0
31
0
0
LINE
8
0
6
CONTINUOUS
10
58.0
20
-0.0
30
0
11
58.0
21
46.16
31
0
0
LINE
8
0
6
CONTINUOUS
10
352.1
20
-29.3
30
0
11
397.5
21
-46.1
31
0
0
LINE
8
0
6
CONTINUOUS
10
397.5
20
-46.1
30
0
11
402.5
21
-46.1
31
0
0
LINE
8
0
6
CONTINUOUS
10
402.5
20
-46.1
30
0
11
402.5
21
-5.0
31
0
0
LINE
8
0
6
CONTINUOUS
10
402.5
20
-5.0
30
0
11
437.5
21
-5.0
31
0
0
LINE
8
0
6
CONTINUOUS
10
437.5
20
-5.0
30
0
11
437.5
21
18.28
31
0
0
ARC
8
0
6
CONTINUOUS
10
442.4999996585439
20
18.281847852940203
30
0
40
5.0
50
106.73825267545925
51
180.02117483540889
0
LINE
8
0
6
CONTINUOUS
10
441.06
20
23.07
30
0
11
447.5
21
25.0
31
0
0
LINE
8
0
6
CONTINUOUS
10
447.5
20
25.0
30
0
11
447.5
21
53.03
31
0
0
ARC
8
0
6
CONTINUOUS
10
454.4999934665337
20
53.03956391578989
30
0
40
7.0
50
104.05517769267844
51
180.07828174012326
0
LINE
8
0
6
CONTINUOUS
10
452.8
20
59.83
30
0
11
477.5
21
66.0
31
0
0
LINE
8
0
6
CONTINUOUS
10
477.5
20
66.0
30
0
11
477.5
21
115.0
31
0
0
LINE
8
0
6
CONTINUOUS
10
477.5
20
115.0
30
0
11
326.5
21
170.0
31
0
0
LINE
8
0
6
CONTINUOUS
10
326.5
20
170.0
30
0
11
183.5
21
170.0
31
0
0
LINE
8
0
6
CONTINUOUS
10
183.5
20
170.0
30
0
11
32.5
21
115.0
31
0
0
LINE
8
0
6
CONTINUOUS
10
32.5
20
115.0
30
0
11
32.5
21
66.0
31
0
0
LINE
8
0
6
CONTINUOUS
10
32.5
20
66.0
30
0
11
57.2
21
59.83
31
0
0
ARC
8
0
6
CONTINUOUS
10
55.500006533466276
20
53.03956391578989
30
0
40
7.0
50
359.92171825987674
51
75.94482230732112
0
LINE
8
0
6
CONTINUOUS
10
62.5
20
53.03
30
0
11
62.5
21
25.0
31
0
0
LINE
8
0
6
CONTINUOUS
10
62.5
20
25.0
30
0
11
68.94
21
23.07
31
0
0
ARC
8
0
6
CONTINUOUS
10
67.50000034145606
20
18.281847852940203
30
0
40
5.0
50
359.9788251645911
51
73.26174732454044
0
LINE
8
0
6
CONTINUOUS
10
72.5
20
18.28
30
0
11
72.5
21
5.0
31
0
0
ARC
8
0
6
CONTINUOUS
10
62.5
20
4.999999999999999
30
0
40
10.0
50
270.0
51
5.0888874903416275e-15
0
LINE
8
0
6
CONTINUOUS
10
62.5
20
-5.0
30
0
11
-102.5
21
-5.0
31
0
0
LINE
8
0
6
CONTINUOUS
10
-102.5
20
-5.0
30
0
11
-102.5
21
-51.0
31
0
0
LINE
8
0
6
CONTINUOUS
10
-102.5
20
-51.0
30
0
11
-37.5
21
-75.0
31
0
0
LINE
8
0
6
CONTINUOUS
10
-37.5
20
-75.0
30
0
11
32.5
21
-75.0
31
0
0
LINE
8
0
6
CONTINUOUS
10
32.5
20
-75.0
30
0
11
157.9
21
-29.3
31
0
0
LINE
8
0
6
CONTINUOUS
10
157.9
20
-29.3
30
0
11
198.44
21
24.11
31
0
0
ARC
8
0
6
CONTINUOUS
10
218.35702551455583
20
9.000000176951268
30
0
40
25.0
50
89.99318298149693
51
142.81432182827646
0
LINE
8
0
6
CONTINUOUS
10
218.36
20
34.0
30
0
11
291.64
21
34.0
31
0
0
ARC
8
0
6
CONTINUOUS
10
291.6429744854442
20
9.000000176951268
30
0
40
25.0
50
37.18567817172357
51
90.00681701850316
0
LINE
8
0
6
CONTINUOUS
10
311.56
20
24.11
30
0
11
352.1
21
-29.3
31
0
0
LINE
8
0
6
CONTINUOUS
10
-102.5
20
-5.0
30
0
11
-68.75
21
-63.46
31
0
0
LINE
8
0
6
CONTINUOUS
10
-68.75
20
-63.46
30
0
11
-34.99
21
-5.0
31
0
0
LINE
8
0
6
CONTINUOUS
10
-34.99
20
-5.0
30
0
11
5.42
21
-75.0
31
0
0
LINE
8
0
6
CONTINUOUS
10
5.42
20
-75.0
30
0
11
45.84
21
-5.0
31
0
0
LINE
8
0
6
CONTINUOUS
10
45.84
20
-5.0
30
0
11
76.91
21
-58.82
31
0
0
LINE
8
0
6
CONTINUOUS
10
76.91
20
-58.82
30
0
11
209.01
21
170.0
31
0
0
LINE
8
0
6
CONTINUOUS
10
209.01
20
170.0
30
0
11
287.53
21
34.0
31
0
0
LINE
8
0
6
CONTINUOUS
10
287.53
20
34.0
30
0
11
359.18
21
158.1
31
0
0
LINE
8
0
6
CONTINUOUS
10
359.18
20
158.1
30
0
11
438.32
21
21.02
31
0
0
LINE
8
0
6
CONTINUOUS
10
438.32
20
21.02
30
0
11
447.5
21
36.92
31
0
0
ENDSEC
0
EOF