0
SECTION
2
HEADER
0
ENDSEC
0
SECTION
2
TABLES
0
TABLE
2
LTYPE
70
2
0
LTYPE
2
CONTINUOUS
70
0
3
Solid line
72
65
73
0
40
0.0
0
ENDTAB
0
TABLE
2
LAYER
70
1
0
LAYER
2
0
70
0
62
7
6
CONTINUOUS
0
ENDTAB
0
ENDSEC
0
SECTION
2
ENTITIES
0
LINE
8
0
6
CONTINUOUS
10
1200.0
20
-0.0
30
0
11
1200.0
21
400.0
31
0
0
LINE
8
0
6
CONTINUOUS
10
0.0
20
-0.0
30
0
11
0.0
21
400.0
31
0
0
LINE
8
0
6
CONTINUOUS
10
0.0
20
0.0
30
0
11
1200.0
21
0.0
31
0
0
LINE
8
0
6
CONTINUOUS
10
1190.0
20
-0.0
30
0
11
1200.0
21
10.0
31
0
0
LINE
8
0
6
CONTINUOUS
10
1200.0
20
10.0
30
0
11
1200.0
21
20.0
31
0
0
LINE
8
0
6
CONTINUOUS
10
1200.0
20
20.0
30
0
11
1195.0
21
20.0
31
0
0
LINE
8
0
6
CONTINUOUS
10
1195.0
20
20.0
30
0
11
1184.95
21
120.5
31
0
0
LINE
8
0
6
CONTINUOUS
10
1184.95
20
120.5
30
0
11
1171.55
21
133.9
31
0
0
LINE
8
0
6
CONTINUOUS
10
1171.55
20
133.9
30
0
11
1164.04
21
209.04
31
0
0
LINE
8
0
6
CONTINUOUS
10
1164.04
20
209.04
30
0
11
1175.0
21
220.0
31
0
0
LINE
8
0
6
CONTINUOUS
10
1175.0
20
220.0
30
0
11
1175.0
21
260.0
31
0
0
LINE
8
0
6
CONTINUOUS
10
1175.0
20
260.0
30
0
11
25.0
21
260.0
31
0
0
LINE
8
0
6
CONTINUOUS
10
25.0
20
260.0
30
0
11
25.0
21
220.0
31
0
0
LINE
8
0
6
CONTINUOUS
10
25.0
20
220.0
30
0
11
35.91
21
208.52
31
0
0
LINE
8
0
6
CONTINUOUS
10
35.91
20
208.52
30
0
11
28.45
21
133.9
31
0
0
LINE
8
0
6
CONTINUOUS
10
28.45
20
133.9
30
0
11
15.05
21
120.5
31
0
0
LINE
8
0
6
CONTINUOUS
10
15.05
20
120.5
30
0
11
5.0
21
20.0
31
0
0
LINE
8
0
6
CONTINUOUS
10
5.0
20
20.0
30
0
11
0.0
21
20.0
31
0
0
LINE
8
0
6
CONTINUOUS
10
0.0
20
20.0
30
0
11
0.0
21
10.0
31
0
0
LINE
8
0
6
CONTINUOUS
10
0.0
20
10.0
30
0
11
10.0
21
0.0
31
0
0
LINE
8
0
6
CONTINUOUS
10
10.0
20
0.0
30
0
11
1190.0
21
-0.0
31
0
0
LINE
8
0
6
CONTINUOUS
10
1175.0
20
260.0
30
0
11
25.0
21
260.0
31
0
0
LINE
8
0
6
CONTINUOUS
10
25.0
20
260.0
30
0
11
25.0
21
220.0
31
0
0
LINE
8
0
6
CONTINUOUS
10
25.0
20
220.0
30
0
11
35.91
21
208.52
31
0
0
LINE
8
0
6
CONTINUOUS
10
35.91
20
208.52
30
0
11
28.45
21
133.9
31
0
0
LINE
8
0
6
CONTINUOUS
10
28.45
20
133.9
30
0
11
15.05
21
120.5
31
0
0
LINE
8
0
6
CONTINUOUS
10
15.05
20
120.5
30
0
11
5.0
21
20.0
31
0
0
LINE
8
0
6
CONTINUOUS
10
5.0
20
20.0
30
0
11
0.0
21
20.0
31
0
0
LINE
8
0
6
CONTINUOUS
10
0.0
20
20.0
30
0
11
0.0
21
10.0
31
0
0
LINE
8
0
6
CONTINUOUS
10
0.0
20
10.0
30
0
11
10.0
21
0.0
31
0
0
LINE
8
0
6
CONTINUOUS
10
10.0
20
0.0
30
0
11
1190.0
21
-0.0
31
0
0
LINE
8
0
6
CONTINUOUS
10
1190.0
20
-0.0
30
0
11
1200.0
21
10.0
31
0
0
LINE
8
0
6
CONTINUOUS
10
1200.0
20
10.0
30
0
11
1200.0
21
20.0
31
0
0
LINE
8
0
6
CONTINUOUS
10
1200.0
20
20.0
30
0
11
1195.0
21
20.0
31
0
0
LINE
8
0
6
CONTINUOUS
10
1195.0
20
20.0
30
0
11
1184.95
21
120.5
31
0
0
LINE
8
0
6
CONTINUOUS
10
1184.95
20
120.5
30
0
11
1171.55
21
133.9
31
0
0
LINE
8
0
6
CONTINUOUS
10
1171.55
20
133.9
30
0
11
1164.04
21
209.04
31
0
0
LINE
8
0
6
CONTINUOUS
10
1164.04
20
209.04
30
0
11
1175.0
21
220.0
31
0
0
LINE
8
0
6
CONTINUOUS
10
1175.0
20
220.0
30
0
11
1175.0
21
260.0
31
0
0
ARC
8
0
6
CONTINUOUS
10
129.0
20
166.5
30
0
40
58.5
50
0.0
51
180.0
0
LINE
8
0
6
CONTINUOUS
10
187.5
20
166.5
30
0
11
187.5
21
94.6
31
0
0
ARC
8
0
6
CONTINUOUS
10
172.5000001658043
20
94.60223027551076
30
0
40
15.0
50
313.1570126111483
51
359.9914809750407
0
LINE
8
0
6
CONTINUOUS
10
182.76
20
83.66
30
0
11
150.67
21
53.57
31
0
0
ARC
8
0
6
CONTINUOUS
10
129.0
20
76.67916484860498
30
0
40
31.68
50
226.84080472889096
51
313.159195271109
0
LINE
8
0
6
CONTINUOUS
10
107.33
20
53.57
30
0
11
75.24
21
83.66
31
0
0
ARC
8
0
6
CONTINUOUS
10
85.4999998341957
20
94.60223027551075
30
0
40
15.0
50
180.00851902495924
51
226.84298738885164
0
LINE
8
0
6
CONTINUOUS
10
70.5
20
94.6
30
0
11
70.5
21
166.5
31
0
0
ARC
8
0
6
CONTINUOUS
10
286.0
20
166.5
30
0
40
58.5
50
0.0
51
180.0
0
LINE
8
0
6
CONTINUOUS
10
344.5
20
166.5
30
0
11
344.5
21
94.6
31
0
0
ARC
8
0
6
CONTINUOUS
10
329.5000001658043
20
94.60223027551076
30
0
40
15.0
50
313.1570126111483
51
359.9914809750407
0
LINE
8
0
6
CONTINUOUS
10
339.76
20
83.66
30
0
11
307.67
21
53.57
31
0
0
ARC
8
0
6
CONTINUOUS
10
286.0
20
76.67916484860497
30
0
40
31.68
50
226.84080472889093
51
313.15919527110907
0
LINE
8
0
6
CONTINUOUS
10
264.33
20
53.57
30
0
11
232.24
21
83.66
31
0
0
ARC
8
0
6
CONTINUOUS
10
242.4999998341957
20
94.60223027551076
30
0
40
15.0
50
180.0085190249593
51
226.8429873888517
0
LINE
8
0
6
CONTINUOUS
10
227.5
20
94.6
30
0
11
227.5
21
166.5
31
0
0
ARC
8
0
6
CONTINUOUS
10
443.0
20
166.5
30
0
40
58.5
50
0.0
51
180.0
0
LINE
8
0
6
CONTINUOUS
10
501.5
20
166.5
30
0
11
501.5
21
94.6
31
0
0
ARC
8
0
6
CONTINUOUS
10
486.5000001658043
20
94.60223027551076
30
0
40
15.0
50
313.1570126111483
51
359.9914809750407
0
LINE
8
0
6
CONTINUOUS
10
496.76
20
83.66
30
0
11
464.67
21
53.57
31
0
0
ARC
8
0
6
CONTINUOUS
10
443.0
20
76.67916484860497
30
0
40
31.68
50
226.84080472889093
51
313.15919527110907
0
LINE
8
0
6
CONTINUOUS
10
421.33
20
53.57
30
0
11
389.24
21
83.66
31
0
0
ARC
8
0
6
CONTINUOUS
10
399.4999998341957
20
94.60223027551076
30
0
40
15.0
50
180.0085190249593
51
226.8429873888517
0
LINE
8
0
6
CONTINUOUS
10
384.5
20
94.6
30
0
11
384.5
21
166.5
31
0
0
ARC
8
0
6
CONTINUOUS
10
600.0
20
166.5
30
0
40
58.5
50
0.0
51
180.0
0
LINE
8
0
6
CONTINUOUS
10
658.5
20
166.5
30
0
11
658.5
21
94.6
31
0
0
ARC
8
0
6
CONTINUOUS
10
643.5000001658043
20
94.60223027551076
30
0
40
15.0
50
313.1570126111483
51
359.9914809750407
0
LINE
8
0
6
CONTINUOUS
10
653.76
20
83.66
30
0
11
621.67
21
53.57
31
0
0
ARC
8
0
6
CONTINUOUS
10
600.0
20
76.67916484860501
30
0
40
31.68
50
226.84080472889107
51
313.15919527110896
0
LINE
8
0
6
CONTINUOUS
10
578.33
20
53.57
30
0
11
546.24
21
83.66
31
0
0
ARC
8
0
6
CONTINUOUS
10
556.4999998341957
20
94.60223027551076
30
0
40
15.0
50
180.0085190249593
51
226.8429873888517
0
LINE
8
0
6
CONTINUOUS
10
541.5
20
94.6
30
0
11
541.5
21
166.5
31
0
0
ARC
8
0
6
CONTINUOUS
10
757.0
20
166.5
30
0
40
58.5
50
0.0
51
180.0
0
LINE
8
0
6
CONTINUOUS
10
815.5
20
166.5
30
0
11
815.5
21
94.6
31
0
0
ARC
8
0
6
CONTINUOUS
10
800.5000001658043
20
94.60223027551076
30
0
40
15.0
50
313.1570126111483
51
359.9914809750407
0
LINE
8
0
6
CONTINUOUS
10
810.76
20
83.66
30
0
11
778.67
21
53.57
31
0
0
ARC
8
0
6
CONTINUOUS
10
757.0
20
76.67916484860501
30
0
40
31.68
50
226.84080472889107
51
313.15919527110896
0
LINE
8
0
6
CONTINUOUS
10
735.33
20
53.57
30
0
11
703.24
21
83.66
31
0
0
ARC
8
0
6
CONTINUOUS
10
713.4999998341957
20
94.60223027551076
30
0
40
15.0
50
180.0085190249593
51
226.8429873888517
0
LINE
8
0
6
CONTINUOUS
10
698.5
20
94.6
30
0
11
698.5
21
166.5
31
0
0
ARC
8
0
6
CONTINUOUS
10
914.0
20
166.5
30
0
40
58.5
50
0.0
51
180.0
0
LINE
8
0
6
CONTINUOUS
10
972.5
20
166.5
30
0
11
972.5
21
94.6
31
0
0
ARC
8
0
6
CONTINUOUS
10
957.5000001658043
20
94.60223027551076
30
0
40
15.0
50
313.1570126111483
51
359.9914809750407
0
LINE
8
0
6
CONTINUOUS
10
967.76
20
83.66
30
0
11
935.67
21
53.57
31
0
0
ARC
8
0
6
CONTINUOUS
10
914.0
20
76.67916484860501
30
0
40
31.68
50
226.84080472889107
51
313.15919527110896
0
LINE
8
0
6
CONTINUOUS
10
892.33
20
53.57
30
0
11
860.24
21
83.66
31
0
0
ARC
8
0
6
CONTINUOUS
10
870.4999998341957
20
94.60223027551076
30
0
40
15.0
50
180.0085190249593
51
226.8429873888517
0
LINE
8
0
6
CONTINUOUS
10
855.5
20
94.6
30
0
11
855.5
21
166.5
31
0
0
ARC
8
0
6
CONTINUOUS
10
1071.0
20
166.5
30
0
40
58.5
50
0.0
51
180.0
0
LINE
8
0
6
CONTINUOUS
10
1129.5
20
166.5
30
0
11
1129.5
21
94.6
31
0
0
ARC
8
0
6
CONTINUOUS
10
1114.5000001658045
20
94.60223027551076
30
0
40
15.0
50
313.15701261114765
51
359.9914809750407
0
LINE
8
0
6
CONTINUOUS
10
1124.76
20
83.66
30
0
11
1092.67
21
53.57
31
0
0
ARC
8
0
6
CONTINUOUS
10
1071.0
20
76.67916484860491
30
0
40
31.68
50
226.8408047288908
51
313.15919527110924
0
LINE
8
0
6
CONTINUOUS
10
1049.33
20
53.57
30
0
11
1017.24
21
83.66
31
0
0
ARC
8
0
6
CONTINUOUS
10
1027.4999998341957
20
94.60223027551076
30
0
40
15.0
50
180.0085190249593
51
226.8429873888517
0
LINE
8
0
6
CONTINUOUS
10
1012.5
20
94.6
30
0
11
1012.5
21
166.5
31
0
0
ENDSEC
0
EOF