0
SECTION
2
HEADER
0
ENDSEC
0
SECTION
2
TABLES
0
TABLE
2
LTYPE
70
2
0
LTYPE
2
CONTINUOUS
70
0
3
Solid line
72
65
73
0
40
0.0
0
ENDTAB
0
TABLE
2
LAYER
70
1
0
LAYER
2
0
70
0
62
7
6
CONTINUOUS
0
ENDTAB
0
ENDSEC
0
SECTION
2
ENTITIES
0
LINE
8
0
6
CONTINUOUS
10
1200.0
20
-0.0
30
0
11
1200.0
21
400.0
31
0
0
LINE
8
0
6
CONTINUOUS
10
0.0
20
-0.0
30
0
11
0.0
21
400.0
31
0
0
LINE
8
0
6
CONTINUOUS
10
0.0
20
0.0
30
0
11
1200.0
21
0.0
31
0
0
LINE
8
0
6
CONTINUOUS
10
1190.0
20
0.0
30
0
11
1200.0
21
10.0
31
0
0
LINE
8
0
6
CONTINUOUS
10
1200.0
20
10.0
30
0
11
1200.0
21
20.0
31
0
0
LINE
8
0
6
CONTINUOUS
10
1200.0
20
20.0
30
0
11
1195.0
21
20.0
31
0
0
LINE
8
0
6
CONTINUOUS
10
1195.0
20
20.0
30
0
11
1183.49
21
100.6
31
0
0
LINE
8
0
6
CONTINUOUS
10
1183.49
20
100.6
30
0
11
1169.34
21
114.75
31
0
0
LINE
8
0
6
CONTINUOUS
10
1169.34
20
114.75
30
0
11
1164.39
21
149.39
31
0
0
LINE
8
0
6
CONTINUOUS
10
1164.39
20
149.39
30
0
11
1175.0
21
160.0
31
0
0
LINE
8
0
6
CONTINUOUS
10
1175.0
20
160.0
30
0
11
1175.0
21
200.0
31
0
0
LINE
8
0
6
CONTINUOUS
10
1175.0
20
200.0
30
0
11
25.0
21
200.0
31
0
0
LINE
8
0
6
CONTINUOUS
10
25.0
20
200.0
30
0
11
25.0
21
160.0
31
0
0
LINE
8
0
6
CONTINUOUS
10
25.0
20
160.0
30
0
11
35.61
21
149.39
31
0
0
LINE
8
0
6
CONTINUOUS
10
35.61
20
149.39
30
0
11
30.66
21
114.75
31
0
0
LINE
8
0
6
CONTINUOUS
10
30.66
20
114.75
30
0
11
16.51
21
100.6
31
0
0
LINE
8
0
6
CONTINUOUS
10
16.51
20
100.6
30
0
11
5.0
21
20.0
31
0
0
LINE
8
0
6
CONTINUOUS
10
5.0
20
20.0
30
0
11
0.0
21
20.0
31
0
0
LINE
8
0
6
CONTINUOUS
10
0.0
20
20.0
30
0
11
0.0
21
10.0
31
0
0
LINE
8
0
6
CONTINUOUS
10
0.0
20
10.0
30
0
11
10.0
21
-0.0
31
0
0
LINE
8
0
6
CONTINUOUS
10
10.0
20
0.0
30
0
11
1190.0
21
0.0
31
0
0
LINE
8
0
6
CONTINUOUS
10
1190.0
20
-0.0
30
0
11
1200.0
21
10.0
31
0
0
LINE
8
0
6
CONTINUOUS
10
1200.0
20
10.0
30
0
11
1200.0
21
20.0
31
0
0
LINE
8
0
6
CONTINUOUS
10
1200.0
20
20.0
30
0
11
1195.0
21
20.0
31
0
0
LINE
8
0
6
CONTINUOUS
10
1195.0
20
20.0
30
0
11
1183.49
21
100.6
31
0
0
LINE
8
0
6
CONTINUOUS
10
1183.49
20
100.6
30
0
11
1169.34
21
114.75
31
0
0
LINE
8
0
6
CONTINUOUS
10
1169.34
20
114.75
30
0
11
1164.39
21
149.39
31
0
0
LINE
8
0
6
CONTINUOUS
10
1164.39
20
149.39
30
0
11
1175.0
21
160.0
31
0
0
LINE
8
0
6
CONTINUOUS
10
1175.0
20
160.0
30
0
11
1175.0
21
200.0
31
0
0
LINE
8
0
6
CONTINUOUS
10
1175.0
20
200.0
30
0
11
25.0
21
200.0
31
0
0
LINE
8
0
6
CONTINUOUS
10
25.0
20
200.0
30
0
11
25.0
21
160.0
31
0
0
LINE
8
0
6
CONTINUOUS
10
25.0
20
160.0
30
0
11
35.61
21
149.39
31
0
0
LINE
8
0
6
CONTINUOUS
10
35.61
20
149.39
30
0
11
30.66
21
114.75
31
0
0
LINE
8
0
6
CONTINUOUS
10
30.66
20
114.75
30
0
11
16.51
21
100.6
31
0
0
LINE
8
0
6
CONTINUOUS
10
16.51
20
100.6
30
0
11
5.0
21
20.0
31
0
0
LINE
8
0
6
CONTINUOUS
10
5.0
20
20.0
30
0
11
0.0
21
20.0
31
0
0
LINE
8
0
6
CONTINUOUS
10
0.0
20
20.0
30
0
11
0.0
21
10.0
31
0
0
LINE
8
0
6
CONTINUOUS
10
0.0
20
10.0
30
0
11
10.0
21
0.0
31
0
0
LINE
8
0
6
CONTINUOUS
10
10.0
20
0.0
30
0
11
1190.0
21
0.0
31
0
0
ARC
8
0
6
CONTINUOUS
10
129.0
20
106.5
30
0
40
58.5
50
0.0
51
180.0
0
LINE
8
0
6
CONTINUOUS
10
187.5
20
106.5
30
0
11
187.5
21
86.87
31
0
0
ARC
8
0
6
CONTINUOUS
10
172.50000205567136
20
86.87785303359729
30
0
40
15.0
50
337.2202218296516
51
359.9700036198631
0
LINE
8
0
6
CONTINUOUS
10
186.33
20
81.07
30
0
11
171.23
21
45.09
31
0
0
ARC
8
0
6
CONTINUOUS
10
164.77777992216937
20
47.80456369739952
30
0
40
7.0
50
288.3368409848628
51
337.1826443068477
0
ARC
8
0
6
CONTINUOUS
10
129.0
20
155.26515851616875
30
0
40
120.26
50
251.58993415870836
51
288.4100658412916
0
ARC
8
0
6
CONTINUOUS
10
93.22222007783063
20
47.80456369739952
30
0
40
7.0
50
202.81735569315225
51
251.66315901513707
0
LINE
8
0
6
CONTINUOUS
10
86.77
20
45.09
30
0
11
71.67
21
81.07
31
0
0
ARC
8
0
6
CONTINUOUS
10
85.49999794432864
20
86.87785303359733
30
0
40
15.0
50
180.02999638013702
51
202.77977817034858
0
LINE
8
0
6
CONTINUOUS
10
70.5
20
86.87
30
0
11
70.5
21
106.5
31
0
0
ARC
8
0
6
CONTINUOUS
10
286.0
20
106.5
30
0
40
58.5
50
0.0
51
180.0
0
LINE
8
0
6
CONTINUOUS
10
344.5
20
106.5
30
0
11
344.5
21
86.87
31
0
0
ARC
8
0
6
CONTINUOUS
10
329.50000205567136
20
86.87785303359736
30
0
40
15.0
50
337.22022182965134
51
359.97000361986284
0
LINE
8
0
6
CONTINUOUS
10
343.33
20
81.07
30
0
11
328.23
21
45.09
31
0
0
ARC
8
0
6
CONTINUOUS
10
321.7777799221694
20
47.80456369739952
30
0
40
7.0
50
288.33684098486304
51
337.1826443068478
0
ARC
8
0
6
CONTINUOUS
10
286.0
20
155.26515851616875
30
0
40
120.26
50
251.58993415870836
51
288.4100658412916
0
ARC
8
0
6
CONTINUOUS
10
250.22222007783063
20
47.80456369739952
30
0
40
7.0
50
202.8173556931523
51
251.66315901513718
0
LINE
8
0
6
CONTINUOUS
10
243.77
20
45.09
30
0
11
228.67
21
81.07
31
0
0
ARC
8
0
6
CONTINUOUS
10
242.49999794432864
20
86.87785303359729
30
0
40
15.0
50
180.02999638013688
51
202.77977817034838
0
LINE
8
0
6
CONTINUOUS
10
227.5
20
86.87
30
0
11
227.5
21
106.5
31
0
0
ARC
8
0
6
CONTINUOUS
10
443.0
20
106.5
30
0
40
58.5
50
0.0
51
180.0
0
LINE
8
0
6
CONTINUOUS
10
501.5
20
106.5
30
0
11
501.5
21
86.87
31
0
0
ARC
8
0
6
CONTINUOUS
10
486.50000205567136
20
86.87785303359736
30
0
40
15.0
50
337.22022182965134
51
359.97000361986284
0
LINE
8
0
6
CONTINUOUS
10
500.33
20
81.07
30
0
11
485.23
21
45.09
31
0
0
ARC
8
0
6
CONTINUOUS
10
478.7777799221694
20
47.80456369739952
30
0
40
7.0
50
288.33684098486304
51
337.1826443068478
0
ARC
8
0
6
CONTINUOUS
10
443.0
20
155.26515851616875
30
0
40
120.26
50
251.58993415870833
51
288.4100658412916
0
ARC
8
0
6
CONTINUOUS
10
407.2222200778306
20
47.80456369739952
30
0
40
7.0
50
202.8173556931522
51
251.66315901513696
0
LINE
8
0
6
CONTINUOUS
10
400.77
20
45.09
30
0
11
385.67
21
81.07
31
0
0
ARC
8
0
6
CONTINUOUS
10
399.49999794432864
20
86.87785303359736
30
0
40
15.0
50
180.02999638013713
51
202.7797781703487
0
LINE
8
0
6
CONTINUOUS
10
384.5
20
86.87
30
0
11
384.5
21
106.5
31
0
0
ARC
8
0
6
CONTINUOUS
10
600.0
20
106.5
30
0
40
58.5
50
0.0
51
180.0
0
LINE
8
0
6
CONTINUOUS
10
658.5
20
106.5
30
0
11
658.5
21
86.87
31
0
0
ARC
8
0
6
CONTINUOUS
10
643.5000020556713
20
86.87785303359722
30
0
40
15.0
50
337.22022182965196
51
359.9700036198634
0
LINE
8
0
6
CONTINUOUS
10
657.33
20
81.07
30
0
11
642.23
21
45.09
31
0
0
ARC
8
0
6
CONTINUOUS
10
635.7777799221694
20
47.80456369739952
30
0
40
7.0
50
288.33684098486265
51
337.1826443068476
0
ARC
8
0
6
CONTINUOUS
10
600.0
20
155.26515851616875
30
0
40
120.26
50
251.58993415870833
51
288.4100658412916
0
ARC
8
0
6
CONTINUOUS
10
564.2222200778306
20
47.80456369739952
30
0
40
7.0
50
202.8173556931524
51
251.66315901513738
0
LINE
8
0
6
CONTINUOUS
10
557.77
20
45.09
30
0
11
542.67
21
81.07
31
0
0
ARC
8
0
6
CONTINUOUS
10
556.4999979443287
20
86.87785303359722
30
0
40
15.0
50
180.0299963801366
51
202.779778170348
0
LINE
8
0
6
CONTINUOUS
10
541.5
20
86.87
30
0
11
541.5
21
106.5
31
0
0
ARC
8
0
6
CONTINUOUS
10
757.0
20
106.5
30
0
40
58.5
50
0.0
51
180.0
0
LINE
8
0
6
CONTINUOUS
10
815.5
20
106.5
30
0
11
815.5
21
86.87
31
0
0
ARC
8
0
6
CONTINUOUS
10
800.5000020556713
20
86.87785303359722
30
0
40
15.0
50
337.22022182965196
51
359.9700036198634
0
LINE
8
0
6
CONTINUOUS
10
814.33
20
81.07
30
0
11
799.23
21
45.09
31
0
0
ARC
8
0
6
CONTINUOUS
10
792.7777799221694
20
47.80456369739952
30
0
40
7.0
50
288.33684098486265
51
337.1826443068476
0
ARC
8
0
6
CONTINUOUS
10
757.0
20
155.26515851616875
30
0
40
120.26
50
251.58993415870833
51
288.4100658412916
0
ARC
8
0
6
CONTINUOUS
10
721.2222200778306
20
47.80456369739952
30
0
40
7.0
50
202.8173556931524
51
251.66315901513738
0
LINE
8
0
6
CONTINUOUS
10
714.77
20
45.09
30
0
11
699.67
21
81.07
31
0
0
ARC
8
0
6
CONTINUOUS
10
713.4999979443287
20
86.87785303359722
30
0
40
15.0
50
180.0299963801366
51
202.779778170348
0
LINE
8
0
6
CONTINUOUS
10
698.5
20
86.87
30
0
11
698.5
21
106.5
31
0
0
ARC
8
0
6
CONTINUOUS
10
914.0
20
106.5
30
0
40
58.5
50
0.0
51
180.0
0
LINE
8
0
6
CONTINUOUS
10
972.5
20
106.5
30
0
11
972.5
21
86.87
31
0
0
ARC
8
0
6
CONTINUOUS
10
957.5000020556713
20
86.87785303359722
30
0
40
15.0
50
337.22022182965196
51
359.9700036198634
0
LINE
8
0
6
CONTINUOUS
10
971.33
20
81.07
30
0
11
956.23
21
45.09
31
0
0
ARC
8
0
6
CONTINUOUS
10
949.7777799221694
20
47.80456369739952
30
0
40
7.0
50
288.33684098486265
51
337.1826443068476
0
ARC
8
0
6
CONTINUOUS
10
914.0
20
155.26515851616875
30
0
40
120.26
50
251.58993415870833
51
288.4100658412916
0
ARC
8
0
6
CONTINUOUS
10
878.2222200778306
20
47.80456369739952
30
0
40
7.0
50
202.8173556931524
51
251.66315901513738
0
LINE
8
0
6
CONTINUOUS
10
871.77
20
45.09
30
0
11
856.67
21
81.07
31
0
0
ARC
8
0
6
CONTINUOUS
10
870.4999979443287
20
86.87785303359722
30
0
40
15.0
50
180.0299963801366
51
202.779778170348
0
LINE
8
0
6
CONTINUOUS
10
855.5
20
86.87
30
0
11
855.5
21
106.5
31
0
0
ARC
8
0
6
CONTINUOUS
10
1071.0
20
106.5
30
0
40
58.5
50
0.0
51
180.0
0
LINE
8
0
6
CONTINUOUS
10
1129.5
20
106.5
30
0
11
1129.5
21
86.87
31
0
0
ARC
8
0
6
CONTINUOUS
10
1114.5000020556713
20
86.87785303359749
30
0
40
15.0
50
337.2202218296509
51
359.9700036198624
0
LINE
8
0
6
CONTINUOUS
10
1128.33
20
81.07
30
0
11
1113.23
21
45.09
31
0
0
ARC
8
0
6
CONTINUOUS
10
1106.7777799221694
20
47.80456369739952
30
0
40
7.0
50
288.33684098486265
51
337.1826443068476
0
ARC
8
0
6
CONTINUOUS
10
1071.0
20
155.26515851616875
30
0
40
120.26
50
251.58993415870833
51
288.4100658412916
0
ARC
8
0
6
CONTINUOUS
10
1035.2222200778306
20
47.80456369739952
30
0
40
7.0
50
202.8173556931524
51
251.66315901513738
0
LINE
8
0
6
CONTINUOUS
10
1028.77
20
45.09
30
0
11
1013.67
21
81.07
31
0
0
ARC
8
0
6
CONTINUOUS
10
1027.4999979443287
20
86.87785303359722
30
0
40
15.0
50
180.0299963801366
51
202.779778170348
0
LINE
8
0
6
CONTINUOUS
10
1012.5
20
86.87
30
0
11
1012.5
21
106.5
31
0
0
ENDSEC
0
EOF