0
SECTION
2
HEADER
0
ENDSEC
0
SECTION
2
TABLES
0
TABLE
2
LTYPE
70
2
0
LTYPE
2
CONTINUOUS
70
0
3
Solid line
72
65
73
0
40
0.0
0
ENDTAB
0
TABLE
2
LAYER
70
1
0
LAYER
2
0
70
0
62
7
6
CONTINUOUS
0
ENDTAB
0
ENDSEC
0
SECTION
2
ENTITIES
0
LINE
8
0
6
CONTINUOUS
10
1200.0
20
-0.0
30
0
11
1200.0
21
400.0
31
0
0
LINE
8
0
6
CONTINUOUS
10
0.0
20
-0.0
30
0
11
0.0
21
400.0
31
0
0
LINE
8
0
6
CONTINUOUS
10
0.0
20
0.0
30
0
11
1200.0
21
0.0
31
0
0
LINE
8
0
6
CONTINUOUS
10
1190.0
20
-0.0
30
0
11
1200.0
21
10.0
31
0
0
LINE
8
0
6
CONTINUOUS
10
1200.0
20
10.0
30
0
11
1200.0
21
20.0
31
0
0
LINE
8
0
6
CONTINUOUS
10
1200.0
20
20.0
30
0
11
1194.99
21
20.0
31
0
0
LINE
8
0
6
CONTINUOUS
10
1194.99
20
20.0
30
0
11
1188.01
21
51.43
31
0
0
LINE
8
0
6
CONTINUOUS
10
1188.01
20
51.43
30
0
11
1174.99
21
54.68
31
0
0
LINE
8
0
6
CONTINUOUS
10
1174.99
20
54.68
30
0
11
1164.94
21
99.94
31
0
0
LINE
8
0
6
CONTINUOUS
10
1164.94
20
99.94
30
0
11
1175.0
21
110.0
31
0
0
LINE
8
0
6
CONTINUOUS
10
1175.0
20
110.0
30
0
11
1175.0
21
150.0
31
0
0
LINE
8
0
6
CONTINUOUS
10
1175.0
20
150.0
30
0
11
25.0
21
150.0
31
0
0
LINE
8
0
6
CONTINUOUS
10
25.0
20
150.0
30
0
11
25.0
21
110.0
31
0
0
LINE
8
0
6
CONTINUOUS
10
25.0
20
110.0
30
0
11
35.42
21
101.54
31
0
0
LINE
8
0
6
CONTINUOUS
10
35.42
20
101.54
30
0
11
25.01
21
54.68
31
0
0
LINE
8
0
6
CONTINUOUS
10
25.01
20
54.68
30
0
11
11.99
21
51.43
31
0
0
LINE
8
0
6
CONTINUOUS
10
11.99
20
51.43
30
0
11
5.0
21
20.0
31
0
0
LINE
8
0
6
CONTINUOUS
10
5.0
20
20.0
30
0
11
0.0
21
20.0
31
0
0
LINE
8
0
6
CONTINUOUS
10
0.0
20
20.0
30
0
11
0.0
21
10.0
31
0
0
LINE
8
0
6
CONTINUOUS
10
0.0
20
10.0
30
0
11
10.0
21
0.0
31
0
0
LINE
8
0
6
CONTINUOUS
10
10.0
20
0.0
30
0
11
1190.0
21
-0.0
31
0
0
LINE
8
0
6
CONTINUOUS
10
1175.0
20
150.0
30
0
11
25.0
21
150.0
31
0
0
LINE
8
0
6
CONTINUOUS
10
25.0
20
150.0
30
0
11
25.0
21
110.0
31
0
0
LINE
8
0
6
CONTINUOUS
10
25.0
20
110.0
30
0
11
35.42
21
101.54
31
0
0
LINE
8
0
6
CONTINUOUS
10
35.42
20
101.54
30
0
11
25.01
21
54.68
31
0
0
LINE
8
0
6
CONTINUOUS
10
25.01
20
54.68
30
0
11
11.99
21
51.43
31
0
0
LINE
8
0
6
CONTINUOUS
10
11.99
20
51.43
30
0
11
5.0
21
20.0
31
0
0
LINE
8
0
6
CONTINUOUS
10
5.0
20
20.0
30
0
11
0.0
21
20.0
31
0
0
LINE
8
0
6
CONTINUOUS
10
0.0
20
20.0
30
0
11
0.0
21
10.0
31
0
0
LINE
8
0
6
CONTINUOUS
10
0.0
20
10.0
30
0
11
10.0
21
0.0
31
0
0
LINE
8
0
6
CONTINUOUS
10
10.0
20
0.0
30
0
11
1190.0
21
-0.0
31
0
0
LINE
8
0
6
CONTINUOUS
10
1190.0
20
-0.0
30
0
11
1200.0
21
10.0
31
0
0
LINE
8
0
6
CONTINUOUS
10
1200.0
20
10.0
30
0
11
1200.0
21
20.0
31
0
0
LINE
8
0
6
CONTINUOUS
10
1200.0
20
20.0
30
0
11
1194.99
21
20.0
31
0
0
LINE
8
0
6
CONTINUOUS
10
1194.99
20
20.0
30
0
11
1188.01
21
51.43
31
0
0
LINE
8
0
6
CONTINUOUS
10
1188.01
20
51.43
30
0
11
1174.99
21
54.68
31
0
0
LINE
8
0
6
CONTINUOUS
10
1174.99
20
54.68
30
0
11
1164.94
21
99.94
31
0
0
LINE
8
0
6
CONTINUOUS
10
1164.94
20
99.94
30
0
11
1175.0
21
110.0
31
0
0
LINE
8
0
6
CONTINUOUS
10
1175.0
20
110.0
30
0
11
1175.0
21
150.0
31
0
0
ARC
8
0
6
CONTINUOUS
10
100.0
20
82.5
30
0
40
32.5
50
0.0
51
180.0
0
LINE
8
0
6
CONTINUOUS
10
132.5
20
82.5
30
0
11
132.5
21
67.5
31
0
0
ARC
8
0
6
CONTINUOUS
10
100.0
20
67.5
30
0
40
32.5
50
180.0
51
0.0
0
LINE
8
0
6
CONTINUOUS
10
67.5
20
67.5
30
0
11
67.5
21
82.5
31
0
0
ARC
8
0
6
CONTINUOUS
10
200.0
20
82.5
30
0
40
32.5
50
0.0
51
180.0
0
LINE
8
0
6
CONTINUOUS
10
232.5
20
82.5
30
0
11
232.5
21
67.5
31
0
0
ARC
8
0
6
CONTINUOUS
10
200.0
20
67.5
30
0
40
32.5
50
180.0
51
0.0
0
LINE
8
0
6
CONTINUOUS
10
167.5
20
67.5
30
0
11
167.5
21
82.5
31
0
0
ARC
8
0
6
CONTINUOUS
10
300.0
20
82.5
30
0
40
32.5
50
0.0
51
180.0
0
LINE
8
0
6
CONTINUOUS
10
332.5
20
82.5
30
0
11
332.5
21
67.5
31
0
0
ARC
8
0
6
CONTINUOUS
10
300.0
20
67.5
30
0
40
32.5
50
180.0
51
0.0
0
LINE
8
0
6
CONTINUOUS
10
267.5
20
67.5
30
0
11
267.5
21
82.5
31
0
0
ARC
8
0
6
CONTINUOUS
10
400.0
20
82.5
30
0
40
32.5
50
0.0
51
180.0
0
LINE
8
0
6
CONTINUOUS
10
432.5
20
82.5
30
0
11
432.5
21
67.5
31
0
0
ARC
8
0
6
CONTINUOUS
10
400.0
20
67.5
30
0
40
32.5
50
180.0
51
0.0
0
LINE
8
0
6
CONTINUOUS
10
367.5
20
67.5
30
0
11
367.5
21
82.5
31
0
0
ARC
8
0
6
CONTINUOUS
10
500.0
20
82.5
30
0
40
32.5
50
0.0
51
180.0
0
LINE
8
0
6
CONTINUOUS
10
532.5
20
82.5
30
0
11
532.5
21
67.5
31
0
0
ARC
8
0
6
CONTINUOUS
10
500.0
20
67.5
30
0
40
32.5
50
180.0
51
0.0
0
LINE
8
0
6
CONTINUOUS
10
467.5
20
67.5
30
0
11
467.5
21
82.5
31
0
0
ARC
8
0
6
CONTINUOUS
10
600.0
20
82.5
30
0
40
32.5
50
0.0
51
180.0
0
LINE
8
0
6
CONTINUOUS
10
632.5
20
82.5
30
0
11
632.5
21
67.5
31
0
0
ARC
8
0
6
CONTINUOUS
10
600.0
20
67.5
30
0
40
32.5
50
180.0
51
0.0
0
LINE
8
0
6
CONTINUOUS
10
567.5
20
67.5
30
0
11
567.5
21
82.5
31
0
0
ARC
8
0
6
CONTINUOUS
10
700.0
20
82.5
30
0
40
32.5
50
0.0
51
180.0
0
LINE
8
0
6
CONTINUOUS
10
732.5
20
82.5
30
0
11
732.5
21
67.5
31
0
0
ARC
8
0
6
CONTINUOUS
10
700.0
20
67.5
30
0
40
32.5
50
180.0
51
0.0
0
LINE
8
0
6
CONTINUOUS
10
667.5
20
67.5
30
0
11
667.5
21
82.5
31
0
0
ARC
8
0
6
CONTINUOUS
10
800.0
20
82.5
30
0
40
32.5
50
0.0
51
180.0
0
LINE
8
0
6
CONTINUOUS
10
832.5
20
82.5
30
0
11
832.5
21
67.5
31
0
0
ARC
8
0
6
CONTINUOUS
10
800.0
20
67.5
30
0
40
32.5
50
180.0
51
0.0
0
LINE
8
0
6
CONTINUOUS
10
767.5
20
67.5
30
0
11
767.5
21
82.5
31
0
0
ARC
8
0
6
CONTINUOUS
10
900.0
20
82.5
30
0
40
32.5
50
0.0
51
180.0
0
LINE
8
0
6
CONTINUOUS
10
932.5
20
82.5
30
0
11
932.5
21
67.5
31
0
0
ARC
8
0
6
CONTINUOUS
10
900.0
20
67.5
30
0
40
32.5
50
180.0
51
0.0
0
LINE
8
0
6
CONTINUOUS
10
867.5
20
67.5
30
0
11
867.5
21
82.5
31
0
0
ARC
8
0
6
CONTINUOUS
10
1000.0
20
82.5
30
0
40
32.5
50
0.0
51
180.0
0
LINE
8
0
6
CONTINUOUS
10
1032.5
20
82.5
30
0
11
1032.5
21
67.5
31
0
0
ARC
8
0
6
CONTINUOUS
10
1000.0
20
67.5
30
0
40
32.5
50
180.0
51
0.0
0
LINE
8
0
6
CONTINUOUS
10
967.5
20
67.5
30
0
11
967.5
21
82.5
31
0
0
ARC
8
0
6
CONTINUOUS
10
1100.0
20
82.5
30
0
40
32.5
50
0.0
51
180.0
0
LINE
8
0
6
CONTINUOUS
10
1132.5
20
82.5
30
0
11
1132.5
21
67.5
31
0
0
ARC
8
0
6
CONTINUOUS
10
1100.0
20
67.5
30
0
40
32.5
50
180.0
51
0.0
0
LINE
8
0
6
CONTINUOUS
10
1067.5
20
67.5
30
0
11
1067.5
21
82.5
31
0
0
ENDSEC
0
EOF