0
SECTION
2
HEADER
0
ENDSEC
0
SECTION
2
TABLES
0
TABLE
2
LTYPE
70
2
0
LTYPE
2
CONTINUOUS
70
0
3
Solid line
72
65
73
0
40
0.0
0
ENDTAB
0
TABLE
2
LAYER
70
1
0
LAYER
2
0
70
0
62
7
6
CONTINUOUS
0
ENDTAB
0
ENDSEC
0
SECTION
2
ENTITIES
0
LINE
8
0
6
CONTINUOUS
10
0.0
20
-107.0
30
0
11
0.0
21
170.0
31
0
0
LINE
8
0
6
CONTINUOUS
10
-102.5
20
0.0
30
0
11
597.5
21
0.0
31
0
0
ARC
8
0
6
CONTINUOUS
10
53.00000149367514
20
46.15613519092073
30
0
40
5.0
50
0.04428745418324723
51
76.11347726894671
0
LINE
8
0
6
CONTINUOUS
10
54.2
20
51.01
30
0
11
41.89
21
54.28
31
0
0
LINE
8
0
6
CONTINUOUS
10
41.89
20
54.28
30
0
11
35.0
21
56.0
31
0
0
ARC
8
0
6
CONTINUOUS
10
37.75100516547182
20
67.03217433598415
30
0
40
11.37
50
182.27920097581745
51
255.99816559235472
0
LINE
8
0
6
CONTINUOUS
10
26.39
20
66.58
30
0
11
30.0
21
140.0
31
0
0
LINE
8
0
6
CONTINUOUS
10
30.0
20
140.0
30
0
11
30.0
21
170.0
31
0
0
LINE
8
0
6
CONTINUOUS
10
30.0
20
170.0
30
0
11
-30.0
21
170.0
31
0
0
LINE
8
0
6
CONTINUOUS
10
-30.0
20
170.0
30
0
11
-30.0
21
140.0
31
0
0
LINE
8
0
6
CONTINUOUS
10
-30.0
20
140.0
30
0
11
-26.37
21
66.01
31
0
0
ARC
8
0
6
CONTINUOUS
10
-36.389550332412675
20
66.10492700484613
30
0
40
10.02
50
284.85905606422887
51
359.4571858181911
0
LINE
8
0
6
CONTINUOUS
10
-33.82
20
56.42
30
0
11
-54.28
21
50.99
31
0
0
ARC
8
0
6
CONTINUOUS
10
-53.00000114528859
20
46.15661578891793
30
0
40
5.0
50
104.83283434435911
51
179.96121979464232
0
LINE
8
0
6
CONTINUOUS
10
-58.0
20
46.16
30
0
11
-58.0
21
-0.0
31
0
0
LINE
8
0
6
CONTINUOUS
10
-58.0
20
-0.0
30
0
11
58.0
21
-0.0
31
0
0
LINE
8
0
6
CONTINUOUS
10
58.0
20
-0.0
30
0
11
58.0
21
46.16
31
0
0
ARC
8
0
6
CONTINUOUS
10
562.499999658544
20
18.28184785294022
30
0
40
5.0
50
106.73825267546057
51
180.02117483540908
0
LINE
8
0
6
CONTINUOUS
10
561.06
20
23.07
30
0
11
567.5
21
25.0
31
0
0
LINE
8
0
6
CONTINUOUS
10
567.5
20
25.0
30
0
11
567.5
21
53.03
31
0
0
ARC
8
0
6
CONTINUOUS
10
574.4999934665337
20
53.039563915789905
30
0
40
7.0
50
104.05517769267937
51
180.0782817401234
0
LINE
8
0
6
CONTINUOUS
10
572.8
20
59.83
30
0
11
597.5
21
66.0
31
0
0
LINE
8
0
6
CONTINUOUS
10
597.5
20
66.0
30
0
11
597.5
21
115.0
31
0
0
LINE
8
0
6
CONTINUOUS
10
597.5
20
115.0
30
0
11
446.5
21
170.0
31
0
0
LINE
8
0
6
CONTINUOUS
10
446.5
20
170.0
30
0
11
183.5
21
170.0
31
0
0
LINE
8
0
6
CONTINUOUS
10
183.5
20
170.0
30
0
11
32.5
21
115.0
31
0
0
LINE
8
0
6
CONTINUOUS
10
32.5
20
115.0
30
0
11
32.5
21
66.0
31
0
0
LINE
8
0
6
CONTINUOUS
10
32.5
20
66.0
30
0
11
57.2
21
59.83
31
0
0
ARC
8
0
6
CONTINUOUS
10
55.500006533466276
20
53.03956391578989
30
0
40
7.0
50
359.92171825987674
51
75.94482230732112
0
LINE
8
0
6
CONTINUOUS
10
62.5
20
53.03
30
0
11
62.5
21
25.0
31
0
0
LINE
8
0
6
CONTINUOUS
10
62.5
20
25.0
30
0
11
68.94
21
23.07
31
0
0
ARC
8
0
6
CONTINUOUS
10
67.50000034145606
20
18.281847852940203
30
0
40
5.0
50
359.9788251645911
51
73.26174732454044
0
LINE
8
0
6
CONTINUOUS
10
72.5
20
18.28
30
0
11
72.5
21
5.0
31
0
0
ARC
8
0
6
CONTINUOUS
10
62.5
20
4.999999999999999
30
0
40
10.0
50
270.0
51
5.0888874903416275e-15
0
LINE
8
0
6
CONTINUOUS
10
62.5
20
-5.0
30
0
11
-102.5
21
-5.0
31
0
0
LINE
8
0
6
CONTINUOUS
10
-102.5
20
-5.0
30
0
11
-102.5
21
-85.0
31
0
0
LINE
8
0
6
CONTINUOUS
10
-102.5
20
-85.0
30
0
11
-80.5
21
-107.0
31
0
0
LINE
8
0
6
CONTINUOUS
10
-80.5
20
-107.0
30
0
11
92.01
21
-107.0
31
0
0
LINE
8
0
6
CONTINUOUS
10
92.01
20
-107.0
30
0
11
132.5
21
-92.25
31
0
0
LINE
8
0
6
CONTINUOUS
10
132.5
20
-92.25
30
0
11
180.93
21
-58.77
31
0
0
ARC
8
0
6
CONTINUOUS
10
186.61042036527348
20
-66.99999541152887
30
0
40
10.0
50
89.94511272769438
51
124.61380355591048
0
LINE
8
0
6
CONTINUOUS
10
186.62
20
-57.0
30
0
11
443.25
21
-57.0
31
0
0
ARC
8
0
6
CONTINUOUS
10
443.25191332476317
20
-66.99999981695942
30
0
40
10.0
50
53.99834168127485
51
90.01096254344361
0
LINE
8
0
6
CONTINUOUS
10
449.13
20
-58.91
30
0
11
492.5
21
-90.43
31
0
0
LINE
8
0
6
CONTINUOUS
10
492.5
20
-90.43
30
0
11
522.5
21
-101.36
31
0
0
LINE
8
0
6
CONTINUOUS
10
522.5
20
-101.36
30
0
11
522.5
21
-5.0
31
0
0
LINE
8
0
6
CONTINUOUS
10
522.5
20
-5.0
30
0
11
557.5
21
-5.0
31
0
0
LINE
8
0
6
CONTINUOUS
10
557.5
20
-5.0
30
0
11
557.5
21
18.28
31
0
0
LINE
8
0
6
CONTINUOUS
10
-102.5
20
-5.0
30
0
11
-43.61
21
-107.0
31
0
0
LINE
8
0
6
CONTINUOUS
10
-43.61
20
-107.0
30
0
11
15.28
21
-5.0
31
0
0
LINE
8
0
6
CONTINUOUS
10
15.28
20
-5.0
30
0
11
74.17
21
-107.0
31
0
0
LINE
8
0
6
CONTINUOUS
10
74.17
20
-107.0
30
0
11
234.1
21
170.0
31
0
0
LINE
8
0
6
CONTINUOUS
10
234.1
20
170.0
30
0
11
365.15
21
-57.0
31
0
0
LINE
8
0
6
CONTINUOUS
10
365.15
20
-57.0
30
0
11
487.57
21
155.04
31
0
0
LINE
8
0
6
CONTINUOUS
10
487.57
20
155.04
30
0
11
563.37
21
23.76
31
0
0
LINE
8
0
6
CONTINUOUS
10
563.37
20
23.76
30
0
11
567.5
21
30.92
31
0
0
ENDSEC
0
EOF