0
SECTION
2
HEADER
0
ENDSEC
0
SECTION
2
TABLES
0
TABLE
2
LTYPE
70
2
0
LTYPE
2
CONTINUOUS
70
0
3
Solid line
72
65
73
0
40
0.0
0
ENDTAB
0
TABLE
2
LAYER
70
1
0
LAYER
2
0
70
0
62
7
6
CONTINUOUS
0
ENDTAB
0
ENDSEC
0
SECTION
2
ENTITIES
0
LINE
8
0
6
CONTINUOUS
10
100.0
20
0.0
30
0
11
100.0
21
50.0
31
0
0
LINE
8
0
6
CONTINUOUS
10
150.0
20
0.0
30
0
11
150.0
21
50.0
31
0
0
LINE
8
0
6
CONTINUOUS
10
50.0
20
0.0
30
0
11
50.0
21
50.0
31
0
0
LINE
8
0
6
CONTINUOUS
10
520.0
20
25.0
30
0
11
0.0
21
25.0
31
0
0
LINE
8
0
6
CONTINUOUS
10
520.0
20
50.0
30
0
11
0.0
21
50.0
31
0
0
LINE
8
0
6
CONTINUOUS
10
520.0
20
0.0
30
0
11
520.0
21
50.0
31
0
0
LINE
8
0
6
CONTINUOUS
10
0.0
20
0.0
30
0
11
0.0
21
50.0
31
0
0
LINE
8
0
6
CONTINUOUS
10
0.0
20
0.0
30
0
11
520.0
21
0.0
31
0
0
LINE
8
0
6
CONTINUOUS
10
50.0
20
17.0
30
0
11
50.0
21
33.0
31
0
0
LINE
8
0
6
CONTINUOUS
10
42.0
20
25.0
30
0
11
58.0
21
25.0
31
0
0
ARC
8
0
6
CONTINUOUS
10
50.0
20
25.0
30
0
40
8.0
50
180.0
51
0.0
0
ARC
8
0
6
CONTINUOUS
10
50.0
20
25.0
30
0
40
8.0
50
0.0
51
180.0
0
LINE
8
0
6
CONTINUOUS
10
150.0
20
17.0
30
0
11
150.0
21
33.0
31
0
0
LINE
8
0
6
CONTINUOUS
10
142.0
20
25.0
30
0
11
158.0
21
25.0
31
0
0
ARC
8
0
6
CONTINUOUS
10
150.0
20
25.0
30
0
40
8.0
50
180.0
51
0.0
0
ARC
8
0
6
CONTINUOUS
10
150.0
20
25.0
30
0
40
8.0
50
0.0
51
180.0
0
LINE
8
0
6
CONTINUOUS
10
250.0
20
17.0
30
0
11
250.0
21
33.0
31
0
0
LINE
8
0
6
CONTINUOUS
10
242.0
20
25.0
30
0
11
258.0
21
25.0
31
0
0
ARC
8
0
6
CONTINUOUS
10
250.0
20
25.0
30
0
40
8.0
50
180.0
51
0.0
0
ARC
8
0
6
CONTINUOUS
10
250.0
20
25.0
30
0
40
8.0
50
0.0
51
180.0
0
LINE
8
0
6
CONTINUOUS
10
350.0
20
17.0
30
0
11
350.0
21
33.0
31
0
0
LINE
8
0
6
CONTINUOUS
10
342.0
20
25.0
30
0
11
358.0
21
25.0
31
0
0
ARC
8
0
6
CONTINUOUS
10
350.0
20
25.0
30
0
40
8.0
50
180.0
51
0.0
0
ARC
8
0
6
CONTINUOUS
10
350.0
20
25.0
30
0
40
8.0
50
0.0
51
180.0
0
LINE
8
0
6
CONTINUOUS
10
450.0
20
17.0
30
0
11
450.0
21
33.0
31
0
0
LINE
8
0
6
CONTINUOUS
10
442.0
20
25.0
30
0
11
458.0
21
25.0
31
0
0
ARC
8
0
6
CONTINUOUS
10
450.0
20
25.0
30
0
40
8.0
50
180.0
51
0.0
0
ARC
8
0
6
CONTINUOUS
10
450.0
20
25.0
30
0
40
8.0
50
0.0
51
180.0
0
LINE
8
0
6
CONTINUOUS
10
0.0
20
0.0
30
0
11
520.0
21
0.0
31
0
0
LINE
8
0
6
CONTINUOUS
10
0.0
20
50.0
30
0
11
520.0
21
50.0
31
0
0
ENDSEC
0
EOF