0
SECTION
2
HEADER
0
ENDSEC
0
SECTION
2
TABLES
0
TABLE
2
LTYPE
70
2
0
LTYPE
2
CONTINUOUS
70
0
3
Solid line
72
65
73
0
40
0.0
0
ENDTAB
0
TABLE
2
LAYER
70
1
0
LAYER
2
0
70
0
62
7
6
CONTINUOUS
0
ENDTAB
0
ENDSEC
0
SECTION
2
ENTITIES
0
LINE
8
0
6
CONTINUOUS
10
1200.0
20
-0.0
30
0
11
1200.0
21
320.0
31
0
0
LINE
8
0
6
CONTINUOUS
10
0.0
20
-0.0
30
0
11
0.0
21
320.0
31
0
0
LINE
8
0
6
CONTINUOUS
10
0.0
20
0.0
30
0
11
1200.0
21
0.0
31
0
0
LINE
8
0
6
CONTINUOUS
10
23.0
20
320.0
30
0
11
21.98
21
270.0
31
0
0
ARC
8
0
6
CONTINUOUS
10
4.688742080075862
20
249.43281012032367
30
0
40
26.87
50
307.72567778427674
51
49.94554613547552
0
LINE
8
0
6
CONTINUOUS
10
21.13
20
228.18
30
0
11
17.0
21
25.0
31
0
0
LINE
8
0
6
CONTINUOUS
10
17.0
20
25.0
30
0
11
2.0
21
25.0
31
0
0
LINE
8
0
6
CONTINUOUS
10
2.0
20
25.0
30
0
11
2.0
21
10.0
31
0
0
ARC
8
0
6
CONTINUOUS
10
12.0
20
10.0
30
0
40
10.0
50
180.0
51
270.0
0
LINE
8
0
6
CONTINUOUS
10
12.0
20
-0.0
30
0
11
1188.0
21
0.0
31
0
0
ARC
8
0
6
CONTINUOUS
10
1188.0
20
10.0
30
0
40
10.0
50
270.0
51
0.0
0
LINE
8
0
6
CONTINUOUS
10
1198.0
20
10.0
30
0
11
1198.0
21
25.0
31
0
0
LINE
8
0
6
CONTINUOUS
10
1198.0
20
25.0
30
0
11
1183.0
21
25.0
31
0
0
LINE
8
0
6
CONTINUOUS
10
1183.0
20
25.0
30
0
11
1178.87
21
228.18
31
0
0
ARC
8
0
6
CONTINUOUS
10
1195.3112579199242
20
249.43281012032364
30
0
40
26.87
50
130.05445386452453
51
232.27432221572298
0
LINE
8
0
6
CONTINUOUS
10
1178.02
20
270.0
30
0
11
1177.0
21
320.0
31
0
0
LINE
8
0
6
CONTINUOUS
10
1177.0
20
320.0
30
0
11
23.0
21
320.0
31
0
0
LINE
8
0
6
CONTINUOUS
10
23.0
20
320.0
30
0
11
21.98
21
270.0
31
0
0
ARC
8
0
6
CONTINUOUS
10
4.688742080075862
20
249.43281012032367
30
0
40
26.87
50
307.72567778427674
51
49.94554613547552
0
LINE
8
0
6
CONTINUOUS
10
21.13
20
228.18
30
0
11
17.0
21
25.0
31
0
0
LINE
8
0
6
CONTINUOUS
10
17.0
20
25.0
30
0
11
2.0
21
25.0
31
0
0
LINE
8
0
6
CONTINUOUS
10
2.0
20
25.0
30
0
11
2.0
21
10.0
31
0
0
ARC
8
0
6
CONTINUOUS
10
12.0
20
10.0
30
0
40
10.0
50
180.0
51
270.0
0
LINE
8
0
6
CONTINUOUS
10
12.0
20
-0.0
30
0
11
1188.0
21
0.0
31
0
0
ARC
8
0
6
CONTINUOUS
10
1188.0
20
10.0
30
0
40
10.0
50
270.0
51
0.0
0
LINE
8
0
6
CONTINUOUS
10
1198.0
20
10.0
30
0
11
1198.0
21
25.0
31
0
0
LINE
8
0
6
CONTINUOUS
10
1198.0
20
25.0
30
0
11
1183.0
21
25.0
31
0
0
LINE
8
0
6
CONTINUOUS
10
1183.0
20
25.0
30
0
11
1178.87
21
228.18
31
0
0
ARC
8
0
6
CONTINUOUS
10
1195.3112579199242
20
249.43281012032364
30
0
40
26.87
50
130.05445386452453
51
232.27432221572298
0
LINE
8
0
6
CONTINUOUS
10
1178.02
20
270.0
30
0
11
1177.0
21
320.0
31
0
0
LINE
8
0
6
CONTINUOUS
10
1177.0
20
320.0
30
0
11
23.0
21
320.0
31
0
0
ARC
8
0
6
CONTINUOUS
10
182.615
20
158.6501986165643
30
0
40
114.45
50
0.5355700900615027
51
179.4644299099385
0
ARC
8
0
6
CONTINUOUS
10
182.615
20
160.7898013834357
30
0
40
114.45
50
180.5355700900615
51
359.4644299099385
0
ARC
8
0
6
CONTINUOUS
10
460.03499999999997
20
158.65019861656683
30
0
40
114.45
50
0.5355700900602361
51
179.46442990993975
0
ARC
8
0
6
CONTINUOUS
10
460.03499999999997
20
160.78980138343317
30
0
40
114.45
50
180.53557009006025
51
359.4644299099398
0
ARC
8
0
6
CONTINUOUS
10
737.4449999999999
20
158.6501986165643
30
0
40
114.45
50
0.5355700900615026
51
179.4644299099385
0
ARC
8
0
6
CONTINUOUS
10
737.4449999999999
20
160.7898013834357
30
0
40
114.45
50
180.5355700900615
51
359.4644299099385
0
ARC
8
0
6
CONTINUOUS
10
1014.865
20
158.6501986165643
30
0
40
114.45
50
0.535570090061503
51
179.4644299099385
0
ARC
8
0
6
CONTINUOUS
10
1014.865
20
160.7898013834357
30
0
40
114.45
50
180.5355700900615
51
359.4644299099385
0
ENDSEC
0
EOF