0
SECTION
2
HEADER
0
ENDSEC
0
SECTION
2
TABLES
0
TABLE
2
LTYPE
70
2
0
LTYPE
2
CONTINUOUS
70
0
3
Solid line
72
65
73
0
40
0.0
0
ENDTAB
0
TABLE
2
LAYER
70
1
0
LAYER
2
0
70
0
62
7
6
CONTINUOUS
0
ENDTAB
0
ENDSEC
0
SECTION
2
ENTITIES
0
LINE
8
0
6
CONTINUOUS
10
1200.0
20
-0.0
30
0
11
1200.0
21
320.0
31
0
0
LINE
8
0
6
CONTINUOUS
10
0.0
20
-0.0
30
0
11
0.0
21
320.0
31
0
0
LINE
8
0
6
CONTINUOUS
10
0.0
20
0.0
30
0
11
1200.0
21
0.0
31
0
0
LINE
8
0
6
CONTINUOUS
10
23.0
20
265.0
30
0
11
22.03
21
227.01
31
0
0
ARC
8
0
6
CONTINUOUS
10
2.0038852237033176
20
206.73181647763803
30
0
40
28.5
50
311.6920565063866
51
45.35833118571582
0
LINE
8
0
6
CONTINUOUS
10
20.96
20
185.45
30
0
11
17.05
21
25.0
31
0
0
LINE
8
0
6
CONTINUOUS
10
17.05
20
25.0
30
0
11
2.0
21
25.0
31
0
0
LINE
8
0
6
CONTINUOUS
10
2.0
20
25.0
30
0
11
2.0
21
10.0
31
0
0
ARC
8
0
6
CONTINUOUS
10
12.0
20
10.0
30
0
40
10.0
50
180.0
51
270.0
0
LINE
8
0
6
CONTINUOUS
10
12.0
20
0.0
30
0
11
1188.0
21
-0.0
31
0
0
ARC
8
0
6
CONTINUOUS
10
1188.0
20
10.0
30
0
40
10.0
50
270.0
51
0.0
0
LINE
8
0
6
CONTINUOUS
10
1198.0
20
10.0
30
0
11
1198.0
21
25.0
31
0
0
LINE
8
0
6
CONTINUOUS
10
1198.0
20
25.0
30
0
11
1182.95
21
25.0
31
0
0
LINE
8
0
6
CONTINUOUS
10
1182.95
20
25.0
30
0
11
1179.04
21
185.45
31
0
0
ARC
8
0
6
CONTINUOUS
10
1197.9961147762967
20
206.731816477638
30
0
40
28.5
50
134.64166881428417
51
228.30794349361318
0
LINE
8
0
6
CONTINUOUS
10
1177.97
20
227.01
30
0
11
1177.0
21
265.0
31
0
0
LINE
8
0
6
CONTINUOUS
10
1177.0
20
265.0
30
0
11
23.0
21
265.0
31
0
0
LINE
8
0
6
CONTINUOUS
10
17.05
20
25.0
30
0
11
2.0
21
25.0
31
0
0
LINE
8
0
6
CONTINUOUS
10
2.0
20
25.0
30
0
11
2.0
21
10.0
31
0
0
ARC
8
0
6
CONTINUOUS
10
12.0
20
10.0
30
0
40
10.0
50
180.0
51
270.0
0
LINE
8
0
6
CONTINUOUS
10
12.0
20
0.0
30
0
11
1188.0
21
-0.0
31
0
0
ARC
8
0
6
CONTINUOUS
10
1188.0
20
10.0
30
0
40
10.0
50
270.0
51
0.0
0
LINE
8
0
6
CONTINUOUS
10
1198.0
20
10.0
30
0
11
1198.0
21
25.0
31
0
0
LINE
8
0
6
CONTINUOUS
10
1198.0
20
25.0
30
0
11
1182.95
21
25.0
31
0
0
LINE
8
0
6
CONTINUOUS
10
1182.95
20
25.0
30
0
11
1179.04
21
185.45
31
0
0
ARC
8
0
6
CONTINUOUS
10
1197.9961147762967
20
206.731816477638
30
0
40
28.5
50
134.64166881428417
51
228.30794349361318
0
LINE
8
0
6
CONTINUOUS
10
1177.97
20
227.01
30
0
11
1177.0
21
265.0
31
0
0
LINE
8
0
6
CONTINUOUS
10
1177.0
20
265.0
30
0
11
23.0
21
265.0
31
0
0
LINE
8
0
6
CONTINUOUS
10
23.0
20
265.0
30
0
11
22.03
21
227.01
31
0
0
ARC
8
0
6
CONTINUOUS
10
2.0038852237033176
20
206.73181647763803
30
0
40
28.5
50
311.6920565063866
51
45.35833118571582
0
LINE
8
0
6
CONTINUOUS
10
20.96
20
185.45
30
0
11
17.05
21
25.0
31
0
0
ARC
8
0
6
CONTINUOUS
10
148.0
20
132.5
30
0
40
93.44
50
0.0
51
180.0
0
ARC
8
0
6
CONTINUOUS
10
148.0
20
132.5
30
0
40
93.44
50
180.0
51
0.0
0
ARC
8
0
6
CONTINUOUS
10
373.5
20
132.5
30
0
40
93.44
50
0.0
51
180.0
0
ARC
8
0
6
CONTINUOUS
10
373.5
20
132.5
30
0
40
93.44
50
180.0
51
0.0
0
ARC
8
0
6
CONTINUOUS
10
599.0
20
131.1329228258795
30
0
40
93.45000000000003
50
0.838208094089776
51
179.16179190591023
0
ARC
8
0
6
CONTINUOUS
10
599.0
20
133.8670771741205
30
0
40
93.45000000000003
50
180.83820809408977
51
359.1617919059102
0
ARC
8
0
6
CONTINUOUS
10
1050.0
20
131.1329228258795
30
0
40
93.45000000000006
50
0.838208094089776
51
179.16179190591023
0
ARC
8
0
6
CONTINUOUS
10
1050.0
20
133.8670771741205
30
0
40
93.45000000000006
50
180.83820809408977
51
359.1617919059102
0
ARC
8
0
6
CONTINUOUS
10
824.5
20
131.1329228258795
30
0
40
93.45000000000006
50
0.838208094089776
51
179.16179190591023
0
ARC
8
0
6
CONTINUOUS
10
824.5
20
133.8670771741205
30
0
40
93.45000000000006
50
180.83820809408977
51
359.1617919059102
0
ENDSEC
0
EOF