0
SECTION
2
HEADER
0
ENDSEC
0
SECTION
2
TABLES
0
TABLE
2
LTYPE
70
2
0
LTYPE
2
CONTINUOUS
70
0
3
Solid line
72
65
73
0
40
0.0
0
ENDTAB
0
TABLE
2
LAYER
70
1
0
LAYER
2
0
70
0
62
7
6
CONTINUOUS
0
ENDTAB
0
ENDSEC
0
SECTION
2
ENTITIES
0
LINE
8
0
6
CONTINUOUS
10
280.0
20
154.5
30
0
11
0.0
21
154.5
31
0
0
LINE
8
0
6
CONTINUOUS
10
140.0
20
154.7
30
0
11
140.0
21
0.0
31
0
0
LINE
8
0
6
CONTINUOUS
10
280.0
20
154.7
30
0
11
280.0
21
0.0
31
0
0
LINE
8
0
6
CONTINUOUS
10
280.0
20
153.0
30
0
11
0.0
21
153.0
31
0
0
LINE
8
0
6
CONTINUOUS
10
0.0
20
0.0
30
0
11
0.0
21
154.7
31
0
0
LINE
8
0
6
CONTINUOUS
10
0.0
20
0.0
30
0
11
280.0
21
0.0
31
0
0
LINE
8
0
6
CONTINUOUS
10
22.2
20
4.75
30
0
11
28.75
21
32.63
31
0
0
LINE
8
0
6
CONTINUOUS
10
28.75
20
32.63
30
0
11
38.05
21
43.58
31
0
0
LINE
8
0
6
CONTINUOUS
10
38.05
20
43.58
30
0
11
62.36
21
105.57
31
0
0
LINE
8
0
6
CONTINUOUS
10
62.36
20
105.57
30
0
11
72.51
21
116.61
31
0
0
LINE
8
0
6
CONTINUOUS
10
72.51
20
116.61
30
0
11
80.36
21
149.96
31
0
0
ARC
8
0
6
CONTINUOUS
10
84.44882653947327
20
149.0000533712237
30
0
40
4.2
50
89.7111535560551
51
166.78776751958645
0
LINE
8
0
6
CONTINUOUS
10
84.47
20
153.2
30
0
11
129.25
21
153.2
31
0
0
LINE
8
0
6
CONTINUOUS
10
129.25
20
153.2
30
0
11
136.62
21
148.29
31
0
0
ARC
8
0
6
CONTINUOUS
10
139.99070768070203
20
153.00999255627127
30
0
40
5.8
50
234.4680743717244
51
270.09179498369434
0
LINE
8
0
6
CONTINUOUS
10
140.0
20
147.21
30
0
11
140.0
21
148.71
31
0
0
ARC
8
0
6
CONTINUOUS
10
139.99196187082978
20
153.00999248702593
30
0
40
4.3
50
234.25511725354443
51
270.1071049174093
0
LINE
8
0
6
CONTINUOUS
10
137.48
20
149.52
30
0
11
129.7
21
154.7
31
0
0
LINE
8
0
6
CONTINUOUS
10
129.7
20
154.7
30
0
11
84.47
21
154.7
31
0
0
ARC
8
0
6
CONTINUOUS
10
84.44743337384256
20
149.00004467145715
30
0
40
5.7
50
89.77316213782481
51
166.7137182150468
0
LINE
8
0
6
CONTINUOUS
10
78.9
20
150.31
30
0
11
71.14
21
117.34
31
0
0
LINE
8
0
6
CONTINUOUS
10
71.14
20
117.34
30
0
11
61.07
21
106.38
31
0
0
LINE
8
0
6
CONTINUOUS
10
61.07
20
106.38
30
0
11
36.74
21
44.36
31
0
0
LINE
8
0
6
CONTINUOUS
10
36.74
20
44.36
30
0
11
27.38
21
33.32
31
0
0
LINE
8
0
6
CONTINUOUS
10
27.38
20
33.32
30
0
11
20.73
21
5.08
31
0
0
ARC
8
0
6
CONTINUOUS
10
16.529571445757657
20
5.9999999786443325
30
0
40
4.3
50
270.00571031381844
51
347.64586227339475
0
LINE
8
0
6
CONTINUOUS
10
16.53
20
1.7
30
0
11
0.0
21
1.7
31
0
0
LINE
8
0
6
CONTINUOUS
10
0.0
20
1.7
30
0
11
0.0
21
0.2
31
0
0
LINE
8
0
6
CONTINUOUS
10
0.0
20
0.2
30
0
11
16.53
21
0.2
31
0
0
ARC
8
0
6
CONTINUOUS
10
16.536299041151047
20
5.9999965794886965
30
0
40
5.8
50
269.9377743889859
51
347.5541601231812
0
ARC
8
0
6
CONTINUOUS
10
263.46370095884896
20
5.9999965794886965
30
0
40
5.8
50
192.4458398768188
51
270.06222561101436
0
LINE
8
0
6
CONTINUOUS
10
263.47
20
0.2
30
0
11
280.0
21
0.2
31
0
0
LINE
8
0
6
CONTINUOUS
10
280.0
20
0.2
30
0
11
280.0
21
1.7
31
0
0
LINE
8
0
6
CONTINUOUS
10
280.0
20
1.7
30
0
11
263.47
21
1.7
31
0
0
ARC
8
0
6
CONTINUOUS
10
263.47042855424235
20
5.9999999786443325
30
0
40
4.3
50
192.35413772660522
51
269.99428968618184
0
LINE
8
0
6
CONTINUOUS
10
259.27
20
5.08
30
0
11
252.62
21
33.32
31
0
0
LINE
8
0
6
CONTINUOUS
10
252.62
20
33.32
30
0
11
243.26
21
44.36
31
0
0
LINE
8
0
6
CONTINUOUS
10
243.26
20
44.36
30
0
11
218.93
21
106.38
31
0
0
LINE
8
0
6
CONTINUOUS
10
218.93
20
106.38
30
0
11
208.86
21
117.34
31
0
0
LINE
8
0
6
CONTINUOUS
10
208.86
20
117.34
30
0
11
201.1
21
150.31
31
0
0
ARC
8
0
6
CONTINUOUS
10
195.55256662615744
20
149.00004467145715
30
0
40
5.7
50
13.286281784953198
51
90.2268378621752
0
LINE
8
0
6
CONTINUOUS
10
195.53
20
154.7
30
0
11
150.3
21
154.7
31
0
0
LINE
8
0
6
CONTINUOUS
10
150.3
20
154.7
30
0
11
142.52
21
149.52
31
0
0
ARC
8
0
6
CONTINUOUS
10
140.00803812917022
20
153.00999248702593
30
0
40
4.3
50
269.8928950825907
51
305.7448827464556
0
LINE
8
0
6
CONTINUOUS
10
140.0
20
148.71
30
0
11
140.0
21
147.21
31
0
0
ARC
8
0
6
CONTINUOUS
10
140.00929231929797
20
153.00999255627127
30
0
40
5.8
50
269.9082050163056
51
305.5319256282756
0
LINE
8
0
6
CONTINUOUS
10
143.38
20
148.29
30
0
11
150.75
21
153.2
31
0
0
LINE
8
0
6
CONTINUOUS
10
150.75
20
153.2
30
0
11
195.53
21
153.2
31
0
0
ARC
8
0
6
CONTINUOUS
10
195.55117346052668
20
149.0000533712237
30
0
40
4.2
50
13.212232480413459
51
90.28884644394432
0
LINE
8
0
6
CONTINUOUS
10
199.64
20
149.96
30
0
11
207.49
21
116.61
31
0
0
LINE
8
0
6
CONTINUOUS
10
207.49
20
116.61
30
0
11
217.64
21
105.57
31
0
0
LINE
8
0
6
CONTINUOUS
10
217.64
20
105.57
30
0
11
241.95
21
43.58
31
0
0
LINE
8
0
6
CONTINUOUS
10
241.95
20
43.58
30
0
11
251.25
21
32.63
31
0
0
LINE
8
0
6
CONTINUOUS
10
251.25
20
32.63
30
0
11
257.8
21
4.75
31
0
0
ENDSEC
0
EOF