0
SECTION
2
HEADER
0
ENDSEC
0
SECTION
2
TABLES
0
TABLE
2
LTYPE
70
3
0
LTYPE
2
CONTINUOUS
70
0
3
Solid line
72
65
73
0
40
0.0
0
LTYPE
2
HIDDEN
70
0
3
hidden
72
65
73
2
40
9.524999999999999
49
6.35
49
-3.175
0
ENDTAB
0
TABLE
2
LAYER
70
1
0
LAYER
2
0
70
0
62
7
6
CONTINUOUS
0
ENDTAB
0
ENDSEC
0
SECTION
2
ENTITIES
0
LINE
8
0
6
CONTINUOUS
10
-28.42
20
-7.62
30
0
11
-28.42
21
7.62
31
0
0
LINE
8
0
6
CONTINUOUS
10
28.42
20
-7.62
30
0
11
28.42
21
7.62
31
0
0
LINE
8
0
6
CONTINUOUS
10
56.85
20
-7.62
30
0
11
56.85
21
7.62
31
0
0
LINE
8
0
6
CONTINUOUS
10
-56.85
20
-7.62
30
0
11
-56.85
21
7.62
31
0
0
LINE
8
0
6
CONTINUOUS
10
0.0
20
-7.62
30
0
11
0.0
21
7.62
31
0
0
LINE
8
0
6
CONTINUOUS
10
-56.85
20
0.0
30
0
11
56.85
21
0.0
31
0
0
ARC
8
0
6
HIDDEN
10
28.425
20
-49.233544205145336
30
0
40
56.85
50
59.99999999999999
51
120.00000000000001
0
ARC
8
0
6
HIDDEN
10
28.425
20
49.233544205145336
30
0
40
56.85
50
240.0
51
300.0
0
ARC
8
0
6
HIDDEN
10
-28.425
20
49.233544205145336
30
0
40
56.85
50
240.0
51
300.0
0
ENDSEC
0
EOF