0
SECTION
2
HEADER
0
ENDSEC
0
SECTION
2
TABLES
0
TABLE
2
LTYPE
70
2
0
LTYPE
2
CONTINUOUS
70
0
3
Solid line
72
65
73
0
40
0.0
0
ENDTAB
0
TABLE
2
LAYER
70
1
0
LAYER
2
0
70
0
62
7
6
CONTINUOUS
0
ENDTAB
0
ENDSEC
0
SECTION
2
ENTITIES
0
LINE
8
0
6
CONTINUOUS
10
2.0
20
-12.0
30
0
11
2.0
21
12.0
31
0
0
LINE
8
0
6
CONTINUOUS
10
33.34
20
-12.0
30
0
11
33.34
21
12.0
31
0
0
LINE
8
0
6
CONTINUOUS
10
33.34
20
-12.0
30
0
11
-114.69
21
-12.0
31
0
0
LINE
8
0
6
CONTINUOUS
10
33.34
20
12.0
30
0
11
-114.69
21
12.0
31
0
0
LINE
8
0
6
CONTINUOUS
10
33.34
20
6.0
30
0
11
-114.69
21
6.0
31
0
0
LINE
8
0
6
CONTINUOUS
10
33.34
20
-6.0
30
0
11
-114.69
21
-6.0
31
0
0
LINE
8
0
6
CONTINUOUS
10
9.0
20
-12.0
30
0
11
9.0
21
12.0
31
0
0
LINE
8
0
6
CONTINUOUS
10
7.0
20
-12.0
30
0
11
7.0
21
12.0
31
0
0
LINE
8
0
6
CONTINUOUS
10
0.0
20
12.0
30
0
11
-0.0
21
-12.0
31
0
0
LINE
8
0
6
CONTINUOUS
10
33.34
20
-8.0
30
0
11
-114.69
21
-8.0
31
0
0
LINE
8
0
6
CONTINUOUS
10
33.34
20
8.0
30
0
11
-114.69
21
8.0
31
0
0
LINE
8
0
6
CONTINUOUS
10
-110.0
20
-12.0
30
0
11
-110.0
21
12.0
31
0
0
LINE
8
0
6
CONTINUOUS
10
-100.0
20
-12.0
30
0
11
-100.0
21
12.0
31
0
0
LINE
8
0
6
CONTINUOUS
10
-114.69
20
-10.0
30
0
11
33.34
21
-10.0
31
0
0
LINE
8
0
6
CONTINUOUS
10
-114.69
20
10.0
30
0
11
33.34
21
10.0
31
0
0
LINE
8
0
6
CONTINUOUS
10
0.0
20
-12.0
30
0
11
0.0
21
12.0
31
0
0
LINE
8
0
6
CONTINUOUS
10
-114.69
20
0.0
30
0
11
33.34
21
0.0
31
0
0
LINE
8
0
6
CONTINUOUS
10
-110.0
20
10.0
30
0
11
-114.69
21
-0.0
31
0
0
LINE
8
0
6
CONTINUOUS
10
-114.69
20
-0.0
30
0
11
-110.0
21
-10.0
31
0
0
LINE
8
0
6
CONTINUOUS
10
-110.0
20
-10.0
30
0
11
0.0
21
-10.0
31
0
0
LINE
8
0
6
CONTINUOUS
10
0.0
20
-10.0
30
0
11
0.0
21
-8.0
31
0
0
LINE
8
0
6
CONTINUOUS
10
0.0
20
-8.0
30
0
11
-100.0
21
-8.0
31
0
0
LINE
8
0
6
CONTINUOUS
10
-100.0
20
-8.0
30
0
11
-100.0
21
8.0
31
0
0
LINE
8
0
6
CONTINUOUS
10
-100.0
20
8.0
30
0
11
0.0
21
8.0
31
0
0
LINE
8
0
6
CONTINUOUS
10
0.0
20
8.0
30
0
11
0.0
21
10.0
31
0
0
LINE
8
0
6
CONTINUOUS
10
0.0
20
10.0
30
0
11
-110.0
21
10.0
31
0
0
LINE
8
0
6
CONTINUOUS
10
0.0
20
10.0
30
0
11
-110.0
21
10.0
31
0
0
LINE
8
0
6
CONTINUOUS
10
0.0
20
7.0
30
0
11
-100.0
21
7.0
31
0
0
LINE
8
0
6
CONTINUOUS
10
-100.0
20
7.0
30
0
11
-100.0
21
-7.0
31
0
0
LINE
8
0
6
CONTINUOUS
10
-100.0
20
-7.0
30
0
11
0.0
21
-7.0
31
0
0
LINE
8
0
6
CONTINUOUS
10
9.0
20
10.0
30
0
11
9.0
21
-10.0
31
0
0
LINE
8
0
6
CONTINUOUS
10
0.0
20
10.0
30
0
11
0.0
21
7.0
31
0
0
LINE
8
0
6
CONTINUOUS
10
0.0
20
-8.25
30
0
11
0.0
21
-7.0
31
0
0
LINE
8
0
6
CONTINUOUS
10
-97.44
20
-8.0
30
0
11
-100.07
21
-8.0
31
0
0
LINE
8
0
6
CONTINUOUS
10
-97.44
20
8.0
30
0
11
-100.07
21
8.0
31
0
0
LINE
8
0
6
CONTINUOUS
10
-100.0
20
-8.0
30
0
11
-100.0
21
8.0
31
0
0
LINE
8
0
6
CONTINUOUS
10
-100.07
20
-0.0
30
0
11
-97.44
21
-0.0
31
0
0
LINE
8
0
6
CONTINUOUS
10
-100.07
20
-8.0
30
0
11
-97.44
21
8.0
31
0
0
ARC
8
0
6
CONTINUOUS
10
-99.20124980324188
20
9.17999963160182
30
0
40
2.12
50
270.0337775731741
51
326.1787620684295
0
ARC
8
0
6
CONTINUOUS
10
-98.30875019675811
20
-9.17999963160182
30
0
40
2.12
50
90.0337775731745
51
146.17876206842948
0
LINE
8
0
6
CONTINUOUS
10
0.0
20
-8.0
30
0
11
-2.63
21
-8.0
31
0
0
LINE
8
0
6
CONTINUOUS
10
0.0
20
8.0
30
0
11
-2.63
21
8.0
31
0
0
LINE
8
0
6
CONTINUOUS
10
-2.56
20
-8.0
30
0
11
-2.56
21
8.0
31
0
0
LINE
8
0
6
CONTINUOUS
10
-2.63
20
-0.0
30
0
11
0.0
21
-0.0
31
0
0
LINE
8
0
6
CONTINUOUS
10
-2.63
20
-8.0
30
0
11
0.0
21
8.0
31
0
0
ARC
8
0
6
CONTINUOUS
10
-1.761249803241882
20
9.17999963160182
30
0
40
2.12
50
270.0337775731743
51
326.1787620684295
0
ARC
8
0
6
CONTINUOUS
10
-0.8687501967581179
20
-9.17999963160182
30
0
40
2.12
50
90.03377757317428
51
146.1787620684295
0
LINE
8
0
6
CONTINUOUS
10
-95.45
20
-8.0
30
0
11
-98.08
21
-8.0
31
0
0
LINE
8
0
6
CONTINUOUS
10
-95.45
20
8.0
30
0
11
-98.08
21
8.0
31
0
0
LINE
8
0
6
CONTINUOUS
10
-98.01
20
-8.0
30
0
11
-98.01
21
8.0
31
0
0
LINE
8
0
6
CONTINUOUS
10
-98.08
20
-0.0
30
0
11
-95.45
21
-0.0
31
0
0
LINE
8
0
6
CONTINUOUS
10
-98.08
20
-8.0
30
0
11
-95.45
21
8.0
31
0
0
ARC
8
0
6
CONTINUOUS
10
-97.21124980324188
20
9.17999963160182
30
0
40
2.12
50
270.0337775731745
51
326.1787620684295
0
ARC
8
0
6
CONTINUOUS
10
-96.3187501967581
20
-9.17999963160182
30
0
40
2.12
50
90.0337775731745
51
146.1787620684297
0
LINE
8
0
6
CONTINUOUS
10
-93.46
20
-8.0
30
0
11
-96.09
21
-8.0
31
0
0
LINE
8
0
6
CONTINUOUS
10
-93.46
20
8.0
30
0
11
-96.09
21
8.0
31
0
0
LINE
8
0
6
CONTINUOUS
10
-96.02
20
-8.0
30
0
11
-96.02
21
8.0
31
0
0
LINE
8
0
6
CONTINUOUS
10
-96.09
20
-0.0
30
0
11
-93.46
21
-0.0
31
0
0
LINE
8
0
6
CONTINUOUS
10
-96.09
20
-8.0
30
0
11
-93.46
21
8.0
31
0
0
ARC
8
0
6
CONTINUOUS
10
-95.22124980324189
20
9.17999963160182
30
0
40
2.12
50
270.0337775731745
51
326.1787620684297
0
ARC
8
0
6
CONTINUOUS
10
-94.32875019675812
20
-9.17999963160182
30
0
40
2.12
50
90.03377757317413
51
146.17876206842948
0
LINE
8
0
6
CONTINUOUS
10
-91.47
20
-8.0
30
0
11
-94.1
21
-8.0
31
0
0
LINE
8
0
6
CONTINUOUS
10
-91.47
20
8.0
30
0
11
-94.1
21
8.0
31
0
0
LINE
8
0
6
CONTINUOUS
10
-94.03
20
-8.0
30
0
11
-94.03
21
8.0
31
0
0
LINE
8
0
6
CONTINUOUS
10
-94.1
20
-0.0
30
0
11
-91.47
21
-0.0
31
0
0
LINE
8
0
6
CONTINUOUS
10
-94.1
20
-8.0
30
0
11
-91.47
21
8.0
31
0
0
ARC
8
0
6
CONTINUOUS
10
-93.23124980324188
20
9.17999963160182
30
0
40
2.12
50
270.0337775731741
51
326.1787620684295
0
ARC
8
0
6
CONTINUOUS
10
-92.33875019675811
20
-9.17999963160182
30
0
40
2.12
50
90.0337775731745
51
146.17876206842948
0
LINE
8
0
6
CONTINUOUS
10
-89.48
20
-8.0
30
0
11
-92.12
21
-8.0
31
0
0
LINE
8
0
6
CONTINUOUS
10
-89.48
20
8.0
30
0
11
-92.12
21
8.0
31
0
0
LINE
8
0
6
CONTINUOUS
10
-92.05
20
-8.0
30
0
11
-92.05
21
8.0
31
0
0
LINE
8
0
6
CONTINUOUS
10
-92.12
20
-0.0
30
0
11
-89.48
21
-0.0
31
0
0
LINE
8
0
6
CONTINUOUS
10
-92.12
20
-8.0
30
0
11
-89.48
21
8.0
31
0
0
ARC
8
0
6
CONTINUOUS
10
-91.24124980324189
20
9.17999963160182
30
0
40
2.12
50
270.0337775731745
51
326.1787620684295
0
ARC
8
0
6
CONTINUOUS
10
-90.35873837783782
20
-9.17998199066708
30
0
40
2.12
50
89.76383321337994
51
146.17933594938273
0
LINE
8
0
6
CONTINUOUS
10
-87.49
20
-8.0
30
0
11
-90.13
21
-8.0
31
0
0
LINE
8
0
6
CONTINUOUS
10
-87.49
20
8.0
30
0
11
-90.13
21
8.0
31
0
0
LINE
8
0
6
CONTINUOUS
10
-90.06
20
-8.0
30
0
11
-90.06
21
8.0
31
0
0
LINE
8
0
6
CONTINUOUS
10
-90.13
20
-0.0
30
0
11
-87.49
21
-0.0
31
0
0
LINE
8
0
6
CONTINUOUS
10
-90.13
20
-8.0
30
0
11
-87.49
21
8.0
31
0
0
ARC
8
0
6
CONTINUOUS
10
-89.25124980324189
20
9.17999963160182
30
0
40
2.12
50
270.0337775731745
51
326.1787620684297
0
ARC
8
0
6
CONTINUOUS
10
-88.36875019675811
20
-9.17999963160182
30
0
40
2.12
50
90.0337775731745
51
146.17876206842948
0
LINE
8
0
6
CONTINUOUS
10
-85.5
20
-8.0
30
0
11
-88.14
21
-8.0
31
0
0
LINE
8
0
6
CONTINUOUS
10
-85.5
20
8.0
30
0
11
-88.14
21
8.0
31
0
0
LINE
8
0
6
CONTINUOUS
10
-88.07
20
-8.0
30
0
11
-88.07
21
8.0
31
0
0
LINE
8
0
6
CONTINUOUS
10
-88.14
20
-0.0
30
0
11
-85.5
21
-0.0
31
0
0
LINE
8
0
6
CONTINUOUS
10
-88.14
20
-8.0
30
0
11
-85.5
21
8.0
31
0
0
ARC
8
0
6
CONTINUOUS
10
-87.26126162216217
20
9.17998199066708
30
0
40
2.12
50
269.76383321337994
51
326.1793359493825
0
ARC
8
0
6
CONTINUOUS
10
-86.3787501967581
20
-9.17999963160182
30
0
40
2.12
50
90.0337775731745
51
146.1787620684297
0
LINE
8
0
6
CONTINUOUS
10
-83.52
20
-8.0
30
0
11
-86.15
21
-8.0
31
0
0
LINE
8
0
6
CONTINUOUS
10
-83.52
20
8.0
30
0
11
-86.15
21
8.0
31
0
0
LINE
8
0
6
CONTINUOUS
10
-86.08
20
-8.0
30
0
11
-86.08
21
8.0
31
0
0
LINE
8
0
6
CONTINUOUS
10
-86.15
20
-0.0
30
0
11
-83.52
21
-0.0
31
0
0
LINE
8
0
6
CONTINUOUS
10
-86.15
20
-8.0
30
0
11
-83.52
21
8.0
31
0
0
ARC
8
0
6
CONTINUOUS
10
-85.28124980324189
20
9.17999963160182
30
0
40
2.12
50
270.0337775731745
51
326.1787620684297
0
ARC
8
0
6
CONTINUOUS
10
-84.38875019675812
20
-9.17999963160182
30
0
40
2.12
50
90.03377757317413
51
146.17876206842948
0
LINE
8
0
6
CONTINUOUS
10
-81.53
20
-8.0
30
0
11
-84.16
21
-8.0
31
0
0
LINE
8
0
6
CONTINUOUS
10
-81.53
20
8.0
30
0
11
-84.16
21
8.0
31
0
0
LINE
8
0
6
CONTINUOUS
10
-84.09
20
-8.0
30
0
11
-84.09
21
8.0
31
0
0
LINE
8
0
6
CONTINUOUS
10
-84.16
20
-0.0
30
0
11
-81.53
21
-0.0
31
0
0
LINE
8
0
6
CONTINUOUS
10
-84.16
20
-8.0
30
0
11
-81.53
21
8.0
31
0
0
ARC
8
0
6
CONTINUOUS
10
-83.29124980324188
20
9.17999963160182
30
0
40
2.12
50
270.0337775731741
51
326.1787620684295
0
ARC
8
0
6
CONTINUOUS
10
-82.39875019675812
20
-9.17999963160182
30
0
40
2.12
50
90.0337775731745
51
146.17876206842948
0
LINE
8
0
6
CONTINUOUS
10
-79.54
20
-8.0
30
0
11
-82.17
21
-8.0
31
0
0
LINE
8
0
6
CONTINUOUS
10
-79.54
20
8.0
30
0
11
-82.17
21
8.0
31
0
0
LINE
8
0
6
CONTINUOUS
10
-82.1
20
-8.0
30
0
11
-82.1
21
8.0
31
0
0
LINE
8
0
6
CONTINUOUS
10
-82.17
20
-0.0
30
0
11
-79.54
21
-0.0
31
0
0
LINE
8
0
6
CONTINUOUS
10
-82.17
20
-8.0
30
0
11
-79.54
21
8.0
31
0
0
ARC
8
0
6
CONTINUOUS
10
-81.30124980324189
20
9.17999963160182
30
0
40
2.12
50
270.0337775731745
51
326.1787620684295
0
ARC
8
0
6
CONTINUOUS
10
-80.4087501967581
20
-9.17999963160182
30
0
40
2.12
50
90.0337775731745
51
146.1787620684297
0
LINE
8
0
6
CONTINUOUS
10
-77.55
20
-8.0
30
0
11
-80.18
21
-8.0
31
0
0
LINE
8
0
6
CONTINUOUS
10
-77.55
20
8.0
30
0
11
-80.18
21
8.0
31
0
0
LINE
8
0
6
CONTINUOUS
10
-80.12
20
-8.0
30
0
11
-80.12
21
8.0
31
0
0
LINE
8
0
6
CONTINUOUS
10
-80.18
20
-0.0
30
0
11
-77.55
21
-0.0
31
0
0
LINE
8
0
6
CONTINUOUS
10
-80.18
20
-8.0
30
0
11
-77.55
21
8.0
31
0
0
ARC
8
0
6
CONTINUOUS
10
-79.31124980324189
20
9.17999963160182
30
0
40
2.12
50
270.0337775731745
51
326.1787620684297
0
ARC
8
0
6
CONTINUOUS
10
-78.41875019675813
20
-9.17999963160182
30
0
40
2.12
50
90.03377757317413
51
146.17876206842948
0
LINE
8
0
6
CONTINUOUS
10
-75.56
20
-8.0
30
0
11
-78.2
21
-8.0
31
0
0
LINE
8
0
6
CONTINUOUS
10
-75.56
20
8.0
30
0
11
-78.2
21
8.0
31
0
0
LINE
8
0
6
CONTINUOUS
10
-78.13
20
-8.0
30
0
11
-78.13
21
8.0
31
0
0
LINE
8
0
6
CONTINUOUS
10
-78.2
20
-0.0
30
0
11
-75.56
21
-0.0
31
0
0
LINE
8
0
6
CONTINUOUS
10
-78.2
20
-8.0
30
0
11
-75.56
21
8.0
31
0
0
ARC
8
0
6
CONTINUOUS
10
-77.32124980324188
20
9.17999963160182
30
0
40
2.12
50
270.0337775731745
51
326.1787620684295
0
ARC
8
0
6
CONTINUOUS
10
-76.43873837783782
20
-9.17998199066708
30
0
40
2.12
50
89.76383321338032
51
146.17933594938273
0
LINE
8
0
6
CONTINUOUS
10
-73.57
20
-8.0
30
0
11
-76.21
21
-8.0
31
0
0
LINE
8
0
6
CONTINUOUS
10
-73.57
20
8.0
30
0
11
-76.21
21
8.0
31
0
0
LINE
8
0
6
CONTINUOUS
10
-76.14
20
-8.0
30
0
11
-76.14
21
8.0
31
0
0
LINE
8
0
6
CONTINUOUS
10
-76.21
20
-0.0
30
0
11
-73.57
21
-0.0
31
0
0
LINE
8
0
6
CONTINUOUS
10
-76.21
20
-8.0
30
0
11
-73.57
21
8.0
31
0
0
ARC
8
0
6
CONTINUOUS
10
-75.33126162216217
20
9.17998199066708
30
0
40
2.12
50
269.76383321337994
51
326.17933594938273
0
ARC
8
0
6
CONTINUOUS
10
-74.44875019675811
20
-9.17999963160182
30
0
40
2.12
50
90.0337775731745
51
146.17876206842948
0
LINE
8
0
6
CONTINUOUS
10
-71.59
20
-8.0
30
0
11
-74.22
21
-8.0
31
0
0
LINE
8
0
6
CONTINUOUS
10
-71.59
20
8.0
30
0
11
-74.22
21
8.0
31
0
0
LINE
8
0
6
CONTINUOUS
10
-74.15
20
-8.0
30
0
11
-74.15
21
8.0
31
0
0
LINE
8
0
6
CONTINUOUS
10
-74.22
20
-0.0
30
0
11
-71.59
21
-0.0
31
0
0
LINE
8
0
6
CONTINUOUS
10
-74.22
20
-8.0
30
0
11
-71.59
21
8.0
31
0
0
ARC
8
0
6
CONTINUOUS
10
-73.35124980324188
20
9.17999963160182
30
0
40
2.12
50
270.0337775731745
51
326.1787620684295
0
ARC
8
0
6
CONTINUOUS
10
-72.45875019675812
20
-9.17999963160182
30
0
40
2.12
50
90.03377757317413
51
146.17876206842948
0
LINE
8
0
6
CONTINUOUS
10
-69.6
20
-8.0
30
0
11
-72.23
21
-8.0
31
0
0
LINE
8
0
6
CONTINUOUS
10
-69.6
20
8.0
30
0
11
-72.23
21
8.0
31
0
0
LINE
8
0
6
CONTINUOUS
10
-72.16
20
-8.0
30
0
11
-72.16
21
8.0
31
0
0
LINE
8
0
6
CONTINUOUS
10
-72.23
20
-0.0
30
0
11
-69.6
21
-0.0
31
0
0
LINE
8
0
6
CONTINUOUS
10
-72.23
20
-8.0
30
0
11
-69.6
21
8.0
31
0
0
ARC
8
0
6
CONTINUOUS
10
-71.36124980324188
20
9.17999963160182
30
0
40
2.12
50
270.0337775731741
51
326.1787620684295
0
ARC
8
0
6
CONTINUOUS
10
-70.46875019675811
20
-9.17999963160182
30
0
40
2.12
50
90.0337775731745
51
146.1787620684297
0
LINE
8
0
6
CONTINUOUS
10
-67.61
20
-8.0
30
0
11
-70.24
21
-8.0
31
0
0
LINE
8
0
6
CONTINUOUS
10
-67.61
20
8.0
30
0
11
-70.24
21
8.0
31
0
0
LINE
8
0
6
CONTINUOUS
10
-70.17
20
-8.0
30
0
11
-70.17
21
8.0
31
0
0
LINE
8
0
6
CONTINUOUS
10
-70.24
20
-0.0
30
0
11
-67.61
21
-0.0
31
0
0
LINE
8
0
6
CONTINUOUS
10
-70.24
20
-8.0
30
0
11
-67.61
21
8.0
31
0
0
ARC
8
0
6
CONTINUOUS
10
-69.3712498032419
20
9.17999963160182
30
0
40
2.12
50
270.0337775731745
51
326.1787620684297
0
ARC
8
0
6
CONTINUOUS
10
-68.47875019675811
20
-9.17999963160182
30
0
40
2.12
50
90.0337775731745
51
146.17876206842948
0
LINE
8
0
6
CONTINUOUS
10
-65.62
20
-8.0
30
0
11
-68.25
21
-8.0
31
0
0
LINE
8
0
6
CONTINUOUS
10
-65.62
20
8.0
30
0
11
-68.25
21
8.0
31
0
0
LINE
8
0
6
CONTINUOUS
10
-68.18
20
-8.0
30
0
11
-68.18
21
8.0
31
0
0
LINE
8
0
6
CONTINUOUS
10
-68.25
20
-0.0
30
0
11
-65.62
21
-0.0
31
0
0
LINE
8
0
6
CONTINUOUS
10
-68.25
20
-8.0
30
0
11
-65.62
21
8.0
31
0
0
ARC
8
0
6
CONTINUOUS
10
-67.38124980324189
20
9.17999963160182
30
0
40
2.12
50
270.0337775731745
51
326.1787620684295
0
ARC
8
0
6
CONTINUOUS
10
-66.48875019675812
20
-9.17999963160182
30
0
40
2.12
50
90.03377757317413
51
146.17876206842948
0
LINE
8
0
6
CONTINUOUS
10
-63.63
20
-8.0
30
0
11
-66.27
21
-8.0
31
0
0
LINE
8
0
6
CONTINUOUS
10
-63.63
20
8.0
30
0
11
-66.27
21
8.0
31
0
0
LINE
8
0
6
CONTINUOUS
10
-66.2
20
-8.0
30
0
11
-66.2
21
8.0
31
0
0
LINE
8
0
6
CONTINUOUS
10
-66.27
20
-0.0
30
0
11
-63.63
21
-0.0
31
0
0
LINE
8
0
6
CONTINUOUS
10
-66.27
20
-8.0
30
0
11
-63.63
21
8.0
31
0
0
ARC
8
0
6
CONTINUOUS
10
-65.39124980324189
20
9.17999963160182
30
0
40
2.12
50
270.0337775731745
51
326.1787620684296
0
ARC
8
0
6
CONTINUOUS
10
-64.50873837783782
20
-9.17998199066708
30
0
40
2.12
50
89.76383321338032
51
146.17933594938273
0
LINE
8
0
6
CONTINUOUS
10
-61.64
20
-8.0
30
0
11
-64.28
21
-8.0
31
0
0
LINE
8
0
6
CONTINUOUS
10
-61.64
20
8.0
30
0
11
-64.28
21
8.0
31
0
0
LINE
8
0
6
CONTINUOUS
10
-64.21
20
-8.0
30
0
11
-64.21
21
8.0
31
0
0
LINE
8
0
6
CONTINUOUS
10
-64.28
20
-0.0
30
0
11
-61.64
21
-0.0
31
0
0
LINE
8
0
6
CONTINUOUS
10
-64.28
20
-8.0
30
0
11
-61.64
21
8.0
31
0
0
ARC
8
0
6
CONTINUOUS
10
-63.40124980324188
20
9.17999963160182
30
0
40
2.12
50
270.0337775731743
51
326.1787620684295
0
ARC
8
0
6
CONTINUOUS
10
-62.51873837783782
20
-9.17998199066708
30
0
40
2.12
50
89.76383321338014
51
146.17933594938273
0
LINE
8
0
6
CONTINUOUS
10
-59.65
20
-8.0
30
0
11
-62.29
21
-8.0
31
0
0
LINE
8
0
6
CONTINUOUS
10
-59.65
20
8.0
30
0
11
-62.29
21
8.0
31
0
0
LINE
8
0
6
CONTINUOUS
10
-62.22
20
-8.0
30
0
11
-62.22
21
8.0
31
0
0
LINE
8
0
6
CONTINUOUS
10
-62.29
20
-0.0
30
0
11
-59.65
21
-0.0
31
0
0
LINE
8
0
6
CONTINUOUS
10
-62.29
20
-8.0
30
0
11
-59.65
21
8.0
31
0
0
ARC
8
0
6
CONTINUOUS
10
-61.41126162216217
20
9.17998199066708
30
0
40
2.12
50
269.76383321337994
51
326.1793359493826
0
ARC
8
0
6
CONTINUOUS
10
-60.52875019675811
20
-9.17999963160182
30
0
40
2.12
50
90.0337775731745
51
146.17876206842962
0
LINE
8
0
6
CONTINUOUS
10
-57.67
20
-8.0
30
0
11
-60.3
21
-8.0
31
0
0
LINE
8
0
6
CONTINUOUS
10
-57.67
20
8.0
30
0
11
-60.3
21
8.0
31
0
0
LINE
8
0
6
CONTINUOUS
10
-60.23
20
-8.0
30
0
11
-60.23
21
8.0
31
0
0
LINE
8
0
6
CONTINUOUS
10
-60.3
20
-0.0
30
0
11
-57.67
21
-0.0
31
0
0
LINE
8
0
6
CONTINUOUS
10
-60.3
20
-8.0
30
0
11
-57.67
21
8.0
31
0
0
ARC
8
0
6
CONTINUOUS
10
-59.43124980324188
20
9.17999963160182
30
0
40
2.12
50
270.0337775731743
51
326.1787620684295
0
ARC
8
0
6
CONTINUOUS
10
-58.538750196758116
20
-9.17999963160182
30
0
40
2.12
50
90.03377757317432
51
146.17876206842948
0
LINE
8
0
6
CONTINUOUS
10
-55.68
20
-8.0
30
0
11
-58.31
21
-8.0
31
0
0
LINE
8
0
6
CONTINUOUS
10
-55.68
20
8.0
30
0
11
-58.31
21
8.0
31
0
0
LINE
8
0
6
CONTINUOUS
10
-58.24
20
-8.0
30
0
11
-58.24
21
8.0
31
0
0
LINE
8
0
6
CONTINUOUS
10
-58.31
20
-0.0
30
0
11
-55.68
21
-0.0
31
0
0
LINE
8
0
6
CONTINUOUS
10
-58.31
20
-8.0
30
0
11
-55.68
21
8.0
31
0
0
ARC
8
0
6
CONTINUOUS
10
-57.44124980324189
20
9.17999963160182
30
0
40
2.12
50
270.0337775731745
51
326.1787620684296
0
ARC
8
0
6
CONTINUOUS
10
-56.54875019675812
20
-9.17999963160182
30
0
40
2.12
50
90.03377757317413
51
146.17876206842948
0
LINE
8
0
6
CONTINUOUS
10
-53.69
20
-8.0
30
0
11
-56.32
21
-8.0
31
0
0
LINE
8
0
6
CONTINUOUS
10
-53.69
20
8.0
30
0
11
-56.32
21
8.0
31
0
0
LINE
8
0
6
CONTINUOUS
10
-56.25
20
-8.0
30
0
11
-56.25
21
8.0
31
0
0
LINE
8
0
6
CONTINUOUS
10
-56.32
20
-0.0
30
0
11
-53.69
21
-0.0
31
0
0
LINE
8
0
6
CONTINUOUS
10
-56.32
20
-8.0
30
0
11
-53.69
21
8.0
31
0
0
ARC
8
0
6
CONTINUOUS
10
-55.45124980324188
20
9.17999963160182
30
0
40
2.12
50
270.0337775731741
51
326.1787620684295
0
ARC
8
0
6
CONTINUOUS
10
-54.55875019675811
20
-9.17999963160182
30
0
40
2.12
50
90.0337775731745
51
146.17876206842962
0
LINE
8
0
6
CONTINUOUS
10
-51.7
20
-8.0
30
0
11
-54.33
21
-8.0
31
0
0
LINE
8
0
6
CONTINUOUS
10
-51.7
20
8.0
30
0
11
-54.33
21
8.0
31
0
0
LINE
8
0
6
CONTINUOUS
10
-54.26
20
-8.0
30
0
11
-54.26
21
8.0
31
0
0
LINE
8
0
6
CONTINUOUS
10
-54.33
20
-0.0
30
0
11
-51.7
21
-0.0
31
0
0
LINE
8
0
6
CONTINUOUS
10
-54.33
20
-8.0
30
0
11
-51.7
21
8.0
31
0
0
ARC
8
0
6
CONTINUOUS
10
-53.461249803241884
20
9.17999963160182
30
0
40
2.12
50
270.0337775731743
51
326.1787620684295
0
ARC
8
0
6
CONTINUOUS
10
-52.56875019675812
20
-9.17999963160182
30
0
40
2.12
50
90.03377757317432
51
146.17876206842948
0
LINE
8
0
6
CONTINUOUS
10
-49.71
20
-8.0
30
0
11
-52.35
21
-8.0
31
0
0
LINE
8
0
6
CONTINUOUS
10
-49.71
20
8.0
30
0
11
-52.35
21
8.0
31
0
0
LINE
8
0
6
CONTINUOUS
10
-52.28
20
-8.0
30
0
11
-52.28
21
8.0
31
0
0
LINE
8
0
6
CONTINUOUS
10
-52.35
20
-0.0
30
0
11
-49.71
21
-0.0
31
0
0
LINE
8
0
6
CONTINUOUS
10
-52.35
20
-8.0
30
0
11
-49.71
21
8.0
31
0
0
ARC
8
0
6
CONTINUOUS
10
-51.47124980324189
20
9.17999963160182
30
0
40
2.12
50
270.0337775731745
51
326.1787620684296
0
ARC
8
0
6
CONTINUOUS
10
-50.58873837783783
20
-9.17998199066708
30
0
40
2.12
50
89.76383321337994
51
146.1793359493826
0
LINE
8
0
6
CONTINUOUS
10
-47.72
20
-8.0
30
0
11
-50.36
21
-8.0
31
0
0
LINE
8
0
6
CONTINUOUS
10
-47.72
20
8.0
30
0
11
-50.36
21
8.0
31
0
0
LINE
8
0
6
CONTINUOUS
10
-50.29
20
-8.0
30
0
11
-50.29
21
8.0
31
0
0
LINE
8
0
6
CONTINUOUS
10
-50.36
20
-0.0
30
0
11
-47.72
21
-0.0
31
0
0
LINE
8
0
6
CONTINUOUS
10
-50.36
20
-8.0
30
0
11
-47.72
21
8.0
31
0
0
ARC
8
0
6
CONTINUOUS
10
-49.48126162216218
20
9.17998199066708
30
0
40
2.12
50
269.76383321338017
51
326.17933594938273
0
ARC
8
0
6
CONTINUOUS
10
-48.59875019675812
20
-9.17999963160182
30
0
40
2.12
50
90.03377757317432
51
146.17876206842948
0
LINE
8
0
6
CONTINUOUS
10
-45.74
20
-8.0
30
0
11
-48.37
21
-8.0
31
0
0
LINE
8
0
6
CONTINUOUS
10
-45.74
20
8.0
30
0
11
-48.37
21
8.0
31
0
0
LINE
8
0
6
CONTINUOUS
10
-48.3
20
-8.0
30
0
11
-48.3
21
8.0
31
0
0
LINE
8
0
6
CONTINUOUS
10
-48.37
20
-0.0
30
0
11
-45.74
21
-0.0
31
0
0
LINE
8
0
6
CONTINUOUS
10
-48.37
20
-8.0
30
0
11
-45.74
21
8.0
31
0
0
ARC
8
0
6
CONTINUOUS
10
-47.50124980324189
20
9.17999963160182
30
0
40
2.12
50
270.0337775731745
51
326.1787620684296
0
ARC
8
0
6
CONTINUOUS
10
-46.60875019675811
20
-9.17999963160182
30
0
40
2.12
50
90.0337775731745
51
146.17876206842962
0
LINE
8
0
6
CONTINUOUS
10
-43.75
20
-8.0
30
0
11
-46.38
21
-8.0
31
0
0
LINE
8
0
6
CONTINUOUS
10
-43.75
20
8.0
30
0
11
-46.38
21
8.0
31
0
0
LINE
8
0
6
CONTINUOUS
10
-46.31
20
-8.0
30
0
11
-46.31
21
8.0
31
0
0
LINE
8
0
6
CONTINUOUS
10
-46.38
20
-0.0
30
0
11
-43.75
21
-0.0
31
0
0
LINE
8
0
6
CONTINUOUS
10
-46.38
20
-8.0
30
0
11
-43.75
21
8.0
31
0
0
ARC
8
0
6
CONTINUOUS
10
-45.51124980324188
20
9.17999963160182
30
0
40
2.12
50
270.0337775731743
51
326.1787620684295
0
ARC
8
0
6
CONTINUOUS
10
-44.61875019675812
20
-9.17999963160182
30
0
40
2.12
50
90.03377757317413
51
146.17876206842948
0
LINE
8
0
6
CONTINUOUS
10
12.26
20
-8.0
30
0
11
9.62
21
-8.0
31
0
0
LINE
8
0
6
CONTINUOUS
10
12.26
20
8.0
30
0
11
9.62
21
8.0
31
0
0
LINE
8
0
6
CONTINUOUS
10
9.69
20
-8.0
30
0
11
9.69
21
8.0
31
0
0
LINE
8
0
6
CONTINUOUS
10
9.62
20
-0.0
30
0
11
12.26
21
-0.0
31
0
0
LINE
8
0
6
CONTINUOUS
10
9.62
20
-8.0
30
0
11
12.26
21
8.0
31
0
0
ARC
8
0
6
CONTINUOUS
10
10.498750196758117
20
9.17999963160182
30
0
40
2.12
50
270.0337775731743
51
326.17876206842953
0
ARC
8
0
6
CONTINUOUS
10
11.381261622162178
20
-9.17998199066708
30
0
40
2.12
50
89.76383321338014
51
146.1793359493827
0
LINE
8
0
6
CONTINUOUS
10
-0.0
20
10.0
30
0
11
-0.0
21
-10.0
31
0
0
ARC
8
0
6
CONTINUOUS
10
7.0
20
10.0
30
0
40
2.0
50
0.0
51
90.0
0
ARC
8
0
6
CONTINUOUS
10
7.0
20
-10.0
30
0
40
2.0
50
270.0
51
0.0
0
ARC
8
0
6
CONTINUOUS
10
7.0
20
-4.0
30
0
40
2.0
50
270.0
51
0.0
0
ARC
8
0
6
CONTINUOUS
10
7.0
20
8.0
30
0
40
2.0
50
270.0
51
0.0
0
LINE
8
0
6
CONTINUOUS
10
-100.0
20
-7.0
30
0
11
-100.0
21
7.0
31
0
0
LINE
8
0
6
CONTINUOUS
10
9.0
20
7.0
30
0
11
17.09
21
7.0
31
0
0
LINE
8
0
6
CONTINUOUS
10
9.0
20
-7.0
30
0
11
17.09
21
-7.0
31
0
0
LINE
8
0
6
CONTINUOUS
10
17.09
20
7.0
30
0
11
17.09
21
-7.0
31
0
0
LINE
8
0
6
CONTINUOUS
10
17.09
20
5.0
30
0
11
20.9
21
5.0
31
0
0
LINE
8
0
6
CONTINUOUS
10
17.09
20
-5.0
30
0
11
20.9
21
-5.0
31
0
0
LINE
8
0
6
CONTINUOUS
10
20.9
20
5.0
30
0
11
20.9
21
-5.0
31
0
0
ARC
8
0
6
CONTINUOUS
10
7.0
20
4.0
30
0
40
2.0
50
0.0
51
90.0
0
ARC
8
0
6
CONTINUOUS
10
7.0
20
-8.0
30
0
40
2.0
50
0.0
51
90.0
0
LINE
8
0
6
CONTINUOUS
10
2.0
20
12.0
30
0
11
7.0
21
12.0
31
0
0
LINE
8
0
6
CONTINUOUS
10
2.0
20
6.0
30
0
11
7.0
21
6.0
31
0
0
LINE
8
0
6
CONTINUOUS
10
2.0
20
-6.0
30
0
11
7.0
21
-6.0
31
0
0
LINE
8
0
6
CONTINUOUS
10
2.0
20
-12.0
30
0
11
7.0
21
-12.0
31
0
0
LINE
8
0
6
CONTINUOUS
10
17.09
20
-0.0
30
0
11
20.9
21
-0.0
31
0
0
ARC
8
0
6
CONTINUOUS
10
2.0
20
10.0
30
0
40
2.0
50
90.0
51
180.0
0
ARC
8
0
6
CONTINUOUS
10
2.0
20
-10.0
30
0
40
2.0
50
180.0
51
270.0
0
ARC
8
0
6
CONTINUOUS
10
2.0
20
8.0
30
0
40
2.0
50
180.0
51
270.0
0
ARC
8
0
6
CONTINUOUS
10
2.0
20
4.0
30
0
40
2.0
50
90.0
51
180.0
0
ARC
8
0
6
CONTINUOUS
10
2.0
20
-4.0
30
0
40
2.0
50
180.0
51
270.0
0
ARC
8
0
6
CONTINUOUS
10
2.0
20
-8.0
30
0
40
2.0
50
90.0
51
180.0
0
LINE
8
0
6
CONTINUOUS
10
17.3
20
-8.0
30
0
11
14.66
21
-8.0
31
0
0
LINE
8
0
6
CONTINUOUS
10
17.3
20
8.0
30
0
11
14.66
21
8.0
31
0
0
LINE
8
0
6
CONTINUOUS
10
14.73
20
-8.0
30
0
11
14.73
21
8.0
31
0
0
LINE
8
0
6
CONTINUOUS
10
14.66
20
-0.0
30
0
11
17.3
21
-0.0
31
0
0
LINE
8
0
6
CONTINUOUS
10
14.66
20
-8.0
30
0
11
17.3
21
8.0
31
0
0
ARC
8
0
6
CONTINUOUS
10
15.538750196758121
20
9.17999963160182
30
0
40
2.12
50
270.0337775731742
51
326.1787620684295
0
ARC
8
0
6
CONTINUOUS
10
16.42126162216218
20
-9.179981990667082
30
0
40
2.12
50
89.76383321338024
51
146.17933594938268
0
LINE
8
0
6
CONTINUOUS
10
-41.76
20
-8.0
30
0
11
-44.39
21
-8.0
31
0
0
LINE
8
0
6
CONTINUOUS
10
-41.76
20
8.0
30
0
11
-44.39
21
8.0
31
0
0
LINE
8
0
6
CONTINUOUS
10
-44.32
20
-8.0
30
0
11
-44.32
21
8.0
31
0
0
LINE
8
0
6
CONTINUOUS
10
-44.39
20
-0.0
30
0
11
-41.76
21
-0.0
31
0
0
LINE
8
0
6
CONTINUOUS
10
-44.39
20
-8.0
30
0
11
-41.76
21
8.0
31
0
0
ARC
8
0
6
CONTINUOUS
10
-43.52124980324188
20
9.17999963160182
30
0
40
2.12
50
270.0337775731741
51
326.1787620684295
0
ARC
8
0
6
CONTINUOUS
10
-42.62875019675812
20
-9.17999963160182
30
0
40
2.12
50
90.03377757317432
51
146.17876206842948
0
LINE
8
0
6
CONTINUOUS
10
-39.77
20
-8.0
30
0
11
-42.4
21
-8.0
31
0
0
LINE
8
0
6
CONTINUOUS
10
-39.77
20
8.0
30
0
11
-42.4
21
8.0
31
0
0
LINE
8
0
6
CONTINUOUS
10
-42.33
20
-8.0
30
0
11
-42.33
21
8.0
31
0
0
LINE
8
0
6
CONTINUOUS
10
-42.4
20
-0.0
30
0
11
-39.77
21
-0.0
31
0
0
LINE
8
0
6
CONTINUOUS
10
-42.4
20
-8.0
30
0
11
-39.77
21
8.0
31
0
0
ARC
8
0
6
CONTINUOUS
10
-41.53124980324189
20
9.17999963160182
30
0
40
2.12
50
270.0337775731745
51
326.1787620684296
0
ARC
8
0
6
CONTINUOUS
10
-40.63875019675811
20
-9.17999963160182
30
0
40
2.12
50
90.0337775731745
51
146.17876206842962
0
LINE
8
0
6
CONTINUOUS
10
13.94
20
-8.0
30
0
11
11.3
21
-8.0
31
0
0
LINE
8
0
6
CONTINUOUS
10
13.94
20
8.0
30
0
11
11.3
21
8.0
31
0
0
LINE
8
0
6
CONTINUOUS
10
11.37
20
-8.0
30
0
11
11.37
21
8.0
31
0
0
LINE
8
0
6
CONTINUOUS
10
11.3
20
-0.0
30
0
11
13.94
21
-0.0
31
0
0
LINE
8
0
6
CONTINUOUS
10
11.3
20
-8.0
30
0
11
13.94
21
8.0
31
0
0
ARC
8
0
6
CONTINUOUS
10
12.178750196758116
20
9.17999963160182
30
0
40
2.12
50
270.0337775731743
51
326.17876206842953
0
ARC
8
0
6
CONTINUOUS
10
13.06126162216218
20
-9.179981990667082
30
0
40
2.12
50
89.76383321338018
51
146.17933594938265
0
LINE
8
0
6
CONTINUOUS
10
15.62
20
-8.0
30
0
11
12.98
21
-8.0
31
0
0
LINE
8
0
6
CONTINUOUS
10
15.62
20
8.0
30
0
11
12.98
21
8.0
31
0
0
LINE
8
0
6
CONTINUOUS
10
13.05
20
-8.0
30
0
11
13.05
21
8.0
31
0
0
LINE
8
0
6
CONTINUOUS
10
12.98
20
-0.0
30
0
11
15.62
21
-0.0
31
0
0
LINE
8
0
6
CONTINUOUS
10
12.98
20
-8.0
30
0
11
15.62
21
8.0
31
0
0
ARC
8
0
6
CONTINUOUS
10
13.858750196758116
20
9.17999963160182
30
0
40
2.12
50
270.0337775731743
51
326.17876206842953
0
ARC
8
0
6
CONTINUOUS
10
14.74126162216218
20
-9.179981990667082
30
0
40
2.12
50
89.76383321338018
51
146.17933594938265
0
LINE
8
0
6
CONTINUOUS
10
-37.78
20
-8.0
30
0
11
-40.41
21
-8.0
31
0
0
LINE
8
0
6
CONTINUOUS
10
-37.78
20
8.0
30
0
11
-40.41
21
8.0
31
0
0
LINE
8
0
6
CONTINUOUS
10
-40.35
20
-8.0
30
0
11
-40.35
21
8.0
31
0
0
LINE
8
0
6
CONTINUOUS
10
-40.41
20
-0.0
30
0
11
-37.78
21
-0.0
31
0
0
LINE
8
0
6
CONTINUOUS
10
-40.41
20
-8.0
30
0
11
-37.78
21
8.0
31
0
0
ARC
8
0
6
CONTINUOUS
10
-39.54124980324188
20
9.17999963160182
30
0
40
2.12
50
270.0337775731743
51
326.1787620684295
0
ARC
8
0
6
CONTINUOUS
10
-38.648750196758115
20
-9.17999963160182
30
0
40
2.12
50
90.03377757317432
51
146.17876206842948
0
LINE
8
0
6
CONTINUOUS
10
-35.79
20
-8.0
30
0
11
-38.43
21
-8.0
31
0
0
LINE
8
0
6
CONTINUOUS
10
-35.79
20
8.0
30
0
11
-38.43
21
8.0
31
0
0
LINE
8
0
6
CONTINUOUS
10
-38.36
20
-8.0
30
0
11
-38.36
21
8.0
31
0
0
LINE
8
0
6
CONTINUOUS
10
-38.43
20
-0.0
30
0
11
-35.79
21
-0.0
31
0
0
LINE
8
0
6
CONTINUOUS
10
-38.43
20
-8.0
30
0
11
-35.79
21
8.0
31
0
0
ARC
8
0
6
CONTINUOUS
10
-37.55124980324189
20
9.17999963160182
30
0
40
2.12
50
270.0337775731745
51
326.1787620684296
0
ARC
8
0
6
CONTINUOUS
10
-36.668738377837826
20
-9.17998199066708
30
0
40
2.12
50
89.76383321337994
51
146.1793359493826
0
LINE
8
0
6
CONTINUOUS
10
-33.8
20
-8.0
30
0
11
-36.44
21
-8.0
31
0
0
LINE
8
0
6
CONTINUOUS
10
-33.8
20
8.0
30
0
11
-36.44
21
8.0
31
0
0
LINE
8
0
6
CONTINUOUS
10
-36.37
20
-8.0
30
0
11
-36.37
21
8.0
31
0
0
LINE
8
0
6
CONTINUOUS
10
-36.44
20
-0.0
30
0
11
-33.8
21
-0.0
31
0
0
LINE
8
0
6
CONTINUOUS
10
-36.44
20
-8.0
30
0
11
-33.8
21
8.0
31
0
0
ARC
8
0
6
CONTINUOUS
10
-35.56126162216218
20
9.17998199066708
30
0
40
2.12
50
269.76383321338017
51
326.17933594938273
0
ARC
8
0
6
CONTINUOUS
10
-34.678750196758116
20
-9.17999963160182
30
0
40
2.12
50
90.03377757317432
51
146.17876206842948
0
LINE
8
0
6
CONTINUOUS
10
-31.82
20
-8.0
30
0
11
-34.45
21
-8.0
31
0
0
LINE
8
0
6
CONTINUOUS
10
-31.82
20
8.0
30
0
11
-34.45
21
8.0
31
0
0
LINE
8
0
6
CONTINUOUS
10
-34.38
20
-8.0
30
0
11
-34.38
21
8.0
31
0
0
LINE
8
0
6
CONTINUOUS
10
-34.45
20
-0.0
30
0
11
-31.82
21
-0.0
31
0
0
LINE
8
0
6
CONTINUOUS
10
-34.45
20
-8.0
30
0
11
-31.82
21
8.0
31
0
0
ARC
8
0
6
CONTINUOUS
10
-33.58124980324189
20
9.17999963160182
30
0
40
2.12
50
270.0337775731745
51
326.1787620684296
0
ARC
8
0
6
CONTINUOUS
10
-32.68875019675812
20
-9.17999963160182
30
0
40
2.12
50
90.03377757317413
51
146.17876206842948
0
LINE
8
0
6
CONTINUOUS
10
-29.83
20
-8.0
30
0
11
-32.46
21
-8.0
31
0
0
LINE
8
0
6
CONTINUOUS
10
-29.83
20
8.0
30
0
11
-32.46
21
8.0
31
0
0
LINE
8
0
6
CONTINUOUS
10
-32.39
20
-8.0
30
0
11
-32.39
21
8.0
31
0
0
LINE
8
0
6
CONTINUOUS
10
-32.46
20
-0.0
30
0
11
-29.83
21
-0.0
31
0
0
LINE
8
0
6
CONTINUOUS
10
-32.46
20
-8.0
30
0
11
-29.83
21
8.0
31
0
0
ARC
8
0
6
CONTINUOUS
10
-31.591249803241883
20
9.17999963160182
30
0
40
2.12
50
270.0337775731743
51
326.17876206842953
0
ARC
8
0
6
CONTINUOUS
10
-30.698750196758116
20
-9.17999963160182
30
0
40
2.12
50
90.03377757317432
51
146.17876206842953
0
LINE
8
0
6
CONTINUOUS
10
-27.84
20
-8.0
30
0
11
-30.47
21
-8.0
31
0
0
LINE
8
0
6
CONTINUOUS
10
-27.84
20
8.0
30
0
11
-30.47
21
8.0
31
0
0
LINE
8
0
6
CONTINUOUS
10
-30.4
20
-8.0
30
0
11
-30.4
21
8.0
31
0
0
LINE
8
0
6
CONTINUOUS
10
-30.47
20
-0.0
30
0
11
-27.84
21
-0.0
31
0
0
LINE
8
0
6
CONTINUOUS
10
-30.47
20
-8.0
30
0
11
-27.84
21
8.0
31
0
0
ARC
8
0
6
CONTINUOUS
10
-29.60124980324188
20
9.17999963160182
30
0
40
2.12
50
270.03377757317423
51
326.1787620684295
0
ARC
8
0
6
CONTINUOUS
10
-28.708750196758118
20
-9.17999963160182
30
0
40
2.12
50
90.03377757317432
51
146.17876206842948
0
LINE
8
0
6
CONTINUOUS
10
-25.85
20
-8.0
30
0
11
-28.48
21
-8.0
31
0
0
LINE
8
0
6
CONTINUOUS
10
-25.85
20
8.0
30
0
11
-28.48
21
8.0
31
0
0
LINE
8
0
6
CONTINUOUS
10
-28.41
20
-8.0
30
0
11
-28.41
21
8.0
31
0
0
LINE
8
0
6
CONTINUOUS
10
-28.48
20
-0.0
30
0
11
-25.85
21
-0.0
31
0
0
LINE
8
0
6
CONTINUOUS
10
-28.48
20
-8.0
30
0
11
-25.85
21
8.0
31
0
0
ARC
8
0
6
CONTINUOUS
10
-27.611249803241883
20
9.17999963160182
30
0
40
2.12
50
270.0337775731743
51
326.1787620684295
0
ARC
8
0
6
CONTINUOUS
10
-26.71875019675812
20
-9.17999963160182
30
0
40
2.12
50
90.03377757317422
51
146.17876206842948
0
LINE
8
0
6
CONTINUOUS
10
-23.86
20
-8.0
30
0
11
-26.5
21
-8.0
31
0
0
LINE
8
0
6
CONTINUOUS
10
-23.86
20
8.0
30
0
11
-26.5
21
8.0
31
0
0
LINE
8
0
6
CONTINUOUS
10
-26.43
20
-8.0
30
0
11
-26.43
21
8.0
31
0
0
LINE
8
0
6
CONTINUOUS
10
-26.5
20
-0.0
30
0
11
-23.86
21
-0.0
31
0
0
LINE
8
0
6
CONTINUOUS
10
-26.5
20
-8.0
30
0
11
-23.86
21
8.0
31
0
0
ARC
8
0
6
CONTINUOUS
10
-25.621249803241884
20
9.17999963160182
30
0
40
2.12
50
270.0337775731743
51
326.17876206842953
0
ARC
8
0
6
CONTINUOUS
10
-24.738738377837823
20
-9.179981990667082
30
0
40
2.12
50
89.76383321338014
51
146.17933594938262
0
LINE
8
0
6
CONTINUOUS
10
-21.87
20
-8.0
30
0
11
-24.51
21
-8.0
31
0
0
LINE
8
0
6
CONTINUOUS
10
-21.87
20
8.0
30
0
11
-24.51
21
8.0
31
0
0
LINE
8
0
6
CONTINUOUS
10
-24.44
20
-8.0
30
0
11
-24.44
21
8.0
31
0
0
LINE
8
0
6
CONTINUOUS
10
-24.51
20
-0.0
30
0
11
-21.87
21
-0.0
31
0
0
LINE
8
0
6
CONTINUOUS
10
-24.51
20
-8.0
30
0
11
-21.87
21
8.0
31
0
0
ARC
8
0
6
CONTINUOUS
10
-23.63126162216218
20
9.179981990667082
30
0
40
2.12
50
269.7638332133802
51
326.1793359493827
0
ARC
8
0
6
CONTINUOUS
10
-22.74875019675812
20
-9.17999963160182
30
0
40
2.12
50
90.03377757317422
51
146.17876206842948
0
LINE
8
0
6
CONTINUOUS
10
-19.88
20
-8.0
30
0
11
-22.52
21
-8.0
31
0
0
LINE
8
0
6
CONTINUOUS
10
-19.88
20
8.0
30
0
11
-22.52
21
8.0
31
0
0
LINE
8
0
6
CONTINUOUS
10
-22.45
20
-8.0
30
0
11
-22.45
21
8.0
31
0
0
LINE
8
0
6
CONTINUOUS
10
-22.52
20
-0.0
30
0
11
-19.88
21
-0.0
31
0
0
LINE
8
0
6
CONTINUOUS
10
-22.52
20
-8.0
30
0
11
-19.88
21
8.0
31
0
0
ARC
8
0
6
CONTINUOUS
10
-21.64126162216218
20
9.179981990667082
30
0
40
2.12
50
269.7638332133802
51
326.1793359493827
0
ARC
8
0
6
CONTINUOUS
10
-20.75875019675812
20
-9.17999963160182
30
0
40
2.12
50
90.03377757317432
51
146.17876206842948
0
LINE
8
0
6
CONTINUOUS
10
-17.9
20
-8.0
30
0
11
-20.53
21
-8.0
31
0
0
LINE
8
0
6
CONTINUOUS
10
-17.9
20
8.0
30
0
11
-20.53
21
8.0
31
0
0
LINE
8
0
6
CONTINUOUS
10
-20.46
20
-8.0
30
0
11
-20.46
21
8.0
31
0
0
LINE
8
0
6
CONTINUOUS
10
-20.53
20
-0.0
30
0
11
-17.9
21
-0.0
31
0
0
LINE
8
0
6
CONTINUOUS
10
-20.53
20
-8.0
30
0
11
-17.9
21
8.0
31
0
0
ARC
8
0
6
CONTINUOUS
10
-19.661249803241883
20
9.17999963160182
30
0
40
2.12
50
270.0337775731743
51
326.17876206842953
0
ARC
8
0
6
CONTINUOUS
10
-18.768750196758116
20
-9.17999963160182
30
0
40
2.12
50
90.03377757317432
51
146.17876206842953
0
LINE
8
0
6
CONTINUOUS
10
-15.91
20
-8.0
30
0
11
-18.54
21
-8.0
31
0
0
LINE
8
0
6
CONTINUOUS
10
-15.91
20
8.0
30
0
11
-18.54
21
8.0
31
0
0
LINE
8
0
6
CONTINUOUS
10
-18.47
20
-8.0
30
0
11
-18.47
21
8.0
31
0
0
LINE
8
0
6
CONTINUOUS
10
-18.54
20
-0.0
30
0
11
-15.91
21
-0.0
31
0
0
LINE
8
0
6
CONTINUOUS
10
-18.54
20
-8.0
30
0
11
-15.91
21
8.0
31
0
0
ARC
8
0
6
CONTINUOUS
10
-17.67124980324188
20
9.17999963160182
30
0
40
2.12
50
270.03377757317423
51
326.1787620684295
0
ARC
8
0
6
CONTINUOUS
10
-16.778750196758118
20
-9.17999963160182
30
0
40
2.12
50
90.03377757317432
51
146.17876206842948
0
LINE
8
0
6
CONTINUOUS
10
-13.92
20
-8.0
30
0
11
-16.55
21
-8.0
31
0
0
LINE
8
0
6
CONTINUOUS
10
-13.92
20
8.0
30
0
11
-16.55
21
8.0
31
0
0
LINE
8
0
6
CONTINUOUS
10
-16.48
20
-8.0
30
0
11
-16.48
21
8.0
31
0
0
LINE
8
0
6
CONTINUOUS
10
-16.55
20
-0.0
30
0
11
-13.92
21
-0.0
31
0
0
LINE
8
0
6
CONTINUOUS
10
-16.55
20
-8.0
30
0
11
-13.92
21
8.0
31
0
0
ARC
8
0
6
CONTINUOUS
10
-15.681249803241883
20
9.17999963160182
30
0
40
2.12
50
270.0337775731743
51
326.17876206842953
0
ARC
8
0
6
CONTINUOUS
10
-14.78875019675812
20
-9.17999963160182
30
0
40
2.12
50
90.03377757317422
51
146.17876206842948
0
LINE
8
0
6
CONTINUOUS
10
-11.93
20
-8.0
30
0
11
-14.56
21
-8.0
31
0
0
LINE
8
0
6
CONTINUOUS
10
-11.93
20
8.0
30
0
11
-14.56
21
8.0
31
0
0
LINE
8
0
6
CONTINUOUS
10
-14.5
20
-8.0
30
0
11
-14.5
21
8.0
31
0
0
LINE
8
0
6
CONTINUOUS
10
-14.56
20
-0.0
30
0
11
-11.93
21
-0.0
31
0
0
LINE
8
0
6
CONTINUOUS
10
-14.56
20
-8.0
30
0
11
-11.93
21
8.0
31
0
0
ARC
8
0
6
CONTINUOUS
10
-13.691249803241881
20
9.17999963160182
30
0
40
2.12
50
270.03377757317423
51
326.1787620684295
0
ARC
8
0
6
CONTINUOUS
10
-12.798750196758117
20
-9.17999963160182
30
0
40
2.12
50
90.03377757317432
51
146.1787620684295
0
LINE
8
0
6
CONTINUOUS
10
-9.94
20
-8.0
30
0
11
-12.58
21
-8.0
31
0
0
LINE
8
0
6
CONTINUOUS
10
-9.94
20
8.0
30
0
11
-12.58
21
8.0
31
0
0
LINE
8
0
6
CONTINUOUS
10
-12.51
20
-8.0
30
0
11
-12.51
21
8.0
31
0
0
LINE
8
0
6
CONTINUOUS
10
-12.58
20
-0.0
30
0
11
-9.94
21
-0.0
31
0
0
LINE
8
0
6
CONTINUOUS
10
-12.58
20
-8.0
30
0
11
-9.94
21
8.0
31
0
0
ARC
8
0
6
CONTINUOUS
10
-11.701249803241883
20
9.17999963160182
30
0
40
2.12
50
270.0337775731743
51
326.17876206842953
0
ARC
8
0
6
CONTINUOUS
10
-10.818738377837821
20
-9.179981990667082
30
0
40
2.12
50
89.76383321338018
51
146.17933594938265
0
LINE
8
0
6
CONTINUOUS
10
-7.95
20
-8.0
30
0
11
-10.59
21
-8.0
31
0
0
LINE
8
0
6
CONTINUOUS
10
-7.95
20
8.0
30
0
11
-10.59
21
8.0
31
0
0
LINE
8
0
6
CONTINUOUS
10
-10.52
20
-8.0
30
0
11
-10.52
21
8.0
31
0
0
LINE
8
0
6
CONTINUOUS
10
-10.59
20
-0.0
30
0
11
-7.95
21
-0.0
31
0
0
LINE
8
0
6
CONTINUOUS
10
-10.59
20
-8.0
30
0
11
-7.95
21
8.0
31
0
0
ARC
8
0
6
CONTINUOUS
10
-9.71126162216218
20
9.17998199066708
30
0
40
2.12
50
269.76383321338017
51
326.1793359493827
0
ARC
8
0
6
CONTINUOUS
10
-8.828750196758119
20
-9.17999963160182
30
0
40
2.12
50
90.03377757317426
51
146.17876206842948
0
LINE
8
0
6
CONTINUOUS
10
-5.97
20
-8.0
30
0
11
-8.6
21
-8.0
31
0
0
LINE
8
0
6
CONTINUOUS
10
-5.97
20
8.0
30
0
11
-8.6
21
8.0
31
0
0
LINE
8
0
6
CONTINUOUS
10
-8.53
20
-8.0
30
0
11
-8.53
21
8.0
31
0
0
LINE
8
0
6
CONTINUOUS
10
-8.6
20
-0.0
30
0
11
-5.97
21
-0.0
31
0
0
LINE
8
0
6
CONTINUOUS
10
-8.6
20
-8.0
30
0
11
-5.97
21
8.0
31
0
0
ARC
8
0
6
CONTINUOUS
10
-7.731249803241881
20
9.17999963160182
30
0
40
2.12
50
270.03377757317423
51
326.1787620684295
0
ARC
8
0
6
CONTINUOUS
10
-6.8387501967581175
20
-9.17999963160182
30
0
40
2.12
50
90.03377757317429
51
146.1787620684295
0
LINE
8
0
6
CONTINUOUS
10
-3.98
20
-8.0
30
0
11
-6.61
21
-8.0
31
0
0
LINE
8
0
6
CONTINUOUS
10
-3.98
20
8.0
30
0
11
-6.61
21
8.0
31
0
0
LINE
8
0
6
CONTINUOUS
10
-6.54
20
-8.0
30
0
11
-6.54
21
8.0
31
0
0
LINE
8
0
6
CONTINUOUS
10
-6.61
20
-0.0
30
0
11
-3.98
21
-0.0
31
0
0
LINE
8
0
6
CONTINUOUS
10
-6.61
20
-8.0
30
0
11
-3.98
21
8.0
31
0
0
ARC
8
0
6
CONTINUOUS
10
-5.741249803241882
20
9.17999963160182
30
0
40
2.12
50
270.03377757317423
51
326.1787620684295
0
ARC
8
0
6
CONTINUOUS
10
-4.848750196758119
20
-9.17999963160182
30
0
40
2.12
50
90.03377757317425
51
146.17876206842948
0
LINE
8
0
6
CONTINUOUS
10
-1.99
20
-8.0
30
0
11
-4.62
21
-8.0
31
0
0
LINE
8
0
6
CONTINUOUS
10
-1.99
20
8.0
30
0
11
-4.62
21
8.0
31
0
0
LINE
8
0
6
CONTINUOUS
10
-4.55
20
-8.0
30
0
11
-4.55
21
8.0
31
0
0
LINE
8
0
6
CONTINUOUS
10
-4.62
20
-0.0
30
0
11
-1.99
21
-0.0
31
0
0
LINE
8
0
6
CONTINUOUS
10
-4.62
20
-8.0
30
0
11
-1.99
21
8.0
31
0
0
ARC
8
0
6
CONTINUOUS
10
-3.751249803241882
20
9.17999963160182
30
0
40
2.12
50
270.0337775731743
51
326.1787620684295
0
ARC
8
0
6
CONTINUOUS
10
-2.8587501967581184
20
-9.17999963160182
30
0
40
2.12
50
90.03377757317426
51
146.1787620684295
0
ENDSEC
0
EOF