0
SECTION
2
HEADER
0
ENDSEC
0
SECTION
2
TABLES
0
TABLE
2
LTYPE
70
2
0
LTYPE
2
CONTINUOUS
70
0
3
Solid line
72
65
73
0
40
0.0
0
ENDTAB
0
TABLE
2
LAYER
70
1
0
LAYER
2
0
70
0
62
7
6
CONTINUOUS
0
ENDTAB
0
ENDSEC
0
SECTION
2
ENTITIES
0
LINE
8
0
6
CONTINUOUS
10
12.0
20
-9.5
30
0
11
12.0
21
9.5
31
0
0
LINE
8
0
6
CONTINUOUS
10
33.34
20
-9.5
30
0
11
33.34
21
9.5
31
0
0
LINE
8
0
6
CONTINUOUS
10
33.34
20
-9.5
30
0
11
-154.69
21
-9.5
31
0
0
LINE
8
0
6
CONTINUOUS
10
33.34
20
9.5
30
0
11
-154.69
21
9.5
31
0
0
LINE
8
0
6
CONTINUOUS
10
33.34
20
4.75
30
0
11
-154.69
21
4.75
31
0
0
LINE
8
0
6
CONTINUOUS
10
33.34
20
-4.75
30
0
11
-154.69
21
-4.75
31
0
0
LINE
8
0
6
CONTINUOUS
10
16.0
20
-9.5
30
0
11
16.0
21
9.5
31
0
0
LINE
8
0
6
CONTINUOUS
10
14.0
20
-9.5
30
0
11
14.0
21
9.5
31
0
0
LINE
8
0
6
CONTINUOUS
10
10.0
20
9.5
30
0
11
10.0
21
-9.5
31
0
0
LINE
8
0
6
CONTINUOUS
10
33.34
20
-6.0
30
0
11
-154.69
21
-6.0
31
0
0
LINE
8
0
6
CONTINUOUS
10
33.34
20
6.0
30
0
11
-154.69
21
6.0
31
0
0
LINE
8
0
6
CONTINUOUS
10
-150.0
20
-9.5
30
0
11
-150.0
21
9.5
31
0
0
LINE
8
0
6
CONTINUOUS
10
-140.0
20
-9.5
30
0
11
-140.0
21
9.5
31
0
0
LINE
8
0
6
CONTINUOUS
10
-154.69
20
-7.0
30
0
11
33.34
21
-7.0
31
0
0
LINE
8
0
6
CONTINUOUS
10
-154.69
20
7.0
30
0
11
33.34
21
7.0
31
0
0
LINE
8
0
6
CONTINUOUS
10
0.0
20
-9.5
30
0
11
0.0
21
9.5
31
0
0
LINE
8
0
6
CONTINUOUS
10
-154.69
20
0.0
30
0
11
33.34
21
0.0
31
0
0
LINE
8
0
6
CONTINUOUS
10
10.0
20
5.0
30
0
11
0.0
21
5.0
31
0
0
LINE
8
0
6
CONTINUOUS
10
0.0
20
5.0
30
0
11
0.0
21
-5.0
31
0
0
LINE
8
0
6
CONTINUOUS
10
0.0
20
-5.0
30
0
11
10.0
21
-5.0
31
0
0
LINE
8
0
6
CONTINUOUS
10
10.0
20
-5.0
30
0
11
10.0
21
5.0
31
0
0
LINE
8
0
6
CONTINUOUS
10
-150.0
20
7.0
30
0
11
-154.69
21
-0.0
31
0
0
LINE
8
0
6
CONTINUOUS
10
-154.69
20
-0.0
30
0
11
-150.0
21
-7.0
31
0
0
LINE
8
0
6
CONTINUOUS
10
-150.0
20
-7.0
30
0
11
0.0
21
-7.0
31
0
0
LINE
8
0
6
CONTINUOUS
10
0.0
20
-7.0
30
0
11
0.0
21
-6.0
31
0
0
LINE
8
0
6
CONTINUOUS
10
0.0
20
-6.0
30
0
11
-140.0
21
-6.0
31
0
0
LINE
8
0
6
CONTINUOUS
10
-140.0
20
-6.0
30
0
11
-140.0
21
6.0
31
0
0
LINE
8
0
6
CONTINUOUS
10
-140.0
20
6.0
30
0
11
0.0
21
6.0
31
0
0
LINE
8
0
6
CONTINUOUS
10
0.0
20
6.0
30
0
11
0.0
21
7.0
31
0
0
LINE
8
0
6
CONTINUOUS
10
0.0
20
7.0
30
0
11
-150.0
21
7.0
31
0
0
LINE
8
0
6
CONTINUOUS
10
0.0
20
7.0
30
0
11
-150.0
21
7.0
31
0
0
LINE
8
0
6
CONTINUOUS
10
0.0
20
5.0
30
0
11
-140.0
21
5.0
31
0
0
LINE
8
0
6
CONTINUOUS
10
-140.0
20
5.0
30
0
11
-140.0
21
-5.0
31
0
0
LINE
8
0
6
CONTINUOUS
10
-140.0
20
-5.0
30
0
11
0.0
21
-5.0
31
0
0
LINE
8
0
6
CONTINUOUS
10
16.0
20
7.5
30
0
11
16.0
21
-7.5
31
0
0
LINE
8
0
6
CONTINUOUS
10
0.0
20
7.0
30
0
11
0.0
21
5.0
31
0
0
LINE
8
0
6
CONTINUOUS
10
0.0
20
-6.25
30
0
11
0.0
21
-5.0
31
0
0
LINE
8
0
6
CONTINUOUS
10
-137.44
20
-6.0
30
0
11
-140.07
21
-6.0
31
0
0
LINE
8
0
6
CONTINUOUS
10
-137.44
20
6.0
30
0
11
-140.07
21
6.0
31
0
0
LINE
8
0
6
CONTINUOUS
10
-140.0
20
-6.0
30
0
11
-140.0
21
6.0
31
0
0
LINE
8
0
6
CONTINUOUS
10
-140.07
20
-0.0
30
0
11
-137.44
21
-0.0
31
0
0
LINE
8
0
6
CONTINUOUS
10
-140.07
20
-6.0
30
0
11
-137.44
21
6.0
31
0
0
ARC
8
0
6
CONTINUOUS
10
-139.2012498032419
20
7.17999963160182
30
0
40
2.12
50
270.0337775731749
51
326.1787620684297
0
ARC
8
0
6
CONTINUOUS
10
-138.3087501967581
20
-7.17999963160182
30
0
40
2.12
50
90.03377757317489
51
146.1787620684297
0
LINE
8
0
6
CONTINUOUS
10
0.0
20
-6.0
30
0
11
-2.63
21
-6.0
31
0
0
LINE
8
0
6
CONTINUOUS
10
0.0
20
6.0
30
0
11
-2.63
21
6.0
31
0
0
LINE
8
0
6
CONTINUOUS
10
-2.56
20
-6.0
30
0
11
-2.56
21
6.0
31
0
0
LINE
8
0
6
CONTINUOUS
10
-2.63
20
-0.0
30
0
11
0.0
21
-0.0
31
0
0
LINE
8
0
6
CONTINUOUS
10
-2.63
20
-6.0
30
0
11
0.0
21
6.0
31
0
0
ARC
8
0
6
CONTINUOUS
10
-1.761249803241882
20
7.17999963160182
30
0
40
2.12
50
270.0337775731743
51
326.1787620684295
0
ARC
8
0
6
CONTINUOUS
10
-0.8687501967581179
20
-7.17999963160182
30
0
40
2.12
50
90.03377757317428
51
146.1787620684295
0
LINE
8
0
6
CONTINUOUS
10
-135.94
20
-6.0
30
0
11
-138.58
21
-6.0
31
0
0
LINE
8
0
6
CONTINUOUS
10
-135.94
20
6.0
30
0
11
-138.58
21
6.0
31
0
0
LINE
8
0
6
CONTINUOUS
10
-138.51
20
-6.0
30
0
11
-138.51
21
6.0
31
0
0
LINE
8
0
6
CONTINUOUS
10
-138.58
20
-0.0
30
0
11
-135.94
21
-0.0
31
0
0
LINE
8
0
6
CONTINUOUS
10
-138.58
20
-6.0
30
0
11
-135.94
21
6.0
31
0
0
ARC
8
0
6
CONTINUOUS
10
-137.7012498032419
20
7.17999963160182
30
0
40
2.12
50
270.0337775731749
51
326.1787620684297
0
ARC
8
0
6
CONTINUOUS
10
-136.81873837783783
20
-7.1799819906670805
30
0
40
2.12
50
89.76383321337994
51
146.17933594938273
0
LINE
8
0
6
CONTINUOUS
10
-134.45
20
-6.0
30
0
11
-137.08
21
-6.0
31
0
0
LINE
8
0
6
CONTINUOUS
10
-134.45
20
6.0
30
0
11
-137.08
21
6.0
31
0
0
LINE
8
0
6
CONTINUOUS
10
-137.01
20
-6.0
30
0
11
-137.01
21
6.0
31
0
0
LINE
8
0
6
CONTINUOUS
10
-137.08
20
-0.0
30
0
11
-134.45
21
-0.0
31
0
0
LINE
8
0
6
CONTINUOUS
10
-137.08
20
-6.0
30
0
11
-134.45
21
6.0
31
0
0
ARC
8
0
6
CONTINUOUS
10
-136.21124980324186
20
7.17999963160182
30
0
40
2.12
50
270.0337775731733
51
326.17876206842925
0
ARC
8
0
6
CONTINUOUS
10
-135.31875019675812
20
-7.17999963160182
30
0
40
2.12
50
90.03377757317413
51
146.1787620684297
0
LINE
8
0
6
CONTINUOUS
10
-132.95
20
-6.0
30
0
11
-135.59
21
-6.0
31
0
0
LINE
8
0
6
CONTINUOUS
10
-132.95
20
6.0
30
0
11
-135.59
21
6.0
31
0
0
LINE
8
0
6
CONTINUOUS
10
-135.52
20
-6.0
30
0
11
-135.52
21
6.0
31
0
0
LINE
8
0
6
CONTINUOUS
10
-135.59
20
-0.0
30
0
11
-132.95
21
-0.0
31
0
0
LINE
8
0
6
CONTINUOUS
10
-135.59
20
-6.0
30
0
11
-132.95
21
6.0
31
0
0
ARC
8
0
6
CONTINUOUS
10
-134.71126162216214
20
7.1799819906670805
30
0
40
2.12
50
269.76383321337914
51
326.1793359493823
0
ARC
8
0
6
CONTINUOUS
10
-133.8287501967581
20
-7.17999963160182
30
0
40
2.12
50
90.03377757317489
51
146.1787620684297
0
LINE
8
0
6
CONTINUOUS
10
-131.46
20
-6.0
30
0
11
-134.09
21
-6.0
31
0
0
LINE
8
0
6
CONTINUOUS
10
-131.46
20
6.0
30
0
11
-134.09
21
6.0
31
0
0
LINE
8
0
6
CONTINUOUS
10
-134.02
20
-6.0
30
0
11
-134.02
21
6.0
31
0
0
LINE
8
0
6
CONTINUOUS
10
-134.09
20
-0.0
30
0
11
-131.46
21
-0.0
31
0
0
LINE
8
0
6
CONTINUOUS
10
-134.09
20
-6.0
30
0
11
-131.46
21
6.0
31
0
0
ARC
8
0
6
CONTINUOUS
10
-133.2212498032419
20
7.17999963160182
30
0
40
2.12
50
270.0337775731749
51
326.1787620684297
0
ARC
8
0
6
CONTINUOUS
10
-132.3287501967581
20
-7.17999963160182
30
0
40
2.12
50
90.03377757317489
51
146.1787620684297
0
LINE
8
0
6
CONTINUOUS
10
-129.97
20
-6.0
30
0
11
-132.6
21
-6.0
31
0
0
LINE
8
0
6
CONTINUOUS
10
-129.97
20
6.0
30
0
11
-132.6
21
6.0
31
0
0
LINE
8
0
6
CONTINUOUS
10
-132.53
20
-6.0
30
0
11
-132.53
21
6.0
31
0
0
LINE
8
0
6
CONTINUOUS
10
-132.6
20
-0.0
30
0
11
-129.97
21
-0.0
31
0
0
LINE
8
0
6
CONTINUOUS
10
-132.6
20
-6.0
30
0
11
-129.97
21
6.0
31
0
0
ARC
8
0
6
CONTINUOUS
10
-131.7312498032419
20
7.17999963160182
30
0
40
2.12
50
270.0337775731749
51
326.1787620684297
0
ARC
8
0
6
CONTINUOUS
10
-130.8387501967581
20
-7.17999963160182
30
0
40
2.12
50
90.03377757317489
51
146.1787620684297
0
LINE
8
0
6
CONTINUOUS
10
-128.47
20
-6.0
30
0
11
-131.11
21
-6.0
31
0
0
LINE
8
0
6
CONTINUOUS
10
-128.47
20
6.0
30
0
11
-131.11
21
6.0
31
0
0
LINE
8
0
6
CONTINUOUS
10
-131.04
20
-6.0
30
0
11
-131.04
21
6.0
31
0
0
LINE
8
0
6
CONTINUOUS
10
-131.11
20
-0.0
30
0
11
-128.47
21
-0.0
31
0
0
LINE
8
0
6
CONTINUOUS
10
-131.11
20
-6.0
30
0
11
-128.47
21
6.0
31
0
0
ARC
8
0
6
CONTINUOUS
10
-130.2312498032419
20
7.17999963160182
30
0
40
2.12
50
270.0337775731749
51
326.1787620684297
0
ARC
8
0
6
CONTINUOUS
10
-129.34873837783786
20
-7.1799819906670805
30
0
40
2.12
50
89.76383321337919
51
146.1793359493823
0
LINE
8
0
6
CONTINUOUS
10
-126.98
20
-6.0
30
0
11
-129.61
21
-6.0
31
0
0
LINE
8
0
6
CONTINUOUS
10
-126.98
20
6.0
30
0
11
-129.61
21
6.0
31
0
0
LINE
8
0
6
CONTINUOUS
10
-129.54
20
-6.0
30
0
11
-129.54
21
6.0
31
0
0
LINE
8
0
6
CONTINUOUS
10
-129.61
20
-0.0
30
0
11
-126.98
21
-0.0
31
0
0
LINE
8
0
6
CONTINUOUS
10
-129.61
20
-6.0
30
0
11
-126.98
21
6.0
31
0
0
ARC
8
0
6
CONTINUOUS
10
-128.74124980324189
20
7.17999963160182
30
0
40
2.12
50
270.0337775731741
51
326.1787620684295
0
ARC
8
0
6
CONTINUOUS
10
-127.84875019675815
20
-7.17999963160182
30
0
40
2.12
50
90.03377757317335
51
146.17876206842928
0
LINE
8
0
6
CONTINUOUS
10
-125.48
20
-6.0
30
0
11
-128.12
21
-6.0
31
0
0
LINE
8
0
6
CONTINUOUS
10
-125.48
20
6.0
30
0
11
-128.12
21
6.0
31
0
0
LINE
8
0
6
CONTINUOUS
10
-128.05
20
-6.0
30
0
11
-128.05
21
6.0
31
0
0
LINE
8
0
6
CONTINUOUS
10
-128.12
20
-0.0
30
0
11
-125.48
21
-0.0
31
0
0
LINE
8
0
6
CONTINUOUS
10
-128.12
20
-6.0
30
0
11
-125.48
21
6.0
31
0
0
ARC
8
0
6
CONTINUOUS
10
-127.24126162216218
20
7.179981990667081
30
0
40
2.12
50
269.76383321338034
51
326.1793359493827
0
ARC
8
0
6
CONTINUOUS
10
-126.35875019675812
20
-7.17999963160182
30
0
40
2.12
50
90.03377757317413
51
146.17876206842948
0
LINE
8
0
6
CONTINUOUS
10
-123.99
20
-6.0
30
0
11
-126.62
21
-6.0
31
0
0
LINE
8
0
6
CONTINUOUS
10
-123.99
20
6.0
30
0
11
-126.62
21
6.0
31
0
0
LINE
8
0
6
CONTINUOUS
10
-126.56
20
-6.0
30
0
11
-126.56
21
6.0
31
0
0
LINE
8
0
6
CONTINUOUS
10
-126.62
20
-0.0
30
0
11
-123.99
21
-0.0
31
0
0
LINE
8
0
6
CONTINUOUS
10
-126.62
20
-6.0
30
0
11
-123.99
21
6.0
31
0
0
ARC
8
0
6
CONTINUOUS
10
-125.75124980324189
20
7.17999963160182
30
0
40
2.12
50
270.0337775731745
51
326.1787620684297
0
ARC
8
0
6
CONTINUOUS
10
-124.85875019675812
20
-7.17999963160182
30
0
40
2.12
50
90.03377757317413
51
146.17876206842948
0
LINE
8
0
6
CONTINUOUS
10
-122.5
20
-6.0
30
0
11
-125.13
21
-6.0
31
0
0
LINE
8
0
6
CONTINUOUS
10
-122.5
20
6.0
30
0
11
-125.13
21
6.0
31
0
0
LINE
8
0
6
CONTINUOUS
10
-125.06
20
-6.0
30
0
11
-125.06
21
6.0
31
0
0
LINE
8
0
6
CONTINUOUS
10
-125.13
20
-0.0
30
0
11
-122.5
21
-0.0
31
0
0
LINE
8
0
6
CONTINUOUS
10
-125.13
20
-6.0
30
0
11
-122.5
21
6.0
31
0
0
ARC
8
0
6
CONTINUOUS
10
-124.26124980324188
20
7.17999963160182
30
0
40
2.12
50
270.0337775731741
51
326.1787620684295
0
ARC
8
0
6
CONTINUOUS
10
-123.36875019675811
20
-7.17999963160182
30
0
40
2.12
50
90.0337775731745
51
146.17876206842948
0
LINE
8
0
6
CONTINUOUS
10
-121.0
20
-6.0
30
0
11
-123.64
21
-6.0
31
0
0
LINE
8
0
6
CONTINUOUS
10
-121.0
20
6.0
30
0
11
-123.64
21
6.0
31
0
0
LINE
8
0
6
CONTINUOUS
10
-123.57
20
-6.0
30
0
11
-123.57
21
6.0
31
0
0
LINE
8
0
6
CONTINUOUS
10
-123.64
20
-0.0
30
0
11
-121.0
21
-0.0
31
0
0
LINE
8
0
6
CONTINUOUS
10
-123.64
20
-6.0
30
0
11
-121.0
21
6.0
31
0
0
ARC
8
0
6
CONTINUOUS
10
-122.76124980324188
20
7.17999963160182
30
0
40
2.12
50
270.0337775731741
51
326.1787620684295
0
ARC
8
0
6
CONTINUOUS
10
-121.8787501967581
20
-7.17999963160182
30
0
40
2.12
50
90.0337775731745
51
146.1787620684297
0
LINE
8
0
6
CONTINUOUS
10
-119.51
20
-6.0
30
0
11
-122.14
21
-6.0
31
0
0
LINE
8
0
6
CONTINUOUS
10
-119.51
20
6.0
30
0
11
-122.14
21
6.0
31
0
0
LINE
8
0
6
CONTINUOUS
10
-122.07
20
-6.0
30
0
11
-122.07
21
6.0
31
0
0
LINE
8
0
6
CONTINUOUS
10
-122.14
20
-0.0
30
0
11
-119.51
21
-0.0
31
0
0
LINE
8
0
6
CONTINUOUS
10
-122.14
20
-6.0
30
0
11
-119.51
21
6.0
31
0
0
ARC
8
0
6
CONTINUOUS
10
-121.27124980324189
20
7.17999963160182
30
0
40
2.12
50
270.0337775731745
51
326.1787620684295
0
ARC
8
0
6
CONTINUOUS
10
-120.3787501967581
20
-7.17999963160182
30
0
40
2.12
50
90.0337775731745
51
146.1787620684297
0
LINE
8
0
6
CONTINUOUS
10
-118.02
20
-6.0
30
0
11
-120.65
21
-6.0
31
0
0
LINE
8
0
6
CONTINUOUS
10
-118.02
20
6.0
30
0
11
-120.65
21
6.0
31
0
0
LINE
8
0
6
CONTINUOUS
10
-120.58
20
-6.0
30
0
11
-120.58
21
6.0
31
0
0
LINE
8
0
6
CONTINUOUS
10
-120.65
20
-0.0
30
0
11
-118.02
21
-0.0
31
0
0
LINE
8
0
6
CONTINUOUS
10
-120.65
20
-6.0
30
0
11
-118.02
21
6.0
31
0
0
ARC
8
0
6
CONTINUOUS
10
-119.78124980324189
20
7.17999963160182
30
0
40
2.12
50
270.0337775731745
51
326.1787620684297
0
ARC
8
0
6
CONTINUOUS
10
-118.88875019675812
20
-7.17999963160182
30
0
40
2.12
50
90.03377757317413
51
146.17876206842948
0
LINE
8
0
6
CONTINUOUS
10
-116.52
20
-6.0
30
0
11
-119.16
21
-6.0
31
0
0
LINE
8
0
6
CONTINUOUS
10
-116.52
20
6.0
30
0
11
-119.16
21
6.0
31
0
0
LINE
8
0
6
CONTINUOUS
10
-119.09
20
-6.0
30
0
11
-119.09
21
6.0
31
0
0
LINE
8
0
6
CONTINUOUS
10
-119.16
20
-0.0
30
0
11
-116.52
21
-0.0
31
0
0
LINE
8
0
6
CONTINUOUS
10
-119.16
20
-6.0
30
0
11
-116.52
21
6.0
31
0
0
ARC
8
0
6
CONTINUOUS
10
-118.28124980324189
20
7.17999963160182
30
0
40
2.12
50
270.0337775731745
51
326.1787620684297
0
ARC
8
0
6
CONTINUOUS
10
-117.39873837783783
20
-7.179981990667081
30
0
40
2.12
50
89.76383321337994
51
146.17933594938248
0
LINE
8
0
6
CONTINUOUS
10
-115.03
20
-6.0
30
0
11
-117.66
21
-6.0
31
0
0
LINE
8
0
6
CONTINUOUS
10
-115.03
20
6.0
30
0
11
-117.66
21
6.0
31
0
0
LINE
8
0
6
CONTINUOUS
10
-117.59
20
-6.0
30
0
11
-117.59
21
6.0
31
0
0
LINE
8
0
6
CONTINUOUS
10
-117.66
20
-0.0
30
0
11
-115.03
21
-0.0
31
0
0
LINE
8
0
6
CONTINUOUS
10
-117.66
20
-6.0
30
0
11
-115.03
21
6.0
31
0
0
ARC
8
0
6
CONTINUOUS
10
-116.79124980324188
20
7.17999963160182
30
0
40
2.12
50
270.0337775731741
51
326.1787620684295
0
ARC
8
0
6
CONTINUOUS
10
-115.89875019675812
20
-7.17999963160182
30
0
40
2.12
50
90.0337775731745
51
146.17876206842948
0
LINE
8
0
6
CONTINUOUS
10
-113.53
20
-6.0
30
0
11
-116.17
21
-6.0
31
0
0
LINE
8
0
6
CONTINUOUS
10
-113.53
20
6.0
30
0
11
-116.17
21
6.0
31
0
0
LINE
8
0
6
CONTINUOUS
10
-116.1
20
-6.0
30
0
11
-116.1
21
6.0
31
0
0
LINE
8
0
6
CONTINUOUS
10
-116.17
20
-0.0
30
0
11
-113.53
21
-0.0
31
0
0
LINE
8
0
6
CONTINUOUS
10
-116.17
20
-6.0
30
0
11
-113.53
21
6.0
31
0
0
ARC
8
0
6
CONTINUOUS
10
-115.29126162216217
20
7.179981990667081
30
0
40
2.12
50
269.76383321337994
51
326.1793359493825
0
ARC
8
0
6
CONTINUOUS
10
-114.4087501967581
20
-7.17999963160182
30
0
40
2.12
50
90.0337775731745
51
146.1787620684297
0
LINE
8
0
6
CONTINUOUS
10
-112.04
20
-6.0
30
0
11
-114.67
21
-6.0
31
0
0
LINE
8
0
6
CONTINUOUS
10
-112.04
20
6.0
30
0
11
-114.67
21
6.0
31
0
0
LINE
8
0
6
CONTINUOUS
10
-114.6
20
-6.0
30
0
11
-114.6
21
6.0
31
0
0
LINE
8
0
6
CONTINUOUS
10
-114.67
20
-0.0
30
0
11
-112.04
21
-0.0
31
0
0
LINE
8
0
6
CONTINUOUS
10
-114.67
20
-6.0
30
0
11
-112.04
21
6.0
31
0
0
ARC
8
0
6
CONTINUOUS
10
-113.80124980324189
20
7.17999963160182
30
0
40
2.12
50
270.0337775731745
51
326.1787620684295
0
ARC
8
0
6
CONTINUOUS
10
-112.9087501967581
20
-7.17999963160182
30
0
40
2.12
50
90.0337775731745
51
146.1787620684297
0
LINE
8
0
6
CONTINUOUS
10
-110.55
20
-6.0
30
0
11
-113.18
21
-6.0
31
0
0
LINE
8
0
6
CONTINUOUS
10
-110.55
20
6.0
30
0
11
-113.18
21
6.0
31
0
0
LINE
8
0
6
CONTINUOUS
10
-113.11
20
-6.0
30
0
11
-113.11
21
6.0
31
0
0
LINE
8
0
6
CONTINUOUS
10
-113.18
20
-0.0
30
0
11
-110.55
21
-0.0
31
0
0
LINE
8
0
6
CONTINUOUS
10
-113.18
20
-6.0
30
0
11
-110.55
21
6.0
31
0
0
ARC
8
0
6
CONTINUOUS
10
-112.31124980324189
20
7.17999963160182
30
0
40
2.12
50
270.0337775731745
51
326.1787620684297
0
ARC
8
0
6
CONTINUOUS
10
-111.41875019675813
20
-7.17999963160182
30
0
40
2.12
50
90.03377757317413
51
146.17876206842948
0
LINE
8
0
6
CONTINUOUS
10
-109.05
20
-6.0
30
0
11
-111.69
21
-6.0
31
0
0
LINE
8
0
6
CONTINUOUS
10
-109.05
20
6.0
30
0
11
-111.69
21
6.0
31
0
0
LINE
8
0
6
CONTINUOUS
10
-111.62
20
-6.0
30
0
11
-111.62
21
6.0
31
0
0
LINE
8
0
6
CONTINUOUS
10
-111.69
20
-0.0
30
0
11
-109.05
21
-0.0
31
0
0
LINE
8
0
6
CONTINUOUS
10
-111.69
20
-6.0
30
0
11
-109.05
21
6.0
31
0
0
ARC
8
0
6
CONTINUOUS
10
-110.81124980324189
20
7.17999963160182
30
0
40
2.12
50
270.0337775731745
51
326.1787620684297
0
ARC
8
0
6
CONTINUOUS
10
-109.92873837783783
20
-7.179981990667081
30
0
40
2.12
50
89.76383321337994
51
146.17933594938248
0
LINE
8
0
6
CONTINUOUS
10
-107.56
20
-6.0
30
0
11
-110.19
21
-6.0
31
0
0
LINE
8
0
6
CONTINUOUS
10
-107.56
20
6.0
30
0
11
-110.19
21
6.0
31
0
0
LINE
8
0
6
CONTINUOUS
10
-110.12
20
-6.0
30
0
11
-110.12
21
6.0
31
0
0
LINE
8
0
6
CONTINUOUS
10
-110.19
20
-0.0
30
0
11
-107.56
21
-0.0
31
0
0
LINE
8
0
6
CONTINUOUS
10
-110.19
20
-6.0
30
0
11
-107.56
21
6.0
31
0
0
ARC
8
0
6
CONTINUOUS
10
-109.32124980324188
20
7.17999963160182
30
0
40
2.12
50
270.0337775731745
51
326.1787620684295
0
ARC
8
0
6
CONTINUOUS
10
-108.42875019675812
20
-7.17999963160182
30
0
40
2.12
50
90.0337775731745
51
146.17876206842948
0
LINE
8
0
6
CONTINUOUS
10
-106.06
20
-6.0
30
0
11
-108.7
21
-6.0
31
0
0
LINE
8
0
6
CONTINUOUS
10
-106.06
20
6.0
30
0
11
-108.7
21
6.0
31
0
0
LINE
8
0
6
CONTINUOUS
10
-108.63
20
-6.0
30
0
11
-108.63
21
6.0
31
0
0
LINE
8
0
6
CONTINUOUS
10
-108.7
20
-0.0
30
0
11
-106.06
21
-0.0
31
0
0
LINE
8
0
6
CONTINUOUS
10
-108.7
20
-6.0
30
0
11
-106.06
21
6.0
31
0
0
ARC
8
0
6
CONTINUOUS
10
-107.82126162216217
20
7.179981990667081
30
0
40
2.12
50
269.76383321337994
51
326.1793359493825
0
ARC
8
0
6
CONTINUOUS
10
-106.93875019675811
20
-7.17999963160182
30
0
40
2.12
50
90.0337775731745
51
146.1787620684297
0
LINE
8
0
6
CONTINUOUS
10
-104.57
20
-6.0
30
0
11
-107.2
21
-6.0
31
0
0
LINE
8
0
6
CONTINUOUS
10
-104.57
20
6.0
30
0
11
-107.2
21
6.0
31
0
0
LINE
8
0
6
CONTINUOUS
10
-107.13
20
-6.0
30
0
11
-107.13
21
6.0
31
0
0
LINE
8
0
6
CONTINUOUS
10
-107.2
20
-0.0
30
0
11
-104.57
21
-0.0
31
0
0
LINE
8
0
6
CONTINUOUS
10
-107.2
20
-6.0
30
0
11
-104.57
21
6.0
31
0
0
ARC
8
0
6
CONTINUOUS
10
-106.33124980324187
20
7.17999963160182
30
0
40
2.12
50
270.0337775731741
51
326.1787620684295
0
ARC
8
0
6
CONTINUOUS
10
-105.43875019675811
20
-7.17999963160182
30
0
40
2.12
50
90.0337775731745
51
146.1787620684297
0
LINE
8
0
6
CONTINUOUS
10
-103.08
20
-6.0
30
0
11
-105.71
21
-6.0
31
0
0
LINE
8
0
6
CONTINUOUS
10
-103.08
20
6.0
30
0
11
-105.71
21
6.0
31
0
0
LINE
8
0
6
CONTINUOUS
10
-105.64
20
-6.0
30
0
11
-105.64
21
6.0
31
0
0
LINE
8
0
6
CONTINUOUS
10
-105.71
20
-0.0
30
0
11
-103.08
21
-0.0
31
0
0
LINE
8
0
6
CONTINUOUS
10
-105.71
20
-6.0
30
0
11
-103.08
21
6.0
31
0
0
ARC
8
0
6
CONTINUOUS
10
-104.8412498032419
20
7.17999963160182
30
0
40
2.12
50
270.0337775731745
51
326.1787620684297
0
ARC
8
0
6
CONTINUOUS
10
-103.94875019675811
20
-7.17999963160182
30
0
40
2.12
50
90.0337775731745
51
146.17876206842948
0
LINE
8
0
6
CONTINUOUS
10
-101.58
20
-6.0
30
0
11
-104.22
21
-6.0
31
0
0
LINE
8
0
6
CONTINUOUS
10
-101.58
20
6.0
30
0
11
-104.22
21
6.0
31
0
0
LINE
8
0
6
CONTINUOUS
10
-104.15
20
-6.0
30
0
11
-104.15
21
6.0
31
0
0
LINE
8
0
6
CONTINUOUS
10
-104.22
20
-0.0
30
0
11
-101.58
21
-0.0
31
0
0
LINE
8
0
6
CONTINUOUS
10
-104.22
20
-6.0
30
0
11
-101.58
21
6.0
31
0
0
ARC
8
0
6
CONTINUOUS
10
-103.3412498032419
20
7.17999963160182
30
0
40
2.12
50
270.0337775731745
51
326.1787620684297
0
ARC
8
0
6
CONTINUOUS
10
-102.45873837783783
20
-7.179981990667081
30
0
40
2.12
50
89.76383321337994
51
146.17933594938248
0
LINE
8
0
6
CONTINUOUS
10
-100.09
20
-6.0
30
0
11
-102.72
21
-6.0
31
0
0
LINE
8
0
6
CONTINUOUS
10
-100.09
20
6.0
30
0
11
-102.72
21
6.0
31
0
0
LINE
8
0
6
CONTINUOUS
10
-102.65
20
-6.0
30
0
11
-102.65
21
6.0
31
0
0
LINE
8
0
6
CONTINUOUS
10
-102.72
20
-0.0
30
0
11
-100.09
21
-0.0
31
0
0
LINE
8
0
6
CONTINUOUS
10
-102.72
20
-6.0
30
0
11
-100.09
21
6.0
31
0
0
ARC
8
0
6
CONTINUOUS
10
-101.85124980324188
20
7.17999963160182
30
0
40
2.12
50
270.0337775731745
51
326.1787620684295
0
ARC
8
0
6
CONTINUOUS
10
-100.95875019675812
20
-7.17999963160182
30
0
40
2.12
50
90.03377757317413
51
146.17876206842948
0
LINE
8
0
6
CONTINUOUS
10
-98.6
20
-6.0
30
0
11
-101.23
21
-6.0
31
0
0
LINE
8
0
6
CONTINUOUS
10
-98.6
20
6.0
30
0
11
-101.23
21
6.0
31
0
0
LINE
8
0
6
CONTINUOUS
10
-101.16
20
-6.0
30
0
11
-101.16
21
6.0
31
0
0
LINE
8
0
6
CONTINUOUS
10
-101.23
20
-0.0
30
0
11
-98.6
21
-0.0
31
0
0
LINE
8
0
6
CONTINUOUS
10
-101.23
20
-6.0
30
0
11
-98.6
21
6.0
31
0
0
ARC
8
0
6
CONTINUOUS
10
-100.36124980324188
20
7.17999963160182
30
0
40
2.12
50
270.0337775731741
51
326.1787620684295
0
ARC
8
0
6
CONTINUOUS
10
-99.46875019675811
20
-7.17999963160182
30
0
40
2.12
50
90.0337775731745
51
146.1787620684297
0
LINE
8
0
6
CONTINUOUS
10
-97.1
20
-6.0
30
0
11
-99.73
21
-6.0
31
0
0
LINE
8
0
6
CONTINUOUS
10
-97.1
20
6.0
30
0
11
-99.73
21
6.0
31
0
0
LINE
8
0
6
CONTINUOUS
10
-99.67
20
-6.0
30
0
11
-99.67
21
6.0
31
0
0
LINE
8
0
6
CONTINUOUS
10
-99.73
20
-0.0
30
0
11
-97.1
21
-0.0
31
0
0
LINE
8
0
6
CONTINUOUS
10
-99.73
20
-6.0
30
0
11
-97.1
21
6.0
31
0
0
ARC
8
0
6
CONTINUOUS
10
-98.86124980324188
20
7.17999963160182
30
0
40
2.12
50
270.0337775731741
51
326.1787620684295
0
ARC
8
0
6
CONTINUOUS
10
-97.96875019675811
20
-7.17999963160182
30
0
40
2.12
50
90.0337775731745
51
146.1787620684297
0
LINE
8
0
6
CONTINUOUS
10
19.26
20
-6.0
30
0
11
16.62
21
-6.0
31
0
0
LINE
8
0
6
CONTINUOUS
10
19.26
20
6.0
30
0
11
16.62
21
6.0
31
0
0
LINE
8
0
6
CONTINUOUS
10
16.69
20
-6.0
30
0
11
16.69
21
6.0
31
0
0
LINE
8
0
6
CONTINUOUS
10
16.62
20
-0.0
30
0
11
19.26
21
-0.0
31
0
0
LINE
8
0
6
CONTINUOUS
10
16.62
20
-6.0
30
0
11
19.26
21
6.0
31
0
0
ARC
8
0
6
CONTINUOUS
10
17.49875019675812
20
7.17999963160182
30
0
40
2.12
50
270.03377757317423
51
326.1787620684295
0
ARC
8
0
6
CONTINUOUS
10
18.38126162216218
20
-7.179981990667081
30
0
40
2.12
50
89.76383321338024
51
146.1793359493827
0
LINE
8
0
6
CONTINUOUS
10
10.0
20
7.5
30
0
11
10.0
21
-7.5
31
0
0
ARC
8
0
6
CONTINUOUS
10
14.0
20
7.5
30
0
40
2.0
50
0.0
51
90.0
0
ARC
8
0
6
CONTINUOUS
10
14.0
20
-7.5
30
0
40
2.0
50
270.0
51
0.0
0
ARC
8
0
6
CONTINUOUS
10
14.0
20
-2.75
30
0
40
2.0
50
270.0
51
0.0
0
ARC
8
0
6
CONTINUOUS
10
14.0
20
6.75
30
0
40
2.0
50
270.0
51
0.0
0
LINE
8
0
6
CONTINUOUS
10
-140.0
20
-5.0
30
0
11
-140.0
21
5.0
31
0
0
LINE
8
0
6
CONTINUOUS
10
16.0
20
5.0
30
0
11
23.66
21
5.0
31
0
0
LINE
8
0
6
CONTINUOUS
10
16.0
20
-5.0
30
0
11
23.66
21
-5.0
31
0
0
LINE
8
0
6
CONTINUOUS
10
23.66
20
5.0
30
0
11
23.66
21
-5.0
31
0
0
LINE
8
0
6
CONTINUOUS
10
23.66
20
3.75
30
0
11
27.47
21
3.75
31
0
0
LINE
8
0
6
CONTINUOUS
10
23.66
20
-3.75
30
0
11
27.47
21
-3.75
31
0
0
LINE
8
0
6
CONTINUOUS
10
27.47
20
3.75
30
0
11
27.47
21
-3.75
31
0
0
ARC
8
0
6
CONTINUOUS
10
14.0
20
2.75
30
0
40
2.0
50
0.0
51
90.0
0
ARC
8
0
6
CONTINUOUS
10
14.0
20
-6.75
30
0
40
2.0
50
0.0
51
90.0
0
LINE
8
0
6
CONTINUOUS
10
12.0
20
9.5
30
0
11
14.0
21
9.5
31
0
0
LINE
8
0
6
CONTINUOUS
10
12.0
20
4.75
30
0
11
14.0
21
4.75
31
0
0
LINE
8
0
6
CONTINUOUS
10
12.0
20
-4.75
30
0
11
14.0
21
-4.75
31
0
0
LINE
8
0
6
CONTINUOUS
10
12.0
20
-9.5
30
0
11
14.0
21
-9.5
31
0
0
LINE
8
0
6
CONTINUOUS
10
23.66
20
-0.0
30
0
11
27.47
21
-0.0
31
0
0
ARC
8
0
6
CONTINUOUS
10
12.0
20
7.5
30
0
40
2.0
50
90.0
51
180.0
0
ARC
8
0
6
CONTINUOUS
10
12.0
20
-7.5
30
0
40
2.0
50
180.0
51
270.0
0
ARC
8
0
6
CONTINUOUS
10
12.0
20
6.75
30
0
40
2.0
50
180.0
51
270.0
0
ARC
8
0
6
CONTINUOUS
10
12.0
20
2.75
30
0
40
2.0
50
90.0
51
180.0
0
ARC
8
0
6
CONTINUOUS
10
12.0
20
-2.75
30
0
40
2.0
50
180.0
51
270.0
0
ARC
8
0
6
CONTINUOUS
10
12.0
20
-6.75
30
0
40
2.0
50
90.0
51
180.0
0
LINE
8
0
6
CONTINUOUS
10
23.87
20
-6.0
30
0
11
21.24
21
-6.0
31
0
0
LINE
8
0
6
CONTINUOUS
10
23.87
20
6.0
30
0
11
21.24
21
6.0
31
0
0
LINE
8
0
6
CONTINUOUS
10
21.31
20
-6.0
30
0
11
21.31
21
6.0
31
0
0
LINE
8
0
6
CONTINUOUS
10
21.24
20
-0.0
30
0
11
23.87
21
-0.0
31
0
0
LINE
8
0
6
CONTINUOUS
10
21.24
20
-6.0
30
0
11
23.87
21
6.0
31
0
0
ARC
8
0
6
CONTINUOUS
10
22.10875019675812
20
7.17999963160182
30
0
40
2.12
50
270.03377757317423
51
326.1787620684295
0
ARC
8
0
6
CONTINUOUS
10
23.00124980324188
20
-7.17999963160182
30
0
40
2.12
50
90.03377757317422
51
146.17876206842948
0
LINE
8
0
6
CONTINUOUS
10
-95.61
20
-6.0
30
0
11
-98.24
21
-6.0
31
0
0
LINE
8
0
6
CONTINUOUS
10
-95.61
20
6.0
30
0
11
-98.24
21
6.0
31
0
0
LINE
8
0
6
CONTINUOUS
10
-98.17
20
-6.0
30
0
11
-98.17
21
6.0
31
0
0
LINE
8
0
6
CONTINUOUS
10
-98.24
20
-0.0
30
0
11
-95.61
21
-0.0
31
0
0
LINE
8
0
6
CONTINUOUS
10
-98.24
20
-6.0
30
0
11
-95.61
21
6.0
31
0
0
ARC
8
0
6
CONTINUOUS
10
-97.3712498032419
20
7.17999963160182
30
0
40
2.12
50
270.0337775731745
51
326.1787620684297
0
ARC
8
0
6
CONTINUOUS
10
-96.47875019675811
20
-7.17999963160182
30
0
40
2.12
50
90.0337775731745
51
146.17876206842948
0
LINE
8
0
6
CONTINUOUS
10
-94.11
20
-6.0
30
0
11
-96.75
21
-6.0
31
0
0
LINE
8
0
6
CONTINUOUS
10
-94.11
20
6.0
30
0
11
-96.75
21
6.0
31
0
0
LINE
8
0
6
CONTINUOUS
10
-96.68
20
-6.0
30
0
11
-96.68
21
6.0
31
0
0
LINE
8
0
6
CONTINUOUS
10
-96.75
20
-0.0
30
0
11
-94.11
21
-0.0
31
0
0
LINE
8
0
6
CONTINUOUS
10
-96.75
20
-6.0
30
0
11
-94.11
21
6.0
31
0
0
ARC
8
0
6
CONTINUOUS
10
-95.87126162216218
20
7.179981990667081
30
0
40
2.12
50
269.76383321338034
51
326.1793359493827
0
ARC
8
0
6
CONTINUOUS
10
-94.98875019675812
20
-7.17999963160182
30
0
40
2.12
50
90.03377757317413
51
146.17876206842948
0
LINE
8
0
6
CONTINUOUS
10
-92.62
20
-6.0
30
0
11
-95.25
21
-6.0
31
0
0
LINE
8
0
6
CONTINUOUS
10
-92.62
20
6.0
30
0
11
-95.25
21
6.0
31
0
0
LINE
8
0
6
CONTINUOUS
10
-95.18
20
-6.0
30
0
11
-95.18
21
6.0
31
0
0
LINE
8
0
6
CONTINUOUS
10
-95.25
20
-0.0
30
0
11
-92.62
21
-0.0
31
0
0
LINE
8
0
6
CONTINUOUS
10
-95.25
20
-6.0
30
0
11
-92.62
21
6.0
31
0
0
ARC
8
0
6
CONTINUOUS
10
-94.38124980324189
20
7.17999963160182
30
0
40
2.12
50
270.0337775731745
51
326.1787620684295
0
ARC
8
0
6
CONTINUOUS
10
-93.48875019675812
20
-7.17999963160182
30
0
40
2.12
50
90.03377757317413
51
146.17876206842948
0
LINE
8
0
6
CONTINUOUS
10
-91.13
20
-6.0
30
0
11
-93.76
21
-6.0
31
0
0
LINE
8
0
6
CONTINUOUS
10
-91.13
20
6.0
30
0
11
-93.76
21
6.0
31
0
0
LINE
8
0
6
CONTINUOUS
10
-93.69
20
-6.0
30
0
11
-93.69
21
6.0
31
0
0
LINE
8
0
6
CONTINUOUS
10
-93.76
20
-0.0
30
0
11
-91.13
21
-0.0
31
0
0
LINE
8
0
6
CONTINUOUS
10
-93.76
20
-6.0
30
0
11
-91.13
21
6.0
31
0
0
ARC
8
0
6
CONTINUOUS
10
-92.89124980324188
20
7.17999963160182
30
0
40
2.12
50
270.0337775731741
51
326.1787620684295
0
ARC
8
0
6
CONTINUOUS
10
-91.99875019675811
20
-7.17999963160182
30
0
40
2.12
50
90.0337775731745
51
146.1787620684297
0
LINE
8
0
6
CONTINUOUS
10
-89.63
20
-6.0
30
0
11
-92.27
21
-6.0
31
0
0
LINE
8
0
6
CONTINUOUS
10
-89.63
20
6.0
30
0
11
-92.27
21
6.0
31
0
0
LINE
8
0
6
CONTINUOUS
10
-92.2
20
-6.0
30
0
11
-92.2
21
6.0
31
0
0
LINE
8
0
6
CONTINUOUS
10
-92.27
20
-0.0
30
0
11
-89.63
21
-0.0
31
0
0
LINE
8
0
6
CONTINUOUS
10
-92.27
20
-6.0
30
0
11
-89.63
21
6.0
31
0
0
ARC
8
0
6
CONTINUOUS
10
-91.39124980324188
20
7.17999963160182
30
0
40
2.12
50
270.0337775731741
51
326.1787620684295
0
ARC
8
0
6
CONTINUOUS
10
-90.50873837783782
20
-7.179981990667081
30
0
40
2.12
50
89.76383321338032
51
146.1793359493827
0
LINE
8
0
6
CONTINUOUS
10
-88.14
20
-6.0
30
0
11
-90.77
21
-6.0
31
0
0
LINE
8
0
6
CONTINUOUS
10
-88.14
20
6.0
30
0
11
-90.77
21
6.0
31
0
0
LINE
8
0
6
CONTINUOUS
10
-90.7
20
-6.0
30
0
11
-90.7
21
6.0
31
0
0
LINE
8
0
6
CONTINUOUS
10
-90.77
20
-0.0
30
0
11
-88.14
21
-0.0
31
0
0
LINE
8
0
6
CONTINUOUS
10
-90.77
20
-6.0
30
0
11
-88.14
21
6.0
31
0
0
ARC
8
0
6
CONTINUOUS
10
-89.9012498032419
20
7.17999963160182
30
0
40
2.12
50
270.0337775731745
51
326.1787620684297
0
ARC
8
0
6
CONTINUOUS
10
-89.00875019675811
20
-7.17999963160182
30
0
40
2.12
50
90.0337775731745
51
146.17876206842948
0
LINE
8
0
6
CONTINUOUS
10
-86.64
20
-6.0
30
0
11
-89.28
21
-6.0
31
0
0
LINE
8
0
6
CONTINUOUS
10
-86.64
20
6.0
30
0
11
-89.28
21
6.0
31
0
0
LINE
8
0
6
CONTINUOUS
10
-89.21
20
-6.0
30
0
11
-89.21
21
6.0
31
0
0
LINE
8
0
6
CONTINUOUS
10
-89.28
20
-0.0
30
0
11
-86.64
21
-0.0
31
0
0
LINE
8
0
6
CONTINUOUS
10
-89.28
20
-6.0
30
0
11
-86.64
21
6.0
31
0
0
ARC
8
0
6
CONTINUOUS
10
-88.40126162216218
20
7.179981990667081
30
0
40
2.12
50
269.76383321338034
51
326.1793359493827
0
ARC
8
0
6
CONTINUOUS
10
-87.51875019675812
20
-7.17999963160182
30
0
40
2.12
50
90.03377757317413
51
146.17876206842948
0
LINE
8
0
6
CONTINUOUS
10
-85.15
20
-6.0
30
0
11
-87.78
21
-6.0
31
0
0
LINE
8
0
6
CONTINUOUS
10
-85.15
20
6.0
30
0
11
-87.78
21
6.0
31
0
0
LINE
8
0
6
CONTINUOUS
10
-87.71
20
-6.0
30
0
11
-87.71
21
6.0
31
0
0
LINE
8
0
6
CONTINUOUS
10
-87.78
20
-0.0
30
0
11
-85.15
21
-0.0
31
0
0
LINE
8
0
6
CONTINUOUS
10
-87.78
20
-6.0
30
0
11
-85.15
21
6.0
31
0
0
ARC
8
0
6
CONTINUOUS
10
-86.91124980324189
20
7.17999963160182
30
0
40
2.12
50
270.0337775731745
51
326.1787620684295
0
ARC
8
0
6
CONTINUOUS
10
-86.01875019675812
20
-7.17999963160182
30
0
40
2.12
50
90.03377757317413
51
146.17876206842948
0
LINE
8
0
6
CONTINUOUS
10
-83.66
20
-6.0
30
0
11
-86.29
21
-6.0
31
0
0
LINE
8
0
6
CONTINUOUS
10
-83.66
20
6.0
30
0
11
-86.29
21
6.0
31
0
0
LINE
8
0
6
CONTINUOUS
10
-86.22
20
-6.0
30
0
11
-86.22
21
6.0
31
0
0
LINE
8
0
6
CONTINUOUS
10
-86.29
20
-0.0
30
0
11
-83.66
21
-0.0
31
0
0
LINE
8
0
6
CONTINUOUS
10
-86.29
20
-6.0
30
0
11
-83.66
21
6.0
31
0
0
ARC
8
0
6
CONTINUOUS
10
-85.42124980324188
20
7.17999963160182
30
0
40
2.12
50
270.0337775731741
51
326.1787620684295
0
ARC
8
0
6
CONTINUOUS
10
-84.52875019675811
20
-7.17999963160182
30
0
40
2.12
50
90.0337775731745
51
146.1787620684297
0
LINE
8
0
6
CONTINUOUS
10
-82.16
20
-6.0
30
0
11
-84.8
21
-6.0
31
0
0
LINE
8
0
6
CONTINUOUS
10
-82.16
20
6.0
30
0
11
-84.8
21
6.0
31
0
0
LINE
8
0
6
CONTINUOUS
10
-84.73
20
-6.0
30
0
11
-84.73
21
6.0
31
0
0
LINE
8
0
6
CONTINUOUS
10
-84.8
20
-0.0
30
0
11
-82.16
21
-0.0
31
0
0
LINE
8
0
6
CONTINUOUS
10
-84.8
20
-6.0
30
0
11
-82.16
21
6.0
31
0
0
ARC
8
0
6
CONTINUOUS
10
-83.92124980324188
20
7.17999963160182
30
0
40
2.12
50
270.0337775731741
51
326.1787620684295
0
ARC
8
0
6
CONTINUOUS
10
-83.03873837783782
20
-7.179981990667081
30
0
40
2.12
50
89.76383321338032
51
146.1793359493827
0
LINE
8
0
6
CONTINUOUS
10
-80.67
20
-6.0
30
0
11
-83.3
21
-6.0
31
0
0
LINE
8
0
6
CONTINUOUS
10
-80.67
20
6.0
30
0
11
-83.3
21
6.0
31
0
0
LINE
8
0
6
CONTINUOUS
10
-83.23
20
-6.0
30
0
11
-83.23
21
6.0
31
0
0
LINE
8
0
6
CONTINUOUS
10
-83.3
20
-0.0
30
0
11
-80.67
21
-0.0
31
0
0
LINE
8
0
6
CONTINUOUS
10
-83.3
20
-6.0
30
0
11
-80.67
21
6.0
31
0
0
ARC
8
0
6
CONTINUOUS
10
-82.4312498032419
20
7.17999963160182
30
0
40
2.12
50
270.0337775731745
51
326.1787620684297
0
ARC
8
0
6
CONTINUOUS
10
-81.53875019675812
20
-7.17999963160182
30
0
40
2.12
50
90.0337775731745
51
146.17876206842948
0
LINE
8
0
6
CONTINUOUS
10
-79.17
20
-6.0
30
0
11
-81.81
21
-6.0
31
0
0
LINE
8
0
6
CONTINUOUS
10
-79.17
20
6.0
30
0
11
-81.81
21
6.0
31
0
0
LINE
8
0
6
CONTINUOUS
10
-81.74
20
-6.0
30
0
11
-81.74
21
6.0
31
0
0
LINE
8
0
6
CONTINUOUS
10
-81.81
20
-0.0
30
0
11
-79.17
21
-0.0
31
0
0
LINE
8
0
6
CONTINUOUS
10
-81.81
20
-6.0
30
0
11
-79.17
21
6.0
31
0
0
ARC
8
0
6
CONTINUOUS
10
-80.93126162216218
20
7.179981990667081
30
0
40
2.12
50
269.76383321338034
51
326.1793359493827
0
ARC
8
0
6
CONTINUOUS
10
-80.04875019675812
20
-7.17999963160182
30
0
40
2.12
50
90.03377757317413
51
146.17876206842948
0
LINE
8
0
6
CONTINUOUS
10
-77.68
20
-6.0
30
0
11
-80.31
21
-6.0
31
0
0
LINE
8
0
6
CONTINUOUS
10
-77.68
20
6.0
30
0
11
-80.31
21
6.0
31
0
0
LINE
8
0
6
CONTINUOUS
10
-80.25
20
-6.0
30
0
11
-80.25
21
6.0
31
0
0
LINE
8
0
6
CONTINUOUS
10
-80.31
20
-0.0
30
0
11
-77.68
21
-0.0
31
0
0
LINE
8
0
6
CONTINUOUS
10
-80.31
20
-6.0
30
0
11
-77.68
21
6.0
31
0
0
ARC
8
0
6
CONTINUOUS
10
-79.44124980324189
20
7.17999963160182
30
0
40
2.12
50
270.0337775731745
51
326.1787620684295
0
ARC
8
0
6
CONTINUOUS
10
-78.54875019675812
20
-7.17999963160182
30
0
40
2.12
50
90.03377757317413
51
146.17876206842948
0
LINE
8
0
6
CONTINUOUS
10
-76.19
20
-6.0
30
0
11
-78.82
21
-6.0
31
0
0
LINE
8
0
6
CONTINUOUS
10
-76.19
20
6.0
30
0
11
-78.82
21
6.0
31
0
0
LINE
8
0
6
CONTINUOUS
10
-78.75
20
-6.0
30
0
11
-78.75
21
6.0
31
0
0
LINE
8
0
6
CONTINUOUS
10
-78.82
20
-0.0
30
0
11
-76.19
21
-0.0
31
0
0
LINE
8
0
6
CONTINUOUS
10
-78.82
20
-6.0
30
0
11
-76.19
21
6.0
31
0
0
ARC
8
0
6
CONTINUOUS
10
-77.95124980324188
20
7.17999963160182
30
0
40
2.12
50
270.0337775731741
51
326.1787620684295
0
ARC
8
0
6
CONTINUOUS
10
-77.05875019675811
20
-7.17999963160182
30
0
40
2.12
50
90.0337775731745
51
146.17876206842948
0
LINE
8
0
6
CONTINUOUS
10
-74.69
20
-6.0
30
0
11
-77.33
21
-6.0
31
0
0
LINE
8
0
6
CONTINUOUS
10
-74.69
20
6.0
30
0
11
-77.33
21
6.0
31
0
0
LINE
8
0
6
CONTINUOUS
10
-77.26
20
-6.0
30
0
11
-77.26
21
6.0
31
0
0
LINE
8
0
6
CONTINUOUS
10
-77.33
20
-0.0
30
0
11
-74.69
21
-0.0
31
0
0
LINE
8
0
6
CONTINUOUS
10
-77.33
20
-6.0
30
0
11
-74.69
21
6.0
31
0
0
ARC
8
0
6
CONTINUOUS
10
-76.45126162216216
20
7.179981990667081
30
0
40
2.12
50
269.76383321337994
51
326.1793359493825
0
ARC
8
0
6
CONTINUOUS
10
-75.5687501967581
20
-7.17999963160182
30
0
40
2.12
50
90.0337775731745
51
146.1787620684297
0
LINE
8
0
6
CONTINUOUS
10
-73.2
20
-6.0
30
0
11
-75.83
21
-6.0
31
0
0
LINE
8
0
6
CONTINUOUS
10
-73.2
20
6.0
30
0
11
-75.83
21
6.0
31
0
0
LINE
8
0
6
CONTINUOUS
10
-75.76
20
-6.0
30
0
11
-75.76
21
6.0
31
0
0
LINE
8
0
6
CONTINUOUS
10
-75.83
20
-0.0
30
0
11
-73.2
21
-0.0
31
0
0
LINE
8
0
6
CONTINUOUS
10
-75.83
20
-6.0
30
0
11
-73.2
21
6.0
31
0
0
ARC
8
0
6
CONTINUOUS
10
-74.96124980324188
20
7.17999963160182
30
0
40
2.12
50
270.0337775731745
51
326.1787620684295
0
ARC
8
0
6
CONTINUOUS
10
-74.0687501967581
20
-7.17999963160182
30
0
40
2.12
50
90.0337775731745
51
146.1787620684297
0
LINE
8
0
6
CONTINUOUS
10
-71.71
20
-6.0
30
0
11
-74.34
21
-6.0
31
0
0
LINE
8
0
6
CONTINUOUS
10
-71.71
20
6.0
30
0
11
-74.34
21
6.0
31
0
0
LINE
8
0
6
CONTINUOUS
10
-74.27
20
-6.0
30
0
11
-74.27
21
6.0
31
0
0
LINE
8
0
6
CONTINUOUS
10
-74.34
20
-0.0
30
0
11
-71.71
21
-0.0
31
0
0
LINE
8
0
6
CONTINUOUS
10
-74.34
20
-6.0
30
0
11
-71.71
21
6.0
31
0
0
ARC
8
0
6
CONTINUOUS
10
-73.47124980324189
20
7.17999963160182
30
0
40
2.12
50
270.0337775731745
51
326.1787620684297
0
ARC
8
0
6
CONTINUOUS
10
-72.57875019675812
20
-7.17999963160182
30
0
40
2.12
50
90.03377757317413
51
146.17876206842948
0
LINE
8
0
6
CONTINUOUS
10
-70.21
20
-6.0
30
0
11
-72.85
21
-6.0
31
0
0
LINE
8
0
6
CONTINUOUS
10
-70.21
20
6.0
30
0
11
-72.85
21
6.0
31
0
0
LINE
8
0
6
CONTINUOUS
10
-72.78
20
-6.0
30
0
11
-72.78
21
6.0
31
0
0
LINE
8
0
6
CONTINUOUS
10
-72.85
20
-0.0
30
0
11
-70.21
21
-0.0
31
0
0
LINE
8
0
6
CONTINUOUS
10
-72.85
20
-6.0
30
0
11
-70.21
21
6.0
31
0
0
ARC
8
0
6
CONTINUOUS
10
-71.97124980324189
20
7.17999963160182
30
0
40
2.12
50
270.0337775731745
51
326.1787620684297
0
ARC
8
0
6
CONTINUOUS
10
-71.08873837783783
20
-7.179981990667081
30
0
40
2.12
50
89.76383321337994
51
146.17933594938248
0
LINE
8
0
6
CONTINUOUS
10
-68.72
20
-6.0
30
0
11
-71.35
21
-6.0
31
0
0
LINE
8
0
6
CONTINUOUS
10
-68.72
20
6.0
30
0
11
-71.35
21
6.0
31
0
0
LINE
8
0
6
CONTINUOUS
10
-71.28
20
-6.0
30
0
11
-71.28
21
6.0
31
0
0
LINE
8
0
6
CONTINUOUS
10
-71.35
20
-0.0
30
0
11
-68.72
21
-0.0
31
0
0
LINE
8
0
6
CONTINUOUS
10
-71.35
20
-6.0
30
0
11
-68.72
21
6.0
31
0
0
ARC
8
0
6
CONTINUOUS
10
-70.48124980324188
20
7.17999963160182
30
0
40
2.12
50
270.0337775731741
51
326.1787620684295
0
ARC
8
0
6
CONTINUOUS
10
-69.58875019675811
20
-7.17999963160182
30
0
40
2.12
50
90.0337775731745
51
146.17876206842948
0
LINE
8
0
6
CONTINUOUS
10
-67.22
20
-6.0
30
0
11
-69.86
21
-6.0
31
0
0
LINE
8
0
6
CONTINUOUS
10
-67.22
20
6.0
30
0
11
-69.86
21
6.0
31
0
0
LINE
8
0
6
CONTINUOUS
10
-69.79
20
-6.0
30
0
11
-69.79
21
6.0
31
0
0
LINE
8
0
6
CONTINUOUS
10
-69.86
20
-0.0
30
0
11
-67.22
21
-0.0
31
0
0
LINE
8
0
6
CONTINUOUS
10
-69.86
20
-6.0
30
0
11
-67.22
21
6.0
31
0
0
ARC
8
0
6
CONTINUOUS
10
-68.98126162216217
20
7.179981990667081
30
0
40
2.12
50
269.76383321337994
51
326.1793359493825
0
ARC
8
0
6
CONTINUOUS
10
-68.0987501967581
20
-7.17999963160182
30
0
40
2.12
50
90.0337775731745
51
146.1787620684297
0
LINE
8
0
6
CONTINUOUS
10
-65.73
20
-6.0
30
0
11
-68.36
21
-6.0
31
0
0
LINE
8
0
6
CONTINUOUS
10
-65.73
20
6.0
30
0
11
-68.36
21
6.0
31
0
0
LINE
8
0
6
CONTINUOUS
10
-68.29
20
-6.0
30
0
11
-68.29
21
6.0
31
0
0
LINE
8
0
6
CONTINUOUS
10
-68.36
20
-0.0
30
0
11
-65.73
21
-0.0
31
0
0
LINE
8
0
6
CONTINUOUS
10
-68.36
20
-6.0
30
0
11
-65.73
21
6.0
31
0
0
ARC
8
0
6
CONTINUOUS
10
-67.49124980324189
20
7.17999963160182
30
0
40
2.12
50
270.0337775731745
51
326.1787620684295
0
ARC
8
0
6
CONTINUOUS
10
-66.5987501967581
20
-7.17999963160182
30
0
40
2.12
50
90.0337775731745
51
146.1787620684297
0
LINE
8
0
6
CONTINUOUS
10
-64.24
20
-6.0
30
0
11
-66.87
21
-6.0
31
0
0
LINE
8
0
6
CONTINUOUS
10
-64.24
20
6.0
30
0
11
-66.87
21
6.0
31
0
0
LINE
8
0
6
CONTINUOUS
10
-66.8
20
-6.0
30
0
11
-66.8
21
6.0
31
0
0
LINE
8
0
6
CONTINUOUS
10
-66.87
20
-0.0
30
0
11
-64.24
21
-0.0
31
0
0
LINE
8
0
6
CONTINUOUS
10
-66.87
20
-6.0
30
0
11
-64.24
21
6.0
31
0
0
ARC
8
0
6
CONTINUOUS
10
-66.00124980324189
20
7.17999963160182
30
0
40
2.12
50
270.0337775731745
51
326.1787620684297
0
ARC
8
0
6
CONTINUOUS
10
-65.10875019675812
20
-7.17999963160182
30
0
40
2.12
50
90.03377757317413
51
146.17876206842948
0
LINE
8
0
6
CONTINUOUS
10
-62.74
20
-6.0
30
0
11
-65.38
21
-6.0
31
0
0
LINE
8
0
6
CONTINUOUS
10
-62.74
20
6.0
30
0
11
-65.38
21
6.0
31
0
0
LINE
8
0
6
CONTINUOUS
10
-65.31
20
-6.0
30
0
11
-65.31
21
6.0
31
0
0
LINE
8
0
6
CONTINUOUS
10
-65.38
20
-0.0
30
0
11
-62.74
21
-0.0
31
0
0
LINE
8
0
6
CONTINUOUS
10
-65.38
20
-6.0
30
0
11
-62.74
21
6.0
31
0
0
ARC
8
0
6
CONTINUOUS
10
-64.50124980324189
20
7.17999963160182
30
0
40
2.12
50
270.0337775731745
51
326.1787620684296
0
ARC
8
0
6
CONTINUOUS
10
-63.61873837783782
20
-7.179981990667081
30
0
40
2.12
50
89.76383321338014
51
146.1793359493826
0
LINE
8
0
6
CONTINUOUS
10
-61.25
20
-6.0
30
0
11
-63.88
21
-6.0
31
0
0
LINE
8
0
6
CONTINUOUS
10
-61.25
20
6.0
30
0
11
-63.88
21
6.0
31
0
0
LINE
8
0
6
CONTINUOUS
10
-63.81
20
-6.0
30
0
11
-63.81
21
6.0
31
0
0
LINE
8
0
6
CONTINUOUS
10
-63.88
20
-0.0
30
0
11
-61.25
21
-0.0
31
0
0
LINE
8
0
6
CONTINUOUS
10
-63.88
20
-6.0
30
0
11
-61.25
21
6.0
31
0
0
ARC
8
0
6
CONTINUOUS
10
-63.01124980324188
20
7.17999963160182
30
0
40
2.12
50
270.0337775731743
51
326.1787620684295
0
ARC
8
0
6
CONTINUOUS
10
-62.11875019675812
20
-7.17999963160182
30
0
40
2.12
50
90.03377757317413
51
146.17876206842948
0
LINE
8
0
6
CONTINUOUS
10
-59.75
20
-6.0
30
0
11
-62.39
21
-6.0
31
0
0
LINE
8
0
6
CONTINUOUS
10
-59.75
20
6.0
30
0
11
-62.39
21
6.0
31
0
0
LINE
8
0
6
CONTINUOUS
10
-62.32
20
-6.0
30
0
11
-62.32
21
6.0
31
0
0
LINE
8
0
6
CONTINUOUS
10
-62.39
20
-0.0
30
0
11
-59.75
21
-0.0
31
0
0
LINE
8
0
6
CONTINUOUS
10
-62.39
20
-6.0
30
0
11
-59.75
21
6.0
31
0
0
ARC
8
0
6
CONTINUOUS
10
-61.51126162216218
20
7.179981990667081
30
0
40
2.12
50
269.76383321338017
51
326.1793359493827
0
ARC
8
0
6
CONTINUOUS
10
-60.62875019675812
20
-7.17999963160182
30
0
40
2.12
50
90.03377757317432
51
146.17876206842948
0
LINE
8
0
6
CONTINUOUS
10
-58.26
20
-6.0
30
0
11
-60.89
21
-6.0
31
0
0
LINE
8
0
6
CONTINUOUS
10
-58.26
20
6.0
30
0
11
-60.89
21
6.0
31
0
0
LINE
8
0
6
CONTINUOUS
10
-60.83
20
-6.0
30
0
11
-60.83
21
6.0
31
0
0
LINE
8
0
6
CONTINUOUS
10
-60.89
20
-0.0
30
0
11
-58.26
21
-0.0
31
0
0
LINE
8
0
6
CONTINUOUS
10
-60.89
20
-6.0
30
0
11
-58.26
21
6.0
31
0
0
ARC
8
0
6
CONTINUOUS
10
-60.02124980324188
20
7.17999963160182
30
0
40
2.12
50
270.0337775731741
51
326.1787620684295
0
ARC
8
0
6
CONTINUOUS
10
-59.12875019675812
20
-7.17999963160182
30
0
40
2.12
50
90.03377757317432
51
146.17876206842948
0
LINE
8
0
6
CONTINUOUS
10
-56.77
20
-6.0
30
0
11
-59.4
21
-6.0
31
0
0
LINE
8
0
6
CONTINUOUS
10
-56.77
20
6.0
30
0
11
-59.4
21
6.0
31
0
0
LINE
8
0
6
CONTINUOUS
10
-59.33
20
-6.0
30
0
11
-59.33
21
6.0
31
0
0
LINE
8
0
6
CONTINUOUS
10
-59.4
20
-0.0
30
0
11
-56.77
21
-0.0
31
0
0
LINE
8
0
6
CONTINUOUS
10
-59.4
20
-6.0
30
0
11
-56.77
21
6.0
31
0
0
ARC
8
0
6
CONTINUOUS
10
-58.53124980324189
20
7.17999963160182
30
0
40
2.12
50
270.0337775731745
51
326.1787620684296
0
ARC
8
0
6
CONTINUOUS
10
-57.63875019675811
20
-7.17999963160182
30
0
40
2.12
50
90.0337775731745
51
146.17876206842962
0
LINE
8
0
6
CONTINUOUS
10
-55.27
20
-6.0
30
0
11
-57.91
21
-6.0
31
0
0
LINE
8
0
6
CONTINUOUS
10
-55.27
20
6.0
30
0
11
-57.91
21
6.0
31
0
0
LINE
8
0
6
CONTINUOUS
10
-57.84
20
-6.0
30
0
11
-57.84
21
6.0
31
0
0
LINE
8
0
6
CONTINUOUS
10
-57.91
20
-0.0
30
0
11
-55.27
21
-0.0
31
0
0
LINE
8
0
6
CONTINUOUS
10
-57.91
20
-6.0
30
0
11
-55.27
21
6.0
31
0
0
ARC
8
0
6
CONTINUOUS
10
-57.03124980324189
20
7.17999963160182
30
0
40
2.12
50
270.0337775731745
51
326.1787620684296
0
ARC
8
0
6
CONTINUOUS
10
-56.148738377837816
20
-7.179981990667081
30
0
40
2.12
50
89.76383321338032
51
146.1793359493827
0
LINE
8
0
6
CONTINUOUS
10
-53.78
20
-6.0
30
0
11
-56.41
21
-6.0
31
0
0
LINE
8
0
6
CONTINUOUS
10
-53.78
20
6.0
30
0
11
-56.41
21
6.0
31
0
0
LINE
8
0
6
CONTINUOUS
10
-56.34
20
-6.0
30
0
11
-56.34
21
6.0
31
0
0
LINE
8
0
6
CONTINUOUS
10
-56.41
20
-0.0
30
0
11
-53.78
21
-0.0
31
0
0
LINE
8
0
6
CONTINUOUS
10
-56.41
20
-6.0
30
0
11
-53.78
21
6.0
31
0
0
ARC
8
0
6
CONTINUOUS
10
-55.54124980324188
20
7.17999963160182
30
0
40
2.12
50
270.0337775731743
51
326.1787620684295
0
ARC
8
0
6
CONTINUOUS
10
-54.648750196758115
20
-7.17999963160182
30
0
40
2.12
50
90.03377757317432
51
146.17876206842948
0
LINE
8
0
6
CONTINUOUS
10
-52.29
20
-6.0
30
0
11
-54.92
21
-6.0
31
0
0
LINE
8
0
6
CONTINUOUS
10
-52.29
20
6.0
30
0
11
-54.92
21
6.0
31
0
0
LINE
8
0
6
CONTINUOUS
10
-54.85
20
-6.0
30
0
11
-54.85
21
6.0
31
0
0
LINE
8
0
6
CONTINUOUS
10
-54.92
20
-0.0
30
0
11
-52.29
21
-0.0
31
0
0
LINE
8
0
6
CONTINUOUS
10
-54.92
20
-6.0
30
0
11
-52.29
21
6.0
31
0
0
ARC
8
0
6
CONTINUOUS
10
-54.05124980324189
20
7.17999963160182
30
0
40
2.12
50
270.0337775731745
51
326.1787620684296
0
ARC
8
0
6
CONTINUOUS
10
-53.15875019675812
20
-7.17999963160182
30
0
40
2.12
50
90.03377757317413
51
146.17876206842948
0
LINE
8
0
6
CONTINUOUS
10
-50.79
20
-6.0
30
0
11
-53.43
21
-6.0
31
0
0
LINE
8
0
6
CONTINUOUS
10
-50.79
20
6.0
30
0
11
-53.43
21
6.0
31
0
0
LINE
8
0
6
CONTINUOUS
10
-53.36
20
-6.0
30
0
11
-53.36
21
6.0
31
0
0
LINE
8
0
6
CONTINUOUS
10
-53.43
20
-0.0
30
0
11
-50.79
21
-0.0
31
0
0
LINE
8
0
6
CONTINUOUS
10
-53.43
20
-6.0
30
0
11
-50.79
21
6.0
31
0
0
ARC
8
0
6
CONTINUOUS
10
-52.55124980324189
20
7.17999963160182
30
0
40
2.12
50
270.0337775731745
51
326.1787620684296
0
ARC
8
0
6
CONTINUOUS
10
-51.668738377837826
20
-7.179981990667081
30
0
40
2.12
50
89.76383321337994
51
146.1793359493826
0
LINE
8
0
6
CONTINUOUS
10
-49.3
20
-6.0
30
0
11
-51.93
21
-6.0
31
0
0
LINE
8
0
6
CONTINUOUS
10
-49.3
20
6.0
30
0
11
-51.93
21
6.0
31
0
0
LINE
8
0
6
CONTINUOUS
10
-51.86
20
-6.0
30
0
11
-51.86
21
6.0
31
0
0
LINE
8
0
6
CONTINUOUS
10
-51.93
20
-0.0
30
0
11
-49.3
21
-0.0
31
0
0
LINE
8
0
6
CONTINUOUS
10
-51.93
20
-6.0
30
0
11
-49.3
21
6.0
31
0
0
ARC
8
0
6
CONTINUOUS
10
-51.06124980324188
20
7.17999963160182
30
0
40
2.12
50
270.0337775731741
51
326.1787620684295
0
ARC
8
0
6
CONTINUOUS
10
-50.16875019675811
20
-7.17999963160182
30
0
40
2.12
50
90.0337775731745
51
146.17876206842962
0
LINE
8
0
6
CONTINUOUS
10
-47.8
20
-6.0
30
0
11
-50.44
21
-6.0
31
0
0
LINE
8
0
6
CONTINUOUS
10
-47.8
20
6.0
30
0
11
-50.44
21
6.0
31
0
0
LINE
8
0
6
CONTINUOUS
10
-50.37
20
-6.0
30
0
11
-50.37
21
6.0
31
0
0
LINE
8
0
6
CONTINUOUS
10
-50.44
20
-0.0
30
0
11
-47.8
21
-0.0
31
0
0
LINE
8
0
6
CONTINUOUS
10
-50.44
20
-6.0
30
0
11
-47.8
21
6.0
31
0
0
ARC
8
0
6
CONTINUOUS
10
-49.56126162216218
20
7.179981990667081
30
0
40
2.12
50
269.76383321338017
51
326.1793359493827
0
ARC
8
0
6
CONTINUOUS
10
-48.678750196758116
20
-7.17999963160182
30
0
40
2.12
50
90.03377757317432
51
146.17876206842948
0
LINE
8
0
6
CONTINUOUS
10
-46.31
20
-6.0
30
0
11
-48.94
21
-6.0
31
0
0
LINE
8
0
6
CONTINUOUS
10
-46.31
20
6.0
30
0
11
-48.94
21
6.0
31
0
0
LINE
8
0
6
CONTINUOUS
10
-48.87
20
-6.0
30
0
11
-48.87
21
6.0
31
0
0
LINE
8
0
6
CONTINUOUS
10
-48.94
20
-0.0
30
0
11
-46.31
21
-0.0
31
0
0
LINE
8
0
6
CONTINUOUS
10
-48.94
20
-6.0
30
0
11
-46.31
21
6.0
31
0
0
ARC
8
0
6
CONTINUOUS
10
-48.071249803241884
20
7.17999963160182
30
0
40
2.12
50
270.0337775731743
51
326.1787620684295
0
ARC
8
0
6
CONTINUOUS
10
-47.178750196758116
20
-7.17999963160182
30
0
40
2.12
50
90.03377757317432
51
146.17876206842948
0
LINE
8
0
6
CONTINUOUS
10
-44.82
20
-6.0
30
0
11
-47.45
21
-6.0
31
0
0
LINE
8
0
6
CONTINUOUS
10
-44.82
20
6.0
30
0
11
-47.45
21
6.0
31
0
0
LINE
8
0
6
CONTINUOUS
10
-47.38
20
-6.0
30
0
11
-47.38
21
6.0
31
0
0
LINE
8
0
6
CONTINUOUS
10
-47.45
20
-0.0
30
0
11
-44.82
21
-0.0
31
0
0
LINE
8
0
6
CONTINUOUS
10
-47.45
20
-6.0
30
0
11
-44.82
21
6.0
31
0
0
ARC
8
0
6
CONTINUOUS
10
-46.58124980324189
20
7.17999963160182
30
0
40
2.12
50
270.0337775731745
51
326.1787620684296
0
ARC
8
0
6
CONTINUOUS
10
-45.68875019675812
20
-7.17999963160182
30
0
40
2.12
50
90.03377757317413
51
146.17876206842948
0
LINE
8
0
6
CONTINUOUS
10
-43.32
20
-6.0
30
0
11
-45.96
21
-6.0
31
0
0
LINE
8
0
6
CONTINUOUS
10
-43.32
20
6.0
30
0
11
-45.96
21
6.0
31
0
0
LINE
8
0
6
CONTINUOUS
10
-45.89
20
-6.0
30
0
11
-45.89
21
6.0
31
0
0
LINE
8
0
6
CONTINUOUS
10
-45.96
20
-0.0
30
0
11
-43.32
21
-0.0
31
0
0
LINE
8
0
6
CONTINUOUS
10
-45.96
20
-6.0
30
0
11
-43.32
21
6.0
31
0
0
ARC
8
0
6
CONTINUOUS
10
-45.08124980324189
20
7.17999963160182
30
0
40
2.12
50
270.0337775731745
51
326.1787620684296
0
ARC
8
0
6
CONTINUOUS
10
-44.19873837783783
20
-7.179981990667081
30
0
40
2.12
50
89.76383321337994
51
146.1793359493826
0
LINE
8
0
6
CONTINUOUS
10
-41.83
20
-6.0
30
0
11
-44.46
21
-6.0
31
0
0
LINE
8
0
6
CONTINUOUS
10
-41.83
20
6.0
30
0
11
-44.46
21
6.0
31
0
0
LINE
8
0
6
CONTINUOUS
10
-44.39
20
-6.0
30
0
11
-44.39
21
6.0
31
0
0
LINE
8
0
6
CONTINUOUS
10
-44.46
20
-0.0
30
0
11
-41.83
21
-0.0
31
0
0
LINE
8
0
6
CONTINUOUS
10
-44.46
20
-6.0
30
0
11
-41.83
21
6.0
31
0
0
ARC
8
0
6
CONTINUOUS
10
-43.59124980324188
20
7.17999963160182
30
0
40
2.12
50
270.0337775731741
51
326.1787620684295
0
ARC
8
0
6
CONTINUOUS
10
-42.69875019675811
20
-7.17999963160182
30
0
40
2.12
50
90.0337775731745
51
146.17876206842962
0
LINE
8
0
6
CONTINUOUS
10
-40.33
20
-6.0
30
0
11
-42.97
21
-6.0
31
0
0
LINE
8
0
6
CONTINUOUS
10
-40.33
20
6.0
30
0
11
-42.97
21
6.0
31
0
0
LINE
8
0
6
CONTINUOUS
10
-42.9
20
-6.0
30
0
11
-42.9
21
6.0
31
0
0
LINE
8
0
6
CONTINUOUS
10
-42.97
20
-0.0
30
0
11
-40.33
21
-0.0
31
0
0
LINE
8
0
6
CONTINUOUS
10
-42.97
20
-6.0
30
0
11
-40.33
21
6.0
31
0
0
ARC
8
0
6
CONTINUOUS
10
-42.09126162216218
20
7.179981990667081
30
0
40
2.12
50
269.76383321338017
51
326.1793359493827
0
ARC
8
0
6
CONTINUOUS
10
-41.20875019675812
20
-7.17999963160182
30
0
40
2.12
50
90.03377757317432
51
146.17876206842948
0
LINE
8
0
6
CONTINUOUS
10
-38.84
20
-6.0
30
0
11
-41.47
21
-6.0
31
0
0
LINE
8
0
6
CONTINUOUS
10
-38.84
20
6.0
30
0
11
-41.47
21
6.0
31
0
0
LINE
8
0
6
CONTINUOUS
10
-41.4
20
-6.0
30
0
11
-41.4
21
6.0
31
0
0
LINE
8
0
6
CONTINUOUS
10
-41.47
20
-0.0
30
0
11
-38.84
21
-0.0
31
0
0
LINE
8
0
6
CONTINUOUS
10
-41.47
20
-6.0
30
0
11
-38.84
21
6.0
31
0
0
ARC
8
0
6
CONTINUOUS
10
-40.601249803241885
20
7.17999963160182
30
0
40
2.12
50
270.0337775731743
51
326.1787620684295
0
ARC
8
0
6
CONTINUOUS
10
-39.70875019675812
20
-7.17999963160182
30
0
40
2.12
50
90.03377757317432
51
146.17876206842948
0
LINE
8
0
6
CONTINUOUS
10
-37.35
20
-6.0
30
0
11
-39.98
21
-6.0
31
0
0
LINE
8
0
6
CONTINUOUS
10
-37.35
20
6.0
30
0
11
-39.98
21
6.0
31
0
0
LINE
8
0
6
CONTINUOUS
10
-39.91
20
-6.0
30
0
11
-39.91
21
6.0
31
0
0
LINE
8
0
6
CONTINUOUS
10
-39.98
20
-0.0
30
0
11
-37.35
21
-0.0
31
0
0
LINE
8
0
6
CONTINUOUS
10
-39.98
20
-6.0
30
0
11
-37.35
21
6.0
31
0
0
ARC
8
0
6
CONTINUOUS
10
-39.11124980324189
20
7.17999963160182
30
0
40
2.12
50
270.0337775731745
51
326.1787620684296
0
ARC
8
0
6
CONTINUOUS
10
-38.21875019675811
20
-7.17999963160182
30
0
40
2.12
50
90.0337775731745
51
146.17876206842962
0
LINE
8
0
6
CONTINUOUS
10
-35.85
20
-6.0
30
0
11
-38.49
21
-6.0
31
0
0
LINE
8
0
6
CONTINUOUS
10
-35.85
20
6.0
30
0
11
-38.49
21
6.0
31
0
0
LINE
8
0
6
CONTINUOUS
10
-38.42
20
-6.0
30
0
11
-38.42
21
6.0
31
0
0
LINE
8
0
6
CONTINUOUS
10
-38.49
20
-0.0
30
0
11
-35.85
21
-0.0
31
0
0
LINE
8
0
6
CONTINUOUS
10
-38.49
20
-6.0
30
0
11
-35.85
21
6.0
31
0
0
ARC
8
0
6
CONTINUOUS
10
-37.61124980324189
20
7.17999963160182
30
0
40
2.12
50
270.0337775731745
51
326.1787620684296
0
ARC
8
0
6
CONTINUOUS
10
-36.72873837783783
20
-7.179981990667081
30
0
40
2.12
50
89.76383321337994
51
146.1793359493826
0
LINE
8
0
6
CONTINUOUS
10
-34.36
20
-6.0
30
0
11
-36.99
21
-6.0
31
0
0
LINE
8
0
6
CONTINUOUS
10
-34.36
20
6.0
30
0
11
-36.99
21
6.0
31
0
0
LINE
8
0
6
CONTINUOUS
10
-36.92
20
-6.0
30
0
11
-36.92
21
6.0
31
0
0
LINE
8
0
6
CONTINUOUS
10
-36.99
20
-0.0
30
0
11
-34.36
21
-0.0
31
0
0
LINE
8
0
6
CONTINUOUS
10
-36.99
20
-6.0
30
0
11
-34.36
21
6.0
31
0
0
ARC
8
0
6
CONTINUOUS
10
-36.12124980324188
20
7.17999963160182
30
0
40
2.12
50
270.0337775731743
51
326.1787620684295
0
ARC
8
0
6
CONTINUOUS
10
-35.22875019675812
20
-7.17999963160182
30
0
40
2.12
50
90.03377757317413
51
146.17876206842948
0
LINE
8
0
6
CONTINUOUS
10
-32.87
20
-6.0
30
0
11
-35.5
21
-6.0
31
0
0
LINE
8
0
6
CONTINUOUS
10
-32.87
20
6.0
30
0
11
-35.5
21
6.0
31
0
0
LINE
8
0
6
CONTINUOUS
10
-35.43
20
-6.0
30
0
11
-35.43
21
6.0
31
0
0
LINE
8
0
6
CONTINUOUS
10
-35.5
20
-0.0
30
0
11
-32.87
21
-0.0
31
0
0
LINE
8
0
6
CONTINUOUS
10
-35.5
20
-6.0
30
0
11
-32.87
21
6.0
31
0
0
ARC
8
0
6
CONTINUOUS
10
-34.63124980324188
20
7.17999963160182
30
0
40
2.12
50
270.0337775731741
51
326.1787620684295
0
ARC
8
0
6
CONTINUOUS
10
-33.73875019675812
20
-7.17999963160182
30
0
40
2.12
50
90.03377757317432
51
146.17876206842948
0
LINE
8
0
6
CONTINUOUS
10
-31.37
20
-6.0
30
0
11
-34.0
21
-6.0
31
0
0
LINE
8
0
6
CONTINUOUS
10
-31.37
20
6.0
30
0
11
-34.0
21
6.0
31
0
0
LINE
8
0
6
CONTINUOUS
10
-33.94
20
-6.0
30
0
11
-33.94
21
6.0
31
0
0
LINE
8
0
6
CONTINUOUS
10
-34.0
20
-0.0
30
0
11
-31.37
21
-0.0
31
0
0
LINE
8
0
6
CONTINUOUS
10
-34.0
20
-6.0
30
0
11
-31.37
21
6.0
31
0
0
ARC
8
0
6
CONTINUOUS
10
-33.13124980324188
20
7.17999963160182
30
0
40
2.12
50
270.0337775731741
51
326.1787620684294
0
ARC
8
0
6
CONTINUOUS
10
-32.23875019675812
20
-7.17999963160182
30
0
40
2.12
50
90.03377757317432
51
146.17876206842948
0
LINE
8
0
6
CONTINUOUS
10
-29.88
20
-6.0
30
0
11
-32.51
21
-6.0
31
0
0
LINE
8
0
6
CONTINUOUS
10
-29.88
20
6.0
30
0
11
-32.51
21
6.0
31
0
0
LINE
8
0
6
CONTINUOUS
10
-32.44
20
-6.0
30
0
11
-32.44
21
6.0
31
0
0
LINE
8
0
6
CONTINUOUS
10
-32.51
20
-0.0
30
0
11
-29.88
21
-0.0
31
0
0
LINE
8
0
6
CONTINUOUS
10
-32.51
20
-6.0
30
0
11
-29.88
21
6.0
31
0
0
ARC
8
0
6
CONTINUOUS
10
-31.64124980324188
20
7.17999963160182
30
0
40
2.12
50
270.03377757317423
51
326.1787620684295
0
ARC
8
0
6
CONTINUOUS
10
-30.748750196758117
20
-7.17999963160182
30
0
40
2.12
50
90.03377757317432
51
146.17876206842948
0
LINE
8
0
6
CONTINUOUS
10
-28.38
20
-6.0
30
0
11
-31.02
21
-6.0
31
0
0
LINE
8
0
6
CONTINUOUS
10
-28.38
20
6.0
30
0
11
-31.02
21
6.0
31
0
0
LINE
8
0
6
CONTINUOUS
10
-30.95
20
-6.0
30
0
11
-30.95
21
6.0
31
0
0
LINE
8
0
6
CONTINUOUS
10
-31.02
20
-0.0
30
0
11
-28.38
21
-0.0
31
0
0
LINE
8
0
6
CONTINUOUS
10
-31.02
20
-6.0
30
0
11
-28.38
21
6.0
31
0
0
ARC
8
0
6
CONTINUOUS
10
-30.14126162216218
20
7.179981990667081
30
0
40
2.12
50
269.7638332133802
51
326.1793359493827
0
ARC
8
0
6
CONTINUOUS
10
-29.25875019675812
20
-7.17999963160182
30
0
40
2.12
50
90.03377757317432
51
146.17876206842948
0
LINE
8
0
6
CONTINUOUS
10
-26.89
20
-6.0
30
0
11
-29.52
21
-6.0
31
0
0
LINE
8
0
6
CONTINUOUS
10
-26.89
20
6.0
30
0
11
-29.52
21
6.0
31
0
0
LINE
8
0
6
CONTINUOUS
10
-29.45
20
-6.0
30
0
11
-29.45
21
6.0
31
0
0
LINE
8
0
6
CONTINUOUS
10
-29.52
20
-0.0
30
0
11
-26.89
21
-0.0
31
0
0
LINE
8
0
6
CONTINUOUS
10
-29.52
20
-6.0
30
0
11
-26.89
21
6.0
31
0
0
ARC
8
0
6
CONTINUOUS
10
-28.651249803241882
20
7.17999963160182
30
0
40
2.12
50
270.0337775731743
51
326.1787620684295
0
ARC
8
0
6
CONTINUOUS
10
-27.75875019675812
20
-7.17999963160182
30
0
40
2.12
50
90.03377757317432
51
146.17876206842948
0
LINE
8
0
6
CONTINUOUS
10
-25.4
20
-6.0
30
0
11
-28.03
21
-6.0
31
0
0
LINE
8
0
6
CONTINUOUS
10
-25.4
20
6.0
30
0
11
-28.03
21
6.0
31
0
0
LINE
8
0
6
CONTINUOUS
10
-27.96
20
-6.0
30
0
11
-27.96
21
6.0
31
0
0
LINE
8
0
6
CONTINUOUS
10
-28.03
20
-0.0
30
0
11
-25.4
21
-0.0
31
0
0
LINE
8
0
6
CONTINUOUS
10
-28.03
20
-6.0
30
0
11
-25.4
21
6.0
31
0
0
ARC
8
0
6
CONTINUOUS
10
-27.161249803241883
20
7.17999963160182
30
0
40
2.12
50
270.0337775731743
51
326.17876206842953
0
ARC
8
0
6
CONTINUOUS
10
-26.268750196758116
20
-7.17999963160182
30
0
40
2.12
50
90.03377757317432
51
146.17876206842953
0
LINE
8
0
6
CONTINUOUS
10
-23.9
20
-6.0
30
0
11
-26.54
21
-6.0
31
0
0
LINE
8
0
6
CONTINUOUS
10
-23.9
20
6.0
30
0
11
-26.54
21
6.0
31
0
0
LINE
8
0
6
CONTINUOUS
10
-26.47
20
-6.0
30
0
11
-26.47
21
6.0
31
0
0
LINE
8
0
6
CONTINUOUS
10
-26.54
20
-0.0
30
0
11
-23.9
21
-0.0
31
0
0
LINE
8
0
6
CONTINUOUS
10
-26.54
20
-6.0
30
0
11
-23.9
21
6.0
31
0
0
ARC
8
0
6
CONTINUOUS
10
-25.661249803241883
20
7.17999963160182
30
0
40
2.12
50
270.0337775731743
51
326.17876206842953
0
ARC
8
0
6
CONTINUOUS
10
-24.778738377837822
20
-7.179981990667081
30
0
40
2.12
50
89.76383321338014
51
146.17933594938265
0
LINE
8
0
6
CONTINUOUS
10
-22.41
20
-6.0
30
0
11
-25.04
21
-6.0
31
0
0
LINE
8
0
6
CONTINUOUS
10
-22.41
20
6.0
30
0
11
-25.04
21
6.0
31
0
0
LINE
8
0
6
CONTINUOUS
10
-24.97
20
-6.0
30
0
11
-24.97
21
6.0
31
0
0
LINE
8
0
6
CONTINUOUS
10
-25.04
20
-0.0
30
0
11
-22.41
21
-0.0
31
0
0
LINE
8
0
6
CONTINUOUS
10
-25.04
20
-6.0
30
0
11
-22.41
21
6.0
31
0
0
ARC
8
0
6
CONTINUOUS
10
-24.17124980324188
20
7.17999963160182
30
0
40
2.12
50
270.03377757317423
51
326.1787620684295
0
ARC
8
0
6
CONTINUOUS
10
-23.278750196758118
20
-7.17999963160182
30
0
40
2.12
50
90.03377757317432
51
146.17876206842948
0
LINE
8
0
6
CONTINUOUS
10
-20.91
20
-6.0
30
0
11
-23.55
21
-6.0
31
0
0
LINE
8
0
6
CONTINUOUS
10
-20.91
20
6.0
30
0
11
-23.55
21
6.0
31
0
0
LINE
8
0
6
CONTINUOUS
10
-23.48
20
-6.0
30
0
11
-23.48
21
6.0
31
0
0
LINE
8
0
6
CONTINUOUS
10
-23.55
20
-0.0
30
0
11
-20.91
21
-0.0
31
0
0
LINE
8
0
6
CONTINUOUS
10
-23.55
20
-6.0
30
0
11
-20.91
21
6.0
31
0
0
ARC
8
0
6
CONTINUOUS
10
-22.67126162216218
20
7.179981990667081
30
0
40
2.12
50
269.7638332133802
51
326.1793359493827
0
ARC
8
0
6
CONTINUOUS
10
-21.78875019675812
20
-7.17999963160182
30
0
40
2.12
50
90.03377757317422
51
146.17876206842948
0
LINE
8
0
6
CONTINUOUS
10
-19.42
20
-6.0
30
0
11
-22.05
21
-6.0
31
0
0
LINE
8
0
6
CONTINUOUS
10
-19.42
20
6.0
30
0
11
-22.05
21
6.0
31
0
0
LINE
8
0
6
CONTINUOUS
10
-21.98
20
-6.0
30
0
11
-21.98
21
6.0
31
0
0
LINE
8
0
6
CONTINUOUS
10
-22.05
20
-0.0
30
0
11
-19.42
21
-0.0
31
0
0
LINE
8
0
6
CONTINUOUS
10
-22.05
20
-6.0
30
0
11
-19.42
21
6.0
31
0
0
ARC
8
0
6
CONTINUOUS
10
-21.181249803241883
20
7.17999963160182
30
0
40
2.12
50
270.0337775731743
51
326.1787620684295
0
ARC
8
0
6
CONTINUOUS
10
-20.28875019675812
20
-7.17999963160182
30
0
40
2.12
50
90.03377757317422
51
146.17876206842948
0
LINE
8
0
6
CONTINUOUS
10
-17.93
20
-6.0
30
0
11
-20.56
21
-6.0
31
0
0
LINE
8
0
6
CONTINUOUS
10
-17.93
20
6.0
30
0
11
-20.56
21
6.0
31
0
0
LINE
8
0
6
CONTINUOUS
10
-20.49
20
-6.0
30
0
11
-20.49
21
6.0
31
0
0
LINE
8
0
6
CONTINUOUS
10
-20.56
20
-0.0
30
0
11
-17.93
21
-0.0
31
0
0
LINE
8
0
6
CONTINUOUS
10
-20.56
20
-6.0
30
0
11
-17.93
21
6.0
31
0
0
ARC
8
0
6
CONTINUOUS
10
-19.691249803241885
20
7.17999963160182
30
0
40
2.12
50
270.0337775731743
51
326.17876206842953
0
ARC
8
0
6
CONTINUOUS
10
-18.798750196758117
20
-7.17999963160182
30
0
40
2.12
50
90.03377757317432
51
146.17876206842948
0
LINE
8
0
6
CONTINUOUS
10
-16.43
20
-6.0
30
0
11
-19.07
21
-6.0
31
0
0
LINE
8
0
6
CONTINUOUS
10
-16.43
20
6.0
30
0
11
-19.07
21
6.0
31
0
0
LINE
8
0
6
CONTINUOUS
10
-19.0
20
-6.0
30
0
11
-19.0
21
6.0
31
0
0
LINE
8
0
6
CONTINUOUS
10
-19.07
20
-0.0
30
0
11
-16.43
21
-0.0
31
0
0
LINE
8
0
6
CONTINUOUS
10
-19.07
20
-6.0
30
0
11
-16.43
21
6.0
31
0
0
ARC
8
0
6
CONTINUOUS
10
-18.191249803241885
20
7.17999963160182
30
0
40
2.12
50
270.0337775731743
51
326.17876206842953
0
ARC
8
0
6
CONTINUOUS
10
-17.308738377837823
20
-7.179981990667081
30
0
40
2.12
50
89.76383321338014
51
146.17933594938265
0
LINE
8
0
6
CONTINUOUS
10
-14.94
20
-6.0
30
0
11
-17.57
21
-6.0
31
0
0
LINE
8
0
6
CONTINUOUS
10
-14.94
20
6.0
30
0
11
-17.57
21
6.0
31
0
0
LINE
8
0
6
CONTINUOUS
10
-17.5
20
-6.0
30
0
11
-17.5
21
6.0
31
0
0
LINE
8
0
6
CONTINUOUS
10
-17.57
20
-0.0
30
0
11
-14.94
21
-0.0
31
0
0
LINE
8
0
6
CONTINUOUS
10
-17.57
20
-6.0
30
0
11
-14.94
21
6.0
31
0
0
ARC
8
0
6
CONTINUOUS
10
-16.701249803241883
20
7.17999963160182
30
0
40
2.12
50
270.0337775731743
51
326.17876206842953
0
ARC
8
0
6
CONTINUOUS
10
-15.808750196758119
20
-7.17999963160182
30
0
40
2.12
50
90.03377757317426
51
146.17876206842948
0
LINE
8
0
6
CONTINUOUS
10
-13.44
20
-6.0
30
0
11
-16.08
21
-6.0
31
0
0
LINE
8
0
6
CONTINUOUS
10
-13.44
20
6.0
30
0
11
-16.08
21
6.0
31
0
0
LINE
8
0
6
CONTINUOUS
10
-16.01
20
-6.0
30
0
11
-16.01
21
6.0
31
0
0
LINE
8
0
6
CONTINUOUS
10
-16.08
20
-0.0
30
0
11
-13.44
21
-0.0
31
0
0
LINE
8
0
6
CONTINUOUS
10
-16.08
20
-6.0
30
0
11
-13.44
21
6.0
31
0
0
ARC
8
0
6
CONTINUOUS
10
-15.201261622162178
20
7.179981990667081
30
0
40
2.12
50
269.76383321338017
51
326.1793359493827
0
ARC
8
0
6
CONTINUOUS
10
-14.318750196758117
20
-7.17999963160182
30
0
40
2.12
50
90.03377757317432
51
146.17876206842948
0
LINE
8
0
6
CONTINUOUS
10
-11.95
20
-6.0
30
0
11
-14.58
21
-6.0
31
0
0
LINE
8
0
6
CONTINUOUS
10
-11.95
20
6.0
30
0
11
-14.58
21
6.0
31
0
0
LINE
8
0
6
CONTINUOUS
10
-14.52
20
-6.0
30
0
11
-14.52
21
6.0
31
0
0
LINE
8
0
6
CONTINUOUS
10
-14.58
20
-0.0
30
0
11
-11.95
21
-0.0
31
0
0
LINE
8
0
6
CONTINUOUS
10
-14.58
20
-6.0
30
0
11
-11.95
21
6.0
31
0
0
ARC
8
0
6
CONTINUOUS
10
-13.71124980324188
20
7.17999963160182
30
0
40
2.12
50
270.03377757317423
51
326.1787620684295
0
ARC
8
0
6
CONTINUOUS
10
-12.818750196758117
20
-7.17999963160182
30
0
40
2.12
50
90.03377757317432
51
146.1787620684295
0
LINE
8
0
6
CONTINUOUS
10
-10.46
20
-6.0
30
0
11
-13.09
21
-6.0
31
0
0
LINE
8
0
6
CONTINUOUS
10
-10.46
20
6.0
30
0
11
-13.09
21
6.0
31
0
0
LINE
8
0
6
CONTINUOUS
10
-13.02
20
-6.0
30
0
11
-13.02
21
6.0
31
0
0
LINE
8
0
6
CONTINUOUS
10
-13.09
20
-0.0
30
0
11
-10.46
21
-0.0
31
0
0
LINE
8
0
6
CONTINUOUS
10
-13.09
20
-6.0
30
0
11
-10.46
21
6.0
31
0
0
ARC
8
0
6
CONTINUOUS
10
-12.221249803241882
20
7.17999963160182
30
0
40
2.12
50
270.03377757317423
51
326.1787620684295
0
ARC
8
0
6
CONTINUOUS
10
-11.328750196758119
20
-7.17999963160182
30
0
40
2.12
50
90.03377757317426
51
146.17876206842948
0
LINE
8
0
6
CONTINUOUS
10
-8.96
20
-6.0
30
0
11
-11.6
21
-6.0
31
0
0
LINE
8
0
6
CONTINUOUS
10
-8.96
20
6.0
30
0
11
-11.6
21
6.0
31
0
0
LINE
8
0
6
CONTINUOUS
10
-11.53
20
-6.0
30
0
11
-11.53
21
6.0
31
0
0
LINE
8
0
6
CONTINUOUS
10
-11.6
20
-0.0
30
0
11
-8.96
21
-0.0
31
0
0
LINE
8
0
6
CONTINUOUS
10
-11.6
20
-6.0
30
0
11
-8.96
21
6.0
31
0
0
ARC
8
0
6
CONTINUOUS
10
-10.721249803241882
20
7.17999963160182
30
0
40
2.12
50
270.03377757317423
51
326.1787620684295
0
ARC
8
0
6
CONTINUOUS
10
-9.838750196758117
20
-7.17999963160182
30
0
40
2.12
50
90.03377757317432
51
146.1787620684295
0
LINE
8
0
6
CONTINUOUS
10
-7.47
20
-6.0
30
0
11
-10.1
21
-6.0
31
0
0
LINE
8
0
6
CONTINUOUS
10
-7.47
20
6.0
30
0
11
-10.1
21
6.0
31
0
0
LINE
8
0
6
CONTINUOUS
10
-10.03
20
-6.0
30
0
11
-10.03
21
6.0
31
0
0
LINE
8
0
6
CONTINUOUS
10
-10.1
20
-0.0
30
0
11
-7.47
21
-0.0
31
0
0
LINE
8
0
6
CONTINUOUS
10
-10.1
20
-6.0
30
0
11
-7.47
21
6.0
31
0
0
ARC
8
0
6
CONTINUOUS
10
-9.231249803241882
20
7.17999963160182
30
0
40
2.12
50
270.03377757317423
51
326.1787620684295
0
ARC
8
0
6
CONTINUOUS
10
-8.338750196758117
20
-7.17999963160182
30
0
40
2.12
50
90.03377757317432
51
146.1787620684295
0
LINE
8
0
6
CONTINUOUS
10
-5.98
20
-6.0
30
0
11
-8.61
21
-6.0
31
0
0
LINE
8
0
6
CONTINUOUS
10
-5.98
20
6.0
30
0
11
-8.61
21
6.0
31
0
0
LINE
8
0
6
CONTINUOUS
10
-8.54
20
-6.0
30
0
11
-8.54
21
6.0
31
0
0
LINE
8
0
6
CONTINUOUS
10
-8.61
20
-0.0
30
0
11
-5.98
21
-0.0
31
0
0
LINE
8
0
6
CONTINUOUS
10
-8.61
20
-6.0
30
0
11
-5.98
21
6.0
31
0
0
ARC
8
0
6
CONTINUOUS
10
-7.741249803241883
20
7.17999963160182
30
0
40
2.12
50
270.0337775731743
51
326.1787620684295
0
ARC
8
0
6
CONTINUOUS
10
-6.848750196758117
20
-7.17999963160182
30
0
40
2.12
50
90.03377757317429
51
146.1787620684295
0
LINE
8
0
6
CONTINUOUS
10
-4.48
20
-6.0
30
0
11
-7.12
21
-6.0
31
0
0
LINE
8
0
6
CONTINUOUS
10
-4.48
20
6.0
30
0
11
-7.12
21
6.0
31
0
0
LINE
8
0
6
CONTINUOUS
10
-7.05
20
-6.0
30
0
11
-7.05
21
6.0
31
0
0
LINE
8
0
6
CONTINUOUS
10
-7.12
20
-0.0
30
0
11
-4.48
21
-0.0
31
0
0
LINE
8
0
6
CONTINUOUS
10
-7.12
20
-6.0
30
0
11
-4.48
21
6.0
31
0
0
ARC
8
0
6
CONTINUOUS
10
-6.241249803241883
20
7.17999963160182
30
0
40
2.12
50
270.0337775731743
51
326.1787620684295
0
ARC
8
0
6
CONTINUOUS
10
-5.35873837783782
20
-7.179981990667081
30
0
40
2.12
50
89.76383321338018
51
146.17933594938268
0
LINE
8
0
6
CONTINUOUS
10
-2.99
20
-6.0
30
0
11
-5.62
21
-6.0
31
0
0
LINE
8
0
6
CONTINUOUS
10
-2.99
20
6.0
30
0
11
-5.62
21
6.0
31
0
0
LINE
8
0
6
CONTINUOUS
10
-5.55
20
-6.0
30
0
11
-5.55
21
6.0
31
0
0
LINE
8
0
6
CONTINUOUS
10
-5.62
20
-0.0
30
0
11
-2.99
21
-0.0
31
0
0
LINE
8
0
6
CONTINUOUS
10
-5.62
20
-6.0
30
0
11
-2.99
21
6.0
31
0
0
ARC
8
0
6
CONTINUOUS
10
-4.751249803241882
20
7.17999963160182
30
0
40
2.12
50
270.0337775731743
51
326.1787620684295
0
ARC
8
0
6
CONTINUOUS
10
-3.8587501967581184
20
-7.17999963160182
30
0
40
2.12
50
90.03377757317426
51
146.1787620684295
0
LINE
8
0
6
CONTINUOUS
10
-1.49
20
-6.0
30
0
11
-4.13
21
-6.0
31
0
0
LINE
8
0
6
CONTINUOUS
10
-1.49
20
6.0
30
0
11
-4.13
21
6.0
31
0
0
LINE
8
0
6
CONTINUOUS
10
-4.06
20
-6.0
30
0
11
-4.06
21
6.0
31
0
0
LINE
8
0
6
CONTINUOUS
10
-4.13
20
-0.0
30
0
11
-1.49
21
-0.0
31
0
0
LINE
8
0
6
CONTINUOUS
10
-4.13
20
-6.0
30
0
11
-1.49
21
6.0
31
0
0
ARC
8
0
6
CONTINUOUS
10
-3.2512616221621795
20
7.179981990667081
30
0
40
2.12
50
269.76383321338017
51
326.1793359493827
0
ARC
8
0
6
CONTINUOUS
10
-2.3687501967581177
20
-7.17999963160182
30
0
40
2.12
50
90.03377757317429
51
146.1787620684295
0
LINE
8
0
6
CONTINUOUS
10
20.41
20
-6.0
30
0
11
17.78
21
-6.0
31
0
0
LINE
8
0
6
CONTINUOUS
10
20.41
20
6.0
30
0
11
17.78
21
6.0
31
0
0
LINE
8
0
6
CONTINUOUS
10
17.85
20
-6.0
30
0
11
17.85
21
6.0
31
0
0
LINE
8
0
6
CONTINUOUS
10
17.78
20
-0.0
30
0
11
20.41
21
-0.0
31
0
0
LINE
8
0
6
CONTINUOUS
10
17.78
20
-6.0
30
0
11
20.41
21
6.0
31
0
0
ARC
8
0
6
CONTINUOUS
10
18.64875019675812
20
7.17999963160182
30
0
40
2.12
50
270.03377757317423
51
326.1787620684295
0
ARC
8
0
6
CONTINUOUS
10
19.541249803241882
20
-7.17999963160182
30
0
40
2.12
50
90.03377757317432
51
146.17876206842948
0
LINE
8
0
6
CONTINUOUS
10
21.56
20
-6.0
30
0
11
18.93
21
-6.0
31
0
0
LINE
8
0
6
CONTINUOUS
10
21.56
20
6.0
30
0
11
18.93
21
6.0
31
0
0
LINE
8
0
6
CONTINUOUS
10
19.0
20
-6.0
30
0
11
19.0
21
6.0
31
0
0
LINE
8
0
6
CONTINUOUS
10
18.93
20
-0.0
30
0
11
21.56
21
-0.0
31
0
0
LINE
8
0
6
CONTINUOUS
10
18.93
20
-6.0
30
0
11
21.56
21
6.0
31
0
0
ARC
8
0
6
CONTINUOUS
10
19.798750196758117
20
7.17999963160182
30
0
40
2.12
50
270.0337775731743
51
326.1787620684295
0
ARC
8
0
6
CONTINUOUS
10
20.691249803241885
20
-7.17999963160182
30
0
40
2.12
50
90.03377757317432
51
146.17876206842953
0
LINE
8
0
6
CONTINUOUS
10
22.72
20
-6.0
30
0
11
20.08
21
-6.0
31
0
0
LINE
8
0
6
CONTINUOUS
10
22.72
20
6.0
30
0
11
20.08
21
6.0
31
0
0
LINE
8
0
6
CONTINUOUS
10
20.15
20
-6.0
30
0
11
20.15
21
6.0
31
0
0
LINE
8
0
6
CONTINUOUS
10
20.08
20
-0.0
30
0
11
22.72
21
-0.0
31
0
0
LINE
8
0
6
CONTINUOUS
10
20.08
20
-6.0
30
0
11
22.72
21
6.0
31
0
0
ARC
8
0
6
CONTINUOUS
10
20.958750196758118
20
7.17999963160182
30
0
40
2.12
50
270.0337775731743
51
326.1787620684295
0
ARC
8
0
6
CONTINUOUS
10
21.84126162216218
20
-7.179981990667081
30
0
40
2.12
50
89.76383321338014
51
146.1793359493827
0
ENDSEC
0
EOF