0
SECTION
2
HEADER
0
ENDSEC
0
SECTION
2
TABLES
0
TABLE
2
LTYPE
70
3
0
LTYPE
2
CONTINUOUS
70
0
3
Solid line
72
65
73
0
40
0.0
0
LTYPE
2
HIDDEN
70
0
3
hidden
72
65
73
2
40
9.524999999999999
49
6.35
49
-3.175
0
ENDTAB
0
TABLE
2
LAYER
70
1
0
LAYER
2
0
70
0
62
7
6
CONTINUOUS
0
ENDTAB
0
ENDSEC
0
SECTION
2
ENTITIES
0
LINE
8
0
6
CONTINUOUS
10
55.0
20
-10.0
30
0
11
55.0
21
0.0
31
0
0
LINE
8
0
6
CONTINUOUS
10
-55.0
20
-10.0
30
0
11
-55.0
21
0.0
31
0
0
LINE
8
0
6
CONTINUOUS
10
55.0
20
-10.0
30
0
11
-55.0
21
-10.0
31
0
0
LINE
8
0
6
CONTINUOUS
10
0.0
20
-10.0
30
0
11
0.0
21
0.0
31
0
0
LINE
8
0
6
CONTINUOUS
10
-55.0
20
0.0
30
0
11
55.0
21
0.0
31
0
0
LINE
8
0
6
HIDDEN
10
-55.0
20
-10.0
30
0
11
55.0
21
-10.0
31
0
0
LINE
8
0
6
HIDDEN
10
-55.0
20
0.0
30
0
11
-55.0
21
-10.0
31
0
0
LINE
8
0
6
HIDDEN
10
55.0
20
0.0
30
0
11
-55.0
21
0.0
31
0
0
LINE
8
0
6
HIDDEN
10
55.0
20
-10.0
30
0
11
55.0
21
0.0
31
0
0
ENDSEC
0
EOF