0
SECTION
2
HEADER
0
ENDSEC
0
SECTION
2
TABLES
0
TABLE
2
LTYPE
70
3
0
LTYPE
2
CONTINUOUS
70
0
3
Solid line
72
65
73
0
40
0.0
0
LTYPE
2
HIDDEN
70
0
3
hidden
72
65
73
2
40
9.524999999999999
49
6.35
49
-3.175
0
ENDTAB
0
TABLE
2
LAYER
70
1
0
LAYER
2
0
70
0
62
7
6
CONTINUOUS
0
ENDTAB
0
ENDSEC
0
SECTION
2
ENTITIES
0
LINE
8
0
6
CONTINUOUS
10
-7.5
20
-0.0
30
0
11
-7.5
21
200.0
31
0
0
LINE
8
0
6
CONTINUOUS
10
0.0
20
7.5
30
0
11
-100.0
21
7.5
31
0
0
LINE
8
0
6
CONTINUOUS
10
-15.0
20
-0.0
30
0
11
-15.0
21
200.0
31
0
0
LINE
8
0
6
CONTINUOUS
10
-100.0
20
15.0
30
0
11
0.0
21
15.0
31
0
0
LINE
8
0
6
CONTINUOUS
10
0.0
20
200.0
30
0
11
-100.0
21
200.0
31
0
0
LINE
8
0
6
CONTINUOUS
10
-100.0
20
200.0
30
0
11
-100.0
21
-0.0
31
0
0
LINE
8
0
6
CONTINUOUS
10
0.0
20
-0.0
30
0
11
0.0
21
200.0
31
0
0
LINE
8
0
6
CONTINUOUS
10
-100.0
20
0.0
30
0
11
0.0
21
0.0
31
0
0
LINE
8
0
6
CONTINUOUS
10
-30.0
20
15.0
30
0
11
-92.5
21
15.0
31
0
0
ARC
8
0
6
CONTINUOUS
10
-92.5
20
7.500000000000001
30
0
40
7.5
50
90.0
51
180.0
0
LINE
8
0
6
CONTINUOUS
10
-100.0
20
7.5
30
0
11
-100.0
21
0.0
31
0
0
LINE
8
0
6
CONTINUOUS
10
-100.0
20
0.0
30
0
11
-0.0
21
0.0
31
0
0
LINE
8
0
6
CONTINUOUS
10
0.0
20
0.0
30
0
11
0.0
21
200.0
31
0
0
LINE
8
0
6
CONTINUOUS
10
0.0
20
200.0
30
0
11
-7.5
21
200.0
31
0
0
ARC
8
0
6
CONTINUOUS
10
-7.500000000000001
20
192.5
30
0
40
7.5
50
90.0
51
180.0
0
LINE
8
0
6
CONTINUOUS
10
-15.0
20
192.5
30
0
11
-15.0
21
30.0
31
0
0
ARC
8
0
6
CONTINUOUS
10
-30.0
20
30.0
30
0
40
15.0
50
270.0
51
0.0
0
LINE
8
0
6
HIDDEN
10
-92.5
20
15.0
30
0
11
-30.0
21
15.0
31
0
0
LINE
8
0
6
HIDDEN
10
-15.0
20
30.0
30
0
11
-15.0
21
192.5
31
0
0
LINE
8
0
6
HIDDEN
10
-0.0
20
200.0
30
0
11
0.0
21
-0.0
31
0
0
LINE
8
0
6
HIDDEN
10
-0.0
20
-0.0
30
0
11
-100.0
21
-0.0
31
0
0
LINE
8
0
6
HIDDEN
10
-100.0
20
0.0
30
0
11
-100.0
21
7.5
31
0
0
ARC
8
0
6
HIDDEN
10
-30.0
20
30.0
30
0
40
15.0
50
270.0
51
0.0
0
ARC
8
0
6
HIDDEN
10
-92.5
20
7.500000000000001
30
0
40
7.5
50
90.0
51
180.0
0
LINE
8
0
6
HIDDEN
10
0.0
20
200.0
30
0
11
-7.5
21
200.0
31
0
0
ARC
8
0
6
HIDDEN
10
-7.500000000000001
20
192.5
30
0
40
7.5
50
90.0
51
180.0
0
ENDSEC
0
EOF