0
SECTION
2
HEADER
0
ENDSEC
0
SECTION
2
TABLES
0
TABLE
2
LTYPE
70
2
0
LTYPE
2
CONTINUOUS
70
0
3
Solid line
72
65
73
0
40
0.0
0
ENDTAB
0
TABLE
2
LAYER
70
1
0
LAYER
2
0
70
0
62
7
6
CONTINUOUS
0
ENDTAB
0
ENDSEC
0
SECTION
2
ENTITIES
0
LINE
8
0
6
CONTINUOUS
10
150.0
20
0.0
30
0
11
150.0
21
-40.0
31
0
0
LINE
8
0
6
CONTINUOUS
10
0.0
20
0.0
30
0
11
0.0
21
-40.0
31
0
0
LINE
8
0
6
CONTINUOUS
10
-0.0
20
0.0
30
0
11
150.0
21
0.0
31
0
0
LINE
8
0
6
CONTINUOUS
10
1.75
20
-40.0
30
0
11
5.38
21
-40.0
31
0
0
LINE
8
0
6
CONTINUOUS
10
5.38
20
-40.0
30
0
11
5.38
21
-39.0
31
0
0
LINE
8
0
6
CONTINUOUS
10
5.38
20
-39.0
30
0
11
1.75
21
-39.0
31
0
0
ARC
8
0
6
CONTINUOUS
10
1.75
20
-38.25
30
0
40
0.75
50
180.0
51
270.0
0
LINE
8
0
6
CONTINUOUS
10
1.0
20
-38.25
30
0
11
1.0
21
-1.75
31
0
0
ARC
8
0
6
CONTINUOUS
10
1.75
20
-1.75
30
0
40
0.75
50
90.0
51
180.0
0
LINE
8
0
6
CONTINUOUS
10
1.75
20
-1.0
30
0
11
12.26
21
-1.0
31
0
0
ARC
8
0
6
CONTINUOUS
10
12.255629559664165
20
-1.9599900516418236
30
0
40
0.96
50
41.01371277229995
51
89.73915765537288
0
ARC
8
0
6
CONTINUOUS
10
14.423061756462355
20
-0.34001375411787516
30
0
40
1.75
50
214.4513611969887
51
270.2271617790923
0
LINE
8
0
6
CONTINUOUS
10
14.43
20
-2.09
30
0
11
60.57
21
-2.09
31
0
0
ARC
8
0
6
CONTINUOUS
10
60.57693824353765
20
-0.34001375411787493
30
0
40
1.75
50
269.77283822090766
51
325.54863880301133
0
ARC
8
0
6
CONTINUOUS
10
62.65588317693018
20
-1.7642264216940182
30
0
40
0.77
50
82.97920101264118
51
145.671949465612
0
LINE
8
0
6
CONTINUOUS
10
62.75
20
-1.0
30
0
11
73.25
21
-1.0
31
0
0
ARC
8
0
6
CONTINUOUS
10
73.25
20
-1.75
30
0
40
0.75
50
0.0
51
90.0
0
LINE
8
0
6
CONTINUOUS
10
74.0
20
-1.75
30
0
11
74.0
21
-38.25
31
0
0
ARC
8
0
6
CONTINUOUS
10
73.25
20
-38.25
30
0
40
0.75
50
270.0
51
0.0
0
LINE
8
0
6
CONTINUOUS
10
73.25
20
-39.0
30
0
11
69.62
21
-39.0
31
0
0
LINE
8
0
6
CONTINUOUS
10
69.62
20
-39.0
30
0
11
69.62
21
-40.0
31
0
0
LINE
8
0
6
CONTINUOUS
10
69.62
20
-40.0
30
0
11
73.25
21
-40.0
31
0
0
ARC
8
0
6
CONTINUOUS
10
73.25
20
-38.25
30
0
40
1.75
50
270.0
51
0.0
0
LINE
8
0
6
CONTINUOUS
10
75.0
20
-38.25
30
0
11
75.0
21
-1.75
31
0
0
ARC
8
0
6
CONTINUOUS
10
73.25
20
-1.75
30
0
40
1.75
50
0.0
51
90.0
0
LINE
8
0
6
CONTINUOUS
10
73.25
20
-0.0
30
0
11
62.64
21
-0.0
31
0
0
ARC
8
0
6
CONTINUOUS
10
62.633061756462354
20
-1.7499862458821247
30
0
40
1.75
50
89.77283822090767
51
145.54863880301136
0
ARC
8
0
6
CONTINUOUS
10
60.56043460116363
20
-0.33426838432175743
30
0
40
0.76
50
263.9247233076406
51
325.9322249632823
0
LINE
8
0
6
CONTINUOUS
10
60.48
20
-1.09
30
0
11
14.63
21
-1.09
31
0
0
ARC
8
0
6
CONTINUOUS
10
14.632498944066228
20
0.09999737616456672
30
0
40
1.19
50
226.27676134440622
51
269.87968146767554
0
ARC
8
0
6
CONTINUOUS
10
12.366938243537646
20
-1.7499862458821247
30
0
40
1.75
50
34.45136119698869
51
90.22716177909234
0
LINE
8
0
6
CONTINUOUS
10
12.36
20
-0.0
30
0
11
1.75
21
0.0
31
0
0
ARC
8
0
6
CONTINUOUS
10
1.75
20
-1.75
30
0
40
1.75
50
90.0
51
180.0
0
LINE
8
0
6
CONTINUOUS
10
0.0
20
-1.75
30
0
11
-0.0
21
-38.25
31
0
0
ARC
8
0
6
CONTINUOUS
10
1.75
20
-38.25
30
0
40
1.75
50
180.0
51
270.0
0
ENDSEC
0
EOF