0
SECTION
2
HEADER
0
ENDSEC
0
SECTION
2
TABLES
0
TABLE
2
LTYPE
70
3
0
LTYPE
2
CONTINUOUS
70
0
3
Solid line
72
65
73
0
40
0.0
0
LTYPE
2
CENTER
70
0
3
center
72
65
73
4
40
28.575
49
12.7
49
-6.35
49
3.175
49
-6.35
0
ENDTAB
0
TABLE
2
LAYER
70
1
0
LAYER
2
0
70
0
62
7
6
CONTINUOUS
0
ENDTAB
0
ENDSEC
0
SECTION
2
ENTITIES
0
LINE
8
0
6
CONTINUOUS
10
-115.0
20
-130.0
30
0
11
-115.0
21
130.0
31
0
0
LINE
8
0
6
CONTINUOUS
10
-125.0
20
-130.0
30
0
11
-125.0
21
130.0
31
0
0
LINE
8
0
6
CONTINUOUS
10
115.0
20
130.0
30
0
11
115.0
21
-130.0
31
0
0
LINE
8
0
6
CONTINUOUS
10
125.0
20
130.0
30
0
11
125.0
21
-130.0
31
0
0
LINE
8
0
6
CONTINUOUS
10
131.08
20
115.0
30
0
11
-130.0
21
115.0
31
0
0
LINE
8
0
6
CONTINUOUS
10
131.08
20
-115.0
30
0
11
-130.0
21
-115.0
31
0
0
LINE
8
0
6
CONTINUOUS
10
131.08
20
-125.0
30
0
11
-130.0
21
-125.0
31
0
0
LINE
8
0
6
CONTINUOUS
10
131.08
20
125.0
30
0
11
-130.0
21
125.0
31
0
0
LINE
8
0
6
CONTINUOUS
10
0.0
20
-130.0
30
0
11
0.0
21
130.0
31
0
0
LINE
8
0
6
CONTINUOUS
10
-130.0
20
0.0
30
0
11
131.08
21
0.0
31
0
0
ARC
8
0
6
CONTINUOUS
10
101.5
20
101.5
30
0
40
13.5
50
0.0
51
90.0
0
LINE
8
0
6
CONTINUOUS
10
115.0
20
101.5
30
0
11
115.0
21
-101.5
31
0
0
ARC
8
0
6
CONTINUOUS
10
101.5
20
-101.5
30
0
40
13.5
50
270.0
51
0.0
0
LINE
8
0
6
CONTINUOUS
10
101.5
20
-115.0
30
0
11
-101.5
21
-115.0
31
0
0
ARC
8
0
6
CONTINUOUS
10
-101.5
20
-101.5
30
0
40
13.5
50
180.0
51
270.0
0
LINE
8
0
6
CONTINUOUS
10
-115.0
20
-101.5
30
0
11
-115.0
21
101.5
31
0
0
ARC
8
0
6
CONTINUOUS
10
-101.5
20
101.5
30
0
40
13.5
50
90.0
51
180.0
0
LINE
8
0
6
CONTINUOUS
10
-101.5
20
115.0
30
0
11
101.5
21
115.0
31
0
0
ARC
8
0
6
CONTINUOUS
10
110.0
20
110.0
30
0
40
15.0
50
0.0
51
90.0
0
LINE
8
0
6
CONTINUOUS
10
110.0
20
125.0
30
0
11
-110.0
21
125.0
31
0
0
ARC
8
0
6
CONTINUOUS
10
-110.0
20
110.0
30
0
40
15.0
50
90.0
51
180.0
0
LINE
8
0
6
CONTINUOUS
10
-125.0
20
110.0
30
0
11
-125.0
21
-110.0
31
0
0
ARC
8
0
6
CONTINUOUS
10
-110.0
20
-110.0
30
0
40
15.0
50
180.0
51
270.0
0
LINE
8
0
6
CONTINUOUS
10
-110.0
20
-125.0
30
0
11
110.0
21
-125.0
31
0
0
ARC
8
0
6
CONTINUOUS
10
110.0
20
-110.0
30
0
40
15.0
50
270.0
51
0.0
0
LINE
8
0
6
CONTINUOUS
10
125.0
20
-110.0
30
0
11
125.0
21
110.0
31
0
0
LINE
8
0
6
CONTINUOUS
10
-110.0
20
125.0
30
0
11
110.0
21
125.0
31
0
0
LINE
8
0
6
CONTINUOUS
10
-125.0
20
-110.0
30
0
11
-125.0
21
110.0
31
0
0
LINE
8
0
6
CONTINUOUS
10
110.0
20
-125.0
30
0
11
-110.0
21
-125.0
31
0
0
LINE
8
0
6
CONTINUOUS
10
125.0
20
110.0
30
0
11
125.0
21
-110.0
31
0
0
LINE
8
0
6
CONTINUOUS
10
-101.5
20
115.0
30
0
11
101.5
21
115.0
31
0
0
LINE
8
0
6
CONTINUOUS
10
-115.0
20
-101.5
30
0
11
-115.0
21
101.5
31
0
0
LINE
8
0
6
CONTINUOUS
10
101.5
20
-115.0
30
0
11
-101.5
21
-115.0
31
0
0
LINE
8
0
6
CONTINUOUS
10
115.0
20
101.5
30
0
11
115.0
21
-101.5
31
0
0
ARC
8
0
6
CONTINUOUS
10
-110.0
20
110.0
30
0
40
15.0
50
90.0
51
180.0
0
ARC
8
0
6
CONTINUOUS
10
110.0
20
110.0
30
0
40
15.0
50
0.0
51
90.0
0
ARC
8
0
6
CONTINUOUS
10
-110.0
20
-110.0
30
0
40
15.0
50
180.0
51
270.0
0
ARC
8
0
6
CONTINUOUS
10
110.0
20
-110.0
30
0
40
15.0
50
270.0
51
0.0
0
ARC
8
0
6
CONTINUOUS
10
-101.5
20
101.5
30
0
40
13.5
50
90.0
51
180.0
0
ARC
8
0
6
CONTINUOUS
10
101.5
20
101.5
30
0
40
13.5
50
0.0
51
90.0
0
ARC
8
0
6
CONTINUOUS
10
101.5
20
-101.5
30
0
40
13.5
50
270.0
51
0.0
0
ARC
8
0
6
CONTINUOUS
10
-101.5
20
-101.5
30
0
40
13.5
50
180.0
51
270.0
0
LINE
8
0
6
CENTER
10
-130.0
20
0.0
30
0
11
131.08
21
0.0
31
0
0
LINE
8
0
6
CENTER
10
-0.0
20
130.0
30
0
11
-0.0
21
-130.0
31
0
0
ENDSEC
0
EOF