0
SECTION
2
HEADER
0
ENDSEC
0
SECTION
2
TABLES
0
TABLE
2
LTYPE
70
3
0
LTYPE
2
CONTINUOUS
70
0
3
Solid line
72
65
73
0
40
0.0
0
LTYPE
2
CENTER
70
0
3
center
72
65
73
4
40
28.575
49
12.7
49
-6.35
49
3.175
49
-6.35
0
ENDTAB
0
TABLE
2
LAYER
70
1
0
LAYER
2
0
70
0
62
7
6
CONTINUOUS
0
ENDTAB
0
ENDSEC
0
SECTION
2
ENTITIES
0
LINE
8
0
6
CONTINUOUS
10
67.0
20
191.77
30
0
11
67.0
21
-110.32
31
0
0
LINE
8
0
6
CONTINUOUS
10
-67.0
20
191.77
30
0
11
-67.0
21
-110.32
31
0
0
LINE
8
0
6
CONTINUOUS
10
67.0
20
191.77
30
0
11
-67.0
21
191.77
31
0
0
LINE
8
0
6
CONTINUOUS
10
67.0
20
-110.32
30
0
11
-67.0
21
-110.32
31
0
0
LINE
8
0
6
CONTINUOUS
10
67.0
20
-92.89
30
0
11
-67.0
21
-92.89
31
0
0
LINE
8
0
6
CONTINUOUS
10
67.0
20
174.25
30
0
11
-67.0
21
174.25
31
0
0
LINE
8
0
6
CONTINUOUS
10
30.5
20
-110.32
30
0
11
30.5
21
191.77
31
0
0
LINE
8
0
6
CONTINUOUS
10
-30.5
20
191.77
30
0
11
-30.5
21
-110.32
31
0
0
LINE
8
0
6
CONTINUOUS
10
61.0
20
191.77
30
0
11
61.0
21
-110.32
31
0
0
LINE
8
0
6
CONTINUOUS
10
-61.0
20
191.77
30
0
11
-61.0
21
-110.32
31
0
0
LINE
8
0
6
CONTINUOUS
10
-67.0
20
185.68
30
0
11
67.0
21
185.68
31
0
0
LINE
8
0
6
CONTINUOUS
10
-5.2
20
191.77
30
0
11
-5.2
21
-110.32
31
0
0
LINE
8
0
6
CONTINUOUS
10
5.2
20
191.77
30
0
11
5.2
21
-110.32
31
0
0
LINE
8
0
6
CONTINUOUS
10
67.0
20
-104.32
30
0
11
-67.0
21
-104.32
31
0
0
LINE
8
0
6
CONTINUOUS
10
0.0
20
191.77
30
0
11
0.0
21
-110.32
31
0
0
LINE
8
0
6
CONTINUOUS
10
-67.0
20
40.68
30
0
11
67.0
21
40.68
31
0
0
LINE
8
0
6
CONTINUOUS
10
-61.0
20
-104.32
30
0
11
61.0
21
-104.32
31
0
0
LINE
8
0
6
CONTINUOUS
10
61.0
20
-104.32
30
0
11
61.0
21
-92.87
31
0
0
LINE
8
0
6
CONTINUOUS
10
61.0
20
-92.87
30
0
11
30.63
21
-88.62
31
0
0
LINE
8
0
6
CONTINUOUS
10
30.63
20
-88.62
30
0
11
9.63
21
-85.68
31
0
0
ARC
8
0
6
CONTINUOUS
10
15.599999158086588
20
-77.16418471005592
30
0
40
10.4
50
179.97694555469613
51
234.96768282003654
0
LINE
8
0
6
CONTINUOUS
10
5.2
20
-77.16
30
0
11
5.2
21
158.92
31
0
0
ARC
8
0
6
CONTINUOUS
10
15.599999968497267
20
158.92080947937677
30
0
40
10.4
50
129.46278669300366
51
180.00445959153262
0
LINE
8
0
6
CONTINUOUS
10
8.99
20
166.95
30
0
11
30.63
21
169.98
31
0
0
LINE
8
0
6
CONTINUOUS
10
30.63
20
169.98
30
0
11
61.0
21
174.23
31
0
0
LINE
8
0
6
CONTINUOUS
10
61.0
20
174.23
30
0
11
61.0
21
185.68
31
0
0
LINE
8
0
6
CONTINUOUS
10
61.0
20
185.68
30
0
11
-61.0
21
185.68
31
0
0
LINE
8
0
6
CONTINUOUS
10
-61.0
20
185.68
30
0
11
-61.0
21
174.23
31
0
0
LINE
8
0
6
CONTINUOUS
10
-61.0
20
174.23
30
0
11
-30.63
21
169.98
31
0
0
LINE
8
0
6
CONTINUOUS
10
-30.63
20
169.98
30
0
11
-7.53
21
166.75
31
0
0
ARC
8
0
6
CONTINUOUS
10
-15.599999999371583
20
160.1898856709549
30
0
40
10.4
50
0.0006298626691863226
51
39.10770952964496
0
LINE
8
0
6
CONTINUOUS
10
-5.2
20
160.19
30
0
11
-5.2
21
-78.92
31
0
0
ARC
8
0
6
CONTINUOUS
10
-15.599999771859979
20
-78.92217837380367
30
0
40
10.4
50
321.6851179962704
51
0.012001117890863054
0
LINE
8
0
6
CONTINUOUS
10
-7.44
20
-85.37
30
0
11
-30.63
21
-88.62
31
0
0
LINE
8
0
6
CONTINUOUS
10
-30.63
20
-88.62
30
0
11
-61.0
21
-92.87
31
0
0
LINE
8
0
6
CONTINUOUS
10
-61.0
20
-92.87
30
0
11
-61.0
21
-104.32
31
0
0
LINE
8
0
6
CONTINUOUS
10
61.0
20
-104.32
30
0
11
61.0
21
-92.87
31
0
0
LINE
8
0
6
CONTINUOUS
10
5.2
20
-77.16
30
0
11
5.2
21
158.92
31
0
0
LINE
8
0
6
CONTINUOUS
10
61.0
20
-104.32
30
0
11
-61.0
21
-104.32
31
0
0
LINE
8
0
6
CONTINUOUS
10
-61.0
20
-104.32
30
0
11
-61.0
21
-92.87
31
0
0
ARC
8
0
6
CONTINUOUS
10
-15.599999771859979
20
-78.92217837380367
30
0
40
10.4
50
321.6851179962704
51
0.012001117890863054
0
LINE
8
0
6
CONTINUOUS
10
-5.2
20
-78.92
30
0
11
-5.2
21
160.19
31
0
0
LINE
8
0
6
CONTINUOUS
10
61.0
20
174.23
30
0
11
30.63
21
169.98
31
0
0
ARC
8
0
6
CONTINUOUS
10
15.599999968497267
20
158.92080947937677
30
0
40
10.4
50
129.46278669300366
51
180.00445959153262
0
LINE
8
0
6
CONTINUOUS
10
61.0
20
185.68
30
0
11
-61.0
21
185.68
31
0
0
LINE
8
0
6
CONTINUOUS
10
-61.0
20
185.68
30
0
11
-61.0
21
174.23
31
0
0
LINE
8
0
6
CONTINUOUS
10
-61.0
20
174.23
30
0
11
-30.63
21
169.98
31
0
0
LINE
8
0
6
CONTINUOUS
10
-61.0
20
-92.87
30
0
11
-30.63
21
-88.62
31
0
0
LINE
8
0
6
CONTINUOUS
10
61.0
20
-92.87
30
0
11
30.63
21
-88.62
31
0
0
ARC
8
0
6
CONTINUOUS
10
15.599999158086588
20
-77.16418471005592
30
0
40
10.4
50
179.97694555469613
51
234.96768282003654
0
ARC
8
0
6
CONTINUOUS
10
-15.599999999371583
20
160.1898856709549
30
0
40
10.4
50
0.0006298626691863226
51
39.10770952964496
0
LINE
8
0
6
CONTINUOUS
10
61.0
20
185.68
30
0
11
61.0
21
174.23
31
0
0
LINE
8
0
6
CONTINUOUS
10
-30.63
20
-88.62
30
0
11
-7.44
21
-85.37
31
0
0
LINE
8
0
6
CONTINUOUS
10
30.63
20
-88.62
30
0
11
9.63
21
-85.68
31
0
0
LINE
8
0
6
CONTINUOUS
10
30.63
20
169.98
30
0
11
8.99
21
166.95
31
0
0
LINE
8
0
6
CONTINUOUS
10
-30.63
20
169.98
30
0
11
-7.53
21
166.75
31
0
0
LINE
8
0
6
CENTER
10
-0.0
20
-110.32
30
0
11
-0.0
21
191.77
31
0
0
LINE
8
0
6
CENTER
10
-67.0
20
40.66
30
0
11
67.0
21
40.66
31
0
0
ENDSEC
0
EOF