0
SECTION
2
HEADER
0
ENDSEC
0
SECTION
2
TABLES
0
TABLE
2
LTYPE
70
3
0
LTYPE
2
CONTINUOUS
70
0
3
Solid line
72
65
73
0
40
0.0
0
LTYPE
2
CENTER
70
0
3
center
72
65
73
4
40
28.575
49
12.7
49
-6.35
49
3.175
49
-6.35
0
ENDTAB
0
TABLE
2
LAYER
70
1
0
LAYER
2
0
70
0
62
7
6
CONTINUOUS
0
ENDTAB
0
ENDSEC
0
SECTION
2
ENTITIES
0
LINE
8
0
6
CONTINUOUS
10
16.0
20
9.1
30
0
11
16.0
21
-225.9
31
0
0
LINE
8
0
6
CONTINUOUS
10
-16.0
20
9.1
30
0
11
-16.0
21
-225.9
31
0
0
LINE
8
0
6
CONTINUOUS
10
3.52
20
9.1
30
0
11
3.52
21
-225.9
31
0
0
LINE
8
0
6
CONTINUOUS
10
4.26
20
9.1
30
0
11
4.26
21
-225.9
31
0
0
LINE
8
0
6
CONTINUOUS
10
-3.52
20
-225.9
30
0
11
-3.52
21
9.1
31
0
0
LINE
8
0
6
CONTINUOUS
10
-4.26
20
-225.9
30
0
11
-4.26
21
9.1
31
0
0
LINE
8
0
6
CONTINUOUS
10
7.65
20
9.1
30
0
11
7.65
21
-225.9
31
0
0
LINE
8
0
6
CONTINUOUS
10
-7.65
20
9.1
30
0
11
-7.65
21
-225.9
31
0
0
LINE
8
0
6
CONTINUOUS
10
-16.0
20
-215.0
30
0
11
16.0
21
-215.0
31
0
0
LINE
8
0
6
CONTINUOUS
10
-16.0
20
-220.0
30
0
11
16.0
21
-220.0
31
0
0
LINE
8
0
6
CONTINUOUS
10
5.0
20
-225.9
30
0
11
5.0
21
9.1
31
0
0
LINE
8
0
6
CONTINUOUS
10
-5.0
20
9.1
30
0
11
-5.0
21
-225.9
31
0
0
LINE
8
0
6
CONTINUOUS
10
0.0
20
-225.9
30
0
11
0.0
21
9.1
31
0
0
LINE
8
0
6
CONTINUOUS
10
-16.0
20
0.0
30
0
11
16.0
21
0.0
31
0
0
LINE
8
0
6
CONTINUOUS
10
-4.0
20
-3.55
30
0
11
-4.0
21
-215.0
31
0
0
LINE
8
0
6
CONTINUOUS
10
4.0
20
-215.0
30
0
11
4.0
21
-3.55
31
0
0
LINE
8
0
6
CONTINUOUS
10
-4.0
20
-215.0
30
0
11
-0.0
21
-220.0
31
0
0
LINE
8
0
6
CONTINUOUS
10
-0.0
20
-220.0
30
0
11
4.0
21
-215.0
31
0
0
LINE
8
0
6
CONTINUOUS
10
5.0
20
-67.74
30
0
11
5.0
21
-71.2
31
0
0
LINE
8
0
6
CONTINUOUS
10
-5.0
20
-67.74
30
0
11
-5.0
21
-71.2
31
0
0
LINE
8
0
6
CONTINUOUS
10
0.0
20
-71.2
30
0
11
0.0
21
-67.74
31
0
0
LINE
8
0
6
CONTINUOUS
10
-5.0
20
-70.0
30
0
11
5.0
21
-70.0
31
0
0
LINE
8
0
6
CONTINUOUS
10
4.25
20
-68.95
30
0
11
5.0
21
-68.31
31
0
0
LINE
8
0
6
CONTINUOUS
10
-5.0
20
-70.64
30
0
11
-4.25
21
-70.0
31
0
0
LINE
8
0
6
CONTINUOUS
10
5.0
20
-68.31
30
0
11
-5.0
21
-70.64
31
0
0
LINE
8
0
6
CENTER
10
-0.0
20
9.1
30
0
11
-0.0
21
-225.9
31
0
0
LINE
8
0
6
CONTINUOUS
10
5.0
20
-211.99
30
0
11
5.0
21
-215.45
31
0
0
LINE
8
0
6
CONTINUOUS
10
-5.0
20
-211.99
30
0
11
-5.0
21
-215.45
31
0
0
LINE
8
0
6
CONTINUOUS
10
-0.0
20
-215.45
30
0
11
-0.0
21
-211.99
31
0
0
LINE
8
0
6
CONTINUOUS
10
-5.0
20
-214.25
30
0
11
5.0
21
-214.25
31
0
0
LINE
8
0
6
CONTINUOUS
10
4.25
20
-213.21
30
0
11
5.0
21
-212.57
31
0
0
LINE
8
0
6
CONTINUOUS
10
-5.0
20
-214.89
30
0
11
-4.25
21
-214.25
31
0
0
LINE
8
0
6
CONTINUOUS
10
5.0
20
-212.57
30
0
11
-5.0
21
-214.89
31
0
0
LINE
8
0
6
CONTINUOUS
10
5.0
20
-73.08
30
0
11
5.0
21
-76.54
31
0
0
LINE
8
0
6
CONTINUOUS
10
-5.0
20
-73.08
30
0
11
-5.0
21
-76.54
31
0
0
LINE
8
0
6
CONTINUOUS
10
0.0
20
-76.54
30
0
11
0.0
21
-73.08
31
0
0
LINE
8
0
6
CONTINUOUS
10
-5.0
20
-75.34
30
0
11
5.0
21
-75.34
31
0
0
LINE
8
0
6
CONTINUOUS
10
4.25
20
-74.29
30
0
11
5.0
21
-73.65
31
0
0
LINE
8
0
6
CONTINUOUS
10
-5.0
20
-75.98
30
0
11
-4.25
21
-75.34
31
0
0
LINE
8
0
6
CONTINUOUS
10
5.0
20
-73.65
30
0
11
-5.0
21
-75.98
31
0
0
LINE
8
0
6
CONTINUOUS
10
5.0
20
-78.42
30
0
11
5.0
21
-81.88
31
0
0
LINE
8
0
6
CONTINUOUS
10
-5.0
20
-78.42
30
0
11
-5.0
21
-81.88
31
0
0
LINE
8
0
6
CONTINUOUS
10
0.0
20
-81.88
30
0
11
0.0
21
-78.42
31
0
0
LINE
8
0
6
CONTINUOUS
10
-5.0
20
-80.69
30
0
11
5.0
21
-80.69
31
0
0
LINE
8
0
6
CONTINUOUS
10
4.25
20
-79.64
30
0
11
5.0
21
-79.0
31
0
0
LINE
8
0
6
CONTINUOUS
10
-5.0
20
-81.33
30
0
11
-4.25
21
-80.69
31
0
0
LINE
8
0
6
CONTINUOUS
10
5.0
20
-79.0
30
0
11
-5.0
21
-81.33
31
0
0
LINE
8
0
6
CONTINUOUS
10
5.0
20
-83.77
30
0
11
5.0
21
-87.23
31
0
0
LINE
8
0
6
CONTINUOUS
10
-5.0
20
-83.77
30
0
11
-5.0
21
-87.23
31
0
0
LINE
8
0
6
CONTINUOUS
10
0.0
20
-87.23
30
0
11
0.0
21
-83.77
31
0
0
LINE
8
0
6
CONTINUOUS
10
-5.0
20
-86.03
30
0
11
5.0
21
-86.03
31
0
0
LINE
8
0
6
CONTINUOUS
10
4.25
20
-84.98
30
0
11
5.0
21
-84.34
31
0
0
LINE
8
0
6
CONTINUOUS
10
-5.0
20
-86.67
30
0
11
-4.25
21
-86.03
31
0
0
LINE
8
0
6
CONTINUOUS
10
5.0
20
-84.34
30
0
11
-5.0
21
-86.67
31
0
0
LINE
8
0
6
CONTINUOUS
10
5.0
20
-89.11
30
0
11
5.0
21
-92.57
31
0
0
LINE
8
0
6
CONTINUOUS
10
-5.0
20
-89.11
30
0
11
-5.0
21
-92.57
31
0
0
LINE
8
0
6
CONTINUOUS
10
0.0
20
-92.57
30
0
11
0.0
21
-89.11
31
0
0
LINE
8
0
6
CONTINUOUS
10
-5.0
20
-91.37
30
0
11
5.0
21
-91.37
31
0
0
LINE
8
0
6
CONTINUOUS
10
4.25
20
-90.32
30
0
11
5.0
21
-89.68
31
0
0
LINE
8
0
6
CONTINUOUS
10
-5.0
20
-92.01
30
0
11
-4.25
21
-91.37
31
0
0
LINE
8
0
6
CONTINUOUS
10
5.0
20
-89.68
30
0
11
-5.0
21
-92.01
31
0
0
LINE
8
0
6
CONTINUOUS
10
5.0
20
-94.45
30
0
11
5.0
21
-97.91
31
0
0
LINE
8
0
6
CONTINUOUS
10
-5.0
20
-94.45
30
0
11
-5.0
21
-97.91
31
0
0
LINE
8
0
6
CONTINUOUS
10
0.0
20
-97.91
30
0
11
0.0
21
-94.45
31
0
0
LINE
8
0
6
CONTINUOUS
10
-5.0
20
-96.71
30
0
11
5.0
21
-96.71
31
0
0
LINE
8
0
6
CONTINUOUS
10
4.25
20
-95.67
30
0
11
5.0
21
-95.03
31
0
0
LINE
8
0
6
CONTINUOUS
10
-5.0
20
-97.35
30
0
11
-4.25
21
-96.71
31
0
0
LINE
8
0
6
CONTINUOUS
10
5.0
20
-95.03
30
0
11
-5.0
21
-97.35
31
0
0
LINE
8
0
6
CONTINUOUS
10
5.0
20
-99.8
30
0
11
5.0
21
-103.26
31
0
0
LINE
8
0
6
CONTINUOUS
10
-5.0
20
-99.8
30
0
11
-5.0
21
-103.26
31
0
0
LINE
8
0
6
CONTINUOUS
10
0.0
20
-103.26
30
0
11
0.0
21
-99.8
31
0
0
LINE
8
0
6
CONTINUOUS
10
-5.0
20
-102.06
30
0
11
5.0
21
-102.06
31
0
0
LINE
8
0
6
CONTINUOUS
10
4.25
20
-101.01
30
0
11
5.0
21
-100.37
31
0
0
LINE
8
0
6
CONTINUOUS
10
-5.0
20
-102.7
30
0
11
-4.25
21
-102.06
31
0
0
LINE
8
0
6
CONTINUOUS
10
5.0
20
-100.37
30
0
11
-5.0
21
-102.7
31
0
0
LINE
8
0
6
CONTINUOUS
10
5.0
20
-105.14
30
0
11
5.0
21
-108.6
31
0
0
LINE
8
0
6
CONTINUOUS
10
-5.0
20
-105.14
30
0
11
-5.0
21
-108.6
31
0
0
LINE
8
0
6
CONTINUOUS
10
0.0
20
-108.6
30
0
11
0.0
21
-105.14
31
0
0
LINE
8
0
6
CONTINUOUS
10
-5.0
20
-107.4
30
0
11
5.0
21
-107.4
31
0
0
LINE
8
0
6
CONTINUOUS
10
4.25
20
-106.35
30
0
11
5.0
21
-105.71
31
0
0
LINE
8
0
6
CONTINUOUS
10
-5.0
20
-108.04
30
0
11
-4.25
21
-107.4
31
0
0
LINE
8
0
6
CONTINUOUS
10
5.0
20
-105.71
30
0
11
-5.0
21
-108.04
31
0
0
LINE
8
0
6
CONTINUOUS
10
5.0
20
-110.48
30
0
11
5.0
21
-113.94
31
0
0
LINE
8
0
6
CONTINUOUS
10
-5.0
20
-110.48
30
0
11
-5.0
21
-113.94
31
0
0
LINE
8
0
6
CONTINUOUS
10
0.0
20
-113.94
30
0
11
0.0
21
-110.48
31
0
0
LINE
8
0
6
CONTINUOUS
10
-5.0
20
-112.74
30
0
11
5.0
21
-112.74
31
0
0
LINE
8
0
6
CONTINUOUS
10
4.25
20
-111.69
30
0
11
5.0
21
-111.05
31
0
0
LINE
8
0
6
CONTINUOUS
10
-5.0
20
-113.38
30
0
11
-4.25
21
-112.74
31
0
0
LINE
8
0
6
CONTINUOUS
10
5.0
20
-111.05
30
0
11
-5.0
21
-113.38
31
0
0
LINE
8
0
6
CONTINUOUS
10
5.0
20
-115.82
30
0
11
5.0
21
-119.28
31
0
0
LINE
8
0
6
CONTINUOUS
10
-5.0
20
-115.82
30
0
11
-5.0
21
-119.28
31
0
0
LINE
8
0
6
CONTINUOUS
10
0.0
20
-119.28
30
0
11
0.0
21
-115.82
31
0
0
LINE
8
0
6
CONTINUOUS
10
-5.0
20
-118.08
30
0
11
5.0
21
-118.08
31
0
0
LINE
8
0
6
CONTINUOUS
10
4.25
20
-117.04
30
0
11
5.0
21
-116.4
31
0
0
LINE
8
0
6
CONTINUOUS
10
-5.0
20
-118.72
30
0
11
-4.25
21
-118.08
31
0
0
LINE
8
0
6
CONTINUOUS
10
5.0
20
-116.4
30
0
11
-5.0
21
-118.72
31
0
0
LINE
8
0
6
CONTINUOUS
10
5.0
20
-121.17
30
0
11
5.0
21
-124.63
31
0
0
LINE
8
0
6
CONTINUOUS
10
-5.0
20
-121.17
30
0
11
-5.0
21
-124.63
31
0
0
LINE
8
0
6
CONTINUOUS
10
0.0
20
-124.63
30
0
11
0.0
21
-121.17
31
0
0
LINE
8
0
6
CONTINUOUS
10
-5.0
20
-123.43
30
0
11
5.0
21
-123.43
31
0
0
LINE
8
0
6
CONTINUOUS
10
4.25
20
-122.38
30
0
11
5.0
21
-121.74
31
0
0
LINE
8
0
6
CONTINUOUS
10
-5.0
20
-124.07
30
0
11
-4.25
21
-123.43
31
0
0
LINE
8
0
6
CONTINUOUS
10
5.0
20
-121.74
30
0
11
-5.0
21
-124.07
31
0
0
LINE
8
0
6
CONTINUOUS
10
4.26
20
-214.19
30
0
11
4.26
21
-217.14
31
0
0
LINE
8
0
6
CONTINUOUS
10
-4.26
20
-214.19
30
0
11
-4.26
21
-217.14
31
0
0
LINE
8
0
6
CONTINUOUS
10
-0.0
20
-217.14
30
0
11
-0.0
21
-214.19
31
0
0
LINE
8
0
6
CONTINUOUS
10
-4.26
20
-216.02
30
0
11
4.26
21
-216.02
31
0
0
LINE
8
0
6
CONTINUOUS
10
3.51
20
-215.31
30
0
11
4.26
21
-214.67
31
0
0
LINE
8
0
6
CONTINUOUS
10
-4.26
20
-216.66
30
0
11
-3.51
21
-216.02
31
0
0
LINE
8
0
6
CONTINUOUS
10
4.26
20
-214.67
30
0
11
-4.26
21
-216.66
31
0
0
LINE
8
0
6
CONTINUOUS
10
3.52
20
-216.67
30
0
11
3.52
21
-219.11
31
0
0
LINE
8
0
6
CONTINUOUS
10
-3.52
20
-216.67
30
0
11
-3.52
21
-219.11
31
0
0
LINE
8
0
6
CONTINUOUS
10
-0.0
20
-219.11
30
0
11
-0.0
21
-216.67
31
0
0
LINE
8
0
6
CONTINUOUS
10
-3.52
20
-218.07
30
0
11
3.52
21
-218.07
31
0
0
LINE
8
0
6
CONTINUOUS
10
2.77
20
-217.71
30
0
11
3.52
21
-217.07
31
0
0
LINE
8
0
6
CONTINUOUS
10
-3.52
20
-218.71
30
0
11
-2.77
21
-218.07
31
0
0
LINE
8
0
6
CONTINUOUS
10
3.52
20
-217.07
30
0
11
-3.52
21
-218.71
31
0
0
LINE
8
0
6
CONTINUOUS
10
-16.0
20
-0.0
30
0
11
16.0
21
-0.0
31
0
0
LINE
8
0
6
CONTINUOUS
10
16.0
20
-0.0
30
0
11
16.0
21
1.0
31
0
0
LINE
8
0
6
CONTINUOUS
10
16.0
20
1.0
30
0
11
15.0
21
1.0
31
0
0
LINE
8
0
6
CONTINUOUS
10
14.2
20
4.0
30
0
11
-0.0
21
4.0
31
0
0
ARC
8
0
6
CONTINUOUS
10
6.790639593506635
20
0.4175038916017675
30
0
40
8.23
50
4.058626496424554
51
25.804207859850578
0
LINE
8
0
6
CONTINUOUS
10
-16.0
20
-0.0
30
0
11
-16.0
21
1.0
31
0
0
LINE
8
0
6
CONTINUOUS
10
-16.0
20
1.0
30
0
11
-15.0
21
1.0
31
0
0
LINE
8
0
6
CONTINUOUS
10
-14.2
20
4.0
30
0
11
-0.0
21
4.0
31
0
0
ARC
8
0
6
CONTINUOUS
10
-6.790639593506635
20
0.4175038916017675
30
0
40
8.23
50
154.19579214014945
51
175.94137350357545
0
LINE
8
0
6
CONTINUOUS
10
5.0
20
-126.51
30
0
11
5.0
21
-129.97
31
0
0
LINE
8
0
6
CONTINUOUS
10
-5.0
20
-126.51
30
0
11
-5.0
21
-129.97
31
0
0
LINE
8
0
6
CONTINUOUS
10
0.0
20
-129.97
30
0
11
0.0
21
-126.51
31
0
0
LINE
8
0
6
CONTINUOUS
10
-5.0
20
-128.77
30
0
11
5.0
21
-128.77
31
0
0
LINE
8
0
6
CONTINUOUS
10
4.25
20
-127.72
30
0
11
5.0
21
-127.08
31
0
0
LINE
8
0
6
CONTINUOUS
10
-5.0
20
-129.41
30
0
11
-4.25
21
-128.77
31
0
0
LINE
8
0
6
CONTINUOUS
10
5.0
20
-127.08
30
0
11
-5.0
21
-129.41
31
0
0
LINE
8
0
6
CONTINUOUS
10
5.0
20
-131.85
30
0
11
5.0
21
-135.31
31
0
0
LINE
8
0
6
CONTINUOUS
10
-5.0
20
-131.85
30
0
11
-5.0
21
-135.31
31
0
0
LINE
8
0
6
CONTINUOUS
10
0.0
20
-135.31
30
0
11
0.0
21
-131.85
31
0
0
LINE
8
0
6
CONTINUOUS
10
-5.0
20
-134.11
30
0
11
5.0
21
-134.11
31
0
0
LINE
8
0
6
CONTINUOUS
10
4.25
20
-133.06
30
0
11
5.0
21
-132.42
31
0
0
LINE
8
0
6
CONTINUOUS
10
-5.0
20
-134.75
30
0
11
-4.25
21
-134.11
31
0
0
LINE
8
0
6
CONTINUOUS
10
5.0
20
-132.42
30
0
11
-5.0
21
-134.75
31
0
0
LINE
8
0
6
CONTINUOUS
10
5.0
20
-137.19
30
0
11
5.0
21
-140.65
31
0
0
LINE
8
0
6
CONTINUOUS
10
-5.0
20
-137.19
30
0
11
-5.0
21
-140.65
31
0
0
LINE
8
0
6
CONTINUOUS
10
0.0
20
-140.65
30
0
11
0.0
21
-137.19
31
0
0
LINE
8
0
6
CONTINUOUS
10
-5.0
20
-139.46
30
0
11
5.0
21
-139.46
31
0
0
LINE
8
0
6
CONTINUOUS
10
4.25
20
-138.41
30
0
11
5.0
21
-137.77
31
0
0
LINE
8
0
6
CONTINUOUS
10
-5.0
20
-140.1
30
0
11
-4.25
21
-139.46
31
0
0
LINE
8
0
6
CONTINUOUS
10
5.0
20
-137.77
30
0
11
-5.0
21
-140.1
31
0
0
LINE
8
0
6
CONTINUOUS
10
5.0
20
-142.54
30
0
11
5.0
21
-146.0
31
0
0
LINE
8
0
6
CONTINUOUS
10
-5.0
20
-142.54
30
0
11
-5.0
21
-146.0
31
0
0
LINE
8
0
6
CONTINUOUS
10
0.0
20
-146.0
30
0
11
0.0
21
-142.54
31
0
0
LINE
8
0
6
CONTINUOUS
10
-5.0
20
-144.8
30
0
11
5.0
21
-144.8
31
0
0
LINE
8
0
6
CONTINUOUS
10
4.25
20
-143.75
30
0
11
5.0
21
-143.11
31
0
0
LINE
8
0
6
CONTINUOUS
10
-5.0
20
-145.44
30
0
11
-4.25
21
-144.8
31
0
0
LINE
8
0
6
CONTINUOUS
10
5.0
20
-143.11
30
0
11
-5.0
21
-145.44
31
0
0
LINE
8
0
6
CONTINUOUS
10
5.0
20
-147.88
30
0
11
5.0
21
-151.34
31
0
0
LINE
8
0
6
CONTINUOUS
10
-5.0
20
-147.88
30
0
11
-5.0
21
-151.34
31
0
0
LINE
8
0
6
CONTINUOUS
10
0.0
20
-151.34
30
0
11
0.0
21
-147.88
31
0
0
LINE
8
0
6
CONTINUOUS
10
-5.0
20
-150.14
30
0
11
5.0
21
-150.14
31
0
0
LINE
8
0
6
CONTINUOUS
10
4.25
20
-149.09
30
0
11
5.0
21
-148.45
31
0
0
LINE
8
0
6
CONTINUOUS
10
-5.0
20
-150.78
30
0
11
-4.25
21
-150.14
31
0
0
LINE
8
0
6
CONTINUOUS
10
5.0
20
-148.45
30
0
11
-5.0
21
-150.78
31
0
0
LINE
8
0
6
CONTINUOUS
10
5.0
20
-153.22
30
0
11
5.0
21
-156.68
31
0
0
LINE
8
0
6
CONTINUOUS
10
-5.0
20
-153.22
30
0
11
-5.0
21
-156.68
31
0
0
LINE
8
0
6
CONTINUOUS
10
0.0
20
-156.68
30
0
11
0.0
21
-153.22
31
0
0
LINE
8
0
6
CONTINUOUS
10
-5.0
20
-155.48
30
0
11
5.0
21
-155.48
31
0
0
LINE
8
0
6
CONTINUOUS
10
4.25
20
-154.44
30
0
11
5.0
21
-153.8
31
0
0
LINE
8
0
6
CONTINUOUS
10
-5.0
20
-156.12
30
0
11
-4.25
21
-155.48
31
0
0
LINE
8
0
6
CONTINUOUS
10
5.0
20
-153.8
30
0
11
-5.0
21
-156.12
31
0
0
LINE
8
0
6
CONTINUOUS
10
5.0
20
-158.57
30
0
11
5.0
21
-162.03
31
0
0
LINE
8
0
6
CONTINUOUS
10
-5.0
20
-158.57
30
0
11
-5.0
21
-162.03
31
0
0
LINE
8
0
6
CONTINUOUS
10
0.0
20
-162.03
30
0
11
0.0
21
-158.57
31
0
0
LINE
8
0
6
CONTINUOUS
10
-5.0
20
-160.83
30
0
11
5.0
21
-160.83
31
0
0
LINE
8
0
6
CONTINUOUS
10
4.25
20
-159.78
30
0
11
5.0
21
-159.14
31
0
0
LINE
8
0
6
CONTINUOUS
10
-5.0
20
-161.47
30
0
11
-4.25
21
-160.83
31
0
0
LINE
8
0
6
CONTINUOUS
10
5.0
20
-159.14
30
0
11
-5.0
21
-161.47
31
0
0
LINE
8
0
6
CONTINUOUS
10
5.0
20
-163.91
30
0
11
5.0
21
-167.37
31
0
0
LINE
8
0
6
CONTINUOUS
10
-5.0
20
-163.91
30
0
11
-5.0
21
-167.37
31
0
0
LINE
8
0
6
CONTINUOUS
10
0.0
20
-167.37
30
0
11
0.0
21
-163.91
31
0
0
LINE
8
0
6
CONTINUOUS
10
-5.0
20
-166.17
30
0
11
5.0
21
-166.17
31
0
0
LINE
8
0
6
CONTINUOUS
10
4.25
20
-165.12
30
0
11
5.0
21
-164.48
31
0
0
LINE
8
0
6
CONTINUOUS
10
-5.0
20
-166.81
30
0
11
-4.25
21
-166.17
31
0
0
LINE
8
0
6
CONTINUOUS
10
5.0
20
-164.48
30
0
11
-5.0
21
-166.81
31
0
0
LINE
8
0
6
CONTINUOUS
10
5.0
20
-169.25
30
0
11
5.0
21
-172.71
31
0
0
LINE
8
0
6
CONTINUOUS
10
-5.0
20
-169.25
30
0
11
-5.0
21
-172.71
31
0
0
LINE
8
0
6
CONTINUOUS
10
0.0
20
-172.71
30
0
11
0.0
21
-169.25
31
0
0
LINE
8
0
6
CONTINUOUS
10
-5.0
20
-171.51
30
0
11
5.0
21
-171.51
31
0
0
LINE
8
0
6
CONTINUOUS
10
4.25
20
-170.46
30
0
11
5.0
21
-169.82
31
0
0
LINE
8
0
6
CONTINUOUS
10
-5.0
20
-172.15
30
0
11
-4.25
21
-171.51
31
0
0
LINE
8
0
6
CONTINUOUS
10
5.0
20
-169.82
30
0
11
-5.0
21
-172.15
31
0
0
LINE
8
0
6
CONTINUOUS
10
5.0
20
-174.59
30
0
11
5.0
21
-178.05
31
0
0
LINE
8
0
6
CONTINUOUS
10
-5.0
20
-174.59
30
0
11
-5.0
21
-178.05
31
0
0
LINE
8
0
6
CONTINUOUS
10
0.0
20
-178.05
30
0
11
0.0
21
-174.59
31
0
0
LINE
8
0
6
CONTINUOUS
10
-5.0
20
-176.85
30
0
11
5.0
21
-176.85
31
0
0
LINE
8
0
6
CONTINUOUS
10
4.25
20
-175.81
30
0
11
5.0
21
-175.17
31
0
0
LINE
8
0
6
CONTINUOUS
10
-5.0
20
-177.49
30
0
11
-4.25
21
-176.85
31
0
0
LINE
8
0
6
CONTINUOUS
10
5.0
20
-175.17
30
0
11
-5.0
21
-177.49
31
0
0
LINE
8
0
6
CONTINUOUS
10
5.0
20
-179.94
30
0
11
5.0
21
-183.4
31
0
0
LINE
8
0
6
CONTINUOUS
10
-5.0
20
-179.94
30
0
11
-5.0
21
-183.4
31
0
0
LINE
8
0
6
CONTINUOUS
10
0.0
20
-183.4
30
0
11
0.0
21
-179.94
31
0
0
LINE
8
0
6
CONTINUOUS
10
-5.0
20
-182.2
30
0
11
5.0
21
-182.2
31
0
0
LINE
8
0
6
CONTINUOUS
10
4.25
20
-181.15
30
0
11
5.0
21
-180.51
31
0
0
LINE
8
0
6
CONTINUOUS
10
-5.0
20
-182.84
30
0
11
-4.25
21
-182.2
31
0
0
LINE
8
0
6
CONTINUOUS
10
5.0
20
-180.51
30
0
11
-5.0
21
-182.84
31
0
0
LINE
8
0
6
CONTINUOUS
10
5.0
20
-185.28
30
0
11
5.0
21
-188.74
31
0
0
LINE
8
0
6
CONTINUOUS
10
-5.0
20
-185.28
30
0
11
-5.0
21
-188.74
31
0
0
LINE
8
0
6
CONTINUOUS
10
0.0
20
-188.74
30
0
11
0.0
21
-185.28
31
0
0
LINE
8
0
6
CONTINUOUS
10
-5.0
20
-187.54
30
0
11
5.0
21
-187.54
31
0
0
LINE
8
0
6
CONTINUOUS
10
4.25
20
-186.49
30
0
11
5.0
21
-185.85
31
0
0
LINE
8
0
6
CONTINUOUS
10
-5.0
20
-188.18
30
0
11
-4.25
21
-187.54
31
0
0
LINE
8
0
6
CONTINUOUS
10
5.0
20
-185.85
30
0
11
-5.0
21
-188.18
31
0
0
LINE
8
0
6
CONTINUOUS
10
5.0
20
-190.62
30
0
11
5.0
21
-194.08
31
0
0
LINE
8
0
6
CONTINUOUS
10
-5.0
20
-190.62
30
0
11
-5.0
21
-194.08
31
0
0
LINE
8
0
6
CONTINUOUS
10
0.0
20
-194.08
30
0
11
0.0
21
-190.62
31
0
0
LINE
8
0
6
CONTINUOUS
10
-5.0
20
-192.88
30
0
11
5.0
21
-192.88
31
0
0
LINE
8
0
6
CONTINUOUS
10
4.25
20
-191.83
30
0
11
5.0
21
-191.19
31
0
0
LINE
8
0
6
CONTINUOUS
10
-5.0
20
-193.52
30
0
11
-4.25
21
-192.88
31
0
0
LINE
8
0
6
CONTINUOUS
10
5.0
20
-191.19
30
0
11
-5.0
21
-193.52
31
0
0
LINE
8
0
6
CONTINUOUS
10
5.0
20
-195.96
30
0
11
5.0
21
-199.42
31
0
0
LINE
8
0
6
CONTINUOUS
10
-5.0
20
-195.96
30
0
11
-5.0
21
-199.42
31
0
0
LINE
8
0
6
CONTINUOUS
10
0.0
20
-199.42
30
0
11
0.0
21
-195.96
31
0
0
LINE
8
0
6
CONTINUOUS
10
-5.0
20
-198.23
30
0
11
5.0
21
-198.23
31
0
0
LINE
8
0
6
CONTINUOUS
10
4.25
20
-197.18
30
0
11
5.0
21
-196.54
31
0
0
LINE
8
0
6
CONTINUOUS
10
-5.0
20
-198.87
30
0
11
-4.25
21
-198.23
31
0
0
LINE
8
0
6
CONTINUOUS
10
5.0
20
-196.54
30
0
11
-5.0
21
-198.87
31
0
0
LINE
8
0
6
CONTINUOUS
10
5.0
20
-201.31
30
0
11
5.0
21
-204.77
31
0
0
LINE
8
0
6
CONTINUOUS
10
-5.0
20
-201.31
30
0
11
-5.0
21
-204.77
31
0
0
LINE
8
0
6
CONTINUOUS
10
0.0
20
-204.77
30
0
11
0.0
21
-201.31
31
0
0
LINE
8
0
6
CONTINUOUS
10
-5.0
20
-203.57
30
0
11
5.0
21
-203.57
31
0
0
LINE
8
0
6
CONTINUOUS
10
4.25
20
-202.52
30
0
11
5.0
21
-201.88
31
0
0
LINE
8
0
6
CONTINUOUS
10
-5.0
20
-204.21
30
0
11
-4.25
21
-203.57
31
0
0
LINE
8
0
6
CONTINUOUS
10
5.0
20
-201.88
30
0
11
-5.0
21
-204.21
31
0
0
LINE
8
0
6
CONTINUOUS
10
5.0
20
-206.65
30
0
11
5.0
21
-210.11
31
0
0
LINE
8
0
6
CONTINUOUS
10
-5.0
20
-206.65
30
0
11
-5.0
21
-210.11
31
0
0
LINE
8
0
6
CONTINUOUS
10
0.0
20
-210.11
30
0
11
0.0
21
-206.65
31
0
0
LINE
8
0
6
CONTINUOUS
10
-5.0
20
-208.91
30
0
11
5.0
21
-208.91
31
0
0
LINE
8
0
6
CONTINUOUS
10
4.25
20
-207.86
30
0
11
5.0
21
-207.22
31
0
0
LINE
8
0
6
CONTINUOUS
10
-5.0
20
-209.55
30
0
11
-4.25
21
-208.91
31
0
0
LINE
8
0
6
CONTINUOUS
10
5.0
20
-207.22
30
0
11
-5.0
21
-209.55
31
0
0
LINE
8
0
6
CONTINUOUS
10
-4.0
20
-3.55
30
0
11
-4.0
21
0.0
31
0
0
LINE
8
0
6
CONTINUOUS
10
4.0
20
-3.55
30
0
11
4.0
21
0.0
31
0
0
ENDSEC
0
EOF