0
SECTION
2
HEADER
0
ENDSEC
0
SECTION
2
TABLES
0
TABLE
2
LTYPE
70
3
0
LTYPE
2
CONTINUOUS
70
0
3
Solid line
72
65
73
0
40
0.0
0
LTYPE
2
CENTER
70
0
3
center
72
65
73
4
40
28.575
49
12.7
49
-6.35
49
3.175
49
-6.35
0
ENDTAB
0
TABLE
2
LAYER
70
1
0
LAYER
2
0
70
0
62
7
6
CONTINUOUS
0
ENDTAB
0
ENDSEC
0
SECTION
2
ENTITIES
0
LINE
8
0
6
CONTINUOUS
10
16.0
20
9.1
30
0
11
16.0
21
-185.9
31
0
0
LINE
8
0
6
CONTINUOUS
10
-16.0
20
9.1
30
0
11
-16.0
21
-185.9
31
0
0
LINE
8
0
6
CONTINUOUS
10
3.52
20
9.1
30
0
11
3.52
21
-185.9
31
0
0
LINE
8
0
6
CONTINUOUS
10
4.26
20
9.1
30
0
11
4.26
21
-185.9
31
0
0
LINE
8
0
6
CONTINUOUS
10
-3.52
20
-185.9
30
0
11
-3.52
21
9.1
31
0
0
LINE
8
0
6
CONTINUOUS
10
-4.26
20
-185.9
30
0
11
-4.26
21
9.1
31
0
0
LINE
8
0
6
CONTINUOUS
10
7.65
20
9.1
30
0
11
7.65
21
-185.9
31
0
0
LINE
8
0
6
CONTINUOUS
10
-7.65
20
9.1
30
0
11
-7.65
21
-185.9
31
0
0
LINE
8
0
6
CONTINUOUS
10
-16.0
20
-175.0
30
0
11
16.0
21
-175.0
31
0
0
LINE
8
0
6
CONTINUOUS
10
-16.0
20
-180.0
30
0
11
16.0
21
-180.0
31
0
0
LINE
8
0
6
CONTINUOUS
10
5.0
20
-185.9
30
0
11
5.0
21
9.1
31
0
0
LINE
8
0
6
CONTINUOUS
10
-5.0
20
9.1
30
0
11
-5.0
21
-185.9
31
0
0
LINE
8
0
6
CONTINUOUS
10
0.0
20
-185.9
30
0
11
0.0
21
9.1
31
0
0
LINE
8
0
6
CONTINUOUS
10
-16.0
20
0.0
30
0
11
16.0
21
0.0
31
0
0
LINE
8
0
6
CONTINUOUS
10
-4.0
20
-3.55
30
0
11
-4.0
21
-175.0
31
0
0
LINE
8
0
6
CONTINUOUS
10
4.0
20
-175.0
30
0
11
4.0
21
-3.55
31
0
0
LINE
8
0
6
CONTINUOUS
10
-4.0
20
-175.0
30
0
11
-0.0
21
-180.0
31
0
0
LINE
8
0
6
CONTINUOUS
10
-0.0
20
-180.0
30
0
11
4.0
21
-175.0
31
0
0
LINE
8
0
6
CONTINUOUS
10
5.0
20
-57.74
30
0
11
5.0
21
-61.2
31
0
0
LINE
8
0
6
CONTINUOUS
10
-5.0
20
-57.74
30
0
11
-5.0
21
-61.2
31
0
0
LINE
8
0
6
CONTINUOUS
10
0.0
20
-61.2
30
0
11
0.0
21
-57.74
31
0
0
LINE
8
0
6
CONTINUOUS
10
-5.0
20
-60.0
30
0
11
5.0
21
-60.0
31
0
0
LINE
8
0
6
CONTINUOUS
10
4.25
20
-58.95
30
0
11
5.0
21
-58.31
31
0
0
LINE
8
0
6
CONTINUOUS
10
-5.0
20
-60.64
30
0
11
-4.25
21
-60.0
31
0
0
LINE
8
0
6
CONTINUOUS
10
5.0
20
-58.31
30
0
11
-5.0
21
-60.64
31
0
0
LINE
8
0
6
CENTER
10
-0.0
20
9.1
30
0
11
-0.0
21
-185.9
31
0
0
LINE
8
0
6
CONTINUOUS
10
5.0
20
-171.99
30
0
11
5.0
21
-175.45
31
0
0
LINE
8
0
6
CONTINUOUS
10
-5.0
20
-171.99
30
0
11
-5.0
21
-175.45
31
0
0
LINE
8
0
6
CONTINUOUS
10
-0.0
20
-175.45
30
0
11
-0.0
21
-171.99
31
0
0
LINE
8
0
6
CONTINUOUS
10
-5.0
20
-174.25
30
0
11
5.0
21
-174.25
31
0
0
LINE
8
0
6
CONTINUOUS
10
4.25
20
-173.21
30
0
11
5.0
21
-172.57
31
0
0
LINE
8
0
6
CONTINUOUS
10
-5.0
20
-174.89
30
0
11
-4.25
21
-174.25
31
0
0
LINE
8
0
6
CONTINUOUS
10
5.0
20
-172.57
30
0
11
-5.0
21
-174.89
31
0
0
LINE
8
0
6
CONTINUOUS
10
5.0
20
-63.18
30
0
11
5.0
21
-66.64
31
0
0
LINE
8
0
6
CONTINUOUS
10
-5.0
20
-63.18
30
0
11
-5.0
21
-66.64
31
0
0
LINE
8
0
6
CONTINUOUS
10
0.0
20
-66.64
30
0
11
0.0
21
-63.18
31
0
0
LINE
8
0
6
CONTINUOUS
10
-5.0
20
-65.44
30
0
11
5.0
21
-65.44
31
0
0
LINE
8
0
6
CONTINUOUS
10
4.25
20
-64.39
30
0
11
5.0
21
-63.75
31
0
0
LINE
8
0
6
CONTINUOUS
10
-5.0
20
-66.08
30
0
11
-4.25
21
-65.44
31
0
0
LINE
8
0
6
CONTINUOUS
10
5.0
20
-63.75
30
0
11
-5.0
21
-66.08
31
0
0
LINE
8
0
6
CONTINUOUS
10
5.0
20
-68.62
30
0
11
5.0
21
-72.08
31
0
0
LINE
8
0
6
CONTINUOUS
10
-5.0
20
-68.62
30
0
11
-5.0
21
-72.08
31
0
0
LINE
8
0
6
CONTINUOUS
10
0.0
20
-72.08
30
0
11
0.0
21
-68.62
31
0
0
LINE
8
0
6
CONTINUOUS
10
-5.0
20
-70.88
30
0
11
5.0
21
-70.88
31
0
0
LINE
8
0
6
CONTINUOUS
10
4.25
20
-69.83
30
0
11
5.0
21
-69.19
31
0
0
LINE
8
0
6
CONTINUOUS
10
-5.0
20
-71.52
30
0
11
-4.25
21
-70.88
31
0
0
LINE
8
0
6
CONTINUOUS
10
5.0
20
-69.19
30
0
11
-5.0
21
-71.52
31
0
0
LINE
8
0
6
CONTINUOUS
10
5.0
20
-74.06
30
0
11
5.0
21
-77.52
31
0
0
LINE
8
0
6
CONTINUOUS
10
-5.0
20
-74.06
30
0
11
-5.0
21
-77.52
31
0
0
LINE
8
0
6
CONTINUOUS
10
0.0
20
-77.52
30
0
11
0.0
21
-74.06
31
0
0
LINE
8
0
6
CONTINUOUS
10
-5.0
20
-76.32
30
0
11
5.0
21
-76.32
31
0
0
LINE
8
0
6
CONTINUOUS
10
4.25
20
-75.27
30
0
11
5.0
21
-74.63
31
0
0
LINE
8
0
6
CONTINUOUS
10
-5.0
20
-76.96
30
0
11
-4.25
21
-76.32
31
0
0
LINE
8
0
6
CONTINUOUS
10
5.0
20
-74.63
30
0
11
-5.0
21
-76.96
31
0
0
LINE
8
0
6
CONTINUOUS
10
5.0
20
-79.5
30
0
11
5.0
21
-82.96
31
0
0
LINE
8
0
6
CONTINUOUS
10
-5.0
20
-79.5
30
0
11
-5.0
21
-82.96
31
0
0
LINE
8
0
6
CONTINUOUS
10
0.0
20
-82.96
30
0
11
0.0
21
-79.5
31
0
0
LINE
8
0
6
CONTINUOUS
10
-5.0
20
-81.76
30
0
11
5.0
21
-81.76
31
0
0
LINE
8
0
6
CONTINUOUS
10
4.25
20
-80.71
30
0
11
5.0
21
-80.07
31
0
0
LINE
8
0
6
CONTINUOUS
10
-5.0
20
-82.4
30
0
11
-4.25
21
-81.76
31
0
0
LINE
8
0
6
CONTINUOUS
10
5.0
20
-80.07
30
0
11
-5.0
21
-82.4
31
0
0
LINE
8
0
6
CONTINUOUS
10
5.0
20
-84.94
30
0
11
5.0
21
-88.4
31
0
0
LINE
8
0
6
CONTINUOUS
10
-5.0
20
-84.94
30
0
11
-5.0
21
-88.4
31
0
0
LINE
8
0
6
CONTINUOUS
10
0.0
20
-88.4
30
0
11
0.0
21
-84.94
31
0
0
LINE
8
0
6
CONTINUOUS
10
-5.0
20
-87.2
30
0
11
5.0
21
-87.2
31
0
0
LINE
8
0
6
CONTINUOUS
10
4.25
20
-86.16
30
0
11
5.0
21
-85.52
31
0
0
LINE
8
0
6
CONTINUOUS
10
-5.0
20
-87.84
30
0
11
-4.25
21
-87.2
31
0
0
LINE
8
0
6
CONTINUOUS
10
5.0
20
-85.52
30
0
11
-5.0
21
-87.84
31
0
0
LINE
8
0
6
CONTINUOUS
10
5.0
20
-90.38
30
0
11
5.0
21
-93.84
31
0
0
LINE
8
0
6
CONTINUOUS
10
-5.0
20
-90.38
30
0
11
-5.0
21
-93.84
31
0
0
LINE
8
0
6
CONTINUOUS
10
0.0
20
-93.84
30
0
11
0.0
21
-90.38
31
0
0
LINE
8
0
6
CONTINUOUS
10
-5.0
20
-92.64
30
0
11
5.0
21
-92.64
31
0
0
LINE
8
0
6
CONTINUOUS
10
4.25
20
-91.6
30
0
11
5.0
21
-90.96
31
0
0
LINE
8
0
6
CONTINUOUS
10
-5.0
20
-93.28
30
0
11
-4.25
21
-92.64
31
0
0
LINE
8
0
6
CONTINUOUS
10
5.0
20
-90.96
30
0
11
-5.0
21
-93.28
31
0
0
LINE
8
0
6
CONTINUOUS
10
5.0
20
-95.82
30
0
11
5.0
21
-99.28
31
0
0
LINE
8
0
6
CONTINUOUS
10
-5.0
20
-95.82
30
0
11
-5.0
21
-99.28
31
0
0
LINE
8
0
6
CONTINUOUS
10
0.0
20
-99.28
30
0
11
0.0
21
-95.82
31
0
0
LINE
8
0
6
CONTINUOUS
10
-5.0
20
-98.08
30
0
11
5.0
21
-98.08
31
0
0
LINE
8
0
6
CONTINUOUS
10
4.25
20
-97.04
30
0
11
5.0
21
-96.4
31
0
0
LINE
8
0
6
CONTINUOUS
10
-5.0
20
-98.72
30
0
11
-4.25
21
-98.08
31
0
0
LINE
8
0
6
CONTINUOUS
10
5.0
20
-96.4
30
0
11
-5.0
21
-98.72
31
0
0
LINE
8
0
6
CONTINUOUS
10
5.0
20
-101.26
30
0
11
5.0
21
-104.72
31
0
0
LINE
8
0
6
CONTINUOUS
10
-5.0
20
-101.26
30
0
11
-5.0
21
-104.72
31
0
0
LINE
8
0
6
CONTINUOUS
10
0.0
20
-104.72
30
0
11
0.0
21
-101.26
31
0
0
LINE
8
0
6
CONTINUOUS
10
-5.0
20
-103.53
30
0
11
5.0
21
-103.53
31
0
0
LINE
8
0
6
CONTINUOUS
10
4.25
20
-102.48
30
0
11
5.0
21
-101.84
31
0
0
LINE
8
0
6
CONTINUOUS
10
-5.0
20
-104.17
30
0
11
-4.25
21
-103.53
31
0
0
LINE
8
0
6
CONTINUOUS
10
5.0
20
-101.84
30
0
11
-5.0
21
-104.17
31
0
0
LINE
8
0
6
CONTINUOUS
10
5.0
20
-106.7
30
0
11
5.0
21
-110.17
31
0
0
LINE
8
0
6
CONTINUOUS
10
-5.0
20
-106.7
30
0
11
-5.0
21
-110.17
31
0
0
LINE
8
0
6
CONTINUOUS
10
0.0
20
-110.17
30
0
11
0.0
21
-106.7
31
0
0
LINE
8
0
6
CONTINUOUS
10
-5.0
20
-108.97
30
0
11
5.0
21
-108.97
31
0
0
LINE
8
0
6
CONTINUOUS
10
4.25
20
-107.92
30
0
11
5.0
21
-107.28
31
0
0
LINE
8
0
6
CONTINUOUS
10
-5.0
20
-109.61
30
0
11
-4.25
21
-108.97
31
0
0
LINE
8
0
6
CONTINUOUS
10
5.0
20
-107.28
30
0
11
-5.0
21
-109.61
31
0
0
LINE
8
0
6
CONTINUOUS
10
5.0
20
-112.15
30
0
11
5.0
21
-115.61
31
0
0
LINE
8
0
6
CONTINUOUS
10
-5.0
20
-112.15
30
0
11
-5.0
21
-115.61
31
0
0
LINE
8
0
6
CONTINUOUS
10
0.0
20
-115.61
30
0
11
0.0
21
-112.15
31
0
0
LINE
8
0
6
CONTINUOUS
10
-5.0
20
-114.41
30
0
11
5.0
21
-114.41
31
0
0
LINE
8
0
6
CONTINUOUS
10
4.25
20
-113.36
30
0
11
5.0
21
-112.72
31
0
0
LINE
8
0
6
CONTINUOUS
10
-5.0
20
-115.05
30
0
11
-4.25
21
-114.41
31
0
0
LINE
8
0
6
CONTINUOUS
10
5.0
20
-112.72
30
0
11
-5.0
21
-115.05
31
0
0
LINE
8
0
6
CONTINUOUS
10
4.26
20
-174.19
30
0
11
4.26
21
-177.14
31
0
0
LINE
8
0
6
CONTINUOUS
10
-4.26
20
-174.19
30
0
11
-4.26
21
-177.14
31
0
0
LINE
8
0
6
CONTINUOUS
10
-0.0
20
-177.14
30
0
11
-0.0
21
-174.19
31
0
0
LINE
8
0
6
CONTINUOUS
10
-4.26
20
-176.02
30
0
11
4.26
21
-176.02
31
0
0
LINE
8
0
6
CONTINUOUS
10
3.51
20
-175.31
30
0
11
4.26
21
-174.67
31
0
0
LINE
8
0
6
CONTINUOUS
10
-4.26
20
-176.66
30
0
11
-3.51
21
-176.02
31
0
0
LINE
8
0
6
CONTINUOUS
10
4.26
20
-174.67
30
0
11
-4.26
21
-176.66
31
0
0
LINE
8
0
6
CONTINUOUS
10
3.52
20
-176.67
30
0
11
3.52
21
-179.11
31
0
0
LINE
8
0
6
CONTINUOUS
10
-3.52
20
-176.67
30
0
11
-3.52
21
-179.11
31
0
0
LINE
8
0
6
CONTINUOUS
10
-0.0
20
-179.11
30
0
11
-0.0
21
-176.67
31
0
0
LINE
8
0
6
CONTINUOUS
10
-3.52
20
-178.07
30
0
11
3.52
21
-178.07
31
0
0
LINE
8
0
6
CONTINUOUS
10
2.77
20
-177.71
30
0
11
3.52
21
-177.07
31
0
0
LINE
8
0
6
CONTINUOUS
10
-3.52
20
-178.71
30
0
11
-2.77
21
-178.07
31
0
0
LINE
8
0
6
CONTINUOUS
10
3.52
20
-177.07
30
0
11
-3.52
21
-178.71
31
0
0
LINE
8
0
6
CONTINUOUS
10
-16.0
20
-0.0
30
0
11
16.0
21
-0.0
31
0
0
LINE
8
0
6
CONTINUOUS
10
16.0
20
-0.0
30
0
11
16.0
21
1.0
31
0
0
LINE
8
0
6
CONTINUOUS
10
16.0
20
1.0
30
0
11
15.0
21
1.0
31
0
0
LINE
8
0
6
CONTINUOUS
10
14.2
20
4.0
30
0
11
-0.0
21
4.0
31
0
0
ARC
8
0
6
CONTINUOUS
10
6.790639593506635
20
0.4175038916017675
30
0
40
8.23
50
4.058626496424554
51
25.804207859850578
0
LINE
8
0
6
CONTINUOUS
10
-16.0
20
-0.0
30
0
11
-16.0
21
1.0
31
0
0
LINE
8
0
6
CONTINUOUS
10
-16.0
20
1.0
30
0
11
-15.0
21
1.0
31
0
0
LINE
8
0
6
CONTINUOUS
10
-14.2
20
4.0
30
0
11
-0.0
21
4.0
31
0
0
ARC
8
0
6
CONTINUOUS
10
-6.790639593506635
20
0.4175038916017675
30
0
40
8.23
50
154.19579214014945
51
175.94137350357545
0
LINE
8
0
6
CONTINUOUS
10
5.0
20
-117.59
30
0
11
5.0
21
-121.05
31
0
0
LINE
8
0
6
CONTINUOUS
10
-5.0
20
-117.59
30
0
11
-5.0
21
-121.05
31
0
0
LINE
8
0
6
CONTINUOUS
10
0.0
20
-121.05
30
0
11
0.0
21
-117.59
31
0
0
LINE
8
0
6
CONTINUOUS
10
-5.0
20
-119.85
30
0
11
5.0
21
-119.85
31
0
0
LINE
8
0
6
CONTINUOUS
10
4.25
20
-118.8
30
0
11
5.0
21
-118.16
31
0
0
LINE
8
0
6
CONTINUOUS
10
-5.0
20
-120.49
30
0
11
-4.25
21
-119.85
31
0
0
LINE
8
0
6
CONTINUOUS
10
5.0
20
-118.16
30
0
11
-5.0
21
-120.49
31
0
0
LINE
8
0
6
CONTINUOUS
10
5.0
20
-123.03
30
0
11
5.0
21
-126.49
31
0
0
LINE
8
0
6
CONTINUOUS
10
-5.0
20
-123.03
30
0
11
-5.0
21
-126.49
31
0
0
LINE
8
0
6
CONTINUOUS
10
0.0
20
-126.49
30
0
11
0.0
21
-123.03
31
0
0
LINE
8
0
6
CONTINUOUS
10
-5.0
20
-125.29
30
0
11
5.0
21
-125.29
31
0
0
LINE
8
0
6
CONTINUOUS
10
4.25
20
-124.24
30
0
11
5.0
21
-123.6
31
0
0
LINE
8
0
6
CONTINUOUS
10
-5.0
20
-125.93
30
0
11
-4.25
21
-125.29
31
0
0
LINE
8
0
6
CONTINUOUS
10
5.0
20
-123.6
30
0
11
-5.0
21
-125.93
31
0
0
LINE
8
0
6
CONTINUOUS
10
5.0
20
-128.47
30
0
11
5.0
21
-131.93
31
0
0
LINE
8
0
6
CONTINUOUS
10
-5.0
20
-128.47
30
0
11
-5.0
21
-131.93
31
0
0
LINE
8
0
6
CONTINUOUS
10
0.0
20
-131.93
30
0
11
0.0
21
-128.47
31
0
0
LINE
8
0
6
CONTINUOUS
10
-5.0
20
-130.73
30
0
11
5.0
21
-130.73
31
0
0
LINE
8
0
6
CONTINUOUS
10
4.25
20
-129.68
30
0
11
5.0
21
-129.04
31
0
0
LINE
8
0
6
CONTINUOUS
10
-5.0
20
-131.37
30
0
11
-4.25
21
-130.73
31
0
0
LINE
8
0
6
CONTINUOUS
10
5.0
20
-129.04
30
0
11
-5.0
21
-131.37
31
0
0
LINE
8
0
6
CONTINUOUS
10
5.0
20
-133.91
30
0
11
5.0
21
-137.37
31
0
0
LINE
8
0
6
CONTINUOUS
10
-5.0
20
-133.91
30
0
11
-5.0
21
-137.37
31
0
0
LINE
8
0
6
CONTINUOUS
10
0.0
20
-137.37
30
0
11
0.0
21
-133.91
31
0
0
LINE
8
0
6
CONTINUOUS
10
-5.0
20
-136.17
30
0
11
5.0
21
-136.17
31
0
0
LINE
8
0
6
CONTINUOUS
10
4.25
20
-135.12
30
0
11
5.0
21
-134.48
31
0
0
LINE
8
0
6
CONTINUOUS
10
-5.0
20
-136.81
30
0
11
-4.25
21
-136.17
31
0
0
LINE
8
0
6
CONTINUOUS
10
5.0
20
-134.48
30
0
11
-5.0
21
-136.81
31
0
0
LINE
8
0
6
CONTINUOUS
10
5.0
20
-139.35
30
0
11
5.0
21
-142.81
31
0
0
LINE
8
0
6
CONTINUOUS
10
-5.0
20
-139.35
30
0
11
-5.0
21
-142.81
31
0
0
LINE
8
0
6
CONTINUOUS
10
0.0
20
-142.81
30
0
11
0.0
21
-139.35
31
0
0
LINE
8
0
6
CONTINUOUS
10
-5.0
20
-141.61
30
0
11
5.0
21
-141.61
31
0
0
LINE
8
0
6
CONTINUOUS
10
4.25
20
-140.56
30
0
11
5.0
21
-139.92
31
0
0
LINE
8
0
6
CONTINUOUS
10
-5.0
20
-142.25
30
0
11
-4.25
21
-141.61
31
0
0
LINE
8
0
6
CONTINUOUS
10
5.0
20
-139.92
30
0
11
-5.0
21
-142.25
31
0
0
LINE
8
0
6
CONTINUOUS
10
5.0
20
-144.79
30
0
11
5.0
21
-148.25
31
0
0
LINE
8
0
6
CONTINUOUS
10
-5.0
20
-144.79
30
0
11
-5.0
21
-148.25
31
0
0
LINE
8
0
6
CONTINUOUS
10
0.0
20
-148.25
30
0
11
0.0
21
-144.79
31
0
0
LINE
8
0
6
CONTINUOUS
10
-5.0
20
-147.05
30
0
11
5.0
21
-147.05
31
0
0
LINE
8
0
6
CONTINUOUS
10
4.25
20
-146.0
30
0
11
5.0
21
-145.36
31
0
0
LINE
8
0
6
CONTINUOUS
10
-5.0
20
-147.69
30
0
11
-4.25
21
-147.05
31
0
0
LINE
8
0
6
CONTINUOUS
10
5.0
20
-145.36
30
0
11
-5.0
21
-147.69
31
0
0
LINE
8
0
6
CONTINUOUS
10
5.0
20
-150.23
30
0
11
5.0
21
-153.69
31
0
0
LINE
8
0
6
CONTINUOUS
10
-5.0
20
-150.23
30
0
11
-5.0
21
-153.69
31
0
0
LINE
8
0
6
CONTINUOUS
10
0.0
20
-153.69
30
0
11
0.0
21
-150.23
31
0
0
LINE
8
0
6
CONTINUOUS
10
-5.0
20
-152.49
30
0
11
5.0
21
-152.49
31
0
0
LINE
8
0
6
CONTINUOUS
10
4.25
20
-151.44
30
0
11
5.0
21
-150.8
31
0
0
LINE
8
0
6
CONTINUOUS
10
-5.0
20
-153.13
30
0
11
-4.25
21
-152.49
31
0
0
LINE
8
0
6
CONTINUOUS
10
5.0
20
-150.8
30
0
11
-5.0
21
-153.13
31
0
0
LINE
8
0
6
CONTINUOUS
10
5.0
20
-155.67
30
0
11
5.0
21
-159.13
31
0
0
LINE
8
0
6
CONTINUOUS
10
-5.0
20
-155.67
30
0
11
-5.0
21
-159.13
31
0
0
LINE
8
0
6
CONTINUOUS
10
0.0
20
-159.13
30
0
11
0.0
21
-155.67
31
0
0
LINE
8
0
6
CONTINUOUS
10
-5.0
20
-157.93
30
0
11
5.0
21
-157.93
31
0
0
LINE
8
0
6
CONTINUOUS
10
4.25
20
-156.88
30
0
11
5.0
21
-156.24
31
0
0
LINE
8
0
6
CONTINUOUS
10
-5.0
20
-158.57
30
0
11
-4.25
21
-157.93
31
0
0
LINE
8
0
6
CONTINUOUS
10
5.0
20
-156.24
30
0
11
-5.0
21
-158.57
31
0
0
LINE
8
0
6
CONTINUOUS
10
5.0
20
-161.11
30
0
11
5.0
21
-164.57
31
0
0
LINE
8
0
6
CONTINUOUS
10
-5.0
20
-161.11
30
0
11
-5.0
21
-164.57
31
0
0
LINE
8
0
6
CONTINUOUS
10
0.0
20
-164.57
30
0
11
0.0
21
-161.11
31
0
0
LINE
8
0
6
CONTINUOUS
10
-5.0
20
-163.37
30
0
11
5.0
21
-163.37
31
0
0
LINE
8
0
6
CONTINUOUS
10
4.25
20
-162.32
30
0
11
5.0
21
-161.68
31
0
0
LINE
8
0
6
CONTINUOUS
10
-5.0
20
-164.01
30
0
11
-4.25
21
-163.37
31
0
0
LINE
8
0
6
CONTINUOUS
10
5.0
20
-161.68
30
0
11
-5.0
21
-164.01
31
0
0
LINE
8
0
6
CONTINUOUS
10
5.0
20
-166.55
30
0
11
5.0
21
-170.01
31
0
0
LINE
8
0
6
CONTINUOUS
10
-5.0
20
-166.55
30
0
11
-5.0
21
-170.01
31
0
0
LINE
8
0
6
CONTINUOUS
10
0.0
20
-170.01
30
0
11
0.0
21
-166.55
31
0
0
LINE
8
0
6
CONTINUOUS
10
-5.0
20
-168.81
30
0
11
5.0
21
-168.81
31
0
0
LINE
8
0
6
CONTINUOUS
10
4.25
20
-167.77
30
0
11
5.0
21
-167.13
31
0
0
LINE
8
0
6
CONTINUOUS
10
-5.0
20
-169.45
30
0
11
-4.25
21
-168.81
31
0
0
LINE
8
0
6
CONTINUOUS
10
5.0
20
-167.13
30
0
11
-5.0
21
-169.45
31
0
0
LINE
8
0
6
CONTINUOUS
10
-4.0
20
-3.55
30
0
11
-4.0
21
0.0
31
0
0
LINE
8
0
6
CONTINUOUS
10
4.0
20
-3.55
30
0
11
4.0
21
0.0
31
0
0
ENDSEC
0
EOF