0
SECTION
2
HEADER
0
ENDSEC
0
SECTION
2
TABLES
0
TABLE
2
LTYPE
70
3
0
LTYPE
2
CONTINUOUS
70
0
3
Solid line
72
65
73
0
40
0.0
0
LTYPE
2
CENTER
70
0
3
center
72
65
73
4
40
28.575
49
12.7
49
-6.35
49
3.175
49
-6.35
0
ENDTAB
0
TABLE
2
LAYER
70
1
0
LAYER
2
0
70
0
62
7
6
CONTINUOUS
0
ENDTAB
0
ENDSEC
0
SECTION
2
ENTITIES
0
LINE
8
0
6
CONTINUOUS
10
-53.7
20
-45.0
30
0
11
-53.7
21
45.0
31
0
0
LINE
8
0
6
CONTINUOUS
10
-60.0
20
-45.0
30
0
11
-60.0
21
45.0
31
0
0
LINE
8
0
6
CONTINUOUS
10
53.7
20
45.0
30
0
11
53.7
21
-45.0
31
0
0
LINE
8
0
6
CONTINUOUS
10
60.0
20
45.0
30
0
11
60.0
21
-45.0
31
0
0
LINE
8
0
6
CONTINUOUS
10
65.0
20
33.7
30
0
11
-65.0
21
33.7
31
0
0
LINE
8
0
6
CONTINUOUS
10
65.0
20
-33.7
30
0
11
-65.0
21
-33.7
31
0
0
LINE
8
0
6
CONTINUOUS
10
65.0
20
-40.0
30
0
11
-65.0
21
-40.0
31
0
0
LINE
8
0
6
CONTINUOUS
10
65.0
20
40.0
30
0
11
-65.0
21
40.0
31
0
0
LINE
8
0
6
CONTINUOUS
10
0.0
20
-45.0
30
0
11
0.0
21
45.0
31
0
0
LINE
8
0
6
CONTINUOUS
10
-65.0
20
0.0
30
0
11
65.0
21
0.0
31
0
0
ARC
8
0
6
CONTINUOUS
10
45.75
20
25.750000000000004
30
0
40
7.95
50
360.0
51
90.0
0
LINE
8
0
6
CONTINUOUS
10
53.7
20
25.75
30
0
11
53.7
21
-25.75
31
0
0
ARC
8
0
6
CONTINUOUS
10
45.75
20
-25.750000000000004
30
0
40
7.95
50
270.0
51
2.5604465360209433e-14
0
LINE
8
0
6
CONTINUOUS
10
45.75
20
-33.7
30
0
11
-45.75
21
-33.7
31
0
0
ARC
8
0
6
CONTINUOUS
10
-45.75
20
-25.750000000000004
30
0
40
7.95
50
179.99999999999997
51
270.0
0
LINE
8
0
6
CONTINUOUS
10
-53.7
20
-25.75
30
0
11
-53.7
21
25.75
31
0
0
ARC
8
0
6
CONTINUOUS
10
-45.75
20
25.750000000000004
30
0
40
7.95
50
90.0
51
180.00000000000003
0
LINE
8
0
6
CONTINUOUS
10
-45.75
20
33.7
30
0
11
45.75
21
33.7
31
0
0
ARC
8
0
6
CONTINUOUS
10
50.55
20
30.549999999999997
30
0
40
9.45
50
2.154026450938254e-14
51
90.0
0
LINE
8
0
6
CONTINUOUS
10
50.55
20
40.0
30
0
11
-50.55
21
40.0
31
0
0
ARC
8
0
6
CONTINUOUS
10
-50.55
20
30.549999999999997
30
0
40
9.45
50
90.0
51
179.99999999999997
0
LINE
8
0
6
CONTINUOUS
10
-60.0
20
30.55
30
0
11
-60.0
21
-30.55
31
0
0
ARC
8
0
6
CONTINUOUS
10
-50.55
20
-30.549999999999997
30
0
40
9.45
50
180.00000000000003
51
270.0
0
LINE
8
0
6
CONTINUOUS
10
-50.55
20
-40.0
30
0
11
50.55
21
-40.0
31
0
0
ARC
8
0
6
CONTINUOUS
10
50.55
20
-30.549999999999997
30
0
40
9.45
50
270.0
51
360.0
0
LINE
8
0
6
CONTINUOUS
10
60.0
20
-30.55
30
0
11
60.0
21
30.55
31
0
0
LINE
8
0
6
CONTINUOUS
10
-50.55
20
40.0
30
0
11
50.55
21
40.0
31
0
0
LINE
8
0
6
CONTINUOUS
10
-60.0
20
-30.55
30
0
11
-60.0
21
30.55
31
0
0
LINE
8
0
6
CONTINUOUS
10
50.55
20
-40.0
30
0
11
-50.55
21
-40.0
31
0
0
LINE
8
0
6
CONTINUOUS
10
60.0
20
30.55
30
0
11
60.0
21
-30.55
31
0
0
LINE
8
0
6
CONTINUOUS
10
-45.75
20
33.7
30
0
11
45.75
21
33.7
31
0
0
LINE
8
0
6
CONTINUOUS
10
-53.7
20
-25.75
30
0
11
-53.7
21
25.75
31
0
0
LINE
8
0
6
CONTINUOUS
10
45.75
20
-33.7
30
0
11
-45.75
21
-33.7
31
0
0
LINE
8
0
6
CONTINUOUS
10
53.7
20
25.75
30
0
11
53.7
21
-25.75
31
0
0
ARC
8
0
6
CONTINUOUS
10
-50.55
20
30.549999999999997
30
0
40
9.45
50
90.0
51
179.99999999999997
0
ARC
8
0
6
CONTINUOUS
10
50.55
20
30.549999999999997
30
0
40
9.45
50
2.154026450938254e-14
51
90.0
0
ARC
8
0
6
CONTINUOUS
10
-50.55
20
-30.549999999999997
30
0
40
9.45
50
180.00000000000003
51
270.0
0
ARC
8
0
6
CONTINUOUS
10
50.55
20
-30.549999999999997
30
0
40
9.45
50
270.0
51
360.0
0
ARC
8
0
6
CONTINUOUS
10
-45.75
20
25.750000000000004
30
0
40
7.95
50
90.0
51
180.00000000000003
0
ARC
8
0
6
CONTINUOUS
10
45.75
20
25.750000000000004
30
0
40
7.95
50
360.0
51
90.0
0
ARC
8
0
6
CONTINUOUS
10
45.75
20
-25.750000000000004
30
0
40
7.95
50
270.0
51
2.5604465360209433e-14
0
ARC
8
0
6
CONTINUOUS
10
-45.75
20
-25.750000000000004
30
0
40
7.95
50
179.99999999999997
51
270.0
0
LINE
8
0
6
CENTER
10
-65.0
20
0.0
30
0
11
65.0
21
0.0
31
0
0
LINE
8
0
6
CENTER
10
0.0
20
-45.0
30
0
11
0.0
21
45.0
31
0
0
ENDSEC
0
EOF