0
SECTION
2
HEADER
0
ENDSEC
0
SECTION
2
TABLES
0
TABLE
2
LTYPE
70
3
0
LTYPE
2
CONTINUOUS
70
0
3
Solid line
72
65
73
0
40
0.0
0
LTYPE
2
CENTER
70
0
3
center
72
65
73
4
40
28.575
49
12.7
49
-6.35
49
3.175
49
-6.35
0
ENDTAB
0
TABLE
2
LAYER
70
1
0
LAYER
2
0
70
0
62
7
6
CONTINUOUS
0
ENDTAB
0
ENDSEC
0
SECTION
2
ENTITIES
0
LINE
8
0
6
CONTINUOUS
10
16.0
20
9.1
30
0
11
16.0
21
-45.9
31
0
0
LINE
8
0
6
CONTINUOUS
10
-16.0
20
9.1
30
0
11
-16.0
21
-45.9
31
0
0
LINE
8
0
6
CONTINUOUS
10
0.52
20
9.1
30
0
11
0.52
21
-45.9
31
0
0
LINE
8
0
6
CONTINUOUS
10
1.26
20
9.1
30
0
11
1.26
21
-45.9
31
0
0
LINE
8
0
6
CONTINUOUS
10
-0.52
20
-45.9
30
0
11
-0.52
21
9.1
31
0
0
LINE
8
0
6
CONTINUOUS
10
-1.26
20
-45.9
30
0
11
-1.26
21
9.1
31
0
0
LINE
8
0
6
CONTINUOUS
10
4.65
20
9.1
30
0
11
4.65
21
-45.9
31
0
0
LINE
8
0
6
CONTINUOUS
10
-4.65
20
9.1
30
0
11
-4.65
21
-45.9
31
0
0
LINE
8
0
6
CONTINUOUS
10
-16.0
20
-35.0
30
0
11
16.0
21
-35.0
31
0
0
LINE
8
0
6
CONTINUOUS
10
-16.0
20
-40.0
30
0
11
16.0
21
-40.0
31
0
0
LINE
8
0
6
CONTINUOUS
10
2.0
20
-45.9
30
0
11
2.0
21
9.1
31
0
0
LINE
8
0
6
CONTINUOUS
10
-2.0
20
9.1
30
0
11
-2.0
21
-45.9
31
0
0
LINE
8
0
6
CONTINUOUS
10
0.0
20
-45.9
30
0
11
0.0
21
9.1
31
0
0
LINE
8
0
6
CONTINUOUS
10
-16.0
20
0.0
30
0
11
16.0
21
0.0
31
0
0
LINE
8
0
6
CONTINUOUS
10
-1.0
20
-4.0
30
0
11
1.03
21
-3.26
31
0
0
ARC
8
0
6
CONTINUOUS
10
2.499997808311271
20
-3.5525641882505097
30
0
40
1.5
50
129.7917105471753
51
179.90205517587594
0
LINE
8
0
6
CONTINUOUS
10
4.4
20
0.0
30
0
11
1.54
21
-2.4
31
0
0
LINE
8
0
6
CONTINUOUS
10
-4.4
20
0.0
30
0
11
4.4
21
0.0
31
0
0
LINE
8
0
6
CONTINUOUS
10
-4.04
20
-0.3
30
0
11
4.04
21
-0.3
31
0
0
LINE
8
0
6
CONTINUOUS
10
-1.54
20
-2.4
30
0
11
-4.4
21
0.0
31
0
0
ARC
8
0
6
CONTINUOUS
10
-2.499997808311271
20
-3.5525641882505097
30
0
40
1.5
50
0.09794482412407453
51
50.2082894528247
0
LINE
8
0
6
CONTINUOUS
10
-1.0
20
-3.55
30
0
11
-1.0
21
-35.0
31
0
0
LINE
8
0
6
CONTINUOUS
10
1.0
20
-35.0
30
0
11
1.0
21
-3.55
31
0
0
LINE
8
0
6
CONTINUOUS
10
-1.0
20
-35.0
30
0
11
-0.0
21
-40.0
31
0
0
LINE
8
0
6
CONTINUOUS
10
-0.0
20
-40.0
30
0
11
1.0
21
-35.0
31
0
0
LINE
8
0
6
CONTINUOUS
10
2.0
20
-4.75
30
0
11
2.0
21
-6.14
31
0
0
LINE
8
0
6
CONTINUOUS
10
-2.0
20
-4.75
30
0
11
-2.0
21
-6.14
31
0
0
LINE
8
0
6
CONTINUOUS
10
0.0
20
-6.14
30
0
11
0.0
21
-4.75
31
0
0
LINE
8
0
6
CONTINUOUS
10
-2.0
20
-5.26
30
0
11
2.0
21
-5.26
31
0
0
LINE
8
0
6
CONTINUOUS
10
1.25
20
-5.61
30
0
11
2.0
21
-4.97
31
0
0
LINE
8
0
6
CONTINUOUS
10
-2.0
20
-5.9
30
0
11
-1.25
21
-5.26
31
0
0
LINE
8
0
6
CONTINUOUS
10
2.0
20
-4.97
30
0
11
-2.0
21
-5.9
31
0
0
LINE
8
0
6
CENTER
10
-0.0
20
9.1
30
0
11
-0.0
21
-45.9
31
0
0
LINE
8
0
6
CONTINUOUS
10
2.0
20
-33.74
30
0
11
2.0
21
-35.13
31
0
0
LINE
8
0
6
CONTINUOUS
10
-2.0
20
-33.74
30
0
11
-2.0
21
-35.13
31
0
0
LINE
8
0
6
CONTINUOUS
10
-0.0
20
-35.13
30
0
11
-0.0
21
-33.74
31
0
0
LINE
8
0
6
CONTINUOUS
10
-2.0
20
-34.25
30
0
11
2.0
21
-34.25
31
0
0
LINE
8
0
6
CONTINUOUS
10
1.25
20
-34.6
30
0
11
2.0
21
-33.96
31
0
0
LINE
8
0
6
CONTINUOUS
10
-2.0
20
-34.89
30
0
11
-1.25
21
-34.25
31
0
0
LINE
8
0
6
CONTINUOUS
10
2.0
20
-33.96
30
0
11
-2.0
21
-34.89
31
0
0
LINE
8
0
6
CONTINUOUS
10
2.0
20
-7.39
30
0
11
2.0
21
-8.78
31
0
0
LINE
8
0
6
CONTINUOUS
10
-2.0
20
-7.39
30
0
11
-2.0
21
-8.78
31
0
0
LINE
8
0
6
CONTINUOUS
10
0.0
20
-8.78
30
0
11
0.0
21
-7.39
31
0
0
LINE
8
0
6
CONTINUOUS
10
-2.0
20
-7.9
30
0
11
2.0
21
-7.9
31
0
0
LINE
8
0
6
CONTINUOUS
10
1.25
20
-8.24
30
0
11
2.0
21
-7.6
31
0
0
LINE
8
0
6
CONTINUOUS
10
-2.0
20
-8.54
30
0
11
-1.25
21
-7.9
31
0
0
LINE
8
0
6
CONTINUOUS
10
2.0
20
-7.6
30
0
11
-2.0
21
-8.54
31
0
0
LINE
8
0
6
CONTINUOUS
10
2.0
20
-10.02
30
0
11
2.0
21
-11.41
31
0
0
LINE
8
0
6
CONTINUOUS
10
-2.0
20
-10.02
30
0
11
-2.0
21
-11.41
31
0
0
LINE
8
0
6
CONTINUOUS
10
0.0
20
-11.41
30
0
11
0.0
21
-10.02
31
0
0
LINE
8
0
6
CONTINUOUS
10
-2.0
20
-10.53
30
0
11
2.0
21
-10.53
31
0
0
LINE
8
0
6
CONTINUOUS
10
1.25
20
-10.88
30
0
11
2.0
21
-10.24
31
0
0
LINE
8
0
6
CONTINUOUS
10
-2.0
20
-11.17
30
0
11
-1.25
21
-10.53
31
0
0
LINE
8
0
6
CONTINUOUS
10
2.0
20
-10.24
30
0
11
-2.0
21
-11.17
31
0
0
LINE
8
0
6
CONTINUOUS
10
2.0
20
-12.66
30
0
11
2.0
21
-14.05
31
0
0
LINE
8
0
6
CONTINUOUS
10
-2.0
20
-12.66
30
0
11
-2.0
21
-14.05
31
0
0
LINE
8
0
6
CONTINUOUS
10
0.0
20
-14.05
30
0
11
0.0
21
-12.66
31
0
0
LINE
8
0
6
CONTINUOUS
10
-2.0
20
-13.17
30
0
11
2.0
21
-13.17
31
0
0
LINE
8
0
6
CONTINUOUS
10
1.25
20
-13.52
30
0
11
2.0
21
-12.88
31
0
0
LINE
8
0
6
CONTINUOUS
10
-2.0
20
-13.81
30
0
11
-1.25
21
-13.17
31
0
0
LINE
8
0
6
CONTINUOUS
10
2.0
20
-12.88
30
0
11
-2.0
21
-13.81
31
0
0
LINE
8
0
6
CONTINUOUS
10
2.0
20
-15.29
30
0
11
2.0
21
-16.68
31
0
0
LINE
8
0
6
CONTINUOUS
10
-2.0
20
-15.29
30
0
11
-2.0
21
-16.68
31
0
0
LINE
8
0
6
CONTINUOUS
10
0.0
20
-16.68
30
0
11
0.0
21
-15.29
31
0
0
LINE
8
0
6
CONTINUOUS
10
-2.0
20
-15.8
30
0
11
2.0
21
-15.8
31
0
0
LINE
8
0
6
CONTINUOUS
10
1.25
20
-16.15
30
0
11
2.0
21
-15.51
31
0
0
LINE
8
0
6
CONTINUOUS
10
-2.0
20
-16.44
30
0
11
-1.25
21
-15.8
31
0
0
LINE
8
0
6
CONTINUOUS
10
2.0
20
-15.51
30
0
11
-2.0
21
-16.44
31
0
0
LINE
8
0
6
CONTINUOUS
10
2.0
20
-17.93
30
0
11
2.0
21
-19.32
31
0
0
LINE
8
0
6
CONTINUOUS
10
-2.0
20
-17.93
30
0
11
-2.0
21
-19.32
31
0
0
LINE
8
0
6
CONTINUOUS
10
0.0
20
-19.32
30
0
11
0.0
21
-17.93
31
0
0
LINE
8
0
6
CONTINUOUS
10
-2.0
20
-18.44
30
0
11
2.0
21
-18.44
31
0
0
LINE
8
0
6
CONTINUOUS
10
1.25
20
-18.79
30
0
11
2.0
21
-18.15
31
0
0
LINE
8
0
6
CONTINUOUS
10
-2.0
20
-19.08
30
0
11
-1.25
21
-18.44
31
0
0
LINE
8
0
6
CONTINUOUS
10
2.0
20
-18.15
30
0
11
-2.0
21
-19.08
31
0
0
LINE
8
0
6
CONTINUOUS
10
2.0
20
-20.57
30
0
11
2.0
21
-21.96
31
0
0
LINE
8
0
6
CONTINUOUS
10
-2.0
20
-20.57
30
0
11
-2.0
21
-21.96
31
0
0
LINE
8
0
6
CONTINUOUS
10
0.0
20
-21.96
30
0
11
0.0
21
-20.57
31
0
0
LINE
8
0
6
CONTINUOUS
10
-2.0
20
-21.07
30
0
11
2.0
21
-21.07
31
0
0
LINE
8
0
6
CONTINUOUS
10
1.25
20
-21.42
30
0
11
2.0
21
-20.78
31
0
0
LINE
8
0
6
CONTINUOUS
10
-2.0
20
-21.71
30
0
11
-1.25
21
-21.07
31
0
0
LINE
8
0
6
CONTINUOUS
10
2.0
20
-20.78
30
0
11
-2.0
21
-21.71
31
0
0
LINE
8
0
6
CONTINUOUS
10
2.0
20
-23.2
30
0
11
2.0
21
-24.59
31
0
0
LINE
8
0
6
CONTINUOUS
10
-2.0
20
-23.2
30
0
11
-2.0
21
-24.59
31
0
0
LINE
8
0
6
CONTINUOUS
10
0.0
20
-24.59
30
0
11
0.0
21
-23.2
31
0
0
LINE
8
0
6
CONTINUOUS
10
-2.0
20
-23.71
30
0
11
2.0
21
-23.71
31
0
0
LINE
8
0
6
CONTINUOUS
10
1.25
20
-24.06
30
0
11
2.0
21
-23.42
31
0
0
LINE
8
0
6
CONTINUOUS
10
-2.0
20
-24.35
30
0
11
-1.25
21
-23.71
31
0
0
LINE
8
0
6
CONTINUOUS
10
2.0
20
-23.42
30
0
11
-2.0
21
-24.35
31
0
0
LINE
8
0
6
CONTINUOUS
10
2.0
20
-25.84
30
0
11
2.0
21
-27.23
31
0
0
LINE
8
0
6
CONTINUOUS
10
-2.0
20
-25.84
30
0
11
-2.0
21
-27.23
31
0
0
LINE
8
0
6
CONTINUOUS
10
0.0
20
-27.23
30
0
11
0.0
21
-25.84
31
0
0
LINE
8
0
6
CONTINUOUS
10
-2.0
20
-26.35
30
0
11
2.0
21
-26.35
31
0
0
LINE
8
0
6
CONTINUOUS
10
1.25
20
-26.7
30
0
11
2.0
21
-26.06
31
0
0
LINE
8
0
6
CONTINUOUS
10
-2.0
20
-26.99
30
0
11
-1.25
21
-26.35
31
0
0
LINE
8
0
6
CONTINUOUS
10
2.0
20
-26.06
30
0
11
-2.0
21
-26.99
31
0
0
LINE
8
0
6
CONTINUOUS
10
2.0
20
-28.47
30
0
11
2.0
21
-29.86
31
0
0
LINE
8
0
6
CONTINUOUS
10
-2.0
20
-28.47
30
0
11
-2.0
21
-29.86
31
0
0
LINE
8
0
6
CONTINUOUS
10
0.0
20
-29.86
30
0
11
0.0
21
-28.47
31
0
0
LINE
8
0
6
CONTINUOUS
10
-2.0
20
-28.98
30
0
11
2.0
21
-28.98
31
0
0
LINE
8
0
6
CONTINUOUS
10
1.25
20
-29.33
30
0
11
2.0
21
-28.69
31
0
0
LINE
8
0
6
CONTINUOUS
10
-2.0
20
-29.62
30
0
11
-1.25
21
-28.98
31
0
0
LINE
8
0
6
CONTINUOUS
10
2.0
20
-28.69
30
0
11
-2.0
21
-29.62
31
0
0
LINE
8
0
6
CONTINUOUS
10
2.0
20
-31.11
30
0
11
2.0
21
-32.5
31
0
0
LINE
8
0
6
CONTINUOUS
10
-2.0
20
-31.11
30
0
11
-2.0
21
-32.5
31
0
0
LINE
8
0
6
CONTINUOUS
10
0.0
20
-32.5
30
0
11
0.0
21
-31.11
31
0
0
LINE
8
0
6
CONTINUOUS
10
-2.0
20
-31.62
30
0
11
2.0
21
-31.62
31
0
0
LINE
8
0
6
CONTINUOUS
10
1.25
20
-31.97
30
0
11
2.0
21
-31.33
31
0
0
LINE
8
0
6
CONTINUOUS
10
-2.0
20
-32.26
30
0
11
-1.25
21
-31.62
31
0
0
LINE
8
0
6
CONTINUOUS
10
2.0
20
-31.33
30
0
11
-2.0
21
-32.26
31
0
0
LINE
8
0
6
CONTINUOUS
10
1.26
20
-35.94
30
0
11
1.26
21
-36.82
31
0
0
LINE
8
0
6
CONTINUOUS
10
-1.26
20
-35.94
30
0
11
-1.26
21
-36.82
31
0
0
LINE
8
0
6
CONTINUOUS
10
0.0
20
-36.82
30
0
11
0.0
21
-35.94
31
0
0
LINE
8
0
6
CONTINUOUS
10
-1.26
20
-36.02
30
0
11
1.26
21
-36.02
31
0
0
LINE
8
0
6
CONTINUOUS
10
0.51
20
-36.71
30
0
11
1.26
21
-36.07
31
0
0
LINE
8
0
6
CONTINUOUS
10
-1.26
20
-36.66
30
0
11
-0.51
21
-36.02
31
0
0
LINE
8
0
6
CONTINUOUS
10
1.26
20
-36.07
30
0
11
-1.26
21
-36.66
31
0
0
LINE
8
0
6
CONTINUOUS
10
0.52
20
-38.07
30
0
11
0.52
21
-39.11
31
0
0
LINE
8
0
6
CONTINUOUS
10
-0.52
20
-38.07
30
0
11
-0.52
21
-39.11
31
0
0
LINE
8
0
6
CONTINUOUS
10
-0.0
20
-39.11
30
0
11
-0.0
21
-38.07
31
0
0
LINE
8
0
6
CONTINUOUS
10
-0.52
20
-38.07
30
0
11
0.53
21
-38.07
31
0
0
LINE
8
0
6
CONTINUOUS
10
-0.23
20
-39.11
30
0
11
0.52
21
-38.47
31
0
0
LINE
8
0
6
CONTINUOUS
10
-0.52
20
-38.71
30
0
11
0.23
21
-38.07
31
0
0
LINE
8
0
6
CONTINUOUS
10
0.52
20
-38.47
30
0
11
-0.52
21
-38.71
31
0
0
LINE
8
0
6
CONTINUOUS
10
-1.0
20
-3.55
30
0
11
-1.0
21
0.0
31
0
0
LINE
8
0
6
CONTINUOUS
10
1.0
20
-3.55
30
0
11
1.0
21
0.0
31
0
0
ENDSEC
0
EOF