0
SECTION
2
HEADER
0
ENDSEC
0
SECTION
2
TABLES
0
TABLE
2
LTYPE
70
3
0
LTYPE
2
CONTINUOUS
70
0
3
Solid line
72
65
73
0
40
0.0
0
LTYPE
2
CENTER
70
0
3
center
72
65
73
4
40
28.575
49
12.7
49
-6.35
49
3.175
49
-6.35
0
ENDTAB
0
TABLE
2
LAYER
70
1
0
LAYER
2
0
70
0
62
7
6
CONTINUOUS
0
ENDTAB
0
ENDSEC
0
SECTION
2
ENTITIES
0
LINE
8
0
6
CONTINUOUS
10
62.5
20
176.77
30
0
11
62.5
21
-95.32
31
0
0
LINE
8
0
6
CONTINUOUS
10
-62.5
20
176.77
30
0
11
-62.5
21
-95.32
31
0
0
LINE
8
0
6
CONTINUOUS
10
62.5
20
176.77
30
0
11
-62.5
21
176.77
31
0
0
LINE
8
0
6
CONTINUOUS
10
62.5
20
-95.32
30
0
11
-62.5
21
-95.32
31
0
0
LINE
8
0
6
CONTINUOUS
10
62.5
20
-79.17
30
0
11
-62.5
21
-79.17
31
0
0
LINE
8
0
6
CONTINUOUS
10
62.5
20
160.54
30
0
11
-62.5
21
160.54
31
0
0
LINE
8
0
6
CONTINUOUS
10
28.25
20
-95.32
30
0
11
28.25
21
176.77
31
0
0
LINE
8
0
6
CONTINUOUS
10
-28.25
20
176.77
30
0
11
-28.25
21
-95.32
31
0
0
LINE
8
0
6
CONTINUOUS
10
56.5
20
176.77
30
0
11
56.5
21
-95.32
31
0
0
LINE
8
0
6
CONTINUOUS
10
-56.5
20
176.77
30
0
11
-56.5
21
-95.32
31
0
0
LINE
8
0
6
CONTINUOUS
10
-62.5
20
170.68
30
0
11
62.5
21
170.68
31
0
0
LINE
8
0
6
CONTINUOUS
10
-4.7
20
176.77
30
0
11
-4.7
21
-95.32
31
0
0
LINE
8
0
6
CONTINUOUS
10
4.7
20
176.77
30
0
11
4.7
21
-95.32
31
0
0
LINE
8
0
6
CONTINUOUS
10
62.5
20
-89.32
30
0
11
-62.5
21
-89.32
31
0
0
LINE
8
0
6
CONTINUOUS
10
0.0
20
176.77
30
0
11
0.0
21
-95.32
31
0
0
LINE
8
0
6
CONTINUOUS
10
-62.5
20
40.68
30
0
11
62.5
21
40.68
31
0
0
LINE
8
0
6
CONTINUOUS
10
-56.5
20
-89.32
30
0
11
56.5
21
-89.32
31
0
0
LINE
8
0
6
CONTINUOUS
10
56.5
20
-89.32
30
0
11
56.5
21
-79.16
31
0
0
LINE
8
0
6
CONTINUOUS
10
56.5
20
-79.16
30
0
11
28.38
21
-75.22
31
0
0
LINE
8
0
6
CONTINUOUS
10
28.38
20
-75.22
30
0
11
9.13
21
-72.52
31
0
0
ARC
8
0
6
CONTINUOUS
10
14.099996003690359
20
-64.54133220873923
30
0
40
9.4
50
180.0528327582256
51
238.08078778702975
0
LINE
8
0
6
CONTINUOUS
10
4.7
20
-64.55
30
0
11
4.7
21
146.25
31
0
0
ARC
8
0
6
CONTINUOUS
10
14.099996934977737
20
146.2575909425741
30
0
40
9.4
50
126.64164110094362
51
180.04626904460574
0
LINE
8
0
6
CONTINUOUS
10
8.49
20
153.8
30
0
11
28.38
21
156.58
31
0
0
LINE
8
0
6
CONTINUOUS
10
28.38
20
156.58
30
0
11
56.5
21
160.52
31
0
0
LINE
8
0
6
CONTINUOUS
10
56.5
20
160.52
30
0
11
56.5
21
170.68
31
0
0
LINE
8
0
6
CONTINUOUS
10
56.5
20
170.68
30
0
11
-56.5
21
170.68
31
0
0
LINE
8
0
6
CONTINUOUS
10
-56.5
20
170.68
30
0
11
-56.5
21
160.52
31
0
0
LINE
8
0
6
CONTINUOUS
10
-56.5
20
160.52
30
0
11
-28.38
21
156.58
31
0
0
LINE
8
0
6
CONTINUOUS
10
-28.38
20
156.58
30
0
11
-7.03
21
153.59
31
0
0
ARC
8
0
6
CONTINUOUS
10
-14.099998792124858
20
147.39523470344898
30
0
40
9.4
50
0.02904589278688946
51
41.22499119350588
0
LINE
8
0
6
CONTINUOUS
10
-4.7
20
147.4
30
0
11
-4.7
21
-66.12
31
0
0
ARC
8
0
6
CONTINUOUS
10
-14.099995222517878
20
-66.12947716419015
30
0
40
9.4
50
319.61443940720744
51
0.05776612785532117
0
LINE
8
0
6
CONTINUOUS
10
-6.94
20
-72.22
30
0
11
-28.38
21
-75.22
31
0
0
LINE
8
0
6
CONTINUOUS
10
-28.38
20
-75.22
30
0
11
-56.5
21
-79.16
31
0
0
LINE
8
0
6
CONTINUOUS
10
-56.5
20
-79.16
30
0
11
-56.5
21
-89.32
31
0
0
LINE
8
0
6
CONTINUOUS
10
56.5
20
-89.32
30
0
11
56.5
21
-79.16
31
0
0
LINE
8
0
6
CONTINUOUS
10
4.7
20
-64.55
30
0
11
4.7
21
146.25
31
0
0
LINE
8
0
6
CONTINUOUS
10
56.5
20
-89.32
30
0
11
-56.5
21
-89.32
31
0
0
LINE
8
0
6
CONTINUOUS
10
-56.5
20
-89.32
30
0
11
-56.5
21
-79.16
31
0
0
ARC
8
0
6
CONTINUOUS
10
-14.099995222517878
20
-66.12947716419015
30
0
40
9.4
50
319.61443940720744
51
0.05776612785532117
0
LINE
8
0
6
CONTINUOUS
10
-4.7
20
-66.12
30
0
11
-4.7
21
147.4
31
0
0
LINE
8
0
6
CONTINUOUS
10
56.5
20
160.52
30
0
11
28.38
21
156.58
31
0
0
ARC
8
0
6
CONTINUOUS
10
14.099996934977737
20
146.2575909425741
30
0
40
9.4
50
126.64164110094362
51
180.04626904460574
0
LINE
8
0
6
CONTINUOUS
10
56.5
20
170.68
30
0
11
-56.5
21
170.68
31
0
0
LINE
8
0
6
CONTINUOUS
10
-56.5
20
170.68
30
0
11
-56.5
21
160.52
31
0
0
LINE
8
0
6
CONTINUOUS
10
-56.5
20
160.52
30
0
11
-28.38
21
156.58
31
0
0
LINE
8
0
6
CONTINUOUS
10
-56.5
20
-79.16
30
0
11
-28.38
21
-75.22
31
0
0
LINE
8
0
6
CONTINUOUS
10
56.5
20
-79.16
30
0
11
28.38
21
-75.22
31
0
0
ARC
8
0
6
CONTINUOUS
10
14.099996003690359
20
-64.54133220873923
30
0
40
9.4
50
180.0528327582256
51
238.08078778702975
0
ARC
8
0
6
CONTINUOUS
10
-14.099998792124858
20
147.39523470344898
30
0
40
9.4
50
0.02904589278688946
51
41.22499119350588
0
LINE
8
0
6
CONTINUOUS
10
56.5
20
170.68
30
0
11
56.5
21
160.52
31
0
0
LINE
8
0
6
CONTINUOUS
10
-28.38
20
-75.22
30
0
11
-6.94
21
-72.22
31
0
0
LINE
8
0
6
CONTINUOUS
10
28.38
20
-75.22
30
0
11
9.13
21
-72.52
31
0
0
LINE
8
0
6
CONTINUOUS
10
28.38
20
156.58
30
0
11
8.49
21
153.8
31
0
0
LINE
8
0
6
CONTINUOUS
10
-28.38
20
156.58
30
0
11
-7.03
21
153.59
31
0
0
LINE
8
0
6
CENTER
10
-0.0
20
-95.32
30
0
11
-0.0
21
176.77
31
0
0
LINE
8
0
6
CENTER
10
-62.5
20
40.66
30
0
11
62.5
21
40.66
31
0
0
ENDSEC
0
EOF