0
SECTION
2
HEADER
0
ENDSEC
0
SECTION
2
TABLES
0
TABLE
2
LTYPE
70
3
0
LTYPE
2
CONTINUOUS
70
0
3
Solid line
72
65
73
0
40
0.0
0
LTYPE
2
CENTER
70
0
3
center
72
65
73
4
40
28.575
49
12.7
49
-6.35
49
3.175
49
-6.35
0
ENDTAB
0
TABLE
2
LAYER
70
1
0
LAYER
2
0
70
0
62
7
6
CONTINUOUS
0
ENDTAB
0
ENDSEC
0
SECTION
2
ENTITIES
0
LINE
8
0
6
CONTINUOUS
10
16.0
20
9.1
30
0
11
16.0
21
-65.9
31
0
0
LINE
8
0
6
CONTINUOUS
10
-16.0
20
9.1
30
0
11
-16.0
21
-65.9
31
0
0
LINE
8
0
6
CONTINUOUS
10
1.02
20
9.1
30
0
11
1.02
21
-65.9
31
0
0
LINE
8
0
6
CONTINUOUS
10
1.76
20
9.1
30
0
11
1.76
21
-65.9
31
0
0
LINE
8
0
6
CONTINUOUS
10
-1.02
20
-65.9
30
0
11
-1.02
21
9.1
31
0
0
LINE
8
0
6
CONTINUOUS
10
-1.76
20
-65.9
30
0
11
-1.76
21
9.1
31
0
0
LINE
8
0
6
CONTINUOUS
10
5.15
20
9.1
30
0
11
5.15
21
-65.9
31
0
0
LINE
8
0
6
CONTINUOUS
10
-5.15
20
9.1
30
0
11
-5.15
21
-65.9
31
0
0
LINE
8
0
6
CONTINUOUS
10
-16.0
20
-55.0
30
0
11
16.0
21
-55.0
31
0
0
LINE
8
0
6
CONTINUOUS
10
-16.0
20
-60.0
30
0
11
16.0
21
-60.0
31
0
0
LINE
8
0
6
CONTINUOUS
10
2.5
20
-65.9
30
0
11
2.5
21
9.1
31
0
0
LINE
8
0
6
CONTINUOUS
10
-2.5
20
9.1
30
0
11
-2.5
21
-65.9
31
0
0
LINE
8
0
6
CONTINUOUS
10
0.0
20
-65.9
30
0
11
0.0
21
9.1
31
0
0
LINE
8
0
6
CONTINUOUS
10
-16.0
20
0.0
30
0
11
16.0
21
0.0
31
0
0
LINE
8
0
6
CONTINUOUS
10
-1.5
20
-4.0
30
0
11
1.53
21
-3.26
31
0
0
ARC
8
0
6
CONTINUOUS
10
2.999997808311271
20
-3.5525641882505097
30
0
40
1.5
50
129.7917105471753
51
179.90205517587594
0
LINE
8
0
6
CONTINUOUS
10
4.9
20
0.0
30
0
11
2.04
21
-2.4
31
0
0
LINE
8
0
6
CONTINUOUS
10
-4.9
20
0.0
30
0
11
4.9
21
0.0
31
0
0
LINE
8
0
6
CONTINUOUS
10
-4.54
20
-0.3
30
0
11
4.54
21
-0.3
31
0
0
LINE
8
0
6
CONTINUOUS
10
-2.04
20
-2.4
30
0
11
-4.9
21
0.0
31
0
0
ARC
8
0
6
CONTINUOUS
10
-2.999997808311271
20
-3.5525641882505097
30
0
40
1.5
50
0.09794482412407453
51
50.2082894528247
0
LINE
8
0
6
CONTINUOUS
10
-1.5
20
-3.55
30
0
11
-1.5
21
-55.0
31
0
0
LINE
8
0
6
CONTINUOUS
10
1.5
20
-55.0
30
0
11
1.5
21
-3.55
31
0
0
LINE
8
0
6
CONTINUOUS
10
-1.5
20
-55.0
30
0
11
-0.0
21
-60.0
31
0
0
LINE
8
0
6
CONTINUOUS
10
-0.0
20
-60.0
30
0
11
1.5
21
-55.0
31
0
0
LINE
8
0
6
CONTINUOUS
10
2.5
20
-4.46
30
0
11
2.5
21
-6.19
31
0
0
LINE
8
0
6
CONTINUOUS
10
-2.5
20
-4.46
30
0
11
-2.5
21
-6.19
31
0
0
LINE
8
0
6
CONTINUOUS
10
0.0
20
-6.19
30
0
11
0.0
21
-4.46
31
0
0
LINE
8
0
6
CONTINUOUS
10
-2.5
20
-5.26
30
0
11
2.5
21
-5.26
31
0
0
LINE
8
0
6
CONTINUOUS
10
1.75
20
-5.38
30
0
11
2.5
21
-4.74
31
0
0
LINE
8
0
6
CONTINUOUS
10
-2.5
20
-5.9
30
0
11
-1.75
21
-5.26
31
0
0
LINE
8
0
6
CONTINUOUS
10
2.5
20
-4.74
30
0
11
-2.5
21
-5.9
31
0
0
LINE
8
0
6
CENTER
10
-0.0
20
9.1
30
0
11
-0.0
21
-65.9
31
0
0
LINE
8
0
6
CONTINUOUS
10
2.5
20
-53.45
30
0
11
2.5
21
-55.19
31
0
0
LINE
8
0
6
CONTINUOUS
10
-2.5
20
-53.45
30
0
11
-2.5
21
-55.19
31
0
0
LINE
8
0
6
CONTINUOUS
10
-0.0
20
-55.19
30
0
11
-0.0
21
-53.45
31
0
0
LINE
8
0
6
CONTINUOUS
10
-2.5
20
-54.25
30
0
11
2.5
21
-54.25
31
0
0
LINE
8
0
6
CONTINUOUS
10
1.75
20
-54.37
30
0
11
2.5
21
-53.73
31
0
0
LINE
8
0
6
CONTINUOUS
10
-2.5
20
-54.89
30
0
11
-1.75
21
-54.25
31
0
0
LINE
8
0
6
CONTINUOUS
10
2.5
20
-53.73
30
0
11
-2.5
21
-54.89
31
0
0
LINE
8
0
6
CONTINUOUS
10
2.5
20
-6.79
30
0
11
2.5
21
-8.53
31
0
0
LINE
8
0
6
CONTINUOUS
10
-2.5
20
-6.79
30
0
11
-2.5
21
-8.53
31
0
0
LINE
8
0
6
CONTINUOUS
10
0.0
20
-8.53
30
0
11
0.0
21
-6.79
31
0
0
LINE
8
0
6
CONTINUOUS
10
-2.5
20
-7.59
30
0
11
2.5
21
-7.59
31
0
0
LINE
8
0
6
CONTINUOUS
10
1.75
20
-7.71
30
0
11
2.5
21
-7.07
31
0
0
LINE
8
0
6
CONTINUOUS
10
-2.5
20
-8.23
30
0
11
-1.75
21
-7.59
31
0
0
LINE
8
0
6
CONTINUOUS
10
2.5
20
-7.07
30
0
11
-2.5
21
-8.23
31
0
0
LINE
8
0
6
CONTINUOUS
10
2.5
20
-9.12
30
0
11
2.5
21
-10.86
31
0
0
LINE
8
0
6
CONTINUOUS
10
-2.5
20
-9.12
30
0
11
-2.5
21
-10.86
31
0
0
LINE
8
0
6
CONTINUOUS
10
0.0
20
-10.86
30
0
11
0.0
21
-9.12
31
0
0
LINE
8
0
6
CONTINUOUS
10
-2.5
20
-9.93
30
0
11
2.5
21
-9.93
31
0
0
LINE
8
0
6
CONTINUOUS
10
1.75
20
-10.04
30
0
11
2.5
21
-9.4
31
0
0
LINE
8
0
6
CONTINUOUS
10
-2.5
20
-10.57
30
0
11
-1.75
21
-9.93
31
0
0
LINE
8
0
6
CONTINUOUS
10
2.5
20
-9.4
30
0
11
-2.5
21
-10.57
31
0
0
LINE
8
0
6
CONTINUOUS
10
2.5
20
-11.46
30
0
11
2.5
21
-13.19
31
0
0
LINE
8
0
6
CONTINUOUS
10
-2.5
20
-11.46
30
0
11
-2.5
21
-13.19
31
0
0
LINE
8
0
6
CONTINUOUS
10
0.0
20
-13.19
30
0
11
0.0
21
-11.46
31
0
0
LINE
8
0
6
CONTINUOUS
10
-2.5
20
-12.26
30
0
11
2.5
21
-12.26
31
0
0
LINE
8
0
6
CONTINUOUS
10
1.75
20
-12.37
30
0
11
2.5
21
-11.73
31
0
0
LINE
8
0
6
CONTINUOUS
10
-2.5
20
-12.9
30
0
11
-1.75
21
-12.26
31
0
0
LINE
8
0
6
CONTINUOUS
10
2.5
20
-11.73
30
0
11
-2.5
21
-12.9
31
0
0
LINE
8
0
6
CONTINUOUS
10
2.5
20
-13.79
30
0
11
2.5
21
-15.53
31
0
0
LINE
8
0
6
CONTINUOUS
10
-2.5
20
-13.79
30
0
11
-2.5
21
-15.53
31
0
0
LINE
8
0
6
CONTINUOUS
10
0.0
20
-15.53
30
0
11
0.0
21
-13.79
31
0
0
LINE
8
0
6
CONTINUOUS
10
-2.5
20
-14.59
30
0
11
2.5
21
-14.59
31
0
0
LINE
8
0
6
CONTINUOUS
10
1.75
20
-14.71
30
0
11
2.5
21
-14.07
31
0
0
LINE
8
0
6
CONTINUOUS
10
-2.5
20
-15.23
30
0
11
-1.75
21
-14.59
31
0
0
LINE
8
0
6
CONTINUOUS
10
2.5
20
-14.07
30
0
11
-2.5
21
-15.23
31
0
0
LINE
8
0
6
CONTINUOUS
10
2.5
20
-16.12
30
0
11
2.5
21
-17.86
31
0
0
LINE
8
0
6
CONTINUOUS
10
-2.5
20
-16.12
30
0
11
-2.5
21
-17.86
31
0
0
LINE
8
0
6
CONTINUOUS
10
0.0
20
-17.86
30
0
11
0.0
21
-16.12
31
0
0
LINE
8
0
6
CONTINUOUS
10
-2.5
20
-16.92
30
0
11
2.5
21
-16.92
31
0
0
LINE
8
0
6
CONTINUOUS
10
1.75
20
-17.04
30
0
11
2.5
21
-16.4
31
0
0
LINE
8
0
6
CONTINUOUS
10
-2.5
20
-17.56
30
0
11
-1.75
21
-16.92
31
0
0
LINE
8
0
6
CONTINUOUS
10
2.5
20
-16.4
30
0
11
-2.5
21
-17.56
31
0
0
LINE
8
0
6
CONTINUOUS
10
2.5
20
-18.46
30
0
11
2.5
21
-20.19
31
0
0
LINE
8
0
6
CONTINUOUS
10
-2.5
20
-18.46
30
0
11
-2.5
21
-20.19
31
0
0
LINE
8
0
6
CONTINUOUS
10
0.0
20
-20.19
30
0
11
0.0
21
-18.46
31
0
0
LINE
8
0
6
CONTINUOUS
10
-2.5
20
-19.26
30
0
11
2.5
21
-19.26
31
0
0
LINE
8
0
6
CONTINUOUS
10
1.75
20
-19.37
30
0
11
2.5
21
-18.73
31
0
0
LINE
8
0
6
CONTINUOUS
10
-2.5
20
-19.9
30
0
11
-1.75
21
-19.26
31
0
0
LINE
8
0
6
CONTINUOUS
10
2.5
20
-18.73
30
0
11
-2.5
21
-19.9
31
0
0
LINE
8
0
6
CONTINUOUS
10
2.5
20
-20.79
30
0
11
2.5
21
-22.52
31
0
0
LINE
8
0
6
CONTINUOUS
10
-2.5
20
-20.79
30
0
11
-2.5
21
-22.52
31
0
0
LINE
8
0
6
CONTINUOUS
10
0.0
20
-22.52
30
0
11
0.0
21
-20.79
31
0
0
LINE
8
0
6
CONTINUOUS
10
-2.5
20
-21.59
30
0
11
2.5
21
-21.59
31
0
0
LINE
8
0
6
CONTINUOUS
10
1.75
20
-21.71
30
0
11
2.5
21
-21.07
31
0
0
LINE
8
0
6
CONTINUOUS
10
-2.5
20
-22.23
30
0
11
-1.75
21
-21.59
31
0
0
LINE
8
0
6
CONTINUOUS
10
2.5
20
-21.07
30
0
11
-2.5
21
-22.23
31
0
0
LINE
8
0
6
CONTINUOUS
10
2.5
20
-23.12
30
0
11
2.5
21
-24.86
31
0
0
LINE
8
0
6
CONTINUOUS
10
-2.5
20
-23.12
30
0
11
-2.5
21
-24.86
31
0
0
LINE
8
0
6
CONTINUOUS
10
0.0
20
-24.86
30
0
11
0.0
21
-23.12
31
0
0
LINE
8
0
6
CONTINUOUS
10
-2.5
20
-23.92
30
0
11
2.5
21
-23.92
31
0
0
LINE
8
0
6
CONTINUOUS
10
1.75
20
-24.04
30
0
11
2.5
21
-23.4
31
0
0
LINE
8
0
6
CONTINUOUS
10
-2.5
20
-24.56
30
0
11
-1.75
21
-23.92
31
0
0
LINE
8
0
6
CONTINUOUS
10
2.5
20
-23.4
30
0
11
-2.5
21
-24.56
31
0
0
LINE
8
0
6
CONTINUOUS
10
2.5
20
-25.46
30
0
11
2.5
21
-27.19
31
0
0
LINE
8
0
6
CONTINUOUS
10
-2.5
20
-25.46
30
0
11
-2.5
21
-27.19
31
0
0
LINE
8
0
6
CONTINUOUS
10
0.0
20
-27.19
30
0
11
0.0
21
-25.46
31
0
0
LINE
8
0
6
CONTINUOUS
10
-2.5
20
-26.26
30
0
11
2.5
21
-26.26
31
0
0
LINE
8
0
6
CONTINUOUS
10
1.75
20
-26.37
30
0
11
2.5
21
-25.73
31
0
0
LINE
8
0
6
CONTINUOUS
10
-2.5
20
-26.9
30
0
11
-1.75
21
-26.26
31
0
0
LINE
8
0
6
CONTINUOUS
10
2.5
20
-25.73
30
0
11
-2.5
21
-26.9
31
0
0
LINE
8
0
6
CONTINUOUS
10
2.5
20
-27.79
30
0
11
2.5
21
-29.52
31
0
0
LINE
8
0
6
CONTINUOUS
10
-2.5
20
-27.79
30
0
11
-2.5
21
-29.52
31
0
0
LINE
8
0
6
CONTINUOUS
10
0.0
20
-29.52
30
0
11
0.0
21
-27.79
31
0
0
LINE
8
0
6
CONTINUOUS
10
-2.5
20
-28.59
30
0
11
2.5
21
-28.59
31
0
0
LINE
8
0
6
CONTINUOUS
10
1.75
20
-28.71
30
0
11
2.5
21
-28.07
31
0
0
LINE
8
0
6
CONTINUOUS
10
-2.5
20
-29.23
30
0
11
-1.75
21
-28.59
31
0
0
LINE
8
0
6
CONTINUOUS
10
2.5
20
-28.07
30
0
11
-2.5
21
-29.23
31
0
0
LINE
8
0
6
CONTINUOUS
10
1.76
20
-55.65
30
0
11
1.76
21
-56.87
31
0
0
LINE
8
0
6
CONTINUOUS
10
-1.76
20
-55.65
30
0
11
-1.76
21
-56.87
31
0
0
LINE
8
0
6
CONTINUOUS
10
-0.0
20
-56.87
30
0
11
-0.0
21
-55.65
31
0
0
LINE
8
0
6
CONTINUOUS
10
-1.76
20
-56.02
30
0
11
1.76
21
-56.02
31
0
0
LINE
8
0
6
CONTINUOUS
10
1.01
20
-56.48
30
0
11
1.76
21
-55.84
31
0
0
LINE
8
0
6
CONTINUOUS
10
-1.76
20
-56.66
30
0
11
-1.01
21
-56.02
31
0
0
LINE
8
0
6
CONTINUOUS
10
1.76
20
-55.84
30
0
11
-1.76
21
-56.66
31
0
0
LINE
8
0
6
CONTINUOUS
10
1.02
20
-58.07
30
0
11
1.02
21
-58.87
31
0
0
LINE
8
0
6
CONTINUOUS
10
-1.02
20
-58.07
30
0
11
-1.02
21
-58.87
31
0
0
LINE
8
0
6
CONTINUOUS
10
-0.0
20
-58.87
30
0
11
-0.0
21
-58.07
31
0
0
LINE
8
0
6
CONTINUOUS
10
-1.02
20
-58.07
30
0
11
1.02
21
-58.07
31
0
0
LINE
8
0
6
CONTINUOUS
10
0.27
20
-58.87
30
0
11
1.02
21
-58.23
31
0
0
LINE
8
0
6
CONTINUOUS
10
-1.02
20
-58.71
30
0
11
-0.27
21
-58.07
31
0
0
LINE
8
0
6
CONTINUOUS
10
1.02
20
-58.23
30
0
11
-1.02
21
-58.71
31
0
0
LINE
8
0
6
CONTINUOUS
10
2.5
20
-30.12
30
0
11
2.5
21
-31.86
31
0
0
LINE
8
0
6
CONTINUOUS
10
-2.5
20
-30.12
30
0
11
-2.5
21
-31.86
31
0
0
LINE
8
0
6
CONTINUOUS
10
0.0
20
-31.86
30
0
11
0.0
21
-30.12
31
0
0
LINE
8
0
6
CONTINUOUS
10
-2.5
20
-30.92
30
0
11
2.5
21
-30.92
31
0
0
LINE
8
0
6
CONTINUOUS
10
1.75
20
-31.04
30
0
11
2.5
21
-30.4
31
0
0
LINE
8
0
6
CONTINUOUS
10
-2.5
20
-31.56
30
0
11
-1.75
21
-30.92
31
0
0
LINE
8
0
6
CONTINUOUS
10
2.5
20
-30.4
30
0
11
-2.5
21
-31.56
31
0
0
LINE
8
0
6
CONTINUOUS
10
2.5
20
-32.46
30
0
11
2.5
21
-34.19
31
0
0
LINE
8
0
6
CONTINUOUS
10
-2.5
20
-32.46
30
0
11
-2.5
21
-34.19
31
0
0
LINE
8
0
6
CONTINUOUS
10
0.0
20
-34.19
30
0
11
0.0
21
-32.46
31
0
0
LINE
8
0
6
CONTINUOUS
10
-2.5
20
-33.26
30
0
11
2.5
21
-33.26
31
0
0
LINE
8
0
6
CONTINUOUS
10
1.75
20
-33.37
30
0
11
2.5
21
-32.73
31
0
0
LINE
8
0
6
CONTINUOUS
10
-2.5
20
-33.9
30
0
11
-1.75
21
-33.26
31
0
0
LINE
8
0
6
CONTINUOUS
10
2.5
20
-32.73
30
0
11
-2.5
21
-33.9
31
0
0
LINE
8
0
6
CONTINUOUS
10
2.5
20
-34.79
30
0
11
2.5
21
-36.52
31
0
0
LINE
8
0
6
CONTINUOUS
10
-2.5
20
-34.79
30
0
11
-2.5
21
-36.52
31
0
0
LINE
8
0
6
CONTINUOUS
10
0.0
20
-36.52
30
0
11
0.0
21
-34.79
31
0
0
LINE
8
0
6
CONTINUOUS
10
-2.5
20
-35.59
30
0
11
2.5
21
-35.59
31
0
0
LINE
8
0
6
CONTINUOUS
10
1.75
20
-35.71
30
0
11
2.5
21
-35.07
31
0
0
LINE
8
0
6
CONTINUOUS
10
-2.5
20
-36.23
30
0
11
-1.75
21
-35.59
31
0
0
LINE
8
0
6
CONTINUOUS
10
2.5
20
-35.07
30
0
11
-2.5
21
-36.23
31
0
0
LINE
8
0
6
CONTINUOUS
10
2.5
20
-37.12
30
0
11
2.5
21
-38.86
31
0
0
LINE
8
0
6
CONTINUOUS
10
-2.5
20
-37.12
30
0
11
-2.5
21
-38.86
31
0
0
LINE
8
0
6
CONTINUOUS
10
0.0
20
-38.86
30
0
11
0.0
21
-37.12
31
0
0
LINE
8
0
6
CONTINUOUS
10
-2.5
20
-37.92
30
0
11
2.5
21
-37.92
31
0
0
LINE
8
0
6
CONTINUOUS
10
1.75
20
-38.04
30
0
11
2.5
21
-37.4
31
0
0
LINE
8
0
6
CONTINUOUS
10
-2.5
20
-38.56
30
0
11
-1.75
21
-37.92
31
0
0
LINE
8
0
6
CONTINUOUS
10
2.5
20
-37.4
30
0
11
-2.5
21
-38.56
31
0
0
LINE
8
0
6
CONTINUOUS
10
2.5
20
-39.45
30
0
11
2.5
21
-41.19
31
0
0
LINE
8
0
6
CONTINUOUS
10
-2.5
20
-39.45
30
0
11
-2.5
21
-41.19
31
0
0
LINE
8
0
6
CONTINUOUS
10
0.0
20
-41.19
30
0
11
0.0
21
-39.45
31
0
0
LINE
8
0
6
CONTINUOUS
10
-2.5
20
-40.26
30
0
11
2.5
21
-40.26
31
0
0
LINE
8
0
6
CONTINUOUS
10
1.75
20
-40.37
30
0
11
2.5
21
-39.73
31
0
0
LINE
8
0
6
CONTINUOUS
10
-2.5
20
-40.9
30
0
11
-1.75
21
-40.26
31
0
0
LINE
8
0
6
CONTINUOUS
10
2.5
20
-39.73
30
0
11
-2.5
21
-40.9
31
0
0
LINE
8
0
6
CONTINUOUS
10
2.5
20
-41.79
30
0
11
2.5
21
-43.52
31
0
0
LINE
8
0
6
CONTINUOUS
10
-2.5
20
-41.79
30
0
11
-2.5
21
-43.52
31
0
0
LINE
8
0
6
CONTINUOUS
10
0.0
20
-43.52
30
0
11
0.0
21
-41.79
31
0
0
LINE
8
0
6
CONTINUOUS
10
-2.5
20
-42.59
30
0
11
2.5
21
-42.59
31
0
0
LINE
8
0
6
CONTINUOUS
10
1.75
20
-42.7
30
0
11
2.5
21
-42.06
31
0
0
LINE
8
0
6
CONTINUOUS
10
-2.5
20
-43.23
30
0
11
-1.75
21
-42.59
31
0
0
LINE
8
0
6
CONTINUOUS
10
2.5
20
-42.06
30
0
11
-2.5
21
-43.23
31
0
0
LINE
8
0
6
CONTINUOUS
10
2.5
20
-44.12
30
0
11
2.5
21
-45.86
31
0
0
LINE
8
0
6
CONTINUOUS
10
-2.5
20
-44.12
30
0
11
-2.5
21
-45.86
31
0
0
LINE
8
0
6
CONTINUOUS
10
0.0
20
-45.86
30
0
11
0.0
21
-44.12
31
0
0
LINE
8
0
6
CONTINUOUS
10
-2.5
20
-44.92
30
0
11
2.5
21
-44.92
31
0
0
LINE
8
0
6
CONTINUOUS
10
1.75
20
-45.04
30
0
11
2.5
21
-44.4
31
0
0
LINE
8
0
6
CONTINUOUS
10
-2.5
20
-45.56
30
0
11
-1.75
21
-44.92
31
0
0
LINE
8
0
6
CONTINUOUS
10
2.5
20
-44.4
30
0
11
-2.5
21
-45.56
31
0
0
LINE
8
0
6
CONTINUOUS
10
2.5
20
-46.45
30
0
11
2.5
21
-48.19
31
0
0
LINE
8
0
6
CONTINUOUS
10
-2.5
20
-46.45
30
0
11
-2.5
21
-48.19
31
0
0
LINE
8
0
6
CONTINUOUS
10
0.0
20
-48.19
30
0
11
0.0
21
-46.45
31
0
0
LINE
8
0
6
CONTINUOUS
10
-2.5
20
-47.25
30
0
11
2.5
21
-47.25
31
0
0
LINE
8
0
6
CONTINUOUS
10
1.75
20
-47.37
30
0
11
2.5
21
-46.73
31
0
0
LINE
8
0
6
CONTINUOUS
10
-2.5
20
-47.89
30
0
11
-1.75
21
-47.25
31
0
0
LINE
8
0
6
CONTINUOUS
10
2.5
20
-46.73
30
0
11
-2.5
21
-47.89
31
0
0
LINE
8
0
6
CONTINUOUS
10
2.5
20
-48.79
30
0
11
2.5
21
-50.52
31
0
0
LINE
8
0
6
CONTINUOUS
10
-2.5
20
-48.79
30
0
11
-2.5
21
-50.52
31
0
0
LINE
8
0
6
CONTINUOUS
10
0.0
20
-50.52
30
0
11
0.0
21
-48.79
31
0
0
LINE
8
0
6
CONTINUOUS
10
-2.5
20
-49.59
30
0
11
2.5
21
-49.59
31
0
0
LINE
8
0
6
CONTINUOUS
10
1.75
20
-49.7
30
0
11
2.5
21
-49.06
31
0
0
LINE
8
0
6
CONTINUOUS
10
-2.5
20
-50.23
30
0
11
-1.75
21
-49.59
31
0
0
LINE
8
0
6
CONTINUOUS
10
2.5
20
-49.06
30
0
11
-2.5
21
-50.23
31
0
0
LINE
8
0
6
CONTINUOUS
10
2.5
20
-51.12
30
0
11
2.5
21
-52.85
31
0
0
LINE
8
0
6
CONTINUOUS
10
-2.5
20
-51.12
30
0
11
-2.5
21
-52.85
31
0
0
LINE
8
0
6
CONTINUOUS
10
0.0
20
-52.85
30
0
11
0.0
21
-51.12
31
0
0
LINE
8
0
6
CONTINUOUS
10
-2.5
20
-51.92
30
0
11
2.5
21
-51.92
31
0
0
LINE
8
0
6
CONTINUOUS
10
1.75
20
-52.04
30
0
11
2.5
21
-51.4
31
0
0
LINE
8
0
6
CONTINUOUS
10
-2.5
20
-52.56
30
0
11
-1.75
21
-51.92
31
0
0
LINE
8
0
6
CONTINUOUS
10
2.5
20
-51.4
30
0
11
-2.5
21
-52.56
31
0
0
LINE
8
0
6
CONTINUOUS
10
-1.5
20
-3.55
30
0
11
-1.5
21
0.0
31
0
0
LINE
8
0
6
CONTINUOUS
10
1.5
20
-3.55
30
0
11
1.5
21
0.0
31
0
0
ENDSEC
0
EOF