0
SECTION
2
HEADER
0
ENDSEC
0
SECTION
2
TABLES
0
TABLE
2
LTYPE
70
3
0
LTYPE
2
CONTINUOUS
70
0
3
Solid line
72
65
73
0
40
0.0
0
LTYPE
2
CENTER
70
0
3
center
72
65
73
4
40
28.575
49
12.7
49
-6.35
49
3.175
49
-6.35
0
ENDTAB
0
TABLE
2
LAYER
70
1
0
LAYER
2
0
70
0
62
7
6
CONTINUOUS
0
ENDTAB
0
ENDSEC
0
SECTION
2
ENTITIES
0
LINE
8
0
6
CONTINUOUS
10
31.0
20
96.77
30
0
11
31.0
21
-15.32
31
0
0
LINE
8
0
6
CONTINUOUS
10
-31.0
20
96.77
30
0
11
-31.0
21
-15.32
31
0
0
LINE
8
0
6
CONTINUOUS
10
31.0
20
96.77
30
0
11
-31.0
21
96.77
31
0
0
LINE
8
0
6
CONTINUOUS
10
31.0
20
-15.32
30
0
11
-31.0
21
-15.32
31
0
0
LINE
8
0
6
CONTINUOUS
10
31.0
20
-4.27
30
0
11
-31.0
21
-4.27
31
0
0
LINE
8
0
6
CONTINUOUS
10
31.0
20
85.63
30
0
11
-31.0
21
85.63
31
0
0
LINE
8
0
6
CONTINUOUS
10
12.5
20
-15.32
30
0
11
12.5
21
96.77
31
0
0
LINE
8
0
6
CONTINUOUS
10
-12.5
20
96.77
30
0
11
-12.5
21
-15.32
31
0
0
LINE
8
0
6
CONTINUOUS
10
25.0
20
96.77
30
0
11
25.0
21
-15.32
31
0
0
LINE
8
0
6
CONTINUOUS
10
-25.0
20
96.77
30
0
11
-25.0
21
-15.32
31
0
0
LINE
8
0
6
CONTINUOUS
10
-31.0
20
90.68
30
0
11
31.0
21
90.68
31
0
0
LINE
8
0
6
CONTINUOUS
10
-2.25
20
96.77
30
0
11
-2.25
21
-15.32
31
0
0
LINE
8
0
6
CONTINUOUS
10
2.25
20
96.77
30
0
11
2.25
21
-15.32
31
0
0
LINE
8
0
6
CONTINUOUS
10
31.0
20
-9.32
30
0
11
-31.0
21
-9.32
31
0
0
LINE
8
0
6
CONTINUOUS
10
0.0
20
96.77
30
0
11
0.0
21
-15.32
31
0
0
LINE
8
0
6
CONTINUOUS
10
-31.0
20
40.68
30
0
11
31.0
21
40.68
31
0
0
LINE
8
0
6
CONTINUOUS
10
-25.0
20
-9.32
30
0
11
25.0
21
-9.32
31
0
0
LINE
8
0
6
CONTINUOUS
10
25.0
20
-9.32
30
0
11
25.0
21
-4.25
31
0
0
LINE
8
0
6
CONTINUOUS
10
25.0
20
-4.25
30
0
11
12.63
21
-2.52
31
0
0
LINE
8
0
6
CONTINUOUS
10
12.63
20
-2.52
30
0
11
5.59
21
-1.53
31
0
0
ARC
8
0
6
CONTINUOUS
10
6.749993028806368
20
2.817920902353288
30
0
40
4.5
50
180.1008521131404
51
255.06184776663264
0
LINE
8
0
6
CONTINUOUS
10
2.25
20
2.81
30
0
11
2.25
21
78.52
31
0
0
ARC
8
0
6
CONTINUOUS
10
6.7499985309479715
20
78.51636386660071
30
0
40
4.5
50
99.07791502025961
51
179.95370330662305
0
LINE
8
0
6
CONTINUOUS
10
6.04
20
82.96
30
0
11
12.63
21
83.88
31
0
0
LINE
8
0
6
CONTINUOUS
10
12.63
20
83.88
30
0
11
25.0
21
85.61
31
0
0
LINE
8
0
6
CONTINUOUS
10
25.0
20
85.61
30
0
11
25.0
21
90.68
31
0
0
LINE
8
0
6
CONTINUOUS
10
25.0
20
90.68
30
0
11
-25.0
21
90.68
31
0
0
LINE
8
0
6
CONTINUOUS
10
-25.0
20
90.68
30
0
11
-25.0
21
85.61
31
0
0
LINE
8
0
6
CONTINUOUS
10
-25.0
20
85.61
30
0
11
-12.63
21
83.88
31
0
0
LINE
8
0
6
CONTINUOUS
10
-12.63
20
83.88
30
0
11
-4.58
21
82.76
31
0
0
ARC
8
0
6
CONTINUOUS
10
-6.749993281332155
20
78.8177761150623
30
0
40
4.5
50
359.90099137870817
51
61.16945794366746
0
LINE
8
0
6
CONTINUOUS
10
-2.25
20
78.81
30
0
11
-2.25
21
2.51
31
0
0
ARC
8
0
6
CONTINUOUS
10
-6.749999805285098
20
2.511323795331265
30
0
40
4.5
50
300.14712739979285
51
359.98314491410787
0
LINE
8
0
6
CONTINUOUS
10
-4.49
20
-1.38
30
0
11
-12.63
21
-2.52
31
0
0
LINE
8
0
6
CONTINUOUS
10
-12.63
20
-2.52
30
0
11
-25.0
21
-4.25
31
0
0
LINE
8
0
6
CONTINUOUS
10
-25.0
20
-4.25
30
0
11
-25.0
21
-9.32
31
0
0
LINE
8
0
6
CONTINUOUS
10
25.0
20
-9.32
30
0
11
25.0
21
-4.25
31
0
0
LINE
8
0
6
CONTINUOUS
10
2.25
20
2.81
30
0
11
2.25
21
78.52
31
0
0
LINE
8
0
6
CONTINUOUS
10
25.0
20
-9.32
30
0
11
-25.0
21
-9.32
31
0
0
LINE
8
0
6
CONTINUOUS
10
-25.0
20
-9.32
30
0
11
-25.0
21
-4.25
31
0
0
ARC
8
0
6
CONTINUOUS
10
-6.749999805285098
20
2.511323795331265
30
0
40
4.5
50
300.14712739979285
51
359.98314491410787
0
LINE
8
0
6
CONTINUOUS
10
-2.25
20
2.51
30
0
11
-2.25
21
78.81
31
0
0
LINE
8
0
6
CONTINUOUS
10
25.0
20
85.61
30
0
11
12.63
21
83.88
31
0
0
ARC
8
0
6
CONTINUOUS
10
6.7499985309479715
20
78.51636386660071
30
0
40
4.5
50
99.07791502025961
51
179.95370330662305
0
LINE
8
0
6
CONTINUOUS
10
25.0
20
90.68
30
0
11
-25.0
21
90.68
31
0
0
LINE
8
0
6
CONTINUOUS
10
-25.0
20
90.68
30
0
11
-25.0
21
85.61
31
0
0
LINE
8
0
6
CONTINUOUS
10
-25.0
20
85.61
30
0
11
-12.63
21
83.88
31
0
0
LINE
8
0
6
CONTINUOUS
10
-25.0
20
-4.25
30
0
11
-12.63
21
-2.52
31
0
0
LINE
8
0
6
CONTINUOUS
10
25.0
20
-4.25
30
0
11
12.63
21
-2.52
31
0
0
ARC
8
0
6
CONTINUOUS
10
6.749990065563418
20
2.819455677159453
30
0
40
4.5
50
180.12039350941234
51
269.1088228751215
0
ARC
8
0
6
CONTINUOUS
10
-6.749993281332155
20
78.8177761150623
30
0
40
4.5
50
359.90099137870817
51
61.16945794366746
0
LINE
8
0
6
CONTINUOUS
10
25.0
20
90.68
30
0
11
25.0
21
85.61
31
0
0
LINE
8
0
6
CONTINUOUS
10
-12.63
20
-2.52
30
0
11
-4.49
21
-1.38
31
0
0
LINE
8
0
6
CONTINUOUS
10
12.63
20
-2.52
30
0
11
6.68
21
-1.68
31
0
0
LINE
8
0
6
CONTINUOUS
10
12.63
20
83.88
30
0
11
6.04
21
82.96
31
0
0
LINE
8
0
6
CONTINUOUS
10
-12.63
20
83.88
30
0
11
-4.58
21
82.76
31
0
0
LINE
8
0
6
CENTER
10
-0.0
20
-15.32
30
0
11
-0.0
21
96.77
31
0
0
LINE
8
0
6
CENTER
10
-31.0
20
40.66
30
0
11
31.0
21
40.66
31
0
0
ENDSEC
0
EOF