0
SECTION
2
HEADER
0
ENDSEC
0
SECTION
2
TABLES
0
TABLE
2
LTYPE
70
3
0
LTYPE
2
CONTINUOUS
70
0
3
Solid line
72
65
73
0
40
0.0
0
LTYPE
2
CENTER
70
0
3
center
72
65
73
4
40
28.575
49
12.7
49
-6.35
49
3.175
49
-6.35
0
ENDTAB
0
TABLE
2
LAYER
70
1
0
LAYER
2
0
70
0
62
7
6
CONTINUOUS
0
ENDTAB
0
ENDSEC
0
SECTION
2
ENTITIES
0
LINE
8
0
6
CONTINUOUS
10
51.0
20
146.77
30
0
11
51.0
21
-65.32
31
0
0
LINE
8
0
6
CONTINUOUS
10
-51.0
20
146.77
30
0
11
-51.0
21
-65.32
31
0
0
LINE
8
0
6
CONTINUOUS
10
51.0
20
146.77
30
0
11
-51.0
21
146.77
31
0
0
LINE
8
0
6
CONTINUOUS
10
51.0
20
-65.32
30
0
11
-51.0
21
-65.32
31
0
0
LINE
8
0
6
CONTINUOUS
10
51.0
20
-51.17
30
0
11
-51.0
21
-51.17
31
0
0
LINE
8
0
6
CONTINUOUS
10
51.0
20
132.53
30
0
11
-51.0
21
132.53
31
0
0
LINE
8
0
6
CONTINUOUS
10
22.5
20
-65.32
30
0
11
22.5
21
146.77
31
0
0
LINE
8
0
6
CONTINUOUS
10
-22.5
20
146.77
30
0
11
-22.5
21
-65.32
31
0
0
LINE
8
0
6
CONTINUOUS
10
45.0
20
146.77
30
0
11
45.0
21
-65.32
31
0
0
LINE
8
0
6
CONTINUOUS
10
-45.0
20
146.77
30
0
11
-45.0
21
-65.32
31
0
0
LINE
8
0
6
CONTINUOUS
10
-51.0
20
140.68
30
0
11
51.0
21
140.68
31
0
0
LINE
8
0
6
CONTINUOUS
10
-3.75
20
146.77
30
0
11
-3.75
21
-65.32
31
0
0
LINE
8
0
6
CONTINUOUS
10
3.75
20
146.77
30
0
11
3.75
21
-65.32
31
0
0
LINE
8
0
6
CONTINUOUS
10
51.0
20
-59.32
30
0
11
-51.0
21
-59.32
31
0
0
LINE
8
0
6
CONTINUOUS
10
0.0
20
146.77
30
0
11
0.0
21
-65.32
31
0
0
LINE
8
0
6
CONTINUOUS
10
-51.0
20
40.68
30
0
11
51.0
21
40.68
31
0
0
LINE
8
0
6
CONTINUOUS
10
-45.0
20
-59.32
30
0
11
45.0
21
-59.32
31
0
0
LINE
8
0
6
CONTINUOUS
10
45.0
20
-59.32
30
0
11
45.0
21
-51.15
31
0
0
LINE
8
0
6
CONTINUOUS
10
45.0
20
-51.15
30
0
11
22.63
21
-48.02
31
0
0
LINE
8
0
6
CONTINUOUS
10
22.63
20
-48.02
30
0
11
8.18
21
-45.99
31
0
0
ARC
8
0
6
CONTINUOUS
10
11.249999444322917
20
-39.14711293298969
30
0
40
7.5
50
180.02205556785964
51
245.83704192983816
0
LINE
8
0
6
CONTINUOUS
10
3.75
20
-39.15
30
0
11
3.75
21
120.75
31
0
0
ARC
8
0
6
CONTINUOUS
10
11.249999764631152
20
120.75187897117299
30
0
40
7.5
50
119.64777029456509
51
180.01435428255533
0
LINE
8
0
6
CONTINUOUS
10
7.54
20
127.27
30
0
11
22.63
21
129.38
31
0
0
LINE
8
0
6
CONTINUOUS
10
22.63
20
129.38
30
0
11
45.0
21
132.51
31
0
0
LINE
8
0
6
CONTINUOUS
10
45.0
20
132.51
30
0
11
45.0
21
140.68
31
0
0
LINE
8
0
6
CONTINUOUS
10
45.0
20
140.68
30
0
11
-45.0
21
140.68
31
0
0
LINE
8
0
6
CONTINUOUS
10
-45.0
20
140.68
30
0
11
-45.0
21
132.51
31
0
0
LINE
8
0
6
CONTINUOUS
10
-45.0
20
132.51
30
0
11
-22.63
21
129.38
31
0
0
LINE
8
0
6
CONTINUOUS
10
-22.63
20
129.38
30
0
11
-6.08
21
127.07
31
0
0
ARC
8
0
6
CONTINUOUS
10
-11.249997038632099
20
121.63666487132117
30
0
40
7.5
50
359.9490841269385
51
46.422671660254565
0
LINE
8
0
6
CONTINUOUS
10
-3.75
20
121.63
30
0
11
-3.75
21
-40.34
31
0
0
ARC
8
0
6
CONTINUOUS
10
-11.249999063471856
20
-40.34374805566786
30
0
40
7.5
50
314.53406560885105
51
0.02863303734490432
0
LINE
8
0
6
CONTINUOUS
10
-5.99
20
-45.69
30
0
11
-22.63
21
-48.02
31
0
0
LINE
8
0
6
CONTINUOUS
10
-22.63
20
-48.02
30
0
11
-45.0
21
-51.15
31
0
0
LINE
8
0
6
CONTINUOUS
10
-45.0
20
-51.15
30
0
11
-45.0
21
-59.32
31
0
0
LINE
8
0
6
CONTINUOUS
10
45.0
20
-59.32
30
0
11
45.0
21
-51.15
31
0
0
LINE
8
0
6
CONTINUOUS
10
3.75
20
-39.15
30
0
11
3.75
21
120.75
31
0
0
LINE
8
0
6
CONTINUOUS
10
45.0
20
-59.32
30
0
11
-45.0
21
-59.32
31
0
0
LINE
8
0
6
CONTINUOUS
10
-45.0
20
-59.32
30
0
11
-45.0
21
-51.15
31
0
0
ARC
8
0
6
CONTINUOUS
10
-11.249999063471856
20
-40.34374805566786
30
0
40
7.5
50
314.53406560885105
51
0.02863303734490432
0
LINE
8
0
6
CONTINUOUS
10
-3.75
20
-40.34
30
0
11
-3.75
21
121.63
31
0
0
LINE
8
0
6
CONTINUOUS
10
45.0
20
132.51
30
0
11
22.63
21
129.38
31
0
0
ARC
8
0
6
CONTINUOUS
10
11.249999764631152
20
120.75187897117299
30
0
40
7.5
50
119.64777029456509
51
180.01435428255533
0
LINE
8
0
6
CONTINUOUS
10
45.0
20
140.68
30
0
11
-45.0
21
140.68
31
0
0
LINE
8
0
6
CONTINUOUS
10
-45.0
20
140.68
30
0
11
-45.0
21
132.51
31
0
0
LINE
8
0
6
CONTINUOUS
10
-45.0
20
132.51
30
0
11
-22.63
21
129.38
31
0
0
LINE
8
0
6
CONTINUOUS
10
-45.0
20
-51.15
30
0
11
-22.63
21
-48.02
31
0
0
LINE
8
0
6
CONTINUOUS
10
45.0
20
-51.15
30
0
11
22.63
21
-48.02
31
0
0
ARC
8
0
6
CONTINUOUS
10
11.249999444322917
20
-39.14711293298969
30
0
40
7.5
50
180.02205556785964
51
245.83704192983816
0
ARC
8
0
6
CONTINUOUS
10
-11.249997038632099
20
121.63666487132117
30
0
40
7.5
50
359.9490841269385
51
46.422671660254565
0
LINE
8
0
6
CONTINUOUS
10
45.0
20
140.68
30
0
11
45.0
21
132.51
31
0
0
LINE
8
0
6
CONTINUOUS
10
-22.63
20
-48.02
30
0
11
-5.99
21
-45.69
31
0
0
LINE
8
0
6
CONTINUOUS
10
22.63
20
-48.02
30
0
11
8.18
21
-45.99
31
0
0
LINE
8
0
6
CONTINUOUS
10
22.63
20
129.38
30
0
11
7.54
21
127.27
31
0
0
LINE
8
0
6
CONTINUOUS
10
-22.63
20
129.38
30
0
11
-6.08
21
127.07
31
0
0
LINE
8
0
6
CENTER
10
-0.0
20
-65.32
30
0
11
-0.0
21
146.77
31
0
0
LINE
8
0
6
CENTER
10
-51.0
20
40.66
30
0
11
51.0
21
40.66
31
0
0
ENDSEC
0
EOF