0
SECTION
2
HEADER
0
ENDSEC
0
SECTION
2
TABLES
0
TABLE
2
LTYPE
70
3
0
LTYPE
2
CONTINUOUS
70
0
3
Solid line
72
65
73
0
40
0.0
0
LTYPE
2
CENTER
70
0
3
center
72
65
73
4
40
28.575
49
12.7
49
-6.35
49
3.175
49
-6.35
0
ENDTAB
0
TABLE
2
LAYER
70
1
0
LAYER
2
0
70
0
62
7
6
CONTINUOUS
0
ENDTAB
0
ENDSEC
0
SECTION
2
ENTITIES
0
LINE
8
0
6
CONTINUOUS
10
80.0
20
80.0
30
0
11
-4.56
21
80.0
31
0
0
LINE
8
0
6
CONTINUOUS
10
80.0
20
80.0
30
0
11
80.0
21
-2.6
31
0
0
LINE
8
0
6
CONTINUOUS
10
-4.56
20
10.0
30
0
11
80.0
21
10.0
31
0
0
LINE
8
0
6
CONTINUOUS
10
10.0
20
-2.6
30
0
11
10.0
21
80.0
31
0
0
LINE
8
0
6
CONTINUOUS
10
0.0
20
-2.6
30
0
11
0.0
21
80.0
31
0
0
LINE
8
0
6
CONTINUOUS
10
-4.56
20
0.0
30
0
11
80.0
21
0.0
31
0
0
LINE
8
0
6
CONTINUOUS
10
0.0
20
0.0
30
0
11
80.0
21
0.0
31
0
0
LINE
8
0
6
CONTINUOUS
10
80.0
20
0.0
30
0
11
80.0
21
5.0
31
0
0
ARC
8
0
6
CONTINUOUS
10
75.0
20
5.0
30
0
40
5.0
50
0.0
51
90.0
0
LINE
8
0
6
CONTINUOUS
10
75.0
20
10.0
30
0
11
20.0
21
10.0
31
0
0
ARC
8
0
6
CONTINUOUS
10
20.0
20
20.0
30
0
40
10.0
50
180.0
51
270.0
0
LINE
8
0
6
CONTINUOUS
10
10.0
20
20.0
30
0
11
10.0
21
75.0
31
0
0
ARC
8
0
6
CONTINUOUS
10
5.0
20
75.0
30
0
40
5.0
50
0.0
51
90.0
0
LINE
8
0
6
CONTINUOUS
10
5.0
20
80.0
30
0
11
0.0
21
80.0
31
0
0
LINE
8
0
6
CONTINUOUS
10
0.0
20
80.0
30
0
11
0.0
21
0.0
31
0
0
LINE
8
0
6
CENTER
10
23.4
20
80.0
30
0
11
23.4
21
-2.6
31
0
0
LINE
8
0
6
CENTER
10
-4.56
20
23.4
30
0
11
80.0
21
23.4
31
0
0
ENDSEC
0
EOF