0
SECTION
2
HEADER
0
ENDSEC
0
SECTION
2
TABLES
0
TABLE
2
LTYPE
70
3
0
LTYPE
2
CONTINUOUS
70
0
3
Solid line
72
65
73
0
40
0.0
0
LTYPE
2
CENTER
70
0
3
center
72
65
73
4
40
28.575
49
12.7
49
-6.35
49
3.175
49
-6.35
0
ENDTAB
0
TABLE
2
LAYER
70
1
0
LAYER
2
0
70
0
62
7
6
CONTINUOUS
0
ENDTAB
0
ENDSEC
0
SECTION
2
ENTITIES
0
LINE
8
0
6
CONTINUOUS
10
-38.7
20
-30.0
30
0
11
-38.7
21
30.0
31
0
0
LINE
8
0
6
CONTINUOUS
10
-45.0
20
-30.0
30
0
11
-45.0
21
30.0
31
0
0
LINE
8
0
6
CONTINUOUS
10
38.7
20
30.0
30
0
11
38.7
21
-30.0
31
0
0
LINE
8
0
6
CONTINUOUS
10
45.0
20
30.0
30
0
11
45.0
21
-30.0
31
0
0
LINE
8
0
6
CONTINUOUS
10
50.0
20
18.7
30
0
11
-50.0
21
18.7
31
0
0
LINE
8
0
6
CONTINUOUS
10
50.0
20
-18.7
30
0
11
-50.0
21
-18.7
31
0
0
LINE
8
0
6
CONTINUOUS
10
50.0
20
-25.0
30
0
11
-50.0
21
-25.0
31
0
0
LINE
8
0
6
CONTINUOUS
10
50.0
20
25.0
30
0
11
-50.0
21
25.0
31
0
0
LINE
8
0
6
CONTINUOUS
10
0.0
20
-30.0
30
0
11
0.0
21
30.0
31
0
0
LINE
8
0
6
CONTINUOUS
10
-50.0
20
0.0
30
0
11
50.0
21
0.0
31
0
0
ARC
8
0
6
CONTINUOUS
10
30.750000000000004
20
10.75
30
0
40
7.95
50
0.0
51
90.00000000000003
0
LINE
8
0
6
CONTINUOUS
10
38.7
20
10.75
30
0
11
38.7
21
-10.75
31
0
0
ARC
8
0
6
CONTINUOUS
10
30.750000000000004
20
-10.75
30
0
40
7.95
50
270.0
51
0.0
0
LINE
8
0
6
CONTINUOUS
10
30.75
20
-18.7
30
0
11
-30.75
21
-18.7
31
0
0
ARC
8
0
6
CONTINUOUS
10
-30.750000000000004
20
-10.75
30
0
40
7.95
50
180.0
51
270.0
0
LINE
8
0
6
CONTINUOUS
10
-38.7
20
-10.75
30
0
11
-38.7
21
10.75
31
0
0
ARC
8
0
6
CONTINUOUS
10
-30.750000000000004
20
10.75
30
0
40
7.95
50
89.99999999999997
51
180.0
0
LINE
8
0
6
CONTINUOUS
10
-30.75
20
18.7
30
0
11
30.75
21
18.7
31
0
0
ARC
8
0
6
CONTINUOUS
10
35.55
20
15.549999999999997
30
0
40
9.45
50
2.154026450938254e-14
51
90.0
0
LINE
8
0
6
CONTINUOUS
10
35.55
20
25.0
30
0
11
-35.55
21
25.0
31
0
0
ARC
8
0
6
CONTINUOUS
10
-35.55
20
15.549999999999997
30
0
40
9.45
50
90.0
51
179.99999999999997
0
LINE
8
0
6
CONTINUOUS
10
-45.0
20
15.55
30
0
11
-45.0
21
-15.55
31
0
0
ARC
8
0
6
CONTINUOUS
10
-35.55
20
-15.549999999999997
30
0
40
9.45
50
180.00000000000003
51
270.0
0
LINE
8
0
6
CONTINUOUS
10
-35.55
20
-25.0
30
0
11
35.55
21
-25.0
31
0
0
ARC
8
0
6
CONTINUOUS
10
35.55
20
-15.549999999999997
30
0
40
9.45
50
270.0
51
360.0
0
LINE
8
0
6
CONTINUOUS
10
45.0
20
-15.55
30
0
11
45.0
21
15.55
31
0
0
LINE
8
0
6
CONTINUOUS
10
-35.55
20
25.0
30
0
11
35.55
21
25.0
31
0
0
LINE
8
0
6
CONTINUOUS
10
-45.0
20
-15.55
30
0
11
-45.0
21
15.55
31
0
0
LINE
8
0
6
CONTINUOUS
10
35.55
20
-25.0
30
0
11
-35.55
21
-25.0
31
0
0
LINE
8
0
6
CONTINUOUS
10
45.0
20
15.55
30
0
11
45.0
21
-15.55
31
0
0
LINE
8
0
6
CONTINUOUS
10
-30.75
20
18.7
30
0
11
30.75
21
18.7
31
0
0
LINE
8
0
6
CONTINUOUS
10
-38.7
20
-10.75
30
0
11
-38.7
21
10.75
31
0
0
LINE
8
0
6
CONTINUOUS
10
30.75
20
-18.7
30
0
11
-30.75
21
-18.7
31
0
0
LINE
8
0
6
CONTINUOUS
10
38.7
20
10.75
30
0
11
38.7
21
-10.75
31
0
0
ARC
8
0
6
CONTINUOUS
10
-35.55
20
15.549999999999997
30
0
40
9.45
50
90.0
51
179.99999999999997
0
ARC
8
0
6
CONTINUOUS
10
35.55
20
15.549999999999997
30
0
40
9.45
50
2.154026450938254e-14
51
90.0
0
ARC
8
0
6
CONTINUOUS
10
-35.55
20
-15.549999999999997
30
0
40
9.45
50
180.00000000000003
51
270.0
0
ARC
8
0
6
CONTINUOUS
10
35.55
20
-15.549999999999997
30
0
40
9.45
50
270.0
51
360.0
0
ARC
8
0
6
CONTINUOUS
10
-30.750000000000004
20
10.75
30
0
40
7.95
50
89.99999999999997
51
180.0
0
ARC
8
0
6
CONTINUOUS
10
30.750000000000004
20
10.75
30
0
40
7.95
50
0.0
51
90.00000000000003
0
ARC
8
0
6
CONTINUOUS
10
30.750000000000004
20
-10.75
30
0
40
7.95
50
270.0
51
0.0
0
ARC
8
0
6
CONTINUOUS
10
-30.750000000000004
20
-10.75
30
0
40
7.95
50
180.0
51
270.0
0
LINE
8
0
6
CENTER
10
-50.0
20
0.0
30
0
11
50.0
21
0.0
31
0
0
LINE
8
0
6
CENTER
10
0.0
20
-30.0
30
0
11
0.0
21
30.0
31
0
0
ENDSEC
0
EOF