0
SECTION
2
HEADER
0
ENDSEC
0
SECTION
2
TABLES
0
TABLE
2
LTYPE
70
3
0
LTYPE
2
CONTINUOUS
70
0
3
Solid line
72
65
73
0
40
0.0
0
LTYPE
2
CENTER
70
0
3
center
72
65
73
4
40
28.575
49
12.7
49
-6.35
49
3.175
49
-6.35
0
ENDTAB
0
TABLE
2
LAYER
70
1
0
LAYER
2
0
70
0
62
7
6
CONTINUOUS
0
ENDTAB
0
ENDSEC
0
SECTION
2
ENTITIES
0
LINE
8
0
6
CONTINUOUS
10
16.0
20
9.1
30
0
11
16.0
21
-205.9
31
0
0
LINE
8
0
6
CONTINUOUS
10
-16.0
20
9.1
30
0
11
-16.0
21
-205.9
31
0
0
LINE
8
0
6
CONTINUOUS
10
3.52
20
9.1
30
0
11
3.52
21
-205.9
31
0
0
LINE
8
0
6
CONTINUOUS
10
4.26
20
9.1
30
0
11
4.26
21
-205.9
31
0
0
LINE
8
0
6
CONTINUOUS
10
-3.52
20
-205.9
30
0
11
-3.52
21
9.1
31
0
0
LINE
8
0
6
CONTINUOUS
10
-4.26
20
-205.9
30
0
11
-4.26
21
9.1
31
0
0
LINE
8
0
6
CONTINUOUS
10
7.65
20
9.1
30
0
11
7.65
21
-205.9
31
0
0
LINE
8
0
6
CONTINUOUS
10
-7.65
20
9.1
30
0
11
-7.65
21
-205.9
31
0
0
LINE
8
0
6
CONTINUOUS
10
-16.0
20
-195.0
30
0
11
16.0
21
-195.0
31
0
0
LINE
8
0
6
CONTINUOUS
10
-16.0
20
-200.0
30
0
11
16.0
21
-200.0
31
0
0
LINE
8
0
6
CONTINUOUS
10
5.0
20
-205.9
30
0
11
5.0
21
9.1
31
0
0
LINE
8
0
6
CONTINUOUS
10
-5.0
20
9.1
30
0
11
-5.0
21
-205.9
31
0
0
LINE
8
0
6
CONTINUOUS
10
0.0
20
-205.9
30
0
11
0.0
21
9.1
31
0
0
LINE
8
0
6
CONTINUOUS
10
-16.0
20
0.0
30
0
11
16.0
21
0.0
31
0
0
LINE
8
0
6
CONTINUOUS
10
-4.0
20
-3.55
30
0
11
-4.0
21
-195.0
31
0
0
LINE
8
0
6
CONTINUOUS
10
4.0
20
-195.0
30
0
11
4.0
21
-3.55
31
0
0
LINE
8
0
6
CONTINUOUS
10
-4.0
20
-195.0
30
0
11
-0.0
21
-200.0
31
0
0
LINE
8
0
6
CONTINUOUS
10
-0.0
20
-200.0
30
0
11
4.0
21
-195.0
31
0
0
LINE
8
0
6
CONTINUOUS
10
5.0
20
-67.74
30
0
11
5.0
21
-71.2
31
0
0
LINE
8
0
6
CONTINUOUS
10
-5.0
20
-67.74
30
0
11
-5.0
21
-71.2
31
0
0
LINE
8
0
6
CONTINUOUS
10
0.0
20
-71.2
30
0
11
0.0
21
-67.74
31
0
0
LINE
8
0
6
CONTINUOUS
10
-5.0
20
-70.0
30
0
11
5.0
21
-70.0
31
0
0
LINE
8
0
6
CONTINUOUS
10
4.25
20
-68.95
30
0
11
5.0
21
-68.31
31
0
0
LINE
8
0
6
CONTINUOUS
10
-5.0
20
-70.64
30
0
11
-4.25
21
-70.0
31
0
0
LINE
8
0
6
CONTINUOUS
10
5.0
20
-68.31
30
0
11
-5.0
21
-70.64
31
0
0
LINE
8
0
6
CENTER
10
-0.0
20
9.1
30
0
11
-0.0
21
-205.9
31
0
0
LINE
8
0
6
CONTINUOUS
10
5.0
20
-191.99
30
0
11
5.0
21
-195.45
31
0
0
LINE
8
0
6
CONTINUOUS
10
-5.0
20
-191.99
30
0
11
-5.0
21
-195.45
31
0
0
LINE
8
0
6
CONTINUOUS
10
-0.0
20
-195.45
30
0
11
-0.0
21
-191.99
31
0
0
LINE
8
0
6
CONTINUOUS
10
-5.0
20
-194.25
30
0
11
5.0
21
-194.25
31
0
0
LINE
8
0
6
CONTINUOUS
10
4.25
20
-193.21
30
0
11
5.0
21
-192.57
31
0
0
LINE
8
0
6
CONTINUOUS
10
-5.0
20
-194.89
30
0
11
-4.25
21
-194.25
31
0
0
LINE
8
0
6
CONTINUOUS
10
5.0
20
-192.57
30
0
11
-5.0
21
-194.89
31
0
0
LINE
8
0
6
CONTINUOUS
10
5.0
20
-73.14
30
0
11
5.0
21
-76.6
31
0
0
LINE
8
0
6
CONTINUOUS
10
-5.0
20
-73.14
30
0
11
-5.0
21
-76.6
31
0
0
LINE
8
0
6
CONTINUOUS
10
0.0
20
-76.6
30
0
11
0.0
21
-73.14
31
0
0
LINE
8
0
6
CONTINUOUS
10
-5.0
20
-75.4
30
0
11
5.0
21
-75.4
31
0
0
LINE
8
0
6
CONTINUOUS
10
4.25
20
-74.35
30
0
11
5.0
21
-73.71
31
0
0
LINE
8
0
6
CONTINUOUS
10
-5.0
20
-76.04
30
0
11
-4.25
21
-75.4
31
0
0
LINE
8
0
6
CONTINUOUS
10
5.0
20
-73.71
30
0
11
-5.0
21
-76.04
31
0
0
LINE
8
0
6
CONTINUOUS
10
5.0
20
-78.54
30
0
11
5.0
21
-82.0
31
0
0
LINE
8
0
6
CONTINUOUS
10
-5.0
20
-78.54
30
0
11
-5.0
21
-82.0
31
0
0
LINE
8
0
6
CONTINUOUS
10
0.0
20
-82.0
30
0
11
0.0
21
-78.54
31
0
0
LINE
8
0
6
CONTINUOUS
10
-5.0
20
-80.8
30
0
11
5.0
21
-80.8
31
0
0
LINE
8
0
6
CONTINUOUS
10
4.25
20
-79.76
30
0
11
5.0
21
-79.12
31
0
0
LINE
8
0
6
CONTINUOUS
10
-5.0
20
-81.44
30
0
11
-4.25
21
-80.8
31
0
0
LINE
8
0
6
CONTINUOUS
10
5.0
20
-79.12
30
0
11
-5.0
21
-81.44
31
0
0
LINE
8
0
6
CONTINUOUS
10
5.0
20
-83.95
30
0
11
5.0
21
-87.41
31
0
0
LINE
8
0
6
CONTINUOUS
10
-5.0
20
-83.95
30
0
11
-5.0
21
-87.41
31
0
0
LINE
8
0
6
CONTINUOUS
10
0.0
20
-87.41
30
0
11
0.0
21
-83.95
31
0
0
LINE
8
0
6
CONTINUOUS
10
-5.0
20
-86.21
30
0
11
5.0
21
-86.21
31
0
0
LINE
8
0
6
CONTINUOUS
10
4.25
20
-85.16
30
0
11
5.0
21
-84.52
31
0
0
LINE
8
0
6
CONTINUOUS
10
-5.0
20
-86.85
30
0
11
-4.25
21
-86.21
31
0
0
LINE
8
0
6
CONTINUOUS
10
5.0
20
-84.52
30
0
11
-5.0
21
-86.85
31
0
0
LINE
8
0
6
CONTINUOUS
10
5.0
20
-89.35
30
0
11
5.0
21
-92.81
31
0
0
LINE
8
0
6
CONTINUOUS
10
-5.0
20
-89.35
30
0
11
-5.0
21
-92.81
31
0
0
LINE
8
0
6
CONTINUOUS
10
0.0
20
-92.81
30
0
11
0.0
21
-89.35
31
0
0
LINE
8
0
6
CONTINUOUS
10
-5.0
20
-91.61
30
0
11
5.0
21
-91.61
31
0
0
LINE
8
0
6
CONTINUOUS
10
4.25
20
-90.56
30
0
11
5.0
21
-89.92
31
0
0
LINE
8
0
6
CONTINUOUS
10
-5.0
20
-92.25
30
0
11
-4.25
21
-91.61
31
0
0
LINE
8
0
6
CONTINUOUS
10
5.0
20
-89.92
30
0
11
-5.0
21
-92.25
31
0
0
LINE
8
0
6
CONTINUOUS
10
5.0
20
-94.75
30
0
11
5.0
21
-98.21
31
0
0
LINE
8
0
6
CONTINUOUS
10
-5.0
20
-94.75
30
0
11
-5.0
21
-98.21
31
0
0
LINE
8
0
6
CONTINUOUS
10
0.0
20
-98.21
30
0
11
0.0
21
-94.75
31
0
0
LINE
8
0
6
CONTINUOUS
10
-5.0
20
-97.01
30
0
11
5.0
21
-97.01
31
0
0
LINE
8
0
6
CONTINUOUS
10
4.25
20
-95.96
30
0
11
5.0
21
-95.32
31
0
0
LINE
8
0
6
CONTINUOUS
10
-5.0
20
-97.65
30
0
11
-4.25
21
-97.01
31
0
0
LINE
8
0
6
CONTINUOUS
10
5.0
20
-95.32
30
0
11
-5.0
21
-97.65
31
0
0
LINE
8
0
6
CONTINUOUS
10
5.0
20
-100.15
30
0
11
5.0
21
-103.61
31
0
0
LINE
8
0
6
CONTINUOUS
10
-5.0
20
-100.15
30
0
11
-5.0
21
-103.61
31
0
0
LINE
8
0
6
CONTINUOUS
10
0.0
20
-103.61
30
0
11
0.0
21
-100.15
31
0
0
LINE
8
0
6
CONTINUOUS
10
-5.0
20
-102.41
30
0
11
5.0
21
-102.41
31
0
0
LINE
8
0
6
CONTINUOUS
10
4.25
20
-101.37
30
0
11
5.0
21
-100.73
31
0
0
LINE
8
0
6
CONTINUOUS
10
-5.0
20
-103.05
30
0
11
-4.25
21
-102.41
31
0
0
LINE
8
0
6
CONTINUOUS
10
5.0
20
-100.73
30
0
11
-5.0
21
-103.05
31
0
0
LINE
8
0
6
CONTINUOUS
10
5.0
20
-105.56
30
0
11
5.0
21
-109.02
31
0
0
LINE
8
0
6
CONTINUOUS
10
-5.0
20
-105.56
30
0
11
-5.0
21
-109.02
31
0
0
LINE
8
0
6
CONTINUOUS
10
0.0
20
-109.02
30
0
11
0.0
21
-105.56
31
0
0
LINE
8
0
6
CONTINUOUS
10
-5.0
20
-107.82
30
0
11
5.0
21
-107.82
31
0
0
LINE
8
0
6
CONTINUOUS
10
4.25
20
-106.77
30
0
11
5.0
21
-106.13
31
0
0
LINE
8
0
6
CONTINUOUS
10
-5.0
20
-108.46
30
0
11
-4.25
21
-107.82
31
0
0
LINE
8
0
6
CONTINUOUS
10
5.0
20
-106.13
30
0
11
-5.0
21
-108.46
31
0
0
LINE
8
0
6
CONTINUOUS
10
5.0
20
-110.96
30
0
11
5.0
21
-114.42
31
0
0
LINE
8
0
6
CONTINUOUS
10
-5.0
20
-110.96
30
0
11
-5.0
21
-114.42
31
0
0
LINE
8
0
6
CONTINUOUS
10
0.0
20
-114.42
30
0
11
0.0
21
-110.96
31
0
0
LINE
8
0
6
CONTINUOUS
10
-5.0
20
-113.22
30
0
11
5.0
21
-113.22
31
0
0
LINE
8
0
6
CONTINUOUS
10
4.25
20
-112.17
30
0
11
5.0
21
-111.53
31
0
0
LINE
8
0
6
CONTINUOUS
10
-5.0
20
-113.86
30
0
11
-4.25
21
-113.22
31
0
0
LINE
8
0
6
CONTINUOUS
10
5.0
20
-111.53
30
0
11
-5.0
21
-113.86
31
0
0
LINE
8
0
6
CONTINUOUS
10
5.0
20
-116.36
30
0
11
5.0
21
-119.82
31
0
0
LINE
8
0
6
CONTINUOUS
10
-5.0
20
-116.36
30
0
11
-5.0
21
-119.82
31
0
0
LINE
8
0
6
CONTINUOUS
10
0.0
20
-119.82
30
0
11
0.0
21
-116.36
31
0
0
LINE
8
0
6
CONTINUOUS
10
-5.0
20
-118.62
30
0
11
5.0
21
-118.62
31
0
0
LINE
8
0
6
CONTINUOUS
10
4.25
20
-117.57
30
0
11
5.0
21
-116.93
31
0
0
LINE
8
0
6
CONTINUOUS
10
-5.0
20
-119.26
30
0
11
-4.25
21
-118.62
31
0
0
LINE
8
0
6
CONTINUOUS
10
5.0
20
-116.93
30
0
11
-5.0
21
-119.26
31
0
0
LINE
8
0
6
CONTINUOUS
10
5.0
20
-121.76
30
0
11
5.0
21
-125.22
31
0
0
LINE
8
0
6
CONTINUOUS
10
-5.0
20
-121.76
30
0
11
-5.0
21
-125.22
31
0
0
LINE
8
0
6
CONTINUOUS
10
0.0
20
-125.22
30
0
11
0.0
21
-121.76
31
0
0
LINE
8
0
6
CONTINUOUS
10
-5.0
20
-124.02
30
0
11
5.0
21
-124.02
31
0
0
LINE
8
0
6
CONTINUOUS
10
4.25
20
-122.98
30
0
11
5.0
21
-122.34
31
0
0
LINE
8
0
6
CONTINUOUS
10
-5.0
20
-124.66
30
0
11
-4.25
21
-124.02
31
0
0
LINE
8
0
6
CONTINUOUS
10
5.0
20
-122.34
30
0
11
-5.0
21
-124.66
31
0
0
LINE
8
0
6
CONTINUOUS
10
4.26
20
-194.19
30
0
11
4.26
21
-197.14
31
0
0
LINE
8
0
6
CONTINUOUS
10
-4.26
20
-194.19
30
0
11
-4.26
21
-197.14
31
0
0
LINE
8
0
6
CONTINUOUS
10
-0.0
20
-197.14
30
0
11
-0.0
21
-194.19
31
0
0
LINE
8
0
6
CONTINUOUS
10
-4.26
20
-196.02
30
0
11
4.26
21
-196.02
31
0
0
LINE
8
0
6
CONTINUOUS
10
3.51
20
-195.31
30
0
11
4.26
21
-194.67
31
0
0
LINE
8
0
6
CONTINUOUS
10
-4.26
20
-196.66
30
0
11
-3.51
21
-196.02
31
0
0
LINE
8
0
6
CONTINUOUS
10
4.26
20
-194.67
30
0
11
-4.26
21
-196.66
31
0
0
LINE
8
0
6
CONTINUOUS
10
3.52
20
-196.67
30
0
11
3.52
21
-199.11
31
0
0
LINE
8
0
6
CONTINUOUS
10
-3.52
20
-196.67
30
0
11
-3.52
21
-199.11
31
0
0
LINE
8
0
6
CONTINUOUS
10
-0.0
20
-199.11
30
0
11
-0.0
21
-196.67
31
0
0
LINE
8
0
6
CONTINUOUS
10
-3.52
20
-198.07
30
0
11
3.52
21
-198.07
31
0
0
LINE
8
0
6
CONTINUOUS
10
2.77
20
-197.71
30
0
11
3.52
21
-197.07
31
0
0
LINE
8
0
6
CONTINUOUS
10
-3.52
20
-198.71
30
0
11
-2.77
21
-198.07
31
0
0
LINE
8
0
6
CONTINUOUS
10
3.52
20
-197.07
30
0
11
-3.52
21
-198.71
31
0
0
LINE
8
0
6
CONTINUOUS
10
-16.0
20
-0.0
30
0
11
16.0
21
-0.0
31
0
0
LINE
8
0
6
CONTINUOUS
10
16.0
20
-0.0
30
0
11
16.0
21
1.0
31
0
0
LINE
8
0
6
CONTINUOUS
10
16.0
20
1.0
30
0
11
15.0
21
1.0
31
0
0
LINE
8
0
6
CONTINUOUS
10
14.2
20
4.0
30
0
11
-0.0
21
4.0
31
0
0
ARC
8
0
6
CONTINUOUS
10
6.790639593506635
20
0.4175038916017675
30
0
40
8.23
50
4.058626496424554
51
25.804207859850578
0
LINE
8
0
6
CONTINUOUS
10
-16.0
20
-0.0
30
0
11
-16.0
21
1.0
31
0
0
LINE
8
0
6
CONTINUOUS
10
-16.0
20
1.0
30
0
11
-15.0
21
1.0
31
0
0
LINE
8
0
6
CONTINUOUS
10
-14.2
20
4.0
30
0
11
-0.0
21
4.0
31
0
0
ARC
8
0
6
CONTINUOUS
10
-6.790639593506635
20
0.4175038916017675
30
0
40
8.23
50
154.19579214014945
51
175.94137350357545
0
LINE
8
0
6
CONTINUOUS
10
5.0
20
-127.16
30
0
11
5.0
21
-130.62
31
0
0
LINE
8
0
6
CONTINUOUS
10
-5.0
20
-127.16
30
0
11
-5.0
21
-130.62
31
0
0
LINE
8
0
6
CONTINUOUS
10
0.0
20
-130.62
30
0
11
0.0
21
-127.16
31
0
0
LINE
8
0
6
CONTINUOUS
10
-5.0
20
-129.43
30
0
11
5.0
21
-129.43
31
0
0
LINE
8
0
6
CONTINUOUS
10
4.25
20
-128.38
30
0
11
5.0
21
-127.74
31
0
0
LINE
8
0
6
CONTINUOUS
10
-5.0
20
-130.07
30
0
11
-4.25
21
-129.43
31
0
0
LINE
8
0
6
CONTINUOUS
10
5.0
20
-127.74
30
0
11
-5.0
21
-130.07
31
0
0
LINE
8
0
6
CONTINUOUS
10
5.0
20
-132.57
30
0
11
5.0
21
-136.03
31
0
0
LINE
8
0
6
CONTINUOUS
10
-5.0
20
-132.57
30
0
11
-5.0
21
-136.03
31
0
0
LINE
8
0
6
CONTINUOUS
10
0.0
20
-136.03
30
0
11
0.0
21
-132.57
31
0
0
LINE
8
0
6
CONTINUOUS
10
-5.0
20
-134.83
30
0
11
5.0
21
-134.83
31
0
0
LINE
8
0
6
CONTINUOUS
10
4.25
20
-133.78
30
0
11
5.0
21
-133.14
31
0
0
LINE
8
0
6
CONTINUOUS
10
-5.0
20
-135.47
30
0
11
-4.25
21
-134.83
31
0
0
LINE
8
0
6
CONTINUOUS
10
5.0
20
-133.14
30
0
11
-5.0
21
-135.47
31
0
0
LINE
8
0
6
CONTINUOUS
10
5.0
20
-137.97
30
0
11
5.0
21
-141.43
31
0
0
LINE
8
0
6
CONTINUOUS
10
-5.0
20
-137.97
30
0
11
-5.0
21
-141.43
31
0
0
LINE
8
0
6
CONTINUOUS
10
0.0
20
-141.43
30
0
11
0.0
21
-137.97
31
0
0
LINE
8
0
6
CONTINUOUS
10
-5.0
20
-140.23
30
0
11
5.0
21
-140.23
31
0
0
LINE
8
0
6
CONTINUOUS
10
4.25
20
-139.18
30
0
11
5.0
21
-138.54
31
0
0
LINE
8
0
6
CONTINUOUS
10
-5.0
20
-140.87
30
0
11
-4.25
21
-140.23
31
0
0
LINE
8
0
6
CONTINUOUS
10
5.0
20
-138.54
30
0
11
-5.0
21
-140.87
31
0
0
LINE
8
0
6
CONTINUOUS
10
5.0
20
-143.37
30
0
11
5.0
21
-146.83
31
0
0
LINE
8
0
6
CONTINUOUS
10
-5.0
20
-143.37
30
0
11
-5.0
21
-146.83
31
0
0
LINE
8
0
6
CONTINUOUS
10
0.0
20
-146.83
30
0
11
0.0
21
-143.37
31
0
0
LINE
8
0
6
CONTINUOUS
10
-5.0
20
-145.63
30
0
11
5.0
21
-145.63
31
0
0
LINE
8
0
6
CONTINUOUS
10
4.25
20
-144.58
30
0
11
5.0
21
-143.94
31
0
0
LINE
8
0
6
CONTINUOUS
10
-5.0
20
-146.27
30
0
11
-4.25
21
-145.63
31
0
0
LINE
8
0
6
CONTINUOUS
10
5.0
20
-143.94
30
0
11
-5.0
21
-146.27
31
0
0
LINE
8
0
6
CONTINUOUS
10
5.0
20
-148.77
30
0
11
5.0
21
-152.23
31
0
0
LINE
8
0
6
CONTINUOUS
10
-5.0
20
-148.77
30
0
11
-5.0
21
-152.23
31
0
0
LINE
8
0
6
CONTINUOUS
10
0.0
20
-152.23
30
0
11
0.0
21
-148.77
31
0
0
LINE
8
0
6
CONTINUOUS
10
-5.0
20
-151.04
30
0
11
5.0
21
-151.04
31
0
0
LINE
8
0
6
CONTINUOUS
10
4.25
20
-149.99
30
0
11
5.0
21
-149.35
31
0
0
LINE
8
0
6
CONTINUOUS
10
-5.0
20
-151.68
30
0
11
-4.25
21
-151.04
31
0
0
LINE
8
0
6
CONTINUOUS
10
5.0
20
-149.35
30
0
11
-5.0
21
-151.68
31
0
0
LINE
8
0
6
CONTINUOUS
10
5.0
20
-154.18
30
0
11
5.0
21
-157.64
31
0
0
LINE
8
0
6
CONTINUOUS
10
-5.0
20
-154.18
30
0
11
-5.0
21
-157.64
31
0
0
LINE
8
0
6
CONTINUOUS
10
0.0
20
-157.64
30
0
11
0.0
21
-154.18
31
0
0
LINE
8
0
6
CONTINUOUS
10
-5.0
20
-156.44
30
0
11
5.0
21
-156.44
31
0
0
LINE
8
0
6
CONTINUOUS
10
4.25
20
-155.39
30
0
11
5.0
21
-154.75
31
0
0
LINE
8
0
6
CONTINUOUS
10
-5.0
20
-157.08
30
0
11
-4.25
21
-156.44
31
0
0
LINE
8
0
6
CONTINUOUS
10
5.0
20
-154.75
30
0
11
-5.0
21
-157.08
31
0
0
LINE
8
0
6
CONTINUOUS
10
5.0
20
-159.58
30
0
11
5.0
21
-163.04
31
0
0
LINE
8
0
6
CONTINUOUS
10
-5.0
20
-159.58
30
0
11
-5.0
21
-163.04
31
0
0
LINE
8
0
6
CONTINUOUS
10
0.0
20
-163.04
30
0
11
0.0
21
-159.58
31
0
0
LINE
8
0
6
CONTINUOUS
10
-5.0
20
-161.84
30
0
11
5.0
21
-161.84
31
0
0
LINE
8
0
6
CONTINUOUS
10
4.25
20
-160.79
30
0
11
5.0
21
-160.15
31
0
0
LINE
8
0
6
CONTINUOUS
10
-5.0
20
-162.48
30
0
11
-4.25
21
-161.84
31
0
0
LINE
8
0
6
CONTINUOUS
10
5.0
20
-160.15
30
0
11
-5.0
21
-162.48
31
0
0
LINE
8
0
6
CONTINUOUS
10
5.0
20
-164.98
30
0
11
5.0
21
-168.44
31
0
0
LINE
8
0
6
CONTINUOUS
10
-5.0
20
-164.98
30
0
11
-5.0
21
-168.44
31
0
0
LINE
8
0
6
CONTINUOUS
10
0.0
20
-168.44
30
0
11
0.0
21
-164.98
31
0
0
LINE
8
0
6
CONTINUOUS
10
-5.0
20
-167.24
30
0
11
5.0
21
-167.24
31
0
0
LINE
8
0
6
CONTINUOUS
10
4.25
20
-166.19
30
0
11
5.0
21
-165.55
31
0
0
LINE
8
0
6
CONTINUOUS
10
-5.0
20
-167.88
30
0
11
-4.25
21
-167.24
31
0
0
LINE
8
0
6
CONTINUOUS
10
5.0
20
-165.55
30
0
11
-5.0
21
-167.88
31
0
0
LINE
8
0
6
CONTINUOUS
10
5.0
20
-170.38
30
0
11
5.0
21
-173.84
31
0
0
LINE
8
0
6
CONTINUOUS
10
-5.0
20
-170.38
30
0
11
-5.0
21
-173.84
31
0
0
LINE
8
0
6
CONTINUOUS
10
0.0
20
-173.84
30
0
11
0.0
21
-170.38
31
0
0
LINE
8
0
6
CONTINUOUS
10
-5.0
20
-172.64
30
0
11
5.0
21
-172.64
31
0
0
LINE
8
0
6
CONTINUOUS
10
4.25
20
-171.6
30
0
11
5.0
21
-170.96
31
0
0
LINE
8
0
6
CONTINUOUS
10
-5.0
20
-173.28
30
0
11
-4.25
21
-172.64
31
0
0
LINE
8
0
6
CONTINUOUS
10
5.0
20
-170.96
30
0
11
-5.0
21
-173.28
31
0
0
LINE
8
0
6
CONTINUOUS
10
5.0
20
-175.79
30
0
11
5.0
21
-179.25
31
0
0
LINE
8
0
6
CONTINUOUS
10
-5.0
20
-175.79
30
0
11
-5.0
21
-179.25
31
0
0
LINE
8
0
6
CONTINUOUS
10
0.0
20
-179.25
30
0
11
0.0
21
-175.79
31
0
0
LINE
8
0
6
CONTINUOUS
10
-5.0
20
-178.05
30
0
11
5.0
21
-178.05
31
0
0
LINE
8
0
6
CONTINUOUS
10
4.25
20
-177.0
30
0
11
5.0
21
-176.36
31
0
0
LINE
8
0
6
CONTINUOUS
10
-5.0
20
-178.69
30
0
11
-4.25
21
-178.05
31
0
0
LINE
8
0
6
CONTINUOUS
10
5.0
20
-176.36
30
0
11
-5.0
21
-178.69
31
0
0
LINE
8
0
6
CONTINUOUS
10
5.0
20
-181.19
30
0
11
5.0
21
-184.65
31
0
0
LINE
8
0
6
CONTINUOUS
10
-5.0
20
-181.19
30
0
11
-5.0
21
-184.65
31
0
0
LINE
8
0
6
CONTINUOUS
10
0.0
20
-184.65
30
0
11
0.0
21
-181.19
31
0
0
LINE
8
0
6
CONTINUOUS
10
-5.0
20
-183.45
30
0
11
5.0
21
-183.45
31
0
0
LINE
8
0
6
CONTINUOUS
10
4.25
20
-182.4
30
0
11
5.0
21
-181.76
31
0
0
LINE
8
0
6
CONTINUOUS
10
-5.0
20
-184.09
30
0
11
-4.25
21
-183.45
31
0
0
LINE
8
0
6
CONTINUOUS
10
5.0
20
-181.76
30
0
11
-5.0
21
-184.09
31
0
0
LINE
8
0
6
CONTINUOUS
10
5.0
20
-186.59
30
0
11
5.0
21
-190.05
31
0
0
LINE
8
0
6
CONTINUOUS
10
-5.0
20
-186.59
30
0
11
-5.0
21
-190.05
31
0
0
LINE
8
0
6
CONTINUOUS
10
0.0
20
-190.05
30
0
11
0.0
21
-186.59
31
0
0
LINE
8
0
6
CONTINUOUS
10
-5.0
20
-188.85
30
0
11
5.0
21
-188.85
31
0
0
LINE
8
0
6
CONTINUOUS
10
4.25
20
-187.8
30
0
11
5.0
21
-187.16
31
0
0
LINE
8
0
6
CONTINUOUS
10
-5.0
20
-189.49
30
0
11
-4.25
21
-188.85
31
0
0
LINE
8
0
6
CONTINUOUS
10
5.0
20
-187.16
30
0
11
-5.0
21
-189.49
31
0
0
LINE
8
0
6
CONTINUOUS
10
-4.0
20
-3.55
30
0
11
-4.0
21
0.0
31
0
0
LINE
8
0
6
CONTINUOUS
10
4.0
20
-3.55
30
0
11
4.0
21
0.0
31
0
0
ENDSEC
0
EOF