0
SECTION
2
HEADER
0
ENDSEC
0
SECTION
2
TABLES
0
TABLE
2
LTYPE
70
3
0
LTYPE
2
CONTINUOUS
70
0
3
Solid line
72
65
73
0
40
0.0
0
LTYPE
2
CENTER
70
0
3
center
72
65
73
4
40
28.575
49
12.7
49
-6.35
49
3.175
49
-6.35
0
ENDTAB
0
TABLE
2
LAYER
70
1
0
LAYER
2
0
70
0
62
7
6
CONTINUOUS
0
ENDTAB
0
ENDSEC
0
SECTION
2
ENTITIES
0
LINE
8
0
6
CONTINUOUS
10
-21.0
20
-136.68
30
0
11
-21.0
21
55.32
31
0
0
LINE
8
0
6
CONTINUOUS
10
21.0
20
-136.68
30
0
11
21.0
21
55.32
31
0
0
LINE
8
0
6
CONTINUOUS
10
96.0
20
-71.68
30
0
11
-96.0
21
-71.68
31
0
0
LINE
8
0
6
CONTINUOUS
10
96.0
20
-9.68
30
0
11
-96.0
21
-9.68
31
0
0
LINE
8
0
6
CONTINUOUS
10
96.0
20
-48.31
30
0
11
-96.0
21
-48.31
31
0
0
LINE
8
0
6
CONTINUOUS
10
96.0
20
-33.06
30
0
11
-96.0
21
-33.06
31
0
0
LINE
8
0
6
CONTINUOUS
10
7.5
20
55.32
30
0
11
7.5
21
-136.68
31
0
0
LINE
8
0
6
CONTINUOUS
10
-7.5
20
-136.68
30
0
11
-7.5
21
55.32
31
0
0
LINE
8
0
6
CONTINUOUS
10
15.0
20
-136.68
30
0
11
15.0
21
55.32
31
0
0
LINE
8
0
6
CONTINUOUS
10
-15.0
20
-136.68
30
0
11
-15.0
21
55.32
31
0
0
LINE
8
0
6
CONTINUOUS
10
-96.0
20
-65.68
30
0
11
96.0
21
-65.68
31
0
0
LINE
8
0
6
CONTINUOUS
10
-10.95
20
-136.68
30
0
11
-10.95
21
55.32
31
0
0
LINE
8
0
6
CONTINUOUS
10
10.95
20
-136.68
30
0
11
10.95
21
55.32
31
0
0
LINE
8
0
6
CONTINUOUS
10
96.0
20
-15.68
30
0
11
-96.0
21
-15.68
31
0
0
LINE
8
0
6
CONTINUOUS
10
0.0
20
-136.68
30
0
11
0.0
21
55.32
31
0
0
LINE
8
0
6
CONTINUOUS
10
-96.0
20
-40.68
30
0
11
96.0
21
-40.68
31
0
0
LINE
8
0
6
CONTINUOUS
10
90.0
20
49.32
30
0
11
90.0
21
40.45
31
0
0
LINE
8
0
6
CONTINUOUS
10
4.25
20
25.49
30
0
11
4.25
21
-106.42
31
0
0
LINE
8
0
6
CONTINUOUS
10
90.0
20
49.32
30
0
11
-90.0
21
49.32
31
0
0
LINE
8
0
6
CONTINUOUS
10
-90.0
20
49.32
30
0
11
-90.0
21
40.45
31
0
0
ARC
8
0
6
CONTINUOUS
10
-12.749999992061934
20
25.77036735150721
30
0
40
8.5
50
359.99752380106264
51
59.84420824901512
0
LINE
8
0
6
CONTINUOUS
10
-4.25
20
25.77
30
0
11
-4.25
21
-107.07
31
0
0
LINE
8
0
6
CONTINUOUS
10
90.0
20
-121.83
30
0
11
45.13
21
-117.78
31
0
0
ARC
8
0
6
CONTINUOUS
10
12.749999163713113
20
-106.4162294726668
30
0
40
8.5
50
180.0254159188019
51
256.4603889921862
0
LINE
8
0
6
CONTINUOUS
10
90.0
20
-130.68
30
0
11
-90.0
21
-130.68
31
0
0
LINE
8
0
6
CONTINUOUS
10
-90.0
20
-130.68
30
0
11
-90.0
21
-121.82
31
0
0
LINE
8
0
6
CONTINUOUS
10
-90.0
20
-121.82
30
0
11
-45.13
21
-117.78
31
0
0
LINE
8
0
6
CONTINUOUS
10
-90.0
20
40.45
30
0
11
-45.13
21
36.42
31
0
0
LINE
8
0
6
CONTINUOUS
10
90.0
20
40.45
30
0
11
45.13
21
36.42
31
0
0
ARC
8
0
6
CONTINUOUS
10
12.749999977557792
20
25.489382328936017
30
0
40
8.5
50
115.20652609672837
51
179.99583647704418
0
ARC
8
0
6
CONTINUOUS
10
-12.749997620049811
20
-107.07636075054951
30
0
40
8.5
50
299.14743083572296
51
0.04287578765141259
0
LINE
8
0
6
CONTINUOUS
10
90.0
20
-130.68
30
0
11
90.0
21
-121.83
31
0
0
LINE
8
0
6
CONTINUOUS
10
-45.13
20
36.42
30
0
11
-8.48
21
33.12
31
0
0
LINE
8
0
6
CONTINUOUS
10
45.13
20
36.42
30
0
11
9.13
21
33.18
31
0
0
LINE
8
0
6
CONTINUOUS
10
45.13
20
-117.78
30
0
11
10.76
21
-114.68
31
0
0
LINE
8
0
6
CONTINUOUS
10
-45.13
20
-117.78
30
0
11
-8.61
21
-114.5
31
0
0
LINE
8
0
6
CENTER
10
0.0
20
55.32
30
0
11
0.0
21
-136.68
31
0
0
LINE
8
0
6
CENTER
10
-96.0
20
-40.68
30
0
11
96.0
21
-40.68
31
0
0
ENDSEC
0
EOF