0
SECTION
2
HEADER
0
ENDSEC
0
SECTION
2
TABLES
0
TABLE
2
LTYPE
70
3
0
LTYPE
2
CONTINUOUS
70
0
3
Solid line
72
65
73
0
40
0.0
0
LTYPE
2
CENTER
70
0
3
center
72
65
73
4
40
28.575
49
12.7
49
-6.35
49
3.175
49
-6.35
0
ENDTAB
0
TABLE
2
LAYER
70
1
0
LAYER
2
0
70
0
62
7
6
CONTINUOUS
0
ENDTAB
0
ENDSEC
0
SECTION
2
ENTITIES
0
LINE
8
0
6
CONTINUOUS
10
64.0
20
181.77
30
0
11
64.0
21
-100.32
31
0
0
LINE
8
0
6
CONTINUOUS
10
-64.0
20
181.77
30
0
11
-64.0
21
-100.32
31
0
0
LINE
8
0
6
CONTINUOUS
10
64.0
20
181.77
30
0
11
-64.0
21
181.77
31
0
0
LINE
8
0
6
CONTINUOUS
10
64.0
20
-100.32
30
0
11
-64.0
21
-100.32
31
0
0
LINE
8
0
6
CONTINUOUS
10
64.0
20
-83.68
30
0
11
-64.0
21
-83.68
31
0
0
LINE
8
0
6
CONTINUOUS
10
64.0
20
165.04
30
0
11
-64.0
21
165.04
31
0
0
LINE
8
0
6
CONTINUOUS
10
29.0
20
-100.32
30
0
11
29.0
21
181.77
31
0
0
LINE
8
0
6
CONTINUOUS
10
-29.0
20
181.77
30
0
11
-29.0
21
-100.32
31
0
0
LINE
8
0
6
CONTINUOUS
10
58.0
20
181.77
30
0
11
58.0
21
-100.32
31
0
0
LINE
8
0
6
CONTINUOUS
10
-58.0
20
181.77
30
0
11
-58.0
21
-100.32
31
0
0
LINE
8
0
6
CONTINUOUS
10
-64.0
20
175.68
30
0
11
64.0
21
175.68
31
0
0
LINE
8
0
6
CONTINUOUS
10
-4.85
20
181.77
30
0
11
-4.85
21
-100.32
31
0
0
LINE
8
0
6
CONTINUOUS
10
4.85
20
181.77
30
0
11
4.85
21
-100.32
31
0
0
LINE
8
0
6
CONTINUOUS
10
64.0
20
-94.32
30
0
11
-64.0
21
-94.32
31
0
0
LINE
8
0
6
CONTINUOUS
10
0.0
20
181.77
30
0
11
0.0
21
-100.32
31
0
0
LINE
8
0
6
CONTINUOUS
10
-64.0
20
40.68
30
0
11
64.0
21
40.68
31
0
0
LINE
8
0
6
CONTINUOUS
10
-58.0
20
-94.32
30
0
11
58.0
21
-94.32
31
0
0
LINE
8
0
6
CONTINUOUS
10
58.0
20
-94.32
30
0
11
58.0
21
-83.66
31
0
0
LINE
8
0
6
CONTINUOUS
10
58.0
20
-83.66
30
0
11
29.13
21
-79.62
31
0
0
LINE
8
0
6
CONTINUOUS
10
29.13
20
-79.62
30
0
11
9.28
21
-76.84
31
0
0
ARC
8
0
6
CONTINUOUS
10
14.549999357106365
20
-68.69646840884752
30
0
40
9.7
50
180.02086033736836
51
237.0915069129016
0
LINE
8
0
6
CONTINUOUS
10
4.85
20
-68.7
30
0
11
4.85
21
150.42
31
0
0
ARC
8
0
6
CONTINUOUS
10
14.549999854959928
20
150.4183225682317
30
0
40
9.7
50
127.53734020094352
51
179.9900917771935
0
LINE
8
0
6
CONTINUOUS
10
8.64
20
158.11
30
0
11
29.13
21
160.98
31
0
0
LINE
8
0
6
CONTINUOUS
10
29.13
20
160.98
30
0
11
58.0
21
165.02
31
0
0
LINE
8
0
6
CONTINUOUS
10
58.0
20
165.02
30
0
11
58.0
21
175.68
31
0
0
LINE
8
0
6
CONTINUOUS
10
58.0
20
175.68
30
0
11
-58.0
21
175.68
31
0
0
LINE
8
0
6
CONTINUOUS
10
-58.0
20
175.68
30
0
11
-58.0
21
165.02
31
0
0
LINE
8
0
6
CONTINUOUS
10
-58.0
20
165.02
30
0
11
-29.13
21
160.98
31
0
0
LINE
8
0
6
CONTINUOUS
10
-29.13
20
160.98
30
0
11
-7.18
21
157.91
31
0
0
ARC
8
0
6
CONTINUOUS
10
-14.549999401488058
20
151.60340751101947
30
0
40
9.7
50
359.9798725768994
51
40.553981041997
0
LINE
8
0
6
CONTINUOUS
10
-4.85
20
151.6
30
0
11
-4.85
21
-70.33
31
0
0
ARC
8
0
6
CONTINUOUS
10
-14.549999999141782
20
-70.33012903256814
30
0
40
9.7
50
320.27064302600746
51
0.0007621671726133282
0
LINE
8
0
6
CONTINUOUS
10
-7.09
20
-76.53
30
0
11
-29.13
21
-79.62
31
0
0
LINE
8
0
6
CONTINUOUS
10
-29.13
20
-79.62
30
0
11
-58.0
21
-83.66
31
0
0
LINE
8
0
6
CONTINUOUS
10
-58.0
20
-83.66
30
0
11
-58.0
21
-94.32
31
0
0
LINE
8
0
6
CONTINUOUS
10
58.0
20
-94.32
30
0
11
58.0
21
-83.66
31
0
0
LINE
8
0
6
CONTINUOUS
10
4.85
20
-68.7
30
0
11
4.85
21
150.42
31
0
0
LINE
8
0
6
CONTINUOUS
10
58.0
20
-94.32
30
0
11
-58.0
21
-94.32
31
0
0
LINE
8
0
6
CONTINUOUS
10
-58.0
20
-94.32
30
0
11
-58.0
21
-83.66
31
0
0
ARC
8
0
6
CONTINUOUS
10
-14.549999999141782
20
-70.33012903256814
30
0
40
9.7
50
320.27064302600746
51
0.0007621671726133282
0
LINE
8
0
6
CONTINUOUS
10
-4.85
20
-70.33
30
0
11
-4.85
21
151.6
31
0
0
LINE
8
0
6
CONTINUOUS
10
58.0
20
165.02
30
0
11
29.13
21
160.98
31
0
0
ARC
8
0
6
CONTINUOUS
10
14.549999854959928
20
150.4183225682317
30
0
40
9.7
50
127.53734020094352
51
179.9900917771935
0
LINE
8
0
6
CONTINUOUS
10
58.0
20
175.68
30
0
11
-58.0
21
175.68
31
0
0
LINE
8
0
6
CONTINUOUS
10
-58.0
20
175.68
30
0
11
-58.0
21
165.02
31
0
0
LINE
8
0
6
CONTINUOUS
10
-58.0
20
165.02
30
0
11
-29.13
21
160.98
31
0
0
LINE
8
0
6
CONTINUOUS
10
-58.0
20
-83.66
30
0
11
-29.13
21
-79.62
31
0
0
LINE
8
0
6
CONTINUOUS
10
58.0
20
-83.66
30
0
11
29.13
21
-79.62
31
0
0
ARC
8
0
6
CONTINUOUS
10
14.549999357106365
20
-68.69646840884752
30
0
40
9.7
50
180.02086033736836
51
237.0915069129016
0
ARC
8
0
6
CONTINUOUS
10
-14.549999401488058
20
151.60340751101947
30
0
40
9.7
50
359.9798725768994
51
40.553981041997
0
LINE
8
0
6
CONTINUOUS
10
58.0
20
175.68
30
0
11
58.0
21
165.02
31
0
0
LINE
8
0
6
CONTINUOUS
10
-29.13
20
-79.62
30
0
11
-7.09
21
-76.53
31
0
0
LINE
8
0
6
CONTINUOUS
10
29.13
20
-79.62
30
0
11
9.28
21
-76.84
31
0
0
LINE
8
0
6
CONTINUOUS
10
29.13
20
160.98
30
0
11
8.64
21
158.11
31
0
0
LINE
8
0
6
CONTINUOUS
10
-29.13
20
160.98
30
0
11
-7.18
21
157.91
31
0
0
LINE
8
0
6
CENTER
10
-0.0
20
-100.32
30
0
11
-0.0
21
181.77
31
0
0
LINE
8
0
6
CENTER
10
-64.0
20
40.66
30
0
11
64.0
21
40.66
31
0
0
ENDSEC
0
EOF