0
SECTION
2
HEADER
0
ENDSEC
0
SECTION
2
TABLES
0
TABLE
2
LTYPE
70
3
0
LTYPE
2
CONTINUOUS
70
0
3
Solid line
72
65
73
0
40
0.0
0
LTYPE
2
CENTER
70
0
3
center
72
65
73
4
40
28.575
49
12.7
49
-6.35
49
3.175
49
-6.35
0
ENDTAB
0
TABLE
2
LAYER
70
1
0
LAYER
2
0
70
0
62
7
6
CONTINUOUS
0
ENDTAB
0
ENDSEC
0
SECTION
2
ENTITIES
0
LINE
8
0
6
CONTINUOUS
10
16.0
20
9.1
30
0
11
16.0
21
-105.9
31
0
0
LINE
8
0
6
CONTINUOUS
10
-16.0
20
9.1
30
0
11
-16.0
21
-105.9
31
0
0
LINE
8
0
6
CONTINUOUS
10
1.52
20
9.1
30
0
11
1.52
21
-105.9
31
0
0
LINE
8
0
6
CONTINUOUS
10
2.26
20
9.1
30
0
11
2.26
21
-105.9
31
0
0
LINE
8
0
6
CONTINUOUS
10
-1.52
20
-105.9
30
0
11
-1.52
21
9.1
31
0
0
LINE
8
0
6
CONTINUOUS
10
-2.26
20
-105.9
30
0
11
-2.26
21
9.1
31
0
0
LINE
8
0
6
CONTINUOUS
10
5.65
20
9.1
30
0
11
5.65
21
-105.9
31
0
0
LINE
8
0
6
CONTINUOUS
10
-5.65
20
9.1
30
0
11
-5.65
21
-105.9
31
0
0
LINE
8
0
6
CONTINUOUS
10
-16.0
20
-95.0
30
0
11
16.0
21
-95.0
31
0
0
LINE
8
0
6
CONTINUOUS
10
-16.0
20
-100.0
30
0
11
16.0
21
-100.0
31
0
0
LINE
8
0
6
CONTINUOUS
10
3.0
20
-105.9
30
0
11
3.0
21
9.1
31
0
0
LINE
8
0
6
CONTINUOUS
10
-3.0
20
9.1
30
0
11
-3.0
21
-105.9
31
0
0
LINE
8
0
6
CONTINUOUS
10
0.0
20
-105.9
30
0
11
0.0
21
9.1
31
0
0
LINE
8
0
6
CONTINUOUS
10
-16.0
20
0.0
30
0
11
16.0
21
0.0
31
0
0
LINE
8
0
6
CONTINUOUS
10
-2.0
20
-4.0
30
0
11
2.03
21
-3.26
31
0
0
ARC
8
0
6
CONTINUOUS
10
3.499997808311271
20
-3.5525641882505097
30
0
40
1.5
50
129.7917105471753
51
179.90205517587594
0
LINE
8
0
6
CONTINUOUS
10
5.4
20
0.0
30
0
11
2.54
21
-2.4
31
0
0
LINE
8
0
6
CONTINUOUS
10
-5.4
20
0.0
30
0
11
5.4
21
0.0
31
0
0
LINE
8
0
6
CONTINUOUS
10
-5.04
20
-0.3
30
0
11
5.04
21
-0.3
31
0
0
LINE
8
0
6
CONTINUOUS
10
-2.54
20
-2.4
30
0
11
-5.4
21
0.0
31
0
0
ARC
8
0
6
CONTINUOUS
10
-3.499997808311271
20
-3.5525641882505097
30
0
40
1.5
50
0.09794482412407453
51
50.2082894528247
0
LINE
8
0
6
CONTINUOUS
10
-2.0
20
-3.55
30
0
11
-2.0
21
-95.0
31
0
0
LINE
8
0
6
CONTINUOUS
10
2.0
20
-95.0
30
0
11
2.0
21
-3.55
31
0
0
LINE
8
0
6
CONTINUOUS
10
-2.0
20
-95.0
30
0
11
-0.0
21
-100.0
31
0
0
LINE
8
0
6
CONTINUOUS
10
-0.0
20
-100.0
30
0
11
2.0
21
-95.0
31
0
0
LINE
8
0
6
CONTINUOUS
10
3.0
20
-4.17
30
0
11
3.0
21
-6.25
31
0
0
LINE
8
0
6
CONTINUOUS
10
-3.0
20
-4.17
30
0
11
-3.0
21
-6.25
31
0
0
LINE
8
0
6
CONTINUOUS
10
0.0
20
-6.25
30
0
11
0.0
21
-4.17
31
0
0
LINE
8
0
6
CONTINUOUS
10
-3.0
20
-5.26
30
0
11
3.0
21
-5.26
31
0
0
LINE
8
0
6
CONTINUOUS
10
2.25
20
-5.14
30
0
11
3.0
21
-4.5
31
0
0
LINE
8
0
6
CONTINUOUS
10
-3.0
20
-5.9
30
0
11
-2.25
21
-5.26
31
0
0
LINE
8
0
6
CONTINUOUS
10
3.0
20
-4.5
30
0
11
-3.0
21
-5.9
31
0
0
LINE
8
0
6
CENTER
10
-0.0
20
9.1
30
0
11
-0.0
21
-105.9
31
0
0
LINE
8
0
6
CONTINUOUS
10
3.0
20
-93.16
30
0
11
3.0
21
-95.24
31
0
0
LINE
8
0
6
CONTINUOUS
10
-3.0
20
-93.16
30
0
11
-3.0
21
-95.24
31
0
0
LINE
8
0
6
CONTINUOUS
10
-0.0
20
-95.24
30
0
11
-0.0
21
-93.16
31
0
0
LINE
8
0
6
CONTINUOUS
10
-3.0
20
-94.25
30
0
11
3.0
21
-94.25
31
0
0
LINE
8
0
6
CONTINUOUS
10
2.25
20
-94.14
30
0
11
3.0
21
-93.5
31
0
0
LINE
8
0
6
CONTINUOUS
10
-3.0
20
-94.89
30
0
11
-2.25
21
-94.25
31
0
0
LINE
8
0
6
CONTINUOUS
10
3.0
20
-93.5
30
0
11
-3.0
21
-94.89
31
0
0
LINE
8
0
6
CONTINUOUS
10
3.0
20
-6.34
30
0
11
3.0
21
-8.42
31
0
0
LINE
8
0
6
CONTINUOUS
10
-3.0
20
-6.34
30
0
11
-3.0
21
-8.42
31
0
0
LINE
8
0
6
CONTINUOUS
10
0.0
20
-8.42
30
0
11
0.0
21
-6.34
31
0
0
LINE
8
0
6
CONTINUOUS
10
-3.0
20
-7.43
30
0
11
3.0
21
-7.43
31
0
0
LINE
8
0
6
CONTINUOUS
10
2.25
20
-7.31
30
0
11
3.0
21
-6.67
31
0
0
LINE
8
0
6
CONTINUOUS
10
-3.0
20
-8.07
30
0
11
-2.25
21
-7.43
31
0
0
LINE
8
0
6
CONTINUOUS
10
3.0
20
-6.67
30
0
11
-3.0
21
-8.07
31
0
0
LINE
8
0
6
CONTINUOUS
10
3.0
20
-8.51
30
0
11
3.0
21
-10.59
31
0
0
LINE
8
0
6
CONTINUOUS
10
-3.0
20
-8.51
30
0
11
-3.0
21
-10.59
31
0
0
LINE
8
0
6
CONTINUOUS
10
0.0
20
-10.59
30
0
11
0.0
21
-8.51
31
0
0
LINE
8
0
6
CONTINUOUS
10
-3.0
20
-9.6
30
0
11
3.0
21
-9.6
31
0
0
LINE
8
0
6
CONTINUOUS
10
2.25
20
-9.48
30
0
11
3.0
21
-8.84
31
0
0
LINE
8
0
6
CONTINUOUS
10
-3.0
20
-10.24
30
0
11
-2.25
21
-9.6
31
0
0
LINE
8
0
6
CONTINUOUS
10
3.0
20
-8.84
30
0
11
-3.0
21
-10.24
31
0
0
LINE
8
0
6
CONTINUOUS
10
3.0
20
-10.68
30
0
11
3.0
21
-12.76
31
0
0
LINE
8
0
6
CONTINUOUS
10
-3.0
20
-10.68
30
0
11
-3.0
21
-12.76
31
0
0
LINE
8
0
6
CONTINUOUS
10
0.0
20
-12.76
30
0
11
0.0
21
-10.68
31
0
0
LINE
8
0
6
CONTINUOUS
10
-3.0
20
-11.77
30
0
11
3.0
21
-11.77
31
0
0
LINE
8
0
6
CONTINUOUS
10
2.25
20
-11.65
30
0
11
3.0
21
-11.01
31
0
0
LINE
8
0
6
CONTINUOUS
10
-3.0
20
-12.41
30
0
11
-2.25
21
-11.77
31
0
0
LINE
8
0
6
CONTINUOUS
10
3.0
20
-11.01
30
0
11
-3.0
21
-12.41
31
0
0
LINE
8
0
6
CONTINUOUS
10
3.0
20
-12.85
30
0
11
3.0
21
-14.93
31
0
0
LINE
8
0
6
CONTINUOUS
10
-3.0
20
-12.85
30
0
11
-3.0
21
-14.93
31
0
0
LINE
8
0
6
CONTINUOUS
10
0.0
20
-14.93
30
0
11
0.0
21
-12.85
31
0
0
LINE
8
0
6
CONTINUOUS
10
-3.0
20
-13.94
30
0
11
3.0
21
-13.94
31
0
0
LINE
8
0
6
CONTINUOUS
10
2.25
20
-13.83
30
0
11
3.0
21
-13.19
31
0
0
LINE
8
0
6
CONTINUOUS
10
-3.0
20
-14.58
30
0
11
-2.25
21
-13.94
31
0
0
LINE
8
0
6
CONTINUOUS
10
3.0
20
-13.19
30
0
11
-3.0
21
-14.58
31
0
0
LINE
8
0
6
CONTINUOUS
10
3.0
20
-15.02
30
0
11
3.0
21
-17.1
31
0
0
LINE
8
0
6
CONTINUOUS
10
-3.0
20
-15.02
30
0
11
-3.0
21
-17.1
31
0
0
LINE
8
0
6
CONTINUOUS
10
0.0
20
-17.1
30
0
11
0.0
21
-15.02
31
0
0
LINE
8
0
6
CONTINUOUS
10
-3.0
20
-16.11
30
0
11
3.0
21
-16.11
31
0
0
LINE
8
0
6
CONTINUOUS
10
2.25
20
-16.0
30
0
11
3.0
21
-15.36
31
0
0
LINE
8
0
6
CONTINUOUS
10
-3.0
20
-16.75
30
0
11
-2.25
21
-16.11
31
0
0
LINE
8
0
6
CONTINUOUS
10
3.0
20
-15.36
30
0
11
-3.0
21
-16.75
31
0
0
LINE
8
0
6
CONTINUOUS
10
3.0
20
-17.19
30
0
11
3.0
21
-19.27
31
0
0
LINE
8
0
6
CONTINUOUS
10
-3.0
20
-17.19
30
0
11
-3.0
21
-19.27
31
0
0
LINE
8
0
6
CONTINUOUS
10
0.0
20
-19.27
30
0
11
0.0
21
-17.19
31
0
0
LINE
8
0
6
CONTINUOUS
10
-3.0
20
-18.28
30
0
11
3.0
21
-18.28
31
0
0
LINE
8
0
6
CONTINUOUS
10
2.25
20
-18.17
30
0
11
3.0
21
-17.53
31
0
0
LINE
8
0
6
CONTINUOUS
10
-3.0
20
-18.92
30
0
11
-2.25
21
-18.28
31
0
0
LINE
8
0
6
CONTINUOUS
10
3.0
20
-17.53
30
0
11
-3.0
21
-18.92
31
0
0
LINE
8
0
6
CONTINUOUS
10
3.0
20
-19.36
30
0
11
3.0
21
-21.44
31
0
0
LINE
8
0
6
CONTINUOUS
10
-3.0
20
-19.36
30
0
11
-3.0
21
-21.44
31
0
0
LINE
8
0
6
CONTINUOUS
10
0.0
20
-21.44
30
0
11
0.0
21
-19.36
31
0
0
LINE
8
0
6
CONTINUOUS
10
-3.0
20
-20.45
30
0
11
3.0
21
-20.45
31
0
0
LINE
8
0
6
CONTINUOUS
10
2.25
20
-20.34
30
0
11
3.0
21
-19.7
31
0
0
LINE
8
0
6
CONTINUOUS
10
-3.0
20
-21.09
30
0
11
-2.25
21
-20.45
31
0
0
LINE
8
0
6
CONTINUOUS
10
3.0
20
-19.7
30
0
11
-3.0
21
-21.09
31
0
0
LINE
8
0
6
CONTINUOUS
10
3.0
20
-21.53
30
0
11
3.0
21
-23.61
31
0
0
LINE
8
0
6
CONTINUOUS
10
-3.0
20
-21.53
30
0
11
-3.0
21
-23.61
31
0
0
LINE
8
0
6
CONTINUOUS
10
0.0
20
-23.61
30
0
11
0.0
21
-21.53
31
0
0
LINE
8
0
6
CONTINUOUS
10
-3.0
20
-22.62
30
0
11
3.0
21
-22.62
31
0
0
LINE
8
0
6
CONTINUOUS
10
2.25
20
-22.51
30
0
11
3.0
21
-21.87
31
0
0
LINE
8
0
6
CONTINUOUS
10
-3.0
20
-23.26
30
0
11
-2.25
21
-22.62
31
0
0
LINE
8
0
6
CONTINUOUS
10
3.0
20
-21.87
30
0
11
-3.0
21
-23.26
31
0
0
LINE
8
0
6
CONTINUOUS
10
3.0
20
-23.7
30
0
11
3.0
21
-25.78
31
0
0
LINE
8
0
6
CONTINUOUS
10
-3.0
20
-23.7
30
0
11
-3.0
21
-25.78
31
0
0
LINE
8
0
6
CONTINUOUS
10
0.0
20
-25.78
30
0
11
0.0
21
-23.7
31
0
0
LINE
8
0
6
CONTINUOUS
10
-3.0
20
-24.8
30
0
11
3.0
21
-24.8
31
0
0
LINE
8
0
6
CONTINUOUS
10
2.25
20
-24.68
30
0
11
3.0
21
-24.04
31
0
0
LINE
8
0
6
CONTINUOUS
10
-3.0
20
-25.44
30
0
11
-2.25
21
-24.8
31
0
0
LINE
8
0
6
CONTINUOUS
10
3.0
20
-24.04
30
0
11
-3.0
21
-25.44
31
0
0
LINE
8
0
6
CONTINUOUS
10
3.0
20
-25.87
30
0
11
3.0
21
-27.95
31
0
0
LINE
8
0
6
CONTINUOUS
10
-3.0
20
-25.87
30
0
11
-3.0
21
-27.95
31
0
0
LINE
8
0
6
CONTINUOUS
10
0.0
20
-27.95
30
0
11
0.0
21
-25.87
31
0
0
LINE
8
0
6
CONTINUOUS
10
-3.0
20
-26.97
30
0
11
3.0
21
-26.97
31
0
0
LINE
8
0
6
CONTINUOUS
10
2.25
20
-26.85
30
0
11
3.0
21
-26.21
31
0
0
LINE
8
0
6
CONTINUOUS
10
-3.0
20
-27.61
30
0
11
-2.25
21
-26.97
31
0
0
LINE
8
0
6
CONTINUOUS
10
3.0
20
-26.21
30
0
11
-3.0
21
-27.61
31
0
0
LINE
8
0
6
CONTINUOUS
10
2.26
20
-95.36
30
0
11
2.26
21
-96.92
31
0
0
LINE
8
0
6
CONTINUOUS
10
-2.26
20
-95.36
30
0
11
-2.26
21
-96.92
31
0
0
LINE
8
0
6
CONTINUOUS
10
-0.0
20
-96.92
30
0
11
-0.0
21
-95.36
31
0
0
LINE
8
0
6
CONTINUOUS
10
-2.26
20
-96.02
30
0
11
2.26
21
-96.02
31
0
0
LINE
8
0
6
CONTINUOUS
10
1.51
20
-96.25
30
0
11
2.26
21
-95.61
31
0
0
LINE
8
0
6
CONTINUOUS
10
-2.26
20
-96.66
30
0
11
-1.51
21
-96.02
31
0
0
LINE
8
0
6
CONTINUOUS
10
2.26
20
-95.61
30
0
11
-2.26
21
-96.66
31
0
0
LINE
8
0
6
CONTINUOUS
10
1.52
20
-97.84
30
0
11
1.52
21
-98.9
31
0
0
LINE
8
0
6
CONTINUOUS
10
-1.52
20
-97.84
30
0
11
-1.52
21
-98.9
31
0
0
LINE
8
0
6
CONTINUOUS
10
-0.0
20
-98.9
30
0
11
-0.0
21
-97.84
31
0
0
LINE
8
0
6
CONTINUOUS
10
-1.52
20
-98.07
30
0
11
1.52
21
-98.07
31
0
0
LINE
8
0
6
CONTINUOUS
10
0.77
20
-98.64
30
0
11
1.52
21
-98.0
31
0
0
LINE
8
0
6
CONTINUOUS
10
-1.52
20
-98.71
30
0
11
-0.77
21
-98.07
31
0
0
LINE
8
0
6
CONTINUOUS
10
1.52
20
-98.0
30
0
11
-1.52
21
-98.71
31
0
0
LINE
8
0
6
CONTINUOUS
10
3.0
20
-28.04
30
0
11
3.0
21
-30.12
31
0
0
LINE
8
0
6
CONTINUOUS
10
-3.0
20
-28.04
30
0
11
-3.0
21
-30.12
31
0
0
LINE
8
0
6
CONTINUOUS
10
0.0
20
-30.12
30
0
11
0.0
21
-28.04
31
0
0
LINE
8
0
6
CONTINUOUS
10
-3.0
20
-29.14
30
0
11
3.0
21
-29.14
31
0
0
LINE
8
0
6
CONTINUOUS
10
2.25
20
-29.02
30
0
11
3.0
21
-28.38
31
0
0
LINE
8
0
6
CONTINUOUS
10
-3.0
20
-29.78
30
0
11
-2.25
21
-29.14
31
0
0
LINE
8
0
6
CONTINUOUS
10
3.0
20
-28.38
30
0
11
-3.0
21
-29.78
31
0
0
LINE
8
0
6
CONTINUOUS
10
3.0
20
-30.21
30
0
11
3.0
21
-32.29
31
0
0
LINE
8
0
6
CONTINUOUS
10
-3.0
20
-30.21
30
0
11
-3.0
21
-32.29
31
0
0
LINE
8
0
6
CONTINUOUS
10
0.0
20
-32.29
30
0
11
0.0
21
-30.21
31
0
0
LINE
8
0
6
CONTINUOUS
10
-3.0
20
-31.31
30
0
11
3.0
21
-31.31
31
0
0
LINE
8
0
6
CONTINUOUS
10
2.25
20
-31.19
30
0
11
3.0
21
-30.55
31
0
0
LINE
8
0
6
CONTINUOUS
10
-3.0
20
-31.95
30
0
11
-2.25
21
-31.31
31
0
0
LINE
8
0
6
CONTINUOUS
10
3.0
20
-30.55
30
0
11
-3.0
21
-31.95
31
0
0
LINE
8
0
6
CONTINUOUS
10
3.0
20
-32.38
30
0
11
3.0
21
-34.46
31
0
0
LINE
8
0
6
CONTINUOUS
10
-3.0
20
-32.38
30
0
11
-3.0
21
-34.46
31
0
0
LINE
8
0
6
CONTINUOUS
10
0.0
20
-34.46
30
0
11
0.0
21
-32.38
31
0
0
LINE
8
0
6
CONTINUOUS
10
-3.0
20
-33.48
30
0
11
3.0
21
-33.48
31
0
0
LINE
8
0
6
CONTINUOUS
10
2.25
20
-33.36
30
0
11
3.0
21
-32.72
31
0
0
LINE
8
0
6
CONTINUOUS
10
-3.0
20
-34.12
30
0
11
-2.25
21
-33.48
31
0
0
LINE
8
0
6
CONTINUOUS
10
3.0
20
-32.72
30
0
11
-3.0
21
-34.12
31
0
0
LINE
8
0
6
CONTINUOUS
10
3.0
20
-34.55
30
0
11
3.0
21
-36.63
31
0
0
LINE
8
0
6
CONTINUOUS
10
-3.0
20
-34.55
30
0
11
-3.0
21
-36.63
31
0
0
LINE
8
0
6
CONTINUOUS
10
0.0
20
-36.63
30
0
11
0.0
21
-34.55
31
0
0
LINE
8
0
6
CONTINUOUS
10
-3.0
20
-35.65
30
0
11
3.0
21
-35.65
31
0
0
LINE
8
0
6
CONTINUOUS
10
2.25
20
-35.53
30
0
11
3.0
21
-34.89
31
0
0
LINE
8
0
6
CONTINUOUS
10
-3.0
20
-36.29
30
0
11
-2.25
21
-35.65
31
0
0
LINE
8
0
6
CONTINUOUS
10
3.0
20
-34.89
30
0
11
-3.0
21
-36.29
31
0
0
LINE
8
0
6
CONTINUOUS
10
3.0
20
-36.73
30
0
11
3.0
21
-38.81
31
0
0
LINE
8
0
6
CONTINUOUS
10
-3.0
20
-36.73
30
0
11
-3.0
21
-38.81
31
0
0
LINE
8
0
6
CONTINUOUS
10
0.0
20
-38.81
30
0
11
0.0
21
-36.73
31
0
0
LINE
8
0
6
CONTINUOUS
10
-3.0
20
-37.82
30
0
11
3.0
21
-37.82
31
0
0
LINE
8
0
6
CONTINUOUS
10
2.25
20
-37.7
30
0
11
3.0
21
-37.06
31
0
0
LINE
8
0
6
CONTINUOUS
10
-3.0
20
-38.46
30
0
11
-2.25
21
-37.82
31
0
0
LINE
8
0
6
CONTINUOUS
10
3.0
20
-37.06
30
0
11
-3.0
21
-38.46
31
0
0
LINE
8
0
6
CONTINUOUS
10
3.0
20
-38.9
30
0
11
3.0
21
-40.98
31
0
0
LINE
8
0
6
CONTINUOUS
10
-3.0
20
-38.9
30
0
11
-3.0
21
-40.98
31
0
0
LINE
8
0
6
CONTINUOUS
10
0.0
20
-40.98
30
0
11
0.0
21
-38.9
31
0
0
LINE
8
0
6
CONTINUOUS
10
-3.0
20
-39.99
30
0
11
3.0
21
-39.99
31
0
0
LINE
8
0
6
CONTINUOUS
10
2.25
20
-39.87
30
0
11
3.0
21
-39.23
31
0
0
LINE
8
0
6
CONTINUOUS
10
-3.0
20
-40.63
30
0
11
-2.25
21
-39.99
31
0
0
LINE
8
0
6
CONTINUOUS
10
3.0
20
-39.23
30
0
11
-3.0
21
-40.63
31
0
0
LINE
8
0
6
CONTINUOUS
10
3.0
20
-41.07
30
0
11
3.0
21
-43.15
31
0
0
LINE
8
0
6
CONTINUOUS
10
-3.0
20
-41.07
30
0
11
-3.0
21
-43.15
31
0
0
LINE
8
0
6
CONTINUOUS
10
0.0
20
-43.15
30
0
11
0.0
21
-41.07
31
0
0
LINE
8
0
6
CONTINUOUS
10
-3.0
20
-42.16
30
0
11
3.0
21
-42.16
31
0
0
LINE
8
0
6
CONTINUOUS
10
2.25
20
-42.04
30
0
11
3.0
21
-41.4
31
0
0
LINE
8
0
6
CONTINUOUS
10
-3.0
20
-42.8
30
0
11
-2.25
21
-42.16
31
0
0
LINE
8
0
6
CONTINUOUS
10
3.0
20
-41.4
30
0
11
-3.0
21
-42.8
31
0
0
LINE
8
0
6
CONTINUOUS
10
3.0
20
-43.24
30
0
11
3.0
21
-45.32
31
0
0
LINE
8
0
6
CONTINUOUS
10
-3.0
20
-43.24
30
0
11
-3.0
21
-45.32
31
0
0
LINE
8
0
6
CONTINUOUS
10
0.0
20
-45.32
30
0
11
0.0
21
-43.24
31
0
0
LINE
8
0
6
CONTINUOUS
10
-3.0
20
-44.33
30
0
11
3.0
21
-44.33
31
0
0
LINE
8
0
6
CONTINUOUS
10
2.25
20
-44.21
30
0
11
3.0
21
-43.57
31
0
0
LINE
8
0
6
CONTINUOUS
10
-3.0
20
-44.97
30
0
11
-2.25
21
-44.33
31
0
0
LINE
8
0
6
CONTINUOUS
10
3.0
20
-43.57
30
0
11
-3.0
21
-44.97
31
0
0
LINE
8
0
6
CONTINUOUS
10
3.0
20
-45.41
30
0
11
3.0
21
-47.49
31
0
0
LINE
8
0
6
CONTINUOUS
10
-3.0
20
-45.41
30
0
11
-3.0
21
-47.49
31
0
0
LINE
8
0
6
CONTINUOUS
10
0.0
20
-47.49
30
0
11
0.0
21
-45.41
31
0
0
LINE
8
0
6
CONTINUOUS
10
-3.0
20
-46.5
30
0
11
3.0
21
-46.5
31
0
0
LINE
8
0
6
CONTINUOUS
10
2.25
20
-46.38
30
0
11
3.0
21
-45.74
31
0
0
LINE
8
0
6
CONTINUOUS
10
-3.0
20
-47.14
30
0
11
-2.25
21
-46.5
31
0
0
LINE
8
0
6
CONTINUOUS
10
3.0
20
-45.74
30
0
11
-3.0
21
-47.14
31
0
0
LINE
8
0
6
CONTINUOUS
10
3.0
20
-47.58
30
0
11
3.0
21
-49.66
31
0
0
LINE
8
0
6
CONTINUOUS
10
-3.0
20
-47.58
30
0
11
-3.0
21
-49.66
31
0
0
LINE
8
0
6
CONTINUOUS
10
0.0
20
-49.66
30
0
11
0.0
21
-47.58
31
0
0
LINE
8
0
6
CONTINUOUS
10
-3.0
20
-48.67
30
0
11
3.0
21
-48.67
31
0
0
LINE
8
0
6
CONTINUOUS
10
2.25
20
-48.55
30
0
11
3.0
21
-47.91
31
0
0
LINE
8
0
6
CONTINUOUS
10
-3.0
20
-49.31
30
0
11
-2.25
21
-48.67
31
0
0
LINE
8
0
6
CONTINUOUS
10
3.0
20
-47.91
30
0
11
-3.0
21
-49.31
31
0
0
LINE
8
0
6
CONTINUOUS
10
3.0
20
-49.75
30
0
11
3.0
21
-51.83
31
0
0
LINE
8
0
6
CONTINUOUS
10
-3.0
20
-49.75
30
0
11
-3.0
21
-51.83
31
0
0
LINE
8
0
6
CONTINUOUS
10
0.0
20
-51.83
30
0
11
0.0
21
-49.75
31
0
0
LINE
8
0
6
CONTINUOUS
10
-3.0
20
-50.84
30
0
11
3.0
21
-50.84
31
0
0
LINE
8
0
6
CONTINUOUS
10
2.25
20
-50.73
30
0
11
3.0
21
-50.09
31
0
0
LINE
8
0
6
CONTINUOUS
10
-3.0
20
-51.48
30
0
11
-2.25
21
-50.84
31
0
0
LINE
8
0
6
CONTINUOUS
10
3.0
20
-50.09
30
0
11
-3.0
21
-51.48
31
0
0
LINE
8
0
6
CONTINUOUS
10
3.0
20
-51.92
30
0
11
3.0
21
-54.0
31
0
0
LINE
8
0
6
CONTINUOUS
10
-3.0
20
-51.92
30
0
11
-3.0
21
-54.0
31
0
0
LINE
8
0
6
CONTINUOUS
10
0.0
20
-54.0
30
0
11
0.0
21
-51.92
31
0
0
LINE
8
0
6
CONTINUOUS
10
-3.0
20
-53.01
30
0
11
3.0
21
-53.01
31
0
0
LINE
8
0
6
CONTINUOUS
10
2.25
20
-52.9
30
0
11
3.0
21
-52.26
31
0
0
LINE
8
0
6
CONTINUOUS
10
-3.0
20
-53.65
30
0
11
-2.25
21
-53.01
31
0
0
LINE
8
0
6
CONTINUOUS
10
3.0
20
-52.26
30
0
11
-3.0
21
-53.65
31
0
0
LINE
8
0
6
CONTINUOUS
10
3.0
20
-54.09
30
0
11
3.0
21
-56.17
31
0
0
LINE
8
0
6
CONTINUOUS
10
-3.0
20
-54.09
30
0
11
-3.0
21
-56.17
31
0
0
LINE
8
0
6
CONTINUOUS
10
0.0
20
-56.17
30
0
11
0.0
21
-54.09
31
0
0
LINE
8
0
6
CONTINUOUS
10
-3.0
20
-55.18
30
0
11
3.0
21
-55.18
31
0
0
LINE
8
0
6
CONTINUOUS
10
2.25
20
-55.07
30
0
11
3.0
21
-54.43
31
0
0
LINE
8
0
6
CONTINUOUS
10
-3.0
20
-55.82
30
0
11
-2.25
21
-55.18
31
0
0
LINE
8
0
6
CONTINUOUS
10
3.0
20
-54.43
30
0
11
-3.0
21
-55.82
31
0
0
LINE
8
0
6
CONTINUOUS
10
3.0
20
-56.26
30
0
11
3.0
21
-58.34
31
0
0
LINE
8
0
6
CONTINUOUS
10
-3.0
20
-56.26
30
0
11
-3.0
21
-58.34
31
0
0
LINE
8
0
6
CONTINUOUS
10
0.0
20
-58.34
30
0
11
0.0
21
-56.26
31
0
0
LINE
8
0
6
CONTINUOUS
10
-3.0
20
-57.35
30
0
11
3.0
21
-57.35
31
0
0
LINE
8
0
6
CONTINUOUS
10
2.25
20
-57.24
30
0
11
3.0
21
-56.6
31
0
0
LINE
8
0
6
CONTINUOUS
10
-3.0
20
-57.99
30
0
11
-2.25
21
-57.35
31
0
0
LINE
8
0
6
CONTINUOUS
10
3.0
20
-56.6
30
0
11
-3.0
21
-57.99
31
0
0
LINE
8
0
6
CONTINUOUS
10
3.0
20
-58.43
30
0
11
3.0
21
-60.51
31
0
0
LINE
8
0
6
CONTINUOUS
10
-3.0
20
-58.43
30
0
11
-3.0
21
-60.51
31
0
0
LINE
8
0
6
CONTINUOUS
10
0.0
20
-60.51
30
0
11
0.0
21
-58.43
31
0
0
LINE
8
0
6
CONTINUOUS
10
-3.0
20
-59.52
30
0
11
3.0
21
-59.52
31
0
0
LINE
8
0
6
CONTINUOUS
10
2.25
20
-59.41
30
0
11
3.0
21
-58.77
31
0
0
LINE
8
0
6
CONTINUOUS
10
-3.0
20
-60.16
30
0
11
-2.25
21
-59.52
31
0
0
LINE
8
0
6
CONTINUOUS
10
3.0
20
-58.77
30
0
11
-3.0
21
-60.16
31
0
0
LINE
8
0
6
CONTINUOUS
10
3.0
20
-60.6
30
0
11
3.0
21
-62.68
31
0
0
LINE
8
0
6
CONTINUOUS
10
-3.0
20
-60.6
30
0
11
-3.0
21
-62.68
31
0
0
LINE
8
0
6
CONTINUOUS
10
0.0
20
-62.68
30
0
11
0.0
21
-60.6
31
0
0
LINE
8
0
6
CONTINUOUS
10
-3.0
20
-61.7
30
0
11
3.0
21
-61.7
31
0
0
LINE
8
0
6
CONTINUOUS
10
2.25
20
-61.58
30
0
11
3.0
21
-60.94
31
0
0
LINE
8
0
6
CONTINUOUS
10
-3.0
20
-62.34
30
0
11
-2.25
21
-61.7
31
0
0
LINE
8
0
6
CONTINUOUS
10
3.0
20
-60.94
30
0
11
-3.0
21
-62.34
31
0
0
LINE
8
0
6
CONTINUOUS
10
3.0
20
-62.77
30
0
11
3.0
21
-64.85
31
0
0
LINE
8
0
6
CONTINUOUS
10
-3.0
20
-62.77
30
0
11
-3.0
21
-64.85
31
0
0
LINE
8
0
6
CONTINUOUS
10
0.0
20
-64.85
30
0
11
0.0
21
-62.77
31
0
0
LINE
8
0
6
CONTINUOUS
10
-3.0
20
-63.87
30
0
11
3.0
21
-63.87
31
0
0
LINE
8
0
6
CONTINUOUS
10
2.25
20
-63.75
30
0
11
3.0
21
-63.11
31
0
0
LINE
8
0
6
CONTINUOUS
10
-3.0
20
-64.51
30
0
11
-2.25
21
-63.87
31
0
0
LINE
8
0
6
CONTINUOUS
10
3.0
20
-63.11
30
0
11
-3.0
21
-64.51
31
0
0
LINE
8
0
6
CONTINUOUS
10
3.0
20
-64.94
30
0
11
3.0
21
-67.02
31
0
0
LINE
8
0
6
CONTINUOUS
10
-3.0
20
-64.94
30
0
11
-3.0
21
-67.02
31
0
0
LINE
8
0
6
CONTINUOUS
10
0.0
20
-67.02
30
0
11
0.0
21
-64.94
31
0
0
LINE
8
0
6
CONTINUOUS
10
-3.0
20
-66.04
30
0
11
3.0
21
-66.04
31
0
0
LINE
8
0
6
CONTINUOUS
10
2.25
20
-65.92
30
0
11
3.0
21
-65.28
31
0
0
LINE
8
0
6
CONTINUOUS
10
-3.0
20
-66.68
30
0
11
-2.25
21
-66.04
31
0
0
LINE
8
0
6
CONTINUOUS
10
3.0
20
-65.28
30
0
11
-3.0
21
-66.68
31
0
0
LINE
8
0
6
CONTINUOUS
10
3.0
20
-67.11
30
0
11
3.0
21
-69.19
31
0
0
LINE
8
0
6
CONTINUOUS
10
-3.0
20
-67.11
30
0
11
-3.0
21
-69.19
31
0
0
LINE
8
0
6
CONTINUOUS
10
0.0
20
-69.19
30
0
11
0.0
21
-67.11
31
0
0
LINE
8
0
6
CONTINUOUS
10
-3.0
20
-68.21
30
0
11
3.0
21
-68.21
31
0
0
LINE
8
0
6
CONTINUOUS
10
2.25
20
-68.09
30
0
11
3.0
21
-67.45
31
0
0
LINE
8
0
6
CONTINUOUS
10
-3.0
20
-68.85
30
0
11
-2.25
21
-68.21
31
0
0
LINE
8
0
6
CONTINUOUS
10
3.0
20
-67.45
30
0
11
-3.0
21
-68.85
31
0
0
LINE
8
0
6
CONTINUOUS
10
3.0
20
-69.28
30
0
11
3.0
21
-71.36
31
0
0
LINE
8
0
6
CONTINUOUS
10
-3.0
20
-69.28
30
0
11
-3.0
21
-71.36
31
0
0
LINE
8
0
6
CONTINUOUS
10
0.0
20
-71.36
30
0
11
0.0
21
-69.28
31
0
0
LINE
8
0
6
CONTINUOUS
10
-3.0
20
-70.38
30
0
11
3.0
21
-70.38
31
0
0
LINE
8
0
6
CONTINUOUS
10
2.25
20
-70.26
30
0
11
3.0
21
-69.62
31
0
0
LINE
8
0
6
CONTINUOUS
10
-3.0
20
-71.02
30
0
11
-2.25
21
-70.38
31
0
0
LINE
8
0
6
CONTINUOUS
10
3.0
20
-69.62
30
0
11
-3.0
21
-71.02
31
0
0
LINE
8
0
6
CONTINUOUS
10
3.0
20
-71.45
30
0
11
3.0
21
-73.53
31
0
0
LINE
8
0
6
CONTINUOUS
10
-3.0
20
-71.45
30
0
11
-3.0
21
-73.53
31
0
0
LINE
8
0
6
CONTINUOUS
10
0.0
20
-73.53
30
0
11
0.0
21
-71.45
31
0
0
LINE
8
0
6
CONTINUOUS
10
-3.0
20
-72.55
30
0
11
3.0
21
-72.55
31
0
0
LINE
8
0
6
CONTINUOUS
10
2.25
20
-72.43
30
0
11
3.0
21
-71.79
31
0
0
LINE
8
0
6
CONTINUOUS
10
-3.0
20
-73.19
30
0
11
-2.25
21
-72.55
31
0
0
LINE
8
0
6
CONTINUOUS
10
3.0
20
-71.79
30
0
11
-3.0
21
-73.19
31
0
0
LINE
8
0
6
CONTINUOUS
10
3.0
20
-73.63
30
0
11
3.0
21
-75.71
31
0
0
LINE
8
0
6
CONTINUOUS
10
-3.0
20
-73.63
30
0
11
-3.0
21
-75.71
31
0
0
LINE
8
0
6
CONTINUOUS
10
0.0
20
-75.71
30
0
11
0.0
21
-73.63
31
0
0
LINE
8
0
6
CONTINUOUS
10
-3.0
20
-74.72
30
0
11
3.0
21
-74.72
31
0
0
LINE
8
0
6
CONTINUOUS
10
2.25
20
-74.6
30
0
11
3.0
21
-73.96
31
0
0
LINE
8
0
6
CONTINUOUS
10
-3.0
20
-75.36
30
0
11
-2.25
21
-74.72
31
0
0
LINE
8
0
6
CONTINUOUS
10
3.0
20
-73.96
30
0
11
-3.0
21
-75.36
31
0
0
LINE
8
0
6
CONTINUOUS
10
3.0
20
-75.8
30
0
11
3.0
21
-77.88
31
0
0
LINE
8
0
6
CONTINUOUS
10
-3.0
20
-75.8
30
0
11
-3.0
21
-77.88
31
0
0
LINE
8
0
6
CONTINUOUS
10
0.0
20
-77.88
30
0
11
0.0
21
-75.8
31
0
0
LINE
8
0
6
CONTINUOUS
10
-3.0
20
-76.89
30
0
11
3.0
21
-76.89
31
0
0
LINE
8
0
6
CONTINUOUS
10
2.25
20
-76.77
30
0
11
3.0
21
-76.13
31
0
0
LINE
8
0
6
CONTINUOUS
10
-3.0
20
-77.53
30
0
11
-2.25
21
-76.89
31
0
0
LINE
8
0
6
CONTINUOUS
10
3.0
20
-76.13
30
0
11
-3.0
21
-77.53
31
0
0
LINE
8
0
6
CONTINUOUS
10
3.0
20
-77.97
30
0
11
3.0
21
-80.05
31
0
0
LINE
8
0
6
CONTINUOUS
10
-3.0
20
-77.97
30
0
11
-3.0
21
-80.05
31
0
0
LINE
8
0
6
CONTINUOUS
10
0.0
20
-80.05
30
0
11
0.0
21
-77.97
31
0
0
LINE
8
0
6
CONTINUOUS
10
-3.0
20
-79.06
30
0
11
3.0
21
-79.06
31
0
0
LINE
8
0
6
CONTINUOUS
10
2.25
20
-78.94
30
0
11
3.0
21
-78.3
31
0
0
LINE
8
0
6
CONTINUOUS
10
-3.0
20
-79.7
30
0
11
-2.25
21
-79.06
31
0
0
LINE
8
0
6
CONTINUOUS
10
3.0
20
-78.3
30
0
11
-3.0
21
-79.7
31
0
0
LINE
8
0
6
CONTINUOUS
10
3.0
20
-80.14
30
0
11
3.0
21
-82.22
31
0
0
LINE
8
0
6
CONTINUOUS
10
-3.0
20
-80.14
30
0
11
-3.0
21
-82.22
31
0
0
LINE
8
0
6
CONTINUOUS
10
0.0
20
-82.22
30
0
11
0.0
21
-80.14
31
0
0
LINE
8
0
6
CONTINUOUS
10
-3.0
20
-81.23
30
0
11
3.0
21
-81.23
31
0
0
LINE
8
0
6
CONTINUOUS
10
2.25
20
-81.11
30
0
11
3.0
21
-80.47
31
0
0
LINE
8
0
6
CONTINUOUS
10
-3.0
20
-81.87
30
0
11
-2.25
21
-81.23
31
0
0
LINE
8
0
6
CONTINUOUS
10
3.0
20
-80.47
30
0
11
-3.0
21
-81.87
31
0
0
LINE
8
0
6
CONTINUOUS
10
3.0
20
-82.31
30
0
11
3.0
21
-84.39
31
0
0
LINE
8
0
6
CONTINUOUS
10
-3.0
20
-82.31
30
0
11
-3.0
21
-84.39
31
0
0
LINE
8
0
6
CONTINUOUS
10
0.0
20
-84.39
30
0
11
0.0
21
-82.31
31
0
0
LINE
8
0
6
CONTINUOUS
10
-3.0
20
-83.4
30
0
11
3.0
21
-83.4
31
0
0
LINE
8
0
6
CONTINUOUS
10
2.25
20
-83.28
30
0
11
3.0
21
-82.64
31
0
0
LINE
8
0
6
CONTINUOUS
10
-3.0
20
-84.04
30
0
11
-2.25
21
-83.4
31
0
0
LINE
8
0
6
CONTINUOUS
10
3.0
20
-82.64
30
0
11
-3.0
21
-84.04
31
0
0
LINE
8
0
6
CONTINUOUS
10
3.0
20
-84.48
30
0
11
3.0
21
-86.56
31
0
0
LINE
8
0
6
CONTINUOUS
10
-3.0
20
-84.48
30
0
11
-3.0
21
-86.56
31
0
0
LINE
8
0
6
CONTINUOUS
10
0.0
20
-86.56
30
0
11
0.0
21
-84.48
31
0
0
LINE
8
0
6
CONTINUOUS
10
-3.0
20
-85.57
30
0
11
3.0
21
-85.57
31
0
0
LINE
8
0
6
CONTINUOUS
10
2.25
20
-85.45
30
0
11
3.0
21
-84.81
31
0
0
LINE
8
0
6
CONTINUOUS
10
-3.0
20
-86.21
30
0
11
-2.25
21
-85.57
31
0
0
LINE
8
0
6
CONTINUOUS
10
3.0
20
-84.81
30
0
11
-3.0
21
-86.21
31
0
0
LINE
8
0
6
CONTINUOUS
10
3.0
20
-86.65
30
0
11
3.0
21
-88.73
31
0
0
LINE
8
0
6
CONTINUOUS
10
-3.0
20
-86.65
30
0
11
-3.0
21
-88.73
31
0
0
LINE
8
0
6
CONTINUOUS
10
0.0
20
-88.73
30
0
11
0.0
21
-86.65
31
0
0
LINE
8
0
6
CONTINUOUS
10
-3.0
20
-87.74
30
0
11
3.0
21
-87.74
31
0
0
LINE
8
0
6
CONTINUOUS
10
2.25
20
-87.63
30
0
11
3.0
21
-86.99
31
0
0
LINE
8
0
6
CONTINUOUS
10
-3.0
20
-88.38
30
0
11
-2.25
21
-87.74
31
0
0
LINE
8
0
6
CONTINUOUS
10
3.0
20
-86.99
30
0
11
-3.0
21
-88.38
31
0
0
LINE
8
0
6
CONTINUOUS
10
3.0
20
-88.82
30
0
11
3.0
21
-90.9
31
0
0
LINE
8
0
6
CONTINUOUS
10
-3.0
20
-88.82
30
0
11
-3.0
21
-90.9
31
0
0
LINE
8
0
6
CONTINUOUS
10
0.0
20
-90.9
30
0
11
0.0
21
-88.82
31
0
0
LINE
8
0
6
CONTINUOUS
10
-3.0
20
-89.91
30
0
11
3.0
21
-89.91
31
0
0
LINE
8
0
6
CONTINUOUS
10
2.25
20
-89.8
30
0
11
3.0
21
-89.16
31
0
0
LINE
8
0
6
CONTINUOUS
10
-3.0
20
-90.55
30
0
11
-2.25
21
-89.91
31
0
0
LINE
8
0
6
CONTINUOUS
10
3.0
20
-89.16
30
0
11
-3.0
21
-90.55
31
0
0
LINE
8
0
6
CONTINUOUS
10
3.0
20
-90.99
30
0
11
3.0
21
-93.07
31
0
0
LINE
8
0
6
CONTINUOUS
10
-3.0
20
-90.99
30
0
11
-3.0
21
-93.07
31
0
0
LINE
8
0
6
CONTINUOUS
10
0.0
20
-93.07
30
0
11
0.0
21
-90.99
31
0
0
LINE
8
0
6
CONTINUOUS
10
-3.0
20
-92.08
30
0
11
3.0
21
-92.08
31
0
0
LINE
8
0
6
CONTINUOUS
10
2.25
20
-91.97
30
0
11
3.0
21
-91.33
31
0
0
LINE
8
0
6
CONTINUOUS
10
-3.0
20
-92.72
30
0
11
-2.25
21
-92.08
31
0
0
LINE
8
0
6
CONTINUOUS
10
3.0
20
-91.33
30
0
11
-3.0
21
-92.72
31
0
0
LINE
8
0
6
CONTINUOUS
10
-2.0
20
-3.55
30
0
11
-2.0
21
0.0
31
0
0
LINE
8
0
6
CONTINUOUS
10
2.0
20
-3.55
30
0
11
2.0
21
0.0
31
0
0
ENDSEC
0
EOF