0
SECTION
2
HEADER
0
ENDSEC
0
SECTION
2
TABLES
0
TABLE
2
LTYPE
70
3
0
LTYPE
2
CONTINUOUS
70
0
3
Solid line
72
65
73
0
40
0.0
0
LTYPE
2
CENTER
70
0
3
center
72
65
73
4
40
28.575
49
12.7
49
-6.35
49
3.175
49
-6.35
0
ENDTAB
0
TABLE
2
LAYER
70
1
0
LAYER
2
0
70
0
62
7
6
CONTINUOUS
0
ENDTAB
0
ENDSEC
0
SECTION
2
ENTITIES
0
LINE
8
0
6
CONTINUOUS
10
35.0
20
-94.37
30
0
11
35.0
21
93.46
31
0
0
LINE
8
0
6
CONTINUOUS
10
54.88
20
-94.37
30
0
11
54.88
21
93.46
31
0
0
LINE
8
0
6
CONTINUOUS
10
11.0
20
-94.37
30
0
11
11.0
21
93.46
31
0
0
LINE
8
0
6
CONTINUOUS
10
-5.0
20
79.0
30
0
11
70.0
21
79.0
31
0
0
LINE
8
0
6
CONTINUOUS
10
70.0
20
-79.0
30
0
11
-5.0
21
-79.0
31
0
0
LINE
8
0
6
CONTINUOUS
10
8.0
20
93.46
30
0
11
8.0
21
-94.37
31
0
0
LINE
8
0
6
CONTINUOUS
10
70.0
20
93.46
30
0
11
70.0
21
-94.37
31
0
0
LINE
8
0
6
CONTINUOUS
10
70.0
20
-90.0
30
0
11
-5.0
21
-90.0
31
0
0
LINE
8
0
6
CONTINUOUS
10
70.0
20
90.0
30
0
11
-5.0
21
90.0
31
0
0
LINE
8
0
6
CONTINUOUS
10
0.0
20
-94.37
30
0
11
0.0
21
93.46
31
0
0
LINE
8
0
6
CONTINUOUS
10
-5.0
20
0.0
30
0
11
70.0
21
0.0
31
0
0
LINE
8
0
6
CONTINUOUS
10
70.0
20
90.0
30
0
11
0.0
21
90.0
31
0
0
LINE
8
0
6
CONTINUOUS
10
0.0
20
90.0
30
0
11
0.0
21
-90.0
31
0
0
LINE
8
0
6
CONTINUOUS
10
0.0
20
-90.0
30
0
11
70.0
21
-90.0
31
0
0
LINE
8
0
6
CONTINUOUS
10
70.0
20
-90.0
30
0
11
70.0
21
-86.88
31
0
0
ARC
8
0
6
CONTINUOUS
10
64.50000051139916
20
-86.8823717905694
30
0
40
5.5
50
0.024707926132242947
51
85.41143960880136
0
LINE
8
0
6
CONTINUOUS
10
64.94
20
-81.4
30
0
11
35.0
21
-79.0
31
0
0
LINE
8
0
6
CONTINUOUS
10
35.0
20
-79.0
30
0
11
18.12
21
-77.65
31
0
0
ARC
8
0
6
CONTINUOUS
10
18.99999874410254
20
-66.68525640015336
30
0
40
11.0
50
179.97262094948354
51
265.4114408268505
0
LINE
8
0
6
CONTINUOUS
10
8.0
20
-66.68
30
0
11
8.0
21
66.68
31
0
0
ARC
8
0
6
CONTINUOUS
10
18.99999874410254
20
66.68525640015336
30
0
40
11.0
50
94.58855917314955
51
180.02737905051646
0
LINE
8
0
6
CONTINUOUS
10
18.12
20
77.65
30
0
11
35.0
21
79.0
31
0
0
LINE
8
0
6
CONTINUOUS
10
35.0
20
79.0
30
0
11
64.94
21
81.4
31
0
0
ARC
8
0
6
CONTINUOUS
10
64.50000051139916
20
86.8823717905694
30
0
40
5.5
50
274.58856039119865
51
359.97529207386776
0
LINE
8
0
6
CONTINUOUS
10
70.0
20
86.88
30
0
11
70.0
21
90.0
31
0
0
LINE
8
0
6
CENTER
10
-5.0
20
0.0
30
0
11
70.0
21
0.0
31
0
0
LINE
8
0
6
CENTER
10
19.2
20
93.46
30
0
11
19.2
21
-94.37
31
0
0
ENDSEC
0
EOF