0
SECTION
2
HEADER
0
ENDSEC
0
SECTION
2
TABLES
0
TABLE
2
LTYPE
70
3
0
LTYPE
2
CONTINUOUS
70
0
3
Solid line
72
65
73
0
40
0.0
0
LTYPE
2
CENTER
70
0
3
center
72
65
73
4
40
28.575
49
12.7
49
-6.35
49
3.175
49
-6.35
0
ENDTAB
0
TABLE
2
LAYER
70
1
0
LAYER
2
0
70
0
62
7
6
CONTINUOUS
0
ENDTAB
0
ENDSEC
0
SECTION
2
ENTITIES
0
LINE
8
0
6
CONTINUOUS
10
-44.4
20
-30.0
30
0
11
-44.4
21
30.0
31
0
0
LINE
8
0
6
CONTINUOUS
10
-50.0
20
-30.0
30
0
11
-50.0
21
30.0
31
0
0
LINE
8
0
6
CONTINUOUS
10
44.4
20
30.0
30
0
11
44.4
21
-30.0
31
0
0
LINE
8
0
6
CONTINUOUS
10
50.0
20
30.0
30
0
11
50.0
21
-30.0
31
0
0
LINE
8
0
6
CONTINUOUS
10
55.0
20
19.4
30
0
11
-55.0
21
19.4
31
0
0
LINE
8
0
6
CONTINUOUS
10
55.0
20
-19.4
30
0
11
-55.0
21
-19.4
31
0
0
LINE
8
0
6
CONTINUOUS
10
55.0
20
-25.0
30
0
11
-55.0
21
-25.0
31
0
0
LINE
8
0
6
CONTINUOUS
10
55.0
20
25.0
30
0
11
-55.0
21
25.0
31
0
0
LINE
8
0
6
CONTINUOUS
10
0.0
20
-30.0
30
0
11
0.0
21
30.0
31
0
0
LINE
8
0
6
CONTINUOUS
10
-55.0
20
0.0
30
0
11
55.0
21
0.0
31
0
0
ARC
8
0
6
CONTINUOUS
10
37.5
20
12.499999999999998
30
0
40
6.9
50
1.4750398522729356e-14
51
90.0
0
LINE
8
0
6
CONTINUOUS
10
44.4
20
12.5
30
0
11
44.4
21
-12.5
31
0
0
ARC
8
0
6
CONTINUOUS
10
37.5
20
-12.499999999999998
30
0
40
6.9
50
270.0
51
360.0
0
LINE
8
0
6
CONTINUOUS
10
37.5
20
-19.4
30
0
11
-37.5
21
-19.4
31
0
0
ARC
8
0
6
CONTINUOUS
10
-37.5
20
-12.499999999999998
30
0
40
6.9
50
180.0
51
270.0
0
LINE
8
0
6
CONTINUOUS
10
-44.4
20
-12.5
30
0
11
-44.4
21
12.5
31
0
0
ARC
8
0
6
CONTINUOUS
10
-37.5
20
12.499999999999998
30
0
40
6.9
50
90.0
51
180.0
0
LINE
8
0
6
CONTINUOUS
10
-37.5
20
19.4
30
0
11
37.5
21
19.4
31
0
0
ARC
8
0
6
CONTINUOUS
10
41.599999999999994
20
16.6
30
0
40
8.4
50
0.0
51
89.99999999999994
0
LINE
8
0
6
CONTINUOUS
10
41.6
20
25.0
30
0
11
-41.6
21
25.0
31
0
0
ARC
8
0
6
CONTINUOUS
10
-41.599999999999994
20
16.6
30
0
40
8.4
50
90.00000000000006
51
180.0
0
LINE
8
0
6
CONTINUOUS
10
-50.0
20
16.6
30
0
11
-50.0
21
-16.6
31
0
0
ARC
8
0
6
CONTINUOUS
10
-41.599999999999994
20
-16.6
30
0
40
8.4
50
180.0
51
269.99999999999994
0
LINE
8
0
6
CONTINUOUS
10
-41.6
20
-25.0
30
0
11
41.6
21
-25.0
31
0
0
ARC
8
0
6
CONTINUOUS
10
41.599999999999994
20
-16.6
30
0
40
8.4
50
270.00000000000006
51
0.0
0
LINE
8
0
6
CONTINUOUS
10
50.0
20
-16.6
30
0
11
50.0
21
16.6
31
0
0
LINE
8
0
6
CONTINUOUS
10
-41.6
20
25.0
30
0
11
41.6
21
25.0
31
0
0
LINE
8
0
6
CONTINUOUS
10
-50.0
20
-16.6
30
0
11
-50.0
21
16.6
31
0
0
LINE
8
0
6
CONTINUOUS
10
41.6
20
-25.0
30
0
11
-41.6
21
-25.0
31
0
0
LINE
8
0
6
CONTINUOUS
10
50.0
20
16.6
30
0
11
50.0
21
-16.6
31
0
0
LINE
8
0
6
CONTINUOUS
10
-37.5
20
19.4
30
0
11
37.5
21
19.4
31
0
0
LINE
8
0
6
CONTINUOUS
10
-44.4
20
-12.5
30
0
11
-44.4
21
12.5
31
0
0
LINE
8
0
6
CONTINUOUS
10
37.5
20
-19.4
30
0
11
-37.5
21
-19.4
31
0
0
LINE
8
0
6
CONTINUOUS
10
44.4
20
12.5
30
0
11
44.4
21
-12.5
31
0
0
ARC
8
0
6
CONTINUOUS
10
-41.599999999999994
20
16.6
30
0
40
8.4
50
90.00000000000006
51
180.0
0
ARC
8
0
6
CONTINUOUS
10
41.599999999999994
20
16.6
30
0
40
8.4
50
0.0
51
89.99999999999994
0
ARC
8
0
6
CONTINUOUS
10
-41.599999999999994
20
-16.6
30
0
40
8.4
50
180.0
51
269.99999999999994
0
ARC
8
0
6
CONTINUOUS
10
41.599999999999994
20
-16.6
30
0
40
8.4
50
270.00000000000006
51
0.0
0
ARC
8
0
6
CONTINUOUS
10
-37.5
20
12.499999999999998
30
0
40
6.9
50
90.0
51
180.0
0
ARC
8
0
6
CONTINUOUS
10
37.5
20
12.499999999999998
30
0
40
6.9
50
1.4750398522729356e-14
51
90.0
0
ARC
8
0
6
CONTINUOUS
10
37.5
20
-12.499999999999998
30
0
40
6.9
50
270.0
51
360.0
0
ARC
8
0
6
CONTINUOUS
10
-37.5
20
-12.499999999999998
30
0
40
6.9
50
180.0
51
270.0
0
LINE
8
0
6
CENTER
10
-55.0
20
0.0
30
0
11
55.0
21
0.0
31
0
0
LINE
8
0
6
CENTER
10
0.0
20
-30.0
30
0
11
0.0
21
30.0
31
0
0
ENDSEC
0
EOF