0
SECTION
2
HEADER
0
ENDSEC
0
SECTION
2
TABLES
0
TABLE
2
LTYPE
70
3
0
LTYPE
2
CONTINUOUS
70
0
3
Solid line
72
65
73
0
40
0.0
0
LTYPE
2
CENTER
70
0
3
center
72
65
73
4
40
28.575
49
12.7
49
-6.35
49
3.175
49
-6.35
0
ENDTAB
0
TABLE
2
LAYER
70
1
0
LAYER
2
0
70
0
62
7
6
CONTINUOUS
0
ENDTAB
0
ENDSEC
0
SECTION
2
ENTITIES
0
LINE
8
0
6
CONTINUOUS
10
-140.0
20
-155.0
30
0
11
-140.0
21
155.0
31
0
0
LINE
8
0
6
CONTINUOUS
10
-150.0
20
-155.0
30
0
11
-150.0
21
155.0
31
0
0
LINE
8
0
6
CONTINUOUS
10
140.0
20
155.0
30
0
11
140.0
21
-155.0
31
0
0
LINE
8
0
6
CONTINUOUS
10
150.0
20
155.0
30
0
11
150.0
21
-155.0
31
0
0
LINE
8
0
6
CONTINUOUS
10
156.08
20
140.0
30
0
11
-155.0
21
140.0
31
0
0
LINE
8
0
6
CONTINUOUS
10
156.08
20
-140.0
30
0
11
-155.0
21
-140.0
31
0
0
LINE
8
0
6
CONTINUOUS
10
156.08
20
-150.0
30
0
11
-155.0
21
-150.0
31
0
0
LINE
8
0
6
CONTINUOUS
10
156.08
20
150.0
30
0
11
-155.0
21
150.0
31
0
0
LINE
8
0
6
CONTINUOUS
10
0.0
20
-155.0
30
0
11
0.0
21
155.0
31
0
0
LINE
8
0
6
CONTINUOUS
10
-155.0
20
0.0
30
0
11
156.08
21
0.0
31
0
0
ARC
8
0
6
CONTINUOUS
10
126.5
20
126.5
30
0
40
13.5
50
0.0
51
90.0
0
LINE
8
0
6
CONTINUOUS
10
140.0
20
126.5
30
0
11
140.0
21
-126.5
31
0
0
ARC
8
0
6
CONTINUOUS
10
126.5
20
-126.5
30
0
40
13.5
50
270.0
51
0.0
0
LINE
8
0
6
CONTINUOUS
10
126.5
20
-140.0
30
0
11
-126.5
21
-140.0
31
0
0
ARC
8
0
6
CONTINUOUS
10
-126.5
20
-126.5
30
0
40
13.5
50
180.0
51
270.0
0
LINE
8
0
6
CONTINUOUS
10
-140.0
20
-126.5
30
0
11
-140.0
21
126.5
31
0
0
ARC
8
0
6
CONTINUOUS
10
-126.5
20
126.5
30
0
40
13.5
50
90.0
51
180.0
0
LINE
8
0
6
CONTINUOUS
10
-126.5
20
140.0
30
0
11
126.5
21
140.0
31
0
0
ARC
8
0
6
CONTINUOUS
10
135.0
20
135.0
30
0
40
15.0
50
0.0
51
90.0
0
LINE
8
0
6
CONTINUOUS
10
135.0
20
150.0
30
0
11
-135.0
21
150.0
31
0
0
ARC
8
0
6
CONTINUOUS
10
-135.0
20
135.0
30
0
40
15.0
50
90.0
51
180.0
0
LINE
8
0
6
CONTINUOUS
10
-150.0
20
135.0
30
0
11
-150.0
21
-135.0
31
0
0
ARC
8
0
6
CONTINUOUS
10
-135.0
20
-135.0
30
0
40
15.0
50
180.0
51
270.0
0
LINE
8
0
6
CONTINUOUS
10
-135.0
20
-150.0
30
0
11
135.0
21
-150.0
31
0
0
ARC
8
0
6
CONTINUOUS
10
135.0
20
-135.0
30
0
40
15.0
50
270.0
51
0.0
0
LINE
8
0
6
CONTINUOUS
10
150.0
20
-135.0
30
0
11
150.0
21
135.0
31
0
0
LINE
8
0
6
CONTINUOUS
10
-135.0
20
150.0
30
0
11
135.0
21
150.0
31
0
0
LINE
8
0
6
CONTINUOUS
10
-150.0
20
-135.0
30
0
11
-150.0
21
135.0
31
0
0
LINE
8
0
6
CONTINUOUS
10
135.0
20
-150.0
30
0
11
-135.0
21
-150.0
31
0
0
LINE
8
0
6
CONTINUOUS
10
150.0
20
135.0
30
0
11
150.0
21
-135.0
31
0
0
LINE
8
0
6
CONTINUOUS
10
-126.5
20
140.0
30
0
11
126.5
21
140.0
31
0
0
LINE
8
0
6
CONTINUOUS
10
-140.0
20
-126.5
30
0
11
-140.0
21
126.5
31
0
0
LINE
8
0
6
CONTINUOUS
10
126.5
20
-140.0
30
0
11
-126.5
21
-140.0
31
0
0
LINE
8
0
6
CONTINUOUS
10
140.0
20
126.5
30
0
11
140.0
21
-126.5
31
0
0
ARC
8
0
6
CONTINUOUS
10
-135.0
20
135.0
30
0
40
15.0
50
90.0
51
180.0
0
ARC
8
0
6
CONTINUOUS
10
135.0
20
135.0
30
0
40
15.0
50
0.0
51
90.0
0
ARC
8
0
6
CONTINUOUS
10
-135.0
20
-135.0
30
0
40
15.0
50
180.0
51
270.0
0
ARC
8
0
6
CONTINUOUS
10
135.0
20
-135.0
30
0
40
15.0
50
270.0
51
0.0
0
ARC
8
0
6
CONTINUOUS
10
-126.5
20
126.5
30
0
40
13.5
50
90.0
51
180.0
0
ARC
8
0
6
CONTINUOUS
10
126.5
20
126.5
30
0
40
13.5
50
0.0
51
90.0
0
ARC
8
0
6
CONTINUOUS
10
126.5
20
-126.5
30
0
40
13.5
50
270.0
51
0.0
0
ARC
8
0
6
CONTINUOUS
10
-126.5
20
-126.5
30
0
40
13.5
50
180.0
51
270.0
0
LINE
8
0
6
CENTER
10
-155.0
20
0.0
30
0
11
156.08
21
0.0
31
0
0
LINE
8
0
6
CENTER
10
-0.0
20
155.0
30
0
11
-0.0
21
-155.0
31
0
0
ENDSEC
0
EOF