0
SECTION
2
HEADER
0
ENDSEC
0
SECTION
2
TABLES
0
TABLE
2
LTYPE
70
3
0
LTYPE
2
CONTINUOUS
70
0
3
Solid line
72
65
73
0
40
0.0
0
LTYPE
2
CENTER
70
0
3
center
72
65
73
4
40
28.575
49
12.7
49
-6.35
49
3.175
49
-6.35
0
ENDTAB
0
TABLE
2
LAYER
70
1
0
LAYER
2
0
70
0
62
7
6
CONTINUOUS
0
ENDTAB
0
ENDSEC
0
SECTION
2
ENTITIES
0
LINE
8
0
6
CONTINUOUS
10
16.0
20
9.1
30
0
11
16.0
21
-185.9
31
0
0
LINE
8
0
6
CONTINUOUS
10
-16.0
20
9.1
30
0
11
-16.0
21
-185.9
31
0
0
LINE
8
0
6
CONTINUOUS
10
1.52
20
9.1
30
0
11
1.52
21
-185.9
31
0
0
LINE
8
0
6
CONTINUOUS
10
2.26
20
9.1
30
0
11
2.26
21
-185.9
31
0
0
LINE
8
0
6
CONTINUOUS
10
-1.52
20
-185.9
30
0
11
-1.52
21
9.1
31
0
0
LINE
8
0
6
CONTINUOUS
10
-2.26
20
-185.9
30
0
11
-2.26
21
9.1
31
0
0
LINE
8
0
6
CONTINUOUS
10
5.65
20
9.1
30
0
11
5.65
21
-185.9
31
0
0
LINE
8
0
6
CONTINUOUS
10
-5.65
20
9.1
30
0
11
-5.65
21
-185.9
31
0
0
LINE
8
0
6
CONTINUOUS
10
-16.0
20
-175.0
30
0
11
16.0
21
-175.0
31
0
0
LINE
8
0
6
CONTINUOUS
10
-16.0
20
-180.0
30
0
11
16.0
21
-180.0
31
0
0
LINE
8
0
6
CONTINUOUS
10
3.0
20
-185.9
30
0
11
3.0
21
9.1
31
0
0
LINE
8
0
6
CONTINUOUS
10
-3.0
20
9.1
30
0
11
-3.0
21
-185.9
31
0
0
LINE
8
0
6
CONTINUOUS
10
0.0
20
-185.9
30
0
11
0.0
21
9.1
31
0
0
LINE
8
0
6
CONTINUOUS
10
-16.0
20
0.0
30
0
11
16.0
21
0.0
31
0
0
LINE
8
0
6
CONTINUOUS
10
-2.0
20
-4.0
30
0
11
2.03
21
-3.26
31
0
0
ARC
8
0
6
CONTINUOUS
10
3.499997808311271
20
-3.5525641882505097
30
0
40
1.5
50
129.7917105471753
51
179.90205517587594
0
LINE
8
0
6
CONTINUOUS
10
5.4
20
0.0
30
0
11
2.54
21
-2.4
31
0
0
LINE
8
0
6
CONTINUOUS
10
-5.4
20
0.0
30
0
11
5.4
21
0.0
31
0
0
LINE
8
0
6
CONTINUOUS
10
-5.04
20
-0.3
30
0
11
5.04
21
-0.3
31
0
0
LINE
8
0
6
CONTINUOUS
10
-2.54
20
-2.4
30
0
11
-5.4
21
0.0
31
0
0
ARC
8
0
6
CONTINUOUS
10
-3.499997808311271
20
-3.5525641882505097
30
0
40
1.5
50
0.09794482412407453
51
50.2082894528247
0
LINE
8
0
6
CONTINUOUS
10
-2.0
20
-3.55
30
0
11
-2.0
21
-175.0
31
0
0
LINE
8
0
6
CONTINUOUS
10
2.0
20
-175.0
30
0
11
2.0
21
-3.55
31
0
0
LINE
8
0
6
CONTINUOUS
10
-2.0
20
-175.0
30
0
11
-0.0
21
-180.0
31
0
0
LINE
8
0
6
CONTINUOUS
10
-0.0
20
-180.0
30
0
11
2.0
21
-175.0
31
0
0
LINE
8
0
6
CONTINUOUS
10
3.0
20
-8.91
30
0
11
3.0
21
-10.99
31
0
0
LINE
8
0
6
CONTINUOUS
10
-3.0
20
-8.91
30
0
11
-3.0
21
-10.99
31
0
0
LINE
8
0
6
CONTINUOUS
10
0.0
20
-10.99
30
0
11
0.0
21
-8.91
31
0
0
LINE
8
0
6
CONTINUOUS
10
-3.0
20
-10.0
30
0
11
3.0
21
-10.0
31
0
0
LINE
8
0
6
CONTINUOUS
10
2.25
20
-9.88
30
0
11
3.0
21
-9.24
31
0
0
LINE
8
0
6
CONTINUOUS
10
-3.0
20
-10.64
30
0
11
-2.25
21
-10.0
31
0
0
LINE
8
0
6
CONTINUOUS
10
3.0
20
-9.24
30
0
11
-3.0
21
-10.64
31
0
0
LINE
8
0
6
CENTER
10
-0.0
20
9.1
30
0
11
-0.0
21
-185.9
31
0
0
LINE
8
0
6
CONTINUOUS
10
3.0
20
-173.16
30
0
11
3.0
21
-175.24
31
0
0
LINE
8
0
6
CONTINUOUS
10
-3.0
20
-173.16
30
0
11
-3.0
21
-175.24
31
0
0
LINE
8
0
6
CONTINUOUS
10
-0.0
20
-175.24
30
0
11
-0.0
21
-173.16
31
0
0
LINE
8
0
6
CONTINUOUS
10
-3.0
20
-174.25
30
0
11
3.0
21
-174.25
31
0
0
LINE
8
0
6
CONTINUOUS
10
2.25
20
-174.14
30
0
11
3.0
21
-173.5
31
0
0
LINE
8
0
6
CONTINUOUS
10
-3.0
20
-174.89
30
0
11
-2.25
21
-174.25
31
0
0
LINE
8
0
6
CONTINUOUS
10
3.0
20
-173.5
30
0
11
-3.0
21
-174.89
31
0
0
LINE
8
0
6
CONTINUOUS
10
3.0
20
-10.99
30
0
11
3.0
21
-13.07
31
0
0
LINE
8
0
6
CONTINUOUS
10
-3.0
20
-10.99
30
0
11
-3.0
21
-13.07
31
0
0
LINE
8
0
6
CONTINUOUS
10
0.0
20
-13.07
30
0
11
0.0
21
-10.99
31
0
0
LINE
8
0
6
CONTINUOUS
10
-3.0
20
-12.08
30
0
11
3.0
21
-12.08
31
0
0
LINE
8
0
6
CONTINUOUS
10
2.25
20
-11.96
30
0
11
3.0
21
-11.32
31
0
0
LINE
8
0
6
CONTINUOUS
10
-3.0
20
-12.72
30
0
11
-2.25
21
-12.08
31
0
0
LINE
8
0
6
CONTINUOUS
10
3.0
20
-11.32
30
0
11
-3.0
21
-12.72
31
0
0
LINE
8
0
6
CONTINUOUS
10
3.0
20
-13.06
30
0
11
3.0
21
-15.15
31
0
0
LINE
8
0
6
CONTINUOUS
10
-3.0
20
-13.06
30
0
11
-3.0
21
-15.15
31
0
0
LINE
8
0
6
CONTINUOUS
10
0.0
20
-15.15
30
0
11
0.0
21
-13.06
31
0
0
LINE
8
0
6
CONTINUOUS
10
-3.0
20
-14.16
30
0
11
3.0
21
-14.16
31
0
0
LINE
8
0
6
CONTINUOUS
10
2.25
20
-14.04
30
0
11
3.0
21
-13.4
31
0
0
LINE
8
0
6
CONTINUOUS
10
-3.0
20
-14.8
30
0
11
-2.25
21
-14.16
31
0
0
LINE
8
0
6
CONTINUOUS
10
3.0
20
-13.4
30
0
11
-3.0
21
-14.8
31
0
0
LINE
8
0
6
CONTINUOUS
10
3.0
20
-15.14
30
0
11
3.0
21
-17.22
31
0
0
LINE
8
0
6
CONTINUOUS
10
-3.0
20
-15.14
30
0
11
-3.0
21
-17.22
31
0
0
LINE
8
0
6
CONTINUOUS
10
0.0
20
-17.22
30
0
11
0.0
21
-15.14
31
0
0
LINE
8
0
6
CONTINUOUS
10
-3.0
20
-16.24
30
0
11
3.0
21
-16.24
31
0
0
LINE
8
0
6
CONTINUOUS
10
2.25
20
-16.12
30
0
11
3.0
21
-15.48
31
0
0
LINE
8
0
6
CONTINUOUS
10
-3.0
20
-16.88
30
0
11
-2.25
21
-16.24
31
0
0
LINE
8
0
6
CONTINUOUS
10
3.0
20
-15.48
30
0
11
-3.0
21
-16.88
31
0
0
LINE
8
0
6
CONTINUOUS
10
3.0
20
-17.22
30
0
11
3.0
21
-19.3
31
0
0
LINE
8
0
6
CONTINUOUS
10
-3.0
20
-17.22
30
0
11
-3.0
21
-19.3
31
0
0
LINE
8
0
6
CONTINUOUS
10
0.0
20
-19.3
30
0
11
0.0
21
-17.22
31
0
0
LINE
8
0
6
CONTINUOUS
10
-3.0
20
-18.32
30
0
11
3.0
21
-18.32
31
0
0
LINE
8
0
6
CONTINUOUS
10
2.25
20
-18.2
30
0
11
3.0
21
-17.56
31
0
0
LINE
8
0
6
CONTINUOUS
10
-3.0
20
-18.96
30
0
11
-2.25
21
-18.32
31
0
0
LINE
8
0
6
CONTINUOUS
10
3.0
20
-17.56
30
0
11
-3.0
21
-18.96
31
0
0
LINE
8
0
6
CONTINUOUS
10
3.0
20
-19.3
30
0
11
3.0
21
-21.38
31
0
0
LINE
8
0
6
CONTINUOUS
10
-3.0
20
-19.3
30
0
11
-3.0
21
-21.38
31
0
0
LINE
8
0
6
CONTINUOUS
10
0.0
20
-21.38
30
0
11
0.0
21
-19.3
31
0
0
LINE
8
0
6
CONTINUOUS
10
-3.0
20
-20.4
30
0
11
3.0
21
-20.4
31
0
0
LINE
8
0
6
CONTINUOUS
10
2.25
20
-20.28
30
0
11
3.0
21
-19.64
31
0
0
LINE
8
0
6
CONTINUOUS
10
-3.0
20
-21.04
30
0
11
-2.25
21
-20.4
31
0
0
LINE
8
0
6
CONTINUOUS
10
3.0
20
-19.64
30
0
11
-3.0
21
-21.04
31
0
0
LINE
8
0
6
CONTINUOUS
10
3.0
20
-21.38
30
0
11
3.0
21
-23.46
31
0
0
LINE
8
0
6
CONTINUOUS
10
-3.0
20
-21.38
30
0
11
-3.0
21
-23.46
31
0
0
LINE
8
0
6
CONTINUOUS
10
0.0
20
-23.46
30
0
11
0.0
21
-21.38
31
0
0
LINE
8
0
6
CONTINUOUS
10
-3.0
20
-22.47
30
0
11
3.0
21
-22.47
31
0
0
LINE
8
0
6
CONTINUOUS
10
2.25
20
-22.36
30
0
11
3.0
21
-21.72
31
0
0
LINE
8
0
6
CONTINUOUS
10
-3.0
20
-23.11
30
0
11
-2.25
21
-22.47
31
0
0
LINE
8
0
6
CONTINUOUS
10
3.0
20
-21.72
30
0
11
-3.0
21
-23.11
31
0
0
LINE
8
0
6
CONTINUOUS
10
3.0
20
-23.46
30
0
11
3.0
21
-25.54
31
0
0
LINE
8
0
6
CONTINUOUS
10
-3.0
20
-23.46
30
0
11
-3.0
21
-25.54
31
0
0
LINE
8
0
6
CONTINUOUS
10
0.0
20
-25.54
30
0
11
0.0
21
-23.46
31
0
0
LINE
8
0
6
CONTINUOUS
10
-3.0
20
-24.55
30
0
11
3.0
21
-24.55
31
0
0
LINE
8
0
6
CONTINUOUS
10
2.25
20
-24.44
30
0
11
3.0
21
-23.8
31
0
0
LINE
8
0
6
CONTINUOUS
10
-3.0
20
-25.19
30
0
11
-2.25
21
-24.55
31
0
0
LINE
8
0
6
CONTINUOUS
10
3.0
20
-23.8
30
0
11
-3.0
21
-25.19
31
0
0
LINE
8
0
6
CONTINUOUS
10
3.0
20
-25.54
30
0
11
3.0
21
-27.62
31
0
0
LINE
8
0
6
CONTINUOUS
10
-3.0
20
-25.54
30
0
11
-3.0
21
-27.62
31
0
0
LINE
8
0
6
CONTINUOUS
10
0.0
20
-27.62
30
0
11
0.0
21
-25.54
31
0
0
LINE
8
0
6
CONTINUOUS
10
-3.0
20
-26.63
30
0
11
3.0
21
-26.63
31
0
0
LINE
8
0
6
CONTINUOUS
10
2.25
20
-26.52
30
0
11
3.0
21
-25.88
31
0
0
LINE
8
0
6
CONTINUOUS
10
-3.0
20
-27.27
30
0
11
-2.25
21
-26.63
31
0
0
LINE
8
0
6
CONTINUOUS
10
3.0
20
-25.88
30
0
11
-3.0
21
-27.27
31
0
0
LINE
8
0
6
CONTINUOUS
10
3.0
20
-27.62
30
0
11
3.0
21
-29.7
31
0
0
LINE
8
0
6
CONTINUOUS
10
-3.0
20
-27.62
30
0
11
-3.0
21
-29.7
31
0
0
LINE
8
0
6
CONTINUOUS
10
0.0
20
-29.7
30
0
11
0.0
21
-27.62
31
0
0
LINE
8
0
6
CONTINUOUS
10
-3.0
20
-28.71
30
0
11
3.0
21
-28.71
31
0
0
LINE
8
0
6
CONTINUOUS
10
2.25
20
-28.6
30
0
11
3.0
21
-27.96
31
0
0
LINE
8
0
6
CONTINUOUS
10
-3.0
20
-29.35
30
0
11
-2.25
21
-28.71
31
0
0
LINE
8
0
6
CONTINUOUS
10
3.0
20
-27.96
30
0
11
-3.0
21
-29.35
31
0
0
LINE
8
0
6
CONTINUOUS
10
3.0
20
-29.7
30
0
11
3.0
21
-31.78
31
0
0
LINE
8
0
6
CONTINUOUS
10
-3.0
20
-29.7
30
0
11
-3.0
21
-31.78
31
0
0
LINE
8
0
6
CONTINUOUS
10
0.0
20
-31.78
30
0
11
0.0
21
-29.7
31
0
0
LINE
8
0
6
CONTINUOUS
10
-3.0
20
-30.79
30
0
11
3.0
21
-30.79
31
0
0
LINE
8
0
6
CONTINUOUS
10
2.25
20
-30.67
30
0
11
3.0
21
-30.03
31
0
0
LINE
8
0
6
CONTINUOUS
10
-3.0
20
-31.43
30
0
11
-2.25
21
-30.79
31
0
0
LINE
8
0
6
CONTINUOUS
10
3.0
20
-30.03
30
0
11
-3.0
21
-31.43
31
0
0
LINE
8
0
6
CONTINUOUS
10
2.26
20
-175.36
30
0
11
2.26
21
-176.92
31
0
0
LINE
8
0
6
CONTINUOUS
10
-2.26
20
-175.36
30
0
11
-2.26
21
-176.92
31
0
0
LINE
8
0
6
CONTINUOUS
10
-0.0
20
-176.92
30
0
11
-0.0
21
-175.36
31
0
0
LINE
8
0
6
CONTINUOUS
10
-2.26
20
-176.02
30
0
11
2.26
21
-176.02
31
0
0
LINE
8
0
6
CONTINUOUS
10
1.51
20
-176.25
30
0
11
2.26
21
-175.61
31
0
0
LINE
8
0
6
CONTINUOUS
10
-2.26
20
-176.66
30
0
11
-1.51
21
-176.02
31
0
0
LINE
8
0
6
CONTINUOUS
10
2.26
20
-175.61
30
0
11
-2.26
21
-176.66
31
0
0
LINE
8
0
6
CONTINUOUS
10
1.52
20
-177.84
30
0
11
1.52
21
-178.9
31
0
0
LINE
8
0
6
CONTINUOUS
10
-1.52
20
-177.84
30
0
11
-1.52
21
-178.9
31
0
0
LINE
8
0
6
CONTINUOUS
10
-0.0
20
-178.9
30
0
11
-0.0
21
-177.84
31
0
0
LINE
8
0
6
CONTINUOUS
10
-1.52
20
-178.07
30
0
11
1.52
21
-178.07
31
0
0
LINE
8
0
6
CONTINUOUS
10
0.77
20
-178.64
30
0
11
1.52
21
-178.0
31
0
0
LINE
8
0
6
CONTINUOUS
10
-1.52
20
-178.71
30
0
11
-0.77
21
-178.07
31
0
0
LINE
8
0
6
CONTINUOUS
10
1.52
20
-178.0
30
0
11
-1.52
21
-178.71
31
0
0
LINE
8
0
6
CONTINUOUS
10
3.0
20
-31.78
30
0
11
3.0
21
-33.86
31
0
0
LINE
8
0
6
CONTINUOUS
10
-3.0
20
-31.78
30
0
11
-3.0
21
-33.86
31
0
0
LINE
8
0
6
CONTINUOUS
10
0.0
20
-33.86
30
0
11
0.0
21
-31.78
31
0
0
LINE
8
0
6
CONTINUOUS
10
-3.0
20
-32.87
30
0
11
3.0
21
-32.87
31
0
0
LINE
8
0
6
CONTINUOUS
10
2.25
20
-32.75
30
0
11
3.0
21
-32.11
31
0
0
LINE
8
0
6
CONTINUOUS
10
-3.0
20
-33.51
30
0
11
-2.25
21
-32.87
31
0
0
LINE
8
0
6
CONTINUOUS
10
3.0
20
-32.11
30
0
11
-3.0
21
-33.51
31
0
0
LINE
8
0
6
CONTINUOUS
10
3.0
20
-33.86
30
0
11
3.0
21
-35.94
31
0
0
LINE
8
0
6
CONTINUOUS
10
-3.0
20
-33.86
30
0
11
-3.0
21
-35.94
31
0
0
LINE
8
0
6
CONTINUOUS
10
0.0
20
-35.94
30
0
11
0.0
21
-33.86
31
0
0
LINE
8
0
6
CONTINUOUS
10
-3.0
20
-34.95
30
0
11
3.0
21
-34.95
31
0
0
LINE
8
0
6
CONTINUOUS
10
2.25
20
-34.83
30
0
11
3.0
21
-34.19
31
0
0
LINE
8
0
6
CONTINUOUS
10
-3.0
20
-35.59
30
0
11
-2.25
21
-34.95
31
0
0
LINE
8
0
6
CONTINUOUS
10
3.0
20
-34.19
30
0
11
-3.0
21
-35.59
31
0
0
LINE
8
0
6
CONTINUOUS
10
3.0
20
-35.94
30
0
11
3.0
21
-38.02
31
0
0
LINE
8
0
6
CONTINUOUS
10
-3.0
20
-35.94
30
0
11
-3.0
21
-38.02
31
0
0
LINE
8
0
6
CONTINUOUS
10
0.0
20
-38.02
30
0
11
0.0
21
-35.94
31
0
0
LINE
8
0
6
CONTINUOUS
10
-3.0
20
-37.03
30
0
11
3.0
21
-37.03
31
0
0
LINE
8
0
6
CONTINUOUS
10
2.25
20
-36.91
30
0
11
3.0
21
-36.27
31
0
0
LINE
8
0
6
CONTINUOUS
10
-3.0
20
-37.67
30
0
11
-2.25
21
-37.03
31
0
0
LINE
8
0
6
CONTINUOUS
10
3.0
20
-36.27
30
0
11
-3.0
21
-37.67
31
0
0
LINE
8
0
6
CONTINUOUS
10
3.0
20
-38.01
30
0
11
3.0
21
-40.1
31
0
0
LINE
8
0
6
CONTINUOUS
10
-3.0
20
-38.01
30
0
11
-3.0
21
-40.1
31
0
0
LINE
8
0
6
CONTINUOUS
10
0.0
20
-40.1
30
0
11
0.0
21
-38.01
31
0
0
LINE
8
0
6
CONTINUOUS
10
-3.0
20
-39.11
30
0
11
3.0
21
-39.11
31
0
0
LINE
8
0
6
CONTINUOUS
10
2.25
20
-38.99
30
0
11
3.0
21
-38.35
31
0
0
LINE
8
0
6
CONTINUOUS
10
-3.0
20
-39.75
30
0
11
-2.25
21
-39.11
31
0
0
LINE
8
0
6
CONTINUOUS
10
3.0
20
-38.35
30
0
11
-3.0
21
-39.75
31
0
0
LINE
8
0
6
CONTINUOUS
10
3.0
20
-40.09
30
0
11
3.0
21
-42.17
31
0
0
LINE
8
0
6
CONTINUOUS
10
-3.0
20
-40.09
30
0
11
-3.0
21
-42.17
31
0
0
LINE
8
0
6
CONTINUOUS
10
0.0
20
-42.17
30
0
11
0.0
21
-40.09
31
0
0
LINE
8
0
6
CONTINUOUS
10
-3.0
20
-41.19
30
0
11
3.0
21
-41.19
31
0
0
LINE
8
0
6
CONTINUOUS
10
2.25
20
-41.07
30
0
11
3.0
21
-40.43
31
0
0
LINE
8
0
6
CONTINUOUS
10
-3.0
20
-41.83
30
0
11
-2.25
21
-41.19
31
0
0
LINE
8
0
6
CONTINUOUS
10
3.0
20
-40.43
30
0
11
-3.0
21
-41.83
31
0
0
LINE
8
0
6
CONTINUOUS
10
3.0
20
-42.17
30
0
11
3.0
21
-44.25
31
0
0
LINE
8
0
6
CONTINUOUS
10
-3.0
20
-42.17
30
0
11
-3.0
21
-44.25
31
0
0
LINE
8
0
6
CONTINUOUS
10
0.0
20
-44.25
30
0
11
0.0
21
-42.17
31
0
0
LINE
8
0
6
CONTINUOUS
10
-3.0
20
-43.27
30
0
11
3.0
21
-43.27
31
0
0
LINE
8
0
6
CONTINUOUS
10
2.25
20
-43.15
30
0
11
3.0
21
-42.51
31
0
0
LINE
8
0
6
CONTINUOUS
10
-3.0
20
-43.91
30
0
11
-2.25
21
-43.27
31
0
0
LINE
8
0
6
CONTINUOUS
10
3.0
20
-42.51
30
0
11
-3.0
21
-43.91
31
0
0
LINE
8
0
6
CONTINUOUS
10
3.0
20
-44.25
30
0
11
3.0
21
-46.33
31
0
0
LINE
8
0
6
CONTINUOUS
10
-3.0
20
-44.25
30
0
11
-3.0
21
-46.33
31
0
0
LINE
8
0
6
CONTINUOUS
10
0.0
20
-46.33
30
0
11
0.0
21
-44.25
31
0
0
LINE
8
0
6
CONTINUOUS
10
-3.0
20
-45.35
30
0
11
3.0
21
-45.35
31
0
0
LINE
8
0
6
CONTINUOUS
10
2.25
20
-45.23
30
0
11
3.0
21
-44.59
31
0
0
LINE
8
0
6
CONTINUOUS
10
-3.0
20
-45.99
30
0
11
-2.25
21
-45.35
31
0
0
LINE
8
0
6
CONTINUOUS
10
3.0
20
-44.59
30
0
11
-3.0
21
-45.99
31
0
0
LINE
8
0
6
CONTINUOUS
10
3.0
20
-46.33
30
0
11
3.0
21
-48.41
31
0
0
LINE
8
0
6
CONTINUOUS
10
-3.0
20
-46.33
30
0
11
-3.0
21
-48.41
31
0
0
LINE
8
0
6
CONTINUOUS
10
0.0
20
-48.41
30
0
11
0.0
21
-46.33
31
0
0
LINE
8
0
6
CONTINUOUS
10
-3.0
20
-47.42
30
0
11
3.0
21
-47.42
31
0
0
LINE
8
0
6
CONTINUOUS
10
2.25
20
-47.31
30
0
11
3.0
21
-46.67
31
0
0
LINE
8
0
6
CONTINUOUS
10
-3.0
20
-48.06
30
0
11
-2.25
21
-47.42
31
0
0
LINE
8
0
6
CONTINUOUS
10
3.0
20
-46.67
30
0
11
-3.0
21
-48.06
31
0
0
LINE
8
0
6
CONTINUOUS
10
3.0
20
-48.41
30
0
11
3.0
21
-50.49
31
0
0
LINE
8
0
6
CONTINUOUS
10
-3.0
20
-48.41
30
0
11
-3.0
21
-50.49
31
0
0
LINE
8
0
6
CONTINUOUS
10
0.0
20
-50.49
30
0
11
0.0
21
-48.41
31
0
0
LINE
8
0
6
CONTINUOUS
10
-3.0
20
-49.5
30
0
11
3.0
21
-49.5
31
0
0
LINE
8
0
6
CONTINUOUS
10
2.25
20
-49.39
30
0
11
3.0
21
-48.75
31
0
0
LINE
8
0
6
CONTINUOUS
10
-3.0
20
-50.14
30
0
11
-2.25
21
-49.5
31
0
0
LINE
8
0
6
CONTINUOUS
10
3.0
20
-48.75
30
0
11
-3.0
21
-50.14
31
0
0
LINE
8
0
6
CONTINUOUS
10
3.0
20
-50.49
30
0
11
3.0
21
-52.57
31
0
0
LINE
8
0
6
CONTINUOUS
10
-3.0
20
-50.49
30
0
11
-3.0
21
-52.57
31
0
0
LINE
8
0
6
CONTINUOUS
10
0.0
20
-52.57
30
0
11
0.0
21
-50.49
31
0
0
LINE
8
0
6
CONTINUOUS
10
-3.0
20
-51.58
30
0
11
3.0
21
-51.58
31
0
0
LINE
8
0
6
CONTINUOUS
10
2.25
20
-51.47
30
0
11
3.0
21
-50.83
31
0
0
LINE
8
0
6
CONTINUOUS
10
-3.0
20
-52.22
30
0
11
-2.25
21
-51.58
31
0
0
LINE
8
0
6
CONTINUOUS
10
3.0
20
-50.83
30
0
11
-3.0
21
-52.22
31
0
0
LINE
8
0
6
CONTINUOUS
10
3.0
20
-52.57
30
0
11
3.0
21
-54.65
31
0
0
LINE
8
0
6
CONTINUOUS
10
-3.0
20
-52.57
30
0
11
-3.0
21
-54.65
31
0
0
LINE
8
0
6
CONTINUOUS
10
0.0
20
-54.65
30
0
11
0.0
21
-52.57
31
0
0
LINE
8
0
6
CONTINUOUS
10
-3.0
20
-53.66
30
0
11
3.0
21
-53.66
31
0
0
LINE
8
0
6
CONTINUOUS
10
2.25
20
-53.55
30
0
11
3.0
21
-52.91
31
0
0
LINE
8
0
6
CONTINUOUS
10
-3.0
20
-54.3
30
0
11
-2.25
21
-53.66
31
0
0
LINE
8
0
6
CONTINUOUS
10
3.0
20
-52.91
30
0
11
-3.0
21
-54.3
31
0
0
LINE
8
0
6
CONTINUOUS
10
3.0
20
-54.65
30
0
11
3.0
21
-56.73
31
0
0
LINE
8
0
6
CONTINUOUS
10
-3.0
20
-54.65
30
0
11
-3.0
21
-56.73
31
0
0
LINE
8
0
6
CONTINUOUS
10
0.0
20
-56.73
30
0
11
0.0
21
-54.65
31
0
0
LINE
8
0
6
CONTINUOUS
10
-3.0
20
-55.74
30
0
11
3.0
21
-55.74
31
0
0
LINE
8
0
6
CONTINUOUS
10
2.25
20
-55.62
30
0
11
3.0
21
-54.98
31
0
0
LINE
8
0
6
CONTINUOUS
10
-3.0
20
-56.38
30
0
11
-2.25
21
-55.74
31
0
0
LINE
8
0
6
CONTINUOUS
10
3.0
20
-54.98
30
0
11
-3.0
21
-56.38
31
0
0
LINE
8
0
6
CONTINUOUS
10
3.0
20
-56.73
30
0
11
3.0
21
-58.81
31
0
0
LINE
8
0
6
CONTINUOUS
10
-3.0
20
-56.73
30
0
11
-3.0
21
-58.81
31
0
0
LINE
8
0
6
CONTINUOUS
10
0.0
20
-58.81
30
0
11
0.0
21
-56.73
31
0
0
LINE
8
0
6
CONTINUOUS
10
-3.0
20
-57.82
30
0
11
3.0
21
-57.82
31
0
0
LINE
8
0
6
CONTINUOUS
10
2.25
20
-57.7
30
0
11
3.0
21
-57.06
31
0
0
LINE
8
0
6
CONTINUOUS
10
-3.0
20
-58.46
30
0
11
-2.25
21
-57.82
31
0
0
LINE
8
0
6
CONTINUOUS
10
3.0
20
-57.06
30
0
11
-3.0
21
-58.46
31
0
0
LINE
8
0
6
CONTINUOUS
10
3.0
20
-58.81
30
0
11
3.0
21
-60.89
31
0
0
LINE
8
0
6
CONTINUOUS
10
-3.0
20
-58.81
30
0
11
-3.0
21
-60.89
31
0
0
LINE
8
0
6
CONTINUOUS
10
0.0
20
-60.89
30
0
11
0.0
21
-58.81
31
0
0
LINE
8
0
6
CONTINUOUS
10
-3.0
20
-59.9
30
0
11
3.0
21
-59.9
31
0
0
LINE
8
0
6
CONTINUOUS
10
2.25
20
-59.78
30
0
11
3.0
21
-59.14
31
0
0
LINE
8
0
6
CONTINUOUS
10
-3.0
20
-60.54
30
0
11
-2.25
21
-59.9
31
0
0
LINE
8
0
6
CONTINUOUS
10
3.0
20
-59.14
30
0
11
-3.0
21
-60.54
31
0
0
LINE
8
0
6
CONTINUOUS
10
3.0
20
-60.89
30
0
11
3.0
21
-62.97
31
0
0
LINE
8
0
6
CONTINUOUS
10
-3.0
20
-60.89
30
0
11
-3.0
21
-62.97
31
0
0
LINE
8
0
6
CONTINUOUS
10
0.0
20
-62.97
30
0
11
0.0
21
-60.89
31
0
0
LINE
8
0
6
CONTINUOUS
10
-3.0
20
-61.98
30
0
11
3.0
21
-61.98
31
0
0
LINE
8
0
6
CONTINUOUS
10
2.25
20
-61.86
30
0
11
3.0
21
-61.22
31
0
0
LINE
8
0
6
CONTINUOUS
10
-3.0
20
-62.62
30
0
11
-2.25
21
-61.98
31
0
0
LINE
8
0
6
CONTINUOUS
10
3.0
20
-61.22
30
0
11
-3.0
21
-62.62
31
0
0
LINE
8
0
6
CONTINUOUS
10
3.0
20
-62.96
30
0
11
3.0
21
-65.05
31
0
0
LINE
8
0
6
CONTINUOUS
10
-3.0
20
-62.96
30
0
11
-3.0
21
-65.05
31
0
0
LINE
8
0
6
CONTINUOUS
10
0.0
20
-65.05
30
0
11
0.0
21
-62.96
31
0
0
LINE
8
0
6
CONTINUOUS
10
-3.0
20
-64.06
30
0
11
3.0
21
-64.06
31
0
0
LINE
8
0
6
CONTINUOUS
10
2.25
20
-63.94
30
0
11
3.0
21
-63.3
31
0
0
LINE
8
0
6
CONTINUOUS
10
-3.0
20
-64.7
30
0
11
-2.25
21
-64.06
31
0
0
LINE
8
0
6
CONTINUOUS
10
3.0
20
-63.3
30
0
11
-3.0
21
-64.7
31
0
0
LINE
8
0
6
CONTINUOUS
10
3.0
20
-65.04
30
0
11
3.0
21
-67.12
31
0
0
LINE
8
0
6
CONTINUOUS
10
-3.0
20
-65.04
30
0
11
-3.0
21
-67.12
31
0
0
LINE
8
0
6
CONTINUOUS
10
0.0
20
-67.12
30
0
11
0.0
21
-65.04
31
0
0
LINE
8
0
6
CONTINUOUS
10
-3.0
20
-66.14
30
0
11
3.0
21
-66.14
31
0
0
LINE
8
0
6
CONTINUOUS
10
2.25
20
-66.02
30
0
11
3.0
21
-65.38
31
0
0
LINE
8
0
6
CONTINUOUS
10
-3.0
20
-66.78
30
0
11
-2.25
21
-66.14
31
0
0
LINE
8
0
6
CONTINUOUS
10
3.0
20
-65.38
30
0
11
-3.0
21
-66.78
31
0
0
LINE
8
0
6
CONTINUOUS
10
3.0
20
-67.12
30
0
11
3.0
21
-69.2
31
0
0
LINE
8
0
6
CONTINUOUS
10
-3.0
20
-67.12
30
0
11
-3.0
21
-69.2
31
0
0
LINE
8
0
6
CONTINUOUS
10
0.0
20
-69.2
30
0
11
0.0
21
-67.12
31
0
0
LINE
8
0
6
CONTINUOUS
10
-3.0
20
-68.22
30
0
11
3.0
21
-68.22
31
0
0
LINE
8
0
6
CONTINUOUS
10
2.25
20
-68.1
30
0
11
3.0
21
-67.46
31
0
0
LINE
8
0
6
CONTINUOUS
10
-3.0
20
-68.86
30
0
11
-2.25
21
-68.22
31
0
0
LINE
8
0
6
CONTINUOUS
10
3.0
20
-67.46
30
0
11
-3.0
21
-68.86
31
0
0
LINE
8
0
6
CONTINUOUS
10
3.0
20
-69.2
30
0
11
3.0
21
-71.28
31
0
0
LINE
8
0
6
CONTINUOUS
10
-3.0
20
-69.2
30
0
11
-3.0
21
-71.28
31
0
0
LINE
8
0
6
CONTINUOUS
10
0.0
20
-71.28
30
0
11
0.0
21
-69.2
31
0
0
LINE
8
0
6
CONTINUOUS
10
-3.0
20
-70.3
30
0
11
3.0
21
-70.3
31
0
0
LINE
8
0
6
CONTINUOUS
10
2.25
20
-70.18
30
0
11
3.0
21
-69.54
31
0
0
LINE
8
0
6
CONTINUOUS
10
-3.0
20
-70.94
30
0
11
-2.25
21
-70.3
31
0
0
LINE
8
0
6
CONTINUOUS
10
3.0
20
-69.54
30
0
11
-3.0
21
-70.94
31
0
0
LINE
8
0
6
CONTINUOUS
10
3.0
20
-71.28
30
0
11
3.0
21
-73.36
31
0
0
LINE
8
0
6
CONTINUOUS
10
-3.0
20
-71.28
30
0
11
-3.0
21
-73.36
31
0
0
LINE
8
0
6
CONTINUOUS
10
0.0
20
-73.36
30
0
11
0.0
21
-71.28
31
0
0
LINE
8
0
6
CONTINUOUS
10
-3.0
20
-72.37
30
0
11
3.0
21
-72.37
31
0
0
LINE
8
0
6
CONTINUOUS
10
2.25
20
-72.26
30
0
11
3.0
21
-71.62
31
0
0
LINE
8
0
6
CONTINUOUS
10
-3.0
20
-73.01
30
0
11
-2.25
21
-72.37
31
0
0
LINE
8
0
6
CONTINUOUS
10
3.0
20
-71.62
30
0
11
-3.0
21
-73.01
31
0
0
LINE
8
0
6
CONTINUOUS
10
3.0
20
-73.36
30
0
11
3.0
21
-75.44
31
0
0
LINE
8
0
6
CONTINUOUS
10
-3.0
20
-73.36
30
0
11
-3.0
21
-75.44
31
0
0
LINE
8
0
6
CONTINUOUS
10
0.0
20
-75.44
30
0
11
0.0
21
-73.36
31
0
0
LINE
8
0
6
CONTINUOUS
10
-3.0
20
-74.45
30
0
11
3.0
21
-74.45
31
0
0
LINE
8
0
6
CONTINUOUS
10
2.25
20
-74.34
30
0
11
3.0
21
-73.7
31
0
0
LINE
8
0
6
CONTINUOUS
10
-3.0
20
-75.09
30
0
11
-2.25
21
-74.45
31
0
0
LINE
8
0
6
CONTINUOUS
10
3.0
20
-73.7
30
0
11
-3.0
21
-75.09
31
0
0
LINE
8
0
6
CONTINUOUS
10
3.0
20
-75.44
30
0
11
3.0
21
-77.52
31
0
0
LINE
8
0
6
CONTINUOUS
10
-3.0
20
-75.44
30
0
11
-3.0
21
-77.52
31
0
0
LINE
8
0
6
CONTINUOUS
10
0.0
20
-77.52
30
0
11
0.0
21
-75.44
31
0
0
LINE
8
0
6
CONTINUOUS
10
-3.0
20
-76.53
30
0
11
3.0
21
-76.53
31
0
0
LINE
8
0
6
CONTINUOUS
10
2.25
20
-76.42
30
0
11
3.0
21
-75.78
31
0
0
LINE
8
0
6
CONTINUOUS
10
-3.0
20
-77.17
30
0
11
-2.25
21
-76.53
31
0
0
LINE
8
0
6
CONTINUOUS
10
3.0
20
-75.78
30
0
11
-3.0
21
-77.17
31
0
0
LINE
8
0
6
CONTINUOUS
10
3.0
20
-77.52
30
0
11
3.0
21
-79.6
31
0
0
LINE
8
0
6
CONTINUOUS
10
-3.0
20
-77.52
30
0
11
-3.0
21
-79.6
31
0
0
LINE
8
0
6
CONTINUOUS
10
0.0
20
-79.6
30
0
11
0.0
21
-77.52
31
0
0
LINE
8
0
6
CONTINUOUS
10
-3.0
20
-78.61
30
0
11
3.0
21
-78.61
31
0
0
LINE
8
0
6
CONTINUOUS
10
2.25
20
-78.5
30
0
11
3.0
21
-77.86
31
0
0
LINE
8
0
6
CONTINUOUS
10
-3.0
20
-79.25
30
0
11
-2.25
21
-78.61
31
0
0
LINE
8
0
6
CONTINUOUS
10
3.0
20
-77.86
30
0
11
-3.0
21
-79.25
31
0
0
LINE
8
0
6
CONTINUOUS
10
3.0
20
-79.6
30
0
11
3.0
21
-81.68
31
0
0
LINE
8
0
6
CONTINUOUS
10
-3.0
20
-79.6
30
0
11
-3.0
21
-81.68
31
0
0
LINE
8
0
6
CONTINUOUS
10
0.0
20
-81.68
30
0
11
0.0
21
-79.6
31
0
0
LINE
8
0
6
CONTINUOUS
10
-3.0
20
-80.69
30
0
11
3.0
21
-80.69
31
0
0
LINE
8
0
6
CONTINUOUS
10
2.25
20
-80.57
30
0
11
3.0
21
-79.93
31
0
0
LINE
8
0
6
CONTINUOUS
10
-3.0
20
-81.33
30
0
11
-2.25
21
-80.69
31
0
0
LINE
8
0
6
CONTINUOUS
10
3.0
20
-79.93
30
0
11
-3.0
21
-81.33
31
0
0
LINE
8
0
6
CONTINUOUS
10
3.0
20
-81.68
30
0
11
3.0
21
-83.76
31
0
0
LINE
8
0
6
CONTINUOUS
10
-3.0
20
-81.68
30
0
11
-3.0
21
-83.76
31
0
0
LINE
8
0
6
CONTINUOUS
10
0.0
20
-83.76
30
0
11
0.0
21
-81.68
31
0
0
LINE
8
0
6
CONTINUOUS
10
-3.0
20
-82.77
30
0
11
3.0
21
-82.77
31
0
0
LINE
8
0
6
CONTINUOUS
10
2.25
20
-82.65
30
0
11
3.0
21
-82.01
31
0
0
LINE
8
0
6
CONTINUOUS
10
-3.0
20
-83.41
30
0
11
-2.25
21
-82.77
31
0
0
LINE
8
0
6
CONTINUOUS
10
3.0
20
-82.01
30
0
11
-3.0
21
-83.41
31
0
0
LINE
8
0
6
CONTINUOUS
10
3.0
20
-83.76
30
0
11
3.0
21
-85.84
31
0
0
LINE
8
0
6
CONTINUOUS
10
-3.0
20
-83.76
30
0
11
-3.0
21
-85.84
31
0
0
LINE
8
0
6
CONTINUOUS
10
0.0
20
-85.84
30
0
11
0.0
21
-83.76
31
0
0
LINE
8
0
6
CONTINUOUS
10
-3.0
20
-84.85
30
0
11
3.0
21
-84.85
31
0
0
LINE
8
0
6
CONTINUOUS
10
2.25
20
-84.73
30
0
11
3.0
21
-84.09
31
0
0
LINE
8
0
6
CONTINUOUS
10
-3.0
20
-85.49
30
0
11
-2.25
21
-84.85
31
0
0
LINE
8
0
6
CONTINUOUS
10
3.0
20
-84.09
30
0
11
-3.0
21
-85.49
31
0
0
LINE
8
0
6
CONTINUOUS
10
3.0
20
-85.84
30
0
11
3.0
21
-87.92
31
0
0
LINE
8
0
6
CONTINUOUS
10
-3.0
20
-85.84
30
0
11
-3.0
21
-87.92
31
0
0
LINE
8
0
6
CONTINUOUS
10
0.0
20
-87.92
30
0
11
0.0
21
-85.84
31
0
0
LINE
8
0
6
CONTINUOUS
10
-3.0
20
-86.93
30
0
11
3.0
21
-86.93
31
0
0
LINE
8
0
6
CONTINUOUS
10
2.25
20
-86.81
30
0
11
3.0
21
-86.17
31
0
0
LINE
8
0
6
CONTINUOUS
10
-3.0
20
-87.57
30
0
11
-2.25
21
-86.93
31
0
0
LINE
8
0
6
CONTINUOUS
10
3.0
20
-86.17
30
0
11
-3.0
21
-87.57
31
0
0
LINE
8
0
6
CONTINUOUS
10
3.0
20
-87.91
30
0
11
3.0
21
-89.99
31
0
0
LINE
8
0
6
CONTINUOUS
10
-3.0
20
-87.91
30
0
11
-3.0
21
-89.99
31
0
0
LINE
8
0
6
CONTINUOUS
10
0.0
20
-89.99
30
0
11
0.0
21
-87.91
31
0
0
LINE
8
0
6
CONTINUOUS
10
-3.0
20
-89.01
30
0
11
3.0
21
-89.01
31
0
0
LINE
8
0
6
CONTINUOUS
10
2.25
20
-88.89
30
0
11
3.0
21
-88.25
31
0
0
LINE
8
0
6
CONTINUOUS
10
-3.0
20
-89.65
30
0
11
-2.25
21
-89.01
31
0
0
LINE
8
0
6
CONTINUOUS
10
3.0
20
-88.25
30
0
11
-3.0
21
-89.65
31
0
0
LINE
8
0
6
CONTINUOUS
10
3.0
20
-89.99
30
0
11
3.0
21
-92.07
31
0
0
LINE
8
0
6
CONTINUOUS
10
-3.0
20
-89.99
30
0
11
-3.0
21
-92.07
31
0
0
LINE
8
0
6
CONTINUOUS
10
0.0
20
-92.07
30
0
11
0.0
21
-89.99
31
0
0
LINE
8
0
6
CONTINUOUS
10
-3.0
20
-91.09
30
0
11
3.0
21
-91.09
31
0
0
LINE
8
0
6
CONTINUOUS
10
2.25
20
-90.97
30
0
11
3.0
21
-90.33
31
0
0
LINE
8
0
6
CONTINUOUS
10
-3.0
20
-91.73
30
0
11
-2.25
21
-91.09
31
0
0
LINE
8
0
6
CONTINUOUS
10
3.0
20
-90.33
30
0
11
-3.0
21
-91.73
31
0
0
LINE
8
0
6
CONTINUOUS
10
3.0
20
-92.07
30
0
11
3.0
21
-94.15
31
0
0
LINE
8
0
6
CONTINUOUS
10
-3.0
20
-92.07
30
0
11
-3.0
21
-94.15
31
0
0
LINE
8
0
6
CONTINUOUS
10
0.0
20
-94.15
30
0
11
0.0
21
-92.07
31
0
0
LINE
8
0
6
CONTINUOUS
10
-3.0
20
-93.17
30
0
11
3.0
21
-93.17
31
0
0
LINE
8
0
6
CONTINUOUS
10
2.25
20
-93.05
30
0
11
3.0
21
-92.41
31
0
0
LINE
8
0
6
CONTINUOUS
10
-3.0
20
-93.81
30
0
11
-2.25
21
-93.17
31
0
0
LINE
8
0
6
CONTINUOUS
10
3.0
20
-92.41
30
0
11
-3.0
21
-93.81
31
0
0
LINE
8
0
6
CONTINUOUS
10
3.0
20
-94.15
30
0
11
3.0
21
-96.23
31
0
0
LINE
8
0
6
CONTINUOUS
10
-3.0
20
-94.15
30
0
11
-3.0
21
-96.23
31
0
0
LINE
8
0
6
CONTINUOUS
10
0.0
20
-96.23
30
0
11
0.0
21
-94.15
31
0
0
LINE
8
0
6
CONTINUOUS
10
-3.0
20
-95.25
30
0
11
3.0
21
-95.25
31
0
0
LINE
8
0
6
CONTINUOUS
10
2.25
20
-95.13
30
0
11
3.0
21
-94.49
31
0
0
LINE
8
0
6
CONTINUOUS
10
-3.0
20
-95.89
30
0
11
-2.25
21
-95.25
31
0
0
LINE
8
0
6
CONTINUOUS
10
3.0
20
-94.49
30
0
11
-3.0
21
-95.89
31
0
0
LINE
8
0
6
CONTINUOUS
10
3.0
20
-96.23
30
0
11
3.0
21
-98.31
31
0
0
LINE
8
0
6
CONTINUOUS
10
-3.0
20
-96.23
30
0
11
-3.0
21
-98.31
31
0
0
LINE
8
0
6
CONTINUOUS
10
0.0
20
-98.31
30
0
11
0.0
21
-96.23
31
0
0
LINE
8
0
6
CONTINUOUS
10
-3.0
20
-97.32
30
0
11
3.0
21
-97.32
31
0
0
LINE
8
0
6
CONTINUOUS
10
2.25
20
-97.21
30
0
11
3.0
21
-96.57
31
0
0
LINE
8
0
6
CONTINUOUS
10
-3.0
20
-97.96
30
0
11
-2.25
21
-97.32
31
0
0
LINE
8
0
6
CONTINUOUS
10
3.0
20
-96.57
30
0
11
-3.0
21
-97.96
31
0
0
LINE
8
0
6
CONTINUOUS
10
3.0
20
-98.31
30
0
11
3.0
21
-100.39
31
0
0
LINE
8
0
6
CONTINUOUS
10
-3.0
20
-98.31
30
0
11
-3.0
21
-100.39
31
0
0
LINE
8
0
6
CONTINUOUS
10
0.0
20
-100.39
30
0
11
0.0
21
-98.31
31
0
0
LINE
8
0
6
CONTINUOUS
10
-3.0
20
-99.4
30
0
11
3.0
21
-99.4
31
0
0
LINE
8
0
6
CONTINUOUS
10
2.25
20
-99.29
30
0
11
3.0
21
-98.65
31
0
0
LINE
8
0
6
CONTINUOUS
10
-3.0
20
-100.04
30
0
11
-2.25
21
-99.4
31
0
0
LINE
8
0
6
CONTINUOUS
10
3.0
20
-98.65
30
0
11
-3.0
21
-100.04
31
0
0
LINE
8
0
6
CONTINUOUS
10
3.0
20
-100.39
30
0
11
3.0
21
-102.47
31
0
0
LINE
8
0
6
CONTINUOUS
10
-3.0
20
-100.39
30
0
11
-3.0
21
-102.47
31
0
0
LINE
8
0
6
CONTINUOUS
10
0.0
20
-102.47
30
0
11
0.0
21
-100.39
31
0
0
LINE
8
0
6
CONTINUOUS
10
-3.0
20
-101.48
30
0
11
3.0
21
-101.48
31
0
0
LINE
8
0
6
CONTINUOUS
10
2.25
20
-101.37
30
0
11
3.0
21
-100.73
31
0
0
LINE
8
0
6
CONTINUOUS
10
-3.0
20
-102.12
30
0
11
-2.25
21
-101.48
31
0
0
LINE
8
0
6
CONTINUOUS
10
3.0
20
-100.73
30
0
11
-3.0
21
-102.12
31
0
0
LINE
8
0
6
CONTINUOUS
10
3.0
20
-102.47
30
0
11
3.0
21
-104.55
31
0
0
LINE
8
0
6
CONTINUOUS
10
-3.0
20
-102.47
30
0
11
-3.0
21
-104.55
31
0
0
LINE
8
0
6
CONTINUOUS
10
0.0
20
-104.55
30
0
11
0.0
21
-102.47
31
0
0
LINE
8
0
6
CONTINUOUS
10
-3.0
20
-103.56
30
0
11
3.0
21
-103.56
31
0
0
LINE
8
0
6
CONTINUOUS
10
2.25
20
-103.45
30
0
11
3.0
21
-102.81
31
0
0
LINE
8
0
6
CONTINUOUS
10
-3.0
20
-104.2
30
0
11
-2.25
21
-103.56
31
0
0
LINE
8
0
6
CONTINUOUS
10
3.0
20
-102.81
30
0
11
-3.0
21
-104.2
31
0
0
LINE
8
0
6
CONTINUOUS
10
3.0
20
-104.55
30
0
11
3.0
21
-106.63
31
0
0
LINE
8
0
6
CONTINUOUS
10
-3.0
20
-104.55
30
0
11
-3.0
21
-106.63
31
0
0
LINE
8
0
6
CONTINUOUS
10
0.0
20
-106.63
30
0
11
0.0
21
-104.55
31
0
0
LINE
8
0
6
CONTINUOUS
10
-3.0
20
-105.64
30
0
11
3.0
21
-105.64
31
0
0
LINE
8
0
6
CONTINUOUS
10
2.25
20
-105.52
30
0
11
3.0
21
-104.88
31
0
0
LINE
8
0
6
CONTINUOUS
10
-3.0
20
-106.28
30
0
11
-2.25
21
-105.64
31
0
0
LINE
8
0
6
CONTINUOUS
10
3.0
20
-104.88
30
0
11
-3.0
21
-106.28
31
0
0
LINE
8
0
6
CONTINUOUS
10
3.0
20
-106.63
30
0
11
3.0
21
-108.71
31
0
0
LINE
8
0
6
CONTINUOUS
10
-3.0
20
-106.63
30
0
11
-3.0
21
-108.71
31
0
0
LINE
8
0
6
CONTINUOUS
10
0.0
20
-108.71
30
0
11
0.0
21
-106.63
31
0
0
LINE
8
0
6
CONTINUOUS
10
-3.0
20
-107.72
30
0
11
3.0
21
-107.72
31
0
0
LINE
8
0
6
CONTINUOUS
10
2.25
20
-107.6
30
0
11
3.0
21
-106.96
31
0
0
LINE
8
0
6
CONTINUOUS
10
-3.0
20
-108.36
30
0
11
-2.25
21
-107.72
31
0
0
LINE
8
0
6
CONTINUOUS
10
3.0
20
-106.96
30
0
11
-3.0
21
-108.36
31
0
0
LINE
8
0
6
CONTINUOUS
10
3.0
20
-108.71
30
0
11
3.0
21
-110.79
31
0
0
LINE
8
0
6
CONTINUOUS
10
-3.0
20
-108.71
30
0
11
-3.0
21
-110.79
31
0
0
LINE
8
0
6
CONTINUOUS
10
0.0
20
-110.79
30
0
11
0.0
21
-108.71
31
0
0
LINE
8
0
6
CONTINUOUS
10
-3.0
20
-109.8
30
0
11
3.0
21
-109.8
31
0
0
LINE
8
0
6
CONTINUOUS
10
2.25
20
-109.68
30
0
11
3.0
21
-109.04
31
0
0
LINE
8
0
6
CONTINUOUS
10
-3.0
20
-110.44
30
0
11
-2.25
21
-109.8
31
0
0
LINE
8
0
6
CONTINUOUS
10
3.0
20
-109.04
30
0
11
-3.0
21
-110.44
31
0
0
LINE
8
0
6
CONTINUOUS
10
3.0
20
-110.79
30
0
11
3.0
21
-112.87
31
0
0
LINE
8
0
6
CONTINUOUS
10
-3.0
20
-110.79
30
0
11
-3.0
21
-112.87
31
0
0
LINE
8
0
6
CONTINUOUS
10
0.0
20
-112.87
30
0
11
0.0
21
-110.79
31
0
0
LINE
8
0
6
CONTINUOUS
10
-3.0
20
-111.88
30
0
11
3.0
21
-111.88
31
0
0
LINE
8
0
6
CONTINUOUS
10
2.25
20
-111.76
30
0
11
3.0
21
-111.12
31
0
0
LINE
8
0
6
CONTINUOUS
10
-3.0
20
-112.52
30
0
11
-2.25
21
-111.88
31
0
0
LINE
8
0
6
CONTINUOUS
10
3.0
20
-111.12
30
0
11
-3.0
21
-112.52
31
0
0
LINE
8
0
6
CONTINUOUS
10
3.0
20
-112.86
30
0
11
3.0
21
-114.94
31
0
0
LINE
8
0
6
CONTINUOUS
10
-3.0
20
-112.86
30
0
11
-3.0
21
-114.94
31
0
0
LINE
8
0
6
CONTINUOUS
10
0.0
20
-114.94
30
0
11
0.0
21
-112.86
31
0
0
LINE
8
0
6
CONTINUOUS
10
-3.0
20
-113.96
30
0
11
3.0
21
-113.96
31
0
0
LINE
8
0
6
CONTINUOUS
10
2.25
20
-113.84
30
0
11
3.0
21
-113.2
31
0
0
LINE
8
0
6
CONTINUOUS
10
-3.0
20
-114.6
30
0
11
-2.25
21
-113.96
31
0
0
LINE
8
0
6
CONTINUOUS
10
3.0
20
-113.2
30
0
11
-3.0
21
-114.6
31
0
0
LINE
8
0
6
CONTINUOUS
10
3.0
20
-114.94
30
0
11
3.0
21
-117.02
31
0
0
LINE
8
0
6
CONTINUOUS
10
-3.0
20
-114.94
30
0
11
-3.0
21
-117.02
31
0
0
LINE
8
0
6
CONTINUOUS
10
0.0
20
-117.02
30
0
11
0.0
21
-114.94
31
0
0
LINE
8
0
6
CONTINUOUS
10
-3.0
20
-116.04
30
0
11
3.0
21
-116.04
31
0
0
LINE
8
0
6
CONTINUOUS
10
2.25
20
-115.92
30
0
11
3.0
21
-115.28
31
0
0
LINE
8
0
6
CONTINUOUS
10
-3.0
20
-116.68
30
0
11
-2.25
21
-116.04
31
0
0
LINE
8
0
6
CONTINUOUS
10
3.0
20
-115.28
30
0
11
-3.0
21
-116.68
31
0
0
LINE
8
0
6
CONTINUOUS
10
3.0
20
-117.02
30
0
11
3.0
21
-119.1
31
0
0
LINE
8
0
6
CONTINUOUS
10
-3.0
20
-117.02
30
0
11
-3.0
21
-119.1
31
0
0
LINE
8
0
6
CONTINUOUS
10
0.0
20
-119.1
30
0
11
0.0
21
-117.02
31
0
0
LINE
8
0
6
CONTINUOUS
10
-3.0
20
-118.12
30
0
11
3.0
21
-118.12
31
0
0
LINE
8
0
6
CONTINUOUS
10
2.25
20
-118.0
30
0
11
3.0
21
-117.36
31
0
0
LINE
8
0
6
CONTINUOUS
10
-3.0
20
-118.76
30
0
11
-2.25
21
-118.12
31
0
0
LINE
8
0
6
CONTINUOUS
10
3.0
20
-117.36
30
0
11
-3.0
21
-118.76
31
0
0
LINE
8
0
6
CONTINUOUS
10
3.0
20
-119.1
30
0
11
3.0
21
-121.18
31
0
0
LINE
8
0
6
CONTINUOUS
10
-3.0
20
-119.1
30
0
11
-3.0
21
-121.18
31
0
0
LINE
8
0
6
CONTINUOUS
10
0.0
20
-121.18
30
0
11
0.0
21
-119.1
31
0
0
LINE
8
0
6
CONTINUOUS
10
-3.0
20
-120.2
30
0
11
3.0
21
-120.2
31
0
0
LINE
8
0
6
CONTINUOUS
10
2.25
20
-120.08
30
0
11
3.0
21
-119.44
31
0
0
LINE
8
0
6
CONTINUOUS
10
-3.0
20
-120.84
30
0
11
-2.25
21
-120.2
31
0
0
LINE
8
0
6
CONTINUOUS
10
3.0
20
-119.44
30
0
11
-3.0
21
-120.84
31
0
0
LINE
8
0
6
CONTINUOUS
10
3.0
20
-121.18
30
0
11
3.0
21
-123.26
31
0
0
LINE
8
0
6
CONTINUOUS
10
-3.0
20
-121.18
30
0
11
-3.0
21
-123.26
31
0
0
LINE
8
0
6
CONTINUOUS
10
0.0
20
-123.26
30
0
11
0.0
21
-121.18
31
0
0
LINE
8
0
6
CONTINUOUS
10
-3.0
20
-122.27
30
0
11
3.0
21
-122.27
31
0
0
LINE
8
0
6
CONTINUOUS
10
2.25
20
-122.16
30
0
11
3.0
21
-121.52
31
0
0
LINE
8
0
6
CONTINUOUS
10
-3.0
20
-122.91
30
0
11
-2.25
21
-122.27
31
0
0
LINE
8
0
6
CONTINUOUS
10
3.0
20
-121.52
30
0
11
-3.0
21
-122.91
31
0
0
LINE
8
0
6
CONTINUOUS
10
3.0
20
-123.26
30
0
11
3.0
21
-125.34
31
0
0
LINE
8
0
6
CONTINUOUS
10
-3.0
20
-123.26
30
0
11
-3.0
21
-125.34
31
0
0
LINE
8
0
6
CONTINUOUS
10
0.0
20
-125.34
30
0
11
0.0
21
-123.26
31
0
0
LINE
8
0
6
CONTINUOUS
10
-3.0
20
-124.35
30
0
11
3.0
21
-124.35
31
0
0
LINE
8
0
6
CONTINUOUS
10
2.25
20
-124.24
30
0
11
3.0
21
-123.6
31
0
0
LINE
8
0
6
CONTINUOUS
10
-3.0
20
-124.99
30
0
11
-2.25
21
-124.35
31
0
0
LINE
8
0
6
CONTINUOUS
10
3.0
20
-123.6
30
0
11
-3.0
21
-124.99
31
0
0
LINE
8
0
6
CONTINUOUS
10
3.0
20
-125.34
30
0
11
3.0
21
-127.42
31
0
0
LINE
8
0
6
CONTINUOUS
10
-3.0
20
-125.34
30
0
11
-3.0
21
-127.42
31
0
0
LINE
8
0
6
CONTINUOUS
10
0.0
20
-127.42
30
0
11
0.0
21
-125.34
31
0
0
LINE
8
0
6
CONTINUOUS
10
-3.0
20
-126.43
30
0
11
3.0
21
-126.43
31
0
0
LINE
8
0
6
CONTINUOUS
10
2.25
20
-126.32
30
0
11
3.0
21
-125.68
31
0
0
LINE
8
0
6
CONTINUOUS
10
-3.0
20
-127.07
30
0
11
-2.25
21
-126.43
31
0
0
LINE
8
0
6
CONTINUOUS
10
3.0
20
-125.68
30
0
11
-3.0
21
-127.07
31
0
0
LINE
8
0
6
CONTINUOUS
10
3.0
20
-127.42
30
0
11
3.0
21
-129.5
31
0
0
LINE
8
0
6
CONTINUOUS
10
-3.0
20
-127.42
30
0
11
-3.0
21
-129.5
31
0
0
LINE
8
0
6
CONTINUOUS
10
0.0
20
-129.5
30
0
11
0.0
21
-127.42
31
0
0
LINE
8
0
6
CONTINUOUS
10
-3.0
20
-128.51
30
0
11
3.0
21
-128.51
31
0
0
LINE
8
0
6
CONTINUOUS
10
2.25
20
-128.4
30
0
11
3.0
21
-127.76
31
0
0
LINE
8
0
6
CONTINUOUS
10
-3.0
20
-129.15
30
0
11
-2.25
21
-128.51
31
0
0
LINE
8
0
6
CONTINUOUS
10
3.0
20
-127.76
30
0
11
-3.0
21
-129.15
31
0
0
LINE
8
0
6
CONTINUOUS
10
3.0
20
-129.5
30
0
11
3.0
21
-131.58
31
0
0
LINE
8
0
6
CONTINUOUS
10
-3.0
20
-129.5
30
0
11
-3.0
21
-131.58
31
0
0
LINE
8
0
6
CONTINUOUS
10
0.0
20
-131.58
30
0
11
0.0
21
-129.5
31
0
0
LINE
8
0
6
CONTINUOUS
10
-3.0
20
-130.59
30
0
11
3.0
21
-130.59
31
0
0
LINE
8
0
6
CONTINUOUS
10
2.25
20
-130.47
30
0
11
3.0
21
-129.83
31
0
0
LINE
8
0
6
CONTINUOUS
10
-3.0
20
-131.23
30
0
11
-2.25
21
-130.59
31
0
0
LINE
8
0
6
CONTINUOUS
10
3.0
20
-129.83
30
0
11
-3.0
21
-131.23
31
0
0
LINE
8
0
6
CONTINUOUS
10
3.0
20
-131.58
30
0
11
3.0
21
-133.66
31
0
0
LINE
8
0
6
CONTINUOUS
10
-3.0
20
-131.58
30
0
11
-3.0
21
-133.66
31
0
0
LINE
8
0
6
CONTINUOUS
10
0.0
20
-133.66
30
0
11
0.0
21
-131.58
31
0
0
LINE
8
0
6
CONTINUOUS
10
-3.0
20
-132.67
30
0
11
3.0
21
-132.67
31
0
0
LINE
8
0
6
CONTINUOUS
10
2.25
20
-132.55
30
0
11
3.0
21
-131.91
31
0
0
LINE
8
0
6
CONTINUOUS
10
-3.0
20
-133.31
30
0
11
-2.25
21
-132.67
31
0
0
LINE
8
0
6
CONTINUOUS
10
3.0
20
-131.91
30
0
11
-3.0
21
-133.31
31
0
0
LINE
8
0
6
CONTINUOUS
10
3.0
20
-133.66
30
0
11
3.0
21
-135.74
31
0
0
LINE
8
0
6
CONTINUOUS
10
-3.0
20
-133.66
30
0
11
-3.0
21
-135.74
31
0
0
LINE
8
0
6
CONTINUOUS
10
0.0
20
-135.74
30
0
11
0.0
21
-133.66
31
0
0
LINE
8
0
6
CONTINUOUS
10
-3.0
20
-134.75
30
0
11
3.0
21
-134.75
31
0
0
LINE
8
0
6
CONTINUOUS
10
2.25
20
-134.63
30
0
11
3.0
21
-133.99
31
0
0
LINE
8
0
6
CONTINUOUS
10
-3.0
20
-135.39
30
0
11
-2.25
21
-134.75
31
0
0
LINE
8
0
6
CONTINUOUS
10
3.0
20
-133.99
30
0
11
-3.0
21
-135.39
31
0
0
LINE
8
0
6
CONTINUOUS
10
3.0
20
-135.74
30
0
11
3.0
21
-137.82
31
0
0
LINE
8
0
6
CONTINUOUS
10
-3.0
20
-135.74
30
0
11
-3.0
21
-137.82
31
0
0
LINE
8
0
6
CONTINUOUS
10
0.0
20
-137.82
30
0
11
0.0
21
-135.74
31
0
0
LINE
8
0
6
CONTINUOUS
10
-3.0
20
-136.83
30
0
11
3.0
21
-136.83
31
0
0
LINE
8
0
6
CONTINUOUS
10
2.25
20
-136.71
30
0
11
3.0
21
-136.07
31
0
0
LINE
8
0
6
CONTINUOUS
10
-3.0
20
-137.47
30
0
11
-2.25
21
-136.83
31
0
0
LINE
8
0
6
CONTINUOUS
10
3.0
20
-136.07
30
0
11
-3.0
21
-137.47
31
0
0
LINE
8
0
6
CONTINUOUS
10
3.0
20
-137.81
30
0
11
3.0
21
-139.89
31
0
0
LINE
8
0
6
CONTINUOUS
10
-3.0
20
-137.81
30
0
11
-3.0
21
-139.89
31
0
0
LINE
8
0
6
CONTINUOUS
10
0.0
20
-139.89
30
0
11
0.0
21
-137.81
31
0
0
LINE
8
0
6
CONTINUOUS
10
-3.0
20
-138.91
30
0
11
3.0
21
-138.91
31
0
0
LINE
8
0
6
CONTINUOUS
10
2.25
20
-138.79
30
0
11
3.0
21
-138.15
31
0
0
LINE
8
0
6
CONTINUOUS
10
-3.0
20
-139.55
30
0
11
-2.25
21
-138.91
31
0
0
LINE
8
0
6
CONTINUOUS
10
3.0
20
-138.15
30
0
11
-3.0
21
-139.55
31
0
0
LINE
8
0
6
CONTINUOUS
10
3.0
20
-139.89
30
0
11
3.0
21
-141.97
31
0
0
LINE
8
0
6
CONTINUOUS
10
-3.0
20
-139.89
30
0
11
-3.0
21
-141.97
31
0
0
LINE
8
0
6
CONTINUOUS
10
0.0
20
-141.97
30
0
11
0.0
21
-139.89
31
0
0
LINE
8
0
6
CONTINUOUS
10
-3.0
20
-140.99
30
0
11
3.0
21
-140.99
31
0
0
LINE
8
0
6
CONTINUOUS
10
2.25
20
-140.87
30
0
11
3.0
21
-140.23
31
0
0
LINE
8
0
6
CONTINUOUS
10
-3.0
20
-141.63
30
0
11
-2.25
21
-140.99
31
0
0
LINE
8
0
6
CONTINUOUS
10
3.0
20
-140.23
30
0
11
-3.0
21
-141.63
31
0
0
LINE
8
0
6
CONTINUOUS
10
3.0
20
-141.97
30
0
11
3.0
21
-144.05
31
0
0
LINE
8
0
6
CONTINUOUS
10
-3.0
20
-141.97
30
0
11
-3.0
21
-144.05
31
0
0
LINE
8
0
6
CONTINUOUS
10
0.0
20
-144.05
30
0
11
0.0
21
-141.97
31
0
0
LINE
8
0
6
CONTINUOUS
10
-3.0
20
-143.07
30
0
11
3.0
21
-143.07
31
0
0
LINE
8
0
6
CONTINUOUS
10
2.25
20
-142.95
30
0
11
3.0
21
-142.31
31
0
0
LINE
8
0
6
CONTINUOUS
10
-3.0
20
-143.71
30
0
11
-2.25
21
-143.07
31
0
0
LINE
8
0
6
CONTINUOUS
10
3.0
20
-142.31
30
0
11
-3.0
21
-143.71
31
0
0
LINE
8
0
6
CONTINUOUS
10
3.0
20
-144.05
30
0
11
3.0
21
-146.13
31
0
0
LINE
8
0
6
CONTINUOUS
10
-3.0
20
-144.05
30
0
11
-3.0
21
-146.13
31
0
0
LINE
8
0
6
CONTINUOUS
10
0.0
20
-146.13
30
0
11
0.0
21
-144.05
31
0
0
LINE
8
0
6
CONTINUOUS
10
-3.0
20
-145.15
30
0
11
3.0
21
-145.15
31
0
0
LINE
8
0
6
CONTINUOUS
10
2.25
20
-145.03
30
0
11
3.0
21
-144.39
31
0
0
LINE
8
0
6
CONTINUOUS
10
-3.0
20
-145.79
30
0
11
-2.25
21
-145.15
31
0
0
LINE
8
0
6
CONTINUOUS
10
3.0
20
-144.39
30
0
11
-3.0
21
-145.79
31
0
0
LINE
8
0
6
CONTINUOUS
10
3.0
20
-146.13
30
0
11
3.0
21
-148.21
31
0
0
LINE
8
0
6
CONTINUOUS
10
-3.0
20
-146.13
30
0
11
-3.0
21
-148.21
31
0
0
LINE
8
0
6
CONTINUOUS
10
0.0
20
-148.21
30
0
11
0.0
21
-146.13
31
0
0
LINE
8
0
6
CONTINUOUS
10
-3.0
20
-147.22
30
0
11
3.0
21
-147.22
31
0
0
LINE
8
0
6
CONTINUOUS
10
2.25
20
-147.11
30
0
11
3.0
21
-146.47
31
0
0
LINE
8
0
6
CONTINUOUS
10
-3.0
20
-147.86
30
0
11
-2.25
21
-147.22
31
0
0
LINE
8
0
6
CONTINUOUS
10
3.0
20
-146.47
30
0
11
-3.0
21
-147.86
31
0
0
LINE
8
0
6
CONTINUOUS
10
3.0
20
-148.21
30
0
11
3.0
21
-150.29
31
0
0
LINE
8
0
6
CONTINUOUS
10
-3.0
20
-148.21
30
0
11
-3.0
21
-150.29
31
0
0
LINE
8
0
6
CONTINUOUS
10
0.0
20
-150.29
30
0
11
0.0
21
-148.21
31
0
0
LINE
8
0
6
CONTINUOUS
10
-3.0
20
-149.3
30
0
11
3.0
21
-149.3
31
0
0
LINE
8
0
6
CONTINUOUS
10
2.25
20
-149.19
30
0
11
3.0
21
-148.55
31
0
0
LINE
8
0
6
CONTINUOUS
10
-3.0
20
-149.94
30
0
11
-2.25
21
-149.3
31
0
0
LINE
8
0
6
CONTINUOUS
10
3.0
20
-148.55
30
0
11
-3.0
21
-149.94
31
0
0
LINE
8
0
6
CONTINUOUS
10
3.0
20
-150.29
30
0
11
3.0
21
-152.37
31
0
0
LINE
8
0
6
CONTINUOUS
10
-3.0
20
-150.29
30
0
11
-3.0
21
-152.37
31
0
0
LINE
8
0
6
CONTINUOUS
10
0.0
20
-152.37
30
0
11
0.0
21
-150.29
31
0
0
LINE
8
0
6
CONTINUOUS
10
-3.0
20
-151.38
30
0
11
3.0
21
-151.38
31
0
0
LINE
8
0
6
CONTINUOUS
10
2.25
20
-151.27
30
0
11
3.0
21
-150.63
31
0
0
LINE
8
0
6
CONTINUOUS
10
-3.0
20
-152.02
30
0
11
-2.25
21
-151.38
31
0
0
LINE
8
0
6
CONTINUOUS
10
3.0
20
-150.63
30
0
11
-3.0
21
-152.02
31
0
0
LINE
8
0
6
CONTINUOUS
10
3.0
20
-152.37
30
0
11
3.0
21
-154.45
31
0
0
LINE
8
0
6
CONTINUOUS
10
-3.0
20
-152.37
30
0
11
-3.0
21
-154.45
31
0
0
LINE
8
0
6
CONTINUOUS
10
0.0
20
-154.45
30
0
11
0.0
21
-152.37
31
0
0
LINE
8
0
6
CONTINUOUS
10
-3.0
20
-153.46
30
0
11
3.0
21
-153.46
31
0
0
LINE
8
0
6
CONTINUOUS
10
2.25
20
-153.35
30
0
11
3.0
21
-152.71
31
0
0
LINE
8
0
6
CONTINUOUS
10
-3.0
20
-154.1
30
0
11
-2.25
21
-153.46
31
0
0
LINE
8
0
6
CONTINUOUS
10
3.0
20
-152.71
30
0
11
-3.0
21
-154.1
31
0
0
LINE
8
0
6
CONTINUOUS
10
3.0
20
-154.45
30
0
11
3.0
21
-156.53
31
0
0
LINE
8
0
6
CONTINUOUS
10
-3.0
20
-154.45
30
0
11
-3.0
21
-156.53
31
0
0
LINE
8
0
6
CONTINUOUS
10
0.0
20
-156.53
30
0
11
0.0
21
-154.45
31
0
0
LINE
8
0
6
CONTINUOUS
10
-3.0
20
-155.54
30
0
11
3.0
21
-155.54
31
0
0
LINE
8
0
6
CONTINUOUS
10
2.25
20
-155.42
30
0
11
3.0
21
-154.78
31
0
0
LINE
8
0
6
CONTINUOUS
10
-3.0
20
-156.18
30
0
11
-2.25
21
-155.54
31
0
0
LINE
8
0
6
CONTINUOUS
10
3.0
20
-154.78
30
0
11
-3.0
21
-156.18
31
0
0
LINE
8
0
6
CONTINUOUS
10
3.0
20
-156.53
30
0
11
3.0
21
-158.61
31
0
0
LINE
8
0
6
CONTINUOUS
10
-3.0
20
-156.53
30
0
11
-3.0
21
-158.61
31
0
0
LINE
8
0
6
CONTINUOUS
10
0.0
20
-158.61
30
0
11
0.0
21
-156.53
31
0
0
LINE
8
0
6
CONTINUOUS
10
-3.0
20
-157.62
30
0
11
3.0
21
-157.62
31
0
0
LINE
8
0
6
CONTINUOUS
10
2.25
20
-157.5
30
0
11
3.0
21
-156.86
31
0
0
LINE
8
0
6
CONTINUOUS
10
-3.0
20
-158.26
30
0
11
-2.25
21
-157.62
31
0
0
LINE
8
0
6
CONTINUOUS
10
3.0
20
-156.86
30
0
11
-3.0
21
-158.26
31
0
0
LINE
8
0
6
CONTINUOUS
10
3.0
20
-158.61
30
0
11
3.0
21
-160.69
31
0
0
LINE
8
0
6
CONTINUOUS
10
-3.0
20
-158.61
30
0
11
-3.0
21
-160.69
31
0
0
LINE
8
0
6
CONTINUOUS
10
0.0
20
-160.69
30
0
11
0.0
21
-158.61
31
0
0
LINE
8
0
6
CONTINUOUS
10
-3.0
20
-159.7
30
0
11
3.0
21
-159.7
31
0
0
LINE
8
0
6
CONTINUOUS
10
2.25
20
-159.58
30
0
11
3.0
21
-158.94
31
0
0
LINE
8
0
6
CONTINUOUS
10
-3.0
20
-160.34
30
0
11
-2.25
21
-159.7
31
0
0
LINE
8
0
6
CONTINUOUS
10
3.0
20
-158.94
30
0
11
-3.0
21
-160.34
31
0
0
LINE
8
0
6
CONTINUOUS
10
3.0
20
-160.69
30
0
11
3.0
21
-162.77
31
0
0
LINE
8
0
6
CONTINUOUS
10
-3.0
20
-160.69
30
0
11
-3.0
21
-162.77
31
0
0
LINE
8
0
6
CONTINUOUS
10
0.0
20
-162.77
30
0
11
0.0
21
-160.69
31
0
0
LINE
8
0
6
CONTINUOUS
10
-3.0
20
-161.78
30
0
11
3.0
21
-161.78
31
0
0
LINE
8
0
6
CONTINUOUS
10
2.25
20
-161.66
30
0
11
3.0
21
-161.02
31
0
0
LINE
8
0
6
CONTINUOUS
10
-3.0
20
-162.42
30
0
11
-2.25
21
-161.78
31
0
0
LINE
8
0
6
CONTINUOUS
10
3.0
20
-161.02
30
0
11
-3.0
21
-162.42
31
0
0
LINE
8
0
6
CONTINUOUS
10
3.0
20
-162.76
30
0
11
3.0
21
-164.84
31
0
0
LINE
8
0
6
CONTINUOUS
10
-3.0
20
-162.76
30
0
11
-3.0
21
-164.84
31
0
0
LINE
8
0
6
CONTINUOUS
10
0.0
20
-164.84
30
0
11
0.0
21
-162.76
31
0
0
LINE
8
0
6
CONTINUOUS
10
-3.0
20
-163.86
30
0
11
3.0
21
-163.86
31
0
0
LINE
8
0
6
CONTINUOUS
10
2.25
20
-163.74
30
0
11
3.0
21
-163.1
31
0
0
LINE
8
0
6
CONTINUOUS
10
-3.0
20
-164.5
30
0
11
-2.25
21
-163.86
31
0
0
LINE
8
0
6
CONTINUOUS
10
3.0
20
-163.1
30
0
11
-3.0
21
-164.5
31
0
0
LINE
8
0
6
CONTINUOUS
10
3.0
20
-164.84
30
0
11
3.0
21
-166.92
31
0
0
LINE
8
0
6
CONTINUOUS
10
-3.0
20
-164.84
30
0
11
-3.0
21
-166.92
31
0
0
LINE
8
0
6
CONTINUOUS
10
0.0
20
-166.92
30
0
11
0.0
21
-164.84
31
0
0
LINE
8
0
6
CONTINUOUS
10
-3.0
20
-165.94
30
0
11
3.0
21
-165.94
31
0
0
LINE
8
0
6
CONTINUOUS
10
2.25
20
-165.82
30
0
11
3.0
21
-165.18
31
0
0
LINE
8
0
6
CONTINUOUS
10
-3.0
20
-166.58
30
0
11
-2.25
21
-165.94
31
0
0
LINE
8
0
6
CONTINUOUS
10
3.0
20
-165.18
30
0
11
-3.0
21
-166.58
31
0
0
LINE
8
0
6
CONTINUOUS
10
3.0
20
-166.92
30
0
11
3.0
21
-169.0
31
0
0
LINE
8
0
6
CONTINUOUS
10
-3.0
20
-166.92
30
0
11
-3.0
21
-169.0
31
0
0
LINE
8
0
6
CONTINUOUS
10
0.0
20
-169.0
30
0
11
0.0
21
-166.92
31
0
0
LINE
8
0
6
CONTINUOUS
10
-3.0
20
-168.02
30
0
11
3.0
21
-168.02
31
0
0
LINE
8
0
6
CONTINUOUS
10
2.25
20
-167.9
30
0
11
3.0
21
-167.26
31
0
0
LINE
8
0
6
CONTINUOUS
10
-3.0
20
-168.66
30
0
11
-2.25
21
-168.02
31
0
0
LINE
8
0
6
CONTINUOUS
10
3.0
20
-167.26
30
0
11
-3.0
21
-168.66
31
0
0
LINE
8
0
6
CONTINUOUS
10
3.0
20
-169.0
30
0
11
3.0
21
-171.08
31
0
0
LINE
8
0
6
CONTINUOUS
10
-3.0
20
-169.0
30
0
11
-3.0
21
-171.08
31
0
0
LINE
8
0
6
CONTINUOUS
10
0.0
20
-171.08
30
0
11
0.0
21
-169.0
31
0
0
LINE
8
0
6
CONTINUOUS
10
-3.0
20
-170.1
30
0
11
3.0
21
-170.1
31
0
0
LINE
8
0
6
CONTINUOUS
10
2.25
20
-169.98
30
0
11
3.0
21
-169.34
31
0
0
LINE
8
0
6
CONTINUOUS
10
-3.0
20
-170.74
30
0
11
-2.25
21
-170.1
31
0
0
LINE
8
0
6
CONTINUOUS
10
3.0
20
-169.34
30
0
11
-3.0
21
-170.74
31
0
0
LINE
8
0
6
CONTINUOUS
10
3.0
20
-171.08
30
0
11
3.0
21
-173.16
31
0
0
LINE
8
0
6
CONTINUOUS
10
-3.0
20
-171.08
30
0
11
-3.0
21
-173.16
31
0
0
LINE
8
0
6
CONTINUOUS
10
0.0
20
-173.16
30
0
11
0.0
21
-171.08
31
0
0
LINE
8
0
6
CONTINUOUS
10
-3.0
20
-172.17
30
0
11
3.0
21
-172.17
31
0
0
LINE
8
0
6
CONTINUOUS
10
2.25
20
-172.06
30
0
11
3.0
21
-171.42
31
0
0
LINE
8
0
6
CONTINUOUS
10
-3.0
20
-172.81
30
0
11
-2.25
21
-172.17
31
0
0
LINE
8
0
6
CONTINUOUS
10
3.0
20
-171.42
30
0
11
-3.0
21
-172.81
31
0
0
LINE
8
0
6
CONTINUOUS
10
-2.0
20
-3.55
30
0
11
-2.0
21
0.0
31
0
0
LINE
8
0
6
CONTINUOUS
10
2.0
20
-3.55
30
0
11
2.0
21
0.0
31
0
0
ENDSEC
0
EOF