0
SECTION
2
HEADER
0
ENDSEC
0
SECTION
2
TABLES
0
TABLE
2
LTYPE
70
3
0
LTYPE
2
CONTINUOUS
70
0
3
Solid line
72
65
73
0
40
0.0
0
LTYPE
2
CENTER
70
0
3
center
72
65
73
4
40
28.575
49
12.7
49
-6.35
49
3.175
49
-6.35
0
ENDTAB
0
TABLE
2
LAYER
70
1
0
LAYER
2
0
70
0
62
7
6
CONTINUOUS
0
ENDTAB
0
ENDSEC
0
SECTION
2
ENTITIES
0
LINE
8
0
6
CONTINUOUS
10
148.5
20
157.92
30
0
11
148.5
21
-159.0
31
0
0
LINE
8
0
6
CONTINUOUS
10
-148.5
20
157.92
30
0
11
-148.5
21
-159.0
31
0
0
LINE
8
0
6
CONTINUOUS
10
-148.5
20
138.0
30
0
11
148.5
21
138.0
31
0
0
LINE
8
0
6
CONTINUOUS
10
-148.5
20
154.0
30
0
11
148.5
21
154.0
31
0
0
LINE
8
0
6
CONTINUOUS
10
-4.75
20
157.92
30
0
11
-4.75
21
-159.0
31
0
0
LINE
8
0
6
CONTINUOUS
10
4.75
20
157.92
30
0
11
4.75
21
-159.0
31
0
0
LINE
8
0
6
CONTINUOUS
10
148.5
20
-138.0
30
0
11
-148.5
21
-138.0
31
0
0
LINE
8
0
6
CONTINUOUS
10
148.5
20
-154.0
30
0
11
-148.5
21
-154.0
31
0
0
LINE
8
0
6
CONTINUOUS
10
0.0
20
157.92
30
0
11
0.0
21
-159.0
31
0
0
LINE
8
0
6
CONTINUOUS
10
-148.5
20
0.0
30
0
11
148.5
21
0.0
31
0
0
ARC
8
0
6
CONTINUOUS
10
24.75
20
-118.0
30
0
40
20.0
50
180.0
51
270.0
0
LINE
8
0
6
CONTINUOUS
10
4.75
20
-118.0
30
0
11
4.75
21
118.0
31
0
0
ARC
8
0
6
CONTINUOUS
10
24.75
20
118.0
30
0
40
20.0
50
90.0
51
180.0
0
LINE
8
0
6
CONTINUOUS
10
24.75
20
138.0
30
0
11
148.5
21
138.0
31
0
0
LINE
8
0
6
CONTINUOUS
10
148.5
20
138.0
30
0
11
148.5
21
154.0
31
0
0
LINE
8
0
6
CONTINUOUS
10
148.5
20
154.0
30
0
11
-148.5
21
154.0
31
0
0
LINE
8
0
6
CONTINUOUS
10
-148.5
20
154.0
30
0
11
-148.5
21
138.0
31
0
0
LINE
8
0
6
CONTINUOUS
10
-148.5
20
138.0
30
0
11
-24.75
21
138.0
31
0
0
ARC
8
0
6
CONTINUOUS
10
-24.75
20
118.0
30
0
40
20.0
50
0.0
51
90.0
0
LINE
8
0
6
CONTINUOUS
10
-4.75
20
118.0
30
0
11
-4.75
21
-118.0
31
0
0
ARC
8
0
6
CONTINUOUS
10
-24.75
20
-118.0
30
0
40
20.0
50
270.0
51
0.0
0
LINE
8
0
6
CONTINUOUS
10
-24.75
20
-138.0
30
0
11
-148.5
21
-138.0
31
0
0
LINE
8
0
6
CONTINUOUS
10
-148.5
20
-138.0
30
0
11
-148.5
21
-154.0
31
0
0
LINE
8
0
6
CONTINUOUS
10
-148.5
20
-154.0
30
0
11
148.5
21
-154.0
31
0
0
LINE
8
0
6
CONTINUOUS
10
148.5
20
-154.0
30
0
11
148.5
21
-138.0
31
0
0
LINE
8
0
6
CONTINUOUS
10
148.5
20
-138.0
30
0
11
24.75
21
-138.0
31
0
0
LINE
8
0
6
CONTINUOUS
10
148.5
20
-154.0
30
0
11
148.5
21
-138.0
31
0
0
LINE
8
0
6
CONTINUOUS
10
148.5
20
-138.0
30
0
11
24.75
21
-138.0
31
0
0
ARC
8
0
6
CONTINUOUS
10
24.75
20
-118.0
30
0
40
20.0
50
180.0
51
270.0
0
LINE
8
0
6
CONTINUOUS
10
4.75
20
-118.0
30
0
11
4.75
21
118.0
31
0
0
LINE
8
0
6
CONTINUOUS
10
148.5
20
-154.0
30
0
11
-148.5
21
-154.0
31
0
0
LINE
8
0
6
CONTINUOUS
10
-148.5
20
-154.0
30
0
11
-148.5
21
-138.0
31
0
0
LINE
8
0
6
CONTINUOUS
10
-148.5
20
-138.0
30
0
11
-24.75
21
-138.0
31
0
0
ARC
8
0
6
CONTINUOUS
10
-24.75
20
-118.0
30
0
40
20.0
50
270.0
51
0.0
0
LINE
8
0
6
CONTINUOUS
10
-4.75
20
-118.0
30
0
11
-4.75
21
118.0
31
0
0
LINE
8
0
6
CONTINUOUS
10
148.5
20
154.0
30
0
11
148.5
21
138.0
31
0
0
LINE
8
0
6
CONTINUOUS
10
148.5
20
138.0
30
0
11
24.75
21
138.0
31
0
0
ARC
8
0
6
CONTINUOUS
10
24.75
20
118.0
30
0
40
20.0
50
90.0
51
180.0
0
LINE
8
0
6
CONTINUOUS
10
148.5
20
154.0
30
0
11
-148.5
21
154.0
31
0
0
LINE
8
0
6
CONTINUOUS
10
-148.5
20
154.0
30
0
11
-148.5
21
138.0
31
0
0
LINE
8
0
6
CONTINUOUS
10
-148.5
20
138.0
30
0
11
-24.75
21
138.0
31
0
0
ARC
8
0
6
CONTINUOUS
10
-24.75
20
118.0
30
0
40
20.0
50
0.0
51
90.0
0
LINE
8
0
6
CENTER
10
-0.0
20
-159.0
30
0
11
-0.0
21
157.92
31
0
0
LINE
8
0
6
CENTER
10
-148.5
20
0.0
30
0
11
148.5
21
0.0
31
0
0
ENDSEC
0
EOF