0
SECTION
2
HEADER
0
ENDSEC
0
SECTION
2
TABLES
0
TABLE
2
LTYPE
70
3
0
LTYPE
2
CONTINUOUS
70
0
3
Solid line
72
65
73
0
40
0.0
0
LTYPE
2
CENTER
70
0
3
center
72
65
73
4
40
28.575
49
12.7
49
-6.35
49
3.175
49
-6.35
0
ENDTAB
0
TABLE
2
LAYER
70
1
0
LAYER
2
0
70
0
62
7
6
CONTINUOUS
0
ENDTAB
0
ENDSEC
0
SECTION
2
ENTITIES
0
LINE
8
0
6
CONTINUOUS
10
55.0
20
156.77
30
0
11
55.0
21
-75.32
31
0
0
LINE
8
0
6
CONTINUOUS
10
-55.0
20
156.77
30
0
11
-55.0
21
-75.32
31
0
0
LINE
8
0
6
CONTINUOUS
10
55.0
20
156.77
30
0
11
-55.0
21
156.77
31
0
0
LINE
8
0
6
CONTINUOUS
10
55.0
20
-75.32
30
0
11
-55.0
21
-75.32
31
0
0
LINE
8
0
6
CONTINUOUS
10
55.0
20
-60.55
30
0
11
-55.0
21
-60.55
31
0
0
LINE
8
0
6
CONTINUOUS
10
55.0
20
141.91
30
0
11
-55.0
21
141.91
31
0
0
LINE
8
0
6
CONTINUOUS
10
24.5
20
-75.32
30
0
11
24.5
21
156.77
31
0
0
LINE
8
0
6
CONTINUOUS
10
-24.5
20
156.77
30
0
11
-24.5
21
-75.32
31
0
0
LINE
8
0
6
CONTINUOUS
10
49.0
20
156.77
30
0
11
49.0
21
-75.32
31
0
0
LINE
8
0
6
CONTINUOUS
10
-49.0
20
156.77
30
0
11
-49.0
21
-75.32
31
0
0
LINE
8
0
6
CONTINUOUS
10
-55.0
20
150.68
30
0
11
55.0
21
150.68
31
0
0
LINE
8
0
6
CONTINUOUS
10
-4.05
20
156.77
30
0
11
-4.05
21
-75.32
31
0
0
LINE
8
0
6
CONTINUOUS
10
4.05
20
156.77
30
0
11
4.05
21
-75.32
31
0
0
LINE
8
0
6
CONTINUOUS
10
55.0
20
-69.32
30
0
11
-55.0
21
-69.32
31
0
0
LINE
8
0
6
CONTINUOUS
10
0.0
20
156.77
30
0
11
0.0
21
-75.32
31
0
0
LINE
8
0
6
CONTINUOUS
10
-55.0
20
40.68
30
0
11
55.0
21
40.68
31
0
0
LINE
8
0
6
CONTINUOUS
10
-49.0
20
-69.32
30
0
11
49.0
21
-69.32
31
0
0
LINE
8
0
6
CONTINUOUS
10
49.0
20
-69.32
30
0
11
49.0
21
-60.53
31
0
0
LINE
8
0
6
CONTINUOUS
10
49.0
20
-60.53
30
0
11
24.63
21
-57.12
31
0
0
LINE
8
0
6
CONTINUOUS
10
24.63
20
-57.12
30
0
11
8.48
21
-54.86
31
0
0
ARC
8
0
6
CONTINUOUS
10
12.149999952254866
20
-47.6391205279101
30
0
40
8.1
50
180.00622099247528
51
243.05812183096148
0
LINE
8
0
6
CONTINUOUS
10
4.05
20
-47.64
30
0
11
4.05
21
129.27
31
0
0
ARC
8
0
6
CONTINUOUS
10
12.149999783380022
20
129.27187329752036
30
0
40
8.1
50
122.14736812256278
51
180.01325086946235
0
LINE
8
0
6
CONTINUOUS
10
7.84
20
136.13
30
0
11
24.63
21
138.48
31
0
0
LINE
8
0
6
CONTINUOUS
10
24.63
20
138.48
30
0
11
49.0
21
141.89
31
0
0
LINE
8
0
6
CONTINUOUS
10
49.0
20
141.89
30
0
11
49.0
21
150.68
31
0
0
LINE
8
0
6
CONTINUOUS
10
49.0
20
150.68
30
0
11
-49.0
21
150.68
31
0
0
LINE
8
0
6
CONTINUOUS
10
-49.0
20
150.68
30
0
11
-49.0
21
141.89
31
0
0
LINE
8
0
6
CONTINUOUS
10
-49.0
20
141.89
30
0
11
-24.63
21
138.48
31
0
0
LINE
8
0
6
CONTINUOUS
10
-24.63
20
138.48
30
0
11
-6.38
21
135.93
31
0
0
ARC
8
0
6
CONTINUOUS
10
-12.149998340342854
20
130.2451852138842
30
0
40
8.1
50
359.9633221121323
51
44.573928607887936
0
LINE
8
0
6
CONTINUOUS
10
-4.05
20
130.24
30
0
11
-4.05
21
-48.96
31
0
0
ARC
8
0
6
CONTINUOUS
10
-12.149999754433988
20
-48.958005465128416
30
0
40
8.1
50
316.3406193895854
51
359.9858915516804
0
LINE
8
0
6
CONTINUOUS
10
-6.29
20
-54.55
30
0
11
-24.63
21
-57.12
31
0
0
LINE
8
0
6
CONTINUOUS
10
-24.63
20
-57.12
30
0
11
-49.0
21
-60.53
31
0
0
LINE
8
0
6
CONTINUOUS
10
-49.0
20
-60.53
30
0
11
-49.0
21
-69.32
31
0
0
LINE
8
0
6
CONTINUOUS
10
49.0
20
-69.32
30
0
11
49.0
21
-60.53
31
0
0
LINE
8
0
6
CONTINUOUS
10
4.05
20
-47.64
30
0
11
4.05
21
129.27
31
0
0
LINE
8
0
6
CONTINUOUS
10
49.0
20
-69.32
30
0
11
-49.0
21
-69.32
31
0
0
LINE
8
0
6
CONTINUOUS
10
-49.0
20
-69.32
30
0
11
-49.0
21
-60.53
31
0
0
ARC
8
0
6
CONTINUOUS
10
-12.149999754433988
20
-48.958005465128416
30
0
40
8.1
50
316.3406193895854
51
359.9858915516804
0
LINE
8
0
6
CONTINUOUS
10
-4.05
20
-48.96
30
0
11
-4.05
21
130.24
31
0
0
LINE
8
0
6
CONTINUOUS
10
49.0
20
141.89
30
0
11
24.63
21
138.48
31
0
0
ARC
8
0
6
CONTINUOUS
10
12.149999783380022
20
129.27187329752036
30
0
40
8.1
50
122.14736812256278
51
180.01325086946235
0
LINE
8
0
6
CONTINUOUS
10
49.0
20
150.68
30
0
11
-49.0
21
150.68
31
0
0
LINE
8
0
6
CONTINUOUS
10
-49.0
20
150.68
30
0
11
-49.0
21
141.89
31
0
0
LINE
8
0
6
CONTINUOUS
10
-49.0
20
141.89
30
0
11
-24.63
21
138.48
31
0
0
LINE
8
0
6
CONTINUOUS
10
-49.0
20
-60.53
30
0
11
-24.63
21
-57.12
31
0
0
LINE
8
0
6
CONTINUOUS
10
49.0
20
-60.53
30
0
11
24.63
21
-57.12
31
0
0
ARC
8
0
6
CONTINUOUS
10
12.149999952254866
20
-47.6391205279101
30
0
40
8.1
50
180.00622099247528
51
243.05812183096148
0
ARC
8
0
6
CONTINUOUS
10
-12.149998340342854
20
130.2451852138842
30
0
40
8.1
50
359.9633221121323
51
44.573928607887936
0
LINE
8
0
6
CONTINUOUS
10
49.0
20
150.68
30
0
11
49.0
21
141.89
31
0
0
LINE
8
0
6
CONTINUOUS
10
-24.63
20
-57.12
30
0
11
-6.29
21
-54.55
31
0
0
LINE
8
0
6
CONTINUOUS
10
24.63
20
-57.12
30
0
11
8.48
21
-54.86
31
0
0
LINE
8
0
6
CONTINUOUS
10
24.63
20
138.48
30
0
11
7.84
21
136.13
31
0
0
LINE
8
0
6
CONTINUOUS
10
-24.63
20
138.48
30
0
11
-6.38
21
135.93
31
0
0
LINE
8
0
6
CENTER
10
-0.0
20
-75.32
30
0
11
-0.0
21
156.77
31
0
0
LINE
8
0
6
CENTER
10
-55.0
20
40.66
30
0
11
55.0
21
40.66
31
0
0
ENDSEC
0
EOF