0
SECTION
2
HEADER
0
ENDSEC
0
SECTION
2
TABLES
0
TABLE
2
LTYPE
70
3
0
LTYPE
2
CONTINUOUS
70
0
3
Solid line
72
65
73
0
40
0.0
0
LTYPE
2
CENTER
70
0
3
center
72
65
73
4
40
28.575
49
12.7
49
-6.35
49
3.175
49
-6.35
0
ENDTAB
0
TABLE
2
LAYER
70
1
0
LAYER
2
0
70
0
62
7
6
CONTINUOUS
0
ENDTAB
0
ENDSEC
0
SECTION
2
ENTITIES
0
LINE
8
0
6
CONTINUOUS
10
80.5
20
236.77
30
0
11
80.5
21
-155.32
31
0
0
LINE
8
0
6
CONTINUOUS
10
-80.5
20
236.77
30
0
11
-80.5
21
-155.32
31
0
0
LINE
8
0
6
CONTINUOUS
10
80.5
20
236.77
30
0
11
-80.5
21
236.77
31
0
0
LINE
8
0
6
CONTINUOUS
10
80.5
20
-155.32
30
0
11
-80.5
21
-155.32
31
0
0
LINE
8
0
6
CONTINUOUS
10
80.5
20
-134.03
30
0
11
-80.5
21
-134.03
31
0
0
LINE
8
0
6
CONTINUOUS
10
80.5
20
215.4
30
0
11
-80.5
21
215.4
31
0
0
LINE
8
0
6
CONTINUOUS
10
37.25
20
-155.32
30
0
11
37.25
21
236.77
31
0
0
LINE
8
0
6
CONTINUOUS
10
-37.25
20
236.77
30
0
11
-37.25
21
-155.32
31
0
0
LINE
8
0
6
CONTINUOUS
10
74.5
20
236.77
30
0
11
74.5
21
-155.32
31
0
0
LINE
8
0
6
CONTINUOUS
10
-74.5
20
236.77
30
0
11
-74.5
21
-155.32
31
0
0
LINE
8
0
6
CONTINUOUS
10
-80.5
20
230.68
30
0
11
80.5
21
230.68
31
0
0
LINE
8
0
6
CONTINUOUS
10
-6.85
20
236.77
30
0
11
-6.85
21
-155.32
31
0
0
LINE
8
0
6
CONTINUOUS
10
6.85
20
236.77
30
0
11
6.85
21
-155.32
31
0
0
LINE
8
0
6
CONTINUOUS
10
80.5
20
-149.32
30
0
11
-80.5
21
-149.32
31
0
0
LINE
8
0
6
CONTINUOUS
10
0.0
20
236.77
30
0
11
0.0
21
-155.32
31
0
0
LINE
8
0
6
CONTINUOUS
10
-80.5
20
40.68
30
0
11
80.5
21
40.68
31
0
0
LINE
8
0
6
CONTINUOUS
10
-74.5
20
-149.32
30
0
11
74.5
21
-149.32
31
0
0
LINE
8
0
6
CONTINUOUS
10
74.5
20
-149.32
30
0
11
74.5
21
-134.02
31
0
0
LINE
8
0
6
CONTINUOUS
10
74.5
20
-134.02
30
0
11
37.38
21
-128.82
31
0
0
LINE
8
0
6
CONTINUOUS
10
37.38
20
-128.82
30
0
11
11.28
21
-125.16
31
0
0
ARC
8
0
6
CONTINUOUS
10
20.54999796112409
20
-115.0725256976409
30
0
40
13.7
50
180.03125883220622
51
227.41819435149392
0
LINE
8
0
6
CONTINUOUS
10
6.85
20
-115.08
30
0
11
6.85
21
196.97
31
0
0
ARC
8
0
6
CONTINUOUS
10
20.5499959697774
20
196.98050847672053
30
0
40
13.7
50
136.33237136862437
51
180.04394827914146
0
LINE
8
0
6
CONTINUOUS
10
10.64
20
206.44
30
0
11
37.38
21
210.18
31
0
0
LINE
8
0
6
CONTINUOUS
10
37.38
20
210.18
30
0
11
74.5
21
215.38
31
0
0
LINE
8
0
6
CONTINUOUS
10
74.5
20
215.38
30
0
11
74.5
21
230.68
31
0
0
LINE
8
0
6
CONTINUOUS
10
74.5
20
230.68
30
0
11
-74.5
21
230.68
31
0
0
LINE
8
0
6
CONTINUOUS
10
-74.5
20
230.68
30
0
11
-74.5
21
215.38
31
0
0
LINE
8
0
6
CONTINUOUS
10
-74.5
20
215.38
30
0
11
-37.38
21
210.18
31
0
0
LINE
8
0
6
CONTINUOUS
10
-37.38
20
210.18
30
0
11
-9.18
21
206.23
31
0
0
ARC
8
0
6
CONTINUOUS
10
-20.549999704230267
20
198.58715323156326
30
0
40
13.7
50
0.011905680135038873
51
33.908761598574074
0
LINE
8
0
6
CONTINUOUS
10
-6.85
20
198.59
30
0
11
-6.85
21
-117.35
31
0
0
ARC
8
0
6
CONTINUOUS
10
-20.54999971867525
20
-117.35277638217941
30
0
40
13.7
50
326.7719692751436
51
0.01161131257554188
0
LINE
8
0
6
CONTINUOUS
10
-9.09
20
-124.86
30
0
11
-37.38
21
-128.82
31
0
0
LINE
8
0
6
CONTINUOUS
10
-37.38
20
-128.82
30
0
11
-74.5
21
-134.02
31
0
0
LINE
8
0
6
CONTINUOUS
10
-74.5
20
-134.02
30
0
11
-74.5
21
-149.32
31
0
0
LINE
8
0
6
CONTINUOUS
10
74.5
20
-149.32
30
0
11
74.5
21
-134.02
31
0
0
LINE
8
0
6
CONTINUOUS
10
6.85
20
-115.08
30
0
11
6.85
21
196.97
31
0
0
LINE
8
0
6
CONTINUOUS
10
74.5
20
-149.32
30
0
11
-74.5
21
-149.32
31
0
0
LINE
8
0
6
CONTINUOUS
10
-74.5
20
-149.32
30
0
11
-74.5
21
-134.02
31
0
0
ARC
8
0
6
CONTINUOUS
10
-20.54999971867525
20
-117.35277638217941
30
0
40
13.7
50
326.7719692751436
51
0.01161131257554188
0
LINE
8
0
6
CONTINUOUS
10
-6.85
20
-117.35
30
0
11
-6.85
21
198.59
31
0
0
LINE
8
0
6
CONTINUOUS
10
74.5
20
215.38
30
0
11
37.38
21
210.18
31
0
0
ARC
8
0
6
CONTINUOUS
10
20.5499959697774
20
196.98050847672053
30
0
40
13.7
50
136.33237136862437
51
180.04394827914146
0
LINE
8
0
6
CONTINUOUS
10
74.5
20
230.68
30
0
11
-74.5
21
230.68
31
0
0
LINE
8
0
6
CONTINUOUS
10
-74.5
20
230.68
30
0
11
-74.5
21
215.38
31
0
0
LINE
8
0
6
CONTINUOUS
10
-74.5
20
215.38
30
0
11
-37.38
21
210.18
31
0
0
LINE
8
0
6
CONTINUOUS
10
-74.5
20
-134.02
30
0
11
-37.38
21
-128.82
31
0
0
LINE
8
0
6
CONTINUOUS
10
74.5
20
-134.02
30
0
11
37.38
21
-128.82
31
0
0
ARC
8
0
6
CONTINUOUS
10
20.54999796112409
20
-115.0725256976409
30
0
40
13.7
50
180.03125883220622
51
227.41819435149392
0
ARC
8
0
6
CONTINUOUS
10
-20.549999704230267
20
198.58715323156326
30
0
40
13.7
50
0.011905680135038873
51
33.908761598574074
0
LINE
8
0
6
CONTINUOUS
10
74.5
20
230.68
30
0
11
74.5
21
215.38
31
0
0
LINE
8
0
6
CONTINUOUS
10
-37.38
20
-128.82
30
0
11
-9.09
21
-124.86
31
0
0
LINE
8
0
6
CONTINUOUS
10
37.38
20
-128.82
30
0
11
11.28
21
-125.16
31
0
0
LINE
8
0
6
CONTINUOUS
10
37.38
20
210.18
30
0
11
10.64
21
206.44
31
0
0
LINE
8
0
6
CONTINUOUS
10
-37.38
20
210.18
30
0
11
-9.18
21
206.23
31
0
0
LINE
8
0
6
CENTER
10
-0.0
20
-155.32
30
0
11
-0.0
21
236.77
31
0
0
LINE
8
0
6
CENTER
10
-80.5
20
40.66
30
0
11
80.5
21
40.66
31
0
0
ENDSEC
0
EOF