0
SECTION
2
HEADER
0
ENDSEC
0
SECTION
2
TABLES
0
TABLE
2
LTYPE
70
3
0
LTYPE
2
CONTINUOUS
70
0
3
Solid line
72
65
73
0
40
0.0
0
LTYPE
2
CENTER
70
0
3
center
72
65
73
4
40
28.575
49
12.7
49
-6.35
49
3.175
49
-6.35
0
ENDTAB
0
TABLE
2
LAYER
70
1
0
LAYER
2
0
70
0
62
7
6
CONTINUOUS
0
ENDTAB
0
ENDSEC
0
SECTION
2
ENTITIES
0
LINE
8
0
6
CONTINUOUS
10
106.0
20
321.77
30
0
11
106.0
21
-240.32
31
0
0
LINE
8
0
6
CONTINUOUS
10
-106.0
20
321.77
30
0
11
-106.0
21
-240.32
31
0
0
LINE
8
0
6
CONTINUOUS
10
106.0
20
321.77
30
0
11
-106.0
21
321.77
31
0
0
LINE
8
0
6
CONTINUOUS
10
106.0
20
-240.32
30
0
11
-106.0
21
-240.32
31
0
0
LINE
8
0
6
CONTINUOUS
10
106.0
20
-211.32
30
0
11
-106.0
21
-211.32
31
0
0
LINE
8
0
6
CONTINUOUS
10
106.0
20
292.68
30
0
11
-106.0
21
292.68
31
0
0
LINE
8
0
6
CONTINUOUS
10
50.0
20
-240.32
30
0
11
50.0
21
321.77
31
0
0
LINE
8
0
6
CONTINUOUS
10
-50.0
20
321.77
30
0
11
-50.0
21
-240.32
31
0
0
LINE
8
0
6
CONTINUOUS
10
100.0
20
321.77
30
0
11
100.0
21
-240.32
31
0
0
LINE
8
0
6
CONTINUOUS
10
-100.0
20
321.77
30
0
11
-100.0
21
-240.32
31
0
0
LINE
8
0
6
CONTINUOUS
10
-106.0
20
315.68
30
0
11
106.0
21
315.68
31
0
0
LINE
8
0
6
CONTINUOUS
10
-9.5
20
321.77
30
0
11
-9.5
21
-240.32
31
0
0
LINE
8
0
6
CONTINUOUS
10
9.5
20
321.77
30
0
11
9.5
21
-240.32
31
0
0
LINE
8
0
6
CONTINUOUS
10
106.0
20
-234.32
30
0
11
-106.0
21
-234.32
31
0
0
LINE
8
0
6
CONTINUOUS
10
0.0
20
321.77
30
0
11
0.0
21
-240.32
31
0
0
LINE
8
0
6
CONTINUOUS
10
-106.0
20
40.68
30
0
11
106.0
21
40.68
31
0
0
LINE
8
0
6
CONTINUOUS
10
-100.0
20
-234.32
30
0
11
100.0
21
-234.32
31
0
0
LINE
8
0
6
CONTINUOUS
10
100.0
20
-234.32
30
0
11
100.0
21
-211.3
31
0
0
LINE
8
0
6
CONTINUOUS
10
100.0
20
-211.3
30
0
11
50.13
21
-204.32
31
0
0
LINE
8
0
6
CONTINUOUS
10
50.13
20
-204.32
30
0
11
13.93
21
-199.25
31
0
0
ARC
8
0
6
CONTINUOUS
10
28.499999373094052
20
-187.05511917778452
30
0
40
19.0
50
180.01471844824087
51
219.9288495344562
0
LINE
8
0
6
CONTINUOUS
10
9.5
20
-187.06
30
0
11
9.5
21
269.13
31
0
0
ARC
8
0
6
CONTINUOUS
10
28.499999705527763
20
269.1333451374934
30
0
40
19.0
50
143.18038976051668
51
180.01008748743433
0
LINE
8
0
6
CONTINUOUS
10
13.29
20
280.52
30
0
11
50.13
21
285.68
31
0
0
LINE
8
0
6
CONTINUOUS
10
50.13
20
285.68
30
0
11
100.0
21
292.66
31
0
0
LINE
8
0
6
CONTINUOUS
10
100.0
20
292.66
30
0
11
100.0
21
315.68
31
0
0
LINE
8
0
6
CONTINUOUS
10
100.0
20
315.68
30
0
11
-100.0
21
315.68
31
0
0
LINE
8
0
6
CONTINUOUS
10
-100.0
20
315.68
30
0
11
-100.0
21
292.66
31
0
0
LINE
8
0
6
CONTINUOUS
10
-100.0
20
292.66
30
0
11
-50.13
21
285.68
31
0
0
LINE
8
0
6
CONTINUOUS
10
-50.13
20
285.68
30
0
11
-11.83
21
280.32
31
0
0
ARC
8
0
6
CONTINUOUS
10
-28.49999968304732
20
271.20347047571266
30
0
40
19.0
50
359.9895345467187
51
28.67347310366351
0
LINE
8
0
6
CONTINUOUS
10
-9.5
20
271.2
30
0
11
-9.5
21
-189.99
31
0
0
ARC
8
0
6
CONTINUOUS
10
-28.49999999999918
20
-189.9900055865924
30
0
40
19.0
50
331.8973722541033
51
1.684674553806728e-05
0
LINE
8
0
6
CONTINUOUS
10
-11.74
20
-198.94
30
0
11
-50.13
21
-204.32
31
0
0
LINE
8
0
6
CONTINUOUS
10
-50.13
20
-204.32
30
0
11
-100.0
21
-211.3
31
0
0
LINE
8
0
6
CONTINUOUS
10
-100.0
20
-211.3
30
0
11
-100.0
21
-234.32
31
0
0
LINE
8
0
6
CONTINUOUS
10
100.0
20
-234.32
30
0
11
100.0
21
-211.3
31
0
0
LINE
8
0
6
CONTINUOUS
10
9.5
20
-187.06
30
0
11
9.5
21
269.13
31
0
0
LINE
8
0
6
CONTINUOUS
10
100.0
20
-234.32
30
0
11
-100.0
21
-234.32
31
0
0
LINE
8
0
6
CONTINUOUS
10
-100.0
20
-234.32
30
0
11
-100.0
21
-211.3
31
0
0
ARC
8
0
6
CONTINUOUS
10
-28.49999999999918
20
-189.9900055865924
30
0
40
19.0
50
331.8973722541033
51
1.684674553806728e-05
0
LINE
8
0
6
CONTINUOUS
10
-9.5
20
-189.99
30
0
11
-9.5
21
271.2
31
0
0
LINE
8
0
6
CONTINUOUS
10
100.0
20
292.66
30
0
11
50.13
21
285.68
31
0
0
ARC
8
0
6
CONTINUOUS
10
28.499999705527763
20
269.1333451374934
30
0
40
19.0
50
143.18038976051668
51
180.01008748743433
0
LINE
8
0
6
CONTINUOUS
10
100.0
20
315.68
30
0
11
-100.0
21
315.68
31
0
0
LINE
8
0
6
CONTINUOUS
10
-100.0
20
315.68
30
0
11
-100.0
21
292.66
31
0
0
LINE
8
0
6
CONTINUOUS
10
-100.0
20
292.66
30
0
11
-50.13
21
285.68
31
0
0
LINE
8
0
6
CONTINUOUS
10
-100.0
20
-211.3
30
0
11
-50.13
21
-204.32
31
0
0
LINE
8
0
6
CONTINUOUS
10
100.0
20
-211.3
30
0
11
50.13
21
-204.32
31
0
0
ARC
8
0
6
CONTINUOUS
10
28.499999373094052
20
-187.05511917778452
30
0
40
19.0
50
180.01471844824087
51
219.9288495344562
0
ARC
8
0
6
CONTINUOUS
10
-28.49999968304732
20
271.20347047571266
30
0
40
19.0
50
359.9895345467187
51
28.67347310366351
0
LINE
8
0
6
CONTINUOUS
10
100.0
20
315.68
30
0
11
100.0
21
292.66
31
0
0
LINE
8
0
6
CONTINUOUS
10
-50.13
20
-204.32
30
0
11
-11.74
21
-198.94
31
0
0
LINE
8
0
6
CONTINUOUS
10
50.13
20
-204.32
30
0
11
13.93
21
-199.25
31
0
0
LINE
8
0
6
CONTINUOUS
10
50.13
20
285.68
30
0
11
13.29
21
280.52
31
0
0
LINE
8
0
6
CONTINUOUS
10
-50.13
20
285.68
30
0
11
-11.83
21
280.32
31
0
0
LINE
8
0
6
CENTER
10
-0.0
20
-240.32
30
0
11
-0.0
21
321.77
31
0
0
LINE
8
0
6
CENTER
10
-106.0
20
40.66
30
0
11
106.0
21
40.66
31
0
0
ENDSEC
0
EOF