0
SECTION
2
HEADER
0
ENDSEC
0
SECTION
2
TABLES
0
TABLE
2
LTYPE
70
3
0
LTYPE
2
CONTINUOUS
70
0
3
Solid line
72
65
73
0
40
0.0
0
LTYPE
2
CENTER
70
0
3
center
72
65
73
4
40
28.575
49
12.7
49
-6.35
49
3.175
49
-6.35
0
ENDTAB
0
TABLE
2
LAYER
70
1
0
LAYER
2
0
70
0
62
7
6
CONTINUOUS
0
ENDTAB
0
ENDSEC
0
SECTION
2
ENTITIES
0
LINE
8
0
6
CONTINUOUS
10
-27.0
20
-35.0
30
0
11
-27.0
21
35.0
31
0
0
LINE
8
0
6
CONTINUOUS
10
-30.0
20
-35.0
30
0
11
-30.0
21
35.0
31
0
0
LINE
8
0
6
CONTINUOUS
10
27.0
20
35.0
30
0
11
27.0
21
-35.0
31
0
0
LINE
8
0
6
CONTINUOUS
10
30.0
20
35.0
30
0
11
30.0
21
-35.0
31
0
0
LINE
8
0
6
CONTINUOUS
10
36.08
20
27.0
30
0
11
-35.0
21
27.0
31
0
0
LINE
8
0
6
CONTINUOUS
10
36.08
20
-27.0
30
0
11
-35.0
21
-27.0
31
0
0
LINE
8
0
6
CONTINUOUS
10
36.08
20
-30.0
30
0
11
-35.0
21
-30.0
31
0
0
LINE
8
0
6
CONTINUOUS
10
36.08
20
30.0
30
0
11
-35.0
21
30.0
31
0
0
LINE
8
0
6
CONTINUOUS
10
0.0
20
-35.0
30
0
11
0.0
21
35.0
31
0
0
LINE
8
0
6
CONTINUOUS
10
-35.0
20
0.0
30
0
11
36.08
21
0.0
31
0
0
ARC
8
0
6
CONTINUOUS
10
24.15
20
24.15
30
0
40
2.85
50
0.0
51
90.0
0
LINE
8
0
6
CONTINUOUS
10
27.0
20
24.15
30
0
11
27.0
21
-24.15
31
0
0
ARC
8
0
6
CONTINUOUS
10
24.15
20
-24.15
30
0
40
2.85
50
270.0
51
0.0
0
LINE
8
0
6
CONTINUOUS
10
24.15
20
-27.0
30
0
11
-24.15
21
-27.0
31
0
0
ARC
8
0
6
CONTINUOUS
10
-24.15
20
-24.15
30
0
40
2.85
50
180.0
51
270.0
0
LINE
8
0
6
CONTINUOUS
10
-27.0
20
-24.15
30
0
11
-27.0
21
24.15
31
0
0
ARC
8
0
6
CONTINUOUS
10
-24.15
20
24.15
30
0
40
2.85
50
90.0
51
180.0
0
LINE
8
0
6
CONTINUOUS
10
-24.15
20
27.0
30
0
11
24.15
21
27.0
31
0
0
ARC
8
0
6
CONTINUOUS
10
25.65
20
25.65
30
0
40
4.35
50
0.0
51
90.0
0
LINE
8
0
6
CONTINUOUS
10
25.65
20
30.0
30
0
11
-25.65
21
30.0
31
0
0
ARC
8
0
6
CONTINUOUS
10
-25.65
20
25.65
30
0
40
4.35
50
90.0
51
180.0
0
LINE
8
0
6
CONTINUOUS
10
-30.0
20
25.65
30
0
11
-30.0
21
-25.65
31
0
0
ARC
8
0
6
CONTINUOUS
10
-25.65
20
-25.65
30
0
40
4.35
50
180.0
51
270.0
0
LINE
8
0
6
CONTINUOUS
10
-25.65
20
-30.0
30
0
11
25.65
21
-30.0
31
0
0
ARC
8
0
6
CONTINUOUS
10
25.65
20
-25.65
30
0
40
4.35
50
270.0
51
0.0
0
LINE
8
0
6
CONTINUOUS
10
30.0
20
-25.65
30
0
11
30.0
21
25.65
31
0
0
LINE
8
0
6
CONTINUOUS
10
-25.65
20
30.0
30
0
11
25.65
21
30.0
31
0
0
LINE
8
0
6
CONTINUOUS
10
-30.0
20
-25.65
30
0
11
-30.0
21
25.65
31
0
0
LINE
8
0
6
CONTINUOUS
10
25.65
20
-30.0
30
0
11
-25.65
21
-30.0
31
0
0
LINE
8
0
6
CONTINUOUS
10
30.0
20
25.65
30
0
11
30.0
21
-25.65
31
0
0
LINE
8
0
6
CONTINUOUS
10
-24.15
20
27.0
30
0
11
24.15
21
27.0
31
0
0
LINE
8
0
6
CONTINUOUS
10
-27.0
20
-24.15
30
0
11
-27.0
21
24.15
31
0
0
LINE
8
0
6
CONTINUOUS
10
24.15
20
-27.0
30
0
11
-24.15
21
-27.0
31
0
0
LINE
8
0
6
CONTINUOUS
10
27.0
20
24.15
30
0
11
27.0
21
-24.15
31
0
0
ARC
8
0
6
CONTINUOUS
10
-25.65
20
25.65
30
0
40
4.35
50
90.0
51
180.0
0
ARC
8
0
6
CONTINUOUS
10
25.65
20
25.65
30
0
40
4.35
50
0.0
51
90.0
0
ARC
8
0
6
CONTINUOUS
10
-25.65
20
-25.65
30
0
40
4.35
50
180.0
51
270.0
0
ARC
8
0
6
CONTINUOUS
10
25.65
20
-25.65
30
0
40
4.35
50
270.0
51
0.0
0
ARC
8
0
6
CONTINUOUS
10
-24.15
20
24.15
30
0
40
2.85
50
90.0
51
180.0
0
ARC
8
0
6
CONTINUOUS
10
24.15
20
24.15
30
0
40
2.85
50
0.0
51
90.0
0
ARC
8
0
6
CONTINUOUS
10
24.15
20
-24.15
30
0
40
2.85
50
270.0
51
0.0
0
ARC
8
0
6
CONTINUOUS
10
-24.15
20
-24.15
30
0
40
2.85
50
180.0
51
270.0
0
LINE
8
0
6
CENTER
10
-35.0
20
0.0
30
0
11
36.08
21
0.0
31
0
0
LINE
8
0
6
CENTER
10
-0.0
20
35.0
30
0
11
-0.0
21
-35.0
31
0
0
ENDSEC
0
EOF