0
SECTION
2
HEADER
0
ENDSEC
0
SECTION
2
TABLES
0
TABLE
2
LTYPE
70
3
0
LTYPE
2
CONTINUOUS
70
0
3
Solid line
72
65
73
0
40
0.0
0
LTYPE
2
CENTER
70
0
3
center
72
65
73
4
40
28.575
49
12.7
49
-6.35
49
3.175
49
-6.35
0
ENDTAB
0
TABLE
2
LAYER
70
1
0
LAYER
2
0
70
0
62
7
6
CONTINUOUS
0
ENDTAB
0
ENDSEC
0
SECTION
2
ENTITIES
0
LINE
8
0
6
CONTINUOUS
10
98.5
20
296.77
30
0
11
98.5
21
-215.32
31
0
0
LINE
8
0
6
CONTINUOUS
10
-98.5
20
296.77
30
0
11
-98.5
21
-215.32
31
0
0
LINE
8
0
6
CONTINUOUS
10
98.5
20
296.77
30
0
11
-98.5
21
296.77
31
0
0
LINE
8
0
6
CONTINUOUS
10
98.5
20
-215.32
30
0
11
-98.5
21
-215.32
31
0
0
LINE
8
0
6
CONTINUOUS
10
98.5
20
-188.79
30
0
11
-98.5
21
-188.79
31
0
0
LINE
8
0
6
CONTINUOUS
10
98.5
20
270.16
30
0
11
-98.5
21
270.16
31
0
0
LINE
8
0
6
CONTINUOUS
10
46.25
20
-215.32
30
0
11
46.25
21
296.77
31
0
0
LINE
8
0
6
CONTINUOUS
10
-46.25
20
296.77
30
0
11
-46.25
21
-215.32
31
0
0
LINE
8
0
6
CONTINUOUS
10
92.5
20
296.77
30
0
11
92.5
21
-215.32
31
0
0
LINE
8
0
6
CONTINUOUS
10
-92.5
20
296.77
30
0
11
-92.5
21
-215.32
31
0
0
LINE
8
0
6
CONTINUOUS
10
-98.5
20
290.68
30
0
11
98.5
21
290.68
31
0
0
LINE
8
0
6
CONTINUOUS
10
-9.0
20
296.77
30
0
11
-9.0
21
-215.32
31
0
0
LINE
8
0
6
CONTINUOUS
10
9.0
20
296.77
30
0
11
9.0
21
-215.32
31
0
0
LINE
8
0
6
CONTINUOUS
10
98.5
20
-209.32
30
0
11
-98.5
21
-209.32
31
0
0
LINE
8
0
6
CONTINUOUS
10
0.0
20
296.77
30
0
11
0.0
21
-215.32
31
0
0
LINE
8
0
6
CONTINUOUS
10
-98.5
20
40.68
30
0
11
98.5
21
40.68
31
0
0
LINE
8
0
6
CONTINUOUS
10
-92.5
20
-209.32
30
0
11
92.5
21
-209.32
31
0
0
LINE
8
0
6
CONTINUOUS
10
92.5
20
-209.32
30
0
11
92.5
21
-188.78
31
0
0
LINE
8
0
6
CONTINUOUS
10
92.5
20
-188.78
30
0
11
46.38
21
-182.32
31
0
0
LINE
8
0
6
CONTINUOUS
10
46.38
20
-182.32
30
0
11
13.43
21
-177.7
31
0
0
ARC
8
0
6
CONTINUOUS
10
26.999998987964066
20
-165.8739640002808
30
0
40
18.0
50
180.01921318419627
51
221.07162708200582
0
LINE
8
0
6
CONTINUOUS
10
9.0
20
-165.88
30
0
11
9.0
21
247.92
31
0
0
ARC
8
0
6
CONTINUOUS
10
26.999996516050043
20
247.93119920471705
30
0
40
18.0
50
142.1336061704044
51
180.03564817808828
0
LINE
8
0
6
CONTINUOUS
10
12.79
20
258.98
30
0
11
46.38
21
263.68
31
0
0
LINE
8
0
6
CONTINUOUS
10
46.38
20
263.68
30
0
11
92.5
21
270.14
31
0
0
LINE
8
0
6
CONTINUOUS
10
92.5
20
270.14
30
0
11
92.5
21
290.68
31
0
0
LINE
8
0
6
CONTINUOUS
10
92.5
20
290.68
30
0
11
-92.5
21
290.68
31
0
0
LINE
8
0
6
CONTINUOUS
10
-92.5
20
290.68
30
0
11
-92.5
21
270.14
31
0
0
LINE
8
0
6
CONTINUOUS
10
-92.5
20
270.14
30
0
11
-46.38
21
263.68
31
0
0
LINE
8
0
6
CONTINUOUS
10
-46.38
20
263.68
30
0
11
-11.33
21
258.77
31
0
0
ARC
8
0
6
CONTINUOUS
10
-26.999998533821746
20
249.91273484928757
30
0
40
18.0
50
0.023125693591660418
51
29.47674653758725
0
LINE
8
0
6
CONTINUOUS
10
-9.0
20
249.92
30
0
11
-9.0
21
-168.7
31
0
0
ARC
8
0
6
CONTINUOUS
10
-26.99999958070804
20
-168.70388516542693
30
0
40
18.0
50
331.11079101420495
51
0.012366865744558172
0
LINE
8
0
6
CONTINUOUS
10
-11.24
20
-177.4
30
0
11
-46.38
21
-182.32
31
0
0
LINE
8
0
6
CONTINUOUS
10
-46.38
20
-182.32
30
0
11
-92.5
21
-188.78
31
0
0
LINE
8
0
6
CONTINUOUS
10
-92.5
20
-188.78
30
0
11
-92.5
21
-209.32
31
0
0
LINE
8
0
6
CONTINUOUS
10
92.5
20
-209.32
30
0
11
92.5
21
-188.78
31
0
0
LINE
8
0
6
CONTINUOUS
10
9.0
20
-165.88
30
0
11
9.0
21
247.92
31
0
0
LINE
8
0
6
CONTINUOUS
10
92.5
20
-209.32
30
0
11
-92.5
21
-209.32
31
0
0
LINE
8
0
6
CONTINUOUS
10
-92.5
20
-209.32
30
0
11
-92.5
21
-188.78
31
0
0
ARC
8
0
6
CONTINUOUS
10
-26.99999958070804
20
-168.70388516542693
30
0
40
18.0
50
331.11079101420495
51
0.012366865744558172
0
LINE
8
0
6
CONTINUOUS
10
-9.0
20
-168.7
30
0
11
-9.0
21
249.92
31
0
0
LINE
8
0
6
CONTINUOUS
10
92.5
20
270.14
30
0
11
46.38
21
263.68
31
0
0
ARC
8
0
6
CONTINUOUS
10
26.999996516050043
20
247.93119920471705
30
0
40
18.0
50
142.1336061704044
51
180.03564817808828
0
LINE
8
0
6
CONTINUOUS
10
92.5
20
290.68
30
0
11
-92.5
21
290.68
31
0
0
LINE
8
0
6
CONTINUOUS
10
-92.5
20
290.68
30
0
11
-92.5
21
270.14
31
0
0
LINE
8
0
6
CONTINUOUS
10
-92.5
20
270.14
30
0
11
-46.38
21
263.68
31
0
0
LINE
8
0
6
CONTINUOUS
10
-92.5
20
-188.78
30
0
11
-46.38
21
-182.32
31
0
0
LINE
8
0
6
CONTINUOUS
10
92.5
20
-188.78
30
0
11
46.38
21
-182.32
31
0
0
ARC
8
0
6
CONTINUOUS
10
26.999998987964066
20
-165.8739640002808
30
0
40
18.0
50
180.01921318419627
51
221.07162708200582
0
ARC
8
0
6
CONTINUOUS
10
-26.999998533821746
20
249.91273484928757
30
0
40
18.0
50
0.023125693591660418
51
29.47674653758725
0
LINE
8
0
6
CONTINUOUS
10
92.5
20
290.68
30
0
11
92.5
21
270.14
31
0
0
LINE
8
0
6
CONTINUOUS
10
-46.38
20
-182.32
30
0
11
-11.24
21
-177.4
31
0
0
LINE
8
0
6
CONTINUOUS
10
46.38
20
-182.32
30
0
11
13.43
21
-177.7
31
0
0
LINE
8
0
6
CONTINUOUS
10
46.38
20
263.68
30
0
11
12.79
21
258.98
31
0
0
LINE
8
0
6
CONTINUOUS
10
-46.38
20
263.68
30
0
11
-11.33
21
258.77
31
0
0
LINE
8
0
6
CENTER
10
-0.0
20
-215.32
30
0
11
-0.0
21
296.77
31
0
0
LINE
8
0
6
CENTER
10
-98.5
20
40.66
30
0
11
98.5
21
40.66
31
0
0
ENDSEC
0
EOF