0
SECTION
2
HEADER
0
ENDSEC
0
SECTION
2
TABLES
0
TABLE
2
LTYPE
70
2
0
LTYPE
2
CONTINUOUS
70
0
3
Solid line
72
65
73
0
40
0.0
0
ENDTAB
0
TABLE
2
LAYER
70
1
0
LAYER
2
0
70
0
62
7
6
CONTINUOUS
0
ENDTAB
0
ENDSEC
0
SECTION
2
ENTITIES
0
LINE
8
0
6
CONTINUOUS
10
12.5
20
-50.0
30
0
11
-12.5
21
-50.0
31
0
0
LINE
8
0
6
CONTINUOUS
10
12.5
20
-50.0
30
0
11
-12.5
21
-50.0
31
0
0
LINE
8
0
6
CONTINUOUS
10
12.5
20
-50.0
30
0
11
-12.5
21
-50.0
31
0
0
LINE
8
0
6
CONTINUOUS
10
12.5
20
-50.0
30
0
11
-12.5
21
-50.0
31
0
0
LINE
8
0
6
CONTINUOUS
10
12.5
20
-50.0
30
0
11
-12.5
21
-50.0
31
0
0
LINE
8
0
6
CONTINUOUS
10
4.0
20
17.35
30
0
11
4.0
21
-61.23
31
0
0
LINE
8
0
6
CONTINUOUS
10
-4.0
20
17.35
30
0
11
-4.0
21
-61.23
31
0
0
LINE
8
0
6
CONTINUOUS
10
0.0
20
-61.23
30
0
11
0.0
21
17.35
31
0
0
LINE
8
0
6
CONTINUOUS
10
-12.5
20
0.0
30
0
11
12.5
21
0.0
31
0
0
LINE
8
0
6
CONTINUOUS
10
-5.0
20
-0.0
30
0
11
-5.0
21
-4.13
31
0
0
LINE
8
0
6
CONTINUOUS
10
5.0
20
-4.13
30
0
11
5.0
21
-0.0
31
0
0
LINE
8
0
6
CONTINUOUS
10
-8.19
20
2.0
30
0
11
-8.19
21
8.33
31
0
0
ARC
8
0
6
CONTINUOUS
10
-6.39
20
4.48
30
0
40
4.25
50
64.94238458169698
51
115.05761541830302
0
ARC
8
0
6
CONTINUOUS
10
6.395
20
4.477666291713554
30
0
40
4.25
50
65.01677212920518
51
114.98322787079482
0
LINE
8
0
6
CONTINUOUS
10
7.5
20
8.73
30
0
11
8.19
21
8.33
31
0
0
LINE
8
0
6
CONTINUOUS
10
-7.5
20
8.73
30
0
11
7.5
21
8.73
31
0
0
LINE
8
0
6
CONTINUOUS
10
-8.19
20
8.33
30
0
11
-7.5
21
8.73
31
0
0
LINE
8
0
6
CONTINUOUS
10
-5.0
20
10.1
30
0
11
-3.75
21
12.1
31
0
0
LINE
8
0
6
CONTINUOUS
10
-5.0
20
10.1
30
0
11
5.0
21
10.1
31
0
0
LINE
8
0
6
CONTINUOUS
10
3.75
20
12.1
30
0
11
5.0
21
10.1
31
0
0
LINE
8
0
6
CONTINUOUS
10
-3.75
20
13.2
30
0
11
-3.75
21
12.1
31
0
0
LINE
8
0
6
CONTINUOUS
10
3.35
20
14.23
30
0
11
-3.35
21
14.23
31
0
0
LINE
8
0
6
CONTINUOUS
10
-3.75
20
13.2
30
0
11
3.75
21
13.2
31
0
0
LINE
8
0
6
CONTINUOUS
10
-3.75
20
12.1
30
0
11
3.75
21
12.1
31
0
0
ARC
8
0
6
CONTINUOUS
10
-6.39
20
5.85
30
0
40
4.25
50
244.94238458169698
51
295.05761541830304
0
ARC
8
0
6
CONTINUOUS
10
6.395
20
5.852333708286446
30
0
40
4.25
50
245.01677212920518
51
294.98322787079485
0
LINE
8
0
6
CONTINUOUS
10
8.19
20
2.0
30
0
11
7.5
21
1.6
31
0
0
LINE
8
0
6
CONTINUOUS
10
-7.5
20
1.6
30
0
11
-8.19
21
2.0
31
0
0
LINE
8
0
6
CONTINUOUS
10
-9.5
20
1.6
30
0
11
-7.5
21
1.6
31
0
0
LINE
8
0
6
CONTINUOUS
10
-9.5
20
0.0
30
0
11
-9.5
21
1.6
31
0
0
LINE
8
0
6
CONTINUOUS
10
9.5
20
0.0
30
0
11
-9.5
21
0.0
31
0
0
LINE
8
0
6
CONTINUOUS
10
9.5
20
1.6
30
0
11
9.5
21
0.0
31
0
0
LINE
8
0
6
CONTINUOUS
10
7.5
20
1.6
30
0
11
9.5
21
1.6
31
0
0
LINE
8
0
6
CONTINUOUS
10
7.5
20
1.6
30
0
11
-7.5
21
1.6
31
0
0
LINE
8
0
6
CONTINUOUS
10
-5.0
20
-4.13
30
0
11
-5.0
21
-0.0
31
0
0
LINE
8
0
6
CONTINUOUS
10
-4.23
20
-0.0
30
0
11
-4.23
21
-4.13
31
0
0
LINE
8
0
6
CONTINUOUS
10
4.23
20
-4.13
30
0
11
4.23
21
-0.0
31
0
0
LINE
8
0
6
CONTINUOUS
10
-4.59
20
8.33
30
0
11
-4.59
21
2.62
31
0
0
LINE
8
0
6
CONTINUOUS
10
4.6
20
8.33
30
0
11
4.6
21
2.62
31
0
0
LINE
8
0
6
CONTINUOUS
10
8.19
20
8.33
30
0
11
8.19
21
2.62
31
0
0
LINE
8
0
6
CONTINUOUS
10
-4.5
20
-22.05
30
0
11
-4.5
21
-5.0
31
0
0
LINE
8
0
6
CONTINUOUS
10
4.5
20
-5.0
30
0
11
4.5
21
-22.05
31
0
0
LINE
8
0
6
CONTINUOUS
10
4.5
20
-22.05
30
0
11
-4.5
21
-22.05
31
0
0
LINE
8
0
6
CONTINUOUS
10
-4.87
20
-22.2
30
0
11
4.88
21
-22.2
31
0
0
LINE
8
0
6
CONTINUOUS
10
-4.87
20
-24.2
30
0
11
-4.87
21
-22.2
31
0
0
LINE
8
0
6
CONTINUOUS
10
2.0
20
-24.2
30
0
11
-4.0
21
-24.2
31
0
0
LINE
8
0
6
CONTINUOUS
10
4.88
20
-22.2
30
0
11
4.88
21
-24.2
31
0
0
LINE
8
0
6
CONTINUOUS
10
4.88
20
-24.2
30
0
11
-4.87
21
-24.2
31
0
0
ARC
8
0
6
CONTINUOUS
10
-4.4
20
-24.8
30
0
40
0.6
50
90.0
51
180.0
0
LINE
8
0
6
CONTINUOUS
10
4.3
20
-24.2
30
0
11
4.3
21
-25.2
31
0
0
LINE
8
0
6
CONTINUOUS
10
4.3
20
-25.2
30
0
11
5.7
21
-25.2
31
0
0
LINE
8
0
6
CONTINUOUS
10
5.7
20
-25.2
30
0
11
5.0
21
-28.0
31
0
0
ARC
8
0
6
CONTINUOUS
10
6.3645552255110305
20
-30.673208813970323
30
0
40
1.88
50
136.53770864845504
51
166.0503862647429
0
ARC
8
0
6
CONTINUOUS
10
10.05880411295454
20
-31.4763443647488
30
0
40
5.66
50
167.1752936117861
51
178.8221712732233
0
ARC
8
0
6
CONTINUOUS
10
-3.170491888665646
20
-31.079656675672393
30
0
40
1.91
50
354.2806272375045
51
78.20292877678023
0
ARC
8
0
6
CONTINUOUS
10
-1.9497788171844879
20
-31.223329200811797
30
0
40
2.1
50
109.18847950039284
51
164.1563092217856
0
ARC
8
0
6
CONTINUOUS
10
-2.292102027111251
20
-31.201094063084682
30
0
40
2.05
50
103.76847041990655
51
195.24107613448635
0
ARC
8
0
6
CONTINUOUS
10
-2.93721455267947
20
-30.98304359349278
30
0
40
1.78
50
84.93287467873016
51
187.9749162514876
0
ARC
8
0
6
CONTINUOUS
10
-4.381436145735528
20
-31.397681456208385
30
0
40
0.36
50
152.23916798136165
51
288.03180314311766
0
LINE
8
0
6
CONTINUOUS
10
-3.34
20
-40.2
30
0
11
-3.34
21
-31.64
31
0
0
LINE
8
0
6
CONTINUOUS
10
-3.05
20
-31.82
30
0
11
-3.05
21
-40.2
31
0
0
LINE
8
0
6
CONTINUOUS
10
-2.73
20
-40.2
30
0
11
-2.73
21
-32.25
31
0
0
LINE
8
0
6
CONTINUOUS
10
-2.64
20
-31.69
30
0
11
-2.64
21
-40.2
31
0
0
ARC
8
0
6
CONTINUOUS
10
-1.5571770503299731
20
-31.452014674583605
30
0
40
0.34
50
224.42354132724245
51
32.366787679249796
0
LINE
8
0
6
CONTINUOUS
10
4.9
20
-38.6
30
0
11
0.8
21
-38.6
31
0
0
LINE
8
0
6
CONTINUOUS
10
0.8
20
-38.6
30
0
11
0.8
21
-37.2
31
0
0
LINE
8
0
6
CONTINUOUS
10
0.8
20
-37.2
30
0
11
4.9
21
-37.2
31
0
0
LINE
8
0
6
CONTINUOUS
10
4.9
20
-37.2
30
0
11
4.9
21
-38.6
31
0
0
LINE
8
0
6
CONTINUOUS
10
-5.0
20
-38.6
30
0
11
-5.4
21
-37.2
31
0
0
LINE
8
0
6
CONTINUOUS
10
-3.93
20
-37.2
30
0
11
-3.93
21
-38.6
31
0
0
LINE
8
0
6
CONTINUOUS
10
-4.47
20
-37.2
30
0
11
-4.47
21
-38.6
31
0
0
LINE
8
0
6
CONTINUOUS
10
-4.43
20
-40.2
30
0
11
-5.0
21
-42.0
31
0
0
LINE
8
0
6
CONTINUOUS
10
-5.0
20
-42.0
30
0
11
-3.3
21
-42.0
31
0
0
LINE
8
0
6
CONTINUOUS
10
-3.05
20
-40.2
30
0
11
-3.62
21
-42.0
31
0
0
LINE
8
0
6
CONTINUOUS
10
-3.21
20
-40.7
30
0
11
-4.59
21
-40.7
31
0
0
LINE
8
0
6
CONTINUOUS
10
-2.6
20
-40.7
30
0
11
4.59
21
-40.7
31
0
0
LINE
8
0
6
CONTINUOUS
10
-2.64
20
-40.2
30
0
11
-2.49
21
-42.0
31
0
0
LINE
8
0
6
CONTINUOUS
10
-3.3
20
-42.0
30
0
11
-2.73
21
-40.2
31
0
0
LINE
8
0
6
CONTINUOUS
10
-2.49
20
-42.0
30
0
11
2.06
21
-42.0
31
0
0
LINE
8
0
6
CONTINUOUS
10
2.06
20
-42.0
30
0
11
2.06
21
-41.2
31
0
0
LINE
8
0
6
CONTINUOUS
10
2.06
20
-41.2
30
0
11
3.81
21
-41.2
31
0
0
LINE
8
0
6
CONTINUOUS
10
3.41
20
-42.0
30
0
11
3.41
21
-41.2
31
0
0
LINE
8
0
6
CONTINUOUS
10
3.81
20
-41.2
30
0
11
3.81
21
-42.0
31
0
0
LINE
8
0
6
CONTINUOUS
10
5.0
20
-42.0
30
0
11
3.41
21
-42.0
31
0
0
LINE
8
0
6
CONTINUOUS
10
4.43
20
-40.2
30
0
11
5.0
21
-42.0
31
0
0
LINE
8
0
6
CONTINUOUS
10
-2.64
20
-40.2
30
0
11
5.0
21
-40.2
31
0
0
LINE
8
0
6
CONTINUOUS
10
-5.0
20
-40.2
30
0
11
-3.05
21
-40.2
31
0
0
LINE
8
0
6
CONTINUOUS
10
-4.43
20
-43.15
30
0
11
-4.16
21
-42.0
31
0
0
LINE
8
0
6
CONTINUOUS
10
-4.87
20
-46.8
30
0
11
-4.43
21
-43.15
31
0
0
LINE
8
0
6
CONTINUOUS
10
4.88
20
-46.8
30
0
11
-4.87
21
-46.8
31
0
0
LINE
8
0
6
CONTINUOUS
10
4.43
20
-43.15
30
0
11
4.88
21
-46.8
31
0
0
LINE
8
0
6
CONTINUOUS
10
4.16
20
-42.0
30
0
11
4.43
21
-43.15
31
0
0
LINE
8
0
6
CONTINUOUS
10
-4.87
20
-49.2
30
0
11
-4.87
21
-46.8
31
0
0
LINE
8
0
6
CONTINUOUS
10
4.88
20
-49.2
30
0
11
-4.87
21
-49.2
31
0
0
LINE
8
0
6
CONTINUOUS
10
4.88
20
-46.8
30
0
11
4.88
21
-49.2
31
0
0
ARC
8
0
6
CONTINUOUS
10
4.08
20
-49.2
30
0
40
0.8
50
270.0
51
0.0
0
LINE
8
0
6
CONTINUOUS
10
-4.07
20
-50.0
30
0
11
4.08
21
-50.0
31
0
0
ARC
8
0
6
CONTINUOUS
10
-4.07
20
-49.2
30
0
40
0.8
50
180.0
51
270.0
0
LINE
8
0
6
CONTINUOUS
10
-5.0
20
-57.0
30
0
11
-0.0
21
-59.89
31
0
0
LINE
8
0
6
CONTINUOUS
10
-0.0
20
-59.89
30
0
11
5.0
21
-57.0
31
0
0
LINE
8
0
6
CONTINUOUS
10
-5.0
20
-57.0
30
0
11
5.0
21
-57.0
31
0
0
LINE
8
0
6
CONTINUOUS
10
-3.93
20
-37.2
30
0
11
-5.4
21
-37.2
31
0
0
LINE
8
0
6
CONTINUOUS
10
-5.0
20
-38.6
30
0
11
-3.93
21
-38.6
31
0
0
LINE
8
0
6
CONTINUOUS
10
-4.27
20
-31.74
30
0
11
-3.97
21
-30.65
31
0
0
LINE
8
0
6
CONTINUOUS
10
4.4
20
-31.36
30
0
11
5.0
21
-32.25
31
0
0
LINE
8
0
6
CONTINUOUS
10
-2.73
20
-32.25
30
0
11
-3.4
21
-31.36
31
0
0
LINE
8
0
6
CONTINUOUS
10
-5.0
20
-24.2
30
0
11
-5.0
21
-57.0
31
0
0
LINE
8
0
6
CONTINUOUS
10
5.0
20
-57.0
30
0
11
5.0
21
-24.2
31
0
0
LINE
8
0
6
CONTINUOUS
10
-4.5
20
-5.0
30
0
11
4.5
21
-5.0
31
0
0
LINE
8
0
6
CONTINUOUS
10
-4.5
20
-5.0
30
0
11
-5.0
21
-4.13
31
0
0
LINE
8
0
6
CONTINUOUS
10
4.5
20
-5.0
30
0
11
5.0
21
-4.13
31
0
0
LINE
8
0
6
CONTINUOUS
10
-5.0
20
-4.13
30
0
11
5.0
21
-4.13
31
0
0
LINE
8
0
6
CONTINUOUS
10
-5.0
20
10.1
30
0
11
-5.0
21
8.73
31
0
0
LINE
8
0
6
CONTINUOUS
10
5.0
20
10.1
30
0
11
5.0
21
8.73
31
0
0
LINE
8
0
6
CONTINUOUS
10
3.35
20
14.23
30
0
11
3.75
21
13.2
31
0
0
LINE
8
0
6
CONTINUOUS
10
3.75
20
12.1
30
0
11
3.75
21
13.2
31
0
0
LINE
8
0
6
CONTINUOUS
10
-3.75
20
13.2
30
0
11
-3.35
21
14.23
31
0
0
ARC
8
0
6
CONTINUOUS
10
0.004999999999999893
20
-17.971634454915538
30
0
40
26.7
50
80.09021249461928
51
99.90978750538073
0
ARC
8
0
6
CONTINUOUS
10
0.004999999999999893
20
28.301634454915536
30
0
40
26.7
50
260.09021249461927
51
279.90978750538073
0
ENDSEC
0
EOF