0
SECTION
2
HEADER
0
ENDSEC
0
SECTION
2
TABLES
0
TABLE
2
LTYPE
70
3
0
LTYPE
2
CONTINUOUS
70
0
3
Solid line
72
65
73
0
40
0.0
0
LTYPE
2
CENTER
70
0
3
center
72
65
73
4
40
28.575
49
12.7
49
-6.35
49
3.175
49
-6.35
0
ENDTAB
0
TABLE
2
LAYER
70
1
0
LAYER
2
0
70
0
62
7
6
CONTINUOUS
0
ENDTAB
0
ENDSEC
0
SECTION
2
ENTITIES
0
LINE
8
0
6
CONTINUOUS
10
59.0
20
166.77
30
0
11
59.0
21
-85.32
31
0
0
LINE
8
0
6
CONTINUOUS
10
-59.0
20
166.77
30
0
11
-59.0
21
-85.32
31
0
0
LINE
8
0
6
CONTINUOUS
10
59.0
20
166.77
30
0
11
-59.0
21
166.77
31
0
0
LINE
8
0
6
CONTINUOUS
10
59.0
20
-85.32
30
0
11
-59.0
21
-85.32
31
0
0
LINE
8
0
6
CONTINUOUS
10
59.0
20
-69.93
30
0
11
-59.0
21
-69.93
31
0
0
LINE
8
0
6
CONTINUOUS
10
59.0
20
151.29
30
0
11
-59.0
21
151.29
31
0
0
LINE
8
0
6
CONTINUOUS
10
26.5
20
-85.32
30
0
11
26.5
21
166.77
31
0
0
LINE
8
0
6
CONTINUOUS
10
-26.5
20
166.77
30
0
11
-26.5
21
-85.32
31
0
0
LINE
8
0
6
CONTINUOUS
10
53.0
20
166.77
30
0
11
53.0
21
-85.32
31
0
0
LINE
8
0
6
CONTINUOUS
10
-53.0
20
166.77
30
0
11
-53.0
21
-85.32
31
0
0
LINE
8
0
6
CONTINUOUS
10
-59.0
20
160.68
30
0
11
59.0
21
160.68
31
0
0
LINE
8
0
6
CONTINUOUS
10
-4.35
20
166.77
30
0
11
-4.35
21
-85.32
31
0
0
LINE
8
0
6
CONTINUOUS
10
4.35
20
166.77
30
0
11
4.35
21
-85.32
31
0
0
LINE
8
0
6
CONTINUOUS
10
59.0
20
-79.32
30
0
11
-59.0
21
-79.32
31
0
0
LINE
8
0
6
CONTINUOUS
10
0.0
20
166.77
30
0
11
0.0
21
-85.32
31
0
0
LINE
8
0
6
CONTINUOUS
10
-59.0
20
40.68
30
0
11
59.0
21
40.68
31
0
0
LINE
8
0
6
CONTINUOUS
10
-53.0
20
-79.32
30
0
11
53.0
21
-79.32
31
0
0
LINE
8
0
6
CONTINUOUS
10
53.0
20
-79.32
30
0
11
53.0
21
-69.91
31
0
0
LINE
8
0
6
CONTINUOUS
10
53.0
20
-69.91
30
0
11
26.63
21
-66.22
31
0
0
LINE
8
0
6
CONTINUOUS
10
26.63
20
-66.22
30
0
11
8.78
21
-63.72
31
0
0
ARC
8
0
6
CONTINUOUS
10
13.049999999877468
20
-56.13995382592913
30
0
40
8.7
50
180.00030408958432
51
240.6065208264307
0
LINE
8
0
6
CONTINUOUS
10
4.35
20
-56.14
30
0
11
4.35
21
137.81
31
0
0
ARC
8
0
6
CONTINUOUS
10
13.04999975748881
20
137.80794581046203
30
0
40
8.7
50
124.35840090634184
51
179.98647167908746
0
LINE
8
0
6
CONTINUOUS
10
8.14
20
144.99
30
0
11
26.63
21
147.58
31
0
0
LINE
8
0
6
CONTINUOUS
10
26.63
20
147.58
30
0
11
53.0
21
151.27
31
0
0
LINE
8
0
6
CONTINUOUS
10
53.0
20
151.27
30
0
11
53.0
21
160.68
31
0
0
LINE
8
0
6
CONTINUOUS
10
53.0
20
160.68
30
0
11
-53.0
21
160.68
31
0
0
LINE
8
0
6
CONTINUOUS
10
-53.0
20
160.68
30
0
11
-53.0
21
151.27
31
0
0
LINE
8
0
6
CONTINUOUS
10
-53.0
20
151.27
30
0
11
-26.63
21
147.58
31
0
0
LINE
8
0
6
CONTINUOUS
10
-26.63
20
147.58
30
0
11
-6.68
21
144.79
31
0
0
ARC
8
0
6
CONTINUOUS
10
-13.049998903454643
20
138.86436805311138
30
0
40
8.7
50
359.9712332162661
51
42.93021802400037
0
LINE
8
0
6
CONTINUOUS
10
-4.35
20
138.86
30
0
11
-4.35
21
-57.58
31
0
0
ARC
8
0
6
CONTINUOUS
10
-13.049999606718501
20
-57.58261593155241
30
0
40
8.7
50
317.9472690230201
51
0.017227797667448756
0
LINE
8
0
6
CONTINUOUS
10
-6.59
20
-63.41
30
0
11
-26.63
21
-66.22
31
0
0
LINE
8
0
6
CONTINUOUS
10
-26.63
20
-66.22
30
0
11
-53.0
21
-69.91
31
0
0
LINE
8
0
6
CONTINUOUS
10
-53.0
20
-69.91
30
0
11
-53.0
21
-79.32
31
0
0
LINE
8
0
6
CONTINUOUS
10
53.0
20
-79.32
30
0
11
53.0
21
-69.91
31
0
0
LINE
8
0
6
CONTINUOUS
10
4.35
20
-56.14
30
0
11
4.35
21
137.81
31
0
0
LINE
8
0
6
CONTINUOUS
10
53.0
20
-79.32
30
0
11
-53.0
21
-79.32
31
0
0
LINE
8
0
6
CONTINUOUS
10
-53.0
20
-79.32
30
0
11
-53.0
21
-69.91
31
0
0
ARC
8
0
6
CONTINUOUS
10
-13.049999606718501
20
-57.58261593155241
30
0
40
8.7
50
317.9472690230201
51
0.017227797667448756
0
LINE
8
0
6
CONTINUOUS
10
-4.35
20
-57.58
30
0
11
-4.35
21
138.86
31
0
0
LINE
8
0
6
CONTINUOUS
10
53.0
20
151.27
30
0
11
26.63
21
147.58
31
0
0
ARC
8
0
6
CONTINUOUS
10
13.04999975748881
20
137.80794581046203
30
0
40
8.7
50
124.35840090634184
51
179.98647167908746
0
LINE
8
0
6
CONTINUOUS
10
53.0
20
160.68
30
0
11
-53.0
21
160.68
31
0
0
LINE
8
0
6
CONTINUOUS
10
-53.0
20
160.68
30
0
11
-53.0
21
151.27
31
0
0
LINE
8
0
6
CONTINUOUS
10
-53.0
20
151.27
30
0
11
-26.63
21
147.58
31
0
0
LINE
8
0
6
CONTINUOUS
10
-53.0
20
-69.91
30
0
11
-26.63
21
-66.22
31
0
0
LINE
8
0
6
CONTINUOUS
10
53.0
20
-69.91
30
0
11
26.63
21
-66.22
31
0
0
ARC
8
0
6
CONTINUOUS
10
13.049999999877468
20
-56.13995382592913
30
0
40
8.7
50
180.00030408958432
51
240.6065208264307
0
ARC
8
0
6
CONTINUOUS
10
-13.049998903454643
20
138.86436805311138
30
0
40
8.7
50
359.9712332162661
51
42.93021802400037
0
LINE
8
0
6
CONTINUOUS
10
53.0
20
160.68
30
0
11
53.0
21
151.27
31
0
0
LINE
8
0
6
CONTINUOUS
10
-26.63
20
-66.22
30
0
11
-6.59
21
-63.41
31
0
0
LINE
8
0
6
CONTINUOUS
10
26.63
20
-66.22
30
0
11
8.78
21
-63.72
31
0
0
LINE
8
0
6
CONTINUOUS
10
26.63
20
147.58
30
0
11
8.14
21
144.99
31
0
0
LINE
8
0
6
CONTINUOUS
10
-26.63
20
147.58
30
0
11
-6.68
21
144.79
31
0
0
LINE
8
0
6
CENTER
10
-0.0
20
-85.32
30
0
11
-0.0
21
166.77
31
0
0
LINE
8
0
6
CENTER
10
-59.0
20
40.66
30
0
11
59.0
21
40.66
31
0
0
ENDSEC
0
EOF