0
SECTION
2
HEADER
0
ENDSEC
0
SECTION
2
TABLES
0
TABLE
2
LTYPE
70
3
0
LTYPE
2
CONTINUOUS
70
0
3
Solid line
72
65
73
0
40
0.0
0
LTYPE
2
CENTER
70
0
3
center
72
65
73
4
40
28.575
49
12.7
49
-6.35
49
3.175
49
-6.35
0
ENDTAB
0
TABLE
2
LAYER
70
1
0
LAYER
2
0
70
0
62
7
6
CONTINUOUS
0
ENDTAB
0
ENDSEC
0
SECTION
2
ENTITIES
0
LINE
8
0
6
CONTINUOUS
10
-82.9
20
55.0
30
0
11
-82.9
21
-55.0
31
0
0
LINE
8
0
6
CONTINUOUS
10
-90.0
20
55.0
30
0
11
-90.0
21
-55.0
31
0
0
LINE
8
0
6
CONTINUOUS
10
82.9
20
-55.0
30
0
11
82.9
21
55.0
31
0
0
LINE
8
0
6
CONTINUOUS
10
90.0
20
-55.0
30
0
11
90.0
21
55.0
31
0
0
LINE
8
0
6
CONTINUOUS
10
95.0
20
-42.9
30
0
11
-95.0
21
-42.9
31
0
0
LINE
8
0
6
CONTINUOUS
10
95.0
20
42.9
30
0
11
-95.0
21
42.9
31
0
0
LINE
8
0
6
CONTINUOUS
10
95.0
20
50.0
30
0
11
-95.0
21
50.0
31
0
0
LINE
8
0
6
CONTINUOUS
10
95.0
20
-50.0
30
0
11
-95.0
21
-50.0
31
0
0
LINE
8
0
6
CONTINUOUS
10
0.0
20
55.0
30
0
11
0.0
21
-55.0
31
0
0
LINE
8
0
6
CONTINUOUS
10
-95.0
20
0.0
30
0
11
95.0
21
0.0
31
0
0
LINE
8
0
6
CONTINUOUS
10
73.7
20
-42.9
30
0
11
-73.7
21
-42.9
31
0
0
ARC
8
0
6
CONTINUOUS
10
-73.70000000000002
20
-33.699999999999996
30
0
40
9.2
50
180.00000000000003
51
270.0000000000001
0
LINE
8
0
6
CONTINUOUS
10
-82.9
20
-33.7
30
0
11
-82.9
21
33.7
31
0
0
ARC
8
0
6
CONTINUOUS
10
-73.70000000000002
20
33.699999999999996
30
0
40
9.2
50
89.99999999999991
51
179.99999999999997
0
LINE
8
0
6
CONTINUOUS
10
-73.7
20
42.9
30
0
11
73.7
21
42.9
31
0
0
ARC
8
0
6
CONTINUOUS
10
73.70000000000002
20
33.699999999999996
30
0
40
9.2
50
4.425119556818812e-14
51
90.00000000000009
0
LINE
8
0
6
CONTINUOUS
10
82.9
20
33.7
30
0
11
82.9
21
-33.7
31
0
0
ARC
8
0
6
CONTINUOUS
10
73.70000000000002
20
-33.699999999999996
30
0
40
9.2
50
269.9999999999999
51
359.99999999999994
0
LINE
8
0
6
CONTINUOUS
10
90.0
20
-39.3
30
0
11
90.0
21
39.3
31
0
0
ARC
8
0
6
CONTINUOUS
10
79.30000000000001
20
39.3
30
0
40
10.7
50
0.0
51
90.00000000000007
0
LINE
8
0
6
CONTINUOUS
10
79.3
20
50.0
30
0
11
-79.3
21
50.0
31
0
0
ARC
8
0
6
CONTINUOUS
10
-79.30000000000001
20
39.3
30
0
40
10.7
50
89.99999999999993
51
180.0
0
LINE
8
0
6
CONTINUOUS
10
-90.0
20
39.3
30
0
11
-90.0
21
-39.3
31
0
0
ARC
8
0
6
CONTINUOUS
10
-79.30000000000001
20
-39.3
30
0
40
10.7
50
180.0
51
270.00000000000006
0
LINE
8
0
6
CONTINUOUS
10
-79.3
20
-50.0
30
0
11
79.3
21
-50.0
31
0
0
ARC
8
0
6
CONTINUOUS
10
79.30000000000001
20
-39.3
30
0
40
10.7
50
269.99999999999994
51
0.0
0
LINE
8
0
6
CONTINUOUS
10
-79.3
20
-50.0
30
0
11
79.3
21
-50.0
31
0
0
LINE
8
0
6
CONTINUOUS
10
-90.0
20
39.3
30
0
11
-90.0
21
-39.3
31
0
0
LINE
8
0
6
CONTINUOUS
10
79.3
20
50.0
30
0
11
-79.3
21
50.0
31
0
0
LINE
8
0
6
CONTINUOUS
10
90.0
20
-39.3
30
0
11
90.0
21
39.3
31
0
0
LINE
8
0
6
CONTINUOUS
10
-73.7
20
-42.9
30
0
11
73.7
21
-42.9
31
0
0
LINE
8
0
6
CONTINUOUS
10
-82.9
20
33.7
30
0
11
-82.9
21
-33.7
31
0
0
LINE
8
0
6
CONTINUOUS
10
73.7
20
42.9
30
0
11
-73.7
21
42.9
31
0
0
LINE
8
0
6
CONTINUOUS
10
82.9
20
-33.7
30
0
11
82.9
21
33.7
31
0
0
ARC
8
0
6
CONTINUOUS
10
-79.30000000000001
20
-39.3
30
0
40
10.7
50
180.0
51
270.00000000000006
0
ARC
8
0
6
CONTINUOUS
10
79.30000000000001
20
-39.3
30
0
40
10.7
50
269.99999999999994
51
0.0
0
ARC
8
0
6
CONTINUOUS
10
-79.30000000000001
20
39.3
30
0
40
10.7
50
89.99999999999993
51
180.0
0
ARC
8
0
6
CONTINUOUS
10
79.30000000000001
20
39.3
30
0
40
10.7
50
0.0
51
90.00000000000007
0
ARC
8
0
6
CONTINUOUS
10
-73.70000000000002
20
-33.699999999999996
30
0
40
9.2
50
180.00000000000003
51
270.0000000000001
0
ARC
8
0
6
CONTINUOUS
10
73.70000000000002
20
-33.699999999999996
30
0
40
9.2
50
269.9999999999999
51
359.99999999999994
0
ARC
8
0
6
CONTINUOUS
10
73.70000000000002
20
33.699999999999996
30
0
40
9.2
50
4.425119556818812e-14
51
90.00000000000009
0
ARC
8
0
6
CONTINUOUS
10
-73.70000000000002
20
33.699999999999996
30
0
40
9.2
50
89.99999999999991
51
179.99999999999997
0
LINE
8
0
6
CENTER
10
-95.0
20
0.0
30
0
11
95.0
21
0.0
31
0
0
LINE
8
0
6
CENTER
10
0.0
20
55.0
30
0
11
0.0
21
-55.0
31
0
0
ENDSEC
0
EOF