0
SECTION
2
HEADER
0
ENDSEC
0
SECTION
2
TABLES
0
TABLE
2
LTYPE
70
3
0
LTYPE
2
CONTINUOUS
70
0
3
Solid line
72
65
73
0
40
0.0
0
LTYPE
2
CENTER
70
0
3
center
72
65
73
4
40
28.575
49
12.7
49
-6.35
49
3.175
49
-6.35
0
ENDTAB
0
TABLE
2
LAYER
70
1
0
LAYER
2
0
70
0
62
7
6
CONTINUOUS
0
ENDTAB
0
ENDSEC
0
SECTION
2
ENTITIES
0
LINE
8
0
6
CONTINUOUS
10
60.0
20
60.0
30
0
11
-4.56
21
60.0
31
0
0
LINE
8
0
6
CONTINUOUS
10
60.0
20
60.0
30
0
11
60.0
21
-2.6
31
0
0
LINE
8
0
6
CONTINUOUS
10
-4.56
20
5.0
30
0
11
60.0
21
5.0
31
0
0
LINE
8
0
6
CONTINUOUS
10
5.0
20
-2.6
30
0
11
5.0
21
60.0
31
0
0
LINE
8
0
6
CONTINUOUS
10
0.0
20
-2.6
30
0
11
0.0
21
60.0
31
0
0
LINE
8
0
6
CONTINUOUS
10
-4.56
20
0.0
30
0
11
60.0
21
0.0
31
0
0
LINE
8
0
6
CONTINUOUS
10
0.0
20
0.0
30
0
11
60.0
21
0.0
31
0
0
LINE
8
0
6
CONTINUOUS
10
60.0
20
0.0
30
0
11
60.0
21
1.0
31
0
0
ARC
8
0
6
CONTINUOUS
10
56.0
20
1.0000000000000002
30
0
40
4.0
50
360.0
51
90.0
0
LINE
8
0
6
CONTINUOUS
10
56.0
20
5.0
30
0
11
13.0
21
5.0
31
0
0
ARC
8
0
6
CONTINUOUS
10
13.0
20
13.0
30
0
40
8.0
50
180.0
51
270.0
0
LINE
8
0
6
CONTINUOUS
10
5.0
20
13.0
30
0
11
5.0
21
56.0
31
0
0
ARC
8
0
6
CONTINUOUS
10
1.0000000000000002
20
56.0
30
0
40
4.0
50
0.0
51
90.00000000000001
0
LINE
8
0
6
CONTINUOUS
10
1.0
20
60.0
30
0
11
0.0
21
60.0
31
0
0
LINE
8
0
6
CONTINUOUS
10
0.0
20
60.0
30
0
11
0.0
21
0.0
31
0
0
LINE
8
0
6
CENTER
10
16.4
20
60.0
30
0
11
16.4
21
-2.6
31
0
0
LINE
8
0
6
CENTER
10
-4.56
20
16.4
30
0
11
60.0
21
16.4
31
0
0
ENDSEC
0
EOF