0
SECTION
2
HEADER
0
ENDSEC
0
SECTION
2
TABLES
0
TABLE
2
LTYPE
70
2
0
LTYPE
2
CONTINUOUS
70
0
3
Solid line
72
65
73
0
40
0.0
0
ENDTAB
0
TABLE
2
LAYER
70
1
0
LAYER
2
0
70
0
62
7
6
CONTINUOUS
0
ENDTAB
0
ENDSEC
0
SECTION
2
ENTITIES
0
LINE
8
0
6
CONTINUOUS
10
12.5
20
-120.0
30
0
11
-12.5
21
-120.0
31
0
0
LINE
8
0
6
CONTINUOUS
10
12.5
20
-120.0
30
0
11
-12.5
21
-120.0
31
0
0
LINE
8
0
6
CONTINUOUS
10
12.5
20
-120.0
30
0
11
-12.5
21
-120.0
31
0
0
LINE
8
0
6
CONTINUOUS
10
12.5
20
-120.0
30
0
11
-12.5
21
-120.0
31
0
0
LINE
8
0
6
CONTINUOUS
10
12.5
20
-120.0
30
0
11
-12.5
21
-120.0
31
0
0
LINE
8
0
6
CONTINUOUS
10
4.0
20
17.35
30
0
11
4.0
21
-131.23
31
0
0
LINE
8
0
6
CONTINUOUS
10
-4.0
20
17.35
30
0
11
-4.0
21
-131.23
31
0
0
LINE
8
0
6
CONTINUOUS
10
0.0
20
-131.23
30
0
11
0.0
21
17.35
31
0
0
LINE
8
0
6
CONTINUOUS
10
-12.5
20
0.0
30
0
11
12.5
21
0.0
31
0
0
LINE
8
0
6
CONTINUOUS
10
-6.0
20
-0.0
30
0
11
-6.0
21
-74.13
31
0
0
LINE
8
0
6
CONTINUOUS
10
6.0
20
-74.13
30
0
11
6.0
21
0.0
31
0
0
LINE
8
0
6
CONTINUOUS
10
-9.19
20
2.0
30
0
11
-9.19
21
8.95
31
0
0
ARC
8
0
6
CONTINUOUS
10
-7.084139209253322
20
5.098408157718978
30
0
40
4.25
50
61.404624600976554
51
119.70250577078826
0
LINE
8
0
6
CONTINUOUS
10
8.5
20
9.35
30
0
11
9.19
21
8.95
31
0
0
LINE
8
0
6
CONTINUOUS
10
-8.5
20
9.35
30
0
11
8.5
21
9.35
31
0
0
LINE
8
0
6
CONTINUOUS
10
-9.19
20
8.95
30
0
11
-8.5
21
9.35
31
0
0
LINE
8
0
6
CONTINUOUS
10
-6.0
20
10.73
30
0
11
-4.75
21
12.73
31
0
0
LINE
8
0
6
CONTINUOUS
10
-6.0
20
10.73
30
0
11
6.0
21
10.73
31
0
0
LINE
8
0
6
CONTINUOUS
10
4.75
20
12.73
30
0
11
6.0
21
10.73
31
0
0
LINE
8
0
6
CONTINUOUS
10
-4.75
20
13.83
30
0
11
-4.75
21
12.73
31
0
0
LINE
8
0
6
CONTINUOUS
10
4.35
20
14.85
30
0
11
-4.35
21
14.85
31
0
0
LINE
8
0
6
CONTINUOUS
10
-4.75
20
13.83
30
0
11
4.75
21
13.83
31
0
0
LINE
8
0
6
CONTINUOUS
10
-4.75
20
12.73
30
0
11
4.75
21
12.73
31
0
0
ARC
8
0
6
CONTINUOUS
10
-7.388049828213615
20
5.849087629347897
30
0
40
4.25
50
244.91335864624205
51
303.3758888359665
0
ARC
8
0
6
CONTINUOUS
10
7.393208394318902
20
5.85149840007158
30
0
40
4.25
50
235.23815025481616
51
295.0098773202595
0
LINE
8
0
6
CONTINUOUS
10
9.19
20
2.0
30
0
11
8.5
21
1.6
31
0
0
LINE
8
0
6
CONTINUOUS
10
-8.5
20
1.6
30
0
11
-9.19
21
2.0
31
0
0
LINE
8
0
6
CONTINUOUS
10
-10.5
20
1.6
30
0
11
-8.5
21
1.6
31
0
0
LINE
8
0
6
CONTINUOUS
10
-10.5
20
0.0
30
0
11
-10.5
21
1.6
31
0
0
LINE
8
0
6
CONTINUOUS
10
10.5
20
0.0
30
0
11
-10.5
21
0.0
31
0
0
LINE
8
0
6
CONTINUOUS
10
10.5
20
1.6
30
0
11
10.5
21
0.0
31
0
0
LINE
8
0
6
CONTINUOUS
10
8.5
20
1.6
30
0
11
10.5
21
1.6
31
0
0
LINE
8
0
6
CONTINUOUS
10
8.5
20
1.6
30
0
11
-8.5
21
1.6
31
0
0
LINE
8
0
6
CONTINUOUS
10
-6.0
20
-74.13
30
0
11
-6.0
21
0.0
31
0
0
LINE
8
0
6
CONTINUOUS
10
-5.23
20
-0.0
30
0
11
-5.23
21
-74.13
31
0
0
LINE
8
0
6
CONTINUOUS
10
5.23
20
-74.13
30
0
11
5.23
21
0.0
31
0
0
LINE
8
0
6
CONTINUOUS
10
-5.05
20
8.83
30
0
11
-5.05
21
2.3
31
0
0
LINE
8
0
6
CONTINUOUS
10
4.97
20
8.83
30
0
11
4.97
21
2.36
31
0
0
LINE
8
0
6
CONTINUOUS
10
9.19
20
8.95
30
0
11
9.19
21
2.0
31
0
0
LINE
8
0
6
CONTINUOUS
10
-5.5
20
-92.05
30
0
11
-5.5
21
-75.0
31
0
0
LINE
8
0
6
CONTINUOUS
10
5.5
20
-75.0
30
0
11
5.5
21
-92.05
31
0
0
LINE
8
0
6
CONTINUOUS
10
5.5
20
-92.05
30
0
11
-5.5
21
-92.05
31
0
0
LINE
8
0
6
CONTINUOUS
10
-5.87
20
-92.2
30
0
11
5.88
21
-92.2
31
0
0
LINE
8
0
6
CONTINUOUS
10
-5.87
20
-94.2
30
0
11
-5.87
21
-92.2
31
0
0
LINE
8
0
6
CONTINUOUS
10
1.0
20
-94.2
30
0
11
-5.0
21
-94.2
31
0
0
LINE
8
0
6
CONTINUOUS
10
5.88
20
-92.2
30
0
11
5.88
21
-94.2
31
0
0
LINE
8
0
6
CONTINUOUS
10
5.88
20
-94.2
30
0
11
-5.87
21
-94.2
31
0
0
ARC
8
0
6
CONTINUOUS
10
-5.4
20
-94.8
30
0
40
0.6
50
90.0
51
180.0
0
LINE
8
0
6
CONTINUOUS
10
5.3
20
-94.2
30
0
11
5.3
21
-95.2
31
0
0
LINE
8
0
6
CONTINUOUS
10
5.3
20
-95.2
30
0
11
6.7
21
-95.2
31
0
0
LINE
8
0
6
CONTINUOUS
10
6.7
20
-95.2
30
0
11
6.0
21
-98.0
31
0
0
ARC
8
0
6
CONTINUOUS
10
7.364555225511031
20
-100.67320881397032
30
0
40
1.88
50
136.53770864845507
51
166.05038626474303
0
ARC
8
0
6
CONTINUOUS
10
11.05880411295454
20
-101.4763443647488
30
0
40
5.66
50
167.1752936117861
51
178.82217127322332
0
ARC
8
0
6
CONTINUOUS
10
-4.170491888665646
20
-101.07965667567238
30
0
40
1.91
50
354.2806272375043
51
78.20292877678021
0
ARC
8
0
6
CONTINUOUS
10
-2.949778817184484
20
-101.22332920081178
30
0
40
2.1
50
109.1884795003931
51
164.15630922178636
0
ARC
8
0
6
CONTINUOUS
10
-3.2921020271112518
20
-101.20109406308467
30
0
40
2.05
50
103.76847041990658
51
195.24107613448666
0
ARC
8
0
6
CONTINUOUS
10
-3.937214552679472
20
-100.98304359349278
30
0
40
1.78
50
84.93287467873013
51
187.9749162514877
0
ARC
8
0
6
CONTINUOUS
10
-5.381436145735524
20
-101.39768145620837
30
0
40
0.36
50
152.23916798136398
51
288.03180314311663
0
LINE
8
0
6
CONTINUOUS
10
-4.34
20
-110.2
30
0
11
-4.34
21
-101.64
31
0
0
LINE
8
0
6
CONTINUOUS
10
-4.05
20
-101.82
30
0
11
-4.05
21
-110.2
31
0
0
LINE
8
0
6
CONTINUOUS
10
-3.73
20
-110.2
30
0
11
-3.73
21
-102.25
31
0
0
LINE
8
0
6
CONTINUOUS
10
-3.64
20
-101.69
30
0
11
-3.64
21
-110.2
31
0
0
ARC
8
0
6
CONTINUOUS
10
-2.5571770503299738
20
-101.4520146745836
30
0
40
0.34
50
224.4235413272434
51
32.36678767924872
0
LINE
8
0
6
CONTINUOUS
10
5.9
20
-108.6
30
0
11
0.8
21
-108.6
31
0
0
LINE
8
0
6
CONTINUOUS
10
0.8
20
-108.6
30
0
11
0.8
21
-107.2
31
0
0
LINE
8
0
6
CONTINUOUS
10
0.8
20
-107.2
30
0
11
5.9
21
-107.2
31
0
0
LINE
8
0
6
CONTINUOUS
10
5.9
20
-107.2
30
0
11
5.9
21
-108.6
31
0
0
LINE
8
0
6
CONTINUOUS
10
-6.0
20
-108.6
30
0
11
-6.4
21
-107.2
31
0
0
LINE
8
0
6
CONTINUOUS
10
-4.93
20
-107.2
30
0
11
-4.93
21
-108.6
31
0
0
LINE
8
0
6
CONTINUOUS
10
-5.47
20
-107.2
30
0
11
-5.47
21
-108.6
31
0
0
LINE
8
0
6
CONTINUOUS
10
-5.43
20
-110.2
30
0
11
-6.0
21
-112.0
31
0
0
LINE
8
0
6
CONTINUOUS
10
-6.0
20
-112.0
30
0
11
-4.3
21
-112.0
31
0
0
LINE
8
0
6
CONTINUOUS
10
-4.05
20
-110.2
30
0
11
-4.62
21
-112.0
31
0
0
LINE
8
0
6
CONTINUOUS
10
-4.21
20
-110.7
30
0
11
-5.59
21
-110.7
31
0
0
LINE
8
0
6
CONTINUOUS
10
-3.6
20
-110.7
30
0
11
5.59
21
-110.7
31
0
0
LINE
8
0
6
CONTINUOUS
10
-3.64
20
-110.2
30
0
11
-3.49
21
-112.0
31
0
0
LINE
8
0
6
CONTINUOUS
10
-4.3
20
-112.0
30
0
11
-3.73
21
-110.2
31
0
0
LINE
8
0
6
CONTINUOUS
10
-3.49
20
-112.0
30
0
11
3.06
21
-112.0
31
0
0
LINE
8
0
6
CONTINUOUS
10
3.06
20
-112.0
30
0
11
3.06
21
-111.2
31
0
0
LINE
8
0
6
CONTINUOUS
10
3.06
20
-111.2
30
0
11
4.81
21
-111.2
31
0
0
LINE
8
0
6
CONTINUOUS
10
4.41
20
-112.0
30
0
11
4.41
21
-111.2
31
0
0
LINE
8
0
6
CONTINUOUS
10
4.81
20
-111.2
30
0
11
4.81
21
-112.0
31
0
0
LINE
8
0
6
CONTINUOUS
10
6.0
20
-112.0
30
0
11
4.41
21
-112.0
31
0
0
LINE
8
0
6
CONTINUOUS
10
5.43
20
-110.2
30
0
11
6.0
21
-112.0
31
0
0
LINE
8
0
6
CONTINUOUS
10
-3.64
20
-110.2
30
0
11
6.0
21
-110.2
31
0
0
LINE
8
0
6
CONTINUOUS
10
-6.0
20
-110.2
30
0
11
-4.05
21
-110.2
31
0
0
LINE
8
0
6
CONTINUOUS
10
-5.43
20
-113.15
30
0
11
-5.16
21
-112.0
31
0
0
LINE
8
0
6
CONTINUOUS
10
-5.87
20
-116.8
30
0
11
-5.43
21
-113.15
31
0
0
LINE
8
0
6
CONTINUOUS
10
5.88
20
-116.8
30
0
11
-5.87
21
-116.8
31
0
0
LINE
8
0
6
CONTINUOUS
10
5.43
20
-113.15
30
0
11
5.88
21
-116.8
31
0
0
LINE
8
0
6
CONTINUOUS
10
5.16
20
-112.0
30
0
11
5.43
21
-113.15
31
0
0
LINE
8
0
6
CONTINUOUS
10
-5.87
20
-119.2
30
0
11
-5.87
21
-116.8
31
0
0
LINE
8
0
6
CONTINUOUS
10
5.88
20
-119.2
30
0
11
-5.87
21
-119.2
31
0
0
LINE
8
0
6
CONTINUOUS
10
5.88
20
-116.8
30
0
11
5.88
21
-119.2
31
0
0
ARC
8
0
6
CONTINUOUS
10
5.08
20
-119.19999999999999
30
0
40
0.8
50
270.0
51
359.999999999999
0
LINE
8
0
6
CONTINUOUS
10
-5.07
20
-120.0
30
0
11
5.08
21
-120.0
31
0
0
ARC
8
0
6
CONTINUOUS
10
-5.07
20
-119.19999999999999
30
0
40
0.8
50
180.00000000000102
51
270.0
0
LINE
8
0
6
CONTINUOUS
10
-6.0
20
-127.0
30
0
11
0.25
21
-130.18
31
0
0
LINE
8
0
6
CONTINUOUS
10
0.25
20
-130.18
30
0
11
6.0
21
-127.0
31
0
0
LINE
8
0
6
CONTINUOUS
10
-6.0
20
-127.0
30
0
11
6.0
21
-127.0
31
0
0
LINE
8
0
6
CONTINUOUS
10
-4.93
20
-107.2
30
0
11
-6.4
21
-107.2
31
0
0
LINE
8
0
6
CONTINUOUS
10
-6.0
20
-108.6
30
0
11
-4.93
21
-108.6
31
0
0
LINE
8
0
6
CONTINUOUS
10
-5.27
20
-101.74
30
0
11
-4.97
21
-100.65
31
0
0
LINE
8
0
6
CONTINUOUS
10
5.4
20
-101.36
30
0
11
6.0
21
-102.25
31
0
0
LINE
8
0
6
CONTINUOUS
10
-3.73
20
-102.25
30
0
11
-4.4
21
-101.36
31
0
0
LINE
8
0
6
CONTINUOUS
10
-6.0
20
-94.2
30
0
11
-6.0
21
-127.0
31
0
0
LINE
8
0
6
CONTINUOUS
10
6.0
20
-127.0
30
0
11
6.0
21
-94.2
31
0
0
LINE
8
0
6
CONTINUOUS
10
-5.5
20
-75.0
30
0
11
5.5
21
-75.0
31
0
0
LINE
8
0
6
CONTINUOUS
10
-5.5
20
-75.0
30
0
11
-6.0
21
-74.13
31
0
0
LINE
8
0
6
CONTINUOUS
10
5.5
20
-75.0
30
0
11
6.0
21
-74.13
31
0
0
LINE
8
0
6
CONTINUOUS
10
-6.0
20
-74.13
30
0
11
6.0
21
-74.13
31
0
0
LINE
8
0
6
CONTINUOUS
10
-6.0
20
10.73
30
0
11
-6.0
21
9.35
31
0
0
LINE
8
0
6
CONTINUOUS
10
6.0
20
10.73
30
0
11
6.0
21
9.35
31
0
0
LINE
8
0
6
CONTINUOUS
10
4.35
20
14.85
30
0
11
4.75
21
13.83
31
0
0
LINE
8
0
6
CONTINUOUS
10
4.75
20
12.73
30
0
11
4.75
21
13.83
31
0
0
LINE
8
0
6
CONTINUOUS
10
-4.75
20
13.83
30
0
11
-4.35
21
14.85
31
0
0
ARC
8
0
6
CONTINUOUS
10
-0.040000000000000036
20
-84.64583644985478
30
0
40
93.61
50
86.93206847556202
51
93.06793152443798
0
ARC
8
0
6
CONTINUOUS
10
7.0894989962127966
20
4.826423598199613
30
0
40
4.53
50
62.37473579667622
51
117.896807673791
0
ARC
8
0
6
CONTINUOUS
10
-0.06342439587694029
20
25.7762446686936
30
0
40
24.0
50
258.0080661955237
51
282.1062965998668
0
ENDSEC
0
EOF