0
SECTION
2
HEADER
0
ENDSEC
0
SECTION
2
TABLES
0
TABLE
2
LTYPE
70
3
0
LTYPE
2
CONTINUOUS
70
0
3
Solid line
72
65
73
0
40
0.0
0
LTYPE
2
CENTER
70
0
3
center
72
65
73
4
40
28.575
49
12.7
49
-6.35
49
3.175
49
-6.35
0
ENDTAB
0
TABLE
2
LAYER
70
1
0
LAYER
2
0
70
0
62
7
6
CONTINUOUS
0
ENDTAB
0
ENDSEC
0
SECTION
2
ENTITIES
0
LINE
8
0
6
CONTINUOUS
10
-36.4
20
-45.0
30
0
11
-36.4
21
45.0
31
0
0
LINE
8
0
6
CONTINUOUS
10
-40.0
20
-45.0
30
0
11
-40.0
21
45.0
31
0
0
LINE
8
0
6
CONTINUOUS
10
36.4
20
45.0
30
0
11
36.4
21
-45.0
31
0
0
LINE
8
0
6
CONTINUOUS
10
40.0
20
45.0
30
0
11
40.0
21
-45.0
31
0
0
LINE
8
0
6
CONTINUOUS
10
46.08
20
36.4
30
0
11
-45.0
21
36.4
31
0
0
LINE
8
0
6
CONTINUOUS
10
46.08
20
-36.4
30
0
11
-45.0
21
-36.4
31
0
0
LINE
8
0
6
CONTINUOUS
10
46.08
20
-40.0
30
0
11
-45.0
21
-40.0
31
0
0
LINE
8
0
6
CONTINUOUS
10
46.08
20
40.0
30
0
11
-45.0
21
40.0
31
0
0
LINE
8
0
6
CONTINUOUS
10
0.0
20
-45.0
30
0
11
0.0
21
45.0
31
0
0
LINE
8
0
6
CONTINUOUS
10
-45.0
20
0.0
30
0
11
46.08
21
0.0
31
0
0
ARC
8
0
6
CONTINUOUS
10
32.5
20
32.5
30
0
40
3.9
50
0.0
51
90.0
0
LINE
8
0
6
CONTINUOUS
10
36.4
20
32.5
30
0
11
36.4
21
-32.5
31
0
0
ARC
8
0
6
CONTINUOUS
10
32.5
20
-32.5
30
0
40
3.9
50
270.0
51
0.0
0
LINE
8
0
6
CONTINUOUS
10
32.5
20
-36.4
30
0
11
-32.5
21
-36.4
31
0
0
ARC
8
0
6
CONTINUOUS
10
-32.5
20
-32.5
30
0
40
3.9
50
180.0
51
270.0
0
LINE
8
0
6
CONTINUOUS
10
-36.4
20
-32.5
30
0
11
-36.4
21
32.5
31
0
0
ARC
8
0
6
CONTINUOUS
10
-32.5
20
32.5
30
0
40
3.9
50
90.0
51
180.0
0
LINE
8
0
6
CONTINUOUS
10
-32.5
20
36.4
30
0
11
32.5
21
36.4
31
0
0
ARC
8
0
6
CONTINUOUS
10
34.599999999999994
20
34.599999999999994
30
0
40
5.4
50
7.539092578283883e-14
51
89.99999999999993
0
LINE
8
0
6
CONTINUOUS
10
34.6
20
40.0
30
0
11
-34.6
21
40.0
31
0
0
ARC
8
0
6
CONTINUOUS
10
-34.599999999999994
20
34.599999999999994
30
0
40
5.4
50
90.00000000000007
51
179.99999999999991
0
LINE
8
0
6
CONTINUOUS
10
-40.0
20
34.6
30
0
11
-40.0
21
-34.6
31
0
0
ARC
8
0
6
CONTINUOUS
10
-34.599999999999994
20
-34.599999999999994
30
0
40
5.4
50
180.00000000000009
51
269.99999999999994
0
LINE
8
0
6
CONTINUOUS
10
-34.6
20
-40.0
30
0
11
34.6
21
-40.0
31
0
0
ARC
8
0
6
CONTINUOUS
10
34.599999999999994
20
-34.599999999999994
30
0
40
5.4
50
270.00000000000006
51
359.99999999999994
0
LINE
8
0
6
CONTINUOUS
10
40.0
20
-34.6
30
0
11
40.0
21
34.6
31
0
0
LINE
8
0
6
CONTINUOUS
10
-34.6
20
40.0
30
0
11
34.6
21
40.0
31
0
0
LINE
8
0
6
CONTINUOUS
10
-40.0
20
-34.6
30
0
11
-40.0
21
34.6
31
0
0
LINE
8
0
6
CONTINUOUS
10
34.6
20
-40.0
30
0
11
-34.6
21
-40.0
31
0
0
LINE
8
0
6
CONTINUOUS
10
40.0
20
34.6
30
0
11
40.0
21
-34.6
31
0
0
LINE
8
0
6
CONTINUOUS
10
-32.5
20
36.4
30
0
11
32.5
21
36.4
31
0
0
LINE
8
0
6
CONTINUOUS
10
-36.4
20
-32.5
30
0
11
-36.4
21
32.5
31
0
0
LINE
8
0
6
CONTINUOUS
10
32.5
20
-36.4
30
0
11
-32.5
21
-36.4
31
0
0
LINE
8
0
6
CONTINUOUS
10
36.4
20
32.5
30
0
11
36.4
21
-32.5
31
0
0
ARC
8
0
6
CONTINUOUS
10
-34.599999999999994
20
34.599999999999994
30
0
40
5.4
50
90.00000000000007
51
179.99999999999991
0
ARC
8
0
6
CONTINUOUS
10
34.599999999999994
20
34.599999999999994
30
0
40
5.4
50
7.539092578283883e-14
51
89.99999999999993
0
ARC
8
0
6
CONTINUOUS
10
-34.599999999999994
20
-34.599999999999994
30
0
40
5.4
50
180.00000000000009
51
269.99999999999994
0
ARC
8
0
6
CONTINUOUS
10
34.599999999999994
20
-34.599999999999994
30
0
40
5.4
50
270.00000000000006
51
359.99999999999994
0
ARC
8
0
6
CONTINUOUS
10
-32.5
20
32.5
30
0
40
3.9
50
90.0
51
180.0
0
ARC
8
0
6
CONTINUOUS
10
32.5
20
32.5
30
0
40
3.9
50
0.0
51
90.0
0
ARC
8
0
6
CONTINUOUS
10
32.5
20
-32.5
30
0
40
3.9
50
270.0
51
0.0
0
ARC
8
0
6
CONTINUOUS
10
-32.5
20
-32.5
30
0
40
3.9
50
180.0
51
270.0
0
LINE
8
0
6
CENTER
10
-45.0
20
0.0
30
0
11
46.08
21
0.0
31
0
0
LINE
8
0
6
CENTER
10
-0.0
20
45.0
30
0
11
-0.0
21
-45.0
31
0
0
ENDSEC
0
EOF