0
SECTION
2
HEADER
0
ENDSEC
0
SECTION
2
TABLES
0
TABLE
2
LTYPE
70
3
0
LTYPE
2
CONTINUOUS
70
0
3
Solid line
72
65
73
0
40
0.0
0
LTYPE
2
CENTER
70
0
3
center
72
65
73
4
40
28.575
49
12.7
49
-6.35
49
3.175
49
-6.35
0
ENDTAB
0
TABLE
2
LAYER
70
1
0
LAYER
2
0
70
0
62
7
6
CONTINUOUS
0
ENDTAB
0
ENDSEC
0
SECTION
2
ENTITIES
0
LINE
8
0
6
CONTINUOUS
10
-28.7
20
-40.0
30
0
11
-28.7
21
40.0
31
0
0
LINE
8
0
6
CONTINUOUS
10
-35.0
20
-40.0
30
0
11
-35.0
21
40.0
31
0
0
LINE
8
0
6
CONTINUOUS
10
28.7
20
40.0
30
0
11
28.7
21
-40.0
31
0
0
LINE
8
0
6
CONTINUOUS
10
35.0
20
40.0
30
0
11
35.0
21
-40.0
31
0
0
LINE
8
0
6
CONTINUOUS
10
41.08
20
28.7
30
0
11
-40.0
21
28.7
31
0
0
LINE
8
0
6
CONTINUOUS
10
41.08
20
-28.7
30
0
11
-40.0
21
-28.7
31
0
0
LINE
8
0
6
CONTINUOUS
10
41.08
20
-35.0
30
0
11
-40.0
21
-35.0
31
0
0
LINE
8
0
6
CONTINUOUS
10
41.08
20
35.0
30
0
11
-40.0
21
35.0
31
0
0
LINE
8
0
6
CONTINUOUS
10
0.0
20
-40.0
30
0
11
0.0
21
40.0
31
0
0
LINE
8
0
6
CONTINUOUS
10
-40.0
20
0.0
30
0
11
41.08
21
0.0
31
0
0
ARC
8
0
6
CONTINUOUS
10
20.75
20
20.75
30
0
40
7.95
50
0.0
51
90.0
0
LINE
8
0
6
CONTINUOUS
10
28.7
20
20.75
30
0
11
28.7
21
-20.75
31
0
0
ARC
8
0
6
CONTINUOUS
10
20.75
20
-20.75
30
0
40
7.95
50
270.0
51
0.0
0
LINE
8
0
6
CONTINUOUS
10
20.75
20
-28.7
30
0
11
-20.75
21
-28.7
31
0
0
ARC
8
0
6
CONTINUOUS
10
-20.75
20
-20.75
30
0
40
7.95
50
180.0
51
270.0
0
LINE
8
0
6
CONTINUOUS
10
-28.7
20
-20.75
30
0
11
-28.7
21
20.75
31
0
0
ARC
8
0
6
CONTINUOUS
10
-20.75
20
20.75
30
0
40
7.95
50
90.0
51
180.0
0
LINE
8
0
6
CONTINUOUS
10
-20.75
20
28.7
30
0
11
20.75
21
28.7
31
0
0
ARC
8
0
6
CONTINUOUS
10
25.549999999999997
20
25.549999999999997
30
0
40
9.45
50
2.154026450938254e-14
51
89.99999999999999
0
LINE
8
0
6
CONTINUOUS
10
25.55
20
35.0
30
0
11
-25.55
21
35.0
31
0
0
ARC
8
0
6
CONTINUOUS
10
-25.549999999999997
20
25.549999999999997
30
0
40
9.45
50
90.00000000000003
51
179.99999999999997
0
LINE
8
0
6
CONTINUOUS
10
-35.0
20
25.55
30
0
11
-35.0
21
-25.55
31
0
0
ARC
8
0
6
CONTINUOUS
10
-25.549999999999997
20
-25.549999999999997
30
0
40
9.45
50
180.00000000000003
51
270.0
0
LINE
8
0
6
CONTINUOUS
10
-25.55
20
-35.0
30
0
11
25.55
21
-35.0
31
0
0
ARC
8
0
6
CONTINUOUS
10
25.549999999999997
20
-25.549999999999997
30
0
40
9.45
50
270.0
51
360.0
0
LINE
8
0
6
CONTINUOUS
10
35.0
20
-25.55
30
0
11
35.0
21
25.55
31
0
0
LINE
8
0
6
CONTINUOUS
10
-25.55
20
35.0
30
0
11
25.55
21
35.0
31
0
0
LINE
8
0
6
CONTINUOUS
10
-35.0
20
-25.55
30
0
11
-35.0
21
25.55
31
0
0
LINE
8
0
6
CONTINUOUS
10
25.55
20
-35.0
30
0
11
-25.55
21
-35.0
31
0
0
LINE
8
0
6
CONTINUOUS
10
35.0
20
25.55
30
0
11
35.0
21
-25.55
31
0
0
LINE
8
0
6
CONTINUOUS
10
-20.75
20
28.7
30
0
11
20.75
21
28.7
31
0
0
LINE
8
0
6
CONTINUOUS
10
-28.7
20
-20.75
30
0
11
-28.7
21
20.75
31
0
0
LINE
8
0
6
CONTINUOUS
10
20.75
20
-28.7
30
0
11
-20.75
21
-28.7
31
0
0
LINE
8
0
6
CONTINUOUS
10
28.7
20
20.75
30
0
11
28.7
21
-20.75
31
0
0
ARC
8
0
6
CONTINUOUS
10
-25.549999999999997
20
25.549999999999997
30
0
40
9.45
50
90.00000000000003
51
179.99999999999997
0
ARC
8
0
6
CONTINUOUS
10
25.549999999999997
20
25.549999999999997
30
0
40
9.45
50
2.154026450938254e-14
51
89.99999999999999
0
ARC
8
0
6
CONTINUOUS
10
-25.549999999999997
20
-25.549999999999997
30
0
40
9.45
50
180.00000000000003
51
270.0
0
ARC
8
0
6
CONTINUOUS
10
25.549999999999997
20
-25.549999999999997
30
0
40
9.45
50
270.0
51
360.0
0
ARC
8
0
6
CONTINUOUS
10
-20.75
20
20.75
30
0
40
7.95
50
90.0
51
180.0
0
ARC
8
0
6
CONTINUOUS
10
20.75
20
20.75
30
0
40
7.95
50
0.0
51
90.0
0
ARC
8
0
6
CONTINUOUS
10
20.75
20
-20.75
30
0
40
7.95
50
270.0
51
0.0
0
ARC
8
0
6
CONTINUOUS
10
-20.75
20
-20.75
30
0
40
7.95
50
180.0
51
270.0
0
LINE
8
0
6
CENTER
10
-40.0
20
0.0
30
0
11
41.08
21
0.0
31
0
0
LINE
8
0
6
CENTER
10
-0.0
20
40.0
30
0
11
-0.0
21
-40.0
31
0
0
ENDSEC
0
EOF