0
SECTION
2
HEADER
0
ENDSEC
0
SECTION
2
TABLES
0
TABLE
2
LTYPE
70
3
0
LTYPE
2
CONTINUOUS
70
0
3
Solid line
72
65
73
0
40
0.0
0
LTYPE
2
CENTER
70
0
3
center
72
65
73
4
40
28.575
49
12.7
49
-6.35
49
3.175
49
-6.35
0
ENDTAB
0
TABLE
2
LAYER
70
1
0
LAYER
2
0
70
0
62
7
6
CONTINUOUS
0
ENDTAB
0
ENDSEC
0
SECTION
2
ENTITIES
0
LINE
8
0
6
CONTINUOUS
10
150.0
20
253.92
30
0
11
150.0
21
-255.0
31
0
0
LINE
8
0
6
CONTINUOUS
10
-150.0
20
253.92
30
0
11
-150.0
21
-255.0
31
0
0
LINE
8
0
6
CONTINUOUS
10
-150.0
20
220.0
30
0
11
150.0
21
220.0
31
0
0
LINE
8
0
6
CONTINUOUS
10
-150.0
20
250.0
30
0
11
150.0
21
250.0
31
0
0
LINE
8
0
6
CONTINUOUS
10
-7.5
20
253.92
30
0
11
-7.5
21
-255.0
31
0
0
LINE
8
0
6
CONTINUOUS
10
7.5
20
253.92
30
0
11
7.5
21
-255.0
31
0
0
LINE
8
0
6
CONTINUOUS
10
150.0
20
-220.0
30
0
11
-150.0
21
-220.0
31
0
0
LINE
8
0
6
CONTINUOUS
10
150.0
20
-250.0
30
0
11
-150.0
21
-250.0
31
0
0
LINE
8
0
6
CONTINUOUS
10
0.0
20
253.92
30
0
11
0.0
21
-255.0
31
0
0
LINE
8
0
6
CONTINUOUS
10
-150.0
20
0.0
30
0
11
150.0
21
0.0
31
0
0
ARC
8
0
6
CONTINUOUS
10
31.5
20
-196.0
30
0
40
24.0
50
180.0
51
270.0
0
LINE
8
0
6
CONTINUOUS
10
7.5
20
-196.0
30
0
11
7.5
21
196.0
31
0
0
ARC
8
0
6
CONTINUOUS
10
31.5
20
196.0
30
0
40
24.0
50
90.0
51
180.0
0
LINE
8
0
6
CONTINUOUS
10
31.5
20
220.0
30
0
11
150.0
21
220.0
31
0
0
LINE
8
0
6
CONTINUOUS
10
150.0
20
220.0
30
0
11
150.0
21
250.0
31
0
0
LINE
8
0
6
CONTINUOUS
10
150.0
20
250.0
30
0
11
-150.0
21
250.0
31
0
0
LINE
8
0
6
CONTINUOUS
10
-150.0
20
250.0
30
0
11
-150.0
21
220.0
31
0
0
LINE
8
0
6
CONTINUOUS
10
-150.0
20
220.0
30
0
11
-31.5
21
220.0
31
0
0
ARC
8
0
6
CONTINUOUS
10
-31.5
20
196.0
30
0
40
24.0
50
0.0
51
90.0
0
LINE
8
0
6
CONTINUOUS
10
-7.5
20
196.0
30
0
11
-7.5
21
-196.0
31
0
0
ARC
8
0
6
CONTINUOUS
10
-31.5
20
-196.0
30
0
40
24.0
50
270.0
51
0.0
0
LINE
8
0
6
CONTINUOUS
10
-31.5
20
-220.0
30
0
11
-150.0
21
-220.0
31
0
0
LINE
8
0
6
CONTINUOUS
10
-150.0
20
-220.0
30
0
11
-150.0
21
-250.0
31
0
0
LINE
8
0
6
CONTINUOUS
10
-150.0
20
-250.0
30
0
11
150.0
21
-250.0
31
0
0
LINE
8
0
6
CONTINUOUS
10
150.0
20
-250.0
30
0
11
150.0
21
-220.0
31
0
0
LINE
8
0
6
CONTINUOUS
10
150.0
20
-220.0
30
0
11
31.5
21
-220.0
31
0
0
LINE
8
0
6
CONTINUOUS
10
150.0
20
-250.0
30
0
11
150.0
21
-220.0
31
0
0
LINE
8
0
6
CONTINUOUS
10
150.0
20
-220.0
30
0
11
31.5
21
-220.0
31
0
0
ARC
8
0
6
CONTINUOUS
10
31.5
20
-196.0
30
0
40
24.0
50
180.0
51
270.0
0
LINE
8
0
6
CONTINUOUS
10
7.5
20
-196.0
30
0
11
7.5
21
196.0
31
0
0
LINE
8
0
6
CONTINUOUS
10
150.0
20
-250.0
30
0
11
-150.0
21
-250.0
31
0
0
LINE
8
0
6
CONTINUOUS
10
-150.0
20
-250.0
30
0
11
-150.0
21
-220.0
31
0
0
LINE
8
0
6
CONTINUOUS
10
-150.0
20
-220.0
30
0
11
-31.5
21
-220.0
31
0
0
ARC
8
0
6
CONTINUOUS
10
-31.5
20
-196.0
30
0
40
24.0
50
270.0
51
0.0
0
LINE
8
0
6
CONTINUOUS
10
-7.5
20
-196.0
30
0
11
-7.5
21
196.0
31
0
0
LINE
8
0
6
CONTINUOUS
10
150.0
20
250.0
30
0
11
150.0
21
220.0
31
0
0
LINE
8
0
6
CONTINUOUS
10
150.0
20
220.0
30
0
11
31.5
21
220.0
31
0
0
ARC
8
0
6
CONTINUOUS
10
31.5
20
196.0
30
0
40
24.0
50
90.0
51
180.0
0
LINE
8
0
6
CONTINUOUS
10
150.0
20
250.0
30
0
11
-150.0
21
250.0
31
0
0
LINE
8
0
6
CONTINUOUS
10
-150.0
20
250.0
30
0
11
-150.0
21
220.0
31
0
0
LINE
8
0
6
CONTINUOUS
10
-150.0
20
220.0
30
0
11
-31.5
21
220.0
31
0
0
ARC
8
0
6
CONTINUOUS
10
-31.5
20
196.0
30
0
40
24.0
50
0.0
51
90.0
0
LINE
8
0
6
CENTER
10
-0.0
20
-255.0
30
0
11
-0.0
21
253.92
31
0
0
LINE
8
0
6
CENTER
10
-150.0
20
0.0
30
0
11
150.0
21
0.0
31
0
0
ENDSEC
0
EOF