0
SECTION
2
HEADER
0
ENDSEC
0
SECTION
2
TABLES
0
TABLE
2
LTYPE
70
3
0
LTYPE
2
CONTINUOUS
70
0
3
Solid line
72
65
73
0
40
0.0
0
LTYPE
2
CENTER
70
0
3
center
72
65
73
4
40
28.575
49
12.7
49
-6.35
49
3.175
49
-6.35
0
ENDTAB
0
TABLE
2
LAYER
70
1
0
LAYER
2
0
70
0
62
7
6
CONTINUOUS
0
ENDTAB
0
ENDSEC
0
SECTION
2
ENTITIES
0
LINE
8
0
6
CONTINUOUS
10
59.5
20
60.92
30
0
11
59.5
21
-62.0
31
0
0
LINE
8
0
6
CONTINUOUS
10
-59.5
20
60.92
30
0
11
-59.5
21
-62.0
31
0
0
LINE
8
0
6
CONTINUOUS
10
-59.5
20
49.0
30
0
11
59.5
21
49.0
31
0
0
LINE
8
0
6
CONTINUOUS
10
-59.5
20
57.0
30
0
11
59.5
21
57.0
31
0
0
LINE
8
0
6
CONTINUOUS
10
-2.5
20
60.92
30
0
11
-2.5
21
-62.0
31
0
0
LINE
8
0
6
CONTINUOUS
10
2.5
20
60.92
30
0
11
2.5
21
-62.0
31
0
0
LINE
8
0
6
CONTINUOUS
10
59.5
20
-49.0
30
0
11
-59.5
21
-49.0
31
0
0
LINE
8
0
6
CONTINUOUS
10
59.5
20
-57.0
30
0
11
-59.5
21
-57.0
31
0
0
LINE
8
0
6
CONTINUOUS
10
0.0
20
60.92
30
0
11
0.0
21
-62.0
31
0
0
LINE
8
0
6
CONTINUOUS
10
-59.5
20
0.0
30
0
11
59.5
21
0.0
31
0
0
ARC
8
0
6
CONTINUOUS
10
13.5
20
-38.0
30
0
40
11.0
50
180.0
51
270.0
0
LINE
8
0
6
CONTINUOUS
10
2.5
20
-38.0
30
0
11
2.5
21
38.0
31
0
0
ARC
8
0
6
CONTINUOUS
10
13.5
20
38.0
30
0
40
11.0
50
90.0
51
180.0
0
LINE
8
0
6
CONTINUOUS
10
13.5
20
49.0
30
0
11
59.5
21
49.0
31
0
0
LINE
8
0
6
CONTINUOUS
10
59.5
20
49.0
30
0
11
59.5
21
57.0
31
0
0
LINE
8
0
6
CONTINUOUS
10
59.5
20
57.0
30
0
11
-59.5
21
57.0
31
0
0
LINE
8
0
6
CONTINUOUS
10
-59.5
20
57.0
30
0
11
-59.5
21
49.0
31
0
0
LINE
8
0
6
CONTINUOUS
10
-59.5
20
49.0
30
0
11
-13.5
21
49.0
31
0
0
ARC
8
0
6
CONTINUOUS
10
-13.5
20
38.0
30
0
40
11.0
50
0.0
51
90.0
0
LINE
8
0
6
CONTINUOUS
10
-2.5
20
38.0
30
0
11
-2.5
21
-38.0
31
0
0
ARC
8
0
6
CONTINUOUS
10
-13.5
20
-38.0
30
0
40
11.0
50
270.0
51
0.0
0
LINE
8
0
6
CONTINUOUS
10
-13.5
20
-49.0
30
0
11
-59.5
21
-49.0
31
0
0
LINE
8
0
6
CONTINUOUS
10
-59.5
20
-49.0
30
0
11
-59.5
21
-57.0
31
0
0
LINE
8
0
6
CONTINUOUS
10
-59.5
20
-57.0
30
0
11
59.5
21
-57.0
31
0
0
LINE
8
0
6
CONTINUOUS
10
59.5
20
-57.0
30
0
11
59.5
21
-49.0
31
0
0
LINE
8
0
6
CONTINUOUS
10
59.5
20
-49.0
30
0
11
13.5
21
-49.0
31
0
0
LINE
8
0
6
CONTINUOUS
10
59.5
20
-57.0
30
0
11
59.5
21
-49.0
31
0
0
LINE
8
0
6
CONTINUOUS
10
59.5
20
-49.0
30
0
11
13.5
21
-49.0
31
0
0
ARC
8
0
6
CONTINUOUS
10
13.5
20
-38.0
30
0
40
11.0
50
180.0
51
270.0
0
LINE
8
0
6
CONTINUOUS
10
2.5
20
-38.0
30
0
11
2.5
21
38.0
31
0
0
LINE
8
0
6
CONTINUOUS
10
59.5
20
-57.0
30
0
11
-59.5
21
-57.0
31
0
0
LINE
8
0
6
CONTINUOUS
10
-59.5
20
-57.0
30
0
11
-59.5
21
-49.0
31
0
0
LINE
8
0
6
CONTINUOUS
10
-59.5
20
-49.0
30
0
11
-13.5
21
-49.0
31
0
0
ARC
8
0
6
CONTINUOUS
10
-13.5
20
-38.0
30
0
40
11.0
50
270.0
51
0.0
0
LINE
8
0
6
CONTINUOUS
10
-2.5
20
-38.0
30
0
11
-2.5
21
38.0
31
0
0
LINE
8
0
6
CONTINUOUS
10
59.5
20
57.0
30
0
11
59.5
21
49.0
31
0
0
LINE
8
0
6
CONTINUOUS
10
59.5
20
49.0
30
0
11
13.5
21
49.0
31
0
0
ARC
8
0
6
CONTINUOUS
10
13.5
20
38.0
30
0
40
11.0
50
90.0
51
180.0
0
LINE
8
0
6
CONTINUOUS
10
59.5
20
57.0
30
0
11
-59.5
21
57.0
31
0
0
LINE
8
0
6
CONTINUOUS
10
-59.5
20
57.0
30
0
11
-59.5
21
49.0
31
0
0
LINE
8
0
6
CONTINUOUS
10
-59.5
20
49.0
30
0
11
-13.5
21
49.0
31
0
0
ARC
8
0
6
CONTINUOUS
10
-13.5
20
38.0
30
0
40
11.0
50
0.0
51
90.0
0
LINE
8
0
6
CENTER
10
-0.0
20
-62.0
30
0
11
-0.0
21
60.92
31
0
0
LINE
8
0
6
CENTER
10
-59.5
20
0.0
30
0
11
59.5
21
0.0
31
0
0
ENDSEC
0
EOF