0
SECTION
2
HEADER
0
ENDSEC
0
SECTION
2
TABLES
0
TABLE
2
LTYPE
70
3
0
LTYPE
2
CONTINUOUS
70
0
3
Solid line
72
65
73
0
40
0.0
0
LTYPE
2
CENTER
70
0
3
center
72
65
73
4
40
28.575
49
12.7
49
-6.35
49
3.175
49
-6.35
0
ENDTAB
0
TABLE
2
LAYER
70
1
0
LAYER
2
0
70
0
62
7
6
CONTINUOUS
0
ENDTAB
0
ENDSEC
0
SECTION
2
ENTITIES
0
LINE
8
0
6
CONTINUOUS
10
14.5
20
68.32
30
0
11
14.5
21
-66.68
31
0
0
LINE
8
0
6
CONTINUOUS
10
-5.0
20
-45.5
30
0
11
60.0
21
-45.5
31
0
0
LINE
8
0
6
CONTINUOUS
10
60.0
20
45.5
30
0
11
-5.0
21
45.5
31
0
0
LINE
8
0
6
CONTINUOUS
10
5.0
20
-66.68
30
0
11
5.0
21
68.32
31
0
0
LINE
8
0
6
CONTINUOUS
10
60.0
20
-66.68
30
0
11
60.0
21
68.32
31
0
0
LINE
8
0
6
CONTINUOUS
10
60.0
20
-33.5
30
0
11
-5.0
21
-33.5
31
0
0
LINE
8
0
6
CONTINUOUS
10
60.0
20
33.5
30
0
11
-5.0
21
33.5
31
0
0
LINE
8
0
6
CONTINUOUS
10
60.0
20
60.0
30
0
11
-5.0
21
60.0
31
0
0
LINE
8
0
6
CONTINUOUS
10
60.0
20
-60.0
30
0
11
-5.0
21
-60.0
31
0
0
LINE
8
0
6
CONTINUOUS
10
0.0
20
68.32
30
0
11
0.0
21
-66.68
31
0
0
LINE
8
0
6
CONTINUOUS
10
-5.0
20
0.0
30
0
11
60.0
21
0.0
31
0
0
LINE
8
0
6
CONTINUOUS
10
0.0
20
-60.0
30
0
11
60.0
21
-60.0
31
0
0
LINE
8
0
6
CONTINUOUS
10
60.0
20
-60.0
30
0
11
60.0
21
-45.5
31
0
0
LINE
8
0
6
CONTINUOUS
10
60.0
20
-45.5
30
0
11
17.0
21
-45.5
31
0
0
ARC
8
0
6
CONTINUOUS
10
17.0
20
-33.5
30
0
40
12.0
50
180.0
51
270.0
0
LINE
8
0
6
CONTINUOUS
10
5.0
20
-33.5
30
0
11
5.0
21
33.5
31
0
0
ARC
8
0
6
CONTINUOUS
10
17.0
20
33.5
30
0
40
12.0
50
90.0
51
180.0
0
LINE
8
0
6
CONTINUOUS
10
17.0
20
45.5
30
0
11
60.0
21
45.5
31
0
0
LINE
8
0
6
CONTINUOUS
10
60.0
20
45.5
30
0
11
60.0
21
60.0
31
0
0
LINE
8
0
6
CONTINUOUS
10
60.0
20
60.0
30
0
11
0.0
21
60.0
31
0
0
LINE
8
0
6
CONTINUOUS
10
0.0
20
60.0
30
0
11
0.0
21
-60.0
31
0
0
LINE
8
0
6
CONTINUOUS
10
60.0
20
-60.0
30
0
11
0.0
21
-60.0
31
0
0
LINE
8
0
6
CONTINUOUS
10
0.0
20
-60.0
30
0
11
0.0
21
60.0
31
0
0
LINE
8
0
6
CONTINUOUS
10
0.0
20
60.0
30
0
11
60.0
21
60.0
31
0
0
LINE
8
0
6
CONTINUOUS
10
60.0
20
60.0
30
0
11
60.0
21
45.5
31
0
0
LINE
8
0
6
CONTINUOUS
10
60.0
20
45.5
30
0
11
17.0
21
45.5
31
0
0
LINE
8
0
6
CONTINUOUS
10
5.0
20
33.5
30
0
11
5.0
21
-33.5
31
0
0
LINE
8
0
6
CONTINUOUS
10
17.0
20
-45.5
30
0
11
60.0
21
-45.5
31
0
0
LINE
8
0
6
CONTINUOUS
10
60.0
20
-45.5
30
0
11
60.0
21
-60.0
31
0
0
ARC
8
0
6
CONTINUOUS
10
17.0
20
33.5
30
0
40
12.0
50
90.0
51
180.0
0
ARC
8
0
6
CONTINUOUS
10
17.0
20
-33.5
30
0
40
12.0
50
180.0
51
270.0
0
LINE
8
0
6
CENTER
10
-5.0
20
0.0
30
0
11
60.0
21
0.0
31
0
0
LINE
8
0
6
CENTER
10
55.0
20
-66.68
30
0
11
55.0
21
68.32
31
0
0
ENDSEC
0
EOF