0
SECTION
2
HEADER
0
ENDSEC
0
SECTION
2
TABLES
0
TABLE
2
LTYPE
70
3
0
LTYPE
2
CONTINUOUS
70
0
3
Solid line
72
65
73
0
40
0.0
0
LTYPE
2
CENTER
70
0
3
center
72
65
73
4
40
28.575
49
12.7
49
-6.35
49
3.175
49
-6.35
0
ENDTAB
0
TABLE
2
LAYER
70
1
0
LAYER
2
0
70
0
62
7
6
CONTINUOUS
0
ENDTAB
0
ENDSEC
0
SECTION
2
ENTITIES
0
LINE
8
0
6
CONTINUOUS
10
61.0
20
171.77
30
0
11
61.0
21
-90.32
31
0
0
LINE
8
0
6
CONTINUOUS
10
-61.0
20
171.77
30
0
11
-61.0
21
-90.32
31
0
0
LINE
8
0
6
CONTINUOUS
10
61.0
20
171.77
30
0
11
-61.0
21
171.77
31
0
0
LINE
8
0
6
CONTINUOUS
10
61.0
20
-90.32
30
0
11
-61.0
21
-90.32
31
0
0
LINE
8
0
6
CONTINUOUS
10
61.0
20
-74.57
30
0
11
-61.0
21
-74.57
31
0
0
LINE
8
0
6
CONTINUOUS
10
61.0
20
155.93
30
0
11
-61.0
21
155.93
31
0
0
LINE
8
0
6
CONTINUOUS
10
27.5
20
-90.32
30
0
11
27.5
21
171.77
31
0
0
LINE
8
0
6
CONTINUOUS
10
-27.5
20
171.77
30
0
11
-27.5
21
-90.32
31
0
0
LINE
8
0
6
CONTINUOUS
10
55.0
20
171.77
30
0
11
55.0
21
-90.32
31
0
0
LINE
8
0
6
CONTINUOUS
10
-55.0
20
171.77
30
0
11
-55.0
21
-90.32
31
0
0
LINE
8
0
6
CONTINUOUS
10
-61.0
20
165.68
30
0
11
61.0
21
165.68
31
0
0
LINE
8
0
6
CONTINUOUS
10
-4.5
20
171.77
30
0
11
-4.5
21
-90.32
31
0
0
LINE
8
0
6
CONTINUOUS
10
4.5
20
171.77
30
0
11
4.5
21
-90.32
31
0
0
LINE
8
0
6
CONTINUOUS
10
61.0
20
-84.32
30
0
11
-61.0
21
-84.32
31
0
0
LINE
8
0
6
CONTINUOUS
10
0.0
20
171.77
30
0
11
0.0
21
-90.32
31
0
0
LINE
8
0
6
CONTINUOUS
10
-61.0
20
40.68
30
0
11
61.0
21
40.68
31
0
0
LINE
8
0
6
CONTINUOUS
10
-55.0
20
-84.32
30
0
11
55.0
21
-84.32
31
0
0
LINE
8
0
6
CONTINUOUS
10
55.0
20
-84.32
30
0
11
55.0
21
-74.55
31
0
0
LINE
8
0
6
CONTINUOUS
10
55.0
20
-74.55
30
0
11
27.63
21
-70.72
31
0
0
LINE
8
0
6
CONTINUOUS
10
27.63
20
-70.72
30
0
11
8.93
21
-68.1
31
0
0
ARC
8
0
6
CONTINUOUS
10
13.499999360350579
20
-60.346606817244755
30
0
40
9.0
50
180.0216016728442
51
239.48408304946724
0
LINE
8
0
6
CONTINUOUS
10
4.5
20
-60.35
30
0
11
4.5
21
142.03
31
0
0
ARC
8
0
6
CONTINUOUS
10
13.499999899944429
20
142.03134201351642
30
0
40
9.0
50
125.3724301124358
51
180.00854352342503
0
LINE
8
0
6
CONTINUOUS
10
8.29
20
149.37
30
0
11
27.63
21
152.08
31
0
0
LINE
8
0
6
CONTINUOUS
10
27.63
20
152.08
30
0
11
55.0
21
155.91
31
0
0
LINE
8
0
6
CONTINUOUS
10
55.0
20
155.91
30
0
11
55.0
21
165.68
31
0
0
LINE
8
0
6
CONTINUOUS
10
55.0
20
165.68
30
0
11
-55.0
21
165.68
31
0
0
LINE
8
0
6
CONTINUOUS
10
-55.0
20
165.68
30
0
11
-55.0
21
155.91
31
0
0
LINE
8
0
6
CONTINUOUS
10
-55.0
20
155.91
30
0
11
-27.63
21
152.08
31
0
0
LINE
8
0
6
CONTINUOUS
10
-27.63
20
152.08
30
0
11
-6.83
21
149.17
31
0
0
ARC
8
0
6
CONTINUOUS
10
-13.499999668722294
20
143.12755807481406
30
0
40
9.0
50
0.01554577875082072
51
42.17385175049554
0
LINE
8
0
6
CONTINUOUS
10
-4.5
20
143.13
30
0
11
-4.5
21
-61.85
31
0
0
ARC
8
0
6
CONTINUOUS
10
-13.499999860882578
20
-61.848417560879305
30
0
40
9.0
50
318.6867162970107
51
359.98992587962005
0
LINE
8
0
6
CONTINUOUS
10
-6.74
20
-67.79
30
0
11
-27.63
21
-70.72
31
0
0
LINE
8
0
6
CONTINUOUS
10
-27.63
20
-70.72
30
0
11
-55.0
21
-74.55
31
0
0
LINE
8
0
6
CONTINUOUS
10
-55.0
20
-74.55
30
0
11
-55.0
21
-84.32
31
0
0
LINE
8
0
6
CONTINUOUS
10
55.0
20
-84.32
30
0
11
55.0
21
-74.55
31
0
0
LINE
8
0
6
CONTINUOUS
10
4.5
20
-60.35
30
0
11
4.5
21
142.03
31
0
0
LINE
8
0
6
CONTINUOUS
10
55.0
20
-84.32
30
0
11
-55.0
21
-84.32
31
0
0
LINE
8
0
6
CONTINUOUS
10
-55.0
20
-84.32
30
0
11
-55.0
21
-74.55
31
0
0
ARC
8
0
6
CONTINUOUS
10
-13.499999860882578
20
-61.848417560879305
30
0
40
9.0
50
318.6867162970107
51
359.98992587962005
0
LINE
8
0
6
CONTINUOUS
10
-4.5
20
-61.85
30
0
11
-4.5
21
143.13
31
0
0
LINE
8
0
6
CONTINUOUS
10
55.0
20
155.91
30
0
11
27.63
21
152.08
31
0
0
ARC
8
0
6
CONTINUOUS
10
13.499999899944429
20
142.03134201351642
30
0
40
9.0
50
125.3724301124358
51
180.00854352342503
0
LINE
8
0
6
CONTINUOUS
10
55.0
20
165.68
30
0
11
-55.0
21
165.68
31
0
0
LINE
8
0
6
CONTINUOUS
10
-55.0
20
165.68
30
0
11
-55.0
21
155.91
31
0
0
LINE
8
0
6
CONTINUOUS
10
-55.0
20
155.91
30
0
11
-27.63
21
152.08
31
0
0
LINE
8
0
6
CONTINUOUS
10
-55.0
20
-74.55
30
0
11
-27.63
21
-70.72
31
0
0
LINE
8
0
6
CONTINUOUS
10
55.0
20
-74.55
30
0
11
27.63
21
-70.72
31
0
0
ARC
8
0
6
CONTINUOUS
10
13.499999360350579
20
-60.346606817244755
30
0
40
9.0
50
180.0216016728442
51
239.48408304946724
0
ARC
8
0
6
CONTINUOUS
10
-13.499999668722294
20
143.12755807481406
30
0
40
9.0
50
0.01554577875082072
51
42.17385175049554
0
LINE
8
0
6
CONTINUOUS
10
55.0
20
165.68
30
0
11
55.0
21
155.91
31
0
0
LINE
8
0
6
CONTINUOUS
10
-27.63
20
-70.72
30
0
11
-6.74
21
-67.79
31
0
0
LINE
8
0
6
CONTINUOUS
10
27.63
20
-70.72
30
0
11
8.93
21
-68.1
31
0
0
LINE
8
0
6
CONTINUOUS
10
27.63
20
152.08
30
0
11
8.29
21
149.37
31
0
0
LINE
8
0
6
CONTINUOUS
10
-27.63
20
152.08
30
0
11
-6.83
21
149.17
31
0
0
LINE
8
0
6
CENTER
10
-0.0
20
-90.32
30
0
11
-0.0
21
171.77
31
0
0
LINE
8
0
6
CENTER
10
-61.0
20
40.66
30
0
11
61.0
21
40.66
31
0
0
ENDSEC
0
EOF