0
SECTION
2
HEADER
0
ENDSEC
0
SECTION
2
TABLES
0
TABLE
2
LTYPE
70
3
0
LTYPE
2
CONTINUOUS
70
0
3
Solid line
72
65
73
0
40
0.0
0
LTYPE
2
CENTER
70
0
3
center
72
65
73
4
40
28.575
49
12.7
49
-6.35
49
3.175
49
-6.35
0
ENDTAB
0
TABLE
2
LAYER
70
1
0
LAYER
2
0
70
0
62
7
6
CONTINUOUS
0
ENDTAB
0
ENDSEC
0
SECTION
2
ENTITIES
0
LINE
8
0
6
CONTINUOUS
10
25.0
20
54.37
30
0
11
25.0
21
-53.46
31
0
0
LINE
8
0
6
CONTINUOUS
10
34.88
20
54.37
30
0
11
34.88
21
-53.46
31
0
0
LINE
8
0
6
CONTINUOUS
10
8.5
20
54.37
30
0
11
8.5
21
-53.46
31
0
0
LINE
8
0
6
CONTINUOUS
10
-5.0
20
-41.5
30
0
11
50.0
21
-41.5
31
0
0
LINE
8
0
6
CONTINUOUS
10
50.0
20
41.5
30
0
11
-5.0
21
41.5
31
0
0
LINE
8
0
6
CONTINUOUS
10
6.0
20
-53.46
30
0
11
6.0
21
54.37
31
0
0
LINE
8
0
6
CONTINUOUS
10
50.0
20
-53.46
30
0
11
50.0
21
54.37
31
0
0
LINE
8
0
6
CONTINUOUS
10
50.0
20
50.0
30
0
11
-5.0
21
50.0
31
0
0
LINE
8
0
6
CONTINUOUS
10
50.0
20
-50.0
30
0
11
-5.0
21
-50.0
31
0
0
LINE
8
0
6
CONTINUOUS
10
0.0
20
54.37
30
0
11
0.0
21
-53.46
31
0
0
LINE
8
0
6
CONTINUOUS
10
-5.0
20
0.0
30
0
11
50.0
21
0.0
31
0
0
LINE
8
0
6
CONTINUOUS
10
50.0
20
-50.0
30
0
11
50.0
21
-47.65
31
0
0
ARC
8
0
6
CONTINUOUS
10
45.50000345608478
20
-47.65557716335023
30
0
40
4.5
50
0.07101066742880455
51
85.41147840994398
0
LINE
8
0
6
CONTINUOUS
10
45.86
20
-43.17
30
0
11
25.0
21
-41.5
31
0
0
LINE
8
0
6
CONTINUOUS
10
25.0
20
-41.5
30
0
11
13.82
21
-40.61
31
0
0
ARC
8
0
6
CONTINUOUS
10
14.49999691370419
20
-32.137243412126566
30
0
40
8.5
50
179.95117447125224
51
265.41145513483934
0
LINE
8
0
6
CONTINUOUS
10
6.0
20
-32.13
30
0
11
6.0
21
32.13
31
0
0
ARC
8
0
6
CONTINUOUS
10
14.49999691370419
20
32.137243412126566
30
0
40
8.5
50
94.58854486516069
51
180.04882552874776
0
LINE
8
0
6
CONTINUOUS
10
13.82
20
40.61
30
0
11
25.0
21
41.5
31
0
0
LINE
8
0
6
CONTINUOUS
10
25.0
20
41.5
30
0
11
45.86
21
43.17
31
0
0
ARC
8
0
6
CONTINUOUS
10
45.50000345608478
20
47.65557716335023
30
0
40
4.5
50
274.588521590056
51
359.9289893325712
0
LINE
8
0
6
CONTINUOUS
10
50.0
20
47.65
30
0
11
50.0
21
50.0
31
0
0
LINE
8
0
6
CONTINUOUS
10
50.0
20
50.0
30
0
11
0.0
21
50.0
31
0
0
LINE
8
0
6
CONTINUOUS
10
0.0
20
50.0
30
0
11
0.0
21
-50.0
31
0
0
LINE
8
0
6
CONTINUOUS
10
0.0
20
-50.0
30
0
11
50.0
21
-50.0
31
0
0
LINE
8
0
6
CENTER
10
-5.0
20
0.0
30
0
11
50.0
21
0.0
31
0
0
LINE
8
0
6
CENTER
10
15.5
20
-53.46
30
0
11
15.5
21
54.37
31
0
0
ENDSEC
0
EOF