0
SECTION
2
HEADER
0
ENDSEC
0
SECTION
2
TABLES
0
TABLE
2
LTYPE
70
3
0
LTYPE
2
CONTINUOUS
70
0
3
Solid line
72
65
73
0
40
0.0
0
LTYPE
2
CENTER
70
0
3
center
72
65
73
4
40
28.575
49
12.7
49
-6.35
49
3.175
49
-6.35
0
ENDTAB
0
TABLE
2
LAYER
70
1
0
LAYER
2
0
70
0
62
7
6
CONTINUOUS
0
ENDTAB
0
ENDSEC
0
SECTION
2
ENTITIES
0
LINE
8
0
6
CONTINUOUS
10
39.0
20
116.77
30
0
11
39.0
21
-35.32
31
0
0
LINE
8
0
6
CONTINUOUS
10
-39.0
20
116.77
30
0
11
-39.0
21
-35.32
31
0
0
LINE
8
0
6
CONTINUOUS
10
39.0
20
116.77
30
0
11
-39.0
21
116.77
31
0
0
LINE
8
0
6
CONTINUOUS
10
39.0
20
-35.32
30
0
11
-39.0
21
-35.32
31
0
0
LINE
8
0
6
CONTINUOUS
10
39.0
20
-23.03
30
0
11
-39.0
21
-23.03
31
0
0
LINE
8
0
6
CONTINUOUS
10
39.0
20
104.39
30
0
11
-39.0
21
104.39
31
0
0
LINE
8
0
6
CONTINUOUS
10
16.5
20
-35.32
30
0
11
16.5
21
116.77
31
0
0
LINE
8
0
6
CONTINUOUS
10
-16.5
20
116.77
30
0
11
-16.5
21
-35.32
31
0
0
LINE
8
0
6
CONTINUOUS
10
33.0
20
116.77
30
0
11
33.0
21
-35.32
31
0
0
LINE
8
0
6
CONTINUOUS
10
-33.0
20
116.77
30
0
11
-33.0
21
-35.32
31
0
0
LINE
8
0
6
CONTINUOUS
10
-39.0
20
110.68
30
0
11
39.0
21
110.68
31
0
0
LINE
8
0
6
CONTINUOUS
10
-2.85
20
116.77
30
0
11
-2.85
21
-35.32
31
0
0
LINE
8
0
6
CONTINUOUS
10
2.85
20
116.77
30
0
11
2.85
21
-35.32
31
0
0
LINE
8
0
6
CONTINUOUS
10
39.0
20
-29.32
30
0
11
-39.0
21
-29.32
31
0
0
LINE
8
0
6
CONTINUOUS
10
0.0
20
116.77
30
0
11
0.0
21
-35.32
31
0
0
LINE
8
0
6
CONTINUOUS
10
-39.0
20
40.68
30
0
11
39.0
21
40.68
31
0
0
LINE
8
0
6
CONTINUOUS
10
-33.0
20
-29.32
30
0
11
33.0
21
-29.32
31
0
0
LINE
8
0
6
CONTINUOUS
10
33.0
20
-29.32
30
0
11
33.0
21
-23.01
31
0
0
LINE
8
0
6
CONTINUOUS
10
33.0
20
-23.01
30
0
11
16.63
21
-20.72
31
0
0
LINE
8
0
6
CONTINUOUS
10
16.63
20
-20.72
30
0
11
7.28
21
-19.41
31
0
0
ARC
8
0
6
CONTINUOUS
10
8.549999054480107
20
-13.853283127455597
30
0
40
5.7
50
179.96699835838413
51
257.12605341179574
0
LINE
8
0
6
CONTINUOUS
10
2.85
20
-13.85
30
0
11
2.85
21
95.31
31
0
0
ARC
8
0
6
CONTINUOUS
10
8.54999998098915
20
95.30953446406912
30
0
40
5.7
50
109.57787199342867
51
179.99532048349457
0
LINE
8
0
6
CONTINUOUS
10
6.64
20
100.68
30
0
11
16.63
21
102.08
31
0
0
LINE
8
0
6
CONTINUOUS
10
16.63
20
102.08
30
0
11
33.0
21
104.37
31
0
0
LINE
8
0
6
CONTINUOUS
10
33.0
20
104.37
30
0
11
33.0
21
110.68
31
0
0
LINE
8
0
6
CONTINUOUS
10
33.0
20
110.68
30
0
11
-33.0
21
110.68
31
0
0
LINE
8
0
6
CONTINUOUS
10
-33.0
20
110.68
30
0
11
-33.0
21
104.37
31
0
0
LINE
8
0
6
CONTINUOUS
10
-33.0
20
104.37
30
0
11
-16.63
21
102.08
31
0
0
LINE
8
0
6
CONTINUOUS
10
-16.63
20
102.08
30
0
11
-5.18
21
100.48
31
0
0
ARC
8
0
6
CONTINUOUS
10
-8.549999249869288
20
95.882924293001
30
0
40
5.7
50
359.97060532379527
51
53.75580505121681
0
LINE
8
0
6
CONTINUOUS
10
-2.85
20
95.88
30
0
11
-2.85
21
-14.57
31
0
0
ARC
8
0
6
CONTINUOUS
10
-8.549999993320728
20
-14.570275941492621
30
0
40
5.7
50
307.37416289954143
51
0.0027737338466489875
0
LINE
8
0
6
CONTINUOUS
10
-5.09
20
-19.1
30
0
11
-16.63
21
-20.72
31
0
0
LINE
8
0
6
CONTINUOUS
10
-16.63
20
-20.72
30
0
11
-33.0
21
-23.01
31
0
0
LINE
8
0
6
CONTINUOUS
10
-33.0
20
-23.01
30
0
11
-33.0
21
-29.32
31
0
0
LINE
8
0
6
CONTINUOUS
10
33.0
20
-29.32
30
0
11
33.0
21
-23.01
31
0
0
LINE
8
0
6
CONTINUOUS
10
2.85
20
-13.85
30
0
11
2.85
21
95.31
31
0
0
LINE
8
0
6
CONTINUOUS
10
33.0
20
-29.32
30
0
11
-33.0
21
-29.32
31
0
0
LINE
8
0
6
CONTINUOUS
10
-33.0
20
-29.32
30
0
11
-33.0
21
-23.01
31
0
0
ARC
8
0
6
CONTINUOUS
10
-8.549999993320728
20
-14.570275941492621
30
0
40
5.7
50
307.37416289954143
51
0.0027737338466489875
0
LINE
8
0
6
CONTINUOUS
10
-2.85
20
-14.57
30
0
11
-2.85
21
95.88
31
0
0
LINE
8
0
6
CONTINUOUS
10
33.0
20
104.37
30
0
11
16.63
21
102.08
31
0
0
ARC
8
0
6
CONTINUOUS
10
8.54999998098915
20
95.30953446406912
30
0
40
5.7
50
109.57787199342867
51
179.99532048349457
0
LINE
8
0
6
CONTINUOUS
10
33.0
20
110.68
30
0
11
-33.0
21
110.68
31
0
0
LINE
8
0
6
CONTINUOUS
10
-33.0
20
110.68
30
0
11
-33.0
21
104.37
31
0
0
LINE
8
0
6
CONTINUOUS
10
-33.0
20
104.37
30
0
11
-16.63
21
102.08
31
0
0
LINE
8
0
6
CONTINUOUS
10
-33.0
20
-23.01
30
0
11
-16.63
21
-20.72
31
0
0
LINE
8
0
6
CONTINUOUS
10
33.0
20
-23.01
30
0
11
16.63
21
-20.72
31
0
0
ARC
8
0
6
CONTINUOUS
10
8.549999054480107
20
-13.853283127455597
30
0
40
5.7
50
179.96699835838413
51
257.12605341179574
0
ARC
8
0
6
CONTINUOUS
10
-8.549999249869288
20
95.882924293001
30
0
40
5.7
50
359.97060532379527
51
53.75580505121681
0
LINE
8
0
6
CONTINUOUS
10
33.0
20
110.68
30
0
11
33.0
21
104.37
31
0
0
LINE
8
0
6
CONTINUOUS
10
-16.63
20
-20.72
30
0
11
-5.09
21
-19.1
31
0
0
LINE
8
0
6
CONTINUOUS
10
16.63
20
-20.72
30
0
11
7.28
21
-19.41
31
0
0
LINE
8
0
6
CONTINUOUS
10
16.63
20
102.08
30
0
11
6.64
21
100.68
31
0
0
LINE
8
0
6
CONTINUOUS
10
-16.63
20
102.08
30
0
11
-5.18
21
100.48
31
0
0
LINE
8
0
6
CENTER
10
-0.0
20
-35.32
30
0
11
-0.0
21
116.77
31
0
0
LINE
8
0
6
CENTER
10
-39.0
20
40.66
30
0
11
39.0
21
40.66
31
0
0
ENDSEC
0
EOF