0
SECTION
2
HEADER
0
ENDSEC
0
SECTION
2
TABLES
0
TABLE
2
LTYPE
70
2
0
LTYPE
2
CONTINUOUS
70
0
3
Solid line
72
65
73
0
40
0.0
0
ENDTAB
0
TABLE
2
LAYER
70
1
0
LAYER
2
0
70
0
62
7
6
CONTINUOUS
0
ENDTAB
0
ENDSEC
0
SECTION
2
ENTITIES
0
LINE
8
0
6
CONTINUOUS
10
10.0
20
-22.3
30
0
11
-0.0
21
-22.3
31
0
0
LINE
8
0
6
CONTINUOUS
10
10.0
20
6.58
30
0
11
-0.0
21
6.58
31
0
0
LINE
8
0
6
CONTINUOUS
10
5.0
20
-24.51
30
0
11
5.0
21
6.58
31
0
0
LINE
8
0
6
CONTINUOUS
10
10.0
20
-2.0
30
0
11
-0.0
21
-2.0
31
0
0
LINE
8
0
6
CONTINUOUS
10
10.0
20
-12.15
30
0
11
-0.0
21
-12.15
31
0
0
LINE
8
0
6
CONTINUOUS
10
10.0
20
-24.51
30
0
11
10.0
21
6.58
31
0
0
LINE
8
0
6
CONTINUOUS
10
0.0
20
-24.51
30
0
11
0.0
21
6.58
31
0
0
LINE
8
0
6
CONTINUOUS
10
-0.0
20
0.0
30
0
11
10.0
21
0.0
31
0
0
LINE
8
0
6
CONTINUOUS
10
0.0
20
-12.15
30
0
11
10.0
21
-12.15
31
0
0
LINE
8
0
6
CONTINUOUS
10
10.0
20
-12.15
30
0
11
10.0
21
0.0
31
0
0
LINE
8
0
6
CONTINUOUS
10
0.0
20
0.0
30
0
11
0.0
21
-12.15
31
0
0
LINE
8
0
6
CONTINUOUS
10
-0.0
20
-12.15
30
0
11
-0.0
21
-22.3
31
0
0
ARC
8
0
6
CONTINUOUS
10
5.0
20
-17.885376573251122
30
0
40
6.67
50
221.44207910691563
51
318.5579208930844
0
LINE
8
0
6
CONTINUOUS
10
10.0
20
-22.3
30
0
11
10.0
21
-12.15
31
0
0
ARC
8
0
6
CONTINUOUS
10
5.0
20
-16.564623426748877
30
0
40
6.67
50
41.442079106915635
51
138.55792089308437
0
ENDSEC
0
EOF