0
SECTION
2
HEADER
0
ENDSEC
0
SECTION
2
TABLES
0
TABLE
2
LTYPE
70
4
0
LTYPE
2
CONTINUOUS
70
0
3
Solid line
72
65
73
0
40
0.0
0
LTYPE
2
DASHED
70
0
3
dashed
72
65
73
2
40
12.7
49
6.35
49
-6.35
0
LTYPE
2
CENTER
70
0
3
center
72
65
73
4
40
28.575
49
12.7
49
-6.35
49
3.175
49
-6.35
0
ENDTAB
0
TABLE
2
LAYER
70
1
0
LAYER
2
0
70
0
62
7
6
CONTINUOUS
0
ENDTAB
0
ENDSEC
0
SECTION
2
ENTITIES
0
LINE
8
0
6
CONTINUOUS
10
46.33
20
90.0
30
0
11
24.33
21
-34.75
31
0
0
LINE
8
0
6
CONTINUOUS
10
15.87
20
90.0
30
0
11
-6.13
21
-34.75
31
0
0
LINE
8
0
6
CONTINUOUS
10
49.67
20
-6.22
30
0
11
44.64
21
-34.75
31
0
0
LINE
8
0
6
CONTINUOUS
10
49.67
20
-6.22
30
0
11
-30.0
21
7.83
31
0
0
LINE
8
0
6
CONTINUOUS
10
49.67
20
-8.76
30
0
11
-30.0
21
5.29
31
0
0
LINE
8
0
6
CONTINUOUS
10
49.67
20
70.0
30
0
11
-30.0
21
70.0
31
0
0
LINE
8
0
6
CONTINUOUS
10
2.5
20
-34.75
30
0
11
2.5
21
90.0
31
0
0
LINE
8
0
6
CONTINUOUS
10
49.67
20
90.0
30
0
11
-30.0
21
90.0
31
0
0
LINE
8
0
6
CONTINUOUS
10
0.0
20
-34.75
30
0
11
0.0
21
90.0
31
0
0
LINE
8
0
6
CONTINUOUS
10
-30.0
20
0.0
30
0
11
49.67
21
0.0
31
0
0
LINE
8
0
6
DASHED
10
2.5
20
2.1
30
0
11
2.5
21
90.0
31
0
0
LINE
8
0
6
DASHED
10
2.5
20
90.0
30
0
11
0.0
21
90.0
31
0
0
LINE
8
0
6
DASHED
10
0.0
20
90.0
30
0
11
0.0
21
0.0
31
0
0
LINE
8
0
6
CONTINUOUS
10
0.0
20
80.0
30
0
11
2.5
21
80.0
31
0
0
LINE
8
0
6
CONTINUOUS
10
0.0
20
60.0
30
0
11
2.5
21
60.0
31
0
0
LINE
8
0
6
CENTER
10
-30.0
20
70.0
30
0
11
10.0
21
70.0
31
0
0
LINE
8
0
6
CENTER
10
31.28
20
4.64
30
0
11
24.33
21
-34.75
31
0
0
LINE
8
0
6
DASHED
10
0.0
20
0.0
30
0
11
49.24
21
-8.68
31
0
0
LINE
8
0
6
DASHED
10
49.24
20
-8.68
30
0
11
49.67
21
-6.22
31
0
0
LINE
8
0
6
DASHED
10
49.67
20
-6.22
30
0
11
2.5
21
2.1
31
0
0
ENDSEC
0
EOF