0
SECTION
2
HEADER
0
ENDSEC
0
SECTION
2
TABLES
0
TABLE
2
LTYPE
70
2
0
LTYPE
2
CONTINUOUS
70
0
3
Solid line
72
65
73
0
40
0.0
0
ENDTAB
0
TABLE
2
LAYER
70
1
0
LAYER
2
0
70
0
62
7
6
CONTINUOUS
0
ENDTAB
0
ENDSEC
0
SECTION
2
ENTITIES
0
LINE
8
0
6
CONTINUOUS
10
135.0
20
0.0
30
0
11
135.0
21
-100.0
31
0
0
LINE
8
0
6
CONTINUOUS
10
160.0
20
-60.0
30
0
11
-0.0
21
-60.0
31
0
0
LINE
8
0
6
CONTINUOUS
10
160.0
20
-80.0
30
0
11
-0.0
21
-80.0
31
0
0
LINE
8
0
6
CONTINUOUS
10
160.0
20
-100.0
30
0
11
-0.0
21
-100.0
31
0
0
LINE
8
0
6
CONTINUOUS
10
160.0
20
0.0
30
0
11
160.0
21
-100.0
31
0
0
LINE
8
0
6
CONTINUOUS
10
0.0
20
0.0
30
0
11
0.0
21
-100.0
31
0
0
LINE
8
0
6
CONTINUOUS
10
-0.0
20
0.0
30
0
11
160.0
21
0.0
31
0
0
LINE
8
0
6
CONTINUOUS
10
160.0
20
-100.0
30
0
11
160.0
21
0.0
31
0
0
LINE
8
0
6
CONTINUOUS
10
160.0
20
0.0
30
0
11
35.0
21
0.0
31
0
0
ARC
8
0
6
CONTINUOUS
10
25.0
20
0.0
30
0
40
10.0
50
180.0
51
0.0
0
LINE
8
0
6
CONTINUOUS
10
15.0
20
0.0
30
0
11
5.0
21
0.0
31
0
0
ARC
8
0
6
CONTINUOUS
10
5.0
20
-5.0
30
0
40
5.0
50
90.0
51
180.0
0
LINE
8
0
6
CONTINUOUS
10
0.0
20
-5.0
30
0
11
0.0
21
-56.07
31
0
0
ARC
8
0
6
CONTINUOUS
10
4.99999984755462
20
-56.071234687724555
30
0
40
5.0
50
179.9858515207295
51
256.3494251244366
0
LINE
8
0
6
CONTINUOUS
10
3.82
20
-60.93
30
0
11
135.0
21
-80.0
31
0
0
LINE
8
0
6
CONTINUOUS
10
135.0
20
-80.0
30
0
11
135.0
21
-100.0
31
0
0
LINE
8
0
6
CONTINUOUS
10
135.0
20
-100.0
30
0
11
160.0
21
-100.0
31
0
0
ENDSEC
0
EOF