0
SECTION
2
HEADER
0
ENDSEC
0
SECTION
2
TABLES
0
TABLE
2
LTYPE
70
2
0
LTYPE
2
CONTINUOUS
70
0
3
Solid line
72
65
73
0
40
0.0
0
ENDTAB
0
TABLE
2
LAYER
70
1
0
LAYER
2
0
70
0
62
7
6
CONTINUOUS
0
ENDTAB
0
ENDSEC
0
SECTION
2
ENTITIES
0
LINE
8
0
6
CONTINUOUS
10
-13.0
20
-115.2
30
0
11
-13.0
21
0.0
31
0
0
LINE
8
0
6
CONTINUOUS
10
2.0
20
0.0
30
0
11
2.0
21
-115.2
31
0
0
LINE
8
0
6
CONTINUOUS
10
2.0
20
0.0
30
0
11
-106.14
21
0.0
31
0
0
LINE
8
0
6
CONTINUOUS
10
-101.5
20
-79.64
30
0
11
-101.5
21
-114.7
31
0
0
ARC
8
0
6
CONTINUOUS
10
-101.0
20
-114.7
30
0
40
0.5
50
180.0
51
270.0
0
LINE
8
0
6
CONTINUOUS
10
-101.0
20
-115.2
30
0
11
-87.0
21
-115.2
31
0
0
ARC
8
0
6
CONTINUOUS
10
-87.0
20
-114.7
30
0
40
0.5
50
270.0
51
0.0
0
LINE
8
0
6
CONTINUOUS
10
-86.5
20
-114.7
30
0
11
-86.5
21
-113.9
31
0
0
LINE
8
0
6
CONTINUOUS
10
-86.5
20
-113.9
30
0
11
-89.0
21
-113.9
31
0
0
LINE
8
0
6
CONTINUOUS
10
-89.0
20
-113.9
30
0
11
-89.0
21
-112.86
31
0
0
ARC
8
0
6
CONTINUOUS
10
-87.53003401399629
20
-112.86999999960648
30
0
40
1.47
50
89.99867424596488
51
179.61022980149355
0
LINE
8
0
6
CONTINUOUS
10
-87.53
20
-111.4
30
0
11
-84.8
21
-111.4
31
0
0
LINE
8
0
6
CONTINUOUS
10
-84.8
20
-111.4
30
0
11
-84.8
21
-112.2
31
0
0
LINE
8
0
6
CONTINUOUS
10
-84.8
20
-112.2
30
0
11
-82.51
21
-111.4
31
0
0
LINE
8
0
6
CONTINUOUS
10
-82.51
20
-111.4
30
0
11
-82.51
21
-110.4
31
0
0
LINE
8
0
6
CONTINUOUS
10
-82.51
20
-110.4
30
0
11
-87.51
21
-110.4
31
0
0
ARC
8
0
6
CONTINUOUS
10
-87.50999999999999
20
-112.89000000000001
30
0
40
2.49
50
90.00000000000033
51
179.99999999999966
0
LINE
8
0
6
CONTINUOUS
10
-90.0
20
-112.89
30
0
11
-90.0
21
-113.9
31
0
0
LINE
8
0
6
CONTINUOUS
10
-90.0
20
-113.9
30
0
11
-100.2
21
-113.9
31
0
0
LINE
8
0
6
CONTINUOUS
10
-100.2
20
-113.9
30
0
11
-100.2
21
-94.6
31
0
0
LINE
8
0
6
CONTINUOUS
10
-100.2
20
-94.6
30
0
11
-94.36
21
-94.6
31
0
0
LINE
8
0
6
CONTINUOUS
10
-94.36
20
-94.6
30
0
11
-90.56
21
-98.4
31
0
0
LINE
8
0
6
CONTINUOUS
10
-90.56
20
-98.4
30
0
11
-82.51
21
-98.4
31
0
0
LINE
8
0
6
CONTINUOUS
10
-82.51
20
-98.4
30
0
11
-82.51
21
-96.76
31
0
0
LINE
8
0
6
CONTINUOUS
10
-82.51
20
-96.76
30
0
11
-84.69
21
-95.72
31
0
0
LINE
8
0
6
CONTINUOUS
10
-84.69
20
-95.72
30
0
11
-84.69
21
-97.4
31
0
0
LINE
8
0
6
CONTINUOUS
10
-84.69
20
-97.4
30
0
11
-90.0
21
-97.4
31
0
0
LINE
8
0
6
CONTINUOUS
10
-90.0
20
-97.4
30
0
11
-94.0
21
-93.4
31
0
0
LINE
8
0
6
CONTINUOUS
10
-94.0
20
-93.4
30
0
11
-100.3
21
-93.4
31
0
0
LINE
8
0
6
CONTINUOUS
10
-100.3
20
-93.4
30
0
11
-100.3
21
-82.6
31
0
0
LINE
8
0
6
CONTINUOUS
10
-100.3
20
-82.6
30
0
11
-94.36
21
-82.6
31
0
0
LINE
8
0
6
CONTINUOUS
10
-94.36
20
-82.6
30
0
11
-94.36
21
-81.4
31
0
0
LINE
8
0
6
CONTINUOUS
10
-94.36
20
-81.4
30
0
11
-100.3
21
-81.4
31
0
0
LINE
8
0
6
CONTINUOUS
10
-100.3
20
-81.4
30
0
11
-100.3
21
-80.25
31
0
0
LINE
8
0
6
CONTINUOUS
10
-100.3
20
-80.25
30
0
11
-99.5
21
-80.04
31
0
0
LINE
8
0
6
CONTINUOUS
10
-99.5
20
-80.04
30
0
11
-99.5
21
-79.1
31
0
0
LINE
8
0
6
CONTINUOUS
10
-99.5
20
-79.1
30
0
11
-101.5
21
-79.64
31
0
0
ARC
8
0
6
CONTINUOUS
10
-67.0
20
-114.7
30
0
40
0.5
50
270.0
51
0.0
0
LINE
8
0
6
CONTINUOUS
10
-66.5
20
-114.7
30
0
11
-66.5
21
-111.71
31
0
0
LINE
8
0
6
CONTINUOUS
10
-66.5
20
-111.71
30
0
11
-68.0
21
-111.3
31
0
0
LINE
8
0
6
CONTINUOUS
10
-68.0
20
-111.3
30
0
11
-68.0
21
-113.4
31
0
0
LINE
8
0
6
CONTINUOUS
10
-68.0
20
-113.4
30
0
11
-71.0
21
-113.4
31
0
0
LINE
8
0
6
CONTINUOUS
10
-71.0
20
-113.4
30
0
11
-71.0
21
-95.4
31
0
0
LINE
8
0
6
CONTINUOUS
10
-71.0
20
-95.4
30
0
11
-68.0
21
-95.4
31
0
0
LINE
8
0
6
CONTINUOUS
10
-68.0
20
-95.4
30
0
11
-68.0
21
-97.49
31
0
0
LINE
8
0
6
CONTINUOUS
10
-68.0
20
-97.49
30
0
11
-66.5
21
-97.08
31
0
0
LINE
8
0
6
CONTINUOUS
10
-66.5
20
-97.08
30
0
11
-66.5
21
-92.8
31
0
0
LINE
8
0
6
CONTINUOUS
10
-66.5
20
-92.8
30
0
11
-67.5
21
-92.53
31
0
0
LINE
8
0
6
CONTINUOUS
10
-67.5
20
-92.53
30
0
11
-67.5
21
-93.6
31
0
0
LINE
8
0
6
CONTINUOUS
10
-67.5
20
-93.6
30
0
11
-69.08
21
-93.6
31
0
0
LINE
8
0
6
CONTINUOUS
10
-69.08
20
-93.6
30
0
11
-69.08
21
-88.71
31
0
0
LINE
8
0
6
CONTINUOUS
10
-69.08
20
-88.71
30
0
11
-71.15
21
-89.91
31
0
0
LINE
8
0
6
CONTINUOUS
10
-71.15
20
-89.91
30
0
11
-71.97
21
-90.75
31
0
0
LINE
8
0
6
CONTINUOUS
10
-71.97
20
-90.75
30
0
11
-70.36
21
-93.0
31
0
0
LINE
8
0
6
CONTINUOUS
10
-70.36
20
-93.0
30
0
11
-75.73
21
-93.0
31
0
0
LINE
8
0
6
CONTINUOUS
10
-75.73
20
-93.0
30
0
11
-74.29
21
-90.5
31
0
0
LINE
8
0
6
CONTINUOUS
10
-74.29
20
-90.5
30
0
11
-78.71
21
-90.5
31
0
0
LINE
8
0
6
CONTINUOUS
10
-78.71
20
-90.5
30
0
11
-77.27
21
-93.0
31
0
0
LINE
8
0
6
CONTINUOUS
10
-77.27
20
-93.0
30
0
11
-82.64
21
-93.0
31
0
0
LINE
8
0
6
CONTINUOUS
10
-82.64
20
-93.0
30
0
11
-81.03
21
-90.75
31
0
0
LINE
8
0
6
CONTINUOUS
10
-81.03
20
-90.75
30
0
11
-81.92
21
-89.87
31
0
0
LINE
8
0
6
CONTINUOUS
10
-81.92
20
-89.87
30
0
11
-83.92
21
-88.71
31
0
0
LINE
8
0
6
CONTINUOUS
10
-83.92
20
-88.71
30
0
11
-83.92
21
-93.6
31
0
0
LINE
8
0
6
CONTINUOUS
10
-83.92
20
-93.6
30
0
11
-85.5
21
-93.6
31
0
0
LINE
8
0
6
CONTINUOUS
10
-85.5
20
-93.6
30
0
11
-85.5
21
-92.53
31
0
0
LINE
8
0
6
CONTINUOUS
10
-85.5
20
-92.53
30
0
11
-86.5
21
-92.8
31
0
0
LINE
8
0
6
CONTINUOUS
10
-86.5
20
-92.8
30
0
11
-86.5
21
-97.08
31
0
0
LINE
8
0
6
CONTINUOUS
10
-86.5
20
-97.08
30
0
11
-85.0
21
-97.49
31
0
0
LINE
8
0
6
CONTINUOUS
10
-85.0
20
-97.49
30
0
11
-85.0
21
-95.4
31
0
0
LINE
8
0
6
CONTINUOUS
10
-85.0
20
-95.4
30
0
11
-82.0
21
-95.4
31
0
0
LINE
8
0
6
CONTINUOUS
10
-82.0
20
-95.4
30
0
11
-82.0
21
-113.4
31
0
0
LINE
8
0
6
CONTINUOUS
10
-82.0
20
-113.4
30
0
11
-85.0
21
-113.4
31
0
0
LINE
8
0
6
CONTINUOUS
10
-85.0
20
-113.4
30
0
11
-85.0
21
-111.3
31
0
0
LINE
8
0
6
CONTINUOUS
10
-85.0
20
-111.3
30
0
11
-86.5
21
-111.71
31
0
0
LINE
8
0
6
CONTINUOUS
10
-86.5
20
-111.71
30
0
11
-86.5
21
-114.7
31
0
0
ARC
8
0
6
CONTINUOUS
10
-86.0
20
-114.7
30
0
40
0.5
50
180.0
51
270.0
0
LINE
8
0
6
CONTINUOUS
10
-86.0
20
-115.2
30
0
11
-67.0
21
-115.2
31
0
0
LINE
8
0
6
CONTINUOUS
10
-80.2
20
-113.5
30
0
11
-80.2
21
-94.7
31
0
0
LINE
8
0
6
CONTINUOUS
10
-80.2
20
-94.7
30
0
11
-72.8
21
-94.7
31
0
0
LINE
8
0
6
CONTINUOUS
10
-72.8
20
-94.7
30
0
11
-72.8
21
-113.5
31
0
0
LINE
8
0
6
CONTINUOUS
10
-72.8
20
-113.5
30
0
11
-80.2
21
-113.5
31
0
0
LINE
8
0
6
CONTINUOUS
10
-82.18
20
-59.0
30
0
11
-80.73
21
-61.52
31
0
0
LINE
8
0
6
CONTINUOUS
10
-80.73
20
-61.52
30
0
11
-80.73
21
-62.42
31
0
0
LINE
8
0
6
CONTINUOUS
10
-80.73
20
-62.42
30
0
11
-83.8
21
-64.2
31
0
0
LINE
8
0
6
CONTINUOUS
10
-83.8
20
-64.2
30
0
11
-83.8
21
-66.0
31
0
0
LINE
8
0
6
CONTINUOUS
10
-83.8
20
-66.0
30
0
11
-85.5
21
-66.0
31
0
0
LINE
8
0
6
CONTINUOUS
10
-85.5
20
-66.0
30
0
11
-85.5
21
-64.83
31
0
0
LINE
8
0
6
CONTINUOUS
10
-85.5
20
-64.83
30
0
11
-86.5
21
-65.1
31
0
0
LINE
8
0
6
CONTINUOUS
10
-86.5
20
-65.1
30
0
11
-86.5
21
-68.19
31
0
0
LINE
8
0
6
CONTINUOUS
10
-86.5
20
-68.19
30
0
11
-85.5
21
-68.46
31
0
0
LINE
8
0
6
CONTINUOUS
10
-85.5
20
-68.46
30
0
11
-85.5
21
-67.3
31
0
0
LINE
8
0
6
CONTINUOUS
10
-85.5
20
-67.3
30
0
11
-83.8
21
-67.3
31
0
0
LINE
8
0
6
CONTINUOUS
10
-83.8
20
-67.3
30
0
11
-83.8
21
-84.7
31
0
0
LINE
8
0
6
CONTINUOUS
10
-83.8
20
-84.7
30
0
11
-85.5
21
-84.7
31
0
0
LINE
8
0
6
CONTINUOUS
10
-85.5
20
-84.7
30
0
11
-85.5
21
-83.53
31
0
0
LINE
8
0
6
CONTINUOUS
10
-85.5
20
-83.53
30
0
11
-86.5
21
-83.8
31
0
0
LINE
8
0
6
CONTINUOUS
10
-86.5
20
-83.8
30
0
11
-86.5
21
-86.89
31
0
0
LINE
8
0
6
CONTINUOUS
10
-86.5
20
-86.89
30
0
11
-85.5
21
-87.16
31
0
0
LINE
8
0
6
CONTINUOUS
10
-85.5
20
-87.16
30
0
11
-85.5
21
-86.0
31
0
0
LINE
8
0
6
CONTINUOUS
10
-85.5
20
-86.0
30
0
11
-83.8
21
-86.0
31
0
0
LINE
8
0
6
CONTINUOUS
10
-83.8
20
-86.0
30
0
11
-83.8
21
-87.8
31
0
0
LINE
8
0
6
CONTINUOUS
10
-83.8
20
-87.8
30
0
11
-80.73
21
-89.57
31
0
0
LINE
8
0
6
CONTINUOUS
10
-80.73
20
-89.57
30
0
11
-80.73
21
-90.47
31
0
0
LINE
8
0
6
CONTINUOUS
10
-80.73
20
-90.47
30
0
11
-82.18
21
-93.0
31
0
0
LINE
8
0
6
CONTINUOUS
10
-82.18
20
-93.0
30
0
11
-77.27
21
-93.0
31
0
0
LINE
8
0
6
CONTINUOUS
10
-77.27
20
-93.0
30
0
11
-78.73
21
-90.47
31
0
0
LINE
8
0
6
CONTINUOUS
10
-78.73
20
-90.47
30
0
11
-78.73
21
-88.42
31
0
0
LINE
8
0
6
CONTINUOUS
10
-78.73
20
-88.42
30
0
11
-81.8
21
-86.64
31
0
0
LINE
8
0
6
CONTINUOUS
10
-81.8
20
-86.64
30
0
11
-81.8
21
-71.5
31
0
0
LINE
8
0
6
CONTINUOUS
10
-81.8
20
-71.5
30
0
11
-72.3
21
-71.3
31
0
0
LINE
8
0
6
CONTINUOUS
10
-72.3
20
-71.3
30
0
11
-72.3
21
-70.5
31
0
0
LINE
8
0
6
CONTINUOUS
10
-72.3
20
-70.5
30
0
11
-81.8
21
-70.3
31
0
0
LINE
8
0
6
CONTINUOUS
10
-81.8
20
-70.3
30
0
11
-81.8
21
-65.35
31
0
0
LINE
8
0
6
CONTINUOUS
10
-81.8
20
-65.35
30
0
11
-78.73
21
-63.57
31
0
0
LINE
8
0
6
CONTINUOUS
10
-78.73
20
-63.57
30
0
11
-78.73
21
-61.52
31
0
0
LINE
8
0
6
CONTINUOUS
10
-78.73
20
-61.52
30
0
11
-77.27
21
-59.0
31
0
0
LINE
8
0
6
CONTINUOUS
10
-77.27
20
-59.0
30
0
11
-82.18
21
-59.0
31
0
0
LINE
8
0
6
CONTINUOUS
10
-70.88
20
-93.0
30
0
11
-72.28
21
-90.46
31
0
0
LINE
8
0
6
CONTINUOUS
10
-72.28
20
-90.46
30
0
11
-72.28
21
-89.57
31
0
0
LINE
8
0
6
CONTINUOUS
10
-72.28
20
-89.57
30
0
11
-69.2
21
-87.8
31
0
0
LINE
8
0
6
CONTINUOUS
10
-69.2
20
-87.8
30
0
11
-69.2
21
-86.0
31
0
0
LINE
8
0
6
CONTINUOUS
10
-69.2
20
-86.0
30
0
11
-67.5
21
-86.0
31
0
0
LINE
8
0
6
CONTINUOUS
10
-67.5
20
-86.0
30
0
11
-67.5
21
-87.16
31
0
0
LINE
8
0
6
CONTINUOUS
10
-67.5
20
-87.16
30
0
11
-66.5
21
-86.89
31
0
0
LINE
8
0
6
CONTINUOUS
10
-66.5
20
-86.89
30
0
11
-66.5
21
-83.53
31
0
0
LINE
8
0
6
CONTINUOUS
10
-66.5
20
-83.53
30
0
11
-67.5
21
-83.53
31
0
0
LINE
8
0
6
CONTINUOUS
10
-67.5
20
-83.53
30
0
11
-67.5
21
-84.7
31
0
0
LINE
8
0
6
CONTINUOUS
10
-67.5
20
-84.7
30
0
11
-69.2
21
-84.7
31
0
0
LINE
8
0
6
CONTINUOUS
10
-69.2
20
-84.7
30
0
11
-69.2
21
-67.3
31
0
0
LINE
8
0
6
CONTINUOUS
10
-69.2
20
-67.3
30
0
11
-67.5
21
-67.3
31
0
0
LINE
8
0
6
CONTINUOUS
10
-67.5
20
-67.3
30
0
11
-67.5
21
-68.46
31
0
0
LINE
8
0
6
CONTINUOUS
10
-67.5
20
-68.46
30
0
11
-66.5
21
-68.19
31
0
0
LINE
8
0
6
CONTINUOUS
10
-66.5
20
-68.19
30
0
11
-66.5
21
-64.8
31
0
0
LINE
8
0
6
CONTINUOUS
10
-66.5
20
-64.8
30
0
11
-67.5
21
-64.8
31
0
0
LINE
8
0
6
CONTINUOUS
10
-67.5
20
-64.8
30
0
11
-67.5
21
-66.0
31
0
0
LINE
8
0
6
CONTINUOUS
10
-67.5
20
-66.0
30
0
11
-69.2
21
-66.0
31
0
0
LINE
8
0
6
CONTINUOUS
10
-69.2
20
-66.0
30
0
11
-69.2
21
-64.2
31
0
0
LINE
8
0
6
CONTINUOUS
10
-69.2
20
-64.2
30
0
11
-72.28
21
-62.42
31
0
0
LINE
8
0
6
CONTINUOUS
10
-72.28
20
-62.42
30
0
11
-72.28
21
-61.53
31
0
0
LINE
8
0
6
CONTINUOUS
10
-72.28
20
-61.53
30
0
11
-70.88
21
-59.0
31
0
0
LINE
8
0
6
CONTINUOUS
10
-70.88
20
-59.0
30
0
11
-75.73
21
-59.0
31
0
0
LINE
8
0
6
CONTINUOUS
10
-75.73
20
-59.0
30
0
11
-74.28
21
-61.52
31
0
0
LINE
8
0
6
CONTINUOUS
10
-74.28
20
-61.52
30
0
11
-74.28
21
-63.57
31
0
0
LINE
8
0
6
CONTINUOUS
10
-74.28
20
-63.57
30
0
11
-71.2
21
-65.35
31
0
0
LINE
8
0
6
CONTINUOUS
10
-71.2
20
-65.35
30
0
11
-71.2
21
-80.5
31
0
0
LINE
8
0
6
CONTINUOUS
10
-71.2
20
-80.5
30
0
11
-80.7
21
-80.7
31
0
0
LINE
8
0
6
CONTINUOUS
10
-80.7
20
-80.7
30
0
11
-80.7
21
-81.5
31
0
0
LINE
8
0
6
CONTINUOUS
10
-80.7
20
-81.5
30
0
11
-71.2
21
-81.7
31
0
0
LINE
8
0
6
CONTINUOUS
10
-71.2
20
-81.7
30
0
11
-71.2
21
-86.64
31
0
0
LINE
8
0
6
CONTINUOUS
10
-71.2
20
-86.64
30
0
11
-74.28
21
-88.42
31
0
0
LINE
8
0
6
CONTINUOUS
10
-74.28
20
-88.42
30
0
11
-74.28
21
-90.47
31
0
0
LINE
8
0
6
CONTINUOUS
10
-74.28
20
-90.47
30
0
11
-75.73
21
-93.0
31
0
0
LINE
8
0
6
CONTINUOUS
10
-75.73
20
-93.0
30
0
11
-70.88
21
-93.0
31
0
0
LINE
8
0
6
CONTINUOUS
10
-101.5
20
-44.4
30
0
11
-98.91
21
-44.4
31
0
0
LINE
8
0
6
CONTINUOUS
10
-98.91
20
-44.4
30
0
11
-98.64
21
-43.4
31
0
0
LINE
8
0
6
CONTINUOUS
10
-98.64
20
-43.4
30
0
11
-100.2
21
-43.4
31
0
0
LINE
8
0
6
CONTINUOUS
10
-100.2
20
-43.4
30
0
11
-100.2
21
-41.7
31
0
0
LINE
8
0
6
CONTINUOUS
10
-100.2
20
-41.7
30
0
11
-94.2
21
-41.7
31
0
0
LINE
8
0
6
CONTINUOUS
10
-94.2
20
-41.7
30
0
11
-94.2
21
-43.4
31
0
0
LINE
8
0
6
CONTINUOUS
10
-94.2
20
-43.4
30
0
11
-95.76
21
-43.4
31
0
0
LINE
8
0
6
CONTINUOUS
10
-95.76
20
-43.4
30
0
11
-95.49
21
-44.4
31
0
0
LINE
8
0
6
CONTINUOUS
10
-95.49
20
-44.4
30
0
11
-91.5
21
-44.4
31
0
0
LINE
8
0
6
CONTINUOUS
10
-91.5
20
-44.4
30
0
11
-91.5
21
-43.4
31
0
0
LINE
8
0
6
CONTINUOUS
10
-91.5
20
-43.4
30
0
11
-92.7
21
-43.4
31
0
0
LINE
8
0
6
CONTINUOUS
10
-92.7
20
-43.4
30
0
11
-92.7
21
-41.9
31
0
0
LINE
8
0
6
CONTINUOUS
10
-92.7
20
-41.9
30
0
11
-82.0
21
-41.9
31
0
0
LINE
8
0
6
CONTINUOUS
10
-82.0
20
-41.9
30
0
11
-82.0
21
-43.4
31
0
0
LINE
8
0
6
CONTINUOUS
10
-82.0
20
-43.4
30
0
11
-83.2
21
-43.4
31
0
0
LINE
8
0
6
CONTINUOUS
10
-83.2
20
-43.4
30
0
11
-83.2
21
-44.4
31
0
0
LINE
8
0
6
CONTINUOUS
10
-83.2
20
-44.4
30
0
11
-82.0
21
-44.4
31
0
0
LINE
8
0
6
CONTINUOUS
10
-82.0
20
-44.4
30
0
11
-80.2
21
-44.4
31
0
0
LINE
8
0
6
CONTINUOUS
10
-80.2
20
-44.4
30
0
11
-80.2
21
-42.1
31
0
0
LINE
8
0
6
CONTINUOUS
10
-80.2
20
-42.1
30
0
11
-72.8
21
-42.1
31
0
0
LINE
8
0
6
CONTINUOUS
10
-72.8
20
-42.1
30
0
11
-72.8
21
-44.4
31
0
0
LINE
8
0
6
CONTINUOUS
10
-72.8
20
-44.4
30
0
11
-69.8
21
-44.4
31
0
0
LINE
8
0
6
CONTINUOUS
10
-69.8
20
-44.4
30
0
11
-69.8
21
-43.4
31
0
0
LINE
8
0
6
CONTINUOUS
10
-69.8
20
-43.4
30
0
11
-71.0
21
-43.4
31
0
0
LINE
8
0
6
CONTINUOUS
10
-71.0
20
-43.4
30
0
11
-71.0
21
-41.9
31
0
0
LINE
8
0
6
CONTINUOUS
10
-71.0
20
-41.9
30
0
11
-60.3
21
-41.9
31
0
0
LINE
8
0
6
CONTINUOUS
10
-60.3
20
-41.9
30
0
11
-60.3
21
-43.4
31
0
0
LINE
8
0
6
CONTINUOUS
10
-60.3
20
-43.4
30
0
11
-61.5
21
-43.4
31
0
0
LINE
8
0
6
CONTINUOUS
10
-61.5
20
-43.4
30
0
11
-61.5
21
-44.4
31
0
0
LINE
8
0
6
CONTINUOUS
10
-61.5
20
-44.4
30
0
11
-57.51
21
-44.4
31
0
0
LINE
8
0
6
CONTINUOUS
10
-57.51
20
-44.4
30
0
11
-57.24
21
-43.4
31
0
0
LINE
8
0
6
CONTINUOUS
10
-57.24
20
-43.4
30
0
11
-58.8
21
-43.4
31
0
0
LINE
8
0
6
CONTINUOUS
10
-58.8
20
-43.4
30
0
11
-58.8
21
-41.7
31
0
0
LINE
8
0
6
CONTINUOUS
10
-58.8
20
-41.7
30
0
11
-52.8
21
-41.7
31
0
0
LINE
8
0
6
CONTINUOUS
10
-52.8
20
-41.7
30
0
11
-52.8
21
-43.4
31
0
0
LINE
8
0
6
CONTINUOUS
10
-52.8
20
-43.4
30
0
11
-54.36
21
-43.4
31
0
0
LINE
8
0
6
CONTINUOUS
10
-54.36
20
-43.4
30
0
11
-54.09
21
-44.4
31
0
0
LINE
8
0
6
CONTINUOUS
10
-54.09
20
-44.4
30
0
11
-51.5
21
-44.4
31
0
0
LINE
8
0
6
CONTINUOUS
10
-51.5
20
-44.4
30
0
11
-51.5
21
-40.9
31
0
0
ARC
8
0
6
CONTINUOUS
10
-52.0
20
-40.9
30
0
40
0.5
50
0.0
51
90.0
0
LINE
8
0
6
CONTINUOUS
10
-52.0
20
-40.4
30
0
11
-101.0
21
-40.4
31
0
0
ARC
8
0
6
CONTINUOUS
10
-101.0
20
-40.9
30
0
40
0.5
50
90.0
51
180.0
0
LINE
8
0
6
CONTINUOUS
10
-101.5
20
-40.9
30
0
11
-101.5
21
-44.4
31
0
0
LINE
8
0
6
CONTINUOUS
10
-82.0
20
-56.6
30
0
11
-85.0
21
-56.6
31
0
0
LINE
8
0
6
CONTINUOUS
10
-85.0
20
-56.6
30
0
11
-85.0
21
-54.5
31
0
0
LINE
8
0
6
CONTINUOUS
10
-85.0
20
-54.5
30
0
11
-86.5
21
-54.91
31
0
0
LINE
8
0
6
CONTINUOUS
10
-86.5
20
-54.91
30
0
11
-86.5
21
-59.19
31
0
0
LINE
8
0
6
CONTINUOUS
10
-86.5
20
-59.19
30
0
11
-85.5
21
-59.46
31
0
0
LINE
8
0
6
CONTINUOUS
10
-85.5
20
-59.46
30
0
11
-85.5
21
-58.4
31
0
0
LINE
8
0
6
CONTINUOUS
10
-85.5
20
-58.4
30
0
11
-83.92
21
-58.4
31
0
0
LINE
8
0
6
CONTINUOUS
10
-83.92
20
-58.4
30
0
11
-83.92
21
-63.28
31
0
0
LINE
8
0
6
CONTINUOUS
10
-83.92
20
-63.28
30
0
11
-81.85
21
-62.08
31
0
0
LINE
8
0
6
CONTINUOUS
10
-81.85
20
-62.08
30
0
11
-81.03
21
-61.24
31
0
0
LINE
8
0
6
CONTINUOUS
10
-81.03
20
-61.24
30
0
11
-82.64
21
-59.0
31
0
0
LINE
8
0
6
CONTINUOUS
10
-82.64
20
-59.0
30
0
11
-77.27
21
-59.0
31
0
0
LINE
8
0
6
CONTINUOUS
10
-77.27
20
-59.0
30
0
11
-78.71
21
-61.5
31
0
0
LINE
8
0
6
CONTINUOUS
10
-78.71
20
-61.5
30
0
11
-74.29
21
-61.5
31
0
0
LINE
8
0
6
CONTINUOUS
10
-74.29
20
-61.5
30
0
11
-75.73
21
-59.0
31
0
0
LINE
8
0
6
CONTINUOUS
10
-75.73
20
-59.0
30
0
11
-70.36
21
-59.0
31
0
0
LINE
8
0
6
CONTINUOUS
10
-70.36
20
-59.0
30
0
11
-71.97
21
-61.24
31
0
0
LINE
8
0
6
CONTINUOUS
10
-71.97
20
-61.24
30
0
11
-71.15
21
-62.08
31
0
0
LINE
8
0
6
CONTINUOUS
10
-71.15
20
-62.08
30
0
11
-69.08
21
-63.28
31
0
0
LINE
8
0
6
CONTINUOUS
10
-69.08
20
-63.28
30
0
11
-69.08
21
-58.4
31
0
0
LINE
8
0
6
CONTINUOUS
10
-69.08
20
-58.4
30
0
11
-66.5
21
-58.4
31
0
0
LINE
8
0
6
CONTINUOUS
10
-66.5
20
-58.4
30
0
11
-66.5
21
-54.91
31
0
0
LINE
8
0
6
CONTINUOUS
10
-66.5
20
-54.91
30
0
11
-68.0
21
-54.5
31
0
0
LINE
8
0
6
CONTINUOUS
10
-68.0
20
-54.5
30
0
11
-68.0
21
-56.6
31
0
0
LINE
8
0
6
CONTINUOUS
10
-68.0
20
-56.6
30
0
11
-71.0
21
-56.6
31
0
0
LINE
8
0
6
CONTINUOUS
10
-71.0
20
-56.6
30
0
11
-71.0
21
-44.4
31
0
0
LINE
8
0
6
CONTINUOUS
10
-71.0
20
-44.4
30
0
11
-72.8
21
-44.4
31
0
0
LINE
8
0
6
CONTINUOUS
10
-72.8
20
-44.4
30
0
11
-72.8
21
-57.3
31
0
0
LINE
8
0
6
CONTINUOUS
10
-72.8
20
-57.3
30
0
11
-80.2
21
-57.3
31
0
0
LINE
8
0
6
CONTINUOUS
10
-80.2
20
-57.3
30
0
11
-80.2
21
-44.4
31
0
0
LINE
8
0
6
CONTINUOUS
10
-80.2
20
-44.4
30
0
11
-82.0
21
-44.4
31
0
0
LINE
8
0
6
CONTINUOUS
10
-82.0
20
-44.4
30
0
11
-82.0
21
-56.6
31
0
0
LINE
8
0
6
CONTINUOUS
10
-88.5
20
-94.86
30
0
11
-86.5
21
-95.4
31
0
0
LINE
8
0
6
CONTINUOUS
10
-86.5
20
-95.4
30
0
11
-86.5
21
-92.44
31
0
0
LINE
8
0
6
CONTINUOUS
10
-86.5
20
-92.44
30
0
11
-85.06
21
-92.44
31
0
0
LINE
8
0
6
CONTINUOUS
10
-85.06
20
-92.44
30
0
11
-84.8
21
-93.42
31
0
0
LINE
8
0
6
CONTINUOUS
10
-84.8
20
-93.42
30
0
11
-83.92
21
-91.9
31
0
0
LINE
8
0
6
CONTINUOUS
10
-83.92
20
-91.9
30
0
11
-83.92
21
-91.1
31
0
0
LINE
8
0
6
CONTINUOUS
10
-83.92
20
-91.24
30
0
11
-86.5
21
-91.24
31
0
0
LINE
8
0
6
CONTINUOUS
10
-86.5
20
-91.24
30
0
11
-86.5
21
-51.38
31
0
0
LINE
8
0
6
CONTINUOUS
10
-86.5
20
-51.38
30
0
11
-83.8
21
-49.82
31
0
0
LINE
8
0
6
CONTINUOUS
10
-83.8
20
-49.82
30
0
11
-83.8
21
-48.67
31
0
0
LINE
8
0
6
CONTINUOUS
10
-83.8
20
-48.67
30
0
11
-86.5
21
-47.11
31
0
0
LINE
8
0
6
CONTINUOUS
10
-86.5
20
-47.11
30
0
11
-86.5
21
-44.24
31
0
0
LINE
8
0
6
CONTINUOUS
10
-86.5
20
-44.24
30
0
11
-83.7
21
-44.24
31
0
0
LINE
8
0
6
CONTINUOUS
10
-83.7
20
-44.24
30
0
11
-83.7
21
-43.44
31
0
0
ARC
8
0
6
CONTINUOUS
10
-85.10000000000001
20
-43.44
30
0
40
1.4
50
0.0
51
89.99999999999943
0
LINE
8
0
6
CONTINUOUS
10
-85.1
20
-42.04
30
0
11
-89.9
21
-42.04
31
0
0
ARC
8
0
6
CONTINUOUS
10
-89.89999999999999
20
-43.44
30
0
40
1.4
50
90.00000000000058
51
180.0
0
LINE
8
0
6
CONTINUOUS
10
-91.3
20
-43.44
30
0
11
-91.3
21
-44.24
31
0
0
LINE
8
0
6
CONTINUOUS
10
-91.3
20
-44.24
30
0
11
-88.5
21
-44.24
31
0
0
LINE
8
0
6
CONTINUOUS
10
-88.5
20
-44.24
30
0
11
-88.5
21
-48.26
31
0
0
LINE
8
0
6
CONTINUOUS
10
-88.5
20
-48.26
30
0
11
-86.8
21
-49.24
31
0
0
LINE
8
0
6
CONTINUOUS
10
-86.8
20
-49.24
30
0
11
-88.5
21
-50.23
31
0
0
LINE
8
0
6
CONTINUOUS
10
-88.5
20
-50.23
30
0
11
-88.5
21
-94.86
31
0
0
ARC
8
0
6
CONTINUOUS
10
-94.48
20
-45.0
30
0
40
0.5
50
0.0
51
90.0
0
LINE
8
0
6
CONTINUOUS
10
-94.48
20
-44.5
30
0
11
-95.78
21
-44.5
31
0
0
LINE
8
0
6
CONTINUOUS
10
-95.78
20
-44.5
30
0
11
-95.78
21
-43.2
31
0
0
LINE
8
0
6
CONTINUOUS
10
-95.78
20
-43.2
30
0
11
-94.98
21
-43.2
31
0
0
LINE
8
0
6
CONTINUOUS
10
-94.98
20
-43.2
30
0
11
-95.59
21
-42.1
31
0
0
LINE
8
0
6
CONTINUOUS
10
-95.59
20
-42.1
30
0
11
-99.17
21
-42.1
31
0
0
LINE
8
0
6
CONTINUOUS
10
-99.17
20
-42.1
30
0
11
-99.78
21
-43.2
31
0
0
LINE
8
0
6
CONTINUOUS
10
-99.78
20
-43.2
30
0
11
-98.98
21
-43.2
31
0
0
LINE
8
0
6
CONTINUOUS
10
-98.98
20
-43.2
30
0
11
-98.98
21
-44.5
31
0
0
LINE
8
0
6
CONTINUOUS
10
-98.98
20
-44.5
30
0
11
-100.72
21
-44.5
31
0
0
ARC
8
0
6
CONTINUOUS
10
-100.73378157384602
20
-45.99993668807131
30
0
40
1.5
50
89.47357524925908
51
302.8554230552547
0
LINE
8
0
6
CONTINUOUS
10
-99.92
20
-47.26
30
0
11
-98.01
21
-46.05
31
0
0
LINE
8
0
6
CONTINUOUS
10
-98.01
20
-46.05
30
0
11
-98.16
21
-46.93
31
0
0
ARC
8
0
6
CONTINUOUS
10
-97.69746232890789
20
-47.01342003848407
30
0
40
0.47
50
169.77643898501228
51
312.4892420759591
0
LINE
8
0
6
CONTINUOUS
10
-97.38
20
-47.36
30
0
11
-95.87
21
-45.84
31
0
0
LINE
8
0
6
CONTINUOUS
10
-95.87
20
-45.84
30
0
11
-96.05
21
-46.93
31
0
0
ARC
8
0
6
CONTINUOUS
10
-95.59632629666628
20
-47.00602743520255
30
0
40
0.46
50
170.48667174542985
51
313.445624471641
0
LINE
8
0
6
CONTINUOUS
10
-95.28
20
-47.34
30
0
11
-93.98
21
-46.1
31
0
0
LINE
8
0
6
CONTINUOUS
10
-93.98
20
-46.1
30
0
11
-93.98
21
-45.0
31
0
0
ARC
8
0
6
CONTINUOUS
10
-100.7200000682857
20
-46.0
30
0
40
0.8
50
89.99999510939693
51
270.00000489060307
0
ARC
8
0
6
CONTINUOUS
10
-100.7200000682857
20
-46.0
30
0
40
0.8
50
270.00000489060307
51
89.99999510939693
0
LINE
8
0
6
CONTINUOUS
10
-98.32
20
-42.7
30
0
11
-96.44
21
-42.7
31
0
0
LINE
8
0
6
CONTINUOUS
10
-96.44
20
-42.7
30
0
11
-96.64
21
-43.87
31
0
0
ARC
8
0
6
CONTINUOUS
10
-97.38
20
-43.747934443842674
30
0
40
0.75
50
189.3667888843505
51
350.6332111156493
0
LINE
8
0
6
CONTINUOUS
10
-98.12
20
-43.87
30
0
11
-98.32
21
-42.7
31
0
0
ARC
8
0
6
CONTINUOUS
10
-102.01637873152032
20
-78.57471963862007
30
0
40
2.28
50
221.6513888989803
51
280.01176083397996
0
LINE
8
0
6
CONTINUOUS
10
-101.62
20
-80.82
30
0
11
-101.9
21
-78.89
31
0
0
LINE
8
0
6
CONTINUOUS
10
-101.9
20
-78.89
30
0
11
-99.26
21
-78.89
31
0
0
LINE
8
0
6
CONTINUOUS
10
-99.26
20
-78.89
30
0
11
-98.71
21
-80.4
31
0
0
ARC
8
0
6
CONTINUOUS
10
-108.69313141295157
20
-59.801718829190165
30
0
40
22.89
50
295.857541215628
51
325.672210413474
0
ARC
8
0
6
CONTINUOUS
10
-90.17415903384429
20
-72.38996588195033
30
0
40
0.5
50
320.20309211836536
51
90.66934064247006
0
LINE
8
0
6
CONTINUOUS
10
-90.18
20
-71.89
30
0
11
-92.55
21
-71.89
31
0
0
ARC
8
0
6
CONTINUOUS
10
-92.5327642162257
20
-72.28962848716988
30
0
40
0.4
50
92.46960879064618
51
257.40315750329273
0
LINE
8
0
6
CONTINUOUS
10
-92.62
20
-72.68
30
0
11
-91.03
21
-72.96
31
0
0
LINE
8
0
6
CONTINUOUS
10
-91.03
20
-72.96
30
0
11
-97.42
21
-75.26
31
0
0
ARC
8
0
6
CONTINUOUS
10
-104.99534492769386
20
-80.33824273016396
30
0
40
9.12
50
33.83649886395931
51
67.87165657804138
0
LINE
8
0
6
CONTINUOUS
10
-101.56
20
-71.89
30
0
11
-104.93
21
-71.89
31
0
0
ARC
8
0
6
CONTINUOUS
10
-104.79761439597101
20
-73.22344443148032
30
0
40
1.34
50
95.66979851411728
51
189.30027938662977
0
ARC
8
0
6
CONTINUOUS
10
-90.60874809023758
20
-71.60003690474738
30
0
40
15.62
50
186.7648819775841
51
212.9243731546793
0
ARC
8
0
6
CONTINUOUS
10
-99.44582273772572
20
-75.8432773508106
30
0
40
0.63
50
264.15321299842253
51
48.69737459775161
0
LINE
8
0
6
CONTINUOUS
10
-99.51
20
-76.47
30
0
11
-102.98
21
-76.5
31
0
0
ARC
8
0
6
CONTINUOUS
10
-102.80709232044481
20
-75.40354984867034
30
0
40
1.11
50
201.47968475665152
51
261.03838785359306
0
ARC
8
0
6
CONTINUOUS
10
-107.09806264069356
20
-77.87993425724513
30
0
40
3.86
50
32.428885902126524
51
55.46875259878563
0
ARC
8
0
6
CONTINUOUS
10
-104.17143442121542
20
-73.98207181011287
30
0
40
1.03
50
117.68607027780084
51
224.1882174935141
0
ARC
8
0
6
CONTINUOUS
10
-103.68503697080669
20
-78.72830772866676
30
0
40
5.74
50
35.80800831628593
51
99.67806636481467
0
LINE
8
0
6
CONTINUOUS
10
-102.18
20
-77.29
30
0
11
-98.81
21
-77.29
31
0
0
ARC
8
0
6
CONTINUOUS
10
-98.81000006300037
20
-77.64
30
0
40
0.35
50
270.00001031330106
51
89.99998968669894
0
LINE
8
0
6
CONTINUOUS
10
-98.81
20
-77.99
30
0
11
-102.18
21
-77.99
31
0
0
ARC
8
0
6
CONTINUOUS
10
-102.17999993699964
20
-77.64
30
0
40
0.35
50
90.00001031330108
51
269.99998968669894
0
ENDSEC
0
EOF