0
SECTION
2
HEADER
0
ENDSEC
0
SECTION
2
TABLES
0
TABLE
2
LTYPE
70
2
0
LTYPE
2
CONTINUOUS
70
0
3
Solid line
72
65
73
0
40
0.0
0
ENDTAB
0
TABLE
2
LAYER
70
1
0
LAYER
2
0
70
0
62
7
6
CONTINUOUS
0
ENDTAB
0
ENDSEC
0
SECTION
2
ENTITIES
0
LINE
8
0
6
CONTINUOUS
10
6.69
20
-122.33
30
0
11
-48.0
21
-122.33
31
0
0
LINE
8
0
6
CONTINUOUS
10
-47.48
20
-122.33
30
0
11
-47.48
21
-39.53
31
0
0
LINE
8
0
6
CONTINUOUS
10
2.0
20
-39.53
30
0
11
2.0
21
-122.33
31
0
0
LINE
8
0
6
CONTINUOUS
10
6.69
20
-39.53
30
0
11
-48.0
21
-39.53
31
0
0
LINE
8
0
6
CONTINUOUS
10
-41.99
20
-51.53
30
0
11
-38.0
21
-51.53
31
0
0
LINE
8
0
6
CONTINUOUS
10
-38.0
20
-51.53
30
0
11
-38.0
21
-50.53
31
0
0
LINE
8
0
6
CONTINUOUS
10
-38.0
20
-50.53
30
0
11
-39.2
21
-50.53
31
0
0
LINE
8
0
6
CONTINUOUS
10
-39.2
20
-50.53
30
0
11
-39.2
21
-49.03
31
0
0
LINE
8
0
6
CONTINUOUS
10
-39.2
20
-49.03
30
0
11
-28.5
21
-49.03
31
0
0
LINE
8
0
6
CONTINUOUS
10
-28.5
20
-49.03
30
0
11
-28.5
21
-50.53
31
0
0
LINE
8
0
6
CONTINUOUS
10
-28.5
20
-50.53
30
0
11
-28.5
21
-63.73
31
0
0
LINE
8
0
6
CONTINUOUS
10
-28.5
20
-63.73
30
0
11
-31.5
21
-63.73
31
0
0
LINE
8
0
6
CONTINUOUS
10
-31.5
20
-63.73
30
0
11
-31.5
21
-61.64
31
0
0
LINE
8
0
6
CONTINUOUS
10
-31.5
20
-61.64
30
0
11
-33.0
21
-62.04
31
0
0
LINE
8
0
6
CONTINUOUS
10
-33.0
20
-62.04
30
0
11
-33.0
21
-66.32
31
0
0
LINE
8
0
6
CONTINUOUS
10
-33.0
20
-66.32
30
0
11
-32.0
21
-66.59
31
0
0
LINE
8
0
6
CONTINUOUS
10
-32.0
20
-66.59
30
0
11
-32.0
21
-65.53
31
0
0
LINE
8
0
6
CONTINUOUS
10
-32.0
20
-65.53
30
0
11
-30.42
21
-65.53
31
0
0
LINE
8
0
6
CONTINUOUS
10
-30.42
20
-65.53
30
0
11
-30.42
21
-70.41
31
0
0
LINE
8
0
6
CONTINUOUS
10
-30.42
20
-70.41
30
0
11
-28.35
21
-69.22
31
0
0
LINE
8
0
6
CONTINUOUS
10
-28.35
20
-69.22
30
0
11
-27.53
21
-68.37
31
0
0
LINE
8
0
6
CONTINUOUS
10
-27.53
20
-68.37
30
0
11
-29.14
21
-66.13
31
0
0
LINE
8
0
6
CONTINUOUS
10
-29.14
20
-66.13
30
0
11
-23.77
21
-66.13
31
0
0
LINE
8
0
6
CONTINUOUS
10
-23.77
20
-66.13
30
0
11
-25.23
21
-68.65
31
0
0
LINE
8
0
6
CONTINUOUS
10
-25.23
20
-68.65
30
0
11
-20.77
21
-68.65
31
0
0
LINE
8
0
6
CONTINUOUS
10
-20.77
20
-68.65
30
0
11
-22.23
21
-66.13
31
0
0
LINE
8
0
6
CONTINUOUS
10
-22.23
20
-66.13
30
0
11
-16.86
21
-66.13
31
0
0
LINE
8
0
6
CONTINUOUS
10
-16.86
20
-66.13
30
0
11
-18.47
21
-68.37
31
0
0
LINE
8
0
6
CONTINUOUS
10
-18.47
20
-68.37
30
0
11
-17.65
21
-69.22
31
0
0
LINE
8
0
6
CONTINUOUS
10
-17.65
20
-69.22
30
0
11
-15.58
21
-70.41
31
0
0
LINE
8
0
6
CONTINUOUS
10
-15.58
20
-70.41
30
0
11
-15.58
21
-65.53
31
0
0
LINE
8
0
6
CONTINUOUS
10
-15.58
20
-65.53
30
0
11
-14.0
21
-65.53
31
0
0
LINE
8
0
6
CONTINUOUS
10
-14.0
20
-65.53
30
0
11
-14.0
21
-66.59
31
0
0
LINE
8
0
6
CONTINUOUS
10
-14.0
20
-66.59
30
0
11
-13.0
21
-66.32
31
0
0
LINE
8
0
6
CONTINUOUS
10
-13.0
20
-66.32
30
0
11
-13.0
21
-62.04
31
0
0
LINE
8
0
6
CONTINUOUS
10
-13.0
20
-62.04
30
0
11
-14.5
21
-61.64
31
0
0
LINE
8
0
6
CONTINUOUS
10
-14.5
20
-61.64
30
0
11
-14.5
21
-63.73
31
0
0
LINE
8
0
6
CONTINUOUS
10
-14.5
20
-63.73
30
0
11
-17.5
21
-63.73
31
0
0
LINE
8
0
6
CONTINUOUS
10
-17.5
20
-63.73
30
0
11
-17.5
21
-49.03
31
0
0
LINE
8
0
6
CONTINUOUS
10
-17.5
20
-49.03
30
0
11
-6.8
21
-49.03
31
0
0
LINE
8
0
6
CONTINUOUS
10
-6.8
20
-49.03
30
0
11
-6.8
21
-50.53
31
0
0
LINE
8
0
6
CONTINUOUS
10
-6.8
20
-50.53
30
0
11
-8.0
21
-50.53
31
0
0
LINE
8
0
6
CONTINUOUS
10
-8.0
20
-50.53
30
0
11
-8.0
21
-51.53
31
0
0
LINE
8
0
6
CONTINUOUS
10
-8.0
20
-51.53
30
0
11
-4.01
21
-51.53
31
0
0
LINE
8
0
6
CONTINUOUS
10
-4.01
20
-51.53
30
0
11
-3.74
21
-50.53
31
0
0
LINE
8
0
6
CONTINUOUS
10
-3.74
20
-50.53
30
0
11
-5.3
21
-50.53
31
0
0
LINE
8
0
6
CONTINUOUS
10
-5.3
20
-50.53
30
0
11
-5.3
21
-48.83
31
0
0
LINE
8
0
6
CONTINUOUS
10
-5.3
20
-48.83
30
0
11
0.7
21
-48.83
31
0
0
LINE
8
0
6
CONTINUOUS
10
0.7
20
-48.83
30
0
11
0.7
21
-50.23
31
0
0
LINE
8
0
6
CONTINUOUS
10
0.7
20
-50.23
30
0
11
-0.4
21
-50.23
31
0
0
LINE
8
0
6
CONTINUOUS
10
-0.4
20
-50.23
30
0
11
-0.4
21
-51.53
31
0
0
LINE
8
0
6
CONTINUOUS
10
-0.4
20
-51.53
30
0
11
2.0
21
-51.53
31
0
0
LINE
8
0
6
CONTINUOUS
10
2.0
20
-51.53
30
0
11
2.0
21
-40.03
31
0
0
ARC
8
0
6
CONTINUOUS
10
1.5
20
-40.03
30
0
40
0.5
50
0.0
51
90.0
0
LINE
8
0
6
CONTINUOUS
10
1.5
20
-39.53
30
0
11
-47.5
21
-39.53
31
0
0
ARC
8
0
6
CONTINUOUS
10
-47.5
20
-40.03
30
0
40
0.5
50
90.0
51
180.0
0
LINE
8
0
6
CONTINUOUS
10
-48.0
20
-40.03
30
0
11
-48.0
21
-51.53
31
0
0
LINE
8
0
6
CONTINUOUS
10
-48.0
20
-51.53
30
0
11
-45.41
21
-51.53
31
0
0
LINE
8
0
6
CONTINUOUS
10
-45.41
20
-51.53
30
0
11
-45.14
21
-50.53
31
0
0
LINE
8
0
6
CONTINUOUS
10
-45.14
20
-50.53
30
0
11
-46.7
21
-50.53
31
0
0
LINE
8
0
6
CONTINUOUS
10
-46.7
20
-50.53
30
0
11
-46.7
21
-48.83
31
0
0
LINE
8
0
6
CONTINUOUS
10
-46.7
20
-48.83
30
0
11
-40.7
21
-48.83
31
0
0
LINE
8
0
6
CONTINUOUS
10
-40.7
20
-48.83
30
0
11
-40.7
21
-50.53
31
0
0
LINE
8
0
6
CONTINUOUS
10
-40.7
20
-50.53
30
0
11
-42.26
21
-50.53
31
0
0
LINE
8
0
6
CONTINUOUS
10
-42.26
20
-50.53
30
0
11
-41.99
21
-51.53
31
0
0
LINE
8
0
6
CONTINUOUS
10
-19.3
20
-64.43
30
0
11
-26.7
21
-64.43
31
0
0
LINE
8
0
6
CONTINUOUS
10
-26.7
20
-64.43
30
0
11
-26.7
21
-49.23
31
0
0
LINE
8
0
6
CONTINUOUS
10
-26.7
20
-49.23
30
0
11
-19.3
21
-49.23
31
0
0
LINE
8
0
6
CONTINUOUS
10
-19.3
20
-49.23
30
0
11
-19.3
21
-64.43
31
0
0
LINE
8
0
6
CONTINUOUS
10
-46.4
20
-41.13
30
0
11
0.4
21
-41.13
31
0
0
LINE
8
0
6
CONTINUOUS
10
0.4
20
-41.13
30
0
11
0.4
21
-47.53
31
0
0
LINE
8
0
6
CONTINUOUS
10
0.4
20
-47.53
30
0
11
-46.4
21
-47.53
31
0
0
LINE
8
0
6
CONTINUOUS
10
-46.4
20
-47.53
30
0
11
-46.4
21
-41.13
31
0
0
LINE
8
0
6
CONTINUOUS
10
-33.0
20
-118.84
30
0
11
-33.0
21
-121.83
31
0
0
ARC
8
0
6
CONTINUOUS
10
-32.5
20
-121.83
30
0
40
0.5
50
180.0
51
270.0
0
LINE
8
0
6
CONTINUOUS
10
-32.5
20
-122.33
30
0
11
-13.5
21
-122.33
31
0
0
ARC
8
0
6
CONTINUOUS
10
-13.5
20
-121.83
30
0
40
0.5
50
270.0
51
0.0
0
LINE
8
0
6
CONTINUOUS
10
-13.0
20
-121.83
30
0
11
-13.0
21
-118.84
31
0
0
LINE
8
0
6
CONTINUOUS
10
-13.0
20
-118.84
30
0
11
-14.5
21
-118.44
31
0
0
LINE
8
0
6
CONTINUOUS
10
-14.5
20
-118.44
30
0
11
-14.5
21
-120.53
31
0
0
LINE
8
0
6
CONTINUOUS
10
-14.5
20
-120.53
30
0
11
-17.5
21
-120.53
31
0
0
LINE
8
0
6
CONTINUOUS
10
-17.5
20
-120.53
30
0
11
-17.5
21
-102.53
31
0
0
LINE
8
0
6
CONTINUOUS
10
-17.5
20
-102.53
30
0
11
-14.5
21
-102.53
31
0
0
LINE
8
0
6
CONTINUOUS
10
-14.5
20
-102.53
30
0
11
-14.5
21
-104.62
31
0
0
LINE
8
0
6
CONTINUOUS
10
-14.5
20
-104.62
30
0
11
-13.0
21
-104.22
31
0
0
LINE
8
0
6
CONTINUOUS
10
-13.0
20
-104.22
30
0
11
-13.0
21
-99.93
31
0
0
LINE
8
0
6
CONTINUOUS
10
-13.0
20
-99.93
30
0
11
-14.0
21
-99.67
31
0
0
LINE
8
0
6
CONTINUOUS
10
-14.0
20
-99.67
30
0
11
-14.0
21
-100.73
31
0
0
LINE
8
0
6
CONTINUOUS
10
-14.0
20
-100.73
30
0
11
-15.58
21
-100.73
31
0
0
LINE
8
0
6
CONTINUOUS
10
-15.58
20
-100.73
30
0
11
-15.58
21
-95.84
31
0
0
LINE
8
0
6
CONTINUOUS
10
-15.58
20
-95.84
30
0
11
-17.65
21
-97.04
31
0
0
LINE
8
0
6
CONTINUOUS
10
-17.65
20
-97.04
30
0
11
-18.48
21
-97.87
31
0
0
LINE
8
0
6
CONTINUOUS
10
-18.48
20
-97.87
30
0
11
-16.86
21
-100.13
31
0
0
LINE
8
0
6
CONTINUOUS
10
-16.86
20
-100.13
30
0
11
-22.23
21
-100.13
31
0
0
LINE
8
0
6
CONTINUOUS
10
-22.23
20
-100.13
30
0
11
-20.79
21
-97.63
31
0
0
LINE
8
0
6
CONTINUOUS
10
-20.79
20
-97.63
30
0
11
-25.21
21
-97.63
31
0
0
LINE
8
0
6
CONTINUOUS
10
-25.21
20
-97.63
30
0
11
-23.77
21
-100.13
31
0
0
LINE
8
0
6
CONTINUOUS
10
-23.77
20
-100.13
30
0
11
-29.14
21
-100.13
31
0
0
LINE
8
0
6
CONTINUOUS
10
-29.14
20
-100.13
30
0
11
-27.53
21
-97.88
31
0
0
LINE
8
0
6
CONTINUOUS
10
-27.53
20
-97.88
30
0
11
-28.38
21
-97.04
31
0
0
LINE
8
0
6
CONTINUOUS
10
-28.38
20
-97.04
30
0
11
-30.42
21
-95.84
31
0
0
LINE
8
0
6
CONTINUOUS
10
-30.42
20
-95.84
30
0
11
-30.42
21
-100.73
31
0
0
LINE
8
0
6
CONTINUOUS
10
-30.42
20
-100.73
30
0
11
-32.0
21
-100.73
31
0
0
LINE
8
0
6
CONTINUOUS
10
-32.0
20
-100.73
30
0
11
-32.0
21
-99.67
31
0
0
LINE
8
0
6
CONTINUOUS
10
-32.0
20
-99.67
30
0
11
-33.0
21
-99.93
31
0
0
LINE
8
0
6
CONTINUOUS
10
-33.0
20
-99.93
30
0
11
-33.0
21
-104.22
31
0
0
LINE
8
0
6
CONTINUOUS
10
-33.0
20
-104.22
30
0
11
-31.5
21
-104.62
31
0
0
LINE
8
0
6
CONTINUOUS
10
-31.5
20
-104.62
30
0
11
-31.5
21
-102.53
31
0
0
LINE
8
0
6
CONTINUOUS
10
-31.5
20
-102.53
30
0
11
-28.5
21
-102.53
31
0
0
LINE
8
0
6
CONTINUOUS
10
-28.5
20
-102.53
30
0
11
-28.5
21
-120.53
31
0
0
LINE
8
0
6
CONTINUOUS
10
-28.5
20
-120.53
30
0
11
-31.5
21
-120.53
31
0
0
LINE
8
0
6
CONTINUOUS
10
-31.5
20
-120.53
30
0
11
-31.5
21
-118.44
31
0
0
LINE
8
0
6
CONTINUOUS
10
-31.5
20
-118.44
30
0
11
-33.0
21
-118.84
31
0
0
LINE
8
0
6
CONTINUOUS
10
-19.3
20
-120.63
30
0
11
-26.7
21
-120.63
31
0
0
LINE
8
0
6
CONTINUOUS
10
-26.7
20
-120.63
30
0
11
-26.7
21
-101.83
31
0
0
LINE
8
0
6
CONTINUOUS
10
-26.7
20
-101.83
30
0
11
-19.3
21
-101.83
31
0
0
LINE
8
0
6
CONTINUOUS
10
-19.3
20
-101.83
30
0
11
-19.3
21
-120.63
31
0
0
LINE
8
0
6
CONTINUOUS
10
-23.77
20
-66.13
30
0
11
-28.68
21
-66.13
31
0
0
LINE
8
0
6
CONTINUOUS
10
-28.68
20
-66.13
30
0
11
-27.23
21
-68.65
31
0
0
LINE
8
0
6
CONTINUOUS
10
-27.23
20
-68.65
30
0
11
-27.23
21
-69.55
31
0
0
LINE
8
0
6
CONTINUOUS
10
-27.23
20
-69.55
30
0
11
-30.3
21
-71.33
31
0
0
LINE
8
0
6
CONTINUOUS
10
-30.3
20
-71.33
30
0
11
-30.3
21
-73.13
31
0
0
LINE
8
0
6
CONTINUOUS
10
-30.3
20
-73.13
30
0
11
-32.0
21
-73.13
31
0
0
LINE
8
0
6
CONTINUOUS
10
-32.0
20
-73.13
30
0
11
-32.0
21
-71.97
31
0
0
LINE
8
0
6
CONTINUOUS
10
-32.0
20
-71.97
30
0
11
-33.0
21
-72.23
31
0
0
LINE
8
0
6
CONTINUOUS
10
-33.0
20
-72.23
30
0
11
-33.0
21
-75.32
31
0
0
LINE
8
0
6
CONTINUOUS
10
-33.0
20
-75.32
30
0
11
-32.0
21
-75.59
31
0
0
LINE
8
0
6
CONTINUOUS
10
-32.0
20
-75.59
30
0
11
-32.0
21
-74.43
31
0
0
LINE
8
0
6
CONTINUOUS
10
-32.0
20
-74.43
30
0
11
-30.3
21
-74.43
31
0
0
LINE
8
0
6
CONTINUOUS
10
-30.3
20
-74.43
30
0
11
-30.3
21
-91.83
31
0
0
LINE
8
0
6
CONTINUOUS
10
-30.3
20
-91.83
30
0
11
-32.0
21
-91.83
31
0
0
LINE
8
0
6
CONTINUOUS
10
-32.0
20
-91.83
30
0
11
-32.0
21
-90.67
31
0
0
LINE
8
0
6
CONTINUOUS
10
-32.0
20
-90.67
30
0
11
-33.0
21
-90.93
31
0
0
LINE
8
0
6
CONTINUOUS
10
-33.0
20
-90.93
30
0
11
-33.0
21
-94.02
31
0
0
LINE
8
0
6
CONTINUOUS
10
-33.0
20
-94.02
30
0
11
-32.0
21
-94.29
31
0
0
LINE
8
0
6
CONTINUOUS
10
-32.0
20
-94.29
30
0
11
-32.0
21
-93.13
31
0
0
LINE
8
0
6
CONTINUOUS
10
-32.0
20
-93.13
30
0
11
-30.3
21
-93.13
31
0
0
LINE
8
0
6
CONTINUOUS
10
-30.3
20
-93.13
30
0
11
-30.3
21
-94.93
31
0
0
LINE
8
0
6
CONTINUOUS
10
-30.3
20
-94.93
30
0
11
-27.23
21
-96.7
31
0
0
LINE
8
0
6
CONTINUOUS
10
-27.23
20
-96.7
30
0
11
-27.23
21
-97.6
31
0
0
LINE
8
0
6
CONTINUOUS
10
-27.23
20
-97.6
30
0
11
-28.68
21
-100.13
31
0
0
LINE
8
0
6
CONTINUOUS
10
-28.68
20
-100.13
30
0
11
-23.77
21
-100.13
31
0
0
LINE
8
0
6
CONTINUOUS
10
-23.77
20
-100.13
30
0
11
-25.23
21
-97.6
31
0
0
LINE
8
0
6
CONTINUOUS
10
-25.23
20
-97.6
30
0
11
-25.23
21
-95.55
31
0
0
LINE
8
0
6
CONTINUOUS
10
-25.23
20
-95.55
30
0
11
-28.3
21
-93.77
31
0
0
LINE
8
0
6
CONTINUOUS
10
-28.3
20
-93.77
30
0
11
-28.3
21
-78.63
31
0
0
LINE
8
0
6
CONTINUOUS
10
-28.3
20
-78.63
30
0
11
-18.8
21
-78.43
31
0
0
LINE
8
0
6
CONTINUOUS
10
-18.8
20
-78.43
30
0
11
-18.8
21
-77.63
31
0
0
LINE
8
0
6
CONTINUOUS
10
-18.8
20
-77.63
30
0
11
-28.3
21
-77.43
31
0
0
LINE
8
0
6
CONTINUOUS
10
-28.3
20
-77.43
30
0
11
-28.3
21
-72.48
31
0
0
LINE
8
0
6
CONTINUOUS
10
-28.3
20
-72.48
30
0
11
-25.21
21
-70.7
31
0
0
LINE
8
0
6
CONTINUOUS
10
-25.21
20
-70.7
30
0
11
-25.21
21
-68.63
31
0
0
LINE
8
0
6
CONTINUOUS
10
-25.21
20
-68.63
30
0
11
-23.77
21
-66.13
31
0
0
LINE
8
0
6
CONTINUOUS
10
-20.77
20
-97.6
30
0
11
-22.23
21
-100.13
31
0
0
LINE
8
0
6
CONTINUOUS
10
-22.23
20
-100.13
30
0
11
-17.38
21
-100.13
31
0
0
LINE
8
0
6
CONTINUOUS
10
-17.38
20
-100.13
30
0
11
-18.77
21
-97.6
31
0
0
LINE
8
0
6
CONTINUOUS
10
-18.77
20
-97.6
30
0
11
-18.77
21
-96.7
31
0
0
LINE
8
0
6
CONTINUOUS
10
-18.77
20
-96.7
30
0
11
-15.7
21
-94.93
31
0
0
LINE
8
0
6
CONTINUOUS
10
-15.7
20
-94.93
30
0
11
-15.7
21
-93.13
31
0
0
LINE
8
0
6
CONTINUOUS
10
-15.7
20
-93.13
30
0
11
-14.0
21
-93.13
31
0
0
LINE
8
0
6
CONTINUOUS
10
-14.0
20
-93.13
30
0
11
-14.0
21
-94.29
31
0
0
LINE
8
0
6
CONTINUOUS
10
-14.0
20
-94.29
30
0
11
-13.0
21
-94.02
31
0
0
LINE
8
0
6
CONTINUOUS
10
-13.0
20
-94.02
30
0
11
-13.0
21
-90.93
31
0
0
LINE
8
0
6
CONTINUOUS
10
-13.0
20
-90.93
30
0
11
-14.0
21
-90.67
31
0
0
LINE
8
0
6
CONTINUOUS
10
-14.0
20
-90.67
30
0
11
-14.0
21
-91.83
31
0
0
LINE
8
0
6
CONTINUOUS
10
-14.0
20
-91.83
30
0
11
-15.7
21
-91.83
31
0
0
LINE
8
0
6
CONTINUOUS
10
-15.7
20
-91.83
30
0
11
-15.7
21
-74.43
31
0
0
LINE
8
0
6
CONTINUOUS
10
-15.7
20
-74.43
30
0
11
-14.0
21
-74.43
31
0
0
LINE
8
0
6
CONTINUOUS
10
-14.0
20
-74.43
30
0
11
-14.0
21
-75.59
31
0
0
LINE
8
0
6
CONTINUOUS
10
-14.0
20
-75.59
30
0
11
-13.0
21
-75.32
31
0
0
LINE
8
0
6
CONTINUOUS
10
-13.0
20
-75.32
30
0
11
-13.0
21
-72.23
31
0
0
LINE
8
0
6
CONTINUOUS
10
-13.0
20
-72.23
30
0
11
-14.0
21
-71.97
31
0
0
LINE
8
0
6
CONTINUOUS
10
-14.0
20
-71.97
30
0
11
-14.0
21
-73.13
31
0
0
LINE
8
0
6
CONTINUOUS
10
-14.0
20
-73.13
30
0
11
-15.7
21
-73.13
31
0
0
LINE
8
0
6
CONTINUOUS
10
-15.7
20
-73.13
30
0
11
-15.7
21
-71.33
31
0
0
LINE
8
0
6
CONTINUOUS
10
-15.7
20
-71.33
30
0
11
-18.77
21
-69.55
31
0
0
LINE
8
0
6
CONTINUOUS
10
-18.77
20
-69.55
30
0
11
-18.77
21
-68.66
31
0
0
LINE
8
0
6
CONTINUOUS
10
-18.77
20
-68.66
30
0
11
-17.38
21
-66.13
31
0
0
LINE
8
0
6
CONTINUOUS
10
-17.38
20
-66.13
30
0
11
-22.23
21
-66.13
31
0
0
LINE
8
0
6
CONTINUOUS
10
-22.23
20
-66.13
30
0
11
-20.77
21
-68.65
31
0
0
LINE
8
0
6
CONTINUOUS
10
-20.77
20
-68.65
30
0
11
-20.77
21
-70.71
31
0
0
LINE
8
0
6
CONTINUOUS
10
-20.77
20
-70.71
30
0
11
-17.7
21
-72.48
31
0
0
LINE
8
0
6
CONTINUOUS
10
-17.7
20
-72.48
30
0
11
-17.7
21
-87.63
31
0
0
LINE
8
0
6
CONTINUOUS
10
-17.7
20
-87.63
30
0
11
-27.2
21
-87.83
31
0
0
LINE
8
0
6
CONTINUOUS
10
-27.2
20
-87.83
30
0
11
-27.2
21
-88.63
31
0
0
LINE
8
0
6
CONTINUOUS
10
-27.2
20
-88.63
30
0
11
-17.7
21
-88.83
31
0
0
LINE
8
0
6
CONTINUOUS
10
-17.7
20
-88.83
30
0
11
-17.7
21
-93.77
31
0
0
LINE
8
0
6
CONTINUOUS
10
-17.7
20
-93.77
30
0
11
-20.77
21
-95.55
31
0
0
LINE
8
0
6
CONTINUOUS
10
-20.77
20
-95.55
30
0
11
-20.77
21
-97.6
31
0
0
LINE
8
0
6
CONTINUOUS
10
-11.0
20
-102.04
30
0
11
-11.0
21
-57.41
31
0
0
LINE
8
0
6
CONTINUOUS
10
-11.0
20
-57.41
30
0
11
-12.7
21
-56.43
31
0
0
LINE
8
0
6
CONTINUOUS
10
-12.7
20
-56.43
30
0
11
-11.0
21
-55.44
31
0
0
LINE
8
0
6
CONTINUOUS
10
-11.0
20
-55.44
30
0
11
-11.0
21
-51.43
31
0
0
LINE
8
0
6
CONTINUOUS
10
-11.0
20
-51.43
30
0
11
-8.2
21
-51.43
31
0
0
LINE
8
0
6
CONTINUOUS
10
-8.2
20
-51.43
30
0
11
-8.2
21
-50.63
31
0
0
ARC
8
0
6
CONTINUOUS
10
-9.599999999999998
20
-50.629999999999995
30
0
40
1.4
50
359.9999999999997
51
90.00000000000007
0
LINE
8
0
6
CONTINUOUS
10
-9.6
20
-49.23
30
0
11
-14.4
21
-49.23
31
0
0
ARC
8
0
6
CONTINUOUS
10
-14.400000000000002
20
-50.629999999999995
30
0
40
1.4
50
89.99999999999993
51
180.00000000000028
0
LINE
8
0
6
CONTINUOUS
10
-15.8
20
-50.63
30
0
11
-15.8
21
-51.43
31
0
0
LINE
8
0
6
CONTINUOUS
10
-15.8
20
-51.43
30
0
11
-13.0
21
-51.43
31
0
0
LINE
8
0
6
CONTINUOUS
10
-13.0
20
-51.43
30
0
11
-13.0
21
-54.29
31
0
0
LINE
8
0
6
CONTINUOUS
10
-13.0
20
-54.29
30
0
11
-15.7
21
-55.85
31
0
0
LINE
8
0
6
CONTINUOUS
10
-15.7
20
-55.85
30
0
11
-15.7
21
-57.0
31
0
0
LINE
8
0
6
CONTINUOUS
10
-15.7
20
-57.0
30
0
11
-13.0
21
-58.56
31
0
0
LINE
8
0
6
CONTINUOUS
10
-13.0
20
-58.56
30
0
11
-13.0
21
-98.43
31
0
0
LINE
8
0
6
CONTINUOUS
10
-13.0
20
-98.43
30
0
11
-15.58
21
-98.43
31
0
0
LINE
8
0
6
CONTINUOUS
10
-15.58
20
-98.28
30
0
11
-15.58
21
-99.08
31
0
0
LINE
8
0
6
CONTINUOUS
10
-15.58
20
-99.08
30
0
11
-14.7
21
-100.6
31
0
0
LINE
8
0
6
CONTINUOUS
10
-14.7
20
-100.6
30
0
11
-14.44
21
-99.63
31
0
0
LINE
8
0
6
CONTINUOUS
10
-14.44
20
-99.63
30
0
11
-13.0
21
-99.63
31
0
0
LINE
8
0
6
CONTINUOUS
10
-13.0
20
-99.63
30
0
11
-13.0
21
-102.58
31
0
0
LINE
8
0
6
CONTINUOUS
10
-13.0
20
-102.58
30
0
11
-11.0
21
-102.04
31
0
0
ARC
8
0
6
CONTINUOUS
10
-12.5
20
-121.83
30
0
40
0.5
50
180.0
51
270.0
0
LINE
8
0
6
CONTINUOUS
10
-12.5
20
-122.33
30
0
11
1.5
21
-122.33
31
0
0
ARC
8
0
6
CONTINUOUS
10
1.5
20
-121.83
30
0
40
0.5
50
270.0
51
0.0
0
LINE
8
0
6
CONTINUOUS
10
2.0
20
-121.83
30
0
11
2.0
21
-86.77
31
0
0
LINE
8
0
6
CONTINUOUS
10
2.0
20
-86.77
30
0
11
0.0
21
-86.24
31
0
0
LINE
8
0
6
CONTINUOUS
10
0.0
20
-86.24
30
0
11
0.0
21
-87.17
31
0
0
LINE
8
0
6
CONTINUOUS
10
0.0
20
-87.17
30
0
11
0.8
21
-87.38
31
0
0
LINE
8
0
6
CONTINUOUS
10
0.8
20
-87.38
30
0
11
0.8
21
-88.53
31
0
0
LINE
8
0
6
CONTINUOUS
10
0.8
20
-88.53
30
0
11
-5.14
21
-88.53
31
0
0
LINE
8
0
6
CONTINUOUS
10
-5.14
20
-88.53
30
0
11
-5.14
21
-89.73
31
0
0
LINE
8
0
6
CONTINUOUS
10
-5.14
20
-89.73
30
0
11
0.8
21
-89.73
31
0
0
LINE
8
0
6
CONTINUOUS
10
0.8
20
-89.73
30
0
11
0.8
21
-100.53
31
0
0
LINE
8
0
6
CONTINUOUS
10
0.8
20
-100.53
30
0
11
-5.5
21
-100.53
31
0
0
LINE
8
0
6
CONTINUOUS
10
-5.5
20
-100.53
30
0
11
-9.5
21
-104.53
31
0
0
LINE
8
0
6
CONTINUOUS
10
-9.5
20
-104.53
30
0
11
-14.81
21
-104.53
31
0
0
LINE
8
0
6
CONTINUOUS
10
-14.81
20
-104.53
30
0
11
-14.81
21
-102.86
31
0
0
LINE
8
0
6
CONTINUOUS
10
-14.81
20
-102.86
30
0
11
-16.99
21
-103.89
31
0
0
LINE
8
0
6
CONTINUOUS
10
-16.99
20
-103.89
30
0
11
-16.99
21
-105.53
31
0
0
LINE
8
0
6
CONTINUOUS
10
-16.99
20
-105.53
30
0
11
-8.94
21
-105.53
31
0
0
LINE
8
0
6
CONTINUOUS
10
-8.94
20
-105.53
30
0
11
-5.14
21
-101.73
31
0
0
LINE
8
0
6
CONTINUOUS
10
-5.14
20
-101.73
30
0
11
0.7
21
-101.73
31
0
0
LINE
8
0
6
CONTINUOUS
10
0.7
20
-101.73
30
0
11
0.7
21
-121.03
31
0
0
LINE
8
0
6
CONTINUOUS
10
0.7
20
-121.03
30
0
11
-9.5
21
-121.03
31
0
0
LINE
8
0
6
CONTINUOUS
10
-9.5
20
-121.03
30
0
11
-9.5
21
-120.02
31
0
0
ARC
8
0
6
CONTINUOUS
10
-11.990000000000002
20
-120.02000000000001
30
0
40
2.49
50
3.269967865279757e-13
51
89.99999999999996
0
LINE
8
0
6
CONTINUOUS
10
-11.99
20
-117.53
30
0
11
-16.99
21
-117.53
31
0
0
LINE
8
0
6
CONTINUOUS
10
-16.99
20
-117.53
30
0
11
-16.99
21
-118.53
31
0
0
LINE
8
0
6
CONTINUOUS
10
-16.99
20
-118.53
30
0
11
-14.7
21
-119.33
31
0
0
LINE
8
0
6
CONTINUOUS
10
-14.7
20
-119.33
30
0
11
-14.7
21
-118.53
31
0
0
LINE
8
0
6
CONTINUOUS
10
-14.7
20
-118.53
30
0
11
-11.97
21
-118.53
31
0
0
ARC
8
0
6
CONTINUOUS
10
-11.969965986003713
20
-119.99999999960647
30
0
40
1.47
50
0.38977019850648054
51
90.00132575403528
0
LINE
8
0
6
CONTINUOUS
10
-10.5
20
-119.99
30
0
11
-10.5
21
-121.03
31
0
0
LINE
8
0
6
CONTINUOUS
10
-10.5
20
-121.03
30
0
11
-13.0
21
-121.03
31
0
0
LINE
8
0
6
CONTINUOUS
10
-13.0
20
-121.03
30
0
11
-13.0
21
-121.83
31
0
0
LINE
8
0
6
CONTINUOUS
10
-5.34
20
-52.03
30
0
11
-5.34
21
-53.13
31
0
0
LINE
8
0
6
CONTINUOUS
10
-5.34
20
-53.13
30
0
11
-4.04
21
-54.37
31
0
0
ARC
8
0
6
CONTINUOUS
10
-3.7236737033337106
20
-54.03602743520254
30
0
40
0.46
50
226.55437552835775
51
9.513328254569469
0
LINE
8
0
6
CONTINUOUS
10
-3.27
20
-53.96
30
0
11
-3.45
21
-52.87
31
0
0
LINE
8
0
6
CONTINUOUS
10
-3.45
20
-52.87
30
0
11
-1.94
21
-54.39
31
0
0
ARC
8
0
6
CONTINUOUS
10
-1.6225376710921127
20
-54.04342003848407
30
0
40
0.47
50
227.51075792404146
51
10.223561014987629
0
LINE
8
0
6
CONTINUOUS
10
-1.16
20
-53.96
30
0
11
-1.31
21
-53.08
31
0
0
LINE
8
0
6
CONTINUOUS
10
-1.31
20
-53.08
30
0
11
0.6
21
-54.29
31
0
0
ARC
8
0
6
CONTINUOUS
10
1.4137815738460184
20
-53.02993668807131
30
0
40
1.5
50
237.1445769447452
51
90.52642475074096
0
LINE
8
0
6
CONTINUOUS
10
1.4
20
-51.53
30
0
11
-0.34
21
-51.53
31
0
0
LINE
8
0
6
CONTINUOUS
10
-0.34
20
-51.53
30
0
11
-0.34
21
-50.23
31
0
0
LINE
8
0
6
CONTINUOUS
10
-0.34
20
-50.23
30
0
11
0.46
21
-50.23
31
0
0
LINE
8
0
6
CONTINUOUS
10
0.46
20
-50.23
30
0
11
-0.15
21
-49.13
31
0
0
LINE
8
0
6
CONTINUOUS
10
-0.15
20
-49.13
30
0
11
-3.73
21
-49.13
31
0
0
LINE
8
0
6
CONTINUOUS
10
-3.73
20
-49.13
30
0
11
-4.34
21
-50.23
31
0
0
LINE
8
0
6
CONTINUOUS
10
-4.34
20
-50.23
30
0
11
-3.54
21
-50.23
31
0
0
LINE
8
0
6
CONTINUOUS
10
-3.54
20
-50.23
30
0
11
-3.54
21
-51.53
31
0
0
LINE
8
0
6
CONTINUOUS
10
-3.54
20
-51.53
30
0
11
-4.84
21
-51.53
31
0
0
ARC
8
0
6
CONTINUOUS
10
-4.84
20
-52.03
30
0
40
0.5
50
90.0
51
180.0
0
ARC
8
0
6
CONTINUOUS
10
1.526885775404495
20
-53.03
30
0
40
0.8100000000000007
50
99.01245149925202
51
260.9875485007479
0
ARC
8
0
6
CONTINUOUS
10
1.526885775404495
20
-53.03
30
0
40
0.8100000000000007
50
260.9875485007479
51
99.01245149925202
0
LINE
8
0
6
CONTINUOUS
10
-1.0
20
-49.73
30
0
11
-1.2
21
-50.9
31
0
0
ARC
8
0
6
CONTINUOUS
10
-1.94
20
-50.77793444384266
30
0
40
0.75
50
189.3667888843517
51
350.6332111156483
0
LINE
8
0
6
CONTINUOUS
10
-2.68
20
-50.9
30
0
11
-2.88
21
-49.73
31
0
0
LINE
8
0
6
CONTINUOUS
10
-2.88
20
-49.73
30
0
11
-1.0
21
-49.73
31
0
0
ARC
8
0
6
CONTINUOUS
10
-8.83125190976242
20
-78.78003690474739
30
0
40
15.62
50
327.07562684532076
51
353.23511802241586
0
ARC
8
0
6
CONTINUOUS
10
5.3576143959710105
20
-80.40344443148031
30
0
40
1.34
50
350.6997206133696
51
84.33020148588304
0
LINE
8
0
6
CONTINUOUS
10
5.49
20
-79.07
30
0
11
2.12
21
-79.07
31
0
0
ARC
8
0
6
CONTINUOUS
10
5.555344927693851
20
-87.51824273016395
30
0
40
9.12
50
112.12834342195856
51
146.16350113604065
0
LINE
8
0
6
CONTINUOUS
10
-2.02
20
-82.44
30
0
11
-8.42
21
-80.14
31
0
0
LINE
8
0
6
CONTINUOUS
10
-8.42
20
-80.14
30
0
11
-6.83
21
-79.86
31
0
0
ARC
8
0
6
CONTINUOUS
10
-6.917235783774304
20
-79.46962848716989
30
0
40
0.4
50
282.5968424967077
51
87.53039120935291
0
LINE
8
0
6
CONTINUOUS
10
-6.9
20
-79.07
30
0
11
-9.26
21
-79.07
31
0
0
ARC
8
0
6
CONTINUOUS
10
-9.257703263516168
20
-79.5699947249737
30
0
40
0.5
50
90.26318753990265
51
218.31690489847438
0
ARC
8
0
6
CONTINUOUS
10
9.263328230106215
20
-66.98666392044838
30
0
40
22.89
50
214.2825029247371
51
244.11409211102963
0
LINE
8
0
6
CONTINUOUS
10
-0.73
20
-87.58
30
0
11
-0.18
21
-86.07
31
0
0
LINE
8
0
6
CONTINUOUS
10
-0.18
20
-86.07
30
0
11
2.46
21
-86.07
31
0
0
LINE
8
0
6
CONTINUOUS
10
2.46
20
-86.07
30
0
11
2.18
21
-87.99
31
0
0
ARC
8
0
6
CONTINUOUS
10
2.584089563341732
20
-85.74609455974671
30
0
40
2.28
50
259.79141163205503
51
318.05787720004736
0
ARC
8
0
6
CONTINUOUS
10
4.241451835887387
20
-85.89939797302472
30
0
40
5.74
50
80.38688401746215
51
144.3015804461209
0
ARC
8
0
6
CONTINUOUS
10
4.728086993917456
20
-81.15553160223453
30
0
40
1.03
50
316.07957581025136
51
62.731047191662434
0
ARC
8
0
6
CONTINUOUS
10
7.66926339085771
20
-85.04219806090873
30
0
40
3.86
50
124.73330712368823
51
147.88248407963877
0
ARC
8
0
6
CONTINUOUS
10
3.367733324425487
20
-82.58192462644955
30
0
40
1.11
50
278.40597510068517
51
338.43013558896024
0
LINE
8
0
6
CONTINUOUS
10
3.53
20
-83.68
30
0
11
0.07
21
-83.65
31
0
0
ARC
8
0
6
CONTINUOUS
10
-0.005638355391888811
20
-83.02455708558365
30
0
40
0.63
50
131.12598188816781
51
276.8956162396315
0
ARC
8
0
6
CONTINUOUS
10
2.6457385022682365
20
-84.82
30
0
40
0.36000000000000143
50
283.5362027373808
51
76.46379726261864
0
LINE
8
0
6
CONTINUOUS
10
2.73
20
-85.17
30
0
11
-0.63
21
-85.17
31
0
0
ARC
8
0
6
CONTINUOUS
10
-0.5457385022682363
20
-84.82
30
0
40
0.36000000000000143
50
103.53620273738139
51
256.46379726261915
0
LINE
8
0
6
CONTINUOUS
10
-0.63
20
-84.47
30
0
11
2.73
21
-84.47
31
0
0
ENDSEC
0
EOF