0
SECTION
2
HEADER
0
ENDSEC
0
SECTION
2
TABLES
0
TABLE
2
LTYPE
70
2
0
LTYPE
2
CONTINUOUS
70
0
3
Solid line
72
65
73
0
40
0.0
0
ENDTAB
0
TABLE
2
LAYER
70
1
0
LAYER
2
0
70
0
62
7
6
CONTINUOUS
0
ENDTAB
0
ENDSEC
0
SECTION
2
ENTITIES
0
LINE
8
0
6
CONTINUOUS
10
2.0
20
179.53
30
0
11
2.0
21
0.0
31
0
0
LINE
8
0
6
CONTINUOUS
10
346.2
20
0.0
30
0
11
2.0
21
0.0
31
0
0
LINE
8
0
6
CONTINUOUS
10
293.5
20
110.13
30
0
11
293.3
21
119.63
31
0
0
LINE
8
0
6
CONTINUOUS
10
293.3
20
119.63
30
0
11
292.5
21
119.63
31
0
0
LINE
8
0
6
CONTINUOUS
10
292.5
20
119.63
30
0
11
292.3
21
110.13
31
0
0
LINE
8
0
6
CONTINUOUS
10
292.3
20
110.13
30
0
11
287.36
21
110.13
31
0
0
LINE
8
0
6
CONTINUOUS
10
287.36
20
110.13
30
0
11
285.58
21
113.21
31
0
0
LINE
8
0
6
CONTINUOUS
10
285.58
20
113.21
30
0
11
283.53
21
113.21
31
0
0
LINE
8
0
6
CONTINUOUS
10
283.53
20
113.21
30
0
11
281.0
21
114.67
31
0
0
LINE
8
0
6
CONTINUOUS
10
281.0
20
114.67
30
0
11
281.0
21
109.75
31
0
0
LINE
8
0
6
CONTINUOUS
10
281.0
20
109.75
30
0
11
283.53
21
111.21
31
0
0
LINE
8
0
6
CONTINUOUS
10
283.53
20
111.21
30
0
11
284.43
21
111.21
31
0
0
LINE
8
0
6
CONTINUOUS
10
284.43
20
111.21
30
0
11
288.94
21
103.38
31
0
0
LINE
8
0
6
CONTINUOUS
10
288.94
20
103.38
30
0
11
307.06
21
103.38
31
0
0
LINE
8
0
6
CONTINUOUS
10
307.06
20
103.38
30
0
11
311.58
21
111.21
31
0
0
LINE
8
0
6
CONTINUOUS
10
311.58
20
111.21
30
0
11
312.48
21
111.21
31
0
0
LINE
8
0
6
CONTINUOUS
10
312.48
20
111.21
30
0
11
315.0
21
109.75
31
0
0
LINE
8
0
6
CONTINUOUS
10
315.0
20
109.75
30
0
11
315.0
21
114.67
31
0
0
LINE
8
0
6
CONTINUOUS
10
315.0
20
114.67
30
0
11
312.48
21
113.21
31
0
0
LINE
8
0
6
CONTINUOUS
10
312.48
20
113.21
30
0
11
310.42
21
113.21
31
0
0
LINE
8
0
6
CONTINUOUS
10
310.42
20
113.21
30
0
11
308.65
21
110.13
31
0
0
LINE
8
0
6
CONTINUOUS
10
308.65
20
110.13
30
0
11
293.5
21
110.13
31
0
0
LINE
8
0
6
CONTINUOUS
10
306.6
20
104.18
30
0
11
298.4
21
104.18
31
0
0
LINE
8
0
6
CONTINUOUS
10
298.4
20
104.18
30
0
11
298.4
21
109.33
31
0
0
LINE
8
0
6
CONTINUOUS
10
298.4
20
109.33
30
0
11
309.57
21
109.33
31
0
0
LINE
8
0
6
CONTINUOUS
10
309.57
20
109.33
30
0
11
306.6
21
104.18
31
0
0
LINE
8
0
6
CONTINUOUS
10
297.6
20
109.33
30
0
11
297.6
21
104.18
31
0
0
LINE
8
0
6
CONTINUOUS
10
297.6
20
104.18
30
0
11
289.4
21
104.18
31
0
0
LINE
8
0
6
CONTINUOUS
10
289.4
20
104.18
30
0
11
286.43
21
109.33
31
0
0
LINE
8
0
6
CONTINUOUS
10
286.43
20
109.33
30
0
11
297.6
21
109.33
31
0
0
LINE
8
0
6
CONTINUOUS
10
313.3
20
158.43
30
0
11
313.3
21
155.48
31
0
0
LINE
8
0
6
CONTINUOUS
10
313.3
20
155.48
30
0
11
315.48
21
156.74
31
0
0
LINE
8
0
6
CONTINUOUS
10
315.48
20
156.74
30
0
11
314.5
21
157.0
31
0
0
LINE
8
0
6
CONTINUOUS
10
314.5
20
157.0
30
0
11
314.5
21
158.43
31
0
0
LINE
8
0
6
CONTINUOUS
10
314.5
20
158.43
30
0
11
317.45
21
158.43
31
0
0
LINE
8
0
6
CONTINUOUS
10
317.45
20
158.43
30
0
11
316.92
21
160.43
31
0
0
LINE
8
0
6
CONTINUOUS
10
316.92
20
160.43
30
0
11
272.28
21
160.43
31
0
0
LINE
8
0
6
CONTINUOUS
10
272.28
20
160.43
30
0
11
271.3
21
158.73
31
0
0
LINE
8
0
6
CONTINUOUS
10
271.3
20
158.73
30
0
11
270.32
21
160.43
31
0
0
LINE
8
0
6
CONTINUOUS
10
270.32
20
160.43
30
0
11
266.3
21
160.43
31
0
0
LINE
8
0
6
CONTINUOUS
10
266.3
20
160.43
30
0
11
266.3
21
163.23
31
0
0
LINE
8
0
6
CONTINUOUS
10
266.3
20
163.23
30
0
11
265.5
21
163.23
31
0
0
ARC
8
0
6
CONTINUOUS
10
265.5
20
161.82999999999998
30
0
40
1.4
50
90.0
51
179.99999999999886
0
LINE
8
0
6
CONTINUOUS
10
264.1
20
161.83
30
0
11
264.1
21
157.03
31
0
0
ARC
8
0
6
CONTINUOUS
10
265.5
20
157.02999999999997
30
0
40
1.4
50
179.99999999999886
51
270.0
0
LINE
8
0
6
CONTINUOUS
10
265.5
20
155.63
30
0
11
266.3
21
155.63
31
0
0
LINE
8
0
6
CONTINUOUS
10
266.3
20
155.63
30
0
11
266.3
21
158.43
31
0
0
LINE
8
0
6
CONTINUOUS
10
266.3
20
158.43
30
0
11
269.16
21
158.43
31
0
0
LINE
8
0
6
CONTINUOUS
10
269.16
20
158.43
30
0
11
270.72
21
155.73
31
0
0
LINE
8
0
6
CONTINUOUS
10
270.72
20
155.73
30
0
11
271.88
21
155.73
31
0
0
LINE
8
0
6
CONTINUOUS
10
271.88
20
155.73
30
0
11
273.44
21
158.43
31
0
0
LINE
8
0
6
CONTINUOUS
10
273.44
20
158.43
30
0
11
313.3
21
158.43
31
0
0
LINE
8
0
6
CONTINUOUS
10
289.3
20
155.67
30
0
11
289.3
21
157.37
31
0
0
LINE
8
0
6
CONTINUOUS
10
289.3
20
157.37
30
0
11
290.46
21
157.37
31
0
0
LINE
8
0
6
CONTINUOUS
10
290.46
20
157.37
30
0
11
290.19
21
158.37
31
0
0
LINE
8
0
6
CONTINUOUS
10
290.19
20
158.37
30
0
11
287.11
21
158.37
31
0
0
LINE
8
0
6
CONTINUOUS
10
287.11
20
158.37
30
0
11
286.84
21
157.37
31
0
0
LINE
8
0
6
CONTINUOUS
10
286.84
20
157.37
30
0
11
288.0
21
157.37
31
0
0
LINE
8
0
6
CONTINUOUS
10
288.0
20
157.37
30
0
11
288.0
21
155.67
31
0
0
LINE
8
0
6
CONTINUOUS
10
288.0
20
155.67
30
0
11
286.2
21
155.67
31
0
0
LINE
8
0
6
CONTINUOUS
10
286.2
20
155.67
30
0
11
284.43
21
152.59
31
0
0
LINE
8
0
6
CONTINUOUS
10
284.43
20
152.59
30
0
11
283.53
21
152.59
31
0
0
LINE
8
0
6
CONTINUOUS
10
283.53
20
152.59
30
0
11
281.0
21
154.05
31
0
0
LINE
8
0
6
CONTINUOUS
10
281.0
20
154.05
30
0
11
281.0
21
149.14
31
0
0
LINE
8
0
6
CONTINUOUS
10
281.0
20
149.14
30
0
11
283.53
21
150.59
31
0
0
LINE
8
0
6
CONTINUOUS
10
283.53
20
150.59
30
0
11
285.58
21
150.59
31
0
0
LINE
8
0
6
CONTINUOUS
10
285.58
20
150.59
30
0
11
287.36
21
153.67
31
0
0
LINE
8
0
6
CONTINUOUS
10
287.36
20
153.67
30
0
11
302.5
21
153.67
31
0
0
LINE
8
0
6
CONTINUOUS
10
302.5
20
153.67
30
0
11
302.7
21
144.17
31
0
0
LINE
8
0
6
CONTINUOUS
10
302.7
20
144.17
30
0
11
303.5
21
144.17
31
0
0
LINE
8
0
6
CONTINUOUS
10
303.5
20
144.17
30
0
11
303.7
21
153.67
31
0
0
LINE
8
0
6
CONTINUOUS
10
303.7
20
153.67
30
0
11
308.65
21
153.67
31
0
0
LINE
8
0
6
CONTINUOUS
10
308.65
20
153.67
30
0
11
310.42
21
150.59
31
0
0
LINE
8
0
6
CONTINUOUS
10
310.42
20
150.59
30
0
11
312.48
21
150.59
31
0
0
LINE
8
0
6
CONTINUOUS
10
312.48
20
150.59
30
0
11
315.0
21
149.14
31
0
0
LINE
8
0
6
CONTINUOUS
10
315.0
20
149.14
30
0
11
315.0
21
154.05
31
0
0
LINE
8
0
6
CONTINUOUS
10
315.0
20
154.05
30
0
11
312.48
21
152.59
31
0
0
LINE
8
0
6
CONTINUOUS
10
312.48
20
152.59
30
0
11
311.58
21
152.59
31
0
0
LINE
8
0
6
CONTINUOUS
10
311.58
20
152.59
30
0
11
309.8
21
155.67
31
0
0
LINE
8
0
6
CONTINUOUS
10
309.8
20
155.67
30
0
11
308.0
21
155.67
31
0
0
LINE
8
0
6
CONTINUOUS
10
308.0
20
155.67
30
0
11
308.0
21
157.37
31
0
0
LINE
8
0
6
CONTINUOUS
10
308.0
20
157.37
30
0
11
309.16
21
157.37
31
0
0
LINE
8
0
6
CONTINUOUS
10
309.16
20
157.37
30
0
11
308.89
21
158.37
31
0
0
LINE
8
0
6
CONTINUOUS
10
308.89
20
158.37
30
0
11
305.81
21
158.37
31
0
0
LINE
8
0
6
CONTINUOUS
10
305.81
20
158.37
30
0
11
305.54
21
157.37
31
0
0
LINE
8
0
6
CONTINUOUS
10
305.54
20
157.37
30
0
11
306.7
21
157.37
31
0
0
LINE
8
0
6
CONTINUOUS
10
306.7
20
157.37
30
0
11
306.7
21
155.67
31
0
0
LINE
8
0
6
CONTINUOUS
10
306.7
20
155.67
30
0
11
289.3
21
155.67
31
0
0
LINE
8
0
6
CONTINUOUS
10
298.65
20
173.43
30
0
11
298.11
21
171.43
31
0
0
LINE
8
0
6
CONTINUOUS
10
298.11
20
171.43
30
0
11
299.04
21
171.43
31
0
0
LINE
8
0
6
CONTINUOUS
10
299.04
20
171.43
30
0
11
299.26
21
172.23
31
0
0
LINE
8
0
6
CONTINUOUS
10
299.26
20
172.23
30
0
11
300.4
21
172.23
31
0
0
LINE
8
0
6
CONTINUOUS
10
300.4
20
172.23
30
0
11
300.4
21
166.29
31
0
0
LINE
8
0
6
CONTINUOUS
10
300.4
20
166.29
30
0
11
301.6
21
166.29
31
0
0
LINE
8
0
6
CONTINUOUS
10
301.6
20
166.29
30
0
11
301.6
21
172.23
31
0
0
LINE
8
0
6
CONTINUOUS
10
301.6
20
172.23
30
0
11
316.4
21
172.23
31
0
0
LINE
8
0
6
CONTINUOUS
10
316.4
20
172.23
30
0
11
316.4
21
168.49
31
0
0
LINE
8
0
6
CONTINUOUS
10
316.4
20
168.49
30
0
11
328.4
21
161.57
31
0
0
LINE
8
0
6
CONTINUOUS
10
328.4
20
161.57
30
0
11
328.4
21
156.63
31
0
0
LINE
8
0
6
CONTINUOUS
10
328.4
20
156.63
30
0
11
326.73
21
156.63
31
0
0
LINE
8
0
6
CONTINUOUS
10
326.73
20
156.63
30
0
11
327.76
21
154.44
31
0
0
LINE
8
0
6
CONTINUOUS
10
327.76
20
154.44
30
0
11
329.4
21
154.44
31
0
0
LINE
8
0
6
CONTINUOUS
10
329.4
20
154.44
30
0
11
329.4
21
162.14
31
0
0
LINE
8
0
6
CONTINUOUS
10
329.4
20
162.14
30
0
11
317.6
21
168.96
31
0
0
LINE
8
0
6
CONTINUOUS
10
317.6
20
168.96
30
0
11
317.6
21
172.13
31
0
0
LINE
8
0
6
CONTINUOUS
10
317.6
20
172.13
30
0
11
344.9
21
172.13
31
0
0
LINE
8
0
6
CONTINUOUS
10
344.9
20
172.13
30
0
11
344.9
21
161.93
31
0
0
LINE
8
0
6
CONTINUOUS
10
344.9
20
161.93
30
0
11
343.9
21
161.93
31
0
0
ARC
8
0
6
CONTINUOUS
10
343.889999999919
20
159.44002008040258
30
0
40
2.49
50
89.76989584740288
51
180.00046205715608
0
LINE
8
0
6
CONTINUOUS
10
341.4
20
159.44
30
0
11
341.4
21
154.44
31
0
0
LINE
8
0
6
CONTINUOUS
10
341.4
20
154.44
30
0
11
342.4
21
154.44
31
0
0
LINE
8
0
6
CONTINUOUS
10
342.4
20
154.44
30
0
11
343.2
21
156.73
31
0
0
LINE
8
0
6
CONTINUOUS
10
343.2
20
156.73
30
0
11
342.4
21
156.73
31
0
0
LINE
8
0
6
CONTINUOUS
10
342.4
20
156.73
30
0
11
342.4
21
159.47
31
0
0
ARC
8
0
6
CONTINUOUS
10
343.8699659860037
20
159.4600000003935
30
0
40
1.47
50
89.99867424596431
51
179.61022980149298
0
LINE
8
0
6
CONTINUOUS
10
343.87
20
160.93
30
0
11
344.9
21
160.93
31
0
0
LINE
8
0
6
CONTINUOUS
10
344.9
20
160.93
30
0
11
344.9
21
158.43
31
0
0
LINE
8
0
6
CONTINUOUS
10
344.9
20
158.43
30
0
11
345.7
21
158.43
31
0
0
ARC
8
0
6
CONTINUOUS
10
345.7
20
158.93
30
0
40
0.5
50
270.0
51
0.0
0
LINE
8
0
6
CONTINUOUS
10
346.2
20
158.93
30
0
11
346.2
21
172.93
31
0
0
ARC
8
0
6
CONTINUOUS
10
345.7
20
172.93
30
0
40
0.5
50
0.0
51
90.0
0
LINE
8
0
6
CONTINUOUS
10
345.7
20
173.43
30
0
11
298.65
21
173.43
31
0
0
LINE
8
0
6
CONTINUOUS
10
293.88
20
168.93
30
0
11
293.88
21
161.42
31
0
0
LINE
8
0
6
CONTINUOUS
10
293.88
20
161.42
30
0
11
296.66
21
163.44
31
0
0
LINE
8
0
6
CONTINUOUS
10
296.66
20
163.44
30
0
11
296.66
21
169.55
31
0
0
LINE
8
0
6
CONTINUOUS
10
296.66
20
169.55
30
0
11
298.68
21
170.71
31
0
0
LINE
8
0
6
CONTINUOUS
10
298.68
20
170.71
30
0
11
298.68
21
171.52
31
0
0
LINE
8
0
6
CONTINUOUS
10
298.68
20
171.52
30
0
11
297.88
21
171.52
31
0
0
LINE
8
0
6
CONTINUOUS
10
297.88
20
171.52
30
0
11
297.88
21
173.93
31
0
0
LINE
8
0
6
CONTINUOUS
10
297.88
20
173.93
30
0
11
300.61
21
173.93
31
0
0
LINE
8
0
6
CONTINUOUS
10
300.61
20
173.93
30
0
11
300.61
21
175.16
31
0
0
LINE
8
0
6
CONTINUOUS
10
300.61
20
175.16
30
0
11
295.82
21
179.25
31
0
0
ARC
8
0
6
CONTINUOUS
10
295.05993266250596
20
178.34739397161624
30
0
40
1.18
50
49.89990767895966
51
179.38789325244974
0
LINE
8
0
6
CONTINUOUS
10
293.88
20
178.36
30
0
11
293.88
21
172.46
31
0
0
LINE
8
0
6
CONTINUOUS
10
293.88
20
172.46
30
0
11
295.65
21
170.69
31
0
0
LINE
8
0
6
CONTINUOUS
10
295.65
20
170.69
30
0
11
293.88
21
168.93
31
0
0
LINE
8
0
6
CONTINUOUS
10
296.66
20
177.21
30
0
11
296.66
21
172.95
31
0
0
LINE
8
0
6
CONTINUOUS
10
296.66
20
172.95
30
0
11
295.29
21
172.95
31
0
0
LINE
8
0
6
CONTINUOUS
10
295.29
20
172.95
30
0
11
295.29
21
177.21
31
0
0
LINE
8
0
6
CONTINUOUS
10
295.29
20
177.21
30
0
11
296.66
21
177.21
31
0
0
LINE
8
0
6
CONTINUOUS
10
266.9
20
166.43
30
0
11
268.0
21
166.43
31
0
0
LINE
8
0
6
CONTINUOUS
10
268.0
20
166.43
30
0
11
269.24
21
167.73
31
0
0
ARC
8
0
6
CONTINUOUS
10
268.90602743520253
20
168.0463262966663
30
0
40
0.46
50
316.55437552835696
51
99.51332825457072
0
LINE
8
0
6
CONTINUOUS
10
268.83
20
168.5
30
0
11
267.75
21
168.32
31
0
0
LINE
8
0
6
CONTINUOUS
10
267.75
20
168.32
30
0
11
269.26
21
169.83
31
0
0
ARC
8
0
6
CONTINUOUS
10
268.91342003848405
20
170.14746232890792
30
0
40
0.47
50
317.5107579240408
51
100.2235610149872
0
LINE
8
0
6
CONTINUOUS
10
268.83
20
170.61
30
0
11
267.95
21
170.47
31
0
0
LINE
8
0
6
CONTINUOUS
10
267.95
20
170.47
30
0
11
269.17
21
172.37
31
0
0
ARC
8
0
6
CONTINUOUS
10
267.89995287889155
20
173.16811046238237
30
0
40
1.5
50
327.8543302057683
51
179.54584836050427
0
LINE
8
0
6
CONTINUOUS
10
266.4
20
173.18
30
0
11
266.4
21
171.43
31
0
0
LINE
8
0
6
CONTINUOUS
10
266.4
20
171.43
30
0
11
265.1
21
171.43
31
0
0
LINE
8
0
6
CONTINUOUS
10
265.1
20
171.43
30
0
11
265.1
21
172.23
31
0
0
LINE
8
0
6
CONTINUOUS
10
265.1
20
172.23
30
0
11
264.0
21
171.62
31
0
0
LINE
8
0
6
CONTINUOUS
10
264.0
20
171.62
30
0
11
264.0
21
168.05
31
0
0
LINE
8
0
6
CONTINUOUS
10
264.0
20
168.05
30
0
11
265.1
21
167.43
31
0
0
LINE
8
0
6
CONTINUOUS
10
265.1
20
167.43
30
0
11
265.1
21
168.23
31
0
0
LINE
8
0
6
CONTINUOUS
10
265.1
20
168.23
30
0
11
266.4
21
168.23
31
0
0
LINE
8
0
6
CONTINUOUS
10
266.4
20
168.23
30
0
11
266.4
21
166.93
31
0
0
ARC
8
0
6
CONTINUOUS
10
266.9
20
166.93
30
0
40
0.5
50
180.0
51
270.0
0
ARC
8
0
6
CONTINUOUS
10
267.9
20
173.18000016559745
30
0
40
0.8
50
180.00001186004312
51
359.9999881399569
0
ARC
8
0
6
CONTINUOUS
10
267.9
20
173.18000016559745
30
0
40
0.8
50
359.9999881399569
51
180.00001186004312
0
LINE
8
0
6
CONTINUOUS
10
264.6
20
170.77
30
0
11
265.77
21
170.57
31
0
0
ARC
8
0
6
CONTINUOUS
10
265.6479344438426
20
169.82999999999998
30
0
40
0.75
50
279.3667888843562
51
80.63321111564413
0
LINE
8
0
6
CONTINUOUS
10
265.77
20
169.09
30
0
11
264.6
21
168.9
31
0
0
LINE
8
0
6
CONTINUOUS
10
264.6
20
168.9
30
0
11
264.6
21
170.77
31
0
0
ARC
8
0
6
CONTINUOUS
10
345.7
20
85.93
30
0
40
0.5
50
270.0
51
0.0
0
LINE
8
0
6
CONTINUOUS
10
346.2
20
85.93
30
0
11
346.2
21
157.93
31
0
0
ARC
8
0
6
CONTINUOUS
10
345.7
20
157.93
30
0
40
0.5
50
0.0
51
90.0
0
LINE
8
0
6
CONTINUOUS
10
345.7
20
158.43
30
0
11
342.71
21
158.43
31
0
0
LINE
8
0
6
CONTINUOUS
10
342.71
20
158.43
30
0
11
342.31
21
156.93
31
0
0
LINE
8
0
6
CONTINUOUS
10
342.31
20
156.93
30
0
11
344.4
21
156.93
31
0
0
LINE
8
0
6
CONTINUOUS
10
344.4
20
156.93
30
0
11
344.4
21
153.93
31
0
0
LINE
8
0
6
CONTINUOUS
10
344.4
20
153.93
30
0
11
326.4
21
153.93
31
0
0
LINE
8
0
6
CONTINUOUS
10
326.4
20
153.93
30
0
11
326.4
21
156.93
31
0
0
LINE
8
0
6
CONTINUOUS
10
326.4
20
156.93
30
0
11
328.49
21
156.93
31
0
0
LINE
8
0
6
CONTINUOUS
10
328.49
20
156.93
30
0
11
328.09
21
158.43
31
0
0
LINE
8
0
6
CONTINUOUS
10
328.09
20
158.43
30
0
11
323.81
21
158.43
31
0
0
LINE
8
0
6
CONTINUOUS
10
323.81
20
158.43
30
0
11
323.54
21
157.43
31
0
0
LINE
8
0
6
CONTINUOUS
10
323.54
20
157.43
30
0
11
324.6
21
157.43
31
0
0
LINE
8
0
6
CONTINUOUS
10
324.6
20
157.43
30
0
11
324.6
21
153.93
31
0
0
LINE
8
0
6
CONTINUOUS
10
324.6
20
153.93
30
0
11
317.1
21
153.93
31
0
0
LINE
8
0
6
CONTINUOUS
10
317.1
20
153.93
30
0
11
317.1
21
157.43
31
0
0
LINE
8
0
6
CONTINUOUS
10
317.1
20
157.43
30
0
11
318.16
21
157.43
31
0
0
LINE
8
0
6
CONTINUOUS
10
318.16
20
157.43
30
0
11
317.89
21
158.43
31
0
0
LINE
8
0
6
CONTINUOUS
10
317.89
20
158.43
30
0
11
314.81
21
158.43
31
0
0
LINE
8
0
6
CONTINUOUS
10
314.81
20
158.43
30
0
11
314.54
21
157.43
31
0
0
LINE
8
0
6
CONTINUOUS
10
314.54
20
157.43
30
0
11
315.6
21
157.43
31
0
0
LINE
8
0
6
CONTINUOUS
10
315.6
20
157.43
30
0
11
315.6
21
155.86
31
0
0
LINE
8
0
6
CONTINUOUS
10
315.6
20
155.86
30
0
11
310.69
21
155.86
31
0
0
LINE
8
0
6
CONTINUOUS
10
310.69
20
155.86
30
0
11
312.76
21
152.96
31
0
0
LINE
8
0
6
CONTINUOUS
10
312.76
20
152.96
30
0
11
315.0
21
154.57
31
0
0
LINE
8
0
6
CONTINUOUS
10
315.0
20
154.57
30
0
11
315.0
21
149.2
31
0
0
LINE
8
0
6
CONTINUOUS
10
315.0
20
149.2
30
0
11
312.5
21
150.64
31
0
0
LINE
8
0
6
CONTINUOUS
10
312.5
20
150.64
30
0
11
312.5
21
148.1
31
0
0
LINE
8
0
6
CONTINUOUS
10
312.5
20
148.1
30
0
11
315.0
21
146.66
31
0
0
LINE
8
0
6
CONTINUOUS
10
315.0
20
146.66
30
0
11
315.0
21
117.21
31
0
0
LINE
8
0
6
CONTINUOUS
10
315.0
20
117.21
30
0
11
312.48
21
115.75
31
0
0
LINE
8
0
6
CONTINUOUS
10
312.48
20
115.75
30
0
11
312.48
21
113.21
31
0
0
LINE
8
0
6
CONTINUOUS
10
312.48
20
113.21
30
0
11
315.0
21
114.67
31
0
0
LINE
8
0
6
CONTINUOUS
10
315.0
20
114.67
30
0
11
315.0
21
109.3
31
0
0
LINE
8
0
6
CONTINUOUS
10
315.0
20
109.3
30
0
11
312.76
21
110.9
31
0
0
LINE
8
0
6
CONTINUOUS
10
312.76
20
110.9
30
0
11
310.69
21
108.01
31
0
0
LINE
8
0
6
CONTINUOUS
10
310.69
20
108.01
30
0
11
315.2
21
108.01
31
0
0
LINE
8
0
6
CONTINUOUS
10
315.2
20
108.01
30
0
11
315.2
21
102.43
31
0
0
LINE
8
0
6
CONTINUOUS
10
315.2
20
102.43
30
0
11
319.7
21
102.43
31
0
0
LINE
8
0
6
CONTINUOUS
10
319.7
20
102.43
30
0
11
319.7
21
103.93
31
0
0
LINE
8
0
6
CONTINUOUS
10
319.7
20
103.93
30
0
11
317.2
21
103.93
31
0
0
LINE
8
0
6
CONTINUOUS
10
317.2
20
103.93
30
0
11
317.2
21
106.93
31
0
0
LINE
8
0
6
CONTINUOUS
10
317.2
20
106.93
30
0
11
337.2
21
106.93
31
0
0
LINE
8
0
6
CONTINUOUS
10
337.2
20
106.93
30
0
11
337.2
21
103.93
31
0
0
LINE
8
0
6
CONTINUOUS
10
337.2
20
103.93
30
0
11
334.7
21
103.93
31
0
0
LINE
8
0
6
CONTINUOUS
10
334.7
20
103.93
30
0
11
334.7
21
102.43
31
0
0
LINE
8
0
6
CONTINUOUS
10
334.7
20
102.43
30
0
11
339.2
21
102.43
31
0
0
LINE
8
0
6
CONTINUOUS
10
339.2
20
102.43
30
0
11
339.2
21
106.93
31
0
0
LINE
8
0
6
CONTINUOUS
10
339.2
20
106.93
30
0
11
344.2
21
106.93
31
0
0
LINE
8
0
6
CONTINUOUS
10
344.2
20
106.93
30
0
11
344.6
21
94.03
31
0
0
LINE
8
0
6
CONTINUOUS
10
344.6
20
94.03
30
0
11
342.2
21
94.03
31
0
0
LINE
8
0
6
CONTINUOUS
10
342.2
20
94.03
30
0
11
342.2
21
91.44
31
0
0
LINE
8
0
6
CONTINUOUS
10
342.2
20
91.44
30
0
11
343.2
21
91.17
31
0
0
LINE
8
0
6
CONTINUOUS
10
343.2
20
91.17
30
0
11
343.2
21
92.73
31
0
0
LINE
8
0
6
CONTINUOUS
10
343.2
20
92.73
30
0
11
344.9
21
92.73
31
0
0
LINE
8
0
6
CONTINUOUS
10
344.9
20
92.73
30
0
11
344.9
21
86.84
31
0
0
LINE
8
0
6
CONTINUOUS
10
344.9
20
86.73
30
0
11
343.2
21
86.73
31
0
0
LINE
8
0
6
CONTINUOUS
10
343.2
20
86.73
30
0
11
343.2
21
88.29
31
0
0
LINE
8
0
6
CONTINUOUS
10
343.2
20
88.29
30
0
11
342.2
21
88.03
31
0
0
LINE
8
0
6
CONTINUOUS
10
342.2
20
88.03
30
0
11
342.2
21
85.43
31
0
0
LINE
8
0
6
CONTINUOUS
10
342.2
20
85.43
30
0
11
345.7
21
85.43
31
0
0
LINE
8
0
6
CONTINUOUS
10
316.7
20
108.93
30
0
11
316.7
21
151.83
31
0
0
LINE
8
0
6
CONTINUOUS
10
316.7
20
151.83
30
0
11
344.5
21
151.83
31
0
0
LINE
8
0
6
CONTINUOUS
10
344.5
20
151.83
30
0
11
344.5
21
108.93
31
0
0
LINE
8
0
6
CONTINUOUS
10
344.5
20
108.93
30
0
11
316.7
21
108.93
31
0
0
LINE
8
0
6
CONTINUOUS
10
270.6
20
120.63
30
0
11
264.1
21
120.63
31
0
0
LINE
8
0
6
CONTINUOUS
10
264.1
20
120.63
30
0
11
264.1
21
152.23
31
0
0
LINE
8
0
6
CONTINUOUS
10
264.1
20
152.23
30
0
11
268.9
21
152.23
31
0
0
LINE
8
0
6
CONTINUOUS
10
268.9
20
152.23
30
0
11
268.9
21
149.43
31
0
0
LINE
8
0
6
CONTINUOUS
10
268.9
20
149.43
30
0
11
270.6
21
149.43
31
0
0
LINE
8
0
6
CONTINUOUS
10
270.6
20
149.43
30
0
11
270.6
21
152.43
31
0
0
LINE
8
0
6
CONTINUOUS
10
270.6
20
152.43
30
0
11
279.3
21
152.43
31
0
0
LINE
8
0
6
CONTINUOUS
10
279.3
20
152.43
30
0
11
279.3
21
112.23
31
0
0
LINE
8
0
6
CONTINUOUS
10
279.3
20
112.23
30
0
11
270.6
21
112.23
31
0
0
LINE
8
0
6
CONTINUOUS
10
270.6
20
112.23
30
0
11
270.6
21
120.63
31
0
0
LINE
8
0
6
CONTINUOUS
10
266.4
20
170.84
30
0
11
266.4
21
173.43
31
0
0
LINE
8
0
6
CONTINUOUS
10
266.4
20
173.43
30
0
11
262.9
21
173.43
31
0
0
ARC
8
0
6
CONTINUOUS
10
262.9
20
172.93
30
0
40
0.5
50
90.0
51
180.0
0
LINE
8
0
6
CONTINUOUS
10
262.4
20
172.93
30
0
11
262.4
21
117.93
31
0
0
ARC
8
0
6
CONTINUOUS
10
262.8999739574698
20
117.93510312178768
30
0
40
0.5
50
180.58478483443585
51
329.3224315011666
0
LINE
8
0
6
CONTINUOUS
10
263.33
20
117.68
30
0
11
264.06
21
118.93
31
0
0
LINE
8
0
6
CONTINUOUS
10
264.06
20
118.93
30
0
11
268.9
21
118.93
31
0
0
LINE
8
0
6
CONTINUOUS
10
268.9
20
118.93
30
0
11
268.9
21
110.53
31
0
0
LINE
8
0
6
CONTINUOUS
10
268.9
20
110.53
30
0
11
279.0
21
110.53
31
0
0
LINE
8
0
6
CONTINUOUS
10
279.0
20
110.53
30
0
11
279.0
21
108.01
31
0
0
LINE
8
0
6
CONTINUOUS
10
279.0
20
108.01
30
0
11
285.29
21
108.01
31
0
0
LINE
8
0
6
CONTINUOUS
10
285.29
20
108.01
30
0
11
284.09
21
110.09
31
0
0
LINE
8
0
6
CONTINUOUS
10
284.09
20
110.09
30
0
11
283.24
21
110.9
31
0
0
LINE
8
0
6
CONTINUOUS
10
283.24
20
110.9
30
0
11
281.0
21
109.3
31
0
0
LINE
8
0
6
CONTINUOUS
10
281.0
20
109.3
30
0
11
281.0
21
114.67
31
0
0
LINE
8
0
6
CONTINUOUS
10
281.0
20
114.67
30
0
11
283.5
21
113.22
31
0
0
LINE
8
0
6
CONTINUOUS
10
283.5
20
113.22
30
0
11
283.5
21
115.76
31
0
0
LINE
8
0
6
CONTINUOUS
10
283.5
20
115.76
30
0
11
281.0
21
117.21
31
0
0
LINE
8
0
6
CONTINUOUS
10
281.0
20
117.21
30
0
11
281.0
21
146.66
31
0
0
LINE
8
0
6
CONTINUOUS
10
281.0
20
146.66
30
0
11
283.5
21
148.1
31
0
0
LINE
8
0
6
CONTINUOUS
10
283.5
20
148.1
30
0
11
283.5
21
150.64
31
0
0
LINE
8
0
6
CONTINUOUS
10
283.5
20
150.64
30
0
11
281.0
21
149.2
31
0
0
LINE
8
0
6
CONTINUOUS
10
281.0
20
149.2
30
0
11
281.0
21
154.57
31
0
0
LINE
8
0
6
CONTINUOUS
10
281.0
20
154.57
30
0
11
283.24
21
152.96
31
0
0
LINE
8
0
6
CONTINUOUS
10
283.24
20
152.96
30
0
11
284.09
21
153.78
31
0
0
LINE
8
0
6
CONTINUOUS
10
284.09
20
153.78
30
0
11
285.29
21
155.86
31
0
0
LINE
8
0
6
CONTINUOUS
10
285.29
20
155.86
30
0
11
280.4
21
155.86
31
0
0
LINE
8
0
6
CONTINUOUS
10
280.4
20
155.86
30
0
11
280.4
21
157.43
31
0
0
LINE
8
0
6
CONTINUOUS
10
280.4
20
157.43
30
0
11
281.46
21
157.43
31
0
0
LINE
8
0
6
CONTINUOUS
10
281.46
20
157.43
30
0
11
281.19
21
158.43
31
0
0
LINE
8
0
6
CONTINUOUS
10
281.19
20
158.43
30
0
11
276.91
21
158.43
31
0
0
LINE
8
0
6
CONTINUOUS
10
276.91
20
158.43
30
0
11
276.51
21
156.93
31
0
0
LINE
8
0
6
CONTINUOUS
10
276.51
20
156.93
30
0
11
278.6
21
156.93
31
0
0
LINE
8
0
6
CONTINUOUS
10
278.6
20
156.93
30
0
11
278.6
21
153.93
31
0
0
LINE
8
0
6
CONTINUOUS
10
278.6
20
153.93
30
0
11
263.9
21
153.93
31
0
0
LINE
8
0
6
CONTINUOUS
10
263.9
20
153.93
30
0
11
263.9
21
164.63
31
0
0
LINE
8
0
6
CONTINUOUS
10
263.9
20
164.63
30
0
11
265.4
21
164.63
31
0
0
LINE
8
0
6
CONTINUOUS
10
265.4
20
164.63
30
0
11
265.4
21
163.43
31
0
0
LINE
8
0
6
CONTINUOUS
10
265.4
20
163.43
30
0
11
266.4
21
163.43
31
0
0
LINE
8
0
6
CONTINUOUS
10
266.4
20
163.43
30
0
11
266.4
21
167.43
31
0
0
LINE
8
0
6
CONTINUOUS
10
266.4
20
167.43
30
0
11
265.4
21
167.69
31
0
0
LINE
8
0
6
CONTINUOUS
10
265.4
20
167.69
30
0
11
265.4
21
166.13
31
0
0
LINE
8
0
6
CONTINUOUS
10
265.4
20
166.13
30
0
11
263.7
21
166.13
31
0
0
LINE
8
0
6
CONTINUOUS
10
263.7
20
166.13
30
0
11
263.7
21
172.13
31
0
0
LINE
8
0
6
CONTINUOUS
10
263.7
20
172.13
30
0
11
265.4
21
172.13
31
0
0
LINE
8
0
6
CONTINUOUS
10
265.4
20
172.13
30
0
11
265.4
21
170.57
31
0
0
LINE
8
0
6
CONTINUOUS
10
265.4
20
170.57
30
0
11
266.4
21
170.84
31
0
0
LINE
8
0
6
CONTINUOUS
10
319.67
20
104.43
30
0
11
319.67
21
102.33
31
0
0
LINE
8
0
6
CONTINUOUS
10
319.67
20
102.33
30
0
11
314.57
21
102.33
31
0
0
LINE
8
0
6
CONTINUOUS
10
314.57
20
102.33
30
0
11
314.57
21
86.38
31
0
0
ARC
8
0
6
CONTINUOUS
10
315.32
20
86.38
30
0
40
0.75
50
180.0
51
0.0
0
LINE
8
0
6
CONTINUOUS
10
316.07
20
86.38
30
0
11
316.07
21
100.83
31
0
0
LINE
8
0
6
CONTINUOUS
10
316.07
20
100.83
30
0
11
318.32
21
100.83
31
0
0
LINE
8
0
6
CONTINUOUS
10
318.32
20
100.83
30
0
11
318.32
21
92.63
31
0
0
LINE
8
0
6
CONTINUOUS
10
318.32
20
92.63
30
0
11
321.32
21
92.63
31
0
0
LINE
8
0
6
CONTINUOUS
10
321.32
20
92.63
30
0
11
321.32
21
93.63
31
0
0
LINE
8
0
6
CONTINUOUS
10
321.32
20
93.63
30
0
11
319.32
21
93.63
31
0
0
LINE
8
0
6
CONTINUOUS
10
319.32
20
93.63
30
0
11
319.32
21
100.83
31
0
0
LINE
8
0
6
CONTINUOUS
10
319.32
20
100.83
30
0
11
334.82
21
100.83
31
0
0
LINE
8
0
6
CONTINUOUS
10
334.82
20
100.83
30
0
11
334.82
21
93.63
31
0
0
LINE
8
0
6
CONTINUOUS
10
334.82
20
93.63
30
0
11
332.82
21
93.63
31
0
0
LINE
8
0
6
CONTINUOUS
10
332.82
20
93.63
30
0
11
332.82
21
92.63
31
0
0
LINE
8
0
6
CONTINUOUS
10
332.82
20
92.63
30
0
11
335.82
21
92.63
31
0
0
LINE
8
0
6
CONTINUOUS
10
335.82
20
92.63
30
0
11
335.82
21
100.83
31
0
0
LINE
8
0
6
CONTINUOUS
10
335.82
20
100.83
30
0
11
338.07
21
100.83
31
0
0
LINE
8
0
6
CONTINUOUS
10
338.07
20
100.83
30
0
11
338.07
21
86.38
31
0
0
ARC
8
0
6
CONTINUOUS
10
338.82
20
86.38
30
0
40
0.75
50
180.0
51
0.0
0
LINE
8
0
6
CONTINUOUS
10
339.57
20
86.38
30
0
11
339.57
21
102.33
31
0
0
LINE
8
0
6
CONTINUOUS
10
339.57
20
102.33
30
0
11
334.47
21
102.33
31
0
0
LINE
8
0
6
CONTINUOUS
10
334.47
20
102.33
30
0
11
334.47
21
104.43
31
0
0
ARC
8
0
6
CONTINUOUS
10
335.37
20
105.63000000000002
30
0
40
1.5
50
233.13010235415706
51
359.9999999999989
0
LINE
8
0
6
CONTINUOUS
10
336.87
20
105.63
30
0
11
334.47
21
105.63
31
0
0
LINE
8
0
6
CONTINUOUS
10
334.47
20
105.63
30
0
11
334.47
21
106.83
31
0
0
LINE
8
0
6
CONTINUOUS
10
334.47
20
106.83
30
0
11
332.97
21
106.83
31
0
0
LINE
8
0
6
CONTINUOUS
10
332.97
20
106.83
30
0
11
332.97
21
102.33
31
0
0
LINE
8
0
6
CONTINUOUS
10
332.97
20
102.33
30
0
11
321.17
21
102.33
31
0
0
LINE
8
0
6
CONTINUOUS
10
321.17
20
102.33
30
0
11
321.17
21
106.83
31
0
0
LINE
8
0
6
CONTINUOUS
10
321.17
20
106.83
30
0
11
319.67
21
106.83
31
0
0
LINE
8
0
6
CONTINUOUS
10
319.67
20
106.83
30
0
11
319.67
21
105.63
31
0
0
LINE
8
0
6
CONTINUOUS
10
319.67
20
105.63
30
0
11
317.27
21
105.63
31
0
0
ARC
8
0
6
CONTINUOUS
10
318.77000000000004
20
105.62999999999998
30
0
40
1.5
50
179.99999999999946
51
306.86989764584393
0
LINE
8
0
6
CONTINUOUS
10
319.17
20
86.04
30
0
11
317.57
21
86.04
31
0
0
LINE
8
0
6
CONTINUOUS
10
317.57
20
86.04
30
0
11
317.57
21
93.8
31
0
0
LINE
8
0
6
CONTINUOUS
10
317.57
20
93.8
30
0
11
316.57
21
93.8
31
0
0
LINE
8
0
6
CONTINUOUS
10
316.57
20
93.8
30
0
11
316.57
21
80.84
31
0
0
LINE
8
0
6
CONTINUOUS
10
316.57
20
80.84
30
0
11
317.78
21
80.84
31
0
0
LINE
8
0
6
CONTINUOUS
10
317.78
20
80.84
30
0
11
318.49
21
81.99
31
0
0
ARC
8
0
6
CONTINUOUS
10
319.17266365430584
20
83.43705574705668
30
0
40
1.6
50
330.121669386066
51
244.74391561210513
0
LINE
8
0
6
CONTINUOUS
10
320.56
20
82.64
30
0
11
319.52
21
80.84
31
0
0
LINE
8
0
6
CONTINUOUS
10
319.52
20
80.84
30
0
11
334.63
21
80.84
31
0
0
LINE
8
0
6
CONTINUOUS
10
334.63
20
80.84
30
0
11
333.59
21
82.64
31
0
0
ARC
8
0
6
CONTINUOUS
10
334.97733634569414
20
83.43705574705665
30
0
40
1.6
50
295.2560843878972
51
209.87833061393312
0
LINE
8
0
6
CONTINUOUS
10
335.66
20
81.99
30
0
11
336.37
21
80.84
31
0
0
LINE
8
0
6
CONTINUOUS
10
336.37
20
80.84
30
0
11
337.57
21
80.84
31
0
0
LINE
8
0
6
CONTINUOUS
10
337.57
20
80.84
30
0
11
337.57
21
93.8
31
0
0
LINE
8
0
6
CONTINUOUS
10
337.57
20
93.8
30
0
11
336.57
21
93.8
31
0
0
LINE
8
0
6
CONTINUOUS
10
336.57
20
93.8
30
0
11
336.57
21
86.04
31
0
0
LINE
8
0
6
CONTINUOUS
10
336.57
20
86.04
30
0
11
334.97
21
86.04
31
0
0
ARC
8
0
6
CONTINUOUS
10
334.97
20
83.44000000000001
30
0
40
2.6
50
90.0
51
180.0000000000003
0
LINE
8
0
6
CONTINUOUS
10
332.37
20
83.44
30
0
11
332.37
21
81.84
31
0
0
LINE
8
0
6
CONTINUOUS
10
332.37
20
81.84
30
0
11
321.77
21
81.84
31
0
0
LINE
8
0
6
CONTINUOUS
10
321.77
20
81.84
30
0
11
321.77
21
83.44
31
0
0
ARC
8
0
6
CONTINUOUS
10
319.17
20
83.44000000000001
30
0
40
2.6
50
359.99999999999966
51
90.0
0
LINE
8
0
6
CONTINUOUS
10
266.4
20
85.43
30
0
11
266.4
21
88.03
31
0
0
LINE
8
0
6
CONTINUOUS
10
266.4
20
88.03
30
0
11
265.4
21
88.29
31
0
0
LINE
8
0
6
CONTINUOUS
10
265.4
20
88.29
30
0
11
265.4
21
86.73
31
0
0
LINE
8
0
6
CONTINUOUS
10
265.4
20
86.73
30
0
11
263.7
21
86.73
31
0
0
LINE
8
0
6
CONTINUOUS
10
263.7
20
86.73
30
0
11
263.7
21
92.73
31
0
0
LINE
8
0
6
CONTINUOUS
10
263.7
20
92.73
30
0
11
265.4
21
92.73
31
0
0
LINE
8
0
6
CONTINUOUS
10
265.4
20
92.73
30
0
11
265.4
21
91.17
31
0
0
LINE
8
0
6
CONTINUOUS
10
265.4
20
91.17
30
0
11
266.4
21
91.44
31
0
0
LINE
8
0
6
CONTINUOUS
10
266.4
20
91.44
30
0
11
266.4
21
95.03
31
0
0
LINE
8
0
6
CONTINUOUS
10
266.4
20
95.03
30
0
11
265.4
21
95.03
31
0
0
LINE
8
0
6
CONTINUOUS
10
265.4
20
95.03
30
0
11
265.4
21
94.03
31
0
0
LINE
8
0
6
CONTINUOUS
10
265.4
20
94.03
30
0
11
263.9
21
94.03
31
0
0
LINE
8
0
6
CONTINUOUS
10
263.9
20
94.03
30
0
11
263.9
21
106.53
31
0
0
LINE
8
0
6
CONTINUOUS
10
263.9
20
106.53
30
0
11
279.3
21
106.53
31
0
0
LINE
8
0
6
CONTINUOUS
10
279.3
20
106.53
30
0
11
279.3
21
85.43
31
0
0
LINE
8
0
6
CONTINUOUS
10
279.3
20
85.43
30
0
11
281.6
21
85.43
31
0
0
LINE
8
0
6
CONTINUOUS
10
281.6
20
85.43
30
0
11
281.6
21
86.83
31
0
0
LINE
8
0
6
CONTINUOUS
10
281.6
20
86.83
30
0
11
280.8
21
86.83
31
0
0
LINE
8
0
6
CONTINUOUS
10
280.8
20
86.83
30
0
11
280.8
21
91.43
31
0
0
LINE
8
0
6
CONTINUOUS
10
280.8
20
91.43
30
0
11
285.0
21
91.43
31
0
0
LINE
8
0
6
CONTINUOUS
10
285.0
20
91.43
30
0
11
285.0
21
86.83
31
0
0
LINE
8
0
6
CONTINUOUS
10
285.0
20
86.83
30
0
11
284.2
21
86.83
31
0
0
LINE
8
0
6
CONTINUOUS
10
284.2
20
86.83
30
0
11
284.2
21
85.43
31
0
0
LINE
8
0
6
CONTINUOUS
10
284.2
20
85.43
30
0
11
286.5
21
85.43
31
0
0
LINE
8
0
6
CONTINUOUS
10
286.5
20
85.43
30
0
11
286.5
21
92.93
31
0
0
LINE
8
0
6
CONTINUOUS
10
286.5
20
92.93
30
0
11
280.9
21
92.93
31
0
0
LINE
8
0
6
CONTINUOUS
10
280.9
20
92.93
30
0
11
280.9
21
108.13
31
0
0
LINE
8
0
6
CONTINUOUS
10
280.9
20
108.13
30
0
11
278.8
21
108.13
31
0
0
LINE
8
0
6
CONTINUOUS
10
278.8
20
108.13
30
0
11
278.8
21
110.53
31
0
0
LINE
8
0
6
CONTINUOUS
10
278.8
20
110.53
30
0
11
277.3
21
110.53
31
0
0
LINE
8
0
6
CONTINUOUS
10
277.3
20
110.53
30
0
11
277.3
21
108.13
31
0
0
LINE
8
0
6
CONTINUOUS
10
277.3
20
108.13
30
0
11
271.7
21
108.13
31
0
0
LINE
8
0
6
CONTINUOUS
10
271.7
20
108.13
30
0
11
271.7
21
110.53
31
0
0
LINE
8
0
6
CONTINUOUS
10
271.7
20
110.53
30
0
11
270.2
21
110.53
31
0
0
LINE
8
0
6
CONTINUOUS
10
270.2
20
110.53
30
0
11
270.2
21
108.13
31
0
0
LINE
8
0
6
CONTINUOUS
10
270.2
20
108.13
30
0
11
264.0
21
108.13
31
0
0
LINE
8
0
6
CONTINUOUS
10
264.0
20
108.13
30
0
11
264.0
21
115.53
31
0
0
LINE
8
0
6
CONTINUOUS
10
264.0
20
115.53
30
0
11
265.97
21
118.93
31
0
0
LINE
8
0
6
CONTINUOUS
10
265.97
20
118.93
30
0
11
264.23
21
118.93
31
0
0
LINE
8
0
6
CONTINUOUS
10
264.23
20
118.93
30
0
11
263.37
21
117.43
31
0
0
LINE
8
0
6
CONTINUOUS
10
263.37
20
117.43
30
0
11
262.4
21
117.43
31
0
0
LINE
8
0
6
CONTINUOUS
10
262.4
20
117.43
30
0
11
262.4
21
85.93
31
0
0
ARC
8
0
6
CONTINUOUS
10
262.9
20
85.93
30
0
40
0.5
50
180.0
51
270.0
0
LINE
8
0
6
CONTINUOUS
10
262.9
20
85.43
30
0
11
266.4
21
85.43
31
0
0
LINE
8
0
6
CONTINUOUS
10
282.56
20
87.71
30
0
11
281.99
21
75.43
31
0
0
LINE
8
0
6
CONTINUOUS
10
281.99
20
75.43
30
0
11
283.81
21
75.43
31
0
0
LINE
8
0
6
CONTINUOUS
10
283.81
20
75.43
30
0
11
283.32
21
87.7
31
0
0
LINE
8
0
6
CONTINUOUS
10
283.32
20
87.7
30
0
11
284.27
21
87.55
31
0
0
LINE
8
0
6
CONTINUOUS
10
284.27
20
87.55
30
0
11
284.9
21
91.43
31
0
0
LINE
8
0
6
CONTINUOUS
10
284.9
20
91.43
30
0
11
280.9
21
91.43
31
0
0
LINE
8
0
6
CONTINUOUS
10
280.9
20
91.43
30
0
11
281.53
21
87.55
31
0
0
LINE
8
0
6
CONTINUOUS
10
281.53
20
87.55
30
0
11
282.56
21
87.71
31
0
0
ARC
8
0
6
CONTINUOUS
10
333.8515118654876
20
78.43721504042728
30
0
40
3.0
50
244.92291026553457
51
31.843101317126532
0
LINE
8
0
6
CONTINUOUS
10
336.4
20
80.02
30
0
11
335.15
21
82.02
31
0
0
ARC
8
0
6
CONTINUOUS
10
335.05345522536015
20
83.5269104507202
30
0
40
1.51
50
273.6658171370933
51
213.20408050874687
0
LINE
8
0
6
CONTINUOUS
10
333.79
20
82.7
30
0
11
335.69
21
79.64
31
0
0
ARC
8
0
6
CONTINUOUS
10
333.82186690143647
20
78.45924654307026
30
0
40
2.21
50
244.7743627182047
51
32.29493208192631
0
ARC
8
0
6
CONTINUOUS
10
327.07
20
63.942656032528305
30
0
40
13.8
50
65.10134676433324
51
114.89865323566676
0
ARC
8
0
6
CONTINUOUS
10
320.33229511627434
20
78.4658573350843
30
0
40
2.21
50
147.90759557827977
51
294.8204440647802
0
LINE
8
0
6
CONTINUOUS
10
318.46
20
79.64
30
0
11
320.36
21
82.7
31
0
0
ARC
8
0
6
CONTINUOUS
10
319.09654477463994
20
83.52691045072018
30
0
40
1.51
50
326.7959194912524
51
266.3341828629023
0
LINE
8
0
6
CONTINUOUS
10
319.0
20
82.02
30
0
11
317.75
21
80.02
31
0
0
ARC
8
0
6
CONTINUOUS
10
320.29848813451235
20
78.43721504042728
30
0
40
3.0
50
148.15689868287348
51
295.0770897344654
0
ARC
8
0
6
CONTINUOUS
10
327.075
20
63.94311692339607
30
0
40
13.0
50
64.94667739708679
51
115.05332260291323
0
ARC
8
0
6
CONTINUOUS
10
341.11799022781236
20
77.23048860938331
30
0
40
0.5100999900019995
50
192.50952221064225
51
349.78200346570674
0
LINE
8
0
6
CONTINUOUS
10
341.62
20
77.14
30
0
11
341.62
21
88.13
31
0
0
LINE
8
0
6
CONTINUOUS
10
341.62
20
88.13
30
0
11
342.82
21
88.13
31
0
0
LINE
8
0
6
CONTINUOUS
10
342.82
20
88.13
30
0
11
342.82
21
87.33
31
0
0
LINE
8
0
6
CONTINUOUS
10
342.82
20
87.33
30
0
11
344.02
21
88.52
31
0
0
LINE
8
0
6
CONTINUOUS
10
344.02
20
88.52
30
0
11
344.02
21
90.75
31
0
0
LINE
8
0
6
CONTINUOUS
10
344.02
20
90.75
30
0
11
342.82
21
91.93
31
0
0
LINE
8
0
6
CONTINUOUS
10
342.82
20
91.93
30
0
11
342.82
21
91.13
31
0
0
LINE
8
0
6
CONTINUOUS
10
342.82
20
91.13
30
0
11
341.62
21
91.13
31
0
0
LINE
8
0
6
CONTINUOUS
10
341.62
20
91.13
30
0
11
341.62
21
98.12
31
0
0
ARC
8
0
6
CONTINUOUS
10
341.1169857220094
20
98.03452406698045
30
0
40
0.5102249493977685
50
9.644005155136025
51
166.9192788415529
0
LINE
8
0
6
CONTINUOUS
10
340.62
20
98.15
30
0
11
340.12
21
89.63
31
0
0
LINE
8
0
6
CONTINUOUS
10
340.12
20
89.63
30
0
11
340.62
21
77.12
31
0
0
LINE
8
0
6
CONTINUOUS
10
341.62
20
88.88
30
0
11
341.62
21
90.38
31
0
0
LINE
8
0
6
CONTINUOUS
10
341.62
20
90.38
30
0
11
343.37
21
90.38
31
0
0
LINE
8
0
6
CONTINUOUS
10
343.37
20
90.38
30
0
11
343.37
21
88.88
31
0
0
LINE
8
0
6
CONTINUOUS
10
343.37
20
88.88
30
0
11
341.62
21
88.88
31
0
0
ENDSEC
0
EOF