0
SECTION
2
HEADER
0
ENDSEC
0
SECTION
2
TABLES
0
TABLE
2
LTYPE
70
2
0
LTYPE
2
CONTINUOUS
70
0
3
Solid line
72
65
73
0
40
0.0
0
ENDTAB
0
TABLE
2
LAYER
70
1
0
LAYER
2
0
70
0
62
7
6
CONTINUOUS
0
ENDTAB
0
ENDSEC
0
SECTION
2
ENTITIES
0
LINE
8
0
6
CONTINUOUS
10
-13.0
20
0.0
30
0
11
-13.0
21
188.5
31
0
0
LINE
8
0
6
CONTINUOUS
10
2.0
20
188.5
30
0
11
2.0
21
0.0
31
0
0
LINE
8
0
6
CONTINUOUS
10
191.46
20
0.0
30
0
11
-13.0
21
0.0
31
0
0
LINE
8
0
6
CONTINUOUS
10
185.81
20
35.5
30
0
11
185.81
21
115.0
31
0
0
ARC
8
0
6
CONTINUOUS
10
185.31
20
115.0
30
0
40
0.5
50
0.0
51
90.0
0
LINE
8
0
6
CONTINUOUS
10
185.31
20
115.5
30
0
11
184.51
21
115.5
31
0
0
ARC
8
0
6
CONTINUOUS
10
184.51
20
115.0
30
0
40
0.5
50
90.0
51
180.0
0
LINE
8
0
6
CONTINUOUS
10
184.01
20
115.0
30
0
11
184.01
21
106.4
31
0
0
LINE
8
0
6
CONTINUOUS
10
184.01
20
106.4
30
0
11
181.51
21
106.4
31
0
0
LINE
8
0
6
CONTINUOUS
10
181.51
20
106.4
30
0
11
181.51
21
107.4
31
0
0
LINE
8
0
6
CONTINUOUS
10
181.51
20
107.4
30
0
11
175.04
21
107.4
31
0
0
LINE
8
0
6
CONTINUOUS
10
175.04
20
107.4
30
0
11
172.32
21
105.84
31
0
0
ARC
8
0
6
CONTINUOUS
10
172.55718213971102
20
105.39983567545507
30
0
40
0.5
50
118.31796639400271
51
271.4689795236807
0
LINE
8
0
6
CONTINUOUS
10
172.57
20
104.9
30
0
11
184.01
21
104.9
31
0
0
LINE
8
0
6
CONTINUOUS
10
184.01
20
104.9
30
0
11
184.01
21
37.3
31
0
0
LINE
8
0
6
CONTINUOUS
10
184.01
20
37.3
30
0
11
162.91
21
37.3
31
0
0
LINE
8
0
6
CONTINUOUS
10
162.91
20
37.3
30
0
11
162.91
21
39.5
31
0
0
ARC
8
0
6
CONTINUOUS
10
160.81
20
39.5
30
0
40
2.1
50
0.0
51
90.0
0
LINE
8
0
6
CONTINUOUS
10
160.81
20
41.6
30
0
11
157.81
21
41.6
31
0
0
ARC
8
0
6
CONTINUOUS
10
157.81
20
39.5
30
0
40
2.1
50
90.0
51
180.0
0
LINE
8
0
6
CONTINUOUS
10
155.71
20
39.5
30
0
11
155.71
21
37.5
31
0
0
LINE
8
0
6
CONTINUOUS
10
155.71
20
37.5
30
0
11
157.51
21
37.5
31
0
0
LINE
8
0
6
CONTINUOUS
10
157.51
20
37.5
30
0
11
157.51
21
39.8
31
0
0
LINE
8
0
6
CONTINUOUS
10
157.51
20
39.8
30
0
11
161.11
21
39.8
31
0
0
LINE
8
0
6
CONTINUOUS
10
161.11
20
39.8
30
0
11
161.11
21
37.61
31
0
0
LINE
8
0
6
CONTINUOUS
10
161.11
20
37.61
30
0
11
160.81
21
36.8
31
0
0
LINE
8
0
6
CONTINUOUS
10
160.81
20
36.8
30
0
11
160.81
21
36.0
31
0
0
ARC
8
0
6
CONTINUOUS
10
161.31
20
36.0
30
0
40
0.5
50
180.0
51
270.0
0
LINE
8
0
6
CONTINUOUS
10
161.31
20
35.5
30
0
11
185.81
21
35.5
31
0
0
LINE
8
0
6
CONTINUOUS
10
157.81
20
39.5
30
0
11
157.81
21
38.5
31
0
0
LINE
8
0
6
CONTINUOUS
10
157.81
20
38.5
30
0
11
159.31
21
38.5
31
0
0
LINE
8
0
6
CONTINUOUS
10
159.31
20
38.5
30
0
11
159.31
21
37.1
31
0
0
LINE
8
0
6
CONTINUOUS
10
159.31
20
37.1
30
0
11
134.51
21
37.1
31
0
0
LINE
8
0
6
CONTINUOUS
10
134.51
20
37.1
30
0
11
134.51
21
49.7
31
0
0
LINE
8
0
6
CONTINUOUS
10
134.51
20
49.7
30
0
11
103.81
21
49.7
31
0
0
LINE
8
0
6
CONTINUOUS
10
103.81
20
49.7
30
0
11
103.81
21
71.7
31
0
0
LINE
8
0
6
CONTINUOUS
10
103.81
20
71.7
30
0
11
134.51
21
71.7
31
0
0
LINE
8
0
6
CONTINUOUS
10
134.51
20
71.7
30
0
11
134.51
21
74.57
31
0
0
LINE
8
0
6
CONTINUOUS
10
134.51
20
74.57
30
0
11
133.57
21
74.82
31
0
0
LINE
8
0
6
CONTINUOUS
10
133.57
20
74.82
30
0
11
133.77
21
78.69
31
0
0
LINE
8
0
6
CONTINUOUS
10
133.77
20
78.69
30
0
11
130.46
21
77.68
31
0
0
LINE
8
0
6
CONTINUOUS
10
130.46
20
77.68
30
0
11
132.27
21
74.7
31
0
0
LINE
8
0
6
CONTINUOUS
10
132.27
20
74.7
30
0
11
126.94
21
74.7
31
0
0
LINE
8
0
6
CONTINUOUS
10
126.94
20
74.7
30
0
11
128.39
21
77.2
31
0
0
LINE
8
0
6
CONTINUOUS
10
128.39
20
77.2
30
0
11
125.85
21
77.2
31
0
0
LINE
8
0
6
CONTINUOUS
10
125.85
20
77.2
30
0
11
124.4
21
74.7
31
0
0
LINE
8
0
6
CONTINUOUS
10
124.4
20
74.7
30
0
11
98.81
21
74.7
31
0
0
LINE
8
0
6
CONTINUOUS
10
98.81
20
74.7
30
0
11
97.36
21
77.2
31
0
0
LINE
8
0
6
CONTINUOUS
10
97.36
20
77.2
30
0
11
94.82
21
77.2
31
0
0
LINE
8
0
6
CONTINUOUS
10
94.82
20
77.2
30
0
11
96.27
21
74.7
31
0
0
LINE
8
0
6
CONTINUOUS
10
96.27
20
74.7
30
0
11
90.94
21
74.7
31
0
0
LINE
8
0
6
CONTINUOUS
10
90.94
20
74.7
30
0
11
92.71
21
77.61
31
0
0
LINE
8
0
6
CONTINUOUS
10
92.71
20
77.61
30
0
11
89.44
21
78.7
31
0
0
LINE
8
0
6
CONTINUOUS
10
89.44
20
78.7
30
0
11
89.65
21
74.7
31
0
0
LINE
8
0
6
CONTINUOUS
10
89.65
20
74.7
30
0
11
87.31
21
74.7
31
0
0
LINE
8
0
6
CONTINUOUS
10
87.31
20
74.7
30
0
11
87.31
21
57.0
31
0
0
LINE
8
0
6
CONTINUOUS
10
87.31
20
57.0
30
0
11
84.31
21
57.0
31
0
0
LINE
8
0
6
CONTINUOUS
10
84.31
20
57.0
30
0
11
84.31
21
58.76
31
0
0
LINE
8
0
6
CONTINUOUS
10
84.31
20
58.76
30
0
11
82.81
21
58.36
31
0
0
LINE
8
0
6
CONTINUOUS
10
82.81
20
58.36
30
0
11
82.81
21
53.64
31
0
0
LINE
8
0
6
CONTINUOUS
10
82.81
20
53.64
30
0
11
84.31
21
53.24
31
0
0
LINE
8
0
6
CONTINUOUS
10
84.31
20
53.24
30
0
11
84.31
21
55.3
31
0
0
LINE
8
0
6
CONTINUOUS
10
84.31
20
55.3
30
0
11
87.31
21
55.3
31
0
0
LINE
8
0
6
CONTINUOUS
10
87.31
20
55.3
30
0
11
87.31
21
37.3
31
0
0
LINE
8
0
6
CONTINUOUS
10
87.31
20
37.3
30
0
11
84.31
21
37.3
31
0
0
LINE
8
0
6
CONTINUOUS
10
84.31
20
37.3
30
0
11
84.31
21
39.36
31
0
0
LINE
8
0
6
CONTINUOUS
10
84.31
20
39.36
30
0
11
82.81
21
38.96
31
0
0
LINE
8
0
6
CONTINUOUS
10
82.81
20
38.96
30
0
11
82.81
21
36.0
31
0
0
ARC
8
0
6
CONTINUOUS
10
83.31
20
36.0
30
0
40
0.5
50
180.0
51
270.0
0
LINE
8
0
6
CONTINUOUS
10
83.31
20
35.5
30
0
11
160.31
21
35.5
31
0
0
ARC
8
0
6
CONTINUOUS
10
160.31
20
36.0
30
0
40
0.5
50
270.0
51
0.0
0
LINE
8
0
6
CONTINUOUS
10
160.81
20
36.0
30
0
11
160.81
21
39.0
31
0
0
ARC
8
0
6
CONTINUOUS
10
160.31
20
39.0
30
0
40
0.5
50
0.0
51
90.0
0
LINE
8
0
6
CONTINUOUS
10
160.31
20
39.5
30
0
11
157.81
21
39.5
31
0
0
LINE
8
0
6
CONTINUOUS
10
132.51
20
37.4
30
0
11
89.31
21
37.4
31
0
0
LINE
8
0
6
CONTINUOUS
10
89.31
20
37.4
30
0
11
89.31
21
71.6
31
0
0
LINE
8
0
6
CONTINUOUS
10
89.31
20
71.6
30
0
11
101.81
21
71.6
31
0
0
LINE
8
0
6
CONTINUOUS
10
101.81
20
71.6
30
0
11
101.81
21
64.5
31
0
0
LINE
8
0
6
CONTINUOUS
10
101.81
20
64.5
30
0
11
100.51
21
63.2
31
0
0
LINE
8
0
6
CONTINUOUS
10
100.51
20
63.2
30
0
11
100.51
21
58.2
31
0
0
LINE
8
0
6
CONTINUOUS
10
100.51
20
58.2
30
0
11
101.81
21
56.9
31
0
0
LINE
8
0
6
CONTINUOUS
10
101.81
20
56.9
30
0
11
101.81
21
47.7
31
0
0
LINE
8
0
6
CONTINUOUS
10
101.81
20
47.7
30
0
11
132.51
21
47.7
31
0
0
LINE
8
0
6
CONTINUOUS
10
132.51
20
47.7
30
0
11
132.51
21
37.4
31
0
0
LINE
8
0
6
CONTINUOUS
10
81.77
20
39.3
30
0
11
84.51
21
39.3
31
0
0
LINE
8
0
6
CONTINUOUS
10
84.51
20
39.3
30
0
11
84.51
21
38.5
31
0
0
LINE
8
0
6
CONTINUOUS
10
84.51
20
38.5
30
0
11
86.8
21
39.35
31
0
0
LINE
8
0
6
CONTINUOUS
10
86.8
20
39.35
30
0
11
86.8
21
40.3
31
0
0
LINE
8
0
6
CONTINUOUS
10
86.8
20
40.3
30
0
11
81.8
21
40.3
31
0
0
ARC
8
0
6
CONTINUOUS
10
81.80000000000001
20
37.809999999999995
30
0
40
2.49
50
90.00000000000033
51
179.99999999999986
0
LINE
8
0
6
CONTINUOUS
10
79.31
20
37.81
30
0
11
79.31
21
36.8
31
0
0
LINE
8
0
6
CONTINUOUS
10
79.31
20
36.8
30
0
11
62.31
21
36.8
31
0
0
LINE
8
0
6
CONTINUOUS
10
62.31
20
36.8
30
0
11
62.11
21
52.0
31
0
0
LINE
8
0
6
CONTINUOUS
10
62.11
20
52.0
30
0
11
86.8
21
52.3
31
0
0
LINE
8
0
6
CONTINUOUS
10
86.8
20
52.3
30
0
11
86.8
21
53.76
31
0
0
LINE
8
0
6
CONTINUOUS
10
86.8
20
53.76
30
0
11
84.51
21
55.08
31
0
0
LINE
8
0
6
CONTINUOUS
10
84.51
20
55.08
30
0
11
84.51
21
53.3
31
0
0
LINE
8
0
6
CONTINUOUS
10
84.51
20
53.3
30
0
11
62.11
21
53.3
31
0
0
LINE
8
0
6
CONTINUOUS
10
62.11
20
53.3
30
0
11
62.11
21
60.1
31
0
0
LINE
8
0
6
CONTINUOUS
10
62.11
20
60.1
30
0
11
60.81
21
60.1
31
0
0
LINE
8
0
6
CONTINUOUS
10
60.81
20
60.1
30
0
11
60.81
21
36.0
31
0
0
ARC
8
0
6
CONTINUOUS
10
61.31
20
36.0
30
0
40
0.5
50
180.0
51
270.0
0
LINE
8
0
6
CONTINUOUS
10
61.31
20
35.5
30
0
11
82.31
21
35.5
31
0
0
ARC
8
0
6
CONTINUOUS
10
82.31
20
36.0
30
0
40
0.5
50
270.0
51
0.0
0
LINE
8
0
6
CONTINUOUS
10
82.81
20
36.0
30
0
11
82.81
21
36.8
31
0
0
LINE
8
0
6
CONTINUOUS
10
82.81
20
36.8
30
0
11
80.31
21
36.8
31
0
0
LINE
8
0
6
CONTINUOUS
10
80.31
20
36.8
30
0
11
80.31
21
37.84
31
0
0
ARC
8
0
6
CONTINUOUS
10
81.779966215445
20
37.83003378455499
30
0
40
1.47
50
90.38845337231179
51
179.61154662768794
0
LINE
8
0
6
CONTINUOUS
10
62.61
20
108.5
30
0
11
65.31
21
108.5
31
0
0
LINE
8
0
6
CONTINUOUS
10
65.31
20
108.5
30
0
11
65.31
21
109.5
31
0
0
LINE
8
0
6
CONTINUOUS
10
65.31
20
109.5
30
0
11
63.81
21
109.5
31
0
0
LINE
8
0
6
CONTINUOUS
10
63.81
20
109.5
30
0
11
63.81
21
110.9
31
0
0
LINE
8
0
6
CONTINUOUS
10
63.81
20
110.9
30
0
11
71.31
21
110.9
31
0
0
LINE
8
0
6
CONTINUOUS
10
71.31
20
110.9
30
0
11
71.31
21
109.5
31
0
0
LINE
8
0
6
CONTINUOUS
10
71.31
20
109.5
30
0
11
69.81
21
109.5
31
0
0
LINE
8
0
6
CONTINUOUS
10
69.81
20
109.5
30
0
11
69.81
21
108.5
31
0
0
LINE
8
0
6
CONTINUOUS
10
69.81
20
108.5
30
0
11
95.39
21
108.5
31
0
0
LINE
8
0
6
CONTINUOUS
10
95.39
20
108.5
30
0
11
95.8
21
110.0
31
0
0
LINE
8
0
6
CONTINUOUS
10
95.8
20
110.0
30
0
11
94.81
21
110.0
31
0
0
LINE
8
0
6
CONTINUOUS
10
94.81
20
110.0
30
0
11
94.81
21
113.0
31
0
0
LINE
8
0
6
CONTINUOUS
10
94.81
20
113.0
30
0
11
97.11
21
113.0
31
0
0
LINE
8
0
6
CONTINUOUS
10
97.11
20
113.0
30
0
11
97.11
21
114.2
31
0
0
LINE
8
0
6
CONTINUOUS
10
97.11
20
114.2
30
0
11
94.81
21
114.2
31
0
0
LINE
8
0
6
CONTINUOUS
10
94.81
20
114.2
30
0
11
94.81
21
116.9
31
0
0
LINE
8
0
6
CONTINUOUS
10
94.81
20
116.9
30
0
11
110.41
21
116.9
31
0
0
LINE
8
0
6
CONTINUOUS
10
110.41
20
116.9
30
0
11
110.41
21
114.2
31
0
0
LINE
8
0
6
CONTINUOUS
10
110.41
20
114.2
30
0
11
108.11
21
114.2
31
0
0
LINE
8
0
6
CONTINUOUS
10
108.11
20
114.2
30
0
11
108.11
21
113.0
31
0
0
LINE
8
0
6
CONTINUOUS
10
108.11
20
113.0
30
0
11
110.41
21
113.0
31
0
0
LINE
8
0
6
CONTINUOUS
10
110.41
20
113.0
30
0
11
110.41
21
110.0
31
0
0
LINE
8
0
6
CONTINUOUS
10
110.41
20
110.0
30
0
11
109.41
21
110.0
31
0
0
LINE
8
0
6
CONTINUOUS
10
109.41
20
110.0
30
0
11
109.82
21
108.5
31
0
0
LINE
8
0
6
CONTINUOUS
10
109.82
20
108.5
30
0
11
127.81
21
108.5
31
0
0
ARC
8
0
6
CONTINUOUS
10
127.71951139061667
20
109.00200977218766
30
0
40
0.5100999900019995
50
280.21799653429457
51
77.49047778935586
0
LINE
8
0
6
CONTINUOUS
10
127.83
20
109.5
30
0
11
116.11
21
110.0
31
0
0
LINE
8
0
6
CONTINUOUS
10
116.11
20
110.0
30
0
11
116.11
21
112.11
31
0
0
LINE
8
0
6
CONTINUOUS
10
116.11
20
112.11
30
0
11
119.4
21
111.74
31
0
0
ARC
8
0
6
CONTINUOUS
10
119.57679744019713
20
113.25975085627208
30
0
40
1.53
50
263.36442683671663
51
59.64467074823836
0
ARC
8
0
6
CONTINUOUS
10
120.60514701644345
20
115.00999999999999
30
0
40
0.5
50
120.68341710897519
51
239.31658289102398
0
ARC
8
0
6
CONTINUOUS
10
119.57679744019713
20
116.76024914372792
30
0
40
1.53
50
300.35532925176165
51
96.63557316328338
0
LINE
8
0
6
CONTINUOUS
10
119.4
20
118.28
30
0
11
116.11
21
117.91
31
0
0
LINE
8
0
6
CONTINUOUS
10
116.11
20
117.91
30
0
11
116.11
21
121.5
31
0
0
LINE
8
0
6
CONTINUOUS
10
116.11
20
121.5
30
0
11
85.81
21
121.5
31
0
0
LINE
8
0
6
CONTINUOUS
10
85.81
20
121.5
30
0
11
85.81
21
125.9
31
0
0
LINE
8
0
6
CONTINUOUS
10
85.81
20
125.9
30
0
11
96.01
21
125.9
31
0
0
LINE
8
0
6
CONTINUOUS
10
96.01
20
125.9
30
0
11
96.01
21
130.4
31
0
0
LINE
8
0
6
CONTINUOUS
10
96.01
20
130.4
30
0
11
70.81
21
130.4
31
0
0
LINE
8
0
6
CONTINUOUS
10
70.81
20
130.4
30
0
11
70.81
21
119.2
31
0
0
LINE
8
0
6
CONTINUOUS
10
70.81
20
119.2
30
0
11
75.11
21
119.2
31
0
0
LINE
8
0
6
CONTINUOUS
10
75.11
20
119.2
30
0
11
75.11
21
116.5
31
0
0
LINE
8
0
6
CONTINUOUS
10
75.11
20
116.5
30
0
11
64.91
21
116.5
31
0
0
LINE
8
0
6
CONTINUOUS
10
64.91
20
116.5
30
0
11
64.91
21
117.7
31
0
0
LINE
8
0
6
CONTINUOUS
10
64.91
20
117.7
30
0
11
62.61
21
116.5
31
0
0
LINE
8
0
6
CONTINUOUS
10
62.61
20
116.5
30
0
11
62.61
21
108.5
31
0
0
LINE
8
0
6
CONTINUOUS
10
116.11
20
117.31
30
0
11
119.47
21
117.69
31
0
0
ARC
8
0
6
CONTINUOUS
10
119.58887563486313
20
116.76762882556105
30
0
40
0.93
50
299.72467126357765
51
97.34382507255323
0
ARC
8
0
6
CONTINUOUS
10
120.60452682532048
20
115.00999999999999
30
0
40
1.1
50
120.27264131890985
51
239.7273586810898
0
ARC
8
0
6
CONTINUOUS
10
119.58887563486313
20
113.25237117443893
30
0
40
0.93
50
262.65617492744667
51
60.275328736422786
0
LINE
8
0
6
CONTINUOUS
10
119.47
20
112.33
30
0
11
116.11
21
112.71
31
0
0
LINE
8
0
6
CONTINUOUS
10
116.11
20
112.71
30
0
11
116.11
21
117.31
31
0
0
LINE
8
0
6
CONTINUOUS
10
63.81
20
115.3
30
0
11
84.61
21
115.3
31
0
0
LINE
8
0
6
CONTINUOUS
10
84.61
20
115.3
30
0
11
84.61
21
109.7
31
0
0
LINE
8
0
6
CONTINUOUS
10
84.61
20
109.7
30
0
11
72.51
21
109.7
31
0
0
LINE
8
0
6
CONTINUOUS
10
72.51
20
109.7
30
0
11
72.51
21
112.1
31
0
0
LINE
8
0
6
CONTINUOUS
10
72.51
20
112.1
30
0
11
63.81
21
112.1
31
0
0
LINE
8
0
6
CONTINUOUS
10
63.81
20
112.1
30
0
11
63.81
21
115.3
31
0
0
LINE
8
0
6
CONTINUOUS
10
76.31
20
116.1
30
0
11
76.31
21
120.4
31
0
0
LINE
8
0
6
CONTINUOUS
10
76.31
20
120.4
30
0
11
72.01
21
120.4
31
0
0
LINE
8
0
6
CONTINUOUS
10
72.01
20
120.4
30
0
11
72.01
21
129.2
31
0
0
LINE
8
0
6
CONTINUOUS
10
72.01
20
129.2
30
0
11
94.81
21
129.2
31
0
0
LINE
8
0
6
CONTINUOUS
10
94.81
20
129.2
30
0
11
94.81
21
127.1
31
0
0
LINE
8
0
6
CONTINUOUS
10
94.81
20
127.1
30
0
11
84.61
21
127.1
31
0
0
LINE
8
0
6
CONTINUOUS
10
84.61
20
127.1
30
0
11
84.61
21
116.1
31
0
0
LINE
8
0
6
CONTINUOUS
10
84.61
20
116.1
30
0
11
76.31
21
116.1
31
0
0
LINE
8
0
6
CONTINUOUS
10
93.61
20
120.3
30
0
11
93.61
21
109.7
31
0
0
LINE
8
0
6
CONTINUOUS
10
93.61
20
109.7
30
0
11
85.41
21
109.7
31
0
0
LINE
8
0
6
CONTINUOUS
10
85.41
20
109.7
30
0
11
85.41
21
120.3
31
0
0
LINE
8
0
6
CONTINUOUS
10
85.41
20
120.3
30
0
11
93.61
21
120.3
31
0
0
LINE
8
0
6
CONTINUOUS
10
110.81
20
120.3
30
0
11
110.81
21
118.1
31
0
0
LINE
8
0
6
CONTINUOUS
10
110.81
20
118.1
30
0
11
94.41
21
118.1
31
0
0
LINE
8
0
6
CONTINUOUS
10
94.41
20
118.1
30
0
11
94.41
21
120.3
31
0
0
LINE
8
0
6
CONTINUOUS
10
94.41
20
120.3
30
0
11
110.81
21
120.3
31
0
0
LINE
8
0
6
CONTINUOUS
10
115.31
20
109.7
30
0
11
111.61
21
109.7
31
0
0
LINE
8
0
6
CONTINUOUS
10
111.61
20
109.7
30
0
11
111.61
21
120.3
31
0
0
LINE
8
0
6
CONTINUOUS
10
111.61
20
120.3
30
0
11
115.31
21
120.3
31
0
0
LINE
8
0
6
CONTINUOUS
10
115.31
20
120.3
30
0
11
115.31
21
109.7
31
0
0
LINE
8
0
6
CONTINUOUS
10
184.01
20
115.5
30
0
11
181.31
21
115.5
31
0
0
LINE
8
0
6
CONTINUOUS
10
181.31
20
115.5
30
0
11
181.31
21
114.5
31
0
0
LINE
8
0
6
CONTINUOUS
10
181.31
20
114.5
30
0
11
182.81
21
114.5
31
0
0
LINE
8
0
6
CONTINUOUS
10
182.81
20
114.5
30
0
11
182.81
21
113.1
31
0
0
LINE
8
0
6
CONTINUOUS
10
182.81
20
113.1
30
0
11
175.31
21
113.1
31
0
0
LINE
8
0
6
CONTINUOUS
10
175.31
20
113.1
30
0
11
175.31
21
114.5
31
0
0
LINE
8
0
6
CONTINUOUS
10
175.31
20
114.5
30
0
11
176.81
21
114.5
31
0
0
LINE
8
0
6
CONTINUOUS
10
176.81
20
114.5
30
0
11
176.81
21
115.5
31
0
0
LINE
8
0
6
CONTINUOUS
10
176.81
20
115.5
30
0
11
151.22
21
115.5
31
0
0
LINE
8
0
6
CONTINUOUS
10
151.22
20
115.5
30
0
11
150.81
21
114.0
31
0
0
LINE
8
0
6
CONTINUOUS
10
150.81
20
114.0
30
0
11
151.81
21
114.0
31
0
0
LINE
8
0
6
CONTINUOUS
10
151.81
20
114.0
30
0
11
151.81
21
111.0
31
0
0
LINE
8
0
6
CONTINUOUS
10
151.81
20
111.0
30
0
11
149.51
21
111.0
31
0
0
LINE
8
0
6
CONTINUOUS
10
149.51
20
111.0
30
0
11
149.51
21
109.8
31
0
0
LINE
8
0
6
CONTINUOUS
10
149.51
20
109.8
30
0
11
151.81
21
109.8
31
0
0
LINE
8
0
6
CONTINUOUS
10
151.81
20
109.8
30
0
11
151.81
21
107.1
31
0
0
LINE
8
0
6
CONTINUOUS
10
151.81
20
107.1
30
0
11
136.21
21
107.1
31
0
0
LINE
8
0
6
CONTINUOUS
10
136.21
20
107.1
30
0
11
136.21
21
109.8
31
0
0
LINE
8
0
6
CONTINUOUS
10
136.21
20
109.8
30
0
11
138.51
21
109.8
31
0
0
LINE
8
0
6
CONTINUOUS
10
138.51
20
109.8
30
0
11
138.51
21
111.0
31
0
0
LINE
8
0
6
CONTINUOUS
10
138.51
20
111.0
30
0
11
136.21
21
111.0
31
0
0
LINE
8
0
6
CONTINUOUS
10
136.21
20
111.0
30
0
11
136.21
21
114.0
31
0
0
LINE
8
0
6
CONTINUOUS
10
136.21
20
114.0
30
0
11
137.2
21
114.0
31
0
0
LINE
8
0
6
CONTINUOUS
10
137.2
20
114.0
30
0
11
136.79
21
115.5
31
0
0
LINE
8
0
6
CONTINUOUS
10
136.79
20
115.5
30
0
11
118.81
21
115.5
31
0
0
ARC
8
0
6
CONTINUOUS
10
118.89547593301955
20
114.99698572200941
30
0
40
0.5102249493977685
50
99.64400515513603
51
256.9192788415529
0
LINE
8
0
6
CONTINUOUS
10
118.78
20
114.5
30
0
11
130.51
21
114.0
31
0
0
LINE
8
0
6
CONTINUOUS
10
130.51
20
114.0
30
0
11
130.51
21
111.9
31
0
0
LINE
8
0
6
CONTINUOUS
10
130.51
20
111.9
30
0
11
127.21
21
112.27
31
0
0
ARC
8
0
6
CONTINUOUS
10
127.0332025598029
20
110.7502491437279
30
0
40
1.53
50
83.36442683671774
51
239.64467074823688
0
ARC
8
0
6
CONTINUOUS
10
126.00485298355656
20
109.0
30
0
40
0.5
50
300.6834171089738
51
59.31658289102622
0
ARC
8
0
6
CONTINUOUS
10
127.0110163038663
20
107.23700543462209
30
0
40
1.53
50
119.3971442215206
51
277.472753424323
0
LINE
8
0
6
CONTINUOUS
10
127.21
20
105.72
30
0
11
130.51
21
106.1
31
0
0
LINE
8
0
6
CONTINUOUS
10
130.51
20
106.1
30
0
11
130.51
21
102.5
31
0
0
LINE
8
0
6
CONTINUOUS
10
130.51
20
102.5
30
0
11
160.81
21
102.5
31
0
0
LINE
8
0
6
CONTINUOUS
10
160.81
20
102.5
30
0
11
160.81
21
98.1
31
0
0
LINE
8
0
6
CONTINUOUS
10
160.81
20
98.1
30
0
11
150.61
21
98.1
31
0
0
LINE
8
0
6
CONTINUOUS
10
150.61
20
98.1
30
0
11
150.61
21
93.6
31
0
0
LINE
8
0
6
CONTINUOUS
10
150.61
20
93.6
30
0
11
175.81
21
93.6
31
0
0
LINE
8
0
6
CONTINUOUS
10
175.81
20
93.6
30
0
11
175.81
21
104.8
31
0
0
LINE
8
0
6
CONTINUOUS
10
175.81
20
104.8
30
0
11
171.51
21
104.8
31
0
0
LINE
8
0
6
CONTINUOUS
10
171.51
20
104.8
30
0
11
171.51
21
107.5
31
0
0
LINE
8
0
6
CONTINUOUS
10
171.51
20
107.5
30
0
11
181.71
21
107.5
31
0
0
LINE
8
0
6
CONTINUOUS
10
181.71
20
107.5
30
0
11
181.71
21
106.31
31
0
0
LINE
8
0
6
CONTINUOUS
10
181.71
20
106.31
30
0
11
184.01
21
107.5
31
0
0
LINE
8
0
6
CONTINUOUS
10
184.01
20
107.5
30
0
11
184.01
21
115.5
31
0
0
LINE
8
0
6
CONTINUOUS
10
130.51
20
106.7
30
0
11
127.14
21
106.32
31
0
0
ARC
8
0
6
CONTINUOUS
10
127.02112436513686
20
107.24237117443894
30
0
40
0.93
50
119.7246712635769
51
277.34382507255407
0
ARC
8
0
6
CONTINUOUS
10
125.99699467142841
20
108.995
30
0
40
1.1
50
300.7853370565949
51
59.2146629434047
0
ARC
8
0
6
CONTINUOUS
10
127.02112436513686
20
110.74762882556107
30
0
40
0.93
50
82.65617492744579
51
240.27532873642355
0
LINE
8
0
6
CONTINUOUS
10
127.14
20
111.67
30
0
11
130.51
21
111.29
31
0
0
LINE
8
0
6
CONTINUOUS
10
130.51
20
111.29
30
0
11
130.51
21
106.7
31
0
0
LINE
8
0
6
CONTINUOUS
10
182.81
20
108.7
30
0
11
162.01
21
108.7
31
0
0
LINE
8
0
6
CONTINUOUS
10
162.01
20
108.7
30
0
11
162.01
21
114.3
31
0
0
LINE
8
0
6
CONTINUOUS
10
162.01
20
114.3
30
0
11
174.11
21
114.3
31
0
0
LINE
8
0
6
CONTINUOUS
10
174.11
20
114.3
30
0
11
174.11
21
111.9
31
0
0
LINE
8
0
6
CONTINUOUS
10
174.11
20
111.9
30
0
11
182.81
21
111.9
31
0
0
LINE
8
0
6
CONTINUOUS
10
182.81
20
111.9
30
0
11
182.81
21
108.7
31
0
0
LINE
8
0
6
CONTINUOUS
10
170.31
20
107.9
30
0
11
170.31
21
103.6
31
0
0
LINE
8
0
6
CONTINUOUS
10
170.31
20
103.6
30
0
11
174.61
21
103.6
31
0
0
LINE
8
0
6
CONTINUOUS
10
174.61
20
103.6
30
0
11
174.61
21
94.8
31
0
0
LINE
8
0
6
CONTINUOUS
10
174.61
20
94.8
30
0
11
151.81
21
94.8
31
0
0
LINE
8
0
6
CONTINUOUS
10
151.81
20
94.8
30
0
11
151.81
21
96.9
31
0
0
LINE
8
0
6
CONTINUOUS
10
151.81
20
96.9
30
0
11
162.01
21
96.9
31
0
0
LINE
8
0
6
CONTINUOUS
10
162.01
20
96.9
30
0
11
162.01
21
107.9
31
0
0
LINE
8
0
6
CONTINUOUS
10
162.01
20
107.9
30
0
11
170.31
21
107.9
31
0
0
LINE
8
0
6
CONTINUOUS
10
153.01
20
103.7
30
0
11
153.01
21
114.3
31
0
0
LINE
8
0
6
CONTINUOUS
10
153.01
20
114.3
30
0
11
161.21
21
114.3
31
0
0
LINE
8
0
6
CONTINUOUS
10
161.21
20
114.3
30
0
11
161.21
21
103.7
31
0
0
LINE
8
0
6
CONTINUOUS
10
161.21
20
103.7
30
0
11
153.01
21
103.7
31
0
0
LINE
8
0
6
CONTINUOUS
10
135.81
20
103.7
30
0
11
135.81
21
105.9
31
0
0
LINE
8
0
6
CONTINUOUS
10
135.81
20
105.9
30
0
11
152.21
21
105.9
31
0
0
LINE
8
0
6
CONTINUOUS
10
152.21
20
105.9
30
0
11
152.21
21
103.7
31
0
0
LINE
8
0
6
CONTINUOUS
10
152.21
20
103.7
30
0
11
135.81
21
103.7
31
0
0
LINE
8
0
6
CONTINUOUS
10
131.31
20
114.3
30
0
11
135.01
21
114.3
31
0
0
LINE
8
0
6
CONTINUOUS
10
135.01
20
114.3
30
0
11
135.01
21
103.7
31
0
0
LINE
8
0
6
CONTINUOUS
10
135.01
20
103.7
30
0
11
131.31
21
103.7
31
0
0
LINE
8
0
6
CONTINUOUS
10
131.31
20
103.7
30
0
11
131.31
21
114.3
31
0
0
LINE
8
0
6
CONTINUOUS
10
71.01
20
100.7
30
0
11
69.31
21
109.7
31
0
0
LINE
8
0
6
CONTINUOUS
10
69.31
20
109.7
30
0
11
71.06
21
109.7
31
0
0
LINE
8
0
6
CONTINUOUS
10
71.06
20
109.7
30
0
11
71.06
21
110.7
31
0
0
LINE
8
0
6
CONTINUOUS
10
71.06
20
110.7
30
0
11
64.06
21
110.7
31
0
0
LINE
8
0
6
CONTINUOUS
10
64.06
20
110.7
30
0
11
64.06
21
109.7
31
0
0
LINE
8
0
6
CONTINUOUS
10
64.06
20
109.7
30
0
11
65.81
21
109.7
31
0
0
LINE
8
0
6
CONTINUOUS
10
65.81
20
109.7
30
0
11
64.16
21
100.7
31
0
0
LINE
8
0
6
CONTINUOUS
10
64.16
20
100.7
30
0
11
71.01
21
100.7
31
0
0
LINE
8
0
6
CONTINUOUS
10
175.61
20
123.3
30
0
11
177.31
21
114.3
31
0
0
LINE
8
0
6
CONTINUOUS
10
177.31
20
114.3
30
0
11
175.56
21
114.3
31
0
0
LINE
8
0
6
CONTINUOUS
10
175.56
20
114.3
30
0
11
175.56
21
113.3
31
0
0
LINE
8
0
6
CONTINUOUS
10
175.56
20
113.3
30
0
11
182.56
21
113.3
31
0
0
LINE
8
0
6
CONTINUOUS
10
182.56
20
113.3
30
0
11
182.56
21
114.3
31
0
0
LINE
8
0
6
CONTINUOUS
10
182.56
20
114.3
30
0
11
180.81
21
114.3
31
0
0
LINE
8
0
6
CONTINUOUS
10
180.81
20
114.3
30
0
11
182.46
21
123.3
31
0
0
LINE
8
0
6
CONTINUOUS
10
182.46
20
123.3
30
0
11
175.61
21
123.3
31
0
0
ARC
8
0
6
CONTINUOUS
10
86.31
20
122.0
30
0
40
0.5
50
180.0
51
270.0
0
LINE
8
0
6
CONTINUOUS
10
86.31
20
121.5
30
0
11
163.31
21
121.5
31
0
0
ARC
8
0
6
CONTINUOUS
10
163.31
20
122.0
30
0
40
0.5
50
270.0
51
0.0
0
LINE
8
0
6
CONTINUOUS
10
163.81
20
122.0
30
0
11
163.81
21
124.96
31
0
0
LINE
8
0
6
CONTINUOUS
10
163.81
20
124.96
30
0
11
162.31
21
125.36
31
0
0
LINE
8
0
6
CONTINUOUS
10
162.31
20
125.36
30
0
11
162.31
21
123.3
31
0
0
LINE
8
0
6
CONTINUOUS
10
162.31
20
123.3
30
0
11
159.31
21
123.3
31
0
0
LINE
8
0
6
CONTINUOUS
10
159.31
20
123.3
30
0
11
159.31
21
141.3
31
0
0
LINE
8
0
6
CONTINUOUS
10
159.31
20
141.3
30
0
11
162.31
21
141.3
31
0
0
LINE
8
0
6
CONTINUOUS
10
162.31
20
141.3
30
0
11
162.31
21
139.24
31
0
0
LINE
8
0
6
CONTINUOUS
10
162.31
20
139.24
30
0
11
163.81
21
139.64
31
0
0
LINE
8
0
6
CONTINUOUS
10
163.81
20
139.64
30
0
11
184.51
21
139.64
31
0
0
LINE
8
0
6
CONTINUOUS
10
184.51
20
139.64
30
0
11
184.51
21
141.3
31
0
0
LINE
8
0
6
CONTINUOUS
10
184.51
20
141.3
30
0
11
163.81
21
141.3
31
0
0
LINE
8
0
6
CONTINUOUS
10
163.81
20
141.3
30
0
11
163.81
21
143.31
31
0
0
LINE
8
0
6
CONTINUOUS
10
163.81
20
143.31
30
0
11
162.31
21
143.31
31
0
0
LINE
8
0
6
CONTINUOUS
10
162.31
20
143.31
30
0
11
162.31
21
142.51
31
0
0
LINE
8
0
6
CONTINUOUS
10
162.31
20
142.51
30
0
11
159.31
21
142.51
31
0
0
LINE
8
0
6
CONTINUOUS
10
159.31
20
142.51
30
0
11
159.31
21
160.7
31
0
0
LINE
8
0
6
CONTINUOUS
10
159.31
20
160.7
30
0
11
156.96
21
160.7
31
0
0
LINE
8
0
6
CONTINUOUS
10
156.96
20
160.7
30
0
11
157.17
21
164.7
31
0
0
LINE
8
0
6
CONTINUOUS
10
157.17
20
164.7
30
0
11
153.9
21
163.61
31
0
0
LINE
8
0
6
CONTINUOUS
10
153.9
20
163.61
30
0
11
155.67
21
160.7
31
0
0
LINE
8
0
6
CONTINUOUS
10
155.67
20
160.7
30
0
11
150.34
21
160.7
31
0
0
LINE
8
0
6
CONTINUOUS
10
150.34
20
160.7
30
0
11
151.79
21
163.2
31
0
0
LINE
8
0
6
CONTINUOUS
10
151.79
20
163.2
30
0
11
149.25
21
163.2
31
0
0
LINE
8
0
6
CONTINUOUS
10
149.25
20
163.2
30
0
11
147.8
21
160.7
31
0
0
LINE
8
0
6
CONTINUOUS
10
147.8
20
160.7
30
0
11
122.21
21
160.7
31
0
0
LINE
8
0
6
CONTINUOUS
10
122.21
20
160.7
30
0
11
120.76
21
163.2
31
0
0
LINE
8
0
6
CONTINUOUS
10
120.76
20
163.2
30
0
11
118.22
21
163.2
31
0
0
LINE
8
0
6
CONTINUOUS
10
118.22
20
163.2
30
0
11
119.67
21
160.7
31
0
0
LINE
8
0
6
CONTINUOUS
10
119.67
20
160.7
30
0
11
114.34
21
160.7
31
0
0
LINE
8
0
6
CONTINUOUS
10
114.34
20
160.7
30
0
11
115.88
21
163.24
31
0
0
LINE
8
0
6
CONTINUOUS
10
115.88
20
163.24
30
0
11
115.88
21
164.04
31
0
0
LINE
8
0
6
CONTINUOUS
10
115.88
20
164.04
30
0
11
112.84
21
164.69
31
0
0
LINE
8
0
6
CONTINUOUS
10
112.84
20
164.69
30
0
11
113.04
21
160.82
31
0
0
LINE
8
0
6
CONTINUOUS
10
113.04
20
160.82
30
0
11
112.11
21
160.57
31
0
0
LINE
8
0
6
CONTINUOUS
10
112.11
20
160.57
30
0
11
112.11
21
157.7
31
0
0
LINE
8
0
6
CONTINUOUS
10
112.11
20
157.7
30
0
11
142.81
21
157.7
31
0
0
LINE
8
0
6
CONTINUOUS
10
142.81
20
157.7
30
0
11
142.81
21
135.7
31
0
0
LINE
8
0
6
CONTINUOUS
10
142.81
20
135.7
30
0
11
112.11
21
135.7
31
0
0
LINE
8
0
6
CONTINUOUS
10
112.11
20
135.7
30
0
11
112.11
21
123.4
31
0
0
LINE
8
0
6
CONTINUOUS
10
112.11
20
123.4
30
0
11
97.01
21
123.4
31
0
0
LINE
8
0
6
CONTINUOUS
10
97.01
20
123.4
30
0
11
97.01
21
124.6
31
0
0
LINE
8
0
6
CONTINUOUS
10
97.01
20
124.6
30
0
11
98.01
21
124.6
31
0
0
LINE
8
0
6
CONTINUOUS
10
98.01
20
124.6
30
0
11
98.01
21
125.5
31
0
0
LINE
8
0
6
CONTINUOUS
10
98.01
20
125.5
30
0
11
93.21
21
125.5
31
0
0
LINE
8
0
6
CONTINUOUS
10
93.21
20
125.5
30
0
11
93.21
21
124.5
31
0
0
LINE
8
0
6
CONTINUOUS
10
93.21
20
124.5
30
0
11
94.71
21
124.5
31
0
0
LINE
8
0
6
CONTINUOUS
10
94.71
20
124.5
30
0
11
94.71
21
123.1
31
0
0
LINE
8
0
6
CONTINUOUS
10
94.71
20
123.1
30
0
11
87.31
21
123.1
31
0
0
LINE
8
0
6
CONTINUOUS
10
87.31
20
123.1
30
0
11
87.31
21
124.5
31
0
0
LINE
8
0
6
CONTINUOUS
10
87.31
20
124.5
30
0
11
88.81
21
124.5
31
0
0
LINE
8
0
6
CONTINUOUS
10
88.81
20
124.5
30
0
11
88.81
21
125.5
31
0
0
LINE
8
0
6
CONTINUOUS
10
88.81
20
125.5
30
0
11
86.31
21
125.5
31
0
0
ARC
8
0
6
CONTINUOUS
10
86.31
20
125.0
30
0
40
0.5
50
90.0
51
180.0
0
LINE
8
0
6
CONTINUOUS
10
85.81
20
125.0
30
0
11
85.81
21
122.0
31
0
0
LINE
8
0
6
CONTINUOUS
10
157.31
20
123.4
30
0
11
114.11
21
123.4
31
0
0
LINE
8
0
6
CONTINUOUS
10
114.11
20
123.4
30
0
11
114.11
21
133.7
31
0
0
LINE
8
0
6
CONTINUOUS
10
114.11
20
133.7
30
0
11
144.81
21
133.7
31
0
0
LINE
8
0
6
CONTINUOUS
10
144.81
20
133.7
30
0
11
144.81
21
157.6
31
0
0
LINE
8
0
6
CONTINUOUS
10
144.81
20
157.6
30
0
11
157.31
21
157.6
31
0
0
LINE
8
0
6
CONTINUOUS
10
157.31
20
157.6
30
0
11
157.31
21
123.4
31
0
0
LINE
8
0
6
CONTINUOUS
10
166.31
20
122.8
30
0
11
163.81
21
122.8
31
0
0
LINE
8
0
6
CONTINUOUS
10
163.81
20
122.8
30
0
11
163.81
21
122.0
31
0
0
ARC
8
0
6
CONTINUOUS
10
164.31
20
122.0
30
0
40
0.5
50
180.0
51
270.0
0
LINE
8
0
6
CONTINUOUS
10
164.31
20
121.5
30
0
11
185.31
21
121.5
31
0
0
ARC
8
0
6
CONTINUOUS
10
185.31
20
122.0
30
0
40
0.5
50
270.0
51
0.0
0
LINE
8
0
6
CONTINUOUS
10
185.81
20
122.0
30
0
11
185.81
21
143.31
31
0
0
LINE
8
0
6
CONTINUOUS
10
185.81
20
143.31
30
0
11
184.51
21
143.31
31
0
0
LINE
8
0
6
CONTINUOUS
10
184.51
20
143.31
30
0
11
184.51
21
139.3
31
0
0
LINE
8
0
6
CONTINUOUS
10
184.51
20
139.3
30
0
11
162.11
21
139.3
31
0
0
LINE
8
0
6
CONTINUOUS
10
162.11
20
139.3
30
0
11
162.11
21
141.08
31
0
0
LINE
8
0
6
CONTINUOUS
10
162.11
20
141.08
30
0
11
159.81
21
139.76
31
0
0
LINE
8
0
6
CONTINUOUS
10
159.81
20
139.76
30
0
11
159.81
21
138.3
31
0
0
LINE
8
0
6
CONTINUOUS
10
159.81
20
138.3
30
0
11
184.51
21
138.0
31
0
0
LINE
8
0
6
CONTINUOUS
10
184.51
20
138.0
30
0
11
184.3
21
122.8
31
0
0
LINE
8
0
6
CONTINUOUS
10
184.3
20
122.8
30
0
11
167.31
21
122.8
31
0
0
LINE
8
0
6
CONTINUOUS
10
167.31
20
122.8
30
0
11
167.31
21
123.81
31
0
0
ARC
8
0
6
CONTINUOUS
10
164.82000000008097
20
123.81002008040258
30
0
40
2.49
50
359.9995379428439
51
90.2301041525965
0
LINE
8
0
6
CONTINUOUS
10
164.81
20
126.3
30
0
11
159.81
21
126.3
31
0
0
LINE
8
0
6
CONTINUOUS
10
159.81
20
126.3
30
0
11
159.81
21
125.35
31
0
0
LINE
8
0
6
CONTINUOUS
10
159.81
20
125.35
30
0
11
162.11
21
124.5
31
0
0
LINE
8
0
6
CONTINUOUS
10
162.11
20
124.5
30
0
11
162.11
21
125.3
31
0
0
LINE
8
0
6
CONTINUOUS
10
162.11
20
125.3
30
0
11
164.84
21
125.3
31
0
0
ARC
8
0
6
CONTINUOUS
10
164.84003401399627
20
123.83000000039351
30
0
40
1.47
50
0.38977019850703015
51
90.00132575403458
0
LINE
8
0
6
CONTINUOUS
10
166.31
20
123.84
30
0
11
166.31
21
122.8
31
0
0
ARC
8
0
6
CONTINUOUS
10
86.31
20
185.0
30
0
40
0.5
50
180.0
51
270.0
0
LINE
8
0
6
CONTINUOUS
10
86.31
20
184.5
30
0
11
88.81
21
184.5
31
0
0
LINE
8
0
6
CONTINUOUS
10
88.81
20
184.5
30
0
11
88.81
21
185.5
31
0
0
LINE
8
0
6
CONTINUOUS
10
88.81
20
185.5
30
0
11
87.31
21
185.5
31
0
0
LINE
8
0
6
CONTINUOUS
10
87.31
20
185.5
30
0
11
87.31
21
186.9
31
0
0
LINE
8
0
6
CONTINUOUS
10
87.31
20
186.9
30
0
11
94.71
21
186.9
31
0
0
LINE
8
0
6
CONTINUOUS
10
94.71
20
186.9
30
0
11
94.71
21
185.5
31
0
0
LINE
8
0
6
CONTINUOUS
10
94.71
20
185.5
30
0
11
93.42
21
185.5
31
0
0
LINE
8
0
6
CONTINUOUS
10
93.42
20
185.5
30
0
11
93.42
21
184.5
31
0
0
LINE
8
0
6
CONTINUOUS
10
93.42
20
184.5
30
0
11
98.01
21
184.5
31
0
0
LINE
8
0
6
CONTINUOUS
10
98.01
20
184.5
30
0
11
98.01
21
185.4
31
0
0
LINE
8
0
6
CONTINUOUS
10
98.01
20
185.4
30
0
11
97.01
21
185.4
31
0
0
LINE
8
0
6
CONTINUOUS
10
97.01
20
185.4
30
0
11
97.01
21
186.6
31
0
0
LINE
8
0
6
CONTINUOUS
10
97.01
20
186.6
30
0
11
112.11
21
186.6
31
0
0
LINE
8
0
6
CONTINUOUS
10
112.11
20
186.6
30
0
11
112.11
21
182.7
31
0
0
LINE
8
0
6
CONTINUOUS
10
112.11
20
182.7
30
0
11
113.05
21
182.7
31
0
0
LINE
8
0
6
CONTINUOUS
10
113.05
20
182.7
30
0
11
112.84
21
178.71
31
0
0
LINE
8
0
6
CONTINUOUS
10
112.84
20
178.71
30
0
11
116.11
21
179.79
31
0
0
LINE
8
0
6
CONTINUOUS
10
116.11
20
179.79
30
0
11
114.34
21
182.7
31
0
0
LINE
8
0
6
CONTINUOUS
10
114.34
20
182.7
30
0
11
119.67
21
182.7
31
0
0
LINE
8
0
6
CONTINUOUS
10
119.67
20
182.7
30
0
11
118.22
21
180.2
31
0
0
LINE
8
0
6
CONTINUOUS
10
118.22
20
180.2
30
0
11
120.57
21
180.2
31
0
0
LINE
8
0
6
CONTINUOUS
10
120.57
20
180.2
30
0
11
121.83
21
181.7
31
0
0
LINE
8
0
6
CONTINUOUS
10
121.83
20
181.7
30
0
11
148.18
21
181.7
31
0
0
LINE
8
0
6
CONTINUOUS
10
148.18
20
181.7
30
0
11
149.44
21
180.2
31
0
0
LINE
8
0
6
CONTINUOUS
10
149.44
20
180.2
30
0
11
151.79
21
180.2
31
0
0
LINE
8
0
6
CONTINUOUS
10
151.79
20
180.2
30
0
11
150.34
21
182.7
31
0
0
LINE
8
0
6
CONTINUOUS
10
150.34
20
182.7
30
0
11
155.67
21
182.7
31
0
0
LINE
8
0
6
CONTINUOUS
10
155.67
20
182.7
30
0
11
153.86
21
179.73
31
0
0
LINE
8
0
6
CONTINUOUS
10
153.86
20
179.73
30
0
11
156.91
21
178.8
31
0
0
LINE
8
0
6
CONTINUOUS
10
156.91
20
178.8
30
0
11
156.91
21
186.6
31
0
0
LINE
8
0
6
CONTINUOUS
10
156.91
20
186.6
30
0
11
159.51
21
186.6
31
0
0
ARC
8
0
6
CONTINUOUS
10
159.5012526982771
20
185.60003825837555
30
0
40
1.0
50
357.1318212266442
51
89.49881013756531
0
ARC
8
0
6
CONTINUOUS
10
161.50874917860875
20
185.49999921772263
30
0
40
1.0
50
177.13397114007628
51
270.07166680533044
0
LINE
8
0
6
CONTINUOUS
10
161.51
20
184.5
30
0
11
163.01
21
184.5
31
0
0
LINE
8
0
6
CONTINUOUS
10
163.01
20
184.5
30
0
11
163.01
21
185.5
31
0
0
LINE
8
0
6
CONTINUOUS
10
163.01
20
185.5
30
0
11
161.81
21
185.5
31
0
0
LINE
8
0
6
CONTINUOUS
10
161.81
20
185.5
30
0
11
161.81
21
186.7
31
0
0
LINE
8
0
6
CONTINUOUS
10
161.81
20
186.7
30
0
11
177.51
21
186.7
31
0
0
LINE
8
0
6
CONTINUOUS
10
177.51
20
186.7
30
0
11
177.51
21
185.8
31
0
0
LINE
8
0
6
CONTINUOUS
10
177.51
20
185.8
30
0
11
176.31
21
185.8
31
0
0
LINE
8
0
6
CONTINUOUS
10
176.31
20
185.8
30
0
11
176.31
21
184.5
31
0
0
LINE
8
0
6
CONTINUOUS
10
176.31
20
184.5
30
0
11
179.95
21
184.5
31
0
0
LINE
8
0
6
CONTINUOUS
10
179.95
20
184.5
30
0
11
180.22
21
185.5
31
0
0
LINE
8
0
6
CONTINUOUS
10
180.22
20
185.5
30
0
11
178.66
21
185.5
31
0
0
LINE
8
0
6
CONTINUOUS
10
178.66
20
185.5
30
0
11
178.66
21
187.2
31
0
0
LINE
8
0
6
CONTINUOUS
10
178.66
20
187.2
30
0
11
184.66
21
187.2
31
0
0
LINE
8
0
6
CONTINUOUS
10
184.66
20
187.2
30
0
11
184.66
21
185.5
31
0
0
LINE
8
0
6
CONTINUOUS
10
184.66
20
185.5
30
0
11
183.1
21
185.5
31
0
0
LINE
8
0
6
CONTINUOUS
10
183.1
20
185.5
30
0
11
183.36
21
184.5
31
0
0
LINE
8
0
6
CONTINUOUS
10
183.36
20
184.5
30
0
11
185.31
21
184.5
31
0
0
ARC
8
0
6
CONTINUOUS
10
185.31
20
185.0
30
0
40
0.5
50
270.0
51
0.0
0
LINE
8
0
6
CONTINUOUS
10
185.81
20
185.0
30
0
11
185.81
21
188.0
31
0
0
ARC
8
0
6
CONTINUOUS
10
185.31
20
188.0
30
0
40
0.5
50
0.0
51
90.0
0
LINE
8
0
6
CONTINUOUS
10
185.31
20
188.5
30
0
11
86.31
21
188.5
31
0
0
ARC
8
0
6
CONTINUOUS
10
86.31
20
188.0
30
0
40
0.5
50
90.0
51
180.0
0
LINE
8
0
6
CONTINUOUS
10
85.81
20
188.0
30
0
11
85.81
21
185.0
31
0
0
ARC
8
0
6
CONTINUOUS
10
115.11
20
185.6
30
0
40
1.0
50
90.0
51
270.0
0
LINE
8
0
6
CONTINUOUS
10
115.11
20
186.6
30
0
11
153.91
21
186.6
31
0
0
ARC
8
0
6
CONTINUOUS
10
153.91
20
185.6
30
0
40
1.0
50
270.0
51
90.0
0
LINE
8
0
6
CONTINUOUS
10
153.91
20
184.6
30
0
11
115.11
21
184.6
31
0
0
LINE
8
0
6
CONTINUOUS
10
88.61
20
96.45
30
0
11
88.61
21
100.6
31
0
0
LINE
8
0
6
CONTINUOUS
10
88.61
20
100.6
30
0
11
86.61
21
100.6
31
0
0
LINE
8
0
6
CONTINUOUS
10
86.61
20
100.6
30
0
11
86.61
21
98.4
31
0
0
LINE
8
0
6
CONTINUOUS
10
86.61
20
98.4
30
0
11
83.61
21
98.4
31
0
0
LINE
8
0
6
CONTINUOUS
10
83.61
20
98.4
30
0
11
83.61
21
100.6
31
0
0
LINE
8
0
6
CONTINUOUS
10
83.61
20
100.6
30
0
11
80.81
21
100.6
31
0
0
LINE
8
0
6
CONTINUOUS
10
80.81
20
100.6
30
0
11
80.81
21
93.82
31
0
0
LINE
8
0
6
CONTINUOUS
10
80.81
20
93.82
30
0
11
85.96
21
93.0
31
0
0
LINE
8
0
6
CONTINUOUS
10
85.96
20
93.0
30
0
11
85.96
21
92.2
31
0
0
LINE
8
0
6
CONTINUOUS
10
85.96
20
92.2
30
0
11
80.81
21
91.39
31
0
0
LINE
8
0
6
CONTINUOUS
10
80.81
20
91.39
30
0
11
80.81
21
56.19
31
0
0
LINE
8
0
6
CONTINUOUS
10
80.81
20
56.19
30
0
11
82.06
21
55.47
31
0
0
ARC
8
0
6
CONTINUOUS
10
82.3100090450155
20
55.90300747962413
30
0
40
0.5
50
239.9988031659658
51
359.6553661429832
0
LINE
8
0
6
CONTINUOUS
10
82.81
20
55.9
30
0
11
82.81
21
71.7
31
0
0
LINE
8
0
6
CONTINUOUS
10
82.81
20
71.7
30
0
11
87.21
21
71.7
31
0
0
LINE
8
0
6
CONTINUOUS
10
87.21
20
71.7
30
0
11
87.21
21
74.8
31
0
0
LINE
8
0
6
CONTINUOUS
10
87.21
20
74.8
30
0
11
82.81
21
74.8
31
0
0
LINE
8
0
6
CONTINUOUS
10
82.81
20
74.8
30
0
11
82.81
21
89.68
31
0
0
LINE
8
0
6
CONTINUOUS
10
82.81
20
89.68
30
0
11
89.41
21
90.72
31
0
0
LINE
8
0
6
CONTINUOUS
10
89.41
20
90.72
30
0
11
89.41
21
94.48
31
0
0
LINE
8
0
6
CONTINUOUS
10
89.41
20
94.48
30
0
11
82.81
21
95.53
31
0
0
LINE
8
0
6
CONTINUOUS
10
82.81
20
95.53
30
0
11
82.81
21
96.45
31
0
0
LINE
8
0
6
CONTINUOUS
10
82.81
20
96.45
30
0
11
88.61
21
96.45
31
0
0
LINE
8
0
6
CONTINUOUS
10
96.16
20
96.7
30
0
11
91.24
21
96.7
31
0
0
LINE
8
0
6
CONTINUOUS
10
91.24
20
96.7
30
0
11
92.89
21
93.75
31
0
0
LINE
8
0
6
CONTINUOUS
10
92.89
20
93.75
30
0
11
89.78
21
91.57
31
0
0
LINE
8
0
6
CONTINUOUS
10
89.78
20
91.57
30
0
11
89.78
21
79.83
31
0
0
LINE
8
0
6
CONTINUOUS
10
89.78
20
79.83
30
0
11
92.86
21
77.68
31
0
0
LINE
8
0
6
CONTINUOUS
10
92.86
20
77.68
30
0
11
91.21
21
74.7
31
0
0
LINE
8
0
6
CONTINUOUS
10
91.21
20
74.7
30
0
11
96.12
21
74.7
31
0
0
LINE
8
0
6
CONTINUOUS
10
96.12
20
74.7
30
0
11
94.68
21
77.27
31
0
0
LINE
8
0
6
CONTINUOUS
10
94.68
20
77.27
30
0
11
94.68
21
78.84
31
0
0
LINE
8
0
6
CONTINUOUS
10
94.68
20
78.84
30
0
11
91.78
21
80.88
31
0
0
LINE
8
0
6
CONTINUOUS
10
91.78
20
80.88
30
0
11
91.78
21
90.53
31
0
0
LINE
8
0
6
CONTINUOUS
10
91.78
20
90.53
30
0
11
94.68
21
92.56
31
0
0
LINE
8
0
6
CONTINUOUS
10
94.68
20
92.56
30
0
11
94.68
21
94.13
31
0
0
LINE
8
0
6
CONTINUOUS
10
94.68
20
94.13
30
0
11
96.16
21
96.7
31
0
0
LINE
8
0
6
CONTINUOUS
10
127.21
20
91.7
30
0
11
127.21
21
79.7
31
0
0
ARC
8
0
6
CONTINUOUS
10
129.2099910001136
20
79.70599995537836
30
0
40
2.0
50
180.17188631804964
51
243.89640597633115
0
LINE
8
0
6
CONTINUOUS
10
128.33
20
77.91
30
0
11
128.33
21
77.06
31
0
0
LINE
8
0
6
CONTINUOUS
10
128.33
20
77.06
30
0
11
126.97
21
74.7
31
0
0
LINE
8
0
6
CONTINUOUS
10
126.97
20
74.7
30
0
11
132.09
21
74.7
31
0
0
LINE
8
0
6
CONTINUOUS
10
132.09
20
74.7
30
0
11
130.73
21
77.06
31
0
0
LINE
8
0
6
CONTINUOUS
10
130.73
20
77.06
30
0
11
130.73
21
78.2
31
0
0
LINE
8
0
6
CONTINUOUS
10
130.73
20
78.2
30
0
11
133.21
21
79.1
31
0
0
LINE
8
0
6
CONTINUOUS
10
133.21
20
79.1
30
0
11
133.21
21
81.7
31
0
0
LINE
8
0
6
CONTINUOUS
10
133.21
20
81.7
30
0
11
132.21
21
81.7
31
0
0
LINE
8
0
6
CONTINUOUS
10
132.21
20
81.7
30
0
11
131.71
21
80.15
31
0
0
LINE
8
0
6
CONTINUOUS
10
131.71
20
80.15
30
0
11
130.47
21
79.7
31
0
0
LINE
8
0
6
CONTINUOUS
10
130.47
20
79.7
30
0
11
129.21
21
79.7
31
0
0
LINE
8
0
6
CONTINUOUS
10
129.21
20
79.7
30
0
11
129.21
21
91.7
31
0
0
LINE
8
0
6
CONTINUOUS
10
129.21
20
91.7
30
0
11
130.47
21
91.7
31
0
0
LINE
8
0
6
CONTINUOUS
10
130.47
20
91.7
30
0
11
131.71
21
91.25
31
0
0
LINE
8
0
6
CONTINUOUS
10
131.71
20
91.25
30
0
11
132.21
21
89.7
31
0
0
LINE
8
0
6
CONTINUOUS
10
132.21
20
89.7
30
0
11
133.21
21
89.7
31
0
0
LINE
8
0
6
CONTINUOUS
10
133.21
20
89.7
30
0
11
133.21
21
92.3
31
0
0
LINE
8
0
6
CONTINUOUS
10
133.21
20
92.3
30
0
11
130.73
21
93.2
31
0
0
LINE
8
0
6
CONTINUOUS
10
130.73
20
93.2
30
0
11
130.73
21
94.35
31
0
0
LINE
8
0
6
CONTINUOUS
10
130.73
20
94.35
30
0
11
132.04
21
96.7
31
0
0
LINE
8
0
6
CONTINUOUS
10
132.04
20
96.7
30
0
11
126.97
21
96.7
31
0
0
LINE
8
0
6
CONTINUOUS
10
126.97
20
96.7
30
0
11
128.33
21
94.35
31
0
0
LINE
8
0
6
CONTINUOUS
10
128.33
20
94.35
30
0
11
128.33
21
93.5
31
0
0
ARC
8
0
6
CONTINUOUS
10
129.20999599501044
20
91.70400249199348
30
0
40
2.0
50
116.10375337038934
51
180.11466302591788
0
LINE
8
0
6
CONTINUOUS
10
155.61
20
100.63
30
0
11
151.91
21
100.63
31
0
0
LINE
8
0
6
CONTINUOUS
10
151.91
20
100.63
30
0
11
151.91
21
99.5
31
0
0
LINE
8
0
6
CONTINUOUS
10
151.91
20
99.5
30
0
11
153.41
21
99.5
31
0
0
LINE
8
0
6
CONTINUOUS
10
153.41
20
99.5
30
0
11
153.41
21
98.5
31
0
0
LINE
8
0
6
CONTINUOUS
10
153.41
20
98.5
30
0
11
134.51
21
98.5
31
0
0
LINE
8
0
6
CONTINUOUS
10
134.51
20
98.5
30
0
11
134.51
21
96.7
31
0
0
LINE
8
0
6
CONTINUOUS
10
134.51
20
96.7
30
0
11
133.56
21
96.7
31
0
0
LINE
8
0
6
CONTINUOUS
10
133.56
20
96.7
30
0
11
133.77
21
92.71
31
0
0
LINE
8
0
6
CONTINUOUS
10
133.77
20
92.71
30
0
11
132.09
21
92.71
31
0
0
LINE
8
0
6
CONTINUOUS
10
132.09
20
92.71
30
0
11
133.21
21
92.3
31
0
0
LINE
8
0
6
CONTINUOUS
10
133.21
20
92.3
30
0
11
133.21
21
90.89
31
0
0
LINE
8
0
6
CONTINUOUS
10
133.21
20
90.89
30
0
11
155.61
21
90.89
31
0
0
LINE
8
0
6
CONTINUOUS
10
155.61
20
90.89
30
0
11
155.61
21
100.63
31
0
0
LINE
8
0
6
CONTINUOUS
10
91.01
20
186.63
30
0
11
91.01
21
176.89
31
0
0
LINE
8
0
6
CONTINUOUS
10
91.01
20
176.89
30
0
11
113.41
21
176.89
31
0
0
LINE
8
0
6
CONTINUOUS
10
113.41
20
176.89
30
0
11
113.41
21
178.3
31
0
0
LINE
8
0
6
CONTINUOUS
10
113.41
20
178.3
30
0
11
114.52
21
178.71
31
0
0
LINE
8
0
6
CONTINUOUS
10
114.52
20
178.71
30
0
11
112.84
21
178.71
31
0
0
LINE
8
0
6
CONTINUOUS
10
112.84
20
178.71
30
0
11
113.05
21
182.7
31
0
0
LINE
8
0
6
CONTINUOUS
10
113.05
20
182.7
30
0
11
112.11
21
182.7
31
0
0
LINE
8
0
6
CONTINUOUS
10
112.11
20
182.7
30
0
11
112.11
21
184.5
31
0
0
LINE
8
0
6
CONTINUOUS
10
112.11
20
184.5
30
0
11
93.21
21
184.5
31
0
0
LINE
8
0
6
CONTINUOUS
10
93.21
20
184.5
30
0
11
93.21
21
185.5
31
0
0
LINE
8
0
6
CONTINUOUS
10
93.21
20
185.5
30
0
11
94.71
21
185.5
31
0
0
LINE
8
0
6
CONTINUOUS
10
94.71
20
185.5
30
0
11
94.71
21
186.63
31
0
0
LINE
8
0
6
CONTINUOUS
10
94.71
20
186.63
30
0
11
91.01
21
186.63
31
0
0
LINE
8
0
6
CONTINUOUS
10
158.01
20
182.45
30
0
11
163.81
21
182.45
31
0
0
LINE
8
0
6
CONTINUOUS
10
163.81
20
182.45
30
0
11
163.81
21
181.53
31
0
0
LINE
8
0
6
CONTINUOUS
10
163.81
20
181.53
30
0
11
157.21
21
180.48
31
0
0
LINE
8
0
6
CONTINUOUS
10
157.21
20
180.48
30
0
11
157.21
21
176.72
31
0
0
LINE
8
0
6
CONTINUOUS
10
157.21
20
176.72
30
0
11
163.81
21
175.68
31
0
0
LINE
8
0
6
CONTINUOUS
10
163.81
20
175.68
30
0
11
163.81
21
160.8
31
0
0
LINE
8
0
6
CONTINUOUS
10
163.81
20
160.8
30
0
11
159.41
21
160.8
31
0
0
LINE
8
0
6
CONTINUOUS
10
159.41
20
160.8
30
0
11
159.41
21
157.7
31
0
0
LINE
8
0
6
CONTINUOUS
10
159.41
20
157.7
30
0
11
163.81
21
157.7
31
0
0
LINE
8
0
6
CONTINUOUS
10
163.81
20
157.7
30
0
11
163.81
21
141.9
31
0
0
ARC
8
0
6
CONTINUOUS
10
164.3099909549845
20
141.90300747962414
30
0
40
0.5
50
180.3446338570168
51
300.00119683403375
0
LINE
8
0
6
CONTINUOUS
10
164.56
20
141.47
30
0
11
165.81
21
142.19
31
0
0
LINE
8
0
6
CONTINUOUS
10
165.81
20
142.19
30
0
11
165.81
21
177.39
31
0
0
LINE
8
0
6
CONTINUOUS
10
165.81
20
177.39
30
0
11
160.65
21
178.2
31
0
0
LINE
8
0
6
CONTINUOUS
10
160.65
20
178.2
30
0
11
160.65
21
179.0
31
0
0
LINE
8
0
6
CONTINUOUS
10
160.65
20
179.0
30
0
11
165.81
21
179.82
31
0
0
LINE
8
0
6
CONTINUOUS
10
165.81
20
179.82
30
0
11
165.81
21
186.6
31
0
0
LINE
8
0
6
CONTINUOUS
10
165.81
20
186.6
30
0
11
163.01
21
186.6
31
0
0
LINE
8
0
6
CONTINUOUS
10
163.01
20
186.6
30
0
11
163.01
21
184.4
31
0
0
LINE
8
0
6
CONTINUOUS
10
163.01
20
184.4
30
0
11
160.01
21
184.4
31
0
0
LINE
8
0
6
CONTINUOUS
10
160.01
20
184.4
30
0
11
160.01
21
186.6
31
0
0
LINE
8
0
6
CONTINUOUS
10
160.01
20
186.6
30
0
11
158.01
21
186.6
31
0
0
LINE
8
0
6
CONTINUOUS
10
158.01
20
186.6
30
0
11
158.01
21
182.45
31
0
0
LINE
8
0
6
CONTINUOUS
10
150.45
20
182.7
30
0
11
151.93
21
180.13
31
0
0
LINE
8
0
6
CONTINUOUS
10
151.93
20
180.13
30
0
11
151.93
21
178.56
31
0
0
LINE
8
0
6
CONTINUOUS
10
151.93
20
178.56
30
0
11
154.83
21
176.53
31
0
0
LINE
8
0
6
CONTINUOUS
10
154.83
20
176.53
30
0
11
154.83
21
166.88
31
0
0
LINE
8
0
6
CONTINUOUS
10
154.83
20
166.88
30
0
11
151.93
21
164.84
31
0
0
LINE
8
0
6
CONTINUOUS
10
151.93
20
164.84
30
0
11
151.93
21
163.27
31
0
0
LINE
8
0
6
CONTINUOUS
10
151.93
20
163.27
30
0
11
150.49
21
160.7
31
0
0
LINE
8
0
6
CONTINUOUS
10
150.49
20
160.7
30
0
11
155.4
21
160.7
31
0
0
LINE
8
0
6
CONTINUOUS
10
155.4
20
160.7
30
0
11
153.75
21
163.68
31
0
0
LINE
8
0
6
CONTINUOUS
10
153.75
20
163.68
30
0
11
156.83
21
165.83
31
0
0
LINE
8
0
6
CONTINUOUS
10
156.83
20
165.83
30
0
11
156.83
21
177.57
31
0
0
LINE
8
0
6
CONTINUOUS
10
156.83
20
177.57
30
0
11
153.72
21
179.75
31
0
0
LINE
8
0
6
CONTINUOUS
10
153.72
20
179.75
30
0
11
155.37
21
182.7
31
0
0
LINE
8
0
6
CONTINUOUS
10
155.37
20
182.7
30
0
11
150.45
21
182.7
31
0
0
ARC
8
0
6
CONTINUOUS
10
117.410000185328
20
177.6991390052337
30
0
40
2.0
50
0.024665683907765558
51
64.21471201804218
0
LINE
8
0
6
CONTINUOUS
10
118.28
20
179.5
30
0
11
118.28
21
180.35
31
0
0
LINE
8
0
6
CONTINUOUS
10
118.28
20
180.35
30
0
11
119.64
21
182.7
31
0
0
LINE
8
0
6
CONTINUOUS
10
119.64
20
182.7
30
0
11
114.57
21
182.7
31
0
0
LINE
8
0
6
CONTINUOUS
10
114.57
20
182.7
30
0
11
115.88
21
180.35
31
0
0
LINE
8
0
6
CONTINUOUS
10
115.88
20
180.35
30
0
11
115.88
21
179.2
31
0
0
LINE
8
0
6
CONTINUOUS
10
115.88
20
179.2
30
0
11
113.41
21
178.3
31
0
0
LINE
8
0
6
CONTINUOUS
10
113.41
20
178.3
30
0
11
113.41
21
175.7
31
0
0
LINE
8
0
6
CONTINUOUS
10
113.41
20
175.7
30
0
11
114.41
21
175.7
31
0
0
LINE
8
0
6
CONTINUOUS
10
114.41
20
175.7
30
0
11
114.91
21
177.25
31
0
0
LINE
8
0
6
CONTINUOUS
10
114.91
20
177.25
30
0
11
116.14
21
177.7
31
0
0
LINE
8
0
6
CONTINUOUS
10
116.14
20
177.7
30
0
11
117.41
21
177.7
31
0
0
LINE
8
0
6
CONTINUOUS
10
117.41
20
177.7
30
0
11
117.41
21
165.7
31
0
0
LINE
8
0
6
CONTINUOUS
10
117.41
20
165.7
30
0
11
116.14
21
165.7
31
0
0
LINE
8
0
6
CONTINUOUS
10
116.14
20
165.7
30
0
11
114.91
21
166.15
31
0
0
LINE
8
0
6
CONTINUOUS
10
114.91
20
166.15
30
0
11
114.41
21
167.7
31
0
0
LINE
8
0
6
CONTINUOUS
10
114.41
20
167.7
30
0
11
113.41
21
167.7
31
0
0
LINE
8
0
6
CONTINUOUS
10
113.41
20
167.7
30
0
11
113.41
21
165.1
31
0
0
LINE
8
0
6
CONTINUOUS
10
113.41
20
165.1
30
0
11
115.88
21
164.2
31
0
0
LINE
8
0
6
CONTINUOUS
10
115.88
20
164.2
30
0
11
115.88
21
163.06
31
0
0
LINE
8
0
6
CONTINUOUS
10
115.88
20
163.06
30
0
11
114.52
21
160.7
31
0
0
LINE
8
0
6
CONTINUOUS
10
114.52
20
160.7
30
0
11
119.64
21
160.7
31
0
0
LINE
8
0
6
CONTINUOUS
10
119.64
20
160.7
30
0
11
118.28
21
163.06
31
0
0
LINE
8
0
6
CONTINUOUS
10
118.28
20
163.06
30
0
11
118.28
21
163.91
31
0
0
ARC
8
0
6
CONTINUOUS
10
117.41002956765324
20
165.71087518913512
30
0
40
2.0
50
295.78435316433496
51
359.6884472452596
0
LINE
8
0
6
CONTINUOUS
10
119.41
20
165.7
30
0
11
119.41
21
177.7
31
0
0
LINE
8
0
6
CONTINUOUS
10
175.81
20
147.4
30
0
11
175.81
21
146.1
31
0
0
LINE
8
0
6
CONTINUOUS
10
175.81
20
146.1
30
0
11
184.51
21
146.1
31
0
0
LINE
8
0
6
CONTINUOUS
10
184.51
20
146.1
30
0
11
184.51
21
143.31
31
0
0
LINE
8
0
6
CONTINUOUS
10
184.51
20
143.31
30
0
11
185.81
21
143.31
31
0
0
LINE
8
0
6
CONTINUOUS
10
185.81
20
143.31
30
0
11
185.81
21
149.06
31
0
0
LINE
8
0
6
CONTINUOUS
10
185.81
20
149.06
30
0
11
183.71
21
149.62
31
0
0
LINE
8
0
6
CONTINUOUS
10
183.71
20
149.62
30
0
11
183.71
21
148.69
31
0
0
LINE
8
0
6
CONTINUOUS
10
183.71
20
148.69
30
0
11
184.51
21
148.48
31
0
0
LINE
8
0
6
CONTINUOUS
10
184.51
20
148.48
30
0
11
184.51
21
147.4
31
0
0
LINE
8
0
6
CONTINUOUS
10
184.51
20
147.4
30
0
11
175.81
21
147.4
31
0
0
LINE
8
0
6
CONTINUOUS
10
151.91
20
38.5
30
0
11
151.91
21
37.38
31
0
0
LINE
8
0
6
CONTINUOUS
10
151.91
20
37.38
30
0
11
155.61
21
37.38
31
0
0
LINE
8
0
6
CONTINUOUS
10
155.61
20
37.38
30
0
11
155.61
21
43.01
31
0
0
LINE
8
0
6
CONTINUOUS
10
155.61
20
43.01
30
0
11
134.51
21
43.01
31
0
0
LINE
8
0
6
CONTINUOUS
10
134.51
20
43.01
30
0
11
134.51
21
39.5
31
0
0
LINE
8
0
6
CONTINUOUS
10
134.51
20
39.5
30
0
11
153.41
21
39.5
31
0
0
LINE
8
0
6
CONTINUOUS
10
153.41
20
39.5
30
0
11
153.41
21
38.5
31
0
0
LINE
8
0
6
CONTINUOUS
10
153.41
20
38.5
30
0
11
151.91
21
38.5
31
0
0
LINE
8
0
6
CONTINUOUS
10
94.71
20
124.5
30
0
11
93.21
21
124.5
31
0
0
LINE
8
0
6
CONTINUOUS
10
93.21
20
124.5
30
0
11
93.21
21
125.5
31
0
0
LINE
8
0
6
CONTINUOUS
10
93.21
20
125.5
30
0
11
112.11
21
125.5
31
0
0
LINE
8
0
6
CONTINUOUS
10
112.11
20
125.5
30
0
11
112.11
21
129.01
31
0
0
LINE
8
0
6
CONTINUOUS
10
112.11
20
129.01
30
0
11
91.01
21
129.01
31
0
0
LINE
8
0
6
CONTINUOUS
10
91.01
20
129.01
30
0
11
91.01
21
123.38
31
0
0
LINE
8
0
6
CONTINUOUS
10
91.01
20
123.38
30
0
11
94.71
21
123.38
31
0
0
LINE
8
0
6
CONTINUOUS
10
94.71
20
123.38
30
0
11
94.71
21
124.5
31
0
0
ARC
8
0
6
CONTINUOUS
10
61.31
20
188.0
30
0
40
0.5
50
90.0
51
180.0
0
LINE
8
0
6
CONTINUOUS
10
60.81
20
188.0
30
0
11
60.81
21
109.0
31
0
0
ARC
8
0
6
CONTINUOUS
10
61.31
20
109.0
30
0
40
0.5
50
180.0
51
270.0
0
LINE
8
0
6
CONTINUOUS
10
61.31
20
108.5
30
0
11
62.11
21
108.5
31
0
0
ARC
8
0
6
CONTINUOUS
10
62.11
20
109.0
30
0
40
0.5
50
270.0
51
0.0
0
LINE
8
0
6
CONTINUOUS
10
62.61
20
109.0
30
0
11
62.61
21
117.6
31
0
0
LINE
8
0
6
CONTINUOUS
10
62.61
20
117.6
30
0
11
65.11
21
117.6
31
0
0
LINE
8
0
6
CONTINUOUS
10
65.11
20
117.6
30
0
11
65.11
21
116.6
31
0
0
LINE
8
0
6
CONTINUOUS
10
65.11
20
116.6
30
0
11
71.58
21
116.6
31
0
0
LINE
8
0
6
CONTINUOUS
10
71.58
20
116.6
30
0
11
74.29
21
118.17
31
0
0
ARC
8
0
6
CONTINUOUS
10
74.03489687821231
20
118.60002604253017
30
0
40
0.5
50
300.67756849883705
51
89.4152151655609
0
LINE
8
0
6
CONTINUOUS
10
74.04
20
119.1
30
0
11
62.61
21
119.1
31
0
0
LINE
8
0
6
CONTINUOUS
10
62.61
20
119.1
30
0
11
62.61
21
186.7
31
0
0
LINE
8
0
6
CONTINUOUS
10
62.61
20
186.7
30
0
11
83.71
21
186.7
31
0
0
LINE
8
0
6
CONTINUOUS
10
83.71
20
186.7
30
0
11
83.71
21
184.5
31
0
0
ARC
8
0
6
CONTINUOUS
10
85.80999999999999
20
184.5
30
0
40
2.1
50
180.0
51
270.0000000000004
0
LINE
8
0
6
CONTINUOUS
10
85.81
20
182.4
30
0
11
88.81
21
182.4
31
0
0
ARC
8
0
6
CONTINUOUS
10
88.81
20
184.5
30
0
40
2.1
50
270.0
51
0.0
0
LINE
8
0
6
CONTINUOUS
10
90.91
20
184.5
30
0
11
90.91
21
186.5
31
0
0
LINE
8
0
6
CONTINUOUS
10
90.91
20
186.5
30
0
11
89.11
21
186.5
31
0
0
LINE
8
0
6
CONTINUOUS
10
89.11
20
186.5
30
0
11
89.11
21
184.2
31
0
0
LINE
8
0
6
CONTINUOUS
10
89.11
20
184.2
30
0
11
85.51
21
184.2
31
0
0
LINE
8
0
6
CONTINUOUS
10
85.51
20
184.2
30
0
11
85.51
21
186.39
31
0
0
LINE
8
0
6
CONTINUOUS
10
85.51
20
186.39
30
0
11
85.81
21
187.2
31
0
0
LINE
8
0
6
CONTINUOUS
10
85.81
20
187.2
30
0
11
85.81
21
188.0
31
0
0
ARC
8
0
6
CONTINUOUS
10
85.31
20
188.0
30
0
40
0.5
50
0.0
51
90.0
0
LINE
8
0
6
CONTINUOUS
10
85.31
20
188.5
30
0
11
61.31
21
188.5
31
0
0
LINE
8
0
6
CONTINUOUS
10
160.81
20
99.0
30
0
11
160.81
21
102.0
31
0
0
ARC
8
0
6
CONTINUOUS
10
160.31
20
102.0
30
0
40
0.5
50
0.0
51
90.0
0
LINE
8
0
6
CONTINUOUS
10
160.31
20
102.5
30
0
11
61.31
21
102.5
31
0
0
ARC
8
0
6
CONTINUOUS
10
61.31
20
102.0
30
0
40
0.5
50
90.0
51
180.0
0
LINE
8
0
6
CONTINUOUS
10
60.81
20
102.0
30
0
11
60.81
21
99.0
31
0
0
ARC
8
0
6
CONTINUOUS
10
61.31
20
99.0
30
0
40
0.5
50
180.0
51
270.0
0
LINE
8
0
6
CONTINUOUS
10
61.31
20
98.5
30
0
11
63.25
21
98.5
31
0
0
LINE
8
0
6
CONTINUOUS
10
63.25
20
98.5
30
0
11
63.52
21
99.5
31
0
0
LINE
8
0
6
CONTINUOUS
10
63.52
20
99.5
30
0
11
61.96
21
99.5
31
0
0
LINE
8
0
6
CONTINUOUS
10
61.96
20
99.5
30
0
11
61.96
21
101.2
31
0
0
LINE
8
0
6
CONTINUOUS
10
61.96
20
101.2
30
0
11
67.96
21
101.2
31
0
0
LINE
8
0
6
CONTINUOUS
10
67.96
20
101.2
30
0
11
67.96
21
99.5
31
0
0
LINE
8
0
6
CONTINUOUS
10
67.96
20
99.5
30
0
11
66.4
21
99.5
31
0
0
LINE
8
0
6
CONTINUOUS
10
66.4
20
99.5
30
0
11
66.66
21
98.5
31
0
0
LINE
8
0
6
CONTINUOUS
10
66.66
20
98.5
30
0
11
70.31
21
98.5
31
0
0
LINE
8
0
6
CONTINUOUS
10
70.31
20
98.5
30
0
11
70.31
21
99.8
31
0
0
LINE
8
0
6
CONTINUOUS
10
70.31
20
99.8
30
0
11
69.11
21
99.8
31
0
0
LINE
8
0
6
CONTINUOUS
10
69.11
20
99.8
30
0
11
69.11
21
100.7
31
0
0
LINE
8
0
6
CONTINUOUS
10
69.11
20
100.7
30
0
11
84.81
21
100.7
31
0
0
LINE
8
0
6
CONTINUOUS
10
84.81
20
100.7
30
0
11
84.81
21
99.5
31
0
0
LINE
8
0
6
CONTINUOUS
10
84.81
20
99.5
30
0
11
83.61
21
99.5
31
0
0
LINE
8
0
6
CONTINUOUS
10
83.61
20
99.5
30
0
11
83.61
21
98.5
31
0
0
LINE
8
0
6
CONTINUOUS
10
83.61
20
98.5
30
0
11
85.11
21
98.5
31
0
0
ARC
8
0
6
CONTINUOUS
10
85.10125269827711
20
99.49996174162445
30
0
40
1.0
50
270.50118986243547
51
2.868178773356622
0
ARC
8
0
6
CONTINUOUS
10
87.10874917860875
20
99.60000078227736
30
0
40
1.0
50
89.92833319466878
51
182.86602885992295
0
LINE
8
0
6
CONTINUOUS
10
87.11
20
100.6
30
0
11
89.71
21
100.6
31
0
0
LINE
8
0
6
CONTINUOUS
10
89.71
20
100.6
30
0
11
89.71
21
92.8
31
0
0
LINE
8
0
6
CONTINUOUS
10
89.71
20
92.8
30
0
11
92.75
21
93.73
31
0
0
LINE
8
0
6
CONTINUOUS
10
92.75
20
93.73
30
0
11
90.94
21
96.7
31
0
0
LINE
8
0
6
CONTINUOUS
10
90.94
20
96.7
30
0
11
96.27
21
96.7
31
0
0
LINE
8
0
6
CONTINUOUS
10
96.27
20
96.7
30
0
11
94.82
21
94.2
31
0
0
LINE
8
0
6
CONTINUOUS
10
94.82
20
94.2
30
0
11
97.17
21
94.2
31
0
0
LINE
8
0
6
CONTINUOUS
10
97.17
20
94.2
30
0
11
98.43
21
95.7
31
0
0
LINE
8
0
6
CONTINUOUS
10
98.43
20
95.7
30
0
11
124.79
21
95.7
31
0
0
LINE
8
0
6
CONTINUOUS
10
124.79
20
95.7
30
0
11
126.05
21
94.2
31
0
0
LINE
8
0
6
CONTINUOUS
10
126.05
20
94.2
30
0
11
128.39
21
94.2
31
0
0
LINE
8
0
6
CONTINUOUS
10
128.39
20
94.2
30
0
11
126.94
21
96.7
31
0
0
LINE
8
0
6
CONTINUOUS
10
126.94
20
96.7
30
0
11
132.27
21
96.7
31
0
0
LINE
8
0
6
CONTINUOUS
10
132.27
20
96.7
30
0
11
130.5
21
93.79
31
0
0
LINE
8
0
6
CONTINUOUS
10
130.5
20
93.79
30
0
11
133.77
21
92.71
31
0
0
LINE
8
0
6
CONTINUOUS
10
133.77
20
92.71
30
0
11
133.56
21
96.7
31
0
0
LINE
8
0
6
CONTINUOUS
10
133.56
20
96.7
30
0
11
134.51
21
96.7
31
0
0
LINE
8
0
6
CONTINUOUS
10
134.51
20
96.7
30
0
11
134.51
21
100.6
31
0
0
LINE
8
0
6
CONTINUOUS
10
134.51
20
100.6
30
0
11
149.61
21
100.6
31
0
0
LINE
8
0
6
CONTINUOUS
10
149.61
20
100.6
30
0
11
149.61
21
99.4
31
0
0
LINE
8
0
6
CONTINUOUS
10
149.61
20
99.4
30
0
11
148.61
21
99.4
31
0
0
LINE
8
0
6
CONTINUOUS
10
148.61
20
99.4
30
0
11
148.61
21
98.5
31
0
0
LINE
8
0
6
CONTINUOUS
10
148.61
20
98.5
30
0
11
153.2
21
98.5
31
0
0
LINE
8
0
6
CONTINUOUS
10
153.2
20
98.5
30
0
11
153.2
21
99.5
31
0
0
LINE
8
0
6
CONTINUOUS
10
153.2
20
99.5
30
0
11
151.91
21
99.5
31
0
0
LINE
8
0
6
CONTINUOUS
10
151.91
20
99.5
30
0
11
151.91
21
100.9
31
0
0
LINE
8
0
6
CONTINUOUS
10
151.91
20
100.9
30
0
11
159.31
21
100.9
31
0
0
LINE
8
0
6
CONTINUOUS
10
159.31
20
100.9
30
0
11
159.31
21
99.5
31
0
0
LINE
8
0
6
CONTINUOUS
10
159.31
20
99.5
30
0
11
157.81
21
99.5
31
0
0
LINE
8
0
6
CONTINUOUS
10
157.81
20
99.5
30
0
11
157.81
21
98.5
31
0
0
LINE
8
0
6
CONTINUOUS
10
157.81
20
98.5
30
0
11
160.31
21
98.5
31
0
0
ARC
8
0
6
CONTINUOUS
10
160.31
20
99.0
30
0
40
0.5
50
270.0
51
0.0
0
LINE
8
0
6
CONTINUOUS
10
131.51
20
98.6
30
0
11
92.71
21
98.6
31
0
0
ARC
8
0
6
CONTINUOUS
10
92.71
20
99.6
30
0
40
1.0
50
90.0
51
270.0
0
LINE
8
0
6
CONTINUOUS
10
92.71
20
100.6
30
0
11
131.51
21
100.6
31
0
0
ARC
8
0
6
CONTINUOUS
10
131.51
20
99.6
30
0
40
1.0
50
270.0
51
90.0
0
LINE
8
0
6
CONTINUOUS
10
179.36
20
185.8
30
0
11
180.16
21
185.8
31
0
0
LINE
8
0
6
CONTINUOUS
10
180.16
20
185.8
30
0
11
180.16
21
184.5
31
0
0
LINE
8
0
6
CONTINUOUS
10
180.16
20
184.5
30
0
11
177.29
21
184.5
31
0
0
ARC
8
0
6
CONTINUOUS
10
177.25999918845014
20
184.00090086024284
30
0
40
0.5
50
86.56009406786967
51
180.10323103554276
0
LINE
8
0
6
CONTINUOUS
10
176.76
20
184.0
30
0
11
176.76
21
179.39
31
0
0
LINE
8
0
6
CONTINUOUS
10
176.76
20
179.39
30
0
11
177.33
21
178.5
31
0
0
LINE
8
0
6
CONTINUOUS
10
177.33
20
178.5
30
0
11
184.11
21
178.5
31
0
0
LINE
8
0
6
CONTINUOUS
10
184.11
20
178.5
30
0
11
184.7
21
179.43
31
0
0
LINE
8
0
6
CONTINUOUS
10
184.7
20
179.43
30
0
11
185.65
21
179.43
31
0
0
LINE
8
0
6
CONTINUOUS
10
185.65
20
179.43
30
0
11
190.13
21
178.44
31
0
0
ARC
8
0
6
CONTINUOUS
10
190.19252248402572
20
178.92599479317298
30
0
40
0.49
50
262.6692513104602
51
71.25343552349386
0
LINE
8
0
6
CONTINUOUS
10
190.35
20
179.39
30
0
11
189.55
21
179.59
31
0
0
ARC
8
0
6
CONTINUOUS
10
190.16233599252757
20
182.01384913562197
30
0
40
2.5
50
192.32986612483901
51
255.8220431696169
0
LINE
8
0
6
CONTINUOUS
10
187.72
20
181.48
30
0
11
187.09
21
185.44
31
0
0
ARC
8
0
6
CONTINUOUS
10
186.57723553323373
20
185.30593806796145
30
0
40
0.53
50
14.651971709145597
51
174.14543900084348
0
LINE
8
0
6
CONTINUOUS
10
186.05
20
185.36
30
0
11
186.05
21
184.5
31
0
0
LINE
8
0
6
CONTINUOUS
10
186.05
20
184.5
30
0
11
183.36
21
184.5
31
0
0
LINE
8
0
6
CONTINUOUS
10
183.36
20
184.5
30
0
11
183.36
21
185.8
31
0
0
LINE
8
0
6
CONTINUOUS
10
183.36
20
185.8
30
0
11
184.16
21
185.8
31
0
0
LINE
8
0
6
CONTINUOUS
10
184.16
20
185.8
30
0
11
183.55
21
186.9
31
0
0
LINE
8
0
6
CONTINUOUS
10
183.55
20
186.9
30
0
11
179.97
21
186.9
31
0
0
LINE
8
0
6
CONTINUOUS
10
179.97
20
186.9
30
0
11
179.36
21
185.8
31
0
0
LINE
8
0
6
CONTINUOUS
10
180.87
20
183.16
30
0
11
180.87
21
179.69
31
0
0
LINE
8
0
6
CONTINUOUS
10
180.87
20
179.69
30
0
11
178.13
21
179.69
31
0
0
LINE
8
0
6
CONTINUOUS
10
178.13
20
179.69
30
0
11
178.13
21
183.16
31
0
0
LINE
8
0
6
CONTINUOUS
10
178.13
20
183.16
30
0
11
180.87
21
183.16
31
0
0
LINE
8
0
6
CONTINUOUS
10
185.64
20
180.15
30
0
11
182.42
21
180.15
31
0
0
LINE
8
0
6
CONTINUOUS
10
182.42
20
180.15
30
0
11
182.42
21
183.16
31
0
0
LINE
8
0
6
CONTINUOUS
10
182.42
20
183.16
30
0
11
185.64
21
183.16
31
0
0
LINE
8
0
6
CONTINUOUS
10
185.64
20
183.16
30
0
11
185.64
21
180.15
31
0
0
LINE
8
0
6
CONTINUOUS
10
180.86
20
154.0
30
0
11
173.34
21
154.0
31
0
0
LINE
8
0
6
CONTINUOUS
10
173.34
20
154.0
30
0
11
175.36
21
151.22
31
0
0
LINE
8
0
6
CONTINUOUS
10
175.36
20
151.22
30
0
11
181.47
21
151.22
31
0
0
LINE
8
0
6
CONTINUOUS
10
181.47
20
151.22
30
0
11
182.64
21
149.2
31
0
0
LINE
8
0
6
CONTINUOUS
10
182.64
20
149.2
30
0
11
183.45
21
149.2
31
0
0
LINE
8
0
6
CONTINUOUS
10
183.45
20
149.2
30
0
11
183.45
21
150.0
31
0
0
LINE
8
0
6
CONTINUOUS
10
183.45
20
150.0
30
0
11
185.86
21
150.0
31
0
0
LINE
8
0
6
CONTINUOUS
10
185.86
20
150.0
30
0
11
185.86
21
147.27
31
0
0
LINE
8
0
6
CONTINUOUS
10
185.86
20
147.27
30
0
11
187.08
21
147.27
31
0
0
LINE
8
0
6
CONTINUOUS
10
187.08
20
147.27
30
0
11
191.18
21
152.06
31
0
0
ARC
8
0
6
CONTINUOUS
10
190.27739397161625
20
152.82006733749404
30
0
40
1.18
50
319.89990767895966
51
89.38789325245111
0
LINE
8
0
6
CONTINUOUS
10
190.29
20
154.0
30
0
11
184.39
21
154.0
31
0
0
LINE
8
0
6
CONTINUOUS
10
184.39
20
154.0
30
0
11
182.62
21
152.24
31
0
0
LINE
8
0
6
CONTINUOUS
10
182.62
20
152.24
30
0
11
180.86
21
154.0
31
0
0
LINE
8
0
6
CONTINUOUS
10
189.13
20
151.22
30
0
11
184.88
21
151.22
31
0
0
LINE
8
0
6
CONTINUOUS
10
184.88
20
151.22
30
0
11
184.88
21
152.59
31
0
0
LINE
8
0
6
CONTINUOUS
10
184.88
20
152.59
30
0
11
189.13
21
152.59
31
0
0
LINE
8
0
6
CONTINUOUS
10
189.13
20
152.59
30
0
11
189.13
21
151.22
31
0
0
LINE
8
0
6
CONTINUOUS
10
67.56
20
99.8
30
0
11
66.95
21
100.9
31
0
0
LINE
8
0
6
CONTINUOUS
10
66.95
20
100.9
30
0
11
63.37
21
100.9
31
0
0
LINE
8
0
6
CONTINUOUS
10
63.37
20
100.9
30
0
11
62.76
21
99.8
31
0
0
LINE
8
0
6
CONTINUOUS
10
62.76
20
99.8
30
0
11
63.56
21
99.8
31
0
0
LINE
8
0
6
CONTINUOUS
10
63.56
20
99.8
30
0
11
63.56
21
98.5
31
0
0
LINE
8
0
6
CONTINUOUS
10
63.56
20
98.5
30
0
11
60.88
21
98.5
31
0
0
LINE
8
0
6
CONTINUOUS
10
60.88
20
98.5
30
0
11
60.88
21
99.36
31
0
0
ARC
8
0
6
CONTINUOUS
10
60.350394545808015
20
99.33955341373012
30
0
40
0.53
50
2.210931857445828
51
169.07511813086194
0
LINE
8
0
6
CONTINUOUS
10
59.83
20
99.44
30
0
11
59.2
21
95.48
31
0
0
ARC
8
0
6
CONTINUOUS
10
56.757664007472414
20
96.01384913562194
30
0
40
2.5
50
284.1779568303837
51
347.67013387516204
0
LINE
8
0
6
CONTINUOUS
10
57.37
20
93.59
30
0
11
56.57
21
93.39
31
0
0
ARC
8
0
6
CONTINUOUS
10
56.71936259814913
20
92.92331936586767
30
0
40
0.49
50
107.74743299780903
51
279.4720307938147
0
LINE
8
0
6
CONTINUOUS
10
56.8
20
92.44
30
0
11
61.28
21
93.43
31
0
0
LINE
8
0
6
CONTINUOUS
10
61.28
20
93.43
30
0
11
62.22
21
93.43
31
0
0
LINE
8
0
6
CONTINUOUS
10
62.22
20
93.43
30
0
11
62.81
21
92.5
31
0
0
LINE
8
0
6
CONTINUOUS
10
62.81
20
92.5
30
0
11
69.6
21
92.5
31
0
0
LINE
8
0
6
CONTINUOUS
10
69.6
20
92.5
30
0
11
70.16
21
93.39
31
0
0
LINE
8
0
6
CONTINUOUS
10
70.16
20
93.39
30
0
11
70.16
21
98.0
31
0
0
ARC
8
0
6
CONTINUOUS
10
69.66000081154984
20
98.00090086024282
30
0
40
0.5
50
359.8967689644589
51
93.43990593212861
0
LINE
8
0
6
CONTINUOUS
10
69.63
20
98.5
30
0
11
66.76
21
98.5
31
0
0
LINE
8
0
6
CONTINUOUS
10
66.76
20
98.5
30
0
11
66.76
21
99.8
31
0
0
LINE
8
0
6
CONTINUOUS
10
66.76
20
99.8
30
0
11
67.56
21
99.8
31
0
0
LINE
8
0
6
CONTINUOUS
10
66.06
20
97.16
30
0
11
68.79
21
97.16
31
0
0
LINE
8
0
6
CONTINUOUS
10
68.79
20
97.16
30
0
11
68.79
21
93.69
31
0
0
LINE
8
0
6
CONTINUOUS
10
68.79
20
93.69
30
0
11
66.06
21
93.69
31
0
0
LINE
8
0
6
CONTINUOUS
10
66.06
20
93.69
30
0
11
66.06
21
97.16
31
0
0
LINE
8
0
6
CONTINUOUS
10
61.29
20
94.15
30
0
11
61.29
21
97.16
31
0
0
LINE
8
0
6
CONTINUOUS
10
61.29
20
97.16
30
0
11
64.5
21
97.16
31
0
0
LINE
8
0
6
CONTINUOUS
10
64.5
20
97.16
30
0
11
64.5
21
94.15
31
0
0
LINE
8
0
6
CONTINUOUS
10
64.5
20
94.15
30
0
11
61.29
21
94.15
31
0
0
LINE
8
0
6
CONTINUOUS
10
65.39
20
64.34
30
0
11
63.63
21
62.58
31
0
0
LINE
8
0
6
CONTINUOUS
10
63.63
20
62.58
30
0
11
61.86
21
64.34
31
0
0
LINE
8
0
6
CONTINUOUS
10
61.86
20
64.34
30
0
11
55.96
21
64.34
31
0
0
ARC
8
0
6
CONTINUOUS
10
55.97260602838376
20
63.160067337494056
30
0
40
1.18
50
90.6121067475496
51
220.10009232104113
0
LINE
8
0
6
CONTINUOUS
10
55.07
20
62.4
30
0
11
59.17
21
57.61
31
0
0
LINE
8
0
6
CONTINUOUS
10
59.17
20
57.61
30
0
11
60.39
21
57.61
31
0
0
LINE
8
0
6
CONTINUOUS
10
60.39
20
57.61
30
0
11
60.39
21
60.34
31
0
0
LINE
8
0
6
CONTINUOUS
10
60.39
20
60.34
30
0
11
62.8
21
60.34
31
0
0
LINE
8
0
6
CONTINUOUS
10
62.8
20
60.34
30
0
11
62.8
21
59.54
31
0
0
LINE
8
0
6
CONTINUOUS
10
62.8
20
59.54
30
0
11
63.61
21
59.54
31
0
0
LINE
8
0
6
CONTINUOUS
10
63.61
20
59.54
30
0
11
64.78
21
61.56
31
0
0
LINE
8
0
6
CONTINUOUS
10
64.78
20
61.56
30
0
11
70.89
21
61.56
31
0
0
LINE
8
0
6
CONTINUOUS
10
70.89
20
61.56
30
0
11
72.91
21
64.34
31
0
0
LINE
8
0
6
CONTINUOUS
10
72.91
20
64.34
30
0
11
65.39
21
64.34
31
0
0
LINE
8
0
6
CONTINUOUS
10
57.12
20
61.56
30
0
11
57.12
21
62.93
31
0
0
LINE
8
0
6
CONTINUOUS
10
57.12
20
62.93
30
0
11
61.37
21
62.93
31
0
0
LINE
8
0
6
CONTINUOUS
10
61.37
20
62.93
30
0
11
61.37
21
61.56
31
0
0
LINE
8
0
6
CONTINUOUS
10
61.37
20
61.56
30
0
11
57.12
21
61.56
31
0
0
ENDSEC
0
EOF