0
SECTION
2
HEADER
0
ENDSEC
0
SECTION
2
TABLES
0
TABLE
2
LTYPE
70
2
0
LTYPE
2
CONTINUOUS
70
0
3
Solid line
72
65
73
0
40
0.0
0
ENDTAB
0
TABLE
2
LAYER
70
1
0
LAYER
2
0
70
0
62
7
6
CONTINUOUS
0
ENDTAB
0
ENDSEC
0
SECTION
2
ENTITIES
0
LINE
8
0
6
CONTINUOUS
10
78.91
20
-32.45
30
0
11
78.91
21
48.11
31
0
0
LINE
8
0
6
CONTINUOUS
10
-29.59
20
-32.45
30
0
11
-29.59
21
48.11
31
0
0
LINE
8
0
6
CONTINUOUS
10
-21.09
20
-32.45
30
0
11
-21.09
21
48.11
31
0
0
LINE
8
0
6
CONTINUOUS
10
0.41
20
-32.45
30
0
11
0.41
21
48.11
31
0
0
LINE
8
0
6
CONTINUOUS
10
-29.61
20
-0.0
30
0
11
79.49
21
0.0
31
0
0
ARC
8
0
6
CONTINUOUS
10
-23.140000096150047
20
-4.971115428891811
30
0
40
6.47
50
102.31534798333826
51
179.99012219966548
0
LINE
8
0
6
CONTINUOUS
10
-29.61
20
-4.97
30
0
11
-29.61
21
-29.36
31
0
0
ARC
8
0
6
CONTINUOUS
10
-26.52000001084702
20
-29.360258910382985
30
0
40
3.09
50
179.9951991999241
51
269.2582865463332
0
LINE
8
0
6
CONTINUOUS
10
-26.56
20
-32.45
30
0
11
-21.09
21
-30.98
31
0
0
LINE
8
0
6
CONTINUOUS
10
-21.09
20
-30.98
30
0
11
-21.09
21
-28.33
31
0
0
ARC
8
0
6
CONTINUOUS
10
-21.84
20
-28.33
30
0
40
0.75
50
0.0
51
180.0
0
LINE
8
0
6
CONTINUOUS
10
-22.59
20
-28.33
30
0
11
-22.59
21
-29.83
31
0
0
LINE
8
0
6
CONTINUOUS
10
-22.59
20
-29.83
30
0
11
-26.19
21
-30.79
31
0
0
ARC
8
0
6
CONTINUOUS
10
-26.590000839842347
20
-29.32158730158761
30
0
40
1.5
50
179.93936953416153
51
285.0700953670625
0
LINE
8
0
6
CONTINUOUS
10
-28.09
20
-29.32
30
0
11
-28.09
21
-9.98
31
0
0
ARC
8
0
6
CONTINUOUS
10
-27.36231128911191
20
-10.038044293828381
30
0
40
0.73
50
104.08784145376109
51
175.43944192769138
0
LINE
8
0
6
CONTINUOUS
10
-27.54
20
-9.33
30
0
11
-22.59
21
-8.01
31
0
0
LINE
8
0
6
CONTINUOUS
10
-22.59
20
-8.01
30
0
11
-22.59
21
-10.09
31
0
0
ARC
8
0
6
CONTINUOUS
10
-21.84
20
-10.09
30
0
40
0.75
50
180.0
51
0.0
0
LINE
8
0
6
CONTINUOUS
10
-21.09
20
-10.09
30
0
11
-21.09
21
-7.6
31
0
0
LINE
8
0
6
CONTINUOUS
10
-21.09
20
-7.6
30
0
11
-20.19
21
-7.36
31
0
0
ARC
8
0
6
CONTINUOUS
10
-20.389897634850268
20
-6.626759974100383
30
0
40
0.76
50
285.24952426902075
51
95.29248317193733
0
ARC
8
0
6
CONTINUOUS
10
-20.810361666498224
20
-6.0629940482206335
30
0
40
0.4
50
28.84783533005937
51
182.43665758435804
0
LINE
8
0
6
CONTINUOUS
10
-21.21
20
-6.08
30
0
11
-27.38
21
-7.81
31
0
0
ARC
8
0
6
CONTINUOUS
10
-27.380070425978847
20
-7.10000000349283
30
0
40
0.71
50
180.80700921117784
51
270.0056832554404
0
LINE
8
0
6
CONTINUOUS
10
-28.09
20
-7.11
30
0
11
-28.09
21
-4.85
31
0
0
ARC
8
0
6
CONTINUOUS
10
-23.170707783072373
20
-4.933451090318165
30
0
40
4.92
50
104.95060522434339
51
179.02812508833358
0
LINE
8
0
6
CONTINUOUS
10
-24.44
20
-0.18
30
0
11
78.91
21
27.52
31
0
0
LINE
8
0
6
CONTINUOUS
10
78.91
20
27.52
30
0
11
78.91
21
34.49
31
0
0
LINE
8
0
6
CONTINUOUS
10
78.91
20
34.49
30
0
11
79.49
21
35.07
31
0
0
LINE
8
0
6
CONTINUOUS
10
79.49
20
35.07
30
0
11
78.91
21
35.65
31
0
0
LINE
8
0
6
CONTINUOUS
10
78.91
20
35.65
30
0
11
78.91
21
40.49
31
0
0
LINE
8
0
6
CONTINUOUS
10
78.91
20
40.49
30
0
11
79.49
21
41.07
31
0
0
LINE
8
0
6
CONTINUOUS
10
79.49
20
41.07
30
0
11
78.91
21
41.65
31
0
0
LINE
8
0
6
CONTINUOUS
10
78.91
20
41.65
30
0
11
78.91
21
43.51
31
0
0
LINE
8
0
6
CONTINUOUS
10
78.91
20
43.51
30
0
11
79.49
21
44.09
31
0
0
LINE
8
0
6
CONTINUOUS
10
79.49
20
44.09
30
0
11
78.91
21
44.67
31
0
0
LINE
8
0
6
CONTINUOUS
10
78.91
20
44.67
30
0
11
78.91
21
47.36
31
0
0
ARC
8
0
6
CONTINUOUS
10
78.16
20
47.36
30
0
40
0.75
50
0.0
51
180.0
0
LINE
8
0
6
CONTINUOUS
10
77.41
20
47.36
30
0
11
77.41
21
28.67
31
0
0
LINE
8
0
6
CONTINUOUS
10
77.41
20
28.67
30
0
11
-24.52
21
1.35
31
0
0
LINE
8
0
6
CONTINUOUS
10
-26.43
20
-2.9
30
0
11
-15.61
21
-0.0
31
0
0
LINE
8
0
6
CONTINUOUS
10
-15.61
20
-0.0
30
0
11
63.57
21
-0.0
31
0
0
LINE
8
0
6
CONTINUOUS
10
63.57
20
-0.0
30
0
11
63.57
21
-3.0
31
0
0
LINE
8
0
6
CONTINUOUS
10
63.57
20
-3.0
30
0
11
-15.21
21
-3.0
31
0
0
LINE
8
0
6
CONTINUOUS
10
-25.66
20
-5.8
30
0
11
-15.21
21
-3.0
31
0
0
LINE
8
0
6
CONTINUOUS
10
-26.43
20
-2.9
30
0
11
-25.66
21
-5.8
31
0
0
ENDSEC
0
EOF