0
SECTION
2
HEADER
0
ENDSEC
0
SECTION
2
TABLES
0
TABLE
2
LTYPE
70
2
0
LTYPE
2
CONTINUOUS
70
0
3
Solid line
72
65
73
0
40
0.0
0
ENDTAB
0
TABLE
2
LAYER
70
1
0
LAYER
2
0
70
0
62
7
6
CONTINUOUS
0
ENDTAB
0
ENDSEC
0
SECTION
2
ENTITIES
0
LINE
8
0
6
CONTINUOUS
10
0.0
20
-19.5
30
0
11
0.0
21
20.5
31
0
0
LINE
8
0
6
CONTINUOUS
10
-0.0
20
0.0
30
0
11
9.0
21
0.0
31
0
0
LINE
8
0
6
CONTINUOUS
10
9.0
20
-19.5
30
0
11
9.0
21
15.29
31
0
0
LINE
8
0
6
CONTINUOUS
10
9.0
20
15.29
30
0
11
0.0
21
20.5
31
0
0
LINE
8
0
6
CONTINUOUS
10
0.0
20
20.5
30
0
11
-0.0
21
18.77
31
0
0
LINE
8
0
6
CONTINUOUS
10
-0.0
20
18.77
30
0
11
7.5
21
14.42
31
0
0
LINE
8
0
6
CONTINUOUS
10
7.5
20
14.42
30
0
11
7.5
21
1.5
31
0
0
LINE
8
0
6
CONTINUOUS
10
7.5
20
1.5
30
0
11
1.5
21
1.5
31
0
0
LINE
8
0
6
CONTINUOUS
10
1.5
20
1.5
30
0
11
1.5
21
5.0
31
0
0
LINE
8
0
6
CONTINUOUS
10
1.5
20
5.0
30
0
11
0.0
21
5.0
31
0
0
LINE
8
0
6
CONTINUOUS
10
0.0
20
5.0
30
0
11
-0.0
21
0.0
31
0
0
LINE
8
0
6
CONTINUOUS
10
-0.0
20
0.0
30
0
11
7.5
21
0.0
31
0
0
LINE
8
0
6
CONTINUOUS
10
7.5
20
0.0
30
0
11
7.5
21
-14.5
31
0
0
LINE
8
0
6
CONTINUOUS
10
7.5
20
-14.5
30
0
11
5.0
21
-14.5
31
0
0
LINE
8
0
6
CONTINUOUS
10
5.0
20
-14.5
30
0
11
7.0
21
-14.0
31
0
0
LINE
8
0
6
CONTINUOUS
10
7.0
20
-14.0
30
0
11
7.0
21
-13.0
31
0
0
LINE
8
0
6
CONTINUOUS
10
7.0
20
-13.0
30
0
11
4.99
21
-11.46
31
0
0
LINE
8
0
6
CONTINUOUS
10
4.99
20
-11.46
30
0
11
4.99
21
-6.32
31
0
0
ARC
8
0
6
CONTINUOUS
10
4.495
20
-6.390533679898329
30
0
40
0.5
50
8.109614455994121
51
171.89038554400588
0
LINE
8
0
6
CONTINUOUS
10
4.0
20
-6.32
30
0
11
4.0
21
-19.5
31
0
0
LINE
8
0
6
CONTINUOUS
10
4.0
20
-19.5
30
0
11
5.0
21
-19.5
31
0
0
LINE
8
0
6
CONTINUOUS
10
5.0
20
-19.5
30
0
11
9.0
21
-19.5
31
0
0
ARC
8
0
6
CONTINUOUS
10
4.495
20
-6.390533679898329
30
0
40
0.5
50
8.109614455994121
51
171.89038554400588
0
LINE
8
0
6
CONTINUOUS
10
4.0
20
-6.32
30
0
11
4.0
21
-19.5
31
0
0
LINE
8
0
6
CONTINUOUS
10
4.0
20
-19.5
30
0
11
5.0
21
-19.5
31
0
0
LINE
8
0
6
CONTINUOUS
10
5.0
20
-19.5
30
0
11
9.0
21
-19.5
31
0
0
LINE
8
0
6
CONTINUOUS
10
9.0
20
-19.5
30
0
11
9.0
21
15.29
31
0
0
LINE
8
0
6
CONTINUOUS
10
9.0
20
15.29
30
0
11
-0.0
21
20.5
31
0
0
LINE
8
0
6
CONTINUOUS
10
0.0
20
20.5
30
0
11
-0.0
21
18.77
31
0
0
LINE
8
0
6
CONTINUOUS
10
-0.0
20
18.77
30
0
11
7.5
21
14.42
31
0
0
LINE
8
0
6
CONTINUOUS
10
7.5
20
14.42
30
0
11
7.5
21
1.5
31
0
0
LINE
8
0
6
CONTINUOUS
10
7.5
20
1.5
30
0
11
1.5
21
1.5
31
0
0
LINE
8
0
6
CONTINUOUS
10
1.5
20
1.5
30
0
11
1.5
21
5.0
31
0
0
LINE
8
0
6
CONTINUOUS
10
1.5
20
5.0
30
0
11
0.0
21
5.0
31
0
0
LINE
8
0
6
CONTINUOUS
10
0.0
20
5.0
30
0
11
-0.0
21
0.0
31
0
0
LINE
8
0
6
CONTINUOUS
10
-0.0
20
0.0
30
0
11
7.5
21
0.0
31
0
0
LINE
8
0
6
CONTINUOUS
10
7.5
20
0.0
30
0
11
7.5
21
-14.5
31
0
0
LINE
8
0
6
CONTINUOUS
10
7.5
20
-14.5
30
0
11
5.0
21
-14.5
31
0
0
LINE
8
0
6
CONTINUOUS
10
5.0
20
-14.5
30
0
11
7.0
21
-14.0
31
0
0
LINE
8
0
6
CONTINUOUS
10
7.0
20
-14.0
30
0
11
7.0
21
-13.0
31
0
0
LINE
8
0
6
CONTINUOUS
10
7.0
20
-13.0
30
0
11
4.99
21
-11.46
31
0
0
LINE
8
0
6
CONTINUOUS
10
4.99
20
-11.46
30
0
11
4.99
21
-6.32
31
0
0
LINE
8
0
6
CONTINUOUS
10
5.8
20
-15.5
30
0
11
8.0
21
-15.5
31
0
0
LINE
8
0
6
CONTINUOUS
10
8.0
20
-15.5
30
0
11
8.0
21
-16.5
31
0
0
LINE
8
0
6
CONTINUOUS
10
8.0
20
-16.5
30
0
11
5.8
21
-15.5
31
0
0
LINE
8
0
6
CONTINUOUS
10
5.8
20
-18.5
30
0
11
8.0
21
-17.5
31
0
0
LINE
8
0
6
CONTINUOUS
10
8.0
20
-17.5
30
0
11
8.0
21
-18.5
31
0
0
LINE
8
0
6
CONTINUOUS
10
8.0
20
-18.5
30
0
11
5.8
21
-18.5
31
0
0
LINE
8
0
6
CONTINUOUS
10
9.0
20
15.29
30
0
11
0.0
21
20.5
31
0
0
LINE
8
0
6
CONTINUOUS
10
-0.0
20
18.77
30
0
11
7.5
21
14.42
31
0
0
LINE
8
0
6
CONTINUOUS
10
7.5
20
14.42
30
0
11
7.5
21
1.5
31
0
0
LINE
8
0
6
CONTINUOUS
10
9.0
20
-19.5
30
0
11
9.0
21
15.29
31
0
0
LINE
8
0
6
CONTINUOUS
10
7.5
20
1.5
30
0
11
1.5
21
1.5
31
0
0
LINE
8
0
6
CONTINUOUS
10
-0.0
20
0.0
30
0
11
7.5
21
0.0
31
0
0
LINE
8
0
6
CONTINUOUS
10
1.5
20
1.5
30
0
11
1.5
21
5.0
31
0
0
LINE
8
0
6
CONTINUOUS
10
1.5
20
5.0
30
0
11
0.0
21
5.0
31
0
0
LINE
8
0
6
CONTINUOUS
10
7.5
20
0.0
30
0
11
7.5
21
-14.5
31
0
0
LINE
8
0
6
CONTINUOUS
10
7.5
20
-14.5
30
0
11
5.0
21
-14.5
31
0
0
LINE
8
0
6
CONTINUOUS
10
5.0
20
-14.5
30
0
11
5.0
21
-15.5
31
0
0
LINE
8
0
6
CONTINUOUS
10
5.8
20
-15.5
30
0
11
8.0
21
-15.5
31
0
0
LINE
8
0
6
CONTINUOUS
10
8.0
20
-15.5
30
0
11
8.0
21
-18.5
31
0
0
LINE
8
0
6
CONTINUOUS
10
8.0
20
-18.5
30
0
11
5.8
21
-18.5
31
0
0
LINE
8
0
6
CONTINUOUS
10
5.0
20
-18.25
30
0
11
5.0
21
-19.5
31
0
0
LINE
8
0
6
CONTINUOUS
10
5.0
20
-19.5
30
0
11
9.0
21
-19.5
31
0
0
LINE
8
0
6
CONTINUOUS
10
4.99
20
-11.46
30
0
11
4.99
21
-6.32
31
0
0
LINE
8
0
6
CONTINUOUS
10
4.0
20
-6.32
30
0
11
4.0
21
-19.5
31
0
0
LINE
8
0
6
CONTINUOUS
10
4.0
20
-19.5
30
0
11
5.0
21
-19.5
31
0
0
LINE
8
0
6
CONTINUOUS
10
5.0
20
-18.25
30
0
11
5.8
21
-18.25
31
0
0
LINE
8
0
6
CONTINUOUS
10
5.8
20
-15.75
30
0
11
5.0
21
-15.75
31
0
0
LINE
8
0
6
CONTINUOUS
10
5.0
20
-14.0
30
0
11
7.0
21
-14.0
31
0
0
LINE
8
0
6
CONTINUOUS
10
7.0
20
-14.0
30
0
11
7.0
21
-13.0
31
0
0
LINE
8
0
6
CONTINUOUS
10
7.0
20
-13.0
30
0
11
4.99
21
-11.46
31
0
0
LINE
8
0
6
CONTINUOUS
10
5.0
20
-15.75
30
0
11
5.0
21
-14.0
31
0
0
LINE
8
0
6
CONTINUOUS
10
8.0
20
-16.5
30
0
11
5.8
21
-15.5
31
0
0
LINE
8
0
6
CONTINUOUS
10
5.8
20
-18.5
30
0
11
8.0
21
-17.5
31
0
0
ARC
8
0
6
CONTINUOUS
10
4.495
20
-6.390533679898329
30
0
40
0.5
50
8.109614455994121
51
171.89038554400588
0
LINE
8
0
6
CONTINUOUS
10
-0.0
20
20.5
30
0
11
-0.0
21
18.77
31
0
0
LINE
8
0
6
CONTINUOUS
10
0.0
20
5.0
30
0
11
-0.0
21
0.0
31
0
0
ENDSEC
0
EOF