0
SECTION
2
HEADER
0
ENDSEC
0
SECTION
2
TABLES
0
TABLE
2
LTYPE
70
3
0
LTYPE
2
CONTINUOUS
70
0
3
Solid line
72
65
73
0
40
0.0
0
LTYPE
2
HIDDEN
70
0
3
hidden
72
65
73
2
40
9.524999999999999
49
6.35
49
-3.175
0
ENDTAB
0
TABLE
2
LAYER
70
1
0
LAYER
2
0
70
0
62
7
6
CONTINUOUS
0
ENDTAB
0
ENDSEC
0
SECTION
2
ENTITIES
0
LINE
8
0
6
CONTINUOUS
10
0.0
20
-53.0
30
0
11
-134.18
21
-53.0
31
0
0
LINE
8
0
6
CONTINUOUS
10
0.0
20
-70.0
30
0
11
-134.18
21
-70.0
31
0
0
LINE
8
0
6
CONTINUOUS
10
-114.0
20
0.0
30
0
11
-114.0
21
-100.0
31
0
0
LINE
8
0
6
CONTINUOUS
10
-51.0
20
0.0
30
0
11
-51.0
21
-100.0
31
0
0
LINE
8
0
6
CONTINUOUS
10
0.0
20
-100.0
30
0
11
-134.18
21
-100.0
31
0
0
LINE
8
0
6
CONTINUOUS
10
0.0
20
0.0
30
0
11
0.0
21
-100.0
31
0
0
LINE
8
0
6
CONTINUOUS
10
-134.18
20
0.0
30
0
11
0.0
21
0.0
31
0
0
LINE
8
0
6
CONTINUOUS
10
0.0
20
-50.0
30
0
11
0.0
21
0.0
31
0
0
LINE
8
0
6
CONTINUOUS
10
0.0
20
0.0
30
0
11
-114.0
21
0.0
31
0
0
LINE
8
0
6
CONTINUOUS
10
-114.0
20
0.0
30
0
11
-114.0
21
-27.84
31
0
0
LINE
8
0
6
CONTINUOUS
10
-114.0
20
-27.84
30
0
11
-111.93
21
-28.39
31
0
0
LINE
8
0
6
CONTINUOUS
10
-111.93
20
-28.39
30
0
11
-114.0
21
-36.12
31
0
0
LINE
8
0
6
CONTINUOUS
10
-114.0
20
-36.12
30
0
11
-114.0
21
-47.1
31
0
0
ARC
8
0
6
CONTINUOUS
10
-111.00000027643861
20
-47.101287878743086
30
0
40
3.0
50
179.97540332707672
51
265.0281337313558
0
LINE
8
0
6
CONTINUOUS
10
-111.26
20
-50.09
30
0
11
-78.0
21
-53.0
31
0
0
LINE
8
0
6
CONTINUOUS
10
-78.0
20
-53.0
30
0
11
-61.0
21
-70.0
31
0
0
LINE
8
0
6
CONTINUOUS
10
-61.0
20
-70.0
30
0
11
-51.0
21
-70.0
31
0
0
LINE
8
0
6
CONTINUOUS
10
-51.0
20
-70.0
30
0
11
-51.0
21
-48.0
31
0
0
LINE
8
0
6
CONTINUOUS
10
-51.0
20
-48.0
30
0
11
-41.0
21
-48.0
31
0
0
LINE
8
0
6
CONTINUOUS
10
-41.0
20
-48.0
30
0
11
-41.0
21
-53.0
31
0
0
LINE
8
0
6
CONTINUOUS
10
-41.0
20
-53.0
30
0
11
-3.0
21
-53.0
31
0
0
ARC
8
0
6
CONTINUOUS
10
-3.0
20
-50.0
30
0
40
3.0
50
270.0
51
0.0
0
LINE
8
0
6
CONTINUOUS
10
-114.0
20
-100.0
30
0
11
-114.0
21
-50.0
31
0
0
LINE
8
0
6
CONTINUOUS
10
0.0
20
-100.0
30
0
11
-114.0
21
-100.0
31
0
0
LINE
8
0
6
CONTINUOUS
10
-51.0
20
-70.0
30
0
11
-51.0
21
-100.0
31
0
0
LINE
8
0
6
CONTINUOUS
10
0.0
20
-14.0
30
0
11
0.0
21
-100.0
31
0
0
LINE
8
0
6
HIDDEN
10
-51.0
20
-53.0
30
0
11
-114.0
21
-36.12
31
0
0
LINE
8
0
6
HIDDEN
10
-41.0
20
-47.4
30
0
11
-114.0
21
-27.84
31
0
0
LINE
8
0
6
HIDDEN
10
-41.0
20
-47.4
30
0
11
-41.0
21
-48.0
31
0
0
ENDSEC
0
EOF