0
SECTION
2
HEADER
0
ENDSEC
0
SECTION
2
TABLES
0
TABLE
2
LTYPE
70
2
0
LTYPE
2
CONTINUOUS
70
0
3
Solid line
72
65
73
0
40
0.0
0
ENDTAB
0
TABLE
2
LAYER
70
1
0
LAYER
2
0
70
0
62
7
6
CONTINUOUS
0
ENDTAB
0
ENDSEC
0
SECTION
2
ENTITIES
0
LINE
8
0
6
CONTINUOUS
10
-766.26
20
1026.46
30
0
11
-766.26
21
983.46
31
0
0
LINE
8
0
6
CONTINUOUS
10
-946.26
20
983.46
30
0
11
-946.26
21
1026.46
31
0
0
LINE
8
0
6
CONTINUOUS
10
-764.26
20
988.46
30
0
11
-948.26
21
988.46
31
0
0
LINE
8
0
6
CONTINUOUS
10
-764.26
20
983.46
30
0
11
-764.26
21
1026.46
31
0
0
LINE
8
0
6
CONTINUOUS
10
-948.26
20
983.46
30
0
11
-948.26
21
1026.46
31
0
0
LINE
8
0
6
CONTINUOUS
10
-764.26
20
1026.46
30
0
11
-948.26
21
1026.46
31
0
0
LINE
8
0
6
CONTINUOUS
10
-781.26
20
983.46
30
0
11
-781.26
21
1026.46
31
0
0
LINE
8
0
6
CONTINUOUS
10
-931.26
20
983.46
30
0
11
-931.26
21
1026.46
31
0
0
LINE
8
0
6
CONTINUOUS
10
-948.26
20
983.46
30
0
11
-764.26
21
983.46
31
0
0
LINE
8
0
6
CONTINUOUS
10
-767.76
20
988.46
30
0
11
-766.39
21
1023.34
31
0
0
ARC
8
0
6
CONTINUOUS
10
-769.3875986539765
20
1023.4600096232725
30
0
40
3.0
50
357.7073732858565
51
89.85487624388115
0
LINE
8
0
6
CONTINUOUS
10
-769.38
20
1026.46
30
0
11
-943.14
21
1026.46
31
0
0
ARC
8
0
6
CONTINUOUS
10
-943.1424009992317
20
1023.4600009607998
30
0
40
3.0
50
89.95414428757508
51
182.29246114057725
0
LINE
8
0
6
CONTINUOUS
10
-946.14
20
1023.34
30
0
11
-944.76
21
988.46
31
0
0
LINE
8
0
6
CONTINUOUS
10
-944.76
20
988.46
30
0
11
-767.76
21
988.46
31
0
0
LINE
8
0
6
CONTINUOUS
10
-781.26
20
983.46
30
0
11
-764.26
21
983.46
31
0
0
LINE
8
0
6
CONTINUOUS
10
-781.26
20
988.46
30
0
11
-781.26
21
983.46
31
0
0
LINE
8
0
6
CONTINUOUS
10
-764.26
20
988.46
30
0
11
-781.26
21
988.46
31
0
0
LINE
8
0
6
CONTINUOUS
10
-764.26
20
983.46
30
0
11
-764.26
21
988.46
31
0
0
LINE
8
0
6
CONTINUOUS
10
-781.26
20
983.46
30
0
11
-764.26
21
988.46
31
0
0
LINE
8
0
6
CONTINUOUS
10
-781.26
20
988.46
30
0
11
-764.26
21
983.46
31
0
0
LINE
8
0
6
CONTINUOUS
10
-931.26
20
983.46
30
0
11
-948.26
21
983.46
31
0
0
LINE
8
0
6
CONTINUOUS
10
-931.26
20
988.46
30
0
11
-931.26
21
983.46
31
0
0
LINE
8
0
6
CONTINUOUS
10
-948.26
20
988.46
30
0
11
-931.26
21
988.46
31
0
0
LINE
8
0
6
CONTINUOUS
10
-948.26
20
983.46
30
0
11
-948.26
21
988.46
31
0
0
LINE
8
0
6
CONTINUOUS
10
-948.26
20
988.46
30
0
11
-931.26
21
983.46
31
0
0
LINE
8
0
6
CONTINUOUS
10
-931.26
20
988.46
30
0
11
-948.26
21
983.46
31
0
0
ENDSEC
0
EOF