0
SECTION
2
HEADER
0
ENDSEC
0
SECTION
2
TABLES
0
TABLE
2
LTYPE
70
2
0
LTYPE
2
CONTINUOUS
70
0
3
Solid line
72
65
73
0
40
0.0
0
ENDTAB
0
TABLE
2
LAYER
70
1
0
LAYER
2
0
70
0
62
7
6
CONTINUOUS
0
ENDTAB
0
ENDSEC
0
SECTION
2
ENTITIES
0
LINE
8
0
6
CONTINUOUS
10
-3.5
20
-11.54
30
0
11
-3.5
21
6.2
31
0
0
LINE
8
0
6
CONTINUOUS
10
0.0
20
-11.54
30
0
11
0.0
21
6.2
31
0
0
LINE
8
0
6
CONTINUOUS
10
-3.5
20
0.0
30
0
11
3.58
21
0.0
31
0
0
LINE
8
0
6
CONTINUOUS
10
-3.5
20
-9.96
30
0
11
-3.5
21
-11.18
31
0
0
ARC
8
0
6
CONTINUOUS
10
-3.2302607535470287
20
-11.168136656332084
30
0
40
0.27
50
182.51829045025823
51
344.5640767923044
0
LINE
8
0
6
CONTINUOUS
10
-2.97
20
-11.24
30
0
11
-2.78
21
-10.4
31
0
0
LINE
8
0
6
CONTINUOUS
10
-2.78
20
-10.4
30
0
11
-1.86
21
-9.16
31
0
0
ARC
8
0
6
CONTINUOUS
10
-1.145007101222003
20
-9.689985994812162
30
0
40
0.89
50
90.32143093043109
51
143.45243745452228
0
LINE
8
0
6
CONTINUOUS
10
-1.15
20
-8.8
30
0
11
0.0
21
-8.8
31
0
0
LINE
8
0
6
CONTINUOUS
10
0.0
20
-8.8
30
0
11
0.0
21
-3.3
31
0
0
LINE
8
0
6
CONTINUOUS
10
0.0
20
-3.3
30
0
11
1.6
21
-3.3
31
0
0
LINE
8
0
6
CONTINUOUS
10
1.6
20
-3.3
30
0
11
1.6
21
-4.47
31
0
0
LINE
8
0
6
CONTINUOUS
10
1.6
20
-4.47
30
0
11
2.26
21
-4.04
31
0
0
LINE
8
0
6
CONTINUOUS
10
2.26
20
-4.04
30
0
11
3.36
21
-2.94
31
0
0
ARC
8
0
6
CONTINUOUS
10
2.9147903833488944
20
-2.480230060528773
30
0
40
0.64
50
314.0782409753562
51
27.97650579485097
0
LINE
8
0
6
CONTINUOUS
10
3.48
20
-2.18
30
0
11
3.0
21
-1.28
31
0
0
LINE
8
0
6
CONTINUOUS
10
3.0
20
-1.28
30
0
11
3.0
21
1.27
31
0
0
LINE
8
0
6
CONTINUOUS
10
3.0
20
1.27
30
0
11
3.5
21
2.16
31
0
0
ARC
8
0
6
CONTINUOUS
10
2.9506581842982738
20
2.4684210912397697
30
0
40
0.63
50
330.68851246679293
51
44.50077427039
0
LINE
8
0
6
CONTINUOUS
10
3.4
20
2.91
30
0
11
2.28
21
4.02
31
0
0
LINE
8
0
6
CONTINUOUS
10
2.28
20
4.02
30
0
11
1.6
21
4.44
31
0
0
LINE
8
0
6
CONTINUOUS
10
1.6
20
4.44
30
0
11
1.6
21
3.3
31
0
0
LINE
8
0
6
CONTINUOUS
10
1.6
20
3.3
30
0
11
0.0
21
3.3
31
0
0
LINE
8
0
6
CONTINUOUS
10
0.0
20
3.3
30
0
11
0.0
21
6.2
31
0
0
LINE
8
0
6
CONTINUOUS
10
0.0
20
6.2
30
0
11
-2.61
21
6.2
31
0
0
LINE
8
0
6
CONTINUOUS
10
-2.61
20
6.2
30
0
11
-3.5
21
5.56
31
0
0
LINE
8
0
6
CONTINUOUS
10
-3.5
20
5.56
30
0
11
-2.3
21
4.48
31
0
0
LINE
8
0
6
CONTINUOUS
10
-2.3
20
4.48
30
0
11
-3.49
21
3.3
31
0
0
LINE
8
0
6
CONTINUOUS
10
-3.49
20
3.3
30
0
11
-2.3
21
2.2
31
0
0
LINE
8
0
6
CONTINUOUS
10
-2.3
20
2.2
30
0
11
-3.49
21
1.1
31
0
0
LINE
8
0
6
CONTINUOUS
10
-3.49
20
1.1
30
0
11
-2.31
21
0.01
31
0
0
LINE
8
0
6
CONTINUOUS
10
-2.31
20
0.01
30
0
11
-3.49
21
-1.06
31
0
0
LINE
8
0
6
CONTINUOUS
10
-3.49
20
-1.06
30
0
11
-2.31
21
-2.19
31
0
0
LINE
8
0
6
CONTINUOUS
10
-2.31
20
-2.19
30
0
11
-3.49
21
-3.29
31
0
0
LINE
8
0
6
CONTINUOUS
10
-3.49
20
-3.29
30
0
11
-2.31
21
-4.39
31
0
0
LINE
8
0
6
CONTINUOUS
10
-2.31
20
-4.39
30
0
11
-3.49
21
-5.49
31
0
0
LINE
8
0
6
CONTINUOUS
10
-3.49
20
-5.49
30
0
11
-2.1
21
-6.46
31
0
0
LINE
8
0
6
CONTINUOUS
10
-2.1
20
-6.46
30
0
11
-1.71
21
-7.61
31
0
0
LINE
8
0
6
CONTINUOUS
10
-1.71
20
-7.61
30
0
11
-3.03
21
-8.53
31
0
0
LINE
8
0
6
CONTINUOUS
10
-3.03
20
-8.53
30
0
11
-3.5
21
-9.96
31
0
0
LINE
8
0
6
CONTINUOUS
10
1.9
20
1.59
30
0
11
1.9
21
-1.59
31
0
0
ARC
8
0
6
CONTINUOUS
10
1.3900000000000001
20
-1.5900000000000003
30
0
40
0.51
50
270.0
51
2.4945526913439357e-14
0
LINE
8
0
6
CONTINUOUS
10
1.39
20
-2.1
30
0
11
0.45
21
-2.1
31
0
0
ARC
8
0
6
CONTINUOUS
10
0.45000000000000007
20
-1.55
30
0
40
0.55
50
180.0
51
270.0
0
LINE
8
0
6
CONTINUOUS
10
-0.1
20
-1.55
30
0
11
-0.1
21
1.56
31
0
0
ARC
8
0
6
CONTINUOUS
10
0.44
20
1.56
30
0
40
0.54
50
90.0
51
180.0
0
LINE
8
0
6
CONTINUOUS
10
0.44
20
2.1
30
0
11
1.39
21
2.1
31
0
0
ARC
8
0
6
CONTINUOUS
10
1.3900000000000001
20
1.5900000000000003
30
0
40
0.51
50
360.0
51
90.00000000000003
0
ENDSEC
0
EOF