0
SECTION
2
HEADER
0
ENDSEC
0
SECTION
2
TABLES
0
TABLE
2
LTYPE
70
2
0
LTYPE
2
CONTINUOUS
70
0
3
Solid line
72
65
73
0
40
0.0
0
ENDTAB
0
TABLE
2
LAYER
70
1
0
LAYER
2
0
70
0
62
7
6
CONTINUOUS
0
ENDTAB
0
ENDSEC
0
SECTION
2
ENTITIES
0
LINE
8
0
6
CONTINUOUS
10
-7.2
20
32.0
30
0
11
82.8
21
32.0
31
0
0
LINE
8
0
6
CONTINUOUS
10
10.8
20
-14.0
30
0
11
10.8
21
66.0
31
0
0
LINE
8
0
6
CONTINUOUS
10
42.9
20
-14.0
30
0
11
42.9
21
66.0
31
0
0
LINE
8
0
6
CONTINUOUS
10
10.7
20
-14.0
30
0
11
10.7
21
66.0
31
0
0
LINE
8
0
6
CONTINUOUS
10
-7.2
20
66.0
30
0
11
82.8
21
66.0
31
0
0
LINE
8
0
6
CONTINUOUS
10
-7.2
20
51.0
30
0
11
82.8
21
51.0
31
0
0
LINE
8
0
6
CONTINUOUS
10
-7.2
20
-14.0
30
0
11
82.8
21
-14.0
31
0
0
LINE
8
0
6
CONTINUOUS
10
82.8
20
-14.0
30
0
11
82.8
21
66.0
31
0
0
LINE
8
0
6
CONTINUOUS
10
-7.2
20
-14.0
30
0
11
-7.2
21
66.0
31
0
0
LINE
8
0
6
CONTINUOUS
10
32.8
20
-14.0
30
0
11
32.8
21
66.0
31
0
0
LINE
8
0
6
CONTINUOUS
10
-7.2
20
-4.0
30
0
11
82.8
21
-4.0
31
0
0
LINE
8
0
6
CONTINUOUS
10
31.3
20
66.0
30
0
11
-4.2
21
66.0
31
0
0
ARC
8
0
6
CONTINUOUS
10
-4.2
20
63.0
30
0
40
3.0
50
90.0
51
180.0
0
LINE
8
0
6
CONTINUOUS
10
-7.2
20
63.0
30
0
11
-7.2
21
-11.0
31
0
0
ARC
8
0
6
CONTINUOUS
10
-4.2
20
-11.0
30
0
40
3.0
50
180.0
51
270.0
0
LINE
8
0
6
CONTINUOUS
10
-4.2
20
-14.0
30
0
11
9.2
21
-14.0
31
0
0
ARC
8
0
6
CONTINUOUS
10
9.2
20
-12.5
30
0
40
1.5
50
270.0
51
0.0
0
LINE
8
0
6
CONTINUOUS
10
10.7
20
-12.5
30
0
11
10.7
21
-4.0
31
0
0
LINE
8
0
6
CONTINUOUS
10
10.7
20
-4.0
30
0
11
20.9
21
-4.0
31
0
0
LINE
8
0
6
CONTINUOUS
10
20.9
20
-4.0
30
0
11
20.9
21
-12.5
31
0
0
ARC
8
0
6
CONTINUOUS
10
22.4
20
-12.5
30
0
40
1.5
50
180.0
51
270.0
0
LINE
8
0
6
CONTINUOUS
10
22.4
20
-14.0
30
0
11
31.2
21
-14.0
31
0
0
ARC
8
0
6
CONTINUOUS
10
31.200000000000003
20
-12.5
30
0
40
1.5
50
269.9999999999999
51
0.0
0
LINE
8
0
6
CONTINUOUS
10
32.7
20
-12.5
30
0
11
32.7
21
-4.0
31
0
0
LINE
8
0
6
CONTINUOUS
10
32.7
20
-4.0
30
0
11
42.9
21
-4.0
31
0
0
LINE
8
0
6
CONTINUOUS
10
42.9
20
-4.0
30
0
11
42.9
21
-12.5
31
0
0
ARC
8
0
6
CONTINUOUS
10
44.4
20
-12.5
30
0
40
1.5
50
180.0
51
270.0
0
LINE
8
0
6
CONTINUOUS
10
44.4
20
-14.0
30
0
11
79.8
21
-14.0
31
0
0
ARC
8
0
6
CONTINUOUS
10
79.8
20
-11.0
30
0
40
3.0
50
270.0
51
0.0
0
LINE
8
0
6
CONTINUOUS
10
82.8
20
-11.0
30
0
11
82.8
21
30.0
31
0
0
ARC
8
0
6
CONTINUOUS
10
80.8
20
30.0
30
0
40
2.0
50
0.0
51
90.0
0
LINE
8
0
6
CONTINUOUS
10
80.8
20
32.0
30
0
11
54.8
21
32.0
31
0
0
LINE
8
0
6
CONTINUOUS
10
54.8
20
32.0
30
0
11
54.8
21
49.5
31
0
0
ARC
8
0
6
CONTINUOUS
10
53.3
20
49.5
30
0
40
1.5
50
0.0
51
90.0
0
LINE
8
0
6
CONTINUOUS
10
53.3
20
51.0
30
0
11
39.18
21
51.0
31
0
0
ARC
8
0
6
CONTINUOUS
10
39.17561120950241
20
50.00000963078739
30
0
40
1.0
50
89.74854002006774
51
164.93050931099987
0
LINE
8
0
6
CONTINUOUS
10
38.21
20
50.26
30
0
11
36.8
21
45.0
31
0
0
LINE
8
0
6
CONTINUOUS
10
36.8
20
45.0
30
0
11
32.8
21
45.0
31
0
0
LINE
8
0
6
CONTINUOUS
10
32.8
20
45.0
30
0
11
32.8
21
64.5
31
0
0
ARC
8
0
6
CONTINUOUS
10
31.299999999999997
20
64.5
30
0
40
1.5
50
0.0
51
89.99999999999987
0
ARC
8
0
6
CONTINUOUS
10
-4.2
20
-11.0
30
0
40
3.0
50
180.0
51
270.0
0
ARC
8
0
6
CONTINUOUS
10
9.2
20
-12.5
30
0
40
1.5
50
270.0
51
0.0
0
ARC
8
0
6
CONTINUOUS
10
22.4
20
-12.5
30
0
40
1.5
50
180.0
51
270.0
0
ARC
8
0
6
CONTINUOUS
10
31.200000000000003
20
-12.5
30
0
40
1.5
50
269.9999999999999
51
0.0
0
ARC
8
0
6
CONTINUOUS
10
44.4
20
-12.5
30
0
40
1.5
50
180.0
51
270.0
0
ARC
8
0
6
CONTINUOUS
10
-4.2
20
63.0
30
0
40
3.0
50
90.0
51
180.0
0
ARC
8
0
6
CONTINUOUS
10
79.8
20
-11.0
30
0
40
3.0
50
270.0
51
0.0
0
ARC
8
0
6
CONTINUOUS
10
80.8
20
30.0
30
0
40
2.0
50
0.0
51
90.0
0
ARC
8
0
6
CONTINUOUS
10
53.3
20
49.5
30
0
40
1.5
50
0.0
51
90.0
0
ARC
8
0
6
CONTINUOUS
10
31.299999999999997
20
64.5
30
0
40
1.5
50
0.0
51
89.99999999999987
0
ARC
8
0
6
CONTINUOUS
10
39.17561120950241
20
50.00000963078739
30
0
40
1.0
50
89.74854002006774
51
164.93050931099987
0
LINE
8
0
6
CONTINUOUS
10
20.9
20
-12.5
30
0
11
20.9
21
-4.0
31
0
0
LINE
8
0
6
CONTINUOUS
10
20.9
20
-4.0
30
0
11
10.7
21
-4.0
31
0
0
LINE
8
0
6
CONTINUOUS
10
10.7
20
-4.0
30
0
11
10.7
21
-12.5
31
0
0
LINE
8
0
6
CONTINUOUS
10
42.9
20
-12.5
30
0
11
42.9
21
-4.0
31
0
0
LINE
8
0
6
CONTINUOUS
10
42.9
20
-4.0
30
0
11
32.7
21
-4.0
31
0
0
LINE
8
0
6
CONTINUOUS
10
32.7
20
-4.0
30
0
11
32.7
21
-12.5
31
0
0
LINE
8
0
6
CONTINUOUS
10
9.2
20
-14.0
30
0
11
-4.2
21
-14.0
31
0
0
LINE
8
0
6
CONTINUOUS
10
31.2
20
-14.0
30
0
11
22.4
21
-14.0
31
0
0
LINE
8
0
6
CONTINUOUS
10
-7.2
20
-11.0
30
0
11
-7.2
21
63.0
31
0
0
LINE
8
0
6
CONTINUOUS
10
79.8
20
-14.0
30
0
11
44.4
21
-14.0
31
0
0
LINE
8
0
6
CONTINUOUS
10
82.8
20
30.0
30
0
11
82.8
21
-11.0
31
0
0
LINE
8
0
6
CONTINUOUS
10
54.8
20
49.5
30
0
11
54.8
21
32.0
31
0
0
LINE
8
0
6
CONTINUOUS
10
54.8
20
32.0
30
0
11
80.8
21
32.0
31
0
0
LINE
8
0
6
CONTINUOUS
10
-4.2
20
66.0
30
0
11
31.3
21
66.0
31
0
0
LINE
8
0
6
CONTINUOUS
10
32.8
20
64.5
30
0
11
32.8
21
45.0
31
0
0
LINE
8
0
6
CONTINUOUS
10
32.8
20
45.0
30
0
11
36.8
21
45.0
31
0
0
LINE
8
0
6
CONTINUOUS
10
36.8
20
45.0
30
0
11
38.21
21
50.26
31
0
0
LINE
8
0
6
CONTINUOUS
10
39.18
20
51.0
30
0
11
53.3
21
51.0
31
0
0
ENDSEC
0
EOF