0
SECTION
2
HEADER
0
ENDSEC
0
SECTION
2
TABLES
0
TABLE
2
LTYPE
70
2
0
LTYPE
2
CONTINUOUS
70
0
3
Solid line
72
65
73
0
40
0.0
0
ENDTAB
0
TABLE
2
LAYER
70
1
0
LAYER
2
0
70
0
62
7
6
CONTINUOUS
0
ENDTAB
0
ENDSEC
0
SECTION
2
ENTITIES
0
LINE
8
0
6
CONTINUOUS
10
-7.2
20
48.0
30
0
11
82.8
21
48.0
31
0
0
LINE
8
0
6
CONTINUOUS
10
10.8
20
-9.0
30
0
11
10.8
21
66.0
31
0
0
LINE
8
0
6
CONTINUOUS
10
42.9
20
-9.0
30
0
11
42.9
21
66.0
31
0
0
LINE
8
0
6
CONTINUOUS
10
10.7
20
-9.0
30
0
11
10.7
21
66.0
31
0
0
LINE
8
0
6
CONTINUOUS
10
-7.2
20
66.0
30
0
11
82.8
21
66.0
31
0
0
LINE
8
0
6
CONTINUOUS
10
-7.2
20
-9.0
30
0
11
82.8
21
-9.0
31
0
0
LINE
8
0
6
CONTINUOUS
10
82.8
20
-9.0
30
0
11
82.8
21
66.0
31
0
0
LINE
8
0
6
CONTINUOUS
10
-7.2
20
-9.0
30
0
11
-7.2
21
66.0
31
0
0
LINE
8
0
6
CONTINUOUS
10
32.8
20
-9.0
30
0
11
32.8
21
66.0
31
0
0
LINE
8
0
6
CONTINUOUS
10
-7.2
20
1.0
30
0
11
82.8
21
1.0
31
0
0
LINE
8
0
6
CONTINUOUS
10
65.21
20
66.0
30
0
11
63.8
21
64.59
31
0
0
LINE
8
0
6
CONTINUOUS
10
63.8
20
64.59
30
0
11
63.8
21
48.0
31
0
0
LINE
8
0
6
CONTINUOUS
10
63.8
20
48.0
30
0
11
79.8
21
48.0
31
0
0
ARC
8
0
6
CONTINUOUS
10
79.8
20
51.0
30
0
40
3.0
50
270.0
51
0.0
0
LINE
8
0
6
CONTINUOUS
10
82.8
20
51.0
30
0
11
82.8
21
58.99
31
0
0
ARC
8
0
6
CONTINUOUS
10
79.80000777014041
20
58.983172058723774
30
0
40
3.0
50
0.13040418521467828
51
74.93009153921726
0
LINE
8
0
6
CONTINUOUS
10
80.58
20
61.88
30
0
11
65.21
21
66.0
31
0
0
LINE
8
0
6
CONTINUOUS
10
31.3
20
66.0
30
0
11
-4.2
21
66.0
31
0
0
ARC
8
0
6
CONTINUOUS
10
-4.2
20
63.0
30
0
40
3.0
50
90.0
51
180.0
0
LINE
8
0
6
CONTINUOUS
10
-7.2
20
63.0
30
0
11
-7.2
21
-6.0
31
0
0
ARC
8
0
6
CONTINUOUS
10
-4.2
20
-6.0
30
0
40
3.0
50
180.0
51
270.0
0
LINE
8
0
6
CONTINUOUS
10
-4.2
20
-9.0
30
0
11
9.2
21
-9.0
31
0
0
ARC
8
0
6
CONTINUOUS
10
9.2
20
-7.5
30
0
40
1.5
50
270.0
51
0.0
0
LINE
8
0
6
CONTINUOUS
10
10.7
20
-7.5
30
0
11
10.7
21
1.0
31
0
0
LINE
8
0
6
CONTINUOUS
10
10.7
20
1.0
30
0
11
20.9
21
1.0
31
0
0
LINE
8
0
6
CONTINUOUS
10
20.9
20
1.0
30
0
11
20.9
21
-7.5
31
0
0
ARC
8
0
6
CONTINUOUS
10
22.4
20
-7.5
30
0
40
1.5
50
180.0
51
270.0
0
LINE
8
0
6
CONTINUOUS
10
22.4
20
-9.0
30
0
11
31.2
21
-9.0
31
0
0
ARC
8
0
6
CONTINUOUS
10
31.200000000000003
20
-7.5
30
0
40
1.5
50
269.9999999999999
51
0.0
0
LINE
8
0
6
CONTINUOUS
10
32.7
20
-7.5
30
0
11
32.7
21
1.0
31
0
0
LINE
8
0
6
CONTINUOUS
10
32.7
20
1.0
30
0
11
42.9
21
1.0
31
0
0
LINE
8
0
6
CONTINUOUS
10
42.9
20
1.0
30
0
11
42.9
21
-7.5
31
0
0
ARC
8
0
6
CONTINUOUS
10
44.4
20
-7.5
30
0
40
1.5
50
180.0
51
270.0
0
LINE
8
0
6
CONTINUOUS
10
44.4
20
-9.0
30
0
11
79.8
21
-9.0
31
0
0
ARC
8
0
6
CONTINUOUS
10
79.8
20
-6.0
30
0
40
3.0
50
270.0
51
0.0
0
LINE
8
0
6
CONTINUOUS
10
82.8
20
-6.0
30
0
11
82.8
21
45.0
31
0
0
ARC
8
0
6
CONTINUOUS
10
79.8
20
45.0
30
0
40
3.0
50
0.0
51
90.0
0
LINE
8
0
6
CONTINUOUS
10
79.8
20
48.0
30
0
11
74.8
21
48.0
31
0
0
LINE
8
0
6
CONTINUOUS
10
74.8
20
48.0
30
0
11
74.8
21
44.0
31
0
0
LINE
8
0
6
CONTINUOUS
10
74.8
20
44.0
30
0
11
70.8
21
44.0
31
0
0
LINE
8
0
6
CONTINUOUS
10
70.8
20
44.0
30
0
11
70.8
21
48.0
31
0
0
LINE
8
0
6
CONTINUOUS
10
70.8
20
48.0
30
0
11
42.8
21
48.0
31
0
0
LINE
8
0
6
CONTINUOUS
10
42.8
20
48.0
30
0
11
42.8
21
43.5
31
0
0
LINE
8
0
6
CONTINUOUS
10
42.8
20
43.5
30
0
11
37.8
21
43.5
31
0
0
LINE
8
0
6
CONTINUOUS
10
37.8
20
43.5
30
0
11
37.8
21
48.0
31
0
0
LINE
8
0
6
CONTINUOUS
10
37.8
20
48.0
30
0
11
32.8
21
48.0
31
0
0
LINE
8
0
6
CONTINUOUS
10
32.8
20
48.0
30
0
11
32.8
21
64.5
31
0
0
ARC
8
0
6
CONTINUOUS
10
31.299999999999997
20
64.5
30
0
40
1.5
50
0.0
51
89.99999999999987
0
ARC
8
0
6
CONTINUOUS
10
79.8
20
51.0
30
0
40
3.0
50
270.0
51
0.0
0
ARC
8
0
6
CONTINUOUS
10
-4.2
20
63.0
30
0
40
3.0
50
90.0
51
180.0
0
ARC
8
0
6
CONTINUOUS
10
31.299999999999997
20
64.5
30
0
40
1.5
50
0.0
51
89.99999999999987
0
ARC
8
0
6
CONTINUOUS
10
-4.2
20
-6.0
30
0
40
3.0
50
180.0
51
270.0
0
ARC
8
0
6
CONTINUOUS
10
9.2
20
-7.5
30
0
40
1.5
50
270.0
51
0.0
0
ARC
8
0
6
CONTINUOUS
10
22.4
20
-7.5
30
0
40
1.5
50
180.0
51
270.0
0
ARC
8
0
6
CONTINUOUS
10
31.200000000000003
20
-7.5
30
0
40
1.5
50
269.9999999999999
51
0.0
0
ARC
8
0
6
CONTINUOUS
10
44.4
20
-7.5
30
0
40
1.5
50
180.0
51
270.0
0
ARC
8
0
6
CONTINUOUS
10
79.8
20
-6.0
30
0
40
3.0
50
270.0
51
0.0
0
ARC
8
0
6
CONTINUOUS
10
79.8
20
45.0
30
0
40
3.0
50
0.0
51
90.0
0
LINE
8
0
6
CONTINUOUS
10
82.8
20
58.99
30
0
11
82.8
21
51.0
31
0
0
LINE
8
0
6
CONTINUOUS
10
-4.2
20
66.0
30
0
11
31.3
21
66.0
31
0
0
LINE
8
0
6
CONTINUOUS
10
20.9
20
-7.5
30
0
11
20.9
21
1.0
31
0
0
LINE
8
0
6
CONTINUOUS
10
20.9
20
1.0
30
0
11
10.7
21
1.0
31
0
0
LINE
8
0
6
CONTINUOUS
10
10.7
20
1.0
30
0
11
10.7
21
-7.5
31
0
0
LINE
8
0
6
CONTINUOUS
10
42.9
20
-7.5
30
0
11
42.9
21
1.0
31
0
0
LINE
8
0
6
CONTINUOUS
10
42.9
20
1.0
30
0
11
32.7
21
1.0
31
0
0
LINE
8
0
6
CONTINUOUS
10
32.7
20
1.0
30
0
11
32.7
21
-7.5
31
0
0
LINE
8
0
6
CONTINUOUS
10
9.2
20
-9.0
30
0
11
-4.2
21
-9.0
31
0
0
LINE
8
0
6
CONTINUOUS
10
31.2
20
-9.0
30
0
11
22.4
21
-9.0
31
0
0
LINE
8
0
6
CONTINUOUS
10
-7.2
20
-6.0
30
0
11
-7.2
21
63.0
31
0
0
LINE
8
0
6
CONTINUOUS
10
79.8
20
-9.0
30
0
11
44.4
21
-9.0
31
0
0
LINE
8
0
6
CONTINUOUS
10
32.8
20
64.5
30
0
11
32.8
21
48.0
31
0
0
LINE
8
0
6
CONTINUOUS
10
32.8
20
48.0
30
0
11
37.8
21
48.0
31
0
0
LINE
8
0
6
CONTINUOUS
10
37.8
20
48.0
30
0
11
37.8
21
43.5
31
0
0
LINE
8
0
6
CONTINUOUS
10
37.8
20
43.5
30
0
11
42.8
21
43.5
31
0
0
LINE
8
0
6
CONTINUOUS
10
42.8
20
43.5
30
0
11
42.8
21
48.0
31
0
0
LINE
8
0
6
CONTINUOUS
10
42.8
20
48.0
30
0
11
70.8
21
48.0
31
0
0
LINE
8
0
6
CONTINUOUS
10
70.8
20
48.0
30
0
11
70.8
21
44.0
31
0
0
LINE
8
0
6
CONTINUOUS
10
70.8
20
44.0
30
0
11
74.8
21
44.0
31
0
0
LINE
8
0
6
CONTINUOUS
10
80.58
20
61.88
30
0
11
65.21
21
66.0
31
0
0
LINE
8
0
6
CONTINUOUS
10
65.21
20
66.0
30
0
11
63.8
21
64.59
31
0
0
LINE
8
0
6
CONTINUOUS
10
63.8
20
64.59
30
0
11
63.8
21
48.0
31
0
0
LINE
8
0
6
CONTINUOUS
10
63.8
20
48.0
30
0
11
79.8
21
48.0
31
0
0
LINE
8
0
6
CONTINUOUS
10
79.8
20
48.0
30
0
11
74.8
21
48.0
31
0
0
LINE
8
0
6
CONTINUOUS
10
74.8
20
48.0
30
0
11
74.8
21
44.0
31
0
0
LINE
8
0
6
CONTINUOUS
10
82.8
20
45.0
30
0
11
82.8
21
-6.0
31
0
0
ARC
8
0
6
CONTINUOUS
10
79.80000777014041
20
58.983172058723774
30
0
40
3.0
50
0.13040418521467828
51
74.93009153921726
0
ENDSEC
0
EOF