0
SECTION
2
HEADER
0
ENDSEC
0
SECTION
2
TABLES
0
TABLE
2
LTYPE
70
2
0
LTYPE
2
CONTINUOUS
70
0
3
Solid line
72
65
73
0
40
0.0
0
ENDTAB
0
TABLE
2
LAYER
70
1
0
LAYER
2
0
70
0
62
7
6
CONTINUOUS
0
ENDTAB
0
ENDSEC
0
SECTION
2
ENTITIES
0
LINE
8
0
6
CONTINUOUS
10
65.1
20
-3.32
30
0
11
65.1
21
-78.12
31
0
0
LINE
8
0
6
CONTINUOUS
10
5.1
20
-3.32
30
0
11
5.1
21
-78.12
31
0
0
LINE
8
0
6
CONTINUOUS
10
32.2
20
-78.12
30
0
11
32.2
21
-3.32
31
0
0
LINE
8
0
6
CONTINUOUS
10
-43.9
20
-70.32
30
0
11
72.1
21
-70.32
31
0
0
LINE
8
0
6
CONTINUOUS
10
-43.9
20
-66.32
30
0
11
72.1
21
-66.32
31
0
0
LINE
8
0
6
CONTINUOUS
10
-43.9
20
-3.32
30
0
11
72.1
21
-3.32
31
0
0
LINE
8
0
6
CONTINUOUS
10
72.1
20
-78.12
30
0
11
72.1
21
-3.32
31
0
0
LINE
8
0
6
CONTINUOUS
10
23.1
20
-78.12
30
0
11
23.1
21
-3.32
31
0
0
LINE
8
0
6
CONTINUOUS
10
-3.9
20
-78.12
30
0
11
-3.9
21
-3.32
31
0
0
LINE
8
0
6
CONTINUOUS
10
-43.9
20
-78.12
30
0
11
-43.9
21
-3.32
31
0
0
LINE
8
0
6
CONTINUOUS
10
-36.9
20
-78.12
30
0
11
-36.9
21
-3.32
31
0
0
LINE
8
0
6
CONTINUOUS
10
-43.9
20
-13.32
30
0
11
72.1
21
-13.32
31
0
0
LINE
8
0
6
CONTINUOUS
10
-3.9
20
-3.32
30
0
11
-40.9
21
-3.32
31
0
0
ARC
8
0
6
CONTINUOUS
10
-40.9
20
-6.32
30
0
40
3.0
50
90.0
51
180.0
0
LINE
8
0
6
CONTINUOUS
10
-43.9
20
-6.32
30
0
11
-43.9
21
-67.32
31
0
0
ARC
8
0
6
CONTINUOUS
10
-40.9
20
-67.32
30
0
40
3.0
50
180.0
51
270.0
0
LINE
8
0
6
CONTINUOUS
10
-40.9
20
-70.32
30
0
11
-38.4
21
-70.32
31
0
0
ARC
8
0
6
CONTINUOUS
10
-38.4
20
-68.82
30
0
40
1.5
50
270.0
51
0.0
0
LINE
8
0
6
CONTINUOUS
10
-36.9
20
-68.82
30
0
11
-36.9
21
-66.32
31
0
0
LINE
8
0
6
CONTINUOUS
10
-36.9
20
-66.32
30
0
11
5.1
21
-66.32
31
0
0
LINE
8
0
6
CONTINUOUS
10
5.1
20
-66.32
30
0
11
5.1
21
-68.82
31
0
0
ARC
8
0
6
CONTINUOUS
10
6.6
20
-68.82
30
0
40
1.5
50
180.0
51
270.0
0
LINE
8
0
6
CONTINUOUS
10
6.6
20
-70.32
30
0
11
21.6
21
-70.32
31
0
0
ARC
8
0
6
CONTINUOUS
10
21.6
20
-68.82
30
0
40
1.5
50
270.0
51
0.0
0
LINE
8
0
6
CONTINUOUS
10
23.1
20
-68.82
30
0
11
23.1
21
-66.32
31
0
0
LINE
8
0
6
CONTINUOUS
10
23.1
20
-66.32
30
0
11
65.1
21
-66.32
31
0
0
LINE
8
0
6
CONTINUOUS
10
65.1
20
-66.32
30
0
11
65.1
21
-68.82
31
0
0
ARC
8
0
6
CONTINUOUS
10
66.6
20
-68.82
30
0
40
1.5
50
180.0
51
270.0
0
LINE
8
0
6
CONTINUOUS
10
66.6
20
-70.32
30
0
11
69.1
21
-70.32
31
0
0
ARC
8
0
6
CONTINUOUS
10
69.1
20
-67.32
30
0
40
3.0
50
270.0
51
0.0
0
LINE
8
0
6
CONTINUOUS
10
72.1
20
-67.32
30
0
11
72.1
21
-6.32
31
0
0
ARC
8
0
6
CONTINUOUS
10
69.1
20
-6.32
30
0
40
3.0
50
0.0
51
90.0
0
LINE
8
0
6
CONTINUOUS
10
69.1
20
-3.32
30
0
11
32.1
21
-3.32
31
0
0
LINE
8
0
6
CONTINUOUS
10
32.1
20
-3.32
30
0
11
32.1
21
-13.32
31
0
0
LINE
8
0
6
CONTINUOUS
10
32.1
20
-13.32
30
0
11
-3.9
21
-13.32
31
0
0
LINE
8
0
6
CONTINUOUS
10
-3.9
20
-13.32
30
0
11
-3.9
21
-3.32
31
0
0
ARC
8
0
6
CONTINUOUS
10
-40.9
20
-6.32
30
0
40
3.0
50
90.0
51
180.0
0
ARC
8
0
6
CONTINUOUS
10
69.1
20
-6.32
30
0
40
3.0
50
0.0
51
90.0
0
ARC
8
0
6
CONTINUOUS
10
-40.9
20
-67.32
30
0
40
3.0
50
180.0
51
270.0
0
ARC
8
0
6
CONTINUOUS
10
-38.4
20
-68.82
30
0
40
1.5
50
270.0
51
0.0
0
ARC
8
0
6
CONTINUOUS
10
21.6
20
-68.82
30
0
40
1.5
50
270.0
51
0.0
0
ARC
8
0
6
CONTINUOUS
10
66.6
20
-68.82
30
0
40
1.5
50
180.0
51
270.0
0
ARC
8
0
6
CONTINUOUS
10
69.1
20
-67.32
30
0
40
3.0
50
270.0
51
0.0
0
ARC
8
0
6
CONTINUOUS
10
6.6
20
-68.82
30
0
40
1.5
50
180.0
51
270.0
0
LINE
8
0
6
CONTINUOUS
10
-40.9
20
-3.32
30
0
11
-3.9
21
-3.32
31
0
0
LINE
8
0
6
CONTINUOUS
10
-3.9
20
-3.32
30
0
11
-3.9
21
-13.32
31
0
0
LINE
8
0
6
CONTINUOUS
10
-3.9
20
-13.32
30
0
11
32.1
21
-13.32
31
0
0
LINE
8
0
6
CONTINUOUS
10
32.1
20
-13.32
30
0
11
32.1
21
-3.32
31
0
0
LINE
8
0
6
CONTINUOUS
10
32.1
20
-3.32
30
0
11
69.1
21
-3.32
31
0
0
LINE
8
0
6
CONTINUOUS
10
65.1
20
-68.82
30
0
11
65.1
21
-66.32
31
0
0
LINE
8
0
6
CONTINUOUS
10
65.1
20
-66.32
30
0
11
23.1
21
-66.32
31
0
0
LINE
8
0
6
CONTINUOUS
10
23.1
20
-66.32
30
0
11
23.1
21
-68.82
31
0
0
LINE
8
0
6
CONTINUOUS
10
-40.9
20
-70.32
30
0
11
-38.4
21
-70.32
31
0
0
LINE
8
0
6
CONTINUOUS
10
5.1
20
-68.82
30
0
11
5.1
21
-66.32
31
0
0
LINE
8
0
6
CONTINUOUS
10
5.1
20
-66.32
30
0
11
-36.9
21
-66.32
31
0
0
LINE
8
0
6
CONTINUOUS
10
-36.9
20
-66.32
30
0
11
-36.9
21
-68.82
31
0
0
LINE
8
0
6
CONTINUOUS
10
6.6
20
-70.32
30
0
11
21.6
21
-70.32
31
0
0
LINE
8
0
6
CONTINUOUS
10
66.6
20
-70.32
30
0
11
69.1
21
-70.32
31
0
0
LINE
8
0
6
CONTINUOUS
10
72.1
20
-67.32
30
0
11
72.1
21
-6.32
31
0
0
LINE
8
0
6
CONTINUOUS
10
-43.9
20
-6.32
30
0
11
-43.9
21
-67.32
31
0
0
ARC
8
0
6
CONTINUOUS
10
-40.9
20
-67.32
30
0
40
3.0
50
180.0
51
270.0
0
LINE
8
0
6
CONTINUOUS
10
-40.9
20
-70.32
30
0
11
-38.4
21
-70.32
31
0
0
ARC
8
0
6
CONTINUOUS
10
-38.4
20
-68.82
30
0
40
1.5
50
270.0
51
0.0
0
LINE
8
0
6
CONTINUOUS
10
-36.9
20
-68.82
30
0
11
-36.9
21
-66.32
31
0
0
LINE
8
0
6
CONTINUOUS
10
-36.9
20
-66.32
30
0
11
5.1
21
-66.32
31
0
0
LINE
8
0
6
CONTINUOUS
10
5.1
20
-66.32
30
0
11
5.1
21
-68.82
31
0
0
ARC
8
0
6
CONTINUOUS
10
6.6
20
-68.82
30
0
40
1.5
50
180.0
51
270.0
0
LINE
8
0
6
CONTINUOUS
10
6.6
20
-70.32
30
0
11
21.6
21
-70.32
31
0
0
ARC
8
0
6
CONTINUOUS
10
21.6
20
-68.82
30
0
40
1.5
50
270.0
51
0.0
0
LINE
8
0
6
CONTINUOUS
10
23.1
20
-68.82
30
0
11
23.1
21
-66.32
31
0
0
LINE
8
0
6
CONTINUOUS
10
23.1
20
-66.32
30
0
11
65.1
21
-66.32
31
0
0
LINE
8
0
6
CONTINUOUS
10
65.1
20
-66.32
30
0
11
65.1
21
-68.82
31
0
0
ARC
8
0
6
CONTINUOUS
10
66.6
20
-68.82
30
0
40
1.5
50
180.0
51
270.0
0
LINE
8
0
6
CONTINUOUS
10
66.6
20
-70.32
30
0
11
69.1
21
-70.32
31
0
0
ARC
8
0
6
CONTINUOUS
10
69.1
20
-67.32
30
0
40
3.0
50
270.0
51
0.0
0
LINE
8
0
6
CONTINUOUS
10
72.1
20
-67.32
30
0
11
72.1
21
-6.32
31
0
0
ARC
8
0
6
CONTINUOUS
10
69.1
20
-6.32
30
0
40
3.0
50
0.0
51
90.0
0
LINE
8
0
6
CONTINUOUS
10
69.1
20
-3.32
30
0
11
32.1
21
-3.32
31
0
0
LINE
8
0
6
CONTINUOUS
10
32.1
20
-3.32
30
0
11
32.1
21
-13.32
31
0
0
LINE
8
0
6
CONTINUOUS
10
32.1
20
-13.32
30
0
11
-3.9
21
-13.32
31
0
0
LINE
8
0
6
CONTINUOUS
10
-3.9
20
-13.32
30
0
11
-3.9
21
-3.32
31
0
0
LINE
8
0
6
CONTINUOUS
10
-3.9
20
-3.32
30
0
11
-40.9
21
-3.32
31
0
0
ARC
8
0
6
CONTINUOUS
10
-40.9
20
-6.32
30
0
40
3.0
50
90.0
51
180.0
0
LINE
8
0
6
CONTINUOUS
10
-43.9
20
-6.32
30
0
11
-43.9
21
-67.32
31
0
0
LINE
8
0
6
CONTINUOUS
10
50.6
20
-78.12
30
0
11
52.1
21
-78.12
31
0
0
LINE
8
0
6
CONTINUOUS
10
52.1
20
-78.12
30
0
11
54.4
21
-70.32
31
0
0
LINE
8
0
6
CONTINUOUS
10
54.4
20
-70.32
30
0
11
64.9
21
-70.32
31
0
0
LINE
8
0
6
CONTINUOUS
10
64.9
20
-70.32
30
0
11
64.9
21
-68.32
31
0
0
LINE
8
0
6
CONTINUOUS
10
64.9
20
-68.32
30
0
11
63.9
21
-66.32
31
0
0
LINE
8
0
6
CONTINUOUS
10
63.9
20
-66.32
30
0
11
62.9
21
-66.32
31
0
0
LINE
8
0
6
CONTINUOUS
10
62.9
20
-66.32
30
0
11
62.9
21
-68.92
31
0
0
LINE
8
0
6
CONTINUOUS
10
62.9
20
-68.92
30
0
11
53.9
21
-68.92
31
0
0
LINE
8
0
6
CONTINUOUS
10
53.9
20
-68.92
30
0
11
53.9
21
-66.32
31
0
0
LINE
8
0
6
CONTINUOUS
10
53.9
20
-66.32
30
0
11
51.9
21
-66.32
31
0
0
LINE
8
0
6
CONTINUOUS
10
51.9
20
-66.32
30
0
11
51.9
21
-66.82
31
0
0
LINE
8
0
6
CONTINUOUS
10
51.9
20
-66.82
30
0
11
47.9
21
-66.82
31
0
0
LINE
8
0
6
CONTINUOUS
10
47.9
20
-66.82
30
0
11
47.9
21
-66.32
31
0
0
LINE
8
0
6
CONTINUOUS
10
47.9
20
-66.32
30
0
11
45.9
21
-66.32
31
0
0
LINE
8
0
6
CONTINUOUS
10
45.9
20
-66.32
30
0
11
45.9
21
-66.82
31
0
0
LINE
8
0
6
CONTINUOUS
10
45.9
20
-66.82
30
0
11
42.3
21
-66.82
31
0
0
LINE
8
0
6
CONTINUOUS
10
42.3
20
-66.82
30
0
11
42.3
21
-66.32
31
0
0
LINE
8
0
6
CONTINUOUS
10
42.3
20
-66.32
30
0
11
40.3
21
-66.32
31
0
0
LINE
8
0
6
CONTINUOUS
10
40.3
20
-66.32
30
0
11
40.3
21
-66.82
31
0
0
LINE
8
0
6
CONTINUOUS
10
40.3
20
-66.82
30
0
11
36.3
21
-66.82
31
0
0
LINE
8
0
6
CONTINUOUS
10
36.3
20
-66.82
30
0
11
36.3
21
-66.32
31
0
0
LINE
8
0
6
CONTINUOUS
10
36.3
20
-66.32
30
0
11
34.3
21
-66.32
31
0
0
LINE
8
0
6
CONTINUOUS
10
34.3
20
-66.32
30
0
11
34.3
21
-68.92
31
0
0
LINE
8
0
6
CONTINUOUS
10
34.3
20
-68.92
30
0
11
25.3
21
-68.92
31
0
0
LINE
8
0
6
CONTINUOUS
10
25.3
20
-68.92
30
0
11
25.3
21
-66.32
31
0
0
LINE
8
0
6
CONTINUOUS
10
25.3
20
-66.32
30
0
11
24.3
21
-66.32
31
0
0
LINE
8
0
6
CONTINUOUS
10
24.3
20
-66.32
30
0
11
23.3
21
-68.32
31
0
0
LINE
8
0
6
CONTINUOUS
10
23.3
20
-68.32
30
0
11
23.3
21
-70.32
31
0
0
LINE
8
0
6
CONTINUOUS
10
23.3
20
-70.32
30
0
11
33.8
21
-70.32
31
0
0
LINE
8
0
6
CONTINUOUS
10
33.8
20
-70.32
30
0
11
36.1
21
-78.12
31
0
0
LINE
8
0
6
CONTINUOUS
10
36.1
20
-78.12
30
0
11
37.6
21
-78.12
31
0
0
LINE
8
0
6
CONTINUOUS
10
50.6
20
-78.12
30
0
11
49.1
21
-75.52
31
0
0
LINE
8
0
6
CONTINUOUS
10
49.1
20
-75.52
30
0
11
49.1
21
-75.02
31
0
0
LINE
8
0
6
CONTINUOUS
10
49.1
20
-75.02
30
0
11
51.1
21
-75.02
31
0
0
LINE
8
0
6
CONTINUOUS
10
51.1
20
-75.02
30
0
11
51.1
21
-69.02
31
0
0
LINE
8
0
6
CONTINUOUS
10
51.1
20
-69.02
30
0
11
49.1
21
-69.02
31
0
0
LINE
8
0
6
CONTINUOUS
10
49.1
20
-69.02
30
0
11
49.1
21
-68.52
31
0
0
LINE
8
0
6
CONTINUOUS
10
49.1
20
-68.52
30
0
11
39.1
21
-68.52
31
0
0
LINE
8
0
6
CONTINUOUS
10
39.1
20
-68.52
30
0
11
39.1
21
-69.02
31
0
0
LINE
8
0
6
CONTINUOUS
10
39.1
20
-69.02
30
0
11
37.1
21
-69.02
31
0
0
LINE
8
0
6
CONTINUOUS
10
37.1
20
-69.02
30
0
11
37.1
21
-75.02
31
0
0
LINE
8
0
6
CONTINUOUS
10
37.1
20
-75.02
30
0
11
39.1
21
-75.02
31
0
0
LINE
8
0
6
CONTINUOUS
10
39.1
20
-75.02
30
0
11
39.1
21
-75.52
31
0
0
LINE
8
0
6
CONTINUOUS
10
39.1
20
-75.52
30
0
11
37.6
21
-78.12
31
0
0
ENDSEC
0
EOF