0
SECTION
2
HEADER
0
ENDSEC
0
SECTION
2
TABLES
0
TABLE
2
LTYPE
70
2
0
LTYPE
2
CONTINUOUS
70
0
3
Solid line
72
65
73
0
40
0.0
0
ENDTAB
0
TABLE
2
LAYER
70
1
0
LAYER
2
0
70
0
62
7
6
CONTINUOUS
0
ENDTAB
0
ENDSEC
0
SECTION
2
ENTITIES
0
LINE
8
0
6
CONTINUOUS
10
0.0
20
-6.0
30
0
11
0.0
21
22.0
31
0
0
LINE
8
0
6
CONTINUOUS
10
-9.6
20
0.0
30
0
11
14.0
21
0.0
31
0
0
ARC
8
0
6
CONTINUOUS
10
-8.8
20
-5.199999978926576
30
0
40
0.8
50
180.0000015092728
51
359.9999984907272
0
LINE
8
0
6
CONTINUOUS
10
-8.0
20
-5.2
30
0
11
-8.0
21
-2.6
31
0
0
LINE
8
0
6
CONTINUOUS
10
-8.0
20
-2.6
30
0
11
-1.6
21
-2.6
31
0
0
LINE
8
0
6
CONTINUOUS
10
-1.6
20
-2.6
30
0
11
-1.6
21
-5.2
31
0
0
ARC
8
0
6
CONTINUOUS
10
-0.8
20
-5.2
30
0
40
0.8
50
180.0
51
0.0
0
LINE
8
0
6
CONTINUOUS
10
0.0
20
-5.2
30
0
11
0.0
21
0.0
31
0
0
LINE
8
0
6
CONTINUOUS
10
0.0
20
0.0
30
0
11
14.0
21
0.0
31
0
0
LINE
8
0
6
CONTINUOUS
10
14.0
20
0.0
30
0
11
14.0
21
2.0
31
0
0
LINE
8
0
6
CONTINUOUS
10
14.0
20
2.0
30
0
11
-0.4
21
2.0
31
0
0
ARC
8
0
6
CONTINUOUS
10
-0.40000000000000024
20
0.8
30
0
40
1.2
50
89.99999999999999
51
180.0
0
LINE
8
0
6
CONTINUOUS
10
-1.6
20
0.8
30
0
11
-1.6
21
-1.0
31
0
0
LINE
8
0
6
CONTINUOUS
10
-1.6
20
-1.0
30
0
11
-8.0
21
-1.0
31
0
0
LINE
8
0
6
CONTINUOUS
10
-8.0
20
-1.0
30
0
11
-8.0
21
21.2
31
0
0
ARC
8
0
6
CONTINUOUS
10
-8.8
20
21.199999978926574
30
0
40
0.8
50
1.5092729385492477e-06
51
179.99999849072705
0
LINE
8
0
6
CONTINUOUS
10
-9.6
20
21.2
30
0
11
-9.6
21
-5.2
31
0
0
ARC
8
0
6
CONTINUOUS
10
-8.8
20
-5.199999978926576
30
0
40
0.8
50
180.0000015092728
51
359.9999984907272
0
ARC
8
0
6
CONTINUOUS
10
-0.8
20
-5.2
30
0
40
0.8
50
180.0
51
0.0
0
ARC
8
0
6
CONTINUOUS
10
-8.8
20
21.199999978926574
30
0
40
0.8
50
1.5092729385492477e-06
51
179.99999849072705
0
ARC
8
0
6
CONTINUOUS
10
-0.40000000000000024
20
0.8
30
0
40
1.2
50
89.99999999999999
51
180.0
0
LINE
8
0
6
CONTINUOUS
10
0.0
20
-5.2
30
0
11
0.0
21
0.0
31
0
0
LINE
8
0
6
CONTINUOUS
10
0.0
20
-0.0
30
0
11
14.0
21
-0.0
31
0
0
LINE
8
0
6
CONTINUOUS
10
14.0
20
-0.0
30
0
11
14.0
21
2.0
31
0
0
LINE
8
0
6
CONTINUOUS
10
14.0
20
2.0
30
0
11
-0.4
21
2.0
31
0
0
LINE
8
0
6
CONTINUOUS
10
-1.6
20
0.8
30
0
11
-1.6
21
-1.0
31
0
0
LINE
8
0
6
CONTINUOUS
10
-1.6
20
-1.0
30
0
11
-8.0
21
-1.0
31
0
0
LINE
8
0
6
CONTINUOUS
10
-8.0
20
-1.0
30
0
11
-8.0
21
21.2
31
0
0
LINE
8
0
6
CONTINUOUS
10
-8.0
20
-5.2
30
0
11
-8.0
21
-2.6
31
0
0
LINE
8
0
6
CONTINUOUS
10
-8.0
20
-2.6
30
0
11
-1.6
21
-2.6
31
0
0
LINE
8
0
6
CONTINUOUS
10
-1.6
20
-2.6
30
0
11
-1.6
21
-5.2
31
0
0
LINE
8
0
6
CONTINUOUS
10
-9.6
20
21.2
30
0
11
-9.6
21
-5.2
31
0
0
ENDSEC
0
EOF