0
SECTION
2
HEADER
0
ENDSEC
0
SECTION
2
TABLES
0
TABLE
2
LTYPE
70
3
0
LTYPE
2
CONTINUOUS
70
0
3
Solid line
72
65
73
0
40
0.0
0
LTYPE
2
HIDDEN
70
0
3
hidden
72
65
73
2
40
9.524999999999999
49
6.35
49
-3.175
0
ENDTAB
0
TABLE
2
LAYER
70
1
0
LAYER
2
0
70
0
62
7
6
CONTINUOUS
0
ENDTAB
0
ENDSEC
0
SECTION
2
ENTITIES
0
LINE
8
0
6
CONTINUOUS
10
10.8
20
-6.97
30
0
11
10.8
21
68.03
31
0
0
LINE
8
0
6
CONTINUOUS
10
42.9
20
-6.97
30
0
11
42.9
21
68.03
31
0
0
LINE
8
0
6
CONTINUOUS
10
10.7
20
-6.97
30
0
11
10.7
21
68.03
31
0
0
LINE
8
0
6
CONTINUOUS
10
-7.2
20
68.03
30
0
11
60.8
21
68.03
31
0
0
LINE
8
0
6
CONTINUOUS
10
-7.2
20
50.0
30
0
11
60.8
21
50.0
31
0
0
LINE
8
0
6
CONTINUOUS
10
-7.2
20
-6.97
30
0
11
60.8
21
-6.97
31
0
0
LINE
8
0
6
CONTINUOUS
10
60.8
20
-6.97
30
0
11
60.8
21
68.03
31
0
0
LINE
8
0
6
CONTINUOUS
10
-7.2
20
-6.97
30
0
11
-7.2
21
68.03
31
0
0
LINE
8
0
6
CONTINUOUS
10
41.8
20
-6.97
30
0
11
41.8
21
68.03
31
0
0
LINE
8
0
6
CONTINUOUS
10
-7.2
20
3.03
30
0
11
60.8
21
3.03
31
0
0
LINE
8
0
6
CONTINUOUS
10
60.8
20
53.03
30
0
11
60.8
21
61.01
31
0
0
ARC
8
0
6
CONTINUOUS
10
57.8000016787279
20
61.01317369888825
30
0
40
3.0
50
359.93938680478
51
74.9299710583555
0
LINE
8
0
6
CONTINUOUS
10
58.58
20
63.91
30
0
11
43.21
21
68.03
31
0
0
LINE
8
0
6
CONTINUOUS
10
43.21
20
68.03
30
0
11
41.8
21
66.61
31
0
0
LINE
8
0
6
CONTINUOUS
10
41.8
20
66.61
30
0
11
41.8
21
50.03
31
0
0
LINE
8
0
6
CONTINUOUS
10
41.8
20
50.03
30
0
11
57.8
21
50.03
31
0
0
ARC
8
0
6
CONTINUOUS
10
57.8
20
53.03
30
0
40
3.0
50
270.0
51
0.0
0
ARC
8
0
6
CONTINUOUS
10
57.8
20
47.03
30
0
40
3.0
50
0.0
51
90.0
0
LINE
8
0
6
CONTINUOUS
10
57.8
20
50.03
30
0
11
52.8
21
50.03
31
0
0
LINE
8
0
6
CONTINUOUS
10
52.8
20
50.03
30
0
11
52.8
21
46.03
31
0
0
LINE
8
0
6
CONTINUOUS
10
52.8
20
46.03
30
0
11
48.8
21
46.03
31
0
0
LINE
8
0
6
CONTINUOUS
10
48.8
20
46.03
30
0
11
48.8
21
50.03
31
0
0
LINE
8
0
6
CONTINUOUS
10
48.8
20
50.03
30
0
11
20.8
21
50.03
31
0
0
LINE
8
0
6
CONTINUOUS
10
20.8
20
50.03
30
0
11
20.8
21
45.53
31
0
0
LINE
8
0
6
CONTINUOUS
10
20.8
20
45.53
30
0
11
15.8
21
45.53
31
0
0
LINE
8
0
6
CONTINUOUS
10
15.8
20
45.53
30
0
11
15.8
21
50.03
31
0
0
LINE
8
0
6
CONTINUOUS
10
15.8
20
50.03
30
0
11
10.8
21
50.03
31
0
0
LINE
8
0
6
CONTINUOUS
10
10.8
20
50.03
30
0
11
10.8
21
66.61
31
0
0
LINE
8
0
6
CONTINUOUS
10
10.8
20
66.61
30
0
11
9.39
21
68.03
31
0
0
LINE
8
0
6
CONTINUOUS
10
9.39
20
68.03
30
0
11
-5.23
21
62.71
31
0
0
ARC
8
0
6
CONTINUOUS
10
-4.20000092732607
20
59.89235880384126
30
0
40
3.0
50
110.08007053907559
51
180.04504983957628
0
LINE
8
0
6
CONTINUOUS
10
-7.2
20
59.89
30
0
11
-7.2
21
-3.97
31
0
0
ARC
8
0
6
CONTINUOUS
10
-4.2
20
-3.9699999999999998
30
0
40
3.0
50
180.0
51
270.0
0
LINE
8
0
6
CONTINUOUS
10
-4.2
20
-6.97
30
0
11
2.8
21
-6.97
31
0
0
LINE
8
0
6
CONTINUOUS
10
2.8
20
-6.97
30
0
11
8.57
21
3.03
31
0
0
LINE
8
0
6
CONTINUOUS
10
8.57
20
3.03
30
0
11
42.9
21
3.03
31
0
0
LINE
8
0
6
CONTINUOUS
10
42.9
20
3.03
30
0
11
42.9
21
-4.97
31
0
0
ARC
8
0
6
CONTINUOUS
10
44.9
20
-4.97
30
0
40
2.0
50
180.0
51
270.0
0
LINE
8
0
6
CONTINUOUS
10
44.9
20
-6.97
30
0
11
51.8
21
-6.97
31
0
0
LINE
8
0
6
CONTINUOUS
10
51.8
20
-6.97
30
0
11
57.8
21
-6.97
31
0
0
ARC
8
0
6
CONTINUOUS
10
57.8
20
-3.9699999999999998
30
0
40
3.0
50
270.0
51
360.0
0
LINE
8
0
6
CONTINUOUS
10
60.8
20
-3.97
30
0
11
60.8
21
47.03
31
0
0
ARC
8
0
6
CONTINUOUS
10
57.8
20
-3.9699999999999998
30
0
40
3.0
50
270.0
51
360.0
0
LINE
8
0
6
CONTINUOUS
10
51.8
20
-6.97
30
0
11
57.8
21
-6.97
31
0
0
ARC
8
0
6
CONTINUOUS
10
44.9
20
-4.97
30
0
40
2.0
50
180.0
51
270.0
0
ARC
8
0
6
CONTINUOUS
10
-4.2
20
-3.9699999999999998
30
0
40
3.0
50
180.0
51
270.0
0
ARC
8
0
6
CONTINUOUS
10
57.8
20
47.03
30
0
40
3.0
50
0.0
51
90.0
0
ARC
8
0
6
CONTINUOUS
10
-4.20000092732607
20
59.89235880384126
30
0
40
3.0
50
110.08007053907559
51
180.04504983957628
0
ARC
8
0
6
CONTINUOUS
10
57.8
20
53.03
30
0
40
3.0
50
270.0
51
0.0
0
ARC
8
0
6
CONTINUOUS
10
57.8000016787279
20
61.01317369888825
30
0
40
3.0
50
359.93938680478
51
74.9299710583555
0
LINE
8
0
6
CONTINUOUS
10
-4.2
20
-6.97
30
0
11
2.8
21
-6.97
31
0
0
LINE
8
0
6
CONTINUOUS
10
2.8
20
-6.97
30
0
11
8.57
21
3.03
31
0
0
LINE
8
0
6
CONTINUOUS
10
8.57
20
3.03
30
0
11
42.9
21
3.03
31
0
0
LINE
8
0
6
CONTINUOUS
10
42.9
20
3.03
30
0
11
42.9
21
-4.97
31
0
0
LINE
8
0
6
CONTINUOUS
10
51.8
20
-6.97
30
0
11
44.9
21
-6.97
31
0
0
LINE
8
0
6
CONTINUOUS
10
-5.23
20
62.71
30
0
11
9.39
21
68.03
31
0
0
LINE
8
0
6
CONTINUOUS
10
9.39
20
68.03
30
0
11
10.8
21
66.61
31
0
0
LINE
8
0
6
CONTINUOUS
10
10.8
20
66.61
30
0
11
10.8
21
50.03
31
0
0
LINE
8
0
6
CONTINUOUS
10
10.8
20
50.03
30
0
11
15.8
21
50.03
31
0
0
LINE
8
0
6
CONTINUOUS
10
15.8
20
50.03
30
0
11
15.8
21
45.53
31
0
0
LINE
8
0
6
CONTINUOUS
10
15.8
20
45.53
30
0
11
20.8
21
45.53
31
0
0
LINE
8
0
6
CONTINUOUS
10
20.8
20
45.53
30
0
11
20.8
21
50.03
31
0
0
LINE
8
0
6
CONTINUOUS
10
20.8
20
50.03
30
0
11
48.8
21
50.03
31
0
0
LINE
8
0
6
CONTINUOUS
10
48.8
20
50.03
30
0
11
48.8
21
46.03
31
0
0
LINE
8
0
6
CONTINUOUS
10
48.8
20
46.03
30
0
11
52.8
21
46.03
31
0
0
LINE
8
0
6
CONTINUOUS
10
52.8
20
46.03
30
0
11
52.8
21
50.03
31
0
0
LINE
8
0
6
CONTINUOUS
10
-7.2
20
-3.97
30
0
11
-7.2
21
59.89
31
0
0
LINE
8
0
6
CONTINUOUS
10
60.8
20
47.03
30
0
11
60.8
21
-3.97
31
0
0
LINE
8
0
6
CONTINUOUS
10
58.58
20
63.91
30
0
11
43.21
21
68.03
31
0
0
LINE
8
0
6
CONTINUOUS
10
43.21
20
68.03
30
0
11
41.8
21
66.61
31
0
0
LINE
8
0
6
CONTINUOUS
10
41.8
20
66.61
30
0
11
41.8
21
50.03
31
0
0
LINE
8
0
6
CONTINUOUS
10
41.8
20
50.03
30
0
11
57.8
21
50.03
31
0
0
LINE
8
0
6
CONTINUOUS
10
57.8
20
50.03
30
0
11
41.8
21
50.03
31
0
0
LINE
8
0
6
CONTINUOUS
10
60.8
20
61.01
30
0
11
60.8
21
53.03
31
0
0
LINE
8
0
6
HIDDEN
10
15.8
20
45.53
30
0
11
8.57
21
3.03
31
0
0
LINE
8
0
6
HIDDEN
10
20.8
20
45.53
30
0
11
13.57
21
3.03
31
0
0
ENDSEC
0
EOF