0
SECTION
2
HEADER
0
ENDSEC
0
SECTION
2
TABLES
0
TABLE
2
LTYPE
70
2
0
LTYPE
2
CONTINUOUS
70
0
3
Solid line
72
65
73
0
40
0.0
0
ENDTAB
0
TABLE
2
LAYER
70
1
0
LAYER
2
0
70
0
62
7
6
CONTINUOUS
0
ENDTAB
0
ENDSEC
0
SECTION
2
ENTITIES
0
LINE
8
0
6
CONTINUOUS
10
21.53
20
-180.0
30
0
11
-113.89
21
-180.0
31
0
0
LINE
8
0
6
CONTINUOUS
10
0.0
20
-180.0
30
0
11
0.0
21
99.43
31
0
0
LINE
8
0
6
CONTINUOUS
10
-113.89
20
0.0
30
0
11
21.53
21
0.0
31
0
0
LINE
8
0
6
CONTINUOUS
10
-28.42
20
2.2
30
0
11
-28.42
21
16.35
31
0
0
LINE
8
0
6
CONTINUOUS
10
-28.42
20
16.35
30
0
11
-11.17
21
16.35
31
0
0
LINE
8
0
6
CONTINUOUS
10
-11.17
20
16.35
30
0
11
-11.17
21
2.3
31
0
0
ARC
8
0
6
CONTINUOUS
10
-12.27
20
2.3000000000000003
30
0
40
1.1
50
270.0
51
360.0
0
LINE
8
0
6
CONTINUOUS
10
-12.27
20
1.2
30
0
11
-14.73
21
1.2
31
0
0
ARC
8
0
6
CONTINUOUS
10
-14.73
20
0.6
30
0
40
0.6
50
90.0
51
270.0
0
LINE
8
0
6
CONTINUOUS
10
-14.73
20
0.0
30
0
11
-12.2
21
0.0
31
0
0
ARC
8
0
6
CONTINUOUS
10
-12.2
20
2.2
30
0
40
2.2
50
270.0
51
0.0
0
LINE
8
0
6
CONTINUOUS
10
-10.0
20
2.2
30
0
11
-10.0
21
8.0
31
0
0
LINE
8
0
6
CONTINUOUS
10
-10.0
20
8.0
30
0
11
-0.5
21
8.0
31
0
0
ARC
8
0
6
CONTINUOUS
10
-0.5
20
8.5
30
0
40
0.5
50
270.0
51
0.0
0
LINE
8
0
6
CONTINUOUS
10
0.0
20
8.5
30
0
11
0.0
21
9.5
31
0
0
LINE
8
0
6
CONTINUOUS
10
0.0
20
9.5
30
0
11
-1.52
21
11.31
31
0
0
ARC
8
0
6
CONTINUOUS
10
-2.0700674416201688
20
10.830077287816628
30
0
40
0.73
50
41.10403954060239
51
179.2211684409697
0
LINE
8
0
6
CONTINUOUS
10
-2.8
20
10.84
30
0
11
-2.8
21
9.5
31
0
0
LINE
8
0
6
CONTINUOUS
10
-2.8
20
9.5
30
0
11
-10.0
21
9.5
31
0
0
LINE
8
0
6
CONTINUOUS
10
-10.0
20
9.5
30
0
11
-10.0
21
28.5
31
0
0
LINE
8
0
6
CONTINUOUS
10
-10.0
20
28.5
30
0
11
-2.8
21
28.5
31
0
0
LINE
8
0
6
CONTINUOUS
10
-2.8
20
28.5
30
0
11
-2.8
21
27.11
31
0
0
ARC
8
0
6
CONTINUOUS
10
-2.0900006714284283
20
27.11097643633579
30
0
40
0.71
50
180.07879675864712
51
319.5139729047025
0
LINE
8
0
6
CONTINUOUS
10
-1.55
20
26.65
30
0
11
0.0
21
28.5
31
0
0
LINE
8
0
6
CONTINUOUS
10
0.0
20
28.5
30
0
11
0.0
21
29.5
31
0
0
ARC
8
0
6
CONTINUOUS
10
-0.5
20
29.5
30
0
40
0.5
50
0.0
51
90.0
0
LINE
8
0
6
CONTINUOUS
10
-0.5
20
30.0
30
0
11
-28.19
21
30.0
31
0
0
ARC
8
0
6
CONTINUOUS
10
-28.190000000000005
20
28.590000000000003
30
0
40
1.41
50
89.99999999999986
51
180.00000000000014
0
LINE
8
0
6
CONTINUOUS
10
-29.6
20
28.59
30
0
11
-29.6
21
2.2
31
0
0
ARC
8
0
6
CONTINUOUS
10
-27.400000000000002
20
2.2
30
0
40
2.2
50
180.0
51
270.0000000000001
0
LINE
8
0
6
CONTINUOUS
10
-27.4
20
-0.0
30
0
11
-24.9
21
-0.0
31
0
0
ARC
8
0
6
CONTINUOUS
10
-24.9
20
0.6
30
0
40
0.6
50
270.0
51
90.0
0
LINE
8
0
6
CONTINUOUS
10
-24.9
20
1.2
30
0
11
-27.42
21
1.2
31
0
0
ARC
8
0
6
CONTINUOUS
10
-27.42
20
2.2
30
0
40
1.0
50
180.0
51
270.0
0
LINE
8
0
6
CONTINUOUS
10
-11.17
20
17.55
30
0
11
-28.42
21
17.55
31
0
0
LINE
8
0
6
CONTINUOUS
10
-28.42
20
17.55
30
0
11
-28.42
21
28.8
31
0
0
LINE
8
0
6
CONTINUOUS
10
-28.42
20
28.8
30
0
11
-11.17
21
28.8
31
0
0
LINE
8
0
6
CONTINUOUS
10
-11.17
20
28.8
30
0
11
-11.17
21
17.55
31
0
0
ENDSEC
0
EOF