0
SECTION
2
HEADER
0
ENDSEC
0
SECTION
2
TABLES
0
TABLE
2
LTYPE
70
3
0
LTYPE
2
CONTINUOUS
70
0
3
Solid line
72
65
73
0
40
0.0
0
LTYPE
2
HIDDEN
70
0
3
hidden
72
65
73
2
40
9.524999999999999
49
6.35
49
-3.175
0
ENDTAB
0
TABLE
2
LAYER
70
1
0
LAYER
2
0
70
0
62
7
6
CONTINUOUS
0
ENDTAB
0
ENDSEC
0
SECTION
2
ENTITIES
0
LINE
8
0
6
CONTINUOUS
10
63.8
20
-12.0
30
0
11
63.8
21
81.0
31
0
0
LINE
8
0
6
CONTINUOUS
10
32.8
20
-12.0
30
0
11
32.8
21
81.0
31
0
0
LINE
8
0
6
CONTINUOUS
10
-7.2
20
80.7
30
0
11
82.8
21
80.7
31
0
0
LINE
8
0
6
CONTINUOUS
10
-7.2
20
63.0
30
0
11
82.8
21
63.0
31
0
0
LINE
8
0
6
CONTINUOUS
10
-7.2
20
-12.0
30
0
11
82.8
21
-12.0
31
0
0
LINE
8
0
6
CONTINUOUS
10
82.8
20
-12.0
30
0
11
82.8
21
81.0
31
0
0
LINE
8
0
6
CONTINUOUS
10
-7.2
20
-12.0
30
0
11
-7.2
21
81.0
31
0
0
LINE
8
0
6
CONTINUOUS
10
-7.2
20
6.0
30
0
11
82.8
21
6.0
31
0
0
LINE
8
0
6
CONTINUOUS
10
63.8
20
6.0
30
0
11
63.8
21
-10.59
31
0
0
LINE
8
0
6
CONTINUOUS
10
63.8
20
-10.59
30
0
11
65.21
21
-12.0
31
0
0
LINE
8
0
6
CONTINUOUS
10
65.21
20
-12.0
30
0
11
80.58
21
-7.88
31
0
0
ARC
8
0
6
CONTINUOUS
10
79.80000777014041
20
-4.983172058723774
30
0
40
3.0
50
285.06990846078276
51
359.8695958147853
0
LINE
8
0
6
CONTINUOUS
10
82.8
20
-4.99
30
0
11
82.8
21
3.0
31
0
0
ARC
8
0
6
CONTINUOUS
10
79.8
20
3.0
30
0
40
3.0
50
0.0
51
90.0
0
LINE
8
0
6
CONTINUOUS
10
79.8
20
6.0
30
0
11
63.8
21
6.0
31
0
0
LINE
8
0
6
CONTINUOUS
10
65.21
20
81.0
30
0
11
63.8
21
79.59
31
0
0
LINE
8
0
6
CONTINUOUS
10
63.8
20
79.59
30
0
11
63.8
21
63.0
31
0
0
LINE
8
0
6
CONTINUOUS
10
63.8
20
63.0
30
0
11
79.8
21
63.0
31
0
0
ARC
8
0
6
CONTINUOUS
10
79.8
20
66.0
30
0
40
3.0
50
270.0
51
0.0
0
LINE
8
0
6
CONTINUOUS
10
82.8
20
66.0
30
0
11
82.8
21
73.99
31
0
0
ARC
8
0
6
CONTINUOUS
10
79.80000777014041
20
73.98317205872378
30
0
40
3.0
50
0.1304041852144069
51
74.93009153921719
0
LINE
8
0
6
CONTINUOUS
10
80.58
20
76.88
30
0
11
65.21
21
81.0
31
0
0
ARC
8
0
6
CONTINUOUS
10
79.8
20
60.0
30
0
40
3.0
50
0.0
51
90.0
0
LINE
8
0
6
CONTINUOUS
10
79.8
20
63.0
30
0
11
74.8
21
63.0
31
0
0
LINE
8
0
6
CONTINUOUS
10
74.8
20
63.0
30
0
11
74.8
21
59.0
31
0
0
LINE
8
0
6
CONTINUOUS
10
74.8
20
59.0
30
0
11
70.8
21
59.0
31
0
0
LINE
8
0
6
CONTINUOUS
10
70.8
20
59.0
30
0
11
70.8
21
63.0
31
0
0
LINE
8
0
6
CONTINUOUS
10
70.8
20
63.0
30
0
11
42.8
21
63.0
31
0
0
LINE
8
0
6
CONTINUOUS
10
42.8
20
63.0
30
0
11
42.8
21
58.5
31
0
0
LINE
8
0
6
CONTINUOUS
10
42.8
20
58.5
30
0
11
37.8
21
58.5
31
0
0
LINE
8
0
6
CONTINUOUS
10
37.8
20
58.5
30
0
11
37.8
21
63.0
31
0
0
LINE
8
0
6
CONTINUOUS
10
37.8
20
63.0
30
0
11
32.8
21
63.0
31
0
0
LINE
8
0
6
CONTINUOUS
10
32.8
20
63.0
30
0
11
32.8
21
79.59
31
0
0
LINE
8
0
6
CONTINUOUS
10
32.8
20
79.59
30
0
11
31.39
21
81.0
31
0
0
LINE
8
0
6
CONTINUOUS
10
31.39
20
81.0
30
0
11
-4.98
21
71.26
31
0
0
ARC
8
0
6
CONTINUOUS
10
-4.200001678727909
20
68.36317369888826
30
0
40
3.0
50
105.07002894164444
51
180.06061319522013
0
LINE
8
0
6
CONTINUOUS
10
-7.2
20
68.36
30
0
11
-7.2
21
-9.0
31
0
0
ARC
8
0
6
CONTINUOUS
10
-4.2
20
-9.0
30
0
40
3.0
50
180.0
51
270.0
0
LINE
8
0
6
CONTINUOUS
10
-4.2
20
-12.0
30
0
11
10.8
21
-12.0
31
0
0
LINE
8
0
6
CONTINUOUS
10
10.8
20
-12.0
30
0
11
14.26
21
-6.0
31
0
0
LINE
8
0
6
CONTINUOUS
10
14.26
20
-6.0
30
0
11
17.34
21
-6.0
31
0
0
LINE
8
0
6
CONTINUOUS
10
17.34
20
-6.0
30
0
11
20.8
21
-12.0
31
0
0
LINE
8
0
6
CONTINUOUS
10
20.8
20
-12.0
30
0
11
31.39
21
-12.0
31
0
0
LINE
8
0
6
CONTINUOUS
10
31.39
20
-12.0
30
0
11
32.8
21
-10.59
31
0
0
LINE
8
0
6
CONTINUOUS
10
32.8
20
-10.59
30
0
11
32.8
21
6.0
31
0
0
LINE
8
0
6
CONTINUOUS
10
32.8
20
6.0
30
0
11
37.8
21
6.0
31
0
0
LINE
8
0
6
CONTINUOUS
10
37.8
20
6.0
30
0
11
37.8
21
10.5
31
0
0
LINE
8
0
6
CONTINUOUS
10
37.8
20
10.5
30
0
11
42.8
21
10.5
31
0
0
LINE
8
0
6
CONTINUOUS
10
42.8
20
10.5
30
0
11
42.8
21
6.0
31
0
0
LINE
8
0
6
CONTINUOUS
10
42.8
20
6.0
30
0
11
70.8
21
6.0
31
0
0
LINE
8
0
6
CONTINUOUS
10
70.8
20
6.0
30
0
11
70.8
21
10.0
31
0
0
LINE
8
0
6
CONTINUOUS
10
70.8
20
10.0
30
0
11
74.8
21
10.0
31
0
0
LINE
8
0
6
CONTINUOUS
10
74.8
20
10.0
30
0
11
74.8
21
6.0
31
0
0
LINE
8
0
6
CONTINUOUS
10
74.8
20
6.0
30
0
11
79.8
21
6.0
31
0
0
ARC
8
0
6
CONTINUOUS
10
79.8
20
9.0
30
0
40
3.0
50
270.0
51
0.0
0
LINE
8
0
6
CONTINUOUS
10
82.8
20
9.0
30
0
11
82.8
21
60.0
31
0
0
LINE
8
0
6
HIDDEN
10
42.8
20
58.5
30
0
11
18.52
21
-8.05
31
0
0
LINE
8
0
6
HIDDEN
10
37.8
20
58.5
30
0
11
14.26
21
-6.0
31
0
0
ARC
8
0
6
CONTINUOUS
10
79.8
20
66.0
30
0
40
3.0
50
270.0
51
0.0
0
ARC
8
0
6
CONTINUOUS
10
79.80000777014041
20
73.98317205872378
30
0
40
3.0
50
0.1304041852144069
51
74.93009153921719
0
ARC
8
0
6
CONTINUOUS
10
79.8
20
3.0
30
0
40
3.0
50
0.0
51
90.0
0
ARC
8
0
6
CONTINUOUS
10
79.80000777014041
20
-4.983172058723774
30
0
40
3.0
50
285.06990846078276
51
359.8695958147853
0
ARC
8
0
6
CONTINUOUS
10
-4.2
20
-9.0
30
0
40
3.0
50
180.0
51
270.0
0
ARC
8
0
6
CONTINUOUS
10
79.8
20
9.0
30
0
40
3.0
50
270.0
51
0.0
0
ARC
8
0
6
CONTINUOUS
10
-4.200001678727909
20
68.36317369888826
30
0
40
3.0
50
105.07002894164444
51
180.06061319522013
0
LINE
8
0
6
CONTINUOUS
10
82.8
20
73.99
30
0
11
82.8
21
66.0
31
0
0
LINE
8
0
6
CONTINUOUS
10
82.8
20
-4.99
30
0
11
82.8
21
3.0
31
0
0
LINE
8
0
6
CONTINUOUS
10
-4.2
20
-12.0
30
0
11
10.8
21
-12.0
31
0
0
LINE
8
0
6
CONTINUOUS
10
10.8
20
-12.0
30
0
11
14.26
21
-6.0
31
0
0
LINE
8
0
6
CONTINUOUS
10
14.26
20
-6.0
30
0
11
17.34
21
-6.0
31
0
0
LINE
8
0
6
CONTINUOUS
10
17.34
20
-6.0
30
0
11
20.8
21
-12.0
31
0
0
LINE
8
0
6
CONTINUOUS
10
20.8
20
-12.0
30
0
11
31.39
21
-12.0
31
0
0
LINE
8
0
6
CONTINUOUS
10
31.39
20
-12.0
30
0
11
32.8
21
-10.59
31
0
0
LINE
8
0
6
CONTINUOUS
10
32.8
20
-10.59
30
0
11
32.8
21
6.0
31
0
0
LINE
8
0
6
CONTINUOUS
10
32.8
20
6.0
30
0
11
37.8
21
6.0
31
0
0
LINE
8
0
6
CONTINUOUS
10
37.8
20
6.0
30
0
11
37.8
21
10.5
31
0
0
LINE
8
0
6
CONTINUOUS
10
37.8
20
10.5
30
0
11
42.8
21
10.5
31
0
0
LINE
8
0
6
CONTINUOUS
10
42.8
20
10.5
30
0
11
42.8
21
6.0
31
0
0
LINE
8
0
6
CONTINUOUS
10
42.8
20
6.0
30
0
11
70.8
21
6.0
31
0
0
LINE
8
0
6
CONTINUOUS
10
70.8
20
6.0
30
0
11
70.8
21
10.0
31
0
0
LINE
8
0
6
CONTINUOUS
10
70.8
20
10.0
30
0
11
74.8
21
10.0
31
0
0
LINE
8
0
6
CONTINUOUS
10
80.58
20
-7.88
30
0
11
65.21
21
-12.0
31
0
0
LINE
8
0
6
CONTINUOUS
10
65.21
20
-12.0
30
0
11
63.8
21
-10.59
31
0
0
LINE
8
0
6
CONTINUOUS
10
63.8
20
-10.59
30
0
11
63.8
21
6.0
31
0
0
LINE
8
0
6
CONTINUOUS
10
63.8
20
6.0
30
0
11
79.8
21
6.0
31
0
0
LINE
8
0
6
CONTINUOUS
10
79.8
20
6.0
30
0
11
74.8
21
6.0
31
0
0
LINE
8
0
6
CONTINUOUS
10
74.8
20
6.0
30
0
11
74.8
21
10.0
31
0
0
LINE
8
0
6
CONTINUOUS
10
37.8
20
6.0
30
0
11
32.8
21
6.0
31
0
0
LINE
8
0
6
CONTINUOUS
10
-4.98
20
71.26
30
0
11
31.39
21
81.0
31
0
0
LINE
8
0
6
CONTINUOUS
10
31.39
20
81.0
30
0
11
32.8
21
79.59
31
0
0
LINE
8
0
6
CONTINUOUS
10
32.8
20
79.59
30
0
11
32.8
21
63.0
31
0
0
LINE
8
0
6
CONTINUOUS
10
32.8
20
63.0
30
0
11
37.8
21
63.0
31
0
0
LINE
8
0
6
CONTINUOUS
10
37.8
20
63.0
30
0
11
37.8
21
58.5
31
0
0
LINE
8
0
6
CONTINUOUS
10
37.8
20
58.5
30
0
11
42.8
21
58.5
31
0
0
LINE
8
0
6
CONTINUOUS
10
42.8
20
58.5
30
0
11
42.8
21
63.0
31
0
0
LINE
8
0
6
CONTINUOUS
10
42.8
20
63.0
30
0
11
70.8
21
63.0
31
0
0
LINE
8
0
6
CONTINUOUS
10
70.8
20
63.0
30
0
11
70.8
21
59.0
31
0
0
LINE
8
0
6
CONTINUOUS
10
70.8
20
59.0
30
0
11
74.8
21
59.0
31
0
0
LINE
8
0
6
CONTINUOUS
10
80.58
20
76.88
30
0
11
65.21
21
81.0
31
0
0
LINE
8
0
6
CONTINUOUS
10
65.21
20
81.0
30
0
11
63.8
21
79.59
31
0
0
LINE
8
0
6
CONTINUOUS
10
63.8
20
79.59
30
0
11
63.8
21
63.0
31
0
0
LINE
8
0
6
CONTINUOUS
10
63.8
20
63.0
30
0
11
79.8
21
63.0
31
0
0
LINE
8
0
6
CONTINUOUS
10
79.8
20
63.0
30
0
11
74.8
21
63.0
31
0
0
LINE
8
0
6
CONTINUOUS
10
74.8
20
63.0
30
0
11
74.8
21
59.0
31
0
0
LINE
8
0
6
CONTINUOUS
10
-7.2
20
-9.0
30
0
11
-7.2
21
68.36
31
0
0
LINE
8
0
6
CONTINUOUS
10
82.8
20
60.0
30
0
11
82.8
21
9.0
31
0
0
ARC
8
0
6
CONTINUOUS
10
79.8
20
60.0
30
0
40
3.0
50
0.0
51
90.0
0
ENDSEC
0
EOF