0
SECTION
2
HEADER
0
ENDSEC
0
SECTION
2
TABLES
0
TABLE
2
LTYPE
70
2
0
LTYPE
2
CONTINUOUS
70
0
3
Solid line
72
65
73
0
40
0.0
0
ENDTAB
0
TABLE
2
LAYER
70
1
0
LAYER
2
0
70
0
62
7
6
CONTINUOUS
0
ENDTAB
0
ENDSEC
0
SECTION
2
ENTITIES
0
LINE
8
0
6
CONTINUOUS
10
-19.75
20
140.0
30
0
11
-19.75
21
-38.0
31
0
0
LINE
8
0
6
CONTINUOUS
10
0.0
20
40.0
30
0
11
-141.75
21
40.0
31
0
0
LINE
8
0
6
CONTINUOUS
10
0.0
20
140.0
30
0
11
-141.75
21
140.0
31
0
0
LINE
8
0
6
CONTINUOUS
10
-141.75
20
140.0
30
0
11
-141.75
21
-38.0
31
0
0
LINE
8
0
6
CONTINUOUS
10
0.0
20
-38.0
30
0
11
-141.75
21
-38.0
31
0
0
LINE
8
0
6
CONTINUOUS
10
0.0
20
-38.0
30
0
11
0.0
21
140.0
31
0
0
LINE
8
0
6
CONTINUOUS
10
-141.75
20
0.0
30
0
11
0.0
21
0.0
31
0
0
LINE
8
0
6
CONTINUOUS
10
0.0
20
40.0
30
0
11
-19.75
21
40.0
31
0
0
LINE
8
0
6
CONTINUOUS
10
-19.75
20
40.0
30
0
11
-19.75
21
30.83
31
0
0
LINE
8
0
6
CONTINUOUS
10
-19.75
20
30.83
30
0
11
-22.47
21
30.83
31
0
0
LINE
8
0
6
CONTINUOUS
10
-22.47
20
30.83
30
0
11
-22.99
21
31.43
31
0
0
LINE
8
0
6
CONTINUOUS
10
-22.99
20
31.43
30
0
11
-25.65
21
30.16
31
0
0
LINE
8
0
6
CONTINUOUS
10
-25.65
20
30.16
30
0
11
-25.65
21
29.03
31
0
0
ARC
8
0
6
CONTINUOUS
10
-25.05000248658656
20
29.02827260378313
30
0
40
0.6
50
179.83504558416982
51
285.466256326549
0
ARC
8
0
6
CONTINUOUS
10
-25.07790103768676
20
29.113922585875972
30
0
40
0.69
50
285.80238763694035
51
24.494440643635212
0
LINE
8
0
6
CONTINUOUS
10
-24.45
20
29.4
30
0
11
-23.42
21
29.88
31
0
0
LINE
8
0
6
CONTINUOUS
10
-23.42
20
29.88
30
0
11
-22.65
21
29.63
31
0
0
LINE
8
0
6
CONTINUOUS
10
-22.65
20
29.63
30
0
11
-18.25
21
29.63
31
0
0
LINE
8
0
6
CONTINUOUS
10
-18.25
20
29.63
30
0
11
-18.25
21
38.5
31
0
0
LINE
8
0
6
CONTINUOUS
10
-18.25
20
38.5
30
0
11
-1.5
21
38.5
31
0
0
LINE
8
0
6
CONTINUOUS
10
-1.5
20
38.5
30
0
11
-1.5
21
1.5
31
0
0
LINE
8
0
6
CONTINUOUS
10
-1.5
20
1.5
30
0
11
-18.25
21
1.5
31
0
0
LINE
8
0
6
CONTINUOUS
10
-18.25
20
1.5
30
0
11
-18.25
21
10.37
31
0
0
LINE
8
0
6
CONTINUOUS
10
-18.25
20
10.37
30
0
11
-22.65
21
10.37
31
0
0
LINE
8
0
6
CONTINUOUS
10
-22.65
20
10.37
30
0
11
-23.42
21
10.12
31
0
0
LINE
8
0
6
CONTINUOUS
10
-23.42
20
10.12
30
0
11
-24.45
21
10.6
31
0
0
ARC
8
0
6
CONTINUOUS
10
-25.07790103768676
20
10.886077414124026
30
0
40
0.69
50
335.5055593563648
51
74.19761236305966
0
ARC
8
0
6
CONTINUOUS
10
-25.05005682552077
20
10.971742434027696
30
0
40
0.6
50
74.52835965205219
51
179.21143563963614
0
LINE
8
0
6
CONTINUOUS
10
-25.65
20
10.98
30
0
11
-25.65
21
9.84
31
0
0
LINE
8
0
6
CONTINUOUS
10
-25.65
20
9.84
30
0
11
-22.99
21
8.57
31
0
0
LINE
8
0
6
CONTINUOUS
10
-22.99
20
8.57
30
0
11
-22.47
21
9.17
31
0
0
LINE
8
0
6
CONTINUOUS
10
-22.47
20
9.17
30
0
11
-19.75
21
9.17
31
0
0
LINE
8
0
6
CONTINUOUS
10
-19.75
20
9.17
30
0
11
-19.75
21
0.0
31
0
0
LINE
8
0
6
CONTINUOUS
10
-19.75
20
0.0
30
0
11
0.0
21
-0.0
31
0
0
LINE
8
0
6
CONTINUOUS
10
0.0
20
-0.0
30
0
11
0.0
21
40.0
31
0
0
LINE
8
0
6
CONTINUOUS
10
-34.21
20
30.65
30
0
11
-47.9
21
30.65
31
0
0
LINE
8
0
6
CONTINUOUS
10
-47.9
20
30.65
30
0
11
-47.9
21
32.52
31
0
0
ARC
8
0
6
CONTINUOUS
10
-48.65
20
32.52
30
0
40
0.75
50
0.0
51
180.0
0
LINE
8
0
6
CONTINUOUS
10
-49.4
20
32.52
30
0
11
-49.4
21
30.65
31
0
0
LINE
8
0
6
CONTINUOUS
10
-49.4
20
30.65
30
0
11
-54.05
21
30.65
31
0
0
LINE
8
0
6
CONTINUOUS
10
-54.05
20
30.65
30
0
11
-54.05
21
38.25
31
0
0
LINE
8
0
6
CONTINUOUS
10
-54.05
20
38.25
30
0
11
-28.05
21
38.25
31
0
0
LINE
8
0
6
CONTINUOUS
10
-28.05
20
38.25
30
0
11
-28.05
21
30.65
31
0
0
LINE
8
0
6
CONTINUOUS
10
-28.05
20
30.65
30
0
11
-32.71
21
30.65
31
0
0
LINE
8
0
6
CONTINUOUS
10
-32.71
20
30.65
30
0
11
-32.71
21
32.48
31
0
0
ARC
8
0
6
CONTINUOUS
10
-33.46
20
32.48
30
0
40
0.75
50
0.0
51
180.0
0
LINE
8
0
6
CONTINUOUS
10
-34.21
20
32.48
30
0
11
-34.21
21
30.65
31
0
0
LINE
8
0
6
CONTINUOUS
10
-28.05
20
29.15
30
0
11
-28.05
21
24.75
31
0
0
LINE
8
0
6
CONTINUOUS
10
-28.05
20
24.75
30
0
11
-21.5
21
24.75
31
0
0
LINE
8
0
6
CONTINUOUS
10
-21.5
20
24.75
30
0
11
-21.5
21
15.25
31
0
0
LINE
8
0
6
CONTINUOUS
10
-21.5
20
15.25
30
0
11
-28.05
21
15.25
31
0
0
LINE
8
0
6
CONTINUOUS
10
-28.05
20
15.25
30
0
11
-28.05
21
5.77
31
0
0
LINE
8
0
6
CONTINUOUS
10
-28.05
20
5.77
30
0
11
-26.85
21
4.57
31
0
0
ARC
8
0
6
CONTINUOUS
10
-25.252686802356603
20
1.399654506424541
30
0
40
3.55
50
25.179114484360536
51
116.74030793175261
0
ARC
8
0
6
CONTINUOUS
10
-23.060517839034713
20
2.556526747529724
30
0
40
1.08
50
211.6387487485392
51
19.104374757652675
0
ARC
8
0
6
CONTINUOUS
10
-25.249606212433463
20
1.3999999446183389
30
0
40
1.4
50
24.924814571949206
51
269.98388402436797
0
LINE
8
0
6
CONTINUOUS
10
-25.25
20
0.0
30
0
11
-19.75
21
0.0
31
0
0
LINE
8
0
6
CONTINUOUS
10
-19.75
20
0.0
30
0
11
-19.75
21
9.17
31
0
0
LINE
8
0
6
CONTINUOUS
10
-19.75
20
9.17
30
0
11
-22.35
21
9.17
31
0
0
LINE
8
0
6
CONTINUOUS
10
-22.35
20
9.17
30
0
11
-22.35
21
6.9
31
0
0
LINE
8
0
6
CONTINUOUS
10
-22.35
20
6.9
30
0
11
-26.3
21
6.9
31
0
0
LINE
8
0
6
CONTINUOUS
10
-26.3
20
6.9
30
0
11
-26.3
21
13.5
31
0
0
LINE
8
0
6
CONTINUOUS
10
-26.3
20
13.5
30
0
11
-19.75
21
13.5
31
0
0
LINE
8
0
6
CONTINUOUS
10
-19.75
20
13.5
30
0
11
-19.75
21
26.5
31
0
0
LINE
8
0
6
CONTINUOUS
10
-19.75
20
26.5
30
0
11
-26.3
21
26.5
31
0
0
LINE
8
0
6
CONTINUOUS
10
-26.3
20
26.5
30
0
11
-26.3
21
33.1
31
0
0
LINE
8
0
6
CONTINUOUS
10
-26.3
20
33.1
30
0
11
-22.35
21
33.1
31
0
0
LINE
8
0
6
CONTINUOUS
10
-22.35
20
33.1
30
0
11
-22.35
21
30.83
31
0
0
LINE
8
0
6
CONTINUOUS
10
-22.35
20
30.83
30
0
11
-19.75
21
30.83
31
0
0
LINE
8
0
6
CONTINUOUS
10
-19.75
20
30.83
30
0
11
-19.75
21
40.0
31
0
0
LINE
8
0
6
CONTINUOUS
10
-19.75
20
40.0
30
0
11
-21.25
21
40.0
31
0
0
LINE
8
0
6
CONTINUOUS
10
-21.25
20
40.0
30
0
11
-21.25
21
34.85
31
0
0
LINE
8
0
6
CONTINUOUS
10
-21.25
20
34.85
30
0
11
-26.3
21
34.85
31
0
0
LINE
8
0
6
CONTINUOUS
10
-26.3
20
34.85
30
0
11
-26.3
21
40.0
31
0
0
LINE
8
0
6
CONTINUOUS
10
-26.3
20
40.0
30
0
11
-141.75
21
40.0
31
0
0
LINE
8
0
6
CONTINUOUS
10
-141.75
20
40.0
30
0
11
-141.75
21
0.0
31
0
0
LINE
8
0
6
CONTINUOUS
10
-141.75
20
0.0
30
0
11
-135.35
21
0.0
31
0
0
LINE
8
0
6
CONTINUOUS
10
-135.35
20
0.0
30
0
11
-135.35
21
4.9
31
0
0
LINE
8
0
6
CONTINUOUS
10
-135.35
20
4.9
30
0
11
-137.1
21
4.9
31
0
0
LINE
8
0
6
CONTINUOUS
10
-137.1
20
4.9
30
0
11
-137.1
21
1.75
31
0
0
LINE
8
0
6
CONTINUOUS
10
-137.1
20
1.75
30
0
11
-140.0
21
1.75
31
0
0
LINE
8
0
6
CONTINUOUS
10
-140.0
20
1.75
30
0
11
-140.0
21
17.7
31
0
0
ARC
8
0
6
CONTINUOUS
10
-139.45045207745807
20
17.72229530959236
30
0
40
0.55
50
29.12626007225893
51
182.3232313732347
0
ARC
8
0
6
CONTINUOUS
10
-135.74522408915948
20
20.000179177303043
30
0
40
3.8
50
211.9375437620447
51
303.4613784799589
0
ARC
8
0
6
CONTINUOUS
10
-134.15271334263008
20
17.57651141661844
30
0
40
0.9
50
303.95698759159313
51
160.29304510620946
0
ARC
8
0
6
CONTINUOUS
10
-135.63687269194045
20
19.933507529633264
30
0
40
2.15
50
168.0141031827495
51
287.23069973833276
0
ARC
8
0
6
CONTINUOUS
10
-136.7450138123455
20
20.48001243111093
30
0
40
1.0
50
90.2856886922739
51
185.73988631609205
0
ARC
8
0
6
CONTINUOUS
10
-136.74807656734677
20
24.479999383401076
30
0
40
3.0
50
269.96326513974736
51
330.0000135979512
0
LINE
8
0
6
CONTINUOUS
10
-134.15
20
22.98
30
0
11
-135.23
21
23.61
31
0
0
ARC
8
0
6
CONTINUOUS
10
-136.74554445662275
20
24.485
30
0
40
1.75
50
30.00000000000008
51
329.99999999999994
0
LINE
8
0
6
CONTINUOUS
10
-135.23
20
25.36
30
0
11
-134.15
21
25.98
31
0
0
ARC
8
0
6
CONTINUOUS
10
-136.74916207500644
20
24.481882345124948
30
0
40
3.0
50
29.95849702453931
51
124.30600603490664
0
ARC
8
0
6
CONTINUOUS
10
-139.0000011372764
20
27.788491838372078
30
0
40
1.0
50
179.91358867113868
51
304.0558763928389
0
LINE
8
0
6
CONTINUOUS
10
-140.0
20
27.79
30
0
11
-140.0
21
38.25
31
0
0
LINE
8
0
6
CONTINUOUS
10
-140.0
20
38.25
30
0
11
-61.36
21
38.25
31
0
0
ARC
8
0
6
CONTINUOUS
10
-61.358491838372075
20
37.25000113727639
30
0
40
1.0
50
325.9441236071613
51
90.08641132886152
0
ARC
8
0
6
CONTINUOUS
10
-58.052647452140604
20
34.998041267165604
30
0
40
3.0
50
145.66807611867213
51
195.03132425570394
0
LINE
8
0
6
CONTINUOUS
10
-60.95
20
34.22
30
0
11
-59.74
21
34.55
31
0
0
ARC
8
0
6
CONTINUOUS
10
-58.04908917271325
20
35.00091082728676
30
0
40
1.75
50
255.0685425396852
51
194.93145746031527
0
LINE
8
0
6
CONTINUOUS
10
-58.5
20
33.31
30
0
11
-58.83
21
32.1
31
0
0
ARC
8
0
6
CONTINUOUS
10
-58.05532834409079
20
34.99825530716859
30
0
40
3.0
50
255.03530015597693
51
318.7444655345463
0
LINE
8
0
6
CONTINUOUS
10
-55.8
20
33.02
30
0
11
-55.8
21
29.15
31
0
0
LINE
8
0
6
CONTINUOUS
10
-55.8
20
29.15
30
0
11
-28.05
21
29.15
31
0
0
ARC
8
0
6
CONTINUOUS
10
-25.24995169943035
20
1.5500389466746913
30
0
40
3.25
50
31.538067047532316
51
128.8811635061902
0
ARC
8
0
6
CONTINUOUS
10
-25.003596780049303
20
1.247693463659152
30
0
40
3.64
50
128.9124943826571
51
163.85279124750454
0
ARC
8
0
6
CONTINUOUS
10
-28.98035296708036
20
2.398784102177071
30
0
40
0.5
50
182.15300620410025
51
343.8848789822402
0
LINE
8
0
6
CONTINUOUS
10
-29.48
20
2.38
30
0
11
-29.48
21
27.6
31
0
0
ARC
8
0
6
CONTINUOUS
10
-30.48
20
27.6
30
0
40
1.0
50
0.0
51
90.0
0
LINE
8
0
6
CONTINUOUS
10
-30.48
20
28.6
30
0
11
-57.08
21
28.6
31
0
0
ARC
8
0
6
CONTINUOUS
10
-57.08
20
27.6
30
0
40
1.0
50
90.0
51
180.0
0
LINE
8
0
6
CONTINUOUS
10
-58.08
20
27.6
30
0
11
-58.08
21
1.5
31
0
0
LINE
8
0
6
CONTINUOUS
10
-58.08
20
1.5
30
0
11
-132.08
21
1.5
31
0
0
LINE
8
0
6
CONTINUOUS
10
-132.08
20
1.5
30
0
11
-132.08
21
7.02
31
0
0
ARC
8
0
6
CONTINUOUS
10
-133.08
20
8.752050807568876
30
0
40
2.0
50
300.0
51
240.0
0
LINE
8
0
6
CONTINUOUS
10
-134.08
20
7.02
30
0
11
-134.08
21
1.5
31
0
0
LINE
8
0
6
CONTINUOUS
10
-134.08
20
1.5
30
0
11
-135.08
21
1.5
31
0
0
LINE
8
0
6
CONTINUOUS
10
-135.08
20
1.5
30
0
11
-135.08
21
0.0
31
0
0
LINE
8
0
6
CONTINUOUS
10
-135.08
20
0.0
30
0
11
-54.77
21
0.0
31
0
0
LINE
8
0
6
CONTINUOUS
10
-54.77
20
0.0
30
0
11
-54.08
21
0.69
31
0
0
LINE
8
0
6
CONTINUOUS
10
-54.08
20
0.69
30
0
11
-54.08
21
1.5
31
0
0
LINE
8
0
6
CONTINUOUS
10
-54.08
20
1.5
30
0
11
-56.58
21
1.5
31
0
0
LINE
8
0
6
CONTINUOUS
10
-56.58
20
1.5
30
0
11
-56.58
21
15.6
31
0
0
LINE
8
0
6
CONTINUOUS
10
-56.58
20
15.6
30
0
11
-54.4
21
15.6
31
0
0
ARC
8
0
6
CONTINUOUS
10
-54.522882057274444
20
16.35
30
0
40
0.7600000000000009
50
279.3048245185646
51
80.69517548143538
0
LINE
8
0
6
CONTINUOUS
10
-54.4
20
17.1
30
0
11
-56.58
21
17.1
31
0
0
LINE
8
0
6
CONTINUOUS
10
-56.58
20
17.1
30
0
11
-56.58
21
27.1
31
0
0
LINE
8
0
6
CONTINUOUS
10
-56.58
20
27.1
30
0
11
-30.98
21
27.1
31
0
0
LINE
8
0
6
CONTINUOUS
10
-30.98
20
27.1
30
0
11
-30.98
21
17.1
31
0
0
LINE
8
0
6
CONTINUOUS
10
-30.98
20
17.1
30
0
11
-33.19
21
17.1
31
0
0
ARC
8
0
6
CONTINUOUS
10
-33.06711794272555
20
16.35
30
0
40
0.7600000000000009
50
99.30482451856462
51
260.6951754814354
0
LINE
8
0
6
CONTINUOUS
10
-33.19
20
15.6
30
0
11
-30.98
21
15.6
31
0
0
LINE
8
0
6
CONTINUOUS
10
-30.98
20
15.6
30
0
11
-30.98
21
1.5
31
0
0
LINE
8
0
6
CONTINUOUS
10
-30.98
20
1.5
30
0
11
-33.48
21
1.5
31
0
0
LINE
8
0
6
CONTINUOUS
10
-33.48
20
1.5
30
0
11
-33.48
21
0.69
31
0
0
LINE
8
0
6
CONTINUOUS
10
-33.48
20
0.69
30
0
11
-32.8
21
0.0
31
0
0
LINE
8
0
6
CONTINUOUS
10
-32.8
20
0.0
30
0
11
-27.15
21
0.0
31
0
0
ARC
8
0
6
CONTINUOUS
10
-27.15375552454201
20
0.4999858958364869
30
0
40
0.5
50
270.4303554587736
51
24.8363684117764
0
ARC
8
0
6
CONTINUOUS
10
-25.256434225145078
20
1.4000129373189347
30
0
40
1.6
50
89.769590663202
51
205.5474279543933
0
ARC
8
0
6
CONTINUOUS
10
-25.242454986715206
20
1.3000167433840615
30
0
40
1.7
50
37.29165276428732
51
90.25429343343176
0
ARC
8
0
6
CONTINUOUS
10
-23.256113929688876
20
2.8989898270231635
30
0
40
0.8517986695166487
50
221.9118347603493
51
24.33563643213151
0
LINE
8
0
6
CONTINUOUS
10
-25.79
20
83.65
30
0
11
-135.79
21
83.65
31
0
0
LINE
8
0
6
CONTINUOUS
10
-84.56
20
138.6
30
0
11
-84.56
21
28.6
31
0
0
ENDSEC
0
EOF