0
SECTION
2
HEADER
0
ENDSEC
0
SECTION
2
TABLES
0
TABLE
2
LTYPE
70
3
0
LTYPE
2
CONTINUOUS
70
0
3
Solid line
72
65
73
0
40
0.0
0
LTYPE
2
HIDDEN
70
0
3
hidden
72
65
73
2
40
9.524999999999999
49
6.35
49
-3.175
0
ENDTAB
0
TABLE
2
LAYER
70
1
0
LAYER
2
0
70
0
62
7
6
CONTINUOUS
0
ENDTAB
0
ENDSEC
0
SECTION
2
ENTITIES
0
LINE
8
0
6
CONTINUOUS
10
45.97
20
-93.81
30
0
11
45.97
21
87.69
31
0
0
LINE
8
0
6
CONTINUOUS
10
53.17
20
-93.81
30
0
11
-13.83
21
-93.81
31
0
0
LINE
8
0
6
CONTINUOUS
10
-13.83
20
87.69
30
0
11
53.17
21
87.69
31
0
0
LINE
8
0
6
CONTINUOUS
10
10.17
20
-93.81
30
0
11
10.17
21
87.69
31
0
0
LINE
8
0
6
CONTINUOUS
10
-13.83
20
69.69
30
0
11
53.17
21
69.69
31
0
0
LINE
8
0
6
CONTINUOUS
10
-13.83
20
-87.81
30
0
11
53.17
21
-87.81
31
0
0
LINE
8
0
6
CONTINUOUS
10
53.17
20
-93.81
30
0
11
53.17
21
87.69
31
0
0
LINE
8
0
6
CONTINUOUS
10
-2.83
20
-93.81
30
0
11
-2.83
21
87.69
31
0
0
LINE
8
0
6
CONTINUOUS
10
38.17
20
-93.81
30
0
11
38.17
21
87.69
31
0
0
LINE
8
0
6
CONTINUOUS
10
39.59
20
87.69
30
0
11
38.17
21
86.27
31
0
0
LINE
8
0
6
CONTINUOUS
10
38.17
20
86.27
30
0
11
38.17
21
69.69
31
0
0
LINE
8
0
6
CONTINUOUS
10
38.17
20
69.69
30
0
11
50.17
21
69.69
31
0
0
ARC
8
0
6
CONTINUOUS
10
50.17
20
72.69
30
0
40
3.0
50
270.0
51
0.0
0
LINE
8
0
6
CONTINUOUS
10
53.17
20
72.69
30
0
11
53.17
21
81.75
31
0
0
ARC
8
0
6
CONTINUOUS
10
50.17000777014041
20
81.74317205872377
30
0
40
3.0
50
0.13040418521467798
51
74.93009153921713
0
LINE
8
0
6
CONTINUOUS
10
50.95
20
84.64
30
0
11
39.59
21
87.69
31
0
0
ARC
8
0
6
CONTINUOUS
10
-10.830001678727907
20
4.286826301111739
30
0
40
3.0
50
179.93938680477987
51
254.92997105835553
0
LINE
8
0
6
CONTINUOUS
10
-11.61
20
1.39
30
0
11
-1.53
21
-1.31
31
0
0
LINE
8
0
6
CONTINUOUS
10
-1.53
20
-1.31
30
0
11
-1.53
21
-13.31
31
0
0
LINE
8
0
6
CONTINUOUS
10
-1.53
20
-13.31
30
0
11
-11.61
21
-16.01
31
0
0
ARC
8
0
6
CONTINUOUS
10
-10.830001678727907
20
-18.906826301111742
30
0
40
3.0
50
105.07002894164445
51
180.06061319522007
0
LINE
8
0
6
CONTINUOUS
10
-13.83
20
-18.91
30
0
11
-13.83
21
-84.81
31
0
0
ARC
8
0
6
CONTINUOUS
10
-10.83
20
-84.81
30
0
40
3.0
50
180.0
51
270.0
0
LINE
8
0
6
CONTINUOUS
10
-10.83
20
-87.81
30
0
11
-0.13
21
-87.81
31
0
0
LINE
8
0
6
CONTINUOUS
10
-0.13
20
-87.81
30
0
11
0.65
21
-84.9
31
0
0
LINE
8
0
6
CONTINUOUS
10
0.65
20
-84.9
30
0
11
0.65
21
-77.31
31
0
0
LINE
8
0
6
CONTINUOUS
10
0.65
20
-77.31
30
0
11
3.67
21
-77.31
31
0
0
LINE
8
0
6
CONTINUOUS
10
3.67
20
-77.31
30
0
11
3.67
21
-84.81
31
0
0
LINE
8
0
6
CONTINUOUS
10
3.67
20
-84.81
30
0
11
8.67
21
-84.81
31
0
0
LINE
8
0
6
CONTINUOUS
10
8.67
20
-84.81
30
0
11
8.67
21
-29.81
31
0
0
LINE
8
0
6
CONTINUOUS
10
8.67
20
-29.81
30
0
11
30.67
21
-29.81
31
0
0
LINE
8
0
6
CONTINUOUS
10
30.67
20
-29.81
30
0
11
30.67
21
-84.81
31
0
0
LINE
8
0
6
CONTINUOUS
10
30.67
20
-84.81
30
0
11
35.67
21
-84.81
31
0
0
LINE
8
0
6
CONTINUOUS
10
35.67
20
-84.81
30
0
11
35.67
21
-77.31
31
0
0
LINE
8
0
6
CONTINUOUS
10
35.67
20
-77.31
30
0
11
38.67
21
-77.31
31
0
0
LINE
8
0
6
CONTINUOUS
10
38.67
20
-77.31
30
0
11
38.67
21
-84.81
31
0
0
LINE
8
0
6
CONTINUOUS
10
38.67
20
-84.81
30
0
11
39.47
21
-87.81
31
0
0
LINE
8
0
6
CONTINUOUS
10
39.47
20
-87.81
30
0
11
50.17
21
-87.81
31
0
0
ARC
8
0
6
CONTINUOUS
10
50.17
20
-84.81
30
0
40
3.0
50
270.0
51
0.0
0
LINE
8
0
6
CONTINUOUS
10
53.17
20
-84.81
30
0
11
53.17
21
-18.91
31
0
0
ARC
8
0
6
CONTINUOUS
10
50.17000167872791
20
-18.90682630111174
30
0
40
3.0
50
359.9393868047799
51
74.92997105835546
0
LINE
8
0
6
CONTINUOUS
10
50.95
20
-16.01
30
0
11
40.87
21
-13.31
31
0
0
LINE
8
0
6
CONTINUOUS
10
40.87
20
-13.31
30
0
11
40.87
21
-1.31
31
0
0
LINE
8
0
6
CONTINUOUS
10
40.87
20
-1.31
30
0
11
50.95
21
1.39
31
0
0
ARC
8
0
6
CONTINUOUS
10
50.170001678727914
20
4.286826301111738
30
0
40
3.0
50
285.0700289416444
51
0.060613195220159004
0
LINE
8
0
6
CONTINUOUS
10
53.17
20
4.29
30
0
11
53.17
21
66.69
31
0
0
ARC
8
0
6
CONTINUOUS
10
50.17
20
66.69
30
0
40
3.0
50
0.0
51
90.0
0
LINE
8
0
6
CONTINUOUS
10
50.17
20
69.69
30
0
11
21.67
21
69.69
31
0
0
LINE
8
0
6
CONTINUOUS
10
21.67
20
69.69
30
0
11
21.67
21
64.19
31
0
0
LINE
8
0
6
CONTINUOUS
10
21.67
20
64.19
30
0
11
17.17
21
64.19
31
0
0
LINE
8
0
6
CONTINUOUS
10
17.17
20
64.19
30
0
11
17.17
21
69.69
31
0
0
LINE
8
0
6
CONTINUOUS
10
17.17
20
69.69
30
0
11
10.17
21
69.69
31
0
0
LINE
8
0
6
CONTINUOUS
10
10.17
20
69.69
30
0
11
10.17
21
86.27
31
0
0
LINE
8
0
6
CONTINUOUS
10
10.17
20
86.27
30
0
11
8.76
21
87.69
31
0
0
LINE
8
0
6
CONTINUOUS
10
8.76
20
87.69
30
0
11
-11.86
21
80.19
31
0
0
ARC
8
0
6
CONTINUOUS
10
-10.83000092732607
20
77.37235880384127
30
0
40
3.0
50
110.08007053907562
51
180.04504983957628
0
LINE
8
0
6
CONTINUOUS
10
-13.83
20
77.37
30
0
11
-13.83
21
4.29
31
0
0
LINE
8
0
6
HIDDEN
10
16.74
20
69.69
30
0
11
-9.68
21
0.87
31
0
0
ARC
8
0
6
CONTINUOUS
10
50.17
20
-84.81
30
0
40
3.0
50
270.0
51
0.0
0
ARC
8
0
6
CONTINUOUS
10
50.17000777014041
20
81.74317205872377
30
0
40
3.0
50
0.13040418521467798
51
74.93009153921713
0
ARC
8
0
6
CONTINUOUS
10
-10.83000092732607
20
77.37235880384127
30
0
40
3.0
50
110.08007053907562
51
180.04504983957628
0
ARC
8
0
6
CONTINUOUS
10
50.17
20
66.69
30
0
40
3.0
50
0.0
51
90.0
0
ARC
8
0
6
CONTINUOUS
10
50.17
20
72.69
30
0
40
3.0
50
270.0
51
0.0
0
ARC
8
0
6
CONTINUOUS
10
50.17000167872791
20
-18.90682630111174
30
0
40
3.0
50
359.9393868047799
51
74.92997105835546
0
ARC
8
0
6
CONTINUOUS
10
-10.830001678727907
20
4.286826301111739
30
0
40
3.0
50
179.93938680477987
51
254.92997105835553
0
ARC
8
0
6
CONTINUOUS
10
50.170001678727914
20
4.286826301111738
30
0
40
3.0
50
285.0700289416444
51
0.060613195220159004
0
LINE
8
0
6
CONTINUOUS
10
-11.86
20
80.19
30
0
11
8.76
21
87.69
31
0
0
LINE
8
0
6
CONTINUOUS
10
8.76
20
87.69
30
0
11
10.17
21
86.27
31
0
0
LINE
8
0
6
CONTINUOUS
10
10.17
20
86.27
30
0
11
10.17
21
69.69
31
0
0
LINE
8
0
6
CONTINUOUS
10
10.17
20
69.69
30
0
11
17.17
21
69.69
31
0
0
LINE
8
0
6
CONTINUOUS
10
17.17
20
69.69
30
0
11
17.17
21
64.19
31
0
0
LINE
8
0
6
CONTINUOUS
10
50.95
20
84.64
30
0
11
39.59
21
87.69
31
0
0
LINE
8
0
6
CONTINUOUS
10
39.59
20
87.69
30
0
11
38.17
21
86.27
31
0
0
LINE
8
0
6
CONTINUOUS
10
38.17
20
86.27
30
0
11
38.17
21
69.69
31
0
0
LINE
8
0
6
CONTINUOUS
10
38.17
20
69.69
30
0
11
50.17
21
69.69
31
0
0
LINE
8
0
6
CONTINUOUS
10
50.17
20
69.69
30
0
11
21.67
21
69.69
31
0
0
LINE
8
0
6
CONTINUOUS
10
21.67
20
69.69
30
0
11
21.67
21
64.19
31
0
0
LINE
8
0
6
CONTINUOUS
10
21.67
20
64.19
30
0
11
17.17
21
64.19
31
0
0
LINE
8
0
6
CONTINUOUS
10
53.17
20
72.69
30
0
11
53.17
21
81.75
31
0
0
LINE
8
0
6
CONTINUOUS
10
53.17
20
-84.81
30
0
11
53.17
21
-18.91
31
0
0
LINE
8
0
6
CONTINUOUS
10
-1.53
20
-13.31
30
0
11
-1.53
21
-1.31
31
0
0
LINE
8
0
6
CONTINUOUS
10
-1.53
20
-1.31
30
0
11
-11.61
21
1.39
31
0
0
LINE
8
0
6
CONTINUOUS
10
50.95
20
-16.01
30
0
11
40.87
21
-13.31
31
0
0
LINE
8
0
6
CONTINUOUS
10
40.87
20
-13.31
30
0
11
40.87
21
-1.31
31
0
0
LINE
8
0
6
CONTINUOUS
10
40.87
20
-1.31
30
0
11
50.95
21
1.39
31
0
0
LINE
8
0
6
CONTINUOUS
10
-13.83
20
77.37
30
0
11
-13.83
21
4.29
31
0
0
LINE
8
0
6
CONTINUOUS
10
53.17
20
4.29
30
0
11
53.17
21
66.69
31
0
0
LINE
8
0
6
CONTINUOUS
10
50.17
20
-87.81
30
0
11
44.97
21
-87.81
31
0
0
LINE
8
0
6
CONTINUOUS
10
5.37
20
-87.81
30
0
11
-8.87
21
-87.81
31
0
0
ARC
8
0
6
CONTINUOUS
10
-10.83
20
-84.81
30
0
40
3.0
50
180.0
51
270.0
0
LINE
8
0
6
HIDDEN
10
21.67
20
64.19
30
0
11
-5.21
21
-0.33
31
0
0
ARC
8
0
6
CONTINUOUS
10
23.17
20
-80.81
30
0
40
1.5
50
0.0
51
90.0
0
ARC
8
0
6
CONTINUOUS
10
22.67
20
-78.81
30
0
40
0.5
50
180.0
51
270.0
0
ARC
8
0
6
CONTINUOUS
10
19.67
20
-76.81
30
0
40
2.5
50
0.0
51
180.0
0
ARC
8
0
6
CONTINUOUS
10
16.67
20
-78.81
30
0
40
0.5
50
270.0
51
0.0
0
ARC
8
0
6
CONTINUOUS
10
16.17
20
-80.81
30
0
40
1.5
50
90.0
51
180.0
0
ARC
8
0
6
CONTINUOUS
10
16.17
20
-80.81
30
0
40
0.5
50
90.0
51
180.0
0
ARC
8
0
6
CONTINUOUS
10
16.67
20
-78.81
30
0
40
1.5
50
270.0
51
0.0
0
ARC
8
0
6
CONTINUOUS
10
19.67
20
-76.81
30
0
40
1.5
50
0.0
51
180.0
0
ARC
8
0
6
CONTINUOUS
10
22.67
20
-78.81
30
0
40
1.5
50
180.0
51
270.0
0
ARC
8
0
6
CONTINUOUS
10
23.17
20
-80.81
30
0
40
0.5
50
0.0
51
90.0
0
LINE
8
0
6
CONTINUOUS
10
23.17
20
-79.31
30
0
11
22.67
21
-79.31
31
0
0
LINE
8
0
6
CONTINUOUS
10
22.17
20
-78.81
30
0
11
22.17
21
-76.81
31
0
0
LINE
8
0
6
CONTINUOUS
10
17.17
20
-76.81
30
0
11
17.17
21
-78.81
31
0
0
LINE
8
0
6
CONTINUOUS
10
16.67
20
-79.31
30
0
11
16.17
21
-79.31
31
0
0
LINE
8
0
6
CONTINUOUS
10
14.67
20
-80.81
30
0
11
14.67
21
-89.31
31
0
0
LINE
8
0
6
CONTINUOUS
10
14.67
20
-89.31
30
0
11
15.67
21
-89.31
31
0
0
LINE
8
0
6
CONTINUOUS
10
15.67
20
-89.31
30
0
11
15.67
21
-80.81
31
0
0
LINE
8
0
6
CONTINUOUS
10
16.17
20
-80.31
30
0
11
16.67
21
-80.31
31
0
0
LINE
8
0
6
CONTINUOUS
10
18.17
20
-78.81
30
0
11
18.17
21
-76.81
31
0
0
LINE
8
0
6
CONTINUOUS
10
21.17
20
-76.81
30
0
11
21.17
21
-78.81
31
0
0
LINE
8
0
6
CONTINUOUS
10
22.67
20
-80.31
30
0
11
23.17
21
-80.31
31
0
0
LINE
8
0
6
CONTINUOUS
10
23.67
20
-80.81
30
0
11
23.67
21
-89.31
31
0
0
LINE
8
0
6
CONTINUOUS
10
23.67
20
-89.31
30
0
11
24.67
21
-89.31
31
0
0
LINE
8
0
6
CONTINUOUS
10
24.67
20
-89.31
30
0
11
24.67
21
-80.81
31
0
0
LINE
8
0
6
CONTINUOUS
10
27.47
20
-93.81
30
0
11
29.47
21
-93.81
31
0
0
LINE
8
0
6
CONTINUOUS
10
29.47
20
-93.81
30
0
11
29.47
21
-91.21
31
0
0
LINE
8
0
6
CONTINUOUS
10
29.47
20
-91.21
30
0
11
38.47
21
-91.21
31
0
0
LINE
8
0
6
CONTINUOUS
10
38.47
20
-91.21
30
0
11
38.47
21
-93.81
31
0
0
LINE
8
0
6
CONTINUOUS
10
38.47
20
-93.81
30
0
11
39.47
21
-93.81
31
0
0
LINE
8
0
6
CONTINUOUS
10
39.47
20
-93.81
30
0
11
40.47
21
-91.81
31
0
0
LINE
8
0
6
CONTINUOUS
10
40.47
20
-91.81
30
0
11
40.47
21
-89.81
31
0
0
LINE
8
0
6
CONTINUOUS
10
40.47
20
-89.81
30
0
11
29.97
21
-89.81
31
0
0
LINE
8
0
6
CONTINUOUS
10
29.97
20
-89.81
30
0
11
27.57
21
-79.81
31
0
0
LINE
8
0
6
CONTINUOUS
10
27.57
20
-79.81
30
0
11
24.67
21
-79.81
31
0
0
LINE
8
0
6
CONTINUOUS
10
24.67
20
-79.81
30
0
11
24.67
21
-81.31
31
0
0
LINE
8
0
6
CONTINUOUS
10
24.67
20
-81.31
30
0
11
26.37
21
-81.31
31
0
0
LINE
8
0
6
CONTINUOUS
10
26.37
20
-81.31
30
0
11
28.07
21
-89.31
31
0
0
LINE
8
0
6
CONTINUOUS
10
28.07
20
-89.31
30
0
11
23.17
21
-89.31
31
0
0
LINE
8
0
6
CONTINUOUS
10
23.17
20
-89.31
30
0
11
21.67
21
-91.31
31
0
0
LINE
8
0
6
CONTINUOUS
10
21.67
20
-91.31
30
0
11
17.87
21
-91.31
31
0
0
LINE
8
0
6
CONTINUOUS
10
17.87
20
-91.31
30
0
11
16.17
21
-89.31
31
0
0
LINE
8
0
6
CONTINUOUS
10
16.17
20
-89.31
30
0
11
11.27
21
-89.31
31
0
0
LINE
8
0
6
CONTINUOUS
10
11.27
20
-89.31
30
0
11
12.97
21
-81.31
31
0
0
LINE
8
0
6
CONTINUOUS
10
12.97
20
-81.31
30
0
11
14.67
21
-81.31
31
0
0
LINE
8
0
6
CONTINUOUS
10
14.67
20
-81.31
30
0
11
14.67
21
-79.81
31
0
0
LINE
8
0
6
CONTINUOUS
10
14.67
20
-79.81
30
0
11
11.77
21
-79.81
31
0
0
LINE
8
0
6
CONTINUOUS
10
11.77
20
-79.81
30
0
11
9.37
21
-89.81
31
0
0
LINE
8
0
6
CONTINUOUS
10
9.37
20
-89.81
30
0
11
-1.13
21
-89.81
31
0
0
LINE
8
0
6
CONTINUOUS
10
-1.13
20
-89.81
30
0
11
-1.13
21
-91.81
31
0
0
LINE
8
0
6
CONTINUOUS
10
-1.13
20
-91.81
30
0
11
-0.13
21
-93.81
31
0
0
LINE
8
0
6
CONTINUOUS
10
-0.13
20
-93.81
30
0
11
0.87
21
-93.81
31
0
0
LINE
8
0
6
CONTINUOUS
10
0.87
20
-93.81
30
0
11
0.87
21
-91.21
31
0
0
LINE
8
0
6
CONTINUOUS
10
0.87
20
-91.21
30
0
11
9.87
21
-91.21
31
0
0
LINE
8
0
6
CONTINUOUS
10
9.87
20
-91.21
30
0
11
9.87
21
-93.81
31
0
0
LINE
8
0
6
CONTINUOUS
10
9.87
20
-93.81
30
0
11
11.87
21
-93.81
31
0
0
LINE
8
0
6
CONTINUOUS
10
11.87
20
-93.81
30
0
11
11.87
21
-90.81
31
0
0
LINE
8
0
6
CONTINUOUS
10
11.87
20
-90.81
30
0
11
15.87
21
-90.81
31
0
0
LINE
8
0
6
CONTINUOUS
10
15.87
20
-90.81
30
0
11
15.87
21
-93.81
31
0
0
LINE
8
0
6
CONTINUOUS
10
15.87
20
-93.81
30
0
11
17.87
21
-93.81
31
0
0
LINE
8
0
6
CONTINUOUS
10
17.87
20
-93.81
30
0
11
17.87
21
-92.81
31
0
0
LINE
8
0
6
CONTINUOUS
10
17.87
20
-92.81
30
0
11
21.47
21
-92.81
31
0
0
LINE
8
0
6
CONTINUOUS
10
21.47
20
-92.81
30
0
11
21.47
21
-93.81
31
0
0
LINE
8
0
6
CONTINUOUS
10
21.47
20
-93.81
30
0
11
23.47
21
-93.81
31
0
0
LINE
8
0
6
CONTINUOUS
10
23.47
20
-93.81
30
0
11
23.47
21
-90.81
31
0
0
LINE
8
0
6
CONTINUOUS
10
23.47
20
-90.81
30
0
11
27.47
21
-90.81
31
0
0
LINE
8
0
6
CONTINUOUS
10
27.47
20
-90.81
30
0
11
27.47
21
-93.81
31
0
0
LINE
8
0
6
CONTINUOUS
10
39.47
20
-87.81
30
0
11
38.67
21
-84.81
31
0
0
LINE
8
0
6
CONTINUOUS
10
38.67
20
-84.81
30
0
11
38.67
21
-77.31
31
0
0
LINE
8
0
6
CONTINUOUS
10
38.67
20
-77.31
30
0
11
35.67
21
-77.31
31
0
0
LINE
8
0
6
CONTINUOUS
10
35.67
20
-77.31
30
0
11
35.67
21
-84.81
31
0
0
LINE
8
0
6
CONTINUOUS
10
35.67
20
-84.81
30
0
11
30.67
21
-84.81
31
0
0
LINE
8
0
6
CONTINUOUS
10
30.67
20
-84.81
30
0
11
30.67
21
-29.81
31
0
0
LINE
8
0
6
CONTINUOUS
10
30.67
20
-29.81
30
0
11
8.67
21
-29.81
31
0
0
LINE
8
0
6
CONTINUOUS
10
8.67
20
-29.81
30
0
11
8.67
21
-84.81
31
0
0
LINE
8
0
6
CONTINUOUS
10
8.67
20
-84.81
30
0
11
3.67
21
-84.81
31
0
0
LINE
8
0
6
CONTINUOUS
10
3.67
20
-84.81
30
0
11
3.67
21
-77.31
31
0
0
LINE
8
0
6
CONTINUOUS
10
3.67
20
-77.31
30
0
11
0.65
21
-77.31
31
0
0
LINE
8
0
6
CONTINUOUS
10
0.65
20
-77.31
30
0
11
0.65
21
-84.9
31
0
0
LINE
8
0
6
CONTINUOUS
10
0.65
20
-84.9
30
0
11
-0.13
21
-87.81
31
0
0
ARC
8
0
6
CONTINUOUS
10
4.664088606926704
20
-90.99786392130609
30
0
40
2.7
50
77.68415861285925
51
129.6838808916359
0
ARC
8
0
6
CONTINUOUS
10
36.66010461288013
20
-88.8179219179636
30
0
40
0.3
50
230.6776975440757
51
1.5131507706998681
0
ARC
8
0
6
CONTINUOUS
10
32.59484541241729
20
-88.91746841726135
30
0
40
0.26
50
160.34127260396627
51
315.4087305152594
0
ARC
8
0
6
CONTINUOUS
10
34.6563590262517
20
-91.3892961373758
30
0
40
2.96
50
52.21381287292345
51
129.3388232593189
0
LINE
8
0
6
CONTINUOUS
10
5.24
20
-88.36
30
0
11
5.53
21
-88.44
31
0
0
ARC
8
0
6
CONTINUOUS
10
4.66
20
-91.00124962462459
30
0
40
2.7
50
50.42876803844961
51
129.57123196155038
0
ARC
8
0
6
CONTINUOUS
10
2.6599910289746003
20
-88.81232002904302
30
0
40
0.3
50
179.55690267490704
51
338.9653031232822
0
ARC
8
0
6
CONTINUOUS
10
6.660008971025399
20
-88.81232002904302
30
0
40
0.3
50
201.03469687671787
51
0.443097325092983
0
ARC
8
0
6
CONTINUOUS
10
0.33999999999999964
20
-80.63000000000001
30
0
40
1.3
50
306.8698976458443
51
6.263246141958924e-13
0
ARC
8
0
6
CONTINUOUS
10
3.9499974542840386
20
-80.63257271355187
30
0
40
1.3
50
179.88661098104842
51
233.6791986233019
0
ARC
8
0
6
CONTINUOUS
10
3.05
20
-86.00999999999999
30
0
40
0.2
50
270.0
51
359.9999999999959
0
ARC
8
0
6
CONTINUOUS
10
1.25
20
-86.00999999999999
30
0
40
0.2
50
180.00000000000406
51
270.0
0
ARC
8
0
6
CONTINUOUS
10
1.25
20
-85.81
30
0
40
0.2
50
270.0
51
0.0
0
ARC
8
0
6
CONTINUOUS
10
3.0500000000000003
20
-85.81
30
0
40
0.2
50
180.0
51
269.9999999999999
0
ARC
8
0
6
CONTINUOUS
10
3.4390448368275424
20
-83.93701765723915
30
0
40
0.35
50
231.25595654821757
51
311.2901034918935
0
ARC
8
0
6
CONTINUOUS
10
3.4382377504080193
20
-82.32123050897654
30
0
40
0.34
50
232.23212180267683
51
312.97300260232527
0
ARC
8
0
6
CONTINUOUS
10
0.855
20
-82.31875288019963
30
0
40
0.34
50
232.91916441188397
51
307.08083558811603
0
ARC
8
0
6
CONTINUOUS
10
0.8533362848837764
20
-83.93512396511875
30
0
40
0.35
50
234.4818504152847
51
308.2460046479225
0
ARC
8
0
6
CONTINUOUS
10
38.98
20
-80.63000000000001
30
0
40
1.3
50
179.99999999999937
51
233.13010235415598
0
ARC
8
0
6
CONTINUOUS
10
35.360038241799984
20
-80.63997131974857
30
0
40
1.3
50
306.8677908539899
51
0.4394770307004255
0
ARC
8
0
6
CONTINUOUS
10
36.27
20
-86.00999999999999
30
0
40
0.2
50
180.00000000000406
51
270.0
0
ARC
8
0
6
CONTINUOUS
10
38.07000015643588
20
-86.01025014861408
30
0
40
0.2
50
272.86593911089557
51
0.07166231787100331
0
ARC
8
0
6
CONTINUOUS
10
38.07
20
-85.81
30
0
40
0.2
50
180.0
51
270.0
0
ARC
8
0
6
CONTINUOUS
10
36.27
20
-85.81
30
0
40
0.2
50
270.0
51
0.0
0
ARC
8
0
6
CONTINUOUS
10
35.8785800143134
20
-83.93894061547597
30
0
40
0.35
50
233.42012161180293
51
309.24431809593597
0
ARC
8
0
6
CONTINUOUS
10
35.88
20
-82.32260516085759
30
0
40
0.34
50
231.85548689876916
51
308.1445131012308
0
ARC
8
0
6
CONTINUOUS
10
38.465
20
-82.31875288019963
30
0
40
0.34
50
232.91916441188323
51
307.0808355881158
0
ARC
8
0
6
CONTINUOUS
10
38.466663715116226
20
-83.93512396511876
30
0
40
0.35
50
231.7539953520757
51
305.5181495847165
0
ARC
8
0
6
CONTINUOUS
10
19.611164409245454
20
-33.41000027116979
30
0
40
2.5
50
184.81851719576446
51
269.97331370487893
0
ARC
8
0
6
CONTINUOUS
10
19.60801277773669
20
-33.41000078981059
30
0
40
2.5
50
270.04554378425297
51
355.4114524235424
0
LINE
8
0
6
CONTINUOUS
10
1.45
20
-85.81
30
0
11
1.45
21
-83.91
31
0
0
LINE
8
0
6
CONTINUOUS
10
1.45
20
-83.91
30
0
11
1.07
21
-84.21
31
0
0
LINE
8
0
6
CONTINUOUS
10
3.65
20
-82.59
30
0
11
3.65
21
-82.4
31
0
0
LINE
8
0
6
CONTINUOUS
10
3.65
20
-82.4
30
0
11
3.65
21
-82.03
31
0
0
LINE
8
0
6
CONTINUOUS
10
3.65
20
-82.03
30
0
11
3.44
21
-81.88
31
0
0
LINE
8
0
6
CONTINUOUS
10
3.44
20
-81.88
30
0
11
3.18
21
-81.68
31
0
0
LINE
8
0
6
CONTINUOUS
10
3.65
20
-84.22
30
0
11
3.65
21
-83.65
31
0
0
LINE
8
0
6
CONTINUOUS
10
3.65
20
-83.65
30
0
11
2.85
21
-83.02
31
0
0
LINE
8
0
6
CONTINUOUS
10
2.85
20
-83.02
30
0
11
2.85
21
-82.31
31
0
0
LINE
8
0
6
CONTINUOUS
10
2.85
20
-82.31
30
0
11
3.23
21
-82.59
31
0
0
LINE
8
0
6
CONTINUOUS
10
2.85
20
-85.81
30
0
11
2.85
21
-83.91
31
0
0
LINE
8
0
6
CONTINUOUS
10
2.85
20
-83.91
30
0
11
3.22
21
-84.21
31
0
0
LINE
8
0
6
CONTINUOUS
10
3.05
20
-86.21
30
0
11
1.25
21
-86.21
31
0
0
LINE
8
0
6
CONTINUOUS
10
1.12
20
-81.67
30
0
11
0.86
21
-81.88
31
0
0
LINE
8
0
6
CONTINUOUS
10
0.86
20
-81.88
30
0
11
0.65
21
-82.03
31
0
0
LINE
8
0
6
CONTINUOUS
10
0.65
20
-82.03
30
0
11
0.65
21
-82.59
31
0
0
LINE
8
0
6
CONTINUOUS
10
1.06
20
-82.59
30
0
11
1.45
21
-82.31
31
0
0
LINE
8
0
6
CONTINUOUS
10
1.45
20
-82.31
30
0
11
1.45
21
-83.02
31
0
0
LINE
8
0
6
CONTINUOUS
10
1.45
20
-83.02
30
0
11
0.65
21
-83.65
31
0
0
LINE
8
0
6
CONTINUOUS
10
0.65
20
-83.65
30
0
11
0.65
21
-84.22
31
0
0
LINE
8
0
6
CONTINUOUS
10
-0.01
20
-89.01
30
0
11
0.66
21
-86.01
31
0
0
LINE
8
0
6
CONTINUOUS
10
0.66
20
-86.01
30
0
11
1.25
21
-86.01
31
0
0
LINE
8
0
6
CONTINUOUS
10
2.65
20
-80.63
30
0
11
2.65
21
-79.01
31
0
0
LINE
8
0
6
CONTINUOUS
10
2.65
20
-79.01
30
0
11
1.65
21
-79.01
31
0
0
LINE
8
0
6
CONTINUOUS
10
1.65
20
-79.01
30
0
11
1.65
21
-80.63
31
0
0
LINE
8
0
6
CONTINUOUS
10
8.12
20
-87.01
30
0
11
1.26
21
-87.01
31
0
0
LINE
8
0
6
CONTINUOUS
10
8.66
20
-86.01
30
0
11
3.05
21
-86.01
31
0
0
LINE
8
0
6
CONTINUOUS
10
37.87
20
-85.81
30
0
11
37.87
21
-83.91
31
0
0
LINE
8
0
6
CONTINUOUS
10
37.87
20
-83.91
30
0
11
38.25
21
-84.21
31
0
0
LINE
8
0
6
CONTINUOUS
10
35.67
20
-82.59
30
0
11
35.67
21
-82.4
31
0
0
LINE
8
0
6
CONTINUOUS
10
35.67
20
-82.4
30
0
11
35.67
21
-82.03
31
0
0
LINE
8
0
6
CONTINUOUS
10
35.67
20
-82.03
30
0
11
35.88
21
-81.88
31
0
0
LINE
8
0
6
CONTINUOUS
10
35.88
20
-81.88
30
0
11
36.14
21
-81.68
31
0
0
LINE
8
0
6
CONTINUOUS
10
35.67
20
-84.22
30
0
11
35.67
21
-83.65
31
0
0
LINE
8
0
6
CONTINUOUS
10
35.67
20
-83.65
30
0
11
36.47
21
-83.02
31
0
0
LINE
8
0
6
CONTINUOUS
10
36.47
20
-83.02
30
0
11
36.47
21
-82.31
31
0
0
LINE
8
0
6
CONTINUOUS
10
36.47
20
-82.31
30
0
11
36.09
21
-82.59
31
0
0
LINE
8
0
6
CONTINUOUS
10
36.47
20
-85.81
30
0
11
36.47
21
-83.91
31
0
0
LINE
8
0
6
CONTINUOUS
10
36.47
20
-83.91
30
0
11
36.1
21
-84.21
31
0
0
LINE
8
0
6
CONTINUOUS
10
36.27
20
-86.21
30
0
11
38.08
21
-86.21
31
0
0
LINE
8
0
6
CONTINUOUS
10
38.2
20
-81.67
30
0
11
38.46
21
-81.88
31
0
0
LINE
8
0
6
CONTINUOUS
10
38.46
20
-81.88
30
0
11
38.67
21
-82.03
31
0
0
LINE
8
0
6
CONTINUOUS
10
38.67
20
-82.03
30
0
11
38.67
21
-82.59
31
0
0
LINE
8
0
6
CONTINUOUS
10
38.26
20
-82.59
30
0
11
37.87
21
-82.31
31
0
0
LINE
8
0
6
CONTINUOUS
10
37.87
20
-82.31
30
0
11
37.87
21
-83.02
31
0
0
LINE
8
0
6
CONTINUOUS
10
37.87
20
-83.02
30
0
11
38.67
21
-83.65
31
0
0
LINE
8
0
6
CONTINUOUS
10
38.67
20
-83.65
30
0
11
38.67
21
-84.22
31
0
0
LINE
8
0
6
CONTINUOUS
10
39.33
20
-89.01
30
0
11
38.66
21
-86.01
31
0
0
LINE
8
0
6
CONTINUOUS
10
38.66
20
-86.01
30
0
11
38.07
21
-86.01
31
0
0
LINE
8
0
6
CONTINUOUS
10
36.67
20
-80.63
30
0
11
36.67
21
-79.01
31
0
0
LINE
8
0
6
CONTINUOUS
10
36.67
20
-79.01
30
0
11
37.67
21
-79.01
31
0
0
LINE
8
0
6
CONTINUOUS
10
37.67
20
-79.01
30
0
11
37.67
21
-80.63
31
0
0
LINE
8
0
6
CONTINUOUS
10
31.19
20
-87.01
30
0
11
38.06
21
-87.01
31
0
0
LINE
8
0
6
CONTINUOUS
10
30.66
20
-86.01
30
0
11
36.27
21
-86.01
31
0
0
LINE
8
0
6
CONTINUOUS
10
11.16
20
-42.61
30
0
11
11.16
21
-32.61
31
0
0
LINE
8
0
6
CONTINUOUS
10
11.16
20
-32.61
30
0
11
28.16
21
-32.61
31
0
0
LINE
8
0
6
CONTINUOUS
10
28.16
20
-32.61
30
0
11
28.16
21
-42.61
31
0
0
LINE
8
0
6
CONTINUOUS
10
11.06
20
-42.61
30
0
11
11.06
21
-68.61
31
0
0
LINE
8
0
6
CONTINUOUS
10
11.06
20
-68.61
30
0
11
13.06
21
-68.61
31
0
0
LINE
8
0
6
CONTINUOUS
10
13.06
20
-68.61
30
0
11
13.06
21
-42.61
31
0
0
LINE
8
0
6
CONTINUOUS
10
13.06
20
-42.61
30
0
11
9.16
21
-42.61
31
0
0
LINE
8
0
6
CONTINUOUS
10
9.16
20
-42.61
30
0
11
9.16
21
-30.61
31
0
0
LINE
8
0
6
CONTINUOUS
10
28.26
20
-42.61
30
0
11
28.26
21
-68.61
31
0
0
LINE
8
0
6
CONTINUOUS
10
28.26
20
-68.61
30
0
11
26.26
21
-68.61
31
0
0
LINE
8
0
6
CONTINUOUS
10
26.26
20
-68.61
30
0
11
26.26
21
-42.61
31
0
0
LINE
8
0
6
CONTINUOUS
10
26.26
20
-42.61
30
0
11
30.16
21
-42.61
31
0
0
LINE
8
0
6
CONTINUOUS
10
30.16
20
-42.61
30
0
11
30.16
21
-30.61
31
0
0
LINE
8
0
6
CONTINUOUS
10
14.66
20
-54.61
30
0
11
14.66
21
-33.61
31
0
0
LINE
8
0
6
CONTINUOUS
10
14.66
20
-33.61
30
0
11
17.11
21
-33.61
31
0
0
LINE
8
0
6
CONTINUOUS
10
17.11
20
-33.61
30
0
11
17.11
21
-75.61
31
0
0
LINE
8
0
6
CONTINUOUS
10
17.11
20
-75.61
30
0
11
14.66
21
-75.61
31
0
0
LINE
8
0
6
CONTINUOUS
10
14.66
20
-75.61
30
0
11
14.66
21
-54.61
31
0
0
LINE
8
0
6
CONTINUOUS
10
24.66
20
-54.61
30
0
11
24.66
21
-75.61
31
0
0
LINE
8
0
6
CONTINUOUS
10
24.66
20
-75.61
30
0
11
22.11
21
-75.61
31
0
0
LINE
8
0
6
CONTINUOUS
10
22.11
20
-75.61
30
0
11
22.11
21
-33.61
31
0
0
LINE
8
0
6
CONTINUOUS
10
22.11
20
-33.61
30
0
11
24.66
21
-33.61
31
0
0
LINE
8
0
6
CONTINUOUS
10
24.66
20
-33.61
30
0
11
24.66
21
-54.61
31
0
0
LINE
8
0
6
CONTINUOUS
10
14.66
20
-67.61
30
0
11
13.66
21
-67.61
31
0
0
LINE
8
0
6
CONTINUOUS
10
13.66
20
-67.61
30
0
11
13.66
21
-54.61
31
0
0
LINE
8
0
6
CONTINUOUS
10
13.66
20
-54.61
30
0
11
13.66
21
-41.61
31
0
0
LINE
8
0
6
CONTINUOUS
10
13.66
20
-41.61
30
0
11
14.66
21
-41.61
31
0
0
LINE
8
0
6
CONTINUOUS
10
24.66
20
-41.61
30
0
11
25.66
21
-41.61
31
0
0
LINE
8
0
6
CONTINUOUS
10
25.66
20
-41.61
30
0
11
25.66
21
-54.61
31
0
0
LINE
8
0
6
CONTINUOUS
10
25.66
20
-54.61
30
0
11
25.66
21
-67.61
31
0
0
LINE
8
0
6
CONTINUOUS
10
25.66
20
-67.61
30
0
11
24.66
21
-67.61
31
0
0
LINE
8
0
6
CONTINUOUS
10
25.66
20
-59.61
30
0
11
26.26
21
-59.61
31
0
0
LINE
8
0
6
CONTINUOUS
10
25.66
20
-49.61
30
0
11
26.26
21
-49.61
31
0
0
LINE
8
0
6
CONTINUOUS
10
13.06
20
-49.61
30
0
11
13.66
21
-49.61
31
0
0
LINE
8
0
6
CONTINUOUS
10
13.06
20
-59.61
30
0
11
13.66
21
-59.61
31
0
0
ARC
8
0
6
CONTINUOUS
10
-1.6099999658571504
20
-89.41
30
0
40
0.4
50
90.00000489060297
51
269.99999510939705
0
ARC
8
0
6
CONTINUOUS
10
-0.009487048771015527
20
-89.01000016444937
30
0
40
0.8
50
269.96326257183665
51
346.99713392484944
0
ARC
8
0
6
CONTINUOUS
10
2.659992083083265
20
-88.81397916709783
30
0
40
1.0
50
179.77200991765753
51
300.0005237803773
0
ARC
8
0
6
CONTINUOUS
10
6.656720393153739
20
-88.8120893761307
30
0
40
1.0
50
240.21674087587792
51
17.583139203478666
0
ARC
8
0
6
CONTINUOUS
10
4.66
20
-90.9965496196957
30
0
40
2.0
50
36.38974467753359
51
143.61025532246643
0
ARC
8
0
6
CONTINUOUS
10
1.66005230277937
20
-88.01855693610689
30
0
40
0.7
50
0.7004121938808378
51
137.98176767950363
0
ARC
8
0
6
CONTINUOUS
10
8.236459385012031
20
-87.94822094411738
30
0
40
0.75
50
197.1998415259033
51
7.525143305525832
0
ARC
8
0
6
CONTINUOUS
10
7.490360107943578
20
-88.05982784800933
30
0
40
0.712157389763861
50
4.8190585129696695
51
204.04506735930175
0
ARC
8
0
6
CONTINUOUS
10
40.92999996585715
20
-89.41
30
0
40
0.4
50
270.00000489060307
51
89.99999510939693
0
ARC
8
0
6
CONTINUOUS
10
39.329487048771014
20
-89.01000016444937
30
0
40
0.8
50
193.00286607515054
51
270.0367374281633
0
ARC
8
0
6
CONTINUOUS
10
36.66000791691673
20
-88.81397916709783
30
0
40
1.0
50
239.99947621962258
51
0.22799008234248974
0
ARC
8
0
6
CONTINUOUS
10
32.66327960684627
20
-88.8120893761307
30
0
40
1.0
50
162.41686079652143
51
299.7832591241216
0
ARC
8
0
6
CONTINUOUS
10
34.66
20
-90.9965496196957
30
0
40
2.0
50
36.38974467753347
51
143.6102553224664
0
ARC
8
0
6
CONTINUOUS
10
37.65994769722063
20
-88.01855693610689
30
0
40
0.7
50
42.01823232049641
51
179.29958780611918
0
ARC
8
0
6
CONTINUOUS
10
31.091175986621376
20
-87.88975406145804
30
0
40
0.7622134005719408
50
177.01032036789533
51
338.4277708219055
0
ARC
8
0
6
CONTINUOUS
10
31.83045917460111
20
-88.05493200706245
30
0
40
0.7134202158027569
50
335.56904736714625
51
174.77799269214248
0
LINE
8
0
6
CONTINUOUS
10
35.66
20
-86.01
30
0
11
30.66
21
-86.01
31
0
0
LINE
8
0
6
CONTINUOUS
10
30.66
20
-86.01
30
0
11
30.33
21
-87.85
31
0
0
LINE
8
0
6
CONTINUOUS
10
3.66
20
-86.01
30
0
11
8.66
21
-86.01
31
0
0
LINE
8
0
6
CONTINUOUS
10
8.66
20
-86.01
30
0
11
8.98
21
-87.85
31
0
0
LINE
8
0
6
CONTINUOUS
10
-0.01
20
-89.01
30
0
11
-1.61
21
-89.01
31
0
0
LINE
8
0
6
CONTINUOUS
10
-1.61
20
-89.81
30
0
11
-0.01
21
-89.81
31
0
0
LINE
8
0
6
CONTINUOUS
10
0.77
20
-89.19
30
0
11
0.92
21
-88.51
31
0
0
LINE
8
0
6
CONTINUOUS
10
0.92
20
-88.51
30
0
11
1.66
21
-88.01
31
0
0
LINE
8
0
6
CONTINUOUS
10
1.66
20
-88.01
30
0
11
1.66
21
-88.81
31
0
0
LINE
8
0
6
CONTINUOUS
10
2.36
20
-88.01
30
0
11
2.36
21
-88.81
31
0
0
LINE
8
0
6
CONTINUOUS
10
1.26
20
-87.01
30
0
11
1.14
21
-87.55
31
0
0
LINE
8
0
6
CONTINUOUS
10
7.52
20
-88.17
30
0
11
7.61
21
-88.51
31
0
0
LINE
8
0
6
CONTINUOUS
10
6.84
20
-88.35
30
0
11
6.96
21
-88.81
31
0
0
LINE
8
0
6
CONTINUOUS
10
8.12
20
-87.01
30
0
11
8.2
21
-88.0
31
0
0
LINE
8
0
6
CONTINUOUS
10
39.33
20
-89.01
30
0
11
40.93
21
-89.01
31
0
0
LINE
8
0
6
CONTINUOUS
10
40.93
20
-89.81
30
0
11
39.33
21
-89.81
31
0
0
LINE
8
0
6
CONTINUOUS
10
38.55
20
-89.19
30
0
11
38.4
21
-88.51
31
0
0
LINE
8
0
6
CONTINUOUS
10
38.4
20
-88.51
30
0
11
37.66
21
-88.01
31
0
0
LINE
8
0
6
CONTINUOUS
10
37.66
20
-88.01
30
0
11
37.66
21
-88.81
31
0
0
LINE
8
0
6
CONTINUOUS
10
38.06
20
-87.01
30
0
11
38.18
21
-87.55
31
0
0
LINE
8
0
6
CONTINUOUS
10
31.8
20
-88.17
30
0
11
31.71
21
-88.51
31
0
0
LINE
8
0
6
CONTINUOUS
10
31.19
20
-87.01
30
0
11
31.12
21
-87.99
31
0
0
LINE
8
0
6
CONTINUOUS
10
36.96
20
-88.01
30
0
11
36.96
21
-88.81
31
0
0
LINE
8
0
6
CONTINUOUS
10
32.48
20
-88.35
30
0
11
32.35
21
-88.83
31
0
0
LINE
8
0
6
CONTINUOUS
10
9.16
20
-30.61
30
0
11
30.16
21
-30.61
31
0
0
LINE
8
0
6
CONTINUOUS
10
-13.83
20
-18.91
30
0
11
-13.83
21
-84.81
31
0
0
ARC
8
0
6
CONTINUOUS
10
-10.830001678727907
20
-18.906826301111742
30
0
40
3.0
50
105.07002894164445
51
180.06061319522007
0
LINE
8
0
6
CONTINUOUS
10
-1.53
20
-13.31
30
0
11
-11.61
21
-16.01
31
0
0
ENDSEC
0
EOF