0
SECTION
2
HEADER
0
ENDSEC
0
SECTION
2
TABLES
0
TABLE
2
LTYPE
70
3
0
LTYPE
2
CONTINUOUS
70
0
3
Solid line
72
65
73
0
40
0.0
0
LTYPE
2
HIDDEN
70
0
3
hidden
72
65
73
2
40
9.524999999999999
49
6.35
49
-3.175
0
ENDTAB
0
TABLE
2
LAYER
70
1
0
LAYER
2
0
70
0
62
7
6
CONTINUOUS
0
ENDTAB
0
ENDSEC
0
SECTION
2
ENTITIES
0
LINE
8
0
6
CONTINUOUS
10
-154.04
20
-84.87
30
0
11
-154.04
21
125.0
31
0
0
LINE
8
0
6
CONTINUOUS
10
-65.0
20
-84.87
30
0
11
-65.0
21
125.0
31
0
0
LINE
8
0
6
CONTINUOUS
10
138.0
20
40.0
30
0
11
-154.04
21
40.0
31
0
0
LINE
8
0
6
CONTINUOUS
10
78.45
20
125.0
30
0
11
78.45
21
-84.87
31
0
0
LINE
8
0
6
CONTINUOUS
10
138.0
20
125.0
30
0
11
138.0
21
-84.87
31
0
0
LINE
8
0
6
CONTINUOUS
10
-65.0
20
125.0
30
0
11
-65.0
21
-84.87
31
0
0
LINE
8
0
6
CONTINUOUS
10
138.0
20
125.0
30
0
11
-154.04
21
125.0
31
0
0
LINE
8
0
6
CONTINUOUS
10
138.0
20
-84.87
30
0
11
-154.04
21
-84.87
31
0
0
LINE
8
0
6
CONTINUOUS
10
0.0
20
-84.87
30
0
11
0.0
21
125.0
31
0
0
LINE
8
0
6
CONTINUOUS
10
-154.04
20
0.0
30
0
11
138.0
21
0.0
31
0
0
ARC
8
0
6
CONTINUOUS
10
5.397987580575174
20
62.5
30
0
40
54.0
50
283.6265702024331
51
76.3734297975669
0
LINE
8
0
6
CONTINUOUS
10
18.12
20
10.02
30
0
11
18.17
21
8.02
31
0
0
LINE
8
0
6
CONTINUOUS
10
18.17
20
8.02
30
0
11
71.57
21
8.02
31
0
0
LINE
8
0
6
CONTINUOUS
10
71.57
20
8.02
30
0
11
76.65
21
11.2
31
0
0
LINE
8
0
6
CONTINUOUS
10
76.65
20
11.2
30
0
11
76.65
21
114.15
31
0
0
LINE
8
0
6
CONTINUOUS
10
76.65
20
114.15
30
0
11
72.12
21
116.66
31
0
0
LINE
8
0
6
CONTINUOUS
10
72.12
20
116.66
30
0
11
18.16
21
116.66
31
0
0
LINE
8
0
6
CONTINUOUS
10
18.16
20
116.66
30
0
11
18.12
21
114.98
31
0
0
LINE
8
0
6
CONTINUOUS
10
-55.94
20
122.8
30
0
11
-38.72
21
122.8
31
0
0
ARC
8
0
6
CONTINUOUS
10
-38.725878049706594
20
122.30003455266223
30
0
40
0.5
50
293.0638132488115
51
89.32640960378886
0
ARC
8
0
6
CONTINUOUS
10
-22.502201831270387
20
82.80220183127041
30
0
40
42.2
50
112.32164431005945
51
157.6783556899406
0
ARC
8
0
6
CONTINUOUS
10
-62.000034552662235
20
99.02587804970658
30
0
40
0.5
50
180.6735903962095
51
336.93618675119063
0
LINE
8
0
6
CONTINUOUS
10
-62.5
20
99.02
30
0
11
-62.5
21
115.65
31
0
0
ARC
8
0
6
CONTINUOUS
10
-62.00003141919566
20
115.64439480522269
30
0
40
0.5
50
48.695334619741054
51
179.35767853761644
0
ARC
8
0
6
CONTINUOUS
10
-59.008632001006646
20
119.00615478063916
30
0
40
4.0
50
228.29143196928248
51
257.56440755473193
0
ARC
8
0
6
CONTINUOUS
10
-59.649400006367664
20
116.07536436412727
30
0
40
1.0
50
257.2557240592739
51
1.9848727424758659
0
ARC
8
0
6
CONTINUOUS
10
-59.548868523862176
20
116.15511515055759
30
0
40
0.9
50
357.1266761010608
51
103.5674870995378
0
ARC
8
0
6
CONTINUOUS
10
-59.014657163276595
20
119.01465716327661
30
0
40
2.12
50
20.583790209300936
51
249.416209790699
0
ARC
8
0
6
CONTINUOUS
10
-56.15511515055759
20
119.54886852386218
30
0
40
0.9
50
166.43251290046223
51
272.8733238989392
0
ARC
8
0
6
CONTINUOUS
10
-56.07536436412729
20
119.64940000636767
30
0
40
1.0
50
268.01512725752536
51
12.744275940725899
0
ARC
8
0
6
CONTINUOUS
10
-59.00454757410537
20
119.00137566143479
30
0
40
4.0
50
12.542050864418329
51
47.0674520819419
0
ARC
8
0
6
CONTINUOUS
10
-55.94371172371166
20
122.30001377708273
30
0
40
0.5
50
89.57466388660539
51
227.73376281521482
0
ARC
8
0
6
CONTINUOUS
10
-57.69938682638381
20
9.52164324444149
30
0
40
1.2
50
297.7850419048082
51
1.8317121732764314
0
ARC
8
0
6
CONTINUOUS
10
-57.39912988224653
20
9.599565829339872
30
0
40
0.9
50
357.4803490234389
51
98.36109401856179
0
ARC
8
0
6
CONTINUOUS
10
-57.37236572513022
20
9.600172776389924
30
0
40
0.9
50
91.12270464954615
51
148.53146465940338
0
ARC
8
0
6
CONTINUOUS
10
-58.992760224213114
20
12.0
30
0
40
2.11
50
66.16201670946775
51
293.83798329053224
0
ARC
8
0
6
CONTINUOUS
10
-57.37236572513022
20
14.399827223610076
30
0
40
0.9
50
211.46853534059662
51
268.87729535045383
0
ARC
8
0
6
CONTINUOUS
10
-57.39912988224653
20
14.400434170660128
30
0
40
0.9
50
261.6389059814382
51
2.519650976561093
0
ARC
8
0
6
CONTINUOUS
10
-57.69938682638381
20
14.47835675555851
30
0
40
1.2
50
358.16828782672354
51
62.21495809519176
0
ARC
8
0
6
CONTINUOUS
10
-59.001972316774086
20
11.999793919618952
30
0
40
4.0
50
62.25786204560364
51
131.83647569498234
0
ARC
8
0
6
CONTINUOUS
10
-62.00003141919566
20
15.35560519477731
30
0
40
0.5
50
180.64232146238277
51
311.3046653802588
0
LINE
8
0
6
CONTINUOUS
10
-62.5
20
15.35
30
0
11
-62.5
21
82.8
31
0
0
ARC
8
0
6
CONTINUOUS
10
-22.500000000000004
20
82.8
30
0
40
40.0
50
90.0
51
180.0
0
LINE
8
0
6
CONTINUOUS
10
-22.5
20
122.8
30
0
11
-11.42
21
122.8
31
0
0
LINE
8
0
6
CONTINUOUS
10
-11.42
20
122.8
30
0
11
-11.42
21
117.5
31
0
0
LINE
8
0
6
CONTINUOUS
10
-11.42
20
117.5
30
0
11
9.07
21
117.5
31
0
0
ARC
8
0
6
CONTINUOUS
10
9.063964079264812
20
116.50001821633548
30
0
40
1.0
50
29.998794824263754
51
89.65416511644757
0
ARC
8
0
6
CONTINUOUS
10
10.623788305249478
20
117.39831870091557
30
0
40
0.8
50
209.86105481754038
51
279.80320488289686
0
ARC
8
0
6
CONTINUOUS
10
10.91451287490335
20
117.49663733932712
30
0
40
0.9
50
260.11443127571
51
53.488387696993954
0
ARC
8
0
6
CONTINUOUS
10
13.399999999999999
20
119.02597766718439
30
0
40
2.11
50
337.54362144642386
51
202.45637855357617
0
ARC
8
0
6
CONTINUOUS
10
15.882155597652153
20
117.49418292945985
30
0
40
0.9
50
126.24817758677054
51
292.0479661046555
0
LINE
8
0
6
CONTINUOUS
10
16.22
20
116.66
30
0
11
19.47
21
116.66
31
0
0
LINE
8
0
6
CONTINUOUS
10
19.47
20
116.66
30
0
11
20.55
21
116.27
31
0
0
ARC
8
0
6
CONTINUOUS
10
20.711592037789952
20
116.71134795040068
30
0
40
0.47
50
249.89065566393296
51
4.717240892034854
0
LINE
8
0
6
CONTINUOUS
10
21.18
20
116.75
30
0
11
20.96
21
119.2
31
0
0
LINE
8
0
6
CONTINUOUS
10
20.96
20
119.2
30
0
11
17.9
21
118.38
31
0
0
LINE
8
0
6
CONTINUOUS
10
17.9
20
118.38
30
0
11
17.9
21
123.71
31
0
0
LINE
8
0
6
CONTINUOUS
10
17.9
20
123.71
30
0
11
20.4
21
122.26
31
0
0
LINE
8
0
6
CONTINUOUS
10
20.4
20
122.26
30
0
11
20.4
21
124.0
31
0
0
ARC
8
0
6
CONTINUOUS
10
19.4
20
124.0
30
0
40
1.0
50
0.0
51
90.0
0
LINE
8
0
6
CONTINUOUS
10
19.4
20
125.0
30
0
11
16.1
21
125.0
31
0
0
LINE
8
0
6
CONTINUOUS
10
16.1
20
125.0
30
0
11
16.1
21
122.8
31
0
0
LINE
8
0
6
CONTINUOUS
10
16.1
20
122.8
30
0
11
11.38
21
122.8
31
0
0
LINE
8
0
6
CONTINUOUS
10
11.38
20
122.8
30
0
11
11.38
21
125.0
31
0
0
LINE
8
0
6
CONTINUOUS
10
11.38
20
125.0
30
0
11
7.97
21
125.0
31
0
0
LINE
8
0
6
CONTINUOUS
10
7.97
20
125.0
30
0
11
7.18
21
123.6
31
0
0
LINE
8
0
6
CONTINUOUS
10
7.18
20
123.6
30
0
11
7.18
21
122.8
31
0
0
LINE
8
0
6
CONTINUOUS
10
7.18
20
122.8
30
0
11
9.58
21
122.8
31
0
0
LINE
8
0
6
CONTINUOUS
10
9.58
20
122.8
30
0
11
9.58
21
119.7
31
0
0
LINE
8
0
6
CONTINUOUS
10
9.58
20
119.7
30
0
11
-9.22
21
119.7
31
0
0
LINE
8
0
6
CONTINUOUS
10
-9.22
20
119.7
30
0
11
-9.22
21
122.8
31
0
0
LINE
8
0
6
CONTINUOUS
10
-9.22
20
122.8
30
0
11
-6.82
21
122.8
31
0
0
LINE
8
0
6
CONTINUOUS
10
-6.82
20
122.8
30
0
11
-6.82
21
123.6
31
0
0
LINE
8
0
6
CONTINUOUS
10
-6.82
20
123.6
30
0
11
-7.62
21
125.0
31
0
0
LINE
8
0
6
CONTINUOUS
10
-7.62
20
125.0
30
0
11
-63.5
21
125.0
31
0
0
ARC
8
0
6
CONTINUOUS
10
-63.5
20
123.5
30
0
40
1.5
50
90.0
51
180.0
0
LINE
8
0
6
CONTINUOUS
10
-65.0
20
123.5
30
0
11
-65.0
21
0.5
31
0
0
ARC
8
0
6
CONTINUOUS
10
-64.5
20
0.5
30
0
40
0.5
50
180.0
51
270.0
0
LINE
8
0
6
CONTINUOUS
10
-64.5
20
0.0
30
0
11
-59.0
21
0.0
31
0
0
LINE
8
0
6
CONTINUOUS
10
-59.0
20
0.0
30
0
11
-59.0
21
3.13
31
0
0
LINE
8
0
6
CONTINUOUS
10
-59.0
20
3.13
30
0
11
-61.0
21
3.13
31
0
0
LINE
8
0
6
CONTINUOUS
10
-61.0
20
3.13
30
0
11
-61.0
21
2.0
31
0
0
LINE
8
0
6
CONTINUOUS
10
-61.0
20
2.0
30
0
11
-62.5
21
2.0
31
0
0
LINE
8
0
6
CONTINUOUS
10
-62.5
20
2.0
30
0
11
-62.5
21
8.13
31
0
0
ARC
8
0
6
CONTINUOUS
10
-61.75
20
8.13
30
0
40
0.75
50
0.0
51
180.0
0
LINE
8
0
6
CONTINUOUS
10
-61.0
20
8.13
30
0
11
-61.0
21
7.2
31
0
0
LINE
8
0
6
CONTINUOUS
10
-61.0
20
7.2
30
0
11
-59.0
21
7.2
31
0
0
LINE
8
0
6
CONTINUOUS
10
-59.0
20
7.2
30
0
11
-59.0
21
8.0
31
0
0
ARC
8
0
6
CONTINUOUS
10
-59.00236541842781
20
11.999999300599397
30
0
40
4.0
50
270.0338821251487
51
297.748500217761
0
ARC
8
0
6
CONTINUOUS
10
39.47236608156728
20
58.29767369961584
30
0
40
1.75
50
353.184609723086
51
134.30637430177012
0
LINE
8
0
6
CONTINUOUS
10
38.25
20
59.55
30
0
11
36.35
21
57.69
31
0
0
ARC
8
0
6
CONTINUOUS
10
34.779999352827595
20
59.3017065390071
30
0
40
2.25
50
180.04345666313603
51
314.2490085987499
0
LINE
8
0
6
CONTINUOUS
10
32.53
20
59.3
30
0
11
32.53
21
66.3
31
0
0
ARC
8
0
6
CONTINUOUS
10
34.779999352827595
20
66.2982934609929
30
0
40
2.25
50
45.75099140125009
51
179.95654333686397
0
LINE
8
0
6
CONTINUOUS
10
36.35
20
67.91
30
0
11
38.25
21
66.05
31
0
0
ARC
8
0
6
CONTINUOUS
10
39.47236608156728
20
67.30232630038415
30
0
40
1.75
50
225.69362569822988
51
6.8153902769144405
0
ARC
8
0
6
CONTINUOUS
10
2.4954562212080305
20
62.800000000000004
30
0
40
39.0
50
6.936499138736093
51
353.0635008612639
0
ARC
8
0
6
CONTINUOUS
10
2.4964239763536824
20
62.8
30
0
40
37.75
50
6.937969294924255
51
353.06203070507576
0
ARC
8
0
6
CONTINUOUS
10
39.47318854252131
20
67.30362291495739
30
0
40
0.5
50
226.6559964514809
51
6.474105902675435
0
LINE
8
0
6
CONTINUOUS
10
39.13
20
66.94
30
0
11
37.23
21
68.8
31
0
0
ARC
8
0
6
CONTINUOUS
10
34.779999964273564
20
66.3005000850289
30
0
40
3.5
50
45.57299518024105
51
180.00818650332894
0
LINE
8
0
6
CONTINUOUS
10
31.28
20
66.3
30
0
11
31.28
21
59.3
31
0
0
ARC
8
0
6
CONTINUOUS
10
34.779999964273564
20
59.299499914971086
30
0
40
3.5
50
179.99181349667094
51
314.427004819759
0
LINE
8
0
6
CONTINUOUS
10
37.23
20
56.8
30
0
11
39.13
21
58.66
31
0
0
ARC
8
0
6
CONTINUOUS
10
39.47318854252131
20
58.29637708504262
30
0
40
0.5
50
353.52589409732377
51
133.34400354852025
0
LINE
8
0
6
CONTINUOUS
10
55.44
20
122.13
30
0
11
20.36
21
122.13
31
0
0
LINE
8
0
6
CONTINUOUS
10
20.36
20
122.13
30
0
11
17.9
21
123.51
31
0
0
LINE
8
0
6
CONTINUOUS
10
17.9
20
123.51
30
0
11
17.9
21
118.28
31
0
0
LINE
8
0
6
CONTINUOUS
10
17.9
20
118.28
30
0
11
20.3
21
119.58
31
0
0
LINE
8
0
6
CONTINUOUS
10
20.3
20
119.58
30
0
11
55.6
21
119.58
31
0
0
LINE
8
0
6
CONTINUOUS
10
55.6
20
119.58
30
0
11
57.9
21
118.25
31
0
0
LINE
8
0
6
CONTINUOUS
10
57.9
20
118.25
30
0
11
57.9
21
123.55
31
0
0
LINE
8
0
6
CONTINUOUS
10
57.9
20
123.55
30
0
11
55.44
21
122.13
31
0
0
LINE
8
0
6
CONTINUOUS
10
55.44
20
5.29
30
0
11
20.36
21
5.29
31
0
0
LINE
8
0
6
CONTINUOUS
10
20.36
20
5.29
30
0
11
17.9
21
6.67
31
0
0
LINE
8
0
6
CONTINUOUS
10
17.9
20
6.67
30
0
11
17.9
21
1.29
31
0
0
LINE
8
0
6
CONTINUOUS
10
17.9
20
1.29
30
0
11
20.35
21
2.71
31
0
0
LINE
8
0
6
CONTINUOUS
10
20.35
20
2.71
30
0
11
55.6
21
2.71
31
0
0
LINE
8
0
6
CONTINUOUS
10
55.6
20
2.71
30
0
11
57.9
21
1.37
31
0
0
LINE
8
0
6
CONTINUOUS
10
57.9
20
1.37
30
0
11
57.9
21
6.71
31
0
0
LINE
8
0
6
CONTINUOUS
10
57.9
20
6.71
30
0
11
55.44
21
5.29
31
0
0
LINE
8
0
6
CONTINUOUS
10
-1.8
20
0.0
30
0
11
-1.8
21
-3.0
31
0
0
LINE
8
0
6
CONTINUOUS
10
-1.8
20
-3.0
30
0
11
0.0
21
-3.0
31
0
0
LINE
8
0
6
CONTINUOUS
10
0.0
20
-3.0
30
0
11
0.0
21
0.0
31
0
0
LINE
8
0
6
CONTINUOUS
10
0.0
20
0.0
30
0
11
19.4
21
0.0
31
0
0
ARC
8
0
6
CONTINUOUS
10
19.4
20
1.0
30
0
40
1.0
50
270.0
51
0.0
0
LINE
8
0
6
CONTINUOUS
10
20.4
20
1.0
30
0
11
20.4
21
2.73
31
0
0
LINE
8
0
6
CONTINUOUS
10
20.4
20
2.73
30
0
11
17.9
21
1.29
31
0
0
LINE
8
0
6
CONTINUOUS
10
17.9
20
1.29
30
0
11
17.9
21
6.63
31
0
0
LINE
8
0
6
CONTINUOUS
10
17.9
20
6.63
30
0
11
20.95
21
5.67
31
0
0
LINE
8
0
6
CONTINUOUS
10
20.95
20
5.67
30
0
11
21.24
21
8.98
31
0
0
LINE
8
0
6
CONTINUOUS
10
21.24
20
8.98
30
0
11
19.61
21
8.38
31
0
0
LINE
8
0
6
CONTINUOUS
10
19.61
20
8.38
30
0
11
19.3
21
7.67
31
0
0
LINE
8
0
6
CONTINUOUS
10
19.3
20
7.67
30
0
11
17.9
21
7.67
31
0
0
LINE
8
0
6
CONTINUOUS
10
17.9
20
7.67
30
0
11
17.9
21
8.5
31
0
0
LINE
8
0
6
CONTINUOUS
10
17.9
20
8.5
30
0
11
15.82
21
8.5
31
0
0
ARC
8
0
6
CONTINUOUS
10
15.818997917276839
20
7.600000557872275
30
0
40
0.9
50
89.93620541930756
51
240.0736363223404
0
ARC
8
0
6
CONTINUOUS
10
13.399999999999999
20
5.984117233100239
30
0
40
2.14
50
157.00819756089425
51
22.991802439105726
0
ARC
8
0
6
CONTINUOUS
10
10.976635163251764
20
7.597470465548529
30
0
40
0.9
50
300.2476606979605
51
146.0571187700503
0
ARC
8
0
6
CONTINUOUS
10
13.396658060210319
20
5.999457991444822
30
0
40
3.8
50
146.44245548193246
51
239.35969000849718
0
ARC
8
0
6
CONTINUOUS
10
11.20489687821232
20
2.299973957469807
30
0
40
0.5
50
270.5847848344371
51
59.32243150116587
0
LINE
8
0
6
CONTINUOUS
10
11.21
20
1.8
30
0
11
-27.1
21
1.8
31
0
0
ARC
8
0
6
CONTINUOUS
10
-27.1
20
0.9
30
0
40
0.9
50
90.0
51
270.0
0
LINE
8
0
6
CONTINUOUS
10
-27.1
20
0.0
30
0
11
-1.8
21
0.0
31
0
0
ARC
8
0
6
CONTINUOUS
10
81.91275065550909
20
120.51343446954907
30
0
40
0.9104998611882169
50
338.5179115168777
51
141.51880974542425
0
LINE
8
0
6
CONTINUOUS
10
81.2
20
121.08
30
0
11
76.65
21
113.2
31
0
0
LINE
8
0
6
CONTINUOUS
10
76.65
20
113.2
30
0
11
76.65
21
11.8
31
0
0
LINE
8
0
6
CONTINUOUS
10
76.65
20
11.8
30
0
11
81.2
21
3.92
31
0
0
ARC
8
0
6
CONTINUOUS
10
81.91275065550909
20
4.486565530450927
30
0
40
0.9104998611882191
50
218.48119025457558
51
21.482088483122986
0
LINE
8
0
6
CONTINUOUS
10
82.76
20
4.82
30
0
11
78.45
21
12.28
31
0
0
LINE
8
0
6
CONTINUOUS
10
78.45
20
12.28
30
0
11
78.45
21
30.45
31
0
0
LINE
8
0
6
CONTINUOUS
10
78.45
20
30.45
30
0
11
81.95
21
30.45
31
0
0
LINE
8
0
6
CONTINUOUS
10
81.95
20
30.45
30
0
11
81.95
21
32.25
31
0
0
LINE
8
0
6
CONTINUOUS
10
81.95
20
32.25
30
0
11
78.45
21
32.25
31
0
0
LINE
8
0
6
CONTINUOUS
10
78.45
20
32.25
30
0
11
78.45
21
92.75
31
0
0
LINE
8
0
6
CONTINUOUS
10
78.45
20
92.75
30
0
11
81.95
21
92.75
31
0
0
LINE
8
0
6
CONTINUOUS
10
81.95
20
92.75
30
0
11
81.95
21
94.55
31
0
0
LINE
8
0
6
CONTINUOUS
10
81.95
20
94.55
30
0
11
78.45
21
94.55
31
0
0
LINE
8
0
6
CONTINUOUS
10
78.45
20
94.55
30
0
11
78.45
21
112.72
31
0
0
LINE
8
0
6
CONTINUOUS
10
78.45
20
112.72
30
0
11
82.76
21
120.18
31
0
0
ARC
8
0
6
CONTINUOUS
10
112.6009312409415
20
117.3990687590585
30
0
40
0.9
50
267.3933371603007
51
2.60666283969934
0
ARC
8
0
6
CONTINUOUS
10
112.6010497859357
20
117.48345702053469
30
0
40
0.9
50
357.2323639807721
51
62.257398613112436
0
ARC
8
0
6
CONTINUOUS
10
115.0
20
119.00917761896535
30
0
40
2.11
50
339.78268435344154
51
200.2173156465585
0
ARC
8
0
6
CONTINUOUS
10
117.3989502140643
20
117.48345702053469
30
0
40
0.9
50
117.74260138688757
51
182.76763601922792
0
ARC
8
0
6
CONTINUOUS
10
117.3990687590585
20
117.3990687590585
30
0
40
0.9
50
177.39333716030066
51
272.6066628396993
0
ARC
8
0
6
CONTINUOUS
10
117.47835675555852
20
117.6993868263838
30
0
40
1.2
50
268.16828782672286
51
332.21495809519195
0
ARC
8
0
6
CONTINUOUS
10
115.00556905296733
20
119.01291160513726
30
0
40
4.0
50
332.0806728690764
51
346.8072366917564
0
LINE
8
0
6
CONTINUOUS
10
118.9
20
118.1
30
0
11
120.85
21
118.1
31
0
0
LINE
8
0
6
CONTINUOUS
10
120.85
20
118.1
30
0
11
120.85
21
120.1
31
0
0
LINE
8
0
6
CONTINUOUS
10
120.85
20
120.1
30
0
11
118.85
21
120.1
31
0
0
ARC
8
0
6
CONTINUOUS
10
115.00716245658195
20
118.98977497105464
30
0
40
4.0
50
16.114408501917644
51
51.265726550041606
0
ARC
8
0
6
CONTINUOUS
10
117.82282558550963
20
122.50005147487295
30
0
40
0.5
50
89.17784444468705
51
231.2700023500357
0
LINE
8
0
6
CONTINUOUS
10
117.83
20
123.0
30
0
11
132.5
21
123.0
31
0
0
ARC
8
0
6
CONTINUOUS
10
132.5
20
122.5
30
0
40
0.5
50
0.0
51
90.0
0
LINE
8
0
6
CONTINUOUS
10
133.0
20
122.5
30
0
11
133.0
21
120.1
31
0
0
LINE
8
0
6
CONTINUOUS
10
133.0
20
120.1
30
0
11
129.85
21
120.1
31
0
0
LINE
8
0
6
CONTINUOUS
10
129.85
20
120.1
30
0
11
129.85
21
118.1
31
0
0
LINE
8
0
6
CONTINUOUS
10
129.85
20
118.1
30
0
11
135.0
21
118.1
31
0
0
LINE
8
0
6
CONTINUOUS
10
135.0
20
118.1
30
0
11
135.0
21
124.5
31
0
0
ARC
8
0
6
CONTINUOUS
10
134.5
20
124.5
30
0
40
0.5
50
0.0
51
90.0
0
LINE
8
0
6
CONTINUOUS
10
134.5
20
125.0
30
0
11
56.4
21
125.0
31
0
0
ARC
8
0
6
CONTINUOUS
10
56.4
20
124.0
30
0
40
1.0
50
90.0
51
180.0
0
LINE
8
0
6
CONTINUOUS
10
55.4
20
124.0
30
0
11
55.4
21
122.27
31
0
0
LINE
8
0
6
CONTINUOUS
10
55.4
20
122.27
30
0
11
57.9
21
123.71
31
0
0
LINE
8
0
6
CONTINUOUS
10
57.9
20
123.71
30
0
11
57.9
21
118.37
31
0
0
LINE
8
0
6
CONTINUOUS
10
57.9
20
118.37
30
0
11
54.85
21
119.33
31
0
0
LINE
8
0
6
CONTINUOUS
10
54.85
20
119.33
30
0
11
54.56
21
116.02
31
0
0
LINE
8
0
6
CONTINUOUS
10
54.56
20
116.02
30
0
11
55.87
21
116.5
31
0
0
LINE
8
0
6
CONTINUOUS
10
55.87
20
116.5
30
0
11
59.9
21
116.5
31
0
0
LINE
8
0
6
CONTINUOUS
10
59.9
20
116.5
30
0
11
59.9
21
123.0
31
0
0
LINE
8
0
6
CONTINUOUS
10
59.9
20
123.0
30
0
11
67.9
21
123.0
31
0
0
ARC
8
0
6
CONTINUOUS
10
67.76398504075173
20
122.000018090031
30
0
40
1.0
50
329.9988031659658
51
89.6553661429832
0
LINE
8
0
6
CONTINUOUS
10
68.63
20
121.5
30
0
11
67.86
21
120.16
31
0
0
ARC
8
0
6
CONTINUOUS
10
68.63931704587485
20
119.70981676840545
30
0
40
0.9
50
149.98652963598335
51
240.05019162631777
0
LINE
8
0
6
CONTINUOUS
10
68.19
20
118.93
30
0
11
73.79
21
115.7
31
0
0
LINE
8
0
6
CONTINUOUS
10
73.79
20
115.7
30
0
11
75.79
21
115.7
31
0
0
LINE
8
0
6
CONTINUOUS
10
75.79
20
115.7
30
0
11
76.28
21
116.56
31
0
0
LINE
8
0
6
CONTINUOUS
10
76.28
20
116.56
30
0
11
69.79
21
120.31
31
0
0
LINE
8
0
6
CONTINUOUS
10
69.79
20
120.31
30
0
11
71.4
21
123.1
31
0
0
LINE
8
0
6
CONTINUOUS
10
71.4
20
123.1
30
0
11
77.89
21
119.35
31
0
0
LINE
8
0
6
CONTINUOUS
10
77.89
20
119.35
30
0
11
78.8
21
120.92
31
0
0
LINE
8
0
6
CONTINUOUS
10
78.8
20
120.92
30
0
11
78.9
21
123.0
31
0
0
LINE
8
0
6
CONTINUOUS
10
78.9
20
123.0
30
0
11
112.17
21
123.0
31
0
0
ARC
8
0
6
CONTINUOUS
10
112.17717441449037
20
122.50005147487295
30
0
40
0.5
50
308.7299976499643
51
90.82215555531295
0
ARC
8
0
6
CONTINUOUS
10
115.0025199324917
20
118.99756629165665
30
0
40
4.0
50
128.91229044290884
51
207.67085279932058
0
ARC
8
0
6
CONTINUOUS
10
112.52164324444148
20
117.6993868263838
30
0
40
1.2
50
207.78504190480805
51
271.8317121732771
0
ARC
8
0
6
CONTINUOUS
10
112.52164324444148
20
7.300613173616191
30
0
40
1.2
50
88.16828782672289
51
152.21495809519158
0
ARC
8
0
6
CONTINUOUS
10
115.0025199324917
20
6.00243370834335
30
0
40
4.0
50
152.32914720067947
51
231.0877095570912
0
ARC
8
0
6
CONTINUOUS
10
112.17717441449037
20
2.499948525127058
30
0
40
0.5
50
269.177844444687
51
51.27000235003529
0
LINE
8
0
6
CONTINUOUS
10
112.17
20
2.0
30
0
11
78.9
21
2.0
31
0
0
LINE
8
0
6
CONTINUOUS
10
78.9
20
2.0
30
0
11
78.8
21
4.08
31
0
0
LINE
8
0
6
CONTINUOUS
10
78.8
20
4.08
30
0
11
77.89
21
5.65
31
0
0
LINE
8
0
6
CONTINUOUS
10
77.89
20
5.65
30
0
11
71.4
21
1.9
31
0
0
LINE
8
0
6
CONTINUOUS
10
71.4
20
1.9
30
0
11
69.79
21
4.69
31
0
0
LINE
8
0
6
CONTINUOUS
10
69.79
20
4.69
30
0
11
76.28
21
8.44
31
0
0
LINE
8
0
6
CONTINUOUS
10
76.28
20
8.44
30
0
11
75.79
21
9.3
31
0
0
LINE
8
0
6
CONTINUOUS
10
75.79
20
9.3
30
0
11
73.79
21
9.3
31
0
0
LINE
8
0
6
CONTINUOUS
10
73.79
20
9.3
30
0
11
68.19
21
6.07
31
0
0
ARC
8
0
6
CONTINUOUS
10
68.63931704587485
20
5.290183231594557
30
0
40
0.9
50
119.94980837368209
51
210.013470364017
0
LINE
8
0
6
CONTINUOUS
10
67.86
20
4.84
30
0
11
68.63
21
3.5
31
0
0
ARC
8
0
6
CONTINUOUS
10
67.76398504075173
20
2.999981909968996
30
0
40
1.0
50
270.3446338570168
51
30.001196834034094
0
LINE
8
0
6
CONTINUOUS
10
67.9
20
2.0
30
0
11
59.9
21
2.0
31
0
0
LINE
8
0
6
CONTINUOUS
10
59.9
20
2.0
30
0
11
59.9
21
8.5
31
0
0
LINE
8
0
6
CONTINUOUS
10
59.9
20
8.5
30
0
11
55.87
21
8.5
31
0
0
LINE
8
0
6
CONTINUOUS
10
55.87
20
8.5
30
0
11
54.56
21
8.98
31
0
0
LINE
8
0
6
CONTINUOUS
10
54.56
20
8.98
30
0
11
54.85
21
5.67
31
0
0
LINE
8
0
6
CONTINUOUS
10
54.85
20
5.67
30
0
11
57.9
21
6.63
31
0
0
LINE
8
0
6
CONTINUOUS
10
57.9
20
6.63
30
0
11
57.9
21
1.29
31
0
0
LINE
8
0
6
CONTINUOUS
10
57.9
20
1.29
30
0
11
55.4
21
2.73
31
0
0
LINE
8
0
6
CONTINUOUS
10
55.4
20
2.73
30
0
11
55.4
21
1.0
31
0
0
ARC
8
0
6
CONTINUOUS
10
56.4
20
1.0
30
0
40
1.0
50
180.0
51
270.0
0
LINE
8
0
6
CONTINUOUS
10
56.4
20
0.0
30
0
11
134.5
21
0.0
31
0
0
ARC
8
0
6
CONTINUOUS
10
134.5
20
0.5
30
0
40
0.5
50
270.0
51
0.0
0
LINE
8
0
6
CONTINUOUS
10
135.0
20
0.5
30
0
11
135.0
21
6.9
31
0
0
LINE
8
0
6
CONTINUOUS
10
135.0
20
6.9
30
0
11
129.85
21
6.9
31
0
0
LINE
8
0
6
CONTINUOUS
10
129.85
20
6.9
30
0
11
129.85
21
4.9
31
0
0
LINE
8
0
6
CONTINUOUS
10
129.85
20
4.9
30
0
11
133.0
21
4.9
31
0
0
LINE
8
0
6
CONTINUOUS
10
133.0
20
4.9
30
0
11
133.0
21
2.5
31
0
0
ARC
8
0
6
CONTINUOUS
10
132.5
20
2.5
30
0
40
0.5
50
270.0
51
0.0
0
LINE
8
0
6
CONTINUOUS
10
132.5
20
2.0
30
0
11
117.83
21
2.0
31
0
0
ARC
8
0
6
CONTINUOUS
10
117.82282558550963
20
2.499948525127058
30
0
40
0.5
50
128.72999764996473
51
270.8221555553129
0
ARC
8
0
6
CONTINUOUS
10
115.00716245658195
20
6.010225028945355
30
0
40
4.0
50
308.7342734499584
51
343.8855914980823
0
LINE
8
0
6
CONTINUOUS
10
118.85
20
4.9
30
0
11
120.85
21
4.9
31
0
0
LINE
8
0
6
CONTINUOUS
10
120.85
20
4.9
30
0
11
120.85
21
6.9
31
0
0
LINE
8
0
6
CONTINUOUS
10
120.85
20
6.9
30
0
11
118.9
21
6.9
31
0
0
ARC
8
0
6
CONTINUOUS
10
115.00556905296733
20
5.987088394862754
30
0
40
4.0
50
13.192763308243327
51
27.919327130923424
0
ARC
8
0
6
CONTINUOUS
10
117.47835675555852
20
7.300613173616191
30
0
40
1.2
50
27.785041904808438
51
91.83171217327711
0
ARC
8
0
6
CONTINUOUS
10
117.3990687590585
20
7.600931240941501
30
0
40
0.9
50
87.39333716030067
51
182.60666283969917
0
ARC
8
0
6
CONTINUOUS
10
117.3989502140643
20
7.516542979465315
30
0
40
0.9
50
177.2323639807724
51
242.25739861311246
0
ARC
8
0
6
CONTINUOUS
10
115.0
20
5.990822381034645
30
0
40
2.11
50
159.78268435344145
51
20.217315646558554
0
ARC
8
0
6
CONTINUOUS
10
112.6010497859357
20
7.516542979465315
30
0
40
0.9
50
297.74260138688754
51
2.7676360192276377
0
ARC
8
0
6
CONTINUOUS
10
112.6009312409415
20
7.600931240941501
30
0
40
0.9
50
357.3933371603008
51
92.60666283969934
0
LINE
8
0
6
CONTINUOUS
10
135.0
20
122.45
30
0
11
136.0
21
122.45
31
0
0
LINE
8
0
6
CONTINUOUS
10
136.0
20
122.45
30
0
11
136.0
21
117.75
31
0
0
LINE
8
0
6
CONTINUOUS
10
136.0
20
117.75
30
0
11
127.68
21
117.75
31
0
0
ARC
8
0
6
CONTINUOUS
10
125.94794919243112
20
116.75
30
0
40
2.0
50
29.999999999999932
51
330.00000000000006
0
LINE
8
0
6
CONTINUOUS
10
127.68
20
115.75
30
0
11
136.0
21
115.75
31
0
0
LINE
8
0
6
CONTINUOUS
10
136.0
20
115.75
30
0
11
136.0
21
101.5
31
0
0
LINE
8
0
6
CONTINUOUS
10
136.0
20
101.5
30
0
11
131.0
21
101.5
31
0
0
LINE
8
0
6
CONTINUOUS
10
131.0
20
101.5
30
0
11
131.0
21
99.5
31
0
0
LINE
8
0
6
CONTINUOUS
10
131.0
20
99.5
30
0
11
136.0
21
99.5
31
0
0
LINE
8
0
6
CONTINUOUS
10
136.0
20
99.5
30
0
11
136.0
21
57.0
31
0
0
LINE
8
0
6
CONTINUOUS
10
136.0
20
57.0
30
0
11
131.0
21
57.0
31
0
0
LINE
8
0
6
CONTINUOUS
10
131.0
20
57.0
30
0
11
131.0
21
55.0
31
0
0
LINE
8
0
6
CONTINUOUS
10
131.0
20
55.0
30
0
11
136.0
21
55.0
31
0
0
LINE
8
0
6
CONTINUOUS
10
136.0
20
55.0
30
0
11
136.0
21
10.15
31
0
0
LINE
8
0
6
CONTINUOUS
10
136.0
20
10.15
30
0
11
127.68
21
10.15
31
0
0
ARC
8
0
6
CONTINUOUS
10
125.94794919243112
20
9.15
30
0
40
2.0
50
29.999999999999932
51
330.00000000000006
0
LINE
8
0
6
CONTINUOUS
10
127.68
20
8.15
30
0
11
136.0
21
8.15
31
0
0
LINE
8
0
6
CONTINUOUS
10
136.0
20
8.15
30
0
11
136.0
21
4.15
31
0
0
LINE
8
0
6
CONTINUOUS
10
136.0
20
4.15
30
0
11
135.0
21
4.15
31
0
0
LINE
8
0
6
CONTINUOUS
10
135.0
20
4.15
30
0
11
135.0
21
2.15
31
0
0
LINE
8
0
6
CONTINUOUS
10
135.0
20
2.15
30
0
11
136.0
21
2.15
31
0
0
LINE
8
0
6
CONTINUOUS
10
136.0
20
2.15
30
0
11
136.0
21
0.5
31
0
0
ARC
8
0
6
CONTINUOUS
10
136.5
20
0.5
30
0
40
0.5
50
180.0
51
270.0
0
LINE
8
0
6
CONTINUOUS
10
136.5
20
0.0
30
0
11
137.5
21
0.0
31
0
0
ARC
8
0
6
CONTINUOUS
10
137.5
20
0.5
30
0
40
0.5
50
270.0
51
0.0
0
LINE
8
0
6
CONTINUOUS
10
138.0
20
0.5
30
0
11
138.0
21
123.65
31
0
0
ARC
8
0
6
CONTINUOUS
10
137.2
20
123.65
30
0
40
0.8
50
0.0
51
90.0
0
LINE
8
0
6
CONTINUOUS
10
137.2
20
124.45
30
0
11
135.0
21
124.45
31
0
0
LINE
8
0
6
CONTINUOUS
10
135.0
20
124.5
30
0
11
135.0
21
122.45
31
0
0
LINE
8
0
6
HIDDEN
10
-43.01
20
-2.55
30
0
11
-43.01
21
57.54
31
0
0
LINE
8
0
6
CONTINUOUS
10
84.39
20
2.0
30
0
11
110.45
21
2.0
31
0
0
LINE
8
0
6
CONTINUOUS
10
110.45
20
2.0
30
0
11
110.45
21
15.0
31
0
0
LINE
8
0
6
CONTINUOUS
10
110.45
20
15.0
30
0
11
135.45
21
15.0
31
0
0
LINE
8
0
6
CONTINUOUS
10
135.45
20
15.0
30
0
11
135.45
21
39.55
31
0
0
LINE
8
0
6
CONTINUOUS
10
135.45
20
39.55
30
0
11
135.45
21
54.5
31
0
0
LINE
8
0
6
CONTINUOUS
10
135.45
20
54.5
30
0
11
130.45
21
54.5
31
0
0
LINE
8
0
6
CONTINUOUS
10
130.45
20
54.5
30
0
11
130.45
21
57.5
31
0
0
LINE
8
0
6
CONTINUOUS
10
130.45
20
57.5
30
0
11
135.45
21
57.5
31
0
0
LINE
8
0
6
CONTINUOUS
10
135.45
20
57.5
30
0
11
135.45
21
99.0
31
0
0
LINE
8
0
6
CONTINUOUS
10
135.45
20
99.0
30
0
11
130.45
21
99.0
31
0
0
LINE
8
0
6
CONTINUOUS
10
130.45
20
99.0
30
0
11
130.45
21
102.0
31
0
0
LINE
8
0
6
CONTINUOUS
10
130.45
20
102.0
30
0
11
135.45
21
102.0
31
0
0
LINE
8
0
6
CONTINUOUS
10
135.45
20
102.0
30
0
11
135.45
21
110.0
31
0
0
LINE
8
0
6
CONTINUOUS
10
135.45
20
110.0
30
0
11
111.12
21
110.0
31
0
0
LINE
8
0
6
CONTINUOUS
10
111.12
20
110.0
30
0
11
106.39
21
123.0
31
0
0
LINE
8
0
6
CONTINUOUS
10
106.39
20
123.0
30
0
11
84.39
21
123.0
31
0
0
LINE
8
0
6
CONTINUOUS
10
84.39
20
123.0
30
0
11
78.45
21
112.72
31
0
0
LINE
8
0
6
CONTINUOUS
10
78.45
20
112.72
30
0
11
78.45
21
12.28
31
0
0
LINE
8
0
6
CONTINUOUS
10
78.45
20
12.28
30
0
11
84.39
21
2.0
31
0
0
ARC
8
0
6
CONTINUOUS
10
-54.28
20
-31.270000000000003
30
0
40
2.0
50
179.9999999999999
51
270.0
0
LINE
8
0
6
CONTINUOUS
10
-54.28
20
-33.27
30
0
11
-44.64
21
-33.27
31
0
0
LINE
8
0
6
CONTINUOUS
10
-44.64
20
-33.27
30
0
11
-44.64
21
-31.77
31
0
0
LINE
8
0
6
CONTINUOUS
10
-44.64
20
-31.77
30
0
11
-46.28
21
-31.77
31
0
0
LINE
8
0
6
CONTINUOUS
10
-46.28
20
-31.77
30
0
11
-46.28
21
-29.77
31
0
0
LINE
8
0
6
CONTINUOUS
10
-46.28
20
-29.77
30
0
11
-39.78
21
-29.77
31
0
0
LINE
8
0
6
CONTINUOUS
10
-39.78
20
-29.77
30
0
11
-39.78
21
-31.77
31
0
0
LINE
8
0
6
CONTINUOUS
10
-39.78
20
-31.77
30
0
11
-41.43
21
-31.77
31
0
0
LINE
8
0
6
CONTINUOUS
10
-41.43
20
-31.77
30
0
11
-41.43
21
-33.27
31
0
0
LINE
8
0
6
CONTINUOUS
10
-41.43
20
-33.27
30
0
11
-31.78
21
-33.27
31
0
0
ARC
8
0
6
CONTINUOUS
10
-31.78
20
-31.270000000000003
30
0
40
2.0
50
270.0
51
1.0177774980683254e-13
0
LINE
8
0
6
CONTINUOUS
10
-29.78
20
-31.27
30
0
11
-29.78
21
0.73
31
0
0
ARC
8
0
6
CONTINUOUS
10
-31.78
20
0.7300000000000001
30
0
40
2.0
50
360.0
51
90.0
0
LINE
8
0
6
CONTINUOUS
10
-31.78
20
2.73
30
0
11
-40.23
21
2.73
31
0
0
LINE
8
0
6
CONTINUOUS
10
-40.23
20
2.73
30
0
11
-41.53
21
0.83
31
0
0
ARC
8
0
6
CONTINUOUS
10
-43.03
20
-1.768076211353316
30
0
40
3.0
50
119.99999999999999
51
60.00000000000001
0
LINE
8
0
6
CONTINUOUS
10
-44.53
20
0.83
30
0
11
-45.83
21
2.73
31
0
0
LINE
8
0
6
CONTINUOUS
10
-45.83
20
2.73
30
0
11
-54.28
21
2.73
31
0
0
ARC
8
0
6
CONTINUOUS
10
-54.28
20
0.7300000000000001
30
0
40
2.0
50
90.0
51
180.0
0
LINE
8
0
6
CONTINUOUS
10
-56.28
20
0.73
30
0
11
-56.28
21
-31.27
31
0
0
ARC
8
0
6
CONTINUOUS
10
-37.80528340564099
20
-29.123542451179866
30
0
40
0.64
50
201.6826213064417
51
347.68917837256345
0
ARC
8
0
6
CONTINUOUS
10
-39.98679443051513
20
-29.969986422214593
30
0
40
1.7
50
21.02747224191089
51
89.77100398286333
0
LINE
8
0
6
CONTINUOUS
10
-39.98
20
-28.27
30
0
11
-46.08
21
-28.27
31
0
0
ARC
8
0
6
CONTINUOUS
10
-46.08320962427857
20
-29.96999697008906
30
0
40
1.7
50
89.89182468574202
51
158.97214689623937
0
ARC
8
0
6
CONTINUOUS
10
-48.26471659435901
20
-29.123542451179866
30
0
40
0.64
50
192.31082162743655
51
338.3173786935583
0
ARC
8
0
6
CONTINUOUS
10
-51.274869774396336
20
-29.77574815479143
30
0
40
2.44
50
12.202778476523498
51
45.34667080112008
0
ARC
8
0
6
CONTINUOUS
10
-49.859999999999985
20
-28.44000000000001
30
0
40
0.5
50
53.130102354158176
51
216.86989764584223
0
ARC
8
0
6
CONTINUOUS
10
-51.28
20
-29.756464460765844
30
0
40
1.44
50
135.09947203931088
51
44.90052796068892
0
ARC
8
0
6
CONTINUOUS
10
-52.68196367061893
20
-28.417348865913485
30
0
40
0.5
50
319.8116577182318
51
131.00103474838645
0
ARC
8
0
6
CONTINUOUS
10
-51.29243513075157
20
-29.773081336788223
30
0
40
2.44
50
134.74236068902135
51
169.2986905340185
0
ARC
8
0
6
CONTINUOUS
10
-54.230030085514656
20
-29.2157526655543
30
0
40
0.55
50
179.40071005960777
51
349.0740241671955
0
LINE
8
0
6
CONTINUOUS
10
-54.78
20
-29.21
30
0
11
-54.78
21
-1.32
31
0
0
ARC
8
0
6
CONTINUOUS
10
-54.23001693042505
20
-1.3243154583669268
30
0
40
0.55
50
10.933203690680154
51
179.55043620327893
0
ARC
8
0
6
CONTINUOUS
10
-51.29243513075157
20
-0.7669186632117768
30
0
40
2.44
50
190.7013094659815
51
225.25763931097862
0
ARC
8
0
6
CONTINUOUS
10
-52.72620714954571
20
-2.073792850454294
30
0
40
0.512045814642449
50
236.3420761948775
51
33.65792380512254
0
ARC
8
0
6
CONTINUOUS
10
-51.302537315898235
20
-0.7618981693048433
30
0
40
1.44
50
83.91932491645743
51
226.7063276239573
0
ARC
8
0
6
CONTINUOUS
10
-51.27130244302407
20
-0.7648817781672443
30
0
40
1.44
50
314.6112916719222
51
85.16780272854605
0
ARC
8
0
6
CONTINUOUS
10
-49.894343462459794
20
-2.1282279608276067
30
0
40
0.5
50
140.47194871187017
51
311.96580175839233
0
ARC
8
0
6
CONTINUOUS
10
-51.279153617705376
20
-0.7684946321970156
30
0
40
2.44
50
314.79490870277994
51
347.17767577541514
0
ARC
8
0
6
CONTINUOUS
10
-48.229994738848156
20
-1.5127139611098577
30
0
40
0.7
50
0.22214129561529877
51
163.16650629327265
0
ARC
8
0
6
CONTINUOUS
10
-43.035
20
-1.7220731006044618
30
0
40
4.5
50
177.29880090112073
51
2.701199098879274
0
ARC
8
0
6
CONTINUOUS
10
-37.84000526115185
20
-1.5127139611098577
30
0
40
0.7
50
16.83349370672719
51
179.77785870438473
0
ARC
8
0
6
CONTINUOUS
10
-34.79084638229463
20
-0.7684946321970156
30
0
40
2.44
50
192.82232422458492
51
225.20509129722018
0
ARC
8
0
6
CONTINUOUS
10
-36.083792850454294
20
-2.216207149545706
30
0
40
0.512045814642449
50
213.657923805123
51
56.34207619487686
0
ARC
8
0
6
CONTINUOUS
10
-34.78
20
-0.7735355392341547
30
0
40
1.44
50
315.0994720393111
51
224.9005279606891
0
ARC
8
0
6
CONTINUOUS
10
-33.382651134086494
20
-2.1180363293810562
30
0
40
0.5
50
138.99896525161617
51
310.18834228176536
0
ARC
8
0
6
CONTINUOUS
10
-34.77756486924842
20
-0.7669186632117768
30
0
40
2.44
50
314.7423606890212
51
349.2986905340185
0
ARC
8
0
6
CONTINUOUS
10
-31.839558002833947
20
-1.3751380311733754
30
0
40
0.5622680508593637
50
5.627675027948935
51
163.9834671565814
0
LINE
8
0
6
CONTINUOUS
10
-31.28
20
-1.32
30
0
11
-31.28
21
-29.21
31
0
0
ARC
8
0
6
CONTINUOUS
10
-31.840509243071367
20
-29.159907569286368
30
0
40
0.5627431591616496
50
196.5281140840281
51
354.89307219097117
0
ARC
8
0
6
CONTINUOUS
10
-34.77756486924842
20
-29.773081336788223
30
0
40
2.44
50
10.701309465981534
51
45.257639310978774
0
ARC
8
0
6
CONTINUOUS
10
-33.359999999999985
20
-28.44000000000001
30
0
40
0.5
50
53.130102354158176
51
216.86989764584223
0
ARC
8
0
6
CONTINUOUS
10
-34.78
20
-29.756464460765844
30
0
40
1.44
50
135.09947203931088
51
44.90052796068892
0
ARC
8
0
6
CONTINUOUS
10
-36.128036329381075
20
-28.362651134086516
30
0
40
0.5
50
311.0010347483873
51
139.81165771823095
0
ARC
8
0
6
CONTINUOUS
10
-34.795130225603664
20
-29.77574815479143
30
0
40
2.44
50
134.65332919887993
51
167.7972215234765
0
ARC
8
0
6
CONTINUOUS
10
-29.197135684367105
20
1.6040006171783716
30
0
40
5.0
50
59.90553638276829
51
98.42837083329029
0
LINE
8
0
6
CONTINUOUS
10
-29.93
20
6.55
30
0
11
-35.0
21
5.8
31
0
0
LINE
8
0
6
CONTINUOUS
10
-35.0
20
5.8
30
0
11
-35.0
21
3.8
31
0
0
LINE
8
0
6
CONTINUOUS
10
-35.0
20
3.8
30
0
11
-31.7
21
3.8
31
0
0
ARC
8
0
6
CONTINUOUS
10
-31.696972582662415
20
1.8000022913152465
30
0
40
2.0
50
356.84707545509656
51
90.0867291512548
0
ARC
8
0
6
CONTINUOUS
10
-26.20516115479583
20
1.4999961946380993
30
0
40
3.5
50
176.8880656027984
51
270.0844892841102
0
LINE
8
0
6
CONTINUOUS
10
-26.2
20
-2.0
30
0
11
-21.0
21
-2.0
31
0
0
LINE
8
0
6
CONTINUOUS
10
-21.0
20
-2.0
30
0
11
-21.0
21
-0.2
31
0
0
LINE
8
0
6
CONTINUOUS
10
-21.0
20
-0.2
30
0
11
-27.3
21
-0.2
31
0
0
ARC
8
0
6
CONTINUOUS
10
-27.294503534976414
20
0.7999848943220316
30
0
40
1.0
50
167.2900797752414
51
269.68507416618286
0
ARC
8
0
6
CONTINUOUS
10
-27.29577286365417
20
1.2455692505804117
30
0
40
1.0
50
79.876362875831
51
193.03635439284844
0
LINE
8
0
6
CONTINUOUS
10
-27.12
20
2.23
30
0
11
-24.81
21
1.8
31
0
0
LINE
8
0
6
CONTINUOUS
10
-24.81
20
1.8
30
0
11
9.9
21
1.8
31
0
0
LINE
8
0
6
CONTINUOUS
10
9.9
20
1.8
30
0
11
9.9
21
4.52
31
0
0
ARC
8
0
6
CONTINUOUS
10
13.40419874418301
20
5.989894949057997
30
0
40
3.8
50
183.16637324366783
51
202.75643045831626
0
LINE
8
0
6
CONTINUOUS
10
9.61
20
5.78
30
0
11
7.94
21
3.8
31
0
0
LINE
8
0
6
CONTINUOUS
10
7.94
20
3.8
30
0
11
6.75
21
3.8
31
0
0
ARC
8
0
6
CONTINUOUS
10
6.741036567222703
20
5.049967862336008
30
0
40
1.25
50
150.7891003708786
51
270.4108570155393
0
LINE
8
0
6
CONTINUOUS
10
5.65
20
5.66
30
0
11
6.72
21
7.57
31
0
0
ARC
8
0
6
CONTINUOUS
10
8.469039631205437
20
6.600020428837418
30
0
40
2.0
50
90.258967239947
51
150.98819680976078
0
LINE
8
0
6
CONTINUOUS
10
8.46
20
8.6
30
0
11
11.11
21
8.6
31
0
0
ARC
8
0
6
CONTINUOUS
10
11.112588661824654
20
7.700003722879945
30
0
40
0.9
50
350.4056914052023
51
90.16479955738787
0
ARC
8
0
6
CONTINUOUS
10
13.595359563149728
20
6.343837546486083
30
0
40
2.0
50
142.90910554107793
51
176.09621336291838
0
ARC
8
0
6
CONTINUOUS
10
15.497870506013115
20
7.378112196973773
30
0
40
4.0
50
192.97512732158825
51
212.65151689151583
0
ARC
8
0
6
CONTINUOUS
10
10.766866714078457
20
7.550636746645159
30
0
40
2.7
50
300.32233674297356
51
14.573160533276521
0
LINE
8
0
6
CONTINUOUS
10
13.38
20
8.23
30
0
11
14.21
21
8.93
31
0
0
ARC
8
0
6
CONTINUOUS
10
13.877992699739965
20
9.303859803367574
30
0
40
0.5
50
311.6067725735247
51
82.87614622435542
0
LINE
8
0
6
CONTINUOUS
10
13.94
20
9.8
30
0
11
6.08
21
9.8
31
0
0
ARC
8
0
6
CONTINUOUS
10
3.5122052651709628
20
9.39204142393587
30
0
40
2.6
50
321.96303227180584
51
9.027421173801105
0
LINE
8
0
6
CONTINUOUS
10
5.56
20
7.79
30
0
11
3.94
21
5.72
31
0
0
ARC
8
0
6
CONTINUOUS
10
0.001269114021544171
20
8.799999838934955
30
0
40
5.0
50
269.98545702441277
51
321.97538428833286
0
LINE
8
0
6
CONTINUOUS
10
0.0
20
3.8
30
0
11
-21.66
21
3.8
31
0
0
ARC
8
0
6
CONTINUOUS
10
-21.659780001297104
20
8.799999995160057
30
0
40
5.0
50
239.99708895789843
51
269.99747900056434
0
LINE
8
0
6
CONTINUOUS
10
-24.16
20
4.47
30
0
11
-26.69
21
5.93
31
0
0
LINE
8
0
6
CONTINUOUS
10
-48.5
20
2.0
30
0
11
-48.5
21
7.8
31
0
0
LINE
8
0
6
CONTINUOUS
10
-48.5
20
7.8
30
0
11
-61.7
21
6.5
31
0
0
LINE
8
0
6
CONTINUOUS
10
-61.7
20
6.5
30
0
11
-61.7
21
7.8
31
0
0
LINE
8
0
6
CONTINUOUS
10
-61.7
20
7.8
30
0
11
-62.5
21
7.8
31
0
0
LINE
8
0
6
CONTINUOUS
10
-62.5
20
7.8
30
0
11
-62.5
21
2.0
31
0
0
LINE
8
0
6
CONTINUOUS
10
-62.5
20
2.0
30
0
11
-61.7
21
2.0
31
0
0
LINE
8
0
6
CONTINUOUS
10
-61.7
20
2.0
30
0
11
-61.7
21
3.3
31
0
0
LINE
8
0
6
CONTINUOUS
10
-61.7
20
3.3
30
0
11
-48.5
21
2.0
31
0
0
LINE
8
0
6
CONTINUOUS
10
-0.0
20
-0.0
30
0
11
0.0
21
40.0
31
0
0
LINE
8
0
6
CONTINUOUS
10
0.0
20
40.0
30
0
11
-17.0
21
40.0
31
0
0
LINE
8
0
6
CONTINUOUS
10
-17.0
20
40.0
30
0
11
-17.0
21
39.02
31
0
0
LINE
8
0
6
CONTINUOUS
10
-17.0
20
39.02
30
0
11
-15.3
21
37.32
31
0
0
LINE
8
0
6
CONTINUOUS
10
-15.3
20
37.32
30
0
11
-14.41
21
37.32
31
0
0
LINE
8
0
6
CONTINUOUS
10
-14.41
20
37.32
30
0
11
-14.02
21
38.8
31
0
0
LINE
8
0
6
CONTINUOUS
10
-14.02
20
38.8
30
0
11
-1.4
21
38.8
31
0
0
LINE
8
0
6
CONTINUOUS
10
-1.4
20
38.8
30
0
11
-1.4
21
1.2
31
0
0
LINE
8
0
6
CONTINUOUS
10
-1.4
20
1.2
30
0
11
-14.02
21
1.2
31
0
0
LINE
8
0
6
CONTINUOUS
10
-14.02
20
1.2
30
0
11
-14.41
21
2.68
31
0
0
LINE
8
0
6
CONTINUOUS
10
-14.41
20
2.68
30
0
11
-15.3
21
2.68
31
0
0
LINE
8
0
6
CONTINUOUS
10
-15.3
20
2.68
30
0
11
-17.0
21
0.98
31
0
0
LINE
8
0
6
CONTINUOUS
10
-17.0
20
0.98
30
0
11
-17.0
21
-0.0
31
0
0
LINE
8
0
6
CONTINUOUS
10
-17.0
20
-0.0
30
0
11
0.0
21
-0.0
31
0
0
LINE
8
0
6
CONTINUOUS
10
-65.0
20
40.0
30
0
11
-65.0
21
-0.0
31
0
0
LINE
8
0
6
CONTINUOUS
10
-65.0
20
-0.0
30
0
11
-54.69
21
-0.0
31
0
0
LINE
8
0
6
CONTINUOUS
10
-54.69
20
-0.0
30
0
11
-54.0
21
0.69
31
0
0
LINE
8
0
6
CONTINUOUS
10
-54.0
20
0.69
30
0
11
-54.0
21
1.5
31
0
0
LINE
8
0
6
CONTINUOUS
10
-54.0
20
1.5
30
0
11
-56.5
21
1.5
31
0
0
LINE
8
0
6
CONTINUOUS
10
-56.5
20
1.5
30
0
11
-56.5
21
13.5
31
0
0
LINE
8
0
6
CONTINUOUS
10
-56.5
20
13.5
30
0
11
-54.0
21
13.5
31
0
0
LINE
8
0
6
CONTINUOUS
10
-54.0
20
13.5
30
0
11
-54.0
21
15.0
31
0
0
LINE
8
0
6
CONTINUOUS
10
-54.0
20
15.0
30
0
11
-56.5
21
15.0
31
0
0
LINE
8
0
6
CONTINUOUS
10
-56.5
20
15.0
30
0
11
-56.5
21
26.0
31
0
0
LINE
8
0
6
CONTINUOUS
10
-56.5
20
26.0
30
0
11
-30.5
21
26.0
31
0
0
LINE
8
0
6
CONTINUOUS
10
-30.5
20
26.0
30
0
11
-30.5
21
15.0
31
0
0
LINE
8
0
6
CONTINUOUS
10
-30.5
20
15.0
30
0
11
-33.0
21
15.0
31
0
0
LINE
8
0
6
CONTINUOUS
10
-33.0
20
15.0
30
0
11
-33.0
21
13.5
31
0
0
LINE
8
0
6
CONTINUOUS
10
-33.0
20
13.5
30
0
11
-30.5
21
13.5
31
0
0
LINE
8
0
6
CONTINUOUS
10
-30.5
20
13.5
30
0
11
-30.5
21
1.5
31
0
0
LINE
8
0
6
CONTINUOUS
10
-30.5
20
1.5
30
0
11
-33.0
21
1.5
31
0
0
LINE
8
0
6
CONTINUOUS
10
-33.0
20
1.5
30
0
11
-33.0
21
0.69
31
0
0
LINE
8
0
6
CONTINUOUS
10
-33.0
20
0.69
30
0
11
-32.31
21
-0.0
31
0
0
LINE
8
0
6
CONTINUOUS
10
-32.31
20
-0.0
30
0
11
-17.0
21
-0.0
31
0
0
LINE
8
0
6
CONTINUOUS
10
-17.0
20
-0.0
30
0
11
-17.0
21
3.1
31
0
0
LINE
8
0
6
CONTINUOUS
10
-17.0
20
3.1
30
0
11
-14.5
21
3.1
31
0
0
LINE
8
0
6
CONTINUOUS
10
-14.5
20
3.1
30
0
11
-13.91
21
2.26
31
0
0
LINE
8
0
6
CONTINUOUS
10
-13.91
20
2.26
30
0
11
-13.09
21
2.26
31
0
0
LINE
8
0
6
CONTINUOUS
10
-13.09
20
2.26
30
0
11
-11.47
21
4.19
31
0
0
LINE
8
0
6
CONTINUOUS
10
-11.47
20
4.19
30
0
11
-12.16
21
5.19
31
0
0
LINE
8
0
6
CONTINUOUS
10
-12.16
20
5.19
30
0
11
-13.86
21
4.6
31
0
0
LINE
8
0
6
CONTINUOUS
10
-13.86
20
4.6
30
0
11
-17.0
21
4.6
31
0
0
LINE
8
0
6
CONTINUOUS
10
-17.0
20
4.6
30
0
11
-17.0
21
35.4
31
0
0
LINE
8
0
6
CONTINUOUS
10
-17.0
20
35.4
30
0
11
-13.86
21
35.4
31
0
0
LINE
8
0
6
CONTINUOUS
10
-13.86
20
35.4
30
0
11
-12.16
21
34.81
31
0
0
LINE
8
0
6
CONTINUOUS
10
-12.16
20
34.81
30
0
11
-11.47
21
35.81
31
0
0
LINE
8
0
6
CONTINUOUS
10
-11.47
20
35.81
30
0
11
-13.09
21
37.74
31
0
0
LINE
8
0
6
CONTINUOUS
10
-13.09
20
37.74
30
0
11
-13.91
21
37.74
31
0
0
LINE
8
0
6
CONTINUOUS
10
-13.91
20
37.74
30
0
11
-14.5
21
36.9
31
0
0
LINE
8
0
6
CONTINUOUS
10
-14.5
20
36.9
30
0
11
-17.0
21
36.9
31
0
0
LINE
8
0
6
CONTINUOUS
10
-17.0
20
36.9
30
0
11
-17.0
21
40.0
31
0
0
LINE
8
0
6
CONTINUOUS
10
-17.0
20
40.0
30
0
11
-65.0
21
40.0
31
0
0
LINE
8
0
6
CONTINUOUS
10
-28.7
20
38.5
30
0
11
-18.5
21
38.5
31
0
0
LINE
8
0
6
CONTINUOUS
10
-18.5
20
38.5
30
0
11
-18.5
21
1.5
31
0
0
LINE
8
0
6
CONTINUOUS
10
-18.5
20
1.5
30
0
11
-28.7
21
1.5
31
0
0
LINE
8
0
6
CONTINUOUS
10
-28.7
20
1.5
30
0
11
-28.7
21
38.5
31
0
0
LINE
8
0
6
CONTINUOUS
10
-63.5
20
1.5
30
0
11
-63.5
21
38.5
31
0
0
LINE
8
0
6
CONTINUOUS
10
-63.5
20
38.5
30
0
11
-58.3
21
38.5
31
0
0
LINE
8
0
6
CONTINUOUS
10
-58.3
20
38.5
30
0
11
-58.3
21
1.5
31
0
0
LINE
8
0
6
CONTINUOUS
10
-58.3
20
1.5
30
0
11
-63.5
21
1.5
31
0
0
LINE
8
0
6
CONTINUOUS
10
-56.5
20
27.5
30
0
11
-56.5
21
38.5
31
0
0
LINE
8
0
6
CONTINUOUS
10
-56.5
20
38.5
30
0
11
-30.5
21
38.5
31
0
0
LINE
8
0
6
CONTINUOUS
10
-30.5
20
38.5
30
0
11
-30.5
21
27.5
31
0
0
LINE
8
0
6
CONTINUOUS
10
-30.5
20
27.5
30
0
11
-56.5
21
27.5
31
0
0
LINE
8
0
6
HIDDEN
10
67.29
20
62.8
30
0
11
-52.5
21
62.8
31
0
0
LINE
8
0
6
HIDDEN
10
2.43
20
9.43
30
0
11
2.43
21
112.8
31
0
0
LINE
8
0
6
CONTINUOUS
10
-65.0
20
-84.87
30
0
11
-65.0
21
-0.0
31
0
0
LINE
8
0
6
CONTINUOUS
10
-65.0
20
0.0
30
0
11
0.0
21
-0.0
31
0
0
LINE
8
0
6
CONTINUOUS
10
0.0
20
-0.0
30
0
11
0.0
21
-84.87
31
0
0
LINE
8
0
6
CONTINUOUS
10
-16.74
20
-0.0
30
0
11
-16.74
21
-84.87
31
0
0
LINE
8
0
6
CONTINUOUS
10
-32.74
20
-0.0
30
0
11
-32.74
21
-84.87
31
0
0
LINE
8
0
6
CONTINUOUS
10
-53.34
20
-0.0
30
0
11
-53.34
21
-84.87
31
0
0
ENDSEC
0
EOF