0
SECTION
2
HEADER
0
ENDSEC
0
SECTION
2
TABLES
0
TABLE
2
LTYPE
70
2
0
LTYPE
2
CONTINUOUS
70
0
3
Solid line
72
65
73
0
40
0.0
0
ENDTAB
0
TABLE
2
LAYER
70
1
0
LAYER
2
0
70
0
62
7
6
CONTINUOUS
0
ENDTAB
0
ENDSEC
0
SECTION
2
ENTITIES
0
LINE
8
0
6
CONTINUOUS
10
-18.22
20
-47.0
30
0
11
48.8
21
-47.0
31
0
0
LINE
8
0
6
CONTINUOUS
10
5.8
20
-47.0
30
0
11
5.8
21
66.0
31
0
0
LINE
8
0
6
CONTINUOUS
10
-18.22
20
66.0
30
0
11
48.8
21
66.0
31
0
0
LINE
8
0
6
CONTINUOUS
10
-18.22
20
48.0
30
0
11
48.8
21
48.0
31
0
0
LINE
8
0
6
CONTINUOUS
10
48.8
20
-47.0
30
0
11
48.8
21
66.0
31
0
0
LINE
8
0
6
CONTINUOUS
10
-7.2
20
-47.0
30
0
11
-7.2
21
66.0
31
0
0
LINE
8
0
6
CONTINUOUS
10
33.8
20
-47.0
30
0
11
33.8
21
66.0
31
0
0
LINE
8
0
6
CONTINUOUS
10
35.21
20
66.0
30
0
11
33.8
21
64.59
31
0
0
LINE
8
0
6
CONTINUOUS
10
33.8
20
64.59
30
0
11
33.8
21
48.0
31
0
0
LINE
8
0
6
CONTINUOUS
10
33.8
20
48.0
30
0
11
45.8
21
48.0
31
0
0
ARC
8
0
6
CONTINUOUS
10
45.8
20
51.0
30
0
40
3.0
50
270.0
51
0.0
0
LINE
8
0
6
CONTINUOUS
10
48.8
20
51.0
30
0
11
48.8
21
60.06
31
0
0
ARC
8
0
6
CONTINUOUS
10
45.8000016787279
20
60.063173698888264
30
0
40
3.0
50
359.9393868047799
51
74.92997105835546
0
LINE
8
0
6
CONTINUOUS
10
46.58
20
62.96
30
0
11
35.21
21
66.0
31
0
0
LINE
8
0
6
CONTINUOUS
10
-7.2
20
59.68
30
0
11
-7.2
21
-44.0
31
0
0
ARC
8
0
6
CONTINUOUS
10
-4.2
20
-44.0
30
0
40
3.0
50
180.0
51
270.0
0
LINE
8
0
6
CONTINUOUS
10
-4.2
20
-47.0
30
0
11
45.8
21
-47.0
31
0
0
ARC
8
0
6
CONTINUOUS
10
45.8
20
-44.0
30
0
40
3.0
50
270.0
51
0.0
0
LINE
8
0
6
CONTINUOUS
10
48.8
20
-44.0
30
0
11
48.8
21
45.0
31
0
0
ARC
8
0
6
CONTINUOUS
10
45.8
20
45.0
30
0
40
3.0
50
0.0
51
90.0
0
LINE
8
0
6
CONTINUOUS
10
45.8
20
48.0
30
0
11
17.3
21
48.0
31
0
0
LINE
8
0
6
CONTINUOUS
10
17.3
20
48.0
30
0
11
17.3
21
42.5
31
0
0
LINE
8
0
6
CONTINUOUS
10
17.3
20
42.5
30
0
11
12.8
21
42.5
31
0
0
LINE
8
0
6
CONTINUOUS
10
12.8
20
42.5
30
0
11
12.8
21
48.0
31
0
0
LINE
8
0
6
CONTINUOUS
10
12.8
20
48.0
30
0
11
5.8
21
48.0
31
0
0
LINE
8
0
6
CONTINUOUS
10
5.8
20
48.0
30
0
11
5.8
21
64.59
31
0
0
LINE
8
0
6
CONTINUOUS
10
5.8
20
64.59
30
0
11
4.39
21
66.0
31
0
0
LINE
8
0
6
CONTINUOUS
10
4.39
20
66.0
30
0
11
-5.23
21
62.5
31
0
0
ARC
8
0
6
CONTINUOUS
10
-4.20000092732607
20
59.68235880384127
30
0
40
3.0
50
110.08007053907563
51
180.0450498395764
0
LINE
8
0
6
CONTINUOUS
10
-14.82
20
-3.65
30
0
11
-14.82
21
-10.75
31
0
0
LINE
8
0
6
CONTINUOUS
10
-14.82
20
-10.75
30
0
11
-13.72
21
-10.75
31
0
0
LINE
8
0
6
CONTINUOUS
10
-13.72
20
-10.75
30
0
11
-13.72
21
-3.65
31
0
0
LINE
8
0
6
CONTINUOUS
10
-13.72
20
-3.65
30
0
11
-13.72
21
-10.75
31
0
0
LINE
8
0
6
CONTINUOUS
10
-13.72
20
-10.75
30
0
11
-14.82
21
-10.75
31
0
0
LINE
8
0
6
CONTINUOUS
10
-14.82
20
-10.75
30
0
11
-14.82
21
-3.65
31
0
0
LINE
8
0
6
CONTINUOUS
10
-14.82
20
-3.65
30
0
11
-13.72
21
-3.65
31
0
0
LINE
8
0
6
CONTINUOUS
10
-13.72
20
-3.65
30
0
11
-14.82
21
-3.65
31
0
0
LINE
8
0
6
CONTINUOUS
10
-14.82
20
-7.2
30
0
11
-18.22
21
-7.2
31
0
0
LINE
8
0
6
CONTINUOUS
10
-14.82
20
-9.33
30
0
11
-18.22
21
-9.69
31
0
0
LINE
8
0
6
CONTINUOUS
10
-14.82
20
-9.03
30
0
11
-18.22
21
-9.22
31
0
0
LINE
8
0
6
CONTINUOUS
10
-14.82
20
-8.71
30
0
11
-18.22
21
-8.78
31
0
0
LINE
8
0
6
CONTINUOUS
10
-14.82
20
-8.39
30
0
11
-18.22
21
-8.39
31
0
0
LINE
8
0
6
CONTINUOUS
10
-14.82
20
-8.09
30
0
11
-18.22
21
-8.09
31
0
0
LINE
8
0
6
CONTINUOUS
10
-14.82
20
-7.79
30
0
11
-18.22
21
-7.79
31
0
0
LINE
8
0
6
CONTINUOUS
10
-14.82
20
-7.5
30
0
11
-18.22
21
-7.5
31
0
0
LINE
8
0
6
CONTINUOUS
10
-14.82
20
-6.91
30
0
11
-18.22
21
-6.91
31
0
0
LINE
8
0
6
CONTINUOUS
10
-14.82
20
-6.61
30
0
11
-18.22
21
-6.61
31
0
0
LINE
8
0
6
CONTINUOUS
10
-14.82
20
-6.32
30
0
11
-18.22
21
-6.32
31
0
0
LINE
8
0
6
CONTINUOUS
10
-14.82
20
-6.02
30
0
11
-18.22
21
-6.02
31
0
0
LINE
8
0
6
CONTINUOUS
10
-14.82
20
-5.69
30
0
11
-18.22
21
-5.62
31
0
0
LINE
8
0
6
CONTINUOUS
10
-14.82
20
-5.38
30
0
11
-18.22
21
-5.19
31
0
0
LINE
8
0
6
CONTINUOUS
10
-14.82
20
-5.08
30
0
11
-18.22
21
-4.72
31
0
0
ARC
8
0
6
CONTINUOUS
10
-11.72
20
-1.47
30
0
40
1.0
50
0.0
51
90.0
0
ARC
8
0
6
CONTINUOUS
10
-15.719999999999999
20
28.03
30
0
40
0.5
50
90.0000000000002
51
180.0
0
ARC
8
0
6
CONTINUOUS
10
-15.562495802150382
20
28.030006229067176
30
0
40
0.5
50
22.332910974591677
51
89.71400095289444
0
ARC
8
0
6
CONTINUOUS
10
-11.271248865970914
20
9.529961708093467
30
0
40
1.0
50
182.86378727246395
51
269.49859055418926
0
ARC
8
0
6
CONTINUOUS
10
-19.171653856878315
20
24.931223662479358
30
0
40
5.0
50
3.3109755361069504
51
21.823909970974306
0
ARC
8
0
6
CONTINUOUS
10
-15.219999999999999
20
-11.47
30
0
40
1.0
50
180.0
51
269.9999999999999
0
ARC
8
0
6
CONTINUOUS
10
-13.30032744630721
20
18.66809251464349
30
0
40
0.5
50
182.0737021635456
51
208.4365352425705
0
LINE
8
0
6
CONTINUOUS
10
-13.22
20
5.53
30
0
11
-13.22
21
-0.47
31
0
0
LINE
8
0
6
CONTINUOUS
10
-13.22
20
-0.47
30
0
11
-11.72
21
-0.47
31
0
0
LINE
8
0
6
CONTINUOUS
10
-15.56
20
28.53
30
0
11
-15.72
21
28.53
31
0
0
LINE
8
0
6
CONTINUOUS
10
-16.22
20
28.03
30
0
11
-16.22
21
-4.97
31
0
0
LINE
8
0
6
CONTINUOUS
10
-16.22
20
-4.97
30
0
11
-15.22
21
-4.97
31
0
0
LINE
8
0
6
CONTINUOUS
10
-15.22
20
-4.97
30
0
11
-15.22
21
-3.47
31
0
0
LINE
8
0
6
CONTINUOUS
10
-15.22
20
-3.47
30
0
11
-13.72
21
-3.47
31
0
0
LINE
8
0
6
CONTINUOUS
10
-13.72
20
-3.47
30
0
11
-13.72
21
-10.97
31
0
0
LINE
8
0
6
CONTINUOUS
10
-13.72
20
-10.97
30
0
11
-15.22
21
-10.97
31
0
0
LINE
8
0
6
CONTINUOUS
10
-14.53
20
26.79
30
0
11
-15.1
21
28.22
31
0
0
LINE
8
0
6
CONTINUOUS
10
-15.22
20
-10.97
30
0
11
-15.22
21
-9.37
31
0
0
LINE
8
0
6
CONTINUOUS
10
-15.22
20
-9.47
30
0
11
-16.22
21
-9.47
31
0
0
LINE
8
0
6
CONTINUOUS
10
-16.22
20
-9.47
30
0
11
-16.22
21
-11.47
31
0
0
LINE
8
0
6
CONTINUOUS
10
-13.8
20
18.65
30
0
11
-14.18
21
25.22
31
0
0
LINE
8
0
6
CONTINUOUS
10
-16.22
20
8.03
30
0
11
-13.72
21
5.53
31
0
0
LINE
8
0
6
CONTINUOUS
10
-13.72
20
5.53
30
0
11
-13.72
21
0.53
31
0
0
LINE
8
0
6
CONTINUOUS
10
-13.72
20
0.53
30
0
11
-16.22
21
-1.97
31
0
0
LINE
8
0
6
CONTINUOUS
10
-13.72
20
0.53
30
0
11
-13.22
21
0.53
31
0
0
LINE
8
0
6
CONTINUOUS
10
-13.74
20
18.43
30
0
11
-12.73
21
16.63
31
0
0
LINE
8
0
6
CONTINUOUS
10
-12.67
20
16.42
30
0
11
-12.27
21
9.48
31
0
0
LINE
8
0
6
CONTINUOUS
10
-10.72
20
-1.47
30
0
11
-10.72
21
-9.47
31
0
0
LINE
8
0
6
CONTINUOUS
10
-10.72
20
-9.47
30
0
11
-7.22
21
-9.47
31
0
0
LINE
8
0
6
CONTINUOUS
10
-7.22
20
-9.47
30
0
11
-7.22
21
-12.47
31
0
0
LINE
8
0
6
CONTINUOUS
10
-7.22
20
-12.47
30
0
11
-15.22
21
-12.47
31
0
0
LINE
8
0
6
CONTINUOUS
10
-11.28
20
8.53
30
0
11
-7.22
21
8.53
31
0
0
LINE
8
0
6
CONTINUOUS
10
-7.22
20
8.53
30
0
11
-7.22
21
5.53
31
0
0
LINE
8
0
6
CONTINUOUS
10
-7.22
20
5.53
30
0
11
-10.72
21
5.53
31
0
0
LINE
8
0
6
CONTINUOUS
10
-10.72
20
5.53
30
0
11
-13.72
21
5.53
31
0
0
LINE
8
0
6
CONTINUOUS
10
-14.82
20
-3.65
30
0
11
-13.72
21
-10.75
31
0
0
LINE
8
0
6
CONTINUOUS
10
-14.82
20
-10.75
30
0
11
-13.72
21
-3.65
31
0
0
ARC
8
0
6
CONTINUOUS
10
45.8
20
-44.0
30
0
40
3.0
50
270.0
51
0.0
0
ARC
8
0
6
CONTINUOUS
10
-4.2
20
-44.0
30
0
40
3.0
50
180.0
51
270.0
0
ARC
8
0
6
CONTINUOUS
10
45.8000016787279
20
60.063173698888264
30
0
40
3.0
50
359.9393868047799
51
74.92997105835546
0
ARC
8
0
6
CONTINUOUS
10
-4.20000092732607
20
59.68235880384127
30
0
40
3.0
50
110.08007053907563
51
180.0450498395764
0
ARC
8
0
6
CONTINUOUS
10
45.8
20
45.0
30
0
40
3.0
50
0.0
51
90.0
0
ARC
8
0
6
CONTINUOUS
10
45.8
20
51.0
30
0
40
3.0
50
270.0
51
0.0
0
LINE
8
0
6
CONTINUOUS
10
-4.2
20
-47.0
30
0
11
45.8
21
-47.0
31
0
0
LINE
8
0
6
CONTINUOUS
10
-7.2
20
-44.0
30
0
11
-7.2
21
59.68
31
0
0
LINE
8
0
6
CONTINUOUS
10
-5.23
20
62.5
30
0
11
4.39
21
66.0
31
0
0
LINE
8
0
6
CONTINUOUS
10
4.39
20
66.0
30
0
11
5.8
21
64.59
31
0
0
LINE
8
0
6
CONTINUOUS
10
5.8
20
64.59
30
0
11
5.8
21
48.0
31
0
0
LINE
8
0
6
CONTINUOUS
10
5.8
20
48.0
30
0
11
12.8
21
48.0
31
0
0
LINE
8
0
6
CONTINUOUS
10
12.8
20
48.0
30
0
11
12.8
21
42.5
31
0
0
LINE
8
0
6
CONTINUOUS
10
46.58
20
62.96
30
0
11
35.21
21
66.0
31
0
0
LINE
8
0
6
CONTINUOUS
10
35.21
20
66.0
30
0
11
33.8
21
64.59
31
0
0
LINE
8
0
6
CONTINUOUS
10
33.8
20
64.59
30
0
11
33.8
21
48.0
31
0
0
LINE
8
0
6
CONTINUOUS
10
33.8
20
48.0
30
0
11
45.8
21
48.0
31
0
0
LINE
8
0
6
CONTINUOUS
10
45.8
20
48.0
30
0
11
17.3
21
48.0
31
0
0
LINE
8
0
6
CONTINUOUS
10
17.3
20
48.0
30
0
11
17.3
21
42.5
31
0
0
LINE
8
0
6
CONTINUOUS
10
17.3
20
42.5
30
0
11
12.8
21
42.5
31
0
0
LINE
8
0
6
CONTINUOUS
10
48.8
20
45.0
30
0
11
48.8
21
-44.0
31
0
0
LINE
8
0
6
CONTINUOUS
10
48.8
20
51.0
30
0
11
48.8
21
60.06
31
0
0
ENDSEC
0
EOF