0
SECTION
2
HEADER
0
ENDSEC
0
SECTION
2
TABLES
0
TABLE
2
LTYPE
70
2
0
LTYPE
2
CONTINUOUS
70
0
3
Solid line
72
65
73
0
40
0.0
0
ENDTAB
0
TABLE
2
LAYER
70
1
0
LAYER
2
0
70
0
62
7
6
CONTINUOUS
0
ENDTAB
0
ENDSEC
0
SECTION
2
ENTITIES
0
LINE
8
0
6
CONTINUOUS
10
50.1
20
-70.0
30
0
11
50.1
21
10.0
31
0
0
LINE
8
0
6
CONTINUOUS
10
-17.9
20
-70.0
30
0
11
50.1
21
-70.0
31
0
0
LINE
8
0
6
CONTINUOUS
10
-17.9
20
-55.0
30
0
11
50.1
21
-55.0
31
0
0
LINE
8
0
6
CONTINUOUS
10
-17.9
20
-36.0
30
0
11
50.1
21
-36.0
31
0
0
LINE
8
0
6
CONTINUOUS
10
-17.9
20
10.0
30
0
11
50.1
21
10.0
31
0
0
LINE
8
0
6
CONTINUOUS
10
32.2
20
-70.0
30
0
11
32.2
21
10.0
31
0
0
LINE
8
0
6
CONTINUOUS
10
22.0
20
-70.0
30
0
11
22.0
21
10.0
31
0
0
LINE
8
0
6
CONTINUOUS
10
10.2
20
-70.0
30
0
11
10.2
21
10.0
31
0
0
LINE
8
0
6
CONTINUOUS
10
-17.9
20
-70.0
30
0
11
-17.9
21
10.0
31
0
0
LINE
8
0
6
CONTINUOUS
10
0.0
20
-70.0
30
0
11
0.0
21
10.0
31
0
0
LINE
8
0
6
CONTINUOUS
10
-17.9
20
0.0
30
0
11
50.1
21
0.0
31
0
0
ARC
8
0
6
CONTINUOUS
10
-14.899999999999999
20
7.0
30
0
40
3.0
50
90.00000000000004
51
180.0
0
LINE
8
0
6
CONTINUOUS
10
-17.9
20
7.0
30
0
11
-17.9
21
-67.0
31
0
0
ARC
8
0
6
CONTINUOUS
10
-14.899999999999999
20
-67.0
30
0
40
3.0
50
180.0
51
269.99999999999994
0
LINE
8
0
6
CONTINUOUS
10
-14.9
20
-70.0
30
0
11
-11.9
21
-70.0
31
0
0
LINE
8
0
6
CONTINUOUS
10
-11.9
20
-70.0
30
0
11
-1.4
21
-70.0
31
0
0
ARC
8
0
6
CONTINUOUS
10
-1.4
20
-68.5
30
0
40
1.5
50
270.0
51
0.0
0
LINE
8
0
6
CONTINUOUS
10
0.1
20
-68.5
30
0
11
0.1
21
-55.0
31
0
0
LINE
8
0
6
CONTINUOUS
10
0.1
20
-55.0
30
0
11
20.6
21
-55.0
31
0
0
ARC
8
0
6
CONTINUOUS
10
20.6
20
-53.5
30
0
40
1.5
50
270.0
51
0.0
0
LINE
8
0
6
CONTINUOUS
10
22.1
20
-53.5
30
0
11
22.1
21
-36.0
31
0
0
LINE
8
0
6
CONTINUOUS
10
22.1
20
-36.0
30
0
11
48.1
21
-36.0
31
0
0
ARC
8
0
6
CONTINUOUS
10
48.1
20
-34.0
30
0
40
2.0
50
270.0
51
0.0
0
LINE
8
0
6
CONTINUOUS
10
50.1
20
-34.0
30
0
11
50.1
21
7.0
31
0
0
ARC
8
0
6
CONTINUOUS
10
47.1
20
7.0
30
0
40
3.0
50
0.0
51
90.0
0
LINE
8
0
6
CONTINUOUS
10
47.1
20
10.0
30
0
11
33.7
21
10.0
31
0
0
ARC
8
0
6
CONTINUOUS
10
33.7
20
8.5
30
0
40
1.5
50
90.0
51
180.0
0
LINE
8
0
6
CONTINUOUS
10
32.2
20
8.5
30
0
11
32.2
21
0.0
31
0
0
LINE
8
0
6
CONTINUOUS
10
32.2
20
0.0
30
0
11
22.0
21
0.0
31
0
0
LINE
8
0
6
CONTINUOUS
10
22.0
20
0.0
30
0
11
22.0
21
8.5
31
0
0
ARC
8
0
6
CONTINUOUS
10
20.5
20
8.5
30
0
40
1.5
50
0.0
51
90.0
0
LINE
8
0
6
CONTINUOUS
10
20.5
20
10.0
30
0
11
11.7
21
10.0
31
0
0
ARC
8
0
6
CONTINUOUS
10
11.7
20
8.5
30
0
40
1.5
50
90.0
51
180.0
0
LINE
8
0
6
CONTINUOUS
10
10.2
20
8.5
30
0
11
10.2
21
0.0
31
0
0
LINE
8
0
6
CONTINUOUS
10
10.2
20
0.0
30
0
11
0.0
21
0.0
31
0
0
LINE
8
0
6
CONTINUOUS
10
0.0
20
0.0
30
0
11
0.0
21
8.5
31
0
0
ARC
8
0
6
CONTINUOUS
10
-1.5
20
8.5
30
0
40
1.5
50
0.0
51
90.0
0
LINE
8
0
6
CONTINUOUS
10
-1.5
20
10.0
30
0
11
-14.9
21
10.0
31
0
0
ARC
8
0
6
CONTINUOUS
10
48.1
20
-34.0
30
0
40
2.0
50
270.0
51
0.0
0
ARC
8
0
6
CONTINUOUS
10
20.6
20
-53.5
30
0
40
1.5
50
270.0
51
0.0
0
ARC
8
0
6
CONTINUOUS
10
-1.4
20
-68.5
30
0
40
1.5
50
270.0
51
0.0
0
ARC
8
0
6
CONTINUOUS
10
-14.899999999999999
20
-67.0
30
0
40
3.0
50
180.0
51
269.99999999999994
0
ARC
8
0
6
CONTINUOUS
10
47.1
20
7.0
30
0
40
3.0
50
0.0
51
90.0
0
ARC
8
0
6
CONTINUOUS
10
-1.5
20
8.5
30
0
40
1.5
50
0.0
51
90.0
0
ARC
8
0
6
CONTINUOUS
10
11.7
20
8.5
30
0
40
1.5
50
90.0
51
180.0
0
ARC
8
0
6
CONTINUOUS
10
20.5
20
8.5
30
0
40
1.5
50
0.0
51
90.0
0
ARC
8
0
6
CONTINUOUS
10
33.7
20
8.5
30
0
40
1.5
50
90.0
51
180.0
0
ARC
8
0
6
CONTINUOUS
10
-14.899999999999999
20
7.0
30
0
40
3.0
50
90.00000000000004
51
180.0
0
LINE
8
0
6
CONTINUOUS
10
50.1
20
-34.0
30
0
11
50.1
21
7.0
31
0
0
LINE
8
0
6
CONTINUOUS
10
22.1
20
-53.5
30
0
11
22.1
21
-36.0
31
0
0
LINE
8
0
6
CONTINUOUS
10
22.1
20
-36.0
30
0
11
48.1
21
-36.0
31
0
0
LINE
8
0
6
CONTINUOUS
10
0.1
20
-68.5
30
0
11
0.1
21
-55.0
31
0
0
LINE
8
0
6
CONTINUOUS
10
0.1
20
-55.0
30
0
11
20.6
21
-55.0
31
0
0
LINE
8
0
6
CONTINUOUS
10
-14.9
20
-70.0
30
0
11
-11.9
21
-70.0
31
0
0
LINE
8
0
6
CONTINUOUS
10
-11.9
20
-70.0
30
0
11
-1.4
21
-70.0
31
0
0
LINE
8
0
6
CONTINUOUS
10
-17.9
20
7.0
30
0
11
-17.9
21
-67.0
31
0
0
LINE
8
0
6
CONTINUOUS
10
10.2
20
8.5
30
0
11
10.2
21
0.0
31
0
0
LINE
8
0
6
CONTINUOUS
10
10.2
20
0.0
30
0
11
0.0
21
0.0
31
0
0
LINE
8
0
6
CONTINUOUS
10
0.0
20
0.0
30
0
11
0.0
21
8.5
31
0
0
LINE
8
0
6
CONTINUOUS
10
32.2
20
8.5
30
0
11
32.2
21
0.0
31
0
0
LINE
8
0
6
CONTINUOUS
10
32.2
20
0.0
30
0
11
22.0
21
0.0
31
0
0
LINE
8
0
6
CONTINUOUS
10
22.0
20
0.0
30
0
11
22.0
21
8.5
31
0
0
LINE
8
0
6
CONTINUOUS
10
20.5
20
10.0
30
0
11
11.7
21
10.0
31
0
0
LINE
8
0
6
CONTINUOUS
10
47.1
20
10.0
30
0
11
33.7
21
10.0
31
0
0
LINE
8
0
6
CONTINUOUS
10
-1.5
20
10.0
30
0
11
-14.9
21
10.0
31
0
0
ARC
8
0
6
CONTINUOUS
10
-14.899999999999999
20
-67.0
30
0
40
3.0
50
180.0
51
269.99999999999994
0
LINE
8
0
6
CONTINUOUS
10
-14.9
20
-70.0
30
0
11
-11.9
21
-70.0
31
0
0
LINE
8
0
6
CONTINUOUS
10
-11.9
20
-70.0
30
0
11
-1.4
21
-70.0
31
0
0
ARC
8
0
6
CONTINUOUS
10
-1.4
20
-68.5
30
0
40
1.5
50
270.0
51
0.0
0
LINE
8
0
6
CONTINUOUS
10
0.1
20
-68.5
30
0
11
0.1
21
-55.0
31
0
0
LINE
8
0
6
CONTINUOUS
10
0.1
20
-55.0
30
0
11
20.6
21
-55.0
31
0
0
ARC
8
0
6
CONTINUOUS
10
20.6
20
-53.5
30
0
40
1.5
50
270.0
51
0.0
0
LINE
8
0
6
CONTINUOUS
10
22.1
20
-53.5
30
0
11
22.1
21
-36.0
31
0
0
LINE
8
0
6
CONTINUOUS
10
22.1
20
-36.0
30
0
11
48.1
21
-36.0
31
0
0
ARC
8
0
6
CONTINUOUS
10
48.1
20
-34.0
30
0
40
2.0
50
270.0
51
0.0
0
LINE
8
0
6
CONTINUOUS
10
50.1
20
-34.0
30
0
11
50.1
21
7.0
31
0
0
ARC
8
0
6
CONTINUOUS
10
47.1
20
7.0
30
0
40
3.0
50
0.0
51
90.0
0
LINE
8
0
6
CONTINUOUS
10
47.1
20
10.0
30
0
11
33.7
21
10.0
31
0
0
ARC
8
0
6
CONTINUOUS
10
33.7
20
8.5
30
0
40
1.5
50
90.0
51
180.0
0
LINE
8
0
6
CONTINUOUS
10
32.2
20
8.5
30
0
11
32.2
21
0.0
31
0
0
LINE
8
0
6
CONTINUOUS
10
32.2
20
0.0
30
0
11
22.0
21
0.0
31
0
0
LINE
8
0
6
CONTINUOUS
10
22.0
20
0.0
30
0
11
22.0
21
8.5
31
0
0
ARC
8
0
6
CONTINUOUS
10
20.5
20
8.5
30
0
40
1.5
50
0.0
51
90.0
0
LINE
8
0
6
CONTINUOUS
10
20.5
20
10.0
30
0
11
11.7
21
10.0
31
0
0
ARC
8
0
6
CONTINUOUS
10
11.7
20
8.5
30
0
40
1.5
50
90.0
51
180.0
0
LINE
8
0
6
CONTINUOUS
10
10.2
20
8.5
30
0
11
10.2
21
0.0
31
0
0
LINE
8
0
6
CONTINUOUS
10
10.2
20
0.0
30
0
11
0.0
21
0.0
31
0
0
LINE
8
0
6
CONTINUOUS
10
0.0
20
0.0
30
0
11
0.0
21
8.5
31
0
0
ARC
8
0
6
CONTINUOUS
10
-1.5
20
8.5
30
0
40
1.5
50
0.0
51
90.0
0
LINE
8
0
6
CONTINUOUS
10
-1.5
20
10.0
30
0
11
-14.9
21
10.0
31
0
0
ARC
8
0
6
CONTINUOUS
10
-14.899999999999999
20
7.0
30
0
40
3.0
50
90.00000000000004
51
180.0
0
LINE
8
0
6
CONTINUOUS
10
-17.9
20
7.0
30
0
11
-17.9
21
-67.0
31
0
0
ENDSEC
0
EOF