0
SECTION
2
HEADER
0
ENDSEC
0
SECTION
2
TABLES
0
TABLE
2
LTYPE
70
2
0
LTYPE
2
CONTINUOUS
70
0
3
Solid line
72
65
73
0
40
0.0
0
ENDTAB
0
TABLE
2
LAYER
70
1
0
LAYER
2
0
70
0
62
7
6
CONTINUOUS
0
ENDTAB
0
ENDSEC
0
SECTION
2
ENTITIES
0
LINE
8
0
6
CONTINUOUS
10
2.57
20
-10.0
30
0
11
2.57
21
45.0
31
0
0
LINE
8
0
6
CONTINUOUS
10
-100.1
20
45.0
30
0
11
39.9
21
45.0
31
0
0
LINE
8
0
6
CONTINUOUS
10
-22.1
20
-10.0
30
0
11
-22.1
21
45.0
31
0
0
LINE
8
0
6
CONTINUOUS
10
39.9
20
-10.0
30
0
11
39.9
21
45.0
31
0
0
LINE
8
0
6
CONTINUOUS
10
-100.1
20
-10.0
30
0
11
-100.1
21
45.0
31
0
0
LINE
8
0
6
CONTINUOUS
10
-100.1
20
-10.0
30
0
11
39.9
21
-10.0
31
0
0
LINE
8
0
6
CONTINUOUS
10
0.0
20
-10.0
30
0
11
0.0
21
45.0
31
0
0
LINE
8
0
6
CONTINUOUS
10
-100.1
20
29.9
30
0
11
39.9
21
29.9
31
0
0
LINE
8
0
6
CONTINUOUS
10
-26.1
20
29.9
30
0
11
-98.6
21
29.9
31
0
0
ARC
8
0
6
CONTINUOUS
10
-98.56050649147697
20
28.360506491476972
30
0
40
1.54
50
91.46951913091675
51
178.53048086908314
0
LINE
8
0
6
CONTINUOUS
10
-100.1
20
28.4
30
0
11
-100.1
21
-8.5
31
0
0
ARC
8
0
6
CONTINUOUS
10
-98.56050649147697
20
-8.460506491476972
30
0
40
1.54
50
181.46951913091695
51
268.53048086908325
0
LINE
8
0
6
CONTINUOUS
10
-98.6
20
-10.0
30
0
11
-96.1
21
-10.0
31
0
0
LINE
8
0
6
CONTINUOUS
10
-96.1
20
-10.0
30
0
11
-96.1
21
-8.0
31
0
0
LINE
8
0
6
CONTINUOUS
10
-96.1
20
-8.0
30
0
11
-98.1
21
-8.0
31
0
0
LINE
8
0
6
CONTINUOUS
10
-98.1
20
-8.0
30
0
11
-98.1
21
-6.0
31
0
0
LINE
8
0
6
CONTINUOUS
10
-98.1
20
-6.0
30
0
11
-91.1
21
-6.0
31
0
0
LINE
8
0
6
CONTINUOUS
10
-91.1
20
-6.0
30
0
11
-91.1
21
-8.0
31
0
0
LINE
8
0
6
CONTINUOUS
10
-91.1
20
-8.0
30
0
11
-93.1
21
-8.0
31
0
0
LINE
8
0
6
CONTINUOUS
10
-93.1
20
-8.0
30
0
11
-93.1
21
-10.0
31
0
0
LINE
8
0
6
CONTINUOUS
10
-93.1
20
-10.0
30
0
11
-83.1
21
-10.0
31
0
0
LINE
8
0
6
CONTINUOUS
10
-83.1
20
-10.0
30
0
11
-83.1
21
-8.0
31
0
0
LINE
8
0
6
CONTINUOUS
10
-83.1
20
-8.0
30
0
11
-89.1
21
-8.0
31
0
0
LINE
8
0
6
CONTINUOUS
10
-89.1
20
-8.0
30
0
11
-89.1
21
-1.5
31
0
0
LINE
8
0
6
CONTINUOUS
10
-89.1
20
-1.5
30
0
11
-20.2
21
-1.5
31
0
0
LINE
8
0
6
CONTINUOUS
10
-20.2
20
-1.5
30
0
11
-20.2
21
-8.0
31
0
0
LINE
8
0
6
CONTINUOUS
10
-20.2
20
-8.0
30
0
11
-26.2
21
-8.0
31
0
0
LINE
8
0
6
CONTINUOUS
10
-26.2
20
-8.0
30
0
11
-26.2
21
-10.0
31
0
0
LINE
8
0
6
CONTINUOUS
10
-26.2
20
-10.0
30
0
11
15.6
21
-10.0
31
0
0
LINE
8
0
6
CONTINUOUS
10
15.6
20
-10.0
30
0
11
15.6
21
-8.0
31
0
0
LINE
8
0
6
CONTINUOUS
10
15.6
20
-8.0
30
0
11
9.35
21
-8.0
31
0
0
LINE
8
0
6
CONTINUOUS
10
9.35
20
-8.0
30
0
11
9.35
21
-1.5
31
0
0
LINE
8
0
6
CONTINUOUS
10
9.35
20
-1.5
30
0
11
37.9
21
-1.5
31
0
0
LINE
8
0
6
CONTINUOUS
10
37.9
20
-1.5
30
0
11
37.9
21
-8.0
31
0
0
LINE
8
0
6
CONTINUOUS
10
37.9
20
-8.0
30
0
11
31.9
21
-8.0
31
0
0
LINE
8
0
6
CONTINUOUS
10
31.9
20
-8.0
30
0
11
31.9
21
-10.0
31
0
0
LINE
8
0
6
CONTINUOUS
10
31.9
20
-10.0
30
0
11
38.4
21
-10.0
31
0
0
ARC
8
0
6
CONTINUOUS
10
38.36050649147697
20
-8.460506491476972
30
0
40
1.54
50
271.469519130917
51
358.5304808690831
0
LINE
8
0
6
CONTINUOUS
10
39.9
20
-8.5
30
0
11
39.9
21
45.0
31
0
0
LINE
8
0
6
CONTINUOUS
10
39.9
20
45.0
30
0
11
-6.8
21
45.0
31
0
0
LINE
8
0
6
CONTINUOUS
10
-6.8
20
45.0
30
0
11
-6.8
21
43.0
31
0
0
LINE
8
0
6
CONTINUOUS
10
-6.8
20
43.0
30
0
11
-4.2
21
43.0
31
0
0
LINE
8
0
6
CONTINUOUS
10
-4.2
20
43.0
30
0
11
-4.2
21
35.63
31
0
0
LINE
8
0
6
CONTINUOUS
10
-4.2
20
35.63
30
0
11
-26.1
21
29.9
31
0
0
LINE
8
0
6
CONTINUOUS
10
-0.2
20
32.7
30
0
11
-2.2
21
32.7
31
0
0
LINE
8
0
6
CONTINUOUS
10
-2.2
20
32.7
30
0
11
-2.2
21
30.8
31
0
0
LINE
8
0
6
CONTINUOUS
10
-2.2
20
30.8
30
0
11
-3.7
21
30.8
31
0
0
LINE
8
0
6
CONTINUOUS
10
-3.7
20
30.8
30
0
11
-3.7
21
32.8
31
0
0
LINE
8
0
6
CONTINUOUS
10
-3.7
20
32.8
30
0
11
-7.2
21
32.8
31
0
0
LINE
8
0
6
CONTINUOUS
10
-7.2
20
32.8
30
0
11
-7.2
21
20.8
31
0
0
LINE
8
0
6
CONTINUOUS
10
-7.2
20
20.8
30
0
11
-3.7
21
20.8
31
0
0
LINE
8
0
6
CONTINUOUS
10
-3.7
20
20.8
30
0
11
-3.7
21
22.8
31
0
0
LINE
8
0
6
CONTINUOUS
10
-3.7
20
22.8
30
0
11
-2.2
21
22.8
31
0
0
LINE
8
0
6
CONTINUOUS
10
-2.2
20
22.8
30
0
11
-2.2
21
20.8
31
0
0
LINE
8
0
6
CONTINUOUS
10
-2.2
20
20.8
30
0
11
5.35
21
20.8
31
0
0
LINE
8
0
6
CONTINUOUS
10
5.35
20
20.8
30
0
11
7.35
21
20.8
31
0
0
LINE
8
0
6
CONTINUOUS
10
7.35
20
20.8
30
0
11
7.35
21
22.8
31
0
0
LINE
8
0
6
CONTINUOUS
10
7.35
20
22.8
30
0
11
8.85
21
22.8
31
0
0
LINE
8
0
6
CONTINUOUS
10
8.85
20
22.8
30
0
11
8.85
21
20.8
31
0
0
LINE
8
0
6
CONTINUOUS
10
8.85
20
20.8
30
0
11
12.35
21
20.8
31
0
0
LINE
8
0
6
CONTINUOUS
10
12.35
20
20.8
30
0
11
12.35
21
35.6
31
0
0
LINE
8
0
6
CONTINUOUS
10
12.35
20
35.6
30
0
11
8.85
21
35.6
31
0
0
LINE
8
0
6
CONTINUOUS
10
8.85
20
35.6
30
0
11
8.85
21
30.8
31
0
0
LINE
8
0
6
CONTINUOUS
10
8.85
20
30.8
30
0
11
7.35
21
30.8
31
0
0
LINE
8
0
6
CONTINUOUS
10
7.35
20
30.8
30
0
11
7.35
21
32.7
31
0
0
LINE
8
0
6
CONTINUOUS
10
7.35
20
32.7
30
0
11
5.35
21
32.7
31
0
0
LINE
8
0
6
CONTINUOUS
10
5.35
20
32.7
30
0
11
5.35
21
33.7
31
0
0
LINE
8
0
6
CONTINUOUS
10
5.35
20
33.7
30
0
11
-0.2
21
33.7
31
0
0
LINE
8
0
6
CONTINUOUS
10
-0.2
20
33.7
30
0
11
-0.2
21
32.7
31
0
0
LINE
8
0
6
CONTINUOUS
10
-2.2
20
45.0
30
0
11
-2.2
21
38.0
31
0
0
LINE
8
0
6
CONTINUOUS
10
-2.2
20
38.0
30
0
11
-1.7
21
37.5
31
0
0
LINE
8
0
6
CONTINUOUS
10
-1.7
20
37.5
30
0
11
-2.2
21
37.0
31
0
0
LINE
8
0
6
CONTINUOUS
10
-2.2
20
37.0
30
0
11
-2.2
21
34.7
31
0
0
LINE
8
0
6
CONTINUOUS
10
-2.2
20
34.7
30
0
11
-0.2
21
34.7
31
0
0
LINE
8
0
6
CONTINUOUS
10
-0.2
20
34.7
30
0
11
-0.2
21
43.0
31
0
0
LINE
8
0
6
CONTINUOUS
10
-0.2
20
43.0
30
0
11
5.35
21
43.0
31
0
0
LINE
8
0
6
CONTINUOUS
10
5.35
20
43.0
30
0
11
5.35
21
34.7
31
0
0
LINE
8
0
6
CONTINUOUS
10
5.35
20
34.7
30
0
11
7.35
21
34.7
31
0
0
LINE
8
0
6
CONTINUOUS
10
7.35
20
34.7
30
0
11
7.35
21
37.0
31
0
0
LINE
8
0
6
CONTINUOUS
10
7.35
20
37.0
30
0
11
6.85
21
37.5
31
0
0
LINE
8
0
6
CONTINUOUS
10
6.85
20
37.5
30
0
11
7.35
21
38.0
31
0
0
LINE
8
0
6
CONTINUOUS
10
7.35
20
38.0
30
0
11
7.35
21
45.0
31
0
0
LINE
8
0
6
CONTINUOUS
10
7.35
20
45.0
30
0
11
-2.2
21
45.0
31
0
0
ARC
8
0
6
CONTINUOUS
10
-6.290096171632659
20
44.49009617163266
30
0
40
0.51
50
91.11271223013651
51
178.8872877698633
0
ARC
8
0
6
CONTINUOUS
10
-6.290096171632659
20
43.50990382836734
30
0
40
0.51
50
181.1127122301367
51
268.8872877698635
0
ARC
8
0
6
CONTINUOUS
10
-98.56050649147697
20
28.360506491476972
30
0
40
1.54
50
91.46951913091675
51
178.53048086908314
0
ARC
8
0
6
CONTINUOUS
10
-98.56050649147697
20
-8.460506491476972
30
0
40
1.54
50
181.46951913091695
51
268.53048086908325
0
ARC
8
0
6
CONTINUOUS
10
-96.35981468762712
20
-9.740185312372873
30
0
40
0.26
50
272.16336083513204
51
357.83663916486796
0
ARC
8
0
6
CONTINUOUS
10
-96.35981468762712
20
-8.259814687627127
30
0
40
0.26
50
2.1633608351320435
51
87.83663916486796
0
ARC
8
0
6
CONTINUOUS
10
-92.84018531237287
20
-8.259814687627127
30
0
40
0.26
50
92.16336083513204
51
177.83663916486796
0
ARC
8
0
6
CONTINUOUS
10
-92.84018531237287
20
-9.740185312372873
30
0
40
0.26
50
182.16336083513204
51
267.83663916486796
0
ARC
8
0
6
CONTINUOUS
10
-83.35981468762712
20
-9.740185312372873
30
0
40
0.26
50
272.16336083513204
51
357.83663916486796
0
ARC
8
0
6
CONTINUOUS
10
-83.35981468762712
20
-8.259814687627127
30
0
40
0.26
50
2.1633608351320435
51
87.83663916486796
0
ARC
8
0
6
CONTINUOUS
10
-25.940185312372872
20
-8.259814687627127
30
0
40
0.26
50
92.16336083513204
51
177.83663916486796
0
ARC
8
0
6
CONTINUOUS
10
-25.940185312372872
20
-9.740185312372873
30
0
40
0.26
50
182.16336083513204
51
267.83663916486796
0
ARC
8
0
6
CONTINUOUS
10
15.340185312372872
20
-9.740185312372873
30
0
40
0.26
50
272.16336083513204
51
357.83663916486796
0
ARC
8
0
6
CONTINUOUS
10
15.340185312372872
20
-8.259814687627127
30
0
40
0.26
50
2.1633608351320435
51
87.83663916486796
0
ARC
8
0
6
CONTINUOUS
10
32.159814687627126
20
-8.259814687627127
30
0
40
0.26
50
92.16336083513204
51
177.83663916486796
0
ARC
8
0
6
CONTINUOUS
10
32.159814687627126
20
-9.740185312372873
30
0
40
0.26
50
182.16336083513204
51
267.83663916486796
0
ARC
8
0
6
CONTINUOUS
10
38.36050649147697
20
-8.460506491476972
30
0
40
1.54
50
271.469519130917
51
358.5304808690831
0
ARC
8
0
6
CONTINUOUS
10
38.870424698461115
20
43.970424698461116
30
0
40
1.03
50
1.6454105794713474
51
88.35458942052865
0
ARC
8
0
6
CONTINUOUS
10
35.159814687627126
20
1.2401853123728723
30
0
40
0.26
50
92.16336083513204
51
177.83663916486788
0
ARC
8
0
6
CONTINUOUS
10
35.159814687627126
20
26.240185312372873
30
0
40
0.26
50
92.16336083513204
51
177.83663916486796
0
ARC
8
0
6
CONTINUOUS
10
35.159814687627126
20
24.759814687627127
30
0
40
0.26
50
182.16336083513204
51
267.83663916486796
0
ARC
8
0
6
CONTINUOUS
10
35.159814687627126
20
21.240185312372873
30
0
40
0.26
50
92.16336083513204
51
177.83663916486796
0
ARC
8
0
6
CONTINUOUS
10
35.159814687627126
20
19.759814687627127
30
0
40
0.26
50
182.16336083513204
51
267.83663916486796
0
ARC
8
0
6
CONTINUOUS
10
35.159814687627126
20
6.240185312372873
30
0
40
0.26
50
92.16336083513204
51
177.83663916486796
0
ARC
8
0
6
CONTINUOUS
10
35.159814687627126
20
4.759814687627127
30
0
40
0.26
50
182.16336083513204
51
267.83663916486796
0
LINE
8
0
6
CONTINUOUS
10
-6.8
20
44.5
30
0
11
-6.8
21
43.5
31
0
0
LINE
8
0
6
CONTINUOUS
10
-100.1
20
28.4
30
0
11
-100.1
21
-8.5
31
0
0
LINE
8
0
6
CONTINUOUS
10
-98.6
20
-10.0
30
0
11
-96.35
21
-10.0
31
0
0
LINE
8
0
6
CONTINUOUS
10
-96.1
20
-9.75
30
0
11
-96.1
21
-8.25
31
0
0
LINE
8
0
6
CONTINUOUS
10
-96.35
20
-8.0
30
0
11
-98.1
21
-8.0
31
0
0
LINE
8
0
6
CONTINUOUS
10
-98.1
20
-8.0
30
0
11
-98.1
21
-6.0
31
0
0
LINE
8
0
6
CONTINUOUS
10
-98.1
20
-6.0
30
0
11
-91.1
21
-6.0
31
0
0
LINE
8
0
6
CONTINUOUS
10
-91.1
20
-6.0
30
0
11
-91.1
21
-8.0
31
0
0
LINE
8
0
6
CONTINUOUS
10
-91.1
20
-8.0
30
0
11
-92.85
21
-8.0
31
0
0
LINE
8
0
6
CONTINUOUS
10
-93.1
20
-8.25
30
0
11
-93.1
21
-9.75
31
0
0
LINE
8
0
6
CONTINUOUS
10
-92.85
20
-10.0
30
0
11
-83.35
21
-10.0
31
0
0
LINE
8
0
6
CONTINUOUS
10
-83.1
20
-9.75
30
0
11
-83.1
21
-8.25
31
0
0
LINE
8
0
6
CONTINUOUS
10
-83.35
20
-8.0
30
0
11
-89.1
21
-8.0
31
0
0
LINE
8
0
6
CONTINUOUS
10
-89.1
20
-8.0
30
0
11
-89.1
21
-1.5
31
0
0
LINE
8
0
6
CONTINUOUS
10
-89.1
20
-1.5
30
0
11
-20.2
21
-1.5
31
0
0
LINE
8
0
6
CONTINUOUS
10
-20.2
20
-1.5
30
0
11
-20.2
21
-8.0
31
0
0
LINE
8
0
6
CONTINUOUS
10
-20.2
20
-8.0
30
0
11
-25.95
21
-8.0
31
0
0
LINE
8
0
6
CONTINUOUS
10
-4.2
20
18.8
30
0
11
-4.2
21
-8.0
31
0
0
LINE
8
0
6
CONTINUOUS
10
-4.2
20
-8.0
30
0
11
-18.2
21
-8.0
31
0
0
LINE
8
0
6
CONTINUOUS
10
-18.2
20
-8.0
30
0
11
-18.2
21
0.5
31
0
0
LINE
8
0
6
CONTINUOUS
10
-18.2
20
0.5
30
0
11
-32.2
21
0.5
31
0
0
LINE
8
0
6
CONTINUOUS
10
-32.2
20
0.5
30
0
11
-32.2
21
27.9
31
0
0
LINE
8
0
6
CONTINUOUS
10
-32.2
20
27.9
30
0
11
-25.85
21
27.9
31
0
0
LINE
8
0
6
CONTINUOUS
10
-25.85
20
27.9
30
0
11
-9.2
21
32.3
31
0
0
LINE
8
0
6
CONTINUOUS
10
-9.2
20
32.3
30
0
11
-9.2
21
18.8
31
0
0
LINE
8
0
6
CONTINUOUS
10
-9.2
20
18.8
30
0
11
-4.2
21
18.8
31
0
0
LINE
8
0
6
CONTINUOUS
10
-91.1
20
0.5
30
0
11
-91.1
21
-4.0
31
0
0
LINE
8
0
6
CONTINUOUS
10
-91.1
20
-4.0
30
0
11
-98.1
21
-4.0
31
0
0
LINE
8
0
6
CONTINUOUS
10
-98.1
20
-4.0
30
0
11
-98.1
21
27.9
31
0
0
LINE
8
0
6
CONTINUOUS
10
-98.1
20
27.9
30
0
11
-34.2
21
27.9
31
0
0
LINE
8
0
6
CONTINUOUS
10
-34.2
20
27.9
30
0
11
-34.2
21
0.5
31
0
0
LINE
8
0
6
CONTINUOUS
10
-34.2
20
0.5
30
0
11
-91.1
21
0.5
31
0
0
LINE
8
0
6
CONTINUOUS
10
-26.2
20
-8.25
30
0
11
-26.2
21
-9.75
31
0
0
LINE
8
0
6
CONTINUOUS
10
-25.95
20
-10.0
30
0
11
-2.2
21
-10.0
31
0
0
LINE
8
0
6
CONTINUOUS
10
-2.2
20
-10.0
30
0
11
-2.2
21
18.8
31
0
0
LINE
8
0
6
CONTINUOUS
10
-2.2
20
18.8
30
0
11
-0.2
21
18.8
31
0
0
LINE
8
0
6
CONTINUOUS
10
-0.2
20
18.8
30
0
11
-0.2
21
20.8
31
0
0
LINE
8
0
6
CONTINUOUS
10
-0.2
20
20.8
30
0
11
-2.2
21
20.8
31
0
0
LINE
8
0
6
CONTINUOUS
10
-2.2
20
20.8
30
0
11
-2.2
21
22.8
31
0
0
LINE
8
0
6
CONTINUOUS
10
-2.2
20
22.8
30
0
11
-3.7
21
22.8
31
0
0
LINE
8
0
6
CONTINUOUS
10
-3.7
20
22.8
30
0
11
-3.7
21
20.8
31
0
0
LINE
8
0
6
CONTINUOUS
10
-3.7
20
20.8
30
0
11
-7.2
21
20.8
31
0
0
LINE
8
0
6
CONTINUOUS
10
-7.2
20
20.8
30
0
11
-7.2
21
32.8
31
0
0
LINE
8
0
6
CONTINUOUS
10
-7.2
20
32.8
30
0
11
-3.7
21
32.8
31
0
0
LINE
8
0
6
CONTINUOUS
10
-3.7
20
32.8
30
0
11
-3.7
21
30.8
31
0
0
LINE
8
0
6
CONTINUOUS
10
-3.7
20
30.8
30
0
11
-2.2
21
30.8
31
0
0
LINE
8
0
6
CONTINUOUS
10
-2.2
20
30.8
30
0
11
-2.2
21
32.7
31
0
0
LINE
8
0
6
CONTINUOUS
10
-2.2
20
32.7
30
0
11
-0.2
21
32.7
31
0
0
LINE
8
0
6
CONTINUOUS
10
-0.2
20
32.7
30
0
11
-0.2
21
34.7
31
0
0
LINE
8
0
6
CONTINUOUS
10
-0.2
20
34.7
30
0
11
-2.2
21
34.7
31
0
0
LINE
8
0
6
CONTINUOUS
10
-2.2
20
34.7
30
0
11
-2.2
21
37.0
31
0
0
LINE
8
0
6
CONTINUOUS
10
-2.2
20
37.0
30
0
11
-1.7
21
37.5
31
0
0
LINE
8
0
6
CONTINUOUS
10
-1.7
20
37.5
30
0
11
-2.2
21
38.0
31
0
0
LINE
8
0
6
CONTINUOUS
10
-2.2
20
38.0
30
0
11
-2.2
21
45.0
31
0
0
LINE
8
0
6
CONTINUOUS
10
-2.2
20
45.0
30
0
11
-6.3
21
45.0
31
0
0
LINE
8
0
6
CONTINUOUS
10
-6.3
20
43.0
30
0
11
-4.2
21
43.0
31
0
0
LINE
8
0
6
CONTINUOUS
10
-4.2
20
43.0
30
0
11
-4.2
21
36.0
31
0
0
LINE
8
0
6
CONTINUOUS
10
-4.2
20
36.0
30
0
11
-4.7
21
35.5
31
0
0
LINE
8
0
6
CONTINUOUS
10
-4.7
20
35.5
30
0
11
-26.1
21
29.9
31
0
0
LINE
8
0
6
CONTINUOUS
10
-26.1
20
29.9
30
0
11
-98.6
21
29.9
31
0
0
LINE
8
0
6
CONTINUOUS
10
15.6
20
-9.75
30
0
11
15.6
21
-8.25
31
0
0
LINE
8
0
6
CONTINUOUS
10
15.35
20
-8.0
30
0
11
9.35
21
-8.0
31
0
0
LINE
8
0
6
CONTINUOUS
10
9.35
20
-8.0
30
0
11
9.35
21
-1.5
31
0
0
LINE
8
0
6
CONTINUOUS
10
9.35
20
-1.5
30
0
11
37.9
21
-1.5
31
0
0
LINE
8
0
6
CONTINUOUS
10
37.9
20
-1.5
30
0
11
37.9
21
-8.0
31
0
0
LINE
8
0
6
CONTINUOUS
10
37.9
20
-8.0
30
0
11
32.15
21
-8.0
31
0
0
LINE
8
0
6
CONTINUOUS
10
31.9
20
-8.25
30
0
11
31.9
21
-9.75
31
0
0
LINE
8
0
6
CONTINUOUS
10
32.15
20
-10.0
30
0
11
38.4
21
-10.0
31
0
0
LINE
8
0
6
CONTINUOUS
10
39.9
20
-8.5
30
0
11
39.9
21
44.0
31
0
0
LINE
8
0
6
CONTINUOUS
10
38.9
20
45.0
30
0
11
14.35
21
45.0
31
0
0
LINE
8
0
6
CONTINUOUS
10
14.35
20
45.0
30
0
11
14.35
21
37.6
31
0
0
LINE
8
0
6
CONTINUOUS
10
14.35
20
37.6
30
0
11
9.35
21
37.6
31
0
0
LINE
8
0
6
CONTINUOUS
10
9.35
20
37.6
30
0
11
9.35
21
45.0
31
0
0
LINE
8
0
6
CONTINUOUS
10
9.35
20
45.0
30
0
11
7.35
21
45.0
31
0
0
LINE
8
0
6
CONTINUOUS
10
7.35
20
45.0
30
0
11
7.35
21
38.0
31
0
0
LINE
8
0
6
CONTINUOUS
10
7.35
20
38.0
30
0
11
6.85
21
37.5
31
0
0
LINE
8
0
6
CONTINUOUS
10
6.85
20
37.5
30
0
11
7.35
21
37.0
31
0
0
LINE
8
0
6
CONTINUOUS
10
7.35
20
37.0
30
0
11
7.35
21
34.7
31
0
0
LINE
8
0
6
CONTINUOUS
10
7.35
20
34.7
30
0
11
5.35
21
34.7
31
0
0
LINE
8
0
6
CONTINUOUS
10
5.35
20
34.7
30
0
11
5.35
21
32.7
31
0
0
LINE
8
0
6
CONTINUOUS
10
5.35
20
32.7
30
0
11
7.35
21
32.7
31
0
0
LINE
8
0
6
CONTINUOUS
10
7.35
20
32.7
30
0
11
7.35
21
30.8
31
0
0
LINE
8
0
6
CONTINUOUS
10
7.35
20
30.8
30
0
11
8.85
21
30.8
31
0
0
LINE
8
0
6
CONTINUOUS
10
8.85
20
30.8
30
0
11
8.85
21
35.6
31
0
0
LINE
8
0
6
CONTINUOUS
10
8.85
20
35.6
30
0
11
12.35
21
35.6
31
0
0
LINE
8
0
6
CONTINUOUS
10
12.35
20
35.6
30
0
11
12.35
21
20.8
31
0
0
LINE
8
0
6
CONTINUOUS
10
12.35
20
20.8
30
0
11
8.85
21
20.8
31
0
0
LINE
8
0
6
CONTINUOUS
10
8.85
20
20.8
30
0
11
8.85
21
22.8
31
0
0
LINE
8
0
6
CONTINUOUS
10
8.85
20
22.8
30
0
11
7.35
21
22.8
31
0
0
LINE
8
0
6
CONTINUOUS
10
7.35
20
22.8
30
0
11
7.35
21
20.8
31
0
0
LINE
8
0
6
CONTINUOUS
10
7.35
20
20.8
30
0
11
5.35
21
20.8
31
0
0
LINE
8
0
6
CONTINUOUS
10
5.35
20
20.8
30
0
11
5.35
21
18.8
31
0
0
LINE
8
0
6
CONTINUOUS
10
5.35
20
18.8
30
0
11
7.35
21
18.8
31
0
0
LINE
8
0
6
CONTINUOUS
10
7.35
20
18.8
30
0
11
7.35
21
-10.0
31
0
0
LINE
8
0
6
CONTINUOUS
10
7.35
20
-10.0
30
0
11
15.35
21
-10.0
31
0
0
LINE
8
0
6
CONTINUOUS
10
34.9
20
26.25
30
0
11
34.9
21
24.75
31
0
0
LINE
8
0
6
CONTINUOUS
10
35.15
20
24.5
30
0
11
37.9
21
24.5
31
0
0
LINE
8
0
6
CONTINUOUS
10
37.9
20
24.5
30
0
11
37.9
21
21.5
31
0
0
LINE
8
0
6
CONTINUOUS
10
37.9
20
21.5
30
0
11
35.15
21
21.5
31
0
0
LINE
8
0
6
CONTINUOUS
10
34.9
20
21.25
30
0
11
34.9
21
19.75
31
0
0
LINE
8
0
6
CONTINUOUS
10
35.15
20
19.5
30
0
11
37.9
21
19.5
31
0
0
LINE
8
0
6
CONTINUOUS
10
37.9
20
19.5
30
0
11
37.9
21
6.5
31
0
0
LINE
8
0
6
CONTINUOUS
10
37.9
20
6.5
30
0
11
35.15
21
6.5
31
0
0
LINE
8
0
6
CONTINUOUS
10
34.9
20
6.25
30
0
11
34.9
21
4.75
31
0
0
LINE
8
0
6
CONTINUOUS
10
35.15
20
4.5
30
0
11
37.9
21
4.5
31
0
0
LINE
8
0
6
CONTINUOUS
10
37.9
20
4.5
30
0
11
37.9
21
1.5
31
0
0
LINE
8
0
6
CONTINUOUS
10
37.9
20
1.5
30
0
11
35.15
21
1.5
31
0
0
LINE
8
0
6
CONTINUOUS
10
34.9
20
1.25
30
0
11
34.9
21
0.5
31
0
0
LINE
8
0
6
CONTINUOUS
10
34.9
20
0.5
30
0
11
9.35
21
0.5
31
0
0
LINE
8
0
6
CONTINUOUS
10
9.35
20
0.5
30
0
11
9.35
21
18.8
31
0
0
LINE
8
0
6
CONTINUOUS
10
9.35
20
18.8
30
0
11
14.35
21
18.8
31
0
0
LINE
8
0
6
CONTINUOUS
10
14.35
20
18.8
30
0
11
14.35
21
35.6
31
0
0
LINE
8
0
6
CONTINUOUS
10
14.35
20
35.6
30
0
11
16.35
21
35.6
31
0
0
LINE
8
0
6
CONTINUOUS
10
16.35
20
35.6
30
0
11
16.35
21
43.0
31
0
0
LINE
8
0
6
CONTINUOUS
10
16.35
20
43.0
30
0
11
37.9
21
43.0
31
0
0
LINE
8
0
6
CONTINUOUS
10
37.9
20
43.0
30
0
11
37.9
21
26.5
31
0
0
LINE
8
0
6
CONTINUOUS
10
37.9
20
26.5
30
0
11
35.15
21
26.5
31
0
0
LINE
8
0
6
CONTINUOUS
10
-4.19
20
41.8
30
0
11
-4.19
21
42.7
31
0
0
LINE
8
0
6
CONTINUOUS
10
-26.1
20
29.92
30
0
11
-6.8
21
34.95
31
0
0
ENDSEC
0
EOF