0
SECTION
2
HEADER
0
ENDSEC
0
SECTION
2
TABLES
0
TABLE
2
LTYPE
70
2
0
LTYPE
2
CONTINUOUS
70
0
3
Solid line
72
65
73
0
40
0.0
0
ENDTAB
0
TABLE
2
LAYER
70
1
0
LAYER
2
0
70
0
62
7
6
CONTINUOUS
0
ENDTAB
0
ENDSEC
0
SECTION
2
ENTITIES
0
LINE
8
0
6
CONTINUOUS
10
-7.2
20
-47.0
30
0
11
59.78
21
-47.0
31
0
0
LINE
8
0
6
CONTINUOUS
10
5.8
20
-47.0
30
0
11
5.8
21
66.0
31
0
0
LINE
8
0
6
CONTINUOUS
10
-7.2
20
66.0
30
0
11
59.78
21
66.0
31
0
0
LINE
8
0
6
CONTINUOUS
10
-7.2
20
48.0
30
0
11
59.78
21
48.0
31
0
0
LINE
8
0
6
CONTINUOUS
10
48.8
20
-47.0
30
0
11
48.8
21
66.0
31
0
0
LINE
8
0
6
CONTINUOUS
10
-7.2
20
-47.0
30
0
11
-7.2
21
66.0
31
0
0
LINE
8
0
6
CONTINUOUS
10
33.8
20
-47.0
30
0
11
33.8
21
66.0
31
0
0
LINE
8
0
6
CONTINUOUS
10
33.8
20
48.0
30
0
11
45.8
21
48.0
31
0
0
ARC
8
0
6
CONTINUOUS
10
45.8
20
51.0
30
0
40
3.0
50
270.0
51
0.0
0
LINE
8
0
6
CONTINUOUS
10
48.8
20
51.0
30
0
11
48.8
21
60.06
31
0
0
ARC
8
0
6
CONTINUOUS
10
45.8000016787279
20
60.063173698888264
30
0
40
3.0
50
359.9393868047799
51
74.92997105835546
0
LINE
8
0
6
CONTINUOUS
10
46.58
20
62.96
30
0
11
35.21
21
66.0
31
0
0
LINE
8
0
6
CONTINUOUS
10
35.21
20
66.0
30
0
11
33.8
21
64.59
31
0
0
LINE
8
0
6
CONTINUOUS
10
33.8
20
64.59
30
0
11
33.8
21
48.0
31
0
0
LINE
8
0
6
CONTINUOUS
10
4.39
20
66.0
30
0
11
-5.23
21
62.5
31
0
0
ARC
8
0
6
CONTINUOUS
10
-4.20000092732607
20
59.68235880384127
30
0
40
3.0
50
110.08007053907563
51
180.0450498395764
0
LINE
8
0
6
CONTINUOUS
10
-7.2
20
59.68
30
0
11
-7.2
21
-44.0
31
0
0
ARC
8
0
6
CONTINUOUS
10
-4.2
20
-44.0
30
0
40
3.0
50
180.0
51
270.0
0
LINE
8
0
6
CONTINUOUS
10
-4.2
20
-47.0
30
0
11
45.8
21
-47.0
31
0
0
ARC
8
0
6
CONTINUOUS
10
45.8
20
-44.0
30
0
40
3.0
50
270.0
51
0.0
0
LINE
8
0
6
CONTINUOUS
10
48.8
20
-44.0
30
0
11
48.8
21
45.0
31
0
0
ARC
8
0
6
CONTINUOUS
10
45.8
20
45.0
30
0
40
3.0
50
0.0
51
90.0
0
LINE
8
0
6
CONTINUOUS
10
45.8
20
48.0
30
0
11
17.3
21
48.0
31
0
0
LINE
8
0
6
CONTINUOUS
10
17.3
20
48.0
30
0
11
17.3
21
42.5
31
0
0
LINE
8
0
6
CONTINUOUS
10
17.3
20
42.5
30
0
11
12.8
21
42.5
31
0
0
LINE
8
0
6
CONTINUOUS
10
12.8
20
42.5
30
0
11
12.8
21
48.0
31
0
0
LINE
8
0
6
CONTINUOUS
10
12.8
20
48.0
30
0
11
5.8
21
48.0
31
0
0
LINE
8
0
6
CONTINUOUS
10
5.8
20
48.0
30
0
11
5.8
21
64.59
31
0
0
LINE
8
0
6
CONTINUOUS
10
5.8
20
64.59
30
0
11
4.39
21
66.0
31
0
0
ARC
8
0
6
CONTINUOUS
10
56.8
20
-38.5
30
0
40
0.5
50
270.0
51
0.0
0
ARC
8
0
6
CONTINUOUS
10
56.26597739529125
20
-32.19991065690836
30
0
40
0.2
50
91.71265264375019
51
168.48916244867488
0
ARC
8
0
6
CONTINUOUS
10
56.1
20
-33.8
30
0
40
0.2
50
270.0
51
0.0
0
ARC
8
0
6
CONTINUOUS
10
50.45404919293174
20
-32.70004099410979
30
0
40
0.2
50
268.83991241053945
51
11.548945404933955
0
ARC
8
0
6
CONTINUOUS
10
50.5
20
-33.8
30
0
40
0.2
50
180.0
51
270.0
0
ARC
8
0
6
CONTINUOUS
10
50.33402260470875
20
-32.19991065690836
30
0
40
0.2
50
11.51083755132515
51
88.28734735624982
0
ARC
8
0
6
CONTINUOUS
10
56.14595080706825
20
-32.70004099410979
30
0
40
0.2
50
168.45105459506564
51
271.1600875894626
0
ARC
8
0
6
CONTINUOUS
10
48.47773046236705
20
-40.0050429784924
30
0
40
0.18334935823359916
50
165.7787156661535
51
307.75786219788955
0
LINE
8
0
6
CONTINUOUS
10
55.88
20
-23.13
30
0
11
54.78
21
-23.13
31
0
0
LINE
8
0
6
CONTINUOUS
10
54.78
20
-23.13
30
0
11
55.88
21
-23.13
31
0
0
LINE
8
0
6
CONTINUOUS
10
55.88
20
-23.13
30
0
11
55.88
21
-30.23
31
0
0
LINE
8
0
6
CONTINUOUS
10
55.88
20
-30.23
30
0
11
54.78
21
-30.23
31
0
0
LINE
8
0
6
CONTINUOUS
10
54.78
20
-30.23
30
0
11
54.78
21
-23.13
31
0
0
LINE
8
0
6
CONTINUOUS
10
54.78
20
-23.13
30
0
11
54.78
21
-30.23
31
0
0
LINE
8
0
6
CONTINUOUS
10
54.78
20
-30.23
30
0
11
55.88
21
-30.23
31
0
0
LINE
8
0
6
CONTINUOUS
10
55.88
20
-30.23
30
0
11
55.88
21
-23.13
31
0
0
LINE
8
0
6
CONTINUOUS
10
56.26
20
-32.0
30
0
11
57.3
21
-32.0
31
0
0
LINE
8
0
6
CONTINUOUS
10
57.3
20
-32.0
30
0
11
57.3
21
-38.5
31
0
0
LINE
8
0
6
CONTINUOUS
10
56.3
20
-32.9
30
0
11
56.3
21
-33.8
31
0
0
LINE
8
0
6
CONTINUOUS
10
50.5
20
-34.0
30
0
11
56.1
21
-34.0
31
0
0
LINE
8
0
6
CONTINUOUS
10
50.3
20
-33.8
30
0
11
50.3
21
-32.9
31
0
0
LINE
8
0
6
CONTINUOUS
10
50.65
20
-32.66
30
0
11
50.53
21
-32.16
31
0
0
LINE
8
0
6
CONTINUOUS
10
55.95
20
-32.66
30
0
11
56.07
21
-32.16
31
0
0
LINE
8
0
6
CONTINUOUS
10
55.88
20
-26.68
30
0
11
59.78
21
-26.68
31
0
0
LINE
8
0
6
CONTINUOUS
10
55.88
20
-28.81
30
0
11
59.78
21
-29.23
31
0
0
LINE
8
0
6
CONTINUOUS
10
55.88
20
-28.51
30
0
11
59.78
21
-28.73
31
0
0
LINE
8
0
6
CONTINUOUS
10
55.88
20
-28.19
30
0
11
59.78
21
-28.27
31
0
0
LINE
8
0
6
CONTINUOUS
10
55.88
20
-27.86
30
0
11
59.78
21
-27.86
31
0
0
LINE
8
0
6
CONTINUOUS
10
55.88
20
-27.57
30
0
11
59.78
21
-27.57
31
0
0
LINE
8
0
6
CONTINUOUS
10
55.88
20
-27.27
30
0
11
59.78
21
-27.27
31
0
0
LINE
8
0
6
CONTINUOUS
10
55.88
20
-26.97
30
0
11
59.78
21
-26.97
31
0
0
LINE
8
0
6
CONTINUOUS
10
55.88
20
-26.39
30
0
11
59.78
21
-26.39
31
0
0
LINE
8
0
6
CONTINUOUS
10
55.88
20
-26.09
30
0
11
59.78
21
-26.09
31
0
0
LINE
8
0
6
CONTINUOUS
10
55.88
20
-25.8
30
0
11
59.78
21
-25.8
31
0
0
LINE
8
0
6
CONTINUOUS
10
55.88
20
-25.5
30
0
11
59.78
21
-25.5
31
0
0
LINE
8
0
6
CONTINUOUS
10
55.88
20
-25.17
30
0
11
59.78
21
-25.09
31
0
0
LINE
8
0
6
CONTINUOUS
10
55.88
20
-24.86
30
0
11
59.78
21
-24.64
31
0
0
LINE
8
0
6
CONTINUOUS
10
55.88
20
-24.56
30
0
11
59.78
21
-24.14
31
0
0
LINE
8
0
6
CONTINUOUS
10
56.8
20
-39.0
30
0
11
48.8
21
-39.0
31
0
0
LINE
8
0
6
CONTINUOUS
10
48.8
20
-39.0
30
0
11
48.8
21
-32.0
31
0
0
LINE
8
0
6
CONTINUOUS
10
48.8
20
-32.0
30
0
11
50.34
21
-32.0
31
0
0
LINE
8
0
6
CONTINUOUS
10
48.3
20
-39.96
30
0
11
48.8
21
-39.0
31
0
0
LINE
8
0
6
CONTINUOUS
10
48.8
20
-39.0
30
0
11
48.61
21
-39.36
31
0
0
LINE
8
0
6
CONTINUOUS
10
48.59
20
-40.15
30
0
11
49.55
21
-39.0
31
0
0
ARC
8
0
6
CONTINUOUS
10
52.78
20
-20.94
30
0
40
1.0
50
90.0
51
180.0
0
ARC
8
0
6
CONTINUOUS
10
52.33125074307045
20
-9.94000078217942
30
0
40
1.0
50
269.9283376821237
51
357.13406088910455
0
ARC
8
0
6
CONTINUOUS
10
56.612516248943066
20
8.560056009666967
30
0
40
0.5
50
89.14239327593876
51
157.67325590347983
0
ARC
8
0
6
CONTINUOUS
10
60.22165385687832
20
5.461223662479353
30
0
40
5.0
50
158.17609002902566
51
176.689024463893
0
ARC
8
0
6
CONTINUOUS
10
54.36140870850126
20
-0.7824936799776727
30
0
40
0.5
50
329.00170013187346
51
355.6980514282662
0
ARC
8
0
6
CONTINUOUS
10
56.78
20
8.56
30
0
40
0.5
50
0.0
51
90.0
0
LINE
8
0
6
CONTINUOUS
10
52.78
20
-19.94
30
0
11
54.28
21
-19.94
31
0
0
LINE
8
0
6
CONTINUOUS
10
54.28
20
-19.94
30
0
11
54.28
21
-13.94
31
0
0
LINE
8
0
6
CONTINUOUS
10
57.28
20
8.56
30
0
11
57.28
21
-24.44
31
0
0
LINE
8
0
6
CONTINUOUS
10
57.28
20
-24.44
30
0
11
56.28
21
-24.44
31
0
0
LINE
8
0
6
CONTINUOUS
10
56.28
20
-24.44
30
0
11
56.28
21
-22.94
31
0
0
LINE
8
0
6
CONTINUOUS
10
56.28
20
-22.94
30
0
11
54.78
21
-22.94
31
0
0
LINE
8
0
6
CONTINUOUS
10
54.78
20
-22.94
30
0
11
54.78
21
-30.44
31
0
0
LINE
8
0
6
CONTINUOUS
10
54.78
20
-30.44
30
0
11
56.28
21
-30.44
31
0
0
LINE
8
0
6
CONTINUOUS
10
56.28
20
-30.44
30
0
11
56.28
21
-28.94
31
0
0
LINE
8
0
6
CONTINUOUS
10
56.28
20
-28.94
30
0
11
57.28
21
-28.94
31
0
0
LINE
8
0
6
CONTINUOUS
10
57.28
20
-28.94
30
0
11
57.28
21
-31.94
31
0
0
LINE
8
0
6
CONTINUOUS
10
57.28
20
-21.44
30
0
11
54.78
21
-18.94
31
0
0
LINE
8
0
6
CONTINUOUS
10
54.78
20
-18.94
30
0
11
54.78
21
-13.94
31
0
0
LINE
8
0
6
CONTINUOUS
10
54.78
20
-13.94
30
0
11
57.28
21
-11.44
31
0
0
LINE
8
0
6
CONTINUOUS
10
54.78
20
-18.94
30
0
11
54.28
21
-18.94
31
0
0
LINE
8
0
6
CONTINUOUS
10
51.78
20
-20.94
30
0
11
51.78
21
-29.94
31
0
0
LINE
8
0
6
CONTINUOUS
10
51.78
20
-29.94
30
0
11
48.78
21
-29.94
31
0
0
LINE
8
0
6
CONTINUOUS
10
48.78
20
-29.94
30
0
11
48.78
21
-31.94
31
0
0
LINE
8
0
6
CONTINUOUS
10
48.78
20
-31.94
30
0
11
51.28
21
-31.94
31
0
0
LINE
8
0
6
CONTINUOUS
10
51.28
20
-31.94
30
0
11
51.28
21
-32.94
31
0
0
LINE
8
0
6
CONTINUOUS
10
51.28
20
-32.94
30
0
11
50.28
21
-32.94
31
0
0
LINE
8
0
6
CONTINUOUS
10
50.28
20
-32.94
30
0
11
50.78
21
-33.94
31
0
0
LINE
8
0
6
CONTINUOUS
10
50.78
20
-33.94
30
0
11
55.78
21
-33.94
31
0
0
LINE
8
0
6
CONTINUOUS
10
55.78
20
-33.94
30
0
11
56.28
21
-32.94
31
0
0
LINE
8
0
6
CONTINUOUS
10
56.28
20
-32.94
30
0
11
55.28
21
-32.94
31
0
0
LINE
8
0
6
CONTINUOUS
10
55.28
20
-32.94
30
0
11
55.28
21
-31.94
31
0
0
LINE
8
0
6
CONTINUOUS
10
55.28
20
-31.94
30
0
11
57.28
21
-31.94
31
0
0
LINE
8
0
6
CONTINUOUS
10
54.78
20
-13.94
30
0
11
51.78
21
-13.94
31
0
0
LINE
8
0
6
CONTINUOUS
10
51.78
20
-13.94
30
0
11
48.78
21
-13.94
31
0
0
LINE
8
0
6
CONTINUOUS
10
48.78
20
-13.94
30
0
11
48.78
21
-10.94
31
0
0
LINE
8
0
6
CONTINUOUS
10
48.78
20
-10.94
30
0
11
52.33
21
-10.94
31
0
0
LINE
8
0
6
CONTINUOUS
10
55.58
20
7.32
30
0
11
56.15
21
8.75
31
0
0
LINE
8
0
6
CONTINUOUS
10
54.86
20
-0.82
30
0
11
55.23
21
5.75
31
0
0
LINE
8
0
6
CONTINUOUS
10
53.73
20
-2.94
30
0
11
54.79
21
-1.04
31
0
0
LINE
8
0
6
CONTINUOUS
10
53.33
20
-9.99
30
0
11
53.73
21
-2.94
31
0
0
LINE
8
0
6
CONTINUOUS
10
54.78
20
-30.23
30
0
11
55.88
21
-23.13
31
0
0
LINE
8
0
6
CONTINUOUS
10
55.88
20
-30.23
30
0
11
54.78
21
-23.13
31
0
0
ARC
8
0
6
CONTINUOUS
10
45.8
20
-44.0
30
0
40
3.0
50
270.0
51
0.0
0
ARC
8
0
6
CONTINUOUS
10
-4.2
20
-44.0
30
0
40
3.0
50
180.0
51
270.0
0
ARC
8
0
6
CONTINUOUS
10
45.8000016787279
20
60.063173698888264
30
0
40
3.0
50
359.9393868047799
51
74.92997105835546
0
ARC
8
0
6
CONTINUOUS
10
-4.20000092732607
20
59.68235880384127
30
0
40
3.0
50
110.08007053907563
51
180.0450498395764
0
ARC
8
0
6
CONTINUOUS
10
45.8
20
45.0
30
0
40
3.0
50
0.0
51
90.0
0
ARC
8
0
6
CONTINUOUS
10
45.8
20
51.0
30
0
40
3.0
50
270.0
51
0.0
0
LINE
8
0
6
CONTINUOUS
10
-4.2
20
-47.0
30
0
11
45.8
21
-47.0
31
0
0
LINE
8
0
6
CONTINUOUS
10
-7.2
20
-44.0
30
0
11
-7.2
21
59.68
31
0
0
LINE
8
0
6
CONTINUOUS
10
-5.23
20
62.5
30
0
11
4.39
21
66.0
31
0
0
LINE
8
0
6
CONTINUOUS
10
4.39
20
66.0
30
0
11
5.8
21
64.59
31
0
0
LINE
8
0
6
CONTINUOUS
10
5.8
20
64.59
30
0
11
5.8
21
48.0
31
0
0
LINE
8
0
6
CONTINUOUS
10
5.8
20
48.0
30
0
11
12.8
21
48.0
31
0
0
LINE
8
0
6
CONTINUOUS
10
12.8
20
48.0
30
0
11
12.8
21
42.5
31
0
0
LINE
8
0
6
CONTINUOUS
10
46.58
20
62.96
30
0
11
35.21
21
66.0
31
0
0
LINE
8
0
6
CONTINUOUS
10
35.21
20
66.0
30
0
11
33.8
21
64.59
31
0
0
LINE
8
0
6
CONTINUOUS
10
33.8
20
64.59
30
0
11
33.8
21
48.0
31
0
0
LINE
8
0
6
CONTINUOUS
10
33.8
20
48.0
30
0
11
45.8
21
48.0
31
0
0
LINE
8
0
6
CONTINUOUS
10
45.8
20
48.0
30
0
11
17.3
21
48.0
31
0
0
LINE
8
0
6
CONTINUOUS
10
17.3
20
48.0
30
0
11
17.3
21
42.5
31
0
0
LINE
8
0
6
CONTINUOUS
10
17.3
20
42.5
30
0
11
12.8
21
42.5
31
0
0
LINE
8
0
6
CONTINUOUS
10
48.8
20
45.0
30
0
11
48.8
21
-44.0
31
0
0
LINE
8
0
6
CONTINUOUS
10
48.8
20
51.0
30
0
11
48.8
21
60.06
31
0
0
ENDSEC
0
EOF