0
SECTION
2
HEADER
0
ENDSEC
0
SECTION
2
TABLES
0
TABLE
2
LTYPE
70
2
0
LTYPE
2
CONTINUOUS
70
0
3
Solid line
72
65
73
0
40
0.0
0
ENDTAB
0
TABLE
2
LAYER
70
1
0
LAYER
2
0
70
0
62
7
6
CONTINUOUS
0
ENDTAB
0
ENDSEC
0
SECTION
2
ENTITIES
0
LINE
8
0
6
CONTINUOUS
10
10.9
20
-10.0
30
0
11
10.9
21
57.0
31
0
0
LINE
8
0
6
CONTINUOUS
10
-48.1
20
-10.0
30
0
11
-48.1
21
57.0
31
0
0
LINE
8
0
6
CONTINUOUS
10
17.9
20
-10.0
30
0
11
17.9
21
57.0
31
0
0
LINE
8
0
6
CONTINUOUS
10
-98.1
20
-10.0
30
0
11
-98.1
21
57.0
31
0
0
LINE
8
0
6
CONTINUOUS
10
-98.1
20
53.0
30
0
11
17.9
21
53.0
31
0
0
LINE
8
0
6
CONTINUOUS
10
-98.1
20
-10.0
30
0
11
17.9
21
-10.0
31
0
0
LINE
8
0
6
CONTINUOUS
10
-31.1
20
-10.0
30
0
11
-31.1
21
57.0
31
0
0
LINE
8
0
6
CONTINUOUS
10
-98.1
20
0.0
30
0
11
17.9
21
0.0
31
0
0
ARC
8
0
6
CONTINUOUS
10
-95.1000056779316
20
29.744163257973348
30
0
40
3.0
50
97.2769045555332
51
179.88852636826212
0
LINE
8
0
6
CONTINUOUS
10
-98.1
20
29.75
30
0
11
-98.1
21
-7.0
31
0
0
ARC
8
0
6
CONTINUOUS
10
-95.1
20
-7.0
30
0
40
3.0
50
180.0
51
270.0
0
LINE
8
0
6
CONTINUOUS
10
-95.1
20
-10.0
30
0
11
-90.1
21
-10.0
31
0
0
LINE
8
0
6
CONTINUOUS
10
-90.1
20
-10.0
30
0
11
-84.1
21
0.0
31
0
0
LINE
8
0
6
CONTINUOUS
10
-84.1
20
0.0
30
0
11
-48.1
21
0.0
31
0
0
LINE
8
0
6
CONTINUOUS
10
-48.1
20
0.0
30
0
11
-48.1
21
-10.0
31
0
0
LINE
8
0
6
CONTINUOUS
10
-48.1
20
-10.0
30
0
11
14.9
21
-10.0
31
0
0
ARC
8
0
6
CONTINUOUS
10
14.899999999999999
20
-7.0
30
0
40
3.0
50
270.0
51
0.0
0
LINE
8
0
6
CONTINUOUS
10
17.9
20
-7.0
30
0
11
17.9
21
54.0
31
0
0
ARC
8
0
6
CONTINUOUS
10
14.899999999999999
20
54.0
30
0
40
3.0
50
0.0
51
89.99999999999997
0
LINE
8
0
6
CONTINUOUS
10
14.9
20
57.0
30
0
11
10.9
21
57.0
31
0
0
LINE
8
0
6
CONTINUOUS
10
10.9
20
57.0
30
0
11
10.9
21
53.0
31
0
0
LINE
8
0
6
CONTINUOUS
10
10.9
20
53.0
30
0
11
-31.1
21
53.0
31
0
0
LINE
8
0
6
CONTINUOUS
10
-31.1
20
53.0
30
0
11
-31.1
21
43.0
31
0
0
LINE
8
0
6
CONTINUOUS
10
-31.1
20
43.0
30
0
11
-95.48
21
32.72
31
0
0
LINE
8
0
6
CONTINUOUS
10
-68.1
20
37.09
30
0
11
-31.1
21
43.0
31
0
0
ARC
8
0
6
CONTINUOUS
10
14.899999999999999
20
54.0
30
0
40
3.0
50
0.0
51
89.99999999999997
0
ARC
8
0
6
CONTINUOUS
10
-95.1
20
-7.0
30
0
40
3.0
50
180.0
51
270.0
0
ARC
8
0
6
CONTINUOUS
10
14.899999999999999
20
-7.0
30
0
40
3.0
50
270.0
51
0.0
0
ARC
8
0
6
CONTINUOUS
10
-95.1000056779316
20
29.744163257973348
30
0
40
3.0
50
97.2769045555332
51
179.88852636826212
0
LINE
8
0
6
CONTINUOUS
10
14.9
20
57.0
30
0
11
10.9
21
57.0
31
0
0
LINE
8
0
6
CONTINUOUS
10
10.9
20
57.0
30
0
11
10.9
21
53.0
31
0
0
LINE
8
0
6
CONTINUOUS
10
10.9
20
53.0
30
0
11
-31.1
21
53.0
31
0
0
LINE
8
0
6
CONTINUOUS
10
-31.1
20
53.0
30
0
11
-31.1
21
43.0
31
0
0
LINE
8
0
6
CONTINUOUS
10
-31.1
20
43.0
30
0
11
-95.48
21
32.72
31
0
0
LINE
8
0
6
CONTINUOUS
10
17.9
20
-7.0
30
0
11
17.9
21
54.0
31
0
0
LINE
8
0
6
CONTINUOUS
10
-95.1
20
-10.0
30
0
11
-90.1
21
-10.0
31
0
0
LINE
8
0
6
CONTINUOUS
10
-90.1
20
-10.0
30
0
11
-84.1
21
0.0
31
0
0
LINE
8
0
6
CONTINUOUS
10
-84.1
20
0.0
30
0
11
-48.1
21
0.0
31
0
0
LINE
8
0
6
CONTINUOUS
10
-48.1
20
0.0
30
0
11
-48.1
21
-10.0
31
0
0
LINE
8
0
6
CONTINUOUS
10
-48.1
20
-10.0
30
0
11
14.9
21
-10.0
31
0
0
LINE
8
0
6
CONTINUOUS
10
-98.1
20
29.75
30
0
11
-98.1
21
-7.0
31
0
0
ENDSEC
0
EOF