0
SECTION
2
HEADER
0
ENDSEC
0
SECTION
2
TABLES
0
TABLE
2
LTYPE
70
2
0
LTYPE
2
CONTINUOUS
70
0
3
Solid line
72
65
73
0
40
0.0
0
ENDTAB
0
TABLE
2
LAYER
70
1
0
LAYER
2
0
70
0
62
7
6
CONTINUOUS
0
ENDTAB
0
ENDSEC
0
SECTION
2
ENTITIES
0
LINE
8
0
6
CONTINUOUS
10
19.9
20
-10.0
30
0
11
19.9
21
47.0
31
0
0
LINE
8
0
6
CONTINUOUS
10
-50.1
20
40.0
30
0
11
39.9
21
40.0
31
0
0
LINE
8
0
6
CONTINUOUS
10
-2.1
20
-10.0
30
0
11
-2.1
21
47.0
31
0
0
LINE
8
0
6
CONTINUOUS
10
39.9
20
-10.0
30
0
11
39.9
21
47.0
31
0
0
LINE
8
0
6
CONTINUOUS
10
-50.1
20
-10.0
30
0
11
-50.1
21
47.0
31
0
0
LINE
8
0
6
CONTINUOUS
10
-50.1
20
47.0
30
0
11
39.9
21
47.0
31
0
0
LINE
8
0
6
CONTINUOUS
10
-50.1
20
-10.0
30
0
11
39.9
21
-10.0
31
0
0
LINE
8
0
6
CONTINUOUS
10
0.0
20
-10.0
30
0
11
0.0
21
47.0
31
0
0
LINE
8
0
6
CONTINUOUS
10
-50.1
20
0.0
30
0
11
39.9
21
0.0
31
0
0
LINE
8
0
6
CONTINUOUS
10
-2.1
20
29.0
30
0
11
-47.88
21
16.73
31
0
0
ARC
8
0
6
CONTINUOUS
10
-47.10000777014041
20
13.833172058723774
30
0
40
3.0
50
105.0699084607829
51
179.86959581478538
0
LINE
8
0
6
CONTINUOUS
10
-50.1
20
13.84
30
0
11
-50.1
21
-7.0
31
0
0
ARC
8
0
6
CONTINUOUS
10
-47.1
20
-7.0
30
0
40
3.0
50
180.0
51
270.0
0
LINE
8
0
6
CONTINUOUS
10
-47.1
20
-10.0
30
0
11
-40.1
21
-10.0
31
0
0
LINE
8
0
6
CONTINUOUS
10
-40.1
20
-10.0
30
0
11
-34.33
21
-0.0
31
0
0
LINE
8
0
6
CONTINUOUS
10
-34.33
20
-0.0
30
0
11
-0.0
21
-0.0
31
0
0
LINE
8
0
6
CONTINUOUS
10
-0.0
20
-0.0
30
0
11
-0.0
21
-8.0
31
0
0
ARC
8
0
6
CONTINUOUS
10
2.0
20
-8.0
30
0
40
2.0
50
180.0
51
270.0
0
LINE
8
0
6
CONTINUOUS
10
2.0
20
-10.0
30
0
11
36.8
21
-10.0
31
0
0
ARC
8
0
6
CONTINUOUS
10
36.900000463228956
20
-7.001667145336596
30
0
40
3.0
50
268.0897779763495
51
0.0318401321794381
0
LINE
8
0
6
CONTINUOUS
10
39.9
20
-7.0
30
0
11
39.9
21
38.0
31
0
0
ARC
8
0
6
CONTINUOUS
10
37.9
20
38.0
30
0
40
2.0
50
0.0
51
90.0
0
LINE
8
0
6
CONTINUOUS
10
37.9
20
40.0
30
0
11
19.9
21
40.0
31
0
0
LINE
8
0
6
CONTINUOUS
10
19.9
20
40.0
30
0
11
19.9
21
45.5
31
0
0
ARC
8
0
6
CONTINUOUS
10
18.4
20
45.5
30
0
40
1.5
50
0.0
51
90.0
0
LINE
8
0
6
CONTINUOUS
10
18.4
20
47.0
30
0
11
11.9
21
47.0
31
0
0
LINE
8
0
6
CONTINUOUS
10
11.9
20
47.0
30
0
11
7.9
21
47.0
31
0
0
LINE
8
0
6
CONTINUOUS
10
7.9
20
47.0
30
0
11
-0.6
21
47.0
31
0
0
ARC
8
0
6
CONTINUOUS
10
-0.6
20
45.5
30
0
40
1.5
50
90.0
51
180.0
0
LINE
8
0
6
CONTINUOUS
10
-2.1
20
45.5
30
0
11
-2.1
21
29.0
31
0
0
ARC
8
0
6
CONTINUOUS
10
2.0
20
-8.0
30
0
40
2.0
50
180.0
51
270.0
0
ARC
8
0
6
CONTINUOUS
10
-47.1
20
-7.0
30
0
40
3.0
50
180.0
51
270.0
0
ARC
8
0
6
CONTINUOUS
10
37.9
20
38.0
30
0
40
2.0
50
0.0
51
90.0
0
ARC
8
0
6
CONTINUOUS
10
-0.6
20
45.5
30
0
40
1.5
50
90.0
51
180.0
0
ARC
8
0
6
CONTINUOUS
10
18.4
20
45.5
30
0
40
1.5
50
0.0
51
90.0
0
ARC
8
0
6
CONTINUOUS
10
-47.10000777014041
20
13.833172058723774
30
0
40
3.0
50
105.0699084607829
51
179.86959581478538
0
ARC
8
0
6
CONTINUOUS
10
36.900000463228956
20
-7.001667145336596
30
0
40
3.0
50
268.0897779763495
51
0.0318401321794381
0
LINE
8
0
6
CONTINUOUS
10
-47.1
20
-10.0
30
0
11
-40.1
21
-10.0
31
0
0
LINE
8
0
6
CONTINUOUS
10
-40.1
20
-10.0
30
0
11
-34.33
21
-0.0
31
0
0
LINE
8
0
6
CONTINUOUS
10
-34.33
20
-0.0
30
0
11
-0.0
21
-0.0
31
0
0
LINE
8
0
6
CONTINUOUS
10
-0.0
20
-0.0
30
0
11
-0.0
21
-8.0
31
0
0
LINE
8
0
6
CONTINUOUS
10
19.9
20
45.5
30
0
11
19.9
21
40.0
31
0
0
LINE
8
0
6
CONTINUOUS
10
19.9
20
40.0
30
0
11
37.9
21
40.0
31
0
0
LINE
8
0
6
CONTINUOUS
10
-47.88
20
16.73
30
0
11
-2.1
21
29.0
31
0
0
LINE
8
0
6
CONTINUOUS
10
-2.1
20
29.0
30
0
11
-2.1
21
45.5
31
0
0
LINE
8
0
6
CONTINUOUS
10
-0.6
20
47.0
30
0
11
7.9
21
47.0
31
0
0
LINE
8
0
6
CONTINUOUS
10
7.9
20
47.0
30
0
11
11.9
21
47.0
31
0
0
LINE
8
0
6
CONTINUOUS
10
11.9
20
47.0
30
0
11
18.4
21
47.0
31
0
0
LINE
8
0
6
CONTINUOUS
10
-50.1
20
-7.0
30
0
11
-50.1
21
13.84
31
0
0
LINE
8
0
6
CONTINUOUS
10
39.9
20
38.0
30
0
11
39.9
21
-7.0
31
0
0
LINE
8
0
6
CONTINUOUS
10
36.8
20
-10.0
30
0
11
2.0
21
-10.0
31
0
0
ENDSEC
0
EOF