0
SECTION
2
HEADER
0
ENDSEC
0
SECTION
2
TABLES
0
TABLE
2
LTYPE
70
2
0
LTYPE
2
CONTINUOUS
70
0
3
Solid line
72
65
73
0
40
0.0
0
ENDTAB
0
TABLE
2
LAYER
70
1
0
LAYER
2
0
70
0
62
7
6
CONTINUOUS
0
ENDTAB
0
ENDSEC
0
SECTION
2
ENTITIES
0
LINE
8
0
6
CONTINUOUS
10
-67.76
20
56.52
30
0
11
9.95
21
61.95
31
0
0
LINE
8
0
6
CONTINUOUS
10
9.95
20
72.57
30
0
11
-18.0
21
77.0
31
0
0
LINE
8
0
6
CONTINUOUS
10
-32.0
20
-15.0
30
0
11
-32.0
21
77.0
31
0
0
LINE
8
0
6
CONTINUOUS
10
-18.0
20
77.0
30
0
11
-18.0
21
-15.0
31
0
0
LINE
8
0
6
CONTINUOUS
10
9.95
20
60.0
30
0
11
-67.76
21
60.0
31
0
0
LINE
8
0
6
CONTINUOUS
10
9.95
20
77.0
30
0
11
-67.76
21
77.0
31
0
0
LINE
8
0
6
CONTINUOUS
10
9.95
20
-13.0
30
0
11
-67.76
21
-13.0
31
0
0
LINE
8
0
6
CONTINUOUS
10
-59.0
20
-15.0
30
0
11
-59.0
21
77.0
31
0
0
LINE
8
0
6
CONTINUOUS
10
-5.0
20
-15.0
30
0
11
-5.0
21
77.0
31
0
0
LINE
8
0
6
CONTINUOUS
10
-18.0
20
60.0
30
0
11
-56.21
21
57.33
31
0
0
ARC
8
0
6
CONTINUOUS
10
-56.00000116252943
20
54.337358944300036
30
0
40
3.0
50
94.01396496078274
51
179.9495595451289
0
LINE
8
0
6
CONTINUOUS
10
-59.0
20
54.34
30
0
11
-59.0
21
-10.0
31
0
0
ARC
8
0
6
CONTINUOUS
10
-56.0
20
-10.0
30
0
40
3.0
50
180.0
51
270.0
0
LINE
8
0
6
CONTINUOUS
10
-56.0
20
-13.0
30
0
11
-47.0
21
-13.0
31
0
0
LINE
8
0
6
CONTINUOUS
10
-47.0
20
-13.0
30
0
11
-46.0
21
-8.0
31
0
0
LINE
8
0
6
CONTINUOUS
10
-46.0
20
-8.0
30
0
11
-36.0
21
-8.0
31
0
0
LINE
8
0
6
CONTINUOUS
10
-36.0
20
-8.0
30
0
11
-35.0
21
-13.0
31
0
0
LINE
8
0
6
CONTINUOUS
10
-35.0
20
-13.0
30
0
11
-8.0
21
-13.0
31
0
0
ARC
8
0
6
CONTINUOUS
10
-8.0
20
-10.0
30
0
40
3.0
50
270.0
51
0.0
0
LINE
8
0
6
CONTINUOUS
10
-5.0
20
-10.0
30
0
11
-5.0
21
72.38
31
0
0
ARC
8
0
6
CONTINUOUS
10
-7.999998544822406
20
72.37704516270247
30
0
40
3.0
50
0.056433244556453994
51
80.98655787702293
0
LINE
8
0
6
CONTINUOUS
10
-7.53
20
75.34
30
0
11
-18.0
21
77.0
31
0
0
LINE
8
0
6
CONTINUOUS
10
-18.0
20
77.0
30
0
11
-18.0
21
60.0
31
0
0
LINE
8
0
6
CONTINUOUS
10
-60.77
20
57.01
30
0
11
-49.0
21
57.83
31
0
0
LINE
8
0
6
CONTINUOUS
10
-49.0
20
57.83
30
0
11
-49.0
21
77.0
31
0
0
LINE
8
0
6
CONTINUOUS
10
-49.0
20
77.0
30
0
11
-64.05
21
74.62
31
0
0
ARC
8
0
6
CONTINUOUS
10
-63.58694732784679
20
71.6559517171929
30
0
40
3.0
50
98.87915199397557
51
176.0999538500231
0
LINE
8
0
6
CONTINUOUS
10
-66.58
20
71.86
30
0
11
-67.76
21
54.93
31
0
0
ARC
8
0
6
CONTINUOUS
10
-64.76716117228159
20
54.722838827718405
30
0
40
3.0
50
176.04036192026447
51
273.9596380797354
0
LINE
8
0
6
CONTINUOUS
10
-64.56
20
51.73
30
0
11
-62.14
21
51.9
31
0
0
LINE
8
0
6
CONTINUOUS
10
-62.14
20
51.9
30
0
11
-60.77
21
57.01
31
0
0
LINE
8
0
6
CONTINUOUS
10
-5.0
20
0.0
30
0
11
0.0
21
0.0
31
0
0
LINE
8
0
6
CONTINUOUS
10
-5.0
20
-15.0
30
0
11
-5.0
21
0.0
31
0
0
LINE
8
0
6
CONTINUOUS
10
0.0
20
-15.0
30
0
11
-5.0
21
-15.0
31
0
0
LINE
8
0
6
CONTINUOUS
10
0.0
20
0.0
30
0
11
0.0
21
-15.0
31
0
0
LINE
8
0
6
CONTINUOUS
10
0.0
20
0.0
30
0
11
-5.0
21
-15.0
31
0
0
LINE
8
0
6
CONTINUOUS
10
-5.0
20
0.0
30
0
11
0.0
21
-15.0
31
0
0
ENDSEC
0
EOF