0
SECTION
2
HEADER
0
ENDSEC
0
SECTION
2
TABLES
0
TABLE
2
LTYPE
70
2
0
LTYPE
2
CONTINUOUS
70
0
3
Solid line
72
65
73
0
40
0.0
0
ENDTAB
0
TABLE
2
LAYER
70
1
0
LAYER
2
0
70
0
62
7
6
CONTINUOUS
0
ENDTAB
0
ENDSEC
0
SECTION
2
ENTITIES
0
LINE
8
0
6
CONTINUOUS
10
-10.22
20
52.82
30
0
11
114.0
21
72.49
31
0
0
LINE
8
0
6
CONTINUOUS
10
73.0
20
90.0
30
0
11
73.0
21
-3.81
31
0
0
LINE
8
0
6
CONTINUOUS
10
63.0
20
-3.81
30
0
11
63.0
21
90.0
31
0
0
LINE
8
0
6
CONTINUOUS
10
-10.22
20
25.0
30
0
11
114.0
21
25.0
31
0
0
LINE
8
0
6
CONTINUOUS
10
114.0
20
90.0
30
0
11
-10.22
21
90.0
31
0
0
LINE
8
0
6
CONTINUOUS
10
57.0
20
-3.81
30
0
11
57.0
21
90.0
31
0
0
LINE
8
0
6
CONTINUOUS
10
114.0
20
66.0
30
0
11
-10.22
21
66.0
31
0
0
LINE
8
0
6
CONTINUOUS
10
114.0
20
-3.81
30
0
11
114.0
21
90.0
31
0
0
LINE
8
0
6
CONTINUOUS
10
0.0
20
-3.81
30
0
11
0.0
21
90.0
31
0
0
LINE
8
0
6
CONTINUOUS
10
-10.22
20
0.0
30
0
11
114.0
21
0.0
31
0
0
LINE
8
0
6
CONTINUOUS
10
0.0
20
51.88
30
0
11
0.0
21
3.0
31
0
0
ARC
8
0
6
CONTINUOUS
10
3.0
20
3.0
30
0
40
3.0
50
180.0
51
270.0
0
LINE
8
0
6
CONTINUOUS
10
3.0
20
0.0
30
0
11
63.0
21
0.0
31
0
0
LINE
8
0
6
CONTINUOUS
10
63.0
20
0.0
30
0
11
63.0
21
25.0
31
0
0
LINE
8
0
6
CONTINUOUS
10
63.0
20
25.0
30
0
11
111.0
21
25.0
31
0
0
ARC
8
0
6
CONTINUOUS
10
111.0
20
28.0
30
0
40
3.0
50
270.0
51
0.0
0
LINE
8
0
6
CONTINUOUS
10
114.0
20
28.0
30
0
11
114.0
21
87.0
31
0
0
ARC
8
0
6
CONTINUOUS
10
111.0
20
87.0
30
0
40
3.0
50
0.0
51
90.0
0
LINE
8
0
6
CONTINUOUS
10
111.0
20
90.0
30
0
11
73.0
21
90.0
31
0
0
LINE
8
0
6
CONTINUOUS
10
73.0
20
90.0
30
0
11
73.0
21
66.0
31
0
0
LINE
8
0
6
CONTINUOUS
10
73.0
20
66.0
30
0
11
2.53
21
54.84
31
0
0
ARC
8
0
6
CONTINUOUS
10
2.9999985448224047
20
51.87704516270247
30
0
40
3.0
50
99.01344212297707
51
179.9435667554434
0
ENDSEC
0
EOF