0
SECTION
2
HEADER
0
ENDSEC
0
SECTION
2
TABLES
0
TABLE
2
LTYPE
70
2
0
LTYPE
2
CONTINUOUS
70
0
3
Solid line
72
65
73
0
40
0.0
0
ENDTAB
0
TABLE
2
LAYER
70
1
0
LAYER
2
0
70
0
62
7
6
CONTINUOUS
0
ENDTAB
0
ENDSEC
0
SECTION
2
ENTITIES
0
LINE
8
0
6
CONTINUOUS
10
0.0
20
5.0
30
0
11
-26.0
21
5.0
31
0
0
LINE
8
0
6
CONTINUOUS
10
-26.0
20
20.0
30
0
11
-26.0
21
-0.0
31
0
0
LINE
8
0
6
CONTINUOUS
10
-26.0
20
20.0
30
0
11
0.0
21
20.0
31
0
0
LINE
8
0
6
CONTINUOUS
10
0.0
20
-0.0
30
0
11
0.0
21
20.0
31
0
0
LINE
8
0
6
CONTINUOUS
10
-26.0
20
0.0
30
0
11
0.0
21
0.0
31
0
0
LINE
8
0
6
CONTINUOUS
10
-26.0
20
5.0
30
0
11
-2.38
21
5.0
31
0
0
LINE
8
0
6
CONTINUOUS
10
-2.38
20
5.0
30
0
11
-0.0
21
20.0
31
0
0
LINE
8
0
6
CONTINUOUS
10
-0.0
20
20.0
30
0
11
-24.23
21
16.16
31
0
0
LINE
8
0
6
CONTINUOUS
10
-24.23
20
16.16
30
0
11
-26.0
21
5.0
31
0
0
LINE
8
0
6
CONTINUOUS
10
-14.8
20
-0.0
30
0
11
-12.87
21
5.0
31
0
0
LINE
8
0
6
CONTINUOUS
10
-12.87
20
5.0
30
0
11
-23.64
21
5.0
31
0
0
LINE
8
0
6
CONTINUOUS
10
-23.64
20
5.0
30
0
11
-19.3
21
-0.0
31
0
0
LINE
8
0
6
CONTINUOUS
10
-19.3
20
-0.0
30
0
11
-14.8
21
-0.0
31
0
0
LINE
8
0
6
CONTINUOUS
10
-8.98
20
-0.0
30
0
11
-3.17
21
-0.0
31
0
0
LINE
8
0
6
CONTINUOUS
10
-3.17
20
-0.0
30
0
11
-2.38
21
5.0
31
0
0
LINE
8
0
6
CONTINUOUS
10
-2.38
20
5.0
30
0
11
-9.46
21
5.0
31
0
0
LINE
8
0
6
CONTINUOUS
10
-9.46
20
5.0
30
0
11
-8.98
21
-0.0
31
0
0
LINE
8
0
6
CONTINUOUS
10
-26.0
20
5.0
30
0
11
-23.64
21
5.0
31
0
0
LINE
8
0
6
CONTINUOUS
10
-12.87
20
5.0
30
0
11
-9.78
21
5.0
31
0
0
ENDSEC
0
EOF