0
SECTION
2
HEADER
0
ENDSEC
0
SECTION
2
TABLES
0
TABLE
2
LTYPE
70
2
0
LTYPE
2
CONTINUOUS
70
0
3
Solid line
72
65
73
0
40
0.0
0
ENDTAB
0
TABLE
2
LAYER
70
1
0
LAYER
2
0
70
0
62
7
6
CONTINUOUS
0
ENDTAB
0
ENDSEC
0
SECTION
2
ENTITIES
0
LINE
8
0
6
CONTINUOUS
10
58.0
20
-10.22
30
0
11
58.0
21
114.0
31
0
0
LINE
8
0
6
CONTINUOUS
10
53.0
20
-10.22
30
0
11
53.0
21
114.0
31
0
0
LINE
8
0
6
CONTINUOUS
10
67.0
20
89.0
30
0
11
-2.04
21
89.0
31
0
0
LINE
8
0
6
CONTINUOUS
10
67.0
20
82.0
30
0
11
-2.04
21
82.0
31
0
0
LINE
8
0
6
CONTINUOUS
10
67.0
20
80.0
30
0
11
-2.04
21
80.0
31
0
0
LINE
8
0
6
CONTINUOUS
10
67.0
20
74.0
30
0
11
-2.04
21
74.0
31
0
0
LINE
8
0
6
CONTINUOUS
10
46.0
20
-10.22
30
0
11
46.0
21
114.0
31
0
0
LINE
8
0
6
CONTINUOUS
10
67.0
20
84.0
30
0
11
-2.04
21
84.0
31
0
0
LINE
8
0
6
CONTINUOUS
10
67.0
20
30.0
30
0
11
-2.04
21
30.0
31
0
0
LINE
8
0
6
CONTINUOUS
10
9.0
20
-10.22
30
0
11
9.0
21
114.0
31
0
0
LINE
8
0
6
CONTINUOUS
10
67.0
20
57.0
30
0
11
-2.04
21
57.0
31
0
0
LINE
8
0
6
CONTINUOUS
10
67.0
20
-10.22
30
0
11
67.0
21
114.0
31
0
0
LINE
8
0
6
CONTINUOUS
10
0.0
20
-10.22
30
0
11
0.0
21
114.0
31
0
0
LINE
8
0
6
CONTINUOUS
10
-2.04
20
0.0
30
0
11
67.0
21
0.0
31
0
0
LINE
8
0
6
CONTINUOUS
10
43.0
20
114.0
30
0
11
0.0
21
114.0
31
0
0
LINE
8
0
6
CONTINUOUS
10
0.0
20
114.0
30
0
11
0.0
21
84.0
31
0
0
LINE
8
0
6
CONTINUOUS
10
0.0
20
84.0
30
0
11
9.0
21
84.0
31
0
0
LINE
8
0
6
CONTINUOUS
10
9.0
20
84.0
30
0
11
9.0
21
30.0
31
0
0
LINE
8
0
6
CONTINUOUS
10
9.0
20
30.0
30
0
11
0.0
21
30.0
31
0
0
LINE
8
0
6
CONTINUOUS
10
0.0
20
30.0
30
0
11
0.0
21
0.0
31
0
0
LINE
8
0
6
CONTINUOUS
10
0.0
20
0.0
30
0
11
64.0
21
0.0
31
0
0
ARC
8
0
6
CONTINUOUS
10
64.0
20
3.0
30
0
40
3.0
50
270.0
51
0.0
0
LINE
8
0
6
CONTINUOUS
10
67.0
20
3.0
30
0
11
67.0
21
74.0
31
0
0
LINE
8
0
6
CONTINUOUS
10
67.0
20
74.0
30
0
11
53.0
21
74.0
31
0
0
LINE
8
0
6
CONTINUOUS
10
53.0
20
74.0
30
0
11
53.0
21
80.0
31
0
0
LINE
8
0
6
CONTINUOUS
10
53.0
20
80.0
30
0
11
58.0
21
82.0
31
0
0
LINE
8
0
6
CONTINUOUS
10
58.0
20
82.0
30
0
11
58.0
21
89.0
31
0
0
LINE
8
0
6
CONTINUOUS
10
58.0
20
89.0
30
0
11
46.0
21
89.0
31
0
0
LINE
8
0
6
CONTINUOUS
10
46.0
20
89.0
30
0
11
46.0
21
111.0
31
0
0
ARC
8
0
6
CONTINUOUS
10
43.0
20
111.0
30
0
40
3.0
50
0.0
51
90.0
0
ENDSEC
0
EOF