0
SECTION
2
HEADER
0
ENDSEC
0
SECTION
2
TABLES
0
TABLE
2
LTYPE
70
2
0
LTYPE
2
CONTINUOUS
70
0
3
Solid line
72
65
73
0
40
0.0
0
ENDTAB
0
TABLE
2
LAYER
70
1
0
LAYER
2
0
70
0
62
7
6
CONTINUOUS
0
ENDTAB
0
ENDSEC
0
SECTION
2
ENTITIES
0
LINE
8
0
6
CONTINUOUS
10
-10.22
20
30.77
30
0
11
114.0
21
50.44
31
0
0
LINE
8
0
6
CONTINUOUS
10
67.0
20
88.16
30
0
11
67.0
21
-36.0
31
0
0
LINE
8
0
6
CONTINUOUS
10
60.0
20
88.16
30
0
11
60.0
21
-36.0
31
0
0
LINE
8
0
6
CONTINUOUS
10
15.0
20
88.16
30
0
11
15.0
21
-36.0
31
0
0
LINE
8
0
6
CONTINUOUS
10
104.0
20
-36.0
30
0
11
104.0
21
88.16
31
0
0
LINE
8
0
6
CONTINUOUS
10
-10.22
20
25.0
30
0
11
114.0
21
25.0
31
0
0
LINE
8
0
6
CONTINUOUS
10
114.0
20
67.0
30
0
11
-10.22
21
67.0
31
0
0
LINE
8
0
6
CONTINUOUS
10
57.0
20
-36.0
30
0
11
57.0
21
88.16
31
0
0
LINE
8
0
6
CONTINUOUS
10
114.0
20
14.0
30
0
11
-10.22
21
14.0
31
0
0
LINE
8
0
6
CONTINUOUS
10
114.0
20
43.0
30
0
11
-10.22
21
43.0
31
0
0
LINE
8
0
6
CONTINUOUS
10
114.0
20
-36.0
30
0
11
114.0
21
88.16
31
0
0
LINE
8
0
6
CONTINUOUS
10
0.0
20
-36.0
30
0
11
0.0
21
88.16
31
0
0
LINE
8
0
6
CONTINUOUS
10
-10.22
20
0.0
30
0
11
114.0
21
0.0
31
0
0
LINE
8
0
6
CONTINUOUS
10
0.0
20
29.83
30
0
11
0.0
21
3.0
31
0
0
ARC
8
0
6
CONTINUOUS
10
3.0
20
3.0
30
0
40
3.0
50
180.0
51
270.0
0
LINE
8
0
6
CONTINUOUS
10
3.0
20
0.0
30
0
11
15.0
21
-0.0
31
0
0
LINE
8
0
6
CONTINUOUS
10
15.0
20
-0.0
30
0
11
24.8
21
14.0
31
0
0
LINE
8
0
6
CONTINUOUS
10
24.8
20
14.0
30
0
11
60.0
21
14.0
31
0
0
LINE
8
0
6
CONTINUOUS
10
60.0
20
14.0
30
0
11
60.0
21
0.0
31
0
0
LINE
8
0
6
CONTINUOUS
10
60.0
20
0.0
30
0
11
104.0
21
0.0
31
0
0
LINE
8
0
6
CONTINUOUS
10
104.0
20
0.0
30
0
11
104.0
21
25.0
31
0
0
LINE
8
0
6
CONTINUOUS
10
104.0
20
25.0
30
0
11
114.0
21
25.0
31
0
0
LINE
8
0
6
CONTINUOUS
10
114.0
20
25.0
30
0
11
114.0
21
64.0
31
0
0
ARC
8
0
6
CONTINUOUS
10
111.0
20
64.0
30
0
40
3.0
50
0.0
51
90.0
0
LINE
8
0
6
CONTINUOUS
10
111.0
20
67.0
30
0
11
67.0
21
67.0
31
0
0
LINE
8
0
6
CONTINUOUS
10
67.0
20
67.0
30
0
11
67.0
21
43.0
31
0
0
LINE
8
0
6
CONTINUOUS
10
67.0
20
43.0
30
0
11
2.53
21
32.79
31
0
0
ARC
8
0
6
CONTINUOUS
10
2.9999985448224047
20
29.827045162702472
30
0
40
3.0
50
99.01344212297708
51
179.94356675544347
0
LINE
8
0
6
CONTINUOUS
10
60.0
20
-36.0
30
0
11
60.0
21
14.0
31
0
0
LINE
8
0
6
CONTINUOUS
10
60.0
20
14.0
30
0
11
30.0
21
14.0
31
0
0
LINE
8
0
6
CONTINUOUS
10
30.0
20
14.0
30
0
11
30.0
21
-36.0
31
0
0
LINE
8
0
6
CONTINUOUS
10
30.0
20
-36.0
30
0
11
60.0
21
-36.0
31
0
0
LINE
8
0
6
CONTINUOUS
10
94.0
20
67.0
30
0
11
112.04
21
67.0
31
0
0
ARC
8
0
6
CONTINUOUS
10
112.04
20
68.96
30
0
40
1.96
50
270.0
51
0.0
0
LINE
8
0
6
CONTINUOUS
10
114.0
20
68.96
30
0
11
114.0
21
82.02
31
0
0
ARC
8
0
6
CONTINUOUS
10
112.04
20
82.02000000000001
30
0
40
1.96
50
359.9999999999996
51
90.0
0
LINE
8
0
6
CONTINUOUS
10
112.04
20
83.98
30
0
11
94.0
21
83.98
31
0
0
LINE
8
0
6
CONTINUOUS
10
94.0
20
83.98
30
0
11
94.0
21
67.0
31
0
0
LINE
8
0
6
CONTINUOUS
10
53.0
20
88.16
30
0
11
51.5
21
88.16
31
0
0
LINE
8
0
6
CONTINUOUS
10
51.5
20
88.16
30
0
11
51.5
21
62.16
31
0
0
LINE
8
0
6
CONTINUOUS
10
51.5
20
62.16
30
0
11
53.0
21
62.16
31
0
0
LINE
8
0
6
CONTINUOUS
10
53.0
20
62.16
30
0
11
53.0
21
64.16
31
0
0
LINE
8
0
6
CONTINUOUS
10
53.0
20
64.16
30
0
11
58.0
21
64.16
31
0
0
LINE
8
0
6
CONTINUOUS
10
58.0
20
64.16
30
0
11
58.0
21
62.16
31
0
0
LINE
8
0
6
CONTINUOUS
10
58.0
20
62.16
30
0
11
67.0
21
62.16
31
0
0
LINE
8
0
6
CONTINUOUS
10
67.0
20
62.16
30
0
11
67.0
21
63.66
31
0
0
LINE
8
0
6
CONTINUOUS
10
67.0
20
63.66
30
0
11
59.5
21
63.66
31
0
0
LINE
8
0
6
CONTINUOUS
10
59.5
20
63.66
30
0
11
59.5
21
68.66
31
0
0
LINE
8
0
6
CONTINUOUS
10
59.5
20
68.66
30
0
11
62.5
21
68.66
31
0
0
LINE
8
0
6
CONTINUOUS
10
62.5
20
68.66
30
0
11
62.5
21
67.71
31
0
0
LINE
8
0
6
CONTINUOUS
10
62.5
20
67.71
30
0
11
64.0
21
67.71
31
0
0
LINE
8
0
6
CONTINUOUS
10
64.0
20
67.71
30
0
11
64.0
21
68.66
31
0
0
LINE
8
0
6
CONTINUOUS
10
64.0
20
68.66
30
0
11
79.0
21
68.66
31
0
0
LINE
8
0
6
CONTINUOUS
10
79.0
20
68.66
30
0
11
79.0
21
70.16
31
0
0
LINE
8
0
6
CONTINUOUS
10
79.0
20
70.16
30
0
11
57.0
21
70.16
31
0
0
LINE
8
0
6
CONTINUOUS
10
57.0
20
70.16
30
0
11
57.0
21
68.66
31
0
0
LINE
8
0
6
CONTINUOUS
10
57.0
20
68.66
30
0
11
58.0
21
68.66
31
0
0
LINE
8
0
6
CONTINUOUS
10
58.0
20
68.66
30
0
11
58.0
21
65.66
31
0
0
LINE
8
0
6
CONTINUOUS
10
58.0
20
65.66
30
0
11
53.0
21
65.66
31
0
0
LINE
8
0
6
CONTINUOUS
10
53.0
20
65.66
30
0
11
53.0
21
88.16
31
0
0
ENDSEC
0
EOF