0
SECTION
2
HEADER
0
ENDSEC
0
SECTION
2
TABLES
0
TABLE
2
LTYPE
70
2
0
LTYPE
2
CONTINUOUS
70
0
3
Solid line
72
65
73
0
40
0.0
0
ENDTAB
0
TABLE
2
LAYER
70
1
0
LAYER
2
0
70
0
62
7
6
CONTINUOUS
0
ENDTAB
0
ENDSEC
0
SECTION
2
ENTITIES
0
LINE
8
0
6
CONTINUOUS
10
-40.0
20
-76.4
30
0
11
-27.0
21
-78.46
31
0
0
LINE
8
0
6
CONTINUOUS
10
-13.0
20
-78.46
30
0
11
-13.0
21
11.54
31
0
0
LINE
8
0
6
CONTINUOUS
10
-27.0
20
11.54
30
0
11
-27.0
21
-78.46
31
0
0
LINE
8
0
6
CONTINUOUS
10
14.0
20
-61.46
30
0
11
-40.0
21
-61.46
31
0
0
LINE
8
0
6
CONTINUOUS
10
14.0
20
-78.46
30
0
11
-40.0
21
-78.46
31
0
0
LINE
8
0
6
CONTINUOUS
10
14.0
20
11.54
30
0
11
-40.0
21
11.54
31
0
0
LINE
8
0
6
CONTINUOUS
10
-40.0
20
-78.46
30
0
11
-40.0
21
11.54
31
0
0
LINE
8
0
6
CONTINUOUS
10
14.0
20
-78.46
30
0
11
14.0
21
11.54
31
0
0
ARC
8
0
6
CONTINUOUS
10
-38.00000434801758
20
-74.69417037785341
30
0
40
2.0
50
179.88052738843413
51
261.08332983232367
0
LINE
8
0
6
CONTINUOUS
10
-38.31
20
-76.67
30
0
11
-27.0
21
-78.46
31
0
0
LINE
8
0
6
CONTINUOUS
10
-27.0
20
-78.46
30
0
11
-27.0
21
-61.46
31
0
0
LINE
8
0
6
CONTINUOUS
10
-27.0
20
-61.46
30
0
11
14.0
21
-61.46
31
0
0
LINE
8
0
6
CONTINUOUS
10
14.0
20
-61.46
30
0
11
14.0
21
9.54
31
0
0
ARC
8
0
6
CONTINUOUS
10
12.0
20
9.54
30
0
40
2.0
50
0.0
51
90.0
0
LINE
8
0
6
CONTINUOUS
10
12.0
20
11.54
30
0
11
0.0
21
11.54
31
0
0
LINE
8
0
6
CONTINUOUS
10
0.0
20
11.54
30
0
11
0.0
21
-5.96
31
0
0
LINE
8
0
6
CONTINUOUS
10
0.0
20
-5.96
30
0
11
-2.3
21
-5.96
31
0
0
LINE
8
0
6
CONTINUOUS
10
-2.3
20
-5.96
30
0
11
-2.3
21
-15.46
31
0
0
LINE
8
0
6
CONTINUOUS
10
-2.3
20
-15.46
30
0
11
-14.3
21
-15.46
31
0
0
LINE
8
0
6
CONTINUOUS
10
-14.3
20
-15.46
30
0
11
-14.3
21
-5.96
31
0
0
LINE
8
0
6
CONTINUOUS
10
-14.3
20
-5.96
30
0
11
-16.5
21
-5.96
31
0
0
LINE
8
0
6
CONTINUOUS
10
-16.5
20
-5.96
30
0
11
-16.5
21
-3.46
31
0
0
LINE
8
0
6
CONTINUOUS
10
-16.5
20
-3.46
30
0
11
-20.0
21
-3.46
31
0
0
LINE
8
0
6
CONTINUOUS
10
-20.0
20
-3.46
30
0
11
-20.0
21
-23.46
31
0
0
LINE
8
0
6
CONTINUOUS
10
-20.0
20
-23.46
30
0
11
-25.0
21
-23.46
31
0
0
LINE
8
0
6
CONTINUOUS
10
-25.0
20
-23.46
30
0
11
-25.0
21
-15.46
31
0
0
LINE
8
0
6
CONTINUOUS
10
-25.0
20
-15.46
30
0
11
-28.0
21
-15.46
31
0
0
LINE
8
0
6
CONTINUOUS
10
-28.0
20
-15.46
30
0
11
-29.0
21
-20.46
31
0
0
LINE
8
0
6
CONTINUOUS
10
-29.0
20
-20.46
30
0
11
-32.0
21
-20.46
31
0
0
LINE
8
0
6
CONTINUOUS
10
-32.0
20
-20.46
30
0
11
-33.0
21
-15.46
31
0
0
LINE
8
0
6
CONTINUOUS
10
-33.0
20
-15.46
30
0
11
-40.0
21
-15.46
31
0
0
LINE
8
0
6
CONTINUOUS
10
-40.0
20
-15.46
30
0
11
-40.0
21
-74.69
31
0
0
LINE
8
0
6
CONTINUOUS
10
4.0
20
-78.46
30
0
11
12.0
21
-78.46
31
0
0
ARC
8
0
6
CONTINUOUS
10
12.0
20
-76.46
30
0
40
2.0
50
270.0
51
0.0
0
LINE
8
0
6
CONTINUOUS
10
14.0
20
-76.46
30
0
11
14.0
21
-63.46
31
0
0
ARC
8
0
6
CONTINUOUS
10
12.0
20
-63.46
30
0
40
2.0
50
0.0
51
90.0
0
LINE
8
0
6
CONTINUOUS
10
12.0
20
-61.46
30
0
11
4.0
21
-61.46
31
0
0
LINE
8
0
6
CONTINUOUS
10
4.0
20
-61.46
30
0
11
4.0
21
-78.46
31
0
0
LINE
8
0
6
CONTINUOUS
10
-20.0
20
-23.46
30
0
11
-25.0
21
-23.46
31
0
0
LINE
8
0
6
CONTINUOUS
10
-20.0
20
-3.46
30
0
11
-20.0
21
-23.46
31
0
0
LINE
8
0
6
CONTINUOUS
10
-25.0
20
-3.46
30
0
11
-20.0
21
-3.46
31
0
0
LINE
8
0
6
CONTINUOUS
10
-25.0
20
-23.46
30
0
11
-25.0
21
-3.46
31
0
0
LINE
8
0
6
CONTINUOUS
10
-20.0
20
-23.46
30
0
11
-25.0
21
-3.46
31
0
0
LINE
8
0
6
CONTINUOUS
10
-25.0
20
-23.46
30
0
11
-20.0
21
-3.46
31
0
0
ENDSEC
0
EOF