0
SECTION
2
HEADER
0
ENDSEC
0
SECTION
2
TABLES
0
TABLE
2
LTYPE
70
2
0
LTYPE
2
CONTINUOUS
70
0
3
Solid line
72
65
73
0
40
0.0
0
ENDTAB
0
TABLE
2
LAYER
70
1
0
LAYER
2
0
70
0
62
7
6
CONTINUOUS
0
ENDTAB
0
ENDSEC
0
SECTION
2
ENTITIES
0
LINE
8
0
6
CONTINUOUS
10
0.0
20
-0.04
30
0
11
0.0
21
1068.04
31
0
0
LINE
8
0
6
CONTINUOUS
10
-4.2
20
0.0
30
0
11
72.52
21
0.0
31
0
0
LINE
8
0
6
CONTINUOUS
10
50.71
20
21.73
30
0
11
50.71
21
40.18
31
0
0
LINE
8
0
6
CONTINUOUS
10
32.6
20
93.04
30
0
11
32.6
21
89.74
31
0
0
LINE
8
0
6
CONTINUOUS
10
32.6
20
89.74
30
0
11
7.0
21
89.74
31
0
0
LINE
8
0
6
CONTINUOUS
10
7.0
20
89.74
30
0
11
7.0
21
93.04
31
0
0
LINE
8
0
6
CONTINUOUS
10
7.0
20
93.04
30
0
11
32.6
21
93.04
31
0
0
LINE
8
0
6
CONTINUOUS
10
32.6
20
93.04
30
0
11
7.0
21
89.74
31
0
0
LINE
8
0
6
CONTINUOUS
10
7.0
20
89.74
30
0
11
7.0
21
93.04
31
0
0
LINE
8
0
6
CONTINUOUS
10
7.0
20
93.04
30
0
11
32.6
21
89.74
31
0
0
LINE
8
0
6
CONTINUOUS
10
72.52
20
-0.0
30
0
11
-4.2
21
-0.0
31
0
0
LINE
8
0
6
CONTINUOUS
10
4.8
20
1068.04
30
0
11
34.8
21
1068.04
31
0
0
LINE
8
0
6
CONTINUOUS
10
13.8
20
1068.04
30
0
11
13.8
21
93.04
31
0
0
LINE
8
0
6
CONTINUOUS
10
13.8
20
93.04
30
0
11
7.8
21
93.04
31
0
0
LINE
8
0
6
CONTINUOUS
10
7.8
20
93.04
30
0
11
7.8
21
1068.04
31
0
0
LINE
8
0
6
CONTINUOUS
10
31.8
20
1068.04
30
0
11
31.8
21
93.04
31
0
0
LINE
8
0
6
CONTINUOUS
10
31.8
20
93.04
30
0
11
25.8
21
93.04
31
0
0
LINE
8
0
6
CONTINUOUS
10
25.8
20
93.04
30
0
11
25.8
21
100.04
31
0
0
LINE
8
0
6
CONTINUOUS
10
25.8
20
100.04
30
0
11
13.8
21
100.04
31
0
0
LINE
8
0
6
CONTINUOUS
10
13.8
20
100.04
30
0
11
13.8
21
93.04
31
0
0
LINE
8
0
6
CONTINUOUS
10
13.8
20
93.04
30
0
11
25.8
21
93.04
31
0
0
LINE
8
0
6
CONTINUOUS
10
25.8
20
93.04
30
0
11
25.8
21
1068.04
31
0
0
LINE
8
0
6
CONTINUOUS
10
15.8
20
95.04
30
0
11
23.8
21
95.04
31
0
0
LINE
8
0
6
CONTINUOUS
10
23.8
20
95.04
30
0
11
23.8
21
98.04
31
0
0
LINE
8
0
6
CONTINUOUS
10
23.8
20
98.04
30
0
11
15.8
21
98.04
31
0
0
LINE
8
0
6
CONTINUOUS
10
15.8
20
98.04
30
0
11
15.8
21
95.04
31
0
0
ARC
8
0
6
CONTINUOUS
10
64.70304066208514
20
86.54004843473014
30
0
40
0.5
50
89.2024928670193
51
150.00640862499003
0
ARC
8
0
6
CONTINUOUS
10
49.79680961415918
20
85.73997455197646
30
0
40
0.2
50
270.9140169853574
51
30.00841849552796
0
ARC
8
0
6
CONTINUOUS
10
48.9869820396324
20
86.54000910816775
30
0
40
0.5
50
29.9987948242627
51
89.65416511644685
0
ARC
8
0
6
CONTINUOUS
10
47.599999999999994
20
85.44000000000001
30
0
40
1.6
50
89.99999999999974
51
180.0000000000005
0
ARC
8
0
6
CONTINUOUS
10
32.439258863290995
20
82.36055317974596
30
0
40
0.2
50
233.39504391447258
51
287.68031166947543
0
ARC
8
0
6
CONTINUOUS
10
30.935941142227723
20
82.38008826240306
30
0
40
0.2
50
91.70226229264645
51
191.56276693763257
0
ARC
8
0
6
CONTINUOUS
10
31.52406904916225
20
79.70834463938493
30
0
40
0.2
50
193.98826718017855
51
33.936710768976624
0
ARC
8
0
6
CONTINUOUS
10
33.779813793461315
20
80.8837597468837
30
0
40
0.3
50
317.21890605657205
51
107.42032695978888
0
ARC
8
0
6
CONTINUOUS
10
33.8
20
76.44
30
0
40
0.2
50
270.0
51
0.0
0
ARC
8
0
6
CONTINUOUS
10
31.7
20
77.06999998292856
30
0
40
0.2
50
4.890604078167961e-06
51
179.9999951093959
0
ARC
8
0
6
CONTINUOUS
10
31.999998137489623
20
75.52863526306206
30
0
40
0.5
50
179.84361247243808
51
241.31484127254097
0
ARC
8
0
6
CONTINUOUS
10
33.79006693989973
20
73.73530191257353
30
0
40
0.21
50
358.5532881170823
51
61.58387752664198
0
ARC
8
0
6
CONTINUOUS
10
32.0
20
37.64
30
0
40
0.5
50
90.0
51
180.0
0
ARC
8
0
6
CONTINUOUS
10
31.7
20
33.51999998292858
30
0
40
0.2
50
179.99999510939796
51
4.8906020426129645e-06
0
ARC
8
0
6
CONTINUOUS
10
33.8
20
34.14
30
0
40
0.2
50
0.0
51
90.0
0
ARC
8
0
6
CONTINUOUS
10
33.77981379346132
20
29.696240253116308
30
0
40
0.3
50
252.57967304021003
51
42.78109394342884
0
ARC
8
0
6
CONTINUOUS
10
31.518268941547845
20
30.86251069974838
30
0
40
0.2
50
329.1659328061078
51
160.27862272278722
0
ARC
8
0
6
CONTINUOUS
10
30.933640608139026
20
28.199966862185658
30
0
40
0.2
50
165.51268297531746
51
268.95698498783145
0
ARC
8
0
6
CONTINUOUS
10
32.44850133687518
20
28.226743984061667
30
0
40
0.2
50
75.07862380684777
51
129.97899161145406
0
ARC
8
0
6
CONTINUOUS
10
58.0
20
25.54
30
0
40
0.5
50
180.0
51
270.0
0
ARC
8
0
6
CONTINUOUS
10
58.7
20
25.54
30
0
40
0.5
50
270.0
51
0.0
0
ARC
8
0
6
CONTINUOUS
10
59.4
20
35.839999999999996
30
0
40
0.2
50
90.0
51
179.99999999999795
0
ARC
8
0
6
CONTINUOUS
10
66.5
20
37.54
30
0
40
1.5
50
270.0
51
0.0
0
ARC
8
0
6
CONTINUOUS
10
67.5
20
86.54
30
0
40
0.5
50
0.0
51
90.0
0
ARC
8
0
6
CONTINUOUS
10
57.9
20
37.34
30
0
40
0.5
50
90.0
51
180.0
0
ARC
8
0
6
CONTINUOUS
10
65.80000000000001
20
38.04
30
0
40
0.2
50
269.9999999999959
51
0.0
0
ARC
8
0
6
CONTINUOUS
10
65.80000000000001
20
80.53999999999999
30
0
40
0.2
50
4.0711099922735325e-12
51
90.00000000000406
0
ARC
8
0
6
CONTINUOUS
10
59.1
20
80.53999999999999
30
0
40
0.2
50
90.0
51
179.99999999999594
0
ARC
8
0
6
CONTINUOUS
10
58.4
20
79.24
30
0
40
0.5
50
270.0
51
0.0
0
ARC
8
0
6
CONTINUOUS
10
57.9
20
79.24
30
0
40
0.5
50
180.0
51
270.0
0
LINE
8
0
6
CONTINUOUS
10
64.27
20
86.79
30
0
11
64.02
21
86.36
31
0
0
LINE
8
0
6
CONTINUOUS
10
64.02
20
86.36
30
0
11
64.18
21
85.54
31
0
0
LINE
8
0
6
CONTINUOUS
10
64.18
20
85.54
30
0
11
66.2
21
85.54
31
0
0
LINE
8
0
6
CONTINUOUS
10
66.2
20
85.54
30
0
11
66.2
21
82.54
31
0
0
LINE
8
0
6
CONTINUOUS
10
66.2
20
82.54
30
0
11
57.3
21
82.54
31
0
0
LINE
8
0
6
CONTINUOUS
10
57.3
20
82.54
30
0
11
57.0
21
82.24
31
0
0
LINE
8
0
6
CONTINUOUS
10
57.0
20
82.24
30
0
11
56.7
21
82.54
31
0
0
LINE
8
0
6
CONTINUOUS
10
56.7
20
82.54
30
0
11
47.6
21
82.54
31
0
0
LINE
8
0
6
CONTINUOUS
10
47.6
20
82.54
30
0
11
47.6
21
85.54
31
0
0
LINE
8
0
6
CONTINUOUS
10
47.6
20
85.54
30
0
11
49.8
21
85.54
31
0
0
LINE
8
0
6
CONTINUOUS
10
49.97
20
85.84
30
0
11
49.42
21
86.79
31
0
0
LINE
8
0
6
CONTINUOUS
10
48.99
20
87.04
30
0
11
47.6
21
87.04
31
0
0
LINE
8
0
6
CONTINUOUS
10
46.0
20
85.44
30
0
11
46.0
21
82.54
31
0
0
LINE
8
0
6
CONTINUOUS
10
46.0
20
82.54
30
0
11
42.3
21
82.54
31
0
0
LINE
8
0
6
CONTINUOUS
10
42.3
20
82.54
30
0
11
42.0
21
82.24
31
0
0
LINE
8
0
6
CONTINUOUS
10
42.0
20
82.24
30
0
11
41.7
21
82.54
31
0
0
LINE
8
0
6
CONTINUOUS
10
41.7
20
82.54
30
0
11
34.0
21
82.54
31
0
0
LINE
8
0
6
CONTINUOUS
10
34.0
20
82.54
30
0
11
32.5
21
82.17
31
0
0
LINE
8
0
6
CONTINUOUS
10
32.32
20
82.2
30
0
11
31.89
21
82.54
31
0
0
LINE
8
0
6
CONTINUOUS
10
31.89
20
82.54
30
0
11
30.93
21
82.58
31
0
0
LINE
8
0
6
CONTINUOUS
10
30.74
20
82.34
30
0
11
31.33
21
79.66
31
0
0
LINE
8
0
6
CONTINUOUS
10
31.69
20
79.82
30
0
11
33.48
21
81.1
31
0
0
LINE
8
0
6
CONTINUOUS
10
33.48
20
81.1
30
0
11
33.69
21
81.17
31
0
0
LINE
8
0
6
CONTINUOUS
10
34.0
20
80.68
30
0
11
34.0
21
76.44
31
0
0
LINE
8
0
6
CONTINUOUS
10
33.8
20
76.24
30
0
11
33.45
21
76.24
31
0
0
LINE
8
0
6
CONTINUOUS
10
33.45
20
76.24
30
0
11
31.9
21
77.07
31
0
0
LINE
8
0
6
CONTINUOUS
10
31.5
20
77.07
30
0
11
31.5
21
75.53
31
0
0
LINE
8
0
6
CONTINUOUS
10
31.76
20
75.09
30
0
11
33.89
21
73.92
31
0
0
LINE
8
0
6
CONTINUOUS
10
34.0
20
73.73
30
0
11
34.0
21
38.14
31
0
0
LINE
8
0
6
CONTINUOUS
10
34.0
20
38.14
30
0
11
32.0
21
38.14
31
0
0
LINE
8
0
6
CONTINUOUS
10
31.5
20
37.64
30
0
11
31.5
21
33.52
31
0
0
LINE
8
0
6
CONTINUOUS
10
31.9
20
33.52
30
0
11
33.35
21
34.32
31
0
0
LINE
8
0
6
CONTINUOUS
10
33.35
20
34.32
30
0
11
33.8
21
34.34
31
0
0
LINE
8
0
6
CONTINUOUS
10
34.0
20
34.14
30
0
11
34.0
21
29.9
31
0
0
LINE
8
0
6
CONTINUOUS
10
33.69
20
29.41
30
0
11
33.53
21
29.46
31
0
0
LINE
8
0
6
CONTINUOUS
10
33.53
20
29.46
30
0
11
31.69
21
30.76
31
0
0
LINE
8
0
6
CONTINUOUS
10
31.33
20
30.93
30
0
11
30.74
21
28.25
31
0
0
LINE
8
0
6
CONTINUOUS
10
30.93
20
28.0
30
0
11
31.77
21
28.0
31
0
0
LINE
8
0
6
CONTINUOUS
10
31.77
20
28.0
30
0
11
32.32
21
28.38
31
0
0
LINE
8
0
6
CONTINUOUS
10
32.5
20
28.42
30
0
11
34.0
21
28.04
31
0
0
LINE
8
0
6
CONTINUOUS
10
34.0
20
28.04
30
0
11
41.7
21
28.04
31
0
0
LINE
8
0
6
CONTINUOUS
10
41.7
20
28.04
30
0
11
42.0
21
28.34
31
0
0
LINE
8
0
6
CONTINUOUS
10
42.0
20
28.34
30
0
11
42.3
21
28.04
31
0
0
LINE
8
0
6
CONTINUOUS
10
42.3
20
28.04
30
0
11
45.2
21
28.04
31
0
0
LINE
8
0
6
CONTINUOUS
10
45.2
20
28.04
30
0
11
45.5
21
28.34
31
0
0
LINE
8
0
6
CONTINUOUS
10
45.5
20
28.34
30
0
11
45.8
21
28.04
31
0
0
LINE
8
0
6
CONTINUOUS
10
45.8
20
28.04
30
0
11
57.5
21
28.04
31
0
0
LINE
8
0
6
CONTINUOUS
10
57.5
20
28.04
30
0
11
57.5
21
25.54
31
0
0
LINE
8
0
6
CONTINUOUS
10
58.0
20
25.04
30
0
11
58.7
21
25.04
31
0
0
LINE
8
0
6
CONTINUOUS
10
59.2
20
25.54
30
0
11
59.2
21
35.84
31
0
0
LINE
8
0
6
CONTINUOUS
10
59.4
20
36.04
30
0
11
66.5
21
36.04
31
0
0
LINE
8
0
6
CONTINUOUS
10
68.0
20
37.54
30
0
11
68.0
21
86.54
31
0
0
LINE
8
0
6
CONTINUOUS
10
67.5
20
87.04
30
0
11
64.71
21
87.04
31
0
0
LINE
8
0
6
CONTINUOUS
10
57.4
20
79.24
30
0
11
57.4
21
80.74
31
0
0
LINE
8
0
6
CONTINUOUS
10
57.4
20
80.74
30
0
11
35.8
21
80.74
31
0
0
LINE
8
0
6
CONTINUOUS
10
35.8
20
80.74
30
0
11
35.8
21
29.84
31
0
0
LINE
8
0
6
CONTINUOUS
10
35.8
20
29.84
30
0
11
57.4
21
29.84
31
0
0
LINE
8
0
6
CONTINUOUS
10
57.4
20
29.84
30
0
11
57.4
21
37.34
31
0
0
LINE
8
0
6
CONTINUOUS
10
57.9
20
37.84
30
0
11
65.8
21
37.84
31
0
0
LINE
8
0
6
CONTINUOUS
10
66.0
20
38.04
30
0
11
66.0
21
80.54
31
0
0
LINE
8
0
6
CONTINUOUS
10
65.8
20
80.74
30
0
11
59.1
21
80.74
31
0
0
LINE
8
0
6
CONTINUOUS
10
58.9
20
80.54
30
0
11
58.9
21
79.24
31
0
0
LINE
8
0
6
CONTINUOUS
10
58.4
20
78.74
30
0
11
57.9
21
78.74
31
0
0
ARC
8
0
6
CONTINUOUS
10
13.3
20
77.00596875762567
30
0
40
0.2100000000000002
50
17.752790161946297
51
162.24720983805386
0
ARC
8
0
6
CONTINUOUS
10
11.2
20
76.44
30
0
40
0.2
50
180.0
51
270.0
0
ARC
8
0
6
CONTINUOUS
10
11.205101024781888
20
80.89893736463523
30
0
40
0.3
50
69.53328058647949
51
226.8688937649312
0
ARC
8
0
6
CONTINUOUS
10
13.475930950837745
20
79.70834463938492
30
0
40
0.2
50
146.06328923101887
51
346.0117328198256
0
ARC
8
0
6
CONTINUOUS
10
14.064058857772277
20
82.38008826240306
30
0
40
0.2
50
348.43723306236734
51
88.29773770735355
0
ARC
8
0
6
CONTINUOUS
10
12.560741136709005
20
82.36055317974596
30
0
40
0.2
50
252.31968833052457
51
306.6049560855274
0
ARC
8
0
6
CONTINUOUS
10
10.7
20
81.04
30
0
40
1.5
50
90.0
51
180.0
0
ARC
8
0
6
CONTINUOUS
10
3.4022496442371932
20
81.31998576948774
30
0
40
0.410124980474851
50
345.8894604894037
51
191.24634714226758
0
ARC
8
0
6
CONTINUOUS
10
2.0
20
80.84
30
0
40
0.2
50
180.0
51
270.0
0
ARC
8
0
6
CONTINUOUS
10
2.3
20
101.54
30
0
40
0.5
50
90.0
51
180.0
0
ARC
8
0
6
CONTINUOUS
10
3.4
20
101.4400000105367
30
0
40
0.4
50
180.00000150927244
51
359.9999984907276
0
ARC
8
0
6
CONTINUOUS
10
3.4
20
104.13999998946329
30
0
40
0.4
50
1.5092724296605003e-06
51
179.99999849072756
0
ARC
8
0
6
CONTINUOUS
10
1.9
20
103.74
30
0
40
0.5
50
180.0
51
270.0
0
ARC
8
0
6
CONTINUOUS
10
1.9
20
110.34
30
0
40
0.5
50
90.0
51
180.0
0
ARC
8
0
6
CONTINUOUS
10
3.4
20
109.9400000105367
30
0
40
0.4
50
180.00000150927244
51
359.9999984907276
0
ARC
8
0
6
CONTINUOUS
10
3.3
20
111.54
30
0
40
0.5
50
0.0
51
90.0
0
ARC
8
0
6
CONTINUOUS
10
0.5
20
111.54
30
0
40
0.5
50
90.0
51
180.0
0
ARC
8
0
6
CONTINUOUS
10
0.5
20
10.54
30
0
40
0.5
50
180.0
51
270.0
0
ARC
8
0
6
CONTINUOUS
10
3.3
20
10.54
30
0
40
0.5
50
270.0
51
0.0
0
ARC
8
0
6
CONTINUOUS
10
3.4
20
12.139999989463288
30
0
40
0.4
50
1.5092729385492494e-06
51
179.99999849072705
0
ARC
8
0
6
CONTINUOUS
10
1.9
20
11.74
30
0
40
0.5
50
180.0
51
270.0
0
ARC
8
0
6
CONTINUOUS
10
1.9
20
18.34
30
0
40
0.5
50
90.0
51
180.0
0
ARC
8
0
6
CONTINUOUS
10
3.4
20
17.940000010536714
30
0
40
0.4
50
180.00000150927295
51
359.9999984907271
0
ARC
8
0
6
CONTINUOUS
10
3.3
20
19.54
30
0
40
0.5
50
0.0
51
90.0
0
ARC
8
0
6
CONTINUOUS
10
2.2
20
20.240000000000002
30
0
40
0.2
50
180.00000000000102
51
270.0
0
ARC
8
0
6
CONTINUOUS
10
2.5
20
35.54
30
0
40
0.5
50
90.0
51
180.0
0
ARC
8
0
6
CONTINUOUS
10
8.3
20
35.54
30
0
40
0.5
50
0.0
51
90.0
0
ARC
8
0
6
CONTINUOUS
10
9.3
20
25.54
30
0
40
0.5
50
180.0
51
270.0
0
ARC
8
0
6
CONTINUOUS
10
10.0
20
25.54
30
0
40
0.5
50
270.0
51
0.0
0
ARC
8
0
6
CONTINUOUS
10
10.649665972425614
20
27.740000185957424
30
0
40
0.3
50
89.93620541930778
51
240.07363632234006
0
ARC
8
0
6
CONTINUOUS
10
12.551498663124812
20
28.226743984061667
30
0
40
0.2
50
50.02100838854478
51
104.92137619315076
0
ARC
8
0
6
CONTINUOUS
10
14.066359391860974
20
28.199966862185658
30
0
40
0.2
50
271.04301501216855
51
14.487317024682689
0
ARC
8
0
6
CONTINUOUS
10
13.481731058452146
20
30.862510699748395
30
0
40
0.2
50
19.721377277208276
51
210.83406719389728
0
ARC
8
0
6
CONTINUOUS
10
11.22018620653868
20
29.696240253116308
30
0
40
0.3
50
137.2189060565714
51
287.4203269597893
0
ARC
8
0
6
CONTINUOUS
10
11.2
20
34.14
30
0
40
0.2
50
90.0
51
180.0
0
ARC
8
0
6
CONTINUOUS
10
13.3
20
33.58403124237433
30
0
40
0.2100000000000002
50
197.75279016194614
51
342.2472098380537
0
ARC
8
0
6
CONTINUOUS
10
13.0
20
37.64
30
0
40
0.5
50
0.0
51
90.0
0
ARC
8
0
6
CONTINUOUS
10
11.399886749700729
20
73.8567295834996
30
0
40
0.2
50
119.96254416836376
51
181.92824763348537
0
ARC
8
0
6
CONTINUOUS
10
13.000001862510379
20
75.52863526306206
30
0
40
0.5
50
298.685158727459
51
0.15638752756192398
0
LINE
8
0
6
CONTINUOUS
10
9.4
20
78.74
30
0
11
9.4
21
37.84
31
0
0
LINE
8
0
6
CONTINUOUS
10
9.4
20
37.84
30
0
11
2.0
21
37.84
31
0
0
LINE
8
0
6
CONTINUOUS
10
2.0
20
37.84
30
0
11
2.0
21
78.74
31
0
0
LINE
8
0
6
CONTINUOUS
10
2.0
20
78.74
30
0
11
9.4
21
78.74
31
0
0
LINE
8
0
6
CONTINUOUS
10
13.1
20
77.07
30
0
11
11.65
21
76.27
31
0
0
LINE
8
0
6
CONTINUOUS
10
11.65
20
76.27
30
0
11
11.2
21
76.24
31
0
0
LINE
8
0
6
CONTINUOUS
10
11.0
20
76.44
30
0
11
11.0
21
80.68
31
0
0
LINE
8
0
6
CONTINUOUS
10
11.31
20
81.18
30
0
11
11.47
21
81.13
31
0
0
LINE
8
0
6
CONTINUOUS
10
11.47
20
81.13
30
0
11
13.31
21
79.82
31
0
0
LINE
8
0
6
CONTINUOUS
10
13.67
20
79.66
30
0
11
14.26
21
82.34
31
0
0
LINE
8
0
6
CONTINUOUS
10
14.07
20
82.58
30
0
11
13.23
21
82.58
31
0
0
LINE
8
0
6
CONTINUOUS
10
13.23
20
82.58
30
0
11
12.68
21
82.2
31
0
0
LINE
8
0
6
CONTINUOUS
10
12.5
20
82.17
30
0
11
11.0
21
82.54
31
0
0
LINE
8
0
6
CONTINUOUS
10
11.0
20
82.54
30
0
11
10.7
21
82.54
31
0
0
LINE
8
0
6
CONTINUOUS
10
9.2
20
81.04
30
0
11
9.2
21
80.54
31
0
0
LINE
8
0
6
CONTINUOUS
10
9.2
20
80.54
30
0
11
6.0
21
80.54
31
0
0
LINE
8
0
6
CONTINUOUS
10
6.0
20
80.54
30
0
11
5.7
21
80.24
31
0
0
LINE
8
0
6
CONTINUOUS
10
5.7
20
80.24
30
0
11
5.4
21
80.54
31
0
0
LINE
8
0
6
CONTINUOUS
10
5.4
20
80.54
30
0
11
3.8
21
80.54
31
0
0
LINE
8
0
6
CONTINUOUS
10
3.8
20
80.54
30
0
11
3.8
21
81.22
31
0
0
LINE
8
0
6
CONTINUOUS
10
3.0
20
81.24
30
0
11
3.0
21
80.64
31
0
0
LINE
8
0
6
CONTINUOUS
10
3.0
20
80.64
30
0
11
2.0
21
80.64
31
0
0
LINE
8
0
6
CONTINUOUS
10
1.8
20
80.84
30
0
11
1.65
21
101.04
31
0
0
LINE
8
0
6
CONTINUOUS
10
1.8
20
101.04
30
0
11
1.8
21
101.54
31
0
0
LINE
8
0
6
CONTINUOUS
10
2.3
20
102.04
30
0
11
3.0
21
102.04
31
0
0
LINE
8
0
6
CONTINUOUS
10
3.0
20
102.04
30
0
11
3.0
21
101.44
31
0
0
LINE
8
0
6
CONTINUOUS
10
3.8
20
101.44
30
0
11
3.8
21
104.14
31
0
0
LINE
8
0
6
CONTINUOUS
10
3.0
20
104.14
30
0
11
3.0
21
103.24
31
0
0
LINE
8
0
6
CONTINUOUS
10
3.0
20
103.24
30
0
11
1.9
21
103.24
31
0
0
LINE
8
0
6
CONTINUOUS
10
1.4
20
103.74
30
0
11
1.4
21
110.34
31
0
0
LINE
8
0
6
CONTINUOUS
10
1.9
20
110.84
30
0
11
3.0
21
110.84
31
0
0
LINE
8
0
6
CONTINUOUS
10
3.0
20
110.84
30
0
11
3.0
21
109.94
31
0
0
LINE
8
0
6
CONTINUOUS
10
3.8
20
109.94
30
0
11
3.8
21
111.54
31
0
0
LINE
8
0
6
CONTINUOUS
10
3.3
20
112.04
30
0
11
0.5
21
112.04
31
0
0
LINE
8
0
6
CONTINUOUS
10
-0.0
20
111.54
30
0
11
-0.0
21
10.54
31
0
0
LINE
8
0
6
CONTINUOUS
10
0.5
20
10.04
30
0
11
3.3
21
10.04
31
0
0
LINE
8
0
6
CONTINUOUS
10
3.8
20
10.54
30
0
11
3.8
21
12.14
31
0
0
LINE
8
0
6
CONTINUOUS
10
3.0
20
12.14
30
0
11
3.0
21
11.24
31
0
0
LINE
8
0
6
CONTINUOUS
10
3.0
20
11.24
30
0
11
1.9
21
11.24
31
0
0
LINE
8
0
6
CONTINUOUS
10
1.4
20
11.74
30
0
11
1.4
21
18.34
31
0
0
LINE
8
0
6
CONTINUOUS
10
1.9
20
18.84
30
0
11
3.0
21
18.84
31
0
0
LINE
8
0
6
CONTINUOUS
10
3.0
20
18.84
30
0
11
3.0
21
17.94
31
0
0
LINE
8
0
6
CONTINUOUS
10
3.8
20
17.94
30
0
11
3.8
21
19.54
31
0
0
LINE
8
0
6
CONTINUOUS
10
3.3
20
20.04
30
0
11
2.2
21
20.04
31
0
0
LINE
8
0
6
CONTINUOUS
10
2.0
20
20.24
30
0
11
2.0
21
35.54
31
0
0
LINE
8
0
6
CONTINUOUS
10
2.5
20
36.04
30
0
11
5.4
21
36.04
31
0
0
LINE
8
0
6
CONTINUOUS
10
5.4
20
36.04
30
0
11
5.7
21
36.34
31
0
0
LINE
8
0
6
CONTINUOUS
10
5.7
20
36.34
30
0
11
6.0
21
36.04
31
0
0
LINE
8
0
6
CONTINUOUS
10
6.0
20
36.04
30
0
11
8.3
21
36.04
31
0
0
LINE
8
0
6
CONTINUOUS
10
8.8
20
35.54
30
0
11
8.8
21
25.54
31
0
0
LINE
8
0
6
CONTINUOUS
10
9.3
20
25.04
30
0
11
10.0
21
25.04
31
0
0
LINE
8
0
6
CONTINUOUS
10
10.5
20
25.54
30
0
11
10.5
21
27.48
31
0
0
LINE
8
0
6
CONTINUOUS
10
10.65
20
28.04
30
0
11
11.0
21
28.04
31
0
0
LINE
8
0
6
CONTINUOUS
10
11.0
20
28.04
30
0
11
12.5
21
28.42
31
0
0
LINE
8
0
6
CONTINUOUS
10
12.68
20
28.38
30
0
11
13.11
21
28.05
31
0
0
LINE
8
0
6
CONTINUOUS
10
13.11
20
28.05
30
0
11
14.07
21
28.0
31
0
0
LINE
8
0
6
CONTINUOUS
10
14.26
20
28.25
30
0
11
13.67
21
30.93
31
0
0
LINE
8
0
6
CONTINUOUS
10
13.31
20
30.76
30
0
11
11.52
21
29.49
31
0
0
LINE
8
0
6
CONTINUOUS
10
11.52
20
29.49
30
0
11
11.31
21
29.41
31
0
0
LINE
8
0
6
CONTINUOUS
10
11.0
20
29.9
30
0
11
11.0
21
34.14
31
0
0
LINE
8
0
6
CONTINUOUS
10
11.2
20
34.34
30
0
11
11.55
21
34.34
31
0
0
LINE
8
0
6
CONTINUOUS
10
11.55
20
34.34
30
0
11
13.1
21
33.52
31
0
0
LINE
8
0
6
CONTINUOUS
10
13.5
20
33.52
30
0
11
13.5
21
37.64
31
0
0
LINE
8
0
6
CONTINUOUS
10
13.0
20
38.14
30
0
11
11.2
21
38.14
31
0
0
LINE
8
0
6
CONTINUOUS
10
11.2
20
38.14
30
0
11
11.2
21
73.85
31
0
0
LINE
8
0
6
CONTINUOUS
10
11.3
20
74.03
30
0
11
13.24
21
75.09
31
0
0
LINE
8
0
6
CONTINUOUS
10
13.5
20
75.53
30
0
11
13.5
21
77.07
31
0
0
ARC
8
0
6
CONTINUOUS
10
11.399999999999999
20
33.84
30
0
40
0.4
50
89.99999999999974
51
180.0
0
ARC
8
0
6
CONTINUOUS
10
11.399999999999999
20
30.44
30
0
40
0.4
50
180.0
51
270.0000000000002
0
ARC
8
0
6
CONTINUOUS
10
14.057047250671404
20
30.03785149788988
30
0
40
1.2
50
96.557832910409
51
118.74241552945142
0
ARC
8
0
6
CONTINUOUS
10
13.95845387179318
20
30.932474707387566
30
0
40
0.3
50
25.155999994815588
51
97.36440942180775
0
ARC
8
0
6
CONTINUOUS
10
15.858258892523194
20
28.639996968535563
30
0
40
0.5
50
203.57779945583783
51
270.19951662341776
0
ARC
8
0
6
CONTINUOUS
10
29.141741107476808
20
28.639996968535563
30
0
40
0.5
50
269.80048337658206
51
336.42220054416214
0
ARC
8
0
6
CONTINUOUS
10
30.34506411779037
20
30.84004274519358
30
0
40
0.3
50
336.41291385919783
51
90.96722119276174
0
ARC
8
0
6
CONTINUOUS
10
29.837244282317716
20
30.84008747879807
30
0
40
0.3
50
91.38369050350533
51
145.50216674522235
0
ARC
8
0
6
CONTINUOUS
10
29.242744603916112
20
30.25378073179691
30
0
40
0.15
50
144.91471431829208
51
253.4433017333289
0
ARC
8
0
6
CONTINUOUS
10
29.259523886179917
20
29.889362543929003
30
0
40
0.2
50
323.35803506271014
51
72.39935812897313
0
ARC
8
0
6
CONTINUOUS
10
28.717754272687745
20
29.339899768681278
30
0
40
0.3
50
268.5188780525368
51
320.728251519791
0
ARC
8
0
6
CONTINUOUS
10
28.226079943156105
20
29.339676879350847
30
0
40
0.3
50
162.47769414538877
51
272.6594899122654
0
ARC
8
0
6
CONTINUOUS
10
27.830284969038416
20
30.05085490711525
30
0
40
0.3104163777159958
50
356.147758407349
51
146.9823439468073
0
ARC
8
0
6
CONTINUOUS
10
26.963798084827868
20
29.32993588689618
30
0
40
0.3
50
271.1845629331913
51
342.55523235849546
0
ARC
8
0
6
CONTINUOUS
10
16.501044145641064
20
28.731400672307615
30
0
40
0.3
50
84.4612164677189
51
143.46376148143824
0
ARC
8
0
6
CONTINUOUS
10
16.04429325102944
20
29.11849603940735
30
0
40
0.3
50
156.10804555295394
51
315.97383480769406
0
ARC
8
0
6
CONTINUOUS
10
15.51553233239558
20
29.39889054768603
30
0
40
0.3
50
328.01919269720366
51
23.809573742846414
0
ARC
8
0
6
CONTINUOUS
10
15.788256242413398
20
30.74000304069977
30
0
40
0.5
50
89.80017969452517
51
203.5785586563536
0
ARC
8
0
6
CONTINUOUS
10
27.987509305397133
20
30.74000620359809
30
0
40
0.5
50
337.665548809956
51
89.71458624200376
0
ARC
8
0
6
CONTINUOUS
10
28.45493680884354
20
29.779959377113705
30
0
40
0.3
50
156.41335614066523
51
269.05709640355013
0
ARC
8
0
6
CONTINUOUS
10
28.784080750482076
20
29.77994159845734
30
0
40
0.3
50
271.1305667483163
51
303.5774825242079
0
ARC
8
0
6
CONTINUOUS
10
29.261749626435112
20
29.897972180715012
30
0
40
0.15
50
301.4442819961322
51
71.23610149568798
0
ARC
8
0
6
CONTINUOUS
10
29.258426606268536
20
30.267930305045702
30
0
40
0.2
50
142.38529577376698
51
249.99311674028644
0
ARC
8
0
6
CONTINUOUS
10
29.869999999999997
20
30.939999999999998
30
0
40
0.3
50
89.99999999999933
51
143.1301023541553
0
ARC
8
0
6
CONTINUOUS
10
30.941333530922808
20
30.040000740960526
30
0
40
1.2
50
60.07349421918075
51
90.06367142454418
0
ARC
8
0
6
CONTINUOUS
10
33.599999999999994
20
30.44
30
0
40
0.4
50
270.000000000001
51
0.0
0
ARC
8
0
6
CONTINUOUS
10
33.599999999999994
20
33.84
30
0
40
0.4
50
0.0
51
89.99999999999898
0
ARC
8
0
6
CONTINUOUS
10
30.9413335309228
20
34.23999925903947
30
0
40
1.2
50
269.9363285754562
51
299.92650578081964
0
ARC
8
0
6
CONTINUOUS
10
14.0586664690772
20
34.23999925903947
30
0
40
1.2
50
240.0734942191803
51
270.0636714245438
0
LINE
8
0
6
CONTINUOUS
10
11.0
20
33.84
30
0
11
11.0
21
30.44
31
0
0
LINE
8
0
6
CONTINUOUS
10
11.4
20
30.04
30
0
11
11.58
21
30.04
31
0
0
LINE
8
0
6
CONTINUOUS
10
11.58
20
30.04
30
0
11
13.48
21
31.09
31
0
0
LINE
8
0
6
CONTINUOUS
10
14.23
20
31.06
30
0
11
15.4
21
28.44
31
0
0
LINE
8
0
6
CONTINUOUS
10
15.86
20
28.14
30
0
11
29.14
21
28.14
31
0
0
LINE
8
0
6
CONTINUOUS
10
29.6
20
28.44
30
0
11
30.62
21
30.72
31
0
0
LINE
8
0
6
CONTINUOUS
10
30.34
20
31.14
30
0
11
29.83
21
31.14
31
0
0
LINE
8
0
6
CONTINUOUS
10
29.83
20
31.14
30
0
11
30.94
21
31.24
31
0
0
LINE
8
0
6
CONTINUOUS
10
29.59
20
31.01
30
0
11
29.12
21
30.34
31
0
0
LINE
8
0
6
CONTINUOUS
10
29.12
20
30.34
30
0
11
29.63
21
31.12
31
0
0
LINE
8
0
6
CONTINUOUS
10
28.95
20
29.53
30
0
11
29.42
21
29.77
31
0
0
LINE
8
0
6
CONTINUOUS
10
29.42
20
29.77
30
0
11
28.95
21
29.15
31
0
0
LINE
8
0
6
CONTINUOUS
10
28.71
20
29.04
30
0
11
28.24
21
29.04
31
0
0
LINE
8
0
6
CONTINUOUS
10
27.94
20
29.43
30
0
11
28.14
21
30.03
31
0
0
LINE
8
0
6
CONTINUOUS
10
28.14
20
30.03
30
0
11
28.45
21
30.55
31
0
0
LINE
8
0
6
CONTINUOUS
10
27.57
20
30.22
30
0
11
27.25
21
29.24
31
0
0
LINE
8
0
6
CONTINUOUS
10
26.97
20
29.03
30
0
11
16.53
21
29.03
31
0
0
LINE
8
0
6
CONTINUOUS
10
15.79
20
29.52
30
0
11
15.33
21
30.54
31
0
0
LINE
8
0
6
CONTINUOUS
10
15.79
20
31.24
30
0
11
27.99
21
31.24
31
0
0
LINE
8
0
6
CONTINUOUS
10
28.45
20
29.48
30
0
11
28.79
21
29.48
31
0
0
LINE
8
0
6
CONTINUOUS
10
31.54
20
31.08
30
0
11
33.27
21
30.08
31
0
0
LINE
8
0
6
CONTINUOUS
10
33.27
20
30.08
30
0
11
33.6
21
30.04
31
0
0
LINE
8
0
6
CONTINUOUS
10
34.0
20
30.44
30
0
11
34.0
21
33.84
31
0
0
LINE
8
0
6
CONTINUOUS
10
33.6
20
34.24
30
0
11
33.42
21
34.24
31
0
0
LINE
8
0
6
CONTINUOUS
10
33.42
20
34.24
30
0
11
31.71
21
33.3
31
0
0
LINE
8
0
6
CONTINUOUS
10
31.71
20
33.3
30
0
11
31.54
21
33.2
31
0
0
LINE
8
0
6
CONTINUOUS
10
30.94
20
33.04
30
0
11
14.06
21
33.04
31
0
0
LINE
8
0
6
CONTINUOUS
10
13.46
20
33.2
30
0
11
13.29
21
33.3
31
0
0
LINE
8
0
6
CONTINUOUS
10
13.29
20
33.3
30
0
11
11.73
21
34.2
31
0
0
LINE
8
0
6
CONTINUOUS
10
11.73
20
34.2
30
0
11
11.4
21
34.24
31
0
0
ARC
8
0
6
CONTINUOUS
10
11.399999999999999
20
76.74
30
0
40
0.4
50
180.0
51
270.0000000000002
0
ARC
8
0
6
CONTINUOUS
10
11.399999999999999
20
80.14
30
0
40
0.4
50
89.99999999999974
51
180.0
0
ARC
8
0
6
CONTINUOUS
10
14.057047250671404
20
80.54214850211011
30
0
40
1.2
50
241.2575844705484
51
263.44216708959095
0
ARC
8
0
6
CONTINUOUS
10
13.954200136573373
20
79.64804420923474
30
0
40
0.3
50
263.4540237933385
51
336.8287473108134
0
ARC
8
0
6
CONTINUOUS
10
15.853779956024425
20
81.94003869044401
30
0
40
0.5
50
89.28721707827432
51
155.170297791922
0
ARC
8
0
6
CONTINUOUS
10
29.146220043975575
20
81.94003869044401
30
0
40
0.5
50
24.829702208077922
51
90.71278292172569
0
ARC
8
0
6
CONTINUOUS
10
30.34506411779037
20
79.73995725480643
30
0
40
0.3
50
269.0327788072383
51
23.58708614080091
0
ARC
8
0
6
CONTINUOUS
10
29.837244282317712
20
79.74991252120194
30
0
40
0.3
50
214.49783325477858
51
268.6163094964954
0
ARC
8
0
6
CONTINUOUS
10
29.242744603916112
20
80.32621926820308
30
0
40
0.15
50
106.55669826666954
51
215.0852856817046
0
ARC
8
0
6
CONTINUOUS
10
29.25952388617991
20
80.700637456071
30
0
40
0.2
50
287.60064187102944
51
36.641964937287824
0
ARC
8
0
6
CONTINUOUS
10
28.710000000000004
20
81.25
30
0
40
0.3
50
36.86989764584565
51
90.00000000000068
0
ARC
8
0
6
CONTINUOUS
10
28.226079943156105
20
81.25032312064914
30
0
40
0.3
50
87.34051008773463
51
197.52230585460993
0
ARC
8
0
6
CONTINUOUS
10
27.8471763775647
20
80.48477480437846
30
0
40
0.3
50
202.49375190979643
51
12.557384837647836
0
ARC
8
0
6
CONTINUOUS
10
26.963798084827868
20
81.2500641131038
30
0
40
0.3
50
17.444767641507784
51
88.81543706680878
0
ARC
8
0
6
CONTINUOUS
10
16.507750340124634
20
81.84917378333576
30
0
40
0.3
50
214.3268151121345
51
274.2532773262393
0
ARC
8
0
6
CONTINUOUS
10
16.033691373531
20
81.48306243226415
30
0
40
0.3
50
41.030338373086494
51
208.4814867339964
0
ARC
8
0
6
CONTINUOUS
10
15.51553233239558
20
81.18110945231398
30
0
40
0.3
50
336.190426257153
51
31.980807302795757
0
ARC
8
0
6
CONTINUOUS
10
15.783743936295318
20
79.839960860135
30
0
40
0.5
50
155.1604702859991
51
270.716910799912
0
ARC
8
0
6
CONTINUOUS
10
27.9917437575866
20
79.83999695930022
30
0
40
0.5
50
269.80017969452496
51
23.578558656355085
0
ARC
8
0
6
CONTINUOUS
10
28.4590518434799
20
80.80013659087908
30
0
40
0.3
50
91.72903718056897
51
201.53823081731028
0
ARC
8
0
6
CONTINUOUS
10
28.800042029424393
20
80.80016811769752
30
0
40
0.3
50
60.009268381684244
51
91.91824468246764
0
ARC
8
0
6
CONTINUOUS
10
29.26174962643511
20
80.682027819285
30
0
40
0.15
50
288.76389850431286
51
58.55571800386524
0
ARC
8
0
6
CONTINUOUS
10
29.264152203951177
20
80.31425433881464
30
0
40
0.2
50
111.76255899402395
51
214.83895253798397
0
ARC
8
0
6
CONTINUOUS
10
29.87724428231771
20
79.63991252120194
30
0
40
0.3
50
214.49783325477858
51
268.616309496496
0
ARC
8
0
6
CONTINUOUS
10
30.941333530922815
20
80.53999925903948
30
0
40
1.2
50
269.9363285754555
51
299.92650578081884
0
ARC
8
0
6
CONTINUOUS
10
33.599999999999994
20
80.14
30
0
40
0.4
50
0.0
51
89.99999999999898
0
ARC
8
0
6
CONTINUOUS
10
33.599999999999994
20
76.74
30
0
40
0.4
50
270.000000000001
51
0.0
0
ARC
8
0
6
CONTINUOUS
10
30.94133353092279
20
76.34000074096055
30
0
40
1.2
50
60.07349421917943
51
90.06367142454334
0
ARC
8
0
6
CONTINUOUS
10
14.058666469077213
20
76.34000074096055
30
0
40
1.2
50
89.93632857545676
51
119.92650578082072
0
LINE
8
0
6
CONTINUOUS
10
11.0
20
76.74
30
0
11
11.0
21
80.14
31
0
0
LINE
8
0
6
CONTINUOUS
10
11.4
20
80.54
30
0
11
11.58
21
80.54
31
0
0
LINE
8
0
6
CONTINUOUS
10
11.58
20
80.54
30
0
11
13.48
21
79.49
31
0
0
LINE
8
0
6
CONTINUOUS
10
14.23
20
79.53
30
0
11
15.4
21
82.15
31
0
0
LINE
8
0
6
CONTINUOUS
10
15.86
20
82.44
30
0
11
29.14
21
82.44
31
0
0
LINE
8
0
6
CONTINUOUS
10
29.6
20
82.15
30
0
11
30.62
21
79.86
31
0
0
LINE
8
0
6
CONTINUOUS
10
30.34
20
79.44
30
0
11
29.83
21
79.45
31
0
0
LINE
8
0
6
CONTINUOUS
10
29.83
20
79.45
30
0
11
30.94
21
79.34
31
0
0
LINE
8
0
6
CONTINUOUS
10
29.59
20
79.58
30
0
11
29.12
21
80.24
31
0
0
LINE
8
0
6
CONTINUOUS
10
29.12
20
80.24
30
0
11
29.63
21
79.47
31
0
0
LINE
8
0
6
CONTINUOUS
10
28.95
20
81.06
30
0
11
29.42
21
80.82
31
0
0
LINE
8
0
6
CONTINUOUS
10
29.42
20
80.82
30
0
11
28.95
21
81.43
31
0
0
LINE
8
0
6
CONTINUOUS
10
28.71
20
81.55
30
0
11
28.24
21
81.55
31
0
0
LINE
8
0
6
CONTINUOUS
10
27.94
20
81.16
30
0
11
28.14
21
80.55
31
0
0
LINE
8
0
6
CONTINUOUS
10
28.14
20
80.55
30
0
11
28.45
21
80.04
31
0
0
LINE
8
0
6
CONTINUOUS
10
27.57
20
80.37
30
0
11
27.25
21
81.34
31
0
0
LINE
8
0
6
CONTINUOUS
10
26.97
20
81.55
30
0
11
16.53
21
81.55
31
0
0
LINE
8
0
6
CONTINUOUS
10
15.79
20
81.06
30
0
11
15.33
21
80.05
31
0
0
LINE
8
0
6
CONTINUOUS
10
15.79
20
79.34
30
0
11
27.99
21
79.34
31
0
0
LINE
8
0
6
CONTINUOUS
10
28.45
20
81.1
30
0
11
28.79
21
81.1
31
0
0
LINE
8
0
6
CONTINUOUS
10
31.54
20
79.5
30
0
11
33.27
21
80.5
31
0
0
LINE
8
0
6
CONTINUOUS
10
33.27
20
80.5
30
0
11
33.6
21
80.54
31
0
0
LINE
8
0
6
CONTINUOUS
10
34.0
20
80.14
30
0
11
34.0
21
76.74
31
0
0
LINE
8
0
6
CONTINUOUS
10
33.6
20
76.34
30
0
11
33.42
21
76.34
31
0
0
LINE
8
0
6
CONTINUOUS
10
33.42
20
76.34
30
0
11
31.71
21
77.28
31
0
0
LINE
8
0
6
CONTINUOUS
10
31.71
20
77.28
30
0
11
31.54
21
77.38
31
0
0
LINE
8
0
6
CONTINUOUS
10
30.94
20
77.54
30
0
11
14.06
21
77.54
31
0
0
LINE
8
0
6
CONTINUOUS
10
13.46
20
77.38
30
0
11
13.29
21
77.28
31
0
0
LINE
8
0
6
CONTINUOUS
10
13.29
20
77.28
30
0
11
11.73
21
76.38
31
0
0
LINE
8
0
6
CONTINUOUS
10
11.73
20
76.38
30
0
11
11.4
21
76.34
31
0
0
ARC
8
0
6
CONTINUOUS
10
66.50002490730522
20
23.294990659760547
30
0
40
0.5
50
319.45980653966876
51
359.42810302116305
0
ARC
8
0
6
CONTINUOUS
10
66.5
20
23.54
30
0
40
0.5
50
0.0
51
90.0
0
ARC
8
0
6
CONTINUOUS
10
65.64996686218566
20
24.043640608139025
30
0
40
0.2
50
181.04301501216855
51
284.48731702468183
0
ARC
8
0
6
CONTINUOUS
10
65.85288033877025
20
25.245596011292346
30
0
40
0.2
50
313.2826787192251
51
50.5356261467642
0
ARC
8
0
6
CONTINUOUS
10
61.647119661229745
20
25.24559601129234
30
0
40
0.2
50
129.46437385323136
51
226.7173212807735
0
ARC
8
0
6
CONTINUOUS
10
61.850033137814336
20
24.043640608139025
30
0
40
0.2
50
255.51268297531817
51
358.95698498783145
0
ARC
8
0
6
CONTINUOUS
10
60.7871580780468
20
23.54016494216537
30
0
40
0.5
50
88.52826230452996
51
133.9727487097371
0
ARC
8
0
6
CONTINUOUS
10
57.30006250247212
20
17.439999997558402
30
0
40
0.8
50
269.995523590168
51
0.7162160710751054
0
ARC
8
0
6
CONTINUOUS
10
61.099998594536316
20
18.512903924956206
30
0
40
3.0
50
97.08449100742085
51
180.05546088999864
0
ARC
8
0
6
CONTINUOUS
10
64.96572667117051
20
23.538638082369957
30
0
40
1.5
50
277.05654856439173
51
301.523543873986
0
LINE
8
0
6
CONTINUOUS
10
67.0
20
23.29
30
0
11
67.0
21
23.54
31
0
0
LINE
8
0
6
CONTINUOUS
10
66.42
20
24.04
30
0
11
65.7
21
23.85
31
0
0
LINE
8
0
6
CONTINUOUS
10
65.45
20
24.04
30
0
11
65.45
21
25.04
31
0
0
LINE
8
0
6
CONTINUOUS
10
65.45
20
25.04
30
0
11
65.85
21
25.04
31
0
0
LINE
8
0
6
CONTINUOUS
10
65.98
20
25.4
30
0
11
65.35
21
25.94
31
0
0
LINE
8
0
6
CONTINUOUS
10
65.35
20
25.94
30
0
11
62.15
21
25.94
31
0
0
LINE
8
0
6
CONTINUOUS
10
62.15
20
25.94
30
0
11
61.52
21
25.4
31
0
0
LINE
8
0
6
CONTINUOUS
10
61.65
20
25.04
30
0
11
62.05
21
25.04
31
0
0
LINE
8
0
6
CONTINUOUS
10
62.05
20
25.04
30
0
11
62.05
21
24.04
31
0
0
LINE
8
0
6
CONTINUOUS
10
61.8
20
23.85
30
0
11
61.08
21
24.04
31
0
0
LINE
8
0
6
CONTINUOUS
10
61.08
20
24.04
30
0
11
60.8
21
24.04
31
0
0
LINE
8
0
6
CONTINUOUS
10
60.44
20
23.9
30
0
11
59.79
21
23.25
31
0
0
LINE
8
0
6
CONTINUOUS
10
59.79
20
23.25
30
0
11
56.3
21
23.24
31
0
0
LINE
8
0
6
CONTINUOUS
10
56.3
20
23.24
30
0
11
56.6
21
22.64
31
0
0
LINE
8
0
6
CONTINUOUS
10
56.6
20
22.64
30
0
11
56.6
21
16.64
31
0
0
LINE
8
0
6
CONTINUOUS
10
56.6
20
16.64
30
0
11
57.3
21
16.64
31
0
0
LINE
8
0
6
CONTINUOUS
10
58.1
20
17.45
30
0
11
58.1
21
18.51
31
0
0
LINE
8
0
6
CONTINUOUS
10
60.73
20
21.49
30
0
11
65.15
21
22.05
31
0
0
LINE
8
0
6
CONTINUOUS
10
65.75
20
22.26
30
0
11
66.88
21
22.97
31
0
0
ARC
8
0
6
CONTINUOUS
10
63.35
20
24.849999999999998
30
0
40
0.3
50
90.0
51
179.99999999999935
0
ARC
8
0
6
CONTINUOUS
10
63.35
20
24.04
30
0
40
0.3
50
180.0
51
270.0
0
ARC
8
0
6
CONTINUOUS
10
64.15
20
24.04
30
0
40
0.3
50
270.0
51
0.0
0
LINE
8
0
6
CONTINUOUS
10
64.15
20
25.15
30
0
11
63.35
21
25.15
31
0
0
LINE
8
0
6
CONTINUOUS
10
63.05
20
24.85
30
0
11
63.05
21
24.04
31
0
0
LINE
8
0
6
CONTINUOUS
10
63.35
20
23.74
30
0
11
64.15
21
23.74
31
0
0
LINE
8
0
6
CONTINUOUS
10
64.45
20
24.04
30
0
11
64.45
21
24.85
31
0
0
ARC
8
0
6
CONTINUOUS
10
64.15
20
24.849999999999998
30
0
40
0.3
50
6.785183320455567e-13
51
90.0
0
ARC
8
0
6
CONTINUOUS
10
3.4
20
108.24
30
0
40
0.5
50
0.0
51
90.0
0
ARC
8
0
6
CONTINUOUS
10
3.1
20
108.24
30
0
40
0.5
50
90.0
51
180.0
0
ARC
8
0
6
CONTINUOUS
10
3.1
20
105.84
30
0
40
0.5
50
180.0
51
270.0
0
ARC
8
0
6
CONTINUOUS
10
3.4
20
105.84
30
0
40
0.5
50
270.0
51
0.0
0
ARC
8
0
6
CONTINUOUS
10
5.550407505008421
20
109.77747040079645
30
0
40
0.5
50
191.24126540791357
51
314.3616521519544
0
ARC
8
0
6
CONTINUOUS
10
5.283573878814429
20
110.58141149707832
30
0
40
0.4
50
94.81476858812853
51
190.2840749483989
0
ARC
8
0
6
CONTINUOUS
10
5.863327668325909
20
110.5426896930735
30
0
40
0.53
50
313.77550842913206
51
95.77477270853154
0
ARC
8
0
6
CONTINUOUS
10
6.18
20
105.42019237886467
30
0
40
0.3
50
60.00000000000049
51
119.99999999999937
0
ARC
8
0
6
CONTINUOUS
10
5.07417237415394
20
104.68217227835929
30
0
40
0.3
50
208.28824742273733
51
299.0840477247402
0
ARC
8
0
6
CONTINUOUS
10
6.709987765299008
20
105.50278060414307
30
0
40
2.13
50
179.80580201632785
51
206.87269579039895
0
ARC
8
0
6
CONTINUOUS
10
6.70999659302362
20
105.5138096860465
30
0
40
2.13
50
174.4448995858428
51
180.10247842634485
0
ARC
8
0
6
CONTINUOUS
10
8.568885229006492
20
105.81419306977666
30
0
40
3.98
50
127.06602846520263
51
181.35612293697633
0
ARC
8
0
6
CONTINUOUS
10
6.479934147122032
20
108.44151041536986
30
0
40
0.63
50
27.25296856670733
51
119.46942009244117
0
ARC
8
0
6
CONTINUOUS
10
-3.114956014153571
20
104.74303139751946
30
0
40
10.61
50
353.6524573231689
51
7.674798676857513
0
ARC
8
0
6
CONTINUOUS
10
7.233766967495015
20
103.68996915000905
30
0
40
0.23
50
269.06156091568397
51
328.56002657026403
0
LINE
8
0
6
CONTINUOUS
10
3.4
20
108.74
30
0
11
3.1
21
108.74
31
0
0
LINE
8
0
6
CONTINUOUS
10
2.6
20
108.24
30
0
11
2.6
21
105.84
31
0
0
LINE
8
0
6
CONTINUOUS
10
3.1
20
105.34
30
0
11
3.4
21
105.34
31
0
0
LINE
8
0
6
CONTINUOUS
10
3.9
20
105.84
30
0
11
3.9
21
108.24
31
0
0
LINE
8
0
6
CONTINUOUS
10
6.23
20
110.16
30
0
11
5.9
21
109.42
31
0
0
LINE
8
0
6
CONTINUOUS
10
5.06
20
109.68
30
0
11
4.89
21
110.51
31
0
0
LINE
8
0
6
CONTINUOUS
10
5.25
20
110.98
30
0
11
5.81
21
111.07
31
0
0
LINE
8
0
6
CONTINUOUS
10
6.03
20
105.68
30
0
11
5.22
21
104.42
31
0
0
LINE
8
0
6
CONTINUOUS
10
7.04
20
108.73
30
0
11
7.4
21
106.16
31
0
0
LINE
8
0
6
CONTINUOUS
10
7.09
20
103.5
30
0
11
6.33
21
105.68
31
0
0
ARC
8
0
6
CONTINUOUS
10
2.6067600559311837
20
110.24844106269248
30
0
40
0.2
50
14.939246787475465
51
159.03517820415902
0
ARC
8
0
6
CONTINUOUS
10
3.3999999999999995
20
109.94000000000001
30
0
40
0.4
50
270.00000000000006
51
359.99999999999795
0
ARC
8
0
6
CONTINUOUS
10
4.199919931697487
20
111.6919969861254
30
0
40
0.4
50
95.72764387580213
51
178.85357620947545
0
ARC
8
0
6
CONTINUOUS
10
6.005418169012793
20
115.25056203585677
30
0
40
2.92
50
274.60789327714355
51
292.86464333410146
0
ARC
8
0
6
CONTINUOUS
10
7.341232366456955
20
112.14635095226734
30
0
40
0.46
50
4.194939047273188
51
115.9420372717122
0
ARC
8
0
6
CONTINUOUS
10
7.30002490730522
20
103.51499065976053
30
0
40
0.5
50
319.45980653967047
51
359.4281030211659
0
ARC
8
0
6
CONTINUOUS
10
7.34917688240299
20
103.40984979174739
30
0
40
0.39
50
271.5902527809169
51
318.2192848352759
0
ARC
8
0
6
CONTINUOUS
10
7.361428488612848
20
104.77999942028976
30
0
40
1.76
50
253.78629891531415
51
269.9534963763722
0
ARC
8
0
6
CONTINUOUS
10
4.52223289963749
20
104.01999750707648
30
0
40
1.0
50
269.8720641683841
51
303.9015180795046
0
ARC
8
0
6
CONTINUOUS
10
4.503638400778028
20
104.0198661400762
30
0
40
1.0
50
255.898618276879
51
270.9374924127644
0
ARC
8
0
6
CONTINUOUS
10
3.8248500936329237
20
103.3749063085206
30
0
40
0.2
50
166.96957333656667
51
257.04119307960485
0
ARC
8
0
6
CONTINUOUS
10
3.3999999999999995
20
104.14
30
0
40
0.4
50
0.0
51
89.99999999999993
0
ARC
8
0
6
CONTINUOUS
10
2.65634219861185
20
104.03996654842499
30
0
40
0.2
50
271.0479413353223
51
345.5323850491638
0
ARC
8
0
6
CONTINUOUS
10
2.653270416500402
20
104.03988674970073
30
0
40
0.2
50
209.96254416836402
51
271.9282476334831
0
LINE
8
0
6
CONTINUOUS
10
2.48
20
103.94
30
0
11
2.0
21
104.79
31
0
0
LINE
8
0
6
CONTINUOUS
10
2.0
20
104.79
30
0
11
2.0
21
105.2
31
0
0
LINE
8
0
6
CONTINUOUS
10
2.0
20
105.2
30
0
11
1.85
21
105.35
31
0
0
LINE
8
0
6
CONTINUOUS
10
1.85
20
105.35
30
0
11
2.0
21
105.5
31
0
0
LINE
8
0
6
CONTINUOUS
10
2.0
20
105.5
30
0
11
1.85
21
105.65
31
0
0
LINE
8
0
6
CONTINUOUS
10
1.85
20
105.65
30
0
11
2.0
21
105.8
31
0
0
LINE
8
0
6
CONTINUOUS
10
2.0
20
105.8
30
0
11
2.0
21
108.29
31
0
0
LINE
8
0
6
CONTINUOUS
10
2.0
20
108.29
30
0
11
1.85
21
108.44
31
0
0
LINE
8
0
6
CONTINUOUS
10
1.85
20
108.44
30
0
11
2.0
21
108.59
31
0
0
LINE
8
0
6
CONTINUOUS
10
2.0
20
108.59
30
0
11
1.85
21
108.74
31
0
0
LINE
8
0
6
CONTINUOUS
10
1.85
20
108.74
30
0
11
2.0
21
108.89
31
0
0
LINE
8
0
6
CONTINUOUS
10
2.0
20
108.89
30
0
11
2.0
21
109.3
31
0
0
LINE
8
0
6
CONTINUOUS
10
2.0
20
109.3
30
0
11
2.42
21
110.32
31
0
0
LINE
8
0
6
CONTINUOUS
10
2.8
20
110.3
30
0
11
2.85
21
110.1
31
0
0
LINE
8
0
6
CONTINUOUS
10
2.85
20
110.1
30
0
11
3.0
21
109.54
31
0
0
LINE
8
0
6
CONTINUOUS
10
3.0
20
109.54
30
0
11
3.4
21
109.54
31
0
0
LINE
8
0
6
CONTINUOUS
10
3.8
20
109.94
30
0
11
3.8
21
111.7
31
0
0
LINE
8
0
6
CONTINUOUS
10
4.16
20
112.09
30
0
11
6.24
21
112.34
31
0
0
LINE
8
0
6
CONTINUOUS
10
7.8
20
112.18
30
0
11
7.8
21
103.51
31
0
0
LINE
8
0
6
CONTINUOUS
10
6.87
20
103.09
30
0
11
6.17
21
104.96
31
0
0
LINE
8
0
6
CONTINUOUS
10
6.17
20
104.96
30
0
11
5.08
21
103.19
31
0
0
LINE
8
0
6
CONTINUOUS
10
4.26
20
103.05
30
0
11
3.78
21
103.18
31
0
0
LINE
8
0
6
CONTINUOUS
10
3.63
20
103.42
30
0
11
3.8
21
104.14
31
0
0
LINE
8
0
6
CONTINUOUS
10
3.4
20
104.54
30
0
11
3.0
21
104.54
31
0
0
LINE
8
0
6
CONTINUOUS
10
3.0
20
104.54
30
0
11
2.85
21
103.99
31
0
0
ARC
8
0
6
CONTINUOUS
10
21.427448681771075
20
78.94086218351313
30
0
40
8.0
50
90.8411944414068
51
147.2385709107803
0
ARC
8
0
6
CONTINUOUS
10
23.573099311414257
20
78.94001072450465
30
0
40
8.0
50
32.76868102035462
51
90.09381694924309
0
ARC
8
0
6
CONTINUOUS
10
13.852352696977107
20
87.74000138379624
30
0
40
2.0
50
90.06739981917532
51
109.94855978370582
0
ARC
8
0
6
CONTINUOUS
10
2.8
20
88.18
30
0
40
1.0
50
90.0
51
180.0
0
ARC
8
0
6
CONTINUOUS
10
3.8
20
81.84
30
0
40
0.2
50
270.0
51
0.0
0
ARC
8
0
6
CONTINUOUS
10
4.499894912150196
20
82.94974930215312
30
0
40
0.5
50
109.86406955233466
51
178.8252742518657
0
ARC
8
0
6
CONTINUOUS
10
11.392915722090256
20
85.44831444180511
30
0
40
1.0112492197250391
50
5.20190204577005
51
169.0732875020068
0
ARC
8
0
6
CONTINUOUS
10
13.65
20
83.94
30
0
40
1.25
50
180.0
51
0.0
0
ARC
8
0
6
CONTINUOUS
10
15.4
20
86.44
30
0
40
0.5
50
90.0
51
180.0
0
ARC
8
0
6
CONTINUOUS
10
29.6
20
86.44
30
0
40
0.5
50
0.0
51
90.0
0
ARC
8
0
6
CONTINUOUS
10
31.35
20
83.94
30
0
40
1.25
50
180.0
51
0.0
0
ARC
8
0
6
CONTINUOUS
10
33.1
20
86.44
30
0
40
0.5
50
90.0
51
180.0
0
ARC
8
0
6
CONTINUOUS
10
42.80002444017948
20
86.44699140627127
30
0
40
1.0
50
359.59941866436316
51
150.46147973003974
0
ARC
8
0
6
CONTINUOUS
10
44.0
20
82.74000000000001
30
0
40
0.2
50
180.00000000000406
51
270.0
0
ARC
8
0
6
CONTINUOUS
10
45.8
20
83.04
30
0
40
0.5
50
270.0
51
0.0
0
ARC
8
0
6
CONTINUOUS
10
43.520863100146464
20
87.74000018623546
30
0
40
2.0
50
10.078652688913055
51
90.02472599861214
0
ARC
8
0
6
CONTINUOUS
10
3.9396060222401985
20
84.13264986374676
30
0
40
2.0
50
110.1697713007375
51
169.99843551845132
0
ARC
8
0
6
CONTINUOUS
10
3.7999941008040565
20
83.34485764850251
30
0
40
2.0
50
170.06265357682517
51
180.1391615155994
0
ARC
8
0
6
CONTINUOUS
10
2.25
20
81.23539392014169
30
0
40
0.4600000000000001
50
191.96874555468492
51
348.0312544453151
0
ARC
8
0
6
CONTINUOUS
10
44.30000589919594
20
83.34485764850254
30
0
40
2.0
50
359.8608384843998
51
9.937346423174017
0
LINE
8
0
6
CONTINUOUS
10
45.49
20
88.09
30
0
11
46.27
21
83.69
31
0
0
LINE
8
0
6
CONTINUOUS
10
2.8
20
89.18
30
0
11
11.94
21
89.18
31
0
0
LINE
8
0
6
CONTINUOUS
10
1.8
20
81.14
30
0
11
1.8
21
83.34
31
0
0
LINE
8
0
6
CONTINUOUS
10
1.8
20
83.34
30
0
11
1.8
21
88.18
31
0
0
LINE
8
0
6
CONTINUOUS
10
2.7
20
81.14
30
0
11
2.7
21
81.64
31
0
0
LINE
8
0
6
CONTINUOUS
10
2.7
20
81.64
30
0
11
1.8
21
81.64
31
0
0
LINE
8
0
6
CONTINUOUS
10
4.0
20
81.84
30
0
11
4.0
21
82.96
31
0
0
LINE
8
0
6
CONTINUOUS
10
4.33
20
83.42
30
0
11
10.4
21
85.64
31
0
0
LINE
8
0
6
CONTINUOUS
10
12.4
20
85.54
30
0
11
12.4
21
83.94
31
0
0
LINE
8
0
6
CONTINUOUS
10
14.9
20
83.94
30
0
11
14.9
21
86.44
31
0
0
LINE
8
0
6
CONTINUOUS
10
15.4
20
86.94
30
0
11
29.6
21
86.94
31
0
0
LINE
8
0
6
CONTINUOUS
10
30.1
20
86.44
30
0
11
30.1
21
83.94
31
0
0
LINE
8
0
6
CONTINUOUS
10
32.6
20
83.94
30
0
11
32.6
21
86.44
31
0
0
LINE
8
0
6
CONTINUOUS
10
33.1
20
86.94
30
0
11
41.93
21
86.94
31
0
0
LINE
8
0
6
CONTINUOUS
10
43.8
20
86.44
30
0
11
43.8
21
82.74
31
0
0
LINE
8
0
6
CONTINUOUS
10
44.0
20
82.54
30
0
11
45.8
21
82.54
31
0
0
LINE
8
0
6
CONTINUOUS
10
1.97
20
84.48
30
0
11
1.83
21
83.69
31
0
0
LINE
8
0
6
CONTINUOUS
10
13.17
20
89.62
30
0
11
3.25
21
86.01
31
0
0
LINE
8
0
6
CONTINUOUS
10
43.52
20
89.74
30
0
11
13.85
21
89.74
31
0
0
LINE
8
0
6
CONTINUOUS
10
2.7
20
81.64
30
0
11
3.8
21
81.64
31
0
0
LINE
8
0
6
CONTINUOUS
10
46.3
20
83.04
30
0
11
46.3
21
83.34
31
0
0
ARC
8
0
6
CONTINUOUS
10
58.97575775396983
20
24.4398985740704
30
0
40
1.0
50
270.81604817798404
51
315.5811328493121
0
ARC
8
0
6
CONTINUOUS
10
61.599999999999994
20
24.44
30
0
40
0.4
50
270.000000000001
51
0.0
0
ARC
8
0
6
CONTINUOUS
10
61.599999999999994
20
24.44
30
0
40
0.4
50
0.0
51
89.99999999999898
0
ARC
8
0
6
CONTINUOUS
10
61.2
20
26.14
30
0
40
0.5
50
90.0
51
180.0
0
ARC
8
0
6
CONTINUOUS
10
66.0
20
26.14
30
0
40
0.5
50
0.0
51
90.0
0
ARC
8
0
6
CONTINUOUS
10
65.9
20
24.44
30
0
40
0.4
50
90.0
51
180.0
0
ARC
8
0
6
CONTINUOUS
10
65.9
20
24.44
30
0
40
0.4
50
180.0
51
270.0
0
ARC
8
0
6
CONTINUOUS
10
67.5
20
23.240000000000002
30
0
40
0.2
50
180.00000000000102
51
270.0
0
ARC
8
0
6
CONTINUOUS
10
67.80000000000001
20
23.240000000000002
30
0
40
0.2
50
269.9999999999959
51
359.999999999999
0
ARC
8
0
6
CONTINUOUS
10
67.0
20
35.04
30
0
40
1.0
50
0.0
51
90.0
0
ARC
8
0
6
CONTINUOUS
10
65.69999999999999
20
35.839999999999996
30
0
40
0.2
50
89.99999999999592
51
179.99999999999795
0
ARC
8
0
6
CONTINUOUS
10
60.0
20
27.54
30
0
40
0.5
50
90.0
51
180.0
0
ARC
8
0
6
CONTINUOUS
10
56.7
20
27.54
30
0
40
0.5
50
0.0
51
90.0
0
ARC
8
0
6
CONTINUOUS
10
35.21
20
27.54
30
0
40
0.5
50
90.0
51
180.0
0
ARC
8
0
6
CONTINUOUS
10
35.21
20
26.94
30
0
40
0.5
50
180.0
51
270.0
0
LINE
8
0
6
CONTINUOUS
10
57.76
20
23.44
30
0
11
58.99
21
23.44
31
0
0
LINE
8
0
6
CONTINUOUS
10
59.69
20
23.74
30
0
11
60.0
21
24.04
31
0
0
LINE
8
0
6
CONTINUOUS
10
60.0
20
24.04
30
0
11
61.6
21
24.04
31
0
0
LINE
8
0
6
CONTINUOUS
10
61.6
20
24.84
30
0
11
60.7
21
24.84
31
0
0
LINE
8
0
6
CONTINUOUS
10
60.7
20
24.84
30
0
11
60.7
21
26.14
31
0
0
LINE
8
0
6
CONTINUOUS
10
61.2
20
26.64
30
0
11
66.0
21
26.64
31
0
0
LINE
8
0
6
CONTINUOUS
10
66.5
20
26.14
30
0
11
66.5
21
24.84
31
0
0
LINE
8
0
6
CONTINUOUS
10
66.5
20
24.84
30
0
11
65.9
21
24.84
31
0
0
LINE
8
0
6
CONTINUOUS
10
65.9
20
24.04
30
0
11
67.3
21
24.04
31
0
0
LINE
8
0
6
CONTINUOUS
10
67.3
20
24.04
30
0
11
67.3
21
23.24
31
0
0
LINE
8
0
6
CONTINUOUS
10
67.5
20
23.04
30
0
11
67.8
21
23.04
31
0
0
LINE
8
0
6
CONTINUOUS
10
68.0
20
23.24
30
0
11
68.0
21
35.04
31
0
0
LINE
8
0
6
CONTINUOUS
10
67.0
20
36.04
30
0
11
65.7
21
36.04
31
0
0
LINE
8
0
6
CONTINUOUS
10
65.5
20
35.84
30
0
11
65.5
21
34.24
31
0
0
LINE
8
0
6
CONTINUOUS
10
65.5
20
34.24
30
0
11
66.2
21
34.24
31
0
0
LINE
8
0
6
CONTINUOUS
10
66.2
20
34.24
30
0
11
66.2
21
28.04
31
0
0
LINE
8
0
6
CONTINUOUS
10
66.2
20
28.04
30
0
11
60.0
21
28.04
31
0
0
LINE
8
0
6
CONTINUOUS
10
59.5
20
27.54
30
0
11
59.5
21
25.52
31
0
0
LINE
8
0
6
CONTINUOUS
10
59.5
20
25.52
30
0
11
59.08
21
25.1
31
0
0
LINE
8
0
6
CONTINUOUS
10
59.08
20
25.1
30
0
11
57.76
21
25.04
31
0
0
LINE
8
0
6
CONTINUOUS
10
57.76
20
25.04
30
0
11
57.2
21
25.52
31
0
0
LINE
8
0
6
CONTINUOUS
10
57.2
20
25.52
30
0
11
57.2
21
27.54
31
0
0
LINE
8
0
6
CONTINUOUS
10
56.7
20
28.04
30
0
11
35.21
21
28.04
31
0
0
LINE
8
0
6
CONTINUOUS
10
34.71
20
27.54
30
0
11
34.71
21
26.94
31
0
0
LINE
8
0
6
CONTINUOUS
10
35.21
20
26.44
30
0
11
50.41
21
26.44
31
0
0
LINE
8
0
6
CONTINUOUS
10
50.41
20
26.44
30
0
11
50.71
21
26.74
31
0
0
LINE
8
0
6
CONTINUOUS
10
50.71
20
26.74
30
0
11
51.01
21
26.44
31
0
0
LINE
8
0
6
CONTINUOUS
10
51.01
20
26.44
30
0
11
55.6
21
26.44
31
0
0
LINE
8
0
6
CONTINUOUS
10
55.6
20
26.44
30
0
11
55.6
21
24.86
31
0
0
LINE
8
0
6
CONTINUOUS
10
55.6
20
24.86
30
0
11
56.49
21
23.97
31
0
0
ARC
8
0
6
CONTINUOUS
10
57.765586932772685
20
25.239991329474172
30
0
40
1.8
50
224.87405457486395
51
269.82216212095494
0
ARC
8
0
6
CONTINUOUS
10
2.6999999999999997
20
16.22
30
0
40
0.3
50
89.99999999999993
51
180.0
0
ARC
8
0
6
CONTINUOUS
10
3.5
20
16.22
30
0
40
0.3
50
0.0
51
90.0
0
ARC
8
0
6
CONTINUOUS
10
3.5
20
13.860000000000001
30
0
40
0.3
50
270.0
51
359.99999999999966
0
ARC
8
0
6
CONTINUOUS
10
2.6999999999999997
20
13.860000000000001
30
0
40
0.3
50
180.00000000000034
51
270.00000000000006
0
ARC
8
0
6
CONTINUOUS
10
4.3302382239243915
20
10.309999864879389
30
0
40
0.21
50
269.93500367440896
51
357.2706342709985
0
ARC
8
0
6
CONTINUOUS
10
4.05
20
10.35
30
0
40
0.25
50
180.0
51
270.0
0
ARC
8
0
6
CONTINUOUS
10
3.796359391860976
20
12.360033137814343
30
0
40
0.2
50
345.5126829753172
51
88.95698498783206
0
ARC
8
0
6
CONTINUOUS
10
2.700012915818433
20
12.122272918950372
30
0
40
0.2
50
221.40402775994104
51
359.34884266773145
0
ARC
8
0
6
CONTINUOUS
10
2.700012915818433
20
17.89772708104963
30
0
40
0.2
50
0.6511573322670549
51
138.59597224005935
0
ARC
8
0
6
CONTINUOUS
10
3.812285439693895
20
17.719851158513737
30
0
40
0.2
50
272.21060714232794
51
8.670056919683363
0
ARC
8
0
6
CONTINUOUS
10
3.9977352534308177
20
19.81001282310364
30
0
40
0.2
50
89.3511840331457
51
188.63064216371464
0
ARC
8
0
6
CONTINUOUS
10
4.346325030024023
20
19.810100040032037
30
0
40
0.2
50
14.447914900665006
51
91.81228980764507
0
ARC
8
0
6
CONTINUOUS
10
5.664703329532074
20
16.386660891644006
30
0
40
1.0
50
164.7317143237115
51
206.52965119155894
0
ARC
8
0
6
CONTINUOUS
10
-12.75163037496336
20
7.381818592530233
30
0
40
19.5
50
12.583104809077177
51
26.032512550873673
0
ARC
8
0
6
CONTINUOUS
10
6.789509609169463
20
11.652359744273612
30
0
40
0.51
50
182.51280344338997
51
302.0306817119717
0
ARC
8
0
6
CONTINUOUS
10
7.646674450863
20
17.459054661686967
30
0
40
0.35
50
33.06281113331599
51
205.20577326113627
0
ARC
8
0
6
CONTINUOUS
10
1.7951951745413863
20
14.297184219641563
30
0
40
7.0
50
326.1693129435488
51
28.61839306133232
0
ARC
8
0
6
CONTINUOUS
10
6.944122119601305
20
10.78666089587097
30
0
40
0.77
50
253.07811225609117
51
329.8571906221067
0
LINE
8
0
6
CONTINUOUS
10
2.4
20
13.86
30
0
11
2.4
21
16.22
31
0
0
LINE
8
0
6
CONTINUOUS
10
2.7
20
16.52
30
0
11
3.5
21
16.52
31
0
0
LINE
8
0
6
CONTINUOUS
10
3.8
20
16.22
30
0
11
3.8
21
13.86
31
0
0
LINE
8
0
6
CONTINUOUS
10
3.5
20
13.56
30
0
11
2.7
21
13.56
31
0
0
LINE
8
0
6
CONTINUOUS
10
4.33
20
10.1
30
0
11
4.05
21
10.1
31
0
0
LINE
8
0
6
CONTINUOUS
10
3.8
20
10.35
30
0
11
3.8
21
11.59
31
0
0
LINE
8
0
6
CONTINUOUS
10
3.8
20
11.59
30
0
11
3.99
21
12.31
31
0
0
LINE
8
0
6
CONTINUOUS
10
3.8
20
12.56
30
0
11
2.9
21
12.56
31
0
0
LINE
8
0
6
CONTINUOUS
10
2.9
20
12.56
30
0
11
2.9
21
12.12
31
0
0
LINE
8
0
6
CONTINUOUS
10
2.55
20
11.99
30
0
11
2.0
21
12.64
31
0
0
LINE
8
0
6
CONTINUOUS
10
2.0
20
12.64
30
0
11
2.0
21
17.38
31
0
0
LINE
8
0
6
CONTINUOUS
10
2.0
20
17.38
30
0
11
2.55
21
18.03
31
0
0
LINE
8
0
6
CONTINUOUS
10
2.9
20
17.9
30
0
11
2.9
21
17.52
31
0
0
LINE
8
0
6
CONTINUOUS
10
2.9
20
17.52
30
0
11
3.82
21
17.52
31
0
0
LINE
8
0
6
CONTINUOUS
10
4.01
20
17.75
30
0
11
3.82
21
18.84
31
0
0
LINE
8
0
6
CONTINUOUS
10
3.82
20
18.84
30
0
11
3.8
21
19.78
31
0
0
LINE
8
0
6
CONTINUOUS
10
4.0
20
20.01
30
0
11
4.34
21
20.01
31
0
0
LINE
8
0
6
CONTINUOUS
10
4.54
20
19.86
30
0
11
5.1
21
18.46
31
0
0
LINE
8
0
6
CONTINUOUS
10
5.1
20
18.46
30
0
11
5.1
21
18.05
31
0
0
LINE
8
0
6
CONTINUOUS
10
5.1
20
18.05
30
0
11
4.7
21
16.65
31
0
0
LINE
8
0
6
CONTINUOUS
10
6.72
20
10.05
30
0
11
4.82
21
10.5
31
0
0
ARC
8
0
6
CONTINUOUS
10
4.749250760790305
20
10.302276594326191
30
0
40
0.21
50
70.31181322974781
51
175.1586393144671
0
ARC
8
0
6
CONTINUOUS
10
0.9329258872938153
20
14.542628901548552
30
0
40
6.97
50
331.52962570012255
51
23.393285103079837
0
ARC
8
0
6
CONTINUOUS
10
19.099999999999998
20
7.799999999999999
30
0
40
0.2
50
179.99999999999974
51
270.000000000001
0
ARC
8
0
6
CONTINUOUS
10
21.2
20
8.430000017071425
30
0
40
0.2
50
359.99999510939693
51
180.00000489060307
0
ARC
8
0
6
CONTINUOUS
10
21.200110545765806
20
7.403351234253173
30
0
40
0.2
50
293.5436292786573
51
1.9050820921885188
0
ARC
8
0
6
CONTINUOUS
10
21.41076696830622
20
6.949999999999999
30
0
40
0.3
50
115.84193276316685
51
244.15806723683306
0
ARC
8
0
6
CONTINUOUS
10
21.200110545765806
20
6.4966487657468255
30
0
40
0.2
50
358.094917907812
51
66.45637072134282
0
ARC
8
0
6
CONTINUOUS
10
21.2
20
5.469999982928575
30
0
40
0.2
50
179.99999510939693
51
4.890603060390463e-06
0
ARC
8
0
6
CONTINUOUS
10
19.099999999999998
20
6.1
30
0
40
0.2
50
89.99999999999898
51
180.0
0
ARC
8
0
6
CONTINUOUS
10
19.120186206538676
20
1.656240253116305
30
0
40
0.3
50
137.21890605657052
51
287.42032695979015
0
ARC
8
0
6
CONTINUOUS
10
21.375930950837745
20
2.831655360615071
30
0
40
0.2
50
13.98826718017623
51
213.93671076898028
0
ARC
8
0
6
CONTINUOUS
10
21.964058857772276
20
0.15991173759694555
30
0
40
0.2
50
271.70226229264637
51
11.562766937631004
0
ARC
8
0
6
CONTINUOUS
10
20.460741136709004
20
0.17944682025403544
30
0
40
0.2
50
53.395043914473284
51
107.68031166947519
0
ARC
8
0
6
CONTINUOUS
10
0.5
20
0.5
30
0
40
0.5
50
180.0
51
270.0
0
ARC
8
0
6
CONTINUOUS
10
0.4999974324288984
20
0.7716023621654134
30
0
40
0.5
50
94.58827056781759
51
180.18361749296002
0
ARC
8
0
6
CONTINUOUS
10
13.552634014566094
20
3.306698242110033
30
0
40
0.5
50
276.5881657857177
51
26.525976965555493
0
ARC
8
0
6
CONTINUOUS
10
13.947622306626872
20
4.78278750101843
30
0
40
0.5
50
66.1242006740503
51
206.46013309844955
0
ARC
8
0
6
CONTINUOUS
10
14.946081708835413
20
7.074735379518717
30
0
40
2.0
50
246.5442401723841
51
280.7753763357961
0
ARC
8
0
6
CONTINUOUS
10
14.947301521191921
20
7.070396957616163
30
0
40
1.77
50
278.53521325265126
51
314.5948891015046
0
ARC
8
0
6
CONTINUOUS
10
14.942840260384099
20
7.069053246538633
30
0
40
2.0
50
312.7327684866176
51
10.397333867538427
0
ARC
8
0
6
CONTINUOUS
10
14.947894810607458
20
7.06894740530373
30
0
40
1.77
50
8.154195613663136
51
44.975906740492846
0
ARC
8
0
6
CONTINUOUS
10
14.940946753461368
20
7.072840260384098
30
0
40
2.0
50
42.732768486617616
51
100.39733386753848
0
ARC
8
0
6
CONTINUOUS
10
14.939287818178146
20
7.066249350656843
30
0
40
1.77
50
97.76965640716332
51
134.44005161103524
0
ARC
8
0
6
CONTINUOUS
10
14.94315722308531
20
7.06725917771929
30
0
40
2.0
50
132.57685875414603
51
165.1451963718962
0
ARC
8
0
6
CONTINUOUS
10
12.526093138148356
20
7.7058338152202905
30
0
40
0.5
50
206.850727827215
51
345.4237840713089
0
ARC
8
0
6
CONTINUOUS
10
11.189629773466145
20
8.620000228446232
30
0
40
0.3
50
25.679240208033065
51
89.92929192254007
0
ARC
8
0
6
CONTINUOUS
10
9.0
20
9.12
30
0
40
0.2
50
180.0
51
270.0
0
ARC
8
0
6
CONTINUOUS
10
9.3
20
14.5
30
0
40
0.5
50
90.0
51
180.0
0
ARC
8
0
6
CONTINUOUS
10
9.9
20
14.5
30
0
40
0.5
50
0.0
51
90.0
0
ARC
8
0
6
CONTINUOUS
10
10.899973037730172
20
13.585192450564449
30
0
40
0.5
50
180.5950217008087
51
210.68947121360895
0
ARC
8
0
6
CONTINUOUS
10
12.163017960367593
20
11.409990891832262
30
0
40
0.5
50
209.9987948242638
51
269.65416511644764
0
ARC
8
0
6
CONTINUOUS
10
16.6
20
11.41
30
0
40
0.5
50
270.0
51
0.0
0
ARC
8
0
6
CONTINUOUS
10
17.6
20
13.4
30
0
40
0.5
50
90.0
51
180.0
0
ARC
8
0
6
CONTINUOUS
10
20.460741136709004
20
13.720553179745965
30
0
40
0.2
50
252.31968833052488
51
306.6049560855268
0
ARC
8
0
6
CONTINUOUS
10
21.96405885777228
20
13.740088262403054
30
0
40
0.2
50
348.4372330623687
51
88.29773770735466
0
ARC
8
0
6
CONTINUOUS
10
21.37593095083775
20
11.068344639384929
30
0
40
0.2
50
146.06328923102026
51
346.0117328198234
0
LINE
8
0
6
CONTINUOUS
10
18.9
20
12.04
30
0
11
18.9
21
7.8
31
0
0
LINE
8
0
6
CONTINUOUS
10
19.1
20
7.6
30
0
11
19.45
21
7.6
31
0
0
LINE
8
0
6
CONTINUOUS
10
19.45
20
7.6
30
0
11
21.0
21
8.43
31
0
0
LINE
8
0
6
CONTINUOUS
10
21.4
20
8.43
30
0
11
21.4
21
7.41
31
0
0
LINE
8
0
6
CONTINUOUS
10
21.4
20
6.49
30
0
11
21.4
21
5.47
31
0
0
LINE
8
0
6
CONTINUOUS
10
21.0
20
5.47
30
0
11
19.55
21
6.28
31
0
0
LINE
8
0
6
CONTINUOUS
10
19.55
20
6.28
30
0
11
19.1
21
6.3
31
0
0
LINE
8
0
6
CONTINUOUS
10
18.9
20
6.1
30
0
11
18.9
21
1.86
31
0
0
LINE
8
0
6
CONTINUOUS
10
19.21
20
1.37
30
0
11
19.37
21
1.42
31
0
0
LINE
8
0
6
CONTINUOUS
10
19.37
20
1.42
30
0
11
21.21
21
2.72
31
0
0
LINE
8
0
6
CONTINUOUS
10
21.57
20
2.88
30
0
11
22.16
21
0.2
31
0
0
LINE
8
0
6
CONTINUOUS
10
21.97
20
-0.04
30
0
11
21.13
21
-0.04
31
0
0
LINE
8
0
6
CONTINUOUS
10
21.13
20
-0.04
30
0
11
20.58
21
0.34
31
0
0
LINE
8
0
6
CONTINUOUS
10
20.4
20
0.37
30
0
11
18.9
21
-0.0
31
0
0
LINE
8
0
6
CONTINUOUS
10
18.9
20
0.0
30
0
11
10.9
21
0.0
31
0
0
LINE
8
0
6
CONTINUOUS
10
10.9
20
0.0
30
0
11
10.9
21
0.3
31
0
0
LINE
8
0
6
CONTINUOUS
10
10.9
20
0.3
30
0
11
5.9
21
0.3
31
0
0
LINE
8
0
6
CONTINUOUS
10
5.9
20
0.3
30
0
11
5.9
21
-0.0
31
0
0
LINE
8
0
6
CONTINUOUS
10
5.9
20
-0.0
30
0
11
0.5
21
-0.0
31
0
0
LINE
8
0
6
CONTINUOUS
10
-0.0
20
0.5
30
0
11
-0.0
21
0.77
31
0
0
LINE
8
0
6
CONTINUOUS
10
0.46
20
1.27
30
0
11
13.61
21
2.81
31
0
0
LINE
8
0
6
CONTINUOUS
10
14.0
20
3.53
30
0
11
13.5
21
4.56
31
0
0
LINE
8
0
6
CONTINUOUS
10
15.32
20
5.11
30
0
11
15.21
21
5.32
31
0
0
LINE
8
0
6
CONTINUOUS
10
16.19
20
5.81
30
0
11
16.3
21
5.6
31
0
0
LINE
8
0
6
CONTINUOUS
10
16.91
20
7.43
30
0
11
16.7
21
7.32
31
0
0
LINE
8
0
6
CONTINUOUS
10
16.2
20
8.32
30
0
11
16.41
21
8.43
31
0
0
LINE
8
0
6
CONTINUOUS
10
14.58
20
9.04
30
0
11
14.7
21
8.82
31
0
0
LINE
8
0
6
CONTINUOUS
10
13.7
20
8.33
30
0
11
13.59
21
8.54
31
0
0
LINE
8
0
6
CONTINUOUS
10
12.08
20
7.48
30
0
11
11.46
21
8.75
31
0
0
LINE
8
0
6
CONTINUOUS
10
11.19
20
8.92
30
0
11
9.0
21
8.92
31
0
0
LINE
8
0
6
CONTINUOUS
10
8.8
20
9.12
30
0
11
8.8
21
14.5
31
0
0
LINE
8
0
6
CONTINUOUS
10
9.3
20
15.0
30
0
11
9.9
21
15.0
31
0
0
LINE
8
0
6
CONTINUOUS
10
10.4
20
14.5
30
0
11
10.4
21
13.58
31
0
0
LINE
8
0
6
CONTINUOUS
10
10.47
20
13.33
30
0
11
11.73
21
11.16
31
0
0
LINE
8
0
6
CONTINUOUS
10
12.16
20
10.91
30
0
11
14.23
21
10.91
31
0
0
LINE
8
0
6
CONTINUOUS
10
14.23
20
10.91
30
0
11
14.53
21
10.61
31
0
0
LINE
8
0
6
CONTINUOUS
10
14.53
20
10.61
30
0
11
14.83
21
10.91
31
0
0
LINE
8
0
6
CONTINUOUS
10
14.83
20
10.91
30
0
11
16.6
21
10.91
31
0
0
LINE
8
0
6
CONTINUOUS
10
17.1
20
11.41
30
0
11
17.1
21
13.4
31
0
0
LINE
8
0
6
CONTINUOUS
10
17.6
20
13.9
30
0
11
18.9
21
13.9
31
0
0
LINE
8
0
6
CONTINUOUS
10
18.9
20
13.9
30
0
11
20.4
21
13.53
31
0
0
LINE
8
0
6
CONTINUOUS
10
20.58
20
13.56
30
0
11
21.01
21
13.9
31
0
0
LINE
8
0
6
CONTINUOUS
10
21.01
20
13.9
30
0
11
21.97
21
13.94
31
0
0
LINE
8
0
6
CONTINUOUS
10
22.16
20
13.7
30
0
11
21.57
21
11.02
31
0
0
LINE
8
0
6
CONTINUOUS
10
21.21
20
11.18
30
0
11
19.42
21
12.45
31
0
0
LINE
8
0
6
CONTINUOUS
10
19.42
20
12.45
30
0
11
19.21
21
12.53
31
0
0
ARC
8
0
6
CONTINUOUS
10
19.120186206538673
20
12.243759746883695
30
0
40
0.3
50
72.57967304020919
51
222.78109394343005
0
ARC
8
0
6
CONTINUOUS
10
34.67981379346132
20
12.243759746883692
30
0
40
0.3
50
317.2189060565709
51
107.42032695978867
0
ARC
8
0
6
CONTINUOUS
10
34.699999999999996
20
7.799999999999999
30
0
40
0.2
50
270.00000000000205
51
2.544443745170777e-13
0
ARC
8
0
6
CONTINUOUS
10
32.599999999999994
20
8.430000017071425
30
0
40
0.2
50
359.99999510939693
51
180.00000489060307
0
ARC
8
0
6
CONTINUOUS
10
32.599889454234194
20
7.403351234253177
30
0
40
0.2
50
178.09491790781254
51
246.45637072134406
0
ARC
8
0
6
CONTINUOUS
10
32.389233031693784
20
6.949999999999999
30
0
40
0.3
50
295.8419327631669
51
64.15806723683316
0
ARC
8
0
6
CONTINUOUS
10
32.599889454234194
20
6.496648765746823
30
0
40
0.2
50
113.54362927865596
51
181.9050820921872
0
ARC
8
0
6
CONTINUOUS
10
32.599999999999994
20
5.470000017071425
30
0
40
0.2
50
180.00000489060307
51
359.99999510939693
0
ARC
8
0
6
CONTINUOUS
10
34.699999999999996
20
6.1
30
0
40
0.2
50
0.0
51
89.99999999999797
0
ARC
8
0
6
CONTINUOUS
10
34.67981379346132
20
1.656240253116308
30
0
40
0.3
50
252.57967304021133
51
42.78109394342903
0
ARC
8
0
6
CONTINUOUS
10
32.42406904916224
20
2.8316553606150543
30
0
40
0.2
50
326.06328923102654
51
166.01173281981835
0
ARC
8
0
6
CONTINUOUS
10
31.83594114222772
20
0.15991173759694544
30
0
40
0.2
50
168.43723306236876
51
268.29773770735363
0
ARC
8
0
6
CONTINUOUS
10
33.33925886329099
20
0.17944682025403544
30
0
40
0.2
50
72.31968833052483
51
126.60495608552674
0
ARC
8
0
6
CONTINUOUS
10
36.3
20
0.2
30
0
40
0.2
50
270.0
51
0.0
0
ARC
8
0
6
CONTINUOUS
10
36.7
20
0.20000000000000007
30
0
40
0.2
50
90.0
51
180.0
0
ARC
8
0
6
CONTINUOUS
10
38.699999999999996
20
0.20000000000000004
30
0
40
0.2
50
360.0
51
89.99999999999797
0
ARC
8
0
6
CONTINUOUS
10
39.1
20
0.2
30
0
40
0.2
50
180.0
51
270.0
0
ARC
8
0
6
CONTINUOUS
10
48.25
20
0.2
30
0
40
0.2
50
270.0
51
0.0
0
ARC
8
0
6
CONTINUOUS
10
49.55
20
0.9999999301073587
30
0
40
1.1
50
3.640503061700172e-06
51
179.99999635949695
0
ARC
8
0
6
CONTINUOUS
10
59.73
20
0.5
30
0
40
0.5
50
270.0
51
0.0
0
ARC
8
0
6
CONTINUOUS
10
60.9989655617658
20
7.074482678945406
30
0
40
3.5
50
257.30832570192854
51
341.0866463902004
0
ARC
8
0
6
CONTINUOUS
10
64.78024709941812
20
5.770095128119119
30
0
40
0.5
50
88.88232903510416
51
160.13471694023391
0
ARC
8
0
6
CONTINUOUS
10
65.9
20
5.77
30
0
40
0.5
50
0.0
51
90.0
0
ARC
8
0
6
CONTINUOUS
10
67.5
20
0.5
30
0
40
0.5
50
270.0
51
0.0
0
ARC
8
0
6
CONTINUOUS
10
67.50000721799984
20
11.782686623853575
30
0
40
0.5
50
359.6921341026498
51
54.55047270566684
0
ARC
8
0
6
CONTINUOUS
10
59.33376250609273
20
17.50003890784406
30
0
40
0.5
50
55.0770048627362
51
89.28521730821774
0
ARC
8
0
6
CONTINUOUS
10
57.95280642883585
20
17.500007876104842
30
0
40
0.5
50
90.32159474420669
51
164.93087253313246
0
ARC
8
0
6
CONTINUOUS
10
56.66471012419045
20
16.62038993494786
30
0
40
0.5
50
318.6406227465807
51
346.067426525942
0
ARC
8
0
6
CONTINUOUS
10
33.3023490945549
20
13.748210932181046
30
0
40
0.2
50
232.2841807017149
51
289.7705660684933
0
ARC
8
0
6
CONTINUOUS
10
31.83594114222772
20
13.740088262403056
30
0
40
0.2
50
91.70226229264638
51
191.56276693763178
0
ARC
8
0
6
CONTINUOUS
10
32.42406904916224
20
11.068344639384945
30
0
40
0.2
50
193.98826718018154
51
33.936710768973654
0
ARC
8
0
6
CONTINUOUS
10
36.7
20
2.2
30
0
40
0.2
50
180.0
51
270.0
0
ARC
8
0
6
CONTINUOUS
10
49.5513950480819
20
1.0085894329443068
30
0
40
2.7
50
19.278005284784733
51
158.45763416495262
0
ARC
8
0
6
CONTINUOUS
10
58.13
20
2.4
30
0
40
0.5
50
270.0
51
0.0
0
ARC
8
0
6
CONTINUOUS
10
59.12999983986672
20
5.490400166538616
30
0
40
0.5
50
87.70753885942437
51
180.0458557124254
0
ARC
8
0
6
CONTINUOUS
10
59.41217049194151
20
5.480775082271306
30
0
40
0.5
50
44.3027660156826
51
86.80932442348568
0
ARC
8
0
6
CONTINUOUS
10
60.98592924901167
20
7.088576998597196
30
0
40
1.75
50
225.98738653810054
51
243.67974139031338
0
ARC
8
0
6
CONTINUOUS
10
61.001446329594465
20
7.075327565143347
30
0
40
2.0
50
243.2099090760804
51
298.63818162946495
0
ARC
8
0
6
CONTINUOUS
10
61.011866200740414
20
7.082409128196296
30
0
40
1.75
50
296.03586037605913
51
327.02768110610697
0
ARC
8
0
6
CONTINUOUS
10
61.00643879476411
20
7.0750490391706595
30
0
40
2.0
50
325.76943448551407
51
26.26193350974145
0
ARC
8
0
6
CONTINUOUS
10
60.99875084210575
20
7.083953872368848
30
0
40
1.75
50
23.79434128767294
51
59.38376880161579
0
ARC
8
0
6
CONTINUOUS
10
60.99840387822031
20
7.077695084311072
30
0
40
2.0
50
57.26201715262282
51
112.90485083535728
0
ARC
8
0
6
CONTINUOUS
10
61.004130458163054
20
7.079265535163037
30
0
40
1.75
50
113.01248432454798
51
134.84711051957356
0
ARC
8
0
6
CONTINUOUS
10
59.41217049194151
20
8.669224917728696
30
0
40
0.5
50
273.1906755765143
51
315.6972339843172
0
ARC
8
0
6
CONTINUOUS
10
59.14990790552664
20
8.659596144640524
30
0
40
0.5
50
181.0997046936437
51
272.3030045170097
0
ARC
8
0
6
CONTINUOUS
10
59.639648892174506
20
9.156629204471715
30
0
40
1.01
50
118.99942765249143
51
181.5108097536245
0
ARC
8
0
6
CONTINUOUS
10
61.009255297024474
20
7.074672068642924
30
0
40
3.5
50
18.9279809160012
51
122.08763833769228
0
ARC
8
0
6
CONTINUOUS
10
64.79371342869666
20
8.369986210257158
30
0
40
0.5
50
198.6612570032622
51
269.5744685043305
0
ARC
8
0
6
CONTINUOUS
10
65.9
20
8.37
30
0
40
0.5
50
270.0
51
0.0
0
ARC
8
0
6
CONTINUOUS
10
65.90000721799984
20
10.952686623853566
30
0
40
0.5
50
359.6921341026508
51
54.55047270566877
0
ARC
8
0
6
CONTINUOUS
10
59.21733630425597
20
15.994752029781614
30
0
40
0.2
50
55.71439523426968
51
137.44949407608917
0
ARC
8
0
6
CONTINUOUS
10
36.7
20
12.14
30
0
40
0.2
50
90.0
51
180.0
0
ARC
8
0
6
CONTINUOUS
10
34.70000799050404
20
7.704636628794213
30
0
40
1.8
50
332.73340036357024
51
0.17072166042838555
0
ARC
8
0
6
CONTINUOUS
10
34.70000799050404
20
6.055363371205787
30
0
40
1.8
50
359.8292783395716
51
27.266599636429778
0
LINE
8
0
6
CONTINUOUS
10
32.59
20
11.18
30
0
11
34.38
21
12.45
31
0
0
LINE
8
0
6
CONTINUOUS
10
34.38
20
12.45
30
0
11
34.59
21
12.53
31
0
0
LINE
8
0
6
CONTINUOUS
10
34.9
20
12.04
30
0
11
34.9
21
7.8
31
0
0
LINE
8
0
6
CONTINUOUS
10
34.7
20
7.6
30
0
11
34.35
21
7.6
31
0
0
LINE
8
0
6
CONTINUOUS
10
34.35
20
7.6
30
0
11
32.8
21
8.43
31
0
0
LINE
8
0
6
CONTINUOUS
10
32.4
20
8.43
30
0
11
32.4
21
7.41
31
0
0
LINE
8
0
6
CONTINUOUS
10
32.4
20
6.49
30
0
11
32.4
21
5.47
31
0
0
LINE
8
0
6
CONTINUOUS
10
32.8
20
5.47
30
0
11
34.25
21
6.28
31
0
0
LINE
8
0
6
CONTINUOUS
10
34.25
20
6.28
30
0
11
34.7
21
6.3
31
0
0
LINE
8
0
6
CONTINUOUS
10
34.9
20
6.1
30
0
11
34.9
21
1.86
31
0
0
LINE
8
0
6
CONTINUOUS
10
34.59
20
1.37
30
0
11
34.43
21
1.42
31
0
0
LINE
8
0
6
CONTINUOUS
10
34.43
20
1.42
30
0
11
32.59
21
2.72
31
0
0
LINE
8
0
6
CONTINUOUS
10
32.23
20
2.88
30
0
11
31.64
21
0.2
31
0
0
LINE
8
0
6
CONTINUOUS
10
31.83
20
-0.04
30
0
11
32.67
21
-0.04
31
0
0
LINE
8
0
6
CONTINUOUS
10
32.67
20
-0.04
30
0
11
33.22
21
0.34
31
0
0
LINE
8
0
6
CONTINUOUS
10
33.4
20
0.37
30
0
11
34.9
21
0.0
31
0
0
LINE
8
0
6
CONTINUOUS
10
34.9
20
0.0
30
0
11
36.3
21
0.0
31
0
0
LINE
8
0
6
CONTINUOUS
10
36.7
20
0.4
30
0
11
38.7
21
0.4
31
0
0
LINE
8
0
6
CONTINUOUS
10
39.1
20
0.0
30
0
11
48.25
21
0.0
31
0
0
LINE
8
0
6
CONTINUOUS
10
48.45
20
0.2
30
0
11
48.45
21
1.0
31
0
0
LINE
8
0
6
CONTINUOUS
10
50.65
20
1.0
30
0
11
50.65
21
0.4
31
0
0
LINE
8
0
6
CONTINUOUS
10
50.65
20
0.4
30
0
11
53.23
21
0.4
31
0
0
LINE
8
0
6
CONTINUOUS
10
53.23
20
0.4
30
0
11
53.23
21
-0.0
31
0
0
LINE
8
0
6
CONTINUOUS
10
53.23
20
-0.0
30
0
11
59.73
21
-0.0
31
0
0
LINE
8
0
6
CONTINUOUS
10
60.23
20
0.5
30
0
11
60.23
21
3.66
31
0
0
LINE
8
0
6
CONTINUOUS
10
64.79
20
6.27
30
0
11
65.9
21
6.27
31
0
0
LINE
8
0
6
CONTINUOUS
10
66.4
20
5.77
30
0
11
66.4
21
1.6
31
0
0
LINE
8
0
6
CONTINUOUS
10
66.4
20
1.6
30
0
11
66.0
21
1.6
31
0
0
LINE
8
0
6
CONTINUOUS
10
66.0
20
1.6
30
0
11
66.0
21
-0.0
31
0
0
LINE
8
0
6
CONTINUOUS
10
66.0
20
-0.0
30
0
11
67.5
21
-0.0
31
0
0
LINE
8
0
6
CONTINUOUS
10
68.0
20
0.5
30
0
11
68.0
21
11.78
31
0
0
LINE
8
0
6
CONTINUOUS
10
67.79
20
12.19
30
0
11
59.62
21
17.91
31
0
0
LINE
8
0
6
CONTINUOUS
10
59.34
20
18.0
30
0
11
57.95
21
18.0
31
0
0
LINE
8
0
6
CONTINUOUS
10
57.47
20
17.63
30
0
11
57.15
21
16.5
31
0
0
LINE
8
0
6
CONTINUOUS
10
57.04
20
16.29
30
0
11
54.84
21
13.94
31
0
0
LINE
8
0
6
CONTINUOUS
10
54.84
20
13.94
30
0
11
34.9
21
13.94
31
0
0
LINE
8
0
6
CONTINUOUS
10
34.9
20
13.94
30
0
11
33.37
21
13.56
31
0
0
LINE
8
0
6
CONTINUOUS
10
33.18
20
13.59
30
0
11
32.79
21
13.9
31
0
0
LINE
8
0
6
CONTINUOUS
10
32.79
20
13.9
30
0
11
31.83
21
13.94
31
0
0
LINE
8
0
6
CONTINUOUS
10
31.64
20
13.7
30
0
11
32.23
21
11.02
31
0
0
LINE
8
0
6
CONTINUOUS
10
36.7
20
2.0
30
0
11
47.04
21
2.0
31
0
0
LINE
8
0
6
CONTINUOUS
10
52.1
20
1.9
30
0
11
58.13
21
1.9
31
0
0
LINE
8
0
6
CONTINUOUS
10
58.63
20
2.4
30
0
11
58.63
21
5.49
31
0
0
LINE
8
0
6
CONTINUOUS
10
59.15
20
5.99
30
0
11
59.44
21
5.98
31
0
0
LINE
8
0
6
CONTINUOUS
10
60.21
20
5.52
30
0
11
60.1
21
5.29
31
0
0
LINE
8
0
6
CONTINUOUS
10
61.96
20
5.32
30
0
11
61.78
21
5.51
31
0
0
LINE
8
0
6
CONTINUOUS
10
62.48
20
6.13
30
0
11
62.66
21
5.95
31
0
0
LINE
8
0
6
CONTINUOUS
10
62.8
20
7.96
30
0
11
62.6
21
7.79
31
0
0
LINE
8
0
6
CONTINUOUS
10
61.89
20
8.59
30
0
11
62.08
21
8.76
31
0
0
LINE
8
0
6
CONTINUOUS
10
60.22
20
8.92
30
0
11
60.32
21
8.69
31
0
0
LINE
8
0
6
CONTINUOUS
10
59.44
20
8.17
30
0
11
59.17
21
8.16
31
0
0
LINE
8
0
6
CONTINUOUS
10
58.65
20
8.65
30
0
11
58.63
21
9.13
31
0
0
LINE
8
0
6
CONTINUOUS
10
64.79
20
7.87
30
0
11
65.9
21
7.87
31
0
0
LINE
8
0
6
CONTINUOUS
10
66.4
20
8.37
30
0
11
66.4
21
10.95
31
0
0
LINE
8
0
6
CONTINUOUS
10
66.19
20
11.36
30
0
11
59.33
21
16.16
31
0
0
LINE
8
0
6
CONTINUOUS
10
59.07
20
16.13
30
0
11
55.54
21
12.34
31
0
0
LINE
8
0
6
CONTINUOUS
10
55.54
20
12.34
30
0
11
36.7
21
12.34
31
0
0
LINE
8
0
6
CONTINUOUS
10
36.5
20
12.14
30
0
11
36.5
21
7.71
31
0
0
LINE
8
0
6
CONTINUOUS
10
36.5
20
6.05
30
0
11
36.5
21
2.2
31
0
0
ARC
8
0
6
CONTINUOUS
10
34.65402260470875
20
4.8299106569083605
30
0
40
0.2
50
271.71265264374813
51
348.4891624486751
0
ARC
8
0
6
CONTINUOUS
10
34.13846606338756
20
4.1
30
0
40
0.6
50
64.15806723683313
51
295.8419327631669
0
ARC
8
0
6
CONTINUOUS
10
34.65224001077941
20
3.380150600282872
30
0
40
0.2
50
8.583291557294313
51
87.77636868243405
0
ARC
8
0
6
CONTINUOUS
10
34.5
20
2.4000000000000004
30
0
40
0.4
50
270.0
51
359.99999999999994
0
ARC
8
0
6
CONTINUOUS
10
31.74133353092281
20
2.00000074096053
30
0
40
1.2
50
60.07349421918055
51
90.06367142454437
0
ARC
8
0
6
CONTINUOUS
10
22.058666469077192
20
2.0000007409605303
30
0
40
1.2
50
89.93632857545582
51
119.92650578081933
0
ARC
8
0
6
CONTINUOUS
10
19.3
20
2.4000000000000004
30
0
40
0.4
50
180.00000000000006
51
270.0
0
ARC
8
0
6
CONTINUOUS
10
19.14775998922059
20
3.3801506002828723
30
0
40
0.2
50
92.22363131756596
51
171.41670844270567
0
ARC
8
0
6
CONTINUOUS
10
19.66153393661244
20
4.1
30
0
40
0.6
50
244.15806723683278
51
115.84193276316718
0
ARC
8
0
6
CONTINUOUS
10
19.14597739529125
20
4.8299106569083605
30
0
40
0.2
50
191.5108375513249
51
268.28734735625085
0
ARC
8
0
6
CONTINUOUS
10
19.3
20
5.8
30
0
40
0.4
50
90.0
51
180.0
0
ARC
8
0
6
CONTINUOUS
10
22.058666469077192
20
6.19999925903947
30
0
40
1.2
50
240.07349421918067
51
270.06367142454417
0
ARC
8
0
6
CONTINUOUS
10
31.74133353092281
20
6.199999259039471
30
0
40
1.2
50
269.9363285754556
51
299.9265057808194
0
ARC
8
0
6
CONTINUOUS
10
34.5
20
5.8
30
0
40
0.4
50
0.0
51
90.0
0
LINE
8
0
6
CONTINUOUS
10
34.66
20
4.63
30
0
11
34.49
21
4.63
31
0
0
LINE
8
0
6
CONTINUOUS
10
34.49
20
3.58
30
0
11
34.66
21
3.58
31
0
0
LINE
8
0
6
CONTINUOUS
10
34.85
20
3.41
30
0
11
34.9
21
3.14
31
0
0
LINE
8
0
6
CONTINUOUS
10
34.9
20
3.16
30
0
11
34.9
21
2.4
31
0
0
LINE
8
0
6
CONTINUOUS
10
34.5
20
2.0
30
0
11
34.14
21
2.0
31
0
0
LINE
8
0
6
CONTINUOUS
10
34.14
20
2.0
30
0
11
32.34
21
3.04
31
0
0
LINE
8
0
6
CONTINUOUS
10
31.74
20
3.2
30
0
11
22.06
21
3.2
31
0
0
LINE
8
0
6
CONTINUOUS
10
21.46
20
3.04
30
0
11
19.66
21
2.0
31
0
0
LINE
8
0
6
CONTINUOUS
10
19.66
20
2.0
30
0
11
19.3
21
2.0
31
0
0
LINE
8
0
6
CONTINUOUS
10
18.9
20
2.4
30
0
11
18.9
21
3.12
31
0
0
LINE
8
0
6
CONTINUOUS
10
18.9
20
3.12
30
0
11
18.95
21
3.41
31
0
0
LINE
8
0
6
CONTINUOUS
10
19.14
20
3.58
30
0
11
19.31
21
3.58
31
0
0
LINE
8
0
6
CONTINUOUS
10
19.31
20
4.63
30
0
11
19.14
21
4.63
31
0
0
LINE
8
0
6
CONTINUOUS
10
18.95
20
4.79
30
0
11
18.9
21
5.06
31
0
0
LINE
8
0
6
CONTINUOUS
10
18.9
20
5.04
30
0
11
18.9
21
5.8
31
0
0
LINE
8
0
6
CONTINUOUS
10
19.3
20
6.2
30
0
11
19.66
21
6.2
31
0
0
LINE
8
0
6
CONTINUOUS
10
19.66
20
6.2
30
0
11
21.46
21
5.16
31
0
0
LINE
8
0
6
CONTINUOUS
10
22.06
20
5.0
30
0
11
31.74
21
5.0
31
0
0
LINE
8
0
6
CONTINUOUS
10
32.34
20
5.16
30
0
11
34.14
21
6.2
31
0
0
LINE
8
0
6
CONTINUOUS
10
34.14
20
6.2
30
0
11
34.5
21
6.2
31
0
0
LINE
8
0
6
CONTINUOUS
10
34.9
20
5.8
30
0
11
34.9
21
5.08
31
0
0
LINE
8
0
6
CONTINUOUS
10
34.9
20
5.08
30
0
11
34.85
21
4.79
31
0
0
ARC
8
0
6
CONTINUOUS
10
30.929119263102795
20
13.780296195417879
30
0
40
0.2
50
17.368673906263062
51
86.88135879154
0
ARC
8
0
6
CONTINUOUS
10
32.287356466915604
20
11.22998252856895
30
0
40
0.2
50
200.48197205550505
51
270.75733849680256
0
ARC
8
0
6
CONTINUOUS
10
34.38373774429696
20
11.550049022812159
30
0
40
0.4
50
89.1029612985273
51
118.9695256373253
0
ARC
8
0
6
CONTINUOUS
10
34.5
20
11.549999999999999
30
0
40
0.4
50
2.5444437451708225e-13
51
90.0
0
ARC
8
0
6
CONTINUOUS
10
34.65224001077941
20
10.549849399717127
30
0
40
0.2
50
272.22363131756595
51
351.41670844270595
0
ARC
8
0
6
CONTINUOUS
10
34.1490517981734
20
9.825
30
0
40
0.6
50
65.27603715931818
51
294.7239628406818
0
ARC
8
0
6
CONTINUOUS
10
34.65224001077941
20
9.100150600282872
30
0
40
0.2
50
8.583291557294563
51
87.77636868243407
0
ARC
8
0
6
CONTINUOUS
10
34.5
20
8.100000000000001
30
0
40
0.4
50
270.0
51
359.9999999999998
0
ARC
8
0
6
CONTINUOUS
10
34.38373774429696
20
8.099950977187842
30
0
40
0.4
50
241.03047436267468
51
270.8970387014727
0
ARC
8
0
6
CONTINUOUS
10
32.36985206676144
20
10.429999993921044
30
0
40
1.8
50
200.14788608113523
51
270.0047088612381
0
ARC
8
0
6
CONTINUOUS
10
29.469787265817924
20
11.680000045255834
30
0
40
0.5
50
19.876868555620717
51
89.97562245768243
0
ARC
8
0
6
CONTINUOUS
10
24.330212734182073
20
11.680000045255834
30
0
40
0.5
50
90.02437754231757
51
160.12313144437914
0
ARC
8
0
6
CONTINUOUS
10
21.430147933238562
20
10.429999993921044
30
0
40
1.8
50
269.99529113876173
51
339.8521139188648
0
ARC
8
0
6
CONTINUOUS
10
19.41626225570304
20
8.099950977187842
30
0
40
0.4
50
269.1029612985278
51
298.9695256373253
0
ARC
8
0
6
CONTINUOUS
10
19.3
20
8.100000000000001
30
0
40
0.4
50
180.00000000000026
51
270.0
0
ARC
8
0
6
CONTINUOUS
10
19.14775998922059
20
9.100150600282872
30
0
40
0.2
50
92.22363131756595
51
171.41670844270527
0
ARC
8
0
6
CONTINUOUS
10
19.65094820182659
20
9.825
30
0
40
0.6
50
245.2760371593185
51
114.7239628406815
0
ARC
8
0
6
CONTINUOUS
10
19.14775998922059
20
10.549849399717127
30
0
40
0.2
50
188.58329155729422
51
267.77636868243405
0
ARC
8
0
6
CONTINUOUS
10
19.3
20
11.549999999999999
30
0
40
0.4
50
90.0
51
179.99999999999974
0
ARC
8
0
6
CONTINUOUS
10
19.41626225570304
20
11.550049022812159
30
0
40
0.4
50
61.0304743626747
51
90.89703870147218
0
ARC
8
0
6
CONTINUOUS
10
21.5126435330844
20
11.22998252856895
30
0
40
0.2
50
269.2426615031964
51
339.5180279444946
0
LINE
8
0
6
CONTINUOUS
10
22.86
20
13.98
30
0
11
30.94
21
13.98
31
0
0
LINE
8
0
6
CONTINUOUS
10
31.12
20
13.84
30
0
11
32.1
21
11.16
31
0
0
LINE
8
0
6
CONTINUOUS
10
32.29
20
11.03
30
0
11
32.6
21
11.03
31
0
0
LINE
8
0
6
CONTINUOUS
10
32.6
20
11.03
30
0
11
34.19
21
11.9
31
0
0
LINE
8
0
6
CONTINUOUS
10
34.9
20
11.55
30
0
11
34.9
21
10.8
31
0
0
LINE
8
0
6
CONTINUOUS
10
34.9
20
10.8
30
0
11
34.85
21
10.52
31
0
0
LINE
8
0
6
CONTINUOUS
10
34.66
20
10.35
30
0
11
34.49
21
10.35
31
0
0
LINE
8
0
6
CONTINUOUS
10
34.49
20
9.3
30
0
11
34.66
21
9.3
31
0
0
LINE
8
0
6
CONTINUOUS
10
34.85
20
9.13
30
0
11
34.9
21
8.88
31
0
0
LINE
8
0
6
CONTINUOUS
10
34.9
20
8.88
30
0
11
34.9
21
8.1
31
0
0
LINE
8
0
6
CONTINUOUS
10
34.19
20
7.75
30
0
11
32.75
21
8.58
31
0
0
LINE
8
0
6
CONTINUOUS
10
32.75
20
8.58
30
0
11
32.37
21
8.63
31
0
0
LINE
8
0
6
CONTINUOUS
10
30.68
20
9.81
30
0
11
29.94
21
11.85
31
0
0
LINE
8
0
6
CONTINUOUS
10
29.47
20
12.18
30
0
11
24.33
21
12.18
31
0
0
LINE
8
0
6
CONTINUOUS
10
23.86
20
11.85
30
0
11
23.12
21
9.81
31
0
0
LINE
8
0
6
CONTINUOUS
10
21.43
20
8.63
30
0
11
21.2
21
8.63
31
0
0
LINE
8
0
6
CONTINUOUS
10
21.2
20
8.63
30
0
11
19.61
21
7.75
31
0
0
LINE
8
0
6
CONTINUOUS
10
18.9
20
8.1
30
0
11
18.9
21
8.85
31
0
0
LINE
8
0
6
CONTINUOUS
10
18.9
20
8.85
30
0
11
18.95
21
9.13
31
0
0
LINE
8
0
6
CONTINUOUS
10
19.14
20
9.3
30
0
11
19.31
21
9.3
31
0
0
LINE
8
0
6
CONTINUOUS
10
19.31
20
10.35
30
0
11
19.14
21
10.35
31
0
0
LINE
8
0
6
CONTINUOUS
10
18.95
20
10.52
30
0
11
18.9
21
10.77
31
0
0
LINE
8
0
6
CONTINUOUS
10
18.9
20
10.77
30
0
11
18.9
21
11.55
31
0
0
LINE
8
0
6
CONTINUOUS
10
19.61
20
11.9
30
0
11
21.05
21
11.07
31
0
0
LINE
8
0
6
CONTINUOUS
10
21.05
20
11.07
30
0
11
21.51
21
11.03
31
0
0
LINE
8
0
6
CONTINUOUS
10
21.7
20
11.16
30
0
11
22.68
21
13.84
31
0
0
ARC
8
0
6
CONTINUOUS
10
22.870880736897206
20
13.780296195417879
30
0
40
0.2
50
93.11864120846
51
162.63132609373693
0
ARC
8
0
6
CONTINUOUS
10
67.5
20
111.54
30
0
40
0.5
50
0.0
51
90.0
0
ARC
8
0
6
CONTINUOUS
10
36.3
20
111.54
30
0
40
0.5
50
90.0
51
180.0
0
ARC
8
0
6
CONTINUOUS
10
36.4
20
102.76
30
0
40
0.6100000000000014
50
190.38885781546955
51
349.6111421845305
0
ARC
8
0
6
CONTINUOUS
10
39.012806428835844
20
110.35000787610483
30
0
40
0.5
50
90.32159474420668
51
164.9308725331299
0
ARC
8
0
6
CONTINUOUS
10
49.0
20
109.84
30
0
40
1.0
50
0.0
51
90.0
0
ARC
8
0
6
CONTINUOUS
10
49.650000000000006
20
85.53999999999999
30
0
40
0.35
50
216.8698976458424
51
2.3263485670133527e-12
0
ARC
8
0
6
CONTINUOUS
10
48.962686623853564
20
85.04000721799984
30
0
40
0.5
50
35.44952729433124
51
90.30786589734879
0
ARC
8
0
6
CONTINUOUS
10
51.196749975381856
20
85.8216462045839
30
0
40
3.0
50
185.38697946277952
51
257.7457598123191
0
ARC
8
0
6
CONTINUOUS
10
50.69004612605476
20
83.3831409586499
30
0
40
0.51
50
255.22686494543595
51
0.7705999395739588
0
ARC
8
0
6
CONTINUOUS
10
52.19999999874994
20
109.70005000126257
30
0
40
1.0
50
89.42703258351594
51
180.0028648613165
0
ARC
8
0
6
CONTINUOUS
10
65.0301329068588
20
109.06003245352676
30
0
40
1.5
50
0.7627266205870923
51
89.62310208647875
0
ARC
8
0
6
CONTINUOUS
10
66.19
20
89.35
30
0
40
0.5
50
270.0
51
0.0
0
ARC
8
0
6
CONTINUOUS
10
64.1
20
87.53999999999999
30
0
40
1.3
50
90.0
51
179.99999999999937
0
ARC
8
0
6
CONTINUOUS
10
63.3
20
84.04
30
0
40
0.5
50
180.0
51
270.0
0
ARC
8
0
6
CONTINUOUS
10
65.8028419219532
20
87.04016494216538
30
0
40
0.5
50
46.027251290262896
51
91.47173769547005
0
ARC
8
0
6
CONTINUOUS
10
66.70707978010125
20
87.53999147224303
30
0
40
0.5
50
224.42563565056778
51
270.33463445335224
0
LINE
8
0
6
CONTINUOUS
10
68.0
20
87.54
30
0
11
68.0
21
111.54
31
0
0
LINE
8
0
6
CONTINUOUS
10
67.5
20
112.04
30
0
11
36.3
21
112.04
31
0
0
LINE
8
0
6
CONTINUOUS
10
35.8
20
111.54
30
0
11
35.8
21
110.14
31
0
0
LINE
8
0
6
CONTINUOUS
10
35.8
20
110.14
30
0
11
37.2
21
110.14
31
0
0
LINE
8
0
6
CONTINUOUS
10
37.2
20
110.14
30
0
11
35.8
21
104.92
31
0
0
LINE
8
0
6
CONTINUOUS
10
35.8
20
104.92
30
0
11
35.8
21
102.65
31
0
0
LINE
8
0
6
CONTINUOUS
10
37.0
20
102.65
30
0
11
37.0
21
104.76
31
0
0
LINE
8
0
6
CONTINUOUS
10
37.0
20
104.76
30
0
11
38.53
21
110.48
31
0
0
LINE
8
0
6
CONTINUOUS
10
39.01
20
110.85
30
0
11
49.0
21
110.85
31
0
0
LINE
8
0
6
CONTINUOUS
10
50.0
20
109.84
30
0
11
50.0
21
85.54
31
0
0
LINE
8
0
6
CONTINUOUS
10
48.96
20
85.54
30
0
11
48.21
21
85.54
31
0
0
LINE
8
0
6
CONTINUOUS
10
51.2
20
83.39
30
0
11
51.2
21
109.7
31
0
0
LINE
8
0
6
CONTINUOUS
10
52.21
20
110.7
30
0
11
65.04
21
110.56
31
0
0
LINE
8
0
6
CONTINUOUS
10
66.53
20
109.08
30
0
11
66.69
21
89.35
31
0
0
LINE
8
0
6
CONTINUOUS
10
66.19
20
88.85
30
0
11
64.1
21
88.85
31
0
0
LINE
8
0
6
CONTINUOUS
10
62.8
20
87.54
30
0
11
62.8
21
84.04
31
0
0
LINE
8
0
6
CONTINUOUS
10
63.3
20
83.54
30
0
11
63.7
21
83.54
31
0
0
LINE
8
0
6
CONTINUOUS
10
63.7
20
83.54
30
0
11
64.45
21
84.84
31
0
0
LINE
8
0
6
CONTINUOUS
10
64.45
20
84.84
30
0
11
64.09
21
85.84
31
0
0
LINE
8
0
6
CONTINUOUS
10
64.0
20
85.84
30
0
11
64.0
21
87.54
31
0
0
LINE
8
0
6
CONTINUOUS
10
64.0
20
87.54
30
0
11
65.79
21
87.54
31
0
0
LINE
8
0
6
CONTINUOUS
10
66.15
20
87.4
30
0
11
66.35
21
87.19
31
0
0
LINE
8
0
6
CONTINUOUS
10
66.71
20
87.04
30
0
11
67.5
21
87.04
31
0
0
ARC
8
0
6
CONTINUOUS
10
67.5
20
87.54
30
0
40
0.5
50
270.0
51
0.0
0
ARC
8
0
6
CONTINUOUS
10
33.47352293391179
20
110.85769016704134
30
0
40
0.77
50
240.12683062293206
51
324.4498157036187
0
ARC
8
0
6
CONTINUOUS
10
33.776064551299555
20
111.74763873077973
30
0
40
0.5
50
351.06711153730697
51
70.8604015268415
0
ARC
8
0
6
CONTINUOUS
10
35.621434062219585
20
114.87056727695281
30
0
40
3.31
50
193.28403933214335
51
221.4375101274917
0
ARC
8
0
6
CONTINUOUS
10
37.49726621417996
20
113.13217026981778
30
0
40
5.16
50
188.9434382778116
51
196.11417714049162
0
ARC
8
0
6
CONTINUOUS
10
36.0
20
111.84
30
0
40
0.2
50
90.0
51
180.0
0
ARC
8
0
6
CONTINUOUS
10
37.406746692480056
20
112.23988617295997
30
0
40
0.2
50
268.0668482206085
51
23.613762688047956
0
ARC
8
0
6
CONTINUOUS
10
36.8437892902322
20
112.80931360289772
30
0
40
0.5
50
21.1845279720599
51
61.80840873837073
0
ARC
8
0
6
CONTINUOUS
10
34.67908908909332
20
108.66000797409306
30
0
40
5.18
50
62.38705053622713
51
90.10053411426414
0
ARC
8
0
6
CONTINUOUS
10
35.34656539543502
20
117.50812748765632
30
0
40
3.73
50
224.36525053251108
51
259.54956769003127
0
ARC
8
0
6
CONTINUOUS
10
32.39787376842114
20
114.3704673858438
30
0
40
0.6
50
61.952045991804255
51
184.8249811604203
0
ARC
8
0
6
CONTINUOUS
10
40.82528977885336
20
113.71878366966148
30
0
40
9.13
50
188.68585800688078
51
196.4720124681051
0
ARC
8
0
6
CONTINUOUS
10
32.28911198116648
20
108.6173336404117
30
0
40
0.76
50
351.118790590747
51
47.76127906560554
0
ARC
8
0
6
CONTINUOUS
10
40.19801123275728
20
106.00615253238682
30
0
40
7.58
50
160.79168933062843
51
183.2229053360302
0
ARC
8
0
6
CONTINUOUS
10
32.12245378104099
20
107.11016807744532
30
0
40
0.33
50
353.0085374101237
51
192.27655317800338
0
ARC
8
0
6
CONTINUOUS
10
32.53789802932041
20
104.6042640302402
30
0
40
0.74
50
175.6804555048096
51
315.97665607560435
0
ARC
8
0
6
CONTINUOUS
10
36.12993219559756
20
110.00331073186585
30
0
40
0.33
50
178.83850580620862
51
218.03139183963418
0
LINE
8
0
6
CONTINUOUS
10
32.54
20
111.7
30
0
11
33.09
21
110.19
31
0
0
LINE
8
0
6
CONTINUOUS
10
34.1
20
110.41
30
0
11
34.27
21
111.67
31
0
0
LINE
8
0
6
CONTINUOUS
10
33.94
20
112.22
30
0
11
33.14
21
112.68
31
0
0
LINE
8
0
6
CONTINUOUS
10
32.4
20
114.11
30
0
11
32.4
21
112.33
31
0
0
LINE
8
0
6
CONTINUOUS
10
36.0
20
112.04
30
0
11
37.4
21
112.04
31
0
0
LINE
8
0
6
CONTINUOUS
10
37.59
20
112.32
30
0
11
37.31
21
112.99
31
0
0
LINE
8
0
6
CONTINUOUS
10
31.8
20
114.31
30
0
11
31.8
21
112.33
31
0
0
LINE
8
0
6
CONTINUOUS
10
32.07
20
111.13
30
0
11
32.8
21
109.18
31
0
0
LINE
8
0
6
CONTINUOUS
10
32.63
20
105.58
30
0
11
32.45
21
107.07
31
0
0
LINE
8
0
6
CONTINUOUS
10
31.8
20
107.04
30
0
11
31.8
21
104.67
31
0
0
LINE
8
0
6
CONTINUOUS
10
33.07
20
104.09
30
0
11
34.28
21
105.68
31
0
0
LINE
8
0
6
CONTINUOUS
10
34.28
20
105.68
30
0
11
36.45
21
108.67
31
0
0
LINE
8
0
6
CONTINUOUS
10
36.46
20
108.86
30
0
11
36.16
21
109.16
31
0
0
LINE
8
0
6
CONTINUOUS
10
36.16
20
109.16
30
0
11
35.87
21
109.8
31
0
0
LINE
8
0
6
CONTINUOUS
10
35.8
20
110.01
30
0
11
35.8
21
111.84
31
0
0
ENDSEC
0
EOF