0
SECTION
2
HEADER
0
ENDSEC
0
SECTION
2
TABLES
0
TABLE
2
LTYPE
70
3
0
LTYPE
2
CONTINUOUS
70
0
3
Solid line
72
65
73
0
40
0.0
0
LTYPE
2
DASHED
70
0
3
dashed
72
65
73
2
40
12.7
49
6.35
49
-6.35
0
ENDTAB
0
TABLE
2
LAYER
70
1
0
LAYER
2
0
70
0
62
7
6
CONTINUOUS
0
ENDTAB
0
ENDSEC
0
SECTION
2
ENTITIES
0
LINE
8
0
6
CONTINUOUS
10
105.42
20
-25.68
30
0
11
105.42
21
100.0
31
0
0
LINE
8
0
6
CONTINUOUS
10
7.7
20
-25.68
30
0
11
7.7
21
100.0
31
0
0
LINE
8
0
6
CONTINUOUS
10
-102.0
20
-25.68
30
0
11
-102.0
21
100.0
31
0
0
LINE
8
0
6
CONTINUOUS
10
-1.0
20
100.0
30
0
11
-1.0
21
-25.68
31
0
0
LINE
8
0
6
CONTINUOUS
10
0.0
20
-25.68
30
0
11
0.0
21
100.0
31
0
0
LINE
8
0
6
CONTINUOUS
10
-171.0
20
0.0
30
0
11
105.42
21
0.0
31
0
0
LINE
8
0
6
CONTINUOUS
10
-17.0
20
23.0
30
0
11
-24.0
21
23.0
31
0
0
ARC
8
0
6
CONTINUOUS
10
-24.0
20
22.0
30
0
40
1.0
50
90.0
51
180.0
0
LINE
8
0
6
CONTINUOUS
10
-25.0
20
22.0
30
0
11
-25.0
21
18.0
31
0
0
ARC
8
0
6
CONTINUOUS
10
-24.0
20
18.0
30
0
40
1.0
50
180.0
51
270.0
0
LINE
8
0
6
CONTINUOUS
10
-24.0
20
17.0
30
0
11
-17.0
21
17.0
31
0
0
ARC
8
0
6
CONTINUOUS
10
-17.0
20
16.0
30
0
40
1.0
50
0.0
51
90.0
0
LINE
8
0
6
CONTINUOUS
10
-16.0
20
16.0
30
0
11
-16.0
21
13.0
31
0
0
ARC
8
0
6
CONTINUOUS
10
-17.0
20
13.0
30
0
40
1.0
50
270.0
51
0.0
0
LINE
8
0
6
CONTINUOUS
10
-17.0
20
12.0
30
0
11
-24.0
21
12.0
31
0
0
ARC
8
0
6
CONTINUOUS
10
-24.0
20
11.0
30
0
40
1.0
50
90.0
51
180.0
0
LINE
8
0
6
CONTINUOUS
10
-25.0
20
11.0
30
0
11
-25.0
21
7.0
31
0
0
ARC
8
0
6
CONTINUOUS
10
-24.0
20
7.0
30
0
40
1.0
50
180.0
51
270.0
0
LINE
8
0
6
CONTINUOUS
10
-24.0
20
6.0
30
0
11
-17.0
21
6.0
31
0
0
ARC
8
0
6
CONTINUOUS
10
-17.0
20
5.0
30
0
40
1.0
50
0.0
51
90.0
0
LINE
8
0
6
CONTINUOUS
10
-16.0
20
5.0
30
0
11
-16.0
21
1.0
31
0
0
ARC
8
0
6
CONTINUOUS
10
-15.0
20
1.0
30
0
40
1.0
50
180.0
51
270.0
0
LINE
8
0
6
CONTINUOUS
10
-15.0
20
0.0
30
0
11
-2.0
21
0.0
31
0
0
ARC
8
0
6
CONTINUOUS
10
-2.0
20
1.0
30
0
40
1.0
50
270.0
51
0.0
0
LINE
8
0
6
CONTINUOUS
10
-1.0
20
1.0
30
0
11
-1.0
21
5.0
31
0
0
ARC
8
0
6
CONTINUOUS
10
-2.0
20
5.0
30
0
40
1.0
50
0.0
51
90.0
0
LINE
8
0
6
CONTINUOUS
10
-2.0
20
6.0
30
0
11
-9.0
21
6.0
31
0
0
ARC
8
0
6
CONTINUOUS
10
-9.0
20
7.0
30
0
40
1.0
50
180.0
51
270.0
0
LINE
8
0
6
CONTINUOUS
10
-10.0
20
7.0
30
0
11
-10.0
21
16.0
31
0
0
ARC
8
0
6
CONTINUOUS
10
-9.0
20
16.0
30
0
40
1.0
50
90.0
51
180.0
0
LINE
8
0
6
CONTINUOUS
10
-9.0
20
17.0
30
0
11
-2.0
21
17.0
31
0
0
ARC
8
0
6
CONTINUOUS
10
-2.0
20
18.0
30
0
40
1.0
50
270.0
51
0.0
0
LINE
8
0
6
CONTINUOUS
10
-1.0
20
18.0
30
0
11
-1.0
21
22.0
31
0
0
ARC
8
0
6
CONTINUOUS
10
-2.0
20
22.0
30
0
40
1.0
50
0.0
51
90.0
0
LINE
8
0
6
CONTINUOUS
10
-2.0
20
23.0
30
0
11
-9.0
21
23.0
31
0
0
ARC
8
0
6
CONTINUOUS
10
-9.0
20
24.0
30
0
40
1.0
50
180.0
51
270.0
0
LINE
8
0
6
CONTINUOUS
10
-10.0
20
24.0
30
0
11
-10.0
21
46.0
31
0
0
ARC
8
0
6
CONTINUOUS
10
-9.0
20
46.0
30
0
40
1.0
50
90.0
51
180.0
0
LINE
8
0
6
CONTINUOUS
10
-9.0
20
47.0
30
0
11
-2.0
21
47.0
31
0
0
ARC
8
0
6
CONTINUOUS
10
-2.0
20
48.0
30
0
40
1.0
50
270.0
51
0.0
0
LINE
8
0
6
CONTINUOUS
10
-1.0
20
48.0
30
0
11
-1.0
21
52.0
31
0
0
ARC
8
0
6
CONTINUOUS
10
-2.0
20
52.0
30
0
40
1.0
50
0.0
51
90.0
0
LINE
8
0
6
CONTINUOUS
10
-2.0
20
53.0
30
0
11
-9.0
21
53.0
31
0
0
ARC
8
0
6
CONTINUOUS
10
-9.0
20
54.0
30
0
40
1.0
50
180.0
51
270.0
0
LINE
8
0
6
CONTINUOUS
10
-10.0
20
54.0
30
0
11
-10.0
21
76.0
31
0
0
ARC
8
0
6
CONTINUOUS
10
-9.0
20
76.0
30
0
40
1.0
50
90.0
51
180.0
0
LINE
8
0
6
CONTINUOUS
10
-9.0
20
77.0
30
0
11
-2.0
21
77.0
31
0
0
ARC
8
0
6
CONTINUOUS
10
-2.0
20
78.0
30
0
40
1.0
50
270.0
51
0.0
0
LINE
8
0
6
CONTINUOUS
10
-1.0
20
78.0
30
0
11
-1.0
21
82.0
31
0
0
ARC
8
0
6
CONTINUOUS
10
-2.0
20
82.0
30
0
40
1.0
50
0.0
51
90.0
0
LINE
8
0
6
CONTINUOUS
10
-2.0
20
83.0
30
0
11
-9.0
21
83.0
31
0
0
ARC
8
0
6
CONTINUOUS
10
-9.0
20
84.0
30
0
40
1.0
50
180.0
51
270.0
0
LINE
8
0
6
CONTINUOUS
10
-10.0
20
84.0
30
0
11
-10.0
21
93.0
31
0
0
ARC
8
0
6
CONTINUOUS
10
-9.0
20
93.0
30
0
40
1.0
50
90.0
51
180.0
0
LINE
8
0
6
CONTINUOUS
10
-9.0
20
94.0
30
0
11
-2.0
21
94.0
31
0
0
ARC
8
0
6
CONTINUOUS
10
-2.0
20
95.0
30
0
40
1.0
50
270.0
51
0.0
0
LINE
8
0
6
CONTINUOUS
10
-1.0
20
95.0
30
0
11
-1.0
21
99.0
31
0
0
ARC
8
0
6
CONTINUOUS
10
-2.0
20
99.0
30
0
40
1.0
50
0.0
51
90.0
0
LINE
8
0
6
CONTINUOUS
10
-2.0
20
100.0
30
0
11
-15.0
21
100.0
31
0
0
ARC
8
0
6
CONTINUOUS
10
-15.0
20
99.0
30
0
40
1.0
50
90.0
51
180.0
0
LINE
8
0
6
CONTINUOUS
10
-16.0
20
99.0
30
0
11
-16.0
21
95.0
31
0
0
ARC
8
0
6
CONTINUOUS
10
-17.0
20
95.0
30
0
40
1.0
50
270.0
51
0.0
0
LINE
8
0
6
CONTINUOUS
10
-17.0
20
94.0
30
0
11
-24.0
21
94.0
31
0
0
ARC
8
0
6
CONTINUOUS
10
-24.0
20
93.0
30
0
40
1.0
50
90.0
51
180.0
0
LINE
8
0
6
CONTINUOUS
10
-25.0
20
93.0
30
0
11
-25.0
21
89.0
31
0
0
ARC
8
0
6
CONTINUOUS
10
-24.0
20
89.0
30
0
40
1.0
50
180.0
51
270.0
0
LINE
8
0
6
CONTINUOUS
10
-24.0
20
88.0
30
0
11
-17.0
21
88.0
31
0
0
ARC
8
0
6
CONTINUOUS
10
-17.0
20
87.0
30
0
40
1.0
50
0.0
51
90.0
0
LINE
8
0
6
CONTINUOUS
10
-16.0
20
87.0
30
0
11
-16.0
21
84.0
31
0
0
ARC
8
0
6
CONTINUOUS
10
-17.0
20
84.0
30
0
40
1.0
50
270.0
51
0.0
0
LINE
8
0
6
CONTINUOUS
10
-17.0
20
83.0
30
0
11
-24.0
21
83.0
31
0
0
ARC
8
0
6
CONTINUOUS
10
-24.0
20
82.0
30
0
40
1.0
50
90.0
51
180.0
0
LINE
8
0
6
CONTINUOUS
10
-25.0
20
82.0
30
0
11
-25.0
21
78.0
31
0
0
ARC
8
0
6
CONTINUOUS
10
-24.0
20
78.0
30
0
40
1.0
50
180.0
51
270.0
0
LINE
8
0
6
CONTINUOUS
10
-24.0
20
77.0
30
0
11
-17.0
21
77.0
31
0
0
ARC
8
0
6
CONTINUOUS
10
-17.0
20
76.0
30
0
40
1.0
50
0.0
51
90.0
0
LINE
8
0
6
CONTINUOUS
10
-16.0
20
76.0
30
0
11
-16.0
21
54.0
31
0
0
ARC
8
0
6
CONTINUOUS
10
-17.0
20
54.0
30
0
40
1.0
50
270.0
51
0.0
0
LINE
8
0
6
CONTINUOUS
10
-17.0
20
53.0
30
0
11
-24.0
21
53.0
31
0
0
ARC
8
0
6
CONTINUOUS
10
-24.0
20
52.0
30
0
40
1.0
50
90.0
51
180.0
0
LINE
8
0
6
CONTINUOUS
10
-25.0
20
52.0
30
0
11
-25.0
21
48.0
31
0
0
ARC
8
0
6
CONTINUOUS
10
-24.0
20
48.0
30
0
40
1.0
50
180.0
51
270.0
0
LINE
8
0
6
CONTINUOUS
10
-24.0
20
47.0
30
0
11
-17.0
21
47.0
31
0
0
ARC
8
0
6
CONTINUOUS
10
-17.0
20
46.0
30
0
40
1.0
50
0.0
51
90.0
0
LINE
8
0
6
CONTINUOUS
10
-16.0
20
46.0
30
0
11
-16.0
21
24.0
31
0
0
ARC
8
0
6
CONTINUOUS
10
-17.0
20
24.0
30
0
40
1.0
50
270.0
51
0.0
0
LINE
8
0
6
CONTINUOUS
10
-22.0
20
100.0
30
0
11
-29.58
21
100.0
31
0
0
ARC
8
0
6
CONTINUOUS
10
-29.585781474267577
20
99.000016712862
30
0
40
1.0
50
89.6687440796907
51
134.76644445934633
0
LINE
8
0
6
CONTINUOUS
10
-30.29
20
99.71
30
0
11
-34.71
21
95.26
31
0
0
ARC
8
0
6
CONTINUOUS
10
-34.00000886467109
20
94.5557893867923
30
0
40
1.0
50
135.23419407929833
51
179.75874892116562
0
LINE
8
0
6
CONTINUOUS
10
-35.0
20
94.56
30
0
11
-35.0
21
70.01
31
0
0
ARC
8
0
6
CONTINUOUS
10
-34.90012507822286
20
69.015
30
0
40
1.0
50
264.268032034805
51
95.731967965195
0
LINE
8
0
6
CONTINUOUS
10
-35.0
20
68.02
30
0
11
-35.0
21
60.89
31
0
0
ARC
8
0
6
CONTINUOUS
10
-35.99999953143043
20
60.88903194064642
30
0
40
1.0
50
291.71558838537607
51
0.05546572394158969
0
LINE
8
0
6
CONTINUOUS
10
-35.63
20
59.96
30
0
11
-119.63
21
26.16
31
0
0
ARC
8
0
6
CONTINUOUS
10
-120.00000046893108
20
27.089031567273565
30
0
40
1.0
50
179.94451288335975
51
291.7156462034542
0
LINE
8
0
6
CONTINUOUS
10
-121.0
20
27.09
30
0
11
-121.0
21
29.0
31
0
0
ARC
8
0
6
CONTINUOUS
10
-122.0
20
29.0
30
0
40
1.0
50
0.0
51
90.0
0
LINE
8
0
6
CONTINUOUS
10
-122.0
20
30.0
30
0
11
-125.0
21
30.0
31
0
0
ARC
8
0
6
CONTINUOUS
10
-125.0
20
29.0
30
0
40
1.0
50
90.0
51
180.0
0
LINE
8
0
6
CONTINUOUS
10
-126.0
20
29.0
30
0
11
-126.0
21
13.0
31
0
0
ARC
8
0
6
CONTINUOUS
10
-129.0
20
13.0
30
0
40
3.0
50
270.0
51
0.0
0
LINE
8
0
6
CONTINUOUS
10
-129.0
20
10.0
30
0
11
-142.0
21
10.0
31
0
0
ARC
8
0
6
CONTINUOUS
10
-142.0
20
11.0
30
0
40
1.0
50
180.0
51
270.0
0
LINE
8
0
6
CONTINUOUS
10
-143.0
20
11.0
30
0
11
-143.0
21
17.0
31
0
0
ARC
8
0
6
CONTINUOUS
10
-144.0
20
17.0
30
0
40
1.0
50
0.0
51
90.0
0
LINE
8
0
6
CONTINUOUS
10
-144.0
20
18.0
30
0
11
-147.0
21
18.0
31
0
0
ARC
8
0
6
CONTINUOUS
10
-147.0
20
17.0
30
0
40
1.0
50
90.0
51
180.0
0
LINE
8
0
6
CONTINUOUS
10
-148.0
20
17.0
30
0
11
-148.0
21
13.0
31
0
0
ARC
8
0
6
CONTINUOUS
10
-151.0
20
13.0
30
0
40
3.0
50
270.0
51
0.0
0
LINE
8
0
6
CONTINUOUS
10
-151.0
20
10.0
30
0
11
-162.0
21
10.0
31
0
0
ARC
8
0
6
CONTINUOUS
10
-162.0
20
11.0
30
0
40
1.0
50
180.0
51
270.0
0
LINE
8
0
6
CONTINUOUS
10
-163.0
20
11.0
30
0
11
-163.0
21
17.2
31
0
0
LINE
8
0
6
CONTINUOUS
10
-163.0
20
17.2
30
0
11
-170.2
21
17.2
31
0
0
LINE
8
0
6
CONTINUOUS
10
-170.2
20
17.2
30
0
11
-170.2
21
-0.0
31
0
0
LINE
8
0
6
CONTINUOUS
10
-170.2
20
-0.0
30
0
11
-22.0
21
-0.0
31
0
0
ARC
8
0
6
CONTINUOUS
10
-22.0
20
1.0
30
0
40
1.0
50
270.0
51
0.0
0
LINE
8
0
6
CONTINUOUS
10
-21.0
20
1.0
30
0
11
-21.0
21
4.0
31
0
0
ARC
8
0
6
CONTINUOUS
10
-22.0
20
4.0
30
0
40
1.0
50
0.0
51
90.0
0
LINE
8
0
6
CONTINUOUS
10
-22.0
20
5.0
30
0
11
-24.0
21
5.0
31
0
0
ARC
8
0
6
CONTINUOUS
10
-24.0
20
6.0
30
0
40
1.0
50
180.0
51
270.0
0
LINE
8
0
6
CONTINUOUS
10
-25.0
20
6.0
30
0
11
-25.0
21
60.0
31
0
0
ARC
8
0
6
CONTINUOUS
10
-24.0
20
60.0
30
0
40
1.0
50
90.0
51
180.0
0
LINE
8
0
6
CONTINUOUS
10
-24.0
20
61.0
30
0
11
-22.0
21
61.0
31
0
0
ARC
8
0
6
CONTINUOUS
10
-22.0
20
62.0
30
0
40
1.0
50
270.0
51
0.0
0
LINE
8
0
6
CONTINUOUS
10
-21.0
20
62.0
30
0
11
-21.0
21
65.0
31
0
0
ARC
8
0
6
CONTINUOUS
10
-22.0
20
65.0
30
0
40
1.0
50
0.0
51
90.0
0
LINE
8
0
6
CONTINUOUS
10
-22.0
20
66.0
30
0
11
-24.0
21
66.0
31
0
0
ARC
8
0
6
CONTINUOUS
10
-24.0
20
67.0
30
0
40
1.0
50
180.0
51
270.0
0
LINE
8
0
6
CONTINUOUS
10
-25.0
20
67.0
30
0
11
-25.0
21
71.0
31
0
0
ARC
8
0
6
CONTINUOUS
10
-24.0
20
71.0
30
0
40
1.0
50
90.0
51
180.0
0
LINE
8
0
6
CONTINUOUS
10
-24.0
20
72.0
30
0
11
-22.0
21
72.0
31
0
0
ARC
8
0
6
CONTINUOUS
10
-22.0
20
73.0
30
0
40
1.0
50
270.0
51
0.0
0
LINE
8
0
6
CONTINUOUS
10
-21.0
20
73.0
30
0
11
-21.0
21
76.0
31
0
0
ARC
8
0
6
CONTINUOUS
10
-22.0
20
76.0
30
0
40
1.0
50
0.0
51
90.0
0
LINE
8
0
6
CONTINUOUS
10
-22.0
20
77.0
30
0
11
-24.0
21
77.0
31
0
0
ARC
8
0
6
CONTINUOUS
10
-24.0
20
78.0
30
0
40
1.0
50
180.0
51
270.0
0
LINE
8
0
6
CONTINUOUS
10
-25.0
20
78.0
30
0
11
-25.0
21
94.0
31
0
0
ARC
8
0
6
CONTINUOUS
10
-24.0
20
94.0
30
0
40
1.0
50
90.0
51
180.0
0
LINE
8
0
6
CONTINUOUS
10
-24.0
20
95.0
30
0
11
-22.0
21
95.0
31
0
0
ARC
8
0
6
CONTINUOUS
10
-22.0
20
96.0
30
0
40
1.0
50
270.0
51
0.0
0
LINE
8
0
6
CONTINUOUS
10
-21.0
20
96.0
30
0
11
-21.0
21
99.0
31
0
0
ARC
8
0
6
CONTINUOUS
10
-22.0
20
99.0
30
0
40
1.0
50
0.0
51
90.0
0
LINE
8
0
6
CONTINUOUS
10
-119.37
20
18.45
30
0
11
-36.37
21
51.84
31
0
0
ARC
8
0
6
CONTINUOUS
10
-35.999959358948814
20
50.910984432869704
30
0
40
1.0
50
0.5165609443618357
51
111.71812374333234
0
LINE
8
0
6
CONTINUOUS
10
-35.0
20
50.92
30
0
11
-35.0
21
11.0
31
0
0
ARC
8
0
6
CONTINUOUS
10
-38.0
20
11.0
30
0
40
3.0
50
270.0
51
0.0
0
LINE
8
0
6
CONTINUOUS
10
-38.0
20
8.0
30
0
11
-117.0
21
8.0
31
0
0
ARC
8
0
6
CONTINUOUS
10
-117.0
20
11.0
30
0
40
3.0
50
180.0
51
270.0
0
LINE
8
0
6
CONTINUOUS
10
-120.0
20
11.0
30
0
11
-120.0
21
17.52
31
0
0
ARC
8
0
6
CONTINUOUS
10
-119.00000046856957
20
17.520968059353578
30
0
40
1.0
50
111.71558838537639
51
180.05546572394138
0
LINE
8
0
6
CONTINUOUS
10
-163.0
20
18.0
30
0
11
-170.0
21
18.0
31
0
0
ARC
8
0
6
CONTINUOUS
10
-170.0
20
17.0
30
0
40
1.0
50
90.0
51
180.0
0
LINE
8
0
6
CONTINUOUS
10
-171.0
20
17.0
30
0
11
-171.0
21
-0.0
31
0
0
LINE
8
0
6
CONTINUOUS
10
-171.0
20
-0.0
30
0
11
-170.2
21
-0.0
31
0
0
LINE
8
0
6
CONTINUOUS
10
-170.2
20
-0.0
30
0
11
-170.2
21
17.2
31
0
0
LINE
8
0
6
CONTINUOUS
10
-170.2
20
17.2
30
0
11
-163.0
21
17.2
31
0
0
LINE
8
0
6
CONTINUOUS
10
-163.0
20
17.2
30
0
11
-163.0
21
18.0
31
0
0
LINE
8
0
6
CONTINUOUS
10
34.06
20
64.33
30
0
11
34.06
21
73.89
31
0
0
LINE
8
0
6
CONTINUOUS
10
-35.94
20
64.33
30
0
11
-35.94
21
73.89
31
0
0
LINE
8
0
6
CONTINUOUS
10
-40.94
20
69.11
30
0
11
34.06
21
69.11
31
0
0
LINE
8
0
6
DASHED
10
-40.94
20
69.11
30
0
11
34.06
21
69.11
31
0
0
LINE
8
0
6
CONTINUOUS
10
-35.94
20
73.89
30
0
11
-35.94
21
64.33
31
0
0
ENDSEC
0
EOF