0
SECTION
2
HEADER
0
ENDSEC
0
SECTION
2
TABLES
0
TABLE
2
LTYPE
70
2
0
LTYPE
2
CONTINUOUS
70
0
3
Solid line
72
65
73
0
40
0.0
0
ENDTAB
0
TABLE
2
LAYER
70
1
0
LAYER
2
0
70
0
62
7
6
CONTINUOUS
0
ENDTAB
0
ENDSEC
0
SECTION
2
ENTITIES
0
LINE
8
0
6
CONTINUOUS
10
86.0
20
185.02
30
0
11
-13.0
21
185.02
31
0
0
LINE
8
0
6
CONTINUOUS
10
86.0
20
-185.02
30
0
11
-13.0
21
-185.02
31
0
0
LINE
8
0
6
CONTINUOUS
10
86.0
20
57.1
30
0
11
-13.0
21
57.1
31
0
0
LINE
8
0
6
CONTINUOUS
10
86.0
20
-24.0
30
0
11
-13.0
21
-24.0
31
0
0
LINE
8
0
6
CONTINUOUS
10
86.0
20
24.0
30
0
11
-13.0
21
24.0
31
0
0
LINE
8
0
6
CONTINUOUS
10
77.0
20
-185.02
30
0
11
77.0
21
185.02
31
0
0
LINE
8
0
6
CONTINUOUS
10
-13.0
20
185.02
30
0
11
-13.0
21
-185.02
31
0
0
LINE
8
0
6
CONTINUOUS
10
2.0
20
-185.02
30
0
11
2.0
21
185.02
31
0
0
LINE
8
0
6
CONTINUOUS
10
-13.0
20
0.0
30
0
11
86.0
21
0.0
31
0
0
LINE
8
0
6
CONTINUOUS
10
29.89
20
5.35
30
0
11
38.91
21
5.35
31
0
0
ARC
8
0
6
CONTINUOUS
10
38.91629270095556
20
3.3500098995458285
30
0
40
2.0
50
33.710373854075726
51
90.18027290068257
0
LINE
8
0
6
CONTINUOUS
10
40.58
20
4.46
30
0
11
41.32
21
2.77
31
0
0
ARC
8
0
6
CONTINUOUS
10
43.402177555822554
20
4.15366781635942
30
0
40
2.5
50
213.60519904004155
51
274.0788345273816
0
LINE
8
0
6
CONTINUOUS
10
43.58
20
1.66
30
0
11
45.29
21
0.7
31
0
0
LINE
8
0
6
CONTINUOUS
10
45.29
20
0.7
30
0
11
45.29
21
4.93
31
0
0
LINE
8
0
6
CONTINUOUS
10
45.29
20
4.93
30
0
11
43.31
21
3.79
31
0
0
LINE
8
0
6
CONTINUOUS
10
43.31
20
3.79
30
0
11
42.41
21
5.35
31
0
0
ARC
8
0
6
CONTINUOUS
10
39.756699209581946
20
3.9500018158701145
30
0
40
3.0
50
27.81810007247225
51
89.93695953394355
0
LINE
8
0
6
CONTINUOUS
10
39.76
20
6.95
30
0
11
29.04
21
6.95
31
0
0
ARC
8
0
6
CONTINUOUS
10
29.043300790418044
20
3.9500018158701145
30
0
40
3.0
50
90.06304046605632
51
152.1818999275277
0
LINE
8
0
6
CONTINUOUS
10
26.39
20
5.35
30
0
11
25.53
21
3.79
31
0
0
LINE
8
0
6
CONTINUOUS
10
25.53
20
3.79
30
0
11
23.51
21
4.9
31
0
0
LINE
8
0
6
CONTINUOUS
10
23.51
20
4.9
30
0
11
23.51
21
0.6
31
0
0
LINE
8
0
6
CONTINUOUS
10
23.51
20
0.6
30
0
11
25.41
21
1.65
31
0
0
ARC
8
0
6
CONTINUOUS
10
25.39581162758495
20
4.149959737693432
30
0
40
2.5
50
270.3251752886597
51
327.3174574787811
0
LINE
8
0
6
CONTINUOUS
10
27.5
20
2.8
30
0
11
28.23
21
4.48
31
0
0
ARC
8
0
6
CONTINUOUS
10
29.88019825526268
20
3.3500240186941976
30
0
40
2.0
50
89.71919957326601
51
145.59854263678872
0
ARC
8
0
6
CONTINUOUS
10
29.886986748474833
20
-3.3700022699224763
30
0
40
2.0
50
214.05571925247855
51
270.08632333015964
0
LINE
8
0
6
CONTINUOUS
10
28.23
20
-4.49
30
0
11
27.5
21
-2.82
31
0
0
ARC
8
0
6
CONTINUOUS
10
25.39581162758495
20
-4.169959737693432
30
0
40
2.5
50
32.682542521218934
51
89.67482471134032
0
LINE
8
0
6
CONTINUOUS
10
25.41
20
-1.67
30
0
11
23.51
21
-0.62
31
0
0
LINE
8
0
6
CONTINUOUS
10
23.51
20
-0.62
30
0
11
23.51
21
-4.92
31
0
0
LINE
8
0
6
CONTINUOUS
10
23.51
20
-4.92
30
0
11
25.53
21
-3.8
31
0
0
LINE
8
0
6
CONTINUOUS
10
25.53
20
-3.8
30
0
11
26.39
21
-5.37
31
0
0
ARC
8
0
6
CONTINUOUS
10
29.043300790418044
20
-3.970001815870113
30
0
40
3.0
50
207.81810007247233
51
269.93695953394365
0
LINE
8
0
6
CONTINUOUS
10
29.04
20
-6.97
30
0
11
39.76
21
-6.97
31
0
0
ARC
8
0
6
CONTINUOUS
10
39.756699209581946
20
-3.970001815870113
30
0
40
3.0
50
270.06304046605646
51
332.1818999275277
0
LINE
8
0
6
CONTINUOUS
10
42.41
20
-5.37
30
0
11
43.31
21
-3.8
31
0
0
LINE
8
0
6
CONTINUOUS
10
43.31
20
-3.8
30
0
11
45.29
21
-4.95
31
0
0
LINE
8
0
6
CONTINUOUS
10
45.29
20
-4.95
30
0
11
45.29
21
-0.72
31
0
0
LINE
8
0
6
CONTINUOUS
10
45.29
20
-0.72
30
0
11
43.58
21
-1.67
31
0
0
ARC
8
0
6
CONTINUOUS
10
43.40217755582255
20
-4.163667816359419
30
0
40
2.5
50
85.92116547261821
51
146.39480095995836
0
LINE
8
0
6
CONTINUOUS
10
41.32
20
-2.78
30
0
11
40.58
21
-4.47
31
0
0
ARC
8
0
6
CONTINUOUS
10
38.909670673294976
20
-3.37000002711402
30
0
40
2.0
50
270.00943451518197
51
326.63298796083575
0
LINE
8
0
6
CONTINUOUS
10
38.91
20
-5.37
30
0
11
29.89
21
-5.37
31
0
0
LINE
8
0
6
CONTINUOUS
10
74.7
20
-22.7
30
0
11
62.59
21
-22.7
31
0
0
LINE
8
0
6
CONTINUOUS
10
62.59
20
-22.7
30
0
11
62.59
21
-12.36
31
0
0
ARC
8
0
6
CONTINUOUS
10
60.901948850632486
20
-9.293979237330737
30
0
40
3.5
50
298.8357481677389
51
348.36242925381623
0
LINE
8
0
6
CONTINUOUS
10
64.33
20
-10.0
30
0
11
71.5
21
-10.0
31
0
0
LINE
8
0
6
CONTINUOUS
10
71.5
20
-10.0
30
0
11
71.5
21
-11.0
31
0
0
ARC
8
0
6
CONTINUOUS
10
72.5
20
-11.0
30
0
40
1.0
50
180.0
51
270.0
0
LINE
8
0
6
CONTINUOUS
10
72.5
20
-12.0
30
0
11
74.7
21
-12.0
31
0
0
ARC
8
0
6
CONTINUOUS
10
74.7
20
-13.0
30
0
40
1.0
50
0.0
51
90.0
0
LINE
8
0
6
CONTINUOUS
10
75.7
20
-13.0
30
0
11
75.7
21
-21.7
31
0
0
ARC
8
0
6
CONTINUOUS
10
74.7
20
-21.7
30
0
40
1.0
50
270.0
51
0.0
0
LINE
8
0
6
CONTINUOUS
10
61.39
20
-22.7
30
0
11
57.11
21
-22.7
31
0
0
LINE
8
0
6
CONTINUOUS
10
57.11
20
-22.7
30
0
11
56.0
21
-18.57
31
0
0
LINE
8
0
6
CONTINUOUS
10
56.0
20
-18.57
30
0
11
56.0
21
-14.63
31
0
0
ARC
8
0
6
CONTINUOUS
10
55.35352086002606
20
-14.764427950846759
30
0
40
0.6603076195155629
50
11.746610061563462
51
171.7781719857576
0
LINE
8
0
6
CONTINUOUS
10
54.7
20
-14.67
30
0
11
54.7
21
-18.74
31
0
0
LINE
8
0
6
CONTINUOUS
10
54.7
20
-18.74
30
0
11
55.6
21
-22.1
31
0
0
LINE
8
0
6
CONTINUOUS
10
55.6
20
-22.1
30
0
11
54.2
21
-22.1
31
0
0
LINE
8
0
6
CONTINUOUS
10
54.2
20
-22.1
30
0
11
54.2
21
-23.5
31
0
0
ARC
8
0
6
CONTINUOUS
10
54.7
20
-23.5
30
0
40
0.5
50
180.0
51
270.0
0
LINE
8
0
6
CONTINUOUS
10
54.7
20
-24.0
30
0
11
76.5
21
-24.0
31
0
0
ARC
8
0
6
CONTINUOUS
10
76.5
20
-23.5
30
0
40
0.5
50
270.0
51
0.0
0
LINE
8
0
6
CONTINUOUS
10
77.0
20
-23.5
30
0
11
77.0
21
-10.0
31
0
0
LINE
8
0
6
CONTINUOUS
10
77.0
20
-10.0
30
0
11
75.7
21
-10.0
31
0
0
LINE
8
0
6
CONTINUOUS
10
75.7
20
-10.0
30
0
11
74.79
21
-10.5
31
0
0
LINE
8
0
6
CONTINUOUS
10
74.79
20
-10.5
30
0
11
73.0
21
-10.5
31
0
0
LINE
8
0
6
CONTINUOUS
10
73.0
20
-10.5
30
0
11
73.0
21
-7.03
31
0
0
ARC
8
0
6
CONTINUOUS
10
72.39999962639054
20
-7.700820059083284
30
0
40
0.9
50
48.189653193666814
51
179.94779341008314
0
ARC
8
0
6
CONTINUOUS
10
70.6
20
-7.8
30
0
40
0.9
50
270.0
51
0.0
0
LINE
8
0
6
CONTINUOUS
10
70.6
20
-8.7
30
0
11
64.35
21
-8.7
31
0
0
ARC
8
0
6
CONTINUOUS
10
60.901921806168204
20
-9.300630309942598
30
0
40
3.5
50
9.881363128694327
51
76.31441132199167
0
LINE
8
0
6
CONTINUOUS
10
61.73
20
-5.9
30
0
11
59.88
21
-5.9
31
0
0
ARC
8
0
6
CONTINUOUS
10
60.59803307298804
20
-8.398885452775968
30
0
40
2.6
50
106.03154597330689
51
182.22880699125037
0
LINE
8
0
6
CONTINUOUS
10
58.0
20
-8.5
30
0
11
58.85
21
-8.5
31
0
0
ARC
8
0
6
CONTINUOUS
10
60.843054884724204
20
-9.25142013978667
30
0
40
2.13
50
284.87918755552636
51
159.34258931828364
0
LINE
8
0
6
CONTINUOUS
10
61.39
20
-11.31
30
0
11
61.39
21
-22.7
31
0
0
ARC
8
0
6
CONTINUOUS
10
54.546533852547405
20
-29.13748416499925
30
0
40
5.53
50
149.12896239655086
51
161.90606580875527
0
LINE
8
0
6
CONTINUOUS
10
49.29
20
-27.42
30
0
11
49.2
21
-24.28
31
0
0
ARC
8
0
6
CONTINUOUS
10
50.41300308045712
20
-24.022660677700568
30
0
40
1.24
50
143.20741961806948
51
191.97774332712905
0
LINE
8
0
6
CONTINUOUS
10
49.42
20
-23.28
30
0
11
50.45
21
-20.94
31
0
0
LINE
8
0
6
CONTINUOUS
10
50.45
20
-20.94
30
0
11
51.2
21
-20.29
31
0
0
ARC
8
0
6
CONTINUOUS
10
51.400003040699765
20
-20.7482562424134
30
0
40
0.5
50
359.80017969452535
51
113.5785586563527
0
LINE
8
0
6
CONTINUOUS
10
51.9
20
-20.75
30
0
11
51.9
21
-23.23
31
0
0
LINE
8
0
6
CONTINUOUS
10
51.9
20
-23.23
30
0
11
49.8
21
-26.3
31
0
0
ARC
8
0
6
CONTINUOUS
10
54.14699441608096
20
-31.609830320271612
30
0
40
5.45
50
89.54787816035228
51
148.1019640038311
0
LINE
8
0
6
CONTINUOUS
10
54.19
20
-26.16
30
0
11
55.06
21
-25.92
31
0
0
ARC
8
0
6
CONTINUOUS
10
54.806162839152336
20
-24.952753032688758
30
0
40
1.0
50
284.7046923990612
51
346.86495680692263
0
LINE
8
0
6
CONTINUOUS
10
55.78
20
-25.18
30
0
11
56.05
21
-24.0
31
0
0
LINE
8
0
6
CONTINUOUS
10
56.05
20
-24.0
30
0
11
54.19
21
-24.0
31
0
0
LINE
8
0
6
CONTINUOUS
10
54.19
20
-24.0
30
0
11
54.36
21
-19.46
31
0
0
LINE
8
0
6
CONTINUOUS
10
54.36
20
-19.46
30
0
11
53.87
21
-18.41
31
0
0
LINE
8
0
6
CONTINUOUS
10
53.87
20
-18.41
30
0
11
49.47
21
-14.6
31
0
0
ARC
8
0
6
CONTINUOUS
10
49.17451785695516
20
-15.311048734716284
30
0
40
0.77
50
67.43427102618853
51
162.53859538337147
0
LINE
8
0
6
CONTINUOUS
10
48.44
20
-15.08
30
0
11
48.44
21
-18.0
31
0
0
ARC
8
0
6
CONTINUOUS
10
48.76059624482375
20
-17.8595790335993
30
0
40
0.35
50
203.65339044177924
51
356.6551427186215
0
LINE
8
0
6
CONTINUOUS
10
49.11
20
-17.88
30
0
11
49.13
21
-16.39
31
0
0
ARC
8
0
6
CONTINUOUS
10
85.27877964795417
20
-3.5842110760931583
30
0
40
38.35
50
199.50680880997444
51
203.79971719916938
0
LINE
8
0
6
CONTINUOUS
10
50.19
20
-19.06
30
0
11
48.4
21
-23.48
31
0
0
LINE
8
0
6
CONTINUOUS
10
48.4
20
-23.48
30
0
11
48.4
21
-27.82
31
0
0
ARC
8
0
6
CONTINUOUS
10
49.39660286167584
20
-27.737642631783586
30
0
40
1.0
50
184.72408027449035
51
277.0882019530507
0
ARC
8
0
6
CONTINUOUS
10
22.946860267874623
20
-27.213605505876618
30
0
40
2.92
50
67.80329259766914
51
86.20747381849769
0
ARC
8
0
6
CONTINUOUS
10
24.241589110872454
20
-24.091797163334462
30
0
40
0.46
50
245.38630761232173
51
355.23611884104196
0
LINE
8
0
6
CONTINUOUS
10
24.7
20
-24.13
30
0
11
24.7
21
-15.04
31
0
0
LINE
8
0
6
CONTINUOUS
10
24.7
20
-15.04
30
0
11
23.77
21
-15.04
31
0
0
LINE
8
0
6
CONTINUOUS
10
23.77
20
-15.04
30
0
11
23.07
21
-16.91
31
0
0
LINE
8
0
6
CONTINUOUS
10
23.07
20
-16.91
30
0
11
21.98
21
-15.15
31
0
0
LINE
8
0
6
CONTINUOUS
10
21.98
20
-15.15
30
0
11
20.64
21
-15.9
31
0
0
LINE
8
0
6
CONTINUOUS
10
20.64
20
-15.9
30
0
11
19.39
21
-15.9
31
0
0
LINE
8
0
6
CONTINUOUS
10
19.39
20
-15.9
30
0
11
18.9
21
-16.74
31
0
0
LINE
8
0
6
CONTINUOUS
10
18.9
20
-16.74
30
0
11
18.9
21
-21.26
31
0
0
LINE
8
0
6
CONTINUOUS
10
18.9
20
-21.26
30
0
11
19.32
21
-22.28
31
0
0
LINE
8
0
6
CONTINUOUS
10
19.32
20
-22.28
30
0
11
20.7
21
-21.9
31
0
0
LINE
8
0
6
CONTINUOUS
10
20.7
20
-21.9
30
0
11
20.7
21
-24.01
31
0
0
LINE
8
0
6
CONTINUOUS
10
20.7
20
-24.01
30
0
11
23.14
21
-24.3
31
0
0
LINE
8
0
6
CONTINUOUS
10
23.12
20
-17.93
30
0
11
24.33
21
-15.53
31
0
0
ARC
8
0
6
CONTINUOUS
10
13.785043985846427
20
-16.703031397519467
30
0
40
10.61
50
352.3252013231425
51
6.347542676831099
0
LINE
8
0
6
CONTINUOUS
10
24.3
20
-18.12
30
0
11
23.94
21
-20.69
31
0
0
ARC
8
0
6
CONTINUOUS
10
23.383968285724837
20
-20.39380963432242
30
0
40
0.63
50
240.10828648837477
51
331.9563922194967
0
ARC
8
0
6
CONTINUOUS
10
25.464270091827256
20
-17.760712229542364
30
0
40
3.98
50
153.9039381158394
51
233.01718912578957
0
LINE
8
0
6
CONTINUOUS
10
21.89
20
-16.01
30
0
11
23.12
21
-17.93
31
0
0
LINE
8
0
6
CONTINUOUS
10
20.8
20
-20.2
30
0
11
19.5
21
-20.2
31
0
0
LINE
8
0
6
CONTINUOUS
10
19.5
20
-20.2
30
0
11
19.5
21
-17.8
31
0
0
LINE
8
0
6
CONTINUOUS
10
19.5
20
-17.8
30
0
11
20.8
21
-17.8
31
0
0
LINE
8
0
6
CONTINUOUS
10
20.8
20
-17.8
30
0
11
20.8
21
-20.2
31
0
0
ARC
8
0
6
CONTINUOUS
10
21.35
20
-21.089999984640233
30
0
40
0.35
50
180.00000251442805
51
359.99999748557195
0
ARC
8
0
6
CONTINUOUS
10
21.35
20
-21.090000015359767
30
0
40
0.35
50
2.514428032784938e-06
51
179.99999748557195
0
ARC
8
0
6
CONTINUOUS
10
22.448683355573966
20
-21.735776074728513
30
0
40
0.5
50
45.36134320290094
51
167.78667231091734
0
LINE
8
0
6
CONTINUOUS
10
22.8
20
-21.38
30
0
11
23.13
21
-22.12
31
0
0
ARC
8
0
6
CONTINUOUS
10
22.760626220892572
20
-22.500082900572888
30
0
40
0.53
50
271.01340751935254
51
45.81865399710844
0
LINE
8
0
6
CONTINUOUS
10
22.77
20
-23.03
30
0
11
21.79
21
-22.46
31
0
0
LINE
8
0
6
CONTINUOUS
10
21.79
20
-22.46
30
0
11
21.96
21
-21.63
31
0
0
LINE
8
0
6
CONTINUOUS
10
75.4
20
3.9
30
0
11
75.4
21
-3.9
31
0
0
LINE
8
0
6
CONTINUOUS
10
75.4
20
-3.9
30
0
11
53.3
21
-3.9
31
0
0
ARC
8
0
6
CONTINUOUS
10
53.3
20
-3.4
30
0
40
0.5
50
180.0
51
270.0
0
LINE
8
0
6
CONTINUOUS
10
52.8
20
-3.4
30
0
11
52.8
21
-1.65
31
0
0
ARC
8
0
6
CONTINUOUS
10
52.3
20
-1.65
30
0
40
0.5
50
0.0
51
90.0
0
LINE
8
0
6
CONTINUOUS
10
52.3
20
-1.15
30
0
11
51.35
21
-1.81
31
0
0
ARC
8
0
6
CONTINUOUS
10
50.49783865164746
20
-0.0006296574846856307
30
0
40
2.0
50
48.61765668923124
51
295.21908575278366
0
ARC
8
0
6
CONTINUOUS
10
52.30010753206919
20
1.6396307904813128
30
0
40
0.5
50
196.21613850650104
51
1.188309073392432
0
LINE
8
0
6
CONTINUOUS
10
52.8
20
1.65
30
0
11
52.8
21
3.4
31
0
0
ARC
8
0
6
CONTINUOUS
10
53.3
20
3.4
30
0
40
0.5
50
90.0
51
180.0
0
LINE
8
0
6
CONTINUOUS
10
53.3
20
3.9
30
0
11
75.4
21
3.9
31
0
0
LINE
8
0
6
CONTINUOUS
10
75.4
20
5.5
30
0
11
56.5
21
5.5
31
0
0
LINE
8
0
6
CONTINUOUS
10
56.5
20
5.5
30
0
11
56.5
21
8.5
31
0
0
LINE
8
0
6
CONTINUOUS
10
56.5
20
8.5
30
0
11
59.15
21
8.5
31
0
0
LINE
8
0
6
CONTINUOUS
10
59.15
20
8.5
30
0
11
58.28
21
10.0
31
0
0
LINE
8
0
6
CONTINUOUS
10
58.28
20
10.0
30
0
11
54.4
21
10.0
31
0
0
LINE
8
0
6
CONTINUOUS
10
54.4
20
10.0
30
0
11
54.2
21
8.8
31
0
0
LINE
8
0
6
CONTINUOUS
10
54.2
20
8.8
30
0
11
55.0
21
8.8
31
0
0
LINE
8
0
6
CONTINUOUS
10
55.0
20
8.8
30
0
11
55.0
21
5.5
31
0
0
LINE
8
0
6
CONTINUOUS
10
55.0
20
5.5
30
0
11
51.7
21
5.5
31
0
0
ARC
8
0
6
CONTINUOUS
10
51.69507231778855
20
5.000024282641624
30
0
40
0.5
50
89.43532007169439
51
188.0506565196798
0
ARC
8
0
6
CONTINUOUS
10
50.19848615638782
20
4.799998854138103
30
0
40
1.0
50
270.0867368829503
51
7.469658531373041
0
LINE
8
0
6
CONTINUOUS
10
50.2
20
3.8
30
0
11
48.5
21
3.8
31
0
0
ARC
8
0
6
CONTINUOUS
10
48.5
20
4.8
30
0
40
1.0
50
180.0
51
270.0
0
LINE
8
0
6
CONTINUOUS
10
47.5
20
4.8
30
0
11
47.5
21
8.8
31
0
0
LINE
8
0
6
CONTINUOUS
10
47.5
20
8.8
30
0
11
48.3
21
8.8
31
0
0
LINE
8
0
6
CONTINUOUS
10
48.3
20
8.8
30
0
11
48.1
21
10.0
31
0
0
LINE
8
0
6
CONTINUOUS
10
48.1
20
10.0
30
0
11
46.4
21
10.0
31
0
0
ARC
8
0
6
CONTINUOUS
10
46.4
20
9.5
30
0
40
0.5
50
90.0
51
180.0
0
LINE
8
0
6
CONTINUOUS
10
45.9
20
9.5
30
0
11
45.9
21
6.84
31
0
0
LINE
8
0
6
CONTINUOUS
10
45.9
20
6.84
30
0
11
44.44
21
6.43
31
0
0
LINE
8
0
6
CONTINUOUS
10
44.44
20
6.43
30
0
11
42.64
21
6.7
31
0
0
LINE
8
0
6
CONTINUOUS
10
42.64
20
6.7
30
0
11
43.3
21
3.95
31
0
0
LINE
8
0
6
CONTINUOUS
10
43.3
20
3.95
30
0
11
45.59
21
5.53
31
0
0
ARC
8
0
6
CONTINUOUS
10
45.67981379346132
20
5.2437597468836925
30
0
40
0.3
50
317.2189060565709
51
107.42032695978867
0
LINE
8
0
6
CONTINUOUS
10
45.9
20
5.04
30
0
11
45.9
21
1.12
31
0
0
LINE
8
0
6
CONTINUOUS
10
45.9
20
1.12
30
0
11
45.25
21
0.62
31
0
0
LINE
8
0
6
CONTINUOUS
10
45.25
20
0.62
30
0
11
43.4
21
1.43
31
0
0
LINE
8
0
6
CONTINUOUS
10
43.4
20
1.43
30
0
11
43.4
21
-1.43
31
0
0
LINE
8
0
6
CONTINUOUS
10
43.4
20
-1.43
30
0
11
45.25
21
-0.62
31
0
0
LINE
8
0
6
CONTINUOUS
10
45.25
20
-0.62
30
0
11
45.9
21
-1.12
31
0
0
LINE
8
0
6
CONTINUOUS
10
45.9
20
-1.12
30
0
11
45.9
21
-5.04
31
0
0
ARC
8
0
6
CONTINUOUS
10
45.67981379346132
20
-5.2437597468836925
30
0
40
0.3
50
252.57967304021133
51
42.78109394342909
0
LINE
8
0
6
CONTINUOUS
10
45.59
20
-5.53
30
0
11
43.31
21
-3.95
31
0
0
LINE
8
0
6
CONTINUOUS
10
43.31
20
-3.95
30
0
11
42.64
21
-6.7
31
0
0
LINE
8
0
6
CONTINUOUS
10
42.64
20
-6.7
30
0
11
43.79
21
-6.89
31
0
0
LINE
8
0
6
CONTINUOUS
10
43.79
20
-6.89
30
0
11
44.44
21
-6.43
31
0
0
LINE
8
0
6
CONTINUOUS
10
44.44
20
-6.43
30
0
11
45.75
21
-6.8
31
0
0
ARC
8
0
6
CONTINUOUS
10
45.75033402757439
20
-7.099999814042575
30
0
40
0.3
50
299.92636367765886
51
90.0637945806929
0
LINE
8
0
6
CONTINUOUS
10
45.9
20
-7.36
30
0
11
45.9
21
-9.5
31
0
0
ARC
8
0
6
CONTINUOUS
10
46.4
20
-9.5
30
0
40
0.5
50
180.0
51
270.0
0
LINE
8
0
6
CONTINUOUS
10
46.4
20
-10.0
30
0
11
48.1
21
-10.0
31
0
0
LINE
8
0
6
CONTINUOUS
10
48.1
20
-10.0
30
0
11
48.3
21
-8.8
31
0
0
LINE
8
0
6
CONTINUOUS
10
48.3
20
-8.8
30
0
11
47.5
21
-8.8
31
0
0
LINE
8
0
6
CONTINUOUS
10
47.5
20
-8.8
30
0
11
47.5
21
-4.8
31
0
0
ARC
8
0
6
CONTINUOUS
10
48.5
20
-4.8
30
0
40
1.0
50
90.0
51
180.0
0
LINE
8
0
6
CONTINUOUS
10
48.5
20
-3.8
30
0
11
50.2
21
-3.8
31
0
0
ARC
8
0
6
CONTINUOUS
10
50.19848615638782
20
-4.799998854138103
30
0
40
1.0
50
352.53034146862694
51
89.91326311704974
0
ARC
8
0
6
CONTINUOUS
10
51.69507231778855
20
-5.000024282641624
30
0
40
0.5
50
171.9493434803202
51
270.5646799283056
0
LINE
8
0
6
CONTINUOUS
10
51.7
20
-5.5
30
0
11
55.0
21
-5.5
31
0
0
LINE
8
0
6
CONTINUOUS
10
55.0
20
-5.5
30
0
11
55.0
21
-8.8
31
0
0
LINE
8
0
6
CONTINUOUS
10
55.0
20
-8.8
30
0
11
54.2
21
-8.8
31
0
0
LINE
8
0
6
CONTINUOUS
10
54.2
20
-8.8
30
0
11
54.4
21
-10.0
31
0
0
LINE
8
0
6
CONTINUOUS
10
54.4
20
-10.0
30
0
11
58.28
21
-10.0
31
0
0
LINE
8
0
6
CONTINUOUS
10
58.28
20
-10.0
30
0
11
59.15
21
-8.5
31
0
0
LINE
8
0
6
CONTINUOUS
10
59.15
20
-8.5
30
0
11
56.5
21
-8.5
31
0
0
LINE
8
0
6
CONTINUOUS
10
56.5
20
-8.5
30
0
11
56.5
21
-5.5
31
0
0
LINE
8
0
6
CONTINUOUS
10
56.5
20
-5.5
30
0
11
75.4
21
-5.5
31
0
0
LINE
8
0
6
CONTINUOUS
10
75.4
20
-5.5
30
0
11
75.4
21
-8.5
31
0
0
LINE
8
0
6
CONTINUOUS
10
75.4
20
-8.5
30
0
11
73.19
21
-8.5
31
0
0
LINE
8
0
6
CONTINUOUS
10
73.19
20
-8.5
30
0
11
73.19
21
-10.0
31
0
0
LINE
8
0
6
CONTINUOUS
10
73.19
20
-10.0
30
0
11
76.5
21
-10.0
31
0
0
ARC
8
0
6
CONTINUOUS
10
76.5
20
-9.5
30
0
40
0.5
50
270.0
51
0.0
0
LINE
8
0
6
CONTINUOUS
10
77.0
20
-9.5
30
0
11
77.0
21
9.5
31
0
0
ARC
8
0
6
CONTINUOUS
10
76.5
20
9.5
30
0
40
0.5
50
0.0
51
90.0
0
LINE
8
0
6
CONTINUOUS
10
76.5
20
10.0
30
0
11
73.19
21
10.0
31
0
0
LINE
8
0
6
CONTINUOUS
10
73.19
20
10.0
30
0
11
73.19
21
8.5
31
0
0
LINE
8
0
6
CONTINUOUS
10
73.19
20
8.5
30
0
11
75.4
21
8.5
31
0
0
LINE
8
0
6
CONTINUOUS
10
75.4
20
8.5
30
0
11
75.4
21
5.5
31
0
0
LINE
8
0
6
CONTINUOUS
10
-8.87
20
7.21
30
0
11
2.99
21
12.55
31
0
0
ARC
8
0
6
CONTINUOUS
10
3.2000391398650065
20
12.096256063704685
30
0
40
0.5
50
359.2830892000876
51
114.8395297140013
0
ARC
8
0
6
CONTINUOUS
10
7.099955777835548
20
12.072659043778781
30
0
40
3.4
50
179.70777414358216
51
237.0365008847832
0
ARC
8
0
6
CONTINUOUS
10
5.791196628950238
20
10.060896074918238
30
0
40
1.0
50
237.23486422946152
51
306.7842433965806
0
ARC
8
0
6
CONTINUOUS
10
6.336065512811299
20
9.7570825596334
30
0
40
0.5
50
276.19248580252446
51
46.53834444258262
0
ARC
8
0
6
CONTINUOUS
10
7.099646117549925
20
12.075478748548619
30
0
40
2.0
50
330.4792077223779
51
257.88801675804166
0
ARC
8
0
6
CONTINUOUS
10
9.339956884933542
20
11.096566064844934
30
0
40
0.5
50
180.7524372349598
51
312.8503817377439
0
ARC
8
0
6
CONTINUOUS
10
9.47100001917428
20
11.7079156446314
30
0
40
1.0
50
282.0637550120696
51
351.49384561927803
0
ARC
8
0
6
CONTINUOUS
10
7.098941771225212
20
12.073115564746656
30
0
40
3.4
50
351.3199663258769
51
48.766080984332376
0
ARC
8
0
6
CONTINUOUS
10
9.66954827766845
20
15.006029164674443
30
0
40
0.5
50
114.77756238610709
51
228.7689926856766
0
LINE
8
0
6
CONTINUOUS
10
9.46
20
15.46
30
0
11
11.7
21
16.47
31
0
0
LINE
8
0
6
CONTINUOUS
10
11.7
20
16.47
30
0
11
11.7
21
21.9
31
0
0
ARC
8
0
6
CONTINUOUS
10
12.2
20
21.9
30
0
40
0.5
50
90.0
51
180.0
0
LINE
8
0
6
CONTINUOUS
10
12.2
20
22.4
30
0
11
16.2
21
22.4
31
0
0
ARC
8
0
6
CONTINUOUS
10
16.2
20
21.9
30
0
40
0.5
50
0.0
51
90.0
0
LINE
8
0
6
CONTINUOUS
10
16.7
20
21.9
30
0
11
16.7
21
5.75
31
0
0
ARC
8
0
6
CONTINUOUS
10
17.2
20
5.75
30
0
40
0.5
50
180.0
51
270.0
0
LINE
8
0
6
CONTINUOUS
10
17.2
20
5.25
30
0
11
20.6
21
5.25
31
0
0
ARC
8
0
6
CONTINUOUS
10
20.6
20
4.75
30
0
40
0.5
50
0.0
51
90.0
0
LINE
8
0
6
CONTINUOUS
10
21.1
20
4.75
30
0
11
21.1
21
-4.75
31
0
0
ARC
8
0
6
CONTINUOUS
10
20.6
20
-4.75
30
0
40
0.5
50
270.0
51
0.0
0
LINE
8
0
6
CONTINUOUS
10
20.6
20
-5.25
30
0
11
17.2
21
-5.25
31
0
0
ARC
8
0
6
CONTINUOUS
10
17.2
20
-5.75
30
0
40
0.5
50
90.0
51
180.0
0
LINE
8
0
6
CONTINUOUS
10
16.7
20
-5.75
30
0
11
16.7
21
-21.9
31
0
0
ARC
8
0
6
CONTINUOUS
10
16.2
20
-21.9
30
0
40
0.5
50
270.0
51
0.0
0
LINE
8
0
6
CONTINUOUS
10
16.2
20
-22.4
30
0
11
12.2
21
-22.4
31
0
0
ARC
8
0
6
CONTINUOUS
10
12.2
20
-21.9
30
0
40
0.5
50
180.0
51
270.0
0
LINE
8
0
6
CONTINUOUS
10
11.7
20
-21.9
30
0
11
11.7
21
-16.47
31
0
0
LINE
8
0
6
CONTINUOUS
10
11.7
20
-16.47
30
0
11
9.46
21
-15.46
31
0
0
ARC
8
0
6
CONTINUOUS
10
9.66954827766845
20
-15.006029164674443
30
0
40
0.5
50
131.2310073143234
51
245.2224376138929
0
ARC
8
0
6
CONTINUOUS
10
7.098941771225212
20
-12.073115564746656
30
0
40
3.4
50
311.23391901566765
51
8.680033674123084
0
ARC
8
0
6
CONTINUOUS
10
9.47100001917428
20
-11.7079156446314
30
0
40
1.0
50
8.506154380721943
51
77.93624498793042
0
ARC
8
0
6
CONTINUOUS
10
9.339956884933542
20
-11.096566064844934
30
0
40
0.5
50
47.14961826225611
51
179.2475627650402
0
ARC
8
0
6
CONTINUOUS
10
7.099646117549925
20
-12.075478748548619
30
0
40
2.0
50
102.11198324195836
51
29.520792277622085
0
ARC
8
0
6
CONTINUOUS
10
6.336065512811299
20
-9.7570825596334
30
0
40
0.5
50
313.4616555574174
51
83.80751419747553
0
ARC
8
0
6
CONTINUOUS
10
5.791196628950238
20
-10.060896074918238
30
0
40
1.0
50
53.215756603419365
51
122.76513577053848
0
ARC
8
0
6
CONTINUOUS
10
7.099955777835548
20
-12.072659043778781
30
0
40
3.4
50
122.96349911521679
51
180.29222585641784
0
ARC
8
0
6
CONTINUOUS
10
3.2000391398650065
20
-12.096256063704685
30
0
40
0.5
50
245.1604702859987
51
0.7169107999123988
0
LINE
8
0
6
CONTINUOUS
10
2.99
20
-12.55
30
0
11
-8.87
21
-7.21
31
0
0
ARC
8
0
6
CONTINUOUS
10
-8.67453779243682
20
-6.7497886079044465
30
0
40
0.5
50
88.33385688692452
51
246.98796855642314
0
LINE
8
0
6
CONTINUOUS
10
-8.66
20
-6.25
30
0
11
-7.8
21
-6.25
31
0
0
ARC
8
0
6
CONTINUOUS
10
-7.8
20
-5.75
30
0
40
0.5
50
270.0
51
0.0
0
ARC
8
0
6
CONTINUOUS
10
-7.8
20
-5.75
30
0
40
0.5
50
0.0
51
90.0
0
LINE
8
0
6
CONTINUOUS
10
-7.8
20
-5.25
30
0
11
-10.9
21
-5.25
31
0
0
ARC
8
0
6
CONTINUOUS
10
-10.9
20
-4.75
30
0
40
0.5
50
180.0
51
270.0
0
LINE
8
0
6
CONTINUOUS
10
-11.4
20
-4.75
30
0
11
-11.4
21
4.75
31
0
0
ARC
8
0
6
CONTINUOUS
10
-10.9
20
4.75
30
0
40
0.5
50
90.0
51
180.0
0
LINE
8
0
6
CONTINUOUS
10
-10.9
20
5.25
30
0
11
-7.8
21
5.25
31
0
0
ARC
8
0
6
CONTINUOUS
10
-7.8
20
5.75
30
0
40
0.5
50
270.0
51
0.0
0
ARC
8
0
6
CONTINUOUS
10
-7.8
20
5.75
30
0
40
0.5
50
0.0
51
90.0
0
LINE
8
0
6
CONTINUOUS
10
-7.8
20
6.25
30
0
11
-8.66
21
6.25
31
0
0
ARC
8
0
6
CONTINUOUS
10
-8.67453779243682
20
6.7497886079044465
30
0
40
0.5
50
113.01203144357684
51
271.66614311307546
0
LINE
8
0
6
CONTINUOUS
10
-13.0
20
-7.1
30
0
11
10.1
21
-17.5
31
0
0
LINE
8
0
6
CONTINUOUS
10
10.1
20
-17.5
30
0
11
10.1
21
-23.5
31
0
0
ARC
8
0
6
CONTINUOUS
10
10.6
20
-23.5
30
0
40
0.5
50
180.0
51
270.0
0
LINE
8
0
6
CONTINUOUS
10
10.6
20
-24.0
30
0
11
20.2
21
-24.0
31
0
0
ARC
8
0
6
CONTINUOUS
10
20.2
20
-23.5
30
0
40
0.5
50
270.0
51
0.0
0
LINE
8
0
6
CONTINUOUS
10
20.7
20
-23.5
30
0
11
20.7
21
-21.9
31
0
0
LINE
8
0
6
CONTINUOUS
10
20.7
20
-21.9
30
0
11
19.9
21
-21.9
31
0
0
LINE
8
0
6
CONTINUOUS
10
19.9
20
-21.9
30
0
11
19.9
21
-22.8
31
0
0
LINE
8
0
6
CONTINUOUS
10
19.9
20
-22.8
30
0
11
18.8
21
-22.8
31
0
0
ARC
8
0
6
CONTINUOUS
10
18.8
20
-22.3
30
0
40
0.5
50
180.0
51
270.0
0
LINE
8
0
6
CONTINUOUS
10
18.3
20
-22.3
30
0
11
18.3
21
-15.7
31
0
0
ARC
8
0
6
CONTINUOUS
10
18.8
20
-15.7
30
0
40
0.5
50
90.0
51
180.0
0
LINE
8
0
6
CONTINUOUS
10
18.8
20
-15.2
30
0
11
19.9
21
-15.2
31
0
0
LINE
8
0
6
CONTINUOUS
10
19.9
20
-15.2
30
0
11
19.9
21
-16.21
31
0
0
LINE
8
0
6
CONTINUOUS
10
19.9
20
-16.21
30
0
11
20.7
21
-16.21
31
0
0
LINE
8
0
6
CONTINUOUS
10
20.7
20
-16.21
30
0
11
20.7
21
-14.5
31
0
0
ARC
8
0
6
CONTINUOUS
10
20.2
20
-14.5
30
0
40
0.5
50
0.0
51
90.0
0
LINE
8
0
6
CONTINUOUS
10
20.2
20
-14.0
30
0
11
18.8
21
-14.0
31
0
0
ARC
8
0
6
CONTINUOUS
10
18.8
20
-13.5
30
0
40
0.5
50
180.0
51
270.0
0
LINE
8
0
6
CONTINUOUS
10
18.3
20
-13.5
30
0
11
18.3
21
-7.5
31
0
0
ARC
8
0
6
CONTINUOUS
10
18.8
20
-7.5
30
0
40
0.5
50
90.0
51
180.0
0
LINE
8
0
6
CONTINUOUS
10
18.8
20
-7.0
30
0
11
22.1
21
-7.0
31
0
0
LINE
8
0
6
CONTINUOUS
10
22.1
20
-7.0
30
0
11
24.36
21
-6.43
31
0
0
LINE
8
0
6
CONTINUOUS
10
24.36
20
-6.43
30
0
11
26.16
21
-6.7
31
0
0
LINE
8
0
6
CONTINUOUS
10
26.16
20
-6.7
30
0
11
25.54
21
-3.92
31
0
0
LINE
8
0
6
CONTINUOUS
10
25.54
20
-3.92
30
0
11
23.21
21
-5.53
31
0
0
ARC
8
0
6
CONTINUOUS
10
23.120186206538673
20
-5.243759746883695
30
0
40
0.3
50
137.21890605657006
51
287.42032695979077
0
LINE
8
0
6
CONTINUOUS
10
22.9
20
-5.04
30
0
11
22.9
21
-1.07
31
0
0
LINE
8
0
6
CONTINUOUS
10
22.9
20
-1.07
30
0
11
23.61
21
-0.68
31
0
0
LINE
8
0
6
CONTINUOUS
10
23.61
20
-0.68
30
0
11
25.4
21
-1.66
31
0
0
LINE
8
0
6
CONTINUOUS
10
25.4
20
-1.66
30
0
11
25.4
21
1.65
31
0
0
LINE
8
0
6
CONTINUOUS
10
25.4
20
1.65
30
0
11
23.73
21
0.73
31
0
0
LINE
8
0
6
CONTINUOUS
10
23.73
20
0.73
30
0
11
22.9
21
0.8
31
0
0
LINE
8
0
6
CONTINUOUS
10
22.9
20
0.8
30
0
11
22.9
21
5.04
31
0
0
ARC
8
0
6
CONTINUOUS
10
23.120186206538673
20
5.243759746883695
30
0
40
0.3
50
72.57967304020924
51
222.78109394342994
0
LINE
8
0
6
CONTINUOUS
10
23.21
20
5.53
30
0
11
25.55
21
3.93
31
0
0
LINE
8
0
6
CONTINUOUS
10
25.55
20
3.93
30
0
11
26.23
21
7.0
31
0
0
LINE
8
0
6
CONTINUOUS
10
26.23
20
7.0
30
0
11
18.8
21
7.0
31
0
0
ARC
8
0
6
CONTINUOUS
10
18.8
20
7.5
30
0
40
0.5
50
180.0
51
270.0
0
LINE
8
0
6
CONTINUOUS
10
18.3
20
7.5
30
0
11
18.3
21
13.5
31
0
0
ARC
8
0
6
CONTINUOUS
10
18.8
20
13.5
30
0
40
0.5
50
90.0
51
180.0
0
LINE
8
0
6
CONTINUOUS
10
18.8
20
14.0
30
0
11
20.2
21
14.0
31
0
0
ARC
8
0
6
CONTINUOUS
10
20.2
20
14.5
30
0
40
0.5
50
270.0
51
0.0
0
LINE
8
0
6
CONTINUOUS
10
20.7
20
14.5
30
0
11
20.7
21
16.1
31
0
0
ARC
8
0
6
CONTINUOUS
10
20.299999999999997
20
16.01
30
0
40
0.41000000000000036
50
12.680383491819734
51
167.31961650818016
0
LINE
8
0
6
CONTINUOUS
10
19.9
20
16.1
30
0
11
19.9
21
15.2
31
0
0
LINE
8
0
6
CONTINUOUS
10
19.9
20
15.2
30
0
11
18.8
21
15.2
31
0
0
ARC
8
0
6
CONTINUOUS
10
18.8
20
15.7
30
0
40
0.5
50
180.0
51
270.0
0
LINE
8
0
6
CONTINUOUS
10
18.3
20
15.7
30
0
11
18.3
21
22.3
31
0
0
ARC
8
0
6
CONTINUOUS
10
18.8
20
22.3
30
0
40
0.5
50
90.0
51
180.0
0
LINE
8
0
6
CONTINUOUS
10
18.8
20
22.8
30
0
11
19.9
21
22.8
31
0
0
LINE
8
0
6
CONTINUOUS
10
19.9
20
22.8
30
0
11
19.9
21
21.9
31
0
0
LINE
8
0
6
CONTINUOUS
10
19.9
20
21.9
30
0
11
20.7
21
21.9
31
0
0
LINE
8
0
6
CONTINUOUS
10
20.7
20
21.9
30
0
11
20.7
21
23.5
31
0
0
ARC
8
0
6
CONTINUOUS
10
20.2
20
23.5
30
0
40
0.5
50
0.0
51
90.0
0
LINE
8
0
6
CONTINUOUS
10
20.2
20
24.0
30
0
11
10.6
21
24.0
31
0
0
ARC
8
0
6
CONTINUOUS
10
10.6
20
23.5
30
0
40
0.5
50
90.0
51
180.0
0
LINE
8
0
6
CONTINUOUS
10
10.1
20
23.5
30
0
11
10.1
21
17.5
31
0
0
LINE
8
0
6
CONTINUOUS
10
10.1
20
17.5
30
0
11
-13.0
21
7.1
31
0
0
LINE
8
0
6
CONTINUOUS
10
-13.0
20
7.1
30
0
11
-13.0
21
-7.1
31
0
0
ARC
8
0
6
CONTINUOUS
10
74.7
20
21.7
30
0
40
1.0
50
0.0
51
90.0
0
LINE
8
0
6
CONTINUOUS
10
75.7
20
21.7
30
0
11
75.7
21
13.0
31
0
0
ARC
8
0
6
CONTINUOUS
10
74.7
20
13.0
30
0
40
1.0
50
270.0
51
0.0
0
LINE
8
0
6
CONTINUOUS
10
74.7
20
12.0
30
0
11
72.5
21
12.0
31
0
0
ARC
8
0
6
CONTINUOUS
10
72.5
20
11.0
30
0
40
1.0
50
90.0
51
180.0
0
LINE
8
0
6
CONTINUOUS
10
71.5
20
11.0
30
0
11
71.5
21
10.0
31
0
0
LINE
8
0
6
CONTINUOUS
10
71.5
20
10.0
30
0
11
64.33
21
10.0
31
0
0
ARC
8
0
6
CONTINUOUS
10
60.901948850632486
20
9.293979237330737
30
0
40
3.5
50
11.637570746183782
51
61.16425183226109
0
LINE
8
0
6
CONTINUOUS
10
62.59
20
12.36
30
0
11
62.59
21
22.7
31
0
0
LINE
8
0
6
CONTINUOUS
10
62.59
20
22.7
30
0
11
74.7
21
22.7
31
0
0
LINE
8
0
6
CONTINUOUS
10
61.39
20
22.7
30
0
11
61.39
21
11.31
31
0
0
ARC
8
0
6
CONTINUOUS
10
60.843054884724204
20
9.25142013978667
30
0
40
2.13
50
200.65741068171636
51
75.12081244447363
0
LINE
8
0
6
CONTINUOUS
10
58.85
20
8.5
30
0
11
58.0
21
8.5
31
0
0
ARC
8
0
6
CONTINUOUS
10
60.59803307298804
20
8.398885452775968
30
0
40
2.6
50
177.77119300874963
51
253.9684540266931
0
LINE
8
0
6
CONTINUOUS
10
59.88
20
5.9
30
0
11
61.73
21
5.9
31
0
0
ARC
8
0
6
CONTINUOUS
10
60.901921806168204
20
9.300630309942598
30
0
40
3.5
50
283.68558867800834
51
350.1186368713057
0
LINE
8
0
6
CONTINUOUS
10
64.35
20
8.7
30
0
11
70.6
21
8.7
31
0
0
ARC
8
0
6
CONTINUOUS
10
70.6
20
7.8
30
0
40
0.9
50
0.0
51
90.0
0
ARC
8
0
6
CONTINUOUS
10
72.39999962639054
20
7.700820059083284
30
0
40
0.9
50
180.05220658991686
51
311.8103468063332
0
LINE
8
0
6
CONTINUOUS
10
73.0
20
7.03
30
0
11
73.0
21
10.5
31
0
0
LINE
8
0
6
CONTINUOUS
10
73.0
20
10.5
30
0
11
74.79
21
10.5
31
0
0
LINE
8
0
6
CONTINUOUS
10
74.79
20
10.5
30
0
11
75.7
21
10.0
31
0
0
LINE
8
0
6
CONTINUOUS
10
75.7
20
10.0
30
0
11
77.0
21
10.0
31
0
0
LINE
8
0
6
CONTINUOUS
10
77.0
20
10.0
30
0
11
77.0
21
23.5
31
0
0
ARC
8
0
6
CONTINUOUS
10
76.5
20
23.5
30
0
40
0.5
50
0.0
51
90.0
0
LINE
8
0
6
CONTINUOUS
10
76.5
20
24.0
30
0
11
54.7
21
24.0
31
0
0
ARC
8
0
6
CONTINUOUS
10
54.7
20
23.5
30
0
40
0.5
50
90.0
51
180.0
0
LINE
8
0
6
CONTINUOUS
10
54.2
20
23.5
30
0
11
54.2
21
22.1
31
0
0
LINE
8
0
6
CONTINUOUS
10
54.2
20
22.1
30
0
11
55.6
21
22.1
31
0
0
LINE
8
0
6
CONTINUOUS
10
55.6
20
22.1
30
0
11
54.7
21
18.74
31
0
0
LINE
8
0
6
CONTINUOUS
10
54.7
20
18.74
30
0
11
54.7
21
14.67
31
0
0
ARC
8
0
6
CONTINUOUS
10
55.35352086002606
20
14.764427950846759
30
0
40
0.6603076195155629
50
188.2218280142424
51
348.25338993843656
0
LINE
8
0
6
CONTINUOUS
10
56.0
20
14.63
30
0
11
56.0
21
18.57
31
0
0
LINE
8
0
6
CONTINUOUS
10
56.0
20
18.57
30
0
11
57.11
21
22.7
31
0
0
LINE
8
0
6
CONTINUOUS
10
57.11
20
22.7
30
0
11
61.39
21
22.7
31
0
0
LINE
8
0
6
CONTINUOUS
10
49.8
20
26.3
30
0
11
51.9
21
23.23
31
0
0
LINE
8
0
6
CONTINUOUS
10
51.9
20
23.23
30
0
11
51.9
21
20.75
31
0
0
ARC
8
0
6
CONTINUOUS
10
51.400003040699765
20
20.7482562424134
30
0
40
0.5
50
246.4214413436473
51
0.19982030547462357
0
LINE
8
0
6
CONTINUOUS
10
51.2
20
20.29
30
0
11
50.45
21
20.94
31
0
0
LINE
8
0
6
CONTINUOUS
10
50.45
20
20.94
30
0
11
49.42
21
23.28
31
0
0
ARC
8
0
6
CONTINUOUS
10
50.41300308045712
20
24.022660677700568
30
0
40
1.24
50
168.02225667287095
51
216.79258038193052
0
LINE
8
0
6
CONTINUOUS
10
49.2
20
24.28
30
0
11
49.29
21
27.42
31
0
0
ARC
8
0
6
CONTINUOUS
10
54.546533852547405
20
29.13748416499925
30
0
40
5.53
50
198.09393419124473
51
210.87103760344914
0
ARC
8
0
6
CONTINUOUS
10
49.39660286167584
20
27.737642631783586
30
0
40
1.0
50
82.9117980469493
51
175.27591972550965
0
LINE
8
0
6
CONTINUOUS
10
48.4
20
27.82
30
0
11
48.4
21
23.48
31
0
0
LINE
8
0
6
CONTINUOUS
10
48.4
20
23.48
30
0
11
50.19
21
19.06
31
0
0
ARC
8
0
6
CONTINUOUS
10
85.27877964795417
20
3.5842110760931583
30
0
40
38.35
50
156.20028280083062
51
160.49319119002556
0
LINE
8
0
6
CONTINUOUS
10
49.13
20
16.39
30
0
11
49.11
21
17.88
31
0
0
ARC
8
0
6
CONTINUOUS
10
48.76059624482375
20
17.8595790335993
30
0
40
0.35
50
3.3448572813784754
51
156.34660955822076
0
LINE
8
0
6
CONTINUOUS
10
48.44
20
18.0
30
0
11
48.44
21
15.08
31
0
0
ARC
8
0
6
CONTINUOUS
10
49.17451785695516
20
15.311048734716284
30
0
40
0.77
50
197.46140461662853
51
292.5657289738115
0
LINE
8
0
6
CONTINUOUS
10
49.47
20
14.6
30
0
11
53.87
21
18.41
31
0
0
LINE
8
0
6
CONTINUOUS
10
53.87
20
18.41
30
0
11
54.36
21
19.46
31
0
0
LINE
8
0
6
CONTINUOUS
10
54.36
20
19.46
30
0
11
54.19
21
24.0
31
0
0
LINE
8
0
6
CONTINUOUS
10
54.19
20
24.0
30
0
11
56.05
21
24.0
31
0
0
LINE
8
0
6
CONTINUOUS
10
56.05
20
24.0
30
0
11
55.78
21
25.18
31
0
0
ARC
8
0
6
CONTINUOUS
10
54.806162839152336
20
24.952753032688758
30
0
40
1.0
50
13.135043193077342
51
75.29530760093883
0
LINE
8
0
6
CONTINUOUS
10
55.06
20
25.92
30
0
11
54.19
21
26.16
31
0
0
ARC
8
0
6
CONTINUOUS
10
54.14699441608096
20
31.609830320271612
30
0
40
5.45
50
211.8980359961689
51
270.4521218396477
0
LINE
8
0
6
CONTINUOUS
10
23.14
20
24.3
30
0
11
20.7
21
24.01
31
0
0
LINE
8
0
6
CONTINUOUS
10
20.7
20
24.01
30
0
11
20.7
21
21.9
31
0
0
LINE
8
0
6
CONTINUOUS
10
20.7
20
21.9
30
0
11
19.32
21
22.28
31
0
0
LINE
8
0
6
CONTINUOUS
10
19.32
20
22.28
30
0
11
18.9
21
21.26
31
0
0
LINE
8
0
6
CONTINUOUS
10
18.9
20
21.26
30
0
11
18.9
21
16.74
31
0
0
LINE
8
0
6
CONTINUOUS
10
18.9
20
16.74
30
0
11
19.39
21
15.9
31
0
0
LINE
8
0
6
CONTINUOUS
10
19.39
20
15.9
30
0
11
20.64
21
15.9
31
0
0
LINE
8
0
6
CONTINUOUS
10
20.64
20
15.9
30
0
11
21.98
21
15.15
31
0
0
LINE
8
0
6
CONTINUOUS
10
21.98
20
15.15
30
0
11
23.07
21
16.91
31
0
0
LINE
8
0
6
CONTINUOUS
10
23.07
20
16.91
30
0
11
23.77
21
15.04
31
0
0
LINE
8
0
6
CONTINUOUS
10
23.77
20
15.04
30
0
11
24.7
21
15.04
31
0
0
LINE
8
0
6
CONTINUOUS
10
24.7
20
15.04
30
0
11
24.7
21
24.13
31
0
0
ARC
8
0
6
CONTINUOUS
10
24.241589110872454
20
24.091797163334462
30
0
40
0.46
50
4.763881158958066
51
114.61369238767828
0
ARC
8
0
6
CONTINUOUS
10
22.946860267874623
20
27.213605505876618
30
0
40
2.92
50
273.7925261815023
51
292.19670740233084
0
LINE
8
0
6
CONTINUOUS
10
23.12
20
17.93
30
0
11
21.89
21
16.01
31
0
0
ARC
8
0
6
CONTINUOUS
10
25.464270091827256
20
17.760712229542364
30
0
40
3.98
50
126.98281087421041
51
206.0960618841606
0
ARC
8
0
6
CONTINUOUS
10
23.383968285724837
20
20.39380963432242
30
0
40
0.63
50
28.043607780503283
51
119.89171351162523
0
LINE
8
0
6
CONTINUOUS
10
23.94
20
20.69
30
0
11
24.3
21
18.12
31
0
0
ARC
8
0
6
CONTINUOUS
10
13.785043985846427
20
16.703031397519467
30
0
40
10.61
50
353.6524573231689
51
7.674798676857493
0
LINE
8
0
6
CONTINUOUS
10
24.33
20
15.53
30
0
11
23.12
21
17.93
31
0
0
LINE
8
0
6
CONTINUOUS
10
20.8
20
20.2
30
0
11
20.8
21
17.8
31
0
0
LINE
8
0
6
CONTINUOUS
10
20.8
20
17.8
30
0
11
19.5
21
17.8
31
0
0
LINE
8
0
6
CONTINUOUS
10
19.5
20
17.8
30
0
11
19.5
21
20.2
31
0
0
LINE
8
0
6
CONTINUOUS
10
19.5
20
20.2
30
0
11
20.8
21
20.2
31
0
0
ARC
8
0
6
CONTINUOUS
10
21.35
20
21.090000015359767
30
0
40
0.35
50
180.00000251442805
51
359.99999748557195
0
ARC
8
0
6
CONTINUOUS
10
21.35
20
21.089999984640233
30
0
40
0.35
50
2.514428032784938e-06
51
179.99999748557195
0
LINE
8
0
6
CONTINUOUS
10
21.96
20
21.63
30
0
11
21.79
21
22.46
31
0
0
LINE
8
0
6
CONTINUOUS
10
21.79
20
22.46
30
0
11
22.77
21
23.03
31
0
0
ARC
8
0
6
CONTINUOUS
10
22.760626220892572
20
22.500082900572888
30
0
40
0.53
50
314.1813460028916
51
88.98659248064747
0
LINE
8
0
6
CONTINUOUS
10
23.13
20
22.12
30
0
11
22.8
21
21.38
31
0
0
ARC
8
0
6
CONTINUOUS
10
22.448683355573966
20
21.735776074728513
30
0
40
0.5
50
192.21332768908266
51
314.6386567970991
0
LINE
8
0
6
CONTINUOUS
10
22.29
20
-14.0
30
0
11
50.59
21
-14.0
31
0
0
LINE
8
0
6
CONTINUOUS
10
22.29
20
-12.0
30
0
11
50.59
21
-14.0
31
0
0
LINE
8
0
6
CONTINUOUS
10
50.59
20
-12.0
30
0
11
22.29
21
-14.0
31
0
0
LINE
8
0
6
CONTINUOUS
10
50.59
20
-14.0
30
0
11
50.59
21
-12.0
31
0
0
LINE
8
0
6
CONTINUOUS
10
22.29
20
-12.0
30
0
11
22.29
21
-14.0
31
0
0
LINE
8
0
6
CONTINUOUS
10
55.65
20
-12.0
30
0
11
20.93
21
-12.0
31
0
0
LINE
8
0
6
CONTINUOUS
10
21.19
20
-10.0
30
0
11
55.65
21
-10.0
31
0
0
LINE
8
0
6
CONTINUOUS
10
20.4
20
-8.87
30
0
11
21.19
21
-10.0
31
0
0
LINE
8
0
6
CONTINUOUS
10
20.4
20
-8.0
30
0
11
20.4
21
-8.87
31
0
0
ARC
8
0
6
CONTINUOUS
10
19.4
20
-8.0
30
0
40
1.0
50
0.0
51
180.0
0
ARC
8
0
6
CONTINUOUS
10
20.89998355553088
20
-8.719067638896593
30
0
40
2.5
50
179.79218456877518
51
214.91586470374776
0
LINE
8
0
6
CONTINUOUS
10
19.7
20
-11.36
30
0
11
18.85
21
-10.15
31
0
0
ARC
8
0
6
CONTINUOUS
10
20.928983560646227
20
-10.500000344383025
30
0
40
1.5
50
214.98298181392607
51
270.0388251263727
0
LINE
8
0
6
CONTINUOUS
10
20.4
20
-8.0
30
0
11
20.4
21
-8.87
31
0
0
LINE
8
0
6
CONTINUOUS
10
49.8
20
-6.2
30
0
11
49.8
21
-10.0
31
0
0
LINE
8
0
6
CONTINUOUS
10
52.7
20
-10.0
30
0
11
52.7
21
-6.2
31
0
0
LINE
8
0
6
CONTINUOUS
10
54.0
20
-8.5
30
0
11
54.0
21
-10.0
31
0
0
LINE
8
0
6
CONTINUOUS
10
56.15
20
-10.5
30
0
11
56.15
21
-11.5
31
0
0
ARC
8
0
6
CONTINUOUS
10
55.65
20
-11.5
30
0
40
0.5
50
270.0
51
0.0
0
ARC
8
0
6
CONTINUOUS
10
55.65
20
-10.5
30
0
40
0.5
50
0.0
51
90.0
0
LINE
8
0
6
CONTINUOUS
10
53.66
20
-6.01
30
0
11
54.5
21
-8.0
31
0
0
LINE
8
0
6
CONTINUOUS
10
49.8
20
-6.2
30
0
11
49.8
21
-10.0
31
0
0
LINE
8
0
6
CONTINUOUS
10
48.0
20
-8.0
30
0
11
48.84
21
-6.01
31
0
0
LINE
8
0
6
CONTINUOUS
10
48.5
20
-10.0
30
0
11
48.88
21
-9.08
31
0
0
LINE
8
0
6
CONTINUOUS
10
54.0
20
-8.5
30
0
11
54.0
21
-10.0
31
0
0
LINE
8
0
6
CONTINUOUS
10
53.66
20
-6.01
30
0
11
54.5
21
-8.0
31
0
0
LINE
8
0
6
CONTINUOUS
10
22.29
20
-14.0
30
0
11
50.59
21
-14.0
31
0
0
LINE
8
0
6
CONTINUOUS
10
77.0
20
-24.0
30
0
11
77.0
21
-185.02
31
0
0
LINE
8
0
6
CONTINUOUS
10
-13.0
20
185.02
30
0
11
-13.0
21
-185.02
31
0
0
LINE
8
0
6
CONTINUOUS
10
10.1
20
-24.0
30
0
11
10.1
21
-185.02
31
0
0
LINE
8
0
6
CONTINUOUS
10
22.29
20
14.0
30
0
11
50.59
21
14.0
31
0
0
LINE
8
0
6
CONTINUOUS
10
22.29
20
12.0
30
0
11
50.59
21
14.0
31
0
0
LINE
8
0
6
CONTINUOUS
10
50.59
20
12.0
30
0
11
22.29
21
14.0
31
0
0
LINE
8
0
6
CONTINUOUS
10
50.59
20
14.0
30
0
11
50.59
21
12.0
31
0
0
LINE
8
0
6
CONTINUOUS
10
22.29
20
12.0
30
0
11
22.29
21
14.0
31
0
0
LINE
8
0
6
CONTINUOUS
10
55.65
20
12.0
30
0
11
20.93
21
12.0
31
0
0
LINE
8
0
6
CONTINUOUS
10
21.19
20
10.0
30
0
11
55.65
21
10.0
31
0
0
LINE
8
0
6
CONTINUOUS
10
20.4
20
8.87
30
0
11
21.19
21
10.0
31
0
0
LINE
8
0
6
CONTINUOUS
10
20.4
20
8.0
30
0
11
20.4
21
8.87
31
0
0
ARC
8
0
6
CONTINUOUS
10
19.4
20
8.0
30
0
40
1.0
50
180.0
51
0.0
0
ARC
8
0
6
CONTINUOUS
10
20.89998355553088
20
8.719067638896593
30
0
40
2.5
50
145.08413529625224
51
180.20781543122482
0
LINE
8
0
6
CONTINUOUS
10
19.7
20
11.36
30
0
11
18.85
21
10.15
31
0
0
ARC
8
0
6
CONTINUOUS
10
20.928983560646227
20
10.500000344383025
30
0
40
1.5
50
89.96117487362729
51
145.01701818607393
0
LINE
8
0
6
CONTINUOUS
10
20.4
20
8.0
30
0
11
20.4
21
8.87
31
0
0
LINE
8
0
6
CONTINUOUS
10
49.8
20
6.2
30
0
11
49.8
21
10.0
31
0
0
LINE
8
0
6
CONTINUOUS
10
52.7
20
10.0
30
0
11
52.7
21
6.2
31
0
0
LINE
8
0
6
CONTINUOUS
10
54.0
20
8.5
30
0
11
54.0
21
10.0
31
0
0
LINE
8
0
6
CONTINUOUS
10
56.15
20
10.5
30
0
11
56.15
21
11.5
31
0
0
ARC
8
0
6
CONTINUOUS
10
55.65
20
11.5
30
0
40
0.5
50
0.0
51
90.0
0
ARC
8
0
6
CONTINUOUS
10
55.65
20
10.5
30
0
40
0.5
50
270.0
51
0.0
0
LINE
8
0
6
CONTINUOUS
10
53.66
20
6.01
30
0
11
54.5
21
8.0
31
0
0
LINE
8
0
6
CONTINUOUS
10
49.8
20
6.2
30
0
11
49.8
21
10.0
31
0
0
LINE
8
0
6
CONTINUOUS
10
48.0
20
8.0
30
0
11
48.84
21
6.01
31
0
0
LINE
8
0
6
CONTINUOUS
10
48.5
20
10.0
30
0
11
48.88
21
9.08
31
0
0
LINE
8
0
6
CONTINUOUS
10
54.0
20
8.5
30
0
11
54.0
21
10.0
31
0
0
LINE
8
0
6
CONTINUOUS
10
53.66
20
6.01
30
0
11
54.5
21
8.0
31
0
0
LINE
8
0
6
CONTINUOUS
10
22.29
20
14.0
30
0
11
50.59
21
14.0
31
0
0
LINE
8
0
6
CONTINUOUS
10
77.0
20
24.0
30
0
11
77.0
21
185.02
31
0
0
LINE
8
0
6
CONTINUOUS
10
10.1
20
24.0
30
0
11
10.1
21
185.02
31
0
0
ENDSEC
0
EOF