0
SECTION
2
HEADER
0
ENDSEC
0
SECTION
2
TABLES
0
TABLE
2
LTYPE
70
2
0
LTYPE
2
CONTINUOUS
70
0
3
Solid line
72
65
73
0
40
0.0
0
ENDTAB
0
TABLE
2
LAYER
70
1
0
LAYER
2
0
70
0
62
7
6
CONTINUOUS
0
ENDTAB
0
ENDSEC
0
SECTION
2
ENTITIES
0
LINE
8
0
6
CONTINUOUS
10
-13.0
20
162.69
30
0
11
86.0
21
162.69
31
0
0
LINE
8
0
6
CONTINUOUS
10
-13.0
20
71.1
30
0
11
86.0
21
71.1
31
0
0
LINE
8
0
6
CONTINUOUS
10
77.0
20
-10.0
30
0
11
77.0
21
200.0
31
0
0
LINE
8
0
6
CONTINUOUS
10
-13.0
20
200.0
30
0
11
-13.0
21
-10.0
31
0
0
LINE
8
0
6
CONTINUOUS
10
2.0
20
-10.0
30
0
11
2.0
21
200.0
31
0
0
LINE
8
0
6
CONTINUOUS
10
-13.0
20
0.0
30
0
11
86.0
21
0.0
31
0
0
LINE
8
0
6
CONTINUOUS
10
58.8
20
73.4
30
0
11
60.9
21
70.33
31
0
0
LINE
8
0
6
CONTINUOUS
10
60.9
20
70.33
30
0
11
60.9
21
67.85
31
0
0
ARC
8
0
6
CONTINUOUS
10
60.40000304069976
20
67.84825624241341
30
0
40
0.5
50
246.42144134364855
51
0.1998203054725852
0
LINE
8
0
6
CONTINUOUS
10
60.2
20
67.39
30
0
11
59.45
21
68.04
31
0
0
LINE
8
0
6
CONTINUOUS
10
59.45
20
68.04
30
0
11
58.42
21
70.38
31
0
0
ARC
8
0
6
CONTINUOUS
10
59.41300308045712
20
71.12266067770057
30
0
40
1.24
50
168.0222566728711
51
216.79258038193066
0
LINE
8
0
6
CONTINUOUS
10
58.2
20
71.38
30
0
11
58.29
21
74.52
31
0
0
ARC
8
0
6
CONTINUOUS
10
63.5465338525474
20
76.23748416499927
30
0
40
5.53
50
198.09393419124504
51
210.87103760344937
0
ARC
8
0
6
CONTINUOUS
10
58.39660286167584
20
74.83764263178358
30
0
40
1.0
50
82.91179804694933
51
175.27591972550923
0
LINE
8
0
6
CONTINUOUS
10
57.4
20
74.92
30
0
11
57.4
21
70.58
31
0
0
LINE
8
0
6
CONTINUOUS
10
57.4
20
70.58
30
0
11
59.19
21
66.16
31
0
0
ARC
8
0
6
CONTINUOUS
10
94.27877964795417
20
50.68421107609314
30
0
40
38.35
50
156.2002828008306
51
160.49319119002553
0
LINE
8
0
6
CONTINUOUS
10
58.13
20
63.49
30
0
11
58.11
21
64.98
31
0
0
ARC
8
0
6
CONTINUOUS
10
57.76059624482375
20
64.95957903359928
30
0
40
0.35
50
3.344857281381959
51
156.34660955821917
0
LINE
8
0
6
CONTINUOUS
10
57.44
20
65.1
30
0
11
57.44
21
62.18
31
0
0
ARC
8
0
6
CONTINUOUS
10
58.174517856955156
20
62.41104873471628
30
0
40
0.77
50
197.46140461662856
51
292.5657289738121
0
LINE
8
0
6
CONTINUOUS
10
58.47
20
61.7
30
0
11
62.87
21
65.51
31
0
0
LINE
8
0
6
CONTINUOUS
10
62.87
20
65.51
30
0
11
63.36
21
66.56
31
0
0
LINE
8
0
6
CONTINUOUS
10
63.36
20
66.56
30
0
11
63.19
21
71.1
31
0
0
LINE
8
0
6
CONTINUOUS
10
63.19
20
71.1
30
0
11
65.05
21
71.1
31
0
0
LINE
8
0
6
CONTINUOUS
10
65.05
20
71.1
30
0
11
64.78
21
72.28
31
0
0
ARC
8
0
6
CONTINUOUS
10
63.806162839152336
20
72.05275303268876
30
0
40
1.0
50
13.135043193077541
51
75.29530760093877
0
LINE
8
0
6
CONTINUOUS
10
64.06
20
73.02
30
0
11
63.19
21
73.26
31
0
0
ARC
8
0
6
CONTINUOUS
10
63.14699441608096
20
78.70983032027162
30
0
40
5.45
50
211.89803599616894
51
270.4521218396477
0
LINE
8
0
6
CONTINUOUS
10
32.14
20
71.4
30
0
11
29.7
21
71.11
31
0
0
LINE
8
0
6
CONTINUOUS
10
29.7
20
71.11
30
0
11
29.7
21
69.0
31
0
0
LINE
8
0
6
CONTINUOUS
10
29.7
20
69.0
30
0
11
28.32
21
69.38
31
0
0
LINE
8
0
6
CONTINUOUS
10
28.32
20
69.38
30
0
11
27.9
21
68.36
31
0
0
LINE
8
0
6
CONTINUOUS
10
27.9
20
68.36
30
0
11
27.9
21
63.84
31
0
0
LINE
8
0
6
CONTINUOUS
10
27.9
20
63.84
30
0
11
28.39
21
63.0
31
0
0
LINE
8
0
6
CONTINUOUS
10
28.39
20
63.0
30
0
11
29.64
21
63.0
31
0
0
LINE
8
0
6
CONTINUOUS
10
29.64
20
63.0
30
0
11
30.98
21
62.25
31
0
0
LINE
8
0
6
CONTINUOUS
10
30.98
20
62.25
30
0
11
32.07
21
64.01
31
0
0
LINE
8
0
6
CONTINUOUS
10
32.07
20
64.01
30
0
11
32.77
21
62.14
31
0
0
LINE
8
0
6
CONTINUOUS
10
32.77
20
62.14
30
0
11
33.7
21
62.14
31
0
0
LINE
8
0
6
CONTINUOUS
10
33.7
20
62.14
30
0
11
33.7
21
71.23
31
0
0
ARC
8
0
6
CONTINUOUS
10
33.24158911087246
20
71.19179716333447
30
0
40
0.46
50
4.763881158957662
51
114.61369238768006
0
ARC
8
0
6
CONTINUOUS
10
31.94686026787464
20
74.31360550587662
30
0
40
2.92
50
273.79252618150196
51
292.1967074023304
0
LINE
8
0
6
CONTINUOUS
10
32.12
20
65.03
30
0
11
30.89
21
63.11
31
0
0
ARC
8
0
6
CONTINUOUS
10
34.46427009182725
20
64.86071222954237
30
0
40
3.98
50
126.98281087421041
51
206.09606188416078
0
ARC
8
0
6
CONTINUOUS
10
32.383968285724826
20
67.49380963432242
30
0
40
0.63
50
28.04360778050355
51
119.89171351162405
0
LINE
8
0
6
CONTINUOUS
10
32.94
20
67.79
30
0
11
33.3
21
65.22
31
0
0
ARC
8
0
6
CONTINUOUS
10
22.78504398584643
20
63.80303139751945
30
0
40
10.61
50
353.652457323169
51
7.674798676857591
0
LINE
8
0
6
CONTINUOUS
10
33.33
20
62.63
30
0
11
32.12
21
65.03
31
0
0
LINE
8
0
6
CONTINUOUS
10
29.8
20
67.3
30
0
11
29.8
21
64.9
31
0
0
LINE
8
0
6
CONTINUOUS
10
29.8
20
64.9
30
0
11
28.5
21
64.9
31
0
0
LINE
8
0
6
CONTINUOUS
10
28.5
20
64.9
30
0
11
28.5
21
67.3
31
0
0
LINE
8
0
6
CONTINUOUS
10
28.5
20
67.3
30
0
11
29.8
21
67.3
31
0
0
ARC
8
0
6
CONTINUOUS
10
30.35
20
68.19000001535976
30
0
40
0.35
50
180.00000251442685
51
359.99999748557315
0
ARC
8
0
6
CONTINUOUS
10
30.35
20
68.18999998464024
30
0
40
0.35
50
2.5144268696106544e-06
51
179.99999748557315
0
LINE
8
0
6
CONTINUOUS
10
30.96
20
68.73
30
0
11
30.79
21
69.56
31
0
0
LINE
8
0
6
CONTINUOUS
10
30.79
20
69.56
30
0
11
31.77
21
70.13
31
0
0
ARC
8
0
6
CONTINUOUS
10
31.760626220892576
20
69.60008290057289
30
0
40
0.53
50
314.1813460028916
51
88.98659248064784
0
LINE
8
0
6
CONTINUOUS
10
32.13
20
69.22
30
0
11
31.8
21
68.48
31
0
0
ARC
8
0
6
CONTINUOUS
10
31.448683355573966
20
68.83577607472851
30
0
40
0.5
50
192.2133276890823
51
314.6386567970993
0
LINE
8
0
6
CONTINUOUS
10
84.3
20
24.2
30
0
11
83.1
21
25.64
31
0
0
LINE
8
0
6
CONTINUOUS
10
83.1
20
25.64
30
0
11
83.1
21
24.5
31
0
0
LINE
8
0
6
CONTINUOUS
10
83.1
20
24.5
30
0
11
82.18
21
25.02
31
0
0
ARC
8
0
6
CONTINUOUS
10
77.89093355830464
20
18.977483218167897
30
0
40
7.41
50
54.63231243154081
51
75.15030248298272
0
ARC
8
0
6
CONTINUOUS
10
80.55960369127273
20
20.008107130878805
30
0
40
6.18
50
97.15369216585727
51
125.16882746779936
0
LINE
8
0
6
CONTINUOUS
10
77.0
20
25.06
30
0
11
77.0
21
20.69
31
0
0
ARC
8
0
6
CONTINUOUS
10
80.46898658615665
20
25.009459695964914
30
0
40
5.54
50
231.23182255432081
51
263.06428174784776
0
ARC
8
0
6
CONTINUOUS
10
77.90065636300587
20
26.548223763749625
30
0
40
7.29
50
285.102163523687
51
304.21668662073415
0
LINE
8
0
6
CONTINUOUS
10
82.0
20
20.52
30
0
11
83.1
21
21.2
31
0
0
LINE
8
0
6
CONTINUOUS
10
83.1
20
21.2
30
0
11
83.1
21
20.06
31
0
0
LINE
8
0
6
CONTINUOUS
10
83.1
20
20.06
30
0
11
84.3
21
21.5
31
0
0
LINE
8
0
6
CONTINUOUS
10
84.3
20
21.5
30
0
11
84.3
21
24.2
31
0
0
LINE
8
0
6
CONTINUOUS
10
78.42
20
24.51
30
0
11
79.42
21
25.05
31
0
0
LINE
8
0
6
CONTINUOUS
10
79.42
20
25.05
30
0
11
81.0
21
24.15
31
0
0
LINE
8
0
6
CONTINUOUS
10
81.0
20
24.15
30
0
11
81.0
21
21.48
31
0
0
LINE
8
0
6
CONTINUOUS
10
81.0
20
21.48
30
0
11
79.42
21
20.63
31
0
0
ARC
8
0
6
CONTINUOUS
10
71.45085225562127
20
6.952222979289971
30
0
40
15.83
50
59.77343719234417
51
64.0815889359496
0
ARC
8
0
6
CONTINUOUS
10
78.83927420367097
20
22.423767288336414
30
0
40
1.32
50
181.90010652730496
51
249.17524905664453
0
LINE
8
0
6
CONTINUOUS
10
77.52
20
22.38
30
0
11
77.52
21
23.36
31
0
0
ARC
8
0
6
CONTINUOUS
10
78.79792022867002
20
23.2870624297365
30
0
40
1.28
50
107.17253978036088
51
176.73337515598675
0
LINE
8
0
6
CONTINUOUS
10
29.89
20
19.35
30
0
11
38.91
21
19.35
31
0
0
ARC
8
0
6
CONTINUOUS
10
38.91629270095556
20
17.35000989954583
30
0
40
2.0
50
33.71037385407567
51
90.18027290068257
0
LINE
8
0
6
CONTINUOUS
10
40.58
20
18.46
30
0
11
41.32
21
16.77
31
0
0
ARC
8
0
6
CONTINUOUS
10
43.40217755582255
20
18.15366781635942
30
0
40
2.5
50
213.60519904004164
51
274.0788345273818
0
LINE
8
0
6
CONTINUOUS
10
43.58
20
15.66
30
0
11
45.29
21
14.7
31
0
0
LINE
8
0
6
CONTINUOUS
10
45.29
20
14.7
30
0
11
45.29
21
18.93
31
0
0
LINE
8
0
6
CONTINUOUS
10
45.29
20
18.93
30
0
11
43.31
21
17.79
31
0
0
LINE
8
0
6
CONTINUOUS
10
43.31
20
17.79
30
0
11
42.41
21
19.35
31
0
0
ARC
8
0
6
CONTINUOUS
10
39.75669920958195
20
17.95000181587011
30
0
40
3.0
50
27.81810007247243
51
89.93695953394368
0
LINE
8
0
6
CONTINUOUS
10
39.76
20
20.95
30
0
11
29.04
21
20.95
31
0
0
ARC
8
0
6
CONTINUOUS
10
29.043300790418044
20
17.95000181587011
30
0
40
3.0
50
90.06304046605632
51
152.18189992752758
0
LINE
8
0
6
CONTINUOUS
10
26.39
20
19.35
30
0
11
25.53
21
17.79
31
0
0
LINE
8
0
6
CONTINUOUS
10
25.53
20
17.79
30
0
11
23.51
21
18.9
31
0
0
LINE
8
0
6
CONTINUOUS
10
23.51
20
18.9
30
0
11
23.51
21
14.6
31
0
0
LINE
8
0
6
CONTINUOUS
10
23.51
20
14.6
30
0
11
25.41
21
15.65
31
0
0
ARC
8
0
6
CONTINUOUS
10
25.39581162758495
20
18.149959737693433
30
0
40
2.5
50
270.3251752886597
51
327.3174574787811
0
LINE
8
0
6
CONTINUOUS
10
27.5
20
16.8
30
0
11
28.23
21
18.48
31
0
0
ARC
8
0
6
CONTINUOUS
10
29.880198255262684
20
17.3500240186942
30
0
40
2.0
50
89.71919957326611
51
145.5985426367888
0
ARC
8
0
6
CONTINUOUS
10
29.88019825526268
20
9.149975981305802
30
0
40
2.0
50
214.40145736321128
51
270.280800426734
0
LINE
8
0
6
CONTINUOUS
10
28.23
20
8.02
30
0
11
27.5
21
9.7
31
0
0
ARC
8
0
6
CONTINUOUS
10
25.39581162758495
20
8.350040262306567
30
0
40
2.5
50
32.68254252121892
51
89.67482471134032
0
LINE
8
0
6
CONTINUOUS
10
25.41
20
10.85
30
0
11
23.51
21
11.9
31
0
0
LINE
8
0
6
CONTINUOUS
10
23.51
20
11.9
30
0
11
23.51
21
7.6
31
0
0
LINE
8
0
6
CONTINUOUS
10
23.51
20
7.6
30
0
11
25.53
21
8.71
31
0
0
LINE
8
0
6
CONTINUOUS
10
25.53
20
8.71
30
0
11
26.39
21
7.15
31
0
0
ARC
8
0
6
CONTINUOUS
10
29.043300790418044
20
8.549998184129885
30
0
40
3.0
50
207.8181000724723
51
269.93695953394365
0
LINE
8
0
6
CONTINUOUS
10
29.04
20
5.55
30
0
11
39.76
21
5.55
31
0
0
ARC
8
0
6
CONTINUOUS
10
39.756699209581946
20
8.549998184129885
30
0
40
3.0
50
270.06304046605646
51
332.18189992752775
0
LINE
8
0
6
CONTINUOUS
10
42.41
20
7.15
30
0
11
43.31
21
8.71
31
0
0
LINE
8
0
6
CONTINUOUS
10
43.31
20
8.71
30
0
11
45.29
21
7.57
31
0
0
LINE
8
0
6
CONTINUOUS
10
45.29
20
7.57
30
0
11
45.29
21
11.8
31
0
0
LINE
8
0
6
CONTINUOUS
10
45.29
20
11.8
30
0
11
43.58
21
10.84
31
0
0
ARC
8
0
6
CONTINUOUS
10
43.40217755582255
20
8.34633218364058
30
0
40
2.5
50
85.92116547261821
51
146.39480095995836
0
LINE
8
0
6
CONTINUOUS
10
41.32
20
9.73
30
0
11
40.58
21
8.04
31
0
0
ARC
8
0
6
CONTINUOUS
10
38.91629270095556
20
9.149990100454172
30
0
40
2.0
50
269.81972709931745
51
326.2896261459242
0
LINE
8
0
6
CONTINUOUS
10
38.91
20
7.15
30
0
11
29.89
21
7.15
31
0
0
LINE
8
0
6
CONTINUOUS
10
20.7
20
37.75
30
0
11
20.7
21
28.0
31
0
0
LINE
8
0
6
CONTINUOUS
10
20.7
20
28.0
30
0
11
23.7
21
28.0
31
0
0
LINE
8
0
6
CONTINUOUS
10
23.7
20
28.0
30
0
11
23.7
21
44.0
31
0
0
ARC
8
0
6
CONTINUOUS
10
23.2
20
44.0
30
0
40
0.5
50
0.0
51
180.0
0
LINE
8
0
6
CONTINUOUS
10
22.7
20
44.0
30
0
11
22.56
21
43.2
31
0
0
LINE
8
0
6
CONTINUOUS
10
22.56
20
43.2
30
0
11
21.01
21
39.87
31
0
0
LINE
8
0
6
CONTINUOUS
10
21.01
20
39.87
30
0
11
18.53
21
38.97
31
0
0
LINE
8
0
6
CONTINUOUS
10
18.53
20
38.97
30
0
11
18.88
21
38.02
31
0
0
LINE
8
0
6
CONTINUOUS
10
18.88
20
38.02
30
0
11
20.11
21
38.24
31
0
0
ARC
8
0
6
CONTINUOUS
10
20.200003358765628
20
37.748167309534125
30
0
40
0.5
50
0.2100113279497662
51
100.37015108279262
0
ARC
8
0
6
CONTINUOUS
10
46.52567523201351
20
34.90418912228774
30
0
40
4.44
50
171.89727046515313
51
205.25319481451703
0
LINE
8
0
6
CONTINUOUS
10
42.13
20
35.53
30
0
11
42.79
21
36.28
31
0
0
LINE
8
0
6
CONTINUOUS
10
42.79
20
36.28
30
0
11
43.64
21
33.49
31
0
0
LINE
8
0
6
CONTINUOUS
10
43.64
20
33.49
30
0
11
44.7
21
33.79
31
0
0
LINE
8
0
6
CONTINUOUS
10
44.7
20
33.79
30
0
11
43.67
21
37.46
31
0
0
ARC
8
0
6
CONTINUOUS
10
42.70431184512751
20
37.20029557658951
30
0
40
1.0
50
15.05252440421446
51
91.39310337693539
0
ARC
8
0
6
CONTINUOUS
10
42.64675617126587
20
37.20055272882904
30
0
40
1.0
50
88.09491790781185
51
156.45637072134346
0
LINE
8
0
6
CONTINUOUS
10
41.73
20
37.6
30
0
11
40.68
21
35.19
31
0
0
ARC
8
0
6
CONTINUOUS
10
73.37451696159187
20
23.415830787347133
30
0
40
34.75
50
160.19469630098664
51
167.4106577867077
0
LINE
8
0
6
CONTINUOUS
10
39.46
20
30.99
30
0
11
38.1
21
20.94
31
0
0
LINE
8
0
6
CONTINUOUS
10
38.1
20
20.94
30
0
11
44.15
21
20.94
31
0
0
LINE
8
0
6
CONTINUOUS
10
44.15
20
20.94
30
0
11
44.47
21
23.28
31
0
0
ARC
8
0
6
CONTINUOUS
10
45.460725864469175
20
23.144124095322958
30
0
40
1.0
50
95.2053669058805
51
172.190727748962
0
LINE
8
0
6
CONTINUOUS
10
45.37
20
24.14
30
0
11
47.46
21
24.32
31
0
0
ARC
8
0
6
CONTINUOUS
10
47.550017642970616
20
23.324059829129272
30
0
40
1.0
50
0.3403487220690221
51
95.16462207846779
0
LINE
8
0
6
CONTINUOUS
10
48.55
20
23.33
30
0
11
48.55
21
22.41
31
0
0
LINE
8
0
6
CONTINUOUS
10
48.55
20
22.41
30
0
11
47.96
21
21.9
31
0
0
LINE
8
0
6
CONTINUOUS
10
47.96
20
21.9
30
0
11
50.4
21
20.48
31
0
0
LINE
8
0
6
CONTINUOUS
10
50.4
20
20.48
30
0
11
54.75
21
19.7
31
0
0
LINE
8
0
6
CONTINUOUS
10
54.75
20
19.7
30
0
11
54.75
21
22.6
31
0
0
LINE
8
0
6
CONTINUOUS
10
54.75
20
22.6
30
0
11
53.95
21
22.6
31
0
0
LINE
8
0
6
CONTINUOUS
10
53.95
20
22.6
30
0
11
53.95
21
23.57
31
0
0
ARC
8
0
6
CONTINUOUS
10
53.450900860242825
20
23.600000811549837
30
0
40
0.5
50
356.5600940678718
51
90.10323103554114
0
LINE
8
0
6
CONTINUOUS
10
53.45
20
24.1
30
0
11
51.45
21
24.1
31
0
0
LINE
8
0
6
CONTINUOUS
10
51.45
20
24.1
30
0
11
49.89
21
25.0
31
0
0
ARC
8
0
6
CONTINUOUS
10
50.38609683327471
20
25.868267200817122
30
0
40
1.0
50
185.06392824431248
51
240.25789719903497
0
LINE
8
0
6
CONTINUOUS
10
49.39
20
25.78
30
0
11
42.51
21
33.01
31
0
0
ARC
8
0
6
CONTINUOUS
10
46.745263995147
20
26.017994668515428
30
0
40
0.5
50
275.1332329331005
51
43.15785098774282
0
LINE
8
0
6
CONTINUOUS
10
46.79
20
25.52
30
0
11
40.52
21
24.97
31
0
0
ARC
8
0
6
CONTINUOUS
10
40.47478172705431
20
25.467951109840925
30
0
40
0.5
50
171.71496285670963
51
275.1887217453352
0
LINE
8
0
6
CONTINUOUS
10
39.98
20
25.54
30
0
11
40.69
21
30.75
31
0
0
ARC
8
0
6
CONTINUOUS
10
41.68086346567282
20
30.615131203034778
30
0
40
1.0
50
44.016762946080945
51
172.2489668760672
0
LINE
8
0
6
CONTINUOUS
10
42.4
20
31.31
30
0
11
47.11
21
26.36
31
0
0
LINE
8
0
6
CONTINUOUS
10
52.63
20
22.55
30
0
11
52.95
21
21.83
31
0
0
ARC
8
0
6
CONTINUOUS
10
52.45000001041494
20
21.829897946430698
30
0
40
0.5
50
258.4630397491105
51
0.01169447769148756
0
LINE
8
0
6
CONTINUOUS
10
52.35
20
21.34
30
0
11
51.37
21
21.55
31
0
0
LINE
8
0
6
CONTINUOUS
10
51.37
20
21.55
30
0
11
49.9
21
22.39
31
0
0
LINE
8
0
6
CONTINUOUS
10
49.9
20
22.39
30
0
11
49.9
21
23.55
31
0
0
LINE
8
0
6
CONTINUOUS
10
49.9
20
23.55
30
0
11
52.63
21
22.55
31
0
0
LINE
8
0
6
CONTINUOUS
10
40.07
20
23.68
30
0
11
42.86
21
23.92
31
0
0
LINE
8
0
6
CONTINUOUS
10
42.86
20
23.92
30
0
11
42.62
21
22.19
31
0
0
LINE
8
0
6
CONTINUOUS
10
42.62
20
22.19
30
0
11
39.87
21
22.19
31
0
0
LINE
8
0
6
CONTINUOUS
10
39.87
20
22.19
30
0
11
40.07
21
23.68
31
0
0
LINE
8
0
6
CONTINUOUS
10
47.5
20
6.1
30
0
11
47.5
21
17.9
31
0
0
LINE
8
0
6
CONTINUOUS
10
47.5
20
17.9
30
0
11
75.4
21
17.9
31
0
0
LINE
8
0
6
CONTINUOUS
10
75.4
20
17.9
30
0
11
75.4
21
6.1
31
0
0
LINE
8
0
6
CONTINUOUS
10
75.4
20
6.1
30
0
11
47.5
21
6.1
31
0
0
LINE
8
0
6
CONTINUOUS
10
56.5
20
4.5
30
0
11
75.4
21
4.5
31
0
0
LINE
8
0
6
CONTINUOUS
10
75.4
20
4.5
30
0
11
75.4
21
1.5
31
0
0
LINE
8
0
6
CONTINUOUS
10
75.4
20
1.5
30
0
11
73.19
21
1.5
31
0
0
LINE
8
0
6
CONTINUOUS
10
73.19
20
1.5
30
0
11
73.71
21
-0.0
31
0
0
LINE
8
0
6
CONTINUOUS
10
73.71
20
-0.0
30
0
11
76.5
21
-0.0
31
0
0
ARC
8
0
6
CONTINUOUS
10
76.5
20
0.5
30
0
40
0.5
50
270.0
51
0.0
0
LINE
8
0
6
CONTINUOUS
10
77.0
20
0.5
30
0
11
77.0
21
23.5
31
0
0
ARC
8
0
6
CONTINUOUS
10
76.5
20
23.5
30
0
40
0.5
50
0.0
51
90.0
0
LINE
8
0
6
CONTINUOUS
10
76.5
20
24.0
30
0
11
73.71
21
24.0
31
0
0
LINE
8
0
6
CONTINUOUS
10
73.71
20
24.0
30
0
11
73.19
21
22.5
31
0
0
LINE
8
0
6
CONTINUOUS
10
73.19
20
22.5
30
0
11
75.4
21
22.5
31
0
0
LINE
8
0
6
CONTINUOUS
10
75.4
20
22.5
30
0
11
75.4
21
19.5
31
0
0
LINE
8
0
6
CONTINUOUS
10
75.4
20
19.5
30
0
11
56.5
21
19.5
31
0
0
LINE
8
0
6
CONTINUOUS
10
56.5
20
19.5
30
0
11
56.5
21
22.5
31
0
0
LINE
8
0
6
CONTINUOUS
10
56.5
20
22.5
30
0
11
58.8
21
22.5
31
0
0
LINE
8
0
6
CONTINUOUS
10
58.8
20
22.5
30
0
11
57.99
21
24.0
31
0
0
LINE
8
0
6
CONTINUOUS
10
57.99
20
24.0
30
0
11
54.4
21
24.0
31
0
0
LINE
8
0
6
CONTINUOUS
10
54.4
20
24.0
30
0
11
54.2
21
22.8
31
0
0
LINE
8
0
6
CONTINUOUS
10
54.2
20
22.8
30
0
11
55.0
21
22.8
31
0
0
LINE
8
0
6
CONTINUOUS
10
55.0
20
22.8
30
0
11
55.0
21
19.5
31
0
0
LINE
8
0
6
CONTINUOUS
10
55.0
20
19.5
30
0
11
47.5
21
19.5
31
0
0
LINE
8
0
6
CONTINUOUS
10
47.5
20
19.5
30
0
11
47.5
21
22.8
31
0
0
LINE
8
0
6
CONTINUOUS
10
47.5
20
22.8
30
0
11
48.3
21
22.8
31
0
0
LINE
8
0
6
CONTINUOUS
10
48.3
20
22.8
30
0
11
48.05
21
24.0
31
0
0
LINE
8
0
6
CONTINUOUS
10
48.05
20
24.0
30
0
11
46.4
21
24.0
31
0
0
ARC
8
0
6
CONTINUOUS
10
46.4
20
23.5
30
0
40
0.5
50
90.0
51
180.0
0
LINE
8
0
6
CONTINUOUS
10
45.9
20
23.5
30
0
11
45.9
21
21.36
31
0
0
ARC
8
0
6
CONTINUOUS
10
45.75033402757439
20
21.099999814042572
30
0
40
0.3
50
269.9362054193071
51
60.07363632234128
0
LINE
8
0
6
CONTINUOUS
10
45.75
20
20.8
30
0
11
44.51
21
20.49
31
0
0
LINE
8
0
6
CONTINUOUS
10
44.51
20
20.49
30
0
11
42.71
21
20.75
31
0
0
LINE
8
0
6
CONTINUOUS
10
42.71
20
20.75
30
0
11
43.3
21
17.95
31
0
0
LINE
8
0
6
CONTINUOUS
10
43.3
20
17.95
30
0
11
45.56
21
19.53
31
0
0
ARC
8
0
6
CONTINUOUS
10
45.75693756773587
20
19.30369137353101
30
0
40
0.3
50
298.48148673399305
51
131.03033837308885
0
LINE
8
0
6
CONTINUOUS
10
45.9
20
19.04
30
0
11
45.9
21
14.8
31
0
0
LINE
8
0
6
CONTINUOUS
10
45.9
20
14.8
30
0
11
45.04
21
14.74
31
0
0
LINE
8
0
6
CONTINUOUS
10
45.04
20
14.74
30
0
11
43.4
21
15.65
31
0
0
LINE
8
0
6
CONTINUOUS
10
43.4
20
15.65
30
0
11
43.4
21
10.85
31
0
0
LINE
8
0
6
CONTINUOUS
10
43.4
20
10.85
30
0
11
45.07
21
11.77
31
0
0
LINE
8
0
6
CONTINUOUS
10
45.07
20
11.77
30
0
11
45.9
21
11.7
31
0
0
LINE
8
0
6
CONTINUOUS
10
45.9
20
11.7
30
0
11
45.9
21
7.46
31
0
0
ARC
8
0
6
CONTINUOUS
10
45.70841109705937
20
7.216238794010458
30
0
40
0.3100416637735503
50
261.016858550644
51
51.83372904553035
0
LINE
8
0
6
CONTINUOUS
10
45.66
20
6.91
30
0
11
43.67
21
8.28
31
0
0
LINE
8
0
6
CONTINUOUS
10
43.67
20
8.28
30
0
11
42.9
21
5.51
31
0
0
LINE
8
0
6
CONTINUOUS
10
42.9
20
5.51
30
0
11
43.86
21
5.56
31
0
0
LINE
8
0
6
CONTINUOUS
10
43.86
20
5.56
30
0
11
44.51
21
6.01
31
0
0
LINE
8
0
6
CONTINUOUS
10
44.51
20
6.01
30
0
11
45.75
21
5.7
31
0
0
LINE
8
0
6
CONTINUOUS
10
45.75
20
5.7
30
0
11
46.41
21
4.5
31
0
0
LINE
8
0
6
CONTINUOUS
10
46.4
20
4.5
30
0
11
54.4
21
4.5
31
0
0
ARC
8
0
6
CONTINUOUS
10
54.4
20
4.0
30
0
40
0.5
50
0.0
51
90.0
0
LINE
8
0
6
CONTINUOUS
10
54.9
20
4.0
30
0
11
54.9
21
0.5
31
0
0
ARC
8
0
6
CONTINUOUS
10
55.4
20
0.5
30
0
40
0.5
50
180.0
51
270.0
0
LINE
8
0
6
CONTINUOUS
10
55.4
20
-0.0
30
0
11
57.99
21
-0.0
31
0
0
LINE
8
0
6
CONTINUOUS
10
57.99
20
-0.0
30
0
11
58.66
21
1.5
31
0
0
LINE
8
0
6
CONTINUOUS
10
58.66
20
1.5
30
0
11
56.5
21
1.5
31
0
0
LINE
8
0
6
CONTINUOUS
10
56.5
20
1.5
30
0
11
56.5
21
4.5
31
0
0
LINE
8
0
6
CONTINUOUS
10
-13.0
20
21.1
30
0
11
-13.0
21
-9.5
31
0
0
ARC
8
0
6
CONTINUOUS
10
-12.5
20
-9.5
30
0
40
0.5
50
180.0
51
270.0
0
LINE
8
0
6
CONTINUOUS
10
-12.5
20
-10.0
30
0
11
-1.5
21
-10.0
31
0
0
ARC
8
0
6
CONTINUOUS
10
-1.5
20
-9.5
30
0
40
0.5
50
270.0
51
0.0
0
LINE
8
0
6
CONTINUOUS
10
-1.0
20
-9.5
30
0
11
-1.0
21
-7.9
31
0
0
ARC
8
0
6
CONTINUOUS
10
-1.4
20
-7.9
30
0
40
0.4
50
0.0
51
180.0
0
LINE
8
0
6
CONTINUOUS
10
-1.8
20
-7.9
30
0
11
-1.8
21
-8.8
31
0
0
LINE
8
0
6
CONTINUOUS
10
-1.8
20
-8.8
30
0
11
-2.9
21
-8.8
31
0
0
ARC
8
0
6
CONTINUOUS
10
-2.9
20
-8.3
30
0
40
0.5
50
180.0
51
270.0
0
LINE
8
0
6
CONTINUOUS
10
-3.4
20
-8.3
30
0
11
-3.4
21
-1.7
31
0
0
ARC
8
0
6
CONTINUOUS
10
-2.9
20
-1.7
30
0
40
0.5
50
90.0
51
180.0
0
LINE
8
0
6
CONTINUOUS
10
-2.9
20
-1.2
30
0
11
-1.8
21
-1.2
31
0
0
LINE
8
0
6
CONTINUOUS
10
-1.8
20
-1.2
30
0
11
-1.8
21
-2.1
31
0
0
ARC
8
0
6
CONTINUOUS
10
-1.4
20
-2.1
30
0
40
0.4
50
180.0
51
0.0
0
LINE
8
0
6
CONTINUOUS
10
-1.0
20
-2.1
30
0
11
-1.0
21
4.0
31
0
0
ARC
8
0
6
CONTINUOUS
10
-0.5
20
4.0
30
0
40
0.5
50
90.0
51
180.0
0
LINE
8
0
6
CONTINUOUS
10
-0.5
20
4.5
30
0
11
20.8
21
4.5
31
0
0
ARC
8
0
6
CONTINUOUS
10
20.8
20
4.0
30
0
40
0.5
50
0.0
51
90.0
0
LINE
8
0
6
CONTINUOUS
10
21.3
20
4.0
30
0
11
21.3
21
2.1
31
0
0
ARC
8
0
6
CONTINUOUS
10
20.8
20
2.1
30
0
40
0.5
50
270.0
51
0.0
0
LINE
8
0
6
CONTINUOUS
10
20.8
20
1.6
30
0
11
19.9
21
1.6
31
0
0
LINE
8
0
6
CONTINUOUS
10
19.9
20
1.6
30
0
11
19.9
21
-0.0
31
0
0
LINE
8
0
6
CONTINUOUS
10
19.9
20
-0.0
30
0
11
22.4
21
0.0
31
0
0
ARC
8
0
6
CONTINUOUS
10
22.4
20
0.5
30
0
40
0.5
50
270.0
51
0.0
0
LINE
8
0
6
CONTINUOUS
10
22.9
20
0.5
30
0
11
22.9
21
5.14
31
0
0
ARC
8
0
6
CONTINUOUS
10
23.04966597242561
20
5.400000185957425
30
0
40
0.3
50
89.9362054193071
51
240.07363632234052
0
LINE
8
0
6
CONTINUOUS
10
23.05
20
5.7
30
0
11
24.29
21
6.01
31
0
0
LINE
8
0
6
CONTINUOUS
10
24.29
20
6.01
30
0
11
26.09
21
5.75
31
0
0
LINE
8
0
6
CONTINUOUS
10
26.09
20
5.75
30
0
11
25.5
21
8.55
31
0
0
LINE
8
0
6
CONTINUOUS
10
25.5
20
8.55
30
0
11
23.12
21
6.91
31
0
0
ARC
8
0
6
CONTINUOUS
10
23.054285515651863
20
7.2027142062607465
30
0
40
0.3
50
120.94967884445481
51
282.65314012824933
0
LINE
8
0
6
CONTINUOUS
10
22.9
20
7.46
30
0
11
22.9
21
12.23
31
0
0
LINE
8
0
6
CONTINUOUS
10
22.9
20
12.23
30
0
11
25.4
21
10.85
31
0
0
LINE
8
0
6
CONTINUOUS
10
25.4
20
10.85
30
0
11
25.4
21
15.65
31
0
0
LINE
8
0
6
CONTINUOUS
10
25.4
20
15.65
30
0
11
22.9
21
14.27
31
0
0
LINE
8
0
6
CONTINUOUS
10
22.9
20
14.27
30
0
11
22.9
21
19.04
31
0
0
ARC
8
0
6
CONTINUOUS
10
23.091588902940632
20
19.28376120598954
30
0
40
0.3100416637735507
50
81.0168585506447
51
231.8337290455295
0
LINE
8
0
6
CONTINUOUS
10
23.14
20
19.59
30
0
11
25.5
21
17.95
31
0
0
LINE
8
0
6
CONTINUOUS
10
25.5
20
17.95
30
0
11
26.14
21
21.0
31
0
0
LINE
8
0
6
CONTINUOUS
10
26.14
20
21.0
30
0
11
18.8
21
21.0
31
0
0
ARC
8
0
6
CONTINUOUS
10
18.8
20
21.5
30
0
40
0.5
50
180.0
51
270.0
0
LINE
8
0
6
CONTINUOUS
10
18.3
20
21.5
30
0
11
18.3
21
27.5
31
0
0
ARC
8
0
6
CONTINUOUS
10
18.8
20
27.5
30
0
40
0.5
50
90.0
51
180.0
0
LINE
8
0
6
CONTINUOUS
10
18.8
20
28.0
30
0
11
20.2
21
28.0
31
0
0
ARC
8
0
6
CONTINUOUS
10
20.2
20
28.5
30
0
40
0.5
50
270.0
51
0.0
0
LINE
8
0
6
CONTINUOUS
10
20.7
20
28.5
30
0
11
20.7
21
30.1
31
0
0
ARC
8
0
6
CONTINUOUS
10
20.299999999999997
20
30.01
30
0
40
0.41000000000000036
50
12.680383491819734
51
167.31961650818016
0
LINE
8
0
6
CONTINUOUS
10
19.9
20
30.1
30
0
11
19.9
21
29.2
31
0
0
LINE
8
0
6
CONTINUOUS
10
19.9
20
29.2
30
0
11
18.8
21
29.2
31
0
0
ARC
8
0
6
CONTINUOUS
10
18.8
20
29.7
30
0
40
0.5
50
180.0
51
270.0
0
LINE
8
0
6
CONTINUOUS
10
18.3
20
29.7
30
0
11
18.3
21
36.3
31
0
0
ARC
8
0
6
CONTINUOUS
10
18.8
20
36.3
30
0
40
0.5
50
90.0
51
180.0
0
LINE
8
0
6
CONTINUOUS
10
18.8
20
36.8
30
0
11
19.9
21
36.8
31
0
0
LINE
8
0
6
CONTINUOUS
10
19.9
20
36.8
30
0
11
19.9
21
35.9
31
0
0
ARC
8
0
6
CONTINUOUS
10
20.299999999999997
20
35.99
30
0
40
0.41000000000000036
50
192.68038349182032
51
347.31961650817976
0
LINE
8
0
6
CONTINUOUS
10
20.7
20
35.9
30
0
11
20.7
21
37.5
31
0
0
ARC
8
0
6
CONTINUOUS
10
20.2
20
37.5
30
0
40
0.5
50
0.0
51
90.0
0
LINE
8
0
6
CONTINUOUS
10
20.2
20
38.0
30
0
11
10.6
21
38.0
31
0
0
ARC
8
0
6
CONTINUOUS
10
10.6
20
37.5
30
0
40
0.5
50
90.0
51
180.0
0
LINE
8
0
6
CONTINUOUS
10
10.1
20
37.5
30
0
11
10.1
21
31.5
31
0
0
LINE
8
0
6
CONTINUOUS
10
10.1
20
31.5
30
0
11
-13.0
21
21.1
31
0
0
ARC
8
0
6
CONTINUOUS
10
12.2
20
35.9
30
0
40
0.5
50
90.0
51
180.0
0
LINE
8
0
6
CONTINUOUS
10
12.2
20
36.4
30
0
11
16.2
21
36.4
31
0
0
ARC
8
0
6
CONTINUOUS
10
16.2
20
35.9
30
0
40
0.5
50
0.0
51
90.0
0
LINE
8
0
6
CONTINUOUS
10
16.7
20
35.9
30
0
11
16.7
21
17.72
31
0
0
LINE
8
0
6
CONTINUOUS
10
16.7
20
17.72
30
0
11
18.3
21
17.72
31
0
0
LINE
8
0
6
CONTINUOUS
10
18.3
20
17.72
30
0
11
18.3
21
18.9
31
0
0
ARC
8
0
6
CONTINUOUS
10
18.8
20
18.9
30
0
40
0.5
50
90.0
51
180.0
0
LINE
8
0
6
CONTINUOUS
10
18.8
20
19.4
30
0
11
20.8
21
19.4
31
0
0
ARC
8
0
6
CONTINUOUS
10
20.8
20
18.9
30
0
40
0.5
50
0.0
51
90.0
0
LINE
8
0
6
CONTINUOUS
10
21.3
20
18.9
30
0
11
21.3
21
6.1
31
0
0
LINE
8
0
6
CONTINUOUS
10
21.3
20
6.1
30
0
11
-11.4
21
6.1
31
0
0
LINE
8
0
6
CONTINUOUS
10
-11.4
20
6.1
30
0
11
-11.4
21
17.7
31
0
0
LINE
8
0
6
CONTINUOUS
10
-11.4
20
17.7
30
0
11
-7.0
21
17.7
31
0
0
ARC
8
0
6
CONTINUOUS
10
-7.8
20
18.3
30
0
40
1.0
50
323.1301023541559
51
90.0
0
LINE
8
0
6
CONTINUOUS
10
-7.8
20
19.3
30
0
11
-9.38
21
19.3
31
0
0
ARC
8
0
6
CONTINUOUS
10
-9.37281070529857
20
20.099967695623825
30
0
40
0.8
50
114.14119163604238
51
269.4850977642318
0
LINE
8
0
6
CONTINUOUS
10
-9.7
20
20.83
30
0
11
11.7
21
30.47
31
0
0
LINE
8
0
6
CONTINUOUS
10
11.7
20
30.47
30
0
11
11.7
21
35.9
31
0
0
ARC
8
0
6
CONTINUOUS
10
-3.1
20
4.0
30
0
40
0.5
50
0.0
51
90.0
0
LINE
8
0
6
CONTINUOUS
10
-2.6
20
4.0
30
0
11
-2.6
21
0.4
31
0
0
LINE
8
0
6
CONTINUOUS
10
-2.6
20
0.4
30
0
11
-3.5
21
0.4
31
0
0
ARC
8
0
6
CONTINUOUS
10
-3.5
20
-1.1
30
0
40
1.5
50
90.0
51
180.0
0
LINE
8
0
6
CONTINUOUS
10
-5.0
20
-1.1
30
0
11
-5.0
21
-7.9
31
0
0
ARC
8
0
6
CONTINUOUS
10
-5.5
20
-7.9
30
0
40
0.5
50
270.0
51
0.0
0
LINE
8
0
6
CONTINUOUS
10
-5.5
20
-8.4
30
0
11
-10.9
21
-8.4
31
0
0
ARC
8
0
6
CONTINUOUS
10
-10.9
20
-7.9
30
0
40
0.5
50
180.0
51
270.0
0
LINE
8
0
6
CONTINUOUS
10
-11.4
20
-7.9
30
0
11
-11.4
21
4.0
31
0
0
ARC
8
0
6
CONTINUOUS
10
-10.9
20
4.0
30
0
40
0.5
50
90.0
51
180.0
0
LINE
8
0
6
CONTINUOUS
10
-10.9
20
4.5
30
0
11
-3.1
21
4.5
31
0
0
ARC
8
0
6
CONTINUOUS
10
83.7
20
68.8
30
0
40
1.0
50
0.0
51
90.0
0
LINE
8
0
6
CONTINUOUS
10
84.7
20
68.8
30
0
11
84.7
21
60.1
31
0
0
ARC
8
0
6
CONTINUOUS
10
83.7
20
60.1
30
0
40
1.0
50
270.0
51
0.0
0
LINE
8
0
6
CONTINUOUS
10
83.7
20
59.1
30
0
11
81.5
21
59.1
31
0
0
ARC
8
0
6
CONTINUOUS
10
81.5
20
58.1
30
0
40
1.0
50
90.0
51
180.0
0
LINE
8
0
6
CONTINUOUS
10
80.5
20
58.1
30
0
11
80.5
21
57.1
31
0
0
LINE
8
0
6
CONTINUOUS
10
80.5
20
57.1
30
0
11
73.33
21
57.1
31
0
0
ARC
8
0
6
CONTINUOUS
10
69.9019488506325
20
56.39397923733074
30
0
40
3.5
50
11.637570746183776
51
61.16425183226118
0
LINE
8
0
6
CONTINUOUS
10
71.59
20
59.46
30
0
11
71.59
21
69.8
31
0
0
LINE
8
0
6
CONTINUOUS
10
71.59
20
69.8
30
0
11
83.7
21
69.8
31
0
0
LINE
8
0
6
CONTINUOUS
10
70.39
20
69.8
30
0
11
70.39
21
58.41
31
0
0
ARC
8
0
6
CONTINUOUS
10
69.8430548847242
20
56.35142013978666
30
0
40
2.13
50
200.65741068171607
51
75.12081244447347
0
LINE
8
0
6
CONTINUOUS
10
67.85
20
55.6
30
0
11
67.0
21
55.6
31
0
0
ARC
8
0
6
CONTINUOUS
10
69.59814133660181
20
55.501706586991325
30
0
40
2.6
50
177.83340765181453
51
254.19512878970397
0
LINE
8
0
6
CONTINUOUS
10
68.89
20
53.0
30
0
11
70.73
21
53.0
31
0
0
ARC
8
0
6
CONTINUOUS
10
69.9019218061682
20
56.4006303099426
30
0
40
3.5
50
283.68558867800846
51
350.1186368713056
0
LINE
8
0
6
CONTINUOUS
10
73.35
20
55.8
30
0
11
79.6
21
55.8
31
0
0
ARC
8
0
6
CONTINUOUS
10
79.6
20
54.89999999999999
30
0
40
0.9
50
4.5234555469703065e-13
51
90.0
0
ARC
8
0
6
CONTINUOUS
10
81.39999962639054
20
54.80082005908329
30
0
40
0.9
50
180.0522065899176
51
311.8103468063329
0
LINE
8
0
6
CONTINUOUS
10
82.0
20
54.13
30
0
11
82.0
21
57.6
31
0
0
LINE
8
0
6
CONTINUOUS
10
82.0
20
57.6
30
0
11
83.79
21
57.6
31
0
0
LINE
8
0
6
CONTINUOUS
10
83.79
20
57.6
30
0
11
84.71
21
57.1
31
0
0
LINE
8
0
6
CONTINUOUS
10
84.71
20
57.1
30
0
11
86.0
21
57.1
31
0
0
LINE
8
0
6
CONTINUOUS
10
86.0
20
57.1
30
0
11
86.0
21
70.6
31
0
0
ARC
8
0
6
CONTINUOUS
10
85.5
20
70.6
30
0
40
0.5
50
0.0
51
90.0
0
LINE
8
0
6
CONTINUOUS
10
85.5
20
71.1
30
0
11
63.7
21
71.1
31
0
0
ARC
8
0
6
CONTINUOUS
10
63.7
20
70.6
30
0
40
0.5
50
90.0
51
180.0
0
LINE
8
0
6
CONTINUOUS
10
63.2
20
70.6
30
0
11
63.2
21
69.2
31
0
0
LINE
8
0
6
CONTINUOUS
10
63.2
20
69.2
30
0
11
64.6
21
69.2
31
0
0
LINE
8
0
6
CONTINUOUS
10
64.6
20
69.2
30
0
11
63.7
21
65.84
31
0
0
LINE
8
0
6
CONTINUOUS
10
63.7
20
65.84
30
0
11
63.7
21
61.77
31
0
0
ARC
8
0
6
CONTINUOUS
10
64.35352086002605
20
61.86442795084676
30
0
40
0.660307619515563
50
188.22182801424233
51
348.2533899384362
0
LINE
8
0
6
CONTINUOUS
10
65.0
20
61.73
30
0
11
65.0
21
65.67
31
0
0
LINE
8
0
6
CONTINUOUS
10
65.0
20
65.67
30
0
11
66.11
21
69.8
31
0
0
LINE
8
0
6
CONTINUOUS
10
66.11
20
69.8
30
0
11
70.39
21
69.8
31
0
0
ARC
8
0
6
CONTINUOUS
10
22.700008505345007
20
60.115832778728375
30
0
40
2.0
50
359.83290296114546
51
114.20510194794358
0
LINE
8
0
6
CONTINUOUS
10
24.7
20
60.11
30
0
11
24.7
21
52.0
31
0
0
ARC
8
0
6
CONTINUOUS
10
24.2
20
52.0
30
0
40
0.5
50
270.0
51
0.0
0
LINE
8
0
6
CONTINUOUS
10
24.2
20
51.5
30
0
11
12.2
21
51.5
31
0
0
ARC
8
0
6
CONTINUOUS
10
12.2
20
52.0
30
0
40
0.5
50
180.0
51
270.0
0
LINE
8
0
6
CONTINUOUS
10
11.7
20
52.0
30
0
11
11.7
21
57.36
31
0
0
LINE
8
0
6
CONTINUOUS
10
11.7
20
57.36
30
0
11
21.88
21
61.94
31
0
0
LINE
8
0
6
CONTINUOUS
10
10.1
20
58.4
30
0
11
10.1
21
48.3
31
0
0
LINE
8
0
6
CONTINUOUS
10
10.1
20
48.3
30
0
11
11.6
21
48.3
31
0
0
LINE
8
0
6
CONTINUOUS
10
11.6
20
48.3
30
0
11
11.6
21
49.4
31
0
0
ARC
8
0
6
CONTINUOUS
10
12.1
20
49.4
30
0
40
0.5
50
90.0
51
180.0
0
LINE
8
0
6
CONTINUOUS
10
12.1
20
49.9
30
0
11
24.2
21
49.9
31
0
0
ARC
8
0
6
CONTINUOUS
10
24.2
20
49.4
30
0
40
0.5
50
0.0
51
90.0
0
LINE
8
0
6
CONTINUOUS
10
24.7
20
49.4
30
0
11
24.7
21
42.6
31
0
0
LINE
8
0
6
CONTINUOUS
10
24.7
20
42.6
30
0
11
31.7
21
42.6
31
0
0
LINE
8
0
6
CONTINUOUS
10
31.7
20
42.6
30
0
11
31.7
21
41.6
31
0
0
ARC
8
0
6
CONTINUOUS
10
32.7
20
41.6
30
0
40
1.0
50
180.0
51
270.0
0
LINE
8
0
6
CONTINUOUS
10
32.7
20
40.6
30
0
11
34.69
21
40.91
31
0
0
LINE
8
0
6
CONTINUOUS
10
34.69
20
40.91
30
0
11
36.49
21
40.65
31
0
0
LINE
8
0
6
CONTINUOUS
10
36.49
20
40.65
30
0
11
35.88
21
43.41
31
0
0
LINE
8
0
6
CONTINUOUS
10
35.88
20
43.41
30
0
11
33.54
21
41.81
31
0
0
ARC
8
0
6
CONTINUOUS
10
33.491588902940634
20
42.11623879401046
30
0
40
0.3100416637735491
50
128.1662709544706
51
278.98314144935483
0
LINE
8
0
6
CONTINUOUS
10
33.3
20
42.36
30
0
11
33.3
21
46.33
31
0
0
LINE
8
0
6
CONTINUOUS
10
33.3
20
46.33
30
0
11
34.06
21
46.69
31
0
0
LINE
8
0
6
CONTINUOUS
10
34.06
20
46.69
30
0
11
35.8
21
45.76
31
0
0
LINE
8
0
6
CONTINUOUS
10
35.8
20
45.76
30
0
11
35.8
21
48.85
31
0
0
LINE
8
0
6
CONTINUOUS
10
35.8
20
48.85
30
0
11
34.06
21
47.89
31
0
0
LINE
8
0
6
CONTINUOUS
10
34.06
20
47.89
30
0
11
33.3
21
48.18
31
0
0
LINE
8
0
6
CONTINUOUS
10
33.3
20
48.18
30
0
11
33.3
21
52.24
31
0
0
ARC
8
0
6
CONTINUOUS
10
33.491588902940634
20
52.483761205989545
30
0
40
0.3100416637735491
50
81.01685855064515
51
231.8337290455294
0
LINE
8
0
6
CONTINUOUS
10
33.54
20
52.79
30
0
11
35.88
21
51.2
31
0
0
LINE
8
0
6
CONTINUOUS
10
35.88
20
51.2
30
0
11
36.55
21
54.2
31
0
0
LINE
8
0
6
CONTINUOUS
10
36.55
20
54.2
30
0
11
26.8
21
54.2
31
0
0
ARC
8
0
6
CONTINUOUS
10
26.8
20
54.7
30
0
40
0.5
50
180.0
51
270.0
0
LINE
8
0
6
CONTINUOUS
10
26.3
20
54.7
30
0
11
26.3
21
60.6
31
0
0
ARC
8
0
6
CONTINUOUS
10
26.8
20
60.6
30
0
40
0.5
50
90.0
51
180.0
0
LINE
8
0
6
CONTINUOUS
10
26.8
20
61.1
30
0
11
29.2
21
61.1
31
0
0
ARC
8
0
6
CONTINUOUS
10
29.2
20
61.6
30
0
40
0.5
50
270.0
51
0.0
0
LINE
8
0
6
CONTINUOUS
10
29.7
20
61.6
30
0
11
29.7
21
63.2
31
0
0
LINE
8
0
6
CONTINUOUS
10
29.7
20
63.2
30
0
11
28.9
21
63.2
31
0
0
LINE
8
0
6
CONTINUOUS
10
28.9
20
63.2
30
0
11
28.9
21
62.3
31
0
0
LINE
8
0
6
CONTINUOUS
10
28.9
20
62.3
30
0
11
26.0
21
62.3
31
0
0
ARC
8
0
6
CONTINUOUS
10
26.0
20
62.8
30
0
40
0.5
50
180.0
51
270.0
0
LINE
8
0
6
CONTINUOUS
10
25.5
20
62.8
30
0
11
25.5
21
69.4
31
0
0
ARC
8
0
6
CONTINUOUS
10
26.0
20
69.4
30
0
40
0.5
50
90.0
51
180.0
0
LINE
8
0
6
CONTINUOUS
10
26.0
20
69.9
30
0
11
28.9
21
69.9
31
0
0
LINE
8
0
6
CONTINUOUS
10
28.9
20
69.9
30
0
11
28.9
21
69.0
31
0
0
LINE
8
0
6
CONTINUOUS
10
28.9
20
69.0
30
0
11
29.7
21
69.0
31
0
0
LINE
8
0
6
CONTINUOUS
10
29.7
20
69.0
30
0
11
29.7
21
70.6
31
0
0
ARC
8
0
6
CONTINUOUS
10
29.2
20
70.6
30
0
40
0.5
50
0.0
51
90.0
0
LINE
8
0
6
CONTINUOUS
10
29.2
20
71.1
30
0
11
24.4
21
71.1
31
0
0
ARC
8
0
6
CONTINUOUS
10
24.4
20
70.6
30
0
40
0.5
50
90.0
51
180.0
0
LINE
8
0
6
CONTINUOUS
10
23.9
20
70.6
30
0
11
23.9
21
64.6
31
0
0
LINE
8
0
6
CONTINUOUS
10
23.9
20
64.6
30
0
11
10.1
21
58.4
31
0
0
LINE
8
0
6
CONTINUOUS
10
26.3
20
44.2
30
0
11
26.3
21
52.6
31
0
0
LINE
8
0
6
CONTINUOUS
10
26.3
20
52.6
30
0
11
31.7
21
52.6
31
0
0
LINE
8
0
6
CONTINUOUS
10
31.7
20
52.6
30
0
11
31.7
21
44.2
31
0
0
LINE
8
0
6
CONTINUOUS
10
31.7
20
44.2
30
0
11
26.3
21
44.2
31
0
0
LINE
8
0
6
CONTINUOUS
10
84.4
20
51.0
30
0
11
84.4
21
42.6
31
0
0
ARC
8
0
6
CONTINUOUS
10
83.9
20
42.6
30
0
40
0.5
50
270.0
51
0.0
0
LINE
8
0
6
CONTINUOUS
10
83.9
20
42.1
30
0
11
73.66
21
42.1
31
0
0
LINE
8
0
6
CONTINUOUS
10
73.66
20
42.1
30
0
11
71.56
21
44.2
31
0
0
LINE
8
0
6
CONTINUOUS
10
71.56
20
44.2
30
0
11
62.24
21
44.2
31
0
0
LINE
8
0
6
CONTINUOUS
10
62.24
20
44.2
30
0
11
60.14
21
42.1
31
0
0
LINE
8
0
6
CONTINUOUS
10
60.14
20
42.1
30
0
11
57.4
21
42.1
31
0
0
ARC
8
0
6
CONTINUOUS
10
57.4
20
42.6
30
0
40
0.5
50
180.0
51
270.0
0
LINE
8
0
6
CONTINUOUS
10
56.9
20
42.6
30
0
11
56.9
21
51.0
31
0
0
LINE
8
0
6
CONTINUOUS
10
56.9
20
51.0
30
0
11
84.4
21
51.0
31
0
0
LINE
8
0
6
CONTINUOUS
10
84.4
20
52.6
30
0
11
65.5
21
52.6
31
0
0
LINE
8
0
6
CONTINUOUS
10
65.5
20
52.6
30
0
11
65.5
21
55.6
31
0
0
LINE
8
0
6
CONTINUOUS
10
65.5
20
55.6
30
0
11
67.77
21
55.6
31
0
0
LINE
8
0
6
CONTINUOUS
10
67.77
20
55.6
30
0
11
66.99
21
57.1
31
0
0
LINE
8
0
6
CONTINUOUS
10
66.99
20
57.1
30
0
11
63.27
21
57.1
31
0
0
LINE
8
0
6
CONTINUOUS
10
63.27
20
57.1
30
0
11
63.27
21
55.9
31
0
0
LINE
8
0
6
CONTINUOUS
10
63.27
20
55.9
30
0
11
64.1
21
55.9
31
0
0
LINE
8
0
6
CONTINUOUS
10
64.1
20
55.9
30
0
11
64.1
21
52.6
31
0
0
LINE
8
0
6
CONTINUOUS
10
64.1
20
52.6
30
0
11
56.9
21
52.6
31
0
0
LINE
8
0
6
CONTINUOUS
10
56.9
20
52.6
30
0
11
56.9
21
55.9
31
0
0
LINE
8
0
6
CONTINUOUS
10
56.9
20
55.9
30
0
11
57.69
21
55.9
31
0
0
LINE
8
0
6
CONTINUOUS
10
57.69
20
55.9
30
0
11
57.69
21
57.1
31
0
0
LINE
8
0
6
CONTINUOUS
10
57.69
20
57.1
30
0
11
55.8
21
57.1
31
0
0
ARC
8
0
6
CONTINUOUS
10
55.8
20
56.6
30
0
40
0.5
50
90.0
51
180.0
0
LINE
8
0
6
CONTINUOUS
10
55.3
20
56.6
30
0
11
55.3
21
54.56
31
0
0
ARC
8
0
6
CONTINUOUS
10
55.15033402757438
20
54.29999981404257
30
0
40
0.3
50
269.93620541930846
51
60.07363632234044
0
LINE
8
0
6
CONTINUOUS
10
55.15
20
54.0
30
0
11
53.91
21
53.69
31
0
0
LINE
8
0
6
CONTINUOUS
10
53.91
20
53.69
30
0
11
52.11
21
53.94
31
0
0
LINE
8
0
6
CONTINUOUS
10
52.11
20
53.94
30
0
11
52.68
21
51.27
31
0
0
LINE
8
0
6
CONTINUOUS
10
52.68
20
51.27
30
0
11
55.06
21
52.79
31
0
0
ARC
8
0
6
CONTINUOUS
10
55.10841109705937
20
52.483761205989545
30
0
40
0.31004166377354764
50
308.16627095446955
51
98.98314144935485
0
LINE
8
0
6
CONTINUOUS
10
55.3
20
52.24
30
0
11
55.3
21
48.22
31
0
0
LINE
8
0
6
CONTINUOUS
10
55.3
20
48.22
30
0
11
54.57
21
47.86
31
0
0
LINE
8
0
6
CONTINUOUS
10
54.57
20
47.86
30
0
11
52.8
21
48.63
31
0
0
LINE
8
0
6
CONTINUOUS
10
52.8
20
48.63
30
0
11
52.8
21
45.97
31
0
0
LINE
8
0
6
CONTINUOUS
10
52.8
20
45.97
30
0
11
54.54
21
46.69
31
0
0
LINE
8
0
6
CONTINUOUS
10
54.54
20
46.69
30
0
11
55.3
21
46.41
31
0
0
LINE
8
0
6
CONTINUOUS
10
55.3
20
46.41
30
0
11
55.3
21
42.36
31
0
0
ARC
8
0
6
CONTINUOUS
10
55.10841109705937
20
42.11623879401046
30
0
40
0.31004166377354764
50
261.01685855064517
51
51.83372904553044
0
LINE
8
0
6
CONTINUOUS
10
55.06
20
41.81
30
0
11
52.7
21
43.42
31
0
0
LINE
8
0
6
CONTINUOUS
10
52.7
20
43.42
30
0
11
52.11
21
40.65
31
0
0
LINE
8
0
6
CONTINUOUS
10
52.11
20
40.65
30
0
11
53.91
21
40.91
31
0
0
LINE
8
0
6
CONTINUOUS
10
53.91
20
40.91
30
0
11
55.15
21
40.6
31
0
0
ARC
8
0
6
CONTINUOUS
10
55.15033402757438
20
40.30000018595743
30
0
40
0.3
50
299.92636367765954
51
90.06379458069154
0
LINE
8
0
6
CONTINUOUS
10
55.3
20
40.04
30
0
11
55.3
21
37.5
31
0
0
ARC
8
0
6
CONTINUOUS
10
56.8
20
37.5
30
0
40
1.5
50
180.0
51
270.0
0
LINE
8
0
6
CONTINUOUS
10
56.8
20
36.0
30
0
11
58.8
21
36.0
31
0
0
LINE
8
0
6
CONTINUOUS
10
58.8
20
36.0
30
0
11
58.8
21
37.5
31
0
0
LINE
8
0
6
CONTINUOUS
10
58.8
20
37.5
30
0
11
56.8
21
37.5
31
0
0
LINE
8
0
6
CONTINUOUS
10
56.8
20
37.5
30
0
11
56.8
21
40.0
31
0
0
ARC
8
0
6
CONTINUOUS
10
57.3
20
40.0
30
0
40
0.5
50
90.0
51
180.0
0
LINE
8
0
6
CONTINUOUS
10
57.3
20
40.5
30
0
11
60.8
21
40.5
31
0
0
LINE
8
0
6
CONTINUOUS
10
60.8
20
40.5
30
0
11
62.9
21
42.6
31
0
0
LINE
8
0
6
CONTINUOUS
10
62.9
20
42.6
30
0
11
70.9
21
42.6
31
0
0
LINE
8
0
6
CONTINUOUS
10
70.9
20
42.6
30
0
11
73.0
21
40.5
31
0
0
LINE
8
0
6
CONTINUOUS
10
73.0
20
40.5
30
0
11
77.0
21
40.5
31
0
0
LINE
8
0
6
CONTINUOUS
10
77.0
20
40.5
30
0
11
77.0
21
37.5
31
0
0
LINE
8
0
6
CONTINUOUS
10
77.0
20
37.5
30
0
11
75.0
21
37.5
31
0
0
LINE
8
0
6
CONTINUOUS
10
75.0
20
37.5
30
0
11
75.0
21
36.0
31
0
0
LINE
8
0
6
CONTINUOUS
10
75.0
20
36.0
30
0
11
77.0
21
36.0
31
0
0
ARC
8
0
6
CONTINUOUS
10
77.0
20
37.5
30
0
40
1.5
50
270.0
51
0.0
0
LINE
8
0
6
CONTINUOUS
10
78.5
20
37.5
30
0
11
78.5
21
40.5
31
0
0
LINE
8
0
6
CONTINUOUS
10
78.5
20
40.5
30
0
11
82.23
21
40.5
31
0
0
ARC
8
0
6
CONTINUOUS
10
82.2302250124678
20
38.50000001265765
30
0
40
2.0
50
0.8594685621800676
51
90.00644613238482
0
LINE
8
0
6
CONTINUOUS
10
84.23
20
38.53
30
0
11
84.4
21
26.5
31
0
0
LINE
8
0
6
CONTINUOUS
10
84.4
20
26.5
30
0
11
83.0
21
26.5
31
0
0
ARC
8
0
6
CONTINUOUS
10
83.0
20
25.5
30
0
40
1.0
50
90.0
51
180.0
0
LINE
8
0
6
CONTINUOUS
10
82.0
20
25.5
30
0
11
82.0
21
24.68
31
0
0
LINE
8
0
6
CONTINUOUS
10
82.0
20
24.68
30
0
11
82.79
21
24.68
31
0
0
LINE
8
0
6
CONTINUOUS
10
82.79
20
24.68
30
0
11
82.79
21
25.5
31
0
0
LINE
8
0
6
CONTINUOUS
10
82.79
20
25.5
30
0
11
84.6
21
25.5
31
0
0
LINE
8
0
6
CONTINUOUS
10
84.6
20
25.5
30
0
11
84.6
21
20.7
31
0
0
ARC
8
0
6
CONTINUOUS
10
84.1
20
20.7
30
0
40
0.5
50
270.0
51
0.0
0
LINE
8
0
6
CONTINUOUS
10
84.1
20
20.2
30
0
11
82.8
21
20.2
31
0
0
LINE
8
0
6
CONTINUOUS
10
82.8
20
20.2
30
0
11
82.8
21
21.15
31
0
0
LINE
8
0
6
CONTINUOUS
10
82.8
20
21.15
30
0
11
82.0
21
21.15
31
0
0
LINE
8
0
6
CONTINUOUS
10
82.0
20
21.15
30
0
11
82.0
21
20.0
31
0
0
ARC
8
0
6
CONTINUOUS
10
83.0
20
20.0
30
0
40
1.0
50
180.0
51
270.0
0
LINE
8
0
6
CONTINUOUS
10
83.0
20
19.0
30
0
11
85.5
21
19.0
31
0
0
ARC
8
0
6
CONTINUOUS
10
85.5
20
19.5
30
0
40
0.5
50
270.0
51
0.0
0
LINE
8
0
6
CONTINUOUS
10
86.0
20
19.5
30
0
11
86.0
21
57.1
31
0
0
LINE
8
0
6
CONTINUOUS
10
86.0
20
57.1
30
0
11
82.71
21
57.1
31
0
0
LINE
8
0
6
CONTINUOUS
10
82.71
20
57.1
30
0
11
82.19
21
55.6
31
0
0
LINE
8
0
6
CONTINUOUS
10
82.19
20
55.6
30
0
11
84.4
21
55.6
31
0
0
LINE
8
0
6
CONTINUOUS
10
84.4
20
55.6
30
0
11
84.4
21
52.6
31
0
0
ARC
8
0
6
CONTINUOUS
10
48.33937858943244
20
50.60000009653778
30
0
40
2.0
50
27.71021892537252
51
89.98219789828053
0
LINE
8
0
6
CONTINUOUS
10
50.11
20
51.53
30
0
11
50.47
21
50.52
31
0
0
ARC
8
0
6
CONTINUOUS
10
52.82505549106966
20
51.35887641162607
30
0
40
2.5
50
199.60602096622648
51
271.71785898698545
0
LINE
8
0
6
CONTINUOUS
10
52.9
20
48.86
30
0
11
55.3
21
47.54
31
0
0
LINE
8
0
6
CONTINUOUS
10
55.3
20
47.54
30
0
11
55.3
21
52.43
31
0
0
LINE
8
0
6
CONTINUOUS
10
55.3
20
52.43
30
0
11
52.4
21
51.21
31
0
0
LINE
8
0
6
CONTINUOUS
10
52.4
20
51.21
30
0
11
52.06
21
52.01
31
0
0
ARC
8
0
6
CONTINUOUS
10
49.20134637462673
20
51.10000030212079
30
0
40
3.0
50
17.657915258268368
51
90.02571386211486
0
LINE
8
0
6
CONTINUOUS
10
49.2
20
54.1
30
0
11
39.42
21
54.1
31
0
0
ARC
8
0
6
CONTINUOUS
10
39.42496114439679
20
51.10000410216176
30
0
40
3.0
50
90.09475092168404
51
157.66640204126423
0
LINE
8
0
6
CONTINUOUS
10
36.65
20
52.24
30
0
11
36.03
21
51.17
31
0
0
LINE
8
0
6
CONTINUOUS
10
36.03
20
51.17
30
0
11
33.3
21
52.39
31
0
0
LINE
8
0
6
CONTINUOUS
10
33.3
20
52.39
30
0
11
33.3
21
48.18
31
0
0
LINE
8
0
6
CONTINUOUS
10
33.3
20
48.18
30
0
11
35.79
21
48.85
31
0
0
ARC
8
0
6
CONTINUOUS
10
35.796584499942405
20
51.349991328857065
30
0
40
2.5
50
269.84909420276824
51
335.41791149080217
0
LINE
8
0
6
CONTINUOUS
10
38.07
20
50.31
30
0
11
38.34
21
51.19
31
0
0
ARC
8
0
6
CONTINUOUS
10
40.2509945818374
20
50.60000024729827
30
0
40
2.0
50
90.02849267200615
51
162.8424700428427
0
LINE
8
0
6
CONTINUOUS
10
40.25
20
52.6
30
0
11
48.34
21
52.6
31
0
0
LINE
8
0
6
CONTINUOUS
10
48.34
20
42.0
30
0
11
40.25
21
42.0
31
0
0
ARC
8
0
6
CONTINUOUS
10
40.2509945818374
20
43.999999752701726
30
0
40
2.0
50
197.1575299571573
51
269.97150732799383
0
LINE
8
0
6
CONTINUOUS
10
38.34
20
43.41
30
0
11
38.07
21
44.29
31
0
0
ARC
8
0
6
CONTINUOUS
10
35.796584499942405
20
43.25000867114293
30
0
40
2.5
50
24.582088509198005
51
90.15090579723173
0
LINE
8
0
6
CONTINUOUS
10
35.79
20
45.75
30
0
11
33.3
21
46.42
31
0
0
LINE
8
0
6
CONTINUOUS
10
33.3
20
46.42
30
0
11
33.3
21
42.21
31
0
0
LINE
8
0
6
CONTINUOUS
10
33.3
20
42.21
30
0
11
36.03
21
43.43
31
0
0
LINE
8
0
6
CONTINUOUS
10
36.03
20
43.43
30
0
11
36.65
21
42.36
31
0
0
ARC
8
0
6
CONTINUOUS
10
39.42496114439679
20
43.49999589783824
30
0
40
3.0
50
202.33359795873577
51
269.90524907831593
0
LINE
8
0
6
CONTINUOUS
10
39.42
20
40.5
30
0
11
42.8
21
40.5
31
0
0
ARC
8
0
6
CONTINUOUS
10
42.8
20
40.0
30
0
40
0.5
50
0.0
51
90.0
0
LINE
8
0
6
CONTINUOUS
10
43.3
20
40.0
30
0
11
43.3
21
38.98
31
0
0
LINE
8
0
6
CONTINUOUS
10
43.3
20
38.98
30
0
11
44.0
21
36.37
31
0
0
LINE
8
0
6
CONTINUOUS
10
44.0
20
36.37
30
0
11
45.0
21
36.0
31
0
0
ARC
8
0
6
CONTINUOUS
10
44.99719780621158
20
36.49999214764831
30
0
40
0.5
50
270.3211094358863
51
15.070994008148633
0
LINE
8
0
6
CONTINUOUS
10
45.48
20
36.63
30
0
11
44.8
21
39.23
31
0
0
LINE
8
0
6
CONTINUOUS
10
44.8
20
39.23
30
0
11
45.13
21
40.48
31
0
0
LINE
8
0
6
CONTINUOUS
10
45.13
20
40.48
30
0
11
49.2
21
40.48
31
0
0
ARC
8
0
6
CONTINUOUS
10
49.195055453755785
20
43.479995925240964
30
0
40
3.0
50
270.09443391988873
51
342.74257654622176
0
LINE
8
0
6
CONTINUOUS
10
52.06
20
42.59
30
0
11
52.4
21
43.39
31
0
0
LINE
8
0
6
CONTINUOUS
10
52.4
20
43.39
30
0
11
55.3
21
42.17
31
0
0
LINE
8
0
6
CONTINUOUS
10
55.3
20
42.17
30
0
11
55.3
21
47.06
31
0
0
LINE
8
0
6
CONTINUOUS
10
55.3
20
47.06
30
0
11
52.9
21
45.74
31
0
0
ARC
8
0
6
CONTINUOUS
10
52.82505549106966
20
43.241123588373924
30
0
40
2.5
50
88.28214101301458
51
160.39397903377338
0
LINE
8
0
6
CONTINUOUS
10
50.47
20
44.08
30
0
11
50.11
21
43.07
31
0
0
ARC
8
0
6
CONTINUOUS
10
48.33937858943244
20
43.99999990346222
30
0
40
2.0
50
270.01780210171944
51
332.2897810746277
0
LINE
8
0
6
CONTINUOUS
10
31.29
20
61.1
30
0
11
59.59
21
61.1
31
0
0
LINE
8
0
6
CONTINUOUS
10
31.29
20
59.1
30
0
11
59.59
21
61.1
31
0
0
LINE
8
0
6
CONTINUOUS
10
59.59
20
59.1
30
0
11
31.29
21
61.1
31
0
0
LINE
8
0
6
CONTINUOUS
10
59.59
20
61.1
30
0
11
59.59
21
59.1
31
0
0
LINE
8
0
6
CONTINUOUS
10
31.29
20
59.1
30
0
11
31.29
21
61.1
31
0
0
LINE
8
0
6
CONTINUOUS
10
64.65
20
59.1
30
0
11
29.93
21
59.1
31
0
0
LINE
8
0
6
CONTINUOUS
10
30.19
20
57.1
30
0
11
64.65
21
57.1
31
0
0
LINE
8
0
6
CONTINUOUS
10
29.4
20
55.97
30
0
11
30.19
21
57.1
31
0
0
LINE
8
0
6
CONTINUOUS
10
29.4
20
55.1
30
0
11
29.4
21
55.97
31
0
0
ARC
8
0
6
CONTINUOUS
10
28.4
20
55.1
30
0
40
1.0
50
180.0
51
0.0
0
ARC
8
0
6
CONTINUOUS
10
29.89998355553088
20
55.8190676388966
30
0
40
2.5
50
145.08413529625233
51
180.2078154312249
0
LINE
8
0
6
CONTINUOUS
10
28.7
20
58.46
30
0
11
27.85
21
57.25
31
0
0
ARC
8
0
6
CONTINUOUS
10
29.928983560646227
20
57.60000034438303
30
0
40
1.5
50
89.96117487362729
51
145.01701818607393
0
LINE
8
0
6
CONTINUOUS
10
29.4
20
55.1
30
0
11
29.4
21
55.97
31
0
0
LINE
8
0
6
CONTINUOUS
10
58.8
20
53.3
30
0
11
58.8
21
57.1
31
0
0
LINE
8
0
6
CONTINUOUS
10
61.7
20
57.1
30
0
11
61.7
21
53.3
31
0
0
LINE
8
0
6
CONTINUOUS
10
63.0
20
55.6
30
0
11
63.0
21
57.1
31
0
0
LINE
8
0
6
CONTINUOUS
10
65.15
20
57.6
30
0
11
65.15
21
58.6
31
0
0
ARC
8
0
6
CONTINUOUS
10
64.65
20
58.6
30
0
40
0.5
50
0.0
51
90.0
0
ARC
8
0
6
CONTINUOUS
10
64.65
20
57.6
30
0
40
0.5
50
270.0
51
0.0
0
LINE
8
0
6
CONTINUOUS
10
62.66
20
53.11
30
0
11
63.5
21
55.1
31
0
0
ARC
8
0
6
CONTINUOUS
10
62.19996544733776
20
53.30587804970659
30
0
40
0.5
50
180.67359039621118
51
336.9361867511891
0
ARC
8
0
6
CONTINUOUS
10
58.30003455266224
20
53.30587804970659
30
0
40
0.5
50
203.06381324881087
51
359.3264096037888
0
LINE
8
0
6
CONTINUOUS
10
58.8
20
53.3
30
0
11
58.8
21
57.1
31
0
0
LINE
8
0
6
CONTINUOUS
10
57.0
20
55.1
30
0
11
57.84
21
53.11
31
0
0
LINE
8
0
6
CONTINUOUS
10
57.5
20
57.1
30
0
11
57.88
21
56.18
31
0
0
LINE
8
0
6
CONTINUOUS
10
63.0
20
55.6
30
0
11
63.0
21
57.1
31
0
0
LINE
8
0
6
CONTINUOUS
10
62.66
20
53.11
30
0
11
63.5
21
55.1
31
0
0
LINE
8
0
6
CONTINUOUS
10
31.29
20
61.1
30
0
11
59.59
21
61.1
31
0
0
LINE
8
0
6
CONTINUOUS
10
86.0
20
71.1
30
0
11
86.0
21
162.69
31
0
0
LINE
8
0
6
CONTINUOUS
10
-13.0
20
21.1
30
0
11
-13.0
21
162.69
31
0
0
LINE
8
0
6
CONTINUOUS
10
10.1
20
48.3
30
0
11
10.1
21
162.69
31
0
0
LINE
8
0
6
CONTINUOUS
10
23.9
20
71.1
30
0
11
23.9
21
162.69
31
0
0
ENDSEC
0
EOF