0
SECTION
2
HEADER
0
ENDSEC
0
SECTION
2
TABLES
0
TABLE
2
LTYPE
70
2
0
LTYPE
2
CONTINUOUS
70
0
3
Solid line
72
65
73
0
40
0.0
0
ENDTAB
0
TABLE
2
LAYER
70
1
0
LAYER
2
0
70
0
62
7
6
CONTINUOUS
0
ENDTAB
0
ENDSEC
0
SECTION
2
ENTITIES
0
LINE
8
0
6
CONTINUOUS
10
136.59
20
-10.0
30
0
11
136.59
21
67.0
31
0
0
LINE
8
0
6
CONTINUOUS
10
-132.59
20
-10.0
30
0
11
-132.59
21
67.0
31
0
0
LINE
8
0
6
CONTINUOUS
10
-59.0
20
-10.0
30
0
11
-59.0
21
67.0
31
0
0
LINE
8
0
6
CONTINUOUS
10
63.0
20
-10.0
30
0
11
63.0
21
67.0
31
0
0
LINE
8
0
6
CONTINUOUS
10
136.59
20
67.0
30
0
11
-132.59
21
67.0
31
0
0
LINE
8
0
6
CONTINUOUS
10
136.59
20
-10.0
30
0
11
-132.59
21
-10.0
31
0
0
LINE
8
0
6
CONTINUOUS
10
8.5
20
-10.0
30
0
11
8.5
21
67.0
31
0
0
LINE
8
0
6
CONTINUOUS
10
-4.5
20
67.0
30
0
11
-4.5
21
-10.0
31
0
0
LINE
8
0
6
CONTINUOUS
10
2.0
20
-10.0
30
0
11
2.0
21
67.0
31
0
0
LINE
8
0
6
CONTINUOUS
10
-132.59
20
0.0
30
0
11
136.59
21
0.0
31
0
0
LINE
8
0
6
CONTINUOUS
10
-12.5
20
-8.2
30
0
11
-12.5
21
10.9
31
0
0
LINE
8
0
6
CONTINUOUS
10
-12.5
20
10.9
30
0
11
-9.5
21
10.9
31
0
0
LINE
8
0
6
CONTINUOUS
10
-9.5
20
10.9
30
0
11
-9.5
21
9.21
31
0
0
LINE
8
0
6
CONTINUOUS
10
-9.5
20
9.21
30
0
11
-8.0
21
9.21
31
0
0
LINE
8
0
6
CONTINUOUS
10
-8.0
20
9.21
30
0
11
-8.0
21
12.5
31
0
0
LINE
8
0
6
CONTINUOUS
10
-8.0
20
12.5
30
0
11
-12.66
21
12.5
31
0
0
LINE
8
0
6
CONTINUOUS
10
-12.66
20
12.5
30
0
11
-13.07
21
14.0
31
0
0
LINE
8
0
6
CONTINUOUS
10
-13.07
20
14.0
30
0
11
-12.9
21
15.76
31
0
0
LINE
8
0
6
CONTINUOUS
10
-12.9
20
15.76
30
0
11
-15.65
21
15.15
31
0
0
LINE
8
0
6
CONTINUOUS
10
-15.65
20
15.15
30
0
11
-14.11
21
12.89
31
0
0
ARC
8
0
6
CONTINUOUS
10
-14.359063684541347
20
12.7227657898554
30
0
40
0.3
50
227.9493170938103
51
33.87944934623993
0
LINE
8
0
6
CONTINUOUS
10
-14.56
20
12.5
30
0
11
-19.29
21
12.5
31
0
0
LINE
8
0
6
CONTINUOUS
10
-19.29
20
12.5
30
0
11
-17.96
21
15.0
31
0
0
LINE
8
0
6
CONTINUOUS
10
-17.96
20
15.0
30
0
11
-19.88
21
15.0
31
0
0
LINE
8
0
6
CONTINUOUS
10
-19.88
20
15.0
30
0
11
-21.08
21
13.8
31
0
0
LINE
8
0
6
CONTINUOUS
10
-21.08
20
13.8
30
0
11
-30.52
21
13.8
31
0
0
LINE
8
0
6
CONTINUOUS
10
-30.52
20
13.8
30
0
11
-31.72
21
15.0
31
0
0
LINE
8
0
6
CONTINUOUS
10
-31.72
20
15.0
30
0
11
-33.65
21
15.0
31
0
0
LINE
8
0
6
CONTINUOUS
10
-33.65
20
15.0
30
0
11
-32.27
21
12.5
31
0
0
LINE
8
0
6
CONTINUOUS
10
-32.27
20
12.5
30
0
11
-37.26
21
12.5
31
0
0
LINE
8
0
6
CONTINUOUS
10
-37.26
20
12.5
30
0
11
-36.01
21
15.17
31
0
0
LINE
8
0
6
CONTINUOUS
10
-36.01
20
15.17
30
0
11
-38.7
21
15.76
31
0
0
LINE
8
0
6
CONTINUOUS
10
-38.7
20
15.76
30
0
11
-38.53
21
14.0
31
0
0
LINE
8
0
6
CONTINUOUS
10
-38.53
20
14.0
30
0
11
-38.83
21
12.9
31
0
0
LINE
8
0
6
CONTINUOUS
10
-38.83
20
12.9
30
0
11
-45.53
21
6.2
31
0
0
LINE
8
0
6
CONTINUOUS
10
-45.53
20
6.2
30
0
11
-48.5
21
6.2
31
0
0
ARC
8
0
6
CONTINUOUS
10
-48.5
20
6.7
30
0
40
0.5
50
180.0
51
270.0
0
LINE
8
0
6
CONTINUOUS
10
-49.0
20
6.7
30
0
11
-49.0
21
10.2
31
0
0
ARC
8
0
6
CONTINUOUS
10
-49.5
20
10.2
30
0
40
0.5
50
0.0
51
90.0
0
LINE
8
0
6
CONTINUOUS
10
-49.5
20
10.7
30
0
11
-51.1
21
10.7
31
0
0
LINE
8
0
6
CONTINUOUS
10
-51.1
20
10.7
30
0
11
-51.1
21
9.9
31
0
0
LINE
8
0
6
CONTINUOUS
10
-51.1
20
9.9
30
0
11
-50.2
21
9.9
31
0
0
LINE
8
0
6
CONTINUOUS
10
-50.2
20
9.9
30
0
11
-50.2
21
7.0
31
0
0
ARC
8
0
6
CONTINUOUS
10
-50.7
20
7.0
30
0
40
0.5
50
270.0
51
0.0
0
LINE
8
0
6
CONTINUOUS
10
-50.7
20
6.5
30
0
11
-57.3
21
6.5
31
0
0
ARC
8
0
6
CONTINUOUS
10
-57.3
20
7.0
30
0
40
0.5
50
180.0
51
270.0
0
LINE
8
0
6
CONTINUOUS
10
-57.8
20
7.0
30
0
11
-57.8
21
9.9
31
0
0
LINE
8
0
6
CONTINUOUS
10
-57.8
20
9.9
30
0
11
-56.9
21
9.9
31
0
0
LINE
8
0
6
CONTINUOUS
10
-56.9
20
9.9
30
0
11
-56.9
21
10.7
31
0
0
LINE
8
0
6
CONTINUOUS
10
-56.9
20
10.7
30
0
11
-58.5
21
10.7
31
0
0
ARC
8
0
6
CONTINUOUS
10
-58.5
20
10.2
30
0
40
0.5
50
90.0
51
180.0
0
LINE
8
0
6
CONTINUOUS
10
-59.0
20
10.2
30
0
11
-59.0
21
5.4
31
0
0
ARC
8
0
6
CONTINUOUS
10
-58.5
20
5.4
30
0
40
0.5
50
180.0
51
270.0
0
LINE
8
0
6
CONTINUOUS
10
-58.5
20
4.9
30
0
11
-52.5
21
4.9
31
0
0
LINE
8
0
6
CONTINUOUS
10
-52.5
20
4.9
30
0
11
-45.81
21
-10.0
31
0
0
LINE
8
0
6
CONTINUOUS
10
-45.81
20
-10.0
30
0
11
-4.5
21
-10.0
31
0
0
LINE
8
0
6
CONTINUOUS
10
-4.5
20
-10.0
30
0
11
-4.5
21
-8.2
31
0
0
LINE
8
0
6
CONTINUOUS
10
-4.5
20
-8.2
30
0
11
-8.0
21
-8.2
31
0
0
LINE
8
0
6
CONTINUOUS
10
-8.0
20
-8.2
30
0
11
-8.0
21
-6.21
31
0
0
LINE
8
0
6
CONTINUOUS
10
-8.0
20
-6.21
30
0
11
-9.5
21
-6.21
31
0
0
LINE
8
0
6
CONTINUOUS
10
-9.5
20
-6.21
30
0
11
-9.5
21
-8.2
31
0
0
LINE
8
0
6
CONTINUOUS
10
-9.5
20
-8.2
30
0
11
-12.5
21
-8.2
31
0
0
LINE
8
0
6
CONTINUOUS
10
-14.3
20
10.7
30
0
11
-14.3
21
-8.2
31
0
0
LINE
8
0
6
CONTINUOUS
10
-14.3
20
-8.2
30
0
11
-36.7
21
-8.2
31
0
0
LINE
8
0
6
CONTINUOUS
10
-36.7
20
-8.2
30
0
11
-36.7
21
-7.2
31
0
0
LINE
8
0
6
CONTINUOUS
10
-36.7
20
-7.2
30
0
11
-38.7
21
-7.2
31
0
0
LINE
8
0
6
CONTINUOUS
10
-38.7
20
-7.2
30
0
11
-38.7
21
-5.4
31
0
0
LINE
8
0
6
CONTINUOUS
10
-38.7
20
-5.4
30
0
11
-40.7
21
-5.4
31
0
0
LINE
8
0
6
CONTINUOUS
10
-40.7
20
-5.4
30
0
11
-40.7
21
-7.2
31
0
0
ARC
8
0
6
CONTINUOUS
10
-41.7
20
-7.199999999999999
30
0
40
1.0
50
270.0
51
359.99999999999994
0
LINE
8
0
6
CONTINUOUS
10
-41.7
20
-8.2
30
0
11
-44.86
21
-8.2
31
0
0
LINE
8
0
6
CONTINUOUS
10
-44.86
20
-8.2
30
0
11
-50.29
21
3.89
31
0
0
ARC
8
0
6
CONTINUOUS
10
-49.83624447545798
20
4.100014104163513
30
0
40
0.5
50
90.4303554587748
51
204.83636841177605
0
LINE
8
0
6
CONTINUOUS
10
-49.84
20
4.6
30
0
11
-44.8
21
4.6
31
0
0
LINE
8
0
6
CONTINUOUS
10
-44.8
20
4.6
30
0
11
-40.7
21
8.7
31
0
0
LINE
8
0
6
CONTINUOUS
10
-40.7
20
8.7
30
0
11
-38.7
21
8.7
31
0
0
LINE
8
0
6
CONTINUOUS
10
-38.7
20
8.7
30
0
11
-38.7
21
10.7
31
0
0
LINE
8
0
6
CONTINUOUS
10
-38.7
20
10.7
30
0
11
-32.6
21
10.7
31
0
0
ARC
8
0
6
CONTINUOUS
10
-32.599161703024336
20
12.499999804793928
30
0
40
1.8
50
269.9733161775442
51
343.8723862549932
0
LINE
8
0
6
CONTINUOUS
10
-30.87
20
12.0
30
0
11
-20.73
21
12.0
31
0
0
ARC
8
0
6
CONTINUOUS
10
-19.00083829697566
20
12.499999804793928
30
0
40
1.8
50
196.12761374500673
51
270.0266838224557
0
LINE
8
0
6
CONTINUOUS
10
-19.0
20
10.7
30
0
11
-14.3
21
10.7
31
0
0
LINE
8
0
6
CONTINUOUS
10
-12.5
20
65.2
30
0
11
-9.5
21
65.2
31
0
0
LINE
8
0
6
CONTINUOUS
10
-9.5
20
65.2
30
0
11
-9.5
21
63.21
31
0
0
LINE
8
0
6
CONTINUOUS
10
-9.5
20
63.21
30
0
11
-8.0
21
63.21
31
0
0
LINE
8
0
6
CONTINUOUS
10
-8.0
20
63.21
30
0
11
-8.0
21
65.2
31
0
0
LINE
8
0
6
CONTINUOUS
10
-8.0
20
65.2
30
0
11
-4.5
21
65.2
31
0
0
LINE
8
0
6
CONTINUOUS
10
-4.5
20
65.2
30
0
11
-4.5
21
67.0
31
0
0
LINE
8
0
6
CONTINUOUS
10
-4.5
20
67.0
30
0
11
-44.5
21
67.0
31
0
0
ARC
8
0
6
CONTINUOUS
10
-44.50160277440378
20
66.50000256889238
30
0
40
0.5
50
89.8163352677604
51
184.58886105577153
0
LINE
8
0
6
CONTINUOUS
10
-45.0
20
66.46
30
0
11
-45.0
21
63.71
31
0
0
LINE
8
0
6
CONTINUOUS
10
-45.0
20
63.71
30
0
11
-43.5
21
63.71
31
0
0
LINE
8
0
6
CONTINUOUS
10
-43.5
20
63.71
30
0
11
-43.5
21
65.2
31
0
0
LINE
8
0
6
CONTINUOUS
10
-43.5
20
65.2
30
0
11
-40.5
21
65.2
31
0
0
LINE
8
0
6
CONTINUOUS
10
-40.5
20
65.2
30
0
11
-40.5
21
46.6
31
0
0
LINE
8
0
6
CONTINUOUS
10
-40.5
20
46.6
30
0
11
-43.5
21
46.6
31
0
0
LINE
8
0
6
CONTINUOUS
10
-43.5
20
46.6
30
0
11
-43.5
21
47.99
31
0
0
LINE
8
0
6
CONTINUOUS
10
-43.5
20
47.99
30
0
11
-45.0
21
47.99
31
0
0
LINE
8
0
6
CONTINUOUS
10
-45.0
20
47.99
30
0
11
-45.0
21
45.0
31
0
0
LINE
8
0
6
CONTINUOUS
10
-45.0
20
45.0
30
0
11
-39.08
21
45.0
31
0
0
LINE
8
0
6
CONTINUOUS
10
-39.08
20
45.0
30
0
11
-38.53
21
43.0
31
0
0
LINE
8
0
6
CONTINUOUS
10
-38.53
20
43.0
30
0
11
-38.7
21
41.24
31
0
0
LINE
8
0
6
CONTINUOUS
10
-38.7
20
41.24
30
0
11
-36.02
21
41.83
31
0
0
LINE
8
0
6
CONTINUOUS
10
-36.02
20
41.83
30
0
11
-37.04
21
44.5
31
0
0
LINE
8
0
6
CONTINUOUS
10
-37.04
20
44.5
30
0
11
-32.44
21
44.5
31
0
0
LINE
8
0
6
CONTINUOUS
10
-32.44
20
44.5
30
0
11
-33.43
21
42.0
31
0
0
LINE
8
0
6
CONTINUOUS
10
-33.43
20
42.0
30
0
11
-31.72
21
42.0
31
0
0
LINE
8
0
6
CONTINUOUS
10
-31.72
20
42.0
30
0
11
-30.52
21
43.2
31
0
0
LINE
8
0
6
CONTINUOUS
10
-30.52
20
43.2
30
0
11
-21.08
21
43.2
31
0
0
LINE
8
0
6
CONTINUOUS
10
-21.08
20
43.2
30
0
11
-19.88
21
42.0
31
0
0
LINE
8
0
6
CONTINUOUS
10
-19.88
20
42.0
30
0
11
-17.96
21
42.0
31
0
0
LINE
8
0
6
CONTINUOUS
10
-17.96
20
42.0
30
0
11
-19.33
21
44.5
31
0
0
LINE
8
0
6
CONTINUOUS
10
-19.33
20
44.5
30
0
11
-14.56
21
44.5
31
0
0
ARC
8
0
6
CONTINUOUS
10
-14.356240253116306
20
44.27981379346132
30
0
40
0.3
50
342.5796730402099
51
132.78109394342934
0
LINE
8
0
6
CONTINUOUS
10
-14.07
20
44.19
30
0
11
-15.66
21
41.85
31
0
0
LINE
8
0
6
CONTINUOUS
10
-15.66
20
41.85
30
0
11
-12.9
21
41.24
31
0
0
LINE
8
0
6
CONTINUOUS
10
-12.9
20
41.24
30
0
11
-13.07
21
43.0
31
0
0
LINE
8
0
6
CONTINUOUS
10
-13.07
20
43.0
30
0
11
-12.66
21
44.5
31
0
0
LINE
8
0
6
CONTINUOUS
10
-12.66
20
44.5
30
0
11
-8.0
21
44.5
31
0
0
LINE
8
0
6
CONTINUOUS
10
-8.0
20
44.5
30
0
11
-8.0
21
47.79
31
0
0
LINE
8
0
6
CONTINUOUS
10
-8.0
20
47.79
30
0
11
-9.5
21
47.79
31
0
0
LINE
8
0
6
CONTINUOUS
10
-9.5
20
47.79
30
0
11
-9.5
21
46.1
31
0
0
LINE
8
0
6
CONTINUOUS
10
-9.5
20
46.1
30
0
11
-12.5
21
46.1
31
0
0
LINE
8
0
6
CONTINUOUS
10
-12.5
20
46.1
30
0
11
-12.5
21
65.2
31
0
0
LINE
8
0
6
CONTINUOUS
10
-14.3
20
46.3
30
0
11
-19.0
21
46.3
31
0
0
ARC
8
0
6
CONTINUOUS
10
-19.000838296975665
20
44.50000019520607
30
0
40
1.8
50
89.97331617754418
51
163.8723862549932
0
LINE
8
0
6
CONTINUOUS
10
-20.73
20
45.0
30
0
11
-30.87
21
45.0
31
0
0
ARC
8
0
6
CONTINUOUS
10
-32.599161703024336
20
44.50000019520607
30
0
40
1.8
50
16.127613745006826
51
90.02668382245584
0
LINE
8
0
6
CONTINUOUS
10
-32.6
20
46.3
30
0
11
-38.7
21
46.3
31
0
0
LINE
8
0
6
CONTINUOUS
10
-38.7
20
46.3
30
0
11
-38.7
21
65.2
31
0
0
LINE
8
0
6
CONTINUOUS
10
-38.7
20
65.2
30
0
11
-14.3
21
65.2
31
0
0
LINE
8
0
6
CONTINUOUS
10
-14.3
20
65.2
30
0
11
-14.3
21
46.3
31
0
0
LINE
8
0
6
CONTINUOUS
10
-45.0
20
61.5
30
0
11
-45.0
21
54.33
31
0
0
ARC
8
0
6
CONTINUOUS
10
-44.30059947914485
20
50.900592046514795
30
0
40
3.5
50
101.52694324063847
51
159.08554346248732
0
LINE
8
0
6
CONTINUOUS
10
-47.57
20
52.15
30
0
11
-50.71
21
49.0
31
0
0
LINE
8
0
6
CONTINUOUS
10
-50.71
20
49.0
30
0
11
-53.57
21
49.0
31
0
0
LINE
8
0
6
CONTINUOUS
10
-53.57
20
49.0
30
0
11
-57.7
21
50.11
31
0
0
LINE
8
0
6
CONTINUOUS
10
-57.7
20
50.11
30
0
11
-57.7
21
64.7
31
0
0
ARC
8
0
6
CONTINUOUS
10
-56.7
20
64.7
30
0
40
1.0
50
90.0
51
180.0
0
LINE
8
0
6
CONTINUOUS
10
-56.7
20
65.7
30
0
11
-48.0
21
65.7
31
0
0
ARC
8
0
6
CONTINUOUS
10
-48.0
20
64.7
30
0
40
1.0
50
0.0
51
90.0
0
LINE
8
0
6
CONTINUOUS
10
-47.0
20
64.7
30
0
11
-47.0
21
62.5
31
0
0
ARC
8
0
6
CONTINUOUS
10
-46.0
20
62.5
30
0
40
1.0
50
180.0
51
270.0
0
LINE
8
0
6
CONTINUOUS
10
-46.0
20
61.5
30
0
11
-45.0
21
61.5
31
0
0
LINE
8
0
6
CONTINUOUS
10
-43.7
20
54.35
30
0
11
-43.7
21
60.6
31
0
0
ARC
8
0
6
CONTINUOUS
10
-42.800017265566
20
60.60557473951777
30
0
40
0.9
50
83.61952378187868
51
180.35490120975442
0
ARC
8
0
6
CONTINUOUS
10
-42.699999999999996
20
62.400000000000006
30
0
40
0.9
50
269.99999999999955
51
359.99999999999955
0
LINE
8
0
6
CONTINUOUS
10
-41.8
20
62.4
30
0
11
-41.8
21
63.79
31
0
0
LINE
8
0
6
CONTINUOUS
10
-41.8
20
63.79
30
0
11
-43.0
21
63.79
31
0
0
LINE
8
0
6
CONTINUOUS
10
-43.0
20
63.79
30
0
11
-43.0
21
63.0
31
0
0
LINE
8
0
6
CONTINUOUS
10
-43.0
20
63.0
30
0
11
-45.5
21
63.0
31
0
0
LINE
8
0
6
CONTINUOUS
10
-45.5
20
63.0
30
0
11
-45.5
21
67.0
31
0
0
LINE
8
0
6
CONTINUOUS
10
-45.5
20
67.0
30
0
11
-58.5
21
67.0
31
0
0
ARC
8
0
6
CONTINUOUS
10
-58.5
20
66.5
30
0
40
0.5
50
90.0
51
180.0
0
LINE
8
0
6
CONTINUOUS
10
-59.0
20
66.5
30
0
11
-59.0
21
47.2
31
0
0
LINE
8
0
6
CONTINUOUS
10
-59.0
20
47.2
30
0
11
-57.1
21
47.2
31
0
0
LINE
8
0
6
CONTINUOUS
10
-57.1
20
47.2
30
0
11
-57.1
21
48.6
31
0
0
LINE
8
0
6
CONTINUOUS
10
-57.1
20
48.6
30
0
11
-53.74
21
47.7
31
0
0
LINE
8
0
6
CONTINUOUS
10
-53.74
20
47.7
30
0
11
-50.18
21
47.7
31
0
0
LINE
8
0
6
CONTINUOUS
10
-50.18
20
47.7
30
0
11
-44.92
21
52.96
31
0
0
ARC
8
0
6
CONTINUOUS
10
-44.40599156129919
20
50.86145122732886
30
0
40
2.160581316760658
50
294.79214869636417
51
103.76279747096069
0
LINE
8
0
6
CONTINUOUS
10
-43.5
20
48.9
30
0
11
-43.5
21
48.0
31
0
0
ARC
8
0
6
CONTINUOUS
10
-43.40170658699133
20
50.59814133660182
30
0
40
2.6
50
267.8334076518147
51
344.19512878970386
0
LINE
8
0
6
CONTINUOUS
10
-40.9
20
49.89
30
0
11
-40.9
21
51.73
31
0
0
ARC
8
0
6
CONTINUOUS
10
-44.30063030994259
20
50.90192180616822
30
0
40
3.5
50
13.685588678008129
51
80.11863687130582
0
LINE
8
0
6
CONTINUOUS
10
-23.6
20
35.0
30
0
11
-19.6
21
35.0
31
0
0
LINE
8
0
6
CONTINUOUS
10
-19.6
20
35.0
30
0
11
-19.6
21
33.5
31
0
0
LINE
8
0
6
CONTINUOUS
10
-19.6
20
33.5
30
0
11
-18.1
21
33.5
31
0
0
LINE
8
0
6
CONTINUOUS
10
-18.1
20
33.5
30
0
11
-18.1
21
36.3
31
0
0
LINE
8
0
6
CONTINUOUS
10
-18.1
20
36.3
30
0
11
-20.6
21
36.3
31
0
0
LINE
8
0
6
CONTINUOUS
10
-20.6
20
36.3
30
0
11
-20.6
21
37.6
31
0
0
LINE
8
0
6
CONTINUOUS
10
-20.6
20
37.6
30
0
11
-19.3
21
38.9
31
0
0
LINE
8
0
6
CONTINUOUS
10
-19.3
20
38.9
30
0
11
-15.1
21
38.9
31
0
0
LINE
8
0
6
CONTINUOUS
10
-15.1
20
38.9
30
0
11
-15.1
21
36.5
31
0
0
LINE
8
0
6
CONTINUOUS
10
-15.1
20
36.5
30
0
11
-13.6
21
36.5
31
0
0
LINE
8
0
6
CONTINUOUS
10
-13.6
20
36.5
30
0
11
-13.6
21
40.9
31
0
0
LINE
8
0
6
CONTINUOUS
10
-13.6
20
40.9
30
0
11
-15.14
21
40.9
31
0
0
LINE
8
0
6
CONTINUOUS
10
-15.14
20
40.9
30
0
11
-15.66
21
41.85
31
0
0
LINE
8
0
6
CONTINUOUS
10
-15.66
20
41.85
30
0
11
-13.86
21
44.5
31
0
0
LINE
8
0
6
CONTINUOUS
10
-13.86
20
44.5
30
0
11
-19.33
21
44.5
31
0
0
LINE
8
0
6
CONTINUOUS
10
-19.33
20
44.5
30
0
11
-17.74
21
41.62
31
0
0
LINE
8
0
6
CONTINUOUS
10
-17.74
20
41.62
30
0
11
-20.81
21
40.5
31
0
0
LINE
8
0
6
CONTINUOUS
10
-20.81
20
40.5
30
0
11
-23.75
21
37.56
31
0
0
ARC
8
0
6
CONTINUOUS
10
-24.800341965911784
20
38.63087896358299
30
0
40
1.5
50
283.1143150967064
51
314.4452975120883
0
ARC
8
0
6
CONTINUOUS
10
-24.100004913808462
20
35.7138394532477
30
0
40
1.5
50
103.88634701814902
51
180.14665647129667
0
LINE
8
0
6
CONTINUOUS
10
-25.6
20
35.71
30
0
11
-25.6
21
21.29
31
0
0
ARC
8
0
6
CONTINUOUS
10
-24.100012658697075
20
21.29616246143816
30
0
40
1.5
50
180.23538935004012
51
256.11395772100866
0
ARC
8
0
6
CONTINUOUS
10
-24.81358100107544
20
18.382268723091087
30
0
40
1.5
50
44.84200173639137
51
76.36589255372236
0
LINE
8
0
6
CONTINUOUS
10
-23.75
20
19.44
30
0
11
-20.81
21
16.5
31
0
0
LINE
8
0
6
CONTINUOUS
10
-20.81
20
16.5
30
0
11
-17.76
21
15.39
31
0
0
LINE
8
0
6
CONTINUOUS
10
-17.76
20
15.39
30
0
11
-19.29
21
12.5
31
0
0
LINE
8
0
6
CONTINUOUS
10
-19.29
20
12.5
30
0
11
-13.84
21
12.5
31
0
0
LINE
8
0
6
CONTINUOUS
10
-13.84
20
12.5
30
0
11
-15.65
21
15.15
31
0
0
LINE
8
0
6
CONTINUOUS
10
-15.65
20
15.15
30
0
11
-15.15
21
16.1
31
0
0
LINE
8
0
6
CONTINUOUS
10
-15.15
20
16.1
30
0
11
-13.6
21
16.1
31
0
0
LINE
8
0
6
CONTINUOUS
10
-13.6
20
16.1
30
0
11
-13.6
21
20.5
31
0
0
LINE
8
0
6
CONTINUOUS
10
-13.6
20
20.5
30
0
11
-15.1
21
20.5
31
0
0
LINE
8
0
6
CONTINUOUS
10
-15.1
20
20.5
30
0
11
-15.1
21
18.1
31
0
0
LINE
8
0
6
CONTINUOUS
10
-15.1
20
18.1
30
0
11
-19.3
21
18.1
31
0
0
LINE
8
0
6
CONTINUOUS
10
-19.3
20
18.1
30
0
11
-20.6
21
19.4
31
0
0
LINE
8
0
6
CONTINUOUS
10
-20.6
20
19.4
30
0
11
-20.6
21
20.7
31
0
0
LINE
8
0
6
CONTINUOUS
10
-20.6
20
20.7
30
0
11
-18.1
21
20.7
31
0
0
LINE
8
0
6
CONTINUOUS
10
-18.1
20
20.7
30
0
11
-18.1
21
23.5
31
0
0
LINE
8
0
6
CONTINUOUS
10
-18.1
20
23.5
30
0
11
-19.6
21
23.5
31
0
0
LINE
8
0
6
CONTINUOUS
10
-19.6
20
23.5
30
0
11
-19.6
21
22.0
31
0
0
LINE
8
0
6
CONTINUOUS
10
-19.6
20
22.0
30
0
11
-23.6
21
22.0
31
0
0
LINE
8
0
6
CONTINUOUS
10
-23.6
20
22.0
30
0
11
-23.6
21
35.0
31
0
0
ARC
8
0
6
CONTINUOUS
10
-35.73000551777291
20
38.176285918439135
30
0
40
1.25
50
110.1204946499752
51
179.82975879094204
0
LINE
8
0
6
CONTINUOUS
10
-36.16
20
39.35
30
0
11
-35.3
21
39.65
31
0
0
ARC
8
0
6
CONTINUOUS
10
-36.13613116465213
20
42.00603155231365
30
0
40
2.5
50
289.5392461237853
51
338.50545630615534
0
LINE
8
0
6
CONTINUOUS
10
-33.81
20
41.09
30
0
11
-32.44
21
44.5
31
0
0
LINE
8
0
6
CONTINUOUS
10
-32.44
20
44.5
30
0
11
-37.04
21
44.5
31
0
0
LINE
8
0
6
CONTINUOUS
10
-37.04
20
44.5
30
0
11
-36.02
21
41.83
31
0
0
LINE
8
0
6
CONTINUOUS
10
-36.02
20
41.83
30
0
11
-37.01
21
41.17
31
0
0
ARC
8
0
6
CONTINUOUS
10
-35.980009739535575
20
38.35235558252138
30
0
40
3.0
50
110.07989134588202
51
179.85400222255188
0
LINE
8
0
6
CONTINUOUS
10
-38.98
20
38.36
30
0
11
-38.98
21
18.64
31
0
0
ARC
8
0
6
CONTINUOUS
10
-35.980009739535575
20
18.647644417478617
30
0
40
3.0
50
180.14599777744812
51
249.92010865411797
0
LINE
8
0
6
CONTINUOUS
10
-37.01
20
15.83
30
0
11
-36.01
21
15.17
31
0
0
LINE
8
0
6
CONTINUOUS
10
-36.01
20
15.17
30
0
11
-37.26
21
12.5
31
0
0
LINE
8
0
6
CONTINUOUS
10
-37.26
20
12.5
30
0
11
-32.27
21
12.5
31
0
0
LINE
8
0
6
CONTINUOUS
10
-32.27
20
12.5
30
0
11
-33.63
21
14.97
31
0
0
ARC
8
0
6
CONTINUOUS
10
-36.12993314927023
20
14.988282482868073
30
0
40
2.5
50
359.58099262225585
51
70.85419331412969
0
LINE
8
0
6
CONTINUOUS
10
-35.31
20
17.35
30
0
11
-36.16
21
17.64
31
0
0
ARC
8
0
6
CONTINUOUS
10
-35.730015786296185
20
18.81371784342129
30
0
40
1.25
50
179.7120459412445
51
249.880006615292
0
LINE
8
0
6
CONTINUOUS
10
-36.98
20
18.82
30
0
11
-36.98
21
38.18
31
0
0
LINE
8
0
6
CONTINUOUS
10
-53.33
20
12.27
30
0
11
-55.23
21
13.24
31
0
0
ARC
8
0
6
CONTINUOUS
10
-54.96921120282089
20
13.780360253225451
30
0
40
0.6
50
91.98558131069923
51
244.23710261004533
0
LINE
8
0
6
CONTINUOUS
10
-54.99
20
14.38
30
0
11
-52.84
21
14.49
31
0
0
LINE
8
0
6
CONTINUOUS
10
-52.84
20
14.49
30
0
11
-50.69
21
14.6
31
0
0
LINE
8
0
6
CONTINUOUS
10
-50.69
20
14.6
30
0
11
-52.21
21
14.35
31
0
0
LINE
8
0
6
CONTINUOUS
10
-52.21
20
14.35
30
0
11
-52.21
21
12.39
31
0
0
LINE
8
0
6
CONTINUOUS
10
-52.21
20
12.39
30
0
11
-53.33
21
12.27
31
0
0
LINE
8
0
6
CONTINUOUS
10
-55.3
20
11.44
30
0
11
-52.24
21
11.44
31
0
0
LINE
8
0
6
CONTINUOUS
10
-52.24
20
11.44
30
0
11
-52.37
21
9.91
31
0
0
LINE
8
0
6
CONTINUOUS
10
-52.37
20
9.91
30
0
11
-54.08
21
9.79
31
0
0
LINE
8
0
6
CONTINUOUS
10
-54.08
20
9.79
30
0
11
-55.73
21
9.95
31
0
0
LINE
8
0
6
CONTINUOUS
10
-55.73
20
9.95
30
0
11
-55.3
21
11.44
31
0
0
LINE
8
0
6
CONTINUOUS
10
-56.32
20
12.86
30
0
11
-56.41
21
11.95
31
0
0
LINE
8
0
6
CONTINUOUS
10
-56.41
20
11.95
30
0
11
-57.33
21
11.95
31
0
0
ARC
8
0
6
CONTINUOUS
10
-57.33
20
12.549999999999999
30
0
40
0.6
50
179.99999999999986
51
270.0
0
LINE
8
0
6
CONTINUOUS
10
-57.93
20
12.55
30
0
11
-57.93
21
13.42
31
0
0
LINE
8
0
6
CONTINUOUS
10
-57.93
20
13.42
30
0
11
-57.09
21
13.42
31
0
0
LINE
8
0
6
CONTINUOUS
10
-57.09
20
13.42
30
0
11
-56.32
21
12.86
31
0
0
LINE
8
0
6
CONTINUOUS
10
-49.39
20
12.45
30
0
11
-51.58
21
13.76
31
0
0
LINE
8
0
6
CONTINUOUS
10
-51.58
20
13.76
30
0
11
-50.14
21
14.08
31
0
0
LINE
8
0
6
CONTINUOUS
10
-50.14
20
14.08
30
0
11
-49.56
21
14.66
31
0
0
LINE
8
0
6
CONTINUOUS
10
-49.56
20
14.66
30
0
11
-50.48
21
15.0
31
0
0
LINE
8
0
6
CONTINUOUS
10
-50.48
20
15.0
30
0
11
-59.0
21
15.0
31
0
0
LINE
8
0
6
CONTINUOUS
10
-59.0
20
15.0
30
0
11
-59.0
21
11.0
31
0
0
LINE
8
0
6
CONTINUOUS
10
-59.0
20
11.0
30
0
11
-56.6
21
11.0
31
0
0
LINE
8
0
6
CONTINUOUS
10
-56.6
20
11.0
30
0
11
-56.89
21
9.76
31
0
0
LINE
8
0
6
CONTINUOUS
10
-56.89
20
9.76
30
0
11
-55.28
21
9.16
31
0
0
LINE
8
0
6
CONTINUOUS
10
-55.28
20
9.16
30
0
11
-54.23
21
9.07
31
0
0
ARC
8
0
6
CONTINUOUS
10
-54.343736795486286
20
15.689022884184078
30
0
40
6.62
50
270.9844348935796
51
279.50984290965323
0
LINE
8
0
6
CONTINUOUS
10
-53.25
20
9.16
30
0
11
-52.4
21
9.25
31
0
0
LINE
8
0
6
CONTINUOUS
10
-52.4
20
9.25
30
0
11
-50.22
21
9.9
31
0
0
LINE
8
0
6
CONTINUOUS
10
-50.22
20
9.9
30
0
11
-51.5
21
9.9
31
0
0
LINE
8
0
6
CONTINUOUS
10
-51.5
20
9.9
30
0
11
-51.5
21
10.9
31
0
0
LINE
8
0
6
CONTINUOUS
10
-51.5
20
10.9
30
0
11
-49.39
21
11.02
31
0
0
LINE
8
0
6
CONTINUOUS
10
-49.39
20
11.02
30
0
11
-49.39
21
12.45
31
0
0
LINE
8
0
6
CONTINUOUS
10
-53.3
20
46.73
30
0
11
-54.46
21
47.11
31
0
0
LINE
8
0
6
CONTINUOUS
10
-54.46
20
47.11
30
0
11
-58.8
21
47.0
31
0
0
LINE
8
0
6
CONTINUOUS
10
-58.8
20
47.0
30
0
11
-59.24
21
48.28
31
0
0
LINE
8
0
6
CONTINUOUS
10
-59.24
20
48.28
30
0
11
-60.18
21
48.13
31
0
0
ARC
8
0
6
CONTINUOUS
10
-60.1060856729172
20
47.213006795917465
30
0
40
0.91
50
94.65895552338118
51
153.43291918982266
0
LINE
8
0
6
CONTINUOUS
10
-60.92
20
47.62
30
0
11
-61.84
21
44.82
31
0
0
ARC
8
0
6
CONTINUOUS
10
-67.83119174949077
20
48.28294981494589
30
0
40
6.92
50
308.53587893176774
51
329.9717939404707
0
ARC
8
0
6
CONTINUOUS
10
-63.029331384728465
20
42.57992361352996
30
0
40
0.57
50
149.40901752201825
51
270.93802253727
0
LINE
8
0
6
CONTINUOUS
10
-63.02
20
42.0
30
0
11
-59.28
21
42.0
31
0
0
ARC
8
0
6
CONTINUOUS
10
-59.27862631126097
20
44.65999964529683
30
0
40
2.66
50
269.9704110636807
51
289.97370431098113
0
LINE
8
0
6
CONTINUOUS
10
-58.37
20
42.16
30
0
11
-55.38
21
43.59
31
0
0
ARC
8
0
6
CONTINUOUS
10
-54.97394900112625
20
43.21902481711896
30
0
40
0.55
50
49.94342989684392
51
137.5846398329668
0
ARC
8
0
6
CONTINUOUS
10
-44.11638587744838
20
72.75316867612548
30
0
40
30.95
50
250.16128263169568
51
256.40768372680236
0
LINE
8
0
6
CONTINUOUS
10
-51.39
20
42.67
30
0
11
-52.68
21
42.64
31
0
0
ARC
8
0
6
CONTINUOUS
10
-52.79622753011102
20
42.31814620783148
30
0
40
0.32
50
70.61215457842485
51
291.29752792931936
0
LINE
8
0
6
CONTINUOUS
10
-52.67
20
42.0
30
0
11
-50.34
21
42.0
31
0
0
ARC
8
0
6
CONTINUOUS
10
-50.15351952966527
20
42.59249854623377
30
0
40
0.58
50
252.28534787727511
51
23.09419276902586
0
LINE
8
0
6
CONTINUOUS
10
-49.62
20
42.82
30
0
11
-53.3
21
46.73
31
0
0
LINE
8
0
6
CONTINUOUS
10
-58.83
20
42.5
30
0
11
-61.94
21
42.5
31
0
0
LINE
8
0
6
CONTINUOUS
10
-61.94
20
42.5
30
0
11
-58.42
21
45.21
31
0
0
LINE
8
0
6
CONTINUOUS
10
-58.42
20
45.21
30
0
11
-55.62
21
45.21
31
0
0
LINE
8
0
6
CONTINUOUS
10
-55.62
20
45.21
30
0
11
-55.62
21
44.28
31
0
0
LINE
8
0
6
CONTINUOUS
10
-55.62
20
44.28
30
0
11
-58.83
21
42.5
31
0
0
LINE
8
0
6
CONTINUOUS
10
16.5
20
-8.2
30
0
11
13.5
21
-8.2
31
0
0
LINE
8
0
6
CONTINUOUS
10
13.5
20
-8.2
30
0
11
13.5
21
-6.21
31
0
0
LINE
8
0
6
CONTINUOUS
10
13.5
20
-6.21
30
0
11
12.0
21
-6.21
31
0
0
LINE
8
0
6
CONTINUOUS
10
12.0
20
-6.21
30
0
11
12.0
21
-8.2
31
0
0
LINE
8
0
6
CONTINUOUS
10
12.0
20
-8.2
30
0
11
8.5
21
-8.2
31
0
0
LINE
8
0
6
CONTINUOUS
10
8.5
20
-8.2
30
0
11
8.5
21
-10.0
31
0
0
LINE
8
0
6
CONTINUOUS
10
8.5
20
-10.0
30
0
11
49.81
21
-10.0
31
0
0
LINE
8
0
6
CONTINUOUS
10
49.81
20
-10.0
30
0
11
56.5
21
4.9
31
0
0
LINE
8
0
6
CONTINUOUS
10
56.5
20
4.9
30
0
11
62.5
21
4.9
31
0
0
ARC
8
0
6
CONTINUOUS
10
62.5
20
5.4
30
0
40
0.5
50
270.0
51
0.0
0
LINE
8
0
6
CONTINUOUS
10
63.0
20
5.4
30
0
11
63.0
21
10.2
31
0
0
ARC
8
0
6
CONTINUOUS
10
62.5
20
10.2
30
0
40
0.5
50
0.0
51
90.0
0
LINE
8
0
6
CONTINUOUS
10
62.5
20
10.7
30
0
11
60.9
21
10.7
31
0
0
LINE
8
0
6
CONTINUOUS
10
60.9
20
10.7
30
0
11
60.9
21
9.9
31
0
0
LINE
8
0
6
CONTINUOUS
10
60.9
20
9.9
30
0
11
61.8
21
9.9
31
0
0
LINE
8
0
6
CONTINUOUS
10
61.8
20
9.9
30
0
11
61.8
21
7.0
31
0
0
ARC
8
0
6
CONTINUOUS
10
61.3
20
7.0
30
0
40
0.5
50
270.0
51
0.0
0
LINE
8
0
6
CONTINUOUS
10
61.3
20
6.5
30
0
11
54.7
21
6.5
31
0
0
ARC
8
0
6
CONTINUOUS
10
54.7
20
7.0
30
0
40
0.5
50
180.0
51
270.0
0
LINE
8
0
6
CONTINUOUS
10
54.2
20
7.0
30
0
11
54.2
21
9.9
31
0
0
LINE
8
0
6
CONTINUOUS
10
54.2
20
9.9
30
0
11
55.1
21
9.9
31
0
0
LINE
8
0
6
CONTINUOUS
10
55.1
20
9.9
30
0
11
55.1
21
10.7
31
0
0
LINE
8
0
6
CONTINUOUS
10
55.1
20
10.7
30
0
11
53.5
21
10.7
31
0
0
ARC
8
0
6
CONTINUOUS
10
53.5
20
10.2
30
0
40
0.5
50
90.0
51
180.0
0
LINE
8
0
6
CONTINUOUS
10
53.0
20
10.2
30
0
11
53.0
21
6.7
31
0
0
ARC
8
0
6
CONTINUOUS
10
52.5
20
6.7
30
0
40
0.5
50
270.0
51
0.0
0
LINE
8
0
6
CONTINUOUS
10
52.5
20
6.2
30
0
11
49.53
21
6.2
31
0
0
LINE
8
0
6
CONTINUOUS
10
49.53
20
6.2
30
0
11
42.83
21
12.9
31
0
0
LINE
8
0
6
CONTINUOUS
10
42.83
20
12.9
30
0
11
42.53
21
14.0
31
0
0
LINE
8
0
6
CONTINUOUS
10
42.53
20
14.0
30
0
11
42.7
21
15.76
31
0
0
LINE
8
0
6
CONTINUOUS
10
42.7
20
15.76
30
0
11
40.01
21
15.17
31
0
0
LINE
8
0
6
CONTINUOUS
10
40.01
20
15.17
30
0
11
41.26
21
12.5
31
0
0
LINE
8
0
6
CONTINUOUS
10
41.26
20
12.5
30
0
11
36.27
21
12.5
31
0
0
LINE
8
0
6
CONTINUOUS
10
36.27
20
12.5
30
0
11
37.65
21
15.0
31
0
0
LINE
8
0
6
CONTINUOUS
10
37.65
20
15.0
30
0
11
35.72
21
15.0
31
0
0
LINE
8
0
6
CONTINUOUS
10
35.72
20
15.0
30
0
11
34.52
21
13.8
31
0
0
LINE
8
0
6
CONTINUOUS
10
34.52
20
13.8
30
0
11
25.08
21
13.8
31
0
0
LINE
8
0
6
CONTINUOUS
10
25.08
20
13.8
30
0
11
23.88
21
15.0
31
0
0
LINE
8
0
6
CONTINUOUS
10
23.88
20
15.0
30
0
11
21.96
21
15.0
31
0
0
LINE
8
0
6
CONTINUOUS
10
21.96
20
15.0
30
0
11
23.29
21
12.5
31
0
0
LINE
8
0
6
CONTINUOUS
10
23.29
20
12.5
30
0
11
18.56
21
12.5
31
0
0
ARC
8
0
6
CONTINUOUS
10
18.35906368454135
20
12.722765789855403
30
0
40
0.3
50
146.120550653761
51
312.0506829061885
0
LINE
8
0
6
CONTINUOUS
10
18.11
20
12.89
30
0
11
19.65
21
15.15
31
0
0
LINE
8
0
6
CONTINUOUS
10
19.65
20
15.15
30
0
11
16.9
21
15.76
31
0
0
LINE
8
0
6
CONTINUOUS
10
16.9
20
15.76
30
0
11
17.07
21
14.0
31
0
0
LINE
8
0
6
CONTINUOUS
10
17.07
20
14.0
30
0
11
16.66
21
12.5
31
0
0
LINE
8
0
6
CONTINUOUS
10
16.66
20
12.5
30
0
11
12.0
21
12.5
31
0
0
LINE
8
0
6
CONTINUOUS
10
12.0
20
12.5
30
0
11
12.0
21
9.21
31
0
0
LINE
8
0
6
CONTINUOUS
10
12.0
20
9.21
30
0
11
13.5
21
9.21
31
0
0
LINE
8
0
6
CONTINUOUS
10
13.5
20
9.21
30
0
11
13.5
21
10.9
31
0
0
LINE
8
0
6
CONTINUOUS
10
13.5
20
10.9
30
0
11
16.5
21
10.9
31
0
0
LINE
8
0
6
CONTINUOUS
10
16.5
20
10.9
30
0
11
16.5
21
-8.2
31
0
0
LINE
8
0
6
CONTINUOUS
10
18.3
20
10.7
30
0
11
23.0
21
10.7
31
0
0
ARC
8
0
6
CONTINUOUS
10
23.00083829697566
20
12.499999804793928
30
0
40
1.8
50
269.9733161775443
51
343.8723862549933
0
LINE
8
0
6
CONTINUOUS
10
24.73
20
12.0
30
0
11
34.87
21
12.0
31
0
0
ARC
8
0
6
CONTINUOUS
10
36.599161703024336
20
12.499999804793928
30
0
40
1.8
50
196.12761374500673
51
270.0266838224558
0
LINE
8
0
6
CONTINUOUS
10
36.6
20
10.7
30
0
11
42.7
21
10.7
31
0
0
LINE
8
0
6
CONTINUOUS
10
42.7
20
10.7
30
0
11
42.7
21
8.7
31
0
0
LINE
8
0
6
CONTINUOUS
10
42.7
20
8.7
30
0
11
44.7
21
8.7
31
0
0
LINE
8
0
6
CONTINUOUS
10
44.7
20
8.7
30
0
11
48.8
21
4.6
31
0
0
LINE
8
0
6
CONTINUOUS
10
48.8
20
4.6
30
0
11
53.84
21
4.6
31
0
0
ARC
8
0
6
CONTINUOUS
10
53.83624447545798
20
4.100014104163513
30
0
40
0.5
50
335.16363158822395
51
89.5696445412252
0
LINE
8
0
6
CONTINUOUS
10
54.29
20
3.89
30
0
11
48.86
21
-8.2
31
0
0
LINE
8
0
6
CONTINUOUS
10
48.86
20
-8.2
30
0
11
45.7
21
-8.2
31
0
0
ARC
8
0
6
CONTINUOUS
10
45.7
20
-7.199999999999999
30
0
40
1.0
50
180.00000000000006
51
270.0
0
LINE
8
0
6
CONTINUOUS
10
44.7
20
-7.2
30
0
11
44.7
21
-5.4
31
0
0
LINE
8
0
6
CONTINUOUS
10
44.7
20
-5.4
30
0
11
42.7
21
-5.4
31
0
0
LINE
8
0
6
CONTINUOUS
10
42.7
20
-5.4
30
0
11
42.7
21
-7.2
31
0
0
LINE
8
0
6
CONTINUOUS
10
42.7
20
-7.2
30
0
11
40.7
21
-7.2
31
0
0
LINE
8
0
6
CONTINUOUS
10
40.7
20
-7.2
30
0
11
40.7
21
-8.2
31
0
0
LINE
8
0
6
CONTINUOUS
10
40.7
20
-8.2
30
0
11
18.3
21
-8.2
31
0
0
LINE
8
0
6
CONTINUOUS
10
18.3
20
-8.2
30
0
11
18.3
21
10.7
31
0
0
LINE
8
0
6
CONTINUOUS
10
16.5
20
65.2
30
0
11
16.5
21
46.1
31
0
0
LINE
8
0
6
CONTINUOUS
10
16.5
20
46.1
30
0
11
13.5
21
46.1
31
0
0
LINE
8
0
6
CONTINUOUS
10
13.5
20
46.1
30
0
11
13.5
21
47.79
31
0
0
LINE
8
0
6
CONTINUOUS
10
13.5
20
47.79
30
0
11
12.0
21
47.79
31
0
0
LINE
8
0
6
CONTINUOUS
10
12.0
20
47.79
30
0
11
12.0
21
44.5
31
0
0
LINE
8
0
6
CONTINUOUS
10
12.0
20
44.5
30
0
11
16.66
21
44.5
31
0
0
LINE
8
0
6
CONTINUOUS
10
16.66
20
44.5
30
0
11
17.07
21
43.0
31
0
0
LINE
8
0
6
CONTINUOUS
10
17.07
20
43.0
30
0
11
16.9
21
41.24
31
0
0
LINE
8
0
6
CONTINUOUS
10
16.9
20
41.24
30
0
11
19.66
21
41.85
31
0
0
LINE
8
0
6
CONTINUOUS
10
19.66
20
41.85
30
0
11
18.07
21
44.19
31
0
0
ARC
8
0
6
CONTINUOUS
10
18.356240253116304
20
44.27981379346132
30
0
40
0.3
50
47.21890605657066
51
197.42032695979017
0
LINE
8
0
6
CONTINUOUS
10
18.56
20
44.5
30
0
11
23.33
21
44.5
31
0
0
LINE
8
0
6
CONTINUOUS
10
23.33
20
44.5
30
0
11
21.96
21
42.0
31
0
0
LINE
8
0
6
CONTINUOUS
10
21.96
20
42.0
30
0
11
23.88
21
42.0
31
0
0
LINE
8
0
6
CONTINUOUS
10
23.88
20
42.0
30
0
11
25.08
21
43.2
31
0
0
LINE
8
0
6
CONTINUOUS
10
25.08
20
43.2
30
0
11
34.52
21
43.2
31
0
0
LINE
8
0
6
CONTINUOUS
10
34.52
20
43.2
30
0
11
35.72
21
42.0
31
0
0
LINE
8
0
6
CONTINUOUS
10
35.72
20
42.0
30
0
11
37.43
21
42.0
31
0
0
LINE
8
0
6
CONTINUOUS
10
37.43
20
42.0
30
0
11
36.44
21
44.5
31
0
0
LINE
8
0
6
CONTINUOUS
10
36.44
20
44.5
30
0
11
41.04
21
44.5
31
0
0
LINE
8
0
6
CONTINUOUS
10
41.04
20
44.5
30
0
11
40.02
21
41.83
31
0
0
LINE
8
0
6
CONTINUOUS
10
40.02
20
41.83
30
0
11
42.7
21
41.24
31
0
0
LINE
8
0
6
CONTINUOUS
10
42.7
20
41.24
30
0
11
42.53
21
43.0
31
0
0
LINE
8
0
6
CONTINUOUS
10
42.53
20
43.0
30
0
11
43.08
21
45.0
31
0
0
LINE
8
0
6
CONTINUOUS
10
43.08
20
45.0
30
0
11
49.0
21
45.0
31
0
0
LINE
8
0
6
CONTINUOUS
10
49.0
20
45.0
30
0
11
49.0
21
47.99
31
0
0
LINE
8
0
6
CONTINUOUS
10
49.0
20
47.99
30
0
11
47.5
21
47.99
31
0
0
LINE
8
0
6
CONTINUOUS
10
47.5
20
47.99
30
0
11
47.5
21
46.6
31
0
0
LINE
8
0
6
CONTINUOUS
10
47.5
20
46.6
30
0
11
44.5
21
46.6
31
0
0
LINE
8
0
6
CONTINUOUS
10
44.5
20
46.6
30
0
11
44.5
21
65.2
31
0
0
LINE
8
0
6
CONTINUOUS
10
44.5
20
65.2
30
0
11
47.5
21
65.2
31
0
0
LINE
8
0
6
CONTINUOUS
10
47.5
20
65.2
30
0
11
47.5
21
63.71
31
0
0
LINE
8
0
6
CONTINUOUS
10
47.5
20
63.71
30
0
11
49.0
21
63.71
31
0
0
LINE
8
0
6
CONTINUOUS
10
49.0
20
63.71
30
0
11
49.0
21
66.46
31
0
0
ARC
8
0
6
CONTINUOUS
10
48.50160277440378
20
66.50000256889238
30
0
40
0.5
50
355.41113894422847
51
90.1836647322396
0
LINE
8
0
6
CONTINUOUS
10
48.5
20
67.0
30
0
11
8.5
21
67.0
31
0
0
LINE
8
0
6
CONTINUOUS
10
8.5
20
67.0
30
0
11
8.5
21
65.2
31
0
0
LINE
8
0
6
CONTINUOUS
10
8.5
20
65.2
30
0
11
12.0
21
65.2
31
0
0
LINE
8
0
6
CONTINUOUS
10
12.0
20
65.2
30
0
11
12.0
21
63.21
31
0
0
LINE
8
0
6
CONTINUOUS
10
12.0
20
63.21
30
0
11
13.5
21
63.21
31
0
0
LINE
8
0
6
CONTINUOUS
10
13.5
20
63.21
30
0
11
13.5
21
65.2
31
0
0
LINE
8
0
6
CONTINUOUS
10
13.5
20
65.2
30
0
11
16.5
21
65.2
31
0
0
LINE
8
0
6
CONTINUOUS
10
18.3
20
46.3
30
0
11
18.3
21
65.2
31
0
0
LINE
8
0
6
CONTINUOUS
10
18.3
20
65.2
30
0
11
42.7
21
65.2
31
0
0
LINE
8
0
6
CONTINUOUS
10
42.7
20
65.2
30
0
11
42.7
21
46.3
31
0
0
LINE
8
0
6
CONTINUOUS
10
42.7
20
46.3
30
0
11
36.6
21
46.3
31
0
0
ARC
8
0
6
CONTINUOUS
10
36.599161703024336
20
44.50000019520607
30
0
40
1.8
50
89.97331617754418
51
163.87238625499322
0
LINE
8
0
6
CONTINUOUS
10
34.87
20
45.0
30
0
11
24.73
21
45.0
31
0
0
ARC
8
0
6
CONTINUOUS
10
23.000838296975665
20
44.50000019520607
30
0
40
1.8
50
16.127613745006826
51
90.02668382245584
0
LINE
8
0
6
CONTINUOUS
10
23.0
20
46.3
30
0
11
18.3
21
46.3
31
0
0
LINE
8
0
6
CONTINUOUS
10
49.0
20
61.5
30
0
11
50.0
21
61.5
31
0
0
ARC
8
0
6
CONTINUOUS
10
50.0
20
62.5
30
0
40
1.0
50
270.0
51
0.0
0
LINE
8
0
6
CONTINUOUS
10
51.0
20
62.5
30
0
11
51.0
21
64.7
31
0
0
ARC
8
0
6
CONTINUOUS
10
52.0
20
64.7
30
0
40
1.0
50
90.0
51
180.0
0
LINE
8
0
6
CONTINUOUS
10
52.0
20
65.7
30
0
11
60.7
21
65.7
31
0
0
ARC
8
0
6
CONTINUOUS
10
60.7
20
64.7
30
0
40
1.0
50
0.0
51
90.0
0
LINE
8
0
6
CONTINUOUS
10
61.7
20
64.7
30
0
11
61.7
21
50.11
31
0
0
LINE
8
0
6
CONTINUOUS
10
61.7
20
50.11
30
0
11
57.57
21
49.0
31
0
0
LINE
8
0
6
CONTINUOUS
10
57.57
20
49.0
30
0
11
54.71
21
49.0
31
0
0
LINE
8
0
6
CONTINUOUS
10
54.71
20
49.0
30
0
11
51.57
21
52.15
31
0
0
ARC
8
0
6
CONTINUOUS
10
48.30059947914485
20
50.900592046514795
30
0
40
3.5
50
20.914456537512695
51
78.47305675936154
0
LINE
8
0
6
CONTINUOUS
10
49.0
20
54.33
30
0
11
49.0
21
61.5
31
0
0
ARC
8
0
6
CONTINUOUS
10
48.30063030994259
20
50.90192180616822
30
0
40
3.5
50
99.88136312869418
51
166.31441132199188
0
LINE
8
0
6
CONTINUOUS
10
44.9
20
51.73
30
0
11
44.9
21
49.89
31
0
0
ARC
8
0
6
CONTINUOUS
10
47.40170658699133
20
50.59814133660182
30
0
40
2.6
50
195.8048712102961
51
272.1665923481853
0
LINE
8
0
6
CONTINUOUS
10
47.5
20
48.0
30
0
11
47.5
21
48.9
31
0
0
ARC
8
0
6
CONTINUOUS
10
48.40599156129919
20
50.86145122732886
30
0
40
2.160581316760658
50
76.23720252903931
51
245.20785130363583
0
LINE
8
0
6
CONTINUOUS
10
48.92
20
52.96
30
0
11
54.18
21
47.7
31
0
0
LINE
8
0
6
CONTINUOUS
10
54.18
20
47.7
30
0
11
57.74
21
47.7
31
0
0
LINE
8
0
6
CONTINUOUS
10
57.74
20
47.7
30
0
11
61.1
21
48.6
31
0
0
LINE
8
0
6
CONTINUOUS
10
61.1
20
48.6
30
0
11
61.1
21
47.2
31
0
0
LINE
8
0
6
CONTINUOUS
10
61.1
20
47.2
30
0
11
63.0
21
47.2
31
0
0
LINE
8
0
6
CONTINUOUS
10
63.0
20
47.2
30
0
11
63.0
21
66.5
31
0
0
ARC
8
0
6
CONTINUOUS
10
62.5
20
66.5
30
0
40
0.5
50
0.0
51
90.0
0
LINE
8
0
6
CONTINUOUS
10
62.5
20
67.0
30
0
11
49.5
21
67.0
31
0
0
LINE
8
0
6
CONTINUOUS
10
49.5
20
67.0
30
0
11
49.5
21
63.0
31
0
0
LINE
8
0
6
CONTINUOUS
10
49.5
20
63.0
30
0
11
47.0
21
63.0
31
0
0
LINE
8
0
6
CONTINUOUS
10
47.0
20
63.0
30
0
11
47.0
21
63.79
31
0
0
LINE
8
0
6
CONTINUOUS
10
47.0
20
63.79
30
0
11
45.8
21
63.79
31
0
0
LINE
8
0
6
CONTINUOUS
10
45.8
20
63.79
30
0
11
45.8
21
62.4
31
0
0
ARC
8
0
6
CONTINUOUS
10
46.699999999999996
20
62.400000000000006
30
0
40
0.9
50
180.00000000000045
51
270.00000000000045
0
ARC
8
0
6
CONTINUOUS
10
46.800017265566
20
60.60557473951777
30
0
40
0.9
50
359.6450987902456
51
96.38047621812133
0
LINE
8
0
6
CONTINUOUS
10
47.7
20
60.6
30
0
11
47.7
21
54.35
31
0
0
LINE
8
0
6
CONTINUOUS
10
27.6
20
35.0
30
0
11
27.6
21
22.0
31
0
0
LINE
8
0
6
CONTINUOUS
10
27.6
20
22.0
30
0
11
23.6
21
22.0
31
0
0
LINE
8
0
6
CONTINUOUS
10
23.6
20
22.0
30
0
11
23.6
21
23.5
31
0
0
LINE
8
0
6
CONTINUOUS
10
23.6
20
23.5
30
0
11
22.1
21
23.5
31
0
0
LINE
8
0
6
CONTINUOUS
10
22.1
20
23.5
30
0
11
22.1
21
20.7
31
0
0
LINE
8
0
6
CONTINUOUS
10
22.1
20
20.7
30
0
11
24.6
21
20.7
31
0
0
LINE
8
0
6
CONTINUOUS
10
24.6
20
20.7
30
0
11
24.6
21
19.4
31
0
0
LINE
8
0
6
CONTINUOUS
10
24.6
20
19.4
30
0
11
23.3
21
18.1
31
0
0
LINE
8
0
6
CONTINUOUS
10
23.3
20
18.1
30
0
11
19.1
21
18.1
31
0
0
LINE
8
0
6
CONTINUOUS
10
19.1
20
18.1
30
0
11
19.1
21
20.5
31
0
0
LINE
8
0
6
CONTINUOUS
10
19.1
20
20.5
30
0
11
17.6
21
20.5
31
0
0
LINE
8
0
6
CONTINUOUS
10
17.6
20
20.5
30
0
11
17.6
21
16.1
31
0
0
LINE
8
0
6
CONTINUOUS
10
17.6
20
16.1
30
0
11
19.15
21
16.1
31
0
0
LINE
8
0
6
CONTINUOUS
10
19.15
20
16.1
30
0
11
19.65
21
15.15
31
0
0
LINE
8
0
6
CONTINUOUS
10
19.65
20
15.15
30
0
11
17.84
21
12.5
31
0
0
LINE
8
0
6
CONTINUOUS
10
17.84
20
12.5
30
0
11
23.29
21
12.5
31
0
0
LINE
8
0
6
CONTINUOUS
10
23.29
20
12.5
30
0
11
21.76
21
15.39
31
0
0
LINE
8
0
6
CONTINUOUS
10
21.76
20
15.39
30
0
11
24.81
21
16.5
31
0
0
LINE
8
0
6
CONTINUOUS
10
24.81
20
16.5
30
0
11
27.75
21
19.44
31
0
0
ARC
8
0
6
CONTINUOUS
10
28.81358100107544
20
18.382268723091087
30
0
40
1.5
50
103.63410744627765
51
135.15799826360865
0
ARC
8
0
6
CONTINUOUS
10
28.100012658697075
20
21.29616246143816
30
0
40
1.5
50
283.88604227899134
51
359.7646106499599
0
LINE
8
0
6
CONTINUOUS
10
29.6
20
21.29
30
0
11
29.6
21
35.71
31
0
0
ARC
8
0
6
CONTINUOUS
10
28.100004913808462
20
35.7138394532477
30
0
40
1.5
50
359.85334352870336
51
76.11365298185098
0
ARC
8
0
6
CONTINUOUS
10
28.800341965911784
20
38.63087896358299
30
0
40
1.5
50
225.5547024879117
51
256.8856849032936
0
LINE
8
0
6
CONTINUOUS
10
27.75
20
37.56
30
0
11
24.81
21
40.5
31
0
0
LINE
8
0
6
CONTINUOUS
10
24.81
20
40.5
30
0
11
21.74
21
41.62
31
0
0
LINE
8
0
6
CONTINUOUS
10
21.74
20
41.62
30
0
11
23.33
21
44.5
31
0
0
LINE
8
0
6
CONTINUOUS
10
23.33
20
44.5
30
0
11
17.86
21
44.5
31
0
0
LINE
8
0
6
CONTINUOUS
10
17.86
20
44.5
30
0
11
19.66
21
41.85
31
0
0
LINE
8
0
6
CONTINUOUS
10
19.66
20
41.85
30
0
11
19.14
21
40.9
31
0
0
LINE
8
0
6
CONTINUOUS
10
19.14
20
40.9
30
0
11
17.6
21
40.9
31
0
0
LINE
8
0
6
CONTINUOUS
10
17.6
20
40.9
30
0
11
17.6
21
36.5
31
0
0
LINE
8
0
6
CONTINUOUS
10
17.6
20
36.5
30
0
11
19.1
21
36.5
31
0
0
LINE
8
0
6
CONTINUOUS
10
19.1
20
36.5
30
0
11
19.1
21
38.9
31
0
0
LINE
8
0
6
CONTINUOUS
10
19.1
20
38.9
30
0
11
23.3
21
38.9
31
0
0
LINE
8
0
6
CONTINUOUS
10
23.3
20
38.9
30
0
11
24.6
21
37.6
31
0
0
LINE
8
0
6
CONTINUOUS
10
24.6
20
37.6
30
0
11
24.6
21
36.3
31
0
0
LINE
8
0
6
CONTINUOUS
10
24.6
20
36.3
30
0
11
22.1
21
36.3
31
0
0
LINE
8
0
6
CONTINUOUS
10
22.1
20
36.3
30
0
11
22.1
21
33.5
31
0
0
LINE
8
0
6
CONTINUOUS
10
22.1
20
33.5
30
0
11
23.6
21
33.5
31
0
0
LINE
8
0
6
CONTINUOUS
10
23.6
20
33.5
30
0
11
23.6
21
35.0
31
0
0
LINE
8
0
6
CONTINUOUS
10
23.6
20
35.0
30
0
11
27.6
21
35.0
31
0
0
LINE
8
0
6
CONTINUOUS
10
40.98
20
38.18
30
0
11
40.98
21
18.82
31
0
0
ARC
8
0
6
CONTINUOUS
10
39.730015786296185
20
18.81371784342129
30
0
40
1.25
50
290.119993384708
51
0.2879540587554963
0
LINE
8
0
6
CONTINUOUS
10
40.16
20
17.64
30
0
11
39.31
21
17.35
31
0
0
ARC
8
0
6
CONTINUOUS
10
40.12993314927023
20
14.988282482868073
30
0
40
2.5
50
109.14580668587031
51
180.41900737774415
0
LINE
8
0
6
CONTINUOUS
10
37.63
20
14.97
30
0
11
36.27
21
12.5
31
0
0
LINE
8
0
6
CONTINUOUS
10
36.27
20
12.5
30
0
11
41.26
21
12.5
31
0
0
LINE
8
0
6
CONTINUOUS
10
41.26
20
12.5
30
0
11
40.01
21
15.17
31
0
0
LINE
8
0
6
CONTINUOUS
10
40.01
20
15.17
30
0
11
41.01
21
15.83
31
0
0
ARC
8
0
6
CONTINUOUS
10
39.980009739535575
20
18.647644417478617
30
0
40
3.0
50
290.07989134588206
51
359.85400222255186
0
LINE
8
0
6
CONTINUOUS
10
42.98
20
18.64
30
0
11
42.98
21
38.36
31
0
0
ARC
8
0
6
CONTINUOUS
10
39.980009739535575
20
38.35235558252138
30
0
40
3.0
50
0.14599777744811998
51
69.92010865411798
0
LINE
8
0
6
CONTINUOUS
10
41.01
20
41.17
30
0
11
40.02
21
41.83
31
0
0
LINE
8
0
6
CONTINUOUS
10
40.02
20
41.83
30
0
11
41.04
21
44.5
31
0
0
LINE
8
0
6
CONTINUOUS
10
41.04
20
44.5
30
0
11
36.44
21
44.5
31
0
0
LINE
8
0
6
CONTINUOUS
10
36.44
20
44.5
30
0
11
37.81
21
41.09
31
0
0
ARC
8
0
6
CONTINUOUS
10
40.13613116465213
20
42.00603155231365
30
0
40
2.5
50
201.49454369384463
51
250.4607538762147
0
LINE
8
0
6
CONTINUOUS
10
39.3
20
39.65
30
0
11
40.16
21
39.35
31
0
0
ARC
8
0
6
CONTINUOUS
10
39.73000551777291
20
38.176285918439135
30
0
40
1.25
50
0.17024120905797693
51
69.8795053500248
0
LINE
8
0
6
CONTINUOUS
10
57.33
20
12.27
30
0
11
56.21
21
12.39
31
0
0
LINE
8
0
6
CONTINUOUS
10
56.21
20
12.39
30
0
11
56.21
21
14.35
31
0
0
LINE
8
0
6
CONTINUOUS
10
56.21
20
14.35
30
0
11
54.69
21
14.6
31
0
0
LINE
8
0
6
CONTINUOUS
10
54.69
20
14.6
30
0
11
56.84
21
14.49
31
0
0
LINE
8
0
6
CONTINUOUS
10
56.84
20
14.49
30
0
11
58.99
21
14.38
31
0
0
ARC
8
0
6
CONTINUOUS
10
58.96921120282089
20
13.780360253225451
30
0
40
0.6
50
295.7628973899547
51
88.01441868930078
0
LINE
8
0
6
CONTINUOUS
10
59.23
20
13.24
30
0
11
57.33
21
12.27
31
0
0
LINE
8
0
6
CONTINUOUS
10
59.3
20
11.44
30
0
11
59.73
21
9.95
31
0
0
LINE
8
0
6
CONTINUOUS
10
59.73
20
9.95
30
0
11
58.08
21
9.79
31
0
0
LINE
8
0
6
CONTINUOUS
10
58.08
20
9.79
30
0
11
56.37
21
9.91
31
0
0
LINE
8
0
6
CONTINUOUS
10
56.37
20
9.91
30
0
11
56.24
21
11.44
31
0
0
LINE
8
0
6
CONTINUOUS
10
56.24
20
11.44
30
0
11
59.3
21
11.44
31
0
0
LINE
8
0
6
CONTINUOUS
10
60.32
20
12.86
30
0
11
61.09
21
13.42
31
0
0
LINE
8
0
6
CONTINUOUS
10
61.09
20
13.42
30
0
11
61.93
21
13.42
31
0
0
LINE
8
0
6
CONTINUOUS
10
61.93
20
13.42
30
0
11
61.93
21
12.55
31
0
0
ARC
8
0
6
CONTINUOUS
10
61.33
20
12.549999999999999
30
0
40
0.6
50
270.0
51
1.6962958301138717e-13
0
LINE
8
0
6
CONTINUOUS
10
61.33
20
11.95
30
0
11
60.41
21
11.95
31
0
0
LINE
8
0
6
CONTINUOUS
10
60.41
20
11.95
30
0
11
60.32
21
12.86
31
0
0
LINE
8
0
6
CONTINUOUS
10
53.39
20
12.45
30
0
11
53.39
21
11.02
31
0
0
LINE
8
0
6
CONTINUOUS
10
53.39
20
11.02
30
0
11
55.5
21
10.9
31
0
0
LINE
8
0
6
CONTINUOUS
10
55.5
20
10.9
30
0
11
55.5
21
9.9
31
0
0
LINE
8
0
6
CONTINUOUS
10
55.5
20
9.9
30
0
11
54.22
21
9.9
31
0
0
LINE
8
0
6
CONTINUOUS
10
54.22
20
9.9
30
0
11
56.4
21
9.25
31
0
0
LINE
8
0
6
CONTINUOUS
10
56.4
20
9.25
30
0
11
57.25
21
9.16
31
0
0
ARC
8
0
6
CONTINUOUS
10
58.343736795486286
20
15.689022884184078
30
0
40
6.62
50
260.49015709034677
51
269.0155651064204
0
LINE
8
0
6
CONTINUOUS
10
58.23
20
9.07
30
0
11
59.28
21
9.16
31
0
0
LINE
8
0
6
CONTINUOUS
10
59.28
20
9.16
30
0
11
60.89
21
9.76
31
0
0
LINE
8
0
6
CONTINUOUS
10
60.89
20
9.76
30
0
11
60.6
21
11.0
31
0
0
LINE
8
0
6
CONTINUOUS
10
60.6
20
11.0
30
0
11
63.0
21
11.0
31
0
0
LINE
8
0
6
CONTINUOUS
10
63.0
20
11.0
30
0
11
63.0
21
15.0
31
0
0
LINE
8
0
6
CONTINUOUS
10
63.0
20
15.0
30
0
11
54.48
21
15.0
31
0
0
LINE
8
0
6
CONTINUOUS
10
54.48
20
15.0
30
0
11
53.56
21
14.66
31
0
0
LINE
8
0
6
CONTINUOUS
10
53.56
20
14.66
30
0
11
54.14
21
14.08
31
0
0
LINE
8
0
6
CONTINUOUS
10
54.14
20
14.08
30
0
11
55.58
21
13.76
31
0
0
LINE
8
0
6
CONTINUOUS
10
55.58
20
13.76
30
0
11
53.39
21
12.45
31
0
0
LINE
8
0
6
CONTINUOUS
10
57.3
20
46.73
30
0
11
53.62
21
42.82
31
0
0
ARC
8
0
6
CONTINUOUS
10
54.15351952966527
20
42.59249854623377
30
0
40
0.58
50
156.90580723097415
51
287.71465212272483
0
LINE
8
0
6
CONTINUOUS
10
54.34
20
42.0
30
0
11
56.67
21
42.0
31
0
0
ARC
8
0
6
CONTINUOUS
10
56.79622753011102
20
42.31814620783148
30
0
40
0.32
50
248.70247207068064
51
109.38784542157516
0
LINE
8
0
6
CONTINUOUS
10
56.68
20
42.64
30
0
11
55.39
21
42.67
31
0
0
ARC
8
0
6
CONTINUOUS
10
48.11638587744838
20
72.75316867612548
30
0
40
30.95
50
283.59231627319764
51
289.8387173683043
0
ARC
8
0
6
CONTINUOUS
10
58.97394900112625
20
43.21902481711896
30
0
40
0.55
50
42.415360167033214
51
130.05657010315608
0
LINE
8
0
6
CONTINUOUS
10
59.38
20
43.59
30
0
11
62.37
21
42.16
31
0
0
ARC
8
0
6
CONTINUOUS
10
63.27862631126097
20
44.65999964529683
30
0
40
2.66
50
250.02629568901887
51
270.0295889363193
0
LINE
8
0
6
CONTINUOUS
10
63.28
20
42.0
30
0
11
67.02
21
42.0
31
0
0
ARC
8
0
6
CONTINUOUS
10
67.02933138472847
20
42.57992361352996
30
0
40
0.57
50
269.06197746272926
51
30.590982477982116
0
ARC
8
0
6
CONTINUOUS
10
71.83119174949078
20
48.28294981494587
30
0
40
6.92
50
210.02820605952914
51
231.46412106823206
0
LINE
8
0
6
CONTINUOUS
10
65.84
20
44.82
30
0
11
64.92
21
47.62
31
0
0
ARC
8
0
6
CONTINUOUS
10
64.10608567291722
20
47.213006795917465
30
0
40
0.91
50
26.567080810177764
51
85.34104447661927
0
LINE
8
0
6
CONTINUOUS
10
64.18
20
48.13
30
0
11
63.24
21
48.28
31
0
0
LINE
8
0
6
CONTINUOUS
10
63.24
20
48.28
30
0
11
62.8
21
47.0
31
0
0
LINE
8
0
6
CONTINUOUS
10
62.8
20
47.0
30
0
11
58.46
21
47.11
31
0
0
LINE
8
0
6
CONTINUOUS
10
58.46
20
47.11
30
0
11
57.3
21
46.73
31
0
0
LINE
8
0
6
CONTINUOUS
10
62.83
20
42.5
30
0
11
59.62
21
44.28
31
0
0
LINE
8
0
6
CONTINUOUS
10
59.62
20
44.28
30
0
11
59.62
21
45.21
31
0
0
LINE
8
0
6
CONTINUOUS
10
59.62
20
45.21
30
0
11
62.42
21
45.21
31
0
0
LINE
8
0
6
CONTINUOUS
10
62.42
20
45.21
30
0
11
65.94
21
42.5
31
0
0
LINE
8
0
6
CONTINUOUS
10
65.94
20
42.5
30
0
11
62.83
21
42.5
31
0
0
LINE
8
0
6
CONTINUOUS
10
6.43
20
10.67
30
0
11
-8.0
21
10.67
31
0
0
LINE
8
0
6
CONTINUOUS
10
-8.0
20
10.67
30
0
11
-8.0
21
8.38
31
0
0
LINE
8
0
6
CONTINUOUS
10
-8.0
20
8.38
30
0
11
-9.47
21
8.38
31
0
0
LINE
8
0
6
CONTINUOUS
10
-9.47
20
8.38
30
0
11
-9.92
21
9.16
31
0
0
LINE
8
0
6
CONTINUOUS
10
-9.92
20
9.16
30
0
11
-11.4
21
9.16
31
0
0
LINE
8
0
6
CONTINUOUS
10
-11.4
20
9.16
30
0
11
-11.99
21
8.14
31
0
0
LINE
8
0
6
CONTINUOUS
10
-11.99
20
8.14
30
0
11
-12.01
21
-5.17
31
0
0
LINE
8
0
6
CONTINUOUS
10
-12.01
20
-5.17
30
0
11
-11.39
21
-6.25
31
0
0
LINE
8
0
6
CONTINUOUS
10
-11.39
20
-6.25
30
0
11
-9.99
21
-6.25
31
0
0
LINE
8
0
6
CONTINUOUS
10
-9.99
20
-6.25
30
0
11
-9.56
21
-5.5
31
0
0
LINE
8
0
6
CONTINUOUS
10
-9.56
20
-5.5
30
0
11
-8.0
21
-5.5
31
0
0
LINE
8
0
6
CONTINUOUS
10
-8.0
20
-5.5
30
0
11
-8.0
21
-7.85
31
0
0
LINE
8
0
6
CONTINUOUS
10
-8.0
20
-7.85
30
0
11
-3.66
21
-7.85
31
0
0
LINE
8
0
6
CONTINUOUS
10
-3.66
20
-7.85
30
0
11
-2.43
21
-6.23
31
0
0
LINE
8
0
6
CONTINUOUS
10
-2.43
20
-6.23
30
0
11
0.82
21
-3.17
31
0
0
LINE
8
0
6
CONTINUOUS
10
0.82
20
-3.17
30
0
11
-0.57
21
-2.38
31
0
0
LINE
8
0
6
CONTINUOUS
10
-0.57
20
-2.38
30
0
11
-1.72
21
-2.38
31
0
0
LINE
8
0
6
CONTINUOUS
10
-1.72
20
-2.38
30
0
11
-0.29
21
6.76
31
0
0
LINE
8
0
6
CONTINUOUS
10
-0.29
20
6.76
30
0
11
2.48
21
9.11
31
0
0
LINE
8
0
6
CONTINUOUS
10
2.48
20
9.11
30
0
11
4.12
21
9.64
31
0
0
ARC
8
0
6
CONTINUOUS
10
4.2093660937409165
20
9.35361965624455
30
0
40
0.3
50
314.59677875744
51
107.33073430670704
0
LINE
8
0
6
CONTINUOUS
10
4.42
20
9.14
30
0
11
1.68
21
6.56
31
0
0
ARC
8
0
6
CONTINUOUS
10
2.0414168902765417
20
6.006695823522234
30
0
40
0.6608840142452415
50
123.15246802263688
51
323.1121742984948
0
LINE
8
0
6
CONTINUOUS
10
2.57
20
5.61
30
0
11
6.43
21
9.25
31
0
0
LINE
8
0
6
CONTINUOUS
10
6.43
20
9.25
30
0
11
6.43
21
10.67
31
0
0
LINE
8
0
6
CONTINUOUS
10
-4.22
20
9.16
30
0
11
0.52
21
9.16
31
0
0
LINE
8
0
6
CONTINUOUS
10
0.52
20
9.16
30
0
11
-1.5
21
7.44
31
0
0
LINE
8
0
6
CONTINUOUS
10
-1.5
20
7.44
30
0
11
-3.05
21
-2.43
31
0
0
LINE
8
0
6
CONTINUOUS
10
-3.05
20
-2.43
30
0
11
-1.28
21
-3.76
31
0
0
LINE
8
0
6
CONTINUOUS
10
-1.28
20
-3.76
30
0
11
-2.2
21
-4.29
31
0
0
ARC
8
0
6
CONTINUOUS
10
3.3800558657313795
20
-11.729958100373743
30
0
40
9.3
50
126.87032787160214
51
144.8065020772021
0
LINE
8
0
6
CONTINUOUS
10
-4.22
20
-6.37
30
0
11
-4.22
21
9.16
31
0
0
LINE
8
0
6
CONTINUOUS
10
-5.52
20
9.16
30
0
11
-5.52
21
-6.33
31
0
0
LINE
8
0
6
CONTINUOUS
10
-5.52
20
-6.33
30
0
11
-7.03
21
-6.33
31
0
0
LINE
8
0
6
CONTINUOUS
10
-7.03
20
-6.33
30
0
11
-7.03
21
9.16
31
0
0
LINE
8
0
6
CONTINUOUS
10
-7.03
20
9.16
30
0
11
-5.52
21
9.16
31
0
0
LINE
8
0
6
CONTINUOUS
10
-8.33
20
7.08
30
0
11
-8.33
21
2.16
31
0
0
LINE
8
0
6
CONTINUOUS
10
-8.33
20
2.16
30
0
11
-10.7
21
2.16
31
0
0
LINE
8
0
6
CONTINUOUS
10
-10.7
20
2.16
30
0
11
-10.7
21
7.08
31
0
0
LINE
8
0
6
CONTINUOUS
10
-10.7
20
7.08
30
0
11
-8.33
21
7.08
31
0
0
LINE
8
0
6
CONTINUOUS
10
-8.33
20
0.86
30
0
11
-8.33
21
-4.14
31
0
0
LINE
8
0
6
CONTINUOUS
10
-8.33
20
-4.14
30
0
11
-10.7
21
-4.14
31
0
0
LINE
8
0
6
CONTINUOUS
10
-10.7
20
-4.14
30
0
11
-10.7
21
0.86
31
0
0
LINE
8
0
6
CONTINUOUS
10
-10.7
20
0.86
30
0
11
-8.33
21
0.86
31
0
0
LINE
8
0
6
CONTINUOUS
10
12.0
20
10.85
30
0
11
8.08
21
10.85
31
0
0
LINE
8
0
6
CONTINUOUS
10
8.08
20
10.85
30
0
11
3.43
21
6.2
31
0
0
LINE
8
0
6
CONTINUOUS
10
3.43
20
6.2
30
0
11
4.49
21
5.4
31
0
0
LINE
8
0
6
CONTINUOUS
10
4.49
20
5.4
30
0
11
5.72
21
5.4
31
0
0
LINE
8
0
6
CONTINUOUS
10
5.72
20
5.4
30
0
11
4.29
21
-3.74
31
0
0
LINE
8
0
6
CONTINUOUS
10
4.29
20
-3.74
30
0
11
1.52
21
-6.1
31
0
0
LINE
8
0
6
CONTINUOUS
10
1.52
20
-6.1
30
0
11
-0.12
21
-6.62
31
0
0
ARC
8
0
6
CONTINUOUS
10
-0.20936609374091666
20
-6.33361965624455
30
0
40
0.3
50
134.59677875743998
51
287.3307343067071
0
LINE
8
0
6
CONTINUOUS
10
-0.42
20
-6.12
30
0
11
2.33
21
-3.54
31
0
0
ARC
8
0
6
CONTINUOUS
10
1.8014168902765415
20
-3.1433041764777663
30
0
40
0.6608840142452418
50
323.11217429849484
51
123.15246802263684
0
LINE
8
0
6
CONTINUOUS
10
1.44
20
-2.59
30
0
11
-2.43
21
-6.23
31
0
0
LINE
8
0
6
CONTINUOUS
10
-2.43
20
-6.23
30
0
11
-2.43
21
-7.65
31
0
0
LINE
8
0
6
CONTINUOUS
10
-2.43
20
-7.65
30
0
11
12.0
21
-7.65
31
0
0
LINE
8
0
6
CONTINUOUS
10
12.0
20
-7.65
30
0
11
12.0
21
-5.36
31
0
0
LINE
8
0
6
CONTINUOUS
10
12.0
20
-5.36
30
0
11
13.47
21
-5.36
31
0
0
LINE
8
0
6
CONTINUOUS
10
13.47
20
-5.36
30
0
11
13.92
21
-6.14
31
0
0
LINE
8
0
6
CONTINUOUS
10
13.92
20
-6.14
30
0
11
15.4
21
-6.14
31
0
0
LINE
8
0
6
CONTINUOUS
10
15.4
20
-6.14
30
0
11
16.0
21
-5.12
31
0
0
LINE
8
0
6
CONTINUOUS
10
16.0
20
-5.12
30
0
11
16.0
21
8.28
31
0
0
LINE
8
0
6
CONTINUOUS
10
16.0
20
8.28
30
0
11
15.39
21
9.35
31
0
0
LINE
8
0
6
CONTINUOUS
10
15.39
20
9.35
30
0
11
14.04
21
9.35
31
0
0
LINE
8
0
6
CONTINUOUS
10
14.04
20
9.35
30
0
11
13.59
21
8.56
31
0
0
LINE
8
0
6
CONTINUOUS
10
13.59
20
8.56
30
0
11
12.0
21
8.56
31
0
0
LINE
8
0
6
CONTINUOUS
10
12.0
20
8.56
30
0
11
12.0
21
10.85
31
0
0
LINE
8
0
6
CONTINUOUS
10
5.5
20
-4.42
30
0
11
7.05
21
5.44
31
0
0
LINE
8
0
6
CONTINUOUS
10
7.05
20
5.44
30
0
11
5.34
21
6.74
31
0
0
ARC
8
0
6
CONTINUOUS
10
0.6238361285732417
20
14.755472433852479
30
0
40
9.3
50
300.4718114586609
51
324.7649196275197
0
LINE
8
0
6
CONTINUOUS
10
8.22
20
9.39
30
0
11
8.22
21
-6.14
31
0
0
LINE
8
0
6
CONTINUOUS
10
8.22
20
-6.14
30
0
11
4.46
21
-6.14
31
0
0
LINE
8
0
6
CONTINUOUS
10
4.46
20
-6.14
30
0
11
2.88
21
-6.65
31
0
0
LINE
8
0
6
CONTINUOUS
10
2.88
20
-6.65
30
0
11
5.5
21
-4.42
31
0
0
LINE
8
0
6
CONTINUOUS
10
9.52
20
9.35
30
0
11
11.03
21
9.35
31
0
0
LINE
8
0
6
CONTINUOUS
10
11.03
20
9.35
30
0
11
11.03
21
-6.14
31
0
0
LINE
8
0
6
CONTINUOUS
10
11.03
20
-6.14
30
0
11
9.52
21
-6.14
31
0
0
LINE
8
0
6
CONTINUOUS
10
9.52
20
-6.14
30
0
11
9.52
21
9.35
31
0
0
LINE
8
0
6
CONTINUOUS
10
12.33
20
7.16
30
0
11
14.7
21
7.16
31
0
0
LINE
8
0
6
CONTINUOUS
10
14.7
20
7.16
30
0
11
14.7
21
2.16
31
0
0
LINE
8
0
6
CONTINUOUS
10
14.7
20
2.16
30
0
11
12.33
21
2.16
31
0
0
LINE
8
0
6
CONTINUOUS
10
12.33
20
2.16
30
0
11
12.33
21
7.16
31
0
0
LINE
8
0
6
CONTINUOUS
10
14.7
20
-4.06
30
0
11
12.33
21
-4.06
31
0
0
LINE
8
0
6
CONTINUOUS
10
12.33
20
-4.06
30
0
11
12.33
21
0.86
31
0
0
LINE
8
0
6
CONTINUOUS
10
12.33
20
0.86
30
0
11
14.7
21
0.86
31
0
0
LINE
8
0
6
CONTINUOUS
10
14.7
20
0.86
30
0
11
14.7
21
-4.06
31
0
0
LINE
8
0
6
CONTINUOUS
10
6.43
20
64.67
30
0
11
-8.0
21
64.67
31
0
0
LINE
8
0
6
CONTINUOUS
10
-8.0
20
64.67
30
0
11
-8.0
21
62.38
31
0
0
LINE
8
0
6
CONTINUOUS
10
-8.0
20
62.38
30
0
11
-9.47
21
62.38
31
0
0
LINE
8
0
6
CONTINUOUS
10
-9.47
20
62.38
30
0
11
-9.92
21
63.16
31
0
0
LINE
8
0
6
CONTINUOUS
10
-9.92
20
63.16
30
0
11
-11.4
21
63.16
31
0
0
LINE
8
0
6
CONTINUOUS
10
-11.4
20
63.16
30
0
11
-11.99
21
62.14
31
0
0
LINE
8
0
6
CONTINUOUS
10
-11.99
20
62.14
30
0
11
-12.01
21
48.83
31
0
0
LINE
8
0
6
CONTINUOUS
10
-12.01
20
48.83
30
0
11
-11.39
21
47.75
31
0
0
LINE
8
0
6
CONTINUOUS
10
-11.39
20
47.75
30
0
11
-9.99
21
47.75
31
0
0
LINE
8
0
6
CONTINUOUS
10
-9.99
20
47.75
30
0
11
-9.56
21
48.5
31
0
0
LINE
8
0
6
CONTINUOUS
10
-9.56
20
48.5
30
0
11
-8.0
21
48.5
31
0
0
LINE
8
0
6
CONTINUOUS
10
-8.0
20
48.5
30
0
11
-8.0
21
46.15
31
0
0
LINE
8
0
6
CONTINUOUS
10
-8.0
20
46.15
30
0
11
-3.66
21
46.15
31
0
0
LINE
8
0
6
CONTINUOUS
10
-3.66
20
46.15
30
0
11
-2.43
21
47.77
31
0
0
LINE
8
0
6
CONTINUOUS
10
-2.43
20
47.77
30
0
11
0.82
21
50.82
31
0
0
LINE
8
0
6
CONTINUOUS
10
0.82
20
50.82
30
0
11
-0.57
21
51.62
31
0
0
LINE
8
0
6
CONTINUOUS
10
-0.57
20
51.62
30
0
11
-1.72
21
51.62
31
0
0
LINE
8
0
6
CONTINUOUS
10
-1.72
20
51.62
30
0
11
-0.29
21
60.76
31
0
0
LINE
8
0
6
CONTINUOUS
10
-0.29
20
60.76
30
0
11
2.48
21
63.11
31
0
0
LINE
8
0
6
CONTINUOUS
10
2.48
20
63.11
30
0
11
4.12
21
63.64
31
0
0
ARC
8
0
6
CONTINUOUS
10
4.2093660937409165
20
63.353619656244554
30
0
40
0.3
50
314.5967787574395
51
107.33073430670724
0
LINE
8
0
6
CONTINUOUS
10
4.42
20
63.14
30
0
11
1.68
21
60.56
31
0
0
ARC
8
0
6
CONTINUOUS
10
2.0414168902765413
20
60.006695823522236
30
0
40
0.6608840142452427
50
123.15246802263681
51
323.11217429849466
0
LINE
8
0
6
CONTINUOUS
10
2.57
20
59.61
30
0
11
6.43
21
63.24
31
0
0
LINE
8
0
6
CONTINUOUS
10
6.43
20
63.24
30
0
11
6.43
21
64.67
31
0
0
LINE
8
0
6
CONTINUOUS
10
-8.33
20
61.08
30
0
11
-8.33
21
56.16
31
0
0
LINE
8
0
6
CONTINUOUS
10
-8.33
20
56.16
30
0
11
-10.7
21
56.16
31
0
0
LINE
8
0
6
CONTINUOUS
10
-10.7
20
56.16
30
0
11
-10.7
21
61.08
31
0
0
LINE
8
0
6
CONTINUOUS
10
-10.7
20
61.08
30
0
11
-8.33
21
61.08
31
0
0
LINE
8
0
6
CONTINUOUS
10
-8.33
20
54.86
30
0
11
-8.33
21
49.86
31
0
0
LINE
8
0
6
CONTINUOUS
10
-8.33
20
49.86
30
0
11
-10.7
21
49.86
31
0
0
LINE
8
0
6
CONTINUOUS
10
-10.7
20
49.86
30
0
11
-10.7
21
54.86
31
0
0
LINE
8
0
6
CONTINUOUS
10
-10.7
20
54.86
30
0
11
-8.33
21
54.86
31
0
0
LINE
8
0
6
CONTINUOUS
10
-5.52
20
47.67
30
0
11
-7.03
21
47.67
31
0
0
LINE
8
0
6
CONTINUOUS
10
-7.03
20
47.67
30
0
11
-7.03
21
63.16
31
0
0
LINE
8
0
6
CONTINUOUS
10
-7.03
20
63.16
30
0
11
-5.52
21
63.16
31
0
0
LINE
8
0
6
CONTINUOUS
10
-5.52
20
63.16
30
0
11
-5.52
21
47.67
31
0
0
LINE
8
0
6
CONTINUOUS
10
-4.22
20
63.16
30
0
11
0.52
21
63.16
31
0
0
LINE
8
0
6
CONTINUOUS
10
0.52
20
63.16
30
0
11
-1.5
21
61.44
31
0
0
LINE
8
0
6
CONTINUOUS
10
-1.5
20
61.44
30
0
11
-3.05
21
51.57
31
0
0
LINE
8
0
6
CONTINUOUS
10
-3.05
20
51.57
30
0
11
-1.28
21
50.24
31
0
0
LINE
8
0
6
CONTINUOUS
10
-1.28
20
50.24
30
0
11
-2.2
21
49.71
31
0
0
ARC
8
0
6
CONTINUOUS
10
3.380055865731377
20
42.27004189962626
30
0
40
9.3
50
126.87032787160214
51
144.80650207720208
0
LINE
8
0
6
CONTINUOUS
10
-4.22
20
47.63
30
0
11
-4.22
21
63.16
31
0
0
LINE
8
0
6
CONTINUOUS
10
12.0
20
64.85
30
0
11
8.08
21
64.85
31
0
0
LINE
8
0
6
CONTINUOUS
10
8.08
20
64.85
30
0
11
3.43
21
60.2
31
0
0
LINE
8
0
6
CONTINUOUS
10
3.43
20
60.2
30
0
11
4.49
21
59.4
31
0
0
LINE
8
0
6
CONTINUOUS
10
4.49
20
59.4
30
0
11
5.72
21
59.4
31
0
0
LINE
8
0
6
CONTINUOUS
10
5.72
20
59.4
30
0
11
4.29
21
50.26
31
0
0
LINE
8
0
6
CONTINUOUS
10
4.29
20
50.26
30
0
11
1.52
21
47.9
31
0
0
LINE
8
0
6
CONTINUOUS
10
1.52
20
47.9
30
0
11
-0.12
21
47.38
31
0
0
ARC
8
0
6
CONTINUOUS
10
-0.20936609374091666
20
47.66638034375545
30
0
40
0.3
50
134.59677875743952
51
287.3307343067073
0
LINE
8
0
6
CONTINUOUS
10
-0.42
20
47.88
30
0
11
2.33
21
50.46
31
0
0
ARC
8
0
6
CONTINUOUS
10
1.8014168902765417
20
50.85669582352224
30
0
40
0.6608840142452402
50
323.11217429849466
51
123.15246802263717
0
LINE
8
0
6
CONTINUOUS
10
1.44
20
51.41
30
0
11
-2.43
21
47.77
31
0
0
LINE
8
0
6
CONTINUOUS
10
-2.43
20
47.77
30
0
11
-2.43
21
46.35
31
0
0
LINE
8
0
6
CONTINUOUS
10
-2.43
20
46.35
30
0
11
12.0
21
46.35
31
0
0
LINE
8
0
6
CONTINUOUS
10
12.0
20
46.35
30
0
11
12.0
21
48.64
31
0
0
LINE
8
0
6
CONTINUOUS
10
12.0
20
48.64
30
0
11
13.47
21
48.64
31
0
0
LINE
8
0
6
CONTINUOUS
10
13.47
20
48.64
30
0
11
13.92
21
47.86
31
0
0
LINE
8
0
6
CONTINUOUS
10
13.92
20
47.86
30
0
11
15.4
21
47.86
31
0
0
LINE
8
0
6
CONTINUOUS
10
15.4
20
47.86
30
0
11
16.0
21
48.88
31
0
0
LINE
8
0
6
CONTINUOUS
10
16.0
20
48.88
30
0
11
16.0
21
62.28
31
0
0
LINE
8
0
6
CONTINUOUS
10
16.0
20
62.28
30
0
11
15.39
21
63.35
31
0
0
LINE
8
0
6
CONTINUOUS
10
15.39
20
63.35
30
0
11
14.04
21
63.35
31
0
0
LINE
8
0
6
CONTINUOUS
10
14.04
20
63.35
30
0
11
13.59
21
62.56
31
0
0
LINE
8
0
6
CONTINUOUS
10
13.59
20
62.56
30
0
11
12.0
21
62.56
31
0
0
LINE
8
0
6
CONTINUOUS
10
12.0
20
62.56
30
0
11
12.0
21
64.85
31
0
0
LINE
8
0
6
CONTINUOUS
10
11.03
20
63.35
30
0
11
11.03
21
47.86
31
0
0
LINE
8
0
6
CONTINUOUS
10
11.03
20
47.86
30
0
11
9.52
21
47.86
31
0
0
LINE
8
0
6
CONTINUOUS
10
9.52
20
47.86
30
0
11
9.52
21
63.35
31
0
0
LINE
8
0
6
CONTINUOUS
10
9.52
20
63.35
30
0
11
11.03
21
63.35
31
0
0
LINE
8
0
6
CONTINUOUS
10
14.7
20
61.16
30
0
11
14.7
21
56.16
31
0
0
LINE
8
0
6
CONTINUOUS
10
14.7
20
56.16
30
0
11
12.33
21
56.16
31
0
0
LINE
8
0
6
CONTINUOUS
10
12.33
20
56.16
30
0
11
12.33
21
61.16
31
0
0
LINE
8
0
6
CONTINUOUS
10
12.33
20
61.16
30
0
11
14.7
21
61.16
31
0
0
LINE
8
0
6
CONTINUOUS
10
14.7
20
49.94
30
0
11
12.33
21
49.94
31
0
0
LINE
8
0
6
CONTINUOUS
10
12.33
20
49.94
30
0
11
12.33
21
54.86
31
0
0
LINE
8
0
6
CONTINUOUS
10
12.33
20
54.86
30
0
11
14.7
21
54.86
31
0
0
LINE
8
0
6
CONTINUOUS
10
14.7
20
54.86
30
0
11
14.7
21
49.94
31
0
0
LINE
8
0
6
CONTINUOUS
10
8.22
20
63.39
30
0
11
8.22
21
47.86
31
0
0
LINE
8
0
6
CONTINUOUS
10
8.22
20
47.86
30
0
11
4.46
21
47.86
31
0
0
LINE
8
0
6
CONTINUOUS
10
4.46
20
47.86
30
0
11
2.88
21
47.35
31
0
0
LINE
8
0
6
CONTINUOUS
10
2.88
20
47.35
30
0
11
5.5
21
49.58
31
0
0
LINE
8
0
6
CONTINUOUS
10
5.5
20
49.58
30
0
11
7.05
21
59.44
31
0
0
LINE
8
0
6
CONTINUOUS
10
7.05
20
59.44
30
0
11
5.34
21
60.74
31
0
0
ARC
8
0
6
CONTINUOUS
10
0.6238361285732434
20
68.75547243385247
30
0
40
9.3
50
300.4718114586609
51
324.7649196275197
0
LINE
8
0
6
CONTINUOUS
10
63.0
20
67.0
30
0
11
136.59
21
67.0
31
0
0
LINE
8
0
6
CONTINUOUS
10
49.81
20
-10.0
30
0
11
136.59
21
-10.0
31
0
0
LINE
8
0
6
CONTINUOUS
10
62.5
20
4.9
30
0
11
136.59
21
4.9
31
0
0
LINE
8
0
6
CONTINUOUS
10
-59.0
20
67.0
30
0
11
-132.59
21
67.0
31
0
0
LINE
8
0
6
CONTINUOUS
10
-45.81
20
-10.0
30
0
11
-132.59
21
-10.0
31
0
0
LINE
8
0
6
CONTINUOUS
10
-58.5
20
4.9
30
0
11
-132.59
21
4.9
31
0
0
ENDSEC
0
EOF