0
SECTION
2
HEADER
0
ENDSEC
0
SECTION
2
TABLES
0
TABLE
2
LTYPE
70
2
0
LTYPE
2
CONTINUOUS
70
0
3
Solid line
72
65
73
0
40
0.0
0
ENDTAB
0
TABLE
2
LAYER
70
1
0
LAYER
2
0
70
0
62
7
6
CONTINUOUS
0
ENDTAB
0
ENDSEC
0
SECTION
2
ENTITIES
0
LINE
8
0
6
CONTINUOUS
10
142.46
20
-9.0
30
0
11
142.46
21
91.0
31
0
0
LINE
8
0
6
CONTINUOUS
10
101.0
20
-9.0
30
0
11
101.0
21
91.0
31
0
0
LINE
8
0
6
CONTINUOUS
10
-10.0
20
91.0
30
0
11
-10.0
21
-9.0
31
0
0
LINE
8
0
6
CONTINUOUS
10
-28.92
20
81.0
30
0
11
142.46
21
81.0
31
0
0
LINE
8
0
6
CONTINUOUS
10
-28.92
20
-9.0
30
0
11
142.46
21
-9.0
31
0
0
LINE
8
0
6
CONTINUOUS
10
0.0
20
-9.0
30
0
11
0.0
21
91.0
31
0
0
LINE
8
0
6
CONTINUOUS
10
-28.92
20
6.0
30
0
11
142.46
21
6.0
31
0
0
ARC
8
0
6
CONTINUOUS
10
106.13748416499925
20
67.54653385254741
30
0
40
5.53
50
239.12896239655083
51
251.90606580875527
0
LINE
8
0
6
CONTINUOUS
10
104.42
20
62.29
30
0
11
101.28
21
62.2
31
0
0
ARC
8
0
6
CONTINUOUS
10
101.02266067770057
20
63.41300308045712
30
0
40
1.24
50
233.2074196180693
51
281.9777433271289
0
LINE
8
0
6
CONTINUOUS
10
100.28
20
62.42
30
0
11
97.94
21
63.45
31
0
0
LINE
8
0
6
CONTINUOUS
10
97.94
20
63.45
30
0
11
97.29
21
64.2
31
0
0
ARC
8
0
6
CONTINUOUS
10
97.7482562424134
20
64.40000304069979
30
0
40
0.5
50
89.80017969452578
51
203.57855865635509
0
LINE
8
0
6
CONTINUOUS
10
97.75
20
64.9
30
0
11
100.23
21
64.9
31
0
0
LINE
8
0
6
CONTINUOUS
10
100.23
20
64.9
30
0
11
103.3
21
62.8
31
0
0
ARC
8
0
6
CONTINUOUS
10
108.6098303202716
20
67.14699441608096
30
0
40
5.45
50
179.54787816035227
51
238.10196400383126
0
LINE
8
0
6
CONTINUOUS
10
103.16
20
67.19
30
0
11
102.92
21
68.06
31
0
0
ARC
8
0
6
CONTINUOUS
10
101.95275303268876
20
67.80616283915234
30
0
40
1.0
50
14.704692399061221
51
76.86495680692246
0
LINE
8
0
6
CONTINUOUS
10
102.18
20
68.78
30
0
11
101.0
21
69.05
31
0
0
LINE
8
0
6
CONTINUOUS
10
101.0
20
69.05
30
0
11
101.0
21
67.19
31
0
0
LINE
8
0
6
CONTINUOUS
10
101.0
20
67.19
30
0
11
96.46
21
67.36
31
0
0
LINE
8
0
6
CONTINUOUS
10
96.46
20
67.36
30
0
11
95.41
21
66.87
31
0
0
LINE
8
0
6
CONTINUOUS
10
95.41
20
66.87
30
0
11
91.6
21
62.47
31
0
0
ARC
8
0
6
CONTINUOUS
10
92.31104873471628
20
62.17451785695516
30
0
40
0.77
50
157.43427102618858
51
252.53859538337161
0
LINE
8
0
6
CONTINUOUS
10
92.08
20
61.44
30
0
11
95.0
21
61.44
31
0
0
ARC
8
0
6
CONTINUOUS
10
94.8595790335993
20
61.76059624482375
30
0
40
0.35
50
293.6533904417787
51
86.65514271862268
0
LINE
8
0
6
CONTINUOUS
10
94.88
20
62.11
30
0
11
93.39
21
62.13
31
0
0
ARC
8
0
6
CONTINUOUS
10
80.58421107609317
20
98.27877964795417
30
0
40
38.35
50
289.5068088099744
51
293.7997171991694
0
LINE
8
0
6
CONTINUOUS
10
96.06
20
63.19
30
0
11
100.48
21
61.4
31
0
0
LINE
8
0
6
CONTINUOUS
10
100.48
20
61.4
30
0
11
104.82
21
61.4
31
0
0
ARC
8
0
6
CONTINUOUS
10
104.7376426317836
20
62.39660286167584
30
0
40
1.0
50
274.72408027448915
51
7.088201953050771
0
ARC
8
0
6
CONTINUOUS
10
104.21360550587661
20
35.9468602678746
30
0
40
2.92
50
157.8032925976687
51
176.2074738184972
0
ARC
8
0
6
CONTINUOUS
10
101.09179716333446
20
37.241589110872454
30
0
40
0.46
50
335.3863076123215
51
85.23611884104241
0
LINE
8
0
6
CONTINUOUS
10
101.13
20
37.7
30
0
11
92.04
21
37.7
31
0
0
LINE
8
0
6
CONTINUOUS
10
92.04
20
37.7
30
0
11
92.04
21
36.77
31
0
0
LINE
8
0
6
CONTINUOUS
10
92.04
20
36.77
30
0
11
93.91
21
36.07
31
0
0
LINE
8
0
6
CONTINUOUS
10
93.91
20
36.07
30
0
11
92.15
21
34.98
31
0
0
LINE
8
0
6
CONTINUOUS
10
92.15
20
34.98
30
0
11
92.9
21
33.64
31
0
0
LINE
8
0
6
CONTINUOUS
10
92.9
20
33.64
30
0
11
92.9
21
32.39
31
0
0
LINE
8
0
6
CONTINUOUS
10
92.9
20
32.39
30
0
11
93.74
21
31.9
31
0
0
LINE
8
0
6
CONTINUOUS
10
93.74
20
31.9
30
0
11
98.26
21
31.9
31
0
0
LINE
8
0
6
CONTINUOUS
10
98.26
20
31.9
30
0
11
99.28
21
32.32
31
0
0
LINE
8
0
6
CONTINUOUS
10
99.28
20
32.32
30
0
11
98.9
21
33.7
31
0
0
LINE
8
0
6
CONTINUOUS
10
98.9
20
33.7
30
0
11
101.01
21
33.7
31
0
0
LINE
8
0
6
CONTINUOUS
10
101.01
20
33.7
30
0
11
101.3
21
36.14
31
0
0
LINE
8
0
6
CONTINUOUS
10
94.93
20
36.12
30
0
11
92.53
21
37.33
31
0
0
ARC
8
0
6
CONTINUOUS
10
93.70303139751945
20
26.78504398584643
30
0
40
10.61
50
82.32520132314241
51
96.34754267683101
0
LINE
8
0
6
CONTINUOUS
10
95.12
20
37.3
30
0
11
97.69
21
36.94
31
0
0
ARC
8
0
6
CONTINUOUS
10
97.39380963432241
20
36.383968285724826
30
0
40
0.63
50
330.10828648837594
51
61.95639221949645
0
ARC
8
0
6
CONTINUOUS
10
94.76071222954235
20
38.46427009182726
30
0
40
3.98
50
243.90393811583965
51
323.0171891257896
0
LINE
8
0
6
CONTINUOUS
10
93.01
20
34.89
30
0
11
94.93
21
36.12
31
0
0
LINE
8
0
6
CONTINUOUS
10
97.2
20
33.8
30
0
11
97.2
21
32.5
31
0
0
LINE
8
0
6
CONTINUOUS
10
97.2
20
32.5
30
0
11
94.8
21
32.5
31
0
0
LINE
8
0
6
CONTINUOUS
10
94.8
20
32.5
30
0
11
94.8
21
33.8
31
0
0
LINE
8
0
6
CONTINUOUS
10
94.8
20
33.8
30
0
11
97.2
21
33.8
31
0
0
ARC
8
0
6
CONTINUOUS
10
98.00573850226824
20
34.35
30
0
40
0.36000000000000143
50
283.53620273738045
51
76.46379726261954
0
ARC
8
0
6
CONTINUOUS
10
98.17426149773176
20
34.35
30
0
40
0.36000000000000143
50
103.53620273738048
51
256.46379726261955
0
ARC
8
0
6
CONTINUOUS
10
98.7357760747285
20
35.44868335557396
30
0
40
0.5
50
135.36134320290066
51
257.78667231091765
0
LINE
8
0
6
CONTINUOUS
10
98.38
20
35.8
30
0
11
99.12
21
36.13
31
0
0
ARC
8
0
6
CONTINUOUS
10
99.50008290057289
20
35.760626220892576
30
0
40
0.53
50
1.0134075193525411
51
135.81865399710844
0
LINE
8
0
6
CONTINUOUS
10
100.03
20
35.77
30
0
11
99.46
21
34.79
31
0
0
LINE
8
0
6
CONTINUOUS
10
99.46
20
34.79
30
0
11
98.63
21
34.96
31
0
0
LINE
8
0
6
CONTINUOUS
10
99.7
20
87.7
30
0
11
99.7
21
75.59
31
0
0
LINE
8
0
6
CONTINUOUS
10
99.7
20
75.59
30
0
11
89.36
21
75.59
31
0
0
ARC
8
0
6
CONTINUOUS
10
86.29397923733075
20
73.9019488506325
30
0
40
3.5
50
28.835748167738878
51
78.36242925381634
0
LINE
8
0
6
CONTINUOUS
10
87.0
20
77.33
30
0
11
87.0
21
84.5
31
0
0
LINE
8
0
6
CONTINUOUS
10
87.0
20
84.5
30
0
11
88.0
21
84.5
31
0
0
ARC
8
0
6
CONTINUOUS
10
88.0
20
85.5
30
0
40
1.0
50
270.0
51
0.0
0
LINE
8
0
6
CONTINUOUS
10
89.0
20
85.5
30
0
11
89.0
21
87.7
31
0
0
ARC
8
0
6
CONTINUOUS
10
90.0
20
87.7
30
0
40
1.0
50
90.0
51
180.0
0
LINE
8
0
6
CONTINUOUS
10
90.0
20
88.7
30
0
11
98.7
21
88.7
31
0
0
ARC
8
0
6
CONTINUOUS
10
98.7
20
87.7
30
0
40
1.0
50
0.0
51
90.0
0
LINE
8
0
6
CONTINUOUS
10
99.7
20
74.39
30
0
11
99.7
21
70.11
31
0
0
LINE
8
0
6
CONTINUOUS
10
99.7
20
70.11
30
0
11
95.57
21
69.0
31
0
0
LINE
8
0
6
CONTINUOUS
10
95.57
20
69.0
30
0
11
91.63
21
69.0
31
0
0
ARC
8
0
6
CONTINUOUS
10
91.76442795084677
20
68.35352086002605
30
0
40
0.660307619515563
50
101.7466100615644
51
261.778171985757
0
LINE
8
0
6
CONTINUOUS
10
91.67
20
67.7
30
0
11
95.74
21
67.7
31
0
0
LINE
8
0
6
CONTINUOUS
10
95.74
20
67.7
30
0
11
99.1
21
68.6
31
0
0
LINE
8
0
6
CONTINUOUS
10
99.1
20
68.6
30
0
11
99.1
21
67.2
31
0
0
LINE
8
0
6
CONTINUOUS
10
99.1
20
67.2
30
0
11
100.5
21
67.2
31
0
0
ARC
8
0
6
CONTINUOUS
10
100.5
20
67.7
30
0
40
0.5
50
270.0
51
0.0
0
LINE
8
0
6
CONTINUOUS
10
101.0
20
67.7
30
0
11
101.0
21
89.5
31
0
0
ARC
8
0
6
CONTINUOUS
10
100.5
20
89.5
30
0
40
0.5
50
0.0
51
90.0
0
LINE
8
0
6
CONTINUOUS
10
100.5
20
90.0
30
0
11
87.0
21
90.0
31
0
0
LINE
8
0
6
CONTINUOUS
10
87.0
20
90.0
30
0
11
87.0
21
88.71
31
0
0
LINE
8
0
6
CONTINUOUS
10
87.0
20
88.71
30
0
11
87.5
21
87.79
31
0
0
LINE
8
0
6
CONTINUOUS
10
87.5
20
87.79
30
0
11
87.5
21
86.0
31
0
0
LINE
8
0
6
CONTINUOUS
10
87.5
20
86.0
30
0
11
84.03
21
86.0
31
0
0
ARC
8
0
6
CONTINUOUS
10
84.7008200590833
20
85.39999962639054
30
0
40
0.9
50
138.1896531936674
51
269.9477934100824
0
ARC
8
0
6
CONTINUOUS
10
84.8
20
83.6
30
0
40
0.9
50
0.0
51
90.0
0
LINE
8
0
6
CONTINUOUS
10
85.7
20
83.6
30
0
11
85.7
21
77.35
31
0
0
ARC
8
0
6
CONTINUOUS
10
86.3006303099426
20
73.9019218061682
30
0
40
3.5
50
99.88136312869439
51
166.31441132199157
0
LINE
8
0
6
CONTINUOUS
10
82.9
20
74.73
30
0
11
82.9
21
72.89
31
0
0
ARC
8
0
6
CONTINUOUS
10
85.40170658699132
20
73.59814133660181
30
0
40
2.6
50
195.80487121029606
51
272.1665923481855
0
LINE
8
0
6
CONTINUOUS
10
85.5
20
71.0
30
0
11
85.5
21
71.85
31
0
0
ARC
8
0
6
CONTINUOUS
10
86.25142013978667
20
73.8430548847242
30
0
40
2.13
50
14.879187555526576
51
249.34258931828356
0
LINE
8
0
6
CONTINUOUS
10
88.31
20
74.39
30
0
11
99.7
21
74.39
31
0
0
ARC
8
0
6
CONTINUOUS
10
19.5
20
89.5
30
0
40
0.5
50
90.0
51
180.0
0
LINE
8
0
6
CONTINUOUS
10
19.0
20
89.5
30
0
11
19.0
21
87.0
31
0
0
ARC
8
0
6
CONTINUOUS
10
20.0
20
87.0
30
0
40
1.0
50
180.0
51
270.0
0
LINE
8
0
6
CONTINUOUS
10
20.0
20
86.0
30
0
11
21.08
21
86.0
31
0
0
LINE
8
0
6
CONTINUOUS
10
21.08
20
86.0
30
0
11
21.08
21
86.8
31
0
0
LINE
8
0
6
CONTINUOUS
10
21.08
20
86.8
30
0
11
20.2
21
86.8
31
0
0
LINE
8
0
6
CONTINUOUS
10
20.2
20
86.8
30
0
11
20.2
21
88.1
31
0
0
ARC
8
0
6
CONTINUOUS
10
20.7
20
88.1
30
0
40
0.5
50
90.0
51
180.0
0
LINE
8
0
6
CONTINUOUS
10
20.7
20
88.6
30
0
11
25.5
21
88.6
31
0
0
LINE
8
0
6
CONTINUOUS
10
25.5
20
88.6
30
0
11
25.5
21
86.8
31
0
0
LINE
8
0
6
CONTINUOUS
10
25.5
20
86.8
30
0
11
24.61
21
86.8
31
0
0
LINE
8
0
6
CONTINUOUS
10
24.61
20
86.8
30
0
11
24.61
21
86.0
31
0
0
LINE
8
0
6
CONTINUOUS
10
24.61
20
86.0
30
0
11
25.5
21
86.0
31
0
0
ARC
8
0
6
CONTINUOUS
10
25.5
20
87.0
30
0
40
1.0
50
270.0
51
0.0
0
LINE
8
0
6
CONTINUOUS
10
26.5
20
87.0
30
0
11
26.5
21
88.23
31
0
0
LINE
8
0
6
CONTINUOUS
10
26.5
20
88.23
30
0
11
38.53
21
88.23
31
0
0
ARC
8
0
6
CONTINUOUS
10
38.50000001265765
20
86.2302250124678
30
0
40
2.0
50
359.99355386761516
51
89.14053143781993
0
LINE
8
0
6
CONTINUOUS
10
40.5
20
86.23
30
0
11
40.5
21
82.5
31
0
0
LINE
8
0
6
CONTINUOUS
10
40.5
20
82.5
30
0
11
37.5
21
82.5
31
0
0
ARC
8
0
6
CONTINUOUS
10
37.5
20
81.0
30
0
40
1.5
50
90.0
51
180.0
0
LINE
8
0
6
CONTINUOUS
10
36.0
20
81.0
30
0
11
36.0
21
79.0
31
0
0
LINE
8
0
6
CONTINUOUS
10
36.0
20
79.0
30
0
11
37.5
21
79.0
31
0
0
LINE
8
0
6
CONTINUOUS
10
37.5
20
79.0
30
0
11
37.5
21
81.0
31
0
0
LINE
8
0
6
CONTINUOUS
10
37.5
20
81.0
30
0
11
40.0
21
81.0
31
0
0
ARC
8
0
6
CONTINUOUS
10
40.0
20
80.5
30
0
40
0.5
50
0.0
51
90.0
0
LINE
8
0
6
CONTINUOUS
10
40.5
20
80.5
30
0
11
40.5
21
77.0
31
0
0
LINE
8
0
6
CONTINUOUS
10
40.5
20
77.0
30
0
11
42.6
21
74.9
31
0
0
LINE
8
0
6
CONTINUOUS
10
42.6
20
74.9
30
0
11
42.6
21
66.9
31
0
0
LINE
8
0
6
CONTINUOUS
10
42.6
20
66.9
30
0
11
40.5
21
64.8
31
0
0
LINE
8
0
6
CONTINUOUS
10
40.5
20
64.8
30
0
11
40.5
21
61.3
31
0
0
ARC
8
0
6
CONTINUOUS
10
40.0
20
61.3
30
0
40
0.5
50
270.0
51
0.0
0
LINE
8
0
6
CONTINUOUS
10
40.0
20
60.8
30
0
11
37.5
21
60.8
31
0
0
LINE
8
0
6
CONTINUOUS
10
37.5
20
60.8
30
0
11
37.5
21
62.8
31
0
0
LINE
8
0
6
CONTINUOUS
10
37.5
20
62.8
30
0
11
36.0
21
62.8
31
0
0
LINE
8
0
6
CONTINUOUS
10
36.0
20
62.8
30
0
11
36.0
21
60.8
31
0
0
ARC
8
0
6
CONTINUOUS
10
37.5
20
60.8
30
0
40
1.5
50
180.0
51
270.0
0
LINE
8
0
6
CONTINUOUS
10
37.5
20
59.3
30
0
11
40.45
21
59.3
31
0
0
LINE
8
0
6
CONTINUOUS
10
40.45
20
59.3
30
0
11
40.45
21
57.0
31
0
0
LINE
8
0
6
CONTINUOUS
10
40.45
20
57.0
30
0
11
42.16
21
57.0
31
0
0
LINE
8
0
6
CONTINUOUS
10
42.16
20
57.0
30
0
11
42.57
21
55.54
31
0
0
LINE
8
0
6
CONTINUOUS
10
42.57
20
55.54
30
0
11
42.11
21
54.89
31
0
0
LINE
8
0
6
CONTINUOUS
10
42.11
20
54.89
30
0
11
42.05
21
53.68
31
0
0
LINE
8
0
6
CONTINUOUS
10
42.05
20
53.68
30
0
11
44.58
21
54.24
31
0
0
LINE
8
0
6
CONTINUOUS
10
44.58
20
54.24
30
0
11
44.58
21
55.05
31
0
0
LINE
8
0
6
CONTINUOUS
10
44.58
20
55.05
30
0
11
43.16
21
57.0
31
0
0
LINE
8
0
6
CONTINUOUS
10
43.16
20
57.0
30
0
11
48.69
21
57.0
31
0
0
LINE
8
0
6
CONTINUOUS
10
48.69
20
57.0
30
0
11
47.36
21
54.5
31
0
0
LINE
8
0
6
CONTINUOUS
10
47.36
20
54.5
30
0
11
49.28
21
54.5
31
0
0
LINE
8
0
6
CONTINUOUS
10
49.28
20
54.5
30
0
11
51.29
21
56.51
31
0
0
ARC
8
0
6
CONTINUOUS
10
51.994218525732414
20
55.80001671286201
30
0
40
1.0
50
89.66874407969028
51
134.76644445934608
0
LINE
8
0
6
CONTINUOUS
10
52.0
20
56.8
30
0
11
78.74
21
56.8
31
0
0
LINE
8
0
6
CONTINUOUS
10
78.74
20
56.8
30
0
11
77.41
21
59.3
31
0
0
LINE
8
0
6
CONTINUOUS
10
77.41
20
59.3
30
0
11
82.14
21
59.3
31
0
0
ARC
8
0
6
CONTINUOUS
10
82.34375974688368
20
59.079813793461305
30
0
40
0.3
50
342.5796730402145
51
132.78109394342502
0
LINE
8
0
6
CONTINUOUS
10
82.63
20
58.99
30
0
11
81.05
21
56.7
31
0
0
LINE
8
0
6
CONTINUOUS
10
81.05
20
56.7
30
0
11
84.04
21
55.98
31
0
0
LINE
8
0
6
CONTINUOUS
10
84.04
20
55.98
30
0
11
84.04
21
59.3
31
0
0
LINE
8
0
6
CONTINUOUS
10
84.04
20
59.3
30
0
11
86.5
21
59.3
31
0
0
ARC
8
0
6
CONTINUOUS
10
86.5
20
59.8
30
0
40
0.5
50
270.0
51
0.0
0
LINE
8
0
6
CONTINUOUS
10
87.0
20
59.8
30
0
11
87.0
21
61.5
31
0
0
LINE
8
0
6
CONTINUOUS
10
87.0
20
61.5
30
0
11
85.8
21
61.5
31
0
0
LINE
8
0
6
CONTINUOUS
10
85.8
20
61.5
30
0
11
85.8
21
60.65
31
0
0
LINE
8
0
6
CONTINUOUS
10
85.8
20
60.65
30
0
11
82.5
21
60.65
31
0
0
LINE
8
0
6
CONTINUOUS
10
82.5
20
60.65
30
0
11
82.5
21
68.1
31
0
0
LINE
8
0
6
CONTINUOUS
10
82.5
20
68.1
30
0
11
85.8
21
68.1
31
0
0
LINE
8
0
6
CONTINUOUS
10
85.8
20
68.1
30
0
11
85.8
21
67.3
31
0
0
LINE
8
0
6
CONTINUOUS
10
85.8
20
67.3
30
0
11
87.0
21
67.8
31
0
0
LINE
8
0
6
CONTINUOUS
10
87.0
20
67.8
30
0
11
87.0
21
71.28
31
0
0
LINE
8
0
6
CONTINUOUS
10
87.0
20
71.28
30
0
11
85.5
21
72.15
31
0
0
LINE
8
0
6
CONTINUOUS
10
85.5
20
72.15
30
0
11
85.5
21
69.5
31
0
0
LINE
8
0
6
CONTINUOUS
10
85.5
20
69.5
30
0
11
82.5
21
69.5
31
0
0
LINE
8
0
6
CONTINUOUS
10
82.5
20
69.5
30
0
11
82.5
21
88.4
31
0
0
LINE
8
0
6
CONTINUOUS
10
82.5
20
88.4
30
0
11
85.5
21
88.4
31
0
0
LINE
8
0
6
CONTINUOUS
10
85.5
20
88.4
30
0
11
85.5
21
86.19
31
0
0
LINE
8
0
6
CONTINUOUS
10
85.5
20
86.19
30
0
11
87.0
21
86.19
31
0
0
LINE
8
0
6
CONTINUOUS
10
87.0
20
86.19
30
0
11
87.0
21
89.5
31
0
0
ARC
8
0
6
CONTINUOUS
10
86.5
20
89.5
30
0
40
0.5
50
0.0
51
90.0
0
LINE
8
0
6
CONTINUOUS
10
86.5
20
90.0
30
0
11
19.5
21
90.0
31
0
0
LINE
8
0
6
CONTINUOUS
10
80.9
20
61.1
30
0
11
77.4
21
61.1
31
0
0
ARC
8
0
6
CONTINUOUS
10
77.4
20
59.6
30
0
40
1.5
50
90.0
51
180.0
0
LINE
8
0
6
CONTINUOUS
10
75.9
20
59.6
30
0
11
75.9
21
58.6
31
0
0
LINE
8
0
6
CONTINUOUS
10
75.9
20
58.6
30
0
11
66.9
21
58.6
31
0
0
LINE
8
0
6
CONTINUOUS
10
66.9
20
58.6
30
0
11
66.9
21
60.6
31
0
0
LINE
8
0
6
CONTINUOUS
10
66.9
20
60.6
30
0
11
65.4
21
60.6
31
0
0
LINE
8
0
6
CONTINUOUS
10
65.4
20
60.6
30
0
11
65.4
21
58.6
31
0
0
LINE
8
0
6
CONTINUOUS
10
65.4
20
58.6
30
0
11
42.1
21
58.6
31
0
0
LINE
8
0
6
CONTINUOUS
10
42.1
20
58.6
30
0
11
42.1
21
64.14
31
0
0
LINE
8
0
6
CONTINUOUS
10
42.1
20
64.14
30
0
11
44.2
21
66.24
31
0
0
LINE
8
0
6
CONTINUOUS
10
44.2
20
66.24
30
0
11
44.2
21
75.56
31
0
0
LINE
8
0
6
CONTINUOUS
10
44.2
20
75.56
30
0
11
42.1
21
77.66
31
0
0
LINE
8
0
6
CONTINUOUS
10
42.1
20
77.66
30
0
11
42.1
21
88.2
31
0
0
LINE
8
0
6
CONTINUOUS
10
42.1
20
88.2
30
0
11
80.9
21
88.2
31
0
0
LINE
8
0
6
CONTINUOUS
10
80.9
20
88.2
30
0
11
80.9
21
61.1
31
0
0
LINE
8
0
6
CONTINUOUS
10
24.2
20
88.3
30
0
11
21.5
21
88.3
31
0
0
LINE
8
0
6
CONTINUOUS
10
21.5
20
88.3
30
0
11
20.06
21
87.1
31
0
0
LINE
8
0
6
CONTINUOUS
10
20.06
20
87.1
30
0
11
21.2
21
87.1
31
0
0
LINE
8
0
6
CONTINUOUS
10
21.2
20
87.1
30
0
11
20.52
21
86.0
31
0
0
ARC
8
0
6
CONTINUOUS
10
26.548223763749625
20
81.90065636300587
30
0
40
7.29
50
145.78331337926588
51
164.897836476313
0
ARC
8
0
6
CONTINUOUS
10
25.009459695964914
20
84.46898658615665
30
0
40
5.54
50
186.93571825215224
51
218.76817744567919
0
LINE
8
0
6
CONTINUOUS
10
20.69
20
81.0
30
0
11
25.06
21
81.0
31
0
0
ARC
8
0
6
CONTINUOUS
10
20.008107130878805
20
84.55960369127273
30
0
40
6.18
50
324.83117253220064
51
352.84630783414275
0
ARC
8
0
6
CONTINUOUS
10
18.977483218167897
20
81.89093355830464
30
0
40
7.41
50
14.849697517017272
51
35.36768756845919
0
LINE
8
0
6
CONTINUOUS
10
25.02
20
86.18
30
0
11
24.5
21
87.1
31
0
0
LINE
8
0
6
CONTINUOUS
10
24.5
20
87.1
30
0
11
25.64
21
87.1
31
0
0
LINE
8
0
6
CONTINUOUS
10
25.64
20
87.1
30
0
11
24.2
21
88.3
31
0
0
ARC
8
0
6
CONTINUOUS
10
23.2870624297365
20
82.79792022867002
30
0
40
1.28
50
273.2666248440132
51
342.82746021963914
0
LINE
8
0
6
CONTINUOUS
10
23.36
20
81.52
30
0
11
22.38
21
81.52
31
0
0
ARC
8
0
6
CONTINUOUS
10
22.423767288336414
20
82.83927420367097
30
0
40
1.32
50
200.82475094335547
51
268.09989347269504
0
ARC
8
0
6
CONTINUOUS
10
6.952222979289971
20
75.45085225562127
30
0
40
15.83
50
25.918411064050403
51
30.226562807655828
0
LINE
8
0
6
CONTINUOUS
10
20.63
20
83.42
30
0
11
21.48
21
85.0
31
0
0
LINE
8
0
6
CONTINUOUS
10
21.48
20
85.0
30
0
11
24.15
21
85.0
31
0
0
LINE
8
0
6
CONTINUOUS
10
24.15
20
85.0
30
0
11
25.05
21
83.42
31
0
0
LINE
8
0
6
CONTINUOUS
10
25.05
20
83.42
30
0
11
24.51
21
82.42
31
0
0
LINE
8
0
6
CONTINUOUS
10
94.5
20
27.9
30
0
11
101.0
21
27.9
31
0
0
LINE
8
0
6
CONTINUOUS
10
101.0
20
27.9
30
0
11
101.0
21
33.7
31
0
0
LINE
8
0
6
CONTINUOUS
10
101.0
20
33.7
30
0
11
98.9
21
33.7
31
0
0
LINE
8
0
6
CONTINUOUS
10
98.9
20
33.7
30
0
11
98.9
21
32.9
31
0
0
LINE
8
0
6
CONTINUOUS
10
98.9
20
32.9
30
0
11
99.8
21
32.9
31
0
0
LINE
8
0
6
CONTINUOUS
10
99.8
20
32.9
30
0
11
99.8
21
29.5
31
0
0
LINE
8
0
6
CONTINUOUS
10
99.8
20
29.5
30
0
11
92.2
21
29.5
31
0
0
LINE
8
0
6
CONTINUOUS
10
92.2
20
29.5
30
0
11
92.2
21
32.9
31
0
0
LINE
8
0
6
CONTINUOUS
10
92.2
20
32.9
30
0
11
93.1
21
32.9
31
0
0
LINE
8
0
6
CONTINUOUS
10
93.1
20
32.9
30
0
11
93.1
21
33.7
31
0
0
LINE
8
0
6
CONTINUOUS
10
93.1
20
33.7
30
0
11
91.0
21
33.7
31
0
0
LINE
8
0
6
CONTINUOUS
10
91.0
20
33.7
30
0
11
91.0
21
30.3
31
0
0
LINE
8
0
6
CONTINUOUS
10
91.0
20
30.3
30
0
11
84.1
21
30.3
31
0
0
LINE
8
0
6
CONTINUOUS
10
84.1
20
30.3
30
0
11
84.1
21
36.5
31
0
0
LINE
8
0
6
CONTINUOUS
10
84.1
20
36.5
30
0
11
83.88
21
37.38
31
0
0
LINE
8
0
6
CONTINUOUS
10
83.88
20
37.38
30
0
11
84.05
21
40.62
31
0
0
LINE
8
0
6
CONTINUOUS
10
84.05
20
40.62
30
0
11
81.01
21
39.94
31
0
0
LINE
8
0
6
CONTINUOUS
10
81.01
20
39.94
30
0
11
82.94
21
37.3
31
0
0
LINE
8
0
6
CONTINUOUS
10
82.94
20
37.3
30
0
11
77.9
21
37.3
31
0
0
LINE
8
0
6
CONTINUOUS
10
77.9
20
37.3
30
0
11
78.53
21
39.8
31
0
0
LINE
8
0
6
CONTINUOUS
10
78.53
20
39.8
30
0
11
76.82
21
39.8
31
0
0
LINE
8
0
6
CONTINUOUS
10
76.82
20
39.8
30
0
11
74.32
21
37.3
31
0
0
LINE
8
0
6
CONTINUOUS
10
74.32
20
37.3
30
0
11
51.78
21
43.0
31
0
0
LINE
8
0
6
CONTINUOUS
10
51.78
20
43.0
30
0
11
49.28
21
45.5
31
0
0
LINE
8
0
6
CONTINUOUS
10
49.28
20
45.5
30
0
11
47.35
21
45.5
31
0
0
LINE
8
0
6
CONTINUOUS
10
47.35
20
45.5
30
0
11
48.73
21
43.0
31
0
0
LINE
8
0
6
CONTINUOUS
10
48.73
20
43.0
30
0
11
43.18
21
43.0
31
0
0
LINE
8
0
6
CONTINUOUS
10
43.18
20
43.0
30
0
11
45.08
21
45.64
31
0
0
LINE
8
0
6
CONTINUOUS
10
45.08
20
45.64
30
0
11
42.06
21
46.31
31
0
0
LINE
8
0
6
CONTINUOUS
10
42.06
20
46.31
30
0
11
42.06
21
45.24
31
0
0
LINE
8
0
6
CONTINUOUS
10
42.06
20
45.24
30
0
11
42.6
21
44.43
31
0
0
LINE
8
0
6
CONTINUOUS
10
42.6
20
44.43
30
0
11
42.6
21
28.7
31
0
0
LINE
8
0
6
CONTINUOUS
10
42.6
20
28.7
30
0
11
49.9
21
28.7
31
0
0
LINE
8
0
6
CONTINUOUS
10
49.9
20
28.7
30
0
11
49.9
21
14.1
31
0
0
LINE
8
0
6
CONTINUOUS
10
49.9
20
14.1
30
0
11
88.3
21
14.1
31
0
0
LINE
8
0
6
CONTINUOUS
10
88.3
20
14.1
30
0
11
94.5
21
27.9
31
0
0
LINE
8
0
6
CONTINUOUS
10
91.62
20
25.88
30
0
11
87.14
21
15.9
31
0
0
LINE
8
0
6
CONTINUOUS
10
87.14
20
15.9
30
0
11
51.5
21
15.9
31
0
0
LINE
8
0
6
CONTINUOUS
10
51.5
20
15.9
30
0
11
51.5
21
28.7
31
0
0
LINE
8
0
6
CONTINUOUS
10
51.5
20
28.7
30
0
11
89.79
21
28.7
31
0
0
ARC
8
0
6
CONTINUOUS
10
89.79583277872838
20
26.700008505345007
30
0
40
2.0
50
335.79489805205645
51
90.16709703885455
0
LINE
8
0
6
CONTINUOUS
10
82.45
20
30.3
30
0
11
44.25
21
30.3
31
0
0
LINE
8
0
6
CONTINUOUS
10
44.25
20
30.3
30
0
11
44.25
21
35.5
31
0
0
LINE
8
0
6
CONTINUOUS
10
44.25
20
35.5
30
0
11
47.25
21
35.5
31
0
0
LINE
8
0
6
CONTINUOUS
10
47.25
20
35.5
30
0
11
47.25
21
37.1
31
0
0
LINE
8
0
6
CONTINUOUS
10
47.25
20
37.1
30
0
11
44.25
21
37.1
31
0
0
LINE
8
0
6
CONTINUOUS
10
44.25
20
37.1
30
0
11
44.25
21
41.2
31
0
0
LINE
8
0
6
CONTINUOUS
10
44.25
20
41.2
30
0
11
51.56
21
41.2
31
0
0
LINE
8
0
6
CONTINUOUS
10
51.56
20
41.2
30
0
11
74.09
21
35.5
31
0
0
LINE
8
0
6
CONTINUOUS
10
74.09
20
35.5
30
0
11
82.45
21
35.5
31
0
0
LINE
8
0
6
CONTINUOUS
10
82.45
20
35.5
30
0
11
82.45
21
30.3
31
0
0
LINE
8
0
6
CONTINUOUS
10
82.5
20
52.34
30
0
11
82.5
21
44.25
31
0
0
ARC
8
0
6
CONTINUOUS
10
80.50000024729827
20
44.2509945818374
30
0
40
2.0
50
287.1575299571573
51
359.97150732799383
0
LINE
8
0
6
CONTINUOUS
10
81.09
20
42.34
30
0
11
80.21
21
42.07
31
0
0
ARC
8
0
6
CONTINUOUS
10
81.2536368815778
20
39.79825572314784
30
0
40
2.5
50
114.67399935517567
51
184.08878982700605
0
LINE
8
0
6
CONTINUOUS
10
78.76
20
39.62
30
0
11
77.8
21
37.91
31
0
0
LINE
8
0
6
CONTINUOUS
10
77.8
20
37.91
30
0
11
82.03
21
37.91
31
0
0
LINE
8
0
6
CONTINUOUS
10
82.03
20
37.91
30
0
11
81.4
21
39.0
31
0
0
LINE
8
0
6
CONTINUOUS
10
81.4
20
39.0
30
0
11
80.86
21
39.93
31
0
0
LINE
8
0
6
CONTINUOUS
10
80.86
20
39.93
30
0
11
82.02
21
40.6
31
0
0
ARC
8
0
6
CONTINUOUS
10
81.000000271535
20
43.42127640509245
30
0
40
3.0
50
289.8768685556209
51
359.97562245768245
0
LINE
8
0
6
CONTINUOUS
10
84.0
20
43.42
30
0
11
84.0
21
53.2
31
0
0
ARC
8
0
6
CONTINUOUS
10
81.00000030212078
20
53.20134637462673
30
0
40
3.0
50
359.97428613788514
51
72.34208474173151
0
LINE
8
0
6
CONTINUOUS
10
81.91
20
56.06
30
0
11
80.99
21
56.36
31
0
0
LINE
8
0
6
CONTINUOUS
10
80.99
20
56.36
30
0
11
81.36
21
57.54
31
0
0
LINE
8
0
6
CONTINUOUS
10
81.36
20
57.54
30
0
11
82.0
21
58.69
31
0
0
LINE
8
0
6
CONTINUOUS
10
82.0
20
58.69
30
0
11
77.56
21
58.69
31
0
0
LINE
8
0
6
CONTINUOUS
10
77.56
20
58.69
30
0
11
78.75
21
56.81
31
0
0
ARC
8
0
6
CONTINUOUS
10
81.24999990784923
20
56.809321211511076
30
0
40
2.5
50
179.98444331356984
51
242.09545205307825
0
LINE
8
0
6
CONTINUOUS
10
80.08
20
54.6
30
0
11
81.14
21
54.24
31
0
0
ARC
8
0
6
CONTINUOUS
10
80.50000666328663
20
52.345162664247276
30
0
40
2.0
50
359.8521003995445
51
71.33727659854156
0
LINE
8
0
6
CONTINUOUS
10
44.03
20
48.22
30
0
11
44.02
21
51.78
31
0
0
LINE
8
0
6
CONTINUOUS
10
44.02
20
51.78
30
0
11
46.06
21
52.52
31
0
0
ARC
8
0
6
CONTINUOUS
10
45.37369045997283
20
54.3985577487178
30
0
40
2.0
50
290.0691966991591
51
3.4812056984172037
0
LINE
8
0
6
CONTINUOUS
10
47.37
20
54.52
30
0
11
48.3
21
56.27
31
0
0
LINE
8
0
6
CONTINUOUS
10
48.3
20
56.27
30
0
11
44.12
21
56.27
31
0
0
LINE
8
0
6
CONTINUOUS
10
44.12
20
56.27
30
0
11
45.16
21
54.4
31
0
0
LINE
8
0
6
CONTINUOUS
10
45.16
20
54.4
30
0
11
42.02
21
53.17
31
0
0
LINE
8
0
6
CONTINUOUS
10
42.02
20
53.17
30
0
11
42.03
21
49.01
31
0
0
LINE
8
0
6
CONTINUOUS
10
42.03
20
49.01
30
0
11
39.34
21
49.01
31
0
0
LINE
8
0
6
CONTINUOUS
10
39.34
20
49.01
30
0
11
36.61
21
49.47
31
0
0
LINE
8
0
6
CONTINUOUS
10
36.61
20
49.47
30
0
11
36.05
21
48.05
31
0
0
LINE
8
0
6
CONTINUOUS
10
36.05
20
48.05
30
0
11
39.18
21
47.21
31
0
0
LINE
8
0
6
CONTINUOUS
10
39.18
20
47.21
30
0
11
41.05
21
47.21
31
0
0
LINE
8
0
6
CONTINUOUS
10
41.05
20
47.21
30
0
11
45.16
21
45.6
31
0
0
LINE
8
0
6
CONTINUOUS
10
45.16
20
45.6
30
0
11
44.05
21
43.61
31
0
0
LINE
8
0
6
CONTINUOUS
10
44.05
20
43.61
30
0
11
48.33
21
43.61
31
0
0
LINE
8
0
6
CONTINUOUS
10
48.33
20
43.61
30
0
11
47.36
21
45.37
31
0
0
ARC
8
0
6
CONTINUOUS
10
45.37344688535136
20
45.60153125637761
30
0
40
2.0
50
353.35221273115627
51
69.92337412895984
0
LINE
8
0
6
CONTINUOUS
10
46.06
20
47.48
30
0
11
44.03
21
48.22
31
0
0
ARC
8
0
6
CONTINUOUS
10
17.3500240186942
20
33.88019825526268
30
0
40
2.0
50
304.40145736321125
51
0.2808004267341052
0
LINE
8
0
6
CONTINUOUS
10
18.48
20
32.23
30
0
11
16.8
21
31.5
31
0
0
ARC
8
0
6
CONTINUOUS
10
18.149959737693433
20
29.39581162758495
30
0
40
2.5
50
122.68254252121892
51
179.67482471134034
0
LINE
8
0
6
CONTINUOUS
10
15.65
20
29.41
30
0
11
14.6
21
27.51
31
0
0
LINE
8
0
6
CONTINUOUS
10
14.6
20
27.51
30
0
11
18.9
21
27.51
31
0
0
LINE
8
0
6
CONTINUOUS
10
18.9
20
27.51
30
0
11
17.79
21
29.53
31
0
0
LINE
8
0
6
CONTINUOUS
10
17.79
20
29.53
30
0
11
19.35
21
30.39
31
0
0
ARC
8
0
6
CONTINUOUS
10
17.95000181587011
20
33.043300790418044
30
0
40
3.0
50
297.8181000724724
51
359.93695953394365
0
LINE
8
0
6
CONTINUOUS
10
20.95
20
33.04
30
0
11
20.95
21
43.76
31
0
0
ARC
8
0
6
CONTINUOUS
10
17.95000181587011
20
43.75669920958195
30
0
40
3.0
50
0.0630404660563247
51
62.18189992752757
0
LINE
8
0
6
CONTINUOUS
10
19.35
20
46.41
30
0
11
17.79
21
47.31
31
0
0
LINE
8
0
6
CONTINUOUS
10
17.79
20
47.31
30
0
11
18.93
21
49.29
31
0
0
LINE
8
0
6
CONTINUOUS
10
18.93
20
49.29
30
0
11
14.7
21
49.29
31
0
0
LINE
8
0
6
CONTINUOUS
10
14.7
20
49.29
30
0
11
15.66
21
47.58
31
0
0
ARC
8
0
6
CONTINUOUS
10
18.15366781635942
20
47.40217755582255
30
0
40
2.5
50
175.9211654726182
51
236.39480095995833
0
LINE
8
0
6
CONTINUOUS
10
16.77
20
45.32
30
0
11
18.46
21
44.58
31
0
0
ARC
8
0
6
CONTINUOUS
10
17.35000989954583
20
42.91629270095556
30
0
40
2.0
50
359.81972709931745
51
56.28962614592433
0
LINE
8
0
6
CONTINUOUS
10
19.35
20
42.91
30
0
11
19.35
21
33.89
31
0
0
LINE
8
0
6
CONTINUOUS
10
7.15
20
33.89
30
0
11
7.15
21
42.91
31
0
0
ARC
8
0
6
CONTINUOUS
10
9.149990100454172
20
42.91629270095556
30
0
40
2.0
50
123.71037385407575
51
180.18027290068255
0
LINE
8
0
6
CONTINUOUS
10
8.04
20
44.58
30
0
11
9.73
21
45.32
31
0
0
ARC
8
0
6
CONTINUOUS
10
8.34633218364058
20
47.40217755582255
30
0
40
2.5
50
303.60519904004167
51
4.078834527381789
0
LINE
8
0
6
CONTINUOUS
10
10.84
20
47.58
30
0
11
11.8
21
49.29
31
0
0
LINE
8
0
6
CONTINUOUS
10
11.8
20
49.29
30
0
11
7.57
21
49.29
31
0
0
LINE
8
0
6
CONTINUOUS
10
7.57
20
49.29
30
0
11
8.71
21
47.31
31
0
0
LINE
8
0
6
CONTINUOUS
10
8.71
20
47.31
30
0
11
7.15
21
46.41
31
0
0
ARC
8
0
6
CONTINUOUS
10
8.549998184129885
20
43.756699209581946
30
0
40
3.0
50
117.81810007247223
51
179.93695953394354
0
LINE
8
0
6
CONTINUOUS
10
5.55
20
43.76
30
0
11
5.55
21
33.04
31
0
0
ARC
8
0
6
CONTINUOUS
10
8.549998184129885
20
33.043300790418044
30
0
40
3.0
50
180.06304046605632
51
242.1818999275277
0
LINE
8
0
6
CONTINUOUS
10
7.15
20
30.39
30
0
11
8.71
21
29.53
31
0
0
LINE
8
0
6
CONTINUOUS
10
8.71
20
29.53
30
0
11
7.6
21
27.51
31
0
0
LINE
8
0
6
CONTINUOUS
10
7.6
20
27.51
30
0
11
11.9
21
27.51
31
0
0
LINE
8
0
6
CONTINUOUS
10
11.9
20
27.51
30
0
11
10.85
21
29.41
31
0
0
ARC
8
0
6
CONTINUOUS
10
8.350040262306567
20
29.39581162758495
30
0
40
2.5
50
0.3251752886596851
51
57.31745747878108
0
LINE
8
0
6
CONTINUOUS
10
9.7
20
31.5
30
0
11
8.02
21
32.23
31
0
0
ARC
8
0
6
CONTINUOUS
10
9.149975981305802
20
33.88019825526268
30
0
40
2.0
50
179.7191995732659
51
235.5985426367887
0
ARC
8
0
6
CONTINUOUS
10
37.748167309534125
20
24.200003358765628
30
0
40
0.5
50
349.62984891720737
51
89.78998867205024
0
LINE
8
0
6
CONTINUOUS
10
38.24
20
24.11
30
0
11
38.02
21
22.88
31
0
0
LINE
8
0
6
CONTINUOUS
10
38.02
20
22.88
30
0
11
38.97
21
22.53
31
0
0
LINE
8
0
6
CONTINUOUS
10
38.97
20
22.53
30
0
11
39.87
21
25.01
31
0
0
LINE
8
0
6
CONTINUOUS
10
39.87
20
25.01
30
0
11
43.2
21
26.56
31
0
0
LINE
8
0
6
CONTINUOUS
10
43.2
20
26.56
30
0
11
44.0
21
26.7
31
0
0
ARC
8
0
6
CONTINUOUS
10
44.0
20
27.2
30
0
40
0.5
50
270.0
51
90.0
0
LINE
8
0
6
CONTINUOUS
10
44.0
20
27.7
30
0
11
28.0
21
27.7
31
0
0
LINE
8
0
6
CONTINUOUS
10
28.0
20
27.7
30
0
11
28.0
21
24.7
31
0
0
LINE
8
0
6
CONTINUOUS
10
28.0
20
24.7
30
0
11
37.75
21
24.7
31
0
0
LINE
8
0
6
CONTINUOUS
10
33.01
20
46.51
30
0
11
25.78
21
53.39
31
0
0
ARC
8
0
6
CONTINUOUS
10
25.868267200817122
20
54.38609683327471
30
0
40
1.0
50
209.74210280096503
51
264.9360717556875
0
LINE
8
0
6
CONTINUOUS
10
25.0
20
53.89
30
0
11
24.1
21
55.45
31
0
0
LINE
8
0
6
CONTINUOUS
10
24.1
20
55.45
30
0
11
24.1
21
57.45
31
0
0
ARC
8
0
6
CONTINUOUS
10
23.600000811549837
20
57.450900860242825
30
0
40
0.5
50
359.8967689644589
51
93.43990593212821
0
LINE
8
0
6
CONTINUOUS
10
23.57
20
57.95
30
0
11
22.6
21
57.95
31
0
0
LINE
8
0
6
CONTINUOUS
10
22.6
20
57.95
30
0
11
22.6
21
58.75
31
0
0
LINE
8
0
6
CONTINUOUS
10
22.6
20
58.75
30
0
11
19.7
21
58.75
31
0
0
LINE
8
0
6
CONTINUOUS
10
19.7
20
58.75
30
0
11
20.48
21
54.4
31
0
0
LINE
8
0
6
CONTINUOUS
10
20.48
20
54.4
30
0
11
21.9
21
51.96
31
0
0
LINE
8
0
6
CONTINUOUS
10
21.9
20
51.96
30
0
11
22.41
21
52.55
31
0
0
LINE
8
0
6
CONTINUOUS
10
22.41
20
52.55
30
0
11
23.33
21
52.55
31
0
0
ARC
8
0
6
CONTINUOUS
10
23.324059829129272
20
51.550017642970616
30
0
40
1.0
50
354.8353779215322
51
89.65965127793098
0
LINE
8
0
6
CONTINUOUS
10
24.32
20
51.46
30
0
11
24.14
21
49.37
31
0
0
ARC
8
0
6
CONTINUOUS
10
23.144124095322958
20
49.460725864469175
30
0
40
1.0
50
277.809272251038
51
354.7946330941195
0
LINE
8
0
6
CONTINUOUS
10
23.28
20
48.47
30
0
11
20.94
21
48.15
31
0
0
LINE
8
0
6
CONTINUOUS
10
20.94
20
48.15
30
0
11
20.94
21
42.1
31
0
0
LINE
8
0
6
CONTINUOUS
10
20.94
20
42.1
30
0
11
30.99
21
43.46
31
0
0
ARC
8
0
6
CONTINUOUS
10
23.415830787347133
20
77.37451696159187
30
0
40
34.75
50
282.5893422132923
51
289.8053036990134
0
LINE
8
0
6
CONTINUOUS
10
35.19
20
44.68
30
0
11
37.6
21
45.73
31
0
0
ARC
8
0
6
CONTINUOUS
10
37.20055272882904
20
46.64675617126587
30
0
40
1.0
50
293.54362927865657
51
1.9050820921881557
0
ARC
8
0
6
CONTINUOUS
10
37.20029557658951
20
46.70431184512751
30
0
40
1.0
50
358.6068966230646
51
74.94747559578555
0
LINE
8
0
6
CONTINUOUS
10
37.46
20
47.67
30
0
11
33.79
21
48.7
31
0
0
LINE
8
0
6
CONTINUOUS
10
33.79
20
48.7
30
0
11
33.49
21
47.64
31
0
0
LINE
8
0
6
CONTINUOUS
10
33.49
20
47.64
30
0
11
36.28
21
46.79
31
0
0
LINE
8
0
6
CONTINUOUS
10
36.28
20
46.79
30
0
11
35.53
21
46.13
31
0
0
ARC
8
0
6
CONTINUOUS
10
34.90418912228774
20
50.52567523201351
30
0
40
4.44
50
244.74680518548297
51
278.10272953484684
0
LINE
8
0
6
CONTINUOUS
10
26.36
20
51.11
30
0
11
31.31
21
46.4
31
0
0
ARC
8
0
6
CONTINUOUS
10
30.615131203034778
20
45.68086346567282
30
0
40
1.0
50
277.7510331239328
51
45.983237053919055
0
LINE
8
0
6
CONTINUOUS
10
30.75
20
44.69
30
0
11
25.54
21
43.98
31
0
0
ARC
8
0
6
CONTINUOUS
10
25.467951109840925
20
44.47478172705431
30
0
40
0.5
50
174.81127825466476
51
278.28503714329037
0
LINE
8
0
6
CONTINUOUS
10
24.97
20
44.52
30
0
11
25.52
21
50.79
31
0
0
ARC
8
0
6
CONTINUOUS
10
26.017994668515428
20
50.745263995147
30
0
40
0.5
50
46.84214901225718
51
174.8667670668995
0
LINE
8
0
6
CONTINUOUS
10
22.55
20
56.63
30
0
11
23.55
21
53.9
31
0
0
LINE
8
0
6
CONTINUOUS
10
23.55
20
53.9
30
0
11
22.39
21
53.9
31
0
0
LINE
8
0
6
CONTINUOUS
10
22.39
20
53.9
30
0
11
21.55
21
55.37
31
0
0
LINE
8
0
6
CONTINUOUS
10
21.55
20
55.37
30
0
11
21.34
21
56.35
31
0
0
ARC
8
0
6
CONTINUOUS
10
21.829897946430698
20
56.45000001041494
30
0
40
0.5
50
89.98830552230852
51
191.53696025088948
0
LINE
8
0
6
CONTINUOUS
10
21.83
20
56.95
30
0
11
22.55
21
56.63
31
0
0
LINE
8
0
6
CONTINUOUS
10
23.68
20
44.07
30
0
11
22.19
21
43.87
31
0
0
LINE
8
0
6
CONTINUOUS
10
22.19
20
43.87
30
0
11
22.19
21
46.62
31
0
0
LINE
8
0
6
CONTINUOUS
10
22.19
20
46.62
30
0
11
23.92
21
46.86
31
0
0
LINE
8
0
6
CONTINUOUS
10
23.92
20
46.86
30
0
11
23.68
21
44.07
31
0
0
LINE
8
0
6
CONTINUOUS
10
6.1
20
51.5
30
0
11
6.1
21
79.4
31
0
0
LINE
8
0
6
CONTINUOUS
10
6.1
20
79.4
30
0
11
17.9
21
79.4
31
0
0
LINE
8
0
6
CONTINUOUS
10
17.9
20
79.4
30
0
11
17.9
21
51.5
31
0
0
LINE
8
0
6
CONTINUOUS
10
17.9
20
51.5
30
0
11
6.1
21
51.5
31
0
0
LINE
8
0
6
CONTINUOUS
10
4.5
20
60.5
30
0
11
1.5
21
60.5
31
0
0
LINE
8
0
6
CONTINUOUS
10
1.5
20
60.5
30
0
11
1.5
21
62.66
31
0
0
LINE
8
0
6
CONTINUOUS
10
1.5
20
62.66
30
0
11
-0.0
21
61.99
31
0
0
LINE
8
0
6
CONTINUOUS
10
-0.0
20
61.99
30
0
11
0.0
21
59.4
31
0
0
ARC
8
0
6
CONTINUOUS
10
0.5
20
59.4
30
0
40
0.5
50
180.0
51
270.0
0
LINE
8
0
6
CONTINUOUS
10
0.5
20
58.9
30
0
11
4.0
21
58.9
31
0
0
ARC
8
0
6
CONTINUOUS
10
4.0
20
58.4
30
0
40
0.5
50
0.0
51
90.0
0
LINE
8
0
6
CONTINUOUS
10
4.5
20
58.4
30
0
11
4.5
21
50.4
31
0
0
LINE
8
0
6
CONTINUOUS
10
4.5
20
50.41
30
0
11
5.7
21
49.75
31
0
0
LINE
8
0
6
CONTINUOUS
10
5.7
20
49.75
30
0
11
6.01
21
48.51
31
0
0
LINE
8
0
6
CONTINUOUS
10
6.01
20
48.51
30
0
11
5.56
21
47.86
31
0
0
LINE
8
0
6
CONTINUOUS
10
5.56
20
47.86
30
0
11
5.51
21
46.9
31
0
0
LINE
8
0
6
CONTINUOUS
10
5.51
20
46.9
30
0
11
8.28
21
47.67
31
0
0
LINE
8
0
6
CONTINUOUS
10
8.28
20
47.67
30
0
11
6.91
21
49.66
31
0
0
ARC
8
0
6
CONTINUOUS
10
7.216238794010458
20
49.70841109705937
30
0
40
0.3100416637735503
50
38.16627095446966
51
188.98314144935605
0
LINE
8
0
6
CONTINUOUS
10
7.46
20
49.9
30
0
11
11.7
21
49.9
31
0
0
LINE
8
0
6
CONTINUOUS
10
11.7
20
49.9
30
0
11
11.77
21
49.07
31
0
0
LINE
8
0
6
CONTINUOUS
10
11.77
20
49.07
30
0
11
10.85
21
47.4
31
0
0
LINE
8
0
6
CONTINUOUS
10
10.85
20
47.4
30
0
11
15.65
21
47.4
31
0
0
LINE
8
0
6
CONTINUOUS
10
15.65
20
47.4
30
0
11
14.74
21
49.04
31
0
0
LINE
8
0
6
CONTINUOUS
10
14.74
20
49.04
30
0
11
14.8
21
49.9
31
0
0
LINE
8
0
6
CONTINUOUS
10
14.8
20
49.9
30
0
11
19.04
21
49.9
31
0
0
ARC
8
0
6
CONTINUOUS
10
19.30369137353101
20
49.75693756773587
30
0
40
0.3
50
318.96966162691115
51
151.51851326600692
0
LINE
8
0
6
CONTINUOUS
10
19.53
20
49.56
30
0
11
17.95
21
47.3
31
0
0
LINE
8
0
6
CONTINUOUS
10
17.95
20
47.3
30
0
11
20.75
21
46.71
31
0
0
LINE
8
0
6
CONTINUOUS
10
20.75
20
46.71
30
0
11
20.49
21
48.51
31
0
0
LINE
8
0
6
CONTINUOUS
10
20.49
20
48.51
30
0
11
20.8
21
49.75
31
0
0
ARC
8
0
6
CONTINUOUS
10
21.099999814042572
20
49.75033402757439
30
0
40
0.3
50
29.926363677658724
51
180.0637945806929
0
LINE
8
0
6
CONTINUOUS
10
21.36
20
49.9
30
0
11
23.5
21
49.9
31
0
0
ARC
8
0
6
CONTINUOUS
10
23.5
20
50.4
30
0
40
0.5
50
270.0
51
0.0
0
LINE
8
0
6
CONTINUOUS
10
24.0
20
50.4
30
0
11
24.0
21
52.05
31
0
0
LINE
8
0
6
CONTINUOUS
10
24.0
20
52.05
30
0
11
22.8
21
52.3
31
0
0
LINE
8
0
6
CONTINUOUS
10
22.8
20
52.3
30
0
11
22.8
21
51.5
31
0
0
LINE
8
0
6
CONTINUOUS
10
22.8
20
51.5
30
0
11
19.5
21
51.5
31
0
0
LINE
8
0
6
CONTINUOUS
10
19.5
20
51.5
30
0
11
19.5
21
59.0
31
0
0
LINE
8
0
6
CONTINUOUS
10
19.5
20
59.0
30
0
11
22.8
21
59.0
31
0
0
LINE
8
0
6
CONTINUOUS
10
22.8
20
59.0
30
0
11
22.8
21
58.2
31
0
0
LINE
8
0
6
CONTINUOUS
10
22.8
20
58.2
30
0
11
24.0
21
58.4
31
0
0
LINE
8
0
6
CONTINUOUS
10
24.0
20
58.4
30
0
11
24.0
21
61.99
31
0
0
LINE
8
0
6
CONTINUOUS
10
24.0
20
61.99
30
0
11
22.5
21
62.8
31
0
0
LINE
8
0
6
CONTINUOUS
10
22.5
20
62.8
30
0
11
22.5
21
60.5
31
0
0
LINE
8
0
6
CONTINUOUS
10
22.5
20
60.5
30
0
11
19.5
21
60.5
31
0
0
LINE
8
0
6
CONTINUOUS
10
19.5
20
60.5
30
0
11
19.5
21
79.4
31
0
0
LINE
8
0
6
CONTINUOUS
10
19.5
20
79.4
30
0
11
22.5
21
79.4
31
0
0
LINE
8
0
6
CONTINUOUS
10
22.5
20
79.4
30
0
11
22.5
21
77.19
31
0
0
LINE
8
0
6
CONTINUOUS
10
22.5
20
77.19
30
0
11
24.0
21
77.71
31
0
0
LINE
8
0
6
CONTINUOUS
10
24.0
20
77.71
30
0
11
24.0
21
80.5
31
0
0
ARC
8
0
6
CONTINUOUS
10
23.5
20
80.5
30
0
40
0.5
50
0.0
51
90.0
0
LINE
8
0
6
CONTINUOUS
10
23.5
20
81.0
30
0
11
0.5
21
81.0
31
0
0
ARC
8
0
6
CONTINUOUS
10
0.5
20
80.5
30
0
40
0.5
50
90.0
51
180.0
0
LINE
8
0
6
CONTINUOUS
10
-0.0
20
80.5
30
0
11
-0.0
21
77.71
31
0
0
LINE
8
0
6
CONTINUOUS
10
-0.0
20
77.71
30
0
11
1.5
21
77.19
31
0
0
LINE
8
0
6
CONTINUOUS
10
1.5
20
77.19
30
0
11
1.5
21
79.4
31
0
0
LINE
8
0
6
CONTINUOUS
10
1.5
20
79.4
30
0
11
4.5
21
79.4
31
0
0
LINE
8
0
6
CONTINUOUS
10
4.5
20
79.4
30
0
11
4.5
21
60.5
31
0
0
LINE
8
0
6
CONTINUOUS
10
21.1
20
-9.0
30
0
11
31.5
21
14.1
31
0
0
LINE
8
0
6
CONTINUOUS
10
31.5
20
14.1
30
0
11
37.5
21
14.1
31
0
0
ARC
8
0
6
CONTINUOUS
10
37.5
20
14.6
30
0
40
0.5
50
270.0
51
0.0
0
LINE
8
0
6
CONTINUOUS
10
38.0
20
14.6
30
0
11
38.0
21
24.2
31
0
0
ARC
8
0
6
CONTINUOUS
10
37.5
20
24.2
30
0
40
0.5
50
0.0
51
90.0
0
LINE
8
0
6
CONTINUOUS
10
37.5
20
24.7
30
0
11
35.9
21
24.7
31
0
0
ARC
8
0
6
CONTINUOUS
10
35.99
20
24.299999999999997
30
0
40
0.41000000000000036
50
102.68038349182022
51
257.3196165081797
0
LINE
8
0
6
CONTINUOUS
10
35.9
20
23.9
30
0
11
36.8
21
23.9
31
0
0
LINE
8
0
6
CONTINUOUS
10
36.8
20
23.9
30
0
11
36.8
21
22.8
31
0
0
ARC
8
0
6
CONTINUOUS
10
36.3
20
22.8
30
0
40
0.5
50
270.0
51
0.0
0
LINE
8
0
6
CONTINUOUS
10
36.3
20
22.3
30
0
11
29.7
21
22.3
31
0
0
ARC
8
0
6
CONTINUOUS
10
29.7
20
22.8
30
0
40
0.5
50
180.0
51
270.0
0
LINE
8
0
6
CONTINUOUS
10
29.2
20
22.8
30
0
11
29.2
21
23.9
31
0
0
LINE
8
0
6
CONTINUOUS
10
29.2
20
23.9
30
0
11
30.1
21
23.9
31
0
0
ARC
8
0
6
CONTINUOUS
10
30.01
20
24.299999999999997
30
0
40
0.41000000000000036
50
282.68038349181984
51
77.31961650818027
0
LINE
8
0
6
CONTINUOUS
10
30.1
20
24.7
30
0
11
28.5
21
24.7
31
0
0
ARC
8
0
6
CONTINUOUS
10
28.5
20
24.2
30
0
40
0.5
50
90.0
51
180.0
0
LINE
8
0
6
CONTINUOUS
10
28.0
20
24.2
30
0
11
28.0
21
22.8
31
0
0
ARC
8
0
6
CONTINUOUS
10
27.5
20
22.8
30
0
40
0.5
50
270.0
51
0.0
0
LINE
8
0
6
CONTINUOUS
10
27.5
20
22.3
30
0
11
21.5
21
22.3
31
0
0
ARC
8
0
6
CONTINUOUS
10
21.5
20
22.8
30
0
40
0.5
50
180.0
51
270.0
0
LINE
8
0
6
CONTINUOUS
10
21.0
20
22.8
30
0
11
21.0
21
30.14
31
0
0
LINE
8
0
6
CONTINUOUS
10
21.0
20
30.14
30
0
11
17.95
21
29.5
31
0
0
LINE
8
0
6
CONTINUOUS
10
17.95
20
29.5
30
0
11
19.59
21
27.14
31
0
0
ARC
8
0
6
CONTINUOUS
10
19.28376120598954
20
27.091588902940632
30
0
40
0.3100416637735507
50
218.16627095447046
51
8.983141449355294
0
LINE
8
0
6
CONTINUOUS
10
19.04
20
26.9
30
0
11
14.27
21
26.9
31
0
0
LINE
8
0
6
CONTINUOUS
10
14.27
20
26.9
30
0
11
15.65
21
29.4
31
0
0
LINE
8
0
6
CONTINUOUS
10
15.65
20
29.4
30
0
11
10.85
21
29.4
31
0
0
LINE
8
0
6
CONTINUOUS
10
10.85
20
29.4
30
0
11
12.23
21
26.9
31
0
0
LINE
8
0
6
CONTINUOUS
10
12.23
20
26.9
30
0
11
7.46
21
26.9
31
0
0
ARC
8
0
6
CONTINUOUS
10
7.2027142062607465
20
27.054285515651863
30
0
40
0.3
50
167.34685987175067
51
329.0503211555452
0
LINE
8
0
6
CONTINUOUS
10
6.91
20
27.12
30
0
11
8.55
21
29.5
31
0
0
LINE
8
0
6
CONTINUOUS
10
8.55
20
29.5
30
0
11
5.75
21
30.09
31
0
0
LINE
8
0
6
CONTINUOUS
10
5.75
20
30.09
30
0
11
6.01
21
28.29
31
0
0
LINE
8
0
6
CONTINUOUS
10
6.01
20
28.29
30
0
11
5.7
21
27.05
31
0
0
ARC
8
0
6
CONTINUOUS
10
5.400000185957425
20
27.04966597242561
30
0
40
0.3
50
209.92636367765948
51
0.06379458069289667
0
LINE
8
0
6
CONTINUOUS
10
5.14
20
26.9
30
0
11
0.5
21
26.9
31
0
0
ARC
8
0
6
CONTINUOUS
10
0.5
20
26.4
30
0
40
0.5
50
90.0
51
180.0
0
LINE
8
0
6
CONTINUOUS
10
0.0
20
26.4
30
0
11
-0.0
21
23.9
31
0
0
LINE
8
0
6
CONTINUOUS
10
-0.0
20
23.9
30
0
11
1.6
21
23.9
31
0
0
LINE
8
0
6
CONTINUOUS
10
1.6
20
23.9
30
0
11
1.6
21
24.8
31
0
0
ARC
8
0
6
CONTINUOUS
10
2.1
20
24.8
30
0
40
0.5
50
90.0
51
180.0
0
LINE
8
0
6
CONTINUOUS
10
2.1
20
25.3
30
0
11
4.0
21
25.3
31
0
0
ARC
8
0
6
CONTINUOUS
10
4.0
20
24.8
30
0
40
0.5
50
0.0
51
90.0
0
LINE
8
0
6
CONTINUOUS
10
4.5
20
24.8
30
0
11
4.5
21
3.5
31
0
0
ARC
8
0
6
CONTINUOUS
10
4.0
20
3.5
30
0
40
0.5
50
270.0
51
0.0
0
LINE
8
0
6
CONTINUOUS
10
4.0
20
3.0
30
0
11
-2.1
21
3.0
31
0
0
ARC
8
0
6
CONTINUOUS
10
-2.100000010536712
20
2.6
30
0
40
0.4
50
89.9999984907272
51
270.0000015092728
0
LINE
8
0
6
CONTINUOUS
10
-2.1
20
2.2
30
0
11
-1.2
21
2.2
31
0
0
LINE
8
0
6
CONTINUOUS
10
-1.2
20
2.2
30
0
11
-1.2
21
1.1
31
0
0
ARC
8
0
6
CONTINUOUS
10
-1.7
20
1.1
30
0
40
0.5
50
270.0
51
0.0
0
LINE
8
0
6
CONTINUOUS
10
-1.7
20
0.6
30
0
11
-8.3
21
0.6
31
0
0
ARC
8
0
6
CONTINUOUS
10
-8.3
20
1.1
30
0
40
0.5
50
180.0
51
270.0
0
LINE
8
0
6
CONTINUOUS
10
-8.8
20
1.1
30
0
11
-8.8
21
2.2
31
0
0
LINE
8
0
6
CONTINUOUS
10
-8.8
20
2.2
30
0
11
-7.9
21
2.2
31
0
0
ARC
8
0
6
CONTINUOUS
10
-7.900000010536712
20
2.6
30
0
40
0.4
50
270.0000015092728
51
89.9999984907272
0
LINE
8
0
6
CONTINUOUS
10
-7.9
20
3.0
30
0
11
-9.5
21
3.0
31
0
0
ARC
8
0
6
CONTINUOUS
10
-9.5
20
2.5
30
0
40
0.5
50
90.0
51
180.0
0
LINE
8
0
6
CONTINUOUS
10
-10.0
20
2.5
30
0
11
-10.0
21
-8.5
31
0
0
ARC
8
0
6
CONTINUOUS
10
-9.5
20
-8.5
30
0
40
0.5
50
180.0
51
270.0
0
LINE
8
0
6
CONTINUOUS
10
-9.5
20
-9.0
30
0
11
21.1
21
-9.0
31
0
0
LINE
8
0
6
CONTINUOUS
10
35.9
20
15.7
30
0
11
30.47
21
15.7
31
0
0
LINE
8
0
6
CONTINUOUS
10
30.47
20
15.7
30
0
11
20.83
21
-5.7
31
0
0
ARC
8
0
6
CONTINUOUS
10
20.099967695623825
20
-5.372810705298571
30
0
40
0.8
50
180.514902235768
51
335.8588083639577
0
LINE
8
0
6
CONTINUOUS
10
19.3
20
-5.38
30
0
11
19.3
21
-3.8
31
0
0
ARC
8
0
6
CONTINUOUS
10
18.3
20
-3.799999999999999
30
0
40
1.0
50
359.99999999999994
51
126.86989764584412
0
LINE
8
0
6
CONTINUOUS
10
17.7
20
-3.0
30
0
11
17.7
21
-7.4
31
0
0
LINE
8
0
6
CONTINUOUS
10
17.7
20
-7.4
30
0
11
6.1
21
-7.4
31
0
0
LINE
8
0
6
CONTINUOUS
10
6.1
20
-7.4
30
0
11
6.1
21
25.3
31
0
0
LINE
8
0
6
CONTINUOUS
10
6.1
20
25.3
30
0
11
18.9
21
25.3
31
0
0
ARC
8
0
6
CONTINUOUS
10
18.9
20
24.8
30
0
40
0.5
50
0.0
51
90.0
0
LINE
8
0
6
CONTINUOUS
10
19.4
20
24.8
30
0
11
19.4
21
22.8
31
0
0
ARC
8
0
6
CONTINUOUS
10
18.9
20
22.8
30
0
40
0.5
50
270.0
51
0.0
0
LINE
8
0
6
CONTINUOUS
10
18.9
20
22.3
30
0
11
17.72
21
22.3
31
0
0
LINE
8
0
6
CONTINUOUS
10
17.72
20
22.3
30
0
11
17.72
21
20.7
31
0
0
LINE
8
0
6
CONTINUOUS
10
17.72
20
20.7
30
0
11
35.9
21
20.7
31
0
0
ARC
8
0
6
CONTINUOUS
10
35.9
20
20.2
30
0
40
0.5
50
0.0
51
90.0
0
LINE
8
0
6
CONTINUOUS
10
36.4
20
20.2
30
0
11
36.4
21
16.2
31
0
0
ARC
8
0
6
CONTINUOUS
10
35.9
20
16.2
30
0
40
0.5
50
270.0
51
0.0
0
LINE
8
0
6
CONTINUOUS
10
4.5
20
0.9
30
0
11
4.5
21
-6.9
31
0
0
ARC
8
0
6
CONTINUOUS
10
4.0
20
-6.9
30
0
40
0.5
50
270.0
51
0.0
0
LINE
8
0
6
CONTINUOUS
10
4.0
20
-7.4
30
0
11
-7.9
21
-7.4
31
0
0
ARC
8
0
6
CONTINUOUS
10
-7.9
20
-6.9
30
0
40
0.5
50
180.0
51
270.0
0
LINE
8
0
6
CONTINUOUS
10
-8.4
20
-6.9
30
0
11
-8.4
21
-1.5
31
0
0
ARC
8
0
6
CONTINUOUS
10
-7.9
20
-1.5
30
0
40
0.5
50
90.0
51
180.0
0
LINE
8
0
6
CONTINUOUS
10
-7.9
20
-1.0
30
0
11
-1.1
21
-1.0
31
0
0
ARC
8
0
6
CONTINUOUS
10
-1.1
20
0.5000000000000001
30
0
40
1.5
50
270.0
51
360.0
0
LINE
8
0
6
CONTINUOUS
10
0.4
20
0.5
30
0
11
0.4
21
1.4
31
0
0
LINE
8
0
6
CONTINUOUS
10
0.4
20
1.4
30
0
11
4.0
21
1.4
31
0
0
ARC
8
0
6
CONTINUOUS
10
4.0
20
0.8999999999999999
30
0
40
0.5
50
1.2722218725854067e-14
51
90.0
0
LINE
8
0
6
CONTINUOUS
10
91.0
20
61.44
30
0
11
91.0
21
37.44
31
0
0
LINE
8
0
6
CONTINUOUS
10
91.0
20
37.44
30
0
11
91.0
21
61.44
31
0
0
LINE
8
0
6
CONTINUOUS
10
91.0
20
63.59
30
0
11
89.0
21
35.29
31
0
0
LINE
8
0
6
CONTINUOUS
10
89.0
20
63.59
30
0
11
91.0
21
35.29
31
0
0
LINE
8
0
6
CONTINUOUS
10
91.0
20
63.59
30
0
11
89.0
21
35.29
31
0
0
LINE
8
0
6
CONTINUOUS
10
89.0
20
35.29
30
0
11
91.0
21
35.29
31
0
0
LINE
8
0
6
CONTINUOUS
10
91.0
20
63.59
30
0
11
89.0
21
63.59
31
0
0
LINE
8
0
6
CONTINUOUS
10
89.0
20
68.65
30
0
11
89.0
21
33.93
31
0
0
LINE
8
0
6
CONTINUOUS
10
87.0
20
34.19
30
0
11
87.0
21
68.65
31
0
0
LINE
8
0
6
CONTINUOUS
10
87.0
20
65.7
30
0
11
83.2
21
65.7
31
0
0
LINE
8
0
6
CONTINUOUS
10
85.5
20
67.0
30
0
11
87.0
21
67.0
31
0
0
LINE
8
0
6
CONTINUOUS
10
83.01
20
66.66
30
0
11
85.0
21
67.5
31
0
0
ARC
8
0
6
CONTINUOUS
10
83.2058780497066
20
66.19996544733777
30
0
40
0.5
50
113.06381324881153
51
269.3264096037889
0
LINE
8
0
6
CONTINUOUS
10
85.0
20
61.0
30
0
11
83.01
21
61.84
31
0
0
ARC
8
0
6
CONTINUOUS
10
83.2058780497066
20
62.30003455266224
30
0
40
0.5
50
90.67359039621117
51
246.93618675118913
0
LINE
8
0
6
CONTINUOUS
10
87.0
20
61.5
30
0
11
86.08
21
61.88
31
0
0
LINE
8
0
6
CONTINUOUS
10
85.87
20
33.4
30
0
11
87.0
21
34.19
31
0
0
LINE
8
0
6
CONTINUOUS
10
85.0
20
33.4
30
0
11
85.87
21
33.4
31
0
0
LINE
8
0
6
CONTINUOUS
10
88.36
20
32.7
30
0
11
87.15
21
31.85
31
0
0
ARC
8
0
6
CONTINUOUS
10
85.7190676388966
20
33.89998355553088
30
0
40
2.5
50
269.79218456877476
51
304.9158647037477
0
ARC
8
0
6
CONTINUOUS
10
87.50000034438304
20
33.92898356064623
30
0
40
1.5
50
304.9829818139256
51
0.03882512637259299
0
ARC
8
0
6
CONTINUOUS
10
85.0
20
32.4
30
0
40
1.0
50
90.0
51
270.0
0
LINE
8
0
6
CONTINUOUS
10
87.5
20
69.15
30
0
11
88.5
21
69.15
31
0
0
ARC
8
0
6
CONTINUOUS
10
88.5
20
68.65
30
0
40
0.5
50
0.0
51
90.0
0
ARC
8
0
6
CONTINUOUS
10
87.5
20
68.65
30
0
40
0.5
50
90.0
51
180.0
0
LINE
8
0
6
CONTINUOUS
10
91.0
20
35.29
30
0
11
91.0
21
63.59
31
0
0
LINE
8
0
6
CONTINUOUS
10
83.2
20
62.8
30
0
11
87.0
21
62.8
31
0
0
LINE
8
0
6
CONTINUOUS
10
101.0
20
90.0
30
0
11
142.46
21
90.0
31
0
0
LINE
8
0
6
CONTINUOUS
10
88.3
20
14.1
30
0
11
142.46
21
14.1
31
0
0
LINE
8
0
6
CONTINUOUS
10
21.1
20
-9.0
30
0
11
142.46
21
-9.0
31
0
0
LINE
8
0
6
CONTINUOUS
10
100.99
20
27.87
30
0
11
142.46
21
27.87
31
0
0
ENDSEC
0
EOF