0
SECTION
2
HEADER
0
ENDSEC
0
SECTION
2
TABLES
0
TABLE
2
LTYPE
70
2
0
LTYPE
2
CONTINUOUS
70
0
3
Solid line
72
65
73
0
40
0.0
0
ENDTAB
0
TABLE
2
LAYER
70
1
0
LAYER
2
0
70
0
62
7
6
CONTINUOUS
0
ENDTAB
0
ENDSEC
0
SECTION
2
ENTITIES
0
LINE
8
0
6
CONTINUOUS
10
-13.0
20
162.69
30
0
11
86.0
21
162.69
31
0
0
LINE
8
0
6
CONTINUOUS
10
-13.0
20
71.1
30
0
11
86.0
21
71.1
31
0
0
LINE
8
0
6
CONTINUOUS
10
77.0
20
-10.0
30
0
11
77.0
21
200.0
31
0
0
LINE
8
0
6
CONTINUOUS
10
-13.0
20
200.0
30
0
11
-13.0
21
-10.0
31
0
0
LINE
8
0
6
CONTINUOUS
10
2.0
20
-10.0
30
0
11
2.0
21
200.0
31
0
0
LINE
8
0
6
CONTINUOUS
10
-13.0
20
0.0
30
0
11
86.0
21
0.0
31
0
0
LINE
8
0
6
CONTINUOUS
10
29.89
20
19.35
30
0
11
38.91
21
19.35
31
0
0
ARC
8
0
6
CONTINUOUS
10
38.91629270095556
20
17.35000989954583
30
0
40
2.0
50
33.71037385407567
51
90.18027290068257
0
LINE
8
0
6
CONTINUOUS
10
40.58
20
18.46
30
0
11
41.32
21
16.77
31
0
0
ARC
8
0
6
CONTINUOUS
10
43.40217755582255
20
18.15366781635942
30
0
40
2.5
50
213.60519904004164
51
274.0788345273818
0
LINE
8
0
6
CONTINUOUS
10
43.58
20
15.66
30
0
11
45.29
21
14.7
31
0
0
LINE
8
0
6
CONTINUOUS
10
45.29
20
14.7
30
0
11
45.29
21
18.93
31
0
0
LINE
8
0
6
CONTINUOUS
10
45.29
20
18.93
30
0
11
43.31
21
17.79
31
0
0
LINE
8
0
6
CONTINUOUS
10
43.31
20
17.79
30
0
11
42.41
21
19.35
31
0
0
ARC
8
0
6
CONTINUOUS
10
39.75669920958195
20
17.95000181587011
30
0
40
3.0
50
27.81810007247243
51
89.93695953394368
0
LINE
8
0
6
CONTINUOUS
10
39.76
20
20.95
30
0
11
29.04
21
20.95
31
0
0
ARC
8
0
6
CONTINUOUS
10
29.043300790418044
20
17.95000181587011
30
0
40
3.0
50
90.06304046605632
51
152.18189992752758
0
LINE
8
0
6
CONTINUOUS
10
26.39
20
19.35
30
0
11
25.53
21
17.79
31
0
0
LINE
8
0
6
CONTINUOUS
10
25.53
20
17.79
30
0
11
23.51
21
18.9
31
0
0
LINE
8
0
6
CONTINUOUS
10
23.51
20
18.9
30
0
11
23.51
21
14.6
31
0
0
LINE
8
0
6
CONTINUOUS
10
23.51
20
14.6
30
0
11
25.41
21
15.65
31
0
0
ARC
8
0
6
CONTINUOUS
10
25.39581162758495
20
18.149959737693433
30
0
40
2.5
50
270.3251752886597
51
327.3174574787811
0
LINE
8
0
6
CONTINUOUS
10
27.5
20
16.8
30
0
11
28.23
21
18.48
31
0
0
ARC
8
0
6
CONTINUOUS
10
29.880198255262684
20
17.3500240186942
30
0
40
2.0
50
89.71919957326611
51
145.5985426367888
0
ARC
8
0
6
CONTINUOUS
10
29.88019825526268
20
9.149975981305802
30
0
40
2.0
50
214.40145736321128
51
270.280800426734
0
LINE
8
0
6
CONTINUOUS
10
28.23
20
8.02
30
0
11
27.5
21
9.7
31
0
0
ARC
8
0
6
CONTINUOUS
10
25.39581162758495
20
8.350040262306567
30
0
40
2.5
50
32.68254252121892
51
89.67482471134032
0
LINE
8
0
6
CONTINUOUS
10
25.41
20
10.85
30
0
11
23.51
21
11.9
31
0
0
LINE
8
0
6
CONTINUOUS
10
23.51
20
11.9
30
0
11
23.51
21
7.6
31
0
0
LINE
8
0
6
CONTINUOUS
10
23.51
20
7.6
30
0
11
25.53
21
8.71
31
0
0
LINE
8
0
6
CONTINUOUS
10
25.53
20
8.71
30
0
11
26.39
21
7.15
31
0
0
ARC
8
0
6
CONTINUOUS
10
29.043300790418044
20
8.549998184129885
30
0
40
3.0
50
207.8181000724723
51
269.93695953394365
0
LINE
8
0
6
CONTINUOUS
10
29.04
20
5.55
30
0
11
39.76
21
5.55
31
0
0
ARC
8
0
6
CONTINUOUS
10
39.756699209581946
20
8.549998184129885
30
0
40
3.0
50
270.06304046605646
51
332.18189992752775
0
LINE
8
0
6
CONTINUOUS
10
42.41
20
7.15
30
0
11
43.31
21
8.71
31
0
0
LINE
8
0
6
CONTINUOUS
10
43.31
20
8.71
30
0
11
45.29
21
7.57
31
0
0
LINE
8
0
6
CONTINUOUS
10
45.29
20
7.57
30
0
11
45.29
21
11.8
31
0
0
LINE
8
0
6
CONTINUOUS
10
45.29
20
11.8
30
0
11
43.58
21
10.84
31
0
0
ARC
8
0
6
CONTINUOUS
10
43.40217755582255
20
8.34633218364058
30
0
40
2.5
50
85.92116547261821
51
146.39480095995836
0
LINE
8
0
6
CONTINUOUS
10
41.32
20
9.73
30
0
11
40.58
21
8.04
31
0
0
ARC
8
0
6
CONTINUOUS
10
38.91629270095556
20
9.149990100454172
30
0
40
2.0
50
269.81972709931745
51
326.2896261459242
0
LINE
8
0
6
CONTINUOUS
10
38.91
20
7.15
30
0
11
29.89
21
7.15
31
0
0
LINE
8
0
6
CONTINUOUS
10
47.5
20
6.1
30
0
11
47.5
21
17.9
31
0
0
LINE
8
0
6
CONTINUOUS
10
47.5
20
17.9
30
0
11
75.4
21
17.9
31
0
0
LINE
8
0
6
CONTINUOUS
10
75.4
20
17.9
30
0
11
75.4
21
6.1
31
0
0
LINE
8
0
6
CONTINUOUS
10
75.4
20
6.1
30
0
11
47.5
21
6.1
31
0
0
LINE
8
0
6
CONTINUOUS
10
56.5
20
4.5
30
0
11
75.4
21
4.5
31
0
0
LINE
8
0
6
CONTINUOUS
10
75.4
20
4.5
30
0
11
75.4
21
1.5
31
0
0
LINE
8
0
6
CONTINUOUS
10
75.4
20
1.5
30
0
11
73.19
21
1.5
31
0
0
LINE
8
0
6
CONTINUOUS
10
73.19
20
1.5
30
0
11
73.71
21
-0.0
31
0
0
LINE
8
0
6
CONTINUOUS
10
73.71
20
-0.0
30
0
11
76.5
21
-0.0
31
0
0
ARC
8
0
6
CONTINUOUS
10
76.5
20
0.5
30
0
40
0.5
50
270.0
51
0.0
0
LINE
8
0
6
CONTINUOUS
10
77.0
20
0.5
30
0
11
77.0
21
23.5
31
0
0
ARC
8
0
6
CONTINUOUS
10
76.5
20
23.5
30
0
40
0.5
50
0.0
51
90.0
0
LINE
8
0
6
CONTINUOUS
10
76.5
20
24.0
30
0
11
73.71
21
24.0
31
0
0
LINE
8
0
6
CONTINUOUS
10
73.71
20
24.0
30
0
11
73.19
21
22.5
31
0
0
LINE
8
0
6
CONTINUOUS
10
73.19
20
22.5
30
0
11
75.4
21
22.5
31
0
0
LINE
8
0
6
CONTINUOUS
10
75.4
20
22.5
30
0
11
75.4
21
19.5
31
0
0
LINE
8
0
6
CONTINUOUS
10
75.4
20
19.5
30
0
11
56.5
21
19.5
31
0
0
LINE
8
0
6
CONTINUOUS
10
56.5
20
19.5
30
0
11
56.5
21
22.5
31
0
0
LINE
8
0
6
CONTINUOUS
10
56.5
20
22.5
30
0
11
58.8
21
22.5
31
0
0
LINE
8
0
6
CONTINUOUS
10
58.8
20
22.5
30
0
11
57.99
21
24.0
31
0
0
LINE
8
0
6
CONTINUOUS
10
57.99
20
24.0
30
0
11
54.4
21
24.0
31
0
0
LINE
8
0
6
CONTINUOUS
10
54.4
20
24.0
30
0
11
54.2
21
22.8
31
0
0
LINE
8
0
6
CONTINUOUS
10
54.2
20
22.8
30
0
11
55.0
21
22.8
31
0
0
LINE
8
0
6
CONTINUOUS
10
55.0
20
22.8
30
0
11
55.0
21
19.5
31
0
0
LINE
8
0
6
CONTINUOUS
10
55.0
20
19.5
30
0
11
47.5
21
19.5
31
0
0
LINE
8
0
6
CONTINUOUS
10
47.5
20
19.5
30
0
11
47.5
21
22.8
31
0
0
LINE
8
0
6
CONTINUOUS
10
47.5
20
22.8
30
0
11
48.3
21
22.8
31
0
0
LINE
8
0
6
CONTINUOUS
10
48.3
20
22.8
30
0
11
48.05
21
24.0
31
0
0
LINE
8
0
6
CONTINUOUS
10
48.05
20
24.0
30
0
11
46.4
21
24.0
31
0
0
ARC
8
0
6
CONTINUOUS
10
46.4
20
23.5
30
0
40
0.5
50
90.0
51
180.0
0
LINE
8
0
6
CONTINUOUS
10
45.9
20
23.5
30
0
11
45.9
21
21.36
31
0
0
ARC
8
0
6
CONTINUOUS
10
45.75033402757439
20
21.099999814042572
30
0
40
0.3
50
269.9362054193071
51
60.07363632234128
0
LINE
8
0
6
CONTINUOUS
10
45.75
20
20.8
30
0
11
44.51
21
20.49
31
0
0
LINE
8
0
6
CONTINUOUS
10
44.51
20
20.49
30
0
11
42.71
21
20.75
31
0
0
LINE
8
0
6
CONTINUOUS
10
42.71
20
20.75
30
0
11
43.3
21
17.95
31
0
0
LINE
8
0
6
CONTINUOUS
10
43.3
20
17.95
30
0
11
45.56
21
19.53
31
0
0
ARC
8
0
6
CONTINUOUS
10
45.75693756773587
20
19.30369137353101
30
0
40
0.3
50
298.48148673399305
51
131.03033837308885
0
LINE
8
0
6
CONTINUOUS
10
45.9
20
19.04
30
0
11
45.9
21
14.8
31
0
0
LINE
8
0
6
CONTINUOUS
10
45.9
20
14.8
30
0
11
45.04
21
14.74
31
0
0
LINE
8
0
6
CONTINUOUS
10
45.04
20
14.74
30
0
11
43.4
21
15.65
31
0
0
LINE
8
0
6
CONTINUOUS
10
43.4
20
15.65
30
0
11
43.4
21
10.85
31
0
0
LINE
8
0
6
CONTINUOUS
10
43.4
20
10.85
30
0
11
45.07
21
11.77
31
0
0
LINE
8
0
6
CONTINUOUS
10
45.07
20
11.77
30
0
11
45.9
21
11.7
31
0
0
LINE
8
0
6
CONTINUOUS
10
45.9
20
11.7
30
0
11
45.9
21
7.46
31
0
0
ARC
8
0
6
CONTINUOUS
10
45.70841109705937
20
7.216238794010458
30
0
40
0.3100416637735503
50
261.016858550644
51
51.83372904553035
0
LINE
8
0
6
CONTINUOUS
10
45.66
20
6.91
30
0
11
43.67
21
8.28
31
0
0
LINE
8
0
6
CONTINUOUS
10
43.67
20
8.28
30
0
11
42.9
21
5.51
31
0
0
LINE
8
0
6
CONTINUOUS
10
42.9
20
5.51
30
0
11
43.86
21
5.56
31
0
0
LINE
8
0
6
CONTINUOUS
10
43.86
20
5.56
30
0
11
44.51
21
6.01
31
0
0
LINE
8
0
6
CONTINUOUS
10
44.51
20
6.01
30
0
11
45.75
21
5.7
31
0
0
LINE
8
0
6
CONTINUOUS
10
45.75
20
5.7
30
0
11
46.41
21
4.5
31
0
0
LINE
8
0
6
CONTINUOUS
10
46.4
20
4.5
30
0
11
54.4
21
4.5
31
0
0
ARC
8
0
6
CONTINUOUS
10
54.4
20
4.0
30
0
40
0.5
50
0.0
51
90.0
0
LINE
8
0
6
CONTINUOUS
10
54.9
20
4.0
30
0
11
54.9
21
0.5
31
0
0
ARC
8
0
6
CONTINUOUS
10
55.4
20
0.5
30
0
40
0.5
50
180.0
51
270.0
0
LINE
8
0
6
CONTINUOUS
10
55.4
20
-0.0
30
0
11
57.99
21
-0.0
31
0
0
LINE
8
0
6
CONTINUOUS
10
57.99
20
-0.0
30
0
11
58.66
21
1.5
31
0
0
LINE
8
0
6
CONTINUOUS
10
58.66
20
1.5
30
0
11
56.5
21
1.5
31
0
0
LINE
8
0
6
CONTINUOUS
10
56.5
20
1.5
30
0
11
56.5
21
4.5
31
0
0
LINE
8
0
6
CONTINUOUS
10
-13.0
20
21.1
30
0
11
-13.0
21
-9.5
31
0
0
ARC
8
0
6
CONTINUOUS
10
-12.5
20
-9.5
30
0
40
0.5
50
180.0
51
270.0
0
LINE
8
0
6
CONTINUOUS
10
-12.5
20
-10.0
30
0
11
-1.5
21
-10.0
31
0
0
ARC
8
0
6
CONTINUOUS
10
-1.5
20
-9.5
30
0
40
0.5
50
270.0
51
0.0
0
LINE
8
0
6
CONTINUOUS
10
-1.0
20
-9.5
30
0
11
-1.0
21
-7.9
31
0
0
ARC
8
0
6
CONTINUOUS
10
-1.4
20
-7.9
30
0
40
0.4
50
0.0
51
180.0
0
LINE
8
0
6
CONTINUOUS
10
-1.8
20
-7.9
30
0
11
-1.8
21
-8.8
31
0
0
LINE
8
0
6
CONTINUOUS
10
-1.8
20
-8.8
30
0
11
-2.9
21
-8.8
31
0
0
ARC
8
0
6
CONTINUOUS
10
-2.9
20
-8.3
30
0
40
0.5
50
180.0
51
270.0
0
LINE
8
0
6
CONTINUOUS
10
-3.4
20
-8.3
30
0
11
-3.4
21
-1.7
31
0
0
ARC
8
0
6
CONTINUOUS
10
-2.9
20
-1.7
30
0
40
0.5
50
90.0
51
180.0
0
LINE
8
0
6
CONTINUOUS
10
-2.9
20
-1.2
30
0
11
-1.8
21
-1.2
31
0
0
LINE
8
0
6
CONTINUOUS
10
-1.8
20
-1.2
30
0
11
-1.8
21
-2.1
31
0
0
ARC
8
0
6
CONTINUOUS
10
-1.4
20
-2.1
30
0
40
0.4
50
180.0
51
0.0
0
LINE
8
0
6
CONTINUOUS
10
-1.0
20
-2.1
30
0
11
-1.0
21
4.0
31
0
0
ARC
8
0
6
CONTINUOUS
10
-0.5
20
4.0
30
0
40
0.5
50
90.0
51
180.0
0
LINE
8
0
6
CONTINUOUS
10
-0.5
20
4.5
30
0
11
20.8
21
4.5
31
0
0
ARC
8
0
6
CONTINUOUS
10
20.8
20
4.0
30
0
40
0.5
50
0.0
51
90.0
0
LINE
8
0
6
CONTINUOUS
10
21.3
20
4.0
30
0
11
21.3
21
2.1
31
0
0
ARC
8
0
6
CONTINUOUS
10
20.8
20
2.1
30
0
40
0.5
50
270.0
51
0.0
0
LINE
8
0
6
CONTINUOUS
10
20.8
20
1.6
30
0
11
19.9
21
1.6
31
0
0
LINE
8
0
6
CONTINUOUS
10
19.9
20
1.6
30
0
11
19.9
21
-0.0
31
0
0
LINE
8
0
6
CONTINUOUS
10
19.9
20
-0.0
30
0
11
22.4
21
0.0
31
0
0
ARC
8
0
6
CONTINUOUS
10
22.4
20
0.5
30
0
40
0.5
50
270.0
51
0.0
0
LINE
8
0
6
CONTINUOUS
10
22.9
20
0.5
30
0
11
22.9
21
5.14
31
0
0
ARC
8
0
6
CONTINUOUS
10
23.04966597242561
20
5.400000185957425
30
0
40
0.3
50
89.9362054193071
51
240.07363632234052
0
LINE
8
0
6
CONTINUOUS
10
23.05
20
5.7
30
0
11
24.29
21
6.01
31
0
0
LINE
8
0
6
CONTINUOUS
10
24.29
20
6.01
30
0
11
26.09
21
5.75
31
0
0
LINE
8
0
6
CONTINUOUS
10
26.09
20
5.75
30
0
11
25.5
21
8.55
31
0
0
LINE
8
0
6
CONTINUOUS
10
25.5
20
8.55
30
0
11
23.12
21
6.91
31
0
0
ARC
8
0
6
CONTINUOUS
10
23.054285515651863
20
7.2027142062607465
30
0
40
0.3
50
120.94967884445481
51
282.65314012824933
0
LINE
8
0
6
CONTINUOUS
10
22.9
20
7.46
30
0
11
22.9
21
12.23
31
0
0
LINE
8
0
6
CONTINUOUS
10
22.9
20
12.23
30
0
11
25.4
21
10.85
31
0
0
LINE
8
0
6
CONTINUOUS
10
25.4
20
10.85
30
0
11
25.4
21
15.65
31
0
0
LINE
8
0
6
CONTINUOUS
10
25.4
20
15.65
30
0
11
22.9
21
14.27
31
0
0
LINE
8
0
6
CONTINUOUS
10
22.9
20
14.27
30
0
11
22.9
21
19.04
31
0
0
ARC
8
0
6
CONTINUOUS
10
23.091588902940632
20
19.28376120598954
30
0
40
0.3100416637735507
50
81.0168585506447
51
231.8337290455295
0
LINE
8
0
6
CONTINUOUS
10
23.14
20
19.59
30
0
11
25.5
21
17.95
31
0
0
LINE
8
0
6
CONTINUOUS
10
25.5
20
17.95
30
0
11
26.14
21
21.0
31
0
0
LINE
8
0
6
CONTINUOUS
10
26.14
20
21.0
30
0
11
18.8
21
21.0
31
0
0
ARC
8
0
6
CONTINUOUS
10
18.8
20
21.5
30
0
40
0.5
50
180.0
51
270.0
0
LINE
8
0
6
CONTINUOUS
10
18.3
20
21.5
30
0
11
18.3
21
27.5
31
0
0
ARC
8
0
6
CONTINUOUS
10
18.8
20
27.5
30
0
40
0.5
50
90.0
51
180.0
0
LINE
8
0
6
CONTINUOUS
10
18.8
20
28.0
30
0
11
20.2
21
28.0
31
0
0
ARC
8
0
6
CONTINUOUS
10
20.2
20
28.5
30
0
40
0.5
50
270.0
51
0.0
0
LINE
8
0
6
CONTINUOUS
10
20.7
20
28.5
30
0
11
20.7
21
30.1
31
0
0
ARC
8
0
6
CONTINUOUS
10
20.299999999999997
20
30.01
30
0
40
0.41000000000000036
50
12.680383491819734
51
167.31961650818016
0
LINE
8
0
6
CONTINUOUS
10
19.9
20
30.1
30
0
11
19.9
21
29.2
31
0
0
LINE
8
0
6
CONTINUOUS
10
19.9
20
29.2
30
0
11
18.8
21
29.2
31
0
0
ARC
8
0
6
CONTINUOUS
10
18.8
20
29.7
30
0
40
0.5
50
180.0
51
270.0
0
LINE
8
0
6
CONTINUOUS
10
18.3
20
29.7
30
0
11
18.3
21
36.3
31
0
0
ARC
8
0
6
CONTINUOUS
10
18.8
20
36.3
30
0
40
0.5
50
90.0
51
180.0
0
LINE
8
0
6
CONTINUOUS
10
18.8
20
36.8
30
0
11
19.9
21
36.8
31
0
0
LINE
8
0
6
CONTINUOUS
10
19.9
20
36.8
30
0
11
19.9
21
35.9
31
0
0
ARC
8
0
6
CONTINUOUS
10
20.299999999999997
20
35.99
30
0
40
0.41000000000000036
50
192.68038349182032
51
347.31961650817976
0
LINE
8
0
6
CONTINUOUS
10
20.7
20
35.9
30
0
11
20.7
21
37.5
31
0
0
ARC
8
0
6
CONTINUOUS
10
20.2
20
37.5
30
0
40
0.5
50
0.0
51
90.0
0
LINE
8
0
6
CONTINUOUS
10
20.2
20
38.0
30
0
11
10.6
21
38.0
31
0
0
ARC
8
0
6
CONTINUOUS
10
10.6
20
37.5
30
0
40
0.5
50
90.0
51
180.0
0
LINE
8
0
6
CONTINUOUS
10
10.1
20
37.5
30
0
11
10.1
21
31.5
31
0
0
LINE
8
0
6
CONTINUOUS
10
10.1
20
31.5
30
0
11
-13.0
21
21.1
31
0
0
ARC
8
0
6
CONTINUOUS
10
12.2
20
35.9
30
0
40
0.5
50
90.0
51
180.0
0
LINE
8
0
6
CONTINUOUS
10
12.2
20
36.4
30
0
11
16.2
21
36.4
31
0
0
ARC
8
0
6
CONTINUOUS
10
16.2
20
35.9
30
0
40
0.5
50
0.0
51
90.0
0
LINE
8
0
6
CONTINUOUS
10
16.7
20
35.9
30
0
11
16.7
21
17.72
31
0
0
LINE
8
0
6
CONTINUOUS
10
16.7
20
17.72
30
0
11
18.3
21
17.72
31
0
0
LINE
8
0
6
CONTINUOUS
10
18.3
20
17.72
30
0
11
18.3
21
18.9
31
0
0
ARC
8
0
6
CONTINUOUS
10
18.8
20
18.9
30
0
40
0.5
50
90.0
51
180.0
0
LINE
8
0
6
CONTINUOUS
10
18.8
20
19.4
30
0
11
20.8
21
19.4
31
0
0
ARC
8
0
6
CONTINUOUS
10
20.8
20
18.9
30
0
40
0.5
50
0.0
51
90.0
0
LINE
8
0
6
CONTINUOUS
10
21.3
20
18.9
30
0
11
21.3
21
6.1
31
0
0
LINE
8
0
6
CONTINUOUS
10
21.3
20
6.1
30
0
11
-11.4
21
6.1
31
0
0
LINE
8
0
6
CONTINUOUS
10
-11.4
20
6.1
30
0
11
-11.4
21
17.7
31
0
0
LINE
8
0
6
CONTINUOUS
10
-11.4
20
17.7
30
0
11
-7.0
21
17.7
31
0
0
ARC
8
0
6
CONTINUOUS
10
-7.8
20
18.3
30
0
40
1.0
50
323.1301023541559
51
90.0
0
LINE
8
0
6
CONTINUOUS
10
-7.8
20
19.3
30
0
11
-9.38
21
19.3
31
0
0
ARC
8
0
6
CONTINUOUS
10
-9.37281070529857
20
20.099967695623825
30
0
40
0.8
50
114.14119163604238
51
269.4850977642318
0
LINE
8
0
6
CONTINUOUS
10
-9.7
20
20.83
30
0
11
11.7
21
30.47
31
0
0
LINE
8
0
6
CONTINUOUS
10
11.7
20
30.47
30
0
11
11.7
21
35.9
31
0
0
ARC
8
0
6
CONTINUOUS
10
-3.1
20
4.0
30
0
40
0.5
50
0.0
51
90.0
0
LINE
8
0
6
CONTINUOUS
10
-2.6
20
4.0
30
0
11
-2.6
21
0.4
31
0
0
LINE
8
0
6
CONTINUOUS
10
-2.6
20
0.4
30
0
11
-3.5
21
0.4
31
0
0
ARC
8
0
6
CONTINUOUS
10
-3.5
20
-1.1
30
0
40
1.5
50
90.0
51
180.0
0
LINE
8
0
6
CONTINUOUS
10
-5.0
20
-1.1
30
0
11
-5.0
21
-7.9
31
0
0
ARC
8
0
6
CONTINUOUS
10
-5.5
20
-7.9
30
0
40
0.5
50
270.0
51
0.0
0
LINE
8
0
6
CONTINUOUS
10
-5.5
20
-8.4
30
0
11
-10.9
21
-8.4
31
0
0
ARC
8
0
6
CONTINUOUS
10
-10.9
20
-7.9
30
0
40
0.5
50
180.0
51
270.0
0
LINE
8
0
6
CONTINUOUS
10
-11.4
20
-7.9
30
0
11
-11.4
21
4.0
31
0
0
ARC
8
0
6
CONTINUOUS
10
-10.9
20
4.0
30
0
40
0.5
50
90.0
51
180.0
0
LINE
8
0
6
CONTINUOUS
10
-10.9
20
4.5
30
0
11
-3.1
21
4.5
31
0
0
ARC
8
0
6
CONTINUOUS
10
74.7
20
35.7
30
0
40
1.0
50
0.0
51
90.0
0
LINE
8
0
6
CONTINUOUS
10
75.7
20
35.7
30
0
11
75.7
21
27.0
31
0
0
ARC
8
0
6
CONTINUOUS
10
74.7
20
27.0
30
0
40
1.0
50
270.0
51
0.0
0
LINE
8
0
6
CONTINUOUS
10
74.7
20
26.0
30
0
11
72.5
21
26.0
31
0
0
ARC
8
0
6
CONTINUOUS
10
72.5
20
25.0
30
0
40
1.0
50
90.0
51
180.0
0
LINE
8
0
6
CONTINUOUS
10
71.5
20
25.0
30
0
11
71.5
21
24.0
31
0
0
LINE
8
0
6
CONTINUOUS
10
71.5
20
24.0
30
0
11
64.33
21
24.0
31
0
0
ARC
8
0
6
CONTINUOUS
10
60.899647406931436
20
23.30524746331676
30
0
40
3.5
50
11.449299178945036
51
61.12123507133237
0
LINE
8
0
6
CONTINUOUS
10
62.59
20
26.37
30
0
11
62.59
21
36.7
31
0
0
LINE
8
0
6
CONTINUOUS
10
62.59
20
36.7
30
0
11
74.7
21
36.7
31
0
0
LINE
8
0
6
CONTINUOUS
10
61.39
20
36.7
30
0
11
61.39
21
25.32
31
0
0
ARC
8
0
6
CONTINUOUS
10
60.838823514647146
20
23.262549032906477
30
0
40
2.13
50
200.9776801034273
51
75.00300984690355
0
LINE
8
0
6
CONTINUOUS
10
58.85
20
22.5
30
0
11
58.0
21
22.5
31
0
0
ARC
8
0
6
CONTINUOUS
10
60.59814133660182
20
22.401706586991324
30
0
40
2.6
50
177.83340765181455
51
254.19512878970383
0
LINE
8
0
6
CONTINUOUS
10
59.89
20
19.9
30
0
11
61.73
21
19.9
31
0
0
ARC
8
0
6
CONTINUOUS
10
60.901921806168204
20
23.300630309942594
30
0
40
3.5
50
283.68558867800834
51
350.11863687130574
0
LINE
8
0
6
CONTINUOUS
10
64.35
20
22.7
30
0
11
70.6
21
22.7
31
0
0
ARC
8
0
6
CONTINUOUS
10
70.6
20
21.8
30
0
40
0.9
50
0.0
51
90.0
0
ARC
8
0
6
CONTINUOUS
10
72.39999962639054
20
21.700820059083288
30
0
40
0.9
50
180.05220658991715
51
311.8103468063331
0
LINE
8
0
6
CONTINUOUS
10
73.0
20
21.03
30
0
11
73.0
21
24.5
31
0
0
LINE
8
0
6
CONTINUOUS
10
73.0
20
24.5
30
0
11
74.79
21
24.5
31
0
0
LINE
8
0
6
CONTINUOUS
10
74.79
20
24.5
30
0
11
75.71
21
24.0
31
0
0
LINE
8
0
6
CONTINUOUS
10
75.71
20
24.0
30
0
11
77.0
21
24.0
31
0
0
LINE
8
0
6
CONTINUOUS
10
77.0
20
24.0
30
0
11
77.0
21
37.5
31
0
0
ARC
8
0
6
CONTINUOUS
10
76.5
20
37.5
30
0
40
0.5
50
0.0
51
90.0
0
LINE
8
0
6
CONTINUOUS
10
76.5
20
38.0
30
0
11
54.7
21
38.0
31
0
0
ARC
8
0
6
CONTINUOUS
10
54.7
20
37.5
30
0
40
0.5
50
90.0
51
180.0
0
LINE
8
0
6
CONTINUOUS
10
54.2
20
37.5
30
0
11
54.2
21
36.1
31
0
0
LINE
8
0
6
CONTINUOUS
10
54.2
20
36.1
30
0
11
55.6
21
36.11
31
0
0
LINE
8
0
6
CONTINUOUS
10
55.6
20
36.11
30
0
11
54.7
21
32.74
31
0
0
LINE
8
0
6
CONTINUOUS
10
54.7
20
32.74
30
0
11
54.7
21
28.67
31
0
0
ARC
8
0
6
CONTINUOUS
10
55.35264092035639
20
28.769439882110216
30
0
40
0.6601730538864236
50
188.66326347054442
51
348.6927852103815
0
LINE
8
0
6
CONTINUOUS
10
56.0
20
28.64
30
0
11
56.0
21
32.57
31
0
0
LINE
8
0
6
CONTINUOUS
10
56.0
20
32.57
30
0
11
57.11
21
36.7
31
0
0
LINE
8
0
6
CONTINUOUS
10
57.11
20
36.7
30
0
11
61.39
21
36.7
31
0
0
LINE
8
0
6
CONTINUOUS
10
49.8
20
40.3
30
0
11
51.9
21
37.23
31
0
0
LINE
8
0
6
CONTINUOUS
10
51.9
20
37.23
30
0
11
51.9
21
34.75
31
0
0
ARC
8
0
6
CONTINUOUS
10
51.40006770481048
20
34.75822801473924
30
0
40
0.5
50
246.41335614066642
51
359.05709640355
0
LINE
8
0
6
CONTINUOUS
10
51.2
20
34.3
30
0
11
50.45
21
34.94
31
0
0
LINE
8
0
6
CONTINUOUS
10
50.45
20
34.94
30
0
11
49.42
21
37.28
31
0
0
ARC
8
0
6
CONTINUOUS
10
50.41300308045712
20
38.022660677700564
30
0
40
1.24
50
168.02225667287078
51
216.7925803819304
0
LINE
8
0
6
CONTINUOUS
10
49.2
20
38.28
30
0
11
49.29
21
41.42
31
0
0
ARC
8
0
6
CONTINUOUS
10
54.546533852547405
20
43.13748416499924
30
0
40
5.53
50
198.09393419124467
51
210.87103760344914
0
ARC
8
0
6
CONTINUOUS
10
49.397371850451535
20
41.74754731249378
30
0
40
1.0
50
82.95619505008699
51
175.84512627687147
0
LINE
8
0
6
CONTINUOUS
10
48.4
20
41.82
30
0
11
48.4
21
37.48
31
0
0
LINE
8
0
6
CONTINUOUS
10
48.4
20
37.48
30
0
11
50.2
21
33.07
31
0
0
ARC
8
0
6
CONTINUOUS
10
85.2378372716956
20
17.479218771268066
30
0
40
38.35
50
156.0123778903394
51
160.31082538156213
0
LINE
8
0
6
CONTINUOUS
10
49.13
20
30.4
30
0
11
49.11
21
31.89
31
0
0
ARC
8
0
6
CONTINUOUS
10
48.76059624482375
20
31.8695790335993
30
0
40
0.35
50
3.3448572813784754
51
156.34660955822127
0
LINE
8
0
6
CONTINUOUS
10
48.44
20
32.01
30
0
11
48.44
21
29.08
31
0
0
ARC
8
0
6
CONTINUOUS
10
49.174517856955156
20
29.311048734716287
30
0
40
0.77
50
197.46140461662907
51
292.56572897381193
0
LINE
8
0
6
CONTINUOUS
10
49.47
20
28.6
30
0
11
53.87
21
32.42
31
0
0
LINE
8
0
6
CONTINUOUS
10
53.87
20
32.42
30
0
11
54.36
21
33.47
31
0
0
LINE
8
0
6
CONTINUOUS
10
54.36
20
33.47
30
0
11
54.19
21
38.0
31
0
0
LINE
8
0
6
CONTINUOUS
10
54.19
20
38.0
30
0
11
56.05
21
38.0
31
0
0
LINE
8
0
6
CONTINUOUS
10
56.05
20
38.0
30
0
11
55.78
21
39.19
31
0
0
ARC
8
0
6
CONTINUOUS
10
54.806162839152336
20
38.96275303268876
30
0
40
1.0
50
13.135043193077143
51
75.29530760093877
0
LINE
8
0
6
CONTINUOUS
10
55.06
20
39.93
30
0
11
54.19
21
40.16
31
0
0
ARC
8
0
6
CONTINUOUS
10
54.15317537952914
20
45.60987559007792
30
0
40
5.45
50
211.77484952784957
51
270.3871397045595
0
LINE
8
0
6
CONTINUOUS
10
23.14
20
38.3
30
0
11
20.7
21
38.01
31
0
0
LINE
8
0
6
CONTINUOUS
10
20.7
20
38.01
30
0
11
20.7
21
35.9
31
0
0
LINE
8
0
6
CONTINUOUS
10
20.7
20
35.9
30
0
11
19.32
21
36.28
31
0
0
LINE
8
0
6
CONTINUOUS
10
19.32
20
36.28
30
0
11
18.9
21
35.26
31
0
0
LINE
8
0
6
CONTINUOUS
10
18.9
20
35.26
30
0
11
18.9
21
30.74
31
0
0
LINE
8
0
6
CONTINUOUS
10
18.9
20
30.74
30
0
11
19.39
21
29.9
31
0
0
LINE
8
0
6
CONTINUOUS
10
19.39
20
29.9
30
0
11
20.64
21
29.9
31
0
0
LINE
8
0
6
CONTINUOUS
10
20.64
20
29.9
30
0
11
21.99
21
29.15
31
0
0
LINE
8
0
6
CONTINUOUS
10
21.99
20
29.15
30
0
11
23.07
21
30.92
31
0
0
LINE
8
0
6
CONTINUOUS
10
23.07
20
30.92
30
0
11
23.77
21
29.04
31
0
0
LINE
8
0
6
CONTINUOUS
10
23.77
20
29.04
30
0
11
24.7
21
29.04
31
0
0
LINE
8
0
6
CONTINUOUS
10
24.7
20
29.04
30
0
11
24.7
21
38.13
31
0
0
ARC
8
0
6
CONTINUOUS
10
24.240885255449363
20
38.101475425748944
30
0
40
0.46
50
3.5551889894033675
51
114.5172979464493
0
ARC
8
0
6
CONTINUOUS
10
22.917707893274763
20
41.21152644145431
30
0
40
2.92
50
274.3660047216929
51
292.8158921739905
0
LINE
8
0
6
CONTINUOUS
10
23.12
20
31.94
30
0
11
21.89
21
30.02
31
0
0
ARC
8
0
6
CONTINUOUS
10
25.464270091827252
20
31.77071222954236
30
0
40
3.98
50
126.98281087421034
51
206.09606188416063
0
ARC
8
0
6
CONTINUOUS
10
23.37993414712203
20
34.40151041536986
30
0
40
0.63
50
27.25296856670657
51
119.46942009244057
0
LINE
8
0
6
CONTINUOUS
10
23.94
20
34.69
30
0
11
24.3
21
32.12
31
0
0
ARC
8
0
6
CONTINUOUS
10
13.785043985846427
20
30.703031397519467
30
0
40
10.61
50
353.6524573231689
51
7.674798676857473
0
LINE
8
0
6
CONTINUOUS
10
24.33
20
29.53
30
0
11
23.12
21
31.94
31
0
0
LINE
8
0
6
CONTINUOUS
10
20.8
20
34.2
30
0
11
20.8
21
31.8
31
0
0
LINE
8
0
6
CONTINUOUS
10
20.8
20
31.8
30
0
11
19.5
21
31.8
31
0
0
LINE
8
0
6
CONTINUOUS
10
19.5
20
31.8
30
0
11
19.5
21
34.2
31
0
0
LINE
8
0
6
CONTINUOUS
10
19.5
20
34.2
30
0
11
20.8
21
34.2
31
0
0
ARC
8
0
6
CONTINUOUS
10
21.434261497731764
20
35.1
30
0
40
0.36000000000000143
50
103.53620273738102
51
256.463797262619
0
ARC
8
0
6
CONTINUOUS
10
21.26573850226824
20
35.1
30
0
40
0.36000000000000143
50
283.536202737381
51
76.46379726261898
0
LINE
8
0
6
CONTINUOUS
10
21.96
20
35.64
30
0
11
21.8
21
36.47
31
0
0
LINE
8
0
6
CONTINUOUS
10
21.8
20
36.47
30
0
11
22.77
21
37.03
31
0
0
ARC
8
0
6
CONTINUOUS
10
22.77054122018517
20
36.50000027633903
30
0
40
0.53
50
314.1941608682047
51
90.05850875054139
0
LINE
8
0
6
CONTINUOUS
10
23.14
20
36.12
30
0
11
22.8
21
35.38
31
0
0
ARC
8
0
6
CONTINUOUS
10
22.45040750500842
20
35.73747040079644
30
0
40
0.5
50
191.2412654079136
51
314.36165215195496
0
LINE
8
0
6
CONTINUOUS
10
-13.0
20
21.1
30
0
11
-13.0
21
162.69
31
0
0
LINE
8
0
6
CONTINUOUS
10
22.29
20
26.0
30
0
11
50.59
21
28.0
31
0
0
LINE
8
0
6
CONTINUOUS
10
50.59
20
26.0
30
0
11
22.29
21
28.0
31
0
0
LINE
8
0
6
CONTINUOUS
10
50.59
20
28.0
30
0
11
50.59
21
26.0
31
0
0
LINE
8
0
6
CONTINUOUS
10
22.29
20
26.0
30
0
11
22.29
21
28.0
31
0
0
LINE
8
0
6
CONTINUOUS
10
55.65
20
26.0
30
0
11
20.93
21
26.0
31
0
0
LINE
8
0
6
CONTINUOUS
10
21.19
20
24.0
30
0
11
55.65
21
24.0
31
0
0
LINE
8
0
6
CONTINUOUS
10
20.4
20
22.87
30
0
11
21.19
21
24.0
31
0
0
ARC
8
0
6
CONTINUOUS
10
20.89999983472965
20
22.719090961099056
30
0
40
2.5
50
145.08478713487838
51
179.97916636256602
0
LINE
8
0
6
CONTINUOUS
10
19.7
20
25.36
30
0
11
18.85
21
24.15
31
0
0
ARC
8
0
6
CONTINUOUS
10
20.928983560646227
20
24.500000344383025
30
0
40
1.5
50
89.96117487362729
51
145.01701818607393
0
LINE
8
0
6
CONTINUOUS
10
52.7
20
24.0
30
0
11
52.7
21
20.2
31
0
0
LINE
8
0
6
CONTINUOUS
10
56.15
20
24.5
30
0
11
56.15
21
25.5
31
0
0
ARC
8
0
6
CONTINUOUS
10
55.65
20
25.5
30
0
40
0.5
50
0.0
51
90.0
0
ARC
8
0
6
CONTINUOUS
10
55.65
20
24.5
30
0
40
0.5
50
270.0
51
0.0
0
LINE
8
0
6
CONTINUOUS
10
49.8
20
20.2
30
0
11
49.8
21
24.0
31
0
0
LINE
8
0
6
CONTINUOUS
10
48.0
20
22.0
30
0
11
48.84
21
20.01
31
0
0
LINE
8
0
6
CONTINUOUS
10
48.5
20
24.0
30
0
11
48.89
21
23.08
31
0
0
LINE
8
0
6
CONTINUOUS
10
54.0
20
22.5
30
0
11
54.0
21
24.0
31
0
0
LINE
8
0
6
CONTINUOUS
10
53.66
20
20.01
30
0
11
54.5
21
22.0
31
0
0
LINE
8
0
6
CONTINUOUS
10
22.29
20
28.0
30
0
11
50.59
21
28.0
31
0
0
LINE
8
0
6
CONTINUOUS
10
10.1
20
34.5
30
0
11
10.1
21
162.69
31
0
0
LINE
8
0
6
CONTINUOUS
10
77.0
20
24.0
30
0
11
77.0
21
162.69
31
0
0
ENDSEC
0
EOF