0
SECTION
2
HEADER
0
ENDSEC
0
SECTION
2
TABLES
0
TABLE
2
LTYPE
70
2
0
LTYPE
2
CONTINUOUS
70
0
3
Solid line
72
65
73
0
40
0.0
0
ENDTAB
0
TABLE
2
LAYER
70
1
0
LAYER
2
0
70
0
62
7
6
CONTINUOUS
0
ENDTAB
0
ENDSEC
0
SECTION
2
ENTITIES
0
LINE
8
0
6
CONTINUOUS
10
119.6
20
56.0
30
0
11
119.6
21
-9.0
31
0
0
LINE
8
0
6
CONTINUOUS
10
200.1
20
-9.0
30
0
11
200.1
21
56.0
31
0
0
LINE
8
0
6
CONTINUOUS
10
-12.4
20
56.0
30
0
11
200.1
21
56.0
31
0
0
LINE
8
0
6
CONTINUOUS
10
-12.4
20
-9.0
30
0
11
200.1
21
-9.0
31
0
0
LINE
8
0
6
CONTINUOUS
10
0.0
20
-9.0
30
0
11
0.0
21
56.0
31
0
0
LINE
8
0
6
CONTINUOUS
10
-12.4
20
0.0
30
0
11
200.1
21
0.0
31
0
0
LINE
8
0
6
CONTINUOUS
10
-12.4
20
17.82
30
0
11
-10.82
21
17.82
31
0
0
LINE
8
0
6
CONTINUOUS
10
-10.82
20
17.82
30
0
11
-10.82
21
20.99
31
0
0
LINE
8
0
6
CONTINUOUS
10
-10.82
20
20.99
30
0
11
-5.9
21
20.99
31
0
0
LINE
8
0
6
CONTINUOUS
10
-5.9
20
20.99
30
0
11
-5.9
21
19.8
31
0
0
LINE
8
0
6
CONTINUOUS
10
-5.9
20
19.8
30
0
11
-7.41
21
17.18
31
0
0
ARC
8
0
6
CONTINUOUS
10
-7.640089230888049
20
22.17470308885617
30
0
40
5.0
50
272.637559828726
51
331.64451627189425
0
LINE
8
0
6
CONTINUOUS
10
-3.24
20
19.8
30
0
11
4.3
21
19.8
31
0
0
LINE
8
0
6
CONTINUOUS
10
4.3
20
19.8
30
0
11
4.3
21
24.2
31
0
0
LINE
8
0
6
CONTINUOUS
10
4.3
20
24.2
30
0
11
13.97
21
24.2
31
0
0
ARC
8
0
6
CONTINUOUS
10
14.000000006480471
20
26.69981999344176
30
0
40
2.5
50
269.312433995057
51
0.0041254464322657124
0
LINE
8
0
6
CONTINUOUS
10
16.5
20
26.7
30
0
11
16.5
21
29.7
31
0
0
LINE
8
0
6
CONTINUOUS
10
16.5
20
29.7
30
0
11
18.6
21
29.7
31
0
0
LINE
8
0
6
CONTINUOUS
10
18.6
20
29.7
30
0
11
17.1
21
32.3
31
0
0
LINE
8
0
6
CONTINUOUS
10
17.1
20
32.3
30
0
11
17.1
21
33.5
31
0
0
LINE
8
0
6
CONTINUOUS
10
17.1
20
33.5
30
0
11
22.02
21
33.5
31
0
0
LINE
8
0
6
CONTINUOUS
10
22.02
20
33.5
30
0
11
22.02
21
30.32
31
0
0
LINE
8
0
6
CONTINUOUS
10
22.02
20
30.32
30
0
11
23.6
21
30.32
31
0
0
LINE
8
0
6
CONTINUOUS
10
23.6
20
30.32
30
0
11
23.6
21
46.2
31
0
0
LINE
8
0
6
CONTINUOUS
10
23.6
20
46.2
30
0
11
26.1
21
46.2
31
0
0
ARC
8
0
6
CONTINUOUS
10
26.1
20
46.7
30
0
40
0.5
50
270.0
51
0.0
0
LINE
8
0
6
CONTINUOUS
10
26.6
20
46.7
30
0
11
26.6
21
53.5
31
0
0
ARC
8
0
6
CONTINUOUS
10
27.1
20
53.5
30
0
40
0.5
50
90.0
51
180.0
0
LINE
8
0
6
CONTINUOUS
10
27.1
20
54.0
30
0
11
32.5
21
54.0
31
0
0
ARC
8
0
6
CONTINUOUS
10
32.5
20
53.5
30
0
40
0.5
50
0.0
51
90.0
0
LINE
8
0
6
CONTINUOUS
10
33.0
20
53.5
30
0
11
33.0
21
51.5
31
0
0
ARC
8
0
6
CONTINUOUS
10
33.5
20
51.5
30
0
40
0.5
50
180.0
51
270.0
0
LINE
8
0
6
CONTINUOUS
10
33.5
20
51.0
30
0
11
35.3
21
51.0
31
0
0
LINE
8
0
6
CONTINUOUS
10
35.3
20
51.0
30
0
11
35.3
21
52.0
31
0
0
LINE
8
0
6
CONTINUOUS
10
35.3
20
52.0
30
0
11
34.3
21
52.0
31
0
0
LINE
8
0
6
CONTINUOUS
10
34.3
20
52.0
30
0
11
34.3
21
54.5
31
0
0
LINE
8
0
6
CONTINUOUS
10
34.3
20
54.5
30
0
11
40.3
21
54.5
31
0
0
LINE
8
0
6
CONTINUOUS
10
40.3
20
54.5
30
0
11
40.3
21
52.0
31
0
0
LINE
8
0
6
CONTINUOUS
10
40.3
20
52.0
30
0
11
39.3
21
52.0
31
0
0
LINE
8
0
6
CONTINUOUS
10
39.3
20
52.0
30
0
11
39.3
21
51.0
31
0
0
LINE
8
0
6
CONTINUOUS
10
39.3
20
51.0
30
0
11
41.6
21
51.0
31
0
0
LINE
8
0
6
CONTINUOUS
10
41.6
20
51.0
30
0
11
41.6
21
56.0
31
0
0
LINE
8
0
6
CONTINUOUS
10
41.6
20
56.0
30
0
11
1.6
21
56.0
31
0
0
LINE
8
0
6
CONTINUOUS
10
1.6
20
56.0
30
0
11
1.6
21
53.51
31
0
0
LINE
8
0
6
CONTINUOUS
10
1.6
20
53.51
30
0
11
2.6
21
53.51
31
0
0
LINE
8
0
6
CONTINUOUS
10
2.6
20
53.51
30
0
11
2.6
21
26.0
31
0
0
LINE
8
0
6
CONTINUOUS
10
2.6
20
26.0
30
0
11
0.6
21
26.0
31
0
0
LINE
8
0
6
CONTINUOUS
10
0.6
20
26.0
30
0
11
0.6
21
25.0
31
0
0
LINE
8
0
6
CONTINUOUS
10
0.6
20
25.0
30
0
11
1.6
21
25.0
31
0
0
LINE
8
0
6
CONTINUOUS
10
1.6
20
25.0
30
0
11
1.6
21
23.5
31
0
0
ARC
8
0
6
CONTINUOUS
10
0.6000000000000001
20
23.5
30
0
40
1.0
50
270.0
51
0.0
0
LINE
8
0
6
CONTINUOUS
10
0.6
20
22.5
30
0
11
-3.4
21
22.5
31
0
0
ARC
8
0
6
CONTINUOUS
10
-3.4000000000000004
20
23.5
30
0
40
1.0
50
180.0
51
270.0
0
LINE
8
0
6
CONTINUOUS
10
-4.4
20
23.5
30
0
11
-4.4
21
25.0
31
0
0
LINE
8
0
6
CONTINUOUS
10
-4.4
20
25.0
30
0
11
-3.4
21
25.0
31
0
0
LINE
8
0
6
CONTINUOUS
10
-3.4
20
25.0
30
0
11
-3.4
21
26.0
31
0
0
LINE
8
0
6
CONTINUOUS
10
-3.4
20
26.0
30
0
11
-12.4
21
26.0
31
0
0
LINE
8
0
6
CONTINUOUS
10
-12.4
20
26.0
30
0
11
-12.4
21
17.82
31
0
0
LINE
8
0
6
CONTINUOUS
10
4.3
20
53.99
30
0
11
24.9
21
53.99
31
0
0
LINE
8
0
6
CONTINUOUS
10
24.9
20
53.99
30
0
11
24.9
21
47.9
31
0
0
LINE
8
0
6
CONTINUOUS
10
24.9
20
47.9
30
0
11
21.9
21
47.9
31
0
0
LINE
8
0
6
CONTINUOUS
10
21.9
20
47.9
30
0
11
21.9
21
42.8
31
0
0
LINE
8
0
6
CONTINUOUS
10
21.9
20
42.8
30
0
11
21.1
21
42.0
31
0
0
LINE
8
0
6
CONTINUOUS
10
21.1
20
42.0
30
0
11
21.1
21
35.2
31
0
0
LINE
8
0
6
CONTINUOUS
10
21.1
20
35.2
30
0
11
14.8
21
35.2
31
0
0
LINE
8
0
6
CONTINUOUS
10
14.8
20
35.2
30
0
11
14.8
21
26.0
31
0
0
LINE
8
0
6
CONTINUOUS
10
14.8
20
26.0
30
0
11
4.3
21
26.0
31
0
0
LINE
8
0
6
CONTINUOUS
10
4.3
20
26.0
30
0
11
4.3
21
53.99
31
0
0
LINE
8
0
6
CONTINUOUS
10
-12.4
20
-0.0
30
0
11
4.6
21
-0.0
31
0
0
LINE
8
0
6
CONTINUOUS
10
4.6
20
-0.0
30
0
11
4.6
21
-7.55
31
0
0
ARC
8
0
6
CONTINUOUS
10
6.099166442780966
20
-7.500000231605897
30
0
40
1.5
50
181.91020432009742
51
270.0318395420609
0
LINE
8
0
6
CONTINUOUS
10
6.1
20
-9.0
30
0
11
16.1
21
-9.0
31
0
0
ARC
8
0
6
CONTINUOUS
10
16.1
20
-8.5
30
0
40
0.5
50
270.0
51
0.0
0
LINE
8
0
6
CONTINUOUS
10
16.6
20
-8.5
30
0
11
16.6
21
-0.5
31
0
0
LINE
8
0
6
CONTINUOUS
10
16.6
20
-0.5
30
0
11
26.6
21
-0.5
31
0
0
LINE
8
0
6
CONTINUOUS
10
26.6
20
-0.5
30
0
11
26.6
21
0.8
31
0
0
LINE
8
0
6
CONTINUOUS
10
26.6
20
0.8
30
0
11
23.6
21
0.8
31
0
0
LINE
8
0
6
CONTINUOUS
10
23.6
20
0.8
30
0
11
23.6
21
6.68
31
0
0
LINE
8
0
6
CONTINUOUS
10
23.6
20
6.68
30
0
11
22.02
21
6.68
31
0
0
LINE
8
0
6
CONTINUOUS
10
22.02
20
6.68
30
0
11
22.02
21
3.5
31
0
0
LINE
8
0
6
CONTINUOUS
10
22.02
20
3.5
30
0
11
17.1
21
3.5
31
0
0
LINE
8
0
6
CONTINUOUS
10
17.1
20
3.5
30
0
11
17.1
21
4.7
31
0
0
LINE
8
0
6
CONTINUOUS
10
17.1
20
4.7
30
0
11
18.61
21
7.32
31
0
0
ARC
8
0
6
CONTINUOUS
10
18.8400481694502
20
2.3252950197501545
30
0
40
5.0
50
92.63708880039817
51
166.41185528017542
0
LINE
8
0
6
CONTINUOUS
10
13.98
20
3.5
30
0
11
11.93
21
3.5
31
0
0
LINE
8
0
6
CONTINUOUS
10
11.93
20
3.5
30
0
11
9.42
21
4.5
31
0
0
LINE
8
0
6
CONTINUOUS
10
9.42
20
4.5
30
0
11
7.12
21
4.5
31
0
0
LINE
8
0
6
CONTINUOUS
10
7.12
20
4.5
30
0
11
7.12
21
3.65
31
0
0
LINE
8
0
6
CONTINUOUS
10
7.12
20
3.65
30
0
11
8.6
21
3.16
31
0
0
LINE
8
0
6
CONTINUOUS
10
8.6
20
3.16
30
0
11
8.6
21
2.0
31
0
0
LINE
8
0
6
CONTINUOUS
10
8.6
20
2.0
30
0
11
-3.4
21
2.0
31
0
0
LINE
8
0
6
CONTINUOUS
10
-3.4
20
2.0
30
0
11
-3.4
21
3.16
31
0
0
LINE
8
0
6
CONTINUOUS
10
-3.4
20
3.16
30
0
11
-1.91
21
3.65
31
0
0
LINE
8
0
6
CONTINUOUS
10
-1.91
20
3.65
30
0
11
-1.91
21
4.5
31
0
0
LINE
8
0
6
CONTINUOUS
10
-1.91
20
4.5
30
0
11
-3.14
21
4.5
31
0
0
ARC
8
0
6
CONTINUOUS
10
-7.642346153935103
20
2.3254013910273463
30
0
40
5.0
50
25.780185762184917
51
87.33655004061355
0
LINE
8
0
6
CONTINUOUS
10
-7.41
20
7.32
30
0
11
-5.9
21
4.7
31
0
0
LINE
8
0
6
CONTINUOUS
10
-5.9
20
4.7
30
0
11
-5.9
21
3.51
31
0
0
LINE
8
0
6
CONTINUOUS
10
-5.9
20
3.51
30
0
11
-10.82
21
3.51
31
0
0
LINE
8
0
6
CONTINUOUS
10
-10.82
20
3.51
30
0
11
-10.82
21
6.68
31
0
0
LINE
8
0
6
CONTINUOUS
10
-10.82
20
6.68
30
0
11
-12.4
21
6.68
31
0
0
LINE
8
0
6
CONTINUOUS
10
-12.4
20
6.68
30
0
11
-12.4
21
-0.0
31
0
0
LINE
8
0
6
CONTINUOUS
10
6.3
20
-7.0
30
0
11
6.3
21
-0.0
31
0
0
LINE
8
0
6
CONTINUOUS
10
6.3
20
-0.0
30
0
11
10.25
21
-0.0
31
0
0
LINE
8
0
6
CONTINUOUS
10
10.25
20
-0.0
30
0
11
10.25
21
1.8
31
0
0
LINE
8
0
6
CONTINUOUS
10
10.25
20
1.8
30
0
11
14.9
21
1.8
31
0
0
LINE
8
0
6
CONTINUOUS
10
14.9
20
1.8
30
0
11
14.9
21
-7.0
31
0
0
LINE
8
0
6
CONTINUOUS
10
14.9
20
-7.0
30
0
11
6.3
21
-7.0
31
0
0
LINE
8
0
6
CONTINUOUS
10
41.53
20
49.78
30
0
11
41.53
21
51.0
31
0
0
LINE
8
0
6
CONTINUOUS
10
41.53
20
51.0
30
0
11
38.99
21
51.0
31
0
0
LINE
8
0
6
CONTINUOUS
10
38.99
20
51.0
30
0
11
38.99
21
52.0
31
0
0
LINE
8
0
6
CONTINUOUS
10
38.99
20
52.0
30
0
11
39.82
21
52.0
31
0
0
LINE
8
0
6
CONTINUOUS
10
39.82
20
52.0
30
0
11
38.88
21
53.48
31
0
0
LINE
8
0
6
CONTINUOUS
10
38.88
20
53.48
30
0
11
35.69
21
53.48
31
0
0
LINE
8
0
6
CONTINUOUS
10
35.69
20
53.48
30
0
11
34.75
21
52.0
31
0
0
LINE
8
0
6
CONTINUOUS
10
34.75
20
52.0
30
0
11
35.58
21
52.0
31
0
0
LINE
8
0
6
CONTINUOUS
10
35.58
20
52.0
30
0
11
35.58
21
51.0
31
0
0
LINE
8
0
6
CONTINUOUS
10
35.58
20
51.0
30
0
11
33.81
21
51.0
31
0
0
ARC
8
0
6
CONTINUOUS
10
34.819811097624175
20
50.980466768955196
30
0
40
1.01
50
178.8918401207895
51
253.91633700536826
0
ARC
8
0
6
CONTINUOUS
10
37.56868826596983
20
59.54032252274689
30
0
40
10.0
50
252.37000674233775
51
285.19655609183656
0
ARC
8
0
6
CONTINUOUS
10
40.25694003554478
20
49.51594247549172
30
0
40
0.38
50
290.4969672419041
51
100.14605290782573
0
ARC
8
0
6
CONTINUOUS
10
37.63593917768158
20
53.22487994742413
30
0
40
4.91
50
244.8597887675507
51
304.1186511109988
0
ARC
8
0
6
CONTINUOUS
10
35.3281076977962
20
48.4948418244361
30
0
40
0.3613189434118235
50
52.11217256936076
51
259.1348901972896
0
ARC
8
0
6
CONTINUOUS
10
37.71142950365112
20
53.638262760966306
30
0
40
6.02
50
245.9700448738099
51
304.717456524828
0
ARC
8
0
6
CONTINUOUS
10
39.36587342396005
20
49.93954987583081
30
0
40
2.17
50
324.84226119005916
51
355.7835064136891
0
LINE
8
0
6
CONTINUOUS
10
38.19
20
51.78
30
0
11
36.39
21
51.78
31
0
0
LINE
8
0
6
CONTINUOUS
10
36.39
20
51.78
30
0
11
36.39
21
52.78
31
0
0
ARC
8
0
6
CONTINUOUS
10
37.29
20
55.24056903987675
30
0
40
2.62
50
249.90904437645003
51
290.09095562355
0
LINE
8
0
6
CONTINUOUS
10
38.19
20
52.78
30
0
11
38.19
21
51.78
31
0
0
LINE
8
0
6
CONTINUOUS
10
37.29
20
50.26
30
0
11
37.77
21
51.11
31
0
0
LINE
8
0
6
CONTINUOUS
10
37.77
20
51.11
30
0
11
38.69
21
51.0
31
0
0
LINE
8
0
6
CONTINUOUS
10
38.69
20
51.0
30
0
11
38.3
21
50.28
31
0
0
ARC
8
0
6
CONTINUOUS
10
37.564296054362416
20
59.9019145550339
30
0
40
9.65
50
263.18984822238036
51
274.3724013073571
0
LINE
8
0
6
CONTINUOUS
10
36.42
20
50.32
30
0
11
35.89
21
51.0
31
0
0
LINE
8
0
6
CONTINUOUS
10
35.89
20
51.0
30
0
11
36.81
21
51.11
31
0
0
LINE
8
0
6
CONTINUOUS
10
36.81
20
51.11
30
0
11
37.29
21
50.26
31
0
0
ARC
8
0
6
CONTINUOUS
10
20.400007880665097
20
10.736029953640747
30
0
40
1.0
50
299.9994786207635
51
0.22746749838852154
0
LINE
8
0
6
CONTINUOUS
10
20.9
20
9.87
30
0
11
19.7
21
9.18
31
0
0
LINE
8
0
6
CONTINUOUS
10
19.7
20
9.18
30
0
11
17.3
21
5.01
31
0
0
ARC
8
0
6
CONTINUOUS
10
18.16602083290218
20
4.509992083083265
30
0
40
1.0
50
149.9994762196227
51
270.2279900823423
0
LINE
8
0
6
CONTINUOUS
10
18.17
20
3.5
30
0
11
22.02
21
3.5
31
0
0
LINE
8
0
6
CONTINUOUS
10
22.02
20
3.5
30
0
11
22.02
21
6.68
31
0
0
LINE
8
0
6
CONTINUOUS
10
22.02
20
6.68
30
0
11
23.6
21
6.68
31
0
0
LINE
8
0
6
CONTINUOUS
10
23.6
20
6.68
30
0
11
23.6
21
30.32
31
0
0
LINE
8
0
6
CONTINUOUS
10
23.6
20
30.32
30
0
11
22.02
21
30.32
31
0
0
LINE
8
0
6
CONTINUOUS
10
22.02
20
30.32
30
0
11
22.02
21
33.5
31
0
0
LINE
8
0
6
CONTINUOUS
10
22.02
20
33.5
30
0
11
18.17
21
33.5
31
0
0
ARC
8
0
6
CONTINUOUS
10
18.166020832902177
20
32.49000791691674
30
0
40
1.0
50
89.77200991765751
51
210.00052378037768
0
LINE
8
0
6
CONTINUOUS
10
17.3
20
31.99
30
0
11
19.7
21
27.81
31
0
0
LINE
8
0
6
CONTINUOUS
10
19.7
20
27.81
30
0
11
20.9
21
27.13
31
0
0
ARC
8
0
6
CONTINUOUS
10
20.400007880665097
20
26.26397004635925
30
0
40
1.0
50
359.7725325016117
51
60.00052137923651
0
LINE
8
0
6
CONTINUOUS
10
21.4
20
26.26
30
0
11
21.4
21
10.74
31
0
0
LINE
8
0
6
CONTINUOUS
10
-12.4
20
17.82
30
0
11
-12.4
21
6.68
31
0
0
LINE
8
0
6
CONTINUOUS
10
-12.4
20
6.68
30
0
11
-10.82
21
6.68
31
0
0
LINE
8
0
6
CONTINUOUS
10
-10.82
20
6.68
30
0
11
-10.82
21
3.51
31
0
0
LINE
8
0
6
CONTINUOUS
10
-10.82
20
3.51
30
0
11
-6.81
21
3.51
31
0
0
ARC
8
0
6
CONTINUOUS
10
-6.9607473301344776
20
4.498572325354765
30
0
40
1.0
50
278.6702379056005
51
32.780879825520586
0
LINE
8
0
6
CONTINUOUS
10
-6.12
20
5.04
30
0
11
-8.21
21
8.67
31
0
0
ARC
8
0
6
CONTINUOUS
10
-9.511386718001138
20
7.924082705516067
30
0
40
1.5
50
29.820089701702425
51
62.12195416045581
0
LINE
8
0
6
CONTINUOUS
10
-8.81
20
9.25
30
0
11
-9.69
21
9.74
31
0
0
ARC
8
0
6
CONTINUOUS
10
-9.200001484826567
20
10.611723267515462
30
0
40
1.0
50
180.0987360044766
51
240.6595160182602
0
LINE
8
0
6
CONTINUOUS
10
-10.2
20
10.61
30
0
11
-10.2
21
13.89
31
0
0
ARC
8
0
6
CONTINUOUS
10
-9.200001484826567
20
13.888276732484538
30
0
40
1.0
50
119.34048398173978
51
179.9012639955234
0
LINE
8
0
6
CONTINUOUS
10
-9.69
20
14.76
30
0
11
-8.81
21
15.25
31
0
0
ARC
8
0
6
CONTINUOUS
10
-9.511386718001138
20
16.575917294483933
30
0
40
1.5
50
297.8780458395442
51
330.17991029829756
0
LINE
8
0
6
CONTINUOUS
10
-8.21
20
15.83
30
0
11
-6.12
21
19.46
31
0
0
ARC
8
0
6
CONTINUOUS
10
-6.960747330134479
20
20.001427674645235
30
0
40
1.0
50
327.2191201744795
51
81.32976209439938
0
LINE
8
0
6
CONTINUOUS
10
-6.81
20
20.99
30
0
11
-10.82
21
20.99
31
0
0
LINE
8
0
6
CONTINUOUS
10
-10.82
20
20.99
30
0
11
-10.82
21
17.82
31
0
0
LINE
8
0
6
CONTINUOUS
10
-10.82
20
17.82
30
0
11
-12.4
21
17.82
31
0
0
LINE
8
0
6
CONTINUOUS
10
21.6
20
-9.0
30
0
11
119.6
21
-9.0
31
0
0
LINE
8
0
6
CONTINUOUS
10
119.6
20
-9.0
30
0
11
119.6
21
-4.0
31
0
0
LINE
8
0
6
CONTINUOUS
10
119.6
20
-4.0
30
0
11
117.3
21
-4.0
31
0
0
LINE
8
0
6
CONTINUOUS
10
117.3
20
-4.0
30
0
11
117.3
21
-5.0
31
0
0
LINE
8
0
6
CONTINUOUS
10
117.3
20
-5.0
30
0
11
118.3
21
-5.0
31
0
0
LINE
8
0
6
CONTINUOUS
10
118.3
20
-5.0
30
0
11
118.3
21
-7.5
31
0
0
LINE
8
0
6
CONTINUOUS
10
118.3
20
-7.5
30
0
11
112.3
21
-7.5
31
0
0
LINE
8
0
6
CONTINUOUS
10
112.3
20
-7.5
30
0
11
112.3
21
-5.0
31
0
0
LINE
8
0
6
CONTINUOUS
10
112.3
20
-5.0
30
0
11
113.3
21
-5.0
31
0
0
LINE
8
0
6
CONTINUOUS
10
113.3
20
-5.0
30
0
11
113.3
21
-4.0
31
0
0
LINE
8
0
6
CONTINUOUS
10
113.3
20
-4.0
30
0
11
109.5
21
-4.0
31
0
0
LINE
8
0
6
CONTINUOUS
10
109.5
20
-4.0
30
0
11
109.5
21
-5.2
31
0
0
LINE
8
0
6
CONTINUOUS
10
109.5
20
-5.2
30
0
11
111.0
21
-5.2
31
0
0
LINE
8
0
6
CONTINUOUS
10
111.0
20
-5.2
30
0
11
111.0
21
-7.0
31
0
0
LINE
8
0
6
CONTINUOUS
10
111.0
20
-7.0
30
0
11
99.4
21
-7.0
31
0
0
LINE
8
0
6
CONTINUOUS
10
99.4
20
-7.0
30
0
11
93.33
21
-6.57
31
0
0
ARC
8
0
6
CONTINUOUS
10
93.39999699188759
20
-5.572452797544553
30
0
40
1.0
50
179.8594649117819
51
265.9861855578916
0
LINE
8
0
6
CONTINUOUS
10
92.4
20
-5.57
30
0
11
92.4
21
0.0
31
0
0
LINE
8
0
6
CONTINUOUS
10
92.4
20
0.0
30
0
11
94.4
21
0.0
31
0
0
LINE
8
0
6
CONTINUOUS
10
94.4
20
0.0
30
0
11
94.4
21
5.18
31
0
0
LINE
8
0
6
CONTINUOUS
10
94.4
20
5.18
30
0
11
92.82
21
5.18
31
0
0
LINE
8
0
6
CONTINUOUS
10
92.82
20
5.18
30
0
11
92.82
21
2.0
31
0
0
LINE
8
0
6
CONTINUOUS
10
92.82
20
2.0
30
0
11
87.9
21
2.0
31
0
0
LINE
8
0
6
CONTINUOUS
10
87.9
20
2.0
30
0
11
87.9
21
3.2
31
0
0
LINE
8
0
6
CONTINUOUS
10
87.9
20
3.2
30
0
11
89.41
21
5.82
31
0
0
ARC
8
0
6
CONTINUOUS
10
89.6400481694502
20
0.8252950197501554
30
0
40
5.0
50
92.63708880039817
51
166.41185528017542
0
LINE
8
0
6
CONTINUOUS
10
84.78
20
2.0
30
0
11
49.22
21
2.0
31
0
0
ARC
8
0
6
CONTINUOUS
10
44.359951830549804
20
0.8252950197501554
30
0
40
5.0
50
13.588144719824607
51
87.36291119960184
0
LINE
8
0
6
CONTINUOUS
10
44.59
20
5.82
30
0
11
46.1
21
3.2
31
0
0
LINE
8
0
6
CONTINUOUS
10
46.1
20
3.2
30
0
11
46.1
21
2.01
31
0
0
LINE
8
0
6
CONTINUOUS
10
46.1
20
2.01
30
0
11
41.18
21
2.01
31
0
0
LINE
8
0
6
CONTINUOUS
10
41.18
20
2.01
30
0
11
41.18
21
5.18
31
0
0
LINE
8
0
6
CONTINUOUS
10
41.18
20
5.18
30
0
11
39.6
21
5.18
31
0
0
LINE
8
0
6
CONTINUOUS
10
39.6
20
5.18
30
0
11
39.6
21
2.0
31
0
0
LINE
8
0
6
CONTINUOUS
10
39.6
20
2.0
30
0
11
36.6
21
2.0
31
0
0
LINE
8
0
6
CONTINUOUS
10
36.6
20
2.0
30
0
11
36.6
21
-7.0
31
0
0
LINE
8
0
6
CONTINUOUS
10
36.6
20
-7.0
30
0
11
30.2
21
-7.0
31
0
0
LINE
8
0
6
CONTINUOUS
10
30.2
20
-7.0
30
0
11
30.2
21
-4.0
31
0
0
LINE
8
0
6
CONTINUOUS
10
30.2
20
-4.0
30
0
11
27.9
21
-4.0
31
0
0
LINE
8
0
6
CONTINUOUS
10
27.9
20
-4.0
30
0
11
27.9
21
-5.0
31
0
0
LINE
8
0
6
CONTINUOUS
10
27.9
20
-5.0
30
0
11
28.9
21
-5.0
31
0
0
LINE
8
0
6
CONTINUOUS
10
28.9
20
-5.0
30
0
11
28.9
21
-7.5
31
0
0
LINE
8
0
6
CONTINUOUS
10
28.9
20
-7.5
30
0
11
22.9
21
-7.5
31
0
0
LINE
8
0
6
CONTINUOUS
10
22.9
20
-7.5
30
0
11
22.9
21
-5.0
31
0
0
LINE
8
0
6
CONTINUOUS
10
22.9
20
-5.0
30
0
11
23.9
21
-5.0
31
0
0
LINE
8
0
6
CONTINUOUS
10
23.9
20
-5.0
30
0
11
23.9
21
-4.0
31
0
0
LINE
8
0
6
CONTINUOUS
10
23.9
20
-4.0
30
0
11
21.6
21
-4.0
31
0
0
LINE
8
0
6
CONTINUOUS
10
21.6
20
-4.0
30
0
11
21.6
21
-9.0
31
0
0
LINE
8
0
6
CONTINUOUS
10
38.4
20
-7.0
30
0
11
38.4
21
0.2
31
0
0
LINE
8
0
6
CONTINUOUS
10
38.4
20
0.2
30
0
11
90.6
21
0.2
31
0
0
LINE
8
0
6
CONTINUOUS
10
90.6
20
0.2
30
0
11
90.6
21
-7.0
31
0
0
LINE
8
0
6
CONTINUOUS
10
90.6
20
-7.0
30
0
11
38.4
21
-7.0
31
0
0
LINE
8
0
6
CONTINUOUS
10
91.5
20
43.76
30
0
11
98.33
21
50.59
31
0
0
LINE
8
0
6
CONTINUOUS
10
98.33
20
50.59
30
0
11
97.42
21
54.0
31
0
0
LINE
8
0
6
CONTINUOUS
10
97.42
20
54.0
30
0
11
102.1
21
54.0
31
0
0
LINE
8
0
6
CONTINUOUS
10
102.1
20
54.0
30
0
11
102.1
21
50.01
31
0
0
LINE
8
0
6
CONTINUOUS
10
102.1
20
50.01
30
0
11
103.4
21
50.01
31
0
0
LINE
8
0
6
CONTINUOUS
10
103.4
20
50.01
30
0
11
103.4
21
54.0
31
0
0
LINE
8
0
6
CONTINUOUS
10
103.4
20
54.0
30
0
11
113.54
21
54.43
31
0
0
ARC
8
0
6
CONTINUOUS
10
113.60000048039984
20
52.93120049961585
30
0
40
1.5
50
359.95414428757454
51
92.29246114057564
0
LINE
8
0
6
CONTINUOUS
10
115.1
20
52.93
30
0
11
115.1
21
37.5
31
0
0
LINE
8
0
6
CONTINUOUS
10
115.1
20
37.5
30
0
11
113.0
21
37.5
31
0
0
LINE
8
0
6
CONTINUOUS
10
113.0
20
37.5
30
0
11
106.6
21
35.17
31
0
0
LINE
8
0
6
CONTINUOUS
10
106.6
20
35.17
30
0
11
106.6
21
33.79
31
0
0
LINE
8
0
6
CONTINUOUS
10
106.6
20
33.79
30
0
11
112.6
21
35.97
31
0
0
LINE
8
0
6
CONTINUOUS
10
112.6
20
35.97
30
0
11
112.6
21
34.0
31
0
0
LINE
8
0
6
CONTINUOUS
10
112.6
20
34.0
30
0
11
114.6
21
34.0
31
0
0
LINE
8
0
6
CONTINUOUS
10
114.6
20
34.0
30
0
11
114.6
21
36.0
31
0
0
LINE
8
0
6
CONTINUOUS
10
114.6
20
36.0
30
0
11
116.6
21
36.0
31
0
0
LINE
8
0
6
CONTINUOUS
10
116.6
20
36.0
30
0
11
116.6
21
56.0
31
0
0
LINE
8
0
6
CONTINUOUS
10
116.6
20
56.0
30
0
11
95.1
21
56.0
31
0
0
LINE
8
0
6
CONTINUOUS
10
95.1
20
56.0
30
0
11
95.1
21
55.0
31
0
0
LINE
8
0
6
CONTINUOUS
10
95.1
20
55.0
30
0
11
95.87
21
54.0
31
0
0
LINE
8
0
6
CONTINUOUS
10
95.87
20
54.0
30
0
11
96.55
21
51.46
31
0
0
LINE
8
0
6
CONTINUOUS
10
96.55
20
51.46
30
0
11
95.81
21
50.72
31
0
0
LINE
8
0
6
CONTINUOUS
10
95.81
20
50.72
30
0
11
92.4
21
51.02
31
0
0
LINE
8
0
6
CONTINUOUS
10
92.4
20
51.02
30
0
11
92.4
21
49.51
31
0
0
LINE
8
0
6
CONTINUOUS
10
92.4
20
49.51
30
0
11
95.19
21
49.28
31
0
0
LINE
8
0
6
CONTINUOUS
10
95.19
20
49.28
30
0
11
90.6
21
44.7
31
0
0
LINE
8
0
6
CONTINUOUS
10
90.6
20
44.7
30
0
11
90.6
21
40.5
31
0
0
LINE
8
0
6
CONTINUOUS
10
90.6
20
40.5
30
0
11
91.5
21
40.5
31
0
0
LINE
8
0
6
CONTINUOUS
10
91.5
20
40.5
30
0
11
91.5
21
43.76
31
0
0
ARC
8
0
6
CONTINUOUS
10
104.71411998133428
20
34.608018567586136
30
0
40
7.82
50
278.796521163431
51
307.08891806921577
0
ARC
8
0
6
CONTINUOUS
10
106.51922934628627
20
31.775556371795794
30
0
40
4.48
50
310.5209159070903
51
329.7700004287878
0
ARC
8
0
6
CONTINUOUS
10
110.88663592744045
20
29.462097015833702
30
0
40
0.5
50
14.821347799502504
51
173.34988576044722
0
LINE
8
0
6
CONTINUOUS
10
111.37
20
29.59
30
0
11
111.77
21
28.53
31
0
0
ARC
8
0
6
CONTINUOUS
10
113.04915963071217
20
29.020561554910618
30
0
40
1.37
50
200.9819686271549
51
253.06076125355713
0
LINE
8
0
6
CONTINUOUS
10
112.65
20
27.71
30
0
11
115.13
21
26.99
31
0
0
ARC
8
0
6
CONTINUOUS
10
116.0399717913578
20
30.33855959166521
30
0
40
3.47
50
254.79699982793005
51
268.34906212910875
0
LINE
8
0
6
CONTINUOUS
10
115.94
20
26.87
30
0
11
117.98
21
26.87
31
0
0
ARC
8
0
6
CONTINUOUS
10
117.9838707260329
20
28.01999348584241
30
0
40
1.15
50
269.8071507094896
51
44.07966163228027
0
ARC
8
0
6
CONTINUOUS
10
122.39267413924672
20
32.3077565872596
30
0
40
5.0
50
189.41308788875028
51
224.2308745144131
0
LINE
8
0
6
CONTINUOUS
10
117.46
20
31.49
30
0
11
116.83
21
35.34
31
0
0
LINE
8
0
6
CONTINUOUS
10
116.83
20
35.34
30
0
11
114.85
21
34.96
31
0
0
LINE
8
0
6
CONTINUOUS
10
114.85
20
34.96
30
0
11
115.08
21
33.5
31
0
0
LINE
8
0
6
CONTINUOUS
10
115.08
20
33.5
30
0
11
112.23
21
33.5
31
0
0
LINE
8
0
6
CONTINUOUS
10
112.23
20
33.5
30
0
11
112.23
21
34.88
31
0
0
LINE
8
0
6
CONTINUOUS
10
112.23
20
34.88
30
0
11
111.37
21
34.72
31
0
0
ARC
8
0
6
CONTINUOUS
10
120.55193690733877
20
26.595984082385737
30
0
40
12.26
50
138.49816466091573
51
149.7621883036411
0
ARC
8
0
6
CONTINUOUS
10
101.25811332698628
20
36.680085463263715
30
0
40
9.54
50
296.46752054537006
51
335.803820788589
0
ARC
8
0
6
CONTINUOUS
10
105.81440953224414
20
27.5431458832521
30
0
40
0.67
50
117.02264299511432
51
278.2025126907325
0
ARC
8
0
6
CONTINUOUS
10
113.82003946374151
20
29.39318481798648
30
0
40
0.77
50
84.78704013373778
51
258.0039966800766
0
LINE
8
0
6
CONTINUOUS
10
113.89
20
30.16
30
0
11
115.2
21
30.16
31
0
0
ARC
8
0
6
CONTINUOUS
10
118.37017618083163
20
32.2733109053066
30
0
40
3.81
50
213.68831724085038
51
263.21428040006253
0
ARC
8
0
6
CONTINUOUS
10
117.9622246046444
20
28.001822693314583
30
0
40
0.49
50
254.3448889872047
51
94.94346092708433
0
LINE
8
0
6
CONTINUOUS
10
117.83
20
27.53
30
0
11
116.27
21
27.67
31
0
0
LINE
8
0
6
CONTINUOUS
10
116.27
20
27.67
30
0
11
113.66
21
28.64
31
0
0
LINE
8
0
6
CONTINUOUS
10
114.39
20
30.92
30
0
11
112.79
21
30.92
31
0
0
ARC
8
0
6
CONTINUOUS
10
112.78999997764826
20
31.6
30
0
40
0.68
50
89.99999811667578
51
270.0000018833242
0
LINE
8
0
6
CONTINUOUS
10
112.79
20
32.28
30
0
11
114.39
21
32.28
31
0
0
ARC
8
0
6
CONTINUOUS
10
114.39000002235174
20
31.6
30
0
40
0.68
50
269.9999981166758
51
90.00000188332422
0
LINE
8
0
6
CONTINUOUS
10
110.15
20
-3.7
30
0
11
112.55
21
-3.7
31
0
0
ARC
8
0
6
CONTINUOUS
10
113.05
20
-3.7
30
0
40
0.5
50
0.0
51
180.0
0
LINE
8
0
6
CONTINUOUS
10
113.55
20
-3.7
30
0
11
113.55
21
-5.0
31
0
0
LINE
8
0
6
CONTINUOUS
10
113.55
20
-5.0
30
0
11
112.54
21
-5.0
31
0
0
LINE
8
0
6
CONTINUOUS
10
112.54
20
-5.0
30
0
11
112.93
21
-5.81
31
0
0
LINE
8
0
6
CONTINUOUS
10
112.93
20
-5.81
30
0
11
114.13
21
-7.0
31
0
0
LINE
8
0
6
CONTINUOUS
10
114.13
20
-7.0
30
0
11
116.18
21
-7.0
31
0
0
LINE
8
0
6
CONTINUOUS
10
116.18
20
-7.0
30
0
11
117.37
21
-5.81
31
0
0
LINE
8
0
6
CONTINUOUS
10
117.37
20
-5.81
30
0
11
117.8
21
-5.0
31
0
0
LINE
8
0
6
CONTINUOUS
10
117.8
20
-5.0
30
0
11
116.75
21
-5.0
31
0
0
LINE
8
0
6
CONTINUOUS
10
116.75
20
-5.0
30
0
11
116.75
21
-3.7
31
0
0
ARC
8
0
6
CONTINUOUS
10
117.25
20
-3.7
30
0
40
0.5
50
0.0
51
180.0
0
LINE
8
0
6
CONTINUOUS
10
117.75
20
-3.7
30
0
11
119.65
21
-3.7
31
0
0
LINE
8
0
6
CONTINUOUS
10
119.65
20
-3.7
30
0
11
119.65
21
-4.6
31
0
0
LINE
8
0
6
CONTINUOUS
10
119.65
20
-4.6
30
0
11
120.13
21
-3.24
31
0
0
ARC
8
0
6
CONTINUOUS
10
122.37321914733984
20
-3.4145504425887747
30
0
40
2.25
50
96.7182043798253
51
175.5506388821288
0
LINE
8
0
6
CONTINUOUS
10
122.11
20
-1.18
30
0
11
123.18
21
-1.05
31
0
0
ARC
8
0
6
CONTINUOUS
10
123.25018751296155
20
-0.6257669119171939
30
0
40
0.43
50
260.60576035053504
51
98.04616585349716
0
LINE
8
0
6
CONTINUOUS
10
123.19
20
-0.2
30
0
11
120.79
21
-0.2
31
0
0
ARC
8
0
6
CONTINUOUS
10
120.80078471563337
20
-2.5999757686086555
30
0
40
2.4
50
90.2574669869318
51
137.54663383508924
0
LINE
8
0
6
CONTINUOUS
10
119.03
20
-0.98
30
0
11
118.35
21
-1.54
31
0
0
LINE
8
0
6
CONTINUOUS
10
118.35
20
-1.54
30
0
11
117.15
21
-0.22
31
0
0
LINE
8
0
6
CONTINUOUS
10
117.15
20
-0.22
30
0
11
116.16
21
-1.39
31
0
0
LINE
8
0
6
CONTINUOUS
10
116.16
20
-1.39
30
0
11
115.1
21
-0.22
31
0
0
LINE
8
0
6
CONTINUOUS
10
115.1
20
-0.22
30
0
11
114.11
21
-1.38
31
0
0
LINE
8
0
6
CONTINUOUS
10
114.11
20
-1.38
30
0
11
113.15
21
-0.21
31
0
0
LINE
8
0
6
CONTINUOUS
10
113.15
20
-0.21
30
0
11
112.15
21
-1.39
31
0
0
LINE
8
0
6
CONTINUOUS
10
112.15
20
-1.39
30
0
11
111.18
21
-0.19
31
0
0
LINE
8
0
6
CONTINUOUS
10
111.18
20
-0.19
30
0
11
110.15
21
-1.4
31
0
0
LINE
8
0
6
CONTINUOUS
10
110.15
20
-1.4
30
0
11
110.15
21
-3.7
31
0
0
LINE
8
0
6
CONTINUOUS
10
115.95
20
-5.8
30
0
11
114.35
21
-5.8
31
0
0
LINE
8
0
6
CONTINUOUS
10
114.35
20
-5.8
30
0
11
114.35
21
-2.9
31
0
0
LINE
8
0
6
CONTINUOUS
10
114.35
20
-2.9
30
0
11
115.95
21
-2.9
31
0
0
LINE
8
0
6
CONTINUOUS
10
115.95
20
-2.9
30
0
11
115.95
21
-5.8
31
0
0
ARC
8
0
6
CONTINUOUS
10
88.95162168381499
20
2.9999324659522286
30
0
40
1.0
50
147.31176370054817
51
269.334111576451
0
LINE
8
0
6
CONTINUOUS
10
88.94
20
2.0
30
0
11
92.68
21
2.0
31
0
0
LINE
8
0
6
CONTINUOUS
10
92.68
20
2.0
30
0
11
92.68
21
5.18
31
0
0
LINE
8
0
6
CONTINUOUS
10
92.68
20
5.18
30
0
11
94.4
21
5.18
31
0
0
LINE
8
0
6
CONTINUOUS
10
94.4
20
5.18
30
0
11
94.4
21
24.25
31
0
0
LINE
8
0
6
CONTINUOUS
10
94.4
20
24.25
30
0
11
93.2
21
24.25
31
0
0
LINE
8
0
6
CONTINUOUS
10
93.2
20
24.25
30
0
11
93.2
21
22.11
31
0
0
ARC
8
0
6
CONTINUOUS
10
91.4
20
22.3
30
0
40
1.8100000000000043
50
186.02557500836667
51
353.97442499163327
0
LINE
8
0
6
CONTINUOUS
10
89.6
20
22.11
30
0
11
89.6
21
24.25
31
0
0
LINE
8
0
6
CONTINUOUS
10
89.6
20
24.25
30
0
11
88.4
21
24.25
31
0
0
LINE
8
0
6
CONTINUOUS
10
88.4
20
24.25
30
0
11
88.4
21
22.1
31
0
0
ARC
8
0
6
CONTINUOUS
10
91.44994925444085
20
22.11759390052504
30
0
40
3.05
50
180.3305120773565
51
245.60039722123804
0
LINE
8
0
6
CONTINUOUS
10
90.19
20
19.34
30
0
11
90.19
21
7.14
31
0
0
LINE
8
0
6
CONTINUOUS
10
90.19
20
7.14
30
0
11
88.11
21
3.54
31
0
0
ARC
8
0
6
CONTINUOUS
10
91.43
20
22.050000134935754
30
0
40
1.53
50
180.00000505310402
51
359.999994946896
0
LINE
8
0
6
CONTINUOUS
10
92.96
20
22.05
30
0
11
92.96
21
24.65
31
0
0
LINE
8
0
6
CONTINUOUS
10
92.96
20
24.65
30
0
11
94.4
21
24.65
31
0
0
LINE
8
0
6
CONTINUOUS
10
94.4
20
24.65
30
0
11
94.4
21
28.52
31
0
0
LINE
8
0
6
CONTINUOUS
10
94.4
20
28.52
30
0
11
92.82
21
28.52
31
0
0
LINE
8
0
6
CONTINUOUS
10
92.82
20
28.52
30
0
11
92.82
21
31.7
31
0
0
LINE
8
0
6
CONTINUOUS
10
92.82
20
31.7
30
0
11
88.94
21
31.7
31
0
0
ARC
8
0
6
CONTINUOUS
10
88.94790273683638
20
30.70003122711232
30
0
40
1.0
50
90.45279818053048
51
207.3891225493114
0
LINE
8
0
6
CONTINUOUS
10
88.06
20
30.24
30
0
11
90.53
21
25.95
31
0
0
LINE
8
0
6
CONTINUOUS
10
90.53
20
25.95
30
0
11
88.1
21
25.95
31
0
0
LINE
8
0
6
CONTINUOUS
10
88.1
20
25.95
30
0
11
88.1
21
24.65
31
0
0
LINE
8
0
6
CONTINUOUS
10
88.1
20
24.65
30
0
11
89.9
21
24.65
31
0
0
LINE
8
0
6
CONTINUOUS
10
89.9
20
24.65
30
0
11
89.9
21
22.05
31
0
0
LINE
8
0
6
CONTINUOUS
10
21.67
20
-2.78
30
0
11
21.67
21
-4.0
31
0
0
LINE
8
0
6
CONTINUOUS
10
21.67
20
-4.0
30
0
11
24.21
21
-4.0
31
0
0
LINE
8
0
6
CONTINUOUS
10
24.21
20
-4.0
30
0
11
24.21
21
-5.0
31
0
0
LINE
8
0
6
CONTINUOUS
10
24.21
20
-5.0
30
0
11
23.38
21
-5.0
31
0
0
LINE
8
0
6
CONTINUOUS
10
23.38
20
-5.0
30
0
11
24.32
21
-6.48
31
0
0
LINE
8
0
6
CONTINUOUS
10
24.32
20
-6.48
30
0
11
27.51
21
-6.48
31
0
0
LINE
8
0
6
CONTINUOUS
10
27.51
20
-6.48
30
0
11
28.45
21
-5.0
31
0
0
LINE
8
0
6
CONTINUOUS
10
28.45
20
-5.0
30
0
11
27.62
21
-5.0
31
0
0
LINE
8
0
6
CONTINUOUS
10
27.62
20
-5.0
30
0
11
27.62
21
-4.0
31
0
0
LINE
8
0
6
CONTINUOUS
10
27.62
20
-4.0
30
0
11
29.39
21
-4.0
31
0
0
ARC
8
0
6
CONTINUOUS
10
28.38018890237582
20
-3.9804667689552033
30
0
40
1.01
50
358.89184012078994
51
73.91633700536815
0
ARC
8
0
6
CONTINUOUS
10
25.631311734030156
20
-12.540322522746887
30
0
40
10.0
50
72.37000674233767
51
105.19655609183653
0
ARC
8
0
6
CONTINUOUS
10
22.943059964455237
20
-2.515942475491716
30
0
40
0.38
50
110.49696724190699
51
280.146052907823
0
ARC
8
0
6
CONTINUOUS
10
25.56406082231842
20
-6.224879947424126
30
0
40
4.91
50
64.85978876755071
51
124.11865111099887
0
ARC
8
0
6
CONTINUOUS
10
27.871892302203804
20
-1.4948418244360975
30
0
40
0.3613189434118241
50
232.1121725693601
51
79.13489019729009
0
ARC
8
0
6
CONTINUOUS
10
25.48857049634889
20
-6.638262760966309
30
0
40
6.02
50
65.97004487381
51
124.71745652482808
0
ARC
8
0
6
CONTINUOUS
10
23.83412657603995
20
-2.939549875830801
30
0
40
2.17
50
144.8422611900594
51
175.7835064136892
0
LINE
8
0
6
CONTINUOUS
10
25.01
20
-4.78
30
0
11
26.81
21
-4.78
31
0
0
LINE
8
0
6
CONTINUOUS
10
26.81
20
-4.78
30
0
11
26.81
21
-5.78
31
0
0
ARC
8
0
6
CONTINUOUS
10
25.91
20
-8.240569039876753
30
0
40
2.62
50
69.90904437645003
51
110.09095562354997
0
LINE
8
0
6
CONTINUOUS
10
25.01
20
-5.78
30
0
11
25.01
21
-4.78
31
0
0
LINE
8
0
6
CONTINUOUS
10
25.91
20
-3.26
30
0
11
25.43
21
-4.11
31
0
0
LINE
8
0
6
CONTINUOUS
10
25.43
20
-4.11
30
0
11
24.51
21
-4.0
31
0
0
LINE
8
0
6
CONTINUOUS
10
24.51
20
-4.0
30
0
11
24.9
21
-3.28
31
0
0
ARC
8
0
6
CONTINUOUS
10
25.635703945637577
20
-12.901914555033905
30
0
40
9.65
50
83.1898482223803
51
94.37240130735711
0
LINE
8
0
6
CONTINUOUS
10
26.78
20
-3.32
30
0
11
27.31
21
-4.0
31
0
0
LINE
8
0
6
CONTINUOUS
10
27.31
20
-4.0
30
0
11
26.38
21
-4.11
31
0
0
LINE
8
0
6
CONTINUOUS
10
26.38
20
-4.11
30
0
11
25.91
21
-3.26
31
0
0
LINE
8
0
6
CONTINUOUS
10
48.3
20
54.0
30
0
11
87.9
21
54.0
31
0
0
LINE
8
0
6
CONTINUOUS
10
87.9
20
54.0
30
0
11
87.9
21
36.3
31
0
0
LINE
8
0
6
CONTINUOUS
10
87.9
20
36.3
30
0
11
92.4
21
36.3
31
0
0
LINE
8
0
6
CONTINUOUS
10
92.4
20
36.3
30
0
11
92.4
21
33.4
31
0
0
LINE
8
0
6
CONTINUOUS
10
92.4
20
33.4
30
0
11
85.6
21
33.4
31
0
0
LINE
8
0
6
CONTINUOUS
10
85.6
20
33.4
30
0
11
85.6
21
25.0
31
0
0
LINE
8
0
6
CONTINUOUS
10
85.6
20
25.0
30
0
11
48.4
21
25.0
31
0
0
LINE
8
0
6
CONTINUOUS
10
48.4
20
25.0
30
0
11
48.4
21
33.4
31
0
0
LINE
8
0
6
CONTINUOUS
10
48.4
20
33.4
30
0
11
41.3
21
33.4
31
0
0
LINE
8
0
6
CONTINUOUS
10
41.3
20
33.4
30
0
11
41.3
21
35.2
31
0
0
LINE
8
0
6
CONTINUOUS
10
41.3
20
35.2
30
0
11
42.1
21
36.0
31
0
0
LINE
8
0
6
CONTINUOUS
10
42.1
20
36.0
30
0
11
42.1
21
42.0
31
0
0
LINE
8
0
6
CONTINUOUS
10
42.1
20
42.0
30
0
11
41.3
21
42.8
31
0
0
LINE
8
0
6
CONTINUOUS
10
41.3
20
42.8
30
0
11
41.3
21
45.8
31
0
0
LINE
8
0
6
CONTINUOUS
10
41.3
20
45.8
30
0
11
48.3
21
45.8
31
0
0
LINE
8
0
6
CONTINUOUS
10
48.3
20
45.8
30
0
11
48.3
21
54.0
31
0
0
LINE
8
0
6
CONTINUOUS
10
94.6
20
56.0
30
0
11
46.6
21
56.0
31
0
0
LINE
8
0
6
CONTINUOUS
10
46.6
20
56.0
30
0
11
46.6
21
47.5
31
0
0
LINE
8
0
6
CONTINUOUS
10
46.6
20
47.5
30
0
11
36.6
21
47.5
31
0
0
LINE
8
0
6
CONTINUOUS
10
36.6
20
47.5
30
0
11
36.6
21
46.2
31
0
0
LINE
8
0
6
CONTINUOUS
10
36.6
20
46.2
30
0
11
39.6
21
46.2
31
0
0
LINE
8
0
6
CONTINUOUS
10
39.6
20
46.2
30
0
11
39.6
21
28.52
31
0
0
LINE
8
0
6
CONTINUOUS
10
39.6
20
28.52
30
0
11
41.18
21
28.52
31
0
0
LINE
8
0
6
CONTINUOUS
10
41.18
20
28.52
30
0
11
41.18
21
31.7
31
0
0
LINE
8
0
6
CONTINUOUS
10
41.18
20
31.7
30
0
11
46.1
21
31.7
31
0
0
LINE
8
0
6
CONTINUOUS
10
46.1
20
31.7
30
0
11
46.1
21
30.5
31
0
0
LINE
8
0
6
CONTINUOUS
10
46.1
20
30.5
30
0
11
44.6
21
27.9
31
0
0
LINE
8
0
6
CONTINUOUS
10
44.6
20
27.9
30
0
11
46.7
21
27.9
31
0
0
LINE
8
0
6
CONTINUOUS
10
46.7
20
27.9
30
0
11
46.7
21
23.3
31
0
0
LINE
8
0
6
CONTINUOUS
10
46.7
20
23.3
30
0
11
87.3
21
23.3
31
0
0
LINE
8
0
6
CONTINUOUS
10
87.3
20
23.3
30
0
11
87.3
21
27.9
31
0
0
LINE
8
0
6
CONTINUOUS
10
87.3
20
27.9
30
0
11
89.4
21
27.9
31
0
0
LINE
8
0
6
CONTINUOUS
10
89.4
20
27.9
30
0
11
87.9
21
30.5
31
0
0
LINE
8
0
6
CONTINUOUS
10
87.9
20
30.5
30
0
11
87.9
21
31.7
31
0
0
LINE
8
0
6
CONTINUOUS
10
87.9
20
31.7
30
0
11
92.82
21
31.7
31
0
0
LINE
8
0
6
CONTINUOUS
10
92.82
20
31.7
30
0
11
92.82
21
28.52
31
0
0
LINE
8
0
6
CONTINUOUS
10
92.82
20
28.52
30
0
11
94.4
21
28.52
31
0
0
LINE
8
0
6
CONTINUOUS
10
94.4
20
28.52
30
0
11
94.4
21
41.5
31
0
0
LINE
8
0
6
CONTINUOUS
10
94.4
20
41.5
30
0
11
92.9
21
41.5
31
0
0
LINE
8
0
6
CONTINUOUS
10
92.9
20
41.5
30
0
11
92.9
21
38.0
31
0
0
LINE
8
0
6
CONTINUOUS
10
92.9
20
38.0
30
0
11
89.6
21
38.0
31
0
0
LINE
8
0
6
CONTINUOUS
10
89.6
20
38.0
30
0
11
89.6
21
54.0
31
0
0
LINE
8
0
6
CONTINUOUS
10
89.6
20
54.0
30
0
11
92.9
21
54.0
31
0
0
LINE
8
0
6
CONTINUOUS
10
92.9
20
54.0
30
0
11
92.9
21
51.5
31
0
0
LINE
8
0
6
CONTINUOUS
10
92.9
20
51.5
30
0
11
94.6
21
51.5
31
0
0
LINE
8
0
6
CONTINUOUS
10
94.6
20
51.5
30
0
11
94.6
21
56.0
31
0
0
LINE
8
0
6
CONTINUOUS
10
45.88
20
3.54
30
0
11
43.81
21
7.14
31
0
0
LINE
8
0
6
CONTINUOUS
10
43.81
20
7.14
30
0
11
43.81
21
19.34
31
0
0
ARC
8
0
6
CONTINUOUS
10
42.55005074555915
20
22.117593900525044
30
0
40
3.05
50
294.39960277876196
51
359.66948792264344
0
LINE
8
0
6
CONTINUOUS
10
45.6
20
22.1
30
0
11
45.6
21
24.25
31
0
0
LINE
8
0
6
CONTINUOUS
10
45.6
20
24.25
30
0
11
44.4
21
24.25
31
0
0
LINE
8
0
6
CONTINUOUS
10
44.4
20
24.25
30
0
11
44.4
21
22.11
31
0
0
ARC
8
0
6
CONTINUOUS
10
42.599999999999994
20
22.3
30
0
40
1.8100000000000007
50
186.02557500836673
51
353.97442499163327
0
LINE
8
0
6
CONTINUOUS
10
40.8
20
22.11
30
0
11
40.8
21
24.25
31
0
0
LINE
8
0
6
CONTINUOUS
10
40.8
20
24.25
30
0
11
39.6
21
24.25
31
0
0
LINE
8
0
6
CONTINUOUS
10
39.6
20
24.25
30
0
11
39.6
21
5.18
31
0
0
LINE
8
0
6
CONTINUOUS
10
39.6
20
5.18
30
0
11
41.32
21
5.18
31
0
0
LINE
8
0
6
CONTINUOUS
10
41.32
20
5.18
30
0
11
41.32
21
2.0
31
0
0
LINE
8
0
6
CONTINUOUS
10
41.32
20
2.0
30
0
11
45.06
21
2.0
31
0
0
ARC
8
0
6
CONTINUOUS
10
45.03848355895031
20
2.999768494584899
30
0
40
1.0
50
271.2328964044891
51
32.69939981258336
0
LINE
8
0
6
CONTINUOUS
10
44.09
20
22.05
30
0
11
44.09
21
24.65
31
0
0
LINE
8
0
6
CONTINUOUS
10
44.09
20
24.65
30
0
11
45.9
21
24.65
31
0
0
LINE
8
0
6
CONTINUOUS
10
45.9
20
24.65
30
0
11
45.9
21
25.95
31
0
0
LINE
8
0
6
CONTINUOUS
10
45.9
20
25.95
30
0
11
43.47
21
25.95
31
0
0
LINE
8
0
6
CONTINUOUS
10
43.47
20
25.95
30
0
11
45.93
21
30.24
31
0
0
ARC
8
0
6
CONTINUOUS
10
45.04216351808943
20
30.700159082697123
30
0
40
1.0
50
332.6026267060899
51
88.97799066992117
0
LINE
8
0
6
CONTINUOUS
10
45.06
20
31.7
30
0
11
41.18
21
31.7
31
0
0
LINE
8
0
6
CONTINUOUS
10
41.18
20
31.7
30
0
11
41.18
21
28.52
31
0
0
LINE
8
0
6
CONTINUOUS
10
41.18
20
28.52
30
0
11
39.6
21
28.52
31
0
0
LINE
8
0
6
CONTINUOUS
10
39.6
20
28.52
30
0
11
39.6
21
24.65
31
0
0
LINE
8
0
6
CONTINUOUS
10
39.6
20
24.65
30
0
11
41.04
21
24.65
31
0
0
LINE
8
0
6
CONTINUOUS
10
41.04
20
24.65
30
0
11
41.04
21
22.05
31
0
0
ARC
8
0
6
CONTINUOUS
10
42.565
20
22.173592070943055
30
0
40
1.53
50
184.63335162270675
51
355.36664837729325
0
LINE
8
0
6
CONTINUOUS
10
200.1
20
-0.0
30
0
11
102.4
21
-0.0
31
0
0
LINE
8
0
6
CONTINUOUS
10
102.4
20
-0.0
30
0
11
102.4
21
26.0
31
0
0
LINE
8
0
6
CONTINUOUS
10
102.4
20
26.0
30
0
11
200.1
21
26.0
31
0
0
LINE
8
0
6
CONTINUOUS
10
200.1
20
-9.0
30
0
11
119.6
21
-9.0
31
0
0
LINE
8
0
6
CONTINUOUS
10
116.6
20
56.0
30
0
11
200.1
21
56.0
31
0
0
ENDSEC
0
EOF