0
SECTION
2
HEADER
0
ENDSEC
0
SECTION
2
TABLES
0
TABLE
2
LTYPE
70
2
0
LTYPE
2
CONTINUOUS
70
0
3
Solid line
72
65
73
0
40
0.0
0
ENDTAB
0
TABLE
2
LAYER
70
1
0
LAYER
2
0
70
0
62
7
6
CONTINUOUS
0
ENDTAB
0
ENDSEC
0
SECTION
2
ENTITIES
0
LINE
8
0
6
CONTINUOUS
10
0.0
20
-17.0
30
0
11
0.0
21
30.0
31
0
0
LINE
8
0
6
CONTINUOUS
10
-10.0
20
0.0
30
0
11
10.0
21
0.0
31
0
0
LINE
8
0
6
CONTINUOUS
10
4.5
20
0.0
30
0
11
3.0
21
0.0
31
0
0
LINE
8
0
6
CONTINUOUS
10
3.0
20
0.0
30
0
11
3.0
21
-1.07
31
0
0
LINE
8
0
6
CONTINUOUS
10
3.0
20
-1.07
30
0
11
7.0
21
-7.0
31
0
0
LINE
8
0
6
CONTINUOUS
10
7.0
20
-7.0
30
0
11
7.0
21
-0.67
31
0
0
LINE
8
0
6
CONTINUOUS
10
7.0
20
-0.67
30
0
11
4.5
21
-0.0
31
0
0
ARC
8
0
6
CONTINUOUS
10
-0.0038283719791744886
20
-7.002737944252706
30
0
40
7.0
50
111.94638465647989
51
64.58837928201926
0
LINE
8
0
6
CONTINUOUS
10
3.0
20
-0.68
30
0
11
3.0
21
23.54
31
0
0
ARC
8
0
6
CONTINUOUS
10
2.5099958255901598
20
18.4334555804281
30
0
40
5.13
50
84.51890090945103
51
179.92690687669793
0
LINE
8
0
6
CONTINUOUS
10
-2.62
20
18.44
30
0
11
-2.62
21
-0.51
31
0
0
ARC
8
0
6
CONTINUOUS
10
0.0
20
-7.0
30
0
40
4.5
50
0.0
51
180.0
0
ARC
8
0
6
CONTINUOUS
10
0.0
20
-7.0
30
0
40
4.5
50
180.0
51
0.0
0
LINE
8
0
6
CONTINUOUS
10
-4.5
20
0.0
30
0
11
-6.0
21
-0.4
31
0
0
LINE
8
0
6
CONTINUOUS
10
-6.0
20
-0.4
30
0
11
-6.0
21
-3.39
31
0
0
ARC
8
0
6
CONTINUOUS
10
-0.004635325238838028
20
-7.003253716060635
30
0
40
7.0
50
117.06828625224495
51
148.92369956377303
0
ARC
8
0
6
CONTINUOUS
10
-3.3133552846244623
20
-0.22375511557981798
30
0
40
0.56
50
282.72532031975766
51
23.55084399143702
0
LINE
8
0
6
CONTINUOUS
10
-2.8
20
0.0
30
0
11
-4.5
21
0.0
31
0
0
ARC
8
0
6
CONTINUOUS
10
0.0
20
-7.0
30
0
40
3.1
50
0.0
51
180.0
0
ARC
8
0
6
CONTINUOUS
10
0.0
20
-7.0
30
0
40
3.1
50
180.0
51
0.0
0
LINE
8
0
6
CONTINUOUS
10
-0.0
20
3.0
30
0
11
0.0
21
-17.0
31
0
0
LINE
8
0
6
CONTINUOUS
10
10.0
20
-7.0
30
0
11
-10.0
21
-7.0
31
0
0
ENDSEC
0
EOF