0
SECTION
2
HEADER
0
ENDSEC
0
SECTION
2
TABLES
0
TABLE
2
LTYPE
70
2
0
LTYPE
2
CONTINUOUS
70
0
3
Solid line
72
65
73
0
40
0.0
0
ENDTAB
0
TABLE
2
LAYER
70
1
0
LAYER
2
0
70
0
62
7
6
CONTINUOUS
0
ENDTAB
0
ENDSEC
0
SECTION
2
ENTITIES
0
LINE
8
0
6
CONTINUOUS
10
-42.5
20
-0.0
30
0
11
-42.5
21
37.09
31
0
0
LINE
8
0
6
CONTINUOUS
10
0.0
20
33.5
30
0
11
-50.91
21
33.5
31
0
0
LINE
8
0
6
CONTINUOUS
10
-35.0
20
-0.0
30
0
11
-35.0
21
37.09
31
0
0
LINE
8
0
6
CONTINUOUS
10
0.0
20
-0.0
30
0
11
0.0
21
37.09
31
0
0
LINE
8
0
6
CONTINUOUS
10
-50.91
20
0.0
30
0
11
0.0
21
0.0
31
0
0
LINE
8
0
6
CONTINUOUS
10
-0.0
20
0.0
30
0
11
-0.0
21
3.6
31
0
0
LINE
8
0
6
CONTINUOUS
10
-0.0
20
3.6
30
0
11
-1.5
21
4.0
31
0
0
LINE
8
0
6
CONTINUOUS
10
-1.5
20
4.0
30
0
11
-1.5
21
2.0
31
0
0
LINE
8
0
6
CONTINUOUS
10
-1.5
20
2.0
30
0
11
-5.0
21
2.0
31
0
0
LINE
8
0
6
CONTINUOUS
10
-5.0
20
2.0
30
0
11
-5.0
21
16.0
31
0
0
LINE
8
0
6
CONTINUOUS
10
-5.0
20
16.0
30
0
11
-1.5
21
16.0
31
0
0
LINE
8
0
6
CONTINUOUS
10
-1.5
20
16.0
30
0
11
-1.5
21
14.0
31
0
0
LINE
8
0
6
CONTINUOUS
10
-1.5
20
14.0
30
0
11
0.0
21
14.4
31
0
0
LINE
8
0
6
CONTINUOUS
10
0.0
20
14.4
30
0
11
0.0
21
16.9
31
0
0
LINE
8
0
6
CONTINUOUS
10
0.0
20
16.9
30
0
11
-1.3
21
18.2
31
0
0
LINE
8
0
6
CONTINUOUS
10
-1.3
20
18.2
30
0
11
-10.7
21
18.2
31
0
0
LINE
8
0
6
CONTINUOUS
10
-10.7
20
18.2
30
0
11
-11.58
21
19.08
31
0
0
LINE
8
0
6
CONTINUOUS
10
-11.58
20
19.08
30
0
11
-12.47
21
18.2
31
0
0
LINE
8
0
6
CONTINUOUS
10
-12.47
20
18.2
30
0
11
-13.7
21
18.2
31
0
0
LINE
8
0
6
CONTINUOUS
10
-13.7
20
18.2
30
0
11
-15.5
21
20.0
31
0
0
LINE
8
0
6
CONTINUOUS
10
-15.5
20
20.0
30
0
11
-13.7
21
21.8
31
0
0
LINE
8
0
6
CONTINUOUS
10
-13.7
20
21.8
30
0
11
-12.47
21
21.8
31
0
0
LINE
8
0
6
CONTINUOUS
10
-12.47
20
21.8
30
0
11
-11.58
21
20.92
31
0
0
LINE
8
0
6
CONTINUOUS
10
-11.58
20
20.92
30
0
11
-10.7
21
21.8
31
0
0
LINE
8
0
6
CONTINUOUS
10
-10.7
20
21.8
30
0
11
-1.3
21
21.8
31
0
0
LINE
8
0
6
CONTINUOUS
10
-1.3
20
21.8
30
0
11
0.0
21
23.1
31
0
0
LINE
8
0
6
CONTINUOUS
10
0.0
20
23.1
30
0
11
0.0
21
32.7
31
0
0
ARC
8
0
6
CONTINUOUS
10
-0.8
20
32.7
30
0
40
0.8
50
0.0
51
90.0
0
LINE
8
0
6
CONTINUOUS
10
-0.8
20
33.5
30
0
11
-0.8
21
36.59
31
0
0
ARC
8
0
6
CONTINUOUS
10
-1.299992147648313
20
36.587197806211584
30
0
40
0.5
50
0.3211094358862817
51
105.07099400814765
0
LINE
8
0
6
CONTINUOUS
10
-1.43
20
37.07
30
0
11
-3.84
21
36.43
31
0
0
LINE
8
0
6
CONTINUOUS
10
-3.84
20
36.43
30
0
11
-2.15
21
33.5
31
0
0
LINE
8
0
6
CONTINUOUS
10
-2.15
20
33.5
30
0
11
-7.45
21
33.5
31
0
0
LINE
8
0
6
CONTINUOUS
10
-7.45
20
33.5
30
0
11
-5.71
21
36.5
31
0
0
LINE
8
0
6
CONTINUOUS
10
-5.71
20
36.5
30
0
11
-7.45
21
36.5
31
0
0
ARC
8
0
6
CONTINUOUS
10
-7.443964079264814
20
35.50001821633548
30
0
40
1.0
50
90.34583488355233
51
150.00120517573623
0
LINE
8
0
6
CONTINUOUS
10
-8.31
20
36.0
30
0
11
-9.76
21
33.5
31
0
0
LINE
8
0
6
CONTINUOUS
10
-9.76
20
33.5
30
0
11
-16.04
21
33.5
31
0
0
LINE
8
0
6
CONTINUOUS
10
-16.04
20
33.5
30
0
11
-17.49
21
36.0
31
0
0
ARC
8
0
6
CONTINUOUS
10
-18.356035920735188
20
35.50001821633548
30
0
40
1.0
50
29.998794824263705
51
89.65416511644767
0
LINE
8
0
6
CONTINUOUS
10
-18.35
20
36.5
30
0
11
-20.09
21
36.5
31
0
0
LINE
8
0
6
CONTINUOUS
10
-20.09
20
36.5
30
0
11
-18.35
21
33.5
31
0
0
LINE
8
0
6
CONTINUOUS
10
-18.35
20
33.5
30
0
11
-23.65
21
33.5
31
0
0
LINE
8
0
6
CONTINUOUS
10
-23.65
20
33.5
30
0
11
-21.96
21
36.43
31
0
0
LINE
8
0
6
CONTINUOUS
10
-21.96
20
36.43
30
0
11
-24.37
21
37.07
31
0
0
ARC
8
0
6
CONTINUOUS
10
-24.50000785235169
20
36.587197806211584
30
0
40
0.5
50
74.92900599185215
51
179.67889056411371
0
LINE
8
0
6
CONTINUOUS
10
-25.0
20
36.59
30
0
11
-25.0
21
33.5
31
0
0
LINE
8
0
6
CONTINUOUS
10
-25.0
20
33.5
30
0
11
-45.1
21
33.5
31
0
0
ARC
8
0
6
CONTINUOUS
10
-44.965463759529264
20
32.6
30
0
40
0.9100000000000004
50
98.50188925000353
51
261.4981107499965
0
LINE
8
0
6
CONTINUOUS
10
-45.1
20
31.7
30
0
11
-38.0
21
31.7
31
0
0
LINE
8
0
6
CONTINUOUS
10
-38.0
20
31.7
30
0
11
-38.0
21
30.2
31
0
0
LINE
8
0
6
CONTINUOUS
10
-38.0
20
30.2
30
0
11
-40.0
21
29.95
31
0
0
LINE
8
0
6
CONTINUOUS
10
-40.0
20
29.95
30
0
11
-40.0
21
28.05
31
0
0
LINE
8
0
6
CONTINUOUS
10
-40.0
20
28.05
30
0
11
-38.0
21
27.8
31
0
0
LINE
8
0
6
CONTINUOUS
10
-38.0
20
27.8
30
0
11
-38.0
21
26.3
31
0
0
LINE
8
0
6
CONTINUOUS
10
-38.0
20
26.3
30
0
11
-47.8
21
26.3
31
0
0
LINE
8
0
6
CONTINUOUS
10
-47.8
20
26.3
30
0
11
-49.0
21
26.3
31
0
0
LINE
8
0
6
CONTINUOUS
10
-49.0
20
26.3
30
0
11
-49.0
21
25.5
31
0
0
ARC
8
0
6
CONTINUOUS
10
-48.0
20
25.5
30
0
40
1.0
50
180.0
51
270.0
0
LINE
8
0
6
CONTINUOUS
10
-48.0
20
24.5
30
0
11
-35.0
21
24.5
31
0
0
LINE
8
0
6
CONTINUOUS
10
-35.0
20
24.5
30
0
11
-35.0
21
12.9
31
0
0
LINE
8
0
6
CONTINUOUS
10
-35.0
20
12.9
30
0
11
-33.5
21
12.5
31
0
0
LINE
8
0
6
CONTINUOUS
10
-33.5
20
12.5
30
0
11
-33.5
21
14.5
31
0
0
LINE
8
0
6
CONTINUOUS
10
-33.5
20
14.5
30
0
11
-30.0
21
14.5
31
0
0
LINE
8
0
6
CONTINUOUS
10
-30.0
20
14.5
30
0
11
-30.0
21
1.8
31
0
0
LINE
8
0
6
CONTINUOUS
10
-30.0
20
1.8
30
0
11
-33.5
21
1.8
31
0
0
LINE
8
0
6
CONTINUOUS
10
-33.5
20
1.8
30
0
11
-33.5
21
5.0
31
0
0
LINE
8
0
6
CONTINUOUS
10
-33.5
20
5.0
30
0
11
-35.0
21
4.6
31
0
0
LINE
8
0
6
CONTINUOUS
10
-35.0
20
4.6
30
0
11
-35.0
21
0.0
31
0
0
LINE
8
0
6
CONTINUOUS
10
-35.0
20
0.0
30
0
11
-0.0
21
0.0
31
0
0
LINE
8
0
6
CONTINUOUS
10
-6.8
20
2.0
30
0
11
-21.7
21
2.0
31
0
0
LINE
8
0
6
CONTINUOUS
10
-21.7
20
2.0
30
0
11
-21.7
21
4.0
31
0
0
LINE
8
0
6
CONTINUOUS
10
-21.7
20
4.0
30
0
11
-23.2
21
4.0
31
0
0
LINE
8
0
6
CONTINUOUS
10
-23.2
20
4.0
30
0
11
-23.2
21
2.0
31
0
0
LINE
8
0
6
CONTINUOUS
10
-23.2
20
2.0
30
0
11
-28.2
21
2.0
31
0
0
LINE
8
0
6
CONTINUOUS
10
-28.2
20
2.0
30
0
11
-28.2
21
14.5
31
0
0
ARC
8
0
6
CONTINUOUS
10
-30.0
20
14.5
30
0
40
1.8
50
0.0
51
90.0
0
LINE
8
0
6
CONTINUOUS
10
-30.0
20
16.3
30
0
11
-33.2
21
16.3
31
0
0
LINE
8
0
6
CONTINUOUS
10
-33.2
20
16.3
30
0
11
-33.2
21
24.5
31
0
0
ARC
8
0
6
CONTINUOUS
10
-35.0
20
24.5
30
0
40
1.8
50
0.0
51
90.0
0
LINE
8
0
6
CONTINUOUS
10
-35.0
20
26.3
30
0
11
-36.2
21
26.3
31
0
0
LINE
8
0
6
CONTINUOUS
10
-36.2
20
26.3
30
0
11
-36.2
21
31.7
31
0
0
LINE
8
0
6
CONTINUOUS
10
-36.2
20
31.7
30
0
11
-1.8
21
31.7
31
0
0
LINE
8
0
6
CONTINUOUS
10
-1.8
20
31.7
30
0
11
-1.8
21
23.9
31
0
0
LINE
8
0
6
CONTINUOUS
10
-1.8
20
23.9
30
0
11
-9.61
21
23.9
31
0
0
LINE
8
0
6
CONTINUOUS
10
-9.61
20
23.9
30
0
11
-10.21
21
23.3
31
0
0
LINE
8
0
6
CONTINUOUS
10
-10.21
20
23.3
30
0
11
-14.32
21
23.3
31
0
0
LINE
8
0
6
CONTINUOUS
10
-14.32
20
23.3
30
0
11
-16.56
21
21.06
31
0
0
ARC
8
0
6
CONTINUOUS
10
-15.499085562466261
20
19.99959415494233
30
0
40
1.5
50
135.013736823266
51
226.58511140336898
0
LINE
8
0
6
CONTINUOUS
10
-16.53
20
18.91
30
0
11
-16.53
21
17.7
31
0
0
LINE
8
0
6
CONTINUOUS
10
-16.53
20
17.7
30
0
11
-23.2
21
17.7
31
0
0
LINE
8
0
6
CONTINUOUS
10
-23.2
20
17.7
30
0
11
-23.2
21
14.2
31
0
0
LINE
8
0
6
CONTINUOUS
10
-23.2
20
14.2
30
0
11
-21.7
21
14.2
31
0
0
LINE
8
0
6
CONTINUOUS
10
-21.7
20
14.2
30
0
11
-21.7
21
16.2
31
0
0
LINE
8
0
6
CONTINUOUS
10
-21.7
20
16.2
30
0
11
-6.8
21
16.2
31
0
0
LINE
8
0
6
CONTINUOUS
10
-6.8
20
16.2
30
0
11
-6.8
21
2.0
31
0
0
ENDSEC
0
EOF