0
SECTION
2
HEADER
0
ENDSEC
0
SECTION
2
TABLES
0
TABLE
2
LTYPE
70
2
0
LTYPE
2
CONTINUOUS
70
0
3
Solid line
72
65
73
0
40
0.0
0
ENDTAB
0
TABLE
2
LAYER
70
1
0
LAYER
2
0
70
0
62
7
6
CONTINUOUS
0
ENDTAB
0
ENDSEC
0
SECTION
2
ENTITIES
0
LINE
8
0
6
CONTINUOUS
10
16.25
20
-19.54
30
0
11
16.25
21
136.01
31
0
0
LINE
8
0
6
CONTINUOUS
10
29.78
20
-19.54
30
0
11
29.78
21
136.01
31
0
0
LINE
8
0
6
CONTINUOUS
10
66.0
20
136.01
30
0
11
-9.0
21
136.01
31
0
0
LINE
8
0
6
CONTINUOUS
10
66.0
20
5.0
30
0
11
-9.0
21
5.0
31
0
0
LINE
8
0
6
CONTINUOUS
10
56.0
20
-19.54
30
0
11
56.0
21
136.01
31
0
0
LINE
8
0
6
CONTINUOUS
10
-9.0
20
136.01
30
0
11
-9.0
21
-19.54
31
0
0
LINE
8
0
6
CONTINUOUS
10
2.0
20
-19.54
30
0
11
2.0
21
136.01
31
0
0
LINE
8
0
6
CONTINUOUS
10
-9.0
20
0.0
30
0
11
66.0
21
0.0
31
0
0
ARC
8
0
6
CONTINUOUS
10
-8.5
20
42.3
30
0
40
0.5
50
90.0
51
180.0
0
LINE
8
0
6
CONTINUOUS
10
-9.0
20
42.3
30
0
11
-9.0
21
-6.7
31
0
0
ARC
8
0
6
CONTINUOUS
10
-8.5
20
-6.7
30
0
40
0.5
50
180.0
51
270.0
0
LINE
8
0
6
CONTINUOUS
10
-8.5
20
-7.2
30
0
11
-4.5
21
-7.2
31
0
0
ARC
8
0
6
CONTINUOUS
10
-4.5
20
-6.7
30
0
40
0.5
50
270.0
51
0.0
0
LINE
8
0
6
CONTINUOUS
10
-4.0
20
-6.7
30
0
11
-4.0
21
-4.9
31
0
0
LINE
8
0
6
CONTINUOUS
10
-4.0
20
-4.9
30
0
11
-5.0
21
-4.9
31
0
0
LINE
8
0
6
CONTINUOUS
10
-5.0
20
-4.9
30
0
11
-5.0
21
-5.9
31
0
0
LINE
8
0
6
CONTINUOUS
10
-5.0
20
-5.9
30
0
11
-6.5
21
-5.9
31
0
0
ARC
8
0
6
CONTINUOUS
10
-6.5
20
-4.9
30
0
40
1.0
50
180.0
51
270.0
0
LINE
8
0
6
CONTINUOUS
10
-7.5
20
-4.9
30
0
11
-7.5
21
-0.9
31
0
0
ARC
8
0
6
CONTINUOUS
10
-6.5
20
-0.8999999999999999
30
0
40
1.0
50
90.0
51
180.0
0
LINE
8
0
6
CONTINUOUS
10
-6.5
20
0.1
30
0
11
-5.0
21
0.1
31
0
0
LINE
8
0
6
CONTINUOUS
10
-5.0
20
0.1
30
0
11
-5.0
21
-0.9
31
0
0
LINE
8
0
6
CONTINUOUS
10
-5.0
20
-0.9
30
0
11
-4.0
21
-0.9
31
0
0
LINE
8
0
6
CONTINUOUS
10
-4.0
20
-0.9
30
0
11
-4.0
21
2.9
31
0
0
LINE
8
0
6
CONTINUOUS
10
-4.0
20
2.9
30
0
11
-5.2
21
2.9
31
0
0
LINE
8
0
6
CONTINUOUS
10
-5.2
20
2.9
30
0
11
-5.2
21
1.9
31
0
0
ARC
8
0
6
CONTINUOUS
10
-5.7
20
1.9
30
0
40
0.5
50
270.0
51
0.0
0
LINE
8
0
6
CONTINUOUS
10
-5.7
20
1.4
30
0
11
-6.5
21
1.4
31
0
0
ARC
8
0
6
CONTINUOUS
10
-6.5
20
1.9
30
0
40
0.5
50
180.0
51
270.0
0
LINE
8
0
6
CONTINUOUS
10
-7.0
20
1.9
30
0
11
-7.0
21
10.7
31
0
0
ARC
8
0
6
CONTINUOUS
10
-6.0
20
10.7
30
0
40
1.0
50
90.0
51
180.0
0
LINE
8
0
6
CONTINUOUS
10
-6.0
20
11.7
30
0
11
1.1
21
11.7
31
0
0
ARC
8
0
6
CONTINUOUS
10
1.1
20
11.2
30
0
40
0.5
50
0.0
51
90.0
0
LINE
8
0
6
CONTINUOUS
10
1.6
20
11.2
30
0
11
1.6
21
10.3
31
0
0
ARC
8
0
6
CONTINUOUS
10
2.1
20
10.3
30
0
40
0.5
50
180.0
51
270.0
0
LINE
8
0
6
CONTINUOUS
10
2.1
20
9.8
30
0
11
3.5
21
9.8
31
0
0
ARC
8
0
6
CONTINUOUS
10
4.0
20
9.400500312891237
30
0
40
0.64
50
38.62483287305294
51
141.37516712694708
0
LINE
8
0
6
CONTINUOUS
10
4.5
20
9.8
30
0
11
6.68
21
9.8
31
0
0
LINE
8
0
6
CONTINUOUS
10
6.68
20
9.8
30
0
11
6.68
21
11.38
31
0
0
LINE
8
0
6
CONTINUOUS
10
6.68
20
11.38
30
0
11
3.5
21
11.38
31
0
0
LINE
8
0
6
CONTINUOUS
10
3.5
20
11.38
30
0
11
3.5
21
15.8
31
0
0
ARC
8
0
6
CONTINUOUS
10
4.0
20
15.8
30
0
40
0.5
50
90.0
51
180.0
0
LINE
8
0
6
CONTINUOUS
10
4.0
20
16.3
30
0
11
4.87
21
16.3
31
0
0
LINE
8
0
6
CONTINUOUS
10
4.87
20
16.3
30
0
11
7.32
21
14.79
31
0
0
ARC
8
0
6
CONTINUOUS
10
2.3251017140465695
20
14.564187881238661
30
0
40
5.0
50
2.588496718158249
51
34.41357106403068
0
ARC
8
0
6
CONTINUOUS
10
6.831444622455213
20
17.8
30
0
40
0.56
50
132.93366057534
51
227.06633942466
0
ARC
8
0
6
CONTINUOUS
10
2.3251017140465695
20
21.03581211876134
30
0
40
5.0
50
325.58642893596937
51
357.4115032818417
0
LINE
8
0
6
CONTINUOUS
10
7.32
20
20.81
30
0
11
4.87
21
19.3
31
0
0
LINE
8
0
6
CONTINUOUS
10
4.87
20
19.3
30
0
11
4.0
21
19.3
31
0
0
ARC
8
0
6
CONTINUOUS
10
4.0
20
19.8
30
0
40
0.5
50
180.0
51
270.0
0
LINE
8
0
6
CONTINUOUS
10
3.5
20
19.8
30
0
11
3.5
21
24.18
31
0
0
LINE
8
0
6
CONTINUOUS
10
3.5
20
24.18
30
0
11
6.72
21
24.22
31
0
0
LINE
8
0
6
CONTINUOUS
10
6.72
20
24.22
30
0
11
6.67
21
25.8
31
0
0
LINE
8
0
6
CONTINUOUS
10
6.67
20
25.8
30
0
11
4.5
21
25.8
31
0
0
ARC
8
0
6
CONTINUOUS
10
4.0
20
26.27549973711875
30
0
40
0.69
50
223.56128448107742
51
316.43871551892255
0
LINE
8
0
6
CONTINUOUS
10
3.5
20
25.8
30
0
11
2.1
21
25.8
31
0
0
ARC
8
0
6
CONTINUOUS
10
2.1
20
25.3
30
0
40
0.5
50
90.0
51
180.0
0
LINE
8
0
6
CONTINUOUS
10
1.6
20
25.3
30
0
11
1.6
21
24.4
31
0
0
ARC
8
0
6
CONTINUOUS
10
1.1
20
24.4
30
0
40
0.5
50
270.0
51
0.0
0
LINE
8
0
6
CONTINUOUS
10
1.1
20
23.9
30
0
11
-6.0
21
23.9
31
0
0
ARC
8
0
6
CONTINUOUS
10
-6.0
20
24.9
30
0
40
1.0
50
180.0
51
270.0
0
LINE
8
0
6
CONTINUOUS
10
-7.0
20
24.9
30
0
11
-7.0
21
33.6
31
0
0
ARC
8
0
6
CONTINUOUS
10
-6.498004683884279
20
33.69000390323691
30
0
40
0.51
50
90.2241636938825
51
190.1646941215878
0
LINE
8
0
6
CONTINUOUS
10
-6.5
20
34.2
30
0
11
-5.7
21
34.2
31
0
0
ARC
8
0
6
CONTINUOUS
10
-5.7
20
33.7
30
0
40
0.5
50
0.0
51
90.0
0
LINE
8
0
6
CONTINUOUS
10
-5.2
20
33.7
30
0
11
-5.2
21
32.7
31
0
0
LINE
8
0
6
CONTINUOUS
10
-5.2
20
32.7
30
0
11
-4.0
21
32.7
31
0
0
LINE
8
0
6
CONTINUOUS
10
-4.0
20
32.7
30
0
11
-4.0
21
36.5
31
0
0
LINE
8
0
6
CONTINUOUS
10
-4.0
20
36.5
30
0
11
-5.0
21
36.5
31
0
0
LINE
8
0
6
CONTINUOUS
10
-5.0
20
36.5
30
0
11
-5.0
21
35.5
31
0
0
LINE
8
0
6
CONTINUOUS
10
-5.0
20
35.5
30
0
11
-6.5
21
35.5
31
0
0
ARC
8
0
6
CONTINUOUS
10
-6.5
20
36.5
30
0
40
1.0
50
180.0
51
270.0
0
LINE
8
0
6
CONTINUOUS
10
-7.5
20
36.5
30
0
11
-7.5
21
40.5
31
0
0
ARC
8
0
6
CONTINUOUS
10
-6.5
20
40.5
30
0
40
1.0
50
90.0
51
180.0
0
LINE
8
0
6
CONTINUOUS
10
-6.5
20
41.5
30
0
11
-5.0
21
41.5
31
0
0
LINE
8
0
6
CONTINUOUS
10
-5.0
20
41.5
30
0
11
-5.0
21
40.5
31
0
0
LINE
8
0
6
CONTINUOUS
10
-5.0
20
40.5
30
0
11
-4.0
21
40.5
31
0
0
LINE
8
0
6
CONTINUOUS
10
-4.0
20
40.5
30
0
11
-4.0
21
42.3
31
0
0
ARC
8
0
6
CONTINUOUS
10
-4.5
20
42.3
30
0
40
0.5
50
0.0
51
90.0
0
LINE
8
0
6
CONTINUOUS
10
-4.5
20
42.8
30
0
11
-8.5
21
42.8
31
0
0
ARC
8
0
6
CONTINUOUS
10
1.3
20
13.7
30
0
40
0.5
50
270.0
51
0.0
0
LINE
8
0
6
CONTINUOUS
10
1.3
20
13.2
30
0
11
-6.9
21
13.2
31
0
0
ARC
8
0
6
CONTINUOUS
10
-6.9
20
13.7
30
0
40
0.5
50
180.0
51
270.0
0
LINE
8
0
6
CONTINUOUS
10
-7.4
20
13.7
30
0
11
-7.4
21
21.9
31
0
0
ARC
8
0
6
CONTINUOUS
10
-6.9
20
21.9
30
0
40
0.5
50
90.0
51
180.0
0
LINE
8
0
6
CONTINUOUS
10
-6.9
20
22.4
30
0
11
1.3
21
22.4
31
0
0
ARC
8
0
6
CONTINUOUS
10
1.3
20
21.9
30
0
40
0.5
50
0.0
51
90.0
0
LINE
8
0
6
CONTINUOUS
10
1.8
20
21.9
30
0
11
1.8
21
13.7
31
0
0
ARC
8
0
6
CONTINUOUS
10
39.0
20
26.8
30
0
40
1.0
50
180.0
51
270.0
0
LINE
8
0
6
CONTINUOUS
10
38.0
20
26.8
30
0
11
38.0
21
28.1
31
0
0
ARC
8
0
6
CONTINUOUS
10
39.0
20
28.1
30
0
40
1.0
50
90.0
51
180.0
0
LINE
8
0
6
CONTINUOUS
10
39.0
20
29.1
30
0
11
41.5
21
29.1
31
0
0
LINE
8
0
6
CONTINUOUS
10
41.5
20
29.1
30
0
11
41.5
21
30.6
31
0
0
LINE
8
0
6
CONTINUOUS
10
41.5
20
30.6
30
0
11
36.0
21
30.6
31
0
0
ARC
8
0
6
CONTINUOUS
10
36.0
20
30.1
30
0
40
0.5
50
90.0
51
180.0
0
LINE
8
0
6
CONTINUOUS
10
35.5
20
30.1
30
0
11
35.5
21
29.1
31
0
0
LINE
8
0
6
CONTINUOUS
10
35.5
20
29.1
30
0
11
36.3
21
29.1
31
0
0
LINE
8
0
6
CONTINUOUS
10
36.3
20
29.1
30
0
11
36.3
21
26.1
31
0
0
ARC
8
0
6
CONTINUOUS
10
35.55483898919448
20
26.362364380157253
30
0
40
0.79
50
225.3859338704212
51
340.60329971341184
0
LINE
8
0
6
CONTINUOUS
10
35.0
20
25.8
30
0
11
32.82
21
25.8
31
0
0
LINE
8
0
6
CONTINUOUS
10
32.82
20
25.8
30
0
11
32.82
21
24.22
31
0
0
LINE
8
0
6
CONTINUOUS
10
32.82
20
24.22
30
0
11
35.99
21
24.22
31
0
0
LINE
8
0
6
CONTINUOUS
10
35.99
20
24.22
30
0
11
35.99
21
19.7
31
0
0
ARC
8
0
6
CONTINUOUS
10
35.21715182678063
20
20.029098315327627
30
0
40
0.84
50
240.2240733447433
51
336.93446741614594
0
LINE
8
0
6
CONTINUOUS
10
34.8
20
19.3
30
0
11
32.19
21
20.81
31
0
0
ARC
8
0
6
CONTINUOUS
10
36.84911832041981
20
20.900644781032703
30
0
40
4.66
50
181.1145688747638
51
205.6971816075094
0
ARC
8
0
6
CONTINUOUS
10
30.395315986662432
20
17.799999999999997
30
0
40
2.5
50
334.40544772162355
51
25.59455227837652
0
ARC
8
0
6
CONTINUOUS
10
36.84911832041981
20
14.699355218967295
30
0
40
4.66
50
154.3028183924906
51
178.8854311252362
0
LINE
8
0
6
CONTINUOUS
10
32.19
20
14.79
30
0
11
34.8
21
16.3
31
0
0
ARC
8
0
6
CONTINUOUS
10
35.23000101771117
20
15.661251908208442
30
0
40
0.77
50
359.9068453398922
51
123.94818078840196
0
LINE
8
0
6
CONTINUOUS
10
36.0
20
15.66
30
0
11
36.0
21
11.42
31
0
0
LINE
8
0
6
CONTINUOUS
10
36.0
20
11.42
30
0
11
32.82
21
11.38
31
0
0
LINE
8
0
6
CONTINUOUS
10
32.82
20
11.38
30
0
11
32.82
21
9.8
31
0
0
LINE
8
0
6
CONTINUOUS
10
32.82
20
9.8
30
0
11
35.0
21
9.8
31
0
0
ARC
8
0
6
CONTINUOUS
10
35.55483898919448
20
9.23763561984275
30
0
40
0.79
50
19.396700286588032
51
134.61406612957887
0
LINE
8
0
6
CONTINUOUS
10
36.3
20
9.5
30
0
11
36.3
21
6.5
31
0
0
LINE
8
0
6
CONTINUOUS
10
36.3
20
6.5
30
0
11
35.5
21
6.5
31
0
0
LINE
8
0
6
CONTINUOUS
10
35.5
20
6.5
30
0
11
35.5
21
5.5
31
0
0
ARC
8
0
6
CONTINUOUS
10
36.0
20
5.5
30
0
40
0.5
50
180.0
51
270.0
0
LINE
8
0
6
CONTINUOUS
10
36.0
20
5.0
30
0
11
41.5
21
5.0
31
0
0
LINE
8
0
6
CONTINUOUS
10
41.5
20
5.0
30
0
11
41.5
21
6.5
31
0
0
LINE
8
0
6
CONTINUOUS
10
41.5
20
6.5
30
0
11
39.0
21
6.5
31
0
0
ARC
8
0
6
CONTINUOUS
10
39.0
20
7.5
30
0
40
1.0
50
180.0
51
270.0
0
LINE
8
0
6
CONTINUOUS
10
38.0
20
7.5
30
0
11
38.0
21
8.8
31
0
0
ARC
8
0
6
CONTINUOUS
10
39.0
20
8.8
30
0
40
1.0
50
90.0
51
180.0
0
LINE
8
0
6
CONTINUOUS
10
39.0
20
9.8
30
0
11
46.0
21
9.8
31
0
0
ARC
8
0
6
CONTINUOUS
10
46.5
20
9.281926646120455
30
0
40
0.72
50
46.01703686964135
51
133.98296313035866
0
LINE
8
0
6
CONTINUOUS
10
47.0
20
9.8
30
0
11
53.0
21
9.8
31
0
0
ARC
8
0
6
CONTINUOUS
10
53.0
20
8.8
30
0
40
1.0
50
0.0
51
90.0
0
LINE
8
0
6
CONTINUOUS
10
54.0
20
8.8
30
0
11
54.0
21
7.5
31
0
0
ARC
8
0
6
CONTINUOUS
10
53.0
20
7.5
30
0
40
1.0
50
270.0
51
0.0
0
LINE
8
0
6
CONTINUOUS
10
53.0
20
6.5
30
0
11
51.5
21
6.5
31
0
0
LINE
8
0
6
CONTINUOUS
10
51.5
20
6.5
30
0
11
51.5
21
5.48
31
0
0
LINE
8
0
6
CONTINUOUS
10
51.5
20
5.48
30
0
11
52.6
21
4.8
31
0
0
LINE
8
0
6
CONTINUOUS
10
52.6
20
4.8
30
0
11
56.0
21
4.8
31
0
0
LINE
8
0
6
CONTINUOUS
10
56.0
20
4.8
30
0
11
56.0
21
30.8
31
0
0
LINE
8
0
6
CONTINUOUS
10
56.0
20
30.8
30
0
11
52.6
21
30.8
31
0
0
LINE
8
0
6
CONTINUOUS
10
52.6
20
30.8
30
0
11
51.5
21
30.11
31
0
0
LINE
8
0
6
CONTINUOUS
10
51.5
20
30.11
30
0
11
51.5
21
29.1
31
0
0
LINE
8
0
6
CONTINUOUS
10
51.5
20
29.1
30
0
11
53.0
21
29.1
31
0
0
ARC
8
0
6
CONTINUOUS
10
53.0
20
28.1
30
0
40
1.0
50
0.0
51
90.0
0
LINE
8
0
6
CONTINUOUS
10
54.0
20
28.1
30
0
11
54.0
21
26.8
31
0
0
ARC
8
0
6
CONTINUOUS
10
53.0
20
26.8
30
0
40
1.0
50
270.0
51
0.0
0
LINE
8
0
6
CONTINUOUS
10
53.0
20
25.8
30
0
11
47.0
21
25.8
31
0
0
ARC
8
0
6
CONTINUOUS
10
46.5
20
26.318073353879544
30
0
40
0.72
50
226.01703686964126
51
313.9829631303587
0
LINE
8
0
6
CONTINUOUS
10
46.0
20
25.8
30
0
11
39.0
21
25.8
31
0
0
ARC
8
0
6
CONTINUOUS
10
38.2
20
23.8
30
0
40
0.5
50
90.0
51
180.0
0
LINE
8
0
6
CONTINUOUS
10
38.2
20
24.3
30
0
11
53.9
21
24.3
31
0
0
ARC
8
0
6
CONTINUOUS
10
53.9
20
23.8
30
0
40
0.5
50
0.0
51
90.0
0
LINE
8
0
6
CONTINUOUS
10
54.4
20
23.8
30
0
11
54.4
21
11.8
31
0
0
ARC
8
0
6
CONTINUOUS
10
53.9
20
11.8
30
0
40
0.5
50
270.0
51
0.0
0
LINE
8
0
6
CONTINUOUS
10
53.9
20
11.3
30
0
11
38.2
21
11.3
31
0
0
ARC
8
0
6
CONTINUOUS
10
38.2
20
11.8
30
0
40
0.5
50
180.0
51
270.0
0
LINE
8
0
6
CONTINUOUS
10
37.7
20
11.8
30
0
11
37.7
21
23.8
31
0
0
LINE
8
0
6
CONTINUOUS
10
16.25
20
25.8
30
0
11
16.25
21
30.1
31
0
0
ARC
8
0
6
CONTINUOUS
10
15.75
20
30.1
30
0
40
0.5
50
0.0
51
90.0
0
LINE
8
0
6
CONTINUOUS
10
15.75
20
30.6
30
0
11
14.93
21
30.6
31
0
0
ARC
8
0
6
CONTINUOUS
10
14.91563638787923
20
29.60010316199778
30
0
40
1.0
50
89.17699734585632
51
164.9360590329631
0
LINE
8
0
6
CONTINUOUS
10
13.95
20
29.86
30
0
11
13.75
21
29.1
31
0
0
LINE
8
0
6
CONTINUOUS
10
13.75
20
29.1
30
0
11
14.75
21
29.1
31
0
0
LINE
8
0
6
CONTINUOUS
10
14.75
20
29.1
30
0
11
14.75
21
26.8
31
0
0
ARC
8
0
6
CONTINUOUS
10
13.75
20
26.8
30
0
40
1.0
50
270.0
51
0.0
0
LINE
8
0
6
CONTINUOUS
10
13.75
20
25.8
30
0
11
10.75
21
25.8
31
0
0
ARC
8
0
6
CONTINUOUS
10
10.75
20
26.8
30
0
40
1.0
50
180.0
51
270.0
0
LINE
8
0
6
CONTINUOUS
10
9.75
20
26.8
30
0
11
9.75
21
29.1
31
0
0
LINE
8
0
6
CONTINUOUS
10
9.75
20
29.1
30
0
11
10.75
21
29.1
31
0
0
LINE
8
0
6
CONTINUOUS
10
10.75
20
29.1
30
0
11
10.55
21
29.86
31
0
0
ARC
8
0
6
CONTINUOUS
10
9.584388790497599
20
29.600009630787394
30
0
40
1.0
50
15.069490688999986
51
90.25145997993258
0
LINE
8
0
6
CONTINUOUS
10
9.58
20
30.6
30
0
11
8.75
21
30.6
31
0
0
ARC
8
0
6
CONTINUOUS
10
8.75
20
30.1
30
0
40
0.5
50
90.0
51
180.0
0
LINE
8
0
6
CONTINUOUS
10
8.25
20
30.1
30
0
11
8.25
21
25.8
31
0
0
LINE
8
0
6
CONTINUOUS
10
8.25
20
25.8
30
0
11
7.21
21
25.8
31
0
0
ARC
8
0
6
CONTINUOUS
10
7.21
20
25.3
30
0
40
0.5
50
90.0
51
180.0
0
LINE
8
0
6
CONTINUOUS
10
6.71
20
25.3
30
0
11
6.71
21
24.22
31
0
0
LINE
8
0
6
CONTINUOUS
10
6.71
20
24.22
30
0
11
4.01
21
24.19
31
0
0
ARC
8
0
6
CONTINUOUS
10
4.01
20
23.69
30
0
40
0.5
50
90.0
51
180.0
0
LINE
8
0
6
CONTINUOUS
10
3.5
20
23.69
30
0
11
3.5
21
20.36
31
0
0
ARC
8
0
6
CONTINUOUS
10
4.509981909968996
20
20.36601495924825
30
0
40
1.0
50
180.3446338570162
51
300.00119683403443
0
LINE
8
0
6
CONTINUOUS
10
5.01
20
19.5
30
0
11
8.67
21
21.61
31
0
0
ARC
8
0
6
CONTINUOUS
10
7.918648970920169
20
22.908257151376674
30
0
40
1.5
50
300.05960682142853
51
330.9544513004011
0
LINE
8
0
6
CONTINUOUS
10
9.23
20
22.18
30
0
11
9.74
21
23.09
31
0
0
ARC
8
0
6
CONTINUOUS
10
10.611723267515462
20
22.600001484826567
30
0
40
1.0
50
90.0987360044766
51
150.6595160182602
0
LINE
8
0
6
CONTINUOUS
10
10.61
20
23.6
30
0
11
28.85
21
23.6
31
0
0
ARC
8
0
6
CONTINUOUS
10
28.887874643824908
20
22.600717501726795
30
0
40
1.0
50
29.29343317287906
51
92.17057639733551
0
LINE
8
0
6
CONTINUOUS
10
29.76
20
23.09
30
0
11
30.27
21
22.18
31
0
0
ARC
8
0
6
CONTINUOUS
10
31.58135102907983
20
22.908257151376674
30
0
40
1.5
50
209.0455486995989
51
239.9403931785714
0
LINE
8
0
6
CONTINUOUS
10
30.83
20
21.61
30
0
11
34.49
21
19.5
31
0
0
ARC
8
0
6
CONTINUOUS
10
34.99001809003101
20
20.36601495924825
30
0
40
1.0
50
239.9988031659655
51
359.6553661429838
0
LINE
8
0
6
CONTINUOUS
10
36.0
20
20.36
30
0
11
36.0
21
23.69
31
0
0
ARC
8
0
6
CONTINUOUS
10
35.49
20
23.69
30
0
40
0.5
50
0.0
51
90.0
0
LINE
8
0
6
CONTINUOUS
10
35.49
20
24.19
30
0
11
32.83
21
24.22
31
0
0
LINE
8
0
6
CONTINUOUS
10
32.83
20
24.22
30
0
11
32.79
21
25.3
31
0
0
ARC
8
0
6
CONTINUOUS
10
32.29
20
25.3
30
0
40
0.5
50
0.0
51
90.0
0
LINE
8
0
6
CONTINUOUS
10
32.29
20
25.8
30
0
11
16.25
21
25.8
31
0
0
LINE
8
0
6
CONTINUOUS
10
16.25
20
9.8
30
0
11
32.29
21
9.8
31
0
0
ARC
8
0
6
CONTINUOUS
10
32.29
20
10.3
30
0
40
0.5
50
270.0
51
0.0
0
LINE
8
0
6
CONTINUOUS
10
32.79
20
10.3
30
0
11
32.83
21
11.38
31
0
0
LINE
8
0
6
CONTINUOUS
10
32.83
20
11.38
30
0
11
35.49
21
11.41
31
0
0
ARC
8
0
6
CONTINUOUS
10
35.49
20
11.91
30
0
40
0.5
50
270.0
51
0.0
0
LINE
8
0
6
CONTINUOUS
10
36.0
20
11.91
30
0
11
36.0
21
15.24
31
0
0
ARC
8
0
6
CONTINUOUS
10
34.99001809003101
20
15.233985040751753
30
0
40
1.0
50
0.3446338570159885
51
120.00119683403454
0
LINE
8
0
6
CONTINUOUS
10
34.49
20
16.1
30
0
11
30.83
21
13.99
31
0
0
ARC
8
0
6
CONTINUOUS
10
31.58135102907983
20
12.691742848623326
30
0
40
1.5
50
120.05960682142859
51
150.9544513004011
0
LINE
8
0
6
CONTINUOUS
10
30.27
20
13.42
30
0
11
29.76
21
12.51
31
0
0
ARC
8
0
6
CONTINUOUS
10
28.887874643824908
20
12.999282498273203
30
0
40
1.0
50
267.82942360266446
51
330.70656682712104
0
LINE
8
0
6
CONTINUOUS
10
28.85
20
12.0
30
0
11
10.61
21
12.0
31
0
0
ARC
8
0
6
CONTINUOUS
10
10.611723267515462
20
12.999998515173433
30
0
40
1.0
50
209.3404839817398
51
269.9012639955234
0
LINE
8
0
6
CONTINUOUS
10
9.74
20
12.51
30
0
11
9.23
21
13.42
31
0
0
ARC
8
0
6
CONTINUOUS
10
7.918648970920169
20
12.691742848623324
30
0
40
1.5
50
29.045548699598964
51
59.94039317857148
0
LINE
8
0
6
CONTINUOUS
10
8.67
20
13.99
30
0
11
5.01
21
16.1
31
0
0
ARC
8
0
6
CONTINUOUS
10
4.509981909968996
20
15.233985040751753
30
0
40
1.0
50
59.99880316596555
51
179.655366142984
0
LINE
8
0
6
CONTINUOUS
10
3.5
20
15.24
30
0
11
3.5
21
11.91
31
0
0
ARC
8
0
6
CONTINUOUS
10
4.01
20
11.91
30
0
40
0.5
50
180.0
51
270.0
0
LINE
8
0
6
CONTINUOUS
10
4.01
20
11.41
30
0
11
6.71
21
11.38
31
0
0
LINE
8
0
6
CONTINUOUS
10
6.71
20
11.38
30
0
11
6.71
21
10.3
31
0
0
ARC
8
0
6
CONTINUOUS
10
7.21
20
10.3
30
0
40
0.5
50
180.0
51
270.0
0
LINE
8
0
6
CONTINUOUS
10
7.21
20
9.8
30
0
11
8.25
21
9.8
31
0
0
LINE
8
0
6
CONTINUOUS
10
8.25
20
9.8
30
0
11
8.25
21
5.5
31
0
0
ARC
8
0
6
CONTINUOUS
10
8.75
20
5.5
30
0
40
0.5
50
180.0
51
270.0
0
LINE
8
0
6
CONTINUOUS
10
8.75
20
5.0
30
0
11
9.58
21
5.0
31
0
0
ARC
8
0
6
CONTINUOUS
10
9.5843887904976
20
5.999990369212608
30
0
40
1.0
50
269.7485400200673
51
344.93050931099987
0
LINE
8
0
6
CONTINUOUS
10
10.55
20
5.74
30
0
11
10.75
21
6.5
31
0
0
LINE
8
0
6
CONTINUOUS
10
10.75
20
6.5
30
0
11
9.75
21
6.5
31
0
0
LINE
8
0
6
CONTINUOUS
10
9.75
20
6.5
30
0
11
9.75
21
8.8
31
0
0
ARC
8
0
6
CONTINUOUS
10
10.75
20
8.8
30
0
40
1.0
50
90.0
51
180.0
0
LINE
8
0
6
CONTINUOUS
10
10.75
20
9.8
30
0
11
13.75
21
9.8
31
0
0
ARC
8
0
6
CONTINUOUS
10
13.75
20
8.8
30
0
40
1.0
50
0.0
51
90.0
0
LINE
8
0
6
CONTINUOUS
10
14.75
20
8.8
30
0
11
14.75
21
6.5
31
0
0
LINE
8
0
6
CONTINUOUS
10
14.75
20
6.5
30
0
11
13.75
21
6.5
31
0
0
LINE
8
0
6
CONTINUOUS
10
13.75
20
6.5
30
0
11
13.95
21
5.74
31
0
0
ARC
8
0
6
CONTINUOUS
10
14.915636387879228
20
5.999896838002223
30
0
40
1.0
50
195.06394096703707
51
270.8230026541438
0
LINE
8
0
6
CONTINUOUS
10
14.93
20
5.0
30
0
11
15.75
21
5.0
31
0
0
ARC
8
0
6
CONTINUOUS
10
15.75
20
5.5
30
0
40
0.5
50
270.0
51
0.0
0
LINE
8
0
6
CONTINUOUS
10
16.25
20
5.5
30
0
11
16.25
21
9.8
31
0
0
LINE
8
0
6
CONTINUOUS
10
-3.7
20
2.25
30
0
11
-3.7
21
-0.15
31
0
0
ARC
8
0
6
CONTINUOUS
10
-3.7000000074505808
20
-0.6499999999999999
30
0
40
0.5
50
270.00000085377366
51
89.99999914622636
0
LINE
8
0
6
CONTINUOUS
10
-3.7
20
-1.15
30
0
11
-5.0
21
-1.15
31
0
0
LINE
8
0
6
CONTINUOUS
10
-5.0
20
-1.15
30
0
11
-5.0
21
-0.14
31
0
0
LINE
8
0
6
CONTINUOUS
10
-5.0
20
-0.14
30
0
11
-5.81
21
-0.53
31
0
0
LINE
8
0
6
CONTINUOUS
10
-5.81
20
-0.53
30
0
11
-7.0
21
-1.73
31
0
0
LINE
8
0
6
CONTINUOUS
10
-7.0
20
-1.73
30
0
11
-7.0
21
-3.78
31
0
0
LINE
8
0
6
CONTINUOUS
10
-7.0
20
-3.78
30
0
11
-5.81
21
-4.97
31
0
0
LINE
8
0
6
CONTINUOUS
10
-5.81
20
-4.97
30
0
11
-5.0
21
-5.4
31
0
0
LINE
8
0
6
CONTINUOUS
10
-5.0
20
-5.4
30
0
11
-5.0
21
-4.35
31
0
0
LINE
8
0
6
CONTINUOUS
10
-5.0
20
-4.35
30
0
11
-3.7
21
-4.35
31
0
0
ARC
8
0
6
CONTINUOUS
10
-3.7
20
-4.85
30
0
40
0.5
50
270.0
51
90.0
0
LINE
8
0
6
CONTINUOUS
10
-3.7
20
-5.35
30
0
11
-3.7
21
-7.25
31
0
0
LINE
8
0
6
CONTINUOUS
10
-3.7
20
-7.25
30
0
11
-4.6
21
-7.25
31
0
0
LINE
8
0
6
CONTINUOUS
10
-4.6
20
-7.25
30
0
11
-3.24
21
-7.73
31
0
0
ARC
8
0
6
CONTINUOUS
10
-3.4145504425887747
20
-9.973219147339837
30
0
40
2.25
50
6.718204379825211
51
85.5506388821288
0
LINE
8
0
6
CONTINUOUS
10
-1.18
20
-9.71
30
0
11
-1.06
21
-10.79
31
0
0
ARC
8
0
6
CONTINUOUS
10
-0.635
20
-10.855383484153108
30
0
40
0.43
50
171.25398671675865
51
8.746013283241343
0
LINE
8
0
6
CONTINUOUS
10
-0.21
20
-10.79
30
0
11
-0.21
21
-8.4
31
0
0
ARC
8
0
6
CONTINUOUS
10
-2.6099852140393613
20
-8.391575488593395
30
0
40
2.4
50
359.7988791919527
51
47.2219232108493
0
LINE
8
0
6
CONTINUOUS
10
-0.98
20
-6.63
30
0
11
-1.54
21
-5.95
31
0
0
LINE
8
0
6
CONTINUOUS
10
-1.54
20
-5.95
30
0
11
-0.22
21
-4.75
31
0
0
LINE
8
0
6
CONTINUOUS
10
-0.22
20
-4.75
30
0
11
-1.39
21
-3.76
31
0
0
LINE
8
0
6
CONTINUOUS
10
-1.39
20
-3.76
30
0
11
-0.22
21
-2.7
31
0
0
LINE
8
0
6
CONTINUOUS
10
-0.22
20
-2.7
30
0
11
-1.39
21
-1.71
31
0
0
LINE
8
0
6
CONTINUOUS
10
-1.39
20
-1.71
30
0
11
-0.22
21
-0.75
31
0
0
LINE
8
0
6
CONTINUOUS
10
-0.22
20
-0.75
30
0
11
-1.39
21
0.25
31
0
0
LINE
8
0
6
CONTINUOUS
10
-1.39
20
0.25
30
0
11
-0.2
21
1.22
31
0
0
LINE
8
0
6
CONTINUOUS
10
-0.2
20
1.22
30
0
11
-1.4
21
2.25
31
0
0
LINE
8
0
6
CONTINUOUS
10
-1.4
20
2.25
30
0
11
-3.7
21
2.25
31
0
0
LINE
8
0
6
CONTINUOUS
10
-5.8
20
-3.55
30
0
11
-5.8
21
-1.95
31
0
0
LINE
8
0
6
CONTINUOUS
10
-5.8
20
-1.95
30
0
11
-2.9
21
-1.95
31
0
0
LINE
8
0
6
CONTINUOUS
10
-2.9
20
-1.95
30
0
11
-2.9
21
-3.55
31
0
0
LINE
8
0
6
CONTINUOUS
10
-2.9
20
-3.55
30
0
11
-5.8
21
-3.55
31
0
0
LINE
8
0
6
CONTINUOUS
10
43.76
20
27.26
30
0
11
40.5
21
27.26
31
0
0
LINE
8
0
6
CONTINUOUS
10
40.5
20
27.26
30
0
11
40.5
21
26.36
31
0
0
LINE
8
0
6
CONTINUOUS
10
40.5
20
26.36
30
0
11
44.7
21
26.36
31
0
0
LINE
8
0
6
CONTINUOUS
10
44.7
20
26.36
30
0
11
49.28
21
30.95
31
0
0
LINE
8
0
6
CONTINUOUS
10
49.28
20
30.95
30
0
11
49.51
21
28.16
31
0
0
LINE
8
0
6
CONTINUOUS
10
49.51
20
28.16
30
0
11
51.01
21
28.16
31
0
0
LINE
8
0
6
CONTINUOUS
10
51.01
20
28.16
30
0
11
50.71
21
31.57
31
0
0
LINE
8
0
6
CONTINUOUS
10
50.71
20
31.57
30
0
11
51.46
21
32.31
31
0
0
LINE
8
0
6
CONTINUOUS
10
51.46
20
32.31
30
0
11
54.0
21
31.63
31
0
0
LINE
8
0
6
CONTINUOUS
10
54.0
20
31.63
30
0
11
55.0
21
30.86
31
0
0
LINE
8
0
6
CONTINUOUS
10
55.0
20
30.86
30
0
11
56.0
21
30.86
31
0
0
LINE
8
0
6
CONTINUOUS
10
56.0
20
30.86
30
0
11
56.0
21
42.8
31
0
0
LINE
8
0
6
CONTINUOUS
10
56.0
20
42.8
30
0
11
41.0
21
42.8
31
0
0
LINE
8
0
6
CONTINUOUS
10
41.0
20
42.8
30
0
11
41.0
21
40.8
31
0
0
LINE
8
0
6
CONTINUOUS
10
41.0
20
40.8
30
0
11
39.0
21
40.8
31
0
0
LINE
8
0
6
CONTINUOUS
10
39.0
20
40.8
30
0
11
39.0
21
38.8
31
0
0
LINE
8
0
6
CONTINUOUS
10
39.0
20
38.8
30
0
11
40.97
21
38.8
31
0
0
LINE
8
0
6
CONTINUOUS
10
40.97
20
38.8
30
0
11
38.78
21
32.8
31
0
0
LINE
8
0
6
CONTINUOUS
10
38.78
20
32.8
30
0
11
40.17
21
32.8
31
0
0
LINE
8
0
6
CONTINUOUS
10
40.17
20
32.8
30
0
11
42.5
21
39.2
31
0
0
LINE
8
0
6
CONTINUOUS
10
42.5
20
39.2
30
0
11
42.5
21
41.3
31
0
0
LINE
8
0
6
CONTINUOUS
10
42.5
20
41.3
30
0
11
52.93
21
41.3
31
0
0
ARC
8
0
6
CONTINUOUS
10
52.93487175303205
20
39.810007964443294
30
0
40
1.49
50
8.10191098226942
51
90.18733649993979
0
LINE
8
0
6
CONTINUOUS
10
54.41
20
40.08
30
0
11
54.41
21
37.61
31
0
0
LINE
8
0
6
CONTINUOUS
10
54.41
20
37.61
30
0
11
50.01
21
37.61
31
0
0
LINE
8
0
6
CONTINUOUS
10
50.01
20
37.61
30
0
11
50.01
21
36.31
31
0
0
LINE
8
0
6
CONTINUOUS
10
50.01
20
36.31
30
0
11
54.0
21
36.31
31
0
0
LINE
8
0
6
CONTINUOUS
10
54.0
20
36.31
30
0
11
54.0
21
33.18
31
0
0
LINE
8
0
6
CONTINUOUS
10
54.0
20
33.18
30
0
11
50.59
21
34.09
31
0
0
LINE
8
0
6
CONTINUOUS
10
50.59
20
34.09
30
0
11
43.76
21
27.26
31
0
0
ARC
8
0
6
CONTINUOUS
10
33.673145883252104
20
32.014409532244116
30
0
40
0.67
50
171.7974873092652
51
332.9773570048873
0
ARC
8
0
6
CONTINUOUS
10
42.80675241934708
20
27.451425340472245
30
0
40
9.54
50
110.28070275377792
51
153.48760072664336
0
LINE
8
0
6
CONTINUOUS
10
39.5
20
36.4
30
0
11
40.26
21
38.43
31
0
0
LINE
8
0
6
CONTINUOUS
10
40.26
20
38.43
30
0
11
39.0
21
38.43
31
0
0
LINE
8
0
6
CONTINUOUS
10
39.0
20
38.43
30
0
11
39.0
21
41.1
31
0
0
LINE
8
0
6
CONTINUOUS
10
39.0
20
41.1
30
0
11
40.31
21
41.1
31
0
0
LINE
8
0
6
CONTINUOUS
10
40.31
20
41.1
30
0
11
40.7
21
43.16
31
0
0
LINE
8
0
6
CONTINUOUS
10
40.7
20
43.16
30
0
11
37.62
21
43.66
31
0
0
ARC
8
0
6
CONTINUOUS
10
38.43775658725959
20
48.59267413924673
30
0
40
5.0
50
225.76912548558707
51
260.5869121112498
0
ARC
8
0
6
CONTINUOUS
10
34.14999348584241
20
44.18387072603289
30
0
40
1.15
50
45.92033836771985
51
180.19284929051005
0
LINE
8
0
6
CONTINUOUS
10
33.0
20
44.18
30
0
11
33.0
21
42.14
31
0
0
ARC
8
0
6
CONTINUOUS
10
36.46855959166521
20
42.239971791357796
30
0
40
3.47
50
181.6509378708911
51
195.20300017206978
0
LINE
8
0
6
CONTINUOUS
10
33.12
20
41.33
30
0
11
33.84
21
38.85
31
0
0
ARC
8
0
6
CONTINUOUS
10
35.150561554910624
20
39.24915963071216
30
0
40
1.37
50
196.93923874644256
51
249.01803137284443
0
LINE
8
0
6
CONTINUOUS
10
34.66
20
37.97
30
0
11
35.72
21
37.57
31
0
0
ARC
8
0
6
CONTINUOUS
10
35.59209701583369
20
37.08663592744045
30
0
40
0.5
50
276.6501142395545
51
75.17865220049593
0
ARC
8
0
6
CONTINUOUS
10
37.90555637179581
20
32.71922934628628
30
0
40
4.48
50
120.2299995712125
51
139.47908409291009
0
ARC
8
0
6
CONTINUOUS
10
40.73801856758613
20
30.91411998133428
30
0
40
7.82
50
142.9110819307843
51
171.20347883656902
0
LINE
8
0
6
CONTINUOUS
10
34.78
20
39.86
30
0
11
33.8
21
42.47
31
0
0
LINE
8
0
6
CONTINUOUS
10
33.8
20
42.47
30
0
11
33.66
21
44.03
31
0
0
ARC
8
0
6
CONTINUOUS
10
34.13182269331459
20
44.16222460464441
30
0
40
0.49
50
355.05653907291475
51
195.65511101279495
0
ARC
8
0
6
CONTINUOUS
10
38.402445236524144
20
44.57739264608844
30
0
40
3.81
50
186.89502073760957
51
236.50783860140183
0
LINE
8
0
6
CONTINUOUS
10
36.3
20
41.4
30
0
11
36.3
21
40.09
31
0
0
ARC
8
0
6
CONTINUOUS
10
35.53318481798648
20
40.02003946374153
30
0
40
0.77
50
191.99600331992494
51
5.212959866260672
0
LINE
8
0
6
CONTINUOUS
10
7.79
20
47.87
30
0
11
7.79
21
50.44
31
0
0
ARC
8
0
6
CONTINUOUS
10
7.34
20
50.3446060798583
30
0
40
0.4600000000000002
50
11.968745554685777
51
168.03125444531423
0
ARC
8
0
6
CONTINUOUS
10
0.26453669185536555
20
51.7306339343242
30
0
40
6.75
50
273.0186625972205
51
348.9768834349912
0
LINE
8
0
6
CONTINUOUS
10
0.62
20
44.99
30
0
11
-6.06
21
44.64
31
0
0
ARC
8
0
6
CONTINUOUS
10
-5.998157128875697
20
43.63189511493541
30
0
40
1.01
50
93.51044886528584
51
172.71317512123284
0
LINE
8
0
6
CONTINUOUS
10
-7.0
20
43.76
30
0
11
-7.0
21
42.8
31
0
0
LINE
8
0
6
CONTINUOUS
10
-7.0
20
42.8
30
0
11
-4.0
21
42.8
31
0
0
LINE
8
0
6
CONTINUOUS
10
-4.0
20
42.8
30
0
11
-4.0
21
40.5
31
0
0
LINE
8
0
6
CONTINUOUS
10
-4.0
20
40.5
30
0
11
-5.0
21
40.5
31
0
0
LINE
8
0
6
CONTINUOUS
10
-5.0
20
40.5
30
0
11
-5.0
21
41.43
31
0
0
LINE
8
0
6
CONTINUOUS
10
-5.0
20
41.43
30
0
11
-7.0
21
39.43
31
0
0
LINE
8
0
6
CONTINUOUS
10
-7.0
20
39.43
30
0
11
-7.0
21
37.51
31
0
0
LINE
8
0
6
CONTINUOUS
10
-7.0
20
37.51
30
0
11
-4.99
21
35.5
31
0
0
LINE
8
0
6
CONTINUOUS
10
-4.99
20
35.5
30
0
11
-4.99
21
36.5
31
0
0
LINE
8
0
6
CONTINUOUS
10
-4.99
20
36.5
30
0
11
-4.0
21
36.5
31
0
0
LINE
8
0
6
CONTINUOUS
10
-4.0
20
36.5
30
0
11
-4.0
21
33.4
31
0
0
LINE
8
0
6
CONTINUOUS
10
-4.0
20
33.4
30
0
11
6.6
21
33.4
31
0
0
LINE
8
0
6
CONTINUOUS
10
6.6
20
33.4
30
0
11
7.8
21
34.44
31
0
0
LINE
8
0
6
CONTINUOUS
10
7.8
20
34.44
30
0
11
6.6
21
35.45
31
0
0
LINE
8
0
6
CONTINUOUS
10
6.6
20
35.45
30
0
11
7.79
21
36.41
31
0
0
LINE
8
0
6
CONTINUOUS
10
7.79
20
36.41
30
0
11
6.58
21
37.43
31
0
0
LINE
8
0
6
CONTINUOUS
10
6.58
20
37.43
30
0
11
7.8
21
38.41
31
0
0
LINE
8
0
6
CONTINUOUS
10
7.8
20
38.41
30
0
11
6.56
21
39.45
31
0
0
LINE
8
0
6
CONTINUOUS
10
6.56
20
39.45
30
0
11
7.79
21
40.45
31
0
0
LINE
8
0
6
CONTINUOUS
10
7.79
20
40.45
30
0
11
6.61
21
41.44
31
0
0
LINE
8
0
6
CONTINUOUS
10
6.61
20
41.44
30
0
11
7.79
21
42.4
31
0
0
LINE
8
0
6
CONTINUOUS
10
7.79
20
42.4
30
0
11
6.58
21
43.42
31
0
0
LINE
8
0
6
CONTINUOUS
10
6.58
20
43.42
30
0
11
7.79
21
44.4
31
0
0
LINE
8
0
6
CONTINUOUS
10
7.79
20
44.4
30
0
11
6.18
21
45.3
31
0
0
LINE
8
0
6
CONTINUOUS
10
6.18
20
45.3
30
0
11
7.79
21
47.87
31
0
0
LINE
8
0
6
CONTINUOUS
10
-5.8
20
39.2
30
0
11
-2.89
21
39.2
31
0
0
LINE
8
0
6
CONTINUOUS
10
-2.89
20
39.2
30
0
11
-2.89
21
37.6
31
0
0
LINE
8
0
6
CONTINUOUS
10
-2.89
20
37.6
30
0
11
-5.8
21
37.6
31
0
0
LINE
8
0
6
CONTINUOUS
10
-5.8
20
37.6
30
0
11
-5.8
21
39.2
31
0
0
LINE
8
0
6
CONTINUOUS
10
4.0
20
37.4
30
0
11
4.0
21
35.4
31
0
0
LINE
8
0
6
CONTINUOUS
10
4.0
20
35.4
30
0
11
-0.0
21
35.4
31
0
0
LINE
8
0
6
CONTINUOUS
10
-0.0
20
35.4
30
0
11
-0.0
21
37.4
31
0
0
LINE
8
0
6
CONTINUOUS
10
-0.0
20
37.4
30
0
11
4.0
21
37.4
31
0
0
LINE
8
0
6
CONTINUOUS
10
4.0
20
41.4
30
0
11
4.0
21
39.4
31
0
0
LINE
8
0
6
CONTINUOUS
10
4.0
20
39.4
30
0
11
-0.0
21
39.4
31
0
0
LINE
8
0
6
CONTINUOUS
10
-0.0
20
39.4
30
0
11
-0.0
21
41.4
31
0
0
LINE
8
0
6
CONTINUOUS
10
-0.0
20
41.4
30
0
11
4.0
21
41.4
31
0
0
LINE
8
0
6
CONTINUOUS
10
56.0
20
42.8
30
0
11
56.0
21
136.01
31
0
0
LINE
8
0
6
CONTINUOUS
10
-9.0
20
42.8
30
0
11
-9.0
21
136.01
31
0
0
ENDSEC
0
EOF