0
SECTION
2
HEADER
0
ENDSEC
0
SECTION
2
TABLES
0
TABLE
2
LTYPE
70
2
0
LTYPE
2
CONTINUOUS
70
0
3
Solid line
72
65
73
0
40
0.0
0
ENDTAB
0
TABLE
2
LAYER
70
1
0
LAYER
2
0
70
0
62
7
6
CONTINUOUS
0
ENDTAB
0
ENDSEC
0
SECTION
2
ENTITIES
0
LINE
8
0
6
CONTINUOUS
10
-9.1
20
-6.2
30
0
11
-9.1
21
6.2
31
0
0
LINE
8
0
6
CONTINUOUS
10
-1.4
20
-6.2
30
0
11
-1.4
21
6.2
31
0
0
LINE
8
0
6
CONTINUOUS
10
-0.79
20
-6.2
30
0
11
-0.79
21
6.2
31
0
0
LINE
8
0
6
CONTINUOUS
10
-3.0
20
6.2
30
0
11
-3.0
21
-6.2
31
0
0
LINE
8
0
6
CONTINUOUS
10
0.0
20
-6.2
30
0
11
0.0
21
6.2
31
0
0
LINE
8
0
6
CONTINUOUS
10
-9.1
20
0.0
30
0
11
3.84
21
0.0
31
0
0
LINE
8
0
6
CONTINUOUS
10
0.0
20
-6.2
30
0
11
0.0
21
-3.3
31
0
0
LINE
8
0
6
CONTINUOUS
10
0.0
20
-3.3
30
0
11
0.0
21
-1.53
31
0
0
LINE
8
0
6
CONTINUOUS
10
0.0
20
-1.53
30
0
11
0.0
21
1.47
31
0
0
LINE
8
0
6
CONTINUOUS
10
0.0
20
1.47
30
0
11
0.0
21
3.28
31
0
0
LINE
8
0
6
CONTINUOUS
10
0.0
20
3.28
30
0
11
0.0
21
6.2
31
0
0
LINE
8
0
6
CONTINUOUS
10
0.0
20
6.2
30
0
11
-0.79
21
6.2
31
0
0
LINE
8
0
6
CONTINUOUS
10
-0.79
20
6.2
30
0
11
-0.79
21
-6.2
31
0
0
LINE
8
0
6
CONTINUOUS
10
-0.79
20
-6.2
30
0
11
0.0
21
-6.2
31
0
0
LINE
8
0
6
CONTINUOUS
10
-3.0
20
-6.2
30
0
11
-3.0
21
6.2
31
0
0
LINE
8
0
6
CONTINUOUS
10
-0.79
20
-6.2
30
0
11
-0.79
21
6.2
31
0
0
LINE
8
0
6
CONTINUOUS
10
-3.0
20
-0.0
30
0
11
-0.79
21
-0.0
31
0
0
LINE
8
0
6
CONTINUOUS
10
-0.79
20
6.2
30
0
11
-1.8
21
6.2
31
0
0
LINE
8
0
6
CONTINUOUS
10
-1.8
20
6.2
30
0
11
-1.8
21
4.71
31
0
0
LINE
8
0
6
CONTINUOUS
10
-1.8
20
4.71
30
0
11
-0.82
21
2.31
31
0
0
ARC
8
0
6
CONTINUOUS
10
-1.0974701221080365
20
2.1236671567541014
30
0
40
0.3342298567374696
50
185.7812402417656
51
33.88301945867119
0
LINE
8
0
6
CONTINUOUS
10
-1.43
20
2.09
30
0
11
-1.82
21
3.25
31
0
0
LINE
8
0
6
CONTINUOUS
10
-1.82
20
3.25
30
0
11
-2.18
21
5.75
31
0
0
ARC
8
0
6
CONTINUOUS
10
-2.5818060459799996
20
5.668440810364996
30
0
40
0.41
50
11.474094395602844
51
185.3798436473585
0
LINE
8
0
6
CONTINUOUS
10
-2.99
20
5.63
30
0
11
-2.82
21
3.36
31
0
0
LINE
8
0
6
CONTINUOUS
10
-2.82
20
3.36
30
0
11
-2.06
21
1.11
31
0
0
LINE
8
0
6
CONTINUOUS
10
-2.06
20
1.11
30
0
11
-2.06
21
-0.38
31
0
0
LINE
8
0
6
CONTINUOUS
10
-2.06
20
-0.38
30
0
11
-3.0
21
-1.15
31
0
0
LINE
8
0
6
CONTINUOUS
10
-3.0
20
-1.15
30
0
11
-1.81
21
-2.26
31
0
0
LINE
8
0
6
CONTINUOUS
10
-1.81
20
-2.26
30
0
11
-3.0
21
-3.36
31
0
0
LINE
8
0
6
CONTINUOUS
10
-3.0
20
-3.36
30
0
11
-1.81
21
-4.48
31
0
0
LINE
8
0
6
CONTINUOUS
10
-1.81
20
-4.48
30
0
11
-3.0
21
-5.56
31
0
0
LINE
8
0
6
CONTINUOUS
10
-3.0
20
-5.56
30
0
11
-2.11
21
-6.2
31
0
0
LINE
8
0
6
CONTINUOUS
10
-2.11
20
-6.2
30
0
11
-0.79
21
-6.2
31
0
0
LINE
8
0
6
CONTINUOUS
10
-0.79
20
-6.2
30
0
11
-0.79
21
6.2
31
0
0
LINE
8
0
6
CONTINUOUS
10
0.0
20
-4.72
30
0
11
0.0
21
4.68
31
0
0
LINE
8
0
6
CONTINUOUS
10
-0.0
20
0.0
30
0
11
3.84
21
0.0
31
0
0
LINE
8
0
6
CONTINUOUS
10
3.8
20
2.59
30
0
11
1.7
21
4.68
31
0
0
LINE
8
0
6
CONTINUOUS
10
1.7
20
4.68
30
0
11
1.7
21
3.28
31
0
0
LINE
8
0
6
CONTINUOUS
10
1.7
20
3.28
30
0
11
0.0
21
3.28
31
0
0
LINE
8
0
6
CONTINUOUS
10
0.0
20
3.28
30
0
11
-0.0
21
0.74
31
0
0
LINE
8
0
6
CONTINUOUS
10
-0.0
20
0.74
30
0
11
1.03
21
2.01
31
0
0
ARC
8
0
6
CONTINUOUS
10
1.3686978962278005
20
1.4552173983524157
30
0
40
0.65
50
13.776025400499519
51
121.40429985651399
0
LINE
8
0
6
CONTINUOUS
10
2.0
20
1.61
30
0
11
2.0
21
-1.61
31
0
0
ARC
8
0
6
CONTINUOUS
10
1.5001000102020814
20
-1.6200000100020409
30
0
40
0.5
50
269.9885396749486
51
1.1459931447673355
0
LINE
8
0
6
CONTINUOUS
10
1.5
20
-2.12
30
0
11
0.63
21
-2.12
31
0
0
ARC
8
0
6
CONTINUOUS
10
0.5899984380675594
20
-1.5313576000295555
30
0
40
0.59
50
179.86816132101455
51
273.88759357355616
0
LINE
8
0
6
CONTINUOUS
10
0.0
20
-1.53
30
0
11
0.0
21
-3.32
31
0
0
LINE
8
0
6
CONTINUOUS
10
0.0
20
-3.32
30
0
11
1.7
21
-3.32
31
0
0
LINE
8
0
6
CONTINUOUS
10
1.7
20
-3.32
30
0
11
1.7
21
-4.72
31
0
0
LINE
8
0
6
CONTINUOUS
10
1.7
20
-4.72
30
0
11
3.84
21
-2.58
31
0
0
LINE
8
0
6
CONTINUOUS
10
3.84
20
-2.58
30
0
11
3.09
21
-1.29
31
0
0
LINE
8
0
6
CONTINUOUS
10
3.09
20
-1.29
30
0
11
3.09
21
1.26
31
0
0
LINE
8
0
6
CONTINUOUS
10
3.09
20
1.26
30
0
11
3.8
21
2.59
31
0
0
ENDSEC
0
EOF