0
SECTION
2
HEADER
0
ENDSEC
0
SECTION
2
TABLES
0
TABLE
2
LTYPE
70
2
0
LTYPE
2
CONTINUOUS
70
0
3
Solid line
72
65
73
0
40
0.0
0
ENDTAB
0
TABLE
2
LAYER
70
1
0
LAYER
2
0
70
0
62
7
6
CONTINUOUS
0
ENDTAB
0
ENDSEC
0
SECTION
2
ENTITIES
0
LINE
8
0
6
CONTINUOUS
10
20.0
20
-23.0
30
0
11
20.0
21
0.0
31
0
0
LINE
8
0
6
CONTINUOUS
10
0.0
20
-23.0
30
0
11
0.0
21
0.0
31
0
0
LINE
8
0
6
CONTINUOUS
10
-0.0
20
0.0
30
0
11
23.3
21
0.0
31
0
0
LINE
8
0
6
CONTINUOUS
10
20.0
20
-0.0
30
0
11
-0.0
21
0.0
31
0
0
LINE
8
0
6
CONTINUOUS
10
-0.0
20
0.0
30
0
11
-0.0
21
-23.0
31
0
0
LINE
8
0
6
CONTINUOUS
10
-0.0
20
-23.0
30
0
11
2.5
21
-23.0
31
0
0
LINE
8
0
6
CONTINUOUS
10
2.5
20
-23.0
30
0
11
2.5
21
-22.0
31
0
0
LINE
8
0
6
CONTINUOUS
10
2.5
20
-22.0
30
0
11
1.4
21
-22.0
31
0
0
LINE
8
0
6
CONTINUOUS
10
1.4
20
-22.0
30
0
11
1.4
21
-20.0
31
0
0
LINE
8
0
6
CONTINUOUS
10
1.4
20
-20.0
30
0
11
10.8
21
-20.0
31
0
0
LINE
8
0
6
CONTINUOUS
10
10.8
20
-20.0
30
0
11
10.8
21
-22.0
31
0
0
LINE
8
0
6
CONTINUOUS
10
10.8
20
-22.0
30
0
11
9.6
21
-22.0
31
0
0
LINE
8
0
6
CONTINUOUS
10
9.6
20
-22.0
30
0
11
9.6
21
-23.0
31
0
0
LINE
8
0
6
CONTINUOUS
10
9.6
20
-23.0
30
0
11
11.0
21
-23.0
31
0
0
ARC
8
0
6
CONTINUOUS
10
11.0
20
-22.0
30
0
40
1.0
50
270.0
51
0.0
0
LINE
8
0
6
CONTINUOUS
10
12.0
20
-22.0
30
0
11
12.0
21
-20.0
31
0
0
ARC
8
0
6
CONTINUOUS
10
10.8
20
-20.0
30
0
40
1.2
50
0.0
51
90.0
0
LINE
8
0
6
CONTINUOUS
10
10.8
20
-18.8
30
0
11
1.4
21
-18.8
31
0
0
LINE
8
0
6
CONTINUOUS
10
1.4
20
-18.8
30
0
11
1.4
21
-13.0
31
0
0
LINE
8
0
6
CONTINUOUS
10
1.4
20
-13.0
30
0
11
18.0
21
-13.0
31
0
0
LINE
8
0
6
CONTINUOUS
10
18.0
20
-13.0
30
0
11
18.6
21
-13.6
31
0
0
LINE
8
0
6
CONTINUOUS
10
18.6
20
-13.6
30
0
11
19.6
21
-13.6
31
0
0
LINE
8
0
6
CONTINUOUS
10
19.6
20
-13.6
30
0
11
19.6
21
-12.8
31
0
0
LINE
8
0
6
CONTINUOUS
10
19.6
20
-12.8
30
0
11
22.14
21
-12.8
31
0
0
LINE
8
0
6
CONTINUOUS
10
22.14
20
-12.8
30
0
11
21.51
21
-13.31
31
0
0
ARC
8
0
6
CONTINUOUS
10
22.520906364562997
20
-13.445898204866849
30
0
40
1.02
50
172.34351388545102
51
219.15883344145493
0
LINE
8
0
6
CONTINUOUS
10
21.73
20
-14.09
30
0
11
23.3
21
-13.18
31
0
0
LINE
8
0
6
CONTINUOUS
10
23.3
20
-13.18
30
0
11
23.3
21
-11.8
31
0
0
LINE
8
0
6
CONTINUOUS
10
23.3
20
-11.8
30
0
11
1.4
21
-11.8
31
0
0
LINE
8
0
6
CONTINUOUS
10
1.4
20
-11.8
30
0
11
1.4
21
-1.4
31
0
0
LINE
8
0
6
CONTINUOUS
10
1.4
20
-1.4
30
0
11
18.4
21
-1.4
31
0
0
LINE
8
0
6
CONTINUOUS
10
18.4
20
-1.4
30
0
11
18.4
21
-4.8
31
0
0
ARC
8
0
6
CONTINUOUS
10
19.599999999999998
20
-4.800000000000001
30
0
40
1.2
50
179.99999999999997
51
270.00000000000017
0
LINE
8
0
6
CONTINUOUS
10
19.6
20
-6.0
30
0
11
22.9
21
-6.0
31
0
0
ARC
8
0
6
CONTINUOUS
10
22.894381547433674
20
-5.600039460707984
30
0
40
0.4
50
270.80481051411334
51
44.4349193819674
0
LINE
8
0
6
CONTINUOUS
10
23.18
20
-5.32
30
0
11
22.61
21
-4.74
31
0
0
LINE
8
0
6
CONTINUOUS
10
22.61
20
-4.74
30
0
11
21.5
21
-5.0
31
0
0
LINE
8
0
6
CONTINUOUS
10
21.5
20
-5.0
30
0
11
20.0
21
-5.0
31
0
0
LINE
8
0
6
CONTINUOUS
10
20.0
20
-5.0
30
0
11
20.0
21
-0.0
31
0
0
ENDSEC
0
EOF