0
SECTION
2
HEADER
0
ENDSEC
0
SECTION
2
TABLES
0
TABLE
2
LTYPE
70
2
0
LTYPE
2
CONTINUOUS
70
0
3
Solid line
72
65
73
0
40
0.0
0
ENDTAB
0
TABLE
2
LAYER
70
1
0
LAYER
2
0
70
0
62
7
6
CONTINUOUS
0
ENDTAB
0
ENDSEC
0
SECTION
2
ENTITIES
0
LINE
8
0
6
CONTINUOUS
10
0.0
20
-10.0
30
0
11
-65.91
21
-10.0
31
0
0
LINE
8
0
6
CONTINUOUS
10
-65.0
20
-30.09
30
0
11
-65.0
21
0.0
31
0
0
LINE
8
0
6
CONTINUOUS
10
0.0
20
-26.5
30
0
11
-65.91
21
-26.5
31
0
0
LINE
8
0
6
CONTINUOUS
10
-57.5
20
-30.09
30
0
11
-57.5
21
0.0
31
0
0
LINE
8
0
6
CONTINUOUS
10
0.0
20
-30.09
30
0
11
0.0
21
0.0
31
0
0
LINE
8
0
6
CONTINUOUS
10
-65.91
20
0.0
30
0
11
0.0
21
0.0
31
0
0
LINE
8
0
6
CONTINUOUS
10
-1.5
20
-16.0
30
0
11
-5.0
21
-16.0
31
0
0
LINE
8
0
6
CONTINUOUS
10
-5.0
20
-16.0
30
0
11
-5.0
21
-2.0
31
0
0
LINE
8
0
6
CONTINUOUS
10
-5.0
20
-2.0
30
0
11
-1.5
21
-2.0
31
0
0
LINE
8
0
6
CONTINUOUS
10
-1.5
20
-2.0
30
0
11
-1.5
21
-4.0
31
0
0
LINE
8
0
6
CONTINUOUS
10
-1.5
20
-4.0
30
0
11
0.0
21
-3.6
31
0
0
LINE
8
0
6
CONTINUOUS
10
0.0
20
-3.6
30
0
11
0.0
21
-0.0
31
0
0
LINE
8
0
6
CONTINUOUS
10
0.0
20
-0.0
30
0
11
-60.0
21
-0.0
31
0
0
ARC
8
0
6
CONTINUOUS
10
-60.0
20
-5.0
30
0
40
5.0
50
90.0
51
180.0
0
LINE
8
0
6
CONTINUOUS
10
-65.0
20
-5.0
30
0
11
-65.0
21
-8.5
31
0
0
LINE
8
0
6
CONTINUOUS
10
-65.0
20
-8.5
30
0
11
-62.8
21
-8.5
31
0
0
LINE
8
0
6
CONTINUOUS
10
-62.8
20
-8.5
30
0
11
-62.8
21
-7.5
31
0
0
LINE
8
0
6
CONTINUOUS
10
-62.8
20
-7.5
30
0
11
-64.0
21
-7.5
31
0
0
LINE
8
0
6
CONTINUOUS
10
-64.0
20
-7.5
30
0
11
-64.0
21
-6.2
31
0
0
LINE
8
0
6
CONTINUOUS
10
-64.0
20
-6.2
30
0
11
-58.5
21
-6.2
31
0
0
LINE
8
0
6
CONTINUOUS
10
-58.5
20
-6.2
30
0
11
-58.5
21
-7.5
31
0
0
LINE
8
0
6
CONTINUOUS
10
-58.5
20
-7.5
30
0
11
-59.7
21
-7.5
31
0
0
LINE
8
0
6
CONTINUOUS
10
-59.7
20
-7.5
30
0
11
-59.7
21
-8.5
31
0
0
LINE
8
0
6
CONTINUOUS
10
-59.7
20
-8.5
30
0
11
-57.5
21
-8.5
31
0
0
LINE
8
0
6
CONTINUOUS
10
-57.5
20
-8.5
30
0
11
-57.5
21
-6.2
31
0
0
ARC
8
0
6
CONTINUOUS
10
-59.0
20
-6.2
30
0
40
1.5
50
0.0
51
90.0
0
LINE
8
0
6
CONTINUOUS
10
-59.0
20
-4.7
30
0
11
-62.98
21
-4.7
31
0
0
ARC
8
0
6
CONTINUOUS
10
-59.99503727613766
20
-4.999995895225836
30
0
40
3.0
50
90.09478108729535
51
174.26090831308122
0
LINE
8
0
6
CONTINUOUS
10
-60.0
20
-2.0
30
0
11
-50.2
21
-2.0
31
0
0
LINE
8
0
6
CONTINUOUS
10
-50.2
20
-2.0
30
0
11
-50.2
21
-4.2
31
0
0
LINE
8
0
6
CONTINUOUS
10
-50.2
20
-4.2
30
0
11
-52.2
21
-4.2
31
0
0
LINE
8
0
6
CONTINUOUS
10
-52.2
20
-4.2
30
0
11
-52.2
21
-5.2
31
0
0
LINE
8
0
6
CONTINUOUS
10
-52.2
20
-5.2
30
0
11
-50.2
21
-5.2
31
0
0
ARC
8
0
6
CONTINUOUS
10
-50.2
20
-3.7
30
0
40
1.5
50
270.0
51
0.0
0
LINE
8
0
6
CONTINUOUS
10
-48.7
20
-3.7
30
0
11
-48.7
21
-2.0
31
0
0
LINE
8
0
6
CONTINUOUS
10
-48.7
20
-2.0
30
0
11
-23.2
21
-2.0
31
0
0
LINE
8
0
6
CONTINUOUS
10
-23.2
20
-2.0
30
0
11
-23.2
21
-17.5
31
0
0
LINE
8
0
6
CONTINUOUS
10
-23.2
20
-17.5
30
0
11
-48.0
21
-17.5
31
0
0
ARC
8
0
6
CONTINUOUS
10
-48.0
20
-18.5
30
0
40
1.0
50
90.0
51
180.0
0
LINE
8
0
6
CONTINUOUS
10
-49.0
20
-18.5
30
0
11
-49.0
21
-19.3
31
0
0
LINE
8
0
6
CONTINUOUS
10
-49.0
20
-19.3
30
0
11
-47.8
21
-19.3
31
0
0
LINE
8
0
6
CONTINUOUS
10
-47.8
20
-19.3
30
0
11
-38.0
21
-19.3
31
0
0
LINE
8
0
6
CONTINUOUS
10
-38.0
20
-19.3
30
0
11
-38.0
21
-20.8
31
0
0
LINE
8
0
6
CONTINUOUS
10
-38.0
20
-20.8
30
0
11
-40.0
21
-21.05
31
0
0
LINE
8
0
6
CONTINUOUS
10
-40.0
20
-21.05
30
0
11
-40.0
21
-22.95
31
0
0
LINE
8
0
6
CONTINUOUS
10
-40.0
20
-22.95
30
0
11
-38.0
21
-23.2
31
0
0
LINE
8
0
6
CONTINUOUS
10
-38.0
20
-23.2
30
0
11
-38.0
21
-24.7
31
0
0
LINE
8
0
6
CONTINUOUS
10
-38.0
20
-24.7
30
0
11
-45.1
21
-24.7
31
0
0
ARC
8
0
6
CONTINUOUS
10
-44.965463759529264
20
-25.6
30
0
40
0.9100000000000004
50
98.50188925000349
51
261.4981107499965
0
LINE
8
0
6
CONTINUOUS
10
-45.1
20
-26.5
30
0
11
-25.0
21
-26.5
31
0
0
LINE
8
0
6
CONTINUOUS
10
-25.0
20
-26.5
30
0
11
-25.0
21
-29.59
31
0
0
ARC
8
0
6
CONTINUOUS
10
-24.50000785235169
20
-29.587197806211588
30
0
40
0.5
50
180.32110943588546
51
285.070994008148
0
LINE
8
0
6
CONTINUOUS
10
-24.37
20
-30.07
30
0
11
-21.96
21
-29.43
31
0
0
LINE
8
0
6
CONTINUOUS
10
-21.96
20
-29.43
30
0
11
-23.65
21
-26.5
31
0
0
LINE
8
0
6
CONTINUOUS
10
-23.65
20
-26.5
30
0
11
-18.35
21
-26.5
31
0
0
LINE
8
0
6
CONTINUOUS
10
-18.35
20
-26.5
30
0
11
-20.09
21
-29.5
31
0
0
LINE
8
0
6
CONTINUOUS
10
-20.09
20
-29.5
30
0
11
-18.35
21
-29.5
31
0
0
ARC
8
0
6
CONTINUOUS
10
-18.356035920735188
20
-28.500018216335476
30
0
40
1.0
50
270.34583488355236
51
330.0012051757363
0
LINE
8
0
6
CONTINUOUS
10
-17.49
20
-29.0
30
0
11
-16.04
21
-26.5
31
0
0
LINE
8
0
6
CONTINUOUS
10
-16.04
20
-26.5
30
0
11
-9.76
21
-26.5
31
0
0
LINE
8
0
6
CONTINUOUS
10
-9.76
20
-26.5
30
0
11
-8.31
21
-29.0
31
0
0
ARC
8
0
6
CONTINUOUS
10
-7.443964079264814
20
-28.500018216335476
30
0
40
1.0
50
209.99879482426377
51
269.65416511644764
0
LINE
8
0
6
CONTINUOUS
10
-7.45
20
-29.5
30
0
11
-5.71
21
-29.5
31
0
0
LINE
8
0
6
CONTINUOUS
10
-5.71
20
-29.5
30
0
11
-7.45
21
-26.5
31
0
0
LINE
8
0
6
CONTINUOUS
10
-7.45
20
-26.5
30
0
11
-2.15
21
-26.5
31
0
0
LINE
8
0
6
CONTINUOUS
10
-2.15
20
-26.5
30
0
11
-3.84
21
-29.43
31
0
0
LINE
8
0
6
CONTINUOUS
10
-3.84
20
-29.43
30
0
11
-1.43
21
-30.07
31
0
0
ARC
8
0
6
CONTINUOUS
10
-1.2999921476483127
20
-29.587197806211588
30
0
40
0.5
50
254.92900599185222
51
359.6788905641145
0
LINE
8
0
6
CONTINUOUS
10
-0.8
20
-29.59
30
0
11
-0.8
21
-26.5
31
0
0
ARC
8
0
6
CONTINUOUS
10
-0.8
20
-25.700000000000003
30
0
40
0.8
50
270.0
51
2.5444437451708134e-13
0
LINE
8
0
6
CONTINUOUS
10
0.0
20
-25.7
30
0
11
0.0
21
-23.1
31
0
0
LINE
8
0
6
CONTINUOUS
10
0.0
20
-23.1
30
0
11
-1.3
21
-21.8
31
0
0
LINE
8
0
6
CONTINUOUS
10
-1.3
20
-21.8
30
0
11
-10.7
21
-21.8
31
0
0
LINE
8
0
6
CONTINUOUS
10
-10.7
20
-21.8
30
0
11
-11.58
21
-20.92
31
0
0
LINE
8
0
6
CONTINUOUS
10
-11.58
20
-20.92
30
0
11
-12.47
21
-21.8
31
0
0
LINE
8
0
6
CONTINUOUS
10
-12.47
20
-21.8
30
0
11
-13.7
21
-21.8
31
0
0
LINE
8
0
6
CONTINUOUS
10
-13.7
20
-21.8
30
0
11
-15.5
21
-20.0
31
0
0
LINE
8
0
6
CONTINUOUS
10
-15.5
20
-20.0
30
0
11
-13.7
21
-18.2
31
0
0
LINE
8
0
6
CONTINUOUS
10
-13.7
20
-18.2
30
0
11
-12.47
21
-18.2
31
0
0
LINE
8
0
6
CONTINUOUS
10
-12.47
20
-18.2
30
0
11
-11.58
21
-19.08
31
0
0
LINE
8
0
6
CONTINUOUS
10
-11.58
20
-19.08
30
0
11
-10.7
21
-18.2
31
0
0
LINE
8
0
6
CONTINUOUS
10
-10.7
20
-18.2
30
0
11
-1.3
21
-18.2
31
0
0
LINE
8
0
6
CONTINUOUS
10
-1.3
20
-18.2
30
0
11
0.0
21
-16.9
31
0
0
LINE
8
0
6
CONTINUOUS
10
0.0
20
-16.9
30
0
11
0.0
21
-14.4
31
0
0
LINE
8
0
6
CONTINUOUS
10
0.0
20
-14.4
30
0
11
-1.5
21
-14.0
31
0
0
LINE
8
0
6
CONTINUOUS
10
-1.5
20
-14.0
30
0
11
-1.5
21
-16.0
31
0
0
LINE
8
0
6
CONTINUOUS
10
-6.8
20
-16.2
30
0
11
-21.7
21
-16.2
31
0
0
LINE
8
0
6
CONTINUOUS
10
-21.7
20
-16.2
30
0
11
-21.7
21
-2.0
31
0
0
LINE
8
0
6
CONTINUOUS
10
-21.7
20
-2.0
30
0
11
-6.8
21
-2.0
31
0
0
LINE
8
0
6
CONTINUOUS
10
-6.8
20
-2.0
30
0
11
-6.8
21
-16.2
31
0
0
LINE
8
0
6
CONTINUOUS
10
-21.7
20
-17.7
30
0
11
-16.53
21
-17.7
31
0
0
LINE
8
0
6
CONTINUOUS
10
-16.53
20
-17.7
30
0
11
-16.53
21
-18.91
31
0
0
ARC
8
0
6
CONTINUOUS
10
-15.499085562466261
20
-19.99959415494233
30
0
40
1.5
50
133.41488859663102
51
224.986263176734
0
LINE
8
0
6
CONTINUOUS
10
-16.56
20
-21.06
30
0
11
-14.32
21
-23.3
31
0
0
LINE
8
0
6
CONTINUOUS
10
-14.32
20
-23.3
30
0
11
-10.21
21
-23.3
31
0
0
LINE
8
0
6
CONTINUOUS
10
-10.21
20
-23.3
30
0
11
-10.21
21
-24.7
31
0
0
LINE
8
0
6
CONTINUOUS
10
-10.21
20
-24.7
30
0
11
-36.2
21
-24.7
31
0
0
LINE
8
0
6
CONTINUOUS
10
-36.2
20
-24.7
30
0
11
-36.2
21
-19.3
31
0
0
LINE
8
0
6
CONTINUOUS
10
-36.2
20
-19.3
30
0
11
-21.7
21
-19.3
31
0
0
LINE
8
0
6
CONTINUOUS
10
-21.7
20
-19.3
30
0
11
-21.7
21
-17.7
31
0
0
LINE
8
0
6
CONTINUOUS
10
-63.65
20
-6.2
30
0
11
-63.65
21
-7.2
31
0
0
LINE
8
0
6
CONTINUOUS
10
-63.65
20
-7.2
30
0
11
-58.85
21
-7.2
31
0
0
LINE
8
0
6
CONTINUOUS
10
-58.85
20
-7.2
30
0
11
-58.85
21
-6.2
31
0
0
LINE
8
0
6
CONTINUOUS
10
-58.85
20
-6.2
30
0
11
-63.65
21
-6.2
31
0
0
LINE
8
0
6
CONTINUOUS
10
-61.25
20
-7.2
30
0
11
-61.25
21
-10.0
31
0
0
LINE
8
0
6
CONTINUOUS
10
-61.25
20
-7.2
30
0
11
-60.5
21
-10.0
31
0
0
LINE
8
0
6
CONTINUOUS
10
-61.25
20
-7.2
30
0
11
-62.0
21
-10.0
31
0
0
LINE
8
0
6
CONTINUOUS
10
-60.73
20
-7.2
30
0
11
-59.98
21
-10.0
31
0
0
LINE
8
0
6
CONTINUOUS
10
-61.25
20
-7.2
30
0
11
-60.5
21
-10.0
31
0
0
LINE
8
0
6
CONTINUOUS
10
-60.21
20
-7.2
30
0
11
-59.46
21
-10.0
31
0
0
LINE
8
0
6
CONTINUOUS
10
-61.77
20
-7.2
30
0
11
-62.52
21
-10.0
31
0
0
LINE
8
0
6
CONTINUOUS
10
-62.29
20
-7.2
30
0
11
-63.04
21
-10.0
31
0
0
ENDSEC
0
EOF