0
SECTION
2
HEADER
0
ENDSEC
0
SECTION
2
TABLES
0
TABLE
2
LTYPE
70
2
0
LTYPE
2
CONTINUOUS
70
0
3
Solid line
72
65
73
0
40
0.0
0
ENDTAB
0
TABLE
2
LAYER
70
1
0
LAYER
2
0
70
0
62
7
6
CONTINUOUS
0
ENDTAB
0
ENDSEC
0
SECTION
2
ENTITIES
0
LINE
8
0
6
CONTINUOUS
10
-10.0
20
-0.0
30
0
11
-10.0
21
17.5
31
0
0
LINE
8
0
6
CONTINUOUS
10
4.25
20
17.5
30
0
11
-10.0
21
17.5
31
0
0
LINE
8
0
6
CONTINUOUS
10
0.0
20
-0.0
30
0
11
0.0
21
17.5
31
0
0
LINE
8
0
6
CONTINUOUS
10
-10.0
20
0.0
30
0
11
4.25
21
0.0
31
0
0
LINE
8
0
6
CONTINUOUS
10
-10.0
20
0.0
30
0
11
0.0
21
0.0
31
0
0
LINE
8
0
6
CONTINUOUS
10
0.0
20
0.0
30
0
11
0.0
21
17.5
31
0
0
LINE
8
0
6
CONTINUOUS
10
0.0
20
17.5
30
0
11
-10.0
21
17.5
31
0
0
LINE
8
0
6
CONTINUOUS
10
-10.0
20
17.5
30
0
11
-10.0
21
0.0
31
0
0
LINE
8
0
6
CONTINUOUS
10
-10.0
20
17.0
30
0
11
-10.0
21
0.5
31
0
0
ARC
8
0
6
CONTINUOUS
10
-9.5
20
0.5
30
0
40
0.5
50
180.0
51
270.0
0
LINE
8
0
6
CONTINUOUS
10
-9.5
20
0.0
30
0
11
-6.55
21
0.0
31
0
0
LINE
8
0
6
CONTINUOUS
10
-6.55
20
0.0
30
0
11
-6.55
21
1.8
31
0
0
LINE
8
0
6
CONTINUOUS
10
-6.55
20
1.8
30
0
11
-2.95
21
-0.0
31
0
0
LINE
8
0
6
CONTINUOUS
10
-2.95
20
0.0
30
0
11
-0.5
21
0.0
31
0
0
ARC
8
0
6
CONTINUOUS
10
-0.5
20
0.5
30
0
40
0.5
50
270.0
51
0.0
0
LINE
8
0
6
CONTINUOUS
10
0.0
20
0.5
30
0
11
0.0
21
5.0
31
0
0
LINE
8
0
6
CONTINUOUS
10
0.0
20
5.0
30
0
11
2.15
21
5.0
31
0
0
LINE
8
0
6
CONTINUOUS
10
2.15
20
5.0
30
0
11
2.43
21
4.25
31
0
0
LINE
8
0
6
CONTINUOUS
10
2.43
20
4.25
30
0
11
4.25
21
6.07
31
0
0
LINE
8
0
6
CONTINUOUS
10
4.25
20
6.07
30
0
11
4.25
21
11.43
31
0
0
LINE
8
0
6
CONTINUOUS
10
4.25
20
11.43
30
0
11
2.43
21
13.25
31
0
0
LINE
8
0
6
CONTINUOUS
10
2.43
20
13.25
30
0
11
2.15
21
12.5
31
0
0
LINE
8
0
6
CONTINUOUS
10
2.15
20
12.5
30
0
11
0.0
21
12.5
31
0
0
LINE
8
0
6
CONTINUOUS
10
0.0
20
12.5
30
0
11
0.0
21
17.0
31
0
0
ARC
8
0
6
CONTINUOUS
10
-0.5
20
17.0
30
0
40
0.5
50
0.0
51
90.0
0
LINE
8
0
6
CONTINUOUS
10
-0.5
20
17.5
30
0
11
-2.95
21
17.5
31
0
0
LINE
8
0
6
CONTINUOUS
10
-2.95
20
17.5
30
0
11
-6.55
21
15.7
31
0
0
LINE
8
0
6
CONTINUOUS
10
-6.55
20
15.7
30
0
11
-6.55
21
17.5
31
0
0
LINE
8
0
6
CONTINUOUS
10
-6.55
20
17.5
30
0
11
-9.5
21
17.5
31
0
0
ARC
8
0
6
CONTINUOUS
10
-9.5
20
17.0
30
0
40
0.5
50
90.0
51
180.0
0
LINE
8
0
6
CONTINUOUS
10
-7.05
20
0.5
30
0
11
-9.35
21
0.5
31
0
0
LINE
8
0
6
CONTINUOUS
10
-9.35
20
0.5
30
0
11
-9.35
21
17.0
31
0
0
LINE
8
0
6
CONTINUOUS
10
-9.35
20
17.0
30
0
11
-7.05
21
17.0
31
0
0
LINE
8
0
6
CONTINUOUS
10
-7.05
20
17.0
30
0
11
-7.05
21
15.45
31
0
0
ARC
8
0
6
CONTINUOUS
10
-6.55008027983916
20
15.458959542081374
30
0
40
0.5
50
181.02674284702053
51
296.1141259233025
0
LINE
8
0
6
CONTINUOUS
10
-6.33
20
15.01
30
0
11
-3.34
21
16.5
31
0
0
LINE
8
0
6
CONTINUOUS
10
-3.34
20
16.5
30
0
11
-0.5
21
16.5
31
0
0
LINE
8
0
6
CONTINUOUS
10
-0.5
20
16.5
30
0
11
-0.5
21
9.75
31
0
0
LINE
8
0
6
CONTINUOUS
10
-0.5
20
9.75
30
0
11
0.0
21
8.75
31
0
0
LINE
8
0
6
CONTINUOUS
10
0.0
20
8.75
30
0
11
-0.5
21
7.75
31
0
0
LINE
8
0
6
CONTINUOUS
10
-0.5
20
7.75
30
0
11
-0.5
21
1.0
31
0
0
LINE
8
0
6
CONTINUOUS
10
-0.5
20
1.0
30
0
11
-3.34
21
1.0
31
0
0
LINE
8
0
6
CONTINUOUS
10
-3.34
20
1.0
30
0
11
-6.33
21
2.49
31
0
0
ARC
8
0
6
CONTINUOUS
10
-6.55008027983916
20
2.0410404579186263
30
0
40
0.5
50
63.88587407669751
51
178.97325715297958
0
LINE
8
0
6
CONTINUOUS
10
-7.05
20
2.05
30
0
11
-7.05
21
0.5
31
0
0
LINE
8
0
6
CONTINUOUS
10
1.05
20
6.25
30
0
11
1.05
21
11.25
31
0
0
LINE
8
0
6
CONTINUOUS
10
1.05
20
11.25
30
0
11
2.85
21
11.41
31
0
0
LINE
8
0
6
CONTINUOUS
10
2.85
20
11.41
30
0
11
3.55
21
10.71
31
0
0
LINE
8
0
6
CONTINUOUS
10
3.55
20
10.71
30
0
11
3.55
21
6.79
31
0
0
LINE
8
0
6
CONTINUOUS
10
3.55
20
6.79
30
0
11
2.85
21
6.09
31
0
0
LINE
8
0
6
CONTINUOUS
10
2.85
20
6.09
30
0
11
1.05
21
6.25
31
0
0
ENDSEC
0
EOF