0
SECTION
2
HEADER
0
ENDSEC
0
SECTION
2
TABLES
0
TABLE
2
LTYPE
70
2
0
LTYPE
2
CONTINUOUS
70
0
3
Solid line
72
65
73
0
40
0.0
0
ENDTAB
0
TABLE
2
LAYER
70
1
0
LAYER
2
0
70
0
62
7
6
CONTINUOUS
0
ENDTAB
0
ENDSEC
0
SECTION
2
ENTITIES
0
LINE
8
0
6
CONTINUOUS
10
-18.82
20
16.0
30
0
11
-18.82
21
-104.0
31
0
0
LINE
8
0
6
CONTINUOUS
10
18.82
20
-104.0
30
0
11
18.82
21
16.0
31
0
0
LINE
8
0
6
CONTINUOUS
10
25.02
20
6.0
30
0
11
-25.02
21
6.0
31
0
0
LINE
8
0
6
CONTINUOUS
10
-25.0
20
-104.0
30
0
11
-25.0
21
16.0
31
0
0
LINE
8
0
6
CONTINUOUS
10
25.0
20
-104.0
30
0
11
25.0
21
16.0
31
0
0
LINE
8
0
6
CONTINUOUS
10
25.02
20
-99.5
30
0
11
-25.02
21
-99.5
31
0
0
LINE
8
0
6
CONTINUOUS
10
25.02
20
-104.0
30
0
11
-25.02
21
-104.0
31
0
0
LINE
8
0
6
CONTINUOUS
10
0.0
20
-104.0
30
0
11
0.0
21
16.0
31
0
0
LINE
8
0
6
CONTINUOUS
10
-25.02
20
0.0
30
0
11
25.02
21
0.0
31
0
0
ARC
8
0
6
CONTINUOUS
10
23.5
20
-102.5
30
0
40
1.5
50
270.0
51
0.0
0
LINE
8
0
6
CONTINUOUS
10
25.0
20
-102.5
30
0
11
25.0
21
2.41
31
0
0
LINE
8
0
6
CONTINUOUS
10
25.0
20
2.41
30
0
11
-25.0
21
2.41
31
0
0
LINE
8
0
6
CONTINUOUS
10
-25.0
20
2.3
30
0
11
-25.0
21
-102.5
31
0
0
ARC
8
0
6
CONTINUOUS
10
-23.5
20
-102.5
30
0
40
1.5
50
180.0
51
270.0
0
LINE
8
0
6
CONTINUOUS
10
-23.5
20
-104.0
30
0
11
23.5
21
-104.0
31
0
0
LINE
8
0
6
CONTINUOUS
10
-22.9
20
-99.5
30
0
11
-22.9
21
2.3
31
0
0
LINE
8
0
6
CONTINUOUS
10
-22.9
20
2.3
30
0
11
-25.0
21
2.3
31
0
0
LINE
8
0
6
CONTINUOUS
10
-25.0
20
2.3
30
0
11
-25.0
21
-102.5
31
0
0
ARC
8
0
6
CONTINUOUS
10
-23.5
20
-102.5
30
0
40
1.5
50
180.0
51
270.0
0
LINE
8
0
6
CONTINUOUS
10
-23.5
20
-104.0
30
0
11
23.5
21
-104.0
31
0
0
ARC
8
0
6
CONTINUOUS
10
23.5
20
-102.5
30
0
40
1.5
50
270.0
51
0.0
0
LINE
8
0
6
CONTINUOUS
10
25.0
20
-102.5
30
0
11
25.0
21
2.3
31
0
0
LINE
8
0
6
CONTINUOUS
10
25.0
20
2.3
30
0
11
22.9
21
2.3
31
0
0
LINE
8
0
6
CONTINUOUS
10
22.9
20
2.3
30
0
11
22.9
21
-99.5
31
0
0
LINE
8
0
6
CONTINUOUS
10
22.9
20
-99.5
30
0
11
-22.9
21
-99.5
31
0
0
LINE
8
0
6
CONTINUOUS
10
-22.9
20
0.0
30
0
11
-22.9
21
-99.5
31
0
0
LINE
8
0
6
CONTINUOUS
10
-22.9
20
-99.5
30
0
11
22.9
21
-99.5
31
0
0
ARC
8
0
6
CONTINUOUS
10
-23.5
20
-102.5
30
0
40
1.5
50
180.0
51
270.0
0
LINE
8
0
6
CONTINUOUS
10
-23.5
20
-104.0
30
0
11
23.5
21
-104.0
31
0
0
ARC
8
0
6
CONTINUOUS
10
23.5
20
-102.5
30
0
40
1.5
50
270.0
51
0.0
0
LINE
8
0
6
CONTINUOUS
10
25.0
20
-102.5
30
0
11
25.0
21
-6.51
31
0
0
LINE
8
0
6
CONTINUOUS
10
25.0
20
6.0
30
0
11
-25.0
21
6.0
31
0
0
LINE
8
0
6
CONTINUOUS
10
-18.8
20
16.0
30
0
11
-18.8
21
-0.0
31
0
0
LINE
8
0
6
CONTINUOUS
10
18.8
20
-0.0
30
0
11
18.8
21
16.0
31
0
0
LINE
8
0
6
CONTINUOUS
10
-0.0
20
-0.0
30
0
11
-0.0
21
16.0
31
0
0
LINE
8
0
6
CONTINUOUS
10
-25.0
20
0.0
30
0
11
25.0
21
0.0
31
0
0
ARC
8
0
6
CONTINUOUS
10
23.5
20
1.5
30
0
40
1.5
50
270.0
51
0.0
0
LINE
8
0
6
CONTINUOUS
10
25.0
20
1.5
30
0
11
25.0
21
6.0
31
0
0
LINE
8
0
6
CONTINUOUS
10
25.0
20
6.0
30
0
11
23.1
21
6.0
31
0
0
LINE
8
0
6
CONTINUOUS
10
23.1
20
6.0
30
0
11
22.3
21
5.2
31
0
0
ARC
8
0
6
CONTINUOUS
10
22.54491120975477
20
4.949963004064487
30
0
40
0.35
50
134.40665424630222
51
270.8330756497786
0
LINE
8
0
6
CONTINUOUS
10
22.55
20
4.6
30
0
11
23.5
21
4.6
31
0
0
LINE
8
0
6
CONTINUOUS
10
23.5
20
4.6
30
0
11
23.5
21
2.3
31
0
0
LINE
8
0
6
CONTINUOUS
10
23.5
20
2.3
30
0
11
14.1
21
2.3
31
0
0
LINE
8
0
6
CONTINUOUS
10
14.1
20
2.3
30
0
11
14.1
21
4.6
31
0
0
LINE
8
0
6
CONTINUOUS
10
14.1
20
4.6
30
0
11
15.05
21
4.6
31
0
0
ARC
8
0
6
CONTINUOUS
10
15.055088790245232
20
4.949963004064487
30
0
40
0.35
50
269.1669243502214
51
45.5933457536978
0
LINE
8
0
6
CONTINUOUS
10
15.3
20
5.2
30
0
11
14.5
21
6.0
31
0
0
LINE
8
0
6
CONTINUOUS
10
14.5
20
6.0
30
0
11
10.9
21
6.0
31
0
0
LINE
8
0
6
CONTINUOUS
10
10.9
20
6.0
30
0
11
10.9
21
4.8
31
0
0
LINE
8
0
6
CONTINUOUS
10
10.9
20
4.8
30
0
11
12.1
21
4.8
31
0
0
LINE
8
0
6
CONTINUOUS
10
12.1
20
4.8
30
0
11
12.1
21
2.7
31
0
0
LINE
8
0
6
CONTINUOUS
10
12.1
20
2.7
30
0
11
6.5
21
2.7
31
0
0
LINE
8
0
6
CONTINUOUS
10
6.5
20
2.7
30
0
11
5.33
21
3.26
31
0
0
LINE
8
0
6
CONTINUOUS
10
5.33
20
3.26
30
0
11
5.0
21
4.2
31
0
0
LINE
8
0
6
CONTINUOUS
10
5.0
20
4.2
30
0
11
5.0
21
16.0
31
0
0
LINE
8
0
6
CONTINUOUS
10
5.0
20
16.0
30
0
11
3.5
21
16.0
31
0
0
LINE
8
0
6
CONTINUOUS
10
3.5
20
16.0
30
0
11
2.0
21
14.7
31
0
0
LINE
8
0
6
CONTINUOUS
10
2.0
20
14.7
30
0
11
2.0
21
4.45
31
0
0
LINE
8
0
6
CONTINUOUS
10
2.0
20
4.45
30
0
11
0.87
21
2.5
31
0
0
LINE
8
0
6
CONTINUOUS
10
0.87
20
2.5
30
0
11
-0.0
21
1.99
31
0
0
LINE
8
0
6
CONTINUOUS
10
-0.0
20
1.99
30
0
11
-0.87
21
2.5
31
0
0
LINE
8
0
6
CONTINUOUS
10
-0.87
20
2.5
30
0
11
-2.0
21
4.45
31
0
0
LINE
8
0
6
CONTINUOUS
10
-2.0
20
4.45
30
0
11
-2.0
21
14.7
31
0
0
LINE
8
0
6
CONTINUOUS
10
-2.0
20
14.7
30
0
11
-3.5
21
16.0
31
0
0
LINE
8
0
6
CONTINUOUS
10
-3.5
20
16.0
30
0
11
-5.0
21
16.0
31
0
0
LINE
8
0
6
CONTINUOUS
10
-5.0
20
16.0
30
0
11
-5.0
21
4.2
31
0
0
LINE
8
0
6
CONTINUOUS
10
-5.0
20
4.2
30
0
11
-5.33
21
3.26
31
0
0
LINE
8
0
6
CONTINUOUS
10
-5.33
20
3.26
30
0
11
-6.5
21
2.7
31
0
0
LINE
8
0
6
CONTINUOUS
10
-6.5
20
2.7
30
0
11
-12.1
21
2.7
31
0
0
LINE
8
0
6
CONTINUOUS
10
-12.1
20
2.7
30
0
11
-12.1
21
4.8
31
0
0
LINE
8
0
6
CONTINUOUS
10
-12.1
20
4.8
30
0
11
-10.9
21
4.8
31
0
0
LINE
8
0
6
CONTINUOUS
10
-10.9
20
4.8
30
0
11
-10.9
21
6.0
31
0
0
LINE
8
0
6
CONTINUOUS
10
-10.9
20
6.0
30
0
11
-14.5
21
6.0
31
0
0
LINE
8
0
6
CONTINUOUS
10
-14.5
20
6.0
30
0
11
-15.22
21
5.28
31
0
0
ARC
8
0
6
CONTINUOUS
10
-14.93436622346184
20
4.999976169405979
30
0
40
0.4
50
135.56821597407168
51
270.62542786225
0
LINE
8
0
6
CONTINUOUS
10
-14.93
20
4.6
30
0
11
-14.1
21
4.6
31
0
0
LINE
8
0
6
CONTINUOUS
10
-14.1
20
4.6
30
0
11
-14.1
21
2.3
31
0
0
LINE
8
0
6
CONTINUOUS
10
-14.1
20
2.3
30
0
11
-23.5
21
2.3
31
0
0
LINE
8
0
6
CONTINUOUS
10
-23.5
20
2.3
30
0
11
-23.5
21
4.6
31
0
0
LINE
8
0
6
CONTINUOUS
10
-23.5
20
4.6
30
0
11
-22.67
21
4.6
31
0
0
ARC
8
0
6
CONTINUOUS
10
-22.665633776538158
20
4.999976169405979
30
0
40
0.4
50
269.3745721377495
51
44.4317840259285
0
LINE
8
0
6
CONTINUOUS
10
-22.38
20
5.28
30
0
11
-23.1
21
6.0
31
0
0
LINE
8
0
6
CONTINUOUS
10
-23.1
20
6.0
30
0
11
-25.0
21
6.0
31
0
0
LINE
8
0
6
CONTINUOUS
10
-25.0
20
6.0
30
0
11
-25.0
21
1.5
31
0
0
ARC
8
0
6
CONTINUOUS
10
-23.5
20
1.5
30
0
40
1.5
50
180.0
51
270.0
0
LINE
8
0
6
CONTINUOUS
10
-23.5
20
0.0
30
0
11
23.5
21
-0.0
31
0
0
ARC
8
0
6
CONTINUOUS
10
-23.5
20
1.5
30
0
40
1.5
50
180.0
51
270.0
0
LINE
8
0
6
CONTINUOUS
10
-25.0
20
1.5
30
0
11
-25.0
21
6.0
31
0
0
LINE
8
0
6
CONTINUOUS
10
-25.0
20
6.0
30
0
11
-23.1
21
6.0
31
0
0
LINE
8
0
6
CONTINUOUS
10
-23.1
20
6.0
30
0
11
-22.38
21
5.28
31
0
0
LINE
8
0
6
CONTINUOUS
10
-22.67
20
4.6
30
0
11
-23.5
21
4.6
31
0
0
LINE
8
0
6
CONTINUOUS
10
-23.5
20
4.6
30
0
11
-23.5
21
2.3
31
0
0
LINE
8
0
6
CONTINUOUS
10
-23.5
20
2.3
30
0
11
-14.1
21
2.3
31
0
0
LINE
8
0
6
CONTINUOUS
10
-14.1
20
2.3
30
0
11
-14.1
21
4.6
31
0
0
LINE
8
0
6
CONTINUOUS
10
-14.1
20
4.6
30
0
11
-14.93
21
4.6
31
0
0
LINE
8
0
6
CONTINUOUS
10
-15.22
20
5.28
30
0
11
-14.5
21
6.0
31
0
0
LINE
8
0
6
CONTINUOUS
10
-14.5
20
6.0
30
0
11
-10.9
21
6.0
31
0
0
LINE
8
0
6
CONTINUOUS
10
-10.9
20
6.0
30
0
11
-10.9
21
4.8
31
0
0
LINE
8
0
6
CONTINUOUS
10
-10.9
20
4.8
30
0
11
-12.1
21
4.8
31
0
0
LINE
8
0
6
CONTINUOUS
10
-12.1
20
4.8
30
0
11
-12.1
21
2.7
31
0
0
LINE
8
0
6
CONTINUOUS
10
-12.1
20
2.7
30
0
11
-6.5
21
2.7
31
0
0
LINE
8
0
6
CONTINUOUS
10
-6.5
20
2.7
30
0
11
-5.33
21
3.26
31
0
0
LINE
8
0
6
CONTINUOUS
10
-5.33
20
3.26
30
0
11
-5.0
21
4.2
31
0
0
LINE
8
0
6
CONTINUOUS
10
-5.0
20
4.2
30
0
11
-5.0
21
16.0
31
0
0
LINE
8
0
6
CONTINUOUS
10
-5.0
20
16.0
30
0
11
-3.5
21
16.0
31
0
0
LINE
8
0
6
CONTINUOUS
10
-3.5
20
16.0
30
0
11
-2.0
21
14.7
31
0
0
LINE
8
0
6
CONTINUOUS
10
-2.0
20
14.7
30
0
11
-2.0
21
4.45
31
0
0
LINE
8
0
6
CONTINUOUS
10
-2.0
20
4.45
30
0
11
-0.87
21
2.5
31
0
0
LINE
8
0
6
CONTINUOUS
10
-0.87
20
2.5
30
0
11
-0.0
21
1.99
31
0
0
LINE
8
0
6
CONTINUOUS
10
0.87
20
2.5
30
0
11
-0.0
21
1.99
31
0
0
LINE
8
0
6
CONTINUOUS
10
2.0
20
4.45
30
0
11
0.87
21
2.5
31
0
0
LINE
8
0
6
CONTINUOUS
10
2.0
20
14.7
30
0
11
2.0
21
4.45
31
0
0
LINE
8
0
6
CONTINUOUS
10
3.5
20
16.0
30
0
11
2.0
21
14.7
31
0
0
LINE
8
0
6
CONTINUOUS
10
5.0
20
16.0
30
0
11
3.5
21
16.0
31
0
0
LINE
8
0
6
CONTINUOUS
10
5.0
20
4.2
30
0
11
5.0
21
16.0
31
0
0
LINE
8
0
6
CONTINUOUS
10
5.33
20
3.26
30
0
11
5.0
21
4.2
31
0
0
LINE
8
0
6
CONTINUOUS
10
6.5
20
2.7
30
0
11
5.33
21
3.26
31
0
0
LINE
8
0
6
CONTINUOUS
10
12.1
20
2.7
30
0
11
6.5
21
2.7
31
0
0
LINE
8
0
6
CONTINUOUS
10
12.1
20
4.8
30
0
11
12.1
21
2.7
31
0
0
LINE
8
0
6
CONTINUOUS
10
10.9
20
4.8
30
0
11
12.1
21
4.8
31
0
0
LINE
8
0
6
CONTINUOUS
10
10.9
20
6.0
30
0
11
10.9
21
4.8
31
0
0
LINE
8
0
6
CONTINUOUS
10
14.5
20
6.0
30
0
11
10.9
21
6.0
31
0
0
LINE
8
0
6
CONTINUOUS
10
15.3
20
5.2
30
0
11
14.5
21
6.0
31
0
0
LINE
8
0
6
CONTINUOUS
10
14.1
20
4.6
30
0
11
15.05
21
4.6
31
0
0
LINE
8
0
6
CONTINUOUS
10
14.1
20
2.3
30
0
11
14.1
21
4.6
31
0
0
LINE
8
0
6
CONTINUOUS
10
23.5
20
2.3
30
0
11
14.1
21
2.3
31
0
0
LINE
8
0
6
CONTINUOUS
10
23.5
20
4.6
30
0
11
23.5
21
2.3
31
0
0
LINE
8
0
6
CONTINUOUS
10
22.55
20
4.6
30
0
11
23.5
21
4.6
31
0
0
LINE
8
0
6
CONTINUOUS
10
23.1
20
6.0
30
0
11
22.3
21
5.2
31
0
0
LINE
8
0
6
CONTINUOUS
10
25.0
20
6.0
30
0
11
23.1
21
6.0
31
0
0
LINE
8
0
6
CONTINUOUS
10
25.0
20
1.5
30
0
11
25.0
21
6.0
31
0
0
ARC
8
0
6
CONTINUOUS
10
23.5
20
1.5
30
0
40
1.5
50
270.0
51
0.0
0
LINE
8
0
6
CONTINUOUS
10
-23.5
20
0.0
30
0
11
23.5
21
-0.0
31
0
0
ARC
8
0
6
CONTINUOUS
10
15.055088790245232
20
4.949963004064487
30
0
40
0.35
50
269.1669243502214
51
45.5933457536978
0
ARC
8
0
6
CONTINUOUS
10
22.54491120975477
20
4.949963004064487
30
0
40
0.35
50
134.40665424630222
51
270.8330756497786
0
ARC
8
0
6
CONTINUOUS
10
-14.93436622346184
20
4.999976169405979
30
0
40
0.4
50
135.56821597407168
51
270.62542786225
0
ARC
8
0
6
CONTINUOUS
10
-22.665633776538158
20
4.999976169405979
30
0
40
0.4
50
269.3745721377495
51
44.4317840259285
0
LINE
8
0
6
CONTINUOUS
10
0.0
20
-99.5
30
0
11
0.0
21
-86.13
31
0
0
LINE
8
0
6
CONTINUOUS
10
-4.59
20
-99.5
30
0
11
4.59
21
-99.5
31
0
0
LINE
8
0
6
CONTINUOUS
10
2.94
20
-86.16
30
0
11
1.76
21
-86.13
31
0
0
LINE
8
0
6
CONTINUOUS
10
1.76
20
-86.13
30
0
11
1.28
21
-86.95
31
0
0
LINE
8
0
6
CONTINUOUS
10
1.28
20
-86.95
30
0
11
1.28
21
-88.35
31
0
0
ARC
8
0
6
CONTINUOUS
10
0.8808453272846526
20
-89.5766929311158
30
0
40
1.29
50
2.07433520073623
51
71.97558533927733
0
LINE
8
0
6
CONTINUOUS
10
2.17
20
-89.53
30
0
11
1.78
21
-90.98
31
0
0
LINE
8
0
6
CONTINUOUS
10
1.78
20
-90.98
30
0
11
1.13
21
-91.89
31
0
0
LINE
8
0
6
CONTINUOUS
10
1.13
20
-91.89
30
0
11
-0.0
21
-92.13
31
0
0
LINE
8
0
6
CONTINUOUS
10
-0.0
20
-92.13
30
0
11
-1.13
21
-91.89
31
0
0
LINE
8
0
6
CONTINUOUS
10
-1.13
20
-91.89
30
0
11
-1.78
21
-90.98
31
0
0
LINE
8
0
6
CONTINUOUS
10
-1.78
20
-90.98
30
0
11
-2.17
21
-89.53
31
0
0
ARC
8
0
6
CONTINUOUS
10
-0.8808453272846526
20
-89.5766929311158
30
0
40
1.29
50
108.02441466072267
51
177.92566479926379
0
LINE
8
0
6
CONTINUOUS
10
-1.28
20
-88.35
30
0
11
-1.28
21
-86.95
31
0
0
LINE
8
0
6
CONTINUOUS
10
-1.28
20
-86.95
30
0
11
-1.76
21
-86.13
31
0
0
LINE
8
0
6
CONTINUOUS
10
-1.76
20
-86.13
30
0
11
-2.94
21
-86.16
31
0
0
ARC
8
0
6
CONTINUOUS
10
0.005156482650061633
20
-89.68053309779987
30
0
40
4.59
50
129.9146892102684
51
248.46087485439767
0
LINE
8
0
6
CONTINUOUS
10
-1.68
20
-93.95
30
0
11
-1.08
21
-94.5
31
0
0
LINE
8
0
6
CONTINUOUS
10
-1.08
20
-94.5
30
0
11
-1.08
21
-99.5
31
0
0
LINE
8
0
6
CONTINUOUS
10
-1.08
20
-99.5
30
0
11
1.08
21
-99.5
31
0
0
LINE
8
0
6
CONTINUOUS
10
1.08
20
-99.5
30
0
11
1.08
21
-94.5
31
0
0
LINE
8
0
6
CONTINUOUS
10
1.08
20
-94.5
30
0
11
1.68
21
-93.95
31
0
0
ARC
8
0
6
CONTINUOUS
10
-0.005156482650061633
20
-89.68053309779987
30
0
40
4.59
50
291.53912514560227
51
50.08531078973163
0
LINE
8
0
6
CONTINUOUS
10
-1.08
20
-99.5
30
0
11
-1.08
21
-94.5
31
0
0
LINE
8
0
6
CONTINUOUS
10
1.08
20
-94.5
30
0
11
1.08
21
-99.5
31
0
0
ARC
8
0
6
CONTINUOUS
10
-0.005156482650061633
20
-89.68053309779987
30
0
40
4.59
50
291.53912514560227
51
50.08531078973163
0
LINE
8
0
6
CONTINUOUS
10
1.68
20
-93.95
30
0
11
1.08
21
-94.5
31
0
0
LINE
8
0
6
CONTINUOUS
10
-1.08
20
-94.5
30
0
11
-1.68
21
-93.95
31
0
0
ARC
8
0
6
CONTINUOUS
10
0.005156482650061633
20
-89.68053309779987
30
0
40
4.59
50
129.9146892102684
51
248.46087485439767
0
LINE
8
0
6
CONTINUOUS
10
-2.94
20
-86.16
30
0
11
-1.76
21
-86.13
31
0
0
LINE
8
0
6
CONTINUOUS
10
-1.76
20
-86.13
30
0
11
-1.28
21
-86.95
31
0
0
LINE
8
0
6
CONTINUOUS
10
-1.28
20
-86.95
30
0
11
-1.28
21
-88.35
31
0
0
LINE
8
0
6
CONTINUOUS
10
-2.17
20
-89.53
30
0
11
-1.78
21
-90.98
31
0
0
LINE
8
0
6
CONTINUOUS
10
-1.78
20
-90.98
30
0
11
-1.13
21
-91.89
31
0
0
LINE
8
0
6
CONTINUOUS
10
-1.13
20
-91.89
30
0
11
-0.0
21
-92.13
31
0
0
LINE
8
0
6
CONTINUOUS
10
1.13
20
-91.89
30
0
11
-0.0
21
-92.13
31
0
0
LINE
8
0
6
CONTINUOUS
10
1.78
20
-90.98
30
0
11
1.13
21
-91.89
31
0
0
LINE
8
0
6
CONTINUOUS
10
2.17
20
-89.53
30
0
11
1.78
21
-90.98
31
0
0
LINE
8
0
6
CONTINUOUS
10
1.28
20
-86.95
30
0
11
1.28
21
-88.35
31
0
0
LINE
8
0
6
CONTINUOUS
10
1.76
20
-86.13
30
0
11
1.28
21
-86.95
31
0
0
LINE
8
0
6
CONTINUOUS
10
2.94
20
-86.16
30
0
11
1.76
21
-86.13
31
0
0
ARC
8
0
6
CONTINUOUS
10
0.8808453272846526
20
-89.5766929311158
30
0
40
1.29
50
2.07433520073623
51
71.97558533927733
0
ARC
8
0
6
CONTINUOUS
10
-0.8808453272846526
20
-89.5766929311158
30
0
40
1.29
50
108.02441466072267
51
177.92566479926379
0
LINE
8
0
6
CONTINUOUS
10
-1.08
20
-99.5
30
0
11
1.08
21
-99.5
31
0
0
LINE
8
0
6
CONTINUOUS
10
12.62
20
15.1
30
0
11
25.02
21
15.1
31
0
0
LINE
8
0
6
CONTINUOUS
10
12.62
20
7.4
30
0
11
25.02
21
7.4
31
0
0
LINE
8
0
6
CONTINUOUS
10
12.62
20
8.79
30
0
11
25.02
21
8.79
31
0
0
LINE
8
0
6
CONTINUOUS
10
25.02
20
11.0
30
0
11
12.62
21
11.0
31
0
0
LINE
8
0
6
CONTINUOUS
10
12.62
20
6.0
30
0
11
25.02
21
6.0
31
0
0
LINE
8
0
6
CONTINUOUS
10
18.82
20
15.1
30
0
11
18.82
21
2.2
31
0
0
LINE
8
0
6
CONTINUOUS
10
12.62
20
6.0
30
0
11
15.52
21
6.0
31
0
0
LINE
8
0
6
CONTINUOUS
10
15.52
20
6.0
30
0
11
17.29
21
6.0
31
0
0
LINE
8
0
6
CONTINUOUS
10
17.29
20
6.0
30
0
11
20.3
21
6.0
31
0
0
LINE
8
0
6
CONTINUOUS
10
20.3
20
6.0
30
0
11
22.11
21
6.0
31
0
0
LINE
8
0
6
CONTINUOUS
10
22.11
20
6.0
30
0
11
25.02
21
6.0
31
0
0
LINE
8
0
6
CONTINUOUS
10
25.02
20
6.0
30
0
11
25.02
21
8.79
31
0
0
LINE
8
0
6
CONTINUOUS
10
25.02
20
8.79
30
0
11
12.62
21
8.79
31
0
0
LINE
8
0
6
CONTINUOUS
10
12.62
20
8.79
30
0
11
12.62
21
6.0
31
0
0
LINE
8
0
6
CONTINUOUS
10
14.11
20
6.0
30
0
11
23.51
21
6.0
31
0
0
LINE
8
0
6
CONTINUOUS
10
18.82
20
6.0
30
0
11
18.82
21
2.2
31
0
0
LINE
8
0
6
CONTINUOUS
10
21.41
20
2.2
30
0
11
23.51
21
4.3
31
0
0
LINE
8
0
6
CONTINUOUS
10
23.51
20
4.3
30
0
11
22.11
21
4.3
31
0
0
LINE
8
0
6
CONTINUOUS
10
22.11
20
4.3
30
0
11
22.11
21
6.0
31
0
0
LINE
8
0
6
CONTINUOUS
10
22.11
20
6.0
30
0
11
20.3
21
6.0
31
0
0
ARC
8
0
6
CONTINUOUS
10
20.299999999999997
20
5.47
30
0
40
0.53
50
0.0
51
89.99999999999962
0
LINE
8
0
6
CONTINUOUS
10
20.83
20
5.47
30
0
11
20.83
21
3.94
31
0
0
ARC
8
0
6
CONTINUOUS
10
20.29
20
3.94
30
0
40
0.54
50
270.0
51
0.0
0
LINE
8
0
6
CONTINUOUS
10
20.29
20
3.4
30
0
11
17.33
21
3.4
31
0
0
ARC
8
0
6
CONTINUOUS
10
17.339999990575
20
3.909901951544118
30
0
40
0.51
50
179.98898477893246
51
268.8764824013516
0
LINE
8
0
6
CONTINUOUS
10
16.83
20
3.91
30
0
11
16.83
21
5.47
31
0
0
ARC
8
0
6
CONTINUOUS
10
17.35999999160234
20
5.4700943478618544
30
0
40
0.53
50
91.08111568811633
51
180.0101994987149
0
LINE
8
0
6
CONTINUOUS
10
17.35
20
6.0
30
0
11
15.51
21
6.0
31
0
0
LINE
8
0
6
CONTINUOUS
10
15.51
20
6.0
30
0
11
15.51
21
4.3
31
0
0
LINE
8
0
6
CONTINUOUS
10
15.51
20
4.3
30
0
11
14.11
21
4.3
31
0
0
LINE
8
0
6
CONTINUOUS
10
14.11
20
4.3
30
0
11
16.21
21
2.2
31
0
0
LINE
8
0
6
CONTINUOUS
10
16.21
20
2.2
30
0
11
21.41
21
2.2
31
0
0
LINE
8
0
6
CONTINUOUS
10
12.62
20
11.0
30
0
11
25.02
21
11.0
31
0
0
LINE
8
0
6
CONTINUOUS
10
12.62
20
8.79
30
0
11
25.02
21
8.79
31
0
0
LINE
8
0
6
CONTINUOUS
10
18.82
20
11.0
30
0
11
18.82
21
8.79
31
0
0
LINE
8
0
6
CONTINUOUS
10
25.02
20
8.79
30
0
11
25.02
21
9.8
31
0
0
LINE
8
0
6
CONTINUOUS
10
25.02
20
9.8
30
0
11
23.53
21
9.8
31
0
0
LINE
8
0
6
CONTINUOUS
10
23.53
20
9.8
30
0
11
21.14
21
8.82
31
0
0
ARC
8
0
6
CONTINUOUS
10
20.948873090249382
20
9.096296411077637
30
0
40
0.3359601202601322
50
96.64443159816436
51
304.6733885284507
0
LINE
8
0
6
CONTINUOUS
10
20.91
20
9.43
30
0
11
22.07
21
9.82
31
0
0
LINE
8
0
6
CONTINUOUS
10
22.07
20
9.82
30
0
11
24.57
21
10.18
31
0
0
ARC
8
0
6
CONTINUOUS
10
24.488440810365
20
10.58180604598
30
0
40
0.41
50
281.47409439560244
51
95.37984364735902
0
LINE
8
0
6
CONTINUOUS
10
24.45
20
10.99
30
0
11
22.18
21
10.82
31
0
0
LINE
8
0
6
CONTINUOUS
10
22.18
20
10.82
30
0
11
19.93
21
10.06
31
0
0
LINE
8
0
6
CONTINUOUS
10
19.93
20
10.06
30
0
11
18.44
21
10.06
31
0
0
LINE
8
0
6
CONTINUOUS
10
18.44
20
10.06
30
0
11
17.67
21
11.0
31
0
0
LINE
8
0
6
CONTINUOUS
10
17.67
20
11.0
30
0
11
16.56
21
9.81
31
0
0
LINE
8
0
6
CONTINUOUS
10
16.56
20
9.81
30
0
11
15.46
21
11.0
31
0
0
LINE
8
0
6
CONTINUOUS
10
15.46
20
11.0
30
0
11
14.34
21
9.81
31
0
0
LINE
8
0
6
CONTINUOUS
10
14.34
20
9.81
30
0
11
13.26
21
11.0
31
0
0
LINE
8
0
6
CONTINUOUS
10
13.26
20
11.0
30
0
11
12.62
21
10.11
31
0
0
LINE
8
0
6
CONTINUOUS
10
12.62
20
10.11
30
0
11
12.62
21
8.79
31
0
0
LINE
8
0
6
CONTINUOUS
10
12.62
20
8.79
30
0
11
25.02
21
8.79
31
0
0
LINE
8
0
6
CONTINUOUS
10
-12.62
20
15.1
30
0
11
-25.02
21
15.1
31
0
0
LINE
8
0
6
CONTINUOUS
10
-12.62
20
7.4
30
0
11
-25.02
21
7.4
31
0
0
LINE
8
0
6
CONTINUOUS
10
-12.62
20
8.79
30
0
11
-25.02
21
8.79
31
0
0
LINE
8
0
6
CONTINUOUS
10
-25.02
20
11.0
30
0
11
-12.62
21
11.0
31
0
0
LINE
8
0
6
CONTINUOUS
10
-12.62
20
6.0
30
0
11
-25.02
21
6.0
31
0
0
LINE
8
0
6
CONTINUOUS
10
-18.82
20
15.1
30
0
11
-18.82
21
2.2
31
0
0
LINE
8
0
6
CONTINUOUS
10
-12.62
20
6.0
30
0
11
-12.62
21
8.79
31
0
0
LINE
8
0
6
CONTINUOUS
10
-12.62
20
8.79
30
0
11
-25.02
21
8.79
31
0
0
LINE
8
0
6
CONTINUOUS
10
-25.02
20
8.79
30
0
11
-25.02
21
6.0
31
0
0
LINE
8
0
6
CONTINUOUS
10
-25.02
20
6.0
30
0
11
-22.11
21
6.0
31
0
0
LINE
8
0
6
CONTINUOUS
10
-22.11
20
6.0
30
0
11
-20.3
21
6.0
31
0
0
LINE
8
0
6
CONTINUOUS
10
-20.3
20
6.0
30
0
11
-17.29
21
6.0
31
0
0
LINE
8
0
6
CONTINUOUS
10
-17.29
20
6.0
30
0
11
-15.52
21
6.0
31
0
0
LINE
8
0
6
CONTINUOUS
10
-15.52
20
6.0
30
0
11
-12.62
21
6.0
31
0
0
LINE
8
0
6
CONTINUOUS
10
-14.11
20
6.0
30
0
11
-23.51
21
6.0
31
0
0
LINE
8
0
6
CONTINUOUS
10
-18.82
20
6.0
30
0
11
-18.82
21
2.2
31
0
0
LINE
8
0
6
CONTINUOUS
10
-21.41
20
2.2
30
0
11
-16.21
21
2.2
31
0
0
LINE
8
0
6
CONTINUOUS
10
-16.21
20
2.2
30
0
11
-14.11
21
4.3
31
0
0
LINE
8
0
6
CONTINUOUS
10
-14.11
20
4.3
30
0
11
-15.51
21
4.3
31
0
0
LINE
8
0
6
CONTINUOUS
10
-15.51
20
4.3
30
0
11
-15.51
21
6.0
31
0
0
LINE
8
0
6
CONTINUOUS
10
-15.51
20
6.0
30
0
11
-17.35
21
6.0
31
0
0
ARC
8
0
6
CONTINUOUS
10
-17.35999999160234
20
5.4700943478618544
30
0
40
0.53
50
359.98980050128506
51
88.91888431188369
0
LINE
8
0
6
CONTINUOUS
10
-16.83
20
5.47
30
0
11
-16.83
21
3.91
31
0
0
ARC
8
0
6
CONTINUOUS
10
-17.339999990575
20
3.909901951544118
30
0
40
0.51
50
271.1235175986484
51
0.011015221067528246
0
LINE
8
0
6
CONTINUOUS
10
-17.33
20
3.4
30
0
11
-20.29
21
3.4
31
0
0
ARC
8
0
6
CONTINUOUS
10
-20.29
20
3.94
30
0
40
0.54
50
180.0
51
270.0
0
LINE
8
0
6
CONTINUOUS
10
-20.83
20
3.94
30
0
11
-20.83
21
5.47
31
0
0
ARC
8
0
6
CONTINUOUS
10
-20.299999999999997
20
5.47
30
0
40
0.53
50
90.00000000000038
51
180.0
0
LINE
8
0
6
CONTINUOUS
10
-20.3
20
6.0
30
0
11
-22.11
21
6.0
31
0
0
LINE
8
0
6
CONTINUOUS
10
-22.11
20
6.0
30
0
11
-22.11
21
4.3
31
0
0
LINE
8
0
6
CONTINUOUS
10
-22.11
20
4.3
30
0
11
-23.51
21
4.3
31
0
0
LINE
8
0
6
CONTINUOUS
10
-23.51
20
4.3
30
0
11
-21.41
21
2.2
31
0
0
LINE
8
0
6
CONTINUOUS
10
-12.62
20
11.0
30
0
11
-25.02
21
11.0
31
0
0
LINE
8
0
6
CONTINUOUS
10
-12.62
20
8.79
30
0
11
-25.02
21
8.79
31
0
0
LINE
8
0
6
CONTINUOUS
10
-18.82
20
11.0
30
0
11
-18.82
21
8.79
31
0
0
LINE
8
0
6
CONTINUOUS
10
-25.02
20
8.79
30
0
11
-12.62
21
8.79
31
0
0
LINE
8
0
6
CONTINUOUS
10
-12.62
20
8.79
30
0
11
-12.62
21
10.11
31
0
0
LINE
8
0
6
CONTINUOUS
10
-12.62
20
10.11
30
0
11
-13.26
21
11.0
31
0
0
LINE
8
0
6
CONTINUOUS
10
-13.26
20
11.0
30
0
11
-14.34
21
9.81
31
0
0
LINE
8
0
6
CONTINUOUS
10
-14.34
20
9.81
30
0
11
-15.46
21
11.0
31
0
0
LINE
8
0
6
CONTINUOUS
10
-15.46
20
11.0
30
0
11
-16.56
21
9.81
31
0
0
LINE
8
0
6
CONTINUOUS
10
-16.56
20
9.81
30
0
11
-17.67
21
11.0
31
0
0
LINE
8
0
6
CONTINUOUS
10
-17.67
20
11.0
30
0
11
-18.44
21
10.06
31
0
0
LINE
8
0
6
CONTINUOUS
10
-18.44
20
10.06
30
0
11
-19.93
21
10.06
31
0
0
LINE
8
0
6
CONTINUOUS
10
-19.93
20
10.06
30
0
11
-22.18
21
10.82
31
0
0
LINE
8
0
6
CONTINUOUS
10
-22.18
20
10.82
30
0
11
-24.45
21
10.99
31
0
0
ARC
8
0
6
CONTINUOUS
10
-24.488440810365
20
10.58180604598
30
0
40
0.41
50
84.62015635264098
51
258.52590560439756
0
LINE
8
0
6
CONTINUOUS
10
-24.57
20
10.18
30
0
11
-22.07
21
9.82
31
0
0
LINE
8
0
6
CONTINUOUS
10
-22.07
20
9.82
30
0
11
-20.91
21
9.43
31
0
0
ARC
8
0
6
CONTINUOUS
10
-20.948873090249382
20
9.096296411077637
30
0
40
0.3359601202601322
50
235.3266114715493
51
83.35556840183565
0
LINE
8
0
6
CONTINUOUS
10
-21.14
20
8.82
30
0
11
-23.53
21
9.8
31
0
0
LINE
8
0
6
CONTINUOUS
10
-23.53
20
9.8
30
0
11
-25.02
21
9.8
31
0
0
LINE
8
0
6
CONTINUOUS
10
-25.02
20
9.8
30
0
11
-25.02
21
8.79
31
0
0
ENDSEC
0
EOF