0
SECTION
2
HEADER
0
ENDSEC
0
SECTION
2
TABLES
0
TABLE
2
LTYPE
70
2
0
LTYPE
2
CONTINUOUS
70
0
3
Solid line
72
65
73
0
40
0.0
0
ENDTAB
0
TABLE
2
LAYER
70
1
0
LAYER
2
0
70
0
62
7
6
CONTINUOUS
0
ENDTAB
0
ENDSEC
0
SECTION
2
ENTITIES
0
LINE
8
0
6
CONTINUOUS
10
16.25
20
-19.54
30
0
11
16.25
21
137.57
31
0
0
LINE
8
0
6
CONTINUOUS
10
29.78
20
-19.54
30
0
11
29.78
21
137.57
31
0
0
LINE
8
0
6
CONTINUOUS
10
66.0
20
137.57
30
0
11
-9.0
21
137.57
31
0
0
LINE
8
0
6
CONTINUOUS
10
66.0
20
5.0
30
0
11
-9.0
21
5.0
31
0
0
LINE
8
0
6
CONTINUOUS
10
56.0
20
-19.54
30
0
11
56.0
21
137.57
31
0
0
LINE
8
0
6
CONTINUOUS
10
-9.0
20
137.57
30
0
11
-9.0
21
-19.54
31
0
0
LINE
8
0
6
CONTINUOUS
10
2.0
20
-19.54
30
0
11
2.0
21
137.57
31
0
0
LINE
8
0
6
CONTINUOUS
10
-9.0
20
0.0
30
0
11
66.0
21
0.0
31
0
0
ARC
8
0
6
CONTINUOUS
10
-8.5
20
42.3
30
0
40
0.5
50
90.0
51
180.0
0
LINE
8
0
6
CONTINUOUS
10
-9.0
20
42.3
30
0
11
-9.0
21
-6.7
31
0
0
ARC
8
0
6
CONTINUOUS
10
-8.5
20
-6.7
30
0
40
0.5
50
180.0
51
270.0
0
LINE
8
0
6
CONTINUOUS
10
-8.5
20
-7.2
30
0
11
-4.5
21
-7.2
31
0
0
ARC
8
0
6
CONTINUOUS
10
-4.5
20
-6.7
30
0
40
0.5
50
270.0
51
0.0
0
LINE
8
0
6
CONTINUOUS
10
-4.0
20
-6.7
30
0
11
-4.0
21
-4.9
31
0
0
LINE
8
0
6
CONTINUOUS
10
-4.0
20
-4.9
30
0
11
-5.0
21
-4.9
31
0
0
LINE
8
0
6
CONTINUOUS
10
-5.0
20
-4.9
30
0
11
-5.0
21
-5.9
31
0
0
LINE
8
0
6
CONTINUOUS
10
-5.0
20
-5.9
30
0
11
-6.5
21
-5.9
31
0
0
ARC
8
0
6
CONTINUOUS
10
-6.5
20
-4.9
30
0
40
1.0
50
180.0
51
270.0
0
LINE
8
0
6
CONTINUOUS
10
-7.5
20
-4.9
30
0
11
-7.5
21
-0.9
31
0
0
ARC
8
0
6
CONTINUOUS
10
-6.5
20
-0.8999999999999999
30
0
40
1.0
50
90.0
51
180.0
0
LINE
8
0
6
CONTINUOUS
10
-6.5
20
0.1
30
0
11
-5.0
21
0.1
31
0
0
LINE
8
0
6
CONTINUOUS
10
-5.0
20
0.1
30
0
11
-5.0
21
-0.9
31
0
0
LINE
8
0
6
CONTINUOUS
10
-5.0
20
-0.9
30
0
11
-4.0
21
-0.9
31
0
0
LINE
8
0
6
CONTINUOUS
10
-4.0
20
-0.9
30
0
11
-4.0
21
2.9
31
0
0
LINE
8
0
6
CONTINUOUS
10
-4.0
20
2.9
30
0
11
-5.2
21
2.9
31
0
0
LINE
8
0
6
CONTINUOUS
10
-5.2
20
2.9
30
0
11
-5.2
21
1.9
31
0
0
ARC
8
0
6
CONTINUOUS
10
-5.7
20
1.9
30
0
40
0.5
50
270.0
51
0.0
0
LINE
8
0
6
CONTINUOUS
10
-5.7
20
1.4
30
0
11
-6.5
21
1.4
31
0
0
ARC
8
0
6
CONTINUOUS
10
-6.5
20
1.9
30
0
40
0.5
50
180.0
51
270.0
0
LINE
8
0
6
CONTINUOUS
10
-7.0
20
1.9
30
0
11
-7.0
21
10.7
31
0
0
ARC
8
0
6
CONTINUOUS
10
-6.0
20
10.7
30
0
40
1.0
50
90.0
51
180.0
0
LINE
8
0
6
CONTINUOUS
10
-6.0
20
11.7
30
0
11
1.1
21
11.7
31
0
0
ARC
8
0
6
CONTINUOUS
10
1.1
20
11.2
30
0
40
0.5
50
0.0
51
90.0
0
LINE
8
0
6
CONTINUOUS
10
1.6
20
11.2
30
0
11
1.6
21
10.3
31
0
0
ARC
8
0
6
CONTINUOUS
10
2.1
20
10.3
30
0
40
0.5
50
180.0
51
270.0
0
LINE
8
0
6
CONTINUOUS
10
2.1
20
9.8
30
0
11
3.5
21
9.8
31
0
0
ARC
8
0
6
CONTINUOUS
10
4.0
20
9.400500312891237
30
0
40
0.64
50
38.62483287305294
51
141.37516712694708
0
LINE
8
0
6
CONTINUOUS
10
4.5
20
9.8
30
0
11
6.68
21
9.8
31
0
0
LINE
8
0
6
CONTINUOUS
10
6.68
20
9.8
30
0
11
6.68
21
11.38
31
0
0
LINE
8
0
6
CONTINUOUS
10
6.68
20
11.38
30
0
11
3.5
21
11.38
31
0
0
LINE
8
0
6
CONTINUOUS
10
3.5
20
11.38
30
0
11
3.5
21
15.8
31
0
0
ARC
8
0
6
CONTINUOUS
10
4.0
20
15.8
30
0
40
0.5
50
90.0
51
180.0
0
LINE
8
0
6
CONTINUOUS
10
4.0
20
16.3
30
0
11
4.87
21
16.3
31
0
0
LINE
8
0
6
CONTINUOUS
10
4.87
20
16.3
30
0
11
7.32
21
14.79
31
0
0
ARC
8
0
6
CONTINUOUS
10
2.3251017140465695
20
14.564187881238661
30
0
40
5.0
50
2.588496718158249
51
34.41357106403068
0
ARC
8
0
6
CONTINUOUS
10
6.831444622455213
20
17.8
30
0
40
0.56
50
132.93366057534
51
227.06633942466
0
ARC
8
0
6
CONTINUOUS
10
2.3251017140465695
20
21.03581211876134
30
0
40
5.0
50
325.58642893596937
51
357.4115032818417
0
LINE
8
0
6
CONTINUOUS
10
7.32
20
20.81
30
0
11
4.87
21
19.3
31
0
0
LINE
8
0
6
CONTINUOUS
10
4.87
20
19.3
30
0
11
4.0
21
19.3
31
0
0
ARC
8
0
6
CONTINUOUS
10
4.0
20
19.8
30
0
40
0.5
50
180.0
51
270.0
0
LINE
8
0
6
CONTINUOUS
10
3.5
20
19.8
30
0
11
3.5
21
24.18
31
0
0
LINE
8
0
6
CONTINUOUS
10
3.5
20
24.18
30
0
11
6.72
21
24.22
31
0
0
LINE
8
0
6
CONTINUOUS
10
6.72
20
24.22
30
0
11
6.67
21
25.8
31
0
0
LINE
8
0
6
CONTINUOUS
10
6.67
20
25.8
30
0
11
4.5
21
25.8
31
0
0
ARC
8
0
6
CONTINUOUS
10
4.0
20
26.27549973711875
30
0
40
0.69
50
223.56128448107742
51
316.43871551892255
0
LINE
8
0
6
CONTINUOUS
10
3.5
20
25.8
30
0
11
2.1
21
25.8
31
0
0
ARC
8
0
6
CONTINUOUS
10
2.1
20
25.3
30
0
40
0.5
50
90.0
51
180.0
0
LINE
8
0
6
CONTINUOUS
10
1.6
20
25.3
30
0
11
1.6
21
24.4
31
0
0
ARC
8
0
6
CONTINUOUS
10
1.1
20
24.4
30
0
40
0.5
50
270.0
51
0.0
0
LINE
8
0
6
CONTINUOUS
10
1.1
20
23.9
30
0
11
-6.0
21
23.9
31
0
0
ARC
8
0
6
CONTINUOUS
10
-6.0
20
24.9
30
0
40
1.0
50
180.0
51
270.0
0
LINE
8
0
6
CONTINUOUS
10
-7.0
20
24.9
30
0
11
-7.0
21
33.6
31
0
0
ARC
8
0
6
CONTINUOUS
10
-6.498004683884279
20
33.69000390323691
30
0
40
0.51
50
90.2241636938825
51
190.1646941215878
0
LINE
8
0
6
CONTINUOUS
10
-6.5
20
34.2
30
0
11
-5.7
21
34.2
31
0
0
ARC
8
0
6
CONTINUOUS
10
-5.7
20
33.7
30
0
40
0.5
50
0.0
51
90.0
0
LINE
8
0
6
CONTINUOUS
10
-5.2
20
33.7
30
0
11
-5.2
21
32.7
31
0
0
LINE
8
0
6
CONTINUOUS
10
-5.2
20
32.7
30
0
11
-4.0
21
32.7
31
0
0
LINE
8
0
6
CONTINUOUS
10
-4.0
20
32.7
30
0
11
-4.0
21
36.5
31
0
0
LINE
8
0
6
CONTINUOUS
10
-4.0
20
36.5
30
0
11
-5.0
21
36.5
31
0
0
LINE
8
0
6
CONTINUOUS
10
-5.0
20
36.5
30
0
11
-5.0
21
35.5
31
0
0
LINE
8
0
6
CONTINUOUS
10
-5.0
20
35.5
30
0
11
-6.5
21
35.5
31
0
0
ARC
8
0
6
CONTINUOUS
10
-6.5
20
36.5
30
0
40
1.0
50
180.0
51
270.0
0
LINE
8
0
6
CONTINUOUS
10
-7.5
20
36.5
30
0
11
-7.5
21
40.5
31
0
0
ARC
8
0
6
CONTINUOUS
10
-6.5
20
40.5
30
0
40
1.0
50
90.0
51
180.0
0
LINE
8
0
6
CONTINUOUS
10
-6.5
20
41.5
30
0
11
-5.0
21
41.5
31
0
0
LINE
8
0
6
CONTINUOUS
10
-5.0
20
41.5
30
0
11
-5.0
21
40.5
31
0
0
LINE
8
0
6
CONTINUOUS
10
-5.0
20
40.5
30
0
11
-4.0
21
40.5
31
0
0
LINE
8
0
6
CONTINUOUS
10
-4.0
20
40.5
30
0
11
-4.0
21
42.3
31
0
0
ARC
8
0
6
CONTINUOUS
10
-4.5
20
42.3
30
0
40
0.5
50
0.0
51
90.0
0
LINE
8
0
6
CONTINUOUS
10
-4.5
20
42.8
30
0
11
-8.5
21
42.8
31
0
0
ARC
8
0
6
CONTINUOUS
10
1.3
20
13.7
30
0
40
0.5
50
270.0
51
0.0
0
LINE
8
0
6
CONTINUOUS
10
1.3
20
13.2
30
0
11
-6.9
21
13.2
31
0
0
ARC
8
0
6
CONTINUOUS
10
-6.9
20
13.7
30
0
40
0.5
50
180.0
51
270.0
0
LINE
8
0
6
CONTINUOUS
10
-7.4
20
13.7
30
0
11
-7.4
21
21.9
31
0
0
ARC
8
0
6
CONTINUOUS
10
-6.9
20
21.9
30
0
40
0.5
50
90.0
51
180.0
0
LINE
8
0
6
CONTINUOUS
10
-6.9
20
22.4
30
0
11
1.3
21
22.4
31
0
0
ARC
8
0
6
CONTINUOUS
10
1.3
20
21.9
30
0
40
0.5
50
0.0
51
90.0
0
LINE
8
0
6
CONTINUOUS
10
1.8
20
21.9
30
0
11
1.8
21
13.7
31
0
0
ARC
8
0
6
CONTINUOUS
10
39.0
20
26.8
30
0
40
1.0
50
180.0
51
270.0
0
LINE
8
0
6
CONTINUOUS
10
38.0
20
26.8
30
0
11
38.0
21
28.1
31
0
0
ARC
8
0
6
CONTINUOUS
10
39.0
20
28.1
30
0
40
1.0
50
90.0
51
180.0
0
LINE
8
0
6
CONTINUOUS
10
39.0
20
29.1
30
0
11
41.5
21
29.1
31
0
0
LINE
8
0
6
CONTINUOUS
10
41.5
20
29.1
30
0
11
41.5
21
30.6
31
0
0
LINE
8
0
6
CONTINUOUS
10
41.5
20
30.6
30
0
11
36.0
21
30.6
31
0
0
ARC
8
0
6
CONTINUOUS
10
36.0
20
30.1
30
0
40
0.5
50
90.0
51
180.0
0
LINE
8
0
6
CONTINUOUS
10
35.5
20
30.1
30
0
11
35.5
21
29.1
31
0
0
LINE
8
0
6
CONTINUOUS
10
35.5
20
29.1
30
0
11
36.3
21
29.1
31
0
0
LINE
8
0
6
CONTINUOUS
10
36.3
20
29.1
30
0
11
36.3
21
26.1
31
0
0
ARC
8
0
6
CONTINUOUS
10
35.55483898919448
20
26.362364380157253
30
0
40
0.79
50
225.3859338704212
51
340.60329971341184
0
LINE
8
0
6
CONTINUOUS
10
35.0
20
25.8
30
0
11
32.82
21
25.8
31
0
0
LINE
8
0
6
CONTINUOUS
10
32.82
20
25.8
30
0
11
32.82
21
24.22
31
0
0
LINE
8
0
6
CONTINUOUS
10
32.82
20
24.22
30
0
11
35.99
21
24.22
31
0
0
LINE
8
0
6
CONTINUOUS
10
35.99
20
24.22
30
0
11
35.99
21
19.7
31
0
0
ARC
8
0
6
CONTINUOUS
10
35.21715182678063
20
20.029098315327627
30
0
40
0.84
50
240.2240733447433
51
336.93446741614594
0
LINE
8
0
6
CONTINUOUS
10
34.8
20
19.3
30
0
11
32.19
21
20.81
31
0
0
ARC
8
0
6
CONTINUOUS
10
36.84911832041981
20
20.900644781032703
30
0
40
4.66
50
181.1145688747638
51
205.6971816075094
0
ARC
8
0
6
CONTINUOUS
10
30.395315986662432
20
17.799999999999997
30
0
40
2.5
50
334.40544772162355
51
25.59455227837652
0
ARC
8
0
6
CONTINUOUS
10
36.84911832041981
20
14.699355218967295
30
0
40
4.66
50
154.3028183924906
51
178.8854311252362
0
LINE
8
0
6
CONTINUOUS
10
32.19
20
14.79
30
0
11
34.8
21
16.3
31
0
0
ARC
8
0
6
CONTINUOUS
10
35.23000101771117
20
15.661251908208442
30
0
40
0.77
50
359.9068453398922
51
123.94818078840196
0
LINE
8
0
6
CONTINUOUS
10
36.0
20
15.66
30
0
11
36.0
21
11.42
31
0
0
LINE
8
0
6
CONTINUOUS
10
36.0
20
11.42
30
0
11
32.82
21
11.38
31
0
0
LINE
8
0
6
CONTINUOUS
10
32.82
20
11.38
30
0
11
32.82
21
9.8
31
0
0
LINE
8
0
6
CONTINUOUS
10
32.82
20
9.8
30
0
11
35.0
21
9.8
31
0
0
ARC
8
0
6
CONTINUOUS
10
35.55483898919448
20
9.23763561984275
30
0
40
0.79
50
19.396700286588032
51
134.61406612957887
0
LINE
8
0
6
CONTINUOUS
10
36.3
20
9.5
30
0
11
36.3
21
6.5
31
0
0
LINE
8
0
6
CONTINUOUS
10
36.3
20
6.5
30
0
11
35.5
21
6.5
31
0
0
LINE
8
0
6
CONTINUOUS
10
35.5
20
6.5
30
0
11
35.5
21
5.5
31
0
0
ARC
8
0
6
CONTINUOUS
10
36.0
20
5.5
30
0
40
0.5
50
180.0
51
270.0
0
LINE
8
0
6
CONTINUOUS
10
36.0
20
5.0
30
0
11
41.5
21
5.0
31
0
0
LINE
8
0
6
CONTINUOUS
10
41.5
20
5.0
30
0
11
41.5
21
6.5
31
0
0
LINE
8
0
6
CONTINUOUS
10
41.5
20
6.5
30
0
11
39.0
21
6.5
31
0
0
ARC
8
0
6
CONTINUOUS
10
39.0
20
7.5
30
0
40
1.0
50
180.0
51
270.0
0
LINE
8
0
6
CONTINUOUS
10
38.0
20
7.5
30
0
11
38.0
21
8.8
31
0
0
ARC
8
0
6
CONTINUOUS
10
39.0
20
8.8
30
0
40
1.0
50
90.0
51
180.0
0
LINE
8
0
6
CONTINUOUS
10
39.0
20
9.8
30
0
11
46.0
21
9.8
31
0
0
ARC
8
0
6
CONTINUOUS
10
46.5
20
9.281926646120455
30
0
40
0.72
50
46.01703686964135
51
133.98296313035866
0
LINE
8
0
6
CONTINUOUS
10
47.0
20
9.8
30
0
11
53.0
21
9.8
31
0
0
ARC
8
0
6
CONTINUOUS
10
53.0
20
8.8
30
0
40
1.0
50
0.0
51
90.0
0
LINE
8
0
6
CONTINUOUS
10
54.0
20
8.8
30
0
11
54.0
21
7.5
31
0
0
ARC
8
0
6
CONTINUOUS
10
53.0
20
7.5
30
0
40
1.0
50
270.0
51
0.0
0
LINE
8
0
6
CONTINUOUS
10
53.0
20
6.5
30
0
11
51.5
21
6.5
31
0
0
LINE
8
0
6
CONTINUOUS
10
51.5
20
6.5
30
0
11
51.5
21
5.48
31
0
0
LINE
8
0
6
CONTINUOUS
10
51.5
20
5.48
30
0
11
52.6
21
4.8
31
0
0
LINE
8
0
6
CONTINUOUS
10
52.6
20
4.8
30
0
11
56.0
21
4.8
31
0
0
LINE
8
0
6
CONTINUOUS
10
56.0
20
4.8
30
0
11
56.0
21
30.8
31
0
0
LINE
8
0
6
CONTINUOUS
10
56.0
20
30.8
30
0
11
52.6
21
30.8
31
0
0
LINE
8
0
6
CONTINUOUS
10
52.6
20
30.8
30
0
11
51.5
21
30.11
31
0
0
LINE
8
0
6
CONTINUOUS
10
51.5
20
30.11
30
0
11
51.5
21
29.1
31
0
0
LINE
8
0
6
CONTINUOUS
10
51.5
20
29.1
30
0
11
53.0
21
29.1
31
0
0
ARC
8
0
6
CONTINUOUS
10
53.0
20
28.1
30
0
40
1.0
50
0.0
51
90.0
0
LINE
8
0
6
CONTINUOUS
10
54.0
20
28.1
30
0
11
54.0
21
26.8
31
0
0
ARC
8
0
6
CONTINUOUS
10
53.0
20
26.8
30
0
40
1.0
50
270.0
51
0.0
0
LINE
8
0
6
CONTINUOUS
10
53.0
20
25.8
30
0
11
47.0
21
25.8
31
0
0
ARC
8
0
6
CONTINUOUS
10
46.5
20
26.318073353879544
30
0
40
0.72
50
226.01703686964126
51
313.9829631303587
0
LINE
8
0
6
CONTINUOUS
10
46.0
20
25.8
30
0
11
39.0
21
25.8
31
0
0
ARC
8
0
6
CONTINUOUS
10
38.2
20
23.8
30
0
40
0.5
50
90.0
51
180.0
0
LINE
8
0
6
CONTINUOUS
10
38.2
20
24.3
30
0
11
53.9
21
24.3
31
0
0
ARC
8
0
6
CONTINUOUS
10
53.9
20
23.8
30
0
40
0.5
50
0.0
51
90.0
0
LINE
8
0
6
CONTINUOUS
10
54.4
20
23.8
30
0
11
54.4
21
11.8
31
0
0
ARC
8
0
6
CONTINUOUS
10
53.9
20
11.8
30
0
40
0.5
50
270.0
51
0.0
0
LINE
8
0
6
CONTINUOUS
10
53.9
20
11.3
30
0
11
38.2
21
11.3
31
0
0
ARC
8
0
6
CONTINUOUS
10
38.2
20
11.8
30
0
40
0.5
50
180.0
51
270.0
0
LINE
8
0
6
CONTINUOUS
10
37.7
20
11.8
30
0
11
37.7
21
23.8
31
0
0
LINE
8
0
6
CONTINUOUS
10
16.25
20
25.8
30
0
11
16.25
21
30.1
31
0
0
ARC
8
0
6
CONTINUOUS
10
15.75
20
30.1
30
0
40
0.5
50
0.0
51
90.0
0
LINE
8
0
6
CONTINUOUS
10
15.75
20
30.6
30
0
11
14.93
21
30.6
31
0
0
ARC
8
0
6
CONTINUOUS
10
14.91563638787923
20
29.60010316199778
30
0
40
1.0
50
89.17699734585632
51
164.9360590329631
0
LINE
8
0
6
CONTINUOUS
10
13.95
20
29.86
30
0
11
13.75
21
29.1
31
0
0
LINE
8
0
6
CONTINUOUS
10
13.75
20
29.1
30
0
11
14.75
21
29.1
31
0
0
LINE
8
0
6
CONTINUOUS
10
14.75
20
29.1
30
0
11
14.75
21
26.8
31
0
0
ARC
8
0
6
CONTINUOUS
10
13.75
20
26.8
30
0
40
1.0
50
270.0
51
0.0
0
LINE
8
0
6
CONTINUOUS
10
13.75
20
25.8
30
0
11
10.75
21
25.8
31
0
0
ARC
8
0
6
CONTINUOUS
10
10.75
20
26.8
30
0
40
1.0
50
180.0
51
270.0
0
LINE
8
0
6
CONTINUOUS
10
9.75
20
26.8
30
0
11
9.75
21
29.1
31
0
0
LINE
8
0
6
CONTINUOUS
10
9.75
20
29.1
30
0
11
10.75
21
29.1
31
0
0
LINE
8
0
6
CONTINUOUS
10
10.75
20
29.1
30
0
11
10.55
21
29.86
31
0
0
ARC
8
0
6
CONTINUOUS
10
9.584388790497599
20
29.600009630787394
30
0
40
1.0
50
15.069490688999986
51
90.25145997993258
0
LINE
8
0
6
CONTINUOUS
10
9.58
20
30.6
30
0
11
8.75
21
30.6
31
0
0
ARC
8
0
6
CONTINUOUS
10
8.75
20
30.1
30
0
40
0.5
50
90.0
51
180.0
0
LINE
8
0
6
CONTINUOUS
10
8.25
20
30.1
30
0
11
8.25
21
25.8
31
0
0
LINE
8
0
6
CONTINUOUS
10
8.25
20
25.8
30
0
11
7.21
21
25.8
31
0
0
ARC
8
0
6
CONTINUOUS
10
7.21
20
25.3
30
0
40
0.5
50
90.0
51
180.0
0
LINE
8
0
6
CONTINUOUS
10
6.71
20
25.3
30
0
11
6.71
21
24.22
31
0
0
LINE
8
0
6
CONTINUOUS
10
6.71
20
24.22
30
0
11
4.01
21
24.19
31
0
0
ARC
8
0
6
CONTINUOUS
10
4.01
20
23.69
30
0
40
0.5
50
90.0
51
180.0
0
LINE
8
0
6
CONTINUOUS
10
3.5
20
23.69
30
0
11
3.5
21
20.36
31
0
0
ARC
8
0
6
CONTINUOUS
10
4.509981909968996
20
20.36601495924825
30
0
40
1.0
50
180.3446338570162
51
300.00119683403443
0
LINE
8
0
6
CONTINUOUS
10
5.01
20
19.5
30
0
11
8.67
21
21.61
31
0
0
ARC
8
0
6
CONTINUOUS
10
7.918648970920169
20
22.908257151376674
30
0
40
1.5
50
300.05960682142853
51
330.9544513004011
0
LINE
8
0
6
CONTINUOUS
10
9.23
20
22.18
30
0
11
9.74
21
23.09
31
0
0
ARC
8
0
6
CONTINUOUS
10
10.611723267515462
20
22.600001484826567
30
0
40
1.0
50
90.0987360044766
51
150.6595160182602
0
LINE
8
0
6
CONTINUOUS
10
10.61
20
23.6
30
0
11
28.85
21
23.6
31
0
0
ARC
8
0
6
CONTINUOUS
10
28.887874643824908
20
22.600717501726795
30
0
40
1.0
50
29.29343317287906
51
92.17057639733551
0
LINE
8
0
6
CONTINUOUS
10
29.76
20
23.09
30
0
11
30.27
21
22.18
31
0
0
ARC
8
0
6
CONTINUOUS
10
31.58135102907983
20
22.908257151376674
30
0
40
1.5
50
209.0455486995989
51
239.9403931785714
0
LINE
8
0
6
CONTINUOUS
10
30.83
20
21.61
30
0
11
34.49
21
19.5
31
0
0
ARC
8
0
6
CONTINUOUS
10
34.99001809003101
20
20.36601495924825
30
0
40
1.0
50
239.9988031659655
51
359.6553661429838
0
LINE
8
0
6
CONTINUOUS
10
36.0
20
20.36
30
0
11
36.0
21
23.69
31
0
0
ARC
8
0
6
CONTINUOUS
10
35.49
20
23.69
30
0
40
0.5
50
0.0
51
90.0
0
LINE
8
0
6
CONTINUOUS
10
35.49
20
24.19
30
0
11
32.83
21
24.22
31
0
0
LINE
8
0
6
CONTINUOUS
10
32.83
20
24.22
30
0
11
32.79
21
25.3
31
0
0
ARC
8
0
6
CONTINUOUS
10
32.29
20
25.3
30
0
40
0.5
50
0.0
51
90.0
0
LINE
8
0
6
CONTINUOUS
10
32.29
20
25.8
30
0
11
16.25
21
25.8
31
0
0
LINE
8
0
6
CONTINUOUS
10
16.25
20
9.8
30
0
11
32.29
21
9.8
31
0
0
ARC
8
0
6
CONTINUOUS
10
32.29
20
10.3
30
0
40
0.5
50
270.0
51
0.0
0
LINE
8
0
6
CONTINUOUS
10
32.79
20
10.3
30
0
11
32.83
21
11.38
31
0
0
LINE
8
0
6
CONTINUOUS
10
32.83
20
11.38
30
0
11
35.49
21
11.41
31
0
0
ARC
8
0
6
CONTINUOUS
10
35.49
20
11.91
30
0
40
0.5
50
270.0
51
0.0
0
LINE
8
0
6
CONTINUOUS
10
36.0
20
11.91
30
0
11
36.0
21
15.24
31
0
0
ARC
8
0
6
CONTINUOUS
10
34.99001809003101
20
15.233985040751753
30
0
40
1.0
50
0.3446338570159885
51
120.00119683403454
0
LINE
8
0
6
CONTINUOUS
10
34.49
20
16.1
30
0
11
30.83
21
13.99
31
0
0
ARC
8
0
6
CONTINUOUS
10
31.58135102907983
20
12.691742848623326
30
0
40
1.5
50
120.05960682142859
51
150.9544513004011
0
LINE
8
0
6
CONTINUOUS
10
30.27
20
13.42
30
0
11
29.76
21
12.51
31
0
0
ARC
8
0
6
CONTINUOUS
10
28.887874643824908
20
12.999282498273203
30
0
40
1.0
50
267.82942360266446
51
330.70656682712104
0
LINE
8
0
6
CONTINUOUS
10
28.85
20
12.0
30
0
11
10.61
21
12.0
31
0
0
ARC
8
0
6
CONTINUOUS
10
10.611723267515462
20
12.999998515173433
30
0
40
1.0
50
209.3404839817398
51
269.9012639955234
0
LINE
8
0
6
CONTINUOUS
10
9.74
20
12.51
30
0
11
9.23
21
13.42
31
0
0
ARC
8
0
6
CONTINUOUS
10
7.918648970920169
20
12.691742848623324
30
0
40
1.5
50
29.045548699598964
51
59.94039317857148
0
LINE
8
0
6
CONTINUOUS
10
8.67
20
13.99
30
0
11
5.01
21
16.1
31
0
0
ARC
8
0
6
CONTINUOUS
10
4.509981909968996
20
15.233985040751753
30
0
40
1.0
50
59.99880316596555
51
179.655366142984
0
LINE
8
0
6
CONTINUOUS
10
3.5
20
15.24
30
0
11
3.5
21
11.91
31
0
0
ARC
8
0
6
CONTINUOUS
10
4.01
20
11.91
30
0
40
0.5
50
180.0
51
270.0
0
LINE
8
0
6
CONTINUOUS
10
4.01
20
11.41
30
0
11
6.71
21
11.38
31
0
0
LINE
8
0
6
CONTINUOUS
10
6.71
20
11.38
30
0
11
6.71
21
10.3
31
0
0
ARC
8
0
6
CONTINUOUS
10
7.21
20
10.3
30
0
40
0.5
50
180.0
51
270.0
0
LINE
8
0
6
CONTINUOUS
10
7.21
20
9.8
30
0
11
8.25
21
9.8
31
0
0
LINE
8
0
6
CONTINUOUS
10
8.25
20
9.8
30
0
11
8.25
21
5.5
31
0
0
ARC
8
0
6
CONTINUOUS
10
8.75
20
5.5
30
0
40
0.5
50
180.0
51
270.0
0
LINE
8
0
6
CONTINUOUS
10
8.75
20
5.0
30
0
11
9.58
21
5.0
31
0
0
ARC
8
0
6
CONTINUOUS
10
9.5843887904976
20
5.999990369212608
30
0
40
1.0
50
269.7485400200673
51
344.93050931099987
0
LINE
8
0
6
CONTINUOUS
10
10.55
20
5.74
30
0
11
10.75
21
6.5
31
0
0
LINE
8
0
6
CONTINUOUS
10
10.75
20
6.5
30
0
11
9.75
21
6.5
31
0
0
LINE
8
0
6
CONTINUOUS
10
9.75
20
6.5
30
0
11
9.75
21
8.8
31
0
0
ARC
8
0
6
CONTINUOUS
10
10.75
20
8.8
30
0
40
1.0
50
90.0
51
180.0
0
LINE
8
0
6
CONTINUOUS
10
10.75
20
9.8
30
0
11
13.75
21
9.8
31
0
0
ARC
8
0
6
CONTINUOUS
10
13.75
20
8.8
30
0
40
1.0
50
0.0
51
90.0
0
LINE
8
0
6
CONTINUOUS
10
14.75
20
8.8
30
0
11
14.75
21
6.5
31
0
0
LINE
8
0
6
CONTINUOUS
10
14.75
20
6.5
30
0
11
13.75
21
6.5
31
0
0
LINE
8
0
6
CONTINUOUS
10
13.75
20
6.5
30
0
11
13.95
21
5.74
31
0
0
ARC
8
0
6
CONTINUOUS
10
14.915636387879228
20
5.999896838002223
30
0
40
1.0
50
195.06394096703707
51
270.8230026541438
0
LINE
8
0
6
CONTINUOUS
10
14.93
20
5.0
30
0
11
15.75
21
5.0
31
0
0
ARC
8
0
6
CONTINUOUS
10
15.75
20
5.5
30
0
40
0.5
50
270.0
51
0.0
0
LINE
8
0
6
CONTINUOUS
10
16.25
20
5.5
30
0
11
16.25
21
9.8
31
0
0
LINE
8
0
6
CONTINUOUS
10
-3.7
20
2.25
30
0
11
-3.7
21
-0.15
31
0
0
ARC
8
0
6
CONTINUOUS
10
-3.7000000074505808
20
-0.6499999999999999
30
0
40
0.5
50
270.00000085377366
51
89.99999914622636
0
LINE
8
0
6
CONTINUOUS
10
-3.7
20
-1.15
30
0
11
-5.0
21
-1.15
31
0
0
LINE
8
0
6
CONTINUOUS
10
-5.0
20
-1.15
30
0
11
-5.0
21
-0.14
31
0
0
LINE
8
0
6
CONTINUOUS
10
-5.0
20
-0.14
30
0
11
-5.81
21
-0.53
31
0
0
LINE
8
0
6
CONTINUOUS
10
-5.81
20
-0.53
30
0
11
-7.0
21
-1.73
31
0
0
LINE
8
0
6
CONTINUOUS
10
-7.0
20
-1.73
30
0
11
-7.0
21
-3.78
31
0
0
LINE
8
0
6
CONTINUOUS
10
-7.0
20
-3.78
30
0
11
-5.81
21
-4.97
31
0
0
LINE
8
0
6
CONTINUOUS
10
-5.81
20
-4.97
30
0
11
-5.0
21
-5.4
31
0
0
LINE
8
0
6
CONTINUOUS
10
-5.0
20
-5.4
30
0
11
-5.0
21
-4.35
31
0
0
LINE
8
0
6
CONTINUOUS
10
-5.0
20
-4.35
30
0
11
-3.7
21
-4.35
31
0
0
ARC
8
0
6
CONTINUOUS
10
-3.7
20
-4.85
30
0
40
0.5
50
270.0
51
90.0
0
LINE
8
0
6
CONTINUOUS
10
-3.7
20
-5.35
30
0
11
-3.7
21
-7.25
31
0
0
LINE
8
0
6
CONTINUOUS
10
-3.7
20
-7.25
30
0
11
-4.6
21
-7.25
31
0
0
LINE
8
0
6
CONTINUOUS
10
-4.6
20
-7.25
30
0
11
-3.24
21
-7.73
31
0
0
ARC
8
0
6
CONTINUOUS
10
-3.4145504425887747
20
-9.973219147339837
30
0
40
2.25
50
6.718204379825211
51
85.5506388821288
0
LINE
8
0
6
CONTINUOUS
10
-1.18
20
-9.71
30
0
11
-1.06
21
-10.79
31
0
0
ARC
8
0
6
CONTINUOUS
10
-0.635
20
-10.855383484153108
30
0
40
0.43
50
171.25398671675865
51
8.746013283241343
0
LINE
8
0
6
CONTINUOUS
10
-0.21
20
-10.79
30
0
11
-0.21
21
-8.4
31
0
0
ARC
8
0
6
CONTINUOUS
10
-2.6099852140393613
20
-8.391575488593395
30
0
40
2.4
50
359.7988791919527
51
47.2219232108493
0
LINE
8
0
6
CONTINUOUS
10
-0.98
20
-6.63
30
0
11
-1.54
21
-5.95
31
0
0
LINE
8
0
6
CONTINUOUS
10
-1.54
20
-5.95
30
0
11
-0.22
21
-4.75
31
0
0
LINE
8
0
6
CONTINUOUS
10
-0.22
20
-4.75
30
0
11
-1.39
21
-3.76
31
0
0
LINE
8
0
6
CONTINUOUS
10
-1.39
20
-3.76
30
0
11
-0.22
21
-2.7
31
0
0
LINE
8
0
6
CONTINUOUS
10
-0.22
20
-2.7
30
0
11
-1.39
21
-1.71
31
0
0
LINE
8
0
6
CONTINUOUS
10
-1.39
20
-1.71
30
0
11
-0.22
21
-0.75
31
0
0
LINE
8
0
6
CONTINUOUS
10
-0.22
20
-0.75
30
0
11
-1.39
21
0.25
31
0
0
LINE
8
0
6
CONTINUOUS
10
-1.39
20
0.25
30
0
11
-0.2
21
1.22
31
0
0
LINE
8
0
6
CONTINUOUS
10
-0.2
20
1.22
30
0
11
-1.4
21
2.25
31
0
0
LINE
8
0
6
CONTINUOUS
10
-1.4
20
2.25
30
0
11
-3.7
21
2.25
31
0
0
LINE
8
0
6
CONTINUOUS
10
-5.8
20
-3.55
30
0
11
-5.8
21
-1.95
31
0
0
LINE
8
0
6
CONTINUOUS
10
-5.8
20
-1.95
30
0
11
-2.9
21
-1.95
31
0
0
LINE
8
0
6
CONTINUOUS
10
-2.9
20
-1.95
30
0
11
-2.9
21
-3.55
31
0
0
LINE
8
0
6
CONTINUOUS
10
-2.9
20
-3.55
30
0
11
-5.8
21
-3.55
31
0
0
LINE
8
0
6
CONTINUOUS
10
-9.0
20
42.8
30
0
11
-9.0
21
137.57
31
0
0
LINE
8
0
6
CONTINUOUS
10
13.41
20
30.6
30
0
11
20.22
21
30.6
31
0
0
LINE
8
0
6
CONTINUOUS
10
20.22
20
30.6
30
0
11
33.87
21
26.16
31
0
0
ARC
8
0
6
CONTINUOUS
10
34.22449770065084
20
27.09505688609478
30
0
40
1.0
50
249.2373372390079
51
333.57302162122903
0
LINE
8
0
6
CONTINUOUS
10
35.12
20
26.65
30
0
11
35.98
21
28.15
31
0
0
ARC
8
0
6
CONTINUOUS
10
35.54699252037587
20
28.4000090450155
30
0
40
0.5
50
329.9988031659654
51
89.65536614298402
0
LINE
8
0
6
CONTINUOUS
10
35.55
20
28.9
30
0
11
34.75
21
28.9
31
0
0
LINE
8
0
6
CONTINUOUS
10
34.75
20
28.9
30
0
11
34.75
21
30.6
31
0
0
LINE
8
0
6
CONTINUOUS
10
34.75
20
30.6
30
0
11
33.8
21
30.6
31
0
0
ARC
8
0
6
CONTINUOUS
10
33.797525521224365
20
31.59999693847271
30
0
40
1.0
50
204.83439420287334
51
270.1417773350235
0
LINE
8
0
6
CONTINUOUS
10
32.89
20
31.18
30
0
11
28.84
21
39.87
31
0
0
ARC
8
0
6
CONTINUOUS
10
26.12207766347223
20
38.60000071944767
30
0
40
3.0
50
25.045199195294018
51
90.0396804525744
0
LINE
8
0
6
CONTINUOUS
10
26.12
20
41.6
30
0
11
10.93
21
41.6
31
0
0
ARC
8
0
6
CONTINUOUS
10
10.929099139757174
20
42.09999918845016
30
0
40
0.5
50
176.56009406787135
51
270.1032310355415
0
LINE
8
0
6
CONTINUOUS
10
10.43
20
42.13
30
0
11
10.73
21
47.46
31
0
0
ARC
8
0
6
CONTINUOUS
10
11.14031861553723
20
47.33139738049476
30
0
40
0.43
50
21.644298348871327
51
162.5978944444517
0
LINE
8
0
6
CONTINUOUS
10
11.54
20
47.49
30
0
11
11.24
21
45.38
31
0
0
LINE
8
0
6
CONTINUOUS
10
11.24
20
45.38
30
0
11
11.61
21
42.79
31
0
0
ARC
8
0
6
CONTINUOUS
10
12.020250163724844
20
42.74014860900327
30
0
40
0.41326790102858346
50
173.07169279582445
51
327.8118041301812
0
ARC
8
0
6
CONTINUOUS
10
10.407967823328994
20
44.78945582413663
30
0
40
3.0
50
310.8446804266841
51
18.070162348523443
0
LINE
8
0
6
CONTINUOUS
10
13.26
20
45.72
30
0
11
12.63
21
47.97
31
0
0
ARC
8
0
6
CONTINUOUS
10
11.855447547698363
20
47.8145377903363
30
0
40
0.79
50
11.349169583463791
51
83.85595482153575
0
LINE
8
0
6
CONTINUOUS
10
11.94
20
48.6
30
0
11
10.89
21
48.6
31
0
0
ARC
8
0
6
CONTINUOUS
10
11.016597470665104
20
47.41675316166863
30
0
40
1.19
50
96.10693530634575
51
161.2126812018351
0
LINE
8
0
6
CONTINUOUS
10
9.89
20
47.8
30
0
11
9.25
21
45.55
31
0
0
LINE
8
0
6
CONTINUOUS
10
9.25
20
45.55
30
0
11
5.93
21
37.1
31
0
0
LINE
8
0
6
CONTINUOUS
10
5.93
20
37.1
30
0
11
1.65
21
26.59
31
0
0
ARC
8
0
6
CONTINUOUS
10
2.4391252877245106
20
26.627165579152066
30
0
40
0.79
50
182.69647734248963
51
328.12568519176114
0
LINE
8
0
6
CONTINUOUS
10
3.11
20
26.21
30
0
11
4.65
21
29.98
31
0
0
ARC
8
0
6
CONTINUOUS
10
5.574991638719997
20
29.600012541920005
30
0
40
1.0
50
89.71304083670512
51
157.66709421525445
0
LINE
8
0
6
CONTINUOUS
10
5.58
20
30.6
30
0
11
10.61
21
30.6
31
0
0
LINE
8
0
6
CONTINUOUS
10
10.61
20
30.6
30
0
11
10.61
21
28.82
31
0
0
ARC
8
0
6
CONTINUOUS
10
10.435040741037229
20
28.340949629263065
30
0
40
0.51
50
69.93674453367463
51
187.99674945392425
0
LINE
8
0
6
CONTINUOUS
10
9.93
20
28.27
30
0
11
10.78
21
27.0
31
0
0
ARC
8
0
6
CONTINUOUS
10
11.643260397631936
20
27.504758839328595
30
0
40
1.0
50
210.3153448902431
51
257.09939565279774
0
LINE
8
0
6
CONTINUOUS
10
11.42
20
26.53
30
0
11
12.6
21
26.53
31
0
0
ARC
8
0
6
CONTINUOUS
10
12.376739602368064
20
27.504758839328595
30
0
40
1.0
50
282.90060434720226
51
329.68465510975693
0
LINE
8
0
6
CONTINUOUS
10
13.24
20
27.0
30
0
11
14.09
21
28.27
31
0
0
ARC
8
0
6
CONTINUOUS
10
13.606783281278133
20
28.351250247677605
30
0
40
0.49
50
350.455310822875
51
113.67814860992705
0
LINE
8
0
6
CONTINUOUS
10
13.41
20
28.8
30
0
11
13.41
21
30.6
31
0
0
LINE
8
0
6
CONTINUOUS
10
27.48
20
39.23
30
0
11
32.28
21
28.93
31
0
0
ARC
8
0
6
CONTINUOUS
10
31.82358644872045
20
28.725826862177243
30
0
40
0.5
50
252.11106151214565
51
24.10099267908723
0
LINE
8
0
6
CONTINUOUS
10
31.67
20
28.25
30
0
11
22.11
21
31.35
31
0
0
LINE
8
0
6
CONTINUOUS
10
22.11
20
31.35
30
0
11
22.11
21
39.6
31
0
0
ARC
8
0
6
CONTINUOUS
10
22.61
20
39.6
30
0
40
0.5
50
90.0
51
180.0
0
LINE
8
0
6
CONTINUOUS
10
22.61
20
40.1
30
0
11
26.12
21
40.1
31
0
0
ARC
8
0
6
CONTINUOUS
10
26.118713588167758
20
38.60000055161857
30
0
40
1.5
50
24.834564272383822
51
89.95086268150783
0
LINE
8
0
6
CONTINUOUS
10
20.31
20
31.9
30
0
11
13.61
21
31.9
31
0
0
ARC
8
0
6
CONTINUOUS
10
13.61
20
32.4
30
0
40
0.5
50
180.0
51
270.0
0
LINE
8
0
6
CONTINUOUS
10
13.11
20
32.4
30
0
11
13.11
21
39.6
31
0
0
ARC
8
0
6
CONTINUOUS
10
13.61
20
39.6
30
0
40
0.5
50
90.0
51
180.0
0
LINE
8
0
6
CONTINUOUS
10
13.61
20
40.1
30
0
11
20.31
21
40.1
31
0
0
ARC
8
0
6
CONTINUOUS
10
20.31
20
39.6
30
0
40
0.5
50
0.0
51
90.0
0
LINE
8
0
6
CONTINUOUS
10
20.81
20
39.6
30
0
11
20.81
21
32.4
31
0
0
ARC
8
0
6
CONTINUOUS
10
20.31
20
32.4
30
0
40
0.5
50
270.0
51
0.0
0
LINE
8
0
6
CONTINUOUS
10
10.91
20
39.6
30
0
11
10.91
21
32.3
31
0
0
ARC
8
0
6
CONTINUOUS
10
10.41
20
32.3
30
0
40
0.5
50
270.0
51
0.0
0
LINE
8
0
6
CONTINUOUS
10
10.41
20
31.8
30
0
11
6.14
21
31.8
31
0
0
ARC
8
0
6
CONTINUOUS
10
6.132469943778978
20
32.299943295037856
30
0
40
0.5
50
157.65929229503584
51
270.8629135031532
0
LINE
8
0
6
CONTINUOUS
10
5.67
20
32.49
30
0
11
8.78
21
40.1
31
0
0
LINE
8
0
6
CONTINUOUS
10
8.78
20
40.1
30
0
11
10.41
21
40.1
31
0
0
ARC
8
0
6
CONTINUOUS
10
10.41
20
39.6
30
0
40
0.5
50
0.0
51
90.0
0
LINE
8
0
6
CONTINUOUS
10
12.51
20
30.16
30
0
11
12.79
21
28.48
31
0
0
ARC
8
0
6
CONTINUOUS
10
12.01
20
28.479999968389865
30
0
40
0.78
50
179.9999976780419
51
2.3219581060302567e-06
0
LINE
8
0
6
CONTINUOUS
10
11.23
20
28.48
30
0
11
11.51
21
30.16
31
0
0
ARC
8
0
6
CONTINUOUS
10
12.01
20
30.16
30
0
40
0.5
50
0.0
51
180.0
0
LINE
8
0
6
CONTINUOUS
10
66.0
20
25.6
30
0
11
66.0
21
75.6
31
0
0
LINE
8
0
6
CONTINUOUS
10
66.0
20
75.6
30
0
11
45.0
21
75.6
31
0
0
LINE
8
0
6
CONTINUOUS
10
45.0
20
75.6
30
0
11
45.0
21
73.3
31
0
0
LINE
8
0
6
CONTINUOUS
10
45.0
20
73.3
30
0
11
46.0
21
73.3
31
0
0
LINE
8
0
6
CONTINUOUS
10
46.0
20
73.3
30
0
11
46.0
21
74.3
31
0
0
LINE
8
0
6
CONTINUOUS
10
46.0
20
74.3
30
0
11
48.5
21
74.3
31
0
0
LINE
8
0
6
CONTINUOUS
10
48.5
20
74.3
30
0
11
48.5
21
68.3
31
0
0
LINE
8
0
6
CONTINUOUS
10
48.5
20
68.3
30
0
11
46.0
21
68.3
31
0
0
LINE
8
0
6
CONTINUOUS
10
46.0
20
68.3
30
0
11
46.0
21
69.3
31
0
0
LINE
8
0
6
CONTINUOUS
10
46.0
20
69.3
30
0
11
45.0
21
69.3
31
0
0
LINE
8
0
6
CONTINUOUS
10
45.0
20
69.3
30
0
11
45.0
21
67.0
31
0
0
LINE
8
0
6
CONTINUOUS
10
45.0
20
67.0
30
0
11
48.5
21
67.0
31
0
0
LINE
8
0
6
CONTINUOUS
10
48.5
20
67.0
30
0
11
48.5
21
60.6
31
0
0
LINE
8
0
6
CONTINUOUS
10
48.5
20
60.6
30
0
11
28.71
21
60.6
31
0
0
LINE
8
0
6
CONTINUOUS
10
28.71
20
60.6
30
0
11
29.55
21
59.14
31
0
0
LINE
8
0
6
CONTINUOUS
10
29.55
20
59.14
30
0
11
30.09
21
57.27
31
0
0
LINE
8
0
6
CONTINUOUS
10
30.09
20
57.27
30
0
11
33.5
21
59.26
31
0
0
LINE
8
0
6
CONTINUOUS
10
33.5
20
59.26
30
0
11
33.5
21
47.08
31
0
0
LINE
8
0
6
CONTINUOUS
10
33.5
20
47.08
30
0
11
30.64
21
48.36
31
0
0
LINE
8
0
6
CONTINUOUS
10
30.64
20
48.36
30
0
11
29.53
21
45.6
31
0
0
LINE
8
0
6
CONTINUOUS
10
29.53
20
45.6
30
0
11
39.0
21
45.6
31
0
0
LINE
8
0
6
CONTINUOUS
10
39.0
20
45.6
30
0
11
39.0
21
47.4
31
0
0
LINE
8
0
6
CONTINUOUS
10
39.0
20
47.4
30
0
11
36.0
21
47.4
31
0
0
LINE
8
0
6
CONTINUOUS
10
36.0
20
47.4
30
0
11
36.0
21
52.6
31
0
0
LINE
8
0
6
CONTINUOUS
10
36.0
20
52.6
30
0
11
64.0
21
52.6
31
0
0
LINE
8
0
6
CONTINUOUS
10
64.0
20
52.6
30
0
11
64.0
21
48.9
31
0
0
LINE
8
0
6
CONTINUOUS
10
64.0
20
48.9
30
0
11
60.0
21
48.9
31
0
0
LINE
8
0
6
CONTINUOUS
10
60.0
20
48.9
30
0
11
60.0
21
47.4
31
0
0
LINE
8
0
6
CONTINUOUS
10
60.0
20
47.4
30
0
11
57.0
21
47.4
31
0
0
LINE
8
0
6
CONTINUOUS
10
57.0
20
47.4
30
0
11
57.0
21
45.6
31
0
0
LINE
8
0
6
CONTINUOUS
10
57.0
20
45.6
30
0
11
62.5
21
45.6
31
0
0
LINE
8
0
6
CONTINUOUS
10
62.5
20
45.6
30
0
11
62.5
21
46.9
31
0
0
LINE
8
0
6
CONTINUOUS
10
62.5
20
46.9
30
0
11
64.0
21
46.9
31
0
0
LINE
8
0
6
CONTINUOUS
10
64.0
20
46.9
30
0
11
64.0
21
34.6
31
0
0
LINE
8
0
6
CONTINUOUS
10
64.0
20
34.6
30
0
11
62.5
21
34.6
31
0
0
LINE
8
0
6
CONTINUOUS
10
62.5
20
34.6
30
0
11
62.5
21
35.87
31
0
0
LINE
8
0
6
CONTINUOUS
10
62.5
20
35.87
30
0
11
61.5
21
35.87
31
0
0
LINE
8
0
6
CONTINUOUS
10
61.5
20
35.87
30
0
11
61.5
21
32.1
31
0
0
LINE
8
0
6
CONTINUOUS
10
61.5
20
32.1
30
0
11
62.5
21
32.1
31
0
0
LINE
8
0
6
CONTINUOUS
10
62.5
20
32.1
30
0
11
62.5
21
33.1
31
0
0
LINE
8
0
6
CONTINUOUS
10
62.5
20
33.1
30
0
11
64.5
21
33.1
31
0
0
LINE
8
0
6
CONTINUOUS
10
64.5
20
33.1
30
0
11
64.5
21
27.1
31
0
0
LINE
8
0
6
CONTINUOUS
10
64.5
20
27.1
30
0
11
62.5
21
27.1
31
0
0
LINE
8
0
6
CONTINUOUS
10
62.5
20
27.1
30
0
11
62.5
21
28.1
31
0
0
LINE
8
0
6
CONTINUOUS
10
62.5
20
28.1
30
0
11
61.5
21
28.1
31
0
0
LINE
8
0
6
CONTINUOUS
10
61.5
20
28.1
30
0
11
61.5
21
25.6
31
0
0
LINE
8
0
6
CONTINUOUS
10
61.5
20
25.6
30
0
11
66.0
21
25.6
31
0
0
LINE
8
0
6
CONTINUOUS
10
35.3
20
58.8
30
0
11
50.7
21
58.8
31
0
0
LINE
8
0
6
CONTINUOUS
10
50.7
20
58.8
30
0
11
50.7
21
73.4
31
0
0
LINE
8
0
6
CONTINUOUS
10
50.7
20
73.4
30
0
11
60.8
21
73.4
31
0
0
LINE
8
0
6
CONTINUOUS
10
60.8
20
73.4
30
0
11
60.8
21
54.4
31
0
0
LINE
8
0
6
CONTINUOUS
10
60.8
20
54.4
30
0
11
35.3
21
54.4
31
0
0
LINE
8
0
6
CONTINUOUS
10
35.3
20
54.4
30
0
11
35.3
21
58.8
31
0
0
LINE
8
0
6
CONTINUOUS
10
3.0
20
47.8
30
0
11
-3.11
21
47.8
31
0
0
LINE
8
0
6
CONTINUOUS
10
-3.11
20
47.8
30
0
11
-5.2
21
46.31
31
0
0
LINE
8
0
6
CONTINUOUS
10
-5.2
20
46.31
30
0
11
-5.2
21
45.1
31
0
0
LINE
8
0
6
CONTINUOUS
10
-5.2
20
45.1
30
0
11
-7.0
21
45.1
31
0
0
LINE
8
0
6
CONTINUOUS
10
-7.0
20
45.1
30
0
11
-7.0
21
61.0
31
0
0
LINE
8
0
6
CONTINUOUS
10
-7.0
20
61.0
30
0
11
-5.0
21
61.0
31
0
0
LINE
8
0
6
CONTINUOUS
10
-5.0
20
61.0
30
0
11
-5.0
21
59.46
31
0
0
LINE
8
0
6
CONTINUOUS
10
-5.0
20
59.46
30
0
11
-4.0
21
59.46
31
0
0
LINE
8
0
6
CONTINUOUS
10
-4.0
20
59.46
30
0
11
-4.0
21
63.3
31
0
0
LINE
8
0
6
CONTINUOUS
10
-4.0
20
63.3
30
0
11
-5.0
21
63.3
31
0
0
LINE
8
0
6
CONTINUOUS
10
-5.0
20
63.3
30
0
11
-5.0
21
62.3
31
0
0
LINE
8
0
6
CONTINUOUS
10
-5.0
20
62.3
30
0
11
-7.5
21
62.3
31
0
0
LINE
8
0
6
CONTINUOUS
10
-7.5
20
62.3
30
0
11
-7.5
21
68.3
31
0
0
LINE
8
0
6
CONTINUOUS
10
-7.5
20
68.3
30
0
11
-5.0
21
68.3
31
0
0
LINE
8
0
6
CONTINUOUS
10
-5.0
20
68.3
30
0
11
-5.0
21
67.3
31
0
0
LINE
8
0
6
CONTINUOUS
10
-5.0
20
67.3
30
0
11
-4.0
21
67.3
31
0
0
LINE
8
0
6
CONTINUOUS
10
-4.0
20
67.3
30
0
11
-4.0
21
69.6
31
0
0
LINE
8
0
6
CONTINUOUS
10
-4.0
20
69.6
30
0
11
-9.0
21
69.6
31
0
0
LINE
8
0
6
CONTINUOUS
10
-9.0
20
69.6
30
0
11
-9.0
21
43.1
31
0
0
LINE
8
0
6
CONTINUOUS
10
-9.0
20
43.1
30
0
11
-4.0
21
43.1
31
0
0
LINE
8
0
6
CONTINUOUS
10
-4.0
20
43.1
30
0
11
-4.0
21
33.8
31
0
0
LINE
8
0
6
CONTINUOUS
10
-4.0
20
33.8
30
0
11
3.0
21
33.8
31
0
0
LINE
8
0
6
CONTINUOUS
10
3.0
20
33.8
30
0
11
3.0
21
47.8
31
0
0
LINE
8
0
6
CONTINUOUS
10
1.5
20
35.3
30
0
11
-2.5
21
35.3
31
0
0
LINE
8
0
6
CONTINUOUS
10
-2.5
20
35.3
30
0
11
-2.5
21
46.3
31
0
0
LINE
8
0
6
CONTINUOUS
10
-2.5
20
46.3
30
0
11
1.5
21
46.3
31
0
0
LINE
8
0
6
CONTINUOUS
10
1.5
20
46.3
30
0
11
1.5
21
35.3
31
0
0
LINE
8
0
6
CONTINUOUS
10
8.2
20
58.8
30
0
11
8.2
21
53.4
31
0
0
LINE
8
0
6
CONTINUOUS
10
8.2
20
53.4
30
0
11
3.0
21
53.4
31
0
0
LINE
8
0
6
CONTINUOUS
10
3.0
20
53.4
30
0
11
3.0
21
58.8
31
0
0
LINE
8
0
6
CONTINUOUS
10
3.0
20
58.8
30
0
11
8.2
21
58.8
31
0
0
LINE
8
0
6
CONTINUOUS
10
14.29
20
60.6
30
0
11
1.7
21
60.6
31
0
0
LINE
8
0
6
CONTINUOUS
10
1.7
20
60.6
30
0
11
1.7
21
54.3
31
0
0
LINE
8
0
6
CONTINUOUS
10
1.7
20
54.3
30
0
11
-0.4
21
54.3
31
0
0
LINE
8
0
6
CONTINUOUS
10
-0.4
20
54.3
30
0
11
-0.4
21
60.6
31
0
0
LINE
8
0
6
CONTINUOUS
10
-0.4
20
60.6
30
0
11
-1.5
21
60.6
31
0
0
LINE
8
0
6
CONTINUOUS
10
-1.5
20
60.6
30
0
11
-2.0
21
58.73
31
0
0
LINE
8
0
6
CONTINUOUS
10
-2.0
20
58.73
30
0
11
-2.0
21
52.89
31
0
0
LINE
8
0
6
CONTINUOUS
10
-2.0
20
52.89
30
0
11
6.41
21
51.4
31
0
0
LINE
8
0
6
CONTINUOUS
10
6.41
20
51.4
30
0
11
8.02
21
51.4
31
0
0
ARC
8
0
6
CONTINUOUS
10
9.503241025283854
20
51.9999967174201
30
0
40
1.6
50
202.02418603495477
51
269.8839392518419
0
LINE
8
0
6
CONTINUOUS
10
9.5
20
50.4
30
0
11
13.47
21
50.4
31
0
0
LINE
8
0
6
CONTINUOUS
10
13.47
20
50.4
30
0
11
12.35
21
53.16
31
0
0
LINE
8
0
6
CONTINUOUS
10
12.35
20
53.16
30
0
11
9.5
21
51.88
31
0
0
LINE
8
0
6
CONTINUOUS
10
9.5
20
51.88
30
0
11
9.5
21
59.26
31
0
0
LINE
8
0
6
CONTINUOUS
10
9.5
20
59.26
30
0
11
12.91
21
57.28
31
0
0
LINE
8
0
6
CONTINUOUS
10
12.91
20
57.28
30
0
11
13.45
21
59.14
31
0
0
LINE
8
0
6
CONTINUOUS
10
13.45
20
59.14
30
0
11
14.29
21
60.6
31
0
0
LINE
8
0
6
CONTINUOUS
10
0.7
20
61.48
30
0
11
-0.4
21
63.39
31
0
0
LINE
8
0
6
CONTINUOUS
10
-0.4
20
63.39
30
0
11
-0.4
21
70.14
31
0
0
LINE
8
0
6
CONTINUOUS
10
-0.4
20
70.14
30
0
11
2.5
21
70.14
31
0
0
LINE
8
0
6
CONTINUOUS
10
2.5
20
70.14
30
0
11
2.5
21
72.14
31
0
0
LINE
8
0
6
CONTINUOUS
10
2.5
20
72.14
30
0
11
0.5
21
72.14
31
0
0
LINE
8
0
6
CONTINUOUS
10
0.5
20
72.14
30
0
11
0.5
21
74.12
31
0
0
LINE
8
0
6
CONTINUOUS
10
0.5
20
74.12
30
0
11
-0.4
21
74.12
31
0
0
LINE
8
0
6
CONTINUOUS
10
-0.4
20
74.12
30
0
11
-2.0
21
71.14
31
0
0
LINE
8
0
6
CONTINUOUS
10
-2.0
20
71.14
30
0
11
-2.0
21
60.6
31
0
0
LINE
8
0
6
CONTINUOUS
10
-2.0
20
60.6
30
0
11
-0.4
21
60.6
31
0
0
LINE
8
0
6
CONTINUOUS
10
-0.4
20
60.6
30
0
11
-0.4
21
54.3
31
0
0
LINE
8
0
6
CONTINUOUS
10
-0.4
20
54.3
30
0
11
0.7
21
54.3
31
0
0
LINE
8
0
6
CONTINUOUS
10
0.7
20
54.3
30
0
11
0.7
21
61.48
31
0
0
LINE
8
0
6
CONTINUOUS
10
30.16
20
52.63
30
0
11
27.02
21
47.2
31
0
0
LINE
8
0
6
CONTINUOUS
10
27.02
20
47.2
30
0
11
23.45
21
47.2
31
0
0
LINE
8
0
6
CONTINUOUS
10
23.45
20
47.2
30
0
11
23.45
21
59.0
31
0
0
LINE
8
0
6
CONTINUOUS
10
23.45
20
59.0
30
0
11
26.48
21
59.0
31
0
0
LINE
8
0
6
CONTINUOUS
10
26.48
20
59.0
30
0
11
30.16
21
52.63
31
0
0
LINE
8
0
6
CONTINUOUS
10
21.85
20
59.0
30
0
11
21.85
21
47.58
31
0
0
LINE
8
0
6
CONTINUOUS
10
21.85
20
47.58
30
0
11
16.14
21
51.73
31
0
0
LINE
8
0
6
CONTINUOUS
10
16.14
20
51.73
30
0
11
14.23
21
55.03
31
0
0
LINE
8
0
6
CONTINUOUS
10
14.23
20
55.03
30
0
11
16.52
21
59.0
31
0
0
LINE
8
0
6
CONTINUOUS
10
16.52
20
59.0
30
0
11
21.85
21
59.0
31
0
0
LINE
8
0
6
CONTINUOUS
10
28.71
20
60.6
30
0
11
14.29
21
60.6
31
0
0
LINE
8
0
6
CONTINUOUS
10
14.29
20
60.6
30
0
11
13.45
21
59.14
31
0
0
LINE
8
0
6
CONTINUOUS
10
13.45
20
59.14
30
0
11
12.91
21
57.28
31
0
0
LINE
8
0
6
CONTINUOUS
10
12.91
20
57.28
30
0
11
9.5
21
59.26
31
0
0
LINE
8
0
6
CONTINUOUS
10
9.5
20
59.26
30
0
11
9.5
21
51.88
31
0
0
LINE
8
0
6
CONTINUOUS
10
9.5
20
51.88
30
0
11
12.35
21
53.16
31
0
0
LINE
8
0
6
CONTINUOUS
10
12.35
20
53.16
30
0
11
13.85
21
49.46
31
0
0
LINE
8
0
6
CONTINUOUS
10
13.85
20
49.46
30
0
11
13.85
21
45.7
31
0
0
ARC
8
0
6
CONTINUOUS
10
14.85
20
45.7
30
0
40
1.0
50
180.0
51
0.0
0
LINE
8
0
6
CONTINUOUS
10
15.85
20
45.7
30
0
11
15.85
21
49.96
31
0
0
LINE
8
0
6
CONTINUOUS
10
15.85
20
49.96
30
0
11
21.85
21
45.6
31
0
0
LINE
8
0
6
CONTINUOUS
10
21.85
20
45.6
30
0
11
29.53
21
45.6
31
0
0
LINE
8
0
6
CONTINUOUS
10
29.53
20
45.6
30
0
11
30.64
21
48.36
31
0
0
LINE
8
0
6
CONTINUOUS
10
30.64
20
48.36
30
0
11
33.5
21
47.08
31
0
0
LINE
8
0
6
CONTINUOUS
10
33.5
20
47.08
30
0
11
33.5
21
59.26
31
0
0
LINE
8
0
6
CONTINUOUS
10
33.5
20
59.26
30
0
11
30.09
21
57.27
31
0
0
LINE
8
0
6
CONTINUOUS
10
30.09
20
57.27
30
0
11
29.55
21
59.14
31
0
0
LINE
8
0
6
CONTINUOUS
10
29.55
20
59.14
30
0
11
28.71
21
60.6
31
0
0
LINE
8
0
6
CONTINUOUS
10
61.5
20
28.1
30
0
11
62.5
21
28.1
31
0
0
LINE
8
0
6
CONTINUOUS
10
62.5
20
28.1
30
0
11
62.5
21
27.1
31
0
0
LINE
8
0
6
CONTINUOUS
10
62.5
20
27.1
30
0
11
63.5
21
27.1
31
0
0
LINE
8
0
6
CONTINUOUS
10
63.5
20
27.1
30
0
11
64.42
21
28.29
31
0
0
LINE
8
0
6
CONTINUOUS
10
64.42
20
28.29
30
0
11
64.42
21
32.04
31
0
0
LINE
8
0
6
CONTINUOUS
10
64.42
20
32.04
30
0
11
63.43
21
33.1
31
0
0
LINE
8
0
6
CONTINUOUS
10
63.43
20
33.1
30
0
11
62.5
21
33.1
31
0
0
LINE
8
0
6
CONTINUOUS
10
62.5
20
33.1
30
0
11
62.5
21
32.1
31
0
0
LINE
8
0
6
CONTINUOUS
10
62.5
20
32.1
30
0
11
61.5
21
32.1
31
0
0
LINE
8
0
6
CONTINUOUS
10
61.5
20
32.1
30
0
11
61.5
21
33.42
31
0
0
LINE
8
0
6
CONTINUOUS
10
61.5
20
33.42
30
0
11
59.56
21
31.86
31
0
0
LINE
8
0
6
CONTINUOUS
10
59.56
20
31.86
30
0
11
57.84
21
26.81
31
0
0
LINE
8
0
6
CONTINUOUS
10
57.84
20
26.81
30
0
11
56.9
21
27.16
31
0
0
LINE
8
0
6
CONTINUOUS
10
56.9
20
27.16
30
0
11
57.33
21
28.4
31
0
0
LINE
8
0
6
CONTINUOUS
10
57.33
20
28.4
30
0
11
56.55
21
28.67
31
0
0
LINE
8
0
6
CONTINUOUS
10
56.55
20
28.67
30
0
11
56.28
21
27.87
31
0
0
ARC
8
0
6
CONTINUOUS
10
57.70494707506712
20
27.401464160114028
30
0
40
1.5
50
161.7986545249677
51
253.94074242134513
0
LINE
8
0
6
CONTINUOUS
10
57.29
20
25.96
30
0
11
59.33
21
25.6
31
0
0
LINE
8
0
6
CONTINUOUS
10
59.33
20
25.6
30
0
11
61.5
21
25.6
31
0
0
LINE
8
0
6
CONTINUOUS
10
61.5
20
25.6
30
0
11
61.5
21
28.1
31
0
0
LINE
8
0
6
CONTINUOUS
10
58.57
20
26.52
30
0
11
60.15
21
30.8
31
0
0
LINE
8
0
6
CONTINUOUS
10
60.15
20
30.8
30
0
11
61.2
21
30.8
31
0
0
LINE
8
0
6
CONTINUOUS
10
61.2
20
30.8
30
0
11
61.2
21
28.4
31
0
0
LINE
8
0
6
CONTINUOUS
10
61.2
20
28.4
30
0
11
60.1
21
28.4
31
0
0
LINE
8
0
6
CONTINUOUS
10
60.1
20
28.4
30
0
11
60.1
21
26.25
31
0
0
LINE
8
0
6
CONTINUOUS
10
60.1
20
26.25
30
0
11
58.57
21
26.52
31
0
0
LINE
8
0
6
CONTINUOUS
10
61.9
20
28.79
30
0
11
61.9
21
31.22
31
0
0
LINE
8
0
6
CONTINUOUS
10
61.9
20
31.22
30
0
11
63.3
21
31.22
31
0
0
LINE
8
0
6
CONTINUOUS
10
63.3
20
31.22
30
0
11
63.3
21
28.79
31
0
0
LINE
8
0
6
CONTINUOUS
10
63.3
20
28.79
30
0
11
61.9
21
28.79
31
0
0
LINE
8
0
6
CONTINUOUS
10
33.21
20
80.67
30
0
11
34.82
21
78.1
31
0
0
LINE
8
0
6
CONTINUOUS
10
34.82
20
78.1
30
0
11
33.21
21
77.2
31
0
0
LINE
8
0
6
CONTINUOUS
10
33.21
20
77.2
30
0
11
34.42
21
76.22
31
0
0
LINE
8
0
6
CONTINUOUS
10
34.42
20
76.22
30
0
11
33.21
21
75.2
31
0
0
LINE
8
0
6
CONTINUOUS
10
33.21
20
75.2
30
0
11
34.39
21
74.24
31
0
0
LINE
8
0
6
CONTINUOUS
10
34.39
20
74.24
30
0
11
33.21
21
73.25
31
0
0
LINE
8
0
6
CONTINUOUS
10
33.21
20
73.25
30
0
11
34.44
21
72.25
31
0
0
LINE
8
0
6
CONTINUOUS
10
34.44
20
72.25
30
0
11
33.2
21
71.21
31
0
0
LINE
8
0
6
CONTINUOUS
10
33.2
20
71.21
30
0
11
34.42
21
70.23
31
0
0
LINE
8
0
6
CONTINUOUS
10
34.42
20
70.23
30
0
11
33.21
21
69.21
31
0
0
LINE
8
0
6
CONTINUOUS
10
33.21
20
69.21
30
0
11
34.4
21
68.25
31
0
0
LINE
8
0
6
CONTINUOUS
10
34.4
20
68.25
30
0
11
33.2
21
67.24
31
0
0
LINE
8
0
6
CONTINUOUS
10
33.2
20
67.24
30
0
11
34.4
21
66.2
31
0
0
LINE
8
0
6
CONTINUOUS
10
34.4
20
66.2
30
0
11
45.0
21
66.2
31
0
0
LINE
8
0
6
CONTINUOUS
10
45.0
20
66.2
30
0
11
45.0
21
69.3
31
0
0
LINE
8
0
6
CONTINUOUS
10
45.0
20
69.3
30
0
11
45.99
21
69.3
31
0
0
LINE
8
0
6
CONTINUOUS
10
45.99
20
69.3
30
0
11
45.99
21
68.3
31
0
0
LINE
8
0
6
CONTINUOUS
10
45.99
20
68.3
30
0
11
48.0
21
70.31
31
0
0
LINE
8
0
6
CONTINUOUS
10
48.0
20
70.31
30
0
11
48.0
21
72.23
31
0
0
LINE
8
0
6
CONTINUOUS
10
48.0
20
72.23
30
0
11
46.0
21
74.23
31
0
0
LINE
8
0
6
CONTINUOUS
10
46.0
20
74.23
30
0
11
46.0
21
73.3
31
0
0
LINE
8
0
6
CONTINUOUS
10
46.0
20
73.3
30
0
11
45.0
21
73.3
31
0
0
LINE
8
0
6
CONTINUOUS
10
45.0
20
73.3
30
0
11
45.0
21
75.6
31
0
0
LINE
8
0
6
CONTINUOUS
10
45.0
20
75.6
30
0
11
48.0
21
75.6
31
0
0
LINE
8
0
6
CONTINUOUS
10
48.0
20
75.6
30
0
11
48.0
21
76.56
31
0
0
ARC
8
0
6
CONTINUOUS
10
46.9981571288757
20
76.4318951149354
30
0
40
1.01
50
7.286824878767975
51
86.48955113471405
0
LINE
8
0
6
CONTINUOUS
10
47.06
20
77.44
30
0
11
40.38
21
77.79
31
0
0
ARC
8
0
6
CONTINUOUS
10
40.73546330814464
20
84.5306339343242
30
0
40
6.75
50
191.0231165650088
51
266.9813374027795
0
ARC
8
0
6
CONTINUOUS
10
33.66
20
83.23999997419043
30
0
40
0.45
50
3.2861764637941402e-06
51
179.99999671382355
0
LINE
8
0
6
CONTINUOUS
10
33.21
20
83.24
30
0
11
33.21
21
80.67
31
0
0
LINE
8
0
6
CONTINUOUS
10
46.8
20
72.0
30
0
11
46.8
21
70.4
31
0
0
LINE
8
0
6
CONTINUOUS
10
46.8
20
70.4
30
0
11
43.89
21
70.4
31
0
0
LINE
8
0
6
CONTINUOUS
10
43.89
20
70.4
30
0
11
43.89
21
72.0
31
0
0
LINE
8
0
6
CONTINUOUS
10
43.89
20
72.0
30
0
11
46.8
21
72.0
31
0
0
LINE
8
0
6
CONTINUOUS
10
37.0
20
70.2
30
0
11
41.0
21
70.2
31
0
0
LINE
8
0
6
CONTINUOUS
10
41.0
20
70.2
30
0
11
41.0
21
68.2
31
0
0
LINE
8
0
6
CONTINUOUS
10
41.0
20
68.2
30
0
11
37.0
21
68.2
31
0
0
LINE
8
0
6
CONTINUOUS
10
37.0
20
68.2
30
0
11
37.0
21
70.2
31
0
0
LINE
8
0
6
CONTINUOUS
10
37.0
20
74.2
30
0
11
41.0
21
74.2
31
0
0
LINE
8
0
6
CONTINUOUS
10
41.0
20
74.2
30
0
11
41.0
21
72.2
31
0
0
LINE
8
0
6
CONTINUOUS
10
41.0
20
72.2
30
0
11
37.0
21
72.2
31
0
0
LINE
8
0
6
CONTINUOUS
10
37.0
20
72.2
30
0
11
37.0
21
74.2
31
0
0
LINE
8
0
6
CONTINUOUS
10
4.63
20
67.93
30
0
11
4.63
21
70.11
31
0
0
ARC
8
0
6
CONTINUOUS
10
0.19433471677702752
20
75.84475138913714
30
0
40
7.25
50
307.7209205724411
51
354.4216352771317
0
ARC
8
0
6
CONTINUOUS
10
6.958910788322518
20
75.27197925256716
30
0
40
0.47
50
343.6916298699872
51
183.90147432662982
0
ARC
8
0
6
CONTINUOUS
10
2.0405575725692033
20
76.19129495162053
30
0
40
4.55
50
304.6880630127193
51
347.93180193532106
0
LINE
8
0
6
CONTINUOUS
10
4.63
20
72.45
30
0
11
4.9
21
75.52
31
0
0
ARC
8
0
6
CONTINUOUS
10
-3.5024656666712204
20
82.81900477602332
30
0
40
11.13
50
319.0199975959955
51
348.39470525887396
0
ARC
8
0
6
CONTINUOUS
10
7.02123806558025
20
80.70860558710496
30
0
40
0.4
50
341.2454920290811
51
151.413431001477
0
ARC
8
0
6
CONTINUOUS
10
0.19353846459965585
20
83.33759019945516
30
0
40
6.92
50
274.6123350751862
51
339.374824233846
0
ARC
8
0
6
CONTINUOUS
10
2.567991961834557
20
69.85639876460422
30
0
40
6.83
50
105.43692861883962
51
164.07854336376226
0
LINE
8
0
6
CONTINUOUS
10
-4.0
20
71.73
30
0
11
-4.0
21
56.49
31
0
0
LINE
8
0
6
CONTINUOUS
10
-4.0
20
56.49
30
0
11
-5.57
21
54.96
31
0
0
ARC
8
0
6
CONTINUOUS
10
-4.995036249007208
20
54.47842271124533
30
0
40
0.75
50
140.051181881591
51
308.31966401888957
0
LINE
8
0
6
CONTINUOUS
10
-4.53
20
53.89
30
0
11
-1.93
21
56.42
31
0
0
LINE
8
0
6
CONTINUOUS
10
-1.93
20
56.42
30
0
11
-2.58
21
58.71
31
0
0
LINE
8
0
6
CONTINUOUS
10
-2.58
20
58.71
30
0
11
-2.58
21
71.22
31
0
0
ARC
8
0
6
CONTINUOUS
10
2.5697655500888743
20
69.88496637528569
30
0
40
5.32
50
127.24460895570105
51
165.4664912907574
0
LINE
8
0
6
CONTINUOUS
10
-0.65
20
74.12
30
0
11
0.5
21
74.12
31
0
0
LINE
8
0
6
CONTINUOUS
10
0.5
20
74.12
30
0
11
0.5
21
72.14
31
0
0
LINE
8
0
6
CONTINUOUS
10
0.5
20
72.14
30
0
11
2.5
21
72.14
31
0
0
LINE
8
0
6
CONTINUOUS
10
2.5
20
72.14
30
0
11
2.5
21
70.14
31
0
0
LINE
8
0
6
CONTINUOUS
10
2.5
20
70.14
30
0
11
1.02
21
70.14
31
0
0
LINE
8
0
6
CONTINUOUS
10
1.02
20
70.14
30
0
11
3.16
21
64.32
31
0
0
ARC
8
0
6
CONTINUOUS
10
-1.4158478202161726
20
72.12795214676825
30
0
40
9.05
50
300.37242128160904
51
346.6609506133943
0
ARC
8
0
6
CONTINUOUS
10
6.917632559671366
20
70.17026511934273
30
0
40
0.49
50
344.58270142058103
51
142.28719622526384
0
ARC
8
0
6
CONTINUOUS
10
3.7908523570192543
20
70.53833878805646
30
0
40
2.74
50
287.83388009359874
51
358.5708283956524
0
LINE
8
0
6
CONTINUOUS
10
66.0
20
75.6
30
0
11
66.0
21
137.57
31
0
0
ENDSEC
0
EOF