0
SECTION
2
HEADER
0
ENDSEC
0
SECTION
2
TABLES
0
TABLE
2
LTYPE
70
2
0
LTYPE
2
CONTINUOUS
70
0
3
Solid line
72
65
73
0
40
0.0
0
ENDTAB
0
TABLE
2
LAYER
70
1
0
LAYER
2
0
70
0
62
7
6
CONTINUOUS
0
ENDTAB
0
ENDSEC
0
SECTION
2
ENTITIES
0
LINE
8
0
6
CONTINUOUS
10
23.56
20
-16.5
30
0
11
-0.06
21
-16.5
31
0
0
LINE
8
0
6
CONTINUOUS
10
23.5
20
-19.71
30
0
11
23.5
21
0.0
31
0
0
LINE
8
0
6
CONTINUOUS
10
0.0
20
-19.71
30
0
11
0.0
21
0.0
31
0
0
LINE
8
0
6
CONTINUOUS
10
-0.06
20
0.0
30
0
11
23.56
21
0.0
31
0
0
LINE
8
0
6
CONTINUOUS
10
6.6
20
-1.8
30
0
11
16.9
21
-1.8
31
0
0
LINE
8
0
6
CONTINUOUS
10
16.9
20
-1.8
30
0
11
16.9
21
-14.5
31
0
0
LINE
8
0
6
CONTINUOUS
10
16.9
20
-14.5
30
0
11
6.6
21
-14.5
31
0
0
LINE
8
0
6
CONTINUOUS
10
6.6
20
-14.5
30
0
11
6.6
21
-1.8
31
0
0
LINE
8
0
6
CONTINUOUS
10
1.5
20
-14.5
30
0
11
1.5
21
-12.8
31
0
0
LINE
8
0
6
CONTINUOUS
10
1.5
20
-12.8
30
0
11
0.0
21
-12.8
31
0
0
LINE
8
0
6
CONTINUOUS
10
0.0
20
-12.8
30
0
11
0.0
21
-16.5
31
0
0
ARC
8
0
6
CONTINUOUS
10
-0.3264068860952822
20
-17.241322159866804
30
0
40
0.81
50
301.7644424946654
51
66.23592902636094
0
LINE
8
0
6
CONTINUOUS
10
0.1
20
-17.93
30
0
11
-0.06
21
-19.71
31
0
0
LINE
8
0
6
CONTINUOUS
10
-0.06
20
-19.71
30
0
11
3.05
21
-18.88
31
0
0
LINE
8
0
6
CONTINUOUS
10
3.05
20
-18.88
30
0
11
1.68
21
-16.5
31
0
0
LINE
8
0
6
CONTINUOUS
10
1.68
20
-16.5
30
0
11
6.38
21
-16.5
31
0
0
LINE
8
0
6
CONTINUOUS
10
6.38
20
-16.5
30
0
11
6.38
21
-17.3
31
0
0
LINE
8
0
6
CONTINUOUS
10
6.38
20
-17.3
30
0
11
5.4
21
-19.0
31
0
0
LINE
8
0
6
CONTINUOUS
10
5.4
20
-19.0
30
0
11
6.7
21
-19.0
31
0
0
ARC
8
0
6
CONTINUOUS
10
6.700000000000001
20
-17.299999999999997
30
0
40
1.7
50
269.99999999999994
51
359.9999999999999
0
LINE
8
0
6
CONTINUOUS
10
8.4
20
-17.3
30
0
11
8.4
21
-16.5
31
0
0
LINE
8
0
6
CONTINUOUS
10
8.4
20
-16.5
30
0
11
15.1
21
-16.5
31
0
0
LINE
8
0
6
CONTINUOUS
10
15.1
20
-16.5
30
0
11
15.1
21
-17.3
31
0
0
ARC
8
0
6
CONTINUOUS
10
16.799999999999997
20
-17.299999999999997
30
0
40
1.7
50
180.0000000000001
51
270.0000000000001
0
LINE
8
0
6
CONTINUOUS
10
16.8
20
-19.0
30
0
11
18.1
21
-19.0
31
0
0
LINE
8
0
6
CONTINUOUS
10
18.1
20
-19.0
30
0
11
17.12
21
-17.3
31
0
0
LINE
8
0
6
CONTINUOUS
10
17.12
20
-17.3
30
0
11
17.12
21
-16.5
31
0
0
LINE
8
0
6
CONTINUOUS
10
17.12
20
-16.5
30
0
11
21.82
21
-16.5
31
0
0
LINE
8
0
6
CONTINUOUS
10
21.82
20
-16.5
30
0
11
20.45
21
-18.88
31
0
0
LINE
8
0
6
CONTINUOUS
10
20.45
20
-18.88
30
0
11
23.56
21
-19.71
31
0
0
LINE
8
0
6
CONTINUOUS
10
23.56
20
-19.71
30
0
11
23.4
21
-17.93
31
0
0
ARC
8
0
6
CONTINUOUS
10
23.82640688609528
20
-17.241322159866804
30
0
40
0.81
50
113.76407097363901
51
238.23555750533455
0
LINE
8
0
6
CONTINUOUS
10
23.5
20
-16.5
30
0
11
23.5
21
-12.84
31
0
0
LINE
8
0
6
CONTINUOUS
10
23.5
20
-12.84
30
0
11
22.0
21
-12.44
31
0
0
LINE
8
0
6
CONTINUOUS
10
22.0
20
-12.44
30
0
11
22.0
21
-14.5
31
0
0
LINE
8
0
6
CONTINUOUS
10
22.0
20
-14.5
30
0
11
18.6
21
-14.5
31
0
0
LINE
8
0
6
CONTINUOUS
10
18.6
20
-14.5
30
0
11
18.6
21
-1.8
31
0
0
LINE
8
0
6
CONTINUOUS
10
18.6
20
-1.8
30
0
11
22.0
21
-1.8
31
0
0
LINE
8
0
6
CONTINUOUS
10
22.0
20
-1.8
30
0
11
22.0
21
-5.06
31
0
0
LINE
8
0
6
CONTINUOUS
10
22.0
20
-5.06
30
0
11
23.5
21
-4.66
31
0
0
ARC
8
0
6
CONTINUOUS
10
41.509905607748195
20
-2.33
30
0
40
18.16
50
172.62840409580986
51
187.37159590419014
0
LINE
8
0
6
CONTINUOUS
10
23.5
20
0.0
30
0
11
-0.0
21
0.0
31
0
0
ARC
8
0
6
CONTINUOUS
10
-18.0099056077482
20
-2.33
30
0
40
18.16
50
352.62840409580986
51
7.3715959041901495
0
LINE
8
0
6
CONTINUOUS
10
0.0
20
-4.66
30
0
11
1.5
21
-5.06
31
0
0
LINE
8
0
6
CONTINUOUS
10
1.5
20
-5.06
30
0
11
1.5
21
-1.8
31
0
0
LINE
8
0
6
CONTINUOUS
10
1.5
20
-1.8
30
0
11
4.9
21
-1.8
31
0
0
LINE
8
0
6
CONTINUOUS
10
4.9
20
-1.8
30
0
11
4.9
21
-14.5
31
0
0
LINE
8
0
6
CONTINUOUS
10
4.9
20
-14.5
30
0
11
1.5
21
-14.5
31
0
0
ENDSEC
0
EOF