0
SECTION
2
HEADER
0
ENDSEC
0
SECTION
2
TABLES
0
TABLE
2
LTYPE
70
2
0
LTYPE
2
CONTINUOUS
70
0
3
Solid line
72
65
73
0
40
0.0
0
ENDTAB
0
TABLE
2
LAYER
70
1
0
LAYER
2
0
70
0
62
7
6
CONTINUOUS
0
ENDTAB
0
ENDSEC
0
SECTION
2
ENTITIES
0
LINE
8
0
6
CONTINUOUS
10
58.5
20
-0.0
30
0
11
58.5
21
32.71
31
0
0
LINE
8
0
6
CONTINUOUS
10
74.27
20
29.5
30
0
11
-0.0
21
29.5
31
0
0
LINE
8
0
6
CONTINUOUS
10
66.0
20
-0.0
30
0
11
66.0
21
32.71
31
0
0
LINE
8
0
6
CONTINUOUS
10
0.0
20
-0.0
30
0
11
0.0
21
32.71
31
0
0
LINE
8
0
6
CONTINUOUS
10
-0.0
20
0.0
30
0
11
74.27
21
0.0
31
0
0
LINE
8
0
6
CONTINUOUS
10
0.0
20
12.0
30
0
11
-0.0
21
7.0
31
0
0
ARC
8
0
6
CONTINUOUS
10
7.0
20
7.0
30
0
40
7.0
50
180.0
51
270.0
0
LINE
8
0
6
CONTINUOUS
10
7.0
20
-0.0
30
0
11
58.5
21
-0.0
31
0
0
ARC
8
0
6
CONTINUOUS
10
76.5099056077482
20
2.33
30
0
40
18.16
50
172.62840409580986
51
187.37159590419014
0
LINE
8
0
6
CONTINUOUS
10
58.5
20
4.66
30
0
11
57.0
21
5.06
31
0
0
LINE
8
0
6
CONTINUOUS
10
57.0
20
5.06
30
0
11
57.0
21
1.8
31
0
0
LINE
8
0
6
CONTINUOUS
10
57.0
20
1.8
30
0
11
53.6
21
1.8
31
0
0
LINE
8
0
6
CONTINUOUS
10
53.6
20
1.8
30
0
11
53.6
21
14.5
31
0
0
LINE
8
0
6
CONTINUOUS
10
53.6
20
14.5
30
0
11
57.0
21
14.5
31
0
0
LINE
8
0
6
CONTINUOUS
10
57.0
20
14.5
30
0
11
57.0
21
12.44
31
0
0
LINE
8
0
6
CONTINUOUS
10
57.0
20
12.44
30
0
11
58.5
21
12.84
31
0
0
LINE
8
0
6
CONTINUOUS
10
58.5
20
12.84
30
0
11
58.3
21
15.09
31
0
0
ARC
8
0
6
CONTINUOUS
10
57.304056638741436
20
15.000017661927497
30
0
40
1.0
50
5.162591014276389
51
89.65946847894588
0
LINE
8
0
6
CONTINUOUS
10
57.31
20
16.0
30
0
11
53.6
21
16.0
31
0
0
LINE
8
0
6
CONTINUOUS
10
53.6
20
16.0
30
0
11
53.6
21
20.0
31
0
0
ARC
8
0
6
CONTINUOUS
10
52.6
20
20.0
30
0
40
1.0
50
0.0
51
90.0
0
LINE
8
0
6
CONTINUOUS
10
52.6
20
21.0
30
0
11
50.9
21
21.0
31
0
0
LINE
8
0
6
CONTINUOUS
10
50.9
20
21.0
30
0
11
50.9
21
20.0
31
0
0
LINE
8
0
6
CONTINUOUS
10
50.9
20
20.0
30
0
11
51.9
21
20.0
31
0
0
LINE
8
0
6
CONTINUOUS
10
51.9
20
20.0
30
0
11
51.9
21
16.0
31
0
0
LINE
8
0
6
CONTINUOUS
10
51.9
20
16.0
30
0
11
44.9
21
16.0
31
0
0
LINE
8
0
6
CONTINUOUS
10
44.9
20
16.0
30
0
11
44.9
21
20.0
31
0
0
LINE
8
0
6
CONTINUOUS
10
44.9
20
20.0
30
0
11
45.9
21
20.0
31
0
0
LINE
8
0
6
CONTINUOUS
10
45.9
20
20.0
30
0
11
45.9
21
21.0
31
0
0
LINE
8
0
6
CONTINUOUS
10
45.9
20
21.0
30
0
11
38.6
21
21.0
31
0
0
LINE
8
0
6
CONTINUOUS
10
38.6
20
21.0
30
0
11
38.6
21
27.5
31
0
0
LINE
8
0
6
CONTINUOUS
10
38.6
20
27.5
30
0
11
42.5
21
27.5
31
0
0
ARC
8
0
6
CONTINUOUS
10
42.5
20
28.5
30
0
40
1.0
50
270.0
51
0.0
0
LINE
8
0
6
CONTINUOUS
10
43.5
20
28.5
30
0
11
43.5
21
29.5
31
0
0
ARC
8
0
6
CONTINUOUS
10
43.826406886095285
20
30.241322159866804
30
0
40
0.81
50
121.76444249466563
51
246.23592902636076
0
LINE
8
0
6
CONTINUOUS
10
43.4
20
30.93
30
0
11
43.56
21
32.71
31
0
0
LINE
8
0
6
CONTINUOUS
10
43.56
20
32.71
30
0
11
40.45
21
31.88
31
0
0
LINE
8
0
6
CONTINUOUS
10
40.45
20
31.88
30
0
11
41.82
21
29.5
31
0
0
LINE
8
0
6
CONTINUOUS
10
41.82
20
29.5
30
0
11
37.12
21
29.5
31
0
0
LINE
8
0
6
CONTINUOUS
10
37.12
20
29.5
30
0
11
37.12
21
30.3
31
0
0
LINE
8
0
6
CONTINUOUS
10
37.12
20
30.3
30
0
11
38.1
21
32.0
31
0
0
LINE
8
0
6
CONTINUOUS
10
38.1
20
32.0
30
0
11
36.8
21
32.0
31
0
0
ARC
8
0
6
CONTINUOUS
10
36.800000000000004
20
30.299999999999997
30
0
40
1.7
50
90.00000000000024
51
179.9999999999999
0
LINE
8
0
6
CONTINUOUS
10
35.1
20
30.3
30
0
11
35.1
21
29.5
31
0
0
LINE
8
0
6
CONTINUOUS
10
35.1
20
29.5
30
0
11
28.4
21
29.5
31
0
0
LINE
8
0
6
CONTINUOUS
10
28.4
20
29.5
30
0
11
28.4
21
30.3
31
0
0
ARC
8
0
6
CONTINUOUS
10
26.699999999999996
20
30.299999999999997
30
0
40
1.7
50
1.1973852918450867e-13
51
89.99999999999989
0
LINE
8
0
6
CONTINUOUS
10
26.7
20
32.0
30
0
11
25.4
21
32.0
31
0
0
LINE
8
0
6
CONTINUOUS
10
25.4
20
32.0
30
0
11
26.38
21
30.3
31
0
0
LINE
8
0
6
CONTINUOUS
10
26.38
20
30.3
30
0
11
26.38
21
29.5
31
0
0
LINE
8
0
6
CONTINUOUS
10
26.38
20
29.5
30
0
11
21.68
21
29.5
31
0
0
LINE
8
0
6
CONTINUOUS
10
21.68
20
29.5
30
0
11
23.05
21
31.88
31
0
0
LINE
8
0
6
CONTINUOUS
10
23.05
20
31.88
30
0
11
19.94
21
32.71
31
0
0
LINE
8
0
6
CONTINUOUS
10
19.94
20
32.71
30
0
11
20.1
21
30.93
31
0
0
ARC
8
0
6
CONTINUOUS
10
19.67359311390472
20
30.241322159866804
30
0
40
0.81
50
293.764070973639
51
58.2355575053346
0
LINE
8
0
6
CONTINUOUS
10
20.0
20
29.5
30
0
11
20.0
21
12.84
31
0
0
LINE
8
0
6
CONTINUOUS
10
20.0
20
12.84
30
0
11
21.5
21
12.44
31
0
0
LINE
8
0
6
CONTINUOUS
10
21.5
20
12.44
30
0
11
21.5
21
14.5
31
0
0
LINE
8
0
6
CONTINUOUS
10
21.5
20
14.5
30
0
11
24.9
21
14.5
31
0
0
LINE
8
0
6
CONTINUOUS
10
24.9
20
14.5
30
0
11
24.9
21
1.8
31
0
0
LINE
8
0
6
CONTINUOUS
10
24.9
20
1.8
30
0
11
21.5
21
1.8
31
0
0
LINE
8
0
6
CONTINUOUS
10
21.5
20
1.8
30
0
11
21.0
21
5.3
31
0
0
LINE
8
0
6
CONTINUOUS
10
21.0
20
5.3
30
0
11
20.0
21
5.3
31
0
0
LINE
8
0
6
CONTINUOUS
10
20.0
20
5.3
30
0
11
20.0
21
1.8
31
0
0
LINE
8
0
6
CONTINUOUS
10
20.0
20
1.8
30
0
11
7.0
21
1.8
31
0
0
ARC
8
0
6
CONTINUOUS
10
6.995344157714104
20
6.99999791568541
30
0
40
5.2
50
182.42475295850687
51
270.0513000285966
0
ARC
8
0
6
CONTINUOUS
10
2.2995998334613845
20
6.800000160133284
30
0
40
0.5
50
89.95414428757462
51
182.29246114057625
0
LINE
8
0
6
CONTINUOUS
10
2.3
20
7.3
30
0
11
10.3
21
7.3
31
0
0
ARC
8
0
6
CONTINUOUS
10
10.3
20
8.8
30
0
40
1.5
50
270.0
51
0.0
0
LINE
8
0
6
CONTINUOUS
10
11.8
20
8.8
30
0
11
11.8
21
10.8
31
0
0
ARC
8
0
6
CONTINUOUS
10
10.6
20
10.8
30
0
40
1.2
50
0.0
51
90.0
0
LINE
8
0
6
CONTINUOUS
10
10.6
20
12.0
30
0
11
9.6
21
12.0
31
0
0
LINE
8
0
6
CONTINUOUS
10
9.6
20
12.0
30
0
11
9.6
21
11.0
31
0
0
LINE
8
0
6
CONTINUOUS
10
9.6
20
11.0
30
0
11
10.6
21
11.0
31
0
0
LINE
8
0
6
CONTINUOUS
10
10.6
20
11.0
30
0
11
10.6
21
9.0
31
0
0
LINE
8
0
6
CONTINUOUS
10
10.6
20
9.0
30
0
11
1.5
21
9.0
31
0
0
LINE
8
0
6
CONTINUOUS
10
1.5
20
9.0
30
0
11
1.5
21
11.0
31
0
0
LINE
8
0
6
CONTINUOUS
10
1.5
20
11.0
30
0
11
2.5
21
11.0
31
0
0
LINE
8
0
6
CONTINUOUS
10
2.5
20
11.0
30
0
11
2.5
21
12.0
31
0
0
LINE
8
0
6
CONTINUOUS
10
2.5
20
12.0
30
0
11
0.0
21
12.0
31
0
0
LINE
8
0
6
CONTINUOUS
10
38.6
20
19.3
30
0
11
43.2
21
19.3
31
0
0
LINE
8
0
6
CONTINUOUS
10
43.2
20
19.3
30
0
11
43.2
21
16.2
31
0
0
ARC
8
0
6
CONTINUOUS
10
44.9
20
16.2
30
0
40
1.7
50
180.0
51
270.0
0
LINE
8
0
6
CONTINUOUS
10
44.9
20
14.5
30
0
11
51.9
21
14.5
31
0
0
LINE
8
0
6
CONTINUOUS
10
51.9
20
14.5
30
0
11
51.9
21
1.8
31
0
0
LINE
8
0
6
CONTINUOUS
10
51.9
20
1.8
30
0
11
38.6
21
1.8
31
0
0
LINE
8
0
6
CONTINUOUS
10
38.6
20
1.8
30
0
11
38.6
21
2.8
31
0
0
ARC
8
0
6
CONTINUOUS
10
37.600008546937275
20
2.7958655349202335
30
0
40
1.0
50
0.23688807450438615
51
134.42768972679318
0
LINE
8
0
6
CONTINUOUS
10
36.9
20
3.51
30
0
11
36.9
21
1.8
31
0
0
LINE
8
0
6
CONTINUOUS
10
36.9
20
1.8
30
0
11
26.6
21
1.8
31
0
0
LINE
8
0
6
CONTINUOUS
10
26.6
20
1.8
30
0
11
26.6
21
14.5
31
0
0
ARC
8
0
6
CONTINUOUS
10
24.900000000000002
20
14.5
30
0
40
1.7
50
0.0
51
90.00000000000013
0
LINE
8
0
6
CONTINUOUS
10
24.9
20
16.2
30
0
11
21.7
21
16.2
31
0
0
LINE
8
0
6
CONTINUOUS
10
21.7
20
16.2
30
0
11
21.7
21
27.5
31
0
0
LINE
8
0
6
CONTINUOUS
10
21.7
20
27.5
30
0
11
24.9
21
27.5
31
0
0
LINE
8
0
6
CONTINUOUS
10
24.9
20
27.5
30
0
11
24.9
21
26.5
31
0
0
ARC
8
0
6
CONTINUOUS
10
25.899991453062725
20
26.504134465079765
30
0
40
1.0
50
180.23688807450435
51
314.4276897267932
0
LINE
8
0
6
CONTINUOUS
10
26.6
20
25.79
30
0
11
26.6
21
27.5
31
0
0
LINE
8
0
6
CONTINUOUS
10
26.6
20
27.5
30
0
11
36.9
21
27.5
31
0
0
LINE
8
0
6
CONTINUOUS
10
36.9
20
27.5
30
0
11
36.9
21
21.0
31
0
0
ARC
8
0
6
CONTINUOUS
10
38.6
20
21.0
30
0
40
1.7
50
180.0
51
270.0
0
ENDSEC
0
EOF