0
SECTION
2
HEADER
0
ENDSEC
0
SECTION
2
TABLES
0
TABLE
2
LTYPE
70
2
0
LTYPE
2
CONTINUOUS
70
0
3
Solid line
72
65
73
0
40
0.0
0
ENDTAB
0
TABLE
2
LAYER
70
1
0
LAYER
2
0
70
0
62
7
6
CONTINUOUS
0
ENDTAB
0
ENDSEC
0
SECTION
2
ENTITIES
0
LINE
8
0
6
CONTINUOUS
10
107.5
20
-242.81
30
0
11
-15.5
21
-242.81
31
0
0
LINE
8
0
6
CONTINUOUS
10
0.0
20
18.0
30
0
11
0.0
21
-242.81
31
0
0
LINE
8
0
6
CONTINUOUS
10
-15.5
20
0.0
30
0
11
107.5
21
0.0
31
0
0
LINE
8
0
6
CONTINUOUS
10
4.6
20
-31.19
30
0
11
29.6
21
-31.19
31
0
0
ARC
8
0
6
CONTINUOUS
10
29.6
20
-31.69
30
0
40
0.5
50
0.0
51
90.0
0
LINE
8
0
6
CONTINUOUS
10
30.1
20
-31.69
30
0
11
30.1
21
-34.69
31
0
0
ARC
8
0
6
CONTINUOUS
10
32.1
20
-34.69
30
0
40
2.0
50
180.0
51
270.0
0
LINE
8
0
6
CONTINUOUS
10
32.1
20
-36.69
30
0
11
42.1
21
-36.69
31
0
0
ARC
8
0
6
CONTINUOUS
10
42.1
20
-34.69
30
0
40
2.0
50
270.0
51
0.0
0
LINE
8
0
6
CONTINUOUS
10
44.1
20
-34.69
30
0
11
44.1
21
-31.69
31
0
0
ARC
8
0
6
CONTINUOUS
10
44.6
20
-31.69
30
0
40
0.5
50
90.0
51
180.0
0
LINE
8
0
6
CONTINUOUS
10
44.6
20
-31.19
30
0
11
69.6
21
-31.19
31
0
0
ARC
8
0
6
CONTINUOUS
10
69.6
20
-29.69
30
0
40
1.5
50
270.0
51
0.0
0
LINE
8
0
6
CONTINUOUS
10
71.1
20
-29.69
30
0
11
71.1
21
-11.69
31
0
0
ARC
8
0
6
CONTINUOUS
10
69.1
20
-11.69
30
0
40
2.0
50
0.0
51
90.0
0
LINE
8
0
6
CONTINUOUS
10
69.1
20
-9.69
30
0
11
5.1
21
-9.69
31
0
0
ARC
8
0
6
CONTINUOUS
10
5.1
20
-11.69
30
0
40
2.0
50
90.0
51
180.0
0
LINE
8
0
6
CONTINUOUS
10
3.1
20
-11.69
30
0
11
3.1
21
-29.69
31
0
0
ARC
8
0
6
CONTINUOUS
10
4.6
20
-29.69
30
0
40
1.5
50
180.0
51
270.0
0
ARC
8
0
6
CONTINUOUS
10
32.1
20
-34.69
30
0
40
0.5
50
180.0
51
270.0
0
LINE
8
0
6
CONTINUOUS
10
31.6
20
-34.69
30
0
11
31.6
21
-31.69
31
0
0
ARC
8
0
6
CONTINUOUS
10
29.6
20
-31.69
30
0
40
2.0
50
0.0
51
90.0
0
LINE
8
0
6
CONTINUOUS
10
29.6
20
-29.69
30
0
11
5.1
21
-29.69
31
0
0
ARC
8
0
6
CONTINUOUS
10
5.1
20
-29.19
30
0
40
0.5
50
180.0
51
270.0
0
LINE
8
0
6
CONTINUOUS
10
4.6
20
-29.19
30
0
11
4.6
21
-11.69
31
0
0
ARC
8
0
6
CONTINUOUS
10
5.1
20
-11.69
30
0
40
0.5
50
90.0
51
180.0
0
LINE
8
0
6
CONTINUOUS
10
5.1
20
-11.19
30
0
11
69.1
21
-11.19
31
0
0
ARC
8
0
6
CONTINUOUS
10
69.1
20
-11.69
30
0
40
0.5
50
0.0
51
90.0
0
LINE
8
0
6
CONTINUOUS
10
69.6
20
-11.69
30
0
11
69.6
21
-29.19
31
0
0
ARC
8
0
6
CONTINUOUS
10
69.1
20
-29.19
30
0
40
0.5
50
270.0
51
0.0
0
LINE
8
0
6
CONTINUOUS
10
69.1
20
-29.69
30
0
11
44.6
21
-29.69
31
0
0
ARC
8
0
6
CONTINUOUS
10
44.6
20
-31.69
30
0
40
2.0
50
90.0
51
180.0
0
LINE
8
0
6
CONTINUOUS
10
42.6
20
-31.69
30
0
11
42.6
21
-34.69
31
0
0
ARC
8
0
6
CONTINUOUS
10
42.1
20
-34.69
30
0
40
0.5
50
270.0
51
0.0
0
LINE
8
0
6
CONTINUOUS
10
42.1
20
-35.19
30
0
11
32.1
21
-35.19
31
0
0
LINE
8
0
6
CONTINUOUS
10
-10.0
20
-46.65
30
0
11
33.36
21
-66.87
31
0
0
ARC
8
0
6
CONTINUOUS
10
33.550069162736825
20
-66.46211066037893
30
0
40
0.45
50
245.01531980036896
51
358.9954466157987
0
LINE
8
0
6
CONTINUOUS
10
34.0
20
-66.47
30
0
11
34.0
21
-63.21
31
0
0
ARC
8
0
6
CONTINUOUS
10
33.40954296385482
20
-63.316585592209506
30
0
40
0.6
50
10.2324810564717
51
182.236479134611
0
LINE
8
0
6
CONTINUOUS
10
32.81
20
-63.34
30
0
11
32.81
21
-64.53
31
0
0
LINE
8
0
6
CONTINUOUS
10
32.81
20
-64.53
30
0
11
29.0
21
-62.65
31
0
0
ARC
8
0
6
CONTINUOUS
10
31.65015106509037
20
-60.68360753352736
30
0
40
3.3
50
103.13925212909551
51
216.5751414048183
0
LINE
8
0
6
CONTINUOUS
10
30.9
20
-57.47
30
0
11
32.3
21
-57.35
31
0
0
ARC
8
0
6
CONTINUOUS
10
32.3
20
-57.85
30
0
40
0.5
50
0.0
51
90.0
0
LINE
8
0
6
CONTINUOUS
10
32.8
20
-57.85
30
0
11
32.8
21
-58.86
31
0
0
LINE
8
0
6
CONTINUOUS
10
32.8
20
-58.86
30
0
11
34.0
21
-58.65
31
0
0
LINE
8
0
6
CONTINUOUS
10
34.0
20
-58.65
30
0
11
34.0
21
-57.0
31
0
0
ARC
8
0
6
CONTINUOUS
10
33.0
20
-57.0
30
0
40
1.0
50
0.0
51
90.0
0
ARC
8
0
6
CONTINUOUS
10
33.0
20
-55.5
30
0
40
0.5
50
180.0
51
270.0
0
LINE
8
0
6
CONTINUOUS
10
32.5
20
-55.5
30
0
11
32.5
21
-50.73
31
0
0
LINE
8
0
6
CONTINUOUS
10
32.5
20
-50.73
30
0
11
30.58
21
-43.55
31
0
0
ARC
8
0
6
CONTINUOUS
10
32.5194840549243
20
-43.022267491342056
30
0
40
2.01
50
67.15021920223771
51
195.22163112918153
0
LINE
8
0
6
CONTINUOUS
10
33.3
20
-41.17
30
0
11
37.6
21
-43.0
31
0
0
LINE
8
0
6
CONTINUOUS
10
37.6
20
-43.0
30
0
11
76.51
21
-43.0
31
0
0
ARC
8
0
6
CONTINUOUS
10
76.5084643937005
20
-43.53999781658197
30
0
40
0.54
50
344.9736463712224
51
89.83706689159504
0
LINE
8
0
6
CONTINUOUS
10
77.03
20
-43.68
30
0
11
76.57
21
-45.41
31
0
0
ARC
8
0
6
CONTINUOUS
10
77.01650594668203
20
-45.52060035975341
30
0
40
0.46
50
166.08775084042563
51
272.9276000453205
0
LINE
8
0
6
CONTINUOUS
10
77.04
20
-45.98
30
0
11
79.53
21
-45.82
31
0
0
ARC
8
0
6
CONTINUOUS
10
79.50028330016967
20
-45.32088386346342
30
0
40
0.5
50
273.4072909193451
51
11.640349957933513
0
LINE
8
0
6
CONTINUOUS
10
79.99
20
-45.22
30
0
11
78.93
21
-40.0
31
0
0
LINE
8
0
6
CONTINUOUS
10
78.93
20
-40.0
30
0
11
79.93
21
-39.0
31
0
0
LINE
8
0
6
CONTINUOUS
10
79.93
20
-39.0
30
0
11
85.42
21
-39.0
31
0
0
ARC
8
0
6
CONTINUOUS
10
85.42
20
-39.58
30
0
40
0.58
50
0.0
51
90.0
0
LINE
8
0
6
CONTINUOUS
10
86.0
20
-39.58
30
0
11
86.0
21
-43.49
31
0
0
LINE
8
0
6
CONTINUOUS
10
86.0
20
-43.49
30
0
11
84.31
21
-43.49
31
0
0
LINE
8
0
6
CONTINUOUS
10
84.31
20
-43.49
30
0
11
84.01
21
-45.24
31
0
0
ARC
8
0
6
CONTINUOUS
10
84.50337644785492
20
-45.321115231011625
30
0
40
0.5
50
170.66361600922028
51
266.1724946804227
0
LINE
8
0
6
CONTINUOUS
10
84.47
20
-45.82
30
0
11
87.75
21
-46.0
31
0
0
LINE
8
0
6
CONTINUOUS
10
87.75
20
-46.0
30
0
11
88.5
21
-45.25
31
0
0
LINE
8
0
6
CONTINUOUS
10
88.5
20
-45.25
30
0
11
88.5
21
0.0
31
0
0
LINE
8
0
6
CONTINUOUS
10
88.5
20
0.0
30
0
11
85.8
21
0.0
31
0
0
LINE
8
0
6
CONTINUOUS
10
85.8
20
0.0
30
0
11
84.33
21
-1.47
31
0
0
LINE
8
0
6
CONTINUOUS
10
84.33
20
-1.47
30
0
11
84.33
21
-2.3
31
0
0
LINE
8
0
6
CONTINUOUS
10
84.33
20
-2.3
30
0
11
86.47
21
-2.3
31
0
0
LINE
8
0
6
CONTINUOUS
10
86.47
20
-2.3
30
0
11
86.09
21
-6.7
31
0
0
LINE
8
0
6
CONTINUOUS
10
86.09
20
-6.7
30
0
11
76.74
21
-6.7
31
0
0
LINE
8
0
6
CONTINUOUS
10
76.74
20
-6.7
30
0
11
76.36
21
-2.3
31
0
0
LINE
8
0
6
CONTINUOUS
10
76.36
20
-2.3
30
0
11
78.35
21
-2.3
31
0
0
LINE
8
0
6
CONTINUOUS
10
78.35
20
-2.3
30
0
11
78.35
21
-1.47
31
0
0
LINE
8
0
6
CONTINUOUS
10
78.35
20
-1.47
30
0
11
76.87
21
0.0
31
0
0
LINE
8
0
6
CONTINUOUS
10
76.87
20
0.0
30
0
11
73.9
21
0.0
31
0
0
LINE
8
0
6
CONTINUOUS
10
73.9
20
0.0
30
0
11
72.43
21
-1.47
31
0
0
LINE
8
0
6
CONTINUOUS
10
72.43
20
-1.47
30
0
11
72.43
21
-2.3
31
0
0
LINE
8
0
6
CONTINUOUS
10
72.43
20
-2.3
30
0
11
74.42
21
-2.3
31
0
0
LINE
8
0
6
CONTINUOUS
10
74.42
20
-2.3
30
0
11
74.03
21
-6.7
31
0
0
LINE
8
0
6
CONTINUOUS
10
74.03
20
-6.7
30
0
11
33.02
21
-6.7
31
0
0
LINE
8
0
6
CONTINUOUS
10
33.02
20
-6.7
30
0
11
32.63
21
-2.3
31
0
0
LINE
8
0
6
CONTINUOUS
10
32.63
20
-2.3
30
0
11
34.62
21
-2.3
31
0
0
LINE
8
0
6
CONTINUOUS
10
34.62
20
-2.3
30
0
11
34.62
21
-1.47
31
0
0
LINE
8
0
6
CONTINUOUS
10
34.62
20
-1.47
30
0
11
33.15
21
0.0
31
0
0
LINE
8
0
6
CONTINUOUS
10
33.15
20
0.0
30
0
11
30.18
21
0.0
31
0
0
LINE
8
0
6
CONTINUOUS
10
30.18
20
0.0
30
0
11
28.71
21
-1.47
31
0
0
LINE
8
0
6
CONTINUOUS
10
28.71
20
-1.47
30
0
11
28.71
21
-2.3
31
0
0
LINE
8
0
6
CONTINUOUS
10
28.71
20
-2.3
30
0
11
30.54
21
-2.3
31
0
0
LINE
8
0
6
CONTINUOUS
10
30.54
20
-2.3
30
0
11
30.16
21
-6.7
31
0
0
LINE
8
0
6
CONTINUOUS
10
30.16
20
-6.7
30
0
11
20.91
21
-6.7
31
0
0
LINE
8
0
6
CONTINUOUS
10
20.91
20
-6.7
30
0
11
20.53
21
-2.3
31
0
0
LINE
8
0
6
CONTINUOUS
10
20.53
20
-2.3
30
0
11
22.67
21
-2.3
31
0
0
LINE
8
0
6
CONTINUOUS
10
22.67
20
-2.3
30
0
11
22.67
21
-1.47
31
0
0
LINE
8
0
6
CONTINUOUS
10
22.67
20
-1.47
30
0
11
21.2
21
0.0
31
0
0
LINE
8
0
6
CONTINUOUS
10
21.2
20
0.0
30
0
11
18.5
21
0.0
31
0
0
LINE
8
0
6
CONTINUOUS
10
18.5
20
0.0
30
0
11
18.5
21
-6.7
31
0
0
LINE
8
0
6
CONTINUOUS
10
18.5
20
-6.7
30
0
11
1.46
21
-6.7
31
0
0
LINE
8
0
6
CONTINUOUS
10
1.46
20
-6.7
30
0
11
-1.7
21
-8.03
31
0
0
ARC
8
0
6
CONTINUOUS
10
-2.4949399549415117
20
-6.194769641696828
30
0
40
2.0
50
150.17286855916612
51
293.4201095344383
0
LINE
8
0
6
CONTINUOUS
10
-4.23
20
-5.2
30
0
11
-1.5
21
-0.47
31
0
0
LINE
8
0
6
CONTINUOUS
10
-1.5
20
-0.47
30
0
11
-1.5
21
6.5
31
0
0
ARC
8
0
6
CONTINUOUS
10
-1.0
20
6.5
30
0
40
0.5
50
90.0
51
180.0
0
ARC
8
0
6
CONTINUOUS
10
-1.0
20
8.0
30
0
40
1.0
50
270.0
51
0.0
0
LINE
8
0
6
CONTINUOUS
10
0.0
20
8.0
30
0
11
0.0
21
9.65
31
0
0
LINE
8
0
6
CONTINUOUS
10
0.0
20
9.65
30
0
11
-1.2
21
9.97
31
0
0
LINE
8
0
6
CONTINUOUS
10
-1.2
20
9.97
30
0
11
-1.2
21
8.9
31
0
0
ARC
8
0
6
CONTINUOUS
10
-1.749995286539141
20
8.897722987762855
30
0
40
0.55
50
275.21541550821973
51
0.2372064795929627
0
ARC
8
0
6
CONTINUOUS
10
-2.014716984380922
20
11.845862299882844
30
0
40
3.51
50
76.57848917678338
51
275.14421764410326
0
LINE
8
0
6
CONTINUOUS
10
-1.2
20
15.26
30
0
11
-1.2
21
13.77
31
0
0
LINE
8
0
6
CONTINUOUS
10
-1.2
20
13.77
30
0
11
0.0
21
14.07
31
0
0
LINE
8
0
6
CONTINUOUS
10
0.0
20
14.07
30
0
11
0.0
21
18.0
31
0
0
LINE
8
0
6
CONTINUOUS
10
0.0
20
18.0
30
0
11
-13.5
21
18.0
31
0
0
ARC
8
0
6
CONTINUOUS
10
-13.5
20
16.0
30
0
40
2.0
50
90.0
51
180.0
0
LINE
8
0
6
CONTINUOUS
10
-15.5
20
16.0
30
0
11
-15.5
21
-39.49
31
0
0
LINE
8
0
6
CONTINUOUS
10
-15.5
20
-39.49
30
0
11
-10.0
21
-46.65
31
0
0
LINE
8
0
6
CONTINUOUS
10
26.25
20
-60.47
30
0
11
-8.2
21
-44.41
31
0
0
LINE
8
0
6
CONTINUOUS
10
-8.2
20
-44.41
30
0
11
-12.36
21
-38.97
31
0
0
LINE
8
0
6
CONTINUOUS
10
-12.36
20
-38.97
30
0
11
-5.19
21
-32.67
31
0
0
LINE
8
0
6
CONTINUOUS
10
-5.19
20
-32.67
30
0
11
30.52
21
-39.18
31
0
0
ARC
8
0
6
CONTINUOUS
10
32.50304063298131
20
-42.99543573500394
30
0
40
4.3
50
117.46277592293468
51
195.0226571198365
0
LINE
8
0
6
CONTINUOUS
10
28.35
20
-44.11
30
0
11
30.2
21
-51.03
31
0
0
LINE
8
0
6
CONTINUOUS
10
30.2
20
-51.03
30
0
11
30.2
21
-56.08
31
0
0
ARC
8
0
6
CONTINUOUS
10
32.00295250705479
20
-60.85067733737095
30
0
40
5.1
50
110.7027719253896
51
171.42218878957118
0
ARC
8
0
6
CONTINUOUS
10
26.465118179630064
20
-60.01864186194038
30
0
40
0.5
50
244.5174389721992
51
351.7949439243454
0
LINE
8
0
6
CONTINUOUS
10
-12.7
20
-37.01
30
0
11
-12.7
21
-7.8
31
0
0
LINE
8
0
6
CONTINUOUS
10
-12.7
20
-7.8
30
0
11
-6.71
21
-7.8
31
0
0
ARC
8
0
6
CONTINUOUS
10
-2.5057789110986253
20
-6.195467346659177
30
0
40
4.5
50
200.88925594620494
51
221.03825711794207
0
LINE
8
0
6
CONTINUOUS
10
-5.9
20
-9.15
30
0
11
-5.9
21
-31.83
31
0
0
LINE
8
0
6
CONTINUOUS
10
-5.9
20
-31.83
30
0
11
-12.11
21
-37.28
31
0
0
ARC
8
0
6
CONTINUOUS
10
-12.340065993669361
20
-37.003107171351566
30
0
40
0.36
50
181.0970947903535
51
309.72267087725413
0
LINE
8
0
6
CONTINUOUS
10
-4.8
20
-31.63
30
0
11
-4.8
21
-11.02
31
0
0
ARC
8
0
6
CONTINUOUS
10
-4.190032224506324
20
-11.02626999675417
30
0
40
0.61
50
70.8573216509613
51
179.41106446287003
0
ARC
8
0
6
CONTINUOUS
10
-2.5163734195743843
20
-6.198126918467214
30
0
40
4.5
50
250.88455741678746
51
278.38712705855244
0
ARC
8
0
6
CONTINUOUS
10
-1.7799828988233835
20
-11.22445388284813
30
0
40
0.58
50
0.43998482368011615
51
97.92984742655676
0
LINE
8
0
6
CONTINUOUS
10
-1.2
20
-11.22
30
0
11
-1.2
21
-32.25
31
0
0
LINE
8
0
6
CONTINUOUS
10
-1.2
20
-32.25
30
0
11
-4.8
21
-31.63
31
0
0
LINE
8
0
6
CONTINUOUS
10
-12.7
20
-6.7
30
0
11
-12.7
21
14.7
31
0
0
ARC
8
0
6
CONTINUOUS
10
-12.2
20
14.7
30
0
40
0.5
50
90.0
51
180.0
0
LINE
8
0
6
CONTINUOUS
10
-12.2
20
15.2
30
0
11
-6.82
21
15.2
31
0
0
ARC
8
0
6
CONTINUOUS
10
-6.823007479624125
20
14.7000090450155
30
0
40
0.5
50
329.9988031659657
51
89.65536614298391
0
ARC
8
0
6
CONTINUOUS
10
-2.0013096974187814
20
11.852039756264624
30
0
40
5.1
50
149.3758634067304
51
246.92722158716498
0
LINE
8
0
6
CONTINUOUS
10
-4.0
20
7.16
30
0
11
-4.0
21
0.34
31
0
0
LINE
8
0
6
CONTINUOUS
10
-4.0
20
0.34
30
0
11
-6.4
21
-3.95
31
0
0
ARC
8
0
6
CONTINUOUS
10
-2.2605395173849256
20
-6.259213483606089
30
0
40
4.74
50
150.84487383061975
51
185.3358120861311
0
LINE
8
0
6
CONTINUOUS
10
-6.98
20
-6.7
30
0
11
-12.7
21
-6.7
31
0
0
ARC
8
0
6
CONTINUOUS
10
12.5
20
-6.501129866036529
30
0
40
3.0
50
244.10860602963245
51
295.8913939703675
0
LINE
8
0
6
CONTINUOUS
10
13.81
20
-9.2
30
0
11
59.19
21
-9.2
31
0
0
ARC
8
0
6
CONTINUOUS
10
60.5
20
-6.50112986603653
30
0
40
3.0
50
244.10860602963243
51
295.8913939703676
0
LINE
8
0
6
CONTINUOUS
10
61.81
20
-9.2
30
0
11
73.5
21
-9.2
31
0
0
LINE
8
0
6
CONTINUOUS
10
73.5
20
-9.2
30
0
11
73.5
21
-20.5
31
0
0
LINE
8
0
6
CONTINUOUS
10
73.5
20
-20.5
30
0
11
71.88
21
-20.5
31
0
0
ARC
8
0
6
CONTINUOUS
10
71.98535653752852
20
-21.05
30
0
40
0.5600000000000007
50
100.84406256369627
51
259.1559374363037
0
LINE
8
0
6
CONTINUOUS
10
71.88
20
-21.6
30
0
11
73.5
21
-21.6
31
0
0
LINE
8
0
6
CONTINUOUS
10
73.5
20
-21.6
30
0
11
73.5
21
-32.0
31
0
0
LINE
8
0
6
CONTINUOUS
10
73.5
20
-32.0
30
0
11
71.86
21
-32.0
31
0
0
ARC
8
0
6
CONTINUOUS
10
71.96535653752852
20
-32.55
30
0
40
0.5600000000000007
50
100.84406256369633
51
259.1559374363038
0
LINE
8
0
6
CONTINUOUS
10
71.86
20
-33.1
30
0
11
73.5
21
-33.1
31
0
0
LINE
8
0
6
CONTINUOUS
10
73.5
20
-33.1
30
0
11
73.5
21
-40.5
31
0
0
LINE
8
0
6
CONTINUOUS
10
73.5
20
-40.5
30
0
11
40.5
21
-40.5
31
0
0
LINE
8
0
6
CONTINUOUS
10
40.5
20
-40.5
30
0
11
40.5
21
-37.89
31
0
0
ARC
8
0
6
CONTINUOUS
10
39.95
20
-37.99535653752853
30
0
40
0.5600000000000007
50
10.844062563697038
51
169.1559374363031
0
LINE
8
0
6
CONTINUOUS
10
39.4
20
-37.89
30
0
11
39.4
21
-40.5
31
0
0
LINE
8
0
6
CONTINUOUS
10
39.4
20
-40.5
30
0
11
38.02
21
-40.5
31
0
0
LINE
8
0
6
CONTINUOUS
10
38.02
20
-40.5
30
0
11
33.82
21
-38.67
31
0
0
LINE
8
0
6
CONTINUOUS
10
33.82
20
-38.67
30
0
11
-0.5
21
-32.41
31
0
0
LINE
8
0
6
CONTINUOUS
10
-0.5
20
-32.41
30
0
11
-0.5
21
-21.6
31
0
0
LINE
8
0
6
CONTINUOUS
10
-0.5
20
-21.6
30
0
11
2.05
21
-21.6
31
0
0
ARC
8
0
6
CONTINUOUS
10
1.9446434624714721
20
-21.05
30
0
40
0.5600000000000007
50
280.84406256369687
51
79.15593743630315
0
LINE
8
0
6
CONTINUOUS
10
2.05
20
-20.5
30
0
11
-0.5
21
-20.5
31
0
0
LINE
8
0
6
CONTINUOUS
10
-0.5
20
-20.5
30
0
11
-0.5
21
-10.71
31
0
0
ARC
8
0
6
CONTINUOUS
10
0.2299321221797751
20
-10.71995474811985
30
0
40
0.73
50
113.40121115651344
51
179.2186537915271
0
LINE
8
0
6
CONTINUOUS
10
-0.06
20
-10.05
30
0
11
1.88
21
-9.2
31
0
0
LINE
8
0
6
CONTINUOUS
10
1.88
20
-9.2
30
0
11
11.19
21
-9.2
31
0
0
LINE
8
0
6
CONTINUOUS
10
74.2
20
-20.5
30
0
11
74.2
21
-9.2
31
0
0
LINE
8
0
6
CONTINUOUS
10
74.2
20
-9.2
30
0
11
77.8
21
-9.2
31
0
0
LINE
8
0
6
CONTINUOUS
10
77.8
20
-9.2
30
0
11
77.8
21
-20.5
31
0
0
LINE
8
0
6
CONTINUOUS
10
77.8
20
-20.5
30
0
11
74.2
21
-20.5
31
0
0
LINE
8
0
6
CONTINUOUS
10
78.9
20
-20.5
30
0
11
78.9
21
-9.2
31
0
0
LINE
8
0
6
CONTINUOUS
10
78.9
20
-9.2
30
0
11
85.7
21
-9.2
31
0
0
LINE
8
0
6
CONTINUOUS
10
85.7
20
-9.2
30
0
11
85.7
21
-20.5
31
0
0
LINE
8
0
6
CONTINUOUS
10
85.7
20
-20.5
30
0
11
78.9
21
-20.5
31
0
0
LINE
8
0
6
CONTINUOUS
10
78.9
20
-21.2
30
0
11
85.7
21
-21.2
31
0
0
LINE
8
0
6
CONTINUOUS
10
85.7
20
-21.2
30
0
11
85.7
21
-32.0
31
0
0
LINE
8
0
6
CONTINUOUS
10
85.7
20
-32.0
30
0
11
78.9
21
-32.0
31
0
0
LINE
8
0
6
CONTINUOUS
10
78.9
20
-32.0
30
0
11
78.9
21
-21.2
31
0
0
LINE
8
0
6
CONTINUOUS
10
74.2
20
-21.2
30
0
11
77.8
21
-21.2
31
0
0
LINE
8
0
6
CONTINUOUS
10
77.8
20
-21.2
30
0
11
77.8
21
-37.77
31
0
0
ARC
8
0
6
CONTINUOUS
10
78.92954584312753
20
-40.00027491316056
30
0
40
2.5
50
116.86040656100367
51
191.53052863910227
0
LINE
8
0
6
CONTINUOUS
10
76.48
20
-40.5
30
0
11
74.2
21
-40.5
31
0
0
LINE
8
0
6
CONTINUOUS
10
74.2
20
-40.5
30
0
11
74.2
21
-21.2
31
0
0
LINE
8
0
6
CONTINUOUS
10
78.9
20
-33.1
30
0
11
85.7
21
-33.1
31
0
0
LINE
8
0
6
CONTINUOUS
10
85.7
20
-33.1
30
0
11
85.7
21
-36.5
31
0
0
LINE
8
0
6
CONTINUOUS
10
85.7
20
-36.5
30
0
11
78.9
21
-36.5
31
0
0
LINE
8
0
6
CONTINUOUS
10
78.9
20
-36.5
30
0
11
78.9
21
-33.1
31
0
0
LINE
8
0
6
CONTINUOUS
10
34.0
20
-67.03
30
0
11
36.89
21
-67.9
31
0
0
ARC
8
0
6
CONTINUOUS
10
37.030001898564855
20
-67.45133590694348
30
0
40
0.47
50
252.66990186371487
51
0.16285517605836553
0
LINE
8
0
6
CONTINUOUS
10
37.5
20
-67.45
30
0
11
37.5
21
-60.92
31
0
0
LINE
8
0
6
CONTINUOUS
10
37.5
20
-60.92
30
0
11
35.57
21
-60.34
31
0
0
ARC
8
0
6
CONTINUOUS
10
35.74998641423774
20
-59.725829917132195
30
0
40
0.64
50
180.37332787374243
51
253.66644463592053
0
LINE
8
0
6
CONTINUOUS
10
35.11
20
-59.73
30
0
11
35.11
21
-58.14
31
0
0
ARC
8
0
6
CONTINUOUS
10
34.410022074395435
20
-58.134440893387975
30
0
40
0.7
50
359.54497615019307
51
124.85210628993912
0
LINE
8
0
6
CONTINUOUS
10
34.01
20
-57.56
30
0
11
34.01
21
-58.64
31
0
0
LINE
8
0
6
CONTINUOUS
10
34.01
20
-58.64
30
0
11
32.8
21
-58.86
31
0
0
LINE
8
0
6
CONTINUOUS
10
32.8
20
-58.86
30
0
11
32.8
21
-57.43
31
0
0
LINE
8
0
6
CONTINUOUS
10
32.8
20
-57.43
30
0
11
31.31
21
-57.43
31
0
0
ARC
8
0
6
CONTINUOUS
10
31.8099921193349
20
-58.29602995364074
30
0
40
1.0
50
119.99947862076371
51
180.2274674983887
0
LINE
8
0
6
CONTINUOUS
10
30.81
20
-58.3
30
0
11
30.81
21
-63.51
31
0
0
LINE
8
0
6
CONTINUOUS
10
30.81
20
-63.51
30
0
11
32.81
21
-64.48
31
0
0
LINE
8
0
6
CONTINUOUS
10
32.81
20
-64.48
30
0
11
32.81
21
-63.34
31
0
0
ARC
8
0
6
CONTINUOUS
10
33.40954296385482
20
-63.316585592209506
30
0
40
0.6
50
10.2324810564717
51
182.236479134611
0
LINE
8
0
6
CONTINUOUS
10
34.0
20
-63.21
30
0
11
34.0
21
-67.03
31
0
0
LINE
8
0
6
CONTINUOUS
10
-15.5
20
0.0
30
0
11
-15.5
21
-242.81
31
0
0
LINE
8
0
6
CONTINUOUS
10
37.5
20
-60.9
30
0
11
37.5
21
-242.81
31
0
0
LINE
8
0
6
CONTINUOUS
10
88.5
20
-22.62
30
0
11
88.5
21
-242.81
31
0
0
ENDSEC
0
EOF