0
SECTION
2
HEADER
0
ENDSEC
0
SECTION
2
TABLES
0
TABLE
2
LTYPE
70
2
0
LTYPE
2
CONTINUOUS
70
0
3
Solid line
72
65
73
0
40
0.0
0
ENDTAB
0
TABLE
2
LAYER
70
1
0
LAYER
2
0
70
0
62
7
6
CONTINUOUS
0
ENDTAB
0
ENDSEC
0
SECTION
2
ENTITIES
0
LINE
8
0
6
CONTINUOUS
10
-518.5
20
-1013.72
30
0
11
-931.26
21
-1013.72
31
0
0
LINE
8
0
6
CONTINUOUS
10
-518.5
20
-1033.3
30
0
11
-931.26
21
-1033.3
31
0
0
LINE
8
0
6
CONTINUOUS
10
-518.5
20
-1023.51
30
0
11
-931.26
21
-1023.51
31
0
0
LINE
8
0
6
CONTINUOUS
10
-921.26
20
-1050.51
30
0
11
-921.26
21
-991.51
31
0
0
LINE
8
0
6
CONTINUOUS
10
-518.5
20
-1050.51
30
0
11
-518.5
21
-991.51
31
0
0
LINE
8
0
6
CONTINUOUS
10
-518.5
20
-996.51
30
0
11
-931.26
21
-996.51
31
0
0
LINE
8
0
6
CONTINUOUS
10
-520.5
20
-991.51
30
0
11
-520.5
21
-1050.51
31
0
0
LINE
8
0
6
CONTINUOUS
10
-518.5
20
-1050.51
30
0
11
-931.26
21
-1050.51
31
0
0
LINE
8
0
6
CONTINUOUS
10
-535.5
20
-991.51
30
0
11
-535.5
21
-1050.51
31
0
0
LINE
8
0
6
CONTINUOUS
10
-931.26
20
-991.51
30
0
11
-931.26
21
-1050.51
31
0
0
LINE
8
0
6
CONTINUOUS
10
-931.26
20
-991.51
30
0
11
-518.5
21
-991.51
31
0
0
LINE
8
0
6
CONTINUOUS
10
-521.5
20
-996.51
30
0
11
-920.26
21
-996.51
31
0
0
LINE
8
0
6
CONTINUOUS
10
-920.26
20
-996.51
30
0
11
-921.26
21
-997.51
31
0
0
LINE
8
0
6
CONTINUOUS
10
-921.26
20
-997.51
30
0
11
-921.26
21
-1049.51
31
0
0
LINE
8
0
6
CONTINUOUS
10
-921.26
20
-1049.51
30
0
11
-920.26
21
-1050.51
31
0
0
LINE
8
0
6
CONTINUOUS
10
-920.26
20
-1050.51
30
0
11
-521.5
21
-1050.51
31
0
0
LINE
8
0
6
CONTINUOUS
10
-521.5
20
-1050.51
30
0
11
-520.5
21
-1049.51
31
0
0
LINE
8
0
6
CONTINUOUS
10
-520.5
20
-1049.51
30
0
11
-520.5
21
-997.51
31
0
0
LINE
8
0
6
CONTINUOUS
10
-520.5
20
-997.51
30
0
11
-521.5
21
-996.51
31
0
0
LINE
8
0
6
CONTINUOUS
10
-885.26
20
-1046.51
30
0
11
-885.26
21
-1000.51
31
0
0
LINE
8
0
6
CONTINUOUS
10
-885.26
20
-1000.51
30
0
11
-921.26
21
-1000.51
31
0
0
LINE
8
0
6
CONTINUOUS
10
-921.26
20
-1000.51
30
0
11
-921.26
21
-1046.51
31
0
0
LINE
8
0
6
CONTINUOUS
10
-921.26
20
-1046.51
30
0
11
-885.26
21
-1046.51
31
0
0
LINE
8
0
6
CONTINUOUS
10
-556.5
20
-1046.51
30
0
11
-520.5
21
-1046.51
31
0
0
LINE
8
0
6
CONTINUOUS
10
-520.5
20
-1046.51
30
0
11
-520.5
21
-1000.51
31
0
0
LINE
8
0
6
CONTINUOUS
10
-520.5
20
-1000.51
30
0
11
-556.5
21
-1000.51
31
0
0
LINE
8
0
6
CONTINUOUS
10
-556.5
20
-1000.51
30
0
11
-556.5
21
-1046.51
31
0
0
LINE
8
0
6
CONTINUOUS
10
-535.5
20
-991.51
30
0
11
-518.5
21
-991.51
31
0
0
LINE
8
0
6
CONTINUOUS
10
-535.5
20
-996.51
30
0
11
-535.5
21
-991.51
31
0
0
LINE
8
0
6
CONTINUOUS
10
-518.5
20
-996.51
30
0
11
-535.5
21
-996.51
31
0
0
LINE
8
0
6
CONTINUOUS
10
-518.5
20
-991.51
30
0
11
-518.5
21
-996.51
31
0
0
LINE
8
0
6
CONTINUOUS
10
-518.5
20
-996.51
30
0
11
-535.5
21
-991.51
31
0
0
LINE
8
0
6
CONTINUOUS
10
-535.5
20
-996.51
30
0
11
-518.5
21
-991.51
31
0
0
LINE
8
0
6
CONTINUOUS
10
-520.5
20
-1046.51
30
0
11
-921.26
21
-1046.51
31
0
0
LINE
8
0
6
CONTINUOUS
10
-921.26
20
-1000.51
30
0
11
-520.5
21
-1000.51
31
0
0
ENDSEC
0
EOF