0
SECTION
2
HEADER
0
ENDSEC
0
SECTION
2
TABLES
0
TABLE
2
LTYPE
70
2
0
LTYPE
2
CONTINUOUS
70
0
3
Solid line
72
65
73
0
40
0.0
0
ENDTAB
0
TABLE
2
LAYER
70
1
0
LAYER
2
0
70
0
62
7
6
CONTINUOUS
0
ENDTAB
0
ENDSEC
0
SECTION
2
ENTITIES
0
LINE
8
0
6
CONTINUOUS
10
0.0
20
0.0
30
0
11
0.0
21
62.0
31
0
0
LINE
8
0
6
CONTINUOUS
10
-0.11
20
0.0
30
0
11
71.41
21
0.0
31
0
0
LINE
8
0
6
CONTINUOUS
10
22.0
20
62.0
30
0
11
46.0
21
62.0
31
0
0
LINE
8
0
6
CONTINUOUS
10
46.0
20
62.0
30
0
11
46.0
21
57.8
31
0
0
LINE
8
0
6
CONTINUOUS
10
46.0
20
57.8
30
0
11
44.48
21
57.8
31
0
0
LINE
8
0
6
CONTINUOUS
10
44.48
20
57.8
30
0
11
44.48
21
60.2
31
0
0
LINE
8
0
6
CONTINUOUS
10
44.48
20
60.2
30
0
11
41.0
21
60.2
31
0
0
LINE
8
0
6
CONTINUOUS
10
41.0
20
60.2
30
0
11
41.0
21
45.7
31
0
0
LINE
8
0
6
CONTINUOUS
10
41.0
20
45.7
30
0
11
44.48
21
45.7
31
0
0
LINE
8
0
6
CONTINUOUS
10
44.48
20
45.7
30
0
11
44.48
21
47.88
31
0
0
LINE
8
0
6
CONTINUOUS
10
44.48
20
47.88
30
0
11
45.8
21
47.88
31
0
0
LINE
8
0
6
CONTINUOUS
10
45.8
20
47.88
30
0
11
45.8
21
42.36
31
0
0
LINE
8
0
6
CONTINUOUS
10
45.8
20
42.36
30
0
11
44.48
21
42.36
31
0
0
LINE
8
0
6
CONTINUOUS
10
44.48
20
42.36
30
0
11
44.48
21
44.0
31
0
0
LINE
8
0
6
CONTINUOUS
10
44.48
20
44.0
30
0
11
41.0
21
44.0
31
0
0
LINE
8
0
6
CONTINUOUS
10
41.0
20
44.0
30
0
11
41.0
21
40.11
31
0
0
LINE
8
0
6
CONTINUOUS
10
41.0
20
40.11
30
0
11
38.81
21
41.38
31
0
0
LINE
8
0
6
CONTINUOUS
10
38.81
20
41.38
30
0
11
39.63
21
39.92
31
0
0
LINE
8
0
6
CONTINUOUS
10
39.63
20
39.92
30
0
11
40.95
21
39.16
31
0
0
LINE
8
0
6
CONTINUOUS
10
40.95
20
39.16
30
0
11
40.95
21
27.24
31
0
0
LINE
8
0
6
CONTINUOUS
10
40.95
20
27.24
30
0
11
45.45
21
27.24
31
0
0
LINE
8
0
6
CONTINUOUS
10
45.45
20
27.24
30
0
11
45.45
21
24.6
31
0
0
LINE
8
0
6
CONTINUOUS
10
45.45
20
24.6
30
0
11
44.45
21
24.6
31
0
0
LINE
8
0
6
CONTINUOUS
10
44.45
20
24.6
30
0
11
44.45
21
26.0
31
0
0
LINE
8
0
6
CONTINUOUS
10
44.45
20
26.0
30
0
11
40.95
21
26.0
31
0
0
LINE
8
0
6
CONTINUOUS
10
40.95
20
26.0
30
0
11
40.95
21
22.84
31
0
0
LINE
8
0
6
CONTINUOUS
10
40.95
20
22.84
30
0
11
39.63
21
22.08
31
0
0
LINE
8
0
6
CONTINUOUS
10
39.63
20
22.08
30
0
11
38.81
21
20.62
31
0
0
LINE
8
0
6
CONTINUOUS
10
38.81
20
20.62
30
0
11
41.0
21
21.89
31
0
0
LINE
8
0
6
CONTINUOUS
10
41.0
20
21.89
30
0
11
41.0
21
17.8
31
0
0
LINE
8
0
6
CONTINUOUS
10
41.0
20
17.8
30
0
11
44.48
21
17.8
31
0
0
LINE
8
0
6
CONTINUOUS
10
44.48
20
17.8
30
0
11
44.48
21
19.16
31
0
0
LINE
8
0
6
CONTINUOUS
10
44.48
20
19.16
30
0
11
45.5
21
19.16
31
0
0
LINE
8
0
6
CONTINUOUS
10
45.5
20
19.16
30
0
11
45.5
21
14.73
31
0
0
LINE
8
0
6
CONTINUOUS
10
45.5
20
14.73
30
0
11
44.48
21
14.73
31
0
0
LINE
8
0
6
CONTINUOUS
10
44.48
20
14.73
30
0
11
44.48
21
16.1
31
0
0
LINE
8
0
6
CONTINUOUS
10
44.48
20
16.1
30
0
11
41.0
21
16.1
31
0
0
LINE
8
0
6
CONTINUOUS
10
41.0
20
16.1
30
0
11
41.0
21
2.0
31
0
0
LINE
8
0
6
CONTINUOUS
10
41.0
20
2.0
30
0
11
57.0
21
1.8
31
0
0
LINE
8
0
6
CONTINUOUS
10
57.0
20
1.8
30
0
11
60.0
21
1.8
31
0
0
LINE
8
0
6
CONTINUOUS
10
60.0
20
1.8
30
0
11
60.0
21
3.2
31
0
0
LINE
8
0
6
CONTINUOUS
10
60.0
20
3.2
30
0
11
58.52
21
3.2
31
0
0
LINE
8
0
6
CONTINUOUS
10
58.52
20
3.2
30
0
11
58.52
21
4.0
31
0
0
LINE
8
0
6
CONTINUOUS
10
58.52
20
4.0
30
0
11
62.5
21
4.0
31
0
0
LINE
8
0
6
CONTINUOUS
10
62.5
20
4.0
30
0
11
62.5
21
3.0
31
0
0
LINE
8
0
6
CONTINUOUS
10
62.5
20
3.0
30
0
11
61.2
21
3.0
31
0
0
LINE
8
0
6
CONTINUOUS
10
61.2
20
3.0
30
0
11
61.2
21
1.4
31
0
0
LINE
8
0
6
CONTINUOUS
10
61.2
20
1.4
30
0
11
66.8
21
1.4
31
0
0
LINE
8
0
6
CONTINUOUS
10
66.8
20
1.4
30
0
11
66.8
21
3.0
31
0
0
LINE
8
0
6
CONTINUOUS
10
66.8
20
3.0
30
0
11
65.5
21
3.0
31
0
0
LINE
8
0
6
CONTINUOUS
10
65.5
20
3.0
30
0
11
65.5
21
4.0
31
0
0
LINE
8
0
6
CONTINUOUS
10
65.5
20
4.0
30
0
11
68.0
21
4.0
31
0
0
LINE
8
0
6
CONTINUOUS
10
68.0
20
4.0
30
0
11
68.0
21
0.0
31
0
0
LINE
8
0
6
CONTINUOUS
10
68.0
20
0.0
30
0
11
0.0
21
0.0
31
0
0
LINE
8
0
6
CONTINUOUS
10
0.0
20
0.0
30
0
11
0.0
21
10.2
31
0
0
LINE
8
0
6
CONTINUOUS
10
0.0
20
10.2
30
0
11
2.5
21
10.2
31
0
0
LINE
8
0
6
CONTINUOUS
10
2.5
20
10.2
30
0
11
2.5
21
9.2
31
0
0
LINE
8
0
6
CONTINUOUS
10
2.5
20
9.2
30
0
11
1.2
21
9.2
31
0
0
LINE
8
0
6
CONTINUOUS
10
1.2
20
9.2
30
0
11
1.2
21
7.8
31
0
0
LINE
8
0
6
CONTINUOUS
10
1.2
20
7.8
30
0
11
6.82
21
7.8
31
0
0
LINE
8
0
6
CONTINUOUS
10
6.82
20
7.8
30
0
11
6.82
21
9.2
31
0
0
LINE
8
0
6
CONTINUOUS
10
6.82
20
9.2
30
0
11
5.52
21
9.2
31
0
0
LINE
8
0
6
CONTINUOUS
10
5.52
20
9.2
30
0
11
5.52
21
10.2
31
0
0
LINE
8
0
6
CONTINUOUS
10
5.52
20
10.2
30
0
11
27.0
21
10.2
31
0
0
LINE
8
0
6
CONTINUOUS
10
27.0
20
10.2
30
0
11
27.0
21
16.8
31
0
0
LINE
8
0
6
CONTINUOUS
10
27.0
20
16.8
30
0
11
23.22
21
16.8
31
0
0
LINE
8
0
6
CONTINUOUS
10
23.22
20
16.8
30
0
11
23.22
21
14.88
31
0
0
LINE
8
0
6
CONTINUOUS
10
23.22
20
14.88
30
0
11
22.2
21
14.88
31
0
0
LINE
8
0
6
CONTINUOUS
10
22.2
20
14.88
30
0
11
22.2
21
18.5
31
0
0
LINE
8
0
6
CONTINUOUS
10
22.2
20
18.5
30
0
11
27.0
21
18.5
31
0
0
LINE
8
0
6
CONTINUOUS
10
27.0
20
18.5
30
0
11
27.0
21
21.89
31
0
0
LINE
8
0
6
CONTINUOUS
10
27.0
20
21.89
30
0
11
29.19
21
20.62
31
0
0
LINE
8
0
6
CONTINUOUS
10
29.19
20
20.62
30
0
11
28.37
21
22.08
31
0
0
LINE
8
0
6
CONTINUOUS
10
28.37
20
22.08
30
0
11
27.05
21
22.84
31
0
0
LINE
8
0
6
CONTINUOUS
10
27.05
20
22.84
30
0
11
27.05
21
39.16
31
0
0
LINE
8
0
6
CONTINUOUS
10
27.05
20
39.16
30
0
11
28.37
21
39.92
31
0
0
LINE
8
0
6
CONTINUOUS
10
28.37
20
39.92
30
0
11
29.19
21
41.38
31
0
0
LINE
8
0
6
CONTINUOUS
10
29.19
20
41.38
30
0
11
27.0
21
40.11
31
0
0
LINE
8
0
6
CONTINUOUS
10
27.0
20
40.11
30
0
11
27.0
21
44.0
31
0
0
LINE
8
0
6
CONTINUOUS
10
27.0
20
44.0
30
0
11
23.52
21
44.0
31
0
0
LINE
8
0
6
CONTINUOUS
10
23.52
20
44.0
30
0
11
23.52
21
42.36
31
0
0
LINE
8
0
6
CONTINUOUS
10
23.52
20
42.36
30
0
11
22.2
21
42.36
31
0
0
LINE
8
0
6
CONTINUOUS
10
22.2
20
42.36
30
0
11
22.2
21
47.88
31
0
0
LINE
8
0
6
CONTINUOUS
10
22.2
20
47.88
30
0
11
23.52
21
47.88
31
0
0
LINE
8
0
6
CONTINUOUS
10
23.52
20
47.88
30
0
11
23.52
21
45.7
31
0
0
LINE
8
0
6
CONTINUOUS
10
23.52
20
45.7
30
0
11
27.0
21
45.7
31
0
0
LINE
8
0
6
CONTINUOUS
10
27.0
20
45.7
30
0
11
27.0
21
60.2
31
0
0
LINE
8
0
6
CONTINUOUS
10
27.0
20
60.2
30
0
11
23.52
21
60.2
31
0
0
LINE
8
0
6
CONTINUOUS
10
23.52
20
60.2
30
0
11
23.52
21
57.8
31
0
0
LINE
8
0
6
CONTINUOUS
10
23.52
20
57.8
30
0
11
22.0
21
57.8
31
0
0
LINE
8
0
6
CONTINUOUS
10
22.0
20
57.8
30
0
11
22.0
21
62.0
31
0
0
LINE
8
0
6
CONTINUOUS
10
28.5
20
45.1
30
0
11
39.5
21
45.1
31
0
0
LINE
8
0
6
CONTINUOUS
10
39.5
20
45.1
30
0
11
39.5
21
60.5
31
0
0
LINE
8
0
6
CONTINUOUS
10
39.5
20
60.5
30
0
11
28.5
21
60.5
31
0
0
LINE
8
0
6
CONTINUOUS
10
28.5
20
60.5
30
0
11
28.5
21
45.1
31
0
0
LINE
8
0
6
CONTINUOUS
10
31.07
20
43.5
30
0
11
29.77
21
43.5
31
0
0
LINE
8
0
6
CONTINUOUS
10
29.77
20
43.5
30
0
11
29.77
21
42.06
31
0
0
LINE
8
0
6
CONTINUOUS
10
29.77
20
42.06
30
0
11
31.07
21
42.06
31
0
0
LINE
8
0
6
CONTINUOUS
10
31.07
20
42.06
30
0
11
31.07
21
43.5
31
0
0
LINE
8
0
6
CONTINUOUS
10
38.23
20
43.5
30
0
11
36.93
21
43.5
31
0
0
LINE
8
0
6
CONTINUOUS
10
36.93
20
43.5
30
0
11
36.93
21
42.06
31
0
0
LINE
8
0
6
CONTINUOUS
10
36.93
20
42.06
30
0
11
38.23
21
42.06
31
0
0
LINE
8
0
6
CONTINUOUS
10
38.23
20
42.06
30
0
11
38.23
21
43.5
31
0
0
LINE
8
0
6
CONTINUOUS
10
36.5
20
41.01
30
0
11
31.5
21
41.01
31
0
0
LINE
8
0
6
CONTINUOUS
10
31.5
20
41.01
30
0
11
29.05
21
36.36
31
0
0
LINE
8
0
6
CONTINUOUS
10
29.05
20
36.36
30
0
11
29.05
21
25.64
31
0
0
LINE
8
0
6
CONTINUOUS
10
29.05
20
25.64
30
0
11
31.69
21
20.62
31
0
0
LINE
8
0
6
CONTINUOUS
10
31.69
20
20.62
30
0
11
36.31
21
20.62
31
0
0
LINE
8
0
6
CONTINUOUS
10
36.31
20
20.62
30
0
11
38.95
21
25.64
31
0
0
LINE
8
0
6
CONTINUOUS
10
38.95
20
25.64
30
0
11
38.95
21
36.36
31
0
0
LINE
8
0
6
CONTINUOUS
10
38.95
20
36.36
30
0
11
36.5
21
41.01
31
0
0
LINE
8
0
6
CONTINUOUS
10
38.23
20
19.94
30
0
11
36.93
21
19.94
31
0
0
LINE
8
0
6
CONTINUOUS
10
36.93
20
19.94
30
0
11
36.93
21
18.5
31
0
0
LINE
8
0
6
CONTINUOUS
10
36.93
20
18.5
30
0
11
38.23
21
18.5
31
0
0
LINE
8
0
6
CONTINUOUS
10
38.23
20
18.5
30
0
11
38.23
21
19.94
31
0
0
LINE
8
0
6
CONTINUOUS
10
29.77
20
19.94
30
0
11
29.77
21
18.5
31
0
0
LINE
8
0
6
CONTINUOUS
10
29.77
20
18.5
30
0
11
31.07
21
18.5
31
0
0
LINE
8
0
6
CONTINUOUS
10
31.07
20
18.5
30
0
11
31.07
21
19.94
31
0
0
LINE
8
0
6
CONTINUOUS
10
31.07
20
19.94
30
0
11
29.77
21
19.94
31
0
0
LINE
8
0
6
CONTINUOUS
10
39.5
20
16.77
30
0
11
28.5
21
16.77
31
0
0
LINE
8
0
6
CONTINUOUS
10
28.5
20
16.77
30
0
11
28.5
21
1.5
31
0
0
LINE
8
0
6
CONTINUOUS
10
28.5
20
1.5
30
0
11
39.5
21
1.5
31
0
0
LINE
8
0
6
CONTINUOUS
10
39.5
20
1.5
30
0
11
39.5
21
16.77
31
0
0
LINE
8
0
6
CONTINUOUS
10
27.0
20
8.8
30
0
11
8.17
21
8.8
31
0
0
LINE
8
0
6
CONTINUOUS
10
8.17
20
8.8
30
0
11
8.17
21
6.6
31
0
0
LINE
8
0
6
CONTINUOUS
10
8.17
20
6.6
30
0
11
1.2
21
6.6
31
0
0
LINE
8
0
6
CONTINUOUS
10
1.2
20
6.6
30
0
11
1.2
21
1.4
31
0
0
LINE
8
0
6
CONTINUOUS
10
1.2
20
1.4
30
0
11
27.0
21
1.4
31
0
0
LINE
8
0
6
CONTINUOUS
10
27.0
20
1.4
30
0
11
27.0
21
8.8
31
0
0
LINE
8
0
6
CONTINUOUS
10
42.98
20
48.3
30
0
11
44.23
21
46.2
31
0
0
LINE
8
0
6
CONTINUOUS
10
44.23
20
46.2
30
0
11
43.14
21
46.2
31
0
0
LINE
8
0
6
CONTINUOUS
10
43.14
20
46.2
30
0
11
41.5
21
48.28
31
0
0
LINE
8
0
6
CONTINUOUS
10
41.5
20
48.28
30
0
11
41.5
21
49.4
31
0
0
LINE
8
0
6
CONTINUOUS
10
49.42
20
60.5
30
0
11
47.59
21
56.72
31
0
0
LINE
8
0
6
CONTINUOUS
10
47.59
20
56.72
30
0
11
46.51
21
56.1
31
0
0
LINE
8
0
6
CONTINUOUS
10
46.51
20
56.1
30
0
11
43.1
21
56.1
31
0
0
LINE
8
0
6
CONTINUOUS
10
43.1
20
56.1
30
0
11
43.1
21
57.3
31
0
0
LINE
8
0
6
CONTINUOUS
10
43.1
20
57.3
30
0
11
46.0
21
57.3
31
0
0
LINE
8
0
6
CONTINUOUS
10
46.0
20
57.3
30
0
11
46.79
21
57.8
31
0
0
LINE
8
0
6
CONTINUOUS
10
46.79
20
57.8
30
0
11
47.74
21
59.91
31
0
0
LINE
8
0
6
CONTINUOUS
10
47.74
20
59.91
30
0
11
47.74
21
60.8
31
0
0
LINE
8
0
6
CONTINUOUS
10
47.74
20
60.8
30
0
11
46.5
21
60.8
31
0
0
LINE
8
0
6
CONTINUOUS
10
46.5
20
60.8
30
0
11
46.5
21
62.0
31
0
0
LINE
8
0
6
CONTINUOUS
10
46.5
20
62.0
30
0
11
65.8
21
62.0
31
0
0
LINE
8
0
6
CONTINUOUS
10
65.8
20
62.0
30
0
11
65.8
21
43.1
31
0
0
LINE
8
0
6
CONTINUOUS
10
65.8
20
43.1
30
0
11
63.51
21
43.1
31
0
0
LINE
8
0
6
CONTINUOUS
10
63.51
20
43.1
30
0
11
63.51
21
44.67
31
0
0
LINE
8
0
6
CONTINUOUS
10
63.51
20
44.67
30
0
11
64.6
21
44.67
31
0
0
LINE
8
0
6
CONTINUOUS
10
64.6
20
44.67
30
0
11
64.6
21
48.3
31
0
0
LINE
8
0
6
CONTINUOUS
10
64.6
20
48.3
30
0
11
42.98
21
48.3
31
0
0
LINE
8
0
6
CONTINUOUS
10
42.98
20
48.3
30
0
11
44.23
21
46.2
31
0
0
LINE
8
0
6
CONTINUOUS
10
44.23
20
46.2
30
0
11
43.14
21
46.2
31
0
0
LINE
8
0
6
CONTINUOUS
10
43.14
20
46.2
30
0
11
41.5
21
48.28
31
0
0
LINE
8
0
6
CONTINUOUS
10
41.5
20
48.28
30
0
11
41.5
21
49.4
31
0
0
LINE
8
0
6
CONTINUOUS
10
41.5
20
49.4
30
0
11
64.6
21
49.4
31
0
0
LINE
8
0
6
CONTINUOUS
10
64.6
20
49.4
30
0
11
64.3
21
60.5
31
0
0
LINE
8
0
6
CONTINUOUS
10
64.3
20
60.5
30
0
11
49.42
21
60.5
31
0
0
LINE
8
0
6
CONTINUOUS
10
49.42
20
60.5
30
0
11
47.59
21
56.72
31
0
0
LINE
8
0
6
CONTINUOUS
10
47.59
20
56.72
30
0
11
46.51
21
56.1
31
0
0
LINE
8
0
6
CONTINUOUS
10
46.51
20
56.1
30
0
11
43.1
21
56.1
31
0
0
LINE
8
0
6
CONTINUOUS
10
43.1
20
56.1
30
0
11
43.1
21
57.3
31
0
0
LINE
8
0
6
CONTINUOUS
10
43.1
20
57.3
30
0
11
46.0
21
57.3
31
0
0
LINE
8
0
6
CONTINUOUS
10
46.0
20
57.3
30
0
11
46.79
21
57.8
31
0
0
LINE
8
0
6
CONTINUOUS
10
46.79
20
57.8
30
0
11
47.74
21
59.91
31
0
0
LINE
8
0
6
CONTINUOUS
10
47.74
20
59.91
30
0
11
47.74
21
60.8
31
0
0
LINE
8
0
6
CONTINUOUS
10
47.74
20
60.8
30
0
11
46.5
21
60.8
31
0
0
LINE
8
0
6
CONTINUOUS
10
46.5
20
60.8
30
0
11
46.5
21
62.0
31
0
0
ARC
8
0
6
CONTINUOUS
10
71.21000000000001
20
36.7
30
0
40
0.2
50
269.9999999999959
51
0.0
0
ARC
8
0
6
CONTINUOUS
10
66.6014645300787
20
40.999991905076406
30
0
40
4.5
50
226.6075219764753
51
270.10867704353234
0
ARC
8
0
6
CONTINUOUS
10
62.135
20
36.277631245172216
30
0
40
2.0
50
46.56746344221022
51
133.4325365577898
0
ARC
8
0
6
CONTINUOUS
10
57.66854378311034
20
40.999999764381364
30
0
40
4.5
50
270.0185411296199
51
313.39233236259105
0
ARC
8
0
6
CONTINUOUS
10
54.45
20
36.7
30
0
40
0.2
50
180.0
51
270.0
0
ARC
8
0
6
CONTINUOUS
10
54.95549965953052
20
36.906228548027336
30
0
40
0.72
50
82.45814167207816
51
168.4816026627218
0
ARC
8
0
6
CONTINUOUS
10
55.286594703127
20
40.619970049519786
30
0
40
3.0
50
270.2560231633166
51
348.8532050249388
0
ARC
8
0
6
CONTINUOUS
10
60.06170421782906
20
41.60002294017603
30
0
40
1.5
50
89.68312284718016
51
168.8535151126931
0
ARC
8
0
6
CONTINUOUS
10
61.18572732619096
20
43.39996957222112
30
0
40
0.3
50
270.816048177982
51
315.58113284931113
0
ARC
8
0
6
CONTINUOUS
10
62.305361448532246
20
43.74181929855152
30
0
40
0.25
50
30.845365267308917
51
134.54311566606773
0
ARC
8
0
6
CONTINUOUS
10
63.13980765673468
20
43.3999999383401
30
0
40
0.3
50
209.99998640204763
51
270.03673486025184
0
ARC
8
0
6
CONTINUOUS
10
65.5
20
43.4
30
0
40
0.3
50
270.0
51
0.0
0
ARC
8
0
6
CONTINUOUS
10
66.09989538711987
20
45.53792191796361
30
0
40
0.3
50
50.67769754407569
51
181.5131507707012
0
ARC
8
0
6
CONTINUOUS
10
59.77331414014385
20
38.74794863277469
30
0
40
9.58
50
356.00190883932305
51
47.13770851012735
0
ARC
8
0
6
CONTINUOUS
10
69.03059410249756
20
38.09887083836924
30
0
40
0.3
50
248.36780104052963
51
356.39355437260826
0
ARC
8
0
6
CONTINUOUS
10
70.46690232297325
20
42.045765398502375
30
0
40
4.5
50
207.90117034784893
51
249.894119749209
0
ARC
8
0
6
CONTINUOUS
10
66.20046375257269
20
39.89981294846452
30
0
40
0.29231188426986005
50
7.902053539277673
51
217.96214733590298
0
ARC
8
0
6
CONTINUOUS
10
71.52957845020967
20
44.66415690041934
30
0
40
7.44
50
221.64683179543056
51
265.22306585041343
0
ARC
8
0
6
CONTINUOUS
10
70.91
20
36.75
30
0
40
0.5
50
0.0
51
90.0
0
LINE
8
0
6
CONTINUOUS
10
71.21
20
36.5
30
0
11
66.61
21
36.5
31
0
0
LINE
8
0
6
CONTINUOUS
10
57.67
20
36.5
30
0
11
54.45
21
36.5
31
0
0
LINE
8
0
6
CONTINUOUS
10
54.25
20
36.7
30
0
11
54.25
21
37.05
31
0
0
LINE
8
0
6
CONTINUOUS
10
55.05
20
37.62
30
0
11
55.3
21
37.62
31
0
0
LINE
8
0
6
CONTINUOUS
10
58.23
20
40.04
30
0
11
58.59
21
41.89
31
0
0
LINE
8
0
6
CONTINUOUS
10
60.07
20
43.1
30
0
11
61.19
21
43.1
31
0
0
LINE
8
0
6
CONTINUOUS
10
61.4
20
43.19
30
0
11
62.13
21
43.92
31
0
0
LINE
8
0
6
CONTINUOUS
10
62.52
20
43.87
30
0
11
62.88
21
43.25
31
0
0
LINE
8
0
6
CONTINUOUS
10
63.14
20
43.1
30
0
11
65.5
21
43.1
31
0
0
LINE
8
0
6
CONTINUOUS
10
65.8
20
43.4
30
0
11
65.8
21
45.53
31
0
0
LINE
8
0
6
CONTINUOUS
10
65.25
20
43.1
30
0
11
63.95
21
43.1
31
0
0
ARC
8
0
6
CONTINUOUS
10
62.779999999999994
20
2.8000000000000003
30
0
40
0.2
50
270.00000000000205
51
359.9999999999999
0
ARC
8
0
6
CONTINUOUS
10
66.75587400753977
20
6.3000283743648104
30
0
40
0.3
50
89.21196864127506
51
123.56711202679719
0
ARC
8
0
6
CONTINUOUS
10
69.235
20
8.891173280221295
30
0
40
2.49
50
246.9480078519287
51
293.0519921480713
0
ARC
8
0
6
CONTINUOUS
10
67.16001138605763
20
6.608837885816612
30
0
40
3.43
50
288.1767879119486
51
359.8523690619761
0
ARC
8
0
6
CONTINUOUS
10
67.75303329295423
20
3.5000092009508035
30
0
40
0.5
50
342.54129161244754
51
90.34759190072805
0
ARC
8
0
6
CONTINUOUS
10
65.85
20
3.5
30
0
40
0.5
50
90.0
51
180.0
0
ARC
8
0
6
CONTINUOUS
10
65.58
20
2.83
30
0
40
0.23
50
180.0
51
270.0
0
ARC
8
0
6
CONTINUOUS
10
65.65
20
2.3000000000000003
30
0
40
0.3
50
359.99999999999994
51
90.0
0
ARC
8
0
6
CONTINUOUS
10
62.449999999999996
20
2.3000000000000003
30
0
40
0.3
50
89.99999999999865
51
180.00000000000009
0
ARC
8
0
6
CONTINUOUS
10
62.010827210271685
20
3.0599487372203704
30
0
40
0.97
50
2.366413263573429
51
75.72537187409628
0
ARC
8
0
6
CONTINUOUS
10
61.46441537965465
20
4.183321200992452
30
0
40
0.49
50
152.44435862760645
51
201.97023664096605
0
ARC
8
0
6
CONTINUOUS
10
61.29071123472721
20
4.261576106751604
30
0
40
0.3
50
95.87570709971803
51
150.34697682102544
0
ARC
8
0
6
CONTINUOUS
10
59.883357109768994
20
16.3801038215735
30
0
40
11.9
50
276.6430946314083
51
304.30398030503926
0
ARC
8
0
6
CONTINUOUS
10
63.85
20
2.6
30
0
40
0.3
50
180.0
51
270.0
0
ARC
8
0
6
CONTINUOUS
10
64.25
20
2.6
30
0
40
0.3
50
270.0
51
0.0
0
ARC
8
0
6
CONTINUOUS
10
64.25004121283526
20
3.7850274752235036
30
0
40
0.3
50
0.9497257676694888
51
66.43040928428948
0
ARC
8
0
6
CONTINUOUS
10
63.84995725480642
20
3.9650641177903663
30
0
40
0.3
50
66.41291385919796
51
180.96722119276131
0
ARC
8
0
6
CONTINUOUS
10
59.923422436813276
20
16.402349637877727
30
0
40
12.7
50
297.81768477031005
51
303.48365114379504
0
ARC
8
0
6
CONTINUOUS
10
65.98045275476585
20
4.89984804503021
30
0
40
0.3
50
115.77527334434087
51
271.823697447698
0
ARC
8
0
6
CONTINUOUS
10
67.74868443135202
20
3.500000786691584
30
0
40
1.1
50
58.70947589075966
51
89.93147586440162
0
ARC
8
0
6
CONTINUOUS
10
68.47741258889084
20
4.695384566602374
30
0
40
0.3
50
238.35136958449073
51
305.12003959336397
0
ARC
8
0
6
CONTINUOUS
10
67.16759063152232
20
6.62240936847768
30
0
40
2.63
50
304.3088575996935
51
325.6911424003068
0
ARC
8
0
6
CONTINUOUS
10
69.09287409229691
20
5.310084642875015
30
0
40
0.3
50
325.4622701445334
51
88.63892386964065
0
ARC
8
0
6
CONTINUOUS
10
69.2233899965225
20
8.897685342115054
30
0
40
3.29
50
246.0909673612223
51
267.8506430228898
0
ARC
8
0
6
CONTINUOUS
10
67.48277741218357
20
4.9766710537971015
30
0
40
1.0
50
65.9695188875606
51
123.55776449389052
0
LINE
8
0
6
CONTINUOUS
10
62.98
20
2.8
30
0
11
62.98
21
3.1
31
0
0
LINE
8
0
6
CONTINUOUS
10
66.76
20
6.6
30
0
11
68.26
21
6.6
31
0
0
LINE
8
0
6
CONTINUOUS
10
70.21
20
6.6
30
0
11
70.59
21
6.6
31
0
0
LINE
8
0
6
CONTINUOUS
10
67.75
20
4.0
30
0
11
65.85
21
4.0
31
0
0
LINE
8
0
6
CONTINUOUS
10
65.35
20
3.5
30
0
11
65.35
21
2.83
31
0
0
LINE
8
0
6
CONTINUOUS
10
65.95
20
2.3
30
0
11
65.95
21
2.13
31
0
0
LINE
8
0
6
CONTINUOUS
10
65.95
20
2.13
30
0
11
65.2
21
1.5
31
0
0
LINE
8
0
6
CONTINUOUS
10
65.2
20
1.5
30
0
11
62.9
21
1.5
31
0
0
LINE
8
0
6
CONTINUOUS
10
62.9
20
1.5
30
0
11
62.15
21
2.13
31
0
0
LINE
8
0
6
CONTINUOUS
10
62.15
20
2.13
30
0
11
62.15
21
2.3
31
0
0
LINE
8
0
6
CONTINUOUS
10
62.45
20
2.6
30
0
11
62.78
21
2.6
31
0
0
LINE
8
0
6
CONTINUOUS
10
62.25
20
4.0
30
0
11
61.01
21
4.0
31
0
0
LINE
8
0
6
CONTINUOUS
10
63.55
20
3.96
30
0
11
63.55
21
2.6
31
0
0
LINE
8
0
6
CONTINUOUS
10
63.85
20
2.3
30
0
11
64.25
21
2.3
31
0
0
LINE
8
0
6
CONTINUOUS
10
64.55
20
2.6
30
0
11
64.55
21
3.79
31
0
0
LINE
8
0
6
CONTINUOUS
10
64.37
20
4.06
30
0
11
63.97
21
4.24
31
0
0
LINE
8
0
6
CONTINUOUS
10
65.99
20
4.6
30
0
11
67.75
21
4.6
31
0
0
ARC
8
0
6
CONTINUOUS
10
5.548451740123134
20
9.489560571334655
30
0
40
0.3
50
174.1764757613136
51
254.84057021402333
0
ARC
8
0
6
CONTINUOUS
10
5.975855261421885
20
9.743937820492174
30
0
40
0.7
50
83.91976493024211
51
173.7619090114717
0
LINE
8
0
6
CONTINUOUS
10
5.47
20
9.2
30
0
11
6.3
21
9.03
31
0
0
LINE
8
0
6
CONTINUOUS
10
5.25
20
9.52
30
0
11
5.28
21
9.82
31
0
0
LINE
8
0
6
CONTINUOUS
10
6.3
20
9.03
30
0
11
6.3
21
8.62
31
0
0
ARC
8
0
6
CONTINUOUS
10
2.450056333370251
20
9.445813505715302
30
0
40
0.3
50
279.5831569053415
51
358.8896326927759
0
ARC
8
0
6
CONTINUOUS
10
2.05
20
9.74
30
0
40
0.7
50
0.0
51
90.0
0
ARC
8
0
6
CONTINUOUS
10
0.44999999999999996
20
10.639999999999999
30
0
40
0.2
50
179.9999999999995
51
270.0
0
ARC
8
0
6
CONTINUOUS
10
1.5490780517995684
20
11.673439023519357
30
0
40
1.66
50
109.31551259061355
51
218.50285471168218
0
ARC
8
0
6
CONTINUOUS
10
7.471442907736488
20
12.332041789376301
30
0
40
0.5
50
4.353879503798302
51
58.861124988699196
0
ARC
8
0
6
CONTINUOUS
10
7.6719190064207226
20
12.336121964832785
30
0
40
0.3
50
279.222567086155
51
6.484059517801535
0
ARC
8
0
6
CONTINUOUS
10
7.335331170794935
20
12.286655853974684
30
0
40
0.3
50
238.81717583983695
51
278.56295921212336
0
ARC
8
0
6
CONTINUOUS
10
6.484807549435551
20
11.740026962269829
30
0
40
0.5
50
59.31052878639105
51
89.4049782991913
0
ARC
8
0
6
CONTINUOUS
10
7.850009108167739
20
10.946982039632406
30
0
40
0.5
50
0.3458348835523269
51
60.00120517573639
0
ARC
8
0
6
CONTINUOUS
10
8.15
20
10.639999999999999
30
0
40
0.2
50
270.0
51
5.088887490341645e-13
0
ARC
8
0
6
CONTINUOUS
10
2.0314900916113325
20
11.229142742151149
30
0
40
1.17
50
144.41364734956446
51
173.08534163616915
0
ARC
8
0
6
CONTINUOUS
10
1.96
20
11.240000000000002
30
0
40
1.2
50
143.13010235415604
51
180.00000000000009
0
ARC
8
0
6
CONTINUOUS
10
4.421002260196569
20
8.83999748867048
30
0
40
0.2
50
269.71287240202554
51
354.26155258960745
0
ARC
8
0
6
CONTINUOUS
10
3.6890178255358044
20
8.839796593621127
30
0
40
0.2
50
185.68060827806755
51
267.41570711988845
0
ARC
8
0
6
CONTINUOUS
10
3.5689972347527332
20
10.140002513861152
30
0
40
0.2
50
89.71272771384075
51
185.7398942739721
0
ARC
8
0
6
CONTINUOUS
10
4.531002765247267
20
10.140002513861152
30
0
40
0.2
50
354.26010572602786
51
90.28727228615939
0
LINE
8
0
6
CONTINUOUS
10
2.5
20
9.15
30
0
11
1.8
21
9.02
31
0
0
LINE
8
0
6
CONTINUOUS
10
1.8
20
9.02
30
0
11
1.8
21
8.62
31
0
0
LINE
8
0
6
CONTINUOUS
10
1.8
20
8.62
30
0
11
3.16
21
7.84
31
0
0
LINE
8
0
6
CONTINUOUS
10
3.16
20
7.84
30
0
11
4.94
21
7.84
31
0
0
LINE
8
0
6
CONTINUOUS
10
4.94
20
7.84
30
0
11
6.3
21
8.62
31
0
0
LINE
8
0
6
CONTINUOUS
10
6.3
20
8.62
30
0
11
6.3
21
9.03
31
0
0
LINE
8
0
6
CONTINUOUS
10
2.75
20
9.44
30
0
11
2.75
21
9.74
31
0
0
LINE
8
0
6
CONTINUOUS
10
2.05
20
10.44
30
0
11
0.45
21
10.44
31
0
0
LINE
8
0
6
CONTINUOUS
10
1.0
20
13.24
30
0
11
6.81
21
13.24
31
0
0
LINE
8
0
6
CONTINUOUS
10
6.81
20
13.24
30
0
11
7.73
21
12.76
31
0
0
LINE
8
0
6
CONTINUOUS
10
7.72
20
12.04
30
0
11
7.38
21
11.99
31
0
0
LINE
8
0
6
CONTINUOUS
10
7.18
20
12.03
30
0
11
6.72
21
12.3
31
0
0
LINE
8
0
6
CONTINUOUS
10
6.72
20
12.3
30
0
11
1.49
21
12.34
31
0
0
LINE
8
0
6
CONTINUOUS
10
1.49
20
12.34
30
0
11
6.49
21
12.24
31
0
0
LINE
8
0
6
CONTINUOUS
10
6.74
20
12.17
30
0
11
8.1
21
11.38
31
0
0
LINE
8
0
6
CONTINUOUS
10
8.35
20
10.95
30
0
11
8.35
21
10.64
31
0
0
LINE
8
0
6
CONTINUOUS
10
8.15
20
10.44
30
0
11
6.05
21
10.44
31
0
0
LINE
8
0
6
CONTINUOUS
10
0.79
20
11.14
30
0
11
6.48
21
11.14
31
0
0
LINE
8
0
6
CONTINUOUS
10
6.48
20
11.14
30
0
11
6.51
21
11.31
31
0
0
LINE
8
0
6
CONTINUOUS
10
6.51
20
11.31
30
0
11
0.9
21
11.34
31
0
0
LINE
8
0
6
CONTINUOUS
10
0.9
20
11.34
30
0
11
0.76
21
11.17
31
0
0
LINE
8
0
6
CONTINUOUS
10
4.42
20
8.64
30
0
11
3.68
21
8.64
31
0
0
LINE
8
0
6
CONTINUOUS
10
3.49
20
8.82
30
0
11
3.37
21
10.12
31
0
0
LINE
8
0
6
CONTINUOUS
10
3.57
20
10.34
30
0
11
4.53
21
10.34
31
0
0
LINE
8
0
6
CONTINUOUS
10
4.73
20
10.12
30
0
11
4.62
21
8.82
31
0
0
ENDSEC
0
EOF