0
SECTION
2
HEADER
0
ENDSEC
0
SECTION
2
TABLES
0
TABLE
2
LTYPE
70
2
0
LTYPE
2
CONTINUOUS
70
0
3
Solid line
72
65
73
0
40
0.0
0
ENDTAB
0
TABLE
2
LAYER
70
1
0
LAYER
2
0
70
0
62
7
6
CONTINUOUS
0
ENDTAB
0
ENDSEC
0
SECTION
2
ENTITIES
0
LINE
8
0
6
CONTINUOUS
10
0.0
20
0.0
30
0
11
0.0
21
62.0
31
0
0
LINE
8
0
6
CONTINUOUS
10
-3.41
20
0.0
30
0
11
180.41
21
0.0
31
0
0
LINE
8
0
6
CONTINUOUS
10
21.5
20
62.0
30
0
11
2.2
21
62.0
31
0
0
LINE
8
0
6
CONTINUOUS
10
2.2
20
62.0
30
0
11
2.2
21
43.1
31
0
0
LINE
8
0
6
CONTINUOUS
10
2.2
20
43.1
30
0
11
4.49
21
43.1
31
0
0
LINE
8
0
6
CONTINUOUS
10
4.49
20
43.1
30
0
11
4.49
21
44.67
31
0
0
LINE
8
0
6
CONTINUOUS
10
4.49
20
44.67
30
0
11
3.4
21
44.67
31
0
0
LINE
8
0
6
CONTINUOUS
10
3.4
20
44.67
30
0
11
3.4
21
48.3
31
0
0
LINE
8
0
6
CONTINUOUS
10
3.4
20
48.3
30
0
11
25.02
21
48.3
31
0
0
LINE
8
0
6
CONTINUOUS
10
25.02
20
48.3
30
0
11
23.77
21
46.2
31
0
0
LINE
8
0
6
CONTINUOUS
10
23.77
20
46.2
30
0
11
24.86
21
46.2
31
0
0
LINE
8
0
6
CONTINUOUS
10
24.86
20
46.2
30
0
11
26.5
21
48.28
31
0
0
LINE
8
0
6
CONTINUOUS
10
26.5
20
48.28
30
0
11
26.5
21
49.4
31
0
0
LINE
8
0
6
CONTINUOUS
10
26.5
20
49.4
30
0
11
3.4
21
49.4
31
0
0
LINE
8
0
6
CONTINUOUS
10
3.4
20
49.4
30
0
11
3.7
21
60.5
31
0
0
LINE
8
0
6
CONTINUOUS
10
3.7
20
60.5
30
0
11
18.58
21
60.5
31
0
0
LINE
8
0
6
CONTINUOUS
10
18.58
20
60.5
30
0
11
20.41
21
56.72
31
0
0
LINE
8
0
6
CONTINUOUS
10
20.41
20
56.72
30
0
11
21.49
21
56.1
31
0
0
LINE
8
0
6
CONTINUOUS
10
21.49
20
56.1
30
0
11
24.9
21
56.1
31
0
0
LINE
8
0
6
CONTINUOUS
10
24.9
20
56.1
30
0
11
24.9
21
57.3
31
0
0
LINE
8
0
6
CONTINUOUS
10
24.9
20
57.3
30
0
11
22.0
21
57.3
31
0
0
LINE
8
0
6
CONTINUOUS
10
22.0
20
57.3
30
0
11
21.21
21
57.8
31
0
0
LINE
8
0
6
CONTINUOUS
10
21.21
20
57.8
30
0
11
20.26
21
59.91
31
0
0
LINE
8
0
6
CONTINUOUS
10
20.26
20
59.91
30
0
11
20.26
21
60.8
31
0
0
LINE
8
0
6
CONTINUOUS
10
20.26
20
60.8
30
0
11
21.5
21
60.8
31
0
0
LINE
8
0
6
CONTINUOUS
10
21.5
20
60.8
30
0
11
21.5
21
62.0
31
0
0
LINE
8
0
6
CONTINUOUS
10
22.0
20
62.0
30
0
11
56.0
21
62.0
31
0
0
LINE
8
0
6
CONTINUOUS
10
56.0
20
62.0
30
0
11
56.0
21
57.8
31
0
0
LINE
8
0
6
CONTINUOUS
10
56.0
20
57.8
30
0
11
54.48
21
57.8
31
0
0
LINE
8
0
6
CONTINUOUS
10
54.48
20
57.8
30
0
11
54.48
21
60.2
31
0
0
LINE
8
0
6
CONTINUOUS
10
54.48
20
60.2
30
0
11
51.0
21
60.2
31
0
0
LINE
8
0
6
CONTINUOUS
10
51.0
20
60.2
30
0
11
51.0
21
45.7
31
0
0
LINE
8
0
6
CONTINUOUS
10
51.0
20
45.7
30
0
11
54.48
21
45.7
31
0
0
LINE
8
0
6
CONTINUOUS
10
54.48
20
45.7
30
0
11
54.48
21
47.88
31
0
0
LINE
8
0
6
CONTINUOUS
10
54.48
20
47.88
30
0
11
55.8
21
47.88
31
0
0
LINE
8
0
6
CONTINUOUS
10
55.8
20
47.88
30
0
11
55.8
21
42.36
31
0
0
LINE
8
0
6
CONTINUOUS
10
55.8
20
42.36
30
0
11
54.48
21
42.36
31
0
0
LINE
8
0
6
CONTINUOUS
10
54.48
20
42.36
30
0
11
54.48
21
44.0
31
0
0
LINE
8
0
6
CONTINUOUS
10
54.48
20
44.0
30
0
11
51.0
21
44.0
31
0
0
LINE
8
0
6
CONTINUOUS
10
51.0
20
44.0
30
0
11
51.0
21
40.11
31
0
0
LINE
8
0
6
CONTINUOUS
10
51.0
20
40.11
30
0
11
48.81
21
41.38
31
0
0
LINE
8
0
6
CONTINUOUS
10
48.81
20
41.38
30
0
11
49.63
21
39.92
31
0
0
LINE
8
0
6
CONTINUOUS
10
49.63
20
39.92
30
0
11
50.95
21
39.16
31
0
0
LINE
8
0
6
CONTINUOUS
10
50.95
20
39.16
30
0
11
50.95
21
27.24
31
0
0
LINE
8
0
6
CONTINUOUS
10
50.95
20
27.24
30
0
11
55.45
21
27.24
31
0
0
LINE
8
0
6
CONTINUOUS
10
55.45
20
27.24
30
0
11
55.45
21
24.6
31
0
0
LINE
8
0
6
CONTINUOUS
10
55.45
20
24.6
30
0
11
54.45
21
24.6
31
0
0
LINE
8
0
6
CONTINUOUS
10
54.45
20
24.6
30
0
11
54.45
21
26.0
31
0
0
LINE
8
0
6
CONTINUOUS
10
54.45
20
26.0
30
0
11
50.95
21
26.0
31
0
0
LINE
8
0
6
CONTINUOUS
10
50.95
20
26.0
30
0
11
50.95
21
22.84
31
0
0
LINE
8
0
6
CONTINUOUS
10
50.95
20
22.84
30
0
11
49.63
21
22.08
31
0
0
LINE
8
0
6
CONTINUOUS
10
49.63
20
22.08
30
0
11
48.81
21
20.62
31
0
0
LINE
8
0
6
CONTINUOUS
10
48.81
20
20.62
30
0
11
51.0
21
21.89
31
0
0
LINE
8
0
6
CONTINUOUS
10
51.0
20
21.89
30
0
11
51.0
21
18.5
31
0
0
LINE
8
0
6
CONTINUOUS
10
51.0
20
18.5
30
0
11
55.8
21
18.5
31
0
0
LINE
8
0
6
CONTINUOUS
10
55.8
20
18.5
30
0
11
55.8
21
14.88
31
0
0
LINE
8
0
6
CONTINUOUS
10
55.8
20
14.88
30
0
11
54.78
21
14.88
31
0
0
LINE
8
0
6
CONTINUOUS
10
54.78
20
14.88
30
0
11
54.78
21
16.8
31
0
0
LINE
8
0
6
CONTINUOUS
10
54.78
20
16.8
30
0
11
51.0
21
16.8
31
0
0
LINE
8
0
6
CONTINUOUS
10
51.0
20
16.8
30
0
11
51.0
21
2.0
31
0
0
LINE
8
0
6
CONTINUOUS
10
51.0
20
2.0
30
0
11
67.0
21
1.8
31
0
0
LINE
8
0
6
CONTINUOUS
10
67.0
20
1.8
30
0
11
70.0
21
1.8
31
0
0
LINE
8
0
6
CONTINUOUS
10
70.0
20
1.8
30
0
11
70.0
21
3.2
31
0
0
LINE
8
0
6
CONTINUOUS
10
70.0
20
3.2
30
0
11
68.52
21
3.2
31
0
0
LINE
8
0
6
CONTINUOUS
10
68.52
20
3.2
30
0
11
68.52
21
4.0
31
0
0
LINE
8
0
6
CONTINUOUS
10
68.52
20
4.0
30
0
11
72.5
21
4.0
31
0
0
LINE
8
0
6
CONTINUOUS
10
72.5
20
4.0
30
0
11
72.5
21
3.0
31
0
0
LINE
8
0
6
CONTINUOUS
10
72.5
20
3.0
30
0
11
71.2
21
3.0
31
0
0
LINE
8
0
6
CONTINUOUS
10
71.2
20
3.0
30
0
11
71.2
21
1.4
31
0
0
LINE
8
0
6
CONTINUOUS
10
71.2
20
1.4
30
0
11
76.8
21
1.4
31
0
0
LINE
8
0
6
CONTINUOUS
10
76.8
20
1.4
30
0
11
76.8
21
3.0
31
0
0
LINE
8
0
6
CONTINUOUS
10
76.8
20
3.0
30
0
11
75.5
21
3.0
31
0
0
LINE
8
0
6
CONTINUOUS
10
75.5
20
3.0
30
0
11
75.5
21
4.0
31
0
0
LINE
8
0
6
CONTINUOUS
10
75.5
20
4.0
30
0
11
78.0
21
4.0
31
0
0
LINE
8
0
6
CONTINUOUS
10
78.0
20
4.0
30
0
11
78.0
21
0.0
31
0
0
LINE
8
0
6
CONTINUOUS
10
78.0
20
0.0
30
0
11
0.0
21
0.0
31
0
0
LINE
8
0
6
CONTINUOUS
10
0.0
20
0.0
30
0
11
0.0
21
4.0
31
0
0
LINE
8
0
6
CONTINUOUS
10
0.0
20
4.0
30
0
11
2.5
21
4.0
31
0
0
LINE
8
0
6
CONTINUOUS
10
2.5
20
4.0
30
0
11
2.5
21
3.0
31
0
0
LINE
8
0
6
CONTINUOUS
10
2.5
20
3.0
30
0
11
1.2
21
3.0
31
0
0
LINE
8
0
6
CONTINUOUS
10
1.2
20
3.0
30
0
11
1.2
21
1.4
31
0
0
LINE
8
0
6
CONTINUOUS
10
1.2
20
1.4
30
0
11
6.8
21
1.4
31
0
0
LINE
8
0
6
CONTINUOUS
10
6.8
20
1.4
30
0
11
6.8
21
3.0
31
0
0
LINE
8
0
6
CONTINUOUS
10
6.8
20
3.0
30
0
11
5.5
21
3.0
31
0
0
LINE
8
0
6
CONTINUOUS
10
5.5
20
3.0
30
0
11
5.5
21
4.0
31
0
0
LINE
8
0
6
CONTINUOUS
10
5.5
20
4.0
30
0
11
9.48
21
4.0
31
0
0
LINE
8
0
6
CONTINUOUS
10
9.48
20
4.0
30
0
11
9.48
21
3.2
31
0
0
LINE
8
0
6
CONTINUOUS
10
9.48
20
3.2
30
0
11
8.0
21
3.2
31
0
0
LINE
8
0
6
CONTINUOUS
10
8.0
20
3.2
30
0
11
8.0
21
1.8
31
0
0
LINE
8
0
6
CONTINUOUS
10
8.0
20
1.8
30
0
11
11.0
21
1.8
31
0
0
LINE
8
0
6
CONTINUOUS
10
11.0
20
1.8
30
0
11
27.0
21
2.0
31
0
0
LINE
8
0
6
CONTINUOUS
10
27.0
20
2.0
30
0
11
27.0
21
16.1
31
0
0
LINE
8
0
6
CONTINUOUS
10
27.0
20
16.1
30
0
11
23.52
21
16.1
31
0
0
LINE
8
0
6
CONTINUOUS
10
23.52
20
16.1
30
0
11
23.52
21
14.73
31
0
0
LINE
8
0
6
CONTINUOUS
10
23.52
20
14.73
30
0
11
22.5
21
14.73
31
0
0
LINE
8
0
6
CONTINUOUS
10
22.5
20
14.73
30
0
11
22.5
21
19.16
31
0
0
LINE
8
0
6
CONTINUOUS
10
22.5
20
19.16
30
0
11
23.52
21
19.16
31
0
0
LINE
8
0
6
CONTINUOUS
10
23.52
20
19.16
30
0
11
23.52
21
17.8
31
0
0
LINE
8
0
6
CONTINUOUS
10
23.52
20
17.8
30
0
11
27.0
21
17.8
31
0
0
LINE
8
0
6
CONTINUOUS
10
27.0
20
17.8
30
0
11
27.0
21
21.89
31
0
0
LINE
8
0
6
CONTINUOUS
10
27.0
20
21.89
30
0
11
29.19
21
20.62
31
0
0
LINE
8
0
6
CONTINUOUS
10
29.19
20
20.62
30
0
11
28.37
21
22.08
31
0
0
LINE
8
0
6
CONTINUOUS
10
28.37
20
22.08
30
0
11
27.05
21
22.84
31
0
0
LINE
8
0
6
CONTINUOUS
10
27.05
20
22.84
30
0
11
27.05
21
26.0
31
0
0
LINE
8
0
6
CONTINUOUS
10
27.05
20
26.0
30
0
11
23.55
21
26.0
31
0
0
LINE
8
0
6
CONTINUOUS
10
23.55
20
26.0
30
0
11
23.55
21
24.6
31
0
0
LINE
8
0
6
CONTINUOUS
10
23.55
20
24.6
30
0
11
22.55
21
24.6
31
0
0
LINE
8
0
6
CONTINUOUS
10
22.55
20
24.6
30
0
11
22.55
21
27.24
31
0
0
LINE
8
0
6
CONTINUOUS
10
22.55
20
27.24
30
0
11
27.05
21
27.24
31
0
0
LINE
8
0
6
CONTINUOUS
10
27.05
20
27.24
30
0
11
27.05
21
39.16
31
0
0
LINE
8
0
6
CONTINUOUS
10
27.05
20
39.16
30
0
11
28.37
21
39.92
31
0
0
LINE
8
0
6
CONTINUOUS
10
28.37
20
39.92
30
0
11
29.19
21
41.38
31
0
0
LINE
8
0
6
CONTINUOUS
10
29.19
20
41.38
30
0
11
27.0
21
40.11
31
0
0
LINE
8
0
6
CONTINUOUS
10
27.0
20
40.11
30
0
11
27.0
21
44.0
31
0
0
LINE
8
0
6
CONTINUOUS
10
27.0
20
44.0
30
0
11
23.52
21
44.0
31
0
0
LINE
8
0
6
CONTINUOUS
10
23.52
20
44.0
30
0
11
23.52
21
42.36
31
0
0
LINE
8
0
6
CONTINUOUS
10
23.52
20
42.36
30
0
11
22.2
21
42.36
31
0
0
LINE
8
0
6
CONTINUOUS
10
22.2
20
42.36
30
0
11
22.2
21
47.88
31
0
0
LINE
8
0
6
CONTINUOUS
10
22.2
20
47.88
30
0
11
23.52
21
47.88
31
0
0
LINE
8
0
6
CONTINUOUS
10
23.52
20
47.88
30
0
11
23.52
21
45.7
31
0
0
LINE
8
0
6
CONTINUOUS
10
23.52
20
45.7
30
0
11
27.0
21
45.7
31
0
0
LINE
8
0
6
CONTINUOUS
10
27.0
20
45.7
30
0
11
27.0
21
60.2
31
0
0
LINE
8
0
6
CONTINUOUS
10
27.0
20
60.2
30
0
11
23.52
21
60.2
31
0
0
LINE
8
0
6
CONTINUOUS
10
23.52
20
60.2
30
0
11
23.52
21
57.8
31
0
0
LINE
8
0
6
CONTINUOUS
10
23.52
20
57.8
30
0
11
22.0
21
57.8
31
0
0
LINE
8
0
6
CONTINUOUS
10
22.0
20
57.8
30
0
11
22.0
21
62.0
31
0
0
LINE
8
0
6
CONTINUOUS
10
49.5
20
60.5
30
0
11
28.5
21
60.5
31
0
0
LINE
8
0
6
CONTINUOUS
10
28.5
20
60.5
30
0
11
28.5
21
45.1
31
0
0
LINE
8
0
6
CONTINUOUS
10
28.5
20
45.1
30
0
11
49.5
21
45.1
31
0
0
LINE
8
0
6
CONTINUOUS
10
49.5
20
45.1
30
0
11
49.5
21
60.5
31
0
0
LINE
8
0
6
CONTINUOUS
10
46.5
20
41.01
30
0
11
31.5
21
41.01
31
0
0
LINE
8
0
6
CONTINUOUS
10
31.5
20
41.01
30
0
11
29.05
21
36.36
31
0
0
LINE
8
0
6
CONTINUOUS
10
29.05
20
36.36
30
0
11
29.05
21
25.64
31
0
0
LINE
8
0
6
CONTINUOUS
10
29.05
20
25.64
30
0
11
31.69
21
20.62
31
0
0
LINE
8
0
6
CONTINUOUS
10
31.69
20
20.62
30
0
11
46.31
21
20.62
31
0
0
LINE
8
0
6
CONTINUOUS
10
46.31
20
20.62
30
0
11
48.95
21
25.64
31
0
0
LINE
8
0
6
CONTINUOUS
10
48.95
20
25.64
30
0
11
48.95
21
36.36
31
0
0
LINE
8
0
6
CONTINUOUS
10
48.95
20
36.36
30
0
11
46.5
21
41.01
31
0
0
LINE
8
0
6
CONTINUOUS
10
48.23
20
43.5
30
0
11
46.93
21
43.5
31
0
0
LINE
8
0
6
CONTINUOUS
10
46.93
20
43.5
30
0
11
46.93
21
42.06
31
0
0
LINE
8
0
6
CONTINUOUS
10
46.93
20
42.06
30
0
11
48.23
21
42.06
31
0
0
LINE
8
0
6
CONTINUOUS
10
48.23
20
42.06
30
0
11
48.23
21
43.5
31
0
0
LINE
8
0
6
CONTINUOUS
10
31.07
20
43.5
30
0
11
29.77
21
43.5
31
0
0
LINE
8
0
6
CONTINUOUS
10
29.77
20
43.5
30
0
11
29.77
21
42.06
31
0
0
LINE
8
0
6
CONTINUOUS
10
29.77
20
42.06
30
0
11
31.07
21
42.06
31
0
0
LINE
8
0
6
CONTINUOUS
10
31.07
20
42.06
30
0
11
31.07
21
43.5
31
0
0
LINE
8
0
6
CONTINUOUS
10
31.07
20
19.94
30
0
11
29.77
21
19.94
31
0
0
LINE
8
0
6
CONTINUOUS
10
29.77
20
19.94
30
0
11
29.77
21
18.5
31
0
0
LINE
8
0
6
CONTINUOUS
10
29.77
20
18.5
30
0
11
31.07
21
18.5
31
0
0
LINE
8
0
6
CONTINUOUS
10
31.07
20
18.5
30
0
11
31.07
21
19.94
31
0
0
LINE
8
0
6
CONTINUOUS
10
48.23
20
19.94
30
0
11
46.93
21
19.94
31
0
0
LINE
8
0
6
CONTINUOUS
10
46.93
20
19.94
30
0
11
46.93
21
18.5
31
0
0
LINE
8
0
6
CONTINUOUS
10
46.93
20
18.5
30
0
11
48.23
21
18.5
31
0
0
LINE
8
0
6
CONTINUOUS
10
48.23
20
18.5
30
0
11
48.23
21
19.94
31
0
0
LINE
8
0
6
CONTINUOUS
10
49.5
20
16.77
30
0
11
28.5
21
16.77
31
0
0
LINE
8
0
6
CONTINUOUS
10
28.5
20
16.77
30
0
11
28.5
21
1.5
31
0
0
LINE
8
0
6
CONTINUOUS
10
28.5
20
1.5
30
0
11
49.5
21
1.5
31
0
0
LINE
8
0
6
CONTINUOUS
10
49.5
20
1.5
30
0
11
49.5
21
16.77
31
0
0
LINE
8
0
6
CONTINUOUS
10
56.5
20
62.0
30
0
11
100.0
21
62.0
31
0
0
LINE
8
0
6
CONTINUOUS
10
100.0
20
62.0
30
0
11
100.0
21
58.0
31
0
0
LINE
8
0
6
CONTINUOUS
10
100.0
20
58.0
30
0
11
97.5
21
58.0
31
0
0
LINE
8
0
6
CONTINUOUS
10
97.5
20
58.0
30
0
11
97.5
21
59.0
31
0
0
LINE
8
0
6
CONTINUOUS
10
97.5
20
59.0
30
0
11
98.79
21
59.0
31
0
0
LINE
8
0
6
CONTINUOUS
10
98.79
20
59.0
30
0
11
98.79
21
60.6
31
0
0
LINE
8
0
6
CONTINUOUS
10
98.79
20
60.6
30
0
11
93.31
21
60.6
31
0
0
LINE
8
0
6
CONTINUOUS
10
93.31
20
60.6
30
0
11
93.31
21
59.0
31
0
0
LINE
8
0
6
CONTINUOUS
10
93.31
20
59.0
30
0
11
94.5
21
59.0
31
0
0
LINE
8
0
6
CONTINUOUS
10
94.5
20
59.0
30
0
11
94.5
21
58.0
31
0
0
LINE
8
0
6
CONTINUOUS
10
94.5
20
58.0
30
0
11
92.0
21
58.0
31
0
0
LINE
8
0
6
CONTINUOUS
10
92.0
20
58.0
30
0
11
92.0
21
60.4
31
0
0
LINE
8
0
6
CONTINUOUS
10
92.0
20
60.4
30
0
11
85.5
21
60.4
31
0
0
LINE
8
0
6
CONTINUOUS
10
85.5
20
60.4
30
0
11
85.5
21
31.43
31
0
0
LINE
8
0
6
CONTINUOUS
10
85.5
20
31.43
30
0
11
83.33
21
32.68
31
0
0
LINE
8
0
6
CONTINUOUS
10
83.33
20
32.68
30
0
11
84.15
21
31.22
31
0
0
LINE
8
0
6
CONTINUOUS
10
84.15
20
31.22
30
0
11
85.47
21
30.46
31
0
0
LINE
8
0
6
CONTINUOUS
10
85.47
20
30.46
30
0
11
85.47
21
14.14
31
0
0
LINE
8
0
6
CONTINUOUS
10
85.47
20
14.14
30
0
11
84.15
21
13.38
31
0
0
LINE
8
0
6
CONTINUOUS
10
84.15
20
13.38
30
0
11
83.33
21
11.92
31
0
0
LINE
8
0
6
CONTINUOUS
10
83.33
20
11.92
30
0
11
85.5
21
13.17
31
0
0
LINE
8
0
6
CONTINUOUS
10
85.5
20
13.17
30
0
11
85.5
21
9.2
31
0
0
LINE
8
0
6
CONTINUOUS
10
85.5
20
9.2
30
0
11
88.0
21
9.2
31
0
0
LINE
8
0
6
CONTINUOUS
10
88.0
20
9.2
30
0
11
88.0
21
8.0
31
0
0
LINE
8
0
6
CONTINUOUS
10
88.0
20
8.0
30
0
11
78.0
21
8.0
31
0
0
LINE
8
0
6
CONTINUOUS
10
78.0
20
8.0
30
0
11
78.0
21
4.5
31
0
0
LINE
8
0
6
CONTINUOUS
10
78.0
20
4.5
30
0
11
76.5
21
4.5
31
0
0
LINE
8
0
6
CONTINUOUS
10
76.5
20
4.5
30
0
11
76.5
21
6.5
31
0
0
LINE
8
0
6
CONTINUOUS
10
76.5
20
6.5
30
0
11
74.5
21
6.5
31
0
0
LINE
8
0
6
CONTINUOUS
10
74.5
20
6.5
30
0
11
74.5
21
1.9
31
0
0
LINE
8
0
6
CONTINUOUS
10
74.5
20
1.9
30
0
11
73.0
21
1.9
31
0
0
LINE
8
0
6
CONTINUOUS
10
73.0
20
1.9
30
0
11
73.0
21
6.5
31
0
0
LINE
8
0
6
CONTINUOUS
10
73.0
20
6.5
30
0
11
70.5
21
6.5
31
0
0
LINE
8
0
6
CONTINUOUS
10
70.5
20
6.5
30
0
11
70.5
21
11.67
31
0
0
LINE
8
0
6
CONTINUOUS
10
70.5
20
11.67
30
0
11
72.67
21
10.42
31
0
0
LINE
8
0
6
CONTINUOUS
10
72.67
20
10.42
30
0
11
71.85
21
11.88
31
0
0
LINE
8
0
6
CONTINUOUS
10
71.85
20
11.88
30
0
11
70.53
21
12.64
31
0
0
LINE
8
0
6
CONTINUOUS
10
70.53
20
12.64
30
0
11
70.53
21
28.96
31
0
0
LINE
8
0
6
CONTINUOUS
10
70.53
20
28.96
30
0
11
71.85
21
29.72
31
0
0
LINE
8
0
6
CONTINUOUS
10
71.85
20
29.72
30
0
11
72.67
21
31.18
31
0
0
LINE
8
0
6
CONTINUOUS
10
72.67
20
31.18
30
0
11
70.5
21
29.93
31
0
0
LINE
8
0
6
CONTINUOUS
10
70.5
20
29.93
30
0
11
70.5
21
35.1
31
0
0
LINE
8
0
6
CONTINUOUS
10
70.5
20
35.1
30
0
11
77.5
21
35.1
31
0
0
LINE
8
0
6
CONTINUOUS
10
77.5
20
35.1
30
0
11
79.0
21
36.6
31
0
0
LINE
8
0
6
CONTINUOUS
10
79.0
20
36.6
30
0
11
83.0
21
36.6
31
0
0
LINE
8
0
6
CONTINUOUS
10
83.0
20
36.6
30
0
11
83.0
21
60.2
31
0
0
LINE
8
0
6
CONTINUOUS
10
83.0
20
60.2
30
0
11
58.0
21
60.2
31
0
0
LINE
8
0
6
CONTINUOUS
10
58.0
20
60.2
30
0
11
58.0
21
55.9
31
0
0
LINE
8
0
6
CONTINUOUS
10
58.0
20
55.9
30
0
11
52.3
21
55.9
31
0
0
LINE
8
0
6
CONTINUOUS
10
52.3
20
55.9
30
0
11
52.3
21
57.4
31
0
0
LINE
8
0
6
CONTINUOUS
10
52.3
20
57.4
30
0
11
56.5
21
57.4
31
0
0
LINE
8
0
6
CONTINUOUS
10
56.5
20
57.4
30
0
11
56.5
21
62.0
31
0
0
LINE
8
0
6
CONTINUOUS
10
82.75
20
34.8
30
0
11
81.45
21
34.8
31
0
0
LINE
8
0
6
CONTINUOUS
10
81.45
20
34.8
30
0
11
81.45
21
33.36
31
0
0
LINE
8
0
6
CONTINUOUS
10
81.45
20
33.36
30
0
11
82.75
21
33.36
31
0
0
LINE
8
0
6
CONTINUOUS
10
82.75
20
33.36
30
0
11
82.75
21
34.8
31
0
0
LINE
8
0
6
CONTINUOUS
10
74.55
20
33.3
30
0
11
73.25
21
33.3
31
0
0
LINE
8
0
6
CONTINUOUS
10
73.25
20
33.3
30
0
11
73.25
21
31.86
31
0
0
LINE
8
0
6
CONTINUOUS
10
73.25
20
31.86
30
0
11
74.55
21
31.86
31
0
0
LINE
8
0
6
CONTINUOUS
10
74.55
20
31.86
30
0
11
74.55
21
33.3
31
0
0
LINE
8
0
6
CONTINUOUS
10
81.02
20
32.31
30
0
11
78.24
21
32.46
31
0
0
LINE
8
0
6
CONTINUOUS
10
78.24
20
32.46
30
0
11
77.12
21
31.24
31
0
0
LINE
8
0
6
CONTINUOUS
10
77.12
20
31.24
30
0
11
75.95
21
30.81
31
0
0
LINE
8
0
6
CONTINUOUS
10
75.95
20
30.81
30
0
11
74.98
21
30.81
31
0
0
LINE
8
0
6
CONTINUOUS
10
74.98
20
30.81
30
0
11
72.53
21
26.16
31
0
0
LINE
8
0
6
CONTINUOUS
10
72.53
20
26.16
30
0
11
72.53
21
15.44
31
0
0
LINE
8
0
6
CONTINUOUS
10
72.53
20
15.44
30
0
11
74.98
21
10.77
31
0
0
LINE
8
0
6
CONTINUOUS
10
74.98
20
10.77
30
0
11
77.2
21
10.5
31
0
0
LINE
8
0
6
CONTINUOUS
10
77.2
20
10.5
30
0
11
77.2
21
14.8
31
0
0
LINE
8
0
6
CONTINUOUS
10
77.2
20
14.8
30
0
11
78.8
21
14.8
31
0
0
LINE
8
0
6
CONTINUOUS
10
78.8
20
14.8
30
0
11
78.8
21
12.3
31
0
0
LINE
8
0
6
CONTINUOUS
10
78.8
20
12.3
30
0
11
81.03
21
12.3
31
0
0
LINE
8
0
6
CONTINUOUS
10
81.03
20
12.3
30
0
11
83.47
21
16.94
31
0
0
LINE
8
0
6
CONTINUOUS
10
83.47
20
16.94
30
0
11
83.47
21
27.66
31
0
0
LINE
8
0
6
CONTINUOUS
10
83.47
20
27.66
30
0
11
81.02
21
32.31
31
0
0
LINE
8
0
6
CONTINUOUS
10
81.45
20
9.8
30
0
11
82.75
21
9.8
31
0
0
LINE
8
0
6
CONTINUOUS
10
82.75
20
9.8
30
0
11
82.75
21
11.24
31
0
0
LINE
8
0
6
CONTINUOUS
10
82.75
20
11.24
30
0
11
81.45
21
11.24
31
0
0
LINE
8
0
6
CONTINUOUS
10
81.45
20
11.24
30
0
11
81.45
21
9.8
31
0
0
LINE
8
0
6
CONTINUOUS
10
73.25
20
9.74
30
0
11
73.25
21
8.3
31
0
0
LINE
8
0
6
CONTINUOUS
10
73.25
20
8.3
30
0
11
74.55
21
8.3
31
0
0
LINE
8
0
6
CONTINUOUS
10
74.55
20
8.3
30
0
11
74.55
21
9.74
31
0
0
LINE
8
0
6
CONTINUOUS
10
74.55
20
9.74
30
0
11
73.25
21
9.74
31
0
0
LINE
8
0
6
CONTINUOUS
10
105.0
20
62.0
30
0
11
155.0
21
62.0
31
0
0
LINE
8
0
6
CONTINUOUS
10
155.0
20
62.0
30
0
11
155.0
21
59.04
31
0
0
LINE
8
0
6
CONTINUOUS
10
155.0
20
59.04
30
0
11
153.5
21
57.54
31
0
0
LINE
8
0
6
CONTINUOUS
10
153.5
20
57.54
30
0
11
153.5
21
60.2
31
0
0
LINE
8
0
6
CONTINUOUS
10
153.5
20
60.2
30
0
11
150.0
21
60.2
31
0
0
LINE
8
0
6
CONTINUOUS
10
150.0
20
60.2
30
0
11
150.0
21
45.7
31
0
0
LINE
8
0
6
CONTINUOUS
10
150.0
20
45.7
30
0
11
153.5
21
45.7
31
0
0
LINE
8
0
6
CONTINUOUS
10
153.5
20
45.7
30
0
11
153.5
21
47.8
31
0
0
LINE
8
0
6
CONTINUOUS
10
153.5
20
47.8
30
0
11
154.8
21
47.8
31
0
0
LINE
8
0
6
CONTINUOUS
10
154.8
20
47.8
30
0
11
154.8
21
44.0
31
0
0
LINE
8
0
6
CONTINUOUS
10
154.8
20
44.0
30
0
11
150.0
21
44.0
31
0
0
LINE
8
0
6
CONTINUOUS
10
150.0
20
44.0
30
0
11
150.0
21
27.03
31
0
0
LINE
8
0
6
CONTINUOUS
10
150.0
20
27.03
30
0
11
147.83
21
28.28
31
0
0
LINE
8
0
6
CONTINUOUS
10
147.83
20
28.28
30
0
11
148.65
21
26.82
31
0
0
LINE
8
0
6
CONTINUOUS
10
148.65
20
26.82
30
0
11
149.97
21
26.06
31
0
0
LINE
8
0
6
CONTINUOUS
10
149.97
20
26.06
30
0
11
149.97
21
9.74
31
0
0
LINE
8
0
6
CONTINUOUS
10
149.97
20
9.74
30
0
11
148.65
21
8.98
31
0
0
LINE
8
0
6
CONTINUOUS
10
148.65
20
8.98
30
0
11
147.83
21
7.52
31
0
0
LINE
8
0
6
CONTINUOUS
10
147.83
20
7.52
30
0
11
150.0
21
8.77
31
0
0
LINE
8
0
6
CONTINUOUS
10
150.0
20
8.77
30
0
11
150.0
21
1.8
31
0
0
LINE
8
0
6
CONTINUOUS
10
150.0
20
1.8
30
0
11
166.0
21
1.6
31
0
0
LINE
8
0
6
CONTINUOUS
10
166.0
20
1.6
30
0
11
169.0
21
1.6
31
0
0
LINE
8
0
6
CONTINUOUS
10
169.0
20
1.6
30
0
11
169.0
21
3.2
31
0
0
LINE
8
0
6
CONTINUOUS
10
169.0
20
3.2
30
0
11
167.52
21
3.2
31
0
0
LINE
8
0
6
CONTINUOUS
10
167.52
20
3.2
30
0
11
167.52
21
4.0
31
0
0
LINE
8
0
6
CONTINUOUS
10
167.52
20
4.0
30
0
11
171.5
21
4.0
31
0
0
LINE
8
0
6
CONTINUOUS
10
171.5
20
4.0
30
0
11
171.5
21
3.0
31
0
0
LINE
8
0
6
CONTINUOUS
10
171.5
20
3.0
30
0
11
170.2
21
3.0
31
0
0
LINE
8
0
6
CONTINUOUS
10
170.2
20
3.0
30
0
11
170.2
21
1.4
31
0
0
LINE
8
0
6
CONTINUOUS
10
170.2
20
1.4
30
0
11
175.8
21
1.4
31
0
0
LINE
8
0
6
CONTINUOUS
10
175.8
20
1.4
30
0
11
175.8
21
3.0
31
0
0
LINE
8
0
6
CONTINUOUS
10
175.8
20
3.0
30
0
11
174.5
21
3.0
31
0
0
LINE
8
0
6
CONTINUOUS
10
174.5
20
3.0
30
0
11
174.5
21
4.0
31
0
0
LINE
8
0
6
CONTINUOUS
10
174.5
20
4.0
30
0
11
177.0
21
4.0
31
0
0
LINE
8
0
6
CONTINUOUS
10
177.0
20
4.0
30
0
11
177.0
21
0.0
31
0
0
LINE
8
0
6
CONTINUOUS
10
177.0
20
0.0
30
0
11
83.0
21
0.0
31
0
0
LINE
8
0
6
CONTINUOUS
10
83.0
20
0.0
30
0
11
83.0
21
4.0
31
0
0
LINE
8
0
6
CONTINUOUS
10
83.0
20
4.0
30
0
11
85.4
21
4.0
31
0
0
LINE
8
0
6
CONTINUOUS
10
85.4
20
4.0
30
0
11
85.4
21
3.0
31
0
0
LINE
8
0
6
CONTINUOUS
10
85.4
20
3.0
30
0
11
84.2
21
3.0
31
0
0
LINE
8
0
6
CONTINUOUS
10
84.2
20
3.0
30
0
11
84.2
21
1.4
31
0
0
LINE
8
0
6
CONTINUOUS
10
84.2
20
1.4
30
0
11
89.8
21
1.4
31
0
0
LINE
8
0
6
CONTINUOUS
10
89.8
20
1.4
30
0
11
89.8
21
3.0
31
0
0
LINE
8
0
6
CONTINUOUS
10
89.8
20
3.0
30
0
11
88.8
21
3.0
31
0
0
LINE
8
0
6
CONTINUOUS
10
88.8
20
3.0
30
0
11
88.8
21
4.0
31
0
0
LINE
8
0
6
CONTINUOUS
10
88.8
20
4.0
30
0
11
91.0
21
4.0
31
0
0
LINE
8
0
6
CONTINUOUS
10
91.0
20
4.0
30
0
11
91.0
21
1.55
31
0
0
LINE
8
0
6
CONTINUOUS
10
91.0
20
1.55
30
0
11
105.0
21
1.8
31
0
0
LINE
8
0
6
CONTINUOUS
10
105.0
20
1.8
30
0
11
105.0
21
8.0
31
0
0
LINE
8
0
6
CONTINUOUS
10
105.0
20
8.0
30
0
11
95.0
21
8.0
31
0
0
LINE
8
0
6
CONTINUOUS
10
95.0
20
8.0
30
0
11
95.0
21
9.2
31
0
0
LINE
8
0
6
CONTINUOUS
10
95.0
20
9.2
30
0
11
97.5
21
9.2
31
0
0
LINE
8
0
6
CONTINUOUS
10
97.5
20
9.2
30
0
11
97.5
21
13.17
31
0
0
LINE
8
0
6
CONTINUOUS
10
97.5
20
13.17
30
0
11
99.67
21
11.92
31
0
0
LINE
8
0
6
CONTINUOUS
10
99.67
20
11.92
30
0
11
98.85
21
13.38
31
0
0
LINE
8
0
6
CONTINUOUS
10
98.85
20
13.38
30
0
11
97.53
21
14.14
31
0
0
LINE
8
0
6
CONTINUOUS
10
97.53
20
14.14
30
0
11
97.53
21
30.46
31
0
0
LINE
8
0
6
CONTINUOUS
10
97.53
20
30.46
30
0
11
98.85
21
31.22
31
0
0
LINE
8
0
6
CONTINUOUS
10
98.85
20
31.22
30
0
11
99.67
21
32.68
31
0
0
LINE
8
0
6
CONTINUOUS
10
99.67
20
32.68
30
0
11
97.5
21
31.43
31
0
0
LINE
8
0
6
CONTINUOUS
10
97.5
20
31.43
30
0
11
97.5
21
36.6
31
0
0
LINE
8
0
6
CONTINUOUS
10
97.5
20
36.6
30
0
11
100.8
21
36.6
31
0
0
LINE
8
0
6
CONTINUOUS
10
100.8
20
36.6
30
0
11
100.8
21
38.61
31
0
0
LINE
8
0
6
CONTINUOUS
10
100.8
20
38.61
30
0
11
102.13
21
38.61
31
0
0
LINE
8
0
6
CONTINUOUS
10
102.13
20
38.61
30
0
11
102.82
21
36.6
31
0
0
LINE
8
0
6
CONTINUOUS
10
102.82
20
36.6
30
0
11
105.0
21
36.6
31
0
0
LINE
8
0
6
CONTINUOUS
10
105.0
20
36.6
30
0
11
105.0
21
52.0
31
0
0
LINE
8
0
6
CONTINUOUS
10
105.0
20
52.0
30
0
11
99.22
21
52.0
31
0
0
LINE
8
0
6
CONTINUOUS
10
99.22
20
52.0
30
0
11
99.22
21
50.38
31
0
0
LINE
8
0
6
CONTINUOUS
10
99.22
20
50.38
30
0
11
100.0
21
50.38
31
0
0
LINE
8
0
6
CONTINUOUS
10
100.0
20
50.38
30
0
11
100.0
21
48.8
31
0
0
LINE
8
0
6
CONTINUOUS
10
100.0
20
48.8
30
0
11
97.5
21
49.02
31
0
0
LINE
8
0
6
CONTINUOUS
10
97.5
20
49.02
30
0
11
97.5
21
52.8
31
0
0
LINE
8
0
6
CONTINUOUS
10
97.5
20
52.8
30
0
11
95.0
21
52.8
31
0
0
LINE
8
0
6
CONTINUOUS
10
95.0
20
52.8
30
0
11
95.0
21
54.0
31
0
0
LINE
8
0
6
CONTINUOUS
10
95.0
20
54.0
30
0
11
105.0
21
54.0
31
0
0
LINE
8
0
6
CONTINUOUS
10
105.0
20
54.0
30
0
11
105.0
21
62.0
31
0
0
LINE
8
0
6
CONTINUOUS
10
148.2
20
60.0
30
0
11
106.8
21
60.0
31
0
0
LINE
8
0
6
CONTINUOUS
10
106.8
20
60.0
30
0
11
106.8
21
32.2
31
0
0
LINE
8
0
6
CONTINUOUS
10
106.8
20
32.2
30
0
11
148.2
21
32.2
31
0
0
LINE
8
0
6
CONTINUOUS
10
148.2
20
32.2
30
0
11
148.2
21
60.0
31
0
0
LINE
8
0
6
CONTINUOUS
10
100.25
20
33.36
30
0
11
101.55
21
33.36
31
0
0
LINE
8
0
6
CONTINUOUS
10
101.55
20
33.36
30
0
11
101.55
21
34.8
31
0
0
LINE
8
0
6
CONTINUOUS
10
101.55
20
34.8
30
0
11
100.25
21
34.8
31
0
0
LINE
8
0
6
CONTINUOUS
10
100.25
20
34.8
30
0
11
100.25
21
33.36
31
0
0
LINE
8
0
6
CONTINUOUS
10
145.95
20
30.4
30
0
11
145.95
21
28.96
31
0
0
LINE
8
0
6
CONTINUOUS
10
145.95
20
28.96
30
0
11
147.25
21
28.96
31
0
0
LINE
8
0
6
CONTINUOUS
10
147.25
20
28.96
30
0
11
147.25
21
30.4
31
0
0
LINE
8
0
6
CONTINUOUS
10
147.25
20
30.4
30
0
11
145.95
21
30.4
31
0
0
LINE
8
0
6
CONTINUOUS
10
141.33
20
30.4
30
0
11
103.76
21
30.4
31
0
0
LINE
8
0
6
CONTINUOUS
10
103.76
20
30.4
30
0
11
102.95
21
31.2
31
0
0
LINE
8
0
6
CONTINUOUS
10
102.95
20
31.2
30
0
11
102.95
21
32.31
31
0
0
LINE
8
0
6
CONTINUOUS
10
102.95
20
32.31
30
0
11
101.98
21
32.31
31
0
0
LINE
8
0
6
CONTINUOUS
10
101.98
20
32.31
30
0
11
99.53
21
27.66
31
0
0
LINE
8
0
6
CONTINUOUS
10
99.53
20
27.66
30
0
11
99.53
21
16.94
31
0
0
LINE
8
0
6
CONTINUOUS
10
99.53
20
16.94
30
0
11
101.99
21
12.27
31
0
0
LINE
8
0
6
CONTINUOUS
10
101.99
20
12.27
30
0
11
103.5
21
12.09
31
0
0
LINE
8
0
6
CONTINUOUS
10
103.5
20
12.09
30
0
11
104.8
21
11.18
31
0
0
LINE
8
0
6
CONTINUOUS
10
104.8
20
11.18
30
0
11
105.7
21
9.8
31
0
0
LINE
8
0
6
CONTINUOUS
10
105.7
20
9.8
30
0
11
143.1
21
9.8
31
0
0
LINE
8
0
6
CONTINUOUS
10
143.1
20
9.8
30
0
11
144.12
21
9.35
31
0
0
LINE
8
0
6
CONTINUOUS
10
144.12
20
9.35
30
0
11
144.61
21
7.9
31
0
0
LINE
8
0
6
CONTINUOUS
10
144.61
20
7.9
30
0
11
145.53
21
7.9
31
0
0
LINE
8
0
6
CONTINUOUS
10
145.53
20
7.9
30
0
11
147.97
21
12.54
31
0
0
LINE
8
0
6
CONTINUOUS
10
147.97
20
12.54
30
0
11
147.97
21
23.26
31
0
0
LINE
8
0
6
CONTINUOUS
10
147.97
20
23.26
30
0
11
145.52
21
27.91
31
0
0
LINE
8
0
6
CONTINUOUS
10
145.52
20
27.91
30
0
11
144.37
21
27.98
31
0
0
LINE
8
0
6
CONTINUOUS
10
144.37
20
27.98
30
0
11
143.44
21
28.39
31
0
0
LINE
8
0
6
CONTINUOUS
10
143.44
20
28.39
30
0
11
142.62
21
29.48
31
0
0
LINE
8
0
6
CONTINUOUS
10
142.62
20
29.48
30
0
11
141.33
21
30.4
31
0
0
LINE
8
0
6
CONTINUOUS
10
100.25
20
9.8
30
0
11
101.55
21
9.8
31
0
0
LINE
8
0
6
CONTINUOUS
10
101.55
20
9.8
30
0
11
101.55
21
11.24
31
0
0
LINE
8
0
6
CONTINUOUS
10
101.55
20
11.24
30
0
11
100.25
21
11.24
31
0
0
LINE
8
0
6
CONTINUOUS
10
100.25
20
11.24
30
0
11
100.25
21
9.8
31
0
0
LINE
8
0
6
CONTINUOUS
10
142.2
20
8.0
30
0
11
106.8
21
8.0
31
0
0
LINE
8
0
6
CONTINUOUS
10
106.8
20
8.0
30
0
11
106.8
21
2.0
31
0
0
LINE
8
0
6
CONTINUOUS
10
106.8
20
2.0
30
0
11
147.0
21
2.0
31
0
0
LINE
8
0
6
CONTINUOUS
10
147.0
20
2.0
30
0
11
147.0
21
3.6
31
0
0
LINE
8
0
6
CONTINUOUS
10
147.0
20
3.6
30
0
11
142.2
21
3.6
31
0
0
LINE
8
0
6
CONTINUOUS
10
142.2
20
3.6
30
0
11
142.2
21
8.0
31
0
0
LINE
8
0
6
CONTINUOUS
10
147.25
20
5.4
30
0
11
147.25
21
6.84
31
0
0
LINE
8
0
6
CONTINUOUS
10
147.25
20
6.84
30
0
11
145.95
21
6.84
31
0
0
LINE
8
0
6
CONTINUOUS
10
145.95
20
6.84
30
0
11
145.95
21
5.4
31
0
0
LINE
8
0
6
CONTINUOUS
10
145.95
20
5.4
30
0
11
147.25
21
5.4
31
0
0
ARC
8
0
6
CONTINUOUS
10
-3.21
20
36.7
30
0
40
0.2
50
180.0
51
270.0
0
ARC
8
0
6
CONTINUOUS
10
1.398535469921299
20
40.999991905076406
30
0
40
4.5
50
269.89132295646766
51
313.39247802352463
0
ARC
8
0
6
CONTINUOUS
10
5.865
20
36.277631245172216
30
0
40
2.0
50
46.56746344221022
51
133.4325365577898
0
ARC
8
0
6
CONTINUOUS
10
10.331456216889668
20
40.999999764381364
30
0
40
4.5
50
226.60766763740887
51
269.98145887038004
0
ARC
8
0
6
CONTINUOUS
10
13.55
20
36.7
30
0
40
0.2
50
270.0
51
0.0
0
ARC
8
0
6
CONTINUOUS
10
13.044500340469483
20
36.906228548027336
30
0
40
0.72
50
11.518397337278213
51
97.54185832792214
0
ARC
8
0
6
CONTINUOUS
10
12.713405296872997
20
40.619970049519786
30
0
40
3.0
50
191.1467949750612
51
269.7439768366834
0
ARC
8
0
6
CONTINUOUS
10
7.938295782170941
20
41.60002294017603
30
0
40
1.5
50
11.14648488730689
51
90.31687715281987
0
ARC
8
0
6
CONTINUOUS
10
6.8142726738090476
20
43.39996957222112
30
0
40
0.3
50
224.41886715068802
51
269.18395182201664
0
ARC
8
0
6
CONTINUOUS
10
5.694638551467756
20
43.74181929855152
30
0
40
0.25
50
45.45688433393212
51
149.15463473269088
0
ARC
8
0
6
CONTINUOUS
10
4.860192343265323
20
43.3999999383401
30
0
40
0.3
50
269.96326513974736
51
330.0000135979521
0
ARC
8
0
6
CONTINUOUS
10
2.5
20
43.4
30
0
40
0.3
50
180.0
51
270.0
0
ARC
8
0
6
CONTINUOUS
10
1.900104612880128
20
45.5379219179636
30
0
40
0.3
50
358.48684922930016
51
129.32230245592257
0
ARC
8
0
6
CONTINUOUS
10
8.226685859856147
20
38.74794863277468
30
0
40
9.58
50
132.8622914898726
51
183.9980911606769
0
ARC
8
0
6
CONTINUOUS
10
-1.0305941024975591
20
38.09887083836924
30
0
40
0.3
50
183.60644562739168
51
291.6321989594706
0
ARC
8
0
6
CONTINUOUS
10
-2.466902322973262
20
42.04576539850237
30
0
40
4.5
50
290.10588025079113
51
332.09882965215115
0
ARC
8
0
6
CONTINUOUS
10
1.7995362474272993
20
39.89981294846452
30
0
40
0.29231188426986177
50
322.0378526640984
51
172.0979464607221
0
ARC
8
0
6
CONTINUOUS
10
-3.529578450209672
20
44.66415690041934
30
0
40
7.44
50
274.77693414958657
51
318.35316820456944
0
ARC
8
0
6
CONTINUOUS
10
-2.91
20
36.75
30
0
40
0.5
50
90.0
51
180.0
0
LINE
8
0
6
CONTINUOUS
10
-3.21
20
36.5
30
0
11
1.39
21
36.5
31
0
0
LINE
8
0
6
CONTINUOUS
10
10.33
20
36.5
30
0
11
13.55
21
36.5
31
0
0
LINE
8
0
6
CONTINUOUS
10
13.75
20
36.7
30
0
11
13.75
21
37.05
31
0
0
LINE
8
0
6
CONTINUOUS
10
12.95
20
37.62
30
0
11
12.7
21
37.62
31
0
0
LINE
8
0
6
CONTINUOUS
10
9.77
20
40.04
30
0
11
9.41
21
41.89
31
0
0
LINE
8
0
6
CONTINUOUS
10
7.93
20
43.1
30
0
11
6.81
21
43.1
31
0
0
LINE
8
0
6
CONTINUOUS
10
6.6
20
43.19
30
0
11
5.87
21
43.92
31
0
0
LINE
8
0
6
CONTINUOUS
10
5.48
20
43.87
30
0
11
5.12
21
43.25
31
0
0
LINE
8
0
6
CONTINUOUS
10
4.86
20
43.1
30
0
11
2.5
21
43.1
31
0
0
LINE
8
0
6
CONTINUOUS
10
2.2
20
43.4
30
0
11
2.2
21
45.53
31
0
0
LINE
8
0
6
CONTINUOUS
10
2.75
20
43.1
30
0
11
4.05
21
43.1
31
0
0
ARC
8
0
6
CONTINUOUS
10
5.219999999999999
20
2.8000000000000003
30
0
40
0.2
50
180.00000000000014
51
270.0000000000002
0
ARC
8
0
6
CONTINUOUS
10
1.2441259924602386
20
6.3000283743648104
30
0
40
0.3
50
56.432887973204224
51
90.78803135872629
0
ARC
8
0
6
CONTINUOUS
10
-1.2349999999999999
20
8.891173280221293
30
0
40
2.49
50
246.9480078519286
51
293.0519921480714
0
ARC
8
0
6
CONTINUOUS
10
0.8399886139423696
20
6.608837885816612
30
0
40
3.43
50
180.1476309380239
51
251.82321208805143
0
ARC
8
0
6
CONTINUOUS
10
0.24696670704578688
20
3.5000092009508035
30
0
40
0.5
50
89.65240809927371
51
197.45870838755206
0
ARC
8
0
6
CONTINUOUS
10
2.15
20
3.5
30
0
40
0.5
50
0.0
51
90.0
0
ARC
8
0
6
CONTINUOUS
10
2.42
20
2.83
30
0
40
0.23
50
270.0
51
0.0
0
ARC
8
0
6
CONTINUOUS
10
2.35
20
2.3000000000000003
30
0
40
0.3
50
90.0
51
180.00000000000009
0
ARC
8
0
6
CONTINUOUS
10
5.549999999999999
20
2.3000000000000003
30
0
40
0.3
50
359.99999999999994
51
89.99999999999983
0
ARC
8
0
6
CONTINUOUS
10
5.989172789728311
20
3.0599487372203695
30
0
40
0.97
50
104.2746281259035
51
177.6335867364265
0
ARC
8
0
6
CONTINUOUS
10
6.535584620345346
20
4.183321200992456
30
0
40
0.49
50
338.02976335903355
51
27.555641372393087
0
ARC
8
0
6
CONTINUOUS
10
6.7092887652727855
20
4.261576106751604
30
0
40
0.3
50
29.65302317897425
51
84.12429290028182
0
ARC
8
0
6
CONTINUOUS
10
8.116642890231006
20
16.3801038215735
30
0
40
11.9
50
235.69601969496077
51
263.35690536859164
0
ARC
8
0
6
CONTINUOUS
10
4.15
20
2.6
30
0
40
0.3
50
270.0
51
0.0
0
ARC
8
0
6
CONTINUOUS
10
3.75
20
2.6
30
0
40
0.3
50
180.0
51
270.0
0
ARC
8
0
6
CONTINUOUS
10
3.749958787164749
20
3.7850274752235005
30
0
40
0.3
50
113.56959071571045
51
179.05027423232994
0
ARC
8
0
6
CONTINUOUS
10
4.150042745193577
20
3.9650641177903654
30
0
40
0.3
50
359.03277880723886
51
113.58708614080153
0
ARC
8
0
6
CONTINUOUS
10
8.076577563186778
20
16.40234963787769
30
0
40
12.7
50
236.51634885620467
51
242.1823152296896
0
ARC
8
0
6
CONTINUOUS
10
2.019547245234144
20
4.89984804503021
30
0
40
0.3
50
268.1763025523023
51
64.22472665565897
0
ARC
8
0
6
CONTINUOUS
10
0.251315568647975
20
3.500000786691584
30
0
40
1.1
50
90.06852413559803
51
121.29052410924035
0
ARC
8
0
6
CONTINUOUS
10
-0.4774125888908372
20
4.695384566602378
30
0
40
0.3
50
234.87996040663649
51
301.6486304155068
0
ARC
8
0
6
CONTINUOUS
10
0.8324093684776812
20
6.622409368477682
30
0
40
2.63
50
214.30885759969334
51
235.6911424003067
0
ARC
8
0
6
CONTINUOUS
10
-1.092874092296906
20
5.310084642875016
30
0
40
0.3
50
91.36107613036117
51
214.5377298554667
0
ARC
8
0
6
CONTINUOUS
10
-1.2233899965224901
20
8.897685342115054
30
0
40
3.29
50
272.1493569771099
51
293.90903263877755
0
ARC
8
0
6
CONTINUOUS
10
0.5172225878164253
20
4.976671053797103
30
0
40
1.0
50
56.44223550610868
51
114.03048111243896
0
LINE
8
0
6
CONTINUOUS
10
5.02
20
2.8
30
0
11
5.02
21
3.1
31
0
0
LINE
8
0
6
CONTINUOUS
10
1.24
20
6.6
30
0
11
-0.26
21
6.6
31
0
0
LINE
8
0
6
CONTINUOUS
10
-2.21
20
6.6
30
0
11
-2.59
21
6.6
31
0
0
LINE
8
0
6
CONTINUOUS
10
0.25
20
4.0
30
0
11
2.15
21
4.0
31
0
0
LINE
8
0
6
CONTINUOUS
10
2.65
20
3.5
30
0
11
2.65
21
2.83
31
0
0
LINE
8
0
6
CONTINUOUS
10
2.05
20
2.3
30
0
11
2.05
21
2.13
31
0
0
LINE
8
0
6
CONTINUOUS
10
2.05
20
2.13
30
0
11
2.8
21
1.5
31
0
0
LINE
8
0
6
CONTINUOUS
10
2.8
20
1.5
30
0
11
5.1
21
1.5
31
0
0
LINE
8
0
6
CONTINUOUS
10
5.1
20
1.5
30
0
11
5.85
21
2.13
31
0
0
LINE
8
0
6
CONTINUOUS
10
5.85
20
2.13
30
0
11
5.85
21
2.3
31
0
0
LINE
8
0
6
CONTINUOUS
10
5.55
20
2.6
30
0
11
5.22
21
2.6
31
0
0
LINE
8
0
6
CONTINUOUS
10
5.75
20
4.0
30
0
11
6.99
21
4.0
31
0
0
LINE
8
0
6
CONTINUOUS
10
4.45
20
3.96
30
0
11
4.45
21
2.6
31
0
0
LINE
8
0
6
CONTINUOUS
10
4.15
20
2.3
30
0
11
3.75
21
2.3
31
0
0
LINE
8
0
6
CONTINUOUS
10
3.45
20
2.6
30
0
11
3.45
21
3.79
31
0
0
LINE
8
0
6
CONTINUOUS
10
3.63
20
4.06
30
0
11
4.03
21
4.24
31
0
0
LINE
8
0
6
CONTINUOUS
10
2.01
20
4.6
30
0
11
0.25
21
4.6
31
0
0
LINE
8
0
6
CONTINUOUS
10
155.5
20
62.0
30
0
11
174.8
21
62.0
31
0
0
LINE
8
0
6
CONTINUOUS
10
174.8
20
62.0
30
0
11
174.8
21
43.1
31
0
0
LINE
8
0
6
CONTINUOUS
10
174.8
20
43.1
30
0
11
172.51
21
43.1
31
0
0
LINE
8
0
6
CONTINUOUS
10
172.51
20
43.1
30
0
11
172.51
21
44.67
31
0
0
LINE
8
0
6
CONTINUOUS
10
172.51
20
44.67
30
0
11
173.6
21
44.67
31
0
0
LINE
8
0
6
CONTINUOUS
10
173.6
20
44.67
30
0
11
173.6
21
48.3
31
0
0
LINE
8
0
6
CONTINUOUS
10
173.6
20
48.3
30
0
11
151.98
21
48.3
31
0
0
LINE
8
0
6
CONTINUOUS
10
151.98
20
48.3
30
0
11
153.23
21
46.2
31
0
0
LINE
8
0
6
CONTINUOUS
10
153.23
20
46.2
30
0
11
152.14
21
46.2
31
0
0
LINE
8
0
6
CONTINUOUS
10
152.14
20
46.2
30
0
11
150.5
21
48.28
31
0
0
LINE
8
0
6
CONTINUOUS
10
150.5
20
48.28
30
0
11
150.5
21
49.4
31
0
0
LINE
8
0
6
CONTINUOUS
10
150.5
20
49.4
30
0
11
173.6
21
49.4
31
0
0
LINE
8
0
6
CONTINUOUS
10
173.6
20
49.4
30
0
11
173.3
21
60.5
31
0
0
LINE
8
0
6
CONTINUOUS
10
173.3
20
60.5
30
0
11
158.42
21
60.5
31
0
0
LINE
8
0
6
CONTINUOUS
10
158.42
20
60.5
30
0
11
156.59
21
56.72
31
0
0
LINE
8
0
6
CONTINUOUS
10
156.59
20
56.72
30
0
11
155.51
21
56.1
31
0
0
LINE
8
0
6
CONTINUOUS
10
155.51
20
56.1
30
0
11
152.1
21
56.1
31
0
0
LINE
8
0
6
CONTINUOUS
10
152.1
20
56.1
30
0
11
152.1
21
57.3
31
0
0
LINE
8
0
6
CONTINUOUS
10
152.1
20
57.3
30
0
11
155.0
21
57.3
31
0
0
LINE
8
0
6
CONTINUOUS
10
155.0
20
57.3
30
0
11
155.79
21
57.8
31
0
0
LINE
8
0
6
CONTINUOUS
10
155.79
20
57.8
30
0
11
156.74
21
59.91
31
0
0
LINE
8
0
6
CONTINUOUS
10
156.74
20
59.91
30
0
11
156.74
21
60.8
31
0
0
LINE
8
0
6
CONTINUOUS
10
156.74
20
60.8
30
0
11
155.5
21
60.8
31
0
0
LINE
8
0
6
CONTINUOUS
10
155.5
20
60.8
30
0
11
155.5
21
62.0
31
0
0
ARC
8
0
6
CONTINUOUS
10
180.21
20
36.7
30
0
40
0.2
50
270.0
51
0.0
0
ARC
8
0
6
CONTINUOUS
10
175.6014645300787
20
40.999991905076406
30
0
40
4.5
50
226.6075219764754
51
270.1086770435327
0
ARC
8
0
6
CONTINUOUS
10
171.135
20
36.277631245172216
30
0
40
2.0
50
46.56746344221022
51
133.4325365577898
0
ARC
8
0
6
CONTINUOUS
10
166.66854378311032
20
40.999999764381364
30
0
40
4.5
50
270.0185411296199
51
313.3923323625911
0
ARC
8
0
6
CONTINUOUS
10
163.45
20
36.7
30
0
40
0.2
50
180.0
51
270.0
0
ARC
8
0
6
CONTINUOUS
10
163.95549965953052
20
36.90622854802734
30
0
40
0.72
50
82.45814167207695
51
168.48160266272237
0
ARC
8
0
6
CONTINUOUS
10
164.28659470312698
20
40.619970049519786
30
0
40
3.0
50
270.2560231633173
51
348.85320502493886
0
ARC
8
0
6
CONTINUOUS
10
169.06170421782906
20
41.60002294017603
30
0
40
1.5
50
89.68312284718043
51
168.8535151126931
0
ARC
8
0
6
CONTINUOUS
10
170.18572732619097
20
43.39996957222112
30
0
40
0.3
50
270.81604817797927
51
315.58113284931017
0
ARC
8
0
6
CONTINUOUS
10
171.30536144853224
20
43.741819298551526
30
0
40
0.25
50
30.84536526730585
51
134.5431156660689
0
ARC
8
0
6
CONTINUOUS
10
172.13980765673466
20
43.3999999383401
30
0
40
0.3
50
209.99998640204896
51
270.03673486025315
0
ARC
8
0
6
CONTINUOUS
10
174.5
20
43.4
30
0
40
0.3
50
270.0
51
0.0
0
ARC
8
0
6
CONTINUOUS
10
175.0998953871199
20
45.53792191796359
30
0
40
0.3
50
50.67769754408247
51
181.5131507706971
0
ARC
8
0
6
CONTINUOUS
10
168.77331414014387
20
38.747948632774666
30
0
40
9.58
50
356.0019088393232
51
47.13770851012756
0
ARC
8
0
6
CONTINUOUS
10
178.03059410249756
20
38.09887083836923
30
0
40
0.3
50
248.36780104052661
51
356.3935543726098
0
ARC
8
0
6
CONTINUOUS
10
179.46690232297325
20
42.04576539850236
30
0
40
4.5
50
207.90117034784885
51
249.89411974920878
0
ARC
8
0
6
CONTINUOUS
10
175.20046375257272
20
39.89981294846452
30
0
40
0.2923118842698666
50
7.902053539278055
51
217.96214733589954
0
ARC
8
0
6
CONTINUOUS
10
180.52957845020967
20
44.66415690041934
30
0
40
7.44
50
221.64683179543056
51
265.22306585041343
0
ARC
8
0
6
CONTINUOUS
10
179.91
20
36.75
30
0
40
0.5
50
0.0
51
90.0
0
LINE
8
0
6
CONTINUOUS
10
180.21
20
36.5
30
0
11
175.61
21
36.5
31
0
0
LINE
8
0
6
CONTINUOUS
10
166.67
20
36.5
30
0
11
163.45
21
36.5
31
0
0
LINE
8
0
6
CONTINUOUS
10
163.25
20
36.7
30
0
11
163.25
21
37.05
31
0
0
LINE
8
0
6
CONTINUOUS
10
164.05
20
37.62
30
0
11
164.3
21
37.62
31
0
0
LINE
8
0
6
CONTINUOUS
10
167.23
20
40.04
30
0
11
167.59
21
41.89
31
0
0
LINE
8
0
6
CONTINUOUS
10
169.07
20
43.1
30
0
11
170.19
21
43.1
31
0
0
LINE
8
0
6
CONTINUOUS
10
170.4
20
43.19
30
0
11
171.13
21
43.92
31
0
0
LINE
8
0
6
CONTINUOUS
10
171.52
20
43.87
30
0
11
171.88
21
43.25
31
0
0
LINE
8
0
6
CONTINUOUS
10
172.14
20
43.1
30
0
11
174.5
21
43.1
31
0
0
LINE
8
0
6
CONTINUOUS
10
174.8
20
43.4
30
0
11
174.8
21
45.53
31
0
0
LINE
8
0
6
CONTINUOUS
10
174.25
20
43.1
30
0
11
172.95
21
43.1
31
0
0
ARC
8
0
6
CONTINUOUS
10
171.78
20
2.8000000000000003
30
0
40
0.2
50
270.0
51
359.9999999999999
0
ARC
8
0
6
CONTINUOUS
10
175.75587400753977
20
6.30002837436481
30
0
40
0.3
50
89.21196864127779
51
123.56711202679709
0
ARC
8
0
6
CONTINUOUS
10
178.235
20
8.89117328022129
30
0
40
2.49
50
246.94800785192808
51
293.05199214807135
0
ARC
8
0
6
CONTINUOUS
10
176.16001138605765
20
6.608837885816617
30
0
40
3.43
50
288.1767879119481
51
359.852369061976
0
ARC
8
0
6
CONTINUOUS
10
176.75303329295423
20
3.5000092009508035
30
0
40
0.5
50
342.5412916124471
51
90.34759190072805
0
ARC
8
0
6
CONTINUOUS
10
174.85
20
3.5
30
0
40
0.5
50
90.0
51
180.0
0
ARC
8
0
6
CONTINUOUS
10
174.57999999999998
20
2.83
30
0
40
0.23
50
180.0
51
270.00000000000705
0
ARC
8
0
6
CONTINUOUS
10
174.65
20
2.3000000000000003
30
0
40
0.3
50
359.99999999999994
51
90.0
0
ARC
8
0
6
CONTINUOUS
10
171.45000000000002
20
2.3000000000000003
30
0
40
0.3
50
90.00000000000543
51
180.00000000000009
0
ARC
8
0
6
CONTINUOUS
10
171.01082721027169
20
3.059948737220372
30
0
40
0.97
50
2.3664132635733415
51
75.72537187409625
0
ARC
8
0
6
CONTINUOUS
10
170.46441537965464
20
4.183321200992445
30
0
40
0.49
50
152.44435862760494
51
201.9702366409656
0
ARC
8
0
6
CONTINUOUS
10
170.2907112347272
20
4.261576106751605
30
0
40
0.3
50
95.87570709971938
51
150.34697682102558
0
ARC
8
0
6
CONTINUOUS
10
168.883357109769
20
16.3801038215735
30
0
40
11.9
50
276.64309463140825
51
304.3039803050392
0
ARC
8
0
6
CONTINUOUS
10
172.85
20
2.6
30
0
40
0.3
50
180.0
51
270.0
0
ARC
8
0
6
CONTINUOUS
10
173.25
20
2.6
30
0
40
0.3
50
270.0
51
0.0
0
ARC
8
0
6
CONTINUOUS
10
173.25004121283527
20
3.7850274752234974
30
0
40
0.3
50
0.949725767670676
51
66.43040928429244
0
ARC
8
0
6
CONTINUOUS
10
172.8499572548064
20
3.96506411779036
30
0
40
0.3
50
66.41291385919719
51
180.96722119276018
0
ARC
8
0
6
CONTINUOUS
10
168.92342243681327
20
16.402349637877727
30
0
40
12.7
50
297.8176847703101
51
303.4836511437951
0
ARC
8
0
6
CONTINUOUS
10
174.98045275476588
20
4.899848045030209
30
0
40
0.3
50
115.77527334434569
51
271.8236974476953
0
ARC
8
0
6
CONTINUOUS
10
176.74868443135202
20
3.500000786691584
30
0
40
1.1
50
58.70947589075966
51
89.93147586440162
0
ARC
8
0
6
CONTINUOUS
10
177.47741258889084
20
4.695384566602374
30
0
40
0.3
50
238.35136958449073
51
305.12003959336397
0
ARC
8
0
6
CONTINUOUS
10
176.16759063152233
20
6.62240936847768
30
0
40
2.63
50
304.3088575996932
51
325.6911424003066
0
ARC
8
0
6
CONTINUOUS
10
178.0928740922969
20
5.310084642875015
30
0
40
0.3
50
325.4622701445334
51
88.63892386964065
0
ARC
8
0
6
CONTINUOUS
10
178.22338999652249
20
8.897685342115054
30
0
40
3.29
50
246.0909673612223
51
267.8506430228901
0
ARC
8
0
6
CONTINUOUS
10
176.48277741218357
20
4.976671053797098
30
0
40
1.0
50
65.96951888756142
51
123.55776449389042
0
LINE
8
0
6
CONTINUOUS
10
171.98
20
2.8
30
0
11
171.98
21
3.1
31
0
0
LINE
8
0
6
CONTINUOUS
10
175.76
20
6.6
30
0
11
177.26
21
6.6
31
0
0
LINE
8
0
6
CONTINUOUS
10
179.21
20
6.6
30
0
11
179.59
21
6.6
31
0
0
LINE
8
0
6
CONTINUOUS
10
176.75
20
4.0
30
0
11
174.85
21
4.0
31
0
0
LINE
8
0
6
CONTINUOUS
10
174.35
20
3.5
30
0
11
174.35
21
2.83
31
0
0
LINE
8
0
6
CONTINUOUS
10
174.95
20
2.3
30
0
11
174.95
21
2.13
31
0
0
LINE
8
0
6
CONTINUOUS
10
174.95
20
2.13
30
0
11
174.2
21
1.5
31
0
0
LINE
8
0
6
CONTINUOUS
10
174.2
20
1.5
30
0
11
171.9
21
1.5
31
0
0
LINE
8
0
6
CONTINUOUS
10
171.9
20
1.5
30
0
11
171.15
21
2.13
31
0
0
LINE
8
0
6
CONTINUOUS
10
171.15
20
2.13
30
0
11
171.15
21
2.3
31
0
0
LINE
8
0
6
CONTINUOUS
10
171.45
20
2.6
30
0
11
171.78
21
2.6
31
0
0
LINE
8
0
6
CONTINUOUS
10
171.25
20
4.0
30
0
11
170.01
21
4.0
31
0
0
LINE
8
0
6
CONTINUOUS
10
172.55
20
3.96
30
0
11
172.55
21
2.6
31
0
0
LINE
8
0
6
CONTINUOUS
10
172.85
20
2.3
30
0
11
173.25
21
2.3
31
0
0
LINE
8
0
6
CONTINUOUS
10
173.55
20
2.6
30
0
11
173.55
21
3.79
31
0
0
LINE
8
0
6
CONTINUOUS
10
173.37
20
4.06
30
0
11
172.97
21
4.24
31
0
0
LINE
8
0
6
CONTINUOUS
10
174.99
20
4.6
30
0
11
176.75
21
4.6
31
0
0
ARC
8
0
6
CONTINUOUS
10
98.10743019491002
20
56.342011364370165
30
0
40
0.23
50
14.603264999848397
51
149.1365302918396
0
ARC
8
0
6
CONTINUOUS
10
97.33980451015174
20
55.72212619767087
30
0
40
1.2
50
343.4348651117276
51
34.39498880256759
0
ARC
8
0
6
CONTINUOUS
10
98.0956016143411
20
55.313292328854416
30
0
40
0.4
50
286.6183913425031
51
9.600025053806258
0
ARC
8
0
6
CONTINUOUS
10
96.21480732545547
20
58.7603120614562
30
0
40
3.93
50
223.2008386919924
51
257.73584061219003
0
ARC
8
0
6
CONTINUOUS
10
93.18125999346168
20
55.5997325046313
30
0
40
0.59
50
130.2559607448287
51
159.1216123759034
0
ARC
8
0
6
CONTINUOUS
10
92.84184801965243
20
55.69721517580216
30
0
40
0.24
50
151.96980794528977
51
227.59500611833053
0
ARC
8
0
6
CONTINUOUS
10
98.75967694472632
20
64.00711542561801
30
0
40
10.44
50
234.38438574163365
51
249.94750637726463
0
ARC
8
0
6
CONTINUOUS
10
100.89820461283651
20
54.84144633937886
30
0
40
0.61
50
279.60633034769995
51
40.79591694324996
0
ARC
8
0
6
CONTINUOUS
10
99.71574471415875
20
57.33425536823395
30
0
40
0.51
50
14.273931395190008
51
97.40667951347011
0
ARC
8
0
6
CONTINUOUS
10
97.9
20
58.54
30
0
40
0.7
50
180.0
51
270.0
0
ARC
8
0
6
CONTINUOUS
10
97.59998165739127
20
58.756169366822775
30
0
40
0.4
50
100.07598955352483
51
179.45129382792797
0
ARC
8
0
6
CONTINUOUS
10
94.30001834260874
20
58.756169366822775
30
0
40
0.4
50
0.5487061720720391
51
79.92401044647518
0
ARC
8
0
6
CONTINUOUS
10
94.0
20
58.54
30
0
40
0.7
50
270.0
51
0.0
0
ARC
8
0
6
CONTINUOUS
10
91.9
20
57.64
30
0
40
0.2
50
90.0
51
180.0
0
ARC
8
0
6
CONTINUOUS
10
92.19999089183226
20
57.33301796036759
30
0
40
0.5
50
180.34583488355233
51
240.00120517573689
0
ARC
8
0
6
CONTINUOUS
10
95.1169622524387
20
58.30921046362335
30
0
40
2.84
50
230.74793874364045
51
268.64894013087246
0
ARC
8
0
6
CONTINUOUS
10
94.7673465799759
20
60.91266543562515
30
0
40
5.45
50
272.9728654879014
51
305.21411851307005
0
ARC
8
0
6
CONTINUOUS
10
95.62899773980344
20
59.44000251132952
30
0
40
0.2
50
89.71287240202886
51
174.26155258960645
0
ARC
8
0
6
CONTINUOUS
10
96.27100226019658
20
59.44000251132952
30
0
40
0.2
50
5.738447410393969
51
90.28712759797928
0
ARC
8
0
6
CONTINUOUS
10
96.38100276524726
20
58.139997486138846
30
0
40
0.2
50
269.7127277138414
51
5.739894273971456
0
ARC
8
0
6
CONTINUOUS
10
95.51899723475272
20
58.139997486138846
30
0
40
0.2
50
174.26010572602814
51
270.28727228616265
0
ARC
8
0
6
CONTINUOUS
10
99.90941221641626
20
55.36275572360519
30
0
40
0.48
50
250.6031798133563
51
48.09548427253733
0
ARC
8
0
6
CONTINUOUS
10
88.84340326497589
20
49.76450549543214
30
0
40
12.85
50
27.610769935422997
51
33.40970487680875
0
ARC
8
0
6
CONTINUOUS
10
99.12003867225668
20
56.834100547867344
30
0
40
0.45
50
0.751163092785883
51
137.17381485637145
0
ARC
8
0
6
CONTINUOUS
10
95.40003579333488
20
59.22907147878325
30
0
40
3.12
50
227.1955216683495
51
317.2196538904637
0
ARC
8
0
6
CONTINUOUS
10
98.09468248747726
20
54.218178414160164
30
0
40
2.92
50
83.6033915597149
51
97.96625764626887
0
ARC
8
0
6
CONTINUOUS
10
97.54841224616439
20
55.76632544998297
30
0
40
1.61
50
342.0445943026699
51
57.223810130372854
0
ARC
8
0
6
CONTINUOUS
10
99.28537263552593
20
55.145814330226344
30
0
40
0.24
50
148.83929264655143
51
280.71637008617574
0
ARC
8
0
6
CONTINUOUS
10
98.10743019491002
20
56.342011364370165
30
0
40
0.23
50
14.603264999848397
51
149.1365302918396
0
ARC
8
0
6
CONTINUOUS
10
97.33980451015174
20
55.72212619767087
30
0
40
1.2
50
343.4348651117276
51
34.39498880256759
0
ARC
8
0
6
CONTINUOUS
10
98.0956016143411
20
55.313292328854416
30
0
40
0.4
50
286.6183913425031
51
9.600025053806258
0
ARC
8
0
6
CONTINUOUS
10
96.21480732545547
20
58.7603120614562
30
0
40
3.93
50
223.2008386919924
51
257.73584061219003
0
ARC
8
0
6
CONTINUOUS
10
93.07484621651109
20
55.79361187537858
30
0
40
0.39
50
45.12822673718923
51
136.91783364014498
0
ARC
8
0
6
CONTINUOUS
10
93.18125999346168
20
55.5997325046313
30
0
40
0.59
50
130.2559607448287
51
159.1216123759034
0
ARC
8
0
6
CONTINUOUS
10
92.84184801965243
20
55.69721517580216
30
0
40
0.24
50
151.96980794528977
51
227.59500611833053
0
ARC
8
0
6
CONTINUOUS
10
98.75967694472632
20
64.00711542561801
30
0
40
10.44
50
234.38438574163365
51
249.94750637726463
0
ARC
8
0
6
CONTINUOUS
10
100.89820461283651
20
54.84144633937886
30
0
40
0.61
50
279.60633034769995
51
40.79591694324996
0
ARC
8
0
6
CONTINUOUS
10
99.71574471415875
20
57.33425536823395
30
0
40
0.51
50
14.273931395190008
51
97.40667951347011
0
ARC
8
0
6
CONTINUOUS
10
97.9
20
58.54
30
0
40
0.7
50
180.0
51
270.0
0
ARC
8
0
6
CONTINUOUS
10
97.59998165739127
20
58.756169366822775
30
0
40
0.4
50
100.07598955352483
51
179.45129382792797
0
ARC
8
0
6
CONTINUOUS
10
94.30001834260874
20
58.756169366822775
30
0
40
0.4
50
0.5487061720720391
51
79.92401044647518
0
ARC
8
0
6
CONTINUOUS
10
94.0
20
58.54
30
0
40
0.7
50
270.0
51
0.0
0
ARC
8
0
6
CONTINUOUS
10
91.9
20
57.64
30
0
40
0.2
50
90.0
51
180.0
0
ARC
8
0
6
CONTINUOUS
10
92.19999089183226
20
57.33301796036759
30
0
40
0.5
50
180.34583488355233
51
240.00120517573689
0
ARC
8
0
6
CONTINUOUS
10
95.1169622524387
20
58.30921046362335
30
0
40
2.84
50
230.74793874364045
51
268.64894013087246
0
ARC
8
0
6
CONTINUOUS
10
94.7673465799759
20
60.91266543562515
30
0
40
5.45
50
272.9728654879014
51
305.21411851307005
0
ARC
8
0
6
CONTINUOUS
10
95.62899773980344
20
59.44000251132952
30
0
40
0.2
50
89.71287240202886
51
174.26155258960645
0
ARC
8
0
6
CONTINUOUS
10
96.27100226019658
20
59.44000251132952
30
0
40
0.2
50
5.738447410393969
51
90.28712759797928
0
ARC
8
0
6
CONTINUOUS
10
96.38100276524726
20
58.139997486138846
30
0
40
0.2
50
269.7127277138414
51
5.739894273971456
0
ARC
8
0
6
CONTINUOUS
10
95.51899723475272
20
58.139997486138846
30
0
40
0.2
50
174.26010572602814
51
270.28727228616265
0
ARC
8
0
6
CONTINUOUS
10
99.90941221641626
20
55.36275572360519
30
0
40
0.48
50
250.6031798133563
51
48.09548427253733
0
ARC
8
0
6
CONTINUOUS
10
88.84340326497589
20
49.76450549543214
30
0
40
12.85
50
27.610769935422997
51
33.40970487680875
0
ARC
8
0
6
CONTINUOUS
10
99.12003867225668
20
56.834100547867344
30
0
40
0.45
50
0.751163092785883
51
137.17381485637145
0
ARC
8
0
6
CONTINUOUS
10
95.40003579333488
20
59.22907147878325
30
0
40
3.12
50
227.1955216683495
51
317.2196538904637
0
ARC
8
0
6
CONTINUOUS
10
98.09468248747726
20
54.218178414160164
30
0
40
2.92
50
83.6033915597149
51
97.96625764626887
0
ARC
8
0
6
CONTINUOUS
10
97.54841224616439
20
55.76632544998297
30
0
40
1.61
50
342.0445943026699
51
57.223810130372854
0
ARC
8
0
6
CONTINUOUS
10
99.28537263552593
20
55.145814330226344
30
0
40
0.24
50
148.83929264655143
51
280.71637008617574
0
LINE
8
0
6
CONTINUOUS
10
97.2
20
58.76
30
0
11
97.2
21
58.54
31
0
0
LINE
8
0
6
CONTINUOUS
10
97.9
20
57.84
30
0
11
99.65
21
57.84
31
0
0
LINE
8
0
6
CONTINUOUS
10
95.38
20
54.92
30
0
11
98.21
21
54.93
31
0
0
LINE
8
0
6
CONTINUOUS
10
98.21
20
54.93
30
0
11
95.38
21
54.92
31
0
0
LINE
8
0
6
CONTINUOUS
10
101.0
20
54.24
30
0
11
95.18
21
54.2
31
0
0
LINE
8
0
6
CONTINUOUS
10
95.18
20
54.2
30
0
11
101.0
21
54.24
31
0
0
LINE
8
0
6
CONTINUOUS
10
100.21
20
57.46
30
0
11
101.36
21
55.24
31
0
0
LINE
8
0
6
CONTINUOUS
10
101.36
20
55.24
30
0
11
100.21
21
57.46
31
0
0
LINE
8
0
6
CONTINUOUS
10
94.37
20
59.15
30
0
11
93.75
21
59.26
31
0
0
LINE
8
0
6
CONTINUOUS
10
93.75
20
59.26
30
0
11
93.75
21
59.66
31
0
0
LINE
8
0
6
CONTINUOUS
10
93.75
20
59.66
30
0
11
95.11
21
60.44
31
0
0
LINE
8
0
6
CONTINUOUS
10
95.11
20
60.44
30
0
11
96.79
21
60.44
31
0
0
LINE
8
0
6
CONTINUOUS
10
96.79
20
60.44
30
0
11
98.15
21
59.66
31
0
0
LINE
8
0
6
CONTINUOUS
10
98.15
20
59.66
30
0
11
98.15
21
59.26
31
0
0
LINE
8
0
6
CONTINUOUS
10
98.15
20
59.26
30
0
11
97.53
21
59.15
31
0
0
LINE
8
0
6
CONTINUOUS
10
97.53
20
59.15
30
0
11
98.15
21
59.26
31
0
0
LINE
8
0
6
CONTINUOUS
10
98.15
20
59.26
30
0
11
98.15
21
59.66
31
0
0
LINE
8
0
6
CONTINUOUS
10
98.15
20
59.66
30
0
11
96.79
21
60.44
31
0
0
LINE
8
0
6
CONTINUOUS
10
96.79
20
60.44
30
0
11
95.11
21
60.44
31
0
0
LINE
8
0
6
CONTINUOUS
10
95.11
20
60.44
30
0
11
93.75
21
59.66
31
0
0
LINE
8
0
6
CONTINUOUS
10
93.75
20
59.66
30
0
11
93.75
21
59.26
31
0
0
LINE
8
0
6
CONTINUOUS
10
93.75
20
59.26
30
0
11
94.37
21
59.15
31
0
0
LINE
8
0
6
CONTINUOUS
10
94.7
20
58.54
30
0
11
94.7
21
58.76
31
0
0
LINE
8
0
6
CONTINUOUS
10
94.7
20
58.76
30
0
11
94.7
21
58.54
31
0
0
LINE
8
0
6
CONTINUOUS
10
91.9
20
57.84
30
0
11
94.0
21
57.84
31
0
0
LINE
8
0
6
CONTINUOUS
10
94.0
20
57.84
30
0
11
91.9
21
57.84
31
0
0
LINE
8
0
6
CONTINUOUS
10
91.7
20
57.33
30
0
11
91.7
21
57.64
31
0
0
LINE
8
0
6
CONTINUOUS
10
91.7
20
57.64
30
0
11
91.7
21
57.33
31
0
0
LINE
8
0
6
CONTINUOUS
10
93.32
20
56.11
30
0
11
91.95
21
56.9
31
0
0
LINE
8
0
6
CONTINUOUS
10
91.95
20
56.9
30
0
11
93.32
21
56.11
31
0
0
LINE
8
0
6
CONTINUOUS
10
96.27
20
59.64
30
0
11
95.63
21
59.64
31
0
0
LINE
8
0
6
CONTINUOUS
10
95.63
20
59.64
30
0
11
96.27
21
59.64
31
0
0
LINE
8
0
6
CONTINUOUS
10
96.58
20
58.16
30
0
11
96.47
21
59.46
31
0
0
LINE
8
0
6
CONTINUOUS
10
96.47
20
59.46
30
0
11
96.58
21
58.16
31
0
0
LINE
8
0
6
CONTINUOUS
10
95.52
20
57.94
30
0
11
96.38
21
57.94
31
0
0
LINE
8
0
6
CONTINUOUS
10
96.38
20
57.94
30
0
11
95.52
21
57.94
31
0
0
LINE
8
0
6
CONTINUOUS
10
95.43
20
59.46
30
0
11
95.32
21
58.16
31
0
0
LINE
8
0
6
CONTINUOUS
10
95.32
20
58.16
30
0
11
95.43
21
59.46
31
0
0
LINE
8
0
6
CONTINUOUS
10
99.75
20
54.91
30
0
11
99.33
21
54.91
31
0
0
LINE
8
0
6
CONTINUOUS
10
99.33
20
54.91
30
0
11
99.75
21
54.91
31
0
0
LINE
8
0
6
CONTINUOUS
10
93.25
20
56.97
30
0
11
93.28
21
57.14
31
0
0
LINE
8
0
6
CONTINUOUS
10
93.28
20
57.14
30
0
11
98.79
21
57.14
31
0
0
LINE
8
0
6
CONTINUOUS
10
98.79
20
57.14
30
0
11
93.28
21
57.14
31
0
0
LINE
8
0
6
CONTINUOUS
10
93.28
20
57.14
30
0
11
93.25
21
56.97
31
0
0
ARC
8
0
6
CONTINUOUS
10
84.74256980508997
20
5.657988635629834
30
0
40
0.23
50
194.6032649998486
51
329.13653029183996
0
ARC
8
0
6
CONTINUOUS
10
85.51710883690558
20
6.2676630642508115
30
0
40
1.2
50
162.92554787552558
51
213.80622437253868
0
ARC
8
0
6
CONTINUOUS
10
84.76388618893932
20
6.6896682866364054
30
0
40
0.4
50
108.04208437558509
51
190.03040256026785
0
ARC
8
0
6
CONTINUOUS
10
86.63519267454453
20
3.2396879385438115
30
0
40
3.93
50
43.20083869199232
51
77.73584061219002
0
ARC
8
0
6
CONTINUOUS
10
89.66874000653831
20
6.400267495368696
30
0
40
0.59
50
310.25596074482894
51
339.1216123759042
0
ARC
8
0
6
CONTINUOUS
10
90.00815198034756
20
6.302784824197858
30
0
40
0.24
50
331.96980794528713
51
47.59500611832617
0
ARC
8
0
6
CONTINUOUS
10
84.09032305527369
20
-2.007115425618018
30
0
40
10.44
50
54.38438574163368
51
69.94750637726465
0
ARC
8
0
6
CONTINUOUS
10
81.95179538716349
20
7.158553660621139
30
0
40
0.61
50
99.60633034769992
51
220.7959169432499
0
ARC
8
0
6
CONTINUOUS
10
83.13459668229905
20
4.664395023448577
30
0
40
0.51
50
194.1175342496813
51
278.50233069835895
0
ARC
8
0
6
CONTINUOUS
10
84.95000000000002
20
3.46
30
0
40
0.7
50
0.0
51
90.00000000000117
0
ARC
8
0
6
CONTINUOUS
10
85.25001834260874
20
3.2438306331772244
30
0
40
0.4
50
280.07598955352285
51
359.4512938279278
0
ARC
8
0
6
CONTINUOUS
10
88.54998165739126
20
3.2438306331772218
30
0
40
0.4
50
180.5487061720718
51
259.92401044647715
0
ARC
8
0
6
CONTINUOUS
10
88.85000000000001
20
3.46
30
0
40
0.7
50
90.00000000000117
51
180.0
0
ARC
8
0
6
CONTINUOUS
10
90.95000000000002
20
4.359999999999999
30
0
40
0.2
50
269.9999999999959
51
2.544443745170958e-13
0
ARC
8
0
6
CONTINUOUS
10
90.65000910816775
20
4.666982039632406
30
0
40
0.5
50
0.345834883552433
51
60.00120517573694
0
ARC
8
0
6
CONTINUOUS
10
87.7330377475613
20
3.690789536376647
30
0
40
2.84
50
50.74793874364046
51
88.6489401308725
0
ARC
8
0
6
CONTINUOUS
10
88.0826534200241
20
1.087334564374852
30
0
40
5.45
50
92.97286548790143
51
125.21411851307008
0
ARC
8
0
6
CONTINUOUS
10
87.22100226019657
20
2.5599974886704793
30
0
40
0.2
50
269.7128724020248
51
354.26155258960773
0
ARC
8
0
6
CONTINUOUS
10
86.57899773980341
20
2.5599974886704793
30
0
40
0.2
50
185.7384474103927
51
270.2871275979793
0
ARC
8
0
6
CONTINUOUS
10
86.46899723475273
20
3.860002513861151
30
0
40
0.2
50
89.71272771384139
51
185.73989427397157
0
ARC
8
0
6
CONTINUOUS
10
87.33100276524728
20
3.860002513861151
30
0
40
0.2
50
354.26010572602803
51
90.28727228616269
0
ARC
8
0
6
CONTINUOUS
10
82.94058778358378
20
6.6372442763947985
30
0
40
0.48
50
70.60317981336141
51
228.09548427253392
0
ARC
8
0
6
CONTINUOUS
10
94.00659673502417
20
12.235494504567779
30
0
40
12.85
50
207.61076993542255
51
213.40970487680826
0
ARC
8
0
6
CONTINUOUS
10
83.72996940626624
20
5.154752769834432
30
0
40
0.45
50
179.33188676441966
51
319.07988332457285
0
ARC
8
0
6
CONTINUOUS
10
87.4553495589629
20
2.7659525915488232
30
0
40
3.12
50
47.33017137892212
51
137.09502870787455
0
ARC
8
0
6
CONTINUOUS
10
84.76531751252276
20
7.781821585839834
30
0
40
2.92
50
263.6033915597146
51
277.96625764626856
0
ARC
8
0
6
CONTINUOUS
10
85.30329609283956
20
6.238977503893251
30
0
40
1.61
50
162.24286385418426
51
237.57407672646832
0
ARC
8
0
6
CONTINUOUS
10
83.56462736447406
20
6.854185669773656
30
0
40
0.24
50
328.83929264655217
51
100.71637008617591
0
ARC
8
0
6
CONTINUOUS
10
84.74256980508997
20
5.657988635629834
30
0
40
0.23
50
194.6032649998486
51
329.13653029183996
0
ARC
8
0
6
CONTINUOUS
10
85.51710883690558
20
6.2676630642508115
30
0
40
1.2
50
162.92554787552558
51
213.80622437253868
0
ARC
8
0
6
CONTINUOUS
10
84.76388618893932
20
6.6896682866364054
30
0
40
0.4
50
108.04208437558509
51
190.03040256026785
0
ARC
8
0
6
CONTINUOUS
10
86.63519267454453
20
3.2396879385438115
30
0
40
3.93
50
43.20083869199232
51
77.73584061219002
0
ARC
8
0
6
CONTINUOUS
10
89.7751537834889
20
6.206388124621412
30
0
40
0.39
50
225.12822673718847
51
316.9178336401474
0
ARC
8
0
6
CONTINUOUS
10
89.66874000653831
20
6.400267495368696
30
0
40
0.59
50
310.25596074482894
51
339.1216123759042
0
ARC
8
0
6
CONTINUOUS
10
90.00815198034756
20
6.302784824197858
30
0
40
0.24
50
331.96980794528713
51
47.59500611832617
0
ARC
8
0
6
CONTINUOUS
10
84.09032305527369
20
-2.007115425618018
30
0
40
10.44
50
54.38438574163368
51
69.94750637726465
0
ARC
8
0
6
CONTINUOUS
10
81.95179538716349
20
7.158553660621139
30
0
40
0.61
50
99.60633034769992
51
220.7959169432499
0
ARC
8
0
6
CONTINUOUS
10
83.13459668229905
20
4.664395023448577
30
0
40
0.51
50
194.1175342496813
51
278.50233069835895
0
ARC
8
0
6
CONTINUOUS
10
84.95000000000002
20
3.46
30
0
40
0.7
50
0.0
51
90.00000000000117
0
ARC
8
0
6
CONTINUOUS
10
85.25001834260874
20
3.2438306331772244
30
0
40
0.4
50
280.07598955352285
51
359.4512938279278
0
ARC
8
0
6
CONTINUOUS
10
88.54998165739126
20
3.2438306331772218
30
0
40
0.4
50
180.5487061720718
51
259.92401044647715
0
ARC
8
0
6
CONTINUOUS
10
88.85000000000001
20
3.46
30
0
40
0.7
50
90.00000000000117
51
180.0
0
ARC
8
0
6
CONTINUOUS
10
90.95000000000002
20
4.359999999999999
30
0
40
0.2
50
269.9999999999959
51
2.544443745170958e-13
0
ARC
8
0
6
CONTINUOUS
10
90.65000910816775
20
4.666982039632406
30
0
40
0.5
50
0.345834883552433
51
60.00120517573694
0
ARC
8
0
6
CONTINUOUS
10
87.7330377475613
20
3.690789536376647
30
0
40
2.84
50
50.74793874364046
51
88.6489401308725
0
ARC
8
0
6
CONTINUOUS
10
88.0826534200241
20
1.087334564374852
30
0
40
5.45
50
92.97286548790143
51
125.21411851307008
0
ARC
8
0
6
CONTINUOUS
10
87.22100226019657
20
2.5599974886704793
30
0
40
0.2
50
269.7128724020248
51
354.26155258960773
0
ARC
8
0
6
CONTINUOUS
10
86.57899773980341
20
2.5599974886704793
30
0
40
0.2
50
185.7384474103927
51
270.2871275979793
0
ARC
8
0
6
CONTINUOUS
10
86.46899723475273
20
3.860002513861151
30
0
40
0.2
50
89.71272771384139
51
185.73989427397157
0
ARC
8
0
6
CONTINUOUS
10
87.33100276524728
20
3.860002513861151
30
0
40
0.2
50
354.26010572602803
51
90.28727228616269
0
ARC
8
0
6
CONTINUOUS
10
82.94058778358378
20
6.6372442763947985
30
0
40
0.48
50
70.60317981336141
51
228.09548427253392
0
ARC
8
0
6
CONTINUOUS
10
94.00659673502417
20
12.235494504567779
30
0
40
12.85
50
207.61076993542255
51
213.40970487680826
0
ARC
8
0
6
CONTINUOUS
10
83.72996940626624
20
5.154752769834432
30
0
40
0.45
50
179.33188676441966
51
319.07988332457285
0
ARC
8
0
6
CONTINUOUS
10
87.4553495589629
20
2.7659525915488232
30
0
40
3.12
50
47.33017137892212
51
137.09502870787455
0
ARC
8
0
6
CONTINUOUS
10
84.76531751252276
20
7.781821585839834
30
0
40
2.92
50
263.6033915597146
51
277.96625764626856
0
ARC
8
0
6
CONTINUOUS
10
85.30329609283956
20
6.238977503893251
30
0
40
1.61
50
162.24286385418426
51
237.57407672646832
0
ARC
8
0
6
CONTINUOUS
10
83.56462736447406
20
6.854185669773656
30
0
40
0.24
50
328.83929264655217
51
100.71637008617591
0
LINE
8
0
6
CONTINUOUS
10
85.65
20
3.24
30
0
11
85.65
21
3.46
31
0
0
LINE
8
0
6
CONTINUOUS
10
84.95
20
4.16
30
0
11
83.21
21
4.16
31
0
0
LINE
8
0
6
CONTINUOUS
10
87.47
20
7.08
30
0
11
84.64
21
7.07
31
0
0
LINE
8
0
6
CONTINUOUS
10
84.64
20
7.07
30
0
11
87.47
21
7.08
31
0
0
LINE
8
0
6
CONTINUOUS
10
81.85
20
7.76
30
0
11
87.67
21
7.8
31
0
0
LINE
8
0
6
CONTINUOUS
10
87.67
20
7.8
30
0
11
81.85
21
7.76
31
0
0
LINE
8
0
6
CONTINUOUS
10
82.64
20
4.54
30
0
11
81.49
21
6.76
31
0
0
LINE
8
0
6
CONTINUOUS
10
81.49
20
6.76
30
0
11
82.64
21
4.54
31
0
0
LINE
8
0
6
CONTINUOUS
10
88.48
20
2.85
30
0
11
89.1
21
2.74
31
0
0
LINE
8
0
6
CONTINUOUS
10
89.1
20
2.74
30
0
11
89.1
21
2.34
31
0
0
LINE
8
0
6
CONTINUOUS
10
89.1
20
2.34
30
0
11
87.74
21
1.56
31
0
0
LINE
8
0
6
CONTINUOUS
10
87.74
20
1.56
30
0
11
86.06
21
1.56
31
0
0
LINE
8
0
6
CONTINUOUS
10
86.06
20
1.56
30
0
11
84.7
21
2.34
31
0
0
LINE
8
0
6
CONTINUOUS
10
84.7
20
2.34
30
0
11
84.7
21
2.74
31
0
0
LINE
8
0
6
CONTINUOUS
10
84.7
20
2.74
30
0
11
85.32
21
2.85
31
0
0
LINE
8
0
6
CONTINUOUS
10
85.32
20
2.85
30
0
11
84.7
21
2.74
31
0
0
LINE
8
0
6
CONTINUOUS
10
84.7
20
2.74
30
0
11
84.7
21
2.34
31
0
0
LINE
8
0
6
CONTINUOUS
10
84.7
20
2.34
30
0
11
86.06
21
1.56
31
0
0
LINE
8
0
6
CONTINUOUS
10
86.06
20
1.56
30
0
11
87.74
21
1.56
31
0
0
LINE
8
0
6
CONTINUOUS
10
87.74
20
1.56
30
0
11
89.1
21
2.34
31
0
0
LINE
8
0
6
CONTINUOUS
10
89.1
20
2.34
30
0
11
89.1
21
2.74
31
0
0
LINE
8
0
6
CONTINUOUS
10
89.1
20
2.74
30
0
11
88.48
21
2.85
31
0
0
LINE
8
0
6
CONTINUOUS
10
88.15
20
3.46
30
0
11
88.15
21
3.24
31
0
0
LINE
8
0
6
CONTINUOUS
10
88.15
20
3.24
30
0
11
88.15
21
3.46
31
0
0
LINE
8
0
6
CONTINUOUS
10
90.95
20
4.16
30
0
11
88.85
21
4.16
31
0
0
LINE
8
0
6
CONTINUOUS
10
88.85
20
4.16
30
0
11
90.95
21
4.16
31
0
0
LINE
8
0
6
CONTINUOUS
10
91.15
20
4.67
30
0
11
91.15
21
4.36
31
0
0
LINE
8
0
6
CONTINUOUS
10
91.15
20
4.36
30
0
11
91.15
21
4.67
31
0
0
LINE
8
0
6
CONTINUOUS
10
89.53
20
5.89
30
0
11
90.9
21
5.1
31
0
0
LINE
8
0
6
CONTINUOUS
10
90.9
20
5.1
30
0
11
89.53
21
5.89
31
0
0
LINE
8
0
6
CONTINUOUS
10
86.58
20
2.36
30
0
11
87.22
21
2.36
31
0
0
LINE
8
0
6
CONTINUOUS
10
87.22
20
2.36
30
0
11
86.58
21
2.36
31
0
0
LINE
8
0
6
CONTINUOUS
10
86.27
20
3.84
30
0
11
86.38
21
2.54
31
0
0
LINE
8
0
6
CONTINUOUS
10
86.38
20
2.54
30
0
11
86.27
21
3.84
31
0
0
LINE
8
0
6
CONTINUOUS
10
87.33
20
4.06
30
0
11
86.47
21
4.06
31
0
0
LINE
8
0
6
CONTINUOUS
10
86.47
20
4.06
30
0
11
87.33
21
4.06
31
0
0
LINE
8
0
6
CONTINUOUS
10
87.42
20
2.54
30
0
11
87.53
21
3.84
31
0
0
LINE
8
0
6
CONTINUOUS
10
87.53
20
3.84
30
0
11
87.42
21
2.54
31
0
0
LINE
8
0
6
CONTINUOUS
10
83.1
20
7.09
30
0
11
83.52
21
7.09
31
0
0
LINE
8
0
6
CONTINUOUS
10
83.52
20
7.09
30
0
11
83.1
21
7.09
31
0
0
LINE
8
0
6
CONTINUOUS
10
89.6
20
5.03
30
0
11
89.57
21
4.86
31
0
0
LINE
8
0
6
CONTINUOUS
10
89.57
20
4.86
30
0
11
84.07
21
4.86
31
0
0
LINE
8
0
6
CONTINUOUS
10
84.07
20
4.86
30
0
11
89.57
21
4.86
31
0
0
LINE
8
0
6
CONTINUOUS
10
89.57
20
4.86
30
0
11
89.6
21
5.03
31
0
0
ENDSEC
0
EOF