0
SECTION
2
HEADER
0
ENDSEC
0
SECTION
2
TABLES
0
TABLE
2
LTYPE
70
2
0
LTYPE
2
CONTINUOUS
70
0
3
Solid line
72
65
73
0
40
0.0
0
ENDTAB
0
TABLE
2
LAYER
70
1
0
LAYER
2
0
70
0
62
7
6
CONTINUOUS
0
ENDTAB
0
ENDSEC
0
SECTION
2
ENTITIES
0
LINE
8
0
6
CONTINUOUS
10
40.0
20
-72.5
30
0
11
40.0
21
72.5
31
0
0
LINE
8
0
6
CONTINUOUS
10
32.5
20
-72.5
30
0
11
32.5
21
72.5
31
0
0
LINE
8
0
6
CONTINUOUS
10
50.0
20
-26.51
30
0
11
-87.23
21
-26.51
31
0
0
LINE
8
0
6
CONTINUOUS
10
-87.23
20
-35.0
30
0
11
50.0
21
-35.0
31
0
0
LINE
8
0
6
CONTINUOUS
10
50.0
20
35.0
30
0
11
-87.23
21
35.0
31
0
0
LINE
8
0
6
CONTINUOUS
10
50.0
20
-72.5
30
0
11
-87.23
21
-72.5
31
0
0
LINE
8
0
6
CONTINUOUS
10
50.0
20
72.5
30
0
11
-87.23
21
72.5
31
0
0
LINE
8
0
6
CONTINUOUS
10
50.0
20
-24.5
30
0
11
-87.23
21
-24.5
31
0
0
LINE
8
0
6
CONTINUOUS
10
30.0
20
-72.5
30
0
11
30.0
21
72.5
31
0
0
LINE
8
0
6
CONTINUOUS
10
50.0
20
-72.5
30
0
11
50.0
21
72.5
31
0
0
LINE
8
0
6
CONTINUOUS
10
10.0
20
-72.5
30
0
11
10.0
21
72.5
31
0
0
LINE
8
0
6
CONTINUOUS
10
50.0
20
-62.5
30
0
11
-87.23
21
-62.5
31
0
0
LINE
8
0
6
CONTINUOUS
10
50.0
20
62.5
30
0
11
-87.23
21
62.5
31
0
0
LINE
8
0
6
CONTINUOUS
10
0.0
20
-72.5
30
0
11
0.0
21
72.5
31
0
0
LINE
8
0
6
CONTINUOUS
10
-87.23
20
0.0
30
0
11
50.0
21
0.0
31
0
0
LINE
8
0
6
CONTINUOUS
10
0.0
20
70.5
30
0
11
0.0
21
62.5
31
0
0
LINE
8
0
6
CONTINUOUS
10
0.0
20
62.5
30
0
11
1.5
21
62.5
31
0
0
LINE
8
0
6
CONTINUOUS
10
1.5
20
62.5
30
0
11
1.5
21
71.0
31
0
0
LINE
8
0
6
CONTINUOUS
10
1.5
20
71.0
30
0
11
48.5
21
71.0
31
0
0
LINE
8
0
6
CONTINUOUS
10
48.5
20
71.0
30
0
11
48.5
21
-23.0
31
0
0
LINE
8
0
6
CONTINUOUS
10
48.5
20
-23.0
30
0
11
30.5
21
-23.0
31
0
0
ARC
8
0
6
CONTINUOUS
10
30.5
20
-25.0
30
0
40
2.0
50
90.0
51
180.0
0
LINE
8
0
6
CONTINUOUS
10
28.5
20
-25.0
30
0
11
28.5
21
-71.0
31
0
0
LINE
8
0
6
CONTINUOUS
10
28.5
20
-71.0
30
0
11
1.5
21
-71.0
31
0
0
LINE
8
0
6
CONTINUOUS
10
1.5
20
-71.0
30
0
11
1.5
21
-62.5
31
0
0
LINE
8
0
6
CONTINUOUS
10
1.5
20
-62.5
30
0
11
0.0
21
-62.5
31
0
0
LINE
8
0
6
CONTINUOUS
10
0.0
20
-62.5
30
0
11
0.0
21
-70.5
31
0
0
ARC
8
0
6
CONTINUOUS
10
2.0
20
-70.5
30
0
40
2.0
50
180.0
51
270.0
0
LINE
8
0
6
CONTINUOUS
10
2.0
20
-72.5
30
0
11
28.0
21
-72.5
31
0
0
ARC
8
0
6
CONTINUOUS
10
28.0
20
-70.5
30
0
40
2.0
50
270.0
51
0.0
0
LINE
8
0
6
CONTINUOUS
10
30.0
20
-70.5
30
0
11
30.0
21
-24.5
31
0
0
LINE
8
0
6
CONTINUOUS
10
30.0
20
-24.5
30
0
11
48.0
21
-24.5
31
0
0
ARC
8
0
6
CONTINUOUS
10
48.0
20
-22.5
30
0
40
2.0
50
270.0
51
0.0
0
LINE
8
0
6
CONTINUOUS
10
50.0
20
-22.5
30
0
11
50.0
21
70.5
31
0
0
ARC
8
0
6
CONTINUOUS
10
48.0
20
70.5
30
0
40
2.0
50
0.0
51
90.0
0
LINE
8
0
6
CONTINUOUS
10
48.0
20
72.5
30
0
11
2.0
21
72.5
31
0
0
ARC
8
0
6
CONTINUOUS
10
2.0
20
70.5
30
0
40
2.0
50
90.0
51
180.0
0
LINE
8
0
6
CONTINUOUS
10
48.5
20
35.0
30
0
11
48.5
21
52.5
31
0
0
LINE
8
0
6
CONTINUOUS
10
48.5
20
52.5
30
0
11
46.5
21
52.5
31
0
0
LINE
8
0
6
CONTINUOUS
10
46.5
20
52.5
30
0
11
46.5
21
35.0
31
0
0
LINE
8
0
6
CONTINUOUS
10
46.5
20
35.0
30
0
11
12.0
21
35.0
31
0
0
ARC
8
0
6
CONTINUOUS
10
12.0
20
33.0
30
0
40
2.0
50
90.0
51
180.0
0
LINE
8
0
6
CONTINUOUS
10
10.0
20
33.0
30
0
11
10.0
21
-33.0
31
0
0
ARC
8
0
6
CONTINUOUS
10
12.0
20
-33.0
30
0
40
2.0
50
180.0
51
270.0
0
LINE
8
0
6
CONTINUOUS
10
12.0
20
-35.0
30
0
11
26.5
21
-35.0
31
0
0
LINE
8
0
6
CONTINUOUS
10
26.5
20
-35.0
30
0
11
26.5
21
-53.48
31
0
0
LINE
8
0
6
CONTINUOUS
10
26.5
20
-53.48
30
0
11
28.5
21
-53.48
31
0
0
LINE
8
0
6
CONTINUOUS
10
28.5
20
-53.48
30
0
11
28.5
21
-35.0
31
0
0
ARC
8
0
6
CONTINUOUS
10
26.5
20
-35.0
30
0
40
2.0
50
0.0
51
90.0
0
LINE
8
0
6
CONTINUOUS
10
26.5
20
-33.0
30
0
11
12.03
21
-33.0
31
0
0
LINE
8
0
6
CONTINUOUS
10
12.03
20
-33.0
30
0
11
12.03
21
33.0
31
0
0
LINE
8
0
6
CONTINUOUS
10
12.03
20
33.0
30
0
11
46.5
21
33.0
31
0
0
ARC
8
0
6
CONTINUOUS
10
46.5
20
35.0
30
0
40
2.0
50
270.0
51
0.0
0
LINE
8
0
6
CONTINUOUS
10
37.15
20
-26.51
30
0
11
42.84
21
-26.51
31
0
0
LINE
8
0
6
CONTINUOUS
10
42.84
20
-26.51
30
0
11
44.0
21
-24.5
31
0
0
LINE
8
0
6
CONTINUOUS
10
44.0
20
-24.5
30
0
11
35.99
21
-24.5
31
0
0
LINE
8
0
6
CONTINUOUS
10
35.99
20
-24.5
30
0
11
37.15
21
-26.51
31
0
0
ENDSEC
0
EOF