0
SECTION
2
HEADER
0
ENDSEC
0
SECTION
2
TABLES
0
TABLE
2
LTYPE
70
2
0
LTYPE
2
CONTINUOUS
70
0
3
Solid line
72
65
73
0
40
0.0
0
ENDTAB
0
TABLE
2
LAYER
70
1
0
LAYER
2
0
70
0
62
7
6
CONTINUOUS
0
ENDTAB
0
ENDSEC
0
SECTION
2
ENTITIES
0
LINE
8
0
6
CONTINUOUS
10
60.76
20
-65.5
30
0
11
60.76
21
65.5
31
0
0
LINE
8
0
6
CONTINUOUS
10
65.0
20
-7.5
30
0
11
0.0
21
-7.5
31
0
0
LINE
8
0
6
CONTINUOUS
10
59.0
20
-65.5
30
0
11
59.0
21
65.5
31
0
0
LINE
8
0
6
CONTINUOUS
10
52.5
20
-65.5
30
0
11
52.5
21
65.5
31
0
0
LINE
8
0
6
CONTINUOUS
10
65.0
20
-21.5
30
0
11
0.0
21
-21.5
31
0
0
LINE
8
0
6
CONTINUOUS
10
0.0
20
-35.0
30
0
11
65.0
21
-35.0
31
0
0
LINE
8
0
6
CONTINUOUS
10
65.0
20
35.0
30
0
11
0.0
21
35.0
31
0
0
LINE
8
0
6
CONTINUOUS
10
65.0
20
-65.5
30
0
11
0.0
21
-65.5
31
0
0
LINE
8
0
6
CONTINUOUS
10
65.0
20
65.5
30
0
11
0.0
21
65.5
31
0
0
LINE
8
0
6
CONTINUOUS
10
65.0
20
-17.5
30
0
11
0.0
21
-17.5
31
0
0
LINE
8
0
6
CONTINUOUS
10
50.0
20
-65.5
30
0
11
50.0
21
65.5
31
0
0
LINE
8
0
6
CONTINUOUS
10
65.0
20
-65.5
30
0
11
65.0
21
65.5
31
0
0
LINE
8
0
6
CONTINUOUS
10
65.0
20
-62.5
30
0
11
0.0
21
-62.5
31
0
0
LINE
8
0
6
CONTINUOUS
10
65.0
20
62.5
30
0
11
0.0
21
62.5
31
0
0
LINE
8
0
6
CONTINUOUS
10
0.0
20
-65.5
30
0
11
0.0
21
65.5
31
0
0
LINE
8
0
6
CONTINUOUS
10
0.0
20
0.0
30
0
11
65.0
21
0.0
31
0
0
LINE
8
0
6
CONTINUOUS
10
61.0
20
63.5
30
0
11
61.0
21
55.05
31
0
0
LINE
8
0
6
CONTINUOUS
10
61.0
20
55.05
30
0
11
62.5
21
55.05
31
0
0
LINE
8
0
6
CONTINUOUS
10
62.5
20
55.05
30
0
11
62.5
21
64.0
31
0
0
LINE
8
0
6
CONTINUOUS
10
62.5
20
64.0
30
0
11
63.5
21
64.0
31
0
0
LINE
8
0
6
CONTINUOUS
10
63.5
20
64.0
30
0
11
63.5
21
-16.0
31
0
0
LINE
8
0
6
CONTINUOUS
10
63.5
20
-16.0
30
0
11
60.79
21
-16.0
31
0
0
LINE
8
0
6
CONTINUOUS
10
60.79
20
-16.0
30
0
11
61.72
21
-10.71
31
0
0
ARC
8
0
6
CONTINUOUS
10
57.771569986725694
20
-10.009999692661046
30
0
40
4.01
50
349.946732730111
51
90.02243232308523
0
LINE
8
0
6
CONTINUOUS
10
57.77
20
-6.0
30
0
11
52.5
21
-6.0
31
0
0
ARC
8
0
6
CONTINUOUS
10
52.5
20
-10.0
30
0
40
4.0
50
90.0
51
180.0
0
LINE
8
0
6
CONTINUOUS
10
48.5
20
-10.0
30
0
11
48.5
21
-64.0
31
0
0
LINE
8
0
6
CONTINUOUS
10
48.5
20
-64.0
30
0
11
47.5
21
-64.0
31
0
0
LINE
8
0
6
CONTINUOUS
10
47.5
20
-64.0
30
0
11
47.5
21
-55.5
31
0
0
LINE
8
0
6
CONTINUOUS
10
47.5
20
-55.5
30
0
11
46.0
21
-55.5
31
0
0
LINE
8
0
6
CONTINUOUS
10
46.0
20
-55.5
30
0
11
46.0
21
-63.5
31
0
0
ARC
8
0
6
CONTINUOUS
10
48.0
20
-63.5
30
0
40
2.0
50
180.0
51
270.0
0
ARC
8
0
6
CONTINUOUS
10
48.0
20
-63.5
30
0
40
2.0
50
270.0
51
0.0
0
LINE
8
0
6
CONTINUOUS
10
50.0
20
-63.5
30
0
11
50.0
21
-10.03
31
0
0
ARC
8
0
6
CONTINUOUS
10
52.53
20
-10.030000000000001
30
0
40
2.53
50
90.0
51
179.99999999999997
0
LINE
8
0
6
CONTINUOUS
10
52.53
20
-7.5
30
0
11
57.79
21
-7.5
31
0
0
ARC
8
0
6
CONTINUOUS
10
57.787257888714414
20
-9.999998496164688
30
0
40
2.5
50
350.09584132850233
51
89.93715542595127
0
LINE
8
0
6
CONTINUOUS
10
60.25
20
-10.43
30
0
11
59.41
21
-15.15
31
0
0
ARC
8
0
6
CONTINUOUS
10
61.3791368336444
20
-15.500000186264048
30
0
40
2.0
50
169.92133647250583
51
270.02472789536444
0
LINE
8
0
6
CONTINUOUS
10
61.38
20
-17.5
30
0
11
63.0
21
-17.5
31
0
0
ARC
8
0
6
CONTINUOUS
10
63.0
20
-15.5
30
0
40
2.0
50
270.0
51
0.0
0
LINE
8
0
6
CONTINUOUS
10
65.0
20
-15.5
30
0
11
65.0
21
63.5
31
0
0
ARC
8
0
6
CONTINUOUS
10
63.0
20
63.5
30
0
40
2.0
50
0.0
51
90.0
0
ARC
8
0
6
CONTINUOUS
10
63.0
20
63.5
30
0
40
2.0
50
90.0
51
180.0
0
ARC
8
0
6
CONTINUOUS
10
61.5
20
35.0
30
0
40
2.0
50
270.0
51
0.0
0
LINE
8
0
6
CONTINUOUS
10
63.5
20
35.0
30
0
11
63.5
21
48.0
31
0
0
LINE
8
0
6
CONTINUOUS
10
63.5
20
48.0
30
0
11
61.5
21
48.0
31
0
0
LINE
8
0
6
CONTINUOUS
10
61.5
20
48.0
30
0
11
61.5
21
35.0
31
0
0
LINE
8
0
6
CONTINUOUS
10
61.5
20
35.0
30
0
11
2.0
21
35.0
31
0
0
ARC
8
0
6
CONTINUOUS
10
2.0
20
33.0
30
0
40
2.0
50
90.0
51
180.0
0
LINE
8
0
6
CONTINUOUS
10
0.0
20
33.0
30
0
11
0.0
21
-33.0
31
0
0
ARC
8
0
6
CONTINUOUS
10
2.0
20
-33.0
30
0
40
2.0
50
180.0
51
270.0
0
LINE
8
0
6
CONTINUOUS
10
2.0
20
-35.0
30
0
11
46.5
21
-35.0
31
0
0
LINE
8
0
6
CONTINUOUS
10
46.5
20
-35.0
30
0
11
46.5
21
-48.0
31
0
0
LINE
8
0
6
CONTINUOUS
10
46.5
20
-48.0
30
0
11
48.5
21
-48.0
31
0
0
LINE
8
0
6
CONTINUOUS
10
48.5
20
-48.0
30
0
11
48.5
21
-35.0
31
0
0
ARC
8
0
6
CONTINUOUS
10
46.5
20
-35.0
30
0
40
2.0
50
0.0
51
90.0
0
LINE
8
0
6
CONTINUOUS
10
46.5
20
-33.0
30
0
11
2.03
21
-33.0
31
0
0
LINE
8
0
6
CONTINUOUS
10
2.03
20
-33.0
30
0
11
2.03
21
33.0
31
0
0
LINE
8
0
6
CONTINUOUS
10
2.03
20
33.0
30
0
11
61.5
21
33.0
31
0
0
LINE
8
0
6
CONTINUOUS
10
50.0
20
-21.5
30
0
11
50.0
21
-7.57
31
0
0
LINE
8
0
6
CONTINUOUS
10
50.0
20
-21.5
30
0
11
63.96
21
-21.5
31
0
0
ARC
8
0
6
CONTINUOUS
10
52.68930036408208
20
-22.83882658792608
30
0
40
15.27
50
61.181496513987064
51
90.71030712189047
0
ARC
8
0
6
CONTINUOUS
10
52.53209861228827
20
-10.11979637107202
30
0
40
2.53
50
90.72694243271897
51
175.47058463805212
0
LINE
8
0
6
CONTINUOUS
10
50.01
20
-9.92
30
0
11
51.07
21
-9.57
31
0
0
LINE
8
0
6
CONTINUOUS
10
51.07
20
-9.57
30
0
11
51.07
21
-13.44
31
0
0
LINE
8
0
6
CONTINUOUS
10
51.07
20
-13.44
30
0
11
50.04
21
-14.23
31
0
0
LINE
8
0
6
CONTINUOUS
10
50.04
20
-14.23
30
0
11
50.04
21
-15.03
31
0
0
LINE
8
0
6
CONTINUOUS
10
50.04
20
-15.03
30
0
11
51.07
21
-15.05
31
0
0
LINE
8
0
6
CONTINUOUS
10
51.07
20
-15.05
30
0
11
51.07
21
-18.42
31
0
0
LINE
8
0
6
CONTINUOUS
10
51.07
20
-18.42
30
0
11
50.0
21
-19.23
31
0
0
LINE
8
0
6
CONTINUOUS
10
50.0
20
-19.23
30
0
11
50.0
21
-20.23
31
0
0
ARC
8
0
6
CONTINUOUS
10
51.359044926165005
20
-22.481643153047383
30
0
40
2.63
50
77.90761416557392
51
121.11430659300733
0
LINE
8
0
6
CONTINUOUS
10
51.91
20
-19.91
30
0
11
59.03
21
-21.5
31
0
0
LINE
8
0
6
CONTINUOUS
10
59.03
20
-21.5
30
0
11
60.48
21
-21.5
31
0
0
ARC
8
0
6
CONTINUOUS
10
59.56304192316646
20
-17.022937583042903
30
0
40
4.57
50
281.5748128415131
51
342.8567325872837
0
ARC
8
0
6
CONTINUOUS
10
62.278788711731586
20
-18.009998220150273
30
0
40
1.69
50
347.70067916757245
51
17.56419057040053
0
LINE
8
0
6
CONTINUOUS
10
63.89
20
-17.5
30
0
11
62.83
21
-17.5
31
0
0
ARC
8
0
6
CONTINUOUS
10
61.78062557292057
20
-15.197889378897765
30
0
40
2.53
50
196.11189307765483
51
294.50499059538896
0
LINE
8
0
6
CONTINUOUS
10
59.35
20
-15.9
30
0
11
59.07
21
-9.81
31
0
0
LINE
8
0
6
CONTINUOUS
10
59.07
20
-9.81
30
0
11
59.85
21
-10.07
31
0
0
ARC
8
0
6
CONTINUOUS
10
59.87716628486295
20
-9.741120093397688
30
0
40
0.33
50
265.2779487481569
51
58.416639478541335
0
ARC
8
0
6
CONTINUOUS
10
53.25723301429571
20
-24.05668928277518
30
0
40
15.26
50
73.7008097268079
51
92.39327533684427
0
ARC
8
0
6
CONTINUOUS
10
57.33061577677449
20
-10.140587603962901
30
0
40
0.76
50
2.3065974839342376
51
74.00785569080426
0
LINE
8
0
6
CONTINUOUS
10
58.09
20
-10.11
30
0
11
58.25
21
-14.26
31
0
0
ARC
8
0
6
CONTINUOUS
10
57.76023146352984
20
-14.275059239153423
30
0
40
0.49
50
261.7594428126467
51
1.7611565951488828
0
LINE
8
0
6
CONTINUOUS
10
57.69
20
-14.77
30
0
11
52.6
21
-14.07
31
0
0
ARC
8
0
6
CONTINUOUS
10
52.67998380723479
20
-13.515741404595087
30
0
40
0.56
50
180.4357176699723
51
261.7884632083622
0
LINE
8
0
6
CONTINUOUS
10
52.12
20
-13.52
30
0
11
52.12
21
-9.31
31
0
0
ARC
8
0
6
CONTINUOUS
10
52.62
20
-9.31
30
0
40
0.5
50
90.0
51
180.0
0
LINE
8
0
6
CONTINUOUS
10
52.12
20
-18.48
30
0
11
52.12
21
-15.66
31
0
0
ARC
8
0
6
CONTINUOUS
10
52.68998335767413
20
-15.664355683014614
30
0
40
0.57
50
81.93015990406116
51
179.5621672237003
0
LINE
8
0
6
CONTINUOUS
10
52.77
20
-15.1
30
0
11
58.24
21
-15.85
31
0
0
ARC
8
0
6
CONTINUOUS
10
61.43069025260202
20
-15.498438181893281
30
0
40
3.21
50
186.28769343501
51
281.8524733456801
0
ARC
8
0
6
CONTINUOUS
10
62.151328907622485
20
-18.994737600332744
30
0
40
0.36
50
329.02808991818057
51
99.80863903993169
0
ARC
8
0
6
CONTINUOUS
10
59.69674345165886
20
-17.412851662126293
30
0
40
3.28
50
267.61064207268055
51
327.4004113176008
0
LINE
8
0
6
CONTINUOUS
10
59.56
20
-20.69
30
0
11
52.58
21
-19.17
31
0
0
ARC
8
0
6
CONTINUOUS
10
52.86999815088428
20
-18.478334566077145
30
0
40
0.75
50
180.12722988434464
51
247.2529051676152
0
ENDSEC
0
EOF