0
SECTION
2
HEADER
0
ENDSEC
0
SECTION
2
TABLES
0
TABLE
2
LTYPE
70
2
0
LTYPE
2
CONTINUOUS
70
0
3
Solid line
72
65
73
0
40
0.0
0
ENDTAB
0
TABLE
2
LAYER
70
1
0
LAYER
2
0
70
0
62
7
6
CONTINUOUS
0
ENDTAB
0
ENDSEC
0
SECTION
2
ENTITIES
0
LINE
8
0
6
CONTINUOUS
10
34.0
20
0.0
30
0
11
34.0
21
-114.0
31
0
0
LINE
8
0
6
CONTINUOUS
10
67.0
20
-51.0
30
0
11
0.0
21
-51.0
31
0
0
LINE
8
0
6
CONTINUOUS
10
42.0
20
0.0
30
0
11
42.0
21
-114.0
31
0
0
LINE
8
0
6
CONTINUOUS
10
67.0
20
-97.0
30
0
11
-0.0
21
-97.0
31
0
0
LINE
8
0
6
CONTINUOUS
10
67.0
20
-15.0
30
0
11
0.0
21
-15.0
31
0
0
LINE
8
0
6
CONTINUOUS
10
14.0
20
0.0
30
0
11
14.0
21
-114.0
31
0
0
LINE
8
0
6
CONTINUOUS
10
67.0
20
-57.0
30
0
11
0.0
21
-57.0
31
0
0
LINE
8
0
6
CONTINUOUS
10
67.0
20
0.0
30
0
11
67.0
21
-114.0
31
0
0
LINE
8
0
6
CONTINUOUS
10
0.0
20
0.0
30
0
11
0.0
21
-114.0
31
0
0
LINE
8
0
6
CONTINUOUS
10
-0.0
20
0.0
30
0
11
67.0
21
0.0
31
0
0
ARC
8
0
6
CONTINUOUS
10
64.0
20
-111.0
30
0
40
3.0
50
270.0
51
0.0
0
LINE
8
0
6
CONTINUOUS
10
67.0
20
-111.0
30
0
11
67.0
21
-51.0
31
0
0
LINE
8
0
6
CONTINUOUS
10
67.0
20
-51.0
30
0
11
42.0
21
-51.0
31
0
0
LINE
8
0
6
CONTINUOUS
10
42.0
20
-51.0
30
0
11
42.0
21
-3.0
31
0
0
ARC
8
0
6
CONTINUOUS
10
39.0
20
-3.0
30
0
40
3.0
50
0.0
51
90.0
0
LINE
8
0
6
CONTINUOUS
10
39.0
20
0.0
30
0
11
3.0
21
0.0
31
0
0
ARC
8
0
6
CONTINUOUS
10
3.0
20
-3.0
30
0
40
3.0
50
90.0
51
180.0
0
LINE
8
0
6
CONTINUOUS
10
0.0
20
-3.0
30
0
11
0.0
21
-15.0
31
0
0
LINE
8
0
6
CONTINUOUS
10
0.0
20
-15.0
30
0
11
14.0
21
-15.0
31
0
0
LINE
8
0
6
CONTINUOUS
10
14.0
20
-15.0
30
0
11
14.0
21
-97.0
31
0
0
LINE
8
0
6
CONTINUOUS
10
14.0
20
-97.0
30
0
11
34.0
21
-97.0
31
0
0
LINE
8
0
6
CONTINUOUS
10
34.0
20
-97.0
30
0
11
34.0
21
-111.0
31
0
0
ARC
8
0
6
CONTINUOUS
10
37.0
20
-111.0
30
0
40
3.0
50
180.0
51
270.0
0
LINE
8
0
6
CONTINUOUS
10
37.0
20
-114.0
30
0
11
64.0
21
-114.0
31
0
0
ARC
8
0
6
CONTINUOUS
10
31.0
20
-111.0
30
0
40
3.0
50
270.0
51
0.0
0
LINE
8
0
6
CONTINUOUS
10
34.0
20
-111.0
30
0
11
34.0
21
-97.0
31
0
0
LINE
8
0
6
CONTINUOUS
10
34.0
20
-97.0
30
0
11
0.0
21
-97.0
31
0
0
LINE
8
0
6
CONTINUOUS
10
0.0
20
-97.0
30
0
11
0.0
21
-111.0
31
0
0
ARC
8
0
6
CONTINUOUS
10
3.0
20
-111.0
30
0
40
3.0
50
180.0
51
270.0
0
LINE
8
0
6
CONTINUOUS
10
3.0
20
-114.0
30
0
11
31.0
21
-114.0
31
0
0
ENDSEC
0
EOF