0
SECTION
2
HEADER
0
ENDSEC
0
SECTION
2
TABLES
0
TABLE
2
LTYPE
70
2
0
LTYPE
2
CONTINUOUS
70
0
3
Solid line
72
65
73
0
40
0.0
0
ENDTAB
0
TABLE
2
LAYER
70
1
0
LAYER
2
0
70
0
62
7
6
CONTINUOUS
0
ENDTAB
0
ENDSEC
0
SECTION
2
ENTITIES
0
LINE
8
0
6
CONTINUOUS
10
29.77
20
84.0
30
0
11
-29.77
21
84.0
31
0
0
LINE
8
0
6
CONTINUOUS
10
29.77
20
113.0
30
0
11
-29.77
21
113.0
31
0
0
LINE
8
0
6
CONTINUOUS
10
29.77
20
80.0
30
0
11
-29.77
21
80.0
31
0
0
LINE
8
0
6
CONTINUOUS
10
25.0
20
0.0
30
0
11
25.0
21
131.0
31
0
0
LINE
8
0
6
CONTINUOUS
10
-25.0
20
131.0
30
0
11
-25.0
21
0.0
31
0
0
LINE
8
0
6
CONTINUOUS
10
0.0
20
0.0
30
0
11
0.0
21
131.0
31
0
0
LINE
8
0
6
CONTINUOUS
10
-29.77
20
0.0
30
0
11
29.77
21
0.0
31
0
0
LINE
8
0
6
CONTINUOUS
10
-4.5
20
92.35
30
0
11
-2.71
21
93.07
31
0
0
ARC
8
0
6
CONTINUOUS
10
-2.899257569158878
20
93.53279755024855
30
0
40
0.5
50
292.241737196013
51
72.63155929760816
0
LINE
8
0
6
CONTINUOUS
10
-2.75
20
94.01
30
0
11
-5.5
21
94.85
31
0
0
ARC
8
0
6
CONTINUOUS
10
-5.5
20
94.35
30
0
40
0.5
50
90.0
51
180.0
0
LINE
8
0
6
CONTINUOUS
10
-6.0
20
94.35
30
0
11
-6.0
21
80.0
31
0
0
LINE
8
0
6
CONTINUOUS
10
-6.0
20
80.0
30
0
11
-3.1
21
80.0
31
0
0
LINE
8
0
6
CONTINUOUS
10
-3.1
20
80.0
30
0
11
-3.1
21
58.39
31
0
0
LINE
8
0
6
CONTINUOUS
10
-3.1
20
58.39
30
0
11
-4.75
21
58.39
31
0
0
LINE
8
0
6
CONTINUOUS
10
-4.75
20
58.39
30
0
11
-4.75
21
56.89
31
0
0
LINE
8
0
6
CONTINUOUS
10
-4.75
20
56.89
30
0
11
-1.55
21
55.39
31
0
0
LINE
8
0
6
CONTINUOUS
10
-1.55
20
55.39
30
0
11
1.55
21
55.39
31
0
0
LINE
8
0
6
CONTINUOUS
10
1.55
20
55.39
30
0
11
4.75
21
56.89
31
0
0
LINE
8
0
6
CONTINUOUS
10
4.75
20
56.89
30
0
11
4.75
21
58.39
31
0
0
LINE
8
0
6
CONTINUOUS
10
4.75
20
58.39
30
0
11
3.1
21
58.39
31
0
0
LINE
8
0
6
CONTINUOUS
10
3.1
20
58.39
30
0
11
3.1
21
80.0
31
0
0
LINE
8
0
6
CONTINUOUS
10
3.1
20
80.0
30
0
11
6.0
21
80.0
31
0
0
LINE
8
0
6
CONTINUOUS
10
6.0
20
80.0
30
0
11
6.0
21
94.35
31
0
0
ARC
8
0
6
CONTINUOUS
10
5.5
20
94.35
30
0
40
0.5
50
0.0
51
90.0
0
LINE
8
0
6
CONTINUOUS
10
5.5
20
94.85
30
0
11
2.76
21
94.01
31
0
0
ARC
8
0
6
CONTINUOUS
10
2.9035071571240394
20
93.53103685334446
30
0
40
0.5
50
106.6792915232684
51
247.23115158834332
0
LINE
8
0
6
CONTINUOUS
10
2.71
20
93.07
30
0
11
4.5
21
92.35
31
0
0
LINE
8
0
6
CONTINUOUS
10
4.5
20
92.35
30
0
11
4.5
21
81.39
31
0
0
LINE
8
0
6
CONTINUOUS
10
4.5
20
81.39
30
0
11
0.0
21
80.94
31
0
0
LINE
8
0
6
CONTINUOUS
10
0.0
20
80.94
30
0
11
-4.5
21
81.39
31
0
0
LINE
8
0
6
CONTINUOUS
10
-4.5
20
81.39
30
0
11
-4.5
21
92.35
31
0
0
LINE
8
0
6
CONTINUOUS
10
-1.6
20
80.0
30
0
11
1.6
21
80.0
31
0
0
LINE
8
0
6
CONTINUOUS
10
1.6
20
80.0
30
0
11
1.6
21
56.89
31
0
0
LINE
8
0
6
CONTINUOUS
10
1.6
20
56.89
30
0
11
-1.6
21
56.89
31
0
0
LINE
8
0
6
CONTINUOUS
10
-1.6
20
56.89
30
0
11
-1.6
21
80.0
31
0
0
LINE
8
0
6
CONTINUOUS
10
15.0
20
81.64
30
0
11
15.0
21
80.0
31
0
0
LINE
8
0
6
CONTINUOUS
10
15.0
20
80.0
30
0
11
18.01
21
80.0
31
0
0
LINE
8
0
6
CONTINUOUS
10
18.01
20
80.0
30
0
11
18.01
21
79.03
31
0
0
LINE
8
0
6
CONTINUOUS
10
18.01
20
79.03
30
0
11
17.08
21
79.03
31
0
0
LINE
8
0
6
CONTINUOUS
10
17.08
20
79.03
30
0
11
17.8
21
77.45
31
0
0
LINE
8
0
6
CONTINUOUS
10
17.8
20
77.45
30
0
11
18.95
21
76.9
31
0
0
LINE
8
0
6
CONTINUOUS
10
18.95
20
76.9
30
0
11
20.0
21
76.9
31
0
0
LINE
8
0
6
CONTINUOUS
10
20.0
20
76.9
30
0
11
21.05
21
76.9
31
0
0
LINE
8
0
6
CONTINUOUS
10
21.05
20
76.9
30
0
11
22.2
21
77.45
31
0
0
LINE
8
0
6
CONTINUOUS
10
22.2
20
77.45
30
0
11
22.92
21
79.03
31
0
0
LINE
8
0
6
CONTINUOUS
10
22.92
20
79.03
30
0
11
22.0
21
79.03
31
0
0
LINE
8
0
6
CONTINUOUS
10
22.0
20
79.03
30
0
11
22.0
21
80.0
31
0
0
LINE
8
0
6
CONTINUOUS
10
22.0
20
80.0
30
0
11
25.0
21
80.0
31
0
0
LINE
8
0
6
CONTINUOUS
10
25.0
20
80.0
30
0
11
25.0
21
84.0
31
0
0
LINE
8
0
6
CONTINUOUS
10
25.0
20
84.0
30
0
11
24.22
21
84.0
31
0
0
LINE
8
0
6
CONTINUOUS
10
24.22
20
84.0
30
0
11
23.62
21
83.15
31
0
0
LINE
8
0
6
CONTINUOUS
10
23.62
20
83.15
30
0
11
22.4
21
84.0
31
0
0
LINE
8
0
6
CONTINUOUS
10
22.4
20
84.0
30
0
11
21.3
21
83.17
31
0
0
LINE
8
0
6
CONTINUOUS
10
21.3
20
83.17
30
0
11
20.12
21
84.0
31
0
0
LINE
8
0
6
CONTINUOUS
10
20.12
20
84.0
30
0
11
18.99
21
83.15
31
0
0
LINE
8
0
6
CONTINUOUS
10
18.99
20
83.15
30
0
11
18.07
21
84.0
31
0
0
LINE
8
0
6
CONTINUOUS
10
18.07
20
84.0
30
0
11
14.05
21
84.0
31
0
0
LINE
8
0
6
CONTINUOUS
10
14.05
20
84.0
30
0
11
14.82
21
83.52
31
0
0
LINE
8
0
6
CONTINUOUS
10
14.82
20
83.52
30
0
11
16.98
21
83.22
31
0
0
LINE
8
0
6
CONTINUOUS
10
16.98
20
83.22
30
0
11
16.32
21
82.65
31
0
0
LINE
8
0
6
CONTINUOUS
10
16.32
20
82.65
30
0
11
12.03
21
84.0
31
0
0
LINE
8
0
6
CONTINUOUS
10
12.03
20
84.0
30
0
11
15.0
21
81.64
31
0
0
ARC
8
0
6
CONTINUOUS
10
20.0
20
79.4
30
0
40
0.6
50
90.0
51
180.0
0
ARC
8
0
6
CONTINUOUS
10
20.0
20
79.4
30
0
40
0.6
50
0.0
51
90.0
0
LINE
8
0
6
CONTINUOUS
10
20.6
20
79.4
30
0
11
20.6
21
78.15
31
0
0
ARC
8
0
6
CONTINUOUS
10
20.0
20
78.14999999999999
30
0
40
0.6
50
270.0
51
1.3570366640910974e-12
0
ARC
8
0
6
CONTINUOUS
10
20.0
20
78.14999999999999
30
0
40
0.6
50
179.99999999999866
51
270.0
0
LINE
8
0
6
CONTINUOUS
10
19.4
20
78.15
30
0
11
19.4
21
79.4
31
0
0
LINE
8
0
6
CONTINUOUS
10
-25.0
20
0.0
30
0
11
25.0
21
0.0
31
0
0
LINE
8
0
6
CONTINUOUS
10
25.0
20
0.0
30
0
11
25.0
21
80.0
31
0
0
LINE
8
0
6
CONTINUOUS
10
25.0
20
80.0
30
0
11
22.0
21
80.0
31
0
0
LINE
8
0
6
CONTINUOUS
10
22.0
20
80.0
30
0
11
22.0
21
79.21
31
0
0
LINE
8
0
6
CONTINUOUS
10
22.0
20
79.21
30
0
11
22.92
21
79.03
31
0
0
LINE
8
0
6
CONTINUOUS
10
22.92
20
79.03
30
0
11
22.44
21
77.98
31
0
0
LINE
8
0
6
CONTINUOUS
10
22.44
20
77.98
30
0
11
23.27
21
77.03
31
0
0
LINE
8
0
6
CONTINUOUS
10
23.27
20
77.03
30
0
11
22.42
21
76.85
31
0
0
LINE
8
0
6
CONTINUOUS
10
22.42
20
76.85
30
0
11
22.73
21
75.92
31
0
0
LINE
8
0
6
CONTINUOUS
10
22.73
20
75.92
30
0
11
21.77
21
75.73
31
0
0
LINE
8
0
6
CONTINUOUS
10
21.77
20
75.73
30
0
11
21.58
21
74.77
31
0
0
LINE
8
0
6
CONTINUOUS
10
21.58
20
74.77
30
0
11
20.65
21
75.08
31
0
0
LINE
8
0
6
CONTINUOUS
10
20.65
20
75.08
30
0
11
20.0
21
74.35
31
0
0
LINE
8
0
6
CONTINUOUS
10
20.0
20
74.35
30
0
11
19.35
21
75.08
31
0
0
LINE
8
0
6
CONTINUOUS
10
19.35
20
75.08
30
0
11
18.43
21
74.77
31
0
0
LINE
8
0
6
CONTINUOUS
10
18.43
20
74.77
30
0
11
18.23
21
75.73
31
0
0
LINE
8
0
6
CONTINUOUS
10
18.23
20
75.73
30
0
11
17.27
21
75.92
31
0
0
LINE
8
0
6
CONTINUOUS
10
17.27
20
75.92
30
0
11
17.59
21
76.85
31
0
0
LINE
8
0
6
CONTINUOUS
10
17.59
20
76.85
30
0
11
16.74
21
77.03
31
0
0
LINE
8
0
6
CONTINUOUS
10
16.74
20
77.03
30
0
11
17.56
21
77.98
31
0
0
LINE
8
0
6
CONTINUOUS
10
17.56
20
77.98
30
0
11
17.08
21
79.03
31
0
0
LINE
8
0
6
CONTINUOUS
10
17.08
20
79.03
30
0
11
18.01
21
79.21
31
0
0
LINE
8
0
6
CONTINUOUS
10
18.01
20
79.21
30
0
11
18.01
21
80.0
31
0
0
LINE
8
0
6
CONTINUOUS
10
18.01
20
80.0
30
0
11
15.0
21
80.0
31
0
0
LINE
8
0
6
CONTINUOUS
10
15.0
20
80.0
30
0
11
15.0
21
77.5
31
0
0
ARC
8
0
6
CONTINUOUS
10
19.5
20
77.5
30
0
40
4.5
50
180.0
51
270.0
0
LINE
8
0
6
CONTINUOUS
10
19.5
20
73.0
30
0
11
22.7
21
73.0
31
0
0
LINE
8
0
6
CONTINUOUS
10
22.7
20
73.0
30
0
11
22.7
21
55.0
31
0
0
LINE
8
0
6
CONTINUOUS
10
22.7
20
55.0
30
0
11
7.25
21
55.0
31
0
0
LINE
8
0
6
CONTINUOUS
10
7.25
20
55.0
30
0
11
7.25
21
61.5
31
0
0
LINE
8
0
6
CONTINUOUS
10
7.25
20
61.5
30
0
11
6.0
21
61.5
31
0
0
LINE
8
0
6
CONTINUOUS
10
6.0
20
61.5
30
0
11
6.0
21
80.0
31
0
0
LINE
8
0
6
CONTINUOUS
10
6.0
20
80.0
30
0
11
4.7
21
80.0
31
0
0
LINE
8
0
6
CONTINUOUS
10
4.7
20
80.0
30
0
11
3.9
21
78.61
31
0
0
LINE
8
0
6
CONTINUOUS
10
3.9
20
78.61
30
0
11
3.9
21
59.5
31
0
0
LINE
8
0
6
CONTINUOUS
10
3.9
20
59.5
30
0
11
5.25
21
59.5
31
0
0
LINE
8
0
6
CONTINUOUS
10
5.25
20
59.5
30
0
11
5.25
21
55.0
31
0
0
LINE
8
0
6
CONTINUOUS
10
5.25
20
55.0
30
0
11
-5.25
21
55.0
31
0
0
LINE
8
0
6
CONTINUOUS
10
-5.25
20
55.0
30
0
11
-5.25
21
59.5
31
0
0
LINE
8
0
6
CONTINUOUS
10
-5.25
20
59.5
30
0
11
-3.9
21
59.5
31
0
0
LINE
8
0
6
CONTINUOUS
10
-3.9
20
59.5
30
0
11
-3.9
21
78.61
31
0
0
LINE
8
0
6
CONTINUOUS
10
-3.9
20
78.61
30
0
11
-4.7
21
80.0
31
0
0
LINE
8
0
6
CONTINUOUS
10
-4.7
20
80.0
30
0
11
-6.0
21
80.0
31
0
0
LINE
8
0
6
CONTINUOUS
10
-6.0
20
80.0
30
0
11
-6.0
21
61.5
31
0
0
LINE
8
0
6
CONTINUOUS
10
-6.0
20
61.5
30
0
11
-7.25
21
61.5
31
0
0
LINE
8
0
6
CONTINUOUS
10
-7.25
20
61.5
30
0
11
-7.25
21
55.0
31
0
0
LINE
8
0
6
CONTINUOUS
10
-7.25
20
55.0
30
0
11
-22.7
21
55.0
31
0
0
LINE
8
0
6
CONTINUOUS
10
-22.7
20
55.0
30
0
11
-22.7
21
73.0
31
0
0
LINE
8
0
6
CONTINUOUS
10
-22.7
20
73.0
30
0
11
-19.5
21
73.0
31
0
0
ARC
8
0
6
CONTINUOUS
10
-19.5
20
77.5
30
0
40
4.5
50
270.0
51
0.0
0
LINE
8
0
6
CONTINUOUS
10
-15.0
20
77.5
30
0
11
-15.0
21
80.0
31
0
0
LINE
8
0
6
CONTINUOUS
10
-15.0
20
80.0
30
0
11
-18.01
21
80.0
31
0
0
LINE
8
0
6
CONTINUOUS
10
-18.01
20
80.0
30
0
11
-18.01
21
79.21
31
0
0
LINE
8
0
6
CONTINUOUS
10
-18.01
20
79.21
30
0
11
-17.08
21
79.03
31
0
0
LINE
8
0
6
CONTINUOUS
10
-17.08
20
79.03
30
0
11
-17.56
21
77.98
31
0
0
LINE
8
0
6
CONTINUOUS
10
-17.56
20
77.98
30
0
11
-16.74
21
77.03
31
0
0
LINE
8
0
6
CONTINUOUS
10
-16.74
20
77.03
30
0
11
-17.59
21
76.85
31
0
0
LINE
8
0
6
CONTINUOUS
10
-17.59
20
76.85
30
0
11
-17.27
21
75.92
31
0
0
LINE
8
0
6
CONTINUOUS
10
-17.27
20
75.92
30
0
11
-18.23
21
75.73
31
0
0
LINE
8
0
6
CONTINUOUS
10
-18.23
20
75.73
30
0
11
-18.43
21
74.77
31
0
0
LINE
8
0
6
CONTINUOUS
10
-18.43
20
74.77
30
0
11
-19.35
21
75.08
31
0
0
LINE
8
0
6
CONTINUOUS
10
-19.35
20
75.08
30
0
11
-20.0
21
74.35
31
0
0
LINE
8
0
6
CONTINUOUS
10
-20.0
20
74.35
30
0
11
-20.65
21
75.08
31
0
0
LINE
8
0
6
CONTINUOUS
10
-20.65
20
75.08
30
0
11
-21.58
21
74.77
31
0
0
LINE
8
0
6
CONTINUOUS
10
-21.58
20
74.77
30
0
11
-21.77
21
75.73
31
0
0
LINE
8
0
6
CONTINUOUS
10
-21.77
20
75.73
30
0
11
-22.73
21
75.92
31
0
0
LINE
8
0
6
CONTINUOUS
10
-22.73
20
75.92
30
0
11
-22.42
21
76.85
31
0
0
LINE
8
0
6
CONTINUOUS
10
-22.42
20
76.85
30
0
11
-23.27
21
77.03
31
0
0
LINE
8
0
6
CONTINUOUS
10
-23.27
20
77.03
30
0
11
-22.44
21
77.98
31
0
0
LINE
8
0
6
CONTINUOUS
10
-22.44
20
77.98
30
0
11
-22.92
21
79.03
31
0
0
LINE
8
0
6
CONTINUOUS
10
-22.92
20
79.03
30
0
11
-22.0
21
79.21
31
0
0
LINE
8
0
6
CONTINUOUS
10
-22.0
20
79.21
30
0
11
-22.0
21
80.0
31
0
0
LINE
8
0
6
CONTINUOUS
10
-22.0
20
80.0
30
0
11
-25.0
21
80.0
31
0
0
LINE
8
0
6
CONTINUOUS
10
-25.0
20
80.0
30
0
11
-25.0
21
0.0
31
0
0
LINE
8
0
6
CONTINUOUS
10
23.0
20
53.0
30
0
11
23.0
21
2.5
31
0
0
LINE
8
0
6
CONTINUOUS
10
23.0
20
2.5
30
0
11
11.0
21
2.5
31
0
0
LINE
8
0
6
CONTINUOUS
10
11.0
20
2.5
30
0
11
11.0
21
8.0
31
0
0
LINE
8
0
6
CONTINUOUS
10
11.0
20
8.0
30
0
11
8.5
21
8.0
31
0
0
LINE
8
0
6
CONTINUOUS
10
8.5
20
8.0
30
0
11
8.5
21
2.5
31
0
0
LINE
8
0
6
CONTINUOUS
10
8.5
20
2.5
30
0
11
-8.5
21
2.5
31
0
0
LINE
8
0
6
CONTINUOUS
10
-8.5
20
2.5
30
0
11
-8.5
21
8.0
31
0
0
LINE
8
0
6
CONTINUOUS
10
-8.5
20
8.0
30
0
11
-11.0
21
8.0
31
0
0
LINE
8
0
6
CONTINUOUS
10
-11.0
20
8.0
30
0
11
-11.0
21
2.5
31
0
0
LINE
8
0
6
CONTINUOUS
10
-11.0
20
2.5
30
0
11
-23.0
21
2.5
31
0
0
LINE
8
0
6
CONTINUOUS
10
-23.0
20
2.5
30
0
11
-23.0
21
53.0
31
0
0
LINE
8
0
6
CONTINUOUS
10
-23.0
20
53.0
30
0
11
-11.0
21
53.0
31
0
0
LINE
8
0
6
CONTINUOUS
10
-11.0
20
53.0
30
0
11
-11.0
21
50.0
31
0
0
LINE
8
0
6
CONTINUOUS
10
-11.0
20
50.0
30
0
11
-8.5
21
50.0
31
0
0
LINE
8
0
6
CONTINUOUS
10
-8.5
20
50.0
30
0
11
-8.5
21
53.0
31
0
0
LINE
8
0
6
CONTINUOUS
10
-8.5
20
53.0
30
0
11
8.5
21
53.0
31
0
0
LINE
8
0
6
CONTINUOUS
10
8.5
20
53.0
30
0
11
8.5
21
50.0
31
0
0
LINE
8
0
6
CONTINUOUS
10
8.5
20
50.0
30
0
11
11.0
21
50.0
31
0
0
LINE
8
0
6
CONTINUOUS
10
11.0
20
50.0
30
0
11
11.0
21
53.0
31
0
0
LINE
8
0
6
CONTINUOUS
10
11.0
20
53.0
30
0
11
23.0
21
53.0
31
0
0
LINE
8
0
6
CONTINUOUS
10
-15.0
20
81.64
30
0
11
-12.03
21
84.0
31
0
0
LINE
8
0
6
CONTINUOUS
10
-12.03
20
84.0
30
0
11
-16.32
21
82.65
31
0
0
LINE
8
0
6
CONTINUOUS
10
-16.32
20
82.65
30
0
11
-16.98
21
83.22
31
0
0
LINE
8
0
6
CONTINUOUS
10
-16.98
20
83.22
30
0
11
-14.82
21
83.52
31
0
0
LINE
8
0
6
CONTINUOUS
10
-14.82
20
83.52
30
0
11
-14.05
21
84.0
31
0
0
LINE
8
0
6
CONTINUOUS
10
-14.05
20
84.0
30
0
11
-18.07
21
84.0
31
0
0
LINE
8
0
6
CONTINUOUS
10
-18.07
20
84.0
30
0
11
-18.99
21
83.15
31
0
0
LINE
8
0
6
CONTINUOUS
10
-18.99
20
83.15
30
0
11
-20.12
21
84.0
31
0
0
LINE
8
0
6
CONTINUOUS
10
-20.12
20
84.0
30
0
11
-21.3
21
83.17
31
0
0
LINE
8
0
6
CONTINUOUS
10
-21.3
20
83.17
30
0
11
-22.4
21
84.0
31
0
0
LINE
8
0
6
CONTINUOUS
10
-22.4
20
84.0
30
0
11
-23.62
21
83.15
31
0
0
LINE
8
0
6
CONTINUOUS
10
-23.62
20
83.15
30
0
11
-24.22
21
84.0
31
0
0
LINE
8
0
6
CONTINUOUS
10
-24.22
20
84.0
30
0
11
-25.0
21
84.0
31
0
0
LINE
8
0
6
CONTINUOUS
10
-25.0
20
84.0
30
0
11
-25.0
21
80.0
31
0
0
LINE
8
0
6
CONTINUOUS
10
-25.0
20
80.0
30
0
11
-22.0
21
80.0
31
0
0
LINE
8
0
6
CONTINUOUS
10
-22.0
20
80.0
30
0
11
-22.0
21
79.03
31
0
0
LINE
8
0
6
CONTINUOUS
10
-22.0
20
79.03
30
0
11
-22.92
21
79.03
31
0
0
LINE
8
0
6
CONTINUOUS
10
-22.92
20
79.03
30
0
11
-22.2
21
77.45
31
0
0
LINE
8
0
6
CONTINUOUS
10
-22.2
20
77.45
30
0
11
-21.05
21
76.9
31
0
0
LINE
8
0
6
CONTINUOUS
10
-21.05
20
76.9
30
0
11
-20.0
21
76.9
31
0
0
LINE
8
0
6
CONTINUOUS
10
-20.0
20
76.9
30
0
11
-18.95
21
76.9
31
0
0
LINE
8
0
6
CONTINUOUS
10
-18.95
20
76.9
30
0
11
-17.8
21
77.45
31
0
0
LINE
8
0
6
CONTINUOUS
10
-17.8
20
77.45
30
0
11
-17.08
21
79.03
31
0
0
LINE
8
0
6
CONTINUOUS
10
-17.08
20
79.03
30
0
11
-18.01
21
79.03
31
0
0
LINE
8
0
6
CONTINUOUS
10
-18.01
20
79.03
30
0
11
-18.01
21
80.0
31
0
0
LINE
8
0
6
CONTINUOUS
10
-18.01
20
80.0
30
0
11
-15.0
21
80.0
31
0
0
LINE
8
0
6
CONTINUOUS
10
-15.0
20
80.0
30
0
11
-15.0
21
81.64
31
0
0
LINE
8
0
6
CONTINUOUS
10
-19.4
20
79.4
30
0
11
-19.4
21
78.15
31
0
0
ARC
8
0
6
CONTINUOUS
10
-20.0
20
78.14999999999999
30
0
40
0.6
50
270.0
51
1.3570366640910974e-12
0
ARC
8
0
6
CONTINUOUS
10
-20.0
20
78.14999999999999
30
0
40
0.6
50
179.99999999999866
51
270.0
0
LINE
8
0
6
CONTINUOUS
10
-20.6
20
78.15
30
0
11
-20.6
21
79.4
31
0
0
ARC
8
0
6
CONTINUOUS
10
-20.0
20
79.4
30
0
40
0.6
50
90.0
51
180.0
0
ARC
8
0
6
CONTINUOUS
10
-20.0
20
79.4
30
0
40
0.6
50
0.0
51
90.0
0
LINE
8
0
6
CONTINUOUS
10
-25.35
20
131.0
30
0
11
-25.35
21
118.39
31
0
0
ARC
8
0
6
CONTINUOUS
10
-24.96014912689229
20
118.40078409649237
30
0
40
0.39
50
181.58451790160586
51
330.7126440707831
0
LINE
8
0
6
CONTINUOUS
10
-24.62
20
118.21
30
0
11
-23.12
21
121.03
31
0
0
ARC
8
0
6
CONTINUOUS
10
-23.999453389309224
20
121.50598501660507
30
0
40
1.0
50
331.57649624738696
51
29.60481818190568
0
LINE
8
0
6
CONTINUOUS
10
-23.13
20
122.0
30
0
11
-23.85
21
123.24
31
0
0
LINE
8
0
6
CONTINUOUS
10
-23.85
20
123.24
30
0
11
-23.85
21
126.2
31
0
0
LINE
8
0
6
CONTINUOUS
10
-23.85
20
126.2
30
0
11
-21.85
21
126.2
31
0
0
LINE
8
0
6
CONTINUOUS
10
-21.85
20
126.2
30
0
11
-21.85
21
127.7
31
0
0
LINE
8
0
6
CONTINUOUS
10
-21.85
20
127.7
30
0
11
-24.35
21
127.7
31
0
0
LINE
8
0
6
CONTINUOUS
10
-24.35
20
127.7
30
0
11
-24.35
21
129.5
31
0
0
LINE
8
0
6
CONTINUOUS
10
-24.35
20
129.5
30
0
11
24.35
21
129.5
31
0
0
LINE
8
0
6
CONTINUOUS
10
24.35
20
129.5
30
0
11
24.35
21
127.7
31
0
0
LINE
8
0
6
CONTINUOUS
10
24.35
20
127.7
30
0
11
21.85
21
127.7
31
0
0
LINE
8
0
6
CONTINUOUS
10
21.85
20
127.7
30
0
11
21.85
21
126.2
31
0
0
LINE
8
0
6
CONTINUOUS
10
21.85
20
126.2
30
0
11
23.85
21
126.2
31
0
0
LINE
8
0
6
CONTINUOUS
10
23.85
20
126.2
30
0
11
23.85
21
123.24
31
0
0
LINE
8
0
6
CONTINUOUS
10
23.85
20
123.24
30
0
11
23.13
21
122.0
31
0
0
ARC
8
0
6
CONTINUOUS
10
23.999453389309224
20
121.50598501660507
30
0
40
1.0
50
150.39518181809433
51
208.42350375261302
0
LINE
8
0
6
CONTINUOUS
10
23.12
20
121.03
30
0
11
24.62
21
118.21
31
0
0
ARC
8
0
6
CONTINUOUS
10
24.96014912689229
20
118.40078409649237
30
0
40
0.39
50
209.28735592921691
51
358.41548209839414
0
LINE
8
0
6
CONTINUOUS
10
25.35
20
118.39
30
0
11
25.35
21
131.0
31
0
0
LINE
8
0
6
CONTINUOUS
10
25.35
20
131.0
30
0
11
-25.35
21
131.0
31
0
0
LINE
8
0
6
CONTINUOUS
10
-23.04
20
125.0
30
0
11
-23.67
21
123.92
31
0
0
LINE
8
0
6
CONTINUOUS
10
-23.67
20
123.92
30
0
11
-23.67
21
122.92
31
0
0
LINE
8
0
6
CONTINUOUS
10
-23.67
20
122.92
30
0
11
-22.86
21
121.52
31
0
0
LINE
8
0
6
CONTINUOUS
10
-22.86
20
121.52
30
0
11
-24.0
21
119.37
31
0
0
LINE
8
0
6
CONTINUOUS
10
-24.0
20
119.37
30
0
11
-24.0
21
118.0
31
0
0
ARC
8
0
6
CONTINUOUS
10
-23.0
20
118.0
30
0
40
1.0
50
180.0
51
270.0
0
LINE
8
0
6
CONTINUOUS
10
-23.0
20
117.0
30
0
11
-20.5
21
117.0
31
0
0
LINE
8
0
6
CONTINUOUS
10
-20.5
20
117.0
30
0
11
-20.5
21
118.0
31
0
0
LINE
8
0
6
CONTINUOUS
10
-20.5
20
118.0
30
0
11
-21.52
21
118.0
31
0
0
ARC
8
0
6
CONTINUOUS
10
-21.52266974816662
20
118.69999490887058
30
0
40
0.7
50
151.87245926350883
51
270.2185223902176
0
LINE
8
0
6
CONTINUOUS
10
-22.14
20
119.03
30
0
11
-21.2
21
120.8
31
0
0
LINE
8
0
6
CONTINUOUS
10
-21.2
20
120.8
30
0
11
-21.2
21
122.2
31
0
0
ARC
8
0
6
CONTINUOUS
10
-20.7
20
122.2
30
0
40
0.5
50
90.0
51
180.0
0
LINE
8
0
6
CONTINUOUS
10
-20.7
20
122.7
30
0
11
-16.87
21
122.7
31
0
0
ARC
8
0
6
CONTINUOUS
10
-16.872051414984895
20
120.70000105207615
30
0
40
2.0
50
29.999965197607434
51
89.94123127936298
0
LINE
8
0
6
CONTINUOUS
10
-15.14
20
121.7
30
0
11
-13.87
21
119.5
31
0
0
ARC
8
0
6
CONTINUOUS
10
-14.73601495924825
20
118.999981909969
30
0
40
1.0
50
270.3446338570161
51
30.001196834034488
0
LINE
8
0
6
CONTINUOUS
10
-14.73
20
118.0
30
0
11
-16.0
21
118.0
31
0
0
LINE
8
0
6
CONTINUOUS
10
-16.0
20
118.0
30
0
11
-16.0
21
117.0
31
0
0
LINE
8
0
6
CONTINUOUS
10
-16.0
20
117.0
30
0
11
16.0
21
117.0
31
0
0
LINE
8
0
6
CONTINUOUS
10
16.0
20
117.0
30
0
11
16.0
21
118.0
31
0
0
LINE
8
0
6
CONTINUOUS
10
16.0
20
118.0
30
0
11
14.73
21
118.0
31
0
0
ARC
8
0
6
CONTINUOUS
10
14.73601495924825
20
118.999981909969
30
0
40
1.0
50
149.9988031659655
51
269.6553661429839
0
LINE
8
0
6
CONTINUOUS
10
13.87
20
119.5
30
0
11
15.14
21
121.7
31
0
0
ARC
8
0
6
CONTINUOUS
10
16.872051414984895
20
120.70000105207615
30
0
40
2.0
50
90.05876872063703
51
150.00003480239258
0
LINE
8
0
6
CONTINUOUS
10
16.87
20
122.7
30
0
11
20.7
21
122.7
31
0
0
ARC
8
0
6
CONTINUOUS
10
20.7
20
122.2
30
0
40
0.5
50
0.0
51
90.0
0
LINE
8
0
6
CONTINUOUS
10
21.2
20
122.2
30
0
11
21.2
21
120.8
31
0
0
LINE
8
0
6
CONTINUOUS
10
21.2
20
120.8
30
0
11
22.14
21
119.03
31
0
0
ARC
8
0
6
CONTINUOUS
10
21.52266974816662
20
118.69999490887058
30
0
40
0.7
50
269.7814776097824
51
28.127540736491177
0
LINE
8
0
6
CONTINUOUS
10
21.52
20
118.0
30
0
11
20.5
21
118.0
31
0
0
LINE
8
0
6
CONTINUOUS
10
20.5
20
118.0
30
0
11
20.5
21
117.0
31
0
0
LINE
8
0
6
CONTINUOUS
10
20.5
20
117.0
30
0
11
23.0
21
117.0
31
0
0
ARC
8
0
6
CONTINUOUS
10
23.0
20
118.0
30
0
40
1.0
50
270.0
51
0.0
0
LINE
8
0
6
CONTINUOUS
10
24.0
20
118.0
30
0
11
24.0
21
119.37
31
0
0
LINE
8
0
6
CONTINUOUS
10
24.0
20
119.37
30
0
11
22.86
21
121.52
31
0
0
LINE
8
0
6
CONTINUOUS
10
22.86
20
121.52
30
0
11
23.67
21
122.92
31
0
0
LINE
8
0
6
CONTINUOUS
10
23.67
20
122.92
30
0
11
23.67
21
123.92
31
0
0
LINE
8
0
6
CONTINUOUS
10
23.67
20
123.92
30
0
11
23.04
21
125.0
31
0
0
LINE
8
0
6
CONTINUOUS
10
23.04
20
125.0
30
0
11
16.29
21
125.0
31
0
0
ARC
8
0
6
CONTINUOUS
10
16.287884224081452
20
121.70000067825882
30
0
40
3.3
50
89.96326513974745
51
150.00001359795132
0
LINE
8
0
6
CONTINUOUS
10
13.43
20
123.35
30
0
11
11.5
21
120.0
31
0
0
LINE
8
0
6
CONTINUOUS
10
11.5
20
120.0
30
0
11
-11.5
21
120.0
31
0
0
LINE
8
0
6
CONTINUOUS
10
-11.5
20
120.0
30
0
11
-13.43
21
123.35
31
0
0
ARC
8
0
6
CONTINUOUS
10
-16.287884224081452
20
121.70000067825882
30
0
40
3.3
50
29.99998640204867
51
90.03673486025255
0
LINE
8
0
6
CONTINUOUS
10
-16.29
20
125.0
30
0
11
-23.04
21
125.0
31
0
0
LINE
8
0
6
CONTINUOUS
10
15.25
20
118.0
30
0
11
16.21
21
118.0
31
0
0
LINE
8
0
6
CONTINUOUS
10
16.21
20
118.0
30
0
11
16.21
21
117.0
31
0
0
LINE
8
0
6
CONTINUOUS
10
16.21
20
117.0
30
0
11
15.23
21
117.0
31
0
0
ARC
8
0
6
CONTINUOUS
10
1.1280289760115974
20
125.19454167349166
30
0
40
16.31
50
318.74714307372705
51
329.8394741250672
0
ARC
8
0
6
CONTINUOUS
10
12.036559293975218
20
116.54195105920074
30
0
40
2.5
50
278.59078295192273
51
302.7773775839714
0
LINE
8
0
6
CONTINUOUS
10
12.41
20
114.07
30
0
11
10.93
21
113.86
31
0
0
LINE
8
0
6
CONTINUOUS
10
10.93
20
113.86
30
0
11
9.25
21
113.0
31
0
0
LINE
8
0
6
CONTINUOUS
10
9.25
20
113.0
30
0
11
15.89
21
113.98
31
0
0
LINE
8
0
6
CONTINUOUS
10
15.89
20
113.98
30
0
11
16.01
21
113.0
31
0
0
LINE
8
0
6
CONTINUOUS
10
16.01
20
113.0
30
0
11
20.4
21
113.0
31
0
0
LINE
8
0
6
CONTINUOUS
10
20.4
20
113.0
30
0
11
20.53
21
114.14
31
0
0
ARC
8
0
6
CONTINUOUS
10
22.476185022946183
20
115.22869823939416
30
0
40
2.23
50
209.22270163508722
51
268.04218392558937
0
LINE
8
0
6
CONTINUOUS
10
22.4
20
113.0
30
0
11
24.7
21
113.0
31
0
0
LINE
8
0
6
CONTINUOUS
10
24.7
20
113.0
30
0
11
24.01
21
113.6
31
0
0
LINE
8
0
6
CONTINUOUS
10
24.01
20
113.6
30
0
11
23.13
21
113.6
31
0
0
ARC
8
0
6
CONTINUOUS
10
23.076855485769553
20
116.44950445878001
30
0
40
2.85
50
239.25771480612454
51
271.0684676707536
0
LINE
8
0
6
CONTINUOUS
10
21.62
20
114.0
30
0
11
23.75
21
114.0
31
0
0
ARC
8
0
6
CONTINUOUS
10
28.99404419525677
20
127.2177305343313
30
0
40
14.22
50
248.3596357112802
51
268.97634074593805
0
LINE
8
0
6
CONTINUOUS
10
28.74
20
113.0
30
0
11
29.77
21
113.0
31
0
0
LINE
8
0
6
CONTINUOUS
10
29.77
20
113.0
30
0
11
29.0
21
113.6
31
0
0
ARC
8
0
6
CONTINUOUS
10
28.96481313510045
20
127.24995464770996
30
0
40
13.65
50
265.6101104238312
51
270.14769678284523
0
ARC
8
0
6
CONTINUOUS
10
28.123134755162393
20
116.13173358753401
30
0
40
2.5
50
226.11176142876113
51
265.3393563023602
0
LINE
8
0
6
CONTINUOUS
10
26.39
20
114.33
30
0
11
25.23
21
117.13
31
0
0
ARC
8
0
6
CONTINUOUS
10
24.749906319615324
20
116.9903215905922
30
0
40
0.5
50
16.221821406032515
51
178.89086670684603
0
LINE
8
0
6
CONTINUOUS
10
24.25
20
117.0
30
0
11
20.29
21
117.0
31
0
0
LINE
8
0
6
CONTINUOUS
10
20.29
20
117.0
30
0
11
20.29
21
118.0
31
0
0
LINE
8
0
6
CONTINUOUS
10
20.29
20
118.0
30
0
11
21.25
21
118.0
31
0
0
LINE
8
0
6
CONTINUOUS
10
21.25
20
118.0
30
0
11
18.77
21
120.49
31
0
0
LINE
8
0
6
CONTINUOUS
10
18.77
20
120.49
30
0
11
17.78
21
120.49
31
0
0
LINE
8
0
6
CONTINUOUS
10
17.78
20
120.49
30
0
11
15.25
21
118.0
31
0
0
LINE
8
0
6
CONTINUOUS
10
19.25
20
118.0
30
0
11
19.25
21
115.0
31
0
0
ARC
8
0
6
CONTINUOUS
10
18.25
20
115.0
30
0
40
1.0
50
180.0
51
0.0
0
LINE
8
0
6
CONTINUOUS
10
17.25
20
115.0
30
0
11
17.25
21
118.0
31
0
0
ARC
8
0
6
CONTINUOUS
10
18.25
20
118.0
30
0
40
1.0
50
0.0
51
180.0
0
LINE
8
0
6
CONTINUOUS
10
-15.25
20
118.0
30
0
11
-17.78
21
120.49
31
0
0
LINE
8
0
6
CONTINUOUS
10
-17.78
20
120.49
30
0
11
-18.77
21
120.49
31
0
0
LINE
8
0
6
CONTINUOUS
10
-18.77
20
120.49
30
0
11
-21.25
21
118.0
31
0
0
LINE
8
0
6
CONTINUOUS
10
-21.25
20
118.0
30
0
11
-20.29
21
118.0
31
0
0
LINE
8
0
6
CONTINUOUS
10
-20.29
20
118.0
30
0
11
-20.29
21
117.0
31
0
0
LINE
8
0
6
CONTINUOUS
10
-20.29
20
117.0
30
0
11
-24.25
21
117.0
31
0
0
ARC
8
0
6
CONTINUOUS
10
-24.749906319615324
20
116.9903215905922
30
0
40
0.5
50
1.1091332931539808
51
163.7781785939675
0
LINE
8
0
6
CONTINUOUS
10
-25.23
20
117.13
30
0
11
-26.39
21
114.33
31
0
0
ARC
8
0
6
CONTINUOUS
10
-28.123134755162393
20
116.13173358753401
30
0
40
2.5
50
274.6606436976398
51
313.88823857123884
0
ARC
8
0
6
CONTINUOUS
10
-28.96481313510045
20
127.24995464770996
30
0
40
13.65
50
269.85230321715477
51
274.3898895761688
0
LINE
8
0
6
CONTINUOUS
10
-29.0
20
113.6
30
0
11
-29.77
21
113.0
31
0
0
LINE
8
0
6
CONTINUOUS
10
-29.77
20
113.0
30
0
11
-28.74
21
113.0
31
0
0
ARC
8
0
6
CONTINUOUS
10
-28.99404419525677
20
127.2177305343313
30
0
40
14.22
50
271.02365925406195
51
291.6403642887198
0
LINE
8
0
6
CONTINUOUS
10
-23.75
20
114.0
30
0
11
-21.62
21
114.0
31
0
0
ARC
8
0
6
CONTINUOUS
10
-23.076855485769553
20
116.44950445878001
30
0
40
2.85
50
268.9315323292464
51
300.74228519387543
0
LINE
8
0
6
CONTINUOUS
10
-23.13
20
113.6
30
0
11
-24.01
21
113.6
31
0
0
LINE
8
0
6
CONTINUOUS
10
-24.01
20
113.6
30
0
11
-24.7
21
113.0
31
0
0
LINE
8
0
6
CONTINUOUS
10
-24.7
20
113.0
30
0
11
-22.4
21
113.0
31
0
0
ARC
8
0
6
CONTINUOUS
10
-22.476185022946183
20
115.22869823939416
30
0
40
2.23
50
271.95781607441063
51
330.7772983649128
0
LINE
8
0
6
CONTINUOUS
10
-20.53
20
114.14
30
0
11
-20.4
21
113.0
31
0
0
LINE
8
0
6
CONTINUOUS
10
-20.4
20
113.0
30
0
11
-16.01
21
113.0
31
0
0
LINE
8
0
6
CONTINUOUS
10
-16.01
20
113.0
30
0
11
-15.89
21
113.98
31
0
0
LINE
8
0
6
CONTINUOUS
10
-15.89
20
113.98
30
0
11
-9.25
21
113.0
31
0
0
LINE
8
0
6
CONTINUOUS
10
-9.25
20
113.0
30
0
11
-10.93
21
113.86
31
0
0
LINE
8
0
6
CONTINUOUS
10
-10.93
20
113.86
30
0
11
-12.41
21
114.07
31
0
0
ARC
8
0
6
CONTINUOUS
10
-12.036559293975218
20
116.54195105920074
30
0
40
2.5
50
237.22262241602863
51
261.40921704807727
0
ARC
8
0
6
CONTINUOUS
10
-1.1280289760115974
20
125.19454167349166
30
0
40
16.31
50
210.16052587493274
51
221.25285692627295
0
LINE
8
0
6
CONTINUOUS
10
-15.23
20
117.0
30
0
11
-16.21
21
117.0
31
0
0
LINE
8
0
6
CONTINUOUS
10
-16.21
20
117.0
30
0
11
-16.21
21
118.0
31
0
0
LINE
8
0
6
CONTINUOUS
10
-16.21
20
118.0
30
0
11
-15.25
21
118.0
31
0
0
ARC
8
0
6
CONTINUOUS
10
-18.25
20
118.0
30
0
40
1.0
50
0.0
51
180.0
0
LINE
8
0
6
CONTINUOUS
10
-17.25
20
118.0
30
0
11
-17.25
21
115.0
31
0
0
ARC
8
0
6
CONTINUOUS
10
-18.25
20
115.0
30
0
40
1.0
50
180.0
51
0.0
0
LINE
8
0
6
CONTINUOUS
10
-19.25
20
115.0
30
0
11
-19.25
21
118.0
31
0
0
ENDSEC
0
EOF