0
SECTION
2
HEADER
0
ENDSEC
0
SECTION
2
TABLES
0
TABLE
2
LTYPE
70
4
0
LTYPE
2
CONTINUOUS
70
0
3
Solid line
72
65
73
0
40
0.0
0
LTYPE
2
HIDDEN
70
0
3
hidden
72
65
73
2
40
9.524999999999999
49
6.35
49
-3.175
0
LTYPE
2
CENTER
70
0
3
center
72
65
73
4
40
28.575
49
12.7
49
-6.35
49
3.175
49
-6.35
0
ENDTAB
0
TABLE
2
LAYER
70
1
0
LAYER
2
0
70
0
62
7
6
CONTINUOUS
0
ENDTAB
0
ENDSEC
0
SECTION
2
ENTITIES
0
LINE
8
0
6
CONTINUOUS
10
62.53
20
100.0
30
0
11
-50.0
21
100.0
31
0
0
LINE
8
0
6
CONTINUOUS
10
62.53
20
145.0
30
0
11
-50.0
21
145.0
31
0
0
LINE
8
0
6
CONTINUOUS
10
62.53
20
150.0
30
0
11
-50.0
21
150.0
31
0
0
LINE
8
0
6
CONTINUOUS
10
0.0
20
0.0
30
0
11
0.0
21
205.0
31
0
0
LINE
8
0
6
CONTINUOUS
10
-50.0
20
0.0
30
0
11
62.53
21
0.0
31
0
0
LINE
8
0
6
CONTINUOUS
10
50.0
20
3.0
30
0
11
50.0
21
5.02
31
0
0
LINE
8
0
6
CONTINUOUS
10
50.0
20
5.02
30
0
11
1.0
21
5.02
31
0
0
LINE
8
0
6
CONTINUOUS
10
1.0
20
5.02
30
0
11
1.0
21
63.0
31
0
0
LINE
8
0
6
CONTINUOUS
10
1.0
20
63.0
30
0
11
-1.0
21
63.0
31
0
0
LINE
8
0
6
CONTINUOUS
10
-1.0
20
63.0
30
0
11
-1.0
21
5.02
31
0
0
LINE
8
0
6
CONTINUOUS
10
-1.0
20
5.02
30
0
11
-50.0
21
5.02
31
0
0
LINE
8
0
6
CONTINUOUS
10
-50.0
20
5.02
30
0
11
-50.0
21
3.0
31
0
0
LINE
8
0
6
CONTINUOUS
10
-50.0
20
3.0
30
0
11
50.0
21
3.0
31
0
0
LINE
8
0
6
CONTINUOUS
10
-43.45
20
0.0
30
0
11
-28.45
21
0.0
31
0
0
LINE
8
0
6
CONTINUOUS
10
-28.45
20
0.0
30
0
11
-28.45
21
3.0
31
0
0
LINE
8
0
6
CONTINUOUS
10
-28.45
20
3.0
30
0
11
-43.45
21
3.0
31
0
0
LINE
8
0
6
CONTINUOUS
10
-43.45
20
3.0
30
0
11
-43.45
21
0.0
31
0
0
LINE
8
0
6
CONTINUOUS
10
43.45
20
0.0
30
0
11
43.45
21
3.0
31
0
0
LINE
8
0
6
CONTINUOUS
10
43.45
20
3.0
30
0
11
28.45
21
3.0
31
0
0
LINE
8
0
6
CONTINUOUS
10
28.45
20
3.0
30
0
11
28.45
21
0.0
31
0
0
LINE
8
0
6
CONTINUOUS
10
28.45
20
0.0
30
0
11
43.45
21
0.0
31
0
0
LINE
8
0
6
CONTINUOUS
10
10.0
20
3.0
30
0
11
25.0
21
3.0
31
0
0
LINE
8
0
6
CONTINUOUS
10
25.0
20
0.0
30
0
11
25.0
21
3.0
31
0
0
LINE
8
0
6
CONTINUOUS
10
10.0
20
0.0
30
0
11
10.0
21
3.0
31
0
0
LINE
8
0
6
CONTINUOUS
10
10.0
20
0.0
30
0
11
25.0
21
0.0
31
0
0
LINE
8
0
6
CONTINUOUS
10
25.0
20
0.0
30
0
11
25.0
21
3.0
31
0
0
LINE
8
0
6
CONTINUOUS
10
25.0
20
3.0
30
0
11
10.0
21
3.0
31
0
0
LINE
8
0
6
CONTINUOUS
10
10.0
20
3.0
30
0
11
10.0
21
0.0
31
0
0
LINE
8
0
6
CONTINUOUS
10
10.0
20
0.0
30
0
11
25.0
21
0.0
31
0
0
LINE
8
0
6
CONTINUOUS
10
-10.0
20
3.0
30
0
11
-25.0
21
3.0
31
0
0
LINE
8
0
6
CONTINUOUS
10
-25.0
20
0.0
30
0
11
-25.0
21
3.0
31
0
0
LINE
8
0
6
CONTINUOUS
10
-10.0
20
0.0
30
0
11
-10.0
21
3.0
31
0
0
LINE
8
0
6
CONTINUOUS
10
-10.0
20
0.0
30
0
11
-25.0
21
0.0
31
0
0
LINE
8
0
6
CONTINUOUS
10
-25.0
20
0.0
30
0
11
-10.0
21
0.0
31
0
0
LINE
8
0
6
CONTINUOUS
10
-10.0
20
0.0
30
0
11
-10.0
21
3.0
31
0
0
LINE
8
0
6
CONTINUOUS
10
-10.0
20
3.0
30
0
11
-25.0
21
3.0
31
0
0
LINE
8
0
6
CONTINUOUS
10
-25.0
20
3.0
30
0
11
-25.0
21
0.0
31
0
0
LINE
8
0
6
HIDDEN
10
62.53
20
145.0
30
0
11
-2.47
21
145.0
31
0
0
LINE
8
0
6
HIDDEN
10
1.0
20
140.5
30
0
11
1.0
21
35.19
31
0
0
LINE
8
0
6
HIDDEN
10
56.01
20
140.5
30
0
11
5.0
21
140.5
31
0
0
LINE
8
0
6
HIDDEN
10
5.0
20
140.5
30
0
11
5.0
21
85.52
31
0
0
ARC
8
0
6
HIDDEN
10
16.36800301210915
20
83.22540660940469
30
0
40
22.75
50
132.4942812551908
51
186.62684049567284
0
LINE
8
0
6
HIDDEN
10
-6.23
20
80.6
30
0
11
-3.5
21
46.57
31
0
0
LINE
8
0
6
HIDDEN
10
-3.5
20
46.57
30
0
11
-3.5
21
40.65
31
0
0
LINE
8
0
6
HIDDEN
10
-3.5
20
40.65
30
0
11
-4.42
21
35.44
31
0
0
LINE
8
0
6
HIDDEN
10
-4.42
20
35.44
30
0
11
-2.55
21
35.11
31
0
0
LINE
8
0
6
HIDDEN
10
-2.55
20
35.11
30
0
11
-1.0
21
40.5
31
0
0
LINE
8
0
6
HIDDEN
10
-2.84
20
82.0
30
0
11
-1.0
21
46.18
31
0
0
ARC
8
0
6
HIDDEN
10
16.37060537337939
20
83.230910714994
30
0
40
19.25
50
142.98453161720838
51
183.66618899810618
0
LINE
8
0
6
HIDDEN
10
3.24
20
35.19
30
0
11
5.0
21
85.52
31
0
0
LINE
8
0
6
HIDDEN
10
3.24
20
35.19
30
0
11
1.0
21
35.19
31
0
0
LINE
8
0
6
HIDDEN
10
-2.47
20
145.0
30
0
11
-2.47
21
143.52
31
0
0
LINE
8
0
6
HIDDEN
10
-2.47
20
143.52
30
0
11
1.0
21
140.5
31
0
0
LINE
8
0
6
HIDDEN
10
62.53
20
145.0
30
0
11
62.53
21
143.52
31
0
0
LINE
8
0
6
HIDDEN
10
62.53
20
143.52
30
0
11
57.27
21
142.69
31
0
0
LINE
8
0
6
HIDDEN
10
57.27
20
142.69
30
0
11
56.01
21
140.5
31
0
0
LINE
8
0
6
HIDDEN
10
-1.0
20
46.18
30
0
11
-1.0
21
40.5
31
0
0
LINE
8
0
6
CENTER
10
21.0
20
205.0
30
0
11
21.0
21
130.0
31
0
0
LINE
8
0
6
CONTINUOUS
10
-9.29
20
46.66
30
0
11
10.71
21
46.66
31
0
0
LINE
8
0
6
HIDDEN
10
62.53
20
145.0
30
0
11
62.53
21
150.0
31
0
0
LINE
8
0
6
HIDDEN
10
62.53
20
150.0
30
0
11
-2.47
21
145.0
31
0
0
LINE
8
0
6
HIDDEN
10
-2.47
20
145.0
30
0
11
-2.47
21
150.0
31
0
0
LINE
8
0
6
HIDDEN
10
-2.47
20
150.0
30
0
11
62.53
21
145.0
31
0
0
ENDSEC
0
EOF