0
SECTION
2
HEADER
0
ENDSEC
0
SECTION
2
TABLES
0
TABLE
2
LTYPE
70
2
0
LTYPE
2
CONTINUOUS
70
0
3
Solid line
72
65
73
0
40
0.0
0
ENDTAB
0
TABLE
2
LAYER
70
1
0
LAYER
2
0
70
0
62
7
6
CONTINUOUS
0
ENDTAB
0
ENDSEC
0
SECTION
2
ENTITIES
0
LINE
8
0
6
CONTINUOUS
10
-43.34
20
12.5
30
0
11
52.67
21
12.5
31
0
0
LINE
8
0
6
CONTINUOUS
10
-19.59
20
-44.6
30
0
11
-19.59
21
12.5
31
0
0
LINE
8
0
6
CONTINUOUS
10
0.41
20
-44.6
30
0
11
0.41
21
12.5
31
0
0
LINE
8
0
6
CONTINUOUS
10
-43.34
20
-0.0
30
0
11
52.67
21
-0.0
31
0
0
ARC
8
0
6
CONTINUOUS
10
-14.09
20
2.35
30
0
40
0.5
50
180.0
51
270.0
0
LINE
8
0
6
CONTINUOUS
10
-14.59
20
2.35
30
0
11
-14.59
21
10.49
31
0
0
ARC
8
0
6
CONTINUOUS
10
-14.09
20
10.49
30
0
40
0.5
50
90.0
51
180.0
0
LINE
8
0
6
CONTINUOUS
10
-14.09
20
10.99
30
0
11
-4.84
21
10.99
31
0
0
ARC
8
0
6
CONTINUOUS
10
-4.96328828005938
20
11.745000000000001
30
0
40
0.7649999999999999
50
279.2742999592268
51
80.72570004077313
0
LINE
8
0
6
CONTINUOUS
10
-4.84
20
12.5
30
0
11
-16.09
21
12.5
31
0
0
ARC
8
0
6
CONTINUOUS
10
-16.084164367846334
20
-14.749999375144899
30
0
40
27.25
50
90.0122699851652
51
254.66665638342667
0
LINE
8
0
6
CONTINUOUS
10
-23.29
20
-41.03
30
0
11
-22.42
21
-41.19
31
0
0
ARC
8
0
6
CONTINUOUS
10
-22.684686485918558
20
-42.154334518811844
30
0
40
1.0
50
10.03993355100075
51
74.65167542218583
0
LINE
8
0
6
CONTINUOUS
10
-21.7
20
-41.98
30
0
11
-21.31
21
-44.19
31
0
0
ARC
8
0
6
CONTINUOUS
10
-20.815700446041593
20
-44.114714204815776
30
0
40
0.5
50
188.6600524996307
51
330.62184252420167
0
LINE
8
0
6
CONTINUOUS
10
-20.38
20
-44.36
30
0
11
-19.26
21
-42.41
31
0
0
ARC
8
0
6
CONTINUOUS
10
-18.392037228612796
20
-42.90662926563569
30
0
40
1.0
50
85.29432465460256
51
150.22275654751732
0
ARC
8
0
6
CONTINUOUS
10
-16.075784289435443
20
-14.751745634914851
30
0
40
27.25
50
265.2970646737274
51
292.81365034244294
0
ARC
8
0
6
CONTINUOUS
10
-6.094606837864346
20
-38.4777590563691
30
0
40
1.51
50
292.7777053480205
51
201.45205206914682
0
ARC
8
0
6
CONTINUOUS
10
-14.559621336032325
20
-19.252190551230477
30
0
40
21.0
50
274.0403027632166
51
289.643849467439
0
LINE
8
0
6
CONTINUOUS
10
-13.08
20
-40.2
30
0
11
-13.08
21
-37.66
31
0
0
ARC
8
0
6
CONTINUOUS
10
-14.08
20
-37.66
30
0
40
1.0
50
0.0
51
90.0
0
LINE
8
0
6
CONTINUOUS
10
-14.08
20
-36.66
30
0
11
-15.95
21
-36.66
31
0
0
ARC
8
0
6
CONTINUOUS
10
-15.95
20
-37.41
30
0
40
0.75
50
90.0
51
270.0
0
LINE
8
0
6
CONTINUOUS
10
-15.95
20
-38.16
30
0
11
-14.58
21
-38.16
31
0
0
LINE
8
0
6
CONTINUOUS
10
-14.58
20
-38.16
30
0
11
-14.58
21
-40.17
31
0
0
LINE
8
0
6
CONTINUOUS
10
-14.58
20
-40.17
30
0
11
-16.71
21
-40.49
31
0
0
ARC
8
0
6
CONTINUOUS
10
-15.939547232210304
20
-14.75152874523032
30
0
40
25.75
50
91.46972063608133
51
268.2854259779585
0
ARC
8
0
6
CONTINUOUS
10
-16.589999989997956
20
10.490100010202081
30
0
40
0.5
50
359.98853967494864
51
91.14599314476784
0
LINE
8
0
6
CONTINUOUS
10
-16.09
20
10.49
30
0
11
-16.09
21
9.4
31
0
0
ARC
8
0
6
CONTINUOUS
10
-16.59
20
9.4
30
0
40
0.5
50
270.0
51
0.0
0
LINE
8
0
6
CONTINUOUS
10
-16.59
20
8.9
30
0
11
-17.42
21
8.9
31
0
0
ARC
8
0
6
CONTINUOUS
10
-17.42
20
8.15
30
0
40
0.75
50
90.0
51
270.0
0
LINE
8
0
6
CONTINUOUS
10
-17.42
20
7.4
30
0
11
-16.59
21
7.4
31
0
0
ARC
8
0
6
CONTINUOUS
10
-16.59
20
6.9
30
0
40
0.5
50
0.0
51
90.0
0
LINE
8
0
6
CONTINUOUS
10
-16.09
20
6.9
30
0
11
-16.09
21
2.0
31
0
0
ARC
8
0
6
CONTINUOUS
10
-14.09
20
2.0
30
0
40
2.0
50
180.0
51
270.0
0
LINE
8
0
6
CONTINUOUS
10
-14.09
20
-0.0
30
0
11
-6.09
21
-0.0
31
0
0
LINE
8
0
6
CONTINUOUS
10
-6.09
20
-0.0
30
0
11
-6.09
21
-1.5
31
0
0
LINE
8
0
6
CONTINUOUS
10
-6.09
20
-1.5
30
0
11
-4.59
21
-1.5
31
0
0
LINE
8
0
6
CONTINUOUS
10
-4.59
20
-1.5
30
0
11
-4.59
21
-0.0
31
0
0
LINE
8
0
6
CONTINUOUS
10
-4.59
20
-0.0
30
0
11
45.16
21
-0.0
31
0
0
LINE
8
0
6
CONTINUOUS
10
45.16
20
-0.0
30
0
11
52.28
21
-0.0
31
0
0
ARC
8
0
6
CONTINUOUS
10
52.24104167113716
20
0.3980982901397781
30
0
40
0.4
50
275.58922994048913
51
72.6987428886532
0
LINE
8
0
6
CONTINUOUS
10
52.36
20
0.78
30
0
11
47.24
21
1.85
31
0
0
LINE
8
0
6
CONTINUOUS
10
47.24
20
1.85
30
0
11
-14.09
21
1.85
31
0
0
ENDSEC
0
EOF