0
SECTION
2
HEADER
0
ENDSEC
0
SECTION
2
TABLES
0
TABLE
2
LTYPE
70
2
0
LTYPE
2
CONTINUOUS
70
0
3
Solid line
72
65
73
0
40
0.0
0
ENDTAB
0
TABLE
2
LAYER
70
1
0
LAYER
2
0
70
0
62
7
6
CONTINUOUS
0
ENDTAB
0
ENDSEC
0
SECTION
2
ENTITIES
0
LINE
8
0
6
CONTINUOUS
10
10.0
20
18.92
30
0
11
-34.0
21
18.92
31
0
0
LINE
8
0
6
CONTINUOUS
10
10.0
20
20.42
30
0
11
10.0
21
-12.86
31
0
0
LINE
8
0
6
CONTINUOUS
10
10.0
20
-1.0
30
0
11
-34.0
21
-1.0
31
0
0
LINE
8
0
6
CONTINUOUS
10
6.0
20
-12.86
30
0
11
6.0
21
20.42
31
0
0
LINE
8
0
6
CONTINUOUS
10
1.0
20
-12.86
30
0
11
1.0
21
20.42
31
0
0
LINE
8
0
6
CONTINUOUS
10
0.0
20
-12.86
30
0
11
0.0
21
20.42
31
0
0
LINE
8
0
6
CONTINUOUS
10
-34.0
20
0.0
30
0
11
10.0
21
0.0
31
0
0
LINE
8
0
6
CONTINUOUS
10
1.0
20
20.04
30
0
11
1.0
21
-6.44
31
0
0
LINE
8
0
6
CONTINUOUS
10
-1.0
20
-1.0
30
0
11
-34.0
21
-1.0
31
0
0
LINE
8
0
6
CONTINUOUS
10
-1.0
20
-1.0
30
0
11
-1.0
21
-7.26
31
0
0
LINE
8
0
6
CONTINUOUS
10
-1.0
20
-7.26
30
0
11
4.3
21
-12.57
31
0
0
LINE
8
0
6
CONTINUOUS
10
1.0
20
-6.44
30
0
11
5.72
21
-11.15
31
0
0
ARC
8
0
6
CONTINUOUS
10
4.90954644708698
20
-11.75954644708698
30
0
40
1.0140916292848974
50
233.0529789014001
51
36.94702109859988
0
ENDSEC
0
EOF