0
SECTION
2
HEADER
0
ENDSEC
0
SECTION
2
TABLES
0
TABLE
2
LTYPE
70
2
0
LTYPE
2
CONTINUOUS
70
0
3
Solid line
72
65
73
0
40
0.0
0
ENDTAB
0
TABLE
2
LAYER
70
1
0
LAYER
2
0
70
0
62
7
6
CONTINUOUS
0
ENDTAB
0
ENDSEC
0
SECTION
2
ENTITIES
0
LINE
8
0
6
CONTINUOUS
10
100.0
20
24.27
30
0
11
100.0
21
-20.73
31
0
0
LINE
8
0
6
CONTINUOUS
10
-100.0
20
-20.73
30
0
11
-100.0
21
24.27
31
0
0
LINE
8
0
6
CONTINUOUS
10
150.0
20
4.27
30
0
11
-150.0
21
4.27
31
0
0
LINE
8
0
6
CONTINUOUS
10
135.0
20
24.27
30
0
11
135.0
21
-20.73
31
0
0
LINE
8
0
6
CONTINUOUS
10
140.0
20
24.27
30
0
11
140.0
21
-20.73
31
0
0
LINE
8
0
6
CONTINUOUS
10
-135.0
20
-20.73
30
0
11
-135.0
21
24.27
31
0
0
LINE
8
0
6
CONTINUOUS
10
-140.0
20
-20.73
30
0
11
-140.0
21
24.27
31
0
0
LINE
8
0
6
CONTINUOUS
10
150.0
20
19.27
30
0
11
-150.0
21
19.27
31
0
0
LINE
8
0
6
CONTINUOUS
10
150.0
20
24.27
30
0
11
-150.0
21
24.27
31
0
0
LINE
8
0
6
CONTINUOUS
10
150.0
20
-20.73
30
0
11
-150.0
21
-20.73
31
0
0
LINE
8
0
6
CONTINUOUS
10
150.0
20
-20.73
30
0
11
150.0
21
24.27
31
0
0
LINE
8
0
6
CONTINUOUS
10
-150.0
20
-20.73
30
0
11
-150.0
21
24.27
31
0
0
LINE
8
0
6
CONTINUOUS
10
0.0
20
-20.73
30
0
11
0.0
21
24.27
31
0
0
LINE
8
0
6
CONTINUOUS
10
-150.0
20
0.0
30
0
11
150.0
21
0.0
31
0
0
LINE
8
0
6
CONTINUOUS
10
-150.0
20
17.32
30
0
11
-150.0
21
-19.58
31
0
0
LINE
8
0
6
CONTINUOUS
10
-150.0
20
-19.58
30
0
11
-148.85
21
-20.73
31
0
0
LINE
8
0
6
CONTINUOUS
10
-148.85
20
-20.73
30
0
11
-140.0
21
-20.73
31
0
0
LINE
8
0
6
CONTINUOUS
10
-140.0
20
-20.73
30
0
11
-134.15
21
4.27
31
0
0
LINE
8
0
6
CONTINUOUS
10
-134.15
20
4.27
30
0
11
134.15
21
4.27
31
0
0
LINE
8
0
6
CONTINUOUS
10
134.15
20
4.27
30
0
11
140.0
21
-20.73
31
0
0
LINE
8
0
6
CONTINUOUS
10
140.0
20
-20.73
30
0
11
148.85
21
-20.73
31
0
0
LINE
8
0
6
CONTINUOUS
10
148.85
20
-20.73
30
0
11
150.0
21
-19.58
31
0
0
LINE
8
0
6
CONTINUOUS
10
150.0
20
-19.58
30
0
11
150.0
21
17.32
31
0
0
ARC
8
0
6
CONTINUOUS
10
148.000000097686
20
17.32062509524387
30
0
40
2.0
50
359.98209234007476
51
88.56745906180622
0
LINE
8
0
6
CONTINUOUS
10
148.05
20
19.32
30
0
11
0.0
21
24.27
31
0
0
LINE
8
0
6
CONTINUOUS
10
0.0
20
24.27
30
0
11
-148.05
21
19.32
31
0
0
ARC
8
0
6
CONTINUOUS
10
-148.000000097686
20
17.32062509524387
30
0
40
2.0
50
91.4325409381938
51
180.01790765992524
0
LINE
8
0
6
CONTINUOUS
10
-100.0
20
0.0
30
0
11
-100.0
21
4.27
31
0
0
LINE
8
0
6
CONTINUOUS
10
-100.0
20
4.27
30
0
11
-112.0
21
4.27
31
0
0
LINE
8
0
6
CONTINUOUS
10
-112.0
20
4.27
30
0
11
-112.0
21
0.0
31
0
0
LINE
8
0
6
CONTINUOUS
10
-112.0
20
0.0
30
0
11
-100.0
21
0.0
31
0
0
LINE
8
0
6
CONTINUOUS
10
110.56
20
0.0
30
0
11
110.56
21
4.27
31
0
0
LINE
8
0
6
CONTINUOUS
10
110.56
20
4.27
30
0
11
100.0
21
4.27
31
0
0
LINE
8
0
6
CONTINUOUS
10
100.0
20
4.27
30
0
11
100.0
21
0.0
31
0
0
LINE
8
0
6
CONTINUOUS
10
100.0
20
0.0
30
0
11
110.56
21
0.0
31
0
0
LINE
8
0
6
CONTINUOUS
10
-100.0
20
4.27
30
0
11
-80.0
21
4.27
31
0
0
LINE
8
0
6
CONTINUOUS
10
-80.0
20
-0.0
30
0
11
-80.0
21
4.27
31
0
0
LINE
8
0
6
CONTINUOUS
10
-100.0
20
-0.0
30
0
11
-100.0
21
4.27
31
0
0
LINE
8
0
6
CONTINUOUS
10
-100.0
20
-0.0
30
0
11
-80.0
21
-0.0
31
0
0
LINE
8
0
6
CONTINUOUS
10
-80.0
20
-0.0
30
0
11
-80.0
21
4.27
31
0
0
LINE
8
0
6
CONTINUOUS
10
-80.0
20
4.27
30
0
11
-100.0
21
4.27
31
0
0
LINE
8
0
6
CONTINUOUS
10
-100.0
20
4.27
30
0
11
-100.0
21
-0.0
31
0
0
LINE
8
0
6
CONTINUOUS
10
-100.0
20
-0.0
30
0
11
-80.0
21
-0.0
31
0
0
LINE
8
0
6
CONTINUOUS
10
100.0
20
4.27
30
0
11
80.0
21
4.27
31
0
0
LINE
8
0
6
CONTINUOUS
10
80.0
20
0.0
30
0
11
80.0
21
4.27
31
0
0
LINE
8
0
6
CONTINUOUS
10
100.0
20
0.0
30
0
11
100.0
21
4.27
31
0
0
LINE
8
0
6
CONTINUOUS
10
100.0
20
0.0
30
0
11
80.0
21
0.0
31
0
0
LINE
8
0
6
CONTINUOUS
10
80.0
20
0.0
30
0
11
100.0
21
0.0
31
0
0
LINE
8
0
6
CONTINUOUS
10
100.0
20
0.0
30
0
11
100.0
21
4.27
31
0
0
LINE
8
0
6
CONTINUOUS
10
100.0
20
4.27
30
0
11
80.0
21
4.27
31
0
0
LINE
8
0
6
CONTINUOUS
10
80.0
20
4.27
30
0
11
80.0
21
0.0
31
0
0
ENDSEC
0
EOF