0
SECTION
2
HEADER
0
ENDSEC
0
SECTION
2
TABLES
0
TABLE
2
LTYPE
70
2
0
LTYPE
2
CONTINUOUS
70
0
3
Solid line
72
65
73
0
40
0.0
0
ENDTAB
0
TABLE
2
LAYER
70
1
0
LAYER
2
0
70
0
62
7
6
CONTINUOUS
0
ENDTAB
0
ENDSEC
0
SECTION
2
ENTITIES
0
LINE
8
0
6
CONTINUOUS
10
-29.59
20
-37.7
30
0
11
264.26
21
-37.7
31
0
0
LINE
8
0
6
CONTINUOUS
10
234.26
20
12.0
30
0
11
234.26
21
-42.7
31
0
0
LINE
8
0
6
CONTINUOUS
10
-29.59
20
-42.7
30
0
11
264.26
21
-42.7
31
0
0
LINE
8
0
6
CONTINUOUS
10
-29.59
20
12.0
30
0
11
264.26
21
12.0
31
0
0
LINE
8
0
6
CONTINUOUS
10
264.26
20
12.0
30
0
11
264.26
21
-42.7
31
0
0
LINE
8
0
6
CONTINUOUS
10
-29.59
20
12.0
30
0
11
-29.59
21
-42.7
31
0
0
LINE
8
0
6
CONTINUOUS
10
0.41
20
-42.7
30
0
11
0.41
21
12.0
31
0
0
LINE
8
0
6
CONTINUOUS
10
-29.59
20
-0.0
30
0
11
264.26
21
0.0
31
0
0
LINE
8
0
6
CONTINUOUS
10
-29.59
20
12.0
30
0
11
-29.59
21
-42.7
31
0
0
LINE
8
0
6
CONTINUOUS
10
-29.59
20
-42.7
30
0
11
-14.59
21
-42.7
31
0
0
LINE
8
0
6
CONTINUOUS
10
-14.59
20
-42.7
30
0
11
-14.59
21
-0.0
31
0
0
LINE
8
0
6
CONTINUOUS
10
-14.59
20
-0.0
30
0
11
243.61
21
0.0
31
0
0
LINE
8
0
6
CONTINUOUS
10
243.61
20
0.0
30
0
11
250.3
21
-9.55
31
0
0
LINE
8
0
6
CONTINUOUS
10
250.3
20
-9.55
30
0
11
249.32
21
-37.7
31
0
0
LINE
8
0
6
CONTINUOUS
10
249.32
20
-37.7
30
0
11
264.26
21
-37.7
31
0
0
LINE
8
0
6
CONTINUOUS
10
264.26
20
-37.7
30
0
11
264.26
21
12.0
31
0
0
LINE
8
0
6
CONTINUOUS
10
264.26
20
12.0
30
0
11
-29.59
21
12.0
31
0
0
LINE
8
0
6
CONTINUOUS
10
-27.59
20
10.0
30
0
11
262.26
21
10.0
31
0
0
LINE
8
0
6
CONTINUOUS
10
262.26
20
10.0
30
0
11
262.25
21
-35.7
31
0
0
LINE
8
0
6
CONTINUOUS
10
262.25
20
-35.7
30
0
11
249.25
21
-35.7
31
0
0
LINE
8
0
6
CONTINUOUS
10
249.25
20
-35.7
30
0
11
249.25
21
-37.7
31
0
0
LINE
8
0
6
CONTINUOUS
10
249.25
20
-37.7
30
0
11
261.76
21
-37.7
31
0
0
ARC
8
0
6
CONTINUOUS
10
261.76
20
-35.2
30
0
40
2.5
50
270.0
51
0.0
0
LINE
8
0
6
CONTINUOUS
10
264.26
20
-35.2
30
0
11
264.26
21
10.0
31
0
0
ARC
8
0
6
CONTINUOUS
10
262.26
20
10.0
30
0
40
2.0
50
0.0
51
90.0
0
LINE
8
0
6
CONTINUOUS
10
262.26
20
12.0
30
0
11
-27.59
21
12.0
31
0
0
ARC
8
0
6
CONTINUOUS
10
-27.59
20
10.0
30
0
40
2.0
50
90.0
51
180.0
0
LINE
8
0
6
CONTINUOUS
10
-29.59
20
10.0
30
0
11
-29.59
21
-40.2
31
0
0
ARC
8
0
6
CONTINUOUS
10
-27.09
20
-40.2
30
0
40
2.5
50
180.0
51
270.0
0
LINE
8
0
6
CONTINUOUS
10
-27.09
20
-42.7
30
0
11
-14.59
21
-42.7
31
0
0
LINE
8
0
6
CONTINUOUS
10
-14.59
20
-42.7
30
0
11
-14.59
21
-40.7
31
0
0
LINE
8
0
6
CONTINUOUS
10
-14.59
20
-40.7
30
0
11
-27.09
21
-40.7
31
0
0
ARC
8
0
6
CONTINUOUS
10
-27.09
20
-40.2
30
0
40
0.5
50
180.0
51
270.0
0
LINE
8
0
6
CONTINUOUS
10
-27.59
20
-40.2
30
0
11
-27.59
21
10.0
31
0
0
LINE
8
0
6
CONTINUOUS
10
239.07
20
4.2
30
0
11
-15.59
21
4.2
31
0
0
ARC
8
0
6
CONTINUOUS
10
-15.589999999999998
20
-1.9999999999999996
30
0
40
6.2
50
90.00000000000003
51
180.0
0
LINE
8
0
6
CONTINUOUS
10
-21.79
20
-2.0
30
0
11
-21.79
21
-40.7
31
0
0
LINE
8
0
6
CONTINUOUS
10
-21.79
20
-40.7
30
0
11
-17.59
21
-40.7
31
0
0
LINE
8
0
6
CONTINUOUS
10
-17.59
20
-40.7
30
0
11
-17.59
21
-2.0
31
0
0
ARC
8
0
6
CONTINUOUS
10
-15.59
20
-2.0
30
0
40
2.0
50
90.0
51
180.0
0
LINE
8
0
6
CONTINUOUS
10
-15.59
20
-0.0
30
0
11
239.07
21
-0.0
31
0
0
LINE
8
0
6
CONTINUOUS
10
239.07
20
-0.0
30
0
11
239.07
21
4.2
31
0
0
LINE
8
0
6
CONTINUOUS
10
-27.59
20
-2.0
30
0
11
-27.59
21
-40.2
31
0
0
ARC
8
0
6
CONTINUOUS
10
-27.09
20
-40.2
30
0
40
0.5
50
180.0
51
270.0
0
LINE
8
0
6
CONTINUOUS
10
-27.09
20
-40.7
30
0
11
-24.39
21
-40.7
31
0
0
LINE
8
0
6
CONTINUOUS
10
-24.39
20
-40.7
30
0
11
-24.39
21
-2.0
31
0
0
ARC
8
0
6
CONTINUOUS
10
-15.59
20
-2.0000000000000013
30
0
40
8.8
50
90.0
51
180.0
0
LINE
8
0
6
CONTINUOUS
10
-15.59
20
6.8
30
0
11
239.07
21
6.8
31
0
0
LINE
8
0
6
CONTINUOUS
10
239.07
20
6.8
30
0
11
239.07
21
10.0
31
0
0
LINE
8
0
6
CONTINUOUS
10
239.07
20
10.0
30
0
11
-15.59
21
10.0
31
0
0
ARC
8
0
6
CONTINUOUS
10
-15.59
20
-2.000000000000001
30
0
40
12.0
50
90.0
51
180.0
0
LINE
8
0
6
CONTINUOUS
10
239.07
20
1.08
30
0
11
239.07
21
0.26
31
0
0
LINE
8
0
6
CONTINUOUS
10
239.07
20
0.26
30
0
11
242.58
21
-0.49
31
0
0
ARC
8
0
6
CONTINUOUS
10
241.69763493517937
20
-4.596267391729872
30
0
40
4.2
50
34.95415472996138
51
77.87255396279264
0
LINE
8
0
6
CONTINUOUS
10
245.14
20
-2.19
30
0
11
260.69
21
-24.39
31
0
0
ARC
8
0
6
CONTINUOUS
10
257.246293628952
20
-26.794347402103853
30
0
40
4.2
50
331.0085440508263
51
34.92220405955252
0
LINE
8
0
6
CONTINUOUS
10
260.92
20
-28.83
30
0
11
258.21
21
-33.73
31
0
0
ARC
8
0
6
CONTINUOUS
10
256.20033786647605
20
-32.61140350926699
30
0
40
2.3
50
267.9982794782465
51
330.89928394830224
0
LINE
8
0
6
CONTINUOUS
10
256.12
20
-34.91
30
0
11
251.22
21
-34.74
31
0
0
ARC
8
0
6
CONTINUOUS
10
251.25952613849068
20
-33.74078146315433
30
0
40
1.0
50
178.23607344625051
51
267.73472897800747
0
LINE
8
0
6
CONTINUOUS
10
250.26
20
-33.71
30
0
11
250.53
21
-25.91
31
0
0
LINE
8
0
6
CONTINUOUS
10
250.53
20
-25.91
30
0
11
249.73
21
-25.89
31
0
0
LINE
8
0
6
CONTINUOUS
10
249.73
20
-25.89
30
0
11
249.46
21
-33.68
31
0
0
ARC
8
0
6
CONTINUOUS
10
251.25895516959562
20
-33.741321266989004
30
0
40
1.8
50
178.047705690001
51
267.8045515748479
0
LINE
8
0
6
CONTINUOUS
10
251.19
20
-35.54
30
0
11
256.09
21
-35.71
31
0
0
ARC
8
0
6
CONTINUOUS
10
256.2015033670446
20
-32.61200597173951
30
0
40
3.1
50
267.93869332249324
51
330.89250434369785
0
LINE
8
0
6
CONTINUOUS
10
258.91
20
-34.12
30
0
11
261.62
21
-29.22
31
0
0
ARC
8
0
6
CONTINUOUS
10
257.2495522139585
20
-26.791175973956733
30
0
40
5.0
50
330.9374074779977
51
34.90624022296746
0
LINE
8
0
6
CONTINUOUS
10
261.35
20
-23.93
30
0
11
245.8
21
-1.73
31
0
0
ARC
8
0
6
CONTINUOUS
10
241.6990384626599
20
-4.590439558749143
30
0
40
5.0
50
34.89595089790466
51
77.98356215342349
0
LINE
8
0
6
CONTINUOUS
10
242.74
20
0.3
30
0
11
239.07
21
1.08
31
0
0
ENDSEC
0
EOF