0
SECTION
2
HEADER
0
ENDSEC
0
SECTION
2
TABLES
0
TABLE
2
LTYPE
70
2
0
LTYPE
2
CONTINUOUS
70
0
3
Solid line
72
65
73
0
40
0.0
0
ENDTAB
0
TABLE
2
LAYER
70
1
0
LAYER
2
0
70
0
62
7
6
CONTINUOUS
0
ENDTAB
0
ENDSEC
0
SECTION
2
ENTITIES
0
LINE
8
0
6
CONTINUOUS
10
0.41
20
-47.85
30
0
11
0.41
21
18.0
31
0
0
LINE
8
0
6
CONTINUOUS
10
-18.55
20
-0.0
30
0
11
54.73
21
-0.0
31
0
0
LINE
8
0
6
CONTINUOUS
10
2.31
20
16.8
30
0
11
2.31
21
18.0
31
0
0
LINE
8
0
6
CONTINUOUS
10
2.31
20
18.0
30
0
11
-4.36
21
18.0
31
0
0
ARC
8
0
6
CONTINUOUS
10
-4.393652914852649
20
11.930093288911113
30
0
40
6.07
50
89.68234269071695
51
126.33311840318768
0
ARC
8
0
6
CONTINUOUS
10
19.92042349745204
20
-9.699016953742404
30
0
40
38.5
50
136.46436125096866
51
213.53821640851328
0
ARC
8
0
6
CONTINUOUS
10
-7.776702329893224
20
-26.781463790077208
30
0
40
6.07
50
223.6331893522246
51
268.7416790941567
0
ARC
8
0
6
CONTINUOUS
10
-7.778166344566226
20
-26.781431809125408
30
0
40
6.07
50
268.75550147859565
51
306.3544378597253
0
LINE
8
0
6
CONTINUOUS
10
-4.18
20
-31.67
30
0
11
0.19
21
-27.09
31
0
0
LINE
8
0
6
CONTINUOUS
10
0.19
20
-27.09
30
0
11
-0.81
21
-26.43
31
0
0
LINE
8
0
6
CONTINUOUS
10
-0.81
20
-26.43
30
0
11
-4.89
21
-30.71
31
0
0
LINE
8
0
6
CONTINUOUS
10
-4.89
20
-30.71
30
0
11
-6.63
21
-31.52
31
0
0
ARC
8
0
6
CONTINUOUS
10
-6.9900049200333845
20
-30.06384188442609
30
0
40
1.5
50
179.8532506642249
51
283.88673395220366
0
LINE
8
0
6
CONTINUOUS
10
-8.49
20
-30.06
30
0
11
-8.49
21
-28.33
31
0
0
LINE
8
0
6
CONTINUOUS
10
-8.49
20
-28.33
30
0
11
-9.69
21
-28.33
31
0
0
LINE
8
0
6
CONTINUOUS
10
-9.69
20
-28.33
30
0
11
-9.61
21
-29.96
31
0
0
ARC
8
0
6
CONTINUOUS
10
-10.439993368531123
20
-29.95668214009404
30
0
40
0.83
50
226.6262170223675
51
359.7709640049286
0
ARC
8
0
6
CONTINUOUS
10
19.915241128830424
20
-9.705277246539694
30
0
40
37.3
50
164.91836097399485
51
213.99412196064532
0
LINE
8
0
6
CONTINUOUS
10
-16.1
20
-0.0
30
0
11
-9.79
21
-0.0
31
0
0
LINE
8
0
6
CONTINUOUS
10
-9.79
20
-0.0
30
0
11
-9.79
21
-4.0
31
0
0
LINE
8
0
6
CONTINUOUS
10
-9.79
20
-4.0
30
0
11
-8.59
21
-4.0
31
0
0
LINE
8
0
6
CONTINUOUS
10
-8.59
20
-4.0
30
0
11
-8.59
21
-0.0
31
0
0
LINE
8
0
6
CONTINUOUS
10
-8.59
20
-0.0
30
0
11
-0.88
21
-0.0
31
0
0
LINE
8
0
6
CONTINUOUS
10
-0.88
20
-0.0
30
0
11
-0.88
21
-8.0
31
0
0
LINE
8
0
6
CONTINUOUS
10
-0.88
20
-8.0
30
0
11
0.41
21
-8.0
31
0
0
LINE
8
0
6
CONTINUOUS
10
0.41
20
-8.0
30
0
11
0.41
21
-0.0
31
0
0
LINE
8
0
6
CONTINUOUS
10
0.41
20
-0.0
30
0
11
35.38
21
-0.0
31
0
0
ARC
8
0
6
CONTINUOUS
10
34.68932598908835
20
0.7641134802182301
30
0
40
1.03
50
312.1100914580046
51
45.598382865645654
0
LINE
8
0
6
CONTINUOUS
10
35.41
20
1.5
30
0
11
-15.66
21
1.5
31
0
0
ARC
8
0
6
CONTINUOUS
10
19.91888393985153
20
-9.69968828113421
30
0
40
37.3
50
136.63947053643713
51
162.5267956607127
0
ARC
8
0
6
CONTINUOUS
10
-4.393409921003868
20
11.930056265663987
30
0
40
4.87
50
89.72458011543713
51
125.19085361421006
0
LINE
8
0
6
CONTINUOUS
10
-4.37
20
16.8
30
0
11
2.31
21
16.8
31
0
0
LINE
8
0
6
CONTINUOUS
10
2.31
20
16.8
30
0
11
2.31
21
18.0
31
0
0
LINE
8
0
6
CONTINUOUS
10
2.31
20
18.0
30
0
11
-4.36
21
18.0
31
0
0
ARC
8
0
6
CONTINUOUS
10
-4.393652914852649
20
11.930093288911113
30
0
40
6.07
50
89.68234269071695
51
126.33311840318768
0
ARC
8
0
6
CONTINUOUS
10
19.92042349745204
20
-9.699016953742404
30
0
40
38.5
50
136.46436125096866
51
213.53821640851328
0
ARC
8
0
6
CONTINUOUS
10
-7.776702329893224
20
-26.781463790077208
30
0
40
6.07
50
223.6331893522246
51
268.7416790941567
0
ARC
8
0
6
CONTINUOUS
10
-7.778166344566226
20
-26.781431809125408
30
0
40
6.07
50
268.75550147859565
51
306.3544378597253
0
LINE
8
0
6
CONTINUOUS
10
-4.18
20
-31.67
30
0
11
0.19
21
-27.09
31
0
0
LINE
8
0
6
CONTINUOUS
10
0.19
20
-27.09
30
0
11
-0.81
21
-26.43
31
0
0
LINE
8
0
6
CONTINUOUS
10
-0.81
20
-26.43
30
0
11
-4.89
21
-30.71
31
0
0
LINE
8
0
6
CONTINUOUS
10
-4.89
20
-30.71
30
0
11
-6.63
21
-31.52
31
0
0
ARC
8
0
6
CONTINUOUS
10
-6.9900049200333845
20
-30.06384188442609
30
0
40
1.5
50
179.8532506642249
51
283.88673395220366
0
LINE
8
0
6
CONTINUOUS
10
-8.49
20
-30.06
30
0
11
-8.49
21
-28.33
31
0
0
LINE
8
0
6
CONTINUOUS
10
-8.49
20
-28.33
30
0
11
-9.69
21
-28.33
31
0
0
LINE
8
0
6
CONTINUOUS
10
-9.69
20
-28.33
30
0
11
-9.61
21
-29.96
31
0
0
ARC
8
0
6
CONTINUOUS
10
-10.439993368531123
20
-29.95668214009404
30
0
40
0.83
50
226.6262170223675
51
359.7709640049286
0
ARC
8
0
6
CONTINUOUS
10
19.915241128830424
20
-9.705277246539694
30
0
40
37.3
50
164.91836097399485
51
213.99412196064532
0
LINE
8
0
6
CONTINUOUS
10
-16.1
20
-0.0
30
0
11
-9.79
21
-0.0
31
0
0
LINE
8
0
6
CONTINUOUS
10
-9.79
20
-0.0
30
0
11
-9.79
21
-4.0
31
0
0
LINE
8
0
6
CONTINUOUS
10
-9.79
20
-4.0
30
0
11
-8.59
21
-4.0
31
0
0
LINE
8
0
6
CONTINUOUS
10
-8.59
20
-4.0
30
0
11
-8.59
21
-0.0
31
0
0
LINE
8
0
6
CONTINUOUS
10
-8.59
20
-0.0
30
0
11
-0.88
21
-0.0
31
0
0
LINE
8
0
6
CONTINUOUS
10
-0.88
20
-0.0
30
0
11
-0.88
21
-8.0
31
0
0
LINE
8
0
6
CONTINUOUS
10
-0.88
20
-8.0
30
0
11
0.41
21
-8.0
31
0
0
LINE
8
0
6
CONTINUOUS
10
0.41
20
-8.0
30
0
11
0.41
21
-0.0
31
0
0
LINE
8
0
6
CONTINUOUS
10
0.41
20
-0.0
30
0
11
35.38
21
-0.0
31
0
0
ARC
8
0
6
CONTINUOUS
10
34.68932598908835
20
0.7641134802182301
30
0
40
1.03
50
312.1100914580046
51
45.598382865645654
0
LINE
8
0
6
CONTINUOUS
10
35.41
20
1.5
30
0
11
-15.66
21
1.5
31
0
0
ARC
8
0
6
CONTINUOUS
10
19.91888393985153
20
-9.69968828113421
30
0
40
37.3
50
136.63947053643713
51
162.5267956607127
0
ARC
8
0
6
CONTINUOUS
10
-4.393409921003868
20
11.930056265663987
30
0
40
4.87
50
89.72458011543713
51
125.19085361421006
0
LINE
8
0
6
CONTINUOUS
10
-4.37
20
16.8
30
0
11
2.31
21
16.8
31
0
0
ENDSEC
0
EOF