0
SECTION
2
HEADER
0
ENDSEC
0
SECTION
2
TABLES
0
TABLE
2
LTYPE
70
2
0
LTYPE
2
CONTINUOUS
70
0
3
Solid line
72
65
73
0
40
0.0
0
ENDTAB
0
TABLE
2
LAYER
70
1
0
LAYER
2
0
70
0
62
7
6
CONTINUOUS
0
ENDTAB
0
ENDSEC
0
SECTION
2
ENTITIES
0
LINE
8
0
6
CONTINUOUS
10
192.51
20
4.53
30
0
11
-29.59
21
12.28
31
0
0
LINE
8
0
6
CONTINUOUS
10
192.51
20
7.24
30
0
11
-29.59
21
15.0
31
0
0
LINE
8
0
6
CONTINUOUS
10
192.51
20
10.24
30
0
11
-29.59
21
18.0
31
0
0
LINE
8
0
6
CONTINUOUS
10
192.51
20
12.24
30
0
11
-29.59
21
20.0
31
0
0
LINE
8
0
6
CONTINUOUS
10
162.15
20
20.0
30
0
11
162.15
21
-39.06
31
0
0
LINE
8
0
6
CONTINUOUS
10
192.51
20
20.0
30
0
11
-29.59
21
20.0
31
0
0
LINE
8
0
6
CONTINUOUS
10
192.51
20
20.0
30
0
11
192.51
21
-39.06
31
0
0
LINE
8
0
6
CONTINUOUS
10
-29.59
20
20.0
30
0
11
-29.59
21
-39.06
31
0
0
LINE
8
0
6
CONTINUOUS
10
192.51
20
-30.0
30
0
11
-29.59
21
-30.0
31
0
0
LINE
8
0
6
CONTINUOUS
10
0.41
20
-39.06
30
0
11
0.41
21
20.0
31
0
0
LINE
8
0
6
CONTINUOUS
10
-29.59
20
-0.0
30
0
11
192.51
21
0.0
31
0
0
LINE
8
0
6
CONTINUOUS
10
169.42
20
5.33
30
0
11
-12.26
21
11.68
31
0
0
ARC
8
0
6
CONTINUOUS
10
-12.58000168429617
20
2.4855669602716874
30
0
40
9.2
50
88.00669076221781
51
180.0346699291032
0
LINE
8
0
6
CONTINUOUS
10
-21.79
20
2.48
30
0
11
-21.79
21
-28.0
31
0
0
LINE
8
0
6
CONTINUOUS
10
-21.79
20
-28.0
30
0
11
-17.59
21
-28.0
31
0
0
LINE
8
0
6
CONTINUOUS
10
-17.59
20
-28.0
30
0
11
-17.59
21
2.48
31
0
0
ARC
8
0
6
CONTINUOUS
10
-12.580001050465434
20
2.4832410882821914
30
0
40
5.0
50
87.93689410025759
51
180.03714013852073
0
LINE
8
0
6
CONTINUOUS
10
-12.4
20
7.48
30
0
11
169.27
21
1.14
31
0
0
LINE
8
0
6
CONTINUOUS
10
169.27
20
1.14
30
0
11
169.42
21
5.33
31
0
0
LINE
8
0
6
CONTINUOUS
10
169.26
20
0.72
30
0
11
169.23
21
-0.21
31
0
0
LINE
8
0
6
CONTINUOUS
10
169.23
20
-0.21
30
0
11
172.38
21
-0.88
31
0
0
ARC
8
0
6
CONTINUOUS
10
171.50695744914012
20
-4.988259571203855
30
0
40
4.2
50
30.922042678749687
51
78.0026017373018
0
LINE
8
0
6
CONTINUOUS
10
175.11
20
-2.83
30
0
11
189.07
21
-26.06
31
0
0
ARC
8
0
6
CONTINUOUS
10
185.4685851486235
20
-28.22097456446965
30
0
40
4.2
50
326.97492251618115
51
30.965226402238635
0
LINE
8
0
6
CONTINUOUS
10
188.99
20
-30.51
30
0
11
185.95
21
-35.21
31
0
0
ARC
8
0
6
CONTINUOUS
10
184.01718056464208
20
-33.96332079896125
30
0
40
2.3
50
263.83051831950525
51
327.1777606541219
0
LINE
8
0
6
CONTINUOUS
10
183.77
20
-36.25
30
0
11
178.9
21
-35.73
31
0
0
ARC
8
0
6
CONTINUOUS
10
179.00935190155795
20
-34.735996900595545
30
0
40
1.0
50
177.9370838434828
51
263.72204310683435
0
LINE
8
0
6
CONTINUOUS
10
177.99
20
-34.81
30
0
11
178.82
21
-26.88
31
0
0
LINE
8
0
6
CONTINUOUS
10
178.82
20
-26.88
30
0
11
178.03
21
-26.79
31
0
0
LINE
8
0
6
CONTINUOUS
10
178.03
20
-26.79
30
0
11
177.19
21
-34.78
31
0
0
ARC
8
0
6
CONTINUOUS
10
179.0086417881574
20
-34.739912215627186
30
0
40
1.8
50
177.77406516320252
51
263.9842989352903
0
LINE
8
0
6
CONTINUOUS
10
178.82
20
-36.53
30
0
11
183.69
21
-37.04
31
0
0
ARC
8
0
6
CONTINUOUS
10
184.00711191953033
20
-33.95626200359178
30
0
40
3.1
50
264.12870577336747
51
327.10226286791624
0
LINE
8
0
6
CONTINUOUS
10
186.61
20
-35.64
30
0
11
189.66
21
-30.95
31
0
0
ARC
8
0
6
CONTINUOUS
10
185.47106107582957
20
-28.220020020298673
30
0
40
5.0
50
326.9072471834781
51
30.93090444320062
0
LINE
8
0
6
CONTINUOUS
10
189.76
20
-25.65
30
0
11
175.79
21
-2.42
31
0
0
ARC
8
0
6
CONTINUOUS
10
171.50044252434608
20
-4.988987478183114
30
0
40
5.0
50
30.917111745192134
51
75.88248439321983
0
LINE
8
0
6
CONTINUOUS
10
172.72
20
-0.14
30
0
11
169.26
21
0.72
31
0
0
LINE
8
0
6
CONTINUOUS
10
-27.59
20
2.39
30
0
11
-27.59
21
-27.5
31
0
0
ARC
8
0
6
CONTINUOUS
10
-27.09
20
-27.5
30
0
40
0.5
50
180.0
51
270.0
0
LINE
8
0
6
CONTINUOUS
10
-27.09
20
-28.0
30
0
11
-24.39
21
-28.0
31
0
0
LINE
8
0
6
CONTINUOUS
10
-24.39
20
-28.0
30
0
11
-24.39
21
2.59
31
0
0
ARC
8
0
6
CONTINUOUS
10
-12.590002602776506
20
2.597837443386161
30
0
40
11.8
50
87.91162793279929
51
180.0380552933234
0
LINE
8
0
6
CONTINUOUS
10
-12.16
20
14.39
30
0
11
169.48
21
8.04
31
0
0
LINE
8
0
6
CONTINUOUS
10
169.48
20
8.04
30
0
11
169.58
21
11.04
31
0
0
LINE
8
0
6
CONTINUOUS
10
169.58
20
11.04
30
0
11
-12.05
21
17.39
31
0
0
ARC
8
0
6
CONTINUOUS
10
-12.580000013387625
20
2.3893662580326795
30
0
40
15.0
50
87.97512760013437
51
179.99757928399745
0
ARC
8
0
6
CONTINUOUS
10
-26.090000890274464
20
16.371634265153936
30
0
40
1.5
50
87.32519146919519
51
180.06242434296715
0
LINE
8
0
6
CONTINUOUS
10
-26.02
20
17.87
30
0
11
190.48
21
10.31
31
0
0
LINE
8
0
6
CONTINUOUS
10
190.48
20
10.31
30
0
11
190.48
21
-36.56
31
0
0
ARC
8
0
6
CONTINUOUS
10
189.98
20
-36.56
30
0
40
0.5
50
270.0
51
0.0
0
LINE
8
0
6
CONTINUOUS
10
189.98
20
-37.06
30
0
11
177.48
21
-37.05
31
0
0
LINE
8
0
6
CONTINUOUS
10
177.48
20
-37.05
30
0
11
177.48
21
-39.05
31
0
0
LINE
8
0
6
CONTINUOUS
10
177.48
20
-39.05
30
0
11
190.04
21
-39.06
31
0
0
ARC
8
0
6
CONTINUOUS
10
190.01000000648042
20
-36.560180006402696
30
0
40
2.5
50
270.68756570787957
51
0.004125442867438906
0
LINE
8
0
6
CONTINUOUS
10
192.51
20
-36.56
30
0
11
192.51
21
10.31
31
0
0
ARC
8
0
6
CONTINUOUS
10
190.48000447149767
20
10.314229180850319
30
0
40
2.0
50
359.87884280294725
51
86.27327522794985
0
LINE
8
0
6
CONTINUOUS
10
190.61
20
12.31
30
0
11
-25.96
21
19.87
31
0
0
ARC
8
0
6
CONTINUOUS
10
-26.090000833278562
20
16.372415149943198
30
0
40
3.5
50
87.87136776736286
51
180.03953654560516
0
LINE
8
0
6
CONTINUOUS
10
-29.59
20
16.37
30
0
11
-29.59
21
-27.5
31
0
0
ARC
8
0
6
CONTINUOUS
10
-27.09
20
-27.5
30
0
40
2.5
50
180.0
51
270.0
0
LINE
8
0
6
CONTINUOUS
10
-27.09
20
-30.0
30
0
11
-14.59
21
-30.0
31
0
0
LINE
8
0
6
CONTINUOUS
10
-14.59
20
-30.0
30
0
11
-14.59
21
-28.0
31
0
0
LINE
8
0
6
CONTINUOUS
10
-14.59
20
-28.0
30
0
11
-27.09
21
-28.0
31
0
0
ARC
8
0
6
CONTINUOUS
10
-27.09
20
-27.5
30
0
40
0.5
50
180.0
51
270.0
0
LINE
8
0
6
CONTINUOUS
10
-27.59
20
-27.5
30
0
11
-27.59
21
16.37
31
0
0
ENDSEC
0
EOF