0
SECTION
2
HEADER
0
ENDSEC
0
SECTION
2
TABLES
0
TABLE
2
LTYPE
70
2
0
LTYPE
2
CONTINUOUS
70
0
3
Solid line
72
65
73
0
40
0.0
0
ENDTAB
0
TABLE
2
LAYER
70
1
0
LAYER
2
0
70
0
62
7
6
CONTINUOUS
0
ENDTAB
0
ENDSEC
0
SECTION
2
ENTITIES
0
LINE
8
0
6
CONTINUOUS
10
-29.59
20
-37.7
30
0
11
230.41
21
-37.7
31
0
0
LINE
8
0
6
CONTINUOUS
10
200.41
20
29.6
30
0
11
200.41
21
-42.7
31
0
0
LINE
8
0
6
CONTINUOUS
10
-29.59
20
27.3
30
0
11
230.41
21
27.3
31
0
0
LINE
8
0
6
CONTINUOUS
10
-29.59
20
-42.7
30
0
11
230.41
21
-42.7
31
0
0
LINE
8
0
6
CONTINUOUS
10
-29.59
20
12.0
30
0
11
230.41
21
12.0
31
0
0
LINE
8
0
6
CONTINUOUS
10
230.41
20
29.6
30
0
11
230.41
21
-42.7
31
0
0
LINE
8
0
6
CONTINUOUS
10
-29.59
20
29.6
30
0
11
-29.59
21
-42.7
31
0
0
LINE
8
0
6
CONTINUOUS
10
0.41
20
-42.7
30
0
11
0.41
21
29.6
31
0
0
LINE
8
0
6
CONTINUOUS
10
-29.59
20
-0.0
30
0
11
230.41
21
0.0
31
0
0
LINE
8
0
6
CONTINUOUS
10
-29.59
20
29.6
30
0
11
-29.59
21
-42.7
31
0
0
LINE
8
0
6
CONTINUOUS
10
-29.59
20
-42.7
30
0
11
-14.59
21
-42.7
31
0
0
LINE
8
0
6
CONTINUOUS
10
-14.59
20
-42.7
30
0
11
-14.59
21
-0.0
31
0
0
LINE
8
0
6
CONTINUOUS
10
-14.59
20
-0.0
30
0
11
209.77
21
0.0
31
0
0
LINE
8
0
6
CONTINUOUS
10
209.77
20
0.0
30
0
11
216.46
21
-9.55
31
0
0
LINE
8
0
6
CONTINUOUS
10
216.46
20
-9.55
30
0
11
215.48
21
-37.7
31
0
0
LINE
8
0
6
CONTINUOUS
10
215.48
20
-37.7
30
0
11
230.41
21
-37.7
31
0
0
LINE
8
0
6
CONTINUOUS
10
230.41
20
-37.7
30
0
11
230.41
21
12.0
31
0
0
LINE
8
0
6
CONTINUOUS
10
230.41
20
12.0
30
0
11
-4.45
21
12.0
31
0
0
LINE
8
0
6
CONTINUOUS
10
-4.45
20
12.0
30
0
11
-29.59
21
29.6
31
0
0
ARC
8
0
6
CONTINUOUS
10
-27.09000727354751
20
24.8026969417135
30
0
40
0.5
50
54.54843418921669
51
180.30904825413873
0
LINE
8
0
6
CONTINUOUS
10
-26.8
20
25.21
30
0
11
-5.73
21
10.45
31
0
0
ARC
8
0
6
CONTINUOUS
10
-4.299056885710675
20
12.499976049535206
30
0
40
2.5
50
235.08383475076946
51
269.7492014936977
0
LINE
8
0
6
CONTINUOUS
10
-4.31
20
10.0
30
0
11
228.41
21
10.0
31
0
0
LINE
8
0
6
CONTINUOUS
10
228.41
20
10.0
30
0
11
228.41
21
-35.7
31
0
0
LINE
8
0
6
CONTINUOUS
10
228.41
20
-35.7
30
0
11
215.41
21
-35.7
31
0
0
LINE
8
0
6
CONTINUOUS
10
215.41
20
-35.7
30
0
11
215.41
21
-37.7
31
0
0
LINE
8
0
6
CONTINUOUS
10
215.41
20
-37.7
30
0
11
227.91
21
-37.7
31
0
0
ARC
8
0
6
CONTINUOUS
10
227.91
20
-35.2
30
0
40
2.5
50
270.0
51
0.0
0
LINE
8
0
6
CONTINUOUS
10
230.41
20
-35.2
30
0
11
230.41
21
10.0
31
0
0
ARC
8
0
6
CONTINUOUS
10
228.41
20
10.0
30
0
40
2.0
50
0.0
51
90.0
0
LINE
8
0
6
CONTINUOUS
10
228.41
20
12.0
30
0
11
-4.45
21
12.0
31
0
0
LINE
8
0
6
CONTINUOUS
10
-4.45
20
12.0
30
0
11
-25.65
21
26.85
31
0
0
ARC
8
0
6
CONTINUOUS
10
-27.09000814474074
20
24.806381507452944
30
0
40
2.5
50
54.83007872696057
51
180.1462535364203
0
LINE
8
0
6
CONTINUOUS
10
-29.59
20
24.8
30
0
11
-29.59
21
-40.2
31
0
0
ARC
8
0
6
CONTINUOUS
10
-27.09
20
-40.2
30
0
40
2.5
50
180.0
51
270.0
0
LINE
8
0
6
CONTINUOUS
10
-27.09
20
-42.7
30
0
11
-14.59
21
-42.7
31
0
0
LINE
8
0
6
CONTINUOUS
10
-14.59
20
-42.7
30
0
11
-14.59
21
-40.7
31
0
0
LINE
8
0
6
CONTINUOUS
10
-14.59
20
-40.7
30
0
11
-27.09
21
-40.7
31
0
0
ARC
8
0
6
CONTINUOUS
10
-27.09
20
-40.2
30
0
40
0.5
50
180.0
51
270.0
0
LINE
8
0
6
CONTINUOUS
10
-27.59
20
-40.2
30
0
11
-27.59
21
24.8
31
0
0
LINE
8
0
6
CONTINUOUS
10
205.23
20
4.2
30
0
11
-15.59
21
4.2
31
0
0
ARC
8
0
6
CONTINUOUS
10
-15.589999999999998
20
-1.9999999999999996
30
0
40
6.2
50
90.00000000000003
51
180.0
0
LINE
8
0
6
CONTINUOUS
10
-21.79
20
-2.0
30
0
11
-21.79
21
-40.7
31
0
0
LINE
8
0
6
CONTINUOUS
10
-21.79
20
-40.7
30
0
11
-17.59
21
-40.7
31
0
0
LINE
8
0
6
CONTINUOUS
10
-17.59
20
-40.7
30
0
11
-17.59
21
-2.0
31
0
0
ARC
8
0
6
CONTINUOUS
10
-15.59
20
-2.0
30
0
40
2.0
50
90.0
51
180.0
0
LINE
8
0
6
CONTINUOUS
10
-15.59
20
-0.0
30
0
11
205.23
21
-0.0
31
0
0
LINE
8
0
6
CONTINUOUS
10
205.23
20
-0.0
30
0
11
205.23
21
4.2
31
0
0
LINE
8
0
6
CONTINUOUS
10
-27.59
20
-2.0
30
0
11
-27.59
21
-40.2
31
0
0
ARC
8
0
6
CONTINUOUS
10
-27.09
20
-40.2
30
0
40
0.5
50
180.0
51
270.0
0
LINE
8
0
6
CONTINUOUS
10
-27.09
20
-40.7
30
0
11
-24.39
21
-40.7
31
0
0
LINE
8
0
6
CONTINUOUS
10
-24.39
20
-40.7
30
0
11
-24.39
21
-2.0
31
0
0
ARC
8
0
6
CONTINUOUS
10
-15.59
20
-2.0000000000000013
30
0
40
8.8
50
90.0
51
180.0
0
LINE
8
0
6
CONTINUOUS
10
-15.59
20
6.8
30
0
11
205.23
21
6.8
31
0
0
LINE
8
0
6
CONTINUOUS
10
205.23
20
6.8
30
0
11
205.23
21
10.0
31
0
0
LINE
8
0
6
CONTINUOUS
10
205.23
20
10.0
30
0
11
-15.59
21
10.0
31
0
0
ARC
8
0
6
CONTINUOUS
10
-15.59
20
-2.000000000000001
30
0
40
12.0
50
90.0
51
180.0
0
LINE
8
0
6
CONTINUOUS
10
205.23
20
1.08
30
0
11
205.23
21
0.26
31
0
0
LINE
8
0
6
CONTINUOUS
10
205.23
20
0.26
30
0
11
208.74
21
-0.49
31
0
0
ARC
8
0
6
CONTINUOUS
10
207.8576349351794
20
-4.59626739172988
30
0
40
4.2
50
34.954154729961466
51
77.87255396279305
0
LINE
8
0
6
CONTINUOUS
10
211.3
20
-2.19
30
0
11
226.85
21
-24.39
31
0
0
ARC
8
0
6
CONTINUOUS
10
223.406293628952
20
-26.794347402103853
30
0
40
4.2
50
331.0085440508263
51
34.92220405955252
0
LINE
8
0
6
CONTINUOUS
10
227.08
20
-28.83
30
0
11
224.37
21
-33.73
31
0
0
ARC
8
0
6
CONTINUOUS
10
222.3603378664761
20
-32.61140350926699
30
0
40
2.3
50
267.9982794782451
51
330.8992839483019
0
LINE
8
0
6
CONTINUOUS
10
222.28
20
-34.91
30
0
11
217.38
21
-34.74
31
0
0
ARC
8
0
6
CONTINUOUS
10
217.40953670838738
20
-33.740436303751665
30
0
40
1.0
50
178.25585889408288
51
268.3074251026077
0
LINE
8
0
6
CONTINUOUS
10
216.41
20
-33.71
30
0
11
216.69
21
-25.91
31
0
0
LINE
8
0
6
CONTINUOUS
10
216.69
20
-25.91
30
0
11
215.89
21
-25.89
31
0
0
LINE
8
0
6
CONTINUOUS
10
215.89
20
-25.89
30
0
11
215.62
21
-33.68
31
0
0
ARC
8
0
6
CONTINUOUS
10
217.41895516959565
20
-33.741321266989004
30
0
40
1.8
50
178.04770569000104
51
267.80455157484704
0
LINE
8
0
6
CONTINUOUS
10
217.35
20
-35.54
30
0
11
222.25
21
-35.71
31
0
0
ARC
8
0
6
CONTINUOUS
10
222.3615033670446
20
-32.6120059717395
30
0
40
3.1
50
267.93869332249375
51
330.8925043436975
0
LINE
8
0
6
CONTINUOUS
10
225.07
20
-34.12
30
0
11
227.78
21
-29.22
31
0
0
ARC
8
0
6
CONTINUOUS
10
223.4051291752871
20
-26.799151952914862
30
0
40
5.0
50
331.0419182054894
51
35.01776481626417
0
LINE
8
0
6
CONTINUOUS
10
227.5
20
-23.93
30
0
11
211.96
21
-1.73
31
0
0
ARC
8
0
6
CONTINUOUS
10
207.8590384626599
20
-4.590439558749143
30
0
40
5.0
50
34.89595089790466
51
77.98356215342349
0
LINE
8
0
6
CONTINUOUS
10
208.9
20
0.3
30
0
11
205.23
21
1.08
31
0
0
ENDSEC
0
EOF