0
SECTION
2
HEADER
0
ENDSEC
0
SECTION
2
TABLES
0
TABLE
2
LTYPE
70
2
0
LTYPE
2
CONTINUOUS
70
0
3
Solid line
72
65
73
0
40
0.0
0
ENDTAB
0
TABLE
2
LAYER
70
1
0
LAYER
2
0
70
0
62
7
6
CONTINUOUS
0
ENDTAB
0
ENDSEC
0
SECTION
2
ENTITIES
0
LINE
8
0
6
CONTINUOUS
10
-14.59
20
29.6
30
0
11
-14.59
21
-49.31
31
0
0
LINE
8
0
6
CONTINUOUS
10
200.41
20
29.6
30
0
11
200.41
21
-49.31
31
0
0
LINE
8
0
6
CONTINUOUS
10
-29.59
20
27.3
30
0
11
242.73
21
27.3
31
0
0
LINE
8
0
6
CONTINUOUS
10
-29.59
20
-42.7
30
0
11
242.73
21
-42.7
31
0
0
LINE
8
0
6
CONTINUOUS
10
-29.59
20
12.0
30
0
11
242.73
21
12.0
31
0
0
LINE
8
0
6
CONTINUOUS
10
220.41
20
29.6
30
0
11
220.41
21
-49.31
31
0
0
LINE
8
0
6
CONTINUOUS
10
-29.59
20
29.6
30
0
11
-29.59
21
-49.31
31
0
0
LINE
8
0
6
CONTINUOUS
10
0.41
20
-49.31
30
0
11
0.41
21
29.6
31
0
0
LINE
8
0
6
CONTINUOUS
10
-29.59
20
-0.0
30
0
11
242.73
21
0.0
31
0
0
LINE
8
0
6
CONTINUOUS
10
-29.59
20
29.6
30
0
11
-29.59
21
-42.7
31
0
0
LINE
8
0
6
CONTINUOUS
10
-29.59
20
-42.7
30
0
11
-14.59
21
-42.7
31
0
0
LINE
8
0
6
CONTINUOUS
10
-14.59
20
-42.7
30
0
11
-14.59
21
-0.0
31
0
0
LINE
8
0
6
CONTINUOUS
10
-14.59
20
-0.0
30
0
11
214.31
21
0.0
31
0
0
LINE
8
0
6
CONTINUOUS
10
214.31
20
0.0
30
0
11
220.41
21
-9.39
31
0
0
LINE
8
0
6
CONTINUOUS
10
220.41
20
-9.39
30
0
11
220.41
21
-18.42
31
0
0
LINE
8
0
6
CONTINUOUS
10
220.41
20
-18.42
30
0
11
219.17
21
-36.15
31
0
0
LINE
8
0
6
CONTINUOUS
10
219.17
20
-36.15
30
0
11
222.05
21
-36.35
31
0
0
LINE
8
0
6
CONTINUOUS
10
222.05
20
-36.35
30
0
11
223.53
21
-40.41
31
0
0
LINE
8
0
6
CONTINUOUS
10
223.53
20
-40.41
30
0
11
237.63
21
-35.29
31
0
0
LINE
8
0
6
CONTINUOUS
10
237.63
20
-35.29
30
0
11
220.41
21
12.0
31
0
0
LINE
8
0
6
CONTINUOUS
10
220.41
20
12.0
30
0
11
-4.45
21
12.0
31
0
0
LINE
8
0
6
CONTINUOUS
10
-4.45
20
12.0
30
0
11
-29.59
21
29.6
31
0
0
ARC
8
0
6
CONTINUOUS
10
-27.09000727354751
20
24.8026969417135
30
0
40
0.5
50
54.54843418921669
51
180.30904825413873
0
LINE
8
0
6
CONTINUOUS
10
-26.8
20
25.21
30
0
11
-5.73
21
10.45
31
0
0
ARC
8
0
6
CONTINUOUS
10
-4.299056885710675
20
12.499976049535206
30
0
40
2.5
50
235.08383475076946
51
269.7492014936977
0
LINE
8
0
6
CONTINUOUS
10
-4.31
20
10.0
30
0
11
219.01
21
10.0
31
0
0
LINE
8
0
6
CONTINUOUS
10
219.01
20
10.0
30
0
11
235.06
21
-34.09
31
0
0
LINE
8
0
6
CONTINUOUS
10
235.06
20
-34.09
30
0
11
222.84
21
-38.54
31
0
0
LINE
8
0
6
CONTINUOUS
10
222.84
20
-38.54
30
0
11
223.53
21
-40.41
31
0
0
LINE
8
0
6
CONTINUOUS
10
223.53
20
-40.41
30
0
11
235.28
21
-36.14
31
0
0
ARC
8
0
6
CONTINUOUS
10
234.42310427796772
20
-33.79144092653329
30
0
40
2.5
50
290.0450133076188
51
20.15593800604904
0
LINE
8
0
6
CONTINUOUS
10
236.77
20
-32.93
30
0
11
221.01
21
10.35
31
0
0
ARC
8
0
6
CONTINUOUS
10
218.6587465107656
20
9.500525439249023
30
0
40
2.5
50
19.864069552334755
51
88.82527425186471
0
LINE
8
0
6
CONTINUOUS
10
218.71
20
12.0
30
0
11
-4.45
21
12.0
31
0
0
LINE
8
0
6
CONTINUOUS
10
-4.45
20
12.0
30
0
11
-25.65
21
26.85
31
0
0
ARC
8
0
6
CONTINUOUS
10
-27.09000814474074
20
24.806381507452944
30
0
40
2.5
50
54.83007872696057
51
180.1462535364203
0
LINE
8
0
6
CONTINUOUS
10
-29.59
20
24.8
30
0
11
-29.59
21
-40.2
31
0
0
ARC
8
0
6
CONTINUOUS
10
-27.09
20
-40.2
30
0
40
2.5
50
180.0
51
270.0
0
LINE
8
0
6
CONTINUOUS
10
-27.09
20
-42.7
30
0
11
-14.59
21
-42.7
31
0
0
LINE
8
0
6
CONTINUOUS
10
-14.59
20
-42.7
30
0
11
-14.59
21
-40.7
31
0
0
LINE
8
0
6
CONTINUOUS
10
-14.59
20
-40.7
30
0
11
-27.09
21
-40.7
31
0
0
ARC
8
0
6
CONTINUOUS
10
-27.09
20
-40.2
30
0
40
0.5
50
180.0
51
270.0
0
LINE
8
0
6
CONTINUOUS
10
-27.59
20
-40.2
30
0
11
-27.59
21
24.8
31
0
0
LINE
8
0
6
CONTINUOUS
10
210.11
20
4.2
30
0
11
-15.59
21
4.2
31
0
0
ARC
8
0
6
CONTINUOUS
10
-15.589999999999998
20
-1.9999999999999996
30
0
40
6.2
50
90.00000000000003
51
180.0
0
LINE
8
0
6
CONTINUOUS
10
-21.79
20
-2.0
30
0
11
-21.79
21
-40.7
31
0
0
LINE
8
0
6
CONTINUOUS
10
-21.79
20
-40.7
30
0
11
-17.59
21
-40.7
31
0
0
LINE
8
0
6
CONTINUOUS
10
-17.59
20
-40.7
30
0
11
-17.59
21
-2.0
31
0
0
ARC
8
0
6
CONTINUOUS
10
-15.59
20
-2.0
30
0
40
2.0
50
90.0
51
180.0
0
LINE
8
0
6
CONTINUOUS
10
-15.59
20
-0.0
30
0
11
210.11
21
-0.0
31
0
0
LINE
8
0
6
CONTINUOUS
10
210.11
20
-0.0
30
0
11
210.11
21
4.2
31
0
0
LINE
8
0
6
CONTINUOUS
10
210.11
20
0.62
30
0
11
210.11
21
-0.2
31
0
0
LINE
8
0
6
CONTINUOUS
10
210.11
20
-0.2
30
0
11
213.44
21
-0.91
31
0
0
ARC
8
0
6
CONTINUOUS
10
212.55665750987987
20
-5.016057238415999
30
0
40
4.2
50
32.97679614519812
51
77.85891535333496
0
LINE
8
0
6
CONTINUOUS
10
216.08
20
-2.73
30
0
11
230.85
21
-25.46
31
0
0
ARC
8
0
6
CONTINUOUS
10
227.3285851486235
20
-27.749025435530378
30
0
40
4.2
50
329.0347735977619
51
33.02507748381914
0
LINE
8
0
6
CONTINUOUS
10
230.93
20
-29.91
30
0
11
228.04
21
-34.71
31
0
0
ARC
8
0
6
CONTINUOUS
10
226.06848262457353
20
-33.52546665796544
30
0
40
2.3
50
266.04887544730116
51
329.0015760401875
0
LINE
8
0
6
CONTINUOUS
10
225.91
20
-35.82
30
0
11
221.02
21
-35.48
31
0
0
ARC
8
0
6
CONTINUOUS
10
221.08738489131898
20
-34.482272944928354
30
0
40
1.0
50
175.85545183774497
51
266.1362022808374
0
LINE
8
0
6
CONTINUOUS
10
220.09
20
-34.41
30
0
11
220.64
21
-26.63
31
0
0
LINE
8
0
6
CONTINUOUS
10
220.64
20
-26.63
30
0
11
219.84
21
-26.57
31
0
0
LINE
8
0
6
CONTINUOUS
10
219.84
20
-26.57
30
0
11
219.29
21
-34.36
31
0
0
ARC
8
0
6
CONTINUOUS
10
221.08574277281474
20
-34.4837250737871
30
0
40
1.8
50
176.05860079205897
51
266.3132495393604
0
LINE
8
0
6
CONTINUOUS
10
220.97
20
-36.28
30
0
11
225.86
21
-36.62
31
0
0
ARC
8
0
6
CONTINUOUS
10
226.07051719989238
20
-33.52715624246075
30
0
40
3.1
50
266.10611708954195
51
329.0813474205483
0
LINE
8
0
6
CONTINUOUS
10
228.73
20
-35.12
30
0
11
231.61
21
-30.32
31
0
0
ARC
8
0
6
CONTINUOUS
10
227.3258617494817
20
-27.74198536651824
30
0
40
5.0
50
328.9622360355048
51
32.98347135678524
0
LINE
8
0
6
CONTINUOUS
10
231.52
20
-25.02
30
0
11
216.76
21
-2.29
31
0
0
ARC
8
0
6
CONTINUOUS
10
212.565787734323
20
-5.011871317760032
30
0
40
5.0
50
32.981913359777295
51
78.0626241919552
0
LINE
8
0
6
CONTINUOUS
10
213.6
20
-0.12
30
0
11
210.11
21
0.62
31
0
0
LINE
8
0
6
CONTINUOUS
10
-27.59
20
-2.0
30
0
11
-27.59
21
-40.2
31
0
0
ARC
8
0
6
CONTINUOUS
10
-27.09
20
-40.2
30
0
40
0.5
50
180.0
51
270.0
0
LINE
8
0
6
CONTINUOUS
10
-27.09
20
-40.7
30
0
11
-24.39
21
-40.7
31
0
0
LINE
8
0
6
CONTINUOUS
10
-24.39
20
-40.7
30
0
11
-24.39
21
-2.0
31
0
0
ARC
8
0
6
CONTINUOUS
10
-15.59
20
-2.0000000000000013
30
0
40
8.8
50
90.0
51
180.0
0
LINE
8
0
6
CONTINUOUS
10
-15.59
20
6.8
30
0
11
210.11
21
6.8
31
0
0
LINE
8
0
6
CONTINUOUS
10
210.11
20
6.8
30
0
11
210.11
21
10.0
31
0
0
LINE
8
0
6
CONTINUOUS
10
210.11
20
10.0
30
0
11
-15.59
21
10.0
31
0
0
ARC
8
0
6
CONTINUOUS
10
-15.59
20
-2.000000000000001
30
0
40
12.0
50
90.0
51
180.0
0
ENDSEC
0
EOF