0
SECTION
2
HEADER
0
ENDSEC
0
SECTION
2
TABLES
0
TABLE
2
LTYPE
70
2
0
LTYPE
2
CONTINUOUS
70
0
3
Solid line
72
65
73
0
40
0.0
0
ENDTAB
0
TABLE
2
LAYER
70
1
0
LAYER
2
0
70
0
62
7
6
CONTINUOUS
0
ENDTAB
0
ENDSEC
0
SECTION
2
ENTITIES
0
LINE
8
0
6
CONTINUOUS
10
70.41
20
-34.0
30
0
11
70.41
21
41.0
31
0
0
LINE
8
0
6
CONTINUOUS
10
30.41
20
41.0
30
0
11
30.41
21
-34.0
31
0
0
LINE
8
0
6
CONTINUOUS
10
-9.59
20
-34.0
30
0
11
70.41
21
-34.0
31
0
0
LINE
8
0
6
CONTINUOUS
10
-9.59
20
41.0
30
0
11
70.41
21
41.0
31
0
0
LINE
8
0
6
CONTINUOUS
10
-9.59
20
-34.0
30
0
11
-9.59
21
41.0
31
0
0
LINE
8
0
6
CONTINUOUS
10
0.41
20
-34.0
30
0
11
0.41
21
41.0
31
0
0
LINE
8
0
6
CONTINUOUS
10
-9.59
20
-0.0
30
0
11
70.41
21
-0.0
31
0
0
LINE
8
0
6
CONTINUOUS
10
10.7
20
41.0
30
0
11
-9.59
21
41.0
31
0
0
LINE
8
0
6
CONTINUOUS
10
-9.59
20
41.0
30
0
11
-9.59
21
-34.0
31
0
0
LINE
8
0
6
CONTINUOUS
10
-9.59
20
-34.0
30
0
11
-7.67
21
-34.0
31
0
0
LINE
8
0
6
CONTINUOUS
10
-7.67
20
-34.0
30
0
11
-1.79
21
-28.12
31
0
0
LINE
8
0
6
CONTINUOUS
10
-1.79
20
-28.12
30
0
11
-2.78
21
-27.13
31
0
0
LINE
8
0
6
CONTINUOUS
10
-2.78
20
-27.13
30
0
11
-7.33
21
-31.68
31
0
0
LINE
8
0
6
CONTINUOUS
10
-7.33
20
-31.68
30
0
11
-8.19
21
-31.27
31
0
0
LINE
8
0
6
CONTINUOUS
10
-8.19
20
-31.27
30
0
11
-8.19
21
17.21
31
0
0
LINE
8
0
6
CONTINUOUS
10
-8.19
20
17.21
30
0
11
-5.44
21
17.61
31
0
0
LINE
8
0
6
CONTINUOUS
10
-5.44
20
17.61
30
0
11
-4.61
21
17.4
31
0
0
LINE
8
0
6
CONTINUOUS
10
-4.61
20
17.4
30
0
11
-0.05
21
21.95
31
0
0
LINE
8
0
6
CONTINUOUS
10
-0.05
20
21.95
30
0
11
1.36
21
21.95
31
0
0
LINE
8
0
6
CONTINUOUS
10
1.36
20
21.95
30
0
11
21.85
21
1.46
31
0
0
LINE
8
0
6
CONTINUOUS
10
21.85
20
1.46
30
0
11
25.39
21
-0.0
31
0
0
LINE
8
0
6
CONTINUOUS
10
25.39
20
-0.0
30
0
11
41.81
21
-0.0
31
0
0
LINE
8
0
6
CONTINUOUS
10
41.81
20
-0.0
30
0
11
41.81
21
1.4
31
0
0
LINE
8
0
6
CONTINUOUS
10
41.81
20
1.4
30
0
11
25.69
21
1.4
31
0
0
LINE
8
0
6
CONTINUOUS
10
25.69
20
1.4
30
0
11
23.36
21
2.37
31
0
0
LINE
8
0
6
CONTINUOUS
10
23.36
20
2.37
30
0
11
1.36
21
24.36
31
0
0
LINE
8
0
6
CONTINUOUS
10
1.36
20
24.36
30
0
11
-0.05
21
24.36
31
0
0
LINE
8
0
6
CONTINUOUS
10
-0.05
20
24.36
30
0
11
-3.38
21
21.02
31
0
0
LINE
8
0
6
CONTINUOUS
10
-3.38
20
21.02
30
0
11
-8.19
21
23.01
31
0
0
LINE
8
0
6
CONTINUOUS
10
-8.19
20
23.01
30
0
11
-8.19
21
39.6
31
0
0
LINE
8
0
6
CONTINUOUS
10
-8.19
20
39.6
30
0
11
10.12
21
39.6
31
0
0
LINE
8
0
6
CONTINUOUS
10
10.12
20
39.6
30
0
11
20.26
21
29.45
31
0
0
LINE
8
0
6
CONTINUOUS
10
20.26
20
29.45
30
0
11
18.78
21
27.97
31
0
0
LINE
8
0
6
CONTINUOUS
10
18.78
20
27.97
30
0
11
20.19
21
26.55
31
0
0
LINE
8
0
6
CONTINUOUS
10
20.19
20
26.55
30
0
11
20.81
21
27.17
31
0
0
LINE
8
0
6
CONTINUOUS
10
20.81
20
27.17
30
0
11
24.03
21
26.31
31
0
0
LINE
8
0
6
CONTINUOUS
10
24.03
20
26.31
30
0
11
24.71
21
26.99
31
0
0
LINE
8
0
6
CONTINUOUS
10
24.71
20
26.99
30
0
11
10.7
21
41.0
31
0
0
LINE
8
0
6
CONTINUOUS
10
8.09
20
37.08
30
0
11
3.42
21
28.68
31
0
0
LINE
8
0
6
CONTINUOUS
10
3.42
20
28.68
30
0
11
24.11
21
7.99
31
0
0
LINE
8
0
6
CONTINUOUS
10
24.11
20
7.99
30
0
11
25.17
21
9.06
31
0
0
LINE
8
0
6
CONTINUOUS
10
25.17
20
9.06
30
0
11
4.48
21
29.74
31
0
0
LINE
8
0
6
CONTINUOUS
10
4.48
20
29.74
30
0
11
7.75
21
35.62
31
0
0
LINE
8
0
6
CONTINUOUS
10
7.75
20
35.62
30
0
11
8.09
21
37.08
31
0
0
LINE
8
0
6
CONTINUOUS
10
7.73
20
35.53
30
0
11
4.55
21
29.81
31
0
0
LINE
8
0
6
CONTINUOUS
10
4.55
20
29.81
30
0
11
17.71
21
16.66
31
0
0
LINE
8
0
6
CONTINUOUS
10
17.71
20
16.66
30
0
11
21.24
21
15.19
31
0
0
LINE
8
0
6
CONTINUOUS
10
21.24
20
15.19
30
0
11
25.41
21
15.19
31
0
0
LINE
8
0
6
CONTINUOUS
10
25.41
20
15.19
30
0
11
25.41
21
16.19
31
0
0
LINE
8
0
6
CONTINUOUS
10
25.41
20
16.19
30
0
11
21.66
21
16.19
31
0
0
LINE
8
0
6
CONTINUOUS
10
21.66
20
16.19
30
0
11
18.12
21
17.66
31
0
0
LINE
8
0
6
CONTINUOUS
10
18.12
20
17.66
30
0
11
5.26
21
30.52
31
0
0
LINE
8
0
6
CONTINUOUS
10
5.26
20
30.52
30
0
11
7.5
21
34.55
31
0
0
LINE
8
0
6
CONTINUOUS
10
7.5
20
34.55
30
0
11
17.89
21
29.82
31
0
0
LINE
8
0
6
CONTINUOUS
10
17.89
20
29.82
30
0
11
18.14
21
28.89
31
0
0
LINE
8
0
6
CONTINUOUS
10
18.14
20
28.89
30
0
11
18.14
21
26.34
31
0
0
LINE
8
0
6
CONTINUOUS
10
18.14
20
26.34
30
0
11
18.77
21
25.72
31
0
0
LINE
8
0
6
CONTINUOUS
10
18.77
20
25.72
30
0
11
20.14
21
25.72
31
0
0
LINE
8
0
6
CONTINUOUS
10
20.14
20
25.72
30
0
11
21.42
21
25.87
31
0
0
LINE
8
0
6
CONTINUOUS
10
21.42
20
25.87
30
0
11
22.52
21
25.58
31
0
0
LINE
8
0
6
CONTINUOUS
10
22.52
20
25.58
30
0
11
22.74
21
24.74
31
0
0
LINE
8
0
6
CONTINUOUS
10
22.74
20
24.74
30
0
11
19.72
21
21.72
31
0
0
LINE
8
0
6
CONTINUOUS
10
19.72
20
21.72
30
0
11
20.42
21
21.01
31
0
0
LINE
8
0
6
CONTINUOUS
10
20.42
20
21.01
30
0
11
23.79
21
24.37
31
0
0
LINE
8
0
6
CONTINUOUS
10
23.79
20
24.37
30
0
11
23.79
21
25.79
31
0
0
LINE
8
0
6
CONTINUOUS
10
23.79
20
25.79
30
0
11
22.87
21
26.52
31
0
0
LINE
8
0
6
CONTINUOUS
10
22.87
20
26.52
30
0
11
21.38
21
26.92
31
0
0
LINE
8
0
6
CONTINUOUS
10
21.38
20
26.92
30
0
11
20.46
21
26.76
31
0
0
LINE
8
0
6
CONTINUOUS
10
20.46
20
26.76
30
0
11
19.13
21
26.76
31
0
0
LINE
8
0
6
CONTINUOUS
10
19.13
20
26.76
30
0
11
18.71
21
27.5
31
0
0
LINE
8
0
6
CONTINUOUS
10
18.71
20
27.5
30
0
11
19.04
21
28.37
31
0
0
LINE
8
0
6
CONTINUOUS
10
19.04
20
28.37
30
0
11
19.77
21
29.1
31
0
0
LINE
8
0
6
CONTINUOUS
10
19.77
20
29.1
30
0
11
19.33
21
30.2
31
0
0
LINE
8
0
6
CONTINUOUS
10
19.33
20
30.2
30
0
11
7.73
21
35.53
31
0
0
LINE
8
0
6
CONTINUOUS
10
30.41
20
-0.0
30
0
11
70.41
21
-0.0
31
0
0
LINE
8
0
6
CONTINUOUS
10
70.41
20
-0.0
30
0
11
70.41
21
1.4
31
0
0
LINE
8
0
6
CONTINUOUS
10
70.41
20
1.4
30
0
11
30.41
21
1.4
31
0
0
LINE
8
0
6
CONTINUOUS
10
30.41
20
1.4
30
0
11
30.41
21
-0.0
31
0
0
ENDSEC
0
EOF