0
SECTION
2
HEADER
0
ENDSEC
0
SECTION
2
TABLES
0
TABLE
2
LTYPE
70
2
0
LTYPE
2
CONTINUOUS
70
0
3
Solid line
72
65
73
0
40
0.0
0
ENDTAB
0
TABLE
2
LAYER
70
1
0
LAYER
2
0
70
0
62
7
6
CONTINUOUS
0
ENDTAB
0
ENDSEC
0
SECTION
2
ENTITIES
0
LINE
8
0
6
CONTINUOUS
10
45.0
20
0.0
30
0
11
45.0
21
14.67
31
0
0
LINE
8
0
6
CONTINUOUS
10
-45.0
20
0.0
30
0
11
-45.0
21
14.67
31
0
0
LINE
8
0
6
CONTINUOUS
10
7.5
20
0.0
30
0
11
7.5
21
14.67
31
0
0
LINE
8
0
6
CONTINUOUS
10
45.0
20
1.0
30
0
11
-45.0
21
1.0
31
0
0
LINE
8
0
6
CONTINUOUS
10
-7.5
20
0.0
30
0
11
-7.5
21
14.67
31
0
0
LINE
8
0
6
CONTINUOUS
10
45.0
20
13.0
30
0
11
-45.0
21
13.0
31
0
0
LINE
8
0
6
CONTINUOUS
10
0.0
20
0.0
30
0
11
0.0
21
14.67
31
0
0
LINE
8
0
6
CONTINUOUS
10
-45.0
20
0.0
30
0
11
45.0
21
0.0
31
0
0
LINE
8
0
6
CONTINUOUS
10
-20.85
20
14.67
30
0
11
-22.51
21
13.0
31
0
0
LINE
8
0
6
CONTINUOUS
10
-22.51
20
13.0
30
0
11
-12.51
21
13.0
31
0
0
LINE
8
0
6
CONTINUOUS
10
-12.51
20
13.0
30
0
11
-12.51
21
6.58
31
0
0
LINE
8
0
6
CONTINUOUS
10
-12.51
20
6.58
30
0
11
-10.07
21
6.58
31
0
0
LINE
8
0
6
CONTINUOUS
10
-10.07
20
6.58
30
0
11
-9.29
21
8.45
31
0
0
LINE
8
0
6
CONTINUOUS
10
-9.29
20
8.45
30
0
11
-10.92
21
8.45
31
0
0
LINE
8
0
6
CONTINUOUS
10
-10.92
20
8.45
30
0
11
-10.92
21
13.0
31
0
0
LINE
8
0
6
CONTINUOUS
10
-10.92
20
13.0
30
0
11
-4.67
21
13.0
31
0
0
LINE
8
0
6
CONTINUOUS
10
-4.67
20
13.0
30
0
11
-0.9
21
7.19
31
0
0
LINE
8
0
6
CONTINUOUS
10
-0.9
20
7.19
30
0
11
-0.9
21
6.21
31
0
0
LINE
8
0
6
CONTINUOUS
10
-0.9
20
6.21
30
0
11
0.0
21
6.21
31
0
0
LINE
8
0
6
CONTINUOUS
10
0.0
20
6.21
30
0
11
0.9
21
6.21
31
0
0
LINE
8
0
6
CONTINUOUS
10
0.9
20
6.21
30
0
11
0.9
21
7.19
31
0
0
LINE
8
0
6
CONTINUOUS
10
0.9
20
7.19
30
0
11
4.67
21
13.0
31
0
0
LINE
8
0
6
CONTINUOUS
10
4.67
20
13.0
30
0
11
10.92
21
13.0
31
0
0
LINE
8
0
6
CONTINUOUS
10
10.92
20
13.0
30
0
11
10.92
21
8.45
31
0
0
LINE
8
0
6
CONTINUOUS
10
10.92
20
8.45
30
0
11
9.29
21
8.45
31
0
0
LINE
8
0
6
CONTINUOUS
10
9.29
20
8.45
30
0
11
10.07
21
6.58
31
0
0
LINE
8
0
6
CONTINUOUS
10
10.07
20
6.58
30
0
11
12.51
21
6.58
31
0
0
LINE
8
0
6
CONTINUOUS
10
12.51
20
6.58
30
0
11
12.51
21
13.0
31
0
0
LINE
8
0
6
CONTINUOUS
10
12.51
20
13.0
30
0
11
22.51
21
13.0
31
0
0
LINE
8
0
6
CONTINUOUS
10
22.51
20
13.0
30
0
11
20.85
21
14.67
31
0
0
LINE
8
0
6
CONTINUOUS
10
20.85
20
14.67
30
0
11
2.36
21
14.67
31
0
0
LINE
8
0
6
CONTINUOUS
10
2.36
20
14.67
30
0
11
0.0
21
8.83
31
0
0
LINE
8
0
6
CONTINUOUS
10
0.0
20
8.83
30
0
11
-2.36
21
14.67
31
0
0
LINE
8
0
6
CONTINUOUS
10
-2.36
20
14.67
30
0
11
-20.85
21
14.67
31
0
0
LINE
8
0
6
CONTINUOUS
10
-45.0
20
1.0
30
0
11
-15.69
21
1.0
31
0
0
LINE
8
0
6
CONTINUOUS
10
-7.5
20
1.0
30
0
11
-7.5
21
9.68
31
0
0
LINE
8
0
6
CONTINUOUS
10
-15.69
20
12.0
30
0
11
-15.69
21
1.0
31
0
0
LINE
8
0
6
CONTINUOUS
10
-7.5
20
9.68
30
0
11
-9.5
21
9.68
31
0
0
LINE
8
0
6
CONTINUOUS
10
-9.5
20
9.68
30
0
11
-9.5
21
12.0
31
0
0
LINE
8
0
6
CONTINUOUS
10
-13.69
20
12.0
30
0
11
-13.69
21
1.0
31
0
0
ARC
8
0
6
CONTINUOUS
10
-14.69
20
12.0
30
0
40
1.0
50
0.0
51
180.0
0
LINE
8
0
6
CONTINUOUS
10
-13.69
20
1.0
30
0
11
-7.5
21
1.0
31
0
0
LINE
8
0
6
CONTINUOUS
10
-9.5
20
12.0
30
0
11
-7.5
21
12.0
31
0
0
LINE
8
0
6
CONTINUOUS
10
45.0
20
1.0
30
0
11
15.69
21
1.0
31
0
0
LINE
8
0
6
CONTINUOUS
10
7.5
20
1.0
30
0
11
7.5
21
9.68
31
0
0
LINE
8
0
6
CONTINUOUS
10
15.69
20
12.0
30
0
11
15.69
21
1.0
31
0
0
LINE
8
0
6
CONTINUOUS
10
7.5
20
9.68
30
0
11
9.5
21
9.68
31
0
0
LINE
8
0
6
CONTINUOUS
10
9.5
20
9.68
30
0
11
9.5
21
12.0
31
0
0
LINE
8
0
6
CONTINUOUS
10
13.69
20
12.0
30
0
11
13.69
21
1.0
31
0
0
ARC
8
0
6
CONTINUOUS
10
14.69
20
12.0
30
0
40
1.0
50
0.0
51
180.0
0
LINE
8
0
6
CONTINUOUS
10
13.69
20
1.0
30
0
11
7.5
21
1.0
31
0
0
LINE
8
0
6
CONTINUOUS
10
9.5
20
12.0
30
0
11
7.5
21
12.0
31
0
0
ENDSEC
0
EOF