0
SECTION
2
HEADER
0
ENDSEC
0
SECTION
2
TABLES
0
TABLE
2
LTYPE
70
2
0
LTYPE
2
CONTINUOUS
70
0
3
Solid line
72
65
73
0
40
0.0
0
ENDTAB
0
TABLE
2
LAYER
70
1
0
LAYER
2
0
70
0
62
7
6
CONTINUOUS
0
ENDTAB
0
ENDSEC
0
SECTION
2
ENTITIES
0
LINE
8
0
6
CONTINUOUS
10
270.28
20
0.8
30
0
11
270.28
21
258.82
31
0
0
LINE
8
0
6
CONTINUOUS
10
540.28
20
120.8
30
0
11
0.28
21
120.8
31
0
0
LINE
8
0
6
CONTINUOUS
10
540.28
20
0.8
30
0
11
540.28
21
258.82
31
0
0
LINE
8
0
6
CONTINUOUS
10
0.28
20
0.8
30
0
11
0.28
21
258.82
31
0
0
LINE
8
0
6
CONTINUOUS
10
0.28
20
0.8
30
0
11
540.28
21
0.8
31
0
0
LINE
8
0
6
CONTINUOUS
10
540.28
20
120.8
30
0
11
0.28
21
120.8
31
0
0
LINE
8
0
6
CONTINUOUS
10
0.28
20
120.8
30
0
11
0.28
21
0.8
31
0
0
LINE
8
0
6
CONTINUOUS
10
0.28
20
0.8
30
0
11
540.28
21
0.8
31
0
0
LINE
8
0
6
CONTINUOUS
10
540.28
20
0.8
30
0
11
540.28
21
120.8
31
0
0
LINE
8
0
6
CONTINUOUS
10
540.28
20
120.8
30
0
11
0.28
21
120.8
31
0
0
LINE
8
0
6
CONTINUOUS
10
0.28
20
120.8
30
0
11
0.28
21
0.8
31
0
0
LINE
8
0
6
CONTINUOUS
10
0.28
20
0.8
30
0
11
540.28
21
0.8
31
0
0
LINE
8
0
6
CONTINUOUS
10
540.28
20
0.8
30
0
11
540.28
21
120.8
31
0
0
ENDSEC
0
EOF