0
SECTION
2
HEADER
0
ENDSEC
0
SECTION
2
TABLES
0
TABLE
2
LTYPE
70
2
0
LTYPE
2
CONTINUOUS
70
0
3
Solid line
72
65
73
0
40
0.0
0
ENDTAB
0
TABLE
2
LAYER
70
1
0
LAYER
2
0
70
0
62
7
6
CONTINUOUS
0
ENDTAB
0
ENDSEC
0
SECTION
2
ENTITIES
0
LINE
8
0
6
CONTINUOUS
10
-95.0
20
-0.0
30
0
11
-95.0
21
12.0
31
0
0
LINE
8
0
6
CONTINUOUS
10
0.0
20
12.0
30
0
11
-95.0
21
12.0
31
0
0
LINE
8
0
6
CONTINUOUS
10
0.0
20
-0.0
30
0
11
0.0
21
12.0
31
0
0
LINE
8
0
6
CONTINUOUS
10
-95.0
20
0.0
30
0
11
0.0
21
0.0
31
0
0
LINE
8
0
6
CONTINUOUS
10
-95.0
20
9.0
30
0
11
-95.0
21
-0.0
31
0
0
LINE
8
0
6
CONTINUOUS
10
-95.0
20
-0.0
30
0
11
-25.0
21
-0.0
31
0
0
LINE
8
0
6
CONTINUOUS
10
-25.0
20
0.0
30
0
11
-25.0
21
6.0
31
0
0
LINE
8
0
6
CONTINUOUS
10
-25.0
20
6.0
30
0
11
0.0
21
6.0
31
0
0
LINE
8
0
6
CONTINUOUS
10
0.0
20
6.0
30
0
11
0.0
21
12.0
31
0
0
LINE
8
0
6
CONTINUOUS
10
-0.0
20
12.0
30
0
11
-92.0
21
12.0
31
0
0
ARC
8
0
6
CONTINUOUS
10
-92.0
20
9.0
30
0
40
3.0
50
90.0
51
180.0
0
ENDSEC
0
EOF