0
SECTION
2
HEADER
0
ENDSEC
0
SECTION
2
TABLES
0
TABLE
2
LTYPE
70
2
0
LTYPE
2
CONTINUOUS
70
0
3
Solid line
72
65
73
0
40
0.0
0
ENDTAB
0
TABLE
2
LAYER
70
1
0
LAYER
2
0
70
0
62
7
6
CONTINUOUS
0
ENDTAB
0
ENDSEC
0
SECTION
2
ENTITIES
0
LINE
8
0
6
CONTINUOUS
10
1.0
20
0.0
30
0
11
1.0
21
75.0
31
0
0
LINE
8
0
6
CONTINUOUS
10
17.0
20
0.0
30
0
11
17.0
21
75.0
31
0
0
LINE
8
0
6
CONTINUOUS
10
17.0
20
75.0
30
0
11
-2.0
21
75.0
31
0
0
LINE
8
0
6
CONTINUOUS
10
0.0
20
0.0
30
0
11
0.0
21
75.0
31
0
0
LINE
8
0
6
CONTINUOUS
10
-2.0
20
0.0
30
0
11
17.0
21
0.0
31
0
0
LINE
8
0
6
CONTINUOUS
10
1.0
20
75.0
30
0
11
1.0
21
6.21
31
0
0
LINE
8
0
6
CONTINUOUS
10
1.0
20
6.21
30
0
11
2.47
21
5.68
31
0
0
ARC
8
0
6
CONTINUOUS
10
13.911185616803749
20
13.520674185415626
30
0
40
13.87
50
214.42294207523145
51
246.4074625342891
0
LINE
8
0
6
CONTINUOUS
10
8.36
20
0.81
30
0
11
9.18
21
0.0
31
0
0
LINE
8
0
6
CONTINUOUS
10
9.18
20
0.0
30
0
11
17.0
21
0.0
31
0
0
ARC
8
0
6
CONTINUOUS
10
15.000025000155471
20
-0.009999999843747998
30
0
40
2.0
50
0.28648008676456765
51
90.00071620169786
0
LINE
8
0
6
CONTINUOUS
10
15.0
20
1.99
30
0
11
14.0
21
1.99
31
0
0
ARC
8
0
6
CONTINUOUS
10
14.0
20
12.990000000000002
30
0
40
11.0
50
180.0
51
270.0
0
LINE
8
0
6
CONTINUOUS
10
3.0
20
12.99
30
0
11
3.0
21
73.0
31
0
0
ARC
8
0
6
CONTINUOUS
10
1.0
20
73.0
30
0
40
2.0
50
0.0
51
90.0
0
ENDSEC
0
EOF