0
SECTION
2
HEADER
0
ENDSEC
0
SECTION
2
TABLES
0
TABLE
2
LTYPE
70
2
0
LTYPE
2
CONTINUOUS
70
0
3
Solid line
72
65
73
0
40
0.0
0
ENDTAB
0
TABLE
2
LAYER
70
1
0
LAYER
2
0
70
0
62
7
6
CONTINUOUS
0
ENDTAB
0
ENDSEC
0
SECTION
2
ENTITIES
0
LINE
8
0
6
CONTINUOUS
10
1.0
20
0.0
30
0
11
1.0
21
100.0
31
0
0
LINE
8
0
6
CONTINUOUS
10
20.0
20
0.0
30
0
11
20.0
21
100.0
31
0
0
LINE
8
0
6
CONTINUOUS
10
20.0
20
100.0
30
0
11
0.0
21
100.0
31
0
0
LINE
8
0
6
CONTINUOUS
10
0.0
20
0.0
30
0
11
0.0
21
100.0
31
0
0
LINE
8
0
6
CONTINUOUS
10
0.0
20
0.0
30
0
11
20.0
21
0.0
31
0
0
LINE
8
0
6
CONTINUOUS
10
1.0
20
100.0
30
0
11
1.0
21
9.21
31
0
0
LINE
8
0
6
CONTINUOUS
10
1.0
20
9.21
30
0
11
2.47
21
8.68
31
0
0
ARC
8
0
6
CONTINUOUS
10
16.906137501764036
20
16.031049859044764
30
0
40
16.2
50
206.98572594229682
51
249.97963230518786
0
LINE
8
0
6
CONTINUOUS
10
11.36
20
0.81
30
0
11
12.18
21
0.0
31
0
0
LINE
8
0
6
CONTINUOUS
10
12.18
20
0.0
30
0
11
20.0
21
0.0
31
0
0
ARC
8
0
6
CONTINUOUS
10
18.00002500015547
20
-0.009999999843747998
30
0
40
2.0
50
0.28648008676456765
51
90.00071620169786
0
LINE
8
0
6
CONTINUOUS
10
18.0
20
1.99
30
0
11
17.0
21
1.99
31
0
0
ARC
8
0
6
CONTINUOUS
10
17.0
20
15.990000000000002
30
0
40
14.0
50
180.0
51
270.0
0
LINE
8
0
6
CONTINUOUS
10
3.0
20
15.99
30
0
11
3.0
21
98.0
31
0
0
ARC
8
0
6
CONTINUOUS
10
1.0
20
98.0
30
0
40
2.0
50
0.0
51
90.0
0
ENDSEC
0
EOF