0
SECTION
2
HEADER
0
ENDSEC
0
SECTION
2
TABLES
0
TABLE
2
LTYPE
70
2
0
LTYPE
2
CONTINUOUS
70
0
3
Solid line
72
65
73
0
40
0.0
0
ENDTAB
0
TABLE
2
LAYER
70
1
0
LAYER
2
0
70
0
62
7
6
CONTINUOUS
0
ENDTAB
0
ENDSEC
0
SECTION
2
ENTITIES
0
LINE
8
0
6
CONTINUOUS
10
0.0
20
8.62
30
0
11
9.92
21
-0.0
31
0
0
LINE
8
0
6
CONTINUOUS
10
1.0
20
0.0
30
0
11
1.0
21
70.0
31
0
0
LINE
8
0
6
CONTINUOUS
10
10.91
20
70.0
30
0
11
0.0
21
70.0
31
0
0
LINE
8
0
6
CONTINUOUS
10
0.0
20
-0.0
30
0
11
0.0
21
70.0
31
0
0
LINE
8
0
6
CONTINUOUS
10
0.0
20
0.0
30
0
11
10.91
21
0.0
31
0
0
LINE
8
0
6
CONTINUOUS
10
9.92
20
0.0
30
0
11
10.91
21
1.13
31
0
0
LINE
8
0
6
CONTINUOUS
10
10.91
20
1.13
30
0
11
3.53
21
7.54
31
0
0
LINE
8
0
6
CONTINUOUS
10
3.53
20
7.54
30
0
11
3.53
21
66.99
31
0
0
LINE
8
0
6
CONTINUOUS
10
3.53
20
66.99
30
0
11
1.8
21
70.0
31
0
0
LINE
8
0
6
CONTINUOUS
10
1.8
20
70.0
30
0
11
0.5
21
69.25
31
0
0
LINE
8
0
6
CONTINUOUS
10
0.5
20
69.25
30
0
11
2.03
21
66.59
31
0
0
LINE
8
0
6
CONTINUOUS
10
2.03
20
66.59
30
0
11
2.03
21
6.85
31
0
0
LINE
8
0
6
CONTINUOUS
10
2.03
20
6.85
30
0
11
9.92
21
0.0
31
0
0
ENDSEC
0
EOF