0
SECTION
2
HEADER
0
ENDSEC
0
SECTION
2
TABLES
0
TABLE
2
LTYPE
70
2
0
LTYPE
2
CONTINUOUS
70
0
3
Solid line
72
65
73
0
40
0.0
0
ENDTAB
0
TABLE
2
LAYER
70
1
0
LAYER
2
0
70
0
62
7
6
CONTINUOUS
0
ENDTAB
0
ENDSEC
0
SECTION
2
ENTITIES
0
LINE
8
0
6
CONTINUOUS
10
8.0
20
31.41
30
0
11
-8.0
21
31.41
31
0
0
LINE
8
0
6
CONTINUOUS
10
8.0
20
38.0
30
0
11
-8.0
21
38.0
31
0
0
LINE
8
0
6
CONTINUOUS
10
-8.0
20
-2.0
30
0
11
-8.0
21
38.0
31
0
0
LINE
8
0
6
CONTINUOUS
10
8.0
20
-2.0
30
0
11
-8.0
21
-2.0
31
0
0
LINE
8
0
6
CONTINUOUS
10
8.0
20
-2.0
30
0
11
8.0
21
38.0
31
0
0
LINE
8
0
6
CONTINUOUS
10
0.0
20
-2.0
30
0
11
0.0
21
38.0
31
0
0
LINE
8
0
6
CONTINUOUS
10
-8.0
20
0.0
30
0
11
8.0
21
0.0
31
0
0
LINE
8
0
6
CONTINUOUS
10
0.39
20
27.07
30
0
11
0.39
21
-1.5
31
0
0
LINE
8
0
6
CONTINUOUS
10
0.39
20
-1.5
30
0
11
7.42
21
-1.5
31
0
0
LINE
8
0
6
CONTINUOUS
10
8.0
20
-2.0
30
0
11
8.0
21
-1.01
31
0
0
LINE
8
0
6
CONTINUOUS
10
8.0
20
-1.01
30
0
11
4.0
21
-1.01
31
0
0
LINE
8
0
6
CONTINUOUS
10
0.39
20
27.07
30
0
11
2.5
21
29.18
31
0
0
LINE
8
0
6
CONTINUOUS
10
2.5
20
29.18
30
0
11
2.5
21
35.5
31
0
0
LINE
8
0
6
CONTINUOUS
10
-0.39
20
27.07
30
0
11
-0.39
21
-1.5
31
0
0
LINE
8
0
6
CONTINUOUS
10
-0.39
20
27.07
30
0
11
-2.5
21
29.18
31
0
0
LINE
8
0
6
CONTINUOUS
10
-2.5
20
29.18
30
0
11
-2.5
21
35.5
31
0
0
ARC
8
0
6
CONTINUOUS
10
0.0
20
35.5
30
0
40
2.5
50
0.0
51
180.0
0
LINE
8
0
6
CONTINUOUS
10
8.0
20
-2.0
30
0
11
-8.0
21
-2.0
31
0
0
LINE
8
0
6
CONTINUOUS
10
-8.0
20
-2.0
30
0
11
-8.0
21
-1.01
31
0
0
LINE
8
0
6
CONTINUOUS
10
-8.0
20
-1.01
30
0
11
-4.0
21
-1.01
31
0
0
LINE
8
0
6
CONTINUOUS
10
-0.39
20
-1.5
30
0
11
-7.2
21
-1.5
31
0
0
ENDSEC
0
EOF