0
SECTION
2
HEADER
0
ENDSEC
0
SECTION
2
TABLES
0
TABLE
2
LTYPE
70
2
0
LTYPE
2
CONTINUOUS
70
0
3
Solid line
72
65
73
0
40
0.0
0
ENDTAB
0
TABLE
2
LAYER
70
1
0
LAYER
2
0
70
0
62
7
6
CONTINUOUS
0
ENDTAB
0
ENDSEC
0
SECTION
2
ENTITIES
0
LINE
8
0
6
CONTINUOUS
10
-30.0
20
-0.0
30
0
11
-30.0
21
27.8
31
0
0
LINE
8
0
6
CONTINUOUS
10
30.0
20
-0.0
30
0
11
30.0
21
27.8
31
0
0
LINE
8
0
6
CONTINUOUS
10
40.8
20
27.0
30
0
11
-30.0
21
27.0
31
0
0
LINE
8
0
6
CONTINUOUS
10
0.0
20
-0.0
30
0
11
0.0
21
27.8
31
0
0
LINE
8
0
6
CONTINUOUS
10
-30.0
20
0.0
30
0
11
40.8
21
0.0
31
0
0
LINE
8
0
6
CONTINUOUS
10
-28.67
20
26.2
30
0
11
-29.2
21
25.67
31
0
0
LINE
8
0
6
CONTINUOUS
10
-24.74
20
26.2
30
0
11
-28.67
21
26.2
31
0
0
LINE
8
0
6
CONTINUOUS
10
-29.2
20
25.67
30
0
11
-29.2
21
0.8
31
0
0
LINE
8
0
6
CONTINUOUS
10
-29.2
20
0.8
30
0
11
-17.33
21
0.8
31
0
0
LINE
8
0
6
CONTINUOUS
10
-17.33
20
0.8
30
0
11
-15.0
21
3.13
31
0
0
LINE
8
0
6
CONTINUOUS
10
-15.0
20
3.13
30
0
11
-12.67
21
0.8
31
0
0
LINE
8
0
6
CONTINUOUS
10
-12.67
20
0.8
30
0
11
-2.73
21
0.8
31
0
0
LINE
8
0
6
CONTINUOUS
10
-2.73
20
0.8
30
0
11
0.0
21
3.53
31
0
0
LINE
8
0
6
CONTINUOUS
10
-0.0
20
3.53
30
0
11
2.73
21
0.8
31
0
0
LINE
8
0
6
CONTINUOUS
10
2.73
20
0.8
30
0
11
12.67
21
0.8
31
0
0
LINE
8
0
6
CONTINUOUS
10
12.67
20
0.8
30
0
11
15.0
21
3.13
31
0
0
LINE
8
0
6
CONTINUOUS
10
15.0
20
3.13
30
0
11
17.33
21
0.8
31
0
0
LINE
8
0
6
CONTINUOUS
10
17.33
20
0.8
30
0
11
29.2
21
0.8
31
0
0
LINE
8
0
6
CONTINUOUS
10
29.2
20
0.8
30
0
11
29.2
21
26.2
31
0
0
LINE
8
0
6
CONTINUOUS
10
29.2
20
26.2
30
0
11
24.85
21
26.2
31
0
0
LINE
8
0
6
CONTINUOUS
10
-24.0
20
25.4
30
0
11
-24.0
21
27.0
31
0
0
LINE
8
0
6
CONTINUOUS
10
-24.0
20
27.0
30
0
11
-29.0
21
27.0
31
0
0
LINE
8
0
6
CONTINUOUS
10
-29.0
20
27.0
30
0
11
-30.0
21
26.0
31
0
0
LINE
8
0
6
CONTINUOUS
10
-30.0
20
26.0
30
0
11
-30.0
21
1.0
31
0
0
LINE
8
0
6
CONTINUOUS
10
-30.0
20
1.0
30
0
11
-29.0
21
-0.0
31
0
0
LINE
8
0
6
CONTINUOUS
10
-29.0
20
-0.0
30
0
11
-17.0
21
-0.0
31
0
0
LINE
8
0
6
CONTINUOUS
10
-17.0
20
-0.0
30
0
11
-15.0
21
2.0
31
0
0
LINE
8
0
6
CONTINUOUS
10
-15.0
20
2.0
30
0
11
-13.0
21
-0.0
31
0
0
LINE
8
0
6
CONTINUOUS
10
-13.0
20
-0.0
30
0
11
-2.4
21
-0.0
31
0
0
LINE
8
0
6
CONTINUOUS
10
-2.4
20
-0.0
30
0
11
0.0
21
2.4
31
0
0
LINE
8
0
6
CONTINUOUS
10
0.0
20
2.4
30
0
11
2.4
21
0.0
31
0
0
LINE
8
0
6
CONTINUOUS
10
2.4
20
0.0
30
0
11
13.0
21
0.0
31
0
0
LINE
8
0
6
CONTINUOUS
10
13.0
20
0.0
30
0
11
15.0
21
2.0
31
0
0
LINE
8
0
6
CONTINUOUS
10
15.0
20
2.0
30
0
11
17.0
21
-0.0
31
0
0
LINE
8
0
6
CONTINUOUS
10
17.0
20
-0.0
30
0
11
29.0
21
-0.0
31
0
0
LINE
8
0
6
CONTINUOUS
10
29.0
20
-0.0
30
0
11
30.0
21
1.0
31
0
0
LINE
8
0
6
CONTINUOUS
10
30.0
20
1.0
30
0
11
30.0
21
26.0
31
0
0
LINE
8
0
6
CONTINUOUS
10
30.0
20
26.0
30
0
11
29.0
21
27.0
31
0
0
LINE
8
0
6
CONTINUOUS
10
29.0
20
27.0
30
0
11
24.0
21
27.0
31
0
0
LINE
8
0
6
CONTINUOUS
10
24.0
20
27.0
30
0
11
24.0
21
25.4
31
0
0
LINE
8
0
6
CONTINUOUS
10
24.0
20
25.4
30
0
11
27.0
21
25.4
31
0
0
LINE
8
0
6
CONTINUOUS
10
27.0
20
25.4
30
0
11
27.0
21
26.2
31
0
0
LINE
8
0
6
CONTINUOUS
10
27.0
20
26.2
30
0
11
29.2
21
26.2
31
0
0
LINE
8
0
6
CONTINUOUS
10
29.2
20
26.2
30
0
11
29.2
21
0.8
31
0
0
LINE
8
0
6
CONTINUOUS
10
29.2
20
0.8
30
0
11
17.33
21
0.8
31
0
0
LINE
8
0
6
CONTINUOUS
10
17.33
20
0.8
30
0
11
15.0
21
3.13
31
0
0
LINE
8
0
6
CONTINUOUS
10
15.0
20
3.13
30
0
11
12.67
21
0.8
31
0
0
LINE
8
0
6
CONTINUOUS
10
12.67
20
0.8
30
0
11
2.73
21
0.8
31
0
0
LINE
8
0
6
CONTINUOUS
10
2.73
20
0.8
30
0
11
0.0
21
3.53
31
0
0
LINE
8
0
6
CONTINUOUS
10
0.0
20
3.53
30
0
11
-2.73
21
0.8
31
0
0
LINE
8
0
6
CONTINUOUS
10
-2.73
20
0.8
30
0
11
-12.67
21
0.8
31
0
0
LINE
8
0
6
CONTINUOUS
10
-12.67
20
0.8
30
0
11
-15.0
21
3.13
31
0
0
LINE
8
0
6
CONTINUOUS
10
-15.0
20
3.13
30
0
11
-17.33
21
0.8
31
0
0
LINE
8
0
6
CONTINUOUS
10
-17.33
20
0.8
30
0
11
-29.2
21
0.8
31
0
0
LINE
8
0
6
CONTINUOUS
10
-29.2
20
0.8
30
0
11
-29.2
21
26.2
31
0
0
LINE
8
0
6
CONTINUOUS
10
-29.2
20
26.2
30
0
11
-27.0
21
26.2
31
0
0
LINE
8
0
6
CONTINUOUS
10
-27.0
20
26.2
30
0
11
-27.0
21
25.4
31
0
0
LINE
8
0
6
CONTINUOUS
10
-27.0
20
25.4
30
0
11
-24.0
21
25.4
31
0
0
ENDSEC
0
EOF