0
SECTION
2
HEADER
0
ENDSEC
0
SECTION
2
TABLES
0
TABLE
2
LTYPE
70
2
0
LTYPE
2
CONTINUOUS
70
0
3
Solid line
72
65
73
0
40
0.0
0
ENDTAB
0
TABLE
2
LAYER
70
1
0
LAYER
2
0
70
0
62
7
6
CONTINUOUS
0
ENDTAB
0
ENDSEC
0
SECTION
2
ENTITIES
0
LINE
8
0
6
CONTINUOUS
10
30.0
20
-2.0
30
0
11
0.0
21
-2.0
31
0
0
LINE
8
0
6
CONTINUOUS
10
19.0
20
-2.0
30
0
11
19.0
21
83.0
31
0
0
LINE
8
0
6
CONTINUOUS
10
0.0
20
-2.0
30
0
11
0.0
21
83.0
31
0
0
LINE
8
0
6
CONTINUOUS
10
-0.0
20
0.0
30
0
11
30.0
21
0.0
31
0
0
LINE
8
0
6
CONTINUOUS
10
1.0
20
22.0
30
0
11
1.0
21
-2.0
31
0
0
LINE
8
0
6
CONTINUOUS
10
1.0
20
-2.0
30
0
11
19.0
21
-2.0
31
0
0
LINE
8
0
6
CONTINUOUS
10
19.0
20
-2.0
30
0
11
19.0
21
-1.01
31
0
0
LINE
8
0
6
CONTINUOUS
10
19.0
20
-1.01
30
0
11
14.0
21
-1.01
31
0
0
LINE
8
0
6
CONTINUOUS
10
1.0
20
22.0
30
0
11
1.99
21
22.0
31
0
0
LINE
8
0
6
CONTINUOUS
10
1.99
20
22.0
30
0
11
1.99
21
17.0
31
0
0
ENDSEC
0
EOF