0
SECTION
2
HEADER
0
ENDSEC
0
SECTION
2
TABLES
0
TABLE
2
LTYPE
70
2
0
LTYPE
2
CONTINUOUS
70
0
3
Solid line
72
65
73
0
40
0.0
0
ENDTAB
0
TABLE
2
LAYER
70
1
0
LAYER
2
0
70
0
62
7
6
CONTINUOUS
0
ENDTAB
0
ENDSEC
0
SECTION
2
ENTITIES
0
LINE
8
0
6
CONTINUOUS
10
55.05
20
188.31
30
0
11
-7.5
21
188.31
31
0
0
LINE
8
0
6
CONTINUOUS
10
55.05
20
192.31
30
0
11
-7.5
21
192.31
31
0
0
LINE
8
0
6
CONTINUOUS
10
0.0
20
-31.78
30
0
11
0.0
21
192.31
31
0
0
LINE
8
0
6
CONTINUOUS
10
-7.5
20
0.0
30
0
11
55.05
21
0.0
31
0
0
LINE
8
0
6
CONTINUOUS
10
30.5
20
192.31
30
0
11
10.5
21
192.31
31
0
0
LINE
8
0
6
CONTINUOUS
10
10.5
20
192.31
30
0
11
10.5
21
37.0
31
0
0
LINE
8
0
6
CONTINUOUS
10
10.5
20
37.0
30
0
11
14.5
21
37.0
31
0
0
LINE
8
0
6
CONTINUOUS
10
14.5
20
37.0
30
0
11
14.5
21
188.31
31
0
0
LINE
8
0
6
CONTINUOUS
10
14.5
20
188.31
30
0
11
30.5
21
188.31
31
0
0
LINE
8
0
6
CONTINUOUS
10
30.5
20
188.31
30
0
11
30.5
21
192.31
31
0
0
LINE
8
0
6
CONTINUOUS
10
-5.0
20
77.5
30
0
11
-2.5
21
77.5
31
0
0
ARC
8
0
6
CONTINUOUS
10
-2.5
20
80.0
30
0
40
2.5
50
270.0
51
0.0
0
LINE
8
0
6
CONTINUOUS
10
-0.0
20
80.0
30
0
11
-0.0
21
89.0
31
0
0
ARC
8
0
6
CONTINUOUS
10
-2.5
20
89.0
30
0
40
2.5
50
0.0
51
90.0
0
LINE
8
0
6
CONTINUOUS
10
-2.5
20
91.5
30
0
11
-7.5
21
91.5
31
0
0
LINE
8
0
6
CONTINUOUS
10
-7.5
20
91.5
30
0
11
-7.5
21
89.0
31
0
0
LINE
8
0
6
CONTINUOUS
10
-7.5
20
89.0
30
0
11
-2.5
21
89.0
31
0
0
LINE
8
0
6
CONTINUOUS
10
-2.5
20
89.0
30
0
11
-2.5
21
80.0
31
0
0
LINE
8
0
6
CONTINUOUS
10
-2.5
20
80.0
30
0
11
-5.0
21
80.0
31
0
0
ARC
8
0
6
CONTINUOUS
10
-5.0
20
77.5
30
0
40
2.5
50
90.0
51
180.0
0
LINE
8
0
6
CONTINUOUS
10
-7.5
20
77.5
30
0
11
-7.5
21
-0.0
31
0
0
ARC
8
0
6
CONTINUOUS
10
-4.648935626738737e-06
20
-0.008350689359673202
30
0
40
7.5
50
179.93620541930758
51
330.07363632234046
0
LINE
8
0
6
CONTINUOUS
10
6.5
20
-3.75
30
0
11
7.75
21
-1.58
31
0
0
LINE
8
0
6
CONTINUOUS
10
7.75
20
-1.58
30
0
11
5.55
21
-0.32
31
0
0
LINE
8
0
6
CONTINUOUS
10
5.55
20
-0.32
30
0
11
4.03
21
-2.95
31
0
0
ARC
8
0
6
CONTINUOUS
10
-9.149340359670965e-06
20
0.009565214053068205
30
0
40
5.0
50
180.10960934593288
51
323.7071186330896
0
LINE
8
0
6
CONTINUOUS
10
-5.0
20
-0.0
30
0
11
-5.0
21
77.5
31
0
0
LINE
8
0
6
CONTINUOUS
10
27.5
20
53.0
30
0
11
-2.5
21
67.0
31
0
0
LINE
8
0
6
CONTINUOUS
10
-2.5
20
67.0
30
0
11
-2.5
21
102.0
31
0
0
LINE
8
0
6
CONTINUOUS
10
-2.5
20
102.0
30
0
11
27.5
21
116.0
31
0
0
ENDSEC
0
EOF