0
SECTION
2
HEADER
0
ENDSEC
0
SECTION
2
TABLES
0
TABLE
2
LTYPE
70
3
0
LTYPE
2
CONTINUOUS
70
0
3
Solid line
72
65
73
0
40
0.0
0
LTYPE
2
HIDDEN
70
0
3
hidden
72
65
73
2
40
9.524999999999999
49
6.35
49
-3.175
0
ENDTAB
0
TABLE
2
LAYER
70
1
0
LAYER
2
0
70
0
62
7
6
CONTINUOUS
0
ENDTAB
0
ENDSEC
0
SECTION
2
ENTITIES
0
LINE
8
0
6
CONTINUOUS
10
160.0
20
12.5
30
0
11
-0.0
21
12.5
31
0
0
LINE
8
0
6
CONTINUOUS
10
160.0
20
-2.0
30
0
11
160.0
21
111.5
31
0
0
LINE
8
0
6
CONTINUOUS
10
0.0
20
-2.0
30
0
11
0.0
21
111.5
31
0
0
LINE
8
0
6
CONTINUOUS
10
-0.0
20
0.0
30
0
11
160.0
21
0.0
31
0
0
LINE
8
0
6
CONTINUOUS
10
13.94
20
39.5
30
0
11
13.94
21
12.5
31
0
0
LINE
8
0
6
CONTINUOUS
10
13.94
20
81.5
30
0
11
160.0
21
81.5
31
0
0
LINE
8
0
6
CONTINUOUS
10
13.94
20
81.5
30
0
11
13.94
21
12.5
31
0
0
LINE
8
0
6
CONTINUOUS
10
13.94
20
74.52
30
0
11
160.0
21
74.52
31
0
0
LINE
8
0
6
CONTINUOUS
10
13.94
20
19.52
30
0
11
160.0
21
19.52
31
0
0
LINE
8
0
6
CONTINUOUS
10
5.56
20
0.0
30
0
11
5.56
21
12.5
31
0
0
LINE
8
0
6
CONTINUOUS
10
5.56
20
12.5
30
0
11
0.0
21
12.5
31
0
0
LINE
8
0
6
CONTINUOUS
10
0.0
20
12.5
30
0
11
0.0
21
0.0
31
0
0
LINE
8
0
6
CONTINUOUS
10
0.0
20
0.0
30
0
11
5.56
21
0.0
31
0
0
LINE
8
0
6
CONTINUOUS
10
160.0
20
12.5
30
0
11
5.56
21
12.5
31
0
0
LINE
8
0
6
CONTINUOUS
10
160.0
20
-0.0
30
0
11
160.0
21
12.5
31
0
0
LINE
8
0
6
CONTINUOUS
10
5.56
20
0.0
30
0
11
5.56
21
12.5
31
0
0
LINE
8
0
6
CONTINUOUS
10
5.56
20
0.0
30
0
11
160.0
21
-0.0
31
0
0
LINE
8
0
6
CONTINUOUS
10
160.0
20
-0.0
30
0
11
160.0
21
12.5
31
0
0
LINE
8
0
6
CONTINUOUS
10
160.0
20
12.5
30
0
11
5.56
21
12.5
31
0
0
LINE
8
0
6
CONTINUOUS
10
5.56
20
12.5
30
0
11
5.56
21
0.0
31
0
0
LINE
8
0
6
CONTINUOUS
10
5.56
20
0.0
30
0
11
160.0
21
-0.0
31
0
0
LINE
8
0
6
CONTINUOUS
10
160.0
20
12.5
30
0
11
5.56
21
12.5
31
0
0
LINE
8
0
6
CONTINUOUS
10
5.56
20
12.5
30
0
11
5.56
21
0.0
31
0
0
LINE
8
0
6
CONTINUOUS
10
5.56
20
0.0
30
0
11
160.0
21
-0.0
31
0
0
LINE
8
0
6
CONTINUOUS
10
160.0
20
-0.0
30
0
11
160.0
21
12.5
31
0
0
LINE
8
0
6
CONTINUOUS
10
50.0
20
82.5
30
0
11
50.0
21
12.5
31
0
0
LINE
8
0
6
CONTINUOUS
10
0.0
20
82.5
30
0
11
-0.0
21
12.5
31
0
0
LINE
8
0
6
CONTINUOUS
10
-0.0
20
56.5
30
0
11
52.0
21
56.5
31
0
0
LINE
8
0
6
CONTINUOUS
10
-0.0
20
38.5
30
0
11
52.0
21
38.5
31
0
0
LINE
8
0
6
CONTINUOUS
10
-0.0
20
68.5
30
0
11
52.0
21
68.5
31
0
0
LINE
8
0
6
CONTINUOUS
10
-0.0
20
26.5
30
0
11
52.0
21
26.5
31
0
0
LINE
8
0
6
CONTINUOUS
10
52.0
20
74.48
30
0
11
-0.0
21
74.48
31
0
0
LINE
8
0
6
CONTINUOUS
10
-0.0
20
20.5
30
0
11
52.0
21
20.5
31
0
0
LINE
8
0
6
CONTINUOUS
10
52.0
20
82.5
30
0
11
52.0
21
12.5
31
0
0
LINE
8
0
6
CONTINUOUS
10
41.0
20
82.5
30
0
11
41.0
21
12.5
31
0
0
LINE
8
0
6
CONTINUOUS
10
52.0
20
82.5
30
0
11
-0.0
21
82.5
31
0
0
LINE
8
0
6
CONTINUOUS
10
52.0
20
12.5
30
0
11
-0.0
21
12.5
31
0
0
LINE
8
0
6
CONTINUOUS
10
52.0
20
47.5
30
0
11
-0.0
21
47.5
31
0
0
LINE
8
0
6
CONTINUOUS
10
1.0
20
12.5
30
0
11
1.0
21
82.5
31
0
0
LINE
8
0
6
CONTINUOUS
10
4.0
20
38.5
30
0
11
-0.0
21
38.5
31
0
0
LINE
8
0
6
CONTINUOUS
10
-0.0
20
38.5
30
0
11
-0.0
21
26.5
31
0
0
LINE
8
0
6
CONTINUOUS
10
-0.0
20
26.5
30
0
11
4.0
21
26.5
31
0
0
LINE
8
0
6
CONTINUOUS
10
4.0
20
26.5
30
0
11
4.0
21
38.5
31
0
0
LINE
8
0
6
CONTINUOUS
10
4.0
20
68.5
30
0
11
-0.0
21
68.5
31
0
0
LINE
8
0
6
CONTINUOUS
10
-0.0
20
68.5
30
0
11
-0.0
21
56.5
31
0
0
LINE
8
0
6
CONTINUOUS
10
-0.0
20
56.5
30
0
11
4.0
21
56.5
31
0
0
LINE
8
0
6
CONTINUOUS
10
4.0
20
56.5
30
0
11
4.0
21
68.5
31
0
0
LINE
8
0
6
CONTINUOUS
10
41.0
20
81.5
30
0
11
41.0
21
82.5
31
0
0
LINE
8
0
6
CONTINUOUS
10
41.0
20
82.5
30
0
11
2.0
21
82.5
31
0
0
LINE
8
0
6
CONTINUOUS
10
2.0
20
82.5
30
0
11
1.0
21
81.5
31
0
0
LINE
8
0
6
CONTINUOUS
10
1.0
20
81.5
30
0
11
1.0
21
74.5
31
0
0
LINE
8
0
6
CONTINUOUS
10
1.0
20
74.5
30
0
11
4.0
21
71.5
31
0
0
LINE
8
0
6
CONTINUOUS
10
4.0
20
71.5
30
0
11
4.0
21
23.5
31
0
0
LINE
8
0
6
CONTINUOUS
10
4.0
20
23.5
30
0
11
1.0
21
20.5
31
0
0
LINE
8
0
6
CONTINUOUS
10
1.0
20
20.5
30
0
11
1.0
21
13.5
31
0
0
LINE
8
0
6
CONTINUOUS
10
1.0
20
13.5
30
0
11
2.0
21
12.5
31
0
0
LINE
8
0
6
CONTINUOUS
10
2.0
20
12.5
30
0
11
41.0
21
12.5
31
0
0
LINE
8
0
6
CONTINUOUS
10
41.0
20
12.5
30
0
11
41.0
21
13.5
31
0
0
LINE
8
0
6
CONTINUOUS
10
41.0
20
13.5
30
0
11
2.0
21
13.5
31
0
0
LINE
8
0
6
CONTINUOUS
10
2.0
20
13.5
30
0
11
2.0
21
20.09
31
0
0
LINE
8
0
6
CONTINUOUS
10
2.0
20
20.09
30
0
11
5.0
21
23.09
31
0
0
LINE
8
0
6
CONTINUOUS
10
5.0
20
23.09
30
0
11
5.0
21
71.91
31
0
0
LINE
8
0
6
CONTINUOUS
10
5.0
20
71.91
30
0
11
2.0
21
74.91
31
0
0
LINE
8
0
6
CONTINUOUS
10
2.0
20
74.91
30
0
11
2.0
21
81.5
31
0
0
LINE
8
0
6
CONTINUOUS
10
2.0
20
81.5
30
0
11
41.0
21
81.5
31
0
0
LINE
8
0
6
CONTINUOUS
10
2.0
20
81.5
30
0
11
49.0
21
81.5
31
0
0
LINE
8
0
6
CONTINUOUS
10
49.0
20
81.5
30
0
11
49.0
21
74.5
31
0
0
LINE
8
0
6
CONTINUOUS
10
49.0
20
74.5
30
0
11
50.0
21
74.5
31
0
0
LINE
8
0
6
CONTINUOUS
10
50.0
20
74.5
30
0
11
50.0
21
81.5
31
0
0
LINE
8
0
6
CONTINUOUS
10
50.0
20
81.5
30
0
11
49.0
21
82.5
31
0
0
LINE
8
0
6
CONTINUOUS
10
49.0
20
82.5
30
0
11
2.0
21
82.5
31
0
0
LINE
8
0
6
CONTINUOUS
10
2.0
20
82.5
30
0
11
1.0
21
81.5
31
0
0
LINE
8
0
6
CONTINUOUS
10
1.0
20
81.5
30
0
11
1.0
21
74.5
31
0
0
LINE
8
0
6
CONTINUOUS
10
1.0
20
74.5
30
0
11
4.0
21
71.5
31
0
0
LINE
8
0
6
CONTINUOUS
10
4.0
20
71.5
30
0
11
4.0
21
23.5
31
0
0
LINE
8
0
6
CONTINUOUS
10
4.0
20
23.5
30
0
11
1.0
21
20.5
31
0
0
LINE
8
0
6
CONTINUOUS
10
1.0
20
20.5
30
0
11
1.0
21
13.5
31
0
0
LINE
8
0
6
CONTINUOUS
10
1.0
20
13.5
30
0
11
2.0
21
12.5
31
0
0
LINE
8
0
6
CONTINUOUS
10
2.0
20
12.5
30
0
11
51.0
21
12.5
31
0
0
LINE
8
0
6
CONTINUOUS
10
51.0
20
12.5
30
0
11
52.0
21
13.5
31
0
0
LINE
8
0
6
CONTINUOUS
10
52.0
20
13.5
30
0
11
52.0
21
20.5
31
0
0
LINE
8
0
6
CONTINUOUS
10
52.0
20
20.5
30
0
11
51.0
21
20.5
31
0
0
LINE
8
0
6
CONTINUOUS
10
51.0
20
20.5
30
0
11
51.0
21
13.5
31
0
0
LINE
8
0
6
CONTINUOUS
10
51.0
20
13.5
30
0
11
2.0
21
13.5
31
0
0
LINE
8
0
6
CONTINUOUS
10
2.0
20
13.5
30
0
11
2.0
21
20.09
31
0
0
LINE
8
0
6
CONTINUOUS
10
2.0
20
20.09
30
0
11
5.0
21
23.09
31
0
0
LINE
8
0
6
CONTINUOUS
10
5.0
20
23.09
30
0
11
5.0
21
71.91
31
0
0
LINE
8
0
6
CONTINUOUS
10
5.0
20
71.91
30
0
11
2.0
21
74.91
31
0
0
LINE
8
0
6
CONTINUOUS
10
2.0
20
74.91
30
0
11
2.0
21
81.5
31
0
0
LINE
8
0
6
CONTINUOUS
10
65.0
20
-0.0
30
0
11
65.0
21
-2.0
31
0
0
LINE
8
0
6
CONTINUOUS
10
0.0
20
0.0
30
0
11
-0.0
21
-2.0
31
0
0
LINE
8
0
6
CONTINUOUS
10
0.0
20
0.0
30
0
11
65.0
21
-0.0
31
0
0
LINE
8
0
6
HIDDEN
10
-0.0
20
-2.0
30
0
11
65.0
21
-2.0
31
0
0
ENDSEC
0
EOF