0
SECTION
2
HEADER
0
ENDSEC
0
SECTION
2
TABLES
0
TABLE
2
LTYPE
70
2
0
LTYPE
2
CONTINUOUS
70
0
3
Solid line
72
65
73
0
40
0.0
0
ENDTAB
0
TABLE
2
LAYER
70
1
0
LAYER
2
0
70
0
62
7
6
CONTINUOUS
0
ENDTAB
0
ENDSEC
0
SECTION
2
ENTITIES
0
LINE
8
0
6
CONTINUOUS
10
30.0
20
-18.51
30
0
11
30.0
21
50.0
31
0
0
LINE
8
0
6
CONTINUOUS
10
20.0
20
-18.51
30
0
11
20.0
21
50.0
31
0
0
LINE
8
0
6
CONTINUOUS
10
79.0
20
-18.51
30
0
11
79.0
21
50.0
31
0
0
LINE
8
0
6
CONTINUOUS
10
0.0
20
-18.51
30
0
11
0.0
21
50.0
31
0
0
LINE
8
0
6
CONTINUOUS
10
-1.1
20
0.0
30
0
11
79.0
21
0.0
31
0
0
LINE
8
0
6
CONTINUOUS
10
20.0
20
5.0
30
0
11
20.0
21
50.0
31
0
0
LINE
8
0
6
CONTINUOUS
10
20.0
20
50.0
30
0
11
0.0
21
50.0
31
0
0
LINE
8
0
6
CONTINUOUS
10
0.0
20
50.0
30
0
11
0.0
21
5.0
31
0
0
LINE
8
0
6
CONTINUOUS
10
0.0
20
5.0
30
0
11
20.0
21
5.0
31
0
0
LINE
8
0
6
CONTINUOUS
10
30.0
20
38.0
30
0
11
79.0
21
38.0
31
0
0
LINE
8
0
6
CONTINUOUS
10
30.0
20
38.0
30
0
11
30.0
21
11.48
31
0
0
LINE
8
0
6
CONTINUOUS
10
30.0
20
29.48
30
0
11
79.0
21
29.48
31
0
0
LINE
8
0
6
CONTINUOUS
10
41.55
20
20.0
30
0
11
41.55
21
-0.0
31
0
0
LINE
8
0
6
CONTINUOUS
10
53.09
20
20.0
30
0
11
53.09
21
-0.0
31
0
0
LINE
8
0
6
CONTINUOUS
10
79.0
20
20.0
30
0
11
30.0
21
20.0
31
0
0
LINE
8
0
6
CONTINUOUS
10
79.0
20
20.0
30
0
11
79.0
21
-0.0
31
0
0
LINE
8
0
6
CONTINUOUS
10
30.0
20
20.0
30
0
11
30.0
21
-0.0
31
0
0
LINE
8
0
6
CONTINUOUS
10
30.0
20
0.0
30
0
11
79.0
21
-0.0
31
0
0
LINE
8
0
6
CONTINUOUS
10
79.0
20
20.0
30
0
11
30.0
21
20.0
31
0
0
LINE
8
0
6
CONTINUOUS
10
30.0
20
20.0
30
0
11
30.0
21
0.0
31
0
0
LINE
8
0
6
CONTINUOUS
10
30.0
20
0.0
30
0
11
79.0
21
-0.0
31
0
0
LINE
8
0
6
CONTINUOUS
10
79.0
20
-0.0
30
0
11
79.0
21
20.0
31
0
0
LINE
8
0
6
CONTINUOUS
10
30.0
20
0.0
30
0
11
79.0
21
-0.0
31
0
0
LINE
8
0
6
CONTINUOUS
10
30.0
20
20.0
30
0
11
30.0
21
0.0
31
0
0
LINE
8
0
6
CONTINUOUS
10
79.0
20
20.0
30
0
11
30.0
21
20.0
31
0
0
LINE
8
0
6
CONTINUOUS
10
79.0
20
-0.0
30
0
11
79.0
21
20.0
31
0
0
LINE
8
0
6
CONTINUOUS
10
41.55
20
20.0
30
0
11
41.55
21
-0.0
31
0
0
LINE
8
0
6
CONTINUOUS
10
53.09
20
-0.0
30
0
11
30.0
21
-0.0
31
0
0
LINE
8
0
6
CONTINUOUS
10
53.09
20
20.0
30
0
11
53.09
21
-0.0
31
0
0
LINE
8
0
6
CONTINUOUS
10
30.0
20
20.0
30
0
11
30.0
21
-0.0
31
0
0
LINE
8
0
6
CONTINUOUS
10
30.0
20
20.0
30
0
11
53.09
21
20.0
31
0
0
LINE
8
0
6
CONTINUOUS
10
41.55
20
-0.0
30
0
11
53.09
21
20.0
31
0
0
LINE
8
0
6
CONTINUOUS
10
64.64
20
20.0
30
0
11
64.64
21
-0.0
31
0
0
LINE
8
0
6
CONTINUOUS
10
76.19
20
0.0
30
0
11
53.09
21
0.0
31
0
0
LINE
8
0
6
CONTINUOUS
10
76.19
20
20.0
30
0
11
76.19
21
-0.0
31
0
0
LINE
8
0
6
CONTINUOUS
10
53.09
20
20.0
30
0
11
53.09
21
-0.0
31
0
0
LINE
8
0
6
CONTINUOUS
10
53.09
20
20.0
30
0
11
76.19
21
20.0
31
0
0
LINE
8
0
6
CONTINUOUS
10
64.64
20
-0.0
30
0
11
76.19
21
20.0
31
0
0
LINE
8
0
6
CONTINUOUS
10
41.55
20
20.0
30
0
11
41.55
21
-0.0
31
0
0
LINE
8
0
6
CONTINUOUS
10
53.09
20
-0.0
30
0
11
30.0
21
-0.0
31
0
0
LINE
8
0
6
CONTINUOUS
10
53.09
20
20.0
30
0
11
53.09
21
-0.0
31
0
0
LINE
8
0
6
CONTINUOUS
10
30.0
20
20.0
30
0
11
30.0
21
-0.0
31
0
0
LINE
8
0
6
CONTINUOUS
10
30.0
20
20.0
30
0
11
53.09
21
20.0
31
0
0
LINE
8
0
6
CONTINUOUS
10
30.0
20
20.0
30
0
11
41.55
21
-0.0
31
0
0
LINE
8
0
6
CONTINUOUS
10
64.64
20
20.0
30
0
11
64.64
21
-0.0
31
0
0
LINE
8
0
6
CONTINUOUS
10
76.19
20
0.0
30
0
11
53.09
21
0.0
31
0
0
LINE
8
0
6
CONTINUOUS
10
76.19
20
20.0
30
0
11
76.19
21
-0.0
31
0
0
LINE
8
0
6
CONTINUOUS
10
53.09
20
20.0
30
0
11
53.09
21
-0.0
31
0
0
LINE
8
0
6
CONTINUOUS
10
53.09
20
20.0
30
0
11
76.19
21
20.0
31
0
0
LINE
8
0
6
CONTINUOUS
10
53.09
20
20.0
30
0
11
64.64
21
-0.0
31
0
0
LINE
8
0
6
CONTINUOUS
10
79.0
20
20.0
30
0
11
79.0
21
15.13
31
0
0
LINE
8
0
6
CONTINUOUS
10
76.19
20
20.0
30
0
11
76.19
21
15.13
31
0
0
LINE
8
0
6
CONTINUOUS
10
76.19
20
20.0
30
0
11
79.0
21
20.0
31
0
0
LINE
8
0
6
CONTINUOUS
10
79.0
20
20.0
30
0
11
76.19
21
20.0
31
0
0
LINE
8
0
6
CONTINUOUS
10
79.0
20
20.0
30
0
11
79.0
21
15.13
31
0
0
LINE
8
0
6
CONTINUOUS
10
79.0
20
15.13
30
0
11
76.19
21
20.0
31
0
0
LINE
8
0
6
CONTINUOUS
10
44.0
20
-2.0
30
0
11
20.0
21
-2.0
31
0
0
LINE
8
0
6
CONTINUOUS
10
44.0
20
-2.0
30
0
11
44.0
21
22.0
31
0
0
LINE
8
0
6
CONTINUOUS
10
20.0
20
-2.0
30
0
11
20.0
21
22.0
31
0
0
LINE
8
0
6
CONTINUOUS
10
20.0
20
-0.0
30
0
11
44.0
21
-0.0
31
0
0
LINE
8
0
6
CONTINUOUS
10
21.0
20
22.0
30
0
11
21.0
21
-2.0
31
0
0
LINE
8
0
6
CONTINUOUS
10
21.0
20
-2.0
30
0
11
44.0
21
-2.0
31
0
0
LINE
8
0
6
CONTINUOUS
10
44.0
20
-2.0
30
0
11
44.0
21
-1.01
31
0
0
LINE
8
0
6
CONTINUOUS
10
44.0
20
-1.01
30
0
11
39.0
21
-1.01
31
0
0
LINE
8
0
6
CONTINUOUS
10
21.0
20
22.0
30
0
11
21.99
21
22.0
31
0
0
LINE
8
0
6
CONTINUOUS
10
21.99
20
22.0
30
0
11
21.99
21
17.0
31
0
0
ENDSEC
0
EOF