0
SECTION
2
HEADER
0
ENDSEC
0
SECTION
2
TABLES
0
TABLE
2
LTYPE
70
2
0
LTYPE
2
CONTINUOUS
70
0
3
Solid line
72
65
73
0
40
0.0
0
ENDTAB
0
TABLE
2
LAYER
70
1
0
LAYER
2
0
70
0
62
7
6
CONTINUOUS
0
ENDTAB
0
ENDSEC
0
SECTION
2
ENTITIES
0
LINE
8
0
6
CONTINUOUS
10
25.0
20
-18.51
30
0
11
25.0
21
50.0
31
0
0
LINE
8
0
6
CONTINUOUS
10
15.0
20
-18.51
30
0
11
15.0
21
50.0
31
0
0
LINE
8
0
6
CONTINUOUS
10
100.0
20
-18.51
30
0
11
100.0
21
50.0
31
0
0
LINE
8
0
6
CONTINUOUS
10
0.0
20
-18.51
30
0
11
0.0
21
50.0
31
0
0
LINE
8
0
6
CONTINUOUS
10
-1.1
20
0.0
30
0
11
100.0
21
0.0
31
0
0
LINE
8
0
6
CONTINUOUS
10
36.55
20
-10.0
30
0
11
36.55
21
10.0
31
0
0
LINE
8
0
6
CONTINUOUS
10
48.09
20
-10.0
30
0
11
48.09
21
10.0
31
0
0
LINE
8
0
6
CONTINUOUS
10
100.0
20
-10.0
30
0
11
25.0
21
-10.0
31
0
0
LINE
8
0
6
CONTINUOUS
10
100.0
20
-10.0
30
0
11
100.0
21
10.0
31
0
0
LINE
8
0
6
CONTINUOUS
10
25.0
20
-10.0
30
0
11
25.0
21
10.0
31
0
0
LINE
8
0
6
CONTINUOUS
10
25.0
20
10.0
30
0
11
100.0
21
10.0
31
0
0
LINE
8
0
6
CONTINUOUS
10
100.0
20
-10.0
30
0
11
100.0
21
10.0
31
0
0
LINE
8
0
6
CONTINUOUS
10
100.0
20
10.0
30
0
11
25.0
21
10.0
31
0
0
LINE
8
0
6
CONTINUOUS
10
25.0
20
10.0
30
0
11
25.0
21
-10.0
31
0
0
LINE
8
0
6
CONTINUOUS
10
25.0
20
-10.0
30
0
11
100.0
21
-10.0
31
0
0
LINE
8
0
6
CONTINUOUS
10
25.0
20
10.0
30
0
11
100.0
21
10.0
31
0
0
LINE
8
0
6
CONTINUOUS
10
25.0
20
-10.0
30
0
11
25.0
21
10.0
31
0
0
LINE
8
0
6
CONTINUOUS
10
100.0
20
-10.0
30
0
11
25.0
21
-10.0
31
0
0
LINE
8
0
6
CONTINUOUS
10
100.0
20
10.0
30
0
11
100.0
21
-10.0
31
0
0
LINE
8
0
6
CONTINUOUS
10
36.55
20
-10.0
30
0
11
36.55
21
10.0
31
0
0
LINE
8
0
6
CONTINUOUS
10
48.09
20
10.0
30
0
11
25.0
21
10.0
31
0
0
LINE
8
0
6
CONTINUOUS
10
48.09
20
-10.0
30
0
11
48.09
21
10.0
31
0
0
LINE
8
0
6
CONTINUOUS
10
25.0
20
-10.0
30
0
11
25.0
21
10.0
31
0
0
LINE
8
0
6
CONTINUOUS
10
25.0
20
-10.0
30
0
11
48.09
21
-10.0
31
0
0
LINE
8
0
6
CONTINUOUS
10
36.55
20
10.0
30
0
11
48.09
21
-10.0
31
0
0
LINE
8
0
6
CONTINUOUS
10
59.64
20
-10.0
30
0
11
59.64
21
10.0
31
0
0
LINE
8
0
6
CONTINUOUS
10
71.19
20
10.0
30
0
11
48.09
21
10.0
31
0
0
LINE
8
0
6
CONTINUOUS
10
71.19
20
-10.0
30
0
11
71.19
21
10.0
31
0
0
LINE
8
0
6
CONTINUOUS
10
48.09
20
-10.0
30
0
11
48.09
21
10.0
31
0
0
LINE
8
0
6
CONTINUOUS
10
48.09
20
-10.0
30
0
11
71.19
21
-10.0
31
0
0
LINE
8
0
6
CONTINUOUS
10
59.64
20
10.0
30
0
11
71.19
21
-10.0
31
0
0
LINE
8
0
6
CONTINUOUS
10
36.55
20
-10.0
30
0
11
36.55
21
10.0
31
0
0
LINE
8
0
6
CONTINUOUS
10
48.09
20
10.0
30
0
11
25.0
21
10.0
31
0
0
LINE
8
0
6
CONTINUOUS
10
48.09
20
-10.0
30
0
11
48.09
21
10.0
31
0
0
LINE
8
0
6
CONTINUOUS
10
25.0
20
-10.0
30
0
11
25.0
21
10.0
31
0
0
LINE
8
0
6
CONTINUOUS
10
25.0
20
-10.0
30
0
11
48.09
21
-10.0
31
0
0
LINE
8
0
6
CONTINUOUS
10
25.0
20
-10.0
30
0
11
36.55
21
10.0
31
0
0
LINE
8
0
6
CONTINUOUS
10
59.64
20
-10.0
30
0
11
59.64
21
10.0
31
0
0
LINE
8
0
6
CONTINUOUS
10
71.19
20
10.0
30
0
11
48.09
21
10.0
31
0
0
LINE
8
0
6
CONTINUOUS
10
71.19
20
-10.0
30
0
11
71.19
21
10.0
31
0
0
LINE
8
0
6
CONTINUOUS
10
48.09
20
-10.0
30
0
11
48.09
21
10.0
31
0
0
LINE
8
0
6
CONTINUOUS
10
48.09
20
-10.0
30
0
11
71.19
21
-10.0
31
0
0
LINE
8
0
6
CONTINUOUS
10
48.09
20
-10.0
30
0
11
59.64
21
10.0
31
0
0
LINE
8
0
6
CONTINUOUS
10
82.74
20
-10.0
30
0
11
82.74
21
10.0
31
0
0
LINE
8
0
6
CONTINUOUS
10
94.28
20
10.0
30
0
11
71.19
21
10.0
31
0
0
LINE
8
0
6
CONTINUOUS
10
94.28
20
-10.0
30
0
11
94.28
21
10.0
31
0
0
LINE
8
0
6
CONTINUOUS
10
71.19
20
-10.0
30
0
11
71.19
21
10.0
31
0
0
LINE
8
0
6
CONTINUOUS
10
71.19
20
-10.0
30
0
11
94.28
21
-10.0
31
0
0
LINE
8
0
6
CONTINUOUS
10
71.19
20
-10.0
30
0
11
82.74
21
10.0
31
0
0
LINE
8
0
6
CONTINUOUS
10
82.74
20
-10.0
30
0
11
82.74
21
10.0
31
0
0
LINE
8
0
6
CONTINUOUS
10
94.28
20
10.0
30
0
11
71.19
21
10.0
31
0
0
LINE
8
0
6
CONTINUOUS
10
94.28
20
-10.0
30
0
11
94.28
21
10.0
31
0
0
LINE
8
0
6
CONTINUOUS
10
71.19
20
-10.0
30
0
11
71.19
21
10.0
31
0
0
LINE
8
0
6
CONTINUOUS
10
71.19
20
-10.0
30
0
11
94.28
21
-10.0
31
0
0
LINE
8
0
6
CONTINUOUS
10
82.74
20
10.0
30
0
11
94.28
21
-10.0
31
0
0
LINE
8
0
6
CONTINUOUS
10
100.0
20
-10.0
30
0
11
100.0
21
-0.1
31
0
0
LINE
8
0
6
CONTINUOUS
10
94.28
20
-10.0
30
0
11
94.28
21
-0.1
31
0
0
LINE
8
0
6
CONTINUOUS
10
94.28
20
-10.0
30
0
11
100.0
21
-10.0
31
0
0
LINE
8
0
6
CONTINUOUS
10
100.0
20
-10.0
30
0
11
94.28
21
-10.0
31
0
0
LINE
8
0
6
CONTINUOUS
10
100.0
20
-10.0
30
0
11
100.0
21
-0.1
31
0
0
LINE
8
0
6
CONTINUOUS
10
100.0
20
-0.1
30
0
11
94.28
21
-10.0
31
0
0
LINE
8
0
6
CONTINUOUS
10
15.0
20
5.0
30
0
11
15.0
21
50.0
31
0
0
LINE
8
0
6
CONTINUOUS
10
15.0
20
50.0
30
0
11
0.0
21
50.0
31
0
0
LINE
8
0
6
CONTINUOUS
10
0.0
20
50.0
30
0
11
0.0
21
5.0
31
0
0
LINE
8
0
6
CONTINUOUS
10
0.0
20
5.0
30
0
11
15.0
21
5.0
31
0
0
LINE
8
0
6
CONTINUOUS
10
25.0
20
38.0
30
0
11
100.0
21
38.0
31
0
0
LINE
8
0
6
CONTINUOUS
10
25.0
20
38.0
30
0
11
25.0
21
11.48
31
0
0
LINE
8
0
6
CONTINUOUS
10
25.0
20
29.48
30
0
11
100.0
21
29.48
31
0
0
LINE
8
0
6
CONTINUOUS
10
40.0
20
0.0
30
0
11
24.84
21
0.0
31
0
0
LINE
8
0
6
CONTINUOUS
10
24.84
20
0.0
30
0
11
24.84
21
-10.16
31
0
0
LINE
8
0
6
CONTINUOUS
10
24.84
20
-10.16
30
0
11
41.21
21
-10.16
31
0
0
LINE
8
0
6
CONTINUOUS
10
41.21
20
-10.16
30
0
11
40.0
21
-8.94
31
0
0
LINE
8
0
6
CONTINUOUS
10
40.0
20
-8.94
30
0
11
40.0
21
0.0
31
0
0
LINE
8
0
6
CONTINUOUS
10
39.0
20
-2.0
30
0
11
15.0
21
-2.0
31
0
0
LINE
8
0
6
CONTINUOUS
10
39.0
20
-2.0
30
0
11
39.0
21
22.0
31
0
0
LINE
8
0
6
CONTINUOUS
10
15.0
20
-2.0
30
0
11
15.0
21
22.0
31
0
0
LINE
8
0
6
CONTINUOUS
10
15.0
20
0.0
30
0
11
39.0
21
0.0
31
0
0
LINE
8
0
6
CONTINUOUS
10
16.0
20
22.0
30
0
11
16.0
21
-2.0
31
0
0
LINE
8
0
6
CONTINUOUS
10
16.0
20
-2.0
30
0
11
39.0
21
-2.0
31
0
0
LINE
8
0
6
CONTINUOUS
10
39.0
20
-2.0
30
0
11
39.0
21
-1.01
31
0
0
LINE
8
0
6
CONTINUOUS
10
39.0
20
-1.01
30
0
11
34.0
21
-1.01
31
0
0
LINE
8
0
6
CONTINUOUS
10
16.0
20
22.0
30
0
11
16.99
21
22.0
31
0
0
LINE
8
0
6
CONTINUOUS
10
16.99
20
22.0
30
0
11
16.99
21
17.0
31
0
0
ENDSEC
0
EOF