0
SECTION
2
HEADER
0
ENDSEC
0
SECTION
2
TABLES
0
TABLE
2
LTYPE
70
2
0
LTYPE
2
CONTINUOUS
70
0
3
Solid line
72
65
73
0
40
0.0
0
ENDTAB
0
TABLE
2
LAYER
70
1
0
LAYER
2
0
70
0
62
7
6
CONTINUOUS
0
ENDTAB
0
ENDSEC
0
SECTION
2
ENTITIES
0
LINE
8
0
6
CONTINUOUS
10
118.0
20
-60.0
30
0
11
118.0
21
81.29
31
0
0
LINE
8
0
6
CONTINUOUS
10
-118.0
20
-60.0
30
0
11
-118.0
21
81.29
31
0
0
LINE
8
0
6
CONTINUOUS
10
0.0
20
-60.0
30
0
11
0.0
21
81.29
31
0
0
LINE
8
0
6
CONTINUOUS
10
-136.44
20
0.0
30
0
11
154.38
21
0.0
31
0
0
LINE
8
0
6
CONTINUOUS
10
-83.68
20
19.35
30
0
11
-100.57
21
19.35
31
0
0
ARC
8
0
6
CONTINUOUS
10
-100.57695874492624
20
21.64998947299092
30
0
40
2.3
50
194.86350274876645
51
270.1733510101181
0
LINE
8
0
6
CONTINUOUS
10
-102.8
20
21.06
30
0
11
-105.49
21
31.11
31
0
0
ARC
8
0
6
CONTINUOUS
10
-106.37814463799907
20
30.87000187085416
30
0
40
0.92
50
15.121544622767733
51
90.11554835236953
0
LINE
8
0
6
CONTINUOUS
10
-106.38
20
31.79
30
0
11
-109.11
21
31.79
31
0
0
ARC
8
0
6
CONTINUOUS
10
-109.10348284639994
20
30.870023083599943
30
0
40
0.92
50
90.40587882475562
51
175.0129010899677
0
LINE
8
0
6
CONTINUOUS
10
-110.02
20
30.95
30
0
11
-111.1
21
18.69
31
0
0
ARC
8
0
6
CONTINUOUS
10
-113.39128787895122
20
18.889999639427757
30
0
40
2.3
50
270.0320826227324
51
355.01146704088757
0
LINE
8
0
6
CONTINUOUS
10
-113.39
20
16.59
30
0
11
-122.61
21
16.59
31
0
0
ARC
8
0
6
CONTINUOUS
10
-122.61504869083402
20
18.889994458845685
30
0
40
2.3
50
190.01526999533704
51
270.12576909093804
0
LINE
8
0
6
CONTINUOUS
10
-124.88
20
18.49
30
0
11
-127.02
21
30.65
31
0
0
ARC
8
0
6
CONTINUOUS
10
-128.37897026619748
20
30.41000038418545
30
0
40
1.38
50
10.015393970541215
51
90.04275319302964
0
LINE
8
0
6
CONTINUOUS
10
-128.38
20
31.79
30
0
11
-133.12
21
31.79
31
0
0
ARC
8
0
6
CONTINUOUS
10
-133.125048690834
20
29.490005541154314
30
0
40
2.3
50
89.8742309090623
51
169.98473000466296
0
LINE
8
0
6
CONTINUOUS
10
-135.39
20
29.89
30
0
11
-136.44
21
23.96
31
0
0
LINE
8
0
6
CONTINUOUS
10
-136.44
20
23.96
30
0
11
-133.65
21
8.35
31
0
0
ARC
8
0
6
CONTINUOUS
10
-131.385048690834
20
8.749994458845688
30
0
40
2.3
50
190.01526999533695
51
270.1257690909377
0
LINE
8
0
6
CONTINUOUS
10
-131.38
20
6.45
30
0
11
-127.07
21
6.45
31
0
0
ARC
8
0
6
CONTINUOUS
10
-127.06925916351445
20
7.8299998011453855
30
0
40
1.38
50
269.96924144494926
51
321.4506661166737
0
ARC
8
0
6
CONTINUOUS
10
-124.19136590747364
20
5.520512021021946
30
0
40
2.31
50
91.20637841657499
51
141.13526235053374
0
LINE
8
0
6
CONTINUOUS
10
-124.24
20
7.83
30
0
11
-105.38
21
7.83
31
0
0
ARC
8
0
6
CONTINUOUS
10
-105.37254039583267
20
5.530012096921885
30
0
40
2.3
50
44.42658202940541
51
90.18582808040956
0
ARC
8
0
6
CONTINUOUS
10
-102.08552841527208
20
8.748015300618254
30
0
40
2.3
50
224.35781332231988
51
272.3804130046447
0
LINE
8
0
6
CONTINUOUS
10
-101.99
20
6.45
30
0
11
-71.39
21
6.45
31
0
0
ARC
8
0
6
CONTINUOUS
10
-71.38202109450471
20
4.610017299791355
30
0
40
1.84
50
16.740295578117518
51
90.2484560015003
0
LINE
8
0
6
CONTINUOUS
10
-69.62
20
5.14
30
0
11
-68.61
21
1.36
31
0
0
ARC
8
0
6
CONTINUOUS
10
-66.83371072400186
20
1.8399962582916802
30
0
40
1.84
50
195.1215446227679
51
270.11554835236996
0
LINE
8
0
6
CONTINUOUS
10
-66.83
20
-0.0
30
0
11
-62.18
21
-0.0
31
0
0
ARC
8
0
6
CONTINUOUS
10
-62.17212810600961
20
1.8399831611417001
30
0
40
1.84
50
269.7548762617975
51
333.88283159488293
0
ARC
8
0
6
CONTINUOUS
10
-57.21102565829208
20
-0.6030305587828444
30
0
40
3.69
50
81.88274571037779
51
153.73294065963995
0
ARC
8
0
6
CONTINUOUS
10
-50.305091502186286
20
48.22966406808035
30
0
40
45.63
50
261.9436462840771
51
270.21985598778815
0
LINE
8
0
6
CONTINUOUS
10
-50.13
20
2.6
30
0
11
1.02
21
2.6
31
0
0
LINE
8
0
6
CONTINUOUS
10
1.02
20
2.6
30
0
11
30.79
21
2.6
31
0
0
ARC
8
0
6
CONTINUOUS
10
30.788858981288453
20
71.26999999052043
30
0
40
68.67
50
270.00095202499665
51
291.2522568364057
0
ARC
8
0
6
CONTINUOUS
10
57.01687992594989
20
3.830690176271956
30
0
40
3.69
50
15.068612085028057
51
111.24139640530922
0
LINE
8
0
6
CONTINUOUS
10
60.58
20
4.79
30
0
11
61.49
21
1.36
31
0
0
ARC
8
0
6
CONTINUOUS
10
63.26697736116859
20
1.8374426226200304
30
0
40
1.84
50
195.0391908136395
51
266.97882110134975
0
LINE
8
0
6
CONTINUOUS
10
63.17
20
0.0
30
0
11
67.69
21
0.0
31
0
0
ARC
8
0
6
CONTINUOUS
10
67.68803955109126
20
1.8399989556084202
30
0
40
1.84
50
270.06104645090954
51
349.9846228563293
0
LINE
8
0
6
CONTINUOUS
10
69.5
20
1.52
30
0
11
70.68
21
8.23
31
0
0
ARC
8
0
6
CONTINUOUS
10
93.37854898675208
20
4.220215230711689
30
0
40
23.05
50
133.0288515768478
51
169.98184068907727
0
ARC
8
0
6
CONTINUOUS
10
30.80307441986593
20
71.29258419963455
30
0
40
68.68
50
313.00830269094195
51
320.92389326613517
0
ARC
8
0
6
CONTINUOUS
10
112.3873011930247
20
5.067061172566124
30
0
40
36.4
50
93.72890564109709
51
140.94797455402787
0
ARC
8
0
6
CONTINUOUS
10
110.25635266006333
20
37.70757723501484
30
0
40
3.69
50
10.026189619202338
51
93.67243544830198
0
LINE
8
0
6
CONTINUOUS
10
113.89
20
38.35
30
0
11
116.56
21
23.18
31
0
0
ARC
8
0
6
CONTINUOUS
10
118.37214534445768
20
23.498950232105873
30
0
40
1.84
50
189.98221727896427
51
268.06448735910226
0
LINE
8
0
6
CONTINUOUS
10
118.31
20
21.66
30
0
11
121.0
21
21.66
31
0
0
ARC
8
0
6
CONTINUOUS
10
121.0080366360333
20
23.499982448960118
30
0
40
1.84
50
269.74974630964
51
349.98514481061443
0
LINE
8
0
6
CONTINUOUS
10
122.82
20
23.18
30
0
11
124.77
21
34.24
31
0
0
ARC
8
0
6
CONTINUOUS
10
128.4018954905884
20
33.58774610354279
30
0
40
3.69
50
60.8373053635601
51
169.81875465803893
0
ARC
8
0
6
CONTINUOUS
10
112.38971412152995
20
5.064863097992944
30
0
40
36.4
50
25.804764110517098
51
60.70583957383471
0
ARC
8
0
6
CONTINUOUS
10
147.65174664294807
20
22.11999944932096
30
0
40
2.77
50
205.90134505191673
51
269.96387174156246
0
LINE
8
0
6
CONTINUOUS
10
147.65
20
19.35
30
0
11
152.02
21
19.35
31
0
0
ARC
8
0
6
CONTINUOUS
10
152.02
20
21.35
30
0
40
2.0
50
270.0
51
0.0
0
LINE
8
0
6
CONTINUOUS
10
154.02
20
21.35
30
0
11
154.02
21
24.88
31
0
0
ARC
8
0
6
CONTINUOUS
10
101.30055785225595
20
-7.271561698161186
30
0
40
61.75
50
31.377410131026856
51
48.08655781673275
0
ARC
8
0
6
CONTINUOUS
10
112.3898026073077
20
5.067679442891244
30
0
40
45.16
50
48.09850134867042
51
140.94739327613726
0
ARC
8
0
6
CONTINUOUS
10
30.794858230625465
20
71.27999977939092
30
0
40
59.92
50
270.0049165835239
51
320.9370712818801
0
LINE
8
0
6
CONTINUOUS
10
30.8
20
11.35
30
0
11
1.02
21
11.35
31
0
0
LINE
8
0
6
CONTINUOUS
10
1.02
20
11.35
30
0
11
-50.28
21
11.35
31
0
0
ARC
8
0
6
CONTINUOUS
10
-50.27331498305892
20
48.21999939395915
30
0
40
36.87
50
221.1878548456974
51
269.9896115199675
0
ARC
8
0
6
CONTINUOUS
10
-80.09752151060346
20
22.12299576968574
30
0
40
2.76
50
41.17300351914786
51
84.43769690987565
0
LINE
8
0
6
CONTINUOUS
10
-79.83
20
24.87
30
0
11
-80.74
21
24.88
31
0
0
ARC
8
0
6
CONTINUOUS
10
-80.7434842851137
20
23.96000659798168
30
0
40
0.92
50
89.78300509904534
51
175.01187049595555
0
LINE
8
0
6
CONTINUOUS
10
-81.66
20
24.04
30
0
11
-81.92
21
21.03
31
0
0
ARC
8
0
6
CONTINUOUS
10
-83.75315668999157
20
21.18854510380069
30
0
40
1.84
50
272.27862755078644
51
355.0569327414742
0
ARC
8
0
6
CONTINUOUS
10
-50.273314983058924
20
78.21999939395914
30
0
40
36.87
50
221.1878548456974
51
269.9896115199676
0
LINE
8
0
6
CONTINUOUS
10
-50.28
20
41.35
30
0
11
1.02
21
41.35
31
0
0
LINE
8
0
6
CONTINUOUS
10
1.02
20
41.35
30
0
11
30.8
21
41.35
31
0
0
ARC
8
0
6
CONTINUOUS
10
30.794858230625465
20
101.27999977939092
30
0
40
59.92
50
270.0049165835239
51
320.9370712818801
0
ARC
8
0
6
CONTINUOUS
10
112.3898026073077
20
35.06767944289125
30
0
40
45.16
50
48.09850134867042
51
140.94739327613726
0
ARC
8
0
6
CONTINUOUS
10
101.30055785225595
20
22.72843830183882
30
0
40
61.75
50
31.377410131026853
51
48.08655781673275
0
LINE
8
0
6
CONTINUOUS
10
154.02
20
54.88
30
0
11
154.02
21
24.88
31
0
0
LINE
8
0
6
CONTINUOUS
10
-39.45
20
-18.0
30
0
11
-46.72
21
-0.0
31
0
0
LINE
8
0
6
CONTINUOUS
10
-19.11
20
-18.0
30
0
11
-39.45
21
-18.0
31
0
0
LINE
8
0
6
CONTINUOUS
10
-13.26
20
-0.0
30
0
11
-19.11
21
-18.0
31
0
0
LINE
8
0
6
CONTINUOUS
10
9.21
20
-0.0
30
0
11
15.06
21
-18.0
31
0
0
LINE
8
0
6
CONTINUOUS
10
15.06
20
-18.0
30
0
11
35.4
21
-18.0
31
0
0
LINE
8
0
6
CONTINUOUS
10
35.4
20
-18.0
30
0
11
42.68
21
-0.0
31
0
0
ENDSEC
0
EOF