0
SECTION
2
HEADER
0
ENDSEC
0
SECTION
2
TABLES
0
TABLE
2
LTYPE
70
2
0
LTYPE
2
CONTINUOUS
70
0
3
Solid line
72
65
73
0
40
0.0
0
ENDTAB
0
TABLE
2
LAYER
70
1
0
LAYER
2
0
70
0
62
7
6
CONTINUOUS
0
ENDTAB
0
ENDSEC
0
SECTION
2
ENTITIES
0
LINE
8
0
6
CONTINUOUS
10
118.0
20
-60.0
30
0
11
118.0
21
81.29
31
0
0
LINE
8
0
6
CONTINUOUS
10
-118.0
20
-60.0
30
0
11
-118.0
21
81.29
31
0
0
LINE
8
0
6
CONTINUOUS
10
0.0
20
-60.0
30
0
11
0.0
21
81.29
31
0
0
LINE
8
0
6
CONTINUOUS
10
-136.44
20
0.0
30
0
11
154.38
21
0.0
31
0
0
LINE
8
0
6
CONTINUOUS
10
-134.65
20
21.04
30
0
11
-134.65
21
17.98
31
0
0
LINE
8
0
6
CONTINUOUS
10
-134.65
20
17.98
30
0
11
-133.75
21
17.98
31
0
0
LINE
8
0
6
CONTINUOUS
10
-133.75
20
17.98
30
0
11
-133.12
21
14.39
31
0
0
LINE
8
0
6
CONTINUOUS
10
-133.12
20
14.39
30
0
11
-124.75
21
14.39
31
0
0
LINE
8
0
6
CONTINUOUS
10
-124.75
20
14.39
30
0
11
-121.63
21
26.05
31
0
0
ARC
8
0
6
CONTINUOUS
10
-89.65189512375868
20
2.692756829537597
30
0
40
39.6
50
28.43705520378232
51
143.85509907360287
0
LINE
8
0
6
CONTINUOUS
10
-54.83
20
21.55
30
0
11
-52.51
21
17.83
31
0
0
LINE
8
0
6
CONTINUOUS
10
-52.51
20
17.83
30
0
11
-50.47
21
15.22
31
0
0
LINE
8
0
6
CONTINUOUS
10
-50.47
20
15.22
30
0
11
-47.43
21
12.08
31
0
0
LINE
8
0
6
CONTINUOUS
10
-47.43
20
12.08
30
0
11
-44.0
21
9.32
31
0
0
LINE
8
0
6
CONTINUOUS
10
-44.0
20
9.32
30
0
11
-40.46
21
7.11
31
0
0
LINE
8
0
6
CONTINUOUS
10
-40.46
20
7.11
30
0
11
-37.32
21
5.58
31
0
0
LINE
8
0
6
CONTINUOUS
10
-37.32
20
5.58
30
0
11
-32.76
21
3.98
31
0
0
LINE
8
0
6
CONTINUOUS
10
-32.76
20
3.98
30
0
11
-25.04
21
2.93
31
0
0
LINE
8
0
6
CONTINUOUS
10
-25.04
20
2.93
30
0
11
-23.86
21
-0.02
31
0
0
LINE
8
0
6
CONTINUOUS
10
-23.86
20
-0.02
30
0
11
-17.36
21
-0.02
31
0
0
LINE
8
0
6
CONTINUOUS
10
-17.36
20
-0.02
30
0
11
-16.63
21
2.69
31
0
0
LINE
8
0
6
CONTINUOUS
10
-16.63
20
2.69
30
0
11
34.25
21
2.69
31
0
0
ARC
8
0
6
CONTINUOUS
10
30.79689407439323
20
71.27312445103782
30
0
40
68.67
50
272.88236306609525
51
291.24506362257904
0
ARC
8
0
6
CONTINUOUS
10
57.01687992594989
20
3.830690176271956
30
0
40
3.69
50
15.068612085028057
51
111.24139640530922
0
LINE
8
0
6
CONTINUOUS
10
60.58
20
4.79
30
0
11
61.49
21
1.36
31
0
0
ARC
8
0
6
CONTINUOUS
10
63.26697736116859
20
1.8374426226200304
30
0
40
1.84
50
195.0391908136395
51
266.97882110134975
0
LINE
8
0
6
CONTINUOUS
10
63.17
20
0.0
30
0
11
67.69
21
0.0
31
0
0
ARC
8
0
6
CONTINUOUS
10
67.68803955109126
20
1.8399989556084202
30
0
40
1.84
50
270.06104645090954
51
349.9846228563293
0
LINE
8
0
6
CONTINUOUS
10
69.5
20
1.52
30
0
11
70.68
21
8.23
31
0
0
ARC
8
0
6
CONTINUOUS
10
93.37854898675208
20
4.220215230711689
30
0
40
23.05
50
133.0288515768478
51
169.98184068907727
0
ARC
8
0
6
CONTINUOUS
10
30.80307441986593
20
71.29258419963455
30
0
40
68.68
50
313.00830269094195
51
320.92389326613517
0
ARC
8
0
6
CONTINUOUS
10
112.3873011930247
20
5.067061172566124
30
0
40
36.4
50
93.72890564109709
51
140.94797455402787
0
ARC
8
0
6
CONTINUOUS
10
110.25635266006333
20
37.70757723501484
30
0
40
3.69
50
10.026189619202338
51
93.67243544830198
0
LINE
8
0
6
CONTINUOUS
10
113.89
20
38.35
30
0
11
116.56
21
23.18
31
0
0
ARC
8
0
6
CONTINUOUS
10
118.37214534445768
20
23.498950232105873
30
0
40
1.84
50
189.98221727896427
51
268.06448735910226
0
LINE
8
0
6
CONTINUOUS
10
118.31
20
21.66
30
0
11
121.0
21
21.66
31
0
0
ARC
8
0
6
CONTINUOUS
10
121.00168572281002
20
23.499999227809244
30
0
40
1.84
50
269.94750825219865
51
349.35156618793934
0
LINE
8
0
6
CONTINUOUS
10
122.81
20
23.16
30
0
11
124.77
21
34.24
31
0
0
ARC
8
0
6
CONTINUOUS
10
128.4018954905884
20
33.58774610354279
30
0
40
3.69
50
60.8373053635601
51
169.81875465803893
0
ARC
8
0
6
CONTINUOUS
10
112.38971412152995
20
5.064863097992944
30
0
40
36.4
50
25.804764110517098
51
60.70583957383471
0
ARC
8
0
6
CONTINUOUS
10
147.65174664294807
20
22.11999944932096
30
0
40
2.77
50
205.90134505191673
51
269.96387174156246
0
LINE
8
0
6
CONTINUOUS
10
147.65
20
19.35
30
0
11
152.02
21
19.35
31
0
0
ARC
8
0
6
CONTINUOUS
10
152.02
20
21.35
30
0
40
2.0
50
270.0
51
0.0
0
LINE
8
0
6
CONTINUOUS
10
154.02
20
21.35
30
0
11
154.02
21
24.88
31
0
0
ARC
8
0
6
CONTINUOUS
10
101.30055785225595
20
-7.271561698161186
30
0
40
61.75
50
31.377410131026856
51
48.08655781673275
0
ARC
8
0
6
CONTINUOUS
10
112.3898026073077
20
5.067679442891244
30
0
40
45.16
50
48.09850134867042
51
140.94739327613726
0
ARC
8
0
6
CONTINUOUS
10
30.793439429793267
20
71.27825156845701
30
0
40
59.92
50
276.03193626690387
51
320.9392241733519
0
LINE
8
0
6
CONTINUOUS
10
37.09
20
11.69
30
0
11
0.35
21
11.69
31
0
0
LINE
8
0
6
CONTINUOUS
10
0.35
20
11.69
30
0
11
-23.18
21
11.69
31
0
0
ARC
8
0
6
CONTINUOUS
10
-23.179309188077553
20
38.68999999116258
30
0
40
27.0
50
208.44378533092768
51
269.99853405157046
0
ARC
8
0
6
CONTINUOUS
10
-89.65174933159241
20
2.6792419333199646
30
0
40
48.6
50
28.44748337117989
51
157.80293390849963
0
ARC
8
0
6
CONTINUOUS
10
-89.62174933159241
20
32.67924193331997
30
0
40
48.6
50
28.447483371179885
51
157.80293390849965
0
ARC
8
0
6
CONTINUOUS
10
-23.149229325924395
20
68.68985255751214
30
0
40
27.0
50
208.44342951517712
51
270.18935085519956
0
LINE
8
0
6
CONTINUOUS
10
28.88
20
41.69
30
0
11
-23.06
21
41.69
31
0
0
ARC
8
0
6
CONTINUOUS
10
42.89930918807755
20
68.68999999116258
30
0
40
27.0
50
270.00146594842954
51
331.55621466907235
0
ARC
8
0
6
CONTINUOUS
10
109.37745345485128
20
32.68977372205663
30
0
40
48.6
50
22.183656720444517
51
151.56663696743584
0
LINE
8
0
6
CONTINUOUS
10
42.9
20
41.69
30
0
11
28.88
21
41.69
31
0
0
LINE
8
0
6
CONTINUOUS
10
9.64
20
-0.02
30
0
11
4.46
21
-15.94
31
0
0
ARC
8
0
6
CONTINUOUS
10
1.6045474759350828
20
-15.020004955007206
30
0
40
3.0
50
270.1041355962036
51
342.1416367257916
0
LINE
8
0
6
CONTINUOUS
10
1.61
20
-18.02
30
0
11
-14.53
21
-18.02
31
0
0
ARC
8
0
6
CONTINUOUS
10
-14.526907552690517
20
-15.020001593872149
30
0
40
3.0
50
201.9213072483491
51
269.94093859647376
0
LINE
8
0
6
CONTINUOUS
10
-17.31
20
-16.14
30
0
11
-23.83
21
-0.02
31
0
0
LINE
8
0
6
CONTINUOUS
10
32.11
20
-0.02
30
0
11
37.29
21
-15.94
31
0
0
ARC
8
0
6
CONTINUOUS
10
40.14545252406492
20
-15.020004955007206
30
0
40
3.0
50
197.85836327420833
51
269.8958644037963
0
LINE
8
0
6
CONTINUOUS
10
40.14
20
-18.02
30
0
11
56.27
21
-18.02
31
0
0
ARC
8
0
6
CONTINUOUS
10
56.27690499621192
20
-15.02000794650597
30
0
40
3.0
50
269.868124170062
51
338.078823533846
0
LINE
8
0
6
CONTINUOUS
10
59.06
20
-16.14
30
0
11
65.58
21
-0.02
31
0
0
LINE
8
0
6
CONTINUOUS
10
-134.62
20
51.04
30
0
11
-134.62
21
21.11
31
0
0
LINE
8
0
6
CONTINUOUS
10
154.38
20
51.04
30
0
11
154.38
21
20.97
31
0
0
ENDSEC
0
EOF