0
SECTION
2
HEADER
0
ENDSEC
0
SECTION
2
TABLES
0
TABLE
2
LTYPE
70
2
0
LTYPE
2
CONTINUOUS
70
0
3
Solid line
72
65
73
0
40
0.0
0
ENDTAB
0
TABLE
2
LAYER
70
1
0
LAYER
2
0
70
0
62
7
6
CONTINUOUS
0
ENDTAB
0
ENDSEC
0
SECTION
2
ENTITIES
0
LINE
8
0
6
CONTINUOUS
10
118.0
20
-60.0
30
0
11
118.0
21
81.29
31
0
0
LINE
8
0
6
CONTINUOUS
10
-118.0
20
-60.0
30
0
11
-118.0
21
81.29
31
0
0
LINE
8
0
6
CONTINUOUS
10
0.0
20
-60.0
30
0
11
0.0
21
81.29
31
0
0
LINE
8
0
6
CONTINUOUS
10
-136.44
20
0.0
30
0
11
154.38
21
0.0
31
0
0
LINE
8
0
6
CONTINUOUS
10
-83.65
20
19.36
30
0
11
-100.55
21
19.36
31
0
0
ARC
8
0
6
CONTINUOUS
10
-100.54963966125487
20
21.659999971773043
30
0
40
2.3
50
195.12166458652027
51
269.9910235263586
0
LINE
8
0
6
CONTINUOUS
10
-102.77
20
21.06
30
0
11
-105.47
21
31.11
31
0
0
ARC
8
0
6
CONTINUOUS
10
-106.36078625637673
20
30.880000335977826
30
0
40
0.92
50
14.477490575681562
51
89.95103350273301
0
LINE
8
0
6
CONTINUOUS
10
-106.36
20
31.8
30
0
11
-109.08
21
31.8
31
0
0
ARC
8
0
6
CONTINUOUS
10
-109.0834842851137
20
30.88000659798168
30
0
40
0.92
50
89.78300509904534
51
175.01187049595555
0
LINE
8
0
6
CONTINUOUS
10
-110.0
20
30.96
30
0
11
-111.07
21
18.69
31
0
0
ARC
8
0
6
CONTINUOUS
10
-113.36128928721573
20
18.889983505045805
30
0
40
2.3
50
269.78300509904466
51
355.01187049595546
0
LINE
8
0
6
CONTINUOUS
10
-113.37
20
16.59
30
0
11
-122.58
21
16.59
31
0
0
ARC
8
0
6
CONTINUOUS
10
-122.58504869083401
20
18.889994458845685
30
0
40
2.3
50
190.01526999533704
51
270.12576909093804
0
LINE
8
0
6
CONTINUOUS
10
-124.85
20
18.49
30
0
11
-127.0
21
30.65
31
0
0
ARC
8
0
6
CONTINUOUS
10
-128.36069837998326
20
30.420000176715448
30
0
40
1.38
50
9.594060785792218
51
89.97100418315613
0
LINE
8
0
6
CONTINUOUS
10
-128.36
20
31.8
30
0
11
-133.1
21
31.8
31
0
0
ARC
8
0
6
CONTINUOUS
10
-133.10330596391114
20
29.50000237595718
30
0
40
2.3
50
89.91764441541058
51
170.23751921031638
0
LINE
8
0
6
CONTINUOUS
10
-135.37
20
29.89
30
0
11
-136.42
21
23.96
31
0
0
LINE
8
0
6
CONTINUOUS
10
-136.42
20
23.96
30
0
11
-133.62
21
8.36
31
0
0
ARC
8
0
6
CONTINUOUS
10
-131.35330596391114
20
8.74999762404282
30
0
40
2.3
50
189.76248078968362
51
270.08235558458944
0
LINE
8
0
6
CONTINUOUS
10
-131.35
20
6.45
30
0
11
-127.05
21
6.45
31
0
0
ARC
8
0
6
CONTINUOUS
10
-127.04925916351444
20
7.8299998011453855
30
0
40
1.38
50
269.9692414449487
51
321.45066611667335
0
ARC
8
0
6
CONTINUOUS
10
-124.17152025316528
20
5.520320518105698
30
0
40
2.31
50
90.95447145732983
51
141.12916173245765
0
LINE
8
0
6
CONTINUOUS
10
-124.21
20
7.83
30
0
11
-105.35
21
7.83
31
0
0
ARC
8
0
6
CONTINUOUS
10
-105.3525299024017
20
5.530001391393064
30
0
40
2.3
50
44.42695546532187
51
89.93697706111845
0
ARC
8
0
6
CONTINUOUS
10
-102.06511906814117
20
8.747596566308614
30
0
40
2.3
50
224.34322582619157
51
272.61955553902396
0
LINE
8
0
6
CONTINUOUS
10
-101.96
20
6.45
30
0
11
-71.36
21
6.45
31
0
0
ARC
8
0
6
CONTINUOUS
10
-71.35897706269745
20
4.610000284348045
30
0
40
1.84
50
17.06630038368491
51
90.03185325715316
0
LINE
8
0
6
CONTINUOUS
10
-69.6
20
5.15
30
0
11
-68.58
21
1.37
31
0
0
ARC
8
0
6
CONTINUOUS
10
-66.80103955186178
20
1.839999706340174
30
0
40
1.84
50
194.79934012433438
51
270.03237061817043
0
LINE
8
0
6
CONTINUOUS
10
-66.8
20
0.0
30
0
11
-62.15
21
0.0
31
0
0
ARC
8
0
6
CONTINUOUS
10
-62.15212044940771
20
1.8399987781773959
30
0
40
1.84
50
270.06602871120907
51
333.88228999504946
0
ARC
8
0
6
CONTINUOUS
10
-57.1864289968945
20
-0.5936832226079125
30
0
40
3.69
50
81.95483537231547
51
153.8946798487237
0
ARC
8
0
6
CONTINUOUS
10
-50.20647056558285
20
48.22989802125331
30
0
40
45.63
50
261.85661344835114
51
270.12113434961316
0
LINE
8
0
6
CONTINUOUS
10
-50.11
20
2.6
30
0
11
-27.27
21
2.6
31
0
0
ARC
8
0
6
CONTINUOUS
10
-27.57285811743155
20
71.26933214296399
30
0
40
68.67
50
270.2526947455191
51
291.25379407113996
0
ARC
8
0
6
CONTINUOUS
10
-1.343120074050111
20
3.8306901762719567
30
0
40
3.69
50
15.068612085028045
51
111.24139640530926
0
LINE
8
0
6
CONTINUOUS
10
2.22
20
4.79
30
0
11
3.14
21
1.37
31
0
0
ARC
8
0
6
CONTINUOUS
10
4.9189604481382245
20
1.8399997063401738
30
0
40
1.84
50
194.79934012433435
51
270.0323706181703
0
LINE
8
0
6
CONTINUOUS
10
4.92
20
0.0
30
0
11
9.22
21
0.0
31
0
0
ARC
8
0
6
CONTINUOUS
10
9.337381823092496
20
1.8362520272575553
30
0
40
1.84
50
266.3423623636029
51
350.10308247678813
0
LINE
8
0
6
CONTINUOUS
10
11.15
20
1.52
30
0
11
12.33
21
8.23
31
0
0
ARC
8
0
6
CONTINUOUS
10
35.02854898675207
20
4.220215230711689
30
0
40
23.05
50
133.0288515768478
51
169.98184068907727
0
LINE
8
0
6
CONTINUOUS
10
19.3
20
21.07
30
0
11
25.77
21
28.01
31
0
0
ARC
8
0
6
CONTINUOUS
10
52.19147825991298
20
-4.933563659096535
30
0
40
42.23
50
52.56747508300502
51
128.73039646324665
0
LINE
8
0
6
CONTINUOUS
10
77.86
20
28.6
30
0
11
81.67
21
-60.0
31
0
0
LINE
8
0
6
CONTINUOUS
10
81.67
20
-60.0
30
0
11
89.67
21
-60.0
31
0
0
LINE
8
0
6
CONTINUOUS
10
89.67
20
-60.0
30
0
11
95.67
21
21.2
31
0
0
LINE
8
0
6
CONTINUOUS
10
95.67
20
21.2
30
0
11
95.67
21
24.88
31
0
0
ARC
8
0
6
CONTINUOUS
10
42.96265352273197
20
-7.2913867796403835
30
0
40
61.75
50
31.39895861028315
51
48.1141023779195
0
ARC
8
0
6
CONTINUOUS
10
54.0298026073077
20
5.0676794428912295
30
0
40
45.16
50
48.098501348670446
51
140.94739327613723
0
ARC
8
0
6
CONTINUOUS
10
-27.565141769374527
20
71.27999977939092
30
0
40
59.92
50
270.0049165835239
51
320.9370712818801
0
LINE
8
0
6
CONTINUOUS
10
-27.56
20
11.36
30
0
11
-50.26
21
11.36
31
0
0
ARC
8
0
6
CONTINUOUS
10
-50.26206924046377
20
48.229999941934416
30
0
40
36.87
50
221.20850882978203
51
270.0032155884305
0
ARC
8
0
6
CONTINUOUS
10
-80.07847308436293
20
22.12408435284596
30
0
40
2.76
50
41.14298845638585
51
84.20922894092088
0
LINE
8
0
6
CONTINUOUS
10
-79.8
20
24.87
30
0
11
-80.71
21
24.89
31
0
0
ARC
8
0
6
CONTINUOUS
10
-80.7126666140232
20
23.970003864589827
30
0
40
0.92
50
89.83392832276793
51
175.63656258078512
0
LINE
8
0
6
CONTINUOUS
10
-81.63
20
24.04
30
0
11
-81.89
21
21.04
31
0
0
ARC
8
0
6
CONTINUOUS
10
-83.72315668999157
20
21.198545103800686
30
0
40
1.84
50
272.27862755078644
51
355.0569327414742
0
ARC
8
0
6
CONTINUOUS
10
-50.279439927220146
20
78.22699707350607
30
0
40
36.87
50
221.20230636520063
51
269.26873235251895
0
LINE
8
0
6
CONTINUOUS
10
-27.55
20
41.36
30
0
11
-34.78
21
41.36
31
0
0
LINE
8
0
6
CONTINUOUS
10
-34.78
20
41.36
30
0
11
-50.75
21
41.36
31
0
0
ARC
8
0
6
CONTINUOUS
10
-27.55514176937453
20
101.27999977939092
30
0
40
59.92
50
270.0049165835239
51
320.9370712818801
0
ARC
8
0
6
CONTINUOUS
10
54.0355897612503
20
35.06248755256888
30
0
40
45.16
50
48.108365406951286
51
140.9389104433598
0
ARC
8
0
6
CONTINUOUS
10
42.97042374351379
20
22.715077143154943
30
0
40
61.74
50
31.39759525252861
51
48.11546573567402
0
LINE
8
0
6
CONTINUOUS
10
95.67
20
24.88
30
0
11
95.67
21
54.88
31
0
0
LINE
8
0
6
CONTINUOUS
10
-2.93
20
-18.0
30
0
11
4.34
21
-0.0
31
0
0
LINE
8
0
6
CONTINUOUS
10
-23.27
20
-18.0
30
0
11
-2.93
21
-18.0
31
0
0
LINE
8
0
6
CONTINUOUS
10
-29.25
20
0.42
30
0
11
-23.27
21
-18.0
31
0
0
LINE
8
0
6
CONTINUOUS
10
-29.25
20
0.42
30
0
11
-35.24
21
-18.0
31
0
0
LINE
8
0
6
CONTINUOUS
10
-35.24
20
-18.0
30
0
11
-55.58
21
-18.0
31
0
0
LINE
8
0
6
CONTINUOUS
10
-55.58
20
-18.0
30
0
11
-62.85
21
-0.0
31
0
0
ENDSEC
0
EOF