0
SECTION
2
HEADER
0
ENDSEC
0
SECTION
2
TABLES
0
TABLE
2
LTYPE
70
2
0
LTYPE
2
CONTINUOUS
70
0
3
Solid line
72
65
73
0
40
0.0
0
ENDTAB
0
TABLE
2
LAYER
70
1
0
LAYER
2
0
70
0
62
7
6
CONTINUOUS
0
ENDTAB
0
ENDSEC
0
SECTION
2
ENTITIES
0
LINE
8
0
6
CONTINUOUS
10
-308.0
20
-64.73
30
0
11
-308.0
21
110.91
31
0
0
LINE
8
0
6
CONTINUOUS
10
0.0
20
-64.73
30
0
11
0.0
21
110.91
31
0
0
LINE
8
0
6
CONTINUOUS
10
-308.0
20
0.0
30
0
11
154.55
21
0.0
31
0
0
LINE
8
0
6
CONTINUOUS
10
112.65
20
-64.73
30
0
11
130.15
21
-64.73
31
0
0
ARC
8
0
6
CONTINUOUS
10
0.15861357799609266
20
-95.26686879962088
30
0
40
133.53
50
13.219911721973654
51
84.78310236205408
0
ARC
8
0
6
CONTINUOUS
10
0.15500000000000025
20
35.016939473387204
30
0
40
12.44
50
12.502602848636766
51
167.49739715136323
0
ARC
8
0
6
CONTINUOUS
10
0.15138642200390962
20
-95.26686879962088
30
0
40
133.53
50
95.21689763794592
51
166.78008827802634
0
LINE
8
0
6
CONTINUOUS
10
-129.84
20
-64.73
30
0
11
-112.35
21
-64.73
31
0
0
ARC
8
0
6
CONTINUOUS
10
0.15000000000000568
20
-90.03110867136063
30
0
40
115.31
50
12.674861367534756
51
167.32513863246524
0
LINE
8
0
6
CONTINUOUS
10
-129.84
20
-64.73
30
0
11
-154.55
21
-57.17
31
0
0
LINE
8
0
6
CONTINUOUS
10
154.55
20
-56.81
30
0
11
130.15
21
-64.73
31
0
0
ARC
8
0
6
CONTINUOUS
10
0.043404978956397194
20
-94.25799720950664
30
0
40
158.98
50
13.624141351400652
51
166.50932012578073
0
ENDSEC
0
EOF