0
SECTION
2
HEADER
0
ENDSEC
0
SECTION
2
TABLES
0
TABLE
2
LTYPE
70
2
0
LTYPE
2
CONTINUOUS
70
0
3
Solid line
72
65
73
0
40
0.0
0
ENDTAB
0
TABLE
2
LAYER
70
1
0
LAYER
2
0
70
0
62
7
6
CONTINUOUS
0
ENDTAB
0
ENDSEC
0
SECTION
2
ENTITIES
0
LINE
8
0
6
CONTINUOUS
10
102.0
20
-61.01
30
0
11
102.0
21
88.21
31
0
0
LINE
8
0
6
CONTINUOUS
10
-102.0
20
-61.01
30
0
11
-102.0
21
88.21
31
0
0
LINE
8
0
6
CONTINUOUS
10
0.0
20
-61.01
30
0
11
0.0
21
88.21
31
0
0
LINE
8
0
6
CONTINUOUS
10
-147.37
20
0.0
30
0
11
148.36
21
0.0
31
0
0
LINE
8
0
6
CONTINUOUS
10
8.82
20
15.41
30
0
11
10.0
21
10.79
31
0
0
ARC
8
0
6
CONTINUOUS
10
12.908275645824789
20
11.526160830187544
30
0
40
3.0
50
194.2047020260502
51
272.8989584415899
0
LINE
8
0
6
CONTINUOUS
10
13.06
20
8.53
30
0
11
17.51
21
8.53
31
0
0
ARC
8
0
6
CONTINUOUS
10
17.845255470527427
20
11.86318222866399
30
0
40
3.35
50
264.25643812568313
51
346.3039707518155
0
ARC
8
0
6
CONTINUOUS
10
24.20032463789333
20
10.640014954130274
30
0
40
3.13
50
89.82288872306019
51
172.10399890563113
0
LINE
8
0
6
CONTINUOUS
10
24.21
20
13.77
30
0
11
33.8
21
13.77
31
0
0
ARC
8
0
6
CONTINUOUS
10
34.1320006590359
20
11.150959037662885
30
0
40
2.64
50
10.233900361756707
51
97.22452133622866
0
ARC
8
0
6
CONTINUOUS
10
40.432089021041584
20
12.277371189118696
30
0
40
3.76
50
190.0689261016398
51
274.6972812988363
0
LINE
8
0
6
CONTINUOUS
10
40.74
20
8.53
30
0
11
45.13
21
8.53
31
0
0
ARC
8
0
6
CONTINUOUS
10
45.12522635646067
20
11.529996202052157
30
0
40
3.0
50
270.09116991437435
51
346.3101872017088
0
LINE
8
0
6
CONTINUOUS
10
48.04
20
10.82
30
0
11
49.08
21
15.12
31
0
0
ARC
8
0
6
CONTINUOUS
10
55.00851091359392
20
13.68735594015352
30
0
40
6.07
50
124.16194526304021
51
166.34821826203344
0
ARC
8
0
6
CONTINUOUS
10
25.268189091522558
20
72.36713963938246
30
0
40
59.77
50
296.1391252900081
51
322.63102251536503
0
ARC
8
0
6
CONTINUOUS
10
133.45920010068852
20
-0.9509366935905987
30
0
40
71.1
50
133.37480423904938
51
148.60268891633353
0
ARC
8
0
6
CONTINUOUS
10
92.47217222216307
20
42.42838962381792
30
0
40
11.42
50
86.74800928568061
51
133.36985144597526
0
ARC
8
0
6
CONTINUOUS
10
93.12141893940728
20
50.830000335564854
30
0
40
3.0
50
15.664260195354556
51
90.02709974748426
0
LINE
8
0
6
CONTINUOUS
10
96.01
20
51.64
30
0
11
97.98
21
43.39
31
0
0
ARC
8
0
6
CONTINUOUS
10
100.92564160262467
20
44.099996865406354
30
0
40
3.03
50
193.55168382156464
51
270.0824151356966
0
LINE
8
0
6
CONTINUOUS
10
100.93
20
41.07
30
0
11
104.23
21
41.07
31
0
0
ARC
8
0
6
CONTINUOUS
10
103.87388437236126
20
44.28030865490399
30
0
40
3.23
50
276.32987222679174
51
343.4456177246183
0
LINE
8
0
6
CONTINUOUS
10
106.97
20
43.36
30
0
11
109.41
21
53.34
31
0
0
ARC
8
0
6
CONTINUOUS
10
112.02210771207258
20
52.69735445187032
30
0
40
2.69
50
72.299030690495
51
166.1782736637099
0
ARC
8
0
6
CONTINUOUS
10
101.75700660229376
20
20.10567085910471
30
0
40
36.86
50
27.50749230403811
51
72.50166630602527
0
ARC
8
0
6
CONTINUOUS
10
137.34910335526325
20
38.13999986905997
30
0
40
3.07
50
199.20749531985027
51
270.0167341888822
0
LINE
8
0
6
CONTINUOUS
10
137.35
20
35.07
30
0
11
146.65
21
35.07
31
0
0
LINE
8
0
6
CONTINUOUS
10
146.65
20
35.07
30
0
11
146.65
21
45.09
31
0
0
ARC
8
0
6
CONTINUOUS
10
104.74464968978904
20
17.998458600911956
30
0
40
49.9
50
32.88241021239724
51
148.64954373125323
0
ARC
8
0
6
CONTINUOUS
10
28.112983623389347
20
68.14822434229934
30
0
40
41.74
50
205.756826739549
51
324.584794978616
0
ARC
8
0
6
CONTINUOUS
10
-12.161551325630064
20
48.41510737414343
30
0
40
3.12
50
30.742696542998036
51
93.27882646635437
0
LINE
8
0
6
CONTINUOUS
10
-12.34
20
51.53
30
0
11
-16.85
21
51.53
31
0
0
ARC
8
0
6
CONTINUOUS
10
-17.021438905008704
20
48.44475953905543
30
0
40
3.09
50
86.81949121738775
51
165.27836749925274
0
LINE
8
0
6
CONTINUOUS
10
-20.01
20
49.23
30
0
11
-22.28
21
39.82
31
0
0
ARC
8
0
6
CONTINUOUS
10
-25.195505795800493
20
40.526983701830346
30
0
40
3.0
50
267.4304886954803
51
346.3693965534825
0
LINE
8
0
6
CONTINUOUS
10
-25.33
20
37.53
30
0
11
-31.34
21
37.53
31
0
0
ARC
8
0
6
CONTINUOUS
10
-31.225644394289482
20
40.67792356886926
30
0
40
3.15
50
198.08646779013893
51
267.9195131333126
0
LINE
8
0
6
CONTINUOUS
10
-34.22
20
39.7
30
0
11
-36.53
21
49.25
31
0
0
ARC
8
0
6
CONTINUOUS
10
-39.55048682597616
20
48.39194444579359
30
0
40
3.14
50
15.858711662391116
51
87.9835236144788
0
LINE
8
0
6
CONTINUOUS
10
-39.44
20
51.53
30
0
11
-41.87
21
51.53
31
0
0
ARC
8
0
6
CONTINUOUS
10
-42.02413499937757
20
48.443846665836766
30
0
40
3.09
50
87.14079243280723
51
166.59900285888088
0
LINE
8
0
6
CONTINUOUS
10
-45.03
20
49.16
30
0
11
-47.07
21
40.69
31
0
0
ARC
8
0
6
CONTINUOUS
10
-25.860002954619173
20
34.961394119426934
30
0
40
21.97
50
164.88562433446424
51
180.02971483767394
0
LINE
8
0
6
CONTINUOUS
10
-47.84
20
34.95
30
0
11
-47.84
21
29.64
31
0
0
ARC
8
0
6
CONTINUOUS
10
-44.73000000004156
20
29.639983922787895
30
0
40
3.11
50
179.99970380823152
51
270.18423112052085
0
LINE
8
0
6
CONTINUOUS
10
-44.72
20
26.53
30
0
11
-6.76
21
26.53
31
0
0
ARC
8
0
6
CONTINUOUS
10
-7.191446041441691
20
21.859887119851994
30
0
40
4.69
50
49.5717007191174
51
84.7217405210246
0
ARC
8
0
6
CONTINUOUS
10
24.279720207877315
20
58.802093265209066
30
0
40
43.84
50
229.5722888826992
51
244.44769650253002
0
ARC
8
0
6
CONTINUOUS
10
3.4485425978538404
20
14.053885927759307
30
0
40
5.54
50
14.169183428146043
51
69.70624240105388
0
LINE
8
0
6
CONTINUOUS
10
11.9
20
-9.88
30
0
11
4.27
21
19.69
31
0
0
LINE
8
0
6
CONTINUOUS
10
43.27
20
-11.94
30
0
11
14.7
21
-12.04
31
0
0
LINE
8
0
6
CONTINUOUS
10
53.73
20
19.74
30
0
11
46.12
21
-9.73
31
0
0
ARC
8
0
6
CONTINUOUS
10
14.68855388203565
20
-9.160022745509343
30
0
40
2.88
50
194.477044838654
51
270.2277138811307
0
ARC
8
0
6
CONTINUOUS
10
43.264320029689245
20
-8.990005468151294
30
0
40
2.95
50
270.11031814496437
51
345.47244369366126
0
ARC
8
0
6
CONTINUOUS
10
104.74464968978904
20
38.158458600911956
30
0
40
49.9
50
32.88241021239724
51
148.64954373125323
0
ARC
8
0
6
CONTINUOUS
10
28.113289160080903
20
88.30865402690547
30
0
40
41.74
50
255.82242907793787
51
324.5840712459775
0
LINE
8
0
6
CONTINUOUS
10
146.65
20
48.73
30
0
11
146.65
21
65.25
31
0
0
ENDSEC
0
EOF