0
SECTION
2
HEADER
0
ENDSEC
0
SECTION
2
TABLES
0
TABLE
2
LTYPE
70
2
0
LTYPE
2
CONTINUOUS
70
0
3
Solid line
72
65
73
0
40
0.0
0
ENDTAB
0
TABLE
2
LAYER
70
1
0
LAYER
2
0
70
0
62
7
6
CONTINUOUS
0
ENDTAB
0
ENDSEC
0
SECTION
2
ENTITIES
0
LINE
8
0
6
CONTINUOUS
10
118.0
20
-60.0
30
0
11
118.0
21
81.29
31
0
0
LINE
8
0
6
CONTINUOUS
10
-118.0
20
-60.0
30
0
11
-118.0
21
81.29
31
0
0
LINE
8
0
6
CONTINUOUS
10
0.0
20
-60.0
30
0
11
0.0
21
81.29
31
0
0
LINE
8
0
6
CONTINUOUS
10
-136.44
20
0.0
30
0
11
154.38
21
0.0
31
0
0
ARC
8
0
6
CONTINUOUS
10
101.27247632544349
20
-7.114707238949855
30
0
40
61.75
50
31.380828784248088
51
55.47529617904785
0
ARC
8
0
6
CONTINUOUS
10
112.386629979167
20
5.067551945528507
30
0
40
45.47
50
58.314551413186905
51
140.93957656001817
0
ARC
8
0
6
CONTINUOUS
10
30.793083223280902
20
71.26572326251127
30
0
40
59.6
50
272.20866168218157
51
320.9526957559414
0
ARC
8
0
6
CONTINUOUS
10
39.6098179721422
20
71.2742373711788
30
0
40
59.92
50
219.05583266067424
51
263.7533524497627
0
ARC
8
0
6
CONTINUOUS
10
-41.9898026073077
20
5.067679442891237
30
0
40
45.16
50
39.05260672386276
51
131.90149865132958
0
ARC
8
0
6
CONTINUOUS
10
-30.90055785225593
20
-7.271561698161186
30
0
40
61.75
50
131.91344218326725
51
148.62258986897317
0
LINE
8
0
6
CONTINUOUS
10
-83.62
20
24.88
30
0
11
-83.62
21
21.2
31
0
0
LINE
8
0
6
CONTINUOUS
10
-83.62
20
21.2
30
0
11
-77.62
21
-60.0
31
0
0
LINE
8
0
6
CONTINUOUS
10
-77.62
20
-60.0
30
0
11
-69.62
21
-60.0
31
0
0
LINE
8
0
6
CONTINUOUS
10
-69.62
20
-60.0
30
0
11
-65.82
21
28.6
31
0
0
ARC
8
0
6
CONTINUOUS
10
-40.15147825991298
20
-4.933563659096542
30
0
40
42.23
50
51.26960353675336
51
127.43252491699498
0
LINE
8
0
6
CONTINUOUS
10
-13.73
20
28.01
30
0
11
-7.26
21
21.07
31
0
0
ARC
8
0
6
CONTINUOUS
10
-22.988548986752065
20
4.220215230711689
30
0
40
23.05
50
10.018159310922726
51
46.971148423152194
0
LINE
8
0
6
CONTINUOUS
10
-0.29
20
8.23
30
0
11
0.89
21
1.52
31
0
0
ARC
8
0
6
CONTINUOUS
10
2.702618176907505
20
1.8362520272575553
30
0
40
1.84
50
189.89691752321187
51
273.65763763639706
0
LINE
8
0
6
CONTINUOUS
10
2.82
20
0.0
30
0
11
7.12
21
0.0
31
0
0
ARC
8
0
6
CONTINUOUS
10
7.121039551861776
20
1.839999706340174
30
0
40
1.84
50
269.9676293818297
51
345.2006598756656
0
LINE
8
0
6
CONTINUOUS
10
8.9
20
1.37
30
0
11
10.16
21
4.7
31
0
0
ARC
8
0
6
CONTINUOUS
10
13.37673558710194
20
3.8388889951510725
30
0
40
3.33
50
68.63280353061523
51
165.01347352621312
0
ARC
8
0
6
CONTINUOUS
10
39.615473275799104
20
71.2808632041625
30
0
40
69.04
50
248.73864552411987
51
263.9926331604237
0
ARC
8
0
6
CONTINUOUS
10
30.7870478349545
20
71.27128873048616
30
0
40
68.67
50
271.33756715445645
51
292.1519087412792
0
ARC
8
0
6
CONTINUOUS
10
56.98632945068756
20
3.99273712285327
30
0
40
3.69
50
15.03569926270139
51
94.76195316589296
0
LINE
8
0
6
CONTINUOUS
10
60.55
20
4.95
30
0
11
61.47
21
1.53
31
0
0
ARC
8
0
6
CONTINUOUS
10
63.24982382728089
20
1.996719555882546
30
0
40
1.84
50
194.69372050278685
51
266.57816089380003
0
LINE
8
0
6
CONTINUOUS
10
63.14
20
0.16
30
0
11
67.66
21
0.16
31
0
0
ARC
8
0
6
CONTINUOUS
10
67.65803955109126
20
1.9999989556084201
30
0
40
1.84
50
270.06104645090954
51
349.9846228563293
0
LINE
8
0
6
CONTINUOUS
10
69.47
20
1.68
30
0
11
70.66
21
8.39
31
0
0
ARC
8
0
6
CONTINUOUS
10
93.36066049904076
20
4.392186484177882
30
0
40
23.05
50
133.0360319545917
51
170.0120571748252
0
ARC
8
0
6
CONTINUOUS
10
30.74184173765736
20
71.42409125176533
30
0
40
68.68
50
313.05536048914377
51
320.9652466927436
0
ARC
8
0
6
CONTINUOUS
10
112.3573011930247
20
5.237061172566126
30
0
40
36.4
50
93.72890564109709
51
140.94797455402787
0
ARC
8
0
6
CONTINUOUS
10
110.22635266006333
20
37.87757723501484
30
0
40
3.69
50
10.026189619202338
51
93.67243544830198
0
LINE
8
0
6
CONTINUOUS
10
113.86
20
38.52
30
0
11
116.54
21
23.34
31
0
0
ARC
8
0
6
CONTINUOUS
10
118.35221002448289
20
23.65858252802646
30
0
40
1.84
50
189.97059154713443
51
267.75087370263213
0
LINE
8
0
6
CONTINUOUS
10
118.28
20
21.82
30
0
11
120.98
21
21.82
31
0
0
ARC
8
0
6
CONTINUOUS
10
120.97803955109127
20
23.65999895560842
30
0
40
1.84
50
270.06104645090954
51
349.98462285632934
0
LINE
8
0
6
CONTINUOUS
10
122.79
20
23.34
30
0
11
124.74
21
34.4
31
0
0
ARC
8
0
6
CONTINUOUS
10
128.3744145749585
20
33.76193205900221
30
0
40
3.69
50
60.704198754750664
51
170.0424705017657
0
ARC
8
0
6
CONTINUOUS
10
112.35599047197043
20
5.242566512953346
30
0
40
36.4
50
25.791296175274237
51
60.681067193566854
0
ARC
8
0
6
CONTINUOUS
10
147.62657867309696
20
22.27999788709707
30
0
40
2.77
50
205.6715899738983
51
270.0707681017042
0
LINE
8
0
6
CONTINUOUS
10
147.63
20
19.51
30
0
11
151.99
21
19.51
31
0
0
ARC
8
0
6
CONTINUOUS
10
151.99
20
21.51
30
0
40
2.0
50
270.0
51
0.0
0
LINE
8
0
6
CONTINUOUS
10
153.99
20
21.51
30
0
11
153.99
21
25.04
31
0
0
LINE
8
0
6
CONTINUOUS
10
-83.62
20
24.88
30
0
11
-83.62
21
54.88
31
0
0
ARC
8
0
6
CONTINUOUS
10
-30.90055785225593
20
22.72843830183882
30
0
40
61.75
50
131.91344218326725
51
148.62258986897317
0
ARC
8
0
6
CONTINUOUS
10
-41.99558976125031
20
35.06248755256888
30
0
40
45.16
50
39.061089556640226
51
131.89163459304874
0
ARC
8
0
6
CONTINUOUS
10
39.58727123067235
20
96.99505903283911
30
0
40
57.31
50
215.73978932708584
51
263.53059313986495
0
ARC
8
0
6
CONTINUOUS
10
32.57048623601977
20
96.99725142048489
30
0
40
56.95
50
270.5629199824522
51
323.19640965482984
0
ARC
8
0
6
CONTINUOUS
10
112.3855293138942
20
35.07306464620658
30
0
40
44.09
50
48.100465611986806
51
140.8992648673209
0
ARC
8
0
6
CONTINUOUS
10
101.3080715324061
20
22.709811717222763
30
0
40
60.69
50
31.40012578753339
51
48.11119799103629
0
LINE
8
0
6
CONTINUOUS
10
153.11
20
54.33
30
0
11
154.02
21
24.88
31
0
0
LINE
8
0
6
CONTINUOUS
10
-10.27
20
-18.0
30
0
11
-17.54
21
-0.0
31
0
0
LINE
8
0
6
CONTINUOUS
10
10.08
20
-18.0
30
0
11
-10.27
21
-18.0
31
0
0
LINE
8
0
6
CONTINUOUS
10
15.92
20
-0.0
30
0
11
10.08
21
-18.0
31
0
0
LINE
8
0
6
CONTINUOUS
10
32.4
20
-0.0
30
0
11
38.24
21
-18.0
31
0
0
LINE
8
0
6
CONTINUOUS
10
38.24
20
-18.0
30
0
11
58.59
21
-18.0
31
0
0
LINE
8
0
6
CONTINUOUS
10
58.59
20
-18.0
30
0
11
65.86
21
-0.0
31
0
0
ENDSEC
0
EOF