0
SECTION
2
HEADER
0
ENDSEC
0
SECTION
2
TABLES
0
TABLE
2
LTYPE
70
2
0
LTYPE
2
CONTINUOUS
70
0
3
Solid line
72
65
73
0
40
0.0
0
ENDTAB
0
TABLE
2
LAYER
70
1
0
LAYER
2
0
70
0
62
7
6
CONTINUOUS
0
ENDTAB
0
ENDSEC
0
SECTION
2
ENTITIES
0
LINE
8
0
6
CONTINUOUS
10
162.01
20
65.0
30
0
11
-160.29
21
65.0
31
0
0
LINE
8
0
6
CONTINUOUS
10
-152.5
20
65.0
30
0
11
-152.5
21
-0.0
31
0
0
LINE
8
0
6
CONTINUOUS
10
152.5
20
-0.0
30
0
11
152.5
21
65.0
31
0
0
LINE
8
0
6
CONTINUOUS
10
0.0
20
-0.0
30
0
11
0.0
21
65.0
31
0
0
LINE
8
0
6
CONTINUOUS
10
-160.29
20
0.0
30
0
11
162.01
21
0.0
31
0
0
ARC
8
0
6
CONTINUOUS
10
-152.4980508845933
20
55.46198501730221
30
0
40
7.79
50
288.62606030253346
51
230.05150479194114
0
LINE
8
0
6
CONTINUOUS
10
-150.01
20
48.08
30
0
11
-149.5
21
8.0
31
0
0
LINE
8
0
6
CONTINUOUS
10
-149.5
20
8.0
30
0
11
-146.5
21
5.0
31
0
0
LINE
8
0
6
CONTINUOUS
10
-146.5
20
5.0
30
0
11
-146.5
21
0.0
31
0
0
LINE
8
0
6
CONTINUOUS
10
59.0
20
0.0
30
0
11
147.0
21
0.0
31
0
0
LINE
8
0
6
CONTINUOUS
10
147.0
20
0.0
30
0
11
147.0
21
5.0
31
0
0
LINE
8
0
6
CONTINUOUS
10
147.0
20
5.0
30
0
11
149.46
21
8.0
31
0
0
LINE
8
0
6
CONTINUOUS
10
149.46
20
8.0
30
0
11
149.46
21
46.48
31
0
0
ARC
8
0
6
CONTINUOUS
10
152.51078970504915
20
55.48737376684048
30
0
40
9.51
50
308.64715898201877
51
251.28880398796957
0
LINE
8
0
6
CONTINUOUS
10
-109.0
20
-0.0
30
0
11
-59.0
21
-0.0
31
0
0
ARC
8
0
6
CONTINUOUS
10
-51.0
20
0.0
30
0
40
8.0
50
-0.0
51
180.0
0
LINE
8
0
6
CONTINUOUS
10
21.0
20
-0.0
30
0
11
-43.0
21
-0.0
31
0
0
LINE
8
0
6
CONTINUOUS
10
-7.0
20
-0.0
30
0
11
43.0
21
-0.0
31
0
0
ARC
8
0
6
CONTINUOUS
10
51.0
20
0.0
30
0
40
8.0
50
-0.0
51
180.0
0
LINE
8
0
6
CONTINUOUS
10
123.0
20
-0.0
30
0
11
59.0
21
-0.0
31
0
0
LINE
8
0
6
CONTINUOUS
10
-59.0
20
0.0
30
0
11
-147.0
21
0.0
31
0
0
ENDSEC
0
EOF