0
SECTION
2
HEADER
0
ENDSEC
0
SECTION
2
TABLES
0
TABLE
2
LTYPE
70
2
0
LTYPE
2
CONTINUOUS
70
0
3
Solid line
72
65
73
0
40
0.0
0
ENDTAB
0
TABLE
2
LAYER
70
1
0
LAYER
2
0
70
0
62
7
6
CONTINUOUS
0
ENDTAB
0
ENDSEC
0
SECTION
2
ENTITIES
0
LINE
8
0
6
CONTINUOUS
10
29.88
20
210.0
30
0
11
-29.88
21
210.0
31
0
0
LINE
8
0
6
CONTINUOUS
10
0.0
20
-0.0
30
0
11
0.0
21
211.0
31
0
0
LINE
8
0
6
CONTINUOUS
10
-29.88
20
0.0
30
0
11
29.88
21
0.0
31
0
0
LINE
8
0
6
CONTINUOUS
10
2.27
20
200.0
30
0
11
5.0
21
200.0
31
0
0
LINE
8
0
6
CONTINUOUS
10
5.0
20
200.0
30
0
11
6.0
21
201.0
31
0
0
LINE
8
0
6
CONTINUOUS
10
6.0
20
201.0
30
0
11
6.0
21
204.0
31
0
0
LINE
8
0
6
CONTINUOUS
10
6.0
20
204.0
30
0
11
3.0
21
207.0
31
0
0
LINE
8
0
6
CONTINUOUS
10
3.0
20
207.0
30
0
11
3.0
21
208.0
31
0
0
ARC
8
0
6
CONTINUOUS
10
-2.220446049250313e-16
20
208.0
30
0
40
3.0
50
0.0
51
90.0
0
ARC
8
0
6
CONTINUOUS
10
2.220446049250313e-16
20
208.0
30
0
40
3.0
50
90.00000000000001
51
180.0
0
LINE
8
0
6
CONTINUOUS
10
-3.0
20
208.0
30
0
11
-3.0
21
207.0
31
0
0
LINE
8
0
6
CONTINUOUS
10
-3.0
20
207.0
30
0
11
-6.0
21
204.0
31
0
0
LINE
8
0
6
CONTINUOUS
10
-6.0
20
204.0
30
0
11
-6.0
21
201.0
31
0
0
LINE
8
0
6
CONTINUOUS
10
-6.0
20
201.0
30
0
11
-5.0
21
200.0
31
0
0
LINE
8
0
6
CONTINUOUS
10
-5.0
20
200.0
30
0
11
-2.27
21
200.0
31
0
0
LINE
8
0
6
CONTINUOUS
10
-2.27
20
200.0
30
0
11
-1.27
21
198.98
31
0
0
LINE
8
0
6
CONTINUOUS
10
-1.27
20
198.98
30
0
11
-2.25
21
25.12
31
0
0
LINE
8
0
6
CONTINUOUS
10
-2.25
20
25.12
30
0
11
-2.25
21
13.12
31
0
0
ARC
8
0
6
CONTINUOUS
10
-5.25
20
13.12
30
0
40
3.0
50
270.0
51
0.0
0
LINE
8
0
6
CONTINUOUS
10
-5.25
20
10.12
30
0
11
-26.88
21
10.12
31
0
0
LINE
8
0
6
CONTINUOUS
10
-26.88
20
10.12
30
0
11
-26.88
21
5.12
31
0
0
LINE
8
0
6
CONTINUOUS
10
-26.88
20
5.12
30
0
11
26.88
21
5.12
31
0
0
LINE
8
0
6
CONTINUOUS
10
26.88
20
5.12
30
0
11
26.88
21
10.12
31
0
0
LINE
8
0
6
CONTINUOUS
10
26.88
20
10.12
30
0
11
5.25
21
10.12
31
0
0
ARC
8
0
6
CONTINUOUS
10
5.25
20
13.12
30
0
40
3.0
50
180.0
51
270.0
0
LINE
8
0
6
CONTINUOUS
10
2.25
20
13.12
30
0
11
2.25
21
25.12
31
0
0
LINE
8
0
6
CONTINUOUS
10
2.25
20
25.12
30
0
11
1.27
21
198.98
31
0
0
LINE
8
0
6
CONTINUOUS
10
1.27
20
198.98
30
0
11
2.27
21
200.0
31
0
0
LINE
8
0
6
CONTINUOUS
10
29.88
20
10.12
30
0
11
26.88
21
10.12
31
0
0
LINE
8
0
6
CONTINUOUS
10
26.88
20
10.12
30
0
11
26.88
21
5.12
31
0
0
LINE
8
0
6
CONTINUOUS
10
26.88
20
5.12
30
0
11
-26.88
21
5.12
31
0
0
LINE
8
0
6
CONTINUOUS
10
-26.88
20
5.12
30
0
11
-26.88
21
10.12
31
0
0
LINE
8
0
6
CONTINUOUS
10
-26.88
20
10.12
30
0
11
-29.88
21
10.12
31
0
0
LINE
8
0
6
CONTINUOUS
10
-29.88
20
10.12
30
0
11
-29.88
21
-0.0
31
0
0
LINE
8
0
6
CONTINUOUS
10
-29.88
20
-0.0
30
0
11
29.88
21
-0.0
31
0
0
LINE
8
0
6
CONTINUOUS
10
29.88
20
-0.0
30
0
11
29.88
21
10.12
31
0
0
ARC
8
0
6
CONTINUOUS
10
-2.220446049250313e-16
20
208.0
30
0
40
3.0
50
0.0
51
90.0
0
LINE
8
0
6
CONTINUOUS
10
3.0
20
208.0
30
0
11
3.0
21
207.0
31
0
0
ARC
8
0
6
CONTINUOUS
10
2.220446049250313e-16
20
208.0
30
0
40
3.0
50
90.00000000000001
51
180.0
0
LINE
8
0
6
CONTINUOUS
10
-3.0
20
207.0
30
0
11
-3.0
21
208.0
31
0
0
LINE
8
0
6
CONTINUOUS
10
-6.0
20
204.0
30
0
11
-3.0
21
207.0
31
0
0
LINE
8
0
6
CONTINUOUS
10
-6.0
20
201.0
30
0
11
-6.0
21
204.0
31
0
0
LINE
8
0
6
CONTINUOUS
10
-5.0
20
200.0
30
0
11
-6.0
21
201.0
31
0
0
LINE
8
0
6
CONTINUOUS
10
-2.27
20
200.0
30
0
11
-5.0
21
200.0
31
0
0
LINE
8
0
6
CONTINUOUS
10
-1.27
20
198.98
30
0
11
-2.27
21
200.0
31
0
0
LINE
8
0
6
CONTINUOUS
10
-2.25
20
25.12
30
0
11
-1.27
21
198.98
31
0
0
LINE
8
0
6
CONTINUOUS
10
1.27
20
198.98
30
0
11
2.25
21
25.12
31
0
0
LINE
8
0
6
CONTINUOUS
10
2.27
20
200.0
30
0
11
1.27
21
198.98
31
0
0
LINE
8
0
6
CONTINUOUS
10
5.0
20
200.0
30
0
11
2.27
21
200.0
31
0
0
LINE
8
0
6
CONTINUOUS
10
6.0
20
201.0
30
0
11
5.0
21
200.0
31
0
0
LINE
8
0
6
CONTINUOUS
10
3.0
20
207.0
30
0
11
6.0
21
204.0
31
0
0
LINE
8
0
6
CONTINUOUS
10
6.0
20
204.0
30
0
11
6.0
21
201.0
31
0
0
LINE
8
0
6
CONTINUOUS
10
6.0
20
201.0
30
0
11
5.0
21
200.0
31
0
0
LINE
8
0
6
CONTINUOUS
10
-29.88
20
10.12
30
0
11
-5.25
21
10.12
31
0
0
LINE
8
0
6
CONTINUOUS
10
-2.25
20
13.12
30
0
11
-2.25
21
25.12
31
0
0
LINE
8
0
6
CONTINUOUS
10
2.25
20
25.12
30
0
11
2.25
21
13.12
31
0
0
LINE
8
0
6
CONTINUOUS
10
5.25
20
10.12
30
0
11
29.88
21
10.12
31
0
0
LINE
8
0
6
CONTINUOUS
10
29.88
20
-0.0
30
0
11
29.88
21
10.12
31
0
0
LINE
8
0
6
CONTINUOUS
10
-29.88
20
-0.0
30
0
11
29.88
21
-0.0
31
0
0
LINE
8
0
6
CONTINUOUS
10
26.88
20
5.12
30
0
11
-26.88
21
5.12
31
0
0
LINE
8
0
6
CONTINUOUS
10
-29.88
20
10.12
30
0
11
-29.88
21
-0.0
31
0
0
LINE
8
0
6
CONTINUOUS
10
26.88
20
5.12
30
0
11
26.88
21
10.12
31
0
0
LINE
8
0
6
CONTINUOUS
10
-26.88
20
10.12
30
0
11
-26.88
21
5.12
31
0
0
ARC
8
0
6
CONTINUOUS
10
5.25
20
13.12
30
0
40
3.0
50
180.0
51
270.0
0
ARC
8
0
6
CONTINUOUS
10
-5.25
20
13.12
30
0
40
3.0
50
270.0
51
0.0
0
ENDSEC
0
EOF