0
SECTION
2
HEADER
0
ENDSEC
0
SECTION
2
TABLES
0
TABLE
2
LTYPE
70
2
0
LTYPE
2
CONTINUOUS
70
0
3
Solid line
72
65
73
0
40
0.0
0
ENDTAB
0
TABLE
2
LAYER
70
1
0
LAYER
2
0
70
0
62
7
6
CONTINUOUS
0
ENDTAB
0
ENDSEC
0
SECTION
2
ENTITIES
0
LINE
8
0
6
CONTINUOUS
10
40.0
20
176.7
30
0
11
-40.0
21
176.7
31
0
0
LINE
8
0
6
CONTINUOUS
10
40.0
20
221.5
30
0
11
-40.0
21
221.5
31
0
0
LINE
8
0
6
CONTINUOUS
10
-40.0
20
231.5
30
0
11
40.0
21
231.5
31
0
0
LINE
8
0
6
CONTINUOUS
10
40.0
20
10.0
30
0
11
-40.0
21
10.0
31
0
0
LINE
8
0
6
CONTINUOUS
10
0.0
20
0.0
30
0
11
0.0
21
231.5
31
0
0
LINE
8
0
6
CONTINUOUS
10
-40.0
20
0.0
30
0
11
40.0
21
0.0
31
0
0
LINE
8
0
6
CONTINUOUS
10
40.0
20
10.0
30
0
11
-40.0
21
10.0
31
0
0
LINE
8
0
6
CONTINUOUS
10
-40.0
20
10.0
30
0
11
-40.0
21
0.0
31
0
0
LINE
8
0
6
CONTINUOUS
10
-40.0
20
0.0
30
0
11
40.0
21
0.0
31
0
0
LINE
8
0
6
CONTINUOUS
10
40.0
20
0.0
30
0
11
40.0
21
10.0
31
0
0
LINE
8
0
6
CONTINUOUS
10
-40.0
20
228.5
30
0
11
-40.0
21
10.0
31
0
0
ARC
8
0
6
CONTINUOUS
10
-37.0
20
228.5
30
0
40
3.0
50
90.0
51
180.0
0
LINE
8
0
6
CONTINUOUS
10
-37.0
20
231.5
30
0
11
37.0
21
231.5
31
0
0
ARC
8
0
6
CONTINUOUS
10
37.0
20
228.5
30
0
40
3.0
50
0.0
51
90.0
0
LINE
8
0
6
CONTINUOUS
10
40.0
20
10.0
30
0
11
40.0
21
228.5
31
0
0
LINE
8
0
6
CONTINUOUS
10
-40.0
20
221.5
30
0
11
40.0
21
221.5
31
0
0
LINE
8
0
6
CONTINUOUS
10
-12.5
20
176.7
30
0
11
-37.0
21
176.7
31
0
0
LINE
8
0
6
CONTINUOUS
10
9.5
20
176.7
30
0
11
-9.5
21
176.7
31
0
0
LINE
8
0
6
CONTINUOUS
10
37.0
20
176.7
30
0
11
12.5
21
176.7
31
0
0
LINE
8
0
6
CONTINUOUS
10
-37.0
20
178.2
30
0
11
-40.0
21
178.2
31
0
0
LINE
8
0
6
CONTINUOUS
10
-37.0
20
16.7
30
0
11
-37.0
21
178.2
31
0
0
LINE
8
0
6
CONTINUOUS
10
-12.5
20
178.2
30
0
11
-12.5
21
16.7
31
0
0
LINE
8
0
6
CONTINUOUS
10
-9.5
20
16.7
30
0
11
-9.5
21
178.2
31
0
0
LINE
8
0
6
CONTINUOUS
10
-9.5
20
178.2
30
0
11
-12.5
21
178.2
31
0
0
LINE
8
0
6
CONTINUOUS
10
9.5
20
178.2
30
0
11
12.5
21
178.2
31
0
0
LINE
8
0
6
CONTINUOUS
10
9.5
20
16.7
30
0
11
9.5
21
178.2
31
0
0
LINE
8
0
6
CONTINUOUS
10
12.5
20
178.2
30
0
11
12.5
21
16.7
31
0
0
LINE
8
0
6
CONTINUOUS
10
37.0
20
16.7
30
0
11
37.0
21
178.2
31
0
0
LINE
8
0
6
CONTINUOUS
10
37.0
20
178.2
30
0
11
40.0
21
178.2
31
0
0
LINE
8
0
6
CONTINUOUS
10
40.0
20
16.7
30
0
11
-40.0
21
16.7
31
0
0
LINE
8
0
6
CONTINUOUS
10
-24.75
20
10.0
30
0
11
-24.75
21
16.7
31
0
0
LINE
8
0
6
CONTINUOUS
10
24.75
20
10.0
30
0
11
24.75
21
16.7
31
0
0
LINE
8
0
6
CONTINUOUS
10
-40.0
20
10.0
30
0
11
40.0
21
10.0
31
0
0
ENDSEC
0
EOF