0
SECTION
2
HEADER
0
ENDSEC
0
SECTION
2
TABLES
0
TABLE
2
LTYPE
70
2
0
LTYPE
2
CONTINUOUS
70
0
3
Solid line
72
65
73
0
40
0.0
0
ENDTAB
0
TABLE
2
LAYER
70
1
0
LAYER
2
0
70
0
62
7
6
CONTINUOUS
0
ENDTAB
0
ENDSEC
0
SECTION
2
ENTITIES
0
LINE
8
0
6
CONTINUOUS
10
0.0
20
0.0
30
0
11
0.0
21
228.57
31
0
0
LINE
8
0
6
CONTINUOUS
10
-32.5
20
0.0
30
0
11
32.5
21
0.0
31
0
0
ARC
8
0
6
CONTINUOUS
10
2.1136907894279715
20
156.20000340548452
30
0
40
2.0
50
35.099512951406844
51
90.10573338865939
0
LINE
8
0
6
CONTINUOUS
10
2.11
20
158.2
30
0
11
-2.11
21
158.2
31
0
0
ARC
8
0
6
CONTINUOUS
10
-2.1136907894279715
20
156.20000340548452
30
0
40
2.0
50
89.89426661134061
51
144.90048704859316
0
LINE
8
0
6
CONTINUOUS
10
-3.75
20
157.35
30
0
11
-25.0
21
16.7
31
0
0
LINE
8
0
6
CONTINUOUS
10
-25.0
20
16.7
30
0
11
25.0
21
16.7
31
0
0
LINE
8
0
6
CONTINUOUS
10
25.0
20
16.7
30
0
11
3.75
21
157.35
31
0
0
LINE
8
0
6
CONTINUOUS
10
32.5
20
10.0
30
0
11
32.5
21
16.2
31
0
0
ARC
8
0
6
CONTINUOUS
10
32.0
20
16.2
30
0
40
0.5
50
0.0
51
90.0
0
LINE
8
0
6
CONTINUOUS
10
32.0
20
16.7
30
0
11
7.39
21
16.7
31
0
0
ARC
8
0
6
CONTINUOUS
10
7.3919173214267895
20
19.699999387313028
30
0
40
3.0
50
193.10089152010607
51
269.9633818555988
0
LINE
8
0
6
CONTINUOUS
10
4.47
20
19.02
30
0
11
1.75
21
155.69
31
0
0
LINE
8
0
6
CONTINUOUS
10
1.75
20
155.69
30
0
11
1.75
21
196.15
31
0
0
ARC
8
0
6
CONTINUOUS
10
3.75
20
196.15
30
0
40
2.0
50
90.0
51
180.0
0
LINE
8
0
6
CONTINUOUS
10
3.75
20
198.15
30
0
11
5.0
21
198.15
31
0
0
ARC
8
0
6
CONTINUOUS
10
5.0
20
199.15
30
0
40
1.0
50
270.0
51
0.0
0
LINE
8
0
6
CONTINUOUS
10
6.0
20
199.15
30
0
11
6.0
21
201.74
31
0
0
ARC
8
0
6
CONTINUOUS
10
5.000008864671084
20
201.7357893867923
30
0
40
1.0
50
0.2412510788343766
51
44.76580592070099
0
LINE
8
0
6
CONTINUOUS
10
5.71
20
202.44
30
0
11
3.29
21
204.86
31
0
0
ARC
8
0
6
CONTINUOUS
10
3.9999832871379866
20
205.56421852573243
30
0
40
1.0
50
179.66874407969152
51
224.76644445934608
0
ARC
8
0
6
CONTINUOUS
10
0.0
20
205.57
30
0
40
3.0
50
0.0
51
180.0
0
ARC
8
0
6
CONTINUOUS
10
-3.9999832871379866
20
205.56421852573243
30
0
40
1.0
50
315.2335555406539
51
0.3312559203084919
0
LINE
8
0
6
CONTINUOUS
10
-3.29
20
204.86
30
0
11
-5.71
21
202.44
31
0
0
ARC
8
0
6
CONTINUOUS
10
-5.000008864671084
20
201.7357893867923
30
0
40
1.0
50
135.23419407929902
51
179.75874892116562
0
LINE
8
0
6
CONTINUOUS
10
-6.0
20
201.74
30
0
11
-6.0
21
199.15
31
0
0
ARC
8
0
6
CONTINUOUS
10
-5.0
20
199.15
30
0
40
1.0
50
180.0
51
270.0
0
LINE
8
0
6
CONTINUOUS
10
-5.0
20
198.15
30
0
11
-3.75
21
198.15
31
0
0
ARC
8
0
6
CONTINUOUS
10
-3.75
20
196.15
30
0
40
2.0
50
0.0
51
90.0
0
LINE
8
0
6
CONTINUOUS
10
-1.75
20
196.15
30
0
11
-1.75
21
155.69
31
0
0
LINE
8
0
6
CONTINUOUS
10
-1.75
20
155.69
30
0
11
-4.47
21
19.02
31
0
0
ARC
8
0
6
CONTINUOUS
10
-7.3919173214267895
20
19.699999387313028
30
0
40
3.0
50
270.0366181444012
51
346.8991084798939
0
LINE
8
0
6
CONTINUOUS
10
-7.39
20
16.7
30
0
11
-32.0
21
16.7
31
0
0
ARC
8
0
6
CONTINUOUS
10
-32.0
20
16.2
30
0
40
0.5
50
90.0
51
180.0
0
LINE
8
0
6
CONTINUOUS
10
-32.5
20
16.2
30
0
11
-32.5
21
10.0
31
0
0
LINE
8
0
6
CONTINUOUS
10
-32.5
20
10.0
30
0
11
-0.0
21
10.0
31
0
0
LINE
8
0
6
CONTINUOUS
10
-0.0
20
10.0
30
0
11
32.5
21
10.0
31
0
0
ARC
8
0
6
CONTINUOUS
10
3.9999832871379866
20
205.56421852573243
30
0
40
1.0
50
179.66874407969152
51
224.76644445934608
0
LINE
8
0
6
CONTINUOUS
10
3.29
20
204.86
30
0
11
5.71
21
202.44
31
0
0
ARC
8
0
6
CONTINUOUS
10
5.000008864671084
20
201.7357893867923
30
0
40
1.0
50
0.2412510788343766
51
44.76580592070099
0
LINE
8
0
6
CONTINUOUS
10
6.0
20
201.74
30
0
11
6.0
21
199.15
31
0
0
ARC
8
0
6
CONTINUOUS
10
5.0
20
199.15
30
0
40
1.0
50
270.0
51
0.0
0
LINE
8
0
6
CONTINUOUS
10
5.0
20
198.15
30
0
11
3.75
21
198.15
31
0
0
ARC
8
0
6
CONTINUOUS
10
3.75
20
196.15
30
0
40
2.0
50
90.0
51
180.0
0
LINE
8
0
6
CONTINUOUS
10
1.75
20
196.15
30
0
11
1.75
21
155.69
31
0
0
LINE
8
0
6
CONTINUOUS
10
1.75
20
155.69
30
0
11
4.47
21
19.02
31
0
0
ARC
8
0
6
CONTINUOUS
10
7.3919173214267895
20
19.699999387313028
30
0
40
3.0
50
193.10089152010607
51
269.9633818555988
0
LINE
8
0
6
CONTINUOUS
10
7.39
20
16.7
30
0
11
32.0
21
16.7
31
0
0
ARC
8
0
6
CONTINUOUS
10
32.0
20
16.2
30
0
40
0.5
50
0.0
51
90.0
0
LINE
8
0
6
CONTINUOUS
10
32.5
20
16.2
30
0
11
32.5
21
10.0
31
0
0
LINE
8
0
6
CONTINUOUS
10
32.5
20
10.0
30
0
11
-0.0
21
10.0
31
0
0
LINE
8
0
6
CONTINUOUS
10
-0.0
20
10.0
30
0
11
-32.5
21
10.0
31
0
0
LINE
8
0
6
CONTINUOUS
10
-32.5
20
10.0
30
0
11
-32.5
21
16.2
31
0
0
ARC
8
0
6
CONTINUOUS
10
-32.0
20
16.2
30
0
40
0.5
50
90.0
51
180.0
0
LINE
8
0
6
CONTINUOUS
10
-32.0
20
16.7
30
0
11
-7.39
21
16.7
31
0
0
ARC
8
0
6
CONTINUOUS
10
-7.3919173214267895
20
19.699999387313028
30
0
40
3.0
50
270.0366181444012
51
346.8991084798939
0
LINE
8
0
6
CONTINUOUS
10
-4.47
20
19.02
30
0
11
-1.75
21
155.69
31
0
0
LINE
8
0
6
CONTINUOUS
10
-1.75
20
155.69
30
0
11
-1.75
21
196.15
31
0
0
ARC
8
0
6
CONTINUOUS
10
-3.75
20
196.15
30
0
40
2.0
50
0.0
51
90.0
0
LINE
8
0
6
CONTINUOUS
10
-3.75
20
198.15
30
0
11
-5.0
21
198.15
31
0
0
ARC
8
0
6
CONTINUOUS
10
-5.0
20
199.15
30
0
40
1.0
50
180.0
51
270.0
0
LINE
8
0
6
CONTINUOUS
10
-6.0
20
199.15
30
0
11
-6.0
21
201.74
31
0
0
ARC
8
0
6
CONTINUOUS
10
-5.000008864671084
20
201.7357893867923
30
0
40
1.0
50
135.23419407929902
51
179.75874892116562
0
LINE
8
0
6
CONTINUOUS
10
-5.71
20
202.44
30
0
11
-3.29
21
204.86
31
0
0
ARC
8
0
6
CONTINUOUS
10
-3.9999832871379866
20
205.56421852573243
30
0
40
1.0
50
315.2335555406539
51
0.3312559203084919
0
ARC
8
0
6
CONTINUOUS
10
-2.1136907894279715
20
156.20000340548452
30
0
40
2.0
50
89.89426661134061
51
144.90048704859316
0
LINE
8
0
6
CONTINUOUS
10
-3.75
20
157.35
30
0
11
-25.0
21
16.7
31
0
0
ARC
8
0
6
CONTINUOUS
10
2.1136907894279715
20
156.20000340548452
30
0
40
2.0
50
35.099512951406844
51
90.10573338865939
0
LINE
8
0
6
CONTINUOUS
10
3.75
20
157.35
30
0
11
25.0
21
16.7
31
0
0
ARC
8
0
6
CONTINUOUS
10
0.0
20
205.57
30
0
40
3.0
50
0.0
51
180.0
0
LINE
8
0
6
CONTINUOUS
10
32.5
20
10.0
30
0
11
-32.5
21
10.0
31
0
0
LINE
8
0
6
CONTINUOUS
10
-32.5
20
10.0
30
0
11
-32.5
21
0.0
31
0
0
LINE
8
0
6
CONTINUOUS
10
-32.5
20
0.0
30
0
11
32.5
21
0.0
31
0
0
LINE
8
0
6
CONTINUOUS
10
32.5
20
0.0
30
0
11
32.5
21
10.0
31
0
0
ENDSEC
0
EOF