0
SECTION
2
HEADER
0
ENDSEC
0
SECTION
2
TABLES
0
TABLE
2
LTYPE
70
2
0
LTYPE
2
CONTINUOUS
70
0
3
Solid line
72
65
73
0
40
0.0
0
ENDTAB
0
TABLE
2
LAYER
70
1
0
LAYER
2
0
70
0
62
7
6
CONTINUOUS
0
ENDTAB
0
ENDSEC
0
SECTION
2
ENTITIES
0
LINE
8
0
6
CONTINUOUS
10
29.88
20
150.0
30
0
11
-29.88
21
150.0
31
0
0
LINE
8
0
6
CONTINUOUS
10
0.0
20
-0.0
30
0
11
0.0
21
151.0
31
0
0
LINE
8
0
6
CONTINUOUS
10
-29.88
20
0.0
30
0
11
29.88
21
0.0
31
0
0
LINE
8
0
6
CONTINUOUS
10
2.27
20
140.0
30
0
11
5.0
21
140.0
31
0
0
LINE
8
0
6
CONTINUOUS
10
5.0
20
140.0
30
0
11
6.0
21
141.0
31
0
0
LINE
8
0
6
CONTINUOUS
10
6.0
20
141.0
30
0
11
6.0
21
144.0
31
0
0
LINE
8
0
6
CONTINUOUS
10
6.0
20
144.0
30
0
11
3.0
21
147.0
31
0
0
LINE
8
0
6
CONTINUOUS
10
3.0
20
147.0
30
0
11
3.0
21
148.0
31
0
0
ARC
8
0
6
CONTINUOUS
10
-2.220446049250313e-16
20
148.0
30
0
40
3.0
50
0.0
51
90.0
0
ARC
8
0
6
CONTINUOUS
10
2.220446049250313e-16
20
148.0
30
0
40
3.0
50
90.00000000000001
51
180.0
0
LINE
8
0
6
CONTINUOUS
10
-3.0
20
148.0
30
0
11
-3.0
21
147.0
31
0
0
LINE
8
0
6
CONTINUOUS
10
-3.0
20
147.0
30
0
11
-6.0
21
144.0
31
0
0
LINE
8
0
6
CONTINUOUS
10
-6.0
20
144.0
30
0
11
-6.0
21
141.0
31
0
0
LINE
8
0
6
CONTINUOUS
10
-6.0
20
141.0
30
0
11
-5.0
21
140.0
31
0
0
LINE
8
0
6
CONTINUOUS
10
-5.0
20
140.0
30
0
11
-2.27
21
140.0
31
0
0
LINE
8
0
6
CONTINUOUS
10
-2.27
20
140.0
30
0
11
-1.27
21
138.98
31
0
0
LINE
8
0
6
CONTINUOUS
10
-1.27
20
138.98
30
0
11
-2.25
21
25.12
31
0
0
LINE
8
0
6
CONTINUOUS
10
-2.25
20
25.12
30
0
11
-2.25
21
13.12
31
0
0
ARC
8
0
6
CONTINUOUS
10
-5.25
20
13.12
30
0
40
3.0
50
270.0
51
0.0
0
LINE
8
0
6
CONTINUOUS
10
-5.25
20
10.12
30
0
11
-26.88
21
10.12
31
0
0
LINE
8
0
6
CONTINUOUS
10
-26.88
20
10.12
30
0
11
-26.88
21
5.12
31
0
0
LINE
8
0
6
CONTINUOUS
10
-26.88
20
5.12
30
0
11
26.88
21
5.12
31
0
0
LINE
8
0
6
CONTINUOUS
10
26.88
20
5.12
30
0
11
26.88
21
10.12
31
0
0
LINE
8
0
6
CONTINUOUS
10
26.88
20
10.12
30
0
11
5.25
21
10.12
31
0
0
ARC
8
0
6
CONTINUOUS
10
5.25
20
13.12
30
0
40
3.0
50
180.0
51
270.0
0
LINE
8
0
6
CONTINUOUS
10
2.25
20
13.12
30
0
11
2.25
21
25.12
31
0
0
LINE
8
0
6
CONTINUOUS
10
2.25
20
25.12
30
0
11
1.27
21
138.98
31
0
0
LINE
8
0
6
CONTINUOUS
10
1.27
20
138.98
30
0
11
2.27
21
140.0
31
0
0
LINE
8
0
6
CONTINUOUS
10
29.88
20
10.12
30
0
11
26.88
21
10.12
31
0
0
LINE
8
0
6
CONTINUOUS
10
26.88
20
10.12
30
0
11
26.88
21
5.12
31
0
0
LINE
8
0
6
CONTINUOUS
10
26.88
20
5.12
30
0
11
-26.88
21
5.12
31
0
0
LINE
8
0
6
CONTINUOUS
10
-26.88
20
5.12
30
0
11
-26.88
21
10.12
31
0
0
LINE
8
0
6
CONTINUOUS
10
-26.88
20
10.12
30
0
11
-29.88
21
10.12
31
0
0
LINE
8
0
6
CONTINUOUS
10
-29.88
20
10.12
30
0
11
-29.88
21
-0.0
31
0
0
LINE
8
0
6
CONTINUOUS
10
-29.88
20
-0.0
30
0
11
29.88
21
-0.0
31
0
0
LINE
8
0
6
CONTINUOUS
10
29.88
20
-0.0
30
0
11
29.88
21
10.12
31
0
0
ARC
8
0
6
CONTINUOUS
10
-2.220446049250313e-16
20
148.0
30
0
40
3.0
50
0.0
51
90.0
0
LINE
8
0
6
CONTINUOUS
10
3.0
20
148.0
30
0
11
3.0
21
147.0
31
0
0
ARC
8
0
6
CONTINUOUS
10
2.220446049250313e-16
20
148.0
30
0
40
3.0
50
90.00000000000001
51
180.0
0
LINE
8
0
6
CONTINUOUS
10
-3.0
20
147.0
30
0
11
-3.0
21
148.0
31
0
0
LINE
8
0
6
CONTINUOUS
10
-6.0
20
144.0
30
0
11
-3.0
21
147.0
31
0
0
LINE
8
0
6
CONTINUOUS
10
-6.0
20
141.0
30
0
11
-6.0
21
144.0
31
0
0
LINE
8
0
6
CONTINUOUS
10
-5.0
20
140.0
30
0
11
-6.0
21
141.0
31
0
0
LINE
8
0
6
CONTINUOUS
10
-2.27
20
140.0
30
0
11
-5.0
21
140.0
31
0
0
LINE
8
0
6
CONTINUOUS
10
-1.27
20
138.98
30
0
11
-2.27
21
140.0
31
0
0
LINE
8
0
6
CONTINUOUS
10
-2.25
20
25.12
30
0
11
-1.27
21
138.98
31
0
0
LINE
8
0
6
CONTINUOUS
10
1.27
20
138.98
30
0
11
2.25
21
25.12
31
0
0
LINE
8
0
6
CONTINUOUS
10
2.27
20
140.0
30
0
11
1.27
21
138.98
31
0
0
LINE
8
0
6
CONTINUOUS
10
5.0
20
140.0
30
0
11
2.27
21
140.0
31
0
0
LINE
8
0
6
CONTINUOUS
10
6.0
20
141.0
30
0
11
5.0
21
140.0
31
0
0
LINE
8
0
6
CONTINUOUS
10
3.0
20
147.0
30
0
11
6.0
21
144.0
31
0
0
LINE
8
0
6
CONTINUOUS
10
6.0
20
144.0
30
0
11
6.0
21
141.0
31
0
0
LINE
8
0
6
CONTINUOUS
10
6.0
20
141.0
30
0
11
5.0
21
140.0
31
0
0
LINE
8
0
6
CONTINUOUS
10
-29.88
20
10.12
30
0
11
-5.25
21
10.12
31
0
0
LINE
8
0
6
CONTINUOUS
10
-2.25
20
13.12
30
0
11
-2.25
21
25.12
31
0
0
LINE
8
0
6
CONTINUOUS
10
2.25
20
25.12
30
0
11
2.25
21
13.12
31
0
0
LINE
8
0
6
CONTINUOUS
10
5.25
20
10.12
30
0
11
29.88
21
10.12
31
0
0
LINE
8
0
6
CONTINUOUS
10
29.88
20
-0.0
30
0
11
29.88
21
10.12
31
0
0
LINE
8
0
6
CONTINUOUS
10
-29.88
20
-0.0
30
0
11
29.88
21
-0.0
31
0
0
LINE
8
0
6
CONTINUOUS
10
26.88
20
5.12
30
0
11
-26.88
21
5.12
31
0
0
LINE
8
0
6
CONTINUOUS
10
-29.88
20
10.12
30
0
11
-29.88
21
-0.0
31
0
0
LINE
8
0
6
CONTINUOUS
10
26.88
20
5.12
30
0
11
26.88
21
10.12
31
0
0
LINE
8
0
6
CONTINUOUS
10
-26.88
20
10.12
30
0
11
-26.88
21
5.12
31
0
0
ARC
8
0
6
CONTINUOUS
10
5.25
20
13.12
30
0
40
3.0
50
180.0
51
270.0
0
ARC
8
0
6
CONTINUOUS
10
-5.25
20
13.12
30
0
40
3.0
50
270.0
51
0.0
0
ENDSEC
0
EOF