0
SECTION
2
HEADER
0
ENDSEC
0
SECTION
2
TABLES
0
TABLE
2
LTYPE
70
2
0
LTYPE
2
CONTINUOUS
70
0
3
Solid line
72
65
73
0
40
0.0
0
ENDTAB
0
TABLE
2
LAYER
70
1
0
LAYER
2
0
70
0
62
7
6
CONTINUOUS
0
ENDTAB
0
ENDSEC
0
SECTION
2
ENTITIES
0
LINE
8
0
6
CONTINUOUS
10
0.0
20
0.0
30
0
11
0.0
21
228.57
31
0
0
LINE
8
0
6
CONTINUOUS
10
-32.5
20
0.0
30
0
11
32.5
21
0.0
31
0
0
LINE
8
0
6
CONTINUOUS
10
-32.43
20
6.45
30
0
11
32.43
21
6.45
31
0
0
LINE
8
0
6
CONTINUOUS
10
32.43
20
6.45
30
0
11
28.24
21
11.85
31
0
0
ARC
8
0
6
CONTINUOUS
10
25.862756512498827
20
10.020050984007135
30
0
40
3.0
50
37.58827414981941
51
78.51676693276438
0
LINE
8
0
6
CONTINUOUS
10
26.46
20
12.96
30
0
11
8.5
21
16.55
31
0
0
ARC
8
0
6
CONTINUOUS
10
8.869396991004276
20
18.515590461677352
30
0
40
2.0
50
214.94537662304856
51
259.3564454587798
0
LINE
8
0
6
CONTINUOUS
10
7.23
20
17.37
30
0
11
3.75
21
22.35
31
0
0
ARC
8
0
6
CONTINUOUS
10
2.1136907894279693
20
21.200003405484548
30
0
40
2.0
50
35.09951295140639
51
90.10573338865932
0
LINE
8
0
6
CONTINUOUS
10
2.11
20
23.2
30
0
11
-2.11
21
23.2
31
0
0
ARC
8
0
6
CONTINUOUS
10
-2.1136907894279693
20
21.200003405484548
30
0
40
2.0
50
89.89426661134068
51
144.90048704859362
0
LINE
8
0
6
CONTINUOUS
10
-3.75
20
22.35
30
0
11
-7.23
21
17.37
31
0
0
ARC
8
0
6
CONTINUOUS
10
-8.869396991004276
20
18.515590461677352
30
0
40
2.0
50
280.6435545412202
51
325.05462337695144
0
LINE
8
0
6
CONTINUOUS
10
-8.5
20
16.55
30
0
11
-26.46
21
12.96
31
0
0
ARC
8
0
6
CONTINUOUS
10
-25.862756512498827
20
10.020050984007135
30
0
40
3.0
50
101.48323306723563
51
142.41172585018057
0
LINE
8
0
6
CONTINUOUS
10
-28.24
20
11.85
30
0
11
-32.43
21
6.45
31
0
0
ARC
8
0
6
CONTINUOUS
10
3.9999832871379866
20
60.56421852573242
30
0
40
1.0
50
179.6687440796907
51
224.76644445934636
0
LINE
8
0
6
CONTINUOUS
10
3.29
20
59.86
30
0
11
5.71
21
57.44
31
0
0
ARC
8
0
6
CONTINUOUS
10
5.000008864671084
20
56.735789386792305
30
0
40
1.0
50
0.24125107883396948
51
44.76580592070099
0
LINE
8
0
6
CONTINUOUS
10
6.0
20
56.74
30
0
11
6.0
21
54.15
31
0
0
ARC
8
0
6
CONTINUOUS
10
5.0
20
54.15
30
0
40
1.0
50
270.0
51
0.0
0
LINE
8
0
6
CONTINUOUS
10
5.0
20
53.15
30
0
11
3.75
21
53.15
31
0
0
ARC
8
0
6
CONTINUOUS
10
3.75
20
51.15
30
0
40
2.0
50
90.0
51
180.0
0
LINE
8
0
6
CONTINUOUS
10
1.75
20
51.15
30
0
11
1.75
21
20.69
31
0
0
LINE
8
0
6
CONTINUOUS
10
1.75
20
20.69
30
0
11
4.47
21
9.02
31
0
0
ARC
8
0
6
CONTINUOUS
10
7.3919173214267895
20
9.699999387313028
30
0
40
3.0
50
193.10089152010607
51
269.9633818555988
0
LINE
8
0
6
CONTINUOUS
10
7.39
20
6.7
30
0
11
32.0
21
6.7
31
0
0
ARC
8
0
6
CONTINUOUS
10
32.0
20
6.2
30
0
40
0.5
50
0.0
51
90.0
0
LINE
8
0
6
CONTINUOUS
10
32.5
20
6.2
30
0
11
32.5
21
0.0
31
0
0
LINE
8
0
6
CONTINUOUS
10
32.5
20
0.0
30
0
11
-0.0
21
0.0
31
0
0
LINE
8
0
6
CONTINUOUS
10
-0.0
20
0.0
30
0
11
-32.5
21
0.0
31
0
0
LINE
8
0
6
CONTINUOUS
10
-32.5
20
0.0
30
0
11
-32.5
21
6.2
31
0
0
ARC
8
0
6
CONTINUOUS
10
-32.0
20
6.2
30
0
40
0.5
50
90.0
51
180.0
0
LINE
8
0
6
CONTINUOUS
10
-32.0
20
6.7
30
0
11
-7.39
21
6.7
31
0
0
ARC
8
0
6
CONTINUOUS
10
-7.3919173214267895
20
9.699999387313028
30
0
40
3.0
50
270.0366181444012
51
346.8991084798939
0
LINE
8
0
6
CONTINUOUS
10
-4.47
20
9.02
30
0
11
-1.75
21
20.69
31
0
0
LINE
8
0
6
CONTINUOUS
10
-1.75
20
20.69
30
0
11
-1.75
21
51.15
31
0
0
ARC
8
0
6
CONTINUOUS
10
-3.75
20
51.15
30
0
40
2.0
50
0.0
51
90.0
0
LINE
8
0
6
CONTINUOUS
10
-3.75
20
53.15
30
0
11
-5.0
21
53.15
31
0
0
ARC
8
0
6
CONTINUOUS
10
-5.0
20
54.15
30
0
40
1.0
50
180.0
51
270.0
0
LINE
8
0
6
CONTINUOUS
10
-6.0
20
54.15
30
0
11
-6.0
21
56.74
31
0
0
ARC
8
0
6
CONTINUOUS
10
-5.000008864671084
20
56.735789386792305
30
0
40
1.0
50
135.23419407929902
51
179.75874892116605
0
LINE
8
0
6
CONTINUOUS
10
-5.71
20
57.44
30
0
11
-3.29
21
59.86
31
0
0
ARC
8
0
6
CONTINUOUS
10
-3.9999832871379866
20
60.56421852573242
30
0
40
1.0
50
315.23355554065364
51
0.33125592030930606
0
ARC
8
0
6
CONTINUOUS
10
2.1136907894279693
20
21.200003405484548
30
0
40
2.0
50
35.09951295140639
51
90.10573338865932
0
LINE
8
0
6
CONTINUOUS
10
3.75
20
22.35
30
0
11
7.23
21
17.37
31
0
0
ARC
8
0
6
CONTINUOUS
10
8.869396991004276
20
18.515590461677352
30
0
40
2.0
50
214.94537662304856
51
259.3564454587798
0
LINE
8
0
6
CONTINUOUS
10
8.5
20
16.55
30
0
11
26.46
21
12.96
31
0
0
ARC
8
0
6
CONTINUOUS
10
25.862756512498827
20
10.020050984007135
30
0
40
3.0
50
37.58827414981941
51
78.51676693276438
0
LINE
8
0
6
CONTINUOUS
10
28.24
20
11.85
30
0
11
32.43
21
6.45
31
0
0
ARC
8
0
6
CONTINUOUS
10
-2.1136907894279693
20
21.200003405484548
30
0
40
2.0
50
89.89426661134068
51
144.90048704859362
0
LINE
8
0
6
CONTINUOUS
10
-3.75
20
22.35
30
0
11
-7.23
21
17.37
31
0
0
ARC
8
0
6
CONTINUOUS
10
-8.869396991004276
20
18.515590461677352
30
0
40
2.0
50
280.6435545412202
51
325.05462337695144
0
LINE
8
0
6
CONTINUOUS
10
-8.5
20
16.55
30
0
11
-26.46
21
12.96
31
0
0
ARC
8
0
6
CONTINUOUS
10
-25.862756512498827
20
10.020050984007135
30
0
40
3.0
50
101.48323306723563
51
142.41172585018057
0
LINE
8
0
6
CONTINUOUS
10
-28.24
20
11.85
30
0
11
-32.43
21
6.45
31
0
0
ARC
8
0
6
CONTINUOUS
10
0.0
20
60.57
30
0
40
3.0
50
0.0
51
180.0
0
ARC
8
0
6
CONTINUOUS
10
-3.75
20
51.15
30
0
40
2.0
50
0.0
51
90.0
0
LINE
8
0
6
CONTINUOUS
10
-1.75
20
51.15
30
0
11
-1.75
21
20.69
31
0
0
LINE
8
0
6
CONTINUOUS
10
-1.75
20
20.69
30
0
11
-4.47
21
9.02
31
0
0
ARC
8
0
6
CONTINUOUS
10
-7.3919173214267895
20
9.699999387313028
30
0
40
3.0
50
270.0366181444012
51
346.8991084798939
0
LINE
8
0
6
CONTINUOUS
10
-7.39
20
6.7
30
0
11
-32.0
21
6.7
31
0
0
ARC
8
0
6
CONTINUOUS
10
-32.0
20
6.2
30
0
40
0.5
50
90.0
51
180.0
0
LINE
8
0
6
CONTINUOUS
10
-32.5
20
6.2
30
0
11
-32.5
21
0.0
31
0
0
LINE
8
0
6
CONTINUOUS
10
-32.5
20
0.0
30
0
11
32.5
21
0.0
31
0
0
LINE
8
0
6
CONTINUOUS
10
32.5
20
0.0
30
0
11
32.5
21
6.2
31
0
0
ARC
8
0
6
CONTINUOUS
10
32.0
20
6.2
30
0
40
0.5
50
0.0
51
90.0
0
LINE
8
0
6
CONTINUOUS
10
32.0
20
6.7
30
0
11
7.39
21
6.7
31
0
0
ARC
8
0
6
CONTINUOUS
10
7.3919173214267895
20
9.699999387313028
30
0
40
3.0
50
193.10089152010607
51
269.9633818555988
0
LINE
8
0
6
CONTINUOUS
10
4.47
20
9.02
30
0
11
1.75
21
20.69
31
0
0
LINE
8
0
6
CONTINUOUS
10
1.75
20
20.69
30
0
11
1.75
21
51.15
31
0
0
ARC
8
0
6
CONTINUOUS
10
3.75
20
51.15
30
0
40
2.0
50
90.0
51
180.0
0
LINE
8
0
6
CONTINUOUS
10
3.75
20
53.15
30
0
11
5.0
21
53.15
31
0
0
ARC
8
0
6
CONTINUOUS
10
5.0
20
54.15
30
0
40
1.0
50
270.0
51
0.0
0
LINE
8
0
6
CONTINUOUS
10
6.0
20
54.15
30
0
11
6.0
21
56.74
31
0
0
ARC
8
0
6
CONTINUOUS
10
5.000008864671084
20
56.735789386792305
30
0
40
1.0
50
0.24125107883396948
51
44.76580592070099
0
LINE
8
0
6
CONTINUOUS
10
5.71
20
57.44
30
0
11
3.29
21
59.86
31
0
0
ARC
8
0
6
CONTINUOUS
10
3.9999832871379866
20
60.56421852573242
30
0
40
1.0
50
179.6687440796907
51
224.76644445934636
0
ARC
8
0
6
CONTINUOUS
10
0.0
20
60.57
30
0
40
3.0
50
0.0
51
180.0
0
ARC
8
0
6
CONTINUOUS
10
-3.9999832871379866
20
60.56421852573242
30
0
40
1.0
50
315.23355554065364
51
0.33125592030930606
0
LINE
8
0
6
CONTINUOUS
10
-3.29
20
59.86
30
0
11
-5.71
21
57.44
31
0
0
ARC
8
0
6
CONTINUOUS
10
-5.000008864671084
20
56.735789386792305
30
0
40
1.0
50
135.23419407929902
51
179.75874892116605
0
LINE
8
0
6
CONTINUOUS
10
-6.0
20
56.74
30
0
11
-6.0
21
54.15
31
0
0
ARC
8
0
6
CONTINUOUS
10
-5.0
20
54.15
30
0
40
1.0
50
180.0
51
270.0
0
LINE
8
0
6
CONTINUOUS
10
-5.0
20
53.15
30
0
11
-3.75
21
53.15
31
0
0
ENDSEC
0
EOF