0
SECTION
2
HEADER
0
ENDSEC
0
SECTION
2
TABLES
0
TABLE
2
LTYPE
70
2
0
LTYPE
2
CONTINUOUS
70
0
3
Solid line
72
65
73
0
40
0.0
0
ENDTAB
0
TABLE
2
LAYER
70
1
0
LAYER
2
0
70
0
62
7
6
CONTINUOUS
0
ENDTAB
0
ENDSEC
0
SECTION
2
ENTITIES
0
LINE
8
0
6
CONTINUOUS
10
209.51
20
65.0
30
0
11
-207.79
21
65.0
31
0
0
LINE
8
0
6
CONTINUOUS
10
-200.0
20
65.0
30
0
11
-200.0
21
-0.0
31
0
0
LINE
8
0
6
CONTINUOUS
10
200.0
20
-0.0
30
0
11
200.0
21
65.0
31
0
0
LINE
8
0
6
CONTINUOUS
10
0.0
20
-0.0
30
0
11
0.0
21
65.0
31
0
0
LINE
8
0
6
CONTINUOUS
10
-207.79
20
0.0
30
0
11
209.51
21
0.0
31
0
0
ARC
8
0
6
CONTINUOUS
10
-199.9980508845933
20
55.46198501730221
30
0
40
7.79
50
288.62606030253346
51
230.05150479194114
0
LINE
8
0
6
CONTINUOUS
10
-197.51
20
48.08
30
0
11
-197.0
21
8.0
31
0
0
LINE
8
0
6
CONTINUOUS
10
-197.0
20
8.0
30
0
11
-194.0
21
5.0
31
0
0
LINE
8
0
6
CONTINUOUS
10
-194.0
20
5.0
30
0
11
-194.0
21
0.0
31
0
0
LINE
8
0
6
CONTINUOUS
10
106.5
20
0.0
30
0
11
194.5
21
0.0
31
0
0
LINE
8
0
6
CONTINUOUS
10
194.5
20
0.0
30
0
11
194.5
21
5.0
31
0
0
LINE
8
0
6
CONTINUOUS
10
194.5
20
5.0
30
0
11
196.96
21
8.0
31
0
0
LINE
8
0
6
CONTINUOUS
10
196.96
20
8.0
30
0
11
196.96
21
46.48
31
0
0
ARC
8
0
6
CONTINUOUS
10
200.01078970504915
20
55.48737376684048
30
0
40
9.51
50
308.64715898201877
51
251.28880398796957
0
LINE
8
0
6
CONTINUOUS
10
-156.5
20
-0.0
30
0
11
-106.5
21
-0.0
31
0
0
ARC
8
0
6
CONTINUOUS
10
-98.5
20
0.0
30
0
40
8.0
50
-0.0
51
180.0
0
LINE
8
0
6
CONTINUOUS
10
-26.5
20
-0.0
30
0
11
-90.5
21
-0.0
31
0
0
LINE
8
0
6
CONTINUOUS
10
40.5
20
-0.0
30
0
11
90.5
21
-0.0
31
0
0
ARC
8
0
6
CONTINUOUS
10
98.5
20
0.0
30
0
40
8.0
50
-0.0
51
180.0
0
LINE
8
0
6
CONTINUOUS
10
170.5
20
-0.0
30
0
11
106.5
21
-0.0
31
0
0
LINE
8
0
6
CONTINUOUS
10
-106.5
20
0.0
30
0
11
-194.5
21
0.0
31
0
0
LINE
8
0
6
CONTINUOUS
10
-58.0
20
-0.0
30
0
11
-8.0
21
-0.0
31
0
0
ARC
8
0
6
CONTINUOUS
10
0.0
20
0.0
30
0
40
8.0
50
-0.0
51
180.0
0
LINE
8
0
6
CONTINUOUS
10
72.0
20
-0.0
30
0
11
8.0
21
-0.0
31
0
0
ENDSEC
0
EOF