0
SECTION
2
HEADER
0
ENDSEC
0
SECTION
2
TABLES
0
TABLE
2
LTYPE
70
3
0
LTYPE
2
CONTINUOUS
70
0
3
Solid line
72
65
73
0
40
0.0
0
LTYPE
2
HIDDEN
70
0
3
hidden
72
65
73
2
40
9.524999999999999
49
6.35
49
-3.175
0
ENDTAB
0
TABLE
2
LAYER
70
1
0
LAYER
2
0
70
0
62
7
6
CONTINUOUS
0
ENDTAB
0
ENDSEC
0
SECTION
2
ENTITIES
0
LINE
8
0
6
CONTINUOUS
10
-611.06
20
25.0
30
0
11
0.0
21
25.0
31
0
0
LINE
8
0
6
CONTINUOUS
10
-611.06
20
-110.0
30
0
11
0.0
21
-110.0
31
0
0
LINE
8
0
6
CONTINUOUS
10
-100.0
20
30.0
30
0
11
-100.0
21
-110.0
31
0
0
LINE
8
0
6
CONTINUOUS
10
-611.06
20
-60.0
30
0
11
0.0
21
-60.0
31
0
0
LINE
8
0
6
CONTINUOUS
10
-611.06
20
-5.0
30
0
11
0.0
21
-5.0
31
0
0
LINE
8
0
6
CONTINUOUS
10
-611.06
20
30.0
30
0
11
0.0
21
30.0
31
0
0
LINE
8
0
6
CONTINUOUS
10
-611.06
20
-110.0
30
0
11
-611.06
21
30.0
31
0
0
LINE
8
0
6
CONTINUOUS
10
0.0
20
30.0
30
0
11
0.0
21
-110.0
31
0
0
LINE
8
0
6
CONTINUOUS
10
-611.06
20
0.0
30
0
11
0.0
21
0.0
31
0
0
LINE
8
0
6
CONTINUOUS
10
0.0
20
-5.0
30
0
11
-611.06
21
-5.0
31
0
0
LINE
8
0
6
CONTINUOUS
10
-611.06
20
-5.0
30
0
11
-611.06
21
-60.0
31
0
0
LINE
8
0
6
CONTINUOUS
10
-611.06
20
-60.0
30
0
11
0.0
21
-60.0
31
0
0
LINE
8
0
6
CONTINUOUS
10
0.0
20
-60.0
30
0
11
0.0
21
-5.0
31
0
0
LINE
8
0
6
CONTINUOUS
10
0.0
20
30.0
30
0
11
-611.06
21
30.0
31
0
0
LINE
8
0
6
CONTINUOUS
10
-611.06
20
30.0
30
0
11
-611.06
21
25.0
31
0
0
LINE
8
0
6
CONTINUOUS
10
-611.06
20
25.0
30
0
11
0.0
21
25.0
31
0
0
LINE
8
0
6
CONTINUOUS
10
0.0
20
25.0
30
0
11
0.0
21
30.0
31
0
0
LINE
8
0
6
CONTINUOUS
10
0.0
20
0.0
30
0
11
-611.06
21
0.0
31
0
0
LINE
8
0
6
CONTINUOUS
10
-611.06
20
0.0
30
0
11
-611.06
21
-5.0
31
0
0
LINE
8
0
6
CONTINUOUS
10
-611.06
20
-5.0
30
0
11
0.0
21
-5.0
31
0
0
LINE
8
0
6
CONTINUOUS
10
0.0
20
-5.0
30
0
11
0.0
21
0.0
31
0
0
LINE
8
0
6
CONTINUOUS
10
-577.73
20
0.0
30
0
11
-611.06
21
0.0
31
0
0
LINE
8
0
6
CONTINUOUS
10
-577.73
20
25.0
30
0
11
-577.73
21
0.0
31
0
0
LINE
8
0
6
CONTINUOUS
10
-611.06
20
25.0
30
0
11
-611.06
21
0.0
31
0
0
LINE
8
0
6
CONTINUOUS
10
-611.06
20
25.0
30
0
11
-577.73
21
25.0
31
0
0
LINE
8
0
6
CONTINUOUS
10
-602.73
20
25.0
30
0
11
-611.06
21
25.0
31
0
0
LINE
8
0
6
CONTINUOUS
10
-611.06
20
25.0
30
0
11
-611.06
21
12.5
31
0
0
LINE
8
0
6
CONTINUOUS
10
-611.06
20
12.5
30
0
11
-599.61
21
12.5
31
0
0
LINE
8
0
6
CONTINUOUS
10
-599.61
20
12.5
30
0
11
-602.73
21
25.0
31
0
0
LINE
8
0
6
CONTINUOUS
10
-580.61
20
12.5
30
0
11
-577.73
21
12.5
31
0
0
LINE
8
0
6
CONTINUOUS
10
-577.73
20
12.5
30
0
11
-577.73
21
25.0
31
0
0
LINE
8
0
6
CONTINUOUS
10
-577.73
20
25.0
30
0
11
-580.61
21
12.5
31
0
0
LINE
8
0
6
CONTINUOUS
10
-611.06
20
25.0
30
0
11
-602.73
21
25.0
31
0
0
LINE
8
0
6
CONTINUOUS
10
-596.48
20
0.0
30
0
11
-591.23
21
0.0
31
0
0
LINE
8
0
6
CONTINUOUS
10
-589.23
20
0.0
30
0
11
-583.48
21
0.0
31
0
0
LINE
8
0
6
CONTINUOUS
10
-602.73
20
25.0
30
0
11
-596.48
21
0.0
31
0
0
LINE
8
0
6
CONTINUOUS
10
-583.48
20
0.0
30
0
11
-577.73
21
25.0
31
0
0
LINE
8
0
6
CONTINUOUS
10
-544.4
20
0.0
30
0
11
-577.73
21
0.0
31
0
0
LINE
8
0
6
CONTINUOUS
10
-544.4
20
25.0
30
0
11
-544.4
21
0.0
31
0
0
LINE
8
0
6
CONTINUOUS
10
-577.73
20
25.0
30
0
11
-577.73
21
0.0
31
0
0
LINE
8
0
6
CONTINUOUS
10
-577.73
20
25.0
30
0
11
-544.4
21
25.0
31
0
0
LINE
8
0
6
CONTINUOUS
10
-569.4
20
25.0
30
0
11
-577.73
21
25.0
31
0
0
LINE
8
0
6
CONTINUOUS
10
-577.73
20
25.0
30
0
11
-577.73
21
12.5
31
0
0
LINE
8
0
6
CONTINUOUS
10
-577.73
20
12.5
30
0
11
-566.27
21
12.5
31
0
0
LINE
8
0
6
CONTINUOUS
10
-566.27
20
12.5
30
0
11
-569.4
21
25.0
31
0
0
LINE
8
0
6
CONTINUOUS
10
-547.27
20
12.5
30
0
11
-544.4
21
12.5
31
0
0
LINE
8
0
6
CONTINUOUS
10
-544.4
20
12.5
30
0
11
-544.4
21
25.0
31
0
0
LINE
8
0
6
CONTINUOUS
10
-544.4
20
25.0
30
0
11
-547.27
21
12.5
31
0
0
LINE
8
0
6
CONTINUOUS
10
-577.73
20
25.0
30
0
11
-569.4
21
25.0
31
0
0
LINE
8
0
6
CONTINUOUS
10
-563.15
20
0.0
30
0
11
-557.9
21
0.0
31
0
0
LINE
8
0
6
CONTINUOUS
10
-555.9
20
0.0
30
0
11
-550.15
21
0.0
31
0
0
LINE
8
0
6
CONTINUOUS
10
-569.4
20
25.0
30
0
11
-563.15
21
0.0
31
0
0
LINE
8
0
6
CONTINUOUS
10
-550.15
20
0.0
30
0
11
-544.4
21
25.0
31
0
0
LINE
8
0
6
CONTINUOUS
10
-511.06
20
0.0
30
0
11
-544.4
21
0.0
31
0
0
LINE
8
0
6
CONTINUOUS
10
-511.06
20
25.0
30
0
11
-511.06
21
-0.0
31
0
0
LINE
8
0
6
CONTINUOUS
10
-544.4
20
25.0
30
0
11
-544.4
21
-0.0
31
0
0
LINE
8
0
6
CONTINUOUS
10
-544.4
20
25.0
30
0
11
-511.06
21
25.0
31
0
0
LINE
8
0
6
CONTINUOUS
10
-536.06
20
25.0
30
0
11
-544.4
21
25.0
31
0
0
LINE
8
0
6
CONTINUOUS
10
-544.4
20
25.0
30
0
11
-544.4
21
12.5
31
0
0
LINE
8
0
6
CONTINUOUS
10
-544.4
20
12.5
30
0
11
-532.94
21
12.5
31
0
0
LINE
8
0
6
CONTINUOUS
10
-532.94
20
12.5
30
0
11
-536.06
21
25.0
31
0
0
LINE
8
0
6
CONTINUOUS
10
-513.94
20
12.5
30
0
11
-511.06
21
12.5
31
0
0
LINE
8
0
6
CONTINUOUS
10
-511.06
20
12.5
30
0
11
-511.06
21
25.0
31
0
0
LINE
8
0
6
CONTINUOUS
10
-511.06
20
25.0
30
0
11
-513.94
21
12.5
31
0
0
LINE
8
0
6
CONTINUOUS
10
-544.4
20
25.0
30
0
11
-536.06
21
25.0
31
0
0
LINE
8
0
6
CONTINUOUS
10
-529.81
20
-0.0
30
0
11
-524.56
21
-0.0
31
0
0
LINE
8
0
6
CONTINUOUS
10
-522.56
20
-0.0
30
0
11
-516.81
21
-0.0
31
0
0
LINE
8
0
6
CONTINUOUS
10
-536.06
20
25.0
30
0
11
-529.81
21
-0.0
31
0
0
LINE
8
0
6
CONTINUOUS
10
-516.81
20
-0.0
30
0
11
-511.06
21
25.0
31
0
0
LINE
8
0
6
CONTINUOUS
10
-477.73
20
0.0
30
0
11
-511.06
21
0.0
31
0
0
LINE
8
0
6
CONTINUOUS
10
-477.73
20
25.0
30
0
11
-477.73
21
-0.0
31
0
0
LINE
8
0
6
CONTINUOUS
10
-511.06
20
25.0
30
0
11
-511.06
21
-0.0
31
0
0
LINE
8
0
6
CONTINUOUS
10
-511.06
20
25.0
30
0
11
-477.73
21
25.0
31
0
0
LINE
8
0
6
CONTINUOUS
10
-502.73
20
25.0
30
0
11
-511.06
21
25.0
31
0
0
LINE
8
0
6
CONTINUOUS
10
-511.06
20
25.0
30
0
11
-511.06
21
12.5
31
0
0
LINE
8
0
6
CONTINUOUS
10
-511.06
20
12.5
30
0
11
-499.61
21
12.5
31
0
0
LINE
8
0
6
CONTINUOUS
10
-499.61
20
12.5
30
0
11
-502.73
21
25.0
31
0
0
LINE
8
0
6
CONTINUOUS
10
-480.61
20
12.5
30
0
11
-477.73
21
12.5
31
0
0
LINE
8
0
6
CONTINUOUS
10
-477.73
20
12.5
30
0
11
-477.73
21
25.0
31
0
0
LINE
8
0
6
CONTINUOUS
10
-477.73
20
25.0
30
0
11
-480.61
21
12.5
31
0
0
LINE
8
0
6
CONTINUOUS
10
-511.06
20
25.0
30
0
11
-502.73
21
25.0
31
0
0
LINE
8
0
6
CONTINUOUS
10
-496.48
20
-0.0
30
0
11
-491.23
21
-0.0
31
0
0
LINE
8
0
6
CONTINUOUS
10
-489.23
20
-0.0
30
0
11
-483.48
21
-0.0
31
0
0
LINE
8
0
6
CONTINUOUS
10
-502.73
20
25.0
30
0
11
-496.48
21
-0.0
31
0
0
LINE
8
0
6
CONTINUOUS
10
-483.48
20
-0.0
30
0
11
-477.73
21
25.0
31
0
0
LINE
8
0
6
CONTINUOUS
10
-444.4
20
0.0
30
0
11
-477.73
21
0.0
31
0
0
LINE
8
0
6
CONTINUOUS
10
-444.4
20
25.0
30
0
11
-444.4
21
-0.0
31
0
0
LINE
8
0
6
CONTINUOUS
10
-477.73
20
25.0
30
0
11
-477.73
21
-0.0
31
0
0
LINE
8
0
6
CONTINUOUS
10
-477.73
20
25.0
30
0
11
-444.4
21
25.0
31
0
0
LINE
8
0
6
CONTINUOUS
10
-469.4
20
25.0
30
0
11
-477.73
21
25.0
31
0
0
LINE
8
0
6
CONTINUOUS
10
-477.73
20
25.0
30
0
11
-477.73
21
12.5
31
0
0
LINE
8
0
6
CONTINUOUS
10
-477.73
20
12.5
30
0
11
-466.27
21
12.5
31
0
0
LINE
8
0
6
CONTINUOUS
10
-466.27
20
12.5
30
0
11
-469.4
21
25.0
31
0
0
LINE
8
0
6
CONTINUOUS
10
-447.27
20
12.5
30
0
11
-444.4
21
12.5
31
0
0
LINE
8
0
6
CONTINUOUS
10
-444.4
20
12.5
30
0
11
-444.4
21
25.0
31
0
0
LINE
8
0
6
CONTINUOUS
10
-444.4
20
25.0
30
0
11
-447.27
21
12.5
31
0
0
LINE
8
0
6
CONTINUOUS
10
-477.73
20
25.0
30
0
11
-469.4
21
25.0
31
0
0
LINE
8
0
6
CONTINUOUS
10
-463.15
20
-0.0
30
0
11
-457.9
21
-0.0
31
0
0
LINE
8
0
6
CONTINUOUS
10
-455.9
20
-0.0
30
0
11
-450.15
21
-0.0
31
0
0
LINE
8
0
6
CONTINUOUS
10
-469.4
20
25.0
30
0
11
-463.15
21
-0.0
31
0
0
LINE
8
0
6
CONTINUOUS
10
-450.15
20
-0.0
30
0
11
-444.4
21
25.0
31
0
0
LINE
8
0
6
CONTINUOUS
10
-411.06
20
0.0
30
0
11
-444.4
21
0.0
31
0
0
LINE
8
0
6
CONTINUOUS
10
-411.06
20
25.0
30
0
11
-411.06
21
-0.0
31
0
0
LINE
8
0
6
CONTINUOUS
10
-444.4
20
25.0
30
0
11
-444.4
21
-0.0
31
0
0
LINE
8
0
6
CONTINUOUS
10
-444.4
20
25.0
30
0
11
-411.06
21
25.0
31
0
0
LINE
8
0
6
CONTINUOUS
10
-436.06
20
25.0
30
0
11
-444.4
21
25.0
31
0
0
LINE
8
0
6
CONTINUOUS
10
-444.4
20
25.0
30
0
11
-444.4
21
12.5
31
0
0
LINE
8
0
6
CONTINUOUS
10
-444.4
20
12.5
30
0
11
-432.94
21
12.5
31
0
0
LINE
8
0
6
CONTINUOUS
10
-432.94
20
12.5
30
0
11
-436.06
21
25.0
31
0
0
LINE
8
0
6
CONTINUOUS
10
-413.94
20
12.5
30
0
11
-411.06
21
12.5
31
0
0
LINE
8
0
6
CONTINUOUS
10
-411.06
20
12.5
30
0
11
-411.06
21
25.0
31
0
0
LINE
8
0
6
CONTINUOUS
10
-411.06
20
25.0
30
0
11
-413.94
21
12.5
31
0
0
LINE
8
0
6
CONTINUOUS
10
-444.4
20
25.0
30
0
11
-436.06
21
25.0
31
0
0
LINE
8
0
6
CONTINUOUS
10
-429.81
20
-0.0
30
0
11
-424.56
21
-0.0
31
0
0
LINE
8
0
6
CONTINUOUS
10
-422.56
20
-0.0
30
0
11
-416.81
21
-0.0
31
0
0
LINE
8
0
6
CONTINUOUS
10
-436.06
20
25.0
30
0
11
-429.81
21
-0.0
31
0
0
LINE
8
0
6
CONTINUOUS
10
-416.81
20
-0.0
30
0
11
-411.06
21
25.0
31
0
0
LINE
8
0
6
CONTINUOUS
10
-377.73
20
0.0
30
0
11
-411.06
21
0.0
31
0
0
LINE
8
0
6
CONTINUOUS
10
-377.73
20
25.0
30
0
11
-377.73
21
-0.0
31
0
0
LINE
8
0
6
CONTINUOUS
10
-411.06
20
25.0
30
0
11
-411.06
21
-0.0
31
0
0
LINE
8
0
6
CONTINUOUS
10
-411.06
20
25.0
30
0
11
-377.73
21
25.0
31
0
0
LINE
8
0
6
CONTINUOUS
10
-402.73
20
25.0
30
0
11
-411.06
21
25.0
31
0
0
LINE
8
0
6
CONTINUOUS
10
-411.06
20
25.0
30
0
11
-411.06
21
12.5
31
0
0
LINE
8
0
6
CONTINUOUS
10
-411.06
20
12.5
30
0
11
-399.61
21
12.5
31
0
0
LINE
8
0
6
CONTINUOUS
10
-399.61
20
12.5
30
0
11
-402.73
21
25.0
31
0
0
LINE
8
0
6
CONTINUOUS
10
-380.61
20
12.5
30
0
11
-377.73
21
12.5
31
0
0
LINE
8
0
6
CONTINUOUS
10
-377.73
20
12.5
30
0
11
-377.73
21
25.0
31
0
0
LINE
8
0
6
CONTINUOUS
10
-377.73
20
25.0
30
0
11
-380.61
21
12.5
31
0
0
LINE
8
0
6
CONTINUOUS
10
-411.06
20
25.0
30
0
11
-402.73
21
25.0
31
0
0
LINE
8
0
6
CONTINUOUS
10
-396.48
20
-0.0
30
0
11
-391.23
21
-0.0
31
0
0
LINE
8
0
6
CONTINUOUS
10
-389.23
20
-0.0
30
0
11
-383.48
21
-0.0
31
0
0
LINE
8
0
6
CONTINUOUS
10
-402.73
20
25.0
30
0
11
-396.48
21
-0.0
31
0
0
LINE
8
0
6
CONTINUOUS
10
-383.48
20
-0.0
30
0
11
-377.73
21
25.0
31
0
0
LINE
8
0
6
CONTINUOUS
10
-344.4
20
0.0
30
0
11
-377.73
21
0.0
31
0
0
LINE
8
0
6
CONTINUOUS
10
-344.4
20
25.0
30
0
11
-344.4
21
-0.0
31
0
0
LINE
8
0
6
CONTINUOUS
10
-377.73
20
25.0
30
0
11
-377.73
21
-0.0
31
0
0
LINE
8
0
6
CONTINUOUS
10
-377.73
20
25.0
30
0
11
-344.4
21
25.0
31
0
0
LINE
8
0
6
CONTINUOUS
10
-369.4
20
25.0
30
0
11
-377.73
21
25.0
31
0
0
LINE
8
0
6
CONTINUOUS
10
-377.73
20
25.0
30
0
11
-377.73
21
12.5
31
0
0
LINE
8
0
6
CONTINUOUS
10
-377.73
20
12.5
30
0
11
-366.27
21
12.5
31
0
0
LINE
8
0
6
CONTINUOUS
10
-366.27
20
12.5
30
0
11
-369.4
21
25.0
31
0
0
LINE
8
0
6
CONTINUOUS
10
-347.27
20
12.5
30
0
11
-344.4
21
12.5
31
0
0
LINE
8
0
6
CONTINUOUS
10
-344.4
20
12.5
30
0
11
-344.4
21
25.0
31
0
0
LINE
8
0
6
CONTINUOUS
10
-344.4
20
25.0
30
0
11
-347.27
21
12.5
31
0
0
LINE
8
0
6
CONTINUOUS
10
-377.73
20
25.0
30
0
11
-369.4
21
25.0
31
0
0
LINE
8
0
6
CONTINUOUS
10
-363.15
20
-0.0
30
0
11
-357.9
21
-0.0
31
0
0
LINE
8
0
6
CONTINUOUS
10
-355.9
20
-0.0
30
0
11
-350.15
21
-0.0
31
0
0
LINE
8
0
6
CONTINUOUS
10
-369.4
20
25.0
30
0
11
-363.15
21
-0.0
31
0
0
LINE
8
0
6
CONTINUOUS
10
-350.15
20
-0.0
30
0
11
-344.4
21
25.0
31
0
0
LINE
8
0
6
CONTINUOUS
10
-311.06
20
0.0
30
0
11
-344.4
21
0.0
31
0
0
LINE
8
0
6
CONTINUOUS
10
-311.06
20
25.0
30
0
11
-311.06
21
-0.0
31
0
0
LINE
8
0
6
CONTINUOUS
10
-344.4
20
25.0
30
0
11
-344.4
21
-0.0
31
0
0
LINE
8
0
6
CONTINUOUS
10
-344.4
20
25.0
30
0
11
-311.06
21
25.0
31
0
0
LINE
8
0
6
CONTINUOUS
10
-336.06
20
25.0
30
0
11
-344.4
21
25.0
31
0
0
LINE
8
0
6
CONTINUOUS
10
-344.4
20
25.0
30
0
11
-344.4
21
12.5
31
0
0
LINE
8
0
6
CONTINUOUS
10
-344.4
20
12.5
30
0
11
-332.94
21
12.5
31
0
0
LINE
8
0
6
CONTINUOUS
10
-332.94
20
12.5
30
0
11
-336.06
21
25.0
31
0
0
LINE
8
0
6
CONTINUOUS
10
-313.94
20
12.5
30
0
11
-311.06
21
12.5
31
0
0
LINE
8
0
6
CONTINUOUS
10
-311.06
20
12.5
30
0
11
-311.06
21
25.0
31
0
0
LINE
8
0
6
CONTINUOUS
10
-311.06
20
25.0
30
0
11
-313.94
21
12.5
31
0
0
LINE
8
0
6
CONTINUOUS
10
-344.4
20
25.0
30
0
11
-336.06
21
25.0
31
0
0
LINE
8
0
6
CONTINUOUS
10
-329.81
20
-0.0
30
0
11
-324.56
21
-0.0
31
0
0
LINE
8
0
6
CONTINUOUS
10
-322.56
20
-0.0
30
0
11
-316.81
21
-0.0
31
0
0
LINE
8
0
6
CONTINUOUS
10
-336.06
20
25.0
30
0
11
-329.81
21
-0.0
31
0
0
LINE
8
0
6
CONTINUOUS
10
-316.81
20
-0.0
30
0
11
-311.06
21
25.0
31
0
0
LINE
8
0
6
CONTINUOUS
10
-277.73
20
0.0
30
0
11
-311.06
21
0.0
31
0
0
LINE
8
0
6
CONTINUOUS
10
-277.73
20
25.0
30
0
11
-277.73
21
-0.0
31
0
0
LINE
8
0
6
CONTINUOUS
10
-311.06
20
25.0
30
0
11
-311.06
21
-0.0
31
0
0
LINE
8
0
6
CONTINUOUS
10
-311.06
20
25.0
30
0
11
-277.73
21
25.0
31
0
0
LINE
8
0
6
CONTINUOUS
10
-302.73
20
25.0
30
0
11
-311.06
21
25.0
31
0
0
LINE
8
0
6
CONTINUOUS
10
-311.06
20
25.0
30
0
11
-311.06
21
12.5
31
0
0
LINE
8
0
6
CONTINUOUS
10
-311.06
20
12.5
30
0
11
-299.61
21
12.5
31
0
0
LINE
8
0
6
CONTINUOUS
10
-299.61
20
12.5
30
0
11
-302.73
21
25.0
31
0
0
LINE
8
0
6
CONTINUOUS
10
-280.61
20
12.5
30
0
11
-277.73
21
12.5
31
0
0
LINE
8
0
6
CONTINUOUS
10
-277.73
20
12.5
30
0
11
-277.73
21
25.0
31
0
0
LINE
8
0
6
CONTINUOUS
10
-277.73
20
25.0
30
0
11
-280.61
21
12.5
31
0
0
LINE
8
0
6
CONTINUOUS
10
-311.06
20
25.0
30
0
11
-302.73
21
25.0
31
0
0
LINE
8
0
6
CONTINUOUS
10
-296.48
20
-0.0
30
0
11
-291.23
21
-0.0
31
0
0
LINE
8
0
6
CONTINUOUS
10
-289.23
20
-0.0
30
0
11
-283.48
21
-0.0
31
0
0
LINE
8
0
6
CONTINUOUS
10
-302.73
20
25.0
30
0
11
-296.48
21
-0.0
31
0
0
LINE
8
0
6
CONTINUOUS
10
-283.48
20
-0.0
30
0
11
-277.73
21
25.0
31
0
0
LINE
8
0
6
CONTINUOUS
10
-244.4
20
0.0
30
0
11
-277.73
21
0.0
31
0
0
LINE
8
0
6
CONTINUOUS
10
-244.4
20
25.0
30
0
11
-244.4
21
-0.0
31
0
0
LINE
8
0
6
CONTINUOUS
10
-277.73
20
25.0
30
0
11
-277.73
21
-0.0
31
0
0
LINE
8
0
6
CONTINUOUS
10
-277.73
20
25.0
30
0
11
-244.4
21
25.0
31
0
0
LINE
8
0
6
CONTINUOUS
10
-269.4
20
25.0
30
0
11
-277.73
21
25.0
31
0
0
LINE
8
0
6
CONTINUOUS
10
-277.73
20
25.0
30
0
11
-277.73
21
12.5
31
0
0
LINE
8
0
6
CONTINUOUS
10
-277.73
20
12.5
30
0
11
-266.27
21
12.5
31
0
0
LINE
8
0
6
CONTINUOUS
10
-266.27
20
12.5
30
0
11
-269.4
21
25.0
31
0
0
LINE
8
0
6
CONTINUOUS
10
-247.27
20
12.5
30
0
11
-244.4
21
12.5
31
0
0
LINE
8
0
6
CONTINUOUS
10
-244.4
20
12.5
30
0
11
-244.4
21
25.0
31
0
0
LINE
8
0
6
CONTINUOUS
10
-244.4
20
25.0
30
0
11
-247.27
21
12.5
31
0
0
LINE
8
0
6
CONTINUOUS
10
-277.73
20
25.0
30
0
11
-269.4
21
25.0
31
0
0
LINE
8
0
6
CONTINUOUS
10
-263.15
20
-0.0
30
0
11
-257.9
21
-0.0
31
0
0
LINE
8
0
6
CONTINUOUS
10
-255.9
20
-0.0
30
0
11
-250.15
21
-0.0
31
0
0
LINE
8
0
6
CONTINUOUS
10
-269.4
20
25.0
30
0
11
-263.15
21
-0.0
31
0
0
LINE
8
0
6
CONTINUOUS
10
-250.15
20
-0.0
30
0
11
-244.4
21
25.0
31
0
0
LINE
8
0
6
CONTINUOUS
10
-211.06
20
0.0
30
0
11
-244.4
21
0.0
31
0
0
LINE
8
0
6
CONTINUOUS
10
-211.06
20
25.0
30
0
11
-211.06
21
-0.0
31
0
0
LINE
8
0
6
CONTINUOUS
10
-244.4
20
25.0
30
0
11
-244.4
21
-0.0
31
0
0
LINE
8
0
6
CONTINUOUS
10
-244.4
20
25.0
30
0
11
-211.06
21
25.0
31
0
0
LINE
8
0
6
CONTINUOUS
10
-236.06
20
25.0
30
0
11
-244.4
21
25.0
31
0
0
LINE
8
0
6
CONTINUOUS
10
-244.4
20
25.0
30
0
11
-244.4
21
12.5
31
0
0
LINE
8
0
6
CONTINUOUS
10
-244.4
20
12.5
30
0
11
-232.94
21
12.5
31
0
0
LINE
8
0
6
CONTINUOUS
10
-232.94
20
12.5
30
0
11
-236.06
21
25.0
31
0
0
LINE
8
0
6
CONTINUOUS
10
-213.94
20
12.5
30
0
11
-211.06
21
12.5
31
0
0
LINE
8
0
6
CONTINUOUS
10
-211.06
20
12.5
30
0
11
-211.06
21
25.0
31
0
0
LINE
8
0
6
CONTINUOUS
10
-211.06
20
25.0
30
0
11
-213.94
21
12.5
31
0
0
LINE
8
0
6
CONTINUOUS
10
-244.4
20
25.0
30
0
11
-236.06
21
25.0
31
0
0
LINE
8
0
6
CONTINUOUS
10
-229.81
20
-0.0
30
0
11
-224.56
21
-0.0
31
0
0
LINE
8
0
6
CONTINUOUS
10
-222.56
20
-0.0
30
0
11
-216.81
21
-0.0
31
0
0
LINE
8
0
6
CONTINUOUS
10
-236.06
20
25.0
30
0
11
-229.81
21
-0.0
31
0
0
LINE
8
0
6
CONTINUOUS
10
-216.81
20
-0.0
30
0
11
-211.06
21
25.0
31
0
0
LINE
8
0
6
CONTINUOUS
10
-177.73
20
0.0
30
0
11
-211.06
21
0.0
31
0
0
LINE
8
0
6
CONTINUOUS
10
-177.73
20
25.0
30
0
11
-177.73
21
-0.0
31
0
0
LINE
8
0
6
CONTINUOUS
10
-211.06
20
25.0
30
0
11
-211.06
21
-0.0
31
0
0
LINE
8
0
6
CONTINUOUS
10
-211.06
20
25.0
30
0
11
-177.73
21
25.0
31
0
0
LINE
8
0
6
CONTINUOUS
10
-202.73
20
25.0
30
0
11
-211.06
21
25.0
31
0
0
LINE
8
0
6
CONTINUOUS
10
-211.06
20
25.0
30
0
11
-211.06
21
12.5
31
0
0
LINE
8
0
6
CONTINUOUS
10
-211.06
20
12.5
30
0
11
-199.61
21
12.5
31
0
0
LINE
8
0
6
CONTINUOUS
10
-199.61
20
12.5
30
0
11
-202.73
21
25.0
31
0
0
LINE
8
0
6
CONTINUOUS
10
-180.61
20
12.5
30
0
11
-177.73
21
12.5
31
0
0
LINE
8
0
6
CONTINUOUS
10
-177.73
20
12.5
30
0
11
-177.73
21
25.0
31
0
0
LINE
8
0
6
CONTINUOUS
10
-177.73
20
25.0
30
0
11
-180.61
21
12.5
31
0
0
LINE
8
0
6
CONTINUOUS
10
-211.06
20
25.0
30
0
11
-202.73
21
25.0
31
0
0
LINE
8
0
6
CONTINUOUS
10
-196.48
20
-0.0
30
0
11
-191.23
21
-0.0
31
0
0
LINE
8
0
6
CONTINUOUS
10
-189.23
20
-0.0
30
0
11
-183.48
21
-0.0
31
0
0
LINE
8
0
6
CONTINUOUS
10
-202.73
20
25.0
30
0
11
-196.48
21
-0.0
31
0
0
LINE
8
0
6
CONTINUOUS
10
-183.48
20
-0.0
30
0
11
-177.73
21
25.0
31
0
0
LINE
8
0
6
CONTINUOUS
10
-144.4
20
0.0
30
0
11
-177.73
21
0.0
31
0
0
LINE
8
0
6
CONTINUOUS
10
-144.4
20
25.0
30
0
11
-144.4
21
-0.0
31
0
0
LINE
8
0
6
CONTINUOUS
10
-177.73
20
25.0
30
0
11
-177.73
21
-0.0
31
0
0
LINE
8
0
6
CONTINUOUS
10
-177.73
20
25.0
30
0
11
-144.4
21
25.0
31
0
0
LINE
8
0
6
CONTINUOUS
10
-169.4
20
25.0
30
0
11
-177.73
21
25.0
31
0
0
LINE
8
0
6
CONTINUOUS
10
-177.73
20
25.0
30
0
11
-177.73
21
12.5
31
0
0
LINE
8
0
6
CONTINUOUS
10
-177.73
20
12.5
30
0
11
-166.27
21
12.5
31
0
0
LINE
8
0
6
CONTINUOUS
10
-166.27
20
12.5
30
0
11
-169.4
21
25.0
31
0
0
LINE
8
0
6
CONTINUOUS
10
-147.27
20
12.5
30
0
11
-144.4
21
12.5
31
0
0
LINE
8
0
6
CONTINUOUS
10
-144.4
20
12.5
30
0
11
-144.4
21
25.0
31
0
0
LINE
8
0
6
CONTINUOUS
10
-144.4
20
25.0
30
0
11
-147.27
21
12.5
31
0
0
LINE
8
0
6
CONTINUOUS
10
-177.73
20
25.0
30
0
11
-169.4
21
25.0
31
0
0
LINE
8
0
6
CONTINUOUS
10
-163.15
20
-0.0
30
0
11
-157.9
21
-0.0
31
0
0
LINE
8
0
6
CONTINUOUS
10
-155.9
20
-0.0
30
0
11
-150.15
21
-0.0
31
0
0
LINE
8
0
6
CONTINUOUS
10
-169.4
20
25.0
30
0
11
-163.15
21
-0.0
31
0
0
LINE
8
0
6
CONTINUOUS
10
-150.15
20
-0.0
30
0
11
-144.4
21
25.0
31
0
0
LINE
8
0
6
CONTINUOUS
10
-111.06
20
0.0
30
0
11
-144.4
21
0.0
31
0
0
LINE
8
0
6
CONTINUOUS
10
-111.06
20
25.0
30
0
11
-111.06
21
-0.0
31
0
0
LINE
8
0
6
CONTINUOUS
10
-144.4
20
25.0
30
0
11
-144.4
21
-0.0
31
0
0
LINE
8
0
6
CONTINUOUS
10
-144.4
20
25.0
30
0
11
-111.06
21
25.0
31
0
0
LINE
8
0
6
CONTINUOUS
10
-136.06
20
25.0
30
0
11
-144.4
21
25.0
31
0
0
LINE
8
0
6
CONTINUOUS
10
-144.4
20
25.0
30
0
11
-144.4
21
12.5
31
0
0
LINE
8
0
6
CONTINUOUS
10
-144.4
20
12.5
30
0
11
-132.94
21
12.5
31
0
0
LINE
8
0
6
CONTINUOUS
10
-132.94
20
12.5
30
0
11
-136.06
21
25.0
31
0
0
LINE
8
0
6
CONTINUOUS
10
-113.94
20
12.5
30
0
11
-111.06
21
12.5
31
0
0
LINE
8
0
6
CONTINUOUS
10
-111.06
20
12.5
30
0
11
-111.06
21
25.0
31
0
0
LINE
8
0
6
CONTINUOUS
10
-111.06
20
25.0
30
0
11
-113.94
21
12.5
31
0
0
LINE
8
0
6
CONTINUOUS
10
-144.4
20
25.0
30
0
11
-136.06
21
25.0
31
0
0
LINE
8
0
6
CONTINUOUS
10
-129.81
20
-0.0
30
0
11
-124.56
21
-0.0
31
0
0
LINE
8
0
6
CONTINUOUS
10
-122.56
20
-0.0
30
0
11
-116.81
21
-0.0
31
0
0
LINE
8
0
6
CONTINUOUS
10
-136.06
20
25.0
30
0
11
-129.81
21
-0.0
31
0
0
LINE
8
0
6
CONTINUOUS
10
-116.81
20
-0.0
30
0
11
-111.06
21
25.0
31
0
0
LINE
8
0
6
CONTINUOUS
10
-77.73
20
0.0
30
0
11
-111.06
21
0.0
31
0
0
LINE
8
0
6
CONTINUOUS
10
-77.73
20
25.0
30
0
11
-77.73
21
-0.0
31
0
0
LINE
8
0
6
CONTINUOUS
10
-111.06
20
25.0
30
0
11
-111.06
21
-0.0
31
0
0
LINE
8
0
6
CONTINUOUS
10
-111.06
20
25.0
30
0
11
-77.73
21
25.0
31
0
0
LINE
8
0
6
CONTINUOUS
10
-102.73
20
25.0
30
0
11
-111.06
21
25.0
31
0
0
LINE
8
0
6
CONTINUOUS
10
-111.06
20
25.0
30
0
11
-111.06
21
12.5
31
0
0
LINE
8
0
6
CONTINUOUS
10
-111.06
20
12.5
30
0
11
-99.61
21
12.5
31
0
0
LINE
8
0
6
CONTINUOUS
10
-99.61
20
12.5
30
0
11
-102.73
21
25.0
31
0
0
LINE
8
0
6
CONTINUOUS
10
-80.61
20
12.5
30
0
11
-77.73
21
12.5
31
0
0
LINE
8
0
6
CONTINUOUS
10
-77.73
20
12.5
30
0
11
-77.73
21
25.0
31
0
0
LINE
8
0
6
CONTINUOUS
10
-77.73
20
25.0
30
0
11
-80.61
21
12.5
31
0
0
LINE
8
0
6
CONTINUOUS
10
-111.06
20
25.0
30
0
11
-102.73
21
25.0
31
0
0
LINE
8
0
6
CONTINUOUS
10
-96.48
20
-0.0
30
0
11
-91.23
21
-0.0
31
0
0
LINE
8
0
6
CONTINUOUS
10
-89.23
20
-0.0
30
0
11
-83.48
21
-0.0
31
0
0
LINE
8
0
6
CONTINUOUS
10
-102.73
20
25.0
30
0
11
-96.48
21
-0.0
31
0
0
LINE
8
0
6
CONTINUOUS
10
-83.48
20
-0.0
30
0
11
-77.73
21
25.0
31
0
0
LINE
8
0
6
CONTINUOUS
10
-44.4
20
0.0
30
0
11
-77.73
21
0.0
31
0
0
LINE
8
0
6
CONTINUOUS
10
-44.4
20
25.0
30
0
11
-44.4
21
-0.0
31
0
0
LINE
8
0
6
CONTINUOUS
10
-77.73
20
25.0
30
0
11
-77.73
21
-0.0
31
0
0
LINE
8
0
6
CONTINUOUS
10
-77.73
20
25.0
30
0
11
-44.4
21
25.0
31
0
0
LINE
8
0
6
CONTINUOUS
10
-69.4
20
25.0
30
0
11
-77.73
21
25.0
31
0
0
LINE
8
0
6
CONTINUOUS
10
-77.73
20
25.0
30
0
11
-77.73
21
12.5
31
0
0
LINE
8
0
6
CONTINUOUS
10
-77.73
20
12.5
30
0
11
-66.27
21
12.5
31
0
0
LINE
8
0
6
CONTINUOUS
10
-66.27
20
12.5
30
0
11
-69.4
21
25.0
31
0
0
LINE
8
0
6
CONTINUOUS
10
-47.27
20
12.5
30
0
11
-44.4
21
12.5
31
0
0
LINE
8
0
6
CONTINUOUS
10
-44.4
20
12.5
30
0
11
-44.4
21
25.0
31
0
0
LINE
8
0
6
CONTINUOUS
10
-44.4
20
25.0
30
0
11
-47.27
21
12.5
31
0
0
LINE
8
0
6
CONTINUOUS
10
-77.73
20
25.0
30
0
11
-69.4
21
25.0
31
0
0
LINE
8
0
6
CONTINUOUS
10
-63.15
20
-0.0
30
0
11
-57.9
21
-0.0
31
0
0
LINE
8
0
6
CONTINUOUS
10
-55.9
20
-0.0
30
0
11
-50.15
21
-0.0
31
0
0
LINE
8
0
6
CONTINUOUS
10
-69.4
20
25.0
30
0
11
-63.15
21
-0.0
31
0
0
LINE
8
0
6
CONTINUOUS
10
-50.15
20
-0.0
30
0
11
-44.4
21
25.0
31
0
0
LINE
8
0
6
CONTINUOUS
10
-11.06
20
0.0
30
0
11
-44.4
21
0.0
31
0
0
LINE
8
0
6
CONTINUOUS
10
-11.06
20
25.0
30
0
11
-11.06
21
-0.0
31
0
0
LINE
8
0
6
CONTINUOUS
10
-44.4
20
25.0
30
0
11
-44.4
21
-0.0
31
0
0
LINE
8
0
6
CONTINUOUS
10
-44.4
20
25.0
30
0
11
-11.06
21
25.0
31
0
0
LINE
8
0
6
CONTINUOUS
10
-36.06
20
25.0
30
0
11
-44.4
21
25.0
31
0
0
LINE
8
0
6
CONTINUOUS
10
-44.4
20
25.0
30
0
11
-44.4
21
12.5
31
0
0
LINE
8
0
6
CONTINUOUS
10
-44.4
20
12.5
30
0
11
-32.94
21
12.5
31
0
0
LINE
8
0
6
CONTINUOUS
10
-32.94
20
12.5
30
0
11
-36.06
21
25.0
31
0
0
LINE
8
0
6
CONTINUOUS
10
-13.94
20
12.5
30
0
11
-11.06
21
12.5
31
0
0
LINE
8
0
6
CONTINUOUS
10
-11.06
20
12.5
30
0
11
-11.06
21
25.0
31
0
0
LINE
8
0
6
CONTINUOUS
10
-11.06
20
25.0
30
0
11
-13.94
21
12.5
31
0
0
LINE
8
0
6
CONTINUOUS
10
-44.4
20
25.0
30
0
11
-36.06
21
25.0
31
0
0
LINE
8
0
6
CONTINUOUS
10
-29.81
20
-0.0
30
0
11
-24.56
21
-0.0
31
0
0
LINE
8
0
6
CONTINUOUS
10
-22.56
20
-0.0
30
0
11
-16.81
21
-0.0
31
0
0
LINE
8
0
6
CONTINUOUS
10
-36.06
20
25.0
30
0
11
-29.81
21
-0.0
31
0
0
LINE
8
0
6
CONTINUOUS
10
-16.81
20
-0.0
30
0
11
-11.06
21
25.0
31
0
0
LINE
8
0
6
CONTINUOUS
10
-511.06
20
-110.0
30
0
11
-611.06
21
-110.0
31
0
0
LINE
8
0
6
CONTINUOUS
10
-611.06
20
-60.0
30
0
11
-611.06
21
-110.0
31
0
0
LINE
8
0
6
CONTINUOUS
10
-611.06
20
-60.0
30
0
11
-511.06
21
-60.0
31
0
0
LINE
8
0
6
CONTINUOUS
10
-511.06
20
-60.0
30
0
11
-611.06
21
-60.0
31
0
0
LINE
8
0
6
CONTINUOUS
10
-611.06
20
-60.0
30
0
11
-611.06
21
-110.0
31
0
0
LINE
8
0
6
CONTINUOUS
10
-611.06
20
-110.0
30
0
11
-511.06
21
-110.0
31
0
0
LINE
8
0
6
CONTINUOUS
10
-511.06
20
-110.0
30
0
11
-511.06
21
-60.0
31
0
0
LINE
8
0
6
CONTINUOUS
10
-511.06
20
-60.0
30
0
11
-611.06
21
-60.0
31
0
0
LINE
8
0
6
CONTINUOUS
10
-611.06
20
-60.0
30
0
11
-611.06
21
-104.99
31
0
0
LINE
8
0
6
CONTINUOUS
10
-611.06
20
-104.99
30
0
11
-608.64
21
-101.53
31
0
0
LINE
8
0
6
CONTINUOUS
10
-608.64
20
-101.53
30
0
11
-607.17
21
-96.74
31
0
0
LINE
8
0
6
CONTINUOUS
10
-607.17
20
-96.74
30
0
11
-604.02
21
-103.51
31
0
0
LINE
8
0
6
CONTINUOUS
10
-604.02
20
-103.51
30
0
11
-601.72
21
-98.34
31
0
0
LINE
8
0
6
CONTINUOUS
10
-601.72
20
-98.34
30
0
11
-599.35
21
-83.54
31
0
0
LINE
8
0
6
CONTINUOUS
10
-599.35
20
-83.54
30
0
11
-593.19
21
-102.49
31
0
0
LINE
8
0
6
CONTINUOUS
10
-593.19
20
-102.49
30
0
11
-591.72
21
-107.0
31
0
0
LINE
8
0
6
CONTINUOUS
10
-591.72
20
-107.0
30
0
11
-589.89
21
-101.53
31
0
0
LINE
8
0
6
CONTINUOUS
10
-589.89
20
-101.53
30
0
11
-588.27
21
-92.63
31
0
0
LINE
8
0
6
CONTINUOUS
10
-588.27
20
-92.63
30
0
11
-587.18
21
-100.38
31
0
0
LINE
8
0
6
CONTINUOUS
10
-587.18
20
-100.38
30
0
11
-586.0
21
-99.2
31
0
0
LINE
8
0
6
CONTINUOUS
10
-586.0
20
-99.2
30
0
11
-580.38
21
-88.63
31
0
0
LINE
8
0
6
CONTINUOUS
10
-580.38
20
-88.63
30
0
11
-577.5
21
-104.94
31
0
0
LINE
8
0
6
CONTINUOUS
10
-577.5
20
-104.94
30
0
11
-575.35
21
-101.86
31
0
0
LINE
8
0
6
CONTINUOUS
10
-575.35
20
-101.86
30
0
11
-573.83
21
-98.46
31
0
0
LINE
8
0
6
CONTINUOUS
10
-573.83
20
-98.46
30
0
11
-571.06
21
-107.0
31
0
0
LINE
8
0
6
CONTINUOUS
10
-571.06
20
-107.0
30
0
11
-569.42
21
-102.65
31
0
0
LINE
8
0
6
CONTINUOUS
10
-569.42
20
-102.65
30
0
11
-568.08
21
-94.29
31
0
0
LINE
8
0
6
CONTINUOUS
10
-568.08
20
-94.29
30
0
11
-564.82
21
-104.31
31
0
0
LINE
8
0
6
CONTINUOUS
10
-564.82
20
-104.31
30
0
11
-562.45
21
-100.93
31
0
0
LINE
8
0
6
CONTINUOUS
10
-562.45
20
-100.93
30
0
11
-557.02
21
-77.42
31
0
0
LINE
8
0
6
CONTINUOUS
10
-557.02
20
-77.42
30
0
11
-551.01
21
-107.0
31
0
0
LINE
8
0
6
CONTINUOUS
10
-551.01
20
-107.0
30
0
11
-546.41
21
-94.37
31
0
0
LINE
8
0
6
CONTINUOUS
10
-546.41
20
-94.37
30
0
11
-544.98
21
-101.04
31
0
0
LINE
8
0
6
CONTINUOUS
10
-544.98
20
-101.04
30
0
11
-541.44
21
-97.51
31
0
0
LINE
8
0
6
CONTINUOUS
10
-541.44
20
-97.51
30
0
11
-538.35
21
-104.14
31
0
0
LINE
8
0
6
CONTINUOUS
10
-538.35
20
-104.14
30
0
11
-535.63
21
-87.12
31
0
0
LINE
8
0
6
CONTINUOUS
10
-535.63
20
-87.12
30
0
11
-530.44
21
-105.2
31
0
0
LINE
8
0
6
CONTINUOUS
10
-530.44
20
-105.2
30
0
11
-527.66
21
-102.42
31
0
0
LINE
8
0
6
CONTINUOUS
10
-527.66
20
-102.42
30
0
11
-523.55
21
-91.13
31
0
0
LINE
8
0
6
CONTINUOUS
10
-523.55
20
-91.13
30
0
11
-518.39
21
-107.0
31
0
0
LINE
8
0
6
CONTINUOUS
10
-518.39
20
-107.0
30
0
11
-516.53
21
-101.39
31
0
0
LINE
8
0
6
CONTINUOUS
10
-516.53
20
-101.39
30
0
11
-516.53
21
-98.29
31
0
0
LINE
8
0
6
CONTINUOUS
10
-516.53
20
-98.29
30
0
11
-514.06
21
-105.92
31
0
0
LINE
8
0
6
CONTINUOUS
10
-514.06
20
-105.92
30
0
11
-512.77
21
-100.35
31
0
0
LINE
8
0
6
CONTINUOUS
10
-512.77
20
-100.35
30
0
11
-511.06
21
-105.59
31
0
0
LINE
8
0
6
CONTINUOUS
10
-511.06
20
-105.59
30
0
11
-511.06
21
-60.0
31
0
0
LINE
8
0
6
CONTINUOUS
10
-511.06
20
-60.0
30
0
11
-611.06
21
-60.0
31
0
0
LINE
8
0
6
CONTINUOUS
10
-611.06
20
-60.0
30
0
11
-611.06
21
-104.99
31
0
0
LINE
8
0
6
CONTINUOUS
10
-611.06
20
-104.99
30
0
11
-608.64
21
-101.53
31
0
0
LINE
8
0
6
CONTINUOUS
10
-608.64
20
-101.53
30
0
11
-607.17
21
-96.74
31
0
0
LINE
8
0
6
CONTINUOUS
10
-607.17
20
-96.74
30
0
11
-604.02
21
-103.51
31
0
0
LINE
8
0
6
CONTINUOUS
10
-604.02
20
-103.51
30
0
11
-601.72
21
-98.34
31
0
0
LINE
8
0
6
CONTINUOUS
10
-601.72
20
-98.34
30
0
11
-599.35
21
-83.54
31
0
0
LINE
8
0
6
CONTINUOUS
10
-599.35
20
-83.54
30
0
11
-593.19
21
-102.49
31
0
0
LINE
8
0
6
CONTINUOUS
10
-593.19
20
-102.49
30
0
11
-591.72
21
-107.0
31
0
0
LINE
8
0
6
CONTINUOUS
10
-591.72
20
-107.0
30
0
11
-589.89
21
-101.53
31
0
0
LINE
8
0
6
CONTINUOUS
10
-589.89
20
-101.53
30
0
11
-588.27
21
-92.63
31
0
0
LINE
8
0
6
CONTINUOUS
10
-588.27
20
-92.63
30
0
11
-587.18
21
-100.38
31
0
0
LINE
8
0
6
CONTINUOUS
10
-587.18
20
-100.38
30
0
11
-586.0
21
-99.2
31
0
0
LINE
8
0
6
CONTINUOUS
10
-586.0
20
-99.2
30
0
11
-580.38
21
-88.63
31
0
0
LINE
8
0
6
CONTINUOUS
10
-580.38
20
-88.63
30
0
11
-577.5
21
-104.94
31
0
0
LINE
8
0
6
CONTINUOUS
10
-577.5
20
-104.94
30
0
11
-575.35
21
-101.86
31
0
0
LINE
8
0
6
CONTINUOUS
10
-575.35
20
-101.86
30
0
11
-573.83
21
-98.46
31
0
0
LINE
8
0
6
CONTINUOUS
10
-573.83
20
-98.46
30
0
11
-571.06
21
-107.0
31
0
0
LINE
8
0
6
CONTINUOUS
10
-571.06
20
-107.0
30
0
11
-569.42
21
-102.65
31
0
0
LINE
8
0
6
CONTINUOUS
10
-569.42
20
-102.65
30
0
11
-568.08
21
-94.29
31
0
0
LINE
8
0
6
CONTINUOUS
10
-568.08
20
-94.29
30
0
11
-564.82
21
-104.31
31
0
0
LINE
8
0
6
CONTINUOUS
10
-564.82
20
-104.31
30
0
11
-562.45
21
-100.93
31
0
0
LINE
8
0
6
CONTINUOUS
10
-562.45
20
-100.93
30
0
11
-557.02
21
-77.42
31
0
0
LINE
8
0
6
CONTINUOUS
10
-557.02
20
-77.42
30
0
11
-551.01
21
-107.0
31
0
0
LINE
8
0
6
CONTINUOUS
10
-551.01
20
-107.0
30
0
11
-546.41
21
-94.37
31
0
0
LINE
8
0
6
CONTINUOUS
10
-546.41
20
-94.37
30
0
11
-544.98
21
-101.04
31
0
0
LINE
8
0
6
CONTINUOUS
10
-544.98
20
-101.04
30
0
11
-541.44
21
-97.51
31
0
0
LINE
8
0
6
CONTINUOUS
10
-541.44
20
-97.51
30
0
11
-538.35
21
-104.14
31
0
0
LINE
8
0
6
CONTINUOUS
10
-538.35
20
-104.14
30
0
11
-535.63
21
-87.12
31
0
0
LINE
8
0
6
CONTINUOUS
10
-535.63
20
-87.12
30
0
11
-530.44
21
-105.2
31
0
0
LINE
8
0
6
CONTINUOUS
10
-530.44
20
-105.2
30
0
11
-527.66
21
-102.42
31
0
0
LINE
8
0
6
CONTINUOUS
10
-527.66
20
-102.42
30
0
11
-523.55
21
-91.13
31
0
0
LINE
8
0
6
CONTINUOUS
10
-523.55
20
-91.13
30
0
11
-518.39
21
-107.0
31
0
0
LINE
8
0
6
CONTINUOUS
10
-518.39
20
-107.0
30
0
11
-516.53
21
-101.39
31
0
0
LINE
8
0
6
CONTINUOUS
10
-516.53
20
-101.39
30
0
11
-516.53
21
-98.29
31
0
0
LINE
8
0
6
CONTINUOUS
10
-516.53
20
-98.29
30
0
11
-514.06
21
-105.92
31
0
0
LINE
8
0
6
CONTINUOUS
10
-514.06
20
-105.92
30
0
11
-512.77
21
-100.35
31
0
0
LINE
8
0
6
CONTINUOUS
10
-512.77
20
-100.35
30
0
11
-511.06
21
-105.59
31
0
0
LINE
8
0
6
CONTINUOUS
10
-511.06
20
-105.59
30
0
11
-511.06
21
-60.0
31
0
0
LINE
8
0
6
HIDDEN
10
-611.06
20
-61.0
30
0
11
-511.06
21
-61.0
31
0
0
LINE
8
0
6
CONTINUOUS
10
-611.06
20
-62.0
30
0
11
-511.06
21
-62.0
31
0
0
LINE
8
0
6
CONTINUOUS
10
-611.06
20
-60.0
30
0
11
-511.06
21
-60.0
31
0
0
LINE
8
0
6
CONTINUOUS
10
-411.06
20
-110.0
30
0
11
-511.06
21
-110.0
31
0
0
LINE
8
0
6
CONTINUOUS
10
-511.06
20
-60.0
30
0
11
-511.06
21
-110.0
31
0
0
LINE
8
0
6
CONTINUOUS
10
-511.06
20
-60.0
30
0
11
-411.06
21
-60.0
31
0
0
LINE
8
0
6
CONTINUOUS
10
-411.06
20
-60.0
30
0
11
-511.06
21
-60.0
31
0
0
LINE
8
0
6
CONTINUOUS
10
-511.06
20
-60.0
30
0
11
-511.06
21
-110.0
31
0
0
LINE
8
0
6
CONTINUOUS
10
-511.06
20
-110.0
30
0
11
-411.06
21
-110.0
31
0
0
LINE
8
0
6
CONTINUOUS
10
-411.06
20
-110.0
30
0
11
-411.06
21
-60.0
31
0
0
LINE
8
0
6
CONTINUOUS
10
-411.06
20
-60.0
30
0
11
-511.06
21
-60.0
31
0
0
LINE
8
0
6
CONTINUOUS
10
-511.06
20
-60.0
30
0
11
-511.06
21
-104.99
31
0
0
LINE
8
0
6
CONTINUOUS
10
-511.06
20
-104.99
30
0
11
-508.64
21
-101.53
31
0
0
LINE
8
0
6
CONTINUOUS
10
-508.64
20
-101.53
30
0
11
-507.17
21
-96.74
31
0
0
LINE
8
0
6
CONTINUOUS
10
-507.17
20
-96.74
30
0
11
-504.02
21
-103.51
31
0
0
LINE
8
0
6
CONTINUOUS
10
-504.02
20
-103.51
30
0
11
-501.72
21
-98.34
31
0
0
LINE
8
0
6
CONTINUOUS
10
-501.72
20
-98.34
30
0
11
-499.35
21
-83.54
31
0
0
LINE
8
0
6
CONTINUOUS
10
-499.35
20
-83.54
30
0
11
-493.19
21
-102.49
31
0
0
LINE
8
0
6
CONTINUOUS
10
-493.19
20
-102.49
30
0
11
-491.72
21
-107.0
31
0
0
LINE
8
0
6
CONTINUOUS
10
-491.72
20
-107.0
30
0
11
-489.89
21
-101.53
31
0
0
LINE
8
0
6
CONTINUOUS
10
-489.89
20
-101.53
30
0
11
-488.27
21
-92.63
31
0
0
LINE
8
0
6
CONTINUOUS
10
-488.27
20
-92.63
30
0
11
-487.18
21
-100.38
31
0
0
LINE
8
0
6
CONTINUOUS
10
-487.18
20
-100.38
30
0
11
-486.0
21
-99.2
31
0
0
LINE
8
0
6
CONTINUOUS
10
-486.0
20
-99.2
30
0
11
-480.38
21
-88.63
31
0
0
LINE
8
0
6
CONTINUOUS
10
-480.38
20
-88.63
30
0
11
-477.5
21
-104.94
31
0
0
LINE
8
0
6
CONTINUOUS
10
-477.5
20
-104.94
30
0
11
-475.35
21
-101.86
31
0
0
LINE
8
0
6
CONTINUOUS
10
-475.35
20
-101.86
30
0
11
-473.83
21
-98.46
31
0
0
LINE
8
0
6
CONTINUOUS
10
-473.83
20
-98.46
30
0
11
-471.06
21
-107.0
31
0
0
LINE
8
0
6
CONTINUOUS
10
-471.06
20
-107.0
30
0
11
-469.42
21
-102.65
31
0
0
LINE
8
0
6
CONTINUOUS
10
-469.42
20
-102.65
30
0
11
-468.08
21
-94.29
31
0
0
LINE
8
0
6
CONTINUOUS
10
-468.08
20
-94.29
30
0
11
-464.82
21
-104.31
31
0
0
LINE
8
0
6
CONTINUOUS
10
-464.82
20
-104.31
30
0
11
-462.45
21
-100.93
31
0
0
LINE
8
0
6
CONTINUOUS
10
-462.45
20
-100.93
30
0
11
-457.02
21
-77.42
31
0
0
LINE
8
0
6
CONTINUOUS
10
-457.02
20
-77.42
30
0
11
-451.01
21
-107.0
31
0
0
LINE
8
0
6
CONTINUOUS
10
-451.01
20
-107.0
30
0
11
-446.41
21
-94.37
31
0
0
LINE
8
0
6
CONTINUOUS
10
-446.41
20
-94.37
30
0
11
-444.98
21
-101.04
31
0
0
LINE
8
0
6
CONTINUOUS
10
-444.98
20
-101.04
30
0
11
-441.44
21
-97.51
31
0
0
LINE
8
0
6
CONTINUOUS
10
-441.44
20
-97.51
30
0
11
-438.35
21
-104.14
31
0
0
LINE
8
0
6
CONTINUOUS
10
-438.35
20
-104.14
30
0
11
-435.63
21
-87.12
31
0
0
LINE
8
0
6
CONTINUOUS
10
-435.63
20
-87.12
30
0
11
-430.44
21
-105.2
31
0
0
LINE
8
0
6
CONTINUOUS
10
-430.44
20
-105.2
30
0
11
-427.66
21
-102.42
31
0
0
LINE
8
0
6
CONTINUOUS
10
-427.66
20
-102.42
30
0
11
-423.55
21
-91.13
31
0
0
LINE
8
0
6
CONTINUOUS
10
-423.55
20
-91.13
30
0
11
-418.39
21
-107.0
31
0
0
LINE
8
0
6
CONTINUOUS
10
-418.39
20
-107.0
30
0
11
-416.53
21
-101.39
31
0
0
LINE
8
0
6
CONTINUOUS
10
-416.53
20
-101.39
30
0
11
-416.53
21
-98.29
31
0
0
LINE
8
0
6
CONTINUOUS
10
-416.53
20
-98.29
30
0
11
-414.06
21
-105.92
31
0
0
LINE
8
0
6
CONTINUOUS
10
-414.06
20
-105.92
30
0
11
-412.77
21
-100.35
31
0
0
LINE
8
0
6
CONTINUOUS
10
-412.77
20
-100.35
30
0
11
-411.06
21
-105.59
31
0
0
LINE
8
0
6
CONTINUOUS
10
-411.06
20
-105.59
30
0
11
-411.06
21
-60.0
31
0
0
LINE
8
0
6
CONTINUOUS
10
-411.06
20
-60.0
30
0
11
-511.06
21
-60.0
31
0
0
LINE
8
0
6
CONTINUOUS
10
-511.06
20
-60.0
30
0
11
-511.06
21
-104.99
31
0
0
LINE
8
0
6
CONTINUOUS
10
-511.06
20
-104.99
30
0
11
-508.64
21
-101.53
31
0
0
LINE
8
0
6
CONTINUOUS
10
-508.64
20
-101.53
30
0
11
-507.17
21
-96.74
31
0
0
LINE
8
0
6
CONTINUOUS
10
-507.17
20
-96.74
30
0
11
-504.02
21
-103.51
31
0
0
LINE
8
0
6
CONTINUOUS
10
-504.02
20
-103.51
30
0
11
-501.72
21
-98.34
31
0
0
LINE
8
0
6
CONTINUOUS
10
-501.72
20
-98.34
30
0
11
-499.35
21
-83.54
31
0
0
LINE
8
0
6
CONTINUOUS
10
-499.35
20
-83.54
30
0
11
-493.19
21
-102.49
31
0
0
LINE
8
0
6
CONTINUOUS
10
-493.19
20
-102.49
30
0
11
-491.72
21
-107.0
31
0
0
LINE
8
0
6
CONTINUOUS
10
-491.72
20
-107.0
30
0
11
-489.89
21
-101.53
31
0
0
LINE
8
0
6
CONTINUOUS
10
-489.89
20
-101.53
30
0
11
-488.27
21
-92.63
31
0
0
LINE
8
0
6
CONTINUOUS
10
-488.27
20
-92.63
30
0
11
-487.18
21
-100.38
31
0
0
LINE
8
0
6
CONTINUOUS
10
-487.18
20
-100.38
30
0
11
-486.0
21
-99.2
31
0
0
LINE
8
0
6
CONTINUOUS
10
-486.0
20
-99.2
30
0
11
-480.38
21
-88.63
31
0
0
LINE
8
0
6
CONTINUOUS
10
-480.38
20
-88.63
30
0
11
-477.5
21
-104.94
31
0
0
LINE
8
0
6
CONTINUOUS
10
-477.5
20
-104.94
30
0
11
-475.35
21
-101.86
31
0
0
LINE
8
0
6
CONTINUOUS
10
-475.35
20
-101.86
30
0
11
-473.83
21
-98.46
31
0
0
LINE
8
0
6
CONTINUOUS
10
-473.83
20
-98.46
30
0
11
-471.06
21
-107.0
31
0
0
LINE
8
0
6
CONTINUOUS
10
-471.06
20
-107.0
30
0
11
-469.42
21
-102.65
31
0
0
LINE
8
0
6
CONTINUOUS
10
-469.42
20
-102.65
30
0
11
-468.08
21
-94.29
31
0
0
LINE
8
0
6
CONTINUOUS
10
-468.08
20
-94.29
30
0
11
-464.82
21
-104.31
31
0
0
LINE
8
0
6
CONTINUOUS
10
-464.82
20
-104.31
30
0
11
-462.45
21
-100.93
31
0
0
LINE
8
0
6
CONTINUOUS
10
-462.45
20
-100.93
30
0
11
-457.02
21
-77.42
31
0
0
LINE
8
0
6
CONTINUOUS
10
-457.02
20
-77.42
30
0
11
-451.01
21
-107.0
31
0
0
LINE
8
0
6
CONTINUOUS
10
-451.01
20
-107.0
30
0
11
-446.41
21
-94.37
31
0
0
LINE
8
0
6
CONTINUOUS
10
-446.41
20
-94.37
30
0
11
-444.98
21
-101.04
31
0
0
LINE
8
0
6
CONTINUOUS
10
-444.98
20
-101.04
30
0
11
-441.44
21
-97.51
31
0
0
LINE
8
0
6
CONTINUOUS
10
-441.44
20
-97.51
30
0
11
-438.35
21
-104.14
31
0
0
LINE
8
0
6
CONTINUOUS
10
-438.35
20
-104.14
30
0
11
-435.63
21
-87.12
31
0
0
LINE
8
0
6
CONTINUOUS
10
-435.63
20
-87.12
30
0
11
-430.44
21
-105.2
31
0
0
LINE
8
0
6
CONTINUOUS
10
-430.44
20
-105.2
30
0
11
-427.66
21
-102.42
31
0
0
LINE
8
0
6
CONTINUOUS
10
-427.66
20
-102.42
30
0
11
-423.55
21
-91.13
31
0
0
LINE
8
0
6
CONTINUOUS
10
-423.55
20
-91.13
30
0
11
-418.39
21
-107.0
31
0
0
LINE
8
0
6
CONTINUOUS
10
-418.39
20
-107.0
30
0
11
-416.53
21
-101.39
31
0
0
LINE
8
0
6
CONTINUOUS
10
-416.53
20
-101.39
30
0
11
-416.53
21
-98.29
31
0
0
LINE
8
0
6
CONTINUOUS
10
-416.53
20
-98.29
30
0
11
-414.06
21
-105.92
31
0
0
LINE
8
0
6
CONTINUOUS
10
-414.06
20
-105.92
30
0
11
-412.77
21
-100.35
31
0
0
LINE
8
0
6
CONTINUOUS
10
-412.77
20
-100.35
30
0
11
-411.06
21
-105.59
31
0
0
LINE
8
0
6
CONTINUOUS
10
-411.06
20
-105.59
30
0
11
-411.06
21
-60.0
31
0
0
LINE
8
0
6
HIDDEN
10
-511.06
20
-61.0
30
0
11
-411.06
21
-61.0
31
0
0
LINE
8
0
6
CONTINUOUS
10
-511.06
20
-62.0
30
0
11
-411.06
21
-62.0
31
0
0
LINE
8
0
6
CONTINUOUS
10
-511.06
20
-60.0
30
0
11
-411.06
21
-60.0
31
0
0
LINE
8
0
6
CONTINUOUS
10
-311.06
20
-110.0
30
0
11
-411.06
21
-110.0
31
0
0
LINE
8
0
6
CONTINUOUS
10
-411.06
20
-60.0
30
0
11
-411.06
21
-110.0
31
0
0
LINE
8
0
6
CONTINUOUS
10
-411.06
20
-60.0
30
0
11
-311.06
21
-60.0
31
0
0
LINE
8
0
6
CONTINUOUS
10
-311.06
20
-60.0
30
0
11
-411.06
21
-60.0
31
0
0
LINE
8
0
6
CONTINUOUS
10
-411.06
20
-60.0
30
0
11
-411.06
21
-110.0
31
0
0
LINE
8
0
6
CONTINUOUS
10
-411.06
20
-110.0
30
0
11
-311.06
21
-110.0
31
0
0
LINE
8
0
6
CONTINUOUS
10
-311.06
20
-110.0
30
0
11
-311.06
21
-60.0
31
0
0
LINE
8
0
6
CONTINUOUS
10
-311.06
20
-60.0
30
0
11
-411.06
21
-60.0
31
0
0
LINE
8
0
6
CONTINUOUS
10
-411.06
20
-60.0
30
0
11
-411.06
21
-104.99
31
0
0
LINE
8
0
6
CONTINUOUS
10
-411.06
20
-104.99
30
0
11
-408.64
21
-101.53
31
0
0
LINE
8
0
6
CONTINUOUS
10
-408.64
20
-101.53
30
0
11
-407.17
21
-96.74
31
0
0
LINE
8
0
6
CONTINUOUS
10
-407.17
20
-96.74
30
0
11
-404.02
21
-103.51
31
0
0
LINE
8
0
6
CONTINUOUS
10
-404.02
20
-103.51
30
0
11
-401.72
21
-98.34
31
0
0
LINE
8
0
6
CONTINUOUS
10
-401.72
20
-98.34
30
0
11
-399.35
21
-83.54
31
0
0
LINE
8
0
6
CONTINUOUS
10
-399.35
20
-83.54
30
0
11
-393.19
21
-102.49
31
0
0
LINE
8
0
6
CONTINUOUS
10
-393.19
20
-102.49
30
0
11
-391.72
21
-107.0
31
0
0
LINE
8
0
6
CONTINUOUS
10
-391.72
20
-107.0
30
0
11
-389.89
21
-101.53
31
0
0
LINE
8
0
6
CONTINUOUS
10
-389.89
20
-101.53
30
0
11
-388.27
21
-92.63
31
0
0
LINE
8
0
6
CONTINUOUS
10
-388.27
20
-92.63
30
0
11
-387.18
21
-100.38
31
0
0
LINE
8
0
6
CONTINUOUS
10
-387.18
20
-100.38
30
0
11
-386.0
21
-99.2
31
0
0
LINE
8
0
6
CONTINUOUS
10
-386.0
20
-99.2
30
0
11
-380.38
21
-88.63
31
0
0
LINE
8
0
6
CONTINUOUS
10
-380.38
20
-88.63
30
0
11
-377.5
21
-104.94
31
0
0
LINE
8
0
6
CONTINUOUS
10
-377.5
20
-104.94
30
0
11
-375.35
21
-101.86
31
0
0
LINE
8
0
6
CONTINUOUS
10
-375.35
20
-101.86
30
0
11
-373.83
21
-98.46
31
0
0
LINE
8
0
6
CONTINUOUS
10
-373.83
20
-98.46
30
0
11
-371.06
21
-107.0
31
0
0
LINE
8
0
6
CONTINUOUS
10
-371.06
20
-107.0
30
0
11
-369.42
21
-102.65
31
0
0
LINE
8
0
6
CONTINUOUS
10
-369.42
20
-102.65
30
0
11
-368.08
21
-94.29
31
0
0
LINE
8
0
6
CONTINUOUS
10
-368.08
20
-94.29
30
0
11
-364.82
21
-104.31
31
0
0
LINE
8
0
6
CONTINUOUS
10
-364.82
20
-104.31
30
0
11
-362.45
21
-100.93
31
0
0
LINE
8
0
6
CONTINUOUS
10
-362.45
20
-100.93
30
0
11
-357.02
21
-77.42
31
0
0
LINE
8
0
6
CONTINUOUS
10
-357.02
20
-77.42
30
0
11
-351.01
21
-107.0
31
0
0
LINE
8
0
6
CONTINUOUS
10
-351.01
20
-107.0
30
0
11
-346.41
21
-94.37
31
0
0
LINE
8
0
6
CONTINUOUS
10
-346.41
20
-94.37
30
0
11
-344.98
21
-101.04
31
0
0
LINE
8
0
6
CONTINUOUS
10
-344.98
20
-101.04
30
0
11
-341.44
21
-97.51
31
0
0
LINE
8
0
6
CONTINUOUS
10
-341.44
20
-97.51
30
0
11
-338.35
21
-104.14
31
0
0
LINE
8
0
6
CONTINUOUS
10
-338.35
20
-104.14
30
0
11
-335.63
21
-87.12
31
0
0
LINE
8
0
6
CONTINUOUS
10
-335.63
20
-87.12
30
0
11
-330.44
21
-105.2
31
0
0
LINE
8
0
6
CONTINUOUS
10
-330.44
20
-105.2
30
0
11
-327.66
21
-102.42
31
0
0
LINE
8
0
6
CONTINUOUS
10
-327.66
20
-102.42
30
0
11
-323.55
21
-91.13
31
0
0
LINE
8
0
6
CONTINUOUS
10
-323.55
20
-91.13
30
0
11
-318.39
21
-107.0
31
0
0
LINE
8
0
6
CONTINUOUS
10
-318.39
20
-107.0
30
0
11
-316.53
21
-101.39
31
0
0
LINE
8
0
6
CONTINUOUS
10
-316.53
20
-101.39
30
0
11
-316.53
21
-98.29
31
0
0
LINE
8
0
6
CONTINUOUS
10
-316.53
20
-98.29
30
0
11
-314.06
21
-105.92
31
0
0
LINE
8
0
6
CONTINUOUS
10
-314.06
20
-105.92
30
0
11
-312.77
21
-100.35
31
0
0
LINE
8
0
6
CONTINUOUS
10
-312.77
20
-100.35
30
0
11
-311.06
21
-105.59
31
0
0
LINE
8
0
6
CONTINUOUS
10
-311.06
20
-105.59
30
0
11
-311.06
21
-60.0
31
0
0
LINE
8
0
6
CONTINUOUS
10
-311.06
20
-60.0
30
0
11
-411.06
21
-60.0
31
0
0
LINE
8
0
6
CONTINUOUS
10
-411.06
20
-60.0
30
0
11
-411.06
21
-104.99
31
0
0
LINE
8
0
6
CONTINUOUS
10
-411.06
20
-104.99
30
0
11
-408.64
21
-101.53
31
0
0
LINE
8
0
6
CONTINUOUS
10
-408.64
20
-101.53
30
0
11
-407.17
21
-96.74
31
0
0
LINE
8
0
6
CONTINUOUS
10
-407.17
20
-96.74
30
0
11
-404.02
21
-103.51
31
0
0
LINE
8
0
6
CONTINUOUS
10
-404.02
20
-103.51
30
0
11
-401.72
21
-98.34
31
0
0
LINE
8
0
6
CONTINUOUS
10
-401.72
20
-98.34
30
0
11
-399.35
21
-83.54
31
0
0
LINE
8
0
6
CONTINUOUS
10
-399.35
20
-83.54
30
0
11
-393.19
21
-102.49
31
0
0
LINE
8
0
6
CONTINUOUS
10
-393.19
20
-102.49
30
0
11
-391.72
21
-107.0
31
0
0
LINE
8
0
6
CONTINUOUS
10
-391.72
20
-107.0
30
0
11
-389.89
21
-101.53
31
0
0
LINE
8
0
6
CONTINUOUS
10
-389.89
20
-101.53
30
0
11
-388.27
21
-92.63
31
0
0
LINE
8
0
6
CONTINUOUS
10
-388.27
20
-92.63
30
0
11
-387.18
21
-100.38
31
0
0
LINE
8
0
6
CONTINUOUS
10
-387.18
20
-100.38
30
0
11
-386.0
21
-99.2
31
0
0
LINE
8
0
6
CONTINUOUS
10
-386.0
20
-99.2
30
0
11
-380.38
21
-88.63
31
0
0
LINE
8
0
6
CONTINUOUS
10
-380.38
20
-88.63
30
0
11
-377.5
21
-104.94
31
0
0
LINE
8
0
6
CONTINUOUS
10
-377.5
20
-104.94
30
0
11
-375.35
21
-101.86
31
0
0
LINE
8
0
6
CONTINUOUS
10
-375.35
20
-101.86
30
0
11
-373.83
21
-98.46
31
0
0
LINE
8
0
6
CONTINUOUS
10
-373.83
20
-98.46
30
0
11
-371.06
21
-107.0
31
0
0
LINE
8
0
6
CONTINUOUS
10
-371.06
20
-107.0
30
0
11
-369.42
21
-102.65
31
0
0
LINE
8
0
6
CONTINUOUS
10
-369.42
20
-102.65
30
0
11
-368.08
21
-94.29
31
0
0
LINE
8
0
6
CONTINUOUS
10
-368.08
20
-94.29
30
0
11
-364.82
21
-104.31
31
0
0
LINE
8
0
6
CONTINUOUS
10
-364.82
20
-104.31
30
0
11
-362.45
21
-100.93
31
0
0
LINE
8
0
6
CONTINUOUS
10
-362.45
20
-100.93
30
0
11
-357.02
21
-77.42
31
0
0
LINE
8
0
6
CONTINUOUS
10
-357.02
20
-77.42
30
0
11
-351.01
21
-107.0
31
0
0
LINE
8
0
6
CONTINUOUS
10
-351.01
20
-107.0
30
0
11
-346.41
21
-94.37
31
0
0
LINE
8
0
6
CONTINUOUS
10
-346.41
20
-94.37
30
0
11
-344.98
21
-101.04
31
0
0
LINE
8
0
6
CONTINUOUS
10
-344.98
20
-101.04
30
0
11
-341.44
21
-97.51
31
0
0
LINE
8
0
6
CONTINUOUS
10
-341.44
20
-97.51
30
0
11
-338.35
21
-104.14
31
0
0
LINE
8
0
6
CONTINUOUS
10
-338.35
20
-104.14
30
0
11
-335.63
21
-87.12
31
0
0
LINE
8
0
6
CONTINUOUS
10
-335.63
20
-87.12
30
0
11
-330.44
21
-105.2
31
0
0
LINE
8
0
6
CONTINUOUS
10
-330.44
20
-105.2
30
0
11
-327.66
21
-102.42
31
0
0
LINE
8
0
6
CONTINUOUS
10
-327.66
20
-102.42
30
0
11
-323.55
21
-91.13
31
0
0
LINE
8
0
6
CONTINUOUS
10
-323.55
20
-91.13
30
0
11
-318.39
21
-107.0
31
0
0
LINE
8
0
6
CONTINUOUS
10
-318.39
20
-107.0
30
0
11
-316.53
21
-101.39
31
0
0
LINE
8
0
6
CONTINUOUS
10
-316.53
20
-101.39
30
0
11
-316.53
21
-98.29
31
0
0
LINE
8
0
6
CONTINUOUS
10
-316.53
20
-98.29
30
0
11
-314.06
21
-105.92
31
0
0
LINE
8
0
6
CONTINUOUS
10
-314.06
20
-105.92
30
0
11
-312.77
21
-100.35
31
0
0
LINE
8
0
6
CONTINUOUS
10
-312.77
20
-100.35
30
0
11
-311.06
21
-105.59
31
0
0
LINE
8
0
6
CONTINUOUS
10
-311.06
20
-105.59
30
0
11
-311.06
21
-60.0
31
0
0
LINE
8
0
6
HIDDEN
10
-411.06
20
-61.0
30
0
11
-311.06
21
-61.0
31
0
0
LINE
8
0
6
CONTINUOUS
10
-411.06
20
-62.0
30
0
11
-311.06
21
-62.0
31
0
0
LINE
8
0
6
CONTINUOUS
10
-411.06
20
-60.0
30
0
11
-311.06
21
-60.0
31
0
0
LINE
8
0
6
CONTINUOUS
10
-211.06
20
-110.0
30
0
11
-311.06
21
-110.0
31
0
0
LINE
8
0
6
CONTINUOUS
10
-311.06
20
-60.0
30
0
11
-311.06
21
-110.0
31
0
0
LINE
8
0
6
CONTINUOUS
10
-311.06
20
-60.0
30
0
11
-211.06
21
-60.0
31
0
0
LINE
8
0
6
CONTINUOUS
10
-211.06
20
-60.0
30
0
11
-311.06
21
-60.0
31
0
0
LINE
8
0
6
CONTINUOUS
10
-311.06
20
-60.0
30
0
11
-311.06
21
-110.0
31
0
0
LINE
8
0
6
CONTINUOUS
10
-311.06
20
-110.0
30
0
11
-211.06
21
-110.0
31
0
0
LINE
8
0
6
CONTINUOUS
10
-211.06
20
-110.0
30
0
11
-211.06
21
-60.0
31
0
0
LINE
8
0
6
CONTINUOUS
10
-211.06
20
-60.0
30
0
11
-311.06
21
-60.0
31
0
0
LINE
8
0
6
CONTINUOUS
10
-311.06
20
-60.0
30
0
11
-311.06
21
-104.99
31
0
0
LINE
8
0
6
CONTINUOUS
10
-311.06
20
-104.99
30
0
11
-308.64
21
-101.53
31
0
0
LINE
8
0
6
CONTINUOUS
10
-308.64
20
-101.53
30
0
11
-307.17
21
-96.74
31
0
0
LINE
8
0
6
CONTINUOUS
10
-307.17
20
-96.74
30
0
11
-304.02
21
-103.51
31
0
0
LINE
8
0
6
CONTINUOUS
10
-304.02
20
-103.51
30
0
11
-301.72
21
-98.34
31
0
0
LINE
8
0
6
CONTINUOUS
10
-301.72
20
-98.34
30
0
11
-299.35
21
-83.54
31
0
0
LINE
8
0
6
CONTINUOUS
10
-299.35
20
-83.54
30
0
11
-293.19
21
-102.49
31
0
0
LINE
8
0
6
CONTINUOUS
10
-293.19
20
-102.49
30
0
11
-291.72
21
-107.0
31
0
0
LINE
8
0
6
CONTINUOUS
10
-291.72
20
-107.0
30
0
11
-289.89
21
-101.53
31
0
0
LINE
8
0
6
CONTINUOUS
10
-289.89
20
-101.53
30
0
11
-288.27
21
-92.63
31
0
0
LINE
8
0
6
CONTINUOUS
10
-288.27
20
-92.63
30
0
11
-287.18
21
-100.38
31
0
0
LINE
8
0
6
CONTINUOUS
10
-287.18
20
-100.38
30
0
11
-286.0
21
-99.2
31
0
0
LINE
8
0
6
CONTINUOUS
10
-286.0
20
-99.2
30
0
11
-280.38
21
-88.63
31
0
0
LINE
8
0
6
CONTINUOUS
10
-280.38
20
-88.63
30
0
11
-277.5
21
-104.94
31
0
0
LINE
8
0
6
CONTINUOUS
10
-277.5
20
-104.94
30
0
11
-275.35
21
-101.86
31
0
0
LINE
8
0
6
CONTINUOUS
10
-275.35
20
-101.86
30
0
11
-273.83
21
-98.46
31
0
0
LINE
8
0
6
CONTINUOUS
10
-273.83
20
-98.46
30
0
11
-271.06
21
-107.0
31
0
0
LINE
8
0
6
CONTINUOUS
10
-271.06
20
-107.0
30
0
11
-269.42
21
-102.65
31
0
0
LINE
8
0
6
CONTINUOUS
10
-269.42
20
-102.65
30
0
11
-268.08
21
-94.29
31
0
0
LINE
8
0
6
CONTINUOUS
10
-268.08
20
-94.29
30
0
11
-264.82
21
-104.31
31
0
0
LINE
8
0
6
CONTINUOUS
10
-264.82
20
-104.31
30
0
11
-262.45
21
-100.93
31
0
0
LINE
8
0
6
CONTINUOUS
10
-262.45
20
-100.93
30
0
11
-257.02
21
-77.42
31
0
0
LINE
8
0
6
CONTINUOUS
10
-257.02
20
-77.42
30
0
11
-251.01
21
-107.0
31
0
0
LINE
8
0
6
CONTINUOUS
10
-251.01
20
-107.0
30
0
11
-246.41
21
-94.37
31
0
0
LINE
8
0
6
CONTINUOUS
10
-246.41
20
-94.37
30
0
11
-244.98
21
-101.04
31
0
0
LINE
8
0
6
CONTINUOUS
10
-244.98
20
-101.04
30
0
11
-241.44
21
-97.51
31
0
0
LINE
8
0
6
CONTINUOUS
10
-241.44
20
-97.51
30
0
11
-238.35
21
-104.14
31
0
0
LINE
8
0
6
CONTINUOUS
10
-238.35
20
-104.14
30
0
11
-235.63
21
-87.12
31
0
0
LINE
8
0
6
CONTINUOUS
10
-235.63
20
-87.12
30
0
11
-230.44
21
-105.2
31
0
0
LINE
8
0
6
CONTINUOUS
10
-230.44
20
-105.2
30
0
11
-227.66
21
-102.42
31
0
0
LINE
8
0
6
CONTINUOUS
10
-227.66
20
-102.42
30
0
11
-223.55
21
-91.13
31
0
0
LINE
8
0
6
CONTINUOUS
10
-223.55
20
-91.13
30
0
11
-218.39
21
-107.0
31
0
0
LINE
8
0
6
CONTINUOUS
10
-218.39
20
-107.0
30
0
11
-216.53
21
-101.39
31
0
0
LINE
8
0
6
CONTINUOUS
10
-216.53
20
-101.39
30
0
11
-216.53
21
-98.29
31
0
0
LINE
8
0
6
CONTINUOUS
10
-216.53
20
-98.29
30
0
11
-214.06
21
-105.92
31
0
0
LINE
8
0
6
CONTINUOUS
10
-214.06
20
-105.92
30
0
11
-212.77
21
-100.35
31
0
0
LINE
8
0
6
CONTINUOUS
10
-212.77
20
-100.35
30
0
11
-211.06
21
-105.59
31
0
0
LINE
8
0
6
CONTINUOUS
10
-211.06
20
-105.59
30
0
11
-211.06
21
-60.0
31
0
0
LINE
8
0
6
CONTINUOUS
10
-211.06
20
-60.0
30
0
11
-311.06
21
-60.0
31
0
0
LINE
8
0
6
CONTINUOUS
10
-311.06
20
-60.0
30
0
11
-311.06
21
-104.99
31
0
0
LINE
8
0
6
CONTINUOUS
10
-311.06
20
-104.99
30
0
11
-308.64
21
-101.53
31
0
0
LINE
8
0
6
CONTINUOUS
10
-308.64
20
-101.53
30
0
11
-307.17
21
-96.74
31
0
0
LINE
8
0
6
CONTINUOUS
10
-307.17
20
-96.74
30
0
11
-304.02
21
-103.51
31
0
0
LINE
8
0
6
CONTINUOUS
10
-304.02
20
-103.51
30
0
11
-301.72
21
-98.34
31
0
0
LINE
8
0
6
CONTINUOUS
10
-301.72
20
-98.34
30
0
11
-299.35
21
-83.54
31
0
0
LINE
8
0
6
CONTINUOUS
10
-299.35
20
-83.54
30
0
11
-293.19
21
-102.49
31
0
0
LINE
8
0
6
CONTINUOUS
10
-293.19
20
-102.49
30
0
11
-291.72
21
-107.0
31
0
0
LINE
8
0
6
CONTINUOUS
10
-291.72
20
-107.0
30
0
11
-289.89
21
-101.53
31
0
0
LINE
8
0
6
CONTINUOUS
10
-289.89
20
-101.53
30
0
11
-288.27
21
-92.63
31
0
0
LINE
8
0
6
CONTINUOUS
10
-288.27
20
-92.63
30
0
11
-287.18
21
-100.38
31
0
0
LINE
8
0
6
CONTINUOUS
10
-287.18
20
-100.38
30
0
11
-286.0
21
-99.2
31
0
0
LINE
8
0
6
CONTINUOUS
10
-286.0
20
-99.2
30
0
11
-280.38
21
-88.63
31
0
0
LINE
8
0
6
CONTINUOUS
10
-280.38
20
-88.63
30
0
11
-277.5
21
-104.94
31
0
0
LINE
8
0
6
CONTINUOUS
10
-277.5
20
-104.94
30
0
11
-275.35
21
-101.86
31
0
0
LINE
8
0
6
CONTINUOUS
10
-275.35
20
-101.86
30
0
11
-273.83
21
-98.46
31
0
0
LINE
8
0
6
CONTINUOUS
10
-273.83
20
-98.46
30
0
11
-271.06
21
-107.0
31
0
0
LINE
8
0
6
CONTINUOUS
10
-271.06
20
-107.0
30
0
11
-269.42
21
-102.65
31
0
0
LINE
8
0
6
CONTINUOUS
10
-269.42
20
-102.65
30
0
11
-268.08
21
-94.29
31
0
0
LINE
8
0
6
CONTINUOUS
10
-268.08
20
-94.29
30
0
11
-264.82
21
-104.31
31
0
0
LINE
8
0
6
CONTINUOUS
10
-264.82
20
-104.31
30
0
11
-262.45
21
-100.93
31
0
0
LINE
8
0
6
CONTINUOUS
10
-262.45
20
-100.93
30
0
11
-257.02
21
-77.42
31
0
0
LINE
8
0
6
CONTINUOUS
10
-257.02
20
-77.42
30
0
11
-251.01
21
-107.0
31
0
0
LINE
8
0
6
CONTINUOUS
10
-251.01
20
-107.0
30
0
11
-246.41
21
-94.37
31
0
0
LINE
8
0
6
CONTINUOUS
10
-246.41
20
-94.37
30
0
11
-244.98
21
-101.04
31
0
0
LINE
8
0
6
CONTINUOUS
10
-244.98
20
-101.04
30
0
11
-241.44
21
-97.51
31
0
0
LINE
8
0
6
CONTINUOUS
10
-241.44
20
-97.51
30
0
11
-238.35
21
-104.14
31
0
0
LINE
8
0
6
CONTINUOUS
10
-238.35
20
-104.14
30
0
11
-235.63
21
-87.12
31
0
0
LINE
8
0
6
CONTINUOUS
10
-235.63
20
-87.12
30
0
11
-230.44
21
-105.2
31
0
0
LINE
8
0
6
CONTINUOUS
10
-230.44
20
-105.2
30
0
11
-227.66
21
-102.42
31
0
0
LINE
8
0
6
CONTINUOUS
10
-227.66
20
-102.42
30
0
11
-223.55
21
-91.13
31
0
0
LINE
8
0
6
CONTINUOUS
10
-223.55
20
-91.13
30
0
11
-218.39
21
-107.0
31
0
0
LINE
8
0
6
CONTINUOUS
10
-218.39
20
-107.0
30
0
11
-216.53
21
-101.39
31
0
0
LINE
8
0
6
CONTINUOUS
10
-216.53
20
-101.39
30
0
11
-216.53
21
-98.29
31
0
0
LINE
8
0
6
CONTINUOUS
10
-216.53
20
-98.29
30
0
11
-214.06
21
-105.92
31
0
0
LINE
8
0
6
CONTINUOUS
10
-214.06
20
-105.92
30
0
11
-212.77
21
-100.35
31
0
0
LINE
8
0
6
CONTINUOUS
10
-212.77
20
-100.35
30
0
11
-211.06
21
-105.59
31
0
0
LINE
8
0
6
CONTINUOUS
10
-211.06
20
-105.59
30
0
11
-211.06
21
-60.0
31
0
0
LINE
8
0
6
HIDDEN
10
-311.06
20
-61.0
30
0
11
-211.06
21
-61.0
31
0
0
LINE
8
0
6
CONTINUOUS
10
-311.06
20
-62.0
30
0
11
-211.06
21
-62.0
31
0
0
LINE
8
0
6
CONTINUOUS
10
-311.06
20
-60.0
30
0
11
-211.06
21
-60.0
31
0
0
LINE
8
0
6
CONTINUOUS
10
-111.06
20
-110.0
30
0
11
-211.06
21
-110.0
31
0
0
LINE
8
0
6
CONTINUOUS
10
-211.06
20
-60.0
30
0
11
-211.06
21
-110.0
31
0
0
LINE
8
0
6
CONTINUOUS
10
-211.06
20
-60.0
30
0
11
-111.06
21
-60.0
31
0
0
LINE
8
0
6
CONTINUOUS
10
-111.06
20
-60.0
30
0
11
-211.06
21
-60.0
31
0
0
LINE
8
0
6
CONTINUOUS
10
-211.06
20
-60.0
30
0
11
-211.06
21
-110.0
31
0
0
LINE
8
0
6
CONTINUOUS
10
-211.06
20
-110.0
30
0
11
-111.06
21
-110.0
31
0
0
LINE
8
0
6
CONTINUOUS
10
-111.06
20
-110.0
30
0
11
-111.06
21
-60.0
31
0
0
LINE
8
0
6
CONTINUOUS
10
-111.06
20
-60.0
30
0
11
-211.06
21
-60.0
31
0
0
LINE
8
0
6
CONTINUOUS
10
-211.06
20
-60.0
30
0
11
-211.06
21
-104.99
31
0
0
LINE
8
0
6
CONTINUOUS
10
-211.06
20
-104.99
30
0
11
-208.64
21
-101.53
31
0
0
LINE
8
0
6
CONTINUOUS
10
-208.64
20
-101.53
30
0
11
-207.17
21
-96.74
31
0
0
LINE
8
0
6
CONTINUOUS
10
-207.17
20
-96.74
30
0
11
-204.02
21
-103.51
31
0
0
LINE
8
0
6
CONTINUOUS
10
-204.02
20
-103.51
30
0
11
-201.72
21
-98.34
31
0
0
LINE
8
0
6
CONTINUOUS
10
-201.72
20
-98.34
30
0
11
-199.35
21
-83.54
31
0
0
LINE
8
0
6
CONTINUOUS
10
-199.35
20
-83.54
30
0
11
-193.19
21
-102.49
31
0
0
LINE
8
0
6
CONTINUOUS
10
-193.19
20
-102.49
30
0
11
-191.72
21
-107.0
31
0
0
LINE
8
0
6
CONTINUOUS
10
-191.72
20
-107.0
30
0
11
-189.89
21
-101.53
31
0
0
LINE
8
0
6
CONTINUOUS
10
-189.89
20
-101.53
30
0
11
-188.27
21
-92.63
31
0
0
LINE
8
0
6
CONTINUOUS
10
-188.27
20
-92.63
30
0
11
-187.18
21
-100.38
31
0
0
LINE
8
0
6
CONTINUOUS
10
-187.18
20
-100.38
30
0
11
-186.0
21
-99.2
31
0
0
LINE
8
0
6
CONTINUOUS
10
-186.0
20
-99.2
30
0
11
-180.38
21
-88.63
31
0
0
LINE
8
0
6
CONTINUOUS
10
-180.38
20
-88.63
30
0
11
-177.5
21
-104.94
31
0
0
LINE
8
0
6
CONTINUOUS
10
-177.5
20
-104.94
30
0
11
-175.35
21
-101.86
31
0
0
LINE
8
0
6
CONTINUOUS
10
-175.35
20
-101.86
30
0
11
-173.83
21
-98.46
31
0
0
LINE
8
0
6
CONTINUOUS
10
-173.83
20
-98.46
30
0
11
-171.06
21
-107.0
31
0
0
LINE
8
0
6
CONTINUOUS
10
-171.06
20
-107.0
30
0
11
-169.42
21
-102.65
31
0
0
LINE
8
0
6
CONTINUOUS
10
-169.42
20
-102.65
30
0
11
-168.08
21
-94.29
31
0
0
LINE
8
0
6
CONTINUOUS
10
-168.08
20
-94.29
30
0
11
-164.82
21
-104.31
31
0
0
LINE
8
0
6
CONTINUOUS
10
-164.82
20
-104.31
30
0
11
-162.45
21
-100.93
31
0
0
LINE
8
0
6
CONTINUOUS
10
-162.45
20
-100.93
30
0
11
-157.02
21
-77.42
31
0
0
LINE
8
0
6
CONTINUOUS
10
-157.02
20
-77.42
30
0
11
-151.01
21
-107.0
31
0
0
LINE
8
0
6
CONTINUOUS
10
-151.01
20
-107.0
30
0
11
-146.41
21
-94.37
31
0
0
LINE
8
0
6
CONTINUOUS
10
-146.41
20
-94.37
30
0
11
-144.98
21
-101.04
31
0
0
LINE
8
0
6
CONTINUOUS
10
-144.98
20
-101.04
30
0
11
-141.44
21
-97.51
31
0
0
LINE
8
0
6
CONTINUOUS
10
-141.44
20
-97.51
30
0
11
-138.35
21
-104.14
31
0
0
LINE
8
0
6
CONTINUOUS
10
-138.35
20
-104.14
30
0
11
-135.63
21
-87.12
31
0
0
LINE
8
0
6
CONTINUOUS
10
-135.63
20
-87.12
30
0
11
-130.44
21
-105.2
31
0
0
LINE
8
0
6
CONTINUOUS
10
-130.44
20
-105.2
30
0
11
-127.66
21
-102.42
31
0
0
LINE
8
0
6
CONTINUOUS
10
-127.66
20
-102.42
30
0
11
-123.55
21
-91.13
31
0
0
LINE
8
0
6
CONTINUOUS
10
-123.55
20
-91.13
30
0
11
-118.39
21
-107.0
31
0
0
LINE
8
0
6
CONTINUOUS
10
-118.39
20
-107.0
30
0
11
-116.53
21
-101.39
31
0
0
LINE
8
0
6
CONTINUOUS
10
-116.53
20
-101.39
30
0
11
-116.53
21
-98.29
31
0
0
LINE
8
0
6
CONTINUOUS
10
-116.53
20
-98.29
30
0
11
-114.06
21
-105.92
31
0
0
LINE
8
0
6
CONTINUOUS
10
-114.06
20
-105.92
30
0
11
-112.77
21
-100.35
31
0
0
LINE
8
0
6
CONTINUOUS
10
-112.77
20
-100.35
30
0
11
-111.06
21
-105.59
31
0
0
LINE
8
0
6
CONTINUOUS
10
-111.06
20
-105.59
30
0
11
-111.06
21
-60.0
31
0
0
LINE
8
0
6
CONTINUOUS
10
-111.06
20
-60.0
30
0
11
-211.06
21
-60.0
31
0
0
LINE
8
0
6
CONTINUOUS
10
-211.06
20
-60.0
30
0
11
-211.06
21
-104.99
31
0
0
LINE
8
0
6
CONTINUOUS
10
-211.06
20
-104.99
30
0
11
-208.64
21
-101.53
31
0
0
LINE
8
0
6
CONTINUOUS
10
-208.64
20
-101.53
30
0
11
-207.17
21
-96.74
31
0
0
LINE
8
0
6
CONTINUOUS
10
-207.17
20
-96.74
30
0
11
-204.02
21
-103.51
31
0
0
LINE
8
0
6
CONTINUOUS
10
-204.02
20
-103.51
30
0
11
-201.72
21
-98.34
31
0
0
LINE
8
0
6
CONTINUOUS
10
-201.72
20
-98.34
30
0
11
-199.35
21
-83.54
31
0
0
LINE
8
0
6
CONTINUOUS
10
-199.35
20
-83.54
30
0
11
-193.19
21
-102.49
31
0
0
LINE
8
0
6
CONTINUOUS
10
-193.19
20
-102.49
30
0
11
-191.72
21
-107.0
31
0
0
LINE
8
0
6
CONTINUOUS
10
-191.72
20
-107.0
30
0
11
-189.89
21
-101.53
31
0
0
LINE
8
0
6
CONTINUOUS
10
-189.89
20
-101.53
30
0
11
-188.27
21
-92.63
31
0
0
LINE
8
0
6
CONTINUOUS
10
-188.27
20
-92.63
30
0
11
-187.18
21
-100.38
31
0
0
LINE
8
0
6
CONTINUOUS
10
-187.18
20
-100.38
30
0
11
-186.0
21
-99.2
31
0
0
LINE
8
0
6
CONTINUOUS
10
-186.0
20
-99.2
30
0
11
-180.38
21
-88.63
31
0
0
LINE
8
0
6
CONTINUOUS
10
-180.38
20
-88.63
30
0
11
-177.5
21
-104.94
31
0
0
LINE
8
0
6
CONTINUOUS
10
-177.5
20
-104.94
30
0
11
-175.35
21
-101.86
31
0
0
LINE
8
0
6
CONTINUOUS
10
-175.35
20
-101.86
30
0
11
-173.83
21
-98.46
31
0
0
LINE
8
0
6
CONTINUOUS
10
-173.83
20
-98.46
30
0
11
-171.06
21
-107.0
31
0
0
LINE
8
0
6
CONTINUOUS
10
-171.06
20
-107.0
30
0
11
-169.42
21
-102.65
31
0
0
LINE
8
0
6
CONTINUOUS
10
-169.42
20
-102.65
30
0
11
-168.08
21
-94.29
31
0
0
LINE
8
0
6
CONTINUOUS
10
-168.08
20
-94.29
30
0
11
-164.82
21
-104.31
31
0
0
LINE
8
0
6
CONTINUOUS
10
-164.82
20
-104.31
30
0
11
-162.45
21
-100.93
31
0
0
LINE
8
0
6
CONTINUOUS
10
-162.45
20
-100.93
30
0
11
-157.02
21
-77.42
31
0
0
LINE
8
0
6
CONTINUOUS
10
-157.02
20
-77.42
30
0
11
-151.01
21
-107.0
31
0
0
LINE
8
0
6
CONTINUOUS
10
-151.01
20
-107.0
30
0
11
-146.41
21
-94.37
31
0
0
LINE
8
0
6
CONTINUOUS
10
-146.41
20
-94.37
30
0
11
-144.98
21
-101.04
31
0
0
LINE
8
0
6
CONTINUOUS
10
-144.98
20
-101.04
30
0
11
-141.44
21
-97.51
31
0
0
LINE
8
0
6
CONTINUOUS
10
-141.44
20
-97.51
30
0
11
-138.35
21
-104.14
31
0
0
LINE
8
0
6
CONTINUOUS
10
-138.35
20
-104.14
30
0
11
-135.63
21
-87.12
31
0
0
LINE
8
0
6
CONTINUOUS
10
-135.63
20
-87.12
30
0
11
-130.44
21
-105.2
31
0
0
LINE
8
0
6
CONTINUOUS
10
-130.44
20
-105.2
30
0
11
-127.66
21
-102.42
31
0
0
LINE
8
0
6
CONTINUOUS
10
-127.66
20
-102.42
30
0
11
-123.55
21
-91.13
31
0
0
LINE
8
0
6
CONTINUOUS
10
-123.55
20
-91.13
30
0
11
-118.39
21
-107.0
31
0
0
LINE
8
0
6
CONTINUOUS
10
-118.39
20
-107.0
30
0
11
-116.53
21
-101.39
31
0
0
LINE
8
0
6
CONTINUOUS
10
-116.53
20
-101.39
30
0
11
-116.53
21
-98.29
31
0
0
LINE
8
0
6
CONTINUOUS
10
-116.53
20
-98.29
30
0
11
-114.06
21
-105.92
31
0
0
LINE
8
0
6
CONTINUOUS
10
-114.06
20
-105.92
30
0
11
-112.77
21
-100.35
31
0
0
LINE
8
0
6
CONTINUOUS
10
-112.77
20
-100.35
30
0
11
-111.06
21
-105.59
31
0
0
LINE
8
0
6
CONTINUOUS
10
-111.06
20
-105.59
30
0
11
-111.06
21
-60.0
31
0
0
LINE
8
0
6
HIDDEN
10
-211.06
20
-61.0
30
0
11
-111.06
21
-61.0
31
0
0
LINE
8
0
6
CONTINUOUS
10
-211.06
20
-62.0
30
0
11
-111.06
21
-62.0
31
0
0
LINE
8
0
6
CONTINUOUS
10
-211.06
20
-60.0
30
0
11
-111.06
21
-60.0
31
0
0
LINE
8
0
6
CONTINUOUS
10
-11.06
20
-110.0
30
0
11
-111.06
21
-110.0
31
0
0
LINE
8
0
6
CONTINUOUS
10
-111.06
20
-60.0
30
0
11
-111.06
21
-110.0
31
0
0
LINE
8
0
6
CONTINUOUS
10
-111.06
20
-60.0
30
0
11
-11.06
21
-60.0
31
0
0
LINE
8
0
6
CONTINUOUS
10
-11.06
20
-60.0
30
0
11
-111.06
21
-60.0
31
0
0
LINE
8
0
6
CONTINUOUS
10
-111.06
20
-60.0
30
0
11
-111.06
21
-110.0
31
0
0
LINE
8
0
6
CONTINUOUS
10
-111.06
20
-110.0
30
0
11
-11.06
21
-110.0
31
0
0
LINE
8
0
6
CONTINUOUS
10
-11.06
20
-110.0
30
0
11
-11.06
21
-60.0
31
0
0
LINE
8
0
6
CONTINUOUS
10
-11.06
20
-60.0
30
0
11
-111.06
21
-60.0
31
0
0
LINE
8
0
6
CONTINUOUS
10
-111.06
20
-60.0
30
0
11
-111.06
21
-104.99
31
0
0
LINE
8
0
6
CONTINUOUS
10
-111.06
20
-104.99
30
0
11
-108.64
21
-101.53
31
0
0
LINE
8
0
6
CONTINUOUS
10
-108.64
20
-101.53
30
0
11
-107.17
21
-96.74
31
0
0
LINE
8
0
6
CONTINUOUS
10
-107.17
20
-96.74
30
0
11
-104.02
21
-103.51
31
0
0
LINE
8
0
6
CONTINUOUS
10
-104.02
20
-103.51
30
0
11
-101.72
21
-98.34
31
0
0
LINE
8
0
6
CONTINUOUS
10
-101.72
20
-98.34
30
0
11
-99.35
21
-83.54
31
0
0
LINE
8
0
6
CONTINUOUS
10
-99.35
20
-83.54
30
0
11
-93.19
21
-102.49
31
0
0
LINE
8
0
6
CONTINUOUS
10
-93.19
20
-102.49
30
0
11
-91.72
21
-107.0
31
0
0
LINE
8
0
6
CONTINUOUS
10
-91.72
20
-107.0
30
0
11
-89.89
21
-101.53
31
0
0
LINE
8
0
6
CONTINUOUS
10
-89.89
20
-101.53
30
0
11
-88.27
21
-92.63
31
0
0
LINE
8
0
6
CONTINUOUS
10
-88.27
20
-92.63
30
0
11
-87.18
21
-100.38
31
0
0
LINE
8
0
6
CONTINUOUS
10
-87.18
20
-100.38
30
0
11
-86.0
21
-99.2
31
0
0
LINE
8
0
6
CONTINUOUS
10
-86.0
20
-99.2
30
0
11
-80.38
21
-88.63
31
0
0
LINE
8
0
6
CONTINUOUS
10
-80.38
20
-88.63
30
0
11
-77.5
21
-104.94
31
0
0
LINE
8
0
6
CONTINUOUS
10
-77.5
20
-104.94
30
0
11
-75.35
21
-101.86
31
0
0
LINE
8
0
6
CONTINUOUS
10
-75.35
20
-101.86
30
0
11
-73.83
21
-98.46
31
0
0
LINE
8
0
6
CONTINUOUS
10
-73.83
20
-98.46
30
0
11
-71.06
21
-107.0
31
0
0
LINE
8
0
6
CONTINUOUS
10
-71.06
20
-107.0
30
0
11
-69.42
21
-102.65
31
0
0
LINE
8
0
6
CONTINUOUS
10
-69.42
20
-102.65
30
0
11
-68.08
21
-94.29
31
0
0
LINE
8
0
6
CONTINUOUS
10
-68.08
20
-94.29
30
0
11
-64.82
21
-104.31
31
0
0
LINE
8
0
6
CONTINUOUS
10
-64.82
20
-104.31
30
0
11
-62.45
21
-100.93
31
0
0
LINE
8
0
6
CONTINUOUS
10
-62.45
20
-100.93
30
0
11
-57.02
21
-77.42
31
0
0
LINE
8
0
6
CONTINUOUS
10
-57.02
20
-77.42
30
0
11
-51.01
21
-107.0
31
0
0
LINE
8
0
6
CONTINUOUS
10
-51.01
20
-107.0
30
0
11
-46.41
21
-94.37
31
0
0
LINE
8
0
6
CONTINUOUS
10
-46.41
20
-94.37
30
0
11
-44.98
21
-101.04
31
0
0
LINE
8
0
6
CONTINUOUS
10
-44.98
20
-101.04
30
0
11
-41.44
21
-97.51
31
0
0
LINE
8
0
6
CONTINUOUS
10
-41.44
20
-97.51
30
0
11
-38.35
21
-104.14
31
0
0
LINE
8
0
6
CONTINUOUS
10
-38.35
20
-104.14
30
0
11
-35.63
21
-87.12
31
0
0
LINE
8
0
6
CONTINUOUS
10
-35.63
20
-87.12
30
0
11
-30.44
21
-105.2
31
0
0
LINE
8
0
6
CONTINUOUS
10
-30.44
20
-105.2
30
0
11
-27.66
21
-102.42
31
0
0
LINE
8
0
6
CONTINUOUS
10
-27.66
20
-102.42
30
0
11
-23.55
21
-91.13
31
0
0
LINE
8
0
6
CONTINUOUS
10
-23.55
20
-91.13
30
0
11
-18.39
21
-107.0
31
0
0
LINE
8
0
6
CONTINUOUS
10
-18.39
20
-107.0
30
0
11
-16.53
21
-101.39
31
0
0
LINE
8
0
6
CONTINUOUS
10
-16.53
20
-101.39
30
0
11
-16.53
21
-98.29
31
0
0
LINE
8
0
6
CONTINUOUS
10
-16.53
20
-98.29
30
0
11
-14.06
21
-105.92
31
0
0
LINE
8
0
6
CONTINUOUS
10
-14.06
20
-105.92
30
0
11
-12.77
21
-100.35
31
0
0
LINE
8
0
6
CONTINUOUS
10
-12.77
20
-100.35
30
0
11
-11.06
21
-105.59
31
0
0
LINE
8
0
6
CONTINUOUS
10
-11.06
20
-105.59
30
0
11
-11.06
21
-60.0
31
0
0
LINE
8
0
6
CONTINUOUS
10
-11.06
20
-60.0
30
0
11
-111.06
21
-60.0
31
0
0
LINE
8
0
6
CONTINUOUS
10
-111.06
20
-60.0
30
0
11
-111.06
21
-104.99
31
0
0
LINE
8
0
6
CONTINUOUS
10
-111.06
20
-104.99
30
0
11
-108.64
21
-101.53
31
0
0
LINE
8
0
6
CONTINUOUS
10
-108.64
20
-101.53
30
0
11
-107.17
21
-96.74
31
0
0
LINE
8
0
6
CONTINUOUS
10
-107.17
20
-96.74
30
0
11
-104.02
21
-103.51
31
0
0
LINE
8
0
6
CONTINUOUS
10
-104.02
20
-103.51
30
0
11
-101.72
21
-98.34
31
0
0
LINE
8
0
6
CONTINUOUS
10
-101.72
20
-98.34
30
0
11
-99.35
21
-83.54
31
0
0
LINE
8
0
6
CONTINUOUS
10
-99.35
20
-83.54
30
0
11
-93.19
21
-102.49
31
0
0
LINE
8
0
6
CONTINUOUS
10
-93.19
20
-102.49
30
0
11
-91.72
21
-107.0
31
0
0
LINE
8
0
6
CONTINUOUS
10
-91.72
20
-107.0
30
0
11
-89.89
21
-101.53
31
0
0
LINE
8
0
6
CONTINUOUS
10
-89.89
20
-101.53
30
0
11
-88.27
21
-92.63
31
0
0
LINE
8
0
6
CONTINUOUS
10
-88.27
20
-92.63
30
0
11
-87.18
21
-100.38
31
0
0
LINE
8
0
6
CONTINUOUS
10
-87.18
20
-100.38
30
0
11
-86.0
21
-99.2
31
0
0
LINE
8
0
6
CONTINUOUS
10
-86.0
20
-99.2
30
0
11
-80.38
21
-88.63
31
0
0
LINE
8
0
6
CONTINUOUS
10
-80.38
20
-88.63
30
0
11
-77.5
21
-104.94
31
0
0
LINE
8
0
6
CONTINUOUS
10
-77.5
20
-104.94
30
0
11
-75.35
21
-101.86
31
0
0
LINE
8
0
6
CONTINUOUS
10
-75.35
20
-101.86
30
0
11
-73.83
21
-98.46
31
0
0
LINE
8
0
6
CONTINUOUS
10
-73.83
20
-98.46
30
0
11
-71.06
21
-107.0
31
0
0
LINE
8
0
6
CONTINUOUS
10
-71.06
20
-107.0
30
0
11
-69.42
21
-102.65
31
0
0
LINE
8
0
6
CONTINUOUS
10
-69.42
20
-102.65
30
0
11
-68.08
21
-94.29
31
0
0
LINE
8
0
6
CONTINUOUS
10
-68.08
20
-94.29
30
0
11
-64.82
21
-104.31
31
0
0
LINE
8
0
6
CONTINUOUS
10
-64.82
20
-104.31
30
0
11
-62.45
21
-100.93
31
0
0
LINE
8
0
6
CONTINUOUS
10
-62.45
20
-100.93
30
0
11
-57.02
21
-77.42
31
0
0
LINE
8
0
6
CONTINUOUS
10
-57.02
20
-77.42
30
0
11
-51.01
21
-107.0
31
0
0
LINE
8
0
6
CONTINUOUS
10
-51.01
20
-107.0
30
0
11
-46.41
21
-94.37
31
0
0
LINE
8
0
6
CONTINUOUS
10
-46.41
20
-94.37
30
0
11
-44.98
21
-101.04
31
0
0
LINE
8
0
6
CONTINUOUS
10
-44.98
20
-101.04
30
0
11
-41.44
21
-97.51
31
0
0
LINE
8
0
6
CONTINUOUS
10
-41.44
20
-97.51
30
0
11
-38.35
21
-104.14
31
0
0
LINE
8
0
6
CONTINUOUS
10
-38.35
20
-104.14
30
0
11
-35.63
21
-87.12
31
0
0
LINE
8
0
6
CONTINUOUS
10
-35.63
20
-87.12
30
0
11
-30.44
21
-105.2
31
0
0
LINE
8
0
6
CONTINUOUS
10
-30.44
20
-105.2
30
0
11
-27.66
21
-102.42
31
0
0
LINE
8
0
6
CONTINUOUS
10
-27.66
20
-102.42
30
0
11
-23.55
21
-91.13
31
0
0
LINE
8
0
6
CONTINUOUS
10
-23.55
20
-91.13
30
0
11
-18.39
21
-107.0
31
0
0
LINE
8
0
6
CONTINUOUS
10
-18.39
20
-107.0
30
0
11
-16.53
21
-101.39
31
0
0
LINE
8
0
6
CONTINUOUS
10
-16.53
20
-101.39
30
0
11
-16.53
21
-98.29
31
0
0
LINE
8
0
6
CONTINUOUS
10
-16.53
20
-98.29
30
0
11
-14.06
21
-105.92
31
0
0
LINE
8
0
6
CONTINUOUS
10
-14.06
20
-105.92
30
0
11
-12.77
21
-100.35
31
0
0
LINE
8
0
6
CONTINUOUS
10
-12.77
20
-100.35
30
0
11
-11.06
21
-105.59
31
0
0
LINE
8
0
6
CONTINUOUS
10
-11.06
20
-105.59
30
0
11
-11.06
21
-60.0
31
0
0
LINE
8
0
6
HIDDEN
10
-111.06
20
-61.0
30
0
11
-11.06
21
-61.0
31
0
0
LINE
8
0
6
CONTINUOUS
10
-111.06
20
-62.0
30
0
11
-11.06
21
-62.0
31
0
0
LINE
8
0
6
CONTINUOUS
10
-111.06
20
-60.0
30
0
11
-11.06
21
-60.0
31
0
0
LINE
8
0
6
CONTINUOUS
10
-511.06
20
-10.83
30
0
11
-511.06
21
-19.17
31
0
0
LINE
8
0
6
CONTINUOUS
10
-544.4
20
-10.83
30
0
11
-544.4
21
-19.17
31
0
0
LINE
8
0
6
CONTINUOUS
10
-544.4
20
-15.0
30
0
11
-511.06
21
-15.0
31
0
0
LINE
8
0
6
CONTINUOUS
10
-536.06
20
-15.0
30
0
11
-511.06
21
-15.0
31
0
0
LINE
8
0
6
CONTINUOUS
10
-544.4
20
-15.0
30
0
11
-540.23
21
-19.17
31
0
0
LINE
8
0
6
CONTINUOUS
10
-544.4
20
-15.0
30
0
11
-540.23
21
-10.83
31
0
0
LINE
8
0
6
CONTINUOUS
10
-536.06
20
-15.0
30
0
11
-540.23
21
-19.17
31
0
0
LINE
8
0
6
CONTINUOUS
10
-536.06
20
-15.0
30
0
11
-540.23
21
-10.83
31
0
0
LINE
8
0
6
CONTINUOUS
10
-477.73
20
-10.83
30
0
11
-477.73
21
-19.17
31
0
0
LINE
8
0
6
CONTINUOUS
10
-511.06
20
-10.83
30
0
11
-511.06
21
-19.17
31
0
0
LINE
8
0
6
CONTINUOUS
10
-511.06
20
-15.0
30
0
11
-477.73
21
-15.0
31
0
0
LINE
8
0
6
CONTINUOUS
10
-502.73
20
-15.0
30
0
11
-477.73
21
-15.0
31
0
0
LINE
8
0
6
CONTINUOUS
10
-511.06
20
-15.0
30
0
11
-506.9
21
-19.17
31
0
0
LINE
8
0
6
CONTINUOUS
10
-511.06
20
-15.0
30
0
11
-506.9
21
-10.83
31
0
0
LINE
8
0
6
CONTINUOUS
10
-502.73
20
-15.0
30
0
11
-506.9
21
-19.17
31
0
0
LINE
8
0
6
CONTINUOUS
10
-502.73
20
-15.0
30
0
11
-506.9
21
-10.83
31
0
0
LINE
8
0
6
CONTINUOUS
10
-444.4
20
-10.83
30
0
11
-444.4
21
-19.17
31
0
0
LINE
8
0
6
CONTINUOUS
10
-477.73
20
-10.83
30
0
11
-477.73
21
-19.17
31
0
0
LINE
8
0
6
CONTINUOUS
10
-477.73
20
-15.0
30
0
11
-444.4
21
-15.0
31
0
0
LINE
8
0
6
CONTINUOUS
10
-469.4
20
-15.0
30
0
11
-444.4
21
-15.0
31
0
0
LINE
8
0
6
CONTINUOUS
10
-477.73
20
-15.0
30
0
11
-473.56
21
-19.17
31
0
0
LINE
8
0
6
CONTINUOUS
10
-477.73
20
-15.0
30
0
11
-473.56
21
-10.83
31
0
0
LINE
8
0
6
CONTINUOUS
10
-469.4
20
-15.0
30
0
11
-473.56
21
-19.17
31
0
0
LINE
8
0
6
CONTINUOUS
10
-469.4
20
-15.0
30
0
11
-473.56
21
-10.83
31
0
0
LINE
8
0
6
CONTINUOUS
10
-411.06
20
-10.83
30
0
11
-411.06
21
-19.17
31
0
0
LINE
8
0
6
CONTINUOUS
10
-444.4
20
-10.83
30
0
11
-444.4
21
-19.17
31
0
0
LINE
8
0
6
CONTINUOUS
10
-444.4
20
-15.0
30
0
11
-411.06
21
-15.0
31
0
0
LINE
8
0
6
CONTINUOUS
10
-436.06
20
-15.0
30
0
11
-411.06
21
-15.0
31
0
0
LINE
8
0
6
CONTINUOUS
10
-444.4
20
-15.0
30
0
11
-440.23
21
-19.17
31
0
0
LINE
8
0
6
CONTINUOUS
10
-444.4
20
-15.0
30
0
11
-440.23
21
-10.83
31
0
0
LINE
8
0
6
CONTINUOUS
10
-436.06
20
-15.0
30
0
11
-440.23
21
-19.17
31
0
0
LINE
8
0
6
CONTINUOUS
10
-436.06
20
-15.0
30
0
11
-440.23
21
-10.83
31
0
0
LINE
8
0
6
CONTINUOUS
10
-377.73
20
-10.83
30
0
11
-377.73
21
-19.17
31
0
0
LINE
8
0
6
CONTINUOUS
10
-411.06
20
-10.83
30
0
11
-411.06
21
-19.17
31
0
0
LINE
8
0
6
CONTINUOUS
10
-411.06
20
-15.0
30
0
11
-377.73
21
-15.0
31
0
0
LINE
8
0
6
CONTINUOUS
10
-402.73
20
-15.0
30
0
11
-377.73
21
-15.0
31
0
0
LINE
8
0
6
CONTINUOUS
10
-411.06
20
-15.0
30
0
11
-406.9
21
-19.17
31
0
0
LINE
8
0
6
CONTINUOUS
10
-411.06
20
-15.0
30
0
11
-406.9
21
-10.83
31
0
0
LINE
8
0
6
CONTINUOUS
10
-402.73
20
-15.0
30
0
11
-406.9
21
-19.17
31
0
0
LINE
8
0
6
CONTINUOUS
10
-402.73
20
-15.0
30
0
11
-406.9
21
-10.83
31
0
0
LINE
8
0
6
CONTINUOUS
10
-344.4
20
-10.83
30
0
11
-344.4
21
-19.17
31
0
0
LINE
8
0
6
CONTINUOUS
10
-377.73
20
-10.83
30
0
11
-377.73
21
-19.17
31
0
0
LINE
8
0
6
CONTINUOUS
10
-377.73
20
-15.0
30
0
11
-344.4
21
-15.0
31
0
0
LINE
8
0
6
CONTINUOUS
10
-369.4
20
-15.0
30
0
11
-344.4
21
-15.0
31
0
0
LINE
8
0
6
CONTINUOUS
10
-377.73
20
-15.0
30
0
11
-373.56
21
-19.17
31
0
0
LINE
8
0
6
CONTINUOUS
10
-377.73
20
-15.0
30
0
11
-373.56
21
-10.83
31
0
0
LINE
8
0
6
CONTINUOUS
10
-369.4
20
-15.0
30
0
11
-373.56
21
-19.17
31
0
0
LINE
8
0
6
CONTINUOUS
10
-369.4
20
-15.0
30
0
11
-373.56
21
-10.83
31
0
0
LINE
8
0
6
CONTINUOUS
10
-311.06
20
-10.83
30
0
11
-311.06
21
-19.17
31
0
0
LINE
8
0
6
CONTINUOUS
10
-344.4
20
-10.83
30
0
11
-344.4
21
-19.17
31
0
0
LINE
8
0
6
CONTINUOUS
10
-344.4
20
-15.0
30
0
11
-311.06
21
-15.0
31
0
0
LINE
8
0
6
CONTINUOUS
10
-336.06
20
-15.0
30
0
11
-311.06
21
-15.0
31
0
0
LINE
8
0
6
CONTINUOUS
10
-344.4
20
-15.0
30
0
11
-340.23
21
-19.17
31
0
0
LINE
8
0
6
CONTINUOUS
10
-344.4
20
-15.0
30
0
11
-340.23
21
-10.83
31
0
0
LINE
8
0
6
CONTINUOUS
10
-336.06
20
-15.0
30
0
11
-340.23
21
-19.17
31
0
0
LINE
8
0
6
CONTINUOUS
10
-336.06
20
-15.0
30
0
11
-340.23
21
-10.83
31
0
0
LINE
8
0
6
CONTINUOUS
10
-277.73
20
-10.83
30
0
11
-277.73
21
-19.17
31
0
0
LINE
8
0
6
CONTINUOUS
10
-311.06
20
-10.83
30
0
11
-311.06
21
-19.17
31
0
0
LINE
8
0
6
CONTINUOUS
10
-311.06
20
-15.0
30
0
11
-277.73
21
-15.0
31
0
0
LINE
8
0
6
CONTINUOUS
10
-302.73
20
-15.0
30
0
11
-277.73
21
-15.0
31
0
0
LINE
8
0
6
CONTINUOUS
10
-311.06
20
-15.0
30
0
11
-306.9
21
-19.17
31
0
0
LINE
8
0
6
CONTINUOUS
10
-311.06
20
-15.0
30
0
11
-306.9
21
-10.83
31
0
0
LINE
8
0
6
CONTINUOUS
10
-302.73
20
-15.0
30
0
11
-306.9
21
-19.17
31
0
0
LINE
8
0
6
CONTINUOUS
10
-302.73
20
-15.0
30
0
11
-306.9
21
-10.83
31
0
0
LINE
8
0
6
CONTINUOUS
10
-244.4
20
-10.83
30
0
11
-244.4
21
-19.17
31
0
0
LINE
8
0
6
CONTINUOUS
10
-277.73
20
-10.83
30
0
11
-277.73
21
-19.17
31
0
0
LINE
8
0
6
CONTINUOUS
10
-277.73
20
-15.0
30
0
11
-244.4
21
-15.0
31
0
0
LINE
8
0
6
CONTINUOUS
10
-269.4
20
-15.0
30
0
11
-244.4
21
-15.0
31
0
0
LINE
8
0
6
CONTINUOUS
10
-277.73
20
-15.0
30
0
11
-273.56
21
-19.17
31
0
0
LINE
8
0
6
CONTINUOUS
10
-277.73
20
-15.0
30
0
11
-273.56
21
-10.83
31
0
0
LINE
8
0
6
CONTINUOUS
10
-269.4
20
-15.0
30
0
11
-273.56
21
-19.17
31
0
0
LINE
8
0
6
CONTINUOUS
10
-269.4
20
-15.0
30
0
11
-273.56
21
-10.83
31
0
0
LINE
8
0
6
CONTINUOUS
10
-211.06
20
-10.83
30
0
11
-211.06
21
-19.17
31
0
0
LINE
8
0
6
CONTINUOUS
10
-244.4
20
-10.83
30
0
11
-244.4
21
-19.17
31
0
0
LINE
8
0
6
CONTINUOUS
10
-244.4
20
-15.0
30
0
11
-211.06
21
-15.0
31
0
0
LINE
8
0
6
CONTINUOUS
10
-236.06
20
-15.0
30
0
11
-211.06
21
-15.0
31
0
0
LINE
8
0
6
CONTINUOUS
10
-244.4
20
-15.0
30
0
11
-240.23
21
-19.17
31
0
0
LINE
8
0
6
CONTINUOUS
10
-244.4
20
-15.0
30
0
11
-240.23
21
-10.83
31
0
0
LINE
8
0
6
CONTINUOUS
10
-236.06
20
-15.0
30
0
11
-240.23
21
-19.17
31
0
0
LINE
8
0
6
CONTINUOUS
10
-236.06
20
-15.0
30
0
11
-240.23
21
-10.83
31
0
0
LINE
8
0
6
CONTINUOUS
10
-177.73
20
-10.83
30
0
11
-177.73
21
-19.17
31
0
0
LINE
8
0
6
CONTINUOUS
10
-211.06
20
-10.83
30
0
11
-211.06
21
-19.17
31
0
0
LINE
8
0
6
CONTINUOUS
10
-211.06
20
-15.0
30
0
11
-177.73
21
-15.0
31
0
0
LINE
8
0
6
CONTINUOUS
10
-202.73
20
-15.0
30
0
11
-177.73
21
-15.0
31
0
0
LINE
8
0
6
CONTINUOUS
10
-211.06
20
-15.0
30
0
11
-206.9
21
-19.17
31
0
0
LINE
8
0
6
CONTINUOUS
10
-211.06
20
-15.0
30
0
11
-206.9
21
-10.83
31
0
0
LINE
8
0
6
CONTINUOUS
10
-202.73
20
-15.0
30
0
11
-206.9
21
-19.17
31
0
0
LINE
8
0
6
CONTINUOUS
10
-202.73
20
-15.0
30
0
11
-206.9
21
-10.83
31
0
0
LINE
8
0
6
CONTINUOUS
10
-144.4
20
-10.83
30
0
11
-144.4
21
-19.17
31
0
0
LINE
8
0
6
CONTINUOUS
10
-177.73
20
-10.83
30
0
11
-177.73
21
-19.17
31
0
0
LINE
8
0
6
CONTINUOUS
10
-177.73
20
-15.0
30
0
11
-144.4
21
-15.0
31
0
0
LINE
8
0
6
CONTINUOUS
10
-169.4
20
-15.0
30
0
11
-144.4
21
-15.0
31
0
0
LINE
8
0
6
CONTINUOUS
10
-177.73
20
-15.0
30
0
11
-173.56
21
-19.17
31
0
0
LINE
8
0
6
CONTINUOUS
10
-177.73
20
-15.0
30
0
11
-173.56
21
-10.83
31
0
0
LINE
8
0
6
CONTINUOUS
10
-169.4
20
-15.0
30
0
11
-173.56
21
-19.17
31
0
0
LINE
8
0
6
CONTINUOUS
10
-169.4
20
-15.0
30
0
11
-173.56
21
-10.83
31
0
0
LINE
8
0
6
CONTINUOUS
10
-111.06
20
-10.83
30
0
11
-111.06
21
-19.17
31
0
0
LINE
8
0
6
CONTINUOUS
10
-144.4
20
-10.83
30
0
11
-144.4
21
-19.17
31
0
0
LINE
8
0
6
CONTINUOUS
10
-144.4
20
-15.0
30
0
11
-111.06
21
-15.0
31
0
0
LINE
8
0
6
CONTINUOUS
10
-136.06
20
-15.0
30
0
11
-111.06
21
-15.0
31
0
0
LINE
8
0
6
CONTINUOUS
10
-144.4
20
-15.0
30
0
11
-140.23
21
-19.17
31
0
0
LINE
8
0
6
CONTINUOUS
10
-144.4
20
-15.0
30
0
11
-140.23
21
-10.83
31
0
0
LINE
8
0
6
CONTINUOUS
10
-136.06
20
-15.0
30
0
11
-140.23
21
-19.17
31
0
0
LINE
8
0
6
CONTINUOUS
10
-136.06
20
-15.0
30
0
11
-140.23
21
-10.83
31
0
0
LINE
8
0
6
CONTINUOUS
10
-77.73
20
-10.83
30
0
11
-77.73
21
-19.17
31
0
0
LINE
8
0
6
CONTINUOUS
10
-111.06
20
-10.83
30
0
11
-111.06
21
-19.17
31
0
0
LINE
8
0
6
CONTINUOUS
10
-111.06
20
-15.0
30
0
11
-77.73
21
-15.0
31
0
0
LINE
8
0
6
CONTINUOUS
10
-102.73
20
-15.0
30
0
11
-77.73
21
-15.0
31
0
0
LINE
8
0
6
CONTINUOUS
10
-111.06
20
-15.0
30
0
11
-106.9
21
-19.17
31
0
0
LINE
8
0
6
CONTINUOUS
10
-111.06
20
-15.0
30
0
11
-106.9
21
-10.83
31
0
0
LINE
8
0
6
CONTINUOUS
10
-102.73
20
-15.0
30
0
11
-106.9
21
-19.17
31
0
0
LINE
8
0
6
CONTINUOUS
10
-102.73
20
-15.0
30
0
11
-106.9
21
-10.83
31
0
0
LINE
8
0
6
CONTINUOUS
10
-44.4
20
-10.83
30
0
11
-44.4
21
-19.17
31
0
0
LINE
8
0
6
CONTINUOUS
10
-77.73
20
-10.83
30
0
11
-77.73
21
-19.17
31
0
0
LINE
8
0
6
CONTINUOUS
10
-77.73
20
-15.0
30
0
11
-44.4
21
-15.0
31
0
0
LINE
8
0
6
CONTINUOUS
10
-69.4
20
-15.0
30
0
11
-44.4
21
-15.0
31
0
0
LINE
8
0
6
CONTINUOUS
10
-77.73
20
-15.0
30
0
11
-73.56
21
-19.17
31
0
0
LINE
8
0
6
CONTINUOUS
10
-77.73
20
-15.0
30
0
11
-73.56
21
-10.83
31
0
0
LINE
8
0
6
CONTINUOUS
10
-69.4
20
-15.0
30
0
11
-73.56
21
-19.17
31
0
0
LINE
8
0
6
CONTINUOUS
10
-69.4
20
-15.0
30
0
11
-73.56
21
-10.83
31
0
0
LINE
8
0
6
CONTINUOUS
10
-11.06
20
-10.83
30
0
11
-11.06
21
-19.17
31
0
0
LINE
8
0
6
CONTINUOUS
10
-44.4
20
-10.83
30
0
11
-44.4
21
-19.17
31
0
0
LINE
8
0
6
CONTINUOUS
10
-44.4
20
-15.0
30
0
11
-11.06
21
-15.0
31
0
0
LINE
8
0
6
CONTINUOUS
10
-36.06
20
-15.0
30
0
11
-11.06
21
-15.0
31
0
0
LINE
8
0
6
CONTINUOUS
10
-44.4
20
-15.0
30
0
11
-40.23
21
-19.17
31
0
0
LINE
8
0
6
CONTINUOUS
10
-44.4
20
-15.0
30
0
11
-40.23
21
-10.83
31
0
0
LINE
8
0
6
CONTINUOUS
10
-36.06
20
-15.0
30
0
11
-40.23
21
-19.17
31
0
0
LINE
8
0
6
CONTINUOUS
10
-36.06
20
-15.0
30
0
11
-40.23
21
-10.83
31
0
0
LINE
8
0
6
CONTINUOUS
10
-577.73
20
-10.83
30
0
11
-577.73
21
-19.17
31
0
0
LINE
8
0
6
CONTINUOUS
10
-611.06
20
-10.83
30
0
11
-611.06
21
-19.17
31
0
0
LINE
8
0
6
CONTINUOUS
10
-611.06
20
-15.0
30
0
11
-577.73
21
-15.0
31
0
0
LINE
8
0
6
CONTINUOUS
10
-602.73
20
-15.0
30
0
11
-577.73
21
-15.0
31
0
0
LINE
8
0
6
CONTINUOUS
10
-611.06
20
-15.0
30
0
11
-606.9
21
-19.17
31
0
0
LINE
8
0
6
CONTINUOUS
10
-611.06
20
-15.0
30
0
11
-606.9
21
-10.83
31
0
0
LINE
8
0
6
CONTINUOUS
10
-602.73
20
-15.0
30
0
11
-606.9
21
-19.17
31
0
0
LINE
8
0
6
CONTINUOUS
10
-602.73
20
-15.0
30
0
11
-606.9
21
-10.83
31
0
0
LINE
8
0
6
CONTINUOUS
10
-544.4
20
-10.83
30
0
11
-544.4
21
-19.17
31
0
0
LINE
8
0
6
CONTINUOUS
10
-577.73
20
-10.83
30
0
11
-577.73
21
-19.17
31
0
0
LINE
8
0
6
CONTINUOUS
10
-577.73
20
-15.0
30
0
11
-544.4
21
-15.0
31
0
0
LINE
8
0
6
CONTINUOUS
10
-569.4
20
-15.0
30
0
11
-544.4
21
-15.0
31
0
0
LINE
8
0
6
CONTINUOUS
10
-577.73
20
-15.0
30
0
11
-573.56
21
-19.17
31
0
0
LINE
8
0
6
CONTINUOUS
10
-577.73
20
-15.0
30
0
11
-573.56
21
-10.83
31
0
0
LINE
8
0
6
CONTINUOUS
10
-569.4
20
-15.0
30
0
11
-573.56
21
-19.17
31
0
0
LINE
8
0
6
CONTINUOUS
10
-569.4
20
-15.0
30
0
11
-573.56
21
-10.83
31
0
0
ENDSEC
0
EOF