0
SECTION
2
HEADER
0
ENDSEC
0
SECTION
2
TABLES
0
TABLE
2
LTYPE
70
2
0
LTYPE
2
CONTINUOUS
70
0
3
Solid line
72
65
73
0
40
0.0
0
ENDTAB
0
TABLE
2
LAYER
70
1
0
LAYER
2
0
70
0
62
7
6
CONTINUOUS
0
ENDTAB
0
ENDSEC
0
SECTION
2
ENTITIES
0
LINE
8
0
6
CONTINUOUS
10
239.59
20
-39.0
30
0
11
-168.76
21
-39.0
31
0
0
LINE
8
0
6
CONTINUOUS
10
206.0
20
-111.0
30
0
11
206.0
21
168.76
31
0
0
LINE
8
0
6
CONTINUOUS
10
200.0
20
-111.0
30
0
11
200.0
21
168.76
31
0
0
LINE
8
0
6
CONTINUOUS
10
239.59
20
-105.0
30
0
11
-168.76
21
-105.0
31
0
0
LINE
8
0
6
CONTINUOUS
10
176.0
20
-111.0
30
0
11
176.0
21
168.76
31
0
0
LINE
8
0
6
CONTINUOUS
10
239.59
20
-91.0
30
0
11
-168.76
21
-91.0
31
0
0
LINE
8
0
6
CONTINUOUS
10
170.0
20
-111.0
30
0
11
170.0
21
168.76
31
0
0
LINE
8
0
6
CONTINUOUS
10
239.59
20
-35.0
30
0
11
-168.76
21
-35.0
31
0
0
LINE
8
0
6
CONTINUOUS
10
0.0
20
-111.0
30
0
11
0.0
21
168.76
31
0
0
LINE
8
0
6
CONTINUOUS
10
-168.76
20
0.0
30
0
11
239.59
21
0.0
31
0
0
LINE
8
0
6
CONTINUOUS
10
0.0
20
-0.0
30
0
11
0.0
21
-88.0
31
0
0
LINE
8
0
6
CONTINUOUS
10
184.05
20
-35.0
30
0
11
201.0
21
-35.0
31
0
0
LINE
8
0
6
CONTINUOUS
10
201.0
20
-35.0
30
0
11
201.0
21
-41.0
31
0
0
LINE
8
0
6
CONTINUOUS
10
201.0
20
-41.0
30
0
11
184.05
21
-41.0
31
0
0
LINE
8
0
6
CONTINUOUS
10
6.98
20
-19.63
30
0
11
6.98
21
-88.0
31
0
0
LINE
8
0
6
CONTINUOUS
10
9.38
20
-18.24
30
0
11
18.34
21
-23.41
31
0
0
LINE
8
0
6
CONTINUOUS
10
198.18
20
-43.65
30
0
11
191.89
21
-43.65
31
0
0
ARC
8
0
6
CONTINUOUS
10
199.5633283773146
20
-44.06925671738427
30
0
40
10.03
50
192.73329684888978
51
70.75075966487115
0
LINE
8
0
6
CONTINUOUS
10
6.0
20
2.49
30
0
11
6.0
21
-88.0
31
0
0
ARC
8
0
6
CONTINUOUS
10
183.96036628749474
20
-44.07405170061189
30
0
40
10.0
50
108.66514005023417
51
165.02454839915706
0
LINE
8
0
6
CONTINUOUS
10
0.0
20
-0.0
30
0
11
-102.53
21
102.53
31
0
0
LINE
8
0
6
CONTINUOUS
10
-98.29
20
106.77
30
0
11
6.0
21
2.49
31
0
0
LINE
8
0
6
CONTINUOUS
10
-102.53
20
102.53
30
0
11
-98.29
21
106.77
31
0
0
ARC
8
0
6
CONTINUOUS
10
8.579994051888926
20
-19.62563721189455
30
0
40
1.6
50
59.9997540472821
51
180.15623103444506
0
ARC
8
0
6
CONTINUOUS
10
191.815
20
-67.3336138395992
30
0
40
34.55
50
71.33882548931737
51
108.66117451068263
0
ARC
8
0
6
CONTINUOUS
10
191.88824555738518
20
-45.80999928748394
30
0
40
2.16
50
89.95346195912983
51
192.56769297510525
0
LINE
8
0
6
CONTINUOUS
10
9.0
20
-91.0
30
0
11
167.3
21
-91.0
31
0
0
LINE
8
0
6
CONTINUOUS
10
9.0
20
-97.0
30
0
11
167.33
21
-97.0
31
0
0
LINE
8
0
6
CONTINUOUS
10
170.29
20
-88.32
30
0
11
175.14
21
-43.01
31
0
0
LINE
8
0
6
CONTINUOUS
10
176.25
20
-88.98
30
0
11
181.11
21
-43.65
31
0
0
ARC
8
0
6
CONTINUOUS
10
184.0537223801069
20
-43.95999765943934
30
0
40
2.96
50
90.07205294800109
51
173.98845019384677
0
ARC
8
0
6
CONTINUOUS
10
184.04949493669793
20
-43.95999998576512
30
0
40
8.96
50
89.99677031298977
51
173.91367279862212
0
ARC
8
0
6
CONTINUOUS
10
167.33044844057181
20
-88.03000001120954
30
0
40
8.97
50
269.99713559062013
51
353.92048357643046
0
ARC
8
0
6
CONTINUOUS
10
167.30711458498368
20
-88.00000843623178
30
0
40
3.0
50
269.86412130844906
51
353.87696317835594
0
ARC
8
0
6
CONTINUOUS
10
9.0
20
-88.0
30
0
40
3.0
50
180.0
51
270.0
0
ARC
8
0
6
CONTINUOUS
10
9.0
20
-88.0
30
0
40
9.0
50
180.0
51
270.0
0
ARC
8
0
6
CONTINUOUS
10
9.0
20
-88.0
30
0
40
2.0
50
180.0
51
270.0
0
LINE
8
0
6
CONTINUOUS
10
9.0
20
-90.0
30
0
11
167.3
21
-90.0
31
0
0
ARC
8
0
6
CONTINUOUS
10
167.30105552692282
20
-88.00000027853429
30
0
40
2.0
50
269.96976137967647
51
353.9728414636421
0
LINE
8
0
6
CONTINUOUS
10
169.29
20
-88.21
30
0
11
174.3
21
-41.49
31
0
0
LINE
8
0
6
CONTINUOUS
10
6.36
20
-33.02
30
0
11
6.36
21
-19.0
31
0
0
LINE
8
0
6
CONTINUOUS
10
10.45
20
-16.64
30
0
11
19.7
21
-21.98
31
0
0
LINE
8
0
6
CONTINUOUS
10
17.77
20
-25.37
30
0
11
12.57
21
-22.37
31
0
0
ARC
8
0
6
CONTINUOUS
10
9.089990705583682
20
-19.0071237228124
30
0
40
2.73
50
60.120872421660906
51
179.85049094697018
0
ARC
8
0
6
CONTINUOUS
10
18.733069299282022
20
-23.650312850938125
30
0
40
1.93
50
329.15006572244766
51
59.93379441363282
0
ARC
8
0
6
CONTINUOUS
10
18.72385582711452
20
-23.726783927452125
30
0
40
1.9
50
239.86564605192848
51
331.2727877387486
0
ENDSEC
0
EOF