0
SECTION
2
HEADER
0
ENDSEC
0
SECTION
2
TABLES
0
TABLE
2
LTYPE
70
2
0
LTYPE
2
CONTINUOUS
70
0
3
Solid line
72
65
73
0
40
0.0
0
ENDTAB
0
TABLE
2
LAYER
70
1
0
LAYER
2
0
70
0
62
7
6
CONTINUOUS
0
ENDTAB
0
ENDSEC
0
SECTION
2
ENTITIES
0
LINE
8
0
6
CONTINUOUS
10
240.4
20
-54.0
30
0
11
-140.28
21
-54.0
31
0
0
LINE
8
0
6
CONTINUOUS
10
106.0
20
-160.0
30
0
11
106.0
21
193.08
31
0
0
LINE
8
0
6
CONTINUOUS
10
240.4
20
-35.93
30
0
11
-140.28
21
-35.93
31
0
0
LINE
8
0
6
CONTINUOUS
10
91.0
20
-160.0
30
0
11
91.0
21
193.08
31
0
0
LINE
8
0
6
CONTINUOUS
10
0.0
20
-160.0
30
0
11
0.0
21
193.08
31
0
0
LINE
8
0
6
CONTINUOUS
10
-140.28
20
0.0
30
0
11
240.4
21
0.0
31
0
0
LINE
8
0
6
CONTINUOUS
10
0.0
20
-0.0
30
0
11
0.0
21
-38.49
31
0
0
LINE
8
0
6
CONTINUOUS
10
184.95
20
-29.93
30
0
11
202.01
21
-29.93
31
0
0
LINE
8
0
6
CONTINUOUS
10
202.01
20
-29.93
30
0
11
202.01
21
-35.93
31
0
0
LINE
8
0
6
CONTINUOUS
10
202.01
20
-35.93
30
0
11
183.98
21
-35.93
31
0
0
LINE
8
0
6
CONTINUOUS
10
6.98
20
-20.55
30
0
11
6.98
21
-35.93
31
0
0
LINE
8
0
6
CONTINUOUS
10
9.38
20
-19.17
30
0
11
18.34
21
-24.34
31
0
0
LINE
8
0
6
CONTINUOUS
10
199.19
20
-38.58
30
0
11
192.9
21
-38.58
31
0
0
ARC
8
0
6
CONTINUOUS
10
200.58418252237914
20
-39.00304001649993
30
0
40
10.03
50
192.71114103455318
51
70.81642188557154
0
LINE
8
0
6
CONTINUOUS
10
6.0
20
1.95
30
0
11
6.0
21
-35.93
31
0
0
ARC
8
0
6
CONTINUOUS
10
90.99998458832492
20
-35.98296153909633
30
0
40
91.0
50
179.9666541446369
51
358.7991950055621
0
ARC
8
0
6
CONTINUOUS
10
90.9999354813686
20
-36.034728998743574
30
0
40
85.0
50
179.92940551601345
51
358.24359512293745
0
ARC
8
0
6
CONTINUOUS
10
90.99986219781209
20
-36.082171812980846
30
0
40
84.02
50
179.8962293809657
51
358.2350025447638
0
ARC
8
0
6
CONTINUOUS
10
184.955326615206
20
-38.92999842373155
30
0
40
9.0
50
90.03391028757903
51
178.15349307511315
0
ARC
8
0
6
CONTINUOUS
10
183.9795999607923
20
-37.92999995999215
30
0
40
2.0
50
89.98853972080379
51
178.85400914798115
0
ARC
8
0
6
CONTINUOUS
10
184.97446513123984
20
-39.00266610953158
30
0
40
10.0
50
108.68993024832191
51
178.09361186042855
0
LINE
8
0
6
CONTINUOUS
10
0.0
20
-0.0
30
0
11
-85.23
21
117.31
31
0
0
LINE
8
0
6
CONTINUOUS
10
-80.37
20
120.83
30
0
11
6.0
21
1.95
31
0
0
LINE
8
0
6
CONTINUOUS
10
-85.23
20
117.31
30
0
11
-80.37
21
120.83
31
0
0
ARC
8
0
6
CONTINUOUS
10
8.5799900773781
20
-20.555634917179308
30
0
40
1.6
50
59.999589702038946
51
179.79821397519012
0
ARC
8
0
6
CONTINUOUS
10
192.825
20
-62.263613839599195
30
0
40
34.55
50
71.33882548931737
51
108.66117451068259
0
ARC
8
0
6
CONTINUOUS
10
192.90824221041055
20
-40.73998427447228
30
0
40
2.16
50
90.21863195204526
51
192.56810098397568
0
LINE
8
0
6
CONTINUOUS
10
6.31
20
-34.14
30
0
11
6.31
21
-20.12
31
0
0
LINE
8
0
6
CONTINUOUS
10
10.41
20
-17.76
30
0
11
19.66
21
-23.1
31
0
0
LINE
8
0
6
CONTINUOUS
10
17.73
20
-26.5
30
0
11
12.52
21
-23.49
31
0
0
ARC
8
0
6
CONTINUOUS
10
9.03999966355906
20
-20.12135534770854
30
0
40
2.73
50
59.87874649469401
51
179.97155468620434
0
ARC
8
0
6
CONTINUOUS
10
18.69012042072381
20
-24.768602289853114
30
0
40
1.93
50
328.7442589998238
51
59.83258893542946
0
ARC
8
0
6
CONTINUOUS
10
18.676265484391447
20
-24.852401252413248
30
0
40
1.9
50
240.12995374205497
51
331.12196624571664
0
ENDSEC
0
EOF