0
SECTION
2
HEADER
0
ENDSEC
0
SECTION
2
TABLES
0
TABLE
2
LTYPE
70
3
0
LTYPE
2
CONTINUOUS
70
0
3
Solid line
72
65
73
0
40
0.0
0
LTYPE
2
HIDDEN
70
0
3
hidden
72
65
73
2
40
9.524999999999999
49
6.35
49
-3.175
0
ENDTAB
0
TABLE
2
LAYER
70
1
0
LAYER
2
0
70
0
62
7
6
CONTINUOUS
0
ENDTAB
0
ENDSEC
0
SECTION
2
ENTITIES
0
LINE
8
0
6
CONTINUOUS
10
-310.0
20
-10.0
30
0
11
624.64
21
-10.0
31
0
0
LINE
8
0
6
CONTINUOUS
10
270.0
20
-198.7
30
0
11
270.0
21
90.93
31
0
0
LINE
8
0
6
CONTINUOUS
10
200.0
20
-198.7
30
0
11
200.0
21
90.93
31
0
0
LINE
8
0
6
CONTINUOUS
10
0.0
20
-198.7
30
0
11
0.0
21
90.93
31
0
0
LINE
8
0
6
CONTINUOUS
10
-310.0
20
0.0
30
0
11
624.64
21
0.0
31
0
0
LINE
8
0
6
HIDDEN
10
0.0
20
-10.0
30
0
11
200.0
21
-45.27
31
0
0
LINE
8
0
6
HIDDEN
10
0.0
20
50.93
30
0
11
200.0
21
15.66
31
0
0
LINE
8
0
6
CONTINUOUS
10
0.0
20
-0.0
30
0
11
-310.0
21
-0.0
31
0
0
LINE
8
0
6
CONTINUOUS
10
-310.0
20
0.0
30
0
11
-300.0
21
-10.0
31
0
0
LINE
8
0
6
CONTINUOUS
10
-300.0
20
-10.0
30
0
11
0.0
21
-10.0
31
0
0
LINE
8
0
6
CONTINUOUS
10
-0.0
20
-10.0
30
0
11
-0.0
21
-0.0
31
0
0
LINE
8
0
6
HIDDEN
10
-194.88
20
-8.0
30
0
11
0.0
21
-8.0
31
0
0
LINE
8
0
6
HIDDEN
10
0.0
20
-8.0
30
0
11
0.0
21
90.93
31
0
0
LINE
8
0
6
CONTINUOUS
10
235.0
20
-54.48
30
0
11
235.0
21
-193.12
31
0
0
LINE
8
0
6
CONTINUOUS
10
305.0
20
-54.48
30
0
11
305.0
21
-193.12
31
0
0
LINE
8
0
6
CONTINUOUS
10
235.0
20
-54.48
30
0
11
310.0
21
-54.48
31
0
0
LINE
8
0
6
CONTINUOUS
10
310.0
20
-54.48
30
0
11
310.0
21
-0.69
31
0
0
LINE
8
0
6
CONTINUOUS
10
199.48
20
-48.22
30
0
11
235.0
21
-54.48
31
0
0
LINE
8
0
6
CONTINUOUS
10
200.52
20
18.61
30
0
11
310.0
21
-0.69
31
0
0
LINE
8
0
6
HIDDEN
10
238.25
20
-54.48
30
0
11
238.25
21
-94.48
31
0
0
LINE
8
0
6
HIDDEN
10
238.25
20
-94.48
30
0
11
301.99
21
-94.48
31
0
0
LINE
8
0
6
HIDDEN
10
301.99
20
-94.48
30
0
11
301.99
21
-54.48
31
0
0
ARC
8
0
6
CONTINUOUS
10
252.5
20
-158.759796275342
30
0
40
38.56
50
243.00979479500236
51
296.9902052049976
0
ARC
8
0
6
CONTINUOUS
10
287.5
20
-227.95088284841486
30
0
40
38.98
50
63.3237798167384
51
116.6762201832616
0
ARC
8
0
6
CONTINUOUS
10
287.5
20
-168.49492944172545
30
0
40
30.21
50
234.60019594885148
51
305.3998040511485
0
ENDSEC
0
EOF