0
SECTION
2
HEADER
0
ENDSEC
0
SECTION
2
TABLES
0
TABLE
2
LTYPE
70
2
0
LTYPE
2
CONTINUOUS
70
0
3
Solid line
72
65
73
0
40
0.0
0
ENDTAB
0
TABLE
2
LAYER
70
1
0
LAYER
2
0
70
0
62
7
6
CONTINUOUS
0
ENDTAB
0
ENDSEC
0
SECTION
2
ENTITIES
0
LINE
8
0
6
CONTINUOUS
10
0.0
20
-0.0
30
0
11
0.0
21
1866.68
31
0
0
LINE
8
0
6
CONTINUOUS
10
-503.55
20
0.0
30
0
11
335.25
21
0.0
31
0
0
LINE
8
0
6
CONTINUOUS
10
-349.1
20
1648.64
30
0
11
-341.12
21
1651.3
31
0
0
LINE
8
0
6
CONTINUOUS
10
-341.12
20
1651.3
30
0
11
-279.87
21
1595.45
31
0
0
LINE
8
0
6
CONTINUOUS
10
-279.87
20
1595.45
30
0
11
-234.6
21
1568.86
31
0
0
LINE
8
0
6
CONTINUOUS
10
-234.6
20
1568.86
30
0
11
-199.98
21
1547.59
31
0
0
LINE
8
0
6
CONTINUOUS
10
-199.98
20
1547.59
30
0
11
-144.06
21
1547.59
31
0
0
LINE
8
0
6
CONTINUOUS
10
-144.06
20
1547.59
30
0
11
-104.12
21
1571.52
31
0
0
LINE
8
0
6
CONTINUOUS
10
-104.12
20
1571.52
30
0
11
-77.49
21
1603.43
31
0
0
LINE
8
0
6
CONTINUOUS
10
-77.49
20
1603.43
30
0
11
-45.54
21
1582.16
31
0
0
LINE
8
0
6
CONTINUOUS
10
-45.54
20
1582.16
30
0
11
-21.57
21
1552.91
31
0
0
LINE
8
0
6
CONTINUOUS
10
-21.57
20
1552.91
30
0
11
2.39
21
1566.2
31
0
0
LINE
8
0
6
CONTINUOUS
10
2.39
20
1566.2
30
0
11
31.68
21
1579.5
31
0
0
LINE
8
0
6
CONTINUOUS
10
31.68
20
1579.5
30
0
11
52.99
21
1600.77
31
0
0
LINE
8
0
6
CONTINUOUS
10
52.99
20
1600.77
30
0
11
82.28
21
1592.8
31
0
0
LINE
8
0
6
CONTINUOUS
10
82.28
20
1592.8
30
0
11
124.88
21
1568.86
31
0
0
LINE
8
0
6
CONTINUOUS
10
124.88
20
1568.86
30
0
11
156.84
21
1528.98
31
0
0
LINE
8
0
6
CONTINUOUS
10
156.84
20
1528.98
30
0
11
180.8
21
1494.41
31
0
0
LINE
8
0
6
CONTINUOUS
10
180.8
20
1494.41
30
0
11
207.43
21
1459.84
31
0
0
LINE
8
0
6
CONTINUOUS
10
207.43
20
1459.84
30
0
11
231.4
21
1422.61
31
0
0
LINE
8
0
6
CONTINUOUS
10
231.4
20
1422.61
30
0
11
239.38
21
1374.75
31
0
0
LINE
8
0
6
CONTINUOUS
10
239.38
20
1374.75
30
0
11
236.72
21
1326.89
31
0
0
LINE
8
0
6
CONTINUOUS
10
236.72
20
1326.89
30
0
11
231.4
21
1300.3
31
0
0
LINE
8
0
6
CONTINUOUS
10
231.4
20
1300.3
30
0
11
239.38
21
1273.7
31
0
0
LINE
8
0
6
CONTINUOUS
10
239.38
20
1273.7
30
0
11
244.71
21
1255.09
31
0
0
LINE
8
0
6
CONTINUOUS
10
244.71
20
1255.09
30
0
11
234.06
21
1236.48
31
0
0
LINE
8
0
6
CONTINUOUS
10
234.06
20
1236.48
30
0
11
231.4
21
1204.57
31
0
0
LINE
8
0
6
CONTINUOUS
10
231.4
20
1204.57
30
0
11
242.05
21
1177.98
31
0
0
LINE
8
0
6
CONTINUOUS
10
242.05
20
1177.98
30
0
11
252.7
21
1119.48
31
0
0
LINE
8
0
6
CONTINUOUS
10
252.7
20
1119.48
30
0
11
255.36
21
1079.59
31
0
0
LINE
8
0
6
CONTINUOUS
10
255.36
20
1079.59
30
0
11
239.38
21
1018.43
31
0
0
LINE
8
0
6
CONTINUOUS
10
239.38
20
1018.43
30
0
11
231.4
21
967.91
31
0
0
LINE
8
0
6
CONTINUOUS
10
231.4
20
967.91
30
0
11
226.07
21
920.05
31
0
0
LINE
8
0
6
CONTINUOUS
10
226.07
20
920.05
30
0
11
223.41
21
874.84
31
0
0
LINE
8
0
6
CONTINUOUS
10
223.41
20
874.84
30
0
11
220.74
21
816.34
31
0
0
LINE
8
0
6
CONTINUOUS
10
220.74
20
816.34
30
0
11
204.77
21
803.05
31
0
0
LINE
8
0
6
CONTINUOUS
10
204.77
20
803.05
30
0
11
172.81
21
821.66
31
0
0
LINE
8
0
6
CONTINUOUS
10
172.81
20
821.66
30
0
11
140.86
21
824.32
31
0
0
LINE
8
0
6
CONTINUOUS
10
140.86
20
824.32
30
0
11
98.25
21
826.98
31
0
0
LINE
8
0
6
CONTINUOUS
10
98.25
20
826.98
30
0
11
103.58
21
890.8
31
0
0
LINE
8
0
6
CONTINUOUS
10
103.58
20
890.8
30
0
11
116.89
21
957.27
31
0
0
LINE
8
0
6
CONTINUOUS
10
116.89
20
957.27
30
0
11
127.55
21
1021.09
31
0
0
LINE
8
0
6
CONTINUOUS
10
127.55
20
1021.09
30
0
11
119.56
21
1087.57
31
0
0
LINE
8
0
6
CONTINUOUS
10
119.56
20
1087.57
30
0
11
122.22
21
1146.07
31
0
0
LINE
8
0
6
CONTINUOUS
10
122.22
20
1146.07
30
0
11
119.56
21
1180.64
31
0
0
LINE
8
0
6
CONTINUOUS
10
119.56
20
1180.64
30
0
11
106.24
21
1225.84
31
0
0
LINE
8
0
6
CONTINUOUS
10
106.24
20
1225.84
30
0
11
95.59
21
1273.7
31
0
0
LINE
8
0
6
CONTINUOUS
10
95.59
20
1273.7
30
0
11
90.27
21
1353.48
31
0
0
LINE
8
0
6
CONTINUOUS
10
231.4
20
1422.61
30
0
11
204.77
21
1451.86
31
0
0
LINE
8
0
6
CONTINUOUS
10
204.77
20
1451.86
30
0
11
178.14
21
1438.57
31
0
0
LINE
8
0
6
CONTINUOUS
10
178.14
20
1438.57
30
0
11
154.17
21
1411.98
31
0
0
LINE
8
0
6
CONTINUOUS
10
82.28
20
1590.14
30
0
11
76.95
21
1547.59
31
0
0
LINE
8
0
6
CONTINUOUS
10
76.95
20
1547.59
30
0
11
42.33
21
1478.45
31
0
0
LINE
8
0
6
CONTINUOUS
10
42.33
20
1478.45
30
0
11
18.37
21
1414.64
31
0
0
LINE
8
0
6
CONTINUOUS
10
18.37
20
1414.64
30
0
11
-2.93
21
1356.14
31
0
0
LINE
8
0
6
CONTINUOUS
10
-2.93
20
1356.14
30
0
11
-16.25
21
1284.34
31
0
0
LINE
8
0
6
CONTINUOUS
10
-16.25
20
1284.34
30
0
11
-26.9
21
1217.86
31
0
0
LINE
8
0
6
CONTINUOUS
10
-26.9
20
1217.86
30
0
11
-48.2
21
1143.41
31
0
0
LINE
8
0
6
CONTINUOUS
10
-48.2
20
1143.41
30
0
11
-48.2
21
1079.59
31
0
0
LINE
8
0
6
CONTINUOUS
10
-48.2
20
1079.59
30
0
11
-50.87
21
1015.77
31
0
0
LINE
8
0
6
CONTINUOUS
10
-50.87
20
1015.77
30
0
11
-40.21
21
936.0
31
0
0
LINE
8
0
6
CONTINUOUS
10
-40.21
20
936.0
30
0
11
-32.23
21
912.07
31
0
0
LINE
8
0
6
CONTINUOUS
10
-32.23
20
912.07
30
0
11
23.69
21
930.68
31
0
0
LINE
8
0
6
CONTINUOUS
10
23.69
20
930.68
30
0
11
74.29
21
941.32
31
0
0
LINE
8
0
6
CONTINUOUS
10
74.29
20
941.32
30
0
11
114.23
21
936.0
31
0
0
LINE
8
0
6
CONTINUOUS
10
-69.51
20
1802.86
30
0
11
-80.16
21
1824.14
31
0
0
LINE
8
0
6
CONTINUOUS
10
-80.16
20
1824.14
30
0
11
-77.49
21
1848.07
31
0
0
LINE
8
0
6
CONTINUOUS
10
-77.49
20
1848.07
30
0
11
-42.88
21
1864.02
31
0
0
LINE
8
0
6
CONTINUOUS
10
-42.88
20
1864.02
30
0
11
2.39
21
1866.68
31
0
0
LINE
8
0
6
CONTINUOUS
10
2.39
20
1866.68
30
0
11
37.01
21
1856.05
31
0
0
LINE
8
0
6
CONTINUOUS
10
37.01
20
1856.05
30
0
11
71.63
21
1837.43
31
0
0
LINE
8
0
6
CONTINUOUS
10
71.63
20
1837.43
30
0
11
92.93
21
1818.82
31
0
0
LINE
8
0
6
CONTINUOUS
10
92.93
20
1818.82
30
0
11
116.89
21
1786.91
31
0
0
LINE
8
0
6
CONTINUOUS
10
116.89
20
1786.91
30
0
11
122.22
21
1760.32
31
0
0
LINE
8
0
6
CONTINUOUS
10
122.22
20
1760.32
30
0
11
124.88
21
1723.09
31
0
0
LINE
8
0
6
CONTINUOUS
10
124.88
20
1723.09
30
0
11
122.22
21
1677.89
31
0
0
LINE
8
0
6
CONTINUOUS
10
122.22
20
1677.89
30
0
11
138.2
21
1651.3
31
0
0
LINE
8
0
6
CONTINUOUS
10
138.2
20
1651.3
30
0
11
138.2
21
1630.02
31
0
0
LINE
8
0
6
CONTINUOUS
10
138.2
20
1630.02
30
0
11
122.22
21
1600.77
31
0
0
LINE
8
0
6
CONTINUOUS
10
122.22
20
1600.77
30
0
11
103.58
21
1580.83
31
0
0
LINE
8
0
6
CONTINUOUS
10
103.58
20
1580.83
30
0
11
103.58
21
1539.61
31
0
0
LINE
8
0
6
CONTINUOUS
10
103.58
20
1539.61
30
0
11
90.27
21
1473.14
31
0
0
LINE
8
0
6
CONTINUOUS
10
90.27
20
1473.14
30
0
11
103.58
21
1457.18
31
0
0
LINE
8
0
6
CONTINUOUS
10
103.58
20
1457.18
30
0
11
71.63
21
1435.91
31
0
0
LINE
8
0
6
CONTINUOUS
10
71.63
20
1435.91
30
0
11
55.65
21
1390.7
31
0
0
LINE
8
0
6
CONTINUOUS
10
55.65
20
1390.7
30
0
11
47.66
21
1324.23
31
0
0
LINE
8
0
6
CONTINUOUS
10
47.66
20
1324.23
30
0
11
37.01
21
1265.73
31
0
0
LINE
8
0
6
CONTINUOUS
10
37.01
20
1265.73
30
0
11
21.03
21
1191.27
31
0
0
LINE
8
0
6
CONTINUOUS
10
21.03
20
1191.27
30
0
11
-5.6
21
1140.75
31
0
0
LINE
8
0
6
CONTINUOUS
10
-5.6
20
1140.75
30
0
11
-42.88
21
1090.23
31
0
0
LINE
8
0
6
CONTINUOUS
10
-33.56
20
1567.54
30
0
11
-50.87
21
1534.3
31
0
0
LINE
8
0
6
CONTINUOUS
10
-50.87
20
1534.3
30
0
11
-82.82
21
1483.77
31
0
0
LINE
8
0
6
CONTINUOUS
10
-82.82
20
1483.77
30
0
11
-85.48
21
1430.59
31
0
0
LINE
8
0
6
CONTINUOUS
10
-85.48
20
1430.59
30
0
11
-98.8
21
1374.75
31
0
0
LINE
8
0
6
CONTINUOUS
10
-98.8
20
1374.75
30
0
11
-109.45
21
1326.89
31
0
0
LINE
8
0
6
CONTINUOUS
10
-109.45
20
1326.89
30
0
11
-125.42
21
1252.43
31
0
0
LINE
8
0
6
CONTINUOUS
10
-125.42
20
1252.43
30
0
11
-130.75
21
1188.61
31
0
0
LINE
8
0
6
CONTINUOUS
10
-130.75
20
1188.61
30
0
11
-138.74
21
1111.5
31
0
0
LINE
8
0
6
CONTINUOUS
10
-138.74
20
1111.5
30
0
11
-154.72
21
1042.36
31
0
0
LINE
8
0
6
CONTINUOUS
10
-154.72
20
1042.36
30
0
11
-178.68
21
989.18
31
0
0
LINE
8
0
6
CONTINUOUS
10
-178.68
20
989.18
30
0
11
-202.65
21
930.68
31
0
0
LINE
8
0
6
CONTINUOUS
10
-202.65
20
930.68
30
0
11
-168.03
21
933.34
31
0
0
LINE
8
0
6
CONTINUOUS
10
-168.03
20
933.34
30
0
11
-114.77
21
943.98
31
0
0
LINE
8
0
6
CONTINUOUS
10
-114.77
20
943.98
30
0
11
-106.78
21
978.55
31
0
0
LINE
8
0
6
CONTINUOUS
10
-106.78
20
978.55
30
0
11
-93.47
21
1034.39
31
0
0
LINE
8
0
6
CONTINUOUS
10
-93.47
20
1034.39
30
0
11
-93.47
21
1103.52
31
0
0
LINE
8
0
6
CONTINUOUS
10
-93.47
20
1103.52
30
0
11
-133.41
21
1132.77
31
0
0
LINE
8
0
6
CONTINUOUS
10
-93.47
20
1103.52
30
0
11
-50.87
21
1087.57
31
0
0
LINE
8
0
6
CONTINUOUS
10
-21.57
20
1550.25
30
0
11
-24.24
21
1513.02
31
0
0
LINE
8
0
6
CONTINUOUS
10
-24.24
20
1513.02
30
0
11
-42.88
21
1518.34
31
0
0
LINE
8
0
6
CONTINUOUS
10
-42.88
20
1518.34
30
0
11
-40.21
21
1552.91
31
0
0
LINE
8
0
6
CONTINUOUS
10
-24.24
20
1510.36
30
0
11
-37.55
21
1473.14
31
0
0
LINE
8
0
6
CONTINUOUS
10
-37.55
20
1473.14
30
0
11
-56.19
21
1419.95
31
0
0
LINE
8
0
6
CONTINUOUS
10
-56.19
20
1419.95
30
0
11
-53.53
21
1382.73
31
0
0
LINE
8
0
6
CONTINUOUS
10
-53.53
20
1382.73
30
0
11
-69.51
21
1364.11
31
0
0
LINE
8
0
6
CONTINUOUS
10
-69.51
20
1364.11
30
0
11
-74.83
21
1332.2
31
0
0
LINE
8
0
6
CONTINUOUS
10
-74.83
20
1332.2
30
0
11
-88.15
21
1292.32
31
0
0
LINE
8
0
6
CONTINUOUS
10
-88.15
20
1292.32
30
0
11
-93.47
21
1249.77
31
0
0
LINE
8
0
6
CONTINUOUS
10
-93.47
20
1249.77
30
0
11
-98.8
21
1199.25
31
0
0
LINE
8
0
6
CONTINUOUS
10
-98.8
20
1199.25
30
0
11
-120.1
21
1170.0
31
0
0
LINE
8
0
6
CONTINUOUS
10
-120.1
20
1170.0
30
0
11
-120.1
21
1138.09
31
0
0
LINE
8
0
6
CONTINUOUS
10
-202.65
20
930.68
30
0
11
-210.64
21
970.57
31
0
0
LINE
8
0
6
CONTINUOUS
10
-210.64
20
970.57
30
0
11
-202.65
21
1039.7
31
0
0
LINE
8
0
6
CONTINUOUS
10
-202.65
20
1039.7
30
0
11
-194.66
21
1108.84
31
0
0
LINE
8
0
6
CONTINUOUS
10
-194.66
20
1108.84
30
0
11
-202.65
21
1196.59
31
0
0
LINE
8
0
6
CONTINUOUS
10
-202.65
20
1196.59
30
0
11
-192.0
21
1252.43
31
0
0
LINE
8
0
6
CONTINUOUS
10
-192.0
20
1252.43
30
0
11
-178.68
21
1308.27
31
0
0
LINE
8
0
6
CONTINUOUS
10
-178.68
20
1308.27
30
0
11
-146.73
21
1398.68
31
0
0
LINE
8
0
6
CONTINUOUS
10
-146.73
20
1398.68
30
0
11
-194.66
21
1409.32
31
0
0
LINE
8
0
6
CONTINUOUS
10
-194.66
20
1409.32
30
0
11
-245.25
21
1422.61
31
0
0
LINE
8
0
6
CONTINUOUS
10
-245.25
20
1422.61
30
0
11
-277.21
21
1443.89
31
0
0
LINE
8
0
6
CONTINUOUS
10
-277.21
20
1443.89
30
0
11
-319.81
21
1475.8
31
0
0
LINE
8
0
6
CONTINUOUS
10
-319.81
20
1475.8
30
0
11
-362.42
21
1507.7
31
0
0
LINE
8
0
6
CONTINUOUS
10
-362.42
20
1507.7
30
0
11
-413.01
21
1547.59
31
0
0
LINE
8
0
6
CONTINUOUS
10
-413.01
20
1547.59
30
0
11
-375.73
21
1592.8
31
0
0
LINE
8
0
6
CONTINUOUS
10
-375.73
20
1592.8
30
0
11
-349.1
21
1648.64
31
0
0
LINE
8
0
6
CONTINUOUS
10
-349.1
20
1648.64
30
0
11
-391.71
21
1693.84
31
0
0
LINE
8
0
6
CONTINUOUS
10
-391.71
20
1693.84
30
0
11
-394.37
21
1720.43
31
0
0
LINE
8
0
6
CONTINUOUS
10
-394.37
20
1720.43
30
0
11
-428.99
21
1755.0
31
0
0
LINE
8
0
6
CONTINUOUS
10
-428.99
20
1755.0
30
0
11
-468.93
21
1794.89
31
0
0
LINE
8
0
6
CONTINUOUS
10
-468.93
20
1794.89
30
0
11
-503.55
21
1810.84
31
0
0
LINE
8
0
6
CONTINUOUS
10
-503.55
20
1810.84
30
0
11
-500.89
21
1789.57
31
0
0
LINE
8
0
6
CONTINUOUS
10
-500.89
20
1789.57
30
0
11
-460.94
21
1744.36
31
0
0
LINE
8
0
6
CONTINUOUS
10
-460.94
20
1744.36
30
0
11
-476.92
21
1739.05
31
0
0
LINE
8
0
6
CONTINUOUS
10
-476.92
20
1739.05
30
0
11
-482.25
21
1717.77
31
0
0
LINE
8
0
6
CONTINUOUS
10
-482.25
20
1717.77
30
0
11
-487.57
21
1683.2
31
0
0
LINE
8
0
6
CONTINUOUS
10
-487.57
20
1683.2
30
0
11
-455.62
21
1669.91
31
0
0
LINE
8
0
6
CONTINUOUS
10
-455.62
20
1669.91
30
0
11
-426.33
21
1638.0
31
0
0
LINE
8
0
6
CONTINUOUS
10
-426.33
20
1638.0
30
0
11
-410.35
21
1638.0
31
0
0
LINE
8
0
6
CONTINUOUS
10
-410.35
20
1638.0
30
0
11
-378.39
21
1587.48
31
0
0
LINE
8
0
6
CONTINUOUS
10
23.69
20
1635.34
30
0
11
47.66
21
1611.41
31
0
0
LINE
8
0
6
CONTINUOUS
10
47.66
20
1611.41
30
0
11
52.99
21
1600.77
31
0
0
LINE
8
0
6
CONTINUOUS
10
-10.92
20
1800.21
30
0
11
31.68
21
1805.52
31
0
0
LINE
8
0
6
CONTINUOUS
10
31.68
20
1805.52
30
0
11
58.31
21
1800.2
31
0
0
LINE
8
0
6
CONTINUOUS
10
58.31
20
1800.2
30
0
11
87.6
21
1781.59
31
0
0
LINE
8
0
6
CONTINUOUS
10
87.6
20
1781.59
30
0
11
76.95
21
1747.02
31
0
0
LINE
8
0
6
CONTINUOUS
10
76.95
20
1747.02
30
0
11
50.32
21
1760.32
31
0
0
LINE
8
0
6
CONTINUOUS
10
50.32
20
1760.32
30
0
11
29.02
21
1773.61
31
0
0
LINE
8
0
6
CONTINUOUS
10
29.02
20
1773.61
30
0
11
7.72
21
1778.93
31
0
0
LINE
8
0
6
CONTINUOUS
10
-75.82
20
1707.14
30
0
11
-64.48
21
1707.14
31
0
0
LINE
8
0
6
CONTINUOUS
10
37.01
20
1396.02
30
0
11
21.03
21
1393.36
31
0
0
LINE
8
0
6
CONTINUOUS
10
21.03
20
1393.36
30
0
11
18.37
21
1361.45
31
0
0
LINE
8
0
6
CONTINUOUS
10
140.86
20
824.32
30
0
11
122.22
21
792.41
31
0
0
LINE
8
0
6
CONTINUOUS
10
122.22
20
792.41
30
0
11
106.24
21
765.82
31
0
0
LINE
8
0
6
CONTINUOUS
10
106.24
20
765.82
30
0
11
106.24
21
733.91
31
0
0
LINE
8
0
6
CONTINUOUS
10
106.24
20
733.91
30
0
11
106.24
21
704.66
31
0
0
LINE
8
0
6
CONTINUOUS
10
106.24
20
704.66
30
0
11
116.89
21
707.32
31
0
0
LINE
8
0
6
CONTINUOUS
10
116.89
20
707.32
30
0
11
122.22
21
747.2
31
0
0
LINE
8
0
6
CONTINUOUS
10
122.22
20
747.2
30
0
11
135.53
21
707.32
31
0
0
LINE
8
0
6
CONTINUOUS
10
135.53
20
707.32
30
0
11
148.85
21
699.34
31
0
0
LINE
8
0
6
CONTINUOUS
10
148.85
20
699.34
30
0
11
162.16
21
717.95
31
0
0
LINE
8
0
6
CONTINUOUS
10
162.16
20
717.95
30
0
11
178.14
21
717.95
31
0
0
LINE
8
0
6
CONTINUOUS
10
178.14
20
717.95
30
0
11
191.45
21
709.98
31
0
0
LINE
8
0
6
CONTINUOUS
10
191.45
20
709.98
30
0
11
196.78
21
736.57
31
0
0
LINE
8
0
6
CONTINUOUS
10
196.78
20
736.57
30
0
11
191.45
21
749.86
31
0
0
LINE
8
0
6
CONTINUOUS
10
191.45
20
749.86
30
0
11
196.78
21
760.5
31
0
0
LINE
8
0
6
CONTINUOUS
10
196.78
20
760.5
30
0
11
202.1
21
797.73
31
0
0
LINE
8
0
6
CONTINUOUS
10
-114.77
20
943.98
30
0
11
-104.12
21
888.14
31
0
0
LINE
8
0
6
CONTINUOUS
10
-104.12
20
888.14
30
0
11
-106.78
21
845.59
31
0
0
LINE
8
0
6
CONTINUOUS
10
-106.78
20
845.59
30
0
11
-117.44
21
808.36
31
0
0
LINE
8
0
6
CONTINUOUS
10
-117.44
20
808.36
30
0
11
-125.42
21
779.11
31
0
0
LINE
8
0
6
CONTINUOUS
10
-125.42
20
779.11
30
0
11
-120.1
21
741.89
31
0
0
LINE
8
0
6
CONTINUOUS
10
-120.1
20
741.89
30
0
11
-120.1
21
656.8
31
0
0
LINE
8
0
6
CONTINUOUS
10
-120.1
20
656.8
30
0
11
-117.44
21
534.48
31
0
0
LINE
8
0
6
CONTINUOUS
10
-117.44
20
534.48
30
0
11
-120.1
21
470.66
31
0
0
LINE
8
0
6
CONTINUOUS
10
-120.1
20
470.66
30
0
11
-120.1
21
406.84
31
0
0
LINE
8
0
6
CONTINUOUS
10
-120.1
20
406.84
30
0
11
-114.77
21
337.7
31
0
0
LINE
8
0
6
CONTINUOUS
10
-114.77
20
337.7
30
0
11
-122.76
21
273.89
31
0
0
LINE
8
0
6
CONTINUOUS
10
-122.76
20
273.89
30
0
11
-120.1
21
226.02
31
0
0
LINE
8
0
6
CONTINUOUS
10
-120.1
20
226.02
30
0
11
-160.04
21
183.48
31
0
0
LINE
8
0
6
CONTINUOUS
10
-160.04
20
183.48
30
0
11
-173.36
21
164.86
31
0
0
LINE
8
0
6
CONTINUOUS
10
-173.36
20
164.86
30
0
11
-149.39
21
140.93
31
0
0
LINE
8
0
6
CONTINUOUS
10
-149.39
20
140.93
30
0
11
-114.77
21
124.98
31
0
0
LINE
8
0
6
CONTINUOUS
10
-114.77
20
124.98
30
0
11
-77.49
21
111.68
31
0
0
LINE
8
0
6
CONTINUOUS
10
-77.49
20
111.68
30
0
11
-48.2
21
95.73
31
0
0
LINE
8
0
6
CONTINUOUS
10
-48.2
20
95.73
30
0
11
-16.25
21
85.09
31
0
0
LINE
8
0
6
CONTINUOUS
10
-16.25
20
85.09
30
0
11
-8.26
21
117.0
31
0
0
LINE
8
0
6
CONTINUOUS
10
-8.26
20
117.0
30
0
11
-8.26
21
156.89
31
0
0
LINE
8
0
6
CONTINUOUS
10
-8.26
20
156.89
30
0
11
-8.26
21
194.11
31
0
0
LINE
8
0
6
CONTINUOUS
10
-8.26
20
194.11
30
0
11
5.05
21
260.59
31
0
0
LINE
8
0
6
CONTINUOUS
10
5.05
20
260.59
30
0
11
15.71
21
308.45
31
0
0
LINE
8
0
6
CONTINUOUS
10
15.71
20
308.45
30
0
11
18.37
21
356.32
31
0
0
LINE
8
0
6
CONTINUOUS
10
18.37
20
356.32
30
0
11
15.71
21
420.14
31
0
0
LINE
8
0
6
CONTINUOUS
10
15.71
20
420.14
30
0
11
18.37
21
449.39
31
0
0
LINE
8
0
6
CONTINUOUS
10
18.37
20
449.39
30
0
11
29.02
21
374.93
31
0
0
LINE
8
0
6
CONTINUOUS
10
29.02
20
374.93
30
0
11
34.35
21
313.77
31
0
0
LINE
8
0
6
CONTINUOUS
10
34.35
20
313.77
30
0
11
29.02
21
260.59
31
0
0
LINE
8
0
6
CONTINUOUS
10
29.02
20
260.59
30
0
11
39.67
21
220.7
31
0
0
LINE
8
0
6
CONTINUOUS
10
39.67
20
220.7
30
0
11
58.31
21
154.23
31
0
0
LINE
8
0
6
CONTINUOUS
10
58.31
20
154.23
30
0
11
60.97
21
117.0
31
0
0
LINE
8
0
6
CONTINUOUS
10
60.97
20
117.0
30
0
11
58.31
21
98.39
31
0
0
LINE
8
0
6
CONTINUOUS
10
58.31
20
98.39
30
0
11
90.27
21
95.73
31
0
0
LINE
8
0
6
CONTINUOUS
10
90.27
20
95.73
30
0
11
116.89
21
82.43
31
0
0
LINE
8
0
6
CONTINUOUS
10
116.89
20
82.43
30
0
11
130.21
21
61.16
31
0
0
LINE
8
0
6
CONTINUOUS
10
130.21
20
61.16
30
0
11
122.22
21
42.55
31
0
0
LINE
8
0
6
CONTINUOUS
10
122.22
20
42.55
30
0
11
119.56
21
18.61
31
0
0
LINE
8
0
6
CONTINUOUS
10
119.56
20
18.61
30
0
11
154.17
21
26.59
31
0
0
LINE
8
0
6
CONTINUOUS
10
154.17
20
26.59
30
0
11
186.13
21
45.2
31
0
0
LINE
8
0
6
CONTINUOUS
10
186.13
20
45.2
30
0
11
196.78
21
63.82
31
0
0
LINE
8
0
6
CONTINUOUS
10
196.78
20
63.82
30
0
11
188.79
21
103.7
31
0
0
LINE
8
0
6
CONTINUOUS
10
188.79
20
103.7
30
0
11
186.13
21
138.27
31
0
0
LINE
8
0
6
CONTINUOUS
10
186.13
20
138.27
30
0
11
188.79
21
186.14
31
0
0
LINE
8
0
6
CONTINUOUS
10
42.33
20
202.09
30
0
11
76.95
21
175.5
31
0
0
LINE
8
0
6
CONTINUOUS
10
76.95
20
175.5
30
0
11
127.55
21
170.18
31
0
0
LINE
8
0
6
CONTINUOUS
10
127.55
20
170.18
30
0
11
172.81
21
175.5
31
0
0
LINE
8
0
6
CONTINUOUS
10
172.81
20
175.5
30
0
11
188.79
21
186.14
31
0
0
LINE
8
0
6
CONTINUOUS
10
188.79
20
186.14
30
0
11
231.4
21
204.75
31
0
0
LINE
8
0
6
CONTINUOUS
10
231.4
20
204.75
30
0
11
284.65
21
252.61
31
0
0
LINE
8
0
6
CONTINUOUS
10
284.65
20
252.61
30
0
11
305.96
21
316.43
31
0
0
LINE
8
0
6
CONTINUOUS
10
305.96
20
316.43
30
0
11
324.6
21
404.18
31
0
0
LINE
8
0
6
CONTINUOUS
10
324.6
20
404.18
30
0
11
335.25
21
489.27
31
0
0
LINE
8
0
6
CONTINUOUS
10
335.25
20
489.27
30
0
11
332.58
21
558.41
31
0
0
LINE
8
0
6
CONTINUOUS
10
332.58
20
558.41
30
0
11
329.92
21
608.93
31
0
0
LINE
8
0
6
CONTINUOUS
10
329.92
20
608.93
30
0
11
284.65
21
579.68
31
0
0
LINE
8
0
6
CONTINUOUS
10
284.65
20
579.68
30
0
11
252.7
21
579.68
31
0
0
LINE
8
0
6
CONTINUOUS
10
252.7
20
579.68
30
0
11
284.65
21
630.2
31
0
0
LINE
8
0
6
CONTINUOUS
10
284.65
20
630.2
30
0
11
281.99
21
659.45
31
0
0
LINE
8
0
6
CONTINUOUS
10
281.99
20
659.45
30
0
11
268.68
21
680.73
31
0
0
LINE
8
0
6
CONTINUOUS
10
268.68
20
680.73
30
0
11
242.05
21
686.05
31
0
0
LINE
8
0
6
CONTINUOUS
10
242.05
20
686.05
30
0
11
207.43
21
654.14
31
0
0
LINE
8
0
6
CONTINUOUS
10
207.43
20
654.14
30
0
11
162.16
21
632.86
31
0
0
LINE
8
0
6
CONTINUOUS
10
162.16
20
632.86
30
0
11
119.56
21
611.59
31
0
0
LINE
8
0
6
CONTINUOUS
10
119.56
20
611.59
30
0
11
71.63
21
598.3
31
0
0
LINE
8
0
6
CONTINUOUS
10
71.63
20
598.3
30
0
11
34.35
21
574.36
31
0
0
LINE
8
0
6
CONTINUOUS
10
34.35
20
574.36
30
0
11
2.39
21
542.45
31
0
0
LINE
8
0
6
CONTINUOUS
10
2.39
20
542.45
30
0
11
7.72
21
497.25
31
0
0
LINE
8
0
6
CONTINUOUS
10
7.72
20
497.25
30
0
11
18.37
21
449.39
31
0
0
LINE
8
0
6
CONTINUOUS
10
7.72
20
497.25
30
0
11
55.65
21
468.0
31
0
0
LINE
8
0
6
CONTINUOUS
10
55.65
20
468.0
30
0
11
52.99
21
436.09
31
0
0
LINE
8
0
6
CONTINUOUS
10
52.99
20
436.09
30
0
11
29.02
21
417.48
31
0
0
LINE
8
0
6
CONTINUOUS
10
29.02
20
417.48
30
0
11
87.6
21
449.39
31
0
0
LINE
8
0
6
CONTINUOUS
10
87.6
20
449.39
30
0
11
146.19
21
489.27
31
0
0
LINE
8
0
6
CONTINUOUS
10
146.19
20
489.27
30
0
11
191.45
21
534.48
31
0
0
LINE
8
0
6
CONTINUOUS
10
191.45
20
534.48
30
0
11
220.74
21
553.09
31
0
0
LINE
8
0
6
CONTINUOUS
10
220.74
20
553.09
30
0
11
252.7
21
579.68
31
0
0
LINE
8
0
6
CONTINUOUS
10
275.34
20
670.09
30
0
11
308.62
21
654.14
31
0
0
LINE
8
0
6
CONTINUOUS
10
308.62
20
654.14
30
0
11
321.93
21
622.23
31
0
0
LINE
8
0
6
CONTINUOUS
10
321.93
20
622.23
30
0
11
329.92
21
608.93
31
0
0
LINE
8
0
6
CONTINUOUS
10
55.65
20
468.0
30
0
11
50.32
21
497.25
31
0
0
LINE
8
0
6
CONTINUOUS
10
50.32
20
497.25
30
0
11
87.6
21
547.77
31
0
0
LINE
8
0
6
CONTINUOUS
10
87.6
20
547.77
30
0
11
106.24
21
550.43
31
0
0
LINE
8
0
6
CONTINUOUS
10
106.24
20
550.43
30
0
11
156.84
21
582.34
31
0
0
LINE
8
0
6
CONTINUOUS
10
156.84
20
582.34
30
0
11
204.77
21
600.95
31
0
0
LINE
8
0
6
CONTINUOUS
10
204.77
20
600.95
30
0
11
228.73
21
622.23
31
0
0
LINE
8
0
6
CONTINUOUS
10
228.73
20
622.23
30
0
11
250.04
21
643.5
31
0
0
LINE
8
0
6
CONTINUOUS
10
250.04
20
643.5
30
0
11
260.69
21
664.77
31
0
0
LINE
8
0
6
CONTINUOUS
10
260.69
20
664.77
30
0
11
276.08
21
637.69
31
0
0
LINE
8
0
6
CONTINUOUS
10
276.08
20
637.69
30
0
11
276.08
21
616.65
31
0
0
LINE
8
0
6
CONTINUOUS
10
127.55
20
717.95
30
0
11
111.57
21
680.73
31
0
0
LINE
8
0
6
CONTINUOUS
10
111.57
20
680.73
30
0
11
100.92
21
632.86
31
0
0
LINE
8
0
6
CONTINUOUS
10
100.92
20
632.86
30
0
11
74.29
21
595.64
31
0
0
LINE
8
0
6
CONTINUOUS
10
74.29
20
595.64
30
0
11
76.95
21
577.02
31
0
0
LINE
8
0
6
CONTINUOUS
10
138.2
20
696.68
30
0
11
135.53
21
648.82
31
0
0
LINE
8
0
6
CONTINUOUS
10
135.53
20
648.82
30
0
11
138.2
21
598.3
31
0
0
LINE
8
0
6
CONTINUOUS
10
138.2
20
598.3
30
0
11
124.88
21
555.75
31
0
0
LINE
8
0
6
CONTINUOUS
10
124.88
20
555.75
30
0
11
127.55
21
518.52
31
0
0
LINE
8
0
6
CONTINUOUS
10
127.55
20
518.52
30
0
11
130.21
21
475.98
31
0
0
LINE
8
0
6
CONTINUOUS
10
130.21
20
475.98
30
0
11
129.64
21
459.78
31
0
0
LINE
8
0
6
CONTINUOUS
10
196.78
20
707.32
30
0
11
218.08
21
691.36
31
0
0
LINE
8
0
6
CONTINUOUS
10
218.08
20
691.36
30
0
11
220.74
21
654.14
31
0
0
LINE
8
0
6
CONTINUOUS
10
220.74
20
654.14
30
0
11
215.42
21
611.59
31
0
0
LINE
8
0
6
CONTINUOUS
10
215.42
20
611.59
30
0
11
231.4
21
569.05
31
0
0
LINE
8
0
6
CONTINUOUS
10
231.4
20
569.05
30
0
11
236.72
21
542.45
31
0
0
LINE
8
0
6
CONTINUOUS
10
140.86
20
771.14
30
0
11
135.53
21
752.52
31
0
0
LINE
8
0
6
CONTINUOUS
10
236.72
20
446.73
30
0
11
204.77
21
358.98
31
0
0
LINE
8
0
6
CONTINUOUS
10
204.77
20
358.98
30
0
11
228.73
21
295.16
31
0
0
LINE
8
0
6
CONTINUOUS
10
228.73
20
295.16
30
0
11
215.42
21
241.98
31
0
0
LINE
8
0
6
CONTINUOUS
10
103.58
20
377.59
30
0
11
79.61
21
327.07
31
0
0
LINE
8
0
6
CONTINUOUS
10
79.61
20
327.07
30
0
11
106.24
21
260.59
31
0
0
LINE
8
0
6
CONTINUOUS
10
106.24
20
260.59
30
0
11
103.58
21
202.09
31
0
0
LINE
8
0
6
CONTINUOUS
10
-104.12
20
888.14
30
0
11
-77.49
21
811.02
31
0
0
LINE
8
0
6
CONTINUOUS
10
-77.49
20
811.02
30
0
11
-66.84
21
752.52
31
0
0
LINE
8
0
6
CONTINUOUS
10
-66.84
20
752.52
30
0
11
-40.21
21
694.02
31
0
0
LINE
8
0
6
CONTINUOUS
10
-40.21
20
694.02
30
0
11
13.04
21
619.57
31
0
0
LINE
8
0
6
CONTINUOUS
10
13.04
20
619.57
30
0
11
7.72
21
571.7
31
0
0
LINE
8
0
6
CONTINUOUS
10
7.72
20
571.7
30
0
11
2.07
21
541.78
31
0
0
LINE
8
0
6
CONTINUOUS
10
-173.36
20
164.86
30
0
11
-157.38
21
148.91
31
0
0
LINE
8
0
6
CONTINUOUS
10
-157.38
20
148.91
30
0
11
-197.32
21
143.59
31
0
0
LINE
8
0
6
CONTINUOUS
10
-197.32
20
143.59
30
0
11
-237.26
21
138.27
31
0
0
LINE
8
0
6
CONTINUOUS
10
-237.26
20
138.27
30
0
11
-258.57
21
124.98
31
0
0
LINE
8
0
6
CONTINUOUS
10
-258.57
20
124.98
30
0
11
-263.89
21
95.73
31
0
0
LINE
8
0
6
CONTINUOUS
10
-263.89
20
95.73
30
0
11
-239.93
21
85.09
31
0
0
LINE
8
0
6
CONTINUOUS
10
-239.93
20
85.09
30
0
11
-192.0
21
77.11
31
0
0
LINE
8
0
6
CONTINUOUS
10
-192.0
20
77.11
30
0
11
-144.06
21
82.43
31
0
0
LINE
8
0
6
CONTINUOUS
10
-144.06
20
82.43
30
0
11
-120.1
21
93.07
31
0
0
LINE
8
0
6
CONTINUOUS
10
-120.1
20
93.07
30
0
11
-106.78
21
85.09
31
0
0
LINE
8
0
6
CONTINUOUS
10
-106.78
20
85.09
30
0
11
-77.49
21
85.09
31
0
0
LINE
8
0
6
CONTINUOUS
10
-77.49
20
85.09
30
0
11
-45.54
21
82.43
31
0
0
LINE
8
0
6
CONTINUOUS
10
-45.54
20
82.43
30
0
11
-40.21
21
90.41
31
0
0
LINE
8
0
6
CONTINUOUS
10
58.31
20
98.39
30
0
11
45.0
21
69.14
31
0
0
LINE
8
0
6
CONTINUOUS
10
45.0
20
69.14
30
0
11
13.04
21
42.55
31
0
0
LINE
8
0
6
CONTINUOUS
10
13.04
20
42.55
30
0
11
7.72
21
26.59
31
0
0
LINE
8
0
6
CONTINUOUS
10
7.72
20
26.59
30
0
11
10.38
21
2.66
31
0
0
LINE
8
0
6
CONTINUOUS
10
10.38
20
2.66
30
0
11
45.0
21
0.0
31
0
0
LINE
8
0
6
CONTINUOUS
10
45.0
20
-0.0
30
0
11
76.95
21
2.66
31
0
0
LINE
8
0
6
CONTINUOUS
10
76.95
20
2.66
30
0
11
103.58
21
5.32
31
0
0
LINE
8
0
6
CONTINUOUS
10
103.58
20
5.32
30
0
11
119.56
21
18.61
31
0
0
LINE
8
0
6
CONTINUOUS
10
116.89
20
1058.32
30
0
11
95.59
21
1042.36
31
0
0
LINE
8
0
6
CONTINUOUS
10
95.59
20
1042.36
30
0
11
66.3
21
1034.39
31
0
0
LINE
8
0
6
CONTINUOUS
10
66.3
20
1034.39
30
0
11
63.64
21
999.82
31
0
0
LINE
8
0
6
CONTINUOUS
10
63.64
20
999.82
30
0
11
84.94
21
978.55
31
0
0
LINE
8
0
6
CONTINUOUS
10
84.94
20
978.55
30
0
11
113.95
21
983.06
31
0
0
LINE
8
0
6
CONTINUOUS
10
130.21
20
61.16
30
0
11
166.25
21
62.09
31
0
0
LINE
8
0
6
CONTINUOUS
10
166.25
20
62.09
30
0
11
195.01
21
69.94
31
0
0
LINE
8
0
6
CONTINUOUS
10
29.03
20
55.85
30
0
11
59.04
21
59.48
31
0
0
LINE
8
0
6
CONTINUOUS
10
59.04
20
59.48
30
0
11
90.42
21
46.39
31
0
0
LINE
8
0
6
CONTINUOUS
10
90.42
20
46.39
30
0
11
100.88
21
35.93
31
0
0
LINE
8
0
6
CONTINUOUS
10
-82.17
20
512.11
30
0
11
-79.56
21
451.93
31
0
0
LINE
8
0
6
CONTINUOUS
10
-79.56
20
451.93
30
0
11
-61.25
21
370.82
31
0
0
LINE
8
0
6
CONTINUOUS
10
-61.25
20
370.82
30
0
11
-63.87
21
302.8
31
0
0
LINE
8
0
6
CONTINUOUS
10
-146.73
20
1398.68
30
0
11
-118.78
21
1448.77
31
0
0
LINE
8
0
6
CONTINUOUS
10
-118.78
20
1448.77
30
0
11
-103.09
21
1503.71
31
0
0
LINE
8
0
6
CONTINUOUS
10
-103.09
20
1503.71
30
0
11
-90.02
21
1571.74
31
0
0
LINE
8
0
6
CONTINUOUS
10
-90.02
20
1571.74
30
0
11
-77.49
21
1603.43
31
0
0
LINE
8
0
6
CONTINUOUS
10
-77.49
20
1603.43
30
0
11
-77.49
21
1635.34
31
0
0
LINE
8
0
6
CONTINUOUS
10
-77.49
20
1635.34
30
0
11
-85.48
21
1653.95
31
0
0
LINE
8
0
6
CONTINUOUS
10
-85.48
20
1653.95
30
0
11
-82.82
21
1675.23
31
0
0
LINE
8
0
6
CONTINUOUS
10
-82.82
20
1675.23
30
0
11
-98.8
21
1683.2
31
0
0
LINE
8
0
6
CONTINUOUS
10
-98.8
20
1683.2
30
0
11
-88.15
21
1704.48
31
0
0
LINE
8
0
6
CONTINUOUS
10
-88.15
20
1704.48
30
0
11
-80.16
21
1725.75
31
0
0
LINE
8
0
6
CONTINUOUS
10
-80.16
20
1725.75
30
0
11
-85.48
21
1762.98
31
0
0
LINE
8
0
6
CONTINUOUS
10
-85.48
20
1762.98
30
0
11
-69.51
21
1802.86
31
0
0
LINE
8
0
6
CONTINUOUS
10
-69.51
20
1802.86
30
0
11
-42.88
21
1813.5
31
0
0
LINE
8
0
6
CONTINUOUS
10
-42.88
20
1813.5
30
0
11
-18.91
21
1818.82
31
0
0
LINE
8
0
6
CONTINUOUS
10
-18.91
20
1818.82
30
0
11
-2.93
21
1781.59
31
0
0
LINE
8
0
6
CONTINUOUS
10
-2.93
20
1781.59
30
0
11
-18.91
21
1757.66
31
0
0
LINE
8
0
6
CONTINUOUS
10
-18.91
20
1757.66
30
0
11
-24.24
21
1731.07
31
0
0
LINE
8
0
6
CONTINUOUS
10
-24.24
20
1731.07
30
0
11
-50.87
21
1696.5
31
0
0
LINE
8
0
6
CONTINUOUS
10
-50.87
20
1696.5
30
0
11
-16.25
21
1680.55
31
0
0
LINE
8
0
6
CONTINUOUS
10
-16.25
20
1680.55
30
0
11
-10.92
21
1653.95
31
0
0
LINE
8
0
6
CONTINUOUS
10
-10.92
20
1653.95
30
0
11
2.39
21
1675.23
31
0
0
LINE
8
0
6
CONTINUOUS
10
2.39
20
1675.23
30
0
11
23.69
21
1672.57
31
0
0
LINE
8
0
6
CONTINUOUS
10
23.69
20
1672.57
30
0
11
31.68
21
1645.98
31
0
0
LINE
8
0
6
CONTINUOUS
10
31.68
20
1645.98
30
0
11
15.71
21
1624.7
31
0
0
LINE
8
0
6
CONTINUOUS
10
15.71
20
1624.7
30
0
11
-0.27
21
1619.39
31
0
0
LINE
8
0
6
CONTINUOUS
10
-0.27
20
1619.39
30
0
11
-16.01
21
1627.41
31
0
0
LINE
8
0
6
CONTINUOUS
10
-71.71
20
1488.02
30
0
11
-40.33
21
1493.25
31
0
0
LINE
8
0
6
CONTINUOUS
10
-66.48
20
1467.09
30
0
11
-42.95
21
1464.47
31
0
0
LINE
8
0
6
CONTINUOUS
10
-79.56
20
1435.69
30
0
11
-63.87
21
1433.07
31
0
0
LINE
8
0
6
CONTINUOUS
10
-84.79
20
1391.21
30
0
11
-63.87
21
1391.21
31
0
0
LINE
8
0
6
CONTINUOUS
10
-95.25
20
1351.96
30
0
11
-82.17
21
1349.35
31
0
0
LINE
8
0
6
CONTINUOUS
10
-103.09
20
1323.18
30
0
11
-90.02
21
1317.95
31
0
0
LINE
8
0
6
CONTINUOUS
10
-113.55
20
1278.71
30
0
11
-100.48
21
1273.47
31
0
0
LINE
8
0
6
CONTINUOUS
10
-118.78
20
1247.31
30
0
11
-100.48
21
1234.23
31
0
0
LINE
8
0
6
CONTINUOUS
10
-126.63
20
1210.68
30
0
11
-105.71
21
1202.83
31
0
0
LINE
8
0
6
CONTINUOUS
10
-380.28
20
1553.43
30
0
11
-367.2
21
1545.58
31
0
0
LINE
8
0
6
CONTINUOUS
10
-356.74
20
1532.49
30
0
11
-346.28
21
1522.03
31
0
0
LINE
8
0
6
CONTINUOUS
10
208.09
20
867.94
30
0
11
208.09
21
852.24
31
0
0
LINE
8
0
6
CONTINUOUS
10
254.03
20
1099.54
30
0
11
226.39
21
1124.34
31
0
0
LINE
8
0
6
CONTINUOUS
10
221.16
20
1302.25
30
0
11
189.78
21
1328.42
31
0
0
LINE
8
0
6
CONTINUOUS
10
35.5
20
844.39
30
0
11
53.81
21
786.83
31
0
0
LINE
8
0
6
CONTINUOUS
10
53.81
20
786.83
30
0
11
56.42
21
726.65
31
0
0
LINE
8
0
6
CONTINUOUS
10
-8.26
20
175.5
30
0
11
-19.41
21
229.54
31
0
0
LINE
8
0
6
CONTINUOUS
10
-35.1
20
1038.0
30
0
11
-19.41
21
1038.0
31
0
0
LINE
8
0
6
CONTINUOUS
10
178.14
20
717.95
30
0
11
197.63
21
695.25
31
0
0
LINE
8
0
6
CONTINUOUS
10
197.63
20
695.25
30
0
11
208.09
21
663.86
31
0
0
LINE
8
0
6
CONTINUOUS
10
208.09
20
663.86
30
0
11
208.09
21
653.39
31
0
0
LINE
8
0
6
CONTINUOUS
10
-77.49
20
1635.34
30
0
11
-57.03
21
1633.27
31
0
0
LINE
8
0
6
CONTINUOUS
10
-57.03
20
1633.27
30
0
11
-49.49
21
1638.3
31
0
0
ENDSEC
0
EOF