0
SECTION
2
HEADER
0
ENDSEC
0
SECTION
2
TABLES
0
TABLE
2
LTYPE
70
2
0
LTYPE
2
CONTINUOUS
70
0
3
Solid line
72
65
73
0
40
0.0
0
ENDTAB
0
TABLE
2
LAYER
70
1
0
LAYER
2
0
70
0
62
7
6
CONTINUOUS
0
ENDTAB
0
ENDSEC
0
SECTION
2
ENTITIES
0
LINE
8
0
6
CONTINUOUS
10
-250.0
20
-50.0
30
0
11
0.0
21
-50.0
31
0
0
LINE
8
0
6
CONTINUOUS
10
-224.8
20
0.0
30
0
11
-224.8
21
-50.0
31
0
0
LINE
8
0
6
CONTINUOUS
10
0.0
20
-50.0
30
0
11
0.0
21
0.0
31
0
0
LINE
8
0
6
CONTINUOUS
10
-250.0
20
0.0
30
0
11
0.0
21
0.0
31
0
0
LINE
8
0
6
CONTINUOUS
10
-224.8
20
0.0
30
0
11
-224.8
21
-50.0
31
0
0
LINE
8
0
6
CONTINUOUS
10
-224.8
20
-50.0
30
0
11
0.0
21
-50.0
31
0
0
LINE
8
0
6
CONTINUOUS
10
0.0
20
-50.0
30
0
11
0.0
21
0.0
31
0
0
LINE
8
0
6
CONTINUOUS
10
0.0
20
0.0
30
0
11
-224.8
21
0.0
31
0
0
LINE
8
0
6
CONTINUOUS
10
-0.0
20
-0.0
30
0
11
-50.0
21
-50.0
31
0
0
LINE
8
0
6
CONTINUOUS
10
0.0
20
-14.14
30
0
11
-35.86
21
-50.0
31
0
0
LINE
8
0
6
CONTINUOUS
10
0.0
20
-28.28
30
0
11
-21.72
21
-50.0
31
0
0
LINE
8
0
6
CONTINUOUS
10
0.0
20
-42.43
30
0
11
-7.57
21
-50.0
31
0
0
LINE
8
0
6
CONTINUOUS
10
-100.0
20
0.0
30
0
11
-50.0
21
-50.0
31
0
0
LINE
8
0
6
CONTINUOUS
10
-85.86
20
0.0
30
0
11
-42.93
21
-42.93
31
0
0
LINE
8
0
6
CONTINUOUS
10
-71.72
20
0.0
30
0
11
-35.86
21
-35.86
31
0
0
LINE
8
0
6
CONTINUOUS
10
-57.57
20
0.0
30
0
11
-28.79
21
-28.79
31
0
0
LINE
8
0
6
CONTINUOUS
10
-43.43
20
0.0
30
0
11
-21.72
21
-21.72
31
0
0
LINE
8
0
6
CONTINUOUS
10
-29.29
20
0.0
30
0
11
-14.64
21
-14.64
31
0
0
LINE
8
0
6
CONTINUOUS
10
-15.15
20
0.0
30
0
11
-7.57
21
-7.57
31
0
0
LINE
8
0
6
CONTINUOUS
10
-100.0
20
0.0
30
0
11
-150.0
21
-50.0
31
0
0
LINE
8
0
6
CONTINUOUS
10
-92.93
20
-7.07
30
0
11
-135.86
21
-50.0
31
0
0
LINE
8
0
6
CONTINUOUS
10
-85.86
20
-14.14
30
0
11
-121.72
21
-50.0
31
0
0
LINE
8
0
6
CONTINUOUS
10
-71.72
20
-28.28
30
0
11
-93.43
21
-50.0
31
0
0
LINE
8
0
6
CONTINUOUS
10
-78.79
20
-21.21
30
0
11
-107.57
21
-50.0
31
0
0
LINE
8
0
6
CONTINUOUS
10
-64.64
20
-35.36
30
0
11
-79.29
21
-50.0
31
0
0
LINE
8
0
6
CONTINUOUS
10
-57.57
20
-42.43
30
0
11
-65.15
21
-50.0
31
0
0
LINE
8
0
6
CONTINUOUS
10
0.0
20
0.0
30
0
11
-224.8
21
0.0
31
0
0
LINE
8
0
6
CONTINUOUS
10
-200.0
20
0.0
30
0
11
-150.0
21
-50.0
31
0
0
LINE
8
0
6
CONTINUOUS
10
-185.86
20
0.0
30
0
11
-142.93
21
-42.93
31
0
0
LINE
8
0
6
CONTINUOUS
10
-171.72
20
0.0
30
0
11
-135.86
21
-35.86
31
0
0
LINE
8
0
6
CONTINUOUS
10
-157.57
20
0.0
30
0
11
-128.79
21
-28.79
31
0
0
LINE
8
0
6
CONTINUOUS
10
-143.43
20
0.0
30
0
11
-121.72
21
-21.72
31
0
0
LINE
8
0
6
CONTINUOUS
10
-129.29
20
0.0
30
0
11
-114.64
21
-14.64
31
0
0
LINE
8
0
6
CONTINUOUS
10
-115.15
20
0.0
30
0
11
-107.57
21
-7.57
31
0
0
LINE
8
0
6
CONTINUOUS
10
-200.0
20
0.0
30
0
11
-250.0
21
-50.0
31
0
0
LINE
8
0
6
CONTINUOUS
10
-192.93
20
-7.07
30
0
11
-235.86
21
-50.0
31
0
0
LINE
8
0
6
CONTINUOUS
10
-185.86
20
-14.14
30
0
11
-221.72
21
-50.0
31
0
0
LINE
8
0
6
CONTINUOUS
10
-171.72
20
-28.28
30
0
11
-193.43
21
-50.0
31
0
0
LINE
8
0
6
CONTINUOUS
10
-178.79
20
-21.21
30
0
11
-207.57
21
-50.0
31
0
0
LINE
8
0
6
CONTINUOUS
10
-164.64
20
-35.36
30
0
11
-179.29
21
-50.0
31
0
0
LINE
8
0
6
CONTINUOUS
10
-157.57
20
-42.43
30
0
11
-165.15
21
-50.0
31
0
0
ENDSEC
0
EOF