0
SECTION
2
HEADER
0
ENDSEC
0
SECTION
2
TABLES
0
TABLE
2
LTYPE
70
2
0
LTYPE
2
CONTINUOUS
70
0
3
Solid line
72
65
73
0
40
0.0
0
ENDTAB
0
TABLE
2
LAYER
70
1
0
LAYER
2
0
70
0
62
7
6
CONTINUOUS
0
ENDTAB
0
ENDSEC
0
SECTION
2
ENTITIES
0
LINE
8
0
6
CONTINUOUS
10
0.0
20
-0.0
30
0
11
0.0
21
1040.74
31
0
0
LINE
8
0
6
CONTINUOUS
10
-1305.39
20
0.0
30
0
11
1216.49
21
0.0
31
0
0
ARC
8
0
6
CONTINUOUS
10
-790.6054081429065
20
-189.07143455247171
30
0
40
1889.72
50
27.079195740120788
51
35.6664772069639
0
ARC
8
0
6
CONTINUOUS
10
673.6937208125903
20
863.0787073046768
30
0
40
86.62
50
34.998467209739346
51
85.32072976673517
0
ARC
8
0
6
CONTINUOUS
10
22.092725086519522
20
-7080.729686994798
30
0
40
8057.23
50
85.3115597194836
51
87.90796630886314
0
ARC
8
0
6
CONTINUOUS
10
176.79840532617555
20
-2071.486653881455
30
0
40
3044.71
50
88.55119517199742
51
95.61582226845557
0
ARC
8
0
6
CONTINUOUS
10
-415.76378558954934
20
679.7199977702712
30
0
40
8.66
50
135.6840433326704
51
269.95888458180804
0
ARC
8
0
6
CONTINUOUS
10
-118.65239564564891
20
872.0260154965762
30
0
40
86.62
50
91.65229768015304
51
135.63781061024713
0
ARC
8
0
6
CONTINUOUS
10
750.488420359673
20
210.50257128730567
30
0
40
173.25
50
87.36939650221267
51
157.30745371747489
0
ARC
8
0
6
CONTINUOUS
10
833.072580790837
20
466.90868254823147
30
0
40
383.8
50
317.22459153618195
51
357.0968442165268
0
ARC
8
0
6
CONTINUOUS
10
-170.32996681706118
20
87.76933359811358
30
0
40
1307.28
50
15.971070741548091
51
43.88116664774878
0
ARC
8
0
6
CONTINUOUS
10
774.7418814738852
20
895.4180949183472
30
0
40
115.5
50
46.81161663065916
51
83.38857530241519
0
ARC
8
0
6
CONTINUOUS
10
-159.3514964406388
20
-99.9087208054043
30
0
40
1480.69
50
21.691187606183842
51
46.81595221312119
0
ARC
8
0
6
CONTINUOUS
10
-119.49931534580372
20
822.0816887845076
30
0
40
202.12
50
94.9757465058882
51
123.42632518244275
0
ARC
8
0
6
CONTINUOUS
10
1846.6086352822874
20
-2157.23083935259
30
0
40
3771.8
50
123.42229939622975
51
130.60557096928844
0
ARC
8
0
6
CONTINUOUS
10
-234.1427116022792
20
982.3302603726315
30
0
40
8.66
50
313.51423935092816
51
46.576923365738665
0
ARC
8
0
6
CONTINUOUS
10
-94.97023687698336
20
823.2306715526311
30
0
40
173.25
50
94.48564427379203
51
132.14831251351904
0
ARC
8
0
6
CONTINUOUS
10
260.4749772863612
20
-3546.422745483602
30
0
40
4587.17
50
83.39272257364746
51
94.97149849838263
0
ARC
8
0
6
CONTINUOUS
10
318.82635887956906
20
-4453.677012849013
30
0
40
5466.74
50
84.47978522810581
51
94.48539606522137
0
ARC
8
0
6
CONTINUOUS
10
-358.8900000001511
20
552.3802288186008
30
0
40
173.25
50
136.57639055732113
51
180.00007567295873
0
ARC
8
0
6
CONTINUOUS
10
1733.3531800818841
20
-1196.6239036440695
30
0
40
2897.81
50
132.14543014389446
51
139.00446694847292
0
ARC
8
0
6
CONTINUOUS
10
-513.0892567967941
20
767.4890968144741
30
0
40
86.62
50
266.6174765642056
51
313.1943621545774
0
ARC
8
0
6
CONTINUOUS
10
-529.5381674483177
20
769.2369636623216
30
0
40
57.75
50
246.17061985866837
51
313.56252609238436
0
ARC
8
0
6
CONTINUOUS
10
-506.7284642395679
20
878.6639950045204
30
0
40
198.04
50
240.84777840642906
51
266.6126068299087
0
ARC
8
0
6
CONTINUOUS
10
-667.553982038399
20
-1175.4991811711416
30
0
40
1882.79
50
88.04063306124479
51
103.94756377330468
0
ARC
8
0
6
CONTINUOUS
10
-1074.1217583808357
20
464.02554308376455
30
0
40
173.25
50
100.88230439631185
51
165.00203462105821
0
ARC
8
0
6
CONTINUOUS
10
-1088.275126381009
20
481.34297363878085
30
0
40
173.25
50
100.87780252044098
51
164.99773111963995
0
ARC
8
0
6
CONTINUOUS
10
-1276.8286132896415
20
418.40000128487634
30
0
40
28.87
50
89.9829059524938
51
171.61488185929466
0
ARC
8
0
6
CONTINUOUS
10
-824.3532585470617
20
290.7676584450709
30
0
40
173.25
50
36.19586483908406
51
85.3605850992088
0
ARC
8
0
6
CONTINUOUS
10
-923.0992266114646
20
291.35311035779387
30
0
40
173.25
50
94.0051267314892
51
144.5771035187781
0
ARC
8
0
6
CONTINUOUS
10
-877.5121371991133
20
-364.1161312014784
30
0
40
830.6
50
85.3585517123963
51
94.0005625815328
0
ARC
8
0
6
CONTINUOUS
10
-893.0797018034011
20
240.52965730911666
30
0
40
258.54
50
359.282031605447
51
36.19317675402359
0
ARC
8
0
6
CONTINUOUS
10
-851.7840269916669
20
240.24332056345102
30
0
40
261.32
50
144.5760775762191
51
186.82914663028495
0
ARC
8
0
6
CONTINUOUS
10
801.8883567369013
20
209.34907541552533
30
0
40
209.34
50
138.56280900607365
51
56.32943521305499
0
LINE
8
0
6
CONTINUOUS
10
316.22
20
971.13
30
0
11
294.61
21
670.77
31
0
0
LINE
8
0
6
CONTINUOUS
10
294.61
20
670.77
30
0
11
855.21
21
670.77
31
0
0
LINE
8
0
6
CONTINUOUS
10
855.21
20
670.77
30
0
11
892.21
21
670.77
31
0
0
LINE
8
0
6
CONTINUOUS
10
292.31
20
1012.67
30
0
11
260.81
21
628.47
31
0
0
LINE
8
0
6
CONTINUOUS
10
260.81
20
628.47
30
0
11
260.81
21
209.57
31
0
0
LINE
8
0
6
CONTINUOUS
10
-421.49
20
686.17
30
0
11
-180.39
21
933.37
31
0
0
LINE
8
0
6
CONTINUOUS
10
-415.29
20
671.57
30
0
11
227.71
21
671.57
31
0
0
LINE
8
0
6
CONTINUOUS
10
227.71
20
671.57
30
0
11
253.78
21
972.25
31
0
0
LINE
8
0
6
CONTINUOUS
10
758.44
20
383.57
30
0
11
917.95
21
383.57
31
0
0
LINE
8
0
6
CONTINUOUS
10
562.51
20
209.57
30
0
11
-633.99
21
209.57
31
0
0
LINE
8
0
6
CONTINUOUS
10
936.5
20
369.67
30
0
11
1204.81
21
369.67
31
0
0
LINE
8
0
6
CONTINUOUS
10
1115.71
20
207.26
30
0
11
1011.51
21
209.57
31
0
0
LINE
8
0
6
CONTINUOUS
10
1058.55
20
533.67
30
0
11
1179.41
21
533.67
31
0
0
LINE
8
0
6
CONTINUOUS
10
1018.41
20
633.07
30
0
11
1127.81
21
633.07
31
0
0
LINE
8
0
6
CONTINUOUS
10
980.71
20
709.27
30
0
11
1081.61
21
709.27
31
0
0
LINE
8
0
6
CONTINUOUS
10
-749.49
20
447.47
30
0
11
1216.38
21
447.47
31
0
0
LINE
8
0
6
CONTINUOUS
10
-227.39
20
988.77
30
0
11
-229.69
21
991.07
31
0
0
LINE
8
0
6
CONTINUOUS
10
-532.29
20
552.17
30
0
11
-532.29
21
209.57
31
0
0
LINE
8
0
6
CONTINUOUS
10
-451.49
20
706.17
30
0
11
-484.72
21
671.47
31
0
0
LINE
8
0
6
CONTINUOUS
10
-552.39
20
716.17
30
0
11
-580.79
21
729.27
31
0
0
LINE
8
0
6
CONTINUOUS
10
-1106.79
20
634.57
30
0
11
-600.09
21
690.77
31
0
0
LINE
8
0
6
CONTINUOUS
10
-1246.89
20
487.47
30
0
11
-1241.49
21
509.07
31
0
0
LINE
8
0
6
CONTINUOUS
10
-1241.49
20
509.07
30
0
11
-1256.89
21
447.47
31
0
0
LINE
8
0
6
CONTINUOUS
10
-998.99
20
447.47
30
0
11
-1276.19
21
447.47
31
0
0
LINE
8
0
6
CONTINUOUS
10
-1276.19
20
447.47
30
0
11
-1255.39
21
526.77
31
0
0
LINE
8
0
6
CONTINUOUS
10
-1110.59
20
209.57
30
0
11
-1168.39
21
209.57
31
0
0
LINE
8
0
6
CONTINUOUS
10
-1168.39
20
209.57
30
0
11
-1290.79
21
331.97
31
0
0
LINE
8
0
6
CONTINUOUS
10
-1290.79
20
331.97
30
0
11
-1293.89
21
375.07
31
0
0
LINE
8
0
6
CONTINUOUS
10
-1293.89
20
375.07
30
0
11
-1290.79
21
375.07
31
0
0
LINE
8
0
6
CONTINUOUS
10
-1305.39
20
422.61
30
0
11
-1305.39
21
375.07
31
0
0
LINE
8
0
6
CONTINUOUS
10
-1305.39
20
375.07
30
0
11
-1075.19
21
375.07
31
0
0
LINE
8
0
6
CONTINUOUS
10
-633.99
20
244.17
30
0
11
-633.99
21
114.87
31
0
0
LINE
8
0
6
CONTINUOUS
10
-633.99
20
114.87
30
0
11
522.51
21
114.87
31
0
0
LINE
8
0
6
CONTINUOUS
10
522.51
20
114.87
30
0
11
591.11
21
277.27
31
0
0
LINE
8
0
6
CONTINUOUS
10
-659.39
20
369.67
30
0
11
682.07
21
369.67
31
0
0
ENDSEC
0
EOF