0
SECTION
2
HEADER
0
ENDSEC
0
SECTION
2
TABLES
0
TABLE
2
LTYPE
70
2
0
LTYPE
2
CONTINUOUS
70
0
3
Solid line
72
65
73
0
40
0.0
0
ENDTAB
0
TABLE
2
LAYER
70
1
0
LAYER
2
0
70
0
62
7
6
CONTINUOUS
0
ENDTAB
0
ENDSEC
0
SECTION
2
ENTITIES
0
ARC
8
0
6
CONTINUOUS
10
2809.04
20
21747.88
30
0
40
2.5
50
0.0
51
180.0
0
LINE
8
0
6
CONTINUOUS
10
2811.54
20
21747.88
30
0
11
2811.54
21
21771.78
31
0
0
ARC
8
0
6
CONTINUOUS
10
2809.04
20
21771.78
30
0
40
2.5
50
0.0
51
180.0
0
LINE
8
0
6
CONTINUOUS
10
2806.54
20
21771.78
30
0
11
2806.54
21
21747.88
31
0
0
ENDSEC
0
EOF