0
SECTION
2
HEADER
0
ENDSEC
0
SECTION
2
TABLES
0
TABLE
2
LTYPE
70
2
0
LTYPE
2
CONTINUOUS
70
0
3
Solid line
72
65
73
0
40
0.0
0
ENDTAB
0
TABLE
2
LAYER
70
1
0
LAYER
2
0
70
0
62
7
6
CONTINUOUS
0
ENDTAB
0
ENDSEC
0
SECTION
2
ENTITIES
0
LINE
8
0
6
CONTINUOUS
10
5396.52
20
11595.58
30
0
11
5396.52
21
12022.42
31
0
0
LINE
8
0
6
CONTINUOUS
10
5396.52
20
12022.42
30
0
11
5356.52
21
11982.42
31
0
0
LINE
8
0
6
CONTINUOUS
10
5356.52
20
11982.42
30
0
11
5356.52
21
11595.58
31
0
0
LINE
8
0
6
CONTINUOUS
10
5356.52
20
11595.58
30
0
11
5396.52
21
11595.58
31
0
0
ENDSEC
0
EOF