0
SECTION
2
HEADER
0
ENDSEC
0
SECTION
2
TABLES
0
TABLE
2
LTYPE
70
2
0
LTYPE
2
CONTINUOUS
70
0
3
Solid line
72
65
73
0
40
0.0
0
ENDTAB
0
TABLE
2
LAYER
70
1
0
LAYER
2
0
70
0
62
7
6
CONTINUOUS
0
ENDTAB
0
ENDSEC
0
SECTION
2
ENTITIES
0
LINE
8
0
6
CONTINUOUS
10
14181.83
20
1239.26
30
0
11
14181.83
21
1241.26
31
0
0
LINE
8
0
6
CONTINUOUS
10
14181.83
20
1241.26
30
0
11
13854.01
21
1241.26
31
0
0
LINE
8
0
6
CONTINUOUS
10
13854.01
20
1241.26
30
0
11
13774.01
21
1161.26
31
0
0
LINE
8
0
6
CONTINUOUS
10
13774.01
20
1161.26
30
0
11
13732.83
21
1161.26
31
0
0
LINE
8
0
6
CONTINUOUS
10
13732.83
20
1161.26
30
0
11
13732.83
21
1243.3
31
0
0
LINE
8
0
6
CONTINUOUS
10
13732.83
20
1243.3
30
0
11
13626.86
21
1243.3
31
0
0
LINE
8
0
6
CONTINUOUS
10
13626.86
20
1243.3
30
0
11
13626.86
21
1241.3
31
0
0
LINE
8
0
6
CONTINUOUS
10
13626.86
20
1241.3
30
0
11
13730.83
21
1241.3
31
0
0
LINE
8
0
6
CONTINUOUS
10
13730.83
20
1241.3
30
0
11
13730.83
21
1159.26
31
0
0
LINE
8
0
6
CONTINUOUS
10
13730.83
20
1159.26
30
0
11
13774.83
21
1159.26
31
0
0
LINE
8
0
6
CONTINUOUS
10
13774.83
20
1159.26
30
0
11
13854.83
21
1239.26
31
0
0
LINE
8
0
6
CONTINUOUS
10
13854.83
20
1239.26
30
0
11
14181.83
21
1239.26
31
0
0
ENDSEC
0
EOF