0
SECTION
2
HEADER
0
ENDSEC
0
SECTION
2
TABLES
0
TABLE
2
LTYPE
70
2
0
LTYPE
2
CONTINUOUS
70
0
3
Solid line
72
65
73
0
40
0.0
0
ENDTAB
0
TABLE
2
LAYER
70
1
0
LAYER
2
0
70
0
62
7
6
CONTINUOUS
0
ENDTAB
0
ENDSEC
0
SECTION
2
ENTITIES
0
LINE
8
0
6
CONTINUOUS
10
9008.7
20
5852.24
30
0
11
8836.48
21
5736.07
31
0
0
LINE
8
0
6
CONTINUOUS
10
8836.48
20
5736.07
30
0
11
8842.07
21
5727.78
31
0
0
LINE
8
0
6
CONTINUOUS
10
8842.07
20
5727.78
30
0
11
9012.84
21
5842.96
31
0
0
LINE
8
0
6
CONTINUOUS
10
9012.84
20
5842.96
30
0
11
9024.12
21
5831.28
31
0
0
LINE
8
0
6
CONTINUOUS
10
9024.12
20
5831.28
30
0
11
9051.87
21
5849.99
31
0
0
LINE
8
0
6
CONTINUOUS
10
9051.87
20
5849.99
30
0
11
9035.65
21
5874.03
31
0
0
LINE
8
0
6
CONTINUOUS
10
9035.65
20
5874.03
30
0
11
9029.02
21
5869.56
31
0
0
LINE
8
0
6
CONTINUOUS
10
9029.02
20
5869.56
30
0
11
9034.39
21
5857.5
31
0
0
LINE
8
0
6
CONTINUOUS
10
9034.39
20
5857.5
30
0
11
9023.27
21
5850.0
31
0
0
LINE
8
0
6
CONTINUOUS
10
9023.27
20
5850.0
30
0
11
9014.1
21
5859.49
31
0
0
LINE
8
0
6
CONTINUOUS
10
9014.1
20
5859.49
30
0
11
9007.46
21
5855.02
31
0
0
LINE
8
0
6
CONTINUOUS
10
9007.46
20
5855.02
30
0
11
9008.7
21
5852.24
31
0
0
ENDSEC
0
EOF