0
SECTION
2
HEADER
0
ENDSEC
0
SECTION
2
TABLES
0
TABLE
2
LTYPE
70
2
0
LTYPE
2
CONTINUOUS
70
0
3
Solid line
72
65
73
0
40
0.0
0
ENDTAB
0
TABLE
2
LAYER
70
1
0
LAYER
2
0
70
0
62
7
6
CONTINUOUS
0
ENDTAB
0
ENDSEC
0
SECTION
2
ENTITIES
0
LINE
8
0
6
CONTINUOUS
10
33417.08
20
2569.13
30
0
11
33414.08
21
2529.13
31
0
0
LINE
8
0
6
CONTINUOUS
10
33414.08
20
2529.13
30
0
11
33423.08
21
2529.13
31
0
0
LINE
8
0
6
CONTINUOUS
10
33423.08
20
2529.13
30
0
11
33423.08
21
2569.13
31
0
0
LINE
8
0
6
CONTINUOUS
10
33423.08
20
2569.13
30
0
11
33417.08
21
2569.13
31
0
0
ENDSEC
0
EOF