0
SECTION
2
HEADER
0
ENDSEC
0
SECTION
2
TABLES
0
TABLE
2
LTYPE
70
2
0
LTYPE
2
CONTINUOUS
70
0
3
Solid line
72
65
73
0
40
0.0
0
ENDTAB
0
TABLE
2
LAYER
70
1
0
LAYER
2
0
70
0
62
7
6
CONTINUOUS
0
ENDTAB
0
ENDSEC
0
SECTION
2
ENTITIES
0
ARC
8
0
6
CONTINUOUS
10
9525.4
20
6659.51
30
0
40
3.0
50
270.0
51
0.0
0
LINE
8
0
6
CONTINUOUS
10
9528.4
20
6659.51
30
0
11
9528.4
21
6682.51
31
0
0
ARC
8
0
6
CONTINUOUS
10
9525.4
20
6682.51
30
0
40
3.0
50
0.0
51
90.0
0
LINE
8
0
6
CONTINUOUS
10
9525.4
20
6685.51
30
0
11
9510.4
21
6685.51
31
0
0
LINE
8
0
6
CONTINUOUS
10
9510.4
20
6685.51
30
0
11
9509.4
21
6681.51
31
0
0
LINE
8
0
6
CONTINUOUS
10
9509.4
20
6681.51
30
0
11
9506.4
21
6681.51
31
0
0
LINE
8
0
6
CONTINUOUS
10
9506.4
20
6681.51
30
0
11
9506.4
21
6663.51
31
0
0
LINE
8
0
6
CONTINUOUS
10
9506.4
20
6663.51
30
0
11
9509.4
21
6663.51
31
0
0
LINE
8
0
6
CONTINUOUS
10
9509.4
20
6663.51
30
0
11
9509.4
21
6656.51
31
0
0
LINE
8
0
6
CONTINUOUS
10
9509.4
20
6656.51
30
0
11
9525.4
21
6656.51
31
0
0
ENDSEC
0
EOF