0
SECTION
2
HEADER
0
ENDSEC
0
SECTION
2
TABLES
0
TABLE
2
LTYPE
70
2
0
LTYPE
2
CONTINUOUS
70
0
3
Solid line
72
65
73
0
40
0.0
0
ENDTAB
0
TABLE
2
LAYER
70
1
0
LAYER
2
0
70
0
62
7
6
CONTINUOUS
0
ENDTAB
0
ENDSEC
0
SECTION
2
ENTITIES
0
LINE
8
0
6
CONTINUOUS
10
1734.73
20
1696.82
30
0
11
1734.74
21
1684.82
31
0
0
LINE
8
0
6
CONTINUOUS
10
1734.74
20
1684.82
30
0
11
2286.74
21
1684.88
31
0
0
LINE
8
0
6
CONTINUOUS
10
2286.74
20
1684.88
30
0
11
2286.74
21
1696.88
31
0
0
LINE
8
0
6
CONTINUOUS
10
2286.74
20
1696.88
30
0
11
1734.73
21
1696.82
31
0
0
ENDSEC
0
EOF