0
SECTION
2
HEADER
0
ENDSEC
0
SECTION
2
TABLES
0
TABLE
2
LTYPE
70
2
0
LTYPE
2
CONTINUOUS
70
0
3
Solid line
72
65
73
0
40
0.0
0
ENDTAB
0
TABLE
2
LAYER
70
1
0
LAYER
2
0
70
0
62
7
6
CONTINUOUS
0
ENDTAB
0
ENDSEC
0
SECTION
2
ENTITIES
0
LINE
8
0
6
CONTINUOUS
10
7924.86
20
-9303.41
30
0
11
7954.91
21
-9263.45
31
0
0
LINE
8
0
6
CONTINUOUS
10
7954.91
20
-9263.45
30
0
11
7937.33
21
-9250.23
31
0
0
LINE
8
0
6
CONTINUOUS
10
7937.33
20
-9250.23
30
0
11
7907.27
21
-9290.19
31
0
0
LINE
8
0
6
CONTINUOUS
10
7907.27
20
-9290.19
30
0
11
7924.86
21
-9303.41
31
0
0
ENDSEC
0
EOF