0
SECTION
2
HEADER
0
ENDSEC
0
SECTION
2
TABLES
0
TABLE
2
LTYPE
70
2
0
LTYPE
2
CONTINUOUS
70
0
3
Solid line
72
65
73
0
40
0.0
0
ENDTAB
0
TABLE
2
LAYER
70
1
0
LAYER
2
0
70
0
62
7
6
CONTINUOUS
0
ENDTAB
0
ENDSEC
0
SECTION
2
ENTITIES
0
LINE
8
0
6
CONTINUOUS
10
8674.74
20
21844.66
30
0
11
8670.7
21
21844.19
31
0
0
LINE
8
0
6
CONTINUOUS
10
8670.7
20
21844.19
30
0
11
8669.89
21
21843.87
31
0
0
ARC
8
0
6
CONTINUOUS
10
8669.39281542734
20
21842.56125728246
30
0
40
1.4
50
3.6342816574120644
51
69.19847538257375
0
ARC
8
0
6
CONTINUOUS
10
8669.560416734872
20
21842.617984470748
30
0
40
1.23
50
317.68872059374604
51
1.4915137385355206
0
ARC
8
0
6
CONTINUOUS
10
8672.712808511194
20
21838.562817020662
30
0
40
3.93
50
124.79829896407614
51
138.04903228623456
0
LINE
8
0
6
CONTINUOUS
10
8669.79
20
21841.19
30
0
11
8669.79
21
21835.14
31
0
0
ARC
8
0
6
CONTINUOUS
10
8668.99002244189
20
21835.14599220486
30
0
40
0.8
50
275.7375551003142
51
359.57083592637355
0
LINE
8
0
6
CONTINUOUS
10
8669.07
20
21834.35
30
0
11
8666.87
21
21834.12
31
0
0
ARC
8
0
6
CONTINUOUS
10
8666.776765384964
20
21834.5704523355
30
0
40
0.46
50
166.22279372189195
51
281.6939529261705
0
LINE
8
0
6
CONTINUOUS
10
8666.33
20
21834.68
30
0
11
8666.54
21
21835.47
31
0
0
ARC
8
0
6
CONTINUOUS
10
8666.05015036574
20
21835.457861803436
30
0
40
0.49
50
1.4194664937417336
51
149.03143295633402
0
LINE
8
0
6
CONTINUOUS
10
8665.63
20
21835.71
30
0
11
8664.49
21
21833.75
31
0
0
LINE
8
0
6
CONTINUOUS
10
8664.49
20
21833.75
30
0
11
8664.49
21
21832.13
31
0
0
LINE
8
0
6
CONTINUOUS
10
8664.49
20
21832.13
30
0
11
8665.63
21
21830.16
31
0
0
ARC
8
0
6
CONTINUOUS
10
8666.050005775074
20
21830.412378978726
30
0
40
0.49
50
211.0014080850835
51
359.72182453862524
0
LINE
8
0
6
CONTINUOUS
10
8666.54
20
21830.41
30
0
11
8666.33
21
21831.19
31
0
0
ARC
8
0
6
CONTINUOUS
10
8666.774039491282
20
21831.310120481943
30
0
40
0.46
50
77.95910449795637
51
195.13721089996505
0
LINE
8
0
6
CONTINUOUS
10
8666.87
20
21831.76
30
0
11
8669.07
21
21831.53
31
0
0
ARC
8
0
6
CONTINUOUS
10
8668.99001004532
20
21830.73400904078
30
0
40
0.8
50
359.7128724023339
51
84.26155258976576
0
LINE
8
0
6
CONTINUOUS
10
8669.79
20
21830.73
30
0
11
8669.79
21
21802.79
31
0
0
ARC
8
0
6
CONTINUOUS
10
8668.99002244189
20
21802.79599220486
30
0
40
0.8
50
275.7375551003142
51
359.57083592637355
0
LINE
8
0
6
CONTINUOUS
10
8669.07
20
21802.0
30
0
11
8666.87
21
21801.76
31
0
0
ARC
8
0
6
CONTINUOUS
10
8666.77403949128
20
21802.209879518054
30
0
40
0.46
50
164.86278909953836
51
282.04089550226524
0
LINE
8
0
6
CONTINUOUS
10
8666.33
20
21802.33
30
0
11
8666.54
21
21803.11
31
0
0
ARC
8
0
6
CONTINUOUS
10
8666.050005775074
20
21803.107621021274
30
0
40
0.49
50
0.2781754613747502
51
148.9985919149165
0
LINE
8
0
6
CONTINUOUS
10
8665.63
20
21803.36
30
0
11
8664.49
21
21801.4
31
0
0
LINE
8
0
6
CONTINUOUS
10
8664.49
20
21801.4
30
0
11
8664.49
21
21799.77
31
0
0
LINE
8
0
6
CONTINUOUS
10
8664.49
20
21799.77
30
0
11
8665.63
21
21797.81
31
0
0
ARC
8
0
6
CONTINUOUS
10
8666.05015036574
20
21798.062138196565
30
0
40
0.49
50
210.96856704366598
51
358.5805335062583
0
LINE
8
0
6
CONTINUOUS
10
8666.54
20
21798.05
30
0
11
8666.33
21
21798.84
31
0
0
ARC
8
0
6
CONTINUOUS
10
8666.776765384964
20
21798.949547664502
30
0
40
0.46
50
78.30604707373764
51
193.77720627854816
0
LINE
8
0
6
CONTINUOUS
10
8666.87
20
21799.4
30
0
11
8669.07
21
21799.17
31
0
0
ARC
8
0
6
CONTINUOUS
10
8668.99002244189
20
21798.37400779514
30
0
40
0.8
50
0.42916407362644665
51
84.26244489965976
0
LINE
8
0
6
CONTINUOUS
10
8669.79
20
21798.38
30
0
11
8669.79
21
21792.53
31
0
0
ARC
8
0
6
CONTINUOUS
10
8672.73649001662
20
21795.130595428353
30
0
40
3.93
50
221.43187875216503
51
234.78017543890041
0
ARC
8
0
6
CONTINUOUS
10
8669.570278059022
20
21791.09604585751
30
0
40
1.22
50
358.77669582422044
51
42.48306406831034
0
ARC
8
0
6
CONTINUOUS
10
8669.392203093907
20
21791.148509931292
30
0
40
1.4
50
290.8283345019903
51
356.78525088660996
0
LINE
8
0
6
CONTINUOUS
10
8669.89
20
21789.84
30
0
11
8670.7
21
21789.53
31
0
0
LINE
8
0
6
CONTINUOUS
10
8670.7
20
21789.53
30
0
11
8674.74
21
21789.06
31
0
0
ARC
8
0
6
CONTINUOUS
10
8674.793213948598
20
21789.355242740257
30
0
40
0.3
50
259.78282071894296
51
51.492273250427246
0
LINE
8
0
6
CONTINUOUS
10
8674.98
20
21789.59
30
0
11
8672.94
21
21791.24
31
0
0
ARC
8
0
6
CONTINUOUS
10
8673.187048450565
20
21791.554590309886
30
0
40
0.4
50
105.52275891885854
51
231.85737613300876
0
LINE
8
0
6
CONTINUOUS
10
8673.08
20
21791.94
30
0
11
8674.27
21
21792.28
31
0
0
ARC
8
0
6
CONTINUOUS
10
8674.03983701427
20
21792.655
30
0
40
0.44
50
301.54026906747276
51
58.45973093252722
0
LINE
8
0
6
CONTINUOUS
10
8674.27
20
21793.03
30
0
11
8673.08
21
21793.37
31
0
0
ARC
8
0
6
CONTINUOUS
10
8673.312969955145
20
21793.754999999997
30
0
40
0.45
50
121.17883553854548
51
238.82116446121472
0
LINE
8
0
6
CONTINUOUS
10
8673.08
20
21794.14
30
0
11
8674.28
21
21794.48
31
0
0
ARC
8
0
6
CONTINUOUS
10
8674.044911781399
20
21794.851932157086
30
0
40
0.44
50
302.29586906176826
51
59.231927860005335
0
LINE
8
0
6
CONTINUOUS
10
8674.27
20
21795.23
30
0
11
8673.08
21
21795.57
31
0
0
ARC
8
0
6
CONTINUOUS
10
8673.312969955145
20
21795.955
30
0
40
0.45
50
121.1788355387853
51
238.82116446145452
0
LINE
8
0
6
CONTINUOUS
10
8673.08
20
21796.34
30
0
11
8674.27
21
21796.68
31
0
0
ARC
8
0
6
CONTINUOUS
10
8674.03983701427
20
21797.055
30
0
40
0.44
50
301.54026906747276
51
58.45973093252722
0
LINE
8
0
6
CONTINUOUS
10
8674.27
20
21797.43
30
0
11
8673.08
21
21797.77
31
0
0
ARC
8
0
6
CONTINUOUS
10
8673.312969955145
20
21798.155
30
0
40
0.45
50
121.17883553854548
51
238.82116446121472
0
LINE
8
0
6
CONTINUOUS
10
8673.08
20
21798.54
30
0
11
8674.27
21
21798.88
31
0
0
ARC
8
0
6
CONTINUOUS
10
8674.03983701427
20
21799.255
30
0
40
0.44
50
301.54026906747276
51
58.45973093252722
0
LINE
8
0
6
CONTINUOUS
10
8674.27
20
21799.63
30
0
11
8673.08
21
21799.97
31
0
0
ARC
8
0
6
CONTINUOUS
10
8673.312969955145
20
21800.355000000003
30
0
40
0.45
50
121.1788355387853
51
238.82116446145452
0
LINE
8
0
6
CONTINUOUS
10
8673.08
20
21800.74
30
0
11
8674.06
21
21801.02
31
0
0
ARC
8
0
6
CONTINUOUS
10
8673.810006291129
20
21801.85330855361
30
0
40
0.87
50
286.69931632076293
51
359.78210733883225
0
LINE
8
0
6
CONTINUOUS
10
8674.68
20
21801.85
30
0
11
8673.79
21
21801.85
31
0
0
ARC
8
0
6
CONTINUOUS
10
8673.79
20
21803.85
30
0
40
2.0
50
180.0
51
270.0
0
LINE
8
0
6
CONTINUOUS
10
8671.79
20
21803.85
30
0
11
8671.79
21
21816.01
31
0
0
LINE
8
0
6
CONTINUOUS
10
8671.79
20
21816.01
30
0
11
8671.13
21
21816.68
31
0
0
LINE
8
0
6
CONTINUOUS
10
8671.13
20
21816.68
30
0
11
8671.79
21
21817.34
31
0
0
LINE
8
0
6
CONTINUOUS
10
8671.79
20
21817.34
30
0
11
8671.79
21
21829.86
31
0
0
ARC
8
0
6
CONTINUOUS
10
8673.79
20
21829.86
30
0
40
2.0
50
90.0
51
180.0
0
LINE
8
0
6
CONTINUOUS
10
8673.79
20
21831.86
30
0
11
8674.68
21
21831.86
31
0
0
ARC
8
0
6
CONTINUOUS
10
8673.810006291129
20
21831.856691446388
30
0
40
0.87
50
0.21789266116772968
51
73.30068367923708
0
LINE
8
0
6
CONTINUOUS
10
8674.06
20
21832.69
30
0
11
8673.08
21
21832.98
31
0
0
ARC
8
0
6
CONTINUOUS
10
8673.312969955145
20
21833.364999999998
30
0
40
0.45
50
121.17883553854548
51
238.82116446121472
0
LINE
8
0
6
CONTINUOUS
10
8673.08
20
21833.75
30
0
11
8674.27
21
21834.09
31
0
0
ARC
8
0
6
CONTINUOUS
10
8674.03983701427
20
21834.465
30
0
40
0.44
50
301.54026906747276
51
58.45973093252722
0
LINE
8
0
6
CONTINUOUS
10
8674.27
20
21834.84
30
0
11
8673.08
21
21835.18
31
0
0
ARC
8
0
6
CONTINUOUS
10
8673.312969955145
20
21835.565000000002
30
0
40
0.45
50
121.1788355387853
51
238.82116446145452
0
LINE
8
0
6
CONTINUOUS
10
8673.08
20
21835.95
30
0
11
8674.27
21
21836.29
31
0
0
ARC
8
0
6
CONTINUOUS
10
8674.03983701427
20
21836.665
30
0
40
0.44
50
301.54026906747276
51
58.45973093252722
0
LINE
8
0
6
CONTINUOUS
10
8674.27
20
21837.04
30
0
11
8673.08
21
21837.38
31
0
0
ARC
8
0
6
CONTINUOUS
10
8673.312969955145
20
21837.765
30
0
40
0.45
50
121.17883553854548
51
238.82116446121472
0
LINE
8
0
6
CONTINUOUS
10
8673.08
20
21838.15
30
0
11
8674.27
21
21838.49
31
0
0
ARC
8
0
6
CONTINUOUS
10
8674.044911781399
20
21838.868067842915
30
0
40
0.44
50
300.7680721399947
51
57.70413093823177
0
LINE
8
0
6
CONTINUOUS
10
8674.28
20
21839.24
30
0
11
8673.08
21
21839.58
31
0
0
ARC
8
0
6
CONTINUOUS
10
8673.312969955146
20
21839.965
30
0
40
0.45
50
121.17883553898344
51
238.82116446101656
0
LINE
8
0
6
CONTINUOUS
10
8673.08
20
21840.35
30
0
11
8674.27
21
21840.69
31
0
0
ARC
8
0
6
CONTINUOUS
10
8674.03983701427
20
21841.065
30
0
40
0.44
50
301.54026906747276
51
58.45973093252722
0
LINE
8
0
6
CONTINUOUS
10
8674.27
20
21841.44
30
0
11
8673.08
21
21841.78
31
0
0
ARC
8
0
6
CONTINUOUS
10
8673.196141325068
20
21842.162767805086
30
0
40
0.4
50
129.81817018249563
51
253.12089048311492
0
LINE
8
0
6
CONTINUOUS
10
8672.94
20
21842.47
30
0
11
8674.98
21
21844.13
31
0
0
ARC
8
0
6
CONTINUOUS
10
8674.793213948598
20
21844.364757259744
30
0
40
0.3
50
308.5077267495727
51
100.21717928105703
0
ENDSEC
0
EOF