0
SECTION
2
HEADER
0
ENDSEC
0
SECTION
2
TABLES
0
TABLE
2
LTYPE
70
2
0
LTYPE
2
CONTINUOUS
70
0
3
Solid line
72
65
73
0
40
0.0
0
ENDTAB
0
TABLE
2
LAYER
70
1
0
LAYER
2
0
70
0
62
7
6
CONTINUOUS
0
ENDTAB
0
ENDSEC
0
SECTION
2
ENTITIES
0
LINE
8
0
6
CONTINUOUS
10
7613.07
20
13302.62
30
0
11
7848.07
21
13302.62
31
0
0
LINE
8
0
6
CONTINUOUS
10
7848.07
20
13302.62
30
0
11
7848.07
21
13484.62
31
0
0
LINE
8
0
6
CONTINUOUS
10
7848.07
20
13484.62
30
0
11
7846.07
21
13484.62
31
0
0
LINE
8
0
6
CONTINUOUS
10
7846.07
20
13484.62
30
0
11
7846.07
21
13304.62
31
0
0
LINE
8
0
6
CONTINUOUS
10
7846.07
20
13304.62
30
0
11
7615.07
21
13304.62
31
0
0
LINE
8
0
6
CONTINUOUS
10
7615.07
20
13304.62
30
0
11
7615.07
21
13486.15
31
0
0
LINE
8
0
6
CONTINUOUS
10
7615.07
20
13486.15
30
0
11
7492.24
21
13487.89
31
0
0
LINE
8
0
6
CONTINUOUS
10
7492.24
20
13487.89
30
0
11
7490.52
21
13462.07
31
0
0
LINE
8
0
6
CONTINUOUS
10
7490.52
20
13462.07
30
0
11
7503.07
21
13463.72
31
0
0
LINE
8
0
6
CONTINUOUS
10
7503.07
20
13463.72
30
0
11
7502.81
21
13465.7
31
0
0
LINE
8
0
6
CONTINUOUS
10
7502.81
20
13465.7
30
0
11
7492.68
21
13464.37
31
0
0
LINE
8
0
6
CONTINUOUS
10
7492.68
20
13464.37
30
0
11
7494.11
21
13485.86
31
0
0
LINE
8
0
6
CONTINUOUS
10
7494.11
20
13485.86
30
0
11
7613.07
21
13484.18
31
0
0
LINE
8
0
6
CONTINUOUS
10
7613.07
20
13484.18
30
0
11
7613.07
21
13302.62
31
0
0
ENDSEC
0
EOF