0
SECTION
2
HEADER
0
ENDSEC
0
SECTION
2
TABLES
0
TABLE
2
LTYPE
70
2
0
LTYPE
2
CONTINUOUS
70
0
3
Solid line
72
65
73
0
40
0.0
0
ENDTAB
0
TABLE
2
LAYER
70
1
0
LAYER
2
0
70
0
62
7
6
CONTINUOUS
0
ENDTAB
0
ENDSEC
0
SECTION
2
ENTITIES
0
ARC
8
0
6
CONTINUOUS
10
1859.7
20
1358.32
30
0
40
3.0
50
90.0
51
180.0
0
LINE
8
0
6
CONTINUOUS
10
1856.7
20
1358.32
30
0
11
1856.7
21
1352.7
31
0
0
ARC
8
0
6
CONTINUOUS
10
1876.6999976832194
20
1352.709626589041
30
0
40
20.0
50
180.0275781472223
51
193.59052221200318
0
LINE
8
0
6
CONTINUOUS
10
1857.26
20
1348.01
30
0
11
1859.52
21
1338.62
31
0
0
ARC
8
0
6
CONTINUOUS
10
1862.4371907447826
20
1339.3199986846803
30
0
40
3.0
50
193.4933729877027
51
270.05365283035326
0
LINE
8
0
6
CONTINUOUS
10
1862.44
20
1336.32
30
0
11
1865.09
21
1336.32
31
0
0
ARC
8
0
6
CONTINUOUS
10
1865.0928092552174
20
1339.3199986846803
30
0
40
3.0
50
269.94634716964674
51
346.5066270122973
0
LINE
8
0
6
CONTINUOUS
10
1868.01
20
1338.62
30
0
11
1870.28
21
1348.03
31
0
0
ARC
8
0
6
CONTINUOUS
10
1873.194773827252
20
1347.3200045521503
30
0
40
3.0
50
89.90018740235877
51
166.3102020270861
0
LINE
8
0
6
CONTINUOUS
10
1873.2
20
1350.32
30
0
11
1879.34
21
1350.32
31
0
0
ARC
8
0
6
CONTINUOUS
10
1879.335226356461
20
1347.3200037979477
30
0
40
3.0
50
13.689812798294055
51
89.90883008563176
0
LINE
8
0
6
CONTINUOUS
10
1882.25
20
1348.03
30
0
11
1884.52
21
1338.62
31
0
0
ARC
8
0
6
CONTINUOUS
10
1887.4371907447826
20
1339.3199986846803
30
0
40
3.0
50
193.4933729877027
51
270.05365283035326
0
LINE
8
0
6
CONTINUOUS
10
1887.44
20
1336.32
30
0
11
1890.45
21
1336.32
31
0
0
ARC
8
0
6
CONTINUOUS
10
1890.450214595931
20
1339.3199999923247
30
0
40
3.0
50
269.9959015196169
51
320.94987765260555
0
LINE
8
0
6
CONTINUOUS
10
1892.78
20
1337.43
30
0
11
1895.12
21
1340.32
31
0
0
ARC
8
0
6
CONTINUOUS
10
1967.2782057029938
20
1278.5284686245402
30
0
40
95.0
50
38.79548788196241
51
139.42542908969335
0
ARC
8
0
6
CONTINUOUS
10
2080.8259767214813
20
1371.7700445326182
30
0
40
51.94
50
220.48217757471136
51
325.71268261713465
0
LINE
8
0
6
CONTINUOUS
10
2123.74
20
1342.51
30
0
11
2123.74
21
1352.78
31
0
0
LINE
8
0
6
CONTINUOUS
10
2123.74
20
1352.78
30
0
11
2114.62
21
1352.78
31
0
0
ARC
8
0
6
CONTINUOUS
10
2114.612576563673
20
1349.7800091845818
30
0
40
3.0
50
89.8582226649761
51
155.16560579712592
0
ARC
8
0
6
CONTINUOUS
10
2081.462582834254
20
1365.3395344197527
30
0
40
33.62
50
284.4289687260585
51
334.82856019929693
0
ARC
8
0
6
CONTINUOUS
10
2089.2157402448433
20
1335.6734235358986
30
0
40
2.96
50
191.96052222531475
51
282.17501569199726
0
LINE
8
0
6
CONTINUOUS
10
2086.32
20
1335.06
30
0
11
2084.01
21
1344.49
31
0
0
ARC
8
0
6
CONTINUOUS
10
2081.0952261727484
20
1343.7800045521503
30
0
40
3.0
50
13.689797972914947
51
90.09981259764558
0
LINE
8
0
6
CONTINUOUS
10
2081.09
20
1346.78
30
0
11
2078.3
21
1346.78
31
0
0
ARC
8
0
6
CONTINUOUS
10
2078.3
20
1343.78
30
0
40
3.0
50
90.0
51
180.0
0
LINE
8
0
6
CONTINUOUS
10
2075.3
20
1343.78
30
0
11
2073.04
21
1334.76
31
0
0
ARC
8
0
6
CONTINUOUS
10
2070.1242938021146
20
1335.466156758527
30
0
40
3.0
50
256.42225279770537
51
346.385647158302
0
ARC
8
0
6
CONTINUOUS
10
2075.8649699941866
20
1361.2758761706937
30
0
40
29.44
50
237.0909266845249
51
257.3544620965158
0
LINE
8
0
6
CONTINUOUS
10
2059.87
20
1336.56
30
0
11
2058.64
21
1337.4
31
0
0
ARC
8
0
6
CONTINUOUS
10
2079.7320377389174
20
1369.9782449499676
30
0
40
38.81
50
219.58049753714823
51
237.07988729417684
0
LINE
8
0
6
CONTINUOUS
10
2049.82
20
1345.25
30
0
11
2047.7
21
1347.8
31
0
0
ARC
8
0
6
CONTINUOUS
10
1984.041791097904
20
1295.118415557454
30
0
40
82.63
50
39.61011601249825
51
52.45081876011762
0
LINE
8
0
6
CONTINUOUS
10
2034.4
20
1360.63
30
0
11
2028.41
21
1365.25
31
0
0
ARC
8
0
6
CONTINUOUS
10
1987.2250050741152
20
1311.6192197245384
30
0
40
67.62
50
52.4780519919504
51
66.20253557730973
0
LINE
8
0
6
CONTINUOUS
10
2014.51
20
1373.49
30
0
11
2009.32
21
1375.79
31
0
0
ARC
8
0
6
CONTINUOUS
10
2011.3403000506185
20
1380.3636623952223
30
0
40
5.0
50
193.5758538593974
51
246.16776405689257
0
LINE
8
0
6
CONTINUOUS
10
2006.48
20
1379.19
30
0
11
2004.95
21
1385.55
31
0
0
ARC
8
0
6
CONTINUOUS
10
2002.0328092552174
20
1384.8500013153193
30
0
40
3.0
50
13.493372987706929
51
90.05365283035324
0
LINE
8
0
6
CONTINUOUS
10
2002.03
20
1387.85
30
0
11
1996.75
21
1387.85
31
0
0
ARC
8
0
6
CONTINUOUS
10
1996.757192498062
20
1384.850008622017
30
0
40
3.0
50
90.13736672596845
51
166.50677052118525
0
LINE
8
0
6
CONTINUOUS
10
1993.84
20
1385.55
30
0
11
1993.53
21
1384.3
31
0
0
ARC
8
0
6
CONTINUOUS
10
1990.6142938021146
20
1385.006156758527
30
0
40
3.0
50
256.42225279770537
51
346.385647158302
0
ARC
8
0
6
CONTINUOUS
10
1967.297319580136
20
1278.4686205253515
30
0
40
106.06
50
77.68967269525366
51
91.07365348445046
0
ARC
8
0
6
CONTINUOUS
10
1967.2506366858104
20
1278.5277659734722
30
0
40
106.0
50
91.04902362304934
51
104.41646816354202
0
ARC
8
0
6
CONTINUOUS
10
1940.0976165095713
20
1384.0087180443463
30
0
40
2.92
50
193.64246043962623
51
285.1347627466457
0
LINE
8
0
6
CONTINUOUS
10
1937.26
20
1383.32
30
0
11
1936.72
21
1385.55
31
0
0
ARC
8
0
6
CONTINUOUS
10
1933.8028075019379
20
1384.850008622017
30
0
40
3.0
50
13.493229478814774
51
89.86263327403155
0
LINE
8
0
6
CONTINUOUS
10
1933.81
20
1387.85
30
0
11
1928.53
21
1387.85
31
0
0
ARC
8
0
6
CONTINUOUS
10
1928.5371924980618
20
1384.850008622017
30
0
40
3.0
50
90.13736672596411
51
166.50677052118422
0
LINE
8
0
6
CONTINUOUS
10
1925.62
20
1385.55
30
0
11
1923.58
21
1377.13
31
0
0
ARC
8
0
6
CONTINUOUS
10
1918.7200469337622
20
1378.3050983762928
30
0
40
5.0
50
296.2309592235127
51
346.40721743448506
0
LINE
8
0
6
CONTINUOUS
10
1920.93
20
1373.82
30
0
11
1919.39
21
1373.06
31
0
0
LINE
8
0
6
CONTINUOUS
10
1919.39
20
1373.06
30
0
11
1915.91
21
1371.24
31
0
0
LINE
8
0
6
CONTINUOUS
10
1915.91
20
1371.24
30
0
11
1912.27
21
1369.14
31
0
0
LINE
8
0
6
CONTINUOUS
10
1912.27
20
1369.14
30
0
11
1908.31
21
1366.59
31
0
0
LINE
8
0
6
CONTINUOUS
10
1908.31
20
1366.59
30
0
11
1905.06
21
1364.28
31
0
0
LINE
8
0
6
CONTINUOUS
10
1905.06
20
1364.28
30
0
11
1903.74
21
1363.3
31
0
0
ARC
8
0
6
CONTINUOUS
10
1897.7667589681616
20
1371.3199994747856
30
0
40
10.0
50
270.01856974488555
51
306.6784900847743
0
LINE
8
0
6
CONTINUOUS
10
1897.77
20
1361.32
30
0
11
1859.7
21
1361.32
31
0
0
ENDSEC
0
EOF