0
SECTION
2
HEADER
0
ENDSEC
0
SECTION
2
TABLES
0
TABLE
2
LTYPE
70
2
0
LTYPE
2
CONTINUOUS
70
0
3
Solid line
72
65
73
0
40
0.0
0
ENDTAB
0
TABLE
2
LAYER
70
1
0
LAYER
2
0
70
0
62
7
6
CONTINUOUS
0
ENDTAB
0
ENDSEC
0
SECTION
2
ENTITIES
0
LINE
8
0
6
CONTINUOUS
10
13391.27
20
10863.63
30
0
11
13392.06
21
10818.64
31
0
0
LINE
8
0
6
CONTINUOUS
10
13392.06
20
10818.64
30
0
11
13692.01
21
10823.87
31
0
0
LINE
8
0
6
CONTINUOUS
10
13692.01
20
10823.87
30
0
11
13691.22
21
10868.87
31
0
0
LINE
8
0
6
CONTINUOUS
10
13691.22
20
10868.87
30
0
11
13686.14
21
10873.78
31
0
0
LINE
8
0
6
CONTINUOUS
10
13686.14
20
10873.78
30
0
11
13396.18
21
10868.72
31
0
0
LINE
8
0
6
CONTINUOUS
10
13396.18
20
10868.72
30
0
11
13391.27
21
10863.63
31
0
0
ENDSEC
0
EOF