0
SECTION
2
HEADER
0
ENDSEC
0
SECTION
2
TABLES
0
TABLE
2
LTYPE
70
2
0
LTYPE
2
CONTINUOUS
70
0
3
Solid line
72
65
73
0
40
0.0
0
ENDTAB
0
TABLE
2
LAYER
70
1
0
LAYER
2
0
70
0
62
7
6
CONTINUOUS
0
ENDTAB
0
ENDSEC
0
SECTION
2
ENTITIES
0
LINE
8
0
6
CONTINUOUS
10
10710.01
20
11340.5
30
0
11
10673.88
21
11381.97
31
0
0
LINE
8
0
6
CONTINUOUS
10
10673.88
20
11381.97
30
0
11
10659.55
21
11369.49
31
0
0
LINE
8
0
6
CONTINUOUS
10
10659.55
20
11369.49
30
0
11
10695.68
21
11328.02
31
0
0
LINE
8
0
6
CONTINUOUS
10
10695.68
20
11328.02
30
0
11
10710.01
21
11340.5
31
0
0
ENDSEC
0
EOF