0
SECTION
2
HEADER
0
ENDSEC
0
SECTION
2
TABLES
0
TABLE
2
LTYPE
70
2
0
LTYPE
2
CONTINUOUS
70
0
3
Solid line
72
65
73
0
40
0.0
0
ENDTAB
0
TABLE
2
LAYER
70
1
0
LAYER
2
0
70
0
62
7
6
CONTINUOUS
0
ENDTAB
0
ENDSEC
0
SECTION
2
ENTITIES
0
LINE
8
0
6
CONTINUOUS
10
2227.23
20
5187.97
30
0
11
2227.23
21
5067.97
31
0
0
LINE
8
0
6
CONTINUOUS
10
2227.23
20
5067.97
30
0
11
2768.29
21
5067.97
31
0
0
LINE
8
0
6
CONTINUOUS
10
2768.29
20
5067.97
30
0
11
2839.82
21
5188.3
31
0
0
LINE
8
0
6
CONTINUOUS
10
2839.82
20
5188.3
30
0
11
2736.67
21
5249.62
31
0
0
LINE
8
0
6
CONTINUOUS
10
2736.67
20
5249.62
30
0
11
2700.02
21
5187.97
31
0
0
LINE
8
0
6
CONTINUOUS
10
2700.02
20
5187.97
30
0
11
2227.23
21
5187.97
31
0
0
ENDSEC
0
EOF