0
SECTION
2
HEADER
0
ENDSEC
0
SECTION
2
TABLES
0
TABLE
2
LTYPE
70
2
0
LTYPE
2
CONTINUOUS
70
0
3
Solid line
72
65
73
0
40
0.0
0
ENDTAB
0
TABLE
2
LAYER
70
1
0
LAYER
2
0
70
0
62
7
6
CONTINUOUS
0
ENDTAB
0
ENDSEC
0
SECTION
2
ENTITIES
0
LINE
8
0
6
CONTINUOUS
10
2963.39
20
5132.23
30
0
11
2955.73
21
5119.34
31
0
0
LINE
8
0
6
CONTINUOUS
10
2955.73
20
5119.34
30
0
11
2960.03
21
5116.78
31
0
0
LINE
8
0
6
CONTINUOUS
10
2960.03
20
5116.78
30
0
11
2967.69
21
5129.68
31
0
0
LINE
8
0
6
CONTINUOUS
10
2967.69
20
5129.68
30
0
11
2963.39
21
5132.23
31
0
0
ENDSEC
0
EOF