0
SECTION
2
HEADER
0
ENDSEC
0
SECTION
2
TABLES
0
TABLE
2
LTYPE
70
2
0
LTYPE
2
CONTINUOUS
70
0
3
Solid line
72
65
73
0
40
0.0
0
ENDTAB
0
TABLE
2
LAYER
70
1
0
LAYER
2
0
70
0
62
7
6
CONTINUOUS
0
ENDTAB
0
ENDSEC
0
SECTION
2
ENTITIES
0
LINE
8
0
6
CONTINUOUS
10
7120.34
20
21950.74
30
0
11
7120.34
21
22330.74
31
0
0
LINE
8
0
6
CONTINUOUS
10
7120.34
20
22330.74
30
0
11
7018.34
21
22330.74
31
0
0
LINE
8
0
6
CONTINUOUS
10
7018.34
20
22330.74
30
0
11
7018.34
21
22324.6
31
0
0
ARC
8
0
6
CONTINUOUS
10
7026.389999998606
20
22324.600149811475
30
0
40
8.05
50
180.00106628140452
51
264.29659513675483
0
LINE
8
0
6
CONTINUOUS
10
7025.59
20
22316.59
30
0
11
7093.16
21
22313.22
31
0
0
ARC
8
0
6
CONTINUOUS
10
7091.65000090343
20
22298.105238912627
30
0
40
15.19
50
359.98023913174427
51
84.29495041602728
0
LINE
8
0
6
CONTINUOUS
10
7106.84
20
22298.1
30
0
11
7106.84
21
21983.39
31
0
0
ARC
8
0
6
CONTINUOUS
10
7091.65000090343
20
21983.384761087374
30
0
40
15.19
50
275.7050495839727
51
0.019760868242031618
0
LINE
8
0
6
CONTINUOUS
10
7093.16
20
21968.27
30
0
11
7025.59
21
21964.9
31
0
0
ARC
8
0
6
CONTINUOUS
10
7026.389993974261
20
21956.88984958686
30
0
40
8.05
50
95.70336177172891
51
180.07010433512608
0
LINE
8
0
6
CONTINUOUS
10
7018.34
20
21956.88
30
0
11
7018.34
21
21950.74
31
0
0
LINE
8
0
6
CONTINUOUS
10
7018.34
20
21950.74
30
0
11
7120.34
21
21950.74
31
0
0
ENDSEC
0
EOF