0
SECTION
2
HEADER
0
ENDSEC
0
SECTION
2
TABLES
0
TABLE
2
LTYPE
70
2
0
LTYPE
2
CONTINUOUS
70
0
3
Solid line
72
65
73
0
40
0.0
0
ENDTAB
0
TABLE
2
LAYER
70
1
0
LAYER
2
0
70
0
62
7
6
CONTINUOUS
0
ENDTAB
0
ENDSEC
0
SECTION
2
ENTITIES
0
LINE
8
0
6
CONTINUOUS
10
-14505.88
20
6674.17
30
0
11
-14532.89
21
6674.17
31
0
0
LINE
8
0
6
CONTINUOUS
10
-14532.89
20
6674.17
30
0
11
-14532.89
21
6651.66
31
0
0
LINE
8
0
6
CONTINUOUS
10
-14532.89
20
6651.66
30
0
11
-14537.89
21
6651.66
31
0
0
LINE
8
0
6
CONTINUOUS
10
-14537.89
20
6651.66
30
0
11
-14537.89
21
6601.66
31
0
0
LINE
8
0
6
CONTINUOUS
10
-14537.89
20
6601.66
30
0
11
-14532.89
21
6601.66
31
0
0
LINE
8
0
6
CONTINUOUS
10
-14532.89
20
6601.66
30
0
11
-14532.89
21
6579.43
31
0
0
LINE
8
0
6
CONTINUOUS
10
-14532.89
20
6579.43
30
0
11
-14505.88
21
6579.43
31
0
0
LINE
8
0
6
CONTINUOUS
10
-14505.88
20
6579.43
30
0
11
-14505.88
21
6674.17
31
0
0
ENDSEC
0
EOF