0
SECTION
2
HEADER
0
ENDSEC
0
SECTION
2
TABLES
0
TABLE
2
LTYPE
70
2
0
LTYPE
2
CONTINUOUS
70
0
3
Solid line
72
65
73
0
40
0.0
0
ENDTAB
0
TABLE
2
LAYER
70
1
0
LAYER
2
0
70
0
62
7
6
CONTINUOUS
0
ENDTAB
0
ENDSEC
0
SECTION
2
ENTITIES
0
LINE
8
0
6
CONTINUOUS
10
9218.44
20
-4.48
30
0
11
9218.44
21
632.26
31
0
0
LINE
8
0
6
CONTINUOUS
10
4248.44
20
-4.48
30
0
11
4248.44
21
632.26
31
0
0
LINE
8
0
6
CONTINUOUS
10
9248.44
20
-4.48
30
0
11
9248.44
21
632.26
31
0
0
LINE
8
0
6
CONTINUOUS
10
9248.44
20
632.26
30
0
11
-27.21
21
632.26
31
0
0
LINE
8
0
6
CONTINUOUS
10
48.44
20
-4.48
30
0
11
48.44
21
632.26
31
0
0
LINE
8
0
6
CONTINUOUS
10
-27.21
20
32.26
30
0
11
9248.44
21
32.26
31
0
0
LINE
8
0
6
CONTINUOUS
10
78.44
20
582.26
30
0
11
9218.44
21
582.26
31
0
0
LINE
8
0
6
CONTINUOUS
10
78.44
20
67.26
30
0
11
9218.44
21
67.26
31
0
0
LINE
8
0
6
CONTINUOUS
10
378.44
20
632.26
30
0
11
48.44
21
632.26
31
0
0
LINE
8
0
6
CONTINUOUS
10
48.44
20
32.26
30
0
11
48.44
21
632.26
31
0
0
LINE
8
0
6
CONTINUOUS
10
48.44
20
32.26
30
0
11
378.44
21
32.26
31
0
0
LINE
8
0
6
CONTINUOUS
10
158.44
20
582.26
30
0
11
378.44
21
582.26
31
0
0
LINE
8
0
6
CONTINUOUS
10
158.44
20
67.26
30
0
11
378.44
21
67.26
31
0
0
LINE
8
0
6
CONTINUOUS
10
78.44
20
147.26
30
0
11
78.44
21
467.26
31
0
0
LINE
8
0
6
CONTINUOUS
10
78.44
20
502.26
30
0
11
78.44
21
117.26
31
0
0
ARC
8
0
6
CONTINUOUS
10
158.44
20
502.26
30
0
40
80.0
50
90.0
51
180.0
0
ARC
8
0
6
CONTINUOUS
10
158.44
20
147.26
30
0
40
80.0
50
180.0
51
270.0
0
LINE
8
0
6
CONTINUOUS
10
9248.44
20
324.26
30
0
11
48.44
21
324.26
31
0
0
LINE
8
0
6
CONTINUOUS
10
9248.44
20
325.26
30
0
11
48.44
21
325.26
31
0
0
LINE
8
0
6
CONTINUOUS
10
9248.44
20
324.26
30
0
11
48.44
21
324.26
31
0
0
LINE
8
0
6
CONTINUOUS
10
9248.44
20
67.26
30
0
11
48.44
21
67.26
31
0
0
LINE
8
0
6
CONTINUOUS
10
9248.44
20
582.26
30
0
11
48.44
21
582.26
31
0
0
LINE
8
0
6
CONTINUOUS
10
9248.44
20
32.26
30
0
11
9248.44
21
632.26
31
0
0
LINE
8
0
6
CONTINUOUS
10
9248.44
20
632.26
30
0
11
48.44
21
632.26
31
0
0
LINE
8
0
6
CONTINUOUS
10
48.44
20
32.26
30
0
11
48.44
21
632.26
31
0
0
LINE
8
0
6
CONTINUOUS
10
48.44
20
32.26
30
0
11
9248.44
21
32.26
31
0
0
LINE
8
0
6
CONTINUOUS
10
9248.44
20
304.26
30
0
11
48.44
21
304.26
31
0
0
LINE
8
0
6
CONTINUOUS
10
9228.44
20
304.26
30
0
11
9228.44
21
324.26
31
0
0
LINE
8
0
6
CONTINUOUS
10
68.44
20
304.26
30
0
11
68.44
21
324.26
31
0
0
LINE
8
0
6
CONTINUOUS
10
9248.44
20
304.26
30
0
11
9248.44
21
324.26
31
0
0
LINE
8
0
6
CONTINUOUS
10
48.44
20
304.26
30
0
11
48.44
21
324.26
31
0
0
LINE
8
0
6
CONTINUOUS
10
48.44
20
324.26
30
0
11
9248.44
21
324.26
31
0
0
LINE
8
0
6
CONTINUOUS
10
68.44
20
324.26
30
0
11
9228.44
21
324.26
31
0
0
LINE
8
0
6
CONTINUOUS
10
68.44
20
304.26
30
0
11
368.44
21
304.26
31
0
0
LINE
8
0
6
CONTINUOUS
10
9228.44
20
304.26
30
0
11
8928.44
21
304.26
31
0
0
LINE
8
0
6
CONTINUOUS
10
9248.44
20
305.26
30
0
11
48.44
21
305.26
31
0
0
LINE
8
0
6
CONTINUOUS
10
9228.44
20
305.26
30
0
11
9228.44
21
325.26
31
0
0
LINE
8
0
6
CONTINUOUS
10
68.44
20
305.26
30
0
11
68.44
21
325.26
31
0
0
LINE
8
0
6
CONTINUOUS
10
9248.44
20
305.26
30
0
11
9248.44
21
325.26
31
0
0
LINE
8
0
6
CONTINUOUS
10
48.44
20
305.26
30
0
11
48.44
21
325.26
31
0
0
LINE
8
0
6
CONTINUOUS
10
48.44
20
325.26
30
0
11
9248.44
21
325.26
31
0
0
LINE
8
0
6
CONTINUOUS
10
68.44
20
325.26
30
0
11
9228.44
21
325.26
31
0
0
LINE
8
0
6
CONTINUOUS
10
68.44
20
305.26
30
0
11
368.44
21
305.26
31
0
0
LINE
8
0
6
CONTINUOUS
10
9228.44
20
305.26
30
0
11
8928.44
21
305.26
31
0
0
LINE
8
0
6
CONTINUOUS
10
8918.44
20
632.26
30
0
11
9248.44
21
632.26
31
0
0
LINE
8
0
6
CONTINUOUS
10
9248.44
20
32.26
30
0
11
9248.44
21
632.26
31
0
0
LINE
8
0
6
CONTINUOUS
10
9248.44
20
32.26
30
0
11
8918.44
21
32.26
31
0
0
LINE
8
0
6
CONTINUOUS
10
9138.44
20
582.26
30
0
11
8918.44
21
582.26
31
0
0
LINE
8
0
6
CONTINUOUS
10
9138.44
20
67.26
30
0
11
8918.44
21
67.26
31
0
0
LINE
8
0
6
CONTINUOUS
10
9218.44
20
147.26
30
0
11
9218.44
21
467.26
31
0
0
LINE
8
0
6
CONTINUOUS
10
9218.44
20
502.26
30
0
11
9218.44
21
117.26
31
0
0
ARC
8
0
6
CONTINUOUS
10
9138.44
20
502.26
30
0
40
80.0
50
0.0
51
90.0
0
ARC
8
0
6
CONTINUOUS
10
9138.44
20
147.26
30
0
40
80.0
50
270.0
51
0.0
0
ENDSEC
0
EOF