0
SECTION
2
HEADER
0
ENDSEC
0
SECTION
2
TABLES
0
TABLE
2
LTYPE
70
2
0
LTYPE
2
CONTINUOUS
70
0
3
Solid line
72
65
73
0
40
0.0
0
ENDTAB
0
TABLE
2
LAYER
70
1
0
LAYER
2
0
70
0
62
7
6
CONTINUOUS
0
ENDTAB
0
ENDSEC
0
SECTION
2
ENTITIES
0
LINE
8
0
6
CONTINUOUS
10
235.0
20
-19.0
30
0
11
-3.97
21
-19.0
31
0
0
LINE
8
0
6
CONTINUOUS
10
117.5
20
-38.0
30
0
11
117.5
21
0.71
31
0
0
LINE
8
0
6
CONTINUOUS
10
235.0
20
-38.0
30
0
11
-3.97
21
-38.0
31
0
0
LINE
8
0
6
CONTINUOUS
10
235.0
20
-38.0
30
0
11
235.0
21
0.71
31
0
0
LINE
8
0
6
CONTINUOUS
10
0.0
20
-38.0
30
0
11
0.0
21
0.71
31
0
0
LINE
8
0
6
CONTINUOUS
10
-3.97
20
0.0
30
0
11
235.0
21
0.0
31
0
0
LINE
8
0
6
CONTINUOUS
10
235.0
20
-0.0
30
0
11
0.0
21
-0.0
31
0
0
LINE
8
0
6
CONTINUOUS
10
0.0
20
-0.0
30
0
11
0.0
21
-38.0
31
0
0
LINE
8
0
6
CONTINUOUS
10
0.0
20
-38.0
30
0
11
235.0
21
-38.0
31
0
0
LINE
8
0
6
CONTINUOUS
10
235.0
20
-38.0
30
0
11
235.0
21
-0.0
31
0
0
LINE
8
0
6
CONTINUOUS
10
2.83
20
0.0
30
0
11
232.17
21
0.0
31
0
0
LINE
8
0
6
CONTINUOUS
10
235.0
20
-35.17
30
0
11
235.0
21
-2.83
31
0
0
LINE
8
0
6
CONTINUOUS
10
0.0
20
-2.83
30
0
11
0.0
21
-35.17
31
0
0
LINE
8
0
6
CONTINUOUS
10
2.83
20
-38.0
30
0
11
232.17
21
-38.0
31
0
0
LINE
8
0
6
CONTINUOUS
10
235.0
20
-0.0
30
0
11
0.0
21
-0.0
31
0
0
LINE
8
0
6
CONTINUOUS
10
0.0
20
-0.0
30
0
11
0.0
21
-38.0
31
0
0
LINE
8
0
6
CONTINUOUS
10
0.0
20
-38.0
30
0
11
235.0
21
-38.0
31
0
0
LINE
8
0
6
CONTINUOUS
10
235.0
20
-38.0
30
0
11
235.0
21
-0.0
31
0
0
LINE
8
0
6
CONTINUOUS
10
2.83
20
0.0
30
0
11
0.0
21
0.0
31
0
0
LINE
8
0
6
CONTINUOUS
10
0.0
20
0.0
30
0
11
0.0
21
-2.83
31
0
0
LINE
8
0
6
CONTINUOUS
10
0.0
20
-2.83
30
0
11
2.83
21
0.0
31
0
0
LINE
8
0
6
CONTINUOUS
10
232.17
20
-0.0
30
0
11
235.0
21
-2.83
31
0
0
LINE
8
0
6
CONTINUOUS
10
235.0
20
-2.83
30
0
11
235.0
21
-0.0
31
0
0
LINE
8
0
6
CONTINUOUS
10
235.0
20
-0.0
30
0
11
232.17
21
-0.0
31
0
0
LINE
8
0
6
CONTINUOUS
10
2.83
20
-38.0
30
0
11
-0.0
21
-35.17
31
0
0
LINE
8
0
6
CONTINUOUS
10
-0.0
20
-35.17
30
0
11
-0.0
21
-38.0
31
0
0
LINE
8
0
6
CONTINUOUS
10
-0.0
20
-38.0
30
0
11
2.83
21
-38.0
31
0
0
LINE
8
0
6
CONTINUOUS
10
232.17
20
-38.0
30
0
11
235.0
21
-38.0
31
0
0
LINE
8
0
6
CONTINUOUS
10
235.0
20
-38.0
30
0
11
235.0
21
-35.17
31
0
0
LINE
8
0
6
CONTINUOUS
10
235.0
20
-35.17
30
0
11
232.17
21
-38.0
31
0
0
LINE
8
0
6
CONTINUOUS
10
2.83
20
0.0
30
0
11
0.0
21
-2.83
31
0
0
LINE
8
0
6
CONTINUOUS
10
0.0
20
-35.17
30
0
11
2.83
21
-38.0
31
0
0
LINE
8
0
6
CONTINUOUS
10
232.17
20
-38.0
30
0
11
235.0
21
-35.17
31
0
0
LINE
8
0
6
CONTINUOUS
10
232.17
20
0.0
30
0
11
235.0
21
-2.83
31
0
0
ENDSEC
0
EOF