0
SECTION
2
HEADER
0
ENDSEC
0
SECTION
2
TABLES
0
TABLE
2
LTYPE
70
2
0
LTYPE
2
CONTINUOUS
70
0
3
Solid line
72
65
73
0
40
0.0
0
ENDTAB
0
TABLE
2
LAYER
70
1
0
LAYER
2
0
70
0
62
7
6
CONTINUOUS
0
ENDTAB
0
ENDSEC
0
SECTION
2
ENTITIES
0
LINE
8
0
6
CONTINUOUS
10
-20.0
20
25.0
30
0
11
-20.0
21
-100.0
31
0
0
LINE
8
0
6
CONTINUOUS
10
60.0
20
25.0
30
0
11
60.0
21
-100.0
31
0
0
LINE
8
0
6
CONTINUOUS
10
70.0
20
-100.0
30
0
11
-20.0
21
-100.0
31
0
0
LINE
8
0
6
CONTINUOUS
10
70.0
20
18.0
30
0
11
-20.0
21
18.0
31
0
0
LINE
8
0
6
CONTINUOUS
10
0.0
20
-100.0
30
0
11
0.0
21
25.0
31
0
0
LINE
8
0
6
CONTINUOUS
10
-20.0
20
0.0
30
0
11
70.0
21
0.0
31
0
0
LINE
8
0
6
CONTINUOUS
10
-17.75
20
-49.8
30
0
11
-7.4
21
-43.82
31
0
0
LINE
8
0
6
CONTINUOUS
10
-20.0
20
-48.5
30
0
11
-20.0
21
23.5
31
0
0
LINE
8
0
6
CONTINUOUS
10
-18.42
20
25.0
30
0
11
-0.76
21
24.07
31
0
0
LINE
8
0
6
CONTINUOUS
10
-17.65
20
-47.89
30
0
11
-15.9
21
-46.88
31
0
0
LINE
8
0
6
CONTINUOUS
10
-15.9
20
-46.88
30
0
11
-15.9
21
-42.8
31
0
0
LINE
8
0
6
CONTINUOUS
10
-14.3
20
-42.8
30
0
11
-14.3
21
-44.23
31
0
0
LINE
8
0
6
CONTINUOUS
10
-12.8
20
-45.09
30
0
11
-8.2
21
-42.44
31
0
0
LINE
8
0
6
CONTINUOUS
10
69.57
20
1.0
30
0
11
64.98
21
1.6
31
0
0
LINE
8
0
6
CONTINUOUS
10
64.7
20
2.0
30
0
11
60.3
21
2.0
31
0
0
LINE
8
0
6
CONTINUOUS
10
60.02
20
1.6
30
0
11
54.98
21
1.6
31
0
0
LINE
8
0
6
CONTINUOUS
10
54.7
20
2.0
30
0
11
50.3
21
2.0
31
0
0
LINE
8
0
6
CONTINUOUS
10
50.02
20
1.6
30
0
11
44.98
21
1.6
31
0
0
LINE
8
0
6
CONTINUOUS
10
44.7
20
2.0
30
0
11
40.3
21
2.0
31
0
0
LINE
8
0
6
CONTINUOUS
10
40.02
20
1.6
30
0
11
34.98
21
1.6
31
0
0
LINE
8
0
6
CONTINUOUS
10
34.7
20
2.0
30
0
11
30.3
21
2.0
31
0
0
LINE
8
0
6
CONTINUOUS
10
30.02
20
1.6
30
0
11
24.98
21
1.6
31
0
0
LINE
8
0
6
CONTINUOUS
10
24.7
20
2.0
30
0
11
20.3
21
2.0
31
0
0
LINE
8
0
6
CONTINUOUS
10
20.02
20
1.6
30
0
11
14.98
21
1.6
31
0
0
LINE
8
0
6
CONTINUOUS
10
14.7
20
2.0
30
0
11
10.3
21
2.0
31
0
0
LINE
8
0
6
CONTINUOUS
10
10.02
20
1.6
30
0
11
4.98
21
1.6
31
0
0
LINE
8
0
6
CONTINUOUS
10
4.7
20
2.0
30
0
11
0.26
21
2.0
31
0
0
LINE
8
0
6
CONTINUOUS
10
0.26
20
2.0
30
0
11
-14.3
21
16.56
31
0
0
LINE
8
0
6
CONTINUOUS
10
-14.3
20
16.56
30
0
11
-14.3
21
23.18
31
0
0
LINE
8
0
6
CONTINUOUS
10
-14.3
20
23.18
30
0
11
-0.84
21
22.47
31
0
0
LINE
8
0
6
CONTINUOUS
10
-15.9
20
16.31
30
0
11
-15.9
21
23.26
31
0
0
LINE
8
0
6
CONTINUOUS
10
-15.9
20
23.26
30
0
11
-18.4
21
23.39
31
0
0
LINE
8
0
6
CONTINUOUS
10
-18.4
20
23.39
30
0
11
-18.4
21
-47.46
31
0
0
LINE
8
0
6
CONTINUOUS
10
-15.61
20
15.61
30
0
11
-1.5
21
1.5
31
0
0
LINE
8
0
6
CONTINUOUS
10
-1.5
20
1.5
30
0
11
-1.5
21
-4.25
31
0
0
LINE
8
0
6
CONTINUOUS
10
0.0
20
-4.25
30
0
11
0.0
21
0.0
31
0
0
LINE
8
0
6
CONTINUOUS
10
0.0
20
0.0
30
0
11
69.5
21
0.0
31
0
0
ARC
8
0
6
CONTINUOUS
10
69.43462519210125
20
0.507026236552911
30
0
40
0.5112235030403102
50
277.3470514788861
51
74.64460263969592
0
ARC
8
0
6
CONTINUOUS
10
-13.300018090031005
20
-44.22398504075175
30
0
40
1.0
50
180.344633857016
51
300.0011968340343
0
ARC
8
0
6
CONTINUOUS
10
-17.9000090450155
20
-47.45699252037587
30
0
40
0.5
50
180.3446338570168
51
300.0011968340342
0
ARC
8
0
6
CONTINUOUS
10
-18.500000308527834
20
-48.50096207245201
30
0
40
1.5
50
179.96325153675642
51
300.00001360802565
0
ARC
8
0
6
CONTINUOUS
10
-7.799995018451258
20
-43.12717680089782
30
0
40
0.8
50
299.9995880300903
51
359.7978028387101
0
ARC
8
0
6
CONTINUOUS
10
-7.799995038689051
20
-43.13281745858965
30
0
40
0.8
50
0.20178602480938065
51
120.00041029796101
0
ARC
8
0
6
CONTINUOUS
10
-15.1
20
-42.8
30
0
40
0.8
50
0.0
51
90.0
0
ARC
8
0
6
CONTINUOUS
10
-15.1
20
-42.8
30
0
40
0.8
50
90.0
51
180.0
0
ARC
8
0
6
CONTINUOUS
10
-0.7999993741780942
20
23.268999342886996
30
0
40
0.8
50
267.1339711400761
51
0.07166680533132898
0
ARC
8
0
6
CONTINUOUS
10
-0.799999374256464
20
23.27100059445636
30
0
40
0.8
50
359.92833768212364
51
87.13406088910457
0
ARC
8
0
6
CONTINUOUS
10
-18.500001519314708
20
23.502134933678157
30
0
40
1.5
50
86.9427164552791
51
180.08154848706533
0
ARC
8
0
6
CONTINUOUS
10
64.69716203388539
20
1.7000134237197733
30
0
40
0.3
50
340.52606008405854
51
89.45798031305857
0
ARC
8
0
6
CONTINUOUS
10
60.30283796611461
20
1.7000134237197733
30
0
40
0.3
50
90.54201968694144
51
199.47393991594188
0
ARC
8
0
6
CONTINUOUS
10
54.69716203388539
20
1.7000134237197733
30
0
40
0.3
50
340.5260600840581
51
89.45798031305857
0
ARC
8
0
6
CONTINUOUS
10
50.30283796611461
20
1.7000134237197733
30
0
40
0.3
50
90.54201968694144
51
199.47393991594188
0
ARC
8
0
6
CONTINUOUS
10
44.69716203388539
20
1.7000134237197733
30
0
40
0.3
50
340.5260600840581
51
89.45798031305857
0
ARC
8
0
6
CONTINUOUS
10
40.30283796611461
20
1.7000134237197733
30
0
40
0.3
50
90.54201968694144
51
199.47393991594188
0
ARC
8
0
6
CONTINUOUS
10
34.69716203388539
20
1.7000134237197733
30
0
40
0.3
50
340.5260600840581
51
89.45798031305857
0
ARC
8
0
6
CONTINUOUS
10
30.30283796611461
20
1.7000134237197733
30
0
40
0.3
50
90.54201968694076
51
199.47393991594166
0
ARC
8
0
6
CONTINUOUS
10
24.69716203388539
20
1.7000134237197733
30
0
40
0.3
50
340.5260600840583
51
89.45798031305925
0
ARC
8
0
6
CONTINUOUS
10
20.30283796611461
20
1.7000134237197733
30
0
40
0.3
50
90.54201968694076
51
199.47393991594166
0
ARC
8
0
6
CONTINUOUS
10
14.697162033885391
20
1.7000134237197733
30
0
40
0.3
50
340.5260600840583
51
89.45798031305925
0
ARC
8
0
6
CONTINUOUS
10
10.302837966114609
20
1.7000134237197733
30
0
40
0.3
50
90.54201968694076
51
199.47393991594166
0
ARC
8
0
6
CONTINUOUS
10
4.69716203388539
20
1.7000134237197733
30
0
40
0.3
50
340.5260600840584
51
89.4579803130589
0
ARC
8
0
6
CONTINUOUS
10
-0.75
20
-4.25
30
0
40
0.75
50
270.0
51
0.0
0
ARC
8
0
6
CONTINUOUS
10
-0.75
20
-4.25
30
0
40
0.75
50
180.0
51
270.0
0
ARC
8
0
6
CONTINUOUS
10
-14.900008864671083
20
16.314210613207695
30
0
40
1.0
50
180.24125107883395
51
224.7658059207011
0
ENDSEC
0
EOF