0
SECTION
2
HEADER
0
ENDSEC
0
SECTION
2
TABLES
0
TABLE
2
LTYPE
70
2
0
LTYPE
2
CONTINUOUS
70
0
3
Solid line
72
65
73
0
40
0.0
0
ENDTAB
0
TABLE
2
LAYER
70
1
0
LAYER
2
0
70
0
62
7
6
CONTINUOUS
0
ENDTAB
0
ENDSEC
0
SECTION
2
ENTITIES
0
LINE
8
0
6
CONTINUOUS
10
7419.28
20
5419.14
30
0
11
7419.28
21
5254.14
31
0
0
LINE
8
0
6
CONTINUOUS
10
7409.28
20
5419.14
30
0
11
7409.28
21
5254.14
31
0
0
LINE
8
0
6
CONTINUOUS
10
7419.28
20
5419.14
30
0
11
7409.28
21
5419.14
31
0
0
LINE
8
0
6
CONTINUOUS
10
7419.28
20
5254.14
30
0
11
7409.28
21
5254.14
31
0
0
LINE
8
0
6
CONTINUOUS
10
7414.28
20
5414.14
30
0
11
7414.28
21
5294.14
31
0
0
ENDSEC
0
EOF