0
SECTION
2
HEADER
0
ENDSEC
0
SECTION
2
TABLES
0
TABLE
2
LTYPE
70
2
0
LTYPE
2
CONTINUOUS
70
0
3
Solid line
72
65
73
0
40
0.0
0
ENDTAB
0
TABLE
2
LAYER
70
1
0
LAYER
2
0
70
0
62
7
6
CONTINUOUS
0
ENDTAB
0
ENDSEC
0
SECTION
2
ENTITIES
0
LINE
8
0
6
CONTINUOUS
10
-10960.99
20
4061.2
30
0
11
-10488.49
21
4061.2
31
0
0
LINE
8
0
6
CONTINUOUS
10
-10960.99
20
3981.2
30
0
11
-10488.49
21
3981.2
31
0
0
LINE
8
0
6
CONTINUOUS
10
-10960.99
20
4061.2
30
0
11
-10960.99
21
3981.2
31
0
0
LINE
8
0
6
CONTINUOUS
10
-10488.49
20
4061.2
30
0
11
-10488.49
21
3981.2
31
0
0
LINE
8
0
6
CONTINUOUS
10
-10960.99
20
4061.2
30
0
11
-10520.99
21
4061.2
31
0
0
ENDSEC
0
EOF