0
SECTION
2
HEADER
9
$EXTMIN
10
 0
20
 100
30
0.0
9
$EXTMAX
10
 0
20
 100
30
0.0
9
$LIMMIN
10
 100
20
 0
9
$LIMMAX
10
 0
20
 100
9
$PSLTSCALE
70
1
0
ENDSEC
0
SECTION
2
TABLES
0
TABLE
2
LAYER
70
2
0
LAYER
2
0
70
0
62
7
6
CONTINUOUS
0
LAYER
2
Halfen
70
0
62
7
6
CONTINUOUS
0
ENDTAB
0
ENDSEC
0
SECTION
2
ENTITIES
0
POLYLINE
8
Halfen
62
7
66
1
10
0.0
20
0.0
30
0.0
70
1
0
VERTEX
8
Halfen
62
7
10
 0
20
-73.5
30
0
0
VERTEX
8
Halfen
62
7
10
 500
20
-73.5
30
0
0
VERTEX
8
Halfen
62
7
10
 500
20
 73.5
30
0
0
VERTEX
8
Halfen
62
7
10
 0
20
 73.5
30
0
0
SEQEND
8
Halfen
0
POLYLINE
8
Halfen
62
7
66
1
10
0.0
20
0.0
30
0.0
70
1
0
VERTEX
8
Halfen
62
7
10
 0
20
-60
30
0
0
VERTEX
8
Halfen
62
7
10
 500
20
-60
30
0
0
VERTEX
8
Halfen
62
7
10
 500
20
 60
30
0
0
VERTEX
8
Halfen
62
7
10
 0
20
 60
30
0
0
SEQEND
8
Halfen
0
POLYLINE
8
Halfen
62
7
66
1
10
0.0
20
0.0
30
0.0
70
1
0
VERTEX
8
Halfen
62
7
10
 20
20
-32.5
30
0
0
VERTEX
8
Halfen
62
7
10
 37
20
-1.5
30
0
0
VERTEX
8
Halfen
62
7
10
 28
20
-1.5
30
0
0
VERTEX
8
Halfen
62
7
10
 28
20
 32.5
30
0
0
VERTEX
8
Halfen
62
7
10
 12
20
 32.5
30
0
0
VERTEX
8
Halfen
62
7
10
 12
20
-1.5
30
0
0
VERTEX
8
Halfen
62
7
10
 3
20
-1.5
30
0
0
SEQEND
8
Halfen
0
POLYLINE
8
Halfen
62
7
66
1
10
0.0
20
0.0
30
0.0
70
1
0
VERTEX
8
Halfen
62
7
10
 480
20
-32.5
30
0
0
VERTEX
8
Halfen
62
7
10
 497
20
-1.5
30
0
0
VERTEX
8
Halfen
62
7
10
 488
20
-1.5
30
0
0
VERTEX
8
Halfen
62
7
10
 488
20
 32.5
30
0
0
VERTEX
8
Halfen
62
7
10
 472
20
 32.5
30
0
0
VERTEX
8
Halfen
62
7
10
 472
20
-1.5
30
0
0
VERTEX
8
Halfen
62
7
10
 463
20
-1.5
30
0
0
SEQEND
8
Halfen
0
POLYLINE
8
Halfen
62
7
66
1
10
0.0
20
0.0
30
0.0
70
1
0
VERTEX
8
Halfen
62
7
10
 73
20
-457.177
30
0
0
VERTEX
8
Halfen
62
7
10
 73
20
 215.147
30
0
0
VERTEX
8
Halfen
62
7
10
 67
20
 215.147
30
0
0
VERTEX
8
Halfen
62
7
10
 67
20
-457.177
30
0
0
SEQEND
8
Halfen
0
POLYLINE
8
Halfen
62
7
66
1
10
0.0
20
0.0
30
0.0
70
1
0
VERTEX
8
Halfen
62
7
10
 133
20
-457.177
30
0
0
VERTEX
8
Halfen
62
7
10
 133
20
 215.147
30
0
0
VERTEX
8
Halfen
62
7
10
 127
20
 215.147
30
0
0
VERTEX
8
Halfen
62
7
10
 127
20
-457.177
30
0
0
SEQEND
8
Halfen
0
POLYLINE
8
Halfen
62
7
66
1
10
0.0
20
0.0
30
0.0
70
1
0
VERTEX
8
Halfen
62
7
10
 193
20
-457.177
30
0
0
VERTEX
8
Halfen
62
7
10
 193
20
 215.147
30
0
0
VERTEX
8
Halfen
62
7
10
 187
20
 215.147
30
0
0
VERTEX
8
Halfen
62
7
10
 187
20
-457.177
30
0
0
SEQEND
8
Halfen
0
POLYLINE
8
Halfen
62
7
66
1
10
0.0
20
0.0
30
0.0
70
1
0
VERTEX
8
Halfen
62
7
10
 323
20
-457.177
30
0
0
VERTEX
8
Halfen
62
7
10
 323
20
 215.147
30
0
0
VERTEX
8
Halfen
62
7
10
 317
20
 215.147
30
0
0
VERTEX
8
Halfen
62
7
10
 317
20
-457.177
30
0
0
SEQEND
8
Halfen
0
POLYLINE
8
Halfen
62
7
66
1
10
0.0
20
0.0
30
0.0
70
1
0
VERTEX
8
Halfen
62
7
10
 383
20
-457.177
30
0
0
VERTEX
8
Halfen
62
7
10
 383
20
 215.147
30
0
0
VERTEX
8
Halfen
62
7
10
 377
20
 215.147
30
0
0
VERTEX
8
Halfen
62
7
10
 377
20
-457.177
30
0
0
SEQEND
8
Halfen
0
POLYLINE
8
Halfen
62
7
66
1
10
0.0
20
0.0
30
0.0
70
1
0
VERTEX
8
Halfen
62
7
10
 443
20
-457.177
30
0
0
VERTEX
8
Halfen
62
7
10
 443
20
 215.147
30
0
0
VERTEX
8
Halfen
62
7
10
 437
20
 215.147
30
0
0
VERTEX
8
Halfen
62
7
10
 437
20
-457.177
30
0
0
SEQEND
8
Halfen
0
POLYLINE
8
Halfen
62
7
66
1
10
0.0
20
0.0
30
0.0
70
1
0
VERTEX
8
Halfen
62
7
10
 433
20
-457.177
30
0
0
VERTEX
8
Halfen
62
7
10
 433
20
 215.147
30
0
0
VERTEX
8
Halfen
62
7
10
 427
20
 215.147
30
0
0
VERTEX
8
Halfen
62
7
10
 427
20
-457.177
30
0
0
SEQEND
8
Halfen
0
POLYLINE
8
Halfen
62
7
66
1
10
0.0
20
0.0
30
0.0
70
1
0
VERTEX
8
Halfen
62
7
10
 373
20
-457.177
30
0
0
VERTEX
8
Halfen
62
7
10
 373
20
 215.147
30
0
0
VERTEX
8
Halfen
62
7
10
 367
20
 215.147
30
0
0
VERTEX
8
Halfen
62
7
10
 367
20
-457.177
30
0
0
SEQEND
8
Halfen
0
POLYLINE
8
Halfen
62
7
66
1
10
0.0
20
0.0
30
0.0
70
1
0
VERTEX
8
Halfen
62
7
10
 313
20
-457.177
30
0
0
VERTEX
8
Halfen
62
7
10
 313
20
 215.147
30
0
0
VERTEX
8
Halfen
62
7
10
 307
20
 215.147
30
0
0
VERTEX
8
Halfen
62
7
10
 307
20
-457.177
30
0
0
SEQEND
8
Halfen
0
POLYLINE
8
Halfen
62
7
66
1
10
0.0
20
0.0
30
0.0
70
1
0
VERTEX
8
Halfen
62
7
10
 183
20
-457.177
30
0
0
VERTEX
8
Halfen
62
7
10
 183
20
 215.147
30
0
0
VERTEX
8
Halfen
62
7
10
 177
20
 215.147
30
0
0
VERTEX
8
Halfen
62
7
10
 177
20
-457.177
30
0
0
SEQEND
8
Halfen
0
POLYLINE
8
Halfen
62
7
66
1
10
0.0
20
0.0
30
0.0
70
1
0
VERTEX
8
Halfen
62
7
10
 123
20
-457.177
30
0
0
VERTEX
8
Halfen
62
7
10
 123
20
 215.147
30
0
0
VERTEX
8
Halfen
62
7
10
 117
20
 215.147
30
0
0
VERTEX
8
Halfen
62
7
10
 117
20
-457.177
30
0
0
SEQEND
8
Halfen
0
POLYLINE
8
Halfen
62
7
66
1
10
0.0
20
0.0
30
0.0
70
1
0
VERTEX
8
Halfen
62
7
10
 63
20
-457.177
30
0
0
VERTEX
8
Halfen
62
7
10
 63
20
 215.147
30
0
0
VERTEX
8
Halfen
62
7
10
 57
20
 215.147
30
0
0
VERTEX
8
Halfen
62
7
10
 57
20
-457.177
30
0
0
SEQEND
8
Halfen
0
POLYLINE
8
Halfen
62
7
66
1
10
0.0
20
0.0
30
0.0
70
1
0
VERTEX
8
Halfen
62
7
10
 1010
20
-60
30
0
0
VERTEX
8
Halfen
62
7
10
 1010
20
 60
30
0
0
VERTEX
8
Halfen
62
7
10
 996.5
20
 73.5
30
0
0
VERTEX
8
Halfen
62
7
10
 996.5
20
 60
30
0
0
VERTEX
8
Halfen
62
7
10
 750
20
 60
30
0
0
VERTEX
8
Halfen
62
7
10
 750
20
-60
30
0
0
VERTEX
8
Halfen
62
7
10
 996.5
20
-60
30
0
0
VERTEX
8
Halfen
62
7
10
 996.5
20
-73.5
30
0
0
SEQEND
8
Halfen
0
POLYLINE
8
Halfen
62
7
66
1
10
0.0
20
0.0
30
0.0
70
1
0
VERTEX
8
Halfen
62
7
10
 750
20
-60
30
0
0
VERTEX
8
Halfen
62
7
10
 750
20
 60
30
0
0
VERTEX
8
Halfen
62
7
10
 713.5
20
 60
30
0
0
VERTEX
8
Halfen
62
7
10
 713.5
20
 73.5
30
0
0
VERTEX
8
Halfen
62
7
10
 700
20
 60
30
0
0
VERTEX
8
Halfen
62
7
10
 700
20
-60
30
0
0
VERTEX
8
Halfen
62
7
10
 713.5
20
-73.5
30
0
0
VERTEX
8
Halfen
62
7
10
 713.5
20
-60
30
0
0
SEQEND
8
Halfen
0
POLYLINE
8
Halfen
62
7
66
1
10
0.0
20
0.0
30
0.0
70
1
0
VERTEX
8
Halfen
62
7
10
 1007.5
20
-58.75
30
0
0
VERTEX
8
Halfen
62
7
10
 1007.5
20
 58.75
30
0
0
VERTEX
8
Halfen
62
7
10
 999
20
 67.25
30
0
0
VERTEX
8
Halfen
62
7
10
 999
20
 58
30
0
0
VERTEX
8
Halfen
62
7
10
 752
20
 58
30
0
0
VERTEX
8
Halfen
62
7
10
 752
20
-58
30
0
0
VERTEX
8
Halfen
62
7
10
 999
20
-58
30
0
0
VERTEX
8
Halfen
62
7
10
 999
20
-67.25
30
0
0
SEQEND
8
Halfen
0
POLYLINE
8
Halfen
62
7
66
1
10
0.0
20
0.0
30
0.0
70
1
0
VERTEX
8
Halfen
62
7
10
 748
20
-58
30
0
0
VERTEX
8
Halfen
62
7
10
 748
20
 58
30
0
0
VERTEX
8
Halfen
62
7
10
 711
20
 58
30
0
0
VERTEX
8
Halfen
62
7
10
 711
20
 67.25
30
0
0
VERTEX
8
Halfen
62
7
10
 702.5
20
 58.75
30
0
0
VERTEX
8
Halfen
62
7
10
 702.5
20
-58.75
30
0
0
VERTEX
8
Halfen
62
7
10
 711
20
-67.25
30
0
0
VERTEX
8
Halfen
62
7
10
 711
20
-58
30
0
0
SEQEND
8
Halfen
0
POLYLINE
8
Halfen
62
7
66
1
10
0.0
20
0.0
30
0.0
70
1
0
VERTEX
8
Halfen
62
7
10
 980
20
-457.177
30
0
0
VERTEX
8
Halfen
62
7
10
 980
20
-81.213
30
0
0
VERTEX
8
Halfen
62
7
10
 979.705
20
-77.459
30
0
0
VERTEX
8
Halfen
62
7
10
 978.825
20
-73.797
30
0
0
VERTEX
8
Halfen
62
7
10
 977.384
20
-70.317
30
0
0
VERTEX
8
Halfen
62
7
10
 975.416
20
-67.106
30
0
0
VERTEX
8
Halfen
62
7
10
 972.971
20
-64.243
30
0
0
VERTEX
8
Halfen
62
7
10
 771.272
20
 137.456
30
0
0
VERTEX
8
Halfen
62
7
10
 769.438
20
 139.604
30
0
0
VERTEX
8
Halfen
62
7
10
 767.962
20
 142.012
30
0
0
VERTEX
8
Halfen
62
7
10
 766.881
20
 144.621
30
0
0
VERTEX
8
Halfen
62
7
10
 766.222
20
 147.368
30
0
0
VERTEX
8
Halfen
62
7
10
 766
20
 150.184
30
0
0
VERTEX
8
Halfen
62
7
10
 766
20
 191.147
30
0
0
VERTEX
8
Halfen
62
7
10
 766.222
20
 193.963
30
0
0
VERTEX
8
Halfen
62
7
10
 766.881
20
 196.71
30
0
0
VERTEX
8
Halfen
62
7
10
 767.962
20
 199.319
30
0
0
VERTEX
8
Halfen
62
7
10
 769.438
20
 201.728
30
0
0
VERTEX
8
Halfen
62
7
10
 771.272
20
 203.875
30
0
0
VERTEX
8
Halfen
62
7
10
 773.42
20
 205.71
30
0
0
VERTEX
8
Halfen
62
7
10
 775.828
20
 207.186
30
0
0
VERTEX
8
Halfen
62
7
10
 778.438
20
 208.266
30
0
0
VERTEX
8
Halfen
62
7
10
 781.184
20
 208.926
30
0
0
VERTEX
8
Halfen
62
7
10
 784
20
 209.147
30
0
0
VERTEX
8
Halfen
62
7
10
 880
20
 209.147
30
0
0
VERTEX
8
Halfen
62
7
10
 880
20
 215.147
30
0
0
VERTEX
8
Halfen
62
7
10
 784
20
 215.147
30
0
0
VERTEX
8
Halfen
62
7
10
 780.246
20
 214.852
30
0
0
VERTEX
8
Halfen
62
7
10
 776.584
20
 213.973
30
0
0
VERTEX
8
Halfen
62
7
10
 773.104
20
 212.532
30
0
0
VERTEX
8
Halfen
62
7
10
 769.893
20
 210.564
30
0
0
VERTEX
8
Halfen
62
7
10
 767.029
20
 208.118
30
0
0
VERTEX
8
Halfen
62
7
10
 764.584
20
 205.254
30
0
0
VERTEX
8
Halfen
62
7
10
 762.616
20
 202.043
30
0
0
VERTEX
8
Halfen
62
7
10
 761.175
20
 198.564
30
0
0
VERTEX
8
Halfen
62
7
10
 760.295
20
 194.902
30
0
0
VERTEX
8
Halfen
62
7
10
 760
20
 191.147
30
0
0
VERTEX
8
Halfen
62
7
10
 760
20
 150.184
30
0
0
VERTEX
8
Halfen
62
7
10
 760.295
20
 146.429
30
0
0
VERTEX
8
Halfen
62
7
10
 761.175
20
 142.767
30
0
0
VERTEX
8
Halfen
62
7
10
 762.616
20
 139.288
30
0
0
VERTEX
8
Halfen
62
7
10
 764.584
20
 136.077
30
0
0
VERTEX
8
Halfen
62
7
10
 767.029
20
 133.213
30
0
0
VERTEX
8
Halfen
62
7
10
 968.728
20
-68.485
30
0
0
VERTEX
8
Halfen
62
7
10
 970.562
20
-70.633
30
0
0
VERTEX
8
Halfen
62
7
10
 972.038
20
-73.041
30
0
0
VERTEX
8
Halfen
62
7
10
 973.119
20
-75.651
30
0
0
VERTEX
8
Halfen
62
7
10
 973.778
20
-78.397
30
0
0
VERTEX
8
Halfen
62
7
10
 974
20
-81.213
30
0
0
VERTEX
8
Halfen
62
7
10
 974
20
-457.177
30
0
0
SEQEND
8
Halfen
0
POLYLINE
8
Halfen
62
7
66
1
10
0.0
20
0.0
30
0.0
70
1
0
VERTEX
8
Halfen
62
7
10
 760
20
-457.324
30
0
0
VERTEX
8
Halfen
62
7
10
 760
20
-81.361
30
0
0
VERTEX
8
Halfen
62
7
10
 760.295
20
-77.606
30
0
0
VERTEX
8
Halfen
62
7
10
 761.175
20
-73.944
30
0
0
VERTEX
8
Halfen
62
7
10
 762.616
20
-70.465
30
0
0
VERTEX
8
Halfen
62
7
10
 764.584
20
-67.254
30
0
0
VERTEX
8
Halfen
62
7
10
 767.029
20
-64.39
30
0
0
VERTEX
8
Halfen
62
7
10
 968.728
20
 137.308
30
0
0
VERTEX
8
Halfen
62
7
10
 970.562
20
 139.456
30
0
0
VERTEX
8
Halfen
62
7
10
 972.038
20
 141.865
30
0
0
VERTEX
8
Halfen
62
7
10
 973.119
20
 144.474
30
0
0
VERTEX
8
Halfen
62
7
10
 973.778
20
 147.221
30
0
0
VERTEX
8
Halfen
62
7
10
 974
20
 150.036
30
0
0
VERTEX
8
Halfen
62
7
10
 974
20
 191
30
0
0
VERTEX
8
Halfen
62
7
10
 973.778
20
 193.816
30
0
0
VERTEX
8
Halfen
62
7
10
 973.119
20
 196.562
30
0
0
VERTEX
8
Halfen
62
7
10
 972.038
20
 199.172
30
0
0
VERTEX
8
Halfen
62
7
10
 970.562
20
 201.58
30
0
0
VERTEX
8
Halfen
62
7
10
 968.728
20
 203.728
30
0
0
VERTEX
8
Halfen
62
7
10
 966.58
20
 205.562
30
0
0
VERTEX
8
Halfen
62
7
10
 964.172
20
 207.038
30
0
0
VERTEX
8
Halfen
62
7
10
 961.562
20
 208.119
30
0
0
VERTEX
8
Halfen
62
7
10
 958.816
20
 208.778
30
0
0
VERTEX
8
Halfen
62
7
10
 956
20
 209
30
0
0
VERTEX
8
Halfen
62
7
10
 860
20
 209
30
0
0
VERTEX
8
Halfen
62
7
10
 860
20
 215
30
0
0
VERTEX
8
Halfen
62
7
10
 956
20
 215
30
0
0
VERTEX
8
Halfen
62
7
10
 959.754
20
 214.705
30
0
0
VERTEX
8
Halfen
62
7
10
 963.416
20
 213.825
30
0
0
VERTEX
8
Halfen
62
7
10
 966.896
20
 212.384
30
0
0
VERTEX
8
Halfen
62
7
10
 970.107
20
 210.416
30
0
0
VERTEX
8
Halfen
62
7
10
 972.971
20
 207.971
30
0
0
VERTEX
8
Halfen
62
7
10
 975.416
20
 205.107
30
0
0
VERTEX
8
Halfen
62
7
10
 977.384
20
 201.896
30
0
0
VERTEX
8
Halfen
62
7
10
 978.825
20
 198.416
30
0
0
VERTEX
8
Halfen
62
7
10
 979.705
20
 194.754
30
0
0
VERTEX
8
Halfen
62
7
10
 980
20
 191
30
0
0
VERTEX
8
Halfen
62
7
10
 980
20
 150.036
30
0
0
VERTEX
8
Halfen
62
7
10
 979.705
20
 146.282
30
0
0
VERTEX
8
Halfen
62
7
10
 978.825
20
 142.62
30
0
0
VERTEX
8
Halfen
62
7
10
 977.384
20
 139.141
30
0
0
VERTEX
8
Halfen
62
7
10
 975.416
20
 135.929
30
0
0
VERTEX
8
Halfen
62
7
10
 972.971
20
 133.066
30
0
0
VERTEX
8
Halfen
62
7
10
 771.272
20
-68.633
30
0
0
VERTEX
8
Halfen
62
7
10
 769.438
20
-70.78
30
0
0
VERTEX
8
Halfen
62
7
10
 767.962
20
-73.189
30
0
0
VERTEX
8
Halfen
62
7
10
 766.881
20
-75.798
30
0
0
VERTEX
8
Halfen
62
7
10
 766.222
20
-78.545
30
0
0
VERTEX
8
Halfen
62
7
10
 766
20
-81.361
30
0
0
VERTEX
8
Halfen
62
7
10
 766
20
-457.324
30
0
0
SEQEND
8
Halfen
0
ENDSEC
0
EOF
