  0
SECTION
  2
HEADER
  9
$ACADVER
  1
AC1024
  9
$ACADMAINTVER
 70
    63
  9
$DWGCODEPAGE
  3
ANSI_1252
  9
$LASTSAVEDBY
  1
uhlaender
  9
$INSBASE
 10
143.2644143018064
 20
2403.260246715665
 30
0.0
  9
$EXTMIN
 10
-217.802165467439
 20
2052.211461530943
 30
-0.0000000000112498
  9
$EXTMAX
 10
542.2975528365668
 20
2735.338646659047
 30
0.0000000000002956
  9
$LIMMIN
 10
0.0
 20
0.0
  9
$LIMMAX
 10
841.0
 20
1189.0
  9
$ORTHOMODE
 70
     0
  9
$REGENMODE
 70
     1
  9
$FILLMODE
 70
     1
  9
$QTEXTMODE
 70
     0
  9
$MIRRTEXT
 70
     1
  9
$LTSCALE
 40
0.1
  9
$ATTMODE
 70
     1
  9
$TEXTSIZE
 40
3.5
  9
$TRACEWID
 40
0.05
  9
$TEXTSTYLE
  7
ARIAL50
  9
$CLAYER
  8
Halfen
  9
$CELTYPE
  6
BYLAYER
  9
$CECOLOR
 62
   256
  9
$CELTSCALE
 40
1.0
  9
$DISPSILH
 70
     0
  9
$DIMSCALE
 40
1.0
  9
$DIMASZ
 40
2.5
  9
$DIMEXO
 40
1.0
  9
$DIMDLI
 40
10.0
  9
$DIMRND
 40
0.0
  9
$DIMDLE
 40
0.0
  9
$DIMEXE
 40
1.0
  9
$DIMTP
 40
0.1
  9
$DIMTM
 40
0.1
  9
$DIMTXT
 40
3.5
  9
$DIMCEN
 40
0.09
  9
$DIMTSZ
 40
0.0
  9
$DIMTOL
 70
     0
  9
$DIMLIM
 70
     0
  9
$DIMTIH
 70
     0
  9
$DIMTOH
 70
     0
  9
$DIMSE1
 70
     0
  9
$DIMSE2
 70
     0
  9
$DIMTAD
 70
     1
  9
$DIMZIN
 70
     8
  9
$DIMBLK
  1

  9
$DIMASO
 70
     1
  9
$DIMSHO
 70
     1
  9
$DIMPOST
  1

  9
$DIMAPOST
  1

  9
$DIMALT
 70
     0
  9
$DIMALTD
 70
     2
  9
$DIMALTF
 40
0.0393701
  9
$DIMLFAC
 40
1.0
  9
$DIMTOFL
 70
     1
  9
$DIMTVP
 40
0.0
  9
$DIMTIX
 70
     0
  9
$DIMSOXD
 70
     0
  9
$DIMSAH
 70
     0
  9
$DIMBLK1
  1

  9
$DIMBLK2
  1

  9
$DIMSTYLE
  2
GEN-ISO
  9
$DIMCLRD
 70
     1
  9
$DIMCLRE
 70
     1
  9
$DIMCLRT
 70
     7
  9
$DIMTFAC
 40
0.71
  9
$DIMGAP
 40
3.0
  9
$DIMJUST
 70
     0
  9
$DIMSD1
 70
     0
  9
$DIMSD2
 70
     0
  9
$DIMTOLJ
 70
     0
  9
$DIMTZIN
 70
     0
  9
$DIMALTZ
 70
     0
  9
$DIMALTTZ
 70
     0
  9
$DIMUPT
 70
     0
  9
$DIMDEC
 70
     1
  9
$DIMTDEC
 70
     3
  9
$DIMALTU
 70
     2
  9
$DIMALTTD
 70
     4
  9
$DIMTXSTY
  7
STANDARD
  9
$DIMAUNIT
 70
     0
  9
$DIMADEC
 70
     0
  9
$DIMALTRND
 40
0.0
  9
$DIMAZIN
 70
     0
  9
$DIMDSEP
 70
    46
  9
$DIMATFIT
 70
     3
  9
$DIMFRAC
 70
     0
  9
$DIMLDRBLK
  1

  9
$DIMLUNIT
 70
     2
  9
$DIMLWD
 70
    -2
  9
$DIMLWE
 70
    -2
  9
$DIMTMOVE
 70
     0
  9
$DIMFXL
 40
1.0
  9
$DIMFXLON
 70
     0
  9
$DIMJOGANG
 40
0.7853981633974483
  9
$DIMTFILL
 70
     0
  9
$DIMTFILLCLR
 70
     0
  9
$DIMARCSYM
 70
     0
  9
$DIMLTYPE
  6

  9
$DIMLTEX1
  6

  9
$DIMLTEX2
  6

  9
$DIMTXTDIRECTION
 70
     0
  9
$LUNITS
 70
     2
  9
$LUPREC
 70
     2
  9
$SKETCHINC
 40
0.1
  9
$FILLETRAD
 40
0.0
  9
$AUNITS
 70
     0
  9
$AUPREC
 70
     0
  9
$MENU
  1
.
  9
$ELEVATION
 40
0.0
  9
$PELEVATION
 40
0.0
  9
$THICKNESS
 40
0.0
  9
$LIMCHECK
 70
     0
  9
$CHAMFERA
 40
2.5
  9
$CHAMFERB
 40
2.5
  9
$CHAMFERC
 40
1.0
  9
$CHAMFERD
 40
0.0
  9
$SKPOLY
 70
     0
  9
$TDCREATE
 40
2451438.371298843
  9
$TDUCREATE
 40
2451438.287965509
  9
$TDUPDATE
 40
2456115.400267570
  9
$TDUUPDATE
 40
2456115.316934237
  9
$TDINDWG
 40
0.9391747222
  9
$TDUSRTIMER
 40
0.9391747222
  9
$USRTIMER
 70
     1
  9
$ANGBASE
 50
0.0
  9
$ANGDIR
 70
     0
  9
$PDMODE
 70
     0
  9
$PDSIZE
 40
0.0
  9
$PLINEWID
 40
0.0
  9
$SPLFRAME
 70
     0
  9
$SPLINETYPE
 70
     6
  9
$SPLINESEGS
 70
     8
  9
$HANDSEED
  5
310
  9
$SURFTAB1
 70
     6
  9
$SURFTAB2
 70
     6
  9
$SURFTYPE
 70
     6
  9
$SURFU
 70
     6
  9
$SURFV
 70
     6
  9
$UCSBASE
  2

  9
$UCSNAME
  2

  9
$UCSORG
 10
0.0
 20
0.0
 30
0.0
  9
$UCSXDIR
 10
1.0
 20
0.0
 30
0.0
  9
$UCSYDIR
 10
0.0
 20
1.0
 30
0.0
  9
$UCSORTHOREF
  2

  9
$UCSORTHOVIEW
 70
     0
  9
$UCSORGTOP
 10
0.0
 20
0.0
 30
0.0
  9
$UCSORGBOTTOM
 10
0.0
 20
0.0
 30
0.0
  9
$UCSORGLEFT
 10
0.0
 20
0.0
 30
0.0
  9
$UCSORGRIGHT
 10
0.0
 20
0.0
 30
0.0
  9
$UCSORGFRONT
 10
0.0
 20
0.0
 30
0.0
  9
$UCSORGBACK
 10
0.0
 20
0.0
 30
0.0
  9
$PUCSBASE
  2

  9
$PUCSNAME
  2

  9
$PUCSORG
 10
0.0
 20
0.0
 30
0.0
  9
$PUCSXDIR
 10
1.0
 20
0.0
 30
0.0
  9
$PUCSYDIR
 10
0.0
 20
1.0
 30
0.0
  9
$PUCSORTHOREF
  2

  9
$PUCSORTHOVIEW
 70
     0
  9
$PUCSORGTOP
 10
0.0
 20
0.0
 30
0.0
  9
$PUCSORGBOTTOM
 10
0.0
 20
0.0
 30
0.0
  9
$PUCSORGLEFT
 10
0.0
 20
0.0
 30
0.0
  9
$PUCSORGRIGHT
 10
0.0
 20
0.0
 30
0.0
  9
$PUCSORGFRONT
 10
0.0
 20
0.0
 30
0.0
  9
$PUCSORGBACK
 10
0.0
 20
0.0
 30
0.0
  9
$USERI1
 70
     0
  9
$USERI2
 70
     0
  9
$USERI3
 70
     0
  9
$USERI4
 70
     0
  9
$USERI5
 70
     0
  9
$USERR1
 40
0.0
  9
$USERR2
 40
0.0
  9
$USERR3
 40
0.0
  9
$USERR4
 40
0.0
  9
$USERR5
 40
0.0
  9
$WORLDVIEW
 70
     1
  9
$SHADEDGE
 70
     3
  9
$SHADEDIF
 70
    70
  9
$TILEMODE
 70
     1
  9
$MAXACTVP
 70
    48
  9
$PINSBASE
 10
0.0
 20
0.0
 30
0.0
  9
$PLIMCHECK
 70
     0
  9
$PEXTMIN
 10
1.000000000000000E+20
 20
1.000000000000000E+20
 30
1.000000000000000E+20
  9
$PEXTMAX
 10
-1.000000000000000E+20
 20
-1.000000000000000E+20
 30
-1.000000000000000E+20
  9
$PLIMMIN
 10
0.0
 20
0.0
  9
$PLIMMAX
 10
12.0
 20
9.0
  9
$UNITMODE
 70
     0
  9
$VISRETAIN
 70
     1
  9
$PLINEGEN
 70
     0
  9
$PSLTSCALE
 70
     1
  9
$TREEDEPTH
 70
  3020
  9
$CMLSTYLE
  2
STANDARD
  9
$CMLJUST
 70
     0
  9
$CMLSCALE
 40
1.0
  9
$PROXYGRAPHICS
 70
     1
  9
$MEASUREMENT
 70
     1
  9
$CELWEIGHT
370
    -1
  9
$ENDCAPS
280
     0
  9
$JOINSTYLE
280
     0
  9
$LWDISPLAY
290
     0
  9
$INSUNITS
 70
     4
  9
$HYPERLINKBASE
  1

  9
$STYLESHEET
  1

  9
$XEDIT
290
     1
  9
$CEPSNTYPE
380
     0
  9
$PSTYLEMODE
290
     1
  9
$FINGERPRINTGUID
  2
{50EFFAD8-64C4-4ECE-B5F9-D75835C4177D}
  9
$VERSIONGUID
  2
{9A7031C7-F142-41C7-A140-8E1E1BDDEB49}
  9
$EXTNAMES
290
     1
  9
$PSVPSCALE
 40
0.0
  9
$OLESTARTUP
290
     0
  9
$SORTENTS
280
   127
  9
$INDEXCTL
280
     0
  9
$HIDETEXT
280
     1
  9
$XCLIPFRAME
280
     2
  9
$HALOGAP
280
     0
  9
$OBSCOLOR
 70
   257
  9
$OBSLTYPE
280
     0
  9
$INTERSECTIONDISPLAY
280
     0
  9
$INTERSECTIONCOLOR
 70
   257
  9
$DIMASSOC
280
     1
  9
$PROJECTNAME
  1

  9
$CAMERADISPLAY
290
     0
  9
$LENSLENGTH
 40
50.0
  9
$CAMERAHEIGHT
 40
0.0
  9
$STEPSPERSEC
 40
2.0
  9
$STEPSIZE
 40
6.0
  9
$3DDWFPREC
 40
2.0
  9
$PSOLWIDTH
 40
0.25
  9
$PSOLHEIGHT
 40
4.0
  9
$LOFTANG1
 40
1.570796326794896
  9
$LOFTANG2
 40
1.570796326794896
  9
$LOFTMAG1
 40
0.0
  9
$LOFTMAG2
 40
0.0
  9
$LOFTPARAM
 70
     7
  9
$LOFTNORMALS
280
     1
  9
$LATITUDE
 40
37.795
  9
$LONGITUDE
 40
-122.394
  9
$NORTHDIRECTION
 40
0.0
  9
$TIMEZONE
 70
 -8000
  9
$LIGHTGLYPHDISPLAY
280
     1
  9
$TILEMODELIGHTSYNCH
280
     1
  9
$CMATERIAL
347
23A
  9
$SOLIDHIST
280
     0
  9
$SHOWHIST
280
     1
  9
$DWFFRAME
280
     2
  9
$DGNFRAME
280
     0
  9
$REALWORLDSCALE
290
     1
  9
$INTERFERECOLOR
 62
     1
  9
$INTERFEREOBJVS
345
25C
  9
$INTERFEREVPVS
346
259
  9
$CSHADOW
280
     0
  9
$SHADOWPLANELOCATION
 40
0.0
  0
ENDSEC
  0
SECTION
  2
CLASSES
  0
CLASS
  1
ACDBDICTIONARYWDFLT
  2
AcDbDictionaryWithDefault
  3
ObjectDBX Classes
 90
        0
 91
        1
280
     0
281
     0
  0
CLASS
  1
ACME_DOCUMENT
  2
AcMeDbDoc
  3
AcMeServices
 90
     1024
 91
        2
280
     1
281
     0
  0
CLASS
  1
AMGSETTINGSOBJ
  2
AmgSettingsObj
  3
"AcadM|Product Description: AutoCAD Mechanical|Company: Autodesk, Inc."
 90
     1024
 91
        2
280
     1
281
     0
  0
CLASS
  1
ACMESCOPE
  2
AcMeScope
  3
AcMeServices
 90
     1024
 91
        1
280
     1
281
     0
  0
CLASS
  1
ACMECOMMANDHISTORY
  2
AcMeCommandHistory
  3
AcMeServices
 90
     1024
 91
        1
280
     1
281
     0
  0
CLASS
  1
ACIMSYSVARMAN
  2
AcImSysVarManager
  3
AcMeServices
 90
     1024
 91
        3
280
     1
281
     0
  0
CLASS
  1
ACIMREALSYSVAR
  2
AcImRealSysVar
  3
AcMeServices
 90
     1024
 91
        0
280
     1
281
     0
  0
CLASS
  1
ACIMINTSYSVAR
  2
AcImIntSysVar
  3
AcMeServices
 90
     1024
 91
        2
280
     1
281
     0
  0
CLASS
  1
ACMEDRAWINGMAN
  2
AcMeDrawingMan
  3
AcMeServices
 90
     1024
 91
        0
280
     1
281
     0
  0
CLASS
  1
ACMEVIEW
  2
AcMeView
  3
AcMeServices
 90
     1024
 91
        0
280
     1
281
     0
  0
CLASS
  1
ACDBENTITYCACHE
  2
AcMeEntityCache
  3
AcMeServices
 90
     1024
 91
        1
280
     1
281
     0
  0
CLASS
  1
GSMANAGER
  2
AcMeGSManager
  3
AcMeServices
 90
        0
 91
        0
280
     1
281
     0
  0
CLASS
  1
AMDTINTERNALREACTOR
  2
AmdtInternalReactor
  3
AcMeServices
 90
     1024
 91
        0
280
     1
281
     0
  0
CLASS
  1
ACMESTATEMGR
  2
AcMeStateMgr
  3
AcMeServices
 90
     1024
 91
        1
280
     1
281
     0
  0
CLASS
  1
ACGREFMASTER
  2
AcGrefMaster
  3
AcAttribServices
 90
     1024
 91
        1
280
     1
281
     0
  0
CLASS
  1
ACME_DATABASE
  2
AcMeDbDatabase
  3
AcMeServices
 90
     1024
 91
        1
280
     1
281
     0
  0
CLASS
  1
ACRFINSADJUSTERMGR
  2
AcRfInsAdjusterMgr
  3
AcMeServices
 90
     1024
 91
        1
280
     1
281
     0
  0
CLASS
  1
ACGREFACADMASTER
  2
AcGrefacadMaster
  3
AcGrefServices
 90
     1024
 91
        1
280
     1
281
     0
  0
CLASS
  1
AMIMASTER
  2
AmiMaster
  3
AmiServices
 90
     1024
 91
        1
280
     1
281
     0
  0
CLASS
  1
ACMDATADICTIONARY
  2
AcmDataDictionary
  3
"AcmSymBB|Product Description: AutoCAD Mechanical|Company: Autodesk, Inc."
 90
     1024
 91
        1
280
     1
281
     0
  0
CLASS
  1
ACMDATAENTRYBLOCK
  2
AcmDataEntryBlock
  3
AcmSymBB|Product Description: AutoCAD Mechanical|Company: Autodesk, Inc.
 90
     1024
 91
        0
280
     1
281
     0
  0
CLASS
  1
ACIMSTRSYSVAR
  2
AcImStrSysVar
  3
AcMeServices
 90
     1024
 91
        5
280
     1
281
     0
  0
CLASS
  1
ACMSTANDARDDIN
  2
AcmStandardDIN
  3
"Amdt_StdImp|Product Description: AutoCAD Mechanical|Company: Autodesk, Inc."
 90
     1024
 91
        1
280
     1
281
     0
  0
CLASS
  1
AMGOBJPROPCFG
  2
AmgObjPropCfg
  3
"AmgLay|Product Description: AutoCAD Mechanical|Company: Autodesk, Inc."
 90
     1025
 91
        1
280
     1
281
     0
  0
CLASS
  1
AMDTEDGESTANDARDDIN
  2
AmdtEdgeStdDIN
  3
"Amdt_StdImp|Product Description: AutoCAD Mechanical|Company: Autodesk, Inc."
 90
     1024
 91
        0
280
     1
281
     0
  0
CLASS
  1
ACMSURFSTANDARDDIN
  2
AcmSurfTextStdDIN
  3
"Amdt_StdImp|Product Description: AutoCAD Mechanical|Company: Autodesk, Inc."
 90
     1024
 91
        0
280
     1
281
     0
  0
CLASS
  1
ACMFCFSTANDARDDIN
  2
AcmFCFStdDIN
  3
"Amdt_StdImp|Product Description: AutoCAD Mechanical|Company: Autodesk, Inc."
 90
     1024
 91
        0
280
     1
281
     0
  0
CLASS
  1
ACMWELDSTANDARDDIN
  2
AcmWeldingStdDIN
  3
"Amdt_StdImp|Product Description: AutoCAD Mechanical|Company: Autodesk, Inc."
 90
     1024
 91
        1
280
     1
281
     0
  0
CLASS
  1
ACMIDSTANDARDDIN
  2
AcmIdStdDIN
  3
"Amdt_StdImp|Product Description: AutoCAD Mechanical|Company: Autodesk, Inc."
 90
     1024
 91
        0
280
     1
281
     0
  0
CLASS
  1
ACMDATUMSTANDARDDIN
  2
AcmDatumStdDIN
  3
"Amdt_StdImp|Product Description: AutoCAD Mechanical|Company: Autodesk, Inc."
 90
     1024
 91
        1
280
     1
281
     0
  0
CLASS
  1
ACMBOMSTANDARDDIN
  2
AcmBOMStdDIN
  3
"Amdt_StdImp|Product Description: AutoCAD Mechanical|Company: Autodesk, Inc."
 90
     1024
 91
        1
280
     1
281
     0
  0
CLASS
  1
ACMDETAILSTANDARDDIN
  2
AmdtDetailSymStdDIN
  3
"Amdt_StdImp|Product Description: AutoCAD Mechanical|Company: Autodesk, Inc."
 90
     1024
 91
        1
280
     1
281
     0
  0
CLASS
  1
ACMSECTIONSTANDARDDIN
  2
AmdtSectionSymStdDIN
  3
"Amdt_StdImp|Product Description: AutoCAD Mechanical|Company: Autodesk, Inc."
 90
     1024
 91
        1
280
     1
281
     0
  0
CLASS
  1
ACMCENTERLINESTANDARDDIN
  2
AmdtCenterLineStdDIN
  3
"Amdt_StdImp|Product Description: AutoCAD Mechanical|Company: Autodesk, Inc."
 90
     1024
 91
        1
280
     1
281
     0
  0
CLASS
  1
ACMNOTESTANDARDDIN
  2
AmdtNoteStdDIN
  3
"Amdt_StdImp|Product Description: AutoCAD Mechanical|Company: Autodesk, Inc."
 90
     1024
 91
        1
280
     1
281
     0
  0
CLASS
  1
ACAMGLAYSTD
  2
AcAmgLayStd
  3
"AmgLay|Product Description: AutoCAD Mechanical|Company: Autodesk, Inc."
 90
     1024
 91
        1
280
     1
281
     0
  0
CLASS
  1
ACAMGDIMSTD
  2
AcAmgDimStd
  3
"AmgDim|Product Description: AutoCAD Mechanical|Company: Autodesk, Inc."
 90
     1024
 91
        1
280
     1
281
     0
  0
CLASS
  1
ACAMGHOLECHARTSTDDIN
  2
AcAmgHoleChartStdDIN
  3
AmgDim|Product Description: AutoCAD Mechanical|Company: Autodesk, Inc.
 90
     1024
 91
        1
280
     1
281
     0
  0
CLASS
  1
ACAMGTITLESTD
  2
AcAmgTitleStd
  3
"AmgTitle|Product Description: AutoCAD Mechanical|Company: Autodesk, Inc."
 90
     4095
 91
        1
280
     1
281
     0
  0
CLASS
  1
ACAMGFILTERDAT
  2
AcAmgFilterDat
  3
"AcadM|Product Description: AutoCAD Mechanical|Company: Autodesk, Inc."
 90
     1024
 91
        6
280
     1
281
     0
  0
CLASS
  1
AMDTFORMULAUPDATEDISPATCHER
  2
AmdtFormulaUpdateDispatcher
  3
AcMeServices
 90
     1024
 91
        0
280
     1
281
     0
  0
CLASS
  1
LAYER_INDEX
  2
AcDbLayerIndex
  3
ObjectDBX Classes
 90
        0
 91
        0
280
     0
281
     0
  0
CLASS
  1
IDBUFFER
  2
AcDbIdBuffer
  3
ObjectDBX Classes
 90
        0
 91
        0
280
     0
281
     0
  0
CLASS
  1
DICTIONARYVAR
  2
AcDbDictionaryVar
  3
ObjectDBX Classes
 90
        0
 91
       10
280
     0
281
     0
  0
CLASS
  1
TABLESTYLE
  2
AcDbTableStyle
  3
ObjectDBX Classes
 90
     4095
 91
        1
280
     0
281
     0
  0
CLASS
  1
MATERIAL
  2
AcDbMaterial
  3
ObjectDBX Classes
 90
     1153
 91
        3
280
     0
281
     0
  0
CLASS
  1
VISUALSTYLE
  2
AcDbVisualStyle
  3
ObjectDBX Classes
 90
     4095
 91
       24
280
     0
281
     0
  0
CLASS
  1
SCALE
  2
AcDbScale
  3
ObjectDBX Classes
 90
     1153
 91
       17
280
     0
281
     0
  0
CLASS
  1
MLEADERSTYLE
  2
AcDbMLeaderStyle
  3
ACDB_MLEADERSTYLE_CLASS
 90
     4095
 91
        1
280
     0
281
     0
  0
CLASS
  1
AMDTMENUSTATEMGR
  2
AmdtMenuStateMgr
  3
McadcomServices
 90
     1024
 91
        1
280
     0
281
     0
  0
CLASS
  1
AMDTMCOMMENUSTATE
  2
AmdtMcomMenuState
  3
McadcomServices
 90
     1024
 91
        1
280
     0
281
     0
  0
CLASS
  1
MAPIAMMOUDLE
  2
MApiAmModule
  3
MApiAmServices
 90
     1024
 91
        1
280
     0
281
     0
  0
CLASS
  1
AMDTAMMENUSTATE
  2
AmdtAmMenuState
  3
DesignerAssemblies
 90
     1024
 91
        1
280
     0
281
     0
  0
CLASS
  1
ACAMPROJECT
  2
AcAmProject
  3
DesignerAssemblies
 90
     1024
 91
        1
280
     0
281
     0
  0
CLASS
  1
ACAMGRCOMPDEF
  2
AcAmGrCompDef
  3
DesignerAssemblies
 90
     1024
 91
        1
280
     0
281
     0
  0
CLASS
  1
ACAMCOMPDEF
  2
AcAmCompDef
  3
DesignerAssemblies
 90
     1024
 91
        1
280
     0
281
     0
  0
CLASS
  1
ACAMCOMPDEFMGR
  2
AcAmCompDefMgr
  3
DesignerAssemblies
 90
     1024
 91
        1
280
     0
281
     0
  0
CLASS
  1
AMCONTEXTMGR
  2
AcAmContextMgr
  3
DesignerAssemblies
 90
     1024
 91
        1
280
     0
281
     0
  0
CLASS
  1
ACAMCONTEXTMODELER
  2
AcAmContextModeler
  3
DesignerAssemblies
 90
     1024
 91
        1
280
     0
281
     0
  0
CLASS
  1
ACAMGRCOMPDEFSET
  2
AcAmGrCompDefSet
  3
DesignerAssemblies
 90
     1024
 91
        1
280
     0
281
     0
  0
CLASS
  1
AMDTBROWSERDBTAB
  2
AmdtBrowserDbTab
  3
McadcomServices
 90
     1024
 91
        1
280
     0
281
     0
  0
CLASS
  1
CBROWSERAPPOBJECT
  2
CBrowserAppObject
  3
McadcomServices
 90
     1024
 91
        2
280
     0
281
     0
  0
CLASS
  1
DM_PLACEHOLDER
  2
AcDmSelsetPlaceholder
  3
McadcomServices
 90
     1024
 91
        1
280
     0
281
     0
  0
CLASS
  1
AMDTEDGESTANDARDDIN13715
  2
AmdtEdgeStdDIN13715
  3
"Amdt_StdImp|Product Description: AutoCAD Mechanical|Company: Autodesk, Inc."
 90
     1024
 91
        1
280
     0
281
     0
  0
CLASS
  1
ACMSURFSTANDARDDIN2002
  2
AcmSurfTextStdDIN2002
  3
"Amdt_StdImp|Product Description: AutoCAD Mechanical|Company: Autodesk, Inc."
 90
     1024
 91
        1
280
     0
281
     0
  0
CLASS
  1
ACMFCFSTANDARDDIN2008
  2
AcmFCFStdDIN2008
  3
"Amdt_StdImp|Product Description: AutoCAD Mechanical|Company: Autodesk, Inc."
 90
     1024
 91
        1
280
     0
281
     0
  0
CLASS
  1
ACMIDSTANDARDDIN2008
  2
AcmIdStdDIN2008
  3
"Amdt_StdImp|Product Description: AutoCAD Mechanical|Company: Autodesk, Inc."
 90
     1024
 91
        1
280
     0
281
     0
  0
CLASS
  1
ACMTHREADLINESTANDARDDIN
  2
AmdtThreadLineStdDIN
  3
"Amdt_StdImp|Product Description: AutoCAD Mechanical|Company: Autodesk, Inc."
 90
     1024
 91
        1
280
     0
281
     0
  0
CLASS
  1
ACMTAPERSTANDARDDIN
  2
AcmTaperStdDIN
  3
"Amdt_StdImp|Product Description: AutoCAD Mechanical|Company: Autodesk, Inc."
 90
     1024
 91
        1
280
     0
281
     0
  0
CLASS
  1
ACMANOOTATIONVIEWSTANDARDDIN
  2
AmdtAnViewStdDIN
  3
"Amdt_StdImp|Product Description: AutoCAD Mechanical|Company: Autodesk, Inc."
 90
     1024
 91
        1
280
     0
281
     0
  0
CLASS
  1
AMDTNOTETEMPLATEDB
  2
AmdtNoteTemplateDB
  3
AcmSymBB|Product Description: AutoCAD Mechanical|Company: Autodesk, Inc.
 90
     1024
 91
        6
280
     0
281
     0
  0
CLASS
  1
CELLSTYLEMAP
  2
AcDbCellStyleMap
  3
ObjectDBX Classes
 90
     1152
 91
        1
280
     0
281
     0
  0
ENDSEC
  0
SECTION
  2
TABLES
  0
TABLE
  2
VPORT
  5
1A
330
0
100
AcDbSymbolTable
 70
     1
  0
VPORT
  5
232
330
1A
100
AcDbSymbolTableRecord
100
AcDbViewportTableRecord
  2
*Active
 70
     0
 10
0.0
 20
0.0
 11
1.0
 21
1.0
 12
162.2476936845639
 22
2393.775054094994
 13
0.0
 23
0.0
 14
280.5337337595501
 24
280.5337337595501
 15
10.0
 25
10.0
 16
0.0
 26
0.0
 36
1.0
 17
0.0
 27
0.0
 37
0.0
 40
687.7170654313158
 41
2.095291479820627
 42
50.0
 43
0.0
 44
0.0
 50
0.0
 51
0.0
 71
     0
 72
   100
 73
     1
 74
     1
 75
     0
 76
     0
 77
     0
 78
     0
281
     0
 65
     1
110
0.0
120
0.0
130
0.0
111
1.0
121
0.0
131
0.0
112
0.0
122
1.0
132
0.0
 79
     0
146
0.0
348
258
 60
     3
 61
     5
292
     1
282
     1
141
0.0
142
0.0
 63
   250
421
  3355443
1001
ACAD_NAV_VCDISPLAY
1070
     3
  0
ENDTAB
  0
TABLE
  2
LTYPE
  5
15
330
0
100
AcDbSymbolTable
 70
    21
  0
LTYPE
  5
16
330
15
100
AcDbSymbolTableRecord
100
AcDbLinetypeTableRecord
  2
BYBLOCK
 70
     0
  3

 72
    65
 73
     0
 40
0.0
  0
LTYPE
  5
17
330
15
100
AcDbSymbolTableRecord
100
AcDbLinetypeTableRecord
  2
BYLAYER
 70
     0
  3

 72
    65
 73
     0
 40
0.0
  0
LTYPE
  5
9
330
15
100
AcDbSymbolTableRecord
100
AcDbLinetypeTableRecord
  2
CONTINUOUS
 70
     0
  3
Solid line
 72
    65
 73
     0
 40
0.0
  0
LTYPE
  5
6B
330
15
100
AcDbSymbolTableRecord
100
AcDbLinetypeTableRecord
  2
MITTE2
 70
     0
  3
Mitte (.5x) ___ _ ___ _ ___ _ ___ _ ___ _ ___
 72
    65
 73
     4
 40
28.575
 49
19.05
 74
     0
 49
-3.174999999999999
 74
     0
 49
3.174999999999999
 74
     0
 49
-3.174999999999999
 74
     0
  0
LTYPE
  5
291
330
15
100
AcDbSymbolTableRecord
100
AcDbLinetypeTableRecord
  2
HIDDEN
 70
     0
  3
Hidden __ __ __ __ __ __ __ __ __ __ __ __ __ __
 72
    65
 73
     2
 40
9.525
 49
6.349999999999999
 74
     0
 49
-3.174999999999999
 74
     0
  0
LTYPE
  5
292
330
15
100
AcDbSymbolTableRecord
100
AcDbLinetypeTableRecord
  2
PHANTOM2
 70
     0
  3
Phantom (.5x) ___ _ _ ___ _ _ ___ _ _ ___ _ _
 72
    65
 73
     6
 40
31.75
 49
15.875
 74
     0
 49
-3.174999999999999
 74
     0
 49
3.174999999999999
 74
     0
 49
-3.174999999999999
 74
     0
 49
3.174999999999999
 74
     0
 49
-3.174999999999999
 74
     0
  0
LTYPE
  5
293
330
15
100
AcDbSymbolTableRecord
100
AcDbLinetypeTableRecord
  2
CENTER
 70
     0
  3
Center ____ _ ____ _ ____ _ ____ _ ____ _ ____
 72
    65
 73
     4
 40
50.8
 49
31.75
 74
     0
 49
-6.349999999999999
 74
     0
 49
6.349999999999999
 74
     0
 49
-6.349999999999999
 74
     0
  0
LTYPE
  5
2CE
330
15
100
AcDbSymbolTableRecord
100
AcDbLinetypeTableRecord
  2
AM_ISO02W050
 70
     0
  3
__ __ __ __ __ __ __ __ __ __ __ __ __ __ __
 72
    65
 73
     2
 40
7.5
 49
6.0
 74
     0
 49
-1.5
 74
     0
  0
LTYPE
  5
2CF
330
15
100
AcDbSymbolTableRecord
100
AcDbLinetypeTableRecord
  2
AM_ISO08W050
 70
     0
  3
____ . ____ . ____ . ____ . ____ . ____ . ____
 72
    65
 73
     4
 40
18.0
 49
12.0
 74
     0
 49
-1.5
 74
     0
 49
3.0
 74
     0
 49
-1.5
 74
     0
  0
LTYPE
  5
2D0
330
15
100
AcDbSymbolTableRecord
100
AcDbLinetypeTableRecord
  2
AM_ISO09W050
 70
     0
  3
_____ . . _____ . . _____ . . ____ .. ____
 72
    65
 73
     6
 40
22.5
 49
12.0
 74
     0
 49
-1.5
 74
     0
 49
3.0
 74
     0
 49
-1.5
 74
     0
 49
3.0
 74
     0
 49
-1.5
 74
     0
  0
LTYPE
  5
2D1
330
15
100
AcDbSymbolTableRecord
100
AcDbLinetypeTableRecord
  2
Amconstr
 70
     0
  3
_______________________
 72
    65
 73
     2
 40
9999.0
 49
9999.0
 74
     0
 49
0.0
 74
     0
  0
LTYPE
  5
2D2
330
15
100
AcDbSymbolTableRecord
100
AcDbLinetypeTableRecord
  2
AM_ISO08W050x2
 70
     0
  3
__ . __ . __ . __ . __ . __
 72
    65
 73
     4
 40
9.0
 49
6.0
 74
     0
 49
-0.75
 74
     0
 49
1.5
 74
     0
 49
-0.75
 74
     0
  0
LTYPE
  5
2D3
330
15
100
AcDbSymbolTableRecord
100
AcDbLinetypeTableRecord
  2
AM_ISO02W050x2
 70
     0
  3
 _ _ _ _ _ _ _ _ _ _ _ _
 72
    65
 73
     2
 40
3.75
 49
3.0
 74
     0
 49
-0.75
 74
     0
  0
LTYPE
  5
2D6
330
15
100
AcDbSymbolTableRecord
100
AcDbLinetypeTableRecord
  2
Amzigzag
 70
     0
  3
/\/-/\/-/\/-/\/-/\/-/\/
 72
    65
 73
     2
 40
11.0001
 49
0.0001
 74
     4
 75
   136
340
2D5
 46
0.04
 50
0.0
 44
0.0
 45
0.0
 49
-11.0
 74
     0
  0
LTYPE
  5
2D7
330
15
100
AcDbSymbolTableRecord
100
AcDbLinetypeTableRecord
  2
AM_DIN_F_W050
 70
     0
  3
__ __ __ __ __ __ __ __ __ __ __ __ __ __ __
 72
    65
 73
     2
 40
6.25
 49
4.75
 74
     0
 49
-1.5
 74
     0
  0
LTYPE
  5
2D8
330
15
100
AcDbSymbolTableRecord
100
AcDbLinetypeTableRecord
  2
AM_DIN_G_W050
 70
     0
  3
____ . ____ . ____ . ____ . ____ . ____ . ____
 72
    65
 73
     4
 40
13.75
 49
9.75
 74
     0
 49
-1.5
 74
     0
 49
1.0
 74
     0
 49
-1.5
 74
     0
  0
LTYPE
  5
2D9
330
15
100
AcDbSymbolTableRecord
100
AcDbLinetypeTableRecord
  2
AM_DIN_K_W050
 70
     0
  3
_____ . . _____ . . _____ . . ____ .. ____
 72
    65
 73
     6
 40
16.25
 49
9.75
 74
     0
 49
-1.5
 74
     0
 49
1.0
 74
     0
 49
-1.5
 74
     0
 49
1.0
 74
     0
 49
-1.5
 74
     0
  0
LTYPE
  5
2DA
330
15
100
AcDbSymbolTableRecord
100
AcDbLinetypeTableRecord
  2
AM_DIN_G_W050x2
 70
     0
  3
__ . __ . __ . __ . __ . __
 72
    65
 73
     4
 40
6.875
 49
4.75
 74
     0
 49
-0.875
 74
     0
 49
0.375
 74
     0
 49
-0.875
 74
     0
  0
LTYPE
  5
2DB
330
15
100
AcDbSymbolTableRecord
100
AcDbLinetypeTableRecord
  2
AM_DIN_F_W050x2
 70
     0
  3
 _ _ _ _ _ _ _ _ _ _ _ _
 72
    65
 73
     2
 40
3.125
 49
2.25
 74
     0
 49
-0.875
 74
     0
  0
LTYPE
  5
2EA
330
15
100
AcDbSymbolTableRecord
100
AcDbLinetypeTableRecord
  2
ACDINWELD
 70
     0
  3
_ _ _ _ _
 72
    65
 73
     2
 40
2.0
 49
2.0
 74
     0
 49
-1.0
 74
     0
  0
LTYPE
  5
2EB
330
15
100
AcDbSymbolTableRecord
100
AcDbLinetypeTableRecord
  2
ACDINTGL
 70
     0
  3
_ _ _ _ _
 72
    65
 73
     2
 40
3.0
 49
2.0
 74
     0
 49
-1.0
 74
     0
  0
LTYPE
  5
2EC
330
15
100
AcDbSymbolTableRecord
100
AcDbLinetypeTableRecord
  2
ACDINTGB
 70
     0
  3
__ . . __ . .
 72
    65
 73
     6
 40
9.0
 49
4.0
 74
     0
 49
-1.0
 74
     0
 49
1.0
 74
     0
 49
-1.0
 74
     0
 49
1.0
 74
     0
 49
-1.0
 74
     0
  0
ENDTAB
  0
TABLE
  2
LAYER
  5
11
330
0
100
AcDbSymbolTable
 70
     2
  0
LAYER
  5
5
102
{ACAD_XDICTIONARY
360
301
102
}
330
11
100
AcDbSymbolTableRecord
100
AcDbLayerTableRecord
  2
0
 70
     0
 62
     7
  6
CONTINUOUS
370
    -3
390
6
347
24A
  0
LAYER
  5
26
102
{ACAD_XDICTIONARY
360
303
102
}
330
11
100
AcDbSymbolTableRecord
100
AcDbLayerTableRecord
  2
Halfen
 70
     0
 62
     2
  6
CONTINUOUS
370
    -3
390
6
347
24A
  0
ENDTAB
  0
TABLE
  2
STYLE
  5
12
330
0
100
AcDbSymbolTable
 70
     5
  0
STYLE
  5
13
330
12
100
AcDbSymbolTableRecord
100
AcDbTextStyleTableRecord
  2
STANDARD
 70
     0
 40
0.0
 41
1.0
 50
0.0
 71
     0
 42
0.2
  3
ISOCP.SHX
  4

  0
STYLE
  5
27
330
12
100
AcDbSymbolTableRecord
100
AcDbTextStyleTableRecord
  2
ARIAL50
 70
     0
 40
5.0
 41
1.0
 50
0.0
 71
     0
 42
3.5
  3
ARIAL.TTF
  4

1001
ACAD
1000
Arial
1071
       34
  0
STYLE
  5
2D5
330
12
100
AcDbSymbolTableRecord
100
AcDbTextStyleTableRecord
  2

 70
     1
 40
0.0
 41
1.0
 50
0.0
 71
     0
 42
3.5
  3
genltshp.shx
  4

  0
STYLE
  5
2E8
330
12
100
AcDbSymbolTableRecord
100
AcDbTextStyleTableRecord
  2
ACDINTS
 70
     0
 40
1.0
 41
1.0
 50
0.0
 71
     0
 42
3.5
  3
isocp.shx
  4

  0
STYLE
  5
2E9
330
12
100
AcDbSymbolTableRecord
100
AcDbTextStyleTableRecord
  2
ACDINGDT
 70
     0
 40
0.0
 41
1.0
 50
0.0
 71
     0
 42
3.5
  3
amgdt.shx
  4

  0
ENDTAB
  0
TABLE
  2
VIEW
  5
18
330
0
100
AcDbSymbolTable
 70
     0
  0
ENDTAB
  0
TABLE
  2
UCS
  5
19
330
0
100
AcDbSymbolTable
 70
     0
  0
ENDTAB
  0
TABLE
  2
APPID
  5
1C
330
0
100
AcDbSymbolTable
 70
    10
  0
APPID
  5
1D
330
1C
100
AcDbSymbolTableRecord
100
AcDbRegAppTableRecord
  2
ACAD
 70
     0
  0
APPID
  5
21B
330
1C
100
AcDbSymbolTableRecord
100
AcDbRegAppTableRecord
  2
DCO15
 70
     0
  0
APPID
  5
28A
330
1C
100
AcDbSymbolTableRecord
100
AcDbRegAppTableRecord
  2
MCAD_NO_VIS
 70
     0
  0
APPID
  5
28B
330
1C
100
AcDbSymbolTableRecord
100
AcDbRegAppTableRecord
  2
ACAD_TEMP_GRAPHIC
 70
     0
  0
APPID
  5
298
330
1C
100
AcDbSymbolTableRecord
100
AcDbRegAppTableRecord
  2
ACATTRIBSERVICES
 70
     0
  0
APPID
  5
2B0
330
1C
100
AcDbSymbolTableRecord
100
AcDbRegAppTableRecord
  2
DESIGNERASSEMBLIES
 70
     0
  0
APPID
  5
2CB
330
1C
100
AcDbSymbolTableRecord
100
AcDbRegAppTableRecord
  2
ACAD_DSTYLE_DIMJAG
 70
     0
  0
APPID
  5
2CC
330
1C
100
AcDbSymbolTableRecord
100
AcDbRegAppTableRecord
  2
ACAD_DSTYLE_DIMBREAK
 70
     0
  0
APPID
  5
2F3
330
1C
100
AcDbSymbolTableRecord
100
AcDbRegAppTableRecord
  2
ACAD_NAV_VCDISPLAY
 70
     0
  0
APPID
  5
2FC
330
1C
100
AcDbSymbolTableRecord
100
AcDbRegAppTableRecord
  2
ACAD_EXEMPT_FROM_CAD_STANDARDS
 70
     0
  0
ENDTAB
  0
TABLE
  2
DIMSTYLE
  5
1E
330
0
100
AcDbSymbolTable
 70
     8
100
AcDbDimStyleTable
 71
     0
  0
DIMSTYLE
105
2A
330
1E
100
AcDbSymbolTableRecord
100
AcDbDimStyleTableRecord
  2
GEN-ISO
 70
     0
 41
2.5
 42
1.0
 43
10.0
 44
1.0
 47
0.1
 48
0.1
 73
     0
 74
     0
 77
     1
 78
     8
140
3.5
141
0.0
143
0.0393701
146
0.71
147
3.0
172
     1
176
     1
177
     1
178
     7
271
     1
272
     3
274
     4
283
     0
340
13
  0
DIMSTYLE
105
2CA
102
{ACAD_REACTORS
330
2B9
102
}
330
1E
100
AcDbSymbolTableRecord
100
AcDbDimStyleTableRecord
  2
AM_DIN
 70
     0
  4
"
 41
3.5
 42
1.0
 43
10.0
 44
1.0
 47
0.1
 48
0.1
 50
90.0
 73
     0
 74
     0
 77
     1
 78
     8
 79
     2
140
3.5
141
0.0
143
0.0393701
146
0.71
147
1.5
172
     1
176
   256
177
   256
178
     2
271
     2
272
     3
274
     4
283
     0
284
     8
340
13
345
16
346
16
347
16
371
    -1
372
    -1
1001
ACAD_DSTYLE_DIMJAG
1070
   388
1040
1.5
1001
ACAD_DSTYLE_DIMBREAK
1070
   391
1040
3.75
  0
DIMSTYLE
105
2DC
330
1E
100
AcDbSymbolTableRecord
100
AcDbDimStyleTableRecord
  2
AM_DIN$3
 70
     0
  4
"
 41
3.5
 42
1.0
 43
10.0
 44
1.0
 47
0.1
 48
0.1
 50
90.0
 73
     0
 77
     1
 78
     8
 79
     2
140
3.5
141
0.0
143
0.0393701
146
0.71
147
1.5
176
   256
177
   256
178
     2
271
     2
272
     3
274
     4
283
     0
284
     8
288
     1
289
     0
340
13
345
16
346
16
347
16
371
    -1
372
    -1
1001
ACAD_DSTYLE_DIMBREAK
1070
   391
1040
3.75
1001
ACAD_DSTYLE_DIMJAG
1070
   388
1040
1.5
  0
DIMSTYLE
105
2DD
330
1E
100
AcDbSymbolTableRecord
100
AcDbDimStyleTableRecord
  2
AM_DIN$4
 70
     0
  4
"
 41
3.5
 42
1.0
 43
10.0
 44
1.0
 47
0.1
 48
0.1
 50
90.0
 73
     0
 77
     1
 78
     8
 79
     2
140
3.5
141
0.0
143
0.0393701
146
0.71
147
1.5
176
   256
177
   256
178
     2
271
     2
272
     3
274
     4
283
     0
284
     8
288
     1
289
     0
340
13
345
16
346
16
347
16
371
    -1
372
    -1
1001
ACAD_DSTYLE_DIMBREAK
1070
   391
1040
3.75
1001
ACAD_DSTYLE_DIMJAG
1070
   388
1040
1.5
  0
DIMSTYLE
105
2DE
330
1E
100
AcDbSymbolTableRecord
100
AcDbDimStyleTableRecord
  2
AM_DIN$6
 70
     0
  4
"
 41
3.5
 42
1.0
 43
10.0
 44
1.0
 47
0.1
 48
0.1
 50
90.0
 73
     0
 74
     0
 78
     8
 79
     2
140
3.5
141
0.0
143
0.0393701
146
0.71
147
1.5
172
     1
176
   256
177
   256
178
     2
271
     2
272
     3
274
     4
283
     0
284
     8
340
13
345
16
346
16
347
16
371
    -1
372
    -1
1001
ACAD_DSTYLE_DIMBREAK
1070
   391
1040
3.75
1001
ACAD_DSTYLE_DIMJAG
1070
   388
1040
1.5
  0
DIMSTYLE
105
2DF
330
1E
100
AcDbSymbolTableRecord
100
AcDbDimStyleTableRecord
  2
AM_DIN$7
 70
     0
  4
"
 41
3.5
 42
1.0
 43
10.0
 44
1.0
 47
0.1
 48
0.1
 50
90.0
 73
     0
 74
     0
 77
     1
 78
     8
 79
     2
140
3.5
141
0.0
143
0.0393701
146
0.71
147
1.5
172
     1
176
   256
177
   256
178
     2
271
     2
272
     3
274
     4
283
     0
284
     8
340
13
345
16
346
16
347
16
371
    -1
372
    -1
1001
ACAD_DSTYLE_DIMBREAK
1070
   391
1040
3.75
1001
ACAD_DSTYLE_DIMJAG
1070
   388
1040
1.5
  0
DIMSTYLE
105
2E0
330
1E
100
AcDbSymbolTableRecord
100
AcDbDimStyleTableRecord
  2
AM_DIN$SF
 70
     0
  4
"
 41
3.5
 42
1.0
 43
10.0
 44
1.0
 47
0.1
 48
0.1
 50
90.0
 73
     0
 74
     0
 75
     1
 76
     1
 77
     1
 78
     8
 79
     2
140
3.5
141
0.0
143
0.0393701
146
0.71
147
1.5
172
     1
176
   256
177
   256
178
     2
271
     2
272
     3
274
     4
283
     0
284
     8
340
13
345
16
346
16
347
16
371
    -1
372
    -1
1001
ACAD_DSTYLE_DIMBREAK
1070
   391
1040
3.75
1001
ACAD_DSTYLE_DIMJAG
1070
   388
1040
1.5
  0
DIMSTYLE
105
2E5
330
1E
100
AcDbSymbolTableRecord
100
AcDbDimStyleTableRecord
  2
AM_DIN$SH
 70
     0
  4
"
 41
3.5
 42
1.0
 43
10.0
 44
1.0
 47
0.1
 48
0.1
 50
90.0
 73
     0
 74
     0
 75
     1
 76
     1
 77
     1
 78
     8
 79
     2
140
3.5
141
0.0
143
0.0393701
144
2.0
146
0.71
147
1.5
172
     1
173
     1
176
   256
177
   256
178
     2
271
     2
272
     3
274
     4
283
     0
284
     8
340
13
343
2E1
345
16
346
16
347
16
371
    -1
372
    -1
1001
ACAD_DSTYLE_DIMBREAK
1070
   391
1040
3.75
1001
ACAD_DSTYLE_DIMJAG
1070
   388
1040
1.5
  0
ENDTAB
  0
TABLE
  2
BLOCK_RECORD
  5
1
330
0
100
AcDbSymbolTable
 70
     2
  0
BLOCK_RECORD
  5
2
102
{ACAD_XDICTIONARY
360
3
102
}
330
1
100
AcDbSymbolTableRecord
100
AcDbBlockTableRecord
  2
*MODEL_SPACE
340
B
 70
     0
280
     1
281
     0
  0
BLOCK_RECORD
  5
D
330
1
100
AcDbSymbolTableRecord
100
AcDbBlockTableRecord
  2
*PAPER_SPACE
340
10
 70
     0
280
     1
281
     0
  0
BLOCK_RECORD
  5
2E1
330
1
100
AcDbSymbolTableRecord
100
AcDbBlockTableRecord
  2
GENAXEH
340
0
 70
     0
280
     1
281
     0
  0
ENDTAB
  0
ENDSEC
  0
SECTION
  2
BLOCKS
  0
BLOCK
  5
4
330
2
100
AcDbEntity
  8
0
100
AcDbBlockBegin
  2
*MODEL_SPACE
 70
     0
 10
0.0
 20
0.0
 30
0.0
  3
*MODEL_SPACE
  1

  0
ENDBLK
  5
A
330
2
100
AcDbEntity
  8
0
100
AcDbBlockEnd
  0
BLOCK
  5
E
330
D
100
AcDbEntity
 67
     1
  8
0
100
AcDbBlockBegin
  2
*PAPER_SPACE
 70
     0
 10
0.0
 20
0.0
 30
0.0
  3
*PAPER_SPACE
  1

  0
ENDBLK
  5
F
330
D
100
AcDbEntity
 67
     1
  8
0
100
AcDbBlockEnd
  0
BLOCK
  5
2E3
330
2E1
100
AcDbEntity
  8
0
100
AcDbBlockBegin
  2
GENAXEH
 70
     0
 10
0.0
 20
0.0
 30
0.0
  3
GENAXEH
  1

  0
LINE
  5
2E2
330
2E1
100
AcDbEntity
  8
0
100
AcDbLine
 10
-1.0
 20
0.0
 30
0.0
 11
1.0
 21
0.0
 31
0.0
  0
ENDBLK
  5
2E4
330
2E1
100
AcDbEntity
  8
0
100
AcDbBlockEnd
  0
ENDSEC
  0
SECTION
  2
ENTITIES
  0
LINE
  5
2B
330
2
100
AcDbEntity
  8
Halfen
100
AcDbLine
 10
2.25
 20
2707.249999999998
 30
0.0
 11
162.25
 21
2707.249999999998
 31
0.0
  0
LINE
  5
2C
330
2
100
AcDbEntity
  8
Halfen
100
AcDbLine
 10
2.25
 20
2717.249999999998
 30
0.0
 11
162.25
 21
2717.249999999998
 31
0.0
  0
LINE
  5
2D
330
2
100
AcDbEntity
  8
Halfen
100
AcDbLine
 10
2.25
 20
2735.249999999998
 30
0.0
 11
162.25
 21
2735.249999999998
 31
0.0
  0
TEXT
  5
2E
330
2
100
AcDbEntity
  8
Halfen
100
AcDbText
 10
7.25
 20
2727.749999999999
 30
0.0
 40
5.0
  1
Benennung
  7
ARIAL50
100
AcDbText
  0
LINE
  5
2F
330
2
100
AcDbEntity
  8
Halfen
100
AcDbLine
 10
2.25
 20
2707.249999999998
 30
0.0
 11
2.25
 21
2735.249999999998
 31
0.0
  0
TEXT
  5
30
330
2
100
AcDbEntity
  8
Halfen
100
AcDbText
 10
7.25
 20
2709.749999999998
 30
0.0
 40
5.0
  1
Id. Nr.
  7
ARIAL50
100
AcDbText
  0
TEXT
  5
31
330
2
100
AcDbEntity
  8
Halfen
100
AcDbText
 10
57.25
 20
2727.749999999999
 30
0.0
 40
5.0
  1
HGB - E - 49/30 - 150 - A4
  7
ARIAL50
100
AcDbText
  0
TEXT
  5
32
330
2
100
AcDbEntity
  8
Halfen
100
AcDbText
 10
57.25
 20
2709.749999999998
 30
0.0
 40
5.0
  1
0003.030-00003
  7
ARIAL50
100
AcDbText
  0
LINE
  5
33
330
2
100
AcDbEntity
  8
Halfen
100
AcDbLine
 10
52.25
 20
2707.249999999998
 30
0.0
 11
52.25
 21
2735.249999999998
 31
0.0
  0
LINE
  5
34
330
2
100
AcDbEntity
  8
Halfen
100
AcDbLine
 10
162.25
 20
2707.249999999998
 30
0.0
 11
162.25
 21
2735.249999999998
 31
0.0
  0
TEXT
  5
35
330
2
100
AcDbEntity
  8
Halfen
100
AcDbText
 10
-162.75
 20
2411.318802874853
 30
0.0
 40
5.0
  1
0003.070-00001
  7
ARIAL50
100
AcDbText
  0
TEXT
  5
36
330
2
100
AcDbEntity
  8
Halfen
100
AcDbText
 10
-162.75
 20
2429.318802874853
 30
0.0
 40
5.0
  1
HGB - EE - 49/30 - 170/170 - A4
  7
ARIAL50
100
AcDbText
  0
LINE
  5
37
330
2
100
AcDbEntity
  8
Halfen
100
AcDbLine
 10
-217.75
 20
2408.818802874853
 30
0.0
 11
-57.75
 21
2408.818802874853
 31
0.0
  0
LINE
  5
38
330
2
100
AcDbEntity
  8
Halfen
100
AcDbLine
 10
-217.75
 20
2418.818802874853
 30
0.0
 11
-57.75
 21
2418.818802874853
 31
0.0
  0
LINE
  5
39
330
2
100
AcDbEntity
  8
Halfen
100
AcDbLine
 10
-217.75
 20
2436.818802874853
 30
0.0
 11
-57.75
 21
2436.818802874853
 31
0.0
  0
TEXT
  5
3A
330
2
100
AcDbEntity
  8
Halfen
100
AcDbText
 10
-212.75
 20
2429.318802874853
 30
0.0
 40
5.0
  1
Benennung
  7
ARIAL50
100
AcDbText
  0
TEXT
  5
3B
330
2
100
AcDbEntity
  8
Halfen
100
AcDbText
 10
-212.75
 20
2411.318802874853
 30
0.0
 40
5.0
  1
Id. Nr.
  7
ARIAL50
100
AcDbText
  0
LINE
  5
3C
330
2
100
AcDbEntity
  8
Halfen
100
AcDbLine
 10
-217.75
 20
2408.818802874853
 30
0.0
 11
-217.75
 21
2436.818802874853
 31
0.0
  0
LINE
  5
3D
330
2
100
AcDbEntity
  8
Halfen
100
AcDbLine
 10
-167.75
 20
2408.818802874853
 30
0.0
 11
-167.75
 21
2436.818802874853
 31
0.0
  0
LINE
  5
3E
330
2
100
AcDbEntity
  8
Halfen
100
AcDbLine
 10
-57.75
 20
2408.818802874853
 30
0.0
 11
-57.75
 21
2436.818802874853
 31
0.0
  0
TEXT
  5
3F
330
2
100
AcDbEntity
  8
Halfen
100
AcDbText
 10
327.25
 20
2709.749999999998
 30
0.0
 40
5.0
  1
0003.030-00004
  7
ARIAL50
100
AcDbText
  0
TEXT
  5
40
330
2
100
AcDbEntity
  8
Halfen
100
AcDbText
 10
327.25
 20
2727.749999999999
 30
0.0
 40
5.0
  1
HGB - E - 49/30 - 200 - A4
  7
ARIAL50
100
AcDbText
  0
LINE
  5
41
330
2
100
AcDbEntity
  8
Halfen
100
AcDbLine
 10
272.25
 20
2735.249999999998
 30
0.0
 11
432.2499999999999
 21
2735.249999999998
 31
0.0
  0
LINE
  5
42
330
2
100
AcDbEntity
  8
Halfen
100
AcDbLine
 10
272.25
 20
2717.249999999998
 30
0.0
 11
432.2499999999999
 21
2717.249999999998
 31
0.0
  0
LINE
  5
43
330
2
100
AcDbEntity
  8
Halfen
100
AcDbLine
 10
272.25
 20
2707.249999999998
 30
0.0
 11
432.2499999999999
 21
2707.249999999998
 31
0.0
  0
TEXT
  5
44
330
2
100
AcDbEntity
  8
Halfen
100
AcDbText
 10
277.25
 20
2727.749999999999
 30
0.0
 40
5.0
  1
Benennung
  7
ARIAL50
100
AcDbText
  0
TEXT
  5
45
330
2
100
AcDbEntity
  8
Halfen
100
AcDbText
 10
277.25
 20
2709.749999999998
 30
0.0
 40
5.0
  1
Id. Nr.
  7
ARIAL50
100
AcDbText
  0
LINE
  5
46
330
2
100
AcDbEntity
  8
Halfen
100
AcDbLine
 10
322.25
 20
2707.249999999998
 30
0.0
 11
322.25
 21
2735.249999999998
 31
0.0
  0
LINE
  5
47
330
2
100
AcDbEntity
  8
Halfen
100
AcDbLine
 10
432.2499999999999
 20
2707.249999999998
 30
0.0
 11
432.2499999999999
 21
2735.249999999998
 31
0.0
  0
LINE
  5
48
330
2
100
AcDbEntity
  8
Halfen
100
AcDbLine
 10
272.25
 20
2707.249999999998
 30
0.0
 11
272.25
 21
2735.249999999998
 31
0.0
  0
LINE
  5
49
330
2
100
AcDbEntity
  8
Halfen
100
AcDbLine
 10
-217.75
 20
2735.249999999998
 30
0.0
 11
-57.75
 21
2735.249999999998
 31
0.0
  0
LINE
  5
4A
330
2
100
AcDbEntity
  8
Halfen
100
AcDbLine
 10
-217.75
 20
2717.249999999998
 30
0.0
 11
-57.75
 21
2717.249999999998
 31
0.0
  0
LINE
  5
4B
330
2
100
AcDbEntity
  8
Halfen
100
AcDbLine
 10
-217.75
 20
2707.249999999998
 30
0.0
 11
-57.75
 21
2707.249999999998
 31
0.0
  0
TEXT
  5
4C
330
2
100
AcDbEntity
  8
Halfen
100
AcDbText
 10
-162.75
 20
2727.749999999999
 30
0.0
 40
5.0
  1
HGB - E - 49/30 - 100 - A4
  7
ARIAL50
100
AcDbText
  0
TEXT
  5
4D
330
2
100
AcDbEntity
  8
Halfen
100
AcDbText
 10
-162.75
 20
2709.749999999998
 30
0.0
 40
5.0
  1
0003.030-00001
  7
ARIAL50
100
AcDbText
  0
TEXT
  5
4E
330
2
100
AcDbEntity
  8
Halfen
100
AcDbText
 10
-212.75
 20
2709.749999999998
 30
0.0
 40
5.0
  1
Id. Nr.
  7
ARIAL50
100
AcDbText
  0
TEXT
  5
4F
330
2
100
AcDbEntity
  8
Halfen
100
AcDbText
 10
-212.75
 20
2727.749999999999
 30
0.0
 40
5.0
  1
Benennung
  7
ARIAL50
100
AcDbText
  0
LINE
  5
50
330
2
100
AcDbEntity
  8
Halfen
100
AcDbLine
 10
-217.75
 20
2707.249999999998
 30
0.0
 11
-217.75
 21
2735.249999999998
 31
0.0
  0
LINE
  5
51
330
2
100
AcDbEntity
  8
Halfen
100
AcDbLine
 10
-167.75
 20
2707.249999999998
 30
0.0
 11
-167.75
 21
2735.249999999998
 31
0.0
  0
LINE
  5
52
330
2
100
AcDbEntity
  8
Halfen
100
AcDbLine
 10
-57.75
 20
2707.249999999998
 30
0.0
 11
-57.75
 21
2735.249999999998
 31
0.0
  0
LINE
  5
53
330
2
100
AcDbEntity
  8
Halfen
100
AcDbLine
 10
-185.7500000008053
 20
2366.898492658071
 30
0.0
 11
-185.7500000008053
 21
2290.832475480089
 31
0.0
  0
LINE
  5
54
330
2
100
AcDbEntity
  8
Halfen
100
AcDbLine
 10
-199.7500000008053
 20
2366.898492658071
 30
0.0
 11
-199.7500000008058
 21
2290.832475480089
 31
0.0
  0
ARC
  5
55
330
2
100
AcDbEntity
  8
Halfen
 62
     1
100
AcDbCircle
 10
-181.388584195129
 20
2316.055976926313
 30
0.0
 40
18.32517874770211
100
AcDbArc
 50
108.0058901692794
 51
153.3319217269807
  0
ARC
  5
56
330
2
100
AcDbEntity
  8
Halfen
 62
     1
100
AcDbCircle
 10
-203.4289427396469
 20
2341.708403997779
 30
0.0
 40
18.32517874770211
100
AcDbArc
 50
288.0058901692783
 51
333.3319217269795
  0
ARC
  5
57
330
2
100
AcDbEntity
  8
Halfen
 62
     1
100
AcDbCircle
 10
-181.3885841951299
 20
2301.055976926313
 30
0.0
 40
18.32517874770211
100
AcDbArc
 50
108.0058901692794
 51
153.3319217269807
  0
ARC
  5
58
330
2
100
AcDbEntity
  8
Halfen
 62
     1
100
AcDbCircle
 10
-203.4289427396478
 20
2326.708403997779
 30
0.0
 40
18.32517874770211
100
AcDbArc
 50
288.0058901692783
 51
333.3319217269795
  0
ARC
  5
59
330
2
100
AcDbEntity
  8
Halfen
 62
     1
100
AcDbCircle
 10
-181.3885841951299
 20
2286.055976926314
 30
0.0
 40
18.32517874770211
100
AcDbArc
 50
108.0058901692794
 51
153.3319217269807
  0
ARC
  5
5A
330
2
100
AcDbEntity
  8
Halfen
 62
     1
100
AcDbCircle
 10
-203.4289427396482
 20
2311.708403997779
 30
0.0
 40
18.32517874770211
100
AcDbArc
 50
288.0058901692783
 51
333.3319217269795
  0
ARC
  5
5B
330
2
100
AcDbEntity
  8
Halfen
 62
     1
100
AcDbCircle
 10
-181.388584195129
 20
2346.055976926313
 30
0.0
 40
18.32517874770211
100
AcDbArc
 50
108.0058901692794
 51
153.3319217269807
  0
ARC
  5
5C
330
2
100
AcDbEntity
  8
Halfen
 62
     1
100
AcDbCircle
 10
-203.4289427396469
 20
2371.708403997779
 30
0.0
 40
18.32517874770211
100
AcDbArc
 50
288.0058901692783
 51
333.3319217269795
  0
ARC
  5
5D
330
2
100
AcDbEntity
  8
Halfen
 62
     1
100
AcDbCircle
 10
-181.388584195129
 20
2331.055976926313
 30
0.0
 40
18.32517874770211
100
AcDbArc
 50
108.0058901692794
 51
153.3319217269807
  0
ARC
  5
5E
330
2
100
AcDbEntity
  8
Halfen
 62
     1
100
AcDbCircle
 10
-203.4289427396469
 20
2356.708403997779
 30
0.0
 40
18.32517874770211
100
AcDbArc
 50
288.0058901692783
 51
333.3319217269795
  0
ELLIPSE
  5
5F
330
2
100
AcDbEntity
  8
Halfen
100
AcDbEllipse
 10
-192.7500000008053
 20
2370.434026564003
 30
0.0
 11
21.0
 21
-0.0000000000000013
 31
0.0
210
0.0
220
0.0
230
1.0
 40
0.7071067811865479
 41
5.052225889838811
 42
10.65573737811015
  0
LINE
  5
60
330
2
100
AcDbEntity
  8
Halfen
100
AcDbLine
 10
-213.7500000008054
 20
2373.969560469936
 30
0.0
 11
-213.7500000008054
 21
2370.434026564003
 31
0.0
  0
LINE
  5
61
330
2
100
AcDbEntity
  8
Halfen
100
AcDbLine
 10
-171.7500000008053
 20
2373.969560469936
 30
0.0
 11
-171.7500000008053
 21
2370.434026564003
 31
0.0
  0
ELLIPSE
  5
62
330
2
100
AcDbEntity
  8
Halfen
100
AcDbEllipse
 10
-192.7500000008053
 20
2373.969560469936
 30
0.0
 11
-21.0
 21
0.0000000000000013
 31
0.0
210
0.0
220
0.0
230
1.0
 40
0.7071067811865479
 41
3.141592653589793
 42
6.283185307179586
  0
ELLIPSE
  5
63
330
2
100
AcDbEntity
  8
Halfen
100
AcDbEllipse
 10
-192.7500000008053
 20
2366.898492658071
 30
0.0
 11
-7.0
 21
0.0000000000000004
 31
0.0
210
0.0
220
0.0
230
1.0
 40
0.7071067811866831
 41
3.141592653589793
 42
6.283185307179586
  0
LINE
  5
64
330
2
100
AcDbEntity
  8
Halfen
100
AcDbLine
 10
-147.7499999999999
 20
2547.249999999998
 30
0.0
 11
-47.75
 21
2547.249999999997
 31
0.0
  0
LINE
  5
65
330
2
100
AcDbEntity
  8
Halfen
100
AcDbLine
 10
-147.7499999999999
 20
2577.249999999998
 30
0.0
 11
-47.75
 21
2577.249999999998
 31
0.0
  0
LINE
  5
66
330
2
100
AcDbEntity
  8
Halfen
100
AcDbLine
 10
-147.7499999999999
 20
2478.818802874853
 30
0.0
 11
-47.75
 21
2478.818802874853
 31
0.0
  0
LINE
  5
67
330
2
100
AcDbEntity
  8
Halfen
100
AcDbLine
 10
-147.7499999999999
 20
2492.818802874853
 30
0.0
 11
-47.75
 21
2492.818802874854
 31
0.0
  0
LINE
  5
68
330
2
100
AcDbEntity
  8
Halfen
100
AcDbLine
 10
-147.7499999999999
 20
2514.818802874853
 30
0.0
 11
-47.75
 21
2514.818802874853
 31
0.0
  0
LINE
  5
69
330
2
100
AcDbEntity
  8
Halfen
100
AcDbLine
 10
-147.7499999999999
 20
2528.818802874853
 30
0.0
 11
-47.75
 21
2528.818802874852
 31
0.0
  0
LINE
  5
6A
330
2
100
AcDbEntity
  8
Halfen
  6
MITTE2
 62
     1
100
AcDbLine
 10
-192.8379634336528
 20
2687.249999999998
 30
0.0
 11
-192.8379634336529
 21
2547.249999999998
 31
0.0
  0
LINE
  5
6C
330
2
100
AcDbEntity
  8
Halfen
100
AcDbLine
 10
-147.7499999999999
 20
2528.818802874853
 30
0.0
 11
-147.7499999999999
 21
2478.818802874853
 31
0.0
  0
ARC
  5
6D
330
2
100
AcDbEntity
  8
Halfen
100
AcDbCircle
 10
-213.0000000000001
 20
2551.999999999998
 30
0.0
 40
4.75
100
AcDbArc
 50
180.0
 51
299.9999999999945
  0
ARC
  5
6E
330
2
100
AcDbEntity
  8
Halfen
100
AcDbCircle
 10
-172.4999999999999
 20
2551.999999999998
 30
0.0
 40
4.75
100
AcDbArc
 50
240.0000000000055
 51
0.0
  0
LINE
  5
6F
330
2
100
AcDbEntity
  8
Halfen
100
AcDbLine
 10
-212.25
 20
2550.700961894321
 30
0.0
 11
-205.375
 21
2554.670244995
 31
0.0
  0
LINE
  5
70
330
2
100
AcDbEntity
  8
Halfen
100
AcDbLine
 10
-210.6250000000001
 20
2547.886379332021
 30
0.0
 11
-203.75
 21
2551.8556624327
 31
0.0
  0
LINE
  5
71
330
2
100
AcDbEntity
  8
Halfen
100
AcDbLine
 10
-213.5
 20
2577.249999999998
 30
0.0
 11
-171.9999999999999
 21
2577.249999999998
 31
0.0
  0
LINE
  5
72
330
2
100
AcDbEntity
  8
Halfen
100
AcDbLine
 10
-213.5
 20
2573.999999999998
 30
0.0
 11
-171.9999999999999
 21
2573.999999999998
 31
0.0
  0
ARC
  5
73
330
2
100
AcDbEntity
  8
Halfen
100
AcDbCircle
 10
-213.5
 20
2572.999999999998
 30
0.0
 40
1.0
100
AcDbArc
 50
90.0
 51
180.0
  0
ARC
  5
74
330
2
100
AcDbEntity
  8
Halfen
100
AcDbCircle
 10
-213.0000000000001
 20
2551.999999999998
 30
0.0
 40
1.5
100
AcDbArc
 50
180.0
 51
299.9999999999945
  0
LINE
  5
75
330
2
100
AcDbEntity
  8
Halfen
100
AcDbLine
 10
-214.5
 20
2572.999999999998
 30
0.0
 11
-214.5
 21
2551.999999999998
 31
0.0
  0
LINE
  5
76
330
2
100
AcDbEntity
  8
Halfen
100
AcDbLine
 10
-217.75
 20
2572.999999999998
 30
0.0
 11
-217.75
 21
2551.999999999998
 31
0.0
  0
ARC
  5
77
330
2
100
AcDbEntity
  8
Halfen
100
AcDbCircle
 10
-213.5
 20
2572.999999999998
 30
0.0
 40
4.25
100
AcDbArc
 50
90.0
 51
180.0
  0
LINE
  5
78
330
2
100
AcDbEntity
  8
Halfen
100
AcDbLine
 10
-147.7499999999999
 20
2577.249999999998
 30
0.0
 11
-147.7499999999999
 21
2547.249999999998
 31
0.0
  0
LINE
  5
79
330
2
100
AcDbEntity
  8
Halfen
100
AcDbLine
 10
-170.9999999999999
 20
2572.999999999998
 30
0.0
 11
-170.9999999999999
 21
2551.999999999998
 31
0.0
  0
LINE
  5
7A
330
2
100
AcDbEntity
  8
Halfen
100
AcDbLine
 10
-167.7499999999999
 20
2572.999999999998
 30
0.0
 11
-167.7499999999999
 21
2551.999999999998
 31
0.0
  0
LINE
  5
7B
330
2
100
AcDbEntity
  8
Halfen
100
AcDbLine
 10
-174.8749999999999
 20
2547.886379332021
 30
0.0
 11
-181.7499999999999
 21
2551.8556624327
 31
0.0
  0
LINE
  5
7C
330
2
100
AcDbEntity
  8
Halfen
100
AcDbLine
 10
-181.7499999999999
 20
2551.8556624327
 30
0.0
 11
-180.1249999999999
 21
2554.670244995
 31
0.0
  0
LINE
  5
7D
330
2
100
AcDbEntity
  8
Halfen
100
AcDbLine
 10
-173.2499999999999
 20
2550.700961894321
 30
0.0
 11
-180.1249999999999
 21
2554.670244995
 31
0.0
  0
LINE
  5
7E
330
2
100
AcDbEntity
  8
Halfen
100
AcDbLine
 10
-203.75
 20
2551.8556624327
 30
0.0
 11
-205.375
 21
2554.670244995
 31
0.0
  0
ARC
  5
7F
330
2
100
AcDbEntity
  8
Halfen
100
AcDbCircle
 10
-172.4999999999999
 20
2551.999999999998
 30
0.0
 40
1.5
100
AcDbArc
 50
240.0000000000055
 51
0.0
  0
ARC
  5
80
330
2
100
AcDbEntity
  8
Halfen
100
AcDbCircle
 10
-171.9999999999999
 20
2572.999999999998
 30
0.0
 40
4.25
100
AcDbArc
 50
0.0
 51
90.0
  0
ARC
  5
81
330
2
100
AcDbEntity
  8
Halfen
100
AcDbCircle
 10
-171.9999999999999
 20
2572.999999999998
 30
0.0
 40
1.0
100
AcDbArc
 50
0.0
 51
90.0
  0
LINE
  5
82
330
2
100
AcDbEntity
  8
Halfen
100
AcDbLine
 10
-47.75
 20
2528.818802874852
 30
0.0
 11
-47.75
 21
2478.818802874853
 31
0.0
  0
LINE
  5
83
330
2
100
AcDbEntity
  8
Halfen
100
AcDbLine
 10
-47.75
 20
2551.999999999998
 30
0.0
 11
-47.75
 21
2547.249999999997
 31
0.0
  0
LINE
  5
84
330
2
100
AcDbEntity
  8
Halfen
100
AcDbLine
 10
-47.75
 20
2577.249999999998
 30
0.0
 11
-47.75
 21
2551.999999999998
 31
0.0
  0
LINE
  5
85
330
2
100
AcDbEntity
  8
Halfen
100
AcDbLine
 10
-140.662036566347
 20
2687.249999999998
 30
0.0
 11
-104.662036566347
 21
2687.249999999998
 31
0.0
  0
LINE
  5
86
330
2
100
AcDbEntity
  8
Halfen
100
AcDbLine
 10
-140.662036566347
 20
2683.249999999998
 30
0.0
 11
-104.662036566347
 21
2683.249999999998
 31
0.0
  0
LINE
  5
87
330
2
100
AcDbEntity
  8
Halfen
100
AcDbLine
 10
-128.662036566347
 20
2678.749999999998
 30
0.0
 11
-116.662036566347
 21
2678.749999999998
 31
0.0
  0
LINE
  5
88
330
2
100
AcDbEntity
  8
Halfen
100
AcDbLine
 10
-116.662036566347
 20
2678.749999999998
 30
0.0
 11
-116.662036566347
 21
2577.249999999998
 31
0.0
  0
LINE
  5
89
330
2
100
AcDbEntity
  8
Halfen
100
AcDbLine
 10
-128.662036566347
 20
2678.749999999998
 30
0.0
 11
-128.662036566347
 21
2577.249999999998
 31
0.0
  0
LINE
  5
8A
330
2
100
AcDbEntity
  8
Halfen
100
AcDbLine
 10
-116.662036566347
 20
2678.749999999998
 30
0.0
 11
-104.662036566347
 21
2683.249999999998
 31
0.0
  0
LINE
  5
8B
330
2
100
AcDbEntity
  8
Halfen
100
AcDbLine
 10
-104.662036566347
 20
2683.249999999998
 30
0.0
 11
-104.662036566347
 21
2687.249999999998
 31
0.0
  0
LINE
  5
8C
330
2
100
AcDbEntity
  8
Halfen
100
AcDbLine
 10
-128.662036566347
 20
2678.749999999998
 30
0.0
 11
-140.662036566347
 21
2683.249999999998
 31
0.0
  0
LINE
  5
8D
330
2
100
AcDbEntity
  8
Halfen
100
AcDbLine
 10
-140.662036566347
 20
2683.249999999998
 30
0.0
 11
-140.662036566347
 21
2687.249999999998
 31
0.0
  0
ARC
  5
8E
330
2
100
AcDbEntity
  8
Halfen
 62
     1
100
AcDbCircle
 10
-113.0180276465715
 20
2610.326359642002
 30
0.0
 40
15.57640193554679
100
AcDbArc
 50
108.0058901692794
 51
153.3319217269807
  0
ARC
  5
8F
330
2
100
AcDbEntity
  8
Halfen
 62
     1
100
AcDbCircle
 10
-131.7523324094117
 20
2632.130922652748
 30
0.0
 40
15.57640193554679
100
AcDbArc
 50
288.0058901692783
 51
333.3319217269795
  0
ARC
  5
90
330
2
100
AcDbEntity
  8
Halfen
 62
     1
100
AcDbCircle
 10
-113.0180276465718
 20
2597.576359642002
 30
0.0
 40
15.57640193554679
100
AcDbArc
 50
108.0058901692794
 51
153.3319217269807
  0
ARC
  5
91
330
2
100
AcDbEntity
  8
Halfen
 62
     1
100
AcDbCircle
 10
-131.752332409412
 20
2619.380922652748
 30
0.0
 40
15.57640193554679
100
AcDbArc
 50
288.0058901692783
 51
333.3319217269795
  0
ARC
  5
92
330
2
100
AcDbEntity
  8
Halfen
 62
     1
100
AcDbCircle
 10
-113.0180276465718
 20
2584.826359642002
 30
0.0
 40
15.57640193554679
100
AcDbArc
 50
108.0058901692794
 51
153.3319217269807
  0
ARC
  5
93
330
2
100
AcDbEntity
  8
Halfen
 62
     1
100
AcDbCircle
 10
-131.752332409412
 20
2606.630922652748
 30
0.0
 40
15.57640193554679
100
AcDbArc
 50
288.0058901692783
 51
333.3319217269795
  0
ARC
  5
94
330
2
100
AcDbEntity
  8
Halfen
 62
     1
100
AcDbCircle
 10
-113.0180276465718
 20
2572.076359642002
 30
0.0
 40
15.57640193554679
100
AcDbArc
 50
108.0058901692794
 51
153.3319217269807
  0
ARC
  5
95
330
2
100
AcDbEntity
  8
Halfen
 62
     1
100
AcDbCircle
 10
-131.752332409412
 20
2593.880922652748
 30
0.0
 40
15.57640193554679
100
AcDbArc
 50
288.0058901692783
 51
333.3319217269795
  0
ARC
  5
96
330
2
100
AcDbEntity
  8
Halfen
 62
     1
100
AcDbCircle
 10
-113.0180276465703
 20
2648.576359642001
 30
0.0
 40
15.57640193554679
100
AcDbArc
 50
108.0058901692794
 51
153.3319217269807
  0
ARC
  5
97
330
2
100
AcDbEntity
  8
Halfen
 62
     1
100
AcDbCircle
 10
-131.7523324094105
 20
2670.380922652747
 30
0.0
 40
15.57640193554679
100
AcDbArc
 50
288.0058901692783
 51
333.3319217269795
  0
ARC
  5
98
330
2
100
AcDbEntity
  8
Halfen
 62
     1
100
AcDbCircle
 10
-113.0180276465709
 20
2635.826359642001
 30
0.0
 40
15.57640193554679
100
AcDbArc
 50
108.0058901692794
 51
153.3319217269807
  0
ARC
  5
99
330
2
100
AcDbEntity
  8
Halfen
 62
     1
100
AcDbCircle
 10
-131.7523324094111
 20
2657.630922652747
 30
0.0
 40
15.57640193554679
100
AcDbArc
 50
288.0058901692783
 51
333.3319217269795
  0
ARC
  5
9A
330
2
100
AcDbEntity
  8
Halfen
 62
     1
100
AcDbCircle
 10
-113.0180276465713
 20
2623.076359642001
 30
0.0
 40
15.57640193554679
100
AcDbArc
 50
108.0058901692794
 51
153.3319217269807
  0
ARC
  5
9B
330
2
100
AcDbEntity
  8
Halfen
 62
     1
100
AcDbCircle
 10
-131.7523324094114
 20
2644.880922652748
 30
0.0
 40
15.57640193554679
100
AcDbArc
 50
288.0058901692783
 51
333.3319217269795
  0
ARC
  5
9C
330
2
100
AcDbEntity
  8
Halfen
 62
     1
100
AcDbCircle
 10
-113.0180276465703
 20
2661.326359642001
 30
0.0
 40
15.57640193554679
100
AcDbArc
 50
108.0058901692794
 51
153.3319217269807
  0
ARC
  5
9D
330
2
100
AcDbEntity
  8
Halfen
 62
     1
100
AcDbCircle
 10
-131.7523324094105
 20
2683.130922652747
 30
0.0
 40
15.57640193554679
100
AcDbArc
 50
288.0058901692783
 51
333.3319217269795
  0
LINE
  5
9E
330
2
100
AcDbEntity
  8
Halfen
100
AcDbLine
 10
-198.75
 20
2678.749999999998
 30
0.0
 11
-198.75
 21
2577.249999999998
 31
0.0
  0
LINE
  5
9F
330
2
100
AcDbEntity
  8
Halfen
100
AcDbLine
 10
-186.75
 20
2678.749999999998
 30
0.0
 11
-186.75
 21
2577.249999999998
 31
0.0
  0
ARC
  5
A0
330
2
100
AcDbEntity
  8
Halfen
 62
     1
100
AcDbCircle
 10
-201.8402958430641
 20
2657.630922652747
 30
0.0
 40
15.57640193554679
100
AcDbArc
 50
288.0058901692783
 51
333.3319217269795
  0
ARC
  5
A1
330
2
100
AcDbEntity
  8
Halfen
 62
     1
100
AcDbCircle
 10
-183.1059910802239
 20
2635.826359642001
 30
0.0
 40
15.57640193554679
100
AcDbArc
 50
108.0058901692794
 51
153.3319217269807
  0
ARC
  5
A2
330
2
100
AcDbEntity
  8
Halfen
 62
     1
100
AcDbCircle
 10
-201.840295843065
 20
2606.630922652748
 30
0.0
 40
15.57640193554679
100
AcDbArc
 50
288.0058901692783
 51
333.3319217269795
  0
ARC
  5
A3
330
2
100
AcDbEntity
  8
Halfen
 62
     1
100
AcDbCircle
 10
-183.1059910802248
 20
2572.076359642002
 30
0.0
 40
15.57640193554679
100
AcDbArc
 50
108.0058901692794
 51
153.3319217269807
  0
ARC
  5
A4
330
2
100
AcDbEntity
  8
Halfen
 62
     1
100
AcDbCircle
 10
-201.840295843065
 20
2593.880922652748
 30
0.0
 40
15.57640193554679
100
AcDbArc
 50
288.0058901692783
 51
333.3319217269795
  0
ARC
  5
A5
330
2
100
AcDbEntity
  8
Halfen
 62
     1
100
AcDbCircle
 10
-201.8402958430644
 20
2644.880922652748
 30
0.0
 40
15.57640193554679
100
AcDbArc
 50
288.0058901692783
 51
333.3319217269795
  0
ARC
  5
A6
330
2
100
AcDbEntity
  8
Halfen
 62
     1
100
AcDbCircle
 10
-183.1059910802242
 20
2623.076359642001
 30
0.0
 40
15.57640193554679
100
AcDbArc
 50
108.0058901692794
 51
153.3319217269807
  0
ARC
  5
A7
330
2
100
AcDbEntity
  8
Halfen
 62
     1
100
AcDbCircle
 10
-183.1059910802248
 20
2584.826359642002
 30
0.0
 40
15.57640193554679
100
AcDbArc
 50
108.0058901692794
 51
153.3319217269807
  0
ARC
  5
A8
330
2
100
AcDbEntity
  8
Halfen
 62
     1
100
AcDbCircle
 10
-201.840295843065
 20
2619.380922652748
 30
0.0
 40
15.57640193554679
100
AcDbArc
 50
288.0058901692783
 51
333.3319217269795
  0
ARC
  5
A9
330
2
100
AcDbEntity
  8
Halfen
 62
     1
100
AcDbCircle
 10
-183.1059910802248
 20
2597.576359642002
 30
0.0
 40
15.57640193554679
100
AcDbArc
 50
108.0058901692794
 51
153.3319217269807
  0
ARC
  5
AA
330
2
100
AcDbEntity
  8
Halfen
 62
     1
100
AcDbCircle
 10
-201.8402958430647
 20
2632.130922652748
 30
0.0
 40
15.57640193554679
100
AcDbArc
 50
288.0058901692783
 51
333.3319217269795
  0
ARC
  5
AB
330
2
100
AcDbEntity
  8
Halfen
 62
     1
100
AcDbCircle
 10
-183.1059910802245
 20
2610.326359642002
 30
0.0
 40
15.57640193554679
100
AcDbArc
 50
108.0058901692794
 51
153.3319217269807
  0
LINE
  5
AC
330
2
100
AcDbEntity
  8
Halfen
100
AcDbLine
 10
-198.75
 20
2678.749999999998
 30
0.0
 11
-210.75
 21
2683.249999999998
 31
0.0
  0
LINE
  5
AD
330
2
100
AcDbEntity
  8
Halfen
100
AcDbLine
 10
-210.75
 20
2683.249999999998
 30
0.0
 11
-174.75
 21
2683.249999999998
 31
0.0
  0
LINE
  5
AE
330
2
100
AcDbEntity
  8
Halfen
100
AcDbLine
 10
-210.75
 20
2687.249999999998
 30
0.0
 11
-174.75
 21
2687.249999999998
 31
0.0
  0
LINE
  5
AF
330
2
100
AcDbEntity
  8
Halfen
100
AcDbLine
 10
-210.75
 20
2683.249999999998
 30
0.0
 11
-210.75
 21
2687.249999999998
 31
0.0
  0
LINE
  5
B0
330
2
100
AcDbEntity
  8
Halfen
100
AcDbLine
 10
-174.75
 20
2683.249999999998
 30
0.0
 11
-174.75
 21
2687.249999999998
 31
0.0
  0
LINE
  5
B1
330
2
100
AcDbEntity
  8
Halfen
100
AcDbLine
 10
-186.75
 20
2678.749999999998
 30
0.0
 11
-174.75
 21
2683.249999999998
 31
0.0
  0
ARC
  5
B2
330
2
100
AcDbEntity
  8
Halfen
 62
     1
100
AcDbCircle
 10
-201.8402958430635
 20
2683.130922652747
 30
0.0
 40
15.57640193554679
100
AcDbArc
 50
288.0058901692783
 51
333.3319217269795
  0
ARC
  5
B3
330
2
100
AcDbEntity
  8
Halfen
 62
     1
100
AcDbCircle
 10
-183.1059910802233
 20
2661.326359642001
 30
0.0
 40
15.57640193554679
100
AcDbArc
 50
108.0058901692794
 51
153.3319217269807
  0
ARC
  5
B4
330
2
100
AcDbEntity
  8
Halfen
 62
     1
100
AcDbCircle
 10
-201.8402958430635
 20
2670.380922652747
 30
0.0
 40
15.57640193554679
100
AcDbArc
 50
288.0058901692783
 51
333.3319217269795
  0
ARC
  5
B5
330
2
100
AcDbEntity
  8
Halfen
 62
     1
100
AcDbCircle
 10
-183.1059910802233
 20
2648.576359642001
 30
0.0
 40
15.57640193554679
100
AcDbArc
 50
108.0058901692794
 51
153.3319217269807
  0
LINE
  5
B6
330
2
100
AcDbEntity
  8
Halfen
100
AcDbLine
 10
-198.75
 20
2678.749999999998
 30
0.0
 11
-186.75
 21
2678.749999999998
 31
0.0
  0
LINE
  5
B7
330
2
100
AcDbEntity
  8
Halfen
100
AcDbLine
 10
-78.66203656634701
 20
2678.749999999998
 30
0.0
 11
-78.66203656634701
 21
2577.249999999998
 31
0.0
  0
LINE
  5
B8
330
2
100
AcDbEntity
  8
Halfen
100
AcDbLine
 10
-66.66203656634701
 20
2678.749999999998
 30
0.0
 11
-66.66203656634701
 21
2577.249999999998
 31
0.0
  0
ARC
  5
B9
330
2
100
AcDbEntity
  8
Halfen
 62
     1
100
AcDbCircle
 10
-81.75233240941116
 20
2657.630922652747
 30
0.0
 40
15.57640193554679
100
AcDbArc
 50
288.0058901692783
 51
333.3319217269795
  0
ARC
  5
BA
330
2
100
AcDbEntity
  8
Halfen
 62
     1
100
AcDbCircle
 10
-63.01802764657094
 20
2635.826359642001
 30
0.0
 40
15.57640193554679
100
AcDbArc
 50
108.0058901692794
 51
153.3319217269807
  0
ARC
  5
BB
330
2
100
AcDbEntity
  8
Halfen
 62
     1
100
AcDbCircle
 10
-81.75233240941201
 20
2606.630922652748
 30
0.0
 40
15.57640193554679
100
AcDbArc
 50
288.0058901692783
 51
333.3319217269795
  0
ARC
  5
BC
330
2
100
AcDbEntity
  8
Halfen
 62
     1
100
AcDbCircle
 10
-63.01802764657185
 20
2572.076359642002
 30
0.0
 40
15.57640193554679
100
AcDbArc
 50
108.0058901692794
 51
153.3319217269807
  0
ARC
  5
BD
330
2
100
AcDbEntity
  8
Halfen
 62
     1
100
AcDbCircle
 10
-81.75233240941201
 20
2593.880922652748
 30
0.0
 40
15.57640193554679
100
AcDbArc
 50
288.0058901692783
 51
333.3319217269795
  0
ARC
  5
BE
330
2
100
AcDbEntity
  8
Halfen
 62
     1
100
AcDbCircle
 10
-81.75233240941144
 20
2644.880922652748
 30
0.0
 40
15.57640193554679
100
AcDbArc
 50
288.0058901692783
 51
333.3319217269795
  0
ARC
  5
BF
330
2
100
AcDbEntity
  8
Halfen
 62
     1
100
AcDbCircle
 10
-63.01802764657129
 20
2623.076359642001
 30
0.0
 40
15.57640193554679
100
AcDbArc
 50
108.0058901692794
 51
153.3319217269807
  0
ARC
  5
C0
330
2
100
AcDbEntity
  8
Halfen
 62
     1
100
AcDbCircle
 10
-63.01802764657185
 20
2584.826359642002
 30
0.0
 40
15.57640193554679
100
AcDbArc
 50
108.0058901692794
 51
153.3319217269807
  0
ARC
  5
C1
330
2
100
AcDbEntity
  8
Halfen
 62
     1
100
AcDbCircle
 10
-81.75233240941201
 20
2619.380922652748
 30
0.0
 40
15.57640193554679
100
AcDbArc
 50
288.0058901692783
 51
333.3319217269795
  0
ARC
  5
C2
330
2
100
AcDbEntity
  8
Halfen
 62
     1
100
AcDbCircle
 10
-63.01802764657185
 20
2597.576359642002
 30
0.0
 40
15.57640193554679
100
AcDbArc
 50
108.0058901692794
 51
153.3319217269807
  0
ARC
  5
C3
330
2
100
AcDbEntity
  8
Halfen
 62
     1
100
AcDbCircle
 10
-81.75233240941173
 20
2632.130922652748
 30
0.0
 40
15.57640193554679
100
AcDbArc
 50
288.0058901692783
 51
333.3319217269795
  0
ARC
  5
C4
330
2
100
AcDbEntity
  8
Halfen
 62
     1
100
AcDbCircle
 10
-63.01802764657157
 20
2610.326359642002
 30
0.0
 40
15.57640193554679
100
AcDbArc
 50
108.0058901692794
 51
153.3319217269807
  0
LINE
  5
C5
330
2
100
AcDbEntity
  8
Halfen
100
AcDbLine
 10
-78.66203656634701
 20
2678.749999999998
 30
0.0
 11
-90.66203656634701
 21
2683.249999999998
 31
0.0
  0
LINE
  5
C6
330
2
100
AcDbEntity
  8
Halfen
100
AcDbLine
 10
-90.66203656634701
 20
2683.249999999998
 30
0.0
 11
-54.66203656634701
 21
2683.249999999998
 31
0.0
  0
LINE
  5
C7
330
2
100
AcDbEntity
  8
Halfen
100
AcDbLine
 10
-90.66203656634701
 20
2687.249999999998
 30
0.0
 11
-54.66203656634701
 21
2687.249999999998
 31
0.0
  0
LINE
  5
C8
330
2
100
AcDbEntity
  8
Halfen
100
AcDbLine
 10
-90.66203656634701
 20
2683.249999999998
 30
0.0
 11
-90.66203656634701
 21
2687.249999999998
 31
0.0
  0
LINE
  5
C9
330
2
100
AcDbEntity
  8
Halfen
100
AcDbLine
 10
-54.66203656634701
 20
2683.249999999998
 30
0.0
 11
-54.66203656634701
 21
2687.249999999998
 31
0.0
  0
LINE
  5
CA
330
2
100
AcDbEntity
  8
Halfen
100
AcDbLine
 10
-66.66203656634701
 20
2678.749999999998
 30
0.0
 11
-54.66203656634701
 21
2683.249999999998
 31
0.0
  0
ARC
  5
CB
330
2
100
AcDbEntity
  8
Halfen
 62
     1
100
AcDbCircle
 10
-81.75233240941054
 20
2683.130922652747
 30
0.0
 40
15.57640193554679
100
AcDbArc
 50
288.0058901692783
 51
333.3319217269795
  0
ARC
  5
CC
330
2
100
AcDbEntity
  8
Halfen
 62
     1
100
AcDbCircle
 10
-63.01802764657032
 20
2661.326359642001
 30
0.0
 40
15.57640193554679
100
AcDbArc
 50
108.0058901692794
 51
153.3319217269807
  0
ARC
  5
CD
330
2
100
AcDbEntity
  8
Halfen
 62
     1
100
AcDbCircle
 10
-81.75233240941054
 20
2670.380922652747
 30
0.0
 40
15.57640193554679
100
AcDbArc
 50
288.0058901692783
 51
333.3319217269795
  0
ARC
  5
CE
330
2
100
AcDbEntity
  8
Halfen
 62
     1
100
AcDbCircle
 10
-63.01802764657032
 20
2648.576359642001
 30
0.0
 40
15.57640193554679
100
AcDbArc
 50
108.0058901692794
 51
153.3319217269807
  0
LINE
  5
CF
330
2
100
AcDbEntity
  8
Halfen
100
AcDbLine
 10
-78.66203656634701
 20
2678.749999999998
 30
0.0
 11
-66.66203656634701
 21
2678.749999999998
 31
0.0
  0
ARC
  5
D0
330
2
100
AcDbEntity
  8
Halfen
 62
     1
100
AcDbCircle
 10
206.9819723534291
 20
2635.826359642001
 30
0.0
 40
15.57640193554679
100
AcDbArc
 50
108.0058901692794
 51
153.3319217269807
  0
ARC
  5
D1
330
2
100
AcDbEntity
  8
Halfen
 62
     1
100
AcDbCircle
 10
188.2476675905888
 20
2657.630922652747
 30
0.0
 40
15.57640193554679
100
AcDbArc
 50
288.0058901692783
 51
333.3319217269795
  0
LINE
  5
D2
330
2
100
AcDbEntity
  8
Halfen
100
AcDbLine
 10
203.337963433653
 20
2678.749999999998
 30
0.0
 11
203.337963433653
 21
2577.249999999998
 31
0.0
  0
LINE
  5
D3
330
2
100
AcDbEntity
  8
Halfen
100
AcDbLine
 10
191.337963433653
 20
2678.749999999998
 30
0.0
 11
191.337963433653
 21
2577.249999999998
 31
0.0
  0
ARC
  5
D4
330
2
100
AcDbEntity
  8
Halfen
 62
     1
100
AcDbCircle
 10
106.981972353429
 20
2635.826359642001
 30
0.0
 40
15.57640193554679
100
AcDbArc
 50
108.0058901692794
 51
153.3319217269807
  0
ARC
  5
D5
330
2
100
AcDbEntity
  8
Halfen
 62
     1
100
AcDbCircle
 10
88.24766759058883
 20
2657.630922652747
 30
0.0
 40
15.57640193554679
100
AcDbArc
 50
288.0058901692783
 51
333.3319217269795
  0
LINE
  5
D6
330
2
100
AcDbEntity
  8
Halfen
100
AcDbLine
 10
103.337963433653
 20
2678.749999999998
 30
0.0
 11
103.337963433653
 21
2577.249999999998
 31
0.0
  0
LINE
  5
D7
330
2
100
AcDbEntity
  8
Halfen
100
AcDbLine
 10
91.33796343365299
 20
2678.749999999998
 30
0.0
 11
91.33796343365299
 21
2577.249999999998
 31
0.0
  0
ARC
  5
D8
330
2
100
AcDbEntity
  8
Halfen
 62
     1
100
AcDbCircle
 10
36.89400891977607
 20
2635.826359642001
 30
0.0
 40
15.57640193554679
100
AcDbArc
 50
108.0058901692794
 51
153.3319217269807
  0
ARC
  5
D9
330
2
100
AcDbEntity
  8
Halfen
 62
     1
100
AcDbCircle
 10
18.15970415693584
 20
2657.630922652747
 30
0.0
 40
15.57640193554679
100
AcDbArc
 50
288.0058901692783
 51
333.3319217269795
  0
LINE
  5
DA
330
2
100
AcDbEntity
  8
Halfen
100
AcDbLine
 10
33.25
 20
2678.749999999998
 30
0.0
 11
33.25
 21
2577.249999999998
 31
0.0
  0
LINE
  5
DB
330
2
100
AcDbEntity
  8
Halfen
100
AcDbLine
 10
21.25
 20
2678.749999999998
 30
0.0
 11
21.25
 21
2577.249999999998
 31
0.0
  0
LINE
  5
DC
330
2
100
AcDbEntity
  8
Halfen
  6
MITTE2
 62
     1
100
AcDbLine
 10
27.16203656634713
 20
2687.249999999998
 30
0.0
 11
27.16203656634707
 21
2547.249999999998
 31
0.0
  0
LINE
  5
DD
330
2
100
AcDbEntity
  8
Halfen
100
AcDbLine
 10
222.25
 20
2528.818802874852
 30
0.0
 11
222.25
 21
2478.818802874853
 31
0.0
  0
LINE
  5
DE
330
2
100
AcDbEntity
  8
Halfen
100
AcDbLine
 10
72.25000000000005
 20
2528.818802874853
 30
0.0
 11
72.25000000000005
 21
2478.818802874853
 31
0.0
  0
LINE
  5
DF
330
2
100
AcDbEntity
  8
Halfen
100
AcDbLine
 10
72.25000000000005
 20
2478.818802874853
 30
0.0
 11
222.25
 21
2478.818802874853
 31
0.0
  0
LINE
  5
E0
330
2
100
AcDbEntity
  8
Halfen
100
AcDbLine
 10
72.25000000000005
 20
2492.818802874853
 30
0.0
 11
222.25
 21
2492.818802874854
 31
0.0
  0
LINE
  5
E1
330
2
100
AcDbEntity
  8
Halfen
100
AcDbLine
 10
72.25000000000005
 20
2514.818802874853
 30
0.0
 11
222.25
 21
2514.818802874853
 31
0.0
  0
LINE
  5
E2
330
2
100
AcDbEntity
  8
Halfen
100
AcDbLine
 10
72.25000000000005
 20
2528.818802874853
 30
0.0
 11
222.25
 21
2528.818802874852
 31
0.0
  0
ARC
  5
E3
330
2
100
AcDbEntity
  8
Halfen
 62
     1
100
AcDbCircle
 10
18.15970415693499
 20
2606.630922652748
 30
0.0
 40
15.57640193554679
100
AcDbArc
 50
288.0058901692783
 51
333.3319217269795
  0
ARC
  5
E4
330
2
100
AcDbEntity
  8
Halfen
 62
     1
100
AcDbCircle
 10
18.15970415693499
 20
2593.880922652748
 30
0.0
 40
15.57640193554679
100
AcDbArc
 50
288.0058901692783
 51
333.3319217269795
  0
ARC
  5
E5
330
2
100
AcDbEntity
  8
Halfen
 62
     1
100
AcDbCircle
 10
36.89400891977516
 20
2572.076359642002
 30
0.0
 40
15.57640193554679
100
AcDbArc
 50
108.0058901692794
 51
153.3319217269807
  0
ARC
  5
E6
330
2
100
AcDbEntity
  8
Halfen
100
AcDbCircle
 10
48.00000000000006
 20
2572.999999999998
 30
0.0
 40
1.0
100
AcDbArc
 50
0.0
 51
90.0
  0
ARC
  5
E7
330
2
100
AcDbEntity
  8
Halfen
100
AcDbCircle
 10
48.00000000000006
 20
2572.999999999998
 30
0.0
 40
4.25
100
AcDbArc
 50
0.0
 51
90.0
  0
ARC
  5
E8
330
2
100
AcDbEntity
  8
Halfen
100
AcDbCircle
 10
47.50000000000006
 20
2551.999999999998
 30
0.0
 40
1.5
100
AcDbArc
 50
240.0000000000055
 51
0.0
  0
LINE
  5
E9
330
2
100
AcDbEntity
  8
Halfen
100
AcDbLine
 10
52.25000000000005
 20
2572.999999999998
 30
0.0
 11
52.25000000000005
 21
2551.999999999998
 31
0.0
  0
LINE
  5
EA
330
2
100
AcDbEntity
  8
Halfen
100
AcDbLine
 10
49.00000000000005
 20
2572.999999999998
 30
0.0
 11
49.00000000000005
 21
2551.999999999998
 31
0.0
  0
LINE
  5
EB
330
2
100
AcDbEntity
  8
Halfen
100
AcDbLine
 10
45.12500000000005
 20
2547.886379332021
 30
0.0
 11
38.25000000000006
 21
2551.8556624327
 31
0.0
  0
LINE
  5
EC
330
2
100
AcDbEntity
  8
Halfen
100
AcDbLine
 10
16.25
 20
2551.8556624327
 30
0.0
 11
14.625
 21
2554.670244995
 31
0.0
  0
LINE
  5
ED
330
2
100
AcDbEntity
  8
Halfen
100
AcDbLine
 10
38.25000000000006
 20
2551.8556624327
 30
0.0
 11
39.87500000000006
 21
2554.670244995
 31
0.0
  0
LINE
  5
EE
330
2
100
AcDbEntity
  8
Halfen
100
AcDbLine
 10
46.75000000000006
 20
2550.700961894321
 30
0.0
 11
39.87500000000006
 21
2554.670244995
 31
0.0
  0
ARC
  5
EF
330
2
100
AcDbEntity
  8
Halfen
100
AcDbCircle
 10
47.50000000000006
 20
2551.999999999998
 30
0.0
 40
4.75
100
AcDbArc
 50
240.0000000000055
 51
0.0
  0
ARC
  5
F0
330
2
100
AcDbEntity
  8
Halfen
 62
     1
100
AcDbCircle
 10
36.89400891977545
 20
2610.326359642002
 30
0.0
 40
15.57640193554679
100
AcDbArc
 50
108.0058901692794
 51
153.3319217269807
  0
ARC
  5
F1
330
2
100
AcDbEntity
  8
Halfen
 62
     1
100
AcDbCircle
 10
18.15970415693527
 20
2632.130922652748
 30
0.0
 40
15.57640193554679
100
AcDbArc
 50
288.0058901692783
 51
333.3319217269795
  0
ARC
  5
F2
330
2
100
AcDbEntity
  8
Halfen
 62
     1
100
AcDbCircle
 10
36.89400891977516
 20
2597.576359642002
 30
0.0
 40
15.57640193554679
100
AcDbArc
 50
108.0058901692794
 51
153.3319217269807
  0
ARC
  5
F3
330
2
100
AcDbEntity
  8
Halfen
 62
     1
100
AcDbCircle
 10
18.15970415693499
 20
2619.380922652748
 30
0.0
 40
15.57640193554679
100
AcDbArc
 50
288.0058901692783
 51
333.3319217269795
  0
ARC
  5
F4
330
2
100
AcDbEntity
  8
Halfen
 62
     1
100
AcDbCircle
 10
36.89400891977516
 20
2584.826359642002
 30
0.0
 40
15.57640193554679
100
AcDbArc
 50
108.0058901692794
 51
153.3319217269807
  0
ARC
  5
F5
330
2
100
AcDbEntity
  8
Halfen
 62
     1
100
AcDbCircle
 10
36.89400891977573
 20
2623.076359642001
 30
0.0
 40
15.57640193554679
100
AcDbArc
 50
108.0058901692794
 51
153.3319217269807
  0
ARC
  5
F6
330
2
100
AcDbEntity
  8
Halfen
 62
     1
100
AcDbCircle
 10
18.15970415693556
 20
2644.880922652748
 30
0.0
 40
15.57640193554679
100
AcDbArc
 50
288.0058901692783
 51
333.3319217269795
  0
ARC
  5
F7
330
2
100
AcDbEntity
  8
Halfen
 62
     1
100
AcDbCircle
 10
188.247667590588
 20
2606.630922652748
 30
0.0
 40
15.57640193554679
100
AcDbArc
 50
288.0058901692783
 51
333.3319217269795
  0
ARC
  5
F8
330
2
100
AcDbEntity
  8
Halfen
 62
     1
100
AcDbCircle
 10
88.24766759058798
 20
2606.630922652748
 30
0.0
 40
15.57640193554679
100
AcDbArc
 50
288.0058901692783
 51
333.3319217269795
  0
LINE
  5
F9
330
2
100
AcDbEntity
  8
Halfen
100
AcDbLine
 10
72.25000000000005
 20
2547.249999999998
 30
0.0
 11
222.25
 21
2547.249999999997
 31
0.0
  0
LINE
  5
FA
330
2
100
AcDbEntity
  8
Halfen
100
AcDbLine
 10
72.25000000000005
 20
2577.249999999998
 30
0.0
 11
222.25
 21
2577.249999999998
 31
0.0
  0
ARC
  5
FB
330
2
100
AcDbEntity
  8
Halfen
 62
     1
100
AcDbCircle
 10
88.24766759058798
 20
2593.880922652748
 30
0.0
 40
15.57640193554679
100
AcDbArc
 50
288.0058901692783
 51
333.3319217269795
  0
ARC
  5
FC
330
2
100
AcDbEntity
  8
Halfen
 62
     1
100
AcDbCircle
 10
106.9819723534281
 20
2572.076359642002
 30
0.0
 40
15.57640193554679
100
AcDbArc
 50
108.0058901692794
 51
153.3319217269807
  0
LINE
  5
FD
330
2
100
AcDbEntity
  8
Halfen
100
AcDbLine
 10
72.25000000000005
 20
2577.249999999998
 30
0.0
 11
72.25000000000005
 21
2547.249999999998
 31
0.0
  0
ARC
  5
FE
330
2
100
AcDbEntity
  8
Halfen
 62
     1
100
AcDbCircle
 10
188.247667590588
 20
2593.880922652748
 30
0.0
 40
15.57640193554679
100
AcDbArc
 50
288.0058901692783
 51
333.3319217269795
  0
ARC
  5
FF
330
2
100
AcDbEntity
  8
Halfen
 62
     1
100
AcDbCircle
 10
206.9819723534282
 20
2572.076359642002
 30
0.0
 40
15.57640193554679
100
AcDbArc
 50
108.0058901692794
 51
153.3319217269807
  0
LINE
  5
100
330
2
100
AcDbEntity
  8
Halfen
100
AcDbLine
 10
222.25
 20
2551.999999999998
 30
0.0
 11
222.25
 21
2547.249999999997
 31
0.0
  0
LINE
  5
101
330
2
100
AcDbEntity
  8
Halfen
100
AcDbLine
 10
222.25
 20
2577.249999999998
 30
0.0
 11
222.25
 21
2551.999999999998
 31
0.0
  0
ARC
  5
102
330
2
100
AcDbEntity
  8
Halfen
 62
     1
100
AcDbCircle
 10
106.9819723534284
 20
2610.326359642002
 30
0.0
 40
15.57640193554679
100
AcDbArc
 50
108.0058901692794
 51
153.3319217269807
  0
ARC
  5
103
330
2
100
AcDbEntity
  8
Halfen
 62
     1
100
AcDbCircle
 10
88.24766759058826
 20
2632.130922652748
 30
0.0
 40
15.57640193554679
100
AcDbArc
 50
288.0058901692783
 51
333.3319217269795
  0
ARC
  5
104
330
2
100
AcDbEntity
  8
Halfen
 62
     1
100
AcDbCircle
 10
106.9819723534281
 20
2597.576359642002
 30
0.0
 40
15.57640193554679
100
AcDbArc
 50
108.0058901692794
 51
153.3319217269807
  0
ARC
  5
105
330
2
100
AcDbEntity
  8
Halfen
 62
     1
100
AcDbCircle
 10
88.24766759058798
 20
2619.380922652748
 30
0.0
 40
15.57640193554679
100
AcDbArc
 50
288.0058901692783
 51
333.3319217269795
  0
ARC
  5
106
330
2
100
AcDbEntity
  8
Halfen
 62
     1
100
AcDbCircle
 10
106.9819723534281
 20
2584.826359642002
 30
0.0
 40
15.57640193554679
100
AcDbArc
 50
108.0058901692794
 51
153.3319217269807
  0
ARC
  5
107
330
2
100
AcDbEntity
  8
Halfen
 62
     1
100
AcDbCircle
 10
106.9819723534287
 20
2623.076359642001
 30
0.0
 40
15.57640193554679
100
AcDbArc
 50
108.0058901692794
 51
153.3319217269807
  0
ARC
  5
108
330
2
100
AcDbEntity
  8
Halfen
 62
     1
100
AcDbCircle
 10
88.24766759058855
 20
2644.880922652748
 30
0.0
 40
15.57640193554679
100
AcDbArc
 50
288.0058901692783
 51
333.3319217269795
  0
ARC
  5
109
330
2
100
AcDbEntity
  8
Halfen
 62
     1
100
AcDbCircle
 10
206.9819723534284
 20
2610.326359642002
 30
0.0
 40
15.57640193554679
100
AcDbArc
 50
108.0058901692794
 51
153.3319217269807
  0
ARC
  5
10A
330
2
100
AcDbEntity
  8
Halfen
 62
     1
100
AcDbCircle
 10
188.2476675905882
 20
2632.130922652748
 30
0.0
 40
15.57640193554679
100
AcDbArc
 50
288.0058901692783
 51
333.3319217269795
  0
ARC
  5
10B
330
2
100
AcDbEntity
  8
Halfen
 62
     1
100
AcDbCircle
 10
206.9819723534282
 20
2597.576359642002
 30
0.0
 40
15.57640193554679
100
AcDbArc
 50
108.0058901692794
 51
153.3319217269807
  0
ARC
  5
10C
330
2
100
AcDbEntity
  8
Halfen
 62
     1
100
AcDbCircle
 10
188.247667590588
 20
2619.380922652748
 30
0.0
 40
15.57640193554679
100
AcDbArc
 50
288.0058901692783
 51
333.3319217269795
  0
ARC
  5
10D
330
2
100
AcDbEntity
  8
Halfen
 62
     1
100
AcDbCircle
 10
206.9819723534282
 20
2584.826359642002
 30
0.0
 40
15.57640193554679
100
AcDbArc
 50
108.0058901692794
 51
153.3319217269807
  0
ARC
  5
10E
330
2
100
AcDbEntity
  8
Halfen
 62
     1
100
AcDbCircle
 10
206.9819723534287
 20
2623.076359642001
 30
0.0
 40
15.57640193554679
100
AcDbArc
 50
108.0058901692794
 51
153.3319217269807
  0
ARC
  5
10F
330
2
100
AcDbEntity
  8
Halfen
 62
     1
100
AcDbCircle
 10
188.2476675905885
 20
2644.880922652748
 30
0.0
 40
15.57640193554679
100
AcDbArc
 50
288.0058901692783
 51
333.3319217269795
  0
LINE
  5
110
330
2
100
AcDbEntity
  8
Halfen
100
AcDbLine
 10
21.25
 20
2678.749999999998
 30
0.0
 11
33.25
 21
2678.749999999998
 31
0.0
  0
ARC
  5
111
330
2
100
AcDbEntity
  8
Halfen
 62
     1
100
AcDbCircle
 10
36.89400891977669
 20
2648.576359642001
 30
0.0
 40
15.57640193554679
100
AcDbArc
 50
108.0058901692794
 51
153.3319217269807
  0
ARC
  5
112
330
2
100
AcDbEntity
  8
Halfen
 62
     1
100
AcDbCircle
 10
18.15970415693647
 20
2670.380922652747
 30
0.0
 40
15.57640193554679
100
AcDbArc
 50
288.0058901692783
 51
333.3319217269795
  0
ARC
  5
113
330
2
100
AcDbEntity
  8
Halfen
 62
     1
100
AcDbCircle
 10
36.89400891977669
 20
2661.326359642001
 30
0.0
 40
15.57640193554679
100
AcDbArc
 50
108.0058901692794
 51
153.3319217269807
  0
ARC
  5
114
330
2
100
AcDbEntity
  8
Halfen
 62
     1
100
AcDbCircle
 10
18.15970415693647
 20
2683.130922652747
 30
0.0
 40
15.57640193554679
100
AcDbArc
 50
288.0058901692783
 51
333.3319217269795
  0
LINE
  5
115
330
2
100
AcDbEntity
  8
Halfen
100
AcDbLine
 10
33.25
 20
2678.749999999998
 30
0.0
 11
45.25
 21
2683.249999999998
 31
0.0
  0
LINE
  5
116
330
2
100
AcDbEntity
  8
Halfen
100
AcDbLine
 10
45.25
 20
2683.249999999998
 30
0.0
 11
45.25
 21
2687.249999999998
 31
0.0
  0
LINE
  5
117
330
2
100
AcDbEntity
  8
Halfen
100
AcDbLine
 10
179.3379634336529
 20
2687.249999999998
 30
0.0
 11
215.337963433653
 21
2687.249999999998
 31
0.0
  0
LINE
  5
118
330
2
100
AcDbEntity
  8
Halfen
100
AcDbLine
 10
179.3379634336529
 20
2683.249999999998
 30
0.0
 11
215.337963433653
 21
2683.249999999998
 31
0.0
  0
LINE
  5
119
330
2
100
AcDbEntity
  8
Halfen
100
AcDbLine
 10
191.337963433653
 20
2678.749999999998
 30
0.0
 11
179.3379634336529
 21
2683.249999999998
 31
0.0
  0
LINE
  5
11A
330
2
100
AcDbEntity
  8
Halfen
100
AcDbLine
 10
179.3379634336529
 20
2683.249999999998
 30
0.0
 11
179.3379634336529
 21
2687.249999999998
 31
0.0
  0
LINE
  5
11B
330
2
100
AcDbEntity
  8
Halfen
100
AcDbLine
 10
91.33796343365299
 20
2678.749999999998
 30
0.0
 11
103.337963433653
 21
2678.749999999998
 31
0.0
  0
ARC
  5
11C
330
2
100
AcDbEntity
  8
Halfen
 62
     1
100
AcDbCircle
 10
106.9819723534296
 20
2648.576359642001
 30
0.0
 40
15.57640193554679
100
AcDbArc
 50
108.0058901692794
 51
153.3319217269807
  0
ARC
  5
11D
330
2
100
AcDbEntity
  8
Halfen
 62
     1
100
AcDbCircle
 10
88.24766759058945
 20
2670.380922652747
 30
0.0
 40
15.57640193554679
100
AcDbArc
 50
288.0058901692783
 51
333.3319217269795
  0
ARC
  5
11E
330
2
100
AcDbEntity
  8
Halfen
 62
     1
100
AcDbCircle
 10
106.9819723534296
 20
2661.326359642001
 30
0.0
 40
15.57640193554679
100
AcDbArc
 50
108.0058901692794
 51
153.3319217269807
  0
ARC
  5
11F
330
2
100
AcDbEntity
  8
Halfen
 62
     1
100
AcDbCircle
 10
88.24766759058945
 20
2683.130922652747
 30
0.0
 40
15.57640193554679
100
AcDbArc
 50
288.0058901692783
 51
333.3319217269795
  0
LINE
  5
120
330
2
100
AcDbEntity
  8
Halfen
100
AcDbLine
 10
103.337963433653
 20
2678.749999999998
 30
0.0
 11
115.337963433653
 21
2683.249999999998
 31
0.0
  0
LINE
  5
121
330
2
100
AcDbEntity
  8
Halfen
100
AcDbLine
 10
115.337963433653
 20
2683.249999999998
 30
0.0
 11
115.337963433653
 21
2687.249999999998
 31
0.0
  0
LINE
  5
122
330
2
100
AcDbEntity
  8
Halfen
100
AcDbLine
 10
79.33796343365298
 20
2683.249999999998
 30
0.0
 11
79.33796343365298
 21
2687.249999999998
 31
0.0
  0
LINE
  5
123
330
2
100
AcDbEntity
  8
Halfen
100
AcDbLine
 10
79.33796343365298
 20
2687.249999999998
 30
0.0
 11
115.337963433653
 21
2687.249999999998
 31
0.0
  0
LINE
  5
124
330
2
100
AcDbEntity
  8
Halfen
100
AcDbLine
 10
79.33796343365298
 20
2683.249999999998
 30
0.0
 11
115.337963433653
 21
2683.249999999998
 31
0.0
  0
LINE
  5
125
330
2
100
AcDbEntity
  8
Halfen
100
AcDbLine
 10
91.33796343365299
 20
2678.749999999998
 30
0.0
 11
79.33796343365298
 21
2683.249999999998
 31
0.0
  0
LINE
  5
126
330
2
100
AcDbEntity
  8
Halfen
100
AcDbLine
 10
191.337963433653
 20
2678.749999999998
 30
0.0
 11
203.337963433653
 21
2678.749999999998
 31
0.0
  0
ARC
  5
127
330
2
100
AcDbEntity
  8
Halfen
 62
     1
100
AcDbCircle
 10
206.9819723534297
 20
2648.576359642001
 30
0.0
 40
15.57640193554679
100
AcDbArc
 50
108.0058901692794
 51
153.3319217269807
  0
ARC
  5
128
330
2
100
AcDbEntity
  8
Halfen
 62
     1
100
AcDbCircle
 10
188.2476675905894
 20
2670.380922652747
 30
0.0
 40
15.57640193554679
100
AcDbArc
 50
288.0058901692783
 51
333.3319217269795
  0
ARC
  5
129
330
2
100
AcDbEntity
  8
Halfen
 62
     1
100
AcDbCircle
 10
206.9819723534297
 20
2661.326359642001
 30
0.0
 40
15.57640193554679
100
AcDbArc
 50
108.0058901692794
 51
153.3319217269807
  0
ARC
  5
12A
330
2
100
AcDbEntity
  8
Halfen
 62
     1
100
AcDbCircle
 10
188.2476675905894
 20
2683.130922652747
 30
0.0
 40
15.57640193554679
100
AcDbArc
 50
288.0058901692783
 51
333.3319217269795
  0
LINE
  5
12B
330
2
100
AcDbEntity
  8
Halfen
100
AcDbLine
 10
203.337963433653
 20
2678.749999999998
 30
0.0
 11
215.337963433653
 21
2683.249999999998
 31
0.0
  0
LINE
  5
12C
330
2
100
AcDbEntity
  8
Halfen
100
AcDbLine
 10
215.337963433653
 20
2683.249999999998
 30
0.0
 11
215.337963433653
 21
2687.249999999998
 31
0.0
  0
LINE
  5
12D
330
2
100
AcDbEntity
  8
Halfen
100
AcDbLine
 10
9.374999999999943
 20
2547.886379332021
 30
0.0
 11
16.25
 21
2551.8556624327
 31
0.0
  0
LINE
  5
12E
330
2
100
AcDbEntity
  8
Halfen
100
AcDbLine
 10
7.749999999999943
 20
2550.700961894321
 30
0.0
 11
14.625
 21
2554.670244995
 31
0.0
  0
LINE
  5
12F
330
2
100
AcDbEntity
  8
Halfen
100
AcDbLine
 10
6.5
 20
2573.999999999998
 30
0.0
 11
48.00000000000006
 21
2573.999999999998
 31
0.0
  0
LINE
  5
130
330
2
100
AcDbEntity
  8
Halfen
100
AcDbLine
 10
6.5
 20
2577.249999999998
 30
0.0
 11
48.00000000000006
 21
2577.249999999998
 31
0.0
  0
ARC
  5
131
330
2
100
AcDbEntity
  8
Halfen
100
AcDbCircle
 10
6.5
 20
2572.999999999998
 30
0.0
 40
4.25
100
AcDbArc
 50
90.0
 51
180.0
  0
LINE
  5
132
330
2
100
AcDbEntity
  8
Halfen
100
AcDbLine
 10
2.25
 20
2572.999999999998
 30
0.0
 11
2.25
 21
2551.999999999998
 31
0.0
  0
LINE
  5
133
330
2
100
AcDbEntity
  8
Halfen
100
AcDbLine
 10
5.5
 20
2572.999999999998
 30
0.0
 11
5.5
 21
2551.999999999998
 31
0.0
  0
ARC
  5
134
330
2
100
AcDbEntity
  8
Halfen
100
AcDbCircle
 10
6.999999999999943
 20
2551.999999999998
 30
0.0
 40
1.5
100
AcDbArc
 50
180.0
 51
299.9999999999945
  0
ARC
  5
135
330
2
100
AcDbEntity
  8
Halfen
100
AcDbCircle
 10
6.5
 20
2572.999999999998
 30
0.0
 40
1.0
100
AcDbArc
 50
90.0
 51
180.0
  0
ARC
  5
136
330
2
100
AcDbEntity
  8
Halfen
100
AcDbCircle
 10
6.999999999999943
 20
2551.999999999998
 30
0.0
 40
4.75
100
AcDbArc
 50
180.0
 51
299.9999999999945
  0
LINE
  5
137
330
2
100
AcDbEntity
  8
Halfen
100
AcDbLine
 10
9.25
 20
2687.249999999998
 30
0.0
 11
45.25
 21
2687.249999999998
 31
0.0
  0
LINE
  5
138
330
2
100
AcDbEntity
  8
Halfen
100
AcDbLine
 10
9.25
 20
2683.249999999998
 30
0.0
 11
45.25
 21
2683.249999999998
 31
0.0
  0
LINE
  5
139
330
2
100
AcDbEntity
  8
Halfen
100
AcDbLine
 10
21.25
 20
2678.749999999998
 30
0.0
 11
9.25
 21
2683.249999999998
 31
0.0
  0
LINE
  5
13A
330
2
100
AcDbEntity
  8
Halfen
100
AcDbLine
 10
9.25
 20
2683.249999999998
 30
0.0
 11
9.25
 21
2687.249999999998
 31
0.0
  0
LINE
  5
13B
330
2
100
AcDbEntity
  8
Halfen
100
AcDbLine
 10
511.337963433653
 20
2678.749999999998
 30
0.0
 11
511.337963433653
 21
2577.249999999998
 31
0.0
  0
LINE
  5
13C
330
2
100
AcDbEntity
  8
Halfen
100
AcDbLine
 10
523.3379634336529
 20
2678.749999999998
 30
0.0
 11
523.3379634336529
 21
2577.249999999998
 31
0.0
  0
ARC
  5
13D
330
2
100
AcDbEntity
  8
Halfen
 62
     1
100
AcDbCircle
 10
508.2476675905888
 20
2657.630922652747
 30
0.0
 40
15.57640193554679
100
AcDbArc
 50
288.0058901692783
 51
333.3319217269795
  0
ARC
  5
13E
330
2
100
AcDbEntity
  8
Halfen
 62
     1
100
AcDbCircle
 10
526.981972353429
 20
2635.826359642001
 30
0.0
 40
15.57640193554679
100
AcDbArc
 50
108.0058901692794
 51
153.3319217269807
  0
LINE
  5
13F
330
2
100
AcDbEntity
  8
Halfen
  6
MITTE2
 62
     1
100
AcDbLine
 10
297.1620365663471
 20
2687.249999999998
 30
0.0
 11
297.1620365663471
 21
2547.249999999998
 31
0.0
  0
LINE
  5
140
330
2
100
AcDbEntity
  8
Halfen
100
AcDbLine
 10
291.25
 20
2678.749999999998
 30
0.0
 11
291.25
 21
2577.249999999998
 31
0.0
  0
LINE
  5
141
330
2
100
AcDbEntity
  8
Halfen
100
AcDbLine
 10
303.25
 20
2678.749999999998
 30
0.0
 11
303.25
 21
2577.249999999998
 31
0.0
  0
ARC
  5
142
330
2
100
AcDbEntity
  8
Halfen
 62
     1
100
AcDbCircle
 10
288.1597041569358
 20
2657.630922652747
 30
0.0
 40
15.57640193554679
100
AcDbArc
 50
288.0058901692783
 51
333.3319217269795
  0
ARC
  5
143
330
2
100
AcDbEntity
  8
Halfen
 62
     1
100
AcDbCircle
 10
306.8940089197761
 20
2635.826359642001
 30
0.0
 40
15.57640193554679
100
AcDbArc
 50
108.0058901692794
 51
153.3319217269807
  0
LINE
  5
144
330
2
100
AcDbEntity
  8
Halfen
100
AcDbLine
 10
361.337963433653
 20
2678.749999999998
 30
0.0
 11
361.337963433653
 21
2577.249999999998
 31
0.0
  0
LINE
  5
145
330
2
100
AcDbEntity
  8
Halfen
100
AcDbLine
 10
373.337963433653
 20
2678.749999999998
 30
0.0
 11
373.337963433653
 21
2577.249999999998
 31
0.0
  0
ARC
  5
146
330
2
100
AcDbEntity
  8
Halfen
 62
     1
100
AcDbCircle
 10
358.2476675905888
 20
2657.630922652747
 30
0.0
 40
15.57640193554679
100
AcDbArc
 50
288.0058901692783
 51
333.3319217269795
  0
ARC
  5
147
330
2
100
AcDbEntity
  8
Halfen
 62
     1
100
AcDbCircle
 10
376.9819723534291
 20
2635.826359642001
 30
0.0
 40
15.57640193554679
100
AcDbArc
 50
108.0058901692794
 51
153.3319217269807
  0
LINE
  5
148
330
2
100
AcDbEntity
  8
Halfen
100
AcDbLine
 10
342.2500000000001
 20
2577.249999999998
 30
0.0
 11
542.25
 21
2577.249999999998
 31
0.0
  0
LINE
  5
149
330
2
100
AcDbEntity
  8
Halfen
100
AcDbLine
 10
342.2500000000001
 20
2547.249999999998
 30
0.0
 11
542.25
 21
2547.249999999997
 31
0.0
  0
LINE
  5
14A
330
2
100
AcDbEntity
  8
Halfen
100
AcDbLine
 10
342.2500000000001
 20
2528.818802874853
 30
0.0
 11
542.25
 21
2528.818802874852
 31
0.0
  0
LINE
  5
14B
330
2
100
AcDbEntity
  8
Halfen
100
AcDbLine
 10
342.2500000000001
 20
2514.818802874853
 30
0.0
 11
542.25
 21
2514.818802874853
 31
0.0
  0
LINE
  5
14C
330
2
100
AcDbEntity
  8
Halfen
100
AcDbLine
 10
342.2500000000001
 20
2492.818802874853
 30
0.0
 11
542.25
 21
2492.818802874854
 31
0.0
  0
LINE
  5
14D
330
2
100
AcDbEntity
  8
Halfen
100
AcDbLine
 10
342.2500000000001
 20
2478.818802874853
 30
0.0
 11
542.25
 21
2478.818802874853
 31
0.0
  0
LINE
  5
14E
330
2
100
AcDbEntity
  8
Halfen
100
AcDbLine
 10
342.2500000000001
 20
2528.818802874853
 30
0.0
 11
342.2500000000001
 21
2478.818802874853
 31
0.0
  0
ARC
  5
14F
330
2
100
AcDbEntity
  8
Halfen
 62
     1
100
AcDbCircle
 10
288.159704156935
 20
2606.630922652748
 30
0.0
 40
15.57640193554679
100
AcDbArc
 50
288.0058901692783
 51
333.3319217269795
  0
LINE
  5
150
330
2
100
AcDbEntity
  8
Halfen
100
AcDbLine
 10
276.5
 20
2577.249999999998
 30
0.0
 11
318.0000000000001
 21
2577.249999999998
 31
0.0
  0
LINE
  5
151
330
2
100
AcDbEntity
  8
Halfen
100
AcDbLine
 10
276.5
 20
2573.999999999998
 30
0.0
 11
318.0000000000001
 21
2573.999999999998
 31
0.0
  0
ARC
  5
152
330
2
100
AcDbEntity
  8
Halfen
 62
     1
100
AcDbCircle
 10
306.8940089197752
 20
2572.076359642002
 30
0.0
 40
15.57640193554679
100
AcDbArc
 50
108.0058901692794
 51
153.3319217269807
  0
ARC
  5
153
330
2
100
AcDbEntity
  8
Halfen
 62
     1
100
AcDbCircle
 10
288.159704156935
 20
2593.880922652748
 30
0.0
 40
15.57640193554679
100
AcDbArc
 50
288.0058901692783
 51
333.3319217269795
  0
ARC
  5
154
330
2
100
AcDbEntity
  8
Halfen
100
AcDbCircle
 10
277.0
 20
2551.999999999998
 30
0.0
 40
4.75
100
AcDbArc
 50
180.0
 51
299.9999999999945
  0
ARC
  5
155
330
2
100
AcDbEntity
  8
Halfen
100
AcDbCircle
 10
276.5
 20
2572.999999999998
 30
0.0
 40
1.0
100
AcDbArc
 50
90.0
 51
180.0
  0
ARC
  5
156
330
2
100
AcDbEntity
  8
Halfen
100
AcDbCircle
 10
277.0
 20
2551.999999999998
 30
0.0
 40
1.5
100
AcDbArc
 50
180.0
 51
299.9999999999945
  0
LINE
  5
157
330
2
100
AcDbEntity
  8
Halfen
100
AcDbLine
 10
275.5
 20
2572.999999999998
 30
0.0
 11
275.5
 21
2551.999999999998
 31
0.0
  0
LINE
  5
158
330
2
100
AcDbEntity
  8
Halfen
100
AcDbLine
 10
272.25
 20
2572.999999999998
 30
0.0
 11
272.25
 21
2551.999999999998
 31
0.0
  0
ARC
  5
159
330
2
100
AcDbEntity
  8
Halfen
100
AcDbCircle
 10
276.5
 20
2572.999999999998
 30
0.0
 40
4.25
100
AcDbArc
 50
90.0
 51
180.0
  0
LINE
  5
15A
330
2
100
AcDbEntity
  8
Halfen
100
AcDbLine
 10
277.7499999999999
 20
2550.700961894321
 30
0.0
 11
284.625
 21
2554.670244995
 31
0.0
  0
LINE
  5
15B
330
2
100
AcDbEntity
  8
Halfen
100
AcDbLine
 10
279.3749999999999
 20
2547.886379332021
 30
0.0
 11
286.25
 21
2551.8556624327
 31
0.0
  0
LINE
  5
15C
330
2
100
AcDbEntity
  8
Halfen
100
AcDbLine
 10
286.25
 20
2551.8556624327
 30
0.0
 11
284.625
 21
2554.670244995
 31
0.0
  0
LINE
  5
15D
330
2
100
AcDbEntity
  8
Halfen
100
AcDbLine
 10
342.2500000000001
 20
2577.249999999998
 30
0.0
 11
342.2500000000001
 21
2547.249999999998
 31
0.0
  0
ARC
  5
15E
330
2
100
AcDbEntity
  8
Halfen
100
AcDbCircle
 10
317.5000000000001
 20
2551.999999999998
 30
0.0
 40
4.75
100
AcDbArc
 50
240.0000000000055
 51
0.0
  0
LINE
  5
15F
330
2
100
AcDbEntity
  8
Halfen
100
AcDbLine
 10
316.75
 20
2550.700961894321
 30
0.0
 11
309.8750000000001
 21
2554.670244995
 31
0.0
  0
LINE
  5
160
330
2
100
AcDbEntity
  8
Halfen
100
AcDbLine
 10
308.25
 20
2551.8556624327
 30
0.0
 11
309.8750000000001
 21
2554.670244995
 31
0.0
  0
LINE
  5
161
330
2
100
AcDbEntity
  8
Halfen
100
AcDbLine
 10
315.125
 20
2547.886379332021
 30
0.0
 11
308.25
 21
2551.8556624327
 31
0.0
  0
LINE
  5
162
330
2
100
AcDbEntity
  8
Halfen
100
AcDbLine
 10
319.0000000000001
 20
2572.999999999998
 30
0.0
 11
319.0000000000001
 21
2551.999999999998
 31
0.0
  0
LINE
  5
163
330
2
100
AcDbEntity
  8
Halfen
100
AcDbLine
 10
322.2500000000001
 20
2572.999999999998
 30
0.0
 11
322.2500000000001
 21
2551.999999999998
 31
0.0
  0
ARC
  5
164
330
2
100
AcDbEntity
  8
Halfen
100
AcDbCircle
 10
317.5000000000001
 20
2551.999999999998
 30
0.0
 40
1.5
100
AcDbArc
 50
240.0000000000055
 51
0.0
  0
ARC
  5
165
330
2
100
AcDbEntity
  8
Halfen
100
AcDbCircle
 10
318.0000000000001
 20
2572.999999999998
 30
0.0
 40
4.25
100
AcDbArc
 50
0.0
 51
90.0
  0
ARC
  5
166
330
2
100
AcDbEntity
  8
Halfen
100
AcDbCircle
 10
318.0000000000001
 20
2572.999999999998
 30
0.0
 40
1.0
100
AcDbArc
 50
0.0
 51
90.0
  0
ARC
  5
167
330
2
100
AcDbEntity
  8
Halfen
 62
     1
100
AcDbCircle
 10
288.1597041569356
 20
2644.880922652748
 30
0.0
 40
15.57640193554679
100
AcDbArc
 50
288.0058901692783
 51
333.3319217269795
  0
ARC
  5
168
330
2
100
AcDbEntity
  8
Halfen
 62
     1
100
AcDbCircle
 10
306.8940089197757
 20
2623.076359642001
 30
0.0
 40
15.57640193554679
100
AcDbArc
 50
108.0058901692794
 51
153.3319217269807
  0
ARC
  5
169
330
2
100
AcDbEntity
  8
Halfen
 62
     1
100
AcDbCircle
 10
306.8940089197752
 20
2584.826359642002
 30
0.0
 40
15.57640193554679
100
AcDbArc
 50
108.0058901692794
 51
153.3319217269807
  0
ARC
  5
16A
330
2
100
AcDbEntity
  8
Halfen
 62
     1
100
AcDbCircle
 10
288.159704156935
 20
2619.380922652748
 30
0.0
 40
15.57640193554679
100
AcDbArc
 50
288.0058901692783
 51
333.3319217269795
  0
ARC
  5
16B
330
2
100
AcDbEntity
  8
Halfen
 62
     1
100
AcDbCircle
 10
306.8940089197752
 20
2597.576359642002
 30
0.0
 40
15.57640193554679
100
AcDbArc
 50
108.0058901692794
 51
153.3319217269807
  0
ARC
  5
16C
330
2
100
AcDbEntity
  8
Halfen
 62
     1
100
AcDbCircle
 10
288.1597041569353
 20
2632.130922652748
 30
0.0
 40
15.57640193554679
100
AcDbArc
 50
288.0058901692783
 51
333.3319217269795
  0
ARC
  5
16D
330
2
100
AcDbEntity
  8
Halfen
 62
     1
100
AcDbCircle
 10
306.8940089197754
 20
2610.326359642002
 30
0.0
 40
15.57640193554679
100
AcDbArc
 50
108.0058901692794
 51
153.3319217269807
  0
ARC
  5
16E
330
2
100
AcDbEntity
  8
Halfen
 62
     1
100
AcDbCircle
 10
508.2476675905879
 20
2606.630922652748
 30
0.0
 40
15.57640193554679
100
AcDbArc
 50
288.0058901692783
 51
333.3319217269795
  0
ARC
  5
16F
330
2
100
AcDbEntity
  8
Halfen
 62
     1
100
AcDbCircle
 10
358.247667590588
 20
2606.630922652748
 30
0.0
 40
15.57640193554679
100
AcDbArc
 50
288.0058901692783
 51
333.3319217269795
  0
ARC
  5
170
330
2
100
AcDbEntity
  8
Halfen
 62
     1
100
AcDbCircle
 10
376.9819723534281
 20
2572.076359642002
 30
0.0
 40
15.57640193554679
100
AcDbArc
 50
108.0058901692794
 51
153.3319217269807
  0
ARC
  5
171
330
2
100
AcDbEntity
  8
Halfen
 62
     1
100
AcDbCircle
 10
358.247667590588
 20
2593.880922652748
 30
0.0
 40
15.57640193554679
100
AcDbArc
 50
288.0058901692783
 51
333.3319217269795
  0
ARC
  5
172
330
2
100
AcDbEntity
  8
Halfen
 62
     1
100
AcDbCircle
 10
526.9819723534281
 20
2572.076359642002
 30
0.0
 40
15.57640193554679
100
AcDbArc
 50
108.0058901692794
 51
153.3319217269807
  0
ARC
  5
173
330
2
100
AcDbEntity
  8
Halfen
 62
     1
100
AcDbCircle
 10
508.2476675905879
 20
2593.880922652748
 30
0.0
 40
15.57640193554679
100
AcDbArc
 50
288.0058901692783
 51
333.3319217269795
  0
ARC
  5
174
330
2
100
AcDbEntity
  8
Halfen
 62
     1
100
AcDbCircle
 10
358.2476675905886
 20
2644.880922652748
 30
0.0
 40
15.57640193554679
100
AcDbArc
 50
288.0058901692783
 51
333.3319217269795
  0
ARC
  5
175
330
2
100
AcDbEntity
  8
Halfen
 62
     1
100
AcDbCircle
 10
376.9819723534287
 20
2623.076359642001
 30
0.0
 40
15.57640193554679
100
AcDbArc
 50
108.0058901692794
 51
153.3319217269807
  0
ARC
  5
176
330
2
100
AcDbEntity
  8
Halfen
 62
     1
100
AcDbCircle
 10
376.9819723534281
 20
2584.826359642002
 30
0.0
 40
15.57640193554679
100
AcDbArc
 50
108.0058901692794
 51
153.3319217269807
  0
ARC
  5
177
330
2
100
AcDbEntity
  8
Halfen
 62
     1
100
AcDbCircle
 10
358.247667590588
 20
2619.380922652748
 30
0.0
 40
15.57640193554679
100
AcDbArc
 50
288.0058901692783
 51
333.3319217269795
  0
ARC
  5
178
330
2
100
AcDbEntity
  8
Halfen
 62
     1
100
AcDbCircle
 10
376.9819723534281
 20
2597.576359642002
 30
0.0
 40
15.57640193554679
100
AcDbArc
 50
108.0058901692794
 51
153.3319217269807
  0
ARC
  5
179
330
2
100
AcDbEntity
  8
Halfen
 62
     1
100
AcDbCircle
 10
358.2476675905883
 20
2632.130922652748
 30
0.0
 40
15.57640193554679
100
AcDbArc
 50
288.0058901692783
 51
333.3319217269795
  0
ARC
  5
17A
330
2
100
AcDbEntity
  8
Halfen
 62
     1
100
AcDbCircle
 10
376.9819723534284
 20
2610.326359642002
 30
0.0
 40
15.57640193554679
100
AcDbArc
 50
108.0058901692794
 51
153.3319217269807
  0
ARC
  5
17B
330
2
100
AcDbEntity
  8
Halfen
 62
     1
100
AcDbCircle
 10
508.2476675905885
 20
2644.880922652748
 30
0.0
 40
15.57640193554679
100
AcDbArc
 50
288.0058901692783
 51
333.3319217269795
  0
ARC
  5
17C
330
2
100
AcDbEntity
  8
Halfen
 62
     1
100
AcDbCircle
 10
526.9819723534287
 20
2623.076359642001
 30
0.0
 40
15.57640193554679
100
AcDbArc
 50
108.0058901692794
 51
153.3319217269807
  0
ARC
  5
17D
330
2
100
AcDbEntity
  8
Halfen
 62
     1
100
AcDbCircle
 10
526.9819723534281
 20
2584.826359642002
 30
0.0
 40
15.57640193554679
100
AcDbArc
 50
108.0058901692794
 51
153.3319217269807
  0
ARC
  5
17E
330
2
100
AcDbEntity
  8
Halfen
 62
     1
100
AcDbCircle
 10
508.2476675905879
 20
2619.380922652748
 30
0.0
 40
15.57640193554679
100
AcDbArc
 50
288.0058901692783
 51
333.3319217269795
  0
ARC
  5
17F
330
2
100
AcDbEntity
  8
Halfen
 62
     1
100
AcDbCircle
 10
526.9819723534281
 20
2597.576359642002
 30
0.0
 40
15.57640193554679
100
AcDbArc
 50
108.0058901692794
 51
153.3319217269807
  0
ARC
  5
180
330
2
100
AcDbEntity
  8
Halfen
 62
     1
100
AcDbCircle
 10
508.2476675905883
 20
2632.130922652748
 30
0.0
 40
15.57640193554679
100
AcDbArc
 50
288.0058901692783
 51
333.3319217269795
  0
ARC
  5
181
330
2
100
AcDbEntity
  8
Halfen
 62
     1
100
AcDbCircle
 10
526.9819723534284
 20
2610.326359642002
 30
0.0
 40
15.57640193554679
100
AcDbArc
 50
108.0058901692794
 51
153.3319217269807
  0
LINE
  5
182
330
2
100
AcDbEntity
  8
Halfen
100
AcDbLine
 10
542.25
 20
2528.818802874852
 30
0.0
 11
542.25
 21
2478.818802874853
 31
0.0
  0
LINE
  5
183
330
2
100
AcDbEntity
  8
Halfen
100
AcDbLine
 10
542.25
 20
2577.249999999998
 30
0.0
 11
542.25
 21
2551.999999999998
 31
0.0
  0
LINE
  5
184
330
2
100
AcDbEntity
  8
Halfen
100
AcDbLine
 10
542.25
 20
2551.999999999998
 30
0.0
 11
542.25
 21
2547.249999999997
 31
0.0
  0
LINE
  5
185
330
2
100
AcDbEntity
  8
Halfen
100
AcDbLine
 10
523.3379634336529
 20
2678.749999999998
 30
0.0
 11
535.3379634336529
 21
2683.249999999998
 31
0.0
  0
LINE
  5
186
330
2
100
AcDbEntity
  8
Halfen
100
AcDbLine
 10
499.3379634336529
 20
2683.249999999998
 30
0.0
 11
535.3379634336529
 21
2683.249999999998
 31
0.0
  0
LINE
  5
187
330
2
100
AcDbEntity
  8
Halfen
100
AcDbLine
 10
499.3379634336529
 20
2687.249999999998
 30
0.0
 11
535.3379634336529
 21
2687.249999999998
 31
0.0
  0
LINE
  5
188
330
2
100
AcDbEntity
  8
Halfen
100
AcDbLine
 10
361.337963433653
 20
2678.749999999998
 30
0.0
 11
349.337963433653
 21
2683.249999999998
 31
0.0
  0
LINE
  5
189
330
2
100
AcDbEntity
  8
Halfen
100
AcDbLine
 10
349.337963433653
 20
2683.249999999998
 30
0.0
 11
385.337963433653
 21
2683.249999999998
 31
0.0
  0
LINE
  5
18A
330
2
100
AcDbEntity
  8
Halfen
100
AcDbLine
 10
349.337963433653
 20
2687.249999999998
 30
0.0
 11
385.337963433653
 21
2687.249999999998
 31
0.0
  0
LINE
  5
18B
330
2
100
AcDbEntity
  8
Halfen
100
AcDbLine
 10
279.25
 20
2683.249999999998
 30
0.0
 11
315.25
 21
2683.249999999998
 31
0.0
  0
LINE
  5
18C
330
2
100
AcDbEntity
  8
Halfen
100
AcDbLine
 10
279.25
 20
2687.249999999998
 30
0.0
 11
315.25
 21
2687.249999999998
 31
0.0
  0
ARC
  5
18D
330
2
100
AcDbEntity
  8
Halfen
 62
     1
100
AcDbCircle
 10
288.1597041569365
 20
2683.130922652747
 30
0.0
 40
15.57640193554679
100
AcDbArc
 50
288.0058901692783
 51
333.3319217269795
  0
ARC
  5
18E
330
2
100
AcDbEntity
  8
Halfen
 62
     1
100
AcDbCircle
 10
306.8940089197767
 20
2661.326359642001
 30
0.0
 40
15.57640193554679
100
AcDbArc
 50
108.0058901692794
 51
153.3319217269807
  0
ARC
  5
18F
330
2
100
AcDbEntity
  8
Halfen
 62
     1
100
AcDbCircle
 10
288.1597041569365
 20
2670.380922652747
 30
0.0
 40
15.57640193554679
100
AcDbArc
 50
288.0058901692783
 51
333.3319217269795
  0
ARC
  5
190
330
2
100
AcDbEntity
  8
Halfen
 62
     1
100
AcDbCircle
 10
306.8940089197767
 20
2648.576359642001
 30
0.0
 40
15.57640193554679
100
AcDbArc
 50
108.0058901692794
 51
153.3319217269807
  0
LINE
  5
191
330
2
100
AcDbEntity
  8
Halfen
100
AcDbLine
 10
291.25
 20
2678.749999999998
 30
0.0
 11
303.25
 21
2678.749999999998
 31
0.0
  0
LINE
  5
192
330
2
100
AcDbEntity
  8
Halfen
100
AcDbLine
 10
279.25
 20
2683.249999999998
 30
0.0
 11
279.25
 21
2687.249999999998
 31
0.0
  0
LINE
  5
193
330
2
100
AcDbEntity
  8
Halfen
100
AcDbLine
 10
291.25
 20
2678.749999999998
 30
0.0
 11
279.25
 21
2683.249999999998
 31
0.0
  0
LINE
  5
194
330
2
100
AcDbEntity
  8
Halfen
100
AcDbLine
 10
349.337963433653
 20
2683.249999999998
 30
0.0
 11
349.337963433653
 21
2687.249999999998
 31
0.0
  0
LINE
  5
195
330
2
100
AcDbEntity
  8
Halfen
100
AcDbLine
 10
315.25
 20
2683.249999999998
 30
0.0
 11
315.25
 21
2687.249999999998
 31
0.0
  0
LINE
  5
196
330
2
100
AcDbEntity
  8
Halfen
100
AcDbLine
 10
303.25
 20
2678.749999999998
 30
0.0
 11
315.25
 21
2683.249999999998
 31
0.0
  0
LINE
  5
197
330
2
100
AcDbEntity
  8
Halfen
100
AcDbLine
 10
385.337963433653
 20
2683.249999999998
 30
0.0
 11
385.337963433653
 21
2687.249999999998
 31
0.0
  0
LINE
  5
198
330
2
100
AcDbEntity
  8
Halfen
100
AcDbLine
 10
373.337963433653
 20
2678.749999999998
 30
0.0
 11
385.337963433653
 21
2683.249999999998
 31
0.0
  0
ARC
  5
199
330
2
100
AcDbEntity
  8
Halfen
 62
     1
100
AcDbCircle
 10
358.2476675905895
 20
2683.130922652747
 30
0.0
 40
15.57640193554679
100
AcDbArc
 50
288.0058901692783
 51
333.3319217269795
  0
ARC
  5
19A
330
2
100
AcDbEntity
  8
Halfen
 62
     1
100
AcDbCircle
 10
376.9819723534297
 20
2661.326359642001
 30
0.0
 40
15.57640193554679
100
AcDbArc
 50
108.0058901692794
 51
153.3319217269807
  0
ARC
  5
19B
330
2
100
AcDbEntity
  8
Halfen
 62
     1
100
AcDbCircle
 10
358.2476675905895
 20
2670.380922652747
 30
0.0
 40
15.57640193554679
100
AcDbArc
 50
288.0058901692783
 51
333.3319217269795
  0
ARC
  5
19C
330
2
100
AcDbEntity
  8
Halfen
 62
     1
100
AcDbCircle
 10
376.9819723534297
 20
2648.576359642001
 30
0.0
 40
15.57640193554679
100
AcDbArc
 50
108.0058901692794
 51
153.3319217269807
  0
LINE
  5
19D
330
2
100
AcDbEntity
  8
Halfen
100
AcDbLine
 10
361.337963433653
 20
2678.749999999998
 30
0.0
 11
373.337963433653
 21
2678.749999999998
 31
0.0
  0
LINE
  5
19E
330
2
100
AcDbEntity
  8
Halfen
100
AcDbLine
 10
499.3379634336529
 20
2683.249999999998
 30
0.0
 11
499.3379634336529
 21
2687.249999999998
 31
0.0
  0
LINE
  5
19F
330
2
100
AcDbEntity
  8
Halfen
100
AcDbLine
 10
511.337963433653
 20
2678.749999999998
 30
0.0
 11
499.3379634336529
 21
2683.249999999998
 31
0.0
  0
ARC
  5
1A0
330
2
100
AcDbEntity
  8
Halfen
 62
     1
100
AcDbCircle
 10
508.2476675905894
 20
2683.130922652747
 30
0.0
 40
15.57640193554679
100
AcDbArc
 50
288.0058901692783
 51
333.3319217269795
  0
ARC
  5
1A1
330
2
100
AcDbEntity
  8
Halfen
 62
     1
100
AcDbCircle
 10
526.9819723534296
 20
2661.326359642001
 30
0.0
 40
15.57640193554679
100
AcDbArc
 50
108.0058901692794
 51
153.3319217269807
  0
ARC
  5
1A2
330
2
100
AcDbEntity
  8
Halfen
 62
     1
100
AcDbCircle
 10
508.2476675905894
 20
2670.380922652747
 30
0.0
 40
15.57640193554679
100
AcDbArc
 50
288.0058901692783
 51
333.3319217269795
  0
ARC
  5
1A3
330
2
100
AcDbEntity
  8
Halfen
 62
     1
100
AcDbCircle
 10
526.9819723534296
 20
2648.576359642001
 30
0.0
 40
15.57640193554679
100
AcDbArc
 50
108.0058901692794
 51
153.3319217269807
  0
LINE
  5
1A4
330
2
100
AcDbEntity
  8
Halfen
100
AcDbLine
 10
511.337963433653
 20
2678.749999999998
 30
0.0
 11
523.3379634336529
 21
2678.749999999998
 31
0.0
  0
LINE
  5
1A5
330
2
100
AcDbEntity
  8
Halfen
100
AcDbLine
 10
535.3379634336529
 20
2683.249999999998
 30
0.0
 11
535.3379634336529
 21
2687.249999999998
 31
0.0
  0
LINE
  5
1A6
330
2
100
AcDbEntity
  8
Halfen
100
AcDbLine
 10
-117.75
 20
2150.832475480088
 30
0.0
 11
22.25
 21
2150.832475480088
 31
0.0
  0
LINE
  5
1A7
330
2
100
AcDbEntity
  8
Halfen
100
AcDbLine
 10
-147.75
 20
2120.832475480088
 30
0.0
 11
22.25
 21
2120.832475480087
 31
0.0
  0
LINE
  5
1A8
330
2
100
AcDbEntity
  8
Halfen
100
AcDbLine
 10
-117.75
 20
2102.401278354943
 30
0.0
 11
22.25
 21
2102.401278354943
 31
0.0
  0
LINE
  5
1A9
330
2
100
AcDbEntity
  8
Halfen
100
AcDbLine
 10
-117.75
 20
2088.401278354943
 30
0.0
 11
22.25
 21
2088.401278354943
 31
0.0
  0
LINE
  5
1AA
330
2
100
AcDbEntity
  8
Halfen
100
AcDbLine
 10
-117.75
 20
2066.401278354943
 30
0.0
 11
22.25
 21
2066.401278354943
 31
0.0
  0
LINE
  5
1AB
330
2
100
AcDbEntity
  8
Halfen
100
AcDbLine
 10
-117.75
 20
2052.401278354944
 30
0.0
 11
22.25
 21
2052.401278354944
 31
0.0
  0
LINE
  5
1AC
330
2
100
AcDbEntity
  8
Halfen
100
AcDbLine
 10
-117.75
 20
2102.401278354943
 30
0.0
 11
-117.75
 21
2052.401278354944
 31
0.0
  0
ARC
  5
1AD
330
2
100
AcDbEntity
  8
Halfen
100
AcDbCircle
 10
-143.0
 20
2097.651278354943
 30
0.0
 40
4.75
100
AcDbArc
 50
89.99999999999998
 51
209.9999999999945
  0
ARC
  5
1AE
330
2
100
AcDbEntity
  8
Halfen
100
AcDbCircle
 10
-122.0
 20
2056.651278354943
 30
0.0
 40
1.0
100
AcDbArc
 50
270.0
 51
0.0
  0
ARC
  5
1AF
330
2
100
AcDbEntity
  8
Halfen
100
AcDbCircle
 10
-122.0
 20
2056.651278354943
 30
0.0
 40
4.25
100
AcDbArc
 50
270.0
 51
0.0
  0
ARC
  5
1B0
330
2
100
AcDbEntity
  8
Halfen
100
AcDbCircle
 10
-143.0
 20
2057.151278354943
 30
0.0
 40
1.5
100
AcDbArc
 50
150.0000000000055
 51
270.0
  0
LINE
  5
1B1
330
2
100
AcDbEntity
  8
Halfen
100
AcDbLine
 10
-122.0
 20
2052.401278354944
 30
0.0
 11
-143.0
 21
2052.401278354944
 31
0.0
  0
LINE
  5
1B2
330
2
100
AcDbEntity
  8
Halfen
100
AcDbLine
 10
-122.0
 20
2055.651278354943
 30
0.0
 11
-143.0
 21
2055.651278354943
 31
0.0
  0
LINE
  5
1B3
330
2
100
AcDbEntity
  8
Halfen
100
AcDbLine
 10
-147.1136206679766
 20
2059.526278354943
 30
0.0
 11
-143.1443375672979
 21
2066.401278354943
 31
0.0
  0
LINE
  5
1B4
330
2
100
AcDbEntity
  8
Halfen
100
AcDbLine
 10
-143.1443375672979
 20
2066.401278354943
 30
0.0
 11
-140.3297550049983
 21
2064.776278354944
 31
0.0
  0
LINE
  5
1B5
330
2
100
AcDbEntity
  8
Halfen
100
AcDbLine
 10
-144.299038105677
 20
2057.901278354943
 30
0.0
 11
-140.3297550049983
 21
2064.776278354944
 31
0.0
  0
ARC
  5
1B6
330
2
100
AcDbEntity
  8
Halfen
100
AcDbCircle
 10
-143.0
 20
2057.151278354943
 30
0.0
 40
4.75
100
AcDbArc
 50
150.0000000000055
 51
270.0
  0
LINE
  5
1B7
330
2
100
AcDbEntity
  8
Halfen
100
AcDbLine
 10
-143.1443375672979
 20
2088.401278354943
 30
0.0
 11
-140.3297550049983
 21
2090.026278354943
 31
0.0
  0
LINE
  5
1B8
330
2
100
AcDbEntity
  8
Halfen
100
AcDbLine
 10
-147.1136206679766
 20
2095.276278354944
 30
0.0
 11
-143.1443375672979
 21
2088.401278354943
 31
0.0
  0
LINE
  5
1B9
330
2
100
AcDbEntity
  8
Halfen
100
AcDbLine
 10
-144.299038105677
 20
2096.901278354943
 30
0.0
 11
-140.3297550049983
 21
2090.026278354943
 31
0.0
  0
ARC
  5
1BA
330
2
100
AcDbEntity
  8
Halfen
100
AcDbCircle
 10
-122.0
 20
2098.151278354944
 30
0.0
 40
4.25
100
AcDbArc
 50
0.0
 51
89.99999999999998
  0
LINE
  5
1BB
330
2
100
AcDbEntity
  8
Halfen
100
AcDbLine
 10
-122.0
 20
2102.401278354943
 30
0.0
 11
-143.0
 21
2102.401278354943
 31
0.0
  0
LINE
  5
1BC
330
2
100
AcDbEntity
  8
Halfen
100
AcDbLine
 10
-122.0
 20
2099.151278354943
 30
0.0
 11
-143.0
 21
2099.151278354943
 31
0.0
  0
ARC
  5
1BD
330
2
100
AcDbEntity
  8
Halfen
100
AcDbCircle
 10
-143.0
 20
2097.651278354943
 30
0.0
 40
1.5
100
AcDbArc
 50
89.99999999999998
 51
209.9999999999945
  0
ARC
  5
1BE
330
2
100
AcDbEntity
  8
Halfen
100
AcDbCircle
 10
-122.0
 20
2098.151278354944
 30
0.0
 40
1.0
100
AcDbArc
 50
0.0
 51
89.99999999999998
  0
LINE
  5
1BF
330
2
100
AcDbEntity
  8
Halfen
100
AcDbLine
 10
-121.0
 20
2098.151278354944
 30
0.0
 11
-121.0
 21
2056.651278354943
 31
0.0
  0
LINE
  5
1C0
330
2
100
AcDbEntity
  8
Halfen
100
AcDbLine
 10
-147.75
 20
2150.832475480088
 30
0.0
 11
-147.75
 21
2120.832475480088
 31
0.0
  0
LINE
  5
1C1
330
2
100
AcDbEntity
  8
Halfen
100
AcDbLine
 10
22.25
 20
2102.401278354943
 30
0.0
 11
22.25
 21
2052.401278354944
 31
0.0
  0
LINE
  5
1C2
330
2
100
AcDbEntity
  8
Halfen
100
AcDbLine
 10
22.25
 20
2150.832475480088
 30
0.0
 11
22.25
 21
2125.582475480088
 31
0.0
  0
LINE
  5
1C3
330
2
100
AcDbEntity
  8
Halfen
100
AcDbLine
 10
22.25
 20
2125.582475480088
 30
0.0
 11
22.25
 21
2120.832475480087
 31
0.0
  0
LINE
  5
1C4
330
2
100
AcDbEntity
  8
Halfen
100
AcDbLine
 10
-117.75
 20
2290.832475480088
 30
0.0
 11
-117.75
 21
2120.832475480088
 31
0.0
  0
LINE
  5
1C5
330
2
100
AcDbEntity
  8
Halfen
100
AcDbLine
 10
-147.75
 20
2290.832475480088
 30
0.0
 11
-147.7500000000008
 21
2120.832475480088
 31
0.0
  0
LINE
  5
1C6
330
2
100
AcDbEntity
  8
Halfen
100
AcDbLine
 10
-117.75
 20
2290.832475480088
 30
0.0
 11
-147.75
 21
2290.832475480088
 31
0.0
  0
LINE
  5
1C7
330
2
100
AcDbEntity
  8
Halfen
100
AcDbLine
 10
93.36626970967598
 20
2261.848240126376
 30
0.0
 11
-17.64949493661129
 21
2150.832475480088
 31
0.0
  0
LINE
  5
1C8
330
2
100
AcDbEntity
  8
Halfen
100
AcDbLine
 10
103.2657646462878
 20
2251.948745189765
 30
0.0
 11
2.14949493661129
 21
2150.832475480088
 31
0.0
  0
ARC
  5
1C9
330
2
100
AcDbEntity
  8
Halfen
 62
     1
100
AcDbCircle
 10
64.76517819341757
 20
2239.415121993653
 30
0.0
 40
18.32517874770211
100
AcDbArc
 50
341.6680782730194
 51
26.99410983072062
  0
ARC
  5
1CA
330
2
100
AcDbEntity
  8
Halfen
 62
     1
100
AcDbCircle
 10
98.48907031615613
 20
2241.969240143168
 30
0.0
 40
18.32517874770211
100
AcDbArc
 50
161.6680782730206
 51
206.9941098307218
  0
ARC
  5
1CB
330
2
100
AcDbEntity
  8
Halfen
 62
     1
100
AcDbCircle
 10
54.15857647561939
 20
2228.808520275855
 30
0.0
 40
18.32517874770211
100
AcDbArc
 50
341.6680782730194
 51
26.99410983072062
  0
ARC
  5
1CC
330
2
100
AcDbEntity
  8
Halfen
 62
     1
100
AcDbCircle
 10
87.88246859835794
 20
2231.36263842537
 30
0.0
 40
18.32517874770211
100
AcDbArc
 50
161.6680782730206
 51
206.9941098307218
  0
ARC
  5
1CD
330
2
100
AcDbEntity
  8
Halfen
 62
     1
100
AcDbCircle
 10
43.55197475782119
 20
2218.201918558056
 30
0.0
 40
18.32517874770211
100
AcDbArc
 50
341.6680782730194
 51
26.99410983072062
  0
ARC
  5
1CE
330
2
100
AcDbEntity
  8
Halfen
 62
     1
100
AcDbCircle
 10
77.27586688055976
 20
2220.756036707572
 30
0.0
 40
18.32517874770211
100
AcDbArc
 50
161.6680782730206
 51
206.9941098307218
  0
ARC
  5
1CF
330
2
100
AcDbEntity
  8
Halfen
 62
     1
100
AcDbCircle
 10
32.94537304002347
 20
2207.595316840258
 30
0.0
 40
18.32517874770211
100
AcDbArc
 50
341.6680782730194
 51
26.99410983072062
  0
ARC
  5
1D0
330
2
100
AcDbEntity
  8
Halfen
 62
     1
100
AcDbCircle
 10
109.0956720339538
 20
2252.575841860966
 30
0.0
 40
18.32517874770211
100
AcDbArc
 50
161.6680782730206
 51
206.9941098307218
  0
ARC
  5
1D1
330
2
100
AcDbEntity
  8
Halfen
 62
     1
100
AcDbCircle
 10
75.3717799112153
 20
2250.021723711451
 30
0.0
 40
18.32517874770211
100
AcDbArc
 50
341.6680782730194
 51
26.99410983072062
  0
LINE
  5
1D2
330
2
100
AcDbEntity
  8
Halfen
100
AcDbLine
 10
116.7007934888322
 20
2245.584784159085
 30
0.0
 11
87.00230867899723
 21
2275.28326896892
 31
0.0
  0
LINE
  5
1D3
330
2
100
AcDbEntity
  8
Halfen
100
AcDbLine
 10
93.36626970967632
 20
2261.848240126376
 30
0.0
 11
87.00230867899723
 21
2275.28326896892
 31
0.0
  0
LINE
  5
1D4
330
2
100
AcDbEntity
  8
Halfen
100
AcDbLine
 10
90.5378425849301
 20
2278.818802874853
 30
0.0
 11
87.00230867899723
 21
2275.28326896892
 31
0.0
  0
LINE
  5
1D5
330
2
100
AcDbEntity
  8
Halfen
100
AcDbLine
 10
120.2363273947651
 20
2249.120318065018
 30
0.0
 11
90.5378425849301
 21
2278.818802874853
 31
0.0
  0
LINE
  5
1D6
330
2
100
AcDbEntity
  8
Halfen
100
AcDbLine
 10
103.2657646462883
 20
2251.948745189765
 30
0.0
 11
93.36626970967586
 21
2261.848240126376
 31
0.0
  0
LINE
  5
1D7
330
2
100
AcDbEntity
  8
Halfen
100
AcDbLine
 10
120.2363273947651
 20
2249.120318065018
 30
0.0
 11
116.7007934888322
 21
2245.584784159085
 31
0.0
  0
LINE
  5
1D8
330
2
100
AcDbEntity
  8
Halfen
100
AcDbLine
 10
103.2657646462878
 20
2251.948745189764
 30
0.0
 11
116.7007934888322
 21
2245.584784159085
 31
0.0
  0
ARC
  5
1D9
330
2
100
AcDbEntity
  8
Halfen
 62
     1
100
AcDbCircle
 10
45.45606172716657
 20
2188.936231554177
 30
0.0
 40
18.32517874770211
100
AcDbArc
 50
161.6680782730206
 51
206.9941098307218
  0
ARC
  5
1DA
330
2
100
AcDbEntity
  8
Halfen
 62
     1
100
AcDbCircle
 10
11.73216960442846
 20
2186.382113404662
 30
0.0
 40
18.32517874770211
100
AcDbArc
 50
341.6680782730194
 51
26.99410983072062
  0
ARC
  5
1DB
330
2
100
AcDbEntity
  8
Halfen
 62
     1
100
AcDbCircle
 10
-9.481033831167451
 20
2165.168909969065
 30
0.0
 40
18.32517874770211
100
AcDbArc
 50
341.6680782730194
 51
26.99410983072062
  0
ARC
  5
1DC
330
2
100
AcDbEntity
  8
Halfen
 62
     1
100
AcDbCircle
 10
24.24285829157066
 20
2167.72302811858
 30
0.0
 40
18.32517874770211
100
AcDbArc
 50
161.6680782730206
 51
206.9941098307218
  0
ARC
  5
1DD
330
2
100
AcDbEntity
  8
Halfen
 62
     1
100
AcDbCircle
 10
13.63625657377247
 20
2157.116426400782
 30
0.0
 40
18.32517874770211
100
AcDbArc
 50
161.6680782730206
 51
200.0544791068159
  0
ARC
  5
1DE
330
2
100
AcDbEntity
  8
Halfen
 62
     1
100
AcDbCircle
 10
-20.08763554896564
 20
2154.562308251267
 30
0.0
 40
18.32517874770211
100
AcDbArc
 50
348.2561912954242
 51
26.99410983072062
  0
ARC
  5
1DF
330
2
100
AcDbEntity
  8
Halfen
 62
     1
100
AcDbCircle
 10
1.125567886630733
 20
2175.775511686863
 30
0.0
 40
18.32517874770211
100
AcDbArc
 50
341.6680782730194
 51
26.99410983072062
  0
ARC
  5
1E0
330
2
100
AcDbEntity
  8
Halfen
 62
     1
100
AcDbCircle
 10
34.84946000936884
 20
2178.329629836378
 30
0.0
 40
18.32517874770211
100
AcDbArc
 50
161.6680782730206
 51
206.9941098307218
  0
ARC
  5
1E1
330
2
100
AcDbEntity
  8
Halfen
 62
     1
100
AcDbCircle
 10
66.66926516276203
 20
2210.149434989773
 30
0.0
 40
18.32517874770211
100
AcDbArc
 50
161.6680782730206
 51
206.9941098307218
  0
ARC
  5
1E2
330
2
100
AcDbEntity
  8
Halfen
 62
     1
100
AcDbCircle
 10
22.33877132222574
 20
2196.98871512246
 30
0.0
 40
18.32517874770211
100
AcDbArc
 50
341.6680782730194
 51
26.99410983072062
  0
ARC
  5
1E3
330
2
100
AcDbEntity
  8
Halfen
 62
     1
100
AcDbCircle
 10
56.0626634449643
 20
2199.542833271975
 30
0.0
 40
18.32517874770211
100
AcDbArc
 50
161.6680782730206
 51
206.9941098307218
  0
LINE
  5
1E4
330
2
100
AcDbEntity
  8
Halfen
100
AcDbLine
 10
-16.63373029032436
 20
2371.848240126377
 30
0.0
 11
-117.7500000000009
 21
2270.7319704167
 31
0.0
  0
LINE
  5
1E5
330
2
100
AcDbEntity
  8
Halfen
100
AcDbLine
 10
-6.734235353713756
 20
2361.948745189765
 30
0.0
 11
-117.7500000000009
 21
2250.932980543478
 31
0.0
  0
ARC
  5
1E6
330
2
100
AcDbEntity
  8
Halfen
 62
     1
100
AcDbCircle
 10
-82.20036207542717
 20
2280.314645084517
 30
0.0
 40
18.32517874770211
100
AcDbArc
 50
63.00589016927947
 51
108.3319217269807
  0
ARC
  5
1E7
330
2
100
AcDbEntity
  8
Halfen
 62
     1
100
AcDbCircle
 10
-79.64624392591168
 20
2314.038537207256
 30
0.0
 40
18.32517874770211
100
AcDbArc
 50
243.0058901692783
 51
288.3319217269795
  0
ARC
  5
1E8
330
2
100
AcDbEntity
  8
Halfen
 62
     1
100
AcDbCircle
 10
-111.4660490793067
 20
2282.218732053861
 30
0.0
 40
18.32517874770211
100
AcDbArc
 50
249.9455208931842
 51
288.3319217269795
  0
ARC
  5
1E9
330
2
100
AcDbEntity
  8
Halfen
 62
     1
100
AcDbCircle
 10
-114.0201672288222
 20
2248.494839931123
 30
0.0
 40
18.32517874770211
100
AcDbArc
 50
63.00589016927947
 51
101.7438087045759
  0
ARC
  5
1EA
330
2
100
AcDbEntity
  8
Halfen
 62
     1
100
AcDbCircle
 10
-103.413565511024
 20
2259.101441648921
 30
0.0
 40
18.32517874770211
100
AcDbArc
 50
63.00589016927947
 51
108.3319217269807
  0
ARC
  5
1EB
330
2
100
AcDbEntity
  8
Halfen
 62
     1
100
AcDbCircle
 10
-100.8594473615085
 20
2292.825333771659
 30
0.0
 40
18.32517874770211
100
AcDbArc
 50
243.0058901692783
 51
288.3319217269795
  0
ARC
  5
1EC
330
2
100
AcDbEntity
  8
Halfen
 62
     1
100
AcDbCircle
 10
-92.80696379322534
 20
2269.708043366719
 30
0.0
 40
18.32517874770211
100
AcDbArc
 50
63.00589016927947
 51
108.3319217269807
  0
ARC
  5
1ED
330
2
100
AcDbEntity
  8
Halfen
 62
     1
100
AcDbCircle
 10
-90.25284564371032
 20
2303.431935489458
 30
0.0
 40
18.32517874770211
100
AcDbArc
 50
243.0058901692783
 51
288.3319217269795
  0
LINE
  5
1EE
330
2
100
AcDbEntity
  8
Halfen
100
AcDbLine
 10
-16.63373029032527
 20
2371.848240126377
 30
0.0
 11
-22.99769132100437
 21
2385.283268968921
 31
0.0
  0
LINE
  5
1EF
330
2
100
AcDbEntity
  8
Halfen
100
AcDbLine
 10
-19.46215741507103
 20
2388.818802874854
 30
0.0
 11
-22.99769132100437
 21
2385.283268968921
 31
0.0
  0
LINE
  5
1F0
330
2
100
AcDbEntity
  8
Halfen
100
AcDbLine
 10
-22.99769132100437
 20
2385.283268968921
 30
0.0
 11
6.700793488831095
 21
2355.584784159086
 31
0.0
  0
ARC
  5
1F1
330
2
100
AcDbEntity
  8
Halfen
 62
     1
100
AcDbCircle
 10
-16.00663361912302
 20
2377.678147514043
 30
0.0
 40
18.32517874770211
100
AcDbArc
 50
243.0058901692783
 51
288.3319217269795
  0
ARC
  5
1F2
330
2
100
AcDbEntity
  8
Halfen
 62
     1
100
AcDbCircle
 10
-18.56075176863851
 20
2343.954255391304
 30
0.0
 40
18.32517874770211
100
AcDbArc
 50
63.00589016927947
 51
108.3319217269807
  0
ARC
  5
1F3
330
2
100
AcDbEntity
  8
Halfen
 62
     1
100
AcDbCircle
 10
-29.16735348643624
 20
2333.347653673507
 30
0.0
 40
18.32517874770211
100
AcDbArc
 50
63.00589016927947
 51
108.3319217269807
  0
ARC
  5
1F4
330
2
100
AcDbEntity
  8
Halfen
 62
     1
100
AcDbCircle
 10
-26.61323533692121
 20
2367.071545796245
 30
0.0
 40
18.32517874770211
100
AcDbArc
 50
243.0058901692783
 51
288.3319217269795
  0
ARC
  5
1F5
330
2
100
AcDbEntity
  8
Halfen
 62
     1
100
AcDbCircle
 10
-50.38055692203261
 20
2312.13445023791
 30
0.0
 40
18.32517874770211
100
AcDbArc
 50
63.00589016927947
 51
108.3319217269807
  0
ARC
  5
1F6
330
2
100
AcDbEntity
  8
Halfen
 62
     1
100
AcDbCircle
 10
-47.82643877251757
 20
2345.858342360649
 30
0.0
 40
18.32517874770211
100
AcDbArc
 50
243.0058901692783
 51
288.3319217269795
  0
ARC
  5
1F7
330
2
100
AcDbEntity
  8
Halfen
 62
     1
100
AcDbCircle
 10
-60.9871586398308
 20
2301.527848520112
 30
0.0
 40
18.32517874770211
100
AcDbArc
 50
63.00589016927947
 51
108.3319217269807
  0
ARC
  5
1F8
330
2
100
AcDbEntity
  8
Halfen
 62
     1
100
AcDbCircle
 10
-58.4330404903153
 20
2335.251740642851
 30
0.0
 40
18.32517874770211
100
AcDbArc
 50
243.0058901692783
 51
288.3319217269795
  0
ARC
  5
1F9
330
2
100
AcDbEntity
  8
Halfen
 62
     1
100
AcDbCircle
 10
-71.59376035762898
 20
2290.921246802315
 30
0.0
 40
18.32517874770211
100
AcDbArc
 50
63.00589016927947
 51
108.3319217269807
  0
ARC
  5
1FA
330
2
100
AcDbEntity
  8
Halfen
 62
     1
100
AcDbCircle
 10
-69.03964220811349
 20
2324.645138925053
 30
0.0
 40
18.32517874770211
100
AcDbArc
 50
243.0058901692783
 51
288.3319217269795
  0
ARC
  5
1FB
330
2
100
AcDbEntity
  8
Halfen
 62
     1
100
AcDbCircle
 10
-39.77395520423442
 20
2322.741051955708
 30
0.0
 40
18.32517874770211
100
AcDbArc
 50
63.00589016927947
 51
108.3319217269807
  0
ARC
  5
1FC
330
2
100
AcDbEntity
  8
Halfen
 62
     1
100
AcDbCircle
 10
-37.21983705471939
 20
2356.464944078447
 30
0.0
 40
18.32517874770211
100
AcDbArc
 50
243.0058901692783
 51
288.3319217269795
  0
LINE
  5
1FD
330
2
100
AcDbEntity
  8
Halfen
100
AcDbLine
 10
-16.63373029032436
 20
2371.848240126377
 30
0.0
 11
-6.734235353713756
 21
2361.948745189765
 31
0.0
  0
LINE
  5
1FE
330
2
100
AcDbEntity
  8
Halfen
100
AcDbLine
 10
-19.46215741507103
 20
2388.818802874854
 30
0.0
 11
10.23632739476352
 21
2359.120318065019
 31
0.0
  0
LINE
  5
1FF
330
2
100
AcDbEntity
  8
Halfen
100
AcDbLine
 10
10.23632739476352
 20
2359.120318065019
 30
0.0
 11
6.700793488831095
 21
2355.584784159086
 31
0.0
  0
LINE
  5
200
330
2
100
AcDbEntity
  8
Halfen
100
AcDbLine
 10
-6.734235353713756
 20
2361.948745189765
 30
0.0
 11
6.700793488831095
 21
2355.584784159086
 31
0.0
  0
LINE
  5
201
330
2
100
AcDbEntity
  8
Halfen
100
AcDbLine
 10
-167.7500000000009
 20
2120.832475480088
 30
0.0
 11
-217.75
 21
2120.832475480088
 31
0.0
  0
LINE
  5
202
330
2
100
AcDbEntity
  8
Halfen
100
AcDbLine
 10
-167.75
 20
2290.832475480088
 30
0.0
 11
-217.75
 21
2290.832475480088
 31
0.0
  0
LINE
  5
203
330
2
100
AcDbEntity
  8
Halfen
100
AcDbLine
 10
-217.75
 20
2290.832475480088
 30
0.0
 11
-217.75
 21
2120.832475480088
 31
0.0
  0
LINE
  5
204
330
2
100
AcDbEntity
  8
Halfen
100
AcDbLine
 10
-203.75
 20
2290.832475480088
 30
0.0
 11
-203.75
 21
2120.832475480088
 31
0.0
  0
LINE
  5
205
330
2
100
AcDbEntity
  8
Halfen
100
AcDbLine
 10
-181.75
 20
2290.832475480088
 30
0.0
 11
-181.75
 21
2120.832475480088
 31
0.0
  0
LINE
  5
206
330
2
100
AcDbEntity
  8
Halfen
100
AcDbLine
 10
-167.75
 20
2290.832475480088
 30
0.0
 11
-167.7500000000009
 21
2120.832475480088
 31
0.0
  0
LINE
  5
207
330
2
100
AcDbEntity
  8
Halfen
100
AcDbLine
 10
98.31601717798276
 20
2070.401278355748
 30
0.0
 11
22.25000000000012
 21
2070.401278355748
 31
0.0
  0
LINE
  5
208
330
2
100
AcDbEntity
  8
Halfen
100
AcDbLine
 10
98.31601717798276
 20
2084.401278355748
 30
0.0
 11
22.25000000000012
 21
2084.401278355748
 31
0.0
  0
ARC
  5
209
330
2
100
AcDbEntity
  8
Halfen
 62
     1
100
AcDbCircle
 10
43.12592851769136
 20
2088.080221094591
 30
0.0
 40
18.32517874770211
100
AcDbArc
 50
198.0058901692783
 51
243.3319217269795
  0
ARC
  5
20A
330
2
100
AcDbEntity
  8
Halfen
 62
     1
100
AcDbCircle
 10
17.47350144622555
 20
2066.039862550073
 30
0.0
 40
18.32517874770211
100
AcDbArc
 50
18.00589016927945
 51
63.33192172698071
  0
ELLIPSE
  5
20B
330
2
100
AcDbEntity
  8
Halfen
100
AcDbEllipse
 10
98.31601717798276
 20
2077.401278355748
 30
0.0
 11
0.0
 21
7.0
 31
0.0
210
0.0
220
0.0
230
1.0
 40
0.7071067811866831
 41
3.141592653589793
 42
6.283185307179586
  0
ARC
  5
20C
330
2
100
AcDbEntity
  8
Halfen
 62
     1
100
AcDbCircle
 10
88.12592851769091
 20
2088.080221094589
 30
0.0
 40
18.32517874770211
100
AcDbArc
 50
198.0058901692783
 51
243.3319217269795
  0
ARC
  5
20D
330
2
100
AcDbEntity
  8
Halfen
 62
     1
100
AcDbCircle
 10
62.4735014462251
 20
2066.039862550072
 30
0.0
 40
18.32517874770211
100
AcDbArc
 50
18.00589016927945
 51
63.33192172698071
  0
ARC
  5
20E
330
2
100
AcDbEntity
  8
Halfen
 62
     1
100
AcDbCircle
 10
73.12592851769091
 20
2088.080221094589
 30
0.0
 40
18.32517874770211
100
AcDbArc
 50
198.0058901692783
 51
243.3319217269795
  0
ARC
  5
20F
330
2
100
AcDbEntity
  8
Halfen
 62
     1
100
AcDbCircle
 10
47.4735014462251
 20
2066.039862550072
 30
0.0
 40
18.32517874770211
100
AcDbArc
 50
18.00589016927945
 51
63.33192172698071
  0
ARC
  5
210
330
2
100
AcDbEntity
  8
Halfen
 62
     1
100
AcDbCircle
 10
58.12592851769091
 20
2088.080221094591
 30
0.0
 40
18.32517874770211
100
AcDbArc
 50
198.0058901692783
 51
243.3319217269795
  0
ARC
  5
211
330
2
100
AcDbEntity
  8
Halfen
 62
     1
100
AcDbCircle
 10
32.4735014462251
 20
2066.039862550073
 30
0.0
 40
18.32517874770211
100
AcDbArc
 50
18.00589016927945
 51
63.33192172698071
  0
ARC
  5
212
330
2
100
AcDbEntity
  8
Halfen
 62
     1
100
AcDbCircle
 10
103.1259285176909
 20
2088.080221094589
 30
0.0
 40
18.32517874770211
100
AcDbArc
 50
198.0058901692783
 51
243.3319217269795
  0
ARC
  5
213
330
2
100
AcDbEntity
  8
Halfen
 62
     1
100
AcDbCircle
 10
77.4735014462251
 20
2066.039862550072
 30
0.0
 40
18.32517874770211
100
AcDbArc
 50
18.00589016927945
 51
63.33192172698071
  0
ELLIPSE
  5
214
330
2
100
AcDbEntity
  8
Halfen
100
AcDbEllipse
 10
101.8515510839147
 20
2077.401278355748
 30
0.0
 11
0.0
 21
-21.0
 31
0.0
210
0.0
220
0.0
230
1.0
 40
0.7071067811865479
 41
5.052225889838811
 42
10.65573737811015
  0
ELLIPSE
  5
215
330
2
100
AcDbEntity
  8
Halfen
100
AcDbEllipse
 10
105.3870849898476
 20
2077.401278355748
 30
0.0
 11
0.0
 21
21.0
 31
0.0
210
0.0
220
0.0
230
1.0
 40
0.7071067811865479
 41
3.141592653589793
 42
6.283185307179586
  0
LINE
  5
216
330
2
100
AcDbEntity
  8
Halfen
100
AcDbLine
 10
105.3870849898476
 20
2056.401278355748
 30
0.0
 11
101.8515510839147
 21
2056.401278355748
 31
0.0
  0
LINE
  5
217
330
2
100
AcDbEntity
  8
Halfen
100
AcDbLine
 10
105.3870849898476
 20
2098.401278355748
 30
0.0
 11
101.8515510839147
 21
2098.401278355748
 31
0.0
  0
TEXT
  5
2FB
330
2
100
AcDbEntity
  8
Halfen
100
AcDbText
 10
-162.75
 20
2719.749999999999
 30
0.0
 40
5.0
  1

  7
ARIAL50
100
AcDbText
  0
TEXT
  5
2FE
330
2
100
AcDbEntity
  8
Halfen
100
AcDbText
 10
57.25
 20
2719.749999999999
 30
0.0
 40
5.0
  1

  7
ARIAL50
100
AcDbText
  0
TEXT
  5
2FF
330
2
100
AcDbEntity
  8
Halfen
100
AcDbText
 10
327.25
 20
2719.749999999999
 30
0.0
 40
5.0
  1

  7
ARIAL50
100
AcDbText
  0
TEXT
  5
300
330
2
100
AcDbEntity
  8
Halfen
100
AcDbText
 10
-162.75
 20
2421.318802874854
 30
0.0
 40
5.0
  1

  7
ARIAL50
100
AcDbText
  0
ENDSEC
  0
SECTION
  2
OBJECTS
  0
DICTIONARY
  5
8
330
0
100
AcDbDictionary
281
     1
  3
ACAD_CIP_PREVIOUS_PRODUCT_INFO
350
283
  3
ACAD_COLOR
350
24
  3
ACAD_GROUP
350
20
  3
ACAD_LAYOUT
350
C
  3
ACAD_MATERIAL
350
23
  3
ACAD_MLEADERSTYLE
350
27D
  3
ACAD_MLINESTYLE
350
21
  3
ACAD_PLOTSETTINGS
350
22
  3
ACAD_PLOTSTYLENAME
350
7
  3
ACAD_SCALELIST
350
26B
  3
ACAD_TABLESTYLE
350
25
  3
ACAD_VISUALSTYLE
350
252
  3
ACDB_RECOMPOSE_DATA
350
30F
  3
AcDbVariableDictionary
350
21D
  3
AcmDictionary
350
2B1
  3
AMG
350
285
  3
AMGSNAPSETTINGS
350
2F4
  3
ASE_INDEX_DICTIONARY
350
21A
  0
DICTIONARY
  5
301
330
5
100
AcDbDictionary
280
     1
281
     1
  3
ADSK_XREC_LAYER_RECONCILED
360
302
  0
DICTIONARY
  5
303
330
26
100
AcDbDictionary
280
     1
281
     1
  3
ADSK_XREC_LAYER_RECONCILED
360
304
  0
DICTIONARY
  5
3
330
2
100
AcDbDictionary
280
     1
281
     1
  0
XRECORD
  5
283
102
{ACAD_REACTORS
330
8
102
}
330
8
100
AcDbXrecord
280
     1
300
AMECH_PP
300
2012
300
PDSP_F_S
  0
DICTIONARY
  5
24
102
{ACAD_REACTORS
330
8
102
}
330
8
100
AcDbDictionary
281
     1
  0
DICTIONARY
  5
20
102
{ACAD_REACTORS
330
8
102
}
330
8
100
AcDbDictionary
281
     1
  0
DICTIONARY
  5
C
102
{ACAD_REACTORS
330
8
102
}
330
8
100
AcDbDictionary
281
     1
  3
Layout1
350
10
  3
Model
350
B
  0
DICTIONARY
  5
23
102
{ACAD_REACTORS
330
8
102
}
330
8
100
AcDbDictionary
281
     1
  3
ByBlock
350
242
  3
ByLayer
350
23A
  3
Global
350
24A
  0
DICTIONARY
  5
27D
102
{ACAD_REACTORS
330
8
102
}
330
8
100
AcDbDictionary
281
     1
  3
Standard
350
27E
  0
DICTIONARY
  5
21
102
{ACAD_REACTORS
330
8
102
}
330
8
100
AcDbDictionary
281
     1
  3
STANDARD
350
28
  0
DICTIONARY
  5
22
102
{ACAD_REACTORS
330
8
102
}
330
8
100
AcDbDictionary
281
     1
  0
ACDBDICTIONARYWDFLT
  5
7
102
{ACAD_REACTORS
330
8
102
}
330
8
100
AcDbDictionary
281
     1
  3
Normal
350
6
100
AcDbDictionaryWithDefault
340
6
  0
DICTIONARY
  5
26B
102
{ACAD_REACTORS
330
8
102
}
330
8
100
AcDbDictionary
281
     1
  3
A0
350
26C
  3
A1
350
26D
  3
A2
350
26E
  3
A3
350
26F
  3
A4
350
270
  3
A5
350
271
  3
A6
350
272
  3
A7
350
273
  3
A8
350
274
  3
A9
350
275
  3
B0
350
276
  3
B1
350
277
  3
B2
350
278
  3
B3
350
279
  3
B4
350
27A
  3
B5
350
27B
  3
B6
350
27C
  0
DICTIONARY
  5
25
102
{ACAD_REACTORS
330
8
102
}
330
8
100
AcDbDictionary
281
     1
  3
Standard
350
29
  0
DICTIONARY
  5
252
102
{ACAD_REACTORS
330
8
102
}
330
8
100
AcDbDictionary
281
     1
  3
2dWireframe
350
258
  3
Basic
350
257
  3
Brighten
350
25E
  3
ColorChange
350
262
  3
Conceptual
350
25B
  3
Dim
350
25D
  3
EdgeColorOff
350
26A
  3
Facepattern
350
261
  3
Flat
350
253
  3
FlatWithEdges
350
254
  3
Gouraud
350
255
  3
GouraudWithEdges
350
256
  3
Hidden
350
25A
  3
JitterOff
350
268
  3
Linepattern
350
260
  3
OverhangOff
350
269
  3
Realistic
350
25C
  3
Shaded
350
267
  3
Shaded with edges
350
266
  3
Shades of Gray
350
263
  3
Sketchy
350
264
  3
Thicken
350
25F
  3
Wireframe
350
259
  3
X-Ray
350
265
  0
XRECORD
  5
30F
102
{ACAD_REACTORS
330
8
102
}
330
8
100
AcDbXrecord
280
     1
 90
        1
330
29
  0
DICTIONARY
  5
21D
102
{ACAD_REACTORS
330
8
102
}
330
8
100
AcDbDictionary
281
     1
  3
CANNOSCALE
350
307
  3
CMLEADERSTYLE
350
305
  3
CTABLESTYLE
350
21E
  3
DIMASSOC
350
22C
  3
HIDETEXT
350
22B
  3
LAYEREVAL
350
309
  3
LAYERNOTIFY
350
30A
  3
LIGHTINGUNITS
350
308
  3
MSLTSCALE
350
306
  3
PROJECTNAME
350
22D
  0
DICTIONARY
  5
2B1
102
{ACAD_REACTORS
330
8
102
}
330
8
100
AcDbDictionary
281
     1
  3
AcmStdDictionary
350
2B8
  0
DICTIONARY
  5
285
102
{ACAD_REACTORS
330
8
102
}
330
8
100
AcDbDictionary
281
     1
  0
DICTIONARY
  5
2F4
102
{ACAD_REACTORS
330
8
102
}
330
8
100
AcDbDictionary
281
     1
  0
DICTIONARY
  5
21A
102
{ACAD_REACTORS
330
8
102
}
330
8
100
AcDbDictionary
281
     1
  3
ASEBlockHierarchyIndexRecord
350
21C
1001
DCO15
1040
1565414224.687
  0
XRECORD
  5
302
102
{ACAD_REACTORS
330
301
102
}
330
301
100
AcDbXrecord
280
     1
290
     1
  0
XRECORD
  5
304
102
{ACAD_REACTORS
330
303
102
}
330
303
100
AcDbXrecord
280
     1
290
     1
  0
LAYOUT
  5
10
102
{ACAD_REACTORS
330
C
102
}
330
C
100
AcDbPlotSettings
  1

  2
\\dlant020\DLAKBHL013
  4

  6

 40
0.0
 41
0.0
 42
0.0
 43
0.0
 44
0.0
 45
0.0
 46
0.0
 47
0.0
 48
0.0
 49
0.0
140
0.0
141
0.0
142
1.0
143
1.0
 70
   688
 72
     0
 73
     0
 74
     5
  7

 75
    16
147
1.0
 76
     0
 77
     2
 78
   300
148
0.0
149
0.0
100
AcDbLayout
  1
Layout1
 70
     1
 71
     1
 10
0.0
 20
0.0
 11
12.0
 21
9.0
 12
0.0
 22
0.0
 32
0.0
 14
1.000000000000000E+20
 24
1.000000000000000E+20
 34
1.000000000000000E+20
 15
-1.000000000000000E+20
 25
-1.000000000000000E+20
 35
-1.000000000000000E+20
146
0.0
 13
0.0
 23
0.0
 33
0.0
 16
1.0
 26
0.0
 36
0.0
 17
0.0
 27
1.0
 37
0.0
 76
     0
330
D
  0
LAYOUT
  5
B
102
{ACAD_REACTORS
330
C
102
}
330
C
100
AcDbPlotSettings
  1

  2
\\dlant020\DLAKBHL013
  4

  6

 40
0.0
 41
0.0
 42
0.0
 43
0.0
 44
0.0
 45
0.0
 46
0.0
 47
0.0
 48
0.0
 49
0.0
140
0.0
141
0.0
142
1.0
143
1.0
 70
  1712
 72
     0
 73
     0
 74
     0
  7

 75
     0
147
1.0
 76
     0
 77
     2
 78
   300
148
0.0
149
0.0
100
AcDbLayout
  1
Model
 70
     1
 71
     0
 10
0.0
 20
0.0
 11
12.0
 21
9.0
 12
0.0
 22
0.0
 32
0.0
 14
0.0
 24
0.0
 34
0.0
 15
0.0
 25
0.0
 35
0.0
146
0.0
 13
0.0
 23
0.0
 33
0.0
 16
1.0
 26
0.0
 36
0.0
 17
0.0
 27
1.0
 37
0.0
 76
     0
330
2
331
232
  0
MATERIAL
  5
242
102
{ACAD_XDICTIONARY
360
243
102
}
102
{ACAD_REACTORS
330
23
102
}
330
23
100
AcDbMaterial
  1
ByBlock
 72
     0
 43
0.0008202099737533
 43
0.0
 43
0.0
 43
0.0
 43
0.0
 43
0.0008202099737533
 43
0.0
 43
0.0
 43
0.0
 43
0.0
 43
1.0
 43
0.0
 43
0.0
 43
0.0
 43
0.0
 43
1.0
 77
     0
 47
0.0008202099737533
 47
0.0
 47
0.0
 47
0.0
 47
0.0
 47
0.0008202099737533
 47
0.0
 47
0.0
 47
0.0
 47
0.0
 47
1.0
 47
0.0
 47
0.0
 47
0.0
 47
0.0
 47
1.0
171
     0
 49
0.0008202099737533
 49
0.0
 49
0.0
 49
0.0
 49
0.0
 49
0.0008202099737533
 49
0.0
 49
0.0
 49
0.0
 49
0.0
 49
1.0
 49
0.0
 49
0.0
 49
0.0
 49
0.0
 49
1.0
175
     0
142
0.0008202099737533
142
0.0
142
0.0
142
0.0
142
0.0
142
0.0008202099737533
142
0.0
142
0.0
142
0.0
142
0.0
142
1.0
142
0.0
142
0.0
142
0.0
142
0.0
142
1.0
179
     0
144
0.0008202099737533
144
0.0
144
0.0
144
0.0
144
0.0
144
0.0008202099737533
144
0.0
144
0.0
144
0.0
144
0.0
144
1.0
144
0.0
144
0.0
144
0.0
144
0.0
144
1.0
147
0.0008202099737533
147
0.0
147
0.0
147
0.0
147
0.0
147
0.0008202099737533
147
0.0
147
0.0
147
0.0
147
0.0
147
1.0
147
0.0
147
0.0
147
0.0
147
0.0
147
1.0
  0
MATERIAL
  5
23A
102
{ACAD_XDICTIONARY
360
23B
102
}
102
{ACAD_REACTORS
330
23
102
}
330
23
100
AcDbMaterial
  1
ByLayer
 72
     0
 43
0.0008202099737533
 43
0.0
 43
0.0
 43
0.0
 43
0.0
 43
0.0008202099737533
 43
0.0
 43
0.0
 43
0.0
 43
0.0
 43
1.0
 43
0.0
 43
0.0
 43
0.0
 43
0.0
 43
1.0
 77
     0
 47
0.0008202099737533
 47
0.0
 47
0.0
 47
0.0
 47
0.0
 47
0.0008202099737533
 47
0.0
 47
0.0
 47
0.0
 47
0.0
 47
1.0
 47
0.0
 47
0.0
 47
0.0
 47
0.0
 47
1.0
171
     0
 49
0.0008202099737533
 49
0.0
 49
0.0
 49
0.0
 49
0.0
 49
0.0008202099737533
 49
0.0
 49
0.0
 49
0.0
 49
0.0
 49
1.0
 49
0.0
 49
0.0
 49
0.0
 49
0.0
 49
1.0
175
     0
142
0.0008202099737533
142
0.0
142
0.0
142
0.0
142
0.0
142
0.0008202099737533
142
0.0
142
0.0
142
0.0
142
0.0
142
1.0
142
0.0
142
0.0
142
0.0
142
0.0
142
1.0
179
     0
144
0.0008202099737533
144
0.0
144
0.0
144
0.0
144
0.0
144
0.0008202099737533
144
0.0
144
0.0
144
0.0
144
0.0
144
1.0
144
0.0
144
0.0
144
0.0
144
0.0
144
1.0
147
0.0008202099737533
147
0.0
147
0.0
147
0.0
147
0.0
147
0.0008202099737533
147
0.0
147
0.0
147
0.0
147
0.0
147
1.0
147
0.0
147
0.0
147
0.0
147
0.0
147
1.0
  0
MATERIAL
  5
24A
102
{ACAD_XDICTIONARY
360
24B
102
}
102
{ACAD_REACTORS
330
23
102
}
330
23
100
AcDbMaterial
  1
Global
 72
     0
 43
0.0008202099737533
 43
0.0
 43
0.0
 43
0.0
 43
0.0
 43
0.0008202099737533
 43
0.0
 43
0.0
 43
0.0
 43
0.0
 43
1.0
 43
0.0
 43
0.0
 43
0.0
 43
0.0
 43
1.0
 77
     0
 47
0.0008202099737533
 47
0.0
 47
0.0
 47
0.0
 47
0.0
 47
0.0008202099737533
 47
0.0
 47
0.0
 47
0.0
 47
0.0
 47
1.0
 47
0.0
 47
0.0
 47
0.0
 47
0.0
 47
1.0
171
     0
 49
0.0008202099737533
 49
0.0
 49
0.0
 49
0.0
 49
0.0
 49
0.0008202099737533
 49
0.0
 49
0.0
 49
0.0
 49
0.0
 49
1.0
 49
0.0
 49
0.0
 49
0.0
 49
0.0
 49
1.0
175
     0
142
0.0008202099737533
142
0.0
142
0.0
142
0.0
142
0.0
142
0.0008202099737533
142
0.0
142
0.0
142
0.0
142
0.0
142
1.0
142
0.0
142
0.0
142
0.0
142
0.0
142
1.0
179
     0
144
0.0008202099737533
144
0.0
144
0.0
144
0.0
144
0.0
144
0.0008202099737533
144
0.0
144
0.0
144
0.0
144
0.0
144
1.0
144
0.0
144
0.0
144
0.0
144
0.0
144
1.0
147
0.0008202099737533
147
0.0
147
0.0
147
0.0
147
0.0
147
0.0008202099737533
147
0.0
147
0.0
147
0.0
147
0.0
147
1.0
147
0.0
147
0.0
147
0.0
147
0.0
147
1.0
  0
MLEADERSTYLE
  5
27E
102
{ACAD_XDICTIONARY
360
30D
102
}
102
{ACAD_REACTORS
330
27D
102
}
330
27D
100
AcDbMLeaderStyle
179
     2
170
     2
171
     1
172
     0
 90
        2
 40
0.0
 41
0.0
173
     1
 91
-1056964608
340
16
 92
       -2
290
     1
 42
2.0
291
     1
 43
0.36
  3
Standard
 44
4.0
300

342
13
174
     1
178
     6
175
     1
176
     0
 93
-1056964608
 45
4.0
292
     0
297
     0
 46
4.0
 94
-1056964608
 47
1.0
 49
1.0
140
1.0
293
     1
141
0.0
294
     1
177
     0
142
1.0
295
     0
296
     0
143
0.125
271
     0
272
     9
273
     9
  0
MLINESTYLE
  5
28
102
{ACAD_REACTORS
330
21
102
}
330
21
100
AcDbMlineStyle
  2
STANDARD
 70
     0
  3

 62
     0
 51
90.0
 52
90.0
 71
     2
 49
0.5
 62
   256
  6
BYLAYER
 49
-0.5
 62
   256
  6
BYLAYER
  0
ACDBPLACEHOLDER
  5
6
102
{ACAD_REACTORS
330
7
102
}
330
7
  0
SCALE
  5
26C
102
{ACAD_REACTORS
330
26B
102
}
330
26B
100
AcDbScale
 70
     0
300
1:1
140
1.0
141
1.0
290
     1
  0
SCALE
  5
26D
102
{ACAD_REACTORS
330
26B
102
}
330
26B
100
AcDbScale
 70
     0
300
1:2
140
1.0
141
2.0
290
     0
  0
SCALE
  5
26E
102
{ACAD_REACTORS
330
26B
102
}
330
26B
100
AcDbScale
 70
     0
300
1:4
140
1.0
141
4.0
290
     0
  0
SCALE
  5
26F
102
{ACAD_REACTORS
330
26B
102
}
330
26B
100
AcDbScale
 70
     0
300
1:5
140
1.0
141
5.0
290
     0
  0
SCALE
  5
270
102
{ACAD_REACTORS
330
26B
102
}
330
26B
100
AcDbScale
 70
     0
300
1:8
140
1.0
141
8.0
290
     0
  0
SCALE
  5
271
102
{ACAD_REACTORS
330
26B
102
}
330
26B
100
AcDbScale
 70
     0
300
1:10
140
1.0
141
10.0
290
     0
  0
SCALE
  5
272
102
{ACAD_REACTORS
330
26B
102
}
330
26B
100
AcDbScale
 70
     0
300
1:16
140
1.0
141
16.0
290
     0
  0
SCALE
  5
273
102
{ACAD_REACTORS
330
26B
102
}
330
26B
100
AcDbScale
 70
     0
300
1:20
140
1.0
141
20.0
290
     0
  0
SCALE
  5
274
102
{ACAD_REACTORS
330
26B
102
}
330
26B
100
AcDbScale
 70
     0
300
1:30
140
1.0
141
30.0
290
     0
  0
SCALE
  5
275
102
{ACAD_REACTORS
330
26B
102
}
330
26B
100
AcDbScale
 70
     0
300
1:40
140
1.0
141
40.0
290
     0
  0
SCALE
  5
276
102
{ACAD_REACTORS
330
26B
102
}
330
26B
100
AcDbScale
 70
     0
300
1:50
140
1.0
141
50.0
290
     0
  0
SCALE
  5
277
102
{ACAD_REACTORS
330
26B
102
}
330
26B
100
AcDbScale
 70
     0
300
1:100
140
1.0
141
100.0
290
     0
  0
SCALE
  5
278
102
{ACAD_REACTORS
330
26B
102
}
330
26B
100
AcDbScale
 70
     0
300
2:1
140
2.0
141
1.0
290
     0
  0
SCALE
  5
279
102
{ACAD_REACTORS
330
26B
102
}
330
26B
100
AcDbScale
 70
     0
300
4:1
140
4.0
141
1.0
290
     0
  0
SCALE
  5
27A
102
{ACAD_REACTORS
330
26B
102
}
330
26B
100
AcDbScale
 70
     0
300
8:1
140
8.0
141
1.0
290
     0
  0
SCALE
  5
27B
102
{ACAD_REACTORS
330
26B
102
}
330
26B
100
AcDbScale
 70
     0
300
10:1
140
10.0
141
1.0
290
     0
  0
SCALE
  5
27C
102
{ACAD_REACTORS
330
26B
102
}
330
26B
100
AcDbScale
 70
     0
300
100:1
140
100.0
141
1.0
290
     0
  0
TABLESTYLE
  5
29
102
{ACAD_XDICTIONARY
360
30B
102
}
102
{ACAD_REACTORS
330
25
102
}
330
25
100
AcDbTableStyle
280
     0
  3
Standard
 70
     0
 71
     0
 40
1.5
 41
1.5
280
     0
281
     0
  7
STANDARD
140
4.5
170
     2
 62
     0
 63
     7
283
     0
 90
        4
 91
        0
  1

274
    -2
284
     1
 64
     0
275
    -2
285
     1
 65
     0
276
    -2
286
     1
 66
     0
277
    -2
287
     1
 67
     0
278
    -2
288
     1
 68
     0
279
    -2
289
     1
 69
     0
  7
STANDARD
140
6.0
170
     5
 62
     0
 63
     7
283
     0
 90
        4
 91
        0
  1

274
    -2
284
     1
 64
     0
275
    -2
285
     1
 65
     0
276
    -2
286
     1
 66
     0
277
    -2
287
     1
 67
     0
278
    -2
288
     1
 68
     0
279
    -2
289
     1
 69
     0
  7
STANDARD
140
4.5
170
     5
 62
     0
 63
     7
283
     0
 90
        4
 91
        0
  1

274
    -2
284
     1
 64
     0
275
    -2
285
     1
 65
     0
276
    -2
286
     1
 66
     0
277
    -2
287
     1
 67
     0
278
    -2
288
     1
 68
     0
279
    -2
289
     1
 69
     0
  0
VISUALSTYLE
  5
258
102
{ACAD_REACTORS
330
252
102
}
330
252
100
AcDbVisualStyle
  2
2dWireframe
 70
     4
177
     2
291
     0
 71
     0
176
     1
 72
     2
176
     1
 73
     0
176
     1
 90
        0
176
     1
 40
0.6
176
     1
 41
30.0
176
     1
 63
     7
421
 16777215
176
     1
 74
     1
176
     1
 91
        4
176
     1
 64
     7
176
     1
 65
   257
176
     1
 75
     1
176
     1
175
     1
176
     1
 42
1.0
176
     1
 92
        0
176
     1
 66
   257
176
     1
 43
1.0
176
     1
 76
     1
176
     1
 77
     6
176
     1
 78
     2
176
     1
 67
     7
176
     1
 79
     5
176
     1
170
     0
176
     1
171
     0
176
     1
290
     0
176
     1
 93
        1
176
     1
 44
0.0
176
     1
173
     0
176
     1
  0
VISUALSTYLE
  5
257
102
{ACAD_REACTORS
330
252
102
}
330
252
100
AcDbVisualStyle
  2
Basic
 70
     7
177
     2
291
     1
 71
     1
176
     1
 72
     0
176
     1
 73
     1
176
     1
 90
        0
176
     1
 40
0.6
176
     1
 41
30.0
176
     1
 63
     7
421
 16777215
176
     1
 74
     0
176
     1
 91
        4
176
     1
 64
     7
176
     1
 65
   257
176
     1
 75
     1
176
     1
175
     1
176
     1
 42
1.0
176
     1
 92
        8
176
     1
 66
     7
176
     1
 43
1.0
176
     1
 76
     1
176
     1
 77
     6
176
     1
 78
     2
176
     1
 67
     7
176
     1
 79
     5
176
     1
170
     0
176
     1
171
     0
176
     1
290
     0
176
     1
 93
        1
176
     1
 44
0.0
176
     1
173
     0
176
     1
  0
VISUALSTYLE
  5
25E
102
{ACAD_REACTORS
330
252
102
}
330
252
100
AcDbVisualStyle
  2
Brighten
 70
    12
177
     2
291
     1
 71
     2
176
     1
 72
     2
176
     1
 73
     0
176
     1
 90
        0
176
     1
 40
0.6
176
     1
 41
30.0
176
     1
 63
     7
421
 16777215
176
     1
 74
     1
176
     1
 91
        4
176
     1
 64
     7
176
     1
 65
   257
176
     1
 75
     1
176
     1
175
     1
176
     1
 42
1.0
176
     1
 92
        8
176
     1
 66
     7
176
     1
 43
1.0
176
     1
 76
     1
176
     1
 77
     6
176
     1
 78
     2
176
     1
 67
     7
176
     1
 79
     5
176
     1
170
     0
176
     1
171
     0
176
     1
290
     0
176
     1
 93
        1
176
     1
 44
50.0
176
     1
173
     0
176
     1
  0
VISUALSTYLE
  5
262
102
{ACAD_REACTORS
330
252
102
}
330
252
100
AcDbVisualStyle
  2
ColorChange
 70
    16
177
     2
291
     1
 71
     2
176
     1
 72
     2
176
     1
 73
     3
176
     1
 90
        0
176
     1
 40
0.6
176
     1
 41
30.0
176
     1
 63
     8
421
  8421504
176
     1
 74
     1
176
     1
 91
        4
176
     1
 64
     7
176
     1
 65
   257
176
     1
 75
     1
176
     1
175
     1
176
     1
 42
1.0
176
     1
 92
        8
176
     1
 66
     8
424
  8421504
176
     1
 43
1.0
176
     1
 76
     1
176
     1
 77
     6
176
     1
 78
     2
176
     1
 67
     7
176
     1
 79
     5
176
     1
170
     0
176
     1
171
     0
176
     1
290
     0
176
     1
 93
        1
176
     1
 44
0.0
176
     1
173
     0
176
     1
  0
VISUALSTYLE
  5
25B
102
{ACAD_REACTORS
330
252
102
}
330
252
100
AcDbVisualStyle
  2
Conceptual
 70
     9
177
     2
291
     0
 71
     3
176
     1
 72
     2
176
     1
 73
     0
176
     1
 90
        0
176
     1
 40
0.6
176
     1
 41
30.0
176
     1
 63
     7
421
 16777215
176
     1
 74
     2
176
     1
 91
        2
176
     1
 64
     7
176
     1
 65
   257
176
     1
 75
     1
176
     1
175
     1
176
     1
 42
179.0
176
     1
 92
        8
176
     1
 66
     7
176
     1
 43
1.0
176
     1
 76
     1
176
     1
 77
     6
176
     1
 78
     2
176
     1
 67
     7
176
     1
 79
     3
176
     1
170
     0
176
     1
171
     0
176
     1
290
     0
176
     1
 93
        1
176
     1
 44
0.0
176
     1
173
     0
176
     1
  0
VISUALSTYLE
  5
25D
102
{ACAD_REACTORS
330
252
102
}
330
252
100
AcDbVisualStyle
  2
Dim
 70
    11
177
     2
291
     1
 71
     2
176
     1
 72
     2
176
     1
 73
     0
176
     1
 90
        0
176
     1
 40
0.6
176
     1
 41
30.0
176
     1
 63
     7
421
 16777215
176
     1
 74
     1
176
     1
 91
        4
176
     1
 64
     7
176
     1
 65
   257
176
     1
 75
     1
176
     1
175
     1
176
     1
 42
1.0
176
     1
 92
        8
176
     1
 66
     7
176
     1
 43
1.0
176
     1
 76
     1
176
     1
 77
     6
176
     1
 78
     2
176
     1
 67
     7
176
     1
 79
     5
176
     1
170
     0
176
     1
171
     0
176
     1
290
     0
176
     1
 93
        1
176
     1
 44
-50.0
176
     1
173
     0
176
     1
  0
VISUALSTYLE
  5
26A
102
{ACAD_REACTORS
330
252
102
}
330
252
100
AcDbVisualStyle
  2
EdgeColorOff
 70
    22
177
     2
291
     1
 71
     2
176
     0
 72
     2
176
     0
 73
     0
176
     0
 90
        0
176
     0
 40
0.6
176
     0
 41
30.0
176
     0
 63
     7
421
 16777215
176
     0
 74
     1
176
     0
 91
        4
176
     0
 64
     7
176
     0
 65
   257
176
     0
 75
     1
176
     0
175
     1
176
     0
 42
1.0
176
     0
 92
        8
176
     2
 66
     7
176
     0
 43
1.0
176
     0
 76
     1
176
     0
 77
     6
176
     0
 78
     2
176
     0
 67
     7
176
     0
 79
     5
176
     0
170
     0
176
     0
171
     0
176
     0
290
     0
176
     0
 93
        1
176
     0
 44
0.0
176
     0
173
     0
176
     0
  0
VISUALSTYLE
  5
261
102
{ACAD_REACTORS
330
252
102
}
330
252
100
AcDbVisualStyle
  2
Facepattern
 70
    15
177
     2
291
     1
 71
     2
176
     1
 72
     2
176
     1
 73
     0
176
     1
 90
        0
176
     1
 40
0.6
176
     1
 41
30.0
176
     1
 63
     7
421
 16777215
176
     1
 74
     1
176
     1
 91
        4
176
     1
 64
     7
176
     1
 65
   257
176
     1
 75
     1
176
     1
175
     1
176
     1
 42
1.0
176
     1
 92
        8
176
     1
 66
     7
176
     1
 43
1.0
176
     1
 76
     1
176
     1
 77
     6
176
     1
 78
     2
176
     1
 67
     7
176
     1
 79
     5
176
     1
170
     0
176
     1
171
     0
176
     1
290
     0
176
     1
 93
        1
176
     1
 44
0.0
176
     1
173
     0
176
     1
  0
VISUALSTYLE
  5
253
102
{ACAD_REACTORS
330
252
102
}
330
252
100
AcDbVisualStyle
  2
Flat
 70
     0
177
     2
291
     1
 71
     2
176
     1
 72
     1
176
     1
 73
     1
176
     1
 90
        2
176
     1
 40
0.6
176
     1
 41
30.0
176
     1
 63
     7
421
 16777215
176
     1
 74
     0
176
     1
 91
        0
176
     1
 64
     7
176
     1
 65
   257
176
     1
 75
     1
176
     1
175
     1
176
     1
 42
1.0
176
     1
 92
        8
176
     1
 66
     7
176
     1
 43
1.0
176
     1
 76
     1
176
     1
 77
     6
176
     1
 78
     2
176
     1
 67
     7
176
     1
 79
     5
176
     1
170
     0
176
     1
171
     0
176
     1
290
     0
176
     1
 93
       13
176
     1
 44
0.0
176
     1
173
     0
176
     1
  0
VISUALSTYLE
  5
254
102
{ACAD_REACTORS
330
252
102
}
330
252
100
AcDbVisualStyle
  2
FlatWithEdges
 70
     1
177
     2
291
     1
 71
     2
176
     1
 72
     1
176
     1
 73
     1
176
     1
 90
        2
176
     1
 40
0.6
176
     1
 41
30.0
176
     1
 63
     7
421
 16777215
176
     1
 74
     1
176
     1
 91
        0
176
     1
 64
     7
176
     1
 65
   257
176
     1
 75
     1
176
     1
175
     1
176
     1
 42
1.0
176
     1
 92
        0
176
     1
 66
   257
176
     1
 43
1.0
176
     1
 76
     1
176
     1
 77
     6
176
     1
 78
     2
176
     1
 67
     7
176
     1
 79
     5
176
     1
170
     0
176
     1
171
     0
176
     1
290
     0
176
     1
 93
       13
176
     1
 44
0.0
176
     1
173
     0
176
     1
  0
VISUALSTYLE
  5
255
102
{ACAD_REACTORS
330
252
102
}
330
252
100
AcDbVisualStyle
  2
Gouraud
 70
     2
177
     2
291
     1
 71
     2
176
     1
 72
     2
176
     1
 73
     1
176
     1
 90
        2
176
     1
 40
0.6
176
     1
 41
30.0
176
     1
 63
     7
421
 16777215
176
     1
 74
     0
176
     1
 91
        0
176
     1
 64
     7
176
     1
 65
   257
176
     1
 75
     1
176
     1
175
     1
176
     1
 42
1.0
176
     1
 92
        0
176
     1
 66
     7
176
     1
 43
1.0
176
     1
 76
     1
176
     1
 77
     6
176
     1
 78
     2
176
     1
 67
     7
176
     1
 79
     5
176
     1
170
     0
176
     1
171
     0
176
     1
290
     0
176
     1
 93
       13
176
     1
 44
0.0
176
     1
173
     0
176
     1
  0
VISUALSTYLE
  5
256
102
{ACAD_REACTORS
330
252
102
}
330
252
100
AcDbVisualStyle
  2
GouraudWithEdges
 70
     3
177
     2
291
     1
 71
     2
176
     1
 72
     2
176
     1
 73
     1
176
     1
 90
        2
176
     1
 40
0.6
176
     1
 41
30.0
176
     1
 63
     7
421
 16777215
176
     1
 74
     1
176
     1
 91
        0
176
     1
 64
     7
176
     1
 65
   257
176
     1
 75
     1
176
     1
175
     1
176
     1
 42
1.0
176
     1
 92
        0
176
     1
 66
   257
176
     1
 43
1.0
176
     1
 76
     1
176
     1
 77
     6
176
     1
 78
     2
176
     1
 67
     7
176
     1
 79
     5
176
     1
170
     0
176
     1
171
     0
176
     1
290
     0
176
     1
 93
       13
176
     1
 44
0.0
176
     1
173
     0
176
     1
  0
VISUALSTYLE
  5
25A
102
{ACAD_REACTORS
330
252
102
}
330
252
100
AcDbVisualStyle
  2
Hidden
 70
     6
177
     2
291
     0
 71
     1
176
     1
 72
     2
176
     1
 73
     2
176
     1
 90
        0
176
     1
 40
0.6
176
     1
 41
30.0
176
     1
 63
     7
421
 16777215
176
     1
 74
     2
176
     1
 91
        2
176
     1
 64
     7
176
     1
 65
   257
176
     1
 75
     2
176
     1
175
     1
176
     1
 42
40.0
176
     1
 92
        0
176
     1
 66
   257
176
     1
 43
1.0
176
     1
 76
     1
176
     1
 77
     6
176
     1
 78
     2
176
     1
 67
     7
176
     1
 79
     3
176
     1
170
     0
176
     1
171
     0
176
     1
290
     0
176
     1
 93
        1
176
     1
 44
0.0
176
     1
173
     0
176
     1
  0
VISUALSTYLE
  5
268
102
{ACAD_REACTORS
330
252
102
}
330
252
100
AcDbVisualStyle
  2
JitterOff
 70
    20
177
     2
291
     1
 71
     2
176
     0
 72
     2
176
     0
 73
     0
176
     0
 90
        0
176
     0
 40
0.6
176
     0
 41
30.0
176
     0
 63
     7
421
 16777215
176
     0
 74
     1
176
     0
 91
        4
176
     0
 64
     7
176
     0
 65
   257
176
     0
 75
     1
176
     0
175
     1
176
     0
 42
1.0
176
     0
 92
       10
176
     2
 66
     7
176
     0
 43
1.0
176
     0
 76
     1
176
     0
 77
     6
176
     0
 78
     2
176
     0
 67
     7
176
     0
 79
     5
176
     0
170
     0
176
     0
171
     0
176
     0
290
     0
176
     0
 93
        1
176
     0
 44
0.0
176
     0
173
     0
176
     0
  0
VISUALSTYLE
  5
260
102
{ACAD_REACTORS
330
252
102
}
330
252
100
AcDbVisualStyle
  2
Linepattern
 70
    14
177
     2
291
     1
 71
     2
176
     1
 72
     2
176
     1
 73
     0
176
     1
 90
        0
176
     1
 40
0.6
176
     1
 41
30.0
176
     1
 63
     7
421
 16777215
176
     1
 74
     1
176
     1
 91
        4
176
     1
 64
     7
176
     1
 65
   257
176
     1
 75
     7
176
     1
175
     7
176
     1
 42
1.0
176
     1
 92
        8
176
     1
 66
     7
176
     1
 43
1.0
176
     1
 76
     1
176
     1
 77
     6
176
     1
 78
     2
176
     1
 67
     7
176
     1
 79
     5
176
     1
170
     0
176
     1
171
     0
176
     1
290
     0
176
     1
 93
        1
176
     1
 44
0.0
176
     1
173
     0
176
     1
  0
VISUALSTYLE
  5
269
102
{ACAD_REACTORS
330
252
102
}
330
252
100
AcDbVisualStyle
  2
OverhangOff
 70
    21
177
     2
291
     1
 71
     2
176
     0
 72
     2
176
     0
 73
     0
176
     0
 90
        0
176
     0
 40
0.6
176
     0
 41
30.0
176
     0
 63
     7
421
 16777215
176
     0
 74
     1
176
     0
 91
        4
176
     0
 64
     7
176
     0
 65
   257
176
     0
 75
     1
176
     0
175
     1
176
     0
 42
1.0
176
     0
 92
        9
176
     2
 66
     7
176
     0
 43
1.0
176
     0
 76
     1
176
     0
 77
     6
176
     0
 78
     2
176
     0
 67
     7
176
     0
 79
     5
176
     0
170
     0
176
     0
171
     0
176
     0
290
     0
176
     0
 93
        1
176
     0
 44
0.0
176
     0
173
     0
176
     0
  0
VISUALSTYLE
  5
25C
102
{ACAD_REACTORS
330
252
102
}
330
252
100
AcDbVisualStyle
  2
Realistic
 70
     8
177
     2
291
     0
 71
     2
176
     1
 72
     3
176
     1
 73
     0
176
     1
 90
        2
176
     1
 40
0.6
176
     1
 41
30.0
176
     1
 63
     7
421
 16777215
176
     1
 74
     0
176
     1
 91
        0
176
     1
 64
     7
176
     1
 65
   257
176
     1
 75
     1
176
     1
175
     1
176
     1
 42
1.0
176
     1
 92
        8
176
     1
 66
   257
176
     1
 43
1.0
176
     1
 76
     1
176
     1
 77
     6
176
     1
 78
     2
176
     1
 67
     7
176
     1
 79
     3
176
     1
170
     0
176
     1
171
     0
176
     1
290
     0
176
     1
 93
       13
176
     1
 44
0.0
176
     1
173
     0
176
     1
  0
VISUALSTYLE
  5
267
102
{ACAD_REACTORS
330
252
102
}
330
252
100
AcDbVisualStyle
  2
Shaded
 70
    27
177
     2
291
     0
 71
     2
176
     1
 72
     2
176
     1
 73
     1
176
     1
 90
        2
176
     1
 40
0.6
176
     1
 41
30.0
176
     1
 63
     7
421
 16777215
176
     1
 74
     0
176
     1
 91
        4
176
     1
 64
     7
176
     1
 65
   257
176
     1
 75
     1
176
     1
175
     1
176
     1
 42
1.0
176
     1
 92
        8
176
     1
 66
   257
176
     1
 43
1.0
176
     1
 76
     1
176
     1
 77
     6
176
     1
 78
     2
176
     1
 67
     8
425
  7895160
176
     1
 79
     3
176
     1
170
     0
176
     1
171
     0
176
     1
290
     0
176
     1
 93
        5
176
     1
 44
0.0
176
     1
173
     0
176
     1
  0
VISUALSTYLE
  5
266
102
{ACAD_REACTORS
330
252
102
}
330
252
100
AcDbVisualStyle
  2
Shaded with edges
 70
    26
177
     2
291
     0
 71
     2
176
     1
 72
     2
176
     1
 73
     1
176
     1
 90
        2
176
     1
 40
0.6
176
     1
 41
30.0
176
     1
 63
     7
421
 16777215
176
     1
 74
     1
176
     1
 91
       10
176
     1
 64
     7
176
     1
 65
   257
176
     1
 75
     2
176
     1
175
     1
176
     1
 42
1.0
176
     1
 92
        8
176
     1
 66
   257
176
     1
 43
1.0
176
     1
 76
     1
176
     1
 77
     6
176
     1
 78
     2
176
     1
 67
     7
176
     1
 79
     3
176
     1
170
     0
176
     1
171
     0
176
     1
290
     0
176
     1
 93
        5
176
     1
 44
0.0
176
     1
173
     0
176
     1
  0
VISUALSTYLE
  5
263
102
{ACAD_REACTORS
330
252
102
}
330
252
100
AcDbVisualStyle
  2
Shades of Gray
 70
    23
177
     2
291
     0
 71
     2
176
     1
 72
     2
176
     1
 73
     3
176
     1
 90
        0
176
     1
 40
0.6
176
     1
 41
30.0
176
     1
 63
     7
421
 16777215
176
     1
 74
     2
176
     1
 91
        2
176
     1
 64
     7
176
     1
 65
     7
176
     1
 75
     1
176
     1
175
     1
176
     1
 42
40.0
176
     1
 92
        8
176
     1
 66
     7
176
     1
 43
1.0
176
     1
 76
     1
176
     1
 77
     6
176
     1
 78
     2
176
     1
 67
     7
176
     1
 79
     3
176
     1
170
     0
176
     1
171
     0
176
     1
290
     0
176
     1
 93
        1
176
     1
 44
0.0
176
     1
173
     0
176
     1
  0
VISUALSTYLE
  5
264
102
{ACAD_REACTORS
330
252
102
}
330
252
100
AcDbVisualStyle
  2
Sketchy
 70
    24
177
     2
291
     0
 71
     1
176
     1
 72
     2
176
     1
 73
     2
176
     1
 90
        0
176
     1
 40
0.6
176
     1
 41
30.0
176
     1
 63
     7
421
 16777215
176
     1
 74
     2
176
     1
 91
        2
176
     1
 64
     7
176
     1
 65
     7
176
     1
 75
     1
176
     1
175
     1
176
     1
 42
40.0
176
     1
 92
       11
176
     1
 66
     7
176
     1
 43
1.0
176
     1
 76
     1
176
     1
 77
     6
176
     1
 78
     2
176
     1
 67
     7
176
     1
 79
     6
176
     1
170
     0
176
     1
171
     0
176
     1
290
     0
176
     1
 93
        1
176
     1
 44
0.0
176
     1
173
     0
176
     1
  0
VISUALSTYLE
  5
25F
102
{ACAD_REACTORS
330
252
102
}
330
252
100
AcDbVisualStyle
  2
Thicken
 70
    13
177
     2
291
     1
 71
     2
176
     1
 72
     2
176
     1
 73
     0
176
     1
 90
        0
176
     1
 40
0.6
176
     1
 41
30.0
176
     1
 63
     7
421
 16777215
176
     1
 74
     1
176
     1
 91
        4
176
     1
 64
     7
176
     1
 65
   257
176
     1
 75
     1
176
     1
175
     1
176
     1
 42
1.0
176
     1
 92
       12
176
     1
 66
     7
176
     1
 43
1.0
176
     1
 76
     1
176
     1
 77
     6
176
     1
 78
     2
176
     1
 67
     7
176
     1
 79
     5
176
     1
170
     0
176
     1
171
     0
176
     1
290
     0
176
     1
 93
        1
176
     1
 44
0.0
176
     1
173
     0
176
     1
  0
VISUALSTYLE
  5
259
102
{ACAD_REACTORS
330
252
102
}
330
252
100
AcDbVisualStyle
  2
Wireframe
 70
     5
177
     2
291
     0
 71
     0
176
     1
 72
     2
176
     1
 73
     0
176
     1
 90
        0
176
     1
 40
0.6
176
     1
 41
30.0
176
     1
 63
     7
421
 16777215
176
     1
 74
     1
176
     1
 91
        4
176
     1
 64
     7
176
     1
 65
   257
176
     1
 75
     1
176
     1
175
     1
176
     1
 42
1.0
176
     1
 92
        0
176
     1
 66
   257
176
     1
 43
1.0
176
     1
 76
     1
176
     1
 77
     6
176
     1
 78
     2
176
     1
 67
     7
176
     1
 79
     3
176
     1
170
     0
176
     1
171
     0
176
     1
290
     0
176
     1
 93
        1
176
     1
 44
0.0
176
     1
173
     0
176
     1
  0
VISUALSTYLE
  5
265
102
{ACAD_REACTORS
330
252
102
}
330
252
100
AcDbVisualStyle
  2
X-Ray
 70
    25
177
     2
291
     0
 71
     2
176
     1
 72
     2
176
     1
 73
     1
176
     1
 90
        1
176
     1
 40
0.5
176
     1
 41
30.0
176
     1
 63
     7
421
 16777215
176
     1
 74
     1
176
     1
 91
        0
176
     1
 64
     7
176
     1
 65
   257
176
     1
 75
     1
176
     1
175
     1
176
     1
 42
1.0
176
     1
 92
        8
176
     1
 66
     7
176
     1
 43
1.0
176
     1
 76
     1
176
     1
 77
     6
176
     1
 78
     2
176
     1
 67
     7
176
     1
 79
     3
176
     1
170
     0
176
     1
171
     0
176
     1
290
     0
176
     1
 93
       13
176
     1
 44
0.0
176
     1
173
     0
176
     1
  0
DICTIONARYVAR
  5
307
102
{ACAD_REACTORS
330
21D
102
}
330
21D
100
DictionaryVariables
280
     0
  1
1:1
  0
DICTIONARYVAR
  5
305
102
{ACAD_REACTORS
330
21D
102
}
330
21D
100
DictionaryVariables
280
     0
  1
STANDARD
  0
DICTIONARYVAR
  5
21E
102
{ACAD_REACTORS
330
21D
102
}
330
21D
100
DictionaryVariables
280
     0
  1
STANDARD
  0
DICTIONARYVAR
  5
22C
102
{ACAD_REACTORS
330
21D
102
}
330
21D
100
DictionaryVariables
280
     0
  1
1
  0
DICTIONARYVAR
  5
22B
102
{ACAD_REACTORS
330
21D
102
}
330
21D
100
DictionaryVariables
280
     0
  1
1
  0
DICTIONARYVAR
  5
309
102
{ACAD_REACTORS
330
21D
102
}
330
21D
100
DictionaryVariables
280
     0
  1
1
  0
DICTIONARYVAR
  5
30A
102
{ACAD_REACTORS
330
21D
102
}
330
21D
100
DictionaryVariables
280
     0
  1
15
  0
DICTIONARYVAR
  5
308
102
{ACAD_REACTORS
330
21D
102
}
330
21D
100
DictionaryVariables
280
     0
  1
0
  0
DICTIONARYVAR
  5
306
102
{ACAD_REACTORS
330
21D
102
}
330
21D
100
DictionaryVariables
280
     0
  1
0
  0
DICTIONARYVAR
  5
22D
102
{ACAD_REACTORS
330
21D
102
}
330
21D
100
DictionaryVariables
280
     0
  1

  0
DICTIONARY
  5
2B8
102
{ACAD_REACTORS
330
2B1
102
}
330
2B1
100
AcDbDictionary
281
     1
  0
XRECORD
  5
21C
102
{ACAD_REACTORS
330
21A
102
}
330
21A
100
AcDbXrecord
280
     1
  0
DICTIONARY
  5
243
330
242
100
AcDbDictionary
280
     1
281
     1
  3
BUMPTILE
360
245
  3
DIFFUSETILE
360
244
  3
OPACITYTILE
360
248
  3
REFLECTIONTILE
360
247
  3
REFRACTIONTILE
360
249
  3
SPECULARTILE
360
246
  0
DICTIONARY
  5
23B
330
23A
100
AcDbDictionary
280
     1
281
     1
  3
BUMPTILE
360
23D
  3
DIFFUSETILE
360
23C
  3
OPACITYTILE
360
240
  3
REFLECTIONTILE
360
23F
  3
REFRACTIONTILE
360
241
  3
SPECULARTILE
360
23E
  0
DICTIONARY
  5
24B
330
24A
100
AcDbDictionary
280
     1
281
     1
  3
BUMPTILE
360
24D
  3
DIFFUSETILE
360
24C
  3
OPACITYTILE
360
250
  3
REFLECTIONTILE
360
24F
  3
REFRACTIONTILE
360
251
  3
SPECULARTILE
360
24E
  0
DICTIONARY
  5
30D
330
27E
100
AcDbDictionary
280
     1
281
     1
  3
ACAD_XREC_ROUNDTRIP
360
30E
  0
DICTIONARY
  5
30B
330
29
100
AcDbDictionary
280
     1
281
     1
  3
ACAD_ROUNDTRIP_2008_TABLESTYLE_CELLSTYLEMAP
360
30C
  0
XRECORD
  5
245
102
{ACAD_REACTORS
330
243
102
}
330
243
100
AcDbXrecord
280
     1
270
     1
271
     1
  0
XRECORD
  5
244
102
{ACAD_REACTORS
330
243
102
}
330
243
100
AcDbXrecord
280
     1
270
     1
271
     1
  0
XRECORD
  5
248
102
{ACAD_REACTORS
330
243
102
}
330
243
100
AcDbXrecord
280
     1
270
     1
271
     1
  0
XRECORD
  5
247
102
{ACAD_REACTORS
330
243
102
}
330
243
100
AcDbXrecord
280
     1
270
     1
271
     1
  0
XRECORD
  5
249
102
{ACAD_REACTORS
330
243
102
}
330
243
100
AcDbXrecord
280
     1
270
     1
271
     1
  0
XRECORD
  5
246
102
{ACAD_REACTORS
330
243
102
}
330
243
100
AcDbXrecord
280
     1
270
     1
271
     1
  0
XRECORD
  5
23D
102
{ACAD_REACTORS
330
23B
102
}
330
23B
100
AcDbXrecord
280
     1
270
     1
271
     1
  0
XRECORD
  5
23C
102
{ACAD_REACTORS
330
23B
102
}
330
23B
100
AcDbXrecord
280
     1
270
     1
271
     1
  0
XRECORD
  5
240
102
{ACAD_REACTORS
330
23B
102
}
330
23B
100
AcDbXrecord
280
     1
270
     1
271
     1
  0
XRECORD
  5
23F
102
{ACAD_REACTORS
330
23B
102
}
330
23B
100
AcDbXrecord
280
     1
270
     1
271
     1
  0
XRECORD
  5
241
102
{ACAD_REACTORS
330
23B
102
}
330
23B
100
AcDbXrecord
280
     1
270
     1
271
     1
  0
XRECORD
  5
23E
102
{ACAD_REACTORS
330
23B
102
}
330
23B
100
AcDbXrecord
280
     1
270
     1
271
     1
  0
XRECORD
  5
24D
102
{ACAD_REACTORS
330
24B
102
}
330
24B
100
AcDbXrecord
280
     1
270
     1
271
     1
  0
XRECORD
  5
24C
102
{ACAD_REACTORS
330
24B
102
}
330
24B
100
AcDbXrecord
280
     1
270
     1
271
     1
  0
XRECORD
  5
250
102
{ACAD_REACTORS
330
24B
102
}
330
24B
100
AcDbXrecord
280
     1
270
     1
271
     1
  0
XRECORD
  5
24F
102
{ACAD_REACTORS
330
24B
102
}
330
24B
100
AcDbXrecord
280
     1
270
     1
271
     1
  0
XRECORD
  5
251
102
{ACAD_REACTORS
330
24B
102
}
330
24B
100
AcDbXrecord
280
     1
270
     1
271
     1
  0
XRECORD
  5
24E
102
{ACAD_REACTORS
330
24B
102
}
330
24B
100
AcDbXrecord
280
     1
270
     1
271
     1
  0
XRECORD
  5
30E
102
{ACAD_REACTORS
330
30D
102
}
330
30D
100
AcDbXrecord
280
     1
102
ACAD_ROUNDTRIP_2012_MLEADER_STYLE
298
     1
  0
CELLSTYLEMAP
  5
30C
102
{ACAD_REACTORS
330
30B
102
}
330
30B
100
AcDbCellStyleMap
 90
        3
300
CELLSTYLE
  1
TABLEFORMAT_BEGIN
 90
        5
170
     1
 91
        0
 92
    32768
 62
   257
 93
        1
300
CONTENTFORMAT
  1
CONTENTFORMAT_BEGIN
 90
        0
 91
        0
 92
        4
 93
        0
300

 40
0.0
140
1.0
 94
        5
 62
     0
340
13
144
6.0
309
CONTENTFORMAT_END
171
     1
301
MARGIN
  1
CELLMARGIN_BEGIN
 40
1.5
 40
1.5
 40
1.5
 40
1.5
 40
0.18
 40
0.18
309
CELLMARGIN_END
 94
        6
 95
        1
302
GRIDFORMAT
  1
GRIDFORMAT_BEGIN
 90
        0
 91
        1
 62
     0
 92
       -2
340
0
 93
        0
 40
0.045
309
GRIDFORMAT_END
 95
        2
302
GRIDFORMAT
  1
GRIDFORMAT_BEGIN
 90
        0
 91
        1
 62
     0
 92
       -2
340
0
 93
        0
 40
0.045
309
GRIDFORMAT_END
 95
        4
302
GRIDFORMAT
  1
GRIDFORMAT_BEGIN
 90
        0
 91
        1
 62
     0
 92
       -2
340
0
 93
        0
 40
0.045
309
GRIDFORMAT_END
 95
        8
302
GRIDFORMAT
  1
GRIDFORMAT_BEGIN
 90
        0
 91
        1
 62
     0
 92
       -2
340
0
 93
        0
 40
0.045
309
GRIDFORMAT_END
 95
       16
302
GRIDFORMAT
  1
GRIDFORMAT_BEGIN
 90
        0
 91
        1
 62
     0
 92
       -2
340
0
 93
        0
 40
0.045
309
GRIDFORMAT_END
 95
       32
302
GRIDFORMAT
  1
GRIDFORMAT_BEGIN
 90
        0
 91
        1
 62
     0
 92
       -2
340
0
 93
        0
 40
0.045
309
GRIDFORMAT_END
309
TABLEFORMAT_END
  1
CELLSTYLE_BEGIN
 90
        1
 91
        1
300
_TITLE
309
CELLSTYLE_END
300
CELLSTYLE
  1
TABLEFORMAT_BEGIN
 90
        5
170
     1
 91
        0
 92
        0
 62
   257
 93
        1
300
CONTENTFORMAT
  1
CONTENTFORMAT_BEGIN
 90
        0
 91
        0
 92
        4
 93
        0
300

 40
0.0
140
1.0
 94
        5
 62
     0
340
13
144
4.5
309
CONTENTFORMAT_END
171
     1
301
MARGIN
  1
CELLMARGIN_BEGIN
 40
1.5
 40
1.5
 40
1.5
 40
1.5
 40
0.18
 40
0.18
309
CELLMARGIN_END
 94
        6
 95
        1
302
GRIDFORMAT
  1
GRIDFORMAT_BEGIN
 90
        0
 91
        1
 62
     0
 92
       -2
340
0
 93
        0
 40
0.045
309
GRIDFORMAT_END
 95
        2
302
GRIDFORMAT
  1
GRIDFORMAT_BEGIN
 90
        0
 91
        1
 62
     0
 92
       -2
340
0
 93
        0
 40
0.045
309
GRIDFORMAT_END
 95
        4
302
GRIDFORMAT
  1
GRIDFORMAT_BEGIN
 90
        0
 91
        1
 62
     0
 92
       -2
340
0
 93
        0
 40
0.045
309
GRIDFORMAT_END
 95
        8
302
GRIDFORMAT
  1
GRIDFORMAT_BEGIN
 90
        0
 91
        1
 62
     0
 92
       -2
340
0
 93
        0
 40
0.045
309
GRIDFORMAT_END
 95
       16
302
GRIDFORMAT
  1
GRIDFORMAT_BEGIN
 90
        0
 91
        1
 62
     0
 92
       -2
340
0
 93
        0
 40
0.045
309
GRIDFORMAT_END
 95
       32
302
GRIDFORMAT
  1
GRIDFORMAT_BEGIN
 90
        0
 91
        1
 62
     0
 92
       -2
340
0
 93
        0
 40
0.045
309
GRIDFORMAT_END
309
TABLEFORMAT_END
  1
CELLSTYLE_BEGIN
 90
        2
 91
        1
300
_HEADER
309
CELLSTYLE_END
300
CELLSTYLE
  1
TABLEFORMAT_BEGIN
 90
        5
170
     1
 91
        0
 92
        0
 62
   257
 93
        1
300
CONTENTFORMAT
  1
CONTENTFORMAT_BEGIN
 90
        0
 91
        0
 92
        4
 93
        0
300

 40
0.0
140
1.0
 94
        2
 62
     0
340
13
144
4.5
309
CONTENTFORMAT_END
171
     1
301
MARGIN
  1
CELLMARGIN_BEGIN
 40
1.5
 40
1.5
 40
1.5
 40
1.5
 40
0.18
 40
0.18
309
CELLMARGIN_END
 94
        6
 95
        1
302
GRIDFORMAT
  1
GRIDFORMAT_BEGIN
 90
        0
 91
        1
 62
     0
 92
       -2
340
0
 93
        0
 40
0.045
309
GRIDFORMAT_END
 95
        2
302
GRIDFORMAT
  1
GRIDFORMAT_BEGIN
 90
        0
 91
        1
 62
     0
 92
       -2
340
0
 93
        0
 40
0.045
309
GRIDFORMAT_END
 95
        4
302
GRIDFORMAT
  1
GRIDFORMAT_BEGIN
 90
        0
 91
        1
 62
     0
 92
       -2
340
0
 93
        0
 40
0.045
309
GRIDFORMAT_END
 95
        8
302
GRIDFORMAT
  1
GRIDFORMAT_BEGIN
 90
        0
 91
        1
 62
     0
 92
       -2
340
0
 93
        0
 40
0.045
309
GRIDFORMAT_END
 95
       16
302
GRIDFORMAT
  1
GRIDFORMAT_BEGIN
 90
        0
 91
        1
 62
     0
 92
       -2
340
0
 93
        0
 40
0.045
309
GRIDFORMAT_END
 95
       32
302
GRIDFORMAT
  1
GRIDFORMAT_BEGIN
 90
        0
 91
        1
 62
     0
 92
       -2
340
0
 93
        0
 40
0.045
309
GRIDFORMAT_END
309
TABLEFORMAT_END
  1
CELLSTYLE_BEGIN
 90
        3
 91
        2
300
_DATA
309
CELLSTYLE_END
  0
ENDSEC
  0
EOF
