  0
SECTION
  2
HEADER
  9
$ACADVER
  1
AC1024
  9
$ACADMAINTVER
 70
    63
  9
$DWGCODEPAGE
  3
ANSI_1252
  9
$LASTSAVEDBY
  1
uhlaender
  9
$CUSTOMPROPERTYTAG
  1
AmdtFileType
  9
$CUSTOMPROPERTY
  1
84
  9
$INSBASE
 10
0.0
 20
0.0
 30
0.0
  9
$EXTMIN
 10
316.224082658962
 20
250.0466767504736
 30
-0.0015258207003583
  9
$EXTMAX
 10
834.0588307373536
 20
826.4290499409089
 30
0.0000000349246037
  9
$LIMMIN
 10
0.0
 20
0.0
  9
$LIMMAX
 10
420.0
 20
297.0
  9
$ORTHOMODE
 70
     0
  9
$REGENMODE
 70
     1
  9
$FILLMODE
 70
     1
  9
$QTEXTMODE
 70
     0
  9
$MIRRTEXT
 70
     1
  9
$LTSCALE
 40
10.0
  9
$ATTMODE
 70
     1
  9
$TEXTSIZE
 40
2.5
  9
$TRACEWID
 40
1.0
  9
$TEXTSTYLE
  7
Standard
  9
$CLAYER
  8
HALFEN
  9
$CELTYPE
  6
ByLayer
  9
$CECOLOR
 62
   256
  9
$CELTSCALE
 40
1.0
  9
$DISPSILH
 70
     0
  9
$DIMSCALE
 40
1.0
  9
$DIMASZ
 40
3.5
  9
$DIMEXO
 40
1.0
  9
$DIMDLI
 40
10.0
  9
$DIMRND
 40
0.0
  9
$DIMDLE
 40
0.0
  9
$DIMEXE
 40
1.0
  9
$DIMTP
 40
0.1
  9
$DIMTM
 40
0.1
  9
$DIMTXT
 40
3.5
  9
$DIMCEN
 40
0.0
  9
$DIMTSZ
 40
0.0
  9
$DIMTOL
 70
     0
  9
$DIMLIM
 70
     0
  9
$DIMTIH
 70
     0
  9
$DIMTOH
 70
     0
  9
$DIMSE1
 70
     0
  9
$DIMSE2
 70
     0
  9
$DIMTAD
 70
     1
  9
$DIMZIN
 70
     8
  9
$DIMBLK
  1

  9
$DIMASO
 70
     1
  9
$DIMSHO
 70
     1
  9
$DIMPOST
  1

  9
$DIMAPOST
  1
"
  9
$DIMALT
 70
     0
  9
$DIMALTD
 70
     2
  9
$DIMALTF
 40
0.0393701
  9
$DIMLFAC
 40
1.0
  9
$DIMTOFL
 70
     1
  9
$DIMTVP
 40
0.0
  9
$DIMTIX
 70
     0
  9
$DIMSOXD
 70
     0
  9
$DIMSAH
 70
     0
  9
$DIMBLK1
  1

  9
$DIMBLK2
  1

  9
$DIMSTYLE
  2
AM_DIN
  9
$DIMCLRD
 70
   256
  9
$DIMCLRE
 70
   256
  9
$DIMCLRT
 70
     2
  9
$DIMTFAC
 40
0.71
  9
$DIMGAP
 40
1.5
  9
$DIMJUST
 70
     0
  9
$DIMSD1
 70
     0
  9
$DIMSD2
 70
     0
  9
$DIMTOLJ
 70
     0
  9
$DIMTZIN
 70
     8
  9
$DIMALTZ
 70
     0
  9
$DIMALTTZ
 70
     0
  9
$DIMUPT
 70
     0
  9
$DIMDEC
 70
     2
  9
$DIMTDEC
 70
     3
  9
$DIMALTU
 70
     2
  9
$DIMALTTD
 70
     4
  9
$DIMTXSTY
  7
Standard
  9
$DIMAUNIT
 70
     0
  9
$DIMADEC
 70
     0
  9
$DIMALTRND
 40
0.0
  9
$DIMAZIN
 70
     2
  9
$DIMDSEP
 70
    46
  9
$DIMATFIT
 70
     3
  9
$DIMFRAC
 70
     0
  9
$DIMLDRBLK
  1

  9
$DIMLUNIT
 70
     2
  9
$DIMLWD
 70
    -1
  9
$DIMLWE
 70
    -1
  9
$DIMTMOVE
 70
     0
  9
$DIMFXL
 40
1.0
  9
$DIMFXLON
 70
     0
  9
$DIMJOGANG
 40
1.570796326794896
  9
$DIMTFILL
 70
     0
  9
$DIMTFILLCLR
 70
     0
  9
$DIMARCSYM
 70
     0
  9
$DIMLTYPE
  6
ByBlock
  9
$DIMLTEX1
  6
ByBlock
  9
$DIMLTEX2
  6
ByBlock
  9
$DIMTXTDIRECTION
 70
     0
  9
$LUNITS
 70
     2
  9
$LUPREC
 70
     4
  9
$SKETCHINC
 40
1.0
  9
$FILLETRAD
 40
10.0
  9
$AUNITS
 70
     0
  9
$AUPREC
 70
     0
  9
$MENU
  1
.
  9
$ELEVATION
 40
0.0
  9
$PELEVATION
 40
0.0
  9
$THICKNESS
 40
0.0
  9
$LIMCHECK
 70
     0
  9
$CHAMFERA
 40
10.0
  9
$CHAMFERB
 40
10.0
  9
$CHAMFERC
 40
20.0
  9
$CHAMFERD
 40
0.0
  9
$SKPOLY
 70
     0
  9
$TDCREATE
 40
2453985.431287616
  9
$TDUCREATE
 40
2453985.347954283
  9
$TDUPDATE
 40
2456402.345462824
  9
$TDUUPDATE
 40
2456402.262129491
  9
$TDINDWG
 40
0.6336794792
  9
$TDUSRTIMER
 40
0.6336794792
  9
$USRTIMER
 70
     1
  9
$ANGBASE
 50
0.0
  9
$ANGDIR
 70
     0
  9
$PDMODE
 70
    35
  9
$PDSIZE
 40
0.0
  9
$PLINEWID
 40
0.0
  9
$SPLFRAME
 70
     0
  9
$SPLINETYPE
 70
     6
  9
$SPLINESEGS
 70
     8
  9
$HANDSEED
  5
39CC
  9
$SURFTAB1
 70
     6
  9
$SURFTAB2
 70
     6
  9
$SURFTYPE
 70
     6
  9
$SURFU
 70
     6
  9
$SURFV
 70
     6
  9
$UCSBASE
  2

  9
$UCSNAME
  2

  9
$UCSORG
 10
0.0
 20
0.0
 30
0.0
  9
$UCSXDIR
 10
1.0
 20
0.0
 30
0.0
  9
$UCSYDIR
 10
0.0
 20
1.0
 30
0.0
  9
$UCSORTHOREF
  2

  9
$UCSORTHOVIEW
 70
     0
  9
$UCSORGTOP
 10
0.0
 20
0.0
 30
0.0
  9
$UCSORGBOTTOM
 10
0.0
 20
0.0
 30
0.0
  9
$UCSORGLEFT
 10
0.0
 20
0.0
 30
0.0
  9
$UCSORGRIGHT
 10
0.0
 20
0.0
 30
0.0
  9
$UCSORGFRONT
 10
0.0
 20
0.0
 30
0.0
  9
$UCSORGBACK
 10
0.0
 20
0.0
 30
0.0
  9
$PUCSBASE
  2

  9
$PUCSNAME
  2

  9
$PUCSORG
 10
0.0
 20
0.0
 30
0.0
  9
$PUCSXDIR
 10
1.0
 20
0.0
 30
0.0
  9
$PUCSYDIR
 10
0.0
 20
1.0
 30
0.0
  9
$PUCSORTHOREF
  2

  9
$PUCSORTHOVIEW
 70
     0
  9
$PUCSORGTOP
 10
0.0
 20
0.0
 30
0.0
  9
$PUCSORGBOTTOM
 10
0.0
 20
0.0
 30
0.0
  9
$PUCSORGLEFT
 10
0.0
 20
0.0
 30
0.0
  9
$PUCSORGRIGHT
 10
0.0
 20
0.0
 30
0.0
  9
$PUCSORGFRONT
 10
0.0
 20
0.0
 30
0.0
  9
$PUCSORGBACK
 10
0.0
 20
0.0
 30
0.0
  9
$USERI1
 70
     0
  9
$USERI2
 70
     0
  9
$USERI3
 70
     0
  9
$USERI4
 70
     0
  9
$USERI5
 70
     0
  9
$USERR1
 40
0.0
  9
$USERR2
 40
0.0
  9
$USERR3
 40
0.0
  9
$USERR4
 40
0.0
  9
$USERR5
 40
0.0
  9
$WORLDVIEW
 70
     1
  9
$SHADEDGE
 70
     3
  9
$SHADEDIF
 70
    70
  9
$TILEMODE
 70
     1
  9
$MAXACTVP
 70
    64
  9
$PINSBASE
 10
0.0
 20
0.0
 30
0.0
  9
$PLIMCHECK
 70
     0
  9
$PEXTMIN
 10
1.000000000000000E+20
 20
1.000000000000000E+20
 30
1.000000000000000E+20
  9
$PEXTMAX
 10
-1.000000000000000E+20
 20
-1.000000000000000E+20
 30
-1.000000000000000E+20
  9
$PLIMMIN
 10
0.0
 20
0.0
  9
$PLIMMAX
 10
420.0
 20
297.0
  9
$UNITMODE
 70
     0
  9
$VISRETAIN
 70
     1
  9
$PLINEGEN
 70
     0
  9
$PSLTSCALE
 70
     1
  9
$TREEDEPTH
 70
  3020
  9
$CMLSTYLE
  2
Standard
  9
$CMLJUST
 70
     0
  9
$CMLSCALE
 40
20.0
  9
$PROXYGRAPHICS
 70
     1
  9
$MEASUREMENT
 70
     1
  9
$CELWEIGHT
370
    -1
  9
$ENDCAPS
280
     0
  9
$JOINSTYLE
280
     0
  9
$LWDISPLAY
290
     0
  9
$INSUNITS
 70
     4
  9
$HYPERLINKBASE
  1

  9
$STYLESHEET
  1
Halfen - Plotstil.ctb
  9
$XEDIT
290
     1
  9
$CEPSNTYPE
380
     0
  9
$PSTYLEMODE
290
     1
  9
$FINGERPRINTGUID
  2
{6E654FE4-01DC-4ACB-8850-5DFB4D1A260F}
  9
$VERSIONGUID
  2
{CB0CC725-4F8D-4C18-A75D-34B65D86421E}
  9
$EXTNAMES
290
     1
  9
$PSVPSCALE
 40
0.0
  9
$OLESTARTUP
290
     0
  9
$SORTENTS
280
   127
  9
$INDEXCTL
280
     0
  9
$HIDETEXT
280
     0
  9
$XCLIPFRAME
280
     2
  9
$HALOGAP
280
     0
  9
$OBSCOLOR
 70
   257
  9
$OBSLTYPE
280
     0
  9
$INTERSECTIONDISPLAY
280
     0
  9
$INTERSECTIONCOLOR
 70
   257
  9
$DIMASSOC
280
     1
  9
$PROJECTNAME
  1

  9
$CAMERADISPLAY
290
     0
  9
$LENSLENGTH
 40
50.0
  9
$CAMERAHEIGHT
 40
0.0
  9
$STEPSPERSEC
 40
2.0
  9
$STEPSIZE
 40
6.0
  9
$3DDWFPREC
 40
2.0
  9
$PSOLWIDTH
 40
0.25
  9
$PSOLHEIGHT
 40
4.0
  9
$LOFTANG1
 40
1.570796326794896
  9
$LOFTANG2
 40
1.570796326794896
  9
$LOFTMAG1
 40
0.0
  9
$LOFTMAG2
 40
0.0
  9
$LOFTPARAM
 70
     7
  9
$LOFTNORMALS
280
     1
  9
$LATITUDE
 40
37.795
  9
$LONGITUDE
 40
-122.394
  9
$NORTHDIRECTION
 40
0.0
  9
$TIMEZONE
 70
 -8000
  9
$LIGHTGLYPHDISPLAY
280
     1
  9
$TILEMODELIGHTSYNCH
280
     1
  9
$CMATERIAL
347
30F0
  9
$SOLIDHIST
280
     0
  9
$SHOWHIST
280
     1
  9
$DWFFRAME
280
     2
  9
$DGNFRAME
280
     0
  9
$REALWORLDSCALE
290
     1
  9
$INTERFERECOLOR
 62
     1
  9
$INTERFEREOBJVS
345
3112
  9
$INTERFEREVPVS
346
39B6
  9
$CSHADOW
280
     0
  9
$SHADOWPLANELOCATION
 40
0.0
  0
ENDSEC
  0
SECTION
  2
CLASSES
  0
CLASS
  1
ACDBDICTIONARYWDFLT
  2
AcDbDictionaryWithDefault
  3
ObjectDBX Classes
 90
        0
 91
        1
280
     0
281
     0
  0
CLASS
  1
ACME_DOCUMENT
  2
AcMeDbDoc
  3
AcMeServices
 90
     1024
 91
        0
280
     0
281
     0
  0
CLASS
  1
AMGSETTINGSOBJ
  2
AmgSettingsObj
  3
"AcadM|Product Description: AutoCAD Mechanical|Company: Autodesk, Inc."
 90
     1024
 91
        0
280
     0
281
     0
  0
CLASS
  1
ACMESCOPE
  2
AcMeScope
  3
AcMeServices
 90
     1024
 91
        0
280
     0
281
     0
  0
CLASS
  1
ACMECOMMANDHISTORY
  2
AcMeCommandHistory
  3
AcMeServices
 90
     1024
 91
        0
280
     0
281
     0
  0
CLASS
  1
DICTIONARYVAR
  2
AcDbDictionaryVar
  3
ObjectDBX Classes
 90
        0
 91
       10
280
     0
281
     0
  0
CLASS
  1
ACIMSYSVARMAN
  2
AcImSysVarManager
  3
AcMeServices
 90
     1024
 91
        0
280
     0
281
     0
  0
CLASS
  1
ACIMREALSYSVAR
  2
AcImRealSysVar
  3
AcMeServices
 90
     1024
 91
        0
280
     0
281
     0
  0
CLASS
  1
ACIMINTSYSVAR
  2
AcImIntSysVar
  3
AcMeServices
 90
     1024
 91
        0
280
     0
281
     0
  0
CLASS
  1
ACMEDRAWINGMAN
  2
AcMeDrawingMan
  3
AcMeServices
 90
     1024
 91
        0
280
     0
281
     0
  0
CLASS
  1
ACMEVIEW
  2
AcMeView
  3
AcMeServices
 90
     1024
 91
        0
280
     0
281
     0
  0
CLASS
  1
ACDBENTITYCACHE
  2
AcMeEntityCache
  3
AcMeServices
 90
     1024
 91
        0
280
     0
281
     0
  0
CLASS
  1
GSMANAGER
  2
AcMeGSManager
  3
AcMeServices
 90
     1024
 91
        0
280
     0
281
     0
  0
CLASS
  1
AMDTINTERNALREACTOR
  2
AmdtInternalReactor
  3
AcMeServices
 90
     1024
 91
        0
280
     0
281
     0
  0
CLASS
  1
ACMESTATEMGR
  2
AcMeStateMgr
  3
AcMeServices
 90
     1024
 91
        0
280
     0
281
     0
  0
CLASS
  1
ACME_DATABASE
  2
AcMeDbDatabase
  3
AcMeServices
 90
     1024
 91
        0
280
     0
281
     0
  0
CLASS
  1
ACRFINSADJUSTERMGR
  2
AcRfInsAdjusterMgr
  3
AcMeServices
 90
     1024
 91
        0
280
     0
281
     0
  0
CLASS
  1
ACMDATADICTIONARY
  2
AcmDataDictionary
  3
"AcmSymBB|Product Description: AutoCAD Mechanical|Company: Autodesk, Inc."
 90
     1024
 91
        0
280
     0
281
     0
  0
CLASS
  1
ACMDATAENTRYBLOCK
  2
AcmDataEntryBlock
  3
AcmSymBB|Product Description: AutoCAD Mechanical|Company: Autodesk, Inc.
 90
     1024
 91
        0
280
     0
281
     0
  0
CLASS
  1
AMGOBJPROPCFG
  2
AmgObjPropCfg
  3
"AmgLay|Product Description: AutoCAD Mechanical|Company: Autodesk, Inc."
 90
     1025
 91
        0
280
     0
281
     0
  0
CLASS
  1
ACAMGFILTERDAT
  2
AcAmgFilterDat
  3
"AcadM|Product Description: AutoCAD Mechanical|Company: Autodesk, Inc."
 90
     1024
 91
        0
280
     0
281
     0
  0
CLASS
  1
LAYER_INDEX
  2
AcDbLayerIndex
  3
ObjectDBX Classes
 90
        0
 91
        0
280
     0
281
     0
  0
CLASS
  1
IDBUFFER
  2
AcDbIdBuffer
  3
ObjectDBX Classes
 90
        0
 91
        0
280
     0
281
     0
  0
CLASS
  1
ACIMSTRSYSVAR
  2
AcImStrSysVar
  3
AcMeServices
 90
     1024
 91
        0
280
     0
281
     0
  0
CLASS
  1
ACMSTANDARDISO
  2
AcmStandardISO
  3
"Amdt_StdImp|Product Description: AutoCAD Mechanical|Company: Autodesk, Inc."
 90
     1024
 91
        0
280
     0
281
     0
  0
CLASS
  1
AMDTEDGESTANDARDISO
  2
AmdtEdgeStdISO
  3
"Amdt_StdImp|Product Description: AutoCAD Mechanical|Company: Autodesk, Inc."
 90
     1024
 91
        0
280
     0
281
     0
  0
CLASS
  1
ACMSURFSTANDARDISO
  2
AcmSurfTextStdISO
  3
"Amdt_StdImp|Product Description: AutoCAD Mechanical|Company: Autodesk, Inc."
 90
     1024
 91
        0
280
     0
281
     0
  0
CLASS
  1
ACMFCFSTANDARDISO
  2
AcmFCFStdISO
  3
"Amdt_StdImp|Product Description: AutoCAD Mechanical|Company: Autodesk, Inc."
 90
     1024
 91
        0
280
     0
281
     0
  0
CLASS
  1
ACMWELDSTANDARDISO
  2
AcmWeldingStdISO
  3
"Amdt_StdImp|Product Description: AutoCAD Mechanical|Company: Autodesk, Inc."
 90
     1024
 91
        0
280
     0
281
     0
  0
CLASS
  1
ACMIDSTANDARDISO
  2
AcmIdStdISO
  3
"Amdt_StdImp|Product Description: AutoCAD Mechanical|Company: Autodesk, Inc."
 90
     1024
 91
        0
280
     0
281
     0
  0
CLASS
  1
ACMDATUMSTANDARDISO
  2
AcmDatumStdISO
  3
"Amdt_StdImp|Product Description: AutoCAD Mechanical|Company: Autodesk, Inc."
 90
     1024
 91
        0
280
     0
281
     0
  0
CLASS
  1
ACMBOMSTANDARDISO
  2
AcmBOMStdISO
  3
"Amdt_StdImp|Product Description: AutoCAD Mechanical|Company: Autodesk, Inc."
 90
     1024
 91
        0
280
     0
281
     0
  0
CLASS
  1
AMDTNOTE
  2
AmdtNote
  3
"AcmSymBB|Product Description: AutoCAD Mechanical|Company: Autodesk, Inc."
 90
     4095
 91
        0
280
     0
281
     1
  0
CLASS
  1
STDPART2D
  2
AmgStdPart
  3
AmgStdPart|Product Description: AutoCAD Mechanical|Company: Autodesk, Inc.
 90
     4095
 91
        0
280
     0
281
     1
  0
CLASS
  1
TABLESTYLE
  2
AcDbTableStyle
  3
ObjectDBX Classes
 90
     4095
 91
        1
280
     0
281
     0
  0
CLASS
  1
ACGREFMASTER
  2
AcGrefMaster
  3
AcAttribServices
 90
     1024
 91
        0
280
     0
281
     0
  0
CLASS
  1
AM_DRAWING_MGR
  2
AcDmDwgMgr
  3
AcMechDwgViewMgmt
 90
     1024
 91
        0
280
     0
281
     0
  0
CLASS
  1
AM_DWG_DOCUMENT
  2
AcDmDwgDocument
  3
AcMechDwgViewMgmt
 90
     1024
 91
        0
280
     0
281
     0
  0
CLASS
  1
AM_DWG_SHEET
  2
AcDmSheet
  3
AcMechDwgViewMgmt
 90
     1024
 91
        0
280
     0
281
     0
  0
CLASS
  1
AM_VIEWDIMPARMAP
  2
AcDmViewDimParMap
  3
AcMechDwgViewMgmt
 90
     1024
 91
        0
280
     0
281
     0
  0
CLASS
  1
AM_DWGMGR_NAME
  2
AcDmDwgMgrName
  3
AcMechDwgViewMgmt
 90
     1024
 91
        0
280
     0
281
     0
  0
CLASS
  1
ACGREFACADMASTER
  2
AcGrefacadMaster
  3
AcGrefServices
 90
     1024
 91
        0
280
     0
281
     0
  0
CLASS
  1
AMDTMENUSTATEMGR
  2
AmdtMenuStateMgr
  3
McadcomServices
 90
     1024
 91
        0
280
     0
281
     0
  0
CLASS
  1
AMDTMCOMMENUSTATE
  2
AmdtMcomMenuState
  3
McadcomServices
 90
     1024
 91
        0
280
     0
281
     0
  0
CLASS
  1
AMIMASTER
  2
AmiMaster
  3
AmiServices
 90
     1024
 91
        0
280
     0
281
     0
  0
CLASS
  1
MAPIAMMOUDLE
  2
MApiAmModule
  3
MApiAmServices
 90
     1024
 91
        0
280
     0
281
     0
  0
CLASS
  1
AMDTADMENUSTATE
  2
AmdtAdMenuState
  3
DesignerServices
 90
     1024
 91
        0
280
     0
281
     0
  0
CLASS
  1
ADAPPL
  2
AcAdAppl
  3
DesignerServices
 90
     1024
 91
        0
280
     0
281
     0
  0
CLASS
  1
DEPMGR
  2
AcAdDepMgr
  3
DesignerServices
 90
     1024
 91
        0
280
     0
281
     0
  0
CLASS
  1
PARAMMGR
  2
AcAdParamMgr
  3
DesignerServices
 90
     1024
 91
        0
280
     0
281
     0
  0
CLASS
  1
PARAMSCOPE
  2
AcAdParamScope
  3
DesignerServices
 90
     1024
 91
        0
280
     0
281
     0
  0
CLASS
  1
NAMEDAPPL
  2
AcAdNamedAppl
  3
DesignerServices
 90
     1024
 91
        0
280
     0
281
     0
  0
CLASS
  1
AMDTDMMENUSTATE
  2
AmdtDmMenuState
  3
AcMechDwgViewMgmt
 90
     1024
 91
        0
280
     0
281
     0
  0
CLASS
  1
AMDTAMMENUSTATE
  2
AmdtAmMenuState
  3
DesignerAssemblies
 90
     1024
 91
        0
280
     0
281
     0
  0
CLASS
  1
ACAMPROJECT
  2
AcAmProject
  3
DesignerAssemblies
 90
     1024
 91
        0
280
     0
281
     0
  0
CLASS
  1
ACAMGRCOMPDEF
  2
AcAmGrCompDef
  3
DesignerAssemblies
 90
     1024
 91
        0
280
     0
281
     0
  0
CLASS
  1
ACCMCONTEXT
  2
AcCmContext
  3
DesignerAssemblies
 90
     1024
 91
        0
280
     0
281
     0
  0
CLASS
  1
ACAMCOMPDEF
  2
AcAmCompDef
  3
DesignerAssemblies
 90
     1024
 91
        0
280
     0
281
     0
  0
CLASS
  1
ACAMCOMPDEFMGR
  2
AcAmCompDefMgr
  3
DesignerAssemblies
 90
     1024
 91
        0
280
     0
281
     0
  0
CLASS
  1
AMCONTEXTMGR
  2
AcAmContextMgr
  3
DesignerAssemblies
 90
     1024
 91
        0
280
     0
281
     0
  0
CLASS
  1
ACAMCONTEXTMODELER
  2
AcAmContextModeler
  3
DesignerAssemblies
 90
     1024
 91
        0
280
     0
281
     0
  0
CLASS
  1
ACAMGTITLESTD
  2
AcAmgTitleStd
  3
"AmgTitle|Product Description: AutoCAD Mechanical|Company: Autodesk, Inc."
 90
     4095
 91
        0
280
     0
281
     0
  0
CLASS
  1
ACMDETAILSTANDARDISO
  2
AmdtDetailSymStdISO
  3
"Amdt_StdImp|Product Description: AutoCAD Mechanical|Company: Autodesk, Inc."
 90
     1024
 91
        0
280
     0
281
     0
  0
CLASS
  1
ACMSECTIONSTANDARDISO
  2
AmdtSectionSymStdISO
  3
"Amdt_StdImp|Product Description: AutoCAD Mechanical|Company: Autodesk, Inc."
 90
     1024
 91
        0
280
     0
281
     0
  0
CLASS
  1
ACMCENTERLINESTANDARDISO
  2
AmdtCenterLineStdISO
  3
"Amdt_StdImp|Product Description: AutoCAD Mechanical|Company: Autodesk, Inc."
 90
     1024
 91
        0
280
     0
281
     0
  0
CLASS
  1
ACMTHREADLINESTANDARDISO
  2
AmdtThreadLineStdISO
  3
"Amdt_StdImp|Product Description: AutoCAD Mechanical|Company: Autodesk, Inc."
 90
     1024
 91
        0
280
     0
281
     0
  0
CLASS
  1
ACMNOTESTANDARDISO
  2
AmdtNoteStdISO
  3
"Amdt_StdImp|Product Description: AutoCAD Mechanical|Company: Autodesk, Inc."
 90
     1024
 91
        0
280
     0
281
     0
  0
CLASS
  1
AMDTNOTETEMPLATEDB
  2
AmdtNoteTemplateDB
  3
AcmSymBB|Product Description: AutoCAD Mechanical|Company: Autodesk, Inc.
 90
     1024
 91
        0
280
     0
281
     0
  0
CLASS
  1
ACAMGLAYSTD
  2
AcAmgLayStd
  3
"AmgLay|Product Description: AutoCAD Mechanical|Company: Autodesk, Inc."
 90
     1024
 91
        0
280
     0
281
     0
  0
CLASS
  1
ACAMGDIMSTD
  2
AcAmgDimStd
  3
"AmgDim|Product Description: AutoCAD Mechanical|Company: Autodesk, Inc."
 90
     1024
 91
        0
280
     0
281
     0
  0
CLASS
  1
ACAMGHOLECHARTSTDISO
  2
AcAmgHoleChartStdISO
  3
AmgDim|Product Description: AutoCAD Mechanical|Company: Autodesk, Inc.
 90
     1024
 91
        0
280
     0
281
     0
  0
CLASS
  1
CATALOGSTATE
  2
AcAmCatalogState
  3
DesignerAssemblies
 90
     1024
 91
        0
280
     0
281
     0
  0
CLASS
  1
ACAMGRCOMPDEFSET
  2
AcAmGrCompDefSet
  3
DesignerAssemblies
 90
     1024
 91
        0
280
     0
281
     0
  0
CLASS
  1
AMDTBROWSERDBTAB
  2
AmdtBrowserDbTab
  3
McadcomServices
 90
     1024
 91
        0
280
     0
281
     0
  0
CLASS
  1
CBROWSERAPPOBJECT
  2
CBrowserAppObject
  3
McadcomServices
 90
     1024
 91
        0
280
     0
281
     0
  0
CLASS
  1
DM_PLACEHOLDER
  2
AcDmSelsetPlaceholder
  3
AcMechDwgViewMgmt
 90
     1024
 91
        0
280
     0
281
     0
  0
CLASS
  1
PLOTSETTINGS
  2
AcDbPlotSettings
  3
ObjectDBX Classes
 90
        0
 91
        2
280
     0
281
     0
  0
CLASS
  1
ACMSTANDARDDIN
  2
AcmStandardDIN
  3
"Amdt_StdImp|Product Description: AutoCAD Mechanical|Company: Autodesk, Inc."
 90
     1024
 91
        0
280
     0
281
     0
  0
CLASS
  1
AMDTEDGESTANDARDDIN
  2
AmdtEdgeStdDIN
  3
"Amdt_StdImp|Product Description: AutoCAD Mechanical|Company: Autodesk, Inc."
 90
     1024
 91
        0
280
     0
281
     0
  0
CLASS
  1
ACMSURFSTANDARDDIN
  2
AcmSurfTextStdDIN
  3
"Amdt_StdImp|Product Description: AutoCAD Mechanical|Company: Autodesk, Inc."
 90
     1024
 91
        0
280
     0
281
     0
  0
CLASS
  1
ACMFCFSTANDARDDIN
  2
AcmFCFStdDIN
  3
"Amdt_StdImp|Product Description: AutoCAD Mechanical|Company: Autodesk, Inc."
 90
     1024
 91
        0
280
     0
281
     0
  0
CLASS
  1
ACMWELDSTANDARDDIN
  2
AcmWeldingStdDIN
  3
"Amdt_StdImp|Product Description: AutoCAD Mechanical|Company: Autodesk, Inc."
 90
     1024
 91
        0
280
     0
281
     0
  0
CLASS
  1
ACMIDSTANDARDDIN
  2
AcmIdStdDIN
  3
"Amdt_StdImp|Product Description: AutoCAD Mechanical|Company: Autodesk, Inc."
 90
     1024
 91
        0
280
     0
281
     0
  0
CLASS
  1
ACMDATUMSTANDARDDIN
  2
AcmDatumStdDIN
  3
"Amdt_StdImp|Product Description: AutoCAD Mechanical|Company: Autodesk, Inc."
 90
     1024
 91
        0
280
     0
281
     0
  0
CLASS
  1
ACMBOMSTANDARDDIN
  2
AcmBOMStdDIN
  3
"Amdt_StdImp|Product Description: AutoCAD Mechanical|Company: Autodesk, Inc."
 90
     1024
 91
        0
280
     0
281
     0
  0
CLASS
  1
ACMDETAILSTANDARDDIN
  2
AmdtDetailSymStdDIN
  3
"Amdt_StdImp|Product Description: AutoCAD Mechanical|Company: Autodesk, Inc."
 90
     1024
 91
        0
280
     0
281
     0
  0
CLASS
  1
ACMSECTIONSTANDARDDIN
  2
AmdtSectionSymStdDIN
  3
"Amdt_StdImp|Product Description: AutoCAD Mechanical|Company: Autodesk, Inc."
 90
     1024
 91
        0
280
     0
281
     0
  0
CLASS
  1
ACMCENTERLINESTANDARDDIN
  2
AmdtCenterLineStdDIN
  3
"Amdt_StdImp|Product Description: AutoCAD Mechanical|Company: Autodesk, Inc."
 90
     1024
 91
        0
280
     0
281
     0
  0
CLASS
  1
ACMTHREADLINESTANDARDDIN
  2
AmdtThreadLineStdDIN
  3
"Amdt_StdImp|Product Description: AutoCAD Mechanical|Company: Autodesk, Inc."
 90
     1024
 91
        0
280
     0
281
     0
  0
CLASS
  1
ACMNOTESTANDARDDIN
  2
AmdtNoteStdDIN
  3
"Amdt_StdImp|Product Description: AutoCAD Mechanical|Company: Autodesk, Inc."
 90
     1024
 91
        0
280
     0
281
     0
  0
CLASS
  1
ACAMGHOLECHARTSTDDIN
  2
AcAmgHoleChartStdDIN
  3
AmgDim|Product Description: AutoCAD Mechanical|Company: Autodesk, Inc.
 90
     1024
 91
        0
280
     0
281
     0
  0
CLASS
  1
SORTENTSTABLE
  2
AcDbSortentsTable
  3
ObjectDBX Classes
 90
        0
 91
        1
280
     0
281
     0
  0
CLASS
  1
MATERIAL
  2
AcDbMaterial
  3
ObjectDBX Classes
 90
     1153
 91
        3
280
     0
281
     0
  0
CLASS
  1
VISUALSTYLE
  2
AcDbVisualStyle
  3
ObjectDBX Classes
 90
     4095
 91
       26
280
     0
281
     0
  0
CLASS
  1
SCALE
  2
AcDbScale
  3
ObjectDBX Classes
 90
     1153
 91
       33
280
     0
281
     0
  0
CLASS
  1
MLEADERSTYLE
  2
AcDbMLeaderStyle
  3
ACDB_MLEADERSTYLE_CLASS
 90
     4095
 91
        1
280
     0
281
     0
  0
CLASS
  1
ACRFATTGENMGR
  2
AcRfAttGeneralMgr
  3
AcAttribServices
 90
     1024
 91
        0
280
     0
281
     0
  0
CLASS
  1
ACRFOBJATTMGR
  2
AcRfObjAttGroupMgr
  3
AcAttribServices
 90
     1024
 91
        0
280
     0
281
     0
  0
CLASS
  1
ACRFMCADAPIATTHOLDER
  2
AcRfMCADAPIAttHolder
  3
AcAttribServices
 90
     1024
 91
        0
280
     0
281
     0
  0
CLASS
  1
AMDTSYSATTR
  2
AmdtSystemAttribute
  3
AcAttribServices
 90
     1024
 91
        0
280
     0
281
     0
  0
CLASS
  1
ACMTAPERSTANDARDISO
  2
AcmTaperStdISO
  3
"Amdt_StdImp|Product Description: AutoCAD Mechanical|Company: Autodesk, Inc."
 90
     1024
 91
        0
280
     0
281
     0
  0
CLASS
  1
ACMANOOTATIONVIEWSTANDARDISO
  2
AmdtAnViewStdISO
  3
"Amdt_StdImp|Product Description: AutoCAD Mechanical|Company: Autodesk, Inc."
 90
     1024
 91
        0
280
     0
281
     0
  0
CLASS
  1
ACMTAPERSTANDARDDIN
  2
AcmTaperStdDIN
  3
"Amdt_StdImp|Product Description: AutoCAD Mechanical|Company: Autodesk, Inc."
 90
     1024
 91
        0
280
     0
281
     0
  0
CLASS
  1
ACMANOOTATIONVIEWSTANDARDDIN
  2
AmdtAnViewStdDIN
  3
"Amdt_StdImp|Product Description: AutoCAD Mechanical|Company: Autodesk, Inc."
 90
     1024
 91
        0
280
     0
281
     0
  0
CLASS
  1
CAMSSTRUCTBTNSTATE
  2
StructBtnState
  3
DesignerAssemblies
 90
     1024
 91
        0
280
     0
281
     0
  0
CLASS
  1
CELLSTYLEMAP
  2
AcDbCellStyleMap
  3
ObjectDBX Classes
 90
     1152
 91
        2
280
     0
281
     0
  0
CLASS
  1
AMDTEDGESTANDARDDIN13715
  2
AmdtEdgeStdDIN13715
  3
"Amdt_StdImp|Product Description: AutoCAD Mechanical|Company: Autodesk, Inc."
 90
     1024
 91
        0
280
     0
281
     0
  0
CLASS
  1
ACMSURFSTANDARDDIN2002
  2
AcmSurfTextStdDIN2002
  3
"Amdt_StdImp|Product Description: AutoCAD Mechanical|Company: Autodesk, Inc."
 90
     1024
 91
        0
280
     0
281
     0
  0
ENDSEC
  0
SECTION
  2
TABLES
  0
TABLE
  2
VPORT
  5
8
102
{ACAD_XDICTIONARY
360
3883
102
}
330
0
100
AcDbSymbolTable
 70
     1
  0
VPORT
  5
30EE
330
8
100
AcDbSymbolTableRecord
100
AcDbViewportTableRecord
  2
*Active
 70
     0
 10
0.0
 20
0.0
 11
1.0
 21
1.0
 12
575.1414566981579
 22
538.2378633456912
 13
0.0
 23
0.0
 14
10.0
 24
10.0
 15
10.0
 25
10.0
 16
0.0
 26
0.0
 36
1.0
 17
0.0
 27
0.0
 37
0.0
 40
580.3943154632227
 41
2.178861788617886
 42
50.0
 43
0.0
 44
0.0
 50
0.0
 51
0.0
 71
     0
 72
   100
 73
     1
 74
     2
 75
     0
 76
     0
 77
     0
 78
     0
281
     0
 65
     1
110
0.0
120
0.0
130
0.0
111
1.0
121
0.0
131
0.0
112
0.0
122
1.0
132
0.0
 79
     0
146
0.0
348
310E
 60
     3
 61
     5
292
     1
282
     1
141
0.0
142
0.0
 63
   250
421
  3355443
1001
ACAD_NAV_VCDISPLAY
1070
     3
  0
ENDTAB
  0
TABLE
  2
LTYPE
  5
5
330
0
100
AcDbSymbolTable
 70
     3
  0
LTYPE
  5
14
330
5
100
AcDbSymbolTableRecord
100
AcDbLinetypeTableRecord
  2
ByBlock
 70
     0
  3

 72
    65
 73
     0
 40
0.0
  0
LTYPE
  5
15
330
5
100
AcDbSymbolTableRecord
100
AcDbLinetypeTableRecord
  2
ByLayer
 70
     0
  3

 72
    65
 73
     0
 40
0.0
  0
LTYPE
  5
16
330
5
100
AcDbSymbolTableRecord
100
AcDbLinetypeTableRecord
  2
Continuous
 70
     0
  3
Solid line
 72
    65
 73
     0
 40
0.0
  0
LTYPE
  5
37E4
330
5
100
AcDbSymbolTableRecord
100
AcDbLinetypeTableRecord
  2
STRICHPUNKT2
 70
     0
  3
Strichpunkt (.5x) _._._._._._._._._._._._._._._
 72
    65
 73
     4
 40
0.5
 49
0.25
 74
     0
 49
-0.125
 74
     0
 49
0.0
 74
     0
 49
-0.125
 74
     0
  0
ENDTAB
  0
TABLE
  2
LAYER
  5
2
102
{ACAD_XDICTIONARY
360
FAF
102
}
330
0
100
AcDbSymbolTable
 70
     3
  0
LAYER
  5
10
102
{ACAD_XDICTIONARY
360
31DF
102
}
330
2
100
AcDbSymbolTableRecord
100
AcDbLayerTableRecord
  2
0
 70
     0
 62
     7
  6
Continuous
370
    -3
390
F
347
3100
  0
LAYER
  5
79
330
2
100
AcDbSymbolTableRecord
100
AcDbLayerTableRecord
  2
Defpoints
 70
     0
 62
     7
  6
Continuous
290
     0
370
    -3
390
F
347
3100
  0
LAYER
  5
37BD
330
2
100
AcDbSymbolTableRecord
100
AcDbLayerTableRecord
  2
HALFEN
 70
     0
 62
     2
  6
Continuous
370
    -3
390
F
347
3100
  0
ENDTAB
  0
TABLE
  2
STYLE
  5
3
330
0
100
AcDbSymbolTable
 70
     5
  0
STYLE
  5
11
330
3
100
AcDbSymbolTableRecord
100
AcDbTextStyleTableRecord
  2
Standard
 70
     0
 40
0.0
 41
1.0
 50
0.0
 71
     0
 42
2.5
  3
ARIAL.TTF
  4

1001
ACAD
1000
Arial
1071
       34
  0
STYLE
  5
BFE
330
3
100
AcDbSymbolTableRecord
100
AcDbTextStyleTableRecord
  2
ARIAL03
 70
     0
 40
0.0
 41
1.0
 50
0.0
 71
     0
 42
2.0
  3
ARIAL.TTF
  4

1001
ACAD
1000
Arial
1071
       34
  0
STYLE
  5
C06
330
3
100
AcDbSymbolTableRecord
100
AcDbTextStyleTableRecord
  2
DREI
 70
     0
 40
3.0
 41
1.0
 50
0.0
 71
     0
 42
3.149999999999999
  3
ARIAL.TTF
  4

1001
ACAD
1000
Arial
1071
       34
  0
STYLE
  5
C07
330
3
100
AcDbSymbolTableRecord
100
AcDbTextStyleTableRecord
  2
ZWEI
 70
     0
 40
2.25
 41
1.179999999999999
 50
0.0
 71
     0
 42
3.5
  3
iso8
  4

  0
STYLE
  5
1218
330
3
100
AcDbSymbolTableRecord
100
AcDbTextStyleTableRecord
  2
ARIAL50
 70
     0
 40
5.0
 41
1.0
 50
0.0
 71
     0
 42
3.5
  3
ARIAL.TTF
  4

1001
ACAD
1000
Arial
1071
       34
  0
ENDTAB
  0
TABLE
  2
VIEW
  5
6
330
0
100
AcDbSymbolTable
 70
     0
  0
ENDTAB
  0
TABLE
  2
UCS
  5
7
330
0
100
AcDbSymbolTable
 70
     0
  0
ENDTAB
  0
TABLE
  2
APPID
  5
9
330
0
100
AcDbSymbolTable
 70
    48
  0
APPID
  5
12
330
9
100
AcDbSymbolTableRecord
100
AcDbRegAppTableRecord
  2
ACAD
 70
     0
  0
APPID
  5
51
330
9
100
AcDbSymbolTableRecord
100
AcDbRegAppTableRecord
  2
MCAD_NO_VIS
 70
     0
  0
APPID
  5
52
330
9
100
AcDbSymbolTableRecord
100
AcDbRegAppTableRecord
  2
ACAD_TEMP_GRAPHIC
 70
     0
  0
APPID
  5
CD
330
9
100
AcDbSymbolTableRecord
100
AcDbRegAppTableRecord
  2
GENIUS_GENDTOL_13
 70
     0
  0
APPID
  5
230
330
9
100
AcDbSymbolTableRecord
100
AcDbRegAppTableRecord
  2
GENIUS_GENODEF_13
 70
     0
  0
APPID
  5
231
330
9
100
AcDbSymbolTableRecord
100
AcDbRegAppTableRecord
  2
GENIUS_GENOBJ-N-CRS_13
 70
     0
  0
APPID
  5
232
330
9
100
AcDbSymbolTableRecord
100
AcDbRegAppTableRecord
  2
GENIUS_GENOENT_13
 70
     0
  0
APPID
  5
233
330
9
100
AcDbSymbolTableRecord
100
AcDbRegAppTableRecord
  2
GENIUS_GENOREF_13
 70
     0
  0
APPID
  5
234
330
9
100
AcDbSymbolTableRecord
100
AcDbRegAppTableRecord
  2
GENIUS_GENOLIS_13
 70
     0
  0
APPID
  5
2F2
330
9
100
AcDbSymbolTableRecord
100
AcDbRegAppTableRecord
  2
GENIUS_GEFWELD_13
 70
     0
  0
APPID
  5
2F4
330
9
100
AcDbSymbolTableRecord
100
AcDbRegAppTableRecord
  2
GENIUS_GENOBJ-F-WELS_13
 70
     0
  0
APPID
  5
648
330
9
100
AcDbSymbolTableRecord
100
AcDbRegAppTableRecord
  2
GENIUS_GENOBJ-N-CEN_13
 70
     0
  0
APPID
  5
6D4
330
9
100
AcDbSymbolTableRecord
100
AcDbRegAppTableRecord
  2
GENIUS_GENOBJ-N-CRC_13
 70
     0
  0
APPID
  5
6D5
330
9
100
AcDbSymbolTableRecord
100
AcDbRegAppTableRecord
  2
GENIUS_GENCRC_14
 70
     0
  0
APPID
  5
70D
330
9
100
AcDbSymbolTableRecord
100
AcDbRegAppTableRecord
  2
GEVID1024035136
 70
     0
  0
APPID
  5
70E
330
9
100
AcDbSymbolTableRecord
100
AcDbRegAppTableRecord
  2
GEVDC
 70
     0
  0
APPID
  5
70F
330
9
100
AcDbSymbolTableRecord
100
AcDbRegAppTableRecord
  2
GEVRADREF
 70
     0
  0
APPID
  5
713
330
9
100
AcDbSymbolTableRecord
100
AcDbRegAppTableRecord
  2
GENIUS_GENBH_13
 70
     0
  0
APPID
  5
715
330
9
100
AcDbSymbolTableRecord
100
AcDbRegAppTableRecord
  2
GENIUS_GENOBJ-NBEHI-BHF_13
 70
     0
  0
APPID
  5
717
330
9
100
AcDbSymbolTableRecord
100
AcDbRegAppTableRecord
  2
GENIUS_GENOBJ-NBEHI-BHB_13
 70
     0
  0
APPID
  5
844
330
9
100
AcDbSymbolTableRecord
100
AcDbRegAppTableRecord
  2
AD_DRAW
 70
     0
  0
APPID
  5
847
330
9
100
AcDbSymbolTableRecord
100
AcDbRegAppTableRecord
  2
ACATTRIBSERVICES
 70
     0
  0
APPID
  5
865
330
9
100
AcDbSymbolTableRecord
100
AcDbRegAppTableRecord
  2
DESIGNERASSEMBLIES
 70
     0
  0
APPID
  5
878
330
9
100
AcDbSymbolTableRecord
100
AcDbRegAppTableRecord
  2
ACADM_DIM_EDIT
 70
     0
  0
APPID
  5
879
330
9
100
AcDbSymbolTableRecord
100
AcDbRegAppTableRecord
  2
AMDT_DM_ADJ
 70
     0
  0
APPID
  5
87F
330
9
100
AcDbSymbolTableRecord
100
AcDbRegAppTableRecord
  2
ACAD_DSTYLE_DIMTEXT_FILL
 70
     0
  0
APPID
  5
924
330
9
100
AcDbSymbolTableRecord
100
AcDbRegAppTableRecord
  2
GENIUS_GENDIMSH_14
 70
     0
  0
APPID
  5
975
330
9
100
AcDbSymbolTableRecord
100
AcDbRegAppTableRecord
  2
ACAD_PSEXT
 70
     0
  0
APPID
  5
C11
330
9
100
AcDbSymbolTableRecord
100
AcDbRegAppTableRecord
  2
GENBH
 70
     0
  0
APPID
  5
C12
330
9
100
AcDbSymbolTableRecord
100
AcDbRegAppTableRecord
  2
GENIUS_GENOBJ-F-DESC_13
 70
     0
  0
APPID
  5
C13
330
9
100
AcDbSymbolTableRecord
100
AcDbRegAppTableRecord
  2
GENIUS_GEFDESC_14
 70
     0
  0
APPID
  5
C14
330
9
100
AcDbSymbolTableRecord
100
AcDbRegAppTableRecord
  2
GENIUS_GENOBJ-F-FEAT_13
 70
     0
  0
APPID
  5
C15
330
9
100
AcDbSymbolTableRecord
100
AcDbRegAppTableRecord
  2
GENIUS_GEFFEAT_14
 70
     0
  0
APPID
  5
C16
330
9
100
AcDbSymbolTableRecord
100
AcDbRegAppTableRecord
  2
GENIUS_GENOBJ-F-PART_13
 70
     0
  0
APPID
  5
C17
330
9
100
AcDbSymbolTableRecord
100
AcDbRegAppTableRecord
  2
GENIUS_GEFSTDP_13
 70
     0
  0
APPID
  5
C18
330
9
100
AcDbSymbolTableRecord
100
AcDbRegAppTableRecord
  2
AME_SOL
 70
     0
  0
APPID
  5
FAD
330
9
100
AcDbSymbolTableRecord
100
AcDbRegAppTableRecord
  2
GENIUS_GENREC_14
 70
     0
  0
APPID
  5
FAE
330
9
100
AcDbSymbolTableRecord
100
AcDbRegAppTableRecord
  2
GENIUS_GENOBJ-N-REC_13
 70
     0
  0
APPID
  5
1219
330
9
100
AcDbSymbolTableRecord
100
AcDbRegAppTableRecord
  2
AcAecLayerStandard
 70
     0
  0
APPID
  5
30D0
330
9
100
AcDbSymbolTableRecord
100
AcDbRegAppTableRecord
  2
DCO15
 70
     0
  0
APPID
  5
313D
330
9
100
AcDbSymbolTableRecord
100
AcDbRegAppTableRecord
  2
ACAD_MLEADERVER
 70
     0
  0
APPID
  5
3203
330
9
100
AcDbSymbolTableRecord
100
AcDbRegAppTableRecord
  2
ACAD_EXEMPT_FROM_CAD_STANDARDS
 70
     0
  0
APPID
  5
37AC
330
9
100
AcDbSymbolTableRecord
100
AcDbRegAppTableRecord
  2
ACLAYERTOOLS
 70
     0
  0
APPID
  5
37E5
330
9
100
AcDbSymbolTableRecord
100
AcDbRegAppTableRecord
  2
ACAD_DSTYLE_DIMJOGGED_JOGANGLE_SYMBOL
 70
     0
  0
APPID
  5
3914
330
9
100
AcDbSymbolTableRecord
100
AcDbRegAppTableRecord
  2
ACAD_DSTYLE_DIM_LINETYPE
 70
     0
  0
APPID
  5
3915
330
9
100
AcDbSymbolTableRecord
100
AcDbRegAppTableRecord
  2
ACAD_DSTYLE_DIM_EXT1_LINETYPE
 70
     0
  0
APPID
  5
3916
330
9
100
AcDbSymbolTableRecord
100
AcDbRegAppTableRecord
  2
ACAD_DSTYLE_DIM_EXT2_LINETYPE
 70
     0
  0
APPID
  5
39C9
330
9
100
AcDbSymbolTableRecord
100
AcDbRegAppTableRecord
  2
ACAD_NAV_VCDISPLAY
 70
     0
  0
ENDTAB
  0
TABLE
  2
DIMSTYLE
  5
A
330
0
100
AcDbSymbolTable
 70
     2
100
AcDbDimStyleTable
 71
     1
340
C08
  0
DIMSTYLE
105
C08
330
A
100
AcDbSymbolTableRecord
100
AcDbDimStyleTableRecord
  2
AM_DIN
 70
     0
  4
"
 41
3.5
 42
1.0
 43
10.0
 44
1.0
 47
0.1
 48
0.1
 50
90.0
 73
     0
 74
     0
 77
     1
 78
     8
 79
     2
140
3.5
141
0.0
143
0.0393701
146
0.71
147
1.5
172
     1
176
   256
177
   256
178
     2
271
     2
272
     3
274
     4
283
     0
284
     8
340
11
345
14
346
14
347
14
371
    -1
372
    -1
1001
ACAD_DSTYLE_DIMJOGGED_JOGANGLE_SYMBOL
1070
   384
1040
1.570796326794896
  0
DIMSTYLE
105
C0F
330
A
100
AcDbSymbolTableRecord
100
AcDbDimStyleTableRecord
  2
STANDARD
 70
     0
 41
3.0
 42
0.0
 43
7.0
 44
1.8
 73
     0
 74
     0
 77
     1
 78
    12
140
3.0
141
1.5
147
2.0
172
     1
176
     1
177
     1
178
     7
271
     2
272
     2
279
     2
340
BFE
  0
ENDTAB
  0
TABLE
  2
BLOCK_RECORD
  5
1
330
0
100
AcDbSymbolTable
 70
     4
  0
BLOCK_RECORD
  5
1F
102
{ACAD_XDICTIONARY
360
1BF
102
}
330
1
100
AcDbSymbolTableRecord
100
AcDbBlockTableRecord
  2
*Model_Space
340
22
 70
     0
280
     1
281
     0
  0
BLOCK_RECORD
  5
1B
330
1
100
AcDbSymbolTableRecord
100
AcDbBlockTableRecord
  2
*Paper_Space
340
1E
 70
     0
280
     1
281
     0
  0
BLOCK_RECORD
  5
23
330
1
100
AcDbSymbolTableRecord
100
AcDbBlockTableRecord
  2
*Paper_Space0
340
26
 70
     0
280
     1
281
     0
  0
BLOCK_RECORD
  5
A10
330
1
100
AcDbSymbolTableRecord
100
AcDbBlockTableRecord
  2
AME_NIL
340
0
102
{BLKREFS
331
C78
331
C97
331
C9B
331
C9F
331
CA7
331
CAA
102
}
 70
     0
280
     1
281
     0
  0
BLOCK_RECORD
  5
A13
330
1
100
AcDbSymbolTableRecord
100
AcDbBlockTableRecord
  2
AME_SOL
340
0
102
{BLKREFS
331
C79
331
C98
331
C9C
331
CA0
331
CA8
331
CAB
102
}
 70
     0
280
     1
281
     0
  0
BLOCK_RECORD
  5
A16
330
1
100
AcDbSymbolTableRecord
100
AcDbBlockTableRecord
  2
AME_MAT
340
0
102
{BLKREFS
331
C7A
331
C99
331
C9D
331
CA1
102
}
 70
     0
280
     1
281
     0
  0
ENDTAB
  0
ENDSEC
  0
SECTION
  2
BLOCKS
  0
BLOCK
  5
20
330
1F
100
AcDbEntity
  8
0
100
AcDbBlockBegin
  2
*Model_Space
 70
     0
 10
0.0
 20
0.0
 30
0.0
  3
*Model_Space
  1

  0
ENDBLK
  5
21
330
1F
100
AcDbEntity
  8
0
100
AcDbBlockEnd
  0
BLOCK
  5
1C
330
1B
100
AcDbEntity
 67
     1
  8
0
100
AcDbBlockBegin
  2
*Paper_Space
 70
     0
 10
0.0
 20
0.0
 30
0.0
  3
*Paper_Space
  1

  0
ENDBLK
  5
1D
330
1B
100
AcDbEntity
 67
     1
  8
0
100
AcDbBlockEnd
  0
BLOCK
  5
24
330
23
100
AcDbEntity
 67
     1
  8
0
100
AcDbBlockBegin
  2
*Paper_Space0
 70
     0
 10
0.0
 20
0.0
 30
0.0
  3
*Paper_Space0
  1

  0
ENDBLK
  5
25
330
23
100
AcDbEntity
 67
     1
  8
0
100
AcDbBlockEnd
  0
BLOCK
  5
A11
330
A10
100
AcDbEntity
  8
0
100
AcDbBlockBegin
  2
AME_NIL
 70
     0
 10
0.0
 20
0.0
 30
0.0
  3
AME_NIL
  1
AME_NIL
  0
ENDBLK
  5
A12
330
A10
100
AcDbEntity
  8
0
100
AcDbBlockEnd
  0
BLOCK
  5
A14
330
A13
100
AcDbEntity
  8
0
100
AcDbBlockBegin
  2
AME_SOL
 70
     0
 10
0.0
 20
0.0
 30
0.0
  3
AME_SOL
  1
AME_SOL
  0
ENDBLK
  5
A15
330
A13
100
AcDbEntity
  8
0
100
AcDbBlockEnd
  0
BLOCK
  5
A17
330
A16
100
AcDbEntity
  8
0
100
AcDbBlockBegin
  2
AME_MAT
 70
     0
 10
0.0
 20
0.0
 30
0.0
  3
AME_MAT
  1
AME_MAT
  0
ENDBLK
  5
A18
330
A16
100
AcDbEntity
  8
0
100
AcDbBlockEnd
  0
ENDSEC
  0
SECTION
  2
ENTITIES
  0
TEXT
  5
C72
330
1F
100
AcDbEntity
  8
HALFEN
 60
     1
100
AcDbText
 10
983.86440273805
 20
64.12194437354208
 30
0.0
 40
3.5
  1
!GENTITLE-INSERT
100
AcDbText
  0
TEXT
  5
C77
330
1F
100
AcDbEntity
  8
HALFEN
100
AcDbText
 10
1246.106443728449
 20
126.4067706929957
 30
0.0
 40
3.149999999999999
  1

 50
90.0
 41
1.179999999999999
  7
DREI
100
AcDbText
  0
INSERT
  5
C78
330
1F
100
AcDbEntity
  8
HALFEN
100
AcDbBlockReference
  2
AME_NIL
 10
1313.10644372845
 20
64.40677069299567
 30
0.0
 50
90.0
  0
INSERT
  5
C79
330
1F
100
AcDbEntity
  8
HALFEN
100
AcDbBlockReference
  2
AME_SOL
 10
1313.10644372845
 20
64.40677069299567
 30
0.0
 50
90.0
1001
AME_SOL
1000
R2.1_c2
1000
AME2
1000
sq mm
1070
     3
1070
     0
1070
     3
1000
wire
1040
45.0
1000
B
1040
2.0
1000
mm
1000
gm
1000
MILD_STEEL
1070
    25
1000
CSG
1070
     1
1070
     3
1070
     3
1070
     3
1070
     0
1000
cu mm
1070
     1
1070
     0
1005
C78
  0
INSERT
  5
C7A
330
1F
100
AcDbEntity
  8
HALFEN
100
AcDbBlockReference
  2
AME_MAT
 10
1313.10644372845
 20
64.40677069299567
 30
0.0
 50
90.0
1001
AME_SOL
1000
MILD_STEEL
1000
;Stahl
1040
7860.0
1040
220.0
1040
0.275
1040
600.0
1040
760.0
1040
56.0
1040
12.0
1040
0.4600000000000001
  0
LINE
  5
C7E
330
1F
100
AcDbEntity
  8
HALFEN
 60
     1
100
AcDbLine
 10
1230.702825607622
 20
503.0365322191316
 30
0.0
 11
1287.002825607622
 21
503.0365322191316
 31
0.0
  0
LINE
  5
C81
330
1F
100
AcDbEntity
  8
HALFEN
 60
     1
100
AcDbLine
 10
1170.114508180734
 20
537.6776314694032
 30
0.0
 11
1188.114508180734
 21
537.6776314694032
 31
0.0
  0
LINE
  5
C82
330
1F
100
AcDbEntity
  8
HALFEN
 60
     1
100
AcDbLine
 10
1130.614508180734
 20
537.6776314694032
 30
0.0
 11
1194.114508180734
 21
537.6776314694032
 31
0.0
  0
LINE
  5
C86
330
1F
100
AcDbEntity
  8
HALFEN
 60
     1
100
AcDbLine
 10
1464.428221262119
 20
213.5514806533271
 30
0.0
 11
1464.428221262119
 21
196.7514806533271
 31
0.0
  0
LINE
  5
C87
330
1F
100
AcDbEntity
  8
HALFEN
 60
     1
100
AcDbLine
 10
1464.428221262119
 20
291.3014806533271
 30
0.0
 11
1464.428221262119
 21
187.8014806533271
 31
0.0
  0
TEXT
  5
C88
330
1F
100
AcDbEntity
  8
HALFEN
100
AcDbText
 10
1180.4687748947
 20
242.0523305431582
 30
0.0
 40
2.25
  1

 41
1.179999999999999
  7
ZWEI
100
AcDbText
  0
TEXT
  5
C8D
330
1F
100
AcDbEntity
  8
HALFEN
100
AcDbText
 10
1166.987170133278
 20
311.0848459294095
 30
0.0
 40
3.15
  1

 41
1.1
  7
DREI
 72
     4
 11
1166.987170133278
 21
311.0848459294095
 31
0.0
100
AcDbText
  0
TEXT
  5
C8E
330
1F
100
AcDbEntity
  8
HALFEN
100
AcDbText
 10
1207.487170133278
 20
322.0848459294095
 30
0.0
 40
3.149999999999999
  1

 41
1.179999999999999
  7
DREI
 72
     4
 11
1207.487170133278
 21
322.0848459294095
 31
0.0
100
AcDbText
  0
TEXT
  5
C8F
330
1F
100
AcDbEntity
  8
HALFEN
100
AcDbText
 10
1207.487170133278
 20
316.5848459294095
 30
0.0
 40
3.149999999999999
  1

 41
1.179999999999999
  7
DREI
 72
     4
 11
1207.487170133278
 21
316.5848459294095
 31
0.0
100
AcDbText
  0
TEXT
  5
C90
330
1F
100
AcDbEntity
  8
HALFEN
100
AcDbText
 10
1203.593855474865
 20
314.0355732064606
 30
0.0
 40
3.15
  1

 41
1.1
  7
DREI
 72
     4
 11
1203.593855474865
 21
314.0355732064606
 31
0.0
100
AcDbText
  0
TEXT
  5
C91
330
1F
100
AcDbEntity
  8
HALFEN
100
AcDbText
 10
1244.093855474865
 20
325.0355732064606
 30
0.0
 40
3.149999999999999
  1

 41
1.179999999999999
  7
DREI
 72
     4
 11
1244.093855474865
 21
325.0355732064606
 31
0.0
100
AcDbText
  0
TEXT
  5
C92
330
1F
100
AcDbEntity
  8
HALFEN
100
AcDbText
 10
1244.093855474865
 20
319.5355732064606
 30
0.0
 40
3.149999999999999
  1

 41
1.179999999999999
  7
DREI
 72
     4
 11
1244.093855474865
 21
319.5355732064606
 31
0.0
100
AcDbText
  0
TEXT
  5
C93
330
1F
100
AcDbEntity
  8
HALFEN
100
AcDbText
 10
650.167453832107
 20
84.4292416606313
 30
0.0
 40
3.149999999999999
  1

 41
1.179999999999999
  7
DREI
 72
     2
 11
650.167453832107
 21
84.4292416606313
 31
0.0
100
AcDbText
  0
TEXT
  5
C94
330
1F
100
AcDbEntity
  8
HALFEN
100
AcDbText
 10
630.167453832107
 20
84.4292416606313
 30
0.0
 40
3.149999999999999
  1

 41
1.179999999999999
  7
DREI
100
AcDbText
  0
TEXT
  5
C95
330
1F
100
AcDbEntity
  8
HALFEN
100
AcDbText
 10
653.1674538321071
 20
84.4292416606313
 30
0.0
 40
3.149999999999999
  1

 41
1.179999999999999
  7
DREI
100
AcDbText
  0
TEXT
  5
C96
330
1F
100
AcDbEntity
  8
HALFEN
100
AcDbText
 10
888.6895687621633
 20
184.8531038773283
 30
0.0
 40
3.149999999999999
  1

 41
1.179999999999999
  7
DREI
100
AcDbText
  0
INSERT
  5
C97
330
1F
100
AcDbEntity
  8
HALFEN
100
AcDbBlockReference
  2
AME_NIL
 10
826.6895687621634
 20
117.8531038773283
 30
0.0
  0
INSERT
  5
C98
330
1F
100
AcDbEntity
  8
HALFEN
100
AcDbBlockReference
  2
AME_SOL
 10
826.6895687621634
 20
117.8531038773283
 30
0.0
1001
AME_SOL
1000
R2.1_c2
1000
AME2
1000
sq mm
1070
     3
1070
     0
1070
     3
1000
wire
1040
45.0
1000
B
1040
2.0
1000
mm
1000
gm
1000
MILD_STEEL
1070
    25
1000
CSG
1070
     1
1070
     3
1070
     3
1070
     3
1070
     0
1000
cu mm
1070
     1
1070
     0
1005
C97
  0
INSERT
  5
C99
330
1F
100
AcDbEntity
  8
HALFEN
100
AcDbBlockReference
  2
AME_MAT
 10
826.6895687621634
 20
117.8531038773283
 30
0.0
1001
AME_SOL
1000
MILD_STEEL
1000
;Stahl
1040
7860.0
1040
220.0
1040
0.275
1040
600.0
1040
760.0
1040
56.0
1040
12.0
1040
0.4600000000000001
  0
TEXT
  5
C9A
330
1F
100
AcDbEntity
  8
HALFEN
100
AcDbText
 10
885.6558158862601
 20
183.5620249775771
 30
0.0
 40
3.149999999999999
  1

 41
1.179999999999999
  7
DREI
100
AcDbText
  0
INSERT
  5
C9B
330
1F
100
AcDbEntity
  8
HALFEN
100
AcDbBlockReference
  2
AME_NIL
 10
823.6558158862601
 20
116.5620249775771
 30
0.0
  0
INSERT
  5
C9C
330
1F
100
AcDbEntity
  8
HALFEN
100
AcDbBlockReference
  2
AME_SOL
 10
823.6558158862601
 20
116.5620249775771
 30
0.0
1001
AME_SOL
1000
R2.1_c2
1000
AME2
1000
sq mm
1070
     3
1070
     0
1070
     3
1000
wire
1040
45.0
1000
B
1040
2.0
1000
mm
1000
gm
1000
MILD_STEEL
1070
    25
1000
CSG
1070
     1
1070
     3
1070
     3
1070
     3
1070
     0
1000
cu mm
1070
     1
1070
     0
1005
C9B
  0
INSERT
  5
C9D
330
1F
100
AcDbEntity
  8
HALFEN
100
AcDbBlockReference
  2
AME_MAT
 10
823.6558158862601
 20
116.5620249775771
 30
0.0
1001
AME_SOL
1000
MILD_STEEL
1000
;Stahl
1040
7860.0
1040
220.0
1040
0.275
1040
600.0
1040
760.0
1040
56.0
1040
12.0
1040
0.4600000000000001
  0
TEXT
  5
C9E
330
1F
100
AcDbEntity
  8
HALFEN
100
AcDbText
 10
867.4869661051697
 20
136.3336438686081
 30
0.0
 40
3.149999999999999
  1

 41
1.179999999999999
  7
DREI
100
AcDbText
  0
INSERT
  5
C9F
330
1F
100
AcDbEntity
  8
HALFEN
100
AcDbBlockReference
  2
AME_NIL
 10
805.4869661051698
 20
69.33364386860808
 30
0.0
  0
INSERT
  5
CA0
330
1F
100
AcDbEntity
  8
HALFEN
100
AcDbBlockReference
  2
AME_SOL
 10
805.4869661051698
 20
69.33364386860808
 30
0.0
1001
AME_SOL
1000
R2.1_c2
1000
AME2
1000
sq mm
1070
     3
1070
     0
1070
     3
1000
wire
1040
45.0
1000
B
1040
2.0
1000
mm
1000
gm
1000
MILD_STEEL
1070
    25
1000
CSG
1070
     1
1070
     3
1070
     3
1070
     3
1070
     0
1000
cu mm
1070
     1
1070
     0
1005
C9F
  0
INSERT
  5
CA1
330
1F
100
AcDbEntity
  8
HALFEN
100
AcDbBlockReference
  2
AME_MAT
 10
805.4869661051698
 20
69.33364386860808
 30
0.0
1001
AME_SOL
1000
MILD_STEEL
1000
;Stahl
1040
7860.0
1040
220.0
1040
0.275
1040
600.0
1040
760.0
1040
56.0
1040
12.0
1040
0.4600000000000001
  0
TEXT
  5
CA6
330
1F
100
AcDbEntity
  8
HALFEN
100
AcDbText
 10
1123.543636628293
 20
166.5802426114767
 30
0.0
 40
3.149999999999999
  1

 41
1.179999999999999
  7
DREI
100
AcDbText
  0
INSERT
  5
CA7
330
1F
100
AcDbEntity
  8
HALFEN
100
AcDbBlockReference
  2
AME_NIL
 10
1061.543636628293
 20
99.5802426114767
 30
0.0
  0
INSERT
  5
CA8
330
1F
100
AcDbEntity
  8
HALFEN
100
AcDbBlockReference
  2
AME_SOL
 10
1061.543636628293
 20
99.5802426114767
 30
0.0
1001
AME_SOL
1000
R2.1_c2
1000
AME2
1000
sq mm
1070
     3
1070
     0
1070
     3
1000
wire
1040
45.0
1000
B
1040
2.0
1000
mm
1000
gm
1000
MILD_STEEL
1070
    25
1000
CSG
1070
     1
1070
     3
1070
     3
1070
     3
1070
     0
1000
cu mm
1070
     1
1070
     0
1005
CA7
  0
TEXT
  5
CA9
330
1F
100
AcDbEntity
  8
HALFEN
100
AcDbText
 10
872.284792937223
 20
175.6693673875085
 30
0.0
 40
3.149999999999999
  1

 41
1.179999999999999
  7
DREI
100
AcDbText
  0
INSERT
  5
CAA
330
1F
100
AcDbEntity
  8
HALFEN
100
AcDbBlockReference
  2
AME_NIL
 10
810.2847929372231
 20
108.6693673875085
 30
0.0
  0
INSERT
  5
CAB
330
1F
100
AcDbEntity
  8
HALFEN
100
AcDbBlockReference
  2
AME_SOL
 10
810.2847929372231
 20
108.6693673875085
 30
0.0
1001
AME_SOL
1000
R2.1_c2
1000
AME2
1000
sq mm
1070
     3
1070
     0
1070
     3
1000
wire
1040
45.0
1000
B
1040
2.0
1000
mm
1000
gm
1000
MILD_STEEL
1070
    25
1000
CSG
1070
     1
1070
     3
1070
     3
1070
     3
1070
     0
1000
cu mm
1070
     1
1070
     0
1005
CAA
  0
ARC
  5
2604
330
1F
100
AcDbEntity
  8
HALFEN
100
AcDbCircle
 10
323.8123468229539
 20
730.7666904628855
 30
0.0
 40
100.0
100
AcDbArc
 50
278.2606259825001
 51
284.9556477879981
  0
ARC
  5
2605
330
1F
100
AcDbEntity
  8
HALFEN
100
AcDbCircle
 10
323.8123468229539
 20
547.9063678556618
 30
0.0
 40
100.0
100
AcDbArc
 50
75.04435221200189
 51
81.73937401749993
  0
ARC
  5
2607
330
1F
100
AcDbEntity
  8
HALFEN
100
AcDbCircle
 10
346.2234572414138
 20
638.6234542726854
 30
0.0
 40
30.0
100
AcDbArc
 50
169.2797181183667
 51
178.6379990145343
  0
CIRCLE
  5
2608
330
1F
100
AcDbEntity
  8
HALFEN
100
AcDbCircle
 10
323.2319330352966
 20
639.3365291592735
 30
0.0
 40
2.549999999999999
  0
ARC
  5
260A
330
1F
100
AcDbEntity
  8
HALFEN
100
AcDbCircle
 10
329.6709714728245
 20
702.2462603880804
 30
0.0
 40
70.95410302401304
100
AcDbArc
 50
261.6287829750387
 51
276.8876280650299
  0
ARC
  5
260B
330
1F
100
AcDbEntity
  8
HALFEN
100
AcDbCircle
 10
346.2234572414138
 20
640.0496040458618
 30
0.0
 40
30.0
100
AcDbArc
 50
181.3620009854656
 51
190.7202818816331
  0
ARC
  5
260C
330
1F
100
AcDbEntity
  8
HALFEN
100
AcDbCircle
 10
319.6946879263028
 20
635.0272143133119
 30
0.0
 40
3.0
100
AcDbArc
 50
190.7202818816335
 51
263.2301665971257
  0
ARC
  5
260D
330
1F
100
AcDbEntity
  8
HALFEN
100
AcDbCircle
 10
329.6709714728245
 20
576.4267979304666
 30
0.0
 40
70.95410302401304
100
AcDbArc
 50
83.1123719349701
 51
98.3712170249613
  0
ARC
  5
260E
330
1F
100
AcDbEntity
  8
HALFEN
100
AcDbCircle
 10
319.6946879263028
 20
643.6458440052351
 30
0.0
 40
3.0
100
AcDbArc
 50
96.76983340287423
 51
169.2797181183664
  0
LINE
  5
2611
330
1F
100
AcDbEntity
  8
HALFEN
100
AcDbLine
 10
354.0217838377407
 20
635.3365291592738
 30
0.0
 11
431.2319330352964
 21
635.3365291592734
 31
0.0
  0
LINE
  5
2612
330
1F
100
AcDbEntity
  8
HALFEN
100
AcDbLine
 10
434.2319330352963
 20
635.3365291592734
 30
0.0
 11
446.7319330352966
 21
635.3365291592735
 31
0.0
  0
LINE
  5
2613
330
1F
100
AcDbEntity
  8
HALFEN
100
AcDbLine
 10
354.0217838377407
 20
643.3365291592736
 30
0.0
 11
431.2319330352964
 21
643.3365291592735
 31
0.0
  0
LINE
  5
2614
330
1F
100
AcDbEntity
  8
HALFEN
100
AcDbLine
 10
434.2319330352963
 20
643.3365291592735
 30
0.0
 11
446.7319330352966
 21
643.3365291592735
 31
0.0
  0
ELLIPSE
  5
2617
330
1F
100
AcDbEntity
  8
HALFEN
100
AcDbEllipse
 10
350.2319330352966
 20
639.3365291592735
 30
0.0
 11
0.0000000000004573
 21
4.896860310731993
 31
0.0
210
0.0
220
0.0
230
1.0
 40
0.40842496479158
 41
4.71238898038468
 42
5.461389796384565
  0
ARC
  5
261A
330
1F
100
AcDbEntity
  8
HALFEN
100
AcDbCircle
 10
354.0217838377407
 20
627.3365291592738
 30
0.0
 40
8.0
100
AcDbArc
 50
90.0
 51
117.796848016219
  0
ARC
  5
261B
330
1F
100
AcDbEntity
  8
HALFEN
100
AcDbCircle
 10
348.8920660948356
 20
637.0672020999355
 30
0.0
 40
3.0
100
AcDbArc
 50
286.4306186395895
 51
339.2069435540301
  0
LINE
  5
261C
330
1F
100
AcDbEntity
  8
HALFEN
100
AcDbLine
 10
349.6194720281892
 20
634.1541017974255
 30
0.0
 11
349.7406283052096
 21
634.189713233731
 31
0.0
  0
ELLIPSE
  5
261E
330
1F
100
AcDbEntity
  8
HALFEN
100
AcDbEllipse
 10
350.2319330352966
 20
639.3365291592735
 30
0.0
 11
-0.0000000000006981
 21
4.89686031073144
 31
0.0
210
0.0
220
0.0
230
-1.0
 40
0.4084249647916261
 41
1.570796326794908
 42
2.319797142798733
  0
ARC
  5
261F
330
1F
100
AcDbEntity
  8
HALFEN
100
AcDbCircle
 10
354.0217838377407
 20
651.3365291592735
 30
0.0
 40
8.0
100
AcDbArc
 50
242.2031519837809
 51
270.0
  0
ARC
  5
2620
330
1F
100
AcDbEntity
  8
HALFEN
100
AcDbCircle
 10
348.8920660948358
 20
641.6058562186123
 30
0.0
 40
3.0
100
AcDbArc
 50
20.79305644596773
 51
73.56938136039699
  0
LINE
  5
2621
330
1F
100
AcDbEntity
  8
HALFEN
100
AcDbLine
 10
349.6194720281883
 20
644.5189565211217
 30
0.0
 11
349.7406283052087
 21
644.4833450848161
 31
0.0
  0
LINE
  5
2622
330
1F
100
AcDbEntity
  8
HALFEN
100
AcDbLine
 10
446.7319330352966
 20
635.3365291592735
 30
0.0
 11
446.7319330352966
 21
643.3365291592735
 31
0.0
  0
LINE
  5
2623
330
1F
100
AcDbEntity
  8
HALFEN
100
AcDbLine
 10
448.2319330352965
 20
641.8365291592736
 30
0.0
 11
448.2319330352965
 21
636.8365291592736
 31
0.0
  0
LINE
  5
2624
330
1F
100
AcDbEntity
  8
HALFEN
100
AcDbLine
 10
446.7319330352966
 20
635.3365291592735
 30
0.0
 11
448.2319330352965
 21
636.8365291592736
 31
0.0
  0
LINE
  5
2625
330
1F
100
AcDbEntity
  8
HALFEN
100
AcDbLine
 10
446.7319330352966
 20
643.3365291592735
 30
0.0
 11
448.2319330352965
 21
641.8365291592736
 31
0.0
  0
LINE
  5
2626
330
1F
100
AcDbEntity
  8
HALFEN
100
AcDbLine
 10
516.3612798800079
 20
757.6486375971073
 30
0.0
 11
516.3612798800079
 21
726.6486375971074
 31
0.0
  0
LINE
  5
2627
330
1F
100
AcDbEntity
  8
HALFEN
100
AcDbLine
 10
525.3612798800079
 20
757.6486375971073
 30
0.0
 11
525.3612798800079
 21
726.6486375971074
 31
0.0
  0
LINE
  5
2628
330
1F
100
AcDbEntity
  8
HALFEN
100
AcDbLine
 10
503.3612798800079
 20
782.1486375971073
 30
0.0
 11
503.3612798800079
 21
702.1486375971074
 31
0.0
  0
LINE
  5
2629
330
1F
100
AcDbEntity
  8
HALFEN
100
AcDbLine
 10
538.3612798800079
 20
782.1486375971073
 30
0.0
 11
538.3612798800079
 21
702.1486375971074
 31
0.0
  0
LINE
  5
262A
330
1F
100
AcDbEntity
  8
HALFEN
100
AcDbLine
 10
538.3612798800079
 20
702.1486375971074
 30
0.0
 11
523.3612798800079
 21
702.1486375971074
 31
0.0
  0
LINE
  5
262B
330
1F
100
AcDbEntity
  8
HALFEN
100
AcDbLine
 10
518.3612798800076
 20
702.1486375971075
 30
0.0
 11
503.3612798800079
 21
702.1486375971075
 31
0.0
  0
ARC
  5
262C
330
1F
100
AcDbEntity
  8
HALFEN
100
AcDbCircle
 10
520.8612798800079
 20
726.6486375971074
 30
0.0
 40
4.5
100
AcDbArc
 50
180.0
 51
236.2510114041123
  0
ARC
  5
262E
330
1F
100
AcDbEntity
  8
HALFEN
100
AcDbCircle
 10
520.8612798800079
 20
726.6486375971074
 30
0.0
 40
4.5
100
AcDbArc
 50
303.7489885958889
 51
0.0
  0
LINE
  5
262F
330
1F
100
AcDbEntity
  8
HALFEN
100
AcDbLine
 10
538.3612798800079
 20
782.1486375971073
 30
0.0
 11
503.3612798800079
 21
782.1486375971073
 31
0.0
  0
ARC
  5
2630
330
1F
100
AcDbEntity
  8
HALFEN
100
AcDbCircle
 10
520.8612798800079
 20
757.6486375971073
 30
0.0
 40
4.5
100
AcDbArc
 50
0.0000000000008142
 51
179.9999999999992
  0
LWPOLYLINE
  5
2631
330
1F
100
AcDbEntity
  8
HALFEN
100
AcDbPolyline
 90
        4
 70
     1
 43
0.0
 10
514.3612798800079
 20
710.6486375971074
 10
527.3612798800079
 20
710.6486375971074
 10
527.3612798800079
 20
713.6486375971074
 10
514.3612798800079
 20
713.6486375971074
  0
ARC
  5
2632
330
1F
100
AcDbEntity
  8
HALFEN
100
AcDbCircle
 10
520.8612798800079
 20
712.1486375971073
 30
0.0
 40
4.0
100
AcDbArc
 50
202.024312837043
 51
231.3178125465038
  0
ARC
  5
2633
330
1F
100
AcDbEntity
  8
HALFEN
100
AcDbCircle
 10
520.8612798800079
 20
712.1486375971073
 30
0.0
 40
4.0
100
AcDbArc
 50
308.6821874534894
 51
337.9756871629569
  0
ARC
  5
2634
330
1F
100
AcDbEntity
  8
HALFEN
100
AcDbCircle
 10
520.8612798800079
 20
712.1486375971073
 30
0.0
 40
4.0
100
AcDbArc
 50
22.02431283704303
 51
51.31781254651056
  0
ARC
  5
2635
330
1F
100
AcDbEntity
  8
HALFEN
100
AcDbCircle
 10
520.8612798800079
 20
712.1486375971073
 30
0.0
 40
4.0
100
AcDbArc
 50
128.682187453491
 51
157.9756871629569
  0
LINE
  5
2636
330
1F
100
AcDbEntity
  8
HALFEN
100
AcDbLine
 10
518.3612798800076
 20
677.1486375971074
 30
0.0
 11
523.3612798800074
 21
677.1486375971074
 31
0.0
  0
LINE
  5
2637
330
1F
100
AcDbEntity
  8
HALFEN
100
AcDbLine
 10
518.3612798800079
 20
713.6486375971074
 30
0.0
 11
518.3612798800083
 21
747.1486375971074
 31
0.0
  0
LINE
  5
2638
330
1F
100
AcDbEntity
  8
HALFEN
100
AcDbLine
 10
523.3612798800079
 20
713.6486375971074
 30
0.0
 11
523.3612798800082
 21
747.1486375971074
 31
0.0
  0
LINE
  5
2639
330
1F
100
AcDbEntity
  8
HALFEN
100
AcDbLine
 10
518.3612798800076
 20
677.1486375971074
 30
0.0
 11
518.3612798800076
 21
710.6486375971074
 31
0.0
  0
LINE
  5
263A
330
1F
100
AcDbEntity
  8
HALFEN
100
AcDbLine
 10
523.3612798800077
 20
677.1486375971074
 30
0.0
 11
523.3612798800079
 21
710.6486375971074
 31
0.0
  0
LINE
  5
263B
330
1F
100
AcDbEntity
  8
HALFEN
100
AcDbLine
 10
518.3612798800083
 20
747.1486375971074
 30
0.0
 11
523.3612798800082
 21
747.1486375971074
 31
0.0
  0
LINE
  5
263E
330
1F
100
AcDbEntity
  8
HALFEN
100
AcDbLine
 10
431.2319330352964
 20
702.1486375971074
 30
0.0
 11
463.2319330352963
 21
702.1486375971074
 31
0.0
  0
LINE
  5
263F
330
1F
100
AcDbEntity
  8
HALFEN
100
AcDbLine
 10
431.2319330352964
 20
782.1486375971073
 30
0.0
 11
463.2319330352963
 21
782.1486375971073
 31
0.0
  0
LINE
  5
2640
330
1F
100
AcDbEntity
  8
HALFEN
100
AcDbLine
 10
431.2319330352964
 20
702.1486375971074
 30
0.0
 11
431.2319330352964
 21
782.1486375971073
 31
0.0
  0
LINE
  5
2642
330
1F
100
AcDbEntity
  8
HALFEN
100
AcDbLine
 10
463.2319330352963
 20
702.1486375971074
 30
0.0
 11
463.2319330352963
 21
782.1486375971073
 31
0.0
  0
CIRCLE
  5
2643
330
1F
100
AcDbEntity
  8
HALFEN
100
AcDbCircle
 10
445.2319330352963
 20
712.1486375971073
 30
0.0
 40
6.0
  0
LINE
  5
2644
330
1F
100
AcDbEntity
  8
HALFEN
100
AcDbLine
 10
316.2319330352966
 20
713.6486375971075
 30
0.0
 11
350.2319330352966
 21
713.6486375971075
 31
0.0
  0
LINE
  5
2645
330
1F
100
AcDbEntity
  8
HALFEN
100
AcDbLine
 10
350.2319330352966
 20
710.6486375971075
 30
0.0
 11
316.2319330352966
 21
710.6486375971075
 31
0.0
  0
LINE
  5
2646
330
1F
100
AcDbEntity
  8
HALFEN
100
AcDbLine
 10
316.2319330352966
 20
710.6486375971075
 30
0.0
 11
316.2319330352966
 21
713.6486375971075
 31
0.0
  0
LINE
  5
2647
330
1F
100
AcDbEntity
  8
HALFEN
100
AcDbLine
 10
352.2319330352966
 20
716.1486375971076
 30
0.0
 11
431.2319330352964
 21
716.1486375971074
 31
0.0
  0
LINE
  5
2648
330
1F
100
AcDbEntity
  8
HALFEN
100
AcDbLine
 10
440.7597970802969
 20
716.1486375971074
 30
0.0
 11
446.7319330352966
 21
716.1486375971074
 31
0.0
  0
LINE
  5
2649
330
1F
100
AcDbEntity
  8
HALFEN
100
AcDbLine
 10
352.2319330352966
 20
708.1486375971077
 30
0.0
 11
431.2319330352964
 21
708.1486375971073
 31
0.0
  0
LINE
  5
264A
330
1F
100
AcDbEntity
  8
HALFEN
100
AcDbLine
 10
440.7597970802966
 20
708.1486375971073
 30
0.0
 11
446.7319330352966
 21
708.1486375971074
 31
0.0
  0
ELLIPSE
  5
264F
330
1F
100
AcDbEntity
  8
HALFEN
100
AcDbEllipse
 10
350.2319330352966
 20
716.1486375971072
 30
0.0
 11
-0.000000000000059
 21
2.499999999999772
 31
0.0
210
0.0
220
0.0
230
-1.0
 40
0.8000000000000726
 41
1.570796326794915
 42
3.141592653589822
  0
LINE
  5
2650
330
1F
100
AcDbEntity
  8
HALFEN
100
AcDbLine
 10
352.2319330352966
 20
716.1486375971076
 30
0.0
 11
352.2319330352966
 21
708.1486375971077
 31
0.0
  0
ELLIPSE
  5
2651
330
1F
100
AcDbEntity
  8
HALFEN
100
AcDbEllipse
 10
350.2319330352966
 20
708.1486375971077
 30
0.0
 11
0.000000000000059
 21
2.499999999999772
 31
0.0
210
0.0
220
0.0
230
1.0
 40
0.8000000000000726
 41
-1.570796326794877
 42
0.0000000000000293
  0
LINE
  5
2653
330
1F
100
AcDbEntity
  8
HALFEN
100
AcDbLine
 10
446.7319330352966
 20
716.1486375971074
 30
0.0
 11
448.2319330352965
 21
714.6486375971075
 31
0.0
  0
LINE
  5
2654
330
1F
100
AcDbEntity
  8
HALFEN
100
AcDbLine
 10
446.7319330352966
 20
708.1486375971074
 30
0.0
 11
446.7319330352966
 21
716.1486375971074
 31
0.0
  0
LINE
  5
2655
330
1F
100
AcDbEntity
  8
HALFEN
100
AcDbLine
 10
446.7319330352966
 20
708.1486375971074
 30
0.0
 11
448.2319330352965
 21
709.6486375971075
 31
0.0
  0
LINE
  5
2656
330
1F
100
AcDbEntity
  8
HALFEN
100
AcDbLine
 10
448.2319330352965
 20
714.6486375971075
 30
0.0
 11
448.2319330352965
 21
709.6486375971075
 31
0.0
  0
LINE
  5
2658
330
1F
100
AcDbEntity
  8
HALFEN
100
AcDbLine
 10
320.7319330352966
 20
677.1486375971075
 30
0.0
 11
320.7319330352966
 21
710.6486375971075
 31
0.0
  0
LINE
  5
2659
330
1F
100
AcDbEntity
  8
HALFEN
100
AcDbLine
 10
320.7319330352966
 20
713.6486375971075
 30
0.0
 11
320.7319330352966
 21
747.1486375971075
 31
0.0
  0
LINE
  5
265A
330
1F
100
AcDbEntity
  8
HALFEN
100
AcDbLine
 10
325.7319330352966
 20
677.1486375971075
 30
0.0
 11
325.7319330352966
 21
710.6486375971075
 31
0.0
  0
LINE
  5
265B
330
1F
100
AcDbEntity
  8
HALFEN
100
AcDbLine
 10
325.7319330352966
 20
713.6486375971075
 30
0.0
 11
325.7319330352966
 21
747.1486375971075
 31
0.0
  0
LINE
  5
265C
330
1F
100
AcDbEntity
  8
HALFEN
100
AcDbLine
 10
325.7319330352966
 20
677.1486375971075
 30
0.0
 11
320.7319330352966
 21
677.1486375971075
 31
0.0
  0
LINE
  5
265D
330
1F
100
AcDbEntity
  8
HALFEN
100
AcDbLine
 10
325.7319330352966
 20
747.1486375971075
 30
0.0
 11
320.7319330352966
 21
747.1486375971075
 31
0.0
  0
LINE
  5
2660
330
1F
100
AcDbEntity
  8
HALFEN
100
AcDbLine
 10
499.0413274399432
 20
798.411769643023
 30
0.0
 11
666.2413410394458
 21
798.411769643023
 31
0.0
  0
LINE
  5
2661
330
1F
100
AcDbEntity
  8
HALFEN
100
AcDbLine
 10
499.0413274399432
 20
808.4117696430229
 30
0.0
 11
666.2413410394458
 21
808.4117696430229
 31
0.0
  0
LINE
  5
2662
330
1F
100
AcDbEntity
  8
HALFEN
100
AcDbLine
 10
499.0413274399432
 20
826.4117696430234
 30
0.0
 11
666.2413410394458
 21
826.4117696430234
 31
0.0
  0
TEXT
  5
2663
330
1F
100
AcDbEntity
  8
HALFEN
100
AcDbText
 10
546.9530533761042
 20
818.911769643023
 30
0.0
 40
5.0
  1
Halfen Body - Anker DH 1714 - 1 - A4
  7
ARIAL50
100
AcDbText
  0
TEXT
  5
2664
330
1F
100
AcDbEntity
  8
HALFEN
100
AcDbText
 10
504.0413274399432
 20
818.911769643023
 30
0.0
 40
5.0
  1
Benennung
  7
ARIAL50
100
AcDbText
  0
TEXT
  5
2665
330
1F
100
AcDbEntity
  8
HALFEN
100
AcDbText
 10
504.0413274399432
 20
800.911769643023
 30
0.0
 40
5.0
  1
Bestell-Nr.
  7
ARIAL50
100
AcDbText
  0
LINE
  5
2666
330
1F
100
AcDbEntity
  8
HALFEN
100
AcDbLine
 10
499.0413274399432
 20
798.411769643023
 30
0.0
 11
499.0413274399432
 21
826.4117696430234
 31
0.0
  0
LINE
  5
2667
330
1F
100
AcDbEntity
  8
HALFEN
100
AcDbLine
 10
544.0060137725583
 20
798.411769643023
 30
0.0
 11
544.0060137725583
 21
826.4117696430234
 31
0.0
  0
TEXT
  5
2668
330
1F
100
AcDbEntity
  8
HALFEN
100
AcDbText
 10
546.9530533761042
 20
800.911769643023
 30
0.0
 40
5.0
  1
0756.010 - 00005
  7
ARIAL50
100
AcDbText
  0
LINE
  5
2669
330
1F
100
AcDbEntity
  8
HALFEN
100
AcDbLine
 10
666.2413410394458
 20
798.411769643023
 30
0.0
 11
666.2413410394458
 21
826.4117696430234
 31
0.0
  0
ARC
  5
266B
330
1F
100
AcDbEntity
  8
HALFEN
100
AcDbCircle
 10
437.2319330352963
 20
627.8365291592735
 30
0.0
 40
6.0
100
AcDbArc
 50
180.0
 51
270.0
  0
ARC
  5
266C
330
1F
100
AcDbEntity
  8
HALFEN
100
AcDbCircle
 10
437.2319330352963
 20
650.8365291592736
 30
0.0
 40
6.0
100
AcDbArc
 50
90.0
 51
180.0
  0
LINE
  5
266D
330
1F
100
AcDbEntity
  8
HALFEN
100
AcDbLine
 10
431.2319330352964
 20
650.8365291592736
 30
0.0
 11
431.2319330352964
 21
627.8365291592735
 31
0.0
  0
LINE
  5
266E
330
1F
100
AcDbEntity
  8
HALFEN
100
AcDbLine
 10
437.2319330352963
 20
624.8365291592736
 30
0.0
 11
463.2319330352963
 21
624.8365291592736
 31
0.0
  0
LINE
  5
266F
330
1F
100
AcDbEntity
  8
HALFEN
100
AcDbLine
 10
437.2319330352963
 20
653.8365291592736
 30
0.0
 11
463.2319330352963
 21
653.8365291592736
 31
0.0
  0
LINE
  5
2670
330
1F
100
AcDbEntity
  8
HALFEN
100
AcDbLine
 10
437.2319330352963
 20
656.8365291592735
 30
0.0
 11
463.2319330352963
 21
656.8365291592735
 31
0.0
  0
LINE
  5
2671
330
1F
100
AcDbEntity
  8
HALFEN
100
AcDbLine
 10
437.2319330352963
 20
621.8365291592736
 30
0.0
 11
463.2319330352963
 21
621.8365291592736
 31
0.0
  0
LINE
  5
2672
330
1F
100
AcDbEntity
  8
HALFEN
100
AcDbLine
 10
434.2319330352963
 20
650.8365291592736
 30
0.0
 11
434.2319330352963
 21
627.8365291592735
 31
0.0
  0
ARC
  5
2673
330
1F
100
AcDbEntity
  8
HALFEN
100
AcDbCircle
 10
437.2319330352963
 20
627.8365291592735
 30
0.0
 40
3.0
100
AcDbArc
 50
180.0
 51
270.0
  0
ARC
  5
2674
330
1F
100
AcDbEntity
  8
HALFEN
100
AcDbCircle
 10
437.2319330352963
 20
650.8365291592736
 30
0.0
 40
3.0
100
AcDbArc
 50
90.0
 51
180.0
  0
LINE
  5
2675
330
1F
100
AcDbEntity
  8
HALFEN
100
AcDbLine
 10
463.2319330352963
 20
624.8365291592736
 30
0.0
 11
463.2319330352963
 21
621.8365291592736
 31
0.0
  0
LINE
  5
2676
330
1F
100
AcDbEntity
  8
HALFEN
100
AcDbLine
 10
463.2319330352963
 20
656.8365291592735
 30
0.0
 11
463.2319330352963
 21
653.8365291592736
 31
0.0
  0
ARC
  5
2CB4
330
1F
100
AcDbEntity
  8
HALFEN
100
AcDbCircle
 10
451.6924079823918
 20
359.0146255445429
 30
0.0
 40
100.0
100
AcDbArc
 50
278.2606259825001
 51
284.9556477879981
  0
ARC
  5
2CB5
330
1F
100
AcDbEntity
  8
HALFEN
100
AcDbCircle
 10
451.6924079823918
 20
176.1543029373192
 30
0.0
 40
100.0
100
AcDbArc
 50
75.04435221200189
 51
81.73937401749993
  0
ARC
  5
2CB7
330
1F
100
AcDbEntity
  8
HALFEN
100
AcDbCircle
 10
474.1035184008516
 20
266.8713893543429
 30
0.0
 40
30.0
100
AcDbArc
 50
169.2797181183667
 51
178.6379990145344
  0
CIRCLE
  5
2CB8
330
1F
100
AcDbEntity
  8
HALFEN
100
AcDbCircle
 10
451.1119941947344
 20
267.5844642409311
 30
0.0
 40
2.549999999999999
  0
ARC
  5
2CBA
330
1F
100
AcDbEntity
  8
HALFEN
100
AcDbCircle
 10
457.5510326322623
 20
330.4941954697379
 30
0.0
 40
70.95410302401304
100
AcDbArc
 50
261.6287829750387
 51
276.8876280650299
  0
ARC
  5
2CBB
330
1F
100
AcDbEntity
  8
HALFEN
100
AcDbCircle
 10
474.1035184008516
 20
268.2975391275193
 30
0.0
 40
30.0
100
AcDbArc
 50
181.3620009854656
 51
190.7202818816332
  0
ARC
  5
2CBC
330
1F
100
AcDbEntity
  8
HALFEN
100
AcDbCircle
 10
447.5747490857407
 20
263.2751493949695
 30
0.0
 40
3.0
100
AcDbArc
 50
190.7202818816336
 51
263.2301665971257
  0
ARC
  5
2CBD
330
1F
100
AcDbEntity
  8
HALFEN
100
AcDbCircle
 10
457.5510326322623
 20
204.6747330121243
 30
0.0
 40
70.95410302401304
100
AcDbArc
 50
83.1123719349701
 51
98.3712170249613
  0
ARC
  5
2CBE
330
1F
100
AcDbEntity
  8
HALFEN
100
AcDbCircle
 10
447.5747490857407
 20
271.8937790868927
 30
0.0
 40
3.0
100
AcDbArc
 50
96.76983340287423
 51
169.2797181183663
  0
LINE
  5
2CC1
330
1F
100
AcDbEntity
  8
HALFEN
100
AcDbLine
 10
481.9018449971785
 20
263.5844642409313
 30
0.0
 11
559.1119941947343
 21
263.5844642409311
 31
0.0
  0
LINE
  5
2CC2
330
1F
100
AcDbEntity
  8
HALFEN
100
AcDbLine
 10
562.1119941947342
 20
263.5844642409311
 30
0.0
 11
574.6119941947345
 21
263.5844642409311
 31
0.0
  0
LINE
  5
2CC3
330
1F
100
AcDbEntity
  8
HALFEN
100
AcDbLine
 10
481.9018449971785
 20
271.5844642409311
 30
0.0
 11
559.1119941947343
 21
271.5844642409311
 31
0.0
  0
LINE
  5
2CC4
330
1F
100
AcDbEntity
  8
HALFEN
100
AcDbLine
 10
562.1119941947342
 20
271.5844642409311
 30
0.0
 11
574.6119941947345
 21
271.5844642409311
 31
0.0
  0
ELLIPSE
  5
2CC7
330
1F
100
AcDbEntity
  8
HALFEN
100
AcDbEllipse
 10
478.1119941947345
 20
267.5844642409311
 30
0.0
 11
0.0000000000004573
 21
4.896860310731993
 31
0.0
210
0.0
220
0.0
230
1.0
 40
0.40842496479158
 41
4.71238898038468
 42
5.461389796384565
  0
ARC
  5
2CCA
330
1F
100
AcDbEntity
  8
HALFEN
100
AcDbCircle
 10
481.9018449971785
 20
255.5844642409313
 30
0.0
 40
8.0
100
AcDbArc
 50
90.0
 51
117.796848016219
  0
ARC
  5
2CCB
330
1F
100
AcDbEntity
  8
HALFEN
100
AcDbCircle
 10
476.7721272542735
 20
265.3151371815929
 30
0.0
 40
3.0
100
AcDbArc
 50
286.4306186395895
 51
339.2069435540304
  0
LINE
  5
2CCC
330
1F
100
AcDbEntity
  8
HALFEN
100
AcDbLine
 10
477.4995331876271
 20
262.402036879083
 30
0.0
 11
477.6206894646475
 21
262.4376483153885
 31
0.0
  0
ELLIPSE
  5
2CCE
330
1F
100
AcDbEntity
  8
HALFEN
100
AcDbEllipse
 10
478.1119941947345
 20
267.5844642409311
 30
0.0
 11
-0.0000000000006981
 21
4.89686031073144
 31
0.0
210
0.0
220
0.0
230
-1.0
 40
0.4084249647916261
 41
1.570796326794908
 42
2.319797142798733
  0
ARC
  5
2CCF
330
1F
100
AcDbEntity
  8
HALFEN
100
AcDbCircle
 10
481.9018449971785
 20
279.5844642409311
 30
0.0
 40
8.0
100
AcDbArc
 50
242.2031519837809
 51
270.0
  0
ARC
  5
2CD0
330
1F
100
AcDbEntity
  8
HALFEN
100
AcDbCircle
 10
476.7721272542737
 20
269.8537913002697
 30
0.0
 40
3.0
100
AcDbArc
 50
20.79305644596786
 51
73.56938136039699
  0
LINE
  5
2CD1
330
1F
100
AcDbEntity
  8
HALFEN
100
AcDbLine
 10
477.4995331876262
 20
272.7668916027792
 30
0.0
 11
477.6206894646466
 21
272.7312801664737
 31
0.0
  0
LINE
  5
2CD2
330
1F
100
AcDbEntity
  8
HALFEN
100
AcDbLine
 10
574.6119941947345
 20
263.5844642409311
 30
0.0
 11
574.6119941947345
 21
271.5844642409311
 31
0.0
  0
LINE
  5
2CD3
330
1F
100
AcDbEntity
  8
HALFEN
100
AcDbLine
 10
576.1119941947344
 20
270.0844642409311
 30
0.0
 11
576.1119941947344
 21
265.0844642409311
 31
0.0
  0
LINE
  5
2CD4
330
1F
100
AcDbEntity
  8
HALFEN
100
AcDbLine
 10
574.6119941947345
 20
263.5844642409311
 30
0.0
 11
576.1119941947344
 21
265.0844642409311
 31
0.0
  0
LINE
  5
2CD5
330
1F
100
AcDbEntity
  8
HALFEN
100
AcDbLine
 10
574.6119941947345
 20
271.5844642409311
 30
0.0
 11
576.1119941947344
 21
270.0844642409311
 31
0.0
  0
LINE
  5
2CD6
330
1F
100
AcDbEntity
  8
HALFEN
100
AcDbLine
 10
644.2413410394458
 20
385.8965726787649
 30
0.0
 11
644.2413410394458
 21
354.8965726787649
 31
0.0
  0
LINE
  5
2CD7
330
1F
100
AcDbEntity
  8
HALFEN
100
AcDbLine
 10
653.2413410394458
 20
385.8965726787649
 30
0.0
 11
653.2413410394458
 21
354.8965726787649
 31
0.0
  0
LINE
  5
2CD8
330
1F
100
AcDbEntity
  8
HALFEN
100
AcDbLine
 10
631.2413410394458
 20
410.3965726787648
 30
0.0
 11
631.2413410394458
 21
330.3965726787648
 31
0.0
  0
LINE
  5
2CD9
330
1F
100
AcDbEntity
  8
HALFEN
100
AcDbLine
 10
666.2413410394458
 20
410.3965726787648
 30
0.0
 11
666.2413410394458
 21
330.3965726787648
 31
0.0
  0
LINE
  5
2CDB
330
1F
100
AcDbEntity
  8
HALFEN
100
AcDbLine
 10
666.2413410394458
 20
330.3965726787648
 30
0.0
 11
631.2413410394458
 21
330.3965726787651
 31
0.0
  0
ARC
  5
2CDC
330
1F
100
AcDbEntity
  8
HALFEN
100
AcDbCircle
 10
648.7413410394458
 20
354.8965726787649
 30
0.0
 40
4.5
100
AcDbArc
 50
180.0
 51
236.2510114041123
  0
ARC
  5
2CDE
330
1F
100
AcDbEntity
  8
HALFEN
100
AcDbCircle
 10
648.7413410394458
 20
354.8965726787649
 30
0.0
 40
4.5
100
AcDbArc
 50
303.7489885958889
 51
0.0
  0
LINE
  5
2CDF
330
1F
100
AcDbEntity
  8
HALFEN
100
AcDbLine
 10
666.2413410394458
 20
410.3965726787648
 30
0.0
 11
631.2413410394458
 21
410.3965726787648
 31
0.0
  0
ARC
  5
2CE0
330
1F
100
AcDbEntity
  8
HALFEN
100
AcDbCircle
 10
648.7413410394458
 20
385.8965726787649
 30
0.0
 40
4.5
100
AcDbArc
 50
0.0000000000008142
 51
179.9999999999992
  0
LWPOLYLINE
  5
2CE1
330
1F
100
AcDbEntity
  8
HALFEN
100
AcDbPolyline
 90
        4
 70
     1
 43
0.0
 10
642.2413410394458
 20
338.8965726787649
 10
655.2413410394458
 20
338.8965726787649
 10
655.2413410394458
 20
341.8965726787649
 10
642.2413410394458
 20
341.8965726787649
  0
ARC
  5
2CE4
330
1F
100
AcDbEntity
  8
HALFEN
100
AcDbCircle
 10
648.7413410394458
 20
340.3965726787649
 30
0.0
 40
4.0
100
AcDbArc
 50
22.0243128370431
 51
51.31781254651056
  0
ARC
  5
2CE5
330
1F
100
AcDbEntity
  8
HALFEN
100
AcDbCircle
 10
648.7413410394458
 20
340.3965726787649
 30
0.0
 40
4.0
100
AcDbArc
 50
128.682187453491
 51
157.9756871629569
  0
LINE
  5
2CEE
330
1F
100
AcDbEntity
  8
HALFEN
100
AcDbLine
 10
559.1119941947343
 20
330.3965726787648
 30
0.0
 11
591.1119941947342
 21
330.3965726787648
 31
0.0
  0
LINE
  5
2CEF
330
1F
100
AcDbEntity
  8
HALFEN
100
AcDbLine
 10
559.1119941947343
 20
410.3965726787648
 30
0.0
 11
591.1119941947342
 21
410.3965726787648
 31
0.0
  0
LINE
  5
2CF0
330
1F
100
AcDbEntity
  8
HALFEN
100
AcDbLine
 10
559.1119941947343
 20
330.3965726787648
 30
0.0
 11
559.1119941947343
 21
410.3965726787648
 31
0.0
  0
LINE
  5
2CF2
330
1F
100
AcDbEntity
  8
HALFEN
100
AcDbLine
 10
591.1119941947342
 20
330.3965726787648
 30
0.0
 11
591.1119941947342
 21
410.3965726787648
 31
0.0
  0
CIRCLE
  5
2CF3
330
1F
100
AcDbEntity
  8
HALFEN
100
AcDbCircle
 10
573.1119941947342
 20
340.3965726787649
 30
0.0
 40
6.0
  0
LINE
  5
2CF4
330
1F
100
AcDbEntity
  8
HALFEN
100
AcDbLine
 10
444.1119941947345
 20
341.8965726787651
 30
0.0
 11
478.1119941947345
 21
341.8965726787651
 31
0.0
  0
LINE
  5
2CF5
330
1F
100
AcDbEntity
  8
HALFEN
100
AcDbLine
 10
478.1119941947345
 20
338.8965726787651
 30
0.0
 11
444.1119941947345
 21
338.8965726787651
 31
0.0
  0
LINE
  5
2CF6
330
1F
100
AcDbEntity
  8
HALFEN
100
AcDbLine
 10
444.1119941947345
 20
338.8965726787651
 30
0.0
 11
444.1119941947345
 21
341.8965726787651
 31
0.0
  0
LINE
  5
2CF7
330
1F
100
AcDbEntity
  8
HALFEN
100
AcDbLine
 10
480.1119941947344
 20
344.3965726787651
 30
0.0
 11
559.1119941947343
 21
344.3965726787651
 31
0.0
  0
LINE
  5
2CF8
330
1F
100
AcDbEntity
  8
HALFEN
100
AcDbLine
 10
568.6398582397348
 20
344.3965726787651
 30
0.0
 11
574.6119941947345
 21
344.3965726787651
 31
0.0
  0
LINE
  5
2CF9
330
1F
100
AcDbEntity
  8
HALFEN
100
AcDbLine
 10
480.1119941947344
 20
336.3965726787651
 30
0.0
 11
559.1119941947343
 21
336.3965726787649
 31
0.0
  0
LINE
  5
2CFA
330
1F
100
AcDbEntity
  8
HALFEN
100
AcDbLine
 10
568.6398582397345
 20
336.3965726787649
 30
0.0
 11
574.6119941947345
 21
336.3965726787651
 31
0.0
  0
ELLIPSE
  5
2CFF
330
1F
100
AcDbEntity
  8
HALFEN
100
AcDbEllipse
 10
478.1119941947345
 20
344.3965726787648
 30
0.0
 11
-0.000000000000059
 21
2.499999999999772
 31
0.0
210
0.0
220
0.0
230
-1.0
 40
0.8000000000000726
 41
1.570796326794915
 42
3.141592653589822
  0
LINE
  5
2D00
330
1F
100
AcDbEntity
  8
HALFEN
100
AcDbLine
 10
480.1119941947344
 20
344.3965726787651
 30
0.0
 11
480.1119941947344
 21
336.3965726787651
 31
0.0
  0
ELLIPSE
  5
2D01
330
1F
100
AcDbEntity
  8
HALFEN
100
AcDbEllipse
 10
478.1119941947345
 20
336.3965726787652
 30
0.0
 11
0.000000000000059
 21
2.499999999999772
 31
0.0
210
0.0
220
0.0
230
1.0
 40
0.8000000000000726
 41
-1.570796326794877
 42
0.0000000000000293
  0
LINE
  5
2D03
330
1F
100
AcDbEntity
  8
HALFEN
100
AcDbLine
 10
574.6119941947345
 20
344.3965726787651
 30
0.0
 11
576.1119941947344
 21
342.8965726787651
 31
0.0
  0
LINE
  5
2D04
330
1F
100
AcDbEntity
  8
HALFEN
100
AcDbLine
 10
574.6119941947345
 20
336.3965726787651
 30
0.0
 11
574.6119941947345
 21
344.3965726787651
 31
0.0
  0
LINE
  5
2D05
330
1F
100
AcDbEntity
  8
HALFEN
100
AcDbLine
 10
574.6119941947345
 20
336.3965726787651
 30
0.0
 11
576.1119941947344
 21
337.8965726787651
 31
0.0
  0
LINE
  5
2D06
330
1F
100
AcDbEntity
  8
HALFEN
100
AcDbLine
 10
576.1119941947344
 20
342.8965726787651
 30
0.0
 11
576.1119941947344
 21
337.8965726787651
 31
0.0
  0
LINE
  5
2D10
330
1F
100
AcDbEntity
  8
HALFEN
100
AcDbLine
 10
499.0413274399432
 20
426.6597047246805
 30
0.0
 11
666.2413410394458
 21
426.6597047246805
 31
0.0
  0
LINE
  5
2D11
330
1F
100
AcDbEntity
  8
HALFEN
100
AcDbLine
 10
499.0413274399432
 20
436.6597047246805
 30
0.0
 11
666.2413410394458
 21
436.6597047246805
 31
0.0
  0
LINE
  5
2D12
330
1F
100
AcDbEntity
  8
HALFEN
100
AcDbLine
 10
499.0413274399432
 20
454.659704724681
 30
0.0
 11
666.2413410394458
 21
454.659704724681
 31
0.0
  0
TEXT
  5
2D13
330
1F
100
AcDbEntity
  8
HALFEN
100
AcDbText
 10
546.9530533761042
 20
447.1597047246805
 30
0.0
 40
5.0
  1
Halfen Body - Anker DH 1714 - 2 - A4
  7
ARIAL50
100
AcDbText
  0
TEXT
  5
2D14
330
1F
100
AcDbEntity
  8
HALFEN
100
AcDbText
 10
504.0413274399432
 20
447.1597047246805
 30
0.0
 40
5.0
  1
Benennung
  7
ARIAL50
100
AcDbText
  0
TEXT
  5
2D15
330
1F
100
AcDbEntity
  8
HALFEN
100
AcDbText
 10
504.0413274399432
 20
429.1597047246805
 30
0.0
 40
5.0
  1
Bestell-Nr.
  7
ARIAL50
100
AcDbText
  0
LINE
  5
2D16
330
1F
100
AcDbEntity
  8
HALFEN
100
AcDbLine
 10
499.0413274399432
 20
426.6597047246805
 30
0.0
 11
499.0413274399432
 21
454.659704724681
 31
0.0
  0
LINE
  5
2D17
330
1F
100
AcDbEntity
  8
HALFEN
100
AcDbLine
 10
544.0060137725583
 20
426.6597047246805
 30
0.0
 11
544.0060137725583
 21
454.659704724681
 31
0.0
  0
TEXT
  5
2D18
330
1F
100
AcDbEntity
  8
HALFEN
100
AcDbText
 10
546.9530533761042
 20
429.1597047246805
 30
0.0
 40
5.0
  1
0756.020 - 00005
  7
ARIAL50
100
AcDbText
  0
LINE
  5
2D19
330
1F
100
AcDbEntity
  8
HALFEN
100
AcDbLine
 10
666.2413410394458
 20
426.6597047246805
 30
0.0
 11
666.2413410394458
 21
454.659704724681
 31
0.0
  0
ARC
  5
2D1B
330
1F
100
AcDbEntity
  8
HALFEN
100
AcDbCircle
 10
565.1119941947342
 20
256.0844642409311
 30
0.0
 40
6.0
100
AcDbArc
 50
180.0
 51
270.0
  0
ARC
  5
2D1C
330
1F
100
AcDbEntity
  8
HALFEN
100
AcDbCircle
 10
565.1119941947342
 20
279.0844642409311
 30
0.0
 40
6.0
100
AcDbArc
 50
90.0
 51
180.0
  0
LINE
  5
2D1D
330
1F
100
AcDbEntity
  8
HALFEN
100
AcDbLine
 10
559.1119941947343
 20
279.0844642409311
 30
0.0
 11
559.1119941947343
 21
256.0844642409311
 31
0.0
  0
LINE
  5
2D1E
330
1F
100
AcDbEntity
  8
HALFEN
100
AcDbLine
 10
565.1119941947342
 20
253.0844642409311
 30
0.0
 11
591.1119941947342
 21
253.0844642409311
 31
0.0
  0
LINE
  5
2D1F
330
1F
100
AcDbEntity
  8
HALFEN
100
AcDbLine
 10
565.1119941947342
 20
282.0844642409311
 30
0.0
 11
591.1119941947342
 21
282.0844642409311
 31
0.0
  0
LINE
  5
2D20
330
1F
100
AcDbEntity
  8
HALFEN
100
AcDbLine
 10
565.1119941947342
 20
285.0844642409311
 30
0.0
 11
591.1119941947342
 21
285.0844642409311
 31
0.0
  0
LINE
  5
2D21
330
1F
100
AcDbEntity
  8
HALFEN
100
AcDbLine
 10
565.1119941947342
 20
250.0844642409311
 30
0.0
 11
591.1119941947342
 21
250.0844642409311
 31
0.0
  0
LINE
  5
2D22
330
1F
100
AcDbEntity
  8
HALFEN
100
AcDbLine
 10
562.1119941947342
 20
279.0844642409311
 30
0.0
 11
562.1119941947342
 21
256.0844642409311
 31
0.0
  0
ARC
  5
2D23
330
1F
100
AcDbEntity
  8
HALFEN
100
AcDbCircle
 10
565.1119941947342
 20
256.0844642409311
 30
0.0
 40
3.0
100
AcDbArc
 50
180.0
 51
270.0
  0
ARC
  5
2D24
330
1F
100
AcDbEntity
  8
HALFEN
100
AcDbCircle
 10
565.1119941947342
 20
279.0844642409311
 30
0.0
 40
3.0
100
AcDbArc
 50
90.0
 51
180.0
  0
LINE
  5
2D25
330
1F
100
AcDbEntity
  8
HALFEN
100
AcDbLine
 10
591.1119941947342
 20
253.0844642409311
 30
0.0
 11
591.1119941947342
 21
250.0844642409311
 31
0.0
  0
LINE
  5
2D26
330
1F
100
AcDbEntity
  8
HALFEN
100
AcDbLine
 10
591.1119941947342
 20
285.0844642409311
 30
0.0
 11
591.1119941947342
 21
282.0844642409311
 31
0.0
  0
LINE
  5
2FF5
330
1F
100
AcDbEntity
  8
HALFEN
100
AcDbLine
 10
453.6119941947345
 20
341.896572678765
 30
0.0
 11
453.6119941947345
 21
373.8965726787651
 31
0.0
  0
LINE
  5
2FF6
330
1F
100
AcDbEntity
  8
HALFEN
100
AcDbLine
 10
448.6119941947345
 20
373.8965726787651
 30
0.0
 11
448.611994194734
 21
341.896572678765
 31
0.0
  0
LINE
  5
2FF7
330
1F
100
AcDbEntity
  8
HALFEN
100
AcDbLine
 10
447.6119941947344
 20
338.896572678765
 30
0.0
 11
447.6119941947344
 21
337.3965726787651
 31
0.0
  0
LINE
  5
2FF8
330
1F
100
AcDbEntity
  8
HALFEN
100
AcDbLine
 10
454.6119941947345
 20
337.3965726787651
 30
0.0
 11
454.6119941947345
 21
338.896572678765
 31
0.0
  0
LINE
  5
2FF9
330
1F
100
AcDbEntity
  8
HALFEN
100
AcDbLine
 10
454.6119941947345
 20
337.3965726787651
 30
0.0
 11
447.6119941947344
 21
337.3965726787651
 31
0.0
  0
LINE
  5
2FFA
330
1F
100
AcDbEntity
  8
HALFEN
100
AcDbLine
 10
453.6119941947345
 20
373.8965726787651
 30
0.0
 11
448.6119941947345
 21
373.8965726787651
 31
0.0
  0
ARC
  5
303E
330
1F
100
AcDbEntity
  8
HALFEN
100
AcDbCircle
 10
648.7413410394458
 20
340.3965726787649
 30
0.0
 40
4.0
100
AcDbArc
 50
202.024312837043
 51
208.9550243718599
  0
ARC
  5
303F
330
1F
100
AcDbEntity
  8
HALFEN
100
AcDbCircle
 10
648.7413410394458
 20
340.3965726787649
 30
0.0
 40
4.0
100
AcDbArc
 50
228.5903778907311
 51
311.4096221092689
  0
ARC
  5
3040
330
1F
100
AcDbEntity
  8
HALFEN
100
AcDbCircle
 10
648.7413410394458
 20
340.3965726787649
 30
0.0
 40
4.0
100
AcDbArc
 50
331.04497562814
 51
337.9756871629568
  0
LINE
  5
3041
330
1F
100
AcDbEntity
  8
HALFEN
100
AcDbLine
 10
651.2413410394458
 20
341.8965726787647
 30
0.0
 11
651.2413410394458
 21
373.8965726787648
 31
0.0
  0
LINE
  5
3042
330
1F
100
AcDbEntity
  8
HALFEN
100
AcDbLine
 10
646.2413410394458
 20
373.8965726787648
 30
0.0
 11
646.2413410394454
 21
341.8965726787647
 31
0.0
  0
LINE
  5
3043
330
1F
100
AcDbEntity
  8
HALFEN
100
AcDbLine
 10
645.2413410394458
 20
338.8965726787648
 30
0.0
 11
645.2413410394458
 21
337.3965726787647
 31
0.0
  0
LINE
  5
3044
330
1F
100
AcDbEntity
  8
HALFEN
100
AcDbLine
 10
652.2413410394458
 20
337.3965726787647
 30
0.0
 11
652.2413410394458
 21
338.8965726787648
 31
0.0
  0
LINE
  5
3045
330
1F
100
AcDbEntity
  8
HALFEN
100
AcDbLine
 10
652.2413410394458
 20
337.3965726787647
 30
0.0
 11
645.2413410394458
 21
337.3965726787647
 31
0.0
  0
LINE
  5
3046
330
1F
100
AcDbEntity
  8
HALFEN
100
AcDbLine
 10
651.2413410394458
 20
373.8965726787648
 30
0.0
 11
646.2413410394458
 21
373.8965726787648
 31
0.0
  0
ARC
  5
3415
330
1F
100
AcDbEntity
  8
HALFEN
100
AcDbCircle
 10
601.9844430596699
 20
803.5787989007195
 30
0.0
 40
100.0
100
AcDbArc
 50
278.2606259825001
 51
284.9556477879981
  0
ARC
  5
3416
330
1F
100
AcDbEntity
  8
HALFEN
100
AcDbCircle
 10
601.9844430596699
 20
620.7184762934956
 30
0.0
 40
100.0
100
AcDbArc
 50
75.04435221200189
 51
81.73937401749993
  0
ARC
  5
3418
330
1F
100
AcDbEntity
  8
HALFEN
100
AcDbCircle
 10
624.3955534781298
 20
711.4355627105193
 30
0.0
 40
30.0
100
AcDbArc
 50
169.2797181183669
 51
178.637999014534
  0
CIRCLE
  5
3419
330
1F
100
AcDbEntity
  8
HALFEN
100
AcDbCircle
 10
601.4040292720125
 20
712.1486375971074
 30
0.0
 40
2.549999999999999
  0
ARC
  5
341B
330
1F
100
AcDbEntity
  8
HALFEN
100
AcDbCircle
 10
607.8430677095404
 20
775.0583688259143
 30
0.0
 40
70.95410302401304
100
AcDbArc
 50
261.6287829750387
 51
276.8876280650299
  0
ARC
  5
341C
330
1F
100
AcDbEntity
  8
HALFEN
100
AcDbCircle
 10
624.3955534781298
 20
712.8617124836956
 30
0.0
 40
30.0
100
AcDbArc
 50
181.3620009854659
 51
190.7202818816331
  0
ARC
  5
341D
330
1F
100
AcDbEntity
  8
HALFEN
100
AcDbCircle
 10
597.8667841630188
 20
707.8393227511459
 30
0.0
 40
3.0
100
AcDbArc
 50
190.7202818816338
 51
263.2301665971257
  0
ARC
  5
341E
330
1F
100
AcDbEntity
  8
HALFEN
100
AcDbCircle
 10
607.8430677095404
 20
649.2389063683006
 30
0.0
 40
70.95410302401304
100
AcDbArc
 50
83.1123719349701
 51
98.3712170249613
  0
ARC
  5
341F
330
1F
100
AcDbEntity
  8
HALFEN
100
AcDbCircle
 10
597.8667841630188
 20
716.4579524430689
 30
0.0
 40
3.0
100
AcDbArc
 50
96.76983340287423
 51
169.2797181183661
  0
LINE
  5
3422
330
1F
100
AcDbEntity
  8
HALFEN
100
AcDbLine
 10
632.1938800744567
 20
708.1486375971077
 30
0.0
 11
709.4040292720124
 21
708.1486375971073
 31
0.0
  0
LINE
  5
3423
330
1F
100
AcDbEntity
  8
HALFEN
100
AcDbLine
 10
712.4040292720126
 20
635.3365291592734
 30
0.0
 11
724.9040292720128
 21
635.3365291592735
 31
0.0
  0
LINE
  5
3424
330
1F
100
AcDbEntity
  8
HALFEN
100
AcDbLine
 10
632.1938800744567
 20
716.1486375971076
 30
0.0
 11
709.4040292720124
 21
716.1486375971074
 31
0.0
  0
LINE
  5
3425
330
1F
100
AcDbEntity
  8
HALFEN
100
AcDbLine
 10
712.4040292720126
 20
643.3365291592735
 30
0.0
 11
724.9040292720128
 21
643.3365291592735
 31
0.0
  0
ELLIPSE
  5
3428
330
1F
100
AcDbEntity
  8
HALFEN
100
AcDbEllipse
 10
628.4040292720126
 20
712.1486375971074
 30
0.0
 11
0.0000000000004573
 21
4.896860310731993
 31
0.0
210
0.0
220
0.0
230
1.0
 40
0.40842496479158
 41
4.71238898038468
 42
5.461389796384565
  0
ARC
  5
342B
330
1F
100
AcDbEntity
  8
HALFEN
100
AcDbCircle
 10
632.1938800744567
 20
700.1486375971077
 30
0.0
 40
8.0
100
AcDbArc
 50
90.0
 51
117.796848016219
  0
ARC
  5
342C
330
1F
100
AcDbEntity
  8
HALFEN
100
AcDbCircle
 10
627.0641623315516
 20
709.8793105377693
 30
0.0
 40
3.0
100
AcDbArc
 50
286.4306186395895
 51
339.2069435540299
  0
LINE
  5
342D
330
1F
100
AcDbEntity
  8
HALFEN
100
AcDbLine
 10
627.7915682649052
 20
706.9662102352594
 30
0.0
 11
627.9127245419256
 21
707.0018216715649
 31
0.0
  0
ELLIPSE
  5
342F
330
1F
100
AcDbEntity
  8
HALFEN
100
AcDbEllipse
 10
628.4040292720126
 20
712.1486375971074
 30
0.0
 11
-0.0000000000006981
 21
4.89686031073144
 31
0.0
210
0.0
220
0.0
230
-1.0
 40
0.4084249647916261
 41
1.570796326794908
 42
2.319797142798733
  0
ARC
  5
3430
330
1F
100
AcDbEntity
  8
HALFEN
100
AcDbCircle
 10
632.1938800744567
 20
724.1486375971073
 30
0.0
 40
8.0
100
AcDbArc
 50
242.2031519837809
 51
270.0
  0
ARC
  5
3431
330
1F
100
AcDbEntity
  8
HALFEN
100
AcDbCircle
 10
627.0641623315518
 20
714.4179646564461
 30
0.0
 40
3.0
100
AcDbArc
 50
20.79305644596852
 51
73.56938136039699
  0
LINE
  5
3432
330
1F
100
AcDbEntity
  8
HALFEN
100
AcDbLine
 10
627.7915682649043
 20
717.3310649589556
 30
0.0
 11
627.9127245419247
 21
717.2954535226501
 31
0.0
  0
LINE
  5
3433
330
1F
100
AcDbEntity
  8
HALFEN
100
AcDbLine
 10
724.9040292720128
 20
635.3365291592735
 30
0.0
 11
724.9040292720128
 21
643.3365291592735
 31
0.0
  0
LINE
  5
3434
330
1F
100
AcDbEntity
  8
HALFEN
100
AcDbLine
 10
726.4040292720128
 20
641.8365291592736
 30
0.0
 11
726.4040292720128
 21
636.8365291592736
 31
0.0
  0
LINE
  5
3435
330
1F
100
AcDbEntity
  8
HALFEN
100
AcDbLine
 10
724.9040292720128
 20
635.3365291592735
 30
0.0
 11
726.4040292720128
 21
636.8365291592736
 31
0.0
  0
LINE
  5
3436
330
1F
100
AcDbEntity
  8
HALFEN
100
AcDbLine
 10
724.9040292720128
 20
643.3365291592735
 30
0.0
 11
726.4040292720128
 21
641.8365291592736
 31
0.0
  0
LINE
  5
3437
330
1F
100
AcDbEntity
  8
HALFEN
100
AcDbLine
 10
794.5333761167241
 20
757.6486375971073
 30
0.0
 11
794.5333761167241
 21
726.6486375971074
 31
0.0
  0
LINE
  5
3438
330
1F
100
AcDbEntity
  8
HALFEN
100
AcDbLine
 10
803.5333761167242
 20
757.6486375971073
 30
0.0
 11
803.5333761167242
 21
726.6486375971074
 31
0.0
  0
LINE
  5
3439
330
1F
100
AcDbEntity
  8
HALFEN
100
AcDbLine
 10
781.5333761167241
 20
782.1486375971073
 30
0.0
 11
781.5333761167241
 21
714.6486375971074
 31
0.0
  0
LINE
  5
343A
330
1F
100
AcDbEntity
  8
HALFEN
100
AcDbLine
 10
816.5333761167241
 20
782.1486375971073
 30
0.0
 11
816.5333761167241
 21
714.6486375971074
 31
0.0
  0
LINE
  5
343C
330
1F
100
AcDbEntity
  8
HALFEN
100
AcDbLine
 10
816.5333761167241
 20
702.1486375971074
 30
0.0
 11
781.5333761167241
 21
702.1486375971075
 31
0.0
  0
ARC
  5
343F
330
1F
100
AcDbEntity
  8
HALFEN
100
AcDbCircle
 10
799.0333761167241
 20
726.6486375971074
 30
0.0
 40
4.5
100
AcDbArc
 50
180.0
 51
0.0
  0
LINE
  5
3440
330
1F
100
AcDbEntity
  8
HALFEN
100
AcDbLine
 10
816.5333761167241
 20
782.1486375971073
 30
0.0
 11
781.5333761167241
 21
782.1486375971073
 31
0.0
  0
ARC
  5
3441
330
1F
100
AcDbEntity
  8
HALFEN
100
AcDbCircle
 10
799.0333761167241
 20
757.6486375971073
 30
0.0
 40
4.5
100
AcDbArc
 50
0.0000000000008142
 51
179.9999999999992
  0
LWPOLYLINE
  5
3442
330
1F
100
AcDbEntity
  8
HALFEN
100
AcDbPolyline
 90
        4
 70
     1
 43
0.0
 10
800.5333761167241
 20
705.6486375971074
 10
800.5333761167241
 20
718.6486375971074
 10
797.5333761167242
 20
718.6486375971074
 10
797.5333761167242
 20
705.6486375971074
  0
ARC
  5
3443
330
1F
100
AcDbEntity
  8
HALFEN
100
AcDbCircle
 10
799.0333761167241
 20
712.1486375971073
 30
0.0
 40
4.0
100
AcDbArc
 50
292.0243128370424
 51
321.3178125465026
  0
ARC
  5
3444
330
1F
100
AcDbEntity
  8
HALFEN
100
AcDbCircle
 10
799.0333761167241
 20
712.1486375971073
 30
0.0
 40
4.0
100
AcDbArc
 50
38.68218745349307
 51
67.97568716295784
  0
ARC
  5
3445
330
1F
100
AcDbEntity
  8
HALFEN
100
AcDbCircle
 10
799.0333761167241
 20
712.1486375971073
 30
0.0
 40
4.0
100
AcDbArc
 50
112.0243128370421
 51
141.3178125465069
  0
ARC
  5
3446
330
1F
100
AcDbEntity
  8
HALFEN
100
AcDbCircle
 10
799.0333761167241
 20
712.1486375971073
 30
0.0
 40
4.0
100
AcDbArc
 50
218.6821874534943
 51
247.9756871629576
  0
LINE
  5
3447
330
1F
100
AcDbEntity
  8
HALFEN
100
AcDbLine
 10
834.0333761167242
 20
709.6486375971071
 30
0.0
 11
834.0333761167242
 21
714.6486375971069
 31
0.0
  0
LINE
  5
3448
330
1F
100
AcDbEntity
  8
HALFEN
100
AcDbLine
 10
797.5333761167242
 20
709.6486375971074
 30
0.0
 11
764.0333761167242
 21
709.6486375971078
 31
0.0
  0
LINE
  5
3449
330
1F
100
AcDbEntity
  8
HALFEN
100
AcDbLine
 10
797.5333761167242
 20
714.6486375971074
 30
0.0
 11
764.0333761167242
 21
714.6486375971075
 31
0.0
  0
LINE
  5
344A
330
1F
100
AcDbEntity
  8
HALFEN
100
AcDbLine
 10
834.0333761167242
 20
709.6486375971071
 30
0.0
 11
800.5333761167241
 21
709.6486375971071
 31
0.0
  0
LINE
  5
344B
330
1F
100
AcDbEntity
  8
HALFEN
100
AcDbLine
 10
834.0333761167242
 20
714.6486375971071
 30
0.0
 11
800.5333761167241
 21
714.6486375971074
 31
0.0
  0
LINE
  5
344C
330
1F
100
AcDbEntity
  8
HALFEN
100
AcDbLine
 10
764.0333761167242
 20
709.6486375971078
 30
0.0
 11
764.0333761167242
 21
714.6486375971075
 31
0.0
  0
LINE
  5
344F
330
1F
100
AcDbEntity
  8
HALFEN
100
AcDbLine
 10
709.4040292720126
 20
702.1486375971074
 30
0.0
 11
741.4040292720126
 21
702.1486375971074
 31
0.0
  0
LINE
  5
3450
330
1F
100
AcDbEntity
  8
HALFEN
100
AcDbLine
 10
709.4040292720126
 20
782.1486375971073
 30
0.0
 11
741.4040292720126
 21
782.1486375971073
 31
0.0
  0
LINE
  5
3451
330
1F
100
AcDbEntity
  8
HALFEN
100
AcDbLine
 10
709.4040292720126
 20
702.1486375971074
 30
0.0
 11
709.4040292720126
 21
782.1486375971073
 31
0.0
  0
LINE
  5
3453
330
1F
100
AcDbEntity
  8
HALFEN
100
AcDbLine
 10
741.4040292720126
 20
702.1486375971074
 30
0.0
 11
741.4040292720126
 21
782.1486375971073
 31
0.0
  0
CIRCLE
  5
3454
330
1F
100
AcDbEntity
  8
HALFEN
100
AcDbCircle
 10
723.4040292720126
 20
712.1486375971073
 30
0.0
 40
6.0
  0
LINE
  5
3459
330
1F
100
AcDbEntity
  8
HALFEN
100
AcDbLine
 10
718.9318933170132
 20
716.1486375971074
 30
0.0
 11
724.9040292720128
 21
716.1486375971074
 31
0.0
  0
LINE
  5
345B
330
1F
100
AcDbEntity
  8
HALFEN
100
AcDbLine
 10
718.9318933170129
 20
708.1486375971073
 30
0.0
 11
724.9040292720128
 21
708.1486375971074
 31
0.0
  0
LINE
  5
3464
330
1F
100
AcDbEntity
  8
HALFEN
100
AcDbLine
 10
724.9040292720128
 20
716.1486375971074
 30
0.0
 11
726.4040292720128
 21
714.6486375971075
 31
0.0
  0
LINE
  5
3465
330
1F
100
AcDbEntity
  8
HALFEN
100
AcDbLine
 10
724.9040292720128
 20
708.1486375971074
 30
0.0
 11
724.9040292720128
 21
716.1486375971074
 31
0.0
  0
LINE
  5
3466
330
1F
100
AcDbEntity
  8
HALFEN
100
AcDbLine
 10
724.9040292720128
 20
708.1486375971074
 30
0.0
 11
726.4040292720128
 21
709.6486375971075
 31
0.0
  0
LINE
  5
3467
330
1F
100
AcDbEntity
  8
HALFEN
100
AcDbLine
 10
726.4040292720128
 20
714.6486375971075
 30
0.0
 11
726.4040292720128
 21
709.6486375971075
 31
0.0
  0
ARC
  5
3472
330
1F
100
AcDbEntity
  8
HALFEN
100
AcDbCircle
 10
715.4040292720126
 20
627.8365291592735
 30
0.0
 40
6.0
100
AcDbArc
 50
180.0
 51
270.0
  0
ARC
  5
3473
330
1F
100
AcDbEntity
  8
HALFEN
100
AcDbCircle
 10
715.4040292720126
 20
650.8365291592736
 30
0.0
 40
6.0
100
AcDbArc
 50
90.0
 51
180.0
  0
LINE
  5
3474
330
1F
100
AcDbEntity
  8
HALFEN
100
AcDbLine
 10
709.4040292720126
 20
650.8365291592736
 30
0.0
 11
709.4040292720126
 21
627.8365291592735
 31
0.0
  0
LINE
  5
3475
330
1F
100
AcDbEntity
  8
HALFEN
100
AcDbLine
 10
715.4040292720126
 20
624.8365291592736
 30
0.0
 11
741.4040292720126
 21
624.8365291592736
 31
0.0
  0
LINE
  5
3476
330
1F
100
AcDbEntity
  8
HALFEN
100
AcDbLine
 10
715.4040292720126
 20
653.8365291592736
 30
0.0
 11
741.4040292720126
 21
653.8365291592736
 31
0.0
  0
LINE
  5
3477
330
1F
100
AcDbEntity
  8
HALFEN
100
AcDbLine
 10
715.4040292720126
 20
656.8365291592735
 30
0.0
 11
741.4040292720126
 21
656.8365291592735
 31
0.0
  0
LINE
  5
3478
330
1F
100
AcDbEntity
  8
HALFEN
100
AcDbLine
 10
715.4040292720126
 20
621.8365291592736
 30
0.0
 11
741.4040292720126
 21
621.8365291592736
 31
0.0
  0
LINE
  5
3479
330
1F
100
AcDbEntity
  8
HALFEN
100
AcDbLine
 10
712.4040292720126
 20
650.8365291592736
 30
0.0
 11
712.4040292720126
 21
627.8365291592735
 31
0.0
  0
ARC
  5
347A
330
1F
100
AcDbEntity
  8
HALFEN
100
AcDbCircle
 10
715.4040292720126
 20
627.8365291592735
 30
0.0
 40
3.0
100
AcDbArc
 50
180.0
 51
270.0
  0
ARC
  5
347B
330
1F
100
AcDbEntity
  8
HALFEN
100
AcDbCircle
 10
715.4040292720126
 20
650.8365291592736
 30
0.0
 40
3.0
100
AcDbArc
 50
90.0
 51
180.0
  0
LINE
  5
347C
330
1F
100
AcDbEntity
  8
HALFEN
100
AcDbLine
 10
741.4040292720126
 20
624.8365291592736
 30
0.0
 11
741.4040292720126
 21
621.8365291592736
 31
0.0
  0
LINE
  5
347D
330
1F
100
AcDbEntity
  8
HALFEN
100
AcDbLine
 10
741.4040292720126
 20
656.8365291592735
 30
0.0
 11
741.4040292720126
 21
653.8365291592736
 31
0.0
  0
LINE
  5
3487
330
1F
100
AcDbEntity
  8
HALFEN
100
AcDbLine
 10
594.4040292720131
 20
640.8365291592736
 30
0.0
 11
628.404029272013
 21
640.8365291592736
 31
0.0
  0
LINE
  5
3488
330
1F
100
AcDbEntity
  8
HALFEN
100
AcDbLine
 10
628.404029272013
 20
637.8365291592736
 30
0.0
 11
594.4040292720131
 21
637.8365291592736
 31
0.0
  0
LINE
  5
3489
330
1F
100
AcDbEntity
  8
HALFEN
100
AcDbLine
 10
594.4040292720131
 20
637.8365291592736
 30
0.0
 11
594.4040292720131
 21
640.8365291592736
 31
0.0
  0
LINE
  5
348A
330
1F
100
AcDbEntity
  8
HALFEN
100
AcDbLine
 10
630.4040292720131
 20
643.3365291592736
 30
0.0
 11
709.4040292720128
 21
643.3365291592735
 31
0.0
  0
LINE
  5
348B
330
1F
100
AcDbEntity
  8
HALFEN
100
AcDbLine
 10
630.4040292720131
 20
635.3365291592738
 30
0.0
 11
709.4040292720128
 21
635.3365291592734
 31
0.0
  0
ELLIPSE
  5
348E
330
1F
100
AcDbEntity
  8
HALFEN
100
AcDbEllipse
 10
628.404029272013
 20
643.3365291592734
 30
0.0
 11
-0.000000000000059
 21
2.499999999999772
 31
0.0
210
0.0
220
0.0
230
-1.0
 40
0.8000000000000726
 41
1.570796326794915
 42
3.141592653589822
  0
LINE
  5
348F
330
1F
100
AcDbEntity
  8
HALFEN
100
AcDbLine
 10
630.4040292720131
 20
643.3365291592736
 30
0.0
 11
630.4040292720131
 21
635.3365291592738
 31
0.0
  0
ELLIPSE
  5
3490
330
1F
100
AcDbEntity
  8
HALFEN
100
AcDbEllipse
 10
628.404029272013
 20
635.3365291592738
 30
0.0
 11
0.000000000000059
 21
2.499999999999772
 31
0.0
210
0.0
220
0.0
230
1.0
 40
0.8000000000000726
 41
-1.570796326794877
 42
0.0000000000000293
  0
LINE
  5
3492
330
1F
100
AcDbEntity
  8
HALFEN
100
AcDbLine
 10
598.904029272013
 20
604.3365291592736
 30
0.0
 11
598.904029272013
 21
637.8365291592736
 31
0.0
  0
LINE
  5
3493
330
1F
100
AcDbEntity
  8
HALFEN
100
AcDbLine
 10
598.904029272013
 20
640.8365291592736
 30
0.0
 11
598.904029272013
 21
674.3365291592736
 31
0.0
  0
LINE
  5
3494
330
1F
100
AcDbEntity
  8
HALFEN
100
AcDbLine
 10
603.904029272013
 20
604.3365291592736
 30
0.0
 11
603.904029272013
 21
637.8365291592736
 31
0.0
  0
LINE
  5
3495
330
1F
100
AcDbEntity
  8
HALFEN
100
AcDbLine
 10
603.904029272013
 20
640.8365291592736
 30
0.0
 11
603.904029272013
 21
674.3365291592736
 31
0.0
  0
LINE
  5
3496
330
1F
100
AcDbEntity
  8
HALFEN
100
AcDbLine
 10
603.904029272013
 20
604.3365291592736
 30
0.0
 11
598.904029272013
 21
604.3365291592736
 31
0.0
  0
LINE
  5
3497
330
1F
100
AcDbEntity
  8
HALFEN
100
AcDbLine
 10
603.904029272013
 20
674.3365291592736
 30
0.0
 11
598.904029272013
 21
674.3365291592736
 31
0.0
  0
LINE
  5
3529
330
1F
100
AcDbEntity
  8
HALFEN
100
AcDbLine
 10
781.5333761167241
 20
709.6486375971076
 30
0.0
 11
781.5333761167241
 21
702.1486375971074
 31
0.0
  0
LINE
  5
352A
330
1F
100
AcDbEntity
  8
HALFEN
100
AcDbLine
 10
816.5333761167241
 20
709.6486375971071
 30
0.0
 11
816.5333761167241
 21
702.1486375971074
 31
0.0
  0
LINE
  5
3807
330
1F
100
AcDbEntity
  8
HALFEN
  6
STRICHPUNKT2
 62
     1
 48
0.5
100
AcDbLine
 10
520.8612798800079
 20
719.3986375971073
 30
0.0
 11
520.8612798800079
 21
764.8986375971073
 31
0.0
  0
LINE
  5
3808
330
1F
100
AcDbEntity
  8
HALFEN
  6
STRICHPUNKT2
 62
     1
 48
0.5
100
AcDbLine
 10
513.6112798800079
 20
742.1486375971073
 30
0.0
 11
528.1112798800079
 21
742.1486375971073
 31
0.0
  0
LINE
  5
3809
330
1F
100
AcDbEntity
  8
HALFEN
  6
STRICHPUNKT2
 62
     1
 48
0.5
100
AcDbLine
 10
799.0333761167241
 20
719.3986375971073
 30
0.0
 11
799.0333761167241
 21
764.8986375971073
 31
0.0
  0
LINE
  5
380A
330
1F
100
AcDbEntity
  8
HALFEN
  6
STRICHPUNKT2
 62
     1
 48
0.5
100
AcDbLine
 10
791.7833761167242
 20
742.1486375971073
 30
0.0
 11
806.2833761167242
 21
742.1486375971073
 31
0.0
  0
LINE
  5
382B
330
1F
100
AcDbEntity
  8
HALFEN
  6
STRICHPUNKT2
 62
     1
 48
0.5
100
AcDbLine
 10
734.1540292720128
 20
742.1486375971073
 30
0.0
 11
748.6540292720128
 21
742.1486375971073
 31
0.0
  0
LINE
  5
382C
330
1F
100
AcDbEntity
  8
HALFEN
  6
STRICHPUNKT2
 62
     1
 48
0.5
100
AcDbLine
 10
455.9819330352966
 20
742.1486375971073
 30
0.0
 11
470.4819330352965
 21
742.1486375971073
 31
0.0
  0
LINE
  5
3845
330
1F
100
AcDbEntity
  8
HALFEN
  6
STRICHPUNKT2
 62
     1
 48
0.5
100
AcDbLine
 10
734.1540292720126
 20
639.3365291592735
 30
0.0
 11
748.6540292720126
 21
639.3365291592735
 31
0.0
  0
LINE
  5
385B
330
1F
100
AcDbEntity
  8
HALFEN
  6
STRICHPUNKT2
 62
     1
 48
0.5
100
AcDbLine
 10
648.7413410394456
 20
347.6465726787649
 30
0.0
 11
648.7413410394456
 21
393.1465726787649
 31
0.0
  0
LINE
  5
385C
330
1F
100
AcDbEntity
  8
HALFEN
  6
STRICHPUNKT2
 62
     1
 48
0.5
100
AcDbLine
 10
641.4913410394456
 20
370.3965726787649
 30
0.0
 11
655.9913410394456
 21
370.3965726787649
 31
0.0
  0
LINE
  5
386F
330
1F
100
AcDbEntity
  8
HALFEN
  6
STRICHPUNKT2
 62
     1
 48
0.5
100
AcDbLine
 10
583.8619941947342
 20
370.3965726787649
 30
0.0
 11
598.3619941947343
 21
370.3965726787649
 31
0.0
  0
LINE
  5
387B
330
1F
100
AcDbEntity
  8
HALFEN
  6
STRICHPUNKT2
 62
     1
 48
0.5
100
AcDbLine
 10
583.8619941947345
 20
267.5844642409311
 30
0.0
 11
598.3619941947345
 21
267.5844642409311
 31
0.0
  0
TEXT
  5
39C4
330
1F
100
AcDbEntity
  8
HALFEN
100
AcDbText
 10
546.9530533761042
 20
810.911769643023
 30
0.0
 40
5.0
  1

  7
ARIAL50
100
AcDbText
  0
TEXT
  5
39C6
330
1F
100
AcDbEntity
  8
HALFEN
100
AcDbText
 10
546.9530533761042
 20
439.1597047246805
 30
0.0
 40
5.0
  1

  7
ARIAL50
100
AcDbText
  0
ENDSEC
  0
SECTION
  2
OBJECTS
  0
DICTIONARY
  5
C
330
0
100
AcDbDictionary
281
     1
  3
ACAD_CIP_PREVIOUS_PRODUCT_INFO
350
39C3
  3
ACAD_COLOR
350
810
  3
ACAD_GROUP
350
D
  3
ACAD_LAYOUT
350
1A
  3
ACAD_MATERIAL
350
80F
  3
ACAD_MLEADERSTYLE
350
313B
  3
ACAD_MLINESTYLE
350
17
  3
ACAD_PLOTSETTINGS
350
19
  3
ACAD_PLOTSTYLENAME
350
E
  3
ACAD_SCALELIST
350
3119
  3
ACAD_TABLESTYLE
350
811
  3
ACAD_VISUALSTYLE
350
3108
  3
ACDB_RECOMPOSE_DATA
350
39CB
  3
AcDbVariableDictionary
350
55
  3
AcmDictionary
350
64
  3
AMG
350
4C
  3
AMGSNAPSETTINGS
350
71
  3
ASE_INDEX_DICTIONARY
350
30CF
  0
DICTIONARY
  5
3883
330
8
100
AcDbDictionary
280
     1
281
     1
  0
DICTIONARY
  5
FAF
330
2
100
AcDbDictionary
280
     1
281
     1
  3
ACAD_LAYERFILTERS
360
37E2
  3
ACAD_LAYERSTATES
360
FB0
  3
ACLYDICTIONARY
360
37E1
  0
DICTIONARY
  5
31DF
330
10
100
AcDbDictionary
280
     1
281
     1
  3
ADSK_XREC_LAYER_RECONCILED
360
31E0
  0
DICTIONARY
  5
1BF
330
1F
100
AcDbDictionary
280
     1
281
     1
  3
ACAD_SORTENTS
360
DF0
  0
XRECORD
  5
39C3
102
{ACAD_REACTORS
330
C
102
}
330
C
100
AcDbXrecord
280
     1
300
AMECH_PP
300
2012
300
PDSP_F_S
  0
DICTIONARY
  5
810
102
{ACAD_REACTORS
330
C
102
}
330
C
100
AcDbDictionary
281
     1
  0
DICTIONARY
  5
D
102
{ACAD_REACTORS
330
C
102
}
330
C
100
AcDbDictionary
281
     1
  0
DICTIONARY
  5
1A
102
{ACAD_REACTORS
330
C
102
}
330
C
100
AcDbDictionary
281
     1
  3
Layout1
350
1E
  3
Layout2
350
26
  3
Model
350
22
  0
DICTIONARY
  5
80F
102
{ACAD_REACTORS
330
C
102
}
330
C
100
AcDbDictionary
281
     1
  3
ByBlock
350
30F8
  3
ByLayer
350
30F0
  3
Global
350
3100
  0
DICTIONARY
  5
313B
102
{ACAD_REACTORS
330
C
102
}
330
C
100
AcDbDictionary
281
     1
  3
Standard
350
313C
  0
DICTIONARY
  5
17
102
{ACAD_REACTORS
330
C
102
}
330
C
100
AcDbDictionary
281
     1
  3
Standard
350
18
  0
DICTIONARY
  5
19
102
{ACAD_REACTORS
330
C
102
}
330
C
100
AcDbDictionary
281
     1
  3
A4_hoch
350
974
  3
A4_quer
350
976
  0
ACDBDICTIONARYWDFLT
  5
E
102
{ACAD_REACTORS
330
C
102
}
330
C
100
AcDbDictionary
281
     1
  3
Normal
350
F
100
AcDbDictionaryWithDefault
340
F
  0
DICTIONARY
  5
3119
102
{ACAD_REACTORS
330
C
102
}
330
C
100
AcDbDictionary
281
     1
  3
A0
350
311A
  3
A1
350
311B
  3
A2
350
311C
  3
A3
350
311D
  3
A4
350
311E
  3
A5
350
311F
  3
A6
350
3120
  3
A7
350
3121
  3
A8
350
3122
  3
A9
350
3123
  3
B0
350
3124
  3
B1
350
3125
  3
B2
350
3126
  3
B3
350
3127
  3
B4
350
3128
  3
B5
350
3129
  3
B6
350
312A
  3
B7
350
312B
  3
B8
350
312C
  3
B9
350
312D
  3
C0
350
312E
  3
C1
350
312F
  3
C2
350
3130
  3
C3
350
3131
  3
C4
350
3132
  3
C5
350
3133
  3
C6
350
3134
  3
C7
350
3135
  3
C8
350
3136
  3
C9
350
3137
  3
D0
350
3138
  3
D1
350
3139
  3
D2
350
313A
  0
DICTIONARY
  5
811
102
{ACAD_REACTORS
330
C
102
}
330
C
100
AcDbDictionary
281
     1
  3
Standard
350
812
  0
DICTIONARY
  5
3108
102
{ACAD_REACTORS
330
C
102
}
330
C
100
AcDbDictionary
281
     1
  3
2dWireframe
350
310E
  3
3D Hidden
350
3110
  3
3dWireframe
350
310F
  3
Basic
350
310D
  3
Brighten
350
3114
  3
ColorChange
350
3118
  3
Conceptual
350
3111
  3
Dim
350
3113
  3
EdgeColorOff
350
39BF
  3
Facepattern
350
3117
  3
Flat
350
3109
  3
FlatWithEdges
350
310A
  3
Gouraud
350
310B
  3
GouraudWithEdges
350
310C
  3
Hidden
350
39B7
  3
JitterOff
350
39BD
  3
Linepattern
350
3116
  3
OverhangOff
350
39BE
  3
Realistic
350
3112
  3
Shaded
350
39BC
  3
Shaded with edges
350
39BB
  3
Shades of Gray
350
39B8
  3
Sketchy
350
39B9
  3
Thicken
350
3115
  3
Wireframe
350
39B6
  3
X-Ray
350
39BA
  0
XRECORD
  5
39CB
102
{ACAD_REACTORS
330
C
102
}
330
C
100
AcDbXrecord
280
     1
 90
        1
330
812
  0
DICTIONARY
  5
55
102
{ACAD_REACTORS
330
C
102
}
330
C
100
AcDbDictionary
281
     1
  3
CANNOSCALE
350
378C
  3
CMLEADERSTYLE
350
378A
  3
CTABLESTYLE
350
926
  3
DIMASSOC
350
39B4
  3
INDEXCTL
350
56
  3
LAYEREVAL
350
39C7
  3
LAYERNOTIFY
350
39C8
  3
LIGHTINGUNITS
350
378D
  3
MSLTSCALE
350
378B
  3
SORTENTS
350
39B3
  0
DICTIONARY
  5
64
102
{ACAD_REACTORS
330
C
102
}
330
C
100
AcDbDictionary
281
     1
  3
AcmStdDictionary
350
665
  3
AMDTSECTSYM_ARROWCOLOR
350
869
  0
DICTIONARY
  5
4C
102
{ACAD_REACTORS
330
C
102
}
330
C
100
AcDbDictionary
281
     1
  0
DICTIONARY
  5
71
102
{ACAD_REACTORS
330
C
102
}
330
C
100
AcDbDictionary
281
     1
  0
DICTIONARY
  5
30CF
102
{ACAD_REACTORS
330
C
102
}
330
C
100
AcDbDictionary
281
     1
  3
ASEBlockHierarchyIndexRecord
350
30D1
1001
DCO15
1040
1572079489.0
  0
DICTIONARY
  5
37E2
102
{ACAD_REACTORS
330
FAF
102
}
330
FAF
100
AcDbDictionary
281
     1
  0
DICTIONARY
  5
FB0
102
{ACAD_REACTORS
330
FAF
102
}
330
FAF
100
AcDbDictionary
281
     1
  0
DICTIONARY
  5
37E1
102
{ACAD_REACTORS
330
FAF
102
}
330
FAF
100
AcDbDictionary
281
     1
1001
ACAD
1000
<All
  0
XRECORD
  5
31E0
102
{ACAD_REACTORS
330
31DF
102
}
330
31DF
100
AcDbXrecord
280
     1
290
     1
  0
SORTENTSTABLE
  5
DF0
102
{ACAD_REACTORS
330
1BF
102
}
330
1BF
100
AcDbSortentsTable
330
1F
331
C72
  5
C72
331
2D15
  5
2D19
331
3449
  5
344D
331
2CCE
  5
2CD2
331
C7A
  5
C7A
331
2620
  5
2622
331
3488
  5
348C
331
2D1D
  5
2D21
331
3451
  5
3459
331
3490
  5
3494
331
2667
  5
2669
331
2628
  5
262A
331
C82
  5
C82
331
2CD6
  5
2CDA
331
2D25
  5
2D29
331
3459
  5
3464
331
266F
  5
2671
331
2630
  5
2632
331
2CDE
  5
2CE2
331
3422
  5
3424
331
2638
  5
263A
331
C92
  5
C92
331
2FF5
  5
2FF7
331
2640
  5
2642
331
C9A
  5
C9A
331
2CEE
  5
2CF2
331
2CF6
  5
2CFA
331
2648
  5
264A
331
2CB7
  5
2CBB
331
3432
  5
3434
331
2650
  5
2652
331
343A
  5
343D
331
CAA
  5
CAA
331
2611
  5
2613
331
3479
  5
347D
331
3442
  5
3446
331
2D06
  5
2D10
331
2CC7
  5
2CCB
331
3045
  5
3047
331
2658
  5
265A
331
2D16
  5
2D1A
331
344A
  5
344E
331
2660
  5
2662
331
2CCF
  5
2CD3
331
2621
  5
2623
331
3489
  5
348D
331
2D1E
  5
2D22
331
2668
  5
266A
331
2629
  5
262B
331
2CD7
  5
2CDB
331
3529
  5
343C
331
2D26
  5
2D2A
331
2631
  5
2633
331
2CDF
  5
2CE3
331
341B
  5
341D
331
3423
  5
3425
331
2639
  5
263B
331
C93
  5
C93
331
2670
  5
2672
331
2FF6
  5
2FF8
331
C9B
  5
C9B
331
2CEF
  5
2CF3
331
342B
  5
342D
331
3472
  5
3476
331
3433
  5
3435
331
2649
  5
264B
331
2CB8
  5
2CBC
331
260A
  5
260C
331
2CF7
  5
2CFB
331
2651
  5
2653
331
2CFF
  5
2D03
331
CAB
  5
CAB
331
2612
  5
2614
331
303E
  5
3040
331
347A
  5
3487
331
3443
  5
3447
331
3046
  5
3048
331
2659
  5
265B
331
261A
  5
261C
331
344B
  5
344F
331
2D17
  5
2D1B
331
2661
  5
2663
331
2CD0
  5
2CD4
331
2622
  5
2624
331
348A
  5
348E
331
2D1F
  5
2D23
331
3453
  5
345D
331
2669
  5
266B
331
2CD8
  5
2CDD
331
262A
  5
262C
331
3492
  5
3496
331
345B
  5
3465
331
352A
  5
343E
331
2CE0
  5
2CE6
331
2632
  5
2634
331
341C
  5
341E
331
3424
  5
3426
331
2671
  5
2673
331
C94
  5
C94
331
263A
  5
263C
331
2FF7
  5
2FF9
331
2642
  5
2644
331
C9C
  5
C9C
331
2CF0
  5
2CF4
331
342C
  5
342E
331
3473
  5
3477
331
264A
  5
264C
331
2CF8
  5
2CFC
331
260B
  5
260D
331
3434
  5
3436
331
343C
  5
3442
331
2D00
  5
2D04
331
2613
  5
2615
331
2CC1
  5
2CC5
331
303F
  5
3041
331
347B
  5
3488
331
3444
  5
3448
331
265A
  5
265C
331
2D10
  5
2D14
331
261B
  5
261D
331
344C
  5
3450
331
2D18
  5
2D1C
331
2662
  5
2664
331
2CD1
  5
2CD5
331
2623
  5
2625
331
348B
  5
348F
331
3454
  5
345F
331
2D20
  5
2D24
331
3415
  5
3417
331
2CD9
  5
2CDE
331
262B
  5
262D
331
3493
  5
3497
331
2CE1
  5
2CE7
331
C8D
  5
C8D
331
2633
  5
2635
331
341D
  5
341F
331
3425
  5
3427
331
2672
  5
2674
331
C95
  5
C95
331
263B
  5
263D
331
3464
  5
3468
331
2643
  5
2645
331
2604
  5
2606
331
C9D
  5
C9D
331
2FF8
  5
2FFA
331
342D
  5
342F
331
3474
  5
3478
331
2CF9
  5
2CFD
331
3435
  5
3437
331
260C
  5
260E
331
2CBA
  5
2CBE
331
2D01
  5
2D05
331
3040
  5
3042
331
2653
  5
2655
331
2614
  5
2616
331
2CC2
  5
2CC6
331
347C
  5
3489
331
3445
  5
3449
331
2D11
  5
2D15
331
265B
  5
265D
331
261C
  5
261E
331
2CCA
  5
2CCE
331
2D19
  5
2D1D
331
2663
  5
2665
331
2CD2
  5
2CD6
331
2624
  5
2626
331
C7E
  5
C7E
331
266B
  5
266D
331
2D21
  5
2D25
331
3416
  5
3418
331
C86
  5
C86
331
262C
  5
262E
331
3494
  5
3499
331
C8E
  5
C8E
331
2634
  5
2636
331
341E
  5
3420
331
C96
  5
C96
331
2673
  5
2675
331
3465
  5
346F
331
2CF2
  5
2CF6
331
2605
  5
2607
331
C9E
  5
C9E
331
2644
  5
2646
331
2FF9
  5
2FFB
331
3475
  5
3479
331
2CFA
  5
2CFE
331
3436
  5
3438
331
CA6
  5
CA6
331
260D
  5
260F
331
2CBB
  5
2CBF
331
3041
  5
3043
331
2654
  5
2656
331
2CC3
  5
2CC7
331
347D
  5
348A
331
3446
  5
344A
331
2D12
  5
2D16
331
265C
  5
265E
331
C77
  5
C77
331
2CCB
  5
2CCF
331
2664
  5
2666
331
2CD3
  5
2CD7
331
2625
  5
2627
331
2D22
  5
2D26
331
266C
  5
266E
331
C87
  5
C87
331
2CDB
  5
2CDF
331
3495
  5
34A8
331
2635
  5
2637
331
C8F
  5
C8F
331
341F
  5
3421
331
C97
  5
C97
331
2674
  5
2676
331
3466
  5
3470
331
342F
  5
3431
331
2CF3
  5
2CF7
331
2CB4
  5
2CB8
331
C9F
  5
C9F
331
2645
  5
2647
331
2FFA
  5
2FFC
331
3476
  5
347A
331
3437
  5
3439
331
CA7
  5
CA7
331
260E
  5
2610
331
2CBC
  5
2CC0
331
343F
  5
3443
331
2D03
  5
2D07
331
2655
  5
2657
331
2CC4
  5
2CC8
331
3042
  5
3044
331
3447
  5
344B
331
2D13
  5
2D17
331
265D
  5
265F
331
261E
  5
2620
331
C78
  5
C78
331
2CCC
  5
2CD0
331
2D1B
  5
2D1F
331
344F
  5
3453
331
348E
  5
3492
331
2665
  5
2667
331
2626
  5
2628
331
2CD4
  5
2CD8
331
3496
  5
34A9
331
2D23
  5
2D27
331
266D
  5
266F
331
2CDC
  5
2CE0
331
C88
  5
C88
331
262E
  5
2630
331
3418
  5
341A
331
2636
  5
2638
331
2CE4
  5
2CEE
331
C90
  5
C90
331
2675
  5
2849
331
263E
  5
2640
331
C98
  5
C98
331
3428
  5
342A
331
3430
  5
3432
331
2CF4
  5
2CF8
331
2CB5
  5
2CB9
331
2646
  5
2648
331
CA0
  5
CA0
331
2607
  5
2609
331
3467
  5
3471
331
3438
  5
343A
331
3477
  5
347B
331
CA8
  5
CA8
331
2CBD
  5
2CC1
331
3440
  5
3444
331
2D04
  5
2D08
331
2656
  5
2658
331
3043
  5
3045
331
2617
  5
2619
331
3487
  5
348B
331
2D14
  5
2D18
331
3448
  5
344C
331
261F
  5
2621
331
C79
  5
C79
331
2D1C
  5
2D20
331
3450
  5
3454
331
348F
  5
3493
331
2666
  5
2668
331
2627
  5
2629
331
C81
  5
C81
331
2CD5
  5
2CD9
331
3497
  5
34AA
331
3419
  5
341B
331
262F
  5
2631
331
266E
  5
2670
331
2D24
  5
2D28
331
2637
  5
2639
331
2CE5
  5
2CEF
331
C91
  5
C91
331
2676
  5
284A
331
263F
  5
2641
331
C99
  5
C99
331
3431
  5
3433
331
2CF5
  5
2CF9
331
2647
  5
2649
331
CA1
  5
CA1
331
2608
  5
260A
331
3439
  5
343B
331
CA9
  5
CA9
331
264F
  5
2651
331
2CBE
  5
2CC2
331
3478
  5
347C
331
3441
  5
3445
331
2D05
  5
2D09
331
3044
  5
3046
  0
LAYOUT
  5
1E
102
{ACAD_REACTORS
330
1A
102
}
330
1A
100
AcDbPlotSettings
  1

  2
Minolta PagePro 8L
  4

  6

 40
0.0
 41
0.0
 42
0.0
 43
0.0
 44
0.0
 45
0.0
 46
0.0
 47
0.0
 48
0.0
 49
0.0
140
0.0
141
0.0
142
1.0
143
1.0
 70
   688
 72
     0
 73
     0
 74
     5
  7
Halfen Plotstil.ctb
 75
    16
147
1.0
 76
     0
 77
     2
 78
   300
148
0.0
149
0.0
100
AcDbLayout
  1
Layout1
 70
     1
 71
     1
 10
0.0
 20
0.0
 11
420.0
 21
297.0
 12
0.0
 22
0.0
 32
0.0
 14
1.000000000000000E+20
 24
1.000000000000000E+20
 34
1.000000000000000E+20
 15
-1.000000000000000E+20
 25
-1.000000000000000E+20
 35
-1.000000000000000E+20
146
0.0
 13
0.0
 23
0.0
 33
0.0
 16
1.0
 26
0.0
 36
0.0
 17
0.0
 27
1.0
 37
0.0
 76
     0
330
1B
  0
LAYOUT
  5
26
102
{ACAD_REACTORS
330
1A
102
}
330
1A
100
AcDbPlotSettings
  1

  2
Minolta PagePro 8L
  4

  6

 40
0.0
 41
0.0
 42
0.0
 43
0.0
 44
0.0
 45
0.0
 46
0.0
 47
0.0
 48
0.0
 49
0.0
140
0.0
141
0.0
142
1.0
143
1.0
 70
   688
 72
     0
 73
     0
 74
     5
  7
Halfen Plotstil.ctb
 75
    16
147
1.0
 76
     0
 77
     2
 78
   300
148
0.0
149
0.0
100
AcDbLayout
  1
Layout2
 70
     1
 71
     2
 10
0.0
 20
0.0
 11
12.0
 21
9.0
 12
0.0
 22
0.0
 32
0.0
 14
0.0
 24
0.0
 34
0.0
 15
0.0
 25
0.0
 35
0.0
146
0.0
 13
0.0
 23
0.0
 33
0.0
 16
1.0
 26
0.0
 36
0.0
 17
0.0
 27
1.0
 37
0.0
 76
     0
330
23
  0
LAYOUT
  5
22
102
{ACAD_REACTORS
330
1A
102
}
330
1A
100
AcDbPlotSettings
  1

  2
Minolta PagePro 8L
  4
A4
  6

 40
5.873749732971191
 41
3.174999952316284
 42
5.873748779296875
 43
3.17498779296875
 44
209.9733276367187
 45
297.0106506347656
 46
0.0
 47
0.0
 48
0.0
 49
0.0
140
0.0
141
0.0
142
1.0
143
4.917982904426159
 70
 11952
 72
     1
 73
     1
 74
     0
  7
Halfen Plotstil.ctb
 75
     0
147
0.2033353957168101
 76
     0
 77
     2
 78
   300
148
596.0234477574415
149
350.6876687301243
100
AcDbLayout
  1
Model
 70
     1
 71
     0
 10
0.0
 20
0.0
 11
12.0
 21
9.0
 12
0.0
 22
0.0
 32
0.0
 14
0.0
 24
0.0
 34
0.0
 15
0.0
 25
0.0
 35
0.0
146
0.0
 13
0.0
 23
0.0
 33
0.0
 16
1.0
 26
0.0
 36
0.0
 17
0.0
 27
1.0
 37
0.0
 76
     0
330
1F
331
30EE
  0
MATERIAL
  5
30F8
102
{ACAD_XDICTIONARY
360
30F9
102
}
102
{ACAD_REACTORS
330
80F
102
}
330
80F
100
AcDbMaterial
  1
ByBlock
 72
     0
 43
0.0008202099737533
 43
0.0
 43
0.0
 43
0.0
 43
0.0
 43
0.0008202099737533
 43
0.0
 43
0.0
 43
0.0
 43
0.0
 43
1.0
 43
0.0
 43
0.0
 43
0.0
 43
0.0
 43
1.0
 77
     0
 47
0.0008202099737533
 47
0.0
 47
0.0
 47
0.0
 47
0.0
 47
0.0008202099737533
 47
0.0
 47
0.0
 47
0.0
 47
0.0
 47
1.0
 47
0.0
 47
0.0
 47
0.0
 47
0.0
 47
1.0
171
     0
 49
0.0008202099737533
 49
0.0
 49
0.0
 49
0.0
 49
0.0
 49
0.0008202099737533
 49
0.0
 49
0.0
 49
0.0
 49
0.0
 49
1.0
 49
0.0
 49
0.0
 49
0.0
 49
0.0
 49
1.0
175
     0
142
0.0008202099737533
142
0.0
142
0.0
142
0.0
142
0.0
142
0.0008202099737533
142
0.0
142
0.0
142
0.0
142
0.0
142
1.0
142
0.0
142
0.0
142
0.0
142
0.0
142
1.0
179
     0
144
0.0008202099737533
144
0.0
144
0.0
144
0.0
144
0.0
144
0.0008202099737533
144
0.0
144
0.0
144
0.0
144
0.0
144
1.0
144
0.0
144
0.0
144
0.0
144
0.0
144
1.0
147
0.0008202099737533
147
0.0
147
0.0
147
0.0
147
0.0
147
0.0008202099737533
147
0.0
147
0.0
147
0.0
147
0.0
147
1.0
147
0.0
147
0.0
147
0.0
147
0.0
147
1.0
  0
MATERIAL
  5
30F0
102
{ACAD_XDICTIONARY
360
30F1
102
}
102
{ACAD_REACTORS
330
80F
102
}
330
80F
100
AcDbMaterial
  1
ByLayer
 72
     0
 43
0.0008202099737533
 43
0.0
 43
0.0
 43
0.0
 43
0.0
 43
0.0008202099737533
 43
0.0
 43
0.0
 43
0.0
 43
0.0
 43
1.0
 43
0.0
 43
0.0
 43
0.0
 43
0.0
 43
1.0
 77
     0
 47
0.0008202099737533
 47
0.0
 47
0.0
 47
0.0
 47
0.0
 47
0.0008202099737533
 47
0.0
 47
0.0
 47
0.0
 47
0.0
 47
1.0
 47
0.0
 47
0.0
 47
0.0
 47
0.0
 47
1.0
171
     0
 49
0.0008202099737533
 49
0.0
 49
0.0
 49
0.0
 49
0.0
 49
0.0008202099737533
 49
0.0
 49
0.0
 49
0.0
 49
0.0
 49
1.0
 49
0.0
 49
0.0
 49
0.0
 49
0.0
 49
1.0
175
     0
142
0.0008202099737533
142
0.0
142
0.0
142
0.0
142
0.0
142
0.0008202099737533
142
0.0
142
0.0
142
0.0
142
0.0
142
1.0
142
0.0
142
0.0
142
0.0
142
0.0
142
1.0
179
     0
144
0.0008202099737533
144
0.0
144
0.0
144
0.0
144
0.0
144
0.0008202099737533
144
0.0
144
0.0
144
0.0
144
0.0
144
1.0
144
0.0
144
0.0
144
0.0
144
0.0
144
1.0
147
0.0008202099737533
147
0.0
147
0.0
147
0.0
147
0.0
147
0.0008202099737533
147
0.0
147
0.0
147
0.0
147
0.0
147
1.0
147
0.0
147
0.0
147
0.0
147
0.0
147
1.0
  0
MATERIAL
  5
3100
102
{ACAD_XDICTIONARY
360
3101
102
}
102
{ACAD_REACTORS
330
80F
102
}
330
80F
100
AcDbMaterial
  1
Global
 72
     0
 43
0.0008202099737533
 43
0.0
 43
0.0
 43
0.0
 43
0.0
 43
0.0008202099737533
 43
0.0
 43
0.0
 43
0.0
 43
0.0
 43
1.0
 43
0.0
 43
0.0
 43
0.0
 43
0.0
 43
1.0
 77
     0
 47
0.0008202099737533
 47
0.0
 47
0.0
 47
0.0
 47
0.0
 47
0.0008202099737533
 47
0.0
 47
0.0
 47
0.0
 47
0.0
 47
1.0
 47
0.0
 47
0.0
 47
0.0
 47
0.0
 47
1.0
171
     0
 49
0.0008202099737533
 49
0.0
 49
0.0
 49
0.0
 49
0.0
 49
0.0008202099737533
 49
0.0
 49
0.0
 49
0.0
 49
0.0
 49
1.0
 49
0.0
 49
0.0
 49
0.0
 49
0.0
 49
1.0
175
     0
142
0.0008202099737533
142
0.0
142
0.0
142
0.0
142
0.0
142
0.0008202099737533
142
0.0
142
0.0
142
0.0
142
0.0
142
1.0
142
0.0
142
0.0
142
0.0
142
0.0
142
1.0
179
     0
144
0.0008202099737533
144
0.0
144
0.0
144
0.0
144
0.0
144
0.0008202099737533
144
0.0
144
0.0
144
0.0
144
0.0
144
1.0
144
0.0
144
0.0
144
0.0
144
0.0
144
1.0
147
0.0008202099737533
147
0.0
147
0.0
147
0.0
147
0.0
147
0.0008202099737533
147
0.0
147
0.0
147
0.0
147
0.0
147
1.0
147
0.0
147
0.0
147
0.0
147
0.0
147
1.0
  0
MLEADERSTYLE
  5
313C
102
{ACAD_REACTORS
330
313B
102
}
330
313B
100
AcDbMLeaderStyle
179
     2
170
     2
171
     1
172
     0
 90
        2
 40
0.0
 41
0.0
173
     1
 91
-1056964608
340
14
 92
       -2
290
     1
 42
2.0
291
     1
 43
0.36
  3
Standard
 44
4.0
300

342
11
174
     1
178
     6
175
     1
176
     0
 93
-1056964608
 45
4.0
292
     0
297
     0
 46
4.0
 94
-1056964608
 47
1.0
 49
1.0
140
1.0
293
     1
141
0.0
294
     1
177
     0
142
1.0
295
     0
296
     0
143
0.125
271
     0
272
     9
273
     9
  0
MLINESTYLE
  5
18
102
{ACAD_REACTORS
330
17
102
}
330
17
100
AcDbMlineStyle
  2
STANDARD
 70
     0
  3

 62
   256
 51
90.0
 52
90.0
 71
     2
 49
0.5
 62
   256
  6
BYLAYER
 49
-0.5
 62
   256
  6
BYLAYER
  0
PLOTSETTINGS
  5
974
102
{ACAD_REACTORS
330
19
102
}
330
19
100
AcDbPlotSettings
  1
A4_hoch
  2
Minolta PagePro 8L
  4
A4
  6

 40
7.143749713897705
 41
7.143756389617919
 42
7.05908203125
 43
7.14373779296875
 44
209.9733276367187
 45
296.9259948730469
 46
-10.0
 47
-8.0
 48
288.6923467168382
 49
155.4429596380265
140
379.260781008309
141
258.7208858951657
142
1.0
143
1.0
 70
 11936
 72
     1
 73
     0
 74
     4
  7
Halfen Plotstil.ctb
 75
     0
147
3.144145813260183
 76
     0
 77
     2
 78
   300
148
-288.6923467168382
149
-155.4429596380265
1001
ACAD_PSEXT
1000
Minolta PagePro 8L
1000
HP LaserJet IIP
1000
LPT1:
1000

1070
     0
  0
PLOTSETTINGS
  5
976
102
{ACAD_REACTORS
330
19
102
}
330
19
100
AcDbPlotSettings
  1
A4_quer
  2
Minolta PagePro 8L
  4
A4
  6

 40
7.143749713897705
 41
7.143756389617919
 42
7.05908203125
 43
7.14373779296875
 44
209.9733276367187
 45
296.9259948730469
 46
-5.0
 47
-6.0
 48
194.8561551581094
 49
93.95414985728359
140
597.5431966113442
141
299.7604267345806
142
1.0
143
1.0
 70
 11936
 72
     1
 73
     1
 74
     4
  7
Halfen Plotstil.ctb
 75
     0
147
3.144145813260183
 76
     0
 77
     2
 78
   300
148
-194.8561551581094
149
-93.95414985728359
1001
ACAD_PSEXT
1000
Minolta PagePro 8L
1000
HP LaserJet IIP
1000
LPT1:
1000

1070
     0
  0
ACDBPLACEHOLDER
  5
F
102
{ACAD_REACTORS
330
E
102
}
330
E
  0
SCALE
  5
311A
102
{ACAD_REACTORS
330
3119
102
}
330
3119
100
AcDbScale
 70
     0
300
1:1
140
1.0
141
1.0
290
     1
  0
SCALE
  5
311B
102
{ACAD_REACTORS
330
3119
102
}
330
3119
100
AcDbScale
 70
     0
300
1:2
140
1.0
141
2.0
290
     0
  0
SCALE
  5
311C
102
{ACAD_REACTORS
330
3119
102
}
330
3119
100
AcDbScale
 70
     0
300
1:4
140
1.0
141
4.0
290
     0
  0
SCALE
  5
311D
102
{ACAD_REACTORS
330
3119
102
}
330
3119
100
AcDbScale
 70
     0
300
1:5
140
1.0
141
5.0
290
     0
  0
SCALE
  5
311E
102
{ACAD_REACTORS
330
3119
102
}
330
3119
100
AcDbScale
 70
     0
300
1:8
140
1.0
141
8.0
290
     0
  0
SCALE
  5
311F
102
{ACAD_REACTORS
330
3119
102
}
330
3119
100
AcDbScale
 70
     0
300
1:10
140
1.0
141
10.0
290
     0
  0
SCALE
  5
3120
102
{ACAD_REACTORS
330
3119
102
}
330
3119
100
AcDbScale
 70
     0
300
1:16
140
1.0
141
16.0
290
     0
  0
SCALE
  5
3121
102
{ACAD_REACTORS
330
3119
102
}
330
3119
100
AcDbScale
 70
     0
300
1:20
140
1.0
141
20.0
290
     0
  0
SCALE
  5
3122
102
{ACAD_REACTORS
330
3119
102
}
330
3119
100
AcDbScale
 70
     0
300
1:30
140
1.0
141
30.0
290
     0
  0
SCALE
  5
3123
102
{ACAD_REACTORS
330
3119
102
}
330
3119
100
AcDbScale
 70
     0
300
1:40
140
1.0
141
40.0
290
     0
  0
SCALE
  5
3124
102
{ACAD_REACTORS
330
3119
102
}
330
3119
100
AcDbScale
 70
     0
300
1:50
140
1.0
141
50.0
290
     0
  0
SCALE
  5
3125
102
{ACAD_REACTORS
330
3119
102
}
330
3119
100
AcDbScale
 70
     0
300
1:100
140
1.0
141
100.0
290
     0
  0
SCALE
  5
3126
102
{ACAD_REACTORS
330
3119
102
}
330
3119
100
AcDbScale
 70
     0
300
2:1
140
2.0
141
1.0
290
     0
  0
SCALE
  5
3127
102
{ACAD_REACTORS
330
3119
102
}
330
3119
100
AcDbScale
 70
     0
300
4:1
140
4.0
141
1.0
290
     0
  0
SCALE
  5
3128
102
{ACAD_REACTORS
330
3119
102
}
330
3119
100
AcDbScale
 70
     0
300
8:1
140
8.0
141
1.0
290
     0
  0
SCALE
  5
3129
102
{ACAD_REACTORS
330
3119
102
}
330
3119
100
AcDbScale
 70
     0
300
10:1
140
10.0
141
1.0
290
     0
  0
SCALE
  5
312A
102
{ACAD_REACTORS
330
3119
102
}
330
3119
100
AcDbScale
 70
     0
300
100:1
140
100.0
141
1.0
290
     0
  0
SCALE
  5
312B
102
{ACAD_REACTORS
330
3119
102
}
330
3119
100
AcDbScale
 70
     0
300
1/128" = 1'-0"
140
0.0078125
141
12.0
290
     0
  0
SCALE
  5
312C
102
{ACAD_REACTORS
330
3119
102
}
330
3119
100
AcDbScale
 70
     0
300
1/64" = 1'-0"
140
0.015625
141
12.0
290
     0
  0
SCALE
  5
312D
102
{ACAD_REACTORS
330
3119
102
}
330
3119
100
AcDbScale
 70
     0
300
1/32" = 1'-0"
140
0.03125
141
12.0
290
     0
  0
SCALE
  5
312E
102
{ACAD_REACTORS
330
3119
102
}
330
3119
100
AcDbScale
 70
     0
300
1/16" = 1'-0"
140
0.0625
141
12.0
290
     0
  0
SCALE
  5
312F
102
{ACAD_REACTORS
330
3119
102
}
330
3119
100
AcDbScale
 70
     0
300
3/32" = 1'-0"
140
0.09375
141
12.0
290
     0
  0
SCALE
  5
3130
102
{ACAD_REACTORS
330
3119
102
}
330
3119
100
AcDbScale
 70
     0
300
1/8" = 1'-0"
140
0.125
141
12.0
290
     0
  0
SCALE
  5
3131
102
{ACAD_REACTORS
330
3119
102
}
330
3119
100
AcDbScale
 70
     0
300
3/16" = 1'-0"
140
0.1875
141
12.0
290
     0
  0
SCALE
  5
3132
102
{ACAD_REACTORS
330
3119
102
}
330
3119
100
AcDbScale
 70
     0
300
1/4" = 1'-0"
140
0.25
141
12.0
290
     0
  0
SCALE
  5
3133
102
{ACAD_REACTORS
330
3119
102
}
330
3119
100
AcDbScale
 70
     0
300
3/8" = 1'-0"
140
0.375
141
12.0
290
     0
  0
SCALE
  5
3134
102
{ACAD_REACTORS
330
3119
102
}
330
3119
100
AcDbScale
 70
     0
300
1/2" = 1'-0"
140
0.5
141
12.0
290
     0
  0
SCALE
  5
3135
102
{ACAD_REACTORS
330
3119
102
}
330
3119
100
AcDbScale
 70
     0
300
3/4" = 1'-0"
140
0.75
141
12.0
290
     0
  0
SCALE
  5
3136
102
{ACAD_REACTORS
330
3119
102
}
330
3119
100
AcDbScale
 70
     0
300
1" = 1'-0"
140
1.0
141
12.0
290
     0
  0
SCALE
  5
3137
102
{ACAD_REACTORS
330
3119
102
}
330
3119
100
AcDbScale
 70
     0
300
1-1/2" = 1'-0"
140
1.5
141
12.0
290
     0
  0
SCALE
  5
3138
102
{ACAD_REACTORS
330
3119
102
}
330
3119
100
AcDbScale
 70
     0
300
3" = 1'-0"
140
3.0
141
12.0
290
     0
  0
SCALE
  5
3139
102
{ACAD_REACTORS
330
3119
102
}
330
3119
100
AcDbScale
 70
     0
300
6" = 1'-0"
140
6.0
141
12.0
290
     0
  0
SCALE
  5
313A
102
{ACAD_REACTORS
330
3119
102
}
330
3119
100
AcDbScale
 70
     0
300
1'-0" = 1'-0"
140
12.0
141
12.0
290
     0
  0
TABLESTYLE
  5
812
102
{ACAD_XDICTIONARY
360
3787
102
}
102
{ACAD_REACTORS
330
811
102
}
330
811
100
AcDbTableStyle
280
     0
  3
Standard
 70
     0
 71
     0
 40
1.5
 41
1.5
280
     0
281
     0
  7
Standard
140
4.5
170
     2
 62
     0
 63
     7
283
     0
 90
        4
 91
        0
  1

274
    -2
284
     1
 64
     0
275
    -2
285
     1
 65
     0
276
    -2
286
     1
 66
     0
277
    -2
287
     1
 67
     0
278
    -2
288
     1
 68
     0
279
    -2
289
     1
 69
     0
  7
Standard
140
6.0
170
     5
 62
     0
 63
     7
283
     0
 90
        4
 91
        0
  1

274
    -2
284
     1
 64
     0
275
    -2
285
     1
 65
     0
276
    -2
286
     1
 66
     0
277
    -2
287
     1
 67
     0
278
    -2
288
     1
 68
     0
279
    -2
289
     1
 69
     0
  7
Standard
140
4.5
170
     5
 62
     0
 63
     7
283
     0
 90
        4
 91
        0
  1

274
    -2
284
     1
 64
     0
275
    -2
285
     1
 65
     0
276
    -2
286
     1
 66
     0
277
    -2
287
     1
 67
     0
278
    -2
288
     1
 68
     0
279
    -2
289
     1
 69
     0
  0
VISUALSTYLE
  5
310E
102
{ACAD_REACTORS
330
3108
102
}
330
3108
100
AcDbVisualStyle
  2
2dWireframe
 70
     4
177
     2
291
     0
 71
     0
176
     1
 72
     2
176
     1
 73
     0
176
     1
 90
        0
176
     1
 40
0.6
176
     1
 41
30.0
176
     1
 63
     7
176
     1
 74
     1
176
     1
 91
        4
176
     1
 64
     7
176
     1
 65
   257
176
     1
 75
     1
176
     1
175
     1
176
     1
 42
1.0
176
     1
 92
        0
176
     1
 66
   257
176
     1
 43
1.0
176
     1
 76
     1
176
     1
 77
     6
176
     1
 78
     2
176
     1
 67
     7
176
     1
 79
     5
176
     1
170
     0
176
     1
171
     0
176
     1
290
     0
176
     1
 93
        1
176
     1
 44
0.0
176
     1
173
     0
176
     1
  0
VISUALSTYLE
  5
3110
102
{ACAD_REACTORS
330
3108
102
}
330
3108
100
AcDbVisualStyle
  2
3D Hidden
 70
     6
177
     2
291
     0
 71
     1
176
     1
 72
     2
176
     1
 73
     2
176
     1
 90
        0
176
     1
 40
0.6
176
     1
 41
30.0
176
     1
 63
     7
176
     1
 74
     2
176
     1
 91
        2
176
     1
 64
     7
176
     1
 65
   257
176
     1
 75
     2
176
     1
175
     1
176
     1
 42
40.0
176
     1
 92
        0
176
     1
 66
   257
176
     1
 43
1.0
176
     1
 76
     1
176
     1
 77
     6
176
     1
 78
     2
176
     1
 67
     7
176
     1
 79
     3
176
     1
170
     0
176
     1
171
     0
176
     1
290
     0
176
     1
 93
        1
176
     1
 44
0.0
176
     1
173
     0
176
     1
  0
VISUALSTYLE
  5
310F
102
{ACAD_REACTORS
330
3108
102
}
330
3108
100
AcDbVisualStyle
  2
3dWireframe
 70
     5
177
     2
291
     0
 71
     0
176
     1
 72
     2
176
     1
 73
     0
176
     1
 90
        0
176
     1
 40
0.6
176
     1
 41
30.0
176
     1
 63
     7
176
     1
 74
     1
176
     1
 91
        4
176
     1
 64
     7
176
     1
 65
   257
176
     1
 75
     1
176
     1
175
     1
176
     1
 42
1.0
176
     1
 92
        0
176
     1
 66
   257
176
     1
 43
1.0
176
     1
 76
     1
176
     1
 77
     6
176
     1
 78
     2
176
     1
 67
     7
176
     1
 79
     5
176
     1
170
     0
176
     1
171
     0
176
     1
290
     0
176
     1
 93
        1
176
     1
 44
0.0
176
     1
173
     0
176
     1
  0
VISUALSTYLE
  5
310D
102
{ACAD_REACTORS
330
3108
102
}
330
3108
100
AcDbVisualStyle
  2
Basic
 70
     7
177
     2
291
     1
 71
     1
176
     1
 72
     0
176
     1
 73
     1
176
     1
 90
        0
176
     1
 40
0.6
176
     1
 41
30.0
176
     1
 63
     7
176
     1
 74
     0
176
     1
 91
        4
176
     1
 64
     7
176
     1
 65
   257
176
     1
 75
     1
176
     1
175
     1
176
     1
 42
1.0
176
     1
 92
        8
176
     1
 66
     7
176
     1
 43
1.0
176
     1
 76
     1
176
     1
 77
     6
176
     1
 78
     2
176
     1
 67
     7
176
     1
 79
     5
176
     1
170
     0
176
     1
171
     0
176
     1
290
     0
176
     1
 93
        1
176
     1
 44
0.0
176
     1
173
     0
176
     1
  0
VISUALSTYLE
  5
3114
102
{ACAD_REACTORS
330
3108
102
}
330
3108
100
AcDbVisualStyle
  2
Brighten
 70
    12
177
     2
291
     1
 71
     2
176
     1
 72
     2
176
     1
 73
     0
176
     1
 90
        0
176
     1
 40
0.6
176
     1
 41
30.0
176
     1
 63
     7
176
     1
 74
     1
176
     1
 91
        4
176
     1
 64
     7
176
     1
 65
   257
176
     1
 75
     1
176
     1
175
     1
176
     1
 42
1.0
176
     1
 92
        8
176
     1
 66
     7
176
     1
 43
1.0
176
     1
 76
     1
176
     1
 77
     6
176
     1
 78
     2
176
     1
 67
     7
176
     1
 79
     5
176
     1
170
     0
176
     1
171
     0
176
     1
290
     0
176
     1
 93
        1
176
     1
 44
50.0
176
     1
173
     0
176
     1
  0
VISUALSTYLE
  5
3118
102
{ACAD_REACTORS
330
3108
102
}
330
3108
100
AcDbVisualStyle
  2
ColorChange
 70
    16
177
     2
291
     1
 71
     2
176
     1
 72
     2
176
     1
 73
     3
176
     1
 90
        0
176
     1
 40
0.6
176
     1
 41
30.0
176
     1
 63
     8
176
     1
 74
     1
176
     1
 91
        4
176
     1
 64
     7
176
     1
 65
   257
176
     1
 75
     1
176
     1
175
     1
176
     1
 42
1.0
176
     1
 92
        8
176
     1
 66
     8
176
     1
 43
1.0
176
     1
 76
     1
176
     1
 77
     6
176
     1
 78
     2
176
     1
 67
     7
176
     1
 79
     5
176
     1
170
     0
176
     1
171
     0
176
     1
290
     0
176
     1
 93
        1
176
     1
 44
0.0
176
     1
173
     0
176
     1
  0
VISUALSTYLE
  5
3111
102
{ACAD_REACTORS
330
3108
102
}
330
3108
100
AcDbVisualStyle
  2
Conceptual
 70
     9
177
     2
291
     0
 71
     3
176
     1
 72
     2
176
     1
 73
     0
176
     1
 90
        0
176
     1
 40
0.6
176
     1
 41
30.0
176
     1
 63
     7
176
     1
 74
     2
176
     1
 91
        2
176
     1
 64
     7
176
     1
 65
   257
176
     1
 75
     1
176
     1
175
     1
176
     1
 42
40.0
176
     1
 92
        8
176
     1
 66
     7
176
     1
 43
1.0
176
     1
 76
     1
176
     1
 77
     6
176
     1
 78
     2
176
     1
 67
     7
176
     1
 79
     3
176
     1
170
     0
176
     1
171
     0
176
     1
290
     0
176
     1
 93
        1
176
     1
 44
0.0
176
     1
173
     0
176
     1
  0
VISUALSTYLE
  5
3113
102
{ACAD_REACTORS
330
3108
102
}
330
3108
100
AcDbVisualStyle
  2
Dim
 70
    11
177
     2
291
     1
 71
     2
176
     1
 72
     2
176
     1
 73
     0
176
     1
 90
        0
176
     1
 40
0.6
176
     1
 41
30.0
176
     1
 63
     7
176
     1
 74
     1
176
     1
 91
        4
176
     1
 64
     7
176
     1
 65
   257
176
     1
 75
     1
176
     1
175
     1
176
     1
 42
1.0
176
     1
 92
        8
176
     1
 66
     7
176
     1
 43
1.0
176
     1
 76
     1
176
     1
 77
     6
176
     1
 78
     2
176
     1
 67
     7
176
     1
 79
     5
176
     1
170
     0
176
     1
171
     0
176
     1
290
     0
176
     1
 93
        1
176
     1
 44
-50.0
176
     1
173
     0
176
     1
  0
VISUALSTYLE
  5
39BF
102
{ACAD_REACTORS
330
3108
102
}
330
3108
100
AcDbVisualStyle
  2
EdgeColorOff
 70
    22
177
     2
291
     1
 71
     2
176
     0
 72
     2
176
     0
 73
     0
176
     0
 90
        0
176
     0
 40
0.6
176
     0
 41
30.0
176
     0
 63
     7
421
 16777215
176
     0
 74
     1
176
     0
 91
        4
176
     0
 64
     7
176
     0
 65
   257
176
     0
 75
     1
176
     0
175
     1
176
     0
 42
1.0
176
     0
 92
        8
176
     2
 66
     7
176
     0
 43
1.0
176
     0
 76
     1
176
     0
 77
     6
176
     0
 78
     2
176
     0
 67
     7
176
     0
 79
     5
176
     0
170
     0
176
     0
171
     0
176
     0
290
     0
176
     0
 93
        1
176
     0
 44
0.0
176
     0
173
     0
176
     0
  0
VISUALSTYLE
  5
3117
102
{ACAD_REACTORS
330
3108
102
}
330
3108
100
AcDbVisualStyle
  2
Facepattern
 70
    15
177
     2
291
     1
 71
     2
176
     1
 72
     2
176
     1
 73
     0
176
     1
 90
        0
176
     1
 40
0.6
176
     1
 41
30.0
176
     1
 63
     7
176
     1
 74
     1
176
     1
 91
        4
176
     1
 64
     7
176
     1
 65
   257
176
     1
 75
     1
176
     1
175
     1
176
     1
 42
1.0
176
     1
 92
        8
176
     1
 66
     7
176
     1
 43
1.0
176
     1
 76
     1
176
     1
 77
     6
176
     1
 78
     2
176
     1
 67
     7
176
     1
 79
     5
176
     1
170
     0
176
     1
171
     0
176
     1
290
     0
176
     1
 93
        1
176
     1
 44
0.0
176
     1
173
     0
176
     1
  0
VISUALSTYLE
  5
3109
102
{ACAD_REACTORS
330
3108
102
}
330
3108
100
AcDbVisualStyle
  2
Flat
 70
     0
177
     2
291
     1
 71
     2
176
     1
 72
     1
176
     1
 73
     1
176
     1
 90
        2
176
     1
 40
0.6
176
     1
 41
30.0
176
     1
 63
     7
176
     1
 74
     0
176
     1
 91
        4
176
     1
 64
     7
176
     1
 65
   257
176
     1
 75
     1
176
     1
175
     1
176
     1
 42
1.0
176
     1
 92
        8
176
     1
 66
     7
176
     1
 43
1.0
176
     1
 76
     1
176
     1
 77
     6
176
     1
 78
     2
176
     1
 67
     7
176
     1
 79
     5
176
     1
170
     0
176
     1
171
     0
176
     1
290
     0
176
     1
 93
       13
176
     1
 44
0.0
176
     1
173
     0
176
     1
  0
VISUALSTYLE
  5
310A
102
{ACAD_REACTORS
330
3108
102
}
330
3108
100
AcDbVisualStyle
  2
FlatWithEdges
 70
     1
177
     2
291
     1
 71
     2
176
     1
 72
     1
176
     1
 73
     1
176
     1
 90
        2
176
     1
 40
0.6
176
     1
 41
30.0
176
     1
 63
     7
176
     1
 74
     1
176
     1
 91
        4
176
     1
 64
     7
176
     1
 65
   257
176
     1
 75
     1
176
     1
175
     1
176
     1
 42
1.0
176
     1
 92
        0
176
     1
 66
   257
176
     1
 43
1.0
176
     1
 76
     1
176
     1
 77
     6
176
     1
 78
     2
176
     1
 67
     7
176
     1
 79
     5
176
     1
170
     0
176
     1
171
     0
176
     1
290
     0
176
     1
 93
       13
176
     1
 44
0.0
176
     1
173
     0
176
     1
  0
VISUALSTYLE
  5
310B
102
{ACAD_REACTORS
330
3108
102
}
330
3108
100
AcDbVisualStyle
  2
Gouraud
 70
     2
177
     2
291
     1
 71
     2
176
     1
 72
     2
176
     1
 73
     1
176
     1
 90
        2
176
     1
 40
0.6
176
     1
 41
30.0
176
     1
 63
     7
176
     1
 74
     0
176
     1
 91
        4
176
     1
 64
     7
176
     1
 65
   257
176
     1
 75
     1
176
     1
175
     1
176
     1
 42
1.0
176
     1
 92
        0
176
     1
 66
     7
176
     1
 43
1.0
176
     1
 76
     1
176
     1
 77
     6
176
     1
 78
     2
176
     1
 67
     7
176
     1
 79
     5
176
     1
170
     0
176
     1
171
     0
176
     1
290
     0
176
     1
 93
       13
176
     1
 44
0.0
176
     1
173
     0
176
     1
  0
VISUALSTYLE
  5
310C
102
{ACAD_REACTORS
330
3108
102
}
330
3108
100
AcDbVisualStyle
  2
GouraudWithEdges
 70
     3
177
     2
291
     1
 71
     2
176
     1
 72
     2
176
     1
 73
     1
176
     1
 90
        2
176
     1
 40
0.6
176
     1
 41
30.0
176
     1
 63
     7
176
     1
 74
     1
176
     1
 91
        4
176
     1
 64
     7
176
     1
 65
   257
176
     1
 75
     1
176
     1
175
     1
176
     1
 42
1.0
176
     1
 92
        0
176
     1
 66
   257
176
     1
 43
1.0
176
     1
 76
     1
176
     1
 77
     6
176
     1
 78
     2
176
     1
 67
     7
176
     1
 79
     5
176
     1
170
     0
176
     1
171
     0
176
     1
290
     0
176
     1
 93
       13
176
     1
 44
0.0
176
     1
173
     0
176
     1
  0
VISUALSTYLE
  5
39B7
102
{ACAD_REACTORS
330
3108
102
}
330
3108
100
AcDbVisualStyle
  2
Hidden
 70
     6
177
     2
291
     0
 71
     1
176
     1
 72
     2
176
     1
 73
     2
176
     1
 90
        0
176
     1
 40
0.6
176
     1
 41
30.0
176
     1
 63
     7
421
 16777215
176
     1
 74
     2
176
     1
 91
        2
176
     1
 64
     7
176
     1
 65
   257
176
     1
 75
     2
176
     1
175
     1
176
     1
 42
40.0
176
     1
 92
        0
176
     1
 66
   257
176
     1
 43
1.0
176
     1
 76
     1
176
     1
 77
     6
176
     1
 78
     2
176
     1
 67
     7
176
     1
 79
     3
176
     1
170
     0
176
     1
171
     0
176
     1
290
     0
176
     1
 93
        1
176
     1
 44
0.0
176
     1
173
     0
176
     1
  0
VISUALSTYLE
  5
39BD
102
{ACAD_REACTORS
330
3108
102
}
330
3108
100
AcDbVisualStyle
  2
JitterOff
 70
    20
177
     2
291
     1
 71
     2
176
     0
 72
     2
176
     0
 73
     0
176
     0
 90
        0
176
     0
 40
0.6
176
     0
 41
30.0
176
     0
 63
     7
421
 16777215
176
     0
 74
     1
176
     0
 91
        4
176
     0
 64
     7
176
     0
 65
   257
176
     0
 75
     1
176
     0
175
     1
176
     0
 42
1.0
176
     0
 92
       10
176
     2
 66
     7
176
     0
 43
1.0
176
     0
 76
     1
176
     0
 77
     6
176
     0
 78
     2
176
     0
 67
     7
176
     0
 79
     5
176
     0
170
     0
176
     0
171
     0
176
     0
290
     0
176
     0
 93
        1
176
     0
 44
0.0
176
     0
173
     0
176
     0
  0
VISUALSTYLE
  5
3116
102
{ACAD_REACTORS
330
3108
102
}
330
3108
100
AcDbVisualStyle
  2
Linepattern
 70
    14
177
     2
291
     1
 71
     2
176
     1
 72
     2
176
     1
 73
     0
176
     1
 90
        0
176
     1
 40
0.6
176
     1
 41
30.0
176
     1
 63
     7
176
     1
 74
     1
176
     1
 91
        4
176
     1
 64
     7
176
     1
 65
   257
176
     1
 75
     7
176
     1
175
     7
176
     1
 42
1.0
176
     1
 92
        8
176
     1
 66
     7
176
     1
 43
1.0
176
     1
 76
     1
176
     1
 77
     6
176
     1
 78
     2
176
     1
 67
     7
176
     1
 79
     5
176
     1
170
     0
176
     1
171
     0
176
     1
290
     0
176
     1
 93
        1
176
     1
 44
0.0
176
     1
173
     0
176
     1
  0
VISUALSTYLE
  5
39BE
102
{ACAD_REACTORS
330
3108
102
}
330
3108
100
AcDbVisualStyle
  2
OverhangOff
 70
    21
177
     2
291
     1
 71
     2
176
     0
 72
     2
176
     0
 73
     0
176
     0
 90
        0
176
     0
 40
0.6
176
     0
 41
30.0
176
     0
 63
     7
421
 16777215
176
     0
 74
     1
176
     0
 91
        4
176
     0
 64
     7
176
     0
 65
   257
176
     0
 75
     1
176
     0
175
     1
176
     0
 42
1.0
176
     0
 92
        9
176
     2
 66
     7
176
     0
 43
1.0
176
     0
 76
     1
176
     0
 77
     6
176
     0
 78
     2
176
     0
 67
     7
176
     0
 79
     5
176
     0
170
     0
176
     0
171
     0
176
     0
290
     0
176
     0
 93
        1
176
     0
 44
0.0
176
     0
173
     0
176
     0
  0
VISUALSTYLE
  5
3112
102
{ACAD_REACTORS
330
3108
102
}
330
3108
100
AcDbVisualStyle
  2
Realistic
 70
     8
177
     2
291
     0
 71
     2
176
     1
 72
     2
176
     1
 73
     0
176
     1
 90
        0
176
     1
 40
0.6
176
     1
 41
30.0
176
     1
 63
     7
176
     1
 74
     1
176
     1
 91
        0
176
     1
 64
     7
176
     1
 65
   257
176
     1
 75
     1
176
     1
175
     1
176
     1
 42
1.0
176
     1
 92
        8
176
     1
 66
     8
176
     1
 43
1.0
176
     1
 76
     1
176
     1
 77
     6
176
     1
 78
     2
176
     1
 67
     7
176
     1
 79
     5
176
     1
170
     0
176
     1
171
     0
176
     1
290
     0
176
     1
 93
       13
176
     1
 44
0.0
176
     1
173
     0
176
     1
  0
VISUALSTYLE
  5
39BC
102
{ACAD_REACTORS
330
3108
102
}
330
3108
100
AcDbVisualStyle
  2
Shaded
 70
    27
177
     2
291
     0
 71
     2
176
     1
 72
     2
176
     1
 73
     1
176
     1
 90
        2
176
     1
 40
0.6
176
     1
 41
30.0
176
     1
 63
     7
421
 16777215
176
     1
 74
     0
176
     1
 91
        4
176
     1
 64
     7
176
     1
 65
   257
176
     1
 75
     1
176
     1
175
     1
176
     1
 42
1.0
176
     1
 92
        8
176
     1
 66
   257
176
     1
 43
1.0
176
     1
 76
     1
176
     1
 77
     6
176
     1
 78
     2
176
     1
 67
     8
425
  7895160
176
     1
 79
     3
176
     1
170
     0
176
     1
171
     0
176
     1
290
     0
176
     1
 93
        5
176
     1
 44
0.0
176
     1
173
     0
176
     1
  0
VISUALSTYLE
  5
39BB
102
{ACAD_REACTORS
330
3108
102
}
330
3108
100
AcDbVisualStyle
  2
Shaded with edges
 70
    26
177
     2
291
     0
 71
     2
176
     1
 72
     2
176
     1
 73
     1
176
     1
 90
        2
176
     1
 40
0.6
176
     1
 41
30.0
176
     1
 63
     7
421
 16777215
176
     1
 74
     1
176
     1
 91
       10
176
     1
 64
     7
176
     1
 65
   257
176
     1
 75
     2
176
     1
175
     1
176
     1
 42
1.0
176
     1
 92
        8
176
     1
 66
   257
176
     1
 43
1.0
176
     1
 76
     1
176
     1
 77
     6
176
     1
 78
     2
176
     1
 67
     7
176
     1
 79
     3
176
     1
170
     0
176
     1
171
     0
176
     1
290
     0
176
     1
 93
        5
176
     1
 44
0.0
176
     1
173
     0
176
     1
  0
VISUALSTYLE
  5
39B8
102
{ACAD_REACTORS
330
3108
102
}
330
3108
100
AcDbVisualStyle
  2
Shades of Gray
 70
    23
177
     2
291
     0
 71
     2
176
     1
 72
     2
176
     1
 73
     3
176
     1
 90
        0
176
     1
 40
0.6
176
     1
 41
30.0
176
     1
 63
     7
421
 16777215
176
     1
 74
     2
176
     1
 91
        2
176
     1
 64
     7
176
     1
 65
     7
176
     1
 75
     1
176
     1
175
     1
176
     1
 42
40.0
176
     1
 92
        8
176
     1
 66
     7
176
     1
 43
1.0
176
     1
 76
     1
176
     1
 77
     6
176
     1
 78
     2
176
     1
 67
     7
176
     1
 79
     3
176
     1
170
     0
176
     1
171
     0
176
     1
290
     0
176
     1
 93
        1
176
     1
 44
0.0
176
     1
173
     0
176
     1
  0
VISUALSTYLE
  5
39B9
102
{ACAD_REACTORS
330
3108
102
}
330
3108
100
AcDbVisualStyle
  2
Sketchy
 70
    24
177
     2
291
     0
 71
     1
176
     1
 72
     2
176
     1
 73
     2
176
     1
 90
        0
176
     1
 40
0.6
176
     1
 41
30.0
176
     1
 63
     7
421
 16777215
176
     1
 74
     2
176
     1
 91
        2
176
     1
 64
     7
176
     1
 65
     7
176
     1
 75
     1
176
     1
175
     1
176
     1
 42
40.0
176
     1
 92
       11
176
     1
 66
     7
176
     1
 43
1.0
176
     1
 76
     1
176
     1
 77
     6
176
     1
 78
     2
176
     1
 67
     7
176
     1
 79
     6
176
     1
170
     0
176
     1
171
     0
176
     1
290
     0
176
     1
 93
        1
176
     1
 44
0.0
176
     1
173
     0
176
     1
  0
VISUALSTYLE
  5
3115
102
{ACAD_REACTORS
330
3108
102
}
330
3108
100
AcDbVisualStyle
  2
Thicken
 70
    13
177
     2
291
     1
 71
     2
176
     1
 72
     2
176
     1
 73
     0
176
     1
 90
        0
176
     1
 40
0.6
176
     1
 41
30.0
176
     1
 63
     7
176
     1
 74
     1
176
     1
 91
        4
176
     1
 64
     7
176
     1
 65
   257
176
     1
 75
     1
176
     1
175
     1
176
     1
 42
1.0
176
     1
 92
       12
176
     1
 66
     7
176
     1
 43
1.0
176
     1
 76
     1
176
     1
 77
     6
176
     1
 78
     2
176
     1
 67
     7
176
     1
 79
     5
176
     1
170
     0
176
     1
171
     0
176
     1
290
     0
176
     1
 93
        1
176
     1
 44
0.0
176
     1
173
     0
176
     1
  0
VISUALSTYLE
  5
39B6
102
{ACAD_REACTORS
330
3108
102
}
330
3108
100
AcDbVisualStyle
  2
Wireframe
 70
     5
177
     2
291
     0
 71
     0
176
     1
 72
     2
176
     1
 73
     0
176
     1
 90
        0
176
     1
 40
0.6
176
     1
 41
30.0
176
     1
 63
     7
421
 16777215
176
     1
 74
     1
176
     1
 91
        4
176
     1
 64
     7
176
     1
 65
   257
176
     1
 75
     1
176
     1
175
     1
176
     1
 42
1.0
176
     1
 92
        0
176
     1
 66
   257
176
     1
 43
1.0
176
     1
 76
     1
176
     1
 77
     6
176
     1
 78
     2
176
     1
 67
     7
176
     1
 79
     3
176
     1
170
     0
176
     1
171
     0
176
     1
290
     0
176
     1
 93
        1
176
     1
 44
0.0
176
     1
173
     0
176
     1
  0
VISUALSTYLE
  5
39BA
102
{ACAD_REACTORS
330
3108
102
}
330
3108
100
AcDbVisualStyle
  2
X-Ray
 70
    25
177
     2
291
     0
 71
     2
176
     1
 72
     2
176
     1
 73
     1
176
     1
 90
        1
176
     1
 40
0.5
176
     1
 41
30.0
176
     1
 63
     7
421
 16777215
176
     1
 74
     1
176
     1
 91
        0
176
     1
 64
     7
176
     1
 65
   257
176
     1
 75
     1
176
     1
175
     1
176
     1
 42
1.0
176
     1
 92
        8
176
     1
 66
     7
176
     1
 43
1.0
176
     1
 76
     1
176
     1
 77
     6
176
     1
 78
     2
176
     1
 67
     7
176
     1
 79
     3
176
     1
170
     0
176
     1
171
     0
176
     1
290
     0
176
     1
 93
       13
176
     1
 44
0.0
176
     1
173
     0
176
     1
  0
DICTIONARYVAR
  5
378C
102
{ACAD_REACTORS
330
55
102
}
330
55
100
DictionaryVariables
280
     0
  1
1:1
  0
DICTIONARYVAR
  5
378A
102
{ACAD_REACTORS
330
55
102
}
330
55
100
DictionaryVariables
280
     0
  1
STANDARD
  0
DICTIONARYVAR
  5
926
102
{ACAD_REACTORS
330
55
102
}
330
55
100
DictionaryVariables
280
     0
  1
STANDARD
  0
DICTIONARYVAR
  5
39B4
102
{ACAD_REACTORS
330
55
102
}
330
55
100
DictionaryVariables
280
     0
  1
1
  0
DICTIONARYVAR
  5
56
102
{ACAD_REACTORS
330
55
102
}
330
55
100
DictionaryVariables
280
     0
  1
0
  0
DICTIONARYVAR
  5
39C7
102
{ACAD_REACTORS
330
55
102
}
330
55
100
DictionaryVariables
280
     0
  1
1
  0
DICTIONARYVAR
  5
39C8
102
{ACAD_REACTORS
330
55
102
}
330
55
100
DictionaryVariables
280
     0
  1
15
  0
DICTIONARYVAR
  5
378D
102
{ACAD_REACTORS
330
55
102
}
330
55
100
DictionaryVariables
280
     0
  1
0
  0
DICTIONARYVAR
  5
378B
102
{ACAD_REACTORS
330
55
102
}
330
55
100
DictionaryVariables
280
     0
  1
0
  0
DICTIONARYVAR
  5
39B3
102
{ACAD_REACTORS
330
55
102
}
330
55
100
DictionaryVariables
280
     0
  1
127
  0
DICTIONARY
  5
665
102
{ACAD_REACTORS
330
64
102
}
330
64
100
AcDbDictionary
281
     1
  0
XRECORD
  5
869
102
{ACAD_REACTORS
330
64
102
}
330
64
100
AcDbXrecord
280
     1
 90
-1023410169
  0
XRECORD
  5
30D1
102
{ACAD_REACTORS
330
30CF
102
}
330
30CF
100
AcDbXrecord
280
     1
330
C78
330
C79
330
C7A
330
0
330
C97
330
C98
330
C99
330
C9B
330
C9C
330
C9D
330
C9F
330
CA0
330
CA1
330
0
330
CA7
330
CA8
330
CAA
330
CAB
  0
DICTIONARY
  5
30F9
330
30F8
100
AcDbDictionary
280
     1
281
     1
  3
BUMPTILE
360
30FB
  3
DIFFUSETILE
360
30FA
  3
OPACITYTILE
360
30FE
  3
REFLECTIONTILE
360
30FD
  3
REFRACTIONTILE
360
30FF
  3
SPECULARTILE
360
30FC
  0
DICTIONARY
  5
30F1
330
30F0
100
AcDbDictionary
280
     1
281
     1
  3
BUMPTILE
360
30F3
  3
DIFFUSETILE
360
30F2
  3
OPACITYTILE
360
30F6
  3
REFLECTIONTILE
360
30F5
  3
REFRACTIONTILE
360
30F7
  3
SPECULARTILE
360
30F4
  0
DICTIONARY
  5
3101
330
3100
100
AcDbDictionary
280
     1
281
     1
  3
BUMPTILE
360
3103
  3
DIFFUSETILE
360
3102
  3
OPACITYTILE
360
3106
  3
REFLECTIONTILE
360
3105
  3
REFRACTIONTILE
360
3107
  3
SPECULARTILE
360
3104
  0
DICTIONARY
  5
3787
330
812
100
AcDbDictionary
280
     1
281
     1
  3
ACAD_ROUNDTRIP_2008_TABLESTYLE_CELLSTYLEMAP
360
39CA
  0
XRECORD
  5
30FB
102
{ACAD_REACTORS
330
30F9
102
}
330
30F9
100
AcDbXrecord
280
     1
270
     1
271
     1
  0
XRECORD
  5
30FA
102
{ACAD_REACTORS
330
30F9
102
}
330
30F9
100
AcDbXrecord
280
     1
270
     1
271
     1
  0
XRECORD
  5
30FE
102
{ACAD_REACTORS
330
30F9
102
}
330
30F9
100
AcDbXrecord
280
     1
270
     1
271
     1
  0
XRECORD
  5
30FD
102
{ACAD_REACTORS
330
30F9
102
}
330
30F9
100
AcDbXrecord
280
     1
270
     1
271
     1
  0
XRECORD
  5
30FF
102
{ACAD_REACTORS
330
30F9
102
}
330
30F9
100
AcDbXrecord
280
     1
270
     1
271
     1
  0
XRECORD
  5
30FC
102
{ACAD_REACTORS
330
30F9
102
}
330
30F9
100
AcDbXrecord
280
     1
270
     1
271
     1
  0
XRECORD
  5
30F3
102
{ACAD_REACTORS
330
30F1
102
}
330
30F1
100
AcDbXrecord
280
     1
270
     1
271
     1
  0
XRECORD
  5
30F2
102
{ACAD_REACTORS
330
30F1
102
}
330
30F1
100
AcDbXrecord
280
     1
270
     1
271
     1
  0
XRECORD
  5
30F6
102
{ACAD_REACTORS
330
30F1
102
}
330
30F1
100
AcDbXrecord
280
     1
270
     1
271
     1
  0
XRECORD
  5
30F5
102
{ACAD_REACTORS
330
30F1
102
}
330
30F1
100
AcDbXrecord
280
     1
270
     1
271
     1
  0
XRECORD
  5
30F7
102
{ACAD_REACTORS
330
30F1
102
}
330
30F1
100
AcDbXrecord
280
     1
270
     1
271
     1
  0
XRECORD
  5
30F4
102
{ACAD_REACTORS
330
30F1
102
}
330
30F1
100
AcDbXrecord
280
     1
270
     1
271
     1
  0
XRECORD
  5
3103
102
{ACAD_REACTORS
330
3101
102
}
330
3101
100
AcDbXrecord
280
     1
270
     1
271
     1
  0
XRECORD
  5
3102
102
{ACAD_REACTORS
330
3101
102
}
330
3101
100
AcDbXrecord
280
     1
270
     1
271
     1
  0
XRECORD
  5
3106
102
{ACAD_REACTORS
330
3101
102
}
330
3101
100
AcDbXrecord
280
     1
270
     1
271
     1
  0
XRECORD
  5
3105
102
{ACAD_REACTORS
330
3101
102
}
330
3101
100
AcDbXrecord
280
     1
270
     1
271
     1
  0
XRECORD
  5
3107
102
{ACAD_REACTORS
330
3101
102
}
330
3101
100
AcDbXrecord
280
     1
270
     1
271
     1
  0
XRECORD
  5
3104
102
{ACAD_REACTORS
330
3101
102
}
330
3101
100
AcDbXrecord
280
     1
270
     1
271
     1
  0
CELLSTYLEMAP
  5
39CA
102
{ACAD_REACTORS
330
3787
102
}
330
3787
100
AcDbCellStyleMap
 90
        3
300
CELLSTYLE
  1
TABLEFORMAT_BEGIN
 90
        5
170
     1
 91
        0
 92
    32768
 62
   257
 93
        1
300
CONTENTFORMAT
  1
CONTENTFORMAT_BEGIN
 90
        0
 91
        0
 92
        4
 93
        0
300

 40
0.0
140
1.0
 94
        5
 62
     0
340
11
144
6.0
309
CONTENTFORMAT_END
171
     1
301
MARGIN
  1
CELLMARGIN_BEGIN
 40
1.5
 40
1.5
 40
1.5
 40
1.5
 40
0.18
 40
0.18
309
CELLMARGIN_END
 94
        6
 95
        1
302
GRIDFORMAT
  1
GRIDFORMAT_BEGIN
 90
        0
 91
        1
 62
     0
 92
       -2
340
0
 93
        0
 40
0.045
309
GRIDFORMAT_END
 95
        2
302
GRIDFORMAT
  1
GRIDFORMAT_BEGIN
 90
        0
 91
        1
 62
     0
 92
       -2
340
0
 93
        0
 40
0.045
309
GRIDFORMAT_END
 95
        4
302
GRIDFORMAT
  1
GRIDFORMAT_BEGIN
 90
        0
 91
        1
 62
     0
 92
       -2
340
0
 93
        0
 40
0.045
309
GRIDFORMAT_END
 95
        8
302
GRIDFORMAT
  1
GRIDFORMAT_BEGIN
 90
        0
 91
        1
 62
     0
 92
       -2
340
0
 93
        0
 40
0.045
309
GRIDFORMAT_END
 95
       16
302
GRIDFORMAT
  1
GRIDFORMAT_BEGIN
 90
        0
 91
        1
 62
     0
 92
       -2
340
0
 93
        0
 40
0.045
309
GRIDFORMAT_END
 95
       32
302
GRIDFORMAT
  1
GRIDFORMAT_BEGIN
 90
        0
 91
        1
 62
     0
 92
       -2
340
0
 93
        0
 40
0.045
309
GRIDFORMAT_END
309
TABLEFORMAT_END
  1
CELLSTYLE_BEGIN
 90
        1
 91
        1
300
_TITLE
309
CELLSTYLE_END
300
CELLSTYLE
  1
TABLEFORMAT_BEGIN
 90
        5
170
     1
 91
        0
 92
        0
 62
   257
 93
        1
300
CONTENTFORMAT
  1
CONTENTFORMAT_BEGIN
 90
        0
 91
        0
 92
        4
 93
        0
300

 40
0.0
140
1.0
 94
        5
 62
     0
340
11
144
4.5
309
CONTENTFORMAT_END
171
     1
301
MARGIN
  1
CELLMARGIN_BEGIN
 40
1.5
 40
1.5
 40
1.5
 40
1.5
 40
0.18
 40
0.18
309
CELLMARGIN_END
 94
        6
 95
        1
302
GRIDFORMAT
  1
GRIDFORMAT_BEGIN
 90
        0
 91
        1
 62
     0
 92
       -2
340
0
 93
        0
 40
0.045
309
GRIDFORMAT_END
 95
        2
302
GRIDFORMAT
  1
GRIDFORMAT_BEGIN
 90
        0
 91
        1
 62
     0
 92
       -2
340
0
 93
        0
 40
0.045
309
GRIDFORMAT_END
 95
        4
302
GRIDFORMAT
  1
GRIDFORMAT_BEGIN
 90
        0
 91
        1
 62
     0
 92
       -2
340
0
 93
        0
 40
0.045
309
GRIDFORMAT_END
 95
        8
302
GRIDFORMAT
  1
GRIDFORMAT_BEGIN
 90
        0
 91
        1
 62
     0
 92
       -2
340
0
 93
        0
 40
0.045
309
GRIDFORMAT_END
 95
       16
302
GRIDFORMAT
  1
GRIDFORMAT_BEGIN
 90
        0
 91
        1
 62
     0
 92
       -2
340
0
 93
        0
 40
0.045
309
GRIDFORMAT_END
 95
       32
302
GRIDFORMAT
  1
GRIDFORMAT_BEGIN
 90
        0
 91
        1
 62
     0
 92
       -2
340
0
 93
        0
 40
0.045
309
GRIDFORMAT_END
309
TABLEFORMAT_END
  1
CELLSTYLE_BEGIN
 90
        2
 91
        1
300
_HEADER
309
CELLSTYLE_END
300
CELLSTYLE
  1
TABLEFORMAT_BEGIN
 90
        5
170
     1
 91
        0
 92
        0
 62
   257
 93
        1
300
CONTENTFORMAT
  1
CONTENTFORMAT_BEGIN
 90
        0
 91
        0
 92
        4
 93
        0
300

 40
0.0
140
1.0
 94
        2
 62
     0
340
11
144
4.5
309
CONTENTFORMAT_END
171
     1
301
MARGIN
  1
CELLMARGIN_BEGIN
 40
1.5
 40
1.5
 40
1.5
 40
1.5
 40
0.18
 40
0.18
309
CELLMARGIN_END
 94
        6
 95
        1
302
GRIDFORMAT
  1
GRIDFORMAT_BEGIN
 90
        0
 91
        1
 62
     0
 92
       -2
340
0
 93
        0
 40
0.045
309
GRIDFORMAT_END
 95
        2
302
GRIDFORMAT
  1
GRIDFORMAT_BEGIN
 90
        0
 91
        1
 62
     0
 92
       -2
340
0
 93
        0
 40
0.045
309
GRIDFORMAT_END
 95
        4
302
GRIDFORMAT
  1
GRIDFORMAT_BEGIN
 90
        0
 91
        1
 62
     0
 92
       -2
340
0
 93
        0
 40
0.045
309
GRIDFORMAT_END
 95
        8
302
GRIDFORMAT
  1
GRIDFORMAT_BEGIN
 90
        0
 91
        1
 62
     0
 92
       -2
340
0
 93
        0
 40
0.045
309
GRIDFORMAT_END
 95
       16
302
GRIDFORMAT
  1
GRIDFORMAT_BEGIN
 90
        0
 91
        1
 62
     0
 92
       -2
340
0
 93
        0
 40
0.045
309
GRIDFORMAT_END
 95
       32
302
GRIDFORMAT
  1
GRIDFORMAT_BEGIN
 90
        0
 91
        1
 62
     0
 92
       -2
340
0
 93
        0
 40
0.045
309
GRIDFORMAT_END
309
TABLEFORMAT_END
  1
CELLSTYLE_BEGIN
 90
        3
 91
        2
300
_DATA
309
CELLSTYLE_END
  0
ENDSEC
  0
EOF
