0
SECTION
2
HEADER
9
$EXTMIN
10
 0
20
 100
30
0.0
9
$EXTMAX
10
 0
20
 100
30
0.0
9
$LIMMIN
10
 100
20
 0
9
$LIMMAX
10
 0
20
 100
9
$PSLTSCALE
70
1
0
ENDSEC
0
SECTION
2
TABLES
0
TABLE
2
LAYER
70
2
0
LAYER
2
0
70
0
62
7
6
CONTINUOUS
0
LAYER
2
Halfen
70
0
62
7
6
CONTINUOUS
0
ENDTAB
0
ENDSEC
0
SECTION
2
ENTITIES
0
POLYLINE
8
Halfen
62
7
66
1
10
0.0
20
0.0
30
0.0
70
1
0
VERTEX
8
Halfen
62
7
10
 0
20
-73.5
30
0
0
VERTEX
8
Halfen
62
7
10
 500
20
-73.5
30
0
0
VERTEX
8
Halfen
62
7
10
 500
20
 73.5
30
0
0
VERTEX
8
Halfen
62
7
10
 0
20
 73.5
30
0
0
SEQEND
8
Halfen
0
POLYLINE
8
Halfen
62
7
66
1
10
0.0
20
0.0
30
0.0
70
1
0
VERTEX
8
Halfen
62
7
10
 0
20
-60
30
0
0
VERTEX
8
Halfen
62
7
10
 500
20
-60
30
0
0
VERTEX
8
Halfen
62
7
10
 500
20
 60
30
0
0
VERTEX
8
Halfen
62
7
10
 0
20
 60
30
0
0
SEQEND
8
Halfen
0
POLYLINE
8
Halfen
62
7
66
1
10
0.0
20
0.0
30
0.0
70
1
0
VERTEX
8
Halfen
62
7
10
 20
20
-32.5
30
0
0
VERTEX
8
Halfen
62
7
10
 37
20
-1.5
30
0
0
VERTEX
8
Halfen
62
7
10
 28
20
-1.5
30
0
0
VERTEX
8
Halfen
62
7
10
 28
20
 32.5
30
0
0
VERTEX
8
Halfen
62
7
10
 12
20
 32.5
30
0
0
VERTEX
8
Halfen
62
7
10
 12
20
-1.5
30
0
0
VERTEX
8
Halfen
62
7
10
 3
20
-1.5
30
0
0
SEQEND
8
Halfen
0
POLYLINE
8
Halfen
62
7
66
1
10
0.0
20
0.0
30
0.0
70
1
0
VERTEX
8
Halfen
62
7
10
 480
20
-32.5
30
0
0
VERTEX
8
Halfen
62
7
10
 497
20
-1.5
30
0
0
VERTEX
8
Halfen
62
7
10
 488
20
-1.5
30
0
0
VERTEX
8
Halfen
62
7
10
 488
20
 32.5
30
0
0
VERTEX
8
Halfen
62
7
10
 472
20
 32.5
30
0
0
VERTEX
8
Halfen
62
7
10
 472
20
-1.5
30
0
0
VERTEX
8
Halfen
62
7
10
 463
20
-1.5
30
0
0
SEQEND
8
Halfen
0
POLYLINE
8
Halfen
62
7
66
1
10
0.0
20
0.0
30
0.0
70
1
0
VERTEX
8
Halfen
62
7
10
 75
20
-696.961
30
0
0
VERTEX
8
Halfen
62
7
10
 75
20
 705.246
30
0
0
VERTEX
8
Halfen
62
7
10
 65
20
 705.246
30
0
0
VERTEX
8
Halfen
62
7
10
 65
20
-696.961
30
0
0
SEQEND
8
Halfen
0
POLYLINE
8
Halfen
62
7
66
1
10
0.0
20
0.0
30
0.0
70
1
0
VERTEX
8
Halfen
62
7
10
 135
20
-696.961
30
0
0
VERTEX
8
Halfen
62
7
10
 135
20
 705.246
30
0
0
VERTEX
8
Halfen
62
7
10
 125
20
 705.246
30
0
0
VERTEX
8
Halfen
62
7
10
 125
20
-696.961
30
0
0
SEQEND
8
Halfen
0
POLYLINE
8
Halfen
62
7
66
1
10
0.0
20
0.0
30
0.0
70
1
0
VERTEX
8
Halfen
62
7
10
 195
20
-696.961
30
0
0
VERTEX
8
Halfen
62
7
10
 195
20
 705.246
30
0
0
VERTEX
8
Halfen
62
7
10
 185
20
 705.246
30
0
0
VERTEX
8
Halfen
62
7
10
 185
20
-696.961
30
0
0
SEQEND
8
Halfen
0
POLYLINE
8
Halfen
62
7
66
1
10
0.0
20
0.0
30
0.0
70
1
0
VERTEX
8
Halfen
62
7
10
 325
20
-696.961
30
0
0
VERTEX
8
Halfen
62
7
10
 325
20
 705.246
30
0
0
VERTEX
8
Halfen
62
7
10
 315
20
 705.246
30
0
0
VERTEX
8
Halfen
62
7
10
 315
20
-696.961
30
0
0
SEQEND
8
Halfen
0
POLYLINE
8
Halfen
62
7
66
1
10
0.0
20
0.0
30
0.0
70
1
0
VERTEX
8
Halfen
62
7
10
 385
20
-696.961
30
0
0
VERTEX
8
Halfen
62
7
10
 385
20
 705.246
30
0
0
VERTEX
8
Halfen
62
7
10
 375
20
 705.246
30
0
0
VERTEX
8
Halfen
62
7
10
 375
20
-696.961
30
0
0
SEQEND
8
Halfen
0
POLYLINE
8
Halfen
62
7
66
1
10
0.0
20
0.0
30
0.0
70
1
0
VERTEX
8
Halfen
62
7
10
 445
20
-696.961
30
0
0
VERTEX
8
Halfen
62
7
10
 445
20
 705.246
30
0
0
VERTEX
8
Halfen
62
7
10
 435
20
 705.246
30
0
0
VERTEX
8
Halfen
62
7
10
 435
20
-696.961
30
0
0
SEQEND
8
Halfen
0
POLYLINE
8
Halfen
62
7
66
1
10
0.0
20
0.0
30
0.0
70
1
0
VERTEX
8
Halfen
62
7
10
 435
20
-696.961
30
0
0
VERTEX
8
Halfen
62
7
10
 435
20
 705.246
30
0
0
VERTEX
8
Halfen
62
7
10
 425
20
 705.246
30
0
0
VERTEX
8
Halfen
62
7
10
 425
20
-696.961
30
0
0
SEQEND
8
Halfen
0
POLYLINE
8
Halfen
62
7
66
1
10
0.0
20
0.0
30
0.0
70
1
0
VERTEX
8
Halfen
62
7
10
 375
20
-696.961
30
0
0
VERTEX
8
Halfen
62
7
10
 375
20
 705.246
30
0
0
VERTEX
8
Halfen
62
7
10
 365
20
 705.246
30
0
0
VERTEX
8
Halfen
62
7
10
 365
20
-696.961
30
0
0
SEQEND
8
Halfen
0
POLYLINE
8
Halfen
62
7
66
1
10
0.0
20
0.0
30
0.0
70
1
0
VERTEX
8
Halfen
62
7
10
 315
20
-696.961
30
0
0
VERTEX
8
Halfen
62
7
10
 315
20
 705.246
30
0
0
VERTEX
8
Halfen
62
7
10
 305
20
 705.246
30
0
0
VERTEX
8
Halfen
62
7
10
 305
20
-696.961
30
0
0
SEQEND
8
Halfen
0
POLYLINE
8
Halfen
62
7
66
1
10
0.0
20
0.0
30
0.0
70
1
0
VERTEX
8
Halfen
62
7
10
 185
20
-696.961
30
0
0
VERTEX
8
Halfen
62
7
10
 185
20
 705.246
30
0
0
VERTEX
8
Halfen
62
7
10
 175
20
 705.246
30
0
0
VERTEX
8
Halfen
62
7
10
 175
20
-696.961
30
0
0
SEQEND
8
Halfen
0
POLYLINE
8
Halfen
62
7
66
1
10
0.0
20
0.0
30
0.0
70
1
0
VERTEX
8
Halfen
62
7
10
 125
20
-696.961
30
0
0
VERTEX
8
Halfen
62
7
10
 125
20
 705.246
30
0
0
VERTEX
8
Halfen
62
7
10
 115
20
 705.246
30
0
0
VERTEX
8
Halfen
62
7
10
 115
20
-696.961
30
0
0
SEQEND
8
Halfen
0
POLYLINE
8
Halfen
62
7
66
1
10
0.0
20
0.0
30
0.0
70
1
0
VERTEX
8
Halfen
62
7
10
 65
20
-696.961
30
0
0
VERTEX
8
Halfen
62
7
10
 65
20
 705.246
30
0
0
VERTEX
8
Halfen
62
7
10
 55
20
 705.246
30
0
0
VERTEX
8
Halfen
62
7
10
 55
20
-696.961
30
0
0
SEQEND
8
Halfen
0
POLYLINE
8
Halfen
62
7
66
1
10
0.0
20
0.0
30
0.0
70
1
0
VERTEX
8
Halfen
62
7
10
 970
20
-60
30
0
0
VERTEX
8
Halfen
62
7
10
 970
20
 60
30
0
0
VERTEX
8
Halfen
62
7
10
 956.5
20
 73.5
30
0
0
VERTEX
8
Halfen
62
7
10
 956.5
20
 60
30
0
0
VERTEX
8
Halfen
62
7
10
 750
20
 60
30
0
0
VERTEX
8
Halfen
62
7
10
 750
20
-60
30
0
0
VERTEX
8
Halfen
62
7
10
 956.5
20
-60
30
0
0
VERTEX
8
Halfen
62
7
10
 956.5
20
-73.5
30
0
0
SEQEND
8
Halfen
0
POLYLINE
8
Halfen
62
7
66
1
10
0.0
20
0.0
30
0.0
70
1
0
VERTEX
8
Halfen
62
7
10
 750
20
-60
30
0
0
VERTEX
8
Halfen
62
7
10
 750
20
 60
30
0
0
VERTEX
8
Halfen
62
7
10
 713.5
20
 60
30
0
0
VERTEX
8
Halfen
62
7
10
 713.5
20
 73.5
30
0
0
VERTEX
8
Halfen
62
7
10
 700
20
 60
30
0
0
VERTEX
8
Halfen
62
7
10
 700
20
-60
30
0
0
VERTEX
8
Halfen
62
7
10
 713.5
20
-73.5
30
0
0
VERTEX
8
Halfen
62
7
10
 713.5
20
-60
30
0
0
SEQEND
8
Halfen
0
POLYLINE
8
Halfen
62
7
66
1
10
0.0
20
0.0
30
0.0
70
1
0
VERTEX
8
Halfen
62
7
10
 967.5
20
-58.75
30
0
0
VERTEX
8
Halfen
62
7
10
 967.5
20
 58.75
30
0
0
VERTEX
8
Halfen
62
7
10
 959
20
 67.25
30
0
0
VERTEX
8
Halfen
62
7
10
 959
20
 58
30
0
0
VERTEX
8
Halfen
62
7
10
 752
20
 58
30
0
0
VERTEX
8
Halfen
62
7
10
 752
20
-58
30
0
0
VERTEX
8
Halfen
62
7
10
 959
20
-58
30
0
0
VERTEX
8
Halfen
62
7
10
 959
20
-67.25
30
0
0
SEQEND
8
Halfen
0
POLYLINE
8
Halfen
62
7
66
1
10
0.0
20
0.0
30
0.0
70
1
0
VERTEX
8
Halfen
62
7
10
 748
20
-58
30
0
0
VERTEX
8
Halfen
62
7
10
 748
20
 58
30
0
0
VERTEX
8
Halfen
62
7
10
 711
20
 58
30
0
0
VERTEX
8
Halfen
62
7
10
 711
20
 67.25
30
0
0
VERTEX
8
Halfen
62
7
10
 702.5
20
 58.75
30
0
0
VERTEX
8
Halfen
62
7
10
 702.5
20
-58.75
30
0
0
VERTEX
8
Halfen
62
7
10
 711
20
-67.25
30
0
0
VERTEX
8
Halfen
62
7
10
 711
20
-58
30
0
0
SEQEND
8
Halfen
0
POLYLINE
8
Halfen
62
7
66
1
10
0.0
20
0.0
30
0.0
70
1
0
VERTEX
8
Halfen
62
7
10
 940
20
-696.961
30
0
0
VERTEX
8
Halfen
62
7
10
 940
20
-95.355
30
0
0
VERTEX
8
Halfen
62
7
10
 939.508
20
-89.098
30
0
0
VERTEX
8
Halfen
62
7
10
 938.042
20
-82.995
30
0
0
VERTEX
8
Halfen
62
7
10
 935.64
20
-77.196
30
0
0
VERTEX
8
Halfen
62
7
10
 932.361
20
-71.844
30
0
0
VERTEX
8
Halfen
62
7
10
 928.284
20
-67.071
30
0
0
VERTEX
8
Halfen
62
7
10
 778.787
20
 82.426
30
0
0
VERTEX
8
Halfen
62
7
10
 775.729
20
 86.006
30
0
0
VERTEX
8
Halfen
62
7
10
 773.27
20
 90.02
30
0
0
VERTEX
8
Halfen
62
7
10
 771.468
20
 94.369
30
0
0
VERTEX
8
Halfen
62
7
10
 770.369
20
 98.947
30
0
0
VERTEX
8
Halfen
62
7
10
 770
20
 103.64
30
0
0
VERTEX
8
Halfen
62
7
10
 770
20
 166.246
30
0
0
VERTEX
8
Halfen
62
7
10
 770
20
 705.246
30
0
0
VERTEX
8
Halfen
62
7
10
 760
20
 705.246
30
0
0
VERTEX
8
Halfen
62
7
10
 760
20
 166.246
30
0
0
VERTEX
8
Halfen
62
7
10
 760
20
 103.64
30
0
0
VERTEX
8
Halfen
62
7
10
 760.492
20
 97.382
30
0
0
VERTEX
8
Halfen
62
7
10
 761.958
20
 91.279
30
0
0
VERTEX
8
Halfen
62
7
10
 764.36
20
 85.48
30
0
0
VERTEX
8
Halfen
62
7
10
 767.639
20
 80.128
30
0
0
VERTEX
8
Halfen
62
7
10
 771.716
20
 75.355
30
0
0
VERTEX
8
Halfen
62
7
10
 921.213
20
-74.142
30
0
0
VERTEX
8
Halfen
62
7
10
 924.271
20
-77.722
30
0
0
VERTEX
8
Halfen
62
7
10
 926.73
20
-81.736
30
0
0
VERTEX
8
Halfen
62
7
10
 928.532
20
-86.085
30
0
0
VERTEX
8
Halfen
62
7
10
 929.631
20
-90.662
30
0
0
VERTEX
8
Halfen
62
7
10
 930
20
-95.355
30
0
0
VERTEX
8
Halfen
62
7
10
 930
20
-696.961
30
0
0
SEQEND
8
Halfen
0
POLYLINE
8
Halfen
62
7
66
1
10
0.0
20
0.0
30
0.0
70
1
0
VERTEX
8
Halfen
62
7
10
 760
20
-696.961
30
0
0
VERTEX
8
Halfen
62
7
10
 760
20
-95.355
30
0
0
VERTEX
8
Halfen
62
7
10
 760.492
20
-89.098
30
0
0
VERTEX
8
Halfen
62
7
10
 761.958
20
-82.995
30
0
0
VERTEX
8
Halfen
62
7
10
 764.36
20
-77.196
30
0
0
VERTEX
8
Halfen
62
7
10
 767.639
20
-71.844
30
0
0
VERTEX
8
Halfen
62
7
10
 771.716
20
-67.071
30
0
0
VERTEX
8
Halfen
62
7
10
 921.213
20
 82.426
30
0
0
VERTEX
8
Halfen
62
7
10
 924.271
20
 86.006
30
0
0
VERTEX
8
Halfen
62
7
10
 926.73
20
 90.02
30
0
0
VERTEX
8
Halfen
62
7
10
 928.532
20
 94.369
30
0
0
VERTEX
8
Halfen
62
7
10
 929.631
20
 98.947
30
0
0
VERTEX
8
Halfen
62
7
10
 930
20
 103.64
30
0
0
VERTEX
8
Halfen
62
7
10
 930
20
 166.246
30
0
0
VERTEX
8
Halfen
62
7
10
 930
20
 705.246
30
0
0
VERTEX
8
Halfen
62
7
10
 940
20
 705.246
30
0
0
VERTEX
8
Halfen
62
7
10
 940
20
 166.246
30
0
0
VERTEX
8
Halfen
62
7
10
 940
20
 103.64
30
0
0
VERTEX
8
Halfen
62
7
10
 939.508
20
 97.382
30
0
0
VERTEX
8
Halfen
62
7
10
 938.042
20
 91.279
30
0
0
VERTEX
8
Halfen
62
7
10
 935.64
20
 85.48
30
0
0
VERTEX
8
Halfen
62
7
10
 932.361
20
 80.128
30
0
0
VERTEX
8
Halfen
62
7
10
 928.284
20
 75.355
30
0
0
VERTEX
8
Halfen
62
7
10
 778.787
20
-74.142
30
0
0
VERTEX
8
Halfen
62
7
10
 775.729
20
-77.722
30
0
0
VERTEX
8
Halfen
62
7
10
 773.27
20
-81.736
30
0
0
VERTEX
8
Halfen
62
7
10
 771.468
20
-86.085
30
0
0
VERTEX
8
Halfen
62
7
10
 770.369
20
-90.662
30
0
0
VERTEX
8
Halfen
62
7
10
 770
20
-95.355
30
0
0
VERTEX
8
Halfen
62
7
10
 770
20
-696.961
30
0
0
SEQEND
8
Halfen
0
ENDSEC
0
EOF
