  0
SECTION
  2
HEADER
  9
$ACADVER
  1
AC1032
  9
$ACADMAINTVER
 90
4
  9
$DWGCODEPAGE
  3
ANSI_1252
  9
$LASTSAVEDBY
  1
ezdxf
  9
$REQUIREDVERSIONS
160
0
  9
$INSBASE
 10
0.0
 20
0.0
 30
0.0
  9
$EXTMIN
 10
1e+20
 20
1e+20
 30
1e+20
  9
$EXTMAX
 10
-1e+20
 20
-1e+20
 30
-1e+20
  9
$LIMMIN
 10
0.0
 20
0.0
  9
$LIMMAX
 10
420.0
 20
297.0
  9
$ORTHOMODE
 70
0
  9
$REGENMODE
 70
1
  9
$FILLMODE
 70
1
  9
$QTEXTMODE
 70
0
  9
$MIRRTEXT
 70
1
  9
$LTSCALE
 40
1.0
  9
$ATTMODE
 70
1
  9
$TEXTSIZE
 40
2.5
  9
$TRACEWID
 40
1.0
  9
$TEXTSTYLE
  7
Standard
  9
$CLAYER
  8
0
  9
$CELTYPE
  6
ByLayer
  9
$CECOLOR
 62
256
  9
$CELTSCALE
 40
1.0
  9
$DISPSILH
 70
0
  9
$DIMSCALE
 40
1.0
  9
$DIMASZ
 40
2.5
  9
$DIMEXO
 40
0.625
  9
$DIMDLI
 40
3.75
  9
$DIMRND
 40
0.0
  9
$DIMDLE
 40
0.0
  9
$DIMEXE
 40
1.25
  9
$DIMTP
 40
0.0
  9
$DIMTM
 40
0.0
  9
$DIMTXT
 40
2.5
  9
$DIMCEN
 40
2.5
  9
$DIMTSZ
 40
0.0
  9
$DIMTOL
 70
0
  9
$DIMLIM
 70
0
  9
$DIMTIH
 70
0
  9
$DIMTOH
 70
0
  9
$DIMSE1
 70
0
  9
$DIMSE2
 70
0
  9
$DIMTAD
 70
1
  9
$DIMZIN
 70
8
  9
$DIMBLK
  1

  9
$DIMASO
 70
1
  9
$DIMSHO
 70
1
  9
$DIMPOST
  1

  9
$DIMAPOST
  1

  9
$DIMALT
 70
0
  9
$DIMALTD
 70
3
  9
$DIMALTF
 40
0.03937007874
  9
$DIMLFAC
 40
1.0
  9
$DIMTOFL
 70
1
  9
$DIMTVP
 40
0.0
  9
$DIMTIX
 70
0
  9
$DIMSOXD
 70
0
  9
$DIMSAH
 70
0
  9
$DIMBLK1
  1

  9
$DIMBLK2
  1

  9
$DIMSTYLE
  2
ISO-25
  9
$DIMCLRD
 70
0
  9
$DIMCLRE
 70
0
  9
$DIMCLRT
 70
0
  9
$DIMTFAC
 40
1.0
  9
$DIMGAP
 40
0.625
  9
$DIMJUST
 70
0
  9
$DIMSD1
 70
0
  9
$DIMSD2
 70
0
  9
$DIMTOLJ
 70
0
  9
$DIMTZIN
 70
8
  9
$DIMALTZ
 70
0
  9
$DIMALTTZ
 70
0
  9
$DIMUPT
 70
0
  9
$DIMDEC
 70
2
  9
$DIMTDEC
 70
2
  9
$DIMALTU
 70
2
  9
$DIMALTTD
 70
3
  9
$DIMTXSTY
  7
Standard
  9
$DIMAUNIT
 70
0
  9
$DIMADEC
 70
0
  9
$DIMALTRND
 40
0.0
  9
$DIMAZIN
 70
0
  9
$DIMDSEP
 70
44
  9
$DIMATFIT
 70
3
  9
$DIMFRAC
 70
0
  9
$DIMLDRBLK
  1

  9
$DIMLUNIT
 70
2
  9
$DIMLWD
 70
-2
  9
$DIMLWE
 70
-2
  9
$DIMTMOVE
 70
0
  9
$DIMFXL
 40
1.0
  9
$DIMFXLON
 70
0
  9
$DIMJOGANG
 40
0.785398163397
  9
$DIMTFILL
 70
0
  9
$DIMTFILLCLR
 70
0
  9
$DIMARCSYM
 70
0
  9
$DIMLTYPE
  6

  9
$DIMLTEX1
  6

  9
$DIMLTEX2
  6

  9
$DIMTXTDIRECTION
 70
0
  9
$LUNITS
 70
2
  9
$LUPREC
 70
4
  9
$SKETCHINC
 40
1.0
  9
$FILLETRAD
 40
10.0
  9
$AUNITS
 70
0
  9
$AUPREC
 70
2
  9
$MENU
  1
.
  9
$ELEVATION
 40
0.0
  9
$PELEVATION
 40
0.0
  9
$THICKNESS
 40
0.0
  9
$LIMCHECK
 70
0
  9
$CHAMFERA
 40
0.0
  9
$CHAMFERB
 40
0.0
  9
$CHAMFERC
 40
0.0
  9
$CHAMFERD
 40
0.0
  9
$SKPOLY
 70
0
  9
$TDCREATE
 40
2461085.245983796
  9
$TDUCREATE
 40
2458532.153996898
  9
$TDUPDATE
 40
2461085.245983796
  9
$TDUUPDATE
 40
2458532.1544311
  9
$TDINDWG
 40
0.0
  9
$TDUSRTIMER
 40
0.0
  9
$USRTIMER
 70
1
  9
$ANGBASE
 50
0.0
  9
$ANGDIR
 70
0
  9
$PDMODE
 70
0
  9
$PDSIZE
 40
0.0
  9
$PLINEWID
 40
0.0
  9
$SPLFRAME
 70
0
  9
$SPLINETYPE
 70
6
  9
$SPLINESEGS
 70
8
  9
$HANDSEED
  5
75
  9
$SURFTAB1
 70
6
  9
$SURFTAB2
 70
6
  9
$SURFTYPE
 70
6
  9
$SURFU
 70
6
  9
$SURFV
 70
6
  9
$UCSBASE
  2

  9
$UCSNAME
  2

  9
$UCSORG
 10
0.0
 20
0.0
 30
0.0
  9
$UCSXDIR
 10
1.0
 20
0.0
 30
0.0
  9
$UCSYDIR
 10
0.0
 20
1.0
 30
0.0
  9
$UCSORTHOREF
  2

  9
$UCSORTHOVIEW
 70
0
  9
$UCSORGTOP
 10
0.0
 20
0.0
 30
0.0
  9
$UCSORGBOTTOM
 10
0.0
 20
0.0
 30
0.0
  9
$UCSORGLEFT
 10
0.0
 20
0.0
 30
0.0
  9
$UCSORGRIGHT
 10
0.0
 20
0.0
 30
0.0
  9
$UCSORGFRONT
 10
0.0
 20
0.0
 30
0.0
  9
$UCSORGBACK
 10
0.0
 20
0.0
 30
0.0
  9
$PUCSBASE
  2

  9
$PUCSNAME
  2

  9
$PUCSORG
 10
0.0
 20
0.0
 30
0.0
  9
$PUCSXDIR
 10
1.0
 20
0.0
 30
0.0
  9
$PUCSYDIR
 10
0.0
 20
1.0
 30
0.0
  9
$PUCSORTHOREF
  2

  9
$PUCSORTHOVIEW
 70
0
  9
$PUCSORGTOP
 10
0.0
 20
0.0
 30
0.0
  9
$PUCSORGBOTTOM
 10
0.0
 20
0.0
 30
0.0
  9
$PUCSORGLEFT
 10
0.0
 20
0.0
 30
0.0
  9
$PUCSORGRIGHT
 10
0.0
 20
0.0
 30
0.0
  9
$PUCSORGFRONT
 10
0.0
 20
0.0
 30
0.0
  9
$PUCSORGBACK
 10
0.0
 20
0.0
 30
0.0
  9
$USERI1
 70
0
  9
$USERI2
 70
0
  9
$USERI3
 70
0
  9
$USERI4
 70
0
  9
$USERI5
 70
0
  9
$USERR1
 40
0.0
  9
$USERR2
 40
0.0
  9
$USERR3
 40
0.0
  9
$USERR4
 40
0.0
  9
$USERR5
 40
0.0
  9
$WORLDVIEW
 70
1
  9
$SHADEDGE
 70
3
  9
$SHADEDIF
 70
70
  9
$TILEMODE
 70
1
  9
$MAXACTVP
 70
64
  9
$PINSBASE
 10
0.0
 20
0.0
 30
0.0
  9
$PLIMCHECK
 70
0
  9
$PEXTMIN
 10
1e+20
 20
1e+20
 30
1e+20
  9
$PEXTMAX
 10
-1e+20
 20
-1e+20
 30
-1e+20
  9
$PLIMMIN
 10
0.0
 20
0.0
  9
$PLIMMAX
 10
420.0
 20
297.0
  9
$UNITMODE
 70
0
  9
$VISRETAIN
 70
1
  9
$PLINEGEN
 70
0
  9
$PSLTSCALE
 70
1
  9
$TREEDEPTH
 70
3020
  9
$CMLSTYLE
  2
Standard
  9
$CMLJUST
 70
0
  9
$CMLSCALE
 40
20.0
  9
$PROXYGRAPHICS
 70
1
  9
$MEASUREMENT
 70
1
  9
$CELWEIGHT
370
-1
  9
$ENDCAPS
280
0
  9
$JOINSTYLE
280
0
  9
$LWDISPLAY
290
0
  9
$INSUNITS
 70
6
  9
$HYPERLINKBASE
  1

  9
$STYLESHEET
  1

  9
$XEDIT
290
1
  9
$CEPSNTYPE
380
0
  9
$PSTYLEMODE
290
1
  9
$FINGERPRINTGUID
  2
{4373E3CF-09F2-4D08-A8BD-539F17D916E6}
  9
$VERSIONGUID
  2
{BBDFD940-5C85-418E-BC18-E89E556BA023}
  9
$EXTNAMES
290
1
  9
$PSVPSCALE
 40
0.0
  9
$OLESTARTUP
290
0
  9
$SORTENTS
280
127
  9
$INDEXCTL
280
0
  9
$HIDETEXT
280
1
  9
$XCLIPFRAME
280
1
  9
$HALOGAP
280
0
  9
$OBSCOLOR
 70
257
  9
$OBSLTYPE
280
0
  9
$INTERSECTIONDISPLAY
280
0
  9
$INTERSECTIONCOLOR
 70
257
  9
$DIMASSOC
280
2
  9
$PROJECTNAME
  1

  9
$CAMERADISPLAY
290
0
  9
$LENSLENGTH
 40
50.0
  9
$CAMERAHEIGHT
 40
0.0
  9
$STEPSPERSEC
 40
24.0
  9
$STEPSIZE
 40
100.0
  9
$3DDWFPREC
 40
2.0
  9
$PSOLWIDTH
 40
0.005
  9
$PSOLHEIGHT
 40
0.08
  9
$LOFTANG1
 40
1.570796326795
  9
$LOFTANG2
 40
1.570796326795
  9
$LOFTMAG1
 40
0.0
  9
$LOFTMAG2
 40
0.0
  9
$LOFTPARAM
 70
7
  9
$LOFTNORMALS
280
1
  9
$LATITUDE
 40
37.795
  9
$LONGITUDE
 40
-122.394
  9
$NORTHDIRECTION
 40
0.0
  9
$TIMEZONE
 70
-8000
  9
$LIGHTGLYPHDISPLAY
280
1
  9
$TILEMODELIGHTSYNCH
280
1
  9
$CMATERIAL
347
20
  9
$SOLIDHIST
280
0
  9
$SHOWHIST
280
1
  9
$DWFFRAME
280
2
  9
$DGNFRAME
280
2
  9
$REALWORLDSCALE
290
1
  9
$INTERFERECOLOR
 62
256
  9
$CSHADOW
280
0
  9
$SHADOWPLANELOCATION
 40
0.0
  0
ENDSEC
  0
SECTION
  2
CLASSES
  0
CLASS
  1
ACDBDICTIONARYWDFLT
  2
AcDbDictionaryWithDefault
  3
ObjectDBX Classes
 90
0
 91
0
280
0
281
0
  0
CLASS
  1
SUN
  2
AcDbSun
  3
SCENEOE
 90
1153
 91
0
280
0
281
0
  0
CLASS
  1
VISUALSTYLE
  2
AcDbVisualStyle
  3
ObjectDBX Classes
 90
4095
 91
0
280
0
281
0
  0
CLASS
  1
MATERIAL
  2
AcDbMaterial
  3
ObjectDBX Classes
 90
1153
 91
0
280
0
281
0
  0
CLASS
  1
SCALE
  2
AcDbScale
  3
ObjectDBX Classes
 90
1153
 91
0
280
0
281
0
  0
CLASS
  1
TABLESTYLE
  2
AcDbTableStyle
  3
ObjectDBX Classes
 90
4095
 91
0
280
0
281
0
  0
CLASS
  1
MLEADERSTYLE
  2
AcDbMLeaderStyle
  3
ACDB_MLEADERSTYLE_CLASS
 90
4095
 91
0
280
0
281
0
  0
CLASS
  1
DICTIONARYVAR
  2
AcDbDictionaryVar
  3
ObjectDBX Classes
 90
0
 91
0
280
0
281
0
  0
CLASS
  1
CELLSTYLEMAP
  2
AcDbCellStyleMap
  3
ObjectDBX Classes
 90
1152
 91
0
280
0
281
0
  0
CLASS
  1
MENTALRAYRENDERSETTINGS
  2
AcDbMentalRayRenderSettings
  3
SCENEOE
 90
1024
 91
0
280
0
281
0
  0
CLASS
  1
ACDBDETAILVIEWSTYLE
  2
AcDbDetailViewStyle
  3
ObjectDBX Classes
 90
1025
 91
0
280
0
281
0
  0
CLASS
  1
ACDBSECTIONVIEWSTYLE
  2
AcDbSectionViewStyle
  3
ObjectDBX Classes
 90
1025
 91
0
280
0
281
0
  0
CLASS
  1
RASTERVARIABLES
  2
AcDbRasterVariables
  3
ISM
 90
0
 91
0
280
0
281
0
  0
CLASS
  1
LAYOUT
  2
AcDbLayout
  3
ObjectDBX Classes
 90
0
 91
0
280
0
281
0
  0
CLASS
  1
ACDBPLACEHOLDER
  2
AcDbPlaceHolder
  3
ObjectDBX Classes
 90
0
 91
0
280
0
281
0
  0
ENDSEC
  0
SECTION
  2
TABLES
  0
TABLE
  2
VPORT
  5
8
330
0
100
AcDbSymbolTable
 70
1
  0
VPORT
  5
23
330
8
100
AcDbSymbolTableRecord
100
AcDbViewportTableRecord
  2
*Active
 70
0
 10
0.0
 20
0.0
 11
1.0
 21
1.0
 12
0.0
 22
0.0
 13
0.0
 23
0.0
 14
0.5
 24
0.5
 15
0.5
 25
0.5
 16
0.0
 26
0.0
 36
1.0
 17
0.0
 27
0.0
 37
0.0
 40
1000.0
 41
1.34
 42
50.0
 43
0.0
 44
0.0
 50
0.0
 51
0.0
 71
0
 72
1000
 73
1
 74
3
 75
0
 76
0
 77
0
 78
0
281
0
 65
0
146
0.0
  0
ENDTAB
  0
TABLE
  2
LTYPE
  5
2
330
0
100
AcDbSymbolTable
 70
3
  0
LTYPE
  5
24
330
2
100
AcDbSymbolTableRecord
100
AcDbLinetypeTableRecord
  2
ByBlock
 70
0
  3

 72
65
 73
0
 40
0.0
  0
LTYPE
  5
25
330
2
100
AcDbSymbolTableRecord
100
AcDbLinetypeTableRecord
  2
ByLayer
 70
0
  3

 72
65
 73
0
 40
0.0
  0
LTYPE
  5
26
330
2
100
AcDbSymbolTableRecord
100
AcDbLinetypeTableRecord
  2
Continuous
 70
0
  3

 72
65
 73
0
 40
0.0
  0
ENDTAB
  0
TABLE
  2
LAYER
  5
1
330
0
100
AcDbSymbolTable
 70
3
  0
LAYER
  5
27
330
1
100
AcDbSymbolTableRecord
100
AcDbLayerTableRecord
  2
0
 70
0
 62
7
  6
Continuous
370
-3
390
13
347
21
  0
LAYER
  5
28
330
1
100
AcDbSymbolTableRecord
100
AcDbLayerTableRecord
  2
Defpoints
 70
0
 62
7
  6
Continuous
290
0
370
-3
390
13
347
21
  0
LAYER
  5
6F
330
1
100
AcDbSymbolTableRecord
100
AcDbLayerTableRecord
  2
A-DETL-GENF
 70
0
 62
92
  6
Continuous
370
18
390
13
347
21
348
0
  0
ENDTAB
  0
TABLE
  2
STYLE
  5
5
330
0
100
AcDbSymbolTable
 70
1
  0
STYLE
  5
29
330
5
100
AcDbSymbolTableRecord
100
AcDbTextStyleTableRecord
  2
Standard
 70
0
 40
0.0
 41
1.0
 50
0.0
 71
0
 42
2.5
  3
txt
  4

  0
ENDTAB
  0
TABLE
  2
VIEW
  5
7
330
0
100
AcDbSymbolTable
 70
0
  0
ENDTAB
  0
TABLE
  2
UCS
  5
6
330
0
100
AcDbSymbolTable
 70
0
  0
ENDTAB
  0
TABLE
  2
APPID
  5
3
330
0
100
AcDbSymbolTable
 70
3
  0
APPID
  5
2A
330
3
100
AcDbSymbolTableRecord
100
AcDbRegAppTableRecord
  2
ACAD
 70
0
  0
APPID
  5
72
330
3
100
AcDbSymbolTableRecord
100
AcDbRegAppTableRecord
  2
HATCHBACKGROUNDCOLOR
 70
0
  0
APPID
  5
73
330
3
100
AcDbSymbolTableRecord
100
AcDbRegAppTableRecord
  2
EZDXF
 70
0
  0
ENDTAB
  0
TABLE
  2
DIMSTYLE
  5
4
330
0
100
AcDbSymbolTable
 70
1
100
AcDbDimStyleTable
  0
DIMSTYLE
105
2B
330
4
100
AcDbSymbolTableRecord
100
AcDbDimStyleTableRecord
  2
Standard
 70
0
 40
1.0
 41
2.5
 42
0.625
 43
3.75
 44
1.25
 45
0.0
 46
0.0
 47
0.0
 48
0.0
 49
2.5
140
2.5
141
2.5
142
0.0
143
0.03937007874
144
1.0
145
0.0
146
1.0
147
0.625
148
0.0
 69
0
 70
0
 71
0
 72
0
 73
0
 74
0
 75
0
 76
0
 77
1
 78
8
 79
3
170
0
171
3
172
1
173
0
174
0
175
0
176
0
177
0
178
0
179
2
271
2
272
2
273
2
274
3
275
0
276
0
277
2
278
44
279
0
280
0
281
0
282
0
283
0
284
8
285
0
286
0
288
0
289
3
290
0
371
-2
372
-2
  0
ENDTAB
  0
TABLE
  2
BLOCK_RECORD
  5
9
330
0
100
AcDbSymbolTable
 70
3
  0
BLOCK_RECORD
  5
17
330
9
100
AcDbSymbolTableRecord
100
AcDbBlockTableRecord
  2
*Model_Space
340
1A
 70
0
280
1
281
0
  0
BLOCK_RECORD
  5
1B
330
9
100
AcDbSymbolTableRecord
100
AcDbBlockTableRecord
  2
*Paper_Space
340
1E
 70
0
280
1
281
0
  0
BLOCK_RECORD
  5
2F
330
9
100
AcDbSymbolTableRecord
100
AcDbBlockTableRecord
  2
41 roval muurafdeksysteem type E - Type 1-4961792-00_0 Basismaterialen
340
0
 70
0
280
1
281
0
  0
ENDTAB
  0
ENDSEC
  0
SECTION
  2
BLOCKS
  0
BLOCK
  5
18
330
17
100
AcDbEntity
  8
0
100
AcDbBlockBegin
  2
*Model_Space
 70
0
 10
0.0
 20
0.0
 30
0.0
  3
*Model_Space
  1

  0
ENDBLK
  5
19
330
17
100
AcDbEntity
  8
0
100
AcDbBlockEnd
  0
BLOCK
  5
1C
330
1B
100
AcDbEntity
  8
0
100
AcDbBlockBegin
  2
*Paper_Space
 70
0
 10
0.0
 20
0.0
 30
0.0
  3
*Paper_Space
  1

  0
ENDBLK
  5
1D
330
1B
100
AcDbEntity
  8
0
100
AcDbBlockEnd
  0
BLOCK
  5
30
330
2F
100
AcDbEntity
  8
0
100
AcDbBlockBegin
  2
41 roval muurafdeksysteem type E - Type 1-4961792-00_0 Basismaterialen
 70
0
 10
0.0
 20
0.0
 30
0.0
  3
41 roval muurafdeksysteem type E - Type 1-4961792-00_0 Basismaterialen
  1

  0
HATCH
  5
32
330
2F
100
AcDbEntity
  8
A-DETL-GENF
100
AcDbHatch
 10
0.0
 20
0.0
 30
0.0
210
0.0
220
0.0
230
1.0
  2
SOLID
 70
1
 71
0
 91
1
 92
1
 93
23
 72
1
 10
-24.38738616204007
 20
-28.00116414104828
 11
-24.37639196374701
 21
2.393560256776247
 72
1
 10
-24.37639196374701
 20
2.393560256776248
 11
-24.06730951742462
 21
5.076598280955005
 72
1
 10
-24.06730951742462
 20
5.076598280955005
 11
-23.15625430387017
 21
7.619078053869026
 72
1
 10
-23.15625430387017
 20
7.619078053869026
 11
-21.69095443072137
 21
9.887804850899318
 72
1
 10
-21.69095443072137
 20
9.887804850899318
 11
-19.74817362100082
 21
11.76392524234777
 72
1
 10
-19.74817362100082
 20
11.76392524234777
 11
-17.42968973650852
 21
13.14915355390963
 72
1
 10
-17.42968973650852
 20
13.14915355390963
 11
-14.85696286742233
 21
13.97092082930282
 72
1
 10
-14.85696286742233
 20
13.97092082930282
 11
-12.16477231484771
 21
14.18617655260763
 72
1
 10
-12.16477231484771
 20
14.18617655260763
 11
154.7172575379708
 21
6.414542287810474
 72
1
 10
154.7172575379708
 20
6.414542287810474
 11
154.828965613742
 21
8.813274626502931
 72
1
 10
154.828965613742
 20
8.813274626502931
 11
-12.05306272171111
 21
17.38442154093196
 72
1
 10
-12.05306272171112
 20
17.38442154093196
 11
-15.47539902776024
 21
17.1107913288652
 72
1
 10
-15.47539902776024
 20
17.1107913288652
 11
-18.74587290832503
 21
16.06615747858363
 72
1
 10
-18.74587290832503
 20
16.06615747858363
 11
-21.69315136957653
 21
14.30524607920076
 72
1
 10
-21.69315136957653
 20
14.30524607920076
 11
-24.16283292081537
 21
11.92030743845555
 72
1
 10
-24.16283292081537
 20
11.92030743845555
 11
-26.02553633184033
 21
9.036283290293301
 72
1
 10
-26.02553633184033
 20
9.036283290293301
 11
-27.18367863342332
 21
5.804261369896255
 72
1
 10
-27.18367863342332
 20
5.804261369896255
 11
-27.58660491204226
 21
2.393560256776248
 72
1
 10
-27.58660491204226
 20
2.393560256776248
 11
-27.58660491204226
 21
-27.50116414104839
 72
1
 10
-27.58660491204226
 20
-27.50116414104839
 11
-27.44015830263106
 21
-27.85471753164142
 72
1
 10
-27.44015830263106
 20
-27.85471753164142
 11
-27.2160144345903
 21
-27.98412705419151
 72
1
 10
-27.2160144345903
 20
-27.98412705419151
 11
-27.08660491203804
 21
-28.00116414104828
 72
1
 10
-27.08660491203804
 20
-28.00116414104828
 11
-24.38738616204007
 21
-28.00116414104828
 97
0
 75
0
 76
1
 98
1
 10
0.0
 20
0.0
450
0
451
0
460
0.0
461
0.0
452
0
462
0.0
453
0
470

  0
HATCH
  5
33
330
2F
100
AcDbEntity
  8
A-DETL-GENF
370
13
100
AcDbHatch
 10
0.0
 20
0.0
 30
0.0
210
0.0
220
0.0
230
1.0
  2
FP_19
 70
0
 71
0
 91
1
 92
1
 93
52
 72
1
 10
166.3940058298916
 20
-41.23548481448474
 11
178.3075818023523
 21
-37.36634306838878
 72
1
 10
178.3075818023523
 20
-37.36634306838878
 11
178.817361611108
 21
-37.13486873528385
 72
1
 10
178.817361611108
 20
-37.13486873528385
 11
179.2628456196496
 21
-36.79575250382888
 72
1
 10
179.2628456196496
 20
-36.79575250382888
 11
179.6216914991241
 21
-36.36600204707121
 72
1
 10
179.6216914991241
 20
-36.36600204707121
 11
179.875902076814
 21
-35.86717061011785
 72
1
 10
179.875902076814
 20
-35.86717061011785
 11
180.012727947086
 21
-35.32427605173041
 72
1
 10
180.012727947086
 20
-35.32427605173041
 11
180.0253068914793
 21
-34.76454612537252
 72
1
 10
180.0253068914793
 20
-34.76454612537252
 11
179.9130080390634
 21
-34.21605292756109
 72
1
 10
179.9130080390634
 20
-34.21605292756109
 11
165.6791303343544
 21
9.590214231765096
 72
1
 10
165.6791303343544
 20
9.590214231765094
 11
165.4216092840042
 21
10.14246990641176
 72
1
 10
165.4216092840042
 20
10.14246990641176
 11
165.0381349697651
 21
10.61602124667511
 72
1
 10
165.0381349697651
 20
10.61602124667511
 11
164.5514890436131
 21
10.98273525528985
 72
1
 10
164.5514890436131
 20
10.98273525528985
 11
163.9905824331578
 21
11.22082598567556
 72
1
 10
163.9905824331578
 20
11.22082598567556
 11
163.3887377853718
 21
11.31614881337582
 72
1
 10
163.3887377853718
 20
11.31614881337582
 11
-25.96445667358248
 21
19.87234765525306
 72
1
 10
-25.96445667358247
 20
19.87234765525306
 11
-26.76300062432581
 21
19.80849910256629
 72
1
 10
-26.76300062432581
 20
19.80849910256629
 11
-27.52610977299916
 21
19.56475024377673
 72
1
 10
-27.52610977299916
 20
19.56475024377673
 11
-28.21380660178406
 21
19.15387051608052
 72
1
 10
-28.21380660178406
 20
19.15387051608052
 11
-28.79006426932967
 21
18.59738495513356
 72
1
 10
-28.79006426932967
 20
18.59738495513356
 11
-29.22469397340671
 21
17.92444654838204
 72
1
 10
-29.22469397340671
 20
17.92444654838204
 11
-29.49492647219033
 21
17.17030897767635
 72
1
 10
-29.49492647219033
 20
17.17030897767635
 11
-29.5866049120418
 21
16.37447976068608
 72
1
 10
-29.5866049120418
 20
16.37447976068608
 11
-29.5866049120418
 21
-27.50116414104839
 72
1
 10
-29.5866049120418
 20
-27.50116414104839
 11
-29.50141947776447
 21
-28.14821175380319
 72
1
 10
-29.50141947776447
 20
-28.14821175380319
 11
-29.25166842150208
 21
-28.75116414104811
 72
1
 10
-29.25166842150208
 20
-28.75116414104811
 11
-28.8543718650075
 21
-29.26893109401569
 72
1
 10
-28.8543718650075
 20
-29.26893109401569
 11
-28.33660491204208
 21
-29.6662276505081
 72
1
 10
-28.33660491204208
 20
-29.6662276505081
 11
-27.58660491204226
 21
-29.93533789225553
 72
1
 10
-27.58660491204226
 20
-29.93533789225553
 11
-27.08660491204237
 21
-30.00116414104783
 72
1
 10
-27.08660491204237
 20
-30.00116414104783
 11
-14.58660491204088
 21
-30.00116414104783
 72
1
 10
-14.58660491204088
 20
-30.00116414104783
 11
-14.58660491204088
 21
-28.00116414104828
 72
1
 10
-14.58660491204088
 20
-28.00116414104828
 11
-27.2160144345903
 21
-27.98412705419151
 72
1
 10
-27.2160144345903
 20
-27.98412705419151
 11
-27.44015830263539
 21
-27.85471753163925
 72
1
 10
-27.44015830263539
 20
-27.85471753163925
 11
-27.56956782518765
 21
-27.63057366359848
 72
1
 10
-27.56956782518765
 20
-27.63057366359848
 11
-27.58660491204226
 21
-27.50116414104839
 72
1
 10
-27.58660491204226
 20
-27.50116414104839
 11
-27.5473140477596
 21
16.71559643199728
 72
1
 10
-27.5473140477596
 20
16.71559643199728
 11
-27.43149981759697
 21
17.03879862403806
 72
1
 10
-27.43149981759697
 20
17.03879862403806
 11
-27.24522947649751
 21
17.32720103885472
 72
1
 10
-27.24522947649751
 20
17.32720103885472
 11
-26.99826132137709
 21
17.56569490292881
 72
1
 10
-26.99826132137709
 20
17.56569490292881
 11
-26.70353347524847
 21
17.74178604286623
 72
1
 10
-26.70353347524847
 20
17.74178604286623
 11
-26.37648608718983
 21
17.84624942789439
 72
1
 10
-26.37648608718983
 20
17.84624942789439
 11
-26.03425245658795
 21
17.8736124491002
 72
1
 10
-26.03425245658795
 20
17.8736124491002
 11
-13.19084026897107
 21
17.29345143054737
 72
1
 10
-13.19084026897107
 20
17.29345143054737
 11
-12.05306272171112
 21
17.38442154093196
 72
1
 10
-12.05306272171112
 20
17.38442154093196
 11
10.95129243263943
 21
16.2029060136688
 72
1
 10
10.95129243263943
 20
16.2029060136688
 11
163.6394796616357
 21
9.305694203435776
 72
1
 10
163.6394796616357
 20
9.305694203435776
 11
178.0042149963018
 21
-35.06437995478545
 72
1
 10
178.0042149963018
 20
-35.06437995478545
 11
177.9260073321449
 21
-35.27272421846042
 72
1
 10
177.9260073321449
 20
-35.27272421846042
 11
177.7651416576881
 21
-35.42649679638633
 72
1
 10
177.7651416576881
 20
-35.42649679638633
 11
177.2596452509486
 21
-35.60384837694279
 72
1
 10
177.2596452509486
 20
-35.60384837694279
 11
165.7762337866711
 21
-39.33328669057271
 72
1
 10
165.7762337866711
 20
-39.33328669057271
 11
166.3940058298916
 21
-41.23548481448474
 97
0
 75
0
 76
2
 52
0.0
 41
1.0
 77
0
 78
3
 53
45.0
 43
13616.518
 44
2638.436
 45
-22.45064030267288
 46
22.45064030267288
 79
0
 53
45.0
 43
13624.455
 44
2638.436
 45
0.0
 46
44.90128060534576
 79
0
 53
45.0
 43
13608.58
 44
2638.436
 45
0.0
 46
44.90128060534576
 79
0
 98
1
 10
0.0
 20
0.0
  0
ARC
  5
34
330
2F
100
AcDbEntity
  8
A-DETL-GENF
100
AcDbCircle
 10
-26.08660491202437
 20
16.37452632068823
 30
0.0
 40
1.5
100
AcDbArc
 50
87.99987729694406
 51
179.9999999999997
  0
LINE
  5
35
330
2F
100
AcDbEntity
  8
A-DETL-GENF
100
AcDbLine
 10
-26.03425245656942
 20
17.87361244910323
 30
0.0
 11
-13.19084026894452
 21
17.29345143054766
 31
0.0
  0
LINE
  5
36
330
2F
100
AcDbEntity
  8
A-DETL-GENF
100
AcDbLine
 10
10.95129243232603
 20
16.20290601368652
 30
0.0
 11
163.6394796616524
 21
9.305694203438541
 31
0.0
  0
LINE
  5
37
330
2F
100
AcDbEntity
  8
A-DETL-GENF
100
AcDbLine
 10
163.6394796616523
 20
9.305694203438541
 30
0.0
 11
177.9842720963911
 21
-34.84273597971872
 31
0.0
  0
ARC
  5
38
330
2F
100
AcDbEntity
  8
A-DETL-GENF
100
AcDbCircle
 10
177.5087430127703
 20
-34.99724193633599
 30
0.0
 40
0.5000000000001159
100
AcDbArc
 50
287.9921098077251
 51
17.99969389029254
  0
LINE
  5
39
330
2F
100
AcDbEntity
  8
A-DETL-GENF
100
AcDbLine
 10
177.6631860235754
 20
-35.47279146731354
 30
0.0
 11
165.7762337866869
 21
-39.333286690571
 31
0.0
  0
LINE
  5
3A
330
2F
100
AcDbEntity
  8
A-DETL-GENF
100
AcDbLine
 10
165.7762337866869
 20
-39.333286690571
 30
0.0
 11
166.3940058299074
 21
-41.23548481448205
 31
0.0
  0
LINE
  5
3B
330
2F
100
AcDbEntity
  8
A-DETL-GENF
100
AcDbLine
 10
166.3940058299074
 20
-41.23548481448205
 30
0.0
 11
178.3075818023699
 21
-37.36634306838509
 31
0.0
  0
ARC
  5
3C
330
2F
100
AcDbEntity
  8
A-DETL-GENF
100
AcDbCircle
 10
177.5353667483439
 20
-34.98859541349607
 30
0.0
 40
2.5
100
AcDbArc
 50
287.9921098077231
 51
18.00000000000067
  0
LINE
  5
3D
330
2F
100
AcDbEntity
  8
A-DETL-GENF
100
AcDbLine
 10
179.9130080390807
 20
-34.21605292755874
 30
0.0
 11
165.6791303343709
 21
9.590214231768288
 31
0.0
  0
ARC
  5
3E
330
2F
100
AcDbEntity
  8
A-DETL-GENF
100
AcDbCircle
 10
163.3014890436331
 20
8.817671745830935
 30
0.0
 40
2.499999999999953
100
AcDbArc
 50
17.99999999999996
 51
87.99999999999957
  0
LINE
  5
3F
330
2F
100
AcDbEntity
  8
A-DETL-GENF
100
AcDbLine
 10
163.3887377853892
 20
11.31614881337864
 30
0.0
 11
-25.9644566735661
 21
19.87234765525549
 31
0.0
  0
ARC
  5
40
330
2F
100
AcDbEntity
  8
A-DETL-GENF
100
AcDbCircle
 10
-26.08660491202466
 20
16.37447976068828
 30
0.0
 40
3.499999999999999
100
AcDbArc
 50
87.99999999999802
 51
179.9999999999997
  0
LINE
  5
41
330
2F
100
AcDbEntity
  8
A-DETL-GENF
100
AcDbLine
 10
-29.58660491202466
 20
16.37447976068828
 30
0.0
 11
-29.58660491202466
 21
-27.50116414104552
 31
0.0
  0
ARC
  5
42
330
2F
100
AcDbEntity
  8
A-DETL-GENF
100
AcDbCircle
 10
-27.08660491202415
 20
-27.50116414104551
 30
0.0
 40
2.499999999999995
100
AcDbArc
 50
179.9999999999996
 51
269.9999999999995
  0
LINE
  5
43
330
2F
100
AcDbEntity
  8
A-DETL-GENF
100
AcDbLine
 10
-27.08660491202415
 20
-30.00116414104561
 30
0.0
 11
-14.58660491202374
 21
-30.00116414104561
 31
0.0
  0
LINE
  5
44
330
2F
100
AcDbEntity
  8
A-DETL-GENF
100
AcDbLine
 10
-14.58660491202374
 20
-30.00116414104561
 30
0.0
 11
-14.58660491202374
 21
-28.00116414104607
 31
0.0
  0
LINE
  5
45
330
2F
100
AcDbEntity
  8
A-DETL-GENF
100
AcDbLine
 10
-14.58660491202374
 20
-28.00116414104607
 30
0.0
 11
-17.58660491202587
 21
-28.00116414104607
 31
0.0
  0
LINE
  5
46
330
2F
100
AcDbEntity
  8
A-DETL-GENF
100
AcDbLine
 10
-21.78777678702202
 20
-28.00116414104607
 30
0.0
 11
-24.38738616202222
 21
-28.00116414104607
 31
0.0
  0
ARC
  5
47
330
2F
100
AcDbEntity
  8
A-DETL-GENF
100
AcDbCircle
 10
-27.08660491202415
 20
-27.5011641410455
 30
0.0
 40
0.500000000000004
100
AcDbArc
 50
210.0
 51
224.9999999999996
  0
ARC
  5
48
330
2F
100
AcDbEntity
  8
A-DETL-GENF
100
AcDbCircle
 10
-27.08660491202415
 20
-27.5011641410455
 30
0.0
 40
0.5000000000000023
100
AcDbArc
 50
180.0
 51
194.9999999999998
  0
LINE
  5
49
330
2F
100
AcDbEntity
  8
A-DETL-GENF
100
AcDbLine
 10
-27.58660491202295
 20
2.393560256778761
 30
0.0
 11
-27.58660491202295
 21
16.37452632068824
 31
0.0
  0
LINE
  5
4A
330
2F
100
AcDbEntity
  8
A-DETL-GENF
100
AcDbLine
 10
154.6265307791332
 20
3.906306007409004
 30
0.0
 11
-12.25549907368076
 21
9.734064238356394
 31
0.0
  0
ARC
  5
4B
330
2F
100
AcDbEntity
  8
A-DETL-GENF
100
AcDbCircle
 10
-12.57658727622666
 20
0.539473646365209
 30
0.0
 40
9.200195312500012
100
AcDbArc
 50
87.99996250791769
 51
180.0
  0
LINE
  5
4C
330
2F
100
AcDbEntity
  8
A-DETL-GENF
100
AcDbLine
 10
-21.78777678702263
 20
0.5394736463644533
 30
0.0
 11
-21.78777678702263
 21
-28.00116414104567
 31
0.0
  0
LINE
  5
4D
330
2F
100
AcDbEntity
  8
A-DETL-GENF
100
AcDbLine
 10
-21.78777678702235
 20
-28.00116414104607
 30
0.0
 11
-17.58660491202334
 21
-28.00116414104607
 31
0.0
  0
LINE
  5
4E
330
2F
100
AcDbEntity
  8
A-DETL-GENF
100
AcDbLine
 10
-17.58660491202361
 20
-28.00116414104567
 30
0.0
 11
-17.58660491202361
 21
0.539473646364297
 31
0.0
  0
ARC
  5
4F
330
2F
100
AcDbEntity
  8
A-DETL-GENF
100
AcDbCircle
 10
-12.57658727622666
 20
0.5394736463652158
 30
0.0
 40
5.0
100
AcDbArc
 50
87.99996250791811
 51
180.0000000000002
  0
LINE
  5
50
330
2F
100
AcDbEntity
  8
A-DETL-GENF
100
AcDbLine
 10
-12.40208652290593
 20
5.536427667275419
 30
0.0
 11
154.4799433299081
 21
-0.2913305636719787
 31
0.0
  0
LINE
  5
51
330
2F
100
AcDbEntity
  8
A-DETL-GENF
100
AcDbLine
 10
154.5014958031694
 20
0.3258399406030517
 30
0.0
 11
154.6265307791333
 21
3.906306007409004
 31
0.0
  0
LINE
  5
52
330
2F
100
AcDbEntity
  8
A-DETL-GENF
100
AcDbLine
 10
154.5014958031687
 20
0.3258399406030738
 30
0.0
 11
154.4688240510477
 21
-0.6097390756726341
 31
0.0
  0
LINE
  5
53
330
2F
100
AcDbEntity
  8
A-DETL-GENF
100
AcDbLine
 10
154.4688240510477
 20
-0.6097390756726341
 30
0.0
 11
157.624904390244
 21
-1.280776420240998
 31
0.0
  0
ARC
  5
54
330
2F
100
AcDbEntity
  8
A-DETL-GENF
100
AcDbCircle
 10
156.7514277049113
 20
-5.3889868136722
 30
0.0
 40
4.200042161278355
100
AcDbArc
 50
31.00186365252713
 51
77.99666930806185
  0
LINE
  5
55
330
2F
100
AcDbEntity
  8
A-DETL-GENF
100
AcDbLine
 10
160.3514961436914
 20
-3.225688084274098
 30
0.0
 11
174.3129567218212
 21
-26.45864481633195
 31
0.0
  0
ARC
  5
56
330
2F
100
AcDbEntity
  8
A-DETL-GENF
100
AcDbCircle
 10
170.7123652049065
 20
-28.62225789104286
 30
0.0
 40
4.200652426556853
100
AcDbArc
 50
327.0193522235255
 51
31.00186394602398
  0
LINE
  5
57
330
2F
100
AcDbEntity
  8
A-DETL-GENF
100
AcDbLine
 10
174.2361013008985
 20
-30.90890712836393
 30
0.0
 11
171.18942481988
 21
-35.60384837694056
 31
0.0
  0
ARC
  5
58
330
2F
100
AcDbEntity
  8
A-DETL-GENF
100
AcDbCircle
 10
169.2572870618438
 20
-34.35272664104186
 30
0.0
 40
2.301838811486939
100
AcDbArc
 50
263.982626833679
 51
327.0756364250085
  0
LINE
  5
59
330
2F
100
AcDbEntity
  8
A-DETL-GENF
100
AcDbLine
 10
169.0159852616088
 20
-36.64188267663032
 30
0.0
 11
164.1427208507509
 21
-36.12818792284924
 31
0.0
  0
ARC
  5
5A
330
2F
100
AcDbEntity
  8
A-DETL-GENF
100
AcDbCircle
 10
164.2475214549072
 20
-35.13397664104305
 30
0.0
 40
0.9997195804335026
100
AcDbArc
 50
178.0052880235903
 51
263.9826277443606
  0
LINE
  5
5B
330
2F
100
AcDbEntity
  8
A-DETL-GENF
100
AcDbLine
 10
163.2345866111616
 20
-35.20748113478107
 30
0.0
 11
164.0678339549072
 21
-27.27264851604312
 31
0.0
  0
LINE
  5
5C
330
2F
100
AcDbEntity
  8
A-DETL-GENF
100
AcDbLine
 10
164.0678339549072
 20
-27.27264851604312
 30
0.0
 11
163.2729120799071
 21
-27.18866414104315
 31
0.0
  0
LINE
  5
5D
330
2F
100
AcDbEntity
  8
A-DETL-GENF
100
AcDbLine
 10
163.2729120799071
 20
-27.18866414104315
 30
0.0
 11
162.4337813034091
 21
-35.17952058996776
 31
0.0
  0
ARC
  5
5E
330
2F
100
AcDbEntity
  8
A-DETL-GENF
100
AcDbCircle
 10
164.2475199090941
 20
-35.13397764669858
 30
0.0
 40
1.799063788708694
100
AcDbArc
 50
178.0052879955917
 51
264.0047234022706
  0
LINE
  5
5F
330
2F
100
AcDbEntity
  8
A-DETL-GENF
100
AcDbLine
 10
164.0596140369838
 20
-36.92320147257094
 30
0.0
 11
168.9335767161658
 21
-37.43506928429048
 31
0.0
  0
ARC
  5
60
330
2F
100
AcDbEntity
  8
A-DETL-GENF
100
AcDbCircle
 10
169.2572870618438
 20
-34.35272664104189
 30
0.0
 40
3.099294203248128
100
AcDbArc
 50
264.0047236011468
 51
326.9939516108179
  0
LINE
  5
61
330
2F
100
AcDbEntity
  8
A-DETL-GENF
100
AcDbLine
 10
171.8563956848397
 20
-36.04099762763014
 30
0.0
 11
174.9059260780943
 21
-31.34621696821699
 31
0.0
  0
ARC
  5
62
330
2F
100
AcDbEntity
  8
A-DETL-GENF
100
AcDbCircle
 10
170.7123652049065
 20
-28.62225789104286
 30
0.0
 40
5.000590550250109
100
AcDbArc
 50
326.9939576239229
 51
31.00196971501356
  0
LINE
  5
63
330
2F
100
AcDbEntity
  8
A-DETL-GENF
100
AcDbLine
 10
174.9986193658653
 20
-26.04661600620828
 30
0.0
 11
161.0371158499012
 21
-2.813685077129448
 31
0.0
  0
ARC
  5
64
330
2F
100
AcDbEntity
  8
A-DETL-GENF
100
AcDbCircle
 10
156.7514277049082
 20
-5.38898681367226
 30
0.0
 40
4.999930190550089
100
AcDbArc
 50
31.00196946843364
 51
76.00718297857397
  0
LINE
  5
65
330
2F
100
AcDbEntity
  8
A-DETL-GENF
100
AcDbLine
 10
157.9604120799529
 20
-0.537424313686072
 30
0.0
 11
154.5014958031687
 21
0.3258399406030738
 31
0.0
  0
LINE
  5
66
330
2F
100
AcDbEntity
  8
A-DETL-GENF
100
AcDbLine
 10
-27.58660491202308
 20
2.393560256778782
 30
0.0
 11
-27.58660491202308
 21
-27.50116414104605
 31
0.0
  0
ARC
  5
67
330
2F
100
AcDbEntity
  8
A-DETL-GENF
100
AcDbCircle
 10
-27.08660491202306
 20
-27.50116414104605
 30
0.0
 40
0.5000000000000214
100
AcDbArc
 50
179.9999999999996
 51
269.9999999999993
  0
LINE
  5
68
330
2F
100
AcDbEntity
  8
A-DETL-GENF
100
AcDbLine
 10
-27.08660491202306
 20
-28.00116414104607
 30
0.0
 11
-24.3873861620232
 21
-28.00116414104607
 31
0.0
  0
LINE
  5
69
330
2F
100
AcDbEntity
  8
A-DETL-GENF
100
AcDbLine
 10
-24.3873861620232
 20
-28.00116414104607
 30
0.0
 11
-24.3873861620232
 21
2.393560256778786
 31
0.0
  0
ARC
  5
6A
330
2F
100
AcDbEntity
  8
A-DETL-GENF
100
AcDbCircle
 10
-12.57658727622763
 20
2.39356025677881
 30
0.0
 40
11.79980468749997
100
AcDbArc
 50
87.99996250791791
 51
180.0000000000004
  0
LINE
  5
6B
330
2F
100
AcDbEntity
  8
A-DETL-GENF
100
AcDbLine
 10
-12.16477231482801
 20
14.18617655261064
 30
0.0
 11
154.7172575379875
 21
6.414542287811876
 31
0.0
  0
LINE
  5
6C
330
2F
100
AcDbEntity
  8
A-DETL-GENF
100
AcDbLine
 10
154.7172575379875
 20
6.414542287811876
 30
0.0
 11
154.8289656137575
 21
8.813274626504064
 31
0.0
  0
LINE
  5
6D
330
2F
100
AcDbEntity
  8
A-DETL-GENF
100
AcDbLine
 10
154.8289656137575
 20
8.813274626504064
 30
0.0
 11
-12.05303038668875
 21
17.3853474376734
 31
0.0
  0
ARC
  5
6E
330
2F
100
AcDbEntity
  8
A-DETL-GENF
100
AcDbCircle
 10
-12.57658727622763
 20
2.393560256778807
 30
0.0
 40
14.99999999999998
100
AcDbArc
 50
87.99987729701247
 51
179.9999999999998
  0
ENDBLK
  5
31
330
2F
100
AcDbEntity
  8
0
100
AcDbBlockEnd
  0
ENDSEC
  0
SECTION
  2
ENTITIES
  0
INSERT
  5
70
330
17
100
AcDbEntity
  8
0
100
AcDbBlockReference
  2
41 roval muurafdeksysteem type E - Type 1-4961792-00_0 Basismaterialen
 10
0.0
 20
0.0
 30
0.0
  0
ENDSEC
  0
SECTION
  2
OBJECTS
  0
DICTIONARY
  5
A
330
0
100
AcDbDictionary
281
1
  3
ACAD_COLOR
350
B
  3
ACAD_GROUP
350
C
  3
ACAD_LAYOUT
350
D
  3
ACAD_MATERIAL
350
E
  3
ACAD_MLEADERSTYLE
350
F
  3
ACAD_MLINESTYLE
350
10
  3
ACAD_PLOTSETTINGS
350
11
  3
ACAD_PLOTSTYLENAME
350
12
  3
ACAD_SCALELIST
350
14
  3
ACAD_TABLESTYLE
350
15
  3
ACAD_VISUALSTYLE
350
16
  3
EZDXF_META
350
2D
  0
DICTIONARY
  5
B
330
A
100
AcDbDictionary
281
1
  0
DICTIONARY
  5
C
330
A
100
AcDbDictionary
281
1
  0
DICTIONARY
  5
D
330
A
100
AcDbDictionary
281
1
  3
Model
350
1A
  3
Layout1
350
1E
  0
DICTIONARY
  5
E
330
A
100
AcDbDictionary
281
1
  3
ByBlock
350
1F
  3
ByLayer
350
20
  3
Global
350
21
  0
DICTIONARY
  5
F
330
A
100
AcDbDictionary
281
1
  3
Standard
350
2C
  0
DICTIONARY
  5
10
330
A
100
AcDbDictionary
281
1
  3
Standard
350
22
  0
DICTIONARY
  5
11
330
A
100
AcDbDictionary
281
1
  0
ACDBDICTIONARYWDFLT
  5
12
330
A
100
AcDbDictionary
281
1
  3
Normal
350
13
100
AcDbDictionaryWithDefault
340
13
  0
ACDBPLACEHOLDER
  5
13
330
12
  0
DICTIONARY
  5
14
330
A
100
AcDbDictionary
281
1
  0
DICTIONARY
  5
15
330
A
100
AcDbDictionary
281
1
  0
DICTIONARY
  5
16
330
A
100
AcDbDictionary
281
1
  0
LAYOUT
  5
1A
330
D
100
AcDbPlotSettings
  1

  4
A3
  6

 40
7.5
 41
20.0
 42
7.5
 43
20.0
 44
420.0
 45
297.0
 46
0.0
 47
0.0
 48
0.0
 49
0.0
140
0.0
141
0.0
142
1.0
143
1.0
 70
1024
 72
1
 73
0
 74
5
  7

 75
16
 76
0
 77
2
 78
300
147
1.0
148
0.0
149
0.0
100
AcDbLayout
  1
Model
 70
1
 71
0
 10
0.0
 20
0.0
 11
420.0
 21
297.0
 12
0.0
 22
0.0
 32
0.0
 14
1e+20
 24
1e+20
 34
1e+20
 15
-1e+20
 25
-1e+20
 35
-1e+20
146
0.0
 13
0.0
 23
0.0
 33
0.0
 16
1.0
 26
0.0
 36
0.0
 17
0.0
 27
1.0
 37
0.0
 76
1
330
17
  0
LAYOUT
  5
1E
330
D
100
AcDbPlotSettings
  1

  4
A3
  6

 40
7.5
 41
20.0
 42
7.5
 43
20.0
 44
420.0
 45
297.0
 46
0.0
 47
0.0
 48
0.0
 49
0.0
140
0.0
141
0.0
142
1.0
143
1.0
 70
0
 72
1
 73
0
 74
5
  7

 75
16
 76
0
 77
2
 78
300
147
1.0
148
0.0
149
0.0
100
AcDbLayout
  1
Layout1
 70
1
 71
1
 10
0.0
 20
0.0
 11
420.0
 21
297.0
 12
0.0
 22
0.0
 32
0.0
 14
1e+20
 24
1e+20
 34
1e+20
 15
-1e+20
 25
-1e+20
 35
-1e+20
146
0.0
 13
0.0
 23
0.0
 33
0.0
 16
1.0
 26
0.0
 36
0.0
 17
0.0
 27
1.0
 37
0.0
 76
1
330
1B
  0
MATERIAL
  5
1F
102
{ACAD_REACTORS
330
E
102
}
330
E
100
AcDbMaterial
  1
ByBlock
  2

 70
0
 40
1.0
 71
1
 41
1.0
 91
-1023410177
 42
1.0
 72
1
  3

 73
1
 74
1
 75
1
 44
0.5
 73
0
 45
1.0
 46
1.0
 77
1
  4

 78
1
 79
1
170
1
 48
1.0
171
1
  6

172
1
173
1
174
1
140
1.0
141
1.0
175
1
  7

176
1
177
1
178
1
143
1.0
179
1
  8

270
1
271
1
272
1
145
1.0
146
1.0
273
1
  9

274
1
275
1
276
1
 42
1.0
 72
1
  3

 73
1
 74
1
 75
1
 94
63
  0
MATERIAL
  5
20
102
{ACAD_REACTORS
330
E
102
}
330
E
100
AcDbMaterial
  1
ByLayer
  2

 70
0
 40
1.0
 71
1
 41
1.0
 91
-1023410177
 42
1.0
 72
1
  3

 73
1
 74
1
 75
1
 44
0.5
 73
0
 45
1.0
 46
1.0
 77
1
  4

 78
1
 79
1
170
1
 48
1.0
171
1
  6

172
1
173
1
174
1
140
1.0
141
1.0
175
1
  7

176
1
177
1
178
1
143
1.0
179
1
  8

270
1
271
1
272
1
145
1.0
146
1.0
273
1
  9

274
1
275
1
276
1
 42
1.0
 72
1
  3

 73
1
 74
1
 75
1
 94
63
  0
MATERIAL
  5
21
102
{ACAD_REACTORS
330
E
102
}
330
E
100
AcDbMaterial
  1
Global
  2

 70
0
 40
1.0
 71
1
 41
1.0
 91
-1023410177
 42
1.0
 72
1
  3

 73
1
 74
1
 75
1
 44
0.5
 73
0
 45
1.0
 46
1.0
 77
1
  4

 78
1
 79
1
170
1
 48
1.0
171
1
  6

172
1
173
1
174
1
140
1.0
141
1.0
175
1
  7

176
1
177
1
178
1
143
1.0
179
1
  8

270
1
271
1
272
1
145
1.0
146
1.0
273
1
  9

274
1
275
1
276
1
 42
1.0
 72
1
  3

 73
1
 74
1
 75
1
 94
63
  0
MLINESTYLE
  5
22
102
{ACAD_REACTORS
330
10
102
}
330
10
100
AcDbMlineStyle
  2
Standard
 70
0
  3

 62
256
 51
90.0
 52
90.0
 71
2
 49
0.5
 62
256
  6
BYLAYER
 49
-0.5
 62
256
  6
BYLAYER
  0
MLEADERSTYLE
  5
2C
102
{ACAD_REACTORS
330
F
102
}
330
F
100
AcDbMLeaderStyle
179
2
170
2
171
1
172
0
 90
2
 40
0.0
 41
0.0
173
1
 91
-1056964608
 92
-2
290
1
 42
2.0
291
1
 43
8.0
  3
Standard
 44
4.0
300

342
29
174
1
175
1
176
0
178
1
 93
-1056964608
 45
4.0
292
0
297
0
 46
4.0
 94
-1056964608
 47
1.0
 49
1.0
140
1.0
294
1
141
0.0
177
0
142
1.0
295
0
296
0
143
3.75
271
0
272
9
273
9
  0
DICTIONARY
  5
2D
330
A
100
AcDbDictionary
280
1
281
1
  3
CREATED_BY_EZDXF
350
2E
  3
WRITTEN_BY_EZDXF
350
74
  0
DICTIONARYVAR
  5
2E
330
2D
100
DictionaryVariables
280
0
  1
1.4.3 @ 2026-02-13T04:54:13.674837+00:00
  0
DICTIONARYVAR
  5
74
330
2D
100
DictionaryVariables
280
0
  1
1.4.3 @ 2026-02-13T04:54:13.679361+00:00
  0
ENDSEC
  0
EOF
