0
SECTION
2
HEADER
9
$EXTMIN
10
 0
20
 100
30
0.0
9
$EXTMAX
10
 0
20
 100
30
0.0
9
$LIMMIN
10
 100
20
 0
9
$LIMMAX
10
 0
20
 100
9
$PSLTSCALE
70
1
0
ENDSEC
0
SECTION
2
TABLES
0
TABLE
2
LAYER
70
2
0
LAYER
2
0
70
0
62
7
6
CONTINUOUS
0
LAYER
2
Halfen
70
0
62
7
6
CONTINUOUS
0
ENDTAB
0
ENDSEC
0
SECTION
2
ENTITIES
0
POLYLINE
8
Halfen
62
7
66
1
10
0.0
20
0.0
30
0.0
70
1
0
VERTEX
8
Halfen
62
7
10
 0
20
-73.5
30
0
0
VERTEX
8
Halfen
62
7
10
 1000
20
-73.5
30
0
0
VERTEX
8
Halfen
62
7
10
 1000
20
 73.5
30
0
0
VERTEX
8
Halfen
62
7
10
 0
20
 73.5
30
0
0
SEQEND
8
Halfen
0
POLYLINE
8
Halfen
62
7
66
1
10
0.0
20
0.0
30
0.0
70
1
0
VERTEX
8
Halfen
62
7
10
 0
20
-60
30
0
0
VERTEX
8
Halfen
62
7
10
 1000
20
-60
30
0
0
VERTEX
8
Halfen
62
7
10
 1000
20
 60
30
0
0
VERTEX
8
Halfen
62
7
10
 0
20
 60
30
0
0
SEQEND
8
Halfen
0
POLYLINE
8
Halfen
62
7
66
1
10
0.0
20
0.0
30
0.0
70
1
0
VERTEX
8
Halfen
62
7
10
 20
20
-32.5
30
0
0
VERTEX
8
Halfen
62
7
10
 37
20
-1.5
30
0
0
VERTEX
8
Halfen
62
7
10
 28
20
-1.5
30
0
0
VERTEX
8
Halfen
62
7
10
 28
20
 32.5
30
0
0
VERTEX
8
Halfen
62
7
10
 12
20
 32.5
30
0
0
VERTEX
8
Halfen
62
7
10
 12
20
-1.5
30
0
0
VERTEX
8
Halfen
62
7
10
 3
20
-1.5
30
0
0
SEQEND
8
Halfen
0
POLYLINE
8
Halfen
62
7
66
1
10
0.0
20
0.0
30
0.0
70
1
0
VERTEX
8
Halfen
62
7
10
 980
20
-32.5
30
0
0
VERTEX
8
Halfen
62
7
10
 997
20
-1.5
30
0
0
VERTEX
8
Halfen
62
7
10
 988
20
-1.5
30
0
0
VERTEX
8
Halfen
62
7
10
 988
20
 32.5
30
0
0
VERTEX
8
Halfen
62
7
10
 972
20
 32.5
30
0
0
VERTEX
8
Halfen
62
7
10
 972
20
-1.5
30
0
0
VERTEX
8
Halfen
62
7
10
 963
20
-1.5
30
0
0
SEQEND
8
Halfen
0
POLYLINE
8
Halfen
62
7
66
1
10
0.0
20
0.0
30
0.0
70
1
0
VERTEX
8
Halfen
62
7
10
 115
20
-69.3
30
0
0
VERTEX
8
Halfen
62
7
10
 115
20
-56.8
30
0
0
VERTEX
8
Halfen
62
7
10
 115
20
 69.3
30
0
0
VERTEX
8
Halfen
62
7
10
 114.958
20
 70.359
30
0
0
VERTEX
8
Halfen
62
7
10
 114.834
20
 71.412
30
0
0
VERTEX
8
Halfen
62
7
10
 114.627
20
 72.452
30
0
0
VERTEX
8
Halfen
62
7
10
 114.339
20
 73.472
30
0
0
VERTEX
8
Halfen
62
7
10
 113.972
20
 74.466
30
0
0
VERTEX
8
Halfen
62
7
10
 113.529
20
 75.429
30
0
0
VERTEX
8
Halfen
62
7
10
 113.011
20
 76.354
30
0
0
VERTEX
8
Halfen
62
7
10
 112.422
20
 77.235
30
0
0
VERTEX
8
Halfen
62
7
10
 111.765
20
 78.068
30
0
0
VERTEX
8
Halfen
62
7
10
 111.046
20
 78.846
30
0
0
VERTEX
8
Halfen
62
7
10
 110.268
20
 79.565
30
0
0
VERTEX
8
Halfen
62
7
10
 109.435
20
 80.222
30
0
0
VERTEX
8
Halfen
62
7
10
 108.554
20
 80.811
30
0
0
VERTEX
8
Halfen
62
7
10
 107.629
20
 81.329
30
0
0
VERTEX
8
Halfen
62
7
10
 106.666
20
 81.772
30
0
0
VERTEX
8
Halfen
62
7
10
 105.672
20
 82.139
30
0
0
VERTEX
8
Halfen
62
7
10
 104.652
20
 82.427
30
0
0
VERTEX
8
Halfen
62
7
10
 103.612
20
 82.634
30
0
0
VERTEX
8
Halfen
62
7
10
 102.559
20
 82.758
30
0
0
VERTEX
8
Halfen
62
7
10
 101.5
20
 82.8
30
0
0
VERTEX
8
Halfen
62
7
10
 98.5
20
 82.8
30
0
0
VERTEX
8
Halfen
62
7
10
 97.441
20
 82.758
30
0
0
VERTEX
8
Halfen
62
7
10
 96.388
20
 82.634
30
0
0
VERTEX
8
Halfen
62
7
10
 95.348
20
 82.427
30
0
0
VERTEX
8
Halfen
62
7
10
 94.328
20
 82.139
30
0
0
VERTEX
8
Halfen
62
7
10
 93.334
20
 81.772
30
0
0
VERTEX
8
Halfen
62
7
10
 92.371
20
 81.329
30
0
0
VERTEX
8
Halfen
62
7
10
 91.446
20
 80.811
30
0
0
VERTEX
8
Halfen
62
7
10
 90.565
20
 80.222
30
0
0
VERTEX
8
Halfen
62
7
10
 89.732
20
 79.565
30
0
0
VERTEX
8
Halfen
62
7
10
 88.954
20
 78.846
30
0
0
VERTEX
8
Halfen
62
7
10
 88.235
20
 78.068
30
0
0
VERTEX
8
Halfen
62
7
10
 87.578
20
 77.235
30
0
0
VERTEX
8
Halfen
62
7
10
 86.989
20
 76.354
30
0
0
VERTEX
8
Halfen
62
7
10
 86.471
20
 75.429
30
0
0
VERTEX
8
Halfen
62
7
10
 86.028
20
 74.466
30
0
0
VERTEX
8
Halfen
62
7
10
 85.661
20
 73.472
30
0
0
VERTEX
8
Halfen
62
7
10
 85.373
20
 72.452
30
0
0
VERTEX
8
Halfen
62
7
10
 85.166
20
 71.412
30
0
0
VERTEX
8
Halfen
62
7
10
 85.042
20
 70.359
30
0
0
VERTEX
8
Halfen
62
7
10
 85
20
 69.3
30
0
0
VERTEX
8
Halfen
62
7
10
 85
20
-56.8
30
0
0
VERTEX
8
Halfen
62
7
10
 85
20
-69.3
30
0
0
VERTEX
8
Halfen
62
7
10
 85.042
20
-70.359
30
0
0
VERTEX
8
Halfen
62
7
10
 85.166
20
-71.412
30
0
0
VERTEX
8
Halfen
62
7
10
 85.373
20
-72.452
30
0
0
VERTEX
8
Halfen
62
7
10
 85.661
20
-73.472
30
0
0
VERTEX
8
Halfen
62
7
10
 86.028
20
-74.466
30
0
0
VERTEX
8
Halfen
62
7
10
 86.471
20
-75.429
30
0
0
VERTEX
8
Halfen
62
7
10
 86.989
20
-76.354
30
0
0
VERTEX
8
Halfen
62
7
10
 87.578
20
-77.235
30
0
0
VERTEX
8
Halfen
62
7
10
 88.235
20
-78.068
30
0
0
VERTEX
8
Halfen
62
7
10
 88.954
20
-78.846
30
0
0
VERTEX
8
Halfen
62
7
10
 89.732
20
-79.565
30
0
0
VERTEX
8
Halfen
62
7
10
 90.565
20
-80.222
30
0
0
VERTEX
8
Halfen
62
7
10
 91.446
20
-80.811
30
0
0
VERTEX
8
Halfen
62
7
10
 92.371
20
-81.329
30
0
0
VERTEX
8
Halfen
62
7
10
 93.334
20
-81.772
30
0
0
VERTEX
8
Halfen
62
7
10
 94.328
20
-82.139
30
0
0
VERTEX
8
Halfen
62
7
10
 95.348
20
-82.427
30
0
0
VERTEX
8
Halfen
62
7
10
 96.388
20
-82.634
30
0
0
VERTEX
8
Halfen
62
7
10
 97.441
20
-82.758
30
0
0
VERTEX
8
Halfen
62
7
10
 98.5
20
-82.8
30
0
0
VERTEX
8
Halfen
62
7
10
 101.5
20
-82.8
30
0
0
VERTEX
8
Halfen
62
7
10
 102.559
20
-82.758
30
0
0
VERTEX
8
Halfen
62
7
10
 103.612
20
-82.634
30
0
0
VERTEX
8
Halfen
62
7
10
 104.652
20
-82.427
30
0
0
VERTEX
8
Halfen
62
7
10
 105.672
20
-82.139
30
0
0
VERTEX
8
Halfen
62
7
10
 106.666
20
-81.772
30
0
0
VERTEX
8
Halfen
62
7
10
 107.629
20
-81.329
30
0
0
VERTEX
8
Halfen
62
7
10
 108.554
20
-80.811
30
0
0
VERTEX
8
Halfen
62
7
10
 109.435
20
-80.222
30
0
0
VERTEX
8
Halfen
62
7
10
 110.268
20
-79.565
30
0
0
VERTEX
8
Halfen
62
7
10
 111.046
20
-78.846
30
0
0
VERTEX
8
Halfen
62
7
10
 111.765
20
-78.068
30
0
0
VERTEX
8
Halfen
62
7
10
 112.422
20
-77.235
30
0
0
VERTEX
8
Halfen
62
7
10
 113.011
20
-76.354
30
0
0
VERTEX
8
Halfen
62
7
10
 113.529
20
-75.429
30
0
0
VERTEX
8
Halfen
62
7
10
 113.972
20
-74.466
30
0
0
VERTEX
8
Halfen
62
7
10
 114.339
20
-73.472
30
0
0
VERTEX
8
Halfen
62
7
10
 114.627
20
-72.452
30
0
0
VERTEX
8
Halfen
62
7
10
 114.834
20
-71.412
30
0
0
VERTEX
8
Halfen
62
7
10
 114.958
20
-70.359
30
0
0
VERTEX
8
Halfen
62
7
10
 115
20
-69.3
30
0
0
SEQEND
8
Halfen
0
POLYLINE
8
Halfen
62
7
66
1
10
0.0
20
0.0
30
0.0
70
1
0
VERTEX
8
Halfen
62
7
10
 315
20
-69.3
30
0
0
VERTEX
8
Halfen
62
7
10
 315
20
-56.8
30
0
0
VERTEX
8
Halfen
62
7
10
 315
20
 69.3
30
0
0
VERTEX
8
Halfen
62
7
10
 314.958
20
 70.359
30
0
0
VERTEX
8
Halfen
62
7
10
 314.834
20
 71.412
30
0
0
VERTEX
8
Halfen
62
7
10
 314.627
20
 72.452
30
0
0
VERTEX
8
Halfen
62
7
10
 314.339
20
 73.472
30
0
0
VERTEX
8
Halfen
62
7
10
 313.972
20
 74.466
30
0
0
VERTEX
8
Halfen
62
7
10
 313.529
20
 75.429
30
0
0
VERTEX
8
Halfen
62
7
10
 313.011
20
 76.354
30
0
0
VERTEX
8
Halfen
62
7
10
 312.422
20
 77.235
30
0
0
VERTEX
8
Halfen
62
7
10
 311.765
20
 78.068
30
0
0
VERTEX
8
Halfen
62
7
10
 311.046
20
 78.846
30
0
0
VERTEX
8
Halfen
62
7
10
 310.268
20
 79.565
30
0
0
VERTEX
8
Halfen
62
7
10
 309.435
20
 80.222
30
0
0
VERTEX
8
Halfen
62
7
10
 308.554
20
 80.811
30
0
0
VERTEX
8
Halfen
62
7
10
 307.629
20
 81.329
30
0
0
VERTEX
8
Halfen
62
7
10
 306.666
20
 81.772
30
0
0
VERTEX
8
Halfen
62
7
10
 305.672
20
 82.139
30
0
0
VERTEX
8
Halfen
62
7
10
 304.652
20
 82.427
30
0
0
VERTEX
8
Halfen
62
7
10
 303.612
20
 82.634
30
0
0
VERTEX
8
Halfen
62
7
10
 302.559
20
 82.758
30
0
0
VERTEX
8
Halfen
62
7
10
 301.5
20
 82.8
30
0
0
VERTEX
8
Halfen
62
7
10
 298.5
20
 82.8
30
0
0
VERTEX
8
Halfen
62
7
10
 297.441
20
 82.758
30
0
0
VERTEX
8
Halfen
62
7
10
 296.388
20
 82.634
30
0
0
VERTEX
8
Halfen
62
7
10
 295.348
20
 82.427
30
0
0
VERTEX
8
Halfen
62
7
10
 294.328
20
 82.139
30
0
0
VERTEX
8
Halfen
62
7
10
 293.334
20
 81.772
30
0
0
VERTEX
8
Halfen
62
7
10
 292.371
20
 81.329
30
0
0
VERTEX
8
Halfen
62
7
10
 291.446
20
 80.811
30
0
0
VERTEX
8
Halfen
62
7
10
 290.565
20
 80.222
30
0
0
VERTEX
8
Halfen
62
7
10
 289.732
20
 79.565
30
0
0
VERTEX
8
Halfen
62
7
10
 288.954
20
 78.846
30
0
0
VERTEX
8
Halfen
62
7
10
 288.235
20
 78.068
30
0
0
VERTEX
8
Halfen
62
7
10
 287.578
20
 77.235
30
0
0
VERTEX
8
Halfen
62
7
10
 286.989
20
 76.354
30
0
0
VERTEX
8
Halfen
62
7
10
 286.471
20
 75.429
30
0
0
VERTEX
8
Halfen
62
7
10
 286.028
20
 74.466
30
0
0
VERTEX
8
Halfen
62
7
10
 285.661
20
 73.472
30
0
0
VERTEX
8
Halfen
62
7
10
 285.373
20
 72.452
30
0
0
VERTEX
8
Halfen
62
7
10
 285.166
20
 71.412
30
0
0
VERTEX
8
Halfen
62
7
10
 285.042
20
 70.359
30
0
0
VERTEX
8
Halfen
62
7
10
 285
20
 69.3
30
0
0
VERTEX
8
Halfen
62
7
10
 285
20
-56.8
30
0
0
VERTEX
8
Halfen
62
7
10
 285
20
-69.3
30
0
0
VERTEX
8
Halfen
62
7
10
 285.042
20
-70.359
30
0
0
VERTEX
8
Halfen
62
7
10
 285.166
20
-71.412
30
0
0
VERTEX
8
Halfen
62
7
10
 285.373
20
-72.452
30
0
0
VERTEX
8
Halfen
62
7
10
 285.661
20
-73.472
30
0
0
VERTEX
8
Halfen
62
7
10
 286.028
20
-74.466
30
0
0
VERTEX
8
Halfen
62
7
10
 286.471
20
-75.429
30
0
0
VERTEX
8
Halfen
62
7
10
 286.989
20
-76.354
30
0
0
VERTEX
8
Halfen
62
7
10
 287.578
20
-77.235
30
0
0
VERTEX
8
Halfen
62
7
10
 288.235
20
-78.068
30
0
0
VERTEX
8
Halfen
62
7
10
 288.954
20
-78.846
30
0
0
VERTEX
8
Halfen
62
7
10
 289.732
20
-79.565
30
0
0
VERTEX
8
Halfen
62
7
10
 290.565
20
-80.222
30
0
0
VERTEX
8
Halfen
62
7
10
 291.446
20
-80.811
30
0
0
VERTEX
8
Halfen
62
7
10
 292.371
20
-81.329
30
0
0
VERTEX
8
Halfen
62
7
10
 293.334
20
-81.772
30
0
0
VERTEX
8
Halfen
62
7
10
 294.328
20
-82.139
30
0
0
VERTEX
8
Halfen
62
7
10
 295.348
20
-82.427
30
0
0
VERTEX
8
Halfen
62
7
10
 296.388
20
-82.634
30
0
0
VERTEX
8
Halfen
62
7
10
 297.441
20
-82.758
30
0
0
VERTEX
8
Halfen
62
7
10
 298.5
20
-82.8
30
0
0
VERTEX
8
Halfen
62
7
10
 301.5
20
-82.8
30
0
0
VERTEX
8
Halfen
62
7
10
 302.559
20
-82.758
30
0
0
VERTEX
8
Halfen
62
7
10
 303.612
20
-82.634
30
0
0
VERTEX
8
Halfen
62
7
10
 304.652
20
-82.427
30
0
0
VERTEX
8
Halfen
62
7
10
 305.672
20
-82.139
30
0
0
VERTEX
8
Halfen
62
7
10
 306.666
20
-81.772
30
0
0
VERTEX
8
Halfen
62
7
10
 307.629
20
-81.329
30
0
0
VERTEX
8
Halfen
62
7
10
 308.554
20
-80.811
30
0
0
VERTEX
8
Halfen
62
7
10
 309.435
20
-80.222
30
0
0
VERTEX
8
Halfen
62
7
10
 310.268
20
-79.565
30
0
0
VERTEX
8
Halfen
62
7
10
 311.046
20
-78.846
30
0
0
VERTEX
8
Halfen
62
7
10
 311.765
20
-78.068
30
0
0
VERTEX
8
Halfen
62
7
10
 312.422
20
-77.235
30
0
0
VERTEX
8
Halfen
62
7
10
 313.011
20
-76.354
30
0
0
VERTEX
8
Halfen
62
7
10
 313.529
20
-75.429
30
0
0
VERTEX
8
Halfen
62
7
10
 313.972
20
-74.466
30
0
0
VERTEX
8
Halfen
62
7
10
 314.339
20
-73.472
30
0
0
VERTEX
8
Halfen
62
7
10
 314.627
20
-72.452
30
0
0
VERTEX
8
Halfen
62
7
10
 314.834
20
-71.412
30
0
0
VERTEX
8
Halfen
62
7
10
 314.958
20
-70.359
30
0
0
VERTEX
8
Halfen
62
7
10
 315
20
-69.3
30
0
0
SEQEND
8
Halfen
0
POLYLINE
8
Halfen
62
7
66
1
10
0.0
20
0.0
30
0.0
70
1
0
VERTEX
8
Halfen
62
7
10
 515
20
-69.3
30
0
0
VERTEX
8
Halfen
62
7
10
 515
20
-56.8
30
0
0
VERTEX
8
Halfen
62
7
10
 515
20
 69.3
30
0
0
VERTEX
8
Halfen
62
7
10
 514.958
20
 70.359
30
0
0
VERTEX
8
Halfen
62
7
10
 514.834
20
 71.412
30
0
0
VERTEX
8
Halfen
62
7
10
 514.627
20
 72.452
30
0
0
VERTEX
8
Halfen
62
7
10
 514.339
20
 73.472
30
0
0
VERTEX
8
Halfen
62
7
10
 513.972
20
 74.466
30
0
0
VERTEX
8
Halfen
62
7
10
 513.529
20
 75.429
30
0
0
VERTEX
8
Halfen
62
7
10
 513.011
20
 76.354
30
0
0
VERTEX
8
Halfen
62
7
10
 512.422
20
 77.235
30
0
0
VERTEX
8
Halfen
62
7
10
 511.765
20
 78.068
30
0
0
VERTEX
8
Halfen
62
7
10
 511.046
20
 78.846
30
0
0
VERTEX
8
Halfen
62
7
10
 510.268
20
 79.565
30
0
0
VERTEX
8
Halfen
62
7
10
 509.435
20
 80.222
30
0
0
VERTEX
8
Halfen
62
7
10
 508.554
20
 80.811
30
0
0
VERTEX
8
Halfen
62
7
10
 507.629
20
 81.329
30
0
0
VERTEX
8
Halfen
62
7
10
 506.666
20
 81.772
30
0
0
VERTEX
8
Halfen
62
7
10
 505.672
20
 82.139
30
0
0
VERTEX
8
Halfen
62
7
10
 504.652
20
 82.427
30
0
0
VERTEX
8
Halfen
62
7
10
 503.612
20
 82.634
30
0
0
VERTEX
8
Halfen
62
7
10
 502.559
20
 82.758
30
0
0
VERTEX
8
Halfen
62
7
10
 501.5
20
 82.8
30
0
0
VERTEX
8
Halfen
62
7
10
 498.5
20
 82.8
30
0
0
VERTEX
8
Halfen
62
7
10
 497.441
20
 82.758
30
0
0
VERTEX
8
Halfen
62
7
10
 496.388
20
 82.634
30
0
0
VERTEX
8
Halfen
62
7
10
 495.348
20
 82.427
30
0
0
VERTEX
8
Halfen
62
7
10
 494.328
20
 82.139
30
0
0
VERTEX
8
Halfen
62
7
10
 493.334
20
 81.772
30
0
0
VERTEX
8
Halfen
62
7
10
 492.371
20
 81.329
30
0
0
VERTEX
8
Halfen
62
7
10
 491.446
20
 80.811
30
0
0
VERTEX
8
Halfen
62
7
10
 490.565
20
 80.222
30
0
0
VERTEX
8
Halfen
62
7
10
 489.732
20
 79.565
30
0
0
VERTEX
8
Halfen
62
7
10
 488.954
20
 78.846
30
0
0
VERTEX
8
Halfen
62
7
10
 488.235
20
 78.068
30
0
0
VERTEX
8
Halfen
62
7
10
 487.578
20
 77.235
30
0
0
VERTEX
8
Halfen
62
7
10
 486.989
20
 76.354
30
0
0
VERTEX
8
Halfen
62
7
10
 486.471
20
 75.429
30
0
0
VERTEX
8
Halfen
62
7
10
 486.028
20
 74.466
30
0
0
VERTEX
8
Halfen
62
7
10
 485.661
20
 73.472
30
0
0
VERTEX
8
Halfen
62
7
10
 485.373
20
 72.452
30
0
0
VERTEX
8
Halfen
62
7
10
 485.166
20
 71.412
30
0
0
VERTEX
8
Halfen
62
7
10
 485.042
20
 70.359
30
0
0
VERTEX
8
Halfen
62
7
10
 485
20
 69.3
30
0
0
VERTEX
8
Halfen
62
7
10
 485
20
-56.8
30
0
0
VERTEX
8
Halfen
62
7
10
 485
20
-69.3
30
0
0
VERTEX
8
Halfen
62
7
10
 485.042
20
-70.359
30
0
0
VERTEX
8
Halfen
62
7
10
 485.166
20
-71.412
30
0
0
VERTEX
8
Halfen
62
7
10
 485.373
20
-72.452
30
0
0
VERTEX
8
Halfen
62
7
10
 485.661
20
-73.472
30
0
0
VERTEX
8
Halfen
62
7
10
 486.028
20
-74.466
30
0
0
VERTEX
8
Halfen
62
7
10
 486.471
20
-75.429
30
0
0
VERTEX
8
Halfen
62
7
10
 486.989
20
-76.354
30
0
0
VERTEX
8
Halfen
62
7
10
 487.578
20
-77.235
30
0
0
VERTEX
8
Halfen
62
7
10
 488.235
20
-78.068
30
0
0
VERTEX
8
Halfen
62
7
10
 488.954
20
-78.846
30
0
0
VERTEX
8
Halfen
62
7
10
 489.732
20
-79.565
30
0
0
VERTEX
8
Halfen
62
7
10
 490.565
20
-80.222
30
0
0
VERTEX
8
Halfen
62
7
10
 491.446
20
-80.811
30
0
0
VERTEX
8
Halfen
62
7
10
 492.371
20
-81.329
30
0
0
VERTEX
8
Halfen
62
7
10
 493.334
20
-81.772
30
0
0
VERTEX
8
Halfen
62
7
10
 494.328
20
-82.139
30
0
0
VERTEX
8
Halfen
62
7
10
 495.348
20
-82.427
30
0
0
VERTEX
8
Halfen
62
7
10
 496.388
20
-82.634
30
0
0
VERTEX
8
Halfen
62
7
10
 497.441
20
-82.758
30
0
0
VERTEX
8
Halfen
62
7
10
 498.5
20
-82.8
30
0
0
VERTEX
8
Halfen
62
7
10
 501.5
20
-82.8
30
0
0
VERTEX
8
Halfen
62
7
10
 502.559
20
-82.758
30
0
0
VERTEX
8
Halfen
62
7
10
 503.612
20
-82.634
30
0
0
VERTEX
8
Halfen
62
7
10
 504.652
20
-82.427
30
0
0
VERTEX
8
Halfen
62
7
10
 505.672
20
-82.139
30
0
0
VERTEX
8
Halfen
62
7
10
 506.666
20
-81.772
30
0
0
VERTEX
8
Halfen
62
7
10
 507.629
20
-81.329
30
0
0
VERTEX
8
Halfen
62
7
10
 508.554
20
-80.811
30
0
0
VERTEX
8
Halfen
62
7
10
 509.435
20
-80.222
30
0
0
VERTEX
8
Halfen
62
7
10
 510.268
20
-79.565
30
0
0
VERTEX
8
Halfen
62
7
10
 511.046
20
-78.846
30
0
0
VERTEX
8
Halfen
62
7
10
 511.765
20
-78.068
30
0
0
VERTEX
8
Halfen
62
7
10
 512.422
20
-77.235
30
0
0
VERTEX
8
Halfen
62
7
10
 513.011
20
-76.354
30
0
0
VERTEX
8
Halfen
62
7
10
 513.529
20
-75.429
30
0
0
VERTEX
8
Halfen
62
7
10
 513.972
20
-74.466
30
0
0
VERTEX
8
Halfen
62
7
10
 514.339
20
-73.472
30
0
0
VERTEX
8
Halfen
62
7
10
 514.627
20
-72.452
30
0
0
VERTEX
8
Halfen
62
7
10
 514.834
20
-71.412
30
0
0
VERTEX
8
Halfen
62
7
10
 514.958
20
-70.359
30
0
0
VERTEX
8
Halfen
62
7
10
 515
20
-69.3
30
0
0
SEQEND
8
Halfen
0
POLYLINE
8
Halfen
62
7
66
1
10
0.0
20
0.0
30
0.0
70
1
0
VERTEX
8
Halfen
62
7
10
 715
20
-69.3
30
0
0
VERTEX
8
Halfen
62
7
10
 715
20
-56.8
30
0
0
VERTEX
8
Halfen
62
7
10
 715
20
 69.3
30
0
0
VERTEX
8
Halfen
62
7
10
 714.958
20
 70.359
30
0
0
VERTEX
8
Halfen
62
7
10
 714.834
20
 71.412
30
0
0
VERTEX
8
Halfen
62
7
10
 714.627
20
 72.452
30
0
0
VERTEX
8
Halfen
62
7
10
 714.339
20
 73.472
30
0
0
VERTEX
8
Halfen
62
7
10
 713.972
20
 74.466
30
0
0
VERTEX
8
Halfen
62
7
10
 713.529
20
 75.429
30
0
0
VERTEX
8
Halfen
62
7
10
 713.011
20
 76.354
30
0
0
VERTEX
8
Halfen
62
7
10
 712.422
20
 77.235
30
0
0
VERTEX
8
Halfen
62
7
10
 711.765
20
 78.068
30
0
0
VERTEX
8
Halfen
62
7
10
 711.046
20
 78.846
30
0
0
VERTEX
8
Halfen
62
7
10
 710.268
20
 79.565
30
0
0
VERTEX
8
Halfen
62
7
10
 709.435
20
 80.222
30
0
0
VERTEX
8
Halfen
62
7
10
 708.554
20
 80.811
30
0
0
VERTEX
8
Halfen
62
7
10
 707.629
20
 81.329
30
0
0
VERTEX
8
Halfen
62
7
10
 706.666
20
 81.772
30
0
0
VERTEX
8
Halfen
62
7
10
 705.672
20
 82.139
30
0
0
VERTEX
8
Halfen
62
7
10
 704.652
20
 82.427
30
0
0
VERTEX
8
Halfen
62
7
10
 703.612
20
 82.634
30
0
0
VERTEX
8
Halfen
62
7
10
 702.559
20
 82.758
30
0
0
VERTEX
8
Halfen
62
7
10
 701.5
20
 82.8
30
0
0
VERTEX
8
Halfen
62
7
10
 698.5
20
 82.8
30
0
0
VERTEX
8
Halfen
62
7
10
 697.441
20
 82.758
30
0
0
VERTEX
8
Halfen
62
7
10
 696.388
20
 82.634
30
0
0
VERTEX
8
Halfen
62
7
10
 695.348
20
 82.427
30
0
0
VERTEX
8
Halfen
62
7
10
 694.328
20
 82.139
30
0
0
VERTEX
8
Halfen
62
7
10
 693.334
20
 81.772
30
0
0
VERTEX
8
Halfen
62
7
10
 692.371
20
 81.329
30
0
0
VERTEX
8
Halfen
62
7
10
 691.446
20
 80.811
30
0
0
VERTEX
8
Halfen
62
7
10
 690.565
20
 80.222
30
0
0
VERTEX
8
Halfen
62
7
10
 689.732
20
 79.565
30
0
0
VERTEX
8
Halfen
62
7
10
 688.954
20
 78.846
30
0
0
VERTEX
8
Halfen
62
7
10
 688.235
20
 78.068
30
0
0
VERTEX
8
Halfen
62
7
10
 687.578
20
 77.235
30
0
0
VERTEX
8
Halfen
62
7
10
 686.989
20
 76.354
30
0
0
VERTEX
8
Halfen
62
7
10
 686.471
20
 75.429
30
0
0
VERTEX
8
Halfen
62
7
10
 686.028
20
 74.466
30
0
0
VERTEX
8
Halfen
62
7
10
 685.661
20
 73.472
30
0
0
VERTEX
8
Halfen
62
7
10
 685.373
20
 72.452
30
0
0
VERTEX
8
Halfen
62
7
10
 685.166
20
 71.412
30
0
0
VERTEX
8
Halfen
62
7
10
 685.042
20
 70.359
30
0
0
VERTEX
8
Halfen
62
7
10
 685
20
 69.3
30
0
0
VERTEX
8
Halfen
62
7
10
 685
20
-56.8
30
0
0
VERTEX
8
Halfen
62
7
10
 685
20
-69.3
30
0
0
VERTEX
8
Halfen
62
7
10
 685.042
20
-70.359
30
0
0
VERTEX
8
Halfen
62
7
10
 685.166
20
-71.412
30
0
0
VERTEX
8
Halfen
62
7
10
 685.373
20
-72.452
30
0
0
VERTEX
8
Halfen
62
7
10
 685.661
20
-73.472
30
0
0
VERTEX
8
Halfen
62
7
10
 686.028
20
-74.466
30
0
0
VERTEX
8
Halfen
62
7
10
 686.471
20
-75.429
30
0
0
VERTEX
8
Halfen
62
7
10
 686.989
20
-76.354
30
0
0
VERTEX
8
Halfen
62
7
10
 687.578
20
-77.235
30
0
0
VERTEX
8
Halfen
62
7
10
 688.235
20
-78.068
30
0
0
VERTEX
8
Halfen
62
7
10
 688.954
20
-78.846
30
0
0
VERTEX
8
Halfen
62
7
10
 689.732
20
-79.565
30
0
0
VERTEX
8
Halfen
62
7
10
 690.565
20
-80.222
30
0
0
VERTEX
8
Halfen
62
7
10
 691.446
20
-80.811
30
0
0
VERTEX
8
Halfen
62
7
10
 692.371
20
-81.329
30
0
0
VERTEX
8
Halfen
62
7
10
 693.334
20
-81.772
30
0
0
VERTEX
8
Halfen
62
7
10
 694.328
20
-82.139
30
0
0
VERTEX
8
Halfen
62
7
10
 695.348
20
-82.427
30
0
0
VERTEX
8
Halfen
62
7
10
 696.388
20
-82.634
30
0
0
VERTEX
8
Halfen
62
7
10
 697.441
20
-82.758
30
0
0
VERTEX
8
Halfen
62
7
10
 698.5
20
-82.8
30
0
0
VERTEX
8
Halfen
62
7
10
 701.5
20
-82.8
30
0
0
VERTEX
8
Halfen
62
7
10
 702.559
20
-82.758
30
0
0
VERTEX
8
Halfen
62
7
10
 703.612
20
-82.634
30
0
0
VERTEX
8
Halfen
62
7
10
 704.652
20
-82.427
30
0
0
VERTEX
8
Halfen
62
7
10
 705.672
20
-82.139
30
0
0
VERTEX
8
Halfen
62
7
10
 706.666
20
-81.772
30
0
0
VERTEX
8
Halfen
62
7
10
 707.629
20
-81.329
30
0
0
VERTEX
8
Halfen
62
7
10
 708.554
20
-80.811
30
0
0
VERTEX
8
Halfen
62
7
10
 709.435
20
-80.222
30
0
0
VERTEX
8
Halfen
62
7
10
 710.268
20
-79.565
30
0
0
VERTEX
8
Halfen
62
7
10
 711.046
20
-78.846
30
0
0
VERTEX
8
Halfen
62
7
10
 711.765
20
-78.068
30
0
0
VERTEX
8
Halfen
62
7
10
 712.422
20
-77.235
30
0
0
VERTEX
8
Halfen
62
7
10
 713.011
20
-76.354
30
0
0
VERTEX
8
Halfen
62
7
10
 713.529
20
-75.429
30
0
0
VERTEX
8
Halfen
62
7
10
 713.972
20
-74.466
30
0
0
VERTEX
8
Halfen
62
7
10
 714.339
20
-73.472
30
0
0
VERTEX
8
Halfen
62
7
10
 714.627
20
-72.452
30
0
0
VERTEX
8
Halfen
62
7
10
 714.834
20
-71.412
30
0
0
VERTEX
8
Halfen
62
7
10
 714.958
20
-70.359
30
0
0
VERTEX
8
Halfen
62
7
10
 715
20
-69.3
30
0
0
SEQEND
8
Halfen
0
POLYLINE
8
Halfen
62
7
66
1
10
0.0
20
0.0
30
0.0
70
1
0
VERTEX
8
Halfen
62
7
10
 915
20
-69.3
30
0
0
VERTEX
8
Halfen
62
7
10
 915
20
-56.8
30
0
0
VERTEX
8
Halfen
62
7
10
 915
20
 69.3
30
0
0
VERTEX
8
Halfen
62
7
10
 914.958
20
 70.359
30
0
0
VERTEX
8
Halfen
62
7
10
 914.834
20
 71.412
30
0
0
VERTEX
8
Halfen
62
7
10
 914.627
20
 72.452
30
0
0
VERTEX
8
Halfen
62
7
10
 914.339
20
 73.472
30
0
0
VERTEX
8
Halfen
62
7
10
 913.972
20
 74.466
30
0
0
VERTEX
8
Halfen
62
7
10
 913.529
20
 75.429
30
0
0
VERTEX
8
Halfen
62
7
10
 913.011
20
 76.354
30
0
0
VERTEX
8
Halfen
62
7
10
 912.422
20
 77.235
30
0
0
VERTEX
8
Halfen
62
7
10
 911.765
20
 78.068
30
0
0
VERTEX
8
Halfen
62
7
10
 911.046
20
 78.846
30
0
0
VERTEX
8
Halfen
62
7
10
 910.268
20
 79.565
30
0
0
VERTEX
8
Halfen
62
7
10
 909.435
20
 80.222
30
0
0
VERTEX
8
Halfen
62
7
10
 908.554
20
 80.811
30
0
0
VERTEX
8
Halfen
62
7
10
 907.629
20
 81.329
30
0
0
VERTEX
8
Halfen
62
7
10
 906.666
20
 81.772
30
0
0
VERTEX
8
Halfen
62
7
10
 905.672
20
 82.139
30
0
0
VERTEX
8
Halfen
62
7
10
 904.652
20
 82.427
30
0
0
VERTEX
8
Halfen
62
7
10
 903.612
20
 82.634
30
0
0
VERTEX
8
Halfen
62
7
10
 902.559
20
 82.758
30
0
0
VERTEX
8
Halfen
62
7
10
 901.5
20
 82.8
30
0
0
VERTEX
8
Halfen
62
7
10
 898.5
20
 82.8
30
0
0
VERTEX
8
Halfen
62
7
10
 897.441
20
 82.758
30
0
0
VERTEX
8
Halfen
62
7
10
 896.388
20
 82.634
30
0
0
VERTEX
8
Halfen
62
7
10
 895.348
20
 82.427
30
0
0
VERTEX
8
Halfen
62
7
10
 894.328
20
 82.139
30
0
0
VERTEX
8
Halfen
62
7
10
 893.334
20
 81.772
30
0
0
VERTEX
8
Halfen
62
7
10
 892.371
20
 81.329
30
0
0
VERTEX
8
Halfen
62
7
10
 891.446
20
 80.811
30
0
0
VERTEX
8
Halfen
62
7
10
 890.565
20
 80.222
30
0
0
VERTEX
8
Halfen
62
7
10
 889.732
20
 79.565
30
0
0
VERTEX
8
Halfen
62
7
10
 888.954
20
 78.846
30
0
0
VERTEX
8
Halfen
62
7
10
 888.235
20
 78.068
30
0
0
VERTEX
8
Halfen
62
7
10
 887.578
20
 77.235
30
0
0
VERTEX
8
Halfen
62
7
10
 886.989
20
 76.354
30
0
0
VERTEX
8
Halfen
62
7
10
 886.471
20
 75.429
30
0
0
VERTEX
8
Halfen
62
7
10
 886.028
20
 74.466
30
0
0
VERTEX
8
Halfen
62
7
10
 885.661
20
 73.472
30
0
0
VERTEX
8
Halfen
62
7
10
 885.373
20
 72.452
30
0
0
VERTEX
8
Halfen
62
7
10
 885.166
20
 71.412
30
0
0
VERTEX
8
Halfen
62
7
10
 885.042
20
 70.359
30
0
0
VERTEX
8
Halfen
62
7
10
 885
20
 69.3
30
0
0
VERTEX
8
Halfen
62
7
10
 885
20
-56.8
30
0
0
VERTEX
8
Halfen
62
7
10
 885
20
-69.3
30
0
0
VERTEX
8
Halfen
62
7
10
 885.042
20
-70.359
30
0
0
VERTEX
8
Halfen
62
7
10
 885.166
20
-71.412
30
0
0
VERTEX
8
Halfen
62
7
10
 885.373
20
-72.452
30
0
0
VERTEX
8
Halfen
62
7
10
 885.661
20
-73.472
30
0
0
VERTEX
8
Halfen
62
7
10
 886.028
20
-74.466
30
0
0
VERTEX
8
Halfen
62
7
10
 886.471
20
-75.429
30
0
0
VERTEX
8
Halfen
62
7
10
 886.989
20
-76.354
30
0
0
VERTEX
8
Halfen
62
7
10
 887.578
20
-77.235
30
0
0
VERTEX
8
Halfen
62
7
10
 888.235
20
-78.068
30
0
0
VERTEX
8
Halfen
62
7
10
 888.954
20
-78.846
30
0
0
VERTEX
8
Halfen
62
7
10
 889.732
20
-79.565
30
0
0
VERTEX
8
Halfen
62
7
10
 890.565
20
-80.222
30
0
0
VERTEX
8
Halfen
62
7
10
 891.446
20
-80.811
30
0
0
VERTEX
8
Halfen
62
7
10
 892.371
20
-81.329
30
0
0
VERTEX
8
Halfen
62
7
10
 893.334
20
-81.772
30
0
0
VERTEX
8
Halfen
62
7
10
 894.328
20
-82.139
30
0
0
VERTEX
8
Halfen
62
7
10
 895.348
20
-82.427
30
0
0
VERTEX
8
Halfen
62
7
10
 896.388
20
-82.634
30
0
0
VERTEX
8
Halfen
62
7
10
 897.441
20
-82.758
30
0
0
VERTEX
8
Halfen
62
7
10
 898.5
20
-82.8
30
0
0
VERTEX
8
Halfen
62
7
10
 901.5
20
-82.8
30
0
0
VERTEX
8
Halfen
62
7
10
 902.559
20
-82.758
30
0
0
VERTEX
8
Halfen
62
7
10
 903.612
20
-82.634
30
0
0
VERTEX
8
Halfen
62
7
10
 904.652
20
-82.427
30
0
0
VERTEX
8
Halfen
62
7
10
 905.672
20
-82.139
30
0
0
VERTEX
8
Halfen
62
7
10
 906.666
20
-81.772
30
0
0
VERTEX
8
Halfen
62
7
10
 907.629
20
-81.329
30
0
0
VERTEX
8
Halfen
62
7
10
 908.554
20
-80.811
30
0
0
VERTEX
8
Halfen
62
7
10
 909.435
20
-80.222
30
0
0
VERTEX
8
Halfen
62
7
10
 910.268
20
-79.565
30
0
0
VERTEX
8
Halfen
62
7
10
 911.046
20
-78.846
30
0
0
VERTEX
8
Halfen
62
7
10
 911.765
20
-78.068
30
0
0
VERTEX
8
Halfen
62
7
10
 912.422
20
-77.235
30
0
0
VERTEX
8
Halfen
62
7
10
 913.011
20
-76.354
30
0
0
VERTEX
8
Halfen
62
7
10
 913.529
20
-75.429
30
0
0
VERTEX
8
Halfen
62
7
10
 913.972
20
-74.466
30
0
0
VERTEX
8
Halfen
62
7
10
 914.339
20
-73.472
30
0
0
VERTEX
8
Halfen
62
7
10
 914.627
20
-72.452
30
0
0
VERTEX
8
Halfen
62
7
10
 914.834
20
-71.412
30
0
0
VERTEX
8
Halfen
62
7
10
 914.958
20
-70.359
30
0
0
VERTEX
8
Halfen
62
7
10
 915
20
-69.3
30
0
0
SEQEND
8
Halfen
0
POLYLINE
8
Halfen
62
7
66
1
10
0.0
20
0.0
30
0.0
70
1
0
VERTEX
8
Halfen
62
7
10
 156
20
-775
30
0
0
VERTEX
8
Halfen
62
7
10
 156
20
-160
30
0
0
VERTEX
8
Halfen
62
7
10
 144
20
-160
30
0
0
VERTEX
8
Halfen
62
7
10
 144
20
-775
30
0
0
SEQEND
8
Halfen
0
POLYLINE
8
Halfen
62
7
66
1
10
0.0
20
0.0
30
0.0
70
1
0
VERTEX
8
Halfen
62
7
10
 155.25
20
-160
30
0
0
VERTEX
8
Halfen
62
7
10
 155.25
20
-62
30
0
0
VERTEX
8
Halfen
62
7
10
 144.75
20
-62
30
0
0
VERTEX
8
Halfen
62
7
10
 144.75
20
-160
30
0
0
SEQEND
8
Halfen
0
POLYLINE
8
Halfen
62
7
66
1
10
0.0
20
0.0
30
0.0
70
1
0
VERTEX
8
Halfen
62
7
10
 156
20
-62
30
0
0
VERTEX
8
Halfen
62
7
10
 156
20
-60
30
0
0
VERTEX
8
Halfen
62
7
10
 144
20
-60
30
0
0
VERTEX
8
Halfen
62
7
10
 144
20
-62
30
0
0
SEQEND
8
Halfen
0
POLYLINE
8
Halfen
62
7
66
1
10
0.0
20
0.0
30
0.0
70
1
0
VERTEX
8
Halfen
62
7
10
 155.25
20
-60
30
0
0
VERTEX
8
Halfen
62
7
10
 155.25
20
 60
30
0
0
VERTEX
8
Halfen
62
7
10
 144.75
20
 60
30
0
0
VERTEX
8
Halfen
62
7
10
 144.75
20
-60
30
0
0
SEQEND
8
Halfen
0
POLYLINE
8
Halfen
62
7
66
1
10
0.0
20
0.0
30
0.0
70
1
0
VERTEX
8
Halfen
62
7
10
 156
20
 60
30
0
0
VERTEX
8
Halfen
62
7
10
 156
20
 62
30
0
0
VERTEX
8
Halfen
62
7
10
 144
20
 62
30
0
0
VERTEX
8
Halfen
62
7
10
 144
20
 60
30
0
0
SEQEND
8
Halfen
0
POLYLINE
8
Halfen
62
7
66
1
10
0.0
20
0.0
30
0.0
70
1
0
VERTEX
8
Halfen
62
7
10
 155.25
20
 62
30
0
0
VERTEX
8
Halfen
62
7
10
 155.25
20
 160
30
0
0
VERTEX
8
Halfen
62
7
10
 144.75
20
 160
30
0
0
VERTEX
8
Halfen
62
7
10
 144.75
20
 62
30
0
0
SEQEND
8
Halfen
0
POLYLINE
8
Halfen
62
7
66
1
10
0.0
20
0.0
30
0.0
70
1
0
VERTEX
8
Halfen
62
7
10
 156
20
 160
30
0
0
VERTEX
8
Halfen
62
7
10
 156
20
 775
30
0
0
VERTEX
8
Halfen
62
7
10
 144
20
 775
30
0
0
VERTEX
8
Halfen
62
7
10
 144
20
 160
30
0
0
SEQEND
8
Halfen
0
POLYLINE
8
Halfen
62
7
66
1
10
0.0
20
0.0
30
0.0
70
1
0
VERTEX
8
Halfen
62
7
10
 331
20
-775
30
0
0
VERTEX
8
Halfen
62
7
10
 331
20
-160
30
0
0
VERTEX
8
Halfen
62
7
10
 319
20
-160
30
0
0
VERTEX
8
Halfen
62
7
10
 319
20
-775
30
0
0
SEQEND
8
Halfen
0
POLYLINE
8
Halfen
62
7
66
1
10
0.0
20
0.0
30
0.0
70
1
0
VERTEX
8
Halfen
62
7
10
 330.25
20
-160
30
0
0
VERTEX
8
Halfen
62
7
10
 330.25
20
-62
30
0
0
VERTEX
8
Halfen
62
7
10
 319.75
20
-62
30
0
0
VERTEX
8
Halfen
62
7
10
 319.75
20
-160
30
0
0
SEQEND
8
Halfen
0
POLYLINE
8
Halfen
62
7
66
1
10
0.0
20
0.0
30
0.0
70
1
0
VERTEX
8
Halfen
62
7
10
 331
20
-62
30
0
0
VERTEX
8
Halfen
62
7
10
 331
20
-60
30
0
0
VERTEX
8
Halfen
62
7
10
 319
20
-60
30
0
0
VERTEX
8
Halfen
62
7
10
 319
20
-62
30
0
0
SEQEND
8
Halfen
0
POLYLINE
8
Halfen
62
7
66
1
10
0.0
20
0.0
30
0.0
70
1
0
VERTEX
8
Halfen
62
7
10
 330.25
20
-60
30
0
0
VERTEX
8
Halfen
62
7
10
 330.25
20
 60
30
0
0
VERTEX
8
Halfen
62
7
10
 319.75
20
 60
30
0
0
VERTEX
8
Halfen
62
7
10
 319.75
20
-60
30
0
0
SEQEND
8
Halfen
0
POLYLINE
8
Halfen
62
7
66
1
10
0.0
20
0.0
30
0.0
70
1
0
VERTEX
8
Halfen
62
7
10
 331
20
 60
30
0
0
VERTEX
8
Halfen
62
7
10
 331
20
 62
30
0
0
VERTEX
8
Halfen
62
7
10
 319
20
 62
30
0
0
VERTEX
8
Halfen
62
7
10
 319
20
 60
30
0
0
SEQEND
8
Halfen
0
POLYLINE
8
Halfen
62
7
66
1
10
0.0
20
0.0
30
0.0
70
1
0
VERTEX
8
Halfen
62
7
10
 330.25
20
 62
30
0
0
VERTEX
8
Halfen
62
7
10
 330.25
20
 160
30
0
0
VERTEX
8
Halfen
62
7
10
 319.75
20
 160
30
0
0
VERTEX
8
Halfen
62
7
10
 319.75
20
 62
30
0
0
SEQEND
8
Halfen
0
POLYLINE
8
Halfen
62
7
66
1
10
0.0
20
0.0
30
0.0
70
1
0
VERTEX
8
Halfen
62
7
10
 331
20
 160
30
0
0
VERTEX
8
Halfen
62
7
10
 331
20
 775
30
0
0
VERTEX
8
Halfen
62
7
10
 319
20
 775
30
0
0
VERTEX
8
Halfen
62
7
10
 319
20
 160
30
0
0
SEQEND
8
Halfen
0
POLYLINE
8
Halfen
62
7
66
1
10
0.0
20
0.0
30
0.0
70
1
0
VERTEX
8
Halfen
62
7
10
 506
20
-775
30
0
0
VERTEX
8
Halfen
62
7
10
 506
20
-160
30
0
0
VERTEX
8
Halfen
62
7
10
 494
20
-160
30
0
0
VERTEX
8
Halfen
62
7
10
 494
20
-775
30
0
0
SEQEND
8
Halfen
0
POLYLINE
8
Halfen
62
7
66
1
10
0.0
20
0.0
30
0.0
70
1
0
VERTEX
8
Halfen
62
7
10
 505.25
20
-160
30
0
0
VERTEX
8
Halfen
62
7
10
 505.25
20
-62
30
0
0
VERTEX
8
Halfen
62
7
10
 494.75
20
-62
30
0
0
VERTEX
8
Halfen
62
7
10
 494.75
20
-160
30
0
0
SEQEND
8
Halfen
0
POLYLINE
8
Halfen
62
7
66
1
10
0.0
20
0.0
30
0.0
70
1
0
VERTEX
8
Halfen
62
7
10
 506
20
-62
30
0
0
VERTEX
8
Halfen
62
7
10
 506
20
-60
30
0
0
VERTEX
8
Halfen
62
7
10
 494
20
-60
30
0
0
VERTEX
8
Halfen
62
7
10
 494
20
-62
30
0
0
SEQEND
8
Halfen
0
POLYLINE
8
Halfen
62
7
66
1
10
0.0
20
0.0
30
0.0
70
1
0
VERTEX
8
Halfen
62
7
10
 505.25
20
-60
30
0
0
VERTEX
8
Halfen
62
7
10
 505.25
20
 60
30
0
0
VERTEX
8
Halfen
62
7
10
 494.75
20
 60
30
0
0
VERTEX
8
Halfen
62
7
10
 494.75
20
-60
30
0
0
SEQEND
8
Halfen
0
POLYLINE
8
Halfen
62
7
66
1
10
0.0
20
0.0
30
0.0
70
1
0
VERTEX
8
Halfen
62
7
10
 506
20
 60
30
0
0
VERTEX
8
Halfen
62
7
10
 506
20
 62
30
0
0
VERTEX
8
Halfen
62
7
10
 494
20
 62
30
0
0
VERTEX
8
Halfen
62
7
10
 494
20
 60
30
0
0
SEQEND
8
Halfen
0
POLYLINE
8
Halfen
62
7
66
1
10
0.0
20
0.0
30
0.0
70
1
0
VERTEX
8
Halfen
62
7
10
 505.25
20
 62
30
0
0
VERTEX
8
Halfen
62
7
10
 505.25
20
 160
30
0
0
VERTEX
8
Halfen
62
7
10
 494.75
20
 160
30
0
0
VERTEX
8
Halfen
62
7
10
 494.75
20
 62
30
0
0
SEQEND
8
Halfen
0
POLYLINE
8
Halfen
62
7
66
1
10
0.0
20
0.0
30
0.0
70
1
0
VERTEX
8
Halfen
62
7
10
 506
20
 160
30
0
0
VERTEX
8
Halfen
62
7
10
 506
20
 775
30
0
0
VERTEX
8
Halfen
62
7
10
 494
20
 775
30
0
0
VERTEX
8
Halfen
62
7
10
 494
20
 160
30
0
0
SEQEND
8
Halfen
0
POLYLINE
8
Halfen
62
7
66
1
10
0.0
20
0.0
30
0.0
70
1
0
VERTEX
8
Halfen
62
7
10
 681
20
-775
30
0
0
VERTEX
8
Halfen
62
7
10
 681
20
-160
30
0
0
VERTEX
8
Halfen
62
7
10
 669
20
-160
30
0
0
VERTEX
8
Halfen
62
7
10
 669
20
-775
30
0
0
SEQEND
8
Halfen
0
POLYLINE
8
Halfen
62
7
66
1
10
0.0
20
0.0
30
0.0
70
1
0
VERTEX
8
Halfen
62
7
10
 680.25
20
-160
30
0
0
VERTEX
8
Halfen
62
7
10
 680.25
20
-62
30
0
0
VERTEX
8
Halfen
62
7
10
 669.75
20
-62
30
0
0
VERTEX
8
Halfen
62
7
10
 669.75
20
-160
30
0
0
SEQEND
8
Halfen
0
POLYLINE
8
Halfen
62
7
66
1
10
0.0
20
0.0
30
0.0
70
1
0
VERTEX
8
Halfen
62
7
10
 681
20
-62
30
0
0
VERTEX
8
Halfen
62
7
10
 681
20
-60
30
0
0
VERTEX
8
Halfen
62
7
10
 669
20
-60
30
0
0
VERTEX
8
Halfen
62
7
10
 669
20
-62
30
0
0
SEQEND
8
Halfen
0
POLYLINE
8
Halfen
62
7
66
1
10
0.0
20
0.0
30
0.0
70
1
0
VERTEX
8
Halfen
62
7
10
 680.25
20
-60
30
0
0
VERTEX
8
Halfen
62
7
10
 680.25
20
 60
30
0
0
VERTEX
8
Halfen
62
7
10
 669.75
20
 60
30
0
0
VERTEX
8
Halfen
62
7
10
 669.75
20
-60
30
0
0
SEQEND
8
Halfen
0
POLYLINE
8
Halfen
62
7
66
1
10
0.0
20
0.0
30
0.0
70
1
0
VERTEX
8
Halfen
62
7
10
 681
20
 60
30
0
0
VERTEX
8
Halfen
62
7
10
 681
20
 62
30
0
0
VERTEX
8
Halfen
62
7
10
 669
20
 62
30
0
0
VERTEX
8
Halfen
62
7
10
 669
20
 60
30
0
0
SEQEND
8
Halfen
0
POLYLINE
8
Halfen
62
7
66
1
10
0.0
20
0.0
30
0.0
70
1
0
VERTEX
8
Halfen
62
7
10
 680.25
20
 62
30
0
0
VERTEX
8
Halfen
62
7
10
 680.25
20
 160
30
0
0
VERTEX
8
Halfen
62
7
10
 669.75
20
 160
30
0
0
VERTEX
8
Halfen
62
7
10
 669.75
20
 62
30
0
0
SEQEND
8
Halfen
0
POLYLINE
8
Halfen
62
7
66
1
10
0.0
20
0.0
30
0.0
70
1
0
VERTEX
8
Halfen
62
7
10
 681
20
 160
30
0
0
VERTEX
8
Halfen
62
7
10
 681
20
 775
30
0
0
VERTEX
8
Halfen
62
7
10
 669
20
 775
30
0
0
VERTEX
8
Halfen
62
7
10
 669
20
 160
30
0
0
SEQEND
8
Halfen
0
POLYLINE
8
Halfen
62
7
66
1
10
0.0
20
0.0
30
0.0
70
1
0
VERTEX
8
Halfen
62
7
10
 856
20
-775
30
0
0
VERTEX
8
Halfen
62
7
10
 856
20
-160
30
0
0
VERTEX
8
Halfen
62
7
10
 844
20
-160
30
0
0
VERTEX
8
Halfen
62
7
10
 844
20
-775
30
0
0
SEQEND
8
Halfen
0
POLYLINE
8
Halfen
62
7
66
1
10
0.0
20
0.0
30
0.0
70
1
0
VERTEX
8
Halfen
62
7
10
 855.25
20
-160
30
0
0
VERTEX
8
Halfen
62
7
10
 855.25
20
-62
30
0
0
VERTEX
8
Halfen
62
7
10
 844.75
20
-62
30
0
0
VERTEX
8
Halfen
62
7
10
 844.75
20
-160
30
0
0
SEQEND
8
Halfen
0
POLYLINE
8
Halfen
62
7
66
1
10
0.0
20
0.0
30
0.0
70
1
0
VERTEX
8
Halfen
62
7
10
 856
20
-62
30
0
0
VERTEX
8
Halfen
62
7
10
 856
20
-60
30
0
0
VERTEX
8
Halfen
62
7
10
 844
20
-60
30
0
0
VERTEX
8
Halfen
62
7
10
 844
20
-62
30
0
0
SEQEND
8
Halfen
0
POLYLINE
8
Halfen
62
7
66
1
10
0.0
20
0.0
30
0.0
70
1
0
VERTEX
8
Halfen
62
7
10
 855.25
20
-60
30
0
0
VERTEX
8
Halfen
62
7
10
 855.25
20
 60
30
0
0
VERTEX
8
Halfen
62
7
10
 844.75
20
 60
30
0
0
VERTEX
8
Halfen
62
7
10
 844.75
20
-60
30
0
0
SEQEND
8
Halfen
0
POLYLINE
8
Halfen
62
7
66
1
10
0.0
20
0.0
30
0.0
70
1
0
VERTEX
8
Halfen
62
7
10
 856
20
 60
30
0
0
VERTEX
8
Halfen
62
7
10
 856
20
 62
30
0
0
VERTEX
8
Halfen
62
7
10
 844
20
 62
30
0
0
VERTEX
8
Halfen
62
7
10
 844
20
 60
30
0
0
SEQEND
8
Halfen
0
POLYLINE
8
Halfen
62
7
66
1
10
0.0
20
0.0
30
0.0
70
1
0
VERTEX
8
Halfen
62
7
10
 855.25
20
 62
30
0
0
VERTEX
8
Halfen
62
7
10
 855.25
20
 160
30
0
0
VERTEX
8
Halfen
62
7
10
 844.75
20
 160
30
0
0
VERTEX
8
Halfen
62
7
10
 844.75
20
 62
30
0
0
SEQEND
8
Halfen
0
POLYLINE
8
Halfen
62
7
66
1
10
0.0
20
0.0
30
0.0
70
1
0
VERTEX
8
Halfen
62
7
10
 856
20
 160
30
0
0
VERTEX
8
Halfen
62
7
10
 856
20
 775
30
0
0
VERTEX
8
Halfen
62
7
10
 844
20
 775
30
0
0
VERTEX
8
Halfen
62
7
10
 844
20
 160
30
0
0
SEQEND
8
Halfen
0
POLYLINE
8
Halfen
62
7
66
1
10
0.0
20
0.0
30
0.0
70
1
0
VERTEX
8
Halfen
62
7
10
 1480
20
-60
30
0
0
VERTEX
8
Halfen
62
7
10
 1480
20
 60
30
0
0
VERTEX
8
Halfen
62
7
10
 1466.5
20
 73.5
30
0
0
VERTEX
8
Halfen
62
7
10
 1466.5
20
 60
30
0
0
VERTEX
8
Halfen
62
7
10
 1250
20
 60
30
0
0
VERTEX
8
Halfen
62
7
10
 1250
20
-60
30
0
0
VERTEX
8
Halfen
62
7
10
 1466.5
20
-60
30
0
0
VERTEX
8
Halfen
62
7
10
 1466.5
20
-73.5
30
0
0
SEQEND
8
Halfen
0
POLYLINE
8
Halfen
62
7
66
1
10
0.0
20
0.0
30
0.0
70
1
0
VERTEX
8
Halfen
62
7
10
 1250
20
-60
30
0
0
VERTEX
8
Halfen
62
7
10
 1250
20
 60
30
0
0
VERTEX
8
Halfen
62
7
10
 1213.5
20
 60
30
0
0
VERTEX
8
Halfen
62
7
10
 1213.5
20
 73.5
30
0
0
VERTEX
8
Halfen
62
7
10
 1200
20
 60
30
0
0
VERTEX
8
Halfen
62
7
10
 1200
20
-60
30
0
0
VERTEX
8
Halfen
62
7
10
 1213.5
20
-73.5
30
0
0
VERTEX
8
Halfen
62
7
10
 1213.5
20
-60
30
0
0
SEQEND
8
Halfen
0
POLYLINE
8
Halfen
62
7
66
1
10
0.0
20
0.0
30
0.0
70
1
0
VERTEX
8
Halfen
62
7
10
 1477.5
20
-58.75
30
0
0
VERTEX
8
Halfen
62
7
10
 1477.5
20
 58.75
30
0
0
VERTEX
8
Halfen
62
7
10
 1469
20
 67.25
30
0
0
VERTEX
8
Halfen
62
7
10
 1469
20
 58
30
0
0
VERTEX
8
Halfen
62
7
10
 1252
20
 58
30
0
0
VERTEX
8
Halfen
62
7
10
 1252
20
-58
30
0
0
VERTEX
8
Halfen
62
7
10
 1469
20
-58
30
0
0
VERTEX
8
Halfen
62
7
10
 1469
20
-67.25
30
0
0
SEQEND
8
Halfen
0
POLYLINE
8
Halfen
62
7
66
1
10
0.0
20
0.0
30
0.0
70
1
0
VERTEX
8
Halfen
62
7
10
 1248
20
-58
30
0
0
VERTEX
8
Halfen
62
7
10
 1248
20
 58
30
0
0
VERTEX
8
Halfen
62
7
10
 1211
20
 58
30
0
0
VERTEX
8
Halfen
62
7
10
 1211
20
 67.25
30
0
0
VERTEX
8
Halfen
62
7
10
 1202.5
20
 58.75
30
0
0
VERTEX
8
Halfen
62
7
10
 1202.5
20
-58.75
30
0
0
VERTEX
8
Halfen
62
7
10
 1211
20
-67.25
30
0
0
VERTEX
8
Halfen
62
7
10
 1211
20
-58
30
0
0
SEQEND
8
Halfen
0
POLYLINE
8
Halfen
62
7
66
1
10
0.0
20
0.0
30
0.0
70
1
0
VERTEX
8
Halfen
62
7
10
 1465
20
-81.8
30
0
0
VERTEX
8
Halfen
62
7
10
 1465
20
 81.8
30
0
0
VERTEX
8
Halfen
62
7
10
 1461
20
 81.8
30
0
0
VERTEX
8
Halfen
62
7
10
 1460.846
20
 81.797
30
0
0
VERTEX
8
Halfen
62
7
10
 1460.691
20
 81.786
30
0
0
VERTEX
8
Halfen
62
7
10
 1460.538
20
 81.769
30
0
0
VERTEX
8
Halfen
62
7
10
 1460.385
20
 81.746
30
0
0
VERTEX
8
Halfen
62
7
10
 1460.234
20
 81.715
30
0
0
VERTEX
8
Halfen
62
7
10
 1460.084
20
 81.678
30
0
0
VERTEX
8
Halfen
62
7
10
 1459.936
20
 81.634
30
0
0
VERTEX
8
Halfen
62
7
10
 1459.789
20
 81.584
30
0
0
VERTEX
8
Halfen
62
7
10
 1459.646
20
 81.527
30
0
0
VERTEX
8
Halfen
62
7
10
 1459.505
20
 81.464
30
0
0
VERTEX
8
Halfen
62
7
10
 1459.366
20
 81.395
30
0
0
VERTEX
8
Halfen
62
7
10
 1459.231
20
 81.32
30
0
0
VERTEX
8
Halfen
62
7
10
 1459.1
20
 81.239
30
0
0
VERTEX
8
Halfen
62
7
10
 1458.972
20
 81.153
30
0
0
VERTEX
8
Halfen
62
7
10
 1458.848
20
 81.06
30
0
0
VERTEX
8
Halfen
62
7
10
 1458.728
20
 80.963
30
0
0
VERTEX
8
Halfen
62
7
10
 1458.613
20
 80.86
30
0
0
VERTEX
8
Halfen
62
7
10
 1458.502
20
 80.752
30
0
0
VERTEX
8
Halfen
62
7
10
 1458.397
20
 80.639
30
0
0
VERTEX
8
Halfen
62
7
10
 1458.296
20
 80.522
30
0
0
VERTEX
8
Halfen
62
7
10
 1457.41
20
 79.491
30
0
0
VERTEX
8
Halfen
62
7
10
 1456.479
20
 78.5
30
0
0
VERTEX
8
Halfen
62
7
10
 1455.505
20
 77.551
30
0
0
VERTEX
8
Halfen
62
7
10
 1454.491
20
 76.646
30
0
0
VERTEX
8
Halfen
62
7
10
 1453.437
20
 75.787
30
0
0
VERTEX
8
Halfen
62
7
10
 1452.347
20
 74.975
30
0
0
VERTEX
8
Halfen
62
7
10
 1451.222
20
 74.211
30
0
0
VERTEX
8
Halfen
62
7
10
 1450.064
20
 73.499
30
0
0
VERTEX
8
Halfen
62
7
10
 1448.876
20
 72.838
30
0
0
VERTEX
8
Halfen
62
7
10
 1447.66
20
 72.23
30
0
0
VERTEX
8
Halfen
62
7
10
 1446.418
20
 71.676
30
0
0
VERTEX
8
Halfen
62
7
10
 1445.153
20
 71.178
30
0
0
VERTEX
8
Halfen
62
7
10
 1443.867
20
 70.736
30
0
0
VERTEX
8
Halfen
62
7
10
 1442.563
20
 70.351
30
0
0
VERTEX
8
Halfen
62
7
10
 1441.243
20
 70.024
30
0
0
VERTEX
8
Halfen
62
7
10
 1439.911
20
 69.756
30
0
0
VERTEX
8
Halfen
62
7
10
 1438.567
20
 69.547
30
0
0
VERTEX
8
Halfen
62
7
10
 1437.216
20
 69.397
30
0
0
VERTEX
8
Halfen
62
7
10
 1435.859
20
 69.307
30
0
0
VERTEX
8
Halfen
62
7
10
 1434.5
20
 69.277
30
0
0
VERTEX
8
Halfen
62
7
10
 1412.5
20
 69.277
30
0
0
VERTEX
8
Halfen
62
7
10
 1411.141
20
 69.307
30
0
0
VERTEX
8
Halfen
62
7
10
 1409.784
20
 69.397
30
0
0
VERTEX
8
Halfen
62
7
10
 1408.433
20
 69.547
30
0
0
VERTEX
8
Halfen
62
7
10
 1407.089
20
 69.756
30
0
0
VERTEX
8
Halfen
62
7
10
 1405.757
20
 70.024
30
0
0
VERTEX
8
Halfen
62
7
10
 1404.437
20
 70.351
30
0
0
VERTEX
8
Halfen
62
7
10
 1403.133
20
 70.736
30
0
0
VERTEX
8
Halfen
62
7
10
 1401.847
20
 71.178
30
0
0
VERTEX
8
Halfen
62
7
10
 1400.582
20
 71.676
30
0
0
VERTEX
8
Halfen
62
7
10
 1399.34
20
 72.23
30
0
0
VERTEX
8
Halfen
62
7
10
 1398.124
20
 72.838
30
0
0
VERTEX
8
Halfen
62
7
10
 1396.936
20
 73.499
30
0
0
VERTEX
8
Halfen
62
7
10
 1395.778
20
 74.211
30
0
0
VERTEX
8
Halfen
62
7
10
 1394.653
20
 74.975
30
0
0
VERTEX
8
Halfen
62
7
10
 1393.563
20
 75.787
30
0
0
VERTEX
8
Halfen
62
7
10
 1392.509
20
 76.646
30
0
0
VERTEX
8
Halfen
62
7
10
 1391.495
20
 77.551
30
0
0
VERTEX
8
Halfen
62
7
10
 1390.521
20
 78.5
30
0
0
VERTEX
8
Halfen
62
7
10
 1389.59
20
 79.491
30
0
0
VERTEX
8
Halfen
62
7
10
 1388.704
20
 80.522
30
0
0
VERTEX
8
Halfen
62
7
10
 1388.603
20
 80.639
30
0
0
VERTEX
8
Halfen
62
7
10
 1388.498
20
 80.752
30
0
0
VERTEX
8
Halfen
62
7
10
 1388.387
20
 80.86
30
0
0
VERTEX
8
Halfen
62
7
10
 1388.272
20
 80.963
30
0
0
VERTEX
8
Halfen
62
7
10
 1388.152
20
 81.06
30
0
0
VERTEX
8
Halfen
62
7
10
 1388.028
20
 81.153
30
0
0
VERTEX
8
Halfen
62
7
10
 1387.9
20
 81.239
30
0
0
VERTEX
8
Halfen
62
7
10
 1387.769
20
 81.32
30
0
0
VERTEX
8
Halfen
62
7
10
 1387.634
20
 81.395
30
0
0
VERTEX
8
Halfen
62
7
10
 1387.495
20
 81.464
30
0
0
VERTEX
8
Halfen
62
7
10
 1387.354
20
 81.527
30
0
0
VERTEX
8
Halfen
62
7
10
 1387.211
20
 81.584
30
0
0
VERTEX
8
Halfen
62
7
10
 1387.064
20
 81.634
30
0
0
VERTEX
8
Halfen
62
7
10
 1386.916
20
 81.678
30
0
0
VERTEX
8
Halfen
62
7
10
 1386.766
20
 81.715
30
0
0
VERTEX
8
Halfen
62
7
10
 1386.615
20
 81.746
30
0
0
VERTEX
8
Halfen
62
7
10
 1386.462
20
 81.769
30
0
0
VERTEX
8
Halfen
62
7
10
 1386.309
20
 81.786
30
0
0
VERTEX
8
Halfen
62
7
10
 1386.154
20
 81.797
30
0
0
VERTEX
8
Halfen
62
7
10
 1386
20
 81.8
30
0
0
VERTEX
8
Halfen
62
7
10
 1382
20
 81.8
30
0
0
VERTEX
8
Halfen
62
7
10
 1382
20
-81.8
30
0
0
VERTEX
8
Halfen
62
7
10
 1386
20
-81.8
30
0
0
VERTEX
8
Halfen
62
7
10
 1386.154
20
-81.797
30
0
0
VERTEX
8
Halfen
62
7
10
 1386.309
20
-81.786
30
0
0
VERTEX
8
Halfen
62
7
10
 1386.462
20
-81.769
30
0
0
VERTEX
8
Halfen
62
7
10
 1386.615
20
-81.746
30
0
0
VERTEX
8
Halfen
62
7
10
 1386.766
20
-81.715
30
0
0
VERTEX
8
Halfen
62
7
10
 1386.916
20
-81.678
30
0
0
VERTEX
8
Halfen
62
7
10
 1387.064
20
-81.634
30
0
0
VERTEX
8
Halfen
62
7
10
 1387.211
20
-81.584
30
0
0
VERTEX
8
Halfen
62
7
10
 1387.354
20
-81.527
30
0
0
VERTEX
8
Halfen
62
7
10
 1387.495
20
-81.464
30
0
0
VERTEX
8
Halfen
62
7
10
 1387.634
20
-81.395
30
0
0
VERTEX
8
Halfen
62
7
10
 1387.769
20
-81.32
30
0
0
VERTEX
8
Halfen
62
7
10
 1387.9
20
-81.239
30
0
0
VERTEX
8
Halfen
62
7
10
 1388.028
20
-81.153
30
0
0
VERTEX
8
Halfen
62
7
10
 1388.152
20
-81.06
30
0
0
VERTEX
8
Halfen
62
7
10
 1388.272
20
-80.963
30
0
0
VERTEX
8
Halfen
62
7
10
 1388.387
20
-80.86
30
0
0
VERTEX
8
Halfen
62
7
10
 1388.498
20
-80.752
30
0
0
VERTEX
8
Halfen
62
7
10
 1388.603
20
-80.639
30
0
0
VERTEX
8
Halfen
62
7
10
 1388.704
20
-80.522
30
0
0
VERTEX
8
Halfen
62
7
10
 1389.59
20
-79.491
30
0
0
VERTEX
8
Halfen
62
7
10
 1390.521
20
-78.5
30
0
0
VERTEX
8
Halfen
62
7
10
 1391.495
20
-77.551
30
0
0
VERTEX
8
Halfen
62
7
10
 1392.509
20
-76.646
30
0
0
VERTEX
8
Halfen
62
7
10
 1393.563
20
-75.787
30
0
0
VERTEX
8
Halfen
62
7
10
 1394.653
20
-74.975
30
0
0
VERTEX
8
Halfen
62
7
10
 1395.778
20
-74.211
30
0
0
VERTEX
8
Halfen
62
7
10
 1396.936
20
-73.499
30
0
0
VERTEX
8
Halfen
62
7
10
 1398.124
20
-72.838
30
0
0
VERTEX
8
Halfen
62
7
10
 1399.34
20
-72.23
30
0
0
VERTEX
8
Halfen
62
7
10
 1400.582
20
-71.676
30
0
0
VERTEX
8
Halfen
62
7
10
 1401.847
20
-71.178
30
0
0
VERTEX
8
Halfen
62
7
10
 1403.133
20
-70.736
30
0
0
VERTEX
8
Halfen
62
7
10
 1404.437
20
-70.351
30
0
0
VERTEX
8
Halfen
62
7
10
 1405.757
20
-70.024
30
0
0
VERTEX
8
Halfen
62
7
10
 1407.089
20
-69.756
30
0
0
VERTEX
8
Halfen
62
7
10
 1408.433
20
-69.547
30
0
0
VERTEX
8
Halfen
62
7
10
 1409.784
20
-69.397
30
0
0
VERTEX
8
Halfen
62
7
10
 1411.141
20
-69.307
30
0
0
VERTEX
8
Halfen
62
7
10
 1412.5
20
-69.277
30
0
0
VERTEX
8
Halfen
62
7
10
 1434.5
20
-69.277
30
0
0
VERTEX
8
Halfen
62
7
10
 1435.859
20
-69.307
30
0
0
VERTEX
8
Halfen
62
7
10
 1437.216
20
-69.397
30
0
0
VERTEX
8
Halfen
62
7
10
 1438.567
20
-69.547
30
0
0
VERTEX
8
Halfen
62
7
10
 1439.911
20
-69.756
30
0
0
VERTEX
8
Halfen
62
7
10
 1441.243
20
-70.024
30
0
0
VERTEX
8
Halfen
62
7
10
 1442.563
20
-70.351
30
0
0
VERTEX
8
Halfen
62
7
10
 1443.867
20
-70.736
30
0
0
VERTEX
8
Halfen
62
7
10
 1445.153
20
-71.178
30
0
0
VERTEX
8
Halfen
62
7
10
 1446.418
20
-71.676
30
0
0
VERTEX
8
Halfen
62
7
10
 1447.66
20
-72.23
30
0
0
VERTEX
8
Halfen
62
7
10
 1448.876
20
-72.838
30
0
0
VERTEX
8
Halfen
62
7
10
 1450.064
20
-73.499
30
0
0
VERTEX
8
Halfen
62
7
10
 1451.222
20
-74.211
30
0
0
VERTEX
8
Halfen
62
7
10
 1452.347
20
-74.975
30
0
0
VERTEX
8
Halfen
62
7
10
 1453.437
20
-75.787
30
0
0
VERTEX
8
Halfen
62
7
10
 1454.491
20
-76.646
30
0
0
VERTEX
8
Halfen
62
7
10
 1455.505
20
-77.551
30
0
0
VERTEX
8
Halfen
62
7
10
 1456.479
20
-78.5
30
0
0
VERTEX
8
Halfen
62
7
10
 1457.41
20
-79.491
30
0
0
VERTEX
8
Halfen
62
7
10
 1458.296
20
-80.522
30
0
0
VERTEX
8
Halfen
62
7
10
 1458.397
20
-80.639
30
0
0
VERTEX
8
Halfen
62
7
10
 1458.502
20
-80.752
30
0
0
VERTEX
8
Halfen
62
7
10
 1458.613
20
-80.86
30
0
0
VERTEX
8
Halfen
62
7
10
 1458.728
20
-80.963
30
0
0
VERTEX
8
Halfen
62
7
10
 1458.848
20
-81.06
30
0
0
VERTEX
8
Halfen
62
7
10
 1458.972
20
-81.153
30
0
0
VERTEX
8
Halfen
62
7
10
 1459.1
20
-81.239
30
0
0
VERTEX
8
Halfen
62
7
10
 1459.231
20
-81.32
30
0
0
VERTEX
8
Halfen
62
7
10
 1459.366
20
-81.395
30
0
0
VERTEX
8
Halfen
62
7
10
 1459.505
20
-81.464
30
0
0
VERTEX
8
Halfen
62
7
10
 1459.646
20
-81.527
30
0
0
VERTEX
8
Halfen
62
7
10
 1459.789
20
-81.584
30
0
0
VERTEX
8
Halfen
62
7
10
 1459.936
20
-81.634
30
0
0
VERTEX
8
Halfen
62
7
10
 1460.084
20
-81.678
30
0
0
VERTEX
8
Halfen
62
7
10
 1460.234
20
-81.715
30
0
0
VERTEX
8
Halfen
62
7
10
 1460.385
20
-81.746
30
0
0
VERTEX
8
Halfen
62
7
10
 1460.538
20
-81.769
30
0
0
VERTEX
8
Halfen
62
7
10
 1460.691
20
-81.786
30
0
0
VERTEX
8
Halfen
62
7
10
 1460.846
20
-81.797
30
0
0
VERTEX
8
Halfen
62
7
10
 1461
20
-81.8
30
0
0
SEQEND
8
Halfen
0
POLYLINE
8
Halfen
62
7
66
1
10
0.0
20
0.0
30
0.0
70
1
0
VERTEX
8
Halfen
62
7
10
 1242
20
-775
30
0
0
VERTEX
8
Halfen
62
7
10
 1242
20
-160
30
0
0
VERTEX
8
Halfen
62
7
10
 1230
20
-160
30
0
0
VERTEX
8
Halfen
62
7
10
 1230
20
-775
30
0
0
SEQEND
8
Halfen
0
POLYLINE
8
Halfen
62
7
66
1
10
0.0
20
0.0
30
0.0
70
1
0
VERTEX
8
Halfen
62
7
10
 1241.25
20
-160
30
0
0
VERTEX
8
Halfen
62
7
10
 1241.25
20
-62
30
0
0
VERTEX
8
Halfen
62
7
10
 1230.75
20
-62
30
0
0
VERTEX
8
Halfen
62
7
10
 1230.75
20
-160
30
0
0
SEQEND
8
Halfen
0
POLYLINE
8
Halfen
62
7
66
1
10
0.0
20
0.0
30
0.0
70
1
0
VERTEX
8
Halfen
62
7
10
 1242
20
-62
30
0
0
VERTEX
8
Halfen
62
7
10
 1242
20
-60
30
0
0
VERTEX
8
Halfen
62
7
10
 1230
20
-60
30
0
0
VERTEX
8
Halfen
62
7
10
 1230
20
-62
30
0
0
SEQEND
8
Halfen
0
POLYLINE
8
Halfen
62
7
66
1
10
0.0
20
0.0
30
0.0
70
1
0
VERTEX
8
Halfen
62
7
10
 1241.25
20
-60
30
0
0
VERTEX
8
Halfen
62
7
10
 1241.25
20
 60
30
0
0
VERTEX
8
Halfen
62
7
10
 1230.75
20
 60
30
0
0
VERTEX
8
Halfen
62
7
10
 1230.75
20
-60
30
0
0
SEQEND
8
Halfen
0
POLYLINE
8
Halfen
62
7
66
1
10
0.0
20
0.0
30
0.0
70
1
0
VERTEX
8
Halfen
62
7
10
 1242
20
 60
30
0
0
VERTEX
8
Halfen
62
7
10
 1242
20
 62
30
0
0
VERTEX
8
Halfen
62
7
10
 1230
20
 62
30
0
0
VERTEX
8
Halfen
62
7
10
 1230
20
 60
30
0
0
SEQEND
8
Halfen
0
POLYLINE
8
Halfen
62
7
66
1
10
0.0
20
0.0
30
0.0
70
1
0
VERTEX
8
Halfen
62
7
10
 1241.25
20
 62
30
0
0
VERTEX
8
Halfen
62
7
10
 1241.25
20
 160
30
0
0
VERTEX
8
Halfen
62
7
10
 1230.75
20
 160
30
0
0
VERTEX
8
Halfen
62
7
10
 1230.75
20
 62
30
0
0
SEQEND
8
Halfen
0
POLYLINE
8
Halfen
62
7
66
1
10
0.0
20
0.0
30
0.0
70
1
0
VERTEX
8
Halfen
62
7
10
 1242
20
 160
30
0
0
VERTEX
8
Halfen
62
7
10
 1242
20
 775
30
0
0
VERTEX
8
Halfen
62
7
10
 1230
20
 775
30
0
0
VERTEX
8
Halfen
62
7
10
 1230
20
 160
30
0
0
SEQEND
8
Halfen
0
ENDSEC
0
EOF
