0
SECTION
2
HEADER
9
$EXTMIN
10
 0
20
 100
30
0.0
9
$EXTMAX
10
 0
20
 100
30
0.0
9
$LIMMIN
10
 100
20
 0
9
$LIMMAX
10
 0
20
 100
9
$PSLTSCALE
70
1
0
ENDSEC
0
SECTION
2
TABLES
0
TABLE
2
LAYER
70
2
0
LAYER
2
0
70
0
62
7
6
CONTINUOUS
0
LAYER
2
Halfen
70
0
62
7
6
CONTINUOUS
0
ENDTAB
0
ENDSEC
0
SECTION
2
ENTITIES
0
POLYLINE
8
Halfen
62
7
66
1
10
0.0
20
0.0
30
0.0
70
1
0
VERTEX
8
Halfen
62
7
10
 0
20
-73.5
30
0
0
VERTEX
8
Halfen
62
7
10
 1000
20
-73.5
30
0
0
VERTEX
8
Halfen
62
7
10
 1000
20
 73.5
30
0
0
VERTEX
8
Halfen
62
7
10
 0
20
 73.5
30
0
0
SEQEND
8
Halfen
0
POLYLINE
8
Halfen
62
7
66
1
10
0.0
20
0.0
30
0.0
70
1
0
VERTEX
8
Halfen
62
7
10
 0
20
-60
30
0
0
VERTEX
8
Halfen
62
7
10
 1000
20
-60
30
0
0
VERTEX
8
Halfen
62
7
10
 1000
20
 60
30
0
0
VERTEX
8
Halfen
62
7
10
 0
20
 60
30
0
0
SEQEND
8
Halfen
0
POLYLINE
8
Halfen
62
7
66
1
10
0.0
20
0.0
30
0.0
70
1
0
VERTEX
8
Halfen
62
7
10
 20
20
-32.5
30
0
0
VERTEX
8
Halfen
62
7
10
 37
20
-1.5
30
0
0
VERTEX
8
Halfen
62
7
10
 28
20
-1.5
30
0
0
VERTEX
8
Halfen
62
7
10
 28
20
 32.5
30
0
0
VERTEX
8
Halfen
62
7
10
 12
20
 32.5
30
0
0
VERTEX
8
Halfen
62
7
10
 12
20
-1.5
30
0
0
VERTEX
8
Halfen
62
7
10
 3
20
-1.5
30
0
0
SEQEND
8
Halfen
0
POLYLINE
8
Halfen
62
7
66
1
10
0.0
20
0.0
30
0.0
70
1
0
VERTEX
8
Halfen
62
7
10
 980
20
-32.5
30
0
0
VERTEX
8
Halfen
62
7
10
 997
20
-1.5
30
0
0
VERTEX
8
Halfen
62
7
10
 988
20
-1.5
30
0
0
VERTEX
8
Halfen
62
7
10
 988
20
 32.5
30
0
0
VERTEX
8
Halfen
62
7
10
 972
20
 32.5
30
0
0
VERTEX
8
Halfen
62
7
10
 972
20
-1.5
30
0
0
VERTEX
8
Halfen
62
7
10
 963
20
-1.5
30
0
0
SEQEND
8
Halfen
0
POLYLINE
8
Halfen
62
7
66
1
10
0.0
20
0.0
30
0.0
70
1
0
VERTEX
8
Halfen
62
7
10
 68
20
-775
30
0
0
VERTEX
8
Halfen
62
7
10
 68
20
-160
30
0
0
VERTEX
8
Halfen
62
7
10
 56
20
-160
30
0
0
VERTEX
8
Halfen
62
7
10
 56
20
-775
30
0
0
SEQEND
8
Halfen
0
POLYLINE
8
Halfen
62
7
66
1
10
0.0
20
0.0
30
0.0
70
1
0
VERTEX
8
Halfen
62
7
10
 67.25
20
-160
30
0
0
VERTEX
8
Halfen
62
7
10
 67.25
20
-62
30
0
0
VERTEX
8
Halfen
62
7
10
 56.75
20
-62
30
0
0
VERTEX
8
Halfen
62
7
10
 56.75
20
-160
30
0
0
SEQEND
8
Halfen
0
POLYLINE
8
Halfen
62
7
66
1
10
0.0
20
0.0
30
0.0
70
1
0
VERTEX
8
Halfen
62
7
10
 68
20
-62
30
0
0
VERTEX
8
Halfen
62
7
10
 68
20
-60
30
0
0
VERTEX
8
Halfen
62
7
10
 56
20
-60
30
0
0
VERTEX
8
Halfen
62
7
10
 56
20
-62
30
0
0
SEQEND
8
Halfen
0
POLYLINE
8
Halfen
62
7
66
1
10
0.0
20
0.0
30
0.0
70
1
0
VERTEX
8
Halfen
62
7
10
 67.25
20
-60
30
0
0
VERTEX
8
Halfen
62
7
10
 67.25
20
 60
30
0
0
VERTEX
8
Halfen
62
7
10
 56.75
20
 60
30
0
0
VERTEX
8
Halfen
62
7
10
 56.75
20
-60
30
0
0
SEQEND
8
Halfen
0
POLYLINE
8
Halfen
62
7
66
1
10
0.0
20
0.0
30
0.0
70
1
0
VERTEX
8
Halfen
62
7
10
 68
20
 60
30
0
0
VERTEX
8
Halfen
62
7
10
 68
20
 62
30
0
0
VERTEX
8
Halfen
62
7
10
 56
20
 62
30
0
0
VERTEX
8
Halfen
62
7
10
 56
20
 60
30
0
0
SEQEND
8
Halfen
0
POLYLINE
8
Halfen
62
7
66
1
10
0.0
20
0.0
30
0.0
70
1
0
VERTEX
8
Halfen
62
7
10
 67.25
20
 62
30
0
0
VERTEX
8
Halfen
62
7
10
 67.25
20
 160
30
0
0
VERTEX
8
Halfen
62
7
10
 56.75
20
 160
30
0
0
VERTEX
8
Halfen
62
7
10
 56.75
20
 62
30
0
0
SEQEND
8
Halfen
0
POLYLINE
8
Halfen
62
7
66
1
10
0.0
20
0.0
30
0.0
70
1
0
VERTEX
8
Halfen
62
7
10
 68
20
 160
30
0
0
VERTEX
8
Halfen
62
7
10
 68
20
 775
30
0
0
VERTEX
8
Halfen
62
7
10
 56
20
 775
30
0
0
VERTEX
8
Halfen
62
7
10
 56
20
 160
30
0
0
SEQEND
8
Halfen
0
POLYLINE
8
Halfen
62
7
66
1
10
0.0
20
0.0
30
0.0
70
1
0
VERTEX
8
Halfen
62
7
10
 152
20
-775
30
0
0
VERTEX
8
Halfen
62
7
10
 152
20
-160
30
0
0
VERTEX
8
Halfen
62
7
10
 140
20
-160
30
0
0
VERTEX
8
Halfen
62
7
10
 140
20
-775
30
0
0
SEQEND
8
Halfen
0
POLYLINE
8
Halfen
62
7
66
1
10
0.0
20
0.0
30
0.0
70
1
0
VERTEX
8
Halfen
62
7
10
 151.25
20
-160
30
0
0
VERTEX
8
Halfen
62
7
10
 151.25
20
-62
30
0
0
VERTEX
8
Halfen
62
7
10
 140.75
20
-62
30
0
0
VERTEX
8
Halfen
62
7
10
 140.75
20
-160
30
0
0
SEQEND
8
Halfen
0
POLYLINE
8
Halfen
62
7
66
1
10
0.0
20
0.0
30
0.0
70
1
0
VERTEX
8
Halfen
62
7
10
 152
20
-62
30
0
0
VERTEX
8
Halfen
62
7
10
 152
20
-60
30
0
0
VERTEX
8
Halfen
62
7
10
 140
20
-60
30
0
0
VERTEX
8
Halfen
62
7
10
 140
20
-62
30
0
0
SEQEND
8
Halfen
0
POLYLINE
8
Halfen
62
7
66
1
10
0.0
20
0.0
30
0.0
70
1
0
VERTEX
8
Halfen
62
7
10
 151.25
20
-60
30
0
0
VERTEX
8
Halfen
62
7
10
 151.25
20
 60
30
0
0
VERTEX
8
Halfen
62
7
10
 140.75
20
 60
30
0
0
VERTEX
8
Halfen
62
7
10
 140.75
20
-60
30
0
0
SEQEND
8
Halfen
0
POLYLINE
8
Halfen
62
7
66
1
10
0.0
20
0.0
30
0.0
70
1
0
VERTEX
8
Halfen
62
7
10
 152
20
 60
30
0
0
VERTEX
8
Halfen
62
7
10
 152
20
 62
30
0
0
VERTEX
8
Halfen
62
7
10
 140
20
 62
30
0
0
VERTEX
8
Halfen
62
7
10
 140
20
 60
30
0
0
SEQEND
8
Halfen
0
POLYLINE
8
Halfen
62
7
66
1
10
0.0
20
0.0
30
0.0
70
1
0
VERTEX
8
Halfen
62
7
10
 151.25
20
 62
30
0
0
VERTEX
8
Halfen
62
7
10
 151.25
20
 160
30
0
0
VERTEX
8
Halfen
62
7
10
 140.75
20
 160
30
0
0
VERTEX
8
Halfen
62
7
10
 140.75
20
 62
30
0
0
SEQEND
8
Halfen
0
POLYLINE
8
Halfen
62
7
66
1
10
0.0
20
0.0
30
0.0
70
1
0
VERTEX
8
Halfen
62
7
10
 152
20
 160
30
0
0
VERTEX
8
Halfen
62
7
10
 152
20
 775
30
0
0
VERTEX
8
Halfen
62
7
10
 140
20
 775
30
0
0
VERTEX
8
Halfen
62
7
10
 140
20
 160
30
0
0
SEQEND
8
Halfen
0
POLYLINE
8
Halfen
62
7
66
1
10
0.0
20
0.0
30
0.0
70
1
0
VERTEX
8
Halfen
62
7
10
 200
20
-775
30
0
0
VERTEX
8
Halfen
62
7
10
 200
20
-160
30
0
0
VERTEX
8
Halfen
62
7
10
 188
20
-160
30
0
0
VERTEX
8
Halfen
62
7
10
 188
20
-775
30
0
0
SEQEND
8
Halfen
0
POLYLINE
8
Halfen
62
7
66
1
10
0.0
20
0.0
30
0.0
70
1
0
VERTEX
8
Halfen
62
7
10
 199.25
20
-160
30
0
0
VERTEX
8
Halfen
62
7
10
 199.25
20
-62
30
0
0
VERTEX
8
Halfen
62
7
10
 188.75
20
-62
30
0
0
VERTEX
8
Halfen
62
7
10
 188.75
20
-160
30
0
0
SEQEND
8
Halfen
0
POLYLINE
8
Halfen
62
7
66
1
10
0.0
20
0.0
30
0.0
70
1
0
VERTEX
8
Halfen
62
7
10
 200
20
-62
30
0
0
VERTEX
8
Halfen
62
7
10
 200
20
-60
30
0
0
VERTEX
8
Halfen
62
7
10
 188
20
-60
30
0
0
VERTEX
8
Halfen
62
7
10
 188
20
-62
30
0
0
SEQEND
8
Halfen
0
POLYLINE
8
Halfen
62
7
66
1
10
0.0
20
0.0
30
0.0
70
1
0
VERTEX
8
Halfen
62
7
10
 199.25
20
-60
30
0
0
VERTEX
8
Halfen
62
7
10
 199.25
20
 60
30
0
0
VERTEX
8
Halfen
62
7
10
 188.75
20
 60
30
0
0
VERTEX
8
Halfen
62
7
10
 188.75
20
-60
30
0
0
SEQEND
8
Halfen
0
POLYLINE
8
Halfen
62
7
66
1
10
0.0
20
0.0
30
0.0
70
1
0
VERTEX
8
Halfen
62
7
10
 200
20
 60
30
0
0
VERTEX
8
Halfen
62
7
10
 200
20
 62
30
0
0
VERTEX
8
Halfen
62
7
10
 188
20
 62
30
0
0
VERTEX
8
Halfen
62
7
10
 188
20
 60
30
0
0
SEQEND
8
Halfen
0
POLYLINE
8
Halfen
62
7
66
1
10
0.0
20
0.0
30
0.0
70
1
0
VERTEX
8
Halfen
62
7
10
 199.25
20
 62
30
0
0
VERTEX
8
Halfen
62
7
10
 199.25
20
 160
30
0
0
VERTEX
8
Halfen
62
7
10
 188.75
20
 160
30
0
0
VERTEX
8
Halfen
62
7
10
 188.75
20
 62
30
0
0
SEQEND
8
Halfen
0
POLYLINE
8
Halfen
62
7
66
1
10
0.0
20
0.0
30
0.0
70
1
0
VERTEX
8
Halfen
62
7
10
 200
20
 160
30
0
0
VERTEX
8
Halfen
62
7
10
 200
20
 775
30
0
0
VERTEX
8
Halfen
62
7
10
 188
20
 775
30
0
0
VERTEX
8
Halfen
62
7
10
 188
20
 160
30
0
0
SEQEND
8
Halfen
0
POLYLINE
8
Halfen
62
7
66
1
10
0.0
20
0.0
30
0.0
70
1
0
VERTEX
8
Halfen
62
7
10
 284
20
-775
30
0
0
VERTEX
8
Halfen
62
7
10
 284
20
-160
30
0
0
VERTEX
8
Halfen
62
7
10
 272
20
-160
30
0
0
VERTEX
8
Halfen
62
7
10
 272
20
-775
30
0
0
SEQEND
8
Halfen
0
POLYLINE
8
Halfen
62
7
66
1
10
0.0
20
0.0
30
0.0
70
1
0
VERTEX
8
Halfen
62
7
10
 283.25
20
-160
30
0
0
VERTEX
8
Halfen
62
7
10
 283.25
20
-62
30
0
0
VERTEX
8
Halfen
62
7
10
 272.75
20
-62
30
0
0
VERTEX
8
Halfen
62
7
10
 272.75
20
-160
30
0
0
SEQEND
8
Halfen
0
POLYLINE
8
Halfen
62
7
66
1
10
0.0
20
0.0
30
0.0
70
1
0
VERTEX
8
Halfen
62
7
10
 284
20
-62
30
0
0
VERTEX
8
Halfen
62
7
10
 284
20
-60
30
0
0
VERTEX
8
Halfen
62
7
10
 272
20
-60
30
0
0
VERTEX
8
Halfen
62
7
10
 272
20
-62
30
0
0
SEQEND
8
Halfen
0
POLYLINE
8
Halfen
62
7
66
1
10
0.0
20
0.0
30
0.0
70
1
0
VERTEX
8
Halfen
62
7
10
 283.25
20
-60
30
0
0
VERTEX
8
Halfen
62
7
10
 283.25
20
 60
30
0
0
VERTEX
8
Halfen
62
7
10
 272.75
20
 60
30
0
0
VERTEX
8
Halfen
62
7
10
 272.75
20
-60
30
0
0
SEQEND
8
Halfen
0
POLYLINE
8
Halfen
62
7
66
1
10
0.0
20
0.0
30
0.0
70
1
0
VERTEX
8
Halfen
62
7
10
 284
20
 60
30
0
0
VERTEX
8
Halfen
62
7
10
 284
20
 62
30
0
0
VERTEX
8
Halfen
62
7
10
 272
20
 62
30
0
0
VERTEX
8
Halfen
62
7
10
 272
20
 60
30
0
0
SEQEND
8
Halfen
0
POLYLINE
8
Halfen
62
7
66
1
10
0.0
20
0.0
30
0.0
70
1
0
VERTEX
8
Halfen
62
7
10
 283.25
20
 62
30
0
0
VERTEX
8
Halfen
62
7
10
 283.25
20
 160
30
0
0
VERTEX
8
Halfen
62
7
10
 272.75
20
 160
30
0
0
VERTEX
8
Halfen
62
7
10
 272.75
20
 62
30
0
0
SEQEND
8
Halfen
0
POLYLINE
8
Halfen
62
7
66
1
10
0.0
20
0.0
30
0.0
70
1
0
VERTEX
8
Halfen
62
7
10
 284
20
 160
30
0
0
VERTEX
8
Halfen
62
7
10
 284
20
 775
30
0
0
VERTEX
8
Halfen
62
7
10
 272
20
 775
30
0
0
VERTEX
8
Halfen
62
7
10
 272
20
 160
30
0
0
SEQEND
8
Halfen
0
POLYLINE
8
Halfen
62
7
66
1
10
0.0
20
0.0
30
0.0
70
1
0
VERTEX
8
Halfen
62
7
10
 332
20
-775
30
0
0
VERTEX
8
Halfen
62
7
10
 332
20
-160
30
0
0
VERTEX
8
Halfen
62
7
10
 320
20
-160
30
0
0
VERTEX
8
Halfen
62
7
10
 320
20
-775
30
0
0
SEQEND
8
Halfen
0
POLYLINE
8
Halfen
62
7
66
1
10
0.0
20
0.0
30
0.0
70
1
0
VERTEX
8
Halfen
62
7
10
 331.25
20
-160
30
0
0
VERTEX
8
Halfen
62
7
10
 331.25
20
-62
30
0
0
VERTEX
8
Halfen
62
7
10
 320.75
20
-62
30
0
0
VERTEX
8
Halfen
62
7
10
 320.75
20
-160
30
0
0
SEQEND
8
Halfen
0
POLYLINE
8
Halfen
62
7
66
1
10
0.0
20
0.0
30
0.0
70
1
0
VERTEX
8
Halfen
62
7
10
 332
20
-62
30
0
0
VERTEX
8
Halfen
62
7
10
 332
20
-60
30
0
0
VERTEX
8
Halfen
62
7
10
 320
20
-60
30
0
0
VERTEX
8
Halfen
62
7
10
 320
20
-62
30
0
0
SEQEND
8
Halfen
0
POLYLINE
8
Halfen
62
7
66
1
10
0.0
20
0.0
30
0.0
70
1
0
VERTEX
8
Halfen
62
7
10
 331.25
20
-60
30
0
0
VERTEX
8
Halfen
62
7
10
 331.25
20
 60
30
0
0
VERTEX
8
Halfen
62
7
10
 320.75
20
 60
30
0
0
VERTEX
8
Halfen
62
7
10
 320.75
20
-60
30
0
0
SEQEND
8
Halfen
0
POLYLINE
8
Halfen
62
7
66
1
10
0.0
20
0.0
30
0.0
70
1
0
VERTEX
8
Halfen
62
7
10
 332
20
 60
30
0
0
VERTEX
8
Halfen
62
7
10
 332
20
 62
30
0
0
VERTEX
8
Halfen
62
7
10
 320
20
 62
30
0
0
VERTEX
8
Halfen
62
7
10
 320
20
 60
30
0
0
SEQEND
8
Halfen
0
POLYLINE
8
Halfen
62
7
66
1
10
0.0
20
0.0
30
0.0
70
1
0
VERTEX
8
Halfen
62
7
10
 331.25
20
 62
30
0
0
VERTEX
8
Halfen
62
7
10
 331.25
20
 160
30
0
0
VERTEX
8
Halfen
62
7
10
 320.75
20
 160
30
0
0
VERTEX
8
Halfen
62
7
10
 320.75
20
 62
30
0
0
SEQEND
8
Halfen
0
POLYLINE
8
Halfen
62
7
66
1
10
0.0
20
0.0
30
0.0
70
1
0
VERTEX
8
Halfen
62
7
10
 332
20
 160
30
0
0
VERTEX
8
Halfen
62
7
10
 332
20
 775
30
0
0
VERTEX
8
Halfen
62
7
10
 320
20
 775
30
0
0
VERTEX
8
Halfen
62
7
10
 320
20
 160
30
0
0
SEQEND
8
Halfen
0
POLYLINE
8
Halfen
62
7
66
1
10
0.0
20
0.0
30
0.0
70
1
0
VERTEX
8
Halfen
62
7
10
 416
20
-775
30
0
0
VERTEX
8
Halfen
62
7
10
 416
20
-160
30
0
0
VERTEX
8
Halfen
62
7
10
 404
20
-160
30
0
0
VERTEX
8
Halfen
62
7
10
 404
20
-775
30
0
0
SEQEND
8
Halfen
0
POLYLINE
8
Halfen
62
7
66
1
10
0.0
20
0.0
30
0.0
70
1
0
VERTEX
8
Halfen
62
7
10
 415.25
20
-160
30
0
0
VERTEX
8
Halfen
62
7
10
 415.25
20
-62
30
0
0
VERTEX
8
Halfen
62
7
10
 404.75
20
-62
30
0
0
VERTEX
8
Halfen
62
7
10
 404.75
20
-160
30
0
0
SEQEND
8
Halfen
0
POLYLINE
8
Halfen
62
7
66
1
10
0.0
20
0.0
30
0.0
70
1
0
VERTEX
8
Halfen
62
7
10
 416
20
-62
30
0
0
VERTEX
8
Halfen
62
7
10
 416
20
-60
30
0
0
VERTEX
8
Halfen
62
7
10
 404
20
-60
30
0
0
VERTEX
8
Halfen
62
7
10
 404
20
-62
30
0
0
SEQEND
8
Halfen
0
POLYLINE
8
Halfen
62
7
66
1
10
0.0
20
0.0
30
0.0
70
1
0
VERTEX
8
Halfen
62
7
10
 415.25
20
-60
30
0
0
VERTEX
8
Halfen
62
7
10
 415.25
20
 60
30
0
0
VERTEX
8
Halfen
62
7
10
 404.75
20
 60
30
0
0
VERTEX
8
Halfen
62
7
10
 404.75
20
-60
30
0
0
SEQEND
8
Halfen
0
POLYLINE
8
Halfen
62
7
66
1
10
0.0
20
0.0
30
0.0
70
1
0
VERTEX
8
Halfen
62
7
10
 416
20
 60
30
0
0
VERTEX
8
Halfen
62
7
10
 416
20
 62
30
0
0
VERTEX
8
Halfen
62
7
10
 404
20
 62
30
0
0
VERTEX
8
Halfen
62
7
10
 404
20
 60
30
0
0
SEQEND
8
Halfen
0
POLYLINE
8
Halfen
62
7
66
1
10
0.0
20
0.0
30
0.0
70
1
0
VERTEX
8
Halfen
62
7
10
 415.25
20
 62
30
0
0
VERTEX
8
Halfen
62
7
10
 415.25
20
 160
30
0
0
VERTEX
8
Halfen
62
7
10
 404.75
20
 160
30
0
0
VERTEX
8
Halfen
62
7
10
 404.75
20
 62
30
0
0
SEQEND
8
Halfen
0
POLYLINE
8
Halfen
62
7
66
1
10
0.0
20
0.0
30
0.0
70
1
0
VERTEX
8
Halfen
62
7
10
 416
20
 160
30
0
0
VERTEX
8
Halfen
62
7
10
 416
20
 775
30
0
0
VERTEX
8
Halfen
62
7
10
 404
20
 775
30
0
0
VERTEX
8
Halfen
62
7
10
 404
20
 160
30
0
0
SEQEND
8
Halfen
0
POLYLINE
8
Halfen
62
7
66
1
10
0.0
20
0.0
30
0.0
70
1
0
VERTEX
8
Halfen
62
7
10
 464
20
-775
30
0
0
VERTEX
8
Halfen
62
7
10
 464
20
-160
30
0
0
VERTEX
8
Halfen
62
7
10
 452
20
-160
30
0
0
VERTEX
8
Halfen
62
7
10
 452
20
-775
30
0
0
SEQEND
8
Halfen
0
POLYLINE
8
Halfen
62
7
66
1
10
0.0
20
0.0
30
0.0
70
1
0
VERTEX
8
Halfen
62
7
10
 463.25
20
-160
30
0
0
VERTEX
8
Halfen
62
7
10
 463.25
20
-62
30
0
0
VERTEX
8
Halfen
62
7
10
 452.75
20
-62
30
0
0
VERTEX
8
Halfen
62
7
10
 452.75
20
-160
30
0
0
SEQEND
8
Halfen
0
POLYLINE
8
Halfen
62
7
66
1
10
0.0
20
0.0
30
0.0
70
1
0
VERTEX
8
Halfen
62
7
10
 464
20
-62
30
0
0
VERTEX
8
Halfen
62
7
10
 464
20
-60
30
0
0
VERTEX
8
Halfen
62
7
10
 452
20
-60
30
0
0
VERTEX
8
Halfen
62
7
10
 452
20
-62
30
0
0
SEQEND
8
Halfen
0
POLYLINE
8
Halfen
62
7
66
1
10
0.0
20
0.0
30
0.0
70
1
0
VERTEX
8
Halfen
62
7
10
 463.25
20
-60
30
0
0
VERTEX
8
Halfen
62
7
10
 463.25
20
 60
30
0
0
VERTEX
8
Halfen
62
7
10
 452.75
20
 60
30
0
0
VERTEX
8
Halfen
62
7
10
 452.75
20
-60
30
0
0
SEQEND
8
Halfen
0
POLYLINE
8
Halfen
62
7
66
1
10
0.0
20
0.0
30
0.0
70
1
0
VERTEX
8
Halfen
62
7
10
 464
20
 60
30
0
0
VERTEX
8
Halfen
62
7
10
 464
20
 62
30
0
0
VERTEX
8
Halfen
62
7
10
 452
20
 62
30
0
0
VERTEX
8
Halfen
62
7
10
 452
20
 60
30
0
0
SEQEND
8
Halfen
0
POLYLINE
8
Halfen
62
7
66
1
10
0.0
20
0.0
30
0.0
70
1
0
VERTEX
8
Halfen
62
7
10
 463.25
20
 62
30
0
0
VERTEX
8
Halfen
62
7
10
 463.25
20
 160
30
0
0
VERTEX
8
Halfen
62
7
10
 452.75
20
 160
30
0
0
VERTEX
8
Halfen
62
7
10
 452.75
20
 62
30
0
0
SEQEND
8
Halfen
0
POLYLINE
8
Halfen
62
7
66
1
10
0.0
20
0.0
30
0.0
70
1
0
VERTEX
8
Halfen
62
7
10
 464
20
 160
30
0
0
VERTEX
8
Halfen
62
7
10
 464
20
 775
30
0
0
VERTEX
8
Halfen
62
7
10
 452
20
 775
30
0
0
VERTEX
8
Halfen
62
7
10
 452
20
 160
30
0
0
SEQEND
8
Halfen
0
POLYLINE
8
Halfen
62
7
66
1
10
0.0
20
0.0
30
0.0
70
1
0
VERTEX
8
Halfen
62
7
10
 548
20
-775
30
0
0
VERTEX
8
Halfen
62
7
10
 548
20
-160
30
0
0
VERTEX
8
Halfen
62
7
10
 536
20
-160
30
0
0
VERTEX
8
Halfen
62
7
10
 536
20
-775
30
0
0
SEQEND
8
Halfen
0
POLYLINE
8
Halfen
62
7
66
1
10
0.0
20
0.0
30
0.0
70
1
0
VERTEX
8
Halfen
62
7
10
 547.25
20
-160
30
0
0
VERTEX
8
Halfen
62
7
10
 547.25
20
-62
30
0
0
VERTEX
8
Halfen
62
7
10
 536.75
20
-62
30
0
0
VERTEX
8
Halfen
62
7
10
 536.75
20
-160
30
0
0
SEQEND
8
Halfen
0
POLYLINE
8
Halfen
62
7
66
1
10
0.0
20
0.0
30
0.0
70
1
0
VERTEX
8
Halfen
62
7
10
 548
20
-62
30
0
0
VERTEX
8
Halfen
62
7
10
 548
20
-60
30
0
0
VERTEX
8
Halfen
62
7
10
 536
20
-60
30
0
0
VERTEX
8
Halfen
62
7
10
 536
20
-62
30
0
0
SEQEND
8
Halfen
0
POLYLINE
8
Halfen
62
7
66
1
10
0.0
20
0.0
30
0.0
70
1
0
VERTEX
8
Halfen
62
7
10
 547.25
20
-60
30
0
0
VERTEX
8
Halfen
62
7
10
 547.25
20
 60
30
0
0
VERTEX
8
Halfen
62
7
10
 536.75
20
 60
30
0
0
VERTEX
8
Halfen
62
7
10
 536.75
20
-60
30
0
0
SEQEND
8
Halfen
0
POLYLINE
8
Halfen
62
7
66
1
10
0.0
20
0.0
30
0.0
70
1
0
VERTEX
8
Halfen
62
7
10
 548
20
 60
30
0
0
VERTEX
8
Halfen
62
7
10
 548
20
 62
30
0
0
VERTEX
8
Halfen
62
7
10
 536
20
 62
30
0
0
VERTEX
8
Halfen
62
7
10
 536
20
 60
30
0
0
SEQEND
8
Halfen
0
POLYLINE
8
Halfen
62
7
66
1
10
0.0
20
0.0
30
0.0
70
1
0
VERTEX
8
Halfen
62
7
10
 547.25
20
 62
30
0
0
VERTEX
8
Halfen
62
7
10
 547.25
20
 160
30
0
0
VERTEX
8
Halfen
62
7
10
 536.75
20
 160
30
0
0
VERTEX
8
Halfen
62
7
10
 536.75
20
 62
30
0
0
SEQEND
8
Halfen
0
POLYLINE
8
Halfen
62
7
66
1
10
0.0
20
0.0
30
0.0
70
1
0
VERTEX
8
Halfen
62
7
10
 548
20
 160
30
0
0
VERTEX
8
Halfen
62
7
10
 548
20
 775
30
0
0
VERTEX
8
Halfen
62
7
10
 536
20
 775
30
0
0
VERTEX
8
Halfen
62
7
10
 536
20
 160
30
0
0
SEQEND
8
Halfen
0
POLYLINE
8
Halfen
62
7
66
1
10
0.0
20
0.0
30
0.0
70
1
0
VERTEX
8
Halfen
62
7
10
 596
20
-775
30
0
0
VERTEX
8
Halfen
62
7
10
 596
20
-160
30
0
0
VERTEX
8
Halfen
62
7
10
 584
20
-160
30
0
0
VERTEX
8
Halfen
62
7
10
 584
20
-775
30
0
0
SEQEND
8
Halfen
0
POLYLINE
8
Halfen
62
7
66
1
10
0.0
20
0.0
30
0.0
70
1
0
VERTEX
8
Halfen
62
7
10
 595.25
20
-160
30
0
0
VERTEX
8
Halfen
62
7
10
 595.25
20
-62
30
0
0
VERTEX
8
Halfen
62
7
10
 584.75
20
-62
30
0
0
VERTEX
8
Halfen
62
7
10
 584.75
20
-160
30
0
0
SEQEND
8
Halfen
0
POLYLINE
8
Halfen
62
7
66
1
10
0.0
20
0.0
30
0.0
70
1
0
VERTEX
8
Halfen
62
7
10
 596
20
-62
30
0
0
VERTEX
8
Halfen
62
7
10
 596
20
-60
30
0
0
VERTEX
8
Halfen
62
7
10
 584
20
-60
30
0
0
VERTEX
8
Halfen
62
7
10
 584
20
-62
30
0
0
SEQEND
8
Halfen
0
POLYLINE
8
Halfen
62
7
66
1
10
0.0
20
0.0
30
0.0
70
1
0
VERTEX
8
Halfen
62
7
10
 595.25
20
-60
30
0
0
VERTEX
8
Halfen
62
7
10
 595.25
20
 60
30
0
0
VERTEX
8
Halfen
62
7
10
 584.75
20
 60
30
0
0
VERTEX
8
Halfen
62
7
10
 584.75
20
-60
30
0
0
SEQEND
8
Halfen
0
POLYLINE
8
Halfen
62
7
66
1
10
0.0
20
0.0
30
0.0
70
1
0
VERTEX
8
Halfen
62
7
10
 596
20
 60
30
0
0
VERTEX
8
Halfen
62
7
10
 596
20
 62
30
0
0
VERTEX
8
Halfen
62
7
10
 584
20
 62
30
0
0
VERTEX
8
Halfen
62
7
10
 584
20
 60
30
0
0
SEQEND
8
Halfen
0
POLYLINE
8
Halfen
62
7
66
1
10
0.0
20
0.0
30
0.0
70
1
0
VERTEX
8
Halfen
62
7
10
 595.25
20
 62
30
0
0
VERTEX
8
Halfen
62
7
10
 595.25
20
 160
30
0
0
VERTEX
8
Halfen
62
7
10
 584.75
20
 160
30
0
0
VERTEX
8
Halfen
62
7
10
 584.75
20
 62
30
0
0
SEQEND
8
Halfen
0
POLYLINE
8
Halfen
62
7
66
1
10
0.0
20
0.0
30
0.0
70
1
0
VERTEX
8
Halfen
62
7
10
 596
20
 160
30
0
0
VERTEX
8
Halfen
62
7
10
 596
20
 775
30
0
0
VERTEX
8
Halfen
62
7
10
 584
20
 775
30
0
0
VERTEX
8
Halfen
62
7
10
 584
20
 160
30
0
0
SEQEND
8
Halfen
0
POLYLINE
8
Halfen
62
7
66
1
10
0.0
20
0.0
30
0.0
70
1
0
VERTEX
8
Halfen
62
7
10
 680
20
-775
30
0
0
VERTEX
8
Halfen
62
7
10
 680
20
-160
30
0
0
VERTEX
8
Halfen
62
7
10
 668
20
-160
30
0
0
VERTEX
8
Halfen
62
7
10
 668
20
-775
30
0
0
SEQEND
8
Halfen
0
POLYLINE
8
Halfen
62
7
66
1
10
0.0
20
0.0
30
0.0
70
1
0
VERTEX
8
Halfen
62
7
10
 679.25
20
-160
30
0
0
VERTEX
8
Halfen
62
7
10
 679.25
20
-62
30
0
0
VERTEX
8
Halfen
62
7
10
 668.75
20
-62
30
0
0
VERTEX
8
Halfen
62
7
10
 668.75
20
-160
30
0
0
SEQEND
8
Halfen
0
POLYLINE
8
Halfen
62
7
66
1
10
0.0
20
0.0
30
0.0
70
1
0
VERTEX
8
Halfen
62
7
10
 680
20
-62
30
0
0
VERTEX
8
Halfen
62
7
10
 680
20
-60
30
0
0
VERTEX
8
Halfen
62
7
10
 668
20
-60
30
0
0
VERTEX
8
Halfen
62
7
10
 668
20
-62
30
0
0
SEQEND
8
Halfen
0
POLYLINE
8
Halfen
62
7
66
1
10
0.0
20
0.0
30
0.0
70
1
0
VERTEX
8
Halfen
62
7
10
 679.25
20
-60
30
0
0
VERTEX
8
Halfen
62
7
10
 679.25
20
 60
30
0
0
VERTEX
8
Halfen
62
7
10
 668.75
20
 60
30
0
0
VERTEX
8
Halfen
62
7
10
 668.75
20
-60
30
0
0
SEQEND
8
Halfen
0
POLYLINE
8
Halfen
62
7
66
1
10
0.0
20
0.0
30
0.0
70
1
0
VERTEX
8
Halfen
62
7
10
 680
20
 60
30
0
0
VERTEX
8
Halfen
62
7
10
 680
20
 62
30
0
0
VERTEX
8
Halfen
62
7
10
 668
20
 62
30
0
0
VERTEX
8
Halfen
62
7
10
 668
20
 60
30
0
0
SEQEND
8
Halfen
0
POLYLINE
8
Halfen
62
7
66
1
10
0.0
20
0.0
30
0.0
70
1
0
VERTEX
8
Halfen
62
7
10
 679.25
20
 62
30
0
0
VERTEX
8
Halfen
62
7
10
 679.25
20
 160
30
0
0
VERTEX
8
Halfen
62
7
10
 668.75
20
 160
30
0
0
VERTEX
8
Halfen
62
7
10
 668.75
20
 62
30
0
0
SEQEND
8
Halfen
0
POLYLINE
8
Halfen
62
7
66
1
10
0.0
20
0.0
30
0.0
70
1
0
VERTEX
8
Halfen
62
7
10
 680
20
 160
30
0
0
VERTEX
8
Halfen
62
7
10
 680
20
 775
30
0
0
VERTEX
8
Halfen
62
7
10
 668
20
 775
30
0
0
VERTEX
8
Halfen
62
7
10
 668
20
 160
30
0
0
SEQEND
8
Halfen
0
POLYLINE
8
Halfen
62
7
66
1
10
0.0
20
0.0
30
0.0
70
1
0
VERTEX
8
Halfen
62
7
10
 728
20
-775
30
0
0
VERTEX
8
Halfen
62
7
10
 728
20
-160
30
0
0
VERTEX
8
Halfen
62
7
10
 716
20
-160
30
0
0
VERTEX
8
Halfen
62
7
10
 716
20
-775
30
0
0
SEQEND
8
Halfen
0
POLYLINE
8
Halfen
62
7
66
1
10
0.0
20
0.0
30
0.0
70
1
0
VERTEX
8
Halfen
62
7
10
 727.25
20
-160
30
0
0
VERTEX
8
Halfen
62
7
10
 727.25
20
-62
30
0
0
VERTEX
8
Halfen
62
7
10
 716.75
20
-62
30
0
0
VERTEX
8
Halfen
62
7
10
 716.75
20
-160
30
0
0
SEQEND
8
Halfen
0
POLYLINE
8
Halfen
62
7
66
1
10
0.0
20
0.0
30
0.0
70
1
0
VERTEX
8
Halfen
62
7
10
 728
20
-62
30
0
0
VERTEX
8
Halfen
62
7
10
 728
20
-60
30
0
0
VERTEX
8
Halfen
62
7
10
 716
20
-60
30
0
0
VERTEX
8
Halfen
62
7
10
 716
20
-62
30
0
0
SEQEND
8
Halfen
0
POLYLINE
8
Halfen
62
7
66
1
10
0.0
20
0.0
30
0.0
70
1
0
VERTEX
8
Halfen
62
7
10
 727.25
20
-60
30
0
0
VERTEX
8
Halfen
62
7
10
 727.25
20
 60
30
0
0
VERTEX
8
Halfen
62
7
10
 716.75
20
 60
30
0
0
VERTEX
8
Halfen
62
7
10
 716.75
20
-60
30
0
0
SEQEND
8
Halfen
0
POLYLINE
8
Halfen
62
7
66
1
10
0.0
20
0.0
30
0.0
70
1
0
VERTEX
8
Halfen
62
7
10
 728
20
 60
30
0
0
VERTEX
8
Halfen
62
7
10
 728
20
 62
30
0
0
VERTEX
8
Halfen
62
7
10
 716
20
 62
30
0
0
VERTEX
8
Halfen
62
7
10
 716
20
 60
30
0
0
SEQEND
8
Halfen
0
POLYLINE
8
Halfen
62
7
66
1
10
0.0
20
0.0
30
0.0
70
1
0
VERTEX
8
Halfen
62
7
10
 727.25
20
 62
30
0
0
VERTEX
8
Halfen
62
7
10
 727.25
20
 160
30
0
0
VERTEX
8
Halfen
62
7
10
 716.75
20
 160
30
0
0
VERTEX
8
Halfen
62
7
10
 716.75
20
 62
30
0
0
SEQEND
8
Halfen
0
POLYLINE
8
Halfen
62
7
66
1
10
0.0
20
0.0
30
0.0
70
1
0
VERTEX
8
Halfen
62
7
10
 728
20
 160
30
0
0
VERTEX
8
Halfen
62
7
10
 728
20
 775
30
0
0
VERTEX
8
Halfen
62
7
10
 716
20
 775
30
0
0
VERTEX
8
Halfen
62
7
10
 716
20
 160
30
0
0
SEQEND
8
Halfen
0
POLYLINE
8
Halfen
62
7
66
1
10
0.0
20
0.0
30
0.0
70
1
0
VERTEX
8
Halfen
62
7
10
 812
20
-775
30
0
0
VERTEX
8
Halfen
62
7
10
 812
20
-160
30
0
0
VERTEX
8
Halfen
62
7
10
 800
20
-160
30
0
0
VERTEX
8
Halfen
62
7
10
 800
20
-775
30
0
0
SEQEND
8
Halfen
0
POLYLINE
8
Halfen
62
7
66
1
10
0.0
20
0.0
30
0.0
70
1
0
VERTEX
8
Halfen
62
7
10
 811.25
20
-160
30
0
0
VERTEX
8
Halfen
62
7
10
 811.25
20
-62
30
0
0
VERTEX
8
Halfen
62
7
10
 800.75
20
-62
30
0
0
VERTEX
8
Halfen
62
7
10
 800.75
20
-160
30
0
0
SEQEND
8
Halfen
0
POLYLINE
8
Halfen
62
7
66
1
10
0.0
20
0.0
30
0.0
70
1
0
VERTEX
8
Halfen
62
7
10
 812
20
-62
30
0
0
VERTEX
8
Halfen
62
7
10
 812
20
-60
30
0
0
VERTEX
8
Halfen
62
7
10
 800
20
-60
30
0
0
VERTEX
8
Halfen
62
7
10
 800
20
-62
30
0
0
SEQEND
8
Halfen
0
POLYLINE
8
Halfen
62
7
66
1
10
0.0
20
0.0
30
0.0
70
1
0
VERTEX
8
Halfen
62
7
10
 811.25
20
-60
30
0
0
VERTEX
8
Halfen
62
7
10
 811.25
20
 60
30
0
0
VERTEX
8
Halfen
62
7
10
 800.75
20
 60
30
0
0
VERTEX
8
Halfen
62
7
10
 800.75
20
-60
30
0
0
SEQEND
8
Halfen
0
POLYLINE
8
Halfen
62
7
66
1
10
0.0
20
0.0
30
0.0
70
1
0
VERTEX
8
Halfen
62
7
10
 812
20
 60
30
0
0
VERTEX
8
Halfen
62
7
10
 812
20
 62
30
0
0
VERTEX
8
Halfen
62
7
10
 800
20
 62
30
0
0
VERTEX
8
Halfen
62
7
10
 800
20
 60
30
0
0
SEQEND
8
Halfen
0
POLYLINE
8
Halfen
62
7
66
1
10
0.0
20
0.0
30
0.0
70
1
0
VERTEX
8
Halfen
62
7
10
 811.25
20
 62
30
0
0
VERTEX
8
Halfen
62
7
10
 811.25
20
 160
30
0
0
VERTEX
8
Halfen
62
7
10
 800.75
20
 160
30
0
0
VERTEX
8
Halfen
62
7
10
 800.75
20
 62
30
0
0
SEQEND
8
Halfen
0
POLYLINE
8
Halfen
62
7
66
1
10
0.0
20
0.0
30
0.0
70
1
0
VERTEX
8
Halfen
62
7
10
 812
20
 160
30
0
0
VERTEX
8
Halfen
62
7
10
 812
20
 775
30
0
0
VERTEX
8
Halfen
62
7
10
 800
20
 775
30
0
0
VERTEX
8
Halfen
62
7
10
 800
20
 160
30
0
0
SEQEND
8
Halfen
0
POLYLINE
8
Halfen
62
7
66
1
10
0.0
20
0.0
30
0.0
70
1
0
VERTEX
8
Halfen
62
7
10
 860
20
-775
30
0
0
VERTEX
8
Halfen
62
7
10
 860
20
-160
30
0
0
VERTEX
8
Halfen
62
7
10
 848
20
-160
30
0
0
VERTEX
8
Halfen
62
7
10
 848
20
-775
30
0
0
SEQEND
8
Halfen
0
POLYLINE
8
Halfen
62
7
66
1
10
0.0
20
0.0
30
0.0
70
1
0
VERTEX
8
Halfen
62
7
10
 859.25
20
-160
30
0
0
VERTEX
8
Halfen
62
7
10
 859.25
20
-62
30
0
0
VERTEX
8
Halfen
62
7
10
 848.75
20
-62
30
0
0
VERTEX
8
Halfen
62
7
10
 848.75
20
-160
30
0
0
SEQEND
8
Halfen
0
POLYLINE
8
Halfen
62
7
66
1
10
0.0
20
0.0
30
0.0
70
1
0
VERTEX
8
Halfen
62
7
10
 860
20
-62
30
0
0
VERTEX
8
Halfen
62
7
10
 860
20
-60
30
0
0
VERTEX
8
Halfen
62
7
10
 848
20
-60
30
0
0
VERTEX
8
Halfen
62
7
10
 848
20
-62
30
0
0
SEQEND
8
Halfen
0
POLYLINE
8
Halfen
62
7
66
1
10
0.0
20
0.0
30
0.0
70
1
0
VERTEX
8
Halfen
62
7
10
 859.25
20
-60
30
0
0
VERTEX
8
Halfen
62
7
10
 859.25
20
 60
30
0
0
VERTEX
8
Halfen
62
7
10
 848.75
20
 60
30
0
0
VERTEX
8
Halfen
62
7
10
 848.75
20
-60
30
0
0
SEQEND
8
Halfen
0
POLYLINE
8
Halfen
62
7
66
1
10
0.0
20
0.0
30
0.0
70
1
0
VERTEX
8
Halfen
62
7
10
 860
20
 60
30
0
0
VERTEX
8
Halfen
62
7
10
 860
20
 62
30
0
0
VERTEX
8
Halfen
62
7
10
 848
20
 62
30
0
0
VERTEX
8
Halfen
62
7
10
 848
20
 60
30
0
0
SEQEND
8
Halfen
0
POLYLINE
8
Halfen
62
7
66
1
10
0.0
20
0.0
30
0.0
70
1
0
VERTEX
8
Halfen
62
7
10
 859.25
20
 62
30
0
0
VERTEX
8
Halfen
62
7
10
 859.25
20
 160
30
0
0
VERTEX
8
Halfen
62
7
10
 848.75
20
 160
30
0
0
VERTEX
8
Halfen
62
7
10
 848.75
20
 62
30
0
0
SEQEND
8
Halfen
0
POLYLINE
8
Halfen
62
7
66
1
10
0.0
20
0.0
30
0.0
70
1
0
VERTEX
8
Halfen
62
7
10
 860
20
 160
30
0
0
VERTEX
8
Halfen
62
7
10
 860
20
 775
30
0
0
VERTEX
8
Halfen
62
7
10
 848
20
 775
30
0
0
VERTEX
8
Halfen
62
7
10
 848
20
 160
30
0
0
SEQEND
8
Halfen
0
POLYLINE
8
Halfen
62
7
66
1
10
0.0
20
0.0
30
0.0
70
1
0
VERTEX
8
Halfen
62
7
10
 944
20
-775
30
0
0
VERTEX
8
Halfen
62
7
10
 944
20
-160
30
0
0
VERTEX
8
Halfen
62
7
10
 932
20
-160
30
0
0
VERTEX
8
Halfen
62
7
10
 932
20
-775
30
0
0
SEQEND
8
Halfen
0
POLYLINE
8
Halfen
62
7
66
1
10
0.0
20
0.0
30
0.0
70
1
0
VERTEX
8
Halfen
62
7
10
 943.25
20
-160
30
0
0
VERTEX
8
Halfen
62
7
10
 943.25
20
-62
30
0
0
VERTEX
8
Halfen
62
7
10
 932.75
20
-62
30
0
0
VERTEX
8
Halfen
62
7
10
 932.75
20
-160
30
0
0
SEQEND
8
Halfen
0
POLYLINE
8
Halfen
62
7
66
1
10
0.0
20
0.0
30
0.0
70
1
0
VERTEX
8
Halfen
62
7
10
 944
20
-62
30
0
0
VERTEX
8
Halfen
62
7
10
 944
20
-60
30
0
0
VERTEX
8
Halfen
62
7
10
 932
20
-60
30
0
0
VERTEX
8
Halfen
62
7
10
 932
20
-62
30
0
0
SEQEND
8
Halfen
0
POLYLINE
8
Halfen
62
7
66
1
10
0.0
20
0.0
30
0.0
70
1
0
VERTEX
8
Halfen
62
7
10
 943.25
20
-60
30
0
0
VERTEX
8
Halfen
62
7
10
 943.25
20
 60
30
0
0
VERTEX
8
Halfen
62
7
10
 932.75
20
 60
30
0
0
VERTEX
8
Halfen
62
7
10
 932.75
20
-60
30
0
0
SEQEND
8
Halfen
0
POLYLINE
8
Halfen
62
7
66
1
10
0.0
20
0.0
30
0.0
70
1
0
VERTEX
8
Halfen
62
7
10
 944
20
 60
30
0
0
VERTEX
8
Halfen
62
7
10
 944
20
 62
30
0
0
VERTEX
8
Halfen
62
7
10
 932
20
 62
30
0
0
VERTEX
8
Halfen
62
7
10
 932
20
 60
30
0
0
SEQEND
8
Halfen
0
POLYLINE
8
Halfen
62
7
66
1
10
0.0
20
0.0
30
0.0
70
1
0
VERTEX
8
Halfen
62
7
10
 943.25
20
 62
30
0
0
VERTEX
8
Halfen
62
7
10
 943.25
20
 160
30
0
0
VERTEX
8
Halfen
62
7
10
 932.75
20
 160
30
0
0
VERTEX
8
Halfen
62
7
10
 932.75
20
 62
30
0
0
SEQEND
8
Halfen
0
POLYLINE
8
Halfen
62
7
66
1
10
0.0
20
0.0
30
0.0
70
1
0
VERTEX
8
Halfen
62
7
10
 944
20
 160
30
0
0
VERTEX
8
Halfen
62
7
10
 944
20
 775
30
0
0
VERTEX
8
Halfen
62
7
10
 932
20
 775
30
0
0
VERTEX
8
Halfen
62
7
10
 932
20
 160
30
0
0
SEQEND
8
Halfen
0
POLYLINE
8
Halfen
62
7
66
1
10
0.0
20
0.0
30
0.0
70
1
0
VERTEX
8
Halfen
62
7
10
 98
20
-579.398
30
0
0
VERTEX
8
Halfen
62
7
10
 98
20
 592.368
30
0
0
VERTEX
8
Halfen
62
7
10
 90
20
 592.368
30
0
0
VERTEX
8
Halfen
62
7
10
 90
20
-579.398
30
0
0
SEQEND
8
Halfen
0
POLYLINE
8
Halfen
62
7
66
1
10
0.0
20
0.0
30
0.0
70
1
0
VERTEX
8
Halfen
62
7
10
 106
20
-592.368
30
0
0
VERTEX
8
Halfen
62
7
10
 106
20
 579.398
30
0
0
VERTEX
8
Halfen
62
7
10
 98
20
 579.398
30
0
0
VERTEX
8
Halfen
62
7
10
 98
20
-592.368
30
0
0
SEQEND
8
Halfen
0
POLYLINE
8
Halfen
62
7
66
1
10
0.0
20
0.0
30
0.0
70
1
0
VERTEX
8
Halfen
62
7
10
 230
20
-579.398
30
0
0
VERTEX
8
Halfen
62
7
10
 230
20
 592.368
30
0
0
VERTEX
8
Halfen
62
7
10
 222
20
 592.368
30
0
0
VERTEX
8
Halfen
62
7
10
 222
20
-579.398
30
0
0
SEQEND
8
Halfen
0
POLYLINE
8
Halfen
62
7
66
1
10
0.0
20
0.0
30
0.0
70
1
0
VERTEX
8
Halfen
62
7
10
 238
20
-592.368
30
0
0
VERTEX
8
Halfen
62
7
10
 238
20
 579.398
30
0
0
VERTEX
8
Halfen
62
7
10
 230
20
 579.398
30
0
0
VERTEX
8
Halfen
62
7
10
 230
20
-592.368
30
0
0
SEQEND
8
Halfen
0
POLYLINE
8
Halfen
62
7
66
1
10
0.0
20
0.0
30
0.0
70
1
0
VERTEX
8
Halfen
62
7
10
 362
20
-579.398
30
0
0
VERTEX
8
Halfen
62
7
10
 362
20
 592.368
30
0
0
VERTEX
8
Halfen
62
7
10
 354
20
 592.368
30
0
0
VERTEX
8
Halfen
62
7
10
 354
20
-579.398
30
0
0
SEQEND
8
Halfen
0
POLYLINE
8
Halfen
62
7
66
1
10
0.0
20
0.0
30
0.0
70
1
0
VERTEX
8
Halfen
62
7
10
 370
20
-592.368
30
0
0
VERTEX
8
Halfen
62
7
10
 370
20
 579.398
30
0
0
VERTEX
8
Halfen
62
7
10
 362
20
 579.398
30
0
0
VERTEX
8
Halfen
62
7
10
 362
20
-592.368
30
0
0
SEQEND
8
Halfen
0
POLYLINE
8
Halfen
62
7
66
1
10
0.0
20
0.0
30
0.0
70
1
0
VERTEX
8
Halfen
62
7
10
 494
20
-579.398
30
0
0
VERTEX
8
Halfen
62
7
10
 494
20
 592.368
30
0
0
VERTEX
8
Halfen
62
7
10
 486
20
 592.368
30
0
0
VERTEX
8
Halfen
62
7
10
 486
20
-579.398
30
0
0
SEQEND
8
Halfen
0
POLYLINE
8
Halfen
62
7
66
1
10
0.0
20
0.0
30
0.0
70
1
0
VERTEX
8
Halfen
62
7
10
 502
20
-592.368
30
0
0
VERTEX
8
Halfen
62
7
10
 502
20
 579.398
30
0
0
VERTEX
8
Halfen
62
7
10
 494
20
 579.398
30
0
0
VERTEX
8
Halfen
62
7
10
 494
20
-592.368
30
0
0
SEQEND
8
Halfen
0
POLYLINE
8
Halfen
62
7
66
1
10
0.0
20
0.0
30
0.0
70
1
0
VERTEX
8
Halfen
62
7
10
 626
20
-579.398
30
0
0
VERTEX
8
Halfen
62
7
10
 626
20
 592.368
30
0
0
VERTEX
8
Halfen
62
7
10
 618
20
 592.368
30
0
0
VERTEX
8
Halfen
62
7
10
 618
20
-579.398
30
0
0
SEQEND
8
Halfen
0
POLYLINE
8
Halfen
62
7
66
1
10
0.0
20
0.0
30
0.0
70
1
0
VERTEX
8
Halfen
62
7
10
 634
20
-592.368
30
0
0
VERTEX
8
Halfen
62
7
10
 634
20
 579.398
30
0
0
VERTEX
8
Halfen
62
7
10
 626
20
 579.398
30
0
0
VERTEX
8
Halfen
62
7
10
 626
20
-592.368
30
0
0
SEQEND
8
Halfen
0
POLYLINE
8
Halfen
62
7
66
1
10
0.0
20
0.0
30
0.0
70
1
0
VERTEX
8
Halfen
62
7
10
 758
20
-579.398
30
0
0
VERTEX
8
Halfen
62
7
10
 758
20
 592.368
30
0
0
VERTEX
8
Halfen
62
7
10
 750
20
 592.368
30
0
0
VERTEX
8
Halfen
62
7
10
 750
20
-579.398
30
0
0
SEQEND
8
Halfen
0
POLYLINE
8
Halfen
62
7
66
1
10
0.0
20
0.0
30
0.0
70
1
0
VERTEX
8
Halfen
62
7
10
 766
20
-592.368
30
0
0
VERTEX
8
Halfen
62
7
10
 766
20
 579.398
30
0
0
VERTEX
8
Halfen
62
7
10
 758
20
 579.398
30
0
0
VERTEX
8
Halfen
62
7
10
 758
20
-592.368
30
0
0
SEQEND
8
Halfen
0
POLYLINE
8
Halfen
62
7
66
1
10
0.0
20
0.0
30
0.0
70
1
0
VERTEX
8
Halfen
62
7
10
 890
20
-579.398
30
0
0
VERTEX
8
Halfen
62
7
10
 890
20
 592.368
30
0
0
VERTEX
8
Halfen
62
7
10
 882
20
 592.368
30
0
0
VERTEX
8
Halfen
62
7
10
 882
20
-579.398
30
0
0
SEQEND
8
Halfen
0
POLYLINE
8
Halfen
62
7
66
1
10
0.0
20
0.0
30
0.0
70
1
0
VERTEX
8
Halfen
62
7
10
 898
20
-592.368
30
0
0
VERTEX
8
Halfen
62
7
10
 898
20
 579.398
30
0
0
VERTEX
8
Halfen
62
7
10
 890
20
 579.398
30
0
0
VERTEX
8
Halfen
62
7
10
 890
20
-592.368
30
0
0
SEQEND
8
Halfen
0
POLYLINE
8
Halfen
62
7
66
1
10
0.0
20
0.0
30
0.0
70
1
0
VERTEX
8
Halfen
62
7
10
 1520
20
-60
30
0
0
VERTEX
8
Halfen
62
7
10
 1520
20
 60
30
0
0
VERTEX
8
Halfen
62
7
10
 1506.5
20
 73.5
30
0
0
VERTEX
8
Halfen
62
7
10
 1506.5
20
 60
30
0
0
VERTEX
8
Halfen
62
7
10
 1270
20
 60
30
0
0
VERTEX
8
Halfen
62
7
10
 1270
20
-60
30
0
0
VERTEX
8
Halfen
62
7
10
 1506.5
20
-60
30
0
0
VERTEX
8
Halfen
62
7
10
 1506.5
20
-73.5
30
0
0
SEQEND
8
Halfen
0
POLYLINE
8
Halfen
62
7
66
1
10
0.0
20
0.0
30
0.0
70
1
0
VERTEX
8
Halfen
62
7
10
 1270
20
-60
30
0
0
VERTEX
8
Halfen
62
7
10
 1270
20
 60
30
0
0
VERTEX
8
Halfen
62
7
10
 1213.5
20
 60
30
0
0
VERTEX
8
Halfen
62
7
10
 1213.5
20
 73.5
30
0
0
VERTEX
8
Halfen
62
7
10
 1200
20
 60
30
0
0
VERTEX
8
Halfen
62
7
10
 1200
20
-60
30
0
0
VERTEX
8
Halfen
62
7
10
 1213.5
20
-73.5
30
0
0
VERTEX
8
Halfen
62
7
10
 1213.5
20
-60
30
0
0
SEQEND
8
Halfen
0
POLYLINE
8
Halfen
62
7
66
1
10
0.0
20
0.0
30
0.0
70
1
0
VERTEX
8
Halfen
62
7
10
 1517.5
20
-58.75
30
0
0
VERTEX
8
Halfen
62
7
10
 1517.5
20
 58.75
30
0
0
VERTEX
8
Halfen
62
7
10
 1509
20
 67.25
30
0
0
VERTEX
8
Halfen
62
7
10
 1509
20
 58
30
0
0
VERTEX
8
Halfen
62
7
10
 1272
20
 58
30
0
0
VERTEX
8
Halfen
62
7
10
 1272
20
-58
30
0
0
VERTEX
8
Halfen
62
7
10
 1509
20
-58
30
0
0
VERTEX
8
Halfen
62
7
10
 1509
20
-67.25
30
0
0
SEQEND
8
Halfen
0
POLYLINE
8
Halfen
62
7
66
1
10
0.0
20
0.0
30
0.0
70
1
0
VERTEX
8
Halfen
62
7
10
 1268
20
-58
30
0
0
VERTEX
8
Halfen
62
7
10
 1268
20
 58
30
0
0
VERTEX
8
Halfen
62
7
10
 1211
20
 58
30
0
0
VERTEX
8
Halfen
62
7
10
 1211
20
 67.25
30
0
0
VERTEX
8
Halfen
62
7
10
 1202.5
20
 58.75
30
0
0
VERTEX
8
Halfen
62
7
10
 1202.5
20
-58.75
30
0
0
VERTEX
8
Halfen
62
7
10
 1211
20
-67.25
30
0
0
VERTEX
8
Halfen
62
7
10
 1211
20
-58
30
0
0
SEQEND
8
Halfen
0
POLYLINE
8
Halfen
62
7
66
1
10
0.0
20
0.0
30
0.0
70
1
0
VERTEX
8
Halfen
62
7
10
 1262
20
-775
30
0
0
VERTEX
8
Halfen
62
7
10
 1262
20
-160
30
0
0
VERTEX
8
Halfen
62
7
10
 1250
20
-160
30
0
0
VERTEX
8
Halfen
62
7
10
 1250
20
-775
30
0
0
SEQEND
8
Halfen
0
POLYLINE
8
Halfen
62
7
66
1
10
0.0
20
0.0
30
0.0
70
1
0
VERTEX
8
Halfen
62
7
10
 1261.25
20
-160
30
0
0
VERTEX
8
Halfen
62
7
10
 1261.25
20
-62
30
0
0
VERTEX
8
Halfen
62
7
10
 1250.75
20
-62
30
0
0
VERTEX
8
Halfen
62
7
10
 1250.75
20
-160
30
0
0
SEQEND
8
Halfen
0
POLYLINE
8
Halfen
62
7
66
1
10
0.0
20
0.0
30
0.0
70
1
0
VERTEX
8
Halfen
62
7
10
 1262
20
-62
30
0
0
VERTEX
8
Halfen
62
7
10
 1262
20
-60
30
0
0
VERTEX
8
Halfen
62
7
10
 1250
20
-60
30
0
0
VERTEX
8
Halfen
62
7
10
 1250
20
-62
30
0
0
SEQEND
8
Halfen
0
POLYLINE
8
Halfen
62
7
66
1
10
0.0
20
0.0
30
0.0
70
1
0
VERTEX
8
Halfen
62
7
10
 1261.25
20
-60
30
0
0
VERTEX
8
Halfen
62
7
10
 1261.25
20
 60
30
0
0
VERTEX
8
Halfen
62
7
10
 1250.75
20
 60
30
0
0
VERTEX
8
Halfen
62
7
10
 1250.75
20
-60
30
0
0
SEQEND
8
Halfen
0
POLYLINE
8
Halfen
62
7
66
1
10
0.0
20
0.0
30
0.0
70
1
0
VERTEX
8
Halfen
62
7
10
 1262
20
 60
30
0
0
VERTEX
8
Halfen
62
7
10
 1262
20
 62
30
0
0
VERTEX
8
Halfen
62
7
10
 1250
20
 62
30
0
0
VERTEX
8
Halfen
62
7
10
 1250
20
 60
30
0
0
SEQEND
8
Halfen
0
POLYLINE
8
Halfen
62
7
66
1
10
0.0
20
0.0
30
0.0
70
1
0
VERTEX
8
Halfen
62
7
10
 1261.25
20
 62
30
0
0
VERTEX
8
Halfen
62
7
10
 1261.25
20
 160
30
0
0
VERTEX
8
Halfen
62
7
10
 1250.75
20
 160
30
0
0
VERTEX
8
Halfen
62
7
10
 1250.75
20
 62
30
0
0
SEQEND
8
Halfen
0
POLYLINE
8
Halfen
62
7
66
1
10
0.0
20
0.0
30
0.0
70
1
0
VERTEX
8
Halfen
62
7
10
 1262
20
 160
30
0
0
VERTEX
8
Halfen
62
7
10
 1262
20
 775
30
0
0
VERTEX
8
Halfen
62
7
10
 1250
20
 775
30
0
0
VERTEX
8
Halfen
62
7
10
 1250
20
 160
30
0
0
SEQEND
8
Halfen
0
POLYLINE
8
Halfen
62
7
66
1
10
0.0
20
0.0
30
0.0
70
1
0
VERTEX
8
Halfen
62
7
10
 1490
20
-775
30
0
0
VERTEX
8
Halfen
62
7
10
 1490
20
-160
30
0
0
VERTEX
8
Halfen
62
7
10
 1478
20
-160
30
0
0
VERTEX
8
Halfen
62
7
10
 1478
20
-775
30
0
0
SEQEND
8
Halfen
0
POLYLINE
8
Halfen
62
7
66
1
10
0.0
20
0.0
30
0.0
70
1
0
VERTEX
8
Halfen
62
7
10
 1489.25
20
-160
30
0
0
VERTEX
8
Halfen
62
7
10
 1489.25
20
-62
30
0
0
VERTEX
8
Halfen
62
7
10
 1478.75
20
-62
30
0
0
VERTEX
8
Halfen
62
7
10
 1478.75
20
-160
30
0
0
SEQEND
8
Halfen
0
POLYLINE
8
Halfen
62
7
66
1
10
0.0
20
0.0
30
0.0
70
1
0
VERTEX
8
Halfen
62
7
10
 1490
20
-62
30
0
0
VERTEX
8
Halfen
62
7
10
 1490
20
-60
30
0
0
VERTEX
8
Halfen
62
7
10
 1478
20
-60
30
0
0
VERTEX
8
Halfen
62
7
10
 1478
20
-62
30
0
0
SEQEND
8
Halfen
0
POLYLINE
8
Halfen
62
7
66
1
10
0.0
20
0.0
30
0.0
70
1
0
VERTEX
8
Halfen
62
7
10
 1489.25
20
-60
30
0
0
VERTEX
8
Halfen
62
7
10
 1489.25
20
 60
30
0
0
VERTEX
8
Halfen
62
7
10
 1478.75
20
 60
30
0
0
VERTEX
8
Halfen
62
7
10
 1478.75
20
-60
30
0
0
SEQEND
8
Halfen
0
POLYLINE
8
Halfen
62
7
66
1
10
0.0
20
0.0
30
0.0
70
1
0
VERTEX
8
Halfen
62
7
10
 1490
20
 60
30
0
0
VERTEX
8
Halfen
62
7
10
 1490
20
 62
30
0
0
VERTEX
8
Halfen
62
7
10
 1478
20
 62
30
0
0
VERTEX
8
Halfen
62
7
10
 1478
20
 60
30
0
0
SEQEND
8
Halfen
0
POLYLINE
8
Halfen
62
7
66
1
10
0.0
20
0.0
30
0.0
70
1
0
VERTEX
8
Halfen
62
7
10
 1489.25
20
 62
30
0
0
VERTEX
8
Halfen
62
7
10
 1489.25
20
 160
30
0
0
VERTEX
8
Halfen
62
7
10
 1478.75
20
 160
30
0
0
VERTEX
8
Halfen
62
7
10
 1478.75
20
 62
30
0
0
SEQEND
8
Halfen
0
POLYLINE
8
Halfen
62
7
66
1
10
0.0
20
0.0
30
0.0
70
1
0
VERTEX
8
Halfen
62
7
10
 1490
20
 160
30
0
0
VERTEX
8
Halfen
62
7
10
 1490
20
 775
30
0
0
VERTEX
8
Halfen
62
7
10
 1478
20
 775
30
0
0
VERTEX
8
Halfen
62
7
10
 1478
20
 160
30
0
0
SEQEND
8
Halfen
0
POLYLINE
8
Halfen
62
7
66
1
10
0.0
20
0.0
30
0.0
70
1
0
VERTEX
8
Halfen
62
7
10
 1490
20
-579.398
30
0
0
VERTEX
8
Halfen
62
7
10
 1490
20
-91.113
30
0
0
VERTEX
8
Halfen
62
7
10
 1489.606
20
-86.107
30
0
0
VERTEX
8
Halfen
62
7
10
 1488.434
20
-81.224
30
0
0
VERTEX
8
Halfen
62
7
10
 1486.512
20
-76.585
30
0
0
VERTEX
8
Halfen
62
7
10
 1483.889
20
-72.304
30
0
0
VERTEX
8
Halfen
62
7
10
 1480.627
20
-68.485
30
0
0
VERTEX
8
Halfen
62
7
10
 1325.029
20
 87.113
30
0
0
VERTEX
8
Halfen
62
7
10
 1322.584
20
 89.976
30
0
0
VERTEX
8
Halfen
62
7
10
 1320.616
20
 93.187
30
0
0
VERTEX
8
Halfen
62
7
10
 1319.175
20
 96.667
30
0
0
VERTEX
8
Halfen
62
7
10
 1318.295
20
 100.329
30
0
0
VERTEX
8
Halfen
62
7
10
 1318
20
 104.083
30
0
0
VERTEX
8
Halfen
62
7
10
 1318
20
 592.368
30
0
0
VERTEX
8
Halfen
62
7
10
 1310
20
 592.368
30
0
0
VERTEX
8
Halfen
62
7
10
 1310
20
 104.083
30
0
0
VERTEX
8
Halfen
62
7
10
 1310.394
20
 99.077
30
0
0
VERTEX
8
Halfen
62
7
10
 1311.566
20
 94.195
30
0
0
VERTEX
8
Halfen
62
7
10
 1313.488
20
 89.556
30
0
0
VERTEX
8
Halfen
62
7
10
 1316.111
20
 85.274
30
0
0
VERTEX
8
Halfen
62
7
10
 1319.373
20
 81.456
30
0
0
VERTEX
8
Halfen
62
7
10
 1474.971
20
-74.142
30
0
0
VERTEX
8
Halfen
62
7
10
 1477.416
20
-77.006
30
0
0
VERTEX
8
Halfen
62
7
10
 1479.384
20
-80.217
30
0
0
VERTEX
8
Halfen
62
7
10
 1480.825
20
-83.696
30
0
0
VERTEX
8
Halfen
62
7
10
 1481.705
20
-87.358
30
0
0
VERTEX
8
Halfen
62
7
10
 1482
20
-91.113
30
0
0
VERTEX
8
Halfen
62
7
10
 1482
20
-579.398
30
0
0
SEQEND
8
Halfen
0
POLYLINE
8
Halfen
62
7
66
1
10
0.0
20
0.0
30
0.0
70
1
0
VERTEX
8
Halfen
62
7
10
 1310
20
-592.368
30
0
0
VERTEX
8
Halfen
62
7
10
 1310
20
-104.083
30
0
0
VERTEX
8
Halfen
62
7
10
 1310.394
20
-99.077
30
0
0
VERTEX
8
Halfen
62
7
10
 1311.566
20
-94.195
30
0
0
VERTEX
8
Halfen
62
7
10
 1313.488
20
-89.556
30
0
0
VERTEX
8
Halfen
62
7
10
 1316.111
20
-85.274
30
0
0
VERTEX
8
Halfen
62
7
10
 1319.373
20
-81.456
30
0
0
VERTEX
8
Halfen
62
7
10
 1474.971
20
 74.142
30
0
0
VERTEX
8
Halfen
62
7
10
 1477.416
20
 77.006
30
0
0
VERTEX
8
Halfen
62
7
10
 1479.384
20
 80.217
30
0
0
VERTEX
8
Halfen
62
7
10
 1480.825
20
 83.696
30
0
0
VERTEX
8
Halfen
62
7
10
 1481.705
20
 87.358
30
0
0
VERTEX
8
Halfen
62
7
10
 1482
20
 91.113
30
0
0
VERTEX
8
Halfen
62
7
10
 1482
20
 579.398
30
0
0
VERTEX
8
Halfen
62
7
10
 1490
20
 579.398
30
0
0
VERTEX
8
Halfen
62
7
10
 1490
20
 91.113
30
0
0
VERTEX
8
Halfen
62
7
10
 1489.606
20
 86.107
30
0
0
VERTEX
8
Halfen
62
7
10
 1488.434
20
 81.224
30
0
0
VERTEX
8
Halfen
62
7
10
 1486.512
20
 76.585
30
0
0
VERTEX
8
Halfen
62
7
10
 1483.889
20
 72.304
30
0
0
VERTEX
8
Halfen
62
7
10
 1480.627
20
 68.485
30
0
0
VERTEX
8
Halfen
62
7
10
 1325.029
20
-87.113
30
0
0
VERTEX
8
Halfen
62
7
10
 1322.584
20
-89.976
30
0
0
VERTEX
8
Halfen
62
7
10
 1320.616
20
-93.187
30
0
0
VERTEX
8
Halfen
62
7
10
 1319.175
20
-96.667
30
0
0
VERTEX
8
Halfen
62
7
10
 1318.295
20
-100.329
30
0
0
VERTEX
8
Halfen
62
7
10
 1318
20
-104.083
30
0
0
VERTEX
8
Halfen
62
7
10
 1318
20
-592.368
30
0
0
SEQEND
8
Halfen
0
ENDSEC
0
EOF
