0
SECTION
2
HEADER
9
$EXTMIN
10
 0
20
 100
30
0.0
9
$EXTMAX
10
 0
20
 100
30
0.0
9
$LIMMIN
10
 100
20
 0
9
$LIMMAX
10
 0
20
 100
9
$PSLTSCALE
70
1
0
ENDSEC
0
SECTION
2
TABLES
0
TABLE
2
LAYER
70
2
0
LAYER
2
0
70
0
62
7
6
CONTINUOUS
0
LAYER
2
Halfen
70
0
62
7
6
CONTINUOUS
0
ENDTAB
0
ENDSEC
0
SECTION
2
ENTITIES
0
POLYLINE
8
Halfen
62
7
66
1
10
0.0
20
0.0
30
0.0
70
1
0
VERTEX
8
Halfen
62
7
10
 0
20
-73.5
30
0
0
VERTEX
8
Halfen
62
7
10
 250
20
-73.5
30
0
0
VERTEX
8
Halfen
62
7
10
 250
20
 73.5
30
0
0
VERTEX
8
Halfen
62
7
10
 0
20
 73.5
30
0
0
SEQEND
8
Halfen
0
POLYLINE
8
Halfen
62
7
66
1
10
0.0
20
0.0
30
0.0
70
1
0
VERTEX
8
Halfen
62
7
10
 0
20
-60
30
0
0
VERTEX
8
Halfen
62
7
10
 250
20
-60
30
0
0
VERTEX
8
Halfen
62
7
10
 250
20
 60
30
0
0
VERTEX
8
Halfen
62
7
10
 0
20
 60
30
0
0
SEQEND
8
Halfen
0
POLYLINE
8
Halfen
62
7
66
1
10
0.0
20
0.0
30
0.0
70
1
0
VERTEX
8
Halfen
62
7
10
 20
20
-32.5
30
0
0
VERTEX
8
Halfen
62
7
10
 37
20
-1.5
30
0
0
VERTEX
8
Halfen
62
7
10
 28
20
-1.5
30
0
0
VERTEX
8
Halfen
62
7
10
 28
20
 32.5
30
0
0
VERTEX
8
Halfen
62
7
10
 12
20
 32.5
30
0
0
VERTEX
8
Halfen
62
7
10
 12
20
-1.5
30
0
0
VERTEX
8
Halfen
62
7
10
 3
20
-1.5
30
0
0
SEQEND
8
Halfen
0
POLYLINE
8
Halfen
62
7
66
1
10
0.0
20
0.0
30
0.0
70
1
0
VERTEX
8
Halfen
62
7
10
 230
20
-32.5
30
0
0
VERTEX
8
Halfen
62
7
10
 247
20
-1.5
30
0
0
VERTEX
8
Halfen
62
7
10
 238
20
-1.5
30
0
0
VERTEX
8
Halfen
62
7
10
 238
20
 32.5
30
0
0
VERTEX
8
Halfen
62
7
10
 222
20
 32.5
30
0
0
VERTEX
8
Halfen
62
7
10
 222
20
-1.5
30
0
0
VERTEX
8
Halfen
62
7
10
 213
20
-1.5
30
0
0
SEQEND
8
Halfen
0
POLYLINE
8
Halfen
62
7
66
1
10
0.0
20
0.0
30
0.0
70
1
0
VERTEX
8
Halfen
62
7
10
 152
20
-775
30
0
0
VERTEX
8
Halfen
62
7
10
 152
20
-160
30
0
0
VERTEX
8
Halfen
62
7
10
 140
20
-160
30
0
0
VERTEX
8
Halfen
62
7
10
 140
20
-775
30
0
0
SEQEND
8
Halfen
0
POLYLINE
8
Halfen
62
7
66
1
10
0.0
20
0.0
30
0.0
70
1
0
VERTEX
8
Halfen
62
7
10
 151.25
20
-160
30
0
0
VERTEX
8
Halfen
62
7
10
 151.25
20
-62
30
0
0
VERTEX
8
Halfen
62
7
10
 140.75
20
-62
30
0
0
VERTEX
8
Halfen
62
7
10
 140.75
20
-160
30
0
0
SEQEND
8
Halfen
0
POLYLINE
8
Halfen
62
7
66
1
10
0.0
20
0.0
30
0.0
70
1
0
VERTEX
8
Halfen
62
7
10
 152
20
-62
30
0
0
VERTEX
8
Halfen
62
7
10
 152
20
-60
30
0
0
VERTEX
8
Halfen
62
7
10
 140
20
-60
30
0
0
VERTEX
8
Halfen
62
7
10
 140
20
-62
30
0
0
SEQEND
8
Halfen
0
POLYLINE
8
Halfen
62
7
66
1
10
0.0
20
0.0
30
0.0
70
1
0
VERTEX
8
Halfen
62
7
10
 151.25
20
-60
30
0
0
VERTEX
8
Halfen
62
7
10
 151.25
20
 60
30
0
0
VERTEX
8
Halfen
62
7
10
 140.75
20
 60
30
0
0
VERTEX
8
Halfen
62
7
10
 140.75
20
-60
30
0
0
SEQEND
8
Halfen
0
POLYLINE
8
Halfen
62
7
66
1
10
0.0
20
0.0
30
0.0
70
1
0
VERTEX
8
Halfen
62
7
10
 152
20
 60
30
0
0
VERTEX
8
Halfen
62
7
10
 152
20
 62
30
0
0
VERTEX
8
Halfen
62
7
10
 140
20
 62
30
0
0
VERTEX
8
Halfen
62
7
10
 140
20
 60
30
0
0
SEQEND
8
Halfen
0
POLYLINE
8
Halfen
62
7
66
1
10
0.0
20
0.0
30
0.0
70
1
0
VERTEX
8
Halfen
62
7
10
 151.25
20
 62
30
0
0
VERTEX
8
Halfen
62
7
10
 151.25
20
 160
30
0
0
VERTEX
8
Halfen
62
7
10
 140.75
20
 160
30
0
0
VERTEX
8
Halfen
62
7
10
 140.75
20
 62
30
0
0
SEQEND
8
Halfen
0
POLYLINE
8
Halfen
62
7
66
1
10
0.0
20
0.0
30
0.0
70
1
0
VERTEX
8
Halfen
62
7
10
 152
20
 160
30
0
0
VERTEX
8
Halfen
62
7
10
 152
20
 775
30
0
0
VERTEX
8
Halfen
62
7
10
 140
20
 775
30
0
0
VERTEX
8
Halfen
62
7
10
 140
20
 160
30
0
0
SEQEND
8
Halfen
0
POLYLINE
8
Halfen
62
7
66
1
10
0.0
20
0.0
30
0.0
70
1
0
VERTEX
8
Halfen
62
7
10
 98
20
-448.554
30
0
0
VERTEX
8
Halfen
62
7
10
 98
20
 472.835
30
0
0
VERTEX
8
Halfen
62
7
10
 92
20
 472.835
30
0
0
VERTEX
8
Halfen
62
7
10
 92
20
-448.554
30
0
0
SEQEND
8
Halfen
0
POLYLINE
8
Halfen
62
7
66
1
10
0.0
20
0.0
30
0.0
70
1
0
VERTEX
8
Halfen
62
7
10
 104
20
-472.835
30
0
0
VERTEX
8
Halfen
62
7
10
 104
20
 448.554
30
0
0
VERTEX
8
Halfen
62
7
10
 98
20
 448.554
30
0
0
VERTEX
8
Halfen
62
7
10
 98
20
-472.835
30
0
0
SEQEND
8
Halfen
0
POLYLINE
8
Halfen
62
7
66
1
10
0.0
20
0.0
30
0.0
70
1
0
VERTEX
8
Halfen
62
7
10
 650
20
-60
30
0
0
VERTEX
8
Halfen
62
7
10
 650
20
 60
30
0
0
VERTEX
8
Halfen
62
7
10
 636.5
20
 73.5
30
0
0
VERTEX
8
Halfen
62
7
10
 636.5
20
 60
30
0
0
VERTEX
8
Halfen
62
7
10
 500
20
 60
30
0
0
VERTEX
8
Halfen
62
7
10
 500
20
-60
30
0
0
VERTEX
8
Halfen
62
7
10
 636.5
20
-60
30
0
0
VERTEX
8
Halfen
62
7
10
 636.5
20
-73.5
30
0
0
SEQEND
8
Halfen
0
POLYLINE
8
Halfen
62
7
66
1
10
0.0
20
0.0
30
0.0
70
1
0
VERTEX
8
Halfen
62
7
10
 500
20
-60
30
0
0
VERTEX
8
Halfen
62
7
10
 500
20
 60
30
0
0
VERTEX
8
Halfen
62
7
10
 463.5
20
 60
30
0
0
VERTEX
8
Halfen
62
7
10
 463.5
20
 73.5
30
0
0
VERTEX
8
Halfen
62
7
10
 450
20
 60
30
0
0
VERTEX
8
Halfen
62
7
10
 450
20
-60
30
0
0
VERTEX
8
Halfen
62
7
10
 463.5
20
-73.5
30
0
0
VERTEX
8
Halfen
62
7
10
 463.5
20
-60
30
0
0
SEQEND
8
Halfen
0
POLYLINE
8
Halfen
62
7
66
1
10
0.0
20
0.0
30
0.0
70
1
0
VERTEX
8
Halfen
62
7
10
 647.5
20
-58.75
30
0
0
VERTEX
8
Halfen
62
7
10
 647.5
20
 58.75
30
0
0
VERTEX
8
Halfen
62
7
10
 639
20
 67.25
30
0
0
VERTEX
8
Halfen
62
7
10
 639
20
 58
30
0
0
VERTEX
8
Halfen
62
7
10
 502
20
 58
30
0
0
VERTEX
8
Halfen
62
7
10
 502
20
-58
30
0
0
VERTEX
8
Halfen
62
7
10
 639
20
-58
30
0
0
VERTEX
8
Halfen
62
7
10
 639
20
-67.25
30
0
0
SEQEND
8
Halfen
0
POLYLINE
8
Halfen
62
7
66
1
10
0.0
20
0.0
30
0.0
70
1
0
VERTEX
8
Halfen
62
7
10
 498
20
-58
30
0
0
VERTEX
8
Halfen
62
7
10
 498
20
 58
30
0
0
VERTEX
8
Halfen
62
7
10
 461
20
 58
30
0
0
VERTEX
8
Halfen
62
7
10
 461
20
 67.25
30
0
0
VERTEX
8
Halfen
62
7
10
 452.5
20
 58.75
30
0
0
VERTEX
8
Halfen
62
7
10
 452.5
20
-58.75
30
0
0
VERTEX
8
Halfen
62
7
10
 461
20
-67.25
30
0
0
VERTEX
8
Halfen
62
7
10
 461
20
-58
30
0
0
SEQEND
8
Halfen
0
POLYLINE
8
Halfen
62
7
66
1
10
0.0
20
0.0
30
0.0
70
1
0
VERTEX
8
Halfen
62
7
10
 497
20
-775
30
0
0
VERTEX
8
Halfen
62
7
10
 497
20
-160
30
0
0
VERTEX
8
Halfen
62
7
10
 485
20
-160
30
0
0
VERTEX
8
Halfen
62
7
10
 485
20
-775
30
0
0
SEQEND
8
Halfen
0
POLYLINE
8
Halfen
62
7
66
1
10
0.0
20
0.0
30
0.0
70
1
0
VERTEX
8
Halfen
62
7
10
 496.25
20
-160
30
0
0
VERTEX
8
Halfen
62
7
10
 496.25
20
-62
30
0
0
VERTEX
8
Halfen
62
7
10
 485.75
20
-62
30
0
0
VERTEX
8
Halfen
62
7
10
 485.75
20
-160
30
0
0
SEQEND
8
Halfen
0
POLYLINE
8
Halfen
62
7
66
1
10
0.0
20
0.0
30
0.0
70
1
0
VERTEX
8
Halfen
62
7
10
 497
20
-62
30
0
0
VERTEX
8
Halfen
62
7
10
 497
20
-60
30
0
0
VERTEX
8
Halfen
62
7
10
 485
20
-60
30
0
0
VERTEX
8
Halfen
62
7
10
 485
20
-62
30
0
0
SEQEND
8
Halfen
0
POLYLINE
8
Halfen
62
7
66
1
10
0.0
20
0.0
30
0.0
70
1
0
VERTEX
8
Halfen
62
7
10
 496.25
20
-60
30
0
0
VERTEX
8
Halfen
62
7
10
 496.25
20
 60
30
0
0
VERTEX
8
Halfen
62
7
10
 485.75
20
 60
30
0
0
VERTEX
8
Halfen
62
7
10
 485.75
20
-60
30
0
0
SEQEND
8
Halfen
0
POLYLINE
8
Halfen
62
7
66
1
10
0.0
20
0.0
30
0.0
70
1
0
VERTEX
8
Halfen
62
7
10
 497
20
 60
30
0
0
VERTEX
8
Halfen
62
7
10
 497
20
 62
30
0
0
VERTEX
8
Halfen
62
7
10
 485
20
 62
30
0
0
VERTEX
8
Halfen
62
7
10
 485
20
 60
30
0
0
SEQEND
8
Halfen
0
POLYLINE
8
Halfen
62
7
66
1
10
0.0
20
0.0
30
0.0
70
1
0
VERTEX
8
Halfen
62
7
10
 496.25
20
 62
30
0
0
VERTEX
8
Halfen
62
7
10
 496.25
20
 160
30
0
0
VERTEX
8
Halfen
62
7
10
 485.75
20
 160
30
0
0
VERTEX
8
Halfen
62
7
10
 485.75
20
 62
30
0
0
SEQEND
8
Halfen
0
POLYLINE
8
Halfen
62
7
66
1
10
0.0
20
0.0
30
0.0
70
1
0
VERTEX
8
Halfen
62
7
10
 497
20
 160
30
0
0
VERTEX
8
Halfen
62
7
10
 497
20
 775
30
0
0
VERTEX
8
Halfen
62
7
10
 485
20
 775
30
0
0
VERTEX
8
Halfen
62
7
10
 485
20
 160
30
0
0
SEQEND
8
Halfen
0
POLYLINE
8
Halfen
62
7
66
1
10
0.0
20
0.0
30
0.0
70
1
0
VERTEX
8
Halfen
62
7
10
 620
20
-775
30
0
0
VERTEX
8
Halfen
62
7
10
 620
20
-160
30
0
0
VERTEX
8
Halfen
62
7
10
 608
20
-160
30
0
0
VERTEX
8
Halfen
62
7
10
 608
20
-775
30
0
0
SEQEND
8
Halfen
0
POLYLINE
8
Halfen
62
7
66
1
10
0.0
20
0.0
30
0.0
70
1
0
VERTEX
8
Halfen
62
7
10
 619.25
20
-160
30
0
0
VERTEX
8
Halfen
62
7
10
 619.25
20
-62
30
0
0
VERTEX
8
Halfen
62
7
10
 608.75
20
-62
30
0
0
VERTEX
8
Halfen
62
7
10
 608.75
20
-160
30
0
0
SEQEND
8
Halfen
0
POLYLINE
8
Halfen
62
7
66
1
10
0.0
20
0.0
30
0.0
70
1
0
VERTEX
8
Halfen
62
7
10
 620
20
-62
30
0
0
VERTEX
8
Halfen
62
7
10
 620
20
-60
30
0
0
VERTEX
8
Halfen
62
7
10
 608
20
-60
30
0
0
VERTEX
8
Halfen
62
7
10
 608
20
-62
30
0
0
SEQEND
8
Halfen
0
POLYLINE
8
Halfen
62
7
66
1
10
0.0
20
0.0
30
0.0
70
1
0
VERTEX
8
Halfen
62
7
10
 619.25
20
-60
30
0
0
VERTEX
8
Halfen
62
7
10
 619.25
20
 60
30
0
0
VERTEX
8
Halfen
62
7
10
 608.75
20
 60
30
0
0
VERTEX
8
Halfen
62
7
10
 608.75
20
-60
30
0
0
SEQEND
8
Halfen
0
POLYLINE
8
Halfen
62
7
66
1
10
0.0
20
0.0
30
0.0
70
1
0
VERTEX
8
Halfen
62
7
10
 620
20
 60
30
0
0
VERTEX
8
Halfen
62
7
10
 620
20
 62
30
0
0
VERTEX
8
Halfen
62
7
10
 608
20
 62
30
0
0
VERTEX
8
Halfen
62
7
10
 608
20
 60
30
0
0
SEQEND
8
Halfen
0
POLYLINE
8
Halfen
62
7
66
1
10
0.0
20
0.0
30
0.0
70
1
0
VERTEX
8
Halfen
62
7
10
 619.25
20
 62
30
0
0
VERTEX
8
Halfen
62
7
10
 619.25
20
 160
30
0
0
VERTEX
8
Halfen
62
7
10
 608.75
20
 160
30
0
0
VERTEX
8
Halfen
62
7
10
 608.75
20
 62
30
0
0
SEQEND
8
Halfen
0
POLYLINE
8
Halfen
62
7
66
1
10
0.0
20
0.0
30
0.0
70
1
0
VERTEX
8
Halfen
62
7
10
 620
20
 160
30
0
0
VERTEX
8
Halfen
62
7
10
 620
20
 775
30
0
0
VERTEX
8
Halfen
62
7
10
 608
20
 775
30
0
0
VERTEX
8
Halfen
62
7
10
 608
20
 160
30
0
0
SEQEND
8
Halfen
0
POLYLINE
8
Halfen
62
7
66
1
10
0.0
20
0.0
30
0.0
70
1
0
VERTEX
8
Halfen
62
7
10
 620
20
-448.554
30
0
0
VERTEX
8
Halfen
62
7
10
 620
20
-82.304
30
0
0
VERTEX
8
Halfen
62
7
10
 619.679
20
-78.395
30
0
0
VERTEX
8
Halfen
62
7
10
 618.726
20
-74.59
30
0
0
VERTEX
8
Halfen
62
7
10
 617.166
20
-70.991
30
0
0
VERTEX
8
Halfen
62
7
10
 615.04
20
-67.694
30
0
0
VERTEX
8
Halfen
62
7
10
 489.72
20
 95.627
30
0
0
VERTEX
8
Halfen
62
7
10
 488.125
20
 98.1
30
0
0
VERTEX
8
Halfen
62
7
10
 486.955
20
 100.799
30
0
0
VERTEX
8
Halfen
62
7
10
 486.24
20
 103.653
30
0
0
VERTEX
8
Halfen
62
7
10
 486
20
 106.585
30
0
0
VERTEX
8
Halfen
62
7
10
 486
20
 472.835
30
0
0
VERTEX
8
Halfen
62
7
10
 480
20
 472.835
30
0
0
VERTEX
8
Halfen
62
7
10
 480
20
 106.585
30
0
0
VERTEX
8
Halfen
62
7
10
 480.321
20
 102.676
30
0
0
VERTEX
8
Halfen
62
7
10
 481.274
20
 98.871
30
0
0
VERTEX
8
Halfen
62
7
10
 482.834
20
 95.272
30
0
0
VERTEX
8
Halfen
62
7
10
 484.96
20
 91.975
30
0
0
VERTEX
8
Halfen
62
7
10
 610.28
20
-71.347
30
0
0
VERTEX
8
Halfen
62
7
10
 611.875
20
-73.819
30
0
0
VERTEX
8
Halfen
62
7
10
 613.045
20
-76.518
30
0
0
VERTEX
8
Halfen
62
7
10
 613.76
20
-79.372
30
0
0
VERTEX
8
Halfen
62
7
10
 614
20
-82.304
30
0
0
VERTEX
8
Halfen
62
7
10
 614
20
-448.554
30
0
0
SEQEND
8
Halfen
0
POLYLINE
8
Halfen
62
7
66
1
10
0.0
20
0.0
30
0.0
70
1
0
VERTEX
8
Halfen
62
7
10
 480
20
-472.835
30
0
0
VERTEX
8
Halfen
62
7
10
 480
20
-106.585
30
0
0
VERTEX
8
Halfen
62
7
10
 480.321
20
-102.676
30
0
0
VERTEX
8
Halfen
62
7
10
 481.274
20
-98.87
30
0
0
VERTEX
8
Halfen
62
7
10
 482.834
20
-95.271
30
0
0
VERTEX
8
Halfen
62
7
10
 484.96
20
-91.975
30
0
0
VERTEX
8
Halfen
62
7
10
 610.28
20
 71.347
30
0
0
VERTEX
8
Halfen
62
7
10
 611.875
20
 73.819
30
0
0
VERTEX
8
Halfen
62
7
10
 613.045
20
 76.518
30
0
0
VERTEX
8
Halfen
62
7
10
 613.76
20
 79.372
30
0
0
VERTEX
8
Halfen
62
7
10
 614
20
 82.304
30
0
0
VERTEX
8
Halfen
62
7
10
 614
20
 448.554
30
0
0
VERTEX
8
Halfen
62
7
10
 620
20
 448.554
30
0
0
VERTEX
8
Halfen
62
7
10
 620
20
 82.304
30
0
0
VERTEX
8
Halfen
62
7
10
 619.679
20
 78.395
30
0
0
VERTEX
8
Halfen
62
7
10
 618.726
20
 74.59
30
0
0
VERTEX
8
Halfen
62
7
10
 617.166
20
 70.991
30
0
0
VERTEX
8
Halfen
62
7
10
 615.04
20
 67.694
30
0
0
VERTEX
8
Halfen
62
7
10
 489.72
20
-95.627
30
0
0
VERTEX
8
Halfen
62
7
10
 488.125
20
-98.1
30
0
0
VERTEX
8
Halfen
62
7
10
 486.955
20
-100.799
30
0
0
VERTEX
8
Halfen
62
7
10
 486.24
20
-103.653
30
0
0
VERTEX
8
Halfen
62
7
10
 486
20
-106.585
30
0
0
VERTEX
8
Halfen
62
7
10
 486
20
-472.835
30
0
0
SEQEND
8
Halfen
0
ENDSEC
0
EOF
