0
SECTION
2
HEADER
9
$EXTMIN
10
 0
20
 100
30
0.0
9
$EXTMAX
10
 0
20
 100
30
0.0
9
$LIMMIN
10
 100
20
 0
9
$LIMMAX
10
 0
20
 100
9
$PSLTSCALE
70
1
0
ENDSEC
0
SECTION
2
TABLES
0
TABLE
2
LAYER
70
2
0
LAYER
2
0
70
0
62
7
6
CONTINUOUS
0
LAYER
2
Halfen
70
0
62
7
6
CONTINUOUS
0
ENDTAB
0
ENDSEC
0
SECTION
2
ENTITIES
0
POLYLINE
8
Halfen
62
7
66
1
10
0.0
20
0.0
30
0.0
70
1
0
VERTEX
8
Halfen
62
7
10
 0
20
-73.5
30
0
0
VERTEX
8
Halfen
62
7
10
 250
20
-73.5
30
0
0
VERTEX
8
Halfen
62
7
10
 250
20
 73.5
30
0
0
VERTEX
8
Halfen
62
7
10
 0
20
 73.5
30
0
0
SEQEND
8
Halfen
0
POLYLINE
8
Halfen
62
7
66
1
10
0.0
20
0.0
30
0.0
70
1
0
VERTEX
8
Halfen
62
7
10
 0
20
-60
30
0
0
VERTEX
8
Halfen
62
7
10
 250
20
-60
30
0
0
VERTEX
8
Halfen
62
7
10
 250
20
 60
30
0
0
VERTEX
8
Halfen
62
7
10
 0
20
 60
30
0
0
SEQEND
8
Halfen
0
POLYLINE
8
Halfen
62
7
66
1
10
0.0
20
0.0
30
0.0
70
1
0
VERTEX
8
Halfen
62
7
10
 20
20
-32.5
30
0
0
VERTEX
8
Halfen
62
7
10
 37
20
-1.5
30
0
0
VERTEX
8
Halfen
62
7
10
 28
20
-1.5
30
0
0
VERTEX
8
Halfen
62
7
10
 28
20
 32.5
30
0
0
VERTEX
8
Halfen
62
7
10
 12
20
 32.5
30
0
0
VERTEX
8
Halfen
62
7
10
 12
20
-1.5
30
0
0
VERTEX
8
Halfen
62
7
10
 3
20
-1.5
30
0
0
SEQEND
8
Halfen
0
POLYLINE
8
Halfen
62
7
66
1
10
0.0
20
0.0
30
0.0
70
1
0
VERTEX
8
Halfen
62
7
10
 230
20
-32.5
30
0
0
VERTEX
8
Halfen
62
7
10
 247
20
-1.5
30
0
0
VERTEX
8
Halfen
62
7
10
 238
20
-1.5
30
0
0
VERTEX
8
Halfen
62
7
10
 238
20
 32.5
30
0
0
VERTEX
8
Halfen
62
7
10
 222
20
 32.5
30
0
0
VERTEX
8
Halfen
62
7
10
 222
20
-1.5
30
0
0
VERTEX
8
Halfen
62
7
10
 213
20
-1.5
30
0
0
SEQEND
8
Halfen
0
POLYLINE
8
Halfen
62
7
66
1
10
0.0
20
0.0
30
0.0
70
1
0
VERTEX
8
Halfen
62
7
10
 152
20
-775
30
0
0
VERTEX
8
Halfen
62
7
10
 152
20
-160
30
0
0
VERTEX
8
Halfen
62
7
10
 140
20
-160
30
0
0
VERTEX
8
Halfen
62
7
10
 140
20
-775
30
0
0
SEQEND
8
Halfen
0
POLYLINE
8
Halfen
62
7
66
1
10
0.0
20
0.0
30
0.0
70
1
0
VERTEX
8
Halfen
62
7
10
 151.25
20
-160
30
0
0
VERTEX
8
Halfen
62
7
10
 151.25
20
-62
30
0
0
VERTEX
8
Halfen
62
7
10
 140.75
20
-62
30
0
0
VERTEX
8
Halfen
62
7
10
 140.75
20
-160
30
0
0
SEQEND
8
Halfen
0
POLYLINE
8
Halfen
62
7
66
1
10
0.0
20
0.0
30
0.0
70
1
0
VERTEX
8
Halfen
62
7
10
 152
20
-62
30
0
0
VERTEX
8
Halfen
62
7
10
 152
20
-60
30
0
0
VERTEX
8
Halfen
62
7
10
 140
20
-60
30
0
0
VERTEX
8
Halfen
62
7
10
 140
20
-62
30
0
0
SEQEND
8
Halfen
0
POLYLINE
8
Halfen
62
7
66
1
10
0.0
20
0.0
30
0.0
70
1
0
VERTEX
8
Halfen
62
7
10
 151.25
20
-60
30
0
0
VERTEX
8
Halfen
62
7
10
 151.25
20
 60
30
0
0
VERTEX
8
Halfen
62
7
10
 140.75
20
 60
30
0
0
VERTEX
8
Halfen
62
7
10
 140.75
20
-60
30
0
0
SEQEND
8
Halfen
0
POLYLINE
8
Halfen
62
7
66
1
10
0.0
20
0.0
30
0.0
70
1
0
VERTEX
8
Halfen
62
7
10
 152
20
 60
30
0
0
VERTEX
8
Halfen
62
7
10
 152
20
 62
30
0
0
VERTEX
8
Halfen
62
7
10
 140
20
 62
30
0
0
VERTEX
8
Halfen
62
7
10
 140
20
 60
30
0
0
SEQEND
8
Halfen
0
POLYLINE
8
Halfen
62
7
66
1
10
0.0
20
0.0
30
0.0
70
1
0
VERTEX
8
Halfen
62
7
10
 151.25
20
 62
30
0
0
VERTEX
8
Halfen
62
7
10
 151.25
20
 160
30
0
0
VERTEX
8
Halfen
62
7
10
 140.75
20
 160
30
0
0
VERTEX
8
Halfen
62
7
10
 140.75
20
 62
30
0
0
SEQEND
8
Halfen
0
POLYLINE
8
Halfen
62
7
66
1
10
0.0
20
0.0
30
0.0
70
1
0
VERTEX
8
Halfen
62
7
10
 152
20
 160
30
0
0
VERTEX
8
Halfen
62
7
10
 152
20
 775
30
0
0
VERTEX
8
Halfen
62
7
10
 140
20
 775
30
0
0
VERTEX
8
Halfen
62
7
10
 140
20
 160
30
0
0
SEQEND
8
Halfen
0
POLYLINE
8
Halfen
62
7
66
1
10
0.0
20
0.0
30
0.0
70
1
0
VERTEX
8
Halfen
62
7
10
 98
20
-704.762
30
0
0
VERTEX
8
Halfen
62
7
10
 98
20
 159.422
30
0
0
VERTEX
8
Halfen
62
7
10
 88
20
 159.422
30
0
0
VERTEX
8
Halfen
62
7
10
 88
20
-704.762
30
0
0
SEQEND
8
Halfen
0
POLYLINE
8
Halfen
62
7
66
1
10
0.0
20
0.0
30
0.0
70
1
0
VERTEX
8
Halfen
62
7
10
 98
20
 159.422
30
0
0
VERTEX
8
Halfen
62
7
10
 98
20
 698.422
30
0
0
VERTEX
8
Halfen
62
7
10
 88
20
 698.422
30
0
0
VERTEX
8
Halfen
62
7
10
 88
20
 159.422
30
0
0
SEQEND
8
Halfen
0
POLYLINE
8
Halfen
62
7
66
1
10
0.0
20
0.0
30
0.0
70
1
0
VERTEX
8
Halfen
62
7
10
 108
20
-698.422
30
0
0
VERTEX
8
Halfen
62
7
10
 108
20
 165.762
30
0
0
VERTEX
8
Halfen
62
7
10
 98
20
 165.762
30
0
0
VERTEX
8
Halfen
62
7
10
 98
20
-698.422
30
0
0
SEQEND
8
Halfen
0
POLYLINE
8
Halfen
62
7
66
1
10
0.0
20
0.0
30
0.0
70
1
0
VERTEX
8
Halfen
62
7
10
 108
20
 165.762
30
0
0
VERTEX
8
Halfen
62
7
10
 108
20
 704.762
30
0
0
VERTEX
8
Halfen
62
7
10
 98
20
 704.762
30
0
0
VERTEX
8
Halfen
62
7
10
 98
20
 165.762
30
0
0
SEQEND
8
Halfen
0
POLYLINE
8
Halfen
62
7
66
1
10
0.0
20
0.0
30
0.0
70
1
0
VERTEX
8
Halfen
62
7
10
 650
20
-60
30
0
0
VERTEX
8
Halfen
62
7
10
 650
20
 60
30
0
0
VERTEX
8
Halfen
62
7
10
 636.5
20
 73.5
30
0
0
VERTEX
8
Halfen
62
7
10
 636.5
20
 60
30
0
0
VERTEX
8
Halfen
62
7
10
 500
20
 60
30
0
0
VERTEX
8
Halfen
62
7
10
 500
20
-60
30
0
0
VERTEX
8
Halfen
62
7
10
 636.5
20
-60
30
0
0
VERTEX
8
Halfen
62
7
10
 636.5
20
-73.5
30
0
0
SEQEND
8
Halfen
0
POLYLINE
8
Halfen
62
7
66
1
10
0.0
20
0.0
30
0.0
70
1
0
VERTEX
8
Halfen
62
7
10
 500
20
-60
30
0
0
VERTEX
8
Halfen
62
7
10
 500
20
 60
30
0
0
VERTEX
8
Halfen
62
7
10
 463.5
20
 60
30
0
0
VERTEX
8
Halfen
62
7
10
 463.5
20
 73.5
30
0
0
VERTEX
8
Halfen
62
7
10
 450
20
 60
30
0
0
VERTEX
8
Halfen
62
7
10
 450
20
-60
30
0
0
VERTEX
8
Halfen
62
7
10
 463.5
20
-73.5
30
0
0
VERTEX
8
Halfen
62
7
10
 463.5
20
-60
30
0
0
SEQEND
8
Halfen
0
POLYLINE
8
Halfen
62
7
66
1
10
0.0
20
0.0
30
0.0
70
1
0
VERTEX
8
Halfen
62
7
10
 647.5
20
-58.75
30
0
0
VERTEX
8
Halfen
62
7
10
 647.5
20
 58.75
30
0
0
VERTEX
8
Halfen
62
7
10
 639
20
 67.25
30
0
0
VERTEX
8
Halfen
62
7
10
 639
20
 58
30
0
0
VERTEX
8
Halfen
62
7
10
 502
20
 58
30
0
0
VERTEX
8
Halfen
62
7
10
 502
20
-58
30
0
0
VERTEX
8
Halfen
62
7
10
 639
20
-58
30
0
0
VERTEX
8
Halfen
62
7
10
 639
20
-67.25
30
0
0
SEQEND
8
Halfen
0
POLYLINE
8
Halfen
62
7
66
1
10
0.0
20
0.0
30
0.0
70
1
0
VERTEX
8
Halfen
62
7
10
 498
20
-58
30
0
0
VERTEX
8
Halfen
62
7
10
 498
20
 58
30
0
0
VERTEX
8
Halfen
62
7
10
 461
20
 58
30
0
0
VERTEX
8
Halfen
62
7
10
 461
20
 67.25
30
0
0
VERTEX
8
Halfen
62
7
10
 452.5
20
 58.75
30
0
0
VERTEX
8
Halfen
62
7
10
 452.5
20
-58.75
30
0
0
VERTEX
8
Halfen
62
7
10
 461
20
-67.25
30
0
0
VERTEX
8
Halfen
62
7
10
 461
20
-58
30
0
0
SEQEND
8
Halfen
0
POLYLINE
8
Halfen
62
7
66
1
10
0.0
20
0.0
30
0.0
70
1
0
VERTEX
8
Halfen
62
7
10
 497
20
-775
30
0
0
VERTEX
8
Halfen
62
7
10
 497
20
-160
30
0
0
VERTEX
8
Halfen
62
7
10
 485
20
-160
30
0
0
VERTEX
8
Halfen
62
7
10
 485
20
-775
30
0
0
SEQEND
8
Halfen
0
POLYLINE
8
Halfen
62
7
66
1
10
0.0
20
0.0
30
0.0
70
1
0
VERTEX
8
Halfen
62
7
10
 496.25
20
-160
30
0
0
VERTEX
8
Halfen
62
7
10
 496.25
20
-62
30
0
0
VERTEX
8
Halfen
62
7
10
 485.75
20
-62
30
0
0
VERTEX
8
Halfen
62
7
10
 485.75
20
-160
30
0
0
SEQEND
8
Halfen
0
POLYLINE
8
Halfen
62
7
66
1
10
0.0
20
0.0
30
0.0
70
1
0
VERTEX
8
Halfen
62
7
10
 497
20
-62
30
0
0
VERTEX
8
Halfen
62
7
10
 497
20
-60
30
0
0
VERTEX
8
Halfen
62
7
10
 485
20
-60
30
0
0
VERTEX
8
Halfen
62
7
10
 485
20
-62
30
0
0
SEQEND
8
Halfen
0
POLYLINE
8
Halfen
62
7
66
1
10
0.0
20
0.0
30
0.0
70
1
0
VERTEX
8
Halfen
62
7
10
 496.25
20
-60
30
0
0
VERTEX
8
Halfen
62
7
10
 496.25
20
 60
30
0
0
VERTEX
8
Halfen
62
7
10
 485.75
20
 60
30
0
0
VERTEX
8
Halfen
62
7
10
 485.75
20
-60
30
0
0
SEQEND
8
Halfen
0
POLYLINE
8
Halfen
62
7
66
1
10
0.0
20
0.0
30
0.0
70
1
0
VERTEX
8
Halfen
62
7
10
 497
20
 60
30
0
0
VERTEX
8
Halfen
62
7
10
 497
20
 62
30
0
0
VERTEX
8
Halfen
62
7
10
 485
20
 62
30
0
0
VERTEX
8
Halfen
62
7
10
 485
20
 60
30
0
0
SEQEND
8
Halfen
0
POLYLINE
8
Halfen
62
7
66
1
10
0.0
20
0.0
30
0.0
70
1
0
VERTEX
8
Halfen
62
7
10
 496.25
20
 62
30
0
0
VERTEX
8
Halfen
62
7
10
 496.25
20
 160
30
0
0
VERTEX
8
Halfen
62
7
10
 485.75
20
 160
30
0
0
VERTEX
8
Halfen
62
7
10
 485.75
20
 62
30
0
0
SEQEND
8
Halfen
0
POLYLINE
8
Halfen
62
7
66
1
10
0.0
20
0.0
30
0.0
70
1
0
VERTEX
8
Halfen
62
7
10
 497
20
 160
30
0
0
VERTEX
8
Halfen
62
7
10
 497
20
 775
30
0
0
VERTEX
8
Halfen
62
7
10
 485
20
 775
30
0
0
VERTEX
8
Halfen
62
7
10
 485
20
 160
30
0
0
SEQEND
8
Halfen
0
POLYLINE
8
Halfen
62
7
66
1
10
0.0
20
0.0
30
0.0
70
1
0
VERTEX
8
Halfen
62
7
10
 620
20
-775
30
0
0
VERTEX
8
Halfen
62
7
10
 620
20
-160
30
0
0
VERTEX
8
Halfen
62
7
10
 608
20
-160
30
0
0
VERTEX
8
Halfen
62
7
10
 608
20
-775
30
0
0
SEQEND
8
Halfen
0
POLYLINE
8
Halfen
62
7
66
1
10
0.0
20
0.0
30
0.0
70
1
0
VERTEX
8
Halfen
62
7
10
 619.25
20
-160
30
0
0
VERTEX
8
Halfen
62
7
10
 619.25
20
-62
30
0
0
VERTEX
8
Halfen
62
7
10
 608.75
20
-62
30
0
0
VERTEX
8
Halfen
62
7
10
 608.75
20
-160
30
0
0
SEQEND
8
Halfen
0
POLYLINE
8
Halfen
62
7
66
1
10
0.0
20
0.0
30
0.0
70
1
0
VERTEX
8
Halfen
62
7
10
 620
20
-62
30
0
0
VERTEX
8
Halfen
62
7
10
 620
20
-60
30
0
0
VERTEX
8
Halfen
62
7
10
 608
20
-60
30
0
0
VERTEX
8
Halfen
62
7
10
 608
20
-62
30
0
0
SEQEND
8
Halfen
0
POLYLINE
8
Halfen
62
7
66
1
10
0.0
20
0.0
30
0.0
70
1
0
VERTEX
8
Halfen
62
7
10
 619.25
20
-60
30
0
0
VERTEX
8
Halfen
62
7
10
 619.25
20
 60
30
0
0
VERTEX
8
Halfen
62
7
10
 608.75
20
 60
30
0
0
VERTEX
8
Halfen
62
7
10
 608.75
20
-60
30
0
0
SEQEND
8
Halfen
0
POLYLINE
8
Halfen
62
7
66
1
10
0.0
20
0.0
30
0.0
70
1
0
VERTEX
8
Halfen
62
7
10
 620
20
 60
30
0
0
VERTEX
8
Halfen
62
7
10
 620
20
 62
30
0
0
VERTEX
8
Halfen
62
7
10
 608
20
 62
30
0
0
VERTEX
8
Halfen
62
7
10
 608
20
 60
30
0
0
SEQEND
8
Halfen
0
POLYLINE
8
Halfen
62
7
66
1
10
0.0
20
0.0
30
0.0
70
1
0
VERTEX
8
Halfen
62
7
10
 619.25
20
 62
30
0
0
VERTEX
8
Halfen
62
7
10
 619.25
20
 160
30
0
0
VERTEX
8
Halfen
62
7
10
 608.75
20
 160
30
0
0
VERTEX
8
Halfen
62
7
10
 608.75
20
 62
30
0
0
SEQEND
8
Halfen
0
POLYLINE
8
Halfen
62
7
66
1
10
0.0
20
0.0
30
0.0
70
1
0
VERTEX
8
Halfen
62
7
10
 620
20
 160
30
0
0
VERTEX
8
Halfen
62
7
10
 620
20
 775
30
0
0
VERTEX
8
Halfen
62
7
10
 608
20
 775
30
0
0
VERTEX
8
Halfen
62
7
10
 608
20
 160
30
0
0
SEQEND
8
Halfen
0
POLYLINE
8
Halfen
62
7
66
1
10
0.0
20
0.0
30
0.0
70
1
0
VERTEX
8
Halfen
62
7
10
 620
20
-704.762
30
0
0
VERTEX
8
Halfen
62
7
10
 620
20
-94.821
30
0
0
VERTEX
8
Halfen
62
7
10
 619.392
20
-87.875
30
0
0
VERTEX
8
Halfen
62
7
10
 617.588
20
-81.14
30
0
0
VERTEX
8
Halfen
62
7
10
 614.641
20
-74.821
30
0
0
VERTEX
8
Halfen
62
7
10
 529.019
20
 73.481
30
0
0
VERTEX
8
Halfen
62
7
10
 526.809
20
 78.22
30
0
0
VERTEX
8
Halfen
62
7
10
 525.456
20
 83.271
30
0
0
VERTEX
8
Halfen
62
7
10
 525
20
 88.481
30
0
0
VERTEX
8
Halfen
62
7
10
 525
20
 159.422
30
0
0
VERTEX
8
Halfen
62
7
10
 515
20
 159.422
30
0
0
VERTEX
8
Halfen
62
7
10
 515
20
 88.481
30
0
0
VERTEX
8
Halfen
62
7
10
 515.608
20
 81.535
30
0
0
VERTEX
8
Halfen
62
7
10
 517.412
20
 74.8
30
0
0
VERTEX
8
Halfen
62
7
10
 520.359
20
 68.481
30
0
0
VERTEX
8
Halfen
62
7
10
 605.981
20
-79.821
30
0
0
VERTEX
8
Halfen
62
7
10
 608.191
20
-84.56
30
0
0
VERTEX
8
Halfen
62
7
10
 609.544
20
-89.611
30
0
0
VERTEX
8
Halfen
62
7
10
 610
20
-94.821
30
0
0
VERTEX
8
Halfen
62
7
10
 610
20
-704.762
30
0
0
SEQEND
8
Halfen
0
POLYLINE
8
Halfen
62
7
66
1
10
0.0
20
0.0
30
0.0
70
1
0
VERTEX
8
Halfen
62
7
10
 525
20
 159.422
30
0
0
VERTEX
8
Halfen
62
7
10
 525
20
 698.422
30
0
0
VERTEX
8
Halfen
62
7
10
 515
20
 698.422
30
0
0
VERTEX
8
Halfen
62
7
10
 515
20
 159.422
30
0
0
SEQEND
8
Halfen
0
POLYLINE
8
Halfen
62
7
66
1
10
0.0
20
0.0
30
0.0
70
1
0
VERTEX
8
Halfen
62
7
10
 515
20
-698.422
30
0
0
VERTEX
8
Halfen
62
7
10
 515
20
-88.481
30
0
0
VERTEX
8
Halfen
62
7
10
 515.608
20
-81.535
30
0
0
VERTEX
8
Halfen
62
7
10
 517.412
20
-74.8
30
0
0
VERTEX
8
Halfen
62
7
10
 520.359
20
-68.481
30
0
0
VERTEX
8
Halfen
62
7
10
 605.981
20
 79.82
30
0
0
VERTEX
8
Halfen
62
7
10
 608.191
20
 84.56
30
0
0
VERTEX
8
Halfen
62
7
10
 609.544
20
 89.611
30
0
0
VERTEX
8
Halfen
62
7
10
 610
20
 94.82
30
0
0
VERTEX
8
Halfen
62
7
10
 610
20
 165.762
30
0
0
VERTEX
8
Halfen
62
7
10
 620
20
 165.762
30
0
0
VERTEX
8
Halfen
62
7
10
 620
20
 94.82
30
0
0
VERTEX
8
Halfen
62
7
10
 619.392
20
 87.875
30
0
0
VERTEX
8
Halfen
62
7
10
 617.588
20
 81.14
30
0
0
VERTEX
8
Halfen
62
7
10
 614.641
20
 74.82
30
0
0
VERTEX
8
Halfen
62
7
10
 529.019
20
-73.481
30
0
0
VERTEX
8
Halfen
62
7
10
 526.809
20
-78.22
30
0
0
VERTEX
8
Halfen
62
7
10
 525.456
20
-83.271
30
0
0
VERTEX
8
Halfen
62
7
10
 525
20
-88.481
30
0
0
VERTEX
8
Halfen
62
7
10
 525
20
-698.422
30
0
0
SEQEND
8
Halfen
0
POLYLINE
8
Halfen
62
7
66
1
10
0.0
20
0.0
30
0.0
70
1
0
VERTEX
8
Halfen
62
7
10
 610
20
 165.762
30
0
0
VERTEX
8
Halfen
62
7
10
 610
20
 704.762
30
0
0
VERTEX
8
Halfen
62
7
10
 620
20
 704.762
30
0
0
VERTEX
8
Halfen
62
7
10
 620
20
 165.762
30
0
0
SEQEND
8
Halfen
0
ENDSEC
0
EOF
