  0
SECTION
  2
HEADER
  9
$ACADVER
  1
AC1032
  9
$ACADMAINTVER
 90
4
  9
$DWGCODEPAGE
  3
ANSI_1252
  9
$LASTSAVEDBY
  1
ezdxf
  9
$REQUIREDVERSIONS
160
0
  9
$INSBASE
 10
0.0
 20
0.0
 30
0.0
  9
$EXTMIN
 10
1e+20
 20
1e+20
 30
1e+20
  9
$EXTMAX
 10
-1e+20
 20
-1e+20
 30
-1e+20
  9
$LIMMIN
 10
0.0
 20
0.0
  9
$LIMMAX
 10
420.0
 20
297.0
  9
$ORTHOMODE
 70
0
  9
$REGENMODE
 70
1
  9
$FILLMODE
 70
1
  9
$QTEXTMODE
 70
0
  9
$MIRRTEXT
 70
1
  9
$LTSCALE
 40
1.0
  9
$ATTMODE
 70
1
  9
$TEXTSIZE
 40
2.5
  9
$TRACEWID
 40
1.0
  9
$TEXTSTYLE
  7
Standard
  9
$CLAYER
  8
0
  9
$CELTYPE
  6
ByLayer
  9
$CECOLOR
 62
256
  9
$CELTSCALE
 40
1.0
  9
$DISPSILH
 70
0
  9
$DIMSCALE
 40
1.0
  9
$DIMASZ
 40
2.5
  9
$DIMEXO
 40
0.625
  9
$DIMDLI
 40
3.75
  9
$DIMRND
 40
0.0
  9
$DIMDLE
 40
0.0
  9
$DIMEXE
 40
1.25
  9
$DIMTP
 40
0.0
  9
$DIMTM
 40
0.0
  9
$DIMTXT
 40
2.5
  9
$DIMCEN
 40
2.5
  9
$DIMTSZ
 40
0.0
  9
$DIMTOL
 70
0
  9
$DIMLIM
 70
0
  9
$DIMTIH
 70
0
  9
$DIMTOH
 70
0
  9
$DIMSE1
 70
0
  9
$DIMSE2
 70
0
  9
$DIMTAD
 70
1
  9
$DIMZIN
 70
8
  9
$DIMBLK
  1

  9
$DIMASO
 70
1
  9
$DIMSHO
 70
1
  9
$DIMPOST
  1

  9
$DIMAPOST
  1

  9
$DIMALT
 70
0
  9
$DIMALTD
 70
3
  9
$DIMALTF
 40
0.03937007874
  9
$DIMLFAC
 40
1.0
  9
$DIMTOFL
 70
1
  9
$DIMTVP
 40
0.0
  9
$DIMTIX
 70
0
  9
$DIMSOXD
 70
0
  9
$DIMSAH
 70
0
  9
$DIMBLK1
  1

  9
$DIMBLK2
  1

  9
$DIMSTYLE
  2
ISO-25
  9
$DIMCLRD
 70
0
  9
$DIMCLRE
 70
0
  9
$DIMCLRT
 70
0
  9
$DIMTFAC
 40
1.0
  9
$DIMGAP
 40
0.625
  9
$DIMJUST
 70
0
  9
$DIMSD1
 70
0
  9
$DIMSD2
 70
0
  9
$DIMTOLJ
 70
0
  9
$DIMTZIN
 70
8
  9
$DIMALTZ
 70
0
  9
$DIMALTTZ
 70
0
  9
$DIMUPT
 70
0
  9
$DIMDEC
 70
2
  9
$DIMTDEC
 70
2
  9
$DIMALTU
 70
2
  9
$DIMALTTD
 70
3
  9
$DIMTXSTY
  7
Standard
  9
$DIMAUNIT
 70
0
  9
$DIMADEC
 70
0
  9
$DIMALTRND
 40
0.0
  9
$DIMAZIN
 70
0
  9
$DIMDSEP
 70
44
  9
$DIMATFIT
 70
3
  9
$DIMFRAC
 70
0
  9
$DIMLDRBLK
  1

  9
$DIMLUNIT
 70
2
  9
$DIMLWD
 70
-2
  9
$DIMLWE
 70
-2
  9
$DIMTMOVE
 70
0
  9
$DIMFXL
 40
1.0
  9
$DIMFXLON
 70
0
  9
$DIMJOGANG
 40
0.785398163397
  9
$DIMTFILL
 70
0
  9
$DIMTFILLCLR
 70
0
  9
$DIMARCSYM
 70
0
  9
$DIMLTYPE
  6

  9
$DIMLTEX1
  6

  9
$DIMLTEX2
  6

  9
$DIMTXTDIRECTION
 70
0
  9
$LUNITS
 70
2
  9
$LUPREC
 70
4
  9
$SKETCHINC
 40
1.0
  9
$FILLETRAD
 40
10.0
  9
$AUNITS
 70
0
  9
$AUPREC
 70
2
  9
$MENU
  1
.
  9
$ELEVATION
 40
0.0
  9
$PELEVATION
 40
0.0
  9
$THICKNESS
 40
0.0
  9
$LIMCHECK
 70
0
  9
$CHAMFERA
 40
0.0
  9
$CHAMFERB
 40
0.0
  9
$CHAMFERC
 40
0.0
  9
$CHAMFERD
 40
0.0
  9
$SKPOLY
 70
0
  9
$TDCREATE
 40
2461085.24599537
  9
$TDUCREATE
 40
2458532.153996898
  9
$TDUPDATE
 40
2461085.24599537
  9
$TDUUPDATE
 40
2458532.1544311
  9
$TDINDWG
 40
0.0
  9
$TDUSRTIMER
 40
0.0
  9
$USRTIMER
 70
1
  9
$ANGBASE
 50
0.0
  9
$ANGDIR
 70
0
  9
$PDMODE
 70
0
  9
$PDSIZE
 40
0.0
  9
$PLINEWID
 40
0.0
  9
$SPLFRAME
 70
0
  9
$SPLINETYPE
 70
6
  9
$SPLINESEGS
 70
8
  9
$HANDSEED
  5
88
  9
$SURFTAB1
 70
6
  9
$SURFTAB2
 70
6
  9
$SURFTYPE
 70
6
  9
$SURFU
 70
6
  9
$SURFV
 70
6
  9
$UCSBASE
  2

  9
$UCSNAME
  2

  9
$UCSORG
 10
0.0
 20
0.0
 30
0.0
  9
$UCSXDIR
 10
1.0
 20
0.0
 30
0.0
  9
$UCSYDIR
 10
0.0
 20
1.0
 30
0.0
  9
$UCSORTHOREF
  2

  9
$UCSORTHOVIEW
 70
0
  9
$UCSORGTOP
 10
0.0
 20
0.0
 30
0.0
  9
$UCSORGBOTTOM
 10
0.0
 20
0.0
 30
0.0
  9
$UCSORGLEFT
 10
0.0
 20
0.0
 30
0.0
  9
$UCSORGRIGHT
 10
0.0
 20
0.0
 30
0.0
  9
$UCSORGFRONT
 10
0.0
 20
0.0
 30
0.0
  9
$UCSORGBACK
 10
0.0
 20
0.0
 30
0.0
  9
$PUCSBASE
  2

  9
$PUCSNAME
  2

  9
$PUCSORG
 10
0.0
 20
0.0
 30
0.0
  9
$PUCSXDIR
 10
1.0
 20
0.0
 30
0.0
  9
$PUCSYDIR
 10
0.0
 20
1.0
 30
0.0
  9
$PUCSORTHOREF
  2

  9
$PUCSORTHOVIEW
 70
0
  9
$PUCSORGTOP
 10
0.0
 20
0.0
 30
0.0
  9
$PUCSORGBOTTOM
 10
0.0
 20
0.0
 30
0.0
  9
$PUCSORGLEFT
 10
0.0
 20
0.0
 30
0.0
  9
$PUCSORGRIGHT
 10
0.0
 20
0.0
 30
0.0
  9
$PUCSORGFRONT
 10
0.0
 20
0.0
 30
0.0
  9
$PUCSORGBACK
 10
0.0
 20
0.0
 30
0.0
  9
$USERI1
 70
0
  9
$USERI2
 70
0
  9
$USERI3
 70
0
  9
$USERI4
 70
0
  9
$USERI5
 70
0
  9
$USERR1
 40
0.0
  9
$USERR2
 40
0.0
  9
$USERR3
 40
0.0
  9
$USERR4
 40
0.0
  9
$USERR5
 40
0.0
  9
$WORLDVIEW
 70
1
  9
$SHADEDGE
 70
3
  9
$SHADEDIF
 70
70
  9
$TILEMODE
 70
1
  9
$MAXACTVP
 70
64
  9
$PINSBASE
 10
0.0
 20
0.0
 30
0.0
  9
$PLIMCHECK
 70
0
  9
$PEXTMIN
 10
1e+20
 20
1e+20
 30
1e+20
  9
$PEXTMAX
 10
-1e+20
 20
-1e+20
 30
-1e+20
  9
$PLIMMIN
 10
0.0
 20
0.0
  9
$PLIMMAX
 10
420.0
 20
297.0
  9
$UNITMODE
 70
0
  9
$VISRETAIN
 70
1
  9
$PLINEGEN
 70
0
  9
$PSLTSCALE
 70
1
  9
$TREEDEPTH
 70
3020
  9
$CMLSTYLE
  2
Standard
  9
$CMLJUST
 70
0
  9
$CMLSCALE
 40
20.0
  9
$PROXYGRAPHICS
 70
1
  9
$MEASUREMENT
 70
1
  9
$CELWEIGHT
370
-1
  9
$ENDCAPS
280
0
  9
$JOINSTYLE
280
0
  9
$LWDISPLAY
290
0
  9
$INSUNITS
 70
6
  9
$HYPERLINKBASE
  1

  9
$STYLESHEET
  1

  9
$XEDIT
290
1
  9
$CEPSNTYPE
380
0
  9
$PSTYLEMODE
290
1
  9
$FINGERPRINTGUID
  2
{125C909E-0942-4E76-A153-3643BF114608}
  9
$VERSIONGUID
  2
{D35377C3-EF6B-47F5-A059-E85AE582CF91}
  9
$EXTNAMES
290
1
  9
$PSVPSCALE
 40
0.0
  9
$OLESTARTUP
290
0
  9
$SORTENTS
280
127
  9
$INDEXCTL
280
0
  9
$HIDETEXT
280
1
  9
$XCLIPFRAME
280
1
  9
$HALOGAP
280
0
  9
$OBSCOLOR
 70
257
  9
$OBSLTYPE
280
0
  9
$INTERSECTIONDISPLAY
280
0
  9
$INTERSECTIONCOLOR
 70
257
  9
$DIMASSOC
280
2
  9
$PROJECTNAME
  1

  9
$CAMERADISPLAY
290
0
  9
$LENSLENGTH
 40
50.0
  9
$CAMERAHEIGHT
 40
0.0
  9
$STEPSPERSEC
 40
24.0
  9
$STEPSIZE
 40
100.0
  9
$3DDWFPREC
 40
2.0
  9
$PSOLWIDTH
 40
0.005
  9
$PSOLHEIGHT
 40
0.08
  9
$LOFTANG1
 40
1.570796326795
  9
$LOFTANG2
 40
1.570796326795
  9
$LOFTMAG1
 40
0.0
  9
$LOFTMAG2
 40
0.0
  9
$LOFTPARAM
 70
7
  9
$LOFTNORMALS
280
1
  9
$LATITUDE
 40
37.795
  9
$LONGITUDE
 40
-122.394
  9
$NORTHDIRECTION
 40
0.0
  9
$TIMEZONE
 70
-8000
  9
$LIGHTGLYPHDISPLAY
280
1
  9
$TILEMODELIGHTSYNCH
280
1
  9
$CMATERIAL
347
20
  9
$SOLIDHIST
280
0
  9
$SHOWHIST
280
1
  9
$DWFFRAME
280
2
  9
$DGNFRAME
280
2
  9
$REALWORLDSCALE
290
1
  9
$INTERFERECOLOR
 62
256
  9
$CSHADOW
280
0
  9
$SHADOWPLANELOCATION
 40
0.0
  0
ENDSEC
  0
SECTION
  2
CLASSES
  0
CLASS
  1
ACDBDICTIONARYWDFLT
  2
AcDbDictionaryWithDefault
  3
ObjectDBX Classes
 90
0
 91
0
280
0
281
0
  0
CLASS
  1
SUN
  2
AcDbSun
  3
SCENEOE
 90
1153
 91
0
280
0
281
0
  0
CLASS
  1
VISUALSTYLE
  2
AcDbVisualStyle
  3
ObjectDBX Classes
 90
4095
 91
0
280
0
281
0
  0
CLASS
  1
MATERIAL
  2
AcDbMaterial
  3
ObjectDBX Classes
 90
1153
 91
0
280
0
281
0
  0
CLASS
  1
SCALE
  2
AcDbScale
  3
ObjectDBX Classes
 90
1153
 91
0
280
0
281
0
  0
CLASS
  1
TABLESTYLE
  2
AcDbTableStyle
  3
ObjectDBX Classes
 90
4095
 91
0
280
0
281
0
  0
CLASS
  1
MLEADERSTYLE
  2
AcDbMLeaderStyle
  3
ACDB_MLEADERSTYLE_CLASS
 90
4095
 91
0
280
0
281
0
  0
CLASS
  1
DICTIONARYVAR
  2
AcDbDictionaryVar
  3
ObjectDBX Classes
 90
0
 91
0
280
0
281
0
  0
CLASS
  1
CELLSTYLEMAP
  2
AcDbCellStyleMap
  3
ObjectDBX Classes
 90
1152
 91
0
280
0
281
0
  0
CLASS
  1
MENTALRAYRENDERSETTINGS
  2
AcDbMentalRayRenderSettings
  3
SCENEOE
 90
1024
 91
0
280
0
281
0
  0
CLASS
  1
ACDBDETAILVIEWSTYLE
  2
AcDbDetailViewStyle
  3
ObjectDBX Classes
 90
1025
 91
0
280
0
281
0
  0
CLASS
  1
ACDBSECTIONVIEWSTYLE
  2
AcDbSectionViewStyle
  3
ObjectDBX Classes
 90
1025
 91
0
280
0
281
0
  0
CLASS
  1
RASTERVARIABLES
  2
AcDbRasterVariables
  3
ISM
 90
0
 91
0
280
0
281
0
  0
CLASS
  1
LAYOUT
  2
AcDbLayout
  3
ObjectDBX Classes
 90
0
 91
0
280
0
281
0
  0
CLASS
  1
ACDBPLACEHOLDER
  2
AcDbPlaceHolder
  3
ObjectDBX Classes
 90
0
 91
0
280
0
281
0
  0
ENDSEC
  0
SECTION
  2
TABLES
  0
TABLE
  2
VPORT
  5
8
330
0
100
AcDbSymbolTable
 70
1
  0
VPORT
  5
23
330
8
100
AcDbSymbolTableRecord
100
AcDbViewportTableRecord
  2
*Active
 70
0
 10
0.0
 20
0.0
 11
1.0
 21
1.0
 12
0.0
 22
0.0
 13
0.0
 23
0.0
 14
0.5
 24
0.5
 15
0.5
 25
0.5
 16
0.0
 26
0.0
 36
1.0
 17
0.0
 27
0.0
 37
0.0
 40
1000.0
 41
1.34
 42
50.0
 43
0.0
 44
0.0
 50
0.0
 51
0.0
 71
0
 72
1000
 73
1
 74
3
 75
0
 76
0
 77
0
 78
0
281
0
 65
0
146
0.0
  0
ENDTAB
  0
TABLE
  2
LTYPE
  5
2
330
0
100
AcDbSymbolTable
 70
3
  0
LTYPE
  5
24
330
2
100
AcDbSymbolTableRecord
100
AcDbLinetypeTableRecord
  2
ByBlock
 70
0
  3

 72
65
 73
0
 40
0.0
  0
LTYPE
  5
25
330
2
100
AcDbSymbolTableRecord
100
AcDbLinetypeTableRecord
  2
ByLayer
 70
0
  3

 72
65
 73
0
 40
0.0
  0
LTYPE
  5
26
330
2
100
AcDbSymbolTableRecord
100
AcDbLinetypeTableRecord
  2
Continuous
 70
0
  3

 72
65
 73
0
 40
0.0
  0
ENDTAB
  0
TABLE
  2
LAYER
  5
1
330
0
100
AcDbSymbolTable
 70
3
  0
LAYER
  5
27
330
1
100
AcDbSymbolTableRecord
100
AcDbLayerTableRecord
  2
0
 70
0
 62
7
  6
Continuous
370
-3
390
13
347
21
  0
LAYER
  5
28
330
1
100
AcDbSymbolTableRecord
100
AcDbLayerTableRecord
  2
Defpoints
 70
0
 62
7
  6
Continuous
290
0
370
-3
390
13
347
21
  0
LAYER
  5
82
330
1
100
AcDbSymbolTableRecord
100
AcDbLayerTableRecord
  2
A-DETL-GENF
 70
0
 62
92
  6
Continuous
370
18
390
13
347
21
348
0
  0
ENDTAB
  0
TABLE
  2
STYLE
  5
5
330
0
100
AcDbSymbolTable
 70
1
  0
STYLE
  5
29
330
5
100
AcDbSymbolTableRecord
100
AcDbTextStyleTableRecord
  2
Standard
 70
0
 40
0.0
 41
1.0
 50
0.0
 71
0
 42
2.5
  3
txt
  4

  0
ENDTAB
  0
TABLE
  2
VIEW
  5
7
330
0
100
AcDbSymbolTable
 70
0
  0
ENDTAB
  0
TABLE
  2
UCS
  5
6
330
0
100
AcDbSymbolTable
 70
0
  0
ENDTAB
  0
TABLE
  2
APPID
  5
3
330
0
100
AcDbSymbolTable
 70
3
  0
APPID
  5
2A
330
3
100
AcDbSymbolTableRecord
100
AcDbRegAppTableRecord
  2
ACAD
 70
0
  0
APPID
  5
85
330
3
100
AcDbSymbolTableRecord
100
AcDbRegAppTableRecord
  2
HATCHBACKGROUNDCOLOR
 70
0
  0
APPID
  5
86
330
3
100
AcDbSymbolTableRecord
100
AcDbRegAppTableRecord
  2
EZDXF
 70
0
  0
ENDTAB
  0
TABLE
  2
DIMSTYLE
  5
4
330
0
100
AcDbSymbolTable
 70
1
100
AcDbDimStyleTable
  0
DIMSTYLE
105
2B
330
4
100
AcDbSymbolTableRecord
100
AcDbDimStyleTableRecord
  2
Standard
 70
0
 40
1.0
 41
2.5
 42
0.625
 43
3.75
 44
1.25
 45
0.0
 46
0.0
 47
0.0
 48
0.0
 49
2.5
140
2.5
141
2.5
142
0.0
143
0.03937007874
144
1.0
145
0.0
146
1.0
147
0.625
148
0.0
 69
0
 70
0
 71
0
 72
0
 73
0
 74
0
 75
0
 76
0
 77
1
 78
8
 79
3
170
0
171
3
172
1
173
0
174
0
175
0
176
0
177
0
178
0
179
2
271
2
272
2
273
2
274
3
275
0
276
0
277
2
278
44
279
0
280
0
281
0
282
0
283
0
284
8
285
0
286
0
288
0
289
3
290
0
371
-2
372
-2
  0
ENDTAB
  0
TABLE
  2
BLOCK_RECORD
  5
9
330
0
100
AcDbSymbolTable
 70
3
  0
BLOCK_RECORD
  5
17
330
9
100
AcDbSymbolTableRecord
100
AcDbBlockTableRecord
  2
*Model_Space
340
1A
 70
0
280
1
281
0
  0
BLOCK_RECORD
  5
1B
330
9
100
AcDbSymbolTableRecord
100
AcDbBlockTableRecord
  2
*Paper_Space
340
1E
 70
0
280
1
281
0
  0
BLOCK_RECORD
  5
2F
330
9
100
AcDbSymbolTableRecord
100
AcDbBlockTableRecord
  2
47 dakpan F12U hor - standaard-1591648-00_0 Basismaterialen
340
0
 70
0
280
1
281
0
  0
ENDTAB
  0
ENDSEC
  0
SECTION
  2
BLOCKS
  0
BLOCK
  5
18
330
17
100
AcDbEntity
  8
0
100
AcDbBlockBegin
  2
*Model_Space
 70
0
 10
0.0
 20
0.0
 30
0.0
  3
*Model_Space
  1

  0
ENDBLK
  5
19
330
17
100
AcDbEntity
  8
0
100
AcDbBlockEnd
  0
BLOCK
  5
1C
330
1B
100
AcDbEntity
  8
0
100
AcDbBlockBegin
  2
*Paper_Space
 70
0
 10
0.0
 20
0.0
 30
0.0
  3
*Paper_Space
  1

  0
ENDBLK
  5
1D
330
1B
100
AcDbEntity
  8
0
100
AcDbBlockEnd
  0
BLOCK
  5
30
330
2F
100
AcDbEntity
  8
0
100
AcDbBlockBegin
  2
47 dakpan F12U hor - standaard-1591648-00_0 Basismaterialen
 70
0
 10
0.0
 20
0.0
 30
0.0
  3
47 dakpan F12U hor - standaard-1591648-00_0 Basismaterialen
  1

  0
HATCH
  5
32
330
2F
100
AcDbEntity
  8
A-DETL-GENF
370
13
100
AcDbHatch
 10
0.0
 20
0.0
 30
0.0
210
0.0
220
0.0
230
1.0
  2
FP_110
 70
0
 71
0
 91
1
 92
1
 93
203
 72
1
 10
-62.17572356272074
 20
-0.0037841802451567
 11
-61.76803891684157
 21
0.041837307697341
 72
1
 10
-61.76803891684157
 20
0.041837307697341
 11
-61.38052259707351
 21
0.1764448578701376
 72
1
 10
-61.38052259707351
 20
0.1764448578701376
 11
-61.03234519419815
 21
0.3933793797257408
 72
1
 10
-61.03234519419815
 20
0.3933793797257408
 11
-60.74073118668217
 21
0.6819090337777483
 72
1
 10
-60.74073118668217
 20
0.6819090337777483
 11
-60.01270025133973
 21
1.798974023588442
 72
1
 10
-60.01270025133973
 20
1.798974023588442
 11
-59.32959835372745
 21
2.419944318048192
 72
1
 10
-59.32959835372745
 20
2.419944318048192
 11
-58.51363727907224
 21
2.851731110087422
 72
1
 10
-58.51363727907224
 20
2.851731110087422
 11
-57.61598448187218
 21
3.067257824945596
 72
1
 10
-57.61598448187218
 20
3.067257824945596
 11
-56.69530020005471
 21
3.053344726549346
 72
1
 10
-56.69530020005471
 20
3.053344726549346
 11
-53.42194866180423
 21
2.70853604916715
 72
1
 10
-53.42194866180423
 20
2.70853604916715
 11
-50.13225717316843
 21
2.600585937501557
 72
1
 10
-50.13225717316843
 20
2.600585937501557
 11
30.7929208460565
 21
2.600585937473403
 72
1
 10
30.7929208460565
 20
2.600585937473403
 11
37.17701683407059
 21
2.899877076754006
 72
1
 10
37.17701683407059
 20
2.899877076754006
 11
43.45262385663811
 21
3.777577727271932
 72
1
 10
43.45262385663811
 20
3.777577727271932
 11
49.61974191376339
 21
5.233687889025015
 72
1
 10
49.61974191376339
 20
5.233687889025015
 11
55.67837091867411
 21
7.268207785157517
 72
1
 10
55.67837091867411
 20
7.268207785157517
 11
56.5337000271807
 21
7.487389115561843
 72
1
 10
56.5337000271807
 20
7.487389115561843
 11
57.41661296112198
 21
7.497037459370886
 72
1
 10
57.41661296112198
 20
7.497037459370886
 11
58.27652760189568
 21
7.296600062568933
 72
1
 10
58.27652760189568
 20
7.296600062568933
 11
59.06417940407341
 21
6.897559991927408
 72
1
 10
59.06417940407341
 20
6.897559991927408
 11
59.73444376325084
 21
6.322778269641156
 72
1
 10
59.73444376325084
 20
6.322778269641156
 11
60.24892120649052
 21
5.605184164420751
 72
1
 10
60.24892120649052
 20
5.605184164420751
 11
60.57813729974037
 21
4.785888672303315
 72
1
 10
60.57813729974037
 20
4.785888672303315
 11
61.665929936234
 21
0.9376070466100316
 72
1
 10
61.665929936234
 20
0.9376070466100316
 11
61.93942218120904
 21
0.5678695491790848
 72
1
 10
61.93942218120904
 20
0.5678695491790848
 11
62.2959068727805
 21
0.2773140643886734
 72
1
 10
62.2959068727805
 20
0.2773140643886734
 11
62.71320729319534
 21
0.0840158900817244
 72
1
 10
62.71320729319534
 20
0.0840158900817244
 11
63.16536341145945
 21
0.0
 72
1
 10
63.16536341145945
 20
0.0
 11
68.11224204493533
 21
0.0496018439031218
 72
1
 10
68.11224204493533
 20
0.0496018439031218
 11
68.51373466916819
 21
0.1957334234021744
 72
1
 10
68.51373466916819
 20
0.1957334234021744
 11
68.87070467229836
 21
0.4305166909286357
 72
1
 10
68.87070467229836
 20
0.4305166909286357
 11
69.16390765714863
 21
0.741294385621211
 72
1
 10
69.16390765714863
 20
0.741294385621211
 11
69.37753693228238
 21
1.111312356330876
 72
1
 10
69.37753693228238
 20
1.111312356330876
 11
69.50007562153804
 21
1.520622790958344
 72
1
 10
69.50007562153804
 20
1.520622790958344
 11
70.68265565146991
 21
8.227442073404303
 72
1
 10
70.68265565146991
 20
8.227442073404303
 11
72.05975485382817
 21
12.97927088636702
 72
1
 10
72.05975485382817
 20
12.97927088636702
 11
74.41933551228173
 21
17.32767960647722
 72
1
 10
74.41933551228173
 20
17.32767960647722
 11
77.65265365143352
 21
21.07226677415049
 72
1
 10
77.65265365143352
 20
21.07226677415049
 11
81.00583402340729
 21
24.42631025601642
 72
1
 10
81.00583402340729
 20
24.42631025601642
 11
84.11953738859958
 21
28.00377830459092
 72
1
 10
84.11953738859958
 20
28.00377830459092
 11
89.40846104830602
 21
33.30058129207472
 72
1
 10
89.40846104830602
 20
33.30058129207472
 11
95.66892095085566
 21
37.40368708829074
 72
1
 10
95.66892095085566
 20
37.40368708829074
 11
102.6362364167072
 21
40.13962395996119
 72
1
 10
102.6362364167072
 20
40.13962395996119
 11
110.0158422180254
 21
41.39272156338924
 72
1
 10
110.0158422180254
 20
41.39272156338924
 11
110.91016643422
 21
41.34207088249158
 72
1
 10
110.91016643422
 20
41.34207088249158
 11
111.7658770850991
 21
41.07723021884603
 72
1
 10
111.7658770850991
 20
41.07723021884603
 11
112.5324575308787
 21
40.61383436721778
 72
1
 10
112.5324575308787
 20
40.61383436721778
 11
113.1646529085781
 21
39.97923977256056
 72
1
 10
113.1646529085781
 20
39.97923977256056
 11
113.6251417402666
 21
39.2109095499131
 72
1
 10
113.6251417402666
 20
39.2109095499131
 11
113.8867391958197
 21
38.35420185977577
 72
1
 10
113.8867391958197
 20
38.35420185977577
 11
116.6816488041972
 21
22.7787002238037
 72
1
 10
116.6816488041972
 20
22.7787002238037
 11
116.8868458392118
 21
22.41572716355579
 72
1
 10
116.8868458392118
 20
22.41572716355579
 11
117.1683566690062
 21
22.10814478701817
 72
1
 10
117.1683566690062
 20
22.10814478701817
 11
117.5117832674564
 21
21.87168456389414
 72
1
 10
117.5117832674564
 20
21.87168456389414
 11
117.8995608924404
 21
21.71844038225663
 72
1
 10
117.8995608924404
 20
21.71844038225663
 11
118.3118564441993
 21
21.65624999999995
 72
1
 10
118.3118564441993
 20
21.65624999999995
 11
121.4289578014913
 21
21.70591031507013
 72
1
 10
121.4289578014913
 20
21.70591031507013
 11
121.8309200659648
 21
21.8522140357845
 72
1
 10
121.8309200659648
 20
21.8522140357845
 11
122.1883069364038
 21
22.08727374223174
 72
1
 10
122.1883069364038
 20
22.08727374223174
 11
122.4818512510396
 21
22.3984170791408
 72
1
 10
122.4818512510396
 20
22.3984170791408
 11
122.6957276780906
 21
22.76886992999779
 72
1
 10
122.6957276780906
 20
22.76886992999779
 11
122.818405868341
 21
23.17866073192961
 72
1
 10
122.818405868341
 20
23.17866073192961
 11
124.7682275269031
 21
34.23745642665882
 72
1
 10
124.7682275269031
 20
34.23745642665882
 11
125.0221630078601
 21
35.07692202901492
 72
1
 10
125.0221630078601
 20
35.07692202901492
 11
125.4671928543735
 21
35.83265621623852
 72
1
 10
125.4671928543735
 20
35.83265621623852
 11
126.078132951126
 21
36.46189220074822
 72
1
 10
126.078132951126
 20
36.46189220074822
 11
126.8204103678716
 21
36.92902169308812
 72
1
 10
126.8204103678716
 20
36.92902169308812
 11
127.6520198319265
 21
37.20760996513575
 72
1
 10
127.6520198319265
 20
37.20760996513575
 11
128.5259007948756
 21
37.28189178401442
 72
1
 10
128.5259007948756
 20
37.28189178401442
 11
129.3926005759438
 21
37.14766356224033
 72
1
 10
129.3926005759438
 20
37.14766356224033
 11
130.2030728729009
 21
36.81252123306146
 72
1
 10
130.2030728729009
 20
36.81252123306146
 11
136.2383996741552
 21
32.56871685401614
 72
1
 10
136.2383996741552
 20
32.56871685401614
 11
141.2940353022963
 21
27.19511530561022
 72
1
 10
141.2940353022963
 20
27.19511530561022
 11
145.4921394419933
 21
20.38916056251035
 72
1
 10
145.4921394419933
 20
20.38916056251035
 11
145.9300286658342
 21
19.95223388012206
 72
1
 10
145.9300286658342
 20
19.95223388012206
 11
146.4540611209289
 21
19.62353662710292
 72
1
 10
146.4540611209289
 20
19.62353662710292
 11
147.0380328964569
 21
19.4195051012892
 72
1
 10
147.0380328964569
 20
19.4195051012892
 11
147.6527428538492
 21
19.35034179687582
 72
1
 10
147.6527428538492
 20
19.35034179687582
 11
152.4645854578412
 21
19.40048597280495
 72
1
 10
152.4645854578412
 20
19.40048597280495
 11
152.8873110640882
 21
19.54840406216028
 72
1
 10
152.8873110640882
 20
19.54840406216028
 11
153.2665231846754
 21
19.78667883408339
 72
1
 10
153.2665231846754
 20
19.78667883408339
 11
153.5832065399011
 21
20.10336219622863
 72
1
 10
153.5832065399011
 20
20.10336219622863
 11
153.8214813035359
 21
20.48257432202439
 72
1
 10
153.8214813035359
 20
20.48257432202439
 11
153.9693993836479
 21
20.90529993150486
 72
1
 10
153.9693993836479
 20
20.90529993150486
 11
154.021252534228
 21
21.35034179687537
 72
1
 10
154.021252534228
 20
21.35034179687537
 11
154.0212525342324
 21
24.88073730468646
 72
1
 10
154.0212525342324
 20
24.88073730468646
 11
148.7879207813188
 21
32.19952378327255
 72
1
 10
148.7879207813188
 20
32.19952378327255
 11
142.5510432609024
 21
38.6762275090312
 72
1
 10
142.5510432609024
 20
38.6762275090312
 11
138.4373278675818
 21
41.95251910935037
 72
1
 10
138.4373278675818
 20
41.95251910935037
 11
134.034874996027
 21
44.70014149126829
 72
1
 10
134.034874996027
 20
44.70014149126829
 11
129.3114341114713
 21
46.93213089163665
 72
1
 10
129.3114341114713
 20
46.93213089163665
 11
124.363756818189
 21
48.60937859988732
 72
1
 10
124.363756818189
 20
48.60937859988732
 11
119.2542134909869
 21
49.69806471657252
 72
1
 10
119.2542134909869
 20
49.69806471657252
 11
114.0536972835279
 21
50.19535904515891
 72
1
 10
114.0536972835279
 20
50.19535904515891
 11
108.8306743920514
 21
50.08265434982932
 72
1
 10
108.8306743920514
 20
50.08265434982932
 11
103.6547960636909
 21
49.37346184897452
 72
1
 10
103.6547960636909
 20
49.37346184897452
 11
98.5969712594139
 21
48.06537977110544
 72
1
 10
98.5969712594139
 20
48.06537977110544
 11
93.72189303397936
 21
46.18753985003155
 72
1
 10
93.72189303397936
 20
46.18753985003155
 11
89.09912972114768
 21
43.75387392661476
 72
1
 10
89.09912972114768
 20
43.75387392661476
 11
84.78496444494338
 21
40.80757990821726
 72
1
 10
84.78496444494338
 20
40.80757990821726
 11
80.86880384505096
 21
37.40247988094332
 72
1
 10
80.86880384505096
 20
37.40247988094332
 11
72.81547330051033
 21
28.56725739911097
 72
1
 10
72.81547330051033
 20
28.56725739911097
 11
67.85427373533682
 21
24.19294247066768
 72
1
 10
67.85427373533682
 20
24.19294247066768
 11
62.40253205555069
 21
20.3761290400333
 72
1
 10
62.40253205555069
 20
20.3761290400333
 11
56.56439315080515
 21
17.18149506469838
 72
1
 10
56.56439315080515
 20
17.18149506469838
 11
50.40538840920574
 21
14.66034201492258
 72
1
 10
50.40538840920574
 20
14.66034201492258
 11
44.00664337225114
 21
12.83124003322576
 72
1
 10
44.00664337225114
 20
12.83124003322576
 11
37.48399854465773
 21
11.73431858128553
 72
1
 10
37.48399854465773
 20
11.73431858128553
 11
30.79884042485194
 21
11.35461425781222
 72
1
 10
30.79884042485194
 20
11.35461425781222
 11
-50.28117162212694
 21
11.35461425775375
 72
1
 10
-50.28117162212693
 20
11.35461425775375
 11
-58.07185593615078
 21
12.18713382316599
 72
1
 10
-58.07185593615078
 20
12.18713382316599
 11
-65.51070279886795
 21
14.64709485143323
 72
1
 10
-65.51070279886795
 20
14.64709485143323
 11
-72.2617641965609
 21
18.62340229832587
 72
1
 10
-72.2617641965609
 20
18.62340229832587
 11
-78.53734013667494
 21
24.39578308404923
 72
1
 10
-78.53734013667494
 20
24.39578308404923
 11
-79.15237737746772
 21
24.71227918370344
 72
1
 10
-79.15237737746772
 20
24.71227918370344
 11
-79.82674075244728
 21
24.86614479762063
 72
1
 10
-79.82674075244728
 20
24.86614479762063
 11
-80.96379725663307
 21
24.85319352063319
 72
1
 10
-80.96379725663307
 20
24.85319352063319
 11
-81.36081138735503
 21
24.6391060102428
 72
1
 10
-81.36081138735503
 20
24.6391060102428
 11
-81.50814856827706
 21
24.46607257753662
 72
1
 10
-81.50814856827706
 20
24.46607257753662
 11
-81.65621884772905
 21
24.04001052944192
 72
1
 10
-81.65621884772905
 20
24.04001052944192
 11
-82.00997468107693
 21
20.60135604463586
 72
1
 10
-82.00997468107693
 20
20.60135604463586
 11
-82.20099724699409
 21
20.20321234820679
 72
1
 10
-82.20099724699409
 20
20.20321234820679
 11
-82.48121337835106
 21
19.86191051196585
 72
1
 10
-82.48121337835106
 20
19.86191051196585
 11
-82.8345486867075
 21
19.59702906005727
 72
1
 10
-82.8345486867075
 20
19.59702906005727
 11
-83.24073435679222
 21
19.4237627185259
 72
1
 10
-83.24073435679222
 20
19.4237627185259
 11
-83.67646985196215
 21
19.35205078124879
 72
1
 10
-83.67646985196215
 20
19.35205078124879
 11
-100.574211941754
 21
19.35205078124446
 72
1
 10
-100.574211941754
 20
19.35205078124446
 11
-101.1701709165921
 21
19.4304970730212
 72
1
 10
-101.1701709165921
 20
19.4304970730212
 11
-101.7255296995781
 21
19.66049173066237
 72
1
 10
-101.7255296995781
 20
19.66049173066237
 11
-102.2024540200907
 21
20.02636618029398
 72
1
 10
-102.2024540200907
 20
20.02636618029398
 11
-102.5684530193085
 21
20.5031949262347
 72
1
 10
-102.5684530193085
 20
20.5031949262347
 11
-102.7985925607295
 21
21.05849366255124
 72
1
 10
-102.7985925607295
 20
21.05849366255124
 11
-105.5861934392911
 21
31.33193745770316
 72
1
 10
-105.5861934392911
 20
31.33193745770316
 11
-105.7323935153707
 21
31.52240565830917
 72
1
 10
-105.7323935153707
 20
31.52240565830917
 11
-105.9229032099767
 21
31.66855166048087
 72
1
 10
-105.9229032099767
 20
31.66855166048087
 11
-106.144743335241
 21
31.76041871938082
 72
1
 10
-106.144743335241
 20
31.76041871938082
 11
-106.3828002001462
 21
31.79333496093777
 72
1
 10
-106.3828002001462
 20
31.79333496093777
 11
-109.3309493969875
 21
31.76531182167975
 72
1
 10
-109.3309493969875
 20
31.76531182167975
 11
-109.7279615912485
 21
31.55124956174751
 72
1
 10
-109.7279615912485
 20
31.55124956174751
 11
-109.8753043919391
 21
31.37823011537483
 72
1
 10
-109.8753043919391
 20
31.37823011537483
 11
-110.0234000742887
 21
30.9521913936155
 72
1
 10
-110.0234000742887
 20
30.9521913936155
 11
-111.0965453170996
 21
18.69006347923962
 72
1
 10
-111.0965453170996
 20
18.69006347923962
 11
-111.2151694362641
 21
18.13444945127112
 72
1
 10
-111.2151694362641
 20
18.13444945127112
 11
-111.4662198844176
 21
17.62479044545714
 72
1
 10
-111.4662198844176
 20
17.62479044545714
 11
-111.8344143951807
 21
17.19211108153312
 72
1
 10
-111.8344143951807
 20
17.19211108153312
 11
-112.297339757856
 21
16.86274997527836
 72
1
 10
-112.297339757856
 20
16.86274997527836
 11
-112.8268161832574
 21
16.65675642035438
 72
1
 10
-112.8268161832574
 20
16.65675642035438
 11
-113.3906127001459
 21
16.58520507812436
 72
1
 10
-113.3906127001459
 20
16.58520507812436
 11
-122.6093872998827
 21
16.58520507799225
 72
1
 10
-122.6093872998827
 20
16.58520507799225
 11
-123.1410512089462
 21
16.64738063505941
 72
1
 10
-123.1410512089462
 20
16.64738063505941
 11
-123.6440229782718
 21
16.8305518974302
 72
1
 10
-123.6440229782718
 20
16.8305518974302
 11
-124.0911588878413
 21
17.124833718935
 72
1
 10
-124.0911588878413
 20
17.124833718935
 11
-124.4583284940043
 21
17.51434468463754
 72
1
 10
-124.4583284940043
 20
17.51434468463754
 11
-124.7257168695741
 21
17.97806417819639
 72
1
 10
-124.7257168695741
 20
17.97806417819639
 11
-124.8788939497928
 21
18.49096679486865
 72
1
 10
-124.8788939497928
 20
18.49096679486865
 11
-127.1168766267212
 21
30.95797946547712
 72
1
 10
-127.1168766267212
 20
30.95797946547712
 11
-127.277201155552
 21
31.23559567031521
 72
1
 10
-127.277201155552
 20
31.23559567031521
 11
-127.497221513661
 21
31.46876031976369
 72
1
 10
-127.497221513661
 20
31.46876031976369
 11
-127.765078655446
 21
31.64490589401531
 72
1
 10
-127.765078655446
 20
31.64490589401531
 11
-128.0663351439162
 21
31.75453818801388
 72
1
 10
-128.0663351439162
 20
31.75453818801388
 11
-128.384753325147
 21
31.79357910156186
 72
1
 10
-128.384753325147
 20
31.79357910156186
 11
-133.1249958555708
 21
31.79357910157702
 72
1
 10
-133.1249958555708
 20
31.79357910157702
 11
-133.656386644632
 21
31.73147805154221
 72
1
 10
-133.656386644632
 20
31.73147805154221
 11
-134.1591387774515
 21
31.54852176152408
 72
1
 10
-134.1591387774515
 20
31.54852176152408
 11
-134.6061570431232
 21
31.25457043686915
 72
1
 10
-134.6061570431232
 20
31.25457043686915
 11
-134.9733499393022
 21
30.86546622446398
 72
1
 10
-134.9733499393022
 20
30.86546622446398
 11
-135.2409280542267
 21
30.40217941963908
 72
1
 10
-135.2409280542267
 20
30.40217941963908
 11
-135.3944705763292
 21
29.88967829482721
 72
1
 10
-135.3944705763292
 20
29.88967829482721
 11
-136.4413939501464
 21
23.95971679687451
 72
1
 10
-136.4413939501464
 20
23.95971679687451
 11
-133.6485472705022
 21
8.352294922133103
 72
1
 10
-133.6485472705022
 20
8.352294922133103
 11
-133.4950413936152
 21
7.839700905251652
 72
1
 10
-133.4950413936152
 20
7.839700905251652
 11
-133.227467935197
 21
7.376320796986783
 72
1
 10
-133.227467935197
 20
7.376320796986783
 11
-132.8602499951774
 21
6.987132327337838
 72
1
 10
-132.8602499951774
 20
6.987132327337838
 11
-132.41318184264
 21
6.69311405006951
 72
1
 10
-132.41318184264
 20
6.69311405006951
 11
-131.9103619388844
 21
6.510114528837942
 72
1
 10
-131.9103619388844
 20
6.510114528837942
 11
-131.3788939501465
 21
6.447753906250404
 72
1
 10
-131.3788939501465
 20
6.447753906250404
 11
-126.7631187631794
 21
6.482275001556916
 72
1
 10
-126.7631187631794
 20
6.482275001556916
 11
-126.4713579782738
 21
6.584115120394204
 72
1
 10
-126.4713579782738
 20
6.584115120394204
 11
-126.2094897777577
 21
6.748190746172753
 72
1
 10
-126.2094897777577
 20
6.748190746172753
 11
-125.6349147136201
 21
7.322538822942641
 72
1
 10
-125.6349147136201
 20
7.322538822942641
 11
-125.2104169692968
 21
7.593096111712594
 72
1
 10
-125.2104169692968
 20
7.593096111712594
 11
-124.737323060023
 21
7.765089525700727
 72
1
 10
-124.737323060023
 20
7.765089525700727
 11
-124.2381795224669
 21
7.830322265625051
 72
1
 10
-124.2381795224669
 20
7.830322265625051
 11
-104.9199424316487
 21
7.78492686253465
 72
1
 10
-104.9199424316487
 20
7.78492686253465
 11
-104.4827416840125
 21
7.650529272109583
 72
1
 10
-104.4827416840125
 20
7.650529272109583
 11
-104.0806997877167
 21
7.432424894188307
 72
1
 10
-104.0806997877167
 20
7.432424894188307
 11
-103.3582655688688
 21
6.832321811277966
 72
1
 10
-103.3582655688688
 20
6.832321811277966
 11
-102.9311853573835
 21
6.609357192638117
 72
1
 10
-102.9311853573835
 20
6.609357192638117
 11
-102.4670815997263
 21
6.480057423375552
 72
1
 10
-102.4670815997263
 20
6.480057423375552
 11
-101.9862368461031
 21
6.450073242187926
 72
1
 10
-101.9862368461031
 20
6.450073242187926
 11
-71.38668892633916
 21
6.450073242270224
 72
1
 10
-71.38668892633916
 20
6.450073242270224
 11
-70.92157296903697
 21
6.390446939801456
 72
1
 10
-70.92157296903697
 20
6.390446939801456
 11
-70.48653821218628
 21
6.21542434118532
 72
1
 10
-70.48653821218628
 20
6.21542434118532
 11
-70.10972036588795
 21
5.936324967489162
 72
1
 10
-70.10972036588795
 20
5.936324967489162
 11
-69.81548998330929
 21
5.571199466244377
 72
1
 10
-69.81548998330929
 20
5.571199466244377
 11
-69.62287630432763
 21
5.143662192594121
 72
1
 10
-69.62287630432763
 20
5.143662192594121
 11
-68.608965669855
 21
1.362987217698008
 72
1
 10
-68.608965669855
 20
1.362987217698008
 11
-68.42471453216734
 21
0.9184144097733906
 72
1
 10
-68.42471453216734
 20
0.9184144097733906
 11
-68.13169281648939
 21
0.5366661452976417
 72
1
 10
-68.13169281648939
 20
0.5366661452976417
 11
-67.74986345873869
 21
0.2437501081063601
 72
1
 10
-67.74986345873869
 20
0.2437501081063601
 11
-67.30523966745231
 21
0.0596220344540996
 72
1
 10
-67.30523966745231
 20
0.0596220344540996
 11
-66.82811270014675
 21
-0.003784179688563
 72
1
 10
-66.82811270014675
 20
-0.003784179688563
 11
-62.17572356272074
 21
-0.0037841802451567
 97
0
 75
0
 76
2
 52
0.0
 41
1.0
 77
0
 78
1
 53
45.0
 43
8158.023
 44
1089.207
 45
-10.60660171779821
 46
10.60660171779821
 79
0
 98
1
 10
0.0
 20
0.0
  0
LINE
  5
33
330
2F
100
AcDbEntity
  8
A-DETL-GENF
370
35
100
AcDbLine
 10
-83.67646985194399
 20
19.35205078124987
 30
0.0
 11
-100.5742119417345
 21
19.35205078124987
 31
0.0
  0
ARC
  5
34
330
2F
100
AcDbEntity
  8
A-DETL-GENF
370
35
100
AcDbCircle
 10
-100.5742119417345
 20
21.6550335749448
 30
0.0
 40
2.302982793701437
100
AcDbArc
 50
195.0124703238317
 51
270.0000000000001
  0
LINE
  5
35
330
2F
100
AcDbEntity
  8
A-DETL-GENF
370
35
100
AcDbLine
 10
-102.7985925607154
 20
21.0584936625524
 30
0.0
 11
-105.4942635536225
 21
31.11012338121482
 31
0.0
  0
ARC
  5
36
330
2F
100
AcDbEntity
  8
A-DETL-GENF
370
35
100
AcDbCircle
 10
-106.3827741079105
 20
30.87184041664849
 30
0.0
 40
0.9199076305964107
100
AcDbArc
 50
15.01247032383043
 51
90.00162513495945
  0
LINE
  5
37
330
2F
100
AcDbEntity
  8
A-DETL-GENF
370
35
100
AcDbLine
 10
-106.3828002001289
 20
31.79333496093751
 30
0.0
 11
-109.1054270402563
 21
31.79333496093751
 31
0.0
  0
ARC
  5
38
330
2F
100
AcDbEntity
  8
A-DETL-GENF
370
35
100
AcDbCircle
 10
-109.1054270402563
 20
30.87185310311937
 30
0.0
 40
0.9214818582874184
100
AcDbArc
 50
90.00000000000101
 51
174.9983860213376
  0
LINE
  5
39
330
2F
100
AcDbEntity
  8
A-DETL-GENF
370
35
100
AcDbLine
 10
-110.0234000742712
 20
30.95219139361532
 30
0.0
 11
-111.0965453170851
 21
18.6900634792271
 31
0.0
  0
ARC
  5
3A
330
2F
100
AcDbEntity
  8
A-DETL-GENF
370
35
100
AcDbCircle
 10
-113.3906117706842
 20
18.88937863674625
 30
0.0
 40
2.302708714871577
100
AcDbArc
 50
269.9999768736397
 51
355.0344455787859
  0
LINE
  5
3B
330
2F
100
AcDbEntity
  8
A-DETL-GENF
370
35
100
AcDbLine
 10
-113.3906127001307
 20
16.5852050781249
 30
0.0
 11
-122.6093872998676
 21
16.5852050781249
 31
0.0
  0
ARC
  5
3C
330
2F
100
AcDbEntity
  8
A-DETL-GENF
370
35
100
AcDbCircle
 10
-122.6093872998676
 20
18.88942498064988
 30
0.0
 40
2.304219902656244
100
AcDbArc
 50
189.9579527032389
 51
270.0000000000001
  0
LINE
  5
3D
330
2F
100
AcDbEntity
  8
A-DETL-GENF
370
35
100
AcDbLine
 10
-124.8788939497764
 20
18.49096679486813
 30
0.0
 11
-127.0248893815805
 21
30.65087515344647
 31
0.0
  0
ARC
  5
3E
330
2F
100
AcDbEntity
  8
A-DETL-GENF
370
35
100
AcDbCircle
 10
-128.3847352846131
 20
30.41088789286759
 30
0.0
 40
1.38086015412514
100
AcDbArc
 50
10.00857041936522
 51
90.00074855186286
  0
LINE
  5
3F
330
2F
100
AcDbEntity
  8
A-DETL-GENF
370
35
100
AcDbLine
 10
-128.3847533251297
 20
31.79357910156241
 30
0.0
 11
-133.1249958555535
 21
31.79357910156241
 31
0.0
  0
ARC
  5
40
330
2F
100
AcDbEntity
  8
A-DETL-GENF
370
35
100
AcDbCircle
 10
-133.1249958555535
 20
29.48900686850031
 30
0.0
 40
2.304572233076456
100
AcDbArc
 50
89.99999999999996
 51
169.9877138641574
  0
LINE
  5
41
330
2F
100
AcDbEntity
  8
A-DETL-GENF
370
35
100
AcDbLine
 10
-135.3944705763157
 20
29.88967829482663
 30
0.0
 11
-136.4413939501291
 21
23.95971679687475
 31
0.0
  0
LINE
  5
42
330
2F
100
AcDbEntity
  8
A-DETL-GENF
370
35
100
AcDbLine
 10
-136.4413939501291
 20
23.95971679687475
 30
0.0
 11
-133.648547270488
 21
8.352294922134366
 31
0.0
  0
ARC
  5
43
330
2F
100
AcDbEntity
  8
A-DETL-GENF
370
35
100
AcDbCircle
 10
-131.3788903951825
 20
8.75270406061984
 30
0.0
 40
2.304706013747573
100
AcDbArc
 50
190.0050775665595
 51
269.9999116227947
  0
LINE
  5
44
330
2F
100
AcDbEntity
  8
A-DETL-GENF
370
35
100
AcDbLine
 10
-131.3788939501291
 20
6.447753906249862
 30
0.0
 11
-127.0702084230082
 21
6.447753906249862
 31
0.0
  0
ARC
  5
45
330
2F
100
AcDbEntity
  8
A-DETL-GENF
370
35
100
AcDbCircle
 10
-127.0702084230082
 20
7.830904642492758
 30
0.0
 40
1.383150739287813
100
AcDbArc
 50
269.9999999999996
 51
321.3112506841302
  0
ARC
  5
46
330
2F
100
AcDbEntity
  8
A-DETL-GENF
370
35
100
AcDbCircle
 10
-124.1907237898904
 20
5.524930630680377
 30
0.0
 40
2.305880013579286
100
AcDbArc
 50
91.17924833438695
 51
141.3112506841306
  0
LINE
  5
47
330
2F
100
AcDbEntity
  8
A-DETL-GENF
370
35
100
AcDbLine
 10
-124.23817952245
 20
7.83032226562478
 30
0.0
 11
-105.3750758881794
 21
7.83032226562478
 31
0.0
  0
ARC
  5
48
330
2F
100
AcDbEntity
  8
A-DETL-GENF
370
35
100
AcDbCircle
 10
-105.3750758881794
 20
5.526044917301778
 30
0.0
 40
2.304277350010793
100
AcDbArc
 50
44.43286049222659
 51
90.00000000000044
  0
ARC
  5
49
330
2F
100
AcDbEntity
  8
A-DETL-GENF
370
35
100
AcDbCircle
 10
-102.0840154147838
 20
8.752589088632002
 30
0.0
 40
2.304591042164477
100
AcDbArc
 50
224.4328604922249
 51
272.4316598338966
  0
LINE
  5
4A
330
2F
100
AcDbEntity
  8
A-DETL-GENF
370
35
100
AcDbLine
 10
-101.986236846088
 20
6.450073242187385
 30
0.0
 11
-71.38668892632617
 21
6.450073242187385
 31
0.0
  0
ARC
  5
4B
330
2F
100
AcDbEntity
  8
A-DETL-GENF
370
35
100
AcDbCircle
 10
-71.38668892632617
 20
4.606187737214883
 30
0.0
 40
1.84388550505594
100
AcDbArc
 50
16.94718997690535
 51
90.00000000000018
  0
LINE
  5
4C
330
2F
100
AcDbEntity
  8
A-DETL-GENF
370
35
100
AcDbLine
 10
-69.622876304314
 20
5.143662192594829
 30
0.0
 11
-68.60896552153723
 21
1.362987257469495
 31
0.0
  0
ARC
  5
4D
330
2F
100
AcDbEntity
  8
A-DETL-GENF
370
35
100
AcDbCircle
 10
-66.82814870020307
 20
1.840571130265766
 30
0.0
 40
1.843744958742433
100
AcDbArc
 50
195.0124703238346
 51
270.0011187296804
  0
LINE
  5
4E
330
2F
100
AcDbEntity
  8
A-DETL-GENF
370
35
100
AcDbLine
 10
-66.82811270012942
 20
-0.0037841796874801
 30
0.0
 11
-62.17572356270341
 21
-0.0037841796874801
 31
0.0
  0
ARC
  5
4F
330
2F
100
AcDbEntity
  8
A-DETL-GENF
370
35
100
AcDbCircle
 10
-62.17572356270342
 20
1.840610843155675
 30
0.0
 40
1.84439502340164
100
AcDbArc
 50
269.9999999999996
 51
333.8505541625112
  0
ARC
  5
50
330
2F
100
AcDbEntity
  8
A-DETL-GENF
370
35
100
AcDbCircle
 10
-57.21090947351923
 20
-0.5969416196335076
 30
0.0
 40
3.686521847491075
100
AcDbArc
 50
81.92285889959217
 51
153.8505541625126
  0
ARC
  5
51
330
2F
100
AcDbEntity
  8
A-DETL-GENF
370
35
100
AcDbCircle
 10
-50.2815242680646
 20
48.23109887326055
 30
0.0
 40
45.63075707728549
100
AcDbArc
 50
261.9198533021186
 51
270.1874259898179
  0
LINE
  5
52
330
2F
100
AcDbEntity
  8
A-DETL-GENF
370
35
100
AcDbLine
 10
-50.13225717315396
 20
2.600585937499933
 30
0.0
 11
1.019543549870383
 21
2.600585937499933
 31
0.0
  0
LINE
  5
53
330
2F
100
AcDbEntity
  8
A-DETL-GENF
370
35
100
AcDbLine
 10
1.019543549870383
 20
2.600585937499933
 30
0.0
 11
30.79292084607166
 21
2.600585937499933
 31
0.0
  0
ARC
  5
54
330
2F
100
AcDbEntity
  8
A-DETL-GENF
370
35
100
AcDbCircle
 10
30.79292084607166
 20
71.27285340384957
 30
0.0
 40
68.67226746637608
100
AcDbArc
 50
269.9999999999993
 51
291.2464266195442
  0
ARC
  5
55
330
2F
100
AcDbEntity
  8
A-DETL-GENF
370
35
100
AcDbCircle
 10
57.01517682013521
 20
3.829982326782478
 30
0.0
 40
3.688962499232804
100
AcDbArc
 50
15.01821240892303
 51
111.2464266195454
  0
LINE
  5
56
330
2F
100
AcDbEntity
  8
A-DETL-GENF
370
35
100
AcDbLine
 10
60.57813729975568
 20
4.785888672304123
 30
0.0
 11
61.49244394089953
 21
1.363525389114268
 31
0.0
  0
ARC
  5
57
330
2F
100
AcDbEntity
  8
A-DETL-GENF
370
35
100
AcDbCircle
 10
63.27350313294932
 20
1.840698813919543
 30
0.0
 40
1.843872642816043
100
AcDbArc
 50
194.9982006911953
 51
266.6377791282751
  0
LINE
  5
58
330
2F
100
AcDbEntity
  8
A-DETL-GENF
370
35
100
AcDbLine
 10
63.16536341147475
 20
0.0
 30
0.0
 11
67.68787142927584
 21
0.0
 31
0.0
  0
ARC
  5
59
330
2F
100
AcDbEntity
  8
A-DETL-GENF
370
35
100
AcDbCircle
 10
67.68787142927584
 20
1.840159750390705
 30
0.0
 40
1.840159785435018
100
AcDbArc
 50
269.9999999999996
 51
350.0001083707557
  0
LINE
  5
5A
330
2F
100
AcDbEntity
  8
A-DETL-GENF
370
35
100
AcDbLine
 10
69.50007562155461
 20
1.520622790958636
 30
0.0
 11
70.6826557333819
 21
8.227442058964058
 31
0.0
  0
ARC
  5
5B
330
2F
100
AcDbEntity
  8
A-DETL-GENF
370
35
100
AcDbCircle
 10
93.37811980894296
 20
4.225663664176404
 30
0.0
 40
23.04557058870635
100
AcDbArc
 50
133.0286464118228
 51
170.0001083707562
  0
ARC
  5
5C
330
2F
100
AcDbEntity
  8
A-DETL-GENF
370
35
100
AcDbCircle
 10
30.78890290163905
 20
71.27713836397105
 30
0.0
 40
68.67852841820937
100
AcDbArc
 50
313.0286464118217
 51
320.9435528793743
  0
ARC
  5
5D
330
2F
100
AcDbEntity
  8
A-DETL-GENF
370
35
100
AcDbCircle
 10
112.3880895672115
 20
5.066206896542977
 30
0.0
 40
36.40389023680346
100
AcDbArc
 50
93.73630785418001
 51
140.9435528793761
  0
ARC
  5
5E
330
2F
100
AcDbEntity
  8
A-DETL-GENF
370
35
100
AcDbCircle
 10
110.256084150712
 20
37.71386737736117
 30
0.0
 40
3.686690156259362
100
AcDbArc
 50
10.00232699908262
 51
93.73630785418015
  0
LINE
  5
5F
330
2F
100
AcDbEntity
  8
A-DETL-GENF
370
35
100
AcDbLine
 10
113.8867391958352
 20
38.35420185977639
 30
0.0
 11
116.5632604813072
 21
23.17849951148885
 31
0.0
  0
ARC
  5
60
330
2F
100
AcDbEntity
  8
A-DETL-GENF
370
35
100
AcDbCircle
 10
118.3789364580249
 20
23.49872820915784
 30
0.0
 40
1.84369891236996
100
AcDbArc
 50
190.0023269990807
 51
267.9149252018799
  0
LINE
  5
61
330
2F
100
AcDbEntity
  8
A-DETL-GENF
370
35
100
AcDbLine
 10
118.3118564442169
 20
21.65624999999995
 30
0.0
 11
121.0040904185914
 21
21.65624999999995
 31
0.0
  0
ARC
  5
62
330
2F
100
AcDbEntity
  8
A-DETL-GENF
370
35
100
AcDbCircle
 10
121.0040904185914
 20
23.4985501360744
 30
0.0
 40
1.842300144091316
100
AcDbArc
 50
269.9999999999984
 51
350.0007154976358
  0
LINE
  5
63
330
2F
100
AcDbEntity
  8
A-DETL-GENF
370
35
100
AcDbLine
 10
122.8184058683563
 20
23.17866073192956
 30
0.0
 11
124.7682275300892
 21
34.23745642610122
 31
0.0
  0
ARC
  5
64
330
2F
100
AcDbEntity
  8
A-DETL-GENF
370
35
100
AcDbCircle
 10
128.3990017463529
 20
33.59729972084054
 30
0.0
 40
3.686776646410816
100
AcDbArc
 50
60.70307696831444
 51
170.0007154976365
  0
ARC
  5
65
330
2F
100
AcDbEntity
  8
A-DETL-GENF
370
35
100
AcDbCircle
 10
112.3905039973134
 20
5.066902230889699
 30
0.0
 40
36.40153754691151
100
AcDbArc
 50
25.80434472799106
 51
60.70307696831474
  0
ARC
  5
66
330
2F
100
AcDbEntity
  8
A-DETL-GENF
370
35
100
AcDbCircle
 10
147.6527428538643
 20
22.11663345989218
 30
0.0
 40
2.766291690060254
100
AcDbArc
 50
205.8043447279895
 51
269.9999999999997
  0
LINE
  5
67
330
2F
100
AcDbEntity
  8
A-DETL-GENF
370
35
100
AcDbLine
 10
147.6527428538643
 20
19.35034179687501
 30
0.0
 11
152.0195435935817
 21
19.35034179687501
 31
0.0
  0
ARC
  5
68
330
2F
100
AcDbEntity
  8
A-DETL-GENF
370
35
100
AcDbCircle
 10
152.0195435935817
 20
21.35034175316353
 30
0.0
 40
1.999999956288591
100
AcDbArc
 50
269.9999999999987
 51
1.2522393126e-06
  0
LINE
  5
69
330
2F
100
AcDbEntity
  8
A-DETL-GENF
370
35
100
AcDbLine
 10
154.0212525342454
 20
21.35034179687483
 30
0.0
 11
154.0212525342454
 21
24.88073730468689
 31
0.0
  0
ARC
  5
6A
330
2F
100
AcDbEntity
  8
A-DETL-GENF
370
35
100
AcDbCircle
 10
101.3050989220191
 20
-7.283737352597286
 30
0.0
 40
61.75391713605632
100
AcDbArc
 50
31.38922740854845
 51
48.09966600017814
  0
ARC
  5
6B
330
2F
100
AcDbEntity
  8
A-DETL-GENF
370
35
100
AcDbCircle
 10
112.3886116444569
 20
5.066515828204169
 30
0.0
 40
45.15955048808565
100
AcDbArc
 50
48.09418095163318
 51
140.9439949776608
  0
ARC
  5
6C
330
2F
100
AcDbEntity
  8
A-DETL-GENF
370
35
100
AcDbCircle
 10
30.79364030302483
 20
71.27298280402658
 30
0.0
 40
59.91678185780861
100
AcDbArc
 50
270.0049726474928
 51
320.9439949776612
  0
LINE
  5
6D
330
2F
100
AcDbEntity
  8
A-DETL-GENF
370
35
100
AcDbLine
 10
30.79884042486927
 20
11.35461425781249
 30
0.0
 11
1.019543549870383
 21
11.35461425781249
 31
0.0
  0
LINE
  5
6E
330
2F
100
AcDbEntity
  8
A-DETL-GENF
370
35
100
AcDbLine
 10
1.019543549870383
 20
11.35461425781249
 30
0.0
 11
-50.28117162211177
 21
11.35461425781249
 31
0.0
  0
ARC
  5
6F
330
2F
100
AcDbEntity
  8
A-DETL-GENF
370
35
100
AcDbCircle
 10
-50.28117162211173
 20
48.22332789407425
 30
0.0
 40
36.86871363632105
100
AcDbArc
 50
221.2037465080716
 51
270.0
  0
ARC
  5
70
330
2F
100
AcDbEntity
  8
A-DETL-GENF
370
35
100
AcDbCircle
 10
-80.0995136390577
 20
22.11589847562789
 30
0.0
 40
2.763740197506586
100
AcDbArc
 50
41.20374650807113
 51
84.33585668889847
  0
LINE
  5
71
330
2F
100
AcDbEntity
  8
A-DETL-GENF
370
35
100
AcDbLine
 10
-79.82674075243014
 20
24.86614479762064
 30
0.0
 11
-80.738268950127
 21
24.88122558593731
 31
0.0
  0
ARC
  5
72
330
2F
100
AcDbEntity
  8
A-DETL-GENF
370
35
100
AcDbCircle
 10
-80.73823954025534
 20
23.95974372811923
 30
0.0
 40
0.9214818582874
100
AcDbArc
 50
90.00182864318546
 51
175.0028481481206
  0
LINE
  5
73
330
2F
100
AcDbEntity
  8
A-DETL-GENF
370
35
100
AcDbLine
 10
-81.65621884771149
 20
24.04001052944123
 30
0.0
 11
-81.91910363089013
 21
21.03350239371816
 31
0.0
  0
ARC
  5
74
330
2F
100
AcDbEntity
  8
A-DETL-GENF
370
35
100
AcDbCircle
 10
-83.75586049623773
 20
21.19410579424171
 30
0.0
 40
1.843765046118867
100
AcDbArc
 50
272.4678608889941
 51
355.00284814812
  0
ARC
  5
75
330
2F
100
AcDbEntity
  8
A-DETL-GENF
100
AcDbCircle
 10
-50.28118411794355
 20
78.22336393756723
 30
0.0
 40
36.86838346885616
100
AcDbArc
 50
221.20468671442
 51
269.9999999999997
  0
LINE
  5
76
330
2F
100
AcDbEntity
  8
A-DETL-GENF
100
AcDbLine
 10
-50.28118411794354
 20
41.35498046874993
 30
0.0
 11
1.019543549870476
 21
41.35498046874993
 31
0.0
  0
LINE
  5
77
330
2F
100
AcDbEntity
  8
A-DETL-GENF
100
AcDbLine
 10
1.019543549870476
 20
41.35498046874993
 30
0.0
 11
30.79884042486936
 21
41.35498046874993
 31
0.0
  0
ARC
  5
78
330
2F
100
AcDbEntity
  8
A-DETL-GENF
100
AcDbCircle
 10
30.79306699045192
 20
101.2741861740674
 30
0.0
 40
59.91798528034393
100
AcDbArc
 50
270.0055207701733
 51
320.9431569774964
  0
ARC
  5
79
330
2F
100
AcDbEntity
  8
A-DETL-GENF
100
AcDbCircle
 10
112.3887165504089
 20
35.06518974856206
 30
0.0
 40
45.16046748342743
100
AcDbArc
 50
48.10290410642508
 51
140.9431569774968
  0
ARC
  5
7A
330
2F
100
AcDbEntity
  8
A-DETL-GENF
100
AcDbCircle
 10
101.3085938346122
 20
22.71942964287559
 30
0.0
 40
61.74922588743157
100
AcDbArc
 50
31.38897166839267
 51
48.10011715674523
  0
LINE
  5
7B
330
2F
100
AcDbEntity
  8
A-DETL-GENF
100
AcDbLine
 10
154.0208863233072
 20
54.88122558594008
 30
0.0
 11
154.0208863233072
 21
24.87963867187481
 31
0.0
  0
LINE
  5
7C
330
2F
100
AcDbEntity
  8
A-DETL-GENF
100
AcDbLine
 10
-39.44920583031263
 20
-18.00317382812505
 30
0.0
 11
-46.72069020531323
 21
-0.0031738281250818
 31
0.0
  0
LINE
  5
7D
330
2F
100
AcDbEntity
  8
A-DETL-GENF
100
AcDbLine
 10
-19.10545583031346
 20
-18.00317382812505
 30
0.0
 11
-39.44920583031263
 21
-18.00317382812505
 31
0.0
  0
LINE
  5
7E
330
2F
100
AcDbEntity
  8
A-DETL-GENF
100
AcDbLine
 10
-13.25779958031256
 20
-0.0031738281250818
 30
0.0
 11
-19.10545583031346
 21
-18.00317382812505
 31
0.0
  0
LINE
  5
7F
330
2F
100
AcDbEntity
  8
A-DETL-GENF
100
AcDbLine
 10
9.214856669686734
 20
-0.0031738281250818
 30
0.0
 11
15.06251291968764
 21
-18.00317382812505
 31
0.0
  0
LINE
  5
80
330
2F
100
AcDbEntity
  8
A-DETL-GENF
100
AcDbLine
 10
15.06251291968764
 20
-18.00317382812505
 30
0.0
 11
35.40430979468758
 21
-18.00317382812505
 31
0.0
  0
LINE
  5
81
330
2F
100
AcDbEntity
  8
A-DETL-GENF
100
AcDbLine
 10
35.40430979468758
 20
-18.00317382812505
 30
0.0
 11
42.67774729468741
 21
-0.0031738281250818
 31
0.0
  0
ENDBLK
  5
31
330
2F
100
AcDbEntity
  8
0
100
AcDbBlockEnd
  0
ENDSEC
  0
SECTION
  2
ENTITIES
  0
INSERT
  5
83
330
17
100
AcDbEntity
  8
0
100
AcDbBlockReference
  2
47 dakpan F12U hor - standaard-1591648-00_0 Basismaterialen
 10
0.0
 20
0.0
 30
0.0
  0
ENDSEC
  0
SECTION
  2
OBJECTS
  0
DICTIONARY
  5
A
330
0
100
AcDbDictionary
281
1
  3
ACAD_COLOR
350
B
  3
ACAD_GROUP
350
C
  3
ACAD_LAYOUT
350
D
  3
ACAD_MATERIAL
350
E
  3
ACAD_MLEADERSTYLE
350
F
  3
ACAD_MLINESTYLE
350
10
  3
ACAD_PLOTSETTINGS
350
11
  3
ACAD_PLOTSTYLENAME
350
12
  3
ACAD_SCALELIST
350
14
  3
ACAD_TABLESTYLE
350
15
  3
ACAD_VISUALSTYLE
350
16
  3
EZDXF_META
350
2D
  0
DICTIONARY
  5
B
330
A
100
AcDbDictionary
281
1
  0
DICTIONARY
  5
C
330
A
100
AcDbDictionary
281
1
  0
DICTIONARY
  5
D
330
A
100
AcDbDictionary
281
1
  3
Model
350
1A
  3
Layout1
350
1E
  0
DICTIONARY
  5
E
330
A
100
AcDbDictionary
281
1
  3
ByBlock
350
1F
  3
ByLayer
350
20
  3
Global
350
21
  0
DICTIONARY
  5
F
330
A
100
AcDbDictionary
281
1
  3
Standard
350
2C
  0
DICTIONARY
  5
10
330
A
100
AcDbDictionary
281
1
  3
Standard
350
22
  0
DICTIONARY
  5
11
330
A
100
AcDbDictionary
281
1
  0
ACDBDICTIONARYWDFLT
  5
12
330
A
100
AcDbDictionary
281
1
  3
Normal
350
13
100
AcDbDictionaryWithDefault
340
13
  0
ACDBPLACEHOLDER
  5
13
330
12
  0
DICTIONARY
  5
14
330
A
100
AcDbDictionary
281
1
  0
DICTIONARY
  5
15
330
A
100
AcDbDictionary
281
1
  0
DICTIONARY
  5
16
330
A
100
AcDbDictionary
281
1
  0
LAYOUT
  5
1A
330
D
100
AcDbPlotSettings
  1

  4
A3
  6

 40
7.5
 41
20.0
 42
7.5
 43
20.0
 44
420.0
 45
297.0
 46
0.0
 47
0.0
 48
0.0
 49
0.0
140
0.0
141
0.0
142
1.0
143
1.0
 70
1024
 72
1
 73
0
 74
5
  7

 75
16
 76
0
 77
2
 78
300
147
1.0
148
0.0
149
0.0
100
AcDbLayout
  1
Model
 70
1
 71
0
 10
0.0
 20
0.0
 11
420.0
 21
297.0
 12
0.0
 22
0.0
 32
0.0
 14
1e+20
 24
1e+20
 34
1e+20
 15
-1e+20
 25
-1e+20
 35
-1e+20
146
0.0
 13
0.0
 23
0.0
 33
0.0
 16
1.0
 26
0.0
 36
0.0
 17
0.0
 27
1.0
 37
0.0
 76
1
330
17
  0
LAYOUT
  5
1E
330
D
100
AcDbPlotSettings
  1

  4
A3
  6

 40
7.5
 41
20.0
 42
7.5
 43
20.0
 44
420.0
 45
297.0
 46
0.0
 47
0.0
 48
0.0
 49
0.0
140
0.0
141
0.0
142
1.0
143
1.0
 70
0
 72
1
 73
0
 74
5
  7

 75
16
 76
0
 77
2
 78
300
147
1.0
148
0.0
149
0.0
100
AcDbLayout
  1
Layout1
 70
1
 71
1
 10
0.0
 20
0.0
 11
420.0
 21
297.0
 12
0.0
 22
0.0
 32
0.0
 14
1e+20
 24
1e+20
 34
1e+20
 15
-1e+20
 25
-1e+20
 35
-1e+20
146
0.0
 13
0.0
 23
0.0
 33
0.0
 16
1.0
 26
0.0
 36
0.0
 17
0.0
 27
1.0
 37
0.0
 76
1
330
1B
  0
MATERIAL
  5
1F
102
{ACAD_REACTORS
330
E
102
}
330
E
100
AcDbMaterial
  1
ByBlock
  2

 70
0
 40
1.0
 71
1
 41
1.0
 91
-1023410177
 42
1.0
 72
1
  3

 73
1
 74
1
 75
1
 44
0.5
 73
0
 45
1.0
 46
1.0
 77
1
  4

 78
1
 79
1
170
1
 48
1.0
171
1
  6

172
1
173
1
174
1
140
1.0
141
1.0
175
1
  7

176
1
177
1
178
1
143
1.0
179
1
  8

270
1
271
1
272
1
145
1.0
146
1.0
273
1
  9

274
1
275
1
276
1
 42
1.0
 72
1
  3

 73
1
 74
1
 75
1
 94
63
  0
MATERIAL
  5
20
102
{ACAD_REACTORS
330
E
102
}
330
E
100
AcDbMaterial
  1
ByLayer
  2

 70
0
 40
1.0
 71
1
 41
1.0
 91
-1023410177
 42
1.0
 72
1
  3

 73
1
 74
1
 75
1
 44
0.5
 73
0
 45
1.0
 46
1.0
 77
1
  4

 78
1
 79
1
170
1
 48
1.0
171
1
  6

172
1
173
1
174
1
140
1.0
141
1.0
175
1
  7

176
1
177
1
178
1
143
1.0
179
1
  8

270
1
271
1
272
1
145
1.0
146
1.0
273
1
  9

274
1
275
1
276
1
 42
1.0
 72
1
  3

 73
1
 74
1
 75
1
 94
63
  0
MATERIAL
  5
21
102
{ACAD_REACTORS
330
E
102
}
330
E
100
AcDbMaterial
  1
Global
  2

 70
0
 40
1.0
 71
1
 41
1.0
 91
-1023410177
 42
1.0
 72
1
  3

 73
1
 74
1
 75
1
 44
0.5
 73
0
 45
1.0
 46
1.0
 77
1
  4

 78
1
 79
1
170
1
 48
1.0
171
1
  6

172
1
173
1
174
1
140
1.0
141
1.0
175
1
  7

176
1
177
1
178
1
143
1.0
179
1
  8

270
1
271
1
272
1
145
1.0
146
1.0
273
1
  9

274
1
275
1
276
1
 42
1.0
 72
1
  3

 73
1
 74
1
 75
1
 94
63
  0
MLINESTYLE
  5
22
102
{ACAD_REACTORS
330
10
102
}
330
10
100
AcDbMlineStyle
  2
Standard
 70
0
  3

 62
256
 51
90.0
 52
90.0
 71
2
 49
0.5
 62
256
  6
BYLAYER
 49
-0.5
 62
256
  6
BYLAYER
  0
MLEADERSTYLE
  5
2C
102
{ACAD_REACTORS
330
F
102
}
330
F
100
AcDbMLeaderStyle
179
2
170
2
171
1
172
0
 90
2
 40
0.0
 41
0.0
173
1
 91
-1056964608
 92
-2
290
1
 42
2.0
291
1
 43
8.0
  3
Standard
 44
4.0
300

342
29
174
1
175
1
176
0
178
1
 93
-1056964608
 45
4.0
292
0
297
0
 46
4.0
 94
-1056964608
 47
1.0
 49
1.0
140
1.0
294
1
141
0.0
177
0
142
1.0
295
0
296
0
143
3.75
271
0
272
9
273
9
  0
DICTIONARY
  5
2D
330
A
100
AcDbDictionary
280
1
281
1
  3
CREATED_BY_EZDXF
350
2E
  3
WRITTEN_BY_EZDXF
350
87
  0
DICTIONARYVAR
  5
2E
330
2D
100
DictionaryVariables
280
0
  1
1.4.3 @ 2026-02-13T04:54:14.710250+00:00
  0
DICTIONARYVAR
  5
87
330
2D
100
DictionaryVariables
280
0
  1
1.4.3 @ 2026-02-13T04:54:14.719344+00:00
  0
ENDSEC
  0
EOF
