  0
SECTION
  2
HEADER
  9
$ACADVER
  1
AC1032
  9
$ACADMAINTVER
 90
4
  9
$DWGCODEPAGE
  3
ANSI_1252
  9
$LASTSAVEDBY
  1
ezdxf
  9
$REQUIREDVERSIONS
160
0
  9
$INSBASE
 10
0.0
 20
0.0
 30
0.0
  9
$EXTMIN
 10
1e+20
 20
1e+20
 30
1e+20
  9
$EXTMAX
 10
-1e+20
 20
-1e+20
 30
-1e+20
  9
$LIMMIN
 10
0.0
 20
0.0
  9
$LIMMAX
 10
420.0
 20
297.0
  9
$ORTHOMODE
 70
0
  9
$REGENMODE
 70
1
  9
$FILLMODE
 70
1
  9
$QTEXTMODE
 70
0
  9
$MIRRTEXT
 70
1
  9
$LTSCALE
 40
1.0
  9
$ATTMODE
 70
1
  9
$TEXTSIZE
 40
2.5
  9
$TRACEWID
 40
1.0
  9
$TEXTSTYLE
  7
Standard
  9
$CLAYER
  8
0
  9
$CELTYPE
  6
ByLayer
  9
$CECOLOR
 62
256
  9
$CELTSCALE
 40
1.0
  9
$DISPSILH
 70
0
  9
$DIMSCALE
 40
1.0
  9
$DIMASZ
 40
2.5
  9
$DIMEXO
 40
0.625
  9
$DIMDLI
 40
3.75
  9
$DIMRND
 40
0.0
  9
$DIMDLE
 40
0.0
  9
$DIMEXE
 40
1.25
  9
$DIMTP
 40
0.0
  9
$DIMTM
 40
0.0
  9
$DIMTXT
 40
2.5
  9
$DIMCEN
 40
2.5
  9
$DIMTSZ
 40
0.0
  9
$DIMTOL
 70
0
  9
$DIMLIM
 70
0
  9
$DIMTIH
 70
0
  9
$DIMTOH
 70
0
  9
$DIMSE1
 70
0
  9
$DIMSE2
 70
0
  9
$DIMTAD
 70
1
  9
$DIMZIN
 70
8
  9
$DIMBLK
  1

  9
$DIMASO
 70
1
  9
$DIMSHO
 70
1
  9
$DIMPOST
  1

  9
$DIMAPOST
  1

  9
$DIMALT
 70
0
  9
$DIMALTD
 70
3
  9
$DIMALTF
 40
0.03937007874
  9
$DIMLFAC
 40
1.0
  9
$DIMTOFL
 70
1
  9
$DIMTVP
 40
0.0
  9
$DIMTIX
 70
0
  9
$DIMSOXD
 70
0
  9
$DIMSAH
 70
0
  9
$DIMBLK1
  1

  9
$DIMBLK2
  1

  9
$DIMSTYLE
  2
ISO-25
  9
$DIMCLRD
 70
0
  9
$DIMCLRE
 70
0
  9
$DIMCLRT
 70
0
  9
$DIMTFAC
 40
1.0
  9
$DIMGAP
 40
0.625
  9
$DIMJUST
 70
0
  9
$DIMSD1
 70
0
  9
$DIMSD2
 70
0
  9
$DIMTOLJ
 70
0
  9
$DIMTZIN
 70
8
  9
$DIMALTZ
 70
0
  9
$DIMALTTZ
 70
0
  9
$DIMUPT
 70
0
  9
$DIMDEC
 70
2
  9
$DIMTDEC
 70
2
  9
$DIMALTU
 70
2
  9
$DIMALTTD
 70
3
  9
$DIMTXSTY
  7
Standard
  9
$DIMAUNIT
 70
0
  9
$DIMADEC
 70
0
  9
$DIMALTRND
 40
0.0
  9
$DIMAZIN
 70
0
  9
$DIMDSEP
 70
44
  9
$DIMATFIT
 70
3
  9
$DIMFRAC
 70
0
  9
$DIMLDRBLK
  1

  9
$DIMLUNIT
 70
2
  9
$DIMLWD
 70
-2
  9
$DIMLWE
 70
-2
  9
$DIMTMOVE
 70
0
  9
$DIMFXL
 40
1.0
  9
$DIMFXLON
 70
0
  9
$DIMJOGANG
 40
0.785398163397
  9
$DIMTFILL
 70
0
  9
$DIMTFILLCLR
 70
0
  9
$DIMARCSYM
 70
0
  9
$DIMLTYPE
  6

  9
$DIMLTEX1
  6

  9
$DIMLTEX2
  6

  9
$DIMTXTDIRECTION
 70
0
  9
$LUNITS
 70
2
  9
$LUPREC
 70
4
  9
$SKETCHINC
 40
1.0
  9
$FILLETRAD
 40
10.0
  9
$AUNITS
 70
0
  9
$AUPREC
 70
2
  9
$MENU
  1
.
  9
$ELEVATION
 40
0.0
  9
$PELEVATION
 40
0.0
  9
$THICKNESS
 40
0.0
  9
$LIMCHECK
 70
0
  9
$CHAMFERA
 40
0.0
  9
$CHAMFERB
 40
0.0
  9
$CHAMFERC
 40
0.0
  9
$CHAMFERD
 40
0.0
  9
$SKPOLY
 70
0
  9
$TDCREATE
 40
2461085.245983796
  9
$TDUCREATE
 40
2458532.153996898
  9
$TDUPDATE
 40
2461085.245983796
  9
$TDUUPDATE
 40
2458532.1544311
  9
$TDINDWG
 40
0.0
  9
$TDUSRTIMER
 40
0.0
  9
$USRTIMER
 70
1
  9
$ANGBASE
 50
0.0
  9
$ANGDIR
 70
0
  9
$PDMODE
 70
0
  9
$PDSIZE
 40
0.0
  9
$PLINEWID
 40
0.0
  9
$SPLFRAME
 70
0
  9
$SPLINETYPE
 70
6
  9
$SPLINESEGS
 70
8
  9
$HANDSEED
  5
77
  9
$SURFTAB1
 70
6
  9
$SURFTAB2
 70
6
  9
$SURFTYPE
 70
6
  9
$SURFU
 70
6
  9
$SURFV
 70
6
  9
$UCSBASE
  2

  9
$UCSNAME
  2

  9
$UCSORG
 10
0.0
 20
0.0
 30
0.0
  9
$UCSXDIR
 10
1.0
 20
0.0
 30
0.0
  9
$UCSYDIR
 10
0.0
 20
1.0
 30
0.0
  9
$UCSORTHOREF
  2

  9
$UCSORTHOVIEW
 70
0
  9
$UCSORGTOP
 10
0.0
 20
0.0
 30
0.0
  9
$UCSORGBOTTOM
 10
0.0
 20
0.0
 30
0.0
  9
$UCSORGLEFT
 10
0.0
 20
0.0
 30
0.0
  9
$UCSORGRIGHT
 10
0.0
 20
0.0
 30
0.0
  9
$UCSORGFRONT
 10
0.0
 20
0.0
 30
0.0
  9
$UCSORGBACK
 10
0.0
 20
0.0
 30
0.0
  9
$PUCSBASE
  2

  9
$PUCSNAME
  2

  9
$PUCSORG
 10
0.0
 20
0.0
 30
0.0
  9
$PUCSXDIR
 10
1.0
 20
0.0
 30
0.0
  9
$PUCSYDIR
 10
0.0
 20
1.0
 30
0.0
  9
$PUCSORTHOREF
  2

  9
$PUCSORTHOVIEW
 70
0
  9
$PUCSORGTOP
 10
0.0
 20
0.0
 30
0.0
  9
$PUCSORGBOTTOM
 10
0.0
 20
0.0
 30
0.0
  9
$PUCSORGLEFT
 10
0.0
 20
0.0
 30
0.0
  9
$PUCSORGRIGHT
 10
0.0
 20
0.0
 30
0.0
  9
$PUCSORGFRONT
 10
0.0
 20
0.0
 30
0.0
  9
$PUCSORGBACK
 10
0.0
 20
0.0
 30
0.0
  9
$USERI1
 70
0
  9
$USERI2
 70
0
  9
$USERI3
 70
0
  9
$USERI4
 70
0
  9
$USERI5
 70
0
  9
$USERR1
 40
0.0
  9
$USERR2
 40
0.0
  9
$USERR3
 40
0.0
  9
$USERR4
 40
0.0
  9
$USERR5
 40
0.0
  9
$WORLDVIEW
 70
1
  9
$SHADEDGE
 70
3
  9
$SHADEDIF
 70
70
  9
$TILEMODE
 70
1
  9
$MAXACTVP
 70
64
  9
$PINSBASE
 10
0.0
 20
0.0
 30
0.0
  9
$PLIMCHECK
 70
0
  9
$PEXTMIN
 10
1e+20
 20
1e+20
 30
1e+20
  9
$PEXTMAX
 10
-1e+20
 20
-1e+20
 30
-1e+20
  9
$PLIMMIN
 10
0.0
 20
0.0
  9
$PLIMMAX
 10
420.0
 20
297.0
  9
$UNITMODE
 70
0
  9
$VISRETAIN
 70
1
  9
$PLINEGEN
 70
0
  9
$PSLTSCALE
 70
1
  9
$TREEDEPTH
 70
3020
  9
$CMLSTYLE
  2
Standard
  9
$CMLJUST
 70
0
  9
$CMLSCALE
 40
20.0
  9
$PROXYGRAPHICS
 70
1
  9
$MEASUREMENT
 70
1
  9
$CELWEIGHT
370
-1
  9
$ENDCAPS
280
0
  9
$JOINSTYLE
280
0
  9
$LWDISPLAY
290
0
  9
$INSUNITS
 70
6
  9
$HYPERLINKBASE
  1

  9
$STYLESHEET
  1

  9
$XEDIT
290
1
  9
$CEPSNTYPE
380
0
  9
$PSTYLEMODE
290
1
  9
$FINGERPRINTGUID
  2
{17250185-995A-4871-BB6E-1F769106A872}
  9
$VERSIONGUID
  2
{4C79F876-ED38-4723-BBFD-8950801DB478}
  9
$EXTNAMES
290
1
  9
$PSVPSCALE
 40
0.0
  9
$OLESTARTUP
290
0
  9
$SORTENTS
280
127
  9
$INDEXCTL
280
0
  9
$HIDETEXT
280
1
  9
$XCLIPFRAME
280
1
  9
$HALOGAP
280
0
  9
$OBSCOLOR
 70
257
  9
$OBSLTYPE
280
0
  9
$INTERSECTIONDISPLAY
280
0
  9
$INTERSECTIONCOLOR
 70
257
  9
$DIMASSOC
280
2
  9
$PROJECTNAME
  1

  9
$CAMERADISPLAY
290
0
  9
$LENSLENGTH
 40
50.0
  9
$CAMERAHEIGHT
 40
0.0
  9
$STEPSPERSEC
 40
24.0
  9
$STEPSIZE
 40
100.0
  9
$3DDWFPREC
 40
2.0
  9
$PSOLWIDTH
 40
0.005
  9
$PSOLHEIGHT
 40
0.08
  9
$LOFTANG1
 40
1.570796326795
  9
$LOFTANG2
 40
1.570796326795
  9
$LOFTMAG1
 40
0.0
  9
$LOFTMAG2
 40
0.0
  9
$LOFTPARAM
 70
7
  9
$LOFTNORMALS
280
1
  9
$LATITUDE
 40
37.795
  9
$LONGITUDE
 40
-122.394
  9
$NORTHDIRECTION
 40
0.0
  9
$TIMEZONE
 70
-8000
  9
$LIGHTGLYPHDISPLAY
280
1
  9
$TILEMODELIGHTSYNCH
280
1
  9
$CMATERIAL
347
20
  9
$SOLIDHIST
280
0
  9
$SHOWHIST
280
1
  9
$DWFFRAME
280
2
  9
$DGNFRAME
280
2
  9
$REALWORLDSCALE
290
1
  9
$INTERFERECOLOR
 62
256
  9
$CSHADOW
280
0
  9
$SHADOWPLANELOCATION
 40
0.0
  0
ENDSEC
  0
SECTION
  2
CLASSES
  0
CLASS
  1
ACDBDICTIONARYWDFLT
  2
AcDbDictionaryWithDefault
  3
ObjectDBX Classes
 90
0
 91
0
280
0
281
0
  0
CLASS
  1
SUN
  2
AcDbSun
  3
SCENEOE
 90
1153
 91
0
280
0
281
0
  0
CLASS
  1
VISUALSTYLE
  2
AcDbVisualStyle
  3
ObjectDBX Classes
 90
4095
 91
0
280
0
281
0
  0
CLASS
  1
MATERIAL
  2
AcDbMaterial
  3
ObjectDBX Classes
 90
1153
 91
0
280
0
281
0
  0
CLASS
  1
SCALE
  2
AcDbScale
  3
ObjectDBX Classes
 90
1153
 91
0
280
0
281
0
  0
CLASS
  1
TABLESTYLE
  2
AcDbTableStyle
  3
ObjectDBX Classes
 90
4095
 91
0
280
0
281
0
  0
CLASS
  1
MLEADERSTYLE
  2
AcDbMLeaderStyle
  3
ACDB_MLEADERSTYLE_CLASS
 90
4095
 91
0
280
0
281
0
  0
CLASS
  1
DICTIONARYVAR
  2
AcDbDictionaryVar
  3
ObjectDBX Classes
 90
0
 91
0
280
0
281
0
  0
CLASS
  1
CELLSTYLEMAP
  2
AcDbCellStyleMap
  3
ObjectDBX Classes
 90
1152
 91
0
280
0
281
0
  0
CLASS
  1
MENTALRAYRENDERSETTINGS
  2
AcDbMentalRayRenderSettings
  3
SCENEOE
 90
1024
 91
0
280
0
281
0
  0
CLASS
  1
ACDBDETAILVIEWSTYLE
  2
AcDbDetailViewStyle
  3
ObjectDBX Classes
 90
1025
 91
0
280
0
281
0
  0
CLASS
  1
ACDBSECTIONVIEWSTYLE
  2
AcDbSectionViewStyle
  3
ObjectDBX Classes
 90
1025
 91
0
280
0
281
0
  0
CLASS
  1
RASTERVARIABLES
  2
AcDbRasterVariables
  3
ISM
 90
0
 91
0
280
0
281
0
  0
CLASS
  1
LAYOUT
  2
AcDbLayout
  3
ObjectDBX Classes
 90
0
 91
0
280
0
281
0
  0
CLASS
  1
ACDBPLACEHOLDER
  2
AcDbPlaceHolder
  3
ObjectDBX Classes
 90
0
 91
0
280
0
281
0
  0
ENDSEC
  0
SECTION
  2
TABLES
  0
TABLE
  2
VPORT
  5
8
330
0
100
AcDbSymbolTable
 70
1
  0
VPORT
  5
23
330
8
100
AcDbSymbolTableRecord
100
AcDbViewportTableRecord
  2
*Active
 70
0
 10
0.0
 20
0.0
 11
1.0
 21
1.0
 12
0.0
 22
0.0
 13
0.0
 23
0.0
 14
0.5
 24
0.5
 15
0.5
 25
0.5
 16
0.0
 26
0.0
 36
1.0
 17
0.0
 27
0.0
 37
0.0
 40
1000.0
 41
1.34
 42
50.0
 43
0.0
 44
0.0
 50
0.0
 51
0.0
 71
0
 72
1000
 73
1
 74
3
 75
0
 76
0
 77
0
 78
0
281
0
 65
0
146
0.0
  0
ENDTAB
  0
TABLE
  2
LTYPE
  5
2
330
0
100
AcDbSymbolTable
 70
3
  0
LTYPE
  5
24
330
2
100
AcDbSymbolTableRecord
100
AcDbLinetypeTableRecord
  2
ByBlock
 70
0
  3

 72
65
 73
0
 40
0.0
  0
LTYPE
  5
25
330
2
100
AcDbSymbolTableRecord
100
AcDbLinetypeTableRecord
  2
ByLayer
 70
0
  3

 72
65
 73
0
 40
0.0
  0
LTYPE
  5
26
330
2
100
AcDbSymbolTableRecord
100
AcDbLinetypeTableRecord
  2
Continuous
 70
0
  3

 72
65
 73
0
 40
0.0
  0
ENDTAB
  0
TABLE
  2
LAYER
  5
1
330
0
100
AcDbSymbolTable
 70
3
  0
LAYER
  5
27
330
1
100
AcDbSymbolTableRecord
100
AcDbLayerTableRecord
  2
0
 70
0
 62
7
  6
Continuous
370
-3
390
13
347
21
  0
LAYER
  5
28
330
1
100
AcDbSymbolTableRecord
100
AcDbLayerTableRecord
  2
Defpoints
 70
0
 62
7
  6
Continuous
290
0
370
-3
390
13
347
21
  0
LAYER
  5
71
330
1
100
AcDbSymbolTableRecord
100
AcDbLayerTableRecord
  2
A-DETL-GENF
 70
0
 62
92
  6
Continuous
370
18
390
13
347
21
348
0
  0
ENDTAB
  0
TABLE
  2
STYLE
  5
5
330
0
100
AcDbSymbolTable
 70
1
  0
STYLE
  5
29
330
5
100
AcDbSymbolTableRecord
100
AcDbTextStyleTableRecord
  2
Standard
 70
0
 40
0.0
 41
1.0
 50
0.0
 71
0
 42
2.5
  3
txt
  4

  0
ENDTAB
  0
TABLE
  2
VIEW
  5
7
330
0
100
AcDbSymbolTable
 70
0
  0
ENDTAB
  0
TABLE
  2
UCS
  5
6
330
0
100
AcDbSymbolTable
 70
0
  0
ENDTAB
  0
TABLE
  2
APPID
  5
3
330
0
100
AcDbSymbolTable
 70
3
  0
APPID
  5
2A
330
3
100
AcDbSymbolTableRecord
100
AcDbRegAppTableRecord
  2
ACAD
 70
0
  0
APPID
  5
74
330
3
100
AcDbSymbolTableRecord
100
AcDbRegAppTableRecord
  2
HATCHBACKGROUNDCOLOR
 70
0
  0
APPID
  5
75
330
3
100
AcDbSymbolTableRecord
100
AcDbRegAppTableRecord
  2
EZDXF
 70
0
  0
ENDTAB
  0
TABLE
  2
DIMSTYLE
  5
4
330
0
100
AcDbSymbolTable
 70
1
100
AcDbDimStyleTable
  0
DIMSTYLE
105
2B
330
4
100
AcDbSymbolTableRecord
100
AcDbDimStyleTableRecord
  2
Standard
 70
0
 40
1.0
 41
2.5
 42
0.625
 43
3.75
 44
1.25
 45
0.0
 46
0.0
 47
0.0
 48
0.0
 49
2.5
140
2.5
141
2.5
142
0.0
143
0.03937007874
144
1.0
145
0.0
146
1.0
147
0.625
148
0.0
 69
0
 70
0
 71
0
 72
0
 73
0
 74
0
 75
0
 76
0
 77
1
 78
8
 79
3
170
0
171
3
172
1
173
0
174
0
175
0
176
0
177
0
178
0
179
2
271
2
272
2
273
2
274
3
275
0
276
0
277
2
278
44
279
0
280
0
281
0
282
0
283
0
284
8
285
0
286
0
288
0
289
3
290
0
371
-2
372
-2
  0
ENDTAB
  0
TABLE
  2
BLOCK_RECORD
  5
9
330
0
100
AcDbSymbolTable
 70
3
  0
BLOCK_RECORD
  5
17
330
9
100
AcDbSymbolTableRecord
100
AcDbBlockTableRecord
  2
*Model_Space
340
1A
 70
0
280
1
281
0
  0
BLOCK_RECORD
  5
1B
330
9
100
AcDbSymbolTableRecord
100
AcDbBlockTableRecord
  2
*Paper_Space
340
1E
 70
0
280
1
281
0
  0
BLOCK_RECORD
  5
2F
330
9
100
AcDbSymbolTableRecord
100
AcDbBlockTableRecord
  2
41 roval muurafdeksysteem type A - Type 1-361577-00_0 Basismaterialen
340
0
 70
0
280
1
281
0
  0
ENDTAB
  0
ENDSEC
  0
SECTION
  2
BLOCKS
  0
BLOCK
  5
18
330
17
100
AcDbEntity
  8
0
100
AcDbBlockBegin
  2
*Model_Space
 70
0
 10
0.0
 20
0.0
 30
0.0
  3
*Model_Space
  1

  0
ENDBLK
  5
19
330
17
100
AcDbEntity
  8
0
100
AcDbBlockEnd
  0
BLOCK
  5
1C
330
1B
100
AcDbEntity
  8
0
100
AcDbBlockBegin
  2
*Paper_Space
 70
0
 10
0.0
 20
0.0
 30
0.0
  3
*Paper_Space
  1

  0
ENDBLK
  5
1D
330
1B
100
AcDbEntity
  8
0
100
AcDbBlockEnd
  0
BLOCK
  5
30
330
2F
100
AcDbEntity
  8
0
100
AcDbBlockBegin
  2
41 roval muurafdeksysteem type A - Type 1-361577-00_0 Basismaterialen
 70
0
 10
0.0
 20
0.0
 30
0.0
  3
41 roval muurafdeksysteem type A - Type 1-361577-00_0 Basismaterialen
  1

  0
HATCH
  5
32
330
2F
100
AcDbEntity
  8
A-DETL-GENF
100
AcDbHatch
 10
0.0
 20
0.0
 30
0.0
210
0.0
220
0.0
230
1.0
  2
SOLID
 70
1
 71
0
 91
1
 92
1
 93
21
 72
1
 10
-27.0866049120467
 20
-40.69997264496733
 11
-24.38738616204657
 21
-40.69997264496733
 72
1
 10
-24.38738616204657
 20
-40.69997264496733
 11
-24.38738616204657
 21
-2.000753894966727
 72
1
 10
-24.38738616204657
 20
-2.000753894966726
 11
-24.08750681294078
 21
0.2770559043148411
 72
1
 10
-24.08750681294078
 20
0.277055904314841
 11
-23.2083050476973
 21
2.399636730032983
 72
1
 10
-23.2083050476973
 20
2.399636730032983
 11
-21.80969701365921
 21
4.222338206647504
 72
1
 10
-21.80969701365921
 20
4.222338206647504
 11
-19.98699553704469
 21
5.620946240683423
 72
1
 10
-19.98699553704469
 20
5.620946240683423
 11
-17.86441471132655
 21
6.500148005929071
 72
1
 10
-17.86441471132655
 20
6.500148005929071
 11
-15.58660491204498
 21
6.800027355032693
 72
1
 10
-15.58660491204498
 20
6.800027355032693
 11
210.1136367062422
 21
6.800027355032693
 72
1
 10
210.1136367062422
 20
6.800027355032693
 11
210.1136367062422
 21
9.999246105030545
 72
1
 10
210.1136367062422
 20
9.999246105030545
 11
-15.58660491204497
 21
9.99924610503271
 72
1
 10
-15.58660491204498
 20
9.99924610503271
 11
-18.69243345327539
 21
9.590356020500648
 72
1
 10
-18.69243345327539
 20
9.590356020500648
 11
-21.58660491204578
 21
8.391550950445936
 72
1
 10
-21.58660491204578
 20
8.391550950445936
 11
-24.07188628628412
 21
6.484527479270241
 72
1
 10
-24.07188628628412
 20
6.484527479270241
 11
-25.97890975745981
 21
3.999246105031909
 72
1
 10
-25.97890975745981
 20
3.999246105031909
 11
-27.17771482751452
 21
1.105074646263682
 72
1
 10
-27.17771482751452
 20
1.105074646263682
 11
-27.58660491204442
 21
-2.000753894966726
 72
1
 10
-27.58660491204442
 20
-2.000753894966726
 11
-27.58660491204442
 21
-40.19997264496961
 72
1
 10
-27.58660491204442
 20
-40.19997264496961
 11
-27.44015830263756
 21
-40.55352603556264
 72
1
 10
-27.44015830263756
 20
-40.55352603556264
 11
-27.21601443459679
 21
-40.68293555811274
 72
1
 10
-27.21601443459679
 20
-40.68293555811274
 11
-27.0866049120467
 21
-40.69997264496733
 97
0
 75
0
 76
1
 98
1
 10
0.0
 20
0.0
450
0
451
0
460
0.0
461
0.0
452
0
462
0.0
453
0
470

  0
HATCH
  5
33
330
2F
100
AcDbEntity
  8
A-DETL-GENF
370
13
100
AcDbHatch
 10
0.0
 20
0.0
 30
0.0
210
0.0
220
0.0
230
1.0
  2
FP_23
 70
0
 71
0
 91
1
 92
1
 93
51
 72
1
 10
-24.38738616204657
 20
-42.69997264496688
 11
-14.58660491204304
 21
-42.69997264496688
 72
1
 10
-14.58660491204304
 20
-42.69997264496688
 11
-14.58660491204304
 21
-40.69997264496733
 72
1
 10
-14.58660491204304
 20
-40.69997264496733
 11
-27.21601443459246
 21
-40.68293555811057
 72
1
 10
-27.21601443459246
 20
-40.68293555811057
 11
-27.44015830263756
 21
-40.55352603556047
 72
1
 10
-27.44015830263756
 20
-40.55352603556047
 11
-27.56956782518765
 21
-40.32938216751971
 72
1
 10
-27.56956782518765
 20
-40.32938216751971
 11
-27.58660491204442
 21
-40.19997264496961
 72
1
 10
-27.58660491204442
 20
-40.19997264496961
 11
-27.52898468864219
 21
25.03305124491362
 72
1
 10
-27.52898468864219
 20
25.03305124491362
 11
-27.3694043790186
 21
25.21236758042545
 72
1
 10
-27.3694043790186
 20
25.21236758042545
 11
-27.14464419553772
 21
25.29664737231936
 72
1
 10
-27.14464419553772
 20
25.29664737231936
 11
-26.90650706613206
 21
25.26646573884803
 72
1
 10
-26.90650706613206
 20
25.26646573884803
 11
-26.79980781957086
 21
25.20959716318215
 72
1
 10
-26.79980781957086
 20
25.20959716318215
 11
-5.287910223799769
 21
10.20705759594898
 72
1
 10
-5.287910223799769
 20
10.20705759594898
 11
-4.810385120575489
 21
10.05396283927658
 72
1
 10
-4.810385120575489
 20
10.05396283927658
 11
-4.311913147719957
 21
9.99924610502838
 72
1
 10
-4.311913147719957
 20
9.99924610502838
 11
219.0125655781789
 21
9.99924610502838
 72
1
 10
219.0125655781789
 20
9.99924610502838
 11
235.0593128353923
 21
-34.08773851866583
 72
1
 10
235.0593128353923
 20
-34.08773851866583
 11
222.8441054562428
 21
-38.53591014495957
 72
1
 10
222.8441054562428
 20
-38.53591014495957
 11
223.5276992062431
 21
-40.41481639495975
 72
1
 10
223.5276992062431
 20
-40.41481639495975
 11
235.2773687927995
 21
-36.140077942113
 72
1
 10
235.2773687927995
 20
-36.140077942113
 11
235.7789810993105
 21
-35.89035422707396
 72
1
 10
235.7789810993105
 20
-35.89035422707396
 11
236.2124280698811
 21
-35.53524781541398
 72
1
 10
236.2124280698811
 20
-35.53524781541398
 11
236.5559639354461
 21
-35.09257417833282
 72
1
 10
236.5559639354461
 20
-35.09257417833282
 11
236.7923537120252
 21
-34.58454198109625
 72
1
 10
236.7923537120252
 20
-34.58454198109625
 11
236.9097378692905
 21
-34.03663888791524
 72
1
 10
236.9097378692905
 20
-34.03663888791524
 11
236.9022273159683
 21
-33.47635286141724
 72
1
 10
236.9022273159683
 20
-33.47635286141724
 11
236.7701988519106
 21
-32.93179310842829
 72
1
 10
236.7701988519106
 20
-32.93179310842829
 11
221.0121099824169
 21
10.35461658667198
 72
1
 10
221.0121099824169
 20
10.35461658667198
 11
220.740966565179
 21
10.88932579314918
 72
1
 10
220.740966565179
 20
10.88932579314918
 11
220.3503377354937
 21
11.34412443608852
 72
1
 10
220.3503377354937
 20
11.34412443608852
 11
219.8626793066281
 21
11.69286781589611
 72
1
 10
219.8626793066281
 20
11.69286781589611
 11
219.3060249662919
 21
11.91550795960766
 72
1
 10
219.3060249662919
 20
11.91550795960766
 11
218.7123747231333
 21
11.99924610503009
 72
1
 10
218.7123747231333
 20
11.99924610503009
 11
-4.447373238594565
 21
11.99924610503225
 72
1
 10
-4.447373238594571
 20
11.99924610503225
 11
-25.65329510876669
 21
26.84710119676329
 72
1
 10
-25.65329510876669
 20
26.84710119676329
 11
-26.18657422793259
 21
27.13130019906363
 72
1
 10
-26.18657422793259
 20
27.13130019906363
 11
-26.77248060175104
 21
27.2791833048132
 72
1
 10
-26.77248060175104
 20
27.2791833048132
 11
-27.37675468276299
 21
27.28210338453119
 72
1
 10
-27.37675468276299
 20
27.28210338453119
 11
-27.9640629134514
 21
27.13988969316672
 72
1
 10
-27.9640629134514
 20
27.13988969316672
 11
-28.50006377595555
 21
26.86085785404924
 72
1
 10
-28.50006377595555
 20
26.86085785404924
 11
-28.95341583449703
 21
26.46132362164525
 72
1
 10
-28.95341583449703
 20
26.46132362164525
 11
-29.29761035481421
 21
25.96464885478952
 72
1
 10
-29.29761035481421
 20
25.96464885478952
 11
-29.51252134232658
 21
25.39987548493638
 72
1
 10
-29.51252134232658
 20
25.39987548493638
 11
-29.58660491204613
 21
24.80002735503294
 72
1
 10
-29.58660491204613
 20
24.80002735503294
 11
-29.58660491204397
 21
-40.19997264496744
 72
1
 10
-29.58660491204397
 20
-40.19997264496745
 11
-29.50141947776663
 21
-40.84702025772225
 72
1
 10
-29.50141947776663
 20
-40.84702025772225
 11
-29.25166842150424
 21
-41.44997264496717
 72
1
 10
-29.25166842150424
 20
-41.44997264496717
 11
-28.85437186500967
 21
-41.96773959793474
 72
1
 10
-28.85437186500967
 20
-41.96773959793474
 11
-28.33660491204208
 21
-42.36503615442716
 72
1
 10
-28.33660491204208
 20
-42.36503615442716
 11
-27.58660491204442
 21
-42.63414639617459
 72
1
 10
-27.58660491204442
 20
-42.63414639617459
 11
-27.0866049120467
 21
-42.69997264496688
 72
1
 10
-27.0866049120467
 20
-42.69997264496688
 11
-24.38738616204657
 21
-42.69997264496688
 97
0
 75
0
 76
2
 52
0.0
 41
1.0
 77
0
 78
3
 53
45.0
 43
13939.73
 44
2629.544
 45
-22.45064030267288
 46
22.45064030267288
 79
0
 53
45.0
 43
13947.667
 44
2629.544
 45
0.0
 46
44.90128060534576
 79
0
 53
45.0
 43
13931.792
 44
2629.544
 45
0.0
 46
44.90128060534576
 79
0
 98
1
 10
0.0
 20
0.0
  0
ARC
  5
34
330
2F
100
AcDbEntity
  8
A-DETL-GENF
100
AcDbCircle
 10
-27.08660491202142
 20
24.8000273550335
 30
0.0
 40
0.5000000000002416
100
AcDbArc
 50
54.99875856126065
 51
180.0
  0
LINE
  5
35
330
2F
100
AcDbEntity
  8
A-DETL-GENF
100
AcDbLine
 10
-26.79980781954775
 20
25.20959716318448
 30
0.0
 11
-5.725276787302712
 21
10.45237110522998
 31
0.0
  0
ARC
  5
36
330
2F
100
AcDbEntity
  8
A-DETL-GENF
100
AcDbCircle
 10
-4.289729912025533
 20
12.49924610502914
 30
0.0
 40
2.500098417247008
100
AcDbArc
 50
234.9566427887041
 51
269.4916110304837
  0
LINE
  5
37
330
2F
100
AcDbEntity
  8
A-DETL-GENF
100
AcDbLine
 10
210.1136367062668
 20
9.999246105031284
 30
0.0
 11
219.012565578202
 21
9.999246105031284
 31
0.0
  0
LINE
  5
38
330
2F
100
AcDbEntity
  8
A-DETL-GENF
100
AcDbLine
 10
219.012565578202
 20
9.999246105031284
 30
0.0
 11
235.0593128354119
 21
-34.0877385186623
 31
0.0
  0
LINE
  5
39
330
2F
100
AcDbEntity
  8
A-DETL-GENF
100
AcDbLine
 10
235.0593128354119
 20
-34.0877385186623
 30
0.0
 11
222.8441054562618
 21
-38.5359101449558
 31
0.0
  0
LINE
  5
3A
330
2F
100
AcDbEntity
  8
A-DETL-GENF
100
AcDbLine
 10
222.8441054562618
 20
-38.5359101449558
 30
0.0
 11
223.5276992062621
 21
-40.41481639495642
 31
0.0
  0
LINE
  5
3B
330
2F
100
AcDbEntity
  8
A-DETL-GENF
100
AcDbLine
 10
223.5276992062621
 20
-40.41481639495642
 30
0.0
 11
235.2773687928215
 21
-36.14007794211074
 31
0.0
  0
ARC
  5
3C
330
2F
100
AcDbEntity
  8
A-DETL-GENF
100
AcDbCircle
 10
234.4202773312645
 20
-33.78981639495344
 30
0.0
 40
2.501666467282344
100
AcDbArc
 50
290.0358599995262
 51
20.05857810928434
  0
LINE
  5
3D
330
2F
100
AcDbEntity
  8
A-DETL-GENF
100
AcDbLine
 10
236.7701988519318
 20
-32.93179310842512
 30
0.0
 11
221.0121099824412
 21
10.35461658667305
 31
0.0
  0
ARC
  5
3E
330
2F
100
AcDbEntity
  8
A-DETL-GENF
100
AcDbCircle
 10
218.6624648312629
 20
9.499246105030306
 30
0.0
 40
2.500498149833736
100
AcDbArc
 50
20.00365149486272
 51
88.85630146332986
  0
LINE
  5
3F
330
2F
100
AcDbEntity
  8
A-DETL-GENF
100
AcDbLine
 10
218.7123747231537
 20
11.99924610503296
 30
0.0
 11
-4.447373238573455
 21
11.99924610503296
 31
0.0
  0
LINE
  5
40
330
2F
100
AcDbEntity
  8
A-DETL-GENF
100
AcDbLine
 10
-4.447373238573539
 20
11.99924610503559
 30
0.0
 11
-25.65329510874629
 21
26.84710119676538
 31
0.0
  0
ARC
  5
41
330
2F
100
AcDbEntity
  8
A-DETL-GENF
100
AcDbCircle
 10
-27.08660491202115
 20
24.8000273550335
 30
0.0
 40
2.498977452011998
100
AcDbArc
 50
55.00125331088151
 51
179.9999999999998
  0
LINE
  5
42
330
2F
100
AcDbEntity
  8
A-DETL-GENF
100
AcDbLine
 10
-29.5866049120248
 20
24.80002735503541
 30
0.0
 11
-29.5866049120248
 21
-40.19997264496517
 31
0.0
  0
ARC
  5
43
330
2F
100
AcDbEntity
  8
A-DETL-GENF
100
AcDbCircle
 10
-27.08660491202166
 20
-40.19997264496461
 30
0.0
 40
2.499999999999996
100
AcDbArc
 50
179.9999999999998
 51
269.9999999999998
  0
LINE
  5
44
330
2F
100
AcDbEntity
  8
A-DETL-GENF
100
AcDbLine
 10
-27.0866049120232
 20
-42.69997264496441
 30
0.0
 11
-14.58660491202387
 21
-42.69997264496441
 31
0.0
  0
LINE
  5
45
330
2F
100
AcDbEntity
  8
A-DETL-GENF
100
AcDbLine
 10
-14.58660491202387
 20
-42.69997264496441
 30
0.0
 11
-14.58660491202387
 21
-40.69997264496486
 31
0.0
  0
LINE
  5
46
330
2F
100
AcDbEntity
  8
A-DETL-GENF
100
AcDbLine
 10
-14.58660491202387
 20
-40.69997264496486
 30
0.0
 11
-17.58660491202574
 21
-40.69997264496486
 31
0.0
  0
LINE
  5
47
330
2F
100
AcDbEntity
  8
A-DETL-GENF
100
AcDbLine
 10
-21.78777678702152
 20
-40.69997264496486
 30
0.0
 11
-24.38738616202317
 21
-40.69997264496486
 31
0.0
  0
ARC
  5
48
330
2F
100
AcDbEntity
  8
A-DETL-GENF
100
AcDbCircle
 10
-27.08660491202166
 20
-40.19997264496461
 30
0.0
 40
0.4999999999999991
100
AcDbArc
 50
209.9999999999991
 51
224.9999999999993
  0
ARC
  5
49
330
2F
100
AcDbEntity
  8
A-DETL-GENF
100
AcDbCircle
 10
-27.08660491202166
 20
-40.19997264496461
 30
0.0
 40
0.5000000000000023
100
AcDbArc
 50
180.0
 51
194.9999999999988
  0
LINE
  5
4A
330
2F
100
AcDbEntity
  8
A-DETL-GENF
100
AcDbLine
 10
-27.58660491202308
 20
-2.00075389496456
 30
0.0
 11
-27.58660491202308
 21
24.80002735503468
 31
0.0
  0
LINE
  5
4B
330
2F
100
AcDbEntity
  8
A-DETL-GENF
100
AcDbLine
 10
210.1136367062643
 20
4.200417980034714
 30
0.0
 11
-15.58660491202251
 21
4.200417980034714
 31
0.0
  0
ARC
  5
4C
330
2F
100
AcDbEntity
  8
A-DETL-GENF
100
AcDbCircle
 10
-15.58660491202302
 20
-2.000753894965184
 30
0.0
 40
6.201171874999979
100
AcDbArc
 50
89.99999999999964
 51
180.0000000000001
  0
LINE
  5
4D
330
2F
100
AcDbEntity
  8
A-DETL-GENF
100
AcDbLine
 10
-21.78777678702249
 20
-2.000753894965186
 30
0.0
 11
-21.78777678702249
 21
-40.69997264496486
 31
0.0
  0
LINE
  5
4E
330
2F
100
AcDbEntity
  8
A-DETL-GENF
100
AcDbLine
 10
-21.78777678702249
 20
-40.69997264496486
 30
0.0
 11
-17.58660491202348
 21
-40.69997264496486
 31
0.0
  0
LINE
  5
4F
330
2F
100
AcDbEntity
  8
A-DETL-GENF
100
AcDbLine
 10
-17.58660491202348
 20
-40.69997264496486
 30
0.0
 11
-17.58660491202348
 21
-2.000753894965195
 31
0.0
  0
ARC
  5
50
330
2F
100
AcDbEntity
  8
A-DETL-GENF
100
AcDbCircle
 10
-15.58660491202302
 20
-2.00075389496518
 30
0.0
 40
1.999999999999983
100
AcDbArc
 50
89.99999999999996
 51
180.000000000001
  0
LINE
  5
51
330
2F
100
AcDbEntity
  8
A-DETL-GENF
100
AcDbLine
 10
-15.58660491202251
 20
-0.0007538949647384
 30
0.0
 11
210.1136367062643
 21
-0.0007538949647384
 31
0.0
  0
LINE
  5
52
330
2F
100
AcDbEntity
  8
A-DETL-GENF
100
AcDbLine
 10
210.1136367062643
 20
0.6154414721469685
 30
0.0
 11
210.1136367062643
 21
4.200417980034714
 31
0.0
  0
HATCH
  5
53
330
2F
100
AcDbEntity
  8
A-DETL-GENF
370
13
100
AcDbHatch
 10
0.0
 20
0.0
 30
0.0
210
0.0
220
0.0
230
1.0
  2
FP_23
 70
0
 71
0
 91
1
 92
1
 93
47
 72
1
 10
225.8562104840572
 20
-36.61741295080002
 11
226.5352796511141
 21
-36.58981363971566
 72
1
 10
226.5352796511141
 20
-36.58981363971566
 11
227.1919988828391
 21
-36.41483790910274
 72
1
 10
227.1919988828391
 20
-36.41483790910274
 11
227.794776999129
 21
-36.10090288694183
 72
1
 10
227.794776999129
 20
-36.10090288694183
 11
228.3146176327236
 21
-35.66311027475843
 72
1
 10
228.3146176327236
 20
-35.66311027475843
 11
228.726514086261
 21
-35.12251988714203
 72
1
 10
228.726514086261
 20
-35.12251988714203
 11
231.6111534187545
 21
-30.32342356467497
 72
1
 10
231.6111534187545
 20
-30.32342356467497
 11
232.0755253915544
 21
-29.30952712235421
 72
1
 10
232.0755253915544
 20
-29.30952712235421
 11
232.3036884431882
 21
-28.21793702220347
 72
1
 10
232.3036884431882
 20
-28.21793702220347
 11
232.284298708813
 21
-27.1029252002548
 72
1
 10
232.284298708813
 20
-27.1029252002548
 11
232.0183202118695
 21
-26.01992807928073
 72
1
 10
232.0183202118695
 20
-26.01992807928073
 11
231.5189769344641
 21
-25.0227903675281
 72
1
 10
231.5189769344641
 20
-25.0227903675281
 11
216.7559469096606
 21
-2.292212483908667
 72
1
 10
216.7559469096606
 20
-2.292212483908667
 11
216.1438405947021
 21
-1.526233309192178
 72
1
 10
216.1438405947021
 20
-1.526233309192178
 11
215.3940123991394
 21
-0.8944454381083858
 72
1
 10
215.3940123991394
 20
-0.8944454381083858
 11
214.5353001274412
 21
-0.4211469367964185
 72
1
 10
214.5353001274412
 20
-0.4211469367964185
 11
213.6007291802675
 21
-0.1245404945055384
 72
1
 10
213.6007291802675
 20
-0.1245404945055384
 11
210.1136367062422
 21
0.6154414721445791
 72
1
 10
210.1136367062422
 20
0.6154414721445791
 11
210.1136367062422
 21
-0.2017957305044945
 72
1
 10
210.1136367062422
 20
-0.2017957305044945
 11
213.4361183820923
 21
-0.908212848451177
 72
1
 10
213.4361183820923
 20
-0.908212848451177
 11
214.4692230445372
 21
-1.274096730477043
 72
1
 10
214.4692230445372
 20
-1.274096730477043
 11
215.3724547681499
 21
-1.894861349431579
 72
1
 10
215.3724547681499
 20
-1.894861349431579
 11
216.084280111479
 21
-2.728216579384127
 72
1
 10
216.084280111479
 20
-2.728216579384127
 11
230.8482646824269
 21
-25.4581748645702
 72
1
 10
230.8482646824269
 20
-25.4581748645702
 11
231.2677438408748
 21
-26.29569938173761
 72
1
 10
231.2677438408748
 20
-26.29569938173761
 11
231.4912507145835
 21
-27.20534478442518
 72
1
 10
231.4912507145835
 20
-27.20534478442518
 11
231.5076771959931
 21
-28.14190244518947
 72
1
 10
231.5076771959931
 20
-28.14190244518947
 11
231.316206902492
 21
-29.05882621952152
 72
1
 10
231.316206902492
 20
-29.05882621952152
 11
230.9263557500049
 21
-29.91054575090102
 72
1
 10
230.9263557500049
 20
-29.91054575090102
 11
227.7366358357777
 21
-35.11260832228471
 72
1
 10
227.7366358357777
 20
-35.11260832228471
 11
227.3502636050376
 21
-35.43793719637581
 72
1
 10
227.3502636050376
 20
-35.43793719637581
 11
226.9022069578822
 21
-35.67110584338208
 72
1
 10
226.9022069578822
 20
-35.67110584338208
 11
226.4140649927408
 21
-35.80087409402472
 72
1
 10
226.4140649927408
 20
-35.80087409402472
 11
225.909369168018
 21
-35.82098631693713
 72
1
 10
225.909369168018
 20
-35.82098631693713
 11
220.8002430276139
 21
-35.43677065245634
 72
1
 10
220.8002430276139
 20
-35.43677065245634
 11
220.4142982778268
 21
-35.21627672525681
 72
1
 10
220.4142982778268
 20
-35.21627672525681
 11
220.1622740371857
 21
-34.85014190862918
 72
1
 10
220.1622740371857
 20
-34.85014190862918
 11
220.0941054562434
 21
-34.41091080045247
 72
1
 10
220.0941054562434
 20
-34.41091080045247
 11
220.6370742062435
 21
-26.62966038282216
 72
1
 10
220.6370742062435
 20
-26.62966038282216
 11
219.840199206245
 21
-26.57497288282231
 72
1
 10
219.840199206245
 20
-26.57497288282231
 11
219.3105508141714
 21
-34.7591367839612
 72
1
 10
219.3105508141714
 20
-34.7591367839612
 11
219.4170369242079
 21
-35.14824038911615
 72
1
 10
219.4170369242079
 20
-35.14824038911615
 11
219.6074501812923
 21
-35.50388585682585
 72
1
 10
219.6074501812923
 20
-35.50388585682585
 11
219.8722393054415
 21
-35.80823372836303
 72
1
 10
219.8722393054415
 20
-35.80823372836303
 11
220.1981222641733
 21
-36.04601767311771
 72
1
 10
220.1981222641733
 20
-36.04601767311771
 11
220.5687525098296
 21
-36.20531025982742
 72
1
 10
220.5687525098296
 20
-36.20531025982742
 11
220.9655389353382
 21
-36.27812124601547
 72
1
 10
220.9655389353382
 20
-36.27812124601547
 11
225.8562104840572
 21
-36.61741295080002
 97
0
 75
0
 76
2
 52
0.0
 41
1.0
 77
0
 78
3
 53
45.0
 43
13939.73
 44
2629.544
 45
-22.45064030267288
 46
22.45064030267288
 79
0
 53
45.0
 43
13947.667
 44
2629.544
 45
0.0
 46
44.90128060534576
 79
0
 53
45.0
 43
13931.792
 44
2629.544
 45
0.0
 46
44.90128060534576
 79
0
 98
1
 10
0.0
 20
0.0
  0
LINE
  5
54
330
2F
100
AcDbEntity
  8
A-DETL-GENF
100
AcDbLine
 10
210.1136367062648
 20
0.615441472146916
 30
0.0
 11
210.1136367062648
 21
-0.2017957305015547
 31
0.0
  0
LINE
  5
55
330
2F
100
AcDbEntity
  8
A-DETL-GENF
100
AcDbLine
 10
210.1136367062648
 20
-0.2017957305015547
 30
0.0
 11
213.4361183821117
 21
-0.9082128484489224
 31
0.0
  0
ARC
  5
56
330
2F
100
AcDbEntity
  8
A-DETL-GENF
100
AcDbCircle
 10
212.5628554562639
 20
-5.015417902853419
 30
0.0
 40
4.199014348223395
100
AcDbArc
 50
33.00413590956531
 51
77.99666940142544
  0
LINE
  5
57
330
2F
100
AcDbEntity
  8
A-DETL-GENF
100
AcDbLine
 10
216.0842801114989
 20
-2.728216579381989
 30
0.0
 11
230.8482646824506
 21
-25.4581748645652
 31
0.0
  0
ARC
  5
58
330
2F
100
AcDbEntity
  8
A-DETL-GENF
100
AcDbCircle
 10
227.3245741862726
 20
-27.74684788281865
 30
0.0
 40
4.201716184767333
100
AcDbArc
 50
329.0055033535399
 51
33.00413600010823
  0
LINE
  5
59
330
2F
100
AcDbEntity
  8
A-DETL-GENF
100
AcDbLine
 10
230.9263557500275
 20
-29.91054575089809
 30
0.0
 11
228.042698121648
 21
-34.71080208267359
 31
0.0
  0
ARC
  5
5A
330
2F
100
AcDbEntity
  8
A-DETL-GENF
100
AcDbCircle
 10
226.0706679362745
 20
-33.52614432758699
 30
0.0
 40
2.300503651097933
100
AcDbArc
 50
265.9794336351439
 51
329.0054977001628
  0
LINE
  5
5B
330
2F
100
AcDbEntity
  8
A-DETL-GENF
100
AcDbLine
 10
225.9093691680384
 20
-35.82098631693547
 30
0.0
 11
221.0201847515564
 21
-35.47733737674862
 31
0.0
  0
ARC
  5
5C
330
2F
100
AcDbEntity
  8
A-DETL-GENF
100
AcDbCircle
 10
221.0901992062642
 20
-34.48122267707076
 30
0.0
 40
0.998572240142067
100
AcDbArc
 50
175.9623250583062
 51
265.9794327261578
  0
LINE
  5
5D
330
2F
100
AcDbEntity
  8
A-DETL-GENF
100
AcDbLine
 10
220.0941054562645
 20
-34.41091080044994
 30
0.0
 11
220.637074206264
 21
-26.62966038281907
 31
0.0
  0
LINE
  5
5E
330
2F
100
AcDbEntity
  8
A-DETL-GENF
100
AcDbLine
 10
220.637074206264
 20
-26.62966038281907
 30
0.0
 11
219.8401992062644
 21
-26.57497288281907
 31
0.0
  0
LINE
  5
5F
330
2F
100
AcDbEntity
  8
A-DETL-GENF
100
AcDbLine
 10
219.8401992062644
 20
-26.57497288281907
 30
0.0
 11
219.2933332789436
 21
-34.35609278678664
 31
0.0
  0
ARC
  5
60
330
2F
100
AcDbEntity
  8
A-DETL-GENF
100
AcDbCircle
 10
221.0901992062642
 20
-34.48122267707118
 30
0.0
 40
1.801217546607832
100
AcDbArc
 50
176.0164757392651
 51
266.031450125212
  0
LINE
  5
61
330
2F
100
AcDbEntity
  8
A-DETL-GENF
100
AcDbLine
 10
220.9655389353593
 20
-36.27812124601321
 30
0.0
 11
225.8562104840789
 21
-36.61741295079706
 31
0.0
  0
ARC
  5
62
330
2F
100
AcDbEntity
  8
A-DETL-GENF
100
AcDbCircle
 10
226.0706679362745
 20
-33.52614432758709
 30
0.0
 40
3.098698710692877
100
AcDbArc
 50
266.031451101039
 51
328.9907725977948
  0
LINE
  5
63
330
2F
100
AcDbEntity
  8
A-DETL-GENF
100
AcDbLine
 10
228.7265140862818
 20
-35.12251988713944
 30
0.0
 11
231.6111534187752
 21
-30.32342356467389
 31
0.0
  0
ARC
  5
64
330
2F
100
AcDbEntity
  8
A-DETL-GENF
100
AcDbCircle
 10
227.3245741862717
 20
-27.74684788281946
 30
0.0
 40
5.00135019378307
100
AcDbArc
 50
328.9907789419431
 51
33.00173442735671
  0
LINE
  5
65
330
2F
100
AcDbEntity
  8
A-DETL-GENF
100
AcDbLine
 10
231.5189769344862
 20
-25.02279036752636
 30
0.0
 11
216.7559469096822
 21
-2.292212483906104
 31
0.0
  0
ARC
  5
66
330
2F
100
AcDbEntity
  8
A-DETL-GENF
100
AcDbCircle
 10
212.5628554562629
 20
-5.015417902853424
 30
0.0
 40
4.999786364488409
100
AcDbArc
 50
33.00172986123123
 51
78.01921666315258
  0
LINE
  5
67
330
2F
100
AcDbEntity
  8
A-DETL-GENF
100
AcDbLine
 10
213.6007291802883
 20
-0.1245404945043244
 30
0.0
 11
210.1136367062648
 21
0.615441472146916
 31
0.0
  0
LINE
  5
68
330
2F
100
AcDbEntity
  8
A-DETL-GENF
100
AcDbLine
 10
-27.58660491202336
 20
-2.000753894964696
 30
0.0
 11
-27.58660491202336
 21
-40.19997264496467
 31
0.0
  0
ARC
  5
69
330
2F
100
AcDbEntity
  8
A-DETL-GENF
100
AcDbCircle
 10
-27.08660491202345
 20
-40.19997264496577
 30
0.0
 40
0.5000000000000249
100
AcDbArc
 50
180.0
 51
269.9999999999988
  0
LINE
  5
6A
330
2F
100
AcDbEntity
  8
A-DETL-GENF
100
AcDbLine
 10
-27.08660491202347
 20
-40.69997264496437
 30
0.0
 11
-24.38738616202347
 21
-40.69997264496437
 31
0.0
  0
LINE
  5
6B
330
2F
100
AcDbEntity
  8
A-DETL-GENF
100
AcDbLine
 10
-24.38738616202347
 20
-40.69997264496437
 30
0.0
 11
-24.38738616202347
 21
-2.000753894964738
 31
0.0
  0
ARC
  5
6C
330
2F
100
AcDbEntity
  8
A-DETL-GENF
100
AcDbCircle
 10
-15.58660491202358
 20
-2.00075389496469
 30
0.0
 40
8.80078125000004
100
AcDbArc
 50
90.00000000000026
 51
180.0000000000003
  0
LINE
  5
6D
330
2F
100
AcDbEntity
  8
A-DETL-GENF
100
AcDbLine
 10
-15.5866049120237
 20
6.800027355035194
 30
0.0
 11
210.1136367062643
 21
6.800027355035194
 31
0.0
  0
LINE
  5
6E
330
2F
100
AcDbEntity
  8
A-DETL-GENF
100
AcDbLine
 10
210.1136367062643
 20
6.800027355035194
 30
0.0
 11
210.1136367062643
 21
9.999246105034915
 31
0.0
  0
LINE
  5
6F
330
2F
100
AcDbEntity
  8
A-DETL-GENF
100
AcDbLine
 10
210.1136367062643
 20
9.999246105034915
 30
0.0
 11
-15.5866049120237
 21
9.999246105034915
 31
0.0
  0
ARC
  5
70
330
2F
100
AcDbEntity
  8
A-DETL-GENF
100
AcDbCircle
 10
-15.58660491202357
 20
-2.000753894964706
 30
0.0
 40
12.00000000000002
100
AcDbArc
 50
89.99999999999952
 51
179.9999999999995
  0
ENDBLK
  5
31
330
2F
100
AcDbEntity
  8
0
100
AcDbBlockEnd
  0
ENDSEC
  0
SECTION
  2
ENTITIES
  0
INSERT
  5
72
330
17
100
AcDbEntity
  8
0
100
AcDbBlockReference
  2
41 roval muurafdeksysteem type A - Type 1-361577-00_0 Basismaterialen
 10
0.0
 20
0.0
 30
0.0
  0
ENDSEC
  0
SECTION
  2
OBJECTS
  0
DICTIONARY
  5
A
330
0
100
AcDbDictionary
281
1
  3
ACAD_COLOR
350
B
  3
ACAD_GROUP
350
C
  3
ACAD_LAYOUT
350
D
  3
ACAD_MATERIAL
350
E
  3
ACAD_MLEADERSTYLE
350
F
  3
ACAD_MLINESTYLE
350
10
  3
ACAD_PLOTSETTINGS
350
11
  3
ACAD_PLOTSTYLENAME
350
12
  3
ACAD_SCALELIST
350
14
  3
ACAD_TABLESTYLE
350
15
  3
ACAD_VISUALSTYLE
350
16
  3
EZDXF_META
350
2D
  0
DICTIONARY
  5
B
330
A
100
AcDbDictionary
281
1
  0
DICTIONARY
  5
C
330
A
100
AcDbDictionary
281
1
  0
DICTIONARY
  5
D
330
A
100
AcDbDictionary
281
1
  3
Model
350
1A
  3
Layout1
350
1E
  0
DICTIONARY
  5
E
330
A
100
AcDbDictionary
281
1
  3
ByBlock
350
1F
  3
ByLayer
350
20
  3
Global
350
21
  0
DICTIONARY
  5
F
330
A
100
AcDbDictionary
281
1
  3
Standard
350
2C
  0
DICTIONARY
  5
10
330
A
100
AcDbDictionary
281
1
  3
Standard
350
22
  0
DICTIONARY
  5
11
330
A
100
AcDbDictionary
281
1
  0
ACDBDICTIONARYWDFLT
  5
12
330
A
100
AcDbDictionary
281
1
  3
Normal
350
13
100
AcDbDictionaryWithDefault
340
13
  0
ACDBPLACEHOLDER
  5
13
330
12
  0
DICTIONARY
  5
14
330
A
100
AcDbDictionary
281
1
  0
DICTIONARY
  5
15
330
A
100
AcDbDictionary
281
1
  0
DICTIONARY
  5
16
330
A
100
AcDbDictionary
281
1
  0
LAYOUT
  5
1A
330
D
100
AcDbPlotSettings
  1

  4
A3
  6

 40
7.5
 41
20.0
 42
7.5
 43
20.0
 44
420.0
 45
297.0
 46
0.0
 47
0.0
 48
0.0
 49
0.0
140
0.0
141
0.0
142
1.0
143
1.0
 70
1024
 72
1
 73
0
 74
5
  7

 75
16
 76
0
 77
2
 78
300
147
1.0
148
0.0
149
0.0
100
AcDbLayout
  1
Model
 70
1
 71
0
 10
0.0
 20
0.0
 11
420.0
 21
297.0
 12
0.0
 22
0.0
 32
0.0
 14
1e+20
 24
1e+20
 34
1e+20
 15
-1e+20
 25
-1e+20
 35
-1e+20
146
0.0
 13
0.0
 23
0.0
 33
0.0
 16
1.0
 26
0.0
 36
0.0
 17
0.0
 27
1.0
 37
0.0
 76
1
330
17
  0
LAYOUT
  5
1E
330
D
100
AcDbPlotSettings
  1

  4
A3
  6

 40
7.5
 41
20.0
 42
7.5
 43
20.0
 44
420.0
 45
297.0
 46
0.0
 47
0.0
 48
0.0
 49
0.0
140
0.0
141
0.0
142
1.0
143
1.0
 70
0
 72
1
 73
0
 74
5
  7

 75
16
 76
0
 77
2
 78
300
147
1.0
148
0.0
149
0.0
100
AcDbLayout
  1
Layout1
 70
1
 71
1
 10
0.0
 20
0.0
 11
420.0
 21
297.0
 12
0.0
 22
0.0
 32
0.0
 14
1e+20
 24
1e+20
 34
1e+20
 15
-1e+20
 25
-1e+20
 35
-1e+20
146
0.0
 13
0.0
 23
0.0
 33
0.0
 16
1.0
 26
0.0
 36
0.0
 17
0.0
 27
1.0
 37
0.0
 76
1
330
1B
  0
MATERIAL
  5
1F
102
{ACAD_REACTORS
330
E
102
}
330
E
100
AcDbMaterial
  1
ByBlock
  2

 70
0
 40
1.0
 71
1
 41
1.0
 91
-1023410177
 42
1.0
 72
1
  3

 73
1
 74
1
 75
1
 44
0.5
 73
0
 45
1.0
 46
1.0
 77
1
  4

 78
1
 79
1
170
1
 48
1.0
171
1
  6

172
1
173
1
174
1
140
1.0
141
1.0
175
1
  7

176
1
177
1
178
1
143
1.0
179
1
  8

270
1
271
1
272
1
145
1.0
146
1.0
273
1
  9

274
1
275
1
276
1
 42
1.0
 72
1
  3

 73
1
 74
1
 75
1
 94
63
  0
MATERIAL
  5
20
102
{ACAD_REACTORS
330
E
102
}
330
E
100
AcDbMaterial
  1
ByLayer
  2

 70
0
 40
1.0
 71
1
 41
1.0
 91
-1023410177
 42
1.0
 72
1
  3

 73
1
 74
1
 75
1
 44
0.5
 73
0
 45
1.0
 46
1.0
 77
1
  4

 78
1
 79
1
170
1
 48
1.0
171
1
  6

172
1
173
1
174
1
140
1.0
141
1.0
175
1
  7

176
1
177
1
178
1
143
1.0
179
1
  8

270
1
271
1
272
1
145
1.0
146
1.0
273
1
  9

274
1
275
1
276
1
 42
1.0
 72
1
  3

 73
1
 74
1
 75
1
 94
63
  0
MATERIAL
  5
21
102
{ACAD_REACTORS
330
E
102
}
330
E
100
AcDbMaterial
  1
Global
  2

 70
0
 40
1.0
 71
1
 41
1.0
 91
-1023410177
 42
1.0
 72
1
  3

 73
1
 74
1
 75
1
 44
0.5
 73
0
 45
1.0
 46
1.0
 77
1
  4

 78
1
 79
1
170
1
 48
1.0
171
1
  6

172
1
173
1
174
1
140
1.0
141
1.0
175
1
  7

176
1
177
1
178
1
143
1.0
179
1
  8

270
1
271
1
272
1
145
1.0
146
1.0
273
1
  9

274
1
275
1
276
1
 42
1.0
 72
1
  3

 73
1
 74
1
 75
1
 94
63
  0
MLINESTYLE
  5
22
102
{ACAD_REACTORS
330
10
102
}
330
10
100
AcDbMlineStyle
  2
Standard
 70
0
  3

 62
256
 51
90.0
 52
90.0
 71
2
 49
0.5
 62
256
  6
BYLAYER
 49
-0.5
 62
256
  6
BYLAYER
  0
MLEADERSTYLE
  5
2C
102
{ACAD_REACTORS
330
F
102
}
330
F
100
AcDbMLeaderStyle
179
2
170
2
171
1
172
0
 90
2
 40
0.0
 41
0.0
173
1
 91
-1056964608
 92
-2
290
1
 42
2.0
291
1
 43
8.0
  3
Standard
 44
4.0
300

342
29
174
1
175
1
176
0
178
1
 93
-1056964608
 45
4.0
292
0
297
0
 46
4.0
 94
-1056964608
 47
1.0
 49
1.0
140
1.0
294
1
141
0.0
177
0
142
1.0
295
0
296
0
143
3.75
271
0
272
9
273
9
  0
DICTIONARY
  5
2D
330
A
100
AcDbDictionary
280
1
281
1
  3
CREATED_BY_EZDXF
350
2E
  3
WRITTEN_BY_EZDXF
350
76
  0
DICTIONARYVAR
  5
2E
330
2D
100
DictionaryVariables
280
0
  1
1.4.3 @ 2026-02-13T04:54:13.709097+00:00
  0
DICTIONARYVAR
  5
76
330
2D
100
DictionaryVariables
280
0
  1
1.4.3 @ 2026-02-13T04:54:13.713624+00:00
  0
ENDSEC
  0
EOF
