0
SECTION
2
HEADER
9
$EXTMIN
10
 0
20
 100
30
0.0
9
$EXTMAX
10
 0
20
 100
30
0.0
9
$LIMMIN
10
 100
20
 0
9
$LIMMAX
10
 0
20
 100
9
$PSLTSCALE
70
1
0
ENDSEC
0
SECTION
2
TABLES
0
TABLE
2
LAYER
70
2
0
LAYER
2
0
70
0
62
7
6
CONTINUOUS
0
LAYER
2
Halfen
70
0
62
7
6
CONTINUOUS
0
ENDTAB
0
ENDSEC
0
SECTION
2
ENTITIES
0
POLYLINE
8
Halfen
62
7
66
1
10
0.0
20
0.0
30
0.0
70
1
0
VERTEX
8
Halfen
62
7
10
 0
20
-73.5
30
0
0
VERTEX
8
Halfen
62
7
10
 500
20
-73.5
30
0
0
VERTEX
8
Halfen
62
7
10
 500
20
 73.5
30
0
0
VERTEX
8
Halfen
62
7
10
 0
20
 73.5
30
0
0
SEQEND
8
Halfen
0
POLYLINE
8
Halfen
62
7
66
1
10
0.0
20
0.0
30
0.0
70
1
0
VERTEX
8
Halfen
62
7
10
 0
20
-60
30
0
0
VERTEX
8
Halfen
62
7
10
 500
20
-60
30
0
0
VERTEX
8
Halfen
62
7
10
 500
20
 60
30
0
0
VERTEX
8
Halfen
62
7
10
 0
20
 60
30
0
0
SEQEND
8
Halfen
0
POLYLINE
8
Halfen
62
7
66
1
10
0.0
20
0.0
30
0.0
70
1
0
VERTEX
8
Halfen
62
7
10
 20
20
-32.5
30
0
0
VERTEX
8
Halfen
62
7
10
 37
20
-1.5
30
0
0
VERTEX
8
Halfen
62
7
10
 28
20
-1.5
30
0
0
VERTEX
8
Halfen
62
7
10
 28
20
 32.5
30
0
0
VERTEX
8
Halfen
62
7
10
 12
20
 32.5
30
0
0
VERTEX
8
Halfen
62
7
10
 12
20
-1.5
30
0
0
VERTEX
8
Halfen
62
7
10
 3
20
-1.5
30
0
0
SEQEND
8
Halfen
0
POLYLINE
8
Halfen
62
7
66
1
10
0.0
20
0.0
30
0.0
70
1
0
VERTEX
8
Halfen
62
7
10
 480
20
-32.5
30
0
0
VERTEX
8
Halfen
62
7
10
 497
20
-1.5
30
0
0
VERTEX
8
Halfen
62
7
10
 488
20
-1.5
30
0
0
VERTEX
8
Halfen
62
7
10
 488
20
 32.5
30
0
0
VERTEX
8
Halfen
62
7
10
 472
20
 32.5
30
0
0
VERTEX
8
Halfen
62
7
10
 472
20
-1.5
30
0
0
VERTEX
8
Halfen
62
7
10
 463
20
-1.5
30
0
0
SEQEND
8
Halfen
0
POLYLINE
8
Halfen
62
7
66
1
10
0.0
20
0.0
30
0.0
70
1
0
VERTEX
8
Halfen
62
7
10
 74
20
-574.569
30
0
0
VERTEX
8
Halfen
62
7
10
 74
20
 583.197
30
0
0
VERTEX
8
Halfen
62
7
10
 66
20
 583.197
30
0
0
VERTEX
8
Halfen
62
7
10
 66
20
-574.569
30
0
0
SEQEND
8
Halfen
0
POLYLINE
8
Halfen
62
7
66
1
10
0.0
20
0.0
30
0.0
70
1
0
VERTEX
8
Halfen
62
7
10
 194
20
-574.569
30
0
0
VERTEX
8
Halfen
62
7
10
 194
20
 583.197
30
0
0
VERTEX
8
Halfen
62
7
10
 186
20
 583.197
30
0
0
VERTEX
8
Halfen
62
7
10
 186
20
-574.569
30
0
0
SEQEND
8
Halfen
0
POLYLINE
8
Halfen
62
7
66
1
10
0.0
20
0.0
30
0.0
70
1
0
VERTEX
8
Halfen
62
7
10
 324
20
-574.569
30
0
0
VERTEX
8
Halfen
62
7
10
 324
20
 583.197
30
0
0
VERTEX
8
Halfen
62
7
10
 316
20
 583.197
30
0
0
VERTEX
8
Halfen
62
7
10
 316
20
-574.569
30
0
0
SEQEND
8
Halfen
0
POLYLINE
8
Halfen
62
7
66
1
10
0.0
20
0.0
30
0.0
70
1
0
VERTEX
8
Halfen
62
7
10
 444
20
-574.569
30
0
0
VERTEX
8
Halfen
62
7
10
 444
20
 583.197
30
0
0
VERTEX
8
Halfen
62
7
10
 436
20
 583.197
30
0
0
VERTEX
8
Halfen
62
7
10
 436
20
-574.569
30
0
0
SEQEND
8
Halfen
0
POLYLINE
8
Halfen
62
7
66
1
10
0.0
20
0.0
30
0.0
70
1
0
VERTEX
8
Halfen
62
7
10
 434
20
-574.569
30
0
0
VERTEX
8
Halfen
62
7
10
 434
20
 583.197
30
0
0
VERTEX
8
Halfen
62
7
10
 426
20
 583.197
30
0
0
VERTEX
8
Halfen
62
7
10
 426
20
-574.569
30
0
0
SEQEND
8
Halfen
0
POLYLINE
8
Halfen
62
7
66
1
10
0.0
20
0.0
30
0.0
70
1
0
VERTEX
8
Halfen
62
7
10
 314
20
-574.569
30
0
0
VERTEX
8
Halfen
62
7
10
 314
20
 583.197
30
0
0
VERTEX
8
Halfen
62
7
10
 306
20
 583.197
30
0
0
VERTEX
8
Halfen
62
7
10
 306
20
-574.569
30
0
0
SEQEND
8
Halfen
0
POLYLINE
8
Halfen
62
7
66
1
10
0.0
20
0.0
30
0.0
70
1
0
VERTEX
8
Halfen
62
7
10
 184
20
-574.569
30
0
0
VERTEX
8
Halfen
62
7
10
 184
20
 583.197
30
0
0
VERTEX
8
Halfen
62
7
10
 176
20
 583.197
30
0
0
VERTEX
8
Halfen
62
7
10
 176
20
-574.569
30
0
0
SEQEND
8
Halfen
0
POLYLINE
8
Halfen
62
7
66
1
10
0.0
20
0.0
30
0.0
70
1
0
VERTEX
8
Halfen
62
7
10
 64
20
-574.569
30
0
0
VERTEX
8
Halfen
62
7
10
 64
20
 583.197
30
0
0
VERTEX
8
Halfen
62
7
10
 56
20
 583.197
30
0
0
VERTEX
8
Halfen
62
7
10
 56
20
-574.569
30
0
0
SEQEND
8
Halfen
0
POLYLINE
8
Halfen
62
7
66
1
10
0.0
20
0.0
30
0.0
70
1
0
VERTEX
8
Halfen
62
7
10
 950
20
-60
30
0
0
VERTEX
8
Halfen
62
7
10
 950
20
 60
30
0
0
VERTEX
8
Halfen
62
7
10
 936.5
20
 73.5
30
0
0
VERTEX
8
Halfen
62
7
10
 936.5
20
 60
30
0
0
VERTEX
8
Halfen
62
7
10
 750
20
 60
30
0
0
VERTEX
8
Halfen
62
7
10
 750
20
-60
30
0
0
VERTEX
8
Halfen
62
7
10
 936.5
20
-60
30
0
0
VERTEX
8
Halfen
62
7
10
 936.5
20
-73.5
30
0
0
SEQEND
8
Halfen
0
POLYLINE
8
Halfen
62
7
66
1
10
0.0
20
0.0
30
0.0
70
1
0
VERTEX
8
Halfen
62
7
10
 750
20
-60
30
0
0
VERTEX
8
Halfen
62
7
10
 750
20
 60
30
0
0
VERTEX
8
Halfen
62
7
10
 713.5
20
 60
30
0
0
VERTEX
8
Halfen
62
7
10
 713.5
20
 73.5
30
0
0
VERTEX
8
Halfen
62
7
10
 700
20
 60
30
0
0
VERTEX
8
Halfen
62
7
10
 700
20
-60
30
0
0
VERTEX
8
Halfen
62
7
10
 713.5
20
-73.5
30
0
0
VERTEX
8
Halfen
62
7
10
 713.5
20
-60
30
0
0
SEQEND
8
Halfen
0
POLYLINE
8
Halfen
62
7
66
1
10
0.0
20
0.0
30
0.0
70
1
0
VERTEX
8
Halfen
62
7
10
 947.5
20
-58.75
30
0
0
VERTEX
8
Halfen
62
7
10
 947.5
20
 58.75
30
0
0
VERTEX
8
Halfen
62
7
10
 939
20
 67.25
30
0
0
VERTEX
8
Halfen
62
7
10
 939
20
 58
30
0
0
VERTEX
8
Halfen
62
7
10
 752
20
 58
30
0
0
VERTEX
8
Halfen
62
7
10
 752
20
-58
30
0
0
VERTEX
8
Halfen
62
7
10
 939
20
-58
30
0
0
VERTEX
8
Halfen
62
7
10
 939
20
-67.25
30
0
0
SEQEND
8
Halfen
0
POLYLINE
8
Halfen
62
7
66
1
10
0.0
20
0.0
30
0.0
70
1
0
VERTEX
8
Halfen
62
7
10
 748
20
-58
30
0
0
VERTEX
8
Halfen
62
7
10
 748
20
 58
30
0
0
VERTEX
8
Halfen
62
7
10
 711
20
 58
30
0
0
VERTEX
8
Halfen
62
7
10
 711
20
 67.25
30
0
0
VERTEX
8
Halfen
62
7
10
 702.5
20
 58.75
30
0
0
VERTEX
8
Halfen
62
7
10
 702.5
20
-58.75
30
0
0
VERTEX
8
Halfen
62
7
10
 711
20
-67.25
30
0
0
VERTEX
8
Halfen
62
7
10
 711
20
-58
30
0
0
SEQEND
8
Halfen
0
POLYLINE
8
Halfen
62
7
66
1
10
0.0
20
0.0
30
0.0
70
1
0
VERTEX
8
Halfen
62
7
10
 920
20
-574.569
30
0
0
VERTEX
8
Halfen
62
7
10
 920
20
-88.284
30
0
0
VERTEX
8
Halfen
62
7
10
 919.606
20
-83.278
30
0
0
VERTEX
8
Halfen
62
7
10
 918.434
20
-78.396
30
0
0
VERTEX
8
Halfen
62
7
10
 916.512
20
-73.757
30
0
0
VERTEX
8
Halfen
62
7
10
 913.889
20
-69.475
30
0
0
VERTEX
8
Halfen
62
7
10
 910.627
20
-65.657
30
0
0
VERTEX
8
Halfen
62
7
10
 765.029
20
 79.941
30
0
0
VERTEX
8
Halfen
62
7
10
 762.584
20
 82.805
30
0
0
VERTEX
8
Halfen
62
7
10
 760.616
20
 86.016
30
0
0
VERTEX
8
Halfen
62
7
10
 759.175
20
 89.495
30
0
0
VERTEX
8
Halfen
62
7
10
 758.295
20
 93.157
30
0
0
VERTEX
8
Halfen
62
7
10
 758
20
 96.912
30
0
0
VERTEX
8
Halfen
62
7
10
 758
20
 583.197
30
0
0
VERTEX
8
Halfen
62
7
10
 750
20
 583.197
30
0
0
VERTEX
8
Halfen
62
7
10
 750
20
 96.912
30
0
0
VERTEX
8
Halfen
62
7
10
 750.394
20
 91.906
30
0
0
VERTEX
8
Halfen
62
7
10
 751.566
20
 87.023
30
0
0
VERTEX
8
Halfen
62
7
10
 753.488
20
 82.384
30
0
0
VERTEX
8
Halfen
62
7
10
 756.111
20
 78.103
30
0
0
VERTEX
8
Halfen
62
7
10
 759.373
20
 74.284
30
0
0
VERTEX
8
Halfen
62
7
10
 904.971
20
-71.314
30
0
0
VERTEX
8
Halfen
62
7
10
 907.416
20
-74.177
30
0
0
VERTEX
8
Halfen
62
7
10
 909.384
20
-77.388
30
0
0
VERTEX
8
Halfen
62
7
10
 910.825
20
-80.868
30
0
0
VERTEX
8
Halfen
62
7
10
 911.705
20
-84.53
30
0
0
VERTEX
8
Halfen
62
7
10
 912
20
-88.284
30
0
0
VERTEX
8
Halfen
62
7
10
 912
20
-574.569
30
0
0
SEQEND
8
Halfen
0
POLYLINE
8
Halfen
62
7
66
1
10
0.0
20
0.0
30
0.0
70
1
0
VERTEX
8
Halfen
62
7
10
 750
20
-574.569
30
0
0
VERTEX
8
Halfen
62
7
10
 750
20
-88.284
30
0
0
VERTEX
8
Halfen
62
7
10
 750.394
20
-83.278
30
0
0
VERTEX
8
Halfen
62
7
10
 751.566
20
-78.396
30
0
0
VERTEX
8
Halfen
62
7
10
 753.488
20
-73.757
30
0
0
VERTEX
8
Halfen
62
7
10
 756.111
20
-69.475
30
0
0
VERTEX
8
Halfen
62
7
10
 759.373
20
-65.657
30
0
0
VERTEX
8
Halfen
62
7
10
 904.971
20
 79.941
30
0
0
VERTEX
8
Halfen
62
7
10
 907.416
20
 82.805
30
0
0
VERTEX
8
Halfen
62
7
10
 909.384
20
 86.016
30
0
0
VERTEX
8
Halfen
62
7
10
 910.825
20
 89.495
30
0
0
VERTEX
8
Halfen
62
7
10
 911.705
20
 93.157
30
0
0
VERTEX
8
Halfen
62
7
10
 912
20
 96.912
30
0
0
VERTEX
8
Halfen
62
7
10
 912
20
 583.197
30
0
0
VERTEX
8
Halfen
62
7
10
 920
20
 583.197
30
0
0
VERTEX
8
Halfen
62
7
10
 920
20
 96.912
30
0
0
VERTEX
8
Halfen
62
7
10
 919.606
20
 91.906
30
0
0
VERTEX
8
Halfen
62
7
10
 918.434
20
 87.023
30
0
0
VERTEX
8
Halfen
62
7
10
 916.512
20
 82.384
30
0
0
VERTEX
8
Halfen
62
7
10
 913.889
20
 78.103
30
0
0
VERTEX
8
Halfen
62
7
10
 910.627
20
 74.284
30
0
0
VERTEX
8
Halfen
62
7
10
 765.029
20
-71.314
30
0
0
VERTEX
8
Halfen
62
7
10
 762.584
20
-74.177
30
0
0
VERTEX
8
Halfen
62
7
10
 760.616
20
-77.388
30
0
0
VERTEX
8
Halfen
62
7
10
 759.175
20
-80.868
30
0
0
VERTEX
8
Halfen
62
7
10
 758.295
20
-84.53
30
0
0
VERTEX
8
Halfen
62
7
10
 758
20
-88.284
30
0
0
VERTEX
8
Halfen
62
7
10
 758
20
-574.569
30
0
0
SEQEND
8
Halfen
0
ENDSEC
0
EOF
