0
SECTION
2
HEADER
9
$EXTMIN
10
 0
20
 100
30
0.0
9
$EXTMAX
10
 0
20
 100
30
0.0
9
$LIMMIN
10
 100
20
 0
9
$LIMMAX
10
 0
20
 100
9
$PSLTSCALE
70
1
0
ENDSEC
0
SECTION
2
TABLES
0
TABLE
2
LAYER
70
2
0
LAYER
2
0
70
0
62
7
6
CONTINUOUS
0
LAYER
2
Halfen
70
0
62
7
6
CONTINUOUS
0
ENDTAB
0
ENDSEC
0
SECTION
2
ENTITIES
0
POLYLINE
8
Halfen
62
7
66
1
10
0.0
20
0.0
30
0.0
70
1
0
VERTEX
8
Halfen
62
7
10
 0
20
-73.5
30
0
0
VERTEX
8
Halfen
62
7
10
 500
20
-73.5
30
0
0
VERTEX
8
Halfen
62
7
10
 500
20
 73.5
30
0
0
VERTEX
8
Halfen
62
7
10
 0
20
 73.5
30
0
0
SEQEND
8
Halfen
0
POLYLINE
8
Halfen
62
7
66
1
10
0.0
20
0.0
30
0.0
70
1
0
VERTEX
8
Halfen
62
7
10
 0
20
-60
30
0
0
VERTEX
8
Halfen
62
7
10
 500
20
-60
30
0
0
VERTEX
8
Halfen
62
7
10
 500
20
 60
30
0
0
VERTEX
8
Halfen
62
7
10
 0
20
 60
30
0
0
SEQEND
8
Halfen
0
POLYLINE
8
Halfen
62
7
66
1
10
0.0
20
0.0
30
0.0
70
1
0
VERTEX
8
Halfen
62
7
10
 20
20
-32.5
30
0
0
VERTEX
8
Halfen
62
7
10
 37
20
-1.5
30
0
0
VERTEX
8
Halfen
62
7
10
 28
20
-1.5
30
0
0
VERTEX
8
Halfen
62
7
10
 28
20
 32.5
30
0
0
VERTEX
8
Halfen
62
7
10
 12
20
 32.5
30
0
0
VERTEX
8
Halfen
62
7
10
 12
20
-1.5
30
0
0
VERTEX
8
Halfen
62
7
10
 3
20
-1.5
30
0
0
SEQEND
8
Halfen
0
POLYLINE
8
Halfen
62
7
66
1
10
0.0
20
0.0
30
0.0
70
1
0
VERTEX
8
Halfen
62
7
10
 480
20
-32.5
30
0
0
VERTEX
8
Halfen
62
7
10
 497
20
-1.5
30
0
0
VERTEX
8
Halfen
62
7
10
 488
20
-1.5
30
0
0
VERTEX
8
Halfen
62
7
10
 488
20
 32.5
30
0
0
VERTEX
8
Halfen
62
7
10
 472
20
 32.5
30
0
0
VERTEX
8
Halfen
62
7
10
 472
20
-1.5
30
0
0
VERTEX
8
Halfen
62
7
10
 463
20
-1.5
30
0
0
SEQEND
8
Halfen
0
POLYLINE
8
Halfen
62
7
66
1
10
0.0
20
0.0
30
0.0
70
1
0
VERTEX
8
Halfen
62
7
10
 140
20
-69.3
30
0
0
VERTEX
8
Halfen
62
7
10
 140
20
-56.8
30
0
0
VERTEX
8
Halfen
62
7
10
 140
20
 69.3
30
0
0
VERTEX
8
Halfen
62
7
10
 139.958
20
 70.359
30
0
0
VERTEX
8
Halfen
62
7
10
 139.834
20
 71.412
30
0
0
VERTEX
8
Halfen
62
7
10
 139.627
20
 72.452
30
0
0
VERTEX
8
Halfen
62
7
10
 139.339
20
 73.472
30
0
0
VERTEX
8
Halfen
62
7
10
 138.972
20
 74.466
30
0
0
VERTEX
8
Halfen
62
7
10
 138.529
20
 75.429
30
0
0
VERTEX
8
Halfen
62
7
10
 138.011
20
 76.354
30
0
0
VERTEX
8
Halfen
62
7
10
 137.422
20
 77.235
30
0
0
VERTEX
8
Halfen
62
7
10
 136.765
20
 78.068
30
0
0
VERTEX
8
Halfen
62
7
10
 136.046
20
 78.846
30
0
0
VERTEX
8
Halfen
62
7
10
 135.268
20
 79.565
30
0
0
VERTEX
8
Halfen
62
7
10
 134.435
20
 80.222
30
0
0
VERTEX
8
Halfen
62
7
10
 133.554
20
 80.811
30
0
0
VERTEX
8
Halfen
62
7
10
 132.629
20
 81.329
30
0
0
VERTEX
8
Halfen
62
7
10
 131.666
20
 81.772
30
0
0
VERTEX
8
Halfen
62
7
10
 130.672
20
 82.139
30
0
0
VERTEX
8
Halfen
62
7
10
 129.652
20
 82.427
30
0
0
VERTEX
8
Halfen
62
7
10
 128.612
20
 82.634
30
0
0
VERTEX
8
Halfen
62
7
10
 127.559
20
 82.758
30
0
0
VERTEX
8
Halfen
62
7
10
 126.5
20
 82.8
30
0
0
VERTEX
8
Halfen
62
7
10
 123.5
20
 82.8
30
0
0
VERTEX
8
Halfen
62
7
10
 122.441
20
 82.758
30
0
0
VERTEX
8
Halfen
62
7
10
 121.388
20
 82.634
30
0
0
VERTEX
8
Halfen
62
7
10
 120.348
20
 82.427
30
0
0
VERTEX
8
Halfen
62
7
10
 119.328
20
 82.139
30
0
0
VERTEX
8
Halfen
62
7
10
 118.334
20
 81.772
30
0
0
VERTEX
8
Halfen
62
7
10
 117.371
20
 81.329
30
0
0
VERTEX
8
Halfen
62
7
10
 116.446
20
 80.811
30
0
0
VERTEX
8
Halfen
62
7
10
 115.565
20
 80.222
30
0
0
VERTEX
8
Halfen
62
7
10
 114.732
20
 79.565
30
0
0
VERTEX
8
Halfen
62
7
10
 113.954
20
 78.846
30
0
0
VERTEX
8
Halfen
62
7
10
 113.235
20
 78.068
30
0
0
VERTEX
8
Halfen
62
7
10
 112.578
20
 77.235
30
0
0
VERTEX
8
Halfen
62
7
10
 111.989
20
 76.354
30
0
0
VERTEX
8
Halfen
62
7
10
 111.471
20
 75.429
30
0
0
VERTEX
8
Halfen
62
7
10
 111.028
20
 74.466
30
0
0
VERTEX
8
Halfen
62
7
10
 110.661
20
 73.472
30
0
0
VERTEX
8
Halfen
62
7
10
 110.373
20
 72.452
30
0
0
VERTEX
8
Halfen
62
7
10
 110.166
20
 71.412
30
0
0
VERTEX
8
Halfen
62
7
10
 110.042
20
 70.359
30
0
0
VERTEX
8
Halfen
62
7
10
 110
20
 69.3
30
0
0
VERTEX
8
Halfen
62
7
10
 110
20
-56.8
30
0
0
VERTEX
8
Halfen
62
7
10
 110
20
-69.3
30
0
0
VERTEX
8
Halfen
62
7
10
 110.042
20
-70.359
30
0
0
VERTEX
8
Halfen
62
7
10
 110.166
20
-71.412
30
0
0
VERTEX
8
Halfen
62
7
10
 110.373
20
-72.452
30
0
0
VERTEX
8
Halfen
62
7
10
 110.661
20
-73.472
30
0
0
VERTEX
8
Halfen
62
7
10
 111.028
20
-74.466
30
0
0
VERTEX
8
Halfen
62
7
10
 111.471
20
-75.429
30
0
0
VERTEX
8
Halfen
62
7
10
 111.989
20
-76.354
30
0
0
VERTEX
8
Halfen
62
7
10
 112.578
20
-77.235
30
0
0
VERTEX
8
Halfen
62
7
10
 113.235
20
-78.068
30
0
0
VERTEX
8
Halfen
62
7
10
 113.954
20
-78.846
30
0
0
VERTEX
8
Halfen
62
7
10
 114.732
20
-79.565
30
0
0
VERTEX
8
Halfen
62
7
10
 115.565
20
-80.222
30
0
0
VERTEX
8
Halfen
62
7
10
 116.446
20
-80.811
30
0
0
VERTEX
8
Halfen
62
7
10
 117.371
20
-81.329
30
0
0
VERTEX
8
Halfen
62
7
10
 118.334
20
-81.772
30
0
0
VERTEX
8
Halfen
62
7
10
 119.328
20
-82.139
30
0
0
VERTEX
8
Halfen
62
7
10
 120.348
20
-82.427
30
0
0
VERTEX
8
Halfen
62
7
10
 121.388
20
-82.634
30
0
0
VERTEX
8
Halfen
62
7
10
 122.441
20
-82.758
30
0
0
VERTEX
8
Halfen
62
7
10
 123.5
20
-82.8
30
0
0
VERTEX
8
Halfen
62
7
10
 126.5
20
-82.8
30
0
0
VERTEX
8
Halfen
62
7
10
 127.559
20
-82.758
30
0
0
VERTEX
8
Halfen
62
7
10
 128.612
20
-82.634
30
0
0
VERTEX
8
Halfen
62
7
10
 129.652
20
-82.427
30
0
0
VERTEX
8
Halfen
62
7
10
 130.672
20
-82.139
30
0
0
VERTEX
8
Halfen
62
7
10
 131.666
20
-81.772
30
0
0
VERTEX
8
Halfen
62
7
10
 132.629
20
-81.329
30
0
0
VERTEX
8
Halfen
62
7
10
 133.554
20
-80.811
30
0
0
VERTEX
8
Halfen
62
7
10
 134.435
20
-80.222
30
0
0
VERTEX
8
Halfen
62
7
10
 135.268
20
-79.565
30
0
0
VERTEX
8
Halfen
62
7
10
 136.046
20
-78.846
30
0
0
VERTEX
8
Halfen
62
7
10
 136.765
20
-78.068
30
0
0
VERTEX
8
Halfen
62
7
10
 137.422
20
-77.235
30
0
0
VERTEX
8
Halfen
62
7
10
 138.011
20
-76.354
30
0
0
VERTEX
8
Halfen
62
7
10
 138.529
20
-75.429
30
0
0
VERTEX
8
Halfen
62
7
10
 138.972
20
-74.466
30
0
0
VERTEX
8
Halfen
62
7
10
 139.339
20
-73.472
30
0
0
VERTEX
8
Halfen
62
7
10
 139.627
20
-72.452
30
0
0
VERTEX
8
Halfen
62
7
10
 139.834
20
-71.412
30
0
0
VERTEX
8
Halfen
62
7
10
 139.958
20
-70.359
30
0
0
VERTEX
8
Halfen
62
7
10
 140
20
-69.3
30
0
0
SEQEND
8
Halfen
0
POLYLINE
8
Halfen
62
7
66
1
10
0.0
20
0.0
30
0.0
70
1
0
VERTEX
8
Halfen
62
7
10
 265
20
-69.3
30
0
0
VERTEX
8
Halfen
62
7
10
 265
20
-56.8
30
0
0
VERTEX
8
Halfen
62
7
10
 265
20
 69.3
30
0
0
VERTEX
8
Halfen
62
7
10
 264.958
20
 70.359
30
0
0
VERTEX
8
Halfen
62
7
10
 264.834
20
 71.412
30
0
0
VERTEX
8
Halfen
62
7
10
 264.627
20
 72.452
30
0
0
VERTEX
8
Halfen
62
7
10
 264.339
20
 73.472
30
0
0
VERTEX
8
Halfen
62
7
10
 263.972
20
 74.466
30
0
0
VERTEX
8
Halfen
62
7
10
 263.529
20
 75.429
30
0
0
VERTEX
8
Halfen
62
7
10
 263.011
20
 76.354
30
0
0
VERTEX
8
Halfen
62
7
10
 262.422
20
 77.235
30
0
0
VERTEX
8
Halfen
62
7
10
 261.765
20
 78.068
30
0
0
VERTEX
8
Halfen
62
7
10
 261.046
20
 78.846
30
0
0
VERTEX
8
Halfen
62
7
10
 260.268
20
 79.565
30
0
0
VERTEX
8
Halfen
62
7
10
 259.435
20
 80.222
30
0
0
VERTEX
8
Halfen
62
7
10
 258.554
20
 80.811
30
0
0
VERTEX
8
Halfen
62
7
10
 257.629
20
 81.329
30
0
0
VERTEX
8
Halfen
62
7
10
 256.666
20
 81.772
30
0
0
VERTEX
8
Halfen
62
7
10
 255.672
20
 82.139
30
0
0
VERTEX
8
Halfen
62
7
10
 254.652
20
 82.427
30
0
0
VERTEX
8
Halfen
62
7
10
 253.612
20
 82.634
30
0
0
VERTEX
8
Halfen
62
7
10
 252.559
20
 82.758
30
0
0
VERTEX
8
Halfen
62
7
10
 251.5
20
 82.8
30
0
0
VERTEX
8
Halfen
62
7
10
 248.5
20
 82.8
30
0
0
VERTEX
8
Halfen
62
7
10
 247.441
20
 82.758
30
0
0
VERTEX
8
Halfen
62
7
10
 246.388
20
 82.634
30
0
0
VERTEX
8
Halfen
62
7
10
 245.348
20
 82.427
30
0
0
VERTEX
8
Halfen
62
7
10
 244.328
20
 82.139
30
0
0
VERTEX
8
Halfen
62
7
10
 243.334
20
 81.772
30
0
0
VERTEX
8
Halfen
62
7
10
 242.371
20
 81.329
30
0
0
VERTEX
8
Halfen
62
7
10
 241.446
20
 80.811
30
0
0
VERTEX
8
Halfen
62
7
10
 240.565
20
 80.222
30
0
0
VERTEX
8
Halfen
62
7
10
 239.732
20
 79.565
30
0
0
VERTEX
8
Halfen
62
7
10
 238.954
20
 78.846
30
0
0
VERTEX
8
Halfen
62
7
10
 238.235
20
 78.068
30
0
0
VERTEX
8
Halfen
62
7
10
 237.578
20
 77.235
30
0
0
VERTEX
8
Halfen
62
7
10
 236.989
20
 76.354
30
0
0
VERTEX
8
Halfen
62
7
10
 236.471
20
 75.429
30
0
0
VERTEX
8
Halfen
62
7
10
 236.028
20
 74.466
30
0
0
VERTEX
8
Halfen
62
7
10
 235.661
20
 73.472
30
0
0
VERTEX
8
Halfen
62
7
10
 235.373
20
 72.452
30
0
0
VERTEX
8
Halfen
62
7
10
 235.166
20
 71.412
30
0
0
VERTEX
8
Halfen
62
7
10
 235.042
20
 70.359
30
0
0
VERTEX
8
Halfen
62
7
10
 235
20
 69.3
30
0
0
VERTEX
8
Halfen
62
7
10
 235
20
-56.8
30
0
0
VERTEX
8
Halfen
62
7
10
 235
20
-69.3
30
0
0
VERTEX
8
Halfen
62
7
10
 235.042
20
-70.359
30
0
0
VERTEX
8
Halfen
62
7
10
 235.166
20
-71.412
30
0
0
VERTEX
8
Halfen
62
7
10
 235.373
20
-72.452
30
0
0
VERTEX
8
Halfen
62
7
10
 235.661
20
-73.472
30
0
0
VERTEX
8
Halfen
62
7
10
 236.028
20
-74.466
30
0
0
VERTEX
8
Halfen
62
7
10
 236.471
20
-75.429
30
0
0
VERTEX
8
Halfen
62
7
10
 236.989
20
-76.354
30
0
0
VERTEX
8
Halfen
62
7
10
 237.578
20
-77.235
30
0
0
VERTEX
8
Halfen
62
7
10
 238.235
20
-78.068
30
0
0
VERTEX
8
Halfen
62
7
10
 238.954
20
-78.846
30
0
0
VERTEX
8
Halfen
62
7
10
 239.732
20
-79.565
30
0
0
VERTEX
8
Halfen
62
7
10
 240.565
20
-80.222
30
0
0
VERTEX
8
Halfen
62
7
10
 241.446
20
-80.811
30
0
0
VERTEX
8
Halfen
62
7
10
 242.371
20
-81.329
30
0
0
VERTEX
8
Halfen
62
7
10
 243.334
20
-81.772
30
0
0
VERTEX
8
Halfen
62
7
10
 244.328
20
-82.139
30
0
0
VERTEX
8
Halfen
62
7
10
 245.348
20
-82.427
30
0
0
VERTEX
8
Halfen
62
7
10
 246.388
20
-82.634
30
0
0
VERTEX
8
Halfen
62
7
10
 247.441
20
-82.758
30
0
0
VERTEX
8
Halfen
62
7
10
 248.5
20
-82.8
30
0
0
VERTEX
8
Halfen
62
7
10
 251.5
20
-82.8
30
0
0
VERTEX
8
Halfen
62
7
10
 252.559
20
-82.758
30
0
0
VERTEX
8
Halfen
62
7
10
 253.612
20
-82.634
30
0
0
VERTEX
8
Halfen
62
7
10
 254.652
20
-82.427
30
0
0
VERTEX
8
Halfen
62
7
10
 255.672
20
-82.139
30
0
0
VERTEX
8
Halfen
62
7
10
 256.666
20
-81.772
30
0
0
VERTEX
8
Halfen
62
7
10
 257.629
20
-81.329
30
0
0
VERTEX
8
Halfen
62
7
10
 258.554
20
-80.811
30
0
0
VERTEX
8
Halfen
62
7
10
 259.435
20
-80.222
30
0
0
VERTEX
8
Halfen
62
7
10
 260.268
20
-79.565
30
0
0
VERTEX
8
Halfen
62
7
10
 261.046
20
-78.846
30
0
0
VERTEX
8
Halfen
62
7
10
 261.765
20
-78.068
30
0
0
VERTEX
8
Halfen
62
7
10
 262.422
20
-77.235
30
0
0
VERTEX
8
Halfen
62
7
10
 263.011
20
-76.354
30
0
0
VERTEX
8
Halfen
62
7
10
 263.529
20
-75.429
30
0
0
VERTEX
8
Halfen
62
7
10
 263.972
20
-74.466
30
0
0
VERTEX
8
Halfen
62
7
10
 264.339
20
-73.472
30
0
0
VERTEX
8
Halfen
62
7
10
 264.627
20
-72.452
30
0
0
VERTEX
8
Halfen
62
7
10
 264.834
20
-71.412
30
0
0
VERTEX
8
Halfen
62
7
10
 264.958
20
-70.359
30
0
0
VERTEX
8
Halfen
62
7
10
 265
20
-69.3
30
0
0
SEQEND
8
Halfen
0
POLYLINE
8
Halfen
62
7
66
1
10
0.0
20
0.0
30
0.0
70
1
0
VERTEX
8
Halfen
62
7
10
 390
20
-69.3
30
0
0
VERTEX
8
Halfen
62
7
10
 390
20
-56.8
30
0
0
VERTEX
8
Halfen
62
7
10
 390
20
 69.3
30
0
0
VERTEX
8
Halfen
62
7
10
 389.958
20
 70.359
30
0
0
VERTEX
8
Halfen
62
7
10
 389.834
20
 71.412
30
0
0
VERTEX
8
Halfen
62
7
10
 389.627
20
 72.452
30
0
0
VERTEX
8
Halfen
62
7
10
 389.339
20
 73.472
30
0
0
VERTEX
8
Halfen
62
7
10
 388.972
20
 74.466
30
0
0
VERTEX
8
Halfen
62
7
10
 388.529
20
 75.429
30
0
0
VERTEX
8
Halfen
62
7
10
 388.011
20
 76.354
30
0
0
VERTEX
8
Halfen
62
7
10
 387.422
20
 77.235
30
0
0
VERTEX
8
Halfen
62
7
10
 386.765
20
 78.068
30
0
0
VERTEX
8
Halfen
62
7
10
 386.046
20
 78.846
30
0
0
VERTEX
8
Halfen
62
7
10
 385.268
20
 79.565
30
0
0
VERTEX
8
Halfen
62
7
10
 384.435
20
 80.222
30
0
0
VERTEX
8
Halfen
62
7
10
 383.554
20
 80.811
30
0
0
VERTEX
8
Halfen
62
7
10
 382.629
20
 81.329
30
0
0
VERTEX
8
Halfen
62
7
10
 381.666
20
 81.772
30
0
0
VERTEX
8
Halfen
62
7
10
 380.672
20
 82.139
30
0
0
VERTEX
8
Halfen
62
7
10
 379.652
20
 82.427
30
0
0
VERTEX
8
Halfen
62
7
10
 378.612
20
 82.634
30
0
0
VERTEX
8
Halfen
62
7
10
 377.559
20
 82.758
30
0
0
VERTEX
8
Halfen
62
7
10
 376.5
20
 82.8
30
0
0
VERTEX
8
Halfen
62
7
10
 373.5
20
 82.8
30
0
0
VERTEX
8
Halfen
62
7
10
 372.441
20
 82.758
30
0
0
VERTEX
8
Halfen
62
7
10
 371.388
20
 82.634
30
0
0
VERTEX
8
Halfen
62
7
10
 370.348
20
 82.427
30
0
0
VERTEX
8
Halfen
62
7
10
 369.328
20
 82.139
30
0
0
VERTEX
8
Halfen
62
7
10
 368.334
20
 81.772
30
0
0
VERTEX
8
Halfen
62
7
10
 367.371
20
 81.329
30
0
0
VERTEX
8
Halfen
62
7
10
 366.446
20
 80.811
30
0
0
VERTEX
8
Halfen
62
7
10
 365.565
20
 80.222
30
0
0
VERTEX
8
Halfen
62
7
10
 364.732
20
 79.565
30
0
0
VERTEX
8
Halfen
62
7
10
 363.954
20
 78.846
30
0
0
VERTEX
8
Halfen
62
7
10
 363.235
20
 78.068
30
0
0
VERTEX
8
Halfen
62
7
10
 362.578
20
 77.235
30
0
0
VERTEX
8
Halfen
62
7
10
 361.989
20
 76.354
30
0
0
VERTEX
8
Halfen
62
7
10
 361.471
20
 75.429
30
0
0
VERTEX
8
Halfen
62
7
10
 361.028
20
 74.466
30
0
0
VERTEX
8
Halfen
62
7
10
 360.661
20
 73.472
30
0
0
VERTEX
8
Halfen
62
7
10
 360.373
20
 72.452
30
0
0
VERTEX
8
Halfen
62
7
10
 360.166
20
 71.412
30
0
0
VERTEX
8
Halfen
62
7
10
 360.042
20
 70.359
30
0
0
VERTEX
8
Halfen
62
7
10
 360
20
 69.3
30
0
0
VERTEX
8
Halfen
62
7
10
 360
20
-56.8
30
0
0
VERTEX
8
Halfen
62
7
10
 360
20
-69.3
30
0
0
VERTEX
8
Halfen
62
7
10
 360.042
20
-70.359
30
0
0
VERTEX
8
Halfen
62
7
10
 360.166
20
-71.412
30
0
0
VERTEX
8
Halfen
62
7
10
 360.373
20
-72.452
30
0
0
VERTEX
8
Halfen
62
7
10
 360.661
20
-73.472
30
0
0
VERTEX
8
Halfen
62
7
10
 361.028
20
-74.466
30
0
0
VERTEX
8
Halfen
62
7
10
 361.471
20
-75.429
30
0
0
VERTEX
8
Halfen
62
7
10
 361.989
20
-76.354
30
0
0
VERTEX
8
Halfen
62
7
10
 362.578
20
-77.235
30
0
0
VERTEX
8
Halfen
62
7
10
 363.235
20
-78.068
30
0
0
VERTEX
8
Halfen
62
7
10
 363.954
20
-78.846
30
0
0
VERTEX
8
Halfen
62
7
10
 364.732
20
-79.565
30
0
0
VERTEX
8
Halfen
62
7
10
 365.565
20
-80.222
30
0
0
VERTEX
8
Halfen
62
7
10
 366.446
20
-80.811
30
0
0
VERTEX
8
Halfen
62
7
10
 367.371
20
-81.329
30
0
0
VERTEX
8
Halfen
62
7
10
 368.334
20
-81.772
30
0
0
VERTEX
8
Halfen
62
7
10
 369.328
20
-82.139
30
0
0
VERTEX
8
Halfen
62
7
10
 370.348
20
-82.427
30
0
0
VERTEX
8
Halfen
62
7
10
 371.388
20
-82.634
30
0
0
VERTEX
8
Halfen
62
7
10
 372.441
20
-82.758
30
0
0
VERTEX
8
Halfen
62
7
10
 373.5
20
-82.8
30
0
0
VERTEX
8
Halfen
62
7
10
 376.5
20
-82.8
30
0
0
VERTEX
8
Halfen
62
7
10
 377.559
20
-82.758
30
0
0
VERTEX
8
Halfen
62
7
10
 378.612
20
-82.634
30
0
0
VERTEX
8
Halfen
62
7
10
 379.652
20
-82.427
30
0
0
VERTEX
8
Halfen
62
7
10
 380.672
20
-82.139
30
0
0
VERTEX
8
Halfen
62
7
10
 381.666
20
-81.772
30
0
0
VERTEX
8
Halfen
62
7
10
 382.629
20
-81.329
30
0
0
VERTEX
8
Halfen
62
7
10
 383.554
20
-80.811
30
0
0
VERTEX
8
Halfen
62
7
10
 384.435
20
-80.222
30
0
0
VERTEX
8
Halfen
62
7
10
 385.268
20
-79.565
30
0
0
VERTEX
8
Halfen
62
7
10
 386.046
20
-78.846
30
0
0
VERTEX
8
Halfen
62
7
10
 386.765
20
-78.068
30
0
0
VERTEX
8
Halfen
62
7
10
 387.422
20
-77.235
30
0
0
VERTEX
8
Halfen
62
7
10
 388.011
20
-76.354
30
0
0
VERTEX
8
Halfen
62
7
10
 388.529
20
-75.429
30
0
0
VERTEX
8
Halfen
62
7
10
 388.972
20
-74.466
30
0
0
VERTEX
8
Halfen
62
7
10
 389.339
20
-73.472
30
0
0
VERTEX
8
Halfen
62
7
10
 389.627
20
-72.452
30
0
0
VERTEX
8
Halfen
62
7
10
 389.834
20
-71.412
30
0
0
VERTEX
8
Halfen
62
7
10
 389.958
20
-70.359
30
0
0
VERTEX
8
Halfen
62
7
10
 390
20
-69.3
30
0
0
SEQEND
8
Halfen
0
POLYLINE
8
Halfen
62
7
66
1
10
0.0
20
0.0
30
0.0
70
1
0
VERTEX
8
Halfen
62
7
10
 75
20
-696.961
30
0
0
VERTEX
8
Halfen
62
7
10
 75
20
 705.246
30
0
0
VERTEX
8
Halfen
62
7
10
 65
20
 705.246
30
0
0
VERTEX
8
Halfen
62
7
10
 65
20
-696.961
30
0
0
SEQEND
8
Halfen
0
POLYLINE
8
Halfen
62
7
66
1
10
0.0
20
0.0
30
0.0
70
1
0
VERTEX
8
Halfen
62
7
10
 195
20
-696.961
30
0
0
VERTEX
8
Halfen
62
7
10
 195
20
 705.246
30
0
0
VERTEX
8
Halfen
62
7
10
 185
20
 705.246
30
0
0
VERTEX
8
Halfen
62
7
10
 185
20
-696.961
30
0
0
SEQEND
8
Halfen
0
POLYLINE
8
Halfen
62
7
66
1
10
0.0
20
0.0
30
0.0
70
1
0
VERTEX
8
Halfen
62
7
10
 325
20
-696.961
30
0
0
VERTEX
8
Halfen
62
7
10
 325
20
 705.246
30
0
0
VERTEX
8
Halfen
62
7
10
 315
20
 705.246
30
0
0
VERTEX
8
Halfen
62
7
10
 315
20
-696.961
30
0
0
SEQEND
8
Halfen
0
POLYLINE
8
Halfen
62
7
66
1
10
0.0
20
0.0
30
0.0
70
1
0
VERTEX
8
Halfen
62
7
10
 445
20
-696.961
30
0
0
VERTEX
8
Halfen
62
7
10
 445
20
 705.246
30
0
0
VERTEX
8
Halfen
62
7
10
 435
20
 705.246
30
0
0
VERTEX
8
Halfen
62
7
10
 435
20
-696.961
30
0
0
SEQEND
8
Halfen
0
POLYLINE
8
Halfen
62
7
66
1
10
0.0
20
0.0
30
0.0
70
1
0
VERTEX
8
Halfen
62
7
10
 435
20
-696.961
30
0
0
VERTEX
8
Halfen
62
7
10
 435
20
 705.246
30
0
0
VERTEX
8
Halfen
62
7
10
 425
20
 705.246
30
0
0
VERTEX
8
Halfen
62
7
10
 425
20
-696.961
30
0
0
SEQEND
8
Halfen
0
POLYLINE
8
Halfen
62
7
66
1
10
0.0
20
0.0
30
0.0
70
1
0
VERTEX
8
Halfen
62
7
10
 315
20
-696.961
30
0
0
VERTEX
8
Halfen
62
7
10
 315
20
 705.246
30
0
0
VERTEX
8
Halfen
62
7
10
 305
20
 705.246
30
0
0
VERTEX
8
Halfen
62
7
10
 305
20
-696.961
30
0
0
SEQEND
8
Halfen
0
POLYLINE
8
Halfen
62
7
66
1
10
0.0
20
0.0
30
0.0
70
1
0
VERTEX
8
Halfen
62
7
10
 185
20
-696.961
30
0
0
VERTEX
8
Halfen
62
7
10
 185
20
 705.246
30
0
0
VERTEX
8
Halfen
62
7
10
 175
20
 705.246
30
0
0
VERTEX
8
Halfen
62
7
10
 175
20
-696.961
30
0
0
SEQEND
8
Halfen
0
POLYLINE
8
Halfen
62
7
66
1
10
0.0
20
0.0
30
0.0
70
1
0
VERTEX
8
Halfen
62
7
10
 65
20
-696.961
30
0
0
VERTEX
8
Halfen
62
7
10
 65
20
 705.246
30
0
0
VERTEX
8
Halfen
62
7
10
 55
20
 705.246
30
0
0
VERTEX
8
Halfen
62
7
10
 55
20
-696.961
30
0
0
SEQEND
8
Halfen
0
POLYLINE
8
Halfen
62
7
66
1
10
0.0
20
0.0
30
0.0
70
1
0
VERTEX
8
Halfen
62
7
10
 950
20
-60
30
0
0
VERTEX
8
Halfen
62
7
10
 950
20
 60
30
0
0
VERTEX
8
Halfen
62
7
10
 936.5
20
 73.5
30
0
0
VERTEX
8
Halfen
62
7
10
 936.5
20
 60
30
0
0
VERTEX
8
Halfen
62
7
10
 750
20
 60
30
0
0
VERTEX
8
Halfen
62
7
10
 750
20
-60
30
0
0
VERTEX
8
Halfen
62
7
10
 936.5
20
-60
30
0
0
VERTEX
8
Halfen
62
7
10
 936.5
20
-73.5
30
0
0
SEQEND
8
Halfen
0
POLYLINE
8
Halfen
62
7
66
1
10
0.0
20
0.0
30
0.0
70
1
0
VERTEX
8
Halfen
62
7
10
 750
20
-60
30
0
0
VERTEX
8
Halfen
62
7
10
 750
20
 60
30
0
0
VERTEX
8
Halfen
62
7
10
 713.5
20
 60
30
0
0
VERTEX
8
Halfen
62
7
10
 713.5
20
 73.5
30
0
0
VERTEX
8
Halfen
62
7
10
 700
20
 60
30
0
0
VERTEX
8
Halfen
62
7
10
 700
20
-60
30
0
0
VERTEX
8
Halfen
62
7
10
 713.5
20
-73.5
30
0
0
VERTEX
8
Halfen
62
7
10
 713.5
20
-60
30
0
0
SEQEND
8
Halfen
0
POLYLINE
8
Halfen
62
7
66
1
10
0.0
20
0.0
30
0.0
70
1
0
VERTEX
8
Halfen
62
7
10
 947.5
20
-58.75
30
0
0
VERTEX
8
Halfen
62
7
10
 947.5
20
 58.75
30
0
0
VERTEX
8
Halfen
62
7
10
 939
20
 67.25
30
0
0
VERTEX
8
Halfen
62
7
10
 939
20
 58
30
0
0
VERTEX
8
Halfen
62
7
10
 752
20
 58
30
0
0
VERTEX
8
Halfen
62
7
10
 752
20
-58
30
0
0
VERTEX
8
Halfen
62
7
10
 939
20
-58
30
0
0
VERTEX
8
Halfen
62
7
10
 939
20
-67.25
30
0
0
SEQEND
8
Halfen
0
POLYLINE
8
Halfen
62
7
66
1
10
0.0
20
0.0
30
0.0
70
1
0
VERTEX
8
Halfen
62
7
10
 748
20
-58
30
0
0
VERTEX
8
Halfen
62
7
10
 748
20
 58
30
0
0
VERTEX
8
Halfen
62
7
10
 711
20
 58
30
0
0
VERTEX
8
Halfen
62
7
10
 711
20
 67.25
30
0
0
VERTEX
8
Halfen
62
7
10
 702.5
20
 58.75
30
0
0
VERTEX
8
Halfen
62
7
10
 702.5
20
-58.75
30
0
0
VERTEX
8
Halfen
62
7
10
 711
20
-67.25
30
0
0
VERTEX
8
Halfen
62
7
10
 711
20
-58
30
0
0
SEQEND
8
Halfen
0
POLYLINE
8
Halfen
62
7
66
1
10
0.0
20
0.0
30
0.0
70
1
0
VERTEX
8
Halfen
62
7
10
 935
20
-81.8
30
0
0
VERTEX
8
Halfen
62
7
10
 935
20
 81.8
30
0
0
VERTEX
8
Halfen
62
7
10
 931
20
 81.8
30
0
0
VERTEX
8
Halfen
62
7
10
 930.846
20
 81.797
30
0
0
VERTEX
8
Halfen
62
7
10
 930.691
20
 81.786
30
0
0
VERTEX
8
Halfen
62
7
10
 930.538
20
 81.769
30
0
0
VERTEX
8
Halfen
62
7
10
 930.385
20
 81.746
30
0
0
VERTEX
8
Halfen
62
7
10
 930.234
20
 81.715
30
0
0
VERTEX
8
Halfen
62
7
10
 930.084
20
 81.678
30
0
0
VERTEX
8
Halfen
62
7
10
 929.936
20
 81.634
30
0
0
VERTEX
8
Halfen
62
7
10
 929.789
20
 81.584
30
0
0
VERTEX
8
Halfen
62
7
10
 929.646
20
 81.527
30
0
0
VERTEX
8
Halfen
62
7
10
 929.505
20
 81.464
30
0
0
VERTEX
8
Halfen
62
7
10
 929.366
20
 81.395
30
0
0
VERTEX
8
Halfen
62
7
10
 929.231
20
 81.32
30
0
0
VERTEX
8
Halfen
62
7
10
 929.1
20
 81.239
30
0
0
VERTEX
8
Halfen
62
7
10
 928.972
20
 81.153
30
0
0
VERTEX
8
Halfen
62
7
10
 928.848
20
 81.06
30
0
0
VERTEX
8
Halfen
62
7
10
 928.728
20
 80.963
30
0
0
VERTEX
8
Halfen
62
7
10
 928.613
20
 80.86
30
0
0
VERTEX
8
Halfen
62
7
10
 928.502
20
 80.752
30
0
0
VERTEX
8
Halfen
62
7
10
 928.397
20
 80.639
30
0
0
VERTEX
8
Halfen
62
7
10
 928.296
20
 80.522
30
0
0
VERTEX
8
Halfen
62
7
10
 927.41
20
 79.491
30
0
0
VERTEX
8
Halfen
62
7
10
 926.479
20
 78.5
30
0
0
VERTEX
8
Halfen
62
7
10
 925.505
20
 77.551
30
0
0
VERTEX
8
Halfen
62
7
10
 924.491
20
 76.646
30
0
0
VERTEX
8
Halfen
62
7
10
 923.437
20
 75.787
30
0
0
VERTEX
8
Halfen
62
7
10
 922.347
20
 74.975
30
0
0
VERTEX
8
Halfen
62
7
10
 921.222
20
 74.211
30
0
0
VERTEX
8
Halfen
62
7
10
 920.064
20
 73.499
30
0
0
VERTEX
8
Halfen
62
7
10
 918.876
20
 72.838
30
0
0
VERTEX
8
Halfen
62
7
10
 917.66
20
 72.23
30
0
0
VERTEX
8
Halfen
62
7
10
 916.418
20
 71.676
30
0
0
VERTEX
8
Halfen
62
7
10
 915.153
20
 71.178
30
0
0
VERTEX
8
Halfen
62
7
10
 913.867
20
 70.736
30
0
0
VERTEX
8
Halfen
62
7
10
 912.563
20
 70.351
30
0
0
VERTEX
8
Halfen
62
7
10
 911.243
20
 70.024
30
0
0
VERTEX
8
Halfen
62
7
10
 909.911
20
 69.756
30
0
0
VERTEX
8
Halfen
62
7
10
 908.567
20
 69.547
30
0
0
VERTEX
8
Halfen
62
7
10
 907.216
20
 69.397
30
0
0
VERTEX
8
Halfen
62
7
10
 905.859
20
 69.307
30
0
0
VERTEX
8
Halfen
62
7
10
 904.5
20
 69.277
30
0
0
VERTEX
8
Halfen
62
7
10
 882.5
20
 69.277
30
0
0
VERTEX
8
Halfen
62
7
10
 881.141
20
 69.307
30
0
0
VERTEX
8
Halfen
62
7
10
 879.784
20
 69.397
30
0
0
VERTEX
8
Halfen
62
7
10
 878.433
20
 69.547
30
0
0
VERTEX
8
Halfen
62
7
10
 877.089
20
 69.756
30
0
0
VERTEX
8
Halfen
62
7
10
 875.757
20
 70.024
30
0
0
VERTEX
8
Halfen
62
7
10
 874.437
20
 70.351
30
0
0
VERTEX
8
Halfen
62
7
10
 873.133
20
 70.736
30
0
0
VERTEX
8
Halfen
62
7
10
 871.847
20
 71.178
30
0
0
VERTEX
8
Halfen
62
7
10
 870.582
20
 71.676
30
0
0
VERTEX
8
Halfen
62
7
10
 869.34
20
 72.23
30
0
0
VERTEX
8
Halfen
62
7
10
 868.124
20
 72.838
30
0
0
VERTEX
8
Halfen
62
7
10
 866.936
20
 73.499
30
0
0
VERTEX
8
Halfen
62
7
10
 865.778
20
 74.211
30
0
0
VERTEX
8
Halfen
62
7
10
 864.653
20
 74.975
30
0
0
VERTEX
8
Halfen
62
7
10
 863.563
20
 75.787
30
0
0
VERTEX
8
Halfen
62
7
10
 862.509
20
 76.646
30
0
0
VERTEX
8
Halfen
62
7
10
 861.495
20
 77.551
30
0
0
VERTEX
8
Halfen
62
7
10
 860.521
20
 78.5
30
0
0
VERTEX
8
Halfen
62
7
10
 859.59
20
 79.491
30
0
0
VERTEX
8
Halfen
62
7
10
 858.704
20
 80.522
30
0
0
VERTEX
8
Halfen
62
7
10
 858.603
20
 80.639
30
0
0
VERTEX
8
Halfen
62
7
10
 858.498
20
 80.752
30
0
0
VERTEX
8
Halfen
62
7
10
 858.387
20
 80.86
30
0
0
VERTEX
8
Halfen
62
7
10
 858.272
20
 80.963
30
0
0
VERTEX
8
Halfen
62
7
10
 858.152
20
 81.06
30
0
0
VERTEX
8
Halfen
62
7
10
 858.028
20
 81.153
30
0
0
VERTEX
8
Halfen
62
7
10
 857.9
20
 81.239
30
0
0
VERTEX
8
Halfen
62
7
10
 857.769
20
 81.32
30
0
0
VERTEX
8
Halfen
62
7
10
 857.634
20
 81.395
30
0
0
VERTEX
8
Halfen
62
7
10
 857.495
20
 81.464
30
0
0
VERTEX
8
Halfen
62
7
10
 857.354
20
 81.527
30
0
0
VERTEX
8
Halfen
62
7
10
 857.211
20
 81.584
30
0
0
VERTEX
8
Halfen
62
7
10
 857.064
20
 81.634
30
0
0
VERTEX
8
Halfen
62
7
10
 856.916
20
 81.678
30
0
0
VERTEX
8
Halfen
62
7
10
 856.766
20
 81.715
30
0
0
VERTEX
8
Halfen
62
7
10
 856.615
20
 81.746
30
0
0
VERTEX
8
Halfen
62
7
10
 856.462
20
 81.769
30
0
0
VERTEX
8
Halfen
62
7
10
 856.309
20
 81.786
30
0
0
VERTEX
8
Halfen
62
7
10
 856.154
20
 81.797
30
0
0
VERTEX
8
Halfen
62
7
10
 856
20
 81.8
30
0
0
VERTEX
8
Halfen
62
7
10
 852
20
 81.8
30
0
0
VERTEX
8
Halfen
62
7
10
 852
20
-81.8
30
0
0
VERTEX
8
Halfen
62
7
10
 856
20
-81.8
30
0
0
VERTEX
8
Halfen
62
7
10
 856.154
20
-81.797
30
0
0
VERTEX
8
Halfen
62
7
10
 856.309
20
-81.786
30
0
0
VERTEX
8
Halfen
62
7
10
 856.462
20
-81.769
30
0
0
VERTEX
8
Halfen
62
7
10
 856.615
20
-81.746
30
0
0
VERTEX
8
Halfen
62
7
10
 856.766
20
-81.715
30
0
0
VERTEX
8
Halfen
62
7
10
 856.916
20
-81.678
30
0
0
VERTEX
8
Halfen
62
7
10
 857.064
20
-81.634
30
0
0
VERTEX
8
Halfen
62
7
10
 857.211
20
-81.584
30
0
0
VERTEX
8
Halfen
62
7
10
 857.354
20
-81.527
30
0
0
VERTEX
8
Halfen
62
7
10
 857.495
20
-81.464
30
0
0
VERTEX
8
Halfen
62
7
10
 857.634
20
-81.395
30
0
0
VERTEX
8
Halfen
62
7
10
 857.769
20
-81.32
30
0
0
VERTEX
8
Halfen
62
7
10
 857.9
20
-81.239
30
0
0
VERTEX
8
Halfen
62
7
10
 858.028
20
-81.153
30
0
0
VERTEX
8
Halfen
62
7
10
 858.152
20
-81.06
30
0
0
VERTEX
8
Halfen
62
7
10
 858.272
20
-80.963
30
0
0
VERTEX
8
Halfen
62
7
10
 858.387
20
-80.86
30
0
0
VERTEX
8
Halfen
62
7
10
 858.498
20
-80.752
30
0
0
VERTEX
8
Halfen
62
7
10
 858.603
20
-80.639
30
0
0
VERTEX
8
Halfen
62
7
10
 858.704
20
-80.522
30
0
0
VERTEX
8
Halfen
62
7
10
 859.59
20
-79.491
30
0
0
VERTEX
8
Halfen
62
7
10
 860.521
20
-78.5
30
0
0
VERTEX
8
Halfen
62
7
10
 861.495
20
-77.551
30
0
0
VERTEX
8
Halfen
62
7
10
 862.509
20
-76.646
30
0
0
VERTEX
8
Halfen
62
7
10
 863.563
20
-75.787
30
0
0
VERTEX
8
Halfen
62
7
10
 864.653
20
-74.975
30
0
0
VERTEX
8
Halfen
62
7
10
 865.778
20
-74.211
30
0
0
VERTEX
8
Halfen
62
7
10
 866.936
20
-73.499
30
0
0
VERTEX
8
Halfen
62
7
10
 868.124
20
-72.838
30
0
0
VERTEX
8
Halfen
62
7
10
 869.34
20
-72.23
30
0
0
VERTEX
8
Halfen
62
7
10
 870.582
20
-71.676
30
0
0
VERTEX
8
Halfen
62
7
10
 871.847
20
-71.178
30
0
0
VERTEX
8
Halfen
62
7
10
 873.133
20
-70.736
30
0
0
VERTEX
8
Halfen
62
7
10
 874.437
20
-70.351
30
0
0
VERTEX
8
Halfen
62
7
10
 875.757
20
-70.024
30
0
0
VERTEX
8
Halfen
62
7
10
 877.089
20
-69.756
30
0
0
VERTEX
8
Halfen
62
7
10
 878.433
20
-69.547
30
0
0
VERTEX
8
Halfen
62
7
10
 879.784
20
-69.397
30
0
0
VERTEX
8
Halfen
62
7
10
 881.141
20
-69.307
30
0
0
VERTEX
8
Halfen
62
7
10
 882.5
20
-69.277
30
0
0
VERTEX
8
Halfen
62
7
10
 904.5
20
-69.277
30
0
0
VERTEX
8
Halfen
62
7
10
 905.859
20
-69.307
30
0
0
VERTEX
8
Halfen
62
7
10
 907.216
20
-69.397
30
0
0
VERTEX
8
Halfen
62
7
10
 908.567
20
-69.547
30
0
0
VERTEX
8
Halfen
62
7
10
 909.911
20
-69.756
30
0
0
VERTEX
8
Halfen
62
7
10
 911.243
20
-70.024
30
0
0
VERTEX
8
Halfen
62
7
10
 912.563
20
-70.351
30
0
0
VERTEX
8
Halfen
62
7
10
 913.867
20
-70.736
30
0
0
VERTEX
8
Halfen
62
7
10
 915.153
20
-71.178
30
0
0
VERTEX
8
Halfen
62
7
10
 916.418
20
-71.676
30
0
0
VERTEX
8
Halfen
62
7
10
 917.66
20
-72.23
30
0
0
VERTEX
8
Halfen
62
7
10
 918.876
20
-72.838
30
0
0
VERTEX
8
Halfen
62
7
10
 920.064
20
-73.499
30
0
0
VERTEX
8
Halfen
62
7
10
 921.222
20
-74.211
30
0
0
VERTEX
8
Halfen
62
7
10
 922.347
20
-74.975
30
0
0
VERTEX
8
Halfen
62
7
10
 923.437
20
-75.787
30
0
0
VERTEX
8
Halfen
62
7
10
 924.491
20
-76.646
30
0
0
VERTEX
8
Halfen
62
7
10
 925.505
20
-77.551
30
0
0
VERTEX
8
Halfen
62
7
10
 926.479
20
-78.5
30
0
0
VERTEX
8
Halfen
62
7
10
 927.41
20
-79.491
30
0
0
VERTEX
8
Halfen
62
7
10
 928.296
20
-80.522
30
0
0
VERTEX
8
Halfen
62
7
10
 928.397
20
-80.639
30
0
0
VERTEX
8
Halfen
62
7
10
 928.502
20
-80.752
30
0
0
VERTEX
8
Halfen
62
7
10
 928.613
20
-80.86
30
0
0
VERTEX
8
Halfen
62
7
10
 928.728
20
-80.963
30
0
0
VERTEX
8
Halfen
62
7
10
 928.848
20
-81.06
30
0
0
VERTEX
8
Halfen
62
7
10
 928.972
20
-81.153
30
0
0
VERTEX
8
Halfen
62
7
10
 929.1
20
-81.239
30
0
0
VERTEX
8
Halfen
62
7
10
 929.231
20
-81.32
30
0
0
VERTEX
8
Halfen
62
7
10
 929.366
20
-81.395
30
0
0
VERTEX
8
Halfen
62
7
10
 929.505
20
-81.464
30
0
0
VERTEX
8
Halfen
62
7
10
 929.646
20
-81.527
30
0
0
VERTEX
8
Halfen
62
7
10
 929.789
20
-81.584
30
0
0
VERTEX
8
Halfen
62
7
10
 929.936
20
-81.634
30
0
0
VERTEX
8
Halfen
62
7
10
 930.084
20
-81.678
30
0
0
VERTEX
8
Halfen
62
7
10
 930.234
20
-81.715
30
0
0
VERTEX
8
Halfen
62
7
10
 930.385
20
-81.746
30
0
0
VERTEX
8
Halfen
62
7
10
 930.538
20
-81.769
30
0
0
VERTEX
8
Halfen
62
7
10
 930.691
20
-81.786
30
0
0
VERTEX
8
Halfen
62
7
10
 930.846
20
-81.797
30
0
0
VERTEX
8
Halfen
62
7
10
 931
20
-81.8
30
0
0
SEQEND
8
Halfen
0
POLYLINE
8
Halfen
62
7
66
1
10
0.0
20
0.0
30
0.0
70
1
0
VERTEX
8
Halfen
62
7
10
 920
20
-696.961
30
0
0
VERTEX
8
Halfen
62
7
10
 920
20
-95.355
30
0
0
VERTEX
8
Halfen
62
7
10
 919.508
20
-89.098
30
0
0
VERTEX
8
Halfen
62
7
10
 918.042
20
-82.995
30
0
0
VERTEX
8
Halfen
62
7
10
 915.64
20
-77.196
30
0
0
VERTEX
8
Halfen
62
7
10
 912.361
20
-71.844
30
0
0
VERTEX
8
Halfen
62
7
10
 908.284
20
-67.071
30
0
0
VERTEX
8
Halfen
62
7
10
 758.787
20
 82.426
30
0
0
VERTEX
8
Halfen
62
7
10
 755.729
20
 86.006
30
0
0
VERTEX
8
Halfen
62
7
10
 753.27
20
 90.02
30
0
0
VERTEX
8
Halfen
62
7
10
 751.468
20
 94.369
30
0
0
VERTEX
8
Halfen
62
7
10
 750.369
20
 98.947
30
0
0
VERTEX
8
Halfen
62
7
10
 750
20
 103.64
30
0
0
VERTEX
8
Halfen
62
7
10
 750
20
 166.246
30
0
0
VERTEX
8
Halfen
62
7
10
 750
20
 705.246
30
0
0
VERTEX
8
Halfen
62
7
10
 740
20
 705.246
30
0
0
VERTEX
8
Halfen
62
7
10
 740
20
 166.246
30
0
0
VERTEX
8
Halfen
62
7
10
 740
20
 103.64
30
0
0
VERTEX
8
Halfen
62
7
10
 740.492
20
 97.382
30
0
0
VERTEX
8
Halfen
62
7
10
 741.958
20
 91.279
30
0
0
VERTEX
8
Halfen
62
7
10
 744.36
20
 85.48
30
0
0
VERTEX
8
Halfen
62
7
10
 747.639
20
 80.128
30
0
0
VERTEX
8
Halfen
62
7
10
 751.716
20
 75.355
30
0
0
VERTEX
8
Halfen
62
7
10
 901.213
20
-74.142
30
0
0
VERTEX
8
Halfen
62
7
10
 904.271
20
-77.722
30
0
0
VERTEX
8
Halfen
62
7
10
 906.73
20
-81.736
30
0
0
VERTEX
8
Halfen
62
7
10
 908.532
20
-86.085
30
0
0
VERTEX
8
Halfen
62
7
10
 909.631
20
-90.662
30
0
0
VERTEX
8
Halfen
62
7
10
 910
20
-95.355
30
0
0
VERTEX
8
Halfen
62
7
10
 910
20
-696.961
30
0
0
SEQEND
8
Halfen
0
POLYLINE
8
Halfen
62
7
66
1
10
0.0
20
0.0
30
0.0
70
1
0
VERTEX
8
Halfen
62
7
10
 740
20
-696.961
30
0
0
VERTEX
8
Halfen
62
7
10
 740
20
-95.355
30
0
0
VERTEX
8
Halfen
62
7
10
 740.492
20
-89.098
30
0
0
VERTEX
8
Halfen
62
7
10
 741.958
20
-82.995
30
0
0
VERTEX
8
Halfen
62
7
10
 744.36
20
-77.196
30
0
0
VERTEX
8
Halfen
62
7
10
 747.639
20
-71.844
30
0
0
VERTEX
8
Halfen
62
7
10
 751.716
20
-67.071
30
0
0
VERTEX
8
Halfen
62
7
10
 901.213
20
 82.426
30
0
0
VERTEX
8
Halfen
62
7
10
 904.271
20
 86.006
30
0
0
VERTEX
8
Halfen
62
7
10
 906.73
20
 90.02
30
0
0
VERTEX
8
Halfen
62
7
10
 908.532
20
 94.369
30
0
0
VERTEX
8
Halfen
62
7
10
 909.631
20
 98.947
30
0
0
VERTEX
8
Halfen
62
7
10
 910
20
 103.64
30
0
0
VERTEX
8
Halfen
62
7
10
 910
20
 166.246
30
0
0
VERTEX
8
Halfen
62
7
10
 910
20
 705.246
30
0
0
VERTEX
8
Halfen
62
7
10
 920
20
 705.246
30
0
0
VERTEX
8
Halfen
62
7
10
 920
20
 166.246
30
0
0
VERTEX
8
Halfen
62
7
10
 920
20
 103.64
30
0
0
VERTEX
8
Halfen
62
7
10
 919.508
20
 97.382
30
0
0
VERTEX
8
Halfen
62
7
10
 918.042
20
 91.279
30
0
0
VERTEX
8
Halfen
62
7
10
 915.64
20
 85.48
30
0
0
VERTEX
8
Halfen
62
7
10
 912.361
20
 80.128
30
0
0
VERTEX
8
Halfen
62
7
10
 908.284
20
 75.355
30
0
0
VERTEX
8
Halfen
62
7
10
 758.787
20
-74.142
30
0
0
VERTEX
8
Halfen
62
7
10
 755.729
20
-77.722
30
0
0
VERTEX
8
Halfen
62
7
10
 753.27
20
-81.736
30
0
0
VERTEX
8
Halfen
62
7
10
 751.468
20
-86.085
30
0
0
VERTEX
8
Halfen
62
7
10
 750.369
20
-90.662
30
0
0
VERTEX
8
Halfen
62
7
10
 750
20
-95.355
30
0
0
VERTEX
8
Halfen
62
7
10
 750
20
-696.961
30
0
0
SEQEND
8
Halfen
0
ENDSEC
0
EOF
