  0
SECTION
  2
HEADER
  9
$ACADVER
  1
AC1024
  9
$ACADMAINTVER
 70
    63
  9
$DWGCODEPAGE
  3
ANSI_1252
  9
$LASTSAVEDBY
  1
uhlaender
  9
$INSBASE
 10
154.3693329414697
 20
-182.0859457634829
 30
0.0
  9
$EXTMIN
 10
-8.150847265814149
 20
-553.1118863485151
 30
-0.0015258207003583
  9
$EXTMAX
 10
317.8792827432552
 20
210.7669182693198
 30
0.0000000349246037
  9
$LIMMIN
 10
0.0
 20
0.0
  9
$LIMMAX
 10
210.0
 20
297.0
  9
$ORTHOMODE
 70
     0
  9
$REGENMODE
 70
     1
  9
$FILLMODE
 70
     1
  9
$QTEXTMODE
 70
     0
  9
$MIRRTEXT
 70
     1
  9
$LTSCALE
 40
1.0
  9
$ATTMODE
 70
     1
  9
$TEXTSIZE
 40
2.5
  9
$TRACEWID
 40
1.0
  9
$TEXTSTYLE
  7
STANDARD
  9
$CLAYER
  8
HALFEN-KONSOLANKER
  9
$CELTYPE
  6
BYLAYER
  9
$CECOLOR
 62
   256
  9
$CELTSCALE
 40
1.0
  9
$DISPSILH
 70
     0
  9
$DIMSCALE
 40
1.0
  9
$DIMASZ
 40
2.5
  9
$DIMEXO
 40
0.625
  9
$DIMDLI
 40
3.75
  9
$DIMRND
 40
0.0
  9
$DIMDLE
 40
0.0
  9
$DIMEXE
 40
1.25
  9
$DIMTP
 40
0.0
  9
$DIMTM
 40
0.0
  9
$DIMTXT
 40
2.5
  9
$DIMCEN
 40
2.5
  9
$DIMTSZ
 40
0.0
  9
$DIMTOL
 70
     0
  9
$DIMLIM
 70
     0
  9
$DIMTIH
 70
     0
  9
$DIMTOH
 70
     0
  9
$DIMSE1
 70
     0
  9
$DIMSE2
 70
     0
  9
$DIMTAD
 70
     1
  9
$DIMZIN
 70
     8
  9
$DIMBLK
  1

  9
$DIMASO
 70
     1
  9
$DIMSHO
 70
     1
  9
$DIMPOST
  1

  9
$DIMAPOST
  1

  9
$DIMALT
 70
     0
  9
$DIMALTD
 70
     4
  9
$DIMALTF
 40
0.0394
  9
$DIMLFAC
 40
1.0
  9
$DIMTOFL
 70
     1
  9
$DIMTVP
 40
0.0
  9
$DIMTIX
 70
     0
  9
$DIMSOXD
 70
     0
  9
$DIMSAH
 70
     0
  9
$DIMBLK1
  1

  9
$DIMBLK2
  1

  9
$DIMSTYLE
  2
STANDARD
  9
$DIMCLRD
 70
     0
  9
$DIMCLRE
 70
     0
  9
$DIMCLRT
 70
     0
  9
$DIMTFAC
 40
1.0
  9
$DIMGAP
 40
0.625
  9
$DIMJUST
 70
     0
  9
$DIMSD1
 70
     0
  9
$DIMSD2
 70
     0
  9
$DIMTOLJ
 70
     1
  9
$DIMTZIN
 70
     0
  9
$DIMALTZ
 70
     0
  9
$DIMALTTZ
 70
     0
  9
$DIMUPT
 70
     0
  9
$DIMDEC
 70
     4
  9
$DIMTDEC
 70
     4
  9
$DIMALTU
 70
     8
  9
$DIMALTTD
 70
     4
  9
$DIMTXSTY
  7
STANDARD
  9
$DIMAUNIT
 70
     0
  9
$DIMADEC
 70
     0
  9
$DIMALTRND
 40
0.0
  9
$DIMAZIN
 70
     0
  9
$DIMDSEP
 70
    46
  9
$DIMATFIT
 70
     3
  9
$DIMFRAC
 70
     0
  9
$DIMLDRBLK
  1

  9
$DIMLUNIT
 70
     6
  9
$DIMLWD
 70
    -2
  9
$DIMLWE
 70
    -2
  9
$DIMTMOVE
 70
     0
  9
$DIMFXL
 40
1.0
  9
$DIMFXLON
 70
     0
  9
$DIMJOGANG
 40
0.7853981633974483
  9
$DIMTFILL
 70
     0
  9
$DIMTFILLCLR
 70
     0
  9
$DIMARCSYM
 70
     0
  9
$DIMLTYPE
  6

  9
$DIMLTEX1
  6

  9
$DIMLTEX2
  6

  9
$DIMTXTDIRECTION
 70
     0
  9
$LUNITS
 70
     2
  9
$LUPREC
 70
     2
  9
$SKETCHINC
 40
1.0
  9
$FILLETRAD
 40
0.0
  9
$AUNITS
 70
     0
  9
$AUPREC
 70
     0
  9
$MENU
  1
.
  9
$ELEVATION
 40
0.0
  9
$PELEVATION
 40
0.0
  9
$THICKNESS
 40
0.0
  9
$LIMCHECK
 70
     0
  9
$CHAMFERA
 40
2.5
  9
$CHAMFERB
 40
2.5
  9
$CHAMFERC
 40
20.0
  9
$CHAMFERD
 40
0.0
  9
$SKPOLY
 70
     0
  9
$TDCREATE
 40
2452150.618534723
  9
$TDUCREATE
 40
2452150.535201389
  9
$TDUPDATE
 40
2456401.551680556
  9
$TDUUPDATE
 40
2456401.468347222
  9
$TDINDWG
 40
0.0401115046
  9
$TDUSRTIMER
 40
0.0401115046
  9
$USRTIMER
 70
     1
  9
$ANGBASE
 50
0.0
  9
$ANGDIR
 70
     0
  9
$PDMODE
 70
     0
  9
$PDSIZE
 40
0.0
  9
$PLINEWID
 40
0.0
  9
$SPLFRAME
 70
     0
  9
$SPLINETYPE
 70
     6
  9
$SPLINESEGS
 70
     8
  9
$HANDSEED
  5
1A2
  9
$SURFTAB1
 70
     6
  9
$SURFTAB2
 70
     6
  9
$SURFTYPE
 70
     6
  9
$SURFU
 70
     6
  9
$SURFV
 70
     6
  9
$UCSBASE
  2

  9
$UCSNAME
  2

  9
$UCSORG
 10
0.0
 20
0.0
 30
0.0
  9
$UCSXDIR
 10
1.0
 20
0.0
 30
0.0
  9
$UCSYDIR
 10
0.0
 20
1.0
 30
0.0
  9
$UCSORTHOREF
  2

  9
$UCSORTHOVIEW
 70
     0
  9
$UCSORGTOP
 10
0.0
 20
0.0
 30
0.0
  9
$UCSORGBOTTOM
 10
0.0
 20
0.0
 30
0.0
  9
$UCSORGLEFT
 10
0.0
 20
0.0
 30
0.0
  9
$UCSORGRIGHT
 10
0.0
 20
0.0
 30
0.0
  9
$UCSORGFRONT
 10
0.0
 20
0.0
 30
0.0
  9
$UCSORGBACK
 10
0.0
 20
0.0
 30
0.0
  9
$PUCSBASE
  2

  9
$PUCSNAME
  2

  9
$PUCSORG
 10
0.0
 20
0.0
 30
0.0
  9
$PUCSXDIR
 10
1.0
 20
0.0
 30
0.0
  9
$PUCSYDIR
 10
0.0
 20
1.0
 30
0.0
  9
$PUCSORTHOREF
  2

  9
$PUCSORTHOVIEW
 70
     0
  9
$PUCSORGTOP
 10
0.0
 20
0.0
 30
0.0
  9
$PUCSORGBOTTOM
 10
0.0
 20
0.0
 30
0.0
  9
$PUCSORGLEFT
 10
0.0
 20
0.0
 30
0.0
  9
$PUCSORGRIGHT
 10
0.0
 20
0.0
 30
0.0
  9
$PUCSORGFRONT
 10
0.0
 20
0.0
 30
0.0
  9
$PUCSORGBACK
 10
0.0
 20
0.0
 30
0.0
  9
$USERI1
 70
     0
  9
$USERI2
 70
     0
  9
$USERI3
 70
     0
  9
$USERI4
 70
     0
  9
$USERI5
 70
     0
  9
$USERR1
 40
0.0
  9
$USERR2
 40
0.0
  9
$USERR3
 40
0.0
  9
$USERR4
 40
0.0
  9
$USERR5
 40
0.0
  9
$WORLDVIEW
 70
     1
  9
$SHADEDGE
 70
     3
  9
$SHADEDIF
 70
    70
  9
$TILEMODE
 70
     1
  9
$MAXACTVP
 70
    48
  9
$PINSBASE
 10
0.0
 20
0.0
 30
0.0
  9
$PLIMCHECK
 70
     0
  9
$PEXTMIN
 10
1.000000000000000E+20
 20
1.000000000000000E+20
 30
1.000000000000000E+20
  9
$PEXTMAX
 10
-1.000000000000000E+20
 20
-1.000000000000000E+20
 30
-1.000000000000000E+20
  9
$PLIMMIN
 10
0.0
 20
0.0
  9
$PLIMMAX
 10
420.0
 20
297.0
  9
$UNITMODE
 70
     0
  9
$VISRETAIN
 70
     1
  9
$PLINEGEN
 70
     0
  9
$PSLTSCALE
 70
     1
  9
$TREEDEPTH
 70
  3020
  9
$CMLSTYLE
  2
STANDARD
  9
$CMLJUST
 70
     0
  9
$CMLSCALE
 40
20.0
  9
$PROXYGRAPHICS
 70
     1
  9
$MEASUREMENT
 70
     1
  9
$CELWEIGHT
370
    -1
  9
$ENDCAPS
280
     0
  9
$JOINSTYLE
280
     0
  9
$LWDISPLAY
290
     0
  9
$INSUNITS
 70
     4
  9
$HYPERLINKBASE
  1

  9
$STYLESHEET
  1

  9
$XEDIT
290
     1
  9
$CEPSNTYPE
380
     0
  9
$PSTYLEMODE
290
     1
  9
$FINGERPRINTGUID
  2
{FC546F1F-4548-4B16-BDD1-7890EAD050EF}
  9
$VERSIONGUID
  2
{22BB6835-8930-47D2-8E23-142560CFE943}
  9
$EXTNAMES
290
     1
  9
$PSVPSCALE
 40
0.0
  9
$OLESTARTUP
290
     0
  9
$SORTENTS
280
   127
  9
$INDEXCTL
280
     0
  9
$HIDETEXT
280
     1
  9
$XCLIPFRAME
280
     2
  9
$HALOGAP
280
     0
  9
$OBSCOLOR
 70
   257
  9
$OBSLTYPE
280
     0
  9
$INTERSECTIONDISPLAY
280
     0
  9
$INTERSECTIONCOLOR
 70
   257
  9
$DIMASSOC
280
     1
  9
$PROJECTNAME
  1

  9
$CAMERADISPLAY
290
     0
  9
$LENSLENGTH
 40
50.0
  9
$CAMERAHEIGHT
 40
0.0
  9
$STEPSPERSEC
 40
2.0
  9
$STEPSIZE
 40
6.0
  9
$3DDWFPREC
 40
2.0
  9
$PSOLWIDTH
 40
0.25
  9
$PSOLHEIGHT
 40
4.0
  9
$LOFTANG1
 40
1.570796326794896
  9
$LOFTANG2
 40
1.570796326794896
  9
$LOFTMAG1
 40
0.0
  9
$LOFTMAG2
 40
0.0
  9
$LOFTPARAM
 70
     7
  9
$LOFTNORMALS
280
     1
  9
$LATITUDE
 40
37.795
  9
$LONGITUDE
 40
-122.394
  9
$NORTHDIRECTION
 40
0.0
  9
$TIMEZONE
 70
 -8000
  9
$LIGHTGLYPHDISPLAY
280
     1
  9
$TILEMODELIGHTSYNCH
280
     1
  9
$CMATERIAL
347
143
  9
$SOLIDHIST
280
     0
  9
$SHOWHIST
280
     1
  9
$DWFFRAME
280
     2
  9
$DGNFRAME
280
     0
  9
$REALWORLDSCALE
290
     1
  9
$INTERFERECOLOR
 62
     1
  9
$INTERFEREOBJVS
345
165
  9
$INTERFEREVPVS
346
162
  9
$CSHADOW
280
     0
  9
$SHADOWPLANELOCATION
 40
0.0
  0
ENDSEC
  0
SECTION
  2
CLASSES
  0
CLASS
  1
ACDBDICTIONARYWDFLT
  2
AcDbDictionaryWithDefault
  3
ObjectDBX Classes
 90
        0
 91
        1
280
     0
281
     0
  0
CLASS
  1
TABLESTYLE
  2
AcDbTableStyle
  3
ObjectDBX Classes
 90
     4095
 91
        1
280
     0
281
     0
  0
CLASS
  1
DICTIONARYVAR
  2
AcDbDictionaryVar
  3
ObjectDBX Classes
 90
        0
 91
       10
280
     0
281
     0
  0
CLASS
  1
MATERIAL
  2
AcDbMaterial
  3
ObjectDBX Classes
 90
     1153
 91
        3
280
     0
281
     0
  0
CLASS
  1
VISUALSTYLE
  2
AcDbVisualStyle
  3
ObjectDBX Classes
 90
     4095
 91
       24
280
     0
281
     0
  0
CLASS
  1
SCALE
  2
AcDbScale
  3
ObjectDBX Classes
 90
     1153
 91
       17
280
     0
281
     0
  0
CLASS
  1
MLEADERSTYLE
  2
AcDbMLeaderStyle
  3
ACDB_MLEADERSTYLE_CLASS
 90
     4095
 91
        1
280
     0
281
     0
  0
CLASS
  1
CELLSTYLEMAP
  2
AcDbCellStyleMap
  3
ObjectDBX Classes
 90
     1152
 91
        1
280
     0
281
     0
  0
ENDSEC
  0
SECTION
  2
TABLES
  0
TABLE
  2
VPORT
  5
19
330
0
100
AcDbSymbolTable
 70
     1
  0
VPORT
  5
13B
330
19
100
AcDbSymbolTableRecord
100
AcDbViewportTableRecord
  2
*Active
 70
     0
 10
0.0
 20
0.0
 11
1.0
 21
1.0
 12
154.8642177387205
 22
-171.1724840395976
 13
0.0
 23
0.0
 14
1.0
 24
1.0
 15
10.0
 25
10.0
 16
0.0
 26
0.0
 36
1.0
 17
0.0
 27
0.0
 37
0.0
 40
769.1958264597224
 41
2.200929152148664
 42
50.0
 43
0.0
 44
0.0
 50
0.0
 51
0.0
 71
     0
 72
   100
 73
     1
 74
     1
 75
     0
 76
     0
 77
     0
 78
     0
281
     0
 65
     1
110
0.0
120
0.0
130
0.0
111
1.0
121
0.0
131
0.0
112
0.0
122
1.0
132
0.0
 79
     0
146
0.0
348
161
 60
     3
 61
     5
292
     1
282
     1
141
0.0
142
0.0
 63
   250
421
  3355443
1001
ACAD_NAV_VCDISPLAY
1070
     3
  0
ENDTAB
  0
TABLE
  2
LTYPE
  5
14
330
0
100
AcDbSymbolTable
 70
     2
  0
LTYPE
  5
15
330
14
100
AcDbSymbolTableRecord
100
AcDbLinetypeTableRecord
  2
BYBLOCK
 70
     0
  3

 72
    65
 73
     0
 40
0.0
  0
LTYPE
  5
16
330
14
100
AcDbSymbolTableRecord
100
AcDbLinetypeTableRecord
  2
BYLAYER
 70
     0
  3

 72
    65
 73
     0
 40
0.0
  0
LTYPE
  5
8
330
14
100
AcDbSymbolTableRecord
100
AcDbLinetypeTableRecord
  2
CONTINUOUS
 70
     0
  3
Solid line
 72
    65
 73
     0
 40
0.0
  0
ENDTAB
  0
TABLE
  2
LAYER
  5
10
330
0
100
AcDbSymbolTable
 70
     2
  0
LAYER
  5
4
102
{ACAD_XDICTIONARY
360
192
102
}
330
10
100
AcDbSymbolTableRecord
100
AcDbLayerTableRecord
  2
0
 70
     0
 62
     7
  6
CONTINUOUS
370
    -3
390
5
347
153
  0
LAYER
  5
25
102
{ACAD_XDICTIONARY
360
194
102
}
330
10
100
AcDbSymbolTableRecord
100
AcDbLayerTableRecord
  2
HALFEN-KONSOLANKER
 70
     0
 62
     2
  6
CONTINUOUS
370
    -3
390
5
347
153
  0
ENDTAB
  0
TABLE
  2
STYLE
  5
11
330
0
100
AcDbSymbolTable
 70
     2
  0
STYLE
  5
12
330
11
100
AcDbSymbolTableRecord
100
AcDbTextStyleTableRecord
  2
STANDARD
 70
     0
 40
0.0
 41
1.0
 50
0.0
 71
     0
 42
2.5
  3
geniso.shx
  4

  0
STYLE
  5
2D
330
11
100
AcDbSymbolTableRecord
100
AcDbTextStyleTableRecord
  2
ARIAL50
 70
     0
 40
5.0
 41
1.0
 50
0.0
 71
     0
 42
3.5
  3
ARIAL.TTF
  4

1001
ACAD
1000
Arial
1071
       34
  0
ENDTAB
  0
TABLE
  2
VIEW
  5
17
330
0
100
AcDbSymbolTable
 70
     0
  0
ENDTAB
  0
TABLE
  2
UCS
  5
18
330
0
100
AcDbSymbolTable
 70
     0
  0
ENDTAB
  0
TABLE
  2
APPID
  5
1B
330
0
100
AcDbSymbolTable
 70
     4
  0
APPID
  5
1C
330
1B
100
AcDbSymbolTableRecord
100
AcDbRegAppTableRecord
  2
ACAD
 70
     0
  0
APPID
  5
126
330
1B
100
AcDbSymbolTableRecord
100
AcDbRegAppTableRecord
  2
DCO15
 70
     0
  0
APPID
  5
18E
330
1B
100
AcDbSymbolTableRecord
100
AcDbRegAppTableRecord
  2
ACAD_EXEMPT_FROM_CAD_STANDARDS
 70
     0
  0
APPID
  5
19C
330
1B
100
AcDbSymbolTableRecord
100
AcDbRegAppTableRecord
  2
ACAD_NAV_VCDISPLAY
 70
     0
  0
ENDTAB
  0
TABLE
  2
DIMSTYLE
  5
1D
330
0
100
AcDbSymbolTable
 70
     1
100
AcDbDimStyleTable
 71
     0
  0
DIMSTYLE
105
28
330
1D
100
AcDbSymbolTableRecord
100
AcDbDimStyleTableRecord
  2
STANDARD
 70
     0
340
12
  0
ENDTAB
  0
TABLE
  2
BLOCK_RECORD
  5
1
330
0
100
AcDbSymbolTable
 70
     0
  0
BLOCK_RECORD
  5
2
330
1
100
AcDbSymbolTableRecord
100
AcDbBlockTableRecord
  2
*MODEL_SPACE
340
A
 70
     0
280
     1
281
     0
  0
BLOCK_RECORD
  5
C
330
1
100
AcDbSymbolTableRecord
100
AcDbBlockTableRecord
  2
*PAPER_SPACE
340
F
 70
     0
280
     1
281
     0
  0
ENDTAB
  0
ENDSEC
  0
SECTION
  2
BLOCKS
  0
BLOCK
  5
3
330
2
100
AcDbEntity
  8
0
100
AcDbBlockBegin
  2
*MODEL_SPACE
 70
     0
 10
0.0
 20
0.0
 30
0.0
  3
*MODEL_SPACE
  1

  0
ENDBLK
  5
9
330
2
100
AcDbEntity
  8
0
100
AcDbBlockEnd
  0
BLOCK
  5
D
330
C
100
AcDbEntity
 67
     1
  8
0
100
AcDbBlockBegin
  2
*PAPER_SPACE
 70
     0
 10
0.0
 20
0.0
 30
0.0
  3
*PAPER_SPACE
  1

  0
ENDBLK
  5
E
330
C
100
AcDbEntity
 67
     1
  8
0
100
AcDbBlockEnd
  0
ENDSEC
  0
SECTION
  2
ENTITIES
  0
LINE
  5
29
330
2
100
AcDbEntity
  8
HALFEN-KONSOLANKER
100
AcDbLine
 10
-8.13066705853032
 20
173.9140542365171
 30
0.0
 11
186.8693329414696
 21
173.9140542365171
 31
0.0
  0
LINE
  5
2A
330
2
100
AcDbEntity
  8
HALFEN-KONSOLANKER
100
AcDbLine
 10
-8.13066705853032
 20
183.9140542365171
 30
0.0
 11
186.8693329414696
 21
183.9140542365171
 31
0.0
  0
LINE
  5
2B
330
2
100
AcDbEntity
  8
HALFEN-KONSOLANKER
100
AcDbLine
 10
-8.13066705853032
 20
201.9140542365171
 30
0.0
 11
186.8693329414696
 21
201.9140542365171
 31
0.0
  0
TEXT
  5
2C
330
2
100
AcDbEntity
  8
HALFEN-KONSOLANKER
100
AcDbText
 10
46.86933294146967
 20
194.4140542365171
 30
0.0
 40
5.0
  1
Halfen Maueranschlussanker MLQ - D 85
  7
ARIAL50
100
AcDbText
  0
TEXT
  5
2E
330
2
100
AcDbEntity
  8
HALFEN-KONSOLANKER
100
AcDbText
 10
-3.13066705853032
 20
194.4140542365171
 30
0.0
 40
5.0
  1
Benennung
  7
ARIAL50
100
AcDbText
  0
LINE
  5
2F
330
2
100
AcDbEntity
  8
HALFEN-KONSOLANKER
100
AcDbLine
 10
311.8693329414697
 20
52.9140542365171
 30
0.0
 11
311.8693329414697
 21
161.9140542365171
 31
0.0
  0
LINE
  5
30
330
2
100
AcDbEntity
  8
HALFEN-KONSOLANKER
100
AcDbLine
 10
314.8693329414694
 20
52.91405423651708
 30
0.0
 11
314.8693329414697
 21
161.9140542365171
 31
0.0
  0
LINE
  5
31
330
2
100
AcDbEntity
  8
HALFEN-KONSOLANKER
100
AcDbLine
 10
314.8693329414697
 20
161.9140542365171
 30
0.0
 11
311.8693329414697
 21
161.9140542365171
 31
0.0
  0
TEXT
  5
32
330
2
100
AcDbEntity
  8
HALFEN-KONSOLANKER
100
AcDbText
 10
-8.13066705853032
 20
204.4140542365171
 30
0.0
 40
5.0
  1
A4
  7
ARIAL50
100
AcDbText
  0
LINE
  5
33
330
2
100
AcDbEntity
  8
HALFEN-KONSOLANKER
100
AcDbLine
 10
-8.13066705853032
 20
173.9140542365171
 30
0.0
 11
-8.13066705853032
 21
201.9140542365171
 31
0.0
  0
TEXT
  5
34
330
2
100
AcDbEntity
  8
HALFEN-KONSOLANKER
100
AcDbText
 10
-3.13066705853032
 20
176.4140542365171
 30
0.0
 40
5.0
  1
Id. Nr.
  7
ARIAL50
100
AcDbText
  0
LINE
  5
35
330
2
100
AcDbEntity
  8
HALFEN-KONSOLANKER
100
AcDbLine
 10
139.1193329414696
 20
141.4140542365171
 30
0.0
 11
139.1193329414696
 21
146.9140542365171
 31
0.0
  0
LINE
  5
36
330
2
100
AcDbEntity
  8
HALFEN-KONSOLANKER
100
AcDbLine
 10
144.6193329414697
 20
146.9140542365171
 30
0.0
 11
144.6193329414697
 21
141.4140542365171
 31
0.0
  0
LINE
  5
37
330
2
100
AcDbEntity
  8
HALFEN-KONSOLANKER
100
AcDbLine
 10
139.6193329414697
 20
141.9140542365171
 30
0.0
 11
139.6193329414697
 21
146.4140542365171
 31
0.0
  0
LINE
  5
38
330
2
100
AcDbEntity
  8
HALFEN-KONSOLANKER
100
AcDbLine
 10
144.1193329414697
 20
146.4140542365171
 30
0.0
 11
144.1193329414697
 21
141.9140542365171
 31
0.0
  0
LINE
  5
39
330
2
100
AcDbEntity
  8
HALFEN-KONSOLANKER
100
AcDbLine
 10
143.4193329414697
 20
142.4140542365171
 30
0.0
 11
143.4193329414697
 21
145.9140542365171
 31
0.0
  0
LINE
  5
3A
330
2
100
AcDbEntity
  8
HALFEN-KONSOLANKER
100
AcDbLine
 10
140.3193329414697
 20
142.4140542365171
 30
0.0
 11
140.3193329414697
 21
145.9140542365171
 31
0.0
  0
LINE
  5
3B
330
2
100
AcDbEntity
  8
HALFEN-KONSOLANKER
100
AcDbLine
 10
142.7693329414697
 20
144.4890542365171
 30
0.0
 11
142.7693329414697
 21
145.9140542365171
 31
0.0
  0
LINE
  5
3C
330
2
100
AcDbEntity
  8
HALFEN-KONSOLANKER
100
AcDbLine
 10
140.9693329414697
 20
144.4890542365171
 30
0.0
 11
140.9693329414697
 21
145.9140542365171
 31
0.0
  0
LINE
  5
3D
330
2
100
AcDbEntity
  8
HALFEN-KONSOLANKER
100
AcDbLine
 10
139.1193329414696
 20
146.9140542365171
 30
0.0
 11
144.6193329414697
 21
146.9140542365171
 31
0.0
  0
LINE
  5
3E
330
2
100
AcDbEntity
  8
HALFEN-KONSOLANKER
100
AcDbLine
 10
139.6193329414697
 20
146.4140542365171
 30
0.0
 11
144.1193329414697
 21
146.4140542365171
 31
0.0
  0
LINE
  5
3F
330
2
100
AcDbEntity
  8
HALFEN-KONSOLANKER
100
AcDbLine
 10
142.7693329414697
 20
145.9140542365171
 30
0.0
 11
143.4193329414697
 21
145.9140542365171
 31
0.0
  0
LINE
  5
40
330
2
100
AcDbEntity
  8
HALFEN-KONSOLANKER
100
AcDbLine
 10
140.3193329414697
 20
145.9140542365171
 30
0.0
 11
140.9693329414697
 21
145.9140542365171
 31
0.0
  0
LINE
  5
41
330
2
100
AcDbEntity
  8
HALFEN-KONSOLANKER
100
AcDbLine
 10
140.9693329414697
 20
141.4140542365171
 30
0.0
 11
139.1193329414696
 21
141.4140542365171
 31
0.0
  0
LINE
  5
42
330
2
100
AcDbEntity
  8
HALFEN-KONSOLANKER
100
AcDbLine
 10
140.9693329414697
 20
141.9140542365171
 30
0.0
 11
139.6193329414697
 21
141.9140542365171
 31
0.0
  0
LINE
  5
43
330
2
100
AcDbEntity
  8
HALFEN-KONSOLANKER
100
AcDbLine
 10
142.7693329414697
 20
142.4140542365171
 30
0.0
 11
142.7693329414697
 21
143.8390542365171
 31
0.0
  0
LINE
  5
44
330
2
100
AcDbEntity
  8
HALFEN-KONSOLANKER
100
AcDbLine
 10
140.9693329414697
 20
142.4140542365171
 30
0.0
 11
140.9693329414697
 21
143.8390542365171
 31
0.0
  0
LINE
  5
45
330
2
100
AcDbEntity
  8
HALFEN-KONSOLANKER
100
AcDbLine
 10
142.7693329414697
 20
144.4890542365171
 30
0.0
 11
140.9693329414697
 21
144.4890542365171
 31
0.0
  0
LINE
  5
46
330
2
100
AcDbEntity
  8
HALFEN-KONSOLANKER
100
AcDbLine
 10
142.7693329414697
 20
143.8390542365171
 30
0.0
 11
140.9693329414697
 21
143.8390542365171
 31
0.0
  0
LINE
  5
47
330
2
100
AcDbEntity
  8
HALFEN-KONSOLANKER
100
AcDbLine
 10
144.6193329414697
 20
141.4140542365171
 30
0.0
 11
142.7693329414697
 21
141.4140542365171
 31
0.0
  0
LINE
  5
48
330
2
100
AcDbEntity
  8
HALFEN-KONSOLANKER
100
AcDbLine
 10
142.7693329414697
 20
141.4140542365171
 30
0.0
 11
142.7693329414697
 21
141.9140542365171
 31
0.0
  0
LINE
  5
49
330
2
100
AcDbEntity
  8
HALFEN-KONSOLANKER
100
AcDbLine
 10
140.9693329414697
 20
141.4140542365171
 30
0.0
 11
140.9693329414697
 21
141.9140542365171
 31
0.0
  0
LINE
  5
4A
330
2
100
AcDbEntity
  8
HALFEN-KONSOLANKER
100
AcDbLine
 10
144.1193329414697
 20
141.9140542365171
 30
0.0
 11
142.7693329414697
 21
141.9140542365171
 31
0.0
  0
LINE
  5
4B
330
2
100
AcDbEntity
  8
HALFEN-KONSOLANKER
100
AcDbLine
 10
140.9693329414697
 20
142.4140542365171
 30
0.0
 11
140.3193329414697
 21
142.4140542365171
 31
0.0
  0
LINE
  5
4C
330
2
100
AcDbEntity
  8
HALFEN-KONSOLANKER
100
AcDbLine
 10
143.4193329414697
 20
142.4140542365171
 30
0.0
 11
142.7693329414697
 21
142.4140542365171
 31
0.0
  0
LINE
  5
4D
330
2
100
AcDbEntity
  8
HALFEN-KONSOLANKER
100
AcDbLine
 10
317.8693329414695
 20
52.91405423651706
 30
0.0
 11
311.8693329414697
 21
52.9140542365171
 31
0.0
  0
TEXT
  5
4E
330
2
100
AcDbEntity
  8
HALFEN-KONSOLANKER
100
AcDbText
 10
46.86933294146968
 20
176.4140542365171
 30
0.0
 40
5.0
  1
0132.020-00001
  7
ARIAL50
100
AcDbText
  0
LINE
  5
4F
330
2
100
AcDbEntity
  8
HALFEN-KONSOLANKER
100
AcDbLine
 10
41.86933294146967
 20
173.9140542365171
 30
0.0
 11
41.86933294146967
 21
201.9140542365171
 31
0.0
  0
LINE
  5
50
330
2
100
AcDbEntity
  8
HALFEN-KONSOLANKER
100
AcDbLine
 10
186.8693329414696
 20
173.9140542365171
 30
0.0
 11
186.8693329414696
 21
201.9140542365171
 31
0.0
  0
LINE
  5
51
330
2
100
AcDbEntity
  8
HALFEN-KONSOLANKER
100
AcDbLine
 10
129.3693329414697
 20
137.9140542365171
 30
0.0
 11
132.8693329414696
 21
137.9140542365171
 31
0.0
  0
LINE
  5
52
330
2
100
AcDbEntity
  8
HALFEN-KONSOLANKER
100
AcDbLine
 10
133.0898929029138
 20
149.4140542365171
 30
0.0
 11
136.6193329414697
 21
149.4140542365171
 31
0.0
  0
LINE
  5
53
330
2
100
AcDbEntity
  8
HALFEN-KONSOLANKER
100
AcDbLine
 10
132.325413211361
 20
153.4140542365171
 30
0.0
 11
136.6193329414697
 21
153.4140542365171
 31
0.0
  0
LINE
  5
54
330
2
100
AcDbEntity
  8
HALFEN-KONSOLANKER
100
AcDbLine
 10
133.1193329414697
 20
161.9140542365171
 30
0.0
 11
150.6193329414696
 21
161.9140542365171
 31
0.0
  0
ARC
  5
55
330
2
100
AcDbEntity
  8
HALFEN-KONSOLANKER
100
AcDbCircle
 10
132.8693329414696
 20
139.9140542365171
 30
0.0
 40
2.0
100
AcDbArc
 50
270.0
 51
10.81988548870431
  0
ARC
  5
56
330
2
100
AcDbEntity
  8
HALFEN-KONSOLANKER
100
AcDbCircle
 10
150.8693329414697
 20
139.9140542365171
 30
0.0
 40
2.0
100
AcDbArc
 50
169.1801145112963
 51
270.0
  0
ARC
  5
57
330
2
100
AcDbEntity
  8
HALFEN-KONSOLANKER
100
AcDbCircle
 10
133.1193329414697
 20
159.9140542365171
 30
0.0
 40
2.0
100
AcDbArc
 50
89.99999999999998
 51
190.8198854887037
  0
ARC
  5
58
330
2
100
AcDbEntity
  8
HALFEN-KONSOLANKER
100
AcDbCircle
 10
150.6193329414696
 20
159.9140542365171
 30
0.0
 40
2.0
100
AcDbArc
 50
349.1801145112963
 51
89.99999999999998
  0
LINE
  5
59
330
2
100
AcDbEntity
  8
HALFEN-KONSOLANKER
100
AcDbLine
 10
148.9048886261673
 20
140.2894986825758
 30
0.0
 11
150.6487729800256
 21
149.4140542365171
 31
0.0
  0
LINE
  5
5A
330
2
100
AcDbEntity
  8
HALFEN-KONSOLANKER
100
AcDbLine
 10
134.833777256772
 20
140.2894986825758
 30
0.0
 11
133.0898929029138
 21
149.4140542365171
 31
0.0
  0
LINE
  5
5B
330
2
100
AcDbEntity
  8
HALFEN-KONSOLANKER
100
AcDbLine
 10
150.8693329414697
 20
137.9140542365171
 30
0.0
 11
154.3693329414697
 21
137.9140542365171
 31
0.0
  0
LINE
  5
5C
330
2
100
AcDbEntity
  8
HALFEN-KONSOLANKER
100
AcDbLine
 10
147.1193329414697
 20
153.4140542365171
 30
0.0
 11
147.1193329414697
 21
149.4140542365171
 31
0.0
  0
LINE
  5
5D
330
2
100
AcDbEntity
  8
HALFEN-KONSOLANKER
100
AcDbLine
 10
136.6193329414697
 20
153.4140542365171
 30
0.0
 11
136.6193329414697
 21
149.4140542365171
 31
0.0
  0
LINE
  5
5E
330
2
100
AcDbEntity
  8
HALFEN-KONSOLANKER
100
AcDbLine
 10
132.325413211361
 20
153.4140542365171
 30
0.0
 11
131.1548886261673
 21
159.5386097904584
 31
0.0
  0
LINE
  5
5F
330
2
100
AcDbEntity
  8
HALFEN-KONSOLANKER
100
AcDbLine
 10
147.1193329414697
 20
153.4140542365171
 30
0.0
 11
147.1193329414697
 21
149.4140542365171
 31
0.0
  0
LINE
  5
60
330
2
100
AcDbEntity
  8
HALFEN-KONSOLANKER
100
AcDbLine
 10
150.6487729800255
 20
149.4140542365171
 30
0.0
 11
147.1193329414697
 21
149.4140542365171
 31
0.0
  0
LINE
  5
61
330
2
100
AcDbEntity
  8
HALFEN-KONSOLANKER
100
AcDbLine
 10
151.4132526715783
 20
153.4140542365171
 30
0.0
 11
147.1193329414697
 21
153.4140542365171
 31
0.0
  0
LINE
  5
62
330
2
100
AcDbEntity
  8
HALFEN-KONSOLANKER
100
AcDbLine
 10
151.4132526715783
 20
153.4140542365171
 30
0.0
 11
152.583777256772
 21
159.5386097904584
 31
0.0
  0
LINE
  5
63
330
2
100
AcDbEntity
  8
HALFEN-KONSOLANKER
100
AcDbLine
 10
154.3693329414697
 20
137.9140542365171
 30
0.0
 11
154.3693329414697
 21
52.91405423651713
 31
0.0
  0
LINE
  5
64
330
2
100
AcDbEntity
  8
HALFEN-KONSOLANKER
100
AcDbLine
 10
129.3693329414697
 20
137.9140542365171
 30
0.0
 11
129.3693329414697
 21
52.91405423651713
 31
0.0
  0
LINE
  5
65
330
2
100
AcDbEntity
  8
HALFEN-KONSOLANKER
100
AcDbLine
 10
-8.13066705853032
 20
52.91405423651716
 30
0.0
 11
291.8693329414697
 21
52.9140542365171
 31
0.0
  0
LINE
  5
66
330
2
100
AcDbEntity
  8
HALFEN-KONSOLANKER
100
AcDbLine
 10
-8.13066705853032
 20
29.91405423651713
 30
0.0
 11
291.8693329414697
 21
29.91405423651702
 31
0.0
  0
LINE
  5
67
330
2
100
AcDbEntity
  8
HALFEN-KONSOLANKER
100
AcDbLine
 10
129.3693329414697
 20
32.9140542365171
 30
0.0
 11
154.3693329414697
 21
32.91405423651713
 31
0.0
  0
LINE
  5
68
330
2
100
AcDbEntity
  8
HALFEN-KONSOLANKER
100
AcDbLine
 10
314.8693329414697
 20
149.4140542365171
 30
0.0
 11
311.8693329414697
 21
149.4140542365171
 31
0.0
  0
LINE
  5
69
330
2
100
AcDbEntity
  8
HALFEN-KONSOLANKER
100
AcDbLine
 10
314.8693329414697
 20
153.4140542365171
 30
0.0
 11
311.8693329414697
 21
153.4140542365171
 31
0.0
  0
LINE
  5
6A
330
2
100
AcDbEntity
  8
HALFEN-KONSOLANKER
100
AcDbLine
 10
129.3693329414697
 20
32.9140542365171
 30
0.0
 11
129.3693329414697
 21
29.91405423651708
 31
0.0
  0
LINE
  5
6B
330
2
100
AcDbEntity
  8
HALFEN-KONSOLANKER
100
AcDbLine
 10
154.3693329414697
 20
32.91405423651713
 30
0.0
 11
154.3693329414697
 21
29.91405423651708
 31
0.0
  0
LINE
  5
6C
330
2
100
AcDbEntity
  8
HALFEN-KONSOLANKER
100
AcDbLine
 10
291.8693329414697
 20
77.9140542365171
 30
0.0
 11
291.8693329414697
 21
52.9140542365171
 31
0.0
  0
LINE
  5
6D
330
2
100
AcDbEntity
  8
HALFEN-KONSOLANKER
100
AcDbLine
 10
-8.13066705853032
 20
77.91405423651716
 30
0.0
 11
-8.13066705853032
 21
52.91405423651716
 31
0.0
  0
LINE
  5
6E
330
2
100
AcDbEntity
  8
HALFEN-KONSOLANKER
100
AcDbLine
 10
-8.13066705853032
 20
77.91405423651716
 30
0.0
 11
129.3693329414697
 21
77.91405423651713
 31
0.0
  0
LINE
  5
6F
330
2
100
AcDbEntity
  8
HALFEN-KONSOLANKER
100
AcDbLine
 10
154.3693329414697
 20
77.91405423651713
 30
0.0
 11
291.8693329414697
 21
77.9140542365171
 31
0.0
  0
LINE
  5
70
330
2
100
AcDbEntity
  8
HALFEN-KONSOLANKER
100
AcDbLine
 10
291.8693329414697
 20
29.91405423651702
 30
0.0
 11
291.8693329414697
 21
26.91405423651707
 31
0.0
  0
LINE
  5
71
330
2
100
AcDbEntity
  8
HALFEN-KONSOLANKER
100
AcDbLine
 10
-8.13066705853032
 20
26.91405423651707
 30
0.0
 11
291.8693329414697
 21
26.91405423651707
 31
0.0
  0
LINE
  5
72
330
2
100
AcDbEntity
  8
HALFEN-KONSOLANKER
100
AcDbLine
 10
-8.130667058530377
 20
29.91405423651711
 30
0.0
 11
-8.13066705853032
 21
26.91405423651707
 31
0.0
  0
LINE
  5
73
330
2
100
AcDbEntity
  8
HALFEN-KONSOLANKER
100
AcDbLine
 10
317.8693329414695
 20
52.91405423651707
 30
0.0
 11
317.8693329414695
 21
77.9140542365171
 31
0.0
  0
LINE
  5
74
330
2
100
AcDbEntity
  8
HALFEN-KONSOLANKER
100
AcDbLine
 10
314.8693329414696
 20
77.91405423651712
 30
0.0
 11
317.8693329414695
 21
77.91405423651712
 31
0.0
  0
LINE
  5
75
330
2
100
AcDbEntity
  8
HALFEN-KONSOLANKER
100
AcDbLine
 10
-8.13066705853032
 20
-182.0859457634829
 30
0.0
 11
129.3693329414697
 21
-182.0859457634829
 31
0.0
  0
LINE
  5
76
330
2
100
AcDbEntity
  8
HALFEN-KONSOLANKER
100
AcDbLine
 10
-8.13066705853032
 20
-207.0859457634829
 30
0.0
 11
291.8693329414697
 21
-207.085945763483
 31
0.0
  0
LINE
  5
77
330
2
100
AcDbEntity
  8
HALFEN-KONSOLANKER
100
AcDbLine
 10
-8.13066705853032
 20
-233.085945763483
 30
0.0
 11
291.8693329414697
 21
-233.085945763483
 31
0.0
  0
LINE
  5
78
330
2
100
AcDbEntity
  8
HALFEN-KONSOLANKER
100
AcDbLine
 10
-8.13066705853032
 20
-230.0859457634829
 30
0.0
 11
291.8693329414697
 21
-230.085945763483
 31
0.0
  0
TEXT
  5
79
330
2
100
AcDbEntity
  8
HALFEN-KONSOLANKER
100
AcDbText
 10
46.86933294146967
 20
-30.58594576348293
 30
0.0
 40
5.0
  1
Halfen Maueranschlussanker MLQ - D 120
  7
ARIAL50
100
AcDbText
  0
LINE
  5
7A
330
2
100
AcDbEntity
  8
HALFEN-KONSOLANKER
100
AcDbLine
 10
-8.13066705853032
 20
-23.08594576348292
 30
0.0
 11
186.8693329414696
 21
-23.08594576348292
 31
0.0
  0
LINE
  5
7B
330
2
100
AcDbEntity
  8
HALFEN-KONSOLANKER
100
AcDbLine
 10
-8.13066705853032
 20
-41.08594576348292
 30
0.0
 11
186.8693329414696
 21
-41.08594576348292
 31
0.0
  0
LINE
  5
7C
330
2
100
AcDbEntity
  8
HALFEN-KONSOLANKER
100
AcDbLine
 10
-8.13066705853032
 20
-51.08594576348292
 30
0.0
 11
186.8693329414696
 21
-51.08594576348292
 31
0.0
  0
LINE
  5
7D
330
2
100
AcDbEntity
  8
HALFEN-KONSOLANKER
100
AcDbLine
 10
-8.130667058530377
 20
-230.085945763483
 30
0.0
 11
-8.13066705853032
 21
-233.085945763483
 31
0.0
  0
LINE
  5
7E
330
2
100
AcDbEntity
  8
HALFEN-KONSOLANKER
100
AcDbLine
 10
-8.13066705853032
 20
-182.0859457634829
 30
0.0
 11
-8.13066705853032
 21
-207.0859457634829
 31
0.0
  0
TEXT
  5
7F
330
2
100
AcDbEntity
  8
HALFEN-KONSOLANKER
100
AcDbText
 10
-3.13066705853032
 20
-30.58594576348293
 30
0.0
 40
5.0
  1
Benennung
  7
ARIAL50
100
AcDbText
  0
TEXT
  5
80
330
2
100
AcDbEntity
  8
HALFEN-KONSOLANKER
100
AcDbText
 10
-3.13066705853032
 20
-48.58594576348292
 30
0.0
 40
5.0
  1
Id. Nr.
  7
ARIAL50
100
AcDbText
  0
TEXT
  5
81
330
2
100
AcDbEntity
  8
HALFEN-KONSOLANKER
100
AcDbText
 10
-8.13066705853032
 20
-20.58594576348292
 30
0.0
 40
5.0
  1
A4
  7
ARIAL50
100
AcDbText
  0
LINE
  5
82
330
2
100
AcDbEntity
  8
HALFEN-KONSOLANKER
100
AcDbLine
 10
-8.13066705853032
 20
-51.08594576348292
 30
0.0
 11
-8.13066705853032
 21
-23.08594576348292
 31
0.0
  0
TEXT
  5
83
330
2
100
AcDbEntity
  8
HALFEN-KONSOLANKER
100
AcDbText
 10
46.86933294146967
 20
-48.58594576348292
 30
0.0
 40
5.0
  1
0132.020-00002
  7
ARIAL50
100
AcDbText
  0
LINE
  5
84
330
2
100
AcDbEntity
  8
HALFEN-KONSOLANKER
100
AcDbLine
 10
41.86933294146967
 20
-51.08594576348292
 30
0.0
 11
41.86933294146967
 21
-23.08594576348292
 31
0.0
  0
LINE
  5
85
330
2
100
AcDbEntity
  8
HALFEN-KONSOLANKER
100
AcDbLine
 10
314.8693329414694
 20
-207.085945763483
 30
0.0
 11
314.8693329414697
 21
-63.08594576348295
 31
0.0
  0
LINE
  5
86
330
2
100
AcDbEntity
  8
HALFEN-KONSOLANKER
100
AcDbLine
 10
311.8693329414697
 20
-207.085945763483
 30
0.0
 11
311.8693329414697
 21
-63.08594576348295
 31
0.0
  0
LINE
  5
87
330
2
100
AcDbEntity
  8
HALFEN-KONSOLANKER
100
AcDbLine
 10
154.3693329414697
 20
-87.08594576348293
 30
0.0
 11
154.3693329414697
 21
-207.0859457634829
 31
0.0
  0
LINE
  5
88
330
2
100
AcDbEntity
  8
HALFEN-KONSOLANKER
100
AcDbLine
 10
129.3693329414697
 20
-87.08594576348293
 30
0.0
 11
129.3693329414697
 21
-207.0859457634829
 31
0.0
  0
LINE
  5
89
330
2
100
AcDbEntity
  8
HALFEN-KONSOLANKER
100
AcDbLine
 10
154.3693329414697
 20
-182.0859457634829
 30
0.0
 11
291.8693329414697
 21
-182.0859457634829
 31
0.0
  0
LINE
  5
8A
330
2
100
AcDbEntity
  8
HALFEN-KONSOLANKER
100
AcDbLine
 10
129.3693329414697
 20
-227.085945763483
 30
0.0
 11
154.3693329414697
 21
-227.0859457634829
 31
0.0
  0
LINE
  5
8B
330
2
100
AcDbEntity
  8
HALFEN-KONSOLANKER
100
AcDbLine
 10
129.3693329414697
 20
-227.085945763483
 30
0.0
 11
129.3693329414697
 21
-230.085945763483
 31
0.0
  0
LINE
  5
8C
330
2
100
AcDbEntity
  8
HALFEN-KONSOLANKER
100
AcDbLine
 10
154.3693329414697
 20
-227.0859457634829
 30
0.0
 11
154.3693329414697
 21
-230.085945763483
 31
0.0
  0
LINE
  5
8D
330
2
100
AcDbEntity
  8
HALFEN-KONSOLANKER
100
AcDbLine
 10
291.8693329414697
 20
-230.085945763483
 30
0.0
 11
291.8693329414697
 21
-233.085945763483
 31
0.0
  0
LINE
  5
8E
330
2
100
AcDbEntity
  8
HALFEN-KONSOLANKER
100
AcDbLine
 10
291.8693329414697
 20
-182.0859457634829
 30
0.0
 11
291.8693329414697
 21
-207.085945763483
 31
0.0
  0
LINE
  5
8F
330
2
100
AcDbEntity
  8
HALFEN-KONSOLANKER
100
AcDbLine
 10
317.8693329414695
 20
-207.085945763483
 30
0.0
 11
311.8693329414697
 21
-207.085945763483
 31
0.0
  0
LINE
  5
90
330
2
100
AcDbEntity
  8
HALFEN-KONSOLANKER
100
AcDbLine
 10
317.8693329414695
 20
-207.085945763483
 30
0.0
 11
317.8693329414695
 21
-182.0859457634829
 31
0.0
  0
LINE
  5
91
330
2
100
AcDbEntity
  8
HALFEN-KONSOLANKER
100
AcDbLine
 10
314.8693329414696
 20
-182.0859457634829
 30
0.0
 11
317.8693329414695
 21
-182.0859457634829
 31
0.0
  0
LINE
  5
92
330
2
100
AcDbEntity
  8
HALFEN-KONSOLANKER
100
AcDbLine
 10
133.0898929029138
 20
-75.58594576348295
 30
0.0
 11
136.6193329414697
 21
-75.58594576348295
 31
0.0
  0
LINE
  5
93
330
2
100
AcDbEntity
  8
HALFEN-KONSOLANKER
100
AcDbLine
 10
132.325413211361
 20
-71.58594576348292
 30
0.0
 11
136.6193329414697
 21
-71.58594576348292
 31
0.0
  0
LINE
  5
94
330
2
100
AcDbEntity
  8
HALFEN-KONSOLANKER
100
AcDbLine
 10
133.1193329414697
 20
-63.08594576348292
 30
0.0
 11
150.6193329414696
 21
-63.08594576348292
 31
0.0
  0
ARC
  5
95
330
2
100
AcDbEntity
  8
HALFEN-KONSOLANKER
100
AcDbCircle
 10
132.8693329414696
 20
-85.08594576348295
 30
0.0
 40
2.0
100
AcDbArc
 50
270.0
 51
10.81988548870431
  0
LINE
  5
96
330
2
100
AcDbEntity
  8
HALFEN-KONSOLANKER
100
AcDbLine
 10
134.833777256772
 20
-84.71050131742421
 30
0.0
 11
133.0898929029138
 21
-75.58594576348295
 31
0.0
  0
LINE
  5
97
330
2
100
AcDbEntity
  8
HALFEN-KONSOLANKER
100
AcDbLine
 10
129.3693329414697
 20
-87.08594576348293
 30
0.0
 11
132.8693329414696
 21
-87.08594576348293
 31
0.0
  0
LINE
  5
98
330
2
100
AcDbEntity
  8
HALFEN-KONSOLANKER
100
AcDbLine
 10
132.325413211361
 20
-71.58594576348292
 30
0.0
 11
131.1548886261673
 21
-65.46139020954166
 31
0.0
  0
ARC
  5
99
330
2
100
AcDbEntity
  8
HALFEN-KONSOLANKER
100
AcDbCircle
 10
133.1193329414697
 20
-65.08594576348293
 30
0.0
 40
2.0
100
AcDbArc
 50
89.99999999999998
 51
190.8198854887037
  0
LINE
  5
9A
330
2
100
AcDbEntity
  8
HALFEN-KONSOLANKER
100
AcDbLine
 10
148.9048886261673
 20
-84.71050131742421
 30
0.0
 11
150.6487729800256
 21
-75.58594576348292
 31
0.0
  0
LINE
  5
9B
330
2
100
AcDbEntity
  8
HALFEN-KONSOLANKER
100
AcDbLine
 10
150.8693329414697
 20
-87.08594576348293
 30
0.0
 11
154.3693329414697
 21
-87.08594576348293
 31
0.0
  0
LINE
  5
9C
330
2
100
AcDbEntity
  8
HALFEN-KONSOLANKER
100
AcDbLine
 10
144.6193329414697
 20
-83.58594576348293
 30
0.0
 11
142.7693329414697
 21
-83.58594576348293
 31
0.0
  0
LINE
  5
9D
330
2
100
AcDbEntity
  8
HALFEN-KONSOLANKER
100
AcDbLine
 10
144.1193329414697
 20
-83.08594576348292
 30
0.0
 11
142.7693329414697
 21
-83.08594576348292
 31
0.0
  0
LINE
  5
9E
330
2
100
AcDbEntity
  8
HALFEN-KONSOLANKER
100
AcDbLine
 10
143.4193329414697
 20
-82.58594576348295
 30
0.0
 11
142.7693329414697
 21
-82.58594576348292
 31
0.0
  0
LINE
  5
9F
330
2
100
AcDbEntity
  8
HALFEN-KONSOLANKER
100
AcDbLine
 10
142.7693329414697
 20
-79.08594576348292
 30
0.0
 11
143.4193329414697
 21
-79.08594576348292
 31
0.0
  0
LINE
  5
A0
330
2
100
AcDbEntity
  8
HALFEN-KONSOLANKER
100
AcDbLine
 10
139.1193329414696
 20
-78.08594576348292
 30
0.0
 11
144.6193329414697
 21
-78.08594576348292
 31
0.0
  0
LINE
  5
A1
330
2
100
AcDbEntity
  8
HALFEN-KONSOLANKER
100
AcDbLine
 10
139.6193329414697
 20
-78.58594576348292
 30
0.0
 11
144.1193329414697
 21
-78.58594576348292
 31
0.0
  0
LINE
  5
A2
330
2
100
AcDbEntity
  8
HALFEN-KONSOLANKER
100
AcDbLine
 10
140.9693329414697
 20
-83.58594576348293
 30
0.0
 11
139.1193329414696
 21
-83.58594576348293
 31
0.0
  0
LINE
  5
A3
330
2
100
AcDbEntity
  8
HALFEN-KONSOLANKER
100
AcDbLine
 10
139.1193329414696
 20
-83.58594576348293
 30
0.0
 11
139.1193329414696
 21
-78.08594576348292
 31
0.0
  0
LINE
  5
A4
330
2
100
AcDbEntity
  8
HALFEN-KONSOLANKER
100
AcDbLine
 10
142.7693329414697
 20
-80.51094576348294
 30
0.0
 11
140.9693329414697
 21
-80.51094576348294
 31
0.0
  0
LINE
  5
A5
330
2
100
AcDbEntity
  8
HALFEN-KONSOLANKER
100
AcDbLine
 10
142.7693329414697
 20
-81.16094576348293
 30
0.0
 11
140.9693329414697
 21
-81.16094576348293
 31
0.0
  0
LINE
  5
A6
330
2
100
AcDbEntity
  8
HALFEN-KONSOLANKER
100
AcDbLine
 10
140.9693329414697
 20
-83.08594576348292
 30
0.0
 11
139.6193329414697
 21
-83.08594576348292
 31
0.0
  0
LINE
  5
A7
330
2
100
AcDbEntity
  8
HALFEN-KONSOLANKER
100
AcDbLine
 10
140.9693329414697
 20
-83.58594576348293
 30
0.0
 11
140.9693329414697
 21
-83.08594576348292
 31
0.0
  0
LINE
  5
A8
330
2
100
AcDbEntity
  8
HALFEN-KONSOLANKER
100
AcDbLine
 10
140.9693329414697
 20
-82.58594576348292
 30
0.0
 11
140.3193329414697
 21
-82.58594576348292
 31
0.0
  0
LINE
  5
A9
330
2
100
AcDbEntity
  8
HALFEN-KONSOLANKER
100
AcDbLine
 10
140.3193329414697
 20
-79.08594576348292
 30
0.0
 11
140.9693329414697
 21
-79.08594576348292
 31
0.0
  0
LINE
  5
AA
330
2
100
AcDbEntity
  8
HALFEN-KONSOLANKER
100
AcDbLine
 10
140.9693329414697
 20
-80.51094576348294
 30
0.0
 11
140.9693329414697
 21
-79.08594576348292
 31
0.0
  0
LINE
  5
AB
330
2
100
AcDbEntity
  8
HALFEN-KONSOLANKER
100
AcDbLine
 10
139.6193329414697
 20
-83.08594576348292
 30
0.0
 11
139.6193329414697
 21
-78.58594576348292
 31
0.0
  0
LINE
  5
AC
330
2
100
AcDbEntity
  8
HALFEN-KONSOLANKER
100
AcDbLine
 10
140.3193329414697
 20
-82.58594576348292
 30
0.0
 11
140.3193329414697
 21
-79.08594576348292
 31
0.0
  0
LINE
  5
AD
330
2
100
AcDbEntity
  8
HALFEN-KONSOLANKER
100
AcDbLine
 10
140.9693329414697
 20
-82.58594576348292
 30
0.0
 11
140.9693329414697
 21
-81.16094576348293
 31
0.0
  0
LINE
  5
AE
330
2
100
AcDbEntity
  8
HALFEN-KONSOLANKER
100
AcDbLine
 10
142.7693329414697
 20
-83.58594576348293
 30
0.0
 11
142.7693329414697
 21
-83.08594576348292
 31
0.0
  0
LINE
  5
AF
330
2
100
AcDbEntity
  8
HALFEN-KONSOLANKER
100
AcDbLine
 10
142.7693329414697
 20
-80.51094576348294
 30
0.0
 11
142.7693329414697
 21
-79.08594576348292
 31
0.0
  0
LINE
  5
B0
330
2
100
AcDbEntity
  8
HALFEN-KONSOLANKER
100
AcDbLine
 10
142.7693329414697
 20
-82.58594576348292
 30
0.0
 11
142.7693329414697
 21
-81.16094576348293
 31
0.0
  0
LINE
  5
B1
330
2
100
AcDbEntity
  8
HALFEN-KONSOLANKER
100
AcDbLine
 10
144.6193329414697
 20
-78.08594576348292
 30
0.0
 11
144.6193329414697
 21
-83.58594576348293
 31
0.0
  0
LINE
  5
B2
330
2
100
AcDbEntity
  8
HALFEN-KONSOLANKER
100
AcDbLine
 10
144.1193329414697
 20
-78.58594576348292
 30
0.0
 11
144.1193329414697
 21
-83.08594576348292
 31
0.0
  0
LINE
  5
B3
330
2
100
AcDbEntity
  8
HALFEN-KONSOLANKER
100
AcDbLine
 10
143.4193329414697
 20
-82.58594576348295
 30
0.0
 11
143.4193329414697
 21
-79.08594576348292
 31
0.0
  0
ARC
  5
B4
330
2
100
AcDbEntity
  8
HALFEN-KONSOLANKER
100
AcDbCircle
 10
150.8693329414697
 20
-85.08594576348299
 30
0.0
 40
2.0
100
AcDbArc
 50
169.1801145112963
 51
270.0
  0
ARC
  5
B5
330
2
100
AcDbEntity
  8
HALFEN-KONSOLANKER
100
AcDbCircle
 10
150.6193329414696
 20
-65.08594576348293
 30
0.0
 40
2.0
100
AcDbArc
 50
349.1801145112963
 51
89.99999999999998
  0
LINE
  5
B6
330
2
100
AcDbEntity
  8
HALFEN-KONSOLANKER
100
AcDbLine
 10
151.4132526715783
 20
-71.58594576348292
 30
0.0
 11
152.583777256772
 21
-65.46139020954166
 31
0.0
  0
LINE
  5
B7
330
2
100
AcDbEntity
  8
HALFEN-KONSOLANKER
100
AcDbLine
 10
136.6193329414697
 20
-71.58594576348292
 30
0.0
 11
136.6193329414697
 21
-75.58594576348292
 31
0.0
  0
LINE
  5
B8
330
2
100
AcDbEntity
  8
HALFEN-KONSOLANKER
100
AcDbLine
 10
150.6487729800255
 20
-75.58594576348295
 30
0.0
 11
147.1193329414697
 21
-75.58594576348295
 31
0.0
  0
LINE
  5
B9
330
2
100
AcDbEntity
  8
HALFEN-KONSOLANKER
100
AcDbLine
 10
151.4132526715783
 20
-71.58594576348292
 30
0.0
 11
147.1193329414697
 21
-71.58594576348292
 31
0.0
  0
LINE
  5
BA
330
2
100
AcDbEntity
  8
HALFEN-KONSOLANKER
100
AcDbLine
 10
147.1193329414697
 20
-71.58594576348296
 30
0.0
 11
147.1193329414697
 21
-75.58594576348295
 31
0.0
  0
LINE
  5
BB
330
2
100
AcDbEntity
  8
HALFEN-KONSOLANKER
100
AcDbLine
 10
147.1193329414697
 20
-71.58594576348292
 30
0.0
 11
147.1193329414697
 21
-75.58594576348292
 31
0.0
  0
LINE
  5
BC
330
2
100
AcDbEntity
  8
HALFEN-KONSOLANKER
100
AcDbLine
 10
186.8693329414696
 20
-51.08594576348292
 30
0.0
 11
186.8693329414696
 21
-23.08594576348292
 31
0.0
  0
LINE
  5
BD
330
2
100
AcDbEntity
  8
HALFEN-KONSOLANKER
100
AcDbLine
 10
314.8693329414697
 20
-63.08594576348295
 30
0.0
 11
311.8693329414697
 21
-63.08594576348295
 31
0.0
  0
LINE
  5
BE
330
2
100
AcDbEntity
  8
HALFEN-KONSOLANKER
100
AcDbLine
 10
314.8693329414697
 20
-75.58594576348298
 30
0.0
 11
311.8693329414697
 21
-75.58594576348298
 31
0.0
  0
LINE
  5
BF
330
2
100
AcDbEntity
  8
HALFEN-KONSOLANKER
100
AcDbLine
 10
314.8693329414697
 20
-71.58594576348296
 30
0.0
 11
311.8693329414697
 21
-71.58594576348296
 31
0.0
  0
LINE
  5
C0
330
2
100
AcDbEntity
  8
HALFEN-KONSOLANKER
100
AcDbLine
 10
-8.130667058530221
 20
-311.085945763483
 30
0.0
 11
186.8693329414698
 21
-311.085945763483
 31
0.0
  0
LINE
  5
C1
330
2
100
AcDbEntity
  8
HALFEN-KONSOLANKER
100
AcDbLine
 10
-8.130667058530221
 20
-301.085945763483
 30
0.0
 11
186.8693329414698
 21
-301.085945763483
 31
0.0
  0
LINE
  5
C2
330
2
100
AcDbEntity
  8
HALFEN-KONSOLANKER
100
AcDbLine
 10
-8.130667058530221
 20
-283.085945763483
 30
0.0
 11
186.8693329414698
 21
-283.085945763483
 31
0.0
  0
TEXT
  5
C3
330
2
100
AcDbEntity
  8
HALFEN-KONSOLANKER
100
AcDbText
 10
46.86933294146977
 20
-290.585945763483
 30
0.0
 40
5.0
  1
Halfen Maueranschlussanker MLQ - D 180
  7
ARIAL50
100
AcDbText
  0
LINE
  5
C4
330
2
100
AcDbEntity
  8
HALFEN-KONSOLANKER
100
AcDbLine
 10
-8.130667058530221
 20
-550.0859457634829
 30
0.0
 11
291.8693329414698
 21
-550.085945763483
 31
0.0
  0
LINE
  5
C5
330
2
100
AcDbEntity
  8
HALFEN-KONSOLANKER
100
AcDbLine
 10
-8.130667058530221
 20
-553.085945763483
 30
0.0
 11
291.8693329414698
 21
-553.085945763483
 31
0.0
  0
LINE
  5
C6
330
2
100
AcDbEntity
  8
HALFEN-KONSOLANKER
100
AcDbLine
 10
-8.130667058530221
 20
-527.085945763483
 30
0.0
 11
291.8693329414698
 21
-527.085945763483
 31
0.0
  0
LINE
  5
C7
330
2
100
AcDbEntity
  8
HALFEN-KONSOLANKER
100
AcDbLine
 10
-8.130667058530221
 20
-502.085945763483
 30
0.0
 11
129.3693329414698
 21
-502.085945763483
 31
0.0
  0
LINE
  5
C8
330
2
100
AcDbEntity
  8
HALFEN-KONSOLANKER
100
AcDbLine
 10
-8.130667058530221
 20
-502.085945763483
 30
0.0
 11
-8.130667058530221
 21
-527.085945763483
 31
0.0
  0
LINE
  5
C9
330
2
100
AcDbEntity
  8
HALFEN-KONSOLANKER
100
AcDbLine
 10
-8.130667058530278
 20
-550.0859457634829
 30
0.0
 11
-8.130667058530221
 21
-553.085945763483
 31
0.0
  0
TEXT
  5
CA
330
2
100
AcDbEntity
  8
HALFEN-KONSOLANKER
100
AcDbText
 10
-3.130667058530221
 20
-290.585945763483
 30
0.0
 40
5.0
  1
Benennung
  7
ARIAL50
100
AcDbText
  0
TEXT
  5
CB
330
2
100
AcDbEntity
  8
HALFEN-KONSOLANKER
100
AcDbText
 10
-3.130667058530221
 20
-308.585945763483
 30
0.0
 40
5.0
  1
Id. Nr.
  7
ARIAL50
100
AcDbText
  0
TEXT
  5
CC
330
2
100
AcDbEntity
  8
HALFEN-KONSOLANKER
100
AcDbText
 10
-8.130667058530221
 20
-280.585945763483
 30
0.0
 40
5.0
  1
A4
  7
ARIAL50
100
AcDbText
  0
LINE
  5
CD
330
2
100
AcDbEntity
  8
HALFEN-KONSOLANKER
100
AcDbLine
 10
-8.130667058530221
 20
-311.085945763483
 30
0.0
 11
-8.130667058530221
 21
-283.085945763483
 31
0.0
  0
TEXT
  5
CE
330
2
100
AcDbEntity
  8
HALFEN-KONSOLANKER
100
AcDbText
 10
46.86933294146977
 20
-308.585945763483
 30
0.0
 40
5.0
  1
0132.020-00003
  7
ARIAL50
100
AcDbText
  0
LINE
  5
CF
330
2
100
AcDbEntity
  8
HALFEN-KONSOLANKER
100
AcDbLine
 10
41.86933294146977
 20
-311.085945763483
 30
0.0
 11
41.86933294146977
 21
-283.085945763483
 31
0.0
  0
LINE
  5
D0
330
2
100
AcDbEntity
  8
HALFEN-KONSOLANKER
100
AcDbLine
 10
154.3693329414698
 20
-502.085945763483
 30
0.0
 11
291.8693329414698
 21
-502.085945763483
 31
0.0
  0
LINE
  5
D1
330
2
100
AcDbEntity
  8
HALFEN-KONSOLANKER
100
AcDbLine
 10
154.3693329414698
 20
-347.085945763483
 30
0.0
 11
154.3693329414698
 21
-527.085945763483
 31
0.0
  0
LINE
  5
D2
330
2
100
AcDbEntity
  8
HALFEN-KONSOLANKER
100
AcDbLine
 10
129.3693329414698
 20
-347.085945763483
 30
0.0
 11
129.3693329414698
 21
-527.085945763483
 31
0.0
  0
LINE
  5
D3
330
2
100
AcDbEntity
  8
HALFEN-KONSOLANKER
100
AcDbLine
 10
129.3693329414698
 20
-547.0859457634829
 30
0.0
 11
154.3693329414698
 21
-547.0859457634829
 31
0.0
  0
LINE
  5
D4
330
2
100
AcDbEntity
  8
HALFEN-KONSOLANKER
100
AcDbLine
 10
129.3693329414698
 20
-547.0859457634829
 30
0.0
 11
129.3693329414698
 21
-550.085945763483
 31
0.0
  0
LINE
  5
D5
330
2
100
AcDbEntity
  8
HALFEN-KONSOLANKER
100
AcDbLine
 10
154.3693329414698
 20
-547.0859457634829
 30
0.0
 11
154.3693329414698
 21
-550.085945763483
 31
0.0
  0
LINE
  5
D6
330
2
100
AcDbEntity
  8
HALFEN-KONSOLANKER
100
AcDbLine
 10
133.0898929029139
 20
-335.585945763483
 30
0.0
 11
136.6193329414698
 21
-335.585945763483
 31
0.0
  0
LINE
  5
D7
330
2
100
AcDbEntity
  8
HALFEN-KONSOLANKER
100
AcDbLine
 10
132.3254132113611
 20
-331.585945763483
 30
0.0
 11
136.6193329414698
 21
-331.585945763483
 31
0.0
  0
LINE
  5
D8
330
2
100
AcDbEntity
  8
HALFEN-KONSOLANKER
100
AcDbLine
 10
133.1193329414698
 20
-323.085945763483
 30
0.0
 11
150.6193329414698
 21
-323.085945763483
 31
0.0
  0
ARC
  5
D9
330
2
100
AcDbEntity
  8
HALFEN-KONSOLANKER
100
AcDbCircle
 10
132.8693329414698
 20
-345.085945763483
 30
0.0
 40
2.0
100
AcDbArc
 50
270.0
 51
10.81988548870431
  0
LINE
  5
DA
330
2
100
AcDbEntity
  8
HALFEN-KONSOLANKER
100
AcDbLine
 10
129.3693329414698
 20
-347.085945763483
 30
0.0
 11
132.8693329414698
 21
-347.085945763483
 31
0.0
  0
LINE
  5
DB
330
2
100
AcDbEntity
  8
HALFEN-KONSOLANKER
100
AcDbLine
 10
134.8337772567721
 20
-344.7105013174243
 30
0.0
 11
133.0898929029139
 21
-335.585945763483
 31
0.0
  0
ARC
  5
DC
330
2
100
AcDbEntity
  8
HALFEN-KONSOLANKER
100
AcDbCircle
 10
133.1193329414698
 20
-325.085945763483
 30
0.0
 40
2.0
100
AcDbArc
 50
89.99999999999998
 51
190.8198854887037
  0
LINE
  5
DD
330
2
100
AcDbEntity
  8
HALFEN-KONSOLANKER
100
AcDbLine
 10
132.3254132113611
 20
-331.585945763483
 30
0.0
 11
131.1548886261674
 21
-325.4613902095417
 31
0.0
  0
LINE
  5
DE
330
2
100
AcDbEntity
  8
HALFEN-KONSOLANKER
100
AcDbLine
 10
150.8693329414698
 20
-347.085945763483
 30
0.0
 11
154.3693329414698
 21
-347.085945763483
 31
0.0
  0
ARC
  5
DF
330
2
100
AcDbEntity
  8
HALFEN-KONSOLANKER
100
AcDbCircle
 10
150.6193329414698
 20
-325.085945763483
 30
0.0
 40
2.0
100
AcDbArc
 50
349.1801145112963
 51
89.99999999999998
  0
LINE
  5
E0
330
2
100
AcDbEntity
  8
HALFEN-KONSOLANKER
100
AcDbLine
 10
151.4132526715784
 20
-331.585945763483
 30
0.0
 11
152.5837772567721
 21
-325.4613902095417
 31
0.0
  0
LINE
  5
E1
330
2
100
AcDbEntity
  8
HALFEN-KONSOLANKER
100
AcDbLine
 10
144.6193329414698
 20
-343.585945763483
 30
0.0
 11
142.7693329414698
 21
-343.585945763483
 31
0.0
  0
LINE
  5
E2
330
2
100
AcDbEntity
  8
HALFEN-KONSOLANKER
100
AcDbLine
 10
144.1193329414698
 20
-343.085945763483
 30
0.0
 11
142.7693329414698
 21
-343.085945763483
 31
0.0
  0
LINE
  5
E3
330
2
100
AcDbEntity
  8
HALFEN-KONSOLANKER
100
AcDbLine
 10
143.4193329414698
 20
-342.585945763483
 30
0.0
 11
142.7693329414698
 21
-342.585945763483
 31
0.0
  0
LINE
  5
E4
330
2
100
AcDbEntity
  8
HALFEN-KONSOLANKER
100
AcDbLine
 10
142.7693329414698
 20
-339.085945763483
 30
0.0
 11
143.4193329414698
 21
-339.085945763483
 31
0.0
  0
LINE
  5
E5
330
2
100
AcDbEntity
  8
HALFEN-KONSOLANKER
100
AcDbLine
 10
139.1193329414698
 20
-338.085945763483
 30
0.0
 11
144.6193329414698
 21
-338.085945763483
 31
0.0
  0
LINE
  5
E6
330
2
100
AcDbEntity
  8
HALFEN-KONSOLANKER
100
AcDbLine
 10
139.6193329414698
 20
-338.585945763483
 30
0.0
 11
144.1193329414698
 21
-338.585945763483
 31
0.0
  0
LINE
  5
E7
330
2
100
AcDbEntity
  8
HALFEN-KONSOLANKER
100
AcDbLine
 10
136.6193329414698
 20
-331.585945763483
 30
0.0
 11
136.6193329414698
 21
-335.585945763483
 31
0.0
  0
LINE
  5
E8
330
2
100
AcDbEntity
  8
HALFEN-KONSOLANKER
100
AcDbLine
 10
140.9693329414698
 20
-343.585945763483
 30
0.0
 11
139.1193329414698
 21
-343.585945763483
 31
0.0
  0
LINE
  5
E9
330
2
100
AcDbEntity
  8
HALFEN-KONSOLANKER
100
AcDbLine
 10
139.1193329414698
 20
-343.585945763483
 30
0.0
 11
139.1193329414698
 21
-338.085945763483
 31
0.0
  0
LINE
  5
EA
330
2
100
AcDbEntity
  8
HALFEN-KONSOLANKER
100
AcDbLine
 10
142.7693329414698
 20
-342.585945763483
 30
0.0
 11
142.7693329414698
 21
-341.160945763483
 31
0.0
  0
LINE
  5
EB
330
2
100
AcDbEntity
  8
HALFEN-KONSOLANKER
100
AcDbLine
 10
139.6193329414698
 20
-343.085945763483
 30
0.0
 11
139.6193329414698
 21
-338.585945763483
 31
0.0
  0
LINE
  5
EC
330
2
100
AcDbEntity
  8
HALFEN-KONSOLANKER
100
AcDbLine
 10
140.3193329414698
 20
-342.585945763483
 30
0.0
 11
140.3193329414698
 21
-339.085945763483
 31
0.0
  0
LINE
  5
ED
330
2
100
AcDbEntity
  8
HALFEN-KONSOLANKER
100
AcDbLine
 10
140.9693329414698
 20
-342.585945763483
 30
0.0
 11
140.9693329414698
 21
-341.160945763483
 31
0.0
  0
LINE
  5
EE
330
2
100
AcDbEntity
  8
HALFEN-KONSOLANKER
100
AcDbLine
 10
140.9693329414698
 20
-343.085945763483
 30
0.0
 11
139.6193329414698
 21
-343.085945763483
 31
0.0
  0
LINE
  5
EF
330
2
100
AcDbEntity
  8
HALFEN-KONSOLANKER
100
AcDbLine
 10
140.9693329414698
 20
-343.585945763483
 30
0.0
 11
140.9693329414698
 21
-343.085945763483
 31
0.0
  0
LINE
  5
F0
330
2
100
AcDbEntity
  8
HALFEN-KONSOLANKER
100
AcDbLine
 10
140.9693329414698
 20
-342.585945763483
 30
0.0
 11
140.3193329414698
 21
-342.585945763483
 31
0.0
  0
LINE
  5
F1
330
2
100
AcDbEntity
  8
HALFEN-KONSOLANKER
100
AcDbLine
 10
142.7693329414698
 20
-343.585945763483
 30
0.0
 11
142.7693329414698
 21
-343.085945763483
 31
0.0
  0
LINE
  5
F2
330
2
100
AcDbEntity
  8
HALFEN-KONSOLANKER
100
AcDbLine
 10
142.7693329414698
 20
-340.510945763483
 30
0.0
 11
140.9693329414698
 21
-340.510945763483
 31
0.0
  0
LINE
  5
F3
330
2
100
AcDbEntity
  8
HALFEN-KONSOLANKER
100
AcDbLine
 10
142.7693329414698
 20
-341.160945763483
 30
0.0
 11
140.9693329414698
 21
-341.160945763483
 31
0.0
  0
LINE
  5
F4
330
2
100
AcDbEntity
  8
HALFEN-KONSOLANKER
100
AcDbLine
 10
140.3193329414698
 20
-339.085945763483
 30
0.0
 11
140.9693329414698
 21
-339.085945763483
 31
0.0
  0
LINE
  5
F5
330
2
100
AcDbEntity
  8
HALFEN-KONSOLANKER
100
AcDbLine
 10
140.9693329414698
 20
-340.510945763483
 30
0.0
 11
140.9693329414698
 21
-339.085945763483
 31
0.0
  0
LINE
  5
F6
330
2
100
AcDbEntity
  8
HALFEN-KONSOLANKER
100
AcDbLine
 10
142.7693329414698
 20
-340.510945763483
 30
0.0
 11
142.7693329414698
 21
-339.085945763483
 31
0.0
  0
LINE
  5
F7
330
2
100
AcDbEntity
  8
HALFEN-KONSOLANKER
100
AcDbLine
 10
147.1193329414698
 20
-331.585945763483
 30
0.0
 11
147.1193329414698
 21
-335.585945763483
 31
0.0
  0
LINE
  5
F8
330
2
100
AcDbEntity
  8
HALFEN-KONSOLANKER
100
AcDbLine
 10
147.1193329414698
 20
-331.585945763483
 30
0.0
 11
147.1193329414698
 21
-335.585945763483
 31
0.0
  0
LINE
  5
F9
330
2
100
AcDbEntity
  8
HALFEN-KONSOLANKER
100
AcDbLine
 10
150.6487729800257
 20
-335.585945763483
 30
0.0
 11
147.1193329414698
 21
-335.585945763483
 31
0.0
  0
LINE
  5
FA
330
2
100
AcDbEntity
  8
HALFEN-KONSOLANKER
100
AcDbLine
 10
144.6193329414698
 20
-338.085945763483
 30
0.0
 11
144.6193329414698
 21
-343.585945763483
 31
0.0
  0
LINE
  5
FB
330
2
100
AcDbEntity
  8
HALFEN-KONSOLANKER
100
AcDbLine
 10
144.1193329414698
 20
-338.585945763483
 30
0.0
 11
144.1193329414698
 21
-343.085945763483
 31
0.0
  0
LINE
  5
FC
330
2
100
AcDbEntity
  8
HALFEN-KONSOLANKER
100
AcDbLine
 10
143.4193329414698
 20
-342.585945763483
 30
0.0
 11
143.4193329414698
 21
-339.085945763483
 31
0.0
  0
LINE
  5
FD
330
2
100
AcDbEntity
  8
HALFEN-KONSOLANKER
100
AcDbLine
 10
148.9048886261674
 20
-344.7105013174243
 30
0.0
 11
150.6487729800257
 21
-335.585945763483
 31
0.0
  0
ARC
  5
FE
330
2
100
AcDbEntity
  8
HALFEN-KONSOLANKER
100
AcDbCircle
 10
150.8693329414698
 20
-345.085945763483
 30
0.0
 40
2.0
100
AcDbArc
 50
169.1801145112963
 51
270.0
  0
LINE
  5
FF
330
2
100
AcDbEntity
  8
HALFEN-KONSOLANKER
100
AcDbLine
 10
151.4132526715784
 20
-331.585945763483
 30
0.0
 11
147.1193329414698
 21
-331.585945763483
 31
0.0
  0
LINE
  5
100
330
2
100
AcDbEntity
  8
HALFEN-KONSOLANKER
100
AcDbLine
 10
186.8693329414698
 20
-311.085945763483
 30
0.0
 11
186.8693329414698
 21
-283.085945763483
 31
0.0
  0
LINE
  5
101
330
2
100
AcDbEntity
  8
HALFEN-KONSOLANKER
100
AcDbLine
 10
317.8693329414695
 20
-527.0859457634831
 30
0.0
 11
317.8693329414697
 21
-502.085945763483
 31
0.0
  0
LINE
  5
102
330
2
100
AcDbEntity
  8
HALFEN-KONSOLANKER
100
AcDbLine
 10
311.8693329414698
 20
-527.085945763483
 30
0.0
 11
311.8693329414698
 21
-323.085945763483
 31
0.0
  0
LINE
  5
103
330
2
100
AcDbEntity
  8
HALFEN-KONSOLANKER
100
AcDbLine
 10
314.8693329414696
 20
-527.0859457634831
 30
0.0
 11
314.8693329414698
 21
-323.085945763483
 31
0.0
  0
LINE
  5
104
330
2
100
AcDbEntity
  8
HALFEN-KONSOLANKER
100
AcDbLine
 10
291.8693329414698
 20
-502.085945763483
 30
0.0
 11
291.8693329414698
 21
-527.085945763483
 31
0.0
  0
LINE
  5
105
330
2
100
AcDbEntity
  8
HALFEN-KONSOLANKER
100
AcDbLine
 10
291.8693329414698
 20
-550.085945763483
 30
0.0
 11
291.8693329414698
 21
-553.085945763483
 31
0.0
  0
LINE
  5
106
330
2
100
AcDbEntity
  8
HALFEN-KONSOLANKER
100
AcDbLine
 10
317.8693329414695
 20
-527.0859457634831
 30
0.0
 11
311.8693329414698
 21
-527.085945763483
 31
0.0
  0
LINE
  5
107
330
2
100
AcDbEntity
  8
HALFEN-KONSOLANKER
100
AcDbLine
 10
314.8693329414697
 20
-502.085945763483
 30
0.0
 11
317.8693329414697
 21
-502.085945763483
 31
0.0
  0
LINE
  5
108
330
2
100
AcDbEntity
  8
HALFEN-KONSOLANKER
100
AcDbLine
 10
314.8693329414698
 20
-323.085945763483
 30
0.0
 11
311.8693329414698
 21
-323.085945763483
 31
0.0
  0
LINE
  5
109
330
2
100
AcDbEntity
  8
HALFEN-KONSOLANKER
100
AcDbLine
 10
314.8693329414698
 20
-335.5859457634831
 30
0.0
 11
311.8693329414698
 21
-335.5859457634831
 31
0.0
  0
LINE
  5
10A
330
2
100
AcDbEntity
  8
HALFEN-KONSOLANKER
100
AcDbLine
 10
314.8693329414698
 20
-331.585945763483
 30
0.0
 11
311.8693329414698
 21
-331.585945763483
 31
0.0
  0
CIRCLE
  5
10B
330
2
100
AcDbEntity
  8
HALFEN-KONSOLANKER
100
AcDbCircle
 10
73.11933294146967
 20
65.41405423651716
 30
0.0
 40
5.5
  0
CIRCLE
  5
10C
330
2
100
AcDbEntity
  8
HALFEN-KONSOLANKER
100
AcDbCircle
 10
98.11933294146967
 20
65.41405423651716
 30
0.0
 40
5.5
  0
CIRCLE
  5
10D
330
2
100
AcDbEntity
  8
HALFEN-KONSOLANKER
100
AcDbCircle
 10
48.11933294146967
 20
65.41405423651716
 30
0.0
 40
5.5
  0
CIRCLE
  5
10E
330
2
100
AcDbEntity
  8
HALFEN-KONSOLANKER
100
AcDbCircle
 10
23.11933294146968
 20
65.41405423651716
 30
0.0
 40
5.5
  0
CIRCLE
  5
10F
330
2
100
AcDbEntity
  8
HALFEN-KONSOLANKER
100
AcDbCircle
 10
210.6193329414697
 20
65.41405423651716
 30
0.0
 40
5.5
  0
CIRCLE
  5
110
330
2
100
AcDbEntity
  8
HALFEN-KONSOLANKER
100
AcDbCircle
 10
185.6193329414697
 20
65.41405423651716
 30
0.0
 40
5.5
  0
CIRCLE
  5
111
330
2
100
AcDbEntity
  8
HALFEN-KONSOLANKER
100
AcDbCircle
 10
235.6193329414697
 20
65.41405423651716
 30
0.0
 40
5.5
  0
CIRCLE
  5
112
330
2
100
AcDbEntity
  8
HALFEN-KONSOLANKER
100
AcDbCircle
 10
260.6193329414697
 20
65.41405423651716
 30
0.0
 40
5.5
  0
CIRCLE
  5
113
330
2
100
AcDbEntity
  8
HALFEN-KONSOLANKER
100
AcDbCircle
 10
48.11933294146979
 20
-194.5859457634829
 30
0.0
 40
5.5
  0
CIRCLE
  5
114
330
2
100
AcDbEntity
  8
HALFEN-KONSOLANKER
100
AcDbCircle
 10
23.11933294146979
 20
-194.5859457634829
 30
0.0
 40
5.5
  0
CIRCLE
  5
115
330
2
100
AcDbEntity
  8
HALFEN-KONSOLANKER
100
AcDbCircle
 10
73.11933294146979
 20
-194.5859457634829
 30
0.0
 40
5.5
  0
CIRCLE
  5
116
330
2
100
AcDbEntity
  8
HALFEN-KONSOLANKER
100
AcDbCircle
 10
98.1193329414698
 20
-194.5859457634829
 30
0.0
 40
5.5
  0
CIRCLE
  5
117
330
2
100
AcDbEntity
  8
HALFEN-KONSOLANKER
100
AcDbCircle
 10
260.6193329414698
 20
-194.5859457634829
 30
0.0
 40
5.5
  0
CIRCLE
  5
118
330
2
100
AcDbEntity
  8
HALFEN-KONSOLANKER
100
AcDbCircle
 10
210.6193329414698
 20
-194.5859457634829
 30
0.0
 40
5.5
  0
CIRCLE
  5
119
330
2
100
AcDbEntity
  8
HALFEN-KONSOLANKER
100
AcDbCircle
 10
185.6193329414698
 20
-194.5859457634829
 30
0.0
 40
5.5
  0
CIRCLE
  5
11A
330
2
100
AcDbEntity
  8
HALFEN-KONSOLANKER
100
AcDbCircle
 10
235.6193329414698
 20
-194.5859457634829
 30
0.0
 40
5.5
  0
CIRCLE
  5
11B
330
2
100
AcDbEntity
  8
HALFEN-KONSOLANKER
100
AcDbCircle
 10
48.11933294146991
 20
-514.585945763483
 30
0.0
 40
5.5
  0
CIRCLE
  5
11C
330
2
100
AcDbEntity
  8
HALFEN-KONSOLANKER
100
AcDbCircle
 10
23.11933294146991
 20
-514.585945763483
 30
0.0
 40
5.5
  0
CIRCLE
  5
11D
330
2
100
AcDbEntity
  8
HALFEN-KONSOLANKER
100
AcDbCircle
 10
73.11933294146991
 20
-514.585945763483
 30
0.0
 40
5.5
  0
CIRCLE
  5
11E
330
2
100
AcDbEntity
  8
HALFEN-KONSOLANKER
100
AcDbCircle
 10
98.11933294146991
 20
-514.585945763483
 30
0.0
 40
5.5
  0
CIRCLE
  5
11F
330
2
100
AcDbEntity
  8
HALFEN-KONSOLANKER
100
AcDbCircle
 10
260.6193329414699
 20
-514.585945763483
 30
0.0
 40
5.5
  0
CIRCLE
  5
120
330
2
100
AcDbEntity
  8
HALFEN-KONSOLANKER
100
AcDbCircle
 10
210.6193329414699
 20
-514.585945763483
 30
0.0
 40
5.5
  0
CIRCLE
  5
121
330
2
100
AcDbEntity
  8
HALFEN-KONSOLANKER
100
AcDbCircle
 10
185.6193329414699
 20
-514.585945763483
 30
0.0
 40
5.5
  0
CIRCLE
  5
122
330
2
100
AcDbEntity
  8
HALFEN-KONSOLANKER
100
AcDbCircle
 10
235.6193329414699
 20
-514.585945763483
 30
0.0
 40
5.5
  0
TEXT
  5
18D
330
2
100
AcDbEntity
  8
HALFEN-KONSOLANKER
100
AcDbText
 10
46.86933294146967
 20
186.4140542365171
 30
0.0
 40
5.0
  1

  7
ARIAL50
100
AcDbText
  0
TEXT
  5
190
330
2
100
AcDbEntity
  8
HALFEN-KONSOLANKER
100
AcDbText
 10
46.86933294146967
 20
-38.58594576348293
 30
0.0
 40
5.0
  1

  7
ARIAL50
100
AcDbText
  0
TEXT
  5
191
330
2
100
AcDbEntity
  8
HALFEN-KONSOLANKER
100
AcDbText
 10
46.86933294146979
 20
-298.585945763483
 30
0.0
 40
5.0
  1

  7
ARIAL50
100
AcDbText
  0
ENDSEC
  0
SECTION
  2
OBJECTS
  0
DICTIONARY
  5
7
330
0
100
AcDbDictionary
281
     1
  3
ACAD_CIP_PREVIOUS_PRODUCT_INFO
350
18C
  3
ACAD_COLOR
350
23
  3
ACAD_GROUP
350
1F
  3
ACAD_LAYOUT
350
B
  3
ACAD_MATERIAL
350
22
  3
ACAD_MLEADERSTYLE
350
186
  3
ACAD_MLINESTYLE
350
20
  3
ACAD_PLOTSETTINGS
350
21
  3
ACAD_PLOTSTYLENAME
350
6
  3
ACAD_SCALELIST
350
174
  3
ACAD_TABLESTYLE
350
24
  3
ACAD_VISUALSTYLE
350
15B
  3
ACDB_RECOMPOSE_DATA
350
1A1
  3
AcDbVariableDictionary
350
128
  3
ASE_INDEX_DICTIONARY
350
125
  0
DICTIONARY
  5
192
330
4
100
AcDbDictionary
280
     1
281
     1
  3
ADSK_XREC_LAYER_RECONCILED
360
193
  0
DICTIONARY
  5
194
330
25
100
AcDbDictionary
280
     1
281
     1
  3
ADSK_XREC_LAYER_RECONCILED
360
195
  0
XRECORD
  5
18C
102
{ACAD_REACTORS
330
7
102
}
330
7
100
AcDbXrecord
280
     1
300
AMECH_PP
300
2012
300
PDSP_F_S
  0
DICTIONARY
  5
23
102
{ACAD_REACTORS
330
7
102
}
330
7
100
AcDbDictionary
281
     1
  0
DICTIONARY
  5
1F
102
{ACAD_REACTORS
330
7
102
}
330
7
100
AcDbDictionary
281
     1
  0
DICTIONARY
  5
B
102
{ACAD_REACTORS
330
7
102
}
330
7
100
AcDbDictionary
281
     1
  3
Layout1
350
F
  3
Model
350
A
  0
DICTIONARY
  5
22
102
{ACAD_REACTORS
330
7
102
}
330
7
100
AcDbDictionary
281
     1
  3
ByBlock
350
14B
  3
ByLayer
350
143
  3
Global
350
153
  0
DICTIONARY
  5
186
102
{ACAD_REACTORS
330
7
102
}
330
7
100
AcDbDictionary
281
     1
  3
Standard
350
187
  0
DICTIONARY
  5
20
102
{ACAD_REACTORS
330
7
102
}
330
7
100
AcDbDictionary
281
     1
  3
STANDARD
350
26
  0
DICTIONARY
  5
21
102
{ACAD_REACTORS
330
7
102
}
330
7
100
AcDbDictionary
281
     1
  0
ACDBDICTIONARYWDFLT
  5
6
102
{ACAD_REACTORS
330
7
102
}
330
7
100
AcDbDictionary
281
     1
  3
Normal
350
5
100
AcDbDictionaryWithDefault
340
5
  0
DICTIONARY
  5
174
102
{ACAD_REACTORS
330
7
102
}
330
7
100
AcDbDictionary
281
     1
  3
A0
350
175
  3
A1
350
176
  3
A2
350
177
  3
A3
350
178
  3
A4
350
179
  3
A5
350
17A
  3
A6
350
17B
  3
A7
350
17C
  3
A8
350
17D
  3
A9
350
17E
  3
B0
350
17F
  3
B1
350
180
  3
B2
350
181
  3
B3
350
182
  3
B4
350
183
  3
B5
350
184
  3
B6
350
185
  0
DICTIONARY
  5
24
102
{ACAD_REACTORS
330
7
102
}
330
7
100
AcDbDictionary
281
     1
  3
Standard
350
27
  0
DICTIONARY
  5
15B
102
{ACAD_REACTORS
330
7
102
}
330
7
100
AcDbDictionary
281
     1
  3
2dWireframe
350
161
  3
Basic
350
160
  3
Brighten
350
167
  3
ColorChange
350
16B
  3
Conceptual
350
164
  3
Dim
350
166
  3
EdgeColorOff
350
173
  3
Facepattern
350
16A
  3
Flat
350
15C
  3
FlatWithEdges
350
15D
  3
Gouraud
350
15E
  3
GouraudWithEdges
350
15F
  3
Hidden
350
163
  3
JitterOff
350
171
  3
Linepattern
350
169
  3
OverhangOff
350
172
  3
Realistic
350
165
  3
Shaded
350
170
  3
Shaded with edges
350
16F
  3
Shades of Gray
350
16C
  3
Sketchy
350
16D
  3
Thicken
350
168
  3
Wireframe
350
162
  3
X-Ray
350
16E
  0
XRECORD
  5
1A1
102
{ACAD_REACTORS
330
7
102
}
330
7
100
AcDbXrecord
280
     1
 90
        1
330
27
  0
DICTIONARY
  5
128
102
{ACAD_REACTORS
330
7
102
}
330
7
100
AcDbDictionary
281
     1
  3
CANNOSCALE
350
198
  3
CMLEADERSTYLE
350
196
  3
CTABLESTYLE
350
129
  3
DIMASSOC
350
136
  3
HIDETEXT
350
135
  3
LAYEREVAL
350
19A
  3
LAYERNOTIFY
350
19B
  3
LIGHTINGUNITS
350
199
  3
MSLTSCALE
350
197
  3
PROJECTNAME
350
137
  0
DICTIONARY
  5
125
102
{ACAD_REACTORS
330
7
102
}
330
7
100
AcDbDictionary
281
     1
  3
ASEBlockHierarchyIndexRecord
350
127
1001
DCO15
1040
1565418084.0
  0
XRECORD
  5
193
102
{ACAD_REACTORS
330
192
102
}
330
192
100
AcDbXrecord
280
     1
290
     1
  0
XRECORD
  5
195
102
{ACAD_REACTORS
330
194
102
}
330
194
100
AcDbXrecord
280
     1
290
     1
  0
LAYOUT
  5
F
102
{ACAD_REACTORS
330
B
102
}
330
B
100
AcDbPlotSettings
  1

  2
\\DLANT038\DLAKBHL013
  4

  6

 40
0.0
 41
0.0
 42
0.0
 43
0.0
 44
0.0
 45
0.0
 46
0.0
 47
0.0
 48
0.0
 49
0.0
140
0.0
141
0.0
142
1.0
143
1.0
 70
   688
 72
     0
 73
     0
 74
     5
  7

 75
    16
147
1.0
 76
     0
 77
     2
 78
   300
148
0.0
149
0.0
100
AcDbLayout
  1
Layout1
 70
     1
 71
     1
 10
0.0
 20
0.0
 11
420.0
 21
297.0
 12
0.0
 22
0.0
 32
0.0
 14
1.000000000000000E+20
 24
1.000000000000000E+20
 34
1.000000000000000E+20
 15
-1.000000000000000E+20
 25
-1.000000000000000E+20
 35
-1.000000000000000E+20
146
0.0
 13
0.0
 23
0.0
 33
0.0
 16
1.0
 26
0.0
 36
0.0
 17
0.0
 27
1.0
 37
0.0
 76
     0
330
C
  0
LAYOUT
  5
A
102
{ACAD_REACTORS
330
B
102
}
330
B
100
AcDbPlotSettings
  1

  2
\\DLANT038\DLAKBHL013
  4

  6

 40
0.0
 41
0.0
 42
0.0
 43
0.0
 44
0.0
 45
0.0
 46
0.0
 47
0.0
 48
0.0
 49
0.0
140
0.0
141
0.0
142
1.0
143
1.0
 70
  1712
 72
     0
 73
     0
 74
     0
  7

 75
     0
147
1.0
 76
     0
 77
     2
 78
   300
148
0.0
149
0.0
100
AcDbLayout
  1
Model
 70
     1
 71
     0
 10
0.0
 20
0.0
 11
12.0
 21
9.0
 12
0.0
 22
0.0
 32
0.0
 14
0.0
 24
0.0
 34
0.0
 15
0.0
 25
0.0
 35
0.0
146
0.0
 13
0.0
 23
0.0
 33
0.0
 16
1.0
 26
0.0
 36
0.0
 17
0.0
 27
1.0
 37
0.0
 76
     0
330
2
331
13B
  0
MATERIAL
  5
14B
102
{ACAD_XDICTIONARY
360
14C
102
}
102
{ACAD_REACTORS
330
22
102
}
330
22
100
AcDbMaterial
  1
ByBlock
 72
     0
 43
0.0008202099737533
 43
0.0
 43
0.0
 43
0.0
 43
0.0
 43
0.0008202099737533
 43
0.0
 43
0.0
 43
0.0
 43
0.0
 43
1.0
 43
0.0
 43
0.0
 43
0.0
 43
0.0
 43
1.0
 77
     0
 47
0.0008202099737533
 47
0.0
 47
0.0
 47
0.0
 47
0.0
 47
0.0008202099737533
 47
0.0
 47
0.0
 47
0.0
 47
0.0
 47
1.0
 47
0.0
 47
0.0
 47
0.0
 47
0.0
 47
1.0
171
     0
 49
0.0008202099737533
 49
0.0
 49
0.0
 49
0.0
 49
0.0
 49
0.0008202099737533
 49
0.0
 49
0.0
 49
0.0
 49
0.0
 49
1.0
 49
0.0
 49
0.0
 49
0.0
 49
0.0
 49
1.0
175
     0
142
0.0008202099737533
142
0.0
142
0.0
142
0.0
142
0.0
142
0.0008202099737533
142
0.0
142
0.0
142
0.0
142
0.0
142
1.0
142
0.0
142
0.0
142
0.0
142
0.0
142
1.0
179
     0
144
0.0008202099737533
144
0.0
144
0.0
144
0.0
144
0.0
144
0.0008202099737533
144
0.0
144
0.0
144
0.0
144
0.0
144
1.0
144
0.0
144
0.0
144
0.0
144
0.0
144
1.0
147
0.0008202099737533
147
0.0
147
0.0
147
0.0
147
0.0
147
0.0008202099737533
147
0.0
147
0.0
147
0.0
147
0.0
147
1.0
147
0.0
147
0.0
147
0.0
147
0.0
147
1.0
  0
MATERIAL
  5
143
102
{ACAD_XDICTIONARY
360
144
102
}
102
{ACAD_REACTORS
330
22
102
}
330
22
100
AcDbMaterial
  1
ByLayer
 72
     0
 43
0.0008202099737533
 43
0.0
 43
0.0
 43
0.0
 43
0.0
 43
0.0008202099737533
 43
0.0
 43
0.0
 43
0.0
 43
0.0
 43
1.0
 43
0.0
 43
0.0
 43
0.0
 43
0.0
 43
1.0
 77
     0
 47
0.0008202099737533
 47
0.0
 47
0.0
 47
0.0
 47
0.0
 47
0.0008202099737533
 47
0.0
 47
0.0
 47
0.0
 47
0.0
 47
1.0
 47
0.0
 47
0.0
 47
0.0
 47
0.0
 47
1.0
171
     0
 49
0.0008202099737533
 49
0.0
 49
0.0
 49
0.0
 49
0.0
 49
0.0008202099737533
 49
0.0
 49
0.0
 49
0.0
 49
0.0
 49
1.0
 49
0.0
 49
0.0
 49
0.0
 49
0.0
 49
1.0
175
     0
142
0.0008202099737533
142
0.0
142
0.0
142
0.0
142
0.0
142
0.0008202099737533
142
0.0
142
0.0
142
0.0
142
0.0
142
1.0
142
0.0
142
0.0
142
0.0
142
0.0
142
1.0
179
     0
144
0.0008202099737533
144
0.0
144
0.0
144
0.0
144
0.0
144
0.0008202099737533
144
0.0
144
0.0
144
0.0
144
0.0
144
1.0
144
0.0
144
0.0
144
0.0
144
0.0
144
1.0
147
0.0008202099737533
147
0.0
147
0.0
147
0.0
147
0.0
147
0.0008202099737533
147
0.0
147
0.0
147
0.0
147
0.0
147
1.0
147
0.0
147
0.0
147
0.0
147
0.0
147
1.0
  0
MATERIAL
  5
153
102
{ACAD_XDICTIONARY
360
154
102
}
102
{ACAD_REACTORS
330
22
102
}
330
22
100
AcDbMaterial
  1
Global
 72
     0
 43
0.0008202099737533
 43
0.0
 43
0.0
 43
0.0
 43
0.0
 43
0.0008202099737533
 43
0.0
 43
0.0
 43
0.0
 43
0.0
 43
1.0
 43
0.0
 43
0.0
 43
0.0
 43
0.0
 43
1.0
 77
     0
 47
0.0008202099737533
 47
0.0
 47
0.0
 47
0.0
 47
0.0
 47
0.0008202099737533
 47
0.0
 47
0.0
 47
0.0
 47
0.0
 47
1.0
 47
0.0
 47
0.0
 47
0.0
 47
0.0
 47
1.0
171
     0
 49
0.0008202099737533
 49
0.0
 49
0.0
 49
0.0
 49
0.0
 49
0.0008202099737533
 49
0.0
 49
0.0
 49
0.0
 49
0.0
 49
1.0
 49
0.0
 49
0.0
 49
0.0
 49
0.0
 49
1.0
175
     0
142
0.0008202099737533
142
0.0
142
0.0
142
0.0
142
0.0
142
0.0008202099737533
142
0.0
142
0.0
142
0.0
142
0.0
142
1.0
142
0.0
142
0.0
142
0.0
142
0.0
142
1.0
179
     0
144
0.0008202099737533
144
0.0
144
0.0
144
0.0
144
0.0
144
0.0008202099737533
144
0.0
144
0.0
144
0.0
144
0.0
144
1.0
144
0.0
144
0.0
144
0.0
144
0.0
144
1.0
147
0.0008202099737533
147
0.0
147
0.0
147
0.0
147
0.0
147
0.0008202099737533
147
0.0
147
0.0
147
0.0
147
0.0
147
1.0
147
0.0
147
0.0
147
0.0
147
0.0
147
1.0
  0
MLEADERSTYLE
  5
187
102
{ACAD_XDICTIONARY
360
19F
102
}
102
{ACAD_REACTORS
330
186
102
}
330
186
100
AcDbMLeaderStyle
179
     2
170
     2
171
     1
172
     0
 90
        2
 40
0.0
 41
0.0
173
     1
 91
-1056964608
340
15
 92
       -2
290
     1
 42
2.0
291
     1
 43
0.36
  3
Standard
 44
4.0
300

342
12
174
     1
178
     6
175
     1
176
     0
 93
-1056964608
 45
4.0
292
     0
297
     0
 46
4.0
 94
-1056964608
 47
1.0
 49
1.0
140
1.0
293
     1
141
0.0
294
     1
177
     0
142
1.0
295
     0
296
     0
143
0.125
271
     0
272
     9
273
     9
  0
MLINESTYLE
  5
26
102
{ACAD_REACTORS
330
20
102
}
330
20
100
AcDbMlineStyle
  2
STANDARD
 70
     0
  3

 62
   256
 51
90.0
 52
90.0
 71
     2
 49
0.5
 62
   256
  6
BYLAYER
 49
-0.5
 62
   256
  6
BYLAYER
  0
ACDBPLACEHOLDER
  5
5
102
{ACAD_REACTORS
330
6
102
}
330
6
  0
SCALE
  5
175
102
{ACAD_REACTORS
330
174
102
}
330
174
100
AcDbScale
 70
     0
300
1:1
140
1.0
141
1.0
290
     1
  0
SCALE
  5
176
102
{ACAD_REACTORS
330
174
102
}
330
174
100
AcDbScale
 70
     0
300
1:2
140
1.0
141
2.0
290
     0
  0
SCALE
  5
177
102
{ACAD_REACTORS
330
174
102
}
330
174
100
AcDbScale
 70
     0
300
1:4
140
1.0
141
4.0
290
     0
  0
SCALE
  5
178
102
{ACAD_REACTORS
330
174
102
}
330
174
100
AcDbScale
 70
     0
300
1:5
140
1.0
141
5.0
290
     0
  0
SCALE
  5
179
102
{ACAD_REACTORS
330
174
102
}
330
174
100
AcDbScale
 70
     0
300
1:8
140
1.0
141
8.0
290
     0
  0
SCALE
  5
17A
102
{ACAD_REACTORS
330
174
102
}
330
174
100
AcDbScale
 70
     0
300
1:10
140
1.0
141
10.0
290
     0
  0
SCALE
  5
17B
102
{ACAD_REACTORS
330
174
102
}
330
174
100
AcDbScale
 70
     0
300
1:16
140
1.0
141
16.0
290
     0
  0
SCALE
  5
17C
102
{ACAD_REACTORS
330
174
102
}
330
174
100
AcDbScale
 70
     0
300
1:20
140
1.0
141
20.0
290
     0
  0
SCALE
  5
17D
102
{ACAD_REACTORS
330
174
102
}
330
174
100
AcDbScale
 70
     0
300
1:30
140
1.0
141
30.0
290
     0
  0
SCALE
  5
17E
102
{ACAD_REACTORS
330
174
102
}
330
174
100
AcDbScale
 70
     0
300
1:40
140
1.0
141
40.0
290
     0
  0
SCALE
  5
17F
102
{ACAD_REACTORS
330
174
102
}
330
174
100
AcDbScale
 70
     0
300
1:50
140
1.0
141
50.0
290
     0
  0
SCALE
  5
180
102
{ACAD_REACTORS
330
174
102
}
330
174
100
AcDbScale
 70
     0
300
1:100
140
1.0
141
100.0
290
     0
  0
SCALE
  5
181
102
{ACAD_REACTORS
330
174
102
}
330
174
100
AcDbScale
 70
     0
300
2:1
140
2.0
141
1.0
290
     0
  0
SCALE
  5
182
102
{ACAD_REACTORS
330
174
102
}
330
174
100
AcDbScale
 70
     0
300
4:1
140
4.0
141
1.0
290
     0
  0
SCALE
  5
183
102
{ACAD_REACTORS
330
174
102
}
330
174
100
AcDbScale
 70
     0
300
8:1
140
8.0
141
1.0
290
     0
  0
SCALE
  5
184
102
{ACAD_REACTORS
330
174
102
}
330
174
100
AcDbScale
 70
     0
300
10:1
140
10.0
141
1.0
290
     0
  0
SCALE
  5
185
102
{ACAD_REACTORS
330
174
102
}
330
174
100
AcDbScale
 70
     0
300
100:1
140
100.0
141
1.0
290
     0
  0
TABLESTYLE
  5
27
102
{ACAD_XDICTIONARY
360
19D
102
}
102
{ACAD_REACTORS
330
24
102
}
330
24
100
AcDbTableStyle
280
     0
  3
Standard
 70
     0
 71
     0
 40
1.5
 41
1.5
280
     0
281
     0
  7
STANDARD
140
4.5
170
     2
 62
     0
 63
     7
283
     0
 90
        4
 91
        0
  1

274
    -2
284
     1
 64
     0
275
    -2
285
     1
 65
     0
276
    -2
286
     1
 66
     0
277
    -2
287
     1
 67
     0
278
    -2
288
     1
 68
     0
279
    -2
289
     1
 69
     0
  7
STANDARD
140
6.0
170
     5
 62
     0
 63
     7
283
     0
 90
        4
 91
        0
  1

274
    -2
284
     1
 64
     0
275
    -2
285
     1
 65
     0
276
    -2
286
     1
 66
     0
277
    -2
287
     1
 67
     0
278
    -2
288
     1
 68
     0
279
    -2
289
     1
 69
     0
  7
STANDARD
140
4.5
170
     5
 62
     0
 63
     7
283
     0
 90
        4
 91
        0
  1

274
    -2
284
     1
 64
     0
275
    -2
285
     1
 65
     0
276
    -2
286
     1
 66
     0
277
    -2
287
     1
 67
     0
278
    -2
288
     1
 68
     0
279
    -2
289
     1
 69
     0
  0
VISUALSTYLE
  5
161
102
{ACAD_REACTORS
330
15B
102
}
330
15B
100
AcDbVisualStyle
  2
2dWireframe
 70
     4
177
     2
291
     0
 71
     0
176
     1
 72
     2
176
     1
 73
     0
176
     1
 90
        0
176
     1
 40
0.6
176
     1
 41
30.0
176
     1
 63
     7
421
 16777215
176
     1
 74
     1
176
     1
 91
        4
176
     1
 64
     7
176
     1
 65
   257
176
     1
 75
     1
176
     1
175
     1
176
     1
 42
1.0
176
     1
 92
        0
176
     1
 66
   257
176
     1
 43
1.0
176
     1
 76
     1
176
     1
 77
     6
176
     1
 78
     2
176
     1
 67
     7
176
     1
 79
     5
176
     1
170
     0
176
     1
171
     0
176
     1
290
     0
176
     1
 93
        1
176
     1
 44
0.0
176
     1
173
     0
176
     1
  0
VISUALSTYLE
  5
160
102
{ACAD_REACTORS
330
15B
102
}
330
15B
100
AcDbVisualStyle
  2
Basic
 70
     7
177
     2
291
     1
 71
     1
176
     1
 72
     0
176
     1
 73
     1
176
     1
 90
        0
176
     1
 40
0.6
176
     1
 41
30.0
176
     1
 63
     7
421
 16777215
176
     1
 74
     0
176
     1
 91
        4
176
     1
 64
     7
176
     1
 65
   257
176
     1
 75
     1
176
     1
175
     1
176
     1
 42
1.0
176
     1
 92
        8
176
     1
 66
     7
176
     1
 43
1.0
176
     1
 76
     1
176
     1
 77
     6
176
     1
 78
     2
176
     1
 67
     7
176
     1
 79
     5
176
     1
170
     0
176
     1
171
     0
176
     1
290
     0
176
     1
 93
        1
176
     1
 44
0.0
176
     1
173
     0
176
     1
  0
VISUALSTYLE
  5
167
102
{ACAD_REACTORS
330
15B
102
}
330
15B
100
AcDbVisualStyle
  2
Brighten
 70
    12
177
     2
291
     1
 71
     2
176
     1
 72
     2
176
     1
 73
     0
176
     1
 90
        0
176
     1
 40
0.6
176
     1
 41
30.0
176
     1
 63
     7
421
 16777215
176
     1
 74
     1
176
     1
 91
        4
176
     1
 64
     7
176
     1
 65
   257
176
     1
 75
     1
176
     1
175
     1
176
     1
 42
1.0
176
     1
 92
        8
176
     1
 66
     7
176
     1
 43
1.0
176
     1
 76
     1
176
     1
 77
     6
176
     1
 78
     2
176
     1
 67
     7
176
     1
 79
     5
176
     1
170
     0
176
     1
171
     0
176
     1
290
     0
176
     1
 93
        1
176
     1
 44
50.0
176
     1
173
     0
176
     1
  0
VISUALSTYLE
  5
16B
102
{ACAD_REACTORS
330
15B
102
}
330
15B
100
AcDbVisualStyle
  2
ColorChange
 70
    16
177
     2
291
     1
 71
     2
176
     1
 72
     2
176
     1
 73
     3
176
     1
 90
        0
176
     1
 40
0.6
176
     1
 41
30.0
176
     1
 63
     8
421
  8421504
176
     1
 74
     1
176
     1
 91
        4
176
     1
 64
     7
176
     1
 65
   257
176
     1
 75
     1
176
     1
175
     1
176
     1
 42
1.0
176
     1
 92
        8
176
     1
 66
     8
424
  8421504
176
     1
 43
1.0
176
     1
 76
     1
176
     1
 77
     6
176
     1
 78
     2
176
     1
 67
     7
176
     1
 79
     5
176
     1
170
     0
176
     1
171
     0
176
     1
290
     0
176
     1
 93
        1
176
     1
 44
0.0
176
     1
173
     0
176
     1
  0
VISUALSTYLE
  5
164
102
{ACAD_REACTORS
330
15B
102
}
330
15B
100
AcDbVisualStyle
  2
Conceptual
 70
     9
177
     2
291
     0
 71
     3
176
     1
 72
     2
176
     1
 73
     0
176
     1
 90
        0
176
     1
 40
0.6
176
     1
 41
30.0
176
     1
 63
     7
421
 16777215
176
     1
 74
     2
176
     1
 91
        2
176
     1
 64
     7
176
     1
 65
   257
176
     1
 75
     1
176
     1
175
     1
176
     1
 42
179.0
176
     1
 92
        8
176
     1
 66
     7
176
     1
 43
1.0
176
     1
 76
     1
176
     1
 77
     6
176
     1
 78
     2
176
     1
 67
     7
176
     1
 79
     3
176
     1
170
     0
176
     1
171
     0
176
     1
290
     0
176
     1
 93
        1
176
     1
 44
0.0
176
     1
173
     0
176
     1
  0
VISUALSTYLE
  5
166
102
{ACAD_REACTORS
330
15B
102
}
330
15B
100
AcDbVisualStyle
  2
Dim
 70
    11
177
     2
291
     1
 71
     2
176
     1
 72
     2
176
     1
 73
     0
176
     1
 90
        0
176
     1
 40
0.6
176
     1
 41
30.0
176
     1
 63
     7
421
 16777215
176
     1
 74
     1
176
     1
 91
        4
176
     1
 64
     7
176
     1
 65
   257
176
     1
 75
     1
176
     1
175
     1
176
     1
 42
1.0
176
     1
 92
        8
176
     1
 66
     7
176
     1
 43
1.0
176
     1
 76
     1
176
     1
 77
     6
176
     1
 78
     2
176
     1
 67
     7
176
     1
 79
     5
176
     1
170
     0
176
     1
171
     0
176
     1
290
     0
176
     1
 93
        1
176
     1
 44
-50.0
176
     1
173
     0
176
     1
  0
VISUALSTYLE
  5
173
102
{ACAD_REACTORS
330
15B
102
}
330
15B
100
AcDbVisualStyle
  2
EdgeColorOff
 70
    22
177
     2
291
     1
 71
     2
176
     0
 72
     2
176
     0
 73
     0
176
     0
 90
        0
176
     0
 40
0.6
176
     0
 41
30.0
176
     0
 63
     7
421
 16777215
176
     0
 74
     1
176
     0
 91
        4
176
     0
 64
     7
176
     0
 65
   257
176
     0
 75
     1
176
     0
175
     1
176
     0
 42
1.0
176
     0
 92
        8
176
     2
 66
     7
176
     0
 43
1.0
176
     0
 76
     1
176
     0
 77
     6
176
     0
 78
     2
176
     0
 67
     7
176
     0
 79
     5
176
     0
170
     0
176
     0
171
     0
176
     0
290
     0
176
     0
 93
        1
176
     0
 44
0.0
176
     0
173
     0
176
     0
  0
VISUALSTYLE
  5
16A
102
{ACAD_REACTORS
330
15B
102
}
330
15B
100
AcDbVisualStyle
  2
Facepattern
 70
    15
177
     2
291
     1
 71
     2
176
     1
 72
     2
176
     1
 73
     0
176
     1
 90
        0
176
     1
 40
0.6
176
     1
 41
30.0
176
     1
 63
     7
421
 16777215
176
     1
 74
     1
176
     1
 91
        4
176
     1
 64
     7
176
     1
 65
   257
176
     1
 75
     1
176
     1
175
     1
176
     1
 42
1.0
176
     1
 92
        8
176
     1
 66
     7
176
     1
 43
1.0
176
     1
 76
     1
176
     1
 77
     6
176
     1
 78
     2
176
     1
 67
     7
176
     1
 79
     5
176
     1
170
     0
176
     1
171
     0
176
     1
290
     0
176
     1
 93
        1
176
     1
 44
0.0
176
     1
173
     0
176
     1
  0
VISUALSTYLE
  5
15C
102
{ACAD_REACTORS
330
15B
102
}
330
15B
100
AcDbVisualStyle
  2
Flat
 70
     0
177
     2
291
     1
 71
     2
176
     1
 72
     1
176
     1
 73
     1
176
     1
 90
        2
176
     1
 40
0.6
176
     1
 41
30.0
176
     1
 63
     7
421
 16777215
176
     1
 74
     0
176
     1
 91
        0
176
     1
 64
     7
176
     1
 65
   257
176
     1
 75
     1
176
     1
175
     1
176
     1
 42
1.0
176
     1
 92
        8
176
     1
 66
     7
176
     1
 43
1.0
176
     1
 76
     1
176
     1
 77
     6
176
     1
 78
     2
176
     1
 67
     7
176
     1
 79
     5
176
     1
170
     0
176
     1
171
     0
176
     1
290
     0
176
     1
 93
       13
176
     1
 44
0.0
176
     1
173
     0
176
     1
  0
VISUALSTYLE
  5
15D
102
{ACAD_REACTORS
330
15B
102
}
330
15B
100
AcDbVisualStyle
  2
FlatWithEdges
 70
     1
177
     2
291
     1
 71
     2
176
     1
 72
     1
176
     1
 73
     1
176
     1
 90
        2
176
     1
 40
0.6
176
     1
 41
30.0
176
     1
 63
     7
421
 16777215
176
     1
 74
     1
176
     1
 91
        0
176
     1
 64
     7
176
     1
 65
   257
176
     1
 75
     1
176
     1
175
     1
176
     1
 42
1.0
176
     1
 92
        0
176
     1
 66
   257
176
     1
 43
1.0
176
     1
 76
     1
176
     1
 77
     6
176
     1
 78
     2
176
     1
 67
     7
176
     1
 79
     5
176
     1
170
     0
176
     1
171
     0
176
     1
290
     0
176
     1
 93
       13
176
     1
 44
0.0
176
     1
173
     0
176
     1
  0
VISUALSTYLE
  5
15E
102
{ACAD_REACTORS
330
15B
102
}
330
15B
100
AcDbVisualStyle
  2
Gouraud
 70
     2
177
     2
291
     1
 71
     2
176
     1
 72
     2
176
     1
 73
     1
176
     1
 90
        2
176
     1
 40
0.6
176
     1
 41
30.0
176
     1
 63
     7
421
 16777215
176
     1
 74
     0
176
     1
 91
        0
176
     1
 64
     7
176
     1
 65
   257
176
     1
 75
     1
176
     1
175
     1
176
     1
 42
1.0
176
     1
 92
        0
176
     1
 66
     7
176
     1
 43
1.0
176
     1
 76
     1
176
     1
 77
     6
176
     1
 78
     2
176
     1
 67
     7
176
     1
 79
     5
176
     1
170
     0
176
     1
171
     0
176
     1
290
     0
176
     1
 93
       13
176
     1
 44
0.0
176
     1
173
     0
176
     1
  0
VISUALSTYLE
  5
15F
102
{ACAD_REACTORS
330
15B
102
}
330
15B
100
AcDbVisualStyle
  2
GouraudWithEdges
 70
     3
177
     2
291
     1
 71
     2
176
     1
 72
     2
176
     1
 73
     1
176
     1
 90
        2
176
     1
 40
0.6
176
     1
 41
30.0
176
     1
 63
     7
421
 16777215
176
     1
 74
     1
176
     1
 91
        0
176
     1
 64
     7
176
     1
 65
   257
176
     1
 75
     1
176
     1
175
     1
176
     1
 42
1.0
176
     1
 92
        0
176
     1
 66
   257
176
     1
 43
1.0
176
     1
 76
     1
176
     1
 77
     6
176
     1
 78
     2
176
     1
 67
     7
176
     1
 79
     5
176
     1
170
     0
176
     1
171
     0
176
     1
290
     0
176
     1
 93
       13
176
     1
 44
0.0
176
     1
173
     0
176
     1
  0
VISUALSTYLE
  5
163
102
{ACAD_REACTORS
330
15B
102
}
330
15B
100
AcDbVisualStyle
  2
Hidden
 70
     6
177
     2
291
     0
 71
     1
176
     1
 72
     2
176
     1
 73
     2
176
     1
 90
        0
176
     1
 40
0.6
176
     1
 41
30.0
176
     1
 63
     7
421
 16777215
176
     1
 74
     2
176
     1
 91
        2
176
     1
 64
     7
176
     1
 65
   257
176
     1
 75
     2
176
     1
175
     1
176
     1
 42
40.0
176
     1
 92
        0
176
     1
 66
   257
176
     1
 43
1.0
176
     1
 76
     1
176
     1
 77
     6
176
     1
 78
     2
176
     1
 67
     7
176
     1
 79
     3
176
     1
170
     0
176
     1
171
     0
176
     1
290
     0
176
     1
 93
        1
176
     1
 44
0.0
176
     1
173
     0
176
     1
  0
VISUALSTYLE
  5
171
102
{ACAD_REACTORS
330
15B
102
}
330
15B
100
AcDbVisualStyle
  2
JitterOff
 70
    20
177
     2
291
     1
 71
     2
176
     0
 72
     2
176
     0
 73
     0
176
     0
 90
        0
176
     0
 40
0.6
176
     0
 41
30.0
176
     0
 63
     7
421
 16777215
176
     0
 74
     1
176
     0
 91
        4
176
     0
 64
     7
176
     0
 65
   257
176
     0
 75
     1
176
     0
175
     1
176
     0
 42
1.0
176
     0
 92
       10
176
     2
 66
     7
176
     0
 43
1.0
176
     0
 76
     1
176
     0
 77
     6
176
     0
 78
     2
176
     0
 67
     7
176
     0
 79
     5
176
     0
170
     0
176
     0
171
     0
176
     0
290
     0
176
     0
 93
        1
176
     0
 44
0.0
176
     0
173
     0
176
     0
  0
VISUALSTYLE
  5
169
102
{ACAD_REACTORS
330
15B
102
}
330
15B
100
AcDbVisualStyle
  2
Linepattern
 70
    14
177
     2
291
     1
 71
     2
176
     1
 72
     2
176
     1
 73
     0
176
     1
 90
        0
176
     1
 40
0.6
176
     1
 41
30.0
176
     1
 63
     7
421
 16777215
176
     1
 74
     1
176
     1
 91
        4
176
     1
 64
     7
176
     1
 65
   257
176
     1
 75
     7
176
     1
175
     7
176
     1
 42
1.0
176
     1
 92
        8
176
     1
 66
     7
176
     1
 43
1.0
176
     1
 76
     1
176
     1
 77
     6
176
     1
 78
     2
176
     1
 67
     7
176
     1
 79
     5
176
     1
170
     0
176
     1
171
     0
176
     1
290
     0
176
     1
 93
        1
176
     1
 44
0.0
176
     1
173
     0
176
     1
  0
VISUALSTYLE
  5
172
102
{ACAD_REACTORS
330
15B
102
}
330
15B
100
AcDbVisualStyle
  2
OverhangOff
 70
    21
177
     2
291
     1
 71
     2
176
     0
 72
     2
176
     0
 73
     0
176
     0
 90
        0
176
     0
 40
0.6
176
     0
 41
30.0
176
     0
 63
     7
421
 16777215
176
     0
 74
     1
176
     0
 91
        4
176
     0
 64
     7
176
     0
 65
   257
176
     0
 75
     1
176
     0
175
     1
176
     0
 42
1.0
176
     0
 92
        9
176
     2
 66
     7
176
     0
 43
1.0
176
     0
 76
     1
176
     0
 77
     6
176
     0
 78
     2
176
     0
 67
     7
176
     0
 79
     5
176
     0
170
     0
176
     0
171
     0
176
     0
290
     0
176
     0
 93
        1
176
     0
 44
0.0
176
     0
173
     0
176
     0
  0
VISUALSTYLE
  5
165
102
{ACAD_REACTORS
330
15B
102
}
330
15B
100
AcDbVisualStyle
  2
Realistic
 70
     8
177
     2
291
     0
 71
     2
176
     1
 72
     3
176
     1
 73
     0
176
     1
 90
        2
176
     1
 40
0.6
176
     1
 41
30.0
176
     1
 63
     7
421
 16777215
176
     1
 74
     0
176
     1
 91
        0
176
     1
 64
     7
176
     1
 65
   257
176
     1
 75
     1
176
     1
175
     1
176
     1
 42
1.0
176
     1
 92
        8
176
     1
 66
   257
176
     1
 43
1.0
176
     1
 76
     1
176
     1
 77
     6
176
     1
 78
     2
176
     1
 67
     7
176
     1
 79
     3
176
     1
170
     0
176
     1
171
     0
176
     1
290
     0
176
     1
 93
       13
176
     1
 44
0.0
176
     1
173
     0
176
     1
  0
VISUALSTYLE
  5
170
102
{ACAD_REACTORS
330
15B
102
}
330
15B
100
AcDbVisualStyle
  2
Shaded
 70
    27
177
     2
291
     0
 71
     2
176
     1
 72
     2
176
     1
 73
     1
176
     1
 90
        2
176
     1
 40
0.6
176
     1
 41
30.0
176
     1
 63
     7
421
 16777215
176
     1
 74
     0
176
     1
 91
        4
176
     1
 64
     7
176
     1
 65
   257
176
     1
 75
     1
176
     1
175
     1
176
     1
 42
1.0
176
     1
 92
        8
176
     1
 66
   257
176
     1
 43
1.0
176
     1
 76
     1
176
     1
 77
     6
176
     1
 78
     2
176
     1
 67
     8
425
  7895160
176
     1
 79
     3
176
     1
170
     0
176
     1
171
     0
176
     1
290
     0
176
     1
 93
        5
176
     1
 44
0.0
176
     1
173
     0
176
     1
  0
VISUALSTYLE
  5
16F
102
{ACAD_REACTORS
330
15B
102
}
330
15B
100
AcDbVisualStyle
  2
Shaded with edges
 70
    26
177
     2
291
     0
 71
     2
176
     1
 72
     2
176
     1
 73
     1
176
     1
 90
        2
176
     1
 40
0.6
176
     1
 41
30.0
176
     1
 63
     7
421
 16777215
176
     1
 74
     1
176
     1
 91
       10
176
     1
 64
     7
176
     1
 65
   257
176
     1
 75
     2
176
     1
175
     1
176
     1
 42
1.0
176
     1
 92
        8
176
     1
 66
   257
176
     1
 43
1.0
176
     1
 76
     1
176
     1
 77
     6
176
     1
 78
     2
176
     1
 67
     7
176
     1
 79
     3
176
     1
170
     0
176
     1
171
     0
176
     1
290
     0
176
     1
 93
        5
176
     1
 44
0.0
176
     1
173
     0
176
     1
  0
VISUALSTYLE
  5
16C
102
{ACAD_REACTORS
330
15B
102
}
330
15B
100
AcDbVisualStyle
  2
Shades of Gray
 70
    23
177
     2
291
     0
 71
     2
176
     1
 72
     2
176
     1
 73
     3
176
     1
 90
        0
176
     1
 40
0.6
176
     1
 41
30.0
176
     1
 63
     7
421
 16777215
176
     1
 74
     2
176
     1
 91
        2
176
     1
 64
     7
176
     1
 65
     7
176
     1
 75
     1
176
     1
175
     1
176
     1
 42
40.0
176
     1
 92
        8
176
     1
 66
     7
176
     1
 43
1.0
176
     1
 76
     1
176
     1
 77
     6
176
     1
 78
     2
176
     1
 67
     7
176
     1
 79
     3
176
     1
170
     0
176
     1
171
     0
176
     1
290
     0
176
     1
 93
        1
176
     1
 44
0.0
176
     1
173
     0
176
     1
  0
VISUALSTYLE
  5
16D
102
{ACAD_REACTORS
330
15B
102
}
330
15B
100
AcDbVisualStyle
  2
Sketchy
 70
    24
177
     2
291
     0
 71
     1
176
     1
 72
     2
176
     1
 73
     2
176
     1
 90
        0
176
     1
 40
0.6
176
     1
 41
30.0
176
     1
 63
     7
421
 16777215
176
     1
 74
     2
176
     1
 91
        2
176
     1
 64
     7
176
     1
 65
     7
176
     1
 75
     1
176
     1
175
     1
176
     1
 42
40.0
176
     1
 92
       11
176
     1
 66
     7
176
     1
 43
1.0
176
     1
 76
     1
176
     1
 77
     6
176
     1
 78
     2
176
     1
 67
     7
176
     1
 79
     6
176
     1
170
     0
176
     1
171
     0
176
     1
290
     0
176
     1
 93
        1
176
     1
 44
0.0
176
     1
173
     0
176
     1
  0
VISUALSTYLE
  5
168
102
{ACAD_REACTORS
330
15B
102
}
330
15B
100
AcDbVisualStyle
  2
Thicken
 70
    13
177
     2
291
     1
 71
     2
176
     1
 72
     2
176
     1
 73
     0
176
     1
 90
        0
176
     1
 40
0.6
176
     1
 41
30.0
176
     1
 63
     7
421
 16777215
176
     1
 74
     1
176
     1
 91
        4
176
     1
 64
     7
176
     1
 65
   257
176
     1
 75
     1
176
     1
175
     1
176
     1
 42
1.0
176
     1
 92
       12
176
     1
 66
     7
176
     1
 43
1.0
176
     1
 76
     1
176
     1
 77
     6
176
     1
 78
     2
176
     1
 67
     7
176
     1
 79
     5
176
     1
170
     0
176
     1
171
     0
176
     1
290
     0
176
     1
 93
        1
176
     1
 44
0.0
176
     1
173
     0
176
     1
  0
VISUALSTYLE
  5
162
102
{ACAD_REACTORS
330
15B
102
}
330
15B
100
AcDbVisualStyle
  2
Wireframe
 70
     5
177
     2
291
     0
 71
     0
176
     1
 72
     2
176
     1
 73
     0
176
     1
 90
        0
176
     1
 40
0.6
176
     1
 41
30.0
176
     1
 63
     7
421
 16777215
176
     1
 74
     1
176
     1
 91
        4
176
     1
 64
     7
176
     1
 65
   257
176
     1
 75
     1
176
     1
175
     1
176
     1
 42
1.0
176
     1
 92
        0
176
     1
 66
   257
176
     1
 43
1.0
176
     1
 76
     1
176
     1
 77
     6
176
     1
 78
     2
176
     1
 67
     7
176
     1
 79
     3
176
     1
170
     0
176
     1
171
     0
176
     1
290
     0
176
     1
 93
        1
176
     1
 44
0.0
176
     1
173
     0
176
     1
  0
VISUALSTYLE
  5
16E
102
{ACAD_REACTORS
330
15B
102
}
330
15B
100
AcDbVisualStyle
  2
X-Ray
 70
    25
177
     2
291
     0
 71
     2
176
     1
 72
     2
176
     1
 73
     1
176
     1
 90
        1
176
     1
 40
0.5
176
     1
 41
30.0
176
     1
 63
     7
421
 16777215
176
     1
 74
     1
176
     1
 91
        0
176
     1
 64
     7
176
     1
 65
   257
176
     1
 75
     1
176
     1
175
     1
176
     1
 42
1.0
176
     1
 92
        8
176
     1
 66
     7
176
     1
 43
1.0
176
     1
 76
     1
176
     1
 77
     6
176
     1
 78
     2
176
     1
 67
     7
176
     1
 79
     3
176
     1
170
     0
176
     1
171
     0
176
     1
290
     0
176
     1
 93
       13
176
     1
 44
0.0
176
     1
173
     0
176
     1
  0
DICTIONARYVAR
  5
198
102
{ACAD_REACTORS
330
128
102
}
330
128
100
DictionaryVariables
280
     0
  1
1:1
  0
DICTIONARYVAR
  5
196
102
{ACAD_REACTORS
330
128
102
}
330
128
100
DictionaryVariables
280
     0
  1
STANDARD
  0
DICTIONARYVAR
  5
129
102
{ACAD_REACTORS
330
128
102
}
330
128
100
DictionaryVariables
280
     0
  1
STANDARD
  0
DICTIONARYVAR
  5
136
102
{ACAD_REACTORS
330
128
102
}
330
128
100
DictionaryVariables
280
     0
  1
1
  0
DICTIONARYVAR
  5
135
102
{ACAD_REACTORS
330
128
102
}
330
128
100
DictionaryVariables
280
     0
  1
1
  0
DICTIONARYVAR
  5
19A
102
{ACAD_REACTORS
330
128
102
}
330
128
100
DictionaryVariables
280
     0
  1
1
  0
DICTIONARYVAR
  5
19B
102
{ACAD_REACTORS
330
128
102
}
330
128
100
DictionaryVariables
280
     0
  1
15
  0
DICTIONARYVAR
  5
199
102
{ACAD_REACTORS
330
128
102
}
330
128
100
DictionaryVariables
280
     0
  1
0
  0
DICTIONARYVAR
  5
197
102
{ACAD_REACTORS
330
128
102
}
330
128
100
DictionaryVariables
280
     0
  1
0
  0
DICTIONARYVAR
  5
137
102
{ACAD_REACTORS
330
128
102
}
330
128
100
DictionaryVariables
280
     0
  1

  0
XRECORD
  5
127
102
{ACAD_REACTORS
330
125
102
}
330
125
100
AcDbXrecord
280
     1
  0
DICTIONARY
  5
14C
330
14B
100
AcDbDictionary
280
     1
281
     1
  3
BUMPTILE
360
14E
  3
DIFFUSETILE
360
14D
  3
OPACITYTILE
360
151
  3
REFLECTIONTILE
360
150
  3
REFRACTIONTILE
360
152
  3
SPECULARTILE
360
14F
  0
DICTIONARY
  5
144
330
143
100
AcDbDictionary
280
     1
281
     1
  3
BUMPTILE
360
146
  3
DIFFUSETILE
360
145
  3
OPACITYTILE
360
149
  3
REFLECTIONTILE
360
148
  3
REFRACTIONTILE
360
14A
  3
SPECULARTILE
360
147
  0
DICTIONARY
  5
154
330
153
100
AcDbDictionary
280
     1
281
     1
  3
BUMPTILE
360
156
  3
DIFFUSETILE
360
155
  3
OPACITYTILE
360
159
  3
REFLECTIONTILE
360
158
  3
REFRACTIONTILE
360
15A
  3
SPECULARTILE
360
157
  0
DICTIONARY
  5
19F
330
187
100
AcDbDictionary
280
     1
281
     1
  3
ACAD_XREC_ROUNDTRIP
360
1A0
  0
DICTIONARY
  5
19D
330
27
100
AcDbDictionary
280
     1
281
     1
  3
ACAD_ROUNDTRIP_2008_TABLESTYLE_CELLSTYLEMAP
360
19E
  0
XRECORD
  5
14E
102
{ACAD_REACTORS
330
14C
102
}
330
14C
100
AcDbXrecord
280
     1
270
     1
271
     1
  0
XRECORD
  5
14D
102
{ACAD_REACTORS
330
14C
102
}
330
14C
100
AcDbXrecord
280
     1
270
     1
271
     1
  0
XRECORD
  5
151
102
{ACAD_REACTORS
330
14C
102
}
330
14C
100
AcDbXrecord
280
     1
270
     1
271
     1
  0
XRECORD
  5
150
102
{ACAD_REACTORS
330
14C
102
}
330
14C
100
AcDbXrecord
280
     1
270
     1
271
     1
  0
XRECORD
  5
152
102
{ACAD_REACTORS
330
14C
102
}
330
14C
100
AcDbXrecord
280
     1
270
     1
271
     1
  0
XRECORD
  5
14F
102
{ACAD_REACTORS
330
14C
102
}
330
14C
100
AcDbXrecord
280
     1
270
     1
271
     1
  0
XRECORD
  5
146
102
{ACAD_REACTORS
330
144
102
}
330
144
100
AcDbXrecord
280
     1
270
     1
271
     1
  0
XRECORD
  5
145
102
{ACAD_REACTORS
330
144
102
}
330
144
100
AcDbXrecord
280
     1
270
     1
271
     1
  0
XRECORD
  5
149
102
{ACAD_REACTORS
330
144
102
}
330
144
100
AcDbXrecord
280
     1
270
     1
271
     1
  0
XRECORD
  5
148
102
{ACAD_REACTORS
330
144
102
}
330
144
100
AcDbXrecord
280
     1
270
     1
271
     1
  0
XRECORD
  5
14A
102
{ACAD_REACTORS
330
144
102
}
330
144
100
AcDbXrecord
280
     1
270
     1
271
     1
  0
XRECORD
  5
147
102
{ACAD_REACTORS
330
144
102
}
330
144
100
AcDbXrecord
280
     1
270
     1
271
     1
  0
XRECORD
  5
156
102
{ACAD_REACTORS
330
154
102
}
330
154
100
AcDbXrecord
280
     1
270
     1
271
     1
  0
XRECORD
  5
155
102
{ACAD_REACTORS
330
154
102
}
330
154
100
AcDbXrecord
280
     1
270
     1
271
     1
  0
XRECORD
  5
159
102
{ACAD_REACTORS
330
154
102
}
330
154
100
AcDbXrecord
280
     1
270
     1
271
     1
  0
XRECORD
  5
158
102
{ACAD_REACTORS
330
154
102
}
330
154
100
AcDbXrecord
280
     1
270
     1
271
     1
  0
XRECORD
  5
15A
102
{ACAD_REACTORS
330
154
102
}
330
154
100
AcDbXrecord
280
     1
270
     1
271
     1
  0
XRECORD
  5
157
102
{ACAD_REACTORS
330
154
102
}
330
154
100
AcDbXrecord
280
     1
270
     1
271
     1
  0
XRECORD
  5
1A0
102
{ACAD_REACTORS
330
19F
102
}
330
19F
100
AcDbXrecord
280
     1
102
ACAD_ROUNDTRIP_2012_MLEADER_STYLE
298
     1
  0
CELLSTYLEMAP
  5
19E
102
{ACAD_REACTORS
330
19D
102
}
330
19D
100
AcDbCellStyleMap
 90
        3
300
CELLSTYLE
  1
TABLEFORMAT_BEGIN
 90
        5
170
     1
 91
        0
 92
    32768
 62
   257
 93
        1
300
CONTENTFORMAT
  1
CONTENTFORMAT_BEGIN
 90
        0
 91
        0
 92
        4
 93
        0
300

 40
0.0
140
1.0
 94
        5
 62
     0
340
12
144
6.0
309
CONTENTFORMAT_END
171
     1
301
MARGIN
  1
CELLMARGIN_BEGIN
 40
1.5
 40
1.5
 40
1.5
 40
1.5
 40
0.18
 40
0.18
309
CELLMARGIN_END
 94
        6
 95
        1
302
GRIDFORMAT
  1
GRIDFORMAT_BEGIN
 90
        0
 91
        1
 62
     0
 92
       -2
340
0
 93
        0
 40
0.045
309
GRIDFORMAT_END
 95
        2
302
GRIDFORMAT
  1
GRIDFORMAT_BEGIN
 90
        0
 91
        1
 62
     0
 92
       -2
340
0
 93
        0
 40
0.045
309
GRIDFORMAT_END
 95
        4
302
GRIDFORMAT
  1
GRIDFORMAT_BEGIN
 90
        0
 91
        1
 62
     0
 92
       -2
340
0
 93
        0
 40
0.045
309
GRIDFORMAT_END
 95
        8
302
GRIDFORMAT
  1
GRIDFORMAT_BEGIN
 90
        0
 91
        1
 62
     0
 92
       -2
340
0
 93
        0
 40
0.045
309
GRIDFORMAT_END
 95
       16
302
GRIDFORMAT
  1
GRIDFORMAT_BEGIN
 90
        0
 91
        1
 62
     0
 92
       -2
340
0
 93
        0
 40
0.045
309
GRIDFORMAT_END
 95
       32
302
GRIDFORMAT
  1
GRIDFORMAT_BEGIN
 90
        0
 91
        1
 62
     0
 92
       -2
340
0
 93
        0
 40
0.045
309
GRIDFORMAT_END
309
TABLEFORMAT_END
  1
CELLSTYLE_BEGIN
 90
        1
 91
        1
300
_TITLE
309
CELLSTYLE_END
300
CELLSTYLE
  1
TABLEFORMAT_BEGIN
 90
        5
170
     1
 91
        0
 92
        0
 62
   257
 93
        1
300
CONTENTFORMAT
  1
CONTENTFORMAT_BEGIN
 90
        0
 91
        0
 92
        4
 93
        0
300

 40
0.0
140
1.0
 94
        5
 62
     0
340
12
144
4.5
309
CONTENTFORMAT_END
171
     1
301
MARGIN
  1
CELLMARGIN_BEGIN
 40
1.5
 40
1.5
 40
1.5
 40
1.5
 40
0.18
 40
0.18
309
CELLMARGIN_END
 94
        6
 95
        1
302
GRIDFORMAT
  1
GRIDFORMAT_BEGIN
 90
        0
 91
        1
 62
     0
 92
       -2
340
0
 93
        0
 40
0.045
309
GRIDFORMAT_END
 95
        2
302
GRIDFORMAT
  1
GRIDFORMAT_BEGIN
 90
        0
 91
        1
 62
     0
 92
       -2
340
0
 93
        0
 40
0.045
309
GRIDFORMAT_END
 95
        4
302
GRIDFORMAT
  1
GRIDFORMAT_BEGIN
 90
        0
 91
        1
 62
     0
 92
       -2
340
0
 93
        0
 40
0.045
309
GRIDFORMAT_END
 95
        8
302
GRIDFORMAT
  1
GRIDFORMAT_BEGIN
 90
        0
 91
        1
 62
     0
 92
       -2
340
0
 93
        0
 40
0.045
309
GRIDFORMAT_END
 95
       16
302
GRIDFORMAT
  1
GRIDFORMAT_BEGIN
 90
        0
 91
        1
 62
     0
 92
       -2
340
0
 93
        0
 40
0.045
309
GRIDFORMAT_END
 95
       32
302
GRIDFORMAT
  1
GRIDFORMAT_BEGIN
 90
        0
 91
        1
 62
     0
 92
       -2
340
0
 93
        0
 40
0.045
309
GRIDFORMAT_END
309
TABLEFORMAT_END
  1
CELLSTYLE_BEGIN
 90
        2
 91
        1
300
_HEADER
309
CELLSTYLE_END
300
CELLSTYLE
  1
TABLEFORMAT_BEGIN
 90
        5
170
     1
 91
        0
 92
        0
 62
   257
 93
        1
300
CONTENTFORMAT
  1
CONTENTFORMAT_BEGIN
 90
        0
 91
        0
 92
        4
 93
        0
300

 40
0.0
140
1.0
 94
        2
 62
     0
340
12
144
4.5
309
CONTENTFORMAT_END
171
     1
301
MARGIN
  1
CELLMARGIN_BEGIN
 40
1.5
 40
1.5
 40
1.5
 40
1.5
 40
0.18
 40
0.18
309
CELLMARGIN_END
 94
        6
 95
        1
302
GRIDFORMAT
  1
GRIDFORMAT_BEGIN
 90
        0
 91
        1
 62
     0
 92
       -2
340
0
 93
        0
 40
0.045
309
GRIDFORMAT_END
 95
        2
302
GRIDFORMAT
  1
GRIDFORMAT_BEGIN
 90
        0
 91
        1
 62
     0
 92
       -2
340
0
 93
        0
 40
0.045
309
GRIDFORMAT_END
 95
        4
302
GRIDFORMAT
  1
GRIDFORMAT_BEGIN
 90
        0
 91
        1
 62
     0
 92
       -2
340
0
 93
        0
 40
0.045
309
GRIDFORMAT_END
 95
        8
302
GRIDFORMAT
  1
GRIDFORMAT_BEGIN
 90
        0
 91
        1
 62
     0
 92
       -2
340
0
 93
        0
 40
0.045
309
GRIDFORMAT_END
 95
       16
302
GRIDFORMAT
  1
GRIDFORMAT_BEGIN
 90
        0
 91
        1
 62
     0
 92
       -2
340
0
 93
        0
 40
0.045
309
GRIDFORMAT_END
 95
       32
302
GRIDFORMAT
  1
GRIDFORMAT_BEGIN
 90
        0
 91
        1
 62
     0
 92
       -2
340
0
 93
        0
 40
0.045
309
GRIDFORMAT_END
309
TABLEFORMAT_END
  1
CELLSTYLE_BEGIN
 90
        3
 91
        2
300
_DATA
309
CELLSTYLE_END
  0
ENDSEC
  0
EOF
