  0
SECTION
  2
HEADER
  9
$ACADVER
  1
AC1032
  9
$ACADMAINTVER
 90
4
  9
$DWGCODEPAGE
  3
ANSI_1252
  9
$LASTSAVEDBY
  1
ezdxf
  9
$REQUIREDVERSIONS
160
0
  9
$INSBASE
 10
0.0
 20
0.0
 30
0.0
  9
$EXTMIN
 10
1e+20
 20
1e+20
 30
1e+20
  9
$EXTMAX
 10
-1e+20
 20
-1e+20
 30
-1e+20
  9
$LIMMIN
 10
0.0
 20
0.0
  9
$LIMMAX
 10
420.0
 20
297.0
  9
$ORTHOMODE
 70
0
  9
$REGENMODE
 70
1
  9
$FILLMODE
 70
1
  9
$QTEXTMODE
 70
0
  9
$MIRRTEXT
 70
1
  9
$LTSCALE
 40
1.0
  9
$ATTMODE
 70
1
  9
$TEXTSIZE
 40
2.5
  9
$TRACEWID
 40
1.0
  9
$TEXTSTYLE
  7
Standard
  9
$CLAYER
  8
0
  9
$CELTYPE
  6
ByLayer
  9
$CECOLOR
 62
256
  9
$CELTSCALE
 40
1.0
  9
$DISPSILH
 70
0
  9
$DIMSCALE
 40
1.0
  9
$DIMASZ
 40
2.5
  9
$DIMEXO
 40
0.625
  9
$DIMDLI
 40
3.75
  9
$DIMRND
 40
0.0
  9
$DIMDLE
 40
0.0
  9
$DIMEXE
 40
1.25
  9
$DIMTP
 40
0.0
  9
$DIMTM
 40
0.0
  9
$DIMTXT
 40
2.5
  9
$DIMCEN
 40
2.5
  9
$DIMTSZ
 40
0.0
  9
$DIMTOL
 70
0
  9
$DIMLIM
 70
0
  9
$DIMTIH
 70
0
  9
$DIMTOH
 70
0
  9
$DIMSE1
 70
0
  9
$DIMSE2
 70
0
  9
$DIMTAD
 70
1
  9
$DIMZIN
 70
8
  9
$DIMBLK
  1

  9
$DIMASO
 70
1
  9
$DIMSHO
 70
1
  9
$DIMPOST
  1

  9
$DIMAPOST
  1

  9
$DIMALT
 70
0
  9
$DIMALTD
 70
3
  9
$DIMALTF
 40
0.03937007874
  9
$DIMLFAC
 40
1.0
  9
$DIMTOFL
 70
1
  9
$DIMTVP
 40
0.0
  9
$DIMTIX
 70
0
  9
$DIMSOXD
 70
0
  9
$DIMSAH
 70
0
  9
$DIMBLK1
  1

  9
$DIMBLK2
  1

  9
$DIMSTYLE
  2
ISO-25
  9
$DIMCLRD
 70
0
  9
$DIMCLRE
 70
0
  9
$DIMCLRT
 70
0
  9
$DIMTFAC
 40
1.0
  9
$DIMGAP
 40
0.625
  9
$DIMJUST
 70
0
  9
$DIMSD1
 70
0
  9
$DIMSD2
 70
0
  9
$DIMTOLJ
 70
0
  9
$DIMTZIN
 70
8
  9
$DIMALTZ
 70
0
  9
$DIMALTTZ
 70
0
  9
$DIMUPT
 70
0
  9
$DIMDEC
 70
2
  9
$DIMTDEC
 70
2
  9
$DIMALTU
 70
2
  9
$DIMALTTD
 70
3
  9
$DIMTXSTY
  7
Standard
  9
$DIMAUNIT
 70
0
  9
$DIMADEC
 70
0
  9
$DIMALTRND
 40
0.0
  9
$DIMAZIN
 70
0
  9
$DIMDSEP
 70
44
  9
$DIMATFIT
 70
3
  9
$DIMFRAC
 70
0
  9
$DIMLDRBLK
  1

  9
$DIMLUNIT
 70
2
  9
$DIMLWD
 70
-2
  9
$DIMLWE
 70
-2
  9
$DIMTMOVE
 70
0
  9
$DIMFXL
 40
1.0
  9
$DIMFXLON
 70
0
  9
$DIMJOGANG
 40
0.785398163397
  9
$DIMTFILL
 70
0
  9
$DIMTFILLCLR
 70
0
  9
$DIMARCSYM
 70
0
  9
$DIMLTYPE
  6

  9
$DIMLTEX1
  6

  9
$DIMLTEX2
  6

  9
$DIMTXTDIRECTION
 70
0
  9
$LUNITS
 70
2
  9
$LUPREC
 70
4
  9
$SKETCHINC
 40
1.0
  9
$FILLETRAD
 40
10.0
  9
$AUNITS
 70
0
  9
$AUPREC
 70
2
  9
$MENU
  1
.
  9
$ELEVATION
 40
0.0
  9
$PELEVATION
 40
0.0
  9
$THICKNESS
 40
0.0
  9
$LIMCHECK
 70
0
  9
$CHAMFERA
 40
0.0
  9
$CHAMFERB
 40
0.0
  9
$CHAMFERC
 40
0.0
  9
$CHAMFERD
 40
0.0
  9
$SKPOLY
 70
0
  9
$TDCREATE
 40
2461085.245972222
  9
$TDUCREATE
 40
2458532.153996898
  9
$TDUPDATE
 40
2461085.245972222
  9
$TDUUPDATE
 40
2458532.1544311
  9
$TDINDWG
 40
0.0
  9
$TDUSRTIMER
 40
0.0
  9
$USRTIMER
 70
1
  9
$ANGBASE
 50
0.0
  9
$ANGDIR
 70
0
  9
$PDMODE
 70
0
  9
$PDSIZE
 40
0.0
  9
$PLINEWID
 40
0.0
  9
$SPLFRAME
 70
0
  9
$SPLINETYPE
 70
6
  9
$SPLINESEGS
 70
8
  9
$HANDSEED
  5
66
  9
$SURFTAB1
 70
6
  9
$SURFTAB2
 70
6
  9
$SURFTYPE
 70
6
  9
$SURFU
 70
6
  9
$SURFV
 70
6
  9
$UCSBASE
  2

  9
$UCSNAME
  2

  9
$UCSORG
 10
0.0
 20
0.0
 30
0.0
  9
$UCSXDIR
 10
1.0
 20
0.0
 30
0.0
  9
$UCSYDIR
 10
0.0
 20
1.0
 30
0.0
  9
$UCSORTHOREF
  2

  9
$UCSORTHOVIEW
 70
0
  9
$UCSORGTOP
 10
0.0
 20
0.0
 30
0.0
  9
$UCSORGBOTTOM
 10
0.0
 20
0.0
 30
0.0
  9
$UCSORGLEFT
 10
0.0
 20
0.0
 30
0.0
  9
$UCSORGRIGHT
 10
0.0
 20
0.0
 30
0.0
  9
$UCSORGFRONT
 10
0.0
 20
0.0
 30
0.0
  9
$UCSORGBACK
 10
0.0
 20
0.0
 30
0.0
  9
$PUCSBASE
  2

  9
$PUCSNAME
  2

  9
$PUCSORG
 10
0.0
 20
0.0
 30
0.0
  9
$PUCSXDIR
 10
1.0
 20
0.0
 30
0.0
  9
$PUCSYDIR
 10
0.0
 20
1.0
 30
0.0
  9
$PUCSORTHOREF
  2

  9
$PUCSORTHOVIEW
 70
0
  9
$PUCSORGTOP
 10
0.0
 20
0.0
 30
0.0
  9
$PUCSORGBOTTOM
 10
0.0
 20
0.0
 30
0.0
  9
$PUCSORGLEFT
 10
0.0
 20
0.0
 30
0.0
  9
$PUCSORGRIGHT
 10
0.0
 20
0.0
 30
0.0
  9
$PUCSORGFRONT
 10
0.0
 20
0.0
 30
0.0
  9
$PUCSORGBACK
 10
0.0
 20
0.0
 30
0.0
  9
$USERI1
 70
0
  9
$USERI2
 70
0
  9
$USERI3
 70
0
  9
$USERI4
 70
0
  9
$USERI5
 70
0
  9
$USERR1
 40
0.0
  9
$USERR2
 40
0.0
  9
$USERR3
 40
0.0
  9
$USERR4
 40
0.0
  9
$USERR5
 40
0.0
  9
$WORLDVIEW
 70
1
  9
$SHADEDGE
 70
3
  9
$SHADEDIF
 70
70
  9
$TILEMODE
 70
1
  9
$MAXACTVP
 70
64
  9
$PINSBASE
 10
0.0
 20
0.0
 30
0.0
  9
$PLIMCHECK
 70
0
  9
$PEXTMIN
 10
1e+20
 20
1e+20
 30
1e+20
  9
$PEXTMAX
 10
-1e+20
 20
-1e+20
 30
-1e+20
  9
$PLIMMIN
 10
0.0
 20
0.0
  9
$PLIMMAX
 10
420.0
 20
297.0
  9
$UNITMODE
 70
0
  9
$VISRETAIN
 70
1
  9
$PLINEGEN
 70
0
  9
$PSLTSCALE
 70
1
  9
$TREEDEPTH
 70
3020
  9
$CMLSTYLE
  2
Standard
  9
$CMLJUST
 70
0
  9
$CMLSCALE
 40
20.0
  9
$PROXYGRAPHICS
 70
1
  9
$MEASUREMENT
 70
1
  9
$CELWEIGHT
370
-1
  9
$ENDCAPS
280
0
  9
$JOINSTYLE
280
0
  9
$LWDISPLAY
290
0
  9
$INSUNITS
 70
6
  9
$HYPERLINKBASE
  1

  9
$STYLESHEET
  1

  9
$XEDIT
290
1
  9
$CEPSNTYPE
380
0
  9
$PSTYLEMODE
290
1
  9
$FINGERPRINTGUID
  2
{7AACA8F6-6FB8-4541-9DE3-966212C9F204}
  9
$VERSIONGUID
  2
{D72145D8-F116-46C1-97DB-88C5F22D1CA6}
  9
$EXTNAMES
290
1
  9
$PSVPSCALE
 40
0.0
  9
$OLESTARTUP
290
0
  9
$SORTENTS
280
127
  9
$INDEXCTL
280
0
  9
$HIDETEXT
280
1
  9
$XCLIPFRAME
280
1
  9
$HALOGAP
280
0
  9
$OBSCOLOR
 70
257
  9
$OBSLTYPE
280
0
  9
$INTERSECTIONDISPLAY
280
0
  9
$INTERSECTIONCOLOR
 70
257
  9
$DIMASSOC
280
2
  9
$PROJECTNAME
  1

  9
$CAMERADISPLAY
290
0
  9
$LENSLENGTH
 40
50.0
  9
$CAMERAHEIGHT
 40
0.0
  9
$STEPSPERSEC
 40
24.0
  9
$STEPSIZE
 40
100.0
  9
$3DDWFPREC
 40
2.0
  9
$PSOLWIDTH
 40
0.005
  9
$PSOLHEIGHT
 40
0.08
  9
$LOFTANG1
 40
1.570796326795
  9
$LOFTANG2
 40
1.570796326795
  9
$LOFTMAG1
 40
0.0
  9
$LOFTMAG2
 40
0.0
  9
$LOFTPARAM
 70
7
  9
$LOFTNORMALS
280
1
  9
$LATITUDE
 40
37.795
  9
$LONGITUDE
 40
-122.394
  9
$NORTHDIRECTION
 40
0.0
  9
$TIMEZONE
 70
-8000
  9
$LIGHTGLYPHDISPLAY
280
1
  9
$TILEMODELIGHTSYNCH
280
1
  9
$CMATERIAL
347
20
  9
$SOLIDHIST
280
0
  9
$SHOWHIST
280
1
  9
$DWFFRAME
280
2
  9
$DGNFRAME
280
2
  9
$REALWORLDSCALE
290
1
  9
$INTERFERECOLOR
 62
256
  9
$CSHADOW
280
0
  9
$SHADOWPLANELOCATION
 40
0.0
  0
ENDSEC
  0
SECTION
  2
CLASSES
  0
CLASS
  1
ACDBDICTIONARYWDFLT
  2
AcDbDictionaryWithDefault
  3
ObjectDBX Classes
 90
0
 91
0
280
0
281
0
  0
CLASS
  1
SUN
  2
AcDbSun
  3
SCENEOE
 90
1153
 91
0
280
0
281
0
  0
CLASS
  1
VISUALSTYLE
  2
AcDbVisualStyle
  3
ObjectDBX Classes
 90
4095
 91
0
280
0
281
0
  0
CLASS
  1
MATERIAL
  2
AcDbMaterial
  3
ObjectDBX Classes
 90
1153
 91
0
280
0
281
0
  0
CLASS
  1
SCALE
  2
AcDbScale
  3
ObjectDBX Classes
 90
1153
 91
0
280
0
281
0
  0
CLASS
  1
TABLESTYLE
  2
AcDbTableStyle
  3
ObjectDBX Classes
 90
4095
 91
0
280
0
281
0
  0
CLASS
  1
MLEADERSTYLE
  2
AcDbMLeaderStyle
  3
ACDB_MLEADERSTYLE_CLASS
 90
4095
 91
0
280
0
281
0
  0
CLASS
  1
DICTIONARYVAR
  2
AcDbDictionaryVar
  3
ObjectDBX Classes
 90
0
 91
0
280
0
281
0
  0
CLASS
  1
CELLSTYLEMAP
  2
AcDbCellStyleMap
  3
ObjectDBX Classes
 90
1152
 91
0
280
0
281
0
  0
CLASS
  1
MENTALRAYRENDERSETTINGS
  2
AcDbMentalRayRenderSettings
  3
SCENEOE
 90
1024
 91
0
280
0
281
0
  0
CLASS
  1
ACDBDETAILVIEWSTYLE
  2
AcDbDetailViewStyle
  3
ObjectDBX Classes
 90
1025
 91
0
280
0
281
0
  0
CLASS
  1
ACDBSECTIONVIEWSTYLE
  2
AcDbSectionViewStyle
  3
ObjectDBX Classes
 90
1025
 91
0
280
0
281
0
  0
CLASS
  1
RASTERVARIABLES
  2
AcDbRasterVariables
  3
ISM
 90
0
 91
0
280
0
281
0
  0
CLASS
  1
LAYOUT
  2
AcDbLayout
  3
ObjectDBX Classes
 90
0
 91
0
280
0
281
0
  0
CLASS
  1
ACDBPLACEHOLDER
  2
AcDbPlaceHolder
  3
ObjectDBX Classes
 90
0
 91
0
280
0
281
0
  0
ENDSEC
  0
SECTION
  2
TABLES
  0
TABLE
  2
VPORT
  5
8
330
0
100
AcDbSymbolTable
 70
1
  0
VPORT
  5
23
330
8
100
AcDbSymbolTableRecord
100
AcDbViewportTableRecord
  2
*Active
 70
0
 10
0.0
 20
0.0
 11
1.0
 21
1.0
 12
0.0
 22
0.0
 13
0.0
 23
0.0
 14
0.5
 24
0.5
 15
0.5
 25
0.5
 16
0.0
 26
0.0
 36
1.0
 17
0.0
 27
0.0
 37
0.0
 40
1000.0
 41
1.34
 42
50.0
 43
0.0
 44
0.0
 50
0.0
 51
0.0
 71
0
 72
1000
 73
1
 74
3
 75
0
 76
0
 77
0
 78
0
281
0
 65
0
146
0.0
  0
ENDTAB
  0
TABLE
  2
LTYPE
  5
2
330
0
100
AcDbSymbolTable
 70
3
  0
LTYPE
  5
24
330
2
100
AcDbSymbolTableRecord
100
AcDbLinetypeTableRecord
  2
ByBlock
 70
0
  3

 72
65
 73
0
 40
0.0
  0
LTYPE
  5
25
330
2
100
AcDbSymbolTableRecord
100
AcDbLinetypeTableRecord
  2
ByLayer
 70
0
  3

 72
65
 73
0
 40
0.0
  0
LTYPE
  5
26
330
2
100
AcDbSymbolTableRecord
100
AcDbLinetypeTableRecord
  2
Continuous
 70
0
  3

 72
65
 73
0
 40
0.0
  0
ENDTAB
  0
TABLE
  2
LAYER
  5
1
330
0
100
AcDbSymbolTable
 70
3
  0
LAYER
  5
27
330
1
100
AcDbSymbolTableRecord
100
AcDbLayerTableRecord
  2
0
 70
0
 62
7
  6
Continuous
370
-3
390
13
347
21
  0
LAYER
  5
28
330
1
100
AcDbSymbolTableRecord
100
AcDbLayerTableRecord
  2
Defpoints
 70
0
 62
7
  6
Continuous
290
0
370
-3
390
13
347
21
  0
LAYER
  5
60
330
1
100
AcDbSymbolTableRecord
100
AcDbLayerTableRecord
  2
A-DETL-GENF
 70
0
 62
92
  6
Continuous
370
18
390
13
347
21
348
0
  0
ENDTAB
  0
TABLE
  2
STYLE
  5
5
330
0
100
AcDbSymbolTable
 70
1
  0
STYLE
  5
29
330
5
100
AcDbSymbolTableRecord
100
AcDbTextStyleTableRecord
  2
Standard
 70
0
 40
0.0
 41
1.0
 50
0.0
 71
0
 42
2.5
  3
txt
  4

  0
ENDTAB
  0
TABLE
  2
VIEW
  5
7
330
0
100
AcDbSymbolTable
 70
0
  0
ENDTAB
  0
TABLE
  2
UCS
  5
6
330
0
100
AcDbSymbolTable
 70
0
  0
ENDTAB
  0
TABLE
  2
APPID
  5
3
330
0
100
AcDbSymbolTable
 70
3
  0
APPID
  5
2A
330
3
100
AcDbSymbolTableRecord
100
AcDbRegAppTableRecord
  2
ACAD
 70
0
  0
APPID
  5
63
330
3
100
AcDbSymbolTableRecord
100
AcDbRegAppTableRecord
  2
HATCHBACKGROUNDCOLOR
 70
0
  0
APPID
  5
64
330
3
100
AcDbSymbolTableRecord
100
AcDbRegAppTableRecord
  2
EZDXF
 70
0
  0
ENDTAB
  0
TABLE
  2
DIMSTYLE
  5
4
330
0
100
AcDbSymbolTable
 70
1
100
AcDbDimStyleTable
  0
DIMSTYLE
105
2B
330
4
100
AcDbSymbolTableRecord
100
AcDbDimStyleTableRecord
  2
Standard
 70
0
 40
1.0
 41
2.5
 42
0.625
 43
3.75
 44
1.25
 45
0.0
 46
0.0
 47
0.0
 48
0.0
 49
2.5
140
2.5
141
2.5
142
0.0
143
0.03937007874
144
1.0
145
0.0
146
1.0
147
0.625
148
0.0
 69
0
 70
0
 71
0
 72
0
 73
0
 74
0
 75
0
 76
0
 77
1
 78
8
 79
3
170
0
171
3
172
1
173
0
174
0
175
0
176
0
177
0
178
0
179
2
271
2
272
2
273
2
274
3
275
0
276
0
277
2
278
44
279
0
280
0
281
0
282
0
283
0
284
8
285
0
286
0
288
0
289
3
290
0
371
-2
372
-2
  0
ENDTAB
  0
TABLE
  2
BLOCK_RECORD
  5
9
330
0
100
AcDbSymbolTable
 70
3
  0
BLOCK_RECORD
  5
17
330
9
100
AcDbSymbolTableRecord
100
AcDbBlockTableRecord
  2
*Model_Space
340
1A
 70
0
280
1
281
0
  0
BLOCK_RECORD
  5
1B
330
9
100
AcDbSymbolTableRecord
100
AcDbBlockTableRecord
  2
*Paper_Space
340
1E
 70
0
280
1
281
0
  0
BLOCK_RECORD
  5
2F
330
9
100
AcDbSymbolTableRecord
100
AcDbBlockTableRecord
  2
31 glasafdichting - glasafdichting buiten - Type 1-446658-00_0 Basismaterialen
340
0
 70
0
280
1
281
0
  0
ENDTAB
  0
ENDSEC
  0
SECTION
  2
BLOCKS
  0
BLOCK
  5
18
330
17
100
AcDbEntity
  8
0
100
AcDbBlockBegin
  2
*Model_Space
 70
0
 10
0.0
 20
0.0
 30
0.0
  3
*Model_Space
  1

  0
ENDBLK
  5
19
330
17
100
AcDbEntity
  8
0
100
AcDbBlockEnd
  0
BLOCK
  5
1C
330
1B
100
AcDbEntity
  8
0
100
AcDbBlockBegin
  2
*Paper_Space
 70
0
 10
0.0
 20
0.0
 30
0.0
  3
*Paper_Space
  1

  0
ENDBLK
  5
1D
330
1B
100
AcDbEntity
  8
0
100
AcDbBlockEnd
  0
BLOCK
  5
30
330
2F
100
AcDbEntity
  8
0
100
AcDbBlockBegin
  2
31 glasafdichting - glasafdichting buiten - Type 1-446658-00_0 Basismaterialen
 70
0
 10
0.0
 20
0.0
 30
0.0
  3
31 glasafdichting - glasafdichting buiten - Type 1-446658-00_0 Basismaterialen
  1

  0
HATCH
  5
32
330
2F
100
AcDbEntity
  8
A-DETL-GENF
100
AcDbHatch
 10
0.0
 20
0.0
 30
0.0
210
0.0
220
0.0
230
1.0
  2
SOLID
 70
1
 71
0
 91
2
 92
1
 93
43
 72
1
 10
-3.130473794166755
 20
-11.43181168178967
 11
-2.988444029869788
 21
-11.30128788704469
 72
1
 10
-2.988444029869788
 20
-11.30128788704469
 11
-2.966544213140264
 21
-11.23946251694042
 72
1
 10
-2.966544213140264
 20
-11.23946251694042
 11
-2.780027845664244
 21
-10.40002464835134
 72
1
 10
-2.780027845664244
 20
-10.40002464835134
 11
-1.720459306685268
 21
-9.008558082243708
 72
1
 10
-1.720459306685268
 20
-9.008558082243708
 11
-1.354236853984707
 21
-8.823969713808157
 72
1
 10
-1.354236853984707
 20
-8.823969713808157
 11
-1.149180918215938
 21
-8.799926849529617
 72
1
 10
-1.149180918215938
 20
-8.799926849529617
 11
1.3113304362e-06
 21
-8.799926749065538
 72
1
 10
1.3113304362e-06
 20
-8.799926749065538
 11
8.304984476e-07
 21
-3.299926749064622
 72
1
 10
8.304984476e-07
 20
-3.299926749064622
 11
1.599976416440006
 21
-3.299926609190674
 72
1
 10
1.599976416440006
 20
-3.299926609190674
 11
1.599976518697314
 21
-4.46961621286585
 72
1
 10
1.599976518697314
 20
-4.46961621286585
 11
2.257137787210422
 21
-4.04285069513831
 72
1
 10
2.257137787210422
 20
-4.04285069513831
 11
3.46088931524298
 21
-2.809890479820205
 72
1
 10
3.46088931524298
 20
-2.809890479820205
 11
3.525067492610276
 21
-2.65996060736324
 72
1
 10
3.525067492610276
 20
-2.65996060736324
 11
3.532674156060113
 21
-2.336499498179392
 72
1
 10
3.532674156060113
 20
-2.336499498179392
 11
3.47561466875793
 21
-2.183718543822476
 72
1
 10
3.47561466875793
 20
-2.183718543822476
 11
3.000000653903794
 21
-1.279906955545601
 72
1
 10
3.000000653903794
 20
-1.279906955545601
 11
3.000000430971772
 21
1.270141872580802
 72
1
 10
3.000000430971772
 20
1.270141872580802
 11
3.564107610580106
 21
2.309533736699029
 72
1
 10
3.564107610580106
 20
2.309533736699029
 11
3.562024988509097
 21
2.632118739770282
 72
1
 10
3.562024988509097
 20
2.632118739770282
 11
3.39948934065643
 21
2.910771901777326
 72
1
 10
3.39948934065643
 20
2.910771901777326
 11
2.282906963869243
 21
4.019704672496152
 72
1
 10
2.282906963869243
 20
4.019704672496152
 11
1.599975739864623
 21
4.439183550721923
 72
1
 10
1.599975739864623
 20
4.439183550721923
 11
1.599975839440753
 21
3.30017104705746
 72
1
 10
1.599975839440753
 20
3.30017104705746
 11
2.535035264e-07
 21
3.300170907183513
 72
1
 10
2.535035264e-07
 20
3.300170907183513
 11
-1.29944e-11
 21
6.200073250935384
 72
1
 10
-1.29944e-11
 20
6.200073250935384
 11
-2.609985351581019
 21
6.200073022764451
 72
1
 10
-2.609985351581019
 20
6.200073022764451
 11
-3.499999944071282
 21
5.560180366830429
 72
1
 10
-3.499999944071282
 20
5.560180366830429
 11
-2.299987642618668
 21
4.480102346740432
 72
1
 10
-2.299987642618668
 20
4.480102346740432
 11
-3.489989980868983
 21
3.300170602081368
 72
1
 10
-3.489989980868983
 20
3.300170602081368
 11
-2.299987443288819
 21
2.200073049863027
 72
1
 10
-2.299987443288819
 20
2.200073049863027
 11
-3.489989788525793
 21
1.099975289582596
 72
1
 10
-3.489989788525793
 20
1.099975289582596
 11
-2.309997017468936
 21
0.0101316427400833
 72
1
 10
-2.309997017468936
 20
0.0101316427400832
 11
-3.489989599699754
 21
-1.059936819791806
 72
1
 10
-3.489989599699754
 20
-1.059936819791806
 11
-2.309996825143071
 21
-2.189819529134598
 72
1
 10
-2.309996825143071
 20
-2.189819529134598
 11
-3.489989404744687
 21
-3.289917288542238
 72
1
 10
-3.489989404744687
 20
-3.289917288542238
 11
-2.309996632791217
 21
-4.39001484163337
 72
1
 10
-2.309996632791217
 20
-4.39001484163337
 11
-3.489989212423154
 21
-5.489868460416921
 72
1
 10
-3.489989212423154
 20
-5.489868460416921
 11
-2.099974479186266
 21
-6.459839042023759
 72
1
 10
-2.099974479186266
 20
-6.459839042023759
 11
-1.709959730199932
 21
-7.609985492304963
 72
1
 10
-1.709959730199932
 20
-7.609985492304963
 11
-3.030028009155466
 21
-8.52990748270966
 72
1
 10
-3.030028009155466
 20
-8.52990748270966
 11
-3.499998587269089
 21
-9.959839164415104
 72
1
 10
-3.499998587269089
 20
-9.959839164415104
 11
-3.468595357433207
 21
-11.307275522194
 72
1
 10
-3.468595357433207
 20
-11.307275522194
 11
-3.130473794166755
 21
-11.43181168178967
 97
0
 92
1
 93
16
 72
1
 10
0.4453267568120851
 20
-2.099975538256308
 11
0.1726454242719683
 21
-2.026910820962143
 72
1
 10
0.1726454242719683
 20
-2.026910820962143
 11
-0.0269711781961519
 21
-1.827294253392665
 72
1
 10
-0.0269711781961519
 20
-1.827294253392665
 11
-0.1000359431711217
 21
-1.554612933626049
 72
1
 10
-0.1000359431711217
 20
-1.554612933626049
 11
-0.0816143379663572
 21
1.699262898530036
 72
1
 10
-0.0816143379663572
 20
1.699262898530037
 11
0.05831378504123
 21
1.941625565918059
 72
1
 10
0.05831378504123
 20
1.941625565918059
 11
0.3006764279651179
 21
2.081553731304734
 72
1
 10
0.3006764279651179
 20
2.081553731304734
 11
0.4406045705509428
 21
2.099975633202098
 72
1
 10
0.4406045705509428
 20
2.099975633202098
 11
1.519552423505092
 21
2.082487149123898
 72
1
 10
1.519552423505092
 20
2.082487149123898
 11
1.749636230729595
 21
1.949648227905436
 72
1
 10
1.749636230729595
 20
1.949648227905436
 11
1.882475192180902
 21
1.719564443901936
 72
1
 10
1.882475192180902
 20
1.719564443901936
 11
1.899963782195993
 21
1.586725504094977
 72
1
 10
1.899963782195993
 20
1.586725504094977
 11
1.882426929351709
 21
-1.718507746881687
 72
1
 10
1.882426929351709
 20
-1.718507746881687
 11
1.749219132549149
 21
-1.949230465489961
 72
1
 10
1.749219132549149
 20
-1.949230465489961
 11
1.518496437226849
 21
-2.082438302635819
 72
1
 10
1.518496437226849
 20
-2.082438302635819
 11
1.385288621790311
 21
-2.099975456084018
 72
1
 10
1.385288621790311
 20
-2.099975456084018
 11
0.4453267568120852
 21
-2.099975538256308
 97
0
 75
0
 76
1
 98
1
 10
0.0
 20
0.0
450
0
451
0
460
0.0
461
0.0
452
0
462
0.0
453
0
470

  0
LINE
  5
33
330
2F
100
AcDbEntity
  8
A-DETL-GENF
100
AcDbLine
 10
-3.499998587254762
 20
-9.959839164417557
 30
0.0
 11
-3.499998480505194
 21
-11.18091185457396
 31
0.0
  0
ARC
  5
34
330
2F
100
AcDbEntity
  8
A-DETL-GENF
100
AcDbCircle
 10
-3.230058154010583
 20
-11.18091183097503
 30
0.0
 40
0.2699403264946118
100
AcDbArc
 50
180.0000050089557
 51
347.4728431628358
  0
LINE
  5
35
330
2F
100
AcDbEntity
  8
A-DETL-GENF
100
AcDbLine
 10
-2.96654421312553
 20
-11.23946251694237
 30
0.0
 11
-2.780027845650923
 21
-10.40002464835422
 31
0.0
  0
LINE
  5
36
330
2F
100
AcDbEntity
  8
A-DETL-GENF
100
AcDbLine
 10
-2.780027845650923
 20
-10.40002464835422
 30
0.0
 11
-1.861760201064901
 21
-9.159090648025284
 31
0.0
  0
ARC
  5
37
330
2F
100
AcDbEntity
  8
A-DETL-GENF
100
AcDbCircle
 10
-1.149180840704671
 20
-9.686385871337045
 30
0.0
 40
0.8864590218046134
100
AcDbArc
 50
90.00000500895663
 51
143.4992604580187
  0
LINE
  5
38
330
2F
100
AcDbEntity
  8
A-DETL-GENF
100
AcDbLine
 10
-1.149180918201381
 20
-8.799926849532431
 30
0.0
 11
1.3113410576e-06
 21
-8.79992674906773
 31
0.0
  0
LINE
  5
39
330
2F
100
AcDbEntity
  8
A-DETL-GENF
100
AcDbLine
 10
1.3113410576e-06
 20
-8.799926749067726
 30
0.0
 11
8.305136078e-07
 21
-3.299926749067179
 31
0.0
  0
LINE
  5
3A
330
2F
100
AcDbEntity
  8
A-DETL-GENF
100
AcDbLine
 10
8.305136078e-07
 20
-3.299926749067179
 30
0.0
 11
1.599976416451001
 21
-3.299926609192868
 31
0.0
  0
LINE
  5
3B
330
2F
100
AcDbEntity
  8
A-DETL-GENF
100
AcDbLine
 10
1.599976416451001
 20
-3.299926609192868
 30
0.0
 11
1.59997651871082
 21
-4.469616212867248
 31
0.0
  0
LINE
  5
3C
330
2F
100
AcDbEntity
  8
A-DETL-GENF
100
AcDbLine
 10
1.59997651871082
 20
-4.469616212867248
 30
0.0
 11
2.257137787223332
 21
-4.042850695139914
 31
0.0
  0
LINE
  5
3D
330
2F
100
AcDbEntity
  8
A-DETL-GENF
100
AcDbLine
 10
2.257137787223328
 20
-4.042850695139919
 30
0.0
 11
3.361101174011975
 21
-2.938887115328161
 31
0.0
  0
ARC
  5
3E
330
2F
100
AcDbEntity
  8
A-DETL-GENF
100
AcDbCircle
 10
2.905791403369929
 20
-2.483577424294995
 30
0.0
 40
0.6439051964309871
100
AcDbArc
 50
315.0000050089553
 51
27.75475302945884
  0
LINE
  5
3F
330
2F
100
AcDbEntity
  8
A-DETL-GENF
100
AcDbLine
 10
3.475614668772932
 20
-2.183718543825718
 30
0.0
 11
3.000000653917121
 21
-1.279906955546479
 31
0.0
  0
LINE
  5
40
330
2F
100
AcDbEntity
  8
A-DETL-GENF
100
AcDbLine
 10
3.000000653917121
 20
-1.279906955546479
 30
0.0
 11
3.000000430984766
 21
1.270141872577452
 31
0.0
  0
LINE
  5
41
330
2F
100
AcDbEntity
  8
A-DETL-GENF
100
AcDbLine
 10
3.000000430984766
 20
1.270141872577452
 30
0.0
 11
3.503052947986808
 21
2.158748758277364
 31
0.0
  0
ARC
  5
42
330
2F
100
AcDbEntity
  8
A-DETL-GENF
100
AcDbCircle
 10
2.958682510659441
 20
2.466924311591175
 30
0.0
 40
0.625548834781317
100
AcDbArc
 50
330.4852059819761
 51
45.19693796161476
  0
LINE
  5
43
330
2F
100
AcDbEntity
  8
A-DETL-GENF
100
AcDbLine
 10
3.399489340670851
 20
2.910771901774511
 30
0.0
 11
2.282906963881949
 21
4.019704672493424
 31
0.0
  0
LINE
  5
44
330
2F
100
AcDbEntity
  8
A-DETL-GENF
100
AcDbLine
 10
2.282906963881949
 20
4.019704672493421
 30
0.0
 11
1.59997573987811
 21
4.439183550720883
 31
0.0
  0
LINE
  5
45
330
2F
100
AcDbEntity
  8
A-DETL-GENF
100
AcDbLine
 10
1.59997573987811
 20
4.439183550720883
 30
0.0
 11
1.599975839453747
 21
3.300171047055637
 31
0.0
  0
LINE
  5
46
330
2F
100
AcDbEntity
  8
A-DETL-GENF
100
AcDbLine
 10
1.599975839453747
 20
3.300171047055637
 30
0.0
 11
2.535175212e-07
 21
3.300170907181324
 31
0.0
  0
LINE
  5
47
330
2F
100
AcDbEntity
  8
A-DETL-GENF
100
AcDbLine
 10
2.535175212e-07
 20
3.300170907181324
 30
0.0
 11
0.0
 21
6.200073250932271
 31
0.0
  0
LINE
  5
48
330
2F
100
AcDbEntity
  8
A-DETL-GENF
100
AcDbLine
 10
0.0
 20
6.200073250932271
 30
0.0
 11
-2.609985351563731
 21
6.200073022760098
 31
0.0
  0
LINE
  5
49
330
2F
100
AcDbEntity
  8
A-DETL-GENF
100
AcDbLine
 10
-2.609985351563731
 20
6.200073022760098
 30
0.0
 11
-3.499999944058203
 21
5.560180366828305
 31
0.0
  0
LINE
  5
4A
330
2F
100
AcDbEntity
  8
A-DETL-GENF
100
AcDbLine
 10
-3.499999944058203
 20
5.560180366828305
 30
0.0
 11
-2.299987642604169
 21
4.480102346736671
 31
0.0
  0
LINE
  5
4B
330
2F
100
AcDbEntity
  8
A-DETL-GENF
100
AcDbLine
 10
-2.299987642604169
 20
4.480102346736671
 30
0.0
 11
-3.489989980858134
 21
3.300170602079205
 31
0.0
  0
LINE
  5
4C
330
2F
100
AcDbEntity
  8
A-DETL-GENF
100
AcDbLine
 10
-3.489989980858134
 20
3.300170602079205
 30
0.0
 11
-2.299987443277968
 21
2.200073049860819
 31
0.0
  0
LINE
  5
4D
330
2F
100
AcDbEntity
  8
A-DETL-GENF
100
AcDbLine
 10
-2.299987443277968
 20
2.200073049860819
 30
0.0
 11
-3.489989788512803
 21
1.099975289580407
 31
0.0
  0
LINE
  5
4E
330
2F
100
AcDbEntity
  8
A-DETL-GENF
100
AcDbLine
 10
-3.489989788512803
 20
1.099975289580407
 30
0.0
 11
-2.309997017453501
 21
0.0101316427376404
 31
0.0
  0
LINE
  5
4F
330
2F
100
AcDbEntity
  8
A-DETL-GENF
100
AcDbLine
 10
-2.309997017453501
 20
0.0101316427376425
 30
0.0
 11
-3.489989599684856
 21
-1.059936819794228
 31
0.0
  0
LINE
  5
50
330
2F
100
AcDbEntity
  8
A-DETL-GENF
100
AcDbLine
 10
-3.489989599684856
 20
-1.059936819794228
 30
0.0
 11
-2.309996825127822
 21
-2.189819529136872
 31
0.0
  0
LINE
  5
51
330
2F
100
AcDbEntity
  8
A-DETL-GENF
100
AcDbLine
 10
-2.309996825127822
 20
-2.189819529136872
 30
0.0
 11
-3.48998940473377
 21
-3.289917288544339
 31
0.0
  0
LINE
  5
52
330
2F
100
AcDbEntity
  8
A-DETL-GENF
100
AcDbLine
 10
-3.48998940473377
 20
-3.289917288544339
 30
0.0
 11
-2.30999663277829
 21
-4.390014841635496
 31
0.0
  0
LINE
  5
53
330
2F
100
AcDbEntity
  8
A-DETL-GENF
100
AcDbLine
 10
-2.30999663277829
 20
-4.390014841635496
 30
0.0
 11
-3.489989212407905
 21
-5.489868460419021
 31
0.0
  0
LINE
  5
54
330
2F
100
AcDbEntity
  8
A-DETL-GENF
100
AcDbLine
 10
-3.489989212407905
 20
-5.489868460419021
 30
0.0
 11
-2.09997447917432
 21
-6.459839042027378
 31
0.0
  0
LINE
  5
55
330
2F
100
AcDbEntity
  8
A-DETL-GENF
100
AcDbLine
 10
-2.09997447917432
 20
-6.459839042027378
 30
0.0
 11
-1.70995973018709
 21
-7.609985492306697
 31
0.0
  0
LINE
  5
56
330
2F
100
AcDbEntity
  8
A-DETL-GENF
100
AcDbLine
 10
-1.709959730187089
 20
-7.609985492306697
 30
0.0
 11
-3.030028009140632
 21
-8.52990748271207
 31
0.0
  0
LINE
  5
57
330
2F
100
AcDbEntity
  8
A-DETL-GENF
100
AcDbLine
 10
-3.030028009140632
 20
-8.52990748271207
 30
0.0
 11
-3.499998587254762
 21
-9.959839164417565
 31
0.0
  0
LINE
  5
58
330
2F
100
AcDbEntity
  8
A-DETL-GENF
100
AcDbLine
 10
1.899963782211965
 20
1.586725504093281
 30
0.0
 11
1.899964059523471
 21
-1.585299928375785
 31
0.0
  0
ARC
  5
59
330
2F
100
AcDbEntity
  8
A-DETL-GENF
100
AcDbCircle
 10
1.385288576807982
 20
-1.58529997337083
 30
0.0
 40
0.514675482715491
100
AcDbArc
 50
270.0000050089558
 51
5.0090327442e-06
  0
LINE
  5
5A
330
2F
100
AcDbEntity
  8
A-DETL-GENF
100
AcDbLine
 10
1.385288621802339
 20
-2.099975456086319
 30
0.0
 11
0.445326756827332
 21
-2.099975538260398
 31
0.0
  0
ARC
  5
5B
330
2F
100
AcDbEntity
  8
A-DETL-GENF
100
AcDbCircle
 10
0.4453267091502161
 20
-1.554612885952888
 30
0.0
 40
0.5453626523075119
100
AcDbArc
 50
180.0000050089563
 51
270.000005008956
  0
LINE
  5
5C
330
2F
100
AcDbEntity
  8
A-DETL-GENF
100
AcDbLine
 10
-0.100035943157293
 20
-1.554612933630003
 30
0.0
 11
-0.1000362153872531
 21
1.559334752718953
 31
0.0
  0
ARC
  5
5D
330
2F
100
AcDbEntity
  8
A-DETL-GENF
100
AcDbCircle
 10
0.4406046178297635
 20
1.559334799983276
 30
0.0
 40
0.5406408332170182
100
AcDbArc
 50
90.00000500895662
 51
180.0000050089563
  0
LINE
  5
5E
330
2F
100
AcDbEntity
  8
A-DETL-GENF
100
AcDbLine
 10
0.4406045705654394
 20
2.099975633200291
 30
0.0
 11
1.386713480653274
 21
2.09997571591176
 31
0.0
  0
ARC
  5
5F
330
2F
100
AcDbEntity
  8
A-DETL-GENF
100
AcDbCircle
 10
1.386713525523036
 20
1.586725459222833
 30
0.0
 40
0.5132502566889326
100
AcDbArc
 50
5.0090328269e-06
 51
90.00000500895655
  0
ENDBLK
  5
31
330
2F
100
AcDbEntity
  8
0
100
AcDbBlockEnd
  0
ENDSEC
  0
SECTION
  2
ENTITIES
  0
INSERT
  5
61
330
17
100
AcDbEntity
  8
0
100
AcDbBlockReference
  2
31 glasafdichting - glasafdichting buiten - Type 1-446658-00_0 Basismaterialen
 10
0.0
 20
0.0
 30
0.0
  0
ENDSEC
  0
SECTION
  2
OBJECTS
  0
DICTIONARY
  5
A
330
0
100
AcDbDictionary
281
1
  3
ACAD_COLOR
350
B
  3
ACAD_GROUP
350
C
  3
ACAD_LAYOUT
350
D
  3
ACAD_MATERIAL
350
E
  3
ACAD_MLEADERSTYLE
350
F
  3
ACAD_MLINESTYLE
350
10
  3
ACAD_PLOTSETTINGS
350
11
  3
ACAD_PLOTSTYLENAME
350
12
  3
ACAD_SCALELIST
350
14
  3
ACAD_TABLESTYLE
350
15
  3
ACAD_VISUALSTYLE
350
16
  3
EZDXF_META
350
2D
  0
DICTIONARY
  5
B
330
A
100
AcDbDictionary
281
1
  0
DICTIONARY
  5
C
330
A
100
AcDbDictionary
281
1
  0
DICTIONARY
  5
D
330
A
100
AcDbDictionary
281
1
  3
Model
350
1A
  3
Layout1
350
1E
  0
DICTIONARY
  5
E
330
A
100
AcDbDictionary
281
1
  3
ByBlock
350
1F
  3
ByLayer
350
20
  3
Global
350
21
  0
DICTIONARY
  5
F
330
A
100
AcDbDictionary
281
1
  3
Standard
350
2C
  0
DICTIONARY
  5
10
330
A
100
AcDbDictionary
281
1
  3
Standard
350
22
  0
DICTIONARY
  5
11
330
A
100
AcDbDictionary
281
1
  0
ACDBDICTIONARYWDFLT
  5
12
330
A
100
AcDbDictionary
281
1
  3
Normal
350
13
100
AcDbDictionaryWithDefault
340
13
  0
ACDBPLACEHOLDER
  5
13
330
12
  0
DICTIONARY
  5
14
330
A
100
AcDbDictionary
281
1
  0
DICTIONARY
  5
15
330
A
100
AcDbDictionary
281
1
  0
DICTIONARY
  5
16
330
A
100
AcDbDictionary
281
1
  0
LAYOUT
  5
1A
330
D
100
AcDbPlotSettings
  1

  4
A3
  6

 40
7.5
 41
20.0
 42
7.5
 43
20.0
 44
420.0
 45
297.0
 46
0.0
 47
0.0
 48
0.0
 49
0.0
140
0.0
141
0.0
142
1.0
143
1.0
 70
1024
 72
1
 73
0
 74
5
  7

 75
16
 76
0
 77
2
 78
300
147
1.0
148
0.0
149
0.0
100
AcDbLayout
  1
Model
 70
1
 71
0
 10
0.0
 20
0.0
 11
420.0
 21
297.0
 12
0.0
 22
0.0
 32
0.0
 14
1e+20
 24
1e+20
 34
1e+20
 15
-1e+20
 25
-1e+20
 35
-1e+20
146
0.0
 13
0.0
 23
0.0
 33
0.0
 16
1.0
 26
0.0
 36
0.0
 17
0.0
 27
1.0
 37
0.0
 76
1
330
17
  0
LAYOUT
  5
1E
330
D
100
AcDbPlotSettings
  1

  4
A3
  6

 40
7.5
 41
20.0
 42
7.5
 43
20.0
 44
420.0
 45
297.0
 46
0.0
 47
0.0
 48
0.0
 49
0.0
140
0.0
141
0.0
142
1.0
143
1.0
 70
0
 72
1
 73
0
 74
5
  7

 75
16
 76
0
 77
2
 78
300
147
1.0
148
0.0
149
0.0
100
AcDbLayout
  1
Layout1
 70
1
 71
1
 10
0.0
 20
0.0
 11
420.0
 21
297.0
 12
0.0
 22
0.0
 32
0.0
 14
1e+20
 24
1e+20
 34
1e+20
 15
-1e+20
 25
-1e+20
 35
-1e+20
146
0.0
 13
0.0
 23
0.0
 33
0.0
 16
1.0
 26
0.0
 36
0.0
 17
0.0
 27
1.0
 37
0.0
 76
1
330
1B
  0
MATERIAL
  5
1F
102
{ACAD_REACTORS
330
E
102
}
330
E
100
AcDbMaterial
  1
ByBlock
  2

 70
0
 40
1.0
 71
1
 41
1.0
 91
-1023410177
 42
1.0
 72
1
  3

 73
1
 74
1
 75
1
 44
0.5
 73
0
 45
1.0
 46
1.0
 77
1
  4

 78
1
 79
1
170
1
 48
1.0
171
1
  6

172
1
173
1
174
1
140
1.0
141
1.0
175
1
  7

176
1
177
1
178
1
143
1.0
179
1
  8

270
1
271
1
272
1
145
1.0
146
1.0
273
1
  9

274
1
275
1
276
1
 42
1.0
 72
1
  3

 73
1
 74
1
 75
1
 94
63
  0
MATERIAL
  5
20
102
{ACAD_REACTORS
330
E
102
}
330
E
100
AcDbMaterial
  1
ByLayer
  2

 70
0
 40
1.0
 71
1
 41
1.0
 91
-1023410177
 42
1.0
 72
1
  3

 73
1
 74
1
 75
1
 44
0.5
 73
0
 45
1.0
 46
1.0
 77
1
  4

 78
1
 79
1
170
1
 48
1.0
171
1
  6

172
1
173
1
174
1
140
1.0
141
1.0
175
1
  7

176
1
177
1
178
1
143
1.0
179
1
  8

270
1
271
1
272
1
145
1.0
146
1.0
273
1
  9

274
1
275
1
276
1
 42
1.0
 72
1
  3

 73
1
 74
1
 75
1
 94
63
  0
MATERIAL
  5
21
102
{ACAD_REACTORS
330
E
102
}
330
E
100
AcDbMaterial
  1
Global
  2

 70
0
 40
1.0
 71
1
 41
1.0
 91
-1023410177
 42
1.0
 72
1
  3

 73
1
 74
1
 75
1
 44
0.5
 73
0
 45
1.0
 46
1.0
 77
1
  4

 78
1
 79
1
170
1
 48
1.0
171
1
  6

172
1
173
1
174
1
140
1.0
141
1.0
175
1
  7

176
1
177
1
178
1
143
1.0
179
1
  8

270
1
271
1
272
1
145
1.0
146
1.0
273
1
  9

274
1
275
1
276
1
 42
1.0
 72
1
  3

 73
1
 74
1
 75
1
 94
63
  0
MLINESTYLE
  5
22
102
{ACAD_REACTORS
330
10
102
}
330
10
100
AcDbMlineStyle
  2
Standard
 70
0
  3

 62
256
 51
90.0
 52
90.0
 71
2
 49
0.5
 62
256
  6
BYLAYER
 49
-0.5
 62
256
  6
BYLAYER
  0
MLEADERSTYLE
  5
2C
102
{ACAD_REACTORS
330
F
102
}
330
F
100
AcDbMLeaderStyle
179
2
170
2
171
1
172
0
 90
2
 40
0.0
 41
0.0
173
1
 91
-1056964608
 92
-2
290
1
 42
2.0
291
1
 43
8.0
  3
Standard
 44
4.0
300

342
29
174
1
175
1
176
0
178
1
 93
-1056964608
 45
4.0
292
0
297
0
 46
4.0
 94
-1056964608
 47
1.0
 49
1.0
140
1.0
294
1
141
0.0
177
0
142
1.0
295
0
296
0
143
3.75
271
0
272
9
273
9
  0
DICTIONARY
  5
2D
330
A
100
AcDbDictionary
280
1
281
1
  3
CREATED_BY_EZDXF
350
2E
  3
WRITTEN_BY_EZDXF
350
65
  0
DICTIONARYVAR
  5
2E
330
2D
100
DictionaryVariables
280
0
  1
1.4.3 @ 2026-02-13T04:54:12.319247+00:00
  0
DICTIONARYVAR
  5
65
330
2D
100
DictionaryVariables
280
0
  1
1.4.3 @ 2026-02-13T04:54:12.323244+00:00
  0
ENDSEC
  0
EOF
