0
SECTION
2
HEADER
9
$EXTMIN
10
 0
20
 100
30
0.0
9
$EXTMAX
10
 0
20
 100
30
0.0
9
$LIMMIN
10
 100
20
 0
9
$LIMMAX
10
 0
20
 100
9
$PSLTSCALE
70
1
0
ENDSEC
0
SECTION
2
TABLES
0
TABLE
2
LAYER
70
2
0
LAYER
2
0
70
0
62
7
6
CONTINUOUS
0
LAYER
2
Halfen
70
0
62
7
6
CONTINUOUS
0
ENDTAB
0
ENDSEC
0
SECTION
2
ENTITIES
0
POLYLINE
8
Halfen
62
7
66
1
10
0.0
20
0.0
30
0.0
70
1
0
VERTEX
8
Halfen
62
7
10
 0
20
-73.5
30
0
0
VERTEX
8
Halfen
62
7
10
 1000
20
-73.5
30
0
0
VERTEX
8
Halfen
62
7
10
 1000
20
 73.5
30
0
0
VERTEX
8
Halfen
62
7
10
 0
20
 73.5
30
0
0
SEQEND
8
Halfen
0
POLYLINE
8
Halfen
62
7
66
1
10
0.0
20
0.0
30
0.0
70
1
0
VERTEX
8
Halfen
62
7
10
 0
20
-60
30
0
0
VERTEX
8
Halfen
62
7
10
 1000
20
-60
30
0
0
VERTEX
8
Halfen
62
7
10
 1000
20
 60
30
0
0
VERTEX
8
Halfen
62
7
10
 0
20
 60
30
0
0
SEQEND
8
Halfen
0
POLYLINE
8
Halfen
62
7
66
1
10
0.0
20
0.0
30
0.0
70
1
0
VERTEX
8
Halfen
62
7
10
 20
20
-32.5
30
0
0
VERTEX
8
Halfen
62
7
10
 37
20
-1.5
30
0
0
VERTEX
8
Halfen
62
7
10
 28
20
-1.5
30
0
0
VERTEX
8
Halfen
62
7
10
 28
20
 32.5
30
0
0
VERTEX
8
Halfen
62
7
10
 12
20
 32.5
30
0
0
VERTEX
8
Halfen
62
7
10
 12
20
-1.5
30
0
0
VERTEX
8
Halfen
62
7
10
 3
20
-1.5
30
0
0
SEQEND
8
Halfen
0
POLYLINE
8
Halfen
62
7
66
1
10
0.0
20
0.0
30
0.0
70
1
0
VERTEX
8
Halfen
62
7
10
 980
20
-32.5
30
0
0
VERTEX
8
Halfen
62
7
10
 997
20
-1.5
30
0
0
VERTEX
8
Halfen
62
7
10
 988
20
-1.5
30
0
0
VERTEX
8
Halfen
62
7
10
 988
20
 32.5
30
0
0
VERTEX
8
Halfen
62
7
10
 972
20
 32.5
30
0
0
VERTEX
8
Halfen
62
7
10
 972
20
-1.5
30
0
0
VERTEX
8
Halfen
62
7
10
 963
20
-1.5
30
0
0
SEQEND
8
Halfen
0
POLYLINE
8
Halfen
62
7
66
1
10
0.0
20
0.0
30
0.0
70
1
0
VERTEX
8
Halfen
62
7
10
 140
20
-69.3
30
0
0
VERTEX
8
Halfen
62
7
10
 140
20
-56.8
30
0
0
VERTEX
8
Halfen
62
7
10
 140
20
 69.3
30
0
0
VERTEX
8
Halfen
62
7
10
 139.958
20
 70.359
30
0
0
VERTEX
8
Halfen
62
7
10
 139.834
20
 71.412
30
0
0
VERTEX
8
Halfen
62
7
10
 139.627
20
 72.452
30
0
0
VERTEX
8
Halfen
62
7
10
 139.339
20
 73.472
30
0
0
VERTEX
8
Halfen
62
7
10
 138.972
20
 74.466
30
0
0
VERTEX
8
Halfen
62
7
10
 138.529
20
 75.429
30
0
0
VERTEX
8
Halfen
62
7
10
 138.011
20
 76.354
30
0
0
VERTEX
8
Halfen
62
7
10
 137.422
20
 77.235
30
0
0
VERTEX
8
Halfen
62
7
10
 136.765
20
 78.068
30
0
0
VERTEX
8
Halfen
62
7
10
 136.046
20
 78.846
30
0
0
VERTEX
8
Halfen
62
7
10
 135.268
20
 79.565
30
0
0
VERTEX
8
Halfen
62
7
10
 134.435
20
 80.222
30
0
0
VERTEX
8
Halfen
62
7
10
 133.554
20
 80.811
30
0
0
VERTEX
8
Halfen
62
7
10
 132.629
20
 81.329
30
0
0
VERTEX
8
Halfen
62
7
10
 131.666
20
 81.772
30
0
0
VERTEX
8
Halfen
62
7
10
 130.672
20
 82.139
30
0
0
VERTEX
8
Halfen
62
7
10
 129.652
20
 82.427
30
0
0
VERTEX
8
Halfen
62
7
10
 128.612
20
 82.634
30
0
0
VERTEX
8
Halfen
62
7
10
 127.559
20
 82.758
30
0
0
VERTEX
8
Halfen
62
7
10
 126.5
20
 82.8
30
0
0
VERTEX
8
Halfen
62
7
10
 123.5
20
 82.8
30
0
0
VERTEX
8
Halfen
62
7
10
 122.441
20
 82.758
30
0
0
VERTEX
8
Halfen
62
7
10
 121.388
20
 82.634
30
0
0
VERTEX
8
Halfen
62
7
10
 120.348
20
 82.427
30
0
0
VERTEX
8
Halfen
62
7
10
 119.328
20
 82.139
30
0
0
VERTEX
8
Halfen
62
7
10
 118.334
20
 81.772
30
0
0
VERTEX
8
Halfen
62
7
10
 117.371
20
 81.329
30
0
0
VERTEX
8
Halfen
62
7
10
 116.446
20
 80.811
30
0
0
VERTEX
8
Halfen
62
7
10
 115.565
20
 80.222
30
0
0
VERTEX
8
Halfen
62
7
10
 114.732
20
 79.565
30
0
0
VERTEX
8
Halfen
62
7
10
 113.954
20
 78.846
30
0
0
VERTEX
8
Halfen
62
7
10
 113.235
20
 78.068
30
0
0
VERTEX
8
Halfen
62
7
10
 112.578
20
 77.235
30
0
0
VERTEX
8
Halfen
62
7
10
 111.989
20
 76.354
30
0
0
VERTEX
8
Halfen
62
7
10
 111.471
20
 75.429
30
0
0
VERTEX
8
Halfen
62
7
10
 111.028
20
 74.466
30
0
0
VERTEX
8
Halfen
62
7
10
 110.661
20
 73.472
30
0
0
VERTEX
8
Halfen
62
7
10
 110.373
20
 72.452
30
0
0
VERTEX
8
Halfen
62
7
10
 110.166
20
 71.412
30
0
0
VERTEX
8
Halfen
62
7
10
 110.042
20
 70.359
30
0
0
VERTEX
8
Halfen
62
7
10
 110
20
 69.3
30
0
0
VERTEX
8
Halfen
62
7
10
 110
20
-56.8
30
0
0
VERTEX
8
Halfen
62
7
10
 110
20
-69.3
30
0
0
VERTEX
8
Halfen
62
7
10
 110.042
20
-70.359
30
0
0
VERTEX
8
Halfen
62
7
10
 110.166
20
-71.412
30
0
0
VERTEX
8
Halfen
62
7
10
 110.373
20
-72.452
30
0
0
VERTEX
8
Halfen
62
7
10
 110.661
20
-73.472
30
0
0
VERTEX
8
Halfen
62
7
10
 111.028
20
-74.466
30
0
0
VERTEX
8
Halfen
62
7
10
 111.471
20
-75.429
30
0
0
VERTEX
8
Halfen
62
7
10
 111.989
20
-76.354
30
0
0
VERTEX
8
Halfen
62
7
10
 112.578
20
-77.235
30
0
0
VERTEX
8
Halfen
62
7
10
 113.235
20
-78.068
30
0
0
VERTEX
8
Halfen
62
7
10
 113.954
20
-78.846
30
0
0
VERTEX
8
Halfen
62
7
10
 114.732
20
-79.565
30
0
0
VERTEX
8
Halfen
62
7
10
 115.565
20
-80.222
30
0
0
VERTEX
8
Halfen
62
7
10
 116.446
20
-80.811
30
0
0
VERTEX
8
Halfen
62
7
10
 117.371
20
-81.329
30
0
0
VERTEX
8
Halfen
62
7
10
 118.334
20
-81.772
30
0
0
VERTEX
8
Halfen
62
7
10
 119.328
20
-82.139
30
0
0
VERTEX
8
Halfen
62
7
10
 120.348
20
-82.427
30
0
0
VERTEX
8
Halfen
62
7
10
 121.388
20
-82.634
30
0
0
VERTEX
8
Halfen
62
7
10
 122.441
20
-82.758
30
0
0
VERTEX
8
Halfen
62
7
10
 123.5
20
-82.8
30
0
0
VERTEX
8
Halfen
62
7
10
 126.5
20
-82.8
30
0
0
VERTEX
8
Halfen
62
7
10
 127.559
20
-82.758
30
0
0
VERTEX
8
Halfen
62
7
10
 128.612
20
-82.634
30
0
0
VERTEX
8
Halfen
62
7
10
 129.652
20
-82.427
30
0
0
VERTEX
8
Halfen
62
7
10
 130.672
20
-82.139
30
0
0
VERTEX
8
Halfen
62
7
10
 131.666
20
-81.772
30
0
0
VERTEX
8
Halfen
62
7
10
 132.629
20
-81.329
30
0
0
VERTEX
8
Halfen
62
7
10
 133.554
20
-80.811
30
0
0
VERTEX
8
Halfen
62
7
10
 134.435
20
-80.222
30
0
0
VERTEX
8
Halfen
62
7
10
 135.268
20
-79.565
30
0
0
VERTEX
8
Halfen
62
7
10
 136.046
20
-78.846
30
0
0
VERTEX
8
Halfen
62
7
10
 136.765
20
-78.068
30
0
0
VERTEX
8
Halfen
62
7
10
 137.422
20
-77.235
30
0
0
VERTEX
8
Halfen
62
7
10
 138.011
20
-76.354
30
0
0
VERTEX
8
Halfen
62
7
10
 138.529
20
-75.429
30
0
0
VERTEX
8
Halfen
62
7
10
 138.972
20
-74.466
30
0
0
VERTEX
8
Halfen
62
7
10
 139.339
20
-73.472
30
0
0
VERTEX
8
Halfen
62
7
10
 139.627
20
-72.452
30
0
0
VERTEX
8
Halfen
62
7
10
 139.834
20
-71.412
30
0
0
VERTEX
8
Halfen
62
7
10
 139.958
20
-70.359
30
0
0
VERTEX
8
Halfen
62
7
10
 140
20
-69.3
30
0
0
SEQEND
8
Halfen
0
POLYLINE
8
Halfen
62
7
66
1
10
0.0
20
0.0
30
0.0
70
1
0
VERTEX
8
Halfen
62
7
10
 265
20
-69.3
30
0
0
VERTEX
8
Halfen
62
7
10
 265
20
-56.8
30
0
0
VERTEX
8
Halfen
62
7
10
 265
20
 69.3
30
0
0
VERTEX
8
Halfen
62
7
10
 264.958
20
 70.359
30
0
0
VERTEX
8
Halfen
62
7
10
 264.834
20
 71.412
30
0
0
VERTEX
8
Halfen
62
7
10
 264.627
20
 72.452
30
0
0
VERTEX
8
Halfen
62
7
10
 264.339
20
 73.472
30
0
0
VERTEX
8
Halfen
62
7
10
 263.972
20
 74.466
30
0
0
VERTEX
8
Halfen
62
7
10
 263.529
20
 75.429
30
0
0
VERTEX
8
Halfen
62
7
10
 263.011
20
 76.354
30
0
0
VERTEX
8
Halfen
62
7
10
 262.422
20
 77.235
30
0
0
VERTEX
8
Halfen
62
7
10
 261.765
20
 78.068
30
0
0
VERTEX
8
Halfen
62
7
10
 261.046
20
 78.846
30
0
0
VERTEX
8
Halfen
62
7
10
 260.268
20
 79.565
30
0
0
VERTEX
8
Halfen
62
7
10
 259.435
20
 80.222
30
0
0
VERTEX
8
Halfen
62
7
10
 258.554
20
 80.811
30
0
0
VERTEX
8
Halfen
62
7
10
 257.629
20
 81.329
30
0
0
VERTEX
8
Halfen
62
7
10
 256.666
20
 81.772
30
0
0
VERTEX
8
Halfen
62
7
10
 255.672
20
 82.139
30
0
0
VERTEX
8
Halfen
62
7
10
 254.652
20
 82.427
30
0
0
VERTEX
8
Halfen
62
7
10
 253.612
20
 82.634
30
0
0
VERTEX
8
Halfen
62
7
10
 252.559
20
 82.758
30
0
0
VERTEX
8
Halfen
62
7
10
 251.5
20
 82.8
30
0
0
VERTEX
8
Halfen
62
7
10
 248.5
20
 82.8
30
0
0
VERTEX
8
Halfen
62
7
10
 247.441
20
 82.758
30
0
0
VERTEX
8
Halfen
62
7
10
 246.388
20
 82.634
30
0
0
VERTEX
8
Halfen
62
7
10
 245.348
20
 82.427
30
0
0
VERTEX
8
Halfen
62
7
10
 244.328
20
 82.139
30
0
0
VERTEX
8
Halfen
62
7
10
 243.334
20
 81.772
30
0
0
VERTEX
8
Halfen
62
7
10
 242.371
20
 81.329
30
0
0
VERTEX
8
Halfen
62
7
10
 241.446
20
 80.811
30
0
0
VERTEX
8
Halfen
62
7
10
 240.565
20
 80.222
30
0
0
VERTEX
8
Halfen
62
7
10
 239.732
20
 79.565
30
0
0
VERTEX
8
Halfen
62
7
10
 238.954
20
 78.846
30
0
0
VERTEX
8
Halfen
62
7
10
 238.235
20
 78.068
30
0
0
VERTEX
8
Halfen
62
7
10
 237.578
20
 77.235
30
0
0
VERTEX
8
Halfen
62
7
10
 236.989
20
 76.354
30
0
0
VERTEX
8
Halfen
62
7
10
 236.471
20
 75.429
30
0
0
VERTEX
8
Halfen
62
7
10
 236.028
20
 74.466
30
0
0
VERTEX
8
Halfen
62
7
10
 235.661
20
 73.472
30
0
0
VERTEX
8
Halfen
62
7
10
 235.373
20
 72.452
30
0
0
VERTEX
8
Halfen
62
7
10
 235.166
20
 71.412
30
0
0
VERTEX
8
Halfen
62
7
10
 235.042
20
 70.359
30
0
0
VERTEX
8
Halfen
62
7
10
 235
20
 69.3
30
0
0
VERTEX
8
Halfen
62
7
10
 235
20
-56.8
30
0
0
VERTEX
8
Halfen
62
7
10
 235
20
-69.3
30
0
0
VERTEX
8
Halfen
62
7
10
 235.042
20
-70.359
30
0
0
VERTEX
8
Halfen
62
7
10
 235.166
20
-71.412
30
0
0
VERTEX
8
Halfen
62
7
10
 235.373
20
-72.452
30
0
0
VERTEX
8
Halfen
62
7
10
 235.661
20
-73.472
30
0
0
VERTEX
8
Halfen
62
7
10
 236.028
20
-74.466
30
0
0
VERTEX
8
Halfen
62
7
10
 236.471
20
-75.429
30
0
0
VERTEX
8
Halfen
62
7
10
 236.989
20
-76.354
30
0
0
VERTEX
8
Halfen
62
7
10
 237.578
20
-77.235
30
0
0
VERTEX
8
Halfen
62
7
10
 238.235
20
-78.068
30
0
0
VERTEX
8
Halfen
62
7
10
 238.954
20
-78.846
30
0
0
VERTEX
8
Halfen
62
7
10
 239.732
20
-79.565
30
0
0
VERTEX
8
Halfen
62
7
10
 240.565
20
-80.222
30
0
0
VERTEX
8
Halfen
62
7
10
 241.446
20
-80.811
30
0
0
VERTEX
8
Halfen
62
7
10
 242.371
20
-81.329
30
0
0
VERTEX
8
Halfen
62
7
10
 243.334
20
-81.772
30
0
0
VERTEX
8
Halfen
62
7
10
 244.328
20
-82.139
30
0
0
VERTEX
8
Halfen
62
7
10
 245.348
20
-82.427
30
0
0
VERTEX
8
Halfen
62
7
10
 246.388
20
-82.634
30
0
0
VERTEX
8
Halfen
62
7
10
 247.441
20
-82.758
30
0
0
VERTEX
8
Halfen
62
7
10
 248.5
20
-82.8
30
0
0
VERTEX
8
Halfen
62
7
10
 251.5
20
-82.8
30
0
0
VERTEX
8
Halfen
62
7
10
 252.559
20
-82.758
30
0
0
VERTEX
8
Halfen
62
7
10
 253.612
20
-82.634
30
0
0
VERTEX
8
Halfen
62
7
10
 254.652
20
-82.427
30
0
0
VERTEX
8
Halfen
62
7
10
 255.672
20
-82.139
30
0
0
VERTEX
8
Halfen
62
7
10
 256.666
20
-81.772
30
0
0
VERTEX
8
Halfen
62
7
10
 257.629
20
-81.329
30
0
0
VERTEX
8
Halfen
62
7
10
 258.554
20
-80.811
30
0
0
VERTEX
8
Halfen
62
7
10
 259.435
20
-80.222
30
0
0
VERTEX
8
Halfen
62
7
10
 260.268
20
-79.565
30
0
0
VERTEX
8
Halfen
62
7
10
 261.046
20
-78.846
30
0
0
VERTEX
8
Halfen
62
7
10
 261.765
20
-78.068
30
0
0
VERTEX
8
Halfen
62
7
10
 262.422
20
-77.235
30
0
0
VERTEX
8
Halfen
62
7
10
 263.011
20
-76.354
30
0
0
VERTEX
8
Halfen
62
7
10
 263.529
20
-75.429
30
0
0
VERTEX
8
Halfen
62
7
10
 263.972
20
-74.466
30
0
0
VERTEX
8
Halfen
62
7
10
 264.339
20
-73.472
30
0
0
VERTEX
8
Halfen
62
7
10
 264.627
20
-72.452
30
0
0
VERTEX
8
Halfen
62
7
10
 264.834
20
-71.412
30
0
0
VERTEX
8
Halfen
62
7
10
 264.958
20
-70.359
30
0
0
VERTEX
8
Halfen
62
7
10
 265
20
-69.3
30
0
0
SEQEND
8
Halfen
0
POLYLINE
8
Halfen
62
7
66
1
10
0.0
20
0.0
30
0.0
70
1
0
VERTEX
8
Halfen
62
7
10
 390
20
-69.3
30
0
0
VERTEX
8
Halfen
62
7
10
 390
20
-56.8
30
0
0
VERTEX
8
Halfen
62
7
10
 390
20
 69.3
30
0
0
VERTEX
8
Halfen
62
7
10
 389.958
20
 70.359
30
0
0
VERTEX
8
Halfen
62
7
10
 389.834
20
 71.412
30
0
0
VERTEX
8
Halfen
62
7
10
 389.627
20
 72.452
30
0
0
VERTEX
8
Halfen
62
7
10
 389.339
20
 73.472
30
0
0
VERTEX
8
Halfen
62
7
10
 388.972
20
 74.466
30
0
0
VERTEX
8
Halfen
62
7
10
 388.529
20
 75.429
30
0
0
VERTEX
8
Halfen
62
7
10
 388.011
20
 76.354
30
0
0
VERTEX
8
Halfen
62
7
10
 387.422
20
 77.235
30
0
0
VERTEX
8
Halfen
62
7
10
 386.765
20
 78.068
30
0
0
VERTEX
8
Halfen
62
7
10
 386.046
20
 78.846
30
0
0
VERTEX
8
Halfen
62
7
10
 385.268
20
 79.565
30
0
0
VERTEX
8
Halfen
62
7
10
 384.435
20
 80.222
30
0
0
VERTEX
8
Halfen
62
7
10
 383.554
20
 80.811
30
0
0
VERTEX
8
Halfen
62
7
10
 382.629
20
 81.329
30
0
0
VERTEX
8
Halfen
62
7
10
 381.666
20
 81.772
30
0
0
VERTEX
8
Halfen
62
7
10
 380.672
20
 82.139
30
0
0
VERTEX
8
Halfen
62
7
10
 379.652
20
 82.427
30
0
0
VERTEX
8
Halfen
62
7
10
 378.612
20
 82.634
30
0
0
VERTEX
8
Halfen
62
7
10
 377.559
20
 82.758
30
0
0
VERTEX
8
Halfen
62
7
10
 376.5
20
 82.8
30
0
0
VERTEX
8
Halfen
62
7
10
 373.5
20
 82.8
30
0
0
VERTEX
8
Halfen
62
7
10
 372.441
20
 82.758
30
0
0
VERTEX
8
Halfen
62
7
10
 371.388
20
 82.634
30
0
0
VERTEX
8
Halfen
62
7
10
 370.348
20
 82.427
30
0
0
VERTEX
8
Halfen
62
7
10
 369.328
20
 82.139
30
0
0
VERTEX
8
Halfen
62
7
10
 368.334
20
 81.772
30
0
0
VERTEX
8
Halfen
62
7
10
 367.371
20
 81.329
30
0
0
VERTEX
8
Halfen
62
7
10
 366.446
20
 80.811
30
0
0
VERTEX
8
Halfen
62
7
10
 365.565
20
 80.222
30
0
0
VERTEX
8
Halfen
62
7
10
 364.732
20
 79.565
30
0
0
VERTEX
8
Halfen
62
7
10
 363.954
20
 78.846
30
0
0
VERTEX
8
Halfen
62
7
10
 363.235
20
 78.068
30
0
0
VERTEX
8
Halfen
62
7
10
 362.578
20
 77.235
30
0
0
VERTEX
8
Halfen
62
7
10
 361.989
20
 76.354
30
0
0
VERTEX
8
Halfen
62
7
10
 361.471
20
 75.429
30
0
0
VERTEX
8
Halfen
62
7
10
 361.028
20
 74.466
30
0
0
VERTEX
8
Halfen
62
7
10
 360.661
20
 73.472
30
0
0
VERTEX
8
Halfen
62
7
10
 360.373
20
 72.452
30
0
0
VERTEX
8
Halfen
62
7
10
 360.166
20
 71.412
30
0
0
VERTEX
8
Halfen
62
7
10
 360.042
20
 70.359
30
0
0
VERTEX
8
Halfen
62
7
10
 360
20
 69.3
30
0
0
VERTEX
8
Halfen
62
7
10
 360
20
-56.8
30
0
0
VERTEX
8
Halfen
62
7
10
 360
20
-69.3
30
0
0
VERTEX
8
Halfen
62
7
10
 360.042
20
-70.359
30
0
0
VERTEX
8
Halfen
62
7
10
 360.166
20
-71.412
30
0
0
VERTEX
8
Halfen
62
7
10
 360.373
20
-72.452
30
0
0
VERTEX
8
Halfen
62
7
10
 360.661
20
-73.472
30
0
0
VERTEX
8
Halfen
62
7
10
 361.028
20
-74.466
30
0
0
VERTEX
8
Halfen
62
7
10
 361.471
20
-75.429
30
0
0
VERTEX
8
Halfen
62
7
10
 361.989
20
-76.354
30
0
0
VERTEX
8
Halfen
62
7
10
 362.578
20
-77.235
30
0
0
VERTEX
8
Halfen
62
7
10
 363.235
20
-78.068
30
0
0
VERTEX
8
Halfen
62
7
10
 363.954
20
-78.846
30
0
0
VERTEX
8
Halfen
62
7
10
 364.732
20
-79.565
30
0
0
VERTEX
8
Halfen
62
7
10
 365.565
20
-80.222
30
0
0
VERTEX
8
Halfen
62
7
10
 366.446
20
-80.811
30
0
0
VERTEX
8
Halfen
62
7
10
 367.371
20
-81.329
30
0
0
VERTEX
8
Halfen
62
7
10
 368.334
20
-81.772
30
0
0
VERTEX
8
Halfen
62
7
10
 369.328
20
-82.139
30
0
0
VERTEX
8
Halfen
62
7
10
 370.348
20
-82.427
30
0
0
VERTEX
8
Halfen
62
7
10
 371.388
20
-82.634
30
0
0
VERTEX
8
Halfen
62
7
10
 372.441
20
-82.758
30
0
0
VERTEX
8
Halfen
62
7
10
 373.5
20
-82.8
30
0
0
VERTEX
8
Halfen
62
7
10
 376.5
20
-82.8
30
0
0
VERTEX
8
Halfen
62
7
10
 377.559
20
-82.758
30
0
0
VERTEX
8
Halfen
62
7
10
 378.612
20
-82.634
30
0
0
VERTEX
8
Halfen
62
7
10
 379.652
20
-82.427
30
0
0
VERTEX
8
Halfen
62
7
10
 380.672
20
-82.139
30
0
0
VERTEX
8
Halfen
62
7
10
 381.666
20
-81.772
30
0
0
VERTEX
8
Halfen
62
7
10
 382.629
20
-81.329
30
0
0
VERTEX
8
Halfen
62
7
10
 383.554
20
-80.811
30
0
0
VERTEX
8
Halfen
62
7
10
 384.435
20
-80.222
30
0
0
VERTEX
8
Halfen
62
7
10
 385.268
20
-79.565
30
0
0
VERTEX
8
Halfen
62
7
10
 386.046
20
-78.846
30
0
0
VERTEX
8
Halfen
62
7
10
 386.765
20
-78.068
30
0
0
VERTEX
8
Halfen
62
7
10
 387.422
20
-77.235
30
0
0
VERTEX
8
Halfen
62
7
10
 388.011
20
-76.354
30
0
0
VERTEX
8
Halfen
62
7
10
 388.529
20
-75.429
30
0
0
VERTEX
8
Halfen
62
7
10
 388.972
20
-74.466
30
0
0
VERTEX
8
Halfen
62
7
10
 389.339
20
-73.472
30
0
0
VERTEX
8
Halfen
62
7
10
 389.627
20
-72.452
30
0
0
VERTEX
8
Halfen
62
7
10
 389.834
20
-71.412
30
0
0
VERTEX
8
Halfen
62
7
10
 389.958
20
-70.359
30
0
0
VERTEX
8
Halfen
62
7
10
 390
20
-69.3
30
0
0
SEQEND
8
Halfen
0
POLYLINE
8
Halfen
62
7
66
1
10
0.0
20
0.0
30
0.0
70
1
0
VERTEX
8
Halfen
62
7
10
 640
20
-69.3
30
0
0
VERTEX
8
Halfen
62
7
10
 640
20
-56.8
30
0
0
VERTEX
8
Halfen
62
7
10
 640
20
 69.3
30
0
0
VERTEX
8
Halfen
62
7
10
 639.958
20
 70.359
30
0
0
VERTEX
8
Halfen
62
7
10
 639.834
20
 71.412
30
0
0
VERTEX
8
Halfen
62
7
10
 639.627
20
 72.452
30
0
0
VERTEX
8
Halfen
62
7
10
 639.339
20
 73.472
30
0
0
VERTEX
8
Halfen
62
7
10
 638.972
20
 74.466
30
0
0
VERTEX
8
Halfen
62
7
10
 638.529
20
 75.429
30
0
0
VERTEX
8
Halfen
62
7
10
 638.011
20
 76.354
30
0
0
VERTEX
8
Halfen
62
7
10
 637.422
20
 77.235
30
0
0
VERTEX
8
Halfen
62
7
10
 636.765
20
 78.068
30
0
0
VERTEX
8
Halfen
62
7
10
 636.046
20
 78.846
30
0
0
VERTEX
8
Halfen
62
7
10
 635.268
20
 79.565
30
0
0
VERTEX
8
Halfen
62
7
10
 634.435
20
 80.222
30
0
0
VERTEX
8
Halfen
62
7
10
 633.554
20
 80.811
30
0
0
VERTEX
8
Halfen
62
7
10
 632.629
20
 81.329
30
0
0
VERTEX
8
Halfen
62
7
10
 631.666
20
 81.772
30
0
0
VERTEX
8
Halfen
62
7
10
 630.672
20
 82.139
30
0
0
VERTEX
8
Halfen
62
7
10
 629.652
20
 82.427
30
0
0
VERTEX
8
Halfen
62
7
10
 628.612
20
 82.634
30
0
0
VERTEX
8
Halfen
62
7
10
 627.559
20
 82.758
30
0
0
VERTEX
8
Halfen
62
7
10
 626.5
20
 82.8
30
0
0
VERTEX
8
Halfen
62
7
10
 623.5
20
 82.8
30
0
0
VERTEX
8
Halfen
62
7
10
 622.441
20
 82.758
30
0
0
VERTEX
8
Halfen
62
7
10
 621.388
20
 82.634
30
0
0
VERTEX
8
Halfen
62
7
10
 620.348
20
 82.427
30
0
0
VERTEX
8
Halfen
62
7
10
 619.328
20
 82.139
30
0
0
VERTEX
8
Halfen
62
7
10
 618.334
20
 81.772
30
0
0
VERTEX
8
Halfen
62
7
10
 617.371
20
 81.329
30
0
0
VERTEX
8
Halfen
62
7
10
 616.446
20
 80.811
30
0
0
VERTEX
8
Halfen
62
7
10
 615.565
20
 80.222
30
0
0
VERTEX
8
Halfen
62
7
10
 614.732
20
 79.565
30
0
0
VERTEX
8
Halfen
62
7
10
 613.954
20
 78.846
30
0
0
VERTEX
8
Halfen
62
7
10
 613.235
20
 78.068
30
0
0
VERTEX
8
Halfen
62
7
10
 612.578
20
 77.235
30
0
0
VERTEX
8
Halfen
62
7
10
 611.989
20
 76.354
30
0
0
VERTEX
8
Halfen
62
7
10
 611.471
20
 75.429
30
0
0
VERTEX
8
Halfen
62
7
10
 611.028
20
 74.466
30
0
0
VERTEX
8
Halfen
62
7
10
 610.661
20
 73.472
30
0
0
VERTEX
8
Halfen
62
7
10
 610.373
20
 72.452
30
0
0
VERTEX
8
Halfen
62
7
10
 610.166
20
 71.412
30
0
0
VERTEX
8
Halfen
62
7
10
 610.042
20
 70.359
30
0
0
VERTEX
8
Halfen
62
7
10
 610
20
 69.3
30
0
0
VERTEX
8
Halfen
62
7
10
 610
20
-56.8
30
0
0
VERTEX
8
Halfen
62
7
10
 610
20
-69.3
30
0
0
VERTEX
8
Halfen
62
7
10
 610.042
20
-70.359
30
0
0
VERTEX
8
Halfen
62
7
10
 610.166
20
-71.412
30
0
0
VERTEX
8
Halfen
62
7
10
 610.373
20
-72.452
30
0
0
VERTEX
8
Halfen
62
7
10
 610.661
20
-73.472
30
0
0
VERTEX
8
Halfen
62
7
10
 611.028
20
-74.466
30
0
0
VERTEX
8
Halfen
62
7
10
 611.471
20
-75.429
30
0
0
VERTEX
8
Halfen
62
7
10
 611.989
20
-76.354
30
0
0
VERTEX
8
Halfen
62
7
10
 612.578
20
-77.235
30
0
0
VERTEX
8
Halfen
62
7
10
 613.235
20
-78.068
30
0
0
VERTEX
8
Halfen
62
7
10
 613.954
20
-78.846
30
0
0
VERTEX
8
Halfen
62
7
10
 614.732
20
-79.565
30
0
0
VERTEX
8
Halfen
62
7
10
 615.565
20
-80.222
30
0
0
VERTEX
8
Halfen
62
7
10
 616.446
20
-80.811
30
0
0
VERTEX
8
Halfen
62
7
10
 617.371
20
-81.329
30
0
0
VERTEX
8
Halfen
62
7
10
 618.334
20
-81.772
30
0
0
VERTEX
8
Halfen
62
7
10
 619.328
20
-82.139
30
0
0
VERTEX
8
Halfen
62
7
10
 620.348
20
-82.427
30
0
0
VERTEX
8
Halfen
62
7
10
 621.388
20
-82.634
30
0
0
VERTEX
8
Halfen
62
7
10
 622.441
20
-82.758
30
0
0
VERTEX
8
Halfen
62
7
10
 623.5
20
-82.8
30
0
0
VERTEX
8
Halfen
62
7
10
 626.5
20
-82.8
30
0
0
VERTEX
8
Halfen
62
7
10
 627.559
20
-82.758
30
0
0
VERTEX
8
Halfen
62
7
10
 628.612
20
-82.634
30
0
0
VERTEX
8
Halfen
62
7
10
 629.652
20
-82.427
30
0
0
VERTEX
8
Halfen
62
7
10
 630.672
20
-82.139
30
0
0
VERTEX
8
Halfen
62
7
10
 631.666
20
-81.772
30
0
0
VERTEX
8
Halfen
62
7
10
 632.629
20
-81.329
30
0
0
VERTEX
8
Halfen
62
7
10
 633.554
20
-80.811
30
0
0
VERTEX
8
Halfen
62
7
10
 634.435
20
-80.222
30
0
0
VERTEX
8
Halfen
62
7
10
 635.268
20
-79.565
30
0
0
VERTEX
8
Halfen
62
7
10
 636.046
20
-78.846
30
0
0
VERTEX
8
Halfen
62
7
10
 636.765
20
-78.068
30
0
0
VERTEX
8
Halfen
62
7
10
 637.422
20
-77.235
30
0
0
VERTEX
8
Halfen
62
7
10
 638.011
20
-76.354
30
0
0
VERTEX
8
Halfen
62
7
10
 638.529
20
-75.429
30
0
0
VERTEX
8
Halfen
62
7
10
 638.972
20
-74.466
30
0
0
VERTEX
8
Halfen
62
7
10
 639.339
20
-73.472
30
0
0
VERTEX
8
Halfen
62
7
10
 639.627
20
-72.452
30
0
0
VERTEX
8
Halfen
62
7
10
 639.834
20
-71.412
30
0
0
VERTEX
8
Halfen
62
7
10
 639.958
20
-70.359
30
0
0
VERTEX
8
Halfen
62
7
10
 640
20
-69.3
30
0
0
SEQEND
8
Halfen
0
POLYLINE
8
Halfen
62
7
66
1
10
0.0
20
0.0
30
0.0
70
1
0
VERTEX
8
Halfen
62
7
10
 765
20
-69.3
30
0
0
VERTEX
8
Halfen
62
7
10
 765
20
-56.8
30
0
0
VERTEX
8
Halfen
62
7
10
 765
20
 69.3
30
0
0
VERTEX
8
Halfen
62
7
10
 764.958
20
 70.359
30
0
0
VERTEX
8
Halfen
62
7
10
 764.834
20
 71.412
30
0
0
VERTEX
8
Halfen
62
7
10
 764.627
20
 72.452
30
0
0
VERTEX
8
Halfen
62
7
10
 764.339
20
 73.472
30
0
0
VERTEX
8
Halfen
62
7
10
 763.972
20
 74.466
30
0
0
VERTEX
8
Halfen
62
7
10
 763.529
20
 75.429
30
0
0
VERTEX
8
Halfen
62
7
10
 763.011
20
 76.354
30
0
0
VERTEX
8
Halfen
62
7
10
 762.422
20
 77.235
30
0
0
VERTEX
8
Halfen
62
7
10
 761.765
20
 78.068
30
0
0
VERTEX
8
Halfen
62
7
10
 761.046
20
 78.846
30
0
0
VERTEX
8
Halfen
62
7
10
 760.268
20
 79.565
30
0
0
VERTEX
8
Halfen
62
7
10
 759.435
20
 80.222
30
0
0
VERTEX
8
Halfen
62
7
10
 758.554
20
 80.811
30
0
0
VERTEX
8
Halfen
62
7
10
 757.629
20
 81.329
30
0
0
VERTEX
8
Halfen
62
7
10
 756.666
20
 81.772
30
0
0
VERTEX
8
Halfen
62
7
10
 755.672
20
 82.139
30
0
0
VERTEX
8
Halfen
62
7
10
 754.652
20
 82.427
30
0
0
VERTEX
8
Halfen
62
7
10
 753.612
20
 82.634
30
0
0
VERTEX
8
Halfen
62
7
10
 752.559
20
 82.758
30
0
0
VERTEX
8
Halfen
62
7
10
 751.5
20
 82.8
30
0
0
VERTEX
8
Halfen
62
7
10
 748.5
20
 82.8
30
0
0
VERTEX
8
Halfen
62
7
10
 747.441
20
 82.758
30
0
0
VERTEX
8
Halfen
62
7
10
 746.388
20
 82.634
30
0
0
VERTEX
8
Halfen
62
7
10
 745.348
20
 82.427
30
0
0
VERTEX
8
Halfen
62
7
10
 744.328
20
 82.139
30
0
0
VERTEX
8
Halfen
62
7
10
 743.334
20
 81.772
30
0
0
VERTEX
8
Halfen
62
7
10
 742.371
20
 81.329
30
0
0
VERTEX
8
Halfen
62
7
10
 741.446
20
 80.811
30
0
0
VERTEX
8
Halfen
62
7
10
 740.565
20
 80.222
30
0
0
VERTEX
8
Halfen
62
7
10
 739.732
20
 79.565
30
0
0
VERTEX
8
Halfen
62
7
10
 738.954
20
 78.846
30
0
0
VERTEX
8
Halfen
62
7
10
 738.235
20
 78.068
30
0
0
VERTEX
8
Halfen
62
7
10
 737.578
20
 77.235
30
0
0
VERTEX
8
Halfen
62
7
10
 736.989
20
 76.354
30
0
0
VERTEX
8
Halfen
62
7
10
 736.471
20
 75.429
30
0
0
VERTEX
8
Halfen
62
7
10
 736.028
20
 74.466
30
0
0
VERTEX
8
Halfen
62
7
10
 735.661
20
 73.472
30
0
0
VERTEX
8
Halfen
62
7
10
 735.373
20
 72.452
30
0
0
VERTEX
8
Halfen
62
7
10
 735.166
20
 71.412
30
0
0
VERTEX
8
Halfen
62
7
10
 735.042
20
 70.359
30
0
0
VERTEX
8
Halfen
62
7
10
 735
20
 69.3
30
0
0
VERTEX
8
Halfen
62
7
10
 735
20
-56.8
30
0
0
VERTEX
8
Halfen
62
7
10
 735
20
-69.3
30
0
0
VERTEX
8
Halfen
62
7
10
 735.042
20
-70.359
30
0
0
VERTEX
8
Halfen
62
7
10
 735.166
20
-71.412
30
0
0
VERTEX
8
Halfen
62
7
10
 735.373
20
-72.452
30
0
0
VERTEX
8
Halfen
62
7
10
 735.661
20
-73.472
30
0
0
VERTEX
8
Halfen
62
7
10
 736.028
20
-74.466
30
0
0
VERTEX
8
Halfen
62
7
10
 736.471
20
-75.429
30
0
0
VERTEX
8
Halfen
62
7
10
 736.989
20
-76.354
30
0
0
VERTEX
8
Halfen
62
7
10
 737.578
20
-77.235
30
0
0
VERTEX
8
Halfen
62
7
10
 738.235
20
-78.068
30
0
0
VERTEX
8
Halfen
62
7
10
 738.954
20
-78.846
30
0
0
VERTEX
8
Halfen
62
7
10
 739.732
20
-79.565
30
0
0
VERTEX
8
Halfen
62
7
10
 740.565
20
-80.222
30
0
0
VERTEX
8
Halfen
62
7
10
 741.446
20
-80.811
30
0
0
VERTEX
8
Halfen
62
7
10
 742.371
20
-81.329
30
0
0
VERTEX
8
Halfen
62
7
10
 743.334
20
-81.772
30
0
0
VERTEX
8
Halfen
62
7
10
 744.328
20
-82.139
30
0
0
VERTEX
8
Halfen
62
7
10
 745.348
20
-82.427
30
0
0
VERTEX
8
Halfen
62
7
10
 746.388
20
-82.634
30
0
0
VERTEX
8
Halfen
62
7
10
 747.441
20
-82.758
30
0
0
VERTEX
8
Halfen
62
7
10
 748.5
20
-82.8
30
0
0
VERTEX
8
Halfen
62
7
10
 751.5
20
-82.8
30
0
0
VERTEX
8
Halfen
62
7
10
 752.559
20
-82.758
30
0
0
VERTEX
8
Halfen
62
7
10
 753.612
20
-82.634
30
0
0
VERTEX
8
Halfen
62
7
10
 754.652
20
-82.427
30
0
0
VERTEX
8
Halfen
62
7
10
 755.672
20
-82.139
30
0
0
VERTEX
8
Halfen
62
7
10
 756.666
20
-81.772
30
0
0
VERTEX
8
Halfen
62
7
10
 757.629
20
-81.329
30
0
0
VERTEX
8
Halfen
62
7
10
 758.554
20
-80.811
30
0
0
VERTEX
8
Halfen
62
7
10
 759.435
20
-80.222
30
0
0
VERTEX
8
Halfen
62
7
10
 760.268
20
-79.565
30
0
0
VERTEX
8
Halfen
62
7
10
 761.046
20
-78.846
30
0
0
VERTEX
8
Halfen
62
7
10
 761.765
20
-78.068
30
0
0
VERTEX
8
Halfen
62
7
10
 762.422
20
-77.235
30
0
0
VERTEX
8
Halfen
62
7
10
 763.011
20
-76.354
30
0
0
VERTEX
8
Halfen
62
7
10
 763.529
20
-75.429
30
0
0
VERTEX
8
Halfen
62
7
10
 763.972
20
-74.466
30
0
0
VERTEX
8
Halfen
62
7
10
 764.339
20
-73.472
30
0
0
VERTEX
8
Halfen
62
7
10
 764.627
20
-72.452
30
0
0
VERTEX
8
Halfen
62
7
10
 764.834
20
-71.412
30
0
0
VERTEX
8
Halfen
62
7
10
 764.958
20
-70.359
30
0
0
VERTEX
8
Halfen
62
7
10
 765
20
-69.3
30
0
0
SEQEND
8
Halfen
0
POLYLINE
8
Halfen
62
7
66
1
10
0.0
20
0.0
30
0.0
70
1
0
VERTEX
8
Halfen
62
7
10
 890
20
-69.3
30
0
0
VERTEX
8
Halfen
62
7
10
 890
20
-56.8
30
0
0
VERTEX
8
Halfen
62
7
10
 890
20
 69.3
30
0
0
VERTEX
8
Halfen
62
7
10
 889.958
20
 70.359
30
0
0
VERTEX
8
Halfen
62
7
10
 889.834
20
 71.412
30
0
0
VERTEX
8
Halfen
62
7
10
 889.627
20
 72.452
30
0
0
VERTEX
8
Halfen
62
7
10
 889.339
20
 73.472
30
0
0
VERTEX
8
Halfen
62
7
10
 888.972
20
 74.466
30
0
0
VERTEX
8
Halfen
62
7
10
 888.529
20
 75.429
30
0
0
VERTEX
8
Halfen
62
7
10
 888.011
20
 76.354
30
0
0
VERTEX
8
Halfen
62
7
10
 887.422
20
 77.235
30
0
0
VERTEX
8
Halfen
62
7
10
 886.765
20
 78.068
30
0
0
VERTEX
8
Halfen
62
7
10
 886.046
20
 78.846
30
0
0
VERTEX
8
Halfen
62
7
10
 885.268
20
 79.565
30
0
0
VERTEX
8
Halfen
62
7
10
 884.435
20
 80.222
30
0
0
VERTEX
8
Halfen
62
7
10
 883.554
20
 80.811
30
0
0
VERTEX
8
Halfen
62
7
10
 882.629
20
 81.329
30
0
0
VERTEX
8
Halfen
62
7
10
 881.666
20
 81.772
30
0
0
VERTEX
8
Halfen
62
7
10
 880.672
20
 82.139
30
0
0
VERTEX
8
Halfen
62
7
10
 879.652
20
 82.427
30
0
0
VERTEX
8
Halfen
62
7
10
 878.612
20
 82.634
30
0
0
VERTEX
8
Halfen
62
7
10
 877.559
20
 82.758
30
0
0
VERTEX
8
Halfen
62
7
10
 876.5
20
 82.8
30
0
0
VERTEX
8
Halfen
62
7
10
 873.5
20
 82.8
30
0
0
VERTEX
8
Halfen
62
7
10
 872.441
20
 82.758
30
0
0
VERTEX
8
Halfen
62
7
10
 871.388
20
 82.634
30
0
0
VERTEX
8
Halfen
62
7
10
 870.348
20
 82.427
30
0
0
VERTEX
8
Halfen
62
7
10
 869.328
20
 82.139
30
0
0
VERTEX
8
Halfen
62
7
10
 868.334
20
 81.772
30
0
0
VERTEX
8
Halfen
62
7
10
 867.371
20
 81.329
30
0
0
VERTEX
8
Halfen
62
7
10
 866.446
20
 80.811
30
0
0
VERTEX
8
Halfen
62
7
10
 865.565
20
 80.222
30
0
0
VERTEX
8
Halfen
62
7
10
 864.732
20
 79.565
30
0
0
VERTEX
8
Halfen
62
7
10
 863.954
20
 78.846
30
0
0
VERTEX
8
Halfen
62
7
10
 863.235
20
 78.068
30
0
0
VERTEX
8
Halfen
62
7
10
 862.578
20
 77.235
30
0
0
VERTEX
8
Halfen
62
7
10
 861.989
20
 76.354
30
0
0
VERTEX
8
Halfen
62
7
10
 861.471
20
 75.429
30
0
0
VERTEX
8
Halfen
62
7
10
 861.028
20
 74.466
30
0
0
VERTEX
8
Halfen
62
7
10
 860.661
20
 73.472
30
0
0
VERTEX
8
Halfen
62
7
10
 860.373
20
 72.452
30
0
0
VERTEX
8
Halfen
62
7
10
 860.166
20
 71.412
30
0
0
VERTEX
8
Halfen
62
7
10
 860.042
20
 70.359
30
0
0
VERTEX
8
Halfen
62
7
10
 860
20
 69.3
30
0
0
VERTEX
8
Halfen
62
7
10
 860
20
-56.8
30
0
0
VERTEX
8
Halfen
62
7
10
 860
20
-69.3
30
0
0
VERTEX
8
Halfen
62
7
10
 860.042
20
-70.359
30
0
0
VERTEX
8
Halfen
62
7
10
 860.166
20
-71.412
30
0
0
VERTEX
8
Halfen
62
7
10
 860.373
20
-72.452
30
0
0
VERTEX
8
Halfen
62
7
10
 860.661
20
-73.472
30
0
0
VERTEX
8
Halfen
62
7
10
 861.028
20
-74.466
30
0
0
VERTEX
8
Halfen
62
7
10
 861.471
20
-75.429
30
0
0
VERTEX
8
Halfen
62
7
10
 861.989
20
-76.354
30
0
0
VERTEX
8
Halfen
62
7
10
 862.578
20
-77.235
30
0
0
VERTEX
8
Halfen
62
7
10
 863.235
20
-78.068
30
0
0
VERTEX
8
Halfen
62
7
10
 863.954
20
-78.846
30
0
0
VERTEX
8
Halfen
62
7
10
 864.732
20
-79.565
30
0
0
VERTEX
8
Halfen
62
7
10
 865.565
20
-80.222
30
0
0
VERTEX
8
Halfen
62
7
10
 866.446
20
-80.811
30
0
0
VERTEX
8
Halfen
62
7
10
 867.371
20
-81.329
30
0
0
VERTEX
8
Halfen
62
7
10
 868.334
20
-81.772
30
0
0
VERTEX
8
Halfen
62
7
10
 869.328
20
-82.139
30
0
0
VERTEX
8
Halfen
62
7
10
 870.348
20
-82.427
30
0
0
VERTEX
8
Halfen
62
7
10
 871.388
20
-82.634
30
0
0
VERTEX
8
Halfen
62
7
10
 872.441
20
-82.758
30
0
0
VERTEX
8
Halfen
62
7
10
 873.5
20
-82.8
30
0
0
VERTEX
8
Halfen
62
7
10
 876.5
20
-82.8
30
0
0
VERTEX
8
Halfen
62
7
10
 877.559
20
-82.758
30
0
0
VERTEX
8
Halfen
62
7
10
 878.612
20
-82.634
30
0
0
VERTEX
8
Halfen
62
7
10
 879.652
20
-82.427
30
0
0
VERTEX
8
Halfen
62
7
10
 880.672
20
-82.139
30
0
0
VERTEX
8
Halfen
62
7
10
 881.666
20
-81.772
30
0
0
VERTEX
8
Halfen
62
7
10
 882.629
20
-81.329
30
0
0
VERTEX
8
Halfen
62
7
10
 883.554
20
-80.811
30
0
0
VERTEX
8
Halfen
62
7
10
 884.435
20
-80.222
30
0
0
VERTEX
8
Halfen
62
7
10
 885.268
20
-79.565
30
0
0
VERTEX
8
Halfen
62
7
10
 886.046
20
-78.846
30
0
0
VERTEX
8
Halfen
62
7
10
 886.765
20
-78.068
30
0
0
VERTEX
8
Halfen
62
7
10
 887.422
20
-77.235
30
0
0
VERTEX
8
Halfen
62
7
10
 888.011
20
-76.354
30
0
0
VERTEX
8
Halfen
62
7
10
 888.529
20
-75.429
30
0
0
VERTEX
8
Halfen
62
7
10
 888.972
20
-74.466
30
0
0
VERTEX
8
Halfen
62
7
10
 889.339
20
-73.472
30
0
0
VERTEX
8
Halfen
62
7
10
 889.627
20
-72.452
30
0
0
VERTEX
8
Halfen
62
7
10
 889.834
20
-71.412
30
0
0
VERTEX
8
Halfen
62
7
10
 889.958
20
-70.359
30
0
0
VERTEX
8
Halfen
62
7
10
 890
20
-69.3
30
0
0
SEQEND
8
Halfen
0
POLYLINE
8
Halfen
62
7
66
1
10
0.0
20
0.0
30
0.0
70
1
0
VERTEX
8
Halfen
62
7
10
 131
20
-775
30
0
0
VERTEX
8
Halfen
62
7
10
 131
20
-160
30
0
0
VERTEX
8
Halfen
62
7
10
 119
20
-160
30
0
0
VERTEX
8
Halfen
62
7
10
 119
20
-775
30
0
0
SEQEND
8
Halfen
0
POLYLINE
8
Halfen
62
7
66
1
10
0.0
20
0.0
30
0.0
70
1
0
VERTEX
8
Halfen
62
7
10
 130.25
20
-160
30
0
0
VERTEX
8
Halfen
62
7
10
 130.25
20
-62
30
0
0
VERTEX
8
Halfen
62
7
10
 119.75
20
-62
30
0
0
VERTEX
8
Halfen
62
7
10
 119.75
20
-160
30
0
0
SEQEND
8
Halfen
0
POLYLINE
8
Halfen
62
7
66
1
10
0.0
20
0.0
30
0.0
70
1
0
VERTEX
8
Halfen
62
7
10
 131
20
-62
30
0
0
VERTEX
8
Halfen
62
7
10
 131
20
-60
30
0
0
VERTEX
8
Halfen
62
7
10
 119
20
-60
30
0
0
VERTEX
8
Halfen
62
7
10
 119
20
-62
30
0
0
SEQEND
8
Halfen
0
POLYLINE
8
Halfen
62
7
66
1
10
0.0
20
0.0
30
0.0
70
1
0
VERTEX
8
Halfen
62
7
10
 130.25
20
-60
30
0
0
VERTEX
8
Halfen
62
7
10
 130.25
20
 60
30
0
0
VERTEX
8
Halfen
62
7
10
 119.75
20
 60
30
0
0
VERTEX
8
Halfen
62
7
10
 119.75
20
-60
30
0
0
SEQEND
8
Halfen
0
POLYLINE
8
Halfen
62
7
66
1
10
0.0
20
0.0
30
0.0
70
1
0
VERTEX
8
Halfen
62
7
10
 131
20
 60
30
0
0
VERTEX
8
Halfen
62
7
10
 131
20
 62
30
0
0
VERTEX
8
Halfen
62
7
10
 119
20
 62
30
0
0
VERTEX
8
Halfen
62
7
10
 119
20
 60
30
0
0
SEQEND
8
Halfen
0
POLYLINE
8
Halfen
62
7
66
1
10
0.0
20
0.0
30
0.0
70
1
0
VERTEX
8
Halfen
62
7
10
 130.25
20
 62
30
0
0
VERTEX
8
Halfen
62
7
10
 130.25
20
 160
30
0
0
VERTEX
8
Halfen
62
7
10
 119.75
20
 160
30
0
0
VERTEX
8
Halfen
62
7
10
 119.75
20
 62
30
0
0
SEQEND
8
Halfen
0
POLYLINE
8
Halfen
62
7
66
1
10
0.0
20
0.0
30
0.0
70
1
0
VERTEX
8
Halfen
62
7
10
 131
20
 160
30
0
0
VERTEX
8
Halfen
62
7
10
 131
20
 775
30
0
0
VERTEX
8
Halfen
62
7
10
 119
20
 775
30
0
0
VERTEX
8
Halfen
62
7
10
 119
20
 160
30
0
0
SEQEND
8
Halfen
0
POLYLINE
8
Halfen
62
7
66
1
10
0.0
20
0.0
30
0.0
70
1
0
VERTEX
8
Halfen
62
7
10
 381
20
-775
30
0
0
VERTEX
8
Halfen
62
7
10
 381
20
-160
30
0
0
VERTEX
8
Halfen
62
7
10
 369
20
-160
30
0
0
VERTEX
8
Halfen
62
7
10
 369
20
-775
30
0
0
SEQEND
8
Halfen
0
POLYLINE
8
Halfen
62
7
66
1
10
0.0
20
0.0
30
0.0
70
1
0
VERTEX
8
Halfen
62
7
10
 380.25
20
-160
30
0
0
VERTEX
8
Halfen
62
7
10
 380.25
20
-62
30
0
0
VERTEX
8
Halfen
62
7
10
 369.75
20
-62
30
0
0
VERTEX
8
Halfen
62
7
10
 369.75
20
-160
30
0
0
SEQEND
8
Halfen
0
POLYLINE
8
Halfen
62
7
66
1
10
0.0
20
0.0
30
0.0
70
1
0
VERTEX
8
Halfen
62
7
10
 381
20
-62
30
0
0
VERTEX
8
Halfen
62
7
10
 381
20
-60
30
0
0
VERTEX
8
Halfen
62
7
10
 369
20
-60
30
0
0
VERTEX
8
Halfen
62
7
10
 369
20
-62
30
0
0
SEQEND
8
Halfen
0
POLYLINE
8
Halfen
62
7
66
1
10
0.0
20
0.0
30
0.0
70
1
0
VERTEX
8
Halfen
62
7
10
 380.25
20
-60
30
0
0
VERTEX
8
Halfen
62
7
10
 380.25
20
 60
30
0
0
VERTEX
8
Halfen
62
7
10
 369.75
20
 60
30
0
0
VERTEX
8
Halfen
62
7
10
 369.75
20
-60
30
0
0
SEQEND
8
Halfen
0
POLYLINE
8
Halfen
62
7
66
1
10
0.0
20
0.0
30
0.0
70
1
0
VERTEX
8
Halfen
62
7
10
 381
20
 60
30
0
0
VERTEX
8
Halfen
62
7
10
 381
20
 62
30
0
0
VERTEX
8
Halfen
62
7
10
 369
20
 62
30
0
0
VERTEX
8
Halfen
62
7
10
 369
20
 60
30
0
0
SEQEND
8
Halfen
0
POLYLINE
8
Halfen
62
7
66
1
10
0.0
20
0.0
30
0.0
70
1
0
VERTEX
8
Halfen
62
7
10
 380.25
20
 62
30
0
0
VERTEX
8
Halfen
62
7
10
 380.25
20
 160
30
0
0
VERTEX
8
Halfen
62
7
10
 369.75
20
 160
30
0
0
VERTEX
8
Halfen
62
7
10
 369.75
20
 62
30
0
0
SEQEND
8
Halfen
0
POLYLINE
8
Halfen
62
7
66
1
10
0.0
20
0.0
30
0.0
70
1
0
VERTEX
8
Halfen
62
7
10
 381
20
 160
30
0
0
VERTEX
8
Halfen
62
7
10
 381
20
 775
30
0
0
VERTEX
8
Halfen
62
7
10
 369
20
 775
30
0
0
VERTEX
8
Halfen
62
7
10
 369
20
 160
30
0
0
SEQEND
8
Halfen
0
POLYLINE
8
Halfen
62
7
66
1
10
0.0
20
0.0
30
0.0
70
1
0
VERTEX
8
Halfen
62
7
10
 631
20
-775
30
0
0
VERTEX
8
Halfen
62
7
10
 631
20
-160
30
0
0
VERTEX
8
Halfen
62
7
10
 619
20
-160
30
0
0
VERTEX
8
Halfen
62
7
10
 619
20
-775
30
0
0
SEQEND
8
Halfen
0
POLYLINE
8
Halfen
62
7
66
1
10
0.0
20
0.0
30
0.0
70
1
0
VERTEX
8
Halfen
62
7
10
 630.25
20
-160
30
0
0
VERTEX
8
Halfen
62
7
10
 630.25
20
-62
30
0
0
VERTEX
8
Halfen
62
7
10
 619.75
20
-62
30
0
0
VERTEX
8
Halfen
62
7
10
 619.75
20
-160
30
0
0
SEQEND
8
Halfen
0
POLYLINE
8
Halfen
62
7
66
1
10
0.0
20
0.0
30
0.0
70
1
0
VERTEX
8
Halfen
62
7
10
 631
20
-62
30
0
0
VERTEX
8
Halfen
62
7
10
 631
20
-60
30
0
0
VERTEX
8
Halfen
62
7
10
 619
20
-60
30
0
0
VERTEX
8
Halfen
62
7
10
 619
20
-62
30
0
0
SEQEND
8
Halfen
0
POLYLINE
8
Halfen
62
7
66
1
10
0.0
20
0.0
30
0.0
70
1
0
VERTEX
8
Halfen
62
7
10
 630.25
20
-60
30
0
0
VERTEX
8
Halfen
62
7
10
 630.25
20
 60
30
0
0
VERTEX
8
Halfen
62
7
10
 619.75
20
 60
30
0
0
VERTEX
8
Halfen
62
7
10
 619.75
20
-60
30
0
0
SEQEND
8
Halfen
0
POLYLINE
8
Halfen
62
7
66
1
10
0.0
20
0.0
30
0.0
70
1
0
VERTEX
8
Halfen
62
7
10
 631
20
 60
30
0
0
VERTEX
8
Halfen
62
7
10
 631
20
 62
30
0
0
VERTEX
8
Halfen
62
7
10
 619
20
 62
30
0
0
VERTEX
8
Halfen
62
7
10
 619
20
 60
30
0
0
SEQEND
8
Halfen
0
POLYLINE
8
Halfen
62
7
66
1
10
0.0
20
0.0
30
0.0
70
1
0
VERTEX
8
Halfen
62
7
10
 630.25
20
 62
30
0
0
VERTEX
8
Halfen
62
7
10
 630.25
20
 160
30
0
0
VERTEX
8
Halfen
62
7
10
 619.75
20
 160
30
0
0
VERTEX
8
Halfen
62
7
10
 619.75
20
 62
30
0
0
SEQEND
8
Halfen
0
POLYLINE
8
Halfen
62
7
66
1
10
0.0
20
0.0
30
0.0
70
1
0
VERTEX
8
Halfen
62
7
10
 631
20
 160
30
0
0
VERTEX
8
Halfen
62
7
10
 631
20
 775
30
0
0
VERTEX
8
Halfen
62
7
10
 619
20
 775
30
0
0
VERTEX
8
Halfen
62
7
10
 619
20
 160
30
0
0
SEQEND
8
Halfen
0
POLYLINE
8
Halfen
62
7
66
1
10
0.0
20
0.0
30
0.0
70
1
0
VERTEX
8
Halfen
62
7
10
 881
20
-775
30
0
0
VERTEX
8
Halfen
62
7
10
 881
20
-160
30
0
0
VERTEX
8
Halfen
62
7
10
 869
20
-160
30
0
0
VERTEX
8
Halfen
62
7
10
 869
20
-775
30
0
0
SEQEND
8
Halfen
0
POLYLINE
8
Halfen
62
7
66
1
10
0.0
20
0.0
30
0.0
70
1
0
VERTEX
8
Halfen
62
7
10
 880.25
20
-160
30
0
0
VERTEX
8
Halfen
62
7
10
 880.25
20
-62
30
0
0
VERTEX
8
Halfen
62
7
10
 869.75
20
-62
30
0
0
VERTEX
8
Halfen
62
7
10
 869.75
20
-160
30
0
0
SEQEND
8
Halfen
0
POLYLINE
8
Halfen
62
7
66
1
10
0.0
20
0.0
30
0.0
70
1
0
VERTEX
8
Halfen
62
7
10
 881
20
-62
30
0
0
VERTEX
8
Halfen
62
7
10
 881
20
-60
30
0
0
VERTEX
8
Halfen
62
7
10
 869
20
-60
30
0
0
VERTEX
8
Halfen
62
7
10
 869
20
-62
30
0
0
SEQEND
8
Halfen
0
POLYLINE
8
Halfen
62
7
66
1
10
0.0
20
0.0
30
0.0
70
1
0
VERTEX
8
Halfen
62
7
10
 880.25
20
-60
30
0
0
VERTEX
8
Halfen
62
7
10
 880.25
20
 60
30
0
0
VERTEX
8
Halfen
62
7
10
 869.75
20
 60
30
0
0
VERTEX
8
Halfen
62
7
10
 869.75
20
-60
30
0
0
SEQEND
8
Halfen
0
POLYLINE
8
Halfen
62
7
66
1
10
0.0
20
0.0
30
0.0
70
1
0
VERTEX
8
Halfen
62
7
10
 881
20
 60
30
0
0
VERTEX
8
Halfen
62
7
10
 881
20
 62
30
0
0
VERTEX
8
Halfen
62
7
10
 869
20
 62
30
0
0
VERTEX
8
Halfen
62
7
10
 869
20
 60
30
0
0
SEQEND
8
Halfen
0
POLYLINE
8
Halfen
62
7
66
1
10
0.0
20
0.0
30
0.0
70
1
0
VERTEX
8
Halfen
62
7
10
 880.25
20
 62
30
0
0
VERTEX
8
Halfen
62
7
10
 880.25
20
 160
30
0
0
VERTEX
8
Halfen
62
7
10
 869.75
20
 160
30
0
0
VERTEX
8
Halfen
62
7
10
 869.75
20
 62
30
0
0
SEQEND
8
Halfen
0
POLYLINE
8
Halfen
62
7
66
1
10
0.0
20
0.0
30
0.0
70
1
0
VERTEX
8
Halfen
62
7
10
 881
20
 160
30
0
0
VERTEX
8
Halfen
62
7
10
 881
20
 775
30
0
0
VERTEX
8
Halfen
62
7
10
 869
20
 775
30
0
0
VERTEX
8
Halfen
62
7
10
 869
20
 160
30
0
0
SEQEND
8
Halfen
0
POLYLINE
8
Halfen
62
7
66
1
10
0.0
20
0.0
30
0.0
70
1
0
VERTEX
8
Halfen
62
7
10
 1540
20
-60
30
0
0
VERTEX
8
Halfen
62
7
10
 1540
20
 60
30
0
0
VERTEX
8
Halfen
62
7
10
 1526.5
20
 73.5
30
0
0
VERTEX
8
Halfen
62
7
10
 1526.5
20
 60
30
0
0
VERTEX
8
Halfen
62
7
10
 1270
20
 60
30
0
0
VERTEX
8
Halfen
62
7
10
 1270
20
-60
30
0
0
VERTEX
8
Halfen
62
7
10
 1526.5
20
-60
30
0
0
VERTEX
8
Halfen
62
7
10
 1526.5
20
-73.5
30
0
0
SEQEND
8
Halfen
0
POLYLINE
8
Halfen
62
7
66
1
10
0.0
20
0.0
30
0.0
70
1
0
VERTEX
8
Halfen
62
7
10
 1270
20
-60
30
0
0
VERTEX
8
Halfen
62
7
10
 1270
20
 60
30
0
0
VERTEX
8
Halfen
62
7
10
 1213.5
20
 60
30
0
0
VERTEX
8
Halfen
62
7
10
 1213.5
20
 73.5
30
0
0
VERTEX
8
Halfen
62
7
10
 1200
20
 60
30
0
0
VERTEX
8
Halfen
62
7
10
 1200
20
-60
30
0
0
VERTEX
8
Halfen
62
7
10
 1213.5
20
-73.5
30
0
0
VERTEX
8
Halfen
62
7
10
 1213.5
20
-60
30
0
0
SEQEND
8
Halfen
0
POLYLINE
8
Halfen
62
7
66
1
10
0.0
20
0.0
30
0.0
70
1
0
VERTEX
8
Halfen
62
7
10
 1537.5
20
-58.75
30
0
0
VERTEX
8
Halfen
62
7
10
 1537.5
20
 58.75
30
0
0
VERTEX
8
Halfen
62
7
10
 1529
20
 67.25
30
0
0
VERTEX
8
Halfen
62
7
10
 1529
20
 58
30
0
0
VERTEX
8
Halfen
62
7
10
 1272
20
 58
30
0
0
VERTEX
8
Halfen
62
7
10
 1272
20
-58
30
0
0
VERTEX
8
Halfen
62
7
10
 1529
20
-58
30
0
0
VERTEX
8
Halfen
62
7
10
 1529
20
-67.25
30
0
0
SEQEND
8
Halfen
0
POLYLINE
8
Halfen
62
7
66
1
10
0.0
20
0.0
30
0.0
70
1
0
VERTEX
8
Halfen
62
7
10
 1268
20
-58
30
0
0
VERTEX
8
Halfen
62
7
10
 1268
20
 58
30
0
0
VERTEX
8
Halfen
62
7
10
 1211
20
 58
30
0
0
VERTEX
8
Halfen
62
7
10
 1211
20
 67.25
30
0
0
VERTEX
8
Halfen
62
7
10
 1202.5
20
 58.75
30
0
0
VERTEX
8
Halfen
62
7
10
 1202.5
20
-58.75
30
0
0
VERTEX
8
Halfen
62
7
10
 1211
20
-67.25
30
0
0
VERTEX
8
Halfen
62
7
10
 1211
20
-58
30
0
0
SEQEND
8
Halfen
0
POLYLINE
8
Halfen
62
7
66
1
10
0.0
20
0.0
30
0.0
70
1
0
VERTEX
8
Halfen
62
7
10
 1525
20
-81.8
30
0
0
VERTEX
8
Halfen
62
7
10
 1525
20
 81.8
30
0
0
VERTEX
8
Halfen
62
7
10
 1521
20
 81.8
30
0
0
VERTEX
8
Halfen
62
7
10
 1520.846
20
 81.797
30
0
0
VERTEX
8
Halfen
62
7
10
 1520.691
20
 81.786
30
0
0
VERTEX
8
Halfen
62
7
10
 1520.538
20
 81.769
30
0
0
VERTEX
8
Halfen
62
7
10
 1520.385
20
 81.746
30
0
0
VERTEX
8
Halfen
62
7
10
 1520.234
20
 81.715
30
0
0
VERTEX
8
Halfen
62
7
10
 1520.084
20
 81.678
30
0
0
VERTEX
8
Halfen
62
7
10
 1519.936
20
 81.634
30
0
0
VERTEX
8
Halfen
62
7
10
 1519.789
20
 81.584
30
0
0
VERTEX
8
Halfen
62
7
10
 1519.646
20
 81.527
30
0
0
VERTEX
8
Halfen
62
7
10
 1519.505
20
 81.464
30
0
0
VERTEX
8
Halfen
62
7
10
 1519.366
20
 81.395
30
0
0
VERTEX
8
Halfen
62
7
10
 1519.231
20
 81.32
30
0
0
VERTEX
8
Halfen
62
7
10
 1519.1
20
 81.239
30
0
0
VERTEX
8
Halfen
62
7
10
 1518.972
20
 81.153
30
0
0
VERTEX
8
Halfen
62
7
10
 1518.848
20
 81.06
30
0
0
VERTEX
8
Halfen
62
7
10
 1518.728
20
 80.963
30
0
0
VERTEX
8
Halfen
62
7
10
 1518.613
20
 80.86
30
0
0
VERTEX
8
Halfen
62
7
10
 1518.502
20
 80.752
30
0
0
VERTEX
8
Halfen
62
7
10
 1518.397
20
 80.639
30
0
0
VERTEX
8
Halfen
62
7
10
 1518.296
20
 80.522
30
0
0
VERTEX
8
Halfen
62
7
10
 1517.41
20
 79.491
30
0
0
VERTEX
8
Halfen
62
7
10
 1516.479
20
 78.5
30
0
0
VERTEX
8
Halfen
62
7
10
 1515.505
20
 77.551
30
0
0
VERTEX
8
Halfen
62
7
10
 1514.491
20
 76.646
30
0
0
VERTEX
8
Halfen
62
7
10
 1513.437
20
 75.787
30
0
0
VERTEX
8
Halfen
62
7
10
 1512.347
20
 74.975
30
0
0
VERTEX
8
Halfen
62
7
10
 1511.222
20
 74.211
30
0
0
VERTEX
8
Halfen
62
7
10
 1510.064
20
 73.499
30
0
0
VERTEX
8
Halfen
62
7
10
 1508.876
20
 72.838
30
0
0
VERTEX
8
Halfen
62
7
10
 1507.66
20
 72.23
30
0
0
VERTEX
8
Halfen
62
7
10
 1506.418
20
 71.676
30
0
0
VERTEX
8
Halfen
62
7
10
 1505.153
20
 71.178
30
0
0
VERTEX
8
Halfen
62
7
10
 1503.867
20
 70.736
30
0
0
VERTEX
8
Halfen
62
7
10
 1502.563
20
 70.351
30
0
0
VERTEX
8
Halfen
62
7
10
 1501.243
20
 70.024
30
0
0
VERTEX
8
Halfen
62
7
10
 1499.911
20
 69.756
30
0
0
VERTEX
8
Halfen
62
7
10
 1498.567
20
 69.547
30
0
0
VERTEX
8
Halfen
62
7
10
 1497.216
20
 69.397
30
0
0
VERTEX
8
Halfen
62
7
10
 1495.859
20
 69.307
30
0
0
VERTEX
8
Halfen
62
7
10
 1494.5
20
 69.277
30
0
0
VERTEX
8
Halfen
62
7
10
 1472.5
20
 69.277
30
0
0
VERTEX
8
Halfen
62
7
10
 1471.141
20
 69.307
30
0
0
VERTEX
8
Halfen
62
7
10
 1469.784
20
 69.397
30
0
0
VERTEX
8
Halfen
62
7
10
 1468.433
20
 69.547
30
0
0
VERTEX
8
Halfen
62
7
10
 1467.089
20
 69.756
30
0
0
VERTEX
8
Halfen
62
7
10
 1465.757
20
 70.024
30
0
0
VERTEX
8
Halfen
62
7
10
 1464.437
20
 70.351
30
0
0
VERTEX
8
Halfen
62
7
10
 1463.133
20
 70.736
30
0
0
VERTEX
8
Halfen
62
7
10
 1461.847
20
 71.178
30
0
0
VERTEX
8
Halfen
62
7
10
 1460.582
20
 71.676
30
0
0
VERTEX
8
Halfen
62
7
10
 1459.34
20
 72.23
30
0
0
VERTEX
8
Halfen
62
7
10
 1458.124
20
 72.838
30
0
0
VERTEX
8
Halfen
62
7
10
 1456.936
20
 73.499
30
0
0
VERTEX
8
Halfen
62
7
10
 1455.778
20
 74.211
30
0
0
VERTEX
8
Halfen
62
7
10
 1454.653
20
 74.975
30
0
0
VERTEX
8
Halfen
62
7
10
 1453.563
20
 75.787
30
0
0
VERTEX
8
Halfen
62
7
10
 1452.509
20
 76.646
30
0
0
VERTEX
8
Halfen
62
7
10
 1451.495
20
 77.551
30
0
0
VERTEX
8
Halfen
62
7
10
 1450.521
20
 78.5
30
0
0
VERTEX
8
Halfen
62
7
10
 1449.59
20
 79.491
30
0
0
VERTEX
8
Halfen
62
7
10
 1448.704
20
 80.522
30
0
0
VERTEX
8
Halfen
62
7
10
 1448.603
20
 80.639
30
0
0
VERTEX
8
Halfen
62
7
10
 1448.498
20
 80.752
30
0
0
VERTEX
8
Halfen
62
7
10
 1448.387
20
 80.86
30
0
0
VERTEX
8
Halfen
62
7
10
 1448.272
20
 80.963
30
0
0
VERTEX
8
Halfen
62
7
10
 1448.152
20
 81.06
30
0
0
VERTEX
8
Halfen
62
7
10
 1448.028
20
 81.153
30
0
0
VERTEX
8
Halfen
62
7
10
 1447.9
20
 81.239
30
0
0
VERTEX
8
Halfen
62
7
10
 1447.769
20
 81.32
30
0
0
VERTEX
8
Halfen
62
7
10
 1447.634
20
 81.395
30
0
0
VERTEX
8
Halfen
62
7
10
 1447.495
20
 81.464
30
0
0
VERTEX
8
Halfen
62
7
10
 1447.354
20
 81.527
30
0
0
VERTEX
8
Halfen
62
7
10
 1447.211
20
 81.584
30
0
0
VERTEX
8
Halfen
62
7
10
 1447.064
20
 81.634
30
0
0
VERTEX
8
Halfen
62
7
10
 1446.916
20
 81.678
30
0
0
VERTEX
8
Halfen
62
7
10
 1446.766
20
 81.715
30
0
0
VERTEX
8
Halfen
62
7
10
 1446.615
20
 81.746
30
0
0
VERTEX
8
Halfen
62
7
10
 1446.462
20
 81.769
30
0
0
VERTEX
8
Halfen
62
7
10
 1446.309
20
 81.786
30
0
0
VERTEX
8
Halfen
62
7
10
 1446.154
20
 81.797
30
0
0
VERTEX
8
Halfen
62
7
10
 1446
20
 81.8
30
0
0
VERTEX
8
Halfen
62
7
10
 1442
20
 81.8
30
0
0
VERTEX
8
Halfen
62
7
10
 1442
20
-81.8
30
0
0
VERTEX
8
Halfen
62
7
10
 1446
20
-81.8
30
0
0
VERTEX
8
Halfen
62
7
10
 1446.154
20
-81.797
30
0
0
VERTEX
8
Halfen
62
7
10
 1446.309
20
-81.786
30
0
0
VERTEX
8
Halfen
62
7
10
 1446.462
20
-81.769
30
0
0
VERTEX
8
Halfen
62
7
10
 1446.615
20
-81.746
30
0
0
VERTEX
8
Halfen
62
7
10
 1446.766
20
-81.715
30
0
0
VERTEX
8
Halfen
62
7
10
 1446.916
20
-81.678
30
0
0
VERTEX
8
Halfen
62
7
10
 1447.064
20
-81.634
30
0
0
VERTEX
8
Halfen
62
7
10
 1447.211
20
-81.584
30
0
0
VERTEX
8
Halfen
62
7
10
 1447.354
20
-81.527
30
0
0
VERTEX
8
Halfen
62
7
10
 1447.495
20
-81.464
30
0
0
VERTEX
8
Halfen
62
7
10
 1447.634
20
-81.395
30
0
0
VERTEX
8
Halfen
62
7
10
 1447.769
20
-81.32
30
0
0
VERTEX
8
Halfen
62
7
10
 1447.9
20
-81.239
30
0
0
VERTEX
8
Halfen
62
7
10
 1448.028
20
-81.153
30
0
0
VERTEX
8
Halfen
62
7
10
 1448.152
20
-81.06
30
0
0
VERTEX
8
Halfen
62
7
10
 1448.272
20
-80.963
30
0
0
VERTEX
8
Halfen
62
7
10
 1448.387
20
-80.86
30
0
0
VERTEX
8
Halfen
62
7
10
 1448.498
20
-80.752
30
0
0
VERTEX
8
Halfen
62
7
10
 1448.603
20
-80.639
30
0
0
VERTEX
8
Halfen
62
7
10
 1448.704
20
-80.522
30
0
0
VERTEX
8
Halfen
62
7
10
 1449.59
20
-79.491
30
0
0
VERTEX
8
Halfen
62
7
10
 1450.521
20
-78.5
30
0
0
VERTEX
8
Halfen
62
7
10
 1451.495
20
-77.551
30
0
0
VERTEX
8
Halfen
62
7
10
 1452.509
20
-76.646
30
0
0
VERTEX
8
Halfen
62
7
10
 1453.563
20
-75.787
30
0
0
VERTEX
8
Halfen
62
7
10
 1454.653
20
-74.975
30
0
0
VERTEX
8
Halfen
62
7
10
 1455.778
20
-74.211
30
0
0
VERTEX
8
Halfen
62
7
10
 1456.936
20
-73.499
30
0
0
VERTEX
8
Halfen
62
7
10
 1458.124
20
-72.838
30
0
0
VERTEX
8
Halfen
62
7
10
 1459.34
20
-72.23
30
0
0
VERTEX
8
Halfen
62
7
10
 1460.582
20
-71.676
30
0
0
VERTEX
8
Halfen
62
7
10
 1461.847
20
-71.178
30
0
0
VERTEX
8
Halfen
62
7
10
 1463.133
20
-70.736
30
0
0
VERTEX
8
Halfen
62
7
10
 1464.437
20
-70.351
30
0
0
VERTEX
8
Halfen
62
7
10
 1465.757
20
-70.024
30
0
0
VERTEX
8
Halfen
62
7
10
 1467.089
20
-69.756
30
0
0
VERTEX
8
Halfen
62
7
10
 1468.433
20
-69.547
30
0
0
VERTEX
8
Halfen
62
7
10
 1469.784
20
-69.397
30
0
0
VERTEX
8
Halfen
62
7
10
 1471.141
20
-69.307
30
0
0
VERTEX
8
Halfen
62
7
10
 1472.5
20
-69.277
30
0
0
VERTEX
8
Halfen
62
7
10
 1494.5
20
-69.277
30
0
0
VERTEX
8
Halfen
62
7
10
 1495.859
20
-69.307
30
0
0
VERTEX
8
Halfen
62
7
10
 1497.216
20
-69.397
30
0
0
VERTEX
8
Halfen
62
7
10
 1498.567
20
-69.547
30
0
0
VERTEX
8
Halfen
62
7
10
 1499.911
20
-69.756
30
0
0
VERTEX
8
Halfen
62
7
10
 1501.243
20
-70.024
30
0
0
VERTEX
8
Halfen
62
7
10
 1502.563
20
-70.351
30
0
0
VERTEX
8
Halfen
62
7
10
 1503.867
20
-70.736
30
0
0
VERTEX
8
Halfen
62
7
10
 1505.153
20
-71.178
30
0
0
VERTEX
8
Halfen
62
7
10
 1506.418
20
-71.676
30
0
0
VERTEX
8
Halfen
62
7
10
 1507.66
20
-72.23
30
0
0
VERTEX
8
Halfen
62
7
10
 1508.876
20
-72.838
30
0
0
VERTEX
8
Halfen
62
7
10
 1510.064
20
-73.499
30
0
0
VERTEX
8
Halfen
62
7
10
 1511.222
20
-74.211
30
0
0
VERTEX
8
Halfen
62
7
10
 1512.347
20
-74.975
30
0
0
VERTEX
8
Halfen
62
7
10
 1513.437
20
-75.787
30
0
0
VERTEX
8
Halfen
62
7
10
 1514.491
20
-76.646
30
0
0
VERTEX
8
Halfen
62
7
10
 1515.505
20
-77.551
30
0
0
VERTEX
8
Halfen
62
7
10
 1516.479
20
-78.5
30
0
0
VERTEX
8
Halfen
62
7
10
 1517.41
20
-79.491
30
0
0
VERTEX
8
Halfen
62
7
10
 1518.296
20
-80.522
30
0
0
VERTEX
8
Halfen
62
7
10
 1518.397
20
-80.639
30
0
0
VERTEX
8
Halfen
62
7
10
 1518.502
20
-80.752
30
0
0
VERTEX
8
Halfen
62
7
10
 1518.613
20
-80.86
30
0
0
VERTEX
8
Halfen
62
7
10
 1518.728
20
-80.963
30
0
0
VERTEX
8
Halfen
62
7
10
 1518.848
20
-81.06
30
0
0
VERTEX
8
Halfen
62
7
10
 1518.972
20
-81.153
30
0
0
VERTEX
8
Halfen
62
7
10
 1519.1
20
-81.239
30
0
0
VERTEX
8
Halfen
62
7
10
 1519.231
20
-81.32
30
0
0
VERTEX
8
Halfen
62
7
10
 1519.366
20
-81.395
30
0
0
VERTEX
8
Halfen
62
7
10
 1519.505
20
-81.464
30
0
0
VERTEX
8
Halfen
62
7
10
 1519.646
20
-81.527
30
0
0
VERTEX
8
Halfen
62
7
10
 1519.789
20
-81.584
30
0
0
VERTEX
8
Halfen
62
7
10
 1519.936
20
-81.634
30
0
0
VERTEX
8
Halfen
62
7
10
 1520.084
20
-81.678
30
0
0
VERTEX
8
Halfen
62
7
10
 1520.234
20
-81.715
30
0
0
VERTEX
8
Halfen
62
7
10
 1520.385
20
-81.746
30
0
0
VERTEX
8
Halfen
62
7
10
 1520.538
20
-81.769
30
0
0
VERTEX
8
Halfen
62
7
10
 1520.691
20
-81.786
30
0
0
VERTEX
8
Halfen
62
7
10
 1520.846
20
-81.797
30
0
0
VERTEX
8
Halfen
62
7
10
 1521
20
-81.8
30
0
0
SEQEND
8
Halfen
0
POLYLINE
8
Halfen
62
7
66
1
10
0.0
20
0.0
30
0.0
70
1
0
VERTEX
8
Halfen
62
7
10
 1262
20
-775
30
0
0
VERTEX
8
Halfen
62
7
10
 1262
20
-160
30
0
0
VERTEX
8
Halfen
62
7
10
 1250
20
-160
30
0
0
VERTEX
8
Halfen
62
7
10
 1250
20
-775
30
0
0
SEQEND
8
Halfen
0
POLYLINE
8
Halfen
62
7
66
1
10
0.0
20
0.0
30
0.0
70
1
0
VERTEX
8
Halfen
62
7
10
 1261.25
20
-160
30
0
0
VERTEX
8
Halfen
62
7
10
 1261.25
20
-62
30
0
0
VERTEX
8
Halfen
62
7
10
 1250.75
20
-62
30
0
0
VERTEX
8
Halfen
62
7
10
 1250.75
20
-160
30
0
0
SEQEND
8
Halfen
0
POLYLINE
8
Halfen
62
7
66
1
10
0.0
20
0.0
30
0.0
70
1
0
VERTEX
8
Halfen
62
7
10
 1262
20
-62
30
0
0
VERTEX
8
Halfen
62
7
10
 1262
20
-60
30
0
0
VERTEX
8
Halfen
62
7
10
 1250
20
-60
30
0
0
VERTEX
8
Halfen
62
7
10
 1250
20
-62
30
0
0
SEQEND
8
Halfen
0
POLYLINE
8
Halfen
62
7
66
1
10
0.0
20
0.0
30
0.0
70
1
0
VERTEX
8
Halfen
62
7
10
 1261.25
20
-60
30
0
0
VERTEX
8
Halfen
62
7
10
 1261.25
20
 60
30
0
0
VERTEX
8
Halfen
62
7
10
 1250.75
20
 60
30
0
0
VERTEX
8
Halfen
62
7
10
 1250.75
20
-60
30
0
0
SEQEND
8
Halfen
0
POLYLINE
8
Halfen
62
7
66
1
10
0.0
20
0.0
30
0.0
70
1
0
VERTEX
8
Halfen
62
7
10
 1262
20
 60
30
0
0
VERTEX
8
Halfen
62
7
10
 1262
20
 62
30
0
0
VERTEX
8
Halfen
62
7
10
 1250
20
 62
30
0
0
VERTEX
8
Halfen
62
7
10
 1250
20
 60
30
0
0
SEQEND
8
Halfen
0
POLYLINE
8
Halfen
62
7
66
1
10
0.0
20
0.0
30
0.0
70
1
0
VERTEX
8
Halfen
62
7
10
 1261.25
20
 62
30
0
0
VERTEX
8
Halfen
62
7
10
 1261.25
20
 160
30
0
0
VERTEX
8
Halfen
62
7
10
 1250.75
20
 160
30
0
0
VERTEX
8
Halfen
62
7
10
 1250.75
20
 62
30
0
0
SEQEND
8
Halfen
0
POLYLINE
8
Halfen
62
7
66
1
10
0.0
20
0.0
30
0.0
70
1
0
VERTEX
8
Halfen
62
7
10
 1262
20
 160
30
0
0
VERTEX
8
Halfen
62
7
10
 1262
20
 775
30
0
0
VERTEX
8
Halfen
62
7
10
 1250
20
 775
30
0
0
VERTEX
8
Halfen
62
7
10
 1250
20
 160
30
0
0
SEQEND
8
Halfen
0
ENDSEC
0
EOF
