0
SECTION
2
HEADER
9
$EXTMIN
10
 0
20
 100
30
0.0
9
$EXTMAX
10
 0
20
 100
30
0.0
9
$LIMMIN
10
 100
20
 0
9
$LIMMAX
10
 0
20
 100
9
$PSLTSCALE
70
1
0
ENDSEC
0
SECTION
2
TABLES
0
TABLE
2
LAYER
70
2
0
LAYER
2
0
70
0
62
7
6
CONTINUOUS
0
LAYER
2
Halfen
70
0
62
7
6
CONTINUOUS
0
ENDTAB
0
ENDSEC
0
SECTION
2
ENTITIES
0
POLYLINE
8
Halfen
62
7
66
1
10
0.0
20
0.0
30
0.0
70
1
0
VERTEX
8
Halfen
62
7
10
 0
20
-73.5
30
0
0
VERTEX
8
Halfen
62
7
10
 250
20
-73.5
30
0
0
VERTEX
8
Halfen
62
7
10
 250
20
 73.5
30
0
0
VERTEX
8
Halfen
62
7
10
 0
20
 73.5
30
0
0
SEQEND
8
Halfen
0
POLYLINE
8
Halfen
62
7
66
1
10
0.0
20
0.0
30
0.0
70
1
0
VERTEX
8
Halfen
62
7
10
 0
20
-60
30
0
0
VERTEX
8
Halfen
62
7
10
 250
20
-60
30
0
0
VERTEX
8
Halfen
62
7
10
 250
20
 60
30
0
0
VERTEX
8
Halfen
62
7
10
 0
20
 60
30
0
0
SEQEND
8
Halfen
0
POLYLINE
8
Halfen
62
7
66
1
10
0.0
20
0.0
30
0.0
70
1
0
VERTEX
8
Halfen
62
7
10
 20
20
-32.5
30
0
0
VERTEX
8
Halfen
62
7
10
 37
20
-1.5
30
0
0
VERTEX
8
Halfen
62
7
10
 28
20
-1.5
30
0
0
VERTEX
8
Halfen
62
7
10
 28
20
 32.5
30
0
0
VERTEX
8
Halfen
62
7
10
 12
20
 32.5
30
0
0
VERTEX
8
Halfen
62
7
10
 12
20
-1.5
30
0
0
VERTEX
8
Halfen
62
7
10
 3
20
-1.5
30
0
0
SEQEND
8
Halfen
0
POLYLINE
8
Halfen
62
7
66
1
10
0.0
20
0.0
30
0.0
70
1
0
VERTEX
8
Halfen
62
7
10
 230
20
-32.5
30
0
0
VERTEX
8
Halfen
62
7
10
 247
20
-1.5
30
0
0
VERTEX
8
Halfen
62
7
10
 238
20
-1.5
30
0
0
VERTEX
8
Halfen
62
7
10
 238
20
 32.5
30
0
0
VERTEX
8
Halfen
62
7
10
 222
20
 32.5
30
0
0
VERTEX
8
Halfen
62
7
10
 222
20
-1.5
30
0
0
VERTEX
8
Halfen
62
7
10
 213
20
-1.5
30
0
0
SEQEND
8
Halfen
0
POLYLINE
8
Halfen
62
7
66
1
10
0.0
20
0.0
30
0.0
70
1
0
VERTEX
8
Halfen
62
7
10
 152
20
-775
30
0
0
VERTEX
8
Halfen
62
7
10
 152
20
-160
30
0
0
VERTEX
8
Halfen
62
7
10
 140
20
-160
30
0
0
VERTEX
8
Halfen
62
7
10
 140
20
-775
30
0
0
SEQEND
8
Halfen
0
POLYLINE
8
Halfen
62
7
66
1
10
0.0
20
0.0
30
0.0
70
1
0
VERTEX
8
Halfen
62
7
10
 151.25
20
-160
30
0
0
VERTEX
8
Halfen
62
7
10
 151.25
20
-62
30
0
0
VERTEX
8
Halfen
62
7
10
 140.75
20
-62
30
0
0
VERTEX
8
Halfen
62
7
10
 140.75
20
-160
30
0
0
SEQEND
8
Halfen
0
POLYLINE
8
Halfen
62
7
66
1
10
0.0
20
0.0
30
0.0
70
1
0
VERTEX
8
Halfen
62
7
10
 152
20
-62
30
0
0
VERTEX
8
Halfen
62
7
10
 152
20
-60
30
0
0
VERTEX
8
Halfen
62
7
10
 140
20
-60
30
0
0
VERTEX
8
Halfen
62
7
10
 140
20
-62
30
0
0
SEQEND
8
Halfen
0
POLYLINE
8
Halfen
62
7
66
1
10
0.0
20
0.0
30
0.0
70
1
0
VERTEX
8
Halfen
62
7
10
 151.25
20
-60
30
0
0
VERTEX
8
Halfen
62
7
10
 151.25
20
 60
30
0
0
VERTEX
8
Halfen
62
7
10
 140.75
20
 60
30
0
0
VERTEX
8
Halfen
62
7
10
 140.75
20
-60
30
0
0
SEQEND
8
Halfen
0
POLYLINE
8
Halfen
62
7
66
1
10
0.0
20
0.0
30
0.0
70
1
0
VERTEX
8
Halfen
62
7
10
 152
20
 60
30
0
0
VERTEX
8
Halfen
62
7
10
 152
20
 62
30
0
0
VERTEX
8
Halfen
62
7
10
 140
20
 62
30
0
0
VERTEX
8
Halfen
62
7
10
 140
20
 60
30
0
0
SEQEND
8
Halfen
0
POLYLINE
8
Halfen
62
7
66
1
10
0.0
20
0.0
30
0.0
70
1
0
VERTEX
8
Halfen
62
7
10
 151.25
20
 62
30
0
0
VERTEX
8
Halfen
62
7
10
 151.25
20
 160
30
0
0
VERTEX
8
Halfen
62
7
10
 140.75
20
 160
30
0
0
VERTEX
8
Halfen
62
7
10
 140.75
20
 62
30
0
0
SEQEND
8
Halfen
0
POLYLINE
8
Halfen
62
7
66
1
10
0.0
20
0.0
30
0.0
70
1
0
VERTEX
8
Halfen
62
7
10
 152
20
 160
30
0
0
VERTEX
8
Halfen
62
7
10
 152
20
 775
30
0
0
VERTEX
8
Halfen
62
7
10
 140
20
 775
30
0
0
VERTEX
8
Halfen
62
7
10
 140
20
 160
30
0
0
SEQEND
8
Halfen
0
POLYLINE
8
Halfen
62
7
66
1
10
0.0
20
0.0
30
0.0
70
1
0
VERTEX
8
Halfen
62
7
10
 98
20
-819.108
30
0
0
VERTEX
8
Halfen
62
7
10
 98
20
 163.766
30
0
0
VERTEX
8
Halfen
62
7
10
 86
20
 163.766
30
0
0
VERTEX
8
Halfen
62
7
10
 86
20
-819.108
30
0
0
SEQEND
8
Halfen
0
POLYLINE
8
Halfen
62
7
66
1
10
0.0
20
0.0
30
0.0
70
1
0
VERTEX
8
Halfen
62
7
10
 98
20
 163.766
30
0
0
VERTEX
8
Halfen
62
7
10
 98
20
 824.766
30
0
0
VERTEX
8
Halfen
62
7
10
 86
20
 824.766
30
0
0
VERTEX
8
Halfen
62
7
10
 86
20
 163.766
30
0
0
SEQEND
8
Halfen
0
POLYLINE
8
Halfen
62
7
66
1
10
0.0
20
0.0
30
0.0
70
1
0
VERTEX
8
Halfen
62
7
10
 110
20
-824.767
30
0
0
VERTEX
8
Halfen
62
7
10
 110
20
 158.108
30
0
0
VERTEX
8
Halfen
62
7
10
 98
20
 158.108
30
0
0
VERTEX
8
Halfen
62
7
10
 98
20
-824.767
30
0
0
SEQEND
8
Halfen
0
POLYLINE
8
Halfen
62
7
66
1
10
0.0
20
0.0
30
0.0
70
1
0
VERTEX
8
Halfen
62
7
10
 110
20
 158.108
30
0
0
VERTEX
8
Halfen
62
7
10
 110
20
 819.108
30
0
0
VERTEX
8
Halfen
62
7
10
 98
20
 819.108
30
0
0
VERTEX
8
Halfen
62
7
10
 98
20
 158.108
30
0
0
SEQEND
8
Halfen
0
POLYLINE
8
Halfen
62
7
66
1
10
0.0
20
0.0
30
0.0
70
1
0
VERTEX
8
Halfen
62
7
10
 760
20
-60
30
0
0
VERTEX
8
Halfen
62
7
10
 760
20
 60
30
0
0
VERTEX
8
Halfen
62
7
10
 746.5
20
 73.5
30
0
0
VERTEX
8
Halfen
62
7
10
 746.5
20
 60
30
0
0
VERTEX
8
Halfen
62
7
10
 500
20
 60
30
0
0
VERTEX
8
Halfen
62
7
10
 500
20
-60
30
0
0
VERTEX
8
Halfen
62
7
10
 746.5
20
-60
30
0
0
VERTEX
8
Halfen
62
7
10
 746.5
20
-73.5
30
0
0
SEQEND
8
Halfen
0
POLYLINE
8
Halfen
62
7
66
1
10
0.0
20
0.0
30
0.0
70
1
0
VERTEX
8
Halfen
62
7
10
 500
20
-60
30
0
0
VERTEX
8
Halfen
62
7
10
 500
20
 60
30
0
0
VERTEX
8
Halfen
62
7
10
 463.5
20
 60
30
0
0
VERTEX
8
Halfen
62
7
10
 463.5
20
 73.5
30
0
0
VERTEX
8
Halfen
62
7
10
 450
20
 60
30
0
0
VERTEX
8
Halfen
62
7
10
 450
20
-60
30
0
0
VERTEX
8
Halfen
62
7
10
 463.5
20
-73.5
30
0
0
VERTEX
8
Halfen
62
7
10
 463.5
20
-60
30
0
0
SEQEND
8
Halfen
0
POLYLINE
8
Halfen
62
7
66
1
10
0.0
20
0.0
30
0.0
70
1
0
VERTEX
8
Halfen
62
7
10
 757.5
20
-58.75
30
0
0
VERTEX
8
Halfen
62
7
10
 757.5
20
 58.75
30
0
0
VERTEX
8
Halfen
62
7
10
 749
20
 67.25
30
0
0
VERTEX
8
Halfen
62
7
10
 749
20
 58
30
0
0
VERTEX
8
Halfen
62
7
10
 502
20
 58
30
0
0
VERTEX
8
Halfen
62
7
10
 502
20
-58
30
0
0
VERTEX
8
Halfen
62
7
10
 749
20
-58
30
0
0
VERTEX
8
Halfen
62
7
10
 749
20
-67.25
30
0
0
SEQEND
8
Halfen
0
POLYLINE
8
Halfen
62
7
66
1
10
0.0
20
0.0
30
0.0
70
1
0
VERTEX
8
Halfen
62
7
10
 498
20
-58
30
0
0
VERTEX
8
Halfen
62
7
10
 498
20
 58
30
0
0
VERTEX
8
Halfen
62
7
10
 461
20
 58
30
0
0
VERTEX
8
Halfen
62
7
10
 461
20
 67.25
30
0
0
VERTEX
8
Halfen
62
7
10
 452.5
20
 58.75
30
0
0
VERTEX
8
Halfen
62
7
10
 452.5
20
-58.75
30
0
0
VERTEX
8
Halfen
62
7
10
 461
20
-67.25
30
0
0
VERTEX
8
Halfen
62
7
10
 461
20
-58
30
0
0
SEQEND
8
Halfen
0
POLYLINE
8
Halfen
62
7
66
1
10
0.0
20
0.0
30
0.0
70
1
0
VERTEX
8
Halfen
62
7
10
 497
20
-775
30
0
0
VERTEX
8
Halfen
62
7
10
 497
20
-160
30
0
0
VERTEX
8
Halfen
62
7
10
 485
20
-160
30
0
0
VERTEX
8
Halfen
62
7
10
 485
20
-775
30
0
0
SEQEND
8
Halfen
0
POLYLINE
8
Halfen
62
7
66
1
10
0.0
20
0.0
30
0.0
70
1
0
VERTEX
8
Halfen
62
7
10
 496.25
20
-160
30
0
0
VERTEX
8
Halfen
62
7
10
 496.25
20
-62
30
0
0
VERTEX
8
Halfen
62
7
10
 485.75
20
-62
30
0
0
VERTEX
8
Halfen
62
7
10
 485.75
20
-160
30
0
0
SEQEND
8
Halfen
0
POLYLINE
8
Halfen
62
7
66
1
10
0.0
20
0.0
30
0.0
70
1
0
VERTEX
8
Halfen
62
7
10
 497
20
-62
30
0
0
VERTEX
8
Halfen
62
7
10
 497
20
-60
30
0
0
VERTEX
8
Halfen
62
7
10
 485
20
-60
30
0
0
VERTEX
8
Halfen
62
7
10
 485
20
-62
30
0
0
SEQEND
8
Halfen
0
POLYLINE
8
Halfen
62
7
66
1
10
0.0
20
0.0
30
0.0
70
1
0
VERTEX
8
Halfen
62
7
10
 496.25
20
-60
30
0
0
VERTEX
8
Halfen
62
7
10
 496.25
20
 60
30
0
0
VERTEX
8
Halfen
62
7
10
 485.75
20
 60
30
0
0
VERTEX
8
Halfen
62
7
10
 485.75
20
-60
30
0
0
SEQEND
8
Halfen
0
POLYLINE
8
Halfen
62
7
66
1
10
0.0
20
0.0
30
0.0
70
1
0
VERTEX
8
Halfen
62
7
10
 497
20
 60
30
0
0
VERTEX
8
Halfen
62
7
10
 497
20
 62
30
0
0
VERTEX
8
Halfen
62
7
10
 485
20
 62
30
0
0
VERTEX
8
Halfen
62
7
10
 485
20
 60
30
0
0
SEQEND
8
Halfen
0
POLYLINE
8
Halfen
62
7
66
1
10
0.0
20
0.0
30
0.0
70
1
0
VERTEX
8
Halfen
62
7
10
 496.25
20
 62
30
0
0
VERTEX
8
Halfen
62
7
10
 496.25
20
 160
30
0
0
VERTEX
8
Halfen
62
7
10
 485.75
20
 160
30
0
0
VERTEX
8
Halfen
62
7
10
 485.75
20
 62
30
0
0
SEQEND
8
Halfen
0
POLYLINE
8
Halfen
62
7
66
1
10
0.0
20
0.0
30
0.0
70
1
0
VERTEX
8
Halfen
62
7
10
 497
20
 160
30
0
0
VERTEX
8
Halfen
62
7
10
 497
20
 775
30
0
0
VERTEX
8
Halfen
62
7
10
 485
20
 775
30
0
0
VERTEX
8
Halfen
62
7
10
 485
20
 160
30
0
0
SEQEND
8
Halfen
0
POLYLINE
8
Halfen
62
7
66
1
10
0.0
20
0.0
30
0.0
70
1
0
VERTEX
8
Halfen
62
7
10
 730
20
-775
30
0
0
VERTEX
8
Halfen
62
7
10
 730
20
-160
30
0
0
VERTEX
8
Halfen
62
7
10
 718
20
-160
30
0
0
VERTEX
8
Halfen
62
7
10
 718
20
-775
30
0
0
SEQEND
8
Halfen
0
POLYLINE
8
Halfen
62
7
66
1
10
0.0
20
0.0
30
0.0
70
1
0
VERTEX
8
Halfen
62
7
10
 729.25
20
-160
30
0
0
VERTEX
8
Halfen
62
7
10
 729.25
20
-62
30
0
0
VERTEX
8
Halfen
62
7
10
 718.75
20
-62
30
0
0
VERTEX
8
Halfen
62
7
10
 718.75
20
-160
30
0
0
SEQEND
8
Halfen
0
POLYLINE
8
Halfen
62
7
66
1
10
0.0
20
0.0
30
0.0
70
1
0
VERTEX
8
Halfen
62
7
10
 730
20
-62
30
0
0
VERTEX
8
Halfen
62
7
10
 730
20
-60
30
0
0
VERTEX
8
Halfen
62
7
10
 718
20
-60
30
0
0
VERTEX
8
Halfen
62
7
10
 718
20
-62
30
0
0
SEQEND
8
Halfen
0
POLYLINE
8
Halfen
62
7
66
1
10
0.0
20
0.0
30
0.0
70
1
0
VERTEX
8
Halfen
62
7
10
 729.25
20
-60
30
0
0
VERTEX
8
Halfen
62
7
10
 729.25
20
 60
30
0
0
VERTEX
8
Halfen
62
7
10
 718.75
20
 60
30
0
0
VERTEX
8
Halfen
62
7
10
 718.75
20
-60
30
0
0
SEQEND
8
Halfen
0
POLYLINE
8
Halfen
62
7
66
1
10
0.0
20
0.0
30
0.0
70
1
0
VERTEX
8
Halfen
62
7
10
 730
20
 60
30
0
0
VERTEX
8
Halfen
62
7
10
 730
20
 62
30
0
0
VERTEX
8
Halfen
62
7
10
 718
20
 62
30
0
0
VERTEX
8
Halfen
62
7
10
 718
20
 60
30
0
0
SEQEND
8
Halfen
0
POLYLINE
8
Halfen
62
7
66
1
10
0.0
20
0.0
30
0.0
70
1
0
VERTEX
8
Halfen
62
7
10
 729.25
20
 62
30
0
0
VERTEX
8
Halfen
62
7
10
 729.25
20
 160
30
0
0
VERTEX
8
Halfen
62
7
10
 718.75
20
 160
30
0
0
VERTEX
8
Halfen
62
7
10
 718.75
20
 62
30
0
0
SEQEND
8
Halfen
0
POLYLINE
8
Halfen
62
7
66
1
10
0.0
20
0.0
30
0.0
70
1
0
VERTEX
8
Halfen
62
7
10
 730
20
 160
30
0
0
VERTEX
8
Halfen
62
7
10
 730
20
 775
30
0
0
VERTEX
8
Halfen
62
7
10
 718
20
 775
30
0
0
VERTEX
8
Halfen
62
7
10
 718
20
 160
30
0
0
SEQEND
8
Halfen
0
POLYLINE
8
Halfen
62
7
66
1
10
0.0
20
0.0
30
0.0
70
1
0
VERTEX
8
Halfen
62
7
10
 730
20
-819.108
30
0
0
VERTEX
8
Halfen
62
7
10
 730
20
-104.608
30
0
0
VERTEX
8
Halfen
62
7
10
 729.359
20
-96.789
30
0
0
VERTEX
8
Halfen
62
7
10
 727.453
20
-89.179
30
0
0
VERTEX
8
Halfen
62
7
10
 724.332
20
-81.981
30
0
0
VERTEX
8
Halfen
62
7
10
 720.081
20
-75.388
30
0
0
VERTEX
8
Halfen
62
7
10
 594.439
20
 88.352
30
0
0
VERTEX
8
Halfen
62
7
10
 591.251
20
 93.297
30
0
0
VERTEX
8
Halfen
62
7
10
 588.911
20
 98.695
30
0
0
VERTEX
8
Halfen
62
7
10
 587.481
20
 104.403
30
0
0
VERTEX
8
Halfen
62
7
10
 587
20
 110.267
30
0
0
VERTEX
8
Halfen
62
7
10
 587
20
 163.766
30
0
0
VERTEX
8
Halfen
62
7
10
 575
20
 163.766
30
0
0
VERTEX
8
Halfen
62
7
10
 575
20
 110.267
30
0
0
VERTEX
8
Halfen
62
7
10
 575.641
20
 102.448
30
0
0
VERTEX
8
Halfen
62
7
10
 577.547
20
 94.838
30
0
0
VERTEX
8
Halfen
62
7
10
 580.668
20
 87.64
30
0
0
VERTEX
8
Halfen
62
7
10
 584.919
20
 81.046
30
0
0
VERTEX
8
Halfen
62
7
10
 710.561
20
-82.693
30
0
0
VERTEX
8
Halfen
62
7
10
 713.749
20
-87.638
30
0
0
VERTEX
8
Halfen
62
7
10
 716.089
20
-93.037
30
0
0
VERTEX
8
Halfen
62
7
10
 717.519
20
-98.744
30
0
0
VERTEX
8
Halfen
62
7
10
 718
20
-104.608
30
0
0
VERTEX
8
Halfen
62
7
10
 718
20
-819.108
30
0
0
SEQEND
8
Halfen
0
POLYLINE
8
Halfen
62
7
66
1
10
0.0
20
0.0
30
0.0
70
1
0
VERTEX
8
Halfen
62
7
10
 587
20
 163.766
30
0
0
VERTEX
8
Halfen
62
7
10
 587
20
 824.766
30
0
0
VERTEX
8
Halfen
62
7
10
 575
20
 824.766
30
0
0
VERTEX
8
Halfen
62
7
10
 575
20
 163.766
30
0
0
SEQEND
8
Halfen
0
POLYLINE
8
Halfen
62
7
66
1
10
0.0
20
0.0
30
0.0
70
1
0
VERTEX
8
Halfen
62
7
10
 575
20
-824.767
30
0
0
VERTEX
8
Halfen
62
7
10
 575
20
-110.267
30
0
0
VERTEX
8
Halfen
62
7
10
 575.641
20
-102.448
30
0
0
VERTEX
8
Halfen
62
7
10
 577.547
20
-94.838
30
0
0
VERTEX
8
Halfen
62
7
10
 580.668
20
-87.64
30
0
0
VERTEX
8
Halfen
62
7
10
 584.919
20
-81.046
30
0
0
VERTEX
8
Halfen
62
7
10
 710.561
20
 82.693
30
0
0
VERTEX
8
Halfen
62
7
10
 713.749
20
 87.638
30
0
0
VERTEX
8
Halfen
62
7
10
 716.089
20
 93.037
30
0
0
VERTEX
8
Halfen
62
7
10
 717.519
20
 98.744
30
0
0
VERTEX
8
Halfen
62
7
10
 718
20
 104.608
30
0
0
VERTEX
8
Halfen
62
7
10
 718
20
 158.108
30
0
0
VERTEX
8
Halfen
62
7
10
 730
20
 158.108
30
0
0
VERTEX
8
Halfen
62
7
10
 730
20
 104.608
30
0
0
VERTEX
8
Halfen
62
7
10
 729.359
20
 96.789
30
0
0
VERTEX
8
Halfen
62
7
10
 727.453
20
 89.179
30
0
0
VERTEX
8
Halfen
62
7
10
 724.332
20
 81.981
30
0
0
VERTEX
8
Halfen
62
7
10
 720.081
20
 75.388
30
0
0
VERTEX
8
Halfen
62
7
10
 594.439
20
-88.352
30
0
0
VERTEX
8
Halfen
62
7
10
 591.251
20
-93.297
30
0
0
VERTEX
8
Halfen
62
7
10
 588.911
20
-98.695
30
0
0
VERTEX
8
Halfen
62
7
10
 587.481
20
-104.403
30
0
0
VERTEX
8
Halfen
62
7
10
 587
20
-110.267
30
0
0
VERTEX
8
Halfen
62
7
10
 587
20
-824.767
30
0
0
SEQEND
8
Halfen
0
POLYLINE
8
Halfen
62
7
66
1
10
0.0
20
0.0
30
0.0
70
1
0
VERTEX
8
Halfen
62
7
10
 718
20
 158.108
30
0
0
VERTEX
8
Halfen
62
7
10
 718
20
 819.108
30
0
0
VERTEX
8
Halfen
62
7
10
 730
20
 819.108
30
0
0
VERTEX
8
Halfen
62
7
10
 730
20
 158.108
30
0
0
SEQEND
8
Halfen
0
ENDSEC
0
EOF
