0
SECTION
2
HEADER
9
$EXTMIN
10
 0
20
 100
30
0.0
9
$EXTMAX
10
 0
20
 100
30
0.0
9
$LIMMIN
10
 100
20
 0
9
$LIMMAX
10
 0
20
 100
9
$PSLTSCALE
70
1
0
ENDSEC
0
SECTION
2
TABLES
0
TABLE
2
LAYER
70
2
0
LAYER
2
0
70
0
62
7
6
CONTINUOUS
0
LAYER
2
Halfen
70
0
62
7
6
CONTINUOUS
0
ENDTAB
0
ENDSEC
0
SECTION
2
ENTITIES
0
POLYLINE
8
Halfen
62
7
66
1
10
0.0
20
0.0
30
0.0
70
1
0
VERTEX
8
Halfen
62
7
10
 0
20
-73.5
30
0
0
VERTEX
8
Halfen
62
7
10
 250
20
-73.5
30
0
0
VERTEX
8
Halfen
62
7
10
 250
20
 73.5
30
0
0
VERTEX
8
Halfen
62
7
10
 0
20
 73.5
30
0
0
SEQEND
8
Halfen
0
POLYLINE
8
Halfen
62
7
66
1
10
0.0
20
0.0
30
0.0
70
1
0
VERTEX
8
Halfen
62
7
10
 0
20
-60
30
0
0
VERTEX
8
Halfen
62
7
10
 250
20
-60
30
0
0
VERTEX
8
Halfen
62
7
10
 250
20
 60
30
0
0
VERTEX
8
Halfen
62
7
10
 0
20
 60
30
0
0
SEQEND
8
Halfen
0
POLYLINE
8
Halfen
62
7
66
1
10
0.0
20
0.0
30
0.0
70
1
0
VERTEX
8
Halfen
62
7
10
 20
20
-32.5
30
0
0
VERTEX
8
Halfen
62
7
10
 37
20
-1.5
30
0
0
VERTEX
8
Halfen
62
7
10
 28
20
-1.5
30
0
0
VERTEX
8
Halfen
62
7
10
 28
20
 32.5
30
0
0
VERTEX
8
Halfen
62
7
10
 12
20
 32.5
30
0
0
VERTEX
8
Halfen
62
7
10
 12
20
-1.5
30
0
0
VERTEX
8
Halfen
62
7
10
 3
20
-1.5
30
0
0
SEQEND
8
Halfen
0
POLYLINE
8
Halfen
62
7
66
1
10
0.0
20
0.0
30
0.0
70
1
0
VERTEX
8
Halfen
62
7
10
 230
20
-32.5
30
0
0
VERTEX
8
Halfen
62
7
10
 247
20
-1.5
30
0
0
VERTEX
8
Halfen
62
7
10
 238
20
-1.5
30
0
0
VERTEX
8
Halfen
62
7
10
 238
20
 32.5
30
0
0
VERTEX
8
Halfen
62
7
10
 222
20
 32.5
30
0
0
VERTEX
8
Halfen
62
7
10
 222
20
-1.5
30
0
0
VERTEX
8
Halfen
62
7
10
 213
20
-1.5
30
0
0
SEQEND
8
Halfen
0
POLYLINE
8
Halfen
62
7
66
1
10
0.0
20
0.0
30
0.0
70
1
0
VERTEX
8
Halfen
62
7
10
 75
20
-696.961
30
0
0
VERTEX
8
Halfen
62
7
10
 75
20
 705.246
30
0
0
VERTEX
8
Halfen
62
7
10
 65
20
 705.246
30
0
0
VERTEX
8
Halfen
62
7
10
 65
20
-696.961
30
0
0
SEQEND
8
Halfen
0
POLYLINE
8
Halfen
62
7
66
1
10
0.0
20
0.0
30
0.0
70
1
0
VERTEX
8
Halfen
62
7
10
 135
20
-696.961
30
0
0
VERTEX
8
Halfen
62
7
10
 135
20
 705.246
30
0
0
VERTEX
8
Halfen
62
7
10
 125
20
 705.246
30
0
0
VERTEX
8
Halfen
62
7
10
 125
20
-696.961
30
0
0
SEQEND
8
Halfen
0
POLYLINE
8
Halfen
62
7
66
1
10
0.0
20
0.0
30
0.0
70
1
0
VERTEX
8
Halfen
62
7
10
 195
20
-696.961
30
0
0
VERTEX
8
Halfen
62
7
10
 195
20
 705.246
30
0
0
VERTEX
8
Halfen
62
7
10
 185
20
 705.246
30
0
0
VERTEX
8
Halfen
62
7
10
 185
20
-696.961
30
0
0
SEQEND
8
Halfen
0
POLYLINE
8
Halfen
62
7
66
1
10
0.0
20
0.0
30
0.0
70
1
0
VERTEX
8
Halfen
62
7
10
 720
20
-60
30
0
0
VERTEX
8
Halfen
62
7
10
 720
20
 60
30
0
0
VERTEX
8
Halfen
62
7
10
 706.5
20
 73.5
30
0
0
VERTEX
8
Halfen
62
7
10
 706.5
20
 60
30
0
0
VERTEX
8
Halfen
62
7
10
 500
20
 60
30
0
0
VERTEX
8
Halfen
62
7
10
 500
20
-60
30
0
0
VERTEX
8
Halfen
62
7
10
 706.5
20
-60
30
0
0
VERTEX
8
Halfen
62
7
10
 706.5
20
-73.5
30
0
0
SEQEND
8
Halfen
0
POLYLINE
8
Halfen
62
7
66
1
10
0.0
20
0.0
30
0.0
70
1
0
VERTEX
8
Halfen
62
7
10
 500
20
-60
30
0
0
VERTEX
8
Halfen
62
7
10
 500
20
 60
30
0
0
VERTEX
8
Halfen
62
7
10
 463.5
20
 60
30
0
0
VERTEX
8
Halfen
62
7
10
 463.5
20
 73.5
30
0
0
VERTEX
8
Halfen
62
7
10
 450
20
 60
30
0
0
VERTEX
8
Halfen
62
7
10
 450
20
-60
30
0
0
VERTEX
8
Halfen
62
7
10
 463.5
20
-73.5
30
0
0
VERTEX
8
Halfen
62
7
10
 463.5
20
-60
30
0
0
SEQEND
8
Halfen
0
POLYLINE
8
Halfen
62
7
66
1
10
0.0
20
0.0
30
0.0
70
1
0
VERTEX
8
Halfen
62
7
10
 717.5
20
-58.75
30
0
0
VERTEX
8
Halfen
62
7
10
 717.5
20
 58.75
30
0
0
VERTEX
8
Halfen
62
7
10
 709
20
 67.25
30
0
0
VERTEX
8
Halfen
62
7
10
 709
20
 58
30
0
0
VERTEX
8
Halfen
62
7
10
 502
20
 58
30
0
0
VERTEX
8
Halfen
62
7
10
 502
20
-58
30
0
0
VERTEX
8
Halfen
62
7
10
 709
20
-58
30
0
0
VERTEX
8
Halfen
62
7
10
 709
20
-67.25
30
0
0
SEQEND
8
Halfen
0
POLYLINE
8
Halfen
62
7
66
1
10
0.0
20
0.0
30
0.0
70
1
0
VERTEX
8
Halfen
62
7
10
 498
20
-58
30
0
0
VERTEX
8
Halfen
62
7
10
 498
20
 58
30
0
0
VERTEX
8
Halfen
62
7
10
 461
20
 58
30
0
0
VERTEX
8
Halfen
62
7
10
 461
20
 67.25
30
0
0
VERTEX
8
Halfen
62
7
10
 452.5
20
 58.75
30
0
0
VERTEX
8
Halfen
62
7
10
 452.5
20
-58.75
30
0
0
VERTEX
8
Halfen
62
7
10
 461
20
-67.25
30
0
0
VERTEX
8
Halfen
62
7
10
 461
20
-58
30
0
0
SEQEND
8
Halfen
0
POLYLINE
8
Halfen
62
7
66
1
10
0.0
20
0.0
30
0.0
70
1
0
VERTEX
8
Halfen
62
7
10
 690
20
-696.961
30
0
0
VERTEX
8
Halfen
62
7
10
 690
20
-95.355
30
0
0
VERTEX
8
Halfen
62
7
10
 689.508
20
-89.098
30
0
0
VERTEX
8
Halfen
62
7
10
 688.042
20
-82.995
30
0
0
VERTEX
8
Halfen
62
7
10
 685.64
20
-77.196
30
0
0
VERTEX
8
Halfen
62
7
10
 682.361
20
-71.844
30
0
0
VERTEX
8
Halfen
62
7
10
 678.284
20
-67.071
30
0
0
VERTEX
8
Halfen
62
7
10
 528.787
20
 82.426
30
0
0
VERTEX
8
Halfen
62
7
10
 525.729
20
 86.006
30
0
0
VERTEX
8
Halfen
62
7
10
 523.27
20
 90.02
30
0
0
VERTEX
8
Halfen
62
7
10
 521.468
20
 94.369
30
0
0
VERTEX
8
Halfen
62
7
10
 520.369
20
 98.947
30
0
0
VERTEX
8
Halfen
62
7
10
 520
20
 103.64
30
0
0
VERTEX
8
Halfen
62
7
10
 520
20
 166.246
30
0
0
VERTEX
8
Halfen
62
7
10
 520
20
 705.246
30
0
0
VERTEX
8
Halfen
62
7
10
 510
20
 705.246
30
0
0
VERTEX
8
Halfen
62
7
10
 510
20
 166.246
30
0
0
VERTEX
8
Halfen
62
7
10
 510
20
 103.64
30
0
0
VERTEX
8
Halfen
62
7
10
 510.492
20
 97.382
30
0
0
VERTEX
8
Halfen
62
7
10
 511.958
20
 91.279
30
0
0
VERTEX
8
Halfen
62
7
10
 514.36
20
 85.48
30
0
0
VERTEX
8
Halfen
62
7
10
 517.639
20
 80.128
30
0
0
VERTEX
8
Halfen
62
7
10
 521.716
20
 75.355
30
0
0
VERTEX
8
Halfen
62
7
10
 671.213
20
-74.142
30
0
0
VERTEX
8
Halfen
62
7
10
 674.271
20
-77.722
30
0
0
VERTEX
8
Halfen
62
7
10
 676.73
20
-81.736
30
0
0
VERTEX
8
Halfen
62
7
10
 678.532
20
-86.085
30
0
0
VERTEX
8
Halfen
62
7
10
 679.631
20
-90.662
30
0
0
VERTEX
8
Halfen
62
7
10
 680
20
-95.355
30
0
0
VERTEX
8
Halfen
62
7
10
 680
20
-696.961
30
0
0
SEQEND
8
Halfen
0
ENDSEC
0
EOF
