0
SECTION
2
HEADER
9
$EXTMIN
10
 0
20
 100
30
0.0
9
$EXTMAX
10
 0
20
 100
30
0.0
9
$LIMMIN
10
 100
20
 0
9
$LIMMAX
10
 0
20
 100
9
$PSLTSCALE
70
1
0
ENDSEC
0
SECTION
2
TABLES
0
TABLE
2
LAYER
70
2
0
LAYER
2
0
70
0
62
7
6
CONTINUOUS
0
LAYER
2
Halfen
70
0
62
7
6
CONTINUOUS
0
ENDTAB
0
ENDSEC
0
SECTION
2
ENTITIES
0
POLYLINE
8
Halfen
62
7
66
1
10
0.0
20
0.0
30
0.0
70
1
0
VERTEX
8
Halfen
62
7
10
 0
20
-73.5
30
0
0
VERTEX
8
Halfen
62
7
10
 1000
20
-73.5
30
0
0
VERTEX
8
Halfen
62
7
10
 1000
20
 73.5
30
0
0
VERTEX
8
Halfen
62
7
10
 0
20
 73.5
30
0
0
SEQEND
8
Halfen
0
POLYLINE
8
Halfen
62
7
66
1
10
0.0
20
0.0
30
0.0
70
1
0
VERTEX
8
Halfen
62
7
10
 0
20
-60
30
0
0
VERTEX
8
Halfen
62
7
10
 1000
20
-60
30
0
0
VERTEX
8
Halfen
62
7
10
 1000
20
 60
30
0
0
VERTEX
8
Halfen
62
7
10
 0
20
 60
30
0
0
SEQEND
8
Halfen
0
POLYLINE
8
Halfen
62
7
66
1
10
0.0
20
0.0
30
0.0
70
1
0
VERTEX
8
Halfen
62
7
10
 20
20
-32.5
30
0
0
VERTEX
8
Halfen
62
7
10
 37
20
-1.5
30
0
0
VERTEX
8
Halfen
62
7
10
 28
20
-1.5
30
0
0
VERTEX
8
Halfen
62
7
10
 28
20
 32.5
30
0
0
VERTEX
8
Halfen
62
7
10
 12
20
 32.5
30
0
0
VERTEX
8
Halfen
62
7
10
 12
20
-1.5
30
0
0
VERTEX
8
Halfen
62
7
10
 3
20
-1.5
30
0
0
SEQEND
8
Halfen
0
POLYLINE
8
Halfen
62
7
66
1
10
0.0
20
0.0
30
0.0
70
1
0
VERTEX
8
Halfen
62
7
10
 980
20
-32.5
30
0
0
VERTEX
8
Halfen
62
7
10
 997
20
-1.5
30
0
0
VERTEX
8
Halfen
62
7
10
 988
20
-1.5
30
0
0
VERTEX
8
Halfen
62
7
10
 988
20
 32.5
30
0
0
VERTEX
8
Halfen
62
7
10
 972
20
 32.5
30
0
0
VERTEX
8
Halfen
62
7
10
 972
20
-1.5
30
0
0
VERTEX
8
Halfen
62
7
10
 963
20
-1.5
30
0
0
SEQEND
8
Halfen
0
POLYLINE
8
Halfen
62
7
66
1
10
0.0
20
0.0
30
0.0
70
1
0
VERTEX
8
Halfen
62
7
10
 265
20
-69.3
30
0
0
VERTEX
8
Halfen
62
7
10
 265
20
-56.8
30
0
0
VERTEX
8
Halfen
62
7
10
 265
20
 69.3
30
0
0
VERTEX
8
Halfen
62
7
10
 264.958
20
 70.359
30
0
0
VERTEX
8
Halfen
62
7
10
 264.834
20
 71.412
30
0
0
VERTEX
8
Halfen
62
7
10
 264.627
20
 72.452
30
0
0
VERTEX
8
Halfen
62
7
10
 264.339
20
 73.472
30
0
0
VERTEX
8
Halfen
62
7
10
 263.972
20
 74.466
30
0
0
VERTEX
8
Halfen
62
7
10
 263.529
20
 75.429
30
0
0
VERTEX
8
Halfen
62
7
10
 263.011
20
 76.354
30
0
0
VERTEX
8
Halfen
62
7
10
 262.422
20
 77.235
30
0
0
VERTEX
8
Halfen
62
7
10
 261.765
20
 78.068
30
0
0
VERTEX
8
Halfen
62
7
10
 261.046
20
 78.846
30
0
0
VERTEX
8
Halfen
62
7
10
 260.268
20
 79.565
30
0
0
VERTEX
8
Halfen
62
7
10
 259.435
20
 80.222
30
0
0
VERTEX
8
Halfen
62
7
10
 258.554
20
 80.811
30
0
0
VERTEX
8
Halfen
62
7
10
 257.629
20
 81.329
30
0
0
VERTEX
8
Halfen
62
7
10
 256.666
20
 81.772
30
0
0
VERTEX
8
Halfen
62
7
10
 255.672
20
 82.139
30
0
0
VERTEX
8
Halfen
62
7
10
 254.652
20
 82.427
30
0
0
VERTEX
8
Halfen
62
7
10
 253.612
20
 82.634
30
0
0
VERTEX
8
Halfen
62
7
10
 252.559
20
 82.758
30
0
0
VERTEX
8
Halfen
62
7
10
 251.5
20
 82.8
30
0
0
VERTEX
8
Halfen
62
7
10
 248.5
20
 82.8
30
0
0
VERTEX
8
Halfen
62
7
10
 247.441
20
 82.758
30
0
0
VERTEX
8
Halfen
62
7
10
 246.388
20
 82.634
30
0
0
VERTEX
8
Halfen
62
7
10
 245.348
20
 82.427
30
0
0
VERTEX
8
Halfen
62
7
10
 244.328
20
 82.139
30
0
0
VERTEX
8
Halfen
62
7
10
 243.334
20
 81.772
30
0
0
VERTEX
8
Halfen
62
7
10
 242.371
20
 81.329
30
0
0
VERTEX
8
Halfen
62
7
10
 241.446
20
 80.811
30
0
0
VERTEX
8
Halfen
62
7
10
 240.565
20
 80.222
30
0
0
VERTEX
8
Halfen
62
7
10
 239.732
20
 79.565
30
0
0
VERTEX
8
Halfen
62
7
10
 238.954
20
 78.846
30
0
0
VERTEX
8
Halfen
62
7
10
 238.235
20
 78.068
30
0
0
VERTEX
8
Halfen
62
7
10
 237.578
20
 77.235
30
0
0
VERTEX
8
Halfen
62
7
10
 236.989
20
 76.354
30
0
0
VERTEX
8
Halfen
62
7
10
 236.471
20
 75.429
30
0
0
VERTEX
8
Halfen
62
7
10
 236.028
20
 74.466
30
0
0
VERTEX
8
Halfen
62
7
10
 235.661
20
 73.472
30
0
0
VERTEX
8
Halfen
62
7
10
 235.373
20
 72.452
30
0
0
VERTEX
8
Halfen
62
7
10
 235.166
20
 71.412
30
0
0
VERTEX
8
Halfen
62
7
10
 235.042
20
 70.359
30
0
0
VERTEX
8
Halfen
62
7
10
 235
20
 69.3
30
0
0
VERTEX
8
Halfen
62
7
10
 235
20
-56.8
30
0
0
VERTEX
8
Halfen
62
7
10
 235
20
-69.3
30
0
0
VERTEX
8
Halfen
62
7
10
 235.042
20
-70.359
30
0
0
VERTEX
8
Halfen
62
7
10
 235.166
20
-71.412
30
0
0
VERTEX
8
Halfen
62
7
10
 235.373
20
-72.452
30
0
0
VERTEX
8
Halfen
62
7
10
 235.661
20
-73.472
30
0
0
VERTEX
8
Halfen
62
7
10
 236.028
20
-74.466
30
0
0
VERTEX
8
Halfen
62
7
10
 236.471
20
-75.429
30
0
0
VERTEX
8
Halfen
62
7
10
 236.989
20
-76.354
30
0
0
VERTEX
8
Halfen
62
7
10
 237.578
20
-77.235
30
0
0
VERTEX
8
Halfen
62
7
10
 238.235
20
-78.068
30
0
0
VERTEX
8
Halfen
62
7
10
 238.954
20
-78.846
30
0
0
VERTEX
8
Halfen
62
7
10
 239.732
20
-79.565
30
0
0
VERTEX
8
Halfen
62
7
10
 240.565
20
-80.222
30
0
0
VERTEX
8
Halfen
62
7
10
 241.446
20
-80.811
30
0
0
VERTEX
8
Halfen
62
7
10
 242.371
20
-81.329
30
0
0
VERTEX
8
Halfen
62
7
10
 243.334
20
-81.772
30
0
0
VERTEX
8
Halfen
62
7
10
 244.328
20
-82.139
30
0
0
VERTEX
8
Halfen
62
7
10
 245.348
20
-82.427
30
0
0
VERTEX
8
Halfen
62
7
10
 246.388
20
-82.634
30
0
0
VERTEX
8
Halfen
62
7
10
 247.441
20
-82.758
30
0
0
VERTEX
8
Halfen
62
7
10
 248.5
20
-82.8
30
0
0
VERTEX
8
Halfen
62
7
10
 251.5
20
-82.8
30
0
0
VERTEX
8
Halfen
62
7
10
 252.559
20
-82.758
30
0
0
VERTEX
8
Halfen
62
7
10
 253.612
20
-82.634
30
0
0
VERTEX
8
Halfen
62
7
10
 254.652
20
-82.427
30
0
0
VERTEX
8
Halfen
62
7
10
 255.672
20
-82.139
30
0
0
VERTEX
8
Halfen
62
7
10
 256.666
20
-81.772
30
0
0
VERTEX
8
Halfen
62
7
10
 257.629
20
-81.329
30
0
0
VERTEX
8
Halfen
62
7
10
 258.554
20
-80.811
30
0
0
VERTEX
8
Halfen
62
7
10
 259.435
20
-80.222
30
0
0
VERTEX
8
Halfen
62
7
10
 260.268
20
-79.565
30
0
0
VERTEX
8
Halfen
62
7
10
 261.046
20
-78.846
30
0
0
VERTEX
8
Halfen
62
7
10
 261.765
20
-78.068
30
0
0
VERTEX
8
Halfen
62
7
10
 262.422
20
-77.235
30
0
0
VERTEX
8
Halfen
62
7
10
 263.011
20
-76.354
30
0
0
VERTEX
8
Halfen
62
7
10
 263.529
20
-75.429
30
0
0
VERTEX
8
Halfen
62
7
10
 263.972
20
-74.466
30
0
0
VERTEX
8
Halfen
62
7
10
 264.339
20
-73.472
30
0
0
VERTEX
8
Halfen
62
7
10
 264.627
20
-72.452
30
0
0
VERTEX
8
Halfen
62
7
10
 264.834
20
-71.412
30
0
0
VERTEX
8
Halfen
62
7
10
 264.958
20
-70.359
30
0
0
VERTEX
8
Halfen
62
7
10
 265
20
-69.3
30
0
0
SEQEND
8
Halfen
0
POLYLINE
8
Halfen
62
7
66
1
10
0.0
20
0.0
30
0.0
70
1
0
VERTEX
8
Halfen
62
7
10
 515
20
-69.3
30
0
0
VERTEX
8
Halfen
62
7
10
 515
20
-56.8
30
0
0
VERTEX
8
Halfen
62
7
10
 515
20
 69.3
30
0
0
VERTEX
8
Halfen
62
7
10
 514.958
20
 70.359
30
0
0
VERTEX
8
Halfen
62
7
10
 514.834
20
 71.412
30
0
0
VERTEX
8
Halfen
62
7
10
 514.627
20
 72.452
30
0
0
VERTEX
8
Halfen
62
7
10
 514.339
20
 73.472
30
0
0
VERTEX
8
Halfen
62
7
10
 513.972
20
 74.466
30
0
0
VERTEX
8
Halfen
62
7
10
 513.529
20
 75.429
30
0
0
VERTEX
8
Halfen
62
7
10
 513.011
20
 76.354
30
0
0
VERTEX
8
Halfen
62
7
10
 512.422
20
 77.235
30
0
0
VERTEX
8
Halfen
62
7
10
 511.765
20
 78.068
30
0
0
VERTEX
8
Halfen
62
7
10
 511.046
20
 78.846
30
0
0
VERTEX
8
Halfen
62
7
10
 510.268
20
 79.565
30
0
0
VERTEX
8
Halfen
62
7
10
 509.435
20
 80.222
30
0
0
VERTEX
8
Halfen
62
7
10
 508.554
20
 80.811
30
0
0
VERTEX
8
Halfen
62
7
10
 507.629
20
 81.329
30
0
0
VERTEX
8
Halfen
62
7
10
 506.666
20
 81.772
30
0
0
VERTEX
8
Halfen
62
7
10
 505.672
20
 82.139
30
0
0
VERTEX
8
Halfen
62
7
10
 504.652
20
 82.427
30
0
0
VERTEX
8
Halfen
62
7
10
 503.612
20
 82.634
30
0
0
VERTEX
8
Halfen
62
7
10
 502.559
20
 82.758
30
0
0
VERTEX
8
Halfen
62
7
10
 501.5
20
 82.8
30
0
0
VERTEX
8
Halfen
62
7
10
 498.5
20
 82.8
30
0
0
VERTEX
8
Halfen
62
7
10
 497.441
20
 82.758
30
0
0
VERTEX
8
Halfen
62
7
10
 496.388
20
 82.634
30
0
0
VERTEX
8
Halfen
62
7
10
 495.348
20
 82.427
30
0
0
VERTEX
8
Halfen
62
7
10
 494.328
20
 82.139
30
0
0
VERTEX
8
Halfen
62
7
10
 493.334
20
 81.772
30
0
0
VERTEX
8
Halfen
62
7
10
 492.371
20
 81.329
30
0
0
VERTEX
8
Halfen
62
7
10
 491.446
20
 80.811
30
0
0
VERTEX
8
Halfen
62
7
10
 490.565
20
 80.222
30
0
0
VERTEX
8
Halfen
62
7
10
 489.732
20
 79.565
30
0
0
VERTEX
8
Halfen
62
7
10
 488.954
20
 78.846
30
0
0
VERTEX
8
Halfen
62
7
10
 488.235
20
 78.068
30
0
0
VERTEX
8
Halfen
62
7
10
 487.578
20
 77.235
30
0
0
VERTEX
8
Halfen
62
7
10
 486.989
20
 76.354
30
0
0
VERTEX
8
Halfen
62
7
10
 486.471
20
 75.429
30
0
0
VERTEX
8
Halfen
62
7
10
 486.028
20
 74.466
30
0
0
VERTEX
8
Halfen
62
7
10
 485.661
20
 73.472
30
0
0
VERTEX
8
Halfen
62
7
10
 485.373
20
 72.452
30
0
0
VERTEX
8
Halfen
62
7
10
 485.166
20
 71.412
30
0
0
VERTEX
8
Halfen
62
7
10
 485.042
20
 70.359
30
0
0
VERTEX
8
Halfen
62
7
10
 485
20
 69.3
30
0
0
VERTEX
8
Halfen
62
7
10
 485
20
-56.8
30
0
0
VERTEX
8
Halfen
62
7
10
 485
20
-69.3
30
0
0
VERTEX
8
Halfen
62
7
10
 485.042
20
-70.359
30
0
0
VERTEX
8
Halfen
62
7
10
 485.166
20
-71.412
30
0
0
VERTEX
8
Halfen
62
7
10
 485.373
20
-72.452
30
0
0
VERTEX
8
Halfen
62
7
10
 485.661
20
-73.472
30
0
0
VERTEX
8
Halfen
62
7
10
 486.028
20
-74.466
30
0
0
VERTEX
8
Halfen
62
7
10
 486.471
20
-75.429
30
0
0
VERTEX
8
Halfen
62
7
10
 486.989
20
-76.354
30
0
0
VERTEX
8
Halfen
62
7
10
 487.578
20
-77.235
30
0
0
VERTEX
8
Halfen
62
7
10
 488.235
20
-78.068
30
0
0
VERTEX
8
Halfen
62
7
10
 488.954
20
-78.846
30
0
0
VERTEX
8
Halfen
62
7
10
 489.732
20
-79.565
30
0
0
VERTEX
8
Halfen
62
7
10
 490.565
20
-80.222
30
0
0
VERTEX
8
Halfen
62
7
10
 491.446
20
-80.811
30
0
0
VERTEX
8
Halfen
62
7
10
 492.371
20
-81.329
30
0
0
VERTEX
8
Halfen
62
7
10
 493.334
20
-81.772
30
0
0
VERTEX
8
Halfen
62
7
10
 494.328
20
-82.139
30
0
0
VERTEX
8
Halfen
62
7
10
 495.348
20
-82.427
30
0
0
VERTEX
8
Halfen
62
7
10
 496.388
20
-82.634
30
0
0
VERTEX
8
Halfen
62
7
10
 497.441
20
-82.758
30
0
0
VERTEX
8
Halfen
62
7
10
 498.5
20
-82.8
30
0
0
VERTEX
8
Halfen
62
7
10
 501.5
20
-82.8
30
0
0
VERTEX
8
Halfen
62
7
10
 502.559
20
-82.758
30
0
0
VERTEX
8
Halfen
62
7
10
 503.612
20
-82.634
30
0
0
VERTEX
8
Halfen
62
7
10
 504.652
20
-82.427
30
0
0
VERTEX
8
Halfen
62
7
10
 505.672
20
-82.139
30
0
0
VERTEX
8
Halfen
62
7
10
 506.666
20
-81.772
30
0
0
VERTEX
8
Halfen
62
7
10
 507.629
20
-81.329
30
0
0
VERTEX
8
Halfen
62
7
10
 508.554
20
-80.811
30
0
0
VERTEX
8
Halfen
62
7
10
 509.435
20
-80.222
30
0
0
VERTEX
8
Halfen
62
7
10
 510.268
20
-79.565
30
0
0
VERTEX
8
Halfen
62
7
10
 511.046
20
-78.846
30
0
0
VERTEX
8
Halfen
62
7
10
 511.765
20
-78.068
30
0
0
VERTEX
8
Halfen
62
7
10
 512.422
20
-77.235
30
0
0
VERTEX
8
Halfen
62
7
10
 513.011
20
-76.354
30
0
0
VERTEX
8
Halfen
62
7
10
 513.529
20
-75.429
30
0
0
VERTEX
8
Halfen
62
7
10
 513.972
20
-74.466
30
0
0
VERTEX
8
Halfen
62
7
10
 514.339
20
-73.472
30
0
0
VERTEX
8
Halfen
62
7
10
 514.627
20
-72.452
30
0
0
VERTEX
8
Halfen
62
7
10
 514.834
20
-71.412
30
0
0
VERTEX
8
Halfen
62
7
10
 514.958
20
-70.359
30
0
0
VERTEX
8
Halfen
62
7
10
 515
20
-69.3
30
0
0
SEQEND
8
Halfen
0
POLYLINE
8
Halfen
62
7
66
1
10
0.0
20
0.0
30
0.0
70
1
0
VERTEX
8
Halfen
62
7
10
 765
20
-69.3
30
0
0
VERTEX
8
Halfen
62
7
10
 765
20
-56.8
30
0
0
VERTEX
8
Halfen
62
7
10
 765
20
 69.3
30
0
0
VERTEX
8
Halfen
62
7
10
 764.958
20
 70.359
30
0
0
VERTEX
8
Halfen
62
7
10
 764.834
20
 71.412
30
0
0
VERTEX
8
Halfen
62
7
10
 764.627
20
 72.452
30
0
0
VERTEX
8
Halfen
62
7
10
 764.339
20
 73.472
30
0
0
VERTEX
8
Halfen
62
7
10
 763.972
20
 74.466
30
0
0
VERTEX
8
Halfen
62
7
10
 763.529
20
 75.429
30
0
0
VERTEX
8
Halfen
62
7
10
 763.011
20
 76.354
30
0
0
VERTEX
8
Halfen
62
7
10
 762.422
20
 77.235
30
0
0
VERTEX
8
Halfen
62
7
10
 761.765
20
 78.068
30
0
0
VERTEX
8
Halfen
62
7
10
 761.046
20
 78.846
30
0
0
VERTEX
8
Halfen
62
7
10
 760.268
20
 79.565
30
0
0
VERTEX
8
Halfen
62
7
10
 759.435
20
 80.222
30
0
0
VERTEX
8
Halfen
62
7
10
 758.554
20
 80.811
30
0
0
VERTEX
8
Halfen
62
7
10
 757.629
20
 81.329
30
0
0
VERTEX
8
Halfen
62
7
10
 756.666
20
 81.772
30
0
0
VERTEX
8
Halfen
62
7
10
 755.672
20
 82.139
30
0
0
VERTEX
8
Halfen
62
7
10
 754.652
20
 82.427
30
0
0
VERTEX
8
Halfen
62
7
10
 753.612
20
 82.634
30
0
0
VERTEX
8
Halfen
62
7
10
 752.559
20
 82.758
30
0
0
VERTEX
8
Halfen
62
7
10
 751.5
20
 82.8
30
0
0
VERTEX
8
Halfen
62
7
10
 748.5
20
 82.8
30
0
0
VERTEX
8
Halfen
62
7
10
 747.441
20
 82.758
30
0
0
VERTEX
8
Halfen
62
7
10
 746.388
20
 82.634
30
0
0
VERTEX
8
Halfen
62
7
10
 745.348
20
 82.427
30
0
0
VERTEX
8
Halfen
62
7
10
 744.328
20
 82.139
30
0
0
VERTEX
8
Halfen
62
7
10
 743.334
20
 81.772
30
0
0
VERTEX
8
Halfen
62
7
10
 742.371
20
 81.329
30
0
0
VERTEX
8
Halfen
62
7
10
 741.446
20
 80.811
30
0
0
VERTEX
8
Halfen
62
7
10
 740.565
20
 80.222
30
0
0
VERTEX
8
Halfen
62
7
10
 739.732
20
 79.565
30
0
0
VERTEX
8
Halfen
62
7
10
 738.954
20
 78.846
30
0
0
VERTEX
8
Halfen
62
7
10
 738.235
20
 78.068
30
0
0
VERTEX
8
Halfen
62
7
10
 737.578
20
 77.235
30
0
0
VERTEX
8
Halfen
62
7
10
 736.989
20
 76.354
30
0
0
VERTEX
8
Halfen
62
7
10
 736.471
20
 75.429
30
0
0
VERTEX
8
Halfen
62
7
10
 736.028
20
 74.466
30
0
0
VERTEX
8
Halfen
62
7
10
 735.661
20
 73.472
30
0
0
VERTEX
8
Halfen
62
7
10
 735.373
20
 72.452
30
0
0
VERTEX
8
Halfen
62
7
10
 735.166
20
 71.412
30
0
0
VERTEX
8
Halfen
62
7
10
 735.042
20
 70.359
30
0
0
VERTEX
8
Halfen
62
7
10
 735
20
 69.3
30
0
0
VERTEX
8
Halfen
62
7
10
 735
20
-56.8
30
0
0
VERTEX
8
Halfen
62
7
10
 735
20
-69.3
30
0
0
VERTEX
8
Halfen
62
7
10
 735.042
20
-70.359
30
0
0
VERTEX
8
Halfen
62
7
10
 735.166
20
-71.412
30
0
0
VERTEX
8
Halfen
62
7
10
 735.373
20
-72.452
30
0
0
VERTEX
8
Halfen
62
7
10
 735.661
20
-73.472
30
0
0
VERTEX
8
Halfen
62
7
10
 736.028
20
-74.466
30
0
0
VERTEX
8
Halfen
62
7
10
 736.471
20
-75.429
30
0
0
VERTEX
8
Halfen
62
7
10
 736.989
20
-76.354
30
0
0
VERTEX
8
Halfen
62
7
10
 737.578
20
-77.235
30
0
0
VERTEX
8
Halfen
62
7
10
 738.235
20
-78.068
30
0
0
VERTEX
8
Halfen
62
7
10
 738.954
20
-78.846
30
0
0
VERTEX
8
Halfen
62
7
10
 739.732
20
-79.565
30
0
0
VERTEX
8
Halfen
62
7
10
 740.565
20
-80.222
30
0
0
VERTEX
8
Halfen
62
7
10
 741.446
20
-80.811
30
0
0
VERTEX
8
Halfen
62
7
10
 742.371
20
-81.329
30
0
0
VERTEX
8
Halfen
62
7
10
 743.334
20
-81.772
30
0
0
VERTEX
8
Halfen
62
7
10
 744.328
20
-82.139
30
0
0
VERTEX
8
Halfen
62
7
10
 745.348
20
-82.427
30
0
0
VERTEX
8
Halfen
62
7
10
 746.388
20
-82.634
30
0
0
VERTEX
8
Halfen
62
7
10
 747.441
20
-82.758
30
0
0
VERTEX
8
Halfen
62
7
10
 748.5
20
-82.8
30
0
0
VERTEX
8
Halfen
62
7
10
 751.5
20
-82.8
30
0
0
VERTEX
8
Halfen
62
7
10
 752.559
20
-82.758
30
0
0
VERTEX
8
Halfen
62
7
10
 753.612
20
-82.634
30
0
0
VERTEX
8
Halfen
62
7
10
 754.652
20
-82.427
30
0
0
VERTEX
8
Halfen
62
7
10
 755.672
20
-82.139
30
0
0
VERTEX
8
Halfen
62
7
10
 756.666
20
-81.772
30
0
0
VERTEX
8
Halfen
62
7
10
 757.629
20
-81.329
30
0
0
VERTEX
8
Halfen
62
7
10
 758.554
20
-80.811
30
0
0
VERTEX
8
Halfen
62
7
10
 759.435
20
-80.222
30
0
0
VERTEX
8
Halfen
62
7
10
 760.268
20
-79.565
30
0
0
VERTEX
8
Halfen
62
7
10
 761.046
20
-78.846
30
0
0
VERTEX
8
Halfen
62
7
10
 761.765
20
-78.068
30
0
0
VERTEX
8
Halfen
62
7
10
 762.422
20
-77.235
30
0
0
VERTEX
8
Halfen
62
7
10
 763.011
20
-76.354
30
0
0
VERTEX
8
Halfen
62
7
10
 763.529
20
-75.429
30
0
0
VERTEX
8
Halfen
62
7
10
 763.972
20
-74.466
30
0
0
VERTEX
8
Halfen
62
7
10
 764.339
20
-73.472
30
0
0
VERTEX
8
Halfen
62
7
10
 764.627
20
-72.452
30
0
0
VERTEX
8
Halfen
62
7
10
 764.834
20
-71.412
30
0
0
VERTEX
8
Halfen
62
7
10
 764.958
20
-70.359
30
0
0
VERTEX
8
Halfen
62
7
10
 765
20
-69.3
30
0
0
SEQEND
8
Halfen
0
POLYLINE
8
Halfen
62
7
66
1
10
0.0
20
0.0
30
0.0
70
1
0
VERTEX
8
Halfen
62
7
10
 195
20
-702.262
30
0
0
VERTEX
8
Halfen
62
7
10
 195
20
 700.922
30
0
0
VERTEX
8
Halfen
62
7
10
 185
20
 700.922
30
0
0
VERTEX
8
Halfen
62
7
10
 185
20
-702.262
30
0
0
SEQEND
8
Halfen
0
POLYLINE
8
Halfen
62
7
66
1
10
0.0
20
0.0
30
0.0
70
1
0
VERTEX
8
Halfen
62
7
10
 325
20
-702.262
30
0
0
VERTEX
8
Halfen
62
7
10
 325
20
 700.922
30
0
0
VERTEX
8
Halfen
62
7
10
 315
20
 700.922
30
0
0
VERTEX
8
Halfen
62
7
10
 315
20
-702.262
30
0
0
SEQEND
8
Halfen
0
POLYLINE
8
Halfen
62
7
66
1
10
0.0
20
0.0
30
0.0
70
1
0
VERTEX
8
Halfen
62
7
10
 575
20
-702.262
30
0
0
VERTEX
8
Halfen
62
7
10
 575
20
 700.922
30
0
0
VERTEX
8
Halfen
62
7
10
 565
20
 700.922
30
0
0
VERTEX
8
Halfen
62
7
10
 565
20
-702.262
30
0
0
SEQEND
8
Halfen
0
POLYLINE
8
Halfen
62
7
66
1
10
0.0
20
0.0
30
0.0
70
1
0
VERTEX
8
Halfen
62
7
10
 695
20
-702.262
30
0
0
VERTEX
8
Halfen
62
7
10
 695
20
 700.922
30
0
0
VERTEX
8
Halfen
62
7
10
 685
20
 700.922
30
0
0
VERTEX
8
Halfen
62
7
10
 685
20
-702.262
30
0
0
SEQEND
8
Halfen
0
POLYLINE
8
Halfen
62
7
66
1
10
0.0
20
0.0
30
0.0
70
1
0
VERTEX
8
Halfen
62
7
10
 825
20
-702.262
30
0
0
VERTEX
8
Halfen
62
7
10
 825
20
 700.922
30
0
0
VERTEX
8
Halfen
62
7
10
 815
20
 700.922
30
0
0
VERTEX
8
Halfen
62
7
10
 815
20
-702.262
30
0
0
SEQEND
8
Halfen
0
POLYLINE
8
Halfen
62
7
66
1
10
0.0
20
0.0
30
0.0
70
1
0
VERTEX
8
Halfen
62
7
10
 815
20
-702.262
30
0
0
VERTEX
8
Halfen
62
7
10
 815
20
 700.922
30
0
0
VERTEX
8
Halfen
62
7
10
 805
20
 700.922
30
0
0
VERTEX
8
Halfen
62
7
10
 805
20
-702.262
30
0
0
SEQEND
8
Halfen
0
POLYLINE
8
Halfen
62
7
66
1
10
0.0
20
0.0
30
0.0
70
1
0
VERTEX
8
Halfen
62
7
10
 685
20
-702.262
30
0
0
VERTEX
8
Halfen
62
7
10
 685
20
 700.922
30
0
0
VERTEX
8
Halfen
62
7
10
 675
20
 700.922
30
0
0
VERTEX
8
Halfen
62
7
10
 675
20
-702.262
30
0
0
SEQEND
8
Halfen
0
POLYLINE
8
Halfen
62
7
66
1
10
0.0
20
0.0
30
0.0
70
1
0
VERTEX
8
Halfen
62
7
10
 435
20
-702.262
30
0
0
VERTEX
8
Halfen
62
7
10
 435
20
 700.922
30
0
0
VERTEX
8
Halfen
62
7
10
 425
20
 700.922
30
0
0
VERTEX
8
Halfen
62
7
10
 425
20
-702.262
30
0
0
SEQEND
8
Halfen
0
POLYLINE
8
Halfen
62
7
66
1
10
0.0
20
0.0
30
0.0
70
1
0
VERTEX
8
Halfen
62
7
10
 315
20
-702.262
30
0
0
VERTEX
8
Halfen
62
7
10
 315
20
 700.922
30
0
0
VERTEX
8
Halfen
62
7
10
 305
20
 700.922
30
0
0
VERTEX
8
Halfen
62
7
10
 305
20
-702.262
30
0
0
SEQEND
8
Halfen
0
POLYLINE
8
Halfen
62
7
66
1
10
0.0
20
0.0
30
0.0
70
1
0
VERTEX
8
Halfen
62
7
10
 185
20
-702.262
30
0
0
VERTEX
8
Halfen
62
7
10
 185
20
 700.922
30
0
0
VERTEX
8
Halfen
62
7
10
 175
20
 700.922
30
0
0
VERTEX
8
Halfen
62
7
10
 175
20
-702.262
30
0
0
SEQEND
8
Halfen
0
POLYLINE
8
Halfen
62
7
66
1
10
0.0
20
0.0
30
0.0
70
1
0
VERTEX
8
Halfen
62
7
10
 1390
20
-60
30
0
0
VERTEX
8
Halfen
62
7
10
 1390
20
 60
30
0
0
VERTEX
8
Halfen
62
7
10
 1376.5
20
 73.5
30
0
0
VERTEX
8
Halfen
62
7
10
 1376.5
20
 60
30
0
0
VERTEX
8
Halfen
62
7
10
 1250
20
 60
30
0
0
VERTEX
8
Halfen
62
7
10
 1250
20
-60
30
0
0
VERTEX
8
Halfen
62
7
10
 1376.5
20
-60
30
0
0
VERTEX
8
Halfen
62
7
10
 1376.5
20
-73.5
30
0
0
SEQEND
8
Halfen
0
POLYLINE
8
Halfen
62
7
66
1
10
0.0
20
0.0
30
0.0
70
1
0
VERTEX
8
Halfen
62
7
10
 1250
20
-60
30
0
0
VERTEX
8
Halfen
62
7
10
 1250
20
 60
30
0
0
VERTEX
8
Halfen
62
7
10
 1213.5
20
 60
30
0
0
VERTEX
8
Halfen
62
7
10
 1213.5
20
 73.5
30
0
0
VERTEX
8
Halfen
62
7
10
 1200
20
 60
30
0
0
VERTEX
8
Halfen
62
7
10
 1200
20
-60
30
0
0
VERTEX
8
Halfen
62
7
10
 1213.5
20
-73.5
30
0
0
VERTEX
8
Halfen
62
7
10
 1213.5
20
-60
30
0
0
SEQEND
8
Halfen
0
POLYLINE
8
Halfen
62
7
66
1
10
0.0
20
0.0
30
0.0
70
1
0
VERTEX
8
Halfen
62
7
10
 1387.5
20
-58.75
30
0
0
VERTEX
8
Halfen
62
7
10
 1387.5
20
 58.75
30
0
0
VERTEX
8
Halfen
62
7
10
 1379
20
 67.25
30
0
0
VERTEX
8
Halfen
62
7
10
 1379
20
 58
30
0
0
VERTEX
8
Halfen
62
7
10
 1252
20
 58
30
0
0
VERTEX
8
Halfen
62
7
10
 1252
20
-58
30
0
0
VERTEX
8
Halfen
62
7
10
 1379
20
-58
30
0
0
VERTEX
8
Halfen
62
7
10
 1379
20
-67.25
30
0
0
SEQEND
8
Halfen
0
POLYLINE
8
Halfen
62
7
66
1
10
0.0
20
0.0
30
0.0
70
1
0
VERTEX
8
Halfen
62
7
10
 1248
20
-58
30
0
0
VERTEX
8
Halfen
62
7
10
 1248
20
 58
30
0
0
VERTEX
8
Halfen
62
7
10
 1211
20
 58
30
0
0
VERTEX
8
Halfen
62
7
10
 1211
20
 67.25
30
0
0
VERTEX
8
Halfen
62
7
10
 1202.5
20
 58.75
30
0
0
VERTEX
8
Halfen
62
7
10
 1202.5
20
-58.75
30
0
0
VERTEX
8
Halfen
62
7
10
 1211
20
-67.25
30
0
0
VERTEX
8
Halfen
62
7
10
 1211
20
-58
30
0
0
SEQEND
8
Halfen
0
POLYLINE
8
Halfen
62
7
66
1
10
0.0
20
0.0
30
0.0
70
1
0
VERTEX
8
Halfen
62
7
10
 1375
20
-81.8
30
0
0
VERTEX
8
Halfen
62
7
10
 1375
20
 81.8
30
0
0
VERTEX
8
Halfen
62
7
10
 1371
20
 81.8
30
0
0
VERTEX
8
Halfen
62
7
10
 1370.846
20
 81.797
30
0
0
VERTEX
8
Halfen
62
7
10
 1370.691
20
 81.786
30
0
0
VERTEX
8
Halfen
62
7
10
 1370.538
20
 81.769
30
0
0
VERTEX
8
Halfen
62
7
10
 1370.385
20
 81.746
30
0
0
VERTEX
8
Halfen
62
7
10
 1370.234
20
 81.715
30
0
0
VERTEX
8
Halfen
62
7
10
 1370.084
20
 81.678
30
0
0
VERTEX
8
Halfen
62
7
10
 1369.936
20
 81.634
30
0
0
VERTEX
8
Halfen
62
7
10
 1369.789
20
 81.584
30
0
0
VERTEX
8
Halfen
62
7
10
 1369.646
20
 81.527
30
0
0
VERTEX
8
Halfen
62
7
10
 1369.505
20
 81.464
30
0
0
VERTEX
8
Halfen
62
7
10
 1369.366
20
 81.395
30
0
0
VERTEX
8
Halfen
62
7
10
 1369.231
20
 81.32
30
0
0
VERTEX
8
Halfen
62
7
10
 1369.1
20
 81.239
30
0
0
VERTEX
8
Halfen
62
7
10
 1368.972
20
 81.153
30
0
0
VERTEX
8
Halfen
62
7
10
 1368.848
20
 81.06
30
0
0
VERTEX
8
Halfen
62
7
10
 1368.728
20
 80.963
30
0
0
VERTEX
8
Halfen
62
7
10
 1368.613
20
 80.86
30
0
0
VERTEX
8
Halfen
62
7
10
 1368.502
20
 80.752
30
0
0
VERTEX
8
Halfen
62
7
10
 1368.397
20
 80.639
30
0
0
VERTEX
8
Halfen
62
7
10
 1368.296
20
 80.522
30
0
0
VERTEX
8
Halfen
62
7
10
 1367.41
20
 79.491
30
0
0
VERTEX
8
Halfen
62
7
10
 1366.479
20
 78.5
30
0
0
VERTEX
8
Halfen
62
7
10
 1365.505
20
 77.551
30
0
0
VERTEX
8
Halfen
62
7
10
 1364.491
20
 76.646
30
0
0
VERTEX
8
Halfen
62
7
10
 1363.437
20
 75.787
30
0
0
VERTEX
8
Halfen
62
7
10
 1362.347
20
 74.975
30
0
0
VERTEX
8
Halfen
62
7
10
 1361.222
20
 74.211
30
0
0
VERTEX
8
Halfen
62
7
10
 1360.064
20
 73.499
30
0
0
VERTEX
8
Halfen
62
7
10
 1358.876
20
 72.838
30
0
0
VERTEX
8
Halfen
62
7
10
 1357.66
20
 72.23
30
0
0
VERTEX
8
Halfen
62
7
10
 1356.418
20
 71.676
30
0
0
VERTEX
8
Halfen
62
7
10
 1355.153
20
 71.178
30
0
0
VERTEX
8
Halfen
62
7
10
 1353.867
20
 70.736
30
0
0
VERTEX
8
Halfen
62
7
10
 1352.563
20
 70.351
30
0
0
VERTEX
8
Halfen
62
7
10
 1351.243
20
 70.024
30
0
0
VERTEX
8
Halfen
62
7
10
 1349.911
20
 69.756
30
0
0
VERTEX
8
Halfen
62
7
10
 1348.567
20
 69.547
30
0
0
VERTEX
8
Halfen
62
7
10
 1347.216
20
 69.397
30
0
0
VERTEX
8
Halfen
62
7
10
 1345.859
20
 69.307
30
0
0
VERTEX
8
Halfen
62
7
10
 1344.5
20
 69.277
30
0
0
VERTEX
8
Halfen
62
7
10
 1322.5
20
 69.277
30
0
0
VERTEX
8
Halfen
62
7
10
 1321.141
20
 69.307
30
0
0
VERTEX
8
Halfen
62
7
10
 1319.784
20
 69.397
30
0
0
VERTEX
8
Halfen
62
7
10
 1318.433
20
 69.547
30
0
0
VERTEX
8
Halfen
62
7
10
 1317.089
20
 69.756
30
0
0
VERTEX
8
Halfen
62
7
10
 1315.757
20
 70.024
30
0
0
VERTEX
8
Halfen
62
7
10
 1314.437
20
 70.351
30
0
0
VERTEX
8
Halfen
62
7
10
 1313.133
20
 70.736
30
0
0
VERTEX
8
Halfen
62
7
10
 1311.847
20
 71.178
30
0
0
VERTEX
8
Halfen
62
7
10
 1310.582
20
 71.676
30
0
0
VERTEX
8
Halfen
62
7
10
 1309.34
20
 72.23
30
0
0
VERTEX
8
Halfen
62
7
10
 1308.124
20
 72.838
30
0
0
VERTEX
8
Halfen
62
7
10
 1306.936
20
 73.499
30
0
0
VERTEX
8
Halfen
62
7
10
 1305.778
20
 74.211
30
0
0
VERTEX
8
Halfen
62
7
10
 1304.653
20
 74.975
30
0
0
VERTEX
8
Halfen
62
7
10
 1303.563
20
 75.787
30
0
0
VERTEX
8
Halfen
62
7
10
 1302.509
20
 76.646
30
0
0
VERTEX
8
Halfen
62
7
10
 1301.495
20
 77.551
30
0
0
VERTEX
8
Halfen
62
7
10
 1300.521
20
 78.5
30
0
0
VERTEX
8
Halfen
62
7
10
 1299.59
20
 79.491
30
0
0
VERTEX
8
Halfen
62
7
10
 1298.704
20
 80.522
30
0
0
VERTEX
8
Halfen
62
7
10
 1298.603
20
 80.639
30
0
0
VERTEX
8
Halfen
62
7
10
 1298.498
20
 80.752
30
0
0
VERTEX
8
Halfen
62
7
10
 1298.387
20
 80.86
30
0
0
VERTEX
8
Halfen
62
7
10
 1298.272
20
 80.963
30
0
0
VERTEX
8
Halfen
62
7
10
 1298.152
20
 81.06
30
0
0
VERTEX
8
Halfen
62
7
10
 1298.028
20
 81.153
30
0
0
VERTEX
8
Halfen
62
7
10
 1297.9
20
 81.239
30
0
0
VERTEX
8
Halfen
62
7
10
 1297.769
20
 81.32
30
0
0
VERTEX
8
Halfen
62
7
10
 1297.634
20
 81.395
30
0
0
VERTEX
8
Halfen
62
7
10
 1297.495
20
 81.464
30
0
0
VERTEX
8
Halfen
62
7
10
 1297.354
20
 81.527
30
0
0
VERTEX
8
Halfen
62
7
10
 1297.211
20
 81.584
30
0
0
VERTEX
8
Halfen
62
7
10
 1297.064
20
 81.634
30
0
0
VERTEX
8
Halfen
62
7
10
 1296.916
20
 81.678
30
0
0
VERTEX
8
Halfen
62
7
10
 1296.766
20
 81.715
30
0
0
VERTEX
8
Halfen
62
7
10
 1296.615
20
 81.746
30
0
0
VERTEX
8
Halfen
62
7
10
 1296.462
20
 81.769
30
0
0
VERTEX
8
Halfen
62
7
10
 1296.309
20
 81.786
30
0
0
VERTEX
8
Halfen
62
7
10
 1296.154
20
 81.797
30
0
0
VERTEX
8
Halfen
62
7
10
 1296
20
 81.8
30
0
0
VERTEX
8
Halfen
62
7
10
 1292
20
 81.8
30
0
0
VERTEX
8
Halfen
62
7
10
 1292
20
-81.8
30
0
0
VERTEX
8
Halfen
62
7
10
 1296
20
-81.8
30
0
0
VERTEX
8
Halfen
62
7
10
 1296.154
20
-81.797
30
0
0
VERTEX
8
Halfen
62
7
10
 1296.309
20
-81.786
30
0
0
VERTEX
8
Halfen
62
7
10
 1296.462
20
-81.769
30
0
0
VERTEX
8
Halfen
62
7
10
 1296.615
20
-81.746
30
0
0
VERTEX
8
Halfen
62
7
10
 1296.766
20
-81.715
30
0
0
VERTEX
8
Halfen
62
7
10
 1296.916
20
-81.678
30
0
0
VERTEX
8
Halfen
62
7
10
 1297.064
20
-81.634
30
0
0
VERTEX
8
Halfen
62
7
10
 1297.211
20
-81.584
30
0
0
VERTEX
8
Halfen
62
7
10
 1297.354
20
-81.527
30
0
0
VERTEX
8
Halfen
62
7
10
 1297.495
20
-81.464
30
0
0
VERTEX
8
Halfen
62
7
10
 1297.634
20
-81.395
30
0
0
VERTEX
8
Halfen
62
7
10
 1297.769
20
-81.32
30
0
0
VERTEX
8
Halfen
62
7
10
 1297.9
20
-81.239
30
0
0
VERTEX
8
Halfen
62
7
10
 1298.028
20
-81.153
30
0
0
VERTEX
8
Halfen
62
7
10
 1298.152
20
-81.06
30
0
0
VERTEX
8
Halfen
62
7
10
 1298.272
20
-80.963
30
0
0
VERTEX
8
Halfen
62
7
10
 1298.387
20
-80.86
30
0
0
VERTEX
8
Halfen
62
7
10
 1298.498
20
-80.752
30
0
0
VERTEX
8
Halfen
62
7
10
 1298.603
20
-80.639
30
0
0
VERTEX
8
Halfen
62
7
10
 1298.704
20
-80.522
30
0
0
VERTEX
8
Halfen
62
7
10
 1299.59
20
-79.491
30
0
0
VERTEX
8
Halfen
62
7
10
 1300.521
20
-78.5
30
0
0
VERTEX
8
Halfen
62
7
10
 1301.495
20
-77.551
30
0
0
VERTEX
8
Halfen
62
7
10
 1302.509
20
-76.646
30
0
0
VERTEX
8
Halfen
62
7
10
 1303.563
20
-75.787
30
0
0
VERTEX
8
Halfen
62
7
10
 1304.653
20
-74.975
30
0
0
VERTEX
8
Halfen
62
7
10
 1305.778
20
-74.211
30
0
0
VERTEX
8
Halfen
62
7
10
 1306.936
20
-73.499
30
0
0
VERTEX
8
Halfen
62
7
10
 1308.124
20
-72.838
30
0
0
VERTEX
8
Halfen
62
7
10
 1309.34
20
-72.23
30
0
0
VERTEX
8
Halfen
62
7
10
 1310.582
20
-71.676
30
0
0
VERTEX
8
Halfen
62
7
10
 1311.847
20
-71.178
30
0
0
VERTEX
8
Halfen
62
7
10
 1313.133
20
-70.736
30
0
0
VERTEX
8
Halfen
62
7
10
 1314.437
20
-70.351
30
0
0
VERTEX
8
Halfen
62
7
10
 1315.757
20
-70.024
30
0
0
VERTEX
8
Halfen
62
7
10
 1317.089
20
-69.756
30
0
0
VERTEX
8
Halfen
62
7
10
 1318.433
20
-69.547
30
0
0
VERTEX
8
Halfen
62
7
10
 1319.784
20
-69.397
30
0
0
VERTEX
8
Halfen
62
7
10
 1321.141
20
-69.307
30
0
0
VERTEX
8
Halfen
62
7
10
 1322.5
20
-69.277
30
0
0
VERTEX
8
Halfen
62
7
10
 1344.5
20
-69.277
30
0
0
VERTEX
8
Halfen
62
7
10
 1345.859
20
-69.307
30
0
0
VERTEX
8
Halfen
62
7
10
 1347.216
20
-69.397
30
0
0
VERTEX
8
Halfen
62
7
10
 1348.567
20
-69.547
30
0
0
VERTEX
8
Halfen
62
7
10
 1349.911
20
-69.756
30
0
0
VERTEX
8
Halfen
62
7
10
 1351.243
20
-70.024
30
0
0
VERTEX
8
Halfen
62
7
10
 1352.563
20
-70.351
30
0
0
VERTEX
8
Halfen
62
7
10
 1353.867
20
-70.736
30
0
0
VERTEX
8
Halfen
62
7
10
 1355.153
20
-71.178
30
0
0
VERTEX
8
Halfen
62
7
10
 1356.418
20
-71.676
30
0
0
VERTEX
8
Halfen
62
7
10
 1357.66
20
-72.23
30
0
0
VERTEX
8
Halfen
62
7
10
 1358.876
20
-72.838
30
0
0
VERTEX
8
Halfen
62
7
10
 1360.064
20
-73.499
30
0
0
VERTEX
8
Halfen
62
7
10
 1361.222
20
-74.211
30
0
0
VERTEX
8
Halfen
62
7
10
 1362.347
20
-74.975
30
0
0
VERTEX
8
Halfen
62
7
10
 1363.437
20
-75.787
30
0
0
VERTEX
8
Halfen
62
7
10
 1364.491
20
-76.646
30
0
0
VERTEX
8
Halfen
62
7
10
 1365.505
20
-77.551
30
0
0
VERTEX
8
Halfen
62
7
10
 1366.479
20
-78.5
30
0
0
VERTEX
8
Halfen
62
7
10
 1367.41
20
-79.491
30
0
0
VERTEX
8
Halfen
62
7
10
 1368.296
20
-80.522
30
0
0
VERTEX
8
Halfen
62
7
10
 1368.397
20
-80.639
30
0
0
VERTEX
8
Halfen
62
7
10
 1368.502
20
-80.752
30
0
0
VERTEX
8
Halfen
62
7
10
 1368.613
20
-80.86
30
0
0
VERTEX
8
Halfen
62
7
10
 1368.728
20
-80.963
30
0
0
VERTEX
8
Halfen
62
7
10
 1368.848
20
-81.06
30
0
0
VERTEX
8
Halfen
62
7
10
 1368.972
20
-81.153
30
0
0
VERTEX
8
Halfen
62
7
10
 1369.1
20
-81.239
30
0
0
VERTEX
8
Halfen
62
7
10
 1369.231
20
-81.32
30
0
0
VERTEX
8
Halfen
62
7
10
 1369.366
20
-81.395
30
0
0
VERTEX
8
Halfen
62
7
10
 1369.505
20
-81.464
30
0
0
VERTEX
8
Halfen
62
7
10
 1369.646
20
-81.527
30
0
0
VERTEX
8
Halfen
62
7
10
 1369.789
20
-81.584
30
0
0
VERTEX
8
Halfen
62
7
10
 1369.936
20
-81.634
30
0
0
VERTEX
8
Halfen
62
7
10
 1370.084
20
-81.678
30
0
0
VERTEX
8
Halfen
62
7
10
 1370.234
20
-81.715
30
0
0
VERTEX
8
Halfen
62
7
10
 1370.385
20
-81.746
30
0
0
VERTEX
8
Halfen
62
7
10
 1370.538
20
-81.769
30
0
0
VERTEX
8
Halfen
62
7
10
 1370.691
20
-81.786
30
0
0
VERTEX
8
Halfen
62
7
10
 1370.846
20
-81.797
30
0
0
VERTEX
8
Halfen
62
7
10
 1371
20
-81.8
30
0
0
SEQEND
8
Halfen
0
POLYLINE
8
Halfen
62
7
66
1
10
0.0
20
0.0
30
0.0
70
1
0
VERTEX
8
Halfen
62
7
10
 1360
20
-702.262
30
0
0
VERTEX
8
Halfen
62
7
10
 1360
20
-92.321
30
0
0
VERTEX
8
Halfen
62
7
10
 1359.392
20
-85.375
30
0
0
VERTEX
8
Halfen
62
7
10
 1357.588
20
-78.64
30
0
0
VERTEX
8
Halfen
62
7
10
 1354.641
20
-72.321
30
0
0
VERTEX
8
Halfen
62
7
10
 1269.019
20
 75.981
30
0
0
VERTEX
8
Halfen
62
7
10
 1266.809
20
 80.72
30
0
0
VERTEX
8
Halfen
62
7
10
 1265.456
20
 85.771
30
0
0
VERTEX
8
Halfen
62
7
10
 1265
20
 90.981
30
0
0
VERTEX
8
Halfen
62
7
10
 1265
20
 161.922
30
0
0
VERTEX
8
Halfen
62
7
10
 1265
20
 700.922
30
0
0
VERTEX
8
Halfen
62
7
10
 1255
20
 700.922
30
0
0
VERTEX
8
Halfen
62
7
10
 1255
20
 161.922
30
0
0
VERTEX
8
Halfen
62
7
10
 1255
20
 90.981
30
0
0
VERTEX
8
Halfen
62
7
10
 1255.608
20
 84.035
30
0
0
VERTEX
8
Halfen
62
7
10
 1257.412
20
 77.3
30
0
0
VERTEX
8
Halfen
62
7
10
 1260.359
20
 70.981
30
0
0
VERTEX
8
Halfen
62
7
10
 1345.981
20
-77.321
30
0
0
VERTEX
8
Halfen
62
7
10
 1348.191
20
-82.06
30
0
0
VERTEX
8
Halfen
62
7
10
 1349.544
20
-87.111
30
0
0
VERTEX
8
Halfen
62
7
10
 1350
20
-92.321
30
0
0
VERTEX
8
Halfen
62
7
10
 1350
20
-702.262
30
0
0
SEQEND
8
Halfen
0
POLYLINE
8
Halfen
62
7
66
1
10
0.0
20
0.0
30
0.0
70
1
0
VERTEX
8
Halfen
62
7
10
 1255
20
-702.262
30
0
0
VERTEX
8
Halfen
62
7
10
 1255
20
-92.321
30
0
0
VERTEX
8
Halfen
62
7
10
 1255.608
20
-85.375
30
0
0
VERTEX
8
Halfen
62
7
10
 1257.412
20
-78.64
30
0
0
VERTEX
8
Halfen
62
7
10
 1260.359
20
-72.321
30
0
0
VERTEX
8
Halfen
62
7
10
 1345.981
20
 75.981
30
0
0
VERTEX
8
Halfen
62
7
10
 1348.191
20
 80.72
30
0
0
VERTEX
8
Halfen
62
7
10
 1349.544
20
 85.771
30
0
0
VERTEX
8
Halfen
62
7
10
 1350
20
 90.981
30
0
0
VERTEX
8
Halfen
62
7
10
 1350
20
 161.922
30
0
0
VERTEX
8
Halfen
62
7
10
 1350
20
 700.922
30
0
0
VERTEX
8
Halfen
62
7
10
 1360
20
 700.922
30
0
0
VERTEX
8
Halfen
62
7
10
 1360
20
 161.922
30
0
0
VERTEX
8
Halfen
62
7
10
 1360
20
 90.981
30
0
0
VERTEX
8
Halfen
62
7
10
 1359.392
20
 84.035
30
0
0
VERTEX
8
Halfen
62
7
10
 1357.588
20
 77.3
30
0
0
VERTEX
8
Halfen
62
7
10
 1354.641
20
 70.981
30
0
0
VERTEX
8
Halfen
62
7
10
 1269.019
20
-77.321
30
0
0
VERTEX
8
Halfen
62
7
10
 1266.809
20
-82.06
30
0
0
VERTEX
8
Halfen
62
7
10
 1265.456
20
-87.111
30
0
0
VERTEX
8
Halfen
62
7
10
 1265
20
-92.321
30
0
0
VERTEX
8
Halfen
62
7
10
 1265
20
-702.262
30
0
0
SEQEND
8
Halfen
0
ENDSEC
0
EOF
