0
SECTION
2
HEADER
9
$EXTMIN
10
 0
20
 100
30
0.0
9
$EXTMAX
10
 0
20
 100
30
0.0
9
$LIMMIN
10
 100
20
 0
9
$LIMMAX
10
 0
20
 100
9
$PSLTSCALE
70
1
0
ENDSEC
0
SECTION
2
TABLES
0
TABLE
2
LAYER
70
2
0
LAYER
2
0
70
0
62
7
6
CONTINUOUS
0
LAYER
2
Halfen
70
0
62
7
6
CONTINUOUS
0
ENDTAB
0
ENDSEC
0
SECTION
2
ENTITIES
0
POLYLINE
8
Halfen
62
7
66
1
10
0.0
20
0.0
30
0.0
70
1
0
VERTEX
8
Halfen
62
7
10
 0
20
-73.5
30
0
0
VERTEX
8
Halfen
62
7
10
 500
20
-73.5
30
0
0
VERTEX
8
Halfen
62
7
10
 500
20
 73.5
30
0
0
VERTEX
8
Halfen
62
7
10
 0
20
 73.5
30
0
0
SEQEND
8
Halfen
0
POLYLINE
8
Halfen
62
7
66
1
10
0.0
20
0.0
30
0.0
70
1
0
VERTEX
8
Halfen
62
7
10
 0
20
-60
30
0
0
VERTEX
8
Halfen
62
7
10
 500
20
-60
30
0
0
VERTEX
8
Halfen
62
7
10
 500
20
 60
30
0
0
VERTEX
8
Halfen
62
7
10
 0
20
 60
30
0
0
SEQEND
8
Halfen
0
POLYLINE
8
Halfen
62
7
66
1
10
0.0
20
0.0
30
0.0
70
1
0
VERTEX
8
Halfen
62
7
10
 20
20
-32.5
30
0
0
VERTEX
8
Halfen
62
7
10
 37
20
-1.5
30
0
0
VERTEX
8
Halfen
62
7
10
 28
20
-1.5
30
0
0
VERTEX
8
Halfen
62
7
10
 28
20
 32.5
30
0
0
VERTEX
8
Halfen
62
7
10
 12
20
 32.5
30
0
0
VERTEX
8
Halfen
62
7
10
 12
20
-1.5
30
0
0
VERTEX
8
Halfen
62
7
10
 3
20
-1.5
30
0
0
SEQEND
8
Halfen
0
POLYLINE
8
Halfen
62
7
66
1
10
0.0
20
0.0
30
0.0
70
1
0
VERTEX
8
Halfen
62
7
10
 480
20
-32.5
30
0
0
VERTEX
8
Halfen
62
7
10
 497
20
-1.5
30
0
0
VERTEX
8
Halfen
62
7
10
 488
20
-1.5
30
0
0
VERTEX
8
Halfen
62
7
10
 488
20
 32.5
30
0
0
VERTEX
8
Halfen
62
7
10
 472
20
 32.5
30
0
0
VERTEX
8
Halfen
62
7
10
 472
20
-1.5
30
0
0
VERTEX
8
Halfen
62
7
10
 463
20
-1.5
30
0
0
SEQEND
8
Halfen
0
POLYLINE
8
Halfen
62
7
66
1
10
0.0
20
0.0
30
0.0
70
1
0
VERTEX
8
Halfen
62
7
10
 265
20
-69.3
30
0
0
VERTEX
8
Halfen
62
7
10
 265
20
-56.8
30
0
0
VERTEX
8
Halfen
62
7
10
 265
20
 69.3
30
0
0
VERTEX
8
Halfen
62
7
10
 264.958
20
 70.359
30
0
0
VERTEX
8
Halfen
62
7
10
 264.834
20
 71.412
30
0
0
VERTEX
8
Halfen
62
7
10
 264.627
20
 72.452
30
0
0
VERTEX
8
Halfen
62
7
10
 264.339
20
 73.472
30
0
0
VERTEX
8
Halfen
62
7
10
 263.972
20
 74.466
30
0
0
VERTEX
8
Halfen
62
7
10
 263.529
20
 75.429
30
0
0
VERTEX
8
Halfen
62
7
10
 263.011
20
 76.354
30
0
0
VERTEX
8
Halfen
62
7
10
 262.422
20
 77.235
30
0
0
VERTEX
8
Halfen
62
7
10
 261.765
20
 78.068
30
0
0
VERTEX
8
Halfen
62
7
10
 261.046
20
 78.846
30
0
0
VERTEX
8
Halfen
62
7
10
 260.268
20
 79.565
30
0
0
VERTEX
8
Halfen
62
7
10
 259.435
20
 80.222
30
0
0
VERTEX
8
Halfen
62
7
10
 258.554
20
 80.811
30
0
0
VERTEX
8
Halfen
62
7
10
 257.629
20
 81.329
30
0
0
VERTEX
8
Halfen
62
7
10
 256.666
20
 81.772
30
0
0
VERTEX
8
Halfen
62
7
10
 255.672
20
 82.139
30
0
0
VERTEX
8
Halfen
62
7
10
 254.652
20
 82.427
30
0
0
VERTEX
8
Halfen
62
7
10
 253.612
20
 82.634
30
0
0
VERTEX
8
Halfen
62
7
10
 252.559
20
 82.758
30
0
0
VERTEX
8
Halfen
62
7
10
 251.5
20
 82.8
30
0
0
VERTEX
8
Halfen
62
7
10
 248.5
20
 82.8
30
0
0
VERTEX
8
Halfen
62
7
10
 247.441
20
 82.758
30
0
0
VERTEX
8
Halfen
62
7
10
 246.388
20
 82.634
30
0
0
VERTEX
8
Halfen
62
7
10
 245.348
20
 82.427
30
0
0
VERTEX
8
Halfen
62
7
10
 244.328
20
 82.139
30
0
0
VERTEX
8
Halfen
62
7
10
 243.334
20
 81.772
30
0
0
VERTEX
8
Halfen
62
7
10
 242.371
20
 81.329
30
0
0
VERTEX
8
Halfen
62
7
10
 241.446
20
 80.811
30
0
0
VERTEX
8
Halfen
62
7
10
 240.565
20
 80.222
30
0
0
VERTEX
8
Halfen
62
7
10
 239.732
20
 79.565
30
0
0
VERTEX
8
Halfen
62
7
10
 238.954
20
 78.846
30
0
0
VERTEX
8
Halfen
62
7
10
 238.235
20
 78.068
30
0
0
VERTEX
8
Halfen
62
7
10
 237.578
20
 77.235
30
0
0
VERTEX
8
Halfen
62
7
10
 236.989
20
 76.354
30
0
0
VERTEX
8
Halfen
62
7
10
 236.471
20
 75.429
30
0
0
VERTEX
8
Halfen
62
7
10
 236.028
20
 74.466
30
0
0
VERTEX
8
Halfen
62
7
10
 235.661
20
 73.472
30
0
0
VERTEX
8
Halfen
62
7
10
 235.373
20
 72.452
30
0
0
VERTEX
8
Halfen
62
7
10
 235.166
20
 71.412
30
0
0
VERTEX
8
Halfen
62
7
10
 235.042
20
 70.359
30
0
0
VERTEX
8
Halfen
62
7
10
 235
20
 69.3
30
0
0
VERTEX
8
Halfen
62
7
10
 235
20
-56.8
30
0
0
VERTEX
8
Halfen
62
7
10
 235
20
-69.3
30
0
0
VERTEX
8
Halfen
62
7
10
 235.042
20
-70.359
30
0
0
VERTEX
8
Halfen
62
7
10
 235.166
20
-71.412
30
0
0
VERTEX
8
Halfen
62
7
10
 235.373
20
-72.452
30
0
0
VERTEX
8
Halfen
62
7
10
 235.661
20
-73.472
30
0
0
VERTEX
8
Halfen
62
7
10
 236.028
20
-74.466
30
0
0
VERTEX
8
Halfen
62
7
10
 236.471
20
-75.429
30
0
0
VERTEX
8
Halfen
62
7
10
 236.989
20
-76.354
30
0
0
VERTEX
8
Halfen
62
7
10
 237.578
20
-77.235
30
0
0
VERTEX
8
Halfen
62
7
10
 238.235
20
-78.068
30
0
0
VERTEX
8
Halfen
62
7
10
 238.954
20
-78.846
30
0
0
VERTEX
8
Halfen
62
7
10
 239.732
20
-79.565
30
0
0
VERTEX
8
Halfen
62
7
10
 240.565
20
-80.222
30
0
0
VERTEX
8
Halfen
62
7
10
 241.446
20
-80.811
30
0
0
VERTEX
8
Halfen
62
7
10
 242.371
20
-81.329
30
0
0
VERTEX
8
Halfen
62
7
10
 243.334
20
-81.772
30
0
0
VERTEX
8
Halfen
62
7
10
 244.328
20
-82.139
30
0
0
VERTEX
8
Halfen
62
7
10
 245.348
20
-82.427
30
0
0
VERTEX
8
Halfen
62
7
10
 246.388
20
-82.634
30
0
0
VERTEX
8
Halfen
62
7
10
 247.441
20
-82.758
30
0
0
VERTEX
8
Halfen
62
7
10
 248.5
20
-82.8
30
0
0
VERTEX
8
Halfen
62
7
10
 251.5
20
-82.8
30
0
0
VERTEX
8
Halfen
62
7
10
 252.559
20
-82.758
30
0
0
VERTEX
8
Halfen
62
7
10
 253.612
20
-82.634
30
0
0
VERTEX
8
Halfen
62
7
10
 254.652
20
-82.427
30
0
0
VERTEX
8
Halfen
62
7
10
 255.672
20
-82.139
30
0
0
VERTEX
8
Halfen
62
7
10
 256.666
20
-81.772
30
0
0
VERTEX
8
Halfen
62
7
10
 257.629
20
-81.329
30
0
0
VERTEX
8
Halfen
62
7
10
 258.554
20
-80.811
30
0
0
VERTEX
8
Halfen
62
7
10
 259.435
20
-80.222
30
0
0
VERTEX
8
Halfen
62
7
10
 260.268
20
-79.565
30
0
0
VERTEX
8
Halfen
62
7
10
 261.046
20
-78.846
30
0
0
VERTEX
8
Halfen
62
7
10
 261.765
20
-78.068
30
0
0
VERTEX
8
Halfen
62
7
10
 262.422
20
-77.235
30
0
0
VERTEX
8
Halfen
62
7
10
 263.011
20
-76.354
30
0
0
VERTEX
8
Halfen
62
7
10
 263.529
20
-75.429
30
0
0
VERTEX
8
Halfen
62
7
10
 263.972
20
-74.466
30
0
0
VERTEX
8
Halfen
62
7
10
 264.339
20
-73.472
30
0
0
VERTEX
8
Halfen
62
7
10
 264.627
20
-72.452
30
0
0
VERTEX
8
Halfen
62
7
10
 264.834
20
-71.412
30
0
0
VERTEX
8
Halfen
62
7
10
 264.958
20
-70.359
30
0
0
VERTEX
8
Halfen
62
7
10
 265
20
-69.3
30
0
0
SEQEND
8
Halfen
0
POLYLINE
8
Halfen
62
7
66
1
10
0.0
20
0.0
30
0.0
70
1
0
VERTEX
8
Halfen
62
7
10
 73
20
-456.927
30
0
0
VERTEX
8
Halfen
62
7
10
 73
20
 214.971
30
0
0
VERTEX
8
Halfen
62
7
10
 67
20
 214.971
30
0
0
VERTEX
8
Halfen
62
7
10
 67
20
-456.927
30
0
0
SEQEND
8
Halfen
0
POLYLINE
8
Halfen
62
7
66
1
10
0.0
20
0.0
30
0.0
70
1
0
VERTEX
8
Halfen
62
7
10
 193
20
-456.927
30
0
0
VERTEX
8
Halfen
62
7
10
 193
20
 214.971
30
0
0
VERTEX
8
Halfen
62
7
10
 187
20
 214.971
30
0
0
VERTEX
8
Halfen
62
7
10
 187
20
-456.927
30
0
0
SEQEND
8
Halfen
0
POLYLINE
8
Halfen
62
7
66
1
10
0.0
20
0.0
30
0.0
70
1
0
VERTEX
8
Halfen
62
7
10
 323
20
-456.927
30
0
0
VERTEX
8
Halfen
62
7
10
 323
20
 214.971
30
0
0
VERTEX
8
Halfen
62
7
10
 317
20
 214.971
30
0
0
VERTEX
8
Halfen
62
7
10
 317
20
-456.927
30
0
0
SEQEND
8
Halfen
0
POLYLINE
8
Halfen
62
7
66
1
10
0.0
20
0.0
30
0.0
70
1
0
VERTEX
8
Halfen
62
7
10
 443
20
-456.927
30
0
0
VERTEX
8
Halfen
62
7
10
 443
20
 214.971
30
0
0
VERTEX
8
Halfen
62
7
10
 437
20
 214.971
30
0
0
VERTEX
8
Halfen
62
7
10
 437
20
-456.927
30
0
0
SEQEND
8
Halfen
0
POLYLINE
8
Halfen
62
7
66
1
10
0.0
20
0.0
30
0.0
70
1
0
VERTEX
8
Halfen
62
7
10
 433
20
-456.927
30
0
0
VERTEX
8
Halfen
62
7
10
 433
20
 214.971
30
0
0
VERTEX
8
Halfen
62
7
10
 427
20
 214.971
30
0
0
VERTEX
8
Halfen
62
7
10
 427
20
-456.927
30
0
0
SEQEND
8
Halfen
0
POLYLINE
8
Halfen
62
7
66
1
10
0.0
20
0.0
30
0.0
70
1
0
VERTEX
8
Halfen
62
7
10
 313
20
-456.927
30
0
0
VERTEX
8
Halfen
62
7
10
 313
20
 214.971
30
0
0
VERTEX
8
Halfen
62
7
10
 307
20
 214.971
30
0
0
VERTEX
8
Halfen
62
7
10
 307
20
-456.927
30
0
0
SEQEND
8
Halfen
0
POLYLINE
8
Halfen
62
7
66
1
10
0.0
20
0.0
30
0.0
70
1
0
VERTEX
8
Halfen
62
7
10
 183
20
-456.927
30
0
0
VERTEX
8
Halfen
62
7
10
 183
20
 214.971
30
0
0
VERTEX
8
Halfen
62
7
10
 177
20
 214.971
30
0
0
VERTEX
8
Halfen
62
7
10
 177
20
-456.927
30
0
0
SEQEND
8
Halfen
0
POLYLINE
8
Halfen
62
7
66
1
10
0.0
20
0.0
30
0.0
70
1
0
VERTEX
8
Halfen
62
7
10
 63
20
-456.927
30
0
0
VERTEX
8
Halfen
62
7
10
 63
20
 214.971
30
0
0
VERTEX
8
Halfen
62
7
10
 57
20
 214.971
30
0
0
VERTEX
8
Halfen
62
7
10
 57
20
-456.927
30
0
0
SEQEND
8
Halfen
0
POLYLINE
8
Halfen
62
7
66
1
10
0.0
20
0.0
30
0.0
70
1
0
VERTEX
8
Halfen
62
7
10
 890
20
-60
30
0
0
VERTEX
8
Halfen
62
7
10
 890
20
 60
30
0
0
VERTEX
8
Halfen
62
7
10
 876.5
20
 73.5
30
0
0
VERTEX
8
Halfen
62
7
10
 876.5
20
 60
30
0
0
VERTEX
8
Halfen
62
7
10
 750
20
 60
30
0
0
VERTEX
8
Halfen
62
7
10
 750
20
-60
30
0
0
VERTEX
8
Halfen
62
7
10
 876.5
20
-60
30
0
0
VERTEX
8
Halfen
62
7
10
 876.5
20
-73.5
30
0
0
SEQEND
8
Halfen
0
POLYLINE
8
Halfen
62
7
66
1
10
0.0
20
0.0
30
0.0
70
1
0
VERTEX
8
Halfen
62
7
10
 750
20
-60
30
0
0
VERTEX
8
Halfen
62
7
10
 750
20
 60
30
0
0
VERTEX
8
Halfen
62
7
10
 713.5
20
 60
30
0
0
VERTEX
8
Halfen
62
7
10
 713.5
20
 73.5
30
0
0
VERTEX
8
Halfen
62
7
10
 700
20
 60
30
0
0
VERTEX
8
Halfen
62
7
10
 700
20
-60
30
0
0
VERTEX
8
Halfen
62
7
10
 713.5
20
-73.5
30
0
0
VERTEX
8
Halfen
62
7
10
 713.5
20
-60
30
0
0
SEQEND
8
Halfen
0
POLYLINE
8
Halfen
62
7
66
1
10
0.0
20
0.0
30
0.0
70
1
0
VERTEX
8
Halfen
62
7
10
 887.5
20
-58.75
30
0
0
VERTEX
8
Halfen
62
7
10
 887.5
20
 58.75
30
0
0
VERTEX
8
Halfen
62
7
10
 879
20
 67.25
30
0
0
VERTEX
8
Halfen
62
7
10
 879
20
 58
30
0
0
VERTEX
8
Halfen
62
7
10
 752
20
 58
30
0
0
VERTEX
8
Halfen
62
7
10
 752
20
-58
30
0
0
VERTEX
8
Halfen
62
7
10
 879
20
-58
30
0
0
VERTEX
8
Halfen
62
7
10
 879
20
-67.25
30
0
0
SEQEND
8
Halfen
0
POLYLINE
8
Halfen
62
7
66
1
10
0.0
20
0.0
30
0.0
70
1
0
VERTEX
8
Halfen
62
7
10
 748
20
-58
30
0
0
VERTEX
8
Halfen
62
7
10
 748
20
 58
30
0
0
VERTEX
8
Halfen
62
7
10
 711
20
 58
30
0
0
VERTEX
8
Halfen
62
7
10
 711
20
 67.25
30
0
0
VERTEX
8
Halfen
62
7
10
 702.5
20
 58.75
30
0
0
VERTEX
8
Halfen
62
7
10
 702.5
20
-58.75
30
0
0
VERTEX
8
Halfen
62
7
10
 711
20
-67.25
30
0
0
VERTEX
8
Halfen
62
7
10
 711
20
-58
30
0
0
SEQEND
8
Halfen
0
POLYLINE
8
Halfen
62
7
66
1
10
0.0
20
0.0
30
0.0
70
1
0
VERTEX
8
Halfen
62
7
10
 875
20
-81.8
30
0
0
VERTEX
8
Halfen
62
7
10
 875
20
 81.8
30
0
0
VERTEX
8
Halfen
62
7
10
 871
20
 81.8
30
0
0
VERTEX
8
Halfen
62
7
10
 870.846
20
 81.797
30
0
0
VERTEX
8
Halfen
62
7
10
 870.691
20
 81.786
30
0
0
VERTEX
8
Halfen
62
7
10
 870.538
20
 81.769
30
0
0
VERTEX
8
Halfen
62
7
10
 870.385
20
 81.746
30
0
0
VERTEX
8
Halfen
62
7
10
 870.234
20
 81.715
30
0
0
VERTEX
8
Halfen
62
7
10
 870.084
20
 81.678
30
0
0
VERTEX
8
Halfen
62
7
10
 869.936
20
 81.634
30
0
0
VERTEX
8
Halfen
62
7
10
 869.789
20
 81.584
30
0
0
VERTEX
8
Halfen
62
7
10
 869.646
20
 81.527
30
0
0
VERTEX
8
Halfen
62
7
10
 869.505
20
 81.464
30
0
0
VERTEX
8
Halfen
62
7
10
 869.366
20
 81.395
30
0
0
VERTEX
8
Halfen
62
7
10
 869.231
20
 81.32
30
0
0
VERTEX
8
Halfen
62
7
10
 869.1
20
 81.239
30
0
0
VERTEX
8
Halfen
62
7
10
 868.972
20
 81.153
30
0
0
VERTEX
8
Halfen
62
7
10
 868.848
20
 81.06
30
0
0
VERTEX
8
Halfen
62
7
10
 868.728
20
 80.963
30
0
0
VERTEX
8
Halfen
62
7
10
 868.613
20
 80.86
30
0
0
VERTEX
8
Halfen
62
7
10
 868.502
20
 80.752
30
0
0
VERTEX
8
Halfen
62
7
10
 868.397
20
 80.639
30
0
0
VERTEX
8
Halfen
62
7
10
 868.296
20
 80.522
30
0
0
VERTEX
8
Halfen
62
7
10
 867.41
20
 79.491
30
0
0
VERTEX
8
Halfen
62
7
10
 866.479
20
 78.5
30
0
0
VERTEX
8
Halfen
62
7
10
 865.505
20
 77.551
30
0
0
VERTEX
8
Halfen
62
7
10
 864.491
20
 76.646
30
0
0
VERTEX
8
Halfen
62
7
10
 863.437
20
 75.787
30
0
0
VERTEX
8
Halfen
62
7
10
 862.347
20
 74.975
30
0
0
VERTEX
8
Halfen
62
7
10
 861.222
20
 74.211
30
0
0
VERTEX
8
Halfen
62
7
10
 860.064
20
 73.499
30
0
0
VERTEX
8
Halfen
62
7
10
 858.876
20
 72.838
30
0
0
VERTEX
8
Halfen
62
7
10
 857.66
20
 72.23
30
0
0
VERTEX
8
Halfen
62
7
10
 856.418
20
 71.676
30
0
0
VERTEX
8
Halfen
62
7
10
 855.153
20
 71.178
30
0
0
VERTEX
8
Halfen
62
7
10
 853.867
20
 70.736
30
0
0
VERTEX
8
Halfen
62
7
10
 852.563
20
 70.351
30
0
0
VERTEX
8
Halfen
62
7
10
 851.243
20
 70.024
30
0
0
VERTEX
8
Halfen
62
7
10
 849.911
20
 69.756
30
0
0
VERTEX
8
Halfen
62
7
10
 848.567
20
 69.547
30
0
0
VERTEX
8
Halfen
62
7
10
 847.216
20
 69.397
30
0
0
VERTEX
8
Halfen
62
7
10
 845.859
20
 69.307
30
0
0
VERTEX
8
Halfen
62
7
10
 844.5
20
 69.277
30
0
0
VERTEX
8
Halfen
62
7
10
 822.5
20
 69.277
30
0
0
VERTEX
8
Halfen
62
7
10
 821.141
20
 69.307
30
0
0
VERTEX
8
Halfen
62
7
10
 819.784
20
 69.397
30
0
0
VERTEX
8
Halfen
62
7
10
 818.433
20
 69.547
30
0
0
VERTEX
8
Halfen
62
7
10
 817.089
20
 69.756
30
0
0
VERTEX
8
Halfen
62
7
10
 815.757
20
 70.024
30
0
0
VERTEX
8
Halfen
62
7
10
 814.437
20
 70.351
30
0
0
VERTEX
8
Halfen
62
7
10
 813.133
20
 70.736
30
0
0
VERTEX
8
Halfen
62
7
10
 811.847
20
 71.178
30
0
0
VERTEX
8
Halfen
62
7
10
 810.582
20
 71.676
30
0
0
VERTEX
8
Halfen
62
7
10
 809.34
20
 72.23
30
0
0
VERTEX
8
Halfen
62
7
10
 808.124
20
 72.838
30
0
0
VERTEX
8
Halfen
62
7
10
 806.936
20
 73.499
30
0
0
VERTEX
8
Halfen
62
7
10
 805.778
20
 74.211
30
0
0
VERTEX
8
Halfen
62
7
10
 804.653
20
 74.975
30
0
0
VERTEX
8
Halfen
62
7
10
 803.563
20
 75.787
30
0
0
VERTEX
8
Halfen
62
7
10
 802.509
20
 76.646
30
0
0
VERTEX
8
Halfen
62
7
10
 801.495
20
 77.551
30
0
0
VERTEX
8
Halfen
62
7
10
 800.521
20
 78.5
30
0
0
VERTEX
8
Halfen
62
7
10
 799.59
20
 79.491
30
0
0
VERTEX
8
Halfen
62
7
10
 798.704
20
 80.522
30
0
0
VERTEX
8
Halfen
62
7
10
 798.603
20
 80.639
30
0
0
VERTEX
8
Halfen
62
7
10
 798.498
20
 80.752
30
0
0
VERTEX
8
Halfen
62
7
10
 798.387
20
 80.86
30
0
0
VERTEX
8
Halfen
62
7
10
 798.272
20
 80.963
30
0
0
VERTEX
8
Halfen
62
7
10
 798.152
20
 81.06
30
0
0
VERTEX
8
Halfen
62
7
10
 798.028
20
 81.153
30
0
0
VERTEX
8
Halfen
62
7
10
 797.9
20
 81.239
30
0
0
VERTEX
8
Halfen
62
7
10
 797.769
20
 81.32
30
0
0
VERTEX
8
Halfen
62
7
10
 797.634
20
 81.395
30
0
0
VERTEX
8
Halfen
62
7
10
 797.495
20
 81.464
30
0
0
VERTEX
8
Halfen
62
7
10
 797.354
20
 81.527
30
0
0
VERTEX
8
Halfen
62
7
10
 797.211
20
 81.584
30
0
0
VERTEX
8
Halfen
62
7
10
 797.064
20
 81.634
30
0
0
VERTEX
8
Halfen
62
7
10
 796.916
20
 81.678
30
0
0
VERTEX
8
Halfen
62
7
10
 796.766
20
 81.715
30
0
0
VERTEX
8
Halfen
62
7
10
 796.615
20
 81.746
30
0
0
VERTEX
8
Halfen
62
7
10
 796.462
20
 81.769
30
0
0
VERTEX
8
Halfen
62
7
10
 796.309
20
 81.786
30
0
0
VERTEX
8
Halfen
62
7
10
 796.154
20
 81.797
30
0
0
VERTEX
8
Halfen
62
7
10
 796
20
 81.8
30
0
0
VERTEX
8
Halfen
62
7
10
 792
20
 81.8
30
0
0
VERTEX
8
Halfen
62
7
10
 792
20
-81.8
30
0
0
VERTEX
8
Halfen
62
7
10
 796
20
-81.8
30
0
0
VERTEX
8
Halfen
62
7
10
 796.154
20
-81.797
30
0
0
VERTEX
8
Halfen
62
7
10
 796.309
20
-81.786
30
0
0
VERTEX
8
Halfen
62
7
10
 796.462
20
-81.769
30
0
0
VERTEX
8
Halfen
62
7
10
 796.615
20
-81.746
30
0
0
VERTEX
8
Halfen
62
7
10
 796.766
20
-81.715
30
0
0
VERTEX
8
Halfen
62
7
10
 796.916
20
-81.678
30
0
0
VERTEX
8
Halfen
62
7
10
 797.064
20
-81.634
30
0
0
VERTEX
8
Halfen
62
7
10
 797.211
20
-81.584
30
0
0
VERTEX
8
Halfen
62
7
10
 797.354
20
-81.527
30
0
0
VERTEX
8
Halfen
62
7
10
 797.495
20
-81.464
30
0
0
VERTEX
8
Halfen
62
7
10
 797.634
20
-81.395
30
0
0
VERTEX
8
Halfen
62
7
10
 797.769
20
-81.32
30
0
0
VERTEX
8
Halfen
62
7
10
 797.9
20
-81.239
30
0
0
VERTEX
8
Halfen
62
7
10
 798.028
20
-81.153
30
0
0
VERTEX
8
Halfen
62
7
10
 798.152
20
-81.06
30
0
0
VERTEX
8
Halfen
62
7
10
 798.272
20
-80.963
30
0
0
VERTEX
8
Halfen
62
7
10
 798.387
20
-80.86
30
0
0
VERTEX
8
Halfen
62
7
10
 798.498
20
-80.752
30
0
0
VERTEX
8
Halfen
62
7
10
 798.603
20
-80.639
30
0
0
VERTEX
8
Halfen
62
7
10
 798.704
20
-80.522
30
0
0
VERTEX
8
Halfen
62
7
10
 799.59
20
-79.491
30
0
0
VERTEX
8
Halfen
62
7
10
 800.521
20
-78.5
30
0
0
VERTEX
8
Halfen
62
7
10
 801.495
20
-77.551
30
0
0
VERTEX
8
Halfen
62
7
10
 802.509
20
-76.646
30
0
0
VERTEX
8
Halfen
62
7
10
 803.563
20
-75.787
30
0
0
VERTEX
8
Halfen
62
7
10
 804.653
20
-74.975
30
0
0
VERTEX
8
Halfen
62
7
10
 805.778
20
-74.211
30
0
0
VERTEX
8
Halfen
62
7
10
 806.936
20
-73.499
30
0
0
VERTEX
8
Halfen
62
7
10
 808.124
20
-72.838
30
0
0
VERTEX
8
Halfen
62
7
10
 809.34
20
-72.23
30
0
0
VERTEX
8
Halfen
62
7
10
 810.582
20
-71.676
30
0
0
VERTEX
8
Halfen
62
7
10
 811.847
20
-71.178
30
0
0
VERTEX
8
Halfen
62
7
10
 813.133
20
-70.736
30
0
0
VERTEX
8
Halfen
62
7
10
 814.437
20
-70.351
30
0
0
VERTEX
8
Halfen
62
7
10
 815.757
20
-70.024
30
0
0
VERTEX
8
Halfen
62
7
10
 817.089
20
-69.756
30
0
0
VERTEX
8
Halfen
62
7
10
 818.433
20
-69.547
30
0
0
VERTEX
8
Halfen
62
7
10
 819.784
20
-69.397
30
0
0
VERTEX
8
Halfen
62
7
10
 821.141
20
-69.307
30
0
0
VERTEX
8
Halfen
62
7
10
 822.5
20
-69.277
30
0
0
VERTEX
8
Halfen
62
7
10
 844.5
20
-69.277
30
0
0
VERTEX
8
Halfen
62
7
10
 845.859
20
-69.307
30
0
0
VERTEX
8
Halfen
62
7
10
 847.216
20
-69.397
30
0
0
VERTEX
8
Halfen
62
7
10
 848.567
20
-69.547
30
0
0
VERTEX
8
Halfen
62
7
10
 849.911
20
-69.756
30
0
0
VERTEX
8
Halfen
62
7
10
 851.243
20
-70.024
30
0
0
VERTEX
8
Halfen
62
7
10
 852.563
20
-70.351
30
0
0
VERTEX
8
Halfen
62
7
10
 853.867
20
-70.736
30
0
0
VERTEX
8
Halfen
62
7
10
 855.153
20
-71.178
30
0
0
VERTEX
8
Halfen
62
7
10
 856.418
20
-71.676
30
0
0
VERTEX
8
Halfen
62
7
10
 857.66
20
-72.23
30
0
0
VERTEX
8
Halfen
62
7
10
 858.876
20
-72.838
30
0
0
VERTEX
8
Halfen
62
7
10
 860.064
20
-73.499
30
0
0
VERTEX
8
Halfen
62
7
10
 861.222
20
-74.211
30
0
0
VERTEX
8
Halfen
62
7
10
 862.347
20
-74.975
30
0
0
VERTEX
8
Halfen
62
7
10
 863.437
20
-75.787
30
0
0
VERTEX
8
Halfen
62
7
10
 864.491
20
-76.646
30
0
0
VERTEX
8
Halfen
62
7
10
 865.505
20
-77.551
30
0
0
VERTEX
8
Halfen
62
7
10
 866.479
20
-78.5
30
0
0
VERTEX
8
Halfen
62
7
10
 867.41
20
-79.491
30
0
0
VERTEX
8
Halfen
62
7
10
 868.296
20
-80.522
30
0
0
VERTEX
8
Halfen
62
7
10
 868.397
20
-80.639
30
0
0
VERTEX
8
Halfen
62
7
10
 868.502
20
-80.752
30
0
0
VERTEX
8
Halfen
62
7
10
 868.613
20
-80.86
30
0
0
VERTEX
8
Halfen
62
7
10
 868.728
20
-80.963
30
0
0
VERTEX
8
Halfen
62
7
10
 868.848
20
-81.06
30
0
0
VERTEX
8
Halfen
62
7
10
 868.972
20
-81.153
30
0
0
VERTEX
8
Halfen
62
7
10
 869.1
20
-81.239
30
0
0
VERTEX
8
Halfen
62
7
10
 869.231
20
-81.32
30
0
0
VERTEX
8
Halfen
62
7
10
 869.366
20
-81.395
30
0
0
VERTEX
8
Halfen
62
7
10
 869.505
20
-81.464
30
0
0
VERTEX
8
Halfen
62
7
10
 869.646
20
-81.527
30
0
0
VERTEX
8
Halfen
62
7
10
 869.789
20
-81.584
30
0
0
VERTEX
8
Halfen
62
7
10
 869.936
20
-81.634
30
0
0
VERTEX
8
Halfen
62
7
10
 870.084
20
-81.678
30
0
0
VERTEX
8
Halfen
62
7
10
 870.234
20
-81.715
30
0
0
VERTEX
8
Halfen
62
7
10
 870.385
20
-81.746
30
0
0
VERTEX
8
Halfen
62
7
10
 870.538
20
-81.769
30
0
0
VERTEX
8
Halfen
62
7
10
 870.691
20
-81.786
30
0
0
VERTEX
8
Halfen
62
7
10
 870.846
20
-81.797
30
0
0
VERTEX
8
Halfen
62
7
10
 871
20
-81.8
30
0
0
SEQEND
8
Halfen
0
POLYLINE
8
Halfen
62
7
66
1
10
0.0
20
0.0
30
0.0
70
1
0
VERTEX
8
Halfen
62
7
10
 860
20
-456.927
30
0
0
VERTEX
8
Halfen
62
7
10
 860
20
-79.715
30
0
0
VERTEX
8
Halfen
62
7
10
 859.766
20
-76.375
30
0
0
VERTEX
8
Halfen
62
7
10
 859.07
20
-73.1
30
0
0
VERTEX
8
Halfen
62
7
10
 857.925
20
-69.953
30
0
0
VERTEX
8
Halfen
62
7
10
 856.353
20
-66.997
30
0
0
VERTEX
8
Halfen
62
7
10
 768.735
20
 73.221
30
0
0
VERTEX
8
Halfen
62
7
10
 767.556
20
 75.438
30
0
0
VERTEX
8
Halfen
62
7
10
 766.697
20
 77.798
30
0
0
VERTEX
8
Halfen
62
7
10
 766.175
20
 80.255
30
0
0
VERTEX
8
Halfen
62
7
10
 766
20
 82.76
30
0
0
VERTEX
8
Halfen
62
7
10
 766
20
 190.971
30
0
0
VERTEX
8
Halfen
62
7
10
 766.222
20
 193.787
30
0
0
VERTEX
8
Halfen
62
7
10
 766.881
20
 196.534
30
0
0
VERTEX
8
Halfen
62
7
10
 767.962
20
 199.143
30
0
0
VERTEX
8
Halfen
62
7
10
 769.438
20
 201.551
30
0
0
VERTEX
8
Halfen
62
7
10
 771.272
20
 203.699
30
0
0
VERTEX
8
Halfen
62
7
10
 773.42
20
 205.534
30
0
0
VERTEX
8
Halfen
62
7
10
 775.828
20
 207.009
30
0
0
VERTEX
8
Halfen
62
7
10
 778.438
20
 208.09
30
0
0
VERTEX
8
Halfen
62
7
10
 781.184
20
 208.75
30
0
0
VERTEX
8
Halfen
62
7
10
 784
20
 208.971
30
0
0
VERTEX
8
Halfen
62
7
10
 855
20
 208.971
30
0
0
VERTEX
8
Halfen
62
7
10
 855
20
 214.971
30
0
0
VERTEX
8
Halfen
62
7
10
 784
20
 214.971
30
0
0
VERTEX
8
Halfen
62
7
10
 780.246
20
 214.676
30
0
0
VERTEX
8
Halfen
62
7
10
 776.584
20
 213.797
30
0
0
VERTEX
8
Halfen
62
7
10
 773.104
20
 212.355
30
0
0
VERTEX
8
Halfen
62
7
10
 769.893
20
 210.388
30
0
0
VERTEX
8
Halfen
62
7
10
 767.029
20
 207.942
30
0
0
VERTEX
8
Halfen
62
7
10
 764.584
20
 205.078
30
0
0
VERTEX
8
Halfen
62
7
10
 762.616
20
 201.867
30
0
0
VERTEX
8
Halfen
62
7
10
 761.175
20
 198.388
30
0
0
VERTEX
8
Halfen
62
7
10
 760.295
20
 194.726
30
0
0
VERTEX
8
Halfen
62
7
10
 760
20
 190.971
30
0
0
VERTEX
8
Halfen
62
7
10
 760
20
 82.76
30
0
0
VERTEX
8
Halfen
62
7
10
 760.234
20
 79.419
30
0
0
VERTEX
8
Halfen
62
7
10
 760.93
20
 76.144
30
0
0
VERTEX
8
Halfen
62
7
10
 762.075
20
 72.998
30
0
0
VERTEX
8
Halfen
62
7
10
 763.647
20
 70.042
30
0
0
VERTEX
8
Halfen
62
7
10
 851.265
20
-70.177
30
0
0
VERTEX
8
Halfen
62
7
10
 852.444
20
-72.394
30
0
0
VERTEX
8
Halfen
62
7
10
 853.303
20
-74.754
30
0
0
VERTEX
8
Halfen
62
7
10
 853.825
20
-77.21
30
0
0
VERTEX
8
Halfen
62
7
10
 854
20
-79.715
30
0
0
VERTEX
8
Halfen
62
7
10
 854
20
-456.927
30
0
0
SEQEND
8
Halfen
0
POLYLINE
8
Halfen
62
7
66
1
10
0.0
20
0.0
30
0.0
70
1
0
VERTEX
8
Halfen
62
7
10
 760
20
-456.898
30
0
0
VERTEX
8
Halfen
62
7
10
 760
20
-79.686
30
0
0
VERTEX
8
Halfen
62
7
10
 760.234
20
-76.346
30
0
0
VERTEX
8
Halfen
62
7
10
 760.93
20
-73.071
30
0
0
VERTEX
8
Halfen
62
7
10
 762.075
20
-69.925
30
0
0
VERTEX
8
Halfen
62
7
10
 763.647
20
-66.968
30
0
0
VERTEX
8
Halfen
62
7
10
 851.265
20
 73.25
30
0
0
VERTEX
8
Halfen
62
7
10
 852.444
20
 75.467
30
0
0
VERTEX
8
Halfen
62
7
10
 853.303
20
 77.827
30
0
0
VERTEX
8
Halfen
62
7
10
 853.825
20
 80.283
30
0
0
VERTEX
8
Halfen
62
7
10
 854
20
 82.788
30
0
0
VERTEX
8
Halfen
62
7
10
 854
20
 191
30
0
0
VERTEX
8
Halfen
62
7
10
 853.778
20
 193.816
30
0
0
VERTEX
8
Halfen
62
7
10
 853.119
20
 196.562
30
0
0
VERTEX
8
Halfen
62
7
10
 852.038
20
 199.172
30
0
0
VERTEX
8
Halfen
62
7
10
 850.562
20
 201.58
30
0
0
VERTEX
8
Halfen
62
7
10
 848.728
20
 203.728
30
0
0
VERTEX
8
Halfen
62
7
10
 846.58
20
 205.562
30
0
0
VERTEX
8
Halfen
62
7
10
 844.172
20
 207.038
30
0
0
VERTEX
8
Halfen
62
7
10
 841.562
20
 208.119
30
0
0
VERTEX
8
Halfen
62
7
10
 838.816
20
 208.778
30
0
0
VERTEX
8
Halfen
62
7
10
 836
20
 209
30
0
0
VERTEX
8
Halfen
62
7
10
 765
20
 209
30
0
0
VERTEX
8
Halfen
62
7
10
 765
20
 215
30
0
0
VERTEX
8
Halfen
62
7
10
 836
20
 215
30
0
0
VERTEX
8
Halfen
62
7
10
 839.754
20
 214.705
30
0
0
VERTEX
8
Halfen
62
7
10
 843.416
20
 213.825
30
0
0
VERTEX
8
Halfen
62
7
10
 846.896
20
 212.384
30
0
0
VERTEX
8
Halfen
62
7
10
 850.107
20
 210.416
30
0
0
VERTEX
8
Halfen
62
7
10
 852.971
20
 207.971
30
0
0
VERTEX
8
Halfen
62
7
10
 855.416
20
 205.107
30
0
0
VERTEX
8
Halfen
62
7
10
 857.384
20
 201.896
30
0
0
VERTEX
8
Halfen
62
7
10
 858.825
20
 198.416
30
0
0
VERTEX
8
Halfen
62
7
10
 859.705
20
 194.754
30
0
0
VERTEX
8
Halfen
62
7
10
 860
20
 191
30
0
0
VERTEX
8
Halfen
62
7
10
 860
20
 82.788
30
0
0
VERTEX
8
Halfen
62
7
10
 859.766
20
 79.448
30
0
0
VERTEX
8
Halfen
62
7
10
 859.07
20
 76.173
30
0
0
VERTEX
8
Halfen
62
7
10
 857.925
20
 73.027
30
0
0
VERTEX
8
Halfen
62
7
10
 856.353
20
 70.07
30
0
0
VERTEX
8
Halfen
62
7
10
 768.735
20
-70.148
30
0
0
VERTEX
8
Halfen
62
7
10
 767.556
20
-72.365
30
0
0
VERTEX
8
Halfen
62
7
10
 766.697
20
-74.725
30
0
0
VERTEX
8
Halfen
62
7
10
 766.175
20
-77.181
30
0
0
VERTEX
8
Halfen
62
7
10
 766
20
-79.686
30
0
0
VERTEX
8
Halfen
62
7
10
 766
20
-456.898
30
0
0
SEQEND
8
Halfen
0
ENDSEC
0
EOF
