0
SECTION
2
HEADER
9
$EXTMIN
10
 0
20
 100
30
0.0
9
$EXTMAX
10
 0
20
 100
30
0.0
9
$LIMMIN
10
 100
20
 0
9
$LIMMAX
10
 0
20
 100
9
$PSLTSCALE
70
1
0
ENDSEC
0
SECTION
2
TABLES
0
TABLE
2
LAYER
70
2
0
LAYER
2
0
70
0
62
7
6
CONTINUOUS
0
LAYER
2
Halfen
70
0
62
7
6
CONTINUOUS
0
ENDTAB
0
ENDSEC
0
SECTION
2
ENTITIES
0
POLYLINE
8
Halfen
62
7
66
1
10
0.0
20
0.0
30
0.0
70
1
0
VERTEX
8
Halfen
62
7
10
 0
20
-73.5
30
0
0
VERTEX
8
Halfen
62
7
10
 1000
20
-73.5
30
0
0
VERTEX
8
Halfen
62
7
10
 1000
20
 73.5
30
0
0
VERTEX
8
Halfen
62
7
10
 0
20
 73.5
30
0
0
SEQEND
8
Halfen
0
POLYLINE
8
Halfen
62
7
66
1
10
0.0
20
0.0
30
0.0
70
1
0
VERTEX
8
Halfen
62
7
10
 0
20
-60
30
0
0
VERTEX
8
Halfen
62
7
10
 1000
20
-60
30
0
0
VERTEX
8
Halfen
62
7
10
 1000
20
 60
30
0
0
VERTEX
8
Halfen
62
7
10
 0
20
 60
30
0
0
SEQEND
8
Halfen
0
POLYLINE
8
Halfen
62
7
66
1
10
0.0
20
0.0
30
0.0
70
1
0
VERTEX
8
Halfen
62
7
10
 20
20
-32.5
30
0
0
VERTEX
8
Halfen
62
7
10
 37
20
-1.5
30
0
0
VERTEX
8
Halfen
62
7
10
 28
20
-1.5
30
0
0
VERTEX
8
Halfen
62
7
10
 28
20
 32.5
30
0
0
VERTEX
8
Halfen
62
7
10
 12
20
 32.5
30
0
0
VERTEX
8
Halfen
62
7
10
 12
20
-1.5
30
0
0
VERTEX
8
Halfen
62
7
10
 3
20
-1.5
30
0
0
SEQEND
8
Halfen
0
POLYLINE
8
Halfen
62
7
66
1
10
0.0
20
0.0
30
0.0
70
1
0
VERTEX
8
Halfen
62
7
10
 980
20
-32.5
30
0
0
VERTEX
8
Halfen
62
7
10
 997
20
-1.5
30
0
0
VERTEX
8
Halfen
62
7
10
 988
20
-1.5
30
0
0
VERTEX
8
Halfen
62
7
10
 988
20
 32.5
30
0
0
VERTEX
8
Halfen
62
7
10
 972
20
 32.5
30
0
0
VERTEX
8
Halfen
62
7
10
 972
20
-1.5
30
0
0
VERTEX
8
Halfen
62
7
10
 963
20
-1.5
30
0
0
SEQEND
8
Halfen
0
POLYLINE
8
Halfen
62
7
66
1
10
0.0
20
0.0
30
0.0
70
1
0
VERTEX
8
Halfen
62
7
10
 87
20
-456.927
30
0
0
VERTEX
8
Halfen
62
7
10
 87
20
 214.971
30
0
0
VERTEX
8
Halfen
62
7
10
 81
20
 214.971
30
0
0
VERTEX
8
Halfen
62
7
10
 81
20
-456.927
30
0
0
SEQEND
8
Halfen
0
POLYLINE
8
Halfen
62
7
66
1
10
0.0
20
0.0
30
0.0
70
1
0
VERTEX
8
Halfen
62
7
10
 215
20
-456.927
30
0
0
VERTEX
8
Halfen
62
7
10
 215
20
 214.971
30
0
0
VERTEX
8
Halfen
62
7
10
 209
20
 214.971
30
0
0
VERTEX
8
Halfen
62
7
10
 209
20
-456.927
30
0
0
SEQEND
8
Halfen
0
POLYLINE
8
Halfen
62
7
66
1
10
0.0
20
0.0
30
0.0
70
1
0
VERTEX
8
Halfen
62
7
10
 303
20
-456.927
30
0
0
VERTEX
8
Halfen
62
7
10
 303
20
 214.971
30
0
0
VERTEX
8
Halfen
62
7
10
 297
20
 214.971
30
0
0
VERTEX
8
Halfen
62
7
10
 297
20
-456.927
30
0
0
SEQEND
8
Halfen
0
POLYLINE
8
Halfen
62
7
66
1
10
0.0
20
0.0
30
0.0
70
1
0
VERTEX
8
Halfen
62
7
10
 431
20
-456.927
30
0
0
VERTEX
8
Halfen
62
7
10
 431
20
 214.971
30
0
0
VERTEX
8
Halfen
62
7
10
 425
20
 214.971
30
0
0
VERTEX
8
Halfen
62
7
10
 425
20
-456.927
30
0
0
SEQEND
8
Halfen
0
POLYLINE
8
Halfen
62
7
66
1
10
0.0
20
0.0
30
0.0
70
1
0
VERTEX
8
Halfen
62
7
10
 509
20
-456.927
30
0
0
VERTEX
8
Halfen
62
7
10
 509
20
 214.971
30
0
0
VERTEX
8
Halfen
62
7
10
 503
20
 214.971
30
0
0
VERTEX
8
Halfen
62
7
10
 503
20
-456.927
30
0
0
SEQEND
8
Halfen
0
POLYLINE
8
Halfen
62
7
66
1
10
0.0
20
0.0
30
0.0
70
1
0
VERTEX
8
Halfen
62
7
10
 587
20
-456.927
30
0
0
VERTEX
8
Halfen
62
7
10
 587
20
 214.971
30
0
0
VERTEX
8
Halfen
62
7
10
 581
20
 214.971
30
0
0
VERTEX
8
Halfen
62
7
10
 581
20
-456.927
30
0
0
SEQEND
8
Halfen
0
POLYLINE
8
Halfen
62
7
66
1
10
0.0
20
0.0
30
0.0
70
1
0
VERTEX
8
Halfen
62
7
10
 715
20
-456.927
30
0
0
VERTEX
8
Halfen
62
7
10
 715
20
 214.971
30
0
0
VERTEX
8
Halfen
62
7
10
 709
20
 214.971
30
0
0
VERTEX
8
Halfen
62
7
10
 709
20
-456.927
30
0
0
SEQEND
8
Halfen
0
POLYLINE
8
Halfen
62
7
66
1
10
0.0
20
0.0
30
0.0
70
1
0
VERTEX
8
Halfen
62
7
10
 803
20
-456.927
30
0
0
VERTEX
8
Halfen
62
7
10
 803
20
 214.971
30
0
0
VERTEX
8
Halfen
62
7
10
 797
20
 214.971
30
0
0
VERTEX
8
Halfen
62
7
10
 797
20
-456.927
30
0
0
SEQEND
8
Halfen
0
POLYLINE
8
Halfen
62
7
66
1
10
0.0
20
0.0
30
0.0
70
1
0
VERTEX
8
Halfen
62
7
10
 931
20
-456.927
30
0
0
VERTEX
8
Halfen
62
7
10
 931
20
 214.971
30
0
0
VERTEX
8
Halfen
62
7
10
 925
20
 214.971
30
0
0
VERTEX
8
Halfen
62
7
10
 925
20
-456.927
30
0
0
SEQEND
8
Halfen
0
POLYLINE
8
Halfen
62
7
66
1
10
0.0
20
0.0
30
0.0
70
1
0
VERTEX
8
Halfen
62
7
10
 1390
20
-60
30
0
0
VERTEX
8
Halfen
62
7
10
 1390
20
 60
30
0
0
VERTEX
8
Halfen
62
7
10
 1376.5
20
 73.5
30
0
0
VERTEX
8
Halfen
62
7
10
 1376.5
20
 60
30
0
0
VERTEX
8
Halfen
62
7
10
 1250
20
 60
30
0
0
VERTEX
8
Halfen
62
7
10
 1250
20
-60
30
0
0
VERTEX
8
Halfen
62
7
10
 1376.5
20
-60
30
0
0
VERTEX
8
Halfen
62
7
10
 1376.5
20
-73.5
30
0
0
SEQEND
8
Halfen
0
POLYLINE
8
Halfen
62
7
66
1
10
0.0
20
0.0
30
0.0
70
1
0
VERTEX
8
Halfen
62
7
10
 1250
20
-60
30
0
0
VERTEX
8
Halfen
62
7
10
 1250
20
 60
30
0
0
VERTEX
8
Halfen
62
7
10
 1213.5
20
 60
30
0
0
VERTEX
8
Halfen
62
7
10
 1213.5
20
 73.5
30
0
0
VERTEX
8
Halfen
62
7
10
 1200
20
 60
30
0
0
VERTEX
8
Halfen
62
7
10
 1200
20
-60
30
0
0
VERTEX
8
Halfen
62
7
10
 1213.5
20
-73.5
30
0
0
VERTEX
8
Halfen
62
7
10
 1213.5
20
-60
30
0
0
SEQEND
8
Halfen
0
POLYLINE
8
Halfen
62
7
66
1
10
0.0
20
0.0
30
0.0
70
1
0
VERTEX
8
Halfen
62
7
10
 1387.5
20
-58.75
30
0
0
VERTEX
8
Halfen
62
7
10
 1387.5
20
 58.75
30
0
0
VERTEX
8
Halfen
62
7
10
 1379
20
 67.25
30
0
0
VERTEX
8
Halfen
62
7
10
 1379
20
 58
30
0
0
VERTEX
8
Halfen
62
7
10
 1252
20
 58
30
0
0
VERTEX
8
Halfen
62
7
10
 1252
20
-58
30
0
0
VERTEX
8
Halfen
62
7
10
 1379
20
-58
30
0
0
VERTEX
8
Halfen
62
7
10
 1379
20
-67.25
30
0
0
SEQEND
8
Halfen
0
POLYLINE
8
Halfen
62
7
66
1
10
0.0
20
0.0
30
0.0
70
1
0
VERTEX
8
Halfen
62
7
10
 1248
20
-58
30
0
0
VERTEX
8
Halfen
62
7
10
 1248
20
 58
30
0
0
VERTEX
8
Halfen
62
7
10
 1211
20
 58
30
0
0
VERTEX
8
Halfen
62
7
10
 1211
20
 67.25
30
0
0
VERTEX
8
Halfen
62
7
10
 1202.5
20
 58.75
30
0
0
VERTEX
8
Halfen
62
7
10
 1202.5
20
-58.75
30
0
0
VERTEX
8
Halfen
62
7
10
 1211
20
-67.25
30
0
0
VERTEX
8
Halfen
62
7
10
 1211
20
-58
30
0
0
SEQEND
8
Halfen
0
POLYLINE
8
Halfen
62
7
66
1
10
0.0
20
0.0
30
0.0
70
1
0
VERTEX
8
Halfen
62
7
10
 1360
20
-456.927
30
0
0
VERTEX
8
Halfen
62
7
10
 1360
20
-79.715
30
0
0
VERTEX
8
Halfen
62
7
10
 1359.766
20
-76.375
30
0
0
VERTEX
8
Halfen
62
7
10
 1359.07
20
-73.1
30
0
0
VERTEX
8
Halfen
62
7
10
 1357.925
20
-69.953
30
0
0
VERTEX
8
Halfen
62
7
10
 1356.353
20
-66.997
30
0
0
VERTEX
8
Halfen
62
7
10
 1268.735
20
 73.221
30
0
0
VERTEX
8
Halfen
62
7
10
 1267.556
20
 75.438
30
0
0
VERTEX
8
Halfen
62
7
10
 1266.697
20
 77.798
30
0
0
VERTEX
8
Halfen
62
7
10
 1266.175
20
 80.255
30
0
0
VERTEX
8
Halfen
62
7
10
 1266
20
 82.76
30
0
0
VERTEX
8
Halfen
62
7
10
 1266
20
 190.971
30
0
0
VERTEX
8
Halfen
62
7
10
 1266.222
20
 193.787
30
0
0
VERTEX
8
Halfen
62
7
10
 1266.881
20
 196.534
30
0
0
VERTEX
8
Halfen
62
7
10
 1267.962
20
 199.143
30
0
0
VERTEX
8
Halfen
62
7
10
 1269.438
20
 201.551
30
0
0
VERTEX
8
Halfen
62
7
10
 1271.272
20
 203.699
30
0
0
VERTEX
8
Halfen
62
7
10
 1273.42
20
 205.534
30
0
0
VERTEX
8
Halfen
62
7
10
 1275.828
20
 207.009
30
0
0
VERTEX
8
Halfen
62
7
10
 1278.438
20
 208.09
30
0
0
VERTEX
8
Halfen
62
7
10
 1281.184
20
 208.75
30
0
0
VERTEX
8
Halfen
62
7
10
 1284
20
 208.971
30
0
0
VERTEX
8
Halfen
62
7
10
 1306
20
 208.971
30
0
0
VERTEX
8
Halfen
62
7
10
 1308.816
20
 208.75
30
0
0
VERTEX
8
Halfen
62
7
10
 1311.562
20
 208.09
30
0
0
VERTEX
8
Halfen
62
7
10
 1314.172
20
 207.009
30
0
0
VERTEX
8
Halfen
62
7
10
 1316.58
20
 205.534
30
0
0
VERTEX
8
Halfen
62
7
10
 1318.728
20
 203.699
30
0
0
VERTEX
8
Halfen
62
7
10
 1320.562
20
 201.551
30
0
0
VERTEX
8
Halfen
62
7
10
 1322.038
20
 199.143
30
0
0
VERTEX
8
Halfen
62
7
10
 1323.119
20
 196.534
30
0
0
VERTEX
8
Halfen
62
7
10
 1323.778
20
 193.787
30
0
0
VERTEX
8
Halfen
62
7
10
 1324
20
 190.971
30
0
0
VERTEX
8
Halfen
62
7
10
 1324
20
 138.971
30
0
0
VERTEX
8
Halfen
62
7
10
 1330
20
 138.971
30
0
0
VERTEX
8
Halfen
62
7
10
 1330
20
 190.971
30
0
0
VERTEX
8
Halfen
62
7
10
 1329.705
20
 194.726
30
0
0
VERTEX
8
Halfen
62
7
10
 1328.825
20
 198.388
30
0
0
VERTEX
8
Halfen
62
7
10
 1327.384
20
 201.867
30
0
0
VERTEX
8
Halfen
62
7
10
 1325.416
20
 205.078
30
0
0
VERTEX
8
Halfen
62
7
10
 1322.971
20
 207.942
30
0
0
VERTEX
8
Halfen
62
7
10
 1320.107
20
 210.388
30
0
0
VERTEX
8
Halfen
62
7
10
 1316.896
20
 212.355
30
0
0
VERTEX
8
Halfen
62
7
10
 1313.416
20
 213.797
30
0
0
VERTEX
8
Halfen
62
7
10
 1309.754
20
 214.676
30
0
0
VERTEX
8
Halfen
62
7
10
 1306
20
 214.971
30
0
0
VERTEX
8
Halfen
62
7
10
 1284
20
 214.971
30
0
0
VERTEX
8
Halfen
62
7
10
 1280.246
20
 214.676
30
0
0
VERTEX
8
Halfen
62
7
10
 1276.584
20
 213.797
30
0
0
VERTEX
8
Halfen
62
7
10
 1273.104
20
 212.355
30
0
0
VERTEX
8
Halfen
62
7
10
 1269.893
20
 210.388
30
0
0
VERTEX
8
Halfen
62
7
10
 1267.029
20
 207.942
30
0
0
VERTEX
8
Halfen
62
7
10
 1264.584
20
 205.078
30
0
0
VERTEX
8
Halfen
62
7
10
 1262.616
20
 201.867
30
0
0
VERTEX
8
Halfen
62
7
10
 1261.175
20
 198.388
30
0
0
VERTEX
8
Halfen
62
7
10
 1260.295
20
 194.726
30
0
0
VERTEX
8
Halfen
62
7
10
 1260
20
 190.971
30
0
0
VERTEX
8
Halfen
62
7
10
 1260
20
 82.76
30
0
0
VERTEX
8
Halfen
62
7
10
 1260.234
20
 79.419
30
0
0
VERTEX
8
Halfen
62
7
10
 1260.93
20
 76.144
30
0
0
VERTEX
8
Halfen
62
7
10
 1262.075
20
 72.998
30
0
0
VERTEX
8
Halfen
62
7
10
 1263.647
20
 70.042
30
0
0
VERTEX
8
Halfen
62
7
10
 1351.265
20
-70.177
30
0
0
VERTEX
8
Halfen
62
7
10
 1352.444
20
-72.394
30
0
0
VERTEX
8
Halfen
62
7
10
 1353.303
20
-74.754
30
0
0
VERTEX
8
Halfen
62
7
10
 1353.825
20
-77.21
30
0
0
VERTEX
8
Halfen
62
7
10
 1354
20
-79.715
30
0
0
VERTEX
8
Halfen
62
7
10
 1354
20
-456.927
30
0
0
SEQEND
8
Halfen
0
ENDSEC
0
EOF
