0
SECTION
2
HEADER
9
$EXTMIN
10
 0
20
 100
30
0.0
9
$EXTMAX
10
 0
20
 100
30
0.0
9
$LIMMIN
10
 100
20
 0
9
$LIMMAX
10
 0
20
 100
9
$PSLTSCALE
70
1
0
ENDSEC
0
SECTION
2
TABLES
0
TABLE
2
LAYER
70
2
0
LAYER
2
0
70
0
62
7
6
CONTINUOUS
0
LAYER
2
Halfen
70
0
62
7
6
CONTINUOUS
0
ENDTAB
0
ENDSEC
0
SECTION
2
ENTITIES
0
POLYLINE
8
Halfen
62
7
66
1
10
0.0
20
0.0
30
0.0
70
1
0
VERTEX
8
Halfen
62
7
10
 0
20
-73.5
30
0
0
VERTEX
8
Halfen
62
7
10
 500
20
-73.5
30
0
0
VERTEX
8
Halfen
62
7
10
 500
20
 73.5
30
0
0
VERTEX
8
Halfen
62
7
10
 0
20
 73.5
30
0
0
SEQEND
8
Halfen
0
POLYLINE
8
Halfen
62
7
66
1
10
0.0
20
0.0
30
0.0
70
1
0
VERTEX
8
Halfen
62
7
10
 0
20
-60
30
0
0
VERTEX
8
Halfen
62
7
10
 500
20
-60
30
0
0
VERTEX
8
Halfen
62
7
10
 500
20
 60
30
0
0
VERTEX
8
Halfen
62
7
10
 0
20
 60
30
0
0
SEQEND
8
Halfen
0
POLYLINE
8
Halfen
62
7
66
1
10
0.0
20
0.0
30
0.0
70
1
0
VERTEX
8
Halfen
62
7
10
 20
20
-32.5
30
0
0
VERTEX
8
Halfen
62
7
10
 37
20
-1.5
30
0
0
VERTEX
8
Halfen
62
7
10
 28
20
-1.5
30
0
0
VERTEX
8
Halfen
62
7
10
 28
20
 32.5
30
0
0
VERTEX
8
Halfen
62
7
10
 12
20
 32.5
30
0
0
VERTEX
8
Halfen
62
7
10
 12
20
-1.5
30
0
0
VERTEX
8
Halfen
62
7
10
 3
20
-1.5
30
0
0
SEQEND
8
Halfen
0
POLYLINE
8
Halfen
62
7
66
1
10
0.0
20
0.0
30
0.0
70
1
0
VERTEX
8
Halfen
62
7
10
 480
20
-32.5
30
0
0
VERTEX
8
Halfen
62
7
10
 497
20
-1.5
30
0
0
VERTEX
8
Halfen
62
7
10
 488
20
-1.5
30
0
0
VERTEX
8
Halfen
62
7
10
 488
20
 32.5
30
0
0
VERTEX
8
Halfen
62
7
10
 472
20
 32.5
30
0
0
VERTEX
8
Halfen
62
7
10
 472
20
-1.5
30
0
0
VERTEX
8
Halfen
62
7
10
 463
20
-1.5
30
0
0
SEQEND
8
Halfen
0
POLYLINE
8
Halfen
62
7
66
1
10
0.0
20
0.0
30
0.0
70
1
0
VERTEX
8
Halfen
62
7
10
 87
20
-456.927
30
0
0
VERTEX
8
Halfen
62
7
10
 87
20
 214.971
30
0
0
VERTEX
8
Halfen
62
7
10
 81
20
 214.971
30
0
0
VERTEX
8
Halfen
62
7
10
 81
20
-456.927
30
0
0
SEQEND
8
Halfen
0
POLYLINE
8
Halfen
62
7
66
1
10
0.0
20
0.0
30
0.0
70
1
0
VERTEX
8
Halfen
62
7
10
 173
20
-456.927
30
0
0
VERTEX
8
Halfen
62
7
10
 173
20
 214.971
30
0
0
VERTEX
8
Halfen
62
7
10
 167
20
 214.971
30
0
0
VERTEX
8
Halfen
62
7
10
 167
20
-456.927
30
0
0
SEQEND
8
Halfen
0
POLYLINE
8
Halfen
62
7
66
1
10
0.0
20
0.0
30
0.0
70
1
0
VERTEX
8
Halfen
62
7
10
 259
20
-456.927
30
0
0
VERTEX
8
Halfen
62
7
10
 259
20
 214.971
30
0
0
VERTEX
8
Halfen
62
7
10
 253
20
 214.971
30
0
0
VERTEX
8
Halfen
62
7
10
 253
20
-456.927
30
0
0
SEQEND
8
Halfen
0
POLYLINE
8
Halfen
62
7
66
1
10
0.0
20
0.0
30
0.0
70
1
0
VERTEX
8
Halfen
62
7
10
 345
20
-456.927
30
0
0
VERTEX
8
Halfen
62
7
10
 345
20
 214.971
30
0
0
VERTEX
8
Halfen
62
7
10
 339
20
 214.971
30
0
0
VERTEX
8
Halfen
62
7
10
 339
20
-456.927
30
0
0
SEQEND
8
Halfen
0
POLYLINE
8
Halfen
62
7
66
1
10
0.0
20
0.0
30
0.0
70
1
0
VERTEX
8
Halfen
62
7
10
 431
20
-456.927
30
0
0
VERTEX
8
Halfen
62
7
10
 431
20
 214.971
30
0
0
VERTEX
8
Halfen
62
7
10
 425
20
 214.971
30
0
0
VERTEX
8
Halfen
62
7
10
 425
20
-456.927
30
0
0
SEQEND
8
Halfen
0
POLYLINE
8
Halfen
62
7
66
1
10
0.0
20
0.0
30
0.0
70
1
0
VERTEX
8
Halfen
62
7
10
 870
20
-60
30
0
0
VERTEX
8
Halfen
62
7
10
 870
20
 60
30
0
0
VERTEX
8
Halfen
62
7
10
 856.5
20
 73.5
30
0
0
VERTEX
8
Halfen
62
7
10
 856.5
20
 60
30
0
0
VERTEX
8
Halfen
62
7
10
 750
20
 60
30
0
0
VERTEX
8
Halfen
62
7
10
 750
20
-60
30
0
0
VERTEX
8
Halfen
62
7
10
 856.5
20
-60
30
0
0
VERTEX
8
Halfen
62
7
10
 856.5
20
-73.5
30
0
0
SEQEND
8
Halfen
0
POLYLINE
8
Halfen
62
7
66
1
10
0.0
20
0.0
30
0.0
70
1
0
VERTEX
8
Halfen
62
7
10
 750
20
-60
30
0
0
VERTEX
8
Halfen
62
7
10
 750
20
 60
30
0
0
VERTEX
8
Halfen
62
7
10
 713.5
20
 60
30
0
0
VERTEX
8
Halfen
62
7
10
 713.5
20
 73.5
30
0
0
VERTEX
8
Halfen
62
7
10
 700
20
 60
30
0
0
VERTEX
8
Halfen
62
7
10
 700
20
-60
30
0
0
VERTEX
8
Halfen
62
7
10
 713.5
20
-73.5
30
0
0
VERTEX
8
Halfen
62
7
10
 713.5
20
-60
30
0
0
SEQEND
8
Halfen
0
POLYLINE
8
Halfen
62
7
66
1
10
0.0
20
0.0
30
0.0
70
1
0
VERTEX
8
Halfen
62
7
10
 867.5
20
-58.75
30
0
0
VERTEX
8
Halfen
62
7
10
 867.5
20
 58.75
30
0
0
VERTEX
8
Halfen
62
7
10
 859
20
 67.25
30
0
0
VERTEX
8
Halfen
62
7
10
 859
20
 58
30
0
0
VERTEX
8
Halfen
62
7
10
 752
20
 58
30
0
0
VERTEX
8
Halfen
62
7
10
 752
20
-58
30
0
0
VERTEX
8
Halfen
62
7
10
 859
20
-58
30
0
0
VERTEX
8
Halfen
62
7
10
 859
20
-67.25
30
0
0
SEQEND
8
Halfen
0
POLYLINE
8
Halfen
62
7
66
1
10
0.0
20
0.0
30
0.0
70
1
0
VERTEX
8
Halfen
62
7
10
 748
20
-58
30
0
0
VERTEX
8
Halfen
62
7
10
 748
20
 58
30
0
0
VERTEX
8
Halfen
62
7
10
 711
20
 58
30
0
0
VERTEX
8
Halfen
62
7
10
 711
20
 67.25
30
0
0
VERTEX
8
Halfen
62
7
10
 702.5
20
 58.75
30
0
0
VERTEX
8
Halfen
62
7
10
 702.5
20
-58.75
30
0
0
VERTEX
8
Halfen
62
7
10
 711
20
-67.25
30
0
0
VERTEX
8
Halfen
62
7
10
 711
20
-58
30
0
0
SEQEND
8
Halfen
0
POLYLINE
8
Halfen
62
7
66
1
10
0.0
20
0.0
30
0.0
70
1
0
VERTEX
8
Halfen
62
7
10
 840
20
-456.927
30
0
0
VERTEX
8
Halfen
62
7
10
 840
20
-79.715
30
0
0
VERTEX
8
Halfen
62
7
10
 839.766
20
-76.375
30
0
0
VERTEX
8
Halfen
62
7
10
 839.07
20
-73.1
30
0
0
VERTEX
8
Halfen
62
7
10
 837.925
20
-69.953
30
0
0
VERTEX
8
Halfen
62
7
10
 836.353
20
-66.997
30
0
0
VERTEX
8
Halfen
62
7
10
 748.735
20
 73.221
30
0
0
VERTEX
8
Halfen
62
7
10
 747.556
20
 75.438
30
0
0
VERTEX
8
Halfen
62
7
10
 746.697
20
 77.798
30
0
0
VERTEX
8
Halfen
62
7
10
 746.175
20
 80.255
30
0
0
VERTEX
8
Halfen
62
7
10
 746
20
 82.76
30
0
0
VERTEX
8
Halfen
62
7
10
 746
20
 190.971
30
0
0
VERTEX
8
Halfen
62
7
10
 746.222
20
 193.787
30
0
0
VERTEX
8
Halfen
62
7
10
 746.881
20
 196.534
30
0
0
VERTEX
8
Halfen
62
7
10
 747.962
20
 199.143
30
0
0
VERTEX
8
Halfen
62
7
10
 749.438
20
 201.551
30
0
0
VERTEX
8
Halfen
62
7
10
 751.272
20
 203.699
30
0
0
VERTEX
8
Halfen
62
7
10
 753.42
20
 205.534
30
0
0
VERTEX
8
Halfen
62
7
10
 755.828
20
 207.009
30
0
0
VERTEX
8
Halfen
62
7
10
 758.438
20
 208.09
30
0
0
VERTEX
8
Halfen
62
7
10
 761.184
20
 208.75
30
0
0
VERTEX
8
Halfen
62
7
10
 764
20
 208.971
30
0
0
VERTEX
8
Halfen
62
7
10
 786
20
 208.971
30
0
0
VERTEX
8
Halfen
62
7
10
 788.816
20
 208.75
30
0
0
VERTEX
8
Halfen
62
7
10
 791.562
20
 208.09
30
0
0
VERTEX
8
Halfen
62
7
10
 794.172
20
 207.009
30
0
0
VERTEX
8
Halfen
62
7
10
 796.58
20
 205.534
30
0
0
VERTEX
8
Halfen
62
7
10
 798.728
20
 203.699
30
0
0
VERTEX
8
Halfen
62
7
10
 800.562
20
 201.551
30
0
0
VERTEX
8
Halfen
62
7
10
 802.038
20
 199.143
30
0
0
VERTEX
8
Halfen
62
7
10
 803.119
20
 196.534
30
0
0
VERTEX
8
Halfen
62
7
10
 803.778
20
 193.787
30
0
0
VERTEX
8
Halfen
62
7
10
 804
20
 190.971
30
0
0
VERTEX
8
Halfen
62
7
10
 804
20
 138.971
30
0
0
VERTEX
8
Halfen
62
7
10
 810
20
 138.971
30
0
0
VERTEX
8
Halfen
62
7
10
 810
20
 190.971
30
0
0
VERTEX
8
Halfen
62
7
10
 809.705
20
 194.726
30
0
0
VERTEX
8
Halfen
62
7
10
 808.825
20
 198.388
30
0
0
VERTEX
8
Halfen
62
7
10
 807.384
20
 201.867
30
0
0
VERTEX
8
Halfen
62
7
10
 805.416
20
 205.078
30
0
0
VERTEX
8
Halfen
62
7
10
 802.971
20
 207.942
30
0
0
VERTEX
8
Halfen
62
7
10
 800.107
20
 210.388
30
0
0
VERTEX
8
Halfen
62
7
10
 796.896
20
 212.355
30
0
0
VERTEX
8
Halfen
62
7
10
 793.416
20
 213.797
30
0
0
VERTEX
8
Halfen
62
7
10
 789.754
20
 214.676
30
0
0
VERTEX
8
Halfen
62
7
10
 786
20
 214.971
30
0
0
VERTEX
8
Halfen
62
7
10
 764
20
 214.971
30
0
0
VERTEX
8
Halfen
62
7
10
 760.246
20
 214.676
30
0
0
VERTEX
8
Halfen
62
7
10
 756.584
20
 213.797
30
0
0
VERTEX
8
Halfen
62
7
10
 753.104
20
 212.355
30
0
0
VERTEX
8
Halfen
62
7
10
 749.893
20
 210.388
30
0
0
VERTEX
8
Halfen
62
7
10
 747.029
20
 207.942
30
0
0
VERTEX
8
Halfen
62
7
10
 744.584
20
 205.078
30
0
0
VERTEX
8
Halfen
62
7
10
 742.616
20
 201.867
30
0
0
VERTEX
8
Halfen
62
7
10
 741.175
20
 198.388
30
0
0
VERTEX
8
Halfen
62
7
10
 740.295
20
 194.726
30
0
0
VERTEX
8
Halfen
62
7
10
 740
20
 190.971
30
0
0
VERTEX
8
Halfen
62
7
10
 740
20
 82.76
30
0
0
VERTEX
8
Halfen
62
7
10
 740.234
20
 79.419
30
0
0
VERTEX
8
Halfen
62
7
10
 740.93
20
 76.144
30
0
0
VERTEX
8
Halfen
62
7
10
 742.075
20
 72.998
30
0
0
VERTEX
8
Halfen
62
7
10
 743.647
20
 70.042
30
0
0
VERTEX
8
Halfen
62
7
10
 831.265
20
-70.177
30
0
0
VERTEX
8
Halfen
62
7
10
 832.444
20
-72.394
30
0
0
VERTEX
8
Halfen
62
7
10
 833.303
20
-74.754
30
0
0
VERTEX
8
Halfen
62
7
10
 833.825
20
-77.21
30
0
0
VERTEX
8
Halfen
62
7
10
 834
20
-79.715
30
0
0
VERTEX
8
Halfen
62
7
10
 834
20
-456.927
30
0
0
SEQEND
8
Halfen
0
ENDSEC
0
EOF
