0
SECTION
2
HEADER
9
$EXTMIN
10
 0
20
 100
30
0.0
9
$EXTMAX
10
 0
20
 100
30
0.0
9
$LIMMIN
10
 100
20
 0
9
$LIMMAX
10
 0
20
 100
9
$PSLTSCALE
70
1
0
ENDSEC
0
SECTION
2
TABLES
0
TABLE
2
LAYER
70
2
0
LAYER
2
0
70
0
62
7
6
CONTINUOUS
0
LAYER
2
Halfen
70
0
62
7
6
CONTINUOUS
0
ENDTAB
0
ENDSEC
0
SECTION
2
ENTITIES
0
POLYLINE
8
Halfen
62
7
66
1
10
0.0
20
0.0
30
0.0
70
1
0
VERTEX
8
Halfen
62
7
10
 0
20
-73.5
30
0
0
VERTEX
8
Halfen
62
7
10
 250
20
-73.5
30
0
0
VERTEX
8
Halfen
62
7
10
 250
20
 73.5
30
0
0
VERTEX
8
Halfen
62
7
10
 0
20
 73.5
30
0
0
SEQEND
8
Halfen
0
POLYLINE
8
Halfen
62
7
66
1
10
0.0
20
0.0
30
0.0
70
1
0
VERTEX
8
Halfen
62
7
10
 0
20
-60
30
0
0
VERTEX
8
Halfen
62
7
10
 250
20
-60
30
0
0
VERTEX
8
Halfen
62
7
10
 250
20
 60
30
0
0
VERTEX
8
Halfen
62
7
10
 0
20
 60
30
0
0
SEQEND
8
Halfen
0
POLYLINE
8
Halfen
62
7
66
1
10
0.0
20
0.0
30
0.0
70
1
0
VERTEX
8
Halfen
62
7
10
 20
20
-32.5
30
0
0
VERTEX
8
Halfen
62
7
10
 37
20
-1.5
30
0
0
VERTEX
8
Halfen
62
7
10
 28
20
-1.5
30
0
0
VERTEX
8
Halfen
62
7
10
 28
20
 32.5
30
0
0
VERTEX
8
Halfen
62
7
10
 12
20
 32.5
30
0
0
VERTEX
8
Halfen
62
7
10
 12
20
-1.5
30
0
0
VERTEX
8
Halfen
62
7
10
 3
20
-1.5
30
0
0
SEQEND
8
Halfen
0
POLYLINE
8
Halfen
62
7
66
1
10
0.0
20
0.0
30
0.0
70
1
0
VERTEX
8
Halfen
62
7
10
 230
20
-32.5
30
0
0
VERTEX
8
Halfen
62
7
10
 247
20
-1.5
30
0
0
VERTEX
8
Halfen
62
7
10
 238
20
-1.5
30
0
0
VERTEX
8
Halfen
62
7
10
 238
20
 32.5
30
0
0
VERTEX
8
Halfen
62
7
10
 222
20
 32.5
30
0
0
VERTEX
8
Halfen
62
7
10
 222
20
-1.5
30
0
0
VERTEX
8
Halfen
62
7
10
 213
20
-1.5
30
0
0
SEQEND
8
Halfen
0
POLYLINE
8
Halfen
62
7
66
1
10
0.0
20
0.0
30
0.0
70
1
0
VERTEX
8
Halfen
62
7
10
 74
20
-574.569
30
0
0
VERTEX
8
Halfen
62
7
10
 74
20
 583.197
30
0
0
VERTEX
8
Halfen
62
7
10
 66
20
 583.197
30
0
0
VERTEX
8
Halfen
62
7
10
 66
20
-574.569
30
0
0
SEQEND
8
Halfen
0
POLYLINE
8
Halfen
62
7
66
1
10
0.0
20
0.0
30
0.0
70
1
0
VERTEX
8
Halfen
62
7
10
 134
20
-574.569
30
0
0
VERTEX
8
Halfen
62
7
10
 134
20
 583.197
30
0
0
VERTEX
8
Halfen
62
7
10
 126
20
 583.197
30
0
0
VERTEX
8
Halfen
62
7
10
 126
20
-574.569
30
0
0
SEQEND
8
Halfen
0
POLYLINE
8
Halfen
62
7
66
1
10
0.0
20
0.0
30
0.0
70
1
0
VERTEX
8
Halfen
62
7
10
 194
20
-574.569
30
0
0
VERTEX
8
Halfen
62
7
10
 194
20
 583.197
30
0
0
VERTEX
8
Halfen
62
7
10
 186
20
 583.197
30
0
0
VERTEX
8
Halfen
62
7
10
 186
20
-574.569
30
0
0
SEQEND
8
Halfen
0
POLYLINE
8
Halfen
62
7
66
1
10
0.0
20
0.0
30
0.0
70
1
0
VERTEX
8
Halfen
62
7
10
 184
20
-574.569
30
0
0
VERTEX
8
Halfen
62
7
10
 184
20
 583.197
30
0
0
VERTEX
8
Halfen
62
7
10
 176
20
 583.197
30
0
0
VERTEX
8
Halfen
62
7
10
 176
20
-574.569
30
0
0
SEQEND
8
Halfen
0
POLYLINE
8
Halfen
62
7
66
1
10
0.0
20
0.0
30
0.0
70
1
0
VERTEX
8
Halfen
62
7
10
 124
20
-574.569
30
0
0
VERTEX
8
Halfen
62
7
10
 124
20
 583.197
30
0
0
VERTEX
8
Halfen
62
7
10
 116
20
 583.197
30
0
0
VERTEX
8
Halfen
62
7
10
 116
20
-574.569
30
0
0
SEQEND
8
Halfen
0
POLYLINE
8
Halfen
62
7
66
1
10
0.0
20
0.0
30
0.0
70
1
0
VERTEX
8
Halfen
62
7
10
 64
20
-574.569
30
0
0
VERTEX
8
Halfen
62
7
10
 64
20
 583.197
30
0
0
VERTEX
8
Halfen
62
7
10
 56
20
 583.197
30
0
0
VERTEX
8
Halfen
62
7
10
 56
20
-574.569
30
0
0
SEQEND
8
Halfen
0
POLYLINE
8
Halfen
62
7
66
1
10
0.0
20
0.0
30
0.0
70
1
0
VERTEX
8
Halfen
62
7
10
 710
20
-60
30
0
0
VERTEX
8
Halfen
62
7
10
 710
20
 60
30
0
0
VERTEX
8
Halfen
62
7
10
 696.5
20
 73.5
30
0
0
VERTEX
8
Halfen
62
7
10
 696.5
20
 60
30
0
0
VERTEX
8
Halfen
62
7
10
 500
20
 60
30
0
0
VERTEX
8
Halfen
62
7
10
 500
20
-60
30
0
0
VERTEX
8
Halfen
62
7
10
 696.5
20
-60
30
0
0
VERTEX
8
Halfen
62
7
10
 696.5
20
-73.5
30
0
0
SEQEND
8
Halfen
0
POLYLINE
8
Halfen
62
7
66
1
10
0.0
20
0.0
30
0.0
70
1
0
VERTEX
8
Halfen
62
7
10
 500
20
-60
30
0
0
VERTEX
8
Halfen
62
7
10
 500
20
 60
30
0
0
VERTEX
8
Halfen
62
7
10
 463.5
20
 60
30
0
0
VERTEX
8
Halfen
62
7
10
 463.5
20
 73.5
30
0
0
VERTEX
8
Halfen
62
7
10
 450
20
 60
30
0
0
VERTEX
8
Halfen
62
7
10
 450
20
-60
30
0
0
VERTEX
8
Halfen
62
7
10
 463.5
20
-73.5
30
0
0
VERTEX
8
Halfen
62
7
10
 463.5
20
-60
30
0
0
SEQEND
8
Halfen
0
POLYLINE
8
Halfen
62
7
66
1
10
0.0
20
0.0
30
0.0
70
1
0
VERTEX
8
Halfen
62
7
10
 707.5
20
-58.75
30
0
0
VERTEX
8
Halfen
62
7
10
 707.5
20
 58.75
30
0
0
VERTEX
8
Halfen
62
7
10
 699
20
 67.25
30
0
0
VERTEX
8
Halfen
62
7
10
 699
20
 58
30
0
0
VERTEX
8
Halfen
62
7
10
 502
20
 58
30
0
0
VERTEX
8
Halfen
62
7
10
 502
20
-58
30
0
0
VERTEX
8
Halfen
62
7
10
 699
20
-58
30
0
0
VERTEX
8
Halfen
62
7
10
 699
20
-67.25
30
0
0
SEQEND
8
Halfen
0
POLYLINE
8
Halfen
62
7
66
1
10
0.0
20
0.0
30
0.0
70
1
0
VERTEX
8
Halfen
62
7
10
 498
20
-58
30
0
0
VERTEX
8
Halfen
62
7
10
 498
20
 58
30
0
0
VERTEX
8
Halfen
62
7
10
 461
20
 58
30
0
0
VERTEX
8
Halfen
62
7
10
 461
20
 67.25
30
0
0
VERTEX
8
Halfen
62
7
10
 452.5
20
 58.75
30
0
0
VERTEX
8
Halfen
62
7
10
 452.5
20
-58.75
30
0
0
VERTEX
8
Halfen
62
7
10
 461
20
-67.25
30
0
0
VERTEX
8
Halfen
62
7
10
 461
20
-58
30
0
0
SEQEND
8
Halfen
0
POLYLINE
8
Halfen
62
7
66
1
10
0.0
20
0.0
30
0.0
70
1
0
VERTEX
8
Halfen
62
7
10
 680
20
-574.569
30
0
0
VERTEX
8
Halfen
62
7
10
 680
20
-88.284
30
0
0
VERTEX
8
Halfen
62
7
10
 679.606
20
-83.278
30
0
0
VERTEX
8
Halfen
62
7
10
 678.434
20
-78.396
30
0
0
VERTEX
8
Halfen
62
7
10
 676.512
20
-73.757
30
0
0
VERTEX
8
Halfen
62
7
10
 673.889
20
-69.475
30
0
0
VERTEX
8
Halfen
62
7
10
 670.627
20
-65.657
30
0
0
VERTEX
8
Halfen
62
7
10
 525.029
20
 79.941
30
0
0
VERTEX
8
Halfen
62
7
10
 522.584
20
 82.805
30
0
0
VERTEX
8
Halfen
62
7
10
 520.616
20
 86.016
30
0
0
VERTEX
8
Halfen
62
7
10
 519.175
20
 89.495
30
0
0
VERTEX
8
Halfen
62
7
10
 518.295
20
 93.157
30
0
0
VERTEX
8
Halfen
62
7
10
 518
20
 96.912
30
0
0
VERTEX
8
Halfen
62
7
10
 518
20
 583.197
30
0
0
VERTEX
8
Halfen
62
7
10
 510
20
 583.197
30
0
0
VERTEX
8
Halfen
62
7
10
 510
20
 96.912
30
0
0
VERTEX
8
Halfen
62
7
10
 510.394
20
 91.906
30
0
0
VERTEX
8
Halfen
62
7
10
 511.566
20
 87.023
30
0
0
VERTEX
8
Halfen
62
7
10
 513.488
20
 82.384
30
0
0
VERTEX
8
Halfen
62
7
10
 516.111
20
 78.103
30
0
0
VERTEX
8
Halfen
62
7
10
 519.373
20
 74.284
30
0
0
VERTEX
8
Halfen
62
7
10
 664.971
20
-71.314
30
0
0
VERTEX
8
Halfen
62
7
10
 667.416
20
-74.177
30
0
0
VERTEX
8
Halfen
62
7
10
 669.384
20
-77.388
30
0
0
VERTEX
8
Halfen
62
7
10
 670.825
20
-80.868
30
0
0
VERTEX
8
Halfen
62
7
10
 671.705
20
-84.53
30
0
0
VERTEX
8
Halfen
62
7
10
 672
20
-88.284
30
0
0
VERTEX
8
Halfen
62
7
10
 672
20
-574.569
30
0
0
SEQEND
8
Halfen
0
POLYLINE
8
Halfen
62
7
66
1
10
0.0
20
0.0
30
0.0
70
1
0
VERTEX
8
Halfen
62
7
10
 510
20
-574.569
30
0
0
VERTEX
8
Halfen
62
7
10
 510
20
-88.284
30
0
0
VERTEX
8
Halfen
62
7
10
 510.394
20
-83.278
30
0
0
VERTEX
8
Halfen
62
7
10
 511.566
20
-78.396
30
0
0
VERTEX
8
Halfen
62
7
10
 513.488
20
-73.757
30
0
0
VERTEX
8
Halfen
62
7
10
 516.111
20
-69.475
30
0
0
VERTEX
8
Halfen
62
7
10
 519.373
20
-65.657
30
0
0
VERTEX
8
Halfen
62
7
10
 664.971
20
 79.941
30
0
0
VERTEX
8
Halfen
62
7
10
 667.416
20
 82.805
30
0
0
VERTEX
8
Halfen
62
7
10
 669.384
20
 86.016
30
0
0
VERTEX
8
Halfen
62
7
10
 670.825
20
 89.495
30
0
0
VERTEX
8
Halfen
62
7
10
 671.705
20
 93.157
30
0
0
VERTEX
8
Halfen
62
7
10
 672
20
 96.912
30
0
0
VERTEX
8
Halfen
62
7
10
 672
20
 583.197
30
0
0
VERTEX
8
Halfen
62
7
10
 680
20
 583.197
30
0
0
VERTEX
8
Halfen
62
7
10
 680
20
 96.912
30
0
0
VERTEX
8
Halfen
62
7
10
 679.606
20
 91.906
30
0
0
VERTEX
8
Halfen
62
7
10
 678.434
20
 87.023
30
0
0
VERTEX
8
Halfen
62
7
10
 676.512
20
 82.384
30
0
0
VERTEX
8
Halfen
62
7
10
 673.889
20
 78.103
30
0
0
VERTEX
8
Halfen
62
7
10
 670.627
20
 74.284
30
0
0
VERTEX
8
Halfen
62
7
10
 525.029
20
-71.314
30
0
0
VERTEX
8
Halfen
62
7
10
 522.584
20
-74.177
30
0
0
VERTEX
8
Halfen
62
7
10
 520.616
20
-77.388
30
0
0
VERTEX
8
Halfen
62
7
10
 519.175
20
-80.868
30
0
0
VERTEX
8
Halfen
62
7
10
 518.295
20
-84.53
30
0
0
VERTEX
8
Halfen
62
7
10
 518
20
-88.284
30
0
0
VERTEX
8
Halfen
62
7
10
 518
20
-574.569
30
0
0
SEQEND
8
Halfen
0
ENDSEC
0
EOF
