0
SECTION
2
HEADER
9
$EXTMIN
10
 0
20
 100
30
0.0
9
$EXTMAX
10
 0
20
 100
30
0.0
9
$LIMMIN
10
 100
20
 0
9
$LIMMAX
10
 0
20
 100
9
$PSLTSCALE
70
1
0
ENDSEC
0
SECTION
2
TABLES
0
TABLE
2
LAYER
70
2
0
LAYER
2
0
70
0
62
7
6
CONTINUOUS
0
LAYER
2
Halfen
70
0
62
7
6
CONTINUOUS
0
ENDTAB
0
ENDSEC
0
SECTION
2
ENTITIES
0
POLYLINE
8
Halfen
62
7
66
1
10
0.0
20
0.0
30
0.0
70
1
0
VERTEX
8
Halfen
62
7
10
 0
20
-73.5
30
0
0
VERTEX
8
Halfen
62
7
10
 250
20
-73.5
30
0
0
VERTEX
8
Halfen
62
7
10
 250
20
 73.5
30
0
0
VERTEX
8
Halfen
62
7
10
 0
20
 73.5
30
0
0
SEQEND
8
Halfen
0
POLYLINE
8
Halfen
62
7
66
1
10
0.0
20
0.0
30
0.0
70
1
0
VERTEX
8
Halfen
62
7
10
 0
20
-60
30
0
0
VERTEX
8
Halfen
62
7
10
 250
20
-60
30
0
0
VERTEX
8
Halfen
62
7
10
 250
20
 60
30
0
0
VERTEX
8
Halfen
62
7
10
 0
20
 60
30
0
0
SEQEND
8
Halfen
0
POLYLINE
8
Halfen
62
7
66
1
10
0.0
20
0.0
30
0.0
70
1
0
VERTEX
8
Halfen
62
7
10
 20
20
-32.5
30
0
0
VERTEX
8
Halfen
62
7
10
 37
20
-1.5
30
0
0
VERTEX
8
Halfen
62
7
10
 28
20
-1.5
30
0
0
VERTEX
8
Halfen
62
7
10
 28
20
 32.5
30
0
0
VERTEX
8
Halfen
62
7
10
 12
20
 32.5
30
0
0
VERTEX
8
Halfen
62
7
10
 12
20
-1.5
30
0
0
VERTEX
8
Halfen
62
7
10
 3
20
-1.5
30
0
0
SEQEND
8
Halfen
0
POLYLINE
8
Halfen
62
7
66
1
10
0.0
20
0.0
30
0.0
70
1
0
VERTEX
8
Halfen
62
7
10
 230
20
-32.5
30
0
0
VERTEX
8
Halfen
62
7
10
 247
20
-1.5
30
0
0
VERTEX
8
Halfen
62
7
10
 238
20
-1.5
30
0
0
VERTEX
8
Halfen
62
7
10
 238
20
 32.5
30
0
0
VERTEX
8
Halfen
62
7
10
 222
20
 32.5
30
0
0
VERTEX
8
Halfen
62
7
10
 222
20
-1.5
30
0
0
VERTEX
8
Halfen
62
7
10
 213
20
-1.5
30
0
0
SEQEND
8
Halfen
0
POLYLINE
8
Halfen
62
7
66
1
10
0.0
20
0.0
30
0.0
70
1
0
VERTEX
8
Halfen
62
7
10
 140
20
-69.3
30
0
0
VERTEX
8
Halfen
62
7
10
 140
20
-56.8
30
0
0
VERTEX
8
Halfen
62
7
10
 140
20
 69.3
30
0
0
VERTEX
8
Halfen
62
7
10
 139.958
20
 70.359
30
0
0
VERTEX
8
Halfen
62
7
10
 139.834
20
 71.412
30
0
0
VERTEX
8
Halfen
62
7
10
 139.627
20
 72.452
30
0
0
VERTEX
8
Halfen
62
7
10
 139.339
20
 73.472
30
0
0
VERTEX
8
Halfen
62
7
10
 138.972
20
 74.466
30
0
0
VERTEX
8
Halfen
62
7
10
 138.529
20
 75.429
30
0
0
VERTEX
8
Halfen
62
7
10
 138.011
20
 76.354
30
0
0
VERTEX
8
Halfen
62
7
10
 137.422
20
 77.235
30
0
0
VERTEX
8
Halfen
62
7
10
 136.765
20
 78.068
30
0
0
VERTEX
8
Halfen
62
7
10
 136.046
20
 78.846
30
0
0
VERTEX
8
Halfen
62
7
10
 135.268
20
 79.565
30
0
0
VERTEX
8
Halfen
62
7
10
 134.435
20
 80.222
30
0
0
VERTEX
8
Halfen
62
7
10
 133.554
20
 80.811
30
0
0
VERTEX
8
Halfen
62
7
10
 132.629
20
 81.329
30
0
0
VERTEX
8
Halfen
62
7
10
 131.666
20
 81.772
30
0
0
VERTEX
8
Halfen
62
7
10
 130.672
20
 82.139
30
0
0
VERTEX
8
Halfen
62
7
10
 129.652
20
 82.427
30
0
0
VERTEX
8
Halfen
62
7
10
 128.612
20
 82.634
30
0
0
VERTEX
8
Halfen
62
7
10
 127.559
20
 82.758
30
0
0
VERTEX
8
Halfen
62
7
10
 126.5
20
 82.8
30
0
0
VERTEX
8
Halfen
62
7
10
 123.5
20
 82.8
30
0
0
VERTEX
8
Halfen
62
7
10
 122.441
20
 82.758
30
0
0
VERTEX
8
Halfen
62
7
10
 121.388
20
 82.634
30
0
0
VERTEX
8
Halfen
62
7
10
 120.348
20
 82.427
30
0
0
VERTEX
8
Halfen
62
7
10
 119.328
20
 82.139
30
0
0
VERTEX
8
Halfen
62
7
10
 118.334
20
 81.772
30
0
0
VERTEX
8
Halfen
62
7
10
 117.371
20
 81.329
30
0
0
VERTEX
8
Halfen
62
7
10
 116.446
20
 80.811
30
0
0
VERTEX
8
Halfen
62
7
10
 115.565
20
 80.222
30
0
0
VERTEX
8
Halfen
62
7
10
 114.732
20
 79.565
30
0
0
VERTEX
8
Halfen
62
7
10
 113.954
20
 78.846
30
0
0
VERTEX
8
Halfen
62
7
10
 113.235
20
 78.068
30
0
0
VERTEX
8
Halfen
62
7
10
 112.578
20
 77.235
30
0
0
VERTEX
8
Halfen
62
7
10
 111.989
20
 76.354
30
0
0
VERTEX
8
Halfen
62
7
10
 111.471
20
 75.429
30
0
0
VERTEX
8
Halfen
62
7
10
 111.028
20
 74.466
30
0
0
VERTEX
8
Halfen
62
7
10
 110.661
20
 73.472
30
0
0
VERTEX
8
Halfen
62
7
10
 110.373
20
 72.452
30
0
0
VERTEX
8
Halfen
62
7
10
 110.166
20
 71.412
30
0
0
VERTEX
8
Halfen
62
7
10
 110.042
20
 70.359
30
0
0
VERTEX
8
Halfen
62
7
10
 110
20
 69.3
30
0
0
VERTEX
8
Halfen
62
7
10
 110
20
-56.8
30
0
0
VERTEX
8
Halfen
62
7
10
 110
20
-69.3
30
0
0
VERTEX
8
Halfen
62
7
10
 110.042
20
-70.359
30
0
0
VERTEX
8
Halfen
62
7
10
 110.166
20
-71.412
30
0
0
VERTEX
8
Halfen
62
7
10
 110.373
20
-72.452
30
0
0
VERTEX
8
Halfen
62
7
10
 110.661
20
-73.472
30
0
0
VERTEX
8
Halfen
62
7
10
 111.028
20
-74.466
30
0
0
VERTEX
8
Halfen
62
7
10
 111.471
20
-75.429
30
0
0
VERTEX
8
Halfen
62
7
10
 111.989
20
-76.354
30
0
0
VERTEX
8
Halfen
62
7
10
 112.578
20
-77.235
30
0
0
VERTEX
8
Halfen
62
7
10
 113.235
20
-78.068
30
0
0
VERTEX
8
Halfen
62
7
10
 113.954
20
-78.846
30
0
0
VERTEX
8
Halfen
62
7
10
 114.732
20
-79.565
30
0
0
VERTEX
8
Halfen
62
7
10
 115.565
20
-80.222
30
0
0
VERTEX
8
Halfen
62
7
10
 116.446
20
-80.811
30
0
0
VERTEX
8
Halfen
62
7
10
 117.371
20
-81.329
30
0
0
VERTEX
8
Halfen
62
7
10
 118.334
20
-81.772
30
0
0
VERTEX
8
Halfen
62
7
10
 119.328
20
-82.139
30
0
0
VERTEX
8
Halfen
62
7
10
 120.348
20
-82.427
30
0
0
VERTEX
8
Halfen
62
7
10
 121.388
20
-82.634
30
0
0
VERTEX
8
Halfen
62
7
10
 122.441
20
-82.758
30
0
0
VERTEX
8
Halfen
62
7
10
 123.5
20
-82.8
30
0
0
VERTEX
8
Halfen
62
7
10
 126.5
20
-82.8
30
0
0
VERTEX
8
Halfen
62
7
10
 127.559
20
-82.758
30
0
0
VERTEX
8
Halfen
62
7
10
 128.612
20
-82.634
30
0
0
VERTEX
8
Halfen
62
7
10
 129.652
20
-82.427
30
0
0
VERTEX
8
Halfen
62
7
10
 130.672
20
-82.139
30
0
0
VERTEX
8
Halfen
62
7
10
 131.666
20
-81.772
30
0
0
VERTEX
8
Halfen
62
7
10
 132.629
20
-81.329
30
0
0
VERTEX
8
Halfen
62
7
10
 133.554
20
-80.811
30
0
0
VERTEX
8
Halfen
62
7
10
 134.435
20
-80.222
30
0
0
VERTEX
8
Halfen
62
7
10
 135.268
20
-79.565
30
0
0
VERTEX
8
Halfen
62
7
10
 136.046
20
-78.846
30
0
0
VERTEX
8
Halfen
62
7
10
 136.765
20
-78.068
30
0
0
VERTEX
8
Halfen
62
7
10
 137.422
20
-77.235
30
0
0
VERTEX
8
Halfen
62
7
10
 138.011
20
-76.354
30
0
0
VERTEX
8
Halfen
62
7
10
 138.529
20
-75.429
30
0
0
VERTEX
8
Halfen
62
7
10
 138.972
20
-74.466
30
0
0
VERTEX
8
Halfen
62
7
10
 139.339
20
-73.472
30
0
0
VERTEX
8
Halfen
62
7
10
 139.627
20
-72.452
30
0
0
VERTEX
8
Halfen
62
7
10
 139.834
20
-71.412
30
0
0
VERTEX
8
Halfen
62
7
10
 139.958
20
-70.359
30
0
0
VERTEX
8
Halfen
62
7
10
 140
20
-69.3
30
0
0
SEQEND
8
Halfen
0
POLYLINE
8
Halfen
62
7
66
1
10
0.0
20
0.0
30
0.0
70
1
0
VERTEX
8
Halfen
62
7
10
 194
20
-574.569
30
0
0
VERTEX
8
Halfen
62
7
10
 194
20
 583.197
30
0
0
VERTEX
8
Halfen
62
7
10
 186
20
 583.197
30
0
0
VERTEX
8
Halfen
62
7
10
 186
20
-574.569
30
0
0
SEQEND
8
Halfen
0
POLYLINE
8
Halfen
62
7
66
1
10
0.0
20
0.0
30
0.0
70
1
0
VERTEX
8
Halfen
62
7
10
 184
20
-574.569
30
0
0
VERTEX
8
Halfen
62
7
10
 184
20
 583.197
30
0
0
VERTEX
8
Halfen
62
7
10
 176
20
 583.197
30
0
0
VERTEX
8
Halfen
62
7
10
 176
20
-574.569
30
0
0
SEQEND
8
Halfen
0
POLYLINE
8
Halfen
62
7
66
1
10
0.0
20
0.0
30
0.0
70
1
0
VERTEX
8
Halfen
62
7
10
 710
20
-60
30
0
0
VERTEX
8
Halfen
62
7
10
 710
20
 60
30
0
0
VERTEX
8
Halfen
62
7
10
 696.5
20
 73.5
30
0
0
VERTEX
8
Halfen
62
7
10
 696.5
20
 60
30
0
0
VERTEX
8
Halfen
62
7
10
 500
20
 60
30
0
0
VERTEX
8
Halfen
62
7
10
 500
20
-60
30
0
0
VERTEX
8
Halfen
62
7
10
 696.5
20
-60
30
0
0
VERTEX
8
Halfen
62
7
10
 696.5
20
-73.5
30
0
0
SEQEND
8
Halfen
0
POLYLINE
8
Halfen
62
7
66
1
10
0.0
20
0.0
30
0.0
70
1
0
VERTEX
8
Halfen
62
7
10
 500
20
-60
30
0
0
VERTEX
8
Halfen
62
7
10
 500
20
 60
30
0
0
VERTEX
8
Halfen
62
7
10
 463.5
20
 60
30
0
0
VERTEX
8
Halfen
62
7
10
 463.5
20
 73.5
30
0
0
VERTEX
8
Halfen
62
7
10
 450
20
 60
30
0
0
VERTEX
8
Halfen
62
7
10
 450
20
-60
30
0
0
VERTEX
8
Halfen
62
7
10
 463.5
20
-73.5
30
0
0
VERTEX
8
Halfen
62
7
10
 463.5
20
-60
30
0
0
SEQEND
8
Halfen
0
POLYLINE
8
Halfen
62
7
66
1
10
0.0
20
0.0
30
0.0
70
1
0
VERTEX
8
Halfen
62
7
10
 707.5
20
-58.75
30
0
0
VERTEX
8
Halfen
62
7
10
 707.5
20
 58.75
30
0
0
VERTEX
8
Halfen
62
7
10
 699
20
 67.25
30
0
0
VERTEX
8
Halfen
62
7
10
 699
20
 58
30
0
0
VERTEX
8
Halfen
62
7
10
 502
20
 58
30
0
0
VERTEX
8
Halfen
62
7
10
 502
20
-58
30
0
0
VERTEX
8
Halfen
62
7
10
 699
20
-58
30
0
0
VERTEX
8
Halfen
62
7
10
 699
20
-67.25
30
0
0
SEQEND
8
Halfen
0
POLYLINE
8
Halfen
62
7
66
1
10
0.0
20
0.0
30
0.0
70
1
0
VERTEX
8
Halfen
62
7
10
 498
20
-58
30
0
0
VERTEX
8
Halfen
62
7
10
 498
20
 58
30
0
0
VERTEX
8
Halfen
62
7
10
 461
20
 58
30
0
0
VERTEX
8
Halfen
62
7
10
 461
20
 67.25
30
0
0
VERTEX
8
Halfen
62
7
10
 452.5
20
 58.75
30
0
0
VERTEX
8
Halfen
62
7
10
 452.5
20
-58.75
30
0
0
VERTEX
8
Halfen
62
7
10
 461
20
-67.25
30
0
0
VERTEX
8
Halfen
62
7
10
 461
20
-58
30
0
0
SEQEND
8
Halfen
0
POLYLINE
8
Halfen
62
7
66
1
10
0.0
20
0.0
30
0.0
70
1
0
VERTEX
8
Halfen
62
7
10
 695
20
-81.8
30
0
0
VERTEX
8
Halfen
62
7
10
 695
20
 81.8
30
0
0
VERTEX
8
Halfen
62
7
10
 691
20
 81.8
30
0
0
VERTEX
8
Halfen
62
7
10
 690.846
20
 81.797
30
0
0
VERTEX
8
Halfen
62
7
10
 690.691
20
 81.786
30
0
0
VERTEX
8
Halfen
62
7
10
 690.538
20
 81.769
30
0
0
VERTEX
8
Halfen
62
7
10
 690.385
20
 81.746
30
0
0
VERTEX
8
Halfen
62
7
10
 690.234
20
 81.715
30
0
0
VERTEX
8
Halfen
62
7
10
 690.084
20
 81.678
30
0
0
VERTEX
8
Halfen
62
7
10
 689.936
20
 81.634
30
0
0
VERTEX
8
Halfen
62
7
10
 689.789
20
 81.584
30
0
0
VERTEX
8
Halfen
62
7
10
 689.646
20
 81.527
30
0
0
VERTEX
8
Halfen
62
7
10
 689.505
20
 81.464
30
0
0
VERTEX
8
Halfen
62
7
10
 689.366
20
 81.395
30
0
0
VERTEX
8
Halfen
62
7
10
 689.231
20
 81.32
30
0
0
VERTEX
8
Halfen
62
7
10
 689.1
20
 81.239
30
0
0
VERTEX
8
Halfen
62
7
10
 688.972
20
 81.153
30
0
0
VERTEX
8
Halfen
62
7
10
 688.848
20
 81.06
30
0
0
VERTEX
8
Halfen
62
7
10
 688.728
20
 80.963
30
0
0
VERTEX
8
Halfen
62
7
10
 688.613
20
 80.86
30
0
0
VERTEX
8
Halfen
62
7
10
 688.502
20
 80.752
30
0
0
VERTEX
8
Halfen
62
7
10
 688.397
20
 80.639
30
0
0
VERTEX
8
Halfen
62
7
10
 688.296
20
 80.522
30
0
0
VERTEX
8
Halfen
62
7
10
 687.41
20
 79.491
30
0
0
VERTEX
8
Halfen
62
7
10
 686.479
20
 78.5
30
0
0
VERTEX
8
Halfen
62
7
10
 685.505
20
 77.551
30
0
0
VERTEX
8
Halfen
62
7
10
 684.491
20
 76.646
30
0
0
VERTEX
8
Halfen
62
7
10
 683.437
20
 75.787
30
0
0
VERTEX
8
Halfen
62
7
10
 682.347
20
 74.975
30
0
0
VERTEX
8
Halfen
62
7
10
 681.222
20
 74.211
30
0
0
VERTEX
8
Halfen
62
7
10
 680.064
20
 73.499
30
0
0
VERTEX
8
Halfen
62
7
10
 678.876
20
 72.838
30
0
0
VERTEX
8
Halfen
62
7
10
 677.66
20
 72.23
30
0
0
VERTEX
8
Halfen
62
7
10
 676.418
20
 71.676
30
0
0
VERTEX
8
Halfen
62
7
10
 675.153
20
 71.178
30
0
0
VERTEX
8
Halfen
62
7
10
 673.867
20
 70.736
30
0
0
VERTEX
8
Halfen
62
7
10
 672.563
20
 70.351
30
0
0
VERTEX
8
Halfen
62
7
10
 671.243
20
 70.024
30
0
0
VERTEX
8
Halfen
62
7
10
 669.911
20
 69.756
30
0
0
VERTEX
8
Halfen
62
7
10
 668.567
20
 69.547
30
0
0
VERTEX
8
Halfen
62
7
10
 667.216
20
 69.397
30
0
0
VERTEX
8
Halfen
62
7
10
 665.859
20
 69.307
30
0
0
VERTEX
8
Halfen
62
7
10
 664.5
20
 69.277
30
0
0
VERTEX
8
Halfen
62
7
10
 642.5
20
 69.277
30
0
0
VERTEX
8
Halfen
62
7
10
 641.141
20
 69.307
30
0
0
VERTEX
8
Halfen
62
7
10
 639.784
20
 69.397
30
0
0
VERTEX
8
Halfen
62
7
10
 638.433
20
 69.547
30
0
0
VERTEX
8
Halfen
62
7
10
 637.089
20
 69.756
30
0
0
VERTEX
8
Halfen
62
7
10
 635.757
20
 70.024
30
0
0
VERTEX
8
Halfen
62
7
10
 634.437
20
 70.351
30
0
0
VERTEX
8
Halfen
62
7
10
 633.133
20
 70.736
30
0
0
VERTEX
8
Halfen
62
7
10
 631.847
20
 71.178
30
0
0
VERTEX
8
Halfen
62
7
10
 630.582
20
 71.676
30
0
0
VERTEX
8
Halfen
62
7
10
 629.34
20
 72.23
30
0
0
VERTEX
8
Halfen
62
7
10
 628.124
20
 72.838
30
0
0
VERTEX
8
Halfen
62
7
10
 626.936
20
 73.499
30
0
0
VERTEX
8
Halfen
62
7
10
 625.778
20
 74.211
30
0
0
VERTEX
8
Halfen
62
7
10
 624.653
20
 74.975
30
0
0
VERTEX
8
Halfen
62
7
10
 623.563
20
 75.787
30
0
0
VERTEX
8
Halfen
62
7
10
 622.509
20
 76.646
30
0
0
VERTEX
8
Halfen
62
7
10
 621.495
20
 77.551
30
0
0
VERTEX
8
Halfen
62
7
10
 620.521
20
 78.5
30
0
0
VERTEX
8
Halfen
62
7
10
 619.59
20
 79.491
30
0
0
VERTEX
8
Halfen
62
7
10
 618.704
20
 80.522
30
0
0
VERTEX
8
Halfen
62
7
10
 618.603
20
 80.639
30
0
0
VERTEX
8
Halfen
62
7
10
 618.498
20
 80.752
30
0
0
VERTEX
8
Halfen
62
7
10
 618.387
20
 80.86
30
0
0
VERTEX
8
Halfen
62
7
10
 618.272
20
 80.963
30
0
0
VERTEX
8
Halfen
62
7
10
 618.152
20
 81.06
30
0
0
VERTEX
8
Halfen
62
7
10
 618.028
20
 81.153
30
0
0
VERTEX
8
Halfen
62
7
10
 617.9
20
 81.239
30
0
0
VERTEX
8
Halfen
62
7
10
 617.769
20
 81.32
30
0
0
VERTEX
8
Halfen
62
7
10
 617.634
20
 81.395
30
0
0
VERTEX
8
Halfen
62
7
10
 617.495
20
 81.464
30
0
0
VERTEX
8
Halfen
62
7
10
 617.354
20
 81.527
30
0
0
VERTEX
8
Halfen
62
7
10
 617.211
20
 81.584
30
0
0
VERTEX
8
Halfen
62
7
10
 617.064
20
 81.634
30
0
0
VERTEX
8
Halfen
62
7
10
 616.916
20
 81.678
30
0
0
VERTEX
8
Halfen
62
7
10
 616.766
20
 81.715
30
0
0
VERTEX
8
Halfen
62
7
10
 616.615
20
 81.746
30
0
0
VERTEX
8
Halfen
62
7
10
 616.462
20
 81.769
30
0
0
VERTEX
8
Halfen
62
7
10
 616.309
20
 81.786
30
0
0
VERTEX
8
Halfen
62
7
10
 616.154
20
 81.797
30
0
0
VERTEX
8
Halfen
62
7
10
 616
20
 81.8
30
0
0
VERTEX
8
Halfen
62
7
10
 612
20
 81.8
30
0
0
VERTEX
8
Halfen
62
7
10
 612
20
-81.8
30
0
0
VERTEX
8
Halfen
62
7
10
 616
20
-81.8
30
0
0
VERTEX
8
Halfen
62
7
10
 616.154
20
-81.797
30
0
0
VERTEX
8
Halfen
62
7
10
 616.309
20
-81.786
30
0
0
VERTEX
8
Halfen
62
7
10
 616.462
20
-81.769
30
0
0
VERTEX
8
Halfen
62
7
10
 616.615
20
-81.746
30
0
0
VERTEX
8
Halfen
62
7
10
 616.766
20
-81.715
30
0
0
VERTEX
8
Halfen
62
7
10
 616.916
20
-81.678
30
0
0
VERTEX
8
Halfen
62
7
10
 617.064
20
-81.634
30
0
0
VERTEX
8
Halfen
62
7
10
 617.211
20
-81.584
30
0
0
VERTEX
8
Halfen
62
7
10
 617.354
20
-81.527
30
0
0
VERTEX
8
Halfen
62
7
10
 617.495
20
-81.464
30
0
0
VERTEX
8
Halfen
62
7
10
 617.634
20
-81.395
30
0
0
VERTEX
8
Halfen
62
7
10
 617.769
20
-81.32
30
0
0
VERTEX
8
Halfen
62
7
10
 617.9
20
-81.239
30
0
0
VERTEX
8
Halfen
62
7
10
 618.028
20
-81.153
30
0
0
VERTEX
8
Halfen
62
7
10
 618.152
20
-81.06
30
0
0
VERTEX
8
Halfen
62
7
10
 618.272
20
-80.963
30
0
0
VERTEX
8
Halfen
62
7
10
 618.387
20
-80.86
30
0
0
VERTEX
8
Halfen
62
7
10
 618.498
20
-80.752
30
0
0
VERTEX
8
Halfen
62
7
10
 618.603
20
-80.639
30
0
0
VERTEX
8
Halfen
62
7
10
 618.704
20
-80.522
30
0
0
VERTEX
8
Halfen
62
7
10
 619.59
20
-79.491
30
0
0
VERTEX
8
Halfen
62
7
10
 620.521
20
-78.5
30
0
0
VERTEX
8
Halfen
62
7
10
 621.495
20
-77.551
30
0
0
VERTEX
8
Halfen
62
7
10
 622.509
20
-76.646
30
0
0
VERTEX
8
Halfen
62
7
10
 623.563
20
-75.787
30
0
0
VERTEX
8
Halfen
62
7
10
 624.653
20
-74.975
30
0
0
VERTEX
8
Halfen
62
7
10
 625.778
20
-74.211
30
0
0
VERTEX
8
Halfen
62
7
10
 626.936
20
-73.499
30
0
0
VERTEX
8
Halfen
62
7
10
 628.124
20
-72.838
30
0
0
VERTEX
8
Halfen
62
7
10
 629.34
20
-72.23
30
0
0
VERTEX
8
Halfen
62
7
10
 630.582
20
-71.676
30
0
0
VERTEX
8
Halfen
62
7
10
 631.847
20
-71.178
30
0
0
VERTEX
8
Halfen
62
7
10
 633.133
20
-70.736
30
0
0
VERTEX
8
Halfen
62
7
10
 634.437
20
-70.351
30
0
0
VERTEX
8
Halfen
62
7
10
 635.757
20
-70.024
30
0
0
VERTEX
8
Halfen
62
7
10
 637.089
20
-69.756
30
0
0
VERTEX
8
Halfen
62
7
10
 638.433
20
-69.547
30
0
0
VERTEX
8
Halfen
62
7
10
 639.784
20
-69.397
30
0
0
VERTEX
8
Halfen
62
7
10
 641.141
20
-69.307
30
0
0
VERTEX
8
Halfen
62
7
10
 642.5
20
-69.277
30
0
0
VERTEX
8
Halfen
62
7
10
 664.5
20
-69.277
30
0
0
VERTEX
8
Halfen
62
7
10
 665.859
20
-69.307
30
0
0
VERTEX
8
Halfen
62
7
10
 667.216
20
-69.397
30
0
0
VERTEX
8
Halfen
62
7
10
 668.567
20
-69.547
30
0
0
VERTEX
8
Halfen
62
7
10
 669.911
20
-69.756
30
0
0
VERTEX
8
Halfen
62
7
10
 671.243
20
-70.024
30
0
0
VERTEX
8
Halfen
62
7
10
 672.563
20
-70.351
30
0
0
VERTEX
8
Halfen
62
7
10
 673.867
20
-70.736
30
0
0
VERTEX
8
Halfen
62
7
10
 675.153
20
-71.178
30
0
0
VERTEX
8
Halfen
62
7
10
 676.418
20
-71.676
30
0
0
VERTEX
8
Halfen
62
7
10
 677.66
20
-72.23
30
0
0
VERTEX
8
Halfen
62
7
10
 678.876
20
-72.838
30
0
0
VERTEX
8
Halfen
62
7
10
 680.064
20
-73.499
30
0
0
VERTEX
8
Halfen
62
7
10
 681.222
20
-74.211
30
0
0
VERTEX
8
Halfen
62
7
10
 682.347
20
-74.975
30
0
0
VERTEX
8
Halfen
62
7
10
 683.437
20
-75.787
30
0
0
VERTEX
8
Halfen
62
7
10
 684.491
20
-76.646
30
0
0
VERTEX
8
Halfen
62
7
10
 685.505
20
-77.551
30
0
0
VERTEX
8
Halfen
62
7
10
 686.479
20
-78.5
30
0
0
VERTEX
8
Halfen
62
7
10
 687.41
20
-79.491
30
0
0
VERTEX
8
Halfen
62
7
10
 688.296
20
-80.522
30
0
0
VERTEX
8
Halfen
62
7
10
 688.397
20
-80.639
30
0
0
VERTEX
8
Halfen
62
7
10
 688.502
20
-80.752
30
0
0
VERTEX
8
Halfen
62
7
10
 688.613
20
-80.86
30
0
0
VERTEX
8
Halfen
62
7
10
 688.728
20
-80.963
30
0
0
VERTEX
8
Halfen
62
7
10
 688.848
20
-81.06
30
0
0
VERTEX
8
Halfen
62
7
10
 688.972
20
-81.153
30
0
0
VERTEX
8
Halfen
62
7
10
 689.1
20
-81.239
30
0
0
VERTEX
8
Halfen
62
7
10
 689.231
20
-81.32
30
0
0
VERTEX
8
Halfen
62
7
10
 689.366
20
-81.395
30
0
0
VERTEX
8
Halfen
62
7
10
 689.505
20
-81.464
30
0
0
VERTEX
8
Halfen
62
7
10
 689.646
20
-81.527
30
0
0
VERTEX
8
Halfen
62
7
10
 689.789
20
-81.584
30
0
0
VERTEX
8
Halfen
62
7
10
 689.936
20
-81.634
30
0
0
VERTEX
8
Halfen
62
7
10
 690.084
20
-81.678
30
0
0
VERTEX
8
Halfen
62
7
10
 690.234
20
-81.715
30
0
0
VERTEX
8
Halfen
62
7
10
 690.385
20
-81.746
30
0
0
VERTEX
8
Halfen
62
7
10
 690.538
20
-81.769
30
0
0
VERTEX
8
Halfen
62
7
10
 690.691
20
-81.786
30
0
0
VERTEX
8
Halfen
62
7
10
 690.846
20
-81.797
30
0
0
VERTEX
8
Halfen
62
7
10
 691
20
-81.8
30
0
0
SEQEND
8
Halfen
0
POLYLINE
8
Halfen
62
7
66
1
10
0.0
20
0.0
30
0.0
70
1
0
VERTEX
8
Halfen
62
7
10
 680
20
-574.569
30
0
0
VERTEX
8
Halfen
62
7
10
 680
20
-88.284
30
0
0
VERTEX
8
Halfen
62
7
10
 679.606
20
-83.278
30
0
0
VERTEX
8
Halfen
62
7
10
 678.434
20
-78.396
30
0
0
VERTEX
8
Halfen
62
7
10
 676.512
20
-73.757
30
0
0
VERTEX
8
Halfen
62
7
10
 673.889
20
-69.475
30
0
0
VERTEX
8
Halfen
62
7
10
 670.627
20
-65.657
30
0
0
VERTEX
8
Halfen
62
7
10
 525.029
20
 79.941
30
0
0
VERTEX
8
Halfen
62
7
10
 522.584
20
 82.805
30
0
0
VERTEX
8
Halfen
62
7
10
 520.616
20
 86.016
30
0
0
VERTEX
8
Halfen
62
7
10
 519.175
20
 89.495
30
0
0
VERTEX
8
Halfen
62
7
10
 518.295
20
 93.157
30
0
0
VERTEX
8
Halfen
62
7
10
 518
20
 96.912
30
0
0
VERTEX
8
Halfen
62
7
10
 518
20
 583.197
30
0
0
VERTEX
8
Halfen
62
7
10
 510
20
 583.197
30
0
0
VERTEX
8
Halfen
62
7
10
 510
20
 96.912
30
0
0
VERTEX
8
Halfen
62
7
10
 510.394
20
 91.906
30
0
0
VERTEX
8
Halfen
62
7
10
 511.566
20
 87.023
30
0
0
VERTEX
8
Halfen
62
7
10
 513.488
20
 82.384
30
0
0
VERTEX
8
Halfen
62
7
10
 516.111
20
 78.103
30
0
0
VERTEX
8
Halfen
62
7
10
 519.373
20
 74.284
30
0
0
VERTEX
8
Halfen
62
7
10
 664.971
20
-71.314
30
0
0
VERTEX
8
Halfen
62
7
10
 667.416
20
-74.177
30
0
0
VERTEX
8
Halfen
62
7
10
 669.384
20
-77.388
30
0
0
VERTEX
8
Halfen
62
7
10
 670.825
20
-80.868
30
0
0
VERTEX
8
Halfen
62
7
10
 671.705
20
-84.53
30
0
0
VERTEX
8
Halfen
62
7
10
 672
20
-88.284
30
0
0
VERTEX
8
Halfen
62
7
10
 672
20
-574.569
30
0
0
SEQEND
8
Halfen
0
POLYLINE
8
Halfen
62
7
66
1
10
0.0
20
0.0
30
0.0
70
1
0
VERTEX
8
Halfen
62
7
10
 510
20
-574.569
30
0
0
VERTEX
8
Halfen
62
7
10
 510
20
-88.284
30
0
0
VERTEX
8
Halfen
62
7
10
 510.394
20
-83.278
30
0
0
VERTEX
8
Halfen
62
7
10
 511.566
20
-78.396
30
0
0
VERTEX
8
Halfen
62
7
10
 513.488
20
-73.757
30
0
0
VERTEX
8
Halfen
62
7
10
 516.111
20
-69.475
30
0
0
VERTEX
8
Halfen
62
7
10
 519.373
20
-65.657
30
0
0
VERTEX
8
Halfen
62
7
10
 664.971
20
 79.941
30
0
0
VERTEX
8
Halfen
62
7
10
 667.416
20
 82.805
30
0
0
VERTEX
8
Halfen
62
7
10
 669.384
20
 86.016
30
0
0
VERTEX
8
Halfen
62
7
10
 670.825
20
 89.495
30
0
0
VERTEX
8
Halfen
62
7
10
 671.705
20
 93.157
30
0
0
VERTEX
8
Halfen
62
7
10
 672
20
 96.912
30
0
0
VERTEX
8
Halfen
62
7
10
 672
20
 583.197
30
0
0
VERTEX
8
Halfen
62
7
10
 680
20
 583.197
30
0
0
VERTEX
8
Halfen
62
7
10
 680
20
 96.912
30
0
0
VERTEX
8
Halfen
62
7
10
 679.606
20
 91.906
30
0
0
VERTEX
8
Halfen
62
7
10
 678.434
20
 87.023
30
0
0
VERTEX
8
Halfen
62
7
10
 676.512
20
 82.384
30
0
0
VERTEX
8
Halfen
62
7
10
 673.889
20
 78.103
30
0
0
VERTEX
8
Halfen
62
7
10
 670.627
20
 74.284
30
0
0
VERTEX
8
Halfen
62
7
10
 525.029
20
-71.314
30
0
0
VERTEX
8
Halfen
62
7
10
 522.584
20
-74.177
30
0
0
VERTEX
8
Halfen
62
7
10
 520.616
20
-77.388
30
0
0
VERTEX
8
Halfen
62
7
10
 519.175
20
-80.868
30
0
0
VERTEX
8
Halfen
62
7
10
 518.295
20
-84.53
30
0
0
VERTEX
8
Halfen
62
7
10
 518
20
-88.284
30
0
0
VERTEX
8
Halfen
62
7
10
 518
20
-574.569
30
0
0
SEQEND
8
Halfen
0
ENDSEC
0
EOF
