0
SECTION
2
HEADER
9
$EXTMIN
10
 0
20
 100
30
0.0
9
$EXTMAX
10
 0
20
 100
30
0.0
9
$LIMMIN
10
 100
20
 0
9
$LIMMAX
10
 0
20
 100
9
$PSLTSCALE
70
1
0
ENDSEC
0
SECTION
2
TABLES
0
TABLE
2
LAYER
70
2
0
LAYER
2
0
70
0
62
7
6
CONTINUOUS
0
LAYER
2
Halfen
70
0
62
7
6
CONTINUOUS
0
ENDTAB
0
ENDSEC
0
SECTION
2
ENTITIES
0
POLYLINE
8
Halfen
62
7
66
1
10
0.0
20
0.0
30
0.0
70
1
0
VERTEX
8
Halfen
62
7
10
 0
20
-73.5
30
0
0
VERTEX
8
Halfen
62
7
10
 1000
20
-73.5
30
0
0
VERTEX
8
Halfen
62
7
10
 1000
20
 73.5
30
0
0
VERTEX
8
Halfen
62
7
10
 0
20
 73.5
30
0
0
SEQEND
8
Halfen
0
POLYLINE
8
Halfen
62
7
66
1
10
0.0
20
0.0
30
0.0
70
1
0
VERTEX
8
Halfen
62
7
10
 0
20
-60
30
0
0
VERTEX
8
Halfen
62
7
10
 1000
20
-60
30
0
0
VERTEX
8
Halfen
62
7
10
 1000
20
 60
30
0
0
VERTEX
8
Halfen
62
7
10
 0
20
 60
30
0
0
SEQEND
8
Halfen
0
POLYLINE
8
Halfen
62
7
66
1
10
0.0
20
0.0
30
0.0
70
1
0
VERTEX
8
Halfen
62
7
10
 20
20
-32.5
30
0
0
VERTEX
8
Halfen
62
7
10
 37
20
-1.5
30
0
0
VERTEX
8
Halfen
62
7
10
 28
20
-1.5
30
0
0
VERTEX
8
Halfen
62
7
10
 28
20
 32.5
30
0
0
VERTEX
8
Halfen
62
7
10
 12
20
 32.5
30
0
0
VERTEX
8
Halfen
62
7
10
 12
20
-1.5
30
0
0
VERTEX
8
Halfen
62
7
10
 3
20
-1.5
30
0
0
SEQEND
8
Halfen
0
POLYLINE
8
Halfen
62
7
66
1
10
0.0
20
0.0
30
0.0
70
1
0
VERTEX
8
Halfen
62
7
10
 980
20
-32.5
30
0
0
VERTEX
8
Halfen
62
7
10
 997
20
-1.5
30
0
0
VERTEX
8
Halfen
62
7
10
 988
20
-1.5
30
0
0
VERTEX
8
Halfen
62
7
10
 988
20
 32.5
30
0
0
VERTEX
8
Halfen
62
7
10
 972
20
 32.5
30
0
0
VERTEX
8
Halfen
62
7
10
 972
20
-1.5
30
0
0
VERTEX
8
Halfen
62
7
10
 963
20
-1.5
30
0
0
SEQEND
8
Halfen
0
POLYLINE
8
Halfen
62
7
66
1
10
0.0
20
0.0
30
0.0
70
1
0
VERTEX
8
Halfen
62
7
10
 90
20
-815.455
30
0
0
VERTEX
8
Halfen
62
7
10
 90
20
 828.419
30
0
0
VERTEX
8
Halfen
62
7
10
 78
20
 828.419
30
0
0
VERTEX
8
Halfen
62
7
10
 78
20
-815.455
30
0
0
SEQEND
8
Halfen
0
POLYLINE
8
Halfen
62
7
66
1
10
0.0
20
0.0
30
0.0
70
1
0
VERTEX
8
Halfen
62
7
10
 319
20
-815.455
30
0
0
VERTEX
8
Halfen
62
7
10
 319
20
 828.419
30
0
0
VERTEX
8
Halfen
62
7
10
 307
20
 828.419
30
0
0
VERTEX
8
Halfen
62
7
10
 307
20
-815.455
30
0
0
SEQEND
8
Halfen
0
POLYLINE
8
Halfen
62
7
66
1
10
0.0
20
0.0
30
0.0
70
1
0
VERTEX
8
Halfen
62
7
10
 434
20
-815.455
30
0
0
VERTEX
8
Halfen
62
7
10
 434
20
 828.419
30
0
0
VERTEX
8
Halfen
62
7
10
 422
20
 828.419
30
0
0
VERTEX
8
Halfen
62
7
10
 422
20
-815.455
30
0
0
SEQEND
8
Halfen
0
POLYLINE
8
Halfen
62
7
66
1
10
0.0
20
0.0
30
0.0
70
1
0
VERTEX
8
Halfen
62
7
10
 590
20
-815.455
30
0
0
VERTEX
8
Halfen
62
7
10
 590
20
 828.419
30
0
0
VERTEX
8
Halfen
62
7
10
 578
20
 828.419
30
0
0
VERTEX
8
Halfen
62
7
10
 578
20
-815.455
30
0
0
SEQEND
8
Halfen
0
POLYLINE
8
Halfen
62
7
66
1
10
0.0
20
0.0
30
0.0
70
1
0
VERTEX
8
Halfen
62
7
10
 819
20
-815.455
30
0
0
VERTEX
8
Halfen
62
7
10
 819
20
 828.419
30
0
0
VERTEX
8
Halfen
62
7
10
 807
20
 828.419
30
0
0
VERTEX
8
Halfen
62
7
10
 807
20
-815.455
30
0
0
SEQEND
8
Halfen
0
POLYLINE
8
Halfen
62
7
66
1
10
0.0
20
0.0
30
0.0
70
1
0
VERTEX
8
Halfen
62
7
10
 934
20
-815.455
30
0
0
VERTEX
8
Halfen
62
7
10
 934
20
 828.419
30
0
0
VERTEX
8
Halfen
62
7
10
 922
20
 828.419
30
0
0
VERTEX
8
Halfen
62
7
10
 922
20
-815.455
30
0
0
SEQEND
8
Halfen
0
POLYLINE
8
Halfen
62
7
66
1
10
0.0
20
0.0
30
0.0
70
1
0
VERTEX
8
Halfen
62
7
10
 922
20
-815.455
30
0
0
VERTEX
8
Halfen
62
7
10
 922
20
 828.419
30
0
0
VERTEX
8
Halfen
62
7
10
 910
20
 828.419
30
0
0
VERTEX
8
Halfen
62
7
10
 910
20
-815.455
30
0
0
SEQEND
8
Halfen
0
POLYLINE
8
Halfen
62
7
66
1
10
0.0
20
0.0
30
0.0
70
1
0
VERTEX
8
Halfen
62
7
10
 693
20
-815.455
30
0
0
VERTEX
8
Halfen
62
7
10
 693
20
 828.419
30
0
0
VERTEX
8
Halfen
62
7
10
 681
20
 828.419
30
0
0
VERTEX
8
Halfen
62
7
10
 681
20
-815.455
30
0
0
SEQEND
8
Halfen
0
POLYLINE
8
Halfen
62
7
66
1
10
0.0
20
0.0
30
0.0
70
1
0
VERTEX
8
Halfen
62
7
10
 578
20
-815.455
30
0
0
VERTEX
8
Halfen
62
7
10
 578
20
 828.419
30
0
0
VERTEX
8
Halfen
62
7
10
 566
20
 828.419
30
0
0
VERTEX
8
Halfen
62
7
10
 566
20
-815.455
30
0
0
SEQEND
8
Halfen
0
POLYLINE
8
Halfen
62
7
66
1
10
0.0
20
0.0
30
0.0
70
1
0
VERTEX
8
Halfen
62
7
10
 422
20
-815.455
30
0
0
VERTEX
8
Halfen
62
7
10
 422
20
 828.419
30
0
0
VERTEX
8
Halfen
62
7
10
 410
20
 828.419
30
0
0
VERTEX
8
Halfen
62
7
10
 410
20
-815.455
30
0
0
SEQEND
8
Halfen
0
POLYLINE
8
Halfen
62
7
66
1
10
0.0
20
0.0
30
0.0
70
1
0
VERTEX
8
Halfen
62
7
10
 193
20
-815.455
30
0
0
VERTEX
8
Halfen
62
7
10
 193
20
 828.419
30
0
0
VERTEX
8
Halfen
62
7
10
 181
20
 828.419
30
0
0
VERTEX
8
Halfen
62
7
10
 181
20
-815.455
30
0
0
SEQEND
8
Halfen
0
POLYLINE
8
Halfen
62
7
66
1
10
0.0
20
0.0
30
0.0
70
1
0
VERTEX
8
Halfen
62
7
10
 78
20
-815.455
30
0
0
VERTEX
8
Halfen
62
7
10
 78
20
 828.419
30
0
0
VERTEX
8
Halfen
62
7
10
 66
20
 828.419
30
0
0
VERTEX
8
Halfen
62
7
10
 66
20
-815.455
30
0
0
SEQEND
8
Halfen
0
POLYLINE
8
Halfen
62
7
66
1
10
0.0
20
0.0
30
0.0
70
1
0
VERTEX
8
Halfen
62
7
10
 1460
20
-60
30
0
0
VERTEX
8
Halfen
62
7
10
 1460
20
 60
30
0
0
VERTEX
8
Halfen
62
7
10
 1446.5
20
 73.5
30
0
0
VERTEX
8
Halfen
62
7
10
 1446.5
20
 60
30
0
0
VERTEX
8
Halfen
62
7
10
 1250
20
 60
30
0
0
VERTEX
8
Halfen
62
7
10
 1250
20
-60
30
0
0
VERTEX
8
Halfen
62
7
10
 1446.5
20
-60
30
0
0
VERTEX
8
Halfen
62
7
10
 1446.5
20
-73.5
30
0
0
SEQEND
8
Halfen
0
POLYLINE
8
Halfen
62
7
66
1
10
0.0
20
0.0
30
0.0
70
1
0
VERTEX
8
Halfen
62
7
10
 1250
20
-60
30
0
0
VERTEX
8
Halfen
62
7
10
 1250
20
 60
30
0
0
VERTEX
8
Halfen
62
7
10
 1213.5
20
 60
30
0
0
VERTEX
8
Halfen
62
7
10
 1213.5
20
 73.5
30
0
0
VERTEX
8
Halfen
62
7
10
 1200
20
 60
30
0
0
VERTEX
8
Halfen
62
7
10
 1200
20
-60
30
0
0
VERTEX
8
Halfen
62
7
10
 1213.5
20
-73.5
30
0
0
VERTEX
8
Halfen
62
7
10
 1213.5
20
-60
30
0
0
SEQEND
8
Halfen
0
POLYLINE
8
Halfen
62
7
66
1
10
0.0
20
0.0
30
0.0
70
1
0
VERTEX
8
Halfen
62
7
10
 1457.5
20
-58.75
30
0
0
VERTEX
8
Halfen
62
7
10
 1457.5
20
 58.75
30
0
0
VERTEX
8
Halfen
62
7
10
 1449
20
 67.25
30
0
0
VERTEX
8
Halfen
62
7
10
 1449
20
 58
30
0
0
VERTEX
8
Halfen
62
7
10
 1252
20
 58
30
0
0
VERTEX
8
Halfen
62
7
10
 1252
20
-58
30
0
0
VERTEX
8
Halfen
62
7
10
 1449
20
-58
30
0
0
VERTEX
8
Halfen
62
7
10
 1449
20
-67.25
30
0
0
SEQEND
8
Halfen
0
POLYLINE
8
Halfen
62
7
66
1
10
0.0
20
0.0
30
0.0
70
1
0
VERTEX
8
Halfen
62
7
10
 1248
20
-58
30
0
0
VERTEX
8
Halfen
62
7
10
 1248
20
 58
30
0
0
VERTEX
8
Halfen
62
7
10
 1211
20
 58
30
0
0
VERTEX
8
Halfen
62
7
10
 1211
20
 67.25
30
0
0
VERTEX
8
Halfen
62
7
10
 1202.5
20
 58.75
30
0
0
VERTEX
8
Halfen
62
7
10
 1202.5
20
-58.75
30
0
0
VERTEX
8
Halfen
62
7
10
 1211
20
-67.25
30
0
0
VERTEX
8
Halfen
62
7
10
 1211
20
-58
30
0
0
SEQEND
8
Halfen
0
POLYLINE
8
Halfen
62
7
66
1
10
0.0
20
0.0
30
0.0
70
1
0
VERTEX
8
Halfen
62
7
10
 1430
20
-815.455
30
0
0
VERTEX
8
Halfen
62
7
10
 1430
20
-100.956
30
0
0
VERTEX
8
Halfen
62
7
10
 1429.359
20
-93.137
30
0
0
VERTEX
8
Halfen
62
7
10
 1427.453
20
-85.527
30
0
0
VERTEX
8
Halfen
62
7
10
 1424.332
20
-78.329
30
0
0
VERTEX
8
Halfen
62
7
10
 1420.081
20
-71.735
30
0
0
VERTEX
8
Halfen
62
7
10
 1294.439
20
 92.004
30
0
0
VERTEX
8
Halfen
62
7
10
 1291.251
20
 96.949
30
0
0
VERTEX
8
Halfen
62
7
10
 1288.911
20
 102.348
30
0
0
VERTEX
8
Halfen
62
7
10
 1287.481
20
 108.055
30
0
0
VERTEX
8
Halfen
62
7
10
 1287
20
 113.919
30
0
0
VERTEX
8
Halfen
62
7
10
 1287
20
 167.419
30
0
0
VERTEX
8
Halfen
62
7
10
 1287
20
 828.419
30
0
0
VERTEX
8
Halfen
62
7
10
 1275
20
 828.419
30
0
0
VERTEX
8
Halfen
62
7
10
 1275
20
 167.419
30
0
0
VERTEX
8
Halfen
62
7
10
 1275
20
 113.919
30
0
0
VERTEX
8
Halfen
62
7
10
 1275.641
20
 106.101
30
0
0
VERTEX
8
Halfen
62
7
10
 1277.547
20
 98.49
30
0
0
VERTEX
8
Halfen
62
7
10
 1280.668
20
 91.292
30
0
0
VERTEX
8
Halfen
62
7
10
 1284.919
20
 84.699
30
0
0
VERTEX
8
Halfen
62
7
10
 1410.561
20
-79.04
30
0
0
VERTEX
8
Halfen
62
7
10
 1413.749
20
-83.986
30
0
0
VERTEX
8
Halfen
62
7
10
 1416.089
20
-89.384
30
0
0
VERTEX
8
Halfen
62
7
10
 1417.519
20
-95.092
30
0
0
VERTEX
8
Halfen
62
7
10
 1418
20
-100.956
30
0
0
VERTEX
8
Halfen
62
7
10
 1418
20
-815.455
30
0
0
SEQEND
8
Halfen
0
POLYLINE
8
Halfen
62
7
66
1
10
0.0
20
0.0
30
0.0
70
1
0
VERTEX
8
Halfen
62
7
10
 1275
20
-815.455
30
0
0
VERTEX
8
Halfen
62
7
10
 1275
20
-100.956
30
0
0
VERTEX
8
Halfen
62
7
10
 1275.641
20
-93.137
30
0
0
VERTEX
8
Halfen
62
7
10
 1277.547
20
-85.527
30
0
0
VERTEX
8
Halfen
62
7
10
 1280.668
20
-78.329
30
0
0
VERTEX
8
Halfen
62
7
10
 1284.919
20
-71.735
30
0
0
VERTEX
8
Halfen
62
7
10
 1410.561
20
 92.004
30
0
0
VERTEX
8
Halfen
62
7
10
 1413.749
20
 96.949
30
0
0
VERTEX
8
Halfen
62
7
10
 1416.089
20
 102.348
30
0
0
VERTEX
8
Halfen
62
7
10
 1417.519
20
 108.055
30
0
0
VERTEX
8
Halfen
62
7
10
 1418
20
 113.919
30
0
0
VERTEX
8
Halfen
62
7
10
 1418
20
 167.419
30
0
0
VERTEX
8
Halfen
62
7
10
 1418
20
 828.419
30
0
0
VERTEX
8
Halfen
62
7
10
 1430
20
 828.419
30
0
0
VERTEX
8
Halfen
62
7
10
 1430
20
 167.419
30
0
0
VERTEX
8
Halfen
62
7
10
 1430
20
 113.919
30
0
0
VERTEX
8
Halfen
62
7
10
 1429.359
20
 106.101
30
0
0
VERTEX
8
Halfen
62
7
10
 1427.453
20
 98.49
30
0
0
VERTEX
8
Halfen
62
7
10
 1424.332
20
 91.292
30
0
0
VERTEX
8
Halfen
62
7
10
 1420.081
20
 84.699
30
0
0
VERTEX
8
Halfen
62
7
10
 1294.439
20
-79.04
30
0
0
VERTEX
8
Halfen
62
7
10
 1291.251
20
-83.986
30
0
0
VERTEX
8
Halfen
62
7
10
 1288.911
20
-89.384
30
0
0
VERTEX
8
Halfen
62
7
10
 1287.481
20
-95.092
30
0
0
VERTEX
8
Halfen
62
7
10
 1287
20
-100.956
30
0
0
VERTEX
8
Halfen
62
7
10
 1287
20
-815.455
30
0
0
SEQEND
8
Halfen
0
ENDSEC
0
EOF
