0
SECTION
2
HEADER
9
$EXTMIN
10
 0
20
 100
30
0.0
9
$EXTMAX
10
 0
20
 100
30
0.0
9
$LIMMIN
10
 100
20
 0
9
$LIMMAX
10
 0
20
 100
9
$PSLTSCALE
70
1
0
ENDSEC
0
SECTION
2
TABLES
0
TABLE
2
LAYER
70
2
0
LAYER
2
0
70
0
62
7
6
CONTINUOUS
0
LAYER
2
Halfen
70
0
62
7
6
CONTINUOUS
0
ENDTAB
0
ENDSEC
0
SECTION
2
ENTITIES
0
POLYLINE
8
Halfen
62
7
66
1
10
0.0
20
0.0
30
0.0
70
1
0
VERTEX
8
Halfen
62
7
10
 0
20
-73.5
30
0
0
VERTEX
8
Halfen
62
7
10
 1000
20
-73.5
30
0
0
VERTEX
8
Halfen
62
7
10
 1000
20
 73.5
30
0
0
VERTEX
8
Halfen
62
7
10
 0
20
 73.5
30
0
0
SEQEND
8
Halfen
0
POLYLINE
8
Halfen
62
7
66
1
10
0.0
20
0.0
30
0.0
70
1
0
VERTEX
8
Halfen
62
7
10
 0
20
-60
30
0
0
VERTEX
8
Halfen
62
7
10
 1000
20
-60
30
0
0
VERTEX
8
Halfen
62
7
10
 1000
20
 60
30
0
0
VERTEX
8
Halfen
62
7
10
 0
20
 60
30
0
0
SEQEND
8
Halfen
0
POLYLINE
8
Halfen
62
7
66
1
10
0.0
20
0.0
30
0.0
70
1
0
VERTEX
8
Halfen
62
7
10
 20
20
-32.5
30
0
0
VERTEX
8
Halfen
62
7
10
 37
20
-1.5
30
0
0
VERTEX
8
Halfen
62
7
10
 28
20
-1.5
30
0
0
VERTEX
8
Halfen
62
7
10
 28
20
 32.5
30
0
0
VERTEX
8
Halfen
62
7
10
 12
20
 32.5
30
0
0
VERTEX
8
Halfen
62
7
10
 12
20
-1.5
30
0
0
VERTEX
8
Halfen
62
7
10
 3
20
-1.5
30
0
0
SEQEND
8
Halfen
0
POLYLINE
8
Halfen
62
7
66
1
10
0.0
20
0.0
30
0.0
70
1
0
VERTEX
8
Halfen
62
7
10
 980
20
-32.5
30
0
0
VERTEX
8
Halfen
62
7
10
 997
20
-1.5
30
0
0
VERTEX
8
Halfen
62
7
10
 988
20
-1.5
30
0
0
VERTEX
8
Halfen
62
7
10
 988
20
 32.5
30
0
0
VERTEX
8
Halfen
62
7
10
 972
20
 32.5
30
0
0
VERTEX
8
Halfen
62
7
10
 972
20
-1.5
30
0
0
VERTEX
8
Halfen
62
7
10
 963
20
-1.5
30
0
0
SEQEND
8
Halfen
0
POLYLINE
8
Halfen
62
7
66
1
10
0.0
20
0.0
30
0.0
70
1
0
VERTEX
8
Halfen
62
7
10
 265
20
-69.3
30
0
0
VERTEX
8
Halfen
62
7
10
 265
20
-56.8
30
0
0
VERTEX
8
Halfen
62
7
10
 265
20
 69.3
30
0
0
VERTEX
8
Halfen
62
7
10
 264.958
20
 70.359
30
0
0
VERTEX
8
Halfen
62
7
10
 264.834
20
 71.412
30
0
0
VERTEX
8
Halfen
62
7
10
 264.627
20
 72.452
30
0
0
VERTEX
8
Halfen
62
7
10
 264.339
20
 73.472
30
0
0
VERTEX
8
Halfen
62
7
10
 263.972
20
 74.466
30
0
0
VERTEX
8
Halfen
62
7
10
 263.529
20
 75.429
30
0
0
VERTEX
8
Halfen
62
7
10
 263.011
20
 76.354
30
0
0
VERTEX
8
Halfen
62
7
10
 262.422
20
 77.235
30
0
0
VERTEX
8
Halfen
62
7
10
 261.765
20
 78.068
30
0
0
VERTEX
8
Halfen
62
7
10
 261.046
20
 78.846
30
0
0
VERTEX
8
Halfen
62
7
10
 260.268
20
 79.565
30
0
0
VERTEX
8
Halfen
62
7
10
 259.435
20
 80.222
30
0
0
VERTEX
8
Halfen
62
7
10
 258.554
20
 80.811
30
0
0
VERTEX
8
Halfen
62
7
10
 257.629
20
 81.329
30
0
0
VERTEX
8
Halfen
62
7
10
 256.666
20
 81.772
30
0
0
VERTEX
8
Halfen
62
7
10
 255.672
20
 82.139
30
0
0
VERTEX
8
Halfen
62
7
10
 254.652
20
 82.427
30
0
0
VERTEX
8
Halfen
62
7
10
 253.612
20
 82.634
30
0
0
VERTEX
8
Halfen
62
7
10
 252.559
20
 82.758
30
0
0
VERTEX
8
Halfen
62
7
10
 251.5
20
 82.8
30
0
0
VERTEX
8
Halfen
62
7
10
 248.5
20
 82.8
30
0
0
VERTEX
8
Halfen
62
7
10
 247.441
20
 82.758
30
0
0
VERTEX
8
Halfen
62
7
10
 246.388
20
 82.634
30
0
0
VERTEX
8
Halfen
62
7
10
 245.348
20
 82.427
30
0
0
VERTEX
8
Halfen
62
7
10
 244.328
20
 82.139
30
0
0
VERTEX
8
Halfen
62
7
10
 243.334
20
 81.772
30
0
0
VERTEX
8
Halfen
62
7
10
 242.371
20
 81.329
30
0
0
VERTEX
8
Halfen
62
7
10
 241.446
20
 80.811
30
0
0
VERTEX
8
Halfen
62
7
10
 240.565
20
 80.222
30
0
0
VERTEX
8
Halfen
62
7
10
 239.732
20
 79.565
30
0
0
VERTEX
8
Halfen
62
7
10
 238.954
20
 78.846
30
0
0
VERTEX
8
Halfen
62
7
10
 238.235
20
 78.068
30
0
0
VERTEX
8
Halfen
62
7
10
 237.578
20
 77.235
30
0
0
VERTEX
8
Halfen
62
7
10
 236.989
20
 76.354
30
0
0
VERTEX
8
Halfen
62
7
10
 236.471
20
 75.429
30
0
0
VERTEX
8
Halfen
62
7
10
 236.028
20
 74.466
30
0
0
VERTEX
8
Halfen
62
7
10
 235.661
20
 73.472
30
0
0
VERTEX
8
Halfen
62
7
10
 235.373
20
 72.452
30
0
0
VERTEX
8
Halfen
62
7
10
 235.166
20
 71.412
30
0
0
VERTEX
8
Halfen
62
7
10
 235.042
20
 70.359
30
0
0
VERTEX
8
Halfen
62
7
10
 235
20
 69.3
30
0
0
VERTEX
8
Halfen
62
7
10
 235
20
-56.8
30
0
0
VERTEX
8
Halfen
62
7
10
 235
20
-69.3
30
0
0
VERTEX
8
Halfen
62
7
10
 235.042
20
-70.359
30
0
0
VERTEX
8
Halfen
62
7
10
 235.166
20
-71.412
30
0
0
VERTEX
8
Halfen
62
7
10
 235.373
20
-72.452
30
0
0
VERTEX
8
Halfen
62
7
10
 235.661
20
-73.472
30
0
0
VERTEX
8
Halfen
62
7
10
 236.028
20
-74.466
30
0
0
VERTEX
8
Halfen
62
7
10
 236.471
20
-75.429
30
0
0
VERTEX
8
Halfen
62
7
10
 236.989
20
-76.354
30
0
0
VERTEX
8
Halfen
62
7
10
 237.578
20
-77.235
30
0
0
VERTEX
8
Halfen
62
7
10
 238.235
20
-78.068
30
0
0
VERTEX
8
Halfen
62
7
10
 238.954
20
-78.846
30
0
0
VERTEX
8
Halfen
62
7
10
 239.732
20
-79.565
30
0
0
VERTEX
8
Halfen
62
7
10
 240.565
20
-80.222
30
0
0
VERTEX
8
Halfen
62
7
10
 241.446
20
-80.811
30
0
0
VERTEX
8
Halfen
62
7
10
 242.371
20
-81.329
30
0
0
VERTEX
8
Halfen
62
7
10
 243.334
20
-81.772
30
0
0
VERTEX
8
Halfen
62
7
10
 244.328
20
-82.139
30
0
0
VERTEX
8
Halfen
62
7
10
 245.348
20
-82.427
30
0
0
VERTEX
8
Halfen
62
7
10
 246.388
20
-82.634
30
0
0
VERTEX
8
Halfen
62
7
10
 247.441
20
-82.758
30
0
0
VERTEX
8
Halfen
62
7
10
 248.5
20
-82.8
30
0
0
VERTEX
8
Halfen
62
7
10
 251.5
20
-82.8
30
0
0
VERTEX
8
Halfen
62
7
10
 252.559
20
-82.758
30
0
0
VERTEX
8
Halfen
62
7
10
 253.612
20
-82.634
30
0
0
VERTEX
8
Halfen
62
7
10
 254.652
20
-82.427
30
0
0
VERTEX
8
Halfen
62
7
10
 255.672
20
-82.139
30
0
0
VERTEX
8
Halfen
62
7
10
 256.666
20
-81.772
30
0
0
VERTEX
8
Halfen
62
7
10
 257.629
20
-81.329
30
0
0
VERTEX
8
Halfen
62
7
10
 258.554
20
-80.811
30
0
0
VERTEX
8
Halfen
62
7
10
 259.435
20
-80.222
30
0
0
VERTEX
8
Halfen
62
7
10
 260.268
20
-79.565
30
0
0
VERTEX
8
Halfen
62
7
10
 261.046
20
-78.846
30
0
0
VERTEX
8
Halfen
62
7
10
 261.765
20
-78.068
30
0
0
VERTEX
8
Halfen
62
7
10
 262.422
20
-77.235
30
0
0
VERTEX
8
Halfen
62
7
10
 263.011
20
-76.354
30
0
0
VERTEX
8
Halfen
62
7
10
 263.529
20
-75.429
30
0
0
VERTEX
8
Halfen
62
7
10
 263.972
20
-74.466
30
0
0
VERTEX
8
Halfen
62
7
10
 264.339
20
-73.472
30
0
0
VERTEX
8
Halfen
62
7
10
 264.627
20
-72.452
30
0
0
VERTEX
8
Halfen
62
7
10
 264.834
20
-71.412
30
0
0
VERTEX
8
Halfen
62
7
10
 264.958
20
-70.359
30
0
0
VERTEX
8
Halfen
62
7
10
 265
20
-69.3
30
0
0
SEQEND
8
Halfen
0
POLYLINE
8
Halfen
62
7
66
1
10
0.0
20
0.0
30
0.0
70
1
0
VERTEX
8
Halfen
62
7
10
 765
20
-69.3
30
0
0
VERTEX
8
Halfen
62
7
10
 765
20
-56.8
30
0
0
VERTEX
8
Halfen
62
7
10
 765
20
 69.3
30
0
0
VERTEX
8
Halfen
62
7
10
 764.958
20
 70.359
30
0
0
VERTEX
8
Halfen
62
7
10
 764.834
20
 71.412
30
0
0
VERTEX
8
Halfen
62
7
10
 764.627
20
 72.452
30
0
0
VERTEX
8
Halfen
62
7
10
 764.339
20
 73.472
30
0
0
VERTEX
8
Halfen
62
7
10
 763.972
20
 74.466
30
0
0
VERTEX
8
Halfen
62
7
10
 763.529
20
 75.429
30
0
0
VERTEX
8
Halfen
62
7
10
 763.011
20
 76.354
30
0
0
VERTEX
8
Halfen
62
7
10
 762.422
20
 77.235
30
0
0
VERTEX
8
Halfen
62
7
10
 761.765
20
 78.068
30
0
0
VERTEX
8
Halfen
62
7
10
 761.046
20
 78.846
30
0
0
VERTEX
8
Halfen
62
7
10
 760.268
20
 79.565
30
0
0
VERTEX
8
Halfen
62
7
10
 759.435
20
 80.222
30
0
0
VERTEX
8
Halfen
62
7
10
 758.554
20
 80.811
30
0
0
VERTEX
8
Halfen
62
7
10
 757.629
20
 81.329
30
0
0
VERTEX
8
Halfen
62
7
10
 756.666
20
 81.772
30
0
0
VERTEX
8
Halfen
62
7
10
 755.672
20
 82.139
30
0
0
VERTEX
8
Halfen
62
7
10
 754.652
20
 82.427
30
0
0
VERTEX
8
Halfen
62
7
10
 753.612
20
 82.634
30
0
0
VERTEX
8
Halfen
62
7
10
 752.559
20
 82.758
30
0
0
VERTEX
8
Halfen
62
7
10
 751.5
20
 82.8
30
0
0
VERTEX
8
Halfen
62
7
10
 748.5
20
 82.8
30
0
0
VERTEX
8
Halfen
62
7
10
 747.441
20
 82.758
30
0
0
VERTEX
8
Halfen
62
7
10
 746.388
20
 82.634
30
0
0
VERTEX
8
Halfen
62
7
10
 745.348
20
 82.427
30
0
0
VERTEX
8
Halfen
62
7
10
 744.328
20
 82.139
30
0
0
VERTEX
8
Halfen
62
7
10
 743.334
20
 81.772
30
0
0
VERTEX
8
Halfen
62
7
10
 742.371
20
 81.329
30
0
0
VERTEX
8
Halfen
62
7
10
 741.446
20
 80.811
30
0
0
VERTEX
8
Halfen
62
7
10
 740.565
20
 80.222
30
0
0
VERTEX
8
Halfen
62
7
10
 739.732
20
 79.565
30
0
0
VERTEX
8
Halfen
62
7
10
 738.954
20
 78.846
30
0
0
VERTEX
8
Halfen
62
7
10
 738.235
20
 78.068
30
0
0
VERTEX
8
Halfen
62
7
10
 737.578
20
 77.235
30
0
0
VERTEX
8
Halfen
62
7
10
 736.989
20
 76.354
30
0
0
VERTEX
8
Halfen
62
7
10
 736.471
20
 75.429
30
0
0
VERTEX
8
Halfen
62
7
10
 736.028
20
 74.466
30
0
0
VERTEX
8
Halfen
62
7
10
 735.661
20
 73.472
30
0
0
VERTEX
8
Halfen
62
7
10
 735.373
20
 72.452
30
0
0
VERTEX
8
Halfen
62
7
10
 735.166
20
 71.412
30
0
0
VERTEX
8
Halfen
62
7
10
 735.042
20
 70.359
30
0
0
VERTEX
8
Halfen
62
7
10
 735
20
 69.3
30
0
0
VERTEX
8
Halfen
62
7
10
 735
20
-56.8
30
0
0
VERTEX
8
Halfen
62
7
10
 735
20
-69.3
30
0
0
VERTEX
8
Halfen
62
7
10
 735.042
20
-70.359
30
0
0
VERTEX
8
Halfen
62
7
10
 735.166
20
-71.412
30
0
0
VERTEX
8
Halfen
62
7
10
 735.373
20
-72.452
30
0
0
VERTEX
8
Halfen
62
7
10
 735.661
20
-73.472
30
0
0
VERTEX
8
Halfen
62
7
10
 736.028
20
-74.466
30
0
0
VERTEX
8
Halfen
62
7
10
 736.471
20
-75.429
30
0
0
VERTEX
8
Halfen
62
7
10
 736.989
20
-76.354
30
0
0
VERTEX
8
Halfen
62
7
10
 737.578
20
-77.235
30
0
0
VERTEX
8
Halfen
62
7
10
 738.235
20
-78.068
30
0
0
VERTEX
8
Halfen
62
7
10
 738.954
20
-78.846
30
0
0
VERTEX
8
Halfen
62
7
10
 739.732
20
-79.565
30
0
0
VERTEX
8
Halfen
62
7
10
 740.565
20
-80.222
30
0
0
VERTEX
8
Halfen
62
7
10
 741.446
20
-80.811
30
0
0
VERTEX
8
Halfen
62
7
10
 742.371
20
-81.329
30
0
0
VERTEX
8
Halfen
62
7
10
 743.334
20
-81.772
30
0
0
VERTEX
8
Halfen
62
7
10
 744.328
20
-82.139
30
0
0
VERTEX
8
Halfen
62
7
10
 745.348
20
-82.427
30
0
0
VERTEX
8
Halfen
62
7
10
 746.388
20
-82.634
30
0
0
VERTEX
8
Halfen
62
7
10
 747.441
20
-82.758
30
0
0
VERTEX
8
Halfen
62
7
10
 748.5
20
-82.8
30
0
0
VERTEX
8
Halfen
62
7
10
 751.5
20
-82.8
30
0
0
VERTEX
8
Halfen
62
7
10
 752.559
20
-82.758
30
0
0
VERTEX
8
Halfen
62
7
10
 753.612
20
-82.634
30
0
0
VERTEX
8
Halfen
62
7
10
 754.652
20
-82.427
30
0
0
VERTEX
8
Halfen
62
7
10
 755.672
20
-82.139
30
0
0
VERTEX
8
Halfen
62
7
10
 756.666
20
-81.772
30
0
0
VERTEX
8
Halfen
62
7
10
 757.629
20
-81.329
30
0
0
VERTEX
8
Halfen
62
7
10
 758.554
20
-80.811
30
0
0
VERTEX
8
Halfen
62
7
10
 759.435
20
-80.222
30
0
0
VERTEX
8
Halfen
62
7
10
 760.268
20
-79.565
30
0
0
VERTEX
8
Halfen
62
7
10
 761.046
20
-78.846
30
0
0
VERTEX
8
Halfen
62
7
10
 761.765
20
-78.068
30
0
0
VERTEX
8
Halfen
62
7
10
 762.422
20
-77.235
30
0
0
VERTEX
8
Halfen
62
7
10
 763.011
20
-76.354
30
0
0
VERTEX
8
Halfen
62
7
10
 763.529
20
-75.429
30
0
0
VERTEX
8
Halfen
62
7
10
 763.972
20
-74.466
30
0
0
VERTEX
8
Halfen
62
7
10
 764.339
20
-73.472
30
0
0
VERTEX
8
Halfen
62
7
10
 764.627
20
-72.452
30
0
0
VERTEX
8
Halfen
62
7
10
 764.834
20
-71.412
30
0
0
VERTEX
8
Halfen
62
7
10
 764.958
20
-70.359
30
0
0
VERTEX
8
Halfen
62
7
10
 765
20
-69.3
30
0
0
SEQEND
8
Halfen
0
POLYLINE
8
Halfen
62
7
66
1
10
0.0
20
0.0
30
0.0
70
1
0
VERTEX
8
Halfen
62
7
10
 73
20
-454.728
30
0
0
VERTEX
8
Halfen
62
7
10
 73
20
 216.629
30
0
0
VERTEX
8
Halfen
62
7
10
 67
20
 216.629
30
0
0
VERTEX
8
Halfen
62
7
10
 67
20
-454.728
30
0
0
SEQEND
8
Halfen
0
POLYLINE
8
Halfen
62
7
66
1
10
0.0
20
0.0
30
0.0
70
1
0
VERTEX
8
Halfen
62
7
10
 193
20
-454.728
30
0
0
VERTEX
8
Halfen
62
7
10
 193
20
 216.629
30
0
0
VERTEX
8
Halfen
62
7
10
 187
20
 216.629
30
0
0
VERTEX
8
Halfen
62
7
10
 187
20
-454.728
30
0
0
SEQEND
8
Halfen
0
POLYLINE
8
Halfen
62
7
66
1
10
0.0
20
0.0
30
0.0
70
1
0
VERTEX
8
Halfen
62
7
10
 323
20
-454.728
30
0
0
VERTEX
8
Halfen
62
7
10
 323
20
 216.629
30
0
0
VERTEX
8
Halfen
62
7
10
 317
20
 216.629
30
0
0
VERTEX
8
Halfen
62
7
10
 317
20
-454.728
30
0
0
SEQEND
8
Halfen
0
POLYLINE
8
Halfen
62
7
66
1
10
0.0
20
0.0
30
0.0
70
1
0
VERTEX
8
Halfen
62
7
10
 573
20
-454.728
30
0
0
VERTEX
8
Halfen
62
7
10
 573
20
 216.629
30
0
0
VERTEX
8
Halfen
62
7
10
 567
20
 216.629
30
0
0
VERTEX
8
Halfen
62
7
10
 567
20
-454.728
30
0
0
SEQEND
8
Halfen
0
POLYLINE
8
Halfen
62
7
66
1
10
0.0
20
0.0
30
0.0
70
1
0
VERTEX
8
Halfen
62
7
10
 693
20
-454.728
30
0
0
VERTEX
8
Halfen
62
7
10
 693
20
 216.629
30
0
0
VERTEX
8
Halfen
62
7
10
 687
20
 216.629
30
0
0
VERTEX
8
Halfen
62
7
10
 687
20
-454.728
30
0
0
SEQEND
8
Halfen
0
POLYLINE
8
Halfen
62
7
66
1
10
0.0
20
0.0
30
0.0
70
1
0
VERTEX
8
Halfen
62
7
10
 823
20
-454.728
30
0
0
VERTEX
8
Halfen
62
7
10
 823
20
 216.629
30
0
0
VERTEX
8
Halfen
62
7
10
 817
20
 216.629
30
0
0
VERTEX
8
Halfen
62
7
10
 817
20
-454.728
30
0
0
SEQEND
8
Halfen
0
POLYLINE
8
Halfen
62
7
66
1
10
0.0
20
0.0
30
0.0
70
1
0
VERTEX
8
Halfen
62
7
10
 933
20
-454.728
30
0
0
VERTEX
8
Halfen
62
7
10
 933
20
 216.629
30
0
0
VERTEX
8
Halfen
62
7
10
 927
20
 216.629
30
0
0
VERTEX
8
Halfen
62
7
10
 927
20
-454.728
30
0
0
SEQEND
8
Halfen
0
POLYLINE
8
Halfen
62
7
66
1
10
0.0
20
0.0
30
0.0
70
1
0
VERTEX
8
Halfen
62
7
10
 813
20
-454.728
30
0
0
VERTEX
8
Halfen
62
7
10
 813
20
 216.629
30
0
0
VERTEX
8
Halfen
62
7
10
 807
20
 216.629
30
0
0
VERTEX
8
Halfen
62
7
10
 807
20
-454.728
30
0
0
SEQEND
8
Halfen
0
POLYLINE
8
Halfen
62
7
66
1
10
0.0
20
0.0
30
0.0
70
1
0
VERTEX
8
Halfen
62
7
10
 683
20
-454.728
30
0
0
VERTEX
8
Halfen
62
7
10
 683
20
 216.629
30
0
0
VERTEX
8
Halfen
62
7
10
 677
20
 216.629
30
0
0
VERTEX
8
Halfen
62
7
10
 677
20
-454.728
30
0
0
SEQEND
8
Halfen
0
POLYLINE
8
Halfen
62
7
66
1
10
0.0
20
0.0
30
0.0
70
1
0
VERTEX
8
Halfen
62
7
10
 433
20
-454.728
30
0
0
VERTEX
8
Halfen
62
7
10
 433
20
 216.629
30
0
0
VERTEX
8
Halfen
62
7
10
 427
20
 216.629
30
0
0
VERTEX
8
Halfen
62
7
10
 427
20
-454.728
30
0
0
SEQEND
8
Halfen
0
POLYLINE
8
Halfen
62
7
66
1
10
0.0
20
0.0
30
0.0
70
1
0
VERTEX
8
Halfen
62
7
10
 313
20
-454.728
30
0
0
VERTEX
8
Halfen
62
7
10
 313
20
 216.629
30
0
0
VERTEX
8
Halfen
62
7
10
 307
20
 216.629
30
0
0
VERTEX
8
Halfen
62
7
10
 307
20
-454.728
30
0
0
SEQEND
8
Halfen
0
POLYLINE
8
Halfen
62
7
66
1
10
0.0
20
0.0
30
0.0
70
1
0
VERTEX
8
Halfen
62
7
10
 183
20
-454.728
30
0
0
VERTEX
8
Halfen
62
7
10
 183
20
 216.629
30
0
0
VERTEX
8
Halfen
62
7
10
 177
20
 216.629
30
0
0
VERTEX
8
Halfen
62
7
10
 177
20
-454.728
30
0
0
SEQEND
8
Halfen
0
POLYLINE
8
Halfen
62
7
66
1
10
0.0
20
0.0
30
0.0
70
1
0
VERTEX
8
Halfen
62
7
10
 1410
20
-60
30
0
0
VERTEX
8
Halfen
62
7
10
 1410
20
 60
30
0
0
VERTEX
8
Halfen
62
7
10
 1396.5
20
 73.5
30
0
0
VERTEX
8
Halfen
62
7
10
 1396.5
20
 60
30
0
0
VERTEX
8
Halfen
62
7
10
 1250
20
 60
30
0
0
VERTEX
8
Halfen
62
7
10
 1250
20
-60
30
0
0
VERTEX
8
Halfen
62
7
10
 1396.5
20
-60
30
0
0
VERTEX
8
Halfen
62
7
10
 1396.5
20
-73.5
30
0
0
SEQEND
8
Halfen
0
POLYLINE
8
Halfen
62
7
66
1
10
0.0
20
0.0
30
0.0
70
1
0
VERTEX
8
Halfen
62
7
10
 1250
20
-60
30
0
0
VERTEX
8
Halfen
62
7
10
 1250
20
 60
30
0
0
VERTEX
8
Halfen
62
7
10
 1213.5
20
 60
30
0
0
VERTEX
8
Halfen
62
7
10
 1213.5
20
 73.5
30
0
0
VERTEX
8
Halfen
62
7
10
 1200
20
 60
30
0
0
VERTEX
8
Halfen
62
7
10
 1200
20
-60
30
0
0
VERTEX
8
Halfen
62
7
10
 1213.5
20
-73.5
30
0
0
VERTEX
8
Halfen
62
7
10
 1213.5
20
-60
30
0
0
SEQEND
8
Halfen
0
POLYLINE
8
Halfen
62
7
66
1
10
0.0
20
0.0
30
0.0
70
1
0
VERTEX
8
Halfen
62
7
10
 1407.5
20
-58.75
30
0
0
VERTEX
8
Halfen
62
7
10
 1407.5
20
 58.75
30
0
0
VERTEX
8
Halfen
62
7
10
 1399
20
 67.25
30
0
0
VERTEX
8
Halfen
62
7
10
 1399
20
 58
30
0
0
VERTEX
8
Halfen
62
7
10
 1252
20
 58
30
0
0
VERTEX
8
Halfen
62
7
10
 1252
20
-58
30
0
0
VERTEX
8
Halfen
62
7
10
 1399
20
-58
30
0
0
VERTEX
8
Halfen
62
7
10
 1399
20
-67.25
30
0
0
SEQEND
8
Halfen
0
POLYLINE
8
Halfen
62
7
66
1
10
0.0
20
0.0
30
0.0
70
1
0
VERTEX
8
Halfen
62
7
10
 1248
20
-58
30
0
0
VERTEX
8
Halfen
62
7
10
 1248
20
 58
30
0
0
VERTEX
8
Halfen
62
7
10
 1211
20
 58
30
0
0
VERTEX
8
Halfen
62
7
10
 1211
20
 67.25
30
0
0
VERTEX
8
Halfen
62
7
10
 1202.5
20
 58.75
30
0
0
VERTEX
8
Halfen
62
7
10
 1202.5
20
-58.75
30
0
0
VERTEX
8
Halfen
62
7
10
 1211
20
-67.25
30
0
0
VERTEX
8
Halfen
62
7
10
 1211
20
-58
30
0
0
SEQEND
8
Halfen
0
POLYLINE
8
Halfen
62
7
66
1
10
0.0
20
0.0
30
0.0
70
1
0
VERTEX
8
Halfen
62
7
10
 1395
20
-81.8
30
0
0
VERTEX
8
Halfen
62
7
10
 1395
20
 81.8
30
0
0
VERTEX
8
Halfen
62
7
10
 1391
20
 81.8
30
0
0
VERTEX
8
Halfen
62
7
10
 1390.846
20
 81.797
30
0
0
VERTEX
8
Halfen
62
7
10
 1390.691
20
 81.786
30
0
0
VERTEX
8
Halfen
62
7
10
 1390.538
20
 81.769
30
0
0
VERTEX
8
Halfen
62
7
10
 1390.385
20
 81.746
30
0
0
VERTEX
8
Halfen
62
7
10
 1390.234
20
 81.715
30
0
0
VERTEX
8
Halfen
62
7
10
 1390.084
20
 81.678
30
0
0
VERTEX
8
Halfen
62
7
10
 1389.936
20
 81.634
30
0
0
VERTEX
8
Halfen
62
7
10
 1389.789
20
 81.584
30
0
0
VERTEX
8
Halfen
62
7
10
 1389.646
20
 81.527
30
0
0
VERTEX
8
Halfen
62
7
10
 1389.505
20
 81.464
30
0
0
VERTEX
8
Halfen
62
7
10
 1389.366
20
 81.395
30
0
0
VERTEX
8
Halfen
62
7
10
 1389.231
20
 81.32
30
0
0
VERTEX
8
Halfen
62
7
10
 1389.1
20
 81.239
30
0
0
VERTEX
8
Halfen
62
7
10
 1388.972
20
 81.153
30
0
0
VERTEX
8
Halfen
62
7
10
 1388.848
20
 81.06
30
0
0
VERTEX
8
Halfen
62
7
10
 1388.728
20
 80.963
30
0
0
VERTEX
8
Halfen
62
7
10
 1388.613
20
 80.86
30
0
0
VERTEX
8
Halfen
62
7
10
 1388.502
20
 80.752
30
0
0
VERTEX
8
Halfen
62
7
10
 1388.397
20
 80.639
30
0
0
VERTEX
8
Halfen
62
7
10
 1388.296
20
 80.522
30
0
0
VERTEX
8
Halfen
62
7
10
 1387.41
20
 79.491
30
0
0
VERTEX
8
Halfen
62
7
10
 1386.479
20
 78.5
30
0
0
VERTEX
8
Halfen
62
7
10
 1385.505
20
 77.551
30
0
0
VERTEX
8
Halfen
62
7
10
 1384.491
20
 76.646
30
0
0
VERTEX
8
Halfen
62
7
10
 1383.437
20
 75.787
30
0
0
VERTEX
8
Halfen
62
7
10
 1382.347
20
 74.975
30
0
0
VERTEX
8
Halfen
62
7
10
 1381.222
20
 74.211
30
0
0
VERTEX
8
Halfen
62
7
10
 1380.064
20
 73.499
30
0
0
VERTEX
8
Halfen
62
7
10
 1378.876
20
 72.838
30
0
0
VERTEX
8
Halfen
62
7
10
 1377.66
20
 72.23
30
0
0
VERTEX
8
Halfen
62
7
10
 1376.418
20
 71.676
30
0
0
VERTEX
8
Halfen
62
7
10
 1375.153
20
 71.178
30
0
0
VERTEX
8
Halfen
62
7
10
 1373.867
20
 70.736
30
0
0
VERTEX
8
Halfen
62
7
10
 1372.563
20
 70.351
30
0
0
VERTEX
8
Halfen
62
7
10
 1371.243
20
 70.024
30
0
0
VERTEX
8
Halfen
62
7
10
 1369.911
20
 69.756
30
0
0
VERTEX
8
Halfen
62
7
10
 1368.567
20
 69.547
30
0
0
VERTEX
8
Halfen
62
7
10
 1367.216
20
 69.397
30
0
0
VERTEX
8
Halfen
62
7
10
 1365.859
20
 69.307
30
0
0
VERTEX
8
Halfen
62
7
10
 1364.5
20
 69.277
30
0
0
VERTEX
8
Halfen
62
7
10
 1342.5
20
 69.277
30
0
0
VERTEX
8
Halfen
62
7
10
 1341.141
20
 69.307
30
0
0
VERTEX
8
Halfen
62
7
10
 1339.784
20
 69.397
30
0
0
VERTEX
8
Halfen
62
7
10
 1338.433
20
 69.547
30
0
0
VERTEX
8
Halfen
62
7
10
 1337.089
20
 69.756
30
0
0
VERTEX
8
Halfen
62
7
10
 1335.757
20
 70.024
30
0
0
VERTEX
8
Halfen
62
7
10
 1334.437
20
 70.351
30
0
0
VERTEX
8
Halfen
62
7
10
 1333.133
20
 70.736
30
0
0
VERTEX
8
Halfen
62
7
10
 1331.847
20
 71.178
30
0
0
VERTEX
8
Halfen
62
7
10
 1330.582
20
 71.676
30
0
0
VERTEX
8
Halfen
62
7
10
 1329.34
20
 72.23
30
0
0
VERTEX
8
Halfen
62
7
10
 1328.124
20
 72.838
30
0
0
VERTEX
8
Halfen
62
7
10
 1326.936
20
 73.499
30
0
0
VERTEX
8
Halfen
62
7
10
 1325.778
20
 74.211
30
0
0
VERTEX
8
Halfen
62
7
10
 1324.653
20
 74.975
30
0
0
VERTEX
8
Halfen
62
7
10
 1323.563
20
 75.787
30
0
0
VERTEX
8
Halfen
62
7
10
 1322.509
20
 76.646
30
0
0
VERTEX
8
Halfen
62
7
10
 1321.495
20
 77.551
30
0
0
VERTEX
8
Halfen
62
7
10
 1320.521
20
 78.5
30
0
0
VERTEX
8
Halfen
62
7
10
 1319.59
20
 79.491
30
0
0
VERTEX
8
Halfen
62
7
10
 1318.704
20
 80.522
30
0
0
VERTEX
8
Halfen
62
7
10
 1318.603
20
 80.639
30
0
0
VERTEX
8
Halfen
62
7
10
 1318.498
20
 80.752
30
0
0
VERTEX
8
Halfen
62
7
10
 1318.387
20
 80.86
30
0
0
VERTEX
8
Halfen
62
7
10
 1318.272
20
 80.963
30
0
0
VERTEX
8
Halfen
62
7
10
 1318.152
20
 81.06
30
0
0
VERTEX
8
Halfen
62
7
10
 1318.028
20
 81.153
30
0
0
VERTEX
8
Halfen
62
7
10
 1317.9
20
 81.239
30
0
0
VERTEX
8
Halfen
62
7
10
 1317.769
20
 81.32
30
0
0
VERTEX
8
Halfen
62
7
10
 1317.634
20
 81.395
30
0
0
VERTEX
8
Halfen
62
7
10
 1317.495
20
 81.464
30
0
0
VERTEX
8
Halfen
62
7
10
 1317.354
20
 81.527
30
0
0
VERTEX
8
Halfen
62
7
10
 1317.211
20
 81.584
30
0
0
VERTEX
8
Halfen
62
7
10
 1317.064
20
 81.634
30
0
0
VERTEX
8
Halfen
62
7
10
 1316.916
20
 81.678
30
0
0
VERTEX
8
Halfen
62
7
10
 1316.766
20
 81.715
30
0
0
VERTEX
8
Halfen
62
7
10
 1316.615
20
 81.746
30
0
0
VERTEX
8
Halfen
62
7
10
 1316.462
20
 81.769
30
0
0
VERTEX
8
Halfen
62
7
10
 1316.309
20
 81.786
30
0
0
VERTEX
8
Halfen
62
7
10
 1316.154
20
 81.797
30
0
0
VERTEX
8
Halfen
62
7
10
 1316
20
 81.8
30
0
0
VERTEX
8
Halfen
62
7
10
 1312
20
 81.8
30
0
0
VERTEX
8
Halfen
62
7
10
 1312
20
-81.8
30
0
0
VERTEX
8
Halfen
62
7
10
 1316
20
-81.8
30
0
0
VERTEX
8
Halfen
62
7
10
 1316.154
20
-81.797
30
0
0
VERTEX
8
Halfen
62
7
10
 1316.309
20
-81.786
30
0
0
VERTEX
8
Halfen
62
7
10
 1316.462
20
-81.769
30
0
0
VERTEX
8
Halfen
62
7
10
 1316.615
20
-81.746
30
0
0
VERTEX
8
Halfen
62
7
10
 1316.766
20
-81.715
30
0
0
VERTEX
8
Halfen
62
7
10
 1316.916
20
-81.678
30
0
0
VERTEX
8
Halfen
62
7
10
 1317.064
20
-81.634
30
0
0
VERTEX
8
Halfen
62
7
10
 1317.211
20
-81.584
30
0
0
VERTEX
8
Halfen
62
7
10
 1317.354
20
-81.527
30
0
0
VERTEX
8
Halfen
62
7
10
 1317.495
20
-81.464
30
0
0
VERTEX
8
Halfen
62
7
10
 1317.634
20
-81.395
30
0
0
VERTEX
8
Halfen
62
7
10
 1317.769
20
-81.32
30
0
0
VERTEX
8
Halfen
62
7
10
 1317.9
20
-81.239
30
0
0
VERTEX
8
Halfen
62
7
10
 1318.028
20
-81.153
30
0
0
VERTEX
8
Halfen
62
7
10
 1318.152
20
-81.06
30
0
0
VERTEX
8
Halfen
62
7
10
 1318.272
20
-80.963
30
0
0
VERTEX
8
Halfen
62
7
10
 1318.387
20
-80.86
30
0
0
VERTEX
8
Halfen
62
7
10
 1318.498
20
-80.752
30
0
0
VERTEX
8
Halfen
62
7
10
 1318.603
20
-80.639
30
0
0
VERTEX
8
Halfen
62
7
10
 1318.704
20
-80.522
30
0
0
VERTEX
8
Halfen
62
7
10
 1319.59
20
-79.491
30
0
0
VERTEX
8
Halfen
62
7
10
 1320.521
20
-78.5
30
0
0
VERTEX
8
Halfen
62
7
10
 1321.495
20
-77.551
30
0
0
VERTEX
8
Halfen
62
7
10
 1322.509
20
-76.646
30
0
0
VERTEX
8
Halfen
62
7
10
 1323.563
20
-75.787
30
0
0
VERTEX
8
Halfen
62
7
10
 1324.653
20
-74.975
30
0
0
VERTEX
8
Halfen
62
7
10
 1325.778
20
-74.211
30
0
0
VERTEX
8
Halfen
62
7
10
 1326.936
20
-73.499
30
0
0
VERTEX
8
Halfen
62
7
10
 1328.124
20
-72.838
30
0
0
VERTEX
8
Halfen
62
7
10
 1329.34
20
-72.23
30
0
0
VERTEX
8
Halfen
62
7
10
 1330.582
20
-71.676
30
0
0
VERTEX
8
Halfen
62
7
10
 1331.847
20
-71.178
30
0
0
VERTEX
8
Halfen
62
7
10
 1333.133
20
-70.736
30
0
0
VERTEX
8
Halfen
62
7
10
 1334.437
20
-70.351
30
0
0
VERTEX
8
Halfen
62
7
10
 1335.757
20
-70.024
30
0
0
VERTEX
8
Halfen
62
7
10
 1337.089
20
-69.756
30
0
0
VERTEX
8
Halfen
62
7
10
 1338.433
20
-69.547
30
0
0
VERTEX
8
Halfen
62
7
10
 1339.784
20
-69.397
30
0
0
VERTEX
8
Halfen
62
7
10
 1341.141
20
-69.307
30
0
0
VERTEX
8
Halfen
62
7
10
 1342.5
20
-69.277
30
0
0
VERTEX
8
Halfen
62
7
10
 1364.5
20
-69.277
30
0
0
VERTEX
8
Halfen
62
7
10
 1365.859
20
-69.307
30
0
0
VERTEX
8
Halfen
62
7
10
 1367.216
20
-69.397
30
0
0
VERTEX
8
Halfen
62
7
10
 1368.567
20
-69.547
30
0
0
VERTEX
8
Halfen
62
7
10
 1369.911
20
-69.756
30
0
0
VERTEX
8
Halfen
62
7
10
 1371.243
20
-70.024
30
0
0
VERTEX
8
Halfen
62
7
10
 1372.563
20
-70.351
30
0
0
VERTEX
8
Halfen
62
7
10
 1373.867
20
-70.736
30
0
0
VERTEX
8
Halfen
62
7
10
 1375.153
20
-71.178
30
0
0
VERTEX
8
Halfen
62
7
10
 1376.418
20
-71.676
30
0
0
VERTEX
8
Halfen
62
7
10
 1377.66
20
-72.23
30
0
0
VERTEX
8
Halfen
62
7
10
 1378.876
20
-72.838
30
0
0
VERTEX
8
Halfen
62
7
10
 1380.064
20
-73.499
30
0
0
VERTEX
8
Halfen
62
7
10
 1381.222
20
-74.211
30
0
0
VERTEX
8
Halfen
62
7
10
 1382.347
20
-74.975
30
0
0
VERTEX
8
Halfen
62
7
10
 1383.437
20
-75.787
30
0
0
VERTEX
8
Halfen
62
7
10
 1384.491
20
-76.646
30
0
0
VERTEX
8
Halfen
62
7
10
 1385.505
20
-77.551
30
0
0
VERTEX
8
Halfen
62
7
10
 1386.479
20
-78.5
30
0
0
VERTEX
8
Halfen
62
7
10
 1387.41
20
-79.491
30
0
0
VERTEX
8
Halfen
62
7
10
 1388.296
20
-80.522
30
0
0
VERTEX
8
Halfen
62
7
10
 1388.397
20
-80.639
30
0
0
VERTEX
8
Halfen
62
7
10
 1388.502
20
-80.752
30
0
0
VERTEX
8
Halfen
62
7
10
 1388.613
20
-80.86
30
0
0
VERTEX
8
Halfen
62
7
10
 1388.728
20
-80.963
30
0
0
VERTEX
8
Halfen
62
7
10
 1388.848
20
-81.06
30
0
0
VERTEX
8
Halfen
62
7
10
 1388.972
20
-81.153
30
0
0
VERTEX
8
Halfen
62
7
10
 1389.1
20
-81.239
30
0
0
VERTEX
8
Halfen
62
7
10
 1389.231
20
-81.32
30
0
0
VERTEX
8
Halfen
62
7
10
 1389.366
20
-81.395
30
0
0
VERTEX
8
Halfen
62
7
10
 1389.505
20
-81.464
30
0
0
VERTEX
8
Halfen
62
7
10
 1389.646
20
-81.527
30
0
0
VERTEX
8
Halfen
62
7
10
 1389.789
20
-81.584
30
0
0
VERTEX
8
Halfen
62
7
10
 1389.936
20
-81.634
30
0
0
VERTEX
8
Halfen
62
7
10
 1390.084
20
-81.678
30
0
0
VERTEX
8
Halfen
62
7
10
 1390.234
20
-81.715
30
0
0
VERTEX
8
Halfen
62
7
10
 1390.385
20
-81.746
30
0
0
VERTEX
8
Halfen
62
7
10
 1390.538
20
-81.769
30
0
0
VERTEX
8
Halfen
62
7
10
 1390.691
20
-81.786
30
0
0
VERTEX
8
Halfen
62
7
10
 1390.846
20
-81.797
30
0
0
VERTEX
8
Halfen
62
7
10
 1391
20
-81.8
30
0
0
SEQEND
8
Halfen
0
POLYLINE
8
Halfen
62
7
66
1
10
0.0
20
0.0
30
0.0
70
1
0
VERTEX
8
Halfen
62
7
10
 1380
20
-454.728
30
0
0
VERTEX
8
Halfen
62
7
10
 1380
20
-80.478
30
0
0
VERTEX
8
Halfen
62
7
10
 1379.679
20
-76.568
30
0
0
VERTEX
8
Halfen
62
7
10
 1378.726
20
-72.763
30
0
0
VERTEX
8
Halfen
62
7
10
 1377.166
20
-69.164
30
0
0
VERTEX
8
Halfen
62
7
10
 1375.04
20
-65.868
30
0
0
VERTEX
8
Halfen
62
7
10
 1259.72
20
 84.421
30
0
0
VERTEX
8
Halfen
62
7
10
 1258.125
20
 86.894
30
0
0
VERTEX
8
Halfen
62
7
10
 1256.955
20
 89.593
30
0
0
VERTEX
8
Halfen
62
7
10
 1256.24
20
 92.447
30
0
0
VERTEX
8
Halfen
62
7
10
 1256
20
 95.379
30
0
0
VERTEX
8
Halfen
62
7
10
 1256
20
 192.629
30
0
0
VERTEX
8
Halfen
62
7
10
 1256.222
20
 195.445
30
0
0
VERTEX
8
Halfen
62
7
10
 1256.881
20
 198.191
30
0
0
VERTEX
8
Halfen
62
7
10
 1257.962
20
 200.801
30
0
0
VERTEX
8
Halfen
62
7
10
 1259.438
20
 203.209
30
0
0
VERTEX
8
Halfen
62
7
10
 1261.272
20
 205.357
30
0
0
VERTEX
8
Halfen
62
7
10
 1263.42
20
 207.191
30
0
0
VERTEX
8
Halfen
62
7
10
 1265.828
20
 208.667
30
0
0
VERTEX
8
Halfen
62
7
10
 1268.438
20
 209.748
30
0
0
VERTEX
8
Halfen
62
7
10
 1271.184
20
 210.407
30
0
0
VERTEX
8
Halfen
62
7
10
 1274
20
 210.629
30
0
0
VERTEX
8
Halfen
62
7
10
 1345
20
 210.629
30
0
0
VERTEX
8
Halfen
62
7
10
 1345
20
 216.629
30
0
0
VERTEX
8
Halfen
62
7
10
 1274
20
 216.629
30
0
0
VERTEX
8
Halfen
62
7
10
 1270.246
20
 216.333
30
0
0
VERTEX
8
Halfen
62
7
10
 1266.584
20
 215.454
30
0
0
VERTEX
8
Halfen
62
7
10
 1263.104
20
 214.013
30
0
0
VERTEX
8
Halfen
62
7
10
 1259.893
20
 212.045
30
0
0
VERTEX
8
Halfen
62
7
10
 1257.029
20
 209.599
30
0
0
VERTEX
8
Halfen
62
7
10
 1254.584
20
 206.736
30
0
0
VERTEX
8
Halfen
62
7
10
 1252.616
20
 203.525
30
0
0
VERTEX
8
Halfen
62
7
10
 1251.175
20
 200.045
30
0
0
VERTEX
8
Halfen
62
7
10
 1250.295
20
 196.383
30
0
0
VERTEX
8
Halfen
62
7
10
 1250
20
 192.629
30
0
0
VERTEX
8
Halfen
62
7
10
 1250
20
 95.379
30
0
0
VERTEX
8
Halfen
62
7
10
 1250.321
20
 91.47
30
0
0
VERTEX
8
Halfen
62
7
10
 1251.274
20
 87.665
30
0
0
VERTEX
8
Halfen
62
7
10
 1252.834
20
 84.066
30
0
0
VERTEX
8
Halfen
62
7
10
 1254.96
20
 80.769
30
0
0
VERTEX
8
Halfen
62
7
10
 1370.28
20
-69.52
30
0
0
VERTEX
8
Halfen
62
7
10
 1371.875
20
-71.993
30
0
0
VERTEX
8
Halfen
62
7
10
 1373.045
20
-74.692
30
0
0
VERTEX
8
Halfen
62
7
10
 1373.76
20
-77.546
30
0
0
VERTEX
8
Halfen
62
7
10
 1374
20
-80.478
30
0
0
VERTEX
8
Halfen
62
7
10
 1374
20
-454.728
30
0
0
SEQEND
8
Halfen
0
POLYLINE
8
Halfen
62
7
66
1
10
0.0
20
0.0
30
0.0
70
1
0
VERTEX
8
Halfen
62
7
10
 1250
20
-454.728
30
0
0
VERTEX
8
Halfen
62
7
10
 1250
20
-80.478
30
0
0
VERTEX
8
Halfen
62
7
10
 1250.321
20
-76.568
30
0
0
VERTEX
8
Halfen
62
7
10
 1251.274
20
-72.763
30
0
0
VERTEX
8
Halfen
62
7
10
 1252.834
20
-69.164
30
0
0
VERTEX
8
Halfen
62
7
10
 1254.96
20
-65.868
30
0
0
VERTEX
8
Halfen
62
7
10
 1370.28
20
 84.421
30
0
0
VERTEX
8
Halfen
62
7
10
 1371.875
20
 86.894
30
0
0
VERTEX
8
Halfen
62
7
10
 1373.045
20
 89.593
30
0
0
VERTEX
8
Halfen
62
7
10
 1373.76
20
 92.447
30
0
0
VERTEX
8
Halfen
62
7
10
 1374
20
 95.379
30
0
0
VERTEX
8
Halfen
62
7
10
 1374
20
 192.629
30
0
0
VERTEX
8
Halfen
62
7
10
 1373.778
20
 195.445
30
0
0
VERTEX
8
Halfen
62
7
10
 1373.119
20
 198.191
30
0
0
VERTEX
8
Halfen
62
7
10
 1372.038
20
 200.801
30
0
0
VERTEX
8
Halfen
62
7
10
 1370.562
20
 203.209
30
0
0
VERTEX
8
Halfen
62
7
10
 1368.728
20
 205.357
30
0
0
VERTEX
8
Halfen
62
7
10
 1366.58
20
 207.191
30
0
0
VERTEX
8
Halfen
62
7
10
 1364.172
20
 208.667
30
0
0
VERTEX
8
Halfen
62
7
10
 1361.562
20
 209.748
30
0
0
VERTEX
8
Halfen
62
7
10
 1358.816
20
 210.407
30
0
0
VERTEX
8
Halfen
62
7
10
 1356
20
 210.629
30
0
0
VERTEX
8
Halfen
62
7
10
 1285
20
 210.629
30
0
0
VERTEX
8
Halfen
62
7
10
 1285
20
 216.629
30
0
0
VERTEX
8
Halfen
62
7
10
 1356
20
 216.629
30
0
0
VERTEX
8
Halfen
62
7
10
 1359.754
20
 216.333
30
0
0
VERTEX
8
Halfen
62
7
10
 1363.416
20
 215.454
30
0
0
VERTEX
8
Halfen
62
7
10
 1366.896
20
 214.013
30
0
0
VERTEX
8
Halfen
62
7
10
 1370.107
20
 212.045
30
0
0
VERTEX
8
Halfen
62
7
10
 1372.971
20
 209.599
30
0
0
VERTEX
8
Halfen
62
7
10
 1375.416
20
 206.736
30
0
0
VERTEX
8
Halfen
62
7
10
 1377.384
20
 203.525
30
0
0
VERTEX
8
Halfen
62
7
10
 1378.825
20
 200.045
30
0
0
VERTEX
8
Halfen
62
7
10
 1379.705
20
 196.383
30
0
0
VERTEX
8
Halfen
62
7
10
 1380
20
 192.629
30
0
0
VERTEX
8
Halfen
62
7
10
 1380
20
 95.379
30
0
0
VERTEX
8
Halfen
62
7
10
 1379.679
20
 91.47
30
0
0
VERTEX
8
Halfen
62
7
10
 1378.726
20
 87.665
30
0
0
VERTEX
8
Halfen
62
7
10
 1377.166
20
 84.066
30
0
0
VERTEX
8
Halfen
62
7
10
 1375.04
20
 80.769
30
0
0
VERTEX
8
Halfen
62
7
10
 1259.72
20
-69.52
30
0
0
VERTEX
8
Halfen
62
7
10
 1258.125
20
-71.993
30
0
0
VERTEX
8
Halfen
62
7
10
 1256.955
20
-74.692
30
0
0
VERTEX
8
Halfen
62
7
10
 1256.24
20
-77.546
30
0
0
VERTEX
8
Halfen
62
7
10
 1256
20
-80.478
30
0
0
VERTEX
8
Halfen
62
7
10
 1256
20
-454.728
30
0
0
SEQEND
8
Halfen
0
ENDSEC
0
EOF
