0
SECTION
2
HEADER
9
$EXTMIN
10
 0
20
 100
30
0.0
9
$EXTMAX
10
 0
20
 100
30
0.0
9
$LIMMIN
10
 100
20
 0
9
$LIMMAX
10
 0
20
 100
9
$PSLTSCALE
70
1
0
ENDSEC
0
SECTION
2
TABLES
0
TABLE
2
LAYER
70
2
0
LAYER
2
0
70
0
62
7
6
CONTINUOUS
0
LAYER
2
Halfen
70
0
62
7
6
CONTINUOUS
0
ENDTAB
0
ENDSEC
0
SECTION
2
ENTITIES
0
POLYLINE
8
Halfen
62
7
66
1
10
0.0
20
0.0
30
0.0
70
1
0
VERTEX
8
Halfen
62
7
10
 0
20
-73.5
30
0
0
VERTEX
8
Halfen
62
7
10
 500
20
-73.5
30
0
0
VERTEX
8
Halfen
62
7
10
 500
20
 73.5
30
0
0
VERTEX
8
Halfen
62
7
10
 0
20
 73.5
30
0
0
SEQEND
8
Halfen
0
POLYLINE
8
Halfen
62
7
66
1
10
0.0
20
0.0
30
0.0
70
1
0
VERTEX
8
Halfen
62
7
10
 0
20
-60
30
0
0
VERTEX
8
Halfen
62
7
10
 500
20
-60
30
0
0
VERTEX
8
Halfen
62
7
10
 500
20
 60
30
0
0
VERTEX
8
Halfen
62
7
10
 0
20
 60
30
0
0
SEQEND
8
Halfen
0
POLYLINE
8
Halfen
62
7
66
1
10
0.0
20
0.0
30
0.0
70
1
0
VERTEX
8
Halfen
62
7
10
 20
20
-32.5
30
0
0
VERTEX
8
Halfen
62
7
10
 37
20
-1.5
30
0
0
VERTEX
8
Halfen
62
7
10
 28
20
-1.5
30
0
0
VERTEX
8
Halfen
62
7
10
 28
20
 32.5
30
0
0
VERTEX
8
Halfen
62
7
10
 12
20
 32.5
30
0
0
VERTEX
8
Halfen
62
7
10
 12
20
-1.5
30
0
0
VERTEX
8
Halfen
62
7
10
 3
20
-1.5
30
0
0
SEQEND
8
Halfen
0
POLYLINE
8
Halfen
62
7
66
1
10
0.0
20
0.0
30
0.0
70
1
0
VERTEX
8
Halfen
62
7
10
 480
20
-32.5
30
0
0
VERTEX
8
Halfen
62
7
10
 497
20
-1.5
30
0
0
VERTEX
8
Halfen
62
7
10
 488
20
-1.5
30
0
0
VERTEX
8
Halfen
62
7
10
 488
20
 32.5
30
0
0
VERTEX
8
Halfen
62
7
10
 472
20
 32.5
30
0
0
VERTEX
8
Halfen
62
7
10
 472
20
-1.5
30
0
0
VERTEX
8
Halfen
62
7
10
 463
20
-1.5
30
0
0
SEQEND
8
Halfen
0
POLYLINE
8
Halfen
62
7
66
1
10
0.0
20
0.0
30
0.0
70
1
0
VERTEX
8
Halfen
62
7
10
 265
20
-69.3
30
0
0
VERTEX
8
Halfen
62
7
10
 265
20
-56.8
30
0
0
VERTEX
8
Halfen
62
7
10
 265
20
 69.3
30
0
0
VERTEX
8
Halfen
62
7
10
 264.958
20
 70.359
30
0
0
VERTEX
8
Halfen
62
7
10
 264.834
20
 71.412
30
0
0
VERTEX
8
Halfen
62
7
10
 264.627
20
 72.452
30
0
0
VERTEX
8
Halfen
62
7
10
 264.339
20
 73.472
30
0
0
VERTEX
8
Halfen
62
7
10
 263.972
20
 74.466
30
0
0
VERTEX
8
Halfen
62
7
10
 263.529
20
 75.429
30
0
0
VERTEX
8
Halfen
62
7
10
 263.011
20
 76.354
30
0
0
VERTEX
8
Halfen
62
7
10
 262.422
20
 77.235
30
0
0
VERTEX
8
Halfen
62
7
10
 261.765
20
 78.068
30
0
0
VERTEX
8
Halfen
62
7
10
 261.046
20
 78.846
30
0
0
VERTEX
8
Halfen
62
7
10
 260.268
20
 79.565
30
0
0
VERTEX
8
Halfen
62
7
10
 259.435
20
 80.222
30
0
0
VERTEX
8
Halfen
62
7
10
 258.554
20
 80.811
30
0
0
VERTEX
8
Halfen
62
7
10
 257.629
20
 81.329
30
0
0
VERTEX
8
Halfen
62
7
10
 256.666
20
 81.772
30
0
0
VERTEX
8
Halfen
62
7
10
 255.672
20
 82.139
30
0
0
VERTEX
8
Halfen
62
7
10
 254.652
20
 82.427
30
0
0
VERTEX
8
Halfen
62
7
10
 253.612
20
 82.634
30
0
0
VERTEX
8
Halfen
62
7
10
 252.559
20
 82.758
30
0
0
VERTEX
8
Halfen
62
7
10
 251.5
20
 82.8
30
0
0
VERTEX
8
Halfen
62
7
10
 248.5
20
 82.8
30
0
0
VERTEX
8
Halfen
62
7
10
 247.441
20
 82.758
30
0
0
VERTEX
8
Halfen
62
7
10
 246.388
20
 82.634
30
0
0
VERTEX
8
Halfen
62
7
10
 245.348
20
 82.427
30
0
0
VERTEX
8
Halfen
62
7
10
 244.328
20
 82.139
30
0
0
VERTEX
8
Halfen
62
7
10
 243.334
20
 81.772
30
0
0
VERTEX
8
Halfen
62
7
10
 242.371
20
 81.329
30
0
0
VERTEX
8
Halfen
62
7
10
 241.446
20
 80.811
30
0
0
VERTEX
8
Halfen
62
7
10
 240.565
20
 80.222
30
0
0
VERTEX
8
Halfen
62
7
10
 239.732
20
 79.565
30
0
0
VERTEX
8
Halfen
62
7
10
 238.954
20
 78.846
30
0
0
VERTEX
8
Halfen
62
7
10
 238.235
20
 78.068
30
0
0
VERTEX
8
Halfen
62
7
10
 237.578
20
 77.235
30
0
0
VERTEX
8
Halfen
62
7
10
 236.989
20
 76.354
30
0
0
VERTEX
8
Halfen
62
7
10
 236.471
20
 75.429
30
0
0
VERTEX
8
Halfen
62
7
10
 236.028
20
 74.466
30
0
0
VERTEX
8
Halfen
62
7
10
 235.661
20
 73.472
30
0
0
VERTEX
8
Halfen
62
7
10
 235.373
20
 72.452
30
0
0
VERTEX
8
Halfen
62
7
10
 235.166
20
 71.412
30
0
0
VERTEX
8
Halfen
62
7
10
 235.042
20
 70.359
30
0
0
VERTEX
8
Halfen
62
7
10
 235
20
 69.3
30
0
0
VERTEX
8
Halfen
62
7
10
 235
20
-56.8
30
0
0
VERTEX
8
Halfen
62
7
10
 235
20
-69.3
30
0
0
VERTEX
8
Halfen
62
7
10
 235.042
20
-70.359
30
0
0
VERTEX
8
Halfen
62
7
10
 235.166
20
-71.412
30
0
0
VERTEX
8
Halfen
62
7
10
 235.373
20
-72.452
30
0
0
VERTEX
8
Halfen
62
7
10
 235.661
20
-73.472
30
0
0
VERTEX
8
Halfen
62
7
10
 236.028
20
-74.466
30
0
0
VERTEX
8
Halfen
62
7
10
 236.471
20
-75.429
30
0
0
VERTEX
8
Halfen
62
7
10
 236.989
20
-76.354
30
0
0
VERTEX
8
Halfen
62
7
10
 237.578
20
-77.235
30
0
0
VERTEX
8
Halfen
62
7
10
 238.235
20
-78.068
30
0
0
VERTEX
8
Halfen
62
7
10
 238.954
20
-78.846
30
0
0
VERTEX
8
Halfen
62
7
10
 239.732
20
-79.565
30
0
0
VERTEX
8
Halfen
62
7
10
 240.565
20
-80.222
30
0
0
VERTEX
8
Halfen
62
7
10
 241.446
20
-80.811
30
0
0
VERTEX
8
Halfen
62
7
10
 242.371
20
-81.329
30
0
0
VERTEX
8
Halfen
62
7
10
 243.334
20
-81.772
30
0
0
VERTEX
8
Halfen
62
7
10
 244.328
20
-82.139
30
0
0
VERTEX
8
Halfen
62
7
10
 245.348
20
-82.427
30
0
0
VERTEX
8
Halfen
62
7
10
 246.388
20
-82.634
30
0
0
VERTEX
8
Halfen
62
7
10
 247.441
20
-82.758
30
0
0
VERTEX
8
Halfen
62
7
10
 248.5
20
-82.8
30
0
0
VERTEX
8
Halfen
62
7
10
 251.5
20
-82.8
30
0
0
VERTEX
8
Halfen
62
7
10
 252.559
20
-82.758
30
0
0
VERTEX
8
Halfen
62
7
10
 253.612
20
-82.634
30
0
0
VERTEX
8
Halfen
62
7
10
 254.652
20
-82.427
30
0
0
VERTEX
8
Halfen
62
7
10
 255.672
20
-82.139
30
0
0
VERTEX
8
Halfen
62
7
10
 256.666
20
-81.772
30
0
0
VERTEX
8
Halfen
62
7
10
 257.629
20
-81.329
30
0
0
VERTEX
8
Halfen
62
7
10
 258.554
20
-80.811
30
0
0
VERTEX
8
Halfen
62
7
10
 259.435
20
-80.222
30
0
0
VERTEX
8
Halfen
62
7
10
 260.268
20
-79.565
30
0
0
VERTEX
8
Halfen
62
7
10
 261.046
20
-78.846
30
0
0
VERTEX
8
Halfen
62
7
10
 261.765
20
-78.068
30
0
0
VERTEX
8
Halfen
62
7
10
 262.422
20
-77.235
30
0
0
VERTEX
8
Halfen
62
7
10
 263.011
20
-76.354
30
0
0
VERTEX
8
Halfen
62
7
10
 263.529
20
-75.429
30
0
0
VERTEX
8
Halfen
62
7
10
 263.972
20
-74.466
30
0
0
VERTEX
8
Halfen
62
7
10
 264.339
20
-73.472
30
0
0
VERTEX
8
Halfen
62
7
10
 264.627
20
-72.452
30
0
0
VERTEX
8
Halfen
62
7
10
 264.834
20
-71.412
30
0
0
VERTEX
8
Halfen
62
7
10
 264.958
20
-70.359
30
0
0
VERTEX
8
Halfen
62
7
10
 265
20
-69.3
30
0
0
SEQEND
8
Halfen
0
POLYLINE
8
Halfen
62
7
66
1
10
0.0
20
0.0
30
0.0
70
1
0
VERTEX
8
Halfen
62
7
10
 193
20
-456.177
30
0
0
VERTEX
8
Halfen
62
7
10
 193
20
 216.147
30
0
0
VERTEX
8
Halfen
62
7
10
 187
20
 216.147
30
0
0
VERTEX
8
Halfen
62
7
10
 187
20
-456.177
30
0
0
SEQEND
8
Halfen
0
POLYLINE
8
Halfen
62
7
66
1
10
0.0
20
0.0
30
0.0
70
1
0
VERTEX
8
Halfen
62
7
10
 183
20
-456.177
30
0
0
VERTEX
8
Halfen
62
7
10
 183
20
 216.147
30
0
0
VERTEX
8
Halfen
62
7
10
 177
20
 216.147
30
0
0
VERTEX
8
Halfen
62
7
10
 177
20
-456.177
30
0
0
SEQEND
8
Halfen
0
POLYLINE
8
Halfen
62
7
66
1
10
0.0
20
0.0
30
0.0
70
1
0
VERTEX
8
Halfen
62
7
10
 970
20
-60
30
0
0
VERTEX
8
Halfen
62
7
10
 970
20
 60
30
0
0
VERTEX
8
Halfen
62
7
10
 956.5
20
 73.5
30
0
0
VERTEX
8
Halfen
62
7
10
 956.5
20
 60
30
0
0
VERTEX
8
Halfen
62
7
10
 750
20
 60
30
0
0
VERTEX
8
Halfen
62
7
10
 750
20
-60
30
0
0
VERTEX
8
Halfen
62
7
10
 956.5
20
-60
30
0
0
VERTEX
8
Halfen
62
7
10
 956.5
20
-73.5
30
0
0
SEQEND
8
Halfen
0
POLYLINE
8
Halfen
62
7
66
1
10
0.0
20
0.0
30
0.0
70
1
0
VERTEX
8
Halfen
62
7
10
 750
20
-60
30
0
0
VERTEX
8
Halfen
62
7
10
 750
20
 60
30
0
0
VERTEX
8
Halfen
62
7
10
 713.5
20
 60
30
0
0
VERTEX
8
Halfen
62
7
10
 713.5
20
 73.5
30
0
0
VERTEX
8
Halfen
62
7
10
 700
20
 60
30
0
0
VERTEX
8
Halfen
62
7
10
 700
20
-60
30
0
0
VERTEX
8
Halfen
62
7
10
 713.5
20
-73.5
30
0
0
VERTEX
8
Halfen
62
7
10
 713.5
20
-60
30
0
0
SEQEND
8
Halfen
0
POLYLINE
8
Halfen
62
7
66
1
10
0.0
20
0.0
30
0.0
70
1
0
VERTEX
8
Halfen
62
7
10
 967.5
20
-58.75
30
0
0
VERTEX
8
Halfen
62
7
10
 967.5
20
 58.75
30
0
0
VERTEX
8
Halfen
62
7
10
 959
20
 67.25
30
0
0
VERTEX
8
Halfen
62
7
10
 959
20
 58
30
0
0
VERTEX
8
Halfen
62
7
10
 752
20
 58
30
0
0
VERTEX
8
Halfen
62
7
10
 752
20
-58
30
0
0
VERTEX
8
Halfen
62
7
10
 959
20
-58
30
0
0
VERTEX
8
Halfen
62
7
10
 959
20
-67.25
30
0
0
SEQEND
8
Halfen
0
POLYLINE
8
Halfen
62
7
66
1
10
0.0
20
0.0
30
0.0
70
1
0
VERTEX
8
Halfen
62
7
10
 748
20
-58
30
0
0
VERTEX
8
Halfen
62
7
10
 748
20
 58
30
0
0
VERTEX
8
Halfen
62
7
10
 711
20
 58
30
0
0
VERTEX
8
Halfen
62
7
10
 711
20
 67.25
30
0
0
VERTEX
8
Halfen
62
7
10
 702.5
20
 58.75
30
0
0
VERTEX
8
Halfen
62
7
10
 702.5
20
-58.75
30
0
0
VERTEX
8
Halfen
62
7
10
 711
20
-67.25
30
0
0
VERTEX
8
Halfen
62
7
10
 711
20
-58
30
0
0
SEQEND
8
Halfen
0
POLYLINE
8
Halfen
62
7
66
1
10
0.0
20
0.0
30
0.0
70
1
0
VERTEX
8
Halfen
62
7
10
 955
20
-81.8
30
0
0
VERTEX
8
Halfen
62
7
10
 955
20
 81.8
30
0
0
VERTEX
8
Halfen
62
7
10
 951
20
 81.8
30
0
0
VERTEX
8
Halfen
62
7
10
 950.846
20
 81.797
30
0
0
VERTEX
8
Halfen
62
7
10
 950.691
20
 81.786
30
0
0
VERTEX
8
Halfen
62
7
10
 950.538
20
 81.769
30
0
0
VERTEX
8
Halfen
62
7
10
 950.385
20
 81.746
30
0
0
VERTEX
8
Halfen
62
7
10
 950.234
20
 81.715
30
0
0
VERTEX
8
Halfen
62
7
10
 950.084
20
 81.678
30
0
0
VERTEX
8
Halfen
62
7
10
 949.936
20
 81.634
30
0
0
VERTEX
8
Halfen
62
7
10
 949.789
20
 81.584
30
0
0
VERTEX
8
Halfen
62
7
10
 949.646
20
 81.527
30
0
0
VERTEX
8
Halfen
62
7
10
 949.505
20
 81.464
30
0
0
VERTEX
8
Halfen
62
7
10
 949.366
20
 81.395
30
0
0
VERTEX
8
Halfen
62
7
10
 949.231
20
 81.32
30
0
0
VERTEX
8
Halfen
62
7
10
 949.1
20
 81.239
30
0
0
VERTEX
8
Halfen
62
7
10
 948.972
20
 81.153
30
0
0
VERTEX
8
Halfen
62
7
10
 948.848
20
 81.06
30
0
0
VERTEX
8
Halfen
62
7
10
 948.728
20
 80.963
30
0
0
VERTEX
8
Halfen
62
7
10
 948.613
20
 80.86
30
0
0
VERTEX
8
Halfen
62
7
10
 948.502
20
 80.752
30
0
0
VERTEX
8
Halfen
62
7
10
 948.397
20
 80.639
30
0
0
VERTEX
8
Halfen
62
7
10
 948.296
20
 80.522
30
0
0
VERTEX
8
Halfen
62
7
10
 947.41
20
 79.491
30
0
0
VERTEX
8
Halfen
62
7
10
 946.479
20
 78.5
30
0
0
VERTEX
8
Halfen
62
7
10
 945.505
20
 77.551
30
0
0
VERTEX
8
Halfen
62
7
10
 944.491
20
 76.646
30
0
0
VERTEX
8
Halfen
62
7
10
 943.437
20
 75.787
30
0
0
VERTEX
8
Halfen
62
7
10
 942.347
20
 74.975
30
0
0
VERTEX
8
Halfen
62
7
10
 941.222
20
 74.211
30
0
0
VERTEX
8
Halfen
62
7
10
 940.064
20
 73.499
30
0
0
VERTEX
8
Halfen
62
7
10
 938.876
20
 72.838
30
0
0
VERTEX
8
Halfen
62
7
10
 937.66
20
 72.23
30
0
0
VERTEX
8
Halfen
62
7
10
 936.418
20
 71.676
30
0
0
VERTEX
8
Halfen
62
7
10
 935.153
20
 71.178
30
0
0
VERTEX
8
Halfen
62
7
10
 933.867
20
 70.736
30
0
0
VERTEX
8
Halfen
62
7
10
 932.563
20
 70.351
30
0
0
VERTEX
8
Halfen
62
7
10
 931.243
20
 70.024
30
0
0
VERTEX
8
Halfen
62
7
10
 929.911
20
 69.756
30
0
0
VERTEX
8
Halfen
62
7
10
 928.567
20
 69.547
30
0
0
VERTEX
8
Halfen
62
7
10
 927.216
20
 69.397
30
0
0
VERTEX
8
Halfen
62
7
10
 925.859
20
 69.307
30
0
0
VERTEX
8
Halfen
62
7
10
 924.5
20
 69.277
30
0
0
VERTEX
8
Halfen
62
7
10
 902.5
20
 69.277
30
0
0
VERTEX
8
Halfen
62
7
10
 901.141
20
 69.307
30
0
0
VERTEX
8
Halfen
62
7
10
 899.784
20
 69.397
30
0
0
VERTEX
8
Halfen
62
7
10
 898.433
20
 69.547
30
0
0
VERTEX
8
Halfen
62
7
10
 897.089
20
 69.756
30
0
0
VERTEX
8
Halfen
62
7
10
 895.757
20
 70.024
30
0
0
VERTEX
8
Halfen
62
7
10
 894.437
20
 70.351
30
0
0
VERTEX
8
Halfen
62
7
10
 893.133
20
 70.736
30
0
0
VERTEX
8
Halfen
62
7
10
 891.847
20
 71.178
30
0
0
VERTEX
8
Halfen
62
7
10
 890.582
20
 71.676
30
0
0
VERTEX
8
Halfen
62
7
10
 889.34
20
 72.23
30
0
0
VERTEX
8
Halfen
62
7
10
 888.124
20
 72.838
30
0
0
VERTEX
8
Halfen
62
7
10
 886.936
20
 73.499
30
0
0
VERTEX
8
Halfen
62
7
10
 885.778
20
 74.211
30
0
0
VERTEX
8
Halfen
62
7
10
 884.653
20
 74.975
30
0
0
VERTEX
8
Halfen
62
7
10
 883.563
20
 75.787
30
0
0
VERTEX
8
Halfen
62
7
10
 882.509
20
 76.646
30
0
0
VERTEX
8
Halfen
62
7
10
 881.495
20
 77.551
30
0
0
VERTEX
8
Halfen
62
7
10
 880.521
20
 78.5
30
0
0
VERTEX
8
Halfen
62
7
10
 879.59
20
 79.491
30
0
0
VERTEX
8
Halfen
62
7
10
 878.704
20
 80.522
30
0
0
VERTEX
8
Halfen
62
7
10
 878.603
20
 80.639
30
0
0
VERTEX
8
Halfen
62
7
10
 878.498
20
 80.752
30
0
0
VERTEX
8
Halfen
62
7
10
 878.387
20
 80.86
30
0
0
VERTEX
8
Halfen
62
7
10
 878.272
20
 80.963
30
0
0
VERTEX
8
Halfen
62
7
10
 878.152
20
 81.06
30
0
0
VERTEX
8
Halfen
62
7
10
 878.028
20
 81.153
30
0
0
VERTEX
8
Halfen
62
7
10
 877.9
20
 81.239
30
0
0
VERTEX
8
Halfen
62
7
10
 877.769
20
 81.32
30
0
0
VERTEX
8
Halfen
62
7
10
 877.634
20
 81.395
30
0
0
VERTEX
8
Halfen
62
7
10
 877.495
20
 81.464
30
0
0
VERTEX
8
Halfen
62
7
10
 877.354
20
 81.527
30
0
0
VERTEX
8
Halfen
62
7
10
 877.211
20
 81.584
30
0
0
VERTEX
8
Halfen
62
7
10
 877.064
20
 81.634
30
0
0
VERTEX
8
Halfen
62
7
10
 876.916
20
 81.678
30
0
0
VERTEX
8
Halfen
62
7
10
 876.766
20
 81.715
30
0
0
VERTEX
8
Halfen
62
7
10
 876.615
20
 81.746
30
0
0
VERTEX
8
Halfen
62
7
10
 876.462
20
 81.769
30
0
0
VERTEX
8
Halfen
62
7
10
 876.309
20
 81.786
30
0
0
VERTEX
8
Halfen
62
7
10
 876.154
20
 81.797
30
0
0
VERTEX
8
Halfen
62
7
10
 876
20
 81.8
30
0
0
VERTEX
8
Halfen
62
7
10
 872
20
 81.8
30
0
0
VERTEX
8
Halfen
62
7
10
 872
20
-81.8
30
0
0
VERTEX
8
Halfen
62
7
10
 876
20
-81.8
30
0
0
VERTEX
8
Halfen
62
7
10
 876.154
20
-81.797
30
0
0
VERTEX
8
Halfen
62
7
10
 876.309
20
-81.786
30
0
0
VERTEX
8
Halfen
62
7
10
 876.462
20
-81.769
30
0
0
VERTEX
8
Halfen
62
7
10
 876.615
20
-81.746
30
0
0
VERTEX
8
Halfen
62
7
10
 876.766
20
-81.715
30
0
0
VERTEX
8
Halfen
62
7
10
 876.916
20
-81.678
30
0
0
VERTEX
8
Halfen
62
7
10
 877.064
20
-81.634
30
0
0
VERTEX
8
Halfen
62
7
10
 877.211
20
-81.584
30
0
0
VERTEX
8
Halfen
62
7
10
 877.354
20
-81.527
30
0
0
VERTEX
8
Halfen
62
7
10
 877.495
20
-81.464
30
0
0
VERTEX
8
Halfen
62
7
10
 877.634
20
-81.395
30
0
0
VERTEX
8
Halfen
62
7
10
 877.769
20
-81.32
30
0
0
VERTEX
8
Halfen
62
7
10
 877.9
20
-81.239
30
0
0
VERTEX
8
Halfen
62
7
10
 878.028
20
-81.153
30
0
0
VERTEX
8
Halfen
62
7
10
 878.152
20
-81.06
30
0
0
VERTEX
8
Halfen
62
7
10
 878.272
20
-80.963
30
0
0
VERTEX
8
Halfen
62
7
10
 878.387
20
-80.86
30
0
0
VERTEX
8
Halfen
62
7
10
 878.498
20
-80.752
30
0
0
VERTEX
8
Halfen
62
7
10
 878.603
20
-80.639
30
0
0
VERTEX
8
Halfen
62
7
10
 878.704
20
-80.522
30
0
0
VERTEX
8
Halfen
62
7
10
 879.59
20
-79.491
30
0
0
VERTEX
8
Halfen
62
7
10
 880.521
20
-78.5
30
0
0
VERTEX
8
Halfen
62
7
10
 881.495
20
-77.551
30
0
0
VERTEX
8
Halfen
62
7
10
 882.509
20
-76.646
30
0
0
VERTEX
8
Halfen
62
7
10
 883.563
20
-75.787
30
0
0
VERTEX
8
Halfen
62
7
10
 884.653
20
-74.975
30
0
0
VERTEX
8
Halfen
62
7
10
 885.778
20
-74.211
30
0
0
VERTEX
8
Halfen
62
7
10
 886.936
20
-73.499
30
0
0
VERTEX
8
Halfen
62
7
10
 888.124
20
-72.838
30
0
0
VERTEX
8
Halfen
62
7
10
 889.34
20
-72.23
30
0
0
VERTEX
8
Halfen
62
7
10
 890.582
20
-71.676
30
0
0
VERTEX
8
Halfen
62
7
10
 891.847
20
-71.178
30
0
0
VERTEX
8
Halfen
62
7
10
 893.133
20
-70.736
30
0
0
VERTEX
8
Halfen
62
7
10
 894.437
20
-70.351
30
0
0
VERTEX
8
Halfen
62
7
10
 895.757
20
-70.024
30
0
0
VERTEX
8
Halfen
62
7
10
 897.089
20
-69.756
30
0
0
VERTEX
8
Halfen
62
7
10
 898.433
20
-69.547
30
0
0
VERTEX
8
Halfen
62
7
10
 899.784
20
-69.397
30
0
0
VERTEX
8
Halfen
62
7
10
 901.141
20
-69.307
30
0
0
VERTEX
8
Halfen
62
7
10
 902.5
20
-69.277
30
0
0
VERTEX
8
Halfen
62
7
10
 924.5
20
-69.277
30
0
0
VERTEX
8
Halfen
62
7
10
 925.859
20
-69.307
30
0
0
VERTEX
8
Halfen
62
7
10
 927.216
20
-69.397
30
0
0
VERTEX
8
Halfen
62
7
10
 928.567
20
-69.547
30
0
0
VERTEX
8
Halfen
62
7
10
 929.911
20
-69.756
30
0
0
VERTEX
8
Halfen
62
7
10
 931.243
20
-70.024
30
0
0
VERTEX
8
Halfen
62
7
10
 932.563
20
-70.351
30
0
0
VERTEX
8
Halfen
62
7
10
 933.867
20
-70.736
30
0
0
VERTEX
8
Halfen
62
7
10
 935.153
20
-71.178
30
0
0
VERTEX
8
Halfen
62
7
10
 936.418
20
-71.676
30
0
0
VERTEX
8
Halfen
62
7
10
 937.66
20
-72.23
30
0
0
VERTEX
8
Halfen
62
7
10
 938.876
20
-72.838
30
0
0
VERTEX
8
Halfen
62
7
10
 940.064
20
-73.499
30
0
0
VERTEX
8
Halfen
62
7
10
 941.222
20
-74.211
30
0
0
VERTEX
8
Halfen
62
7
10
 942.347
20
-74.975
30
0
0
VERTEX
8
Halfen
62
7
10
 943.437
20
-75.787
30
0
0
VERTEX
8
Halfen
62
7
10
 944.491
20
-76.646
30
0
0
VERTEX
8
Halfen
62
7
10
 945.505
20
-77.551
30
0
0
VERTEX
8
Halfen
62
7
10
 946.479
20
-78.5
30
0
0
VERTEX
8
Halfen
62
7
10
 947.41
20
-79.491
30
0
0
VERTEX
8
Halfen
62
7
10
 948.296
20
-80.522
30
0
0
VERTEX
8
Halfen
62
7
10
 948.397
20
-80.639
30
0
0
VERTEX
8
Halfen
62
7
10
 948.502
20
-80.752
30
0
0
VERTEX
8
Halfen
62
7
10
 948.613
20
-80.86
30
0
0
VERTEX
8
Halfen
62
7
10
 948.728
20
-80.963
30
0
0
VERTEX
8
Halfen
62
7
10
 948.848
20
-81.06
30
0
0
VERTEX
8
Halfen
62
7
10
 948.972
20
-81.153
30
0
0
VERTEX
8
Halfen
62
7
10
 949.1
20
-81.239
30
0
0
VERTEX
8
Halfen
62
7
10
 949.231
20
-81.32
30
0
0
VERTEX
8
Halfen
62
7
10
 949.366
20
-81.395
30
0
0
VERTEX
8
Halfen
62
7
10
 949.505
20
-81.464
30
0
0
VERTEX
8
Halfen
62
7
10
 949.646
20
-81.527
30
0
0
VERTEX
8
Halfen
62
7
10
 949.789
20
-81.584
30
0
0
VERTEX
8
Halfen
62
7
10
 949.936
20
-81.634
30
0
0
VERTEX
8
Halfen
62
7
10
 950.084
20
-81.678
30
0
0
VERTEX
8
Halfen
62
7
10
 950.234
20
-81.715
30
0
0
VERTEX
8
Halfen
62
7
10
 950.385
20
-81.746
30
0
0
VERTEX
8
Halfen
62
7
10
 950.538
20
-81.769
30
0
0
VERTEX
8
Halfen
62
7
10
 950.691
20
-81.786
30
0
0
VERTEX
8
Halfen
62
7
10
 950.846
20
-81.797
30
0
0
VERTEX
8
Halfen
62
7
10
 951
20
-81.8
30
0
0
SEQEND
8
Halfen
0
POLYLINE
8
Halfen
62
7
66
1
10
0.0
20
0.0
30
0.0
70
1
0
VERTEX
8
Halfen
62
7
10
 940
20
-456.177
30
0
0
VERTEX
8
Halfen
62
7
10
 940
20
-81.213
30
0
0
VERTEX
8
Halfen
62
7
10
 939.705
20
-77.459
30
0
0
VERTEX
8
Halfen
62
7
10
 938.825
20
-73.797
30
0
0
VERTEX
8
Halfen
62
7
10
 937.384
20
-70.317
30
0
0
VERTEX
8
Halfen
62
7
10
 935.416
20
-67.106
30
0
0
VERTEX
8
Halfen
62
7
10
 932.971
20
-64.243
30
0
0
VERTEX
8
Halfen
62
7
10
 791.272
20
 77.456
30
0
0
VERTEX
8
Halfen
62
7
10
 789.438
20
 79.604
30
0
0
VERTEX
8
Halfen
62
7
10
 787.962
20
 82.012
30
0
0
VERTEX
8
Halfen
62
7
10
 786.881
20
 84.621
30
0
0
VERTEX
8
Halfen
62
7
10
 786.222
20
 87.368
30
0
0
VERTEX
8
Halfen
62
7
10
 786
20
 90.184
30
0
0
VERTEX
8
Halfen
62
7
10
 786
20
 192.147
30
0
0
VERTEX
8
Halfen
62
7
10
 786.222
20
 194.963
30
0
0
VERTEX
8
Halfen
62
7
10
 786.881
20
 197.71
30
0
0
VERTEX
8
Halfen
62
7
10
 787.962
20
 200.319
30
0
0
VERTEX
8
Halfen
62
7
10
 789.438
20
 202.728
30
0
0
VERTEX
8
Halfen
62
7
10
 791.272
20
 204.875
30
0
0
VERTEX
8
Halfen
62
7
10
 793.42
20
 206.71
30
0
0
VERTEX
8
Halfen
62
7
10
 795.828
20
 208.186
30
0
0
VERTEX
8
Halfen
62
7
10
 798.438
20
 209.266
30
0
0
VERTEX
8
Halfen
62
7
10
 801.184
20
 209.926
30
0
0
VERTEX
8
Halfen
62
7
10
 804
20
 210.147
30
0
0
VERTEX
8
Halfen
62
7
10
 875
20
 210.147
30
0
0
VERTEX
8
Halfen
62
7
10
 875
20
 216.147
30
0
0
VERTEX
8
Halfen
62
7
10
 804
20
 216.147
30
0
0
VERTEX
8
Halfen
62
7
10
 800.246
20
 215.852
30
0
0
VERTEX
8
Halfen
62
7
10
 796.584
20
 214.973
30
0
0
VERTEX
8
Halfen
62
7
10
 793.104
20
 213.532
30
0
0
VERTEX
8
Halfen
62
7
10
 789.893
20
 211.564
30
0
0
VERTEX
8
Halfen
62
7
10
 787.029
20
 209.118
30
0
0
VERTEX
8
Halfen
62
7
10
 784.584
20
 206.254
30
0
0
VERTEX
8
Halfen
62
7
10
 782.616
20
 203.043
30
0
0
VERTEX
8
Halfen
62
7
10
 781.175
20
 199.564
30
0
0
VERTEX
8
Halfen
62
7
10
 780.295
20
 195.902
30
0
0
VERTEX
8
Halfen
62
7
10
 780
20
 192.147
30
0
0
VERTEX
8
Halfen
62
7
10
 780
20
 90.184
30
0
0
VERTEX
8
Halfen
62
7
10
 780.295
20
 86.429
30
0
0
VERTEX
8
Halfen
62
7
10
 781.175
20
 82.767
30
0
0
VERTEX
8
Halfen
62
7
10
 782.616
20
 79.288
30
0
0
VERTEX
8
Halfen
62
7
10
 784.584
20
 76.077
30
0
0
VERTEX
8
Halfen
62
7
10
 787.029
20
 73.213
30
0
0
VERTEX
8
Halfen
62
7
10
 928.728
20
-68.485
30
0
0
VERTEX
8
Halfen
62
7
10
 930.562
20
-70.633
30
0
0
VERTEX
8
Halfen
62
7
10
 932.038
20
-73.041
30
0
0
VERTEX
8
Halfen
62
7
10
 933.119
20
-75.651
30
0
0
VERTEX
8
Halfen
62
7
10
 933.778
20
-78.397
30
0
0
VERTEX
8
Halfen
62
7
10
 934
20
-81.213
30
0
0
VERTEX
8
Halfen
62
7
10
 934
20
-456.177
30
0
0
SEQEND
8
Halfen
0
POLYLINE
8
Halfen
62
7
66
1
10
0.0
20
0.0
30
0.0
70
1
0
VERTEX
8
Halfen
62
7
10
 780
20
-457.324
30
0
0
VERTEX
8
Halfen
62
7
10
 780
20
-82.361
30
0
0
VERTEX
8
Halfen
62
7
10
 780.295
20
-78.606
30
0
0
VERTEX
8
Halfen
62
7
10
 781.175
20
-74.944
30
0
0
VERTEX
8
Halfen
62
7
10
 782.616
20
-71.465
30
0
0
VERTEX
8
Halfen
62
7
10
 784.584
20
-68.254
30
0
0
VERTEX
8
Halfen
62
7
10
 787.029
20
-65.39
30
0
0
VERTEX
8
Halfen
62
7
10
 928.728
20
 76.308
30
0
0
VERTEX
8
Halfen
62
7
10
 930.562
20
 78.456
30
0
0
VERTEX
8
Halfen
62
7
10
 932.038
20
 80.865
30
0
0
VERTEX
8
Halfen
62
7
10
 933.119
20
 83.474
30
0
0
VERTEX
8
Halfen
62
7
10
 933.778
20
 86.221
30
0
0
VERTEX
8
Halfen
62
7
10
 934
20
 89.036
30
0
0
VERTEX
8
Halfen
62
7
10
 934
20
 191
30
0
0
VERTEX
8
Halfen
62
7
10
 933.778
20
 193.816
30
0
0
VERTEX
8
Halfen
62
7
10
 933.119
20
 196.562
30
0
0
VERTEX
8
Halfen
62
7
10
 932.038
20
 199.172
30
0
0
VERTEX
8
Halfen
62
7
10
 930.562
20
 201.58
30
0
0
VERTEX
8
Halfen
62
7
10
 928.728
20
 203.728
30
0
0
VERTEX
8
Halfen
62
7
10
 926.58
20
 205.562
30
0
0
VERTEX
8
Halfen
62
7
10
 924.172
20
 207.038
30
0
0
VERTEX
8
Halfen
62
7
10
 921.562
20
 208.119
30
0
0
VERTEX
8
Halfen
62
7
10
 918.816
20
 208.778
30
0
0
VERTEX
8
Halfen
62
7
10
 916
20
 209
30
0
0
VERTEX
8
Halfen
62
7
10
 845
20
 209
30
0
0
VERTEX
8
Halfen
62
7
10
 845
20
 215
30
0
0
VERTEX
8
Halfen
62
7
10
 916
20
 215
30
0
0
VERTEX
8
Halfen
62
7
10
 919.754
20
 214.705
30
0
0
VERTEX
8
Halfen
62
7
10
 923.416
20
 213.825
30
0
0
VERTEX
8
Halfen
62
7
10
 926.896
20
 212.384
30
0
0
VERTEX
8
Halfen
62
7
10
 930.107
20
 210.416
30
0
0
VERTEX
8
Halfen
62
7
10
 932.971
20
 207.971
30
0
0
VERTEX
8
Halfen
62
7
10
 935.416
20
 205.107
30
0
0
VERTEX
8
Halfen
62
7
10
 937.384
20
 201.896
30
0
0
VERTEX
8
Halfen
62
7
10
 938.825
20
 198.416
30
0
0
VERTEX
8
Halfen
62
7
10
 939.705
20
 194.754
30
0
0
VERTEX
8
Halfen
62
7
10
 940
20
 191
30
0
0
VERTEX
8
Halfen
62
7
10
 940
20
 89.036
30
0
0
VERTEX
8
Halfen
62
7
10
 939.705
20
 85.282
30
0
0
VERTEX
8
Halfen
62
7
10
 938.825
20
 81.62
30
0
0
VERTEX
8
Halfen
62
7
10
 937.384
20
 78.141
30
0
0
VERTEX
8
Halfen
62
7
10
 935.416
20
 74.929
30
0
0
VERTEX
8
Halfen
62
7
10
 932.971
20
 72.066
30
0
0
VERTEX
8
Halfen
62
7
10
 791.272
20
-69.633
30
0
0
VERTEX
8
Halfen
62
7
10
 789.438
20
-71.78
30
0
0
VERTEX
8
Halfen
62
7
10
 787.962
20
-74.189
30
0
0
VERTEX
8
Halfen
62
7
10
 786.881
20
-76.798
30
0
0
VERTEX
8
Halfen
62
7
10
 786.222
20
-79.545
30
0
0
VERTEX
8
Halfen
62
7
10
 786
20
-82.361
30
0
0
VERTEX
8
Halfen
62
7
10
 786
20
-457.324
30
0
0
SEQEND
8
Halfen
0
ENDSEC
0
EOF
