0
SECTION
2
HEADER
9
$EXTMIN
10
 0
20
 100
30
0.0
9
$EXTMAX
10
 0
20
 100
30
0.0
9
$LIMMIN
10
 100
20
 0
9
$LIMMAX
10
 0
20
 100
9
$PSLTSCALE
70
1
0
ENDSEC
0
SECTION
2
TABLES
0
TABLE
2
LAYER
70
2
0
LAYER
2
0
70
0
62
7
6
CONTINUOUS
0
LAYER
2
Halfen
70
0
62
7
6
CONTINUOUS
0
ENDTAB
0
ENDSEC
0
SECTION
2
ENTITIES
0
POLYLINE
8
Halfen
62
7
66
1
10
0.0
20
0.0
30
0.0
70
1
0
VERTEX
8
Halfen
62
7
10
 0
20
-73.5
30
0
0
VERTEX
8
Halfen
62
7
10
 250
20
-73.5
30
0
0
VERTEX
8
Halfen
62
7
10
 250
20
 73.5
30
0
0
VERTEX
8
Halfen
62
7
10
 0
20
 73.5
30
0
0
SEQEND
8
Halfen
0
POLYLINE
8
Halfen
62
7
66
1
10
0.0
20
0.0
30
0.0
70
1
0
VERTEX
8
Halfen
62
7
10
 0
20
-60
30
0
0
VERTEX
8
Halfen
62
7
10
 250
20
-60
30
0
0
VERTEX
8
Halfen
62
7
10
 250
20
 60
30
0
0
VERTEX
8
Halfen
62
7
10
 0
20
 60
30
0
0
SEQEND
8
Halfen
0
POLYLINE
8
Halfen
62
7
66
1
10
0.0
20
0.0
30
0.0
70
1
0
VERTEX
8
Halfen
62
7
10
 20
20
-32.5
30
0
0
VERTEX
8
Halfen
62
7
10
 37
20
-1.5
30
0
0
VERTEX
8
Halfen
62
7
10
 28
20
-1.5
30
0
0
VERTEX
8
Halfen
62
7
10
 28
20
 32.5
30
0
0
VERTEX
8
Halfen
62
7
10
 12
20
 32.5
30
0
0
VERTEX
8
Halfen
62
7
10
 12
20
-1.5
30
0
0
VERTEX
8
Halfen
62
7
10
 3
20
-1.5
30
0
0
SEQEND
8
Halfen
0
POLYLINE
8
Halfen
62
7
66
1
10
0.0
20
0.0
30
0.0
70
1
0
VERTEX
8
Halfen
62
7
10
 230
20
-32.5
30
0
0
VERTEX
8
Halfen
62
7
10
 247
20
-1.5
30
0
0
VERTEX
8
Halfen
62
7
10
 238
20
-1.5
30
0
0
VERTEX
8
Halfen
62
7
10
 238
20
 32.5
30
0
0
VERTEX
8
Halfen
62
7
10
 222
20
 32.5
30
0
0
VERTEX
8
Halfen
62
7
10
 222
20
-1.5
30
0
0
VERTEX
8
Halfen
62
7
10
 213
20
-1.5
30
0
0
SEQEND
8
Halfen
0
POLYLINE
8
Halfen
62
7
66
1
10
0.0
20
0.0
30
0.0
70
1
0
VERTEX
8
Halfen
62
7
10
 73
20
-456.927
30
0
0
VERTEX
8
Halfen
62
7
10
 73
20
 214.971
30
0
0
VERTEX
8
Halfen
62
7
10
 67
20
 214.971
30
0
0
VERTEX
8
Halfen
62
7
10
 67
20
-456.927
30
0
0
SEQEND
8
Halfen
0
POLYLINE
8
Halfen
62
7
66
1
10
0.0
20
0.0
30
0.0
70
1
0
VERTEX
8
Halfen
62
7
10
 133
20
-456.927
30
0
0
VERTEX
8
Halfen
62
7
10
 133
20
 214.971
30
0
0
VERTEX
8
Halfen
62
7
10
 127
20
 214.971
30
0
0
VERTEX
8
Halfen
62
7
10
 127
20
-456.927
30
0
0
SEQEND
8
Halfen
0
POLYLINE
8
Halfen
62
7
66
1
10
0.0
20
0.0
30
0.0
70
1
0
VERTEX
8
Halfen
62
7
10
 193
20
-456.927
30
0
0
VERTEX
8
Halfen
62
7
10
 193
20
 214.971
30
0
0
VERTEX
8
Halfen
62
7
10
 187
20
 214.971
30
0
0
VERTEX
8
Halfen
62
7
10
 187
20
-456.927
30
0
0
SEQEND
8
Halfen
0
POLYLINE
8
Halfen
62
7
66
1
10
0.0
20
0.0
30
0.0
70
1
0
VERTEX
8
Halfen
62
7
10
 183
20
-456.927
30
0
0
VERTEX
8
Halfen
62
7
10
 183
20
 214.971
30
0
0
VERTEX
8
Halfen
62
7
10
 177
20
 214.971
30
0
0
VERTEX
8
Halfen
62
7
10
 177
20
-456.927
30
0
0
SEQEND
8
Halfen
0
POLYLINE
8
Halfen
62
7
66
1
10
0.0
20
0.0
30
0.0
70
1
0
VERTEX
8
Halfen
62
7
10
 123
20
-456.927
30
0
0
VERTEX
8
Halfen
62
7
10
 123
20
 214.971
30
0
0
VERTEX
8
Halfen
62
7
10
 117
20
 214.971
30
0
0
VERTEX
8
Halfen
62
7
10
 117
20
-456.927
30
0
0
SEQEND
8
Halfen
0
POLYLINE
8
Halfen
62
7
66
1
10
0.0
20
0.0
30
0.0
70
1
0
VERTEX
8
Halfen
62
7
10
 63
20
-456.927
30
0
0
VERTEX
8
Halfen
62
7
10
 63
20
 214.971
30
0
0
VERTEX
8
Halfen
62
7
10
 57
20
 214.971
30
0
0
VERTEX
8
Halfen
62
7
10
 57
20
-456.927
30
0
0
SEQEND
8
Halfen
0
POLYLINE
8
Halfen
62
7
66
1
10
0.0
20
0.0
30
0.0
70
1
0
VERTEX
8
Halfen
62
7
10
 640
20
-60
30
0
0
VERTEX
8
Halfen
62
7
10
 640
20
 60
30
0
0
VERTEX
8
Halfen
62
7
10
 626.5
20
 73.5
30
0
0
VERTEX
8
Halfen
62
7
10
 626.5
20
 60
30
0
0
VERTEX
8
Halfen
62
7
10
 500
20
 60
30
0
0
VERTEX
8
Halfen
62
7
10
 500
20
-60
30
0
0
VERTEX
8
Halfen
62
7
10
 626.5
20
-60
30
0
0
VERTEX
8
Halfen
62
7
10
 626.5
20
-73.5
30
0
0
SEQEND
8
Halfen
0
POLYLINE
8
Halfen
62
7
66
1
10
0.0
20
0.0
30
0.0
70
1
0
VERTEX
8
Halfen
62
7
10
 500
20
-60
30
0
0
VERTEX
8
Halfen
62
7
10
 500
20
 60
30
0
0
VERTEX
8
Halfen
62
7
10
 463.5
20
 60
30
0
0
VERTEX
8
Halfen
62
7
10
 463.5
20
 73.5
30
0
0
VERTEX
8
Halfen
62
7
10
 450
20
 60
30
0
0
VERTEX
8
Halfen
62
7
10
 450
20
-60
30
0
0
VERTEX
8
Halfen
62
7
10
 463.5
20
-73.5
30
0
0
VERTEX
8
Halfen
62
7
10
 463.5
20
-60
30
0
0
SEQEND
8
Halfen
0
POLYLINE
8
Halfen
62
7
66
1
10
0.0
20
0.0
30
0.0
70
1
0
VERTEX
8
Halfen
62
7
10
 637.5
20
-58.75
30
0
0
VERTEX
8
Halfen
62
7
10
 637.5
20
 58.75
30
0
0
VERTEX
8
Halfen
62
7
10
 629
20
 67.25
30
0
0
VERTEX
8
Halfen
62
7
10
 629
20
 58
30
0
0
VERTEX
8
Halfen
62
7
10
 502
20
 58
30
0
0
VERTEX
8
Halfen
62
7
10
 502
20
-58
30
0
0
VERTEX
8
Halfen
62
7
10
 629
20
-58
30
0
0
VERTEX
8
Halfen
62
7
10
 629
20
-67.25
30
0
0
SEQEND
8
Halfen
0
POLYLINE
8
Halfen
62
7
66
1
10
0.0
20
0.0
30
0.0
70
1
0
VERTEX
8
Halfen
62
7
10
 498
20
-58
30
0
0
VERTEX
8
Halfen
62
7
10
 498
20
 58
30
0
0
VERTEX
8
Halfen
62
7
10
 461
20
 58
30
0
0
VERTEX
8
Halfen
62
7
10
 461
20
 67.25
30
0
0
VERTEX
8
Halfen
62
7
10
 452.5
20
 58.75
30
0
0
VERTEX
8
Halfen
62
7
10
 452.5
20
-58.75
30
0
0
VERTEX
8
Halfen
62
7
10
 461
20
-67.25
30
0
0
VERTEX
8
Halfen
62
7
10
 461
20
-58
30
0
0
SEQEND
8
Halfen
0
POLYLINE
8
Halfen
62
7
66
1
10
0.0
20
0.0
30
0.0
70
1
0
VERTEX
8
Halfen
62
7
10
 610
20
-456.927
30
0
0
VERTEX
8
Halfen
62
7
10
 610
20
-79.715
30
0
0
VERTEX
8
Halfen
62
7
10
 609.766
20
-76.375
30
0
0
VERTEX
8
Halfen
62
7
10
 609.07
20
-73.1
30
0
0
VERTEX
8
Halfen
62
7
10
 607.925
20
-69.953
30
0
0
VERTEX
8
Halfen
62
7
10
 606.353
20
-66.997
30
0
0
VERTEX
8
Halfen
62
7
10
 518.735
20
 73.221
30
0
0
VERTEX
8
Halfen
62
7
10
 517.556
20
 75.438
30
0
0
VERTEX
8
Halfen
62
7
10
 516.697
20
 77.798
30
0
0
VERTEX
8
Halfen
62
7
10
 516.175
20
 80.255
30
0
0
VERTEX
8
Halfen
62
7
10
 516
20
 82.76
30
0
0
VERTEX
8
Halfen
62
7
10
 516
20
 190.971
30
0
0
VERTEX
8
Halfen
62
7
10
 516.222
20
 193.787
30
0
0
VERTEX
8
Halfen
62
7
10
 516.881
20
 196.534
30
0
0
VERTEX
8
Halfen
62
7
10
 517.962
20
 199.143
30
0
0
VERTEX
8
Halfen
62
7
10
 519.438
20
 201.551
30
0
0
VERTEX
8
Halfen
62
7
10
 521.272
20
 203.699
30
0
0
VERTEX
8
Halfen
62
7
10
 523.42
20
 205.534
30
0
0
VERTEX
8
Halfen
62
7
10
 525.828
20
 207.009
30
0
0
VERTEX
8
Halfen
62
7
10
 528.438
20
 208.09
30
0
0
VERTEX
8
Halfen
62
7
10
 531.184
20
 208.75
30
0
0
VERTEX
8
Halfen
62
7
10
 534
20
 208.971
30
0
0
VERTEX
8
Halfen
62
7
10
 605
20
 208.971
30
0
0
VERTEX
8
Halfen
62
7
10
 605
20
 214.971
30
0
0
VERTEX
8
Halfen
62
7
10
 534
20
 214.971
30
0
0
VERTEX
8
Halfen
62
7
10
 530.246
20
 214.676
30
0
0
VERTEX
8
Halfen
62
7
10
 526.584
20
 213.797
30
0
0
VERTEX
8
Halfen
62
7
10
 523.104
20
 212.355
30
0
0
VERTEX
8
Halfen
62
7
10
 519.893
20
 210.388
30
0
0
VERTEX
8
Halfen
62
7
10
 517.029
20
 207.942
30
0
0
VERTEX
8
Halfen
62
7
10
 514.584
20
 205.078
30
0
0
VERTEX
8
Halfen
62
7
10
 512.616
20
 201.867
30
0
0
VERTEX
8
Halfen
62
7
10
 511.175
20
 198.388
30
0
0
VERTEX
8
Halfen
62
7
10
 510.295
20
 194.726
30
0
0
VERTEX
8
Halfen
62
7
10
 510
20
 190.971
30
0
0
VERTEX
8
Halfen
62
7
10
 510
20
 82.76
30
0
0
VERTEX
8
Halfen
62
7
10
 510.234
20
 79.419
30
0
0
VERTEX
8
Halfen
62
7
10
 510.93
20
 76.144
30
0
0
VERTEX
8
Halfen
62
7
10
 512.075
20
 72.998
30
0
0
VERTEX
8
Halfen
62
7
10
 513.647
20
 70.042
30
0
0
VERTEX
8
Halfen
62
7
10
 601.265
20
-70.177
30
0
0
VERTEX
8
Halfen
62
7
10
 602.444
20
-72.394
30
0
0
VERTEX
8
Halfen
62
7
10
 603.303
20
-74.754
30
0
0
VERTEX
8
Halfen
62
7
10
 603.825
20
-77.21
30
0
0
VERTEX
8
Halfen
62
7
10
 604
20
-79.715
30
0
0
VERTEX
8
Halfen
62
7
10
 604
20
-456.927
30
0
0
SEQEND
8
Halfen
0
POLYLINE
8
Halfen
62
7
66
1
10
0.0
20
0.0
30
0.0
70
1
0
VERTEX
8
Halfen
62
7
10
 510
20
-456.898
30
0
0
VERTEX
8
Halfen
62
7
10
 510
20
-79.686
30
0
0
VERTEX
8
Halfen
62
7
10
 510.234
20
-76.346
30
0
0
VERTEX
8
Halfen
62
7
10
 510.93
20
-73.071
30
0
0
VERTEX
8
Halfen
62
7
10
 512.075
20
-69.925
30
0
0
VERTEX
8
Halfen
62
7
10
 513.647
20
-66.968
30
0
0
VERTEX
8
Halfen
62
7
10
 601.265
20
 73.25
30
0
0
VERTEX
8
Halfen
62
7
10
 602.444
20
 75.467
30
0
0
VERTEX
8
Halfen
62
7
10
 603.303
20
 77.827
30
0
0
VERTEX
8
Halfen
62
7
10
 603.825
20
 80.283
30
0
0
VERTEX
8
Halfen
62
7
10
 604
20
 82.788
30
0
0
VERTEX
8
Halfen
62
7
10
 604
20
 191
30
0
0
VERTEX
8
Halfen
62
7
10
 603.778
20
 193.816
30
0
0
VERTEX
8
Halfen
62
7
10
 603.119
20
 196.562
30
0
0
VERTEX
8
Halfen
62
7
10
 602.038
20
 199.172
30
0
0
VERTEX
8
Halfen
62
7
10
 600.562
20
 201.58
30
0
0
VERTEX
8
Halfen
62
7
10
 598.728
20
 203.728
30
0
0
VERTEX
8
Halfen
62
7
10
 596.58
20
 205.562
30
0
0
VERTEX
8
Halfen
62
7
10
 594.172
20
 207.038
30
0
0
VERTEX
8
Halfen
62
7
10
 591.562
20
 208.119
30
0
0
VERTEX
8
Halfen
62
7
10
 588.816
20
 208.778
30
0
0
VERTEX
8
Halfen
62
7
10
 586
20
 209
30
0
0
VERTEX
8
Halfen
62
7
10
 515
20
 209
30
0
0
VERTEX
8
Halfen
62
7
10
 515
20
 215
30
0
0
VERTEX
8
Halfen
62
7
10
 586
20
 215
30
0
0
VERTEX
8
Halfen
62
7
10
 589.754
20
 214.705
30
0
0
VERTEX
8
Halfen
62
7
10
 593.416
20
 213.825
30
0
0
VERTEX
8
Halfen
62
7
10
 596.896
20
 212.384
30
0
0
VERTEX
8
Halfen
62
7
10
 600.107
20
 210.416
30
0
0
VERTEX
8
Halfen
62
7
10
 602.971
20
 207.971
30
0
0
VERTEX
8
Halfen
62
7
10
 605.416
20
 205.107
30
0
0
VERTEX
8
Halfen
62
7
10
 607.384
20
 201.896
30
0
0
VERTEX
8
Halfen
62
7
10
 608.825
20
 198.416
30
0
0
VERTEX
8
Halfen
62
7
10
 609.705
20
 194.754
30
0
0
VERTEX
8
Halfen
62
7
10
 610
20
 191
30
0
0
VERTEX
8
Halfen
62
7
10
 610
20
 82.788
30
0
0
VERTEX
8
Halfen
62
7
10
 609.766
20
 79.448
30
0
0
VERTEX
8
Halfen
62
7
10
 609.07
20
 76.173
30
0
0
VERTEX
8
Halfen
62
7
10
 607.925
20
 73.027
30
0
0
VERTEX
8
Halfen
62
7
10
 606.353
20
 70.07
30
0
0
VERTEX
8
Halfen
62
7
10
 518.735
20
-70.148
30
0
0
VERTEX
8
Halfen
62
7
10
 517.556
20
-72.365
30
0
0
VERTEX
8
Halfen
62
7
10
 516.697
20
-74.725
30
0
0
VERTEX
8
Halfen
62
7
10
 516.175
20
-77.181
30
0
0
VERTEX
8
Halfen
62
7
10
 516
20
-79.686
30
0
0
VERTEX
8
Halfen
62
7
10
 516
20
-456.898
30
0
0
SEQEND
8
Halfen
0
ENDSEC
0
EOF
