0
SECTION
2
HEADER
9
$EXTMIN
10
 0
20
 100
30
0.0
9
$EXTMAX
10
 0
20
 100
30
0.0
9
$LIMMIN
10
 100
20
 0
9
$LIMMAX
10
 0
20
 100
9
$PSLTSCALE
70
1
0
ENDSEC
0
SECTION
2
TABLES
0
TABLE
2
LAYER
70
2
0
LAYER
2
0
70
0
62
7
6
CONTINUOUS
0
LAYER
2
Halfen
70
0
62
7
6
CONTINUOUS
0
ENDTAB
0
ENDSEC
0
SECTION
2
ENTITIES
0
POLYLINE
8
Halfen
62
7
66
1
10
0.0
20
0.0
30
0.0
70
1
0
VERTEX
8
Halfen
62
7
10
 0
20
-73.5
30
0
0
VERTEX
8
Halfen
62
7
10
 1000
20
-73.5
30
0
0
VERTEX
8
Halfen
62
7
10
 1000
20
 73.5
30
0
0
VERTEX
8
Halfen
62
7
10
 0
20
 73.5
30
0
0
SEQEND
8
Halfen
0
POLYLINE
8
Halfen
62
7
66
1
10
0.0
20
0.0
30
0.0
70
1
0
VERTEX
8
Halfen
62
7
10
 0
20
-60
30
0
0
VERTEX
8
Halfen
62
7
10
 1000
20
-60
30
0
0
VERTEX
8
Halfen
62
7
10
 1000
20
 60
30
0
0
VERTEX
8
Halfen
62
7
10
 0
20
 60
30
0
0
SEQEND
8
Halfen
0
POLYLINE
8
Halfen
62
7
66
1
10
0.0
20
0.0
30
0.0
70
1
0
VERTEX
8
Halfen
62
7
10
 20
20
-32.5
30
0
0
VERTEX
8
Halfen
62
7
10
 37
20
-1.5
30
0
0
VERTEX
8
Halfen
62
7
10
 28
20
-1.5
30
0
0
VERTEX
8
Halfen
62
7
10
 28
20
 32.5
30
0
0
VERTEX
8
Halfen
62
7
10
 12
20
 32.5
30
0
0
VERTEX
8
Halfen
62
7
10
 12
20
-1.5
30
0
0
VERTEX
8
Halfen
62
7
10
 3
20
-1.5
30
0
0
SEQEND
8
Halfen
0
POLYLINE
8
Halfen
62
7
66
1
10
0.0
20
0.0
30
0.0
70
1
0
VERTEX
8
Halfen
62
7
10
 980
20
-32.5
30
0
0
VERTEX
8
Halfen
62
7
10
 997
20
-1.5
30
0
0
VERTEX
8
Halfen
62
7
10
 988
20
-1.5
30
0
0
VERTEX
8
Halfen
62
7
10
 988
20
 32.5
30
0
0
VERTEX
8
Halfen
62
7
10
 972
20
 32.5
30
0
0
VERTEX
8
Halfen
62
7
10
 972
20
-1.5
30
0
0
VERTEX
8
Halfen
62
7
10
 963
20
-1.5
30
0
0
SEQEND
8
Halfen
0
POLYLINE
8
Halfen
62
7
66
1
10
0.0
20
0.0
30
0.0
70
1
0
VERTEX
8
Halfen
62
7
10
 90
20
-815.455
30
0
0
VERTEX
8
Halfen
62
7
10
 90
20
 913.129
30
0
0
VERTEX
8
Halfen
62
7
10
 78
20
 913.129
30
0
0
VERTEX
8
Halfen
62
7
10
 78
20
-815.455
30
0
0
SEQEND
8
Halfen
0
POLYLINE
8
Halfen
62
7
66
1
10
0.0
20
0.0
30
0.0
70
1
0
VERTEX
8
Halfen
62
7
10
 205
20
-815.455
30
0
0
VERTEX
8
Halfen
62
7
10
 205
20
 913.129
30
0
0
VERTEX
8
Halfen
62
7
10
 193
20
 913.129
30
0
0
VERTEX
8
Halfen
62
7
10
 193
20
-815.455
30
0
0
SEQEND
8
Halfen
0
POLYLINE
8
Halfen
62
7
66
1
10
0.0
20
0.0
30
0.0
70
1
0
VERTEX
8
Halfen
62
7
10
 319
20
-815.455
30
0
0
VERTEX
8
Halfen
62
7
10
 319
20
 913.129
30
0
0
VERTEX
8
Halfen
62
7
10
 307
20
 913.129
30
0
0
VERTEX
8
Halfen
62
7
10
 307
20
-815.455
30
0
0
SEQEND
8
Halfen
0
POLYLINE
8
Halfen
62
7
66
1
10
0.0
20
0.0
30
0.0
70
1
0
VERTEX
8
Halfen
62
7
10
 434
20
-815.455
30
0
0
VERTEX
8
Halfen
62
7
10
 434
20
 913.129
30
0
0
VERTEX
8
Halfen
62
7
10
 422
20
 913.129
30
0
0
VERTEX
8
Halfen
62
7
10
 422
20
-815.455
30
0
0
SEQEND
8
Halfen
0
POLYLINE
8
Halfen
62
7
66
1
10
0.0
20
0.0
30
0.0
70
1
0
VERTEX
8
Halfen
62
7
10
 590
20
-815.455
30
0
0
VERTEX
8
Halfen
62
7
10
 590
20
 913.129
30
0
0
VERTEX
8
Halfen
62
7
10
 578
20
 913.129
30
0
0
VERTEX
8
Halfen
62
7
10
 578
20
-815.455
30
0
0
SEQEND
8
Halfen
0
POLYLINE
8
Halfen
62
7
66
1
10
0.0
20
0.0
30
0.0
70
1
0
VERTEX
8
Halfen
62
7
10
 705
20
-815.455
30
0
0
VERTEX
8
Halfen
62
7
10
 705
20
 913.129
30
0
0
VERTEX
8
Halfen
62
7
10
 693
20
 913.129
30
0
0
VERTEX
8
Halfen
62
7
10
 693
20
-815.455
30
0
0
SEQEND
8
Halfen
0
POLYLINE
8
Halfen
62
7
66
1
10
0.0
20
0.0
30
0.0
70
1
0
VERTEX
8
Halfen
62
7
10
 819
20
-815.455
30
0
0
VERTEX
8
Halfen
62
7
10
 819
20
 913.129
30
0
0
VERTEX
8
Halfen
62
7
10
 807
20
 913.129
30
0
0
VERTEX
8
Halfen
62
7
10
 807
20
-815.455
30
0
0
SEQEND
8
Halfen
0
POLYLINE
8
Halfen
62
7
66
1
10
0.0
20
0.0
30
0.0
70
1
0
VERTEX
8
Halfen
62
7
10
 934
20
-815.455
30
0
0
VERTEX
8
Halfen
62
7
10
 934
20
 913.129
30
0
0
VERTEX
8
Halfen
62
7
10
 922
20
 913.129
30
0
0
VERTEX
8
Halfen
62
7
10
 922
20
-815.455
30
0
0
SEQEND
8
Halfen
0
POLYLINE
8
Halfen
62
7
66
1
10
0.0
20
0.0
30
0.0
70
1
0
VERTEX
8
Halfen
62
7
10
 1520
20
-60
30
0
0
VERTEX
8
Halfen
62
7
10
 1520
20
 60
30
0
0
VERTEX
8
Halfen
62
7
10
 1506.5
20
 73.5
30
0
0
VERTEX
8
Halfen
62
7
10
 1506.5
20
 60
30
0
0
VERTEX
8
Halfen
62
7
10
 1250
20
 60
30
0
0
VERTEX
8
Halfen
62
7
10
 1250
20
-60
30
0
0
VERTEX
8
Halfen
62
7
10
 1506.5
20
-60
30
0
0
VERTEX
8
Halfen
62
7
10
 1506.5
20
-73.5
30
0
0
SEQEND
8
Halfen
0
POLYLINE
8
Halfen
62
7
66
1
10
0.0
20
0.0
30
0.0
70
1
0
VERTEX
8
Halfen
62
7
10
 1250
20
-60
30
0
0
VERTEX
8
Halfen
62
7
10
 1250
20
 60
30
0
0
VERTEX
8
Halfen
62
7
10
 1213.5
20
 60
30
0
0
VERTEX
8
Halfen
62
7
10
 1213.5
20
 73.5
30
0
0
VERTEX
8
Halfen
62
7
10
 1200
20
 60
30
0
0
VERTEX
8
Halfen
62
7
10
 1200
20
-60
30
0
0
VERTEX
8
Halfen
62
7
10
 1213.5
20
-73.5
30
0
0
VERTEX
8
Halfen
62
7
10
 1213.5
20
-60
30
0
0
SEQEND
8
Halfen
0
POLYLINE
8
Halfen
62
7
66
1
10
0.0
20
0.0
30
0.0
70
1
0
VERTEX
8
Halfen
62
7
10
 1517.5
20
-58.75
30
0
0
VERTEX
8
Halfen
62
7
10
 1517.5
20
 58.75
30
0
0
VERTEX
8
Halfen
62
7
10
 1509
20
 67.25
30
0
0
VERTEX
8
Halfen
62
7
10
 1509
20
 58
30
0
0
VERTEX
8
Halfen
62
7
10
 1252
20
 58
30
0
0
VERTEX
8
Halfen
62
7
10
 1252
20
-58
30
0
0
VERTEX
8
Halfen
62
7
10
 1509
20
-58
30
0
0
VERTEX
8
Halfen
62
7
10
 1509
20
-67.25
30
0
0
SEQEND
8
Halfen
0
POLYLINE
8
Halfen
62
7
66
1
10
0.0
20
0.0
30
0.0
70
1
0
VERTEX
8
Halfen
62
7
10
 1248
20
-58
30
0
0
VERTEX
8
Halfen
62
7
10
 1248
20
 58
30
0
0
VERTEX
8
Halfen
62
7
10
 1211
20
 58
30
0
0
VERTEX
8
Halfen
62
7
10
 1211
20
 67.25
30
0
0
VERTEX
8
Halfen
62
7
10
 1202.5
20
 58.75
30
0
0
VERTEX
8
Halfen
62
7
10
 1202.5
20
-58.75
30
0
0
VERTEX
8
Halfen
62
7
10
 1211
20
-67.25
30
0
0
VERTEX
8
Halfen
62
7
10
 1211
20
-58
30
0
0
SEQEND
8
Halfen
0
POLYLINE
8
Halfen
62
7
66
1
10
0.0
20
0.0
30
0.0
70
1
0
VERTEX
8
Halfen
62
7
10
 1490
20
-815.455
30
0
0
VERTEX
8
Halfen
62
7
10
 1490
20
-100.956
30
0
0
VERTEX
8
Halfen
62
7
10
 1489.359
20
-93.137
30
0
0
VERTEX
8
Halfen
62
7
10
 1487.453
20
-85.527
30
0
0
VERTEX
8
Halfen
62
7
10
 1484.332
20
-78.329
30
0
0
VERTEX
8
Halfen
62
7
10
 1480.081
20
-71.735
30
0
0
VERTEX
8
Halfen
62
7
10
 1289.439
20
 176.714
30
0
0
VERTEX
8
Halfen
62
7
10
 1286.251
20
 181.659
30
0
0
VERTEX
8
Halfen
62
7
10
 1283.911
20
 187.057
30
0
0
VERTEX
8
Halfen
62
7
10
 1282.481
20
 192.765
30
0
0
VERTEX
8
Halfen
62
7
10
 1282
20
 198.629
30
0
0
VERTEX
8
Halfen
62
7
10
 1282
20
 252.129
30
0
0
VERTEX
8
Halfen
62
7
10
 1282
20
 913.129
30
0
0
VERTEX
8
Halfen
62
7
10
 1270
20
 913.129
30
0
0
VERTEX
8
Halfen
62
7
10
 1270
20
 252.129
30
0
0
VERTEX
8
Halfen
62
7
10
 1270
20
 198.629
30
0
0
VERTEX
8
Halfen
62
7
10
 1270.641
20
 190.81
30
0
0
VERTEX
8
Halfen
62
7
10
 1272.547
20
 183.2
30
0
0
VERTEX
8
Halfen
62
7
10
 1275.668
20
 176.002
30
0
0
VERTEX
8
Halfen
62
7
10
 1279.919
20
 169.409
30
0
0
VERTEX
8
Halfen
62
7
10
 1470.561
20
-79.04
30
0
0
VERTEX
8
Halfen
62
7
10
 1473.749
20
-83.986
30
0
0
VERTEX
8
Halfen
62
7
10
 1476.089
20
-89.384
30
0
0
VERTEX
8
Halfen
62
7
10
 1477.519
20
-95.092
30
0
0
VERTEX
8
Halfen
62
7
10
 1478
20
-100.956
30
0
0
VERTEX
8
Halfen
62
7
10
 1478
20
-815.455
30
0
0
SEQEND
8
Halfen
0
ENDSEC
0
EOF
