0
SECTION
2
HEADER
9
$EXTMIN
10
 0
20
 100
30
0.0
9
$EXTMAX
10
 0
20
 100
30
0.0
9
$LIMMIN
10
 100
20
 0
9
$LIMMAX
10
 0
20
 100
9
$PSLTSCALE
70
1
0
ENDSEC
0
SECTION
2
TABLES
0
TABLE
2
LAYER
70
2
0
LAYER
2
0
70
0
62
7
6
CONTINUOUS
0
LAYER
2
Halfen
70
0
62
7
6
CONTINUOUS
0
ENDTAB
0
ENDSEC
0
SECTION
2
ENTITIES
0
POLYLINE
8
Halfen
62
7
66
1
10
0.0
20
0.0
30
0.0
70
1
0
VERTEX
8
Halfen
62
7
10
 0
20
-73.5
30
0
0
VERTEX
8
Halfen
62
7
10
 500
20
-73.5
30
0
0
VERTEX
8
Halfen
62
7
10
 500
20
 73.5
30
0
0
VERTEX
8
Halfen
62
7
10
 0
20
 73.5
30
0
0
SEQEND
8
Halfen
0
POLYLINE
8
Halfen
62
7
66
1
10
0.0
20
0.0
30
0.0
70
1
0
VERTEX
8
Halfen
62
7
10
 0
20
-60
30
0
0
VERTEX
8
Halfen
62
7
10
 500
20
-60
30
0
0
VERTEX
8
Halfen
62
7
10
 500
20
 60
30
0
0
VERTEX
8
Halfen
62
7
10
 0
20
 60
30
0
0
SEQEND
8
Halfen
0
POLYLINE
8
Halfen
62
7
66
1
10
0.0
20
0.0
30
0.0
70
1
0
VERTEX
8
Halfen
62
7
10
 20
20
-32.5
30
0
0
VERTEX
8
Halfen
62
7
10
 37
20
-1.5
30
0
0
VERTEX
8
Halfen
62
7
10
 28
20
-1.5
30
0
0
VERTEX
8
Halfen
62
7
10
 28
20
 32.5
30
0
0
VERTEX
8
Halfen
62
7
10
 12
20
 32.5
30
0
0
VERTEX
8
Halfen
62
7
10
 12
20
-1.5
30
0
0
VERTEX
8
Halfen
62
7
10
 3
20
-1.5
30
0
0
SEQEND
8
Halfen
0
POLYLINE
8
Halfen
62
7
66
1
10
0.0
20
0.0
30
0.0
70
1
0
VERTEX
8
Halfen
62
7
10
 480
20
-32.5
30
0
0
VERTEX
8
Halfen
62
7
10
 497
20
-1.5
30
0
0
VERTEX
8
Halfen
62
7
10
 488
20
-1.5
30
0
0
VERTEX
8
Halfen
62
7
10
 488
20
 32.5
30
0
0
VERTEX
8
Halfen
62
7
10
 472
20
 32.5
30
0
0
VERTEX
8
Halfen
62
7
10
 472
20
-1.5
30
0
0
VERTEX
8
Halfen
62
7
10
 463
20
-1.5
30
0
0
SEQEND
8
Halfen
0
POLYLINE
8
Halfen
62
7
66
1
10
0.0
20
0.0
30
0.0
70
1
0
VERTEX
8
Halfen
62
7
10
 151
20
-69.3
30
0
0
VERTEX
8
Halfen
62
7
10
 151
20
-56.8
30
0
0
VERTEX
8
Halfen
62
7
10
 151
20
 69.3
30
0
0
VERTEX
8
Halfen
62
7
10
 150.958
20
 70.359
30
0
0
VERTEX
8
Halfen
62
7
10
 150.834
20
 71.412
30
0
0
VERTEX
8
Halfen
62
7
10
 150.627
20
 72.452
30
0
0
VERTEX
8
Halfen
62
7
10
 150.339
20
 73.472
30
0
0
VERTEX
8
Halfen
62
7
10
 149.972
20
 74.466
30
0
0
VERTEX
8
Halfen
62
7
10
 149.529
20
 75.429
30
0
0
VERTEX
8
Halfen
62
7
10
 149.011
20
 76.354
30
0
0
VERTEX
8
Halfen
62
7
10
 148.422
20
 77.235
30
0
0
VERTEX
8
Halfen
62
7
10
 147.765
20
 78.068
30
0
0
VERTEX
8
Halfen
62
7
10
 147.046
20
 78.846
30
0
0
VERTEX
8
Halfen
62
7
10
 146.268
20
 79.565
30
0
0
VERTEX
8
Halfen
62
7
10
 145.435
20
 80.222
30
0
0
VERTEX
8
Halfen
62
7
10
 144.554
20
 80.811
30
0
0
VERTEX
8
Halfen
62
7
10
 143.629
20
 81.329
30
0
0
VERTEX
8
Halfen
62
7
10
 142.666
20
 81.772
30
0
0
VERTEX
8
Halfen
62
7
10
 141.672
20
 82.139
30
0
0
VERTEX
8
Halfen
62
7
10
 140.652
20
 82.427
30
0
0
VERTEX
8
Halfen
62
7
10
 139.612
20
 82.634
30
0
0
VERTEX
8
Halfen
62
7
10
 138.559
20
 82.758
30
0
0
VERTEX
8
Halfen
62
7
10
 137.5
20
 82.8
30
0
0
VERTEX
8
Halfen
62
7
10
 134.5
20
 82.8
30
0
0
VERTEX
8
Halfen
62
7
10
 133.441
20
 82.758
30
0
0
VERTEX
8
Halfen
62
7
10
 132.388
20
 82.634
30
0
0
VERTEX
8
Halfen
62
7
10
 131.348
20
 82.427
30
0
0
VERTEX
8
Halfen
62
7
10
 130.328
20
 82.139
30
0
0
VERTEX
8
Halfen
62
7
10
 129.334
20
 81.772
30
0
0
VERTEX
8
Halfen
62
7
10
 128.371
20
 81.329
30
0
0
VERTEX
8
Halfen
62
7
10
 127.446
20
 80.811
30
0
0
VERTEX
8
Halfen
62
7
10
 126.565
20
 80.222
30
0
0
VERTEX
8
Halfen
62
7
10
 125.732
20
 79.565
30
0
0
VERTEX
8
Halfen
62
7
10
 124.954
20
 78.846
30
0
0
VERTEX
8
Halfen
62
7
10
 124.235
20
 78.068
30
0
0
VERTEX
8
Halfen
62
7
10
 123.578
20
 77.235
30
0
0
VERTEX
8
Halfen
62
7
10
 122.989
20
 76.354
30
0
0
VERTEX
8
Halfen
62
7
10
 122.471
20
 75.429
30
0
0
VERTEX
8
Halfen
62
7
10
 122.028
20
 74.466
30
0
0
VERTEX
8
Halfen
62
7
10
 121.661
20
 73.472
30
0
0
VERTEX
8
Halfen
62
7
10
 121.373
20
 72.452
30
0
0
VERTEX
8
Halfen
62
7
10
 121.166
20
 71.412
30
0
0
VERTEX
8
Halfen
62
7
10
 121.042
20
 70.359
30
0
0
VERTEX
8
Halfen
62
7
10
 121
20
 69.3
30
0
0
VERTEX
8
Halfen
62
7
10
 121
20
-56.8
30
0
0
VERTEX
8
Halfen
62
7
10
 121
20
-69.3
30
0
0
VERTEX
8
Halfen
62
7
10
 121.042
20
-70.359
30
0
0
VERTEX
8
Halfen
62
7
10
 121.166
20
-71.412
30
0
0
VERTEX
8
Halfen
62
7
10
 121.373
20
-72.452
30
0
0
VERTEX
8
Halfen
62
7
10
 121.661
20
-73.472
30
0
0
VERTEX
8
Halfen
62
7
10
 122.028
20
-74.466
30
0
0
VERTEX
8
Halfen
62
7
10
 122.471
20
-75.429
30
0
0
VERTEX
8
Halfen
62
7
10
 122.989
20
-76.354
30
0
0
VERTEX
8
Halfen
62
7
10
 123.578
20
-77.235
30
0
0
VERTEX
8
Halfen
62
7
10
 124.235
20
-78.068
30
0
0
VERTEX
8
Halfen
62
7
10
 124.954
20
-78.846
30
0
0
VERTEX
8
Halfen
62
7
10
 125.732
20
-79.565
30
0
0
VERTEX
8
Halfen
62
7
10
 126.565
20
-80.222
30
0
0
VERTEX
8
Halfen
62
7
10
 127.446
20
-80.811
30
0
0
VERTEX
8
Halfen
62
7
10
 128.371
20
-81.329
30
0
0
VERTEX
8
Halfen
62
7
10
 129.334
20
-81.772
30
0
0
VERTEX
8
Halfen
62
7
10
 130.328
20
-82.139
30
0
0
VERTEX
8
Halfen
62
7
10
 131.348
20
-82.427
30
0
0
VERTEX
8
Halfen
62
7
10
 132.388
20
-82.634
30
0
0
VERTEX
8
Halfen
62
7
10
 133.441
20
-82.758
30
0
0
VERTEX
8
Halfen
62
7
10
 134.5
20
-82.8
30
0
0
VERTEX
8
Halfen
62
7
10
 137.5
20
-82.8
30
0
0
VERTEX
8
Halfen
62
7
10
 138.559
20
-82.758
30
0
0
VERTEX
8
Halfen
62
7
10
 139.612
20
-82.634
30
0
0
VERTEX
8
Halfen
62
7
10
 140.652
20
-82.427
30
0
0
VERTEX
8
Halfen
62
7
10
 141.672
20
-82.139
30
0
0
VERTEX
8
Halfen
62
7
10
 142.666
20
-81.772
30
0
0
VERTEX
8
Halfen
62
7
10
 143.629
20
-81.329
30
0
0
VERTEX
8
Halfen
62
7
10
 144.554
20
-80.811
30
0
0
VERTEX
8
Halfen
62
7
10
 145.435
20
-80.222
30
0
0
VERTEX
8
Halfen
62
7
10
 146.268
20
-79.565
30
0
0
VERTEX
8
Halfen
62
7
10
 147.046
20
-78.846
30
0
0
VERTEX
8
Halfen
62
7
10
 147.765
20
-78.068
30
0
0
VERTEX
8
Halfen
62
7
10
 148.422
20
-77.235
30
0
0
VERTEX
8
Halfen
62
7
10
 149.011
20
-76.354
30
0
0
VERTEX
8
Halfen
62
7
10
 149.529
20
-75.429
30
0
0
VERTEX
8
Halfen
62
7
10
 149.972
20
-74.466
30
0
0
VERTEX
8
Halfen
62
7
10
 150.339
20
-73.472
30
0
0
VERTEX
8
Halfen
62
7
10
 150.627
20
-72.452
30
0
0
VERTEX
8
Halfen
62
7
10
 150.834
20
-71.412
30
0
0
VERTEX
8
Halfen
62
7
10
 150.958
20
-70.359
30
0
0
VERTEX
8
Halfen
62
7
10
 151
20
-69.3
30
0
0
SEQEND
8
Halfen
0
POLYLINE
8
Halfen
62
7
66
1
10
0.0
20
0.0
30
0.0
70
1
0
VERTEX
8
Halfen
62
7
10
 379
20
-69.3
30
0
0
VERTEX
8
Halfen
62
7
10
 379
20
-56.8
30
0
0
VERTEX
8
Halfen
62
7
10
 379
20
 69.3
30
0
0
VERTEX
8
Halfen
62
7
10
 378.958
20
 70.359
30
0
0
VERTEX
8
Halfen
62
7
10
 378.834
20
 71.412
30
0
0
VERTEX
8
Halfen
62
7
10
 378.627
20
 72.452
30
0
0
VERTEX
8
Halfen
62
7
10
 378.339
20
 73.472
30
0
0
VERTEX
8
Halfen
62
7
10
 377.972
20
 74.466
30
0
0
VERTEX
8
Halfen
62
7
10
 377.529
20
 75.429
30
0
0
VERTEX
8
Halfen
62
7
10
 377.011
20
 76.354
30
0
0
VERTEX
8
Halfen
62
7
10
 376.422
20
 77.235
30
0
0
VERTEX
8
Halfen
62
7
10
 375.765
20
 78.068
30
0
0
VERTEX
8
Halfen
62
7
10
 375.046
20
 78.846
30
0
0
VERTEX
8
Halfen
62
7
10
 374.268
20
 79.565
30
0
0
VERTEX
8
Halfen
62
7
10
 373.435
20
 80.222
30
0
0
VERTEX
8
Halfen
62
7
10
 372.554
20
 80.811
30
0
0
VERTEX
8
Halfen
62
7
10
 371.629
20
 81.329
30
0
0
VERTEX
8
Halfen
62
7
10
 370.666
20
 81.772
30
0
0
VERTEX
8
Halfen
62
7
10
 369.672
20
 82.139
30
0
0
VERTEX
8
Halfen
62
7
10
 368.652
20
 82.427
30
0
0
VERTEX
8
Halfen
62
7
10
 367.612
20
 82.634
30
0
0
VERTEX
8
Halfen
62
7
10
 366.559
20
 82.758
30
0
0
VERTEX
8
Halfen
62
7
10
 365.5
20
 82.8
30
0
0
VERTEX
8
Halfen
62
7
10
 362.5
20
 82.8
30
0
0
VERTEX
8
Halfen
62
7
10
 361.441
20
 82.758
30
0
0
VERTEX
8
Halfen
62
7
10
 360.388
20
 82.634
30
0
0
VERTEX
8
Halfen
62
7
10
 359.348
20
 82.427
30
0
0
VERTEX
8
Halfen
62
7
10
 358.328
20
 82.139
30
0
0
VERTEX
8
Halfen
62
7
10
 357.334
20
 81.772
30
0
0
VERTEX
8
Halfen
62
7
10
 356.371
20
 81.329
30
0
0
VERTEX
8
Halfen
62
7
10
 355.446
20
 80.811
30
0
0
VERTEX
8
Halfen
62
7
10
 354.565
20
 80.222
30
0
0
VERTEX
8
Halfen
62
7
10
 353.732
20
 79.565
30
0
0
VERTEX
8
Halfen
62
7
10
 352.954
20
 78.846
30
0
0
VERTEX
8
Halfen
62
7
10
 352.235
20
 78.068
30
0
0
VERTEX
8
Halfen
62
7
10
 351.578
20
 77.235
30
0
0
VERTEX
8
Halfen
62
7
10
 350.989
20
 76.354
30
0
0
VERTEX
8
Halfen
62
7
10
 350.471
20
 75.429
30
0
0
VERTEX
8
Halfen
62
7
10
 350.028
20
 74.466
30
0
0
VERTEX
8
Halfen
62
7
10
 349.661
20
 73.472
30
0
0
VERTEX
8
Halfen
62
7
10
 349.373
20
 72.452
30
0
0
VERTEX
8
Halfen
62
7
10
 349.166
20
 71.412
30
0
0
VERTEX
8
Halfen
62
7
10
 349.042
20
 70.359
30
0
0
VERTEX
8
Halfen
62
7
10
 349
20
 69.3
30
0
0
VERTEX
8
Halfen
62
7
10
 349
20
-56.8
30
0
0
VERTEX
8
Halfen
62
7
10
 349
20
-69.3
30
0
0
VERTEX
8
Halfen
62
7
10
 349.042
20
-70.359
30
0
0
VERTEX
8
Halfen
62
7
10
 349.166
20
-71.412
30
0
0
VERTEX
8
Halfen
62
7
10
 349.373
20
-72.452
30
0
0
VERTEX
8
Halfen
62
7
10
 349.661
20
-73.472
30
0
0
VERTEX
8
Halfen
62
7
10
 350.028
20
-74.466
30
0
0
VERTEX
8
Halfen
62
7
10
 350.471
20
-75.429
30
0
0
VERTEX
8
Halfen
62
7
10
 350.989
20
-76.354
30
0
0
VERTEX
8
Halfen
62
7
10
 351.578
20
-77.235
30
0
0
VERTEX
8
Halfen
62
7
10
 352.235
20
-78.068
30
0
0
VERTEX
8
Halfen
62
7
10
 352.954
20
-78.846
30
0
0
VERTEX
8
Halfen
62
7
10
 353.732
20
-79.565
30
0
0
VERTEX
8
Halfen
62
7
10
 354.565
20
-80.222
30
0
0
VERTEX
8
Halfen
62
7
10
 355.446
20
-80.811
30
0
0
VERTEX
8
Halfen
62
7
10
 356.371
20
-81.329
30
0
0
VERTEX
8
Halfen
62
7
10
 357.334
20
-81.772
30
0
0
VERTEX
8
Halfen
62
7
10
 358.328
20
-82.139
30
0
0
VERTEX
8
Halfen
62
7
10
 359.348
20
-82.427
30
0
0
VERTEX
8
Halfen
62
7
10
 360.388
20
-82.634
30
0
0
VERTEX
8
Halfen
62
7
10
 361.441
20
-82.758
30
0
0
VERTEX
8
Halfen
62
7
10
 362.5
20
-82.8
30
0
0
VERTEX
8
Halfen
62
7
10
 365.5
20
-82.8
30
0
0
VERTEX
8
Halfen
62
7
10
 366.559
20
-82.758
30
0
0
VERTEX
8
Halfen
62
7
10
 367.612
20
-82.634
30
0
0
VERTEX
8
Halfen
62
7
10
 368.652
20
-82.427
30
0
0
VERTEX
8
Halfen
62
7
10
 369.672
20
-82.139
30
0
0
VERTEX
8
Halfen
62
7
10
 370.666
20
-81.772
30
0
0
VERTEX
8
Halfen
62
7
10
 371.629
20
-81.329
30
0
0
VERTEX
8
Halfen
62
7
10
 372.554
20
-80.811
30
0
0
VERTEX
8
Halfen
62
7
10
 373.435
20
-80.222
30
0
0
VERTEX
8
Halfen
62
7
10
 374.268
20
-79.565
30
0
0
VERTEX
8
Halfen
62
7
10
 375.046
20
-78.846
30
0
0
VERTEX
8
Halfen
62
7
10
 375.765
20
-78.068
30
0
0
VERTEX
8
Halfen
62
7
10
 376.422
20
-77.235
30
0
0
VERTEX
8
Halfen
62
7
10
 377.011
20
-76.354
30
0
0
VERTEX
8
Halfen
62
7
10
 377.529
20
-75.429
30
0
0
VERTEX
8
Halfen
62
7
10
 377.972
20
-74.466
30
0
0
VERTEX
8
Halfen
62
7
10
 378.339
20
-73.472
30
0
0
VERTEX
8
Halfen
62
7
10
 378.627
20
-72.452
30
0
0
VERTEX
8
Halfen
62
7
10
 378.834
20
-71.412
30
0
0
VERTEX
8
Halfen
62
7
10
 378.958
20
-70.359
30
0
0
VERTEX
8
Halfen
62
7
10
 379
20
-69.3
30
0
0
SEQEND
8
Halfen
0
POLYLINE
8
Halfen
62
7
66
1
10
0.0
20
0.0
30
0.0
70
1
0
VERTEX
8
Halfen
62
7
10
 90
20
-815.455
30
0
0
VERTEX
8
Halfen
62
7
10
 90
20
 913.129
30
0
0
VERTEX
8
Halfen
62
7
10
 78
20
 913.129
30
0
0
VERTEX
8
Halfen
62
7
10
 78
20
-815.455
30
0
0
SEQEND
8
Halfen
0
POLYLINE
8
Halfen
62
7
66
1
10
0.0
20
0.0
30
0.0
70
1
0
VERTEX
8
Halfen
62
7
10
 205
20
-815.455
30
0
0
VERTEX
8
Halfen
62
7
10
 205
20
 913.129
30
0
0
VERTEX
8
Halfen
62
7
10
 193
20
 913.129
30
0
0
VERTEX
8
Halfen
62
7
10
 193
20
-815.455
30
0
0
SEQEND
8
Halfen
0
POLYLINE
8
Halfen
62
7
66
1
10
0.0
20
0.0
30
0.0
70
1
0
VERTEX
8
Halfen
62
7
10
 319
20
-815.455
30
0
0
VERTEX
8
Halfen
62
7
10
 319
20
 913.129
30
0
0
VERTEX
8
Halfen
62
7
10
 307
20
 913.129
30
0
0
VERTEX
8
Halfen
62
7
10
 307
20
-815.455
30
0
0
SEQEND
8
Halfen
0
POLYLINE
8
Halfen
62
7
66
1
10
0.0
20
0.0
30
0.0
70
1
0
VERTEX
8
Halfen
62
7
10
 434
20
-815.455
30
0
0
VERTEX
8
Halfen
62
7
10
 434
20
 913.129
30
0
0
VERTEX
8
Halfen
62
7
10
 422
20
 913.129
30
0
0
VERTEX
8
Halfen
62
7
10
 422
20
-815.455
30
0
0
SEQEND
8
Halfen
0
POLYLINE
8
Halfen
62
7
66
1
10
0.0
20
0.0
30
0.0
70
1
0
VERTEX
8
Halfen
62
7
10
 422
20
-815.455
30
0
0
VERTEX
8
Halfen
62
7
10
 422
20
 913.129
30
0
0
VERTEX
8
Halfen
62
7
10
 410
20
 913.129
30
0
0
VERTEX
8
Halfen
62
7
10
 410
20
-815.455
30
0
0
SEQEND
8
Halfen
0
POLYLINE
8
Halfen
62
7
66
1
10
0.0
20
0.0
30
0.0
70
1
0
VERTEX
8
Halfen
62
7
10
 307
20
-815.455
30
0
0
VERTEX
8
Halfen
62
7
10
 307
20
 913.129
30
0
0
VERTEX
8
Halfen
62
7
10
 295
20
 913.129
30
0
0
VERTEX
8
Halfen
62
7
10
 295
20
-815.455
30
0
0
SEQEND
8
Halfen
0
POLYLINE
8
Halfen
62
7
66
1
10
0.0
20
0.0
30
0.0
70
1
0
VERTEX
8
Halfen
62
7
10
 193
20
-815.455
30
0
0
VERTEX
8
Halfen
62
7
10
 193
20
 913.129
30
0
0
VERTEX
8
Halfen
62
7
10
 181
20
 913.129
30
0
0
VERTEX
8
Halfen
62
7
10
 181
20
-815.455
30
0
0
SEQEND
8
Halfen
0
POLYLINE
8
Halfen
62
7
66
1
10
0.0
20
0.0
30
0.0
70
1
0
VERTEX
8
Halfen
62
7
10
 78
20
-815.455
30
0
0
VERTEX
8
Halfen
62
7
10
 78
20
 913.129
30
0
0
VERTEX
8
Halfen
62
7
10
 66
20
 913.129
30
0
0
VERTEX
8
Halfen
62
7
10
 66
20
-815.455
30
0
0
SEQEND
8
Halfen
0
POLYLINE
8
Halfen
62
7
66
1
10
0.0
20
0.0
30
0.0
70
1
0
VERTEX
8
Halfen
62
7
10
 1020
20
-60
30
0
0
VERTEX
8
Halfen
62
7
10
 1020
20
 60
30
0
0
VERTEX
8
Halfen
62
7
10
 1006.5
20
 73.5
30
0
0
VERTEX
8
Halfen
62
7
10
 1006.5
20
 60
30
0
0
VERTEX
8
Halfen
62
7
10
 750
20
 60
30
0
0
VERTEX
8
Halfen
62
7
10
 750
20
-60
30
0
0
VERTEX
8
Halfen
62
7
10
 1006.5
20
-60
30
0
0
VERTEX
8
Halfen
62
7
10
 1006.5
20
-73.5
30
0
0
SEQEND
8
Halfen
0
POLYLINE
8
Halfen
62
7
66
1
10
0.0
20
0.0
30
0.0
70
1
0
VERTEX
8
Halfen
62
7
10
 750
20
-60
30
0
0
VERTEX
8
Halfen
62
7
10
 750
20
 60
30
0
0
VERTEX
8
Halfen
62
7
10
 713.5
20
 60
30
0
0
VERTEX
8
Halfen
62
7
10
 713.5
20
 73.5
30
0
0
VERTEX
8
Halfen
62
7
10
 700
20
 60
30
0
0
VERTEX
8
Halfen
62
7
10
 700
20
-60
30
0
0
VERTEX
8
Halfen
62
7
10
 713.5
20
-73.5
30
0
0
VERTEX
8
Halfen
62
7
10
 713.5
20
-60
30
0
0
SEQEND
8
Halfen
0
POLYLINE
8
Halfen
62
7
66
1
10
0.0
20
0.0
30
0.0
70
1
0
VERTEX
8
Halfen
62
7
10
 1017.5
20
-58.75
30
0
0
VERTEX
8
Halfen
62
7
10
 1017.5
20
 58.75
30
0
0
VERTEX
8
Halfen
62
7
10
 1009
20
 67.25
30
0
0
VERTEX
8
Halfen
62
7
10
 1009
20
 58
30
0
0
VERTEX
8
Halfen
62
7
10
 752
20
 58
30
0
0
VERTEX
8
Halfen
62
7
10
 752
20
-58
30
0
0
VERTEX
8
Halfen
62
7
10
 1009
20
-58
30
0
0
VERTEX
8
Halfen
62
7
10
 1009
20
-67.25
30
0
0
SEQEND
8
Halfen
0
POLYLINE
8
Halfen
62
7
66
1
10
0.0
20
0.0
30
0.0
70
1
0
VERTEX
8
Halfen
62
7
10
 748
20
-58
30
0
0
VERTEX
8
Halfen
62
7
10
 748
20
 58
30
0
0
VERTEX
8
Halfen
62
7
10
 711
20
 58
30
0
0
VERTEX
8
Halfen
62
7
10
 711
20
 67.25
30
0
0
VERTEX
8
Halfen
62
7
10
 702.5
20
 58.75
30
0
0
VERTEX
8
Halfen
62
7
10
 702.5
20
-58.75
30
0
0
VERTEX
8
Halfen
62
7
10
 711
20
-67.25
30
0
0
VERTEX
8
Halfen
62
7
10
 711
20
-58
30
0
0
SEQEND
8
Halfen
0
POLYLINE
8
Halfen
62
7
66
1
10
0.0
20
0.0
30
0.0
70
1
0
VERTEX
8
Halfen
62
7
10
 1005
20
-81.8
30
0
0
VERTEX
8
Halfen
62
7
10
 1005
20
 81.8
30
0
0
VERTEX
8
Halfen
62
7
10
 1001
20
 81.8
30
0
0
VERTEX
8
Halfen
62
7
10
 1000.846
20
 81.797
30
0
0
VERTEX
8
Halfen
62
7
10
 1000.691
20
 81.786
30
0
0
VERTEX
8
Halfen
62
7
10
 1000.538
20
 81.769
30
0
0
VERTEX
8
Halfen
62
7
10
 1000.385
20
 81.746
30
0
0
VERTEX
8
Halfen
62
7
10
 1000.234
20
 81.715
30
0
0
VERTEX
8
Halfen
62
7
10
 1000.084
20
 81.678
30
0
0
VERTEX
8
Halfen
62
7
10
 999.936
20
 81.634
30
0
0
VERTEX
8
Halfen
62
7
10
 999.789
20
 81.584
30
0
0
VERTEX
8
Halfen
62
7
10
 999.646
20
 81.527
30
0
0
VERTEX
8
Halfen
62
7
10
 999.505
20
 81.464
30
0
0
VERTEX
8
Halfen
62
7
10
 999.366
20
 81.395
30
0
0
VERTEX
8
Halfen
62
7
10
 999.231
20
 81.32
30
0
0
VERTEX
8
Halfen
62
7
10
 999.1
20
 81.239
30
0
0
VERTEX
8
Halfen
62
7
10
 998.972
20
 81.153
30
0
0
VERTEX
8
Halfen
62
7
10
 998.848
20
 81.06
30
0
0
VERTEX
8
Halfen
62
7
10
 998.728
20
 80.963
30
0
0
VERTEX
8
Halfen
62
7
10
 998.613
20
 80.86
30
0
0
VERTEX
8
Halfen
62
7
10
 998.502
20
 80.752
30
0
0
VERTEX
8
Halfen
62
7
10
 998.397
20
 80.639
30
0
0
VERTEX
8
Halfen
62
7
10
 998.296
20
 80.522
30
0
0
VERTEX
8
Halfen
62
7
10
 997.41
20
 79.491
30
0
0
VERTEX
8
Halfen
62
7
10
 996.479
20
 78.5
30
0
0
VERTEX
8
Halfen
62
7
10
 995.505
20
 77.551
30
0
0
VERTEX
8
Halfen
62
7
10
 994.491
20
 76.646
30
0
0
VERTEX
8
Halfen
62
7
10
 993.437
20
 75.787
30
0
0
VERTEX
8
Halfen
62
7
10
 992.347
20
 74.975
30
0
0
VERTEX
8
Halfen
62
7
10
 991.222
20
 74.211
30
0
0
VERTEX
8
Halfen
62
7
10
 990.064
20
 73.499
30
0
0
VERTEX
8
Halfen
62
7
10
 988.876
20
 72.838
30
0
0
VERTEX
8
Halfen
62
7
10
 987.66
20
 72.23
30
0
0
VERTEX
8
Halfen
62
7
10
 986.418
20
 71.676
30
0
0
VERTEX
8
Halfen
62
7
10
 985.153
20
 71.178
30
0
0
VERTEX
8
Halfen
62
7
10
 983.867
20
 70.736
30
0
0
VERTEX
8
Halfen
62
7
10
 982.563
20
 70.351
30
0
0
VERTEX
8
Halfen
62
7
10
 981.243
20
 70.024
30
0
0
VERTEX
8
Halfen
62
7
10
 979.911
20
 69.756
30
0
0
VERTEX
8
Halfen
62
7
10
 978.567
20
 69.547
30
0
0
VERTEX
8
Halfen
62
7
10
 977.216
20
 69.397
30
0
0
VERTEX
8
Halfen
62
7
10
 975.859
20
 69.307
30
0
0
VERTEX
8
Halfen
62
7
10
 974.5
20
 69.277
30
0
0
VERTEX
8
Halfen
62
7
10
 952.5
20
 69.277
30
0
0
VERTEX
8
Halfen
62
7
10
 951.141
20
 69.307
30
0
0
VERTEX
8
Halfen
62
7
10
 949.784
20
 69.397
30
0
0
VERTEX
8
Halfen
62
7
10
 948.433
20
 69.547
30
0
0
VERTEX
8
Halfen
62
7
10
 947.089
20
 69.756
30
0
0
VERTEX
8
Halfen
62
7
10
 945.757
20
 70.024
30
0
0
VERTEX
8
Halfen
62
7
10
 944.437
20
 70.351
30
0
0
VERTEX
8
Halfen
62
7
10
 943.133
20
 70.736
30
0
0
VERTEX
8
Halfen
62
7
10
 941.847
20
 71.178
30
0
0
VERTEX
8
Halfen
62
7
10
 940.582
20
 71.676
30
0
0
VERTEX
8
Halfen
62
7
10
 939.34
20
 72.23
30
0
0
VERTEX
8
Halfen
62
7
10
 938.124
20
 72.838
30
0
0
VERTEX
8
Halfen
62
7
10
 936.936
20
 73.499
30
0
0
VERTEX
8
Halfen
62
7
10
 935.778
20
 74.211
30
0
0
VERTEX
8
Halfen
62
7
10
 934.653
20
 74.975
30
0
0
VERTEX
8
Halfen
62
7
10
 933.563
20
 75.787
30
0
0
VERTEX
8
Halfen
62
7
10
 932.509
20
 76.646
30
0
0
VERTEX
8
Halfen
62
7
10
 931.495
20
 77.551
30
0
0
VERTEX
8
Halfen
62
7
10
 930.521
20
 78.5
30
0
0
VERTEX
8
Halfen
62
7
10
 929.59
20
 79.491
30
0
0
VERTEX
8
Halfen
62
7
10
 928.704
20
 80.522
30
0
0
VERTEX
8
Halfen
62
7
10
 928.603
20
 80.639
30
0
0
VERTEX
8
Halfen
62
7
10
 928.498
20
 80.752
30
0
0
VERTEX
8
Halfen
62
7
10
 928.387
20
 80.86
30
0
0
VERTEX
8
Halfen
62
7
10
 928.272
20
 80.963
30
0
0
VERTEX
8
Halfen
62
7
10
 928.152
20
 81.06
30
0
0
VERTEX
8
Halfen
62
7
10
 928.028
20
 81.153
30
0
0
VERTEX
8
Halfen
62
7
10
 927.9
20
 81.239
30
0
0
VERTEX
8
Halfen
62
7
10
 927.769
20
 81.32
30
0
0
VERTEX
8
Halfen
62
7
10
 927.634
20
 81.395
30
0
0
VERTEX
8
Halfen
62
7
10
 927.495
20
 81.464
30
0
0
VERTEX
8
Halfen
62
7
10
 927.354
20
 81.527
30
0
0
VERTEX
8
Halfen
62
7
10
 927.211
20
 81.584
30
0
0
VERTEX
8
Halfen
62
7
10
 927.064
20
 81.634
30
0
0
VERTEX
8
Halfen
62
7
10
 926.916
20
 81.678
30
0
0
VERTEX
8
Halfen
62
7
10
 926.766
20
 81.715
30
0
0
VERTEX
8
Halfen
62
7
10
 926.615
20
 81.746
30
0
0
VERTEX
8
Halfen
62
7
10
 926.462
20
 81.769
30
0
0
VERTEX
8
Halfen
62
7
10
 926.309
20
 81.786
30
0
0
VERTEX
8
Halfen
62
7
10
 926.154
20
 81.797
30
0
0
VERTEX
8
Halfen
62
7
10
 926
20
 81.8
30
0
0
VERTEX
8
Halfen
62
7
10
 922
20
 81.8
30
0
0
VERTEX
8
Halfen
62
7
10
 922
20
-81.8
30
0
0
VERTEX
8
Halfen
62
7
10
 926
20
-81.8
30
0
0
VERTEX
8
Halfen
62
7
10
 926.154
20
-81.797
30
0
0
VERTEX
8
Halfen
62
7
10
 926.309
20
-81.786
30
0
0
VERTEX
8
Halfen
62
7
10
 926.462
20
-81.769
30
0
0
VERTEX
8
Halfen
62
7
10
 926.615
20
-81.746
30
0
0
VERTEX
8
Halfen
62
7
10
 926.766
20
-81.715
30
0
0
VERTEX
8
Halfen
62
7
10
 926.916
20
-81.678
30
0
0
VERTEX
8
Halfen
62
7
10
 927.064
20
-81.634
30
0
0
VERTEX
8
Halfen
62
7
10
 927.211
20
-81.584
30
0
0
VERTEX
8
Halfen
62
7
10
 927.354
20
-81.527
30
0
0
VERTEX
8
Halfen
62
7
10
 927.495
20
-81.464
30
0
0
VERTEX
8
Halfen
62
7
10
 927.634
20
-81.395
30
0
0
VERTEX
8
Halfen
62
7
10
 927.769
20
-81.32
30
0
0
VERTEX
8
Halfen
62
7
10
 927.9
20
-81.239
30
0
0
VERTEX
8
Halfen
62
7
10
 928.028
20
-81.153
30
0
0
VERTEX
8
Halfen
62
7
10
 928.152
20
-81.06
30
0
0
VERTEX
8
Halfen
62
7
10
 928.272
20
-80.963
30
0
0
VERTEX
8
Halfen
62
7
10
 928.387
20
-80.86
30
0
0
VERTEX
8
Halfen
62
7
10
 928.498
20
-80.752
30
0
0
VERTEX
8
Halfen
62
7
10
 928.603
20
-80.639
30
0
0
VERTEX
8
Halfen
62
7
10
 928.704
20
-80.522
30
0
0
VERTEX
8
Halfen
62
7
10
 929.59
20
-79.491
30
0
0
VERTEX
8
Halfen
62
7
10
 930.521
20
-78.5
30
0
0
VERTEX
8
Halfen
62
7
10
 931.495
20
-77.551
30
0
0
VERTEX
8
Halfen
62
7
10
 932.509
20
-76.646
30
0
0
VERTEX
8
Halfen
62
7
10
 933.563
20
-75.787
30
0
0
VERTEX
8
Halfen
62
7
10
 934.653
20
-74.975
30
0
0
VERTEX
8
Halfen
62
7
10
 935.778
20
-74.211
30
0
0
VERTEX
8
Halfen
62
7
10
 936.936
20
-73.499
30
0
0
VERTEX
8
Halfen
62
7
10
 938.124
20
-72.838
30
0
0
VERTEX
8
Halfen
62
7
10
 939.34
20
-72.23
30
0
0
VERTEX
8
Halfen
62
7
10
 940.582
20
-71.676
30
0
0
VERTEX
8
Halfen
62
7
10
 941.847
20
-71.178
30
0
0
VERTEX
8
Halfen
62
7
10
 943.133
20
-70.736
30
0
0
VERTEX
8
Halfen
62
7
10
 944.437
20
-70.351
30
0
0
VERTEX
8
Halfen
62
7
10
 945.757
20
-70.024
30
0
0
VERTEX
8
Halfen
62
7
10
 947.089
20
-69.756
30
0
0
VERTEX
8
Halfen
62
7
10
 948.433
20
-69.547
30
0
0
VERTEX
8
Halfen
62
7
10
 949.784
20
-69.397
30
0
0
VERTEX
8
Halfen
62
7
10
 951.141
20
-69.307
30
0
0
VERTEX
8
Halfen
62
7
10
 952.5
20
-69.277
30
0
0
VERTEX
8
Halfen
62
7
10
 974.5
20
-69.277
30
0
0
VERTEX
8
Halfen
62
7
10
 975.859
20
-69.307
30
0
0
VERTEX
8
Halfen
62
7
10
 977.216
20
-69.397
30
0
0
VERTEX
8
Halfen
62
7
10
 978.567
20
-69.547
30
0
0
VERTEX
8
Halfen
62
7
10
 979.911
20
-69.756
30
0
0
VERTEX
8
Halfen
62
7
10
 981.243
20
-70.024
30
0
0
VERTEX
8
Halfen
62
7
10
 982.563
20
-70.351
30
0
0
VERTEX
8
Halfen
62
7
10
 983.867
20
-70.736
30
0
0
VERTEX
8
Halfen
62
7
10
 985.153
20
-71.178
30
0
0
VERTEX
8
Halfen
62
7
10
 986.418
20
-71.676
30
0
0
VERTEX
8
Halfen
62
7
10
 987.66
20
-72.23
30
0
0
VERTEX
8
Halfen
62
7
10
 988.876
20
-72.838
30
0
0
VERTEX
8
Halfen
62
7
10
 990.064
20
-73.499
30
0
0
VERTEX
8
Halfen
62
7
10
 991.222
20
-74.211
30
0
0
VERTEX
8
Halfen
62
7
10
 992.347
20
-74.975
30
0
0
VERTEX
8
Halfen
62
7
10
 993.437
20
-75.787
30
0
0
VERTEX
8
Halfen
62
7
10
 994.491
20
-76.646
30
0
0
VERTEX
8
Halfen
62
7
10
 995.505
20
-77.551
30
0
0
VERTEX
8
Halfen
62
7
10
 996.479
20
-78.5
30
0
0
VERTEX
8
Halfen
62
7
10
 997.41
20
-79.491
30
0
0
VERTEX
8
Halfen
62
7
10
 998.296
20
-80.522
30
0
0
VERTEX
8
Halfen
62
7
10
 998.397
20
-80.639
30
0
0
VERTEX
8
Halfen
62
7
10
 998.502
20
-80.752
30
0
0
VERTEX
8
Halfen
62
7
10
 998.613
20
-80.86
30
0
0
VERTEX
8
Halfen
62
7
10
 998.728
20
-80.963
30
0
0
VERTEX
8
Halfen
62
7
10
 998.848
20
-81.06
30
0
0
VERTEX
8
Halfen
62
7
10
 998.972
20
-81.153
30
0
0
VERTEX
8
Halfen
62
7
10
 999.1
20
-81.239
30
0
0
VERTEX
8
Halfen
62
7
10
 999.231
20
-81.32
30
0
0
VERTEX
8
Halfen
62
7
10
 999.366
20
-81.395
30
0
0
VERTEX
8
Halfen
62
7
10
 999.505
20
-81.464
30
0
0
VERTEX
8
Halfen
62
7
10
 999.646
20
-81.527
30
0
0
VERTEX
8
Halfen
62
7
10
 999.789
20
-81.584
30
0
0
VERTEX
8
Halfen
62
7
10
 999.936
20
-81.634
30
0
0
VERTEX
8
Halfen
62
7
10
 1000.084
20
-81.678
30
0
0
VERTEX
8
Halfen
62
7
10
 1000.234
20
-81.715
30
0
0
VERTEX
8
Halfen
62
7
10
 1000.385
20
-81.746
30
0
0
VERTEX
8
Halfen
62
7
10
 1000.538
20
-81.769
30
0
0
VERTEX
8
Halfen
62
7
10
 1000.691
20
-81.786
30
0
0
VERTEX
8
Halfen
62
7
10
 1000.846
20
-81.797
30
0
0
VERTEX
8
Halfen
62
7
10
 1001
20
-81.8
30
0
0
SEQEND
8
Halfen
0
POLYLINE
8
Halfen
62
7
66
1
10
0.0
20
0.0
30
0.0
70
1
0
VERTEX
8
Halfen
62
7
10
 990
20
-815.455
30
0
0
VERTEX
8
Halfen
62
7
10
 990
20
-100.956
30
0
0
VERTEX
8
Halfen
62
7
10
 989.359
20
-93.137
30
0
0
VERTEX
8
Halfen
62
7
10
 987.453
20
-85.527
30
0
0
VERTEX
8
Halfen
62
7
10
 984.332
20
-78.329
30
0
0
VERTEX
8
Halfen
62
7
10
 980.081
20
-71.735
30
0
0
VERTEX
8
Halfen
62
7
10
 789.439
20
 176.714
30
0
0
VERTEX
8
Halfen
62
7
10
 786.251
20
 181.659
30
0
0
VERTEX
8
Halfen
62
7
10
 783.911
20
 187.057
30
0
0
VERTEX
8
Halfen
62
7
10
 782.481
20
 192.765
30
0
0
VERTEX
8
Halfen
62
7
10
 782
20
 198.629
30
0
0
VERTEX
8
Halfen
62
7
10
 782
20
 252.129
30
0
0
VERTEX
8
Halfen
62
7
10
 782
20
 913.129
30
0
0
VERTEX
8
Halfen
62
7
10
 770
20
 913.129
30
0
0
VERTEX
8
Halfen
62
7
10
 770
20
 252.129
30
0
0
VERTEX
8
Halfen
62
7
10
 770
20
 198.629
30
0
0
VERTEX
8
Halfen
62
7
10
 770.641
20
 190.81
30
0
0
VERTEX
8
Halfen
62
7
10
 772.547
20
 183.2
30
0
0
VERTEX
8
Halfen
62
7
10
 775.668
20
 176.002
30
0
0
VERTEX
8
Halfen
62
7
10
 779.919
20
 169.409
30
0
0
VERTEX
8
Halfen
62
7
10
 970.561
20
-79.04
30
0
0
VERTEX
8
Halfen
62
7
10
 973.749
20
-83.986
30
0
0
VERTEX
8
Halfen
62
7
10
 976.089
20
-89.384
30
0
0
VERTEX
8
Halfen
62
7
10
 977.519
20
-95.092
30
0
0
VERTEX
8
Halfen
62
7
10
 978
20
-100.956
30
0
0
VERTEX
8
Halfen
62
7
10
 978
20
-815.455
30
0
0
SEQEND
8
Halfen
0
POLYLINE
8
Halfen
62
7
66
1
10
0.0
20
0.0
30
0.0
70
1
0
VERTEX
8
Halfen
62
7
10
 770
20
-815.455
30
0
0
VERTEX
8
Halfen
62
7
10
 770
20
-100.956
30
0
0
VERTEX
8
Halfen
62
7
10
 770.641
20
-93.137
30
0
0
VERTEX
8
Halfen
62
7
10
 772.547
20
-85.527
30
0
0
VERTEX
8
Halfen
62
7
10
 775.668
20
-78.329
30
0
0
VERTEX
8
Halfen
62
7
10
 779.919
20
-71.735
30
0
0
VERTEX
8
Halfen
62
7
10
 970.561
20
 176.714
30
0
0
VERTEX
8
Halfen
62
7
10
 973.749
20
 181.659
30
0
0
VERTEX
8
Halfen
62
7
10
 976.089
20
 187.057
30
0
0
VERTEX
8
Halfen
62
7
10
 977.519
20
 192.765
30
0
0
VERTEX
8
Halfen
62
7
10
 978
20
 198.629
30
0
0
VERTEX
8
Halfen
62
7
10
 978
20
 252.129
30
0
0
VERTEX
8
Halfen
62
7
10
 978
20
 913.129
30
0
0
VERTEX
8
Halfen
62
7
10
 990
20
 913.129
30
0
0
VERTEX
8
Halfen
62
7
10
 990
20
 252.129
30
0
0
VERTEX
8
Halfen
62
7
10
 990
20
 198.629
30
0
0
VERTEX
8
Halfen
62
7
10
 989.359
20
 190.81
30
0
0
VERTEX
8
Halfen
62
7
10
 987.453
20
 183.2
30
0
0
VERTEX
8
Halfen
62
7
10
 984.332
20
 176.002
30
0
0
VERTEX
8
Halfen
62
7
10
 980.081
20
 169.409
30
0
0
VERTEX
8
Halfen
62
7
10
 789.439
20
-79.04
30
0
0
VERTEX
8
Halfen
62
7
10
 786.251
20
-83.986
30
0
0
VERTEX
8
Halfen
62
7
10
 783.911
20
-89.384
30
0
0
VERTEX
8
Halfen
62
7
10
 782.481
20
-95.092
30
0
0
VERTEX
8
Halfen
62
7
10
 782
20
-100.956
30
0
0
VERTEX
8
Halfen
62
7
10
 782
20
-815.455
30
0
0
SEQEND
8
Halfen
0
ENDSEC
0
EOF
