0
SECTION
2
HEADER
9
$EXTMIN
10
 0
20
 100
30
0.0
9
$EXTMAX
10
 0
20
 100
30
0.0
9
$LIMMIN
10
 100
20
 0
9
$LIMMAX
10
 0
20
 100
9
$PSLTSCALE
70
1
0
ENDSEC
0
SECTION
2
TABLES
0
TABLE
2
LAYER
70
2
0
LAYER
2
0
70
0
62
7
6
CONTINUOUS
0
LAYER
2
Halfen
70
0
62
7
6
CONTINUOUS
0
ENDTAB
0
ENDSEC
0
SECTION
2
ENTITIES
0
POLYLINE
8
Halfen
62
7
66
1
10
0.0
20
0.0
30
0.0
70
1
0
VERTEX
8
Halfen
62
7
10
 0
20
-73.5
30
0
0
VERTEX
8
Halfen
62
7
10
 500
20
-73.5
30
0
0
VERTEX
8
Halfen
62
7
10
 500
20
 73.5
30
0
0
VERTEX
8
Halfen
62
7
10
 0
20
 73.5
30
0
0
SEQEND
8
Halfen
0
POLYLINE
8
Halfen
62
7
66
1
10
0.0
20
0.0
30
0.0
70
1
0
VERTEX
8
Halfen
62
7
10
 0
20
-60
30
0
0
VERTEX
8
Halfen
62
7
10
 500
20
-60
30
0
0
VERTEX
8
Halfen
62
7
10
 500
20
 60
30
0
0
VERTEX
8
Halfen
62
7
10
 0
20
 60
30
0
0
SEQEND
8
Halfen
0
POLYLINE
8
Halfen
62
7
66
1
10
0.0
20
0.0
30
0.0
70
1
0
VERTEX
8
Halfen
62
7
10
 20
20
-32.5
30
0
0
VERTEX
8
Halfen
62
7
10
 37
20
-1.5
30
0
0
VERTEX
8
Halfen
62
7
10
 28
20
-1.5
30
0
0
VERTEX
8
Halfen
62
7
10
 28
20
 32.5
30
0
0
VERTEX
8
Halfen
62
7
10
 12
20
 32.5
30
0
0
VERTEX
8
Halfen
62
7
10
 12
20
-1.5
30
0
0
VERTEX
8
Halfen
62
7
10
 3
20
-1.5
30
0
0
SEQEND
8
Halfen
0
POLYLINE
8
Halfen
62
7
66
1
10
0.0
20
0.0
30
0.0
70
1
0
VERTEX
8
Halfen
62
7
10
 480
20
-32.5
30
0
0
VERTEX
8
Halfen
62
7
10
 497
20
-1.5
30
0
0
VERTEX
8
Halfen
62
7
10
 488
20
-1.5
30
0
0
VERTEX
8
Halfen
62
7
10
 488
20
 32.5
30
0
0
VERTEX
8
Halfen
62
7
10
 472
20
 32.5
30
0
0
VERTEX
8
Halfen
62
7
10
 472
20
-1.5
30
0
0
VERTEX
8
Halfen
62
7
10
 463
20
-1.5
30
0
0
SEQEND
8
Halfen
0
POLYLINE
8
Halfen
62
7
66
1
10
0.0
20
0.0
30
0.0
70
1
0
VERTEX
8
Halfen
62
7
10
 140
20
-69.3
30
0
0
VERTEX
8
Halfen
62
7
10
 140
20
-56.8
30
0
0
VERTEX
8
Halfen
62
7
10
 140
20
 69.3
30
0
0
VERTEX
8
Halfen
62
7
10
 139.958
20
 70.359
30
0
0
VERTEX
8
Halfen
62
7
10
 139.834
20
 71.412
30
0
0
VERTEX
8
Halfen
62
7
10
 139.627
20
 72.452
30
0
0
VERTEX
8
Halfen
62
7
10
 139.339
20
 73.472
30
0
0
VERTEX
8
Halfen
62
7
10
 138.972
20
 74.466
30
0
0
VERTEX
8
Halfen
62
7
10
 138.529
20
 75.429
30
0
0
VERTEX
8
Halfen
62
7
10
 138.011
20
 76.354
30
0
0
VERTEX
8
Halfen
62
7
10
 137.422
20
 77.235
30
0
0
VERTEX
8
Halfen
62
7
10
 136.765
20
 78.068
30
0
0
VERTEX
8
Halfen
62
7
10
 136.046
20
 78.846
30
0
0
VERTEX
8
Halfen
62
7
10
 135.268
20
 79.565
30
0
0
VERTEX
8
Halfen
62
7
10
 134.435
20
 80.222
30
0
0
VERTEX
8
Halfen
62
7
10
 133.554
20
 80.811
30
0
0
VERTEX
8
Halfen
62
7
10
 132.629
20
 81.329
30
0
0
VERTEX
8
Halfen
62
7
10
 131.666
20
 81.772
30
0
0
VERTEX
8
Halfen
62
7
10
 130.672
20
 82.139
30
0
0
VERTEX
8
Halfen
62
7
10
 129.652
20
 82.427
30
0
0
VERTEX
8
Halfen
62
7
10
 128.612
20
 82.634
30
0
0
VERTEX
8
Halfen
62
7
10
 127.559
20
 82.758
30
0
0
VERTEX
8
Halfen
62
7
10
 126.5
20
 82.8
30
0
0
VERTEX
8
Halfen
62
7
10
 123.5
20
 82.8
30
0
0
VERTEX
8
Halfen
62
7
10
 122.441
20
 82.758
30
0
0
VERTEX
8
Halfen
62
7
10
 121.388
20
 82.634
30
0
0
VERTEX
8
Halfen
62
7
10
 120.348
20
 82.427
30
0
0
VERTEX
8
Halfen
62
7
10
 119.328
20
 82.139
30
0
0
VERTEX
8
Halfen
62
7
10
 118.334
20
 81.772
30
0
0
VERTEX
8
Halfen
62
7
10
 117.371
20
 81.329
30
0
0
VERTEX
8
Halfen
62
7
10
 116.446
20
 80.811
30
0
0
VERTEX
8
Halfen
62
7
10
 115.565
20
 80.222
30
0
0
VERTEX
8
Halfen
62
7
10
 114.732
20
 79.565
30
0
0
VERTEX
8
Halfen
62
7
10
 113.954
20
 78.846
30
0
0
VERTEX
8
Halfen
62
7
10
 113.235
20
 78.068
30
0
0
VERTEX
8
Halfen
62
7
10
 112.578
20
 77.235
30
0
0
VERTEX
8
Halfen
62
7
10
 111.989
20
 76.354
30
0
0
VERTEX
8
Halfen
62
7
10
 111.471
20
 75.429
30
0
0
VERTEX
8
Halfen
62
7
10
 111.028
20
 74.466
30
0
0
VERTEX
8
Halfen
62
7
10
 110.661
20
 73.472
30
0
0
VERTEX
8
Halfen
62
7
10
 110.373
20
 72.452
30
0
0
VERTEX
8
Halfen
62
7
10
 110.166
20
 71.412
30
0
0
VERTEX
8
Halfen
62
7
10
 110.042
20
 70.359
30
0
0
VERTEX
8
Halfen
62
7
10
 110
20
 69.3
30
0
0
VERTEX
8
Halfen
62
7
10
 110
20
-56.8
30
0
0
VERTEX
8
Halfen
62
7
10
 110
20
-69.3
30
0
0
VERTEX
8
Halfen
62
7
10
 110.042
20
-70.359
30
0
0
VERTEX
8
Halfen
62
7
10
 110.166
20
-71.412
30
0
0
VERTEX
8
Halfen
62
7
10
 110.373
20
-72.452
30
0
0
VERTEX
8
Halfen
62
7
10
 110.661
20
-73.472
30
0
0
VERTEX
8
Halfen
62
7
10
 111.028
20
-74.466
30
0
0
VERTEX
8
Halfen
62
7
10
 111.471
20
-75.429
30
0
0
VERTEX
8
Halfen
62
7
10
 111.989
20
-76.354
30
0
0
VERTEX
8
Halfen
62
7
10
 112.578
20
-77.235
30
0
0
VERTEX
8
Halfen
62
7
10
 113.235
20
-78.068
30
0
0
VERTEX
8
Halfen
62
7
10
 113.954
20
-78.846
30
0
0
VERTEX
8
Halfen
62
7
10
 114.732
20
-79.565
30
0
0
VERTEX
8
Halfen
62
7
10
 115.565
20
-80.222
30
0
0
VERTEX
8
Halfen
62
7
10
 116.446
20
-80.811
30
0
0
VERTEX
8
Halfen
62
7
10
 117.371
20
-81.329
30
0
0
VERTEX
8
Halfen
62
7
10
 118.334
20
-81.772
30
0
0
VERTEX
8
Halfen
62
7
10
 119.328
20
-82.139
30
0
0
VERTEX
8
Halfen
62
7
10
 120.348
20
-82.427
30
0
0
VERTEX
8
Halfen
62
7
10
 121.388
20
-82.634
30
0
0
VERTEX
8
Halfen
62
7
10
 122.441
20
-82.758
30
0
0
VERTEX
8
Halfen
62
7
10
 123.5
20
-82.8
30
0
0
VERTEX
8
Halfen
62
7
10
 126.5
20
-82.8
30
0
0
VERTEX
8
Halfen
62
7
10
 127.559
20
-82.758
30
0
0
VERTEX
8
Halfen
62
7
10
 128.612
20
-82.634
30
0
0
VERTEX
8
Halfen
62
7
10
 129.652
20
-82.427
30
0
0
VERTEX
8
Halfen
62
7
10
 130.672
20
-82.139
30
0
0
VERTEX
8
Halfen
62
7
10
 131.666
20
-81.772
30
0
0
VERTEX
8
Halfen
62
7
10
 132.629
20
-81.329
30
0
0
VERTEX
8
Halfen
62
7
10
 133.554
20
-80.811
30
0
0
VERTEX
8
Halfen
62
7
10
 134.435
20
-80.222
30
0
0
VERTEX
8
Halfen
62
7
10
 135.268
20
-79.565
30
0
0
VERTEX
8
Halfen
62
7
10
 136.046
20
-78.846
30
0
0
VERTEX
8
Halfen
62
7
10
 136.765
20
-78.068
30
0
0
VERTEX
8
Halfen
62
7
10
 137.422
20
-77.235
30
0
0
VERTEX
8
Halfen
62
7
10
 138.011
20
-76.354
30
0
0
VERTEX
8
Halfen
62
7
10
 138.529
20
-75.429
30
0
0
VERTEX
8
Halfen
62
7
10
 138.972
20
-74.466
30
0
0
VERTEX
8
Halfen
62
7
10
 139.339
20
-73.472
30
0
0
VERTEX
8
Halfen
62
7
10
 139.627
20
-72.452
30
0
0
VERTEX
8
Halfen
62
7
10
 139.834
20
-71.412
30
0
0
VERTEX
8
Halfen
62
7
10
 139.958
20
-70.359
30
0
0
VERTEX
8
Halfen
62
7
10
 140
20
-69.3
30
0
0
SEQEND
8
Halfen
0
POLYLINE
8
Halfen
62
7
66
1
10
0.0
20
0.0
30
0.0
70
1
0
VERTEX
8
Halfen
62
7
10
 390
20
-69.3
30
0
0
VERTEX
8
Halfen
62
7
10
 390
20
-56.8
30
0
0
VERTEX
8
Halfen
62
7
10
 390
20
 69.3
30
0
0
VERTEX
8
Halfen
62
7
10
 389.958
20
 70.359
30
0
0
VERTEX
8
Halfen
62
7
10
 389.834
20
 71.412
30
0
0
VERTEX
8
Halfen
62
7
10
 389.627
20
 72.452
30
0
0
VERTEX
8
Halfen
62
7
10
 389.339
20
 73.472
30
0
0
VERTEX
8
Halfen
62
7
10
 388.972
20
 74.466
30
0
0
VERTEX
8
Halfen
62
7
10
 388.529
20
 75.429
30
0
0
VERTEX
8
Halfen
62
7
10
 388.011
20
 76.354
30
0
0
VERTEX
8
Halfen
62
7
10
 387.422
20
 77.235
30
0
0
VERTEX
8
Halfen
62
7
10
 386.765
20
 78.068
30
0
0
VERTEX
8
Halfen
62
7
10
 386.046
20
 78.846
30
0
0
VERTEX
8
Halfen
62
7
10
 385.268
20
 79.565
30
0
0
VERTEX
8
Halfen
62
7
10
 384.435
20
 80.222
30
0
0
VERTEX
8
Halfen
62
7
10
 383.554
20
 80.811
30
0
0
VERTEX
8
Halfen
62
7
10
 382.629
20
 81.329
30
0
0
VERTEX
8
Halfen
62
7
10
 381.666
20
 81.772
30
0
0
VERTEX
8
Halfen
62
7
10
 380.672
20
 82.139
30
0
0
VERTEX
8
Halfen
62
7
10
 379.652
20
 82.427
30
0
0
VERTEX
8
Halfen
62
7
10
 378.612
20
 82.634
30
0
0
VERTEX
8
Halfen
62
7
10
 377.559
20
 82.758
30
0
0
VERTEX
8
Halfen
62
7
10
 376.5
20
 82.8
30
0
0
VERTEX
8
Halfen
62
7
10
 373.5
20
 82.8
30
0
0
VERTEX
8
Halfen
62
7
10
 372.441
20
 82.758
30
0
0
VERTEX
8
Halfen
62
7
10
 371.388
20
 82.634
30
0
0
VERTEX
8
Halfen
62
7
10
 370.348
20
 82.427
30
0
0
VERTEX
8
Halfen
62
7
10
 369.328
20
 82.139
30
0
0
VERTEX
8
Halfen
62
7
10
 368.334
20
 81.772
30
0
0
VERTEX
8
Halfen
62
7
10
 367.371
20
 81.329
30
0
0
VERTEX
8
Halfen
62
7
10
 366.446
20
 80.811
30
0
0
VERTEX
8
Halfen
62
7
10
 365.565
20
 80.222
30
0
0
VERTEX
8
Halfen
62
7
10
 364.732
20
 79.565
30
0
0
VERTEX
8
Halfen
62
7
10
 363.954
20
 78.846
30
0
0
VERTEX
8
Halfen
62
7
10
 363.235
20
 78.068
30
0
0
VERTEX
8
Halfen
62
7
10
 362.578
20
 77.235
30
0
0
VERTEX
8
Halfen
62
7
10
 361.989
20
 76.354
30
0
0
VERTEX
8
Halfen
62
7
10
 361.471
20
 75.429
30
0
0
VERTEX
8
Halfen
62
7
10
 361.028
20
 74.466
30
0
0
VERTEX
8
Halfen
62
7
10
 360.661
20
 73.472
30
0
0
VERTEX
8
Halfen
62
7
10
 360.373
20
 72.452
30
0
0
VERTEX
8
Halfen
62
7
10
 360.166
20
 71.412
30
0
0
VERTEX
8
Halfen
62
7
10
 360.042
20
 70.359
30
0
0
VERTEX
8
Halfen
62
7
10
 360
20
 69.3
30
0
0
VERTEX
8
Halfen
62
7
10
 360
20
-56.8
30
0
0
VERTEX
8
Halfen
62
7
10
 360
20
-69.3
30
0
0
VERTEX
8
Halfen
62
7
10
 360.042
20
-70.359
30
0
0
VERTEX
8
Halfen
62
7
10
 360.166
20
-71.412
30
0
0
VERTEX
8
Halfen
62
7
10
 360.373
20
-72.452
30
0
0
VERTEX
8
Halfen
62
7
10
 360.661
20
-73.472
30
0
0
VERTEX
8
Halfen
62
7
10
 361.028
20
-74.466
30
0
0
VERTEX
8
Halfen
62
7
10
 361.471
20
-75.429
30
0
0
VERTEX
8
Halfen
62
7
10
 361.989
20
-76.354
30
0
0
VERTEX
8
Halfen
62
7
10
 362.578
20
-77.235
30
0
0
VERTEX
8
Halfen
62
7
10
 363.235
20
-78.068
30
0
0
VERTEX
8
Halfen
62
7
10
 363.954
20
-78.846
30
0
0
VERTEX
8
Halfen
62
7
10
 364.732
20
-79.565
30
0
0
VERTEX
8
Halfen
62
7
10
 365.565
20
-80.222
30
0
0
VERTEX
8
Halfen
62
7
10
 366.446
20
-80.811
30
0
0
VERTEX
8
Halfen
62
7
10
 367.371
20
-81.329
30
0
0
VERTEX
8
Halfen
62
7
10
 368.334
20
-81.772
30
0
0
VERTEX
8
Halfen
62
7
10
 369.328
20
-82.139
30
0
0
VERTEX
8
Halfen
62
7
10
 370.348
20
-82.427
30
0
0
VERTEX
8
Halfen
62
7
10
 371.388
20
-82.634
30
0
0
VERTEX
8
Halfen
62
7
10
 372.441
20
-82.758
30
0
0
VERTEX
8
Halfen
62
7
10
 373.5
20
-82.8
30
0
0
VERTEX
8
Halfen
62
7
10
 376.5
20
-82.8
30
0
0
VERTEX
8
Halfen
62
7
10
 377.559
20
-82.758
30
0
0
VERTEX
8
Halfen
62
7
10
 378.612
20
-82.634
30
0
0
VERTEX
8
Halfen
62
7
10
 379.652
20
-82.427
30
0
0
VERTEX
8
Halfen
62
7
10
 380.672
20
-82.139
30
0
0
VERTEX
8
Halfen
62
7
10
 381.666
20
-81.772
30
0
0
VERTEX
8
Halfen
62
7
10
 382.629
20
-81.329
30
0
0
VERTEX
8
Halfen
62
7
10
 383.554
20
-80.811
30
0
0
VERTEX
8
Halfen
62
7
10
 384.435
20
-80.222
30
0
0
VERTEX
8
Halfen
62
7
10
 385.268
20
-79.565
30
0
0
VERTEX
8
Halfen
62
7
10
 386.046
20
-78.846
30
0
0
VERTEX
8
Halfen
62
7
10
 386.765
20
-78.068
30
0
0
VERTEX
8
Halfen
62
7
10
 387.422
20
-77.235
30
0
0
VERTEX
8
Halfen
62
7
10
 388.011
20
-76.354
30
0
0
VERTEX
8
Halfen
62
7
10
 388.529
20
-75.429
30
0
0
VERTEX
8
Halfen
62
7
10
 388.972
20
-74.466
30
0
0
VERTEX
8
Halfen
62
7
10
 389.339
20
-73.472
30
0
0
VERTEX
8
Halfen
62
7
10
 389.627
20
-72.452
30
0
0
VERTEX
8
Halfen
62
7
10
 389.834
20
-71.412
30
0
0
VERTEX
8
Halfen
62
7
10
 389.958
20
-70.359
30
0
0
VERTEX
8
Halfen
62
7
10
 390
20
-69.3
30
0
0
SEQEND
8
Halfen
0
POLYLINE
8
Halfen
62
7
66
1
10
0.0
20
0.0
30
0.0
70
1
0
VERTEX
8
Halfen
62
7
10
 73
20
-457.177
30
0
0
VERTEX
8
Halfen
62
7
10
 73
20
 215.147
30
0
0
VERTEX
8
Halfen
62
7
10
 67
20
 215.147
30
0
0
VERTEX
8
Halfen
62
7
10
 67
20
-457.177
30
0
0
SEQEND
8
Halfen
0
POLYLINE
8
Halfen
62
7
66
1
10
0.0
20
0.0
30
0.0
70
1
0
VERTEX
8
Halfen
62
7
10
 193
20
-457.177
30
0
0
VERTEX
8
Halfen
62
7
10
 193
20
 215.147
30
0
0
VERTEX
8
Halfen
62
7
10
 187
20
 215.147
30
0
0
VERTEX
8
Halfen
62
7
10
 187
20
-457.177
30
0
0
SEQEND
8
Halfen
0
POLYLINE
8
Halfen
62
7
66
1
10
0.0
20
0.0
30
0.0
70
1
0
VERTEX
8
Halfen
62
7
10
 323
20
-457.177
30
0
0
VERTEX
8
Halfen
62
7
10
 323
20
 215.147
30
0
0
VERTEX
8
Halfen
62
7
10
 317
20
 215.147
30
0
0
VERTEX
8
Halfen
62
7
10
 317
20
-457.177
30
0
0
SEQEND
8
Halfen
0
POLYLINE
8
Halfen
62
7
66
1
10
0.0
20
0.0
30
0.0
70
1
0
VERTEX
8
Halfen
62
7
10
 433
20
-457.177
30
0
0
VERTEX
8
Halfen
62
7
10
 433
20
 215.147
30
0
0
VERTEX
8
Halfen
62
7
10
 427
20
 215.147
30
0
0
VERTEX
8
Halfen
62
7
10
 427
20
-457.177
30
0
0
SEQEND
8
Halfen
0
POLYLINE
8
Halfen
62
7
66
1
10
0.0
20
0.0
30
0.0
70
1
0
VERTEX
8
Halfen
62
7
10
 313
20
-457.177
30
0
0
VERTEX
8
Halfen
62
7
10
 313
20
 215.147
30
0
0
VERTEX
8
Halfen
62
7
10
 307
20
 215.147
30
0
0
VERTEX
8
Halfen
62
7
10
 307
20
-457.177
30
0
0
SEQEND
8
Halfen
0
POLYLINE
8
Halfen
62
7
66
1
10
0.0
20
0.0
30
0.0
70
1
0
VERTEX
8
Halfen
62
7
10
 183
20
-457.177
30
0
0
VERTEX
8
Halfen
62
7
10
 183
20
 215.147
30
0
0
VERTEX
8
Halfen
62
7
10
 177
20
 215.147
30
0
0
VERTEX
8
Halfen
62
7
10
 177
20
-457.177
30
0
0
SEQEND
8
Halfen
0
POLYLINE
8
Halfen
62
7
66
1
10
0.0
20
0.0
30
0.0
70
1
0
VERTEX
8
Halfen
62
7
10
 1020
20
-60
30
0
0
VERTEX
8
Halfen
62
7
10
 1020
20
 60
30
0
0
VERTEX
8
Halfen
62
7
10
 1006.5
20
 73.5
30
0
0
VERTEX
8
Halfen
62
7
10
 1006.5
20
 60
30
0
0
VERTEX
8
Halfen
62
7
10
 750
20
 60
30
0
0
VERTEX
8
Halfen
62
7
10
 750
20
-60
30
0
0
VERTEX
8
Halfen
62
7
10
 1006.5
20
-60
30
0
0
VERTEX
8
Halfen
62
7
10
 1006.5
20
-73.5
30
0
0
SEQEND
8
Halfen
0
POLYLINE
8
Halfen
62
7
66
1
10
0.0
20
0.0
30
0.0
70
1
0
VERTEX
8
Halfen
62
7
10
 750
20
-60
30
0
0
VERTEX
8
Halfen
62
7
10
 750
20
 60
30
0
0
VERTEX
8
Halfen
62
7
10
 713.5
20
 60
30
0
0
VERTEX
8
Halfen
62
7
10
 713.5
20
 73.5
30
0
0
VERTEX
8
Halfen
62
7
10
 700
20
 60
30
0
0
VERTEX
8
Halfen
62
7
10
 700
20
-60
30
0
0
VERTEX
8
Halfen
62
7
10
 713.5
20
-73.5
30
0
0
VERTEX
8
Halfen
62
7
10
 713.5
20
-60
30
0
0
SEQEND
8
Halfen
0
POLYLINE
8
Halfen
62
7
66
1
10
0.0
20
0.0
30
0.0
70
1
0
VERTEX
8
Halfen
62
7
10
 1017.5
20
-58.75
30
0
0
VERTEX
8
Halfen
62
7
10
 1017.5
20
 58.75
30
0
0
VERTEX
8
Halfen
62
7
10
 1009
20
 67.25
30
0
0
VERTEX
8
Halfen
62
7
10
 1009
20
 58
30
0
0
VERTEX
8
Halfen
62
7
10
 752
20
 58
30
0
0
VERTEX
8
Halfen
62
7
10
 752
20
-58
30
0
0
VERTEX
8
Halfen
62
7
10
 1009
20
-58
30
0
0
VERTEX
8
Halfen
62
7
10
 1009
20
-67.25
30
0
0
SEQEND
8
Halfen
0
POLYLINE
8
Halfen
62
7
66
1
10
0.0
20
0.0
30
0.0
70
1
0
VERTEX
8
Halfen
62
7
10
 748
20
-58
30
0
0
VERTEX
8
Halfen
62
7
10
 748
20
 58
30
0
0
VERTEX
8
Halfen
62
7
10
 711
20
 58
30
0
0
VERTEX
8
Halfen
62
7
10
 711
20
 67.25
30
0
0
VERTEX
8
Halfen
62
7
10
 702.5
20
 58.75
30
0
0
VERTEX
8
Halfen
62
7
10
 702.5
20
-58.75
30
0
0
VERTEX
8
Halfen
62
7
10
 711
20
-67.25
30
0
0
VERTEX
8
Halfen
62
7
10
 711
20
-58
30
0
0
SEQEND
8
Halfen
0
POLYLINE
8
Halfen
62
7
66
1
10
0.0
20
0.0
30
0.0
70
1
0
VERTEX
8
Halfen
62
7
10
 1005
20
-81.8
30
0
0
VERTEX
8
Halfen
62
7
10
 1005
20
 81.8
30
0
0
VERTEX
8
Halfen
62
7
10
 1001
20
 81.8
30
0
0
VERTEX
8
Halfen
62
7
10
 1000.846
20
 81.797
30
0
0
VERTEX
8
Halfen
62
7
10
 1000.691
20
 81.786
30
0
0
VERTEX
8
Halfen
62
7
10
 1000.538
20
 81.769
30
0
0
VERTEX
8
Halfen
62
7
10
 1000.385
20
 81.746
30
0
0
VERTEX
8
Halfen
62
7
10
 1000.234
20
 81.715
30
0
0
VERTEX
8
Halfen
62
7
10
 1000.084
20
 81.678
30
0
0
VERTEX
8
Halfen
62
7
10
 999.936
20
 81.634
30
0
0
VERTEX
8
Halfen
62
7
10
 999.789
20
 81.584
30
0
0
VERTEX
8
Halfen
62
7
10
 999.646
20
 81.527
30
0
0
VERTEX
8
Halfen
62
7
10
 999.505
20
 81.464
30
0
0
VERTEX
8
Halfen
62
7
10
 999.366
20
 81.395
30
0
0
VERTEX
8
Halfen
62
7
10
 999.231
20
 81.32
30
0
0
VERTEX
8
Halfen
62
7
10
 999.1
20
 81.239
30
0
0
VERTEX
8
Halfen
62
7
10
 998.972
20
 81.153
30
0
0
VERTEX
8
Halfen
62
7
10
 998.848
20
 81.06
30
0
0
VERTEX
8
Halfen
62
7
10
 998.728
20
 80.963
30
0
0
VERTEX
8
Halfen
62
7
10
 998.613
20
 80.86
30
0
0
VERTEX
8
Halfen
62
7
10
 998.502
20
 80.752
30
0
0
VERTEX
8
Halfen
62
7
10
 998.397
20
 80.639
30
0
0
VERTEX
8
Halfen
62
7
10
 998.296
20
 80.522
30
0
0
VERTEX
8
Halfen
62
7
10
 997.41
20
 79.491
30
0
0
VERTEX
8
Halfen
62
7
10
 996.479
20
 78.5
30
0
0
VERTEX
8
Halfen
62
7
10
 995.505
20
 77.551
30
0
0
VERTEX
8
Halfen
62
7
10
 994.491
20
 76.646
30
0
0
VERTEX
8
Halfen
62
7
10
 993.437
20
 75.787
30
0
0
VERTEX
8
Halfen
62
7
10
 992.347
20
 74.975
30
0
0
VERTEX
8
Halfen
62
7
10
 991.222
20
 74.211
30
0
0
VERTEX
8
Halfen
62
7
10
 990.064
20
 73.499
30
0
0
VERTEX
8
Halfen
62
7
10
 988.876
20
 72.838
30
0
0
VERTEX
8
Halfen
62
7
10
 987.66
20
 72.23
30
0
0
VERTEX
8
Halfen
62
7
10
 986.418
20
 71.676
30
0
0
VERTEX
8
Halfen
62
7
10
 985.153
20
 71.178
30
0
0
VERTEX
8
Halfen
62
7
10
 983.867
20
 70.736
30
0
0
VERTEX
8
Halfen
62
7
10
 982.563
20
 70.351
30
0
0
VERTEX
8
Halfen
62
7
10
 981.243
20
 70.024
30
0
0
VERTEX
8
Halfen
62
7
10
 979.911
20
 69.756
30
0
0
VERTEX
8
Halfen
62
7
10
 978.567
20
 69.547
30
0
0
VERTEX
8
Halfen
62
7
10
 977.216
20
 69.397
30
0
0
VERTEX
8
Halfen
62
7
10
 975.859
20
 69.307
30
0
0
VERTEX
8
Halfen
62
7
10
 974.5
20
 69.277
30
0
0
VERTEX
8
Halfen
62
7
10
 952.5
20
 69.277
30
0
0
VERTEX
8
Halfen
62
7
10
 951.141
20
 69.307
30
0
0
VERTEX
8
Halfen
62
7
10
 949.784
20
 69.397
30
0
0
VERTEX
8
Halfen
62
7
10
 948.433
20
 69.547
30
0
0
VERTEX
8
Halfen
62
7
10
 947.089
20
 69.756
30
0
0
VERTEX
8
Halfen
62
7
10
 945.757
20
 70.024
30
0
0
VERTEX
8
Halfen
62
7
10
 944.437
20
 70.351
30
0
0
VERTEX
8
Halfen
62
7
10
 943.133
20
 70.736
30
0
0
VERTEX
8
Halfen
62
7
10
 941.847
20
 71.178
30
0
0
VERTEX
8
Halfen
62
7
10
 940.582
20
 71.676
30
0
0
VERTEX
8
Halfen
62
7
10
 939.34
20
 72.23
30
0
0
VERTEX
8
Halfen
62
7
10
 938.124
20
 72.838
30
0
0
VERTEX
8
Halfen
62
7
10
 936.936
20
 73.499
30
0
0
VERTEX
8
Halfen
62
7
10
 935.778
20
 74.211
30
0
0
VERTEX
8
Halfen
62
7
10
 934.653
20
 74.975
30
0
0
VERTEX
8
Halfen
62
7
10
 933.563
20
 75.787
30
0
0
VERTEX
8
Halfen
62
7
10
 932.509
20
 76.646
30
0
0
VERTEX
8
Halfen
62
7
10
 931.495
20
 77.551
30
0
0
VERTEX
8
Halfen
62
7
10
 930.521
20
 78.5
30
0
0
VERTEX
8
Halfen
62
7
10
 929.59
20
 79.491
30
0
0
VERTEX
8
Halfen
62
7
10
 928.704
20
 80.522
30
0
0
VERTEX
8
Halfen
62
7
10
 928.603
20
 80.639
30
0
0
VERTEX
8
Halfen
62
7
10
 928.498
20
 80.752
30
0
0
VERTEX
8
Halfen
62
7
10
 928.387
20
 80.86
30
0
0
VERTEX
8
Halfen
62
7
10
 928.272
20
 80.963
30
0
0
VERTEX
8
Halfen
62
7
10
 928.152
20
 81.06
30
0
0
VERTEX
8
Halfen
62
7
10
 928.028
20
 81.153
30
0
0
VERTEX
8
Halfen
62
7
10
 927.9
20
 81.239
30
0
0
VERTEX
8
Halfen
62
7
10
 927.769
20
 81.32
30
0
0
VERTEX
8
Halfen
62
7
10
 927.634
20
 81.395
30
0
0
VERTEX
8
Halfen
62
7
10
 927.495
20
 81.464
30
0
0
VERTEX
8
Halfen
62
7
10
 927.354
20
 81.527
30
0
0
VERTEX
8
Halfen
62
7
10
 927.211
20
 81.584
30
0
0
VERTEX
8
Halfen
62
7
10
 927.064
20
 81.634
30
0
0
VERTEX
8
Halfen
62
7
10
 926.916
20
 81.678
30
0
0
VERTEX
8
Halfen
62
7
10
 926.766
20
 81.715
30
0
0
VERTEX
8
Halfen
62
7
10
 926.615
20
 81.746
30
0
0
VERTEX
8
Halfen
62
7
10
 926.462
20
 81.769
30
0
0
VERTEX
8
Halfen
62
7
10
 926.309
20
 81.786
30
0
0
VERTEX
8
Halfen
62
7
10
 926.154
20
 81.797
30
0
0
VERTEX
8
Halfen
62
7
10
 926
20
 81.8
30
0
0
VERTEX
8
Halfen
62
7
10
 922
20
 81.8
30
0
0
VERTEX
8
Halfen
62
7
10
 922
20
-81.8
30
0
0
VERTEX
8
Halfen
62
7
10
 926
20
-81.8
30
0
0
VERTEX
8
Halfen
62
7
10
 926.154
20
-81.797
30
0
0
VERTEX
8
Halfen
62
7
10
 926.309
20
-81.786
30
0
0
VERTEX
8
Halfen
62
7
10
 926.462
20
-81.769
30
0
0
VERTEX
8
Halfen
62
7
10
 926.615
20
-81.746
30
0
0
VERTEX
8
Halfen
62
7
10
 926.766
20
-81.715
30
0
0
VERTEX
8
Halfen
62
7
10
 926.916
20
-81.678
30
0
0
VERTEX
8
Halfen
62
7
10
 927.064
20
-81.634
30
0
0
VERTEX
8
Halfen
62
7
10
 927.211
20
-81.584
30
0
0
VERTEX
8
Halfen
62
7
10
 927.354
20
-81.527
30
0
0
VERTEX
8
Halfen
62
7
10
 927.495
20
-81.464
30
0
0
VERTEX
8
Halfen
62
7
10
 927.634
20
-81.395
30
0
0
VERTEX
8
Halfen
62
7
10
 927.769
20
-81.32
30
0
0
VERTEX
8
Halfen
62
7
10
 927.9
20
-81.239
30
0
0
VERTEX
8
Halfen
62
7
10
 928.028
20
-81.153
30
0
0
VERTEX
8
Halfen
62
7
10
 928.152
20
-81.06
30
0
0
VERTEX
8
Halfen
62
7
10
 928.272
20
-80.963
30
0
0
VERTEX
8
Halfen
62
7
10
 928.387
20
-80.86
30
0
0
VERTEX
8
Halfen
62
7
10
 928.498
20
-80.752
30
0
0
VERTEX
8
Halfen
62
7
10
 928.603
20
-80.639
30
0
0
VERTEX
8
Halfen
62
7
10
 928.704
20
-80.522
30
0
0
VERTEX
8
Halfen
62
7
10
 929.59
20
-79.491
30
0
0
VERTEX
8
Halfen
62
7
10
 930.521
20
-78.5
30
0
0
VERTEX
8
Halfen
62
7
10
 931.495
20
-77.551
30
0
0
VERTEX
8
Halfen
62
7
10
 932.509
20
-76.646
30
0
0
VERTEX
8
Halfen
62
7
10
 933.563
20
-75.787
30
0
0
VERTEX
8
Halfen
62
7
10
 934.653
20
-74.975
30
0
0
VERTEX
8
Halfen
62
7
10
 935.778
20
-74.211
30
0
0
VERTEX
8
Halfen
62
7
10
 936.936
20
-73.499
30
0
0
VERTEX
8
Halfen
62
7
10
 938.124
20
-72.838
30
0
0
VERTEX
8
Halfen
62
7
10
 939.34
20
-72.23
30
0
0
VERTEX
8
Halfen
62
7
10
 940.582
20
-71.676
30
0
0
VERTEX
8
Halfen
62
7
10
 941.847
20
-71.178
30
0
0
VERTEX
8
Halfen
62
7
10
 943.133
20
-70.736
30
0
0
VERTEX
8
Halfen
62
7
10
 944.437
20
-70.351
30
0
0
VERTEX
8
Halfen
62
7
10
 945.757
20
-70.024
30
0
0
VERTEX
8
Halfen
62
7
10
 947.089
20
-69.756
30
0
0
VERTEX
8
Halfen
62
7
10
 948.433
20
-69.547
30
0
0
VERTEX
8
Halfen
62
7
10
 949.784
20
-69.397
30
0
0
VERTEX
8
Halfen
62
7
10
 951.141
20
-69.307
30
0
0
VERTEX
8
Halfen
62
7
10
 952.5
20
-69.277
30
0
0
VERTEX
8
Halfen
62
7
10
 974.5
20
-69.277
30
0
0
VERTEX
8
Halfen
62
7
10
 975.859
20
-69.307
30
0
0
VERTEX
8
Halfen
62
7
10
 977.216
20
-69.397
30
0
0
VERTEX
8
Halfen
62
7
10
 978.567
20
-69.547
30
0
0
VERTEX
8
Halfen
62
7
10
 979.911
20
-69.756
30
0
0
VERTEX
8
Halfen
62
7
10
 981.243
20
-70.024
30
0
0
VERTEX
8
Halfen
62
7
10
 982.563
20
-70.351
30
0
0
VERTEX
8
Halfen
62
7
10
 983.867
20
-70.736
30
0
0
VERTEX
8
Halfen
62
7
10
 985.153
20
-71.178
30
0
0
VERTEX
8
Halfen
62
7
10
 986.418
20
-71.676
30
0
0
VERTEX
8
Halfen
62
7
10
 987.66
20
-72.23
30
0
0
VERTEX
8
Halfen
62
7
10
 988.876
20
-72.838
30
0
0
VERTEX
8
Halfen
62
7
10
 990.064
20
-73.499
30
0
0
VERTEX
8
Halfen
62
7
10
 991.222
20
-74.211
30
0
0
VERTEX
8
Halfen
62
7
10
 992.347
20
-74.975
30
0
0
VERTEX
8
Halfen
62
7
10
 993.437
20
-75.787
30
0
0
VERTEX
8
Halfen
62
7
10
 994.491
20
-76.646
30
0
0
VERTEX
8
Halfen
62
7
10
 995.505
20
-77.551
30
0
0
VERTEX
8
Halfen
62
7
10
 996.479
20
-78.5
30
0
0
VERTEX
8
Halfen
62
7
10
 997.41
20
-79.491
30
0
0
VERTEX
8
Halfen
62
7
10
 998.296
20
-80.522
30
0
0
VERTEX
8
Halfen
62
7
10
 998.397
20
-80.639
30
0
0
VERTEX
8
Halfen
62
7
10
 998.502
20
-80.752
30
0
0
VERTEX
8
Halfen
62
7
10
 998.613
20
-80.86
30
0
0
VERTEX
8
Halfen
62
7
10
 998.728
20
-80.963
30
0
0
VERTEX
8
Halfen
62
7
10
 998.848
20
-81.06
30
0
0
VERTEX
8
Halfen
62
7
10
 998.972
20
-81.153
30
0
0
VERTEX
8
Halfen
62
7
10
 999.1
20
-81.239
30
0
0
VERTEX
8
Halfen
62
7
10
 999.231
20
-81.32
30
0
0
VERTEX
8
Halfen
62
7
10
 999.366
20
-81.395
30
0
0
VERTEX
8
Halfen
62
7
10
 999.505
20
-81.464
30
0
0
VERTEX
8
Halfen
62
7
10
 999.646
20
-81.527
30
0
0
VERTEX
8
Halfen
62
7
10
 999.789
20
-81.584
30
0
0
VERTEX
8
Halfen
62
7
10
 999.936
20
-81.634
30
0
0
VERTEX
8
Halfen
62
7
10
 1000.084
20
-81.678
30
0
0
VERTEX
8
Halfen
62
7
10
 1000.234
20
-81.715
30
0
0
VERTEX
8
Halfen
62
7
10
 1000.385
20
-81.746
30
0
0
VERTEX
8
Halfen
62
7
10
 1000.538
20
-81.769
30
0
0
VERTEX
8
Halfen
62
7
10
 1000.691
20
-81.786
30
0
0
VERTEX
8
Halfen
62
7
10
 1000.846
20
-81.797
30
0
0
VERTEX
8
Halfen
62
7
10
 1001
20
-81.8
30
0
0
SEQEND
8
Halfen
0
POLYLINE
8
Halfen
62
7
66
1
10
0.0
20
0.0
30
0.0
70
1
0
VERTEX
8
Halfen
62
7
10
 990
20
-457.177
30
0
0
VERTEX
8
Halfen
62
7
10
 990
20
-81.213
30
0
0
VERTEX
8
Halfen
62
7
10
 989.705
20
-77.459
30
0
0
VERTEX
8
Halfen
62
7
10
 988.825
20
-73.797
30
0
0
VERTEX
8
Halfen
62
7
10
 987.384
20
-70.317
30
0
0
VERTEX
8
Halfen
62
7
10
 985.416
20
-67.106
30
0
0
VERTEX
8
Halfen
62
7
10
 982.971
20
-64.243
30
0
0
VERTEX
8
Halfen
62
7
10
 781.272
20
 137.456
30
0
0
VERTEX
8
Halfen
62
7
10
 779.438
20
 139.604
30
0
0
VERTEX
8
Halfen
62
7
10
 777.962
20
 142.012
30
0
0
VERTEX
8
Halfen
62
7
10
 776.881
20
 144.621
30
0
0
VERTEX
8
Halfen
62
7
10
 776.222
20
 147.368
30
0
0
VERTEX
8
Halfen
62
7
10
 776
20
 150.184
30
0
0
VERTEX
8
Halfen
62
7
10
 776
20
 191.147
30
0
0
VERTEX
8
Halfen
62
7
10
 776.222
20
 193.963
30
0
0
VERTEX
8
Halfen
62
7
10
 776.881
20
 196.71
30
0
0
VERTEX
8
Halfen
62
7
10
 777.962
20
 199.319
30
0
0
VERTEX
8
Halfen
62
7
10
 779.438
20
 201.728
30
0
0
VERTEX
8
Halfen
62
7
10
 781.272
20
 203.875
30
0
0
VERTEX
8
Halfen
62
7
10
 783.42
20
 205.71
30
0
0
VERTEX
8
Halfen
62
7
10
 785.828
20
 207.186
30
0
0
VERTEX
8
Halfen
62
7
10
 788.438
20
 208.266
30
0
0
VERTEX
8
Halfen
62
7
10
 791.184
20
 208.926
30
0
0
VERTEX
8
Halfen
62
7
10
 794
20
 209.147
30
0
0
VERTEX
8
Halfen
62
7
10
 890
20
 209.147
30
0
0
VERTEX
8
Halfen
62
7
10
 890
20
 215.147
30
0
0
VERTEX
8
Halfen
62
7
10
 794
20
 215.147
30
0
0
VERTEX
8
Halfen
62
7
10
 790.246
20
 214.852
30
0
0
VERTEX
8
Halfen
62
7
10
 786.584
20
 213.973
30
0
0
VERTEX
8
Halfen
62
7
10
 783.104
20
 212.532
30
0
0
VERTEX
8
Halfen
62
7
10
 779.893
20
 210.564
30
0
0
VERTEX
8
Halfen
62
7
10
 777.029
20
 208.118
30
0
0
VERTEX
8
Halfen
62
7
10
 774.584
20
 205.254
30
0
0
VERTEX
8
Halfen
62
7
10
 772.616
20
 202.043
30
0
0
VERTEX
8
Halfen
62
7
10
 771.175
20
 198.564
30
0
0
VERTEX
8
Halfen
62
7
10
 770.295
20
 194.902
30
0
0
VERTEX
8
Halfen
62
7
10
 770
20
 191.147
30
0
0
VERTEX
8
Halfen
62
7
10
 770
20
 150.184
30
0
0
VERTEX
8
Halfen
62
7
10
 770.295
20
 146.429
30
0
0
VERTEX
8
Halfen
62
7
10
 771.175
20
 142.767
30
0
0
VERTEX
8
Halfen
62
7
10
 772.616
20
 139.288
30
0
0
VERTEX
8
Halfen
62
7
10
 774.584
20
 136.077
30
0
0
VERTEX
8
Halfen
62
7
10
 777.029
20
 133.213
30
0
0
VERTEX
8
Halfen
62
7
10
 978.728
20
-68.485
30
0
0
VERTEX
8
Halfen
62
7
10
 980.562
20
-70.633
30
0
0
VERTEX
8
Halfen
62
7
10
 982.038
20
-73.041
30
0
0
VERTEX
8
Halfen
62
7
10
 983.119
20
-75.651
30
0
0
VERTEX
8
Halfen
62
7
10
 983.778
20
-78.397
30
0
0
VERTEX
8
Halfen
62
7
10
 984
20
-81.213
30
0
0
VERTEX
8
Halfen
62
7
10
 984
20
-457.177
30
0
0
SEQEND
8
Halfen
0
POLYLINE
8
Halfen
62
7
66
1
10
0.0
20
0.0
30
0.0
70
1
0
VERTEX
8
Halfen
62
7
10
 770
20
-457.324
30
0
0
VERTEX
8
Halfen
62
7
10
 770
20
-81.361
30
0
0
VERTEX
8
Halfen
62
7
10
 770.295
20
-77.606
30
0
0
VERTEX
8
Halfen
62
7
10
 771.175
20
-73.944
30
0
0
VERTEX
8
Halfen
62
7
10
 772.616
20
-70.465
30
0
0
VERTEX
8
Halfen
62
7
10
 774.584
20
-67.254
30
0
0
VERTEX
8
Halfen
62
7
10
 777.029
20
-64.39
30
0
0
VERTEX
8
Halfen
62
7
10
 978.728
20
 137.308
30
0
0
VERTEX
8
Halfen
62
7
10
 980.562
20
 139.456
30
0
0
VERTEX
8
Halfen
62
7
10
 982.038
20
 141.865
30
0
0
VERTEX
8
Halfen
62
7
10
 983.119
20
 144.474
30
0
0
VERTEX
8
Halfen
62
7
10
 983.778
20
 147.221
30
0
0
VERTEX
8
Halfen
62
7
10
 984
20
 150.036
30
0
0
VERTEX
8
Halfen
62
7
10
 984
20
 191
30
0
0
VERTEX
8
Halfen
62
7
10
 983.778
20
 193.816
30
0
0
VERTEX
8
Halfen
62
7
10
 983.119
20
 196.562
30
0
0
VERTEX
8
Halfen
62
7
10
 982.038
20
 199.172
30
0
0
VERTEX
8
Halfen
62
7
10
 980.562
20
 201.58
30
0
0
VERTEX
8
Halfen
62
7
10
 978.728
20
 203.728
30
0
0
VERTEX
8
Halfen
62
7
10
 976.58
20
 205.562
30
0
0
VERTEX
8
Halfen
62
7
10
 974.172
20
 207.038
30
0
0
VERTEX
8
Halfen
62
7
10
 971.562
20
 208.119
30
0
0
VERTEX
8
Halfen
62
7
10
 968.816
20
 208.778
30
0
0
VERTEX
8
Halfen
62
7
10
 966
20
 209
30
0
0
VERTEX
8
Halfen
62
7
10
 870
20
 209
30
0
0
VERTEX
8
Halfen
62
7
10
 870
20
 215
30
0
0
VERTEX
8
Halfen
62
7
10
 966
20
 215
30
0
0
VERTEX
8
Halfen
62
7
10
 969.754
20
 214.705
30
0
0
VERTEX
8
Halfen
62
7
10
 973.416
20
 213.825
30
0
0
VERTEX
8
Halfen
62
7
10
 976.896
20
 212.384
30
0
0
VERTEX
8
Halfen
62
7
10
 980.107
20
 210.416
30
0
0
VERTEX
8
Halfen
62
7
10
 982.971
20
 207.971
30
0
0
VERTEX
8
Halfen
62
7
10
 985.416
20
 205.107
30
0
0
VERTEX
8
Halfen
62
7
10
 987.384
20
 201.896
30
0
0
VERTEX
8
Halfen
62
7
10
 988.825
20
 198.416
30
0
0
VERTEX
8
Halfen
62
7
10
 989.705
20
 194.754
30
0
0
VERTEX
8
Halfen
62
7
10
 990
20
 191
30
0
0
VERTEX
8
Halfen
62
7
10
 990
20
 150.036
30
0
0
VERTEX
8
Halfen
62
7
10
 989.705
20
 146.282
30
0
0
VERTEX
8
Halfen
62
7
10
 988.825
20
 142.62
30
0
0
VERTEX
8
Halfen
62
7
10
 987.384
20
 139.141
30
0
0
VERTEX
8
Halfen
62
7
10
 985.416
20
 135.929
30
0
0
VERTEX
8
Halfen
62
7
10
 982.971
20
 133.066
30
0
0
VERTEX
8
Halfen
62
7
10
 781.272
20
-68.633
30
0
0
VERTEX
8
Halfen
62
7
10
 779.438
20
-70.78
30
0
0
VERTEX
8
Halfen
62
7
10
 777.962
20
-73.189
30
0
0
VERTEX
8
Halfen
62
7
10
 776.881
20
-75.798
30
0
0
VERTEX
8
Halfen
62
7
10
 776.222
20
-78.545
30
0
0
VERTEX
8
Halfen
62
7
10
 776
20
-81.361
30
0
0
VERTEX
8
Halfen
62
7
10
 776
20
-457.324
30
0
0
SEQEND
8
Halfen
0
ENDSEC
0
EOF
