0
SECTION
2
HEADER
9
$EXTMIN
10
 0
20
 100
30
0.0
9
$EXTMAX
10
 0
20
 100
30
0.0
9
$LIMMIN
10
 100
20
 0
9
$LIMMAX
10
 0
20
 100
9
$PSLTSCALE
70
1
0
ENDSEC
0
SECTION
2
TABLES
0
TABLE
2
LAYER
70
2
0
LAYER
2
0
70
0
62
7
6
CONTINUOUS
0
LAYER
2
Halfen
70
0
62
7
6
CONTINUOUS
0
ENDTAB
0
ENDSEC
0
SECTION
2
ENTITIES
0
POLYLINE
8
Halfen
62
7
66
1
10
0.0
20
0.0
30
0.0
70
1
0
VERTEX
8
Halfen
62
7
10
 0
20
-73.5
30
0
0
VERTEX
8
Halfen
62
7
10
 1000
20
-73.5
30
0
0
VERTEX
8
Halfen
62
7
10
 1000
20
 73.5
30
0
0
VERTEX
8
Halfen
62
7
10
 0
20
 73.5
30
0
0
SEQEND
8
Halfen
0
POLYLINE
8
Halfen
62
7
66
1
10
0.0
20
0.0
30
0.0
70
1
0
VERTEX
8
Halfen
62
7
10
 0
20
-60
30
0
0
VERTEX
8
Halfen
62
7
10
 1000
20
-60
30
0
0
VERTEX
8
Halfen
62
7
10
 1000
20
 60
30
0
0
VERTEX
8
Halfen
62
7
10
 0
20
 60
30
0
0
SEQEND
8
Halfen
0
POLYLINE
8
Halfen
62
7
66
1
10
0.0
20
0.0
30
0.0
70
1
0
VERTEX
8
Halfen
62
7
10
 20
20
-32.5
30
0
0
VERTEX
8
Halfen
62
7
10
 37
20
-1.5
30
0
0
VERTEX
8
Halfen
62
7
10
 28
20
-1.5
30
0
0
VERTEX
8
Halfen
62
7
10
 28
20
 32.5
30
0
0
VERTEX
8
Halfen
62
7
10
 12
20
 32.5
30
0
0
VERTEX
8
Halfen
62
7
10
 12
20
-1.5
30
0
0
VERTEX
8
Halfen
62
7
10
 3
20
-1.5
30
0
0
SEQEND
8
Halfen
0
POLYLINE
8
Halfen
62
7
66
1
10
0.0
20
0.0
30
0.0
70
1
0
VERTEX
8
Halfen
62
7
10
 980
20
-32.5
30
0
0
VERTEX
8
Halfen
62
7
10
 997
20
-1.5
30
0
0
VERTEX
8
Halfen
62
7
10
 988
20
-1.5
30
0
0
VERTEX
8
Halfen
62
7
10
 988
20
 32.5
30
0
0
VERTEX
8
Halfen
62
7
10
 972
20
 32.5
30
0
0
VERTEX
8
Halfen
62
7
10
 972
20
-1.5
30
0
0
VERTEX
8
Halfen
62
7
10
 963
20
-1.5
30
0
0
SEQEND
8
Halfen
0
POLYLINE
8
Halfen
62
7
66
1
10
0.0
20
0.0
30
0.0
70
1
0
VERTEX
8
Halfen
62
7
10
 73
20
-457.177
30
0
0
VERTEX
8
Halfen
62
7
10
 73
20
 215.147
30
0
0
VERTEX
8
Halfen
62
7
10
 67
20
 215.147
30
0
0
VERTEX
8
Halfen
62
7
10
 67
20
-457.177
30
0
0
SEQEND
8
Halfen
0
POLYLINE
8
Halfen
62
7
66
1
10
0.0
20
0.0
30
0.0
70
1
0
VERTEX
8
Halfen
62
7
10
 133
20
-457.177
30
0
0
VERTEX
8
Halfen
62
7
10
 133
20
 215.147
30
0
0
VERTEX
8
Halfen
62
7
10
 127
20
 215.147
30
0
0
VERTEX
8
Halfen
62
7
10
 127
20
-457.177
30
0
0
SEQEND
8
Halfen
0
POLYLINE
8
Halfen
62
7
66
1
10
0.0
20
0.0
30
0.0
70
1
0
VERTEX
8
Halfen
62
7
10
 193
20
-457.177
30
0
0
VERTEX
8
Halfen
62
7
10
 193
20
 215.147
30
0
0
VERTEX
8
Halfen
62
7
10
 187
20
 215.147
30
0
0
VERTEX
8
Halfen
62
7
10
 187
20
-457.177
30
0
0
SEQEND
8
Halfen
0
POLYLINE
8
Halfen
62
7
66
1
10
0.0
20
0.0
30
0.0
70
1
0
VERTEX
8
Halfen
62
7
10
 323
20
-457.177
30
0
0
VERTEX
8
Halfen
62
7
10
 323
20
 215.147
30
0
0
VERTEX
8
Halfen
62
7
10
 317
20
 215.147
30
0
0
VERTEX
8
Halfen
62
7
10
 317
20
-457.177
30
0
0
SEQEND
8
Halfen
0
POLYLINE
8
Halfen
62
7
66
1
10
0.0
20
0.0
30
0.0
70
1
0
VERTEX
8
Halfen
62
7
10
 383
20
-457.177
30
0
0
VERTEX
8
Halfen
62
7
10
 383
20
 215.147
30
0
0
VERTEX
8
Halfen
62
7
10
 377
20
 215.147
30
0
0
VERTEX
8
Halfen
62
7
10
 377
20
-457.177
30
0
0
SEQEND
8
Halfen
0
POLYLINE
8
Halfen
62
7
66
1
10
0.0
20
0.0
30
0.0
70
1
0
VERTEX
8
Halfen
62
7
10
 443
20
-457.177
30
0
0
VERTEX
8
Halfen
62
7
10
 443
20
 215.147
30
0
0
VERTEX
8
Halfen
62
7
10
 437
20
 215.147
30
0
0
VERTEX
8
Halfen
62
7
10
 437
20
-457.177
30
0
0
SEQEND
8
Halfen
0
POLYLINE
8
Halfen
62
7
66
1
10
0.0
20
0.0
30
0.0
70
1
0
VERTEX
8
Halfen
62
7
10
 573
20
-457.177
30
0
0
VERTEX
8
Halfen
62
7
10
 573
20
 215.147
30
0
0
VERTEX
8
Halfen
62
7
10
 567
20
 215.147
30
0
0
VERTEX
8
Halfen
62
7
10
 567
20
-457.177
30
0
0
SEQEND
8
Halfen
0
POLYLINE
8
Halfen
62
7
66
1
10
0.0
20
0.0
30
0.0
70
1
0
VERTEX
8
Halfen
62
7
10
 633
20
-457.177
30
0
0
VERTEX
8
Halfen
62
7
10
 633
20
 215.147
30
0
0
VERTEX
8
Halfen
62
7
10
 627
20
 215.147
30
0
0
VERTEX
8
Halfen
62
7
10
 627
20
-457.177
30
0
0
SEQEND
8
Halfen
0
POLYLINE
8
Halfen
62
7
66
1
10
0.0
20
0.0
30
0.0
70
1
0
VERTEX
8
Halfen
62
7
10
 693
20
-457.177
30
0
0
VERTEX
8
Halfen
62
7
10
 693
20
 215.147
30
0
0
VERTEX
8
Halfen
62
7
10
 687
20
 215.147
30
0
0
VERTEX
8
Halfen
62
7
10
 687
20
-457.177
30
0
0
SEQEND
8
Halfen
0
POLYLINE
8
Halfen
62
7
66
1
10
0.0
20
0.0
30
0.0
70
1
0
VERTEX
8
Halfen
62
7
10
 823
20
-457.177
30
0
0
VERTEX
8
Halfen
62
7
10
 823
20
 215.147
30
0
0
VERTEX
8
Halfen
62
7
10
 817
20
 215.147
30
0
0
VERTEX
8
Halfen
62
7
10
 817
20
-457.177
30
0
0
SEQEND
8
Halfen
0
POLYLINE
8
Halfen
62
7
66
1
10
0.0
20
0.0
30
0.0
70
1
0
VERTEX
8
Halfen
62
7
10
 883
20
-457.177
30
0
0
VERTEX
8
Halfen
62
7
10
 883
20
 215.147
30
0
0
VERTEX
8
Halfen
62
7
10
 877
20
 215.147
30
0
0
VERTEX
8
Halfen
62
7
10
 877
20
-457.177
30
0
0
SEQEND
8
Halfen
0
POLYLINE
8
Halfen
62
7
66
1
10
0.0
20
0.0
30
0.0
70
1
0
VERTEX
8
Halfen
62
7
10
 943
20
-457.177
30
0
0
VERTEX
8
Halfen
62
7
10
 943
20
 215.147
30
0
0
VERTEX
8
Halfen
62
7
10
 937
20
 215.147
30
0
0
VERTEX
8
Halfen
62
7
10
 937
20
-457.177
30
0
0
SEQEND
8
Halfen
0
POLYLINE
8
Halfen
62
7
66
1
10
0.0
20
0.0
30
0.0
70
1
0
VERTEX
8
Halfen
62
7
10
 1520
20
-60
30
0
0
VERTEX
8
Halfen
62
7
10
 1520
20
 60
30
0
0
VERTEX
8
Halfen
62
7
10
 1506.5
20
 73.5
30
0
0
VERTEX
8
Halfen
62
7
10
 1506.5
20
 60
30
0
0
VERTEX
8
Halfen
62
7
10
 1250
20
 60
30
0
0
VERTEX
8
Halfen
62
7
10
 1250
20
-60
30
0
0
VERTEX
8
Halfen
62
7
10
 1506.5
20
-60
30
0
0
VERTEX
8
Halfen
62
7
10
 1506.5
20
-73.5
30
0
0
SEQEND
8
Halfen
0
POLYLINE
8
Halfen
62
7
66
1
10
0.0
20
0.0
30
0.0
70
1
0
VERTEX
8
Halfen
62
7
10
 1250
20
-60
30
0
0
VERTEX
8
Halfen
62
7
10
 1250
20
 60
30
0
0
VERTEX
8
Halfen
62
7
10
 1213.5
20
 60
30
0
0
VERTEX
8
Halfen
62
7
10
 1213.5
20
 73.5
30
0
0
VERTEX
8
Halfen
62
7
10
 1200
20
 60
30
0
0
VERTEX
8
Halfen
62
7
10
 1200
20
-60
30
0
0
VERTEX
8
Halfen
62
7
10
 1213.5
20
-73.5
30
0
0
VERTEX
8
Halfen
62
7
10
 1213.5
20
-60
30
0
0
SEQEND
8
Halfen
0
POLYLINE
8
Halfen
62
7
66
1
10
0.0
20
0.0
30
0.0
70
1
0
VERTEX
8
Halfen
62
7
10
 1517.5
20
-58.75
30
0
0
VERTEX
8
Halfen
62
7
10
 1517.5
20
 58.75
30
0
0
VERTEX
8
Halfen
62
7
10
 1509
20
 67.25
30
0
0
VERTEX
8
Halfen
62
7
10
 1509
20
 58
30
0
0
VERTEX
8
Halfen
62
7
10
 1252
20
 58
30
0
0
VERTEX
8
Halfen
62
7
10
 1252
20
-58
30
0
0
VERTEX
8
Halfen
62
7
10
 1509
20
-58
30
0
0
VERTEX
8
Halfen
62
7
10
 1509
20
-67.25
30
0
0
SEQEND
8
Halfen
0
POLYLINE
8
Halfen
62
7
66
1
10
0.0
20
0.0
30
0.0
70
1
0
VERTEX
8
Halfen
62
7
10
 1248
20
-58
30
0
0
VERTEX
8
Halfen
62
7
10
 1248
20
 58
30
0
0
VERTEX
8
Halfen
62
7
10
 1211
20
 58
30
0
0
VERTEX
8
Halfen
62
7
10
 1211
20
 67.25
30
0
0
VERTEX
8
Halfen
62
7
10
 1202.5
20
 58.75
30
0
0
VERTEX
8
Halfen
62
7
10
 1202.5
20
-58.75
30
0
0
VERTEX
8
Halfen
62
7
10
 1211
20
-67.25
30
0
0
VERTEX
8
Halfen
62
7
10
 1211
20
-58
30
0
0
SEQEND
8
Halfen
0
POLYLINE
8
Halfen
62
7
66
1
10
0.0
20
0.0
30
0.0
70
1
0
VERTEX
8
Halfen
62
7
10
 1490
20
-457.177
30
0
0
VERTEX
8
Halfen
62
7
10
 1490
20
-81.213
30
0
0
VERTEX
8
Halfen
62
7
10
 1489.705
20
-77.459
30
0
0
VERTEX
8
Halfen
62
7
10
 1488.825
20
-73.797
30
0
0
VERTEX
8
Halfen
62
7
10
 1487.384
20
-70.317
30
0
0
VERTEX
8
Halfen
62
7
10
 1485.416
20
-67.106
30
0
0
VERTEX
8
Halfen
62
7
10
 1482.971
20
-64.243
30
0
0
VERTEX
8
Halfen
62
7
10
 1281.272
20
 137.456
30
0
0
VERTEX
8
Halfen
62
7
10
 1279.438
20
 139.604
30
0
0
VERTEX
8
Halfen
62
7
10
 1277.962
20
 142.012
30
0
0
VERTEX
8
Halfen
62
7
10
 1276.881
20
 144.621
30
0
0
VERTEX
8
Halfen
62
7
10
 1276.222
20
 147.368
30
0
0
VERTEX
8
Halfen
62
7
10
 1276
20
 150.184
30
0
0
VERTEX
8
Halfen
62
7
10
 1276
20
 191.147
30
0
0
VERTEX
8
Halfen
62
7
10
 1276.222
20
 193.963
30
0
0
VERTEX
8
Halfen
62
7
10
 1276.881
20
 196.71
30
0
0
VERTEX
8
Halfen
62
7
10
 1277.962
20
 199.319
30
0
0
VERTEX
8
Halfen
62
7
10
 1279.438
20
 201.728
30
0
0
VERTEX
8
Halfen
62
7
10
 1281.272
20
 203.875
30
0
0
VERTEX
8
Halfen
62
7
10
 1283.42
20
 205.71
30
0
0
VERTEX
8
Halfen
62
7
10
 1285.828
20
 207.186
30
0
0
VERTEX
8
Halfen
62
7
10
 1288.438
20
 208.266
30
0
0
VERTEX
8
Halfen
62
7
10
 1291.184
20
 208.926
30
0
0
VERTEX
8
Halfen
62
7
10
 1294
20
 209.147
30
0
0
VERTEX
8
Halfen
62
7
10
 1390
20
 209.147
30
0
0
VERTEX
8
Halfen
62
7
10
 1390
20
 215.147
30
0
0
VERTEX
8
Halfen
62
7
10
 1294
20
 215.147
30
0
0
VERTEX
8
Halfen
62
7
10
 1290.246
20
 214.852
30
0
0
VERTEX
8
Halfen
62
7
10
 1286.584
20
 213.973
30
0
0
VERTEX
8
Halfen
62
7
10
 1283.104
20
 212.532
30
0
0
VERTEX
8
Halfen
62
7
10
 1279.893
20
 210.564
30
0
0
VERTEX
8
Halfen
62
7
10
 1277.029
20
 208.118
30
0
0
VERTEX
8
Halfen
62
7
10
 1274.584
20
 205.254
30
0
0
VERTEX
8
Halfen
62
7
10
 1272.616
20
 202.043
30
0
0
VERTEX
8
Halfen
62
7
10
 1271.175
20
 198.564
30
0
0
VERTEX
8
Halfen
62
7
10
 1270.295
20
 194.902
30
0
0
VERTEX
8
Halfen
62
7
10
 1270
20
 191.147
30
0
0
VERTEX
8
Halfen
62
7
10
 1270
20
 150.184
30
0
0
VERTEX
8
Halfen
62
7
10
 1270.295
20
 146.429
30
0
0
VERTEX
8
Halfen
62
7
10
 1271.175
20
 142.767
30
0
0
VERTEX
8
Halfen
62
7
10
 1272.616
20
 139.288
30
0
0
VERTEX
8
Halfen
62
7
10
 1274.584
20
 136.077
30
0
0
VERTEX
8
Halfen
62
7
10
 1277.029
20
 133.213
30
0
0
VERTEX
8
Halfen
62
7
10
 1478.728
20
-68.485
30
0
0
VERTEX
8
Halfen
62
7
10
 1480.562
20
-70.633
30
0
0
VERTEX
8
Halfen
62
7
10
 1482.038
20
-73.041
30
0
0
VERTEX
8
Halfen
62
7
10
 1483.119
20
-75.651
30
0
0
VERTEX
8
Halfen
62
7
10
 1483.778
20
-78.397
30
0
0
VERTEX
8
Halfen
62
7
10
 1484
20
-81.213
30
0
0
VERTEX
8
Halfen
62
7
10
 1484
20
-457.177
30
0
0
SEQEND
8
Halfen
0
ENDSEC
0
EOF
