0
SECTION
2
HEADER
9
$EXTMIN
10
 0
20
 100
30
0.0
9
$EXTMAX
10
 0
20
 100
30
0.0
9
$LIMMIN
10
 100
20
 0
9
$LIMMAX
10
 0
20
 100
9
$PSLTSCALE
70
1
0
ENDSEC
0
SECTION
2
TABLES
0
TABLE
2
LAYER
70
2
0
LAYER
2
0
70
0
62
7
6
CONTINUOUS
0
LAYER
2
Halfen
70
0
62
7
6
CONTINUOUS
0
ENDTAB
0
ENDSEC
0
SECTION
2
ENTITIES
0
POLYLINE
8
Halfen
62
7
66
1
10
0.0
20
0.0
30
0.0
70
1
0
VERTEX
8
Halfen
62
7
10
 0
20
-73.5
30
0
0
VERTEX
8
Halfen
62
7
10
 250
20
-73.5
30
0
0
VERTEX
8
Halfen
62
7
10
 250
20
 73.5
30
0
0
VERTEX
8
Halfen
62
7
10
 0
20
 73.5
30
0
0
SEQEND
8
Halfen
0
POLYLINE
8
Halfen
62
7
66
1
10
0.0
20
0.0
30
0.0
70
1
0
VERTEX
8
Halfen
62
7
10
 0
20
-60
30
0
0
VERTEX
8
Halfen
62
7
10
 250
20
-60
30
0
0
VERTEX
8
Halfen
62
7
10
 250
20
 60
30
0
0
VERTEX
8
Halfen
62
7
10
 0
20
 60
30
0
0
SEQEND
8
Halfen
0
POLYLINE
8
Halfen
62
7
66
1
10
0.0
20
0.0
30
0.0
70
1
0
VERTEX
8
Halfen
62
7
10
 20
20
-32.5
30
0
0
VERTEX
8
Halfen
62
7
10
 37
20
-1.5
30
0
0
VERTEX
8
Halfen
62
7
10
 28
20
-1.5
30
0
0
VERTEX
8
Halfen
62
7
10
 28
20
 32.5
30
0
0
VERTEX
8
Halfen
62
7
10
 12
20
 32.5
30
0
0
VERTEX
8
Halfen
62
7
10
 12
20
-1.5
30
0
0
VERTEX
8
Halfen
62
7
10
 3
20
-1.5
30
0
0
SEQEND
8
Halfen
0
POLYLINE
8
Halfen
62
7
66
1
10
0.0
20
0.0
30
0.0
70
1
0
VERTEX
8
Halfen
62
7
10
 230
20
-32.5
30
0
0
VERTEX
8
Halfen
62
7
10
 247
20
-1.5
30
0
0
VERTEX
8
Halfen
62
7
10
 238
20
-1.5
30
0
0
VERTEX
8
Halfen
62
7
10
 238
20
 32.5
30
0
0
VERTEX
8
Halfen
62
7
10
 222
20
 32.5
30
0
0
VERTEX
8
Halfen
62
7
10
 222
20
-1.5
30
0
0
VERTEX
8
Halfen
62
7
10
 213
20
-1.5
30
0
0
SEQEND
8
Halfen
0
POLYLINE
8
Halfen
62
7
66
1
10
0.0
20
0.0
30
0.0
70
1
0
VERTEX
8
Halfen
62
7
10
 194
20
-576.569
30
0
0
VERTEX
8
Halfen
62
7
10
 194
20
 635.197
30
0
0
VERTEX
8
Halfen
62
7
10
 186
20
 635.197
30
0
0
VERTEX
8
Halfen
62
7
10
 186
20
-576.569
30
0
0
SEQEND
8
Halfen
0
POLYLINE
8
Halfen
62
7
66
1
10
0.0
20
0.0
30
0.0
70
1
0
VERTEX
8
Halfen
62
7
10
 184
20
-576.569
30
0
0
VERTEX
8
Halfen
62
7
10
 184
20
 635.197
30
0
0
VERTEX
8
Halfen
62
7
10
 176
20
 635.197
30
0
0
VERTEX
8
Halfen
62
7
10
 176
20
-576.569
30
0
0
SEQEND
8
Halfen
0
POLYLINE
8
Halfen
62
7
66
1
10
0.0
20
0.0
30
0.0
70
1
0
VERTEX
8
Halfen
62
7
10
 770
20
-60
30
0
0
VERTEX
8
Halfen
62
7
10
 770
20
 60
30
0
0
VERTEX
8
Halfen
62
7
10
 756.5
20
 73.5
30
0
0
VERTEX
8
Halfen
62
7
10
 756.5
20
 60
30
0
0
VERTEX
8
Halfen
62
7
10
 500
20
 60
30
0
0
VERTEX
8
Halfen
62
7
10
 500
20
-60
30
0
0
VERTEX
8
Halfen
62
7
10
 756.5
20
-60
30
0
0
VERTEX
8
Halfen
62
7
10
 756.5
20
-73.5
30
0
0
SEQEND
8
Halfen
0
POLYLINE
8
Halfen
62
7
66
1
10
0.0
20
0.0
30
0.0
70
1
0
VERTEX
8
Halfen
62
7
10
 500
20
-60
30
0
0
VERTEX
8
Halfen
62
7
10
 500
20
 60
30
0
0
VERTEX
8
Halfen
62
7
10
 463.5
20
 60
30
0
0
VERTEX
8
Halfen
62
7
10
 463.5
20
 73.5
30
0
0
VERTEX
8
Halfen
62
7
10
 450
20
 60
30
0
0
VERTEX
8
Halfen
62
7
10
 450
20
-60
30
0
0
VERTEX
8
Halfen
62
7
10
 463.5
20
-73.5
30
0
0
VERTEX
8
Halfen
62
7
10
 463.5
20
-60
30
0
0
SEQEND
8
Halfen
0
POLYLINE
8
Halfen
62
7
66
1
10
0.0
20
0.0
30
0.0
70
1
0
VERTEX
8
Halfen
62
7
10
 767.5
20
-58.75
30
0
0
VERTEX
8
Halfen
62
7
10
 767.5
20
 58.75
30
0
0
VERTEX
8
Halfen
62
7
10
 759
20
 67.25
30
0
0
VERTEX
8
Halfen
62
7
10
 759
20
 58
30
0
0
VERTEX
8
Halfen
62
7
10
 502
20
 58
30
0
0
VERTEX
8
Halfen
62
7
10
 502
20
-58
30
0
0
VERTEX
8
Halfen
62
7
10
 759
20
-58
30
0
0
VERTEX
8
Halfen
62
7
10
 759
20
-67.25
30
0
0
SEQEND
8
Halfen
0
POLYLINE
8
Halfen
62
7
66
1
10
0.0
20
0.0
30
0.0
70
1
0
VERTEX
8
Halfen
62
7
10
 498
20
-58
30
0
0
VERTEX
8
Halfen
62
7
10
 498
20
 58
30
0
0
VERTEX
8
Halfen
62
7
10
 461
20
 58
30
0
0
VERTEX
8
Halfen
62
7
10
 461
20
 67.25
30
0
0
VERTEX
8
Halfen
62
7
10
 452.5
20
 58.75
30
0
0
VERTEX
8
Halfen
62
7
10
 452.5
20
-58.75
30
0
0
VERTEX
8
Halfen
62
7
10
 461
20
-67.25
30
0
0
VERTEX
8
Halfen
62
7
10
 461
20
-58
30
0
0
SEQEND
8
Halfen
0
POLYLINE
8
Halfen
62
7
66
1
10
0.0
20
0.0
30
0.0
70
1
0
VERTEX
8
Halfen
62
7
10
 740
20
-576.569
30
0
0
VERTEX
8
Halfen
62
7
10
 740
20
-88.284
30
0
0
VERTEX
8
Halfen
62
7
10
 739.606
20
-83.278
30
0
0
VERTEX
8
Halfen
62
7
10
 738.434
20
-78.396
30
0
0
VERTEX
8
Halfen
62
7
10
 736.512
20
-73.757
30
0
0
VERTEX
8
Halfen
62
7
10
 733.889
20
-69.475
30
0
0
VERTEX
8
Halfen
62
7
10
 730.627
20
-65.657
30
0
0
VERTEX
8
Halfen
62
7
10
 535.029
20
 129.941
30
0
0
VERTEX
8
Halfen
62
7
10
 532.584
20
 132.805
30
0
0
VERTEX
8
Halfen
62
7
10
 530.616
20
 136.016
30
0
0
VERTEX
8
Halfen
62
7
10
 529.175
20
 139.495
30
0
0
VERTEX
8
Halfen
62
7
10
 528.295
20
 143.157
30
0
0
VERTEX
8
Halfen
62
7
10
 528
20
 146.912
30
0
0
VERTEX
8
Halfen
62
7
10
 528
20
 635.197
30
0
0
VERTEX
8
Halfen
62
7
10
 520
20
 635.197
30
0
0
VERTEX
8
Halfen
62
7
10
 520
20
 146.912
30
0
0
VERTEX
8
Halfen
62
7
10
 520.394
20
 141.906
30
0
0
VERTEX
8
Halfen
62
7
10
 521.566
20
 137.023
30
0
0
VERTEX
8
Halfen
62
7
10
 523.488
20
 132.384
30
0
0
VERTEX
8
Halfen
62
7
10
 526.111
20
 128.103
30
0
0
VERTEX
8
Halfen
62
7
10
 529.373
20
 124.284
30
0
0
VERTEX
8
Halfen
62
7
10
 724.971
20
-71.314
30
0
0
VERTEX
8
Halfen
62
7
10
 727.416
20
-74.177
30
0
0
VERTEX
8
Halfen
62
7
10
 729.384
20
-77.388
30
0
0
VERTEX
8
Halfen
62
7
10
 730.825
20
-80.868
30
0
0
VERTEX
8
Halfen
62
7
10
 731.705
20
-84.53
30
0
0
VERTEX
8
Halfen
62
7
10
 732
20
-88.284
30
0
0
VERTEX
8
Halfen
62
7
10
 732
20
-576.569
30
0
0
SEQEND
8
Halfen
0
POLYLINE
8
Halfen
62
7
66
1
10
0.0
20
0.0
30
0.0
70
1
0
VERTEX
8
Halfen
62
7
10
 520
20
-576.569
30
0
0
VERTEX
8
Halfen
62
7
10
 520
20
-88.284
30
0
0
VERTEX
8
Halfen
62
7
10
 520.394
20
-83.278
30
0
0
VERTEX
8
Halfen
62
7
10
 521.566
20
-78.396
30
0
0
VERTEX
8
Halfen
62
7
10
 523.488
20
-73.757
30
0
0
VERTEX
8
Halfen
62
7
10
 526.111
20
-69.475
30
0
0
VERTEX
8
Halfen
62
7
10
 529.373
20
-65.657
30
0
0
VERTEX
8
Halfen
62
7
10
 724.971
20
 129.941
30
0
0
VERTEX
8
Halfen
62
7
10
 727.416
20
 132.805
30
0
0
VERTEX
8
Halfen
62
7
10
 729.384
20
 136.016
30
0
0
VERTEX
8
Halfen
62
7
10
 730.825
20
 139.495
30
0
0
VERTEX
8
Halfen
62
7
10
 731.705
20
 143.157
30
0
0
VERTEX
8
Halfen
62
7
10
 732
20
 146.912
30
0
0
VERTEX
8
Halfen
62
7
10
 732
20
 635.197
30
0
0
VERTEX
8
Halfen
62
7
10
 740
20
 635.197
30
0
0
VERTEX
8
Halfen
62
7
10
 740
20
 146.912
30
0
0
VERTEX
8
Halfen
62
7
10
 739.606
20
 141.906
30
0
0
VERTEX
8
Halfen
62
7
10
 738.434
20
 137.023
30
0
0
VERTEX
8
Halfen
62
7
10
 736.512
20
 132.384
30
0
0
VERTEX
8
Halfen
62
7
10
 733.889
20
 128.103
30
0
0
VERTEX
8
Halfen
62
7
10
 730.627
20
 124.284
30
0
0
VERTEX
8
Halfen
62
7
10
 535.029
20
-71.314
30
0
0
VERTEX
8
Halfen
62
7
10
 532.584
20
-74.177
30
0
0
VERTEX
8
Halfen
62
7
10
 530.616
20
-77.388
30
0
0
VERTEX
8
Halfen
62
7
10
 529.175
20
-80.868
30
0
0
VERTEX
8
Halfen
62
7
10
 528.295
20
-84.53
30
0
0
VERTEX
8
Halfen
62
7
10
 528
20
-88.284
30
0
0
VERTEX
8
Halfen
62
7
10
 528
20
-576.569
30
0
0
SEQEND
8
Halfen
0
ENDSEC
0
EOF
