0
SECTION
2
HEADER
9
$EXTMIN
10
-89
20
-749
30
0.0
9
$EXTMAX
10
 1846
20
 1846
30
0.0
9
$LIMMIN
10
-749
20
-89
9
$LIMMAX
10
 1846
20
 1846
9
$PSLTSCALE
70
1
0
ENDSEC
0
SECTION
2
TABLES
0
TABLE
2
VPORT
70
1
0
VPORT
2
*ACTIVE
70
0
10
0.0
20
0.0
11
1.0
21
1.0
12
 878.5
22
 548.5
13
0.0
23
0.0
14
1.0
24
1.0
15
0.0
25
0.0
16
0.0
26
0.0
36
1.0
17
0.0
27
0.0
37
0.0
40
 2724.75
41
2.0
42
50.0
43
0.0
44
0.0
50
0.0
51
0.0
71
0
72
100
73
1
74
1
75
 0
76
0
77
0
78
0
0
ENDTAB
0
ENDSEC
0
SECTION
2
TABLES
0
TABLE
2
LAYER
70
2
0
LAYER
2
0
70
0
62
7
6
CONTINUOUS
0
LAYER
2
Halfen
70
0
62
7
6
CONTINUOUS
0
ENDTAB
0
ENDSEC
0
SECTION
2
ENTITIES
0
POLYLINE
8
Halfen
62
7
66
1
10
0.0
20
0.0
30
0.0
70
1
0
VERTEX
8
Halfen
62
7
10
 0
20
 0
30
0
0
VERTEX
8
Halfen
62
7
10
 250
20
 0
30
0
0
VERTEX
8
Halfen
62
7
10
 250
20
 120
30
0
0
VERTEX
8
Halfen
62
7
10
 0
20
 120
30
0
0
SEQEND
8
Halfen
0
POLYLINE
8
Halfen
62
7
66
1
10
0.0
20
0.0
30
0.0
70
1
0
VERTEX
8
Halfen
62
7
10
 25
20
-15
30
0
0
VERTEX
8
Halfen
62
7
10
 225
20
-15
30
0
0
VERTEX
8
Halfen
62
7
10
 225
20
 0
30
0
0
VERTEX
8
Halfen
62
7
10
 25
20
 0
30
0
0
SEQEND
8
Halfen
0
POLYLINE
8
Halfen
62
7
66
1
10
0.0
20
0.0
30
0.0
0
VERTEX
8
Halfen
62
7
10
 25
20
-15
30
0
0
VERTEX
8
Halfen
62
7
10
 25.077
20
-14.22
30
0
0
VERTEX
8
Halfen
62
7
10
 25.304
20
-13.469
30
0
0
VERTEX
8
Halfen
62
7
10
 25.674
20
-12.778
30
0
0
VERTEX
8
Halfen
62
7
10
 26.172
20
-12.172
30
0
0
VERTEX
8
Halfen
62
7
10
 26.778
20
-11.674
30
0
0
VERTEX
8
Halfen
62
7
10
 27.469
20
-11.304
30
0
0
VERTEX
8
Halfen
62
7
10
 28.22
20
-11.077
30
0
0
VERTEX
8
Halfen
62
7
10
 29
20
-11
30
0
0
VERTEX
8
Halfen
62
7
10
 221
20
-11
30
0
0
VERTEX
8
Halfen
62
7
10
 221.78
20
-11.077
30
0
0
VERTEX
8
Halfen
62
7
10
 222.531
20
-11.304
30
0
0
VERTEX
8
Halfen
62
7
10
 223.222
20
-11.674
30
0
0
VERTEX
8
Halfen
62
7
10
 223.828
20
-12.172
30
0
0
VERTEX
8
Halfen
62
7
10
 224.326
20
-12.778
30
0
0
VERTEX
8
Halfen
62
7
10
 224.696
20
-13.469
30
0
0
VERTEX
8
Halfen
62
7
10
 224.923
20
-14.22
30
0
0
VERTEX
8
Halfen
62
7
10
 225
20
-15
30
0
0
SEQEND
8
Halfen
0
POLYLINE
8
Halfen
62
7
66
1
10
0.0
20
0.0
30
0.0
70
1
0
VERTEX
8
Halfen
62
7
10
 57.5
20
 221
30
0
0
VERTEX
8
Halfen
62
7
10
 57.5
20
 120
30
0
0
VERTEX
8
Halfen
62
7
10
 77.5
20
 120
30
0
0
VERTEX
8
Halfen
62
7
10
 77.5
20
 221
30
0
0
SEQEND
8
Halfen
0
POLYLINE
8
Halfen
62
7
66
1
10
0.0
20
0.0
30
0.0
70
1
0
VERTEX
8
Halfen
62
7
10
 57.5
20
-15
30
0
0
VERTEX
8
Halfen
62
7
10
 57.5
20
-33
30
0
0
VERTEX
8
Halfen
62
7
10
 77.5
20
-33
30
0
0
VERTEX
8
Halfen
62
7
10
 77.5
20
-15
30
0
0
SEQEND
8
Halfen
0
POLYLINE
8
Halfen
62
7
66
1
10
0.0
20
0.0
30
0.0
70
1
0
VERTEX
8
Halfen
62
7
10
 57.5
20
-60.4
30
0
0
VERTEX
8
Halfen
62
7
10
 57.5
20
-89
30
0
0
VERTEX
8
Halfen
62
7
10
 77.5
20
-89
30
0
0
VERTEX
8
Halfen
62
7
10
 77.5
20
-60.4
30
0
0
SEQEND
8
Halfen
0
POLYLINE
8
Halfen
62
7
66
1
10
0.0
20
0.0
30
0.0
70
1
0
VERTEX
8
Halfen
62
7
10
 77.5
20
 221
30
0
0
VERTEX
8
Halfen
62
7
10
 77.5
20
 1091
30
0
0
VERTEX
8
Halfen
62
7
10
 57.5
20
 1091
30
0
0
VERTEX
8
Halfen
62
7
10
 57.5
20
 221
30
0
0
SEQEND
8
Halfen
0
POLYLINE
8
Halfen
62
7
66
1
10
0.0
20
0.0
30
0.0
70
1
0
VERTEX
8
Halfen
62
7
10
 47
20
-41
30
0
0
VERTEX
8
Halfen
62
7
10
 88
20
-41
30
0
0
VERTEX
8
Halfen
62
7
10
 88
20
-33
30
0
0
VERTEX
8
Halfen
62
7
10
 47
20
-33
30
0
0
SEQEND
8
Halfen
0
POLYLINE
8
Halfen
62
7
66
1
10
0.0
20
0.0
30
0.0
70
1
0
VERTEX
8
Halfen
62
7
10
 50.5
20
-60.4
30
0
0
VERTEX
8
Halfen
62
7
10
 84.5
20
-60.4
30
0
0
VERTEX
8
Halfen
62
7
10
 84.5
20
-41
30
0
0
VERTEX
8
Halfen
62
7
10
 50.5
20
-41
30
0
0
SEQEND
8
Halfen
0
LINE
8
Halfen
62
7
10
 67.5
20
-60.4
30
 0
11
 67.5
21
-41
31
 0
0
ARC
8
Halfen
62
7
10
 59
20
-59.645
30
0
40
 18.645
50
 62.8780250549316
51
 117.121971130371
0
ARC
8
Halfen
62
7
10
 76
20
-59.645
30
0
40
 18.645
50
 62.8780250549316
51
 117.121971130371
0
ARC
8
Halfen
62
7
10
 59
20
-41.755
30
0
40
 18.645
50
 242.878021240234
51
 297.121978759766
0
ARC
8
Halfen
62
7
10
 76
20
-41.755
30
0
40
 18.645
50
 242.878021240234
51
 297.121978759766
0
POLYLINE
8
Halfen
62
7
66
1
10
0.0
20
0.0
30
0.0
70
1
0
VERTEX
8
Halfen
62
7
10
 172.5
20
 221
30
0
0
VERTEX
8
Halfen
62
7
10
 172.5
20
 120
30
0
0
VERTEX
8
Halfen
62
7
10
 192.5
20
 120
30
0
0
VERTEX
8
Halfen
62
7
10
 192.5
20
 221
30
0
0
SEQEND
8
Halfen
0
POLYLINE
8
Halfen
62
7
66
1
10
0.0
20
0.0
30
0.0
70
1
0
VERTEX
8
Halfen
62
7
10
 172.5
20
-15
30
0
0
VERTEX
8
Halfen
62
7
10
 172.5
20
-33
30
0
0
VERTEX
8
Halfen
62
7
10
 192.5
20
-33
30
0
0
VERTEX
8
Halfen
62
7
10
 192.5
20
-15
30
0
0
SEQEND
8
Halfen
0
POLYLINE
8
Halfen
62
7
66
1
10
0.0
20
0.0
30
0.0
70
1
0
VERTEX
8
Halfen
62
7
10
 172.5
20
-60.4
30
0
0
VERTEX
8
Halfen
62
7
10
 172.5
20
-89
30
0
0
VERTEX
8
Halfen
62
7
10
 192.5
20
-89
30
0
0
VERTEX
8
Halfen
62
7
10
 192.5
20
-60.4
30
0
0
SEQEND
8
Halfen
0
POLYLINE
8
Halfen
62
7
66
1
10
0.0
20
0.0
30
0.0
70
1
0
VERTEX
8
Halfen
62
7
10
 192.5
20
 221
30
0
0
VERTEX
8
Halfen
62
7
10
 192.5
20
 1091
30
0
0
VERTEX
8
Halfen
62
7
10
 172.5
20
 1091
30
0
0
VERTEX
8
Halfen
62
7
10
 172.5
20
 221
30
0
0
SEQEND
8
Halfen
0
POLYLINE
8
Halfen
62
7
66
1
10
0.0
20
0.0
30
0.0
70
1
0
VERTEX
8
Halfen
62
7
10
 162
20
-41
30
0
0
VERTEX
8
Halfen
62
7
10
 203
20
-41
30
0
0
VERTEX
8
Halfen
62
7
10
 203
20
-33
30
0
0
VERTEX
8
Halfen
62
7
10
 162
20
-33
30
0
0
SEQEND
8
Halfen
0
POLYLINE
8
Halfen
62
7
66
1
10
0.0
20
0.0
30
0.0
70
1
0
VERTEX
8
Halfen
62
7
10
 165.5
20
-60.4
30
0
0
VERTEX
8
Halfen
62
7
10
 199.5
20
-60.4
30
0
0
VERTEX
8
Halfen
62
7
10
 199.5
20
-41
30
0
0
VERTEX
8
Halfen
62
7
10
 165.5
20
-41
30
0
0
SEQEND
8
Halfen
0
LINE
8
Halfen
62
7
10
 182.5
20
-60.4
30
 0
11
 182.5
21
-41
31
 0
0
ARC
8
Halfen
62
7
10
 174
20
-59.645
30
0
40
 18.645
50
 62.8780250549316
51
 117.121971130371
0
ARC
8
Halfen
62
7
10
 191
20
-59.645
30
0
40
 18.645
50
 62.8780250549316
51
 117.121971130371
0
ARC
8
Halfen
62
7
10
 174
20
-41.755
30
0
40
 18.645
50
 242.878021240234
51
 297.121978759766
0
ARC
8
Halfen
62
7
10
 191
20
-41.755
30
0
40
 18.645
50
 242.878021240234
51
 297.121978759766
0
POLYLINE
8
Halfen
62
7
66
1
10
0.0
20
0.0
30
0.0
70
1
0
VERTEX
8
Halfen
62
7
10
 23
20
 729.813
30
0
0
VERTEX
8
Halfen
62
7
10
 23
20
 120
30
0
0
VERTEX
8
Halfen
62
7
10
 33
20
 120
30
0
0
VERTEX
8
Halfen
62
7
10
 33
20
 729.813
30
0
0
SEQEND
8
Halfen
0
POLYLINE
8
Halfen
62
7
66
1
10
0.0
20
0.0
30
0.0
70
1
0
VERTEX
8
Halfen
62
7
10
 217
20
 729.813
30
0
0
VERTEX
8
Halfen
62
7
10
 217
20
 120
30
0
0
VERTEX
8
Halfen
62
7
10
 227
20
 120
30
0
0
VERTEX
8
Halfen
62
7
10
 227
20
 729.813
30
0
0
SEQEND
8
Halfen
0
POLYLINE
8
Halfen
62
7
66
1
10
0.0
20
0.0
30
0.0
70
1
0
VERTEX
8
Halfen
62
7
10
 80
20
 221
30
0
0
VERTEX
8
Halfen
62
7
10
 80
20
 120
30
0
0
VERTEX
8
Halfen
62
7
10
 100
20
 120
30
0
0
VERTEX
8
Halfen
62
7
10
 100
20
 221
30
0
0
SEQEND
8
Halfen
0
POLYLINE
8
Halfen
62
7
66
1
10
0.0
20
0.0
30
0.0
70
1
0
VERTEX
8
Halfen
62
7
10
 80
20
 0
30
0
0
VERTEX
8
Halfen
62
7
10
 80
20
-5
30
0
0
VERTEX
8
Halfen
62
7
10
 100
20
-5
30
0
0
VERTEX
8
Halfen
62
7
10
 100
20
 0
30
0
0
SEQEND
8
Halfen
0
POLYLINE
8
Halfen
62
7
66
1
10
0.0
20
0.0
30
0.0
70
1
0
VERTEX
8
Halfen
62
7
10
 80
20
-15
30
0
0
VERTEX
8
Halfen
62
7
10
 80
20
-33
30
0
0
VERTEX
8
Halfen
62
7
10
 100
20
-33
30
0
0
VERTEX
8
Halfen
62
7
10
 100
20
-15
30
0
0
SEQEND
8
Halfen
0
POLYLINE
8
Halfen
62
7
66
1
10
0.0
20
0.0
30
0.0
70
1
0
VERTEX
8
Halfen
62
7
10
 80
20
-60.4
30
0
0
VERTEX
8
Halfen
62
7
10
 80
20
-89
30
0
0
VERTEX
8
Halfen
62
7
10
 100
20
-89
30
0
0
VERTEX
8
Halfen
62
7
10
 100
20
-60.4
30
0
0
SEQEND
8
Halfen
0
POLYLINE
8
Halfen
62
7
66
1
10
0.0
20
0.0
30
0.0
70
1
0
VERTEX
8
Halfen
62
7
10
 100
20
 221
30
0
0
VERTEX
8
Halfen
62
7
10
 100
20
 1846
30
0
0
VERTEX
8
Halfen
62
7
10
 80
20
 1846
30
0
0
VERTEX
8
Halfen
62
7
10
 80
20
 221
30
0
0
SEQEND
8
Halfen
0
POLYLINE
8
Halfen
62
7
66
1
10
0.0
20
0.0
30
0.0
70
1
0
VERTEX
8
Halfen
62
7
10
 69.5
20
-41
30
0
0
VERTEX
8
Halfen
62
7
10
 110.5
20
-41
30
0
0
VERTEX
8
Halfen
62
7
10
 110.5
20
-33
30
0
0
VERTEX
8
Halfen
62
7
10
 69.5
20
-33
30
0
0
SEQEND
8
Halfen
0
POLYLINE
8
Halfen
62
7
66
1
10
0.0
20
0.0
30
0.0
70
1
0
VERTEX
8
Halfen
62
7
10
 73
20
-60.4
30
0
0
VERTEX
8
Halfen
62
7
10
 107
20
-60.4
30
0
0
VERTEX
8
Halfen
62
7
10
 107
20
-41
30
0
0
VERTEX
8
Halfen
62
7
10
 73
20
-41
30
0
0
SEQEND
8
Halfen
0
LINE
8
Halfen
62
7
10
 90
20
-60.4
30
 0
11
 90
21
-41
31
 0
0
ARC
8
Halfen
62
7
10
 81.5
20
-59.645
30
0
40
 18.645
50
 62.8780250549316
51
 117.121971130371
0
ARC
8
Halfen
62
7
10
 98.5
20
-59.645
30
0
40
 18.645
50
 62.8780250549316
51
 117.121971130371
0
ARC
8
Halfen
62
7
10
 81.5
20
-41.755
30
0
40
 18.645
50
 242.878021240234
51
 297.121978759766
0
ARC
8
Halfen
62
7
10
 98.5
20
-41.755
30
0
40
 18.645
50
 242.878021240234
51
 297.121978759766
0
POLYLINE
8
Halfen
62
7
66
1
10
0.0
20
0.0
30
0.0
70
1
0
VERTEX
8
Halfen
62
7
10
 73
20
-15
30
0
0
VERTEX
8
Halfen
62
7
10
 107
20
-15
30
0
0
VERTEX
8
Halfen
62
7
10
 107
20
-5
30
0
0
VERTEX
8
Halfen
62
7
10
 73
20
-5
30
0
0
SEQEND
8
Halfen
0
LINE
8
Halfen
62
7
10
 90
20
-15
30
 0
11
 90
21
-5
31
 0
0
ARC
8
Halfen
62
7
10
 81.5
20
-22.515
30
0
40
 17.515
50
 60.9679794311523
51
 119.032020568848
0
ARC
8
Halfen
62
7
10
 98.5
20
-22.515
30
0
40
 17.515
50
 60.9679794311523
51
 119.032020568848
0
ARC
8
Halfen
62
7
10
 81.5
20
 2.515
30
0
40
 17.515
50
 240.967987060547
51
 299.032012939453
0
ARC
8
Halfen
62
7
10
 98.5
20
 2.515
30
0
40
 17.515
50
 240.967987060547
51
 299.032012939453
0
POLYLINE
8
Halfen
62
7
66
1
10
0.0
20
0.0
30
0.0
70
1
0
VERTEX
8
Halfen
62
7
10
 150
20
 221
30
0
0
VERTEX
8
Halfen
62
7
10
 150
20
 120
30
0
0
VERTEX
8
Halfen
62
7
10
 170
20
 120
30
0
0
VERTEX
8
Halfen
62
7
10
 170
20
 221
30
0
0
SEQEND
8
Halfen
0
POLYLINE
8
Halfen
62
7
66
1
10
0.0
20
0.0
30
0.0
70
1
0
VERTEX
8
Halfen
62
7
10
 150
20
 0
30
0
0
VERTEX
8
Halfen
62
7
10
 150
20
-5
30
0
0
VERTEX
8
Halfen
62
7
10
 170
20
-5
30
0
0
VERTEX
8
Halfen
62
7
10
 170
20
 0
30
0
0
SEQEND
8
Halfen
0
POLYLINE
8
Halfen
62
7
66
1
10
0.0
20
0.0
30
0.0
70
1
0
VERTEX
8
Halfen
62
7
10
 150
20
-15
30
0
0
VERTEX
8
Halfen
62
7
10
 150
20
-33
30
0
0
VERTEX
8
Halfen
62
7
10
 170
20
-33
30
0
0
VERTEX
8
Halfen
62
7
10
 170
20
-15
30
0
0
SEQEND
8
Halfen
0
POLYLINE
8
Halfen
62
7
66
1
10
0.0
20
0.0
30
0.0
70
1
0
VERTEX
8
Halfen
62
7
10
 150
20
-60.4
30
0
0
VERTEX
8
Halfen
62
7
10
 150
20
-89
30
0
0
VERTEX
8
Halfen
62
7
10
 170
20
-89
30
0
0
VERTEX
8
Halfen
62
7
10
 170
20
-60.4
30
0
0
SEQEND
8
Halfen
0
POLYLINE
8
Halfen
62
7
66
1
10
0.0
20
0.0
30
0.0
70
1
0
VERTEX
8
Halfen
62
7
10
 170
20
 221
30
0
0
VERTEX
8
Halfen
62
7
10
 170
20
 1846
30
0
0
VERTEX
8
Halfen
62
7
10
 150
20
 1846
30
0
0
VERTEX
8
Halfen
62
7
10
 150
20
 221
30
0
0
SEQEND
8
Halfen
0
POLYLINE
8
Halfen
62
7
66
1
10
0.0
20
0.0
30
0.0
70
1
0
VERTEX
8
Halfen
62
7
10
 139.5
20
-41
30
0
0
VERTEX
8
Halfen
62
7
10
 180.5
20
-41
30
0
0
VERTEX
8
Halfen
62
7
10
 180.5
20
-33
30
0
0
VERTEX
8
Halfen
62
7
10
 139.5
20
-33
30
0
0
SEQEND
8
Halfen
0
POLYLINE
8
Halfen
62
7
66
1
10
0.0
20
0.0
30
0.0
70
1
0
VERTEX
8
Halfen
62
7
10
 143
20
-60.4
30
0
0
VERTEX
8
Halfen
62
7
10
 177
20
-60.4
30
0
0
VERTEX
8
Halfen
62
7
10
 177
20
-41
30
0
0
VERTEX
8
Halfen
62
7
10
 143
20
-41
30
0
0
SEQEND
8
Halfen
0
LINE
8
Halfen
62
7
10
 160
20
-60.4
30
 0
11
 160
21
-41
31
 0
0
ARC
8
Halfen
62
7
10
 151.5
20
-59.645
30
0
40
 18.645
50
 62.8780250549316
51
 117.121971130371
0
ARC
8
Halfen
62
7
10
 168.5
20
-59.645
30
0
40
 18.645
50
 62.8780250549316
51
 117.121971130371
0
ARC
8
Halfen
62
7
10
 151.5
20
-41.755
30
0
40
 18.645
50
 242.878021240234
51
 297.121978759766
0
ARC
8
Halfen
62
7
10
 168.5
20
-41.755
30
0
40
 18.645
50
 242.878021240234
51
 297.121978759766
0
POLYLINE
8
Halfen
62
7
66
1
10
0.0
20
0.0
30
0.0
70
1
0
VERTEX
8
Halfen
62
7
10
 143
20
-15
30
0
0
VERTEX
8
Halfen
62
7
10
 177
20
-15
30
0
0
VERTEX
8
Halfen
62
7
10
 177
20
-5
30
0
0
VERTEX
8
Halfen
62
7
10
 143
20
-5
30
0
0
SEQEND
8
Halfen
0
LINE
8
Halfen
62
7
10
 160
20
-15
30
 0
11
 160
21
-5
31
 0
0
ARC
8
Halfen
62
7
10
 151.5
20
-22.515
30
0
40
 17.515
50
 60.9679794311523
51
 119.032020568848
0
ARC
8
Halfen
62
7
10
 168.5
20
-22.515
30
0
40
 17.515
50
 60.9679794311523
51
 119.032020568848
0
ARC
8
Halfen
62
7
10
 151.5
20
 2.515
30
0
40
 17.515
50
 240.967987060547
51
 299.032012939453
0
ARC
8
Halfen
62
7
10
 168.5
20
 2.515
30
0
40
 17.515
50
 240.967987060547
51
 299.032012939453
0
POLYLINE
8
Halfen
62
7
66
1
10
0.0
20
0.0
30
0.0
70
1
0
VERTEX
8
Halfen
62
7
10
 0
20
-419
30
0
0
VERTEX
8
Halfen
62
7
10
 120
20
-419
30
0
0
VERTEX
8
Halfen
62
7
10
 120
20
-139
30
0
0
VERTEX
8
Halfen
62
7
10
 0
20
-139
30
0
0
SEQEND
8
Halfen
0
POLYLINE
8
Halfen
62
7
66
1
10
0.0
20
0.0
30
0.0
70
1
0
VERTEX
8
Halfen
62
7
10
-15
20
-405
30
0
0
VERTEX
8
Halfen
62
7
10
 0
20
-405
30
0
0
VERTEX
8
Halfen
62
7
10
 0
20
-351
30
0
0
VERTEX
8
Halfen
62
7
10
-11
20
-351
30
0
0
VERTEX
8
Halfen
62
7
10
-15
20
-355
30
0
0
SEQEND
8
Halfen
0
POLYLINE
8
Halfen
62
7
66
1
10
0.0
20
0.0
30
0.0
70
1
0
VERTEX
8
Halfen
62
7
10
 221
20
-373
30
0
0
VERTEX
8
Halfen
62
7
10
 120
20
-373
30
0
0
VERTEX
8
Halfen
62
7
10
 120
20
-393
30
0
0
VERTEX
8
Halfen
62
7
10
 221
20
-393
30
0
0
SEQEND
8
Halfen
0
POLYLINE
8
Halfen
62
7
66
1
10
0.0
20
0.0
30
0.0
70
1
0
VERTEX
8
Halfen
62
7
10
-15
20
-373
30
0
0
VERTEX
8
Halfen
62
7
10
-33
20
-373
30
0
0
VERTEX
8
Halfen
62
7
10
-33
20
-393
30
0
0
VERTEX
8
Halfen
62
7
10
-15
20
-393
30
0
0
SEQEND
8
Halfen
0
POLYLINE
8
Halfen
62
7
66
1
10
0.0
20
0.0
30
0.0
70
1
0
VERTEX
8
Halfen
62
7
10
-60.4
20
-373
30
0
0
VERTEX
8
Halfen
62
7
10
-89
20
-373
30
0
0
VERTEX
8
Halfen
62
7
10
-89
20
-393
30
0
0
VERTEX
8
Halfen
62
7
10
-60.4
20
-393
30
0
0
SEQEND
8
Halfen
0
POLYLINE
8
Halfen
62
7
66
1
10
0.0
20
0.0
30
0.0
70
1
0
VERTEX
8
Halfen
62
7
10
 221
20
-393
30
0
0
VERTEX
8
Halfen
62
7
10
 1091
20
-393
30
0
0
VERTEX
8
Halfen
62
7
10
 1091
20
-373
30
0
0
VERTEX
8
Halfen
62
7
10
 221
20
-373
30
0
0
SEQEND
8
Halfen
0
POLYLINE
8
Halfen
62
7
66
1
10
0.0
20
0.0
30
0.0
70
1
0
VERTEX
8
Halfen
62
7
10
-41
20
-403.5
30
0
0
VERTEX
8
Halfen
62
7
10
-33
20
-403.5
30
0
0
VERTEX
8
Halfen
62
7
10
-33
20
-362.5
30
0
0
VERTEX
8
Halfen
62
7
10
-41
20
-362.5
30
0
0
SEQEND
8
Halfen
0
POLYLINE
8
Halfen
62
7
66
1
10
0.0
20
0.0
30
0.0
70
1
0
VERTEX
8
Halfen
62
7
10
-58.621
20
-401.645
30
0
0
VERTEX
8
Halfen
62
7
10
-42.779
20
-401.645
30
0
0
VERTEX
8
Halfen
62
7
10
-41
20
-399.866
30
0
0
VERTEX
8
Halfen
62
7
10
-41
20
-366.134
30
0
0
VERTEX
8
Halfen
62
7
10
-42.779
20
-364.355
30
0
0
VERTEX
8
Halfen
62
7
10
-58.621
20
-364.355
30
0
0
VERTEX
8
Halfen
62
7
10
-60.4
20
-366.134
30
0
0
VERTEX
8
Halfen
62
7
10
-60.4
20
-399.866
30
0
0
SEQEND
8
Halfen
0
LINE
8
Halfen
62
7
10
-60.4
20
-373.185
30
 0
11
-41
21
-373.185
31
 0
0
LINE
8
Halfen
62
7
10
-60.4
20
-392.815
30
 0
11
-41
21
-392.815
31
 0
0
ARC
8
Halfen
62
7
10
-68.968
20
-383
30
0
40
 27.968
50
-20.544921875
51
 20.5449085235596
0
ARC
8
Halfen
62
7
10
-32.432
20
-383
30
0
40
 27.968
50
 159.455093383789
51
 200.544906616211
0
ARC
8
Halfen
62
7
10
-48.659
20
-369.262
30
0
40
 7.659
50
-39.8479614257813
51
 39.8479614257813
0
ARC
8
Halfen
62
7
10
-48.659
20
-396.738
30
0
40
 7.659
50
-39.8479614257813
51
 39.8479614257813
0
ARC
8
Halfen
62
7
10
-52.741
20
-396.738
30
0
40
 7.659
50
 140.152038574219
51
 219.847961425781
0
ARC
8
Halfen
62
7
10
-52.741
20
-369.262
30
0
40
 7.659
50
 140.152038574219
51
 219.847961425781
0
POLYLINE
8
Halfen
62
7
66
1
10
0.0
20
0.0
30
0.0
70
1
0
VERTEX
8
Halfen
62
7
10
 221
20
-165
30
0
0
VERTEX
8
Halfen
62
7
10
 120
20
-165
30
0
0
VERTEX
8
Halfen
62
7
10
 120
20
-185
30
0
0
VERTEX
8
Halfen
62
7
10
 221
20
-185
30
0
0
SEQEND
8
Halfen
0
POLYLINE
8
Halfen
62
7
66
1
10
0.0
20
0.0
30
0.0
70
1
0
VERTEX
8
Halfen
62
7
10
 0
20
-165
30
0
0
VERTEX
8
Halfen
62
7
10
-5
20
-165
30
0
0
VERTEX
8
Halfen
62
7
10
-5
20
-185
30
0
0
VERTEX
8
Halfen
62
7
10
 0
20
-185
30
0
0
SEQEND
8
Halfen
0
POLYLINE
8
Halfen
62
7
66
1
10
0.0
20
0.0
30
0.0
70
1
0
VERTEX
8
Halfen
62
7
10
-15
20
-165
30
0
0
VERTEX
8
Halfen
62
7
10
-33
20
-165
30
0
0
VERTEX
8
Halfen
62
7
10
-33
20
-185
30
0
0
VERTEX
8
Halfen
62
7
10
-15
20
-185
30
0
0
SEQEND
8
Halfen
0
POLYLINE
8
Halfen
62
7
66
1
10
0.0
20
0.0
30
0.0
70
1
0
VERTEX
8
Halfen
62
7
10
-60.4
20
-165
30
0
0
VERTEX
8
Halfen
62
7
10
-89
20
-165
30
0
0
VERTEX
8
Halfen
62
7
10
-89
20
-185
30
0
0
VERTEX
8
Halfen
62
7
10
-60.4
20
-185
30
0
0
SEQEND
8
Halfen
0
POLYLINE
8
Halfen
62
7
66
1
10
0.0
20
0.0
30
0.0
70
1
0
VERTEX
8
Halfen
62
7
10
 221
20
-185
30
0
0
VERTEX
8
Halfen
62
7
10
 1846
20
-185
30
0
0
VERTEX
8
Halfen
62
7
10
 1846
20
-165
30
0
0
VERTEX
8
Halfen
62
7
10
 221
20
-165
30
0
0
SEQEND
8
Halfen
0
POLYLINE
8
Halfen
62
7
66
1
10
0.0
20
0.0
30
0.0
70
1
0
VERTEX
8
Halfen
62
7
10
-41
20
-195.5
30
0
0
VERTEX
8
Halfen
62
7
10
-33
20
-195.5
30
0
0
VERTEX
8
Halfen
62
7
10
-33
20
-154.5
30
0
0
VERTEX
8
Halfen
62
7
10
-41
20
-154.5
30
0
0
SEQEND
8
Halfen
0
POLYLINE
8
Halfen
62
7
66
1
10
0.0
20
0.0
30
0.0
70
1
0
VERTEX
8
Halfen
62
7
10
-58.621
20
-193.645
30
0
0
VERTEX
8
Halfen
62
7
10
-42.779
20
-193.645
30
0
0
VERTEX
8
Halfen
62
7
10
-41
20
-191.866
30
0
0
VERTEX
8
Halfen
62
7
10
-41
20
-158.134
30
0
0
VERTEX
8
Halfen
62
7
10
-42.779
20
-156.355
30
0
0
VERTEX
8
Halfen
62
7
10
-58.621
20
-156.355
30
0
0
VERTEX
8
Halfen
62
7
10
-60.4
20
-158.134
30
0
0
VERTEX
8
Halfen
62
7
10
-60.4
20
-191.866
30
0
0
SEQEND
8
Halfen
0
LINE
8
Halfen
62
7
10
-60.4
20
-165.185
30
 0
11
-41
21
-165.185
31
 0
0
LINE
8
Halfen
62
7
10
-60.4
20
-184.815
30
 0
11
-41
21
-184.815
31
 0
0
ARC
8
Halfen
62
7
10
-68.968
20
-175
30
0
40
 27.968
50
-20.544921875
51
 20.5449085235596
0
ARC
8
Halfen
62
7
10
-32.432
20
-175
30
0
40
 27.968
50
 159.455093383789
51
 200.544906616211
0
ARC
8
Halfen
62
7
10
-48.659
20
-161.262
30
0
40
 7.659
50
-39.8479614257813
51
 39.8479614257813
0
ARC
8
Halfen
62
7
10
-48.659
20
-188.738
30
0
40
 7.659
50
-39.8479614257813
51
 39.8479614257813
0
ARC
8
Halfen
62
7
10
-52.741
20
-188.738
30
0
40
 7.659
50
 140.152038574219
51
 219.847961425781
0
ARC
8
Halfen
62
7
10
-52.741
20
-161.262
30
0
40
 7.659
50
 140.152038574219
51
 219.847961425781
0
POLYLINE
8
Halfen
62
7
66
1
10
0.0
20
0.0
30
0.0
70
1
0
VERTEX
8
Halfen
62
7
10
-13.098
20
-192.515
30
0
0
VERTEX
8
Halfen
62
7
10
-6.902
20
-192.515
30
0
0
VERTEX
8
Halfen
62
7
10
-5
20
-190.613
30
0
0
VERTEX
8
Halfen
62
7
10
-5
20
-159.387
30
0
0
VERTEX
8
Halfen
62
7
10
-6.902
20
-157.485
30
0
0
VERTEX
8
Halfen
62
7
10
-13.098
20
-157.485
30
0
0
VERTEX
8
Halfen
62
7
10
-15
20
-159.387
30
0
0
VERTEX
8
Halfen
62
7
10
-15
20
-190.613
30
0
0
SEQEND
8
Halfen
0
LINE
8
Halfen
62
7
10
-15
20
-165.185
30
 0
11
-5
21
-165.185
31
 0
0
LINE
8
Halfen
62
7
10
-15
20
-184.815
30
 0
11
-5
21
-184.815
31
 0
0
ARC
8
Halfen
62
7
10
-31.272
20
-175
30
0
40
 26.272
50
-21.9367370605469
51
 21.9367485046387
0
ARC
8
Halfen
62
7
10
 11.272
20
-175
30
0
40
 26.272
50
 158.063247680664
51
 201.936752319336
0
ARC
8
Halfen
62
7
10
-12.281
20
-162.392
30
0
40
 7.281
50
-42.3741760253906
51
 42.3741645812988
0
ARC
8
Halfen
62
7
10
-12.281
20
-187.608
30
0
40
 7.281
50
-42.3741760253906
51
 42.3741645812988
0
ARC
8
Halfen
62
7
10
-7.719
20
-187.608
30
0
40
 7.281
50
 137.625839233398
51
 222.374160766602
0
ARC
8
Halfen
62
7
10
-7.719
20
-162.392
30
0
40
 7.281
50
 137.625839233398
51
 222.374160766602
0
POLYLINE
8
Halfen
62
7
66
1
10
0.0
20
0.0
30
0.0
70
1
0
VERTEX
8
Halfen
62
7
10
 729.813
20
-166.83
30
0
0
VERTEX
8
Halfen
62
7
10
 295.552
20
-166.83
30
0
0
VERTEX
8
Halfen
62
7
10
 288.606
20
-167.438
30
0
0
VERTEX
8
Halfen
62
7
10
 281.871
20
-169.243
30
0
0
VERTEX
8
Halfen
62
7
10
 275.552
20
-172.189
30
0
0
VERTEX
8
Halfen
62
7
10
 269.84
20
-176.188
30
0
0
VERTEX
8
Halfen
62
7
10
 120
20
-301.919
30
0
0
VERTEX
8
Halfen
62
7
10
 120
20
-314.973
30
0
0
VERTEX
8
Halfen
62
7
10
 276.268
20
-183.849
30
0
0
VERTEX
8
Halfen
62
7
10
 280.552
20
-180.849
30
0
0
VERTEX
8
Halfen
62
7
10
 285.291
20
-178.639
30
0
0
VERTEX
8
Halfen
62
7
10
 290.342
20
-177.286
30
0
0
VERTEX
8
Halfen
62
7
10
 295.552
20
-176.83
30
0
0
VERTEX
8
Halfen
62
7
10
 729.813
20
-176.83
30
0
0
SEQEND
8
Halfen
0
POLYLINE
8
Halfen
62
7
66
1
10
0.0
20
0.0
30
0.0
70
1
0
VERTEX
8
Halfen
62
7
10
 0
20
-749
30
0
0
VERTEX
8
Halfen
62
7
10
 250
20
-749
30
0
0
VERTEX
8
Halfen
62
7
10
 250
20
-469
30
0
0
VERTEX
8
Halfen
62
7
10
 0
20
-469
30
0
0
SEQEND
8
Halfen
0
POLYLINE
8
Halfen
62
7
66
1
10
0.0
20
0.0
30
0.0
70
1
0
VERTEX
8
Halfen
62
7
10
 25
20
-730
30
0
0
VERTEX
8
Halfen
62
7
10
 25.096
20
-730.975
30
0
0
VERTEX
8
Halfen
62
7
10
 25.381
20
-731.913
30
0
0
VERTEX
8
Halfen
62
7
10
 25.843
20
-732.778
30
0
0
VERTEX
8
Halfen
62
7
10
 26.464
20
-733.536
30
0
0
VERTEX
8
Halfen
62
7
10
 27.222
20
-734.157
30
0
0
VERTEX
8
Halfen
62
7
10
 28.087
20
-734.619
30
0
0
VERTEX
8
Halfen
62
7
10
 29.025
20
-734.904
30
0
0
VERTEX
8
Halfen
62
7
10
 30
20
-735
30
0
0
VERTEX
8
Halfen
62
7
10
 220
20
-735
30
0
0
VERTEX
8
Halfen
62
7
10
 220.975
20
-734.904
30
0
0
VERTEX
8
Halfen
62
7
10
 221.913
20
-734.619
30
0
0
VERTEX
8
Halfen
62
7
10
 222.778
20
-734.157
30
0
0
VERTEX
8
Halfen
62
7
10
 223.536
20
-733.536
30
0
0
VERTEX
8
Halfen
62
7
10
 224.157
20
-732.778
30
0
0
VERTEX
8
Halfen
62
7
10
 224.619
20
-731.913
30
0
0
VERTEX
8
Halfen
62
7
10
 224.904
20
-730.975
30
0
0
VERTEX
8
Halfen
62
7
10
 225
20
-730
30
0
0
VERTEX
8
Halfen
62
7
10
 225
20
-686
30
0
0
VERTEX
8
Halfen
62
7
10
 224.904
20
-685.025
30
0
0
VERTEX
8
Halfen
62
7
10
 224.619
20
-684.087
30
0
0
VERTEX
8
Halfen
62
7
10
 224.157
20
-683.222
30
0
0
VERTEX
8
Halfen
62
7
10
 223.536
20
-682.464
30
0
0
VERTEX
8
Halfen
62
7
10
 222.778
20
-681.843
30
0
0
VERTEX
8
Halfen
62
7
10
 221.913
20
-681.381
30
0
0
VERTEX
8
Halfen
62
7
10
 220.975
20
-681.096
30
0
0
VERTEX
8
Halfen
62
7
10
 220
20
-681
30
0
0
VERTEX
8
Halfen
62
7
10
 30
20
-681
30
0
0
VERTEX
8
Halfen
62
7
10
 29.025
20
-681.096
30
0
0
VERTEX
8
Halfen
62
7
10
 28.087
20
-681.381
30
0
0
VERTEX
8
Halfen
62
7
10
 27.222
20
-681.843
30
0
0
VERTEX
8
Halfen
62
7
10
 26.464
20
-682.464
30
0
0
VERTEX
8
Halfen
62
7
10
 25.843
20
-683.222
30
0
0
VERTEX
8
Halfen
62
7
10
 25.381
20
-684.087
30
0
0
VERTEX
8
Halfen
62
7
10
 25.096
20
-685.025
30
0
0
VERTEX
8
Halfen
62
7
10
 25
20
-686
30
0
0
SEQEND
8
Halfen
0
LINE
8
Halfen
62
7
10
 25.101
20
-685
30
 0
11
 224.899
21
-685
31
 0
0
POLYLINE
8
Halfen
62
7
66
1
10
0.0
20
0.0
30
0.0
70
1
0
VERTEX
8
Halfen
62
7
10
 48.04
20
-696.763
30
0
0
VERTEX
8
Halfen
62
7
10
 45.837
20
-696.874
30
0
0
VERTEX
8
Halfen
62
7
10
 43.698
20
-697.412
30
0
0
VERTEX
8
Halfen
62
7
10
 41.706
20
-698.357
30
0
0
VERTEX
8
Halfen
62
7
10
 39.936
20
-699.673
30
0
0
VERTEX
8
Halfen
62
7
10
 38.457
20
-701.308
30
0
0
VERTEX
8
Halfen
62
7
10
 37.325
20
-703.201
30
0
0
VERTEX
8
Halfen
62
7
10
 36.584
20
-705.278
30
0
0
VERTEX
8
Halfen
62
7
10
 36.263
20
-707.46
30
0
0
VERTEX
8
Halfen
62
7
10
 36.374
20
-709.663
30
0
0
VERTEX
8
Halfen
62
7
10
 36.912
20
-711.802
30
0
0
VERTEX
8
Halfen
62
7
10
 37.857
20
-713.794
30
0
0
VERTEX
8
Halfen
62
7
10
 39.173
20
-715.564
30
0
0
VERTEX
8
Halfen
62
7
10
 40.808
20
-717.043
30
0
0
VERTEX
8
Halfen
62
7
10
 42.701
20
-718.175
30
0
0
VERTEX
8
Halfen
62
7
10
 44.778
20
-718.916
30
0
0
VERTEX
8
Halfen
62
7
10
 48.173
20
-719.762
30
0
0
VERTEX
8
Halfen
62
7
10
 47.883
20
-718.951
30
0
0
VERTEX
8
Halfen
62
7
10
 47.394
20
-716.999
30
0
0
VERTEX
8
Halfen
62
7
10
 47.099
20
-715.009
30
0
0
VERTEX
8
Halfen
62
7
10
 47
20
-713
30
0
0
VERTEX
8
Halfen
62
7
10
 47.099
20
-710.991
30
0
0
VERTEX
8
Halfen
62
7
10
 47.394
20
-709.001
30
0
0
VERTEX
8
Halfen
62
7
10
 47.883
20
-707.049
30
0
0
VERTEX
8
Halfen
62
7
10
 48.56
20
-705.155
30
0
0
VERTEX
8
Halfen
62
7
10
 49.421
20
-703.336
30
0
0
VERTEX
8
Halfen
62
7
10
 50.455
20
-701.611
30
0
0
VERTEX
8
Halfen
62
7
10
 51.653
20
-699.995
30
0
0
VERTEX
8
Halfen
62
7
10
 53.004
20
-698.504
30
0
0
VERTEX
8
Halfen
62
7
10
 53.633
20
-697.935
30
0
0
VERTEX
8
Halfen
62
7
10
 50.222
20
-697.084
30
0
0
SEQEND
8
Halfen
0
POLYLINE
8
Halfen
62
7
66
1
10
0.0
20
0.0
30
0.0
70
1
0
VERTEX
8
Halfen
62
7
10
 86.816
20
-706.208
30
0
0
VERTEX
8
Halfen
62
7
10
 87.117
20
-707.049
30
0
0
VERTEX
8
Halfen
62
7
10
 87.606
20
-709.001
30
0
0
VERTEX
8
Halfen
62
7
10
 87.901
20
-710.991
30
0
0
VERTEX
8
Halfen
62
7
10
 88
20
-713
30
0
0
VERTEX
8
Halfen
62
7
10
 87.901
20
-715.009
30
0
0
VERTEX
8
Halfen
62
7
10
 87.606
20
-716.999
30
0
0
VERTEX
8
Halfen
62
7
10
 87.117
20
-718.951
30
0
0
VERTEX
8
Halfen
62
7
10
 86.44
20
-720.845
30
0
0
VERTEX
8
Halfen
62
7
10
 85.579
20
-722.664
30
0
0
VERTEX
8
Halfen
62
7
10
 84.545
20
-724.389
30
0
0
VERTEX
8
Halfen
62
7
10
 83.347
20
-726.005
30
0
0
VERTEX
8
Halfen
62
7
10
 81.996
20
-727.496
30
0
0
VERTEX
8
Halfen
62
7
10
 81.39
20
-728.044
30
0
0
VERTEX
8
Halfen
62
7
10
 84.778
20
-728.889
30
0
0
VERTEX
8
Halfen
62
7
10
 86.96
20
-729.21
30
0
0
VERTEX
8
Halfen
62
7
10
 89.163
20
-729.1
30
0
0
VERTEX
8
Halfen
62
7
10
 91.302
20
-728.561
30
0
0
VERTEX
8
Halfen
62
7
10
 93.294
20
-727.616
30
0
0
VERTEX
8
Halfen
62
7
10
 95.064
20
-726.301
30
0
0
VERTEX
8
Halfen
62
7
10
 96.543
20
-724.665
30
0
0
VERTEX
8
Halfen
62
7
10
 97.675
20
-722.772
30
0
0
VERTEX
8
Halfen
62
7
10
 98.416
20
-720.695
30
0
0
VERTEX
8
Halfen
62
7
10
 98.737
20
-718.513
30
0
0
VERTEX
8
Halfen
62
7
10
 98.626
20
-716.31
30
0
0
VERTEX
8
Halfen
62
7
10
 98.088
20
-714.172
30
0
0
VERTEX
8
Halfen
62
7
10
 97.143
20
-712.179
30
0
0
VERTEX
8
Halfen
62
7
10
 95.827
20
-710.409
30
0
0
VERTEX
8
Halfen
62
7
10
 94.192
20
-708.93
30
0
0
VERTEX
8
Halfen
62
7
10
 92.299
20
-707.798
30
0
0
VERTEX
8
Halfen
62
7
10
 90.222
20
-707.057
30
0
0
SEQEND
8
Halfen
0
POLYLINE
8
Halfen
62
7
66
1
10
0.0
20
0.0
30
0.0
70
1
0
VERTEX
8
Halfen
62
7
10
 163.04
20
-696.763
30
0
0
VERTEX
8
Halfen
62
7
10
 160.837
20
-696.874
30
0
0
VERTEX
8
Halfen
62
7
10
 158.698
20
-697.412
30
0
0
VERTEX
8
Halfen
62
7
10
 156.706
20
-698.357
30
0
0
VERTEX
8
Halfen
62
7
10
 154.936
20
-699.673
30
0
0
VERTEX
8
Halfen
62
7
10
 153.457
20
-701.308
30
0
0
VERTEX
8
Halfen
62
7
10
 152.325
20
-703.201
30
0
0
VERTEX
8
Halfen
62
7
10
 151.584
20
-705.278
30
0
0
VERTEX
8
Halfen
62
7
10
 151.263
20
-707.46
30
0
0
VERTEX
8
Halfen
62
7
10
 151.374
20
-709.663
30
0
0
VERTEX
8
Halfen
62
7
10
 151.912
20
-711.802
30
0
0
VERTEX
8
Halfen
62
7
10
 152.857
20
-713.794
30
0
0
VERTEX
8
Halfen
62
7
10
 154.173
20
-715.564
30
0
0
VERTEX
8
Halfen
62
7
10
 155.808
20
-717.043
30
0
0
VERTEX
8
Halfen
62
7
10
 157.701
20
-718.175
30
0
0
VERTEX
8
Halfen
62
7
10
 159.778
20
-718.916
30
0
0
VERTEX
8
Halfen
62
7
10
 163.173
20
-719.762
30
0
0
VERTEX
8
Halfen
62
7
10
 162.883
20
-718.951
30
0
0
VERTEX
8
Halfen
62
7
10
 162.394
20
-716.999
30
0
0
VERTEX
8
Halfen
62
7
10
 162.099
20
-715.009
30
0
0
VERTEX
8
Halfen
62
7
10
 162
20
-713
30
0
0
VERTEX
8
Halfen
62
7
10
 162.099
20
-710.991
30
0
0
VERTEX
8
Halfen
62
7
10
 162.394
20
-709.001
30
0
0
VERTEX
8
Halfen
62
7
10
 162.883
20
-707.049
30
0
0
VERTEX
8
Halfen
62
7
10
 163.56
20
-705.155
30
0
0
VERTEX
8
Halfen
62
7
10
 164.421
20
-703.336
30
0
0
VERTEX
8
Halfen
62
7
10
 165.455
20
-701.611
30
0
0
VERTEX
8
Halfen
62
7
10
 166.653
20
-699.995
30
0
0
VERTEX
8
Halfen
62
7
10
 168.004
20
-698.504
30
0
0
VERTEX
8
Halfen
62
7
10
 168.633
20
-697.935
30
0
0
VERTEX
8
Halfen
62
7
10
 165.222
20
-697.084
30
0
0
SEQEND
8
Halfen
0
POLYLINE
8
Halfen
62
7
66
1
10
0.0
20
0.0
30
0.0
70
1
0
VERTEX
8
Halfen
62
7
10
 201.816
20
-706.208
30
0
0
VERTEX
8
Halfen
62
7
10
 202.117
20
-707.049
30
0
0
VERTEX
8
Halfen
62
7
10
 202.606
20
-709.001
30
0
0
VERTEX
8
Halfen
62
7
10
 202.901
20
-710.991
30
0
0
VERTEX
8
Halfen
62
7
10
 203
20
-713
30
0
0
VERTEX
8
Halfen
62
7
10
 202.901
20
-715.009
30
0
0
VERTEX
8
Halfen
62
7
10
 202.606
20
-716.999
30
0
0
VERTEX
8
Halfen
62
7
10
 202.117
20
-718.951
30
0
0
VERTEX
8
Halfen
62
7
10
 201.44
20
-720.845
30
0
0
VERTEX
8
Halfen
62
7
10
 200.579
20
-722.664
30
0
0
VERTEX
8
Halfen
62
7
10
 199.545
20
-724.389
30
0
0
VERTEX
8
Halfen
62
7
10
 198.347
20
-726.005
30
0
0
VERTEX
8
Halfen
62
7
10
 196.996
20
-727.496
30
0
0
VERTEX
8
Halfen
62
7
10
 196.39
20
-728.044
30
0
0
VERTEX
8
Halfen
62
7
10
 199.778
20
-728.889
30
0
0
VERTEX
8
Halfen
62
7
10
 201.96
20
-729.21
30
0
0
VERTEX
8
Halfen
62
7
10
 204.163
20
-729.1
30
0
0
VERTEX
8
Halfen
62
7
10
 206.302
20
-728.561
30
0
0
VERTEX
8
Halfen
62
7
10
 208.294
20
-727.616
30
0
0
VERTEX
8
Halfen
62
7
10
 210.064
20
-726.301
30
0
0
VERTEX
8
Halfen
62
7
10
 211.543
20
-724.665
30
0
0
VERTEX
8
Halfen
62
7
10
 212.675
20
-722.772
30
0
0
VERTEX
8
Halfen
62
7
10
 213.416
20
-720.695
30
0
0
VERTEX
8
Halfen
62
7
10
 213.737
20
-718.513
30
0
0
VERTEX
8
Halfen
62
7
10
 213.626
20
-716.31
30
0
0
VERTEX
8
Halfen
62
7
10
 213.088
20
-714.172
30
0
0
VERTEX
8
Halfen
62
7
10
 212.143
20
-712.179
30
0
0
VERTEX
8
Halfen
62
7
10
 210.827
20
-710.409
30
0
0
VERTEX
8
Halfen
62
7
10
 209.192
20
-708.93
30
0
0
VERTEX
8
Halfen
62
7
10
 207.299
20
-707.798
30
0
0
VERTEX
8
Halfen
62
7
10
 205.222
20
-707.057
30
0
0
SEQEND
8
Halfen
0
POLYLINE
8
Halfen
62
7
66
1
10
0.0
20
0.0
30
0.0
70
1
0
VERTEX
8
Halfen
62
7
10
 114.5
20
-718
30
0
0
VERTEX
8
Halfen
62
7
10
 123
20
-718
30
0
0
VERTEX
8
Halfen
62
7
10
 123
20
-716
30
0
0
VERTEX
8
Halfen
62
7
10
 116.5
20
-716
30
0
0
VERTEX
8
Halfen
62
7
10
 116.5
20
-700
30
0
0
VERTEX
8
Halfen
62
7
10
 133.5
20
-700
30
0
0
VERTEX
8
Halfen
62
7
10
 133.5
20
-716
30
0
0
VERTEX
8
Halfen
62
7
10
 127
20
-716
30
0
0
VERTEX
8
Halfen
62
7
10
 127
20
-718
30
0
0
VERTEX
8
Halfen
62
7
10
 135.5
20
-718
30
0
0
VERTEX
8
Halfen
62
7
10
 135.5
20
-698
30
0
0
VERTEX
8
Halfen
62
7
10
 114.5
20
-698
30
0
0
SEQEND
8
Halfen
0
POLYLINE
8
Halfen
62
7
66
1
10
0.0
20
0.0
30
0.0
70
1
0
VERTEX
8
Halfen
62
7
10
 118.5
20
-714
30
0
0
VERTEX
8
Halfen
62
7
10
 123
20
-714
30
0
0
VERTEX
8
Halfen
62
7
10
 123
20
-710
30
0
0
VERTEX
8
Halfen
62
7
10
 127
20
-710
30
0
0
VERTEX
8
Halfen
62
7
10
 127
20
-714
30
0
0
VERTEX
8
Halfen
62
7
10
 131.5
20
-714
30
0
0
VERTEX
8
Halfen
62
7
10
 131.5
20
-702
30
0
0
VERTEX
8
Halfen
62
7
10
 127
20
-702
30
0
0
VERTEX
8
Halfen
62
7
10
 127
20
-706
30
0
0
VERTEX
8
Halfen
62
7
10
 123
20
-706
30
0
0
VERTEX
8
Halfen
62
7
10
 123
20
-702
30
0
0
VERTEX
8
Halfen
62
7
10
 118.5
20
-702
30
0
0
SEQEND
8
Halfen
0
POLYLINE
8
Halfen
62
7
66
1
10
0.0
20
0.0
30
0.0
70
1
0
VERTEX
8
Halfen
62
7
10
 88
20
-713
30
0
0
VERTEX
8
Halfen
62
7
10
 87.606
20
-709.001
30
0
0
VERTEX
8
Halfen
62
7
10
 86.44
20
-705.155
30
0
0
VERTEX
8
Halfen
62
7
10
 84.545
20
-701.611
30
0
0
VERTEX
8
Halfen
62
7
10
 81.996
20
-698.504
30
0
0
VERTEX
8
Halfen
62
7
10
 78.889
20
-695.955
30
0
0
VERTEX
8
Halfen
62
7
10
 75.345
20
-694.06
30
0
0
VERTEX
8
Halfen
62
7
10
 71.499
20
-692.894
30
0
0
VERTEX
8
Halfen
62
7
10
 67.5
20
-692.5
30
0
0
VERTEX
8
Halfen
62
7
10
 63.501
20
-692.894
30
0
0
VERTEX
8
Halfen
62
7
10
 59.655
20
-694.06
30
0
0
VERTEX
8
Halfen
62
7
10
 56.111
20
-695.955
30
0
0
VERTEX
8
Halfen
62
7
10
 53.004
20
-698.504
30
0
0
VERTEX
8
Halfen
62
7
10
 50.455
20
-701.611
30
0
0
VERTEX
8
Halfen
62
7
10
 48.56
20
-705.155
30
0
0
VERTEX
8
Halfen
62
7
10
 47.394
20
-709.001
30
0
0
VERTEX
8
Halfen
62
7
10
 47
20
-713
30
0
0
VERTEX
8
Halfen
62
7
10
 47.394
20
-716.999
30
0
0
VERTEX
8
Halfen
62
7
10
 48.56
20
-720.845
30
0
0
VERTEX
8
Halfen
62
7
10
 50.455
20
-724.389
30
0
0
VERTEX
8
Halfen
62
7
10
 53.004
20
-727.496
30
0
0
VERTEX
8
Halfen
62
7
10
 56.111
20
-730.045
30
0
0
VERTEX
8
Halfen
62
7
10
 59.655
20
-731.94
30
0
0
VERTEX
8
Halfen
62
7
10
 63.501
20
-733.106
30
0
0
VERTEX
8
Halfen
62
7
10
 67.5
20
-733.5
30
0
0
VERTEX
8
Halfen
62
7
10
 71.499
20
-733.106
30
0
0
VERTEX
8
Halfen
62
7
10
 75.345
20
-731.94
30
0
0
VERTEX
8
Halfen
62
7
10
 78.889
20
-730.045
30
0
0
VERTEX
8
Halfen
62
7
10
 81.996
20
-727.496
30
0
0
VERTEX
8
Halfen
62
7
10
 84.545
20
-724.389
30
0
0
VERTEX
8
Halfen
62
7
10
 86.44
20
-720.845
30
0
0
VERTEX
8
Halfen
62
7
10
 87.606
20
-716.999
30
0
0
SEQEND
8
Halfen
0
POLYLINE
8
Halfen
62
7
66
1
10
0.0
20
0.0
30
0.0
70
1
0
VERTEX
8
Halfen
62
7
10
 67.5
20
-731.645
30
0
0
VERTEX
8
Halfen
62
7
10
 83.647
20
-722.322
30
0
0
VERTEX
8
Halfen
62
7
10
 83.647
20
-703.678
30
0
0
VERTEX
8
Halfen
62
7
10
 67.5
20
-694.355
30
0
0
VERTEX
8
Halfen
62
7
10
 51.353
20
-703.678
30
0
0
VERTEX
8
Halfen
62
7
10
 51.353
20
-722.322
30
0
0
SEQEND
8
Halfen
0
CIRCLE
8
Halfen
62
7
10
 67.5
20
-713
30
0
40
 16.5
0
CIRCLE
8
Halfen
62
7
10
 67.5
20
-713
30
0
40
 11
0
POLYLINE
8
Halfen
62
7
66
1
10
0.0
20
0.0
30
0.0
70
1
0
VERTEX
8
Halfen
62
7
10
 203
20
-713
30
0
0
VERTEX
8
Halfen
62
7
10
 202.606
20
-709.001
30
0
0
VERTEX
8
Halfen
62
7
10
 201.44
20
-705.155
30
0
0
VERTEX
8
Halfen
62
7
10
 199.545
20
-701.611
30
0
0
VERTEX
8
Halfen
62
7
10
 196.996
20
-698.504
30
0
0
VERTEX
8
Halfen
62
7
10
 193.889
20
-695.955
30
0
0
VERTEX
8
Halfen
62
7
10
 190.345
20
-694.06
30
0
0
VERTEX
8
Halfen
62
7
10
 186.499
20
-692.894
30
0
0
VERTEX
8
Halfen
62
7
10
 182.5
20
-692.5
30
0
0
VERTEX
8
Halfen
62
7
10
 178.501
20
-692.894
30
0
0
VERTEX
8
Halfen
62
7
10
 174.655
20
-694.06
30
0
0
VERTEX
8
Halfen
62
7
10
 171.111
20
-695.955
30
0
0
VERTEX
8
Halfen
62
7
10
 168.004
20
-698.504
30
0
0
VERTEX
8
Halfen
62
7
10
 165.455
20
-701.611
30
0
0
VERTEX
8
Halfen
62
7
10
 163.56
20
-705.155
30
0
0
VERTEX
8
Halfen
62
7
10
 162.394
20
-709.001
30
0
0
VERTEX
8
Halfen
62
7
10
 162
20
-713
30
0
0
VERTEX
8
Halfen
62
7
10
 162.394
20
-716.999
30
0
0
VERTEX
8
Halfen
62
7
10
 163.56
20
-720.845
30
0
0
VERTEX
8
Halfen
62
7
10
 165.455
20
-724.389
30
0
0
VERTEX
8
Halfen
62
7
10
 168.004
20
-727.496
30
0
0
VERTEX
8
Halfen
62
7
10
 171.111
20
-730.045
30
0
0
VERTEX
8
Halfen
62
7
10
 174.655
20
-731.94
30
0
0
VERTEX
8
Halfen
62
7
10
 178.501
20
-733.106
30
0
0
VERTEX
8
Halfen
62
7
10
 182.5
20
-733.5
30
0
0
VERTEX
8
Halfen
62
7
10
 186.499
20
-733.106
30
0
0
VERTEX
8
Halfen
62
7
10
 190.345
20
-731.94
30
0
0
VERTEX
8
Halfen
62
7
10
 193.889
20
-730.045
30
0
0
VERTEX
8
Halfen
62
7
10
 196.996
20
-727.496
30
0
0
VERTEX
8
Halfen
62
7
10
 199.545
20
-724.389
30
0
0
VERTEX
8
Halfen
62
7
10
 201.44
20
-720.845
30
0
0
VERTEX
8
Halfen
62
7
10
 202.606
20
-716.999
30
0
0
SEQEND
8
Halfen
0
POLYLINE
8
Halfen
62
7
66
1
10
0.0
20
0.0
30
0.0
70
1
0
VERTEX
8
Halfen
62
7
10
 182.5
20
-731.645
30
0
0
VERTEX
8
Halfen
62
7
10
 198.647
20
-722.322
30
0
0
VERTEX
8
Halfen
62
7
10
 198.647
20
-703.678
30
0
0
VERTEX
8
Halfen
62
7
10
 182.5
20
-694.355
30
0
0
VERTEX
8
Halfen
62
7
10
 166.353
20
-703.678
30
0
0
VERTEX
8
Halfen
62
7
10
 166.353
20
-722.322
30
0
0
SEQEND
8
Halfen
0
CIRCLE
8
Halfen
62
7
10
 182.5
20
-713
30
0
40
 16.5
0
CIRCLE
8
Halfen
62
7
10
 182.5
20
-713
30
0
40
 11
0
POLYLINE
8
Halfen
62
7
66
1
10
0.0
20
0.0
30
0.0
70
1
0
VERTEX
8
Halfen
62
7
10
 110.5
20
-505
30
0
0
VERTEX
8
Halfen
62
7
10
 110.106
20
-501.001
30
0
0
VERTEX
8
Halfen
62
7
10
 108.94
20
-497.155
30
0
0
VERTEX
8
Halfen
62
7
10
 107.045
20
-493.611
30
0
0
VERTEX
8
Halfen
62
7
10
 104.496
20
-490.504
30
0
0
VERTEX
8
Halfen
62
7
10
 101.389
20
-487.955
30
0
0
VERTEX
8
Halfen
62
7
10
 97.845
20
-486.06
30
0
0
VERTEX
8
Halfen
62
7
10
 93.999
20
-484.894
30
0
0
VERTEX
8
Halfen
62
7
10
 90
20
-484.5
30
0
0
VERTEX
8
Halfen
62
7
10
 86.001
20
-484.894
30
0
0
VERTEX
8
Halfen
62
7
10
 82.155
20
-486.06
30
0
0
VERTEX
8
Halfen
62
7
10
 78.611
20
-487.955
30
0
0
VERTEX
8
Halfen
62
7
10
 75.504
20
-490.504
30
0
0
VERTEX
8
Halfen
62
7
10
 72.955
20
-493.611
30
0
0
VERTEX
8
Halfen
62
7
10
 71.06
20
-497.155
30
0
0
VERTEX
8
Halfen
62
7
10
 69.894
20
-501.001
30
0
0
VERTEX
8
Halfen
62
7
10
 69.5
20
-505
30
0
0
VERTEX
8
Halfen
62
7
10
 69.894
20
-508.999
30
0
0
VERTEX
8
Halfen
62
7
10
 71.06
20
-512.845
30
0
0
VERTEX
8
Halfen
62
7
10
 72.955
20
-516.389
30
0
0
VERTEX
8
Halfen
62
7
10
 75.504
20
-519.496
30
0
0
VERTEX
8
Halfen
62
7
10
 78.611
20
-522.045
30
0
0
VERTEX
8
Halfen
62
7
10
 82.155
20
-523.94
30
0
0
VERTEX
8
Halfen
62
7
10
 86.001
20
-525.106
30
0
0
VERTEX
8
Halfen
62
7
10
 90
20
-525.5
30
0
0
VERTEX
8
Halfen
62
7
10
 93.999
20
-525.106
30
0
0
VERTEX
8
Halfen
62
7
10
 97.845
20
-523.94
30
0
0
VERTEX
8
Halfen
62
7
10
 101.389
20
-522.045
30
0
0
VERTEX
8
Halfen
62
7
10
 104.496
20
-519.496
30
0
0
VERTEX
8
Halfen
62
7
10
 107.045
20
-516.389
30
0
0
VERTEX
8
Halfen
62
7
10
 108.94
20
-512.845
30
0
0
VERTEX
8
Halfen
62
7
10
 110.106
20
-508.999
30
0
0
SEQEND
8
Halfen
0
POLYLINE
8
Halfen
62
7
66
1
10
0.0
20
0.0
30
0.0
70
1
0
VERTEX
8
Halfen
62
7
10
 90
20
-523.645
30
0
0
VERTEX
8
Halfen
62
7
10
 106.147
20
-514.322
30
0
0
VERTEX
8
Halfen
62
7
10
 106.147
20
-495.678
30
0
0
VERTEX
8
Halfen
62
7
10
 90
20
-486.355
30
0
0
VERTEX
8
Halfen
62
7
10
 73.853
20
-495.678
30
0
0
VERTEX
8
Halfen
62
7
10
 73.853
20
-514.322
30
0
0
SEQEND
8
Halfen
0
CIRCLE
8
Halfen
62
7
10
 90
20
-505
30
0
40
 16.5
0
CIRCLE
8
Halfen
62
7
10
 90
20
-505
30
0
40
 11
0
POLYLINE
8
Halfen
62
7
66
1
10
0.0
20
0.0
30
0.0
70
1
0
VERTEX
8
Halfen
62
7
10
 180.5
20
-505
30
0
0
VERTEX
8
Halfen
62
7
10
 180.106
20
-501.001
30
0
0
VERTEX
8
Halfen
62
7
10
 178.94
20
-497.155
30
0
0
VERTEX
8
Halfen
62
7
10
 177.045
20
-493.611
30
0
0
VERTEX
8
Halfen
62
7
10
 174.496
20
-490.504
30
0
0
VERTEX
8
Halfen
62
7
10
 171.389
20
-487.955
30
0
0
VERTEX
8
Halfen
62
7
10
 167.845
20
-486.06
30
0
0
VERTEX
8
Halfen
62
7
10
 163.999
20
-484.894
30
0
0
VERTEX
8
Halfen
62
7
10
 160
20
-484.5
30
0
0
VERTEX
8
Halfen
62
7
10
 156.001
20
-484.894
30
0
0
VERTEX
8
Halfen
62
7
10
 152.155
20
-486.06
30
0
0
VERTEX
8
Halfen
62
7
10
 148.611
20
-487.955
30
0
0
VERTEX
8
Halfen
62
7
10
 145.504
20
-490.504
30
0
0
VERTEX
8
Halfen
62
7
10
 142.955
20
-493.611
30
0
0
VERTEX
8
Halfen
62
7
10
 141.06
20
-497.155
30
0
0
VERTEX
8
Halfen
62
7
10
 139.894
20
-501.001
30
0
0
VERTEX
8
Halfen
62
7
10
 139.5
20
-505
30
0
0
VERTEX
8
Halfen
62
7
10
 139.894
20
-508.999
30
0
0
VERTEX
8
Halfen
62
7
10
 141.06
20
-512.845
30
0
0
VERTEX
8
Halfen
62
7
10
 142.955
20
-516.389
30
0
0
VERTEX
8
Halfen
62
7
10
 145.504
20
-519.496
30
0
0
VERTEX
8
Halfen
62
7
10
 148.611
20
-522.045
30
0
0
VERTEX
8
Halfen
62
7
10
 152.155
20
-523.94
30
0
0
VERTEX
8
Halfen
62
7
10
 156.001
20
-525.106
30
0
0
VERTEX
8
Halfen
62
7
10
 160
20
-525.5
30
0
0
VERTEX
8
Halfen
62
7
10
 163.999
20
-525.106
30
0
0
VERTEX
8
Halfen
62
7
10
 167.845
20
-523.94
30
0
0
VERTEX
8
Halfen
62
7
10
 171.389
20
-522.045
30
0
0
VERTEX
8
Halfen
62
7
10
 174.496
20
-519.496
30
0
0
VERTEX
8
Halfen
62
7
10
 177.045
20
-516.389
30
0
0
VERTEX
8
Halfen
62
7
10
 178.94
20
-512.845
30
0
0
VERTEX
8
Halfen
62
7
10
 180.106
20
-508.999
30
0
0
SEQEND
8
Halfen
0
POLYLINE
8
Halfen
62
7
66
1
10
0.0
20
0.0
30
0.0
70
1
0
VERTEX
8
Halfen
62
7
10
 160
20
-523.645
30
0
0
VERTEX
8
Halfen
62
7
10
 176.147
20
-514.322
30
0
0
VERTEX
8
Halfen
62
7
10
 176.147
20
-495.678
30
0
0
VERTEX
8
Halfen
62
7
10
 160
20
-486.355
30
0
0
VERTEX
8
Halfen
62
7
10
 143.853
20
-495.678
30
0
0
VERTEX
8
Halfen
62
7
10
 143.853
20
-514.322
30
0
0
SEQEND
8
Halfen
0
CIRCLE
8
Halfen
62
7
10
 160
20
-505
30
0
40
 16.5
0
CIRCLE
8
Halfen
62
7
10
 160
20
-505
30
0
40
 11
0
ENDSEC
0
EOF
