0
SECTION
2
HEADER
9
$EXTMIN
10
 0
20
 100
30
0.0
9
$EXTMAX
10
 0
20
 100
30
0.0
9
$LIMMIN
10
 100
20
 0
9
$LIMMAX
10
 0
20
 100
9
$PSLTSCALE
70
1
0
ENDSEC
0
SECTION
2
TABLES
0
TABLE
2
LAYER
70
2
0
LAYER
2
0
70
0
62
7
6
CONTINUOUS
0
LAYER
2
Halfen
70
0
62
7
6
CONTINUOUS
0
ENDTAB
0
ENDSEC
0
SECTION
2
ENTITIES
0
POLYLINE
8
Halfen
62
7
66
1
10
0.0
20
0.0
30
0.0
70
1
0
VERTEX
8
Halfen
62
7
10
 0
20
-73.5
30
0
0
VERTEX
8
Halfen
62
7
10
 1000
20
-73.5
30
0
0
VERTEX
8
Halfen
62
7
10
 1000
20
 73.5
30
0
0
VERTEX
8
Halfen
62
7
10
 0
20
 73.5
30
0
0
SEQEND
8
Halfen
0
POLYLINE
8
Halfen
62
7
66
1
10
0.0
20
0.0
30
0.0
70
1
0
VERTEX
8
Halfen
62
7
10
 0
20
-60
30
0
0
VERTEX
8
Halfen
62
7
10
 1000
20
-60
30
0
0
VERTEX
8
Halfen
62
7
10
 1000
20
 60
30
0
0
VERTEX
8
Halfen
62
7
10
 0
20
 60
30
0
0
SEQEND
8
Halfen
0
POLYLINE
8
Halfen
62
7
66
1
10
0.0
20
0.0
30
0.0
70
1
0
VERTEX
8
Halfen
62
7
10
 20
20
-32.5
30
0
0
VERTEX
8
Halfen
62
7
10
 37
20
-1.5
30
0
0
VERTEX
8
Halfen
62
7
10
 28
20
-1.5
30
0
0
VERTEX
8
Halfen
62
7
10
 28
20
 32.5
30
0
0
VERTEX
8
Halfen
62
7
10
 12
20
 32.5
30
0
0
VERTEX
8
Halfen
62
7
10
 12
20
-1.5
30
0
0
VERTEX
8
Halfen
62
7
10
 3
20
-1.5
30
0
0
SEQEND
8
Halfen
0
POLYLINE
8
Halfen
62
7
66
1
10
0.0
20
0.0
30
0.0
70
1
0
VERTEX
8
Halfen
62
7
10
 980
20
-32.5
30
0
0
VERTEX
8
Halfen
62
7
10
 997
20
-1.5
30
0
0
VERTEX
8
Halfen
62
7
10
 988
20
-1.5
30
0
0
VERTEX
8
Halfen
62
7
10
 988
20
 32.5
30
0
0
VERTEX
8
Halfen
62
7
10
 972
20
 32.5
30
0
0
VERTEX
8
Halfen
62
7
10
 972
20
-1.5
30
0
0
VERTEX
8
Halfen
62
7
10
 963
20
-1.5
30
0
0
SEQEND
8
Halfen
0
POLYLINE
8
Halfen
62
7
66
1
10
0.0
20
0.0
30
0.0
70
1
0
VERTEX
8
Halfen
62
7
10
 152
20
-775
30
0
0
VERTEX
8
Halfen
62
7
10
 152
20
-160
30
0
0
VERTEX
8
Halfen
62
7
10
 140
20
-160
30
0
0
VERTEX
8
Halfen
62
7
10
 140
20
-775
30
0
0
SEQEND
8
Halfen
0
POLYLINE
8
Halfen
62
7
66
1
10
0.0
20
0.0
30
0.0
70
1
0
VERTEX
8
Halfen
62
7
10
 151.25
20
-160
30
0
0
VERTEX
8
Halfen
62
7
10
 151.25
20
-62
30
0
0
VERTEX
8
Halfen
62
7
10
 140.75
20
-62
30
0
0
VERTEX
8
Halfen
62
7
10
 140.75
20
-160
30
0
0
SEQEND
8
Halfen
0
POLYLINE
8
Halfen
62
7
66
1
10
0.0
20
0.0
30
0.0
70
1
0
VERTEX
8
Halfen
62
7
10
 152
20
-62
30
0
0
VERTEX
8
Halfen
62
7
10
 152
20
-60
30
0
0
VERTEX
8
Halfen
62
7
10
 140
20
-60
30
0
0
VERTEX
8
Halfen
62
7
10
 140
20
-62
30
0
0
SEQEND
8
Halfen
0
POLYLINE
8
Halfen
62
7
66
1
10
0.0
20
0.0
30
0.0
70
1
0
VERTEX
8
Halfen
62
7
10
 151.25
20
-60
30
0
0
VERTEX
8
Halfen
62
7
10
 151.25
20
 60
30
0
0
VERTEX
8
Halfen
62
7
10
 140.75
20
 60
30
0
0
VERTEX
8
Halfen
62
7
10
 140.75
20
-60
30
0
0
SEQEND
8
Halfen
0
POLYLINE
8
Halfen
62
7
66
1
10
0.0
20
0.0
30
0.0
70
1
0
VERTEX
8
Halfen
62
7
10
 152
20
 60
30
0
0
VERTEX
8
Halfen
62
7
10
 152
20
 62
30
0
0
VERTEX
8
Halfen
62
7
10
 140
20
 62
30
0
0
VERTEX
8
Halfen
62
7
10
 140
20
 60
30
0
0
SEQEND
8
Halfen
0
POLYLINE
8
Halfen
62
7
66
1
10
0.0
20
0.0
30
0.0
70
1
0
VERTEX
8
Halfen
62
7
10
 151.25
20
 62
30
0
0
VERTEX
8
Halfen
62
7
10
 151.25
20
 160
30
0
0
VERTEX
8
Halfen
62
7
10
 140.75
20
 160
30
0
0
VERTEX
8
Halfen
62
7
10
 140.75
20
 62
30
0
0
SEQEND
8
Halfen
0
POLYLINE
8
Halfen
62
7
66
1
10
0.0
20
0.0
30
0.0
70
1
0
VERTEX
8
Halfen
62
7
10
 152
20
 160
30
0
0
VERTEX
8
Halfen
62
7
10
 152
20
 775
30
0
0
VERTEX
8
Halfen
62
7
10
 140
20
 775
30
0
0
VERTEX
8
Halfen
62
7
10
 140
20
 160
30
0
0
SEQEND
8
Halfen
0
POLYLINE
8
Halfen
62
7
66
1
10
0.0
20
0.0
30
0.0
70
1
0
VERTEX
8
Halfen
62
7
10
 416
20
-775
30
0
0
VERTEX
8
Halfen
62
7
10
 416
20
-160
30
0
0
VERTEX
8
Halfen
62
7
10
 404
20
-160
30
0
0
VERTEX
8
Halfen
62
7
10
 404
20
-775
30
0
0
SEQEND
8
Halfen
0
POLYLINE
8
Halfen
62
7
66
1
10
0.0
20
0.0
30
0.0
70
1
0
VERTEX
8
Halfen
62
7
10
 415.25
20
-160
30
0
0
VERTEX
8
Halfen
62
7
10
 415.25
20
-62
30
0
0
VERTEX
8
Halfen
62
7
10
 404.75
20
-62
30
0
0
VERTEX
8
Halfen
62
7
10
 404.75
20
-160
30
0
0
SEQEND
8
Halfen
0
POLYLINE
8
Halfen
62
7
66
1
10
0.0
20
0.0
30
0.0
70
1
0
VERTEX
8
Halfen
62
7
10
 416
20
-62
30
0
0
VERTEX
8
Halfen
62
7
10
 416
20
-60
30
0
0
VERTEX
8
Halfen
62
7
10
 404
20
-60
30
0
0
VERTEX
8
Halfen
62
7
10
 404
20
-62
30
0
0
SEQEND
8
Halfen
0
POLYLINE
8
Halfen
62
7
66
1
10
0.0
20
0.0
30
0.0
70
1
0
VERTEX
8
Halfen
62
7
10
 415.25
20
-60
30
0
0
VERTEX
8
Halfen
62
7
10
 415.25
20
 60
30
0
0
VERTEX
8
Halfen
62
7
10
 404.75
20
 60
30
0
0
VERTEX
8
Halfen
62
7
10
 404.75
20
-60
30
0
0
SEQEND
8
Halfen
0
POLYLINE
8
Halfen
62
7
66
1
10
0.0
20
0.0
30
0.0
70
1
0
VERTEX
8
Halfen
62
7
10
 416
20
 60
30
0
0
VERTEX
8
Halfen
62
7
10
 416
20
 62
30
0
0
VERTEX
8
Halfen
62
7
10
 404
20
 62
30
0
0
VERTEX
8
Halfen
62
7
10
 404
20
 60
30
0
0
SEQEND
8
Halfen
0
POLYLINE
8
Halfen
62
7
66
1
10
0.0
20
0.0
30
0.0
70
1
0
VERTEX
8
Halfen
62
7
10
 415.25
20
 62
30
0
0
VERTEX
8
Halfen
62
7
10
 415.25
20
 160
30
0
0
VERTEX
8
Halfen
62
7
10
 404.75
20
 160
30
0
0
VERTEX
8
Halfen
62
7
10
 404.75
20
 62
30
0
0
SEQEND
8
Halfen
0
POLYLINE
8
Halfen
62
7
66
1
10
0.0
20
0.0
30
0.0
70
1
0
VERTEX
8
Halfen
62
7
10
 416
20
 160
30
0
0
VERTEX
8
Halfen
62
7
10
 416
20
 775
30
0
0
VERTEX
8
Halfen
62
7
10
 404
20
 775
30
0
0
VERTEX
8
Halfen
62
7
10
 404
20
 160
30
0
0
SEQEND
8
Halfen
0
POLYLINE
8
Halfen
62
7
66
1
10
0.0
20
0.0
30
0.0
70
1
0
VERTEX
8
Halfen
62
7
10
 680
20
-775
30
0
0
VERTEX
8
Halfen
62
7
10
 680
20
-160
30
0
0
VERTEX
8
Halfen
62
7
10
 668
20
-160
30
0
0
VERTEX
8
Halfen
62
7
10
 668
20
-775
30
0
0
SEQEND
8
Halfen
0
POLYLINE
8
Halfen
62
7
66
1
10
0.0
20
0.0
30
0.0
70
1
0
VERTEX
8
Halfen
62
7
10
 679.25
20
-160
30
0
0
VERTEX
8
Halfen
62
7
10
 679.25
20
-62
30
0
0
VERTEX
8
Halfen
62
7
10
 668.75
20
-62
30
0
0
VERTEX
8
Halfen
62
7
10
 668.75
20
-160
30
0
0
SEQEND
8
Halfen
0
POLYLINE
8
Halfen
62
7
66
1
10
0.0
20
0.0
30
0.0
70
1
0
VERTEX
8
Halfen
62
7
10
 680
20
-62
30
0
0
VERTEX
8
Halfen
62
7
10
 680
20
-60
30
0
0
VERTEX
8
Halfen
62
7
10
 668
20
-60
30
0
0
VERTEX
8
Halfen
62
7
10
 668
20
-62
30
0
0
SEQEND
8
Halfen
0
POLYLINE
8
Halfen
62
7
66
1
10
0.0
20
0.0
30
0.0
70
1
0
VERTEX
8
Halfen
62
7
10
 679.25
20
-60
30
0
0
VERTEX
8
Halfen
62
7
10
 679.25
20
 60
30
0
0
VERTEX
8
Halfen
62
7
10
 668.75
20
 60
30
0
0
VERTEX
8
Halfen
62
7
10
 668.75
20
-60
30
0
0
SEQEND
8
Halfen
0
POLYLINE
8
Halfen
62
7
66
1
10
0.0
20
0.0
30
0.0
70
1
0
VERTEX
8
Halfen
62
7
10
 680
20
 60
30
0
0
VERTEX
8
Halfen
62
7
10
 680
20
 62
30
0
0
VERTEX
8
Halfen
62
7
10
 668
20
 62
30
0
0
VERTEX
8
Halfen
62
7
10
 668
20
 60
30
0
0
SEQEND
8
Halfen
0
POLYLINE
8
Halfen
62
7
66
1
10
0.0
20
0.0
30
0.0
70
1
0
VERTEX
8
Halfen
62
7
10
 679.25
20
 62
30
0
0
VERTEX
8
Halfen
62
7
10
 679.25
20
 160
30
0
0
VERTEX
8
Halfen
62
7
10
 668.75
20
 160
30
0
0
VERTEX
8
Halfen
62
7
10
 668.75
20
 62
30
0
0
SEQEND
8
Halfen
0
POLYLINE
8
Halfen
62
7
66
1
10
0.0
20
0.0
30
0.0
70
1
0
VERTEX
8
Halfen
62
7
10
 680
20
 160
30
0
0
VERTEX
8
Halfen
62
7
10
 680
20
 775
30
0
0
VERTEX
8
Halfen
62
7
10
 668
20
 775
30
0
0
VERTEX
8
Halfen
62
7
10
 668
20
 160
30
0
0
SEQEND
8
Halfen
0
POLYLINE
8
Halfen
62
7
66
1
10
0.0
20
0.0
30
0.0
70
1
0
VERTEX
8
Halfen
62
7
10
 944
20
-775
30
0
0
VERTEX
8
Halfen
62
7
10
 944
20
-160
30
0
0
VERTEX
8
Halfen
62
7
10
 932
20
-160
30
0
0
VERTEX
8
Halfen
62
7
10
 932
20
-775
30
0
0
SEQEND
8
Halfen
0
POLYLINE
8
Halfen
62
7
66
1
10
0.0
20
0.0
30
0.0
70
1
0
VERTEX
8
Halfen
62
7
10
 943.25
20
-160
30
0
0
VERTEX
8
Halfen
62
7
10
 943.25
20
-62
30
0
0
VERTEX
8
Halfen
62
7
10
 932.75
20
-62
30
0
0
VERTEX
8
Halfen
62
7
10
 932.75
20
-160
30
0
0
SEQEND
8
Halfen
0
POLYLINE
8
Halfen
62
7
66
1
10
0.0
20
0.0
30
0.0
70
1
0
VERTEX
8
Halfen
62
7
10
 944
20
-62
30
0
0
VERTEX
8
Halfen
62
7
10
 944
20
-60
30
0
0
VERTEX
8
Halfen
62
7
10
 932
20
-60
30
0
0
VERTEX
8
Halfen
62
7
10
 932
20
-62
30
0
0
SEQEND
8
Halfen
0
POLYLINE
8
Halfen
62
7
66
1
10
0.0
20
0.0
30
0.0
70
1
0
VERTEX
8
Halfen
62
7
10
 943.25
20
-60
30
0
0
VERTEX
8
Halfen
62
7
10
 943.25
20
 60
30
0
0
VERTEX
8
Halfen
62
7
10
 932.75
20
 60
30
0
0
VERTEX
8
Halfen
62
7
10
 932.75
20
-60
30
0
0
SEQEND
8
Halfen
0
POLYLINE
8
Halfen
62
7
66
1
10
0.0
20
0.0
30
0.0
70
1
0
VERTEX
8
Halfen
62
7
10
 944
20
 60
30
0
0
VERTEX
8
Halfen
62
7
10
 944
20
 62
30
0
0
VERTEX
8
Halfen
62
7
10
 932
20
 62
30
0
0
VERTEX
8
Halfen
62
7
10
 932
20
 60
30
0
0
SEQEND
8
Halfen
0
POLYLINE
8
Halfen
62
7
66
1
10
0.0
20
0.0
30
0.0
70
1
0
VERTEX
8
Halfen
62
7
10
 943.25
20
 62
30
0
0
VERTEX
8
Halfen
62
7
10
 943.25
20
 160
30
0
0
VERTEX
8
Halfen
62
7
10
 932.75
20
 160
30
0
0
VERTEX
8
Halfen
62
7
10
 932.75
20
 62
30
0
0
SEQEND
8
Halfen
0
POLYLINE
8
Halfen
62
7
66
1
10
0.0
20
0.0
30
0.0
70
1
0
VERTEX
8
Halfen
62
7
10
 944
20
 160
30
0
0
VERTEX
8
Halfen
62
7
10
 944
20
 775
30
0
0
VERTEX
8
Halfen
62
7
10
 932
20
 775
30
0
0
VERTEX
8
Halfen
62
7
10
 932
20
 160
30
0
0
SEQEND
8
Halfen
0
POLYLINE
8
Halfen
62
7
66
1
10
0.0
20
0.0
30
0.0
70
1
0
VERTEX
8
Halfen
62
7
10
 98
20
-819.108
30
0
0
VERTEX
8
Halfen
62
7
10
 98
20
 163.766
30
0
0
VERTEX
8
Halfen
62
7
10
 86
20
 163.766
30
0
0
VERTEX
8
Halfen
62
7
10
 86
20
-819.108
30
0
0
SEQEND
8
Halfen
0
POLYLINE
8
Halfen
62
7
66
1
10
0.0
20
0.0
30
0.0
70
1
0
VERTEX
8
Halfen
62
7
10
 98
20
 163.766
30
0
0
VERTEX
8
Halfen
62
7
10
 98
20
 824.766
30
0
0
VERTEX
8
Halfen
62
7
10
 86
20
 824.766
30
0
0
VERTEX
8
Halfen
62
7
10
 86
20
 163.766
30
0
0
SEQEND
8
Halfen
0
POLYLINE
8
Halfen
62
7
66
1
10
0.0
20
0.0
30
0.0
70
1
0
VERTEX
8
Halfen
62
7
10
 110
20
-824.767
30
0
0
VERTEX
8
Halfen
62
7
10
 110
20
 158.108
30
0
0
VERTEX
8
Halfen
62
7
10
 98
20
 158.108
30
0
0
VERTEX
8
Halfen
62
7
10
 98
20
-824.767
30
0
0
SEQEND
8
Halfen
0
POLYLINE
8
Halfen
62
7
66
1
10
0.0
20
0.0
30
0.0
70
1
0
VERTEX
8
Halfen
62
7
10
 110
20
 158.108
30
0
0
VERTEX
8
Halfen
62
7
10
 110
20
 819.108
30
0
0
VERTEX
8
Halfen
62
7
10
 98
20
 819.108
30
0
0
VERTEX
8
Halfen
62
7
10
 98
20
 158.108
30
0
0
SEQEND
8
Halfen
0
POLYLINE
8
Halfen
62
7
66
1
10
0.0
20
0.0
30
0.0
70
1
0
VERTEX
8
Halfen
62
7
10
 230
20
-819.108
30
0
0
VERTEX
8
Halfen
62
7
10
 230
20
 163.766
30
0
0
VERTEX
8
Halfen
62
7
10
 218
20
 163.766
30
0
0
VERTEX
8
Halfen
62
7
10
 218
20
-819.108
30
0
0
SEQEND
8
Halfen
0
POLYLINE
8
Halfen
62
7
66
1
10
0.0
20
0.0
30
0.0
70
1
0
VERTEX
8
Halfen
62
7
10
 230
20
 163.766
30
0
0
VERTEX
8
Halfen
62
7
10
 230
20
 824.766
30
0
0
VERTEX
8
Halfen
62
7
10
 218
20
 824.766
30
0
0
VERTEX
8
Halfen
62
7
10
 218
20
 163.766
30
0
0
SEQEND
8
Halfen
0
POLYLINE
8
Halfen
62
7
66
1
10
0.0
20
0.0
30
0.0
70
1
0
VERTEX
8
Halfen
62
7
10
 242
20
-824.767
30
0
0
VERTEX
8
Halfen
62
7
10
 242
20
 158.108
30
0
0
VERTEX
8
Halfen
62
7
10
 230
20
 158.108
30
0
0
VERTEX
8
Halfen
62
7
10
 230
20
-824.767
30
0
0
SEQEND
8
Halfen
0
POLYLINE
8
Halfen
62
7
66
1
10
0.0
20
0.0
30
0.0
70
1
0
VERTEX
8
Halfen
62
7
10
 242
20
 158.108
30
0
0
VERTEX
8
Halfen
62
7
10
 242
20
 819.108
30
0
0
VERTEX
8
Halfen
62
7
10
 230
20
 819.108
30
0
0
VERTEX
8
Halfen
62
7
10
 230
20
 158.108
30
0
0
SEQEND
8
Halfen
0
POLYLINE
8
Halfen
62
7
66
1
10
0.0
20
0.0
30
0.0
70
1
0
VERTEX
8
Halfen
62
7
10
 362
20
-819.108
30
0
0
VERTEX
8
Halfen
62
7
10
 362
20
 163.766
30
0
0
VERTEX
8
Halfen
62
7
10
 350
20
 163.766
30
0
0
VERTEX
8
Halfen
62
7
10
 350
20
-819.108
30
0
0
SEQEND
8
Halfen
0
POLYLINE
8
Halfen
62
7
66
1
10
0.0
20
0.0
30
0.0
70
1
0
VERTEX
8
Halfen
62
7
10
 362
20
 163.766
30
0
0
VERTEX
8
Halfen
62
7
10
 362
20
 824.766
30
0
0
VERTEX
8
Halfen
62
7
10
 350
20
 824.766
30
0
0
VERTEX
8
Halfen
62
7
10
 350
20
 163.766
30
0
0
SEQEND
8
Halfen
0
POLYLINE
8
Halfen
62
7
66
1
10
0.0
20
0.0
30
0.0
70
1
0
VERTEX
8
Halfen
62
7
10
 374
20
-824.767
30
0
0
VERTEX
8
Halfen
62
7
10
 374
20
 158.108
30
0
0
VERTEX
8
Halfen
62
7
10
 362
20
 158.108
30
0
0
VERTEX
8
Halfen
62
7
10
 362
20
-824.767
30
0
0
SEQEND
8
Halfen
0
POLYLINE
8
Halfen
62
7
66
1
10
0.0
20
0.0
30
0.0
70
1
0
VERTEX
8
Halfen
62
7
10
 374
20
 158.108
30
0
0
VERTEX
8
Halfen
62
7
10
 374
20
 819.108
30
0
0
VERTEX
8
Halfen
62
7
10
 362
20
 819.108
30
0
0
VERTEX
8
Halfen
62
7
10
 362
20
 158.108
30
0
0
SEQEND
8
Halfen
0
POLYLINE
8
Halfen
62
7
66
1
10
0.0
20
0.0
30
0.0
70
1
0
VERTEX
8
Halfen
62
7
10
 626
20
-819.108
30
0
0
VERTEX
8
Halfen
62
7
10
 626
20
 163.766
30
0
0
VERTEX
8
Halfen
62
7
10
 614
20
 163.766
30
0
0
VERTEX
8
Halfen
62
7
10
 614
20
-819.108
30
0
0
SEQEND
8
Halfen
0
POLYLINE
8
Halfen
62
7
66
1
10
0.0
20
0.0
30
0.0
70
1
0
VERTEX
8
Halfen
62
7
10
 626
20
 163.766
30
0
0
VERTEX
8
Halfen
62
7
10
 626
20
 824.766
30
0
0
VERTEX
8
Halfen
62
7
10
 614
20
 824.766
30
0
0
VERTEX
8
Halfen
62
7
10
 614
20
 163.766
30
0
0
SEQEND
8
Halfen
0
POLYLINE
8
Halfen
62
7
66
1
10
0.0
20
0.0
30
0.0
70
1
0
VERTEX
8
Halfen
62
7
10
 638
20
-824.767
30
0
0
VERTEX
8
Halfen
62
7
10
 638
20
 158.108
30
0
0
VERTEX
8
Halfen
62
7
10
 626
20
 158.108
30
0
0
VERTEX
8
Halfen
62
7
10
 626
20
-824.767
30
0
0
SEQEND
8
Halfen
0
POLYLINE
8
Halfen
62
7
66
1
10
0.0
20
0.0
30
0.0
70
1
0
VERTEX
8
Halfen
62
7
10
 638
20
 158.108
30
0
0
VERTEX
8
Halfen
62
7
10
 638
20
 819.108
30
0
0
VERTEX
8
Halfen
62
7
10
 626
20
 819.108
30
0
0
VERTEX
8
Halfen
62
7
10
 626
20
 158.108
30
0
0
SEQEND
8
Halfen
0
POLYLINE
8
Halfen
62
7
66
1
10
0.0
20
0.0
30
0.0
70
1
0
VERTEX
8
Halfen
62
7
10
 758
20
-819.108
30
0
0
VERTEX
8
Halfen
62
7
10
 758
20
 163.766
30
0
0
VERTEX
8
Halfen
62
7
10
 746
20
 163.766
30
0
0
VERTEX
8
Halfen
62
7
10
 746
20
-819.108
30
0
0
SEQEND
8
Halfen
0
POLYLINE
8
Halfen
62
7
66
1
10
0.0
20
0.0
30
0.0
70
1
0
VERTEX
8
Halfen
62
7
10
 758
20
 163.766
30
0
0
VERTEX
8
Halfen
62
7
10
 758
20
 824.766
30
0
0
VERTEX
8
Halfen
62
7
10
 746
20
 824.766
30
0
0
VERTEX
8
Halfen
62
7
10
 746
20
 163.766
30
0
0
SEQEND
8
Halfen
0
POLYLINE
8
Halfen
62
7
66
1
10
0.0
20
0.0
30
0.0
70
1
0
VERTEX
8
Halfen
62
7
10
 770
20
-824.767
30
0
0
VERTEX
8
Halfen
62
7
10
 770
20
 158.108
30
0
0
VERTEX
8
Halfen
62
7
10
 758
20
 158.108
30
0
0
VERTEX
8
Halfen
62
7
10
 758
20
-824.767
30
0
0
SEQEND
8
Halfen
0
POLYLINE
8
Halfen
62
7
66
1
10
0.0
20
0.0
30
0.0
70
1
0
VERTEX
8
Halfen
62
7
10
 770
20
 158.108
30
0
0
VERTEX
8
Halfen
62
7
10
 770
20
 819.108
30
0
0
VERTEX
8
Halfen
62
7
10
 758
20
 819.108
30
0
0
VERTEX
8
Halfen
62
7
10
 758
20
 158.108
30
0
0
SEQEND
8
Halfen
0
POLYLINE
8
Halfen
62
7
66
1
10
0.0
20
0.0
30
0.0
70
1
0
VERTEX
8
Halfen
62
7
10
 890
20
-819.108
30
0
0
VERTEX
8
Halfen
62
7
10
 890
20
 163.766
30
0
0
VERTEX
8
Halfen
62
7
10
 878
20
 163.766
30
0
0
VERTEX
8
Halfen
62
7
10
 878
20
-819.108
30
0
0
SEQEND
8
Halfen
0
POLYLINE
8
Halfen
62
7
66
1
10
0.0
20
0.0
30
0.0
70
1
0
VERTEX
8
Halfen
62
7
10
 890
20
 163.766
30
0
0
VERTEX
8
Halfen
62
7
10
 890
20
 824.766
30
0
0
VERTEX
8
Halfen
62
7
10
 878
20
 824.766
30
0
0
VERTEX
8
Halfen
62
7
10
 878
20
 163.766
30
0
0
SEQEND
8
Halfen
0
POLYLINE
8
Halfen
62
7
66
1
10
0.0
20
0.0
30
0.0
70
1
0
VERTEX
8
Halfen
62
7
10
 902
20
-824.767
30
0
0
VERTEX
8
Halfen
62
7
10
 902
20
 158.108
30
0
0
VERTEX
8
Halfen
62
7
10
 890
20
 158.108
30
0
0
VERTEX
8
Halfen
62
7
10
 890
20
-824.767
30
0
0
SEQEND
8
Halfen
0
POLYLINE
8
Halfen
62
7
66
1
10
0.0
20
0.0
30
0.0
70
1
0
VERTEX
8
Halfen
62
7
10
 902
20
 158.108
30
0
0
VERTEX
8
Halfen
62
7
10
 902
20
 819.108
30
0
0
VERTEX
8
Halfen
62
7
10
 890
20
 819.108
30
0
0
VERTEX
8
Halfen
62
7
10
 890
20
 158.108
30
0
0
SEQEND
8
Halfen
0
POLYLINE
8
Halfen
62
7
66
1
10
0.0
20
0.0
30
0.0
70
1
0
VERTEX
8
Halfen
62
7
10
 1490
20
-60
30
0
0
VERTEX
8
Halfen
62
7
10
 1490
20
 60
30
0
0
VERTEX
8
Halfen
62
7
10
 1476.5
20
 73.5
30
0
0
VERTEX
8
Halfen
62
7
10
 1476.5
20
 60
30
0
0
VERTEX
8
Halfen
62
7
10
 1250
20
 60
30
0
0
VERTEX
8
Halfen
62
7
10
 1250
20
-60
30
0
0
VERTEX
8
Halfen
62
7
10
 1476.5
20
-60
30
0
0
VERTEX
8
Halfen
62
7
10
 1476.5
20
-73.5
30
0
0
SEQEND
8
Halfen
0
POLYLINE
8
Halfen
62
7
66
1
10
0.0
20
0.0
30
0.0
70
1
0
VERTEX
8
Halfen
62
7
10
 1250
20
-60
30
0
0
VERTEX
8
Halfen
62
7
10
 1250
20
 60
30
0
0
VERTEX
8
Halfen
62
7
10
 1213.5
20
 60
30
0
0
VERTEX
8
Halfen
62
7
10
 1213.5
20
 73.5
30
0
0
VERTEX
8
Halfen
62
7
10
 1200
20
 60
30
0
0
VERTEX
8
Halfen
62
7
10
 1200
20
-60
30
0
0
VERTEX
8
Halfen
62
7
10
 1213.5
20
-73.5
30
0
0
VERTEX
8
Halfen
62
7
10
 1213.5
20
-60
30
0
0
SEQEND
8
Halfen
0
POLYLINE
8
Halfen
62
7
66
1
10
0.0
20
0.0
30
0.0
70
1
0
VERTEX
8
Halfen
62
7
10
 1487.5
20
-58.75
30
0
0
VERTEX
8
Halfen
62
7
10
 1487.5
20
 58.75
30
0
0
VERTEX
8
Halfen
62
7
10
 1479
20
 67.25
30
0
0
VERTEX
8
Halfen
62
7
10
 1479
20
 58
30
0
0
VERTEX
8
Halfen
62
7
10
 1252
20
 58
30
0
0
VERTEX
8
Halfen
62
7
10
 1252
20
-58
30
0
0
VERTEX
8
Halfen
62
7
10
 1479
20
-58
30
0
0
VERTEX
8
Halfen
62
7
10
 1479
20
-67.25
30
0
0
SEQEND
8
Halfen
0
POLYLINE
8
Halfen
62
7
66
1
10
0.0
20
0.0
30
0.0
70
1
0
VERTEX
8
Halfen
62
7
10
 1248
20
-58
30
0
0
VERTEX
8
Halfen
62
7
10
 1248
20
 58
30
0
0
VERTEX
8
Halfen
62
7
10
 1211
20
 58
30
0
0
VERTEX
8
Halfen
62
7
10
 1211
20
 67.25
30
0
0
VERTEX
8
Halfen
62
7
10
 1202.5
20
 58.75
30
0
0
VERTEX
8
Halfen
62
7
10
 1202.5
20
-58.75
30
0
0
VERTEX
8
Halfen
62
7
10
 1211
20
-67.25
30
0
0
VERTEX
8
Halfen
62
7
10
 1211
20
-58
30
0
0
SEQEND
8
Halfen
0
POLYLINE
8
Halfen
62
7
66
1
10
0.0
20
0.0
30
0.0
70
1
0
VERTEX
8
Halfen
62
7
10
 1242
20
-775
30
0
0
VERTEX
8
Halfen
62
7
10
 1242
20
-160
30
0
0
VERTEX
8
Halfen
62
7
10
 1230
20
-160
30
0
0
VERTEX
8
Halfen
62
7
10
 1230
20
-775
30
0
0
SEQEND
8
Halfen
0
POLYLINE
8
Halfen
62
7
66
1
10
0.0
20
0.0
30
0.0
70
1
0
VERTEX
8
Halfen
62
7
10
 1241.25
20
-160
30
0
0
VERTEX
8
Halfen
62
7
10
 1241.25
20
-62
30
0
0
VERTEX
8
Halfen
62
7
10
 1230.75
20
-62
30
0
0
VERTEX
8
Halfen
62
7
10
 1230.75
20
-160
30
0
0
SEQEND
8
Halfen
0
POLYLINE
8
Halfen
62
7
66
1
10
0.0
20
0.0
30
0.0
70
1
0
VERTEX
8
Halfen
62
7
10
 1242
20
-62
30
0
0
VERTEX
8
Halfen
62
7
10
 1242
20
-60
30
0
0
VERTEX
8
Halfen
62
7
10
 1230
20
-60
30
0
0
VERTEX
8
Halfen
62
7
10
 1230
20
-62
30
0
0
SEQEND
8
Halfen
0
POLYLINE
8
Halfen
62
7
66
1
10
0.0
20
0.0
30
0.0
70
1
0
VERTEX
8
Halfen
62
7
10
 1241.25
20
-60
30
0
0
VERTEX
8
Halfen
62
7
10
 1241.25
20
 60
30
0
0
VERTEX
8
Halfen
62
7
10
 1230.75
20
 60
30
0
0
VERTEX
8
Halfen
62
7
10
 1230.75
20
-60
30
0
0
SEQEND
8
Halfen
0
POLYLINE
8
Halfen
62
7
66
1
10
0.0
20
0.0
30
0.0
70
1
0
VERTEX
8
Halfen
62
7
10
 1242
20
 60
30
0
0
VERTEX
8
Halfen
62
7
10
 1242
20
 62
30
0
0
VERTEX
8
Halfen
62
7
10
 1230
20
 62
30
0
0
VERTEX
8
Halfen
62
7
10
 1230
20
 60
30
0
0
SEQEND
8
Halfen
0
POLYLINE
8
Halfen
62
7
66
1
10
0.0
20
0.0
30
0.0
70
1
0
VERTEX
8
Halfen
62
7
10
 1241.25
20
 62
30
0
0
VERTEX
8
Halfen
62
7
10
 1241.25
20
 160
30
0
0
VERTEX
8
Halfen
62
7
10
 1230.75
20
 160
30
0
0
VERTEX
8
Halfen
62
7
10
 1230.75
20
 62
30
0
0
SEQEND
8
Halfen
0
POLYLINE
8
Halfen
62
7
66
1
10
0.0
20
0.0
30
0.0
70
1
0
VERTEX
8
Halfen
62
7
10
 1242
20
 160
30
0
0
VERTEX
8
Halfen
62
7
10
 1242
20
 775
30
0
0
VERTEX
8
Halfen
62
7
10
 1230
20
 775
30
0
0
VERTEX
8
Halfen
62
7
10
 1230
20
 160
30
0
0
SEQEND
8
Halfen
0
POLYLINE
8
Halfen
62
7
66
1
10
0.0
20
0.0
30
0.0
70
1
0
VERTEX
8
Halfen
62
7
10
 1460
20
-775
30
0
0
VERTEX
8
Halfen
62
7
10
 1460
20
-160
30
0
0
VERTEX
8
Halfen
62
7
10
 1448
20
-160
30
0
0
VERTEX
8
Halfen
62
7
10
 1448
20
-775
30
0
0
SEQEND
8
Halfen
0
POLYLINE
8
Halfen
62
7
66
1
10
0.0
20
0.0
30
0.0
70
1
0
VERTEX
8
Halfen
62
7
10
 1459.25
20
-160
30
0
0
VERTEX
8
Halfen
62
7
10
 1459.25
20
-62
30
0
0
VERTEX
8
Halfen
62
7
10
 1448.75
20
-62
30
0
0
VERTEX
8
Halfen
62
7
10
 1448.75
20
-160
30
0
0
SEQEND
8
Halfen
0
POLYLINE
8
Halfen
62
7
66
1
10
0.0
20
0.0
30
0.0
70
1
0
VERTEX
8
Halfen
62
7
10
 1460
20
-62
30
0
0
VERTEX
8
Halfen
62
7
10
 1460
20
-60
30
0
0
VERTEX
8
Halfen
62
7
10
 1448
20
-60
30
0
0
VERTEX
8
Halfen
62
7
10
 1448
20
-62
30
0
0
SEQEND
8
Halfen
0
POLYLINE
8
Halfen
62
7
66
1
10
0.0
20
0.0
30
0.0
70
1
0
VERTEX
8
Halfen
62
7
10
 1459.25
20
-60
30
0
0
VERTEX
8
Halfen
62
7
10
 1459.25
20
 60
30
0
0
VERTEX
8
Halfen
62
7
10
 1448.75
20
 60
30
0
0
VERTEX
8
Halfen
62
7
10
 1448.75
20
-60
30
0
0
SEQEND
8
Halfen
0
POLYLINE
8
Halfen
62
7
66
1
10
0.0
20
0.0
30
0.0
70
1
0
VERTEX
8
Halfen
62
7
10
 1460
20
 60
30
0
0
VERTEX
8
Halfen
62
7
10
 1460
20
 62
30
0
0
VERTEX
8
Halfen
62
7
10
 1448
20
 62
30
0
0
VERTEX
8
Halfen
62
7
10
 1448
20
 60
30
0
0
SEQEND
8
Halfen
0
POLYLINE
8
Halfen
62
7
66
1
10
0.0
20
0.0
30
0.0
70
1
0
VERTEX
8
Halfen
62
7
10
 1459.25
20
 62
30
0
0
VERTEX
8
Halfen
62
7
10
 1459.25
20
 160
30
0
0
VERTEX
8
Halfen
62
7
10
 1448.75
20
 160
30
0
0
VERTEX
8
Halfen
62
7
10
 1448.75
20
 62
30
0
0
SEQEND
8
Halfen
0
POLYLINE
8
Halfen
62
7
66
1
10
0.0
20
0.0
30
0.0
70
1
0
VERTEX
8
Halfen
62
7
10
 1460
20
 160
30
0
0
VERTEX
8
Halfen
62
7
10
 1460
20
 775
30
0
0
VERTEX
8
Halfen
62
7
10
 1448
20
 775
30
0
0
VERTEX
8
Halfen
62
7
10
 1448
20
 160
30
0
0
SEQEND
8
Halfen
0
POLYLINE
8
Halfen
62
7
66
1
10
0.0
20
0.0
30
0.0
70
1
0
VERTEX
8
Halfen
62
7
10
 1460
20
-819.108
30
0
0
VERTEX
8
Halfen
62
7
10
 1460
20
-104.608
30
0
0
VERTEX
8
Halfen
62
7
10
 1459.359
20
-96.789
30
0
0
VERTEX
8
Halfen
62
7
10
 1457.453
20
-89.179
30
0
0
VERTEX
8
Halfen
62
7
10
 1454.332
20
-81.981
30
0
0
VERTEX
8
Halfen
62
7
10
 1450.081
20
-75.388
30
0
0
VERTEX
8
Halfen
62
7
10
 1324.439
20
 88.352
30
0
0
VERTEX
8
Halfen
62
7
10
 1321.251
20
 93.297
30
0
0
VERTEX
8
Halfen
62
7
10
 1318.911
20
 98.695
30
0
0
VERTEX
8
Halfen
62
7
10
 1317.481
20
 104.403
30
0
0
VERTEX
8
Halfen
62
7
10
 1317
20
 110.267
30
0
0
VERTEX
8
Halfen
62
7
10
 1317
20
 163.766
30
0
0
VERTEX
8
Halfen
62
7
10
 1305
20
 163.766
30
0
0
VERTEX
8
Halfen
62
7
10
 1305
20
 110.267
30
0
0
VERTEX
8
Halfen
62
7
10
 1305.641
20
 102.448
30
0
0
VERTEX
8
Halfen
62
7
10
 1307.547
20
 94.838
30
0
0
VERTEX
8
Halfen
62
7
10
 1310.668
20
 87.64
30
0
0
VERTEX
8
Halfen
62
7
10
 1314.919
20
 81.046
30
0
0
VERTEX
8
Halfen
62
7
10
 1440.561
20
-82.693
30
0
0
VERTEX
8
Halfen
62
7
10
 1443.749
20
-87.638
30
0
0
VERTEX
8
Halfen
62
7
10
 1446.089
20
-93.037
30
0
0
VERTEX
8
Halfen
62
7
10
 1447.519
20
-98.744
30
0
0
VERTEX
8
Halfen
62
7
10
 1448
20
-104.608
30
0
0
VERTEX
8
Halfen
62
7
10
 1448
20
-819.108
30
0
0
SEQEND
8
Halfen
0
POLYLINE
8
Halfen
62
7
66
1
10
0.0
20
0.0
30
0.0
70
1
0
VERTEX
8
Halfen
62
7
10
 1317
20
 163.766
30
0
0
VERTEX
8
Halfen
62
7
10
 1317
20
 824.766
30
0
0
VERTEX
8
Halfen
62
7
10
 1305
20
 824.766
30
0
0
VERTEX
8
Halfen
62
7
10
 1305
20
 163.766
30
0
0
SEQEND
8
Halfen
0
POLYLINE
8
Halfen
62
7
66
1
10
0.0
20
0.0
30
0.0
70
1
0
VERTEX
8
Halfen
62
7
10
 1305
20
-824.767
30
0
0
VERTEX
8
Halfen
62
7
10
 1305
20
-110.267
30
0
0
VERTEX
8
Halfen
62
7
10
 1305.641
20
-102.448
30
0
0
VERTEX
8
Halfen
62
7
10
 1307.547
20
-94.838
30
0
0
VERTEX
8
Halfen
62
7
10
 1310.668
20
-87.64
30
0
0
VERTEX
8
Halfen
62
7
10
 1314.919
20
-81.046
30
0
0
VERTEX
8
Halfen
62
7
10
 1440.561
20
 82.693
30
0
0
VERTEX
8
Halfen
62
7
10
 1443.749
20
 87.638
30
0
0
VERTEX
8
Halfen
62
7
10
 1446.089
20
 93.037
30
0
0
VERTEX
8
Halfen
62
7
10
 1447.519
20
 98.744
30
0
0
VERTEX
8
Halfen
62
7
10
 1448
20
 104.608
30
0
0
VERTEX
8
Halfen
62
7
10
 1448
20
 158.108
30
0
0
VERTEX
8
Halfen
62
7
10
 1460
20
 158.108
30
0
0
VERTEX
8
Halfen
62
7
10
 1460
20
 104.608
30
0
0
VERTEX
8
Halfen
62
7
10
 1459.359
20
 96.789
30
0
0
VERTEX
8
Halfen
62
7
10
 1457.453
20
 89.179
30
0
0
VERTEX
8
Halfen
62
7
10
 1454.332
20
 81.981
30
0
0
VERTEX
8
Halfen
62
7
10
 1450.081
20
 75.388
30
0
0
VERTEX
8
Halfen
62
7
10
 1324.439
20
-88.352
30
0
0
VERTEX
8
Halfen
62
7
10
 1321.251
20
-93.297
30
0
0
VERTEX
8
Halfen
62
7
10
 1318.911
20
-98.695
30
0
0
VERTEX
8
Halfen
62
7
10
 1317.481
20
-104.403
30
0
0
VERTEX
8
Halfen
62
7
10
 1317
20
-110.267
30
0
0
VERTEX
8
Halfen
62
7
10
 1317
20
-824.767
30
0
0
SEQEND
8
Halfen
0
POLYLINE
8
Halfen
62
7
66
1
10
0.0
20
0.0
30
0.0
70
1
0
VERTEX
8
Halfen
62
7
10
 1448
20
 158.108
30
0
0
VERTEX
8
Halfen
62
7
10
 1448
20
 819.108
30
0
0
VERTEX
8
Halfen
62
7
10
 1460
20
 819.108
30
0
0
VERTEX
8
Halfen
62
7
10
 1460
20
 158.108
30
0
0
SEQEND
8
Halfen
0
ENDSEC
0
EOF
