0
SECTION
2
HEADER
9
$EXTMIN
10
 0
20
 100
30
0.0
9
$EXTMAX
10
 0
20
 100
30
0.0
9
$LIMMIN
10
 100
20
 0
9
$LIMMAX
10
 0
20
 100
9
$PSLTSCALE
70
1
0
ENDSEC
0
SECTION
2
TABLES
0
TABLE
2
LAYER
70
2
0
LAYER
2
0
70
0
62
7
6
CONTINUOUS
0
LAYER
2
Halfen
70
0
62
7
6
CONTINUOUS
0
ENDTAB
0
ENDSEC
0
SECTION
2
ENTITIES
0
POLYLINE
8
Halfen
62
7
66
1
10
0.0
20
0.0
30
0.0
70
1
0
VERTEX
8
Halfen
62
7
10
 0
20
-73.5
30
0
0
VERTEX
8
Halfen
62
7
10
 1000
20
-73.5
30
0
0
VERTEX
8
Halfen
62
7
10
 1000
20
 73.5
30
0
0
VERTEX
8
Halfen
62
7
10
 0
20
 73.5
30
0
0
SEQEND
8
Halfen
0
POLYLINE
8
Halfen
62
7
66
1
10
0.0
20
0.0
30
0.0
70
1
0
VERTEX
8
Halfen
62
7
10
 0
20
-60
30
0
0
VERTEX
8
Halfen
62
7
10
 1000
20
-60
30
0
0
VERTEX
8
Halfen
62
7
10
 1000
20
 60
30
0
0
VERTEX
8
Halfen
62
7
10
 0
20
 60
30
0
0
SEQEND
8
Halfen
0
POLYLINE
8
Halfen
62
7
66
1
10
0.0
20
0.0
30
0.0
70
1
0
VERTEX
8
Halfen
62
7
10
 20
20
-32.5
30
0
0
VERTEX
8
Halfen
62
7
10
 37
20
-1.5
30
0
0
VERTEX
8
Halfen
62
7
10
 28
20
-1.5
30
0
0
VERTEX
8
Halfen
62
7
10
 28
20
 32.5
30
0
0
VERTEX
8
Halfen
62
7
10
 12
20
 32.5
30
0
0
VERTEX
8
Halfen
62
7
10
 12
20
-1.5
30
0
0
VERTEX
8
Halfen
62
7
10
 3
20
-1.5
30
0
0
SEQEND
8
Halfen
0
POLYLINE
8
Halfen
62
7
66
1
10
0.0
20
0.0
30
0.0
70
1
0
VERTEX
8
Halfen
62
7
10
 980
20
-32.5
30
0
0
VERTEX
8
Halfen
62
7
10
 997
20
-1.5
30
0
0
VERTEX
8
Halfen
62
7
10
 988
20
-1.5
30
0
0
VERTEX
8
Halfen
62
7
10
 988
20
 32.5
30
0
0
VERTEX
8
Halfen
62
7
10
 972
20
 32.5
30
0
0
VERTEX
8
Halfen
62
7
10
 972
20
-1.5
30
0
0
VERTEX
8
Halfen
62
7
10
 963
20
-1.5
30
0
0
SEQEND
8
Halfen
0
POLYLINE
8
Halfen
62
7
66
1
10
0.0
20
0.0
30
0.0
70
1
0
VERTEX
8
Halfen
62
7
10
 265
20
-69.3
30
0
0
VERTEX
8
Halfen
62
7
10
 265
20
-56.8
30
0
0
VERTEX
8
Halfen
62
7
10
 265
20
 69.3
30
0
0
VERTEX
8
Halfen
62
7
10
 264.958
20
 70.359
30
0
0
VERTEX
8
Halfen
62
7
10
 264.834
20
 71.412
30
0
0
VERTEX
8
Halfen
62
7
10
 264.627
20
 72.452
30
0
0
VERTEX
8
Halfen
62
7
10
 264.339
20
 73.472
30
0
0
VERTEX
8
Halfen
62
7
10
 263.972
20
 74.466
30
0
0
VERTEX
8
Halfen
62
7
10
 263.529
20
 75.429
30
0
0
VERTEX
8
Halfen
62
7
10
 263.011
20
 76.354
30
0
0
VERTEX
8
Halfen
62
7
10
 262.422
20
 77.235
30
0
0
VERTEX
8
Halfen
62
7
10
 261.765
20
 78.068
30
0
0
VERTEX
8
Halfen
62
7
10
 261.046
20
 78.846
30
0
0
VERTEX
8
Halfen
62
7
10
 260.268
20
 79.565
30
0
0
VERTEX
8
Halfen
62
7
10
 259.435
20
 80.222
30
0
0
VERTEX
8
Halfen
62
7
10
 258.554
20
 80.811
30
0
0
VERTEX
8
Halfen
62
7
10
 257.629
20
 81.329
30
0
0
VERTEX
8
Halfen
62
7
10
 256.666
20
 81.772
30
0
0
VERTEX
8
Halfen
62
7
10
 255.672
20
 82.139
30
0
0
VERTEX
8
Halfen
62
7
10
 254.652
20
 82.427
30
0
0
VERTEX
8
Halfen
62
7
10
 253.612
20
 82.634
30
0
0
VERTEX
8
Halfen
62
7
10
 252.559
20
 82.758
30
0
0
VERTEX
8
Halfen
62
7
10
 251.5
20
 82.8
30
0
0
VERTEX
8
Halfen
62
7
10
 248.5
20
 82.8
30
0
0
VERTEX
8
Halfen
62
7
10
 247.441
20
 82.758
30
0
0
VERTEX
8
Halfen
62
7
10
 246.388
20
 82.634
30
0
0
VERTEX
8
Halfen
62
7
10
 245.348
20
 82.427
30
0
0
VERTEX
8
Halfen
62
7
10
 244.328
20
 82.139
30
0
0
VERTEX
8
Halfen
62
7
10
 243.334
20
 81.772
30
0
0
VERTEX
8
Halfen
62
7
10
 242.371
20
 81.329
30
0
0
VERTEX
8
Halfen
62
7
10
 241.446
20
 80.811
30
0
0
VERTEX
8
Halfen
62
7
10
 240.565
20
 80.222
30
0
0
VERTEX
8
Halfen
62
7
10
 239.732
20
 79.565
30
0
0
VERTEX
8
Halfen
62
7
10
 238.954
20
 78.846
30
0
0
VERTEX
8
Halfen
62
7
10
 238.235
20
 78.068
30
0
0
VERTEX
8
Halfen
62
7
10
 237.578
20
 77.235
30
0
0
VERTEX
8
Halfen
62
7
10
 236.989
20
 76.354
30
0
0
VERTEX
8
Halfen
62
7
10
 236.471
20
 75.429
30
0
0
VERTEX
8
Halfen
62
7
10
 236.028
20
 74.466
30
0
0
VERTEX
8
Halfen
62
7
10
 235.661
20
 73.472
30
0
0
VERTEX
8
Halfen
62
7
10
 235.373
20
 72.452
30
0
0
VERTEX
8
Halfen
62
7
10
 235.166
20
 71.412
30
0
0
VERTEX
8
Halfen
62
7
10
 235.042
20
 70.359
30
0
0
VERTEX
8
Halfen
62
7
10
 235
20
 69.3
30
0
0
VERTEX
8
Halfen
62
7
10
 235
20
-56.8
30
0
0
VERTEX
8
Halfen
62
7
10
 235
20
-69.3
30
0
0
VERTEX
8
Halfen
62
7
10
 235.042
20
-70.359
30
0
0
VERTEX
8
Halfen
62
7
10
 235.166
20
-71.412
30
0
0
VERTEX
8
Halfen
62
7
10
 235.373
20
-72.452
30
0
0
VERTEX
8
Halfen
62
7
10
 235.661
20
-73.472
30
0
0
VERTEX
8
Halfen
62
7
10
 236.028
20
-74.466
30
0
0
VERTEX
8
Halfen
62
7
10
 236.471
20
-75.429
30
0
0
VERTEX
8
Halfen
62
7
10
 236.989
20
-76.354
30
0
0
VERTEX
8
Halfen
62
7
10
 237.578
20
-77.235
30
0
0
VERTEX
8
Halfen
62
7
10
 238.235
20
-78.068
30
0
0
VERTEX
8
Halfen
62
7
10
 238.954
20
-78.846
30
0
0
VERTEX
8
Halfen
62
7
10
 239.732
20
-79.565
30
0
0
VERTEX
8
Halfen
62
7
10
 240.565
20
-80.222
30
0
0
VERTEX
8
Halfen
62
7
10
 241.446
20
-80.811
30
0
0
VERTEX
8
Halfen
62
7
10
 242.371
20
-81.329
30
0
0
VERTEX
8
Halfen
62
7
10
 243.334
20
-81.772
30
0
0
VERTEX
8
Halfen
62
7
10
 244.328
20
-82.139
30
0
0
VERTEX
8
Halfen
62
7
10
 245.348
20
-82.427
30
0
0
VERTEX
8
Halfen
62
7
10
 246.388
20
-82.634
30
0
0
VERTEX
8
Halfen
62
7
10
 247.441
20
-82.758
30
0
0
VERTEX
8
Halfen
62
7
10
 248.5
20
-82.8
30
0
0
VERTEX
8
Halfen
62
7
10
 251.5
20
-82.8
30
0
0
VERTEX
8
Halfen
62
7
10
 252.559
20
-82.758
30
0
0
VERTEX
8
Halfen
62
7
10
 253.612
20
-82.634
30
0
0
VERTEX
8
Halfen
62
7
10
 254.652
20
-82.427
30
0
0
VERTEX
8
Halfen
62
7
10
 255.672
20
-82.139
30
0
0
VERTEX
8
Halfen
62
7
10
 256.666
20
-81.772
30
0
0
VERTEX
8
Halfen
62
7
10
 257.629
20
-81.329
30
0
0
VERTEX
8
Halfen
62
7
10
 258.554
20
-80.811
30
0
0
VERTEX
8
Halfen
62
7
10
 259.435
20
-80.222
30
0
0
VERTEX
8
Halfen
62
7
10
 260.268
20
-79.565
30
0
0
VERTEX
8
Halfen
62
7
10
 261.046
20
-78.846
30
0
0
VERTEX
8
Halfen
62
7
10
 261.765
20
-78.068
30
0
0
VERTEX
8
Halfen
62
7
10
 262.422
20
-77.235
30
0
0
VERTEX
8
Halfen
62
7
10
 263.011
20
-76.354
30
0
0
VERTEX
8
Halfen
62
7
10
 263.529
20
-75.429
30
0
0
VERTEX
8
Halfen
62
7
10
 263.972
20
-74.466
30
0
0
VERTEX
8
Halfen
62
7
10
 264.339
20
-73.472
30
0
0
VERTEX
8
Halfen
62
7
10
 264.627
20
-72.452
30
0
0
VERTEX
8
Halfen
62
7
10
 264.834
20
-71.412
30
0
0
VERTEX
8
Halfen
62
7
10
 264.958
20
-70.359
30
0
0
VERTEX
8
Halfen
62
7
10
 265
20
-69.3
30
0
0
SEQEND
8
Halfen
0
POLYLINE
8
Halfen
62
7
66
1
10
0.0
20
0.0
30
0.0
70
1
0
VERTEX
8
Halfen
62
7
10
 765
20
-69.3
30
0
0
VERTEX
8
Halfen
62
7
10
 765
20
-56.8
30
0
0
VERTEX
8
Halfen
62
7
10
 765
20
 69.3
30
0
0
VERTEX
8
Halfen
62
7
10
 764.958
20
 70.359
30
0
0
VERTEX
8
Halfen
62
7
10
 764.834
20
 71.412
30
0
0
VERTEX
8
Halfen
62
7
10
 764.627
20
 72.452
30
0
0
VERTEX
8
Halfen
62
7
10
 764.339
20
 73.472
30
0
0
VERTEX
8
Halfen
62
7
10
 763.972
20
 74.466
30
0
0
VERTEX
8
Halfen
62
7
10
 763.529
20
 75.429
30
0
0
VERTEX
8
Halfen
62
7
10
 763.011
20
 76.354
30
0
0
VERTEX
8
Halfen
62
7
10
 762.422
20
 77.235
30
0
0
VERTEX
8
Halfen
62
7
10
 761.765
20
 78.068
30
0
0
VERTEX
8
Halfen
62
7
10
 761.046
20
 78.846
30
0
0
VERTEX
8
Halfen
62
7
10
 760.268
20
 79.565
30
0
0
VERTEX
8
Halfen
62
7
10
 759.435
20
 80.222
30
0
0
VERTEX
8
Halfen
62
7
10
 758.554
20
 80.811
30
0
0
VERTEX
8
Halfen
62
7
10
 757.629
20
 81.329
30
0
0
VERTEX
8
Halfen
62
7
10
 756.666
20
 81.772
30
0
0
VERTEX
8
Halfen
62
7
10
 755.672
20
 82.139
30
0
0
VERTEX
8
Halfen
62
7
10
 754.652
20
 82.427
30
0
0
VERTEX
8
Halfen
62
7
10
 753.612
20
 82.634
30
0
0
VERTEX
8
Halfen
62
7
10
 752.559
20
 82.758
30
0
0
VERTEX
8
Halfen
62
7
10
 751.5
20
 82.8
30
0
0
VERTEX
8
Halfen
62
7
10
 748.5
20
 82.8
30
0
0
VERTEX
8
Halfen
62
7
10
 747.441
20
 82.758
30
0
0
VERTEX
8
Halfen
62
7
10
 746.388
20
 82.634
30
0
0
VERTEX
8
Halfen
62
7
10
 745.348
20
 82.427
30
0
0
VERTEX
8
Halfen
62
7
10
 744.328
20
 82.139
30
0
0
VERTEX
8
Halfen
62
7
10
 743.334
20
 81.772
30
0
0
VERTEX
8
Halfen
62
7
10
 742.371
20
 81.329
30
0
0
VERTEX
8
Halfen
62
7
10
 741.446
20
 80.811
30
0
0
VERTEX
8
Halfen
62
7
10
 740.565
20
 80.222
30
0
0
VERTEX
8
Halfen
62
7
10
 739.732
20
 79.565
30
0
0
VERTEX
8
Halfen
62
7
10
 738.954
20
 78.846
30
0
0
VERTEX
8
Halfen
62
7
10
 738.235
20
 78.068
30
0
0
VERTEX
8
Halfen
62
7
10
 737.578
20
 77.235
30
0
0
VERTEX
8
Halfen
62
7
10
 736.989
20
 76.354
30
0
0
VERTEX
8
Halfen
62
7
10
 736.471
20
 75.429
30
0
0
VERTEX
8
Halfen
62
7
10
 736.028
20
 74.466
30
0
0
VERTEX
8
Halfen
62
7
10
 735.661
20
 73.472
30
0
0
VERTEX
8
Halfen
62
7
10
 735.373
20
 72.452
30
0
0
VERTEX
8
Halfen
62
7
10
 735.166
20
 71.412
30
0
0
VERTEX
8
Halfen
62
7
10
 735.042
20
 70.359
30
0
0
VERTEX
8
Halfen
62
7
10
 735
20
 69.3
30
0
0
VERTEX
8
Halfen
62
7
10
 735
20
-56.8
30
0
0
VERTEX
8
Halfen
62
7
10
 735
20
-69.3
30
0
0
VERTEX
8
Halfen
62
7
10
 735.042
20
-70.359
30
0
0
VERTEX
8
Halfen
62
7
10
 735.166
20
-71.412
30
0
0
VERTEX
8
Halfen
62
7
10
 735.373
20
-72.452
30
0
0
VERTEX
8
Halfen
62
7
10
 735.661
20
-73.472
30
0
0
VERTEX
8
Halfen
62
7
10
 736.028
20
-74.466
30
0
0
VERTEX
8
Halfen
62
7
10
 736.471
20
-75.429
30
0
0
VERTEX
8
Halfen
62
7
10
 736.989
20
-76.354
30
0
0
VERTEX
8
Halfen
62
7
10
 737.578
20
-77.235
30
0
0
VERTEX
8
Halfen
62
7
10
 738.235
20
-78.068
30
0
0
VERTEX
8
Halfen
62
7
10
 738.954
20
-78.846
30
0
0
VERTEX
8
Halfen
62
7
10
 739.732
20
-79.565
30
0
0
VERTEX
8
Halfen
62
7
10
 740.565
20
-80.222
30
0
0
VERTEX
8
Halfen
62
7
10
 741.446
20
-80.811
30
0
0
VERTEX
8
Halfen
62
7
10
 742.371
20
-81.329
30
0
0
VERTEX
8
Halfen
62
7
10
 743.334
20
-81.772
30
0
0
VERTEX
8
Halfen
62
7
10
 744.328
20
-82.139
30
0
0
VERTEX
8
Halfen
62
7
10
 745.348
20
-82.427
30
0
0
VERTEX
8
Halfen
62
7
10
 746.388
20
-82.634
30
0
0
VERTEX
8
Halfen
62
7
10
 747.441
20
-82.758
30
0
0
VERTEX
8
Halfen
62
7
10
 748.5
20
-82.8
30
0
0
VERTEX
8
Halfen
62
7
10
 751.5
20
-82.8
30
0
0
VERTEX
8
Halfen
62
7
10
 752.559
20
-82.758
30
0
0
VERTEX
8
Halfen
62
7
10
 753.612
20
-82.634
30
0
0
VERTEX
8
Halfen
62
7
10
 754.652
20
-82.427
30
0
0
VERTEX
8
Halfen
62
7
10
 755.672
20
-82.139
30
0
0
VERTEX
8
Halfen
62
7
10
 756.666
20
-81.772
30
0
0
VERTEX
8
Halfen
62
7
10
 757.629
20
-81.329
30
0
0
VERTEX
8
Halfen
62
7
10
 758.554
20
-80.811
30
0
0
VERTEX
8
Halfen
62
7
10
 759.435
20
-80.222
30
0
0
VERTEX
8
Halfen
62
7
10
 760.268
20
-79.565
30
0
0
VERTEX
8
Halfen
62
7
10
 761.046
20
-78.846
30
0
0
VERTEX
8
Halfen
62
7
10
 761.765
20
-78.068
30
0
0
VERTEX
8
Halfen
62
7
10
 762.422
20
-77.235
30
0
0
VERTEX
8
Halfen
62
7
10
 763.011
20
-76.354
30
0
0
VERTEX
8
Halfen
62
7
10
 763.529
20
-75.429
30
0
0
VERTEX
8
Halfen
62
7
10
 763.972
20
-74.466
30
0
0
VERTEX
8
Halfen
62
7
10
 764.339
20
-73.472
30
0
0
VERTEX
8
Halfen
62
7
10
 764.627
20
-72.452
30
0
0
VERTEX
8
Halfen
62
7
10
 764.834
20
-71.412
30
0
0
VERTEX
8
Halfen
62
7
10
 764.958
20
-70.359
30
0
0
VERTEX
8
Halfen
62
7
10
 765
20
-69.3
30
0
0
SEQEND
8
Halfen
0
POLYLINE
8
Halfen
62
7
66
1
10
0.0
20
0.0
30
0.0
70
1
0
VERTEX
8
Halfen
62
7
10
 194
20
-576.569
30
0
0
VERTEX
8
Halfen
62
7
10
 194
20
 635.197
30
0
0
VERTEX
8
Halfen
62
7
10
 186
20
 635.197
30
0
0
VERTEX
8
Halfen
62
7
10
 186
20
-576.569
30
0
0
SEQEND
8
Halfen
0
POLYLINE
8
Halfen
62
7
66
1
10
0.0
20
0.0
30
0.0
70
1
0
VERTEX
8
Halfen
62
7
10
 324
20
-576.569
30
0
0
VERTEX
8
Halfen
62
7
10
 324
20
 635.197
30
0
0
VERTEX
8
Halfen
62
7
10
 316
20
 635.197
30
0
0
VERTEX
8
Halfen
62
7
10
 316
20
-576.569
30
0
0
SEQEND
8
Halfen
0
POLYLINE
8
Halfen
62
7
66
1
10
0.0
20
0.0
30
0.0
70
1
0
VERTEX
8
Halfen
62
7
10
 694
20
-576.569
30
0
0
VERTEX
8
Halfen
62
7
10
 694
20
 635.197
30
0
0
VERTEX
8
Halfen
62
7
10
 686
20
 635.197
30
0
0
VERTEX
8
Halfen
62
7
10
 686
20
-576.569
30
0
0
SEQEND
8
Halfen
0
POLYLINE
8
Halfen
62
7
66
1
10
0.0
20
0.0
30
0.0
70
1
0
VERTEX
8
Halfen
62
7
10
 824
20
-576.569
30
0
0
VERTEX
8
Halfen
62
7
10
 824
20
 635.197
30
0
0
VERTEX
8
Halfen
62
7
10
 816
20
 635.197
30
0
0
VERTEX
8
Halfen
62
7
10
 816
20
-576.569
30
0
0
SEQEND
8
Halfen
0
POLYLINE
8
Halfen
62
7
66
1
10
0.0
20
0.0
30
0.0
70
1
0
VERTEX
8
Halfen
62
7
10
 814
20
-576.569
30
0
0
VERTEX
8
Halfen
62
7
10
 814
20
 635.197
30
0
0
VERTEX
8
Halfen
62
7
10
 806
20
 635.197
30
0
0
VERTEX
8
Halfen
62
7
10
 806
20
-576.569
30
0
0
SEQEND
8
Halfen
0
POLYLINE
8
Halfen
62
7
66
1
10
0.0
20
0.0
30
0.0
70
1
0
VERTEX
8
Halfen
62
7
10
 684
20
-576.569
30
0
0
VERTEX
8
Halfen
62
7
10
 684
20
 635.197
30
0
0
VERTEX
8
Halfen
62
7
10
 676
20
 635.197
30
0
0
VERTEX
8
Halfen
62
7
10
 676
20
-576.569
30
0
0
SEQEND
8
Halfen
0
POLYLINE
8
Halfen
62
7
66
1
10
0.0
20
0.0
30
0.0
70
1
0
VERTEX
8
Halfen
62
7
10
 314
20
-576.569
30
0
0
VERTEX
8
Halfen
62
7
10
 314
20
 635.197
30
0
0
VERTEX
8
Halfen
62
7
10
 306
20
 635.197
30
0
0
VERTEX
8
Halfen
62
7
10
 306
20
-576.569
30
0
0
SEQEND
8
Halfen
0
POLYLINE
8
Halfen
62
7
66
1
10
0.0
20
0.0
30
0.0
70
1
0
VERTEX
8
Halfen
62
7
10
 184
20
-576.569
30
0
0
VERTEX
8
Halfen
62
7
10
 184
20
 635.197
30
0
0
VERTEX
8
Halfen
62
7
10
 176
20
 635.197
30
0
0
VERTEX
8
Halfen
62
7
10
 176
20
-576.569
30
0
0
SEQEND
8
Halfen
0
POLYLINE
8
Halfen
62
7
66
1
10
0.0
20
0.0
30
0.0
70
1
0
VERTEX
8
Halfen
62
7
10
 1520
20
-60
30
0
0
VERTEX
8
Halfen
62
7
10
 1520
20
 60
30
0
0
VERTEX
8
Halfen
62
7
10
 1506.5
20
 73.5
30
0
0
VERTEX
8
Halfen
62
7
10
 1506.5
20
 60
30
0
0
VERTEX
8
Halfen
62
7
10
 1250
20
 60
30
0
0
VERTEX
8
Halfen
62
7
10
 1250
20
-60
30
0
0
VERTEX
8
Halfen
62
7
10
 1506.5
20
-60
30
0
0
VERTEX
8
Halfen
62
7
10
 1506.5
20
-73.5
30
0
0
SEQEND
8
Halfen
0
POLYLINE
8
Halfen
62
7
66
1
10
0.0
20
0.0
30
0.0
70
1
0
VERTEX
8
Halfen
62
7
10
 1250
20
-60
30
0
0
VERTEX
8
Halfen
62
7
10
 1250
20
 60
30
0
0
VERTEX
8
Halfen
62
7
10
 1213.5
20
 60
30
0
0
VERTEX
8
Halfen
62
7
10
 1213.5
20
 73.5
30
0
0
VERTEX
8
Halfen
62
7
10
 1200
20
 60
30
0
0
VERTEX
8
Halfen
62
7
10
 1200
20
-60
30
0
0
VERTEX
8
Halfen
62
7
10
 1213.5
20
-73.5
30
0
0
VERTEX
8
Halfen
62
7
10
 1213.5
20
-60
30
0
0
SEQEND
8
Halfen
0
POLYLINE
8
Halfen
62
7
66
1
10
0.0
20
0.0
30
0.0
70
1
0
VERTEX
8
Halfen
62
7
10
 1517.5
20
-58.75
30
0
0
VERTEX
8
Halfen
62
7
10
 1517.5
20
 58.75
30
0
0
VERTEX
8
Halfen
62
7
10
 1509
20
 67.25
30
0
0
VERTEX
8
Halfen
62
7
10
 1509
20
 58
30
0
0
VERTEX
8
Halfen
62
7
10
 1252
20
 58
30
0
0
VERTEX
8
Halfen
62
7
10
 1252
20
-58
30
0
0
VERTEX
8
Halfen
62
7
10
 1509
20
-58
30
0
0
VERTEX
8
Halfen
62
7
10
 1509
20
-67.25
30
0
0
SEQEND
8
Halfen
0
POLYLINE
8
Halfen
62
7
66
1
10
0.0
20
0.0
30
0.0
70
1
0
VERTEX
8
Halfen
62
7
10
 1248
20
-58
30
0
0
VERTEX
8
Halfen
62
7
10
 1248
20
 58
30
0
0
VERTEX
8
Halfen
62
7
10
 1211
20
 58
30
0
0
VERTEX
8
Halfen
62
7
10
 1211
20
 67.25
30
0
0
VERTEX
8
Halfen
62
7
10
 1202.5
20
 58.75
30
0
0
VERTEX
8
Halfen
62
7
10
 1202.5
20
-58.75
30
0
0
VERTEX
8
Halfen
62
7
10
 1211
20
-67.25
30
0
0
VERTEX
8
Halfen
62
7
10
 1211
20
-58
30
0
0
SEQEND
8
Halfen
0
POLYLINE
8
Halfen
62
7
66
1
10
0.0
20
0.0
30
0.0
70
1
0
VERTEX
8
Halfen
62
7
10
 1505
20
-81.8
30
0
0
VERTEX
8
Halfen
62
7
10
 1505
20
 81.8
30
0
0
VERTEX
8
Halfen
62
7
10
 1501
20
 81.8
30
0
0
VERTEX
8
Halfen
62
7
10
 1500.846
20
 81.797
30
0
0
VERTEX
8
Halfen
62
7
10
 1500.691
20
 81.786
30
0
0
VERTEX
8
Halfen
62
7
10
 1500.538
20
 81.769
30
0
0
VERTEX
8
Halfen
62
7
10
 1500.385
20
 81.746
30
0
0
VERTEX
8
Halfen
62
7
10
 1500.234
20
 81.715
30
0
0
VERTEX
8
Halfen
62
7
10
 1500.084
20
 81.678
30
0
0
VERTEX
8
Halfen
62
7
10
 1499.936
20
 81.634
30
0
0
VERTEX
8
Halfen
62
7
10
 1499.789
20
 81.584
30
0
0
VERTEX
8
Halfen
62
7
10
 1499.646
20
 81.527
30
0
0
VERTEX
8
Halfen
62
7
10
 1499.505
20
 81.464
30
0
0
VERTEX
8
Halfen
62
7
10
 1499.366
20
 81.395
30
0
0
VERTEX
8
Halfen
62
7
10
 1499.231
20
 81.32
30
0
0
VERTEX
8
Halfen
62
7
10
 1499.1
20
 81.239
30
0
0
VERTEX
8
Halfen
62
7
10
 1498.972
20
 81.153
30
0
0
VERTEX
8
Halfen
62
7
10
 1498.848
20
 81.06
30
0
0
VERTEX
8
Halfen
62
7
10
 1498.728
20
 80.963
30
0
0
VERTEX
8
Halfen
62
7
10
 1498.613
20
 80.86
30
0
0
VERTEX
8
Halfen
62
7
10
 1498.502
20
 80.752
30
0
0
VERTEX
8
Halfen
62
7
10
 1498.397
20
 80.639
30
0
0
VERTEX
8
Halfen
62
7
10
 1498.296
20
 80.522
30
0
0
VERTEX
8
Halfen
62
7
10
 1497.41
20
 79.491
30
0
0
VERTEX
8
Halfen
62
7
10
 1496.479
20
 78.5
30
0
0
VERTEX
8
Halfen
62
7
10
 1495.505
20
 77.551
30
0
0
VERTEX
8
Halfen
62
7
10
 1494.491
20
 76.646
30
0
0
VERTEX
8
Halfen
62
7
10
 1493.437
20
 75.787
30
0
0
VERTEX
8
Halfen
62
7
10
 1492.347
20
 74.975
30
0
0
VERTEX
8
Halfen
62
7
10
 1491.222
20
 74.211
30
0
0
VERTEX
8
Halfen
62
7
10
 1490.064
20
 73.499
30
0
0
VERTEX
8
Halfen
62
7
10
 1488.876
20
 72.838
30
0
0
VERTEX
8
Halfen
62
7
10
 1487.66
20
 72.23
30
0
0
VERTEX
8
Halfen
62
7
10
 1486.418
20
 71.676
30
0
0
VERTEX
8
Halfen
62
7
10
 1485.153
20
 71.178
30
0
0
VERTEX
8
Halfen
62
7
10
 1483.867
20
 70.736
30
0
0
VERTEX
8
Halfen
62
7
10
 1482.563
20
 70.351
30
0
0
VERTEX
8
Halfen
62
7
10
 1481.243
20
 70.024
30
0
0
VERTEX
8
Halfen
62
7
10
 1479.911
20
 69.756
30
0
0
VERTEX
8
Halfen
62
7
10
 1478.567
20
 69.547
30
0
0
VERTEX
8
Halfen
62
7
10
 1477.216
20
 69.397
30
0
0
VERTEX
8
Halfen
62
7
10
 1475.859
20
 69.307
30
0
0
VERTEX
8
Halfen
62
7
10
 1474.5
20
 69.277
30
0
0
VERTEX
8
Halfen
62
7
10
 1452.5
20
 69.277
30
0
0
VERTEX
8
Halfen
62
7
10
 1451.141
20
 69.307
30
0
0
VERTEX
8
Halfen
62
7
10
 1449.784
20
 69.397
30
0
0
VERTEX
8
Halfen
62
7
10
 1448.433
20
 69.547
30
0
0
VERTEX
8
Halfen
62
7
10
 1447.089
20
 69.756
30
0
0
VERTEX
8
Halfen
62
7
10
 1445.757
20
 70.024
30
0
0
VERTEX
8
Halfen
62
7
10
 1444.437
20
 70.351
30
0
0
VERTEX
8
Halfen
62
7
10
 1443.133
20
 70.736
30
0
0
VERTEX
8
Halfen
62
7
10
 1441.847
20
 71.178
30
0
0
VERTEX
8
Halfen
62
7
10
 1440.582
20
 71.676
30
0
0
VERTEX
8
Halfen
62
7
10
 1439.34
20
 72.23
30
0
0
VERTEX
8
Halfen
62
7
10
 1438.124
20
 72.838
30
0
0
VERTEX
8
Halfen
62
7
10
 1436.936
20
 73.499
30
0
0
VERTEX
8
Halfen
62
7
10
 1435.778
20
 74.211
30
0
0
VERTEX
8
Halfen
62
7
10
 1434.653
20
 74.975
30
0
0
VERTEX
8
Halfen
62
7
10
 1433.563
20
 75.787
30
0
0
VERTEX
8
Halfen
62
7
10
 1432.509
20
 76.646
30
0
0
VERTEX
8
Halfen
62
7
10
 1431.495
20
 77.551
30
0
0
VERTEX
8
Halfen
62
7
10
 1430.521
20
 78.5
30
0
0
VERTEX
8
Halfen
62
7
10
 1429.59
20
 79.491
30
0
0
VERTEX
8
Halfen
62
7
10
 1428.704
20
 80.522
30
0
0
VERTEX
8
Halfen
62
7
10
 1428.603
20
 80.639
30
0
0
VERTEX
8
Halfen
62
7
10
 1428.498
20
 80.752
30
0
0
VERTEX
8
Halfen
62
7
10
 1428.387
20
 80.86
30
0
0
VERTEX
8
Halfen
62
7
10
 1428.272
20
 80.963
30
0
0
VERTEX
8
Halfen
62
7
10
 1428.152
20
 81.06
30
0
0
VERTEX
8
Halfen
62
7
10
 1428.028
20
 81.153
30
0
0
VERTEX
8
Halfen
62
7
10
 1427.9
20
 81.239
30
0
0
VERTEX
8
Halfen
62
7
10
 1427.769
20
 81.32
30
0
0
VERTEX
8
Halfen
62
7
10
 1427.634
20
 81.395
30
0
0
VERTEX
8
Halfen
62
7
10
 1427.495
20
 81.464
30
0
0
VERTEX
8
Halfen
62
7
10
 1427.354
20
 81.527
30
0
0
VERTEX
8
Halfen
62
7
10
 1427.211
20
 81.584
30
0
0
VERTEX
8
Halfen
62
7
10
 1427.064
20
 81.634
30
0
0
VERTEX
8
Halfen
62
7
10
 1426.916
20
 81.678
30
0
0
VERTEX
8
Halfen
62
7
10
 1426.766
20
 81.715
30
0
0
VERTEX
8
Halfen
62
7
10
 1426.615
20
 81.746
30
0
0
VERTEX
8
Halfen
62
7
10
 1426.462
20
 81.769
30
0
0
VERTEX
8
Halfen
62
7
10
 1426.309
20
 81.786
30
0
0
VERTEX
8
Halfen
62
7
10
 1426.154
20
 81.797
30
0
0
VERTEX
8
Halfen
62
7
10
 1426
20
 81.8
30
0
0
VERTEX
8
Halfen
62
7
10
 1422
20
 81.8
30
0
0
VERTEX
8
Halfen
62
7
10
 1422
20
-81.8
30
0
0
VERTEX
8
Halfen
62
7
10
 1426
20
-81.8
30
0
0
VERTEX
8
Halfen
62
7
10
 1426.154
20
-81.797
30
0
0
VERTEX
8
Halfen
62
7
10
 1426.309
20
-81.786
30
0
0
VERTEX
8
Halfen
62
7
10
 1426.462
20
-81.769
30
0
0
VERTEX
8
Halfen
62
7
10
 1426.615
20
-81.746
30
0
0
VERTEX
8
Halfen
62
7
10
 1426.766
20
-81.715
30
0
0
VERTEX
8
Halfen
62
7
10
 1426.916
20
-81.678
30
0
0
VERTEX
8
Halfen
62
7
10
 1427.064
20
-81.634
30
0
0
VERTEX
8
Halfen
62
7
10
 1427.211
20
-81.584
30
0
0
VERTEX
8
Halfen
62
7
10
 1427.354
20
-81.527
30
0
0
VERTEX
8
Halfen
62
7
10
 1427.495
20
-81.464
30
0
0
VERTEX
8
Halfen
62
7
10
 1427.634
20
-81.395
30
0
0
VERTEX
8
Halfen
62
7
10
 1427.769
20
-81.32
30
0
0
VERTEX
8
Halfen
62
7
10
 1427.9
20
-81.239
30
0
0
VERTEX
8
Halfen
62
7
10
 1428.028
20
-81.153
30
0
0
VERTEX
8
Halfen
62
7
10
 1428.152
20
-81.06
30
0
0
VERTEX
8
Halfen
62
7
10
 1428.272
20
-80.963
30
0
0
VERTEX
8
Halfen
62
7
10
 1428.387
20
-80.86
30
0
0
VERTEX
8
Halfen
62
7
10
 1428.498
20
-80.752
30
0
0
VERTEX
8
Halfen
62
7
10
 1428.603
20
-80.639
30
0
0
VERTEX
8
Halfen
62
7
10
 1428.704
20
-80.522
30
0
0
VERTEX
8
Halfen
62
7
10
 1429.59
20
-79.491
30
0
0
VERTEX
8
Halfen
62
7
10
 1430.521
20
-78.5
30
0
0
VERTEX
8
Halfen
62
7
10
 1431.495
20
-77.551
30
0
0
VERTEX
8
Halfen
62
7
10
 1432.509
20
-76.646
30
0
0
VERTEX
8
Halfen
62
7
10
 1433.563
20
-75.787
30
0
0
VERTEX
8
Halfen
62
7
10
 1434.653
20
-74.975
30
0
0
VERTEX
8
Halfen
62
7
10
 1435.778
20
-74.211
30
0
0
VERTEX
8
Halfen
62
7
10
 1436.936
20
-73.499
30
0
0
VERTEX
8
Halfen
62
7
10
 1438.124
20
-72.838
30
0
0
VERTEX
8
Halfen
62
7
10
 1439.34
20
-72.23
30
0
0
VERTEX
8
Halfen
62
7
10
 1440.582
20
-71.676
30
0
0
VERTEX
8
Halfen
62
7
10
 1441.847
20
-71.178
30
0
0
VERTEX
8
Halfen
62
7
10
 1443.133
20
-70.736
30
0
0
VERTEX
8
Halfen
62
7
10
 1444.437
20
-70.351
30
0
0
VERTEX
8
Halfen
62
7
10
 1445.757
20
-70.024
30
0
0
VERTEX
8
Halfen
62
7
10
 1447.089
20
-69.756
30
0
0
VERTEX
8
Halfen
62
7
10
 1448.433
20
-69.547
30
0
0
VERTEX
8
Halfen
62
7
10
 1449.784
20
-69.397
30
0
0
VERTEX
8
Halfen
62
7
10
 1451.141
20
-69.307
30
0
0
VERTEX
8
Halfen
62
7
10
 1452.5
20
-69.277
30
0
0
VERTEX
8
Halfen
62
7
10
 1474.5
20
-69.277
30
0
0
VERTEX
8
Halfen
62
7
10
 1475.859
20
-69.307
30
0
0
VERTEX
8
Halfen
62
7
10
 1477.216
20
-69.397
30
0
0
VERTEX
8
Halfen
62
7
10
 1478.567
20
-69.547
30
0
0
VERTEX
8
Halfen
62
7
10
 1479.911
20
-69.756
30
0
0
VERTEX
8
Halfen
62
7
10
 1481.243
20
-70.024
30
0
0
VERTEX
8
Halfen
62
7
10
 1482.563
20
-70.351
30
0
0
VERTEX
8
Halfen
62
7
10
 1483.867
20
-70.736
30
0
0
VERTEX
8
Halfen
62
7
10
 1485.153
20
-71.178
30
0
0
VERTEX
8
Halfen
62
7
10
 1486.418
20
-71.676
30
0
0
VERTEX
8
Halfen
62
7
10
 1487.66
20
-72.23
30
0
0
VERTEX
8
Halfen
62
7
10
 1488.876
20
-72.838
30
0
0
VERTEX
8
Halfen
62
7
10
 1490.064
20
-73.499
30
0
0
VERTEX
8
Halfen
62
7
10
 1491.222
20
-74.211
30
0
0
VERTEX
8
Halfen
62
7
10
 1492.347
20
-74.975
30
0
0
VERTEX
8
Halfen
62
7
10
 1493.437
20
-75.787
30
0
0
VERTEX
8
Halfen
62
7
10
 1494.491
20
-76.646
30
0
0
VERTEX
8
Halfen
62
7
10
 1495.505
20
-77.551
30
0
0
VERTEX
8
Halfen
62
7
10
 1496.479
20
-78.5
30
0
0
VERTEX
8
Halfen
62
7
10
 1497.41
20
-79.491
30
0
0
VERTEX
8
Halfen
62
7
10
 1498.296
20
-80.522
30
0
0
VERTEX
8
Halfen
62
7
10
 1498.397
20
-80.639
30
0
0
VERTEX
8
Halfen
62
7
10
 1498.502
20
-80.752
30
0
0
VERTEX
8
Halfen
62
7
10
 1498.613
20
-80.86
30
0
0
VERTEX
8
Halfen
62
7
10
 1498.728
20
-80.963
30
0
0
VERTEX
8
Halfen
62
7
10
 1498.848
20
-81.06
30
0
0
VERTEX
8
Halfen
62
7
10
 1498.972
20
-81.153
30
0
0
VERTEX
8
Halfen
62
7
10
 1499.1
20
-81.239
30
0
0
VERTEX
8
Halfen
62
7
10
 1499.231
20
-81.32
30
0
0
VERTEX
8
Halfen
62
7
10
 1499.366
20
-81.395
30
0
0
VERTEX
8
Halfen
62
7
10
 1499.505
20
-81.464
30
0
0
VERTEX
8
Halfen
62
7
10
 1499.646
20
-81.527
30
0
0
VERTEX
8
Halfen
62
7
10
 1499.789
20
-81.584
30
0
0
VERTEX
8
Halfen
62
7
10
 1499.936
20
-81.634
30
0
0
VERTEX
8
Halfen
62
7
10
 1500.084
20
-81.678
30
0
0
VERTEX
8
Halfen
62
7
10
 1500.234
20
-81.715
30
0
0
VERTEX
8
Halfen
62
7
10
 1500.385
20
-81.746
30
0
0
VERTEX
8
Halfen
62
7
10
 1500.538
20
-81.769
30
0
0
VERTEX
8
Halfen
62
7
10
 1500.691
20
-81.786
30
0
0
VERTEX
8
Halfen
62
7
10
 1500.846
20
-81.797
30
0
0
VERTEX
8
Halfen
62
7
10
 1501
20
-81.8
30
0
0
SEQEND
8
Halfen
0
POLYLINE
8
Halfen
62
7
66
1
10
0.0
20
0.0
30
0.0
70
1
0
VERTEX
8
Halfen
62
7
10
 1490
20
-576.569
30
0
0
VERTEX
8
Halfen
62
7
10
 1490
20
-88.284
30
0
0
VERTEX
8
Halfen
62
7
10
 1489.606
20
-83.278
30
0
0
VERTEX
8
Halfen
62
7
10
 1488.434
20
-78.396
30
0
0
VERTEX
8
Halfen
62
7
10
 1486.512
20
-73.757
30
0
0
VERTEX
8
Halfen
62
7
10
 1483.889
20
-69.475
30
0
0
VERTEX
8
Halfen
62
7
10
 1480.627
20
-65.657
30
0
0
VERTEX
8
Halfen
62
7
10
 1285.029
20
 129.941
30
0
0
VERTEX
8
Halfen
62
7
10
 1282.584
20
 132.805
30
0
0
VERTEX
8
Halfen
62
7
10
 1280.616
20
 136.016
30
0
0
VERTEX
8
Halfen
62
7
10
 1279.175
20
 139.495
30
0
0
VERTEX
8
Halfen
62
7
10
 1278.295
20
 143.157
30
0
0
VERTEX
8
Halfen
62
7
10
 1278
20
 146.912
30
0
0
VERTEX
8
Halfen
62
7
10
 1278
20
 635.197
30
0
0
VERTEX
8
Halfen
62
7
10
 1270
20
 635.197
30
0
0
VERTEX
8
Halfen
62
7
10
 1270
20
 146.912
30
0
0
VERTEX
8
Halfen
62
7
10
 1270.394
20
 141.906
30
0
0
VERTEX
8
Halfen
62
7
10
 1271.566
20
 137.023
30
0
0
VERTEX
8
Halfen
62
7
10
 1273.488
20
 132.384
30
0
0
VERTEX
8
Halfen
62
7
10
 1276.111
20
 128.103
30
0
0
VERTEX
8
Halfen
62
7
10
 1279.373
20
 124.284
30
0
0
VERTEX
8
Halfen
62
7
10
 1474.971
20
-71.314
30
0
0
VERTEX
8
Halfen
62
7
10
 1477.416
20
-74.177
30
0
0
VERTEX
8
Halfen
62
7
10
 1479.384
20
-77.388
30
0
0
VERTEX
8
Halfen
62
7
10
 1480.825
20
-80.868
30
0
0
VERTEX
8
Halfen
62
7
10
 1481.705
20
-84.53
30
0
0
VERTEX
8
Halfen
62
7
10
 1482
20
-88.284
30
0
0
VERTEX
8
Halfen
62
7
10
 1482
20
-576.569
30
0
0
SEQEND
8
Halfen
0
POLYLINE
8
Halfen
62
7
66
1
10
0.0
20
0.0
30
0.0
70
1
0
VERTEX
8
Halfen
62
7
10
 1270
20
-576.569
30
0
0
VERTEX
8
Halfen
62
7
10
 1270
20
-88.284
30
0
0
VERTEX
8
Halfen
62
7
10
 1270.394
20
-83.278
30
0
0
VERTEX
8
Halfen
62
7
10
 1271.566
20
-78.396
30
0
0
VERTEX
8
Halfen
62
7
10
 1273.488
20
-73.757
30
0
0
VERTEX
8
Halfen
62
7
10
 1276.111
20
-69.475
30
0
0
VERTEX
8
Halfen
62
7
10
 1279.373
20
-65.657
30
0
0
VERTEX
8
Halfen
62
7
10
 1474.971
20
 129.941
30
0
0
VERTEX
8
Halfen
62
7
10
 1477.416
20
 132.805
30
0
0
VERTEX
8
Halfen
62
7
10
 1479.384
20
 136.016
30
0
0
VERTEX
8
Halfen
62
7
10
 1480.825
20
 139.495
30
0
0
VERTEX
8
Halfen
62
7
10
 1481.705
20
 143.157
30
0
0
VERTEX
8
Halfen
62
7
10
 1482
20
 146.912
30
0
0
VERTEX
8
Halfen
62
7
10
 1482
20
 635.197
30
0
0
VERTEX
8
Halfen
62
7
10
 1490
20
 635.197
30
0
0
VERTEX
8
Halfen
62
7
10
 1490
20
 146.912
30
0
0
VERTEX
8
Halfen
62
7
10
 1489.606
20
 141.906
30
0
0
VERTEX
8
Halfen
62
7
10
 1488.434
20
 137.023
30
0
0
VERTEX
8
Halfen
62
7
10
 1486.512
20
 132.384
30
0
0
VERTEX
8
Halfen
62
7
10
 1483.889
20
 128.103
30
0
0
VERTEX
8
Halfen
62
7
10
 1480.627
20
 124.284
30
0
0
VERTEX
8
Halfen
62
7
10
 1285.029
20
-71.314
30
0
0
VERTEX
8
Halfen
62
7
10
 1282.584
20
-74.177
30
0
0
VERTEX
8
Halfen
62
7
10
 1280.616
20
-77.388
30
0
0
VERTEX
8
Halfen
62
7
10
 1279.175
20
-80.868
30
0
0
VERTEX
8
Halfen
62
7
10
 1278.295
20
-84.53
30
0
0
VERTEX
8
Halfen
62
7
10
 1278
20
-88.284
30
0
0
VERTEX
8
Halfen
62
7
10
 1278
20
-576.569
30
0
0
SEQEND
8
Halfen
0
ENDSEC
0
EOF
