0
SECTION
2
HEADER
9
$EXTMIN
10
 0
20
 100
30
0.0
9
$EXTMAX
10
 0
20
 100
30
0.0
9
$LIMMIN
10
 100
20
 0
9
$LIMMAX
10
 0
20
 100
9
$PSLTSCALE
70
1
0
ENDSEC
0
SECTION
2
TABLES
0
TABLE
2
LAYER
70
2
0
LAYER
2
0
70
0
62
7
6
CONTINUOUS
0
LAYER
2
Halfen
70
0
62
7
6
CONTINUOUS
0
ENDTAB
0
ENDSEC
0
SECTION
2
ENTITIES
0
POLYLINE
8
Halfen
62
7
66
1
10
0.0
20
0.0
30
0.0
70
1
0
VERTEX
8
Halfen
62
7
10
 0
20
-73.5
30
0
0
VERTEX
8
Halfen
62
7
10
 1000
20
-73.5
30
0
0
VERTEX
8
Halfen
62
7
10
 1000
20
 73.5
30
0
0
VERTEX
8
Halfen
62
7
10
 0
20
 73.5
30
0
0
SEQEND
8
Halfen
0
POLYLINE
8
Halfen
62
7
66
1
10
0.0
20
0.0
30
0.0
70
1
0
VERTEX
8
Halfen
62
7
10
 0
20
-60
30
0
0
VERTEX
8
Halfen
62
7
10
 1000
20
-60
30
0
0
VERTEX
8
Halfen
62
7
10
 1000
20
 60
30
0
0
VERTEX
8
Halfen
62
7
10
 0
20
 60
30
0
0
SEQEND
8
Halfen
0
POLYLINE
8
Halfen
62
7
66
1
10
0.0
20
0.0
30
0.0
70
1
0
VERTEX
8
Halfen
62
7
10
 20
20
-32.5
30
0
0
VERTEX
8
Halfen
62
7
10
 37
20
-1.5
30
0
0
VERTEX
8
Halfen
62
7
10
 28
20
-1.5
30
0
0
VERTEX
8
Halfen
62
7
10
 28
20
 32.5
30
0
0
VERTEX
8
Halfen
62
7
10
 12
20
 32.5
30
0
0
VERTEX
8
Halfen
62
7
10
 12
20
-1.5
30
0
0
VERTEX
8
Halfen
62
7
10
 3
20
-1.5
30
0
0
SEQEND
8
Halfen
0
POLYLINE
8
Halfen
62
7
66
1
10
0.0
20
0.0
30
0.0
70
1
0
VERTEX
8
Halfen
62
7
10
 980
20
-32.5
30
0
0
VERTEX
8
Halfen
62
7
10
 997
20
-1.5
30
0
0
VERTEX
8
Halfen
62
7
10
 988
20
-1.5
30
0
0
VERTEX
8
Halfen
62
7
10
 988
20
 32.5
30
0
0
VERTEX
8
Halfen
62
7
10
 972
20
 32.5
30
0
0
VERTEX
8
Halfen
62
7
10
 972
20
-1.5
30
0
0
VERTEX
8
Halfen
62
7
10
 963
20
-1.5
30
0
0
SEQEND
8
Halfen
0
POLYLINE
8
Halfen
62
7
66
1
10
0.0
20
0.0
30
0.0
70
1
0
VERTEX
8
Halfen
62
7
10
 88
20
-575.304
30
0
0
VERTEX
8
Halfen
62
7
10
 88
20
 585.215
30
0
0
VERTEX
8
Halfen
62
7
10
 80
20
 585.215
30
0
0
VERTEX
8
Halfen
62
7
10
 80
20
-575.304
30
0
0
SEQEND
8
Halfen
0
POLYLINE
8
Halfen
62
7
66
1
10
0.0
20
0.0
30
0.0
70
1
0
VERTEX
8
Halfen
62
7
10
 174
20
-575.304
30
0
0
VERTEX
8
Halfen
62
7
10
 174
20
 585.215
30
0
0
VERTEX
8
Halfen
62
7
10
 166
20
 585.215
30
0
0
VERTEX
8
Halfen
62
7
10
 166
20
-575.304
30
0
0
SEQEND
8
Halfen
0
POLYLINE
8
Halfen
62
7
66
1
10
0.0
20
0.0
30
0.0
70
1
0
VERTEX
8
Halfen
62
7
10
 260
20
-575.304
30
0
0
VERTEX
8
Halfen
62
7
10
 260
20
 585.215
30
0
0
VERTEX
8
Halfen
62
7
10
 252
20
 585.215
30
0
0
VERTEX
8
Halfen
62
7
10
 252
20
-575.304
30
0
0
SEQEND
8
Halfen
0
POLYLINE
8
Halfen
62
7
66
1
10
0.0
20
0.0
30
0.0
70
1
0
VERTEX
8
Halfen
62
7
10
 346
20
-575.304
30
0
0
VERTEX
8
Halfen
62
7
10
 346
20
 585.215
30
0
0
VERTEX
8
Halfen
62
7
10
 338
20
 585.215
30
0
0
VERTEX
8
Halfen
62
7
10
 338
20
-575.304
30
0
0
SEQEND
8
Halfen
0
POLYLINE
8
Halfen
62
7
66
1
10
0.0
20
0.0
30
0.0
70
1
0
VERTEX
8
Halfen
62
7
10
 432
20
-575.304
30
0
0
VERTEX
8
Halfen
62
7
10
 432
20
 585.215
30
0
0
VERTEX
8
Halfen
62
7
10
 424
20
 585.215
30
0
0
VERTEX
8
Halfen
62
7
10
 424
20
-575.304
30
0
0
SEQEND
8
Halfen
0
POLYLINE
8
Halfen
62
7
66
1
10
0.0
20
0.0
30
0.0
70
1
0
VERTEX
8
Halfen
62
7
10
 510
20
-575.304
30
0
0
VERTEX
8
Halfen
62
7
10
 510
20
 585.215
30
0
0
VERTEX
8
Halfen
62
7
10
 502
20
 585.215
30
0
0
VERTEX
8
Halfen
62
7
10
 502
20
-575.304
30
0
0
SEQEND
8
Halfen
0
POLYLINE
8
Halfen
62
7
66
1
10
0.0
20
0.0
30
0.0
70
1
0
VERTEX
8
Halfen
62
7
10
 588
20
-575.304
30
0
0
VERTEX
8
Halfen
62
7
10
 588
20
 585.215
30
0
0
VERTEX
8
Halfen
62
7
10
 580
20
 585.215
30
0
0
VERTEX
8
Halfen
62
7
10
 580
20
-575.304
30
0
0
SEQEND
8
Halfen
0
POLYLINE
8
Halfen
62
7
66
1
10
0.0
20
0.0
30
0.0
70
1
0
VERTEX
8
Halfen
62
7
10
 674
20
-575.304
30
0
0
VERTEX
8
Halfen
62
7
10
 674
20
 585.215
30
0
0
VERTEX
8
Halfen
62
7
10
 666
20
 585.215
30
0
0
VERTEX
8
Halfen
62
7
10
 666
20
-575.304
30
0
0
SEQEND
8
Halfen
0
POLYLINE
8
Halfen
62
7
66
1
10
0.0
20
0.0
30
0.0
70
1
0
VERTEX
8
Halfen
62
7
10
 760
20
-575.304
30
0
0
VERTEX
8
Halfen
62
7
10
 760
20
 585.215
30
0
0
VERTEX
8
Halfen
62
7
10
 752
20
 585.215
30
0
0
VERTEX
8
Halfen
62
7
10
 752
20
-575.304
30
0
0
SEQEND
8
Halfen
0
POLYLINE
8
Halfen
62
7
66
1
10
0.0
20
0.0
30
0.0
70
1
0
VERTEX
8
Halfen
62
7
10
 846
20
-575.304
30
0
0
VERTEX
8
Halfen
62
7
10
 846
20
 585.215
30
0
0
VERTEX
8
Halfen
62
7
10
 838
20
 585.215
30
0
0
VERTEX
8
Halfen
62
7
10
 838
20
-575.304
30
0
0
SEQEND
8
Halfen
0
POLYLINE
8
Halfen
62
7
66
1
10
0.0
20
0.0
30
0.0
70
1
0
VERTEX
8
Halfen
62
7
10
 932
20
-575.304
30
0
0
VERTEX
8
Halfen
62
7
10
 932
20
 585.215
30
0
0
VERTEX
8
Halfen
62
7
10
 924
20
 585.215
30
0
0
VERTEX
8
Halfen
62
7
10
 924
20
-575.304
30
0
0
SEQEND
8
Halfen
0
POLYLINE
8
Halfen
62
7
66
1
10
0.0
20
0.0
30
0.0
70
1
0
VERTEX
8
Halfen
62
7
10
 1420
20
-60
30
0
0
VERTEX
8
Halfen
62
7
10
 1420
20
 60
30
0
0
VERTEX
8
Halfen
62
7
10
 1406.5
20
 73.5
30
0
0
VERTEX
8
Halfen
62
7
10
 1406.5
20
 60
30
0
0
VERTEX
8
Halfen
62
7
10
 1250
20
 60
30
0
0
VERTEX
8
Halfen
62
7
10
 1250
20
-60
30
0
0
VERTEX
8
Halfen
62
7
10
 1406.5
20
-60
30
0
0
VERTEX
8
Halfen
62
7
10
 1406.5
20
-73.5
30
0
0
SEQEND
8
Halfen
0
POLYLINE
8
Halfen
62
7
66
1
10
0.0
20
0.0
30
0.0
70
1
0
VERTEX
8
Halfen
62
7
10
 1250
20
-60
30
0
0
VERTEX
8
Halfen
62
7
10
 1250
20
 60
30
0
0
VERTEX
8
Halfen
62
7
10
 1213.5
20
 60
30
0
0
VERTEX
8
Halfen
62
7
10
 1213.5
20
 73.5
30
0
0
VERTEX
8
Halfen
62
7
10
 1200
20
 60
30
0
0
VERTEX
8
Halfen
62
7
10
 1200
20
-60
30
0
0
VERTEX
8
Halfen
62
7
10
 1213.5
20
-73.5
30
0
0
VERTEX
8
Halfen
62
7
10
 1213.5
20
-60
30
0
0
SEQEND
8
Halfen
0
POLYLINE
8
Halfen
62
7
66
1
10
0.0
20
0.0
30
0.0
70
1
0
VERTEX
8
Halfen
62
7
10
 1417.5
20
-58.75
30
0
0
VERTEX
8
Halfen
62
7
10
 1417.5
20
 58.75
30
0
0
VERTEX
8
Halfen
62
7
10
 1409
20
 67.25
30
0
0
VERTEX
8
Halfen
62
7
10
 1409
20
 58
30
0
0
VERTEX
8
Halfen
62
7
10
 1252
20
 58
30
0
0
VERTEX
8
Halfen
62
7
10
 1252
20
-58
30
0
0
VERTEX
8
Halfen
62
7
10
 1409
20
-58
30
0
0
VERTEX
8
Halfen
62
7
10
 1409
20
-67.25
30
0
0
SEQEND
8
Halfen
0
POLYLINE
8
Halfen
62
7
66
1
10
0.0
20
0.0
30
0.0
70
1
0
VERTEX
8
Halfen
62
7
10
 1248
20
-58
30
0
0
VERTEX
8
Halfen
62
7
10
 1248
20
 58
30
0
0
VERTEX
8
Halfen
62
7
10
 1211
20
 58
30
0
0
VERTEX
8
Halfen
62
7
10
 1211
20
 67.25
30
0
0
VERTEX
8
Halfen
62
7
10
 1202.5
20
 58.75
30
0
0
VERTEX
8
Halfen
62
7
10
 1202.5
20
-58.75
30
0
0
VERTEX
8
Halfen
62
7
10
 1211
20
-67.25
30
0
0
VERTEX
8
Halfen
62
7
10
 1211
20
-58
30
0
0
SEQEND
8
Halfen
0
POLYLINE
8
Halfen
62
7
66
1
10
0.0
20
0.0
30
0.0
70
1
0
VERTEX
8
Halfen
62
7
10
 1390
20
-575.304
30
0
0
VERTEX
8
Halfen
62
7
10
 1390
20
-87.304
30
0
0
VERTEX
8
Halfen
62
7
10
 1389.573
20
-82.091
30
0
0
VERTEX
8
Halfen
62
7
10
 1388.302
20
-77.018
30
0
0
VERTEX
8
Halfen
62
7
10
 1386.221
20
-72.219
30
0
0
VERTEX
8
Halfen
62
7
10
 1383.387
20
-67.824
30
0
0
VERTEX
8
Halfen
62
7
10
 1267.96
20
 82.605
30
0
0
VERTEX
8
Halfen
62
7
10
 1265.834
20
 85.902
30
0
0
VERTEX
8
Halfen
62
7
10
 1264.274
20
 89.501
30
0
0
VERTEX
8
Halfen
62
7
10
 1263.321
20
 93.306
30
0
0
VERTEX
8
Halfen
62
7
10
 1263
20
 97.215
30
0
0
VERTEX
8
Halfen
62
7
10
 1263
20
 585.215
30
0
0
VERTEX
8
Halfen
62
7
10
 1255
20
 585.215
30
0
0
VERTEX
8
Halfen
62
7
10
 1255
20
 97.215
30
0
0
VERTEX
8
Halfen
62
7
10
 1255.427
20
 92.002
30
0
0
VERTEX
8
Halfen
62
7
10
 1256.698
20
 86.929
30
0
0
VERTEX
8
Halfen
62
7
10
 1258.779
20
 82.13
30
0
0
VERTEX
8
Halfen
62
7
10
 1261.613
20
 77.735
30
0
0
VERTEX
8
Halfen
62
7
10
 1377.04
20
-72.694
30
0
0
VERTEX
8
Halfen
62
7
10
 1379.166
20
-75.99
30
0
0
VERTEX
8
Halfen
62
7
10
 1380.726
20
-79.589
30
0
0
VERTEX
8
Halfen
62
7
10
 1381.679
20
-83.394
30
0
0
VERTEX
8
Halfen
62
7
10
 1382
20
-87.304
30
0
0
VERTEX
8
Halfen
62
7
10
 1382
20
-575.304
30
0
0
SEQEND
8
Halfen
0
ENDSEC
0
EOF
