0
SECTION
2
HEADER
9
$EXTMIN
10
 0
20
 100
30
0.0
9
$EXTMAX
10
 0
20
 100
30
0.0
9
$LIMMIN
10
 100
20
 0
9
$LIMMAX
10
 0
20
 100
9
$PSLTSCALE
70
1
0
ENDSEC
0
SECTION
2
TABLES
0
TABLE
2
LAYER
70
2
0
LAYER
2
0
70
0
62
7
6
CONTINUOUS
0
LAYER
2
Halfen
70
0
62
7
6
CONTINUOUS
0
ENDTAB
0
ENDSEC
0
SECTION
2
ENTITIES
0
POLYLINE
8
Halfen
62
7
66
1
10
0.0
20
0.0
30
0.0
70
1
0
VERTEX
8
Halfen
62
7
10
 0
20
-73.5
30
0
0
VERTEX
8
Halfen
62
7
10
 250
20
-73.5
30
0
0
VERTEX
8
Halfen
62
7
10
 250
20
 73.5
30
0
0
VERTEX
8
Halfen
62
7
10
 0
20
 73.5
30
0
0
SEQEND
8
Halfen
0
POLYLINE
8
Halfen
62
7
66
1
10
0.0
20
0.0
30
0.0
70
1
0
VERTEX
8
Halfen
62
7
10
 0
20
-60
30
0
0
VERTEX
8
Halfen
62
7
10
 250
20
-60
30
0
0
VERTEX
8
Halfen
62
7
10
 250
20
 60
30
0
0
VERTEX
8
Halfen
62
7
10
 0
20
 60
30
0
0
SEQEND
8
Halfen
0
POLYLINE
8
Halfen
62
7
66
1
10
0.0
20
0.0
30
0.0
70
1
0
VERTEX
8
Halfen
62
7
10
 20
20
-32.5
30
0
0
VERTEX
8
Halfen
62
7
10
 37
20
-1.5
30
0
0
VERTEX
8
Halfen
62
7
10
 28
20
-1.5
30
0
0
VERTEX
8
Halfen
62
7
10
 28
20
 32.5
30
0
0
VERTEX
8
Halfen
62
7
10
 12
20
 32.5
30
0
0
VERTEX
8
Halfen
62
7
10
 12
20
-1.5
30
0
0
VERTEX
8
Halfen
62
7
10
 3
20
-1.5
30
0
0
SEQEND
8
Halfen
0
POLYLINE
8
Halfen
62
7
66
1
10
0.0
20
0.0
30
0.0
70
1
0
VERTEX
8
Halfen
62
7
10
 230
20
-32.5
30
0
0
VERTEX
8
Halfen
62
7
10
 247
20
-1.5
30
0
0
VERTEX
8
Halfen
62
7
10
 238
20
-1.5
30
0
0
VERTEX
8
Halfen
62
7
10
 238
20
 32.5
30
0
0
VERTEX
8
Halfen
62
7
10
 222
20
 32.5
30
0
0
VERTEX
8
Halfen
62
7
10
 222
20
-1.5
30
0
0
VERTEX
8
Halfen
62
7
10
 213
20
-1.5
30
0
0
SEQEND
8
Halfen
0
POLYLINE
8
Halfen
62
7
66
1
10
0.0
20
0.0
30
0.0
70
1
0
VERTEX
8
Halfen
62
7
10
 68
20
-775
30
0
0
VERTEX
8
Halfen
62
7
10
 68
20
-160
30
0
0
VERTEX
8
Halfen
62
7
10
 56
20
-160
30
0
0
VERTEX
8
Halfen
62
7
10
 56
20
-775
30
0
0
SEQEND
8
Halfen
0
POLYLINE
8
Halfen
62
7
66
1
10
0.0
20
0.0
30
0.0
70
1
0
VERTEX
8
Halfen
62
7
10
 67.25
20
-160
30
0
0
VERTEX
8
Halfen
62
7
10
 67.25
20
-62
30
0
0
VERTEX
8
Halfen
62
7
10
 56.75
20
-62
30
0
0
VERTEX
8
Halfen
62
7
10
 56.75
20
-160
30
0
0
SEQEND
8
Halfen
0
POLYLINE
8
Halfen
62
7
66
1
10
0.0
20
0.0
30
0.0
70
1
0
VERTEX
8
Halfen
62
7
10
 68
20
-62
30
0
0
VERTEX
8
Halfen
62
7
10
 68
20
-60
30
0
0
VERTEX
8
Halfen
62
7
10
 56
20
-60
30
0
0
VERTEX
8
Halfen
62
7
10
 56
20
-62
30
0
0
SEQEND
8
Halfen
0
POLYLINE
8
Halfen
62
7
66
1
10
0.0
20
0.0
30
0.0
70
1
0
VERTEX
8
Halfen
62
7
10
 67.25
20
-60
30
0
0
VERTEX
8
Halfen
62
7
10
 67.25
20
 60
30
0
0
VERTEX
8
Halfen
62
7
10
 56.75
20
 60
30
0
0
VERTEX
8
Halfen
62
7
10
 56.75
20
-60
30
0
0
SEQEND
8
Halfen
0
POLYLINE
8
Halfen
62
7
66
1
10
0.0
20
0.0
30
0.0
70
1
0
VERTEX
8
Halfen
62
7
10
 68
20
 60
30
0
0
VERTEX
8
Halfen
62
7
10
 68
20
 62
30
0
0
VERTEX
8
Halfen
62
7
10
 56
20
 62
30
0
0
VERTEX
8
Halfen
62
7
10
 56
20
 60
30
0
0
SEQEND
8
Halfen
0
POLYLINE
8
Halfen
62
7
66
1
10
0.0
20
0.0
30
0.0
70
1
0
VERTEX
8
Halfen
62
7
10
 67.25
20
 62
30
0
0
VERTEX
8
Halfen
62
7
10
 67.25
20
 160
30
0
0
VERTEX
8
Halfen
62
7
10
 56.75
20
 160
30
0
0
VERTEX
8
Halfen
62
7
10
 56.75
20
 62
30
0
0
SEQEND
8
Halfen
0
POLYLINE
8
Halfen
62
7
66
1
10
0.0
20
0.0
30
0.0
70
1
0
VERTEX
8
Halfen
62
7
10
 68
20
 160
30
0
0
VERTEX
8
Halfen
62
7
10
 68
20
 775
30
0
0
VERTEX
8
Halfen
62
7
10
 56
20
 775
30
0
0
VERTEX
8
Halfen
62
7
10
 56
20
 160
30
0
0
SEQEND
8
Halfen
0
POLYLINE
8
Halfen
62
7
66
1
10
0.0
20
0.0
30
0.0
70
1
0
VERTEX
8
Halfen
62
7
10
 152
20
-775
30
0
0
VERTEX
8
Halfen
62
7
10
 152
20
-160
30
0
0
VERTEX
8
Halfen
62
7
10
 140
20
-160
30
0
0
VERTEX
8
Halfen
62
7
10
 140
20
-775
30
0
0
SEQEND
8
Halfen
0
POLYLINE
8
Halfen
62
7
66
1
10
0.0
20
0.0
30
0.0
70
1
0
VERTEX
8
Halfen
62
7
10
 151.25
20
-160
30
0
0
VERTEX
8
Halfen
62
7
10
 151.25
20
-62
30
0
0
VERTEX
8
Halfen
62
7
10
 140.75
20
-62
30
0
0
VERTEX
8
Halfen
62
7
10
 140.75
20
-160
30
0
0
SEQEND
8
Halfen
0
POLYLINE
8
Halfen
62
7
66
1
10
0.0
20
0.0
30
0.0
70
1
0
VERTEX
8
Halfen
62
7
10
 152
20
-62
30
0
0
VERTEX
8
Halfen
62
7
10
 152
20
-60
30
0
0
VERTEX
8
Halfen
62
7
10
 140
20
-60
30
0
0
VERTEX
8
Halfen
62
7
10
 140
20
-62
30
0
0
SEQEND
8
Halfen
0
POLYLINE
8
Halfen
62
7
66
1
10
0.0
20
0.0
30
0.0
70
1
0
VERTEX
8
Halfen
62
7
10
 151.25
20
-60
30
0
0
VERTEX
8
Halfen
62
7
10
 151.25
20
 60
30
0
0
VERTEX
8
Halfen
62
7
10
 140.75
20
 60
30
0
0
VERTEX
8
Halfen
62
7
10
 140.75
20
-60
30
0
0
SEQEND
8
Halfen
0
POLYLINE
8
Halfen
62
7
66
1
10
0.0
20
0.0
30
0.0
70
1
0
VERTEX
8
Halfen
62
7
10
 152
20
 60
30
0
0
VERTEX
8
Halfen
62
7
10
 152
20
 62
30
0
0
VERTEX
8
Halfen
62
7
10
 140
20
 62
30
0
0
VERTEX
8
Halfen
62
7
10
 140
20
 60
30
0
0
SEQEND
8
Halfen
0
POLYLINE
8
Halfen
62
7
66
1
10
0.0
20
0.0
30
0.0
70
1
0
VERTEX
8
Halfen
62
7
10
 151.25
20
 62
30
0
0
VERTEX
8
Halfen
62
7
10
 151.25
20
 160
30
0
0
VERTEX
8
Halfen
62
7
10
 140.75
20
 160
30
0
0
VERTEX
8
Halfen
62
7
10
 140.75
20
 62
30
0
0
SEQEND
8
Halfen
0
POLYLINE
8
Halfen
62
7
66
1
10
0.0
20
0.0
30
0.0
70
1
0
VERTEX
8
Halfen
62
7
10
 152
20
 160
30
0
0
VERTEX
8
Halfen
62
7
10
 152
20
 775
30
0
0
VERTEX
8
Halfen
62
7
10
 140
20
 775
30
0
0
VERTEX
8
Halfen
62
7
10
 140
20
 160
30
0
0
SEQEND
8
Halfen
0
POLYLINE
8
Halfen
62
7
66
1
10
0.0
20
0.0
30
0.0
70
1
0
VERTEX
8
Halfen
62
7
10
 98
20
-700.497
30
0
0
VERTEX
8
Halfen
62
7
10
 98
20
 162.71
30
0
0
VERTEX
8
Halfen
62
7
10
 88
20
 162.71
30
0
0
VERTEX
8
Halfen
62
7
10
 88
20
-700.497
30
0
0
SEQEND
8
Halfen
0
POLYLINE
8
Halfen
62
7
66
1
10
0.0
20
0.0
30
0.0
70
1
0
VERTEX
8
Halfen
62
7
10
 98
20
 162.71
30
0
0
VERTEX
8
Halfen
62
7
10
 98
20
 701.71
30
0
0
VERTEX
8
Halfen
62
7
10
 88
20
 701.71
30
0
0
VERTEX
8
Halfen
62
7
10
 88
20
 162.71
30
0
0
SEQEND
8
Halfen
0
POLYLINE
8
Halfen
62
7
66
1
10
0.0
20
0.0
30
0.0
70
1
0
VERTEX
8
Halfen
62
7
10
 108
20
-701.71
30
0
0
VERTEX
8
Halfen
62
7
10
 108
20
 161.497
30
0
0
VERTEX
8
Halfen
62
7
10
 98
20
 161.497
30
0
0
VERTEX
8
Halfen
62
7
10
 98
20
-701.71
30
0
0
SEQEND
8
Halfen
0
POLYLINE
8
Halfen
62
7
66
1
10
0.0
20
0.0
30
0.0
70
1
0
VERTEX
8
Halfen
62
7
10
 108
20
 161.497
30
0
0
VERTEX
8
Halfen
62
7
10
 108
20
 700.497
30
0
0
VERTEX
8
Halfen
62
7
10
 98
20
 700.497
30
0
0
VERTEX
8
Halfen
62
7
10
 98
20
 161.497
30
0
0
SEQEND
8
Halfen
0
POLYLINE
8
Halfen
62
7
66
1
10
0.0
20
0.0
30
0.0
70
1
0
VERTEX
8
Halfen
62
7
10
 720
20
-60
30
0
0
VERTEX
8
Halfen
62
7
10
 720
20
 60
30
0
0
VERTEX
8
Halfen
62
7
10
 706.5
20
 73.5
30
0
0
VERTEX
8
Halfen
62
7
10
 706.5
20
 60
30
0
0
VERTEX
8
Halfen
62
7
10
 500
20
 60
30
0
0
VERTEX
8
Halfen
62
7
10
 500
20
-60
30
0
0
VERTEX
8
Halfen
62
7
10
 706.5
20
-60
30
0
0
VERTEX
8
Halfen
62
7
10
 706.5
20
-73.5
30
0
0
SEQEND
8
Halfen
0
POLYLINE
8
Halfen
62
7
66
1
10
0.0
20
0.0
30
0.0
70
1
0
VERTEX
8
Halfen
62
7
10
 500
20
-60
30
0
0
VERTEX
8
Halfen
62
7
10
 500
20
 60
30
0
0
VERTEX
8
Halfen
62
7
10
 463.5
20
 60
30
0
0
VERTEX
8
Halfen
62
7
10
 463.5
20
 73.5
30
0
0
VERTEX
8
Halfen
62
7
10
 450
20
 60
30
0
0
VERTEX
8
Halfen
62
7
10
 450
20
-60
30
0
0
VERTEX
8
Halfen
62
7
10
 463.5
20
-73.5
30
0
0
VERTEX
8
Halfen
62
7
10
 463.5
20
-60
30
0
0
SEQEND
8
Halfen
0
POLYLINE
8
Halfen
62
7
66
1
10
0.0
20
0.0
30
0.0
70
1
0
VERTEX
8
Halfen
62
7
10
 717.5
20
-58.75
30
0
0
VERTEX
8
Halfen
62
7
10
 717.5
20
 58.75
30
0
0
VERTEX
8
Halfen
62
7
10
 709
20
 67.25
30
0
0
VERTEX
8
Halfen
62
7
10
 709
20
 58
30
0
0
VERTEX
8
Halfen
62
7
10
 502
20
 58
30
0
0
VERTEX
8
Halfen
62
7
10
 502
20
-58
30
0
0
VERTEX
8
Halfen
62
7
10
 709
20
-58
30
0
0
VERTEX
8
Halfen
62
7
10
 709
20
-67.25
30
0
0
SEQEND
8
Halfen
0
POLYLINE
8
Halfen
62
7
66
1
10
0.0
20
0.0
30
0.0
70
1
0
VERTEX
8
Halfen
62
7
10
 498
20
-58
30
0
0
VERTEX
8
Halfen
62
7
10
 498
20
 58
30
0
0
VERTEX
8
Halfen
62
7
10
 461
20
 58
30
0
0
VERTEX
8
Halfen
62
7
10
 461
20
 67.25
30
0
0
VERTEX
8
Halfen
62
7
10
 452.5
20
 58.75
30
0
0
VERTEX
8
Halfen
62
7
10
 452.5
20
-58.75
30
0
0
VERTEX
8
Halfen
62
7
10
 461
20
-67.25
30
0
0
VERTEX
8
Halfen
62
7
10
 461
20
-58
30
0
0
SEQEND
8
Halfen
0
POLYLINE
8
Halfen
62
7
66
1
10
0.0
20
0.0
30
0.0
70
1
0
VERTEX
8
Halfen
62
7
10
 492
20
-775
30
0
0
VERTEX
8
Halfen
62
7
10
 492
20
-160
30
0
0
VERTEX
8
Halfen
62
7
10
 480
20
-160
30
0
0
VERTEX
8
Halfen
62
7
10
 480
20
-775
30
0
0
SEQEND
8
Halfen
0
POLYLINE
8
Halfen
62
7
66
1
10
0.0
20
0.0
30
0.0
70
1
0
VERTEX
8
Halfen
62
7
10
 491.25
20
-160
30
0
0
VERTEX
8
Halfen
62
7
10
 491.25
20
-62
30
0
0
VERTEX
8
Halfen
62
7
10
 480.75
20
-62
30
0
0
VERTEX
8
Halfen
62
7
10
 480.75
20
-160
30
0
0
SEQEND
8
Halfen
0
POLYLINE
8
Halfen
62
7
66
1
10
0.0
20
0.0
30
0.0
70
1
0
VERTEX
8
Halfen
62
7
10
 492
20
-62
30
0
0
VERTEX
8
Halfen
62
7
10
 492
20
-60
30
0
0
VERTEX
8
Halfen
62
7
10
 480
20
-60
30
0
0
VERTEX
8
Halfen
62
7
10
 480
20
-62
30
0
0
SEQEND
8
Halfen
0
POLYLINE
8
Halfen
62
7
66
1
10
0.0
20
0.0
30
0.0
70
1
0
VERTEX
8
Halfen
62
7
10
 491.25
20
-60
30
0
0
VERTEX
8
Halfen
62
7
10
 491.25
20
 60
30
0
0
VERTEX
8
Halfen
62
7
10
 480.75
20
 60
30
0
0
VERTEX
8
Halfen
62
7
10
 480.75
20
-60
30
0
0
SEQEND
8
Halfen
0
POLYLINE
8
Halfen
62
7
66
1
10
0.0
20
0.0
30
0.0
70
1
0
VERTEX
8
Halfen
62
7
10
 492
20
 60
30
0
0
VERTEX
8
Halfen
62
7
10
 492
20
 62
30
0
0
VERTEX
8
Halfen
62
7
10
 480
20
 62
30
0
0
VERTEX
8
Halfen
62
7
10
 480
20
 60
30
0
0
SEQEND
8
Halfen
0
POLYLINE
8
Halfen
62
7
66
1
10
0.0
20
0.0
30
0.0
70
1
0
VERTEX
8
Halfen
62
7
10
 491.25
20
 62
30
0
0
VERTEX
8
Halfen
62
7
10
 491.25
20
 160
30
0
0
VERTEX
8
Halfen
62
7
10
 480.75
20
 160
30
0
0
VERTEX
8
Halfen
62
7
10
 480.75
20
 62
30
0
0
SEQEND
8
Halfen
0
POLYLINE
8
Halfen
62
7
66
1
10
0.0
20
0.0
30
0.0
70
1
0
VERTEX
8
Halfen
62
7
10
 492
20
 160
30
0
0
VERTEX
8
Halfen
62
7
10
 492
20
 775
30
0
0
VERTEX
8
Halfen
62
7
10
 480
20
 775
30
0
0
VERTEX
8
Halfen
62
7
10
 480
20
 160
30
0
0
SEQEND
8
Halfen
0
POLYLINE
8
Halfen
62
7
66
1
10
0.0
20
0.0
30
0.0
70
1
0
VERTEX
8
Halfen
62
7
10
 690
20
-775
30
0
0
VERTEX
8
Halfen
62
7
10
 690
20
-160
30
0
0
VERTEX
8
Halfen
62
7
10
 678
20
-160
30
0
0
VERTEX
8
Halfen
62
7
10
 678
20
-775
30
0
0
SEQEND
8
Halfen
0
POLYLINE
8
Halfen
62
7
66
1
10
0.0
20
0.0
30
0.0
70
1
0
VERTEX
8
Halfen
62
7
10
 689.25
20
-160
30
0
0
VERTEX
8
Halfen
62
7
10
 689.25
20
-62
30
0
0
VERTEX
8
Halfen
62
7
10
 678.75
20
-62
30
0
0
VERTEX
8
Halfen
62
7
10
 678.75
20
-160
30
0
0
SEQEND
8
Halfen
0
POLYLINE
8
Halfen
62
7
66
1
10
0.0
20
0.0
30
0.0
70
1
0
VERTEX
8
Halfen
62
7
10
 690
20
-62
30
0
0
VERTEX
8
Halfen
62
7
10
 690
20
-60
30
0
0
VERTEX
8
Halfen
62
7
10
 678
20
-60
30
0
0
VERTEX
8
Halfen
62
7
10
 678
20
-62
30
0
0
SEQEND
8
Halfen
0
POLYLINE
8
Halfen
62
7
66
1
10
0.0
20
0.0
30
0.0
70
1
0
VERTEX
8
Halfen
62
7
10
 689.25
20
-60
30
0
0
VERTEX
8
Halfen
62
7
10
 689.25
20
 60
30
0
0
VERTEX
8
Halfen
62
7
10
 678.75
20
 60
30
0
0
VERTEX
8
Halfen
62
7
10
 678.75
20
-60
30
0
0
SEQEND
8
Halfen
0
POLYLINE
8
Halfen
62
7
66
1
10
0.0
20
0.0
30
0.0
70
1
0
VERTEX
8
Halfen
62
7
10
 690
20
 60
30
0
0
VERTEX
8
Halfen
62
7
10
 690
20
 62
30
0
0
VERTEX
8
Halfen
62
7
10
 678
20
 62
30
0
0
VERTEX
8
Halfen
62
7
10
 678
20
 60
30
0
0
SEQEND
8
Halfen
0
POLYLINE
8
Halfen
62
7
66
1
10
0.0
20
0.0
30
0.0
70
1
0
VERTEX
8
Halfen
62
7
10
 689.25
20
 62
30
0
0
VERTEX
8
Halfen
62
7
10
 689.25
20
 160
30
0
0
VERTEX
8
Halfen
62
7
10
 678.75
20
 160
30
0
0
VERTEX
8
Halfen
62
7
10
 678.75
20
 62
30
0
0
SEQEND
8
Halfen
0
POLYLINE
8
Halfen
62
7
66
1
10
0.0
20
0.0
30
0.0
70
1
0
VERTEX
8
Halfen
62
7
10
 690
20
 160
30
0
0
VERTEX
8
Halfen
62
7
10
 690
20
 775
30
0
0
VERTEX
8
Halfen
62
7
10
 678
20
 775
30
0
0
VERTEX
8
Halfen
62
7
10
 678
20
 160
30
0
0
SEQEND
8
Halfen
0
POLYLINE
8
Halfen
62
7
66
1
10
0.0
20
0.0
30
0.0
70
1
0
VERTEX
8
Halfen
62
7
10
 690
20
-700.497
30
0
0
VERTEX
8
Halfen
62
7
10
 690
20
-98.891
30
0
0
VERTEX
8
Halfen
62
7
10
 689.508
20
-92.633
30
0
0
VERTEX
8
Halfen
62
7
10
 688.042
20
-86.53
30
0
0
VERTEX
8
Halfen
62
7
10
 685.64
20
-80.731
30
0
0
VERTEX
8
Halfen
62
7
10
 682.361
20
-75.379
30
0
0
VERTEX
8
Halfen
62
7
10
 678.284
20
-70.607
30
0
0
VERTEX
8
Halfen
62
7
10
 528.787
20
 78.891
30
0
0
VERTEX
8
Halfen
62
7
10
 525.729
20
 82.471
30
0
0
VERTEX
8
Halfen
62
7
10
 523.27
20
 86.484
30
0
0
VERTEX
8
Halfen
62
7
10
 521.468
20
 90.834
30
0
0
VERTEX
8
Halfen
62
7
10
 520.369
20
 95.411
30
0
0
VERTEX
8
Halfen
62
7
10
 520
20
 100.104
30
0
0
VERTEX
8
Halfen
62
7
10
 520
20
 162.71
30
0
0
VERTEX
8
Halfen
62
7
10
 510
20
 162.71
30
0
0
VERTEX
8
Halfen
62
7
10
 510
20
 100.104
30
0
0
VERTEX
8
Halfen
62
7
10
 510.492
20
 93.847
30
0
0
VERTEX
8
Halfen
62
7
10
 511.958
20
 87.743
30
0
0
VERTEX
8
Halfen
62
7
10
 514.36
20
 81.944
30
0
0
VERTEX
8
Halfen
62
7
10
 517.639
20
 76.593
30
0
0
VERTEX
8
Halfen
62
7
10
 521.716
20
 71.82
30
0
0
VERTEX
8
Halfen
62
7
10
 671.213
20
-77.678
30
0
0
VERTEX
8
Halfen
62
7
10
 674.271
20
-81.257
30
0
0
VERTEX
8
Halfen
62
7
10
 676.73
20
-85.271
30
0
0
VERTEX
8
Halfen
62
7
10
 678.532
20
-89.62
30
0
0
VERTEX
8
Halfen
62
7
10
 679.631
20
-94.198
30
0
0
VERTEX
8
Halfen
62
7
10
 680
20
-98.891
30
0
0
VERTEX
8
Halfen
62
7
10
 680
20
-700.497
30
0
0
SEQEND
8
Halfen
0
POLYLINE
8
Halfen
62
7
66
1
10
0.0
20
0.0
30
0.0
70
1
0
VERTEX
8
Halfen
62
7
10
 520
20
 162.71
30
0
0
VERTEX
8
Halfen
62
7
10
 520
20
 701.71
30
0
0
VERTEX
8
Halfen
62
7
10
 510
20
 701.71
30
0
0
VERTEX
8
Halfen
62
7
10
 510
20
 162.71
30
0
0
SEQEND
8
Halfen
0
POLYLINE
8
Halfen
62
7
66
1
10
0.0
20
0.0
30
0.0
70
1
0
VERTEX
8
Halfen
62
7
10
 510
20
-701.71
30
0
0
VERTEX
8
Halfen
62
7
10
 510
20
-100.104
30
0
0
VERTEX
8
Halfen
62
7
10
 510.492
20
-93.847
30
0
0
VERTEX
8
Halfen
62
7
10
 511.958
20
-87.743
30
0
0
VERTEX
8
Halfen
62
7
10
 514.36
20
-81.944
30
0
0
VERTEX
8
Halfen
62
7
10
 517.639
20
-76.593
30
0
0
VERTEX
8
Halfen
62
7
10
 521.716
20
-71.82
30
0
0
VERTEX
8
Halfen
62
7
10
 671.213
20
 77.678
30
0
0
VERTEX
8
Halfen
62
7
10
 674.271
20
 81.257
30
0
0
VERTEX
8
Halfen
62
7
10
 676.73
20
 85.271
30
0
0
VERTEX
8
Halfen
62
7
10
 678.532
20
 89.62
30
0
0
VERTEX
8
Halfen
62
7
10
 679.631
20
 94.198
30
0
0
VERTEX
8
Halfen
62
7
10
 680
20
 98.891
30
0
0
VERTEX
8
Halfen
62
7
10
 680
20
 161.497
30
0
0
VERTEX
8
Halfen
62
7
10
 690
20
 161.497
30
0
0
VERTEX
8
Halfen
62
7
10
 690
20
 98.891
30
0
0
VERTEX
8
Halfen
62
7
10
 689.508
20
 92.634
30
0
0
VERTEX
8
Halfen
62
7
10
 688.042
20
 86.53
30
0
0
VERTEX
8
Halfen
62
7
10
 685.64
20
 80.731
30
0
0
VERTEX
8
Halfen
62
7
10
 682.361
20
 75.38
30
0
0
VERTEX
8
Halfen
62
7
10
 678.284
20
 70.607
30
0
0
VERTEX
8
Halfen
62
7
10
 528.787
20
-78.891
30
0
0
VERTEX
8
Halfen
62
7
10
 525.729
20
-82.47
30
0
0
VERTEX
8
Halfen
62
7
10
 523.27
20
-86.484
30
0
0
VERTEX
8
Halfen
62
7
10
 521.468
20
-90.833
30
0
0
VERTEX
8
Halfen
62
7
10
 520.369
20
-95.411
30
0
0
VERTEX
8
Halfen
62
7
10
 520
20
-100.104
30
0
0
VERTEX
8
Halfen
62
7
10
 520
20
-701.71
30
0
0
SEQEND
8
Halfen
0
POLYLINE
8
Halfen
62
7
66
1
10
0.0
20
0.0
30
0.0
70
1
0
VERTEX
8
Halfen
62
7
10
 680
20
 161.497
30
0
0
VERTEX
8
Halfen
62
7
10
 680
20
 700.497
30
0
0
VERTEX
8
Halfen
62
7
10
 690
20
 700.497
30
0
0
VERTEX
8
Halfen
62
7
10
 690
20
 161.497
30
0
0
SEQEND
8
Halfen
0
ENDSEC
0
EOF
