0
SECTION
2
HEADER
9
$EXTMIN
10
 0
20
 100
30
0.0
9
$EXTMAX
10
 0
20
 100
30
0.0
9
$LIMMIN
10
 100
20
 0
9
$LIMMAX
10
 0
20
 100
9
$PSLTSCALE
70
1
0
ENDSEC
0
SECTION
2
TABLES
0
TABLE
2
LAYER
70
2
0
LAYER
2
0
70
0
62
7
6
CONTINUOUS
0
LAYER
2
Halfen
70
0
62
7
6
CONTINUOUS
0
ENDTAB
0
ENDSEC
0
SECTION
2
ENTITIES
0
POLYLINE
8
Halfen
62
7
66
1
10
0.0
20
0.0
30
0.0
70
1
0
VERTEX
8
Halfen
62
7
10
 0
20
-73.5
30
0
0
VERTEX
8
Halfen
62
7
10
 1000
20
-73.5
30
0
0
VERTEX
8
Halfen
62
7
10
 1000
20
 73.5
30
0
0
VERTEX
8
Halfen
62
7
10
 0
20
 73.5
30
0
0
SEQEND
8
Halfen
0
POLYLINE
8
Halfen
62
7
66
1
10
0.0
20
0.0
30
0.0
70
1
0
VERTEX
8
Halfen
62
7
10
 0
20
-60
30
0
0
VERTEX
8
Halfen
62
7
10
 1000
20
-60
30
0
0
VERTEX
8
Halfen
62
7
10
 1000
20
 60
30
0
0
VERTEX
8
Halfen
62
7
10
 0
20
 60
30
0
0
SEQEND
8
Halfen
0
POLYLINE
8
Halfen
62
7
66
1
10
0.0
20
0.0
30
0.0
70
1
0
VERTEX
8
Halfen
62
7
10
 20
20
-32.5
30
0
0
VERTEX
8
Halfen
62
7
10
 37
20
-1.5
30
0
0
VERTEX
8
Halfen
62
7
10
 28
20
-1.5
30
0
0
VERTEX
8
Halfen
62
7
10
 28
20
 32.5
30
0
0
VERTEX
8
Halfen
62
7
10
 12
20
 32.5
30
0
0
VERTEX
8
Halfen
62
7
10
 12
20
-1.5
30
0
0
VERTEX
8
Halfen
62
7
10
 3
20
-1.5
30
0
0
SEQEND
8
Halfen
0
POLYLINE
8
Halfen
62
7
66
1
10
0.0
20
0.0
30
0.0
70
1
0
VERTEX
8
Halfen
62
7
10
 980
20
-32.5
30
0
0
VERTEX
8
Halfen
62
7
10
 997
20
-1.5
30
0
0
VERTEX
8
Halfen
62
7
10
 988
20
-1.5
30
0
0
VERTEX
8
Halfen
62
7
10
 988
20
 32.5
30
0
0
VERTEX
8
Halfen
62
7
10
 972
20
 32.5
30
0
0
VERTEX
8
Halfen
62
7
10
 972
20
-1.5
30
0
0
VERTEX
8
Halfen
62
7
10
 963
20
-1.5
30
0
0
SEQEND
8
Halfen
0
POLYLINE
8
Halfen
62
7
66
1
10
0.0
20
0.0
30
0.0
70
1
0
VERTEX
8
Halfen
62
7
10
 151
20
-69.3
30
0
0
VERTEX
8
Halfen
62
7
10
 151
20
-56.8
30
0
0
VERTEX
8
Halfen
62
7
10
 151
20
 69.3
30
0
0
VERTEX
8
Halfen
62
7
10
 150.958
20
 70.359
30
0
0
VERTEX
8
Halfen
62
7
10
 150.834
20
 71.412
30
0
0
VERTEX
8
Halfen
62
7
10
 150.627
20
 72.452
30
0
0
VERTEX
8
Halfen
62
7
10
 150.339
20
 73.472
30
0
0
VERTEX
8
Halfen
62
7
10
 149.972
20
 74.466
30
0
0
VERTEX
8
Halfen
62
7
10
 149.529
20
 75.429
30
0
0
VERTEX
8
Halfen
62
7
10
 149.011
20
 76.354
30
0
0
VERTEX
8
Halfen
62
7
10
 148.422
20
 77.235
30
0
0
VERTEX
8
Halfen
62
7
10
 147.765
20
 78.068
30
0
0
VERTEX
8
Halfen
62
7
10
 147.046
20
 78.846
30
0
0
VERTEX
8
Halfen
62
7
10
 146.268
20
 79.565
30
0
0
VERTEX
8
Halfen
62
7
10
 145.435
20
 80.222
30
0
0
VERTEX
8
Halfen
62
7
10
 144.554
20
 80.811
30
0
0
VERTEX
8
Halfen
62
7
10
 143.629
20
 81.329
30
0
0
VERTEX
8
Halfen
62
7
10
 142.666
20
 81.772
30
0
0
VERTEX
8
Halfen
62
7
10
 141.672
20
 82.139
30
0
0
VERTEX
8
Halfen
62
7
10
 140.652
20
 82.427
30
0
0
VERTEX
8
Halfen
62
7
10
 139.612
20
 82.634
30
0
0
VERTEX
8
Halfen
62
7
10
 138.559
20
 82.758
30
0
0
VERTEX
8
Halfen
62
7
10
 137.5
20
 82.8
30
0
0
VERTEX
8
Halfen
62
7
10
 134.5
20
 82.8
30
0
0
VERTEX
8
Halfen
62
7
10
 133.441
20
 82.758
30
0
0
VERTEX
8
Halfen
62
7
10
 132.388
20
 82.634
30
0
0
VERTEX
8
Halfen
62
7
10
 131.348
20
 82.427
30
0
0
VERTEX
8
Halfen
62
7
10
 130.328
20
 82.139
30
0
0
VERTEX
8
Halfen
62
7
10
 129.334
20
 81.772
30
0
0
VERTEX
8
Halfen
62
7
10
 128.371
20
 81.329
30
0
0
VERTEX
8
Halfen
62
7
10
 127.446
20
 80.811
30
0
0
VERTEX
8
Halfen
62
7
10
 126.565
20
 80.222
30
0
0
VERTEX
8
Halfen
62
7
10
 125.732
20
 79.565
30
0
0
VERTEX
8
Halfen
62
7
10
 124.954
20
 78.846
30
0
0
VERTEX
8
Halfen
62
7
10
 124.235
20
 78.068
30
0
0
VERTEX
8
Halfen
62
7
10
 123.578
20
 77.235
30
0
0
VERTEX
8
Halfen
62
7
10
 122.989
20
 76.354
30
0
0
VERTEX
8
Halfen
62
7
10
 122.471
20
 75.429
30
0
0
VERTEX
8
Halfen
62
7
10
 122.028
20
 74.466
30
0
0
VERTEX
8
Halfen
62
7
10
 121.661
20
 73.472
30
0
0
VERTEX
8
Halfen
62
7
10
 121.373
20
 72.452
30
0
0
VERTEX
8
Halfen
62
7
10
 121.166
20
 71.412
30
0
0
VERTEX
8
Halfen
62
7
10
 121.042
20
 70.359
30
0
0
VERTEX
8
Halfen
62
7
10
 121
20
 69.3
30
0
0
VERTEX
8
Halfen
62
7
10
 121
20
-56.8
30
0
0
VERTEX
8
Halfen
62
7
10
 121
20
-69.3
30
0
0
VERTEX
8
Halfen
62
7
10
 121.042
20
-70.359
30
0
0
VERTEX
8
Halfen
62
7
10
 121.166
20
-71.412
30
0
0
VERTEX
8
Halfen
62
7
10
 121.373
20
-72.452
30
0
0
VERTEX
8
Halfen
62
7
10
 121.661
20
-73.472
30
0
0
VERTEX
8
Halfen
62
7
10
 122.028
20
-74.466
30
0
0
VERTEX
8
Halfen
62
7
10
 122.471
20
-75.429
30
0
0
VERTEX
8
Halfen
62
7
10
 122.989
20
-76.354
30
0
0
VERTEX
8
Halfen
62
7
10
 123.578
20
-77.235
30
0
0
VERTEX
8
Halfen
62
7
10
 124.235
20
-78.068
30
0
0
VERTEX
8
Halfen
62
7
10
 124.954
20
-78.846
30
0
0
VERTEX
8
Halfen
62
7
10
 125.732
20
-79.565
30
0
0
VERTEX
8
Halfen
62
7
10
 126.565
20
-80.222
30
0
0
VERTEX
8
Halfen
62
7
10
 127.446
20
-80.811
30
0
0
VERTEX
8
Halfen
62
7
10
 128.371
20
-81.329
30
0
0
VERTEX
8
Halfen
62
7
10
 129.334
20
-81.772
30
0
0
VERTEX
8
Halfen
62
7
10
 130.328
20
-82.139
30
0
0
VERTEX
8
Halfen
62
7
10
 131.348
20
-82.427
30
0
0
VERTEX
8
Halfen
62
7
10
 132.388
20
-82.634
30
0
0
VERTEX
8
Halfen
62
7
10
 133.441
20
-82.758
30
0
0
VERTEX
8
Halfen
62
7
10
 134.5
20
-82.8
30
0
0
VERTEX
8
Halfen
62
7
10
 137.5
20
-82.8
30
0
0
VERTEX
8
Halfen
62
7
10
 138.559
20
-82.758
30
0
0
VERTEX
8
Halfen
62
7
10
 139.612
20
-82.634
30
0
0
VERTEX
8
Halfen
62
7
10
 140.652
20
-82.427
30
0
0
VERTEX
8
Halfen
62
7
10
 141.672
20
-82.139
30
0
0
VERTEX
8
Halfen
62
7
10
 142.666
20
-81.772
30
0
0
VERTEX
8
Halfen
62
7
10
 143.629
20
-81.329
30
0
0
VERTEX
8
Halfen
62
7
10
 144.554
20
-80.811
30
0
0
VERTEX
8
Halfen
62
7
10
 145.435
20
-80.222
30
0
0
VERTEX
8
Halfen
62
7
10
 146.268
20
-79.565
30
0
0
VERTEX
8
Halfen
62
7
10
 147.046
20
-78.846
30
0
0
VERTEX
8
Halfen
62
7
10
 147.765
20
-78.068
30
0
0
VERTEX
8
Halfen
62
7
10
 148.422
20
-77.235
30
0
0
VERTEX
8
Halfen
62
7
10
 149.011
20
-76.354
30
0
0
VERTEX
8
Halfen
62
7
10
 149.529
20
-75.429
30
0
0
VERTEX
8
Halfen
62
7
10
 149.972
20
-74.466
30
0
0
VERTEX
8
Halfen
62
7
10
 150.339
20
-73.472
30
0
0
VERTEX
8
Halfen
62
7
10
 150.627
20
-72.452
30
0
0
VERTEX
8
Halfen
62
7
10
 150.834
20
-71.412
30
0
0
VERTEX
8
Halfen
62
7
10
 150.958
20
-70.359
30
0
0
VERTEX
8
Halfen
62
7
10
 151
20
-69.3
30
0
0
SEQEND
8
Halfen
0
POLYLINE
8
Halfen
62
7
66
1
10
0.0
20
0.0
30
0.0
70
1
0
VERTEX
8
Halfen
62
7
10
 379
20
-69.3
30
0
0
VERTEX
8
Halfen
62
7
10
 379
20
-56.8
30
0
0
VERTEX
8
Halfen
62
7
10
 379
20
 69.3
30
0
0
VERTEX
8
Halfen
62
7
10
 378.958
20
 70.359
30
0
0
VERTEX
8
Halfen
62
7
10
 378.834
20
 71.412
30
0
0
VERTEX
8
Halfen
62
7
10
 378.627
20
 72.452
30
0
0
VERTEX
8
Halfen
62
7
10
 378.339
20
 73.472
30
0
0
VERTEX
8
Halfen
62
7
10
 377.972
20
 74.466
30
0
0
VERTEX
8
Halfen
62
7
10
 377.529
20
 75.429
30
0
0
VERTEX
8
Halfen
62
7
10
 377.011
20
 76.354
30
0
0
VERTEX
8
Halfen
62
7
10
 376.422
20
 77.235
30
0
0
VERTEX
8
Halfen
62
7
10
 375.765
20
 78.068
30
0
0
VERTEX
8
Halfen
62
7
10
 375.046
20
 78.846
30
0
0
VERTEX
8
Halfen
62
7
10
 374.268
20
 79.565
30
0
0
VERTEX
8
Halfen
62
7
10
 373.435
20
 80.222
30
0
0
VERTEX
8
Halfen
62
7
10
 372.554
20
 80.811
30
0
0
VERTEX
8
Halfen
62
7
10
 371.629
20
 81.329
30
0
0
VERTEX
8
Halfen
62
7
10
 370.666
20
 81.772
30
0
0
VERTEX
8
Halfen
62
7
10
 369.672
20
 82.139
30
0
0
VERTEX
8
Halfen
62
7
10
 368.652
20
 82.427
30
0
0
VERTEX
8
Halfen
62
7
10
 367.612
20
 82.634
30
0
0
VERTEX
8
Halfen
62
7
10
 366.559
20
 82.758
30
0
0
VERTEX
8
Halfen
62
7
10
 365.5
20
 82.8
30
0
0
VERTEX
8
Halfen
62
7
10
 362.5
20
 82.8
30
0
0
VERTEX
8
Halfen
62
7
10
 361.441
20
 82.758
30
0
0
VERTEX
8
Halfen
62
7
10
 360.388
20
 82.634
30
0
0
VERTEX
8
Halfen
62
7
10
 359.348
20
 82.427
30
0
0
VERTEX
8
Halfen
62
7
10
 358.328
20
 82.139
30
0
0
VERTEX
8
Halfen
62
7
10
 357.334
20
 81.772
30
0
0
VERTEX
8
Halfen
62
7
10
 356.371
20
 81.329
30
0
0
VERTEX
8
Halfen
62
7
10
 355.446
20
 80.811
30
0
0
VERTEX
8
Halfen
62
7
10
 354.565
20
 80.222
30
0
0
VERTEX
8
Halfen
62
7
10
 353.732
20
 79.565
30
0
0
VERTEX
8
Halfen
62
7
10
 352.954
20
 78.846
30
0
0
VERTEX
8
Halfen
62
7
10
 352.235
20
 78.068
30
0
0
VERTEX
8
Halfen
62
7
10
 351.578
20
 77.235
30
0
0
VERTEX
8
Halfen
62
7
10
 350.989
20
 76.354
30
0
0
VERTEX
8
Halfen
62
7
10
 350.471
20
 75.429
30
0
0
VERTEX
8
Halfen
62
7
10
 350.028
20
 74.466
30
0
0
VERTEX
8
Halfen
62
7
10
 349.661
20
 73.472
30
0
0
VERTEX
8
Halfen
62
7
10
 349.373
20
 72.452
30
0
0
VERTEX
8
Halfen
62
7
10
 349.166
20
 71.412
30
0
0
VERTEX
8
Halfen
62
7
10
 349.042
20
 70.359
30
0
0
VERTEX
8
Halfen
62
7
10
 349
20
 69.3
30
0
0
VERTEX
8
Halfen
62
7
10
 349
20
-56.8
30
0
0
VERTEX
8
Halfen
62
7
10
 349
20
-69.3
30
0
0
VERTEX
8
Halfen
62
7
10
 349.042
20
-70.359
30
0
0
VERTEX
8
Halfen
62
7
10
 349.166
20
-71.412
30
0
0
VERTEX
8
Halfen
62
7
10
 349.373
20
-72.452
30
0
0
VERTEX
8
Halfen
62
7
10
 349.661
20
-73.472
30
0
0
VERTEX
8
Halfen
62
7
10
 350.028
20
-74.466
30
0
0
VERTEX
8
Halfen
62
7
10
 350.471
20
-75.429
30
0
0
VERTEX
8
Halfen
62
7
10
 350.989
20
-76.354
30
0
0
VERTEX
8
Halfen
62
7
10
 351.578
20
-77.235
30
0
0
VERTEX
8
Halfen
62
7
10
 352.235
20
-78.068
30
0
0
VERTEX
8
Halfen
62
7
10
 352.954
20
-78.846
30
0
0
VERTEX
8
Halfen
62
7
10
 353.732
20
-79.565
30
0
0
VERTEX
8
Halfen
62
7
10
 354.565
20
-80.222
30
0
0
VERTEX
8
Halfen
62
7
10
 355.446
20
-80.811
30
0
0
VERTEX
8
Halfen
62
7
10
 356.371
20
-81.329
30
0
0
VERTEX
8
Halfen
62
7
10
 357.334
20
-81.772
30
0
0
VERTEX
8
Halfen
62
7
10
 358.328
20
-82.139
30
0
0
VERTEX
8
Halfen
62
7
10
 359.348
20
-82.427
30
0
0
VERTEX
8
Halfen
62
7
10
 360.388
20
-82.634
30
0
0
VERTEX
8
Halfen
62
7
10
 361.441
20
-82.758
30
0
0
VERTEX
8
Halfen
62
7
10
 362.5
20
-82.8
30
0
0
VERTEX
8
Halfen
62
7
10
 365.5
20
-82.8
30
0
0
VERTEX
8
Halfen
62
7
10
 366.559
20
-82.758
30
0
0
VERTEX
8
Halfen
62
7
10
 367.612
20
-82.634
30
0
0
VERTEX
8
Halfen
62
7
10
 368.652
20
-82.427
30
0
0
VERTEX
8
Halfen
62
7
10
 369.672
20
-82.139
30
0
0
VERTEX
8
Halfen
62
7
10
 370.666
20
-81.772
30
0
0
VERTEX
8
Halfen
62
7
10
 371.629
20
-81.329
30
0
0
VERTEX
8
Halfen
62
7
10
 372.554
20
-80.811
30
0
0
VERTEX
8
Halfen
62
7
10
 373.435
20
-80.222
30
0
0
VERTEX
8
Halfen
62
7
10
 374.268
20
-79.565
30
0
0
VERTEX
8
Halfen
62
7
10
 375.046
20
-78.846
30
0
0
VERTEX
8
Halfen
62
7
10
 375.765
20
-78.068
30
0
0
VERTEX
8
Halfen
62
7
10
 376.422
20
-77.235
30
0
0
VERTEX
8
Halfen
62
7
10
 377.011
20
-76.354
30
0
0
VERTEX
8
Halfen
62
7
10
 377.529
20
-75.429
30
0
0
VERTEX
8
Halfen
62
7
10
 377.972
20
-74.466
30
0
0
VERTEX
8
Halfen
62
7
10
 378.339
20
-73.472
30
0
0
VERTEX
8
Halfen
62
7
10
 378.627
20
-72.452
30
0
0
VERTEX
8
Halfen
62
7
10
 378.834
20
-71.412
30
0
0
VERTEX
8
Halfen
62
7
10
 378.958
20
-70.359
30
0
0
VERTEX
8
Halfen
62
7
10
 379
20
-69.3
30
0
0
SEQEND
8
Halfen
0
POLYLINE
8
Halfen
62
7
66
1
10
0.0
20
0.0
30
0.0
70
1
0
VERTEX
8
Halfen
62
7
10
 651
20
-69.3
30
0
0
VERTEX
8
Halfen
62
7
10
 651
20
-56.8
30
0
0
VERTEX
8
Halfen
62
7
10
 651
20
 69.3
30
0
0
VERTEX
8
Halfen
62
7
10
 650.958
20
 70.359
30
0
0
VERTEX
8
Halfen
62
7
10
 650.834
20
 71.412
30
0
0
VERTEX
8
Halfen
62
7
10
 650.627
20
 72.452
30
0
0
VERTEX
8
Halfen
62
7
10
 650.339
20
 73.472
30
0
0
VERTEX
8
Halfen
62
7
10
 649.972
20
 74.466
30
0
0
VERTEX
8
Halfen
62
7
10
 649.529
20
 75.429
30
0
0
VERTEX
8
Halfen
62
7
10
 649.011
20
 76.354
30
0
0
VERTEX
8
Halfen
62
7
10
 648.422
20
 77.235
30
0
0
VERTEX
8
Halfen
62
7
10
 647.765
20
 78.068
30
0
0
VERTEX
8
Halfen
62
7
10
 647.046
20
 78.846
30
0
0
VERTEX
8
Halfen
62
7
10
 646.268
20
 79.565
30
0
0
VERTEX
8
Halfen
62
7
10
 645.435
20
 80.222
30
0
0
VERTEX
8
Halfen
62
7
10
 644.554
20
 80.811
30
0
0
VERTEX
8
Halfen
62
7
10
 643.629
20
 81.329
30
0
0
VERTEX
8
Halfen
62
7
10
 642.666
20
 81.772
30
0
0
VERTEX
8
Halfen
62
7
10
 641.672
20
 82.139
30
0
0
VERTEX
8
Halfen
62
7
10
 640.652
20
 82.427
30
0
0
VERTEX
8
Halfen
62
7
10
 639.612
20
 82.634
30
0
0
VERTEX
8
Halfen
62
7
10
 638.559
20
 82.758
30
0
0
VERTEX
8
Halfen
62
7
10
 637.5
20
 82.8
30
0
0
VERTEX
8
Halfen
62
7
10
 634.5
20
 82.8
30
0
0
VERTEX
8
Halfen
62
7
10
 633.441
20
 82.758
30
0
0
VERTEX
8
Halfen
62
7
10
 632.388
20
 82.634
30
0
0
VERTEX
8
Halfen
62
7
10
 631.348
20
 82.427
30
0
0
VERTEX
8
Halfen
62
7
10
 630.328
20
 82.139
30
0
0
VERTEX
8
Halfen
62
7
10
 629.334
20
 81.772
30
0
0
VERTEX
8
Halfen
62
7
10
 628.371
20
 81.329
30
0
0
VERTEX
8
Halfen
62
7
10
 627.446
20
 80.811
30
0
0
VERTEX
8
Halfen
62
7
10
 626.565
20
 80.222
30
0
0
VERTEX
8
Halfen
62
7
10
 625.732
20
 79.565
30
0
0
VERTEX
8
Halfen
62
7
10
 624.954
20
 78.846
30
0
0
VERTEX
8
Halfen
62
7
10
 624.235
20
 78.068
30
0
0
VERTEX
8
Halfen
62
7
10
 623.578
20
 77.235
30
0
0
VERTEX
8
Halfen
62
7
10
 622.989
20
 76.354
30
0
0
VERTEX
8
Halfen
62
7
10
 622.471
20
 75.429
30
0
0
VERTEX
8
Halfen
62
7
10
 622.028
20
 74.466
30
0
0
VERTEX
8
Halfen
62
7
10
 621.661
20
 73.472
30
0
0
VERTEX
8
Halfen
62
7
10
 621.373
20
 72.452
30
0
0
VERTEX
8
Halfen
62
7
10
 621.166
20
 71.412
30
0
0
VERTEX
8
Halfen
62
7
10
 621.042
20
 70.359
30
0
0
VERTEX
8
Halfen
62
7
10
 621
20
 69.3
30
0
0
VERTEX
8
Halfen
62
7
10
 621
20
-56.8
30
0
0
VERTEX
8
Halfen
62
7
10
 621
20
-69.3
30
0
0
VERTEX
8
Halfen
62
7
10
 621.042
20
-70.359
30
0
0
VERTEX
8
Halfen
62
7
10
 621.166
20
-71.412
30
0
0
VERTEX
8
Halfen
62
7
10
 621.373
20
-72.452
30
0
0
VERTEX
8
Halfen
62
7
10
 621.661
20
-73.472
30
0
0
VERTEX
8
Halfen
62
7
10
 622.028
20
-74.466
30
0
0
VERTEX
8
Halfen
62
7
10
 622.471
20
-75.429
30
0
0
VERTEX
8
Halfen
62
7
10
 622.989
20
-76.354
30
0
0
VERTEX
8
Halfen
62
7
10
 623.578
20
-77.235
30
0
0
VERTEX
8
Halfen
62
7
10
 624.235
20
-78.068
30
0
0
VERTEX
8
Halfen
62
7
10
 624.954
20
-78.846
30
0
0
VERTEX
8
Halfen
62
7
10
 625.732
20
-79.565
30
0
0
VERTEX
8
Halfen
62
7
10
 626.565
20
-80.222
30
0
0
VERTEX
8
Halfen
62
7
10
 627.446
20
-80.811
30
0
0
VERTEX
8
Halfen
62
7
10
 628.371
20
-81.329
30
0
0
VERTEX
8
Halfen
62
7
10
 629.334
20
-81.772
30
0
0
VERTEX
8
Halfen
62
7
10
 630.328
20
-82.139
30
0
0
VERTEX
8
Halfen
62
7
10
 631.348
20
-82.427
30
0
0
VERTEX
8
Halfen
62
7
10
 632.388
20
-82.634
30
0
0
VERTEX
8
Halfen
62
7
10
 633.441
20
-82.758
30
0
0
VERTEX
8
Halfen
62
7
10
 634.5
20
-82.8
30
0
0
VERTEX
8
Halfen
62
7
10
 637.5
20
-82.8
30
0
0
VERTEX
8
Halfen
62
7
10
 638.559
20
-82.758
30
0
0
VERTEX
8
Halfen
62
7
10
 639.612
20
-82.634
30
0
0
VERTEX
8
Halfen
62
7
10
 640.652
20
-82.427
30
0
0
VERTEX
8
Halfen
62
7
10
 641.672
20
-82.139
30
0
0
VERTEX
8
Halfen
62
7
10
 642.666
20
-81.772
30
0
0
VERTEX
8
Halfen
62
7
10
 643.629
20
-81.329
30
0
0
VERTEX
8
Halfen
62
7
10
 644.554
20
-80.811
30
0
0
VERTEX
8
Halfen
62
7
10
 645.435
20
-80.222
30
0
0
VERTEX
8
Halfen
62
7
10
 646.268
20
-79.565
30
0
0
VERTEX
8
Halfen
62
7
10
 647.046
20
-78.846
30
0
0
VERTEX
8
Halfen
62
7
10
 647.765
20
-78.068
30
0
0
VERTEX
8
Halfen
62
7
10
 648.422
20
-77.235
30
0
0
VERTEX
8
Halfen
62
7
10
 649.011
20
-76.354
30
0
0
VERTEX
8
Halfen
62
7
10
 649.529
20
-75.429
30
0
0
VERTEX
8
Halfen
62
7
10
 649.972
20
-74.466
30
0
0
VERTEX
8
Halfen
62
7
10
 650.339
20
-73.472
30
0
0
VERTEX
8
Halfen
62
7
10
 650.627
20
-72.452
30
0
0
VERTEX
8
Halfen
62
7
10
 650.834
20
-71.412
30
0
0
VERTEX
8
Halfen
62
7
10
 650.958
20
-70.359
30
0
0
VERTEX
8
Halfen
62
7
10
 651
20
-69.3
30
0
0
SEQEND
8
Halfen
0
POLYLINE
8
Halfen
62
7
66
1
10
0.0
20
0.0
30
0.0
70
1
0
VERTEX
8
Halfen
62
7
10
 879
20
-69.3
30
0
0
VERTEX
8
Halfen
62
7
10
 879
20
-56.8
30
0
0
VERTEX
8
Halfen
62
7
10
 879
20
 69.3
30
0
0
VERTEX
8
Halfen
62
7
10
 878.958
20
 70.359
30
0
0
VERTEX
8
Halfen
62
7
10
 878.834
20
 71.412
30
0
0
VERTEX
8
Halfen
62
7
10
 878.627
20
 72.452
30
0
0
VERTEX
8
Halfen
62
7
10
 878.339
20
 73.472
30
0
0
VERTEX
8
Halfen
62
7
10
 877.972
20
 74.466
30
0
0
VERTEX
8
Halfen
62
7
10
 877.529
20
 75.429
30
0
0
VERTEX
8
Halfen
62
7
10
 877.011
20
 76.354
30
0
0
VERTEX
8
Halfen
62
7
10
 876.422
20
 77.235
30
0
0
VERTEX
8
Halfen
62
7
10
 875.765
20
 78.068
30
0
0
VERTEX
8
Halfen
62
7
10
 875.046
20
 78.846
30
0
0
VERTEX
8
Halfen
62
7
10
 874.268
20
 79.565
30
0
0
VERTEX
8
Halfen
62
7
10
 873.435
20
 80.222
30
0
0
VERTEX
8
Halfen
62
7
10
 872.554
20
 80.811
30
0
0
VERTEX
8
Halfen
62
7
10
 871.629
20
 81.329
30
0
0
VERTEX
8
Halfen
62
7
10
 870.666
20
 81.772
30
0
0
VERTEX
8
Halfen
62
7
10
 869.672
20
 82.139
30
0
0
VERTEX
8
Halfen
62
7
10
 868.652
20
 82.427
30
0
0
VERTEX
8
Halfen
62
7
10
 867.612
20
 82.634
30
0
0
VERTEX
8
Halfen
62
7
10
 866.559
20
 82.758
30
0
0
VERTEX
8
Halfen
62
7
10
 865.5
20
 82.8
30
0
0
VERTEX
8
Halfen
62
7
10
 862.5
20
 82.8
30
0
0
VERTEX
8
Halfen
62
7
10
 861.441
20
 82.758
30
0
0
VERTEX
8
Halfen
62
7
10
 860.388
20
 82.634
30
0
0
VERTEX
8
Halfen
62
7
10
 859.348
20
 82.427
30
0
0
VERTEX
8
Halfen
62
7
10
 858.328
20
 82.139
30
0
0
VERTEX
8
Halfen
62
7
10
 857.334
20
 81.772
30
0
0
VERTEX
8
Halfen
62
7
10
 856.371
20
 81.329
30
0
0
VERTEX
8
Halfen
62
7
10
 855.446
20
 80.811
30
0
0
VERTEX
8
Halfen
62
7
10
 854.565
20
 80.222
30
0
0
VERTEX
8
Halfen
62
7
10
 853.732
20
 79.565
30
0
0
VERTEX
8
Halfen
62
7
10
 852.954
20
 78.846
30
0
0
VERTEX
8
Halfen
62
7
10
 852.235
20
 78.068
30
0
0
VERTEX
8
Halfen
62
7
10
 851.578
20
 77.235
30
0
0
VERTEX
8
Halfen
62
7
10
 850.989
20
 76.354
30
0
0
VERTEX
8
Halfen
62
7
10
 850.471
20
 75.429
30
0
0
VERTEX
8
Halfen
62
7
10
 850.028
20
 74.466
30
0
0
VERTEX
8
Halfen
62
7
10
 849.661
20
 73.472
30
0
0
VERTEX
8
Halfen
62
7
10
 849.373
20
 72.452
30
0
0
VERTEX
8
Halfen
62
7
10
 849.166
20
 71.412
30
0
0
VERTEX
8
Halfen
62
7
10
 849.042
20
 70.359
30
0
0
VERTEX
8
Halfen
62
7
10
 849
20
 69.3
30
0
0
VERTEX
8
Halfen
62
7
10
 849
20
-56.8
30
0
0
VERTEX
8
Halfen
62
7
10
 849
20
-69.3
30
0
0
VERTEX
8
Halfen
62
7
10
 849.042
20
-70.359
30
0
0
VERTEX
8
Halfen
62
7
10
 849.166
20
-71.412
30
0
0
VERTEX
8
Halfen
62
7
10
 849.373
20
-72.452
30
0
0
VERTEX
8
Halfen
62
7
10
 849.661
20
-73.472
30
0
0
VERTEX
8
Halfen
62
7
10
 850.028
20
-74.466
30
0
0
VERTEX
8
Halfen
62
7
10
 850.471
20
-75.429
30
0
0
VERTEX
8
Halfen
62
7
10
 850.989
20
-76.354
30
0
0
VERTEX
8
Halfen
62
7
10
 851.578
20
-77.235
30
0
0
VERTEX
8
Halfen
62
7
10
 852.235
20
-78.068
30
0
0
VERTEX
8
Halfen
62
7
10
 852.954
20
-78.846
30
0
0
VERTEX
8
Halfen
62
7
10
 853.732
20
-79.565
30
0
0
VERTEX
8
Halfen
62
7
10
 854.565
20
-80.222
30
0
0
VERTEX
8
Halfen
62
7
10
 855.446
20
-80.811
30
0
0
VERTEX
8
Halfen
62
7
10
 856.371
20
-81.329
30
0
0
VERTEX
8
Halfen
62
7
10
 857.334
20
-81.772
30
0
0
VERTEX
8
Halfen
62
7
10
 858.328
20
-82.139
30
0
0
VERTEX
8
Halfen
62
7
10
 859.348
20
-82.427
30
0
0
VERTEX
8
Halfen
62
7
10
 860.388
20
-82.634
30
0
0
VERTEX
8
Halfen
62
7
10
 861.441
20
-82.758
30
0
0
VERTEX
8
Halfen
62
7
10
 862.5
20
-82.8
30
0
0
VERTEX
8
Halfen
62
7
10
 865.5
20
-82.8
30
0
0
VERTEX
8
Halfen
62
7
10
 866.559
20
-82.758
30
0
0
VERTEX
8
Halfen
62
7
10
 867.612
20
-82.634
30
0
0
VERTEX
8
Halfen
62
7
10
 868.652
20
-82.427
30
0
0
VERTEX
8
Halfen
62
7
10
 869.672
20
-82.139
30
0
0
VERTEX
8
Halfen
62
7
10
 870.666
20
-81.772
30
0
0
VERTEX
8
Halfen
62
7
10
 871.629
20
-81.329
30
0
0
VERTEX
8
Halfen
62
7
10
 872.554
20
-80.811
30
0
0
VERTEX
8
Halfen
62
7
10
 873.435
20
-80.222
30
0
0
VERTEX
8
Halfen
62
7
10
 874.268
20
-79.565
30
0
0
VERTEX
8
Halfen
62
7
10
 875.046
20
-78.846
30
0
0
VERTEX
8
Halfen
62
7
10
 875.765
20
-78.068
30
0
0
VERTEX
8
Halfen
62
7
10
 876.422
20
-77.235
30
0
0
VERTEX
8
Halfen
62
7
10
 877.011
20
-76.354
30
0
0
VERTEX
8
Halfen
62
7
10
 877.529
20
-75.429
30
0
0
VERTEX
8
Halfen
62
7
10
 877.972
20
-74.466
30
0
0
VERTEX
8
Halfen
62
7
10
 878.339
20
-73.472
30
0
0
VERTEX
8
Halfen
62
7
10
 878.627
20
-72.452
30
0
0
VERTEX
8
Halfen
62
7
10
 878.834
20
-71.412
30
0
0
VERTEX
8
Halfen
62
7
10
 878.958
20
-70.359
30
0
0
VERTEX
8
Halfen
62
7
10
 879
20
-69.3
30
0
0
SEQEND
8
Halfen
0
POLYLINE
8
Halfen
62
7
66
1
10
0.0
20
0.0
30
0.0
70
1
0
VERTEX
8
Halfen
62
7
10
 90
20
-815.455
30
0
0
VERTEX
8
Halfen
62
7
10
 90
20
 913.129
30
0
0
VERTEX
8
Halfen
62
7
10
 78
20
 913.129
30
0
0
VERTEX
8
Halfen
62
7
10
 78
20
-815.455
30
0
0
SEQEND
8
Halfen
0
POLYLINE
8
Halfen
62
7
66
1
10
0.0
20
0.0
30
0.0
70
1
0
VERTEX
8
Halfen
62
7
10
 205
20
-815.455
30
0
0
VERTEX
8
Halfen
62
7
10
 205
20
 913.129
30
0
0
VERTEX
8
Halfen
62
7
10
 193
20
 913.129
30
0
0
VERTEX
8
Halfen
62
7
10
 193
20
-815.455
30
0
0
SEQEND
8
Halfen
0
POLYLINE
8
Halfen
62
7
66
1
10
0.0
20
0.0
30
0.0
70
1
0
VERTEX
8
Halfen
62
7
10
 319
20
-815.455
30
0
0
VERTEX
8
Halfen
62
7
10
 319
20
 913.129
30
0
0
VERTEX
8
Halfen
62
7
10
 307
20
 913.129
30
0
0
VERTEX
8
Halfen
62
7
10
 307
20
-815.455
30
0
0
SEQEND
8
Halfen
0
POLYLINE
8
Halfen
62
7
66
1
10
0.0
20
0.0
30
0.0
70
1
0
VERTEX
8
Halfen
62
7
10
 434
20
-815.455
30
0
0
VERTEX
8
Halfen
62
7
10
 434
20
 913.129
30
0
0
VERTEX
8
Halfen
62
7
10
 422
20
 913.129
30
0
0
VERTEX
8
Halfen
62
7
10
 422
20
-815.455
30
0
0
SEQEND
8
Halfen
0
POLYLINE
8
Halfen
62
7
66
1
10
0.0
20
0.0
30
0.0
70
1
0
VERTEX
8
Halfen
62
7
10
 590
20
-815.455
30
0
0
VERTEX
8
Halfen
62
7
10
 590
20
 913.129
30
0
0
VERTEX
8
Halfen
62
7
10
 578
20
 913.129
30
0
0
VERTEX
8
Halfen
62
7
10
 578
20
-815.455
30
0
0
SEQEND
8
Halfen
0
POLYLINE
8
Halfen
62
7
66
1
10
0.0
20
0.0
30
0.0
70
1
0
VERTEX
8
Halfen
62
7
10
 705
20
-815.455
30
0
0
VERTEX
8
Halfen
62
7
10
 705
20
 913.129
30
0
0
VERTEX
8
Halfen
62
7
10
 693
20
 913.129
30
0
0
VERTEX
8
Halfen
62
7
10
 693
20
-815.455
30
0
0
SEQEND
8
Halfen
0
POLYLINE
8
Halfen
62
7
66
1
10
0.0
20
0.0
30
0.0
70
1
0
VERTEX
8
Halfen
62
7
10
 819
20
-815.455
30
0
0
VERTEX
8
Halfen
62
7
10
 819
20
 913.129
30
0
0
VERTEX
8
Halfen
62
7
10
 807
20
 913.129
30
0
0
VERTEX
8
Halfen
62
7
10
 807
20
-815.455
30
0
0
SEQEND
8
Halfen
0
POLYLINE
8
Halfen
62
7
66
1
10
0.0
20
0.0
30
0.0
70
1
0
VERTEX
8
Halfen
62
7
10
 934
20
-815.455
30
0
0
VERTEX
8
Halfen
62
7
10
 934
20
 913.129
30
0
0
VERTEX
8
Halfen
62
7
10
 922
20
 913.129
30
0
0
VERTEX
8
Halfen
62
7
10
 922
20
-815.455
30
0
0
SEQEND
8
Halfen
0
POLYLINE
8
Halfen
62
7
66
1
10
0.0
20
0.0
30
0.0
70
1
0
VERTEX
8
Halfen
62
7
10
 922
20
-815.455
30
0
0
VERTEX
8
Halfen
62
7
10
 922
20
 913.129
30
0
0
VERTEX
8
Halfen
62
7
10
 910
20
 913.129
30
0
0
VERTEX
8
Halfen
62
7
10
 910
20
-815.455
30
0
0
SEQEND
8
Halfen
0
POLYLINE
8
Halfen
62
7
66
1
10
0.0
20
0.0
30
0.0
70
1
0
VERTEX
8
Halfen
62
7
10
 807
20
-815.455
30
0
0
VERTEX
8
Halfen
62
7
10
 807
20
 913.129
30
0
0
VERTEX
8
Halfen
62
7
10
 795
20
 913.129
30
0
0
VERTEX
8
Halfen
62
7
10
 795
20
-815.455
30
0
0
SEQEND
8
Halfen
0
POLYLINE
8
Halfen
62
7
66
1
10
0.0
20
0.0
30
0.0
70
1
0
VERTEX
8
Halfen
62
7
10
 693
20
-815.455
30
0
0
VERTEX
8
Halfen
62
7
10
 693
20
 913.129
30
0
0
VERTEX
8
Halfen
62
7
10
 681
20
 913.129
30
0
0
VERTEX
8
Halfen
62
7
10
 681
20
-815.455
30
0
0
SEQEND
8
Halfen
0
POLYLINE
8
Halfen
62
7
66
1
10
0.0
20
0.0
30
0.0
70
1
0
VERTEX
8
Halfen
62
7
10
 578
20
-815.455
30
0
0
VERTEX
8
Halfen
62
7
10
 578
20
 913.129
30
0
0
VERTEX
8
Halfen
62
7
10
 566
20
 913.129
30
0
0
VERTEX
8
Halfen
62
7
10
 566
20
-815.455
30
0
0
SEQEND
8
Halfen
0
POLYLINE
8
Halfen
62
7
66
1
10
0.0
20
0.0
30
0.0
70
1
0
VERTEX
8
Halfen
62
7
10
 422
20
-815.455
30
0
0
VERTEX
8
Halfen
62
7
10
 422
20
 913.129
30
0
0
VERTEX
8
Halfen
62
7
10
 410
20
 913.129
30
0
0
VERTEX
8
Halfen
62
7
10
 410
20
-815.455
30
0
0
SEQEND
8
Halfen
0
POLYLINE
8
Halfen
62
7
66
1
10
0.0
20
0.0
30
0.0
70
1
0
VERTEX
8
Halfen
62
7
10
 307
20
-815.455
30
0
0
VERTEX
8
Halfen
62
7
10
 307
20
 913.129
30
0
0
VERTEX
8
Halfen
62
7
10
 295
20
 913.129
30
0
0
VERTEX
8
Halfen
62
7
10
 295
20
-815.455
30
0
0
SEQEND
8
Halfen
0
POLYLINE
8
Halfen
62
7
66
1
10
0.0
20
0.0
30
0.0
70
1
0
VERTEX
8
Halfen
62
7
10
 193
20
-815.455
30
0
0
VERTEX
8
Halfen
62
7
10
 193
20
 913.129
30
0
0
VERTEX
8
Halfen
62
7
10
 181
20
 913.129
30
0
0
VERTEX
8
Halfen
62
7
10
 181
20
-815.455
30
0
0
SEQEND
8
Halfen
0
POLYLINE
8
Halfen
62
7
66
1
10
0.0
20
0.0
30
0.0
70
1
0
VERTEX
8
Halfen
62
7
10
 78
20
-815.455
30
0
0
VERTEX
8
Halfen
62
7
10
 78
20
 913.129
30
0
0
VERTEX
8
Halfen
62
7
10
 66
20
 913.129
30
0
0
VERTEX
8
Halfen
62
7
10
 66
20
-815.455
30
0
0
SEQEND
8
Halfen
0
POLYLINE
8
Halfen
62
7
66
1
10
0.0
20
0.0
30
0.0
70
1
0
VERTEX
8
Halfen
62
7
10
 1500
20
-60
30
0
0
VERTEX
8
Halfen
62
7
10
 1500
20
 60
30
0
0
VERTEX
8
Halfen
62
7
10
 1486.5
20
 73.5
30
0
0
VERTEX
8
Halfen
62
7
10
 1486.5
20
 60
30
0
0
VERTEX
8
Halfen
62
7
10
 1250
20
 60
30
0
0
VERTEX
8
Halfen
62
7
10
 1250
20
-60
30
0
0
VERTEX
8
Halfen
62
7
10
 1486.5
20
-60
30
0
0
VERTEX
8
Halfen
62
7
10
 1486.5
20
-73.5
30
0
0
SEQEND
8
Halfen
0
POLYLINE
8
Halfen
62
7
66
1
10
0.0
20
0.0
30
0.0
70
1
0
VERTEX
8
Halfen
62
7
10
 1250
20
-60
30
0
0
VERTEX
8
Halfen
62
7
10
 1250
20
 60
30
0
0
VERTEX
8
Halfen
62
7
10
 1213.5
20
 60
30
0
0
VERTEX
8
Halfen
62
7
10
 1213.5
20
 73.5
30
0
0
VERTEX
8
Halfen
62
7
10
 1200
20
 60
30
0
0
VERTEX
8
Halfen
62
7
10
 1200
20
-60
30
0
0
VERTEX
8
Halfen
62
7
10
 1213.5
20
-73.5
30
0
0
VERTEX
8
Halfen
62
7
10
 1213.5
20
-60
30
0
0
SEQEND
8
Halfen
0
POLYLINE
8
Halfen
62
7
66
1
10
0.0
20
0.0
30
0.0
70
1
0
VERTEX
8
Halfen
62
7
10
 1497.5
20
-58.75
30
0
0
VERTEX
8
Halfen
62
7
10
 1497.5
20
 58.75
30
0
0
VERTEX
8
Halfen
62
7
10
 1489
20
 67.25
30
0
0
VERTEX
8
Halfen
62
7
10
 1489
20
 58
30
0
0
VERTEX
8
Halfen
62
7
10
 1252
20
 58
30
0
0
VERTEX
8
Halfen
62
7
10
 1252
20
-58
30
0
0
VERTEX
8
Halfen
62
7
10
 1489
20
-58
30
0
0
VERTEX
8
Halfen
62
7
10
 1489
20
-67.25
30
0
0
SEQEND
8
Halfen
0
POLYLINE
8
Halfen
62
7
66
1
10
0.0
20
0.0
30
0.0
70
1
0
VERTEX
8
Halfen
62
7
10
 1248
20
-58
30
0
0
VERTEX
8
Halfen
62
7
10
 1248
20
 58
30
0
0
VERTEX
8
Halfen
62
7
10
 1211
20
 58
30
0
0
VERTEX
8
Halfen
62
7
10
 1211
20
 67.25
30
0
0
VERTEX
8
Halfen
62
7
10
 1202.5
20
 58.75
30
0
0
VERTEX
8
Halfen
62
7
10
 1202.5
20
-58.75
30
0
0
VERTEX
8
Halfen
62
7
10
 1211
20
-67.25
30
0
0
VERTEX
8
Halfen
62
7
10
 1211
20
-58
30
0
0
SEQEND
8
Halfen
0
POLYLINE
8
Halfen
62
7
66
1
10
0.0
20
0.0
30
0.0
70
1
0
VERTEX
8
Halfen
62
7
10
 1485
20
-81.8
30
0
0
VERTEX
8
Halfen
62
7
10
 1485
20
 81.8
30
0
0
VERTEX
8
Halfen
62
7
10
 1481
20
 81.8
30
0
0
VERTEX
8
Halfen
62
7
10
 1480.846
20
 81.797
30
0
0
VERTEX
8
Halfen
62
7
10
 1480.691
20
 81.786
30
0
0
VERTEX
8
Halfen
62
7
10
 1480.538
20
 81.769
30
0
0
VERTEX
8
Halfen
62
7
10
 1480.385
20
 81.746
30
0
0
VERTEX
8
Halfen
62
7
10
 1480.234
20
 81.715
30
0
0
VERTEX
8
Halfen
62
7
10
 1480.084
20
 81.678
30
0
0
VERTEX
8
Halfen
62
7
10
 1479.936
20
 81.634
30
0
0
VERTEX
8
Halfen
62
7
10
 1479.789
20
 81.584
30
0
0
VERTEX
8
Halfen
62
7
10
 1479.646
20
 81.527
30
0
0
VERTEX
8
Halfen
62
7
10
 1479.505
20
 81.464
30
0
0
VERTEX
8
Halfen
62
7
10
 1479.366
20
 81.395
30
0
0
VERTEX
8
Halfen
62
7
10
 1479.231
20
 81.32
30
0
0
VERTEX
8
Halfen
62
7
10
 1479.1
20
 81.239
30
0
0
VERTEX
8
Halfen
62
7
10
 1478.972
20
 81.153
30
0
0
VERTEX
8
Halfen
62
7
10
 1478.848
20
 81.06
30
0
0
VERTEX
8
Halfen
62
7
10
 1478.728
20
 80.963
30
0
0
VERTEX
8
Halfen
62
7
10
 1478.613
20
 80.86
30
0
0
VERTEX
8
Halfen
62
7
10
 1478.502
20
 80.752
30
0
0
VERTEX
8
Halfen
62
7
10
 1478.397
20
 80.639
30
0
0
VERTEX
8
Halfen
62
7
10
 1478.296
20
 80.522
30
0
0
VERTEX
8
Halfen
62
7
10
 1477.41
20
 79.491
30
0
0
VERTEX
8
Halfen
62
7
10
 1476.479
20
 78.5
30
0
0
VERTEX
8
Halfen
62
7
10
 1475.505
20
 77.551
30
0
0
VERTEX
8
Halfen
62
7
10
 1474.491
20
 76.646
30
0
0
VERTEX
8
Halfen
62
7
10
 1473.437
20
 75.787
30
0
0
VERTEX
8
Halfen
62
7
10
 1472.347
20
 74.975
30
0
0
VERTEX
8
Halfen
62
7
10
 1471.222
20
 74.211
30
0
0
VERTEX
8
Halfen
62
7
10
 1470.064
20
 73.499
30
0
0
VERTEX
8
Halfen
62
7
10
 1468.876
20
 72.838
30
0
0
VERTEX
8
Halfen
62
7
10
 1467.66
20
 72.23
30
0
0
VERTEX
8
Halfen
62
7
10
 1466.418
20
 71.676
30
0
0
VERTEX
8
Halfen
62
7
10
 1465.153
20
 71.178
30
0
0
VERTEX
8
Halfen
62
7
10
 1463.867
20
 70.736
30
0
0
VERTEX
8
Halfen
62
7
10
 1462.563
20
 70.351
30
0
0
VERTEX
8
Halfen
62
7
10
 1461.243
20
 70.024
30
0
0
VERTEX
8
Halfen
62
7
10
 1459.911
20
 69.756
30
0
0
VERTEX
8
Halfen
62
7
10
 1458.567
20
 69.547
30
0
0
VERTEX
8
Halfen
62
7
10
 1457.216
20
 69.397
30
0
0
VERTEX
8
Halfen
62
7
10
 1455.859
20
 69.307
30
0
0
VERTEX
8
Halfen
62
7
10
 1454.5
20
 69.277
30
0
0
VERTEX
8
Halfen
62
7
10
 1432.5
20
 69.277
30
0
0
VERTEX
8
Halfen
62
7
10
 1431.141
20
 69.307
30
0
0
VERTEX
8
Halfen
62
7
10
 1429.784
20
 69.397
30
0
0
VERTEX
8
Halfen
62
7
10
 1428.433
20
 69.547
30
0
0
VERTEX
8
Halfen
62
7
10
 1427.089
20
 69.756
30
0
0
VERTEX
8
Halfen
62
7
10
 1425.757
20
 70.024
30
0
0
VERTEX
8
Halfen
62
7
10
 1424.437
20
 70.351
30
0
0
VERTEX
8
Halfen
62
7
10
 1423.133
20
 70.736
30
0
0
VERTEX
8
Halfen
62
7
10
 1421.847
20
 71.178
30
0
0
VERTEX
8
Halfen
62
7
10
 1420.582
20
 71.676
30
0
0
VERTEX
8
Halfen
62
7
10
 1419.34
20
 72.23
30
0
0
VERTEX
8
Halfen
62
7
10
 1418.124
20
 72.838
30
0
0
VERTEX
8
Halfen
62
7
10
 1416.936
20
 73.499
30
0
0
VERTEX
8
Halfen
62
7
10
 1415.778
20
 74.211
30
0
0
VERTEX
8
Halfen
62
7
10
 1414.653
20
 74.975
30
0
0
VERTEX
8
Halfen
62
7
10
 1413.563
20
 75.787
30
0
0
VERTEX
8
Halfen
62
7
10
 1412.509
20
 76.646
30
0
0
VERTEX
8
Halfen
62
7
10
 1411.495
20
 77.551
30
0
0
VERTEX
8
Halfen
62
7
10
 1410.521
20
 78.5
30
0
0
VERTEX
8
Halfen
62
7
10
 1409.59
20
 79.491
30
0
0
VERTEX
8
Halfen
62
7
10
 1408.704
20
 80.522
30
0
0
VERTEX
8
Halfen
62
7
10
 1408.603
20
 80.639
30
0
0
VERTEX
8
Halfen
62
7
10
 1408.498
20
 80.752
30
0
0
VERTEX
8
Halfen
62
7
10
 1408.387
20
 80.86
30
0
0
VERTEX
8
Halfen
62
7
10
 1408.272
20
 80.963
30
0
0
VERTEX
8
Halfen
62
7
10
 1408.152
20
 81.06
30
0
0
VERTEX
8
Halfen
62
7
10
 1408.028
20
 81.153
30
0
0
VERTEX
8
Halfen
62
7
10
 1407.9
20
 81.239
30
0
0
VERTEX
8
Halfen
62
7
10
 1407.769
20
 81.32
30
0
0
VERTEX
8
Halfen
62
7
10
 1407.634
20
 81.395
30
0
0
VERTEX
8
Halfen
62
7
10
 1407.495
20
 81.464
30
0
0
VERTEX
8
Halfen
62
7
10
 1407.354
20
 81.527
30
0
0
VERTEX
8
Halfen
62
7
10
 1407.211
20
 81.584
30
0
0
VERTEX
8
Halfen
62
7
10
 1407.064
20
 81.634
30
0
0
VERTEX
8
Halfen
62
7
10
 1406.916
20
 81.678
30
0
0
VERTEX
8
Halfen
62
7
10
 1406.766
20
 81.715
30
0
0
VERTEX
8
Halfen
62
7
10
 1406.615
20
 81.746
30
0
0
VERTEX
8
Halfen
62
7
10
 1406.462
20
 81.769
30
0
0
VERTEX
8
Halfen
62
7
10
 1406.309
20
 81.786
30
0
0
VERTEX
8
Halfen
62
7
10
 1406.154
20
 81.797
30
0
0
VERTEX
8
Halfen
62
7
10
 1406
20
 81.8
30
0
0
VERTEX
8
Halfen
62
7
10
 1402
20
 81.8
30
0
0
VERTEX
8
Halfen
62
7
10
 1402
20
-81.8
30
0
0
VERTEX
8
Halfen
62
7
10
 1406
20
-81.8
30
0
0
VERTEX
8
Halfen
62
7
10
 1406.154
20
-81.797
30
0
0
VERTEX
8
Halfen
62
7
10
 1406.309
20
-81.786
30
0
0
VERTEX
8
Halfen
62
7
10
 1406.462
20
-81.769
30
0
0
VERTEX
8
Halfen
62
7
10
 1406.615
20
-81.746
30
0
0
VERTEX
8
Halfen
62
7
10
 1406.766
20
-81.715
30
0
0
VERTEX
8
Halfen
62
7
10
 1406.916
20
-81.678
30
0
0
VERTEX
8
Halfen
62
7
10
 1407.064
20
-81.634
30
0
0
VERTEX
8
Halfen
62
7
10
 1407.211
20
-81.584
30
0
0
VERTEX
8
Halfen
62
7
10
 1407.354
20
-81.527
30
0
0
VERTEX
8
Halfen
62
7
10
 1407.495
20
-81.464
30
0
0
VERTEX
8
Halfen
62
7
10
 1407.634
20
-81.395
30
0
0
VERTEX
8
Halfen
62
7
10
 1407.769
20
-81.32
30
0
0
VERTEX
8
Halfen
62
7
10
 1407.9
20
-81.239
30
0
0
VERTEX
8
Halfen
62
7
10
 1408.028
20
-81.153
30
0
0
VERTEX
8
Halfen
62
7
10
 1408.152
20
-81.06
30
0
0
VERTEX
8
Halfen
62
7
10
 1408.272
20
-80.963
30
0
0
VERTEX
8
Halfen
62
7
10
 1408.387
20
-80.86
30
0
0
VERTEX
8
Halfen
62
7
10
 1408.498
20
-80.752
30
0
0
VERTEX
8
Halfen
62
7
10
 1408.603
20
-80.639
30
0
0
VERTEX
8
Halfen
62
7
10
 1408.704
20
-80.522
30
0
0
VERTEX
8
Halfen
62
7
10
 1409.59
20
-79.491
30
0
0
VERTEX
8
Halfen
62
7
10
 1410.521
20
-78.5
30
0
0
VERTEX
8
Halfen
62
7
10
 1411.495
20
-77.551
30
0
0
VERTEX
8
Halfen
62
7
10
 1412.509
20
-76.646
30
0
0
VERTEX
8
Halfen
62
7
10
 1413.563
20
-75.787
30
0
0
VERTEX
8
Halfen
62
7
10
 1414.653
20
-74.975
30
0
0
VERTEX
8
Halfen
62
7
10
 1415.778
20
-74.211
30
0
0
VERTEX
8
Halfen
62
7
10
 1416.936
20
-73.499
30
0
0
VERTEX
8
Halfen
62
7
10
 1418.124
20
-72.838
30
0
0
VERTEX
8
Halfen
62
7
10
 1419.34
20
-72.23
30
0
0
VERTEX
8
Halfen
62
7
10
 1420.582
20
-71.676
30
0
0
VERTEX
8
Halfen
62
7
10
 1421.847
20
-71.178
30
0
0
VERTEX
8
Halfen
62
7
10
 1423.133
20
-70.736
30
0
0
VERTEX
8
Halfen
62
7
10
 1424.437
20
-70.351
30
0
0
VERTEX
8
Halfen
62
7
10
 1425.757
20
-70.024
30
0
0
VERTEX
8
Halfen
62
7
10
 1427.089
20
-69.756
30
0
0
VERTEX
8
Halfen
62
7
10
 1428.433
20
-69.547
30
0
0
VERTEX
8
Halfen
62
7
10
 1429.784
20
-69.397
30
0
0
VERTEX
8
Halfen
62
7
10
 1431.141
20
-69.307
30
0
0
VERTEX
8
Halfen
62
7
10
 1432.5
20
-69.277
30
0
0
VERTEX
8
Halfen
62
7
10
 1454.5
20
-69.277
30
0
0
VERTEX
8
Halfen
62
7
10
 1455.859
20
-69.307
30
0
0
VERTEX
8
Halfen
62
7
10
 1457.216
20
-69.397
30
0
0
VERTEX
8
Halfen
62
7
10
 1458.567
20
-69.547
30
0
0
VERTEX
8
Halfen
62
7
10
 1459.911
20
-69.756
30
0
0
VERTEX
8
Halfen
62
7
10
 1461.243
20
-70.024
30
0
0
VERTEX
8
Halfen
62
7
10
 1462.563
20
-70.351
30
0
0
VERTEX
8
Halfen
62
7
10
 1463.867
20
-70.736
30
0
0
VERTEX
8
Halfen
62
7
10
 1465.153
20
-71.178
30
0
0
VERTEX
8
Halfen
62
7
10
 1466.418
20
-71.676
30
0
0
VERTEX
8
Halfen
62
7
10
 1467.66
20
-72.23
30
0
0
VERTEX
8
Halfen
62
7
10
 1468.876
20
-72.838
30
0
0
VERTEX
8
Halfen
62
7
10
 1470.064
20
-73.499
30
0
0
VERTEX
8
Halfen
62
7
10
 1471.222
20
-74.211
30
0
0
VERTEX
8
Halfen
62
7
10
 1472.347
20
-74.975
30
0
0
VERTEX
8
Halfen
62
7
10
 1473.437
20
-75.787
30
0
0
VERTEX
8
Halfen
62
7
10
 1474.491
20
-76.646
30
0
0
VERTEX
8
Halfen
62
7
10
 1475.505
20
-77.551
30
0
0
VERTEX
8
Halfen
62
7
10
 1476.479
20
-78.5
30
0
0
VERTEX
8
Halfen
62
7
10
 1477.41
20
-79.491
30
0
0
VERTEX
8
Halfen
62
7
10
 1478.296
20
-80.522
30
0
0
VERTEX
8
Halfen
62
7
10
 1478.397
20
-80.639
30
0
0
VERTEX
8
Halfen
62
7
10
 1478.502
20
-80.752
30
0
0
VERTEX
8
Halfen
62
7
10
 1478.613
20
-80.86
30
0
0
VERTEX
8
Halfen
62
7
10
 1478.728
20
-80.963
30
0
0
VERTEX
8
Halfen
62
7
10
 1478.848
20
-81.06
30
0
0
VERTEX
8
Halfen
62
7
10
 1478.972
20
-81.153
30
0
0
VERTEX
8
Halfen
62
7
10
 1479.1
20
-81.239
30
0
0
VERTEX
8
Halfen
62
7
10
 1479.231
20
-81.32
30
0
0
VERTEX
8
Halfen
62
7
10
 1479.366
20
-81.395
30
0
0
VERTEX
8
Halfen
62
7
10
 1479.505
20
-81.464
30
0
0
VERTEX
8
Halfen
62
7
10
 1479.646
20
-81.527
30
0
0
VERTEX
8
Halfen
62
7
10
 1479.789
20
-81.584
30
0
0
VERTEX
8
Halfen
62
7
10
 1479.936
20
-81.634
30
0
0
VERTEX
8
Halfen
62
7
10
 1480.084
20
-81.678
30
0
0
VERTEX
8
Halfen
62
7
10
 1480.234
20
-81.715
30
0
0
VERTEX
8
Halfen
62
7
10
 1480.385
20
-81.746
30
0
0
VERTEX
8
Halfen
62
7
10
 1480.538
20
-81.769
30
0
0
VERTEX
8
Halfen
62
7
10
 1480.691
20
-81.786
30
0
0
VERTEX
8
Halfen
62
7
10
 1480.846
20
-81.797
30
0
0
VERTEX
8
Halfen
62
7
10
 1481
20
-81.8
30
0
0
SEQEND
8
Halfen
0
POLYLINE
8
Halfen
62
7
66
1
10
0.0
20
0.0
30
0.0
70
1
0
VERTEX
8
Halfen
62
7
10
 1470
20
-815.455
30
0
0
VERTEX
8
Halfen
62
7
10
 1470
20
-100.956
30
0
0
VERTEX
8
Halfen
62
7
10
 1469.359
20
-93.137
30
0
0
VERTEX
8
Halfen
62
7
10
 1467.453
20
-85.527
30
0
0
VERTEX
8
Halfen
62
7
10
 1464.332
20
-78.329
30
0
0
VERTEX
8
Halfen
62
7
10
 1460.081
20
-71.735
30
0
0
VERTEX
8
Halfen
62
7
10
 1269.439
20
 176.714
30
0
0
VERTEX
8
Halfen
62
7
10
 1266.251
20
 181.659
30
0
0
VERTEX
8
Halfen
62
7
10
 1263.911
20
 187.057
30
0
0
VERTEX
8
Halfen
62
7
10
 1262.481
20
 192.765
30
0
0
VERTEX
8
Halfen
62
7
10
 1262
20
 198.629
30
0
0
VERTEX
8
Halfen
62
7
10
 1262
20
 252.129
30
0
0
VERTEX
8
Halfen
62
7
10
 1262
20
 913.129
30
0
0
VERTEX
8
Halfen
62
7
10
 1250
20
 913.129
30
0
0
VERTEX
8
Halfen
62
7
10
 1250
20
 252.129
30
0
0
VERTEX
8
Halfen
62
7
10
 1250
20
 198.629
30
0
0
VERTEX
8
Halfen
62
7
10
 1250.641
20
 190.81
30
0
0
VERTEX
8
Halfen
62
7
10
 1252.547
20
 183.2
30
0
0
VERTEX
8
Halfen
62
7
10
 1255.668
20
 176.002
30
0
0
VERTEX
8
Halfen
62
7
10
 1259.919
20
 169.409
30
0
0
VERTEX
8
Halfen
62
7
10
 1450.561
20
-79.04
30
0
0
VERTEX
8
Halfen
62
7
10
 1453.749
20
-83.986
30
0
0
VERTEX
8
Halfen
62
7
10
 1456.089
20
-89.384
30
0
0
VERTEX
8
Halfen
62
7
10
 1457.519
20
-95.092
30
0
0
VERTEX
8
Halfen
62
7
10
 1458
20
-100.956
30
0
0
VERTEX
8
Halfen
62
7
10
 1458
20
-815.455
30
0
0
SEQEND
8
Halfen
0
POLYLINE
8
Halfen
62
7
66
1
10
0.0
20
0.0
30
0.0
70
1
0
VERTEX
8
Halfen
62
7
10
 1250
20
-815.455
30
0
0
VERTEX
8
Halfen
62
7
10
 1250
20
-100.956
30
0
0
VERTEX
8
Halfen
62
7
10
 1250.641
20
-93.137
30
0
0
VERTEX
8
Halfen
62
7
10
 1252.547
20
-85.527
30
0
0
VERTEX
8
Halfen
62
7
10
 1255.668
20
-78.329
30
0
0
VERTEX
8
Halfen
62
7
10
 1259.919
20
-71.735
30
0
0
VERTEX
8
Halfen
62
7
10
 1450.561
20
 176.714
30
0
0
VERTEX
8
Halfen
62
7
10
 1453.749
20
 181.659
30
0
0
VERTEX
8
Halfen
62
7
10
 1456.089
20
 187.057
30
0
0
VERTEX
8
Halfen
62
7
10
 1457.519
20
 192.765
30
0
0
VERTEX
8
Halfen
62
7
10
 1458
20
 198.629
30
0
0
VERTEX
8
Halfen
62
7
10
 1458
20
 252.129
30
0
0
VERTEX
8
Halfen
62
7
10
 1458
20
 913.129
30
0
0
VERTEX
8
Halfen
62
7
10
 1470
20
 913.129
30
0
0
VERTEX
8
Halfen
62
7
10
 1470
20
 252.129
30
0
0
VERTEX
8
Halfen
62
7
10
 1470
20
 198.629
30
0
0
VERTEX
8
Halfen
62
7
10
 1469.359
20
 190.81
30
0
0
VERTEX
8
Halfen
62
7
10
 1467.453
20
 183.2
30
0
0
VERTEX
8
Halfen
62
7
10
 1464.332
20
 176.002
30
0
0
VERTEX
8
Halfen
62
7
10
 1460.081
20
 169.409
30
0
0
VERTEX
8
Halfen
62
7
10
 1269.439
20
-79.04
30
0
0
VERTEX
8
Halfen
62
7
10
 1266.251
20
-83.986
30
0
0
VERTEX
8
Halfen
62
7
10
 1263.911
20
-89.384
30
0
0
VERTEX
8
Halfen
62
7
10
 1262.481
20
-95.092
30
0
0
VERTEX
8
Halfen
62
7
10
 1262
20
-100.956
30
0
0
VERTEX
8
Halfen
62
7
10
 1262
20
-815.455
30
0
0
SEQEND
8
Halfen
0
ENDSEC
0
EOF
