  0
SECTION
  2
HEADER
  9
$ACADVER
  1
AC1032
  9
$ACADMAINTVER
 90
4
  9
$DWGCODEPAGE
  3
ANSI_1252
  9
$LASTSAVEDBY
  1
ezdxf
  9
$REQUIREDVERSIONS
160
0
  9
$INSBASE
 10
0.0
 20
0.0
 30
0.0
  9
$EXTMIN
 10
1e+20
 20
1e+20
 30
1e+20
  9
$EXTMAX
 10
-1e+20
 20
-1e+20
 30
-1e+20
  9
$LIMMIN
 10
0.0
 20
0.0
  9
$LIMMAX
 10
420.0
 20
297.0
  9
$ORTHOMODE
 70
0
  9
$REGENMODE
 70
1
  9
$FILLMODE
 70
1
  9
$QTEXTMODE
 70
0
  9
$MIRRTEXT
 70
1
  9
$LTSCALE
 40
1.0
  9
$ATTMODE
 70
1
  9
$TEXTSIZE
 40
2.5
  9
$TRACEWID
 40
1.0
  9
$TEXTSTYLE
  7
Standard
  9
$CLAYER
  8
0
  9
$CELTYPE
  6
ByLayer
  9
$CECOLOR
 62
256
  9
$CELTSCALE
 40
1.0
  9
$DISPSILH
 70
0
  9
$DIMSCALE
 40
1.0
  9
$DIMASZ
 40
2.5
  9
$DIMEXO
 40
0.625
  9
$DIMDLI
 40
3.75
  9
$DIMRND
 40
0.0
  9
$DIMDLE
 40
0.0
  9
$DIMEXE
 40
1.25
  9
$DIMTP
 40
0.0
  9
$DIMTM
 40
0.0
  9
$DIMTXT
 40
2.5
  9
$DIMCEN
 40
2.5
  9
$DIMTSZ
 40
0.0
  9
$DIMTOL
 70
0
  9
$DIMLIM
 70
0
  9
$DIMTIH
 70
0
  9
$DIMTOH
 70
0
  9
$DIMSE1
 70
0
  9
$DIMSE2
 70
0
  9
$DIMTAD
 70
1
  9
$DIMZIN
 70
8
  9
$DIMBLK
  1

  9
$DIMASO
 70
1
  9
$DIMSHO
 70
1
  9
$DIMPOST
  1

  9
$DIMAPOST
  1

  9
$DIMALT
 70
0
  9
$DIMALTD
 70
3
  9
$DIMALTF
 40
0.03937007874
  9
$DIMLFAC
 40
1.0
  9
$DIMTOFL
 70
1
  9
$DIMTVP
 40
0.0
  9
$DIMTIX
 70
0
  9
$DIMSOXD
 70
0
  9
$DIMSAH
 70
0
  9
$DIMBLK1
  1

  9
$DIMBLK2
  1

  9
$DIMSTYLE
  2
ISO-25
  9
$DIMCLRD
 70
0
  9
$DIMCLRE
 70
0
  9
$DIMCLRT
 70
0
  9
$DIMTFAC
 40
1.0
  9
$DIMGAP
 40
0.625
  9
$DIMJUST
 70
0
  9
$DIMSD1
 70
0
  9
$DIMSD2
 70
0
  9
$DIMTOLJ
 70
0
  9
$DIMTZIN
 70
8
  9
$DIMALTZ
 70
0
  9
$DIMALTTZ
 70
0
  9
$DIMUPT
 70
0
  9
$DIMDEC
 70
2
  9
$DIMTDEC
 70
2
  9
$DIMALTU
 70
2
  9
$DIMALTTD
 70
3
  9
$DIMTXSTY
  7
Standard
  9
$DIMAUNIT
 70
0
  9
$DIMADEC
 70
0
  9
$DIMALTRND
 40
0.0
  9
$DIMAZIN
 70
0
  9
$DIMDSEP
 70
44
  9
$DIMATFIT
 70
3
  9
$DIMFRAC
 70
0
  9
$DIMLDRBLK
  1

  9
$DIMLUNIT
 70
2
  9
$DIMLWD
 70
-2
  9
$DIMLWE
 70
-2
  9
$DIMTMOVE
 70
0
  9
$DIMFXL
 40
1.0
  9
$DIMFXLON
 70
0
  9
$DIMJOGANG
 40
0.785398163397
  9
$DIMTFILL
 70
0
  9
$DIMTFILLCLR
 70
0
  9
$DIMARCSYM
 70
0
  9
$DIMLTYPE
  6

  9
$DIMLTEX1
  6

  9
$DIMLTEX2
  6

  9
$DIMTXTDIRECTION
 70
0
  9
$LUNITS
 70
2
  9
$LUPREC
 70
4
  9
$SKETCHINC
 40
1.0
  9
$FILLETRAD
 40
10.0
  9
$AUNITS
 70
0
  9
$AUPREC
 70
2
  9
$MENU
  1
.
  9
$ELEVATION
 40
0.0
  9
$PELEVATION
 40
0.0
  9
$THICKNESS
 40
0.0
  9
$LIMCHECK
 70
0
  9
$CHAMFERA
 40
0.0
  9
$CHAMFERB
 40
0.0
  9
$CHAMFERC
 40
0.0
  9
$CHAMFERD
 40
0.0
  9
$SKPOLY
 70
0
  9
$TDCREATE
 40
2461085.245960648
  9
$TDUCREATE
 40
2458532.153996898
  9
$TDUPDATE
 40
2461085.245960648
  9
$TDUUPDATE
 40
2458532.1544311
  9
$TDINDWG
 40
0.0
  9
$TDUSRTIMER
 40
0.0
  9
$USRTIMER
 70
1
  9
$ANGBASE
 50
0.0
  9
$ANGDIR
 70
0
  9
$PDMODE
 70
0
  9
$PDSIZE
 40
0.0
  9
$PLINEWID
 40
0.0
  9
$SPLFRAME
 70
0
  9
$SPLINETYPE
 70
6
  9
$SPLINESEGS
 70
8
  9
$HANDSEED
  5
A6
  9
$SURFTAB1
 70
6
  9
$SURFTAB2
 70
6
  9
$SURFTYPE
 70
6
  9
$SURFU
 70
6
  9
$SURFV
 70
6
  9
$UCSBASE
  2

  9
$UCSNAME
  2

  9
$UCSORG
 10
0.0
 20
0.0
 30
0.0
  9
$UCSXDIR
 10
1.0
 20
0.0
 30
0.0
  9
$UCSYDIR
 10
0.0
 20
1.0
 30
0.0
  9
$UCSORTHOREF
  2

  9
$UCSORTHOVIEW
 70
0
  9
$UCSORGTOP
 10
0.0
 20
0.0
 30
0.0
  9
$UCSORGBOTTOM
 10
0.0
 20
0.0
 30
0.0
  9
$UCSORGLEFT
 10
0.0
 20
0.0
 30
0.0
  9
$UCSORGRIGHT
 10
0.0
 20
0.0
 30
0.0
  9
$UCSORGFRONT
 10
0.0
 20
0.0
 30
0.0
  9
$UCSORGBACK
 10
0.0
 20
0.0
 30
0.0
  9
$PUCSBASE
  2

  9
$PUCSNAME
  2

  9
$PUCSORG
 10
0.0
 20
0.0
 30
0.0
  9
$PUCSXDIR
 10
1.0
 20
0.0
 30
0.0
  9
$PUCSYDIR
 10
0.0
 20
1.0
 30
0.0
  9
$PUCSORTHOREF
  2

  9
$PUCSORTHOVIEW
 70
0
  9
$PUCSORGTOP
 10
0.0
 20
0.0
 30
0.0
  9
$PUCSORGBOTTOM
 10
0.0
 20
0.0
 30
0.0
  9
$PUCSORGLEFT
 10
0.0
 20
0.0
 30
0.0
  9
$PUCSORGRIGHT
 10
0.0
 20
0.0
 30
0.0
  9
$PUCSORGFRONT
 10
0.0
 20
0.0
 30
0.0
  9
$PUCSORGBACK
 10
0.0
 20
0.0
 30
0.0
  9
$USERI1
 70
0
  9
$USERI2
 70
0
  9
$USERI3
 70
0
  9
$USERI4
 70
0
  9
$USERI5
 70
0
  9
$USERR1
 40
0.0
  9
$USERR2
 40
0.0
  9
$USERR3
 40
0.0
  9
$USERR4
 40
0.0
  9
$USERR5
 40
0.0
  9
$WORLDVIEW
 70
1
  9
$SHADEDGE
 70
3
  9
$SHADEDIF
 70
70
  9
$TILEMODE
 70
1
  9
$MAXACTVP
 70
64
  9
$PINSBASE
 10
0.0
 20
0.0
 30
0.0
  9
$PLIMCHECK
 70
0
  9
$PEXTMIN
 10
1e+20
 20
1e+20
 30
1e+20
  9
$PEXTMAX
 10
-1e+20
 20
-1e+20
 30
-1e+20
  9
$PLIMMIN
 10
0.0
 20
0.0
  9
$PLIMMAX
 10
420.0
 20
297.0
  9
$UNITMODE
 70
0
  9
$VISRETAIN
 70
1
  9
$PLINEGEN
 70
0
  9
$PSLTSCALE
 70
1
  9
$TREEDEPTH
 70
3020
  9
$CMLSTYLE
  2
Standard
  9
$CMLJUST
 70
0
  9
$CMLSCALE
 40
20.0
  9
$PROXYGRAPHICS
 70
1
  9
$MEASUREMENT
 70
1
  9
$CELWEIGHT
370
-1
  9
$ENDCAPS
280
0
  9
$JOINSTYLE
280
0
  9
$LWDISPLAY
290
0
  9
$INSUNITS
 70
6
  9
$HYPERLINKBASE
  1

  9
$STYLESHEET
  1

  9
$XEDIT
290
1
  9
$CEPSNTYPE
380
0
  9
$PSTYLEMODE
290
1
  9
$FINGERPRINTGUID
  2
{D3AE8A4A-652B-4D41-B1F2-8D4C02EA5878}
  9
$VERSIONGUID
  2
{61D65827-F16F-4248-8D58-49A1106FE736}
  9
$EXTNAMES
290
1
  9
$PSVPSCALE
 40
0.0
  9
$OLESTARTUP
290
0
  9
$SORTENTS
280
127
  9
$INDEXCTL
280
0
  9
$HIDETEXT
280
1
  9
$XCLIPFRAME
280
1
  9
$HALOGAP
280
0
  9
$OBSCOLOR
 70
257
  9
$OBSLTYPE
280
0
  9
$INTERSECTIONDISPLAY
280
0
  9
$INTERSECTIONCOLOR
 70
257
  9
$DIMASSOC
280
2
  9
$PROJECTNAME
  1

  9
$CAMERADISPLAY
290
0
  9
$LENSLENGTH
 40
50.0
  9
$CAMERAHEIGHT
 40
0.0
  9
$STEPSPERSEC
 40
24.0
  9
$STEPSIZE
 40
100.0
  9
$3DDWFPREC
 40
2.0
  9
$PSOLWIDTH
 40
0.005
  9
$PSOLHEIGHT
 40
0.08
  9
$LOFTANG1
 40
1.570796326795
  9
$LOFTANG2
 40
1.570796326795
  9
$LOFTMAG1
 40
0.0
  9
$LOFTMAG2
 40
0.0
  9
$LOFTPARAM
 70
7
  9
$LOFTNORMALS
280
1
  9
$LATITUDE
 40
37.795
  9
$LONGITUDE
 40
-122.394
  9
$NORTHDIRECTION
 40
0.0
  9
$TIMEZONE
 70
-8000
  9
$LIGHTGLYPHDISPLAY
280
1
  9
$TILEMODELIGHTSYNCH
280
1
  9
$CMATERIAL
347
20
  9
$SOLIDHIST
280
0
  9
$SHOWHIST
280
1
  9
$DWFFRAME
280
2
  9
$DGNFRAME
280
2
  9
$REALWORLDSCALE
290
1
  9
$INTERFERECOLOR
 62
256
  9
$CSHADOW
280
0
  9
$SHADOWPLANELOCATION
 40
0.0
  0
ENDSEC
  0
SECTION
  2
CLASSES
  0
CLASS
  1
ACDBDICTIONARYWDFLT
  2
AcDbDictionaryWithDefault
  3
ObjectDBX Classes
 90
0
 91
0
280
0
281
0
  0
CLASS
  1
SUN
  2
AcDbSun
  3
SCENEOE
 90
1153
 91
0
280
0
281
0
  0
CLASS
  1
VISUALSTYLE
  2
AcDbVisualStyle
  3
ObjectDBX Classes
 90
4095
 91
0
280
0
281
0
  0
CLASS
  1
MATERIAL
  2
AcDbMaterial
  3
ObjectDBX Classes
 90
1153
 91
0
280
0
281
0
  0
CLASS
  1
SCALE
  2
AcDbScale
  3
ObjectDBX Classes
 90
1153
 91
0
280
0
281
0
  0
CLASS
  1
TABLESTYLE
  2
AcDbTableStyle
  3
ObjectDBX Classes
 90
4095
 91
0
280
0
281
0
  0
CLASS
  1
MLEADERSTYLE
  2
AcDbMLeaderStyle
  3
ACDB_MLEADERSTYLE_CLASS
 90
4095
 91
0
280
0
281
0
  0
CLASS
  1
DICTIONARYVAR
  2
AcDbDictionaryVar
  3
ObjectDBX Classes
 90
0
 91
0
280
0
281
0
  0
CLASS
  1
CELLSTYLEMAP
  2
AcDbCellStyleMap
  3
ObjectDBX Classes
 90
1152
 91
0
280
0
281
0
  0
CLASS
  1
MENTALRAYRENDERSETTINGS
  2
AcDbMentalRayRenderSettings
  3
SCENEOE
 90
1024
 91
0
280
0
281
0
  0
CLASS
  1
ACDBDETAILVIEWSTYLE
  2
AcDbDetailViewStyle
  3
ObjectDBX Classes
 90
1025
 91
0
280
0
281
0
  0
CLASS
  1
ACDBSECTIONVIEWSTYLE
  2
AcDbSectionViewStyle
  3
ObjectDBX Classes
 90
1025
 91
0
280
0
281
0
  0
CLASS
  1
RASTERVARIABLES
  2
AcDbRasterVariables
  3
ISM
 90
0
 91
0
280
0
281
0
  0
CLASS
  1
LAYOUT
  2
AcDbLayout
  3
ObjectDBX Classes
 90
0
 91
0
280
0
281
0
  0
CLASS
  1
ACDBPLACEHOLDER
  2
AcDbPlaceHolder
  3
ObjectDBX Classes
 90
0
 91
0
280
0
281
0
  0
ENDSEC
  0
SECTION
  2
TABLES
  0
TABLE
  2
VPORT
  5
8
330
0
100
AcDbSymbolTable
 70
1
  0
VPORT
  5
23
330
8
100
AcDbSymbolTableRecord
100
AcDbViewportTableRecord
  2
*Active
 70
0
 10
0.0
 20
0.0
 11
1.0
 21
1.0
 12
0.0
 22
0.0
 13
0.0
 23
0.0
 14
0.5
 24
0.5
 15
0.5
 25
0.5
 16
0.0
 26
0.0
 36
1.0
 17
0.0
 27
0.0
 37
0.0
 40
1000.0
 41
1.34
 42
50.0
 43
0.0
 44
0.0
 50
0.0
 51
0.0
 71
0
 72
1000
 73
1
 74
3
 75
0
 76
0
 77
0
 78
0
281
0
 65
0
146
0.0
  0
ENDTAB
  0
TABLE
  2
LTYPE
  5
2
330
0
100
AcDbSymbolTable
 70
4
  0
LTYPE
  5
24
330
2
100
AcDbSymbolTableRecord
100
AcDbLinetypeTableRecord
  2
ByBlock
 70
0
  3

 72
65
 73
0
 40
0.0
  0
LTYPE
  5
25
330
2
100
AcDbSymbolTableRecord
100
AcDbLinetypeTableRecord
  2
ByLayer
 70
0
  3

 72
65
 73
0
 40
0.0
  0
LTYPE
  5
26
330
2
100
AcDbSymbolTableRecord
100
AcDbLinetypeTableRecord
  2
Continuous
 70
0
  3

 72
65
 73
0
 40
0.0
  0
LTYPE
  5
A0
330
2
100
AcDbSymbolTableRecord
100
AcDbLinetypeTableRecord
  2
MV_hartlijn_staal
 70
0
  3

 72
65
 73
4
 40
6.599999999999999
 49
5.0
 74
0
 49
-0.8
 74
0
 49
0.0
 74
0
 49
-0.8
 74
0
  0
ENDTAB
  0
TABLE
  2
LAYER
  5
1
330
0
100
AcDbSymbolTable
 70
3
  0
LAYER
  5
27
330
1
100
AcDbSymbolTableRecord
100
AcDbLayerTableRecord
  2
0
 70
0
 62
7
  6
Continuous
370
-3
390
13
347
21
  0
LAYER
  5
28
330
1
100
AcDbSymbolTableRecord
100
AcDbLayerTableRecord
  2
Defpoints
 70
0
 62
7
  6
Continuous
290
0
370
-3
390
13
347
21
  0
LAYER
  5
9F
330
1
100
AcDbSymbolTableRecord
100
AcDbLayerTableRecord
  2
A-DETL-GENF
 70
0
 62
92
  6
Continuous
370
18
390
13
347
21
348
0
  0
ENDTAB
  0
TABLE
  2
STYLE
  5
5
330
0
100
AcDbSymbolTable
 70
1
  0
STYLE
  5
29
330
5
100
AcDbSymbolTableRecord
100
AcDbTextStyleTableRecord
  2
Standard
 70
0
 40
0.0
 41
1.0
 50
0.0
 71
0
 42
2.5
  3
txt
  4

  0
ENDTAB
  0
TABLE
  2
VIEW
  5
7
330
0
100
AcDbSymbolTable
 70
0
  0
ENDTAB
  0
TABLE
  2
UCS
  5
6
330
0
100
AcDbSymbolTable
 70
0
  0
ENDTAB
  0
TABLE
  2
APPID
  5
3
330
0
100
AcDbSymbolTable
 70
3
  0
APPID
  5
2A
330
3
100
AcDbSymbolTableRecord
100
AcDbRegAppTableRecord
  2
ACAD
 70
0
  0
APPID
  5
A3
330
3
100
AcDbSymbolTableRecord
100
AcDbRegAppTableRecord
  2
HATCHBACKGROUNDCOLOR
 70
0
  0
APPID
  5
A4
330
3
100
AcDbSymbolTableRecord
100
AcDbRegAppTableRecord
  2
EZDXF
 70
0
  0
ENDTAB
  0
TABLE
  2
DIMSTYLE
  5
4
330
0
100
AcDbSymbolTable
 70
1
100
AcDbDimStyleTable
  0
DIMSTYLE
105
2B
330
4
100
AcDbSymbolTableRecord
100
AcDbDimStyleTableRecord
  2
Standard
 70
0
 40
1.0
 41
2.5
 42
0.625
 43
3.75
 44
1.25
 45
0.0
 46
0.0
 47
0.0
 48
0.0
 49
2.5
140
2.5
141
2.5
142
0.0
143
0.03937007874
144
1.0
145
0.0
146
1.0
147
0.625
148
0.0
 69
0
 70
0
 71
0
 72
0
 73
0
 74
0
 75
0
 76
0
 77
1
 78
8
 79
3
170
0
171
3
172
1
173
0
174
0
175
0
176
0
177
0
178
0
179
2
271
2
272
2
273
2
274
3
275
0
276
0
277
2
278
44
279
0
280
0
281
0
282
0
283
0
284
8
285
0
286
0
288
0
289
3
290
0
371
-2
372
-2
  0
ENDTAB
  0
TABLE
  2
BLOCK_RECORD
  5
9
330
0
100
AcDbSymbolTable
 70
3
  0
BLOCK_RECORD
  5
17
330
9
100
AcDbSymbolTableRecord
100
AcDbBlockTableRecord
  2
*Model_Space
340
1A
 70
0
280
1
281
0
  0
BLOCK_RECORD
  5
1B
330
9
100
AcDbSymbolTableRecord
100
AcDbBlockTableRecord
  2
*Paper_Space
340
1E
 70
0
280
1
281
0
  0
BLOCK_RECORD
  5
2F
330
9
100
AcDbSymbolTableRecord
100
AcDbBlockTableRecord
  2
28 schroeven 2D - Verzonken schroef 5_0x50mm-3138919-00_0 Basismaterialen
340
0
 70
0
280
1
281
0
  0
ENDTAB
  0
ENDSEC
  0
SECTION
  2
BLOCKS
  0
BLOCK
  5
18
330
17
100
AcDbEntity
  8
0
100
AcDbBlockBegin
  2
*Model_Space
 70
0
 10
0.0
 20
0.0
 30
0.0
  3
*Model_Space
  1

  0
ENDBLK
  5
19
330
17
100
AcDbEntity
  8
0
100
AcDbBlockEnd
  0
BLOCK
  5
1C
330
1B
100
AcDbEntity
  8
0
100
AcDbBlockBegin
  2
*Paper_Space
 70
0
 10
0.0
 20
0.0
 30
0.0
  3
*Paper_Space
  1

  0
ENDBLK
  5
1D
330
1B
100
AcDbEntity
  8
0
100
AcDbBlockEnd
  0
BLOCK
  5
30
330
2F
100
AcDbEntity
  8
0
100
AcDbBlockBegin
  2
28 schroeven 2D - Verzonken schroef 5_0x50mm-3138919-00_0 Basismaterialen
 70
0
 10
0.0
 20
0.0
 30
0.0
  3
28 schroeven 2D - Verzonken schroef 5_0x50mm-3138919-00_0 Basismaterialen
  1

  0
LINE
  5
32
330
2F
100
AcDbEntity
  8
A-DETL-GENF
370
5
100
AcDbLine
 10
-1.499999999999615
 20
-3.996135097562573
 30
0.0
 11
1.528408326896208
 21
-3.261852564723989
 31
0.0
  0
ARC
  5
33
330
2F
100
AcDbEntity
  8
A-DETL-GENF
370
5
100
AcDbCircle
 10
3.000000000000452
 20
-3.552400233235626
 30
0.0
 40
1.500000000000001
100
AcDbArc
 50
129.9999999997252
 51
180.0
  0
LINE
  5
34
330
2F
100
AcDbEntity
  8
A-DETL-GENF
370
5
100
AcDbLine
 10
4.900000000000318
 20
0.0
 30
0.0
 11
2.035818585470823
 21
-2.403333568545127
 31
0.0
  0
LINE
  5
35
330
2F
100
AcDbEntity
  8
A-DETL-GENF
370
5
100
AcDbLine
 10
-4.900000000000014
 20
0.0
 30
0.0
 11
4.900000000000316
 21
0.0
 31
0.0
  0
LINE
  5
36
330
2F
100
AcDbEntity
  8
A-DETL-GENF
370
5
100
AcDbLine
 10
-4.542473922221862
 20
-0.2999999999999318
 30
0.0
 11
4.542473922220441
 21
-0.2999999999999318
 31
0.0
  0
LINE
  5
37
330
2F
100
AcDbEntity
  8
A-DETL-GENF
370
5
100
AcDbLine
 10
-2.035818585469798
 20
-2.403333568557326
 30
0.0
 11
-4.900000000000014
 21
0.0
 31
0.0
  0
ARC
  5
38
330
2F
100
AcDbEntity
  8
A-DETL-GENF
370
5
100
AcDbCircle
 10
-2.99999999999993
 20
-3.552400233235931
 30
0.0
 40
1.500000000000001
100
AcDbArc
 50
359.9999999999996
 51
50.00000000000046
  0
LINE
  5
39
330
2F
100
AcDbEntity
  8
A-DETL-GENF
370
5
100
AcDbLine
 10
-1.499999999999615
 20
-3.552400233235931
 30
0.0
 11
-1.499999999999615
 21
-44.99999999999796
 31
0.0
  0
LINE
  5
3A
330
2F
100
AcDbEntity
  8
A-DETL-GENF
370
5
100
AcDbLine
 10
1.499999999991355
 20
-44.99999999999744
 30
0.0
 11
1.499999999991355
 21
-3.552400233235626
 31
0.0
  0
LINE
  5
3B
330
2F
100
AcDbEntity
  8
A-DETL-GENF
370
5
100
AcDbLine
 10
-1.499999999999615
 20
-44.99999999999796
 30
0.0
 11
-5e-16
 21
-50.00000000000031
 31
0.0
  0
LINE
  5
3C
330
2F
100
AcDbEntity
  8
A-DETL-GENF
370
5
100
AcDbLine
 10
-5e-16
 20
-50.00000000000031
 30
0.0
 11
1.499999999991355
 21
-44.99999999999744
 31
0.0
  0
LINE
  5
3D
330
2F
100
AcDbEntity
  8
A-DETL-GENF
370
5
100
AcDbLine
 10
1.75094808138748
 20
-5.375681275393605
 30
0.0
 11
2.500000000000001
 21
-4.735706873223379
 31
0.0
  0
LINE
  5
3E
330
2F
100
AcDbEntity
  8
A-DETL-GENF
370
5
100
AcDbLine
 10
-2.500000000000001
 20
-5.899697989282839
 30
0.0
 11
-1.750948081387281
 21
-5.259723587112567
 31
0.0
  0
LINE
  5
3F
330
2F
100
AcDbEntity
  8
A-DETL-GENF
370
5
100
AcDbLine
 10
2.500000000000001
 20
-4.73570687322338
 30
0.0
 11
-2.500000000000001
 21
-5.899697989282839
 31
0.0
  0
SPLINE
  5
40
330
2F
100
AcDbEntity
  8
A-DETL-GENF
370
5
100
AcDbSpline
 70
8
 71
2
 72
6
 73
3
 74
0
 42
1e-09
 40
0.0
 40
0.0
 40
0.0
 40
0.0080843581380993
 40
0.0080843581380993
 40
0.0080843581380993
 10
-2.500000000000001
 20
-5.899697989282839
 30
0.0
 10
-1.833765244587081
 20
-6.193409027922327
 30
0.0
 10
1.750948081387479
 20
-5.375681275393605
 30
0.0
  0
SPLINE
  5
41
330
2F
100
AcDbEntity
  8
A-DETL-GENF
370
5
100
AcDbSpline
 70
8
 71
2
 72
6
 73
3
 74
0
 42
1e-09
 40
0.0
 40
0.0
 40
0.0
 40
0.0081625666579304
 40
0.0081625666579304
 40
0.0081625666579304
 10
-1.750948081387281
 20
-5.259723587112567
 30
0.0
 10
2.228900647619182
 20
-4.458410603748016
 30
0.0
 10
2.500000000000001
 20
-4.73570687322338
 30
0.0
  0
LINE
  5
42
330
2F
100
AcDbEntity
  8
A-DETL-GENF
  6
MV_hartlijn_staal
370
13
100
AcDbLine
 10
-5e-16
 20
9.101516289598022
 30
0.0
 11
-5e-16
 21
-55.89848371040146
 31
0.0
  0
LINE
  5
43
330
2F
100
AcDbEntity
  8
A-DETL-GENF
370
5
100
AcDbLine
 10
1.750948081387366
 20
-44.36983719383436
 30
0.0
 11
2.499999999999887
 21
-43.72986279166413
 31
0.0
  0
LINE
  5
44
330
2F
100
AcDbEntity
  8
A-DETL-GENF
370
5
100
AcDbLine
 10
-2.500000000000115
 20
-44.89385390772358
 30
0.0
 11
-1.750948081387395
 21
-44.25387950555331
 31
0.0
  0
LINE
  5
45
330
2F
100
AcDbEntity
  8
A-DETL-GENF
370
5
100
AcDbLine
 10
2.499999999999886
 20
-43.72986279166412
 30
0.0
 11
-2.500000000000115
 21
-44.89385390772358
 31
0.0
  0
SPLINE
  5
46
330
2F
100
AcDbEntity
  8
A-DETL-GENF
370
5
100
AcDbSpline
 70
8
 71
2
 72
6
 73
3
 74
0
 42
1e-09
 40
0.0
 40
0.0
 40
0.0
 40
0.0080843581380993
 40
0.0080843581380993
 40
0.0080843581380993
 10
-2.500000000000115
 20
-44.89385390772358
 30
0.0
 10
-1.833765244587195
 20
-45.18756494636307
 30
0.0
 10
1.750948081387365
 20
-44.36983719383436
 30
0.0
  0
SPLINE
  5
47
330
2F
100
AcDbEntity
  8
A-DETL-GENF
370
5
100
AcDbSpline
 70
8
 71
2
 72
6
 73
3
 74
0
 42
1e-09
 40
0.0
 40
0.0
 40
0.0
 40
0.0081625666579304
 40
0.0081625666579304
 40
0.0081625666579304
 10
-1.750948081387395
 20
-44.25387950555331
 30
0.0
 10
2.228900647619068
 20
-43.45256652218877
 30
0.0
 10
2.499999999999886
 20
-43.72986279166412
 30
0.0
  0
LINE
  5
48
330
2F
100
AcDbEntity
  8
A-DETL-GENF
370
5
100
AcDbLine
 10
1.75094808138748
 20
-7.812816020296152
 30
0.0
 11
2.500000000000001
 21
-7.172841618125926
 31
0.0
  0
LINE
  5
49
330
2F
100
AcDbEntity
  8
A-DETL-GENF
370
5
100
AcDbLine
 10
-2.500000000000001
 20
-8.336832734185387
 30
0.0
 11
-1.750948081387281
 21
-7.696858332015114
 31
0.0
  0
LINE
  5
4A
330
2F
100
AcDbEntity
  8
A-DETL-GENF
370
5
100
AcDbLine
 10
2.500000000000001
 20
-7.172841618125926
 30
0.0
 11
-2.500000000000001
 21
-8.336832734185386
 31
0.0
  0
SPLINE
  5
4B
330
2F
100
AcDbEntity
  8
A-DETL-GENF
370
5
100
AcDbSpline
 70
8
 71
2
 72
6
 73
3
 74
0
 42
1e-09
 40
0.0
 40
0.0
 40
0.0
 40
0.0080843581380993
 40
0.0080843581380993
 40
0.0080843581380993
 10
-2.500000000000001
 20
-8.336832734185387
 30
0.0
 10
-1.833765244587081
 20
-8.630543772824874
 30
0.0
 10
1.750948081387479
 20
-7.812816020296152
 30
0.0
  0
SPLINE
  5
4C
330
2F
100
AcDbEntity
  8
A-DETL-GENF
370
5
100
AcDbSpline
 70
8
 71
2
 72
6
 73
3
 74
0
 42
1e-09
 40
0.0
 40
0.0
 40
0.0
 40
0.0081625666579304
 40
0.0081625666579304
 40
0.0081625666579304
 10
-1.750948081387281
 20
-7.696858332015114
 30
0.0
 10
2.228900647619182
 20
-6.895545348650563
 30
0.0
 10
2.500000000000001
 20
-7.172841618125927
 30
0.0
  0
LINE
  5
4D
330
2F
100
AcDbEntity
  8
A-DETL-GENF
370
5
100
AcDbLine
 10
1.75094808138748
 20
-10.2499507651987
 30
0.0
 11
2.500000000000001
 21
-9.609976363028474
 31
0.0
  0
LINE
  5
4E
330
2F
100
AcDbEntity
  8
A-DETL-GENF
370
5
100
AcDbLine
 10
-2.500000000000001
 20
-10.77396747908793
 30
0.0
 11
-1.750948081387281
 21
-10.13399307691766
 31
0.0
  0
LINE
  5
4F
330
2F
100
AcDbEntity
  8
A-DETL-GENF
370
5
100
AcDbLine
 10
2.500000000000001
 20
-9.609976363028474
 30
0.0
 11
-2.500000000000001
 21
-10.77396747908793
 31
0.0
  0
SPLINE
  5
50
330
2F
100
AcDbEntity
  8
A-DETL-GENF
370
5
100
AcDbSpline
 70
8
 71
2
 72
6
 73
3
 74
0
 42
1e-09
 40
0.0
 40
0.0
 40
0.0
 40
0.0080843581380993
 40
0.0080843581380993
 40
0.0080843581380993
 10
-2.500000000000001
 20
-10.77396747908793
 30
0.0
 10
-1.833765244587081
 20
-11.06767851772742
 30
0.0
 10
1.750948081387479
 20
-10.2499507651987
 30
0.0
  0
SPLINE
  5
51
330
2F
100
AcDbEntity
  8
A-DETL-GENF
370
5
100
AcDbSpline
 70
8
 71
2
 72
6
 73
3
 74
0
 42
1e-09
 40
0.0
 40
0.0
 40
0.0
 40
0.0081625666579304
 40
0.0081625666579304
 40
0.0081625666579304
 10
-1.750948081387281
 20
-10.13399307691766
 30
0.0
 10
2.228900647619182
 20
-9.332680093553112
 30
0.0
 10
2.500000000000001
 20
-9.609976363028474
 30
0.0
  0
LINE
  5
52
330
2F
100
AcDbEntity
  8
A-DETL-GENF
370
5
100
AcDbLine
 10
1.75094808138748
 20
-12.68708551010125
 30
0.0
 11
2.500000000000001
 21
-12.04711110793102
 31
0.0
  0
LINE
  5
53
330
2F
100
AcDbEntity
  8
A-DETL-GENF
370
5
100
AcDbLine
 10
-2.500000000000001
 20
-13.21110222399048
 30
0.0
 11
-1.750948081387281
 21
-12.5711278218202
 31
0.0
  0
LINE
  5
54
330
2F
100
AcDbEntity
  8
A-DETL-GENF
370
5
100
AcDbLine
 10
2.500000000000001
 20
-12.04711110793102
 30
0.0
 11
-2.500000000000001
 21
-13.21110222399048
 31
0.0
  0
SPLINE
  5
55
330
2F
100
AcDbEntity
  8
A-DETL-GENF
370
5
100
AcDbSpline
 70
8
 71
2
 72
6
 73
3
 74
0
 42
1e-09
 40
0.0
 40
0.0
 40
0.0
 40
0.0080843581380993
 40
0.0080843581380993
 40
0.0080843581380993
 10
-2.500000000000001
 20
-13.21110222399048
 30
0.0
 10
-1.833765244587081
 20
-13.50481326262996
 30
0.0
 10
1.750948081387479
 20
-12.68708551010125
 30
0.0
  0
SPLINE
  5
56
330
2F
100
AcDbEntity
  8
A-DETL-GENF
370
5
100
AcDbSpline
 70
8
 71
2
 72
6
 73
3
 74
0
 42
1e-09
 40
0.0
 40
0.0
 40
0.0
 40
0.0081625666579304
 40
0.0081625666579304
 40
0.0081625666579304
 10
-1.750948081387281
 20
-12.5711278218202
 30
0.0
 10
2.228900647619182
 20
-11.76981483845565
 30
0.0
 10
2.500000000000001
 20
-12.04711110793102
 30
0.0
  0
LINE
  5
57
330
2F
100
AcDbEntity
  8
A-DETL-GENF
370
5
100
AcDbLine
 10
1.75094808138748
 20
-15.12422025500379
 30
0.0
 11
2.500000000000001
 21
-14.48424585283357
 31
0.0
  0
LINE
  5
58
330
2F
100
AcDbEntity
  8
A-DETL-GENF
370
5
100
AcDbLine
 10
-2.500000000000001
 20
-15.64823696889302
 30
0.0
 11
-1.750948081387281
 21
-15.00826256672275
 31
0.0
  0
LINE
  5
59
330
2F
100
AcDbEntity
  8
A-DETL-GENF
370
5
100
AcDbLine
 10
2.500000000000001
 20
-14.48424585283357
 30
0.0
 11
-2.500000000000001
 21
-15.64823696889302
 31
0.0
  0
SPLINE
  5
5A
330
2F
100
AcDbEntity
  8
A-DETL-GENF
370
5
100
AcDbSpline
 70
8
 71
2
 72
6
 73
3
 74
0
 42
1e-09
 40
0.0
 40
0.0
 40
0.0
 40
0.0080843581380993
 40
0.0080843581380993
 40
0.0080843581380993
 10
-2.500000000000001
 20
-15.64823696889302
 30
0.0
 10
-1.833765244587081
 20
-15.94194800753251
 30
0.0
 10
1.750948081387479
 20
-15.12422025500379
 30
0.0
  0
SPLINE
  5
5B
330
2F
100
AcDbEntity
  8
A-DETL-GENF
370
5
100
AcDbSpline
 70
8
 71
2
 72
6
 73
3
 74
0
 42
1e-09
 40
0.0
 40
0.0
 40
0.0
 40
0.0081625666579304
 40
0.0081625666579304
 40
0.0081625666579304
 10
-1.750948081387281
 20
-15.00826256672275
 30
0.0
 10
2.228900647619182
 20
-14.2069495833582
 30
0.0
 10
2.500000000000001
 20
-14.48424585283357
 30
0.0
  0
LINE
  5
5C
330
2F
100
AcDbEntity
  8
A-DETL-GENF
370
5
100
AcDbLine
 10
1.75094808138748
 20
-17.56135499990634
 30
0.0
 11
2.500000000000001
 21
-16.92138059773611
 31
0.0
  0
LINE
  5
5D
330
2F
100
AcDbEntity
  8
A-DETL-GENF
370
5
100
AcDbLine
 10
-2.500000000000001
 20
-18.08537171379557
 30
0.0
 11
-1.750948081387281
 21
-17.4453973116253
 31
0.0
  0
LINE
  5
5E
330
2F
100
AcDbEntity
  8
A-DETL-GENF
370
5
100
AcDbLine
 10
2.500000000000001
 20
-16.92138059773611
 30
0.0
 11
-2.500000000000001
 21
-18.08537171379557
 31
0.0
  0
SPLINE
  5
5F
330
2F
100
AcDbEntity
  8
A-DETL-GENF
370
5
100
AcDbSpline
 70
8
 71
2
 72
6
 73
3
 74
0
 42
1e-09
 40
0.0
 40
0.0
 40
0.0
 40
0.0080843581380993
 40
0.0080843581380993
 40
0.0080843581380993
 10
-2.500000000000001
 20
-18.08537171379557
 30
0.0
 10
-1.833765244587081
 20
-18.37908275243506
 30
0.0
 10
1.750948081387479
 20
-17.56135499990634
 30
0.0
  0
SPLINE
  5
60
330
2F
100
AcDbEntity
  8
A-DETL-GENF
370
5
100
AcDbSpline
 70
8
 71
2
 72
6
 73
3
 74
0
 42
1e-09
 40
0.0
 40
0.0
 40
0.0
 40
0.0081625666579304
 40
0.0081625666579304
 40
0.0081625666579304
 10
-1.750948081387281
 20
-17.4453973116253
 30
0.0
 10
2.228900647619182
 20
-16.64408432826075
 30
0.0
 10
2.500000000000001
 20
-16.92138059773611
 30
0.0
  0
LINE
  5
61
330
2F
100
AcDbEntity
  8
A-DETL-GENF
370
5
100
AcDbLine
 10
1.75094808138748
 20
-19.99848974480888
 30
0.0
 11
2.500000000000001
 21
-19.35851534263866
 31
0.0
  0
LINE
  5
62
330
2F
100
AcDbEntity
  8
A-DETL-GENF
370
5
100
AcDbLine
 10
-2.500000000000001
 20
-20.52250645869812
 30
0.0
 11
-1.750948081387281
 21
-19.88253205652784
 31
0.0
  0
LINE
  5
63
330
2F
100
AcDbEntity
  8
A-DETL-GENF
370
5
100
AcDbLine
 10
2.500000000000001
 20
-19.35851534263866
 30
0.0
 11
-2.500000000000001
 21
-20.52250645869812
 31
0.0
  0
SPLINE
  5
64
330
2F
100
AcDbEntity
  8
A-DETL-GENF
370
5
100
AcDbSpline
 70
8
 71
2
 72
6
 73
3
 74
0
 42
1e-09
 40
0.0
 40
0.0
 40
0.0
 40
0.0080843581380993
 40
0.0080843581380993
 40
0.0080843581380993
 10
-2.500000000000001
 20
-20.52250645869812
 30
0.0
 10
-1.833765244587081
 20
-20.81621749733761
 30
0.0
 10
1.750948081387479
 20
-19.99848974480888
 30
0.0
  0
SPLINE
  5
65
330
2F
100
AcDbEntity
  8
A-DETL-GENF
370
5
100
AcDbSpline
 70
8
 71
2
 72
6
 73
3
 74
0
 42
1e-09
 40
0.0
 40
0.0
 40
0.0
 40
0.0081625666579304
 40
0.0081625666579304
 40
0.0081625666579304
 10
-1.750948081387281
 20
-19.88253205652785
 30
0.0
 10
2.228900647619182
 20
-19.0812190731633
 30
0.0
 10
2.500000000000001
 20
-19.35851534263866
 30
0.0
  0
LINE
  5
66
330
2F
100
AcDbEntity
  8
A-DETL-GENF
370
5
100
AcDbLine
 10
1.75094808138748
 20
-22.43562448971143
 30
0.0
 11
2.500000000000001
 21
-21.79565008754121
 31
0.0
  0
LINE
  5
67
330
2F
100
AcDbEntity
  8
A-DETL-GENF
370
5
100
AcDbLine
 10
-2.500000000000001
 20
-22.95964120360066
 30
0.0
 11
-1.750948081387281
 21
-22.31966680143039
 31
0.0
  0
LINE
  5
68
330
2F
100
AcDbEntity
  8
A-DETL-GENF
370
5
100
AcDbLine
 10
2.500000000000001
 20
-21.79565008754121
 30
0.0
 11
-2.500000000000001
 21
-22.95964120360066
 31
0.0
  0
SPLINE
  5
69
330
2F
100
AcDbEntity
  8
A-DETL-GENF
370
5
100
AcDbSpline
 70
8
 71
2
 72
6
 73
3
 74
0
 42
1e-09
 40
0.0
 40
0.0
 40
0.0
 40
0.0080843581380993
 40
0.0080843581380993
 40
0.0080843581380993
 10
-2.500000000000001
 20
-22.95964120360066
 30
0.0
 10
-1.833765244587081
 20
-23.25335224224015
 30
0.0
 10
1.750948081387479
 20
-22.43562448971143
 30
0.0
  0
SPLINE
  5
6A
330
2F
100
AcDbEntity
  8
A-DETL-GENF
370
5
100
AcDbSpline
 70
8
 71
2
 72
6
 73
3
 74
0
 42
1e-09
 40
0.0
 40
0.0
 40
0.0
 40
0.0081625666579304
 40
0.0081625666579304
 40
0.0081625666579304
 10
-1.750948081387281
 20
-22.3196668014304
 30
0.0
 10
2.228900647619182
 20
-21.51835381806584
 30
0.0
 10
2.500000000000001
 20
-21.79565008754121
 30
0.0
  0
LINE
  5
6B
330
2F
100
AcDbEntity
  8
A-DETL-GENF
370
5
100
AcDbLine
 10
1.75094808138748
 20
-24.87275923461398
 30
0.0
 11
2.500000000000001
 21
-24.23278483244375
 31
0.0
  0
LINE
  5
6C
330
2F
100
AcDbEntity
  8
A-DETL-GENF
370
5
100
AcDbLine
 10
-2.500000000000001
 20
-25.39677594850321
 30
0.0
 11
-1.750948081387281
 21
-24.75680154633294
 31
0.0
  0
LINE
  5
6D
330
2F
100
AcDbEntity
  8
A-DETL-GENF
370
5
100
AcDbLine
 10
2.500000000000001
 20
-24.23278483244375
 30
0.0
 11
-2.500000000000001
 21
-25.39677594850321
 31
0.0
  0
SPLINE
  5
6E
330
2F
100
AcDbEntity
  8
A-DETL-GENF
370
5
100
AcDbSpline
 70
8
 71
2
 72
6
 73
3
 74
0
 42
1e-09
 40
0.0
 40
0.0
 40
0.0
 40
0.0080843581380993
 40
0.0080843581380993
 40
0.0080843581380993
 10
-2.500000000000001
 20
-25.39677594850321
 30
0.0
 10
-1.833765244587081
 20
-25.6904869871427
 30
0.0
 10
1.750948081387479
 20
-24.87275923461398
 30
0.0
  0
SPLINE
  5
6F
330
2F
100
AcDbEntity
  8
A-DETL-GENF
370
5
100
AcDbSpline
 70
8
 71
2
 72
6
 73
3
 74
0
 42
1e-09
 40
0.0
 40
0.0
 40
0.0
 40
0.0081625666579304
 40
0.0081625666579304
 40
0.0081625666579304
 10
-1.750948081387281
 20
-24.75680154633294
 30
0.0
 10
2.228900647619182
 20
-23.95548856296839
 30
0.0
 10
2.500000000000001
 20
-24.23278483244375
 30
0.0
  0
LINE
  5
70
330
2F
100
AcDbEntity
  8
A-DETL-GENF
370
5
100
AcDbLine
 10
1.75094808138748
 20
-27.30989397951653
 30
0.0
 11
2.500000000000001
 21
-26.6699195773463
 31
0.0
  0
LINE
  5
71
330
2F
100
AcDbEntity
  8
A-DETL-GENF
370
5
100
AcDbLine
 10
-2.500000000000001
 20
-27.83391069340576
 30
0.0
 11
-1.750948081387281
 21
-27.19393629123548
 31
0.0
  0
LINE
  5
72
330
2F
100
AcDbEntity
  8
A-DETL-GENF
370
5
100
AcDbLine
 10
2.500000000000001
 20
-26.6699195773463
 30
0.0
 11
-2.500000000000001
 21
-27.83391069340576
 31
0.0
  0
SPLINE
  5
73
330
2F
100
AcDbEntity
  8
A-DETL-GENF
370
5
100
AcDbSpline
 70
8
 71
2
 72
6
 73
3
 74
0
 42
1e-09
 40
0.0
 40
0.0
 40
0.0
 40
0.0080843581380993
 40
0.0080843581380993
 40
0.0080843581380993
 10
-2.500000000000001
 20
-27.83391069340576
 30
0.0
 10
-1.833765244587081
 20
-28.12762173204525
 30
0.0
 10
1.750948081387479
 20
-27.30989397951653
 30
0.0
  0
SPLINE
  5
74
330
2F
100
AcDbEntity
  8
A-DETL-GENF
370
5
100
AcDbSpline
 70
8
 71
2
 72
6
 73
3
 74
0
 42
1e-09
 40
0.0
 40
0.0
 40
0.0
 40
0.0081625666579304
 40
0.0081625666579304
 40
0.0081625666579304
 10
-1.750948081387281
 20
-27.19393629123549
 30
0.0
 10
2.228900647619182
 20
-26.39262330787094
 30
0.0
 10
2.500000000000001
 20
-26.6699195773463
 30
0.0
  0
LINE
  5
75
330
2F
100
AcDbEntity
  8
A-DETL-GENF
370
5
100
AcDbLine
 10
1.75094808138748
 20
-29.74702872441908
 30
0.0
 11
2.500000000000001
 21
-29.10705432224885
 31
0.0
  0
LINE
  5
76
330
2F
100
AcDbEntity
  8
A-DETL-GENF
370
5
100
AcDbLine
 10
-2.500000000000001
 20
-30.27104543830831
 30
0.0
 11
-1.750948081387281
 21
-29.63107103613803
 31
0.0
  0
LINE
  5
77
330
2F
100
AcDbEntity
  8
A-DETL-GENF
370
5
100
AcDbLine
 10
2.500000000000001
 20
-29.10705432224885
 30
0.0
 11
-2.500000000000001
 21
-30.27104543830831
 31
0.0
  0
SPLINE
  5
78
330
2F
100
AcDbEntity
  8
A-DETL-GENF
370
5
100
AcDbSpline
 70
8
 71
2
 72
6
 73
3
 74
0
 42
1e-09
 40
0.0
 40
0.0
 40
0.0
 40
0.0080843581380993
 40
0.0080843581380993
 40
0.0080843581380993
 10
-2.500000000000001
 20
-30.27104543830831
 30
0.0
 10
-1.833765244587081
 20
-30.56475647694779
 30
0.0
 10
1.750948081387479
 20
-29.74702872441908
 30
0.0
  0
SPLINE
  5
79
330
2F
100
AcDbEntity
  8
A-DETL-GENF
370
5
100
AcDbSpline
 70
8
 71
2
 72
6
 73
3
 74
0
 42
1e-09
 40
0.0
 40
0.0
 40
0.0
 40
0.0081625666579304
 40
0.0081625666579304
 40
0.0081625666579304
 10
-1.750948081387281
 20
-29.63107103613804
 30
0.0
 10
2.228900647619182
 20
-28.82975805277349
 30
0.0
 10
2.500000000000001
 20
-29.10705432224885
 30
0.0
  0
LINE
  5
7A
330
2F
100
AcDbEntity
  8
A-DETL-GENF
370
5
100
AcDbLine
 10
1.007156484571654
 20
-46.47854490213702
 30
0.0
 11
1.756208403184175
 21
-45.83857049996679
 31
0.0
  0
LINE
  5
7B
330
2F
100
AcDbEntity
  8
A-DETL-GENF
370
5
100
AcDbLine
 10
-1.756208403184207
 20
-46.65625489166894
 30
0.0
 11
-1.007156484571488
 21
-46.01628048949867
 31
0.0
  0
LINE
  5
7C
330
2F
100
AcDbEntity
  8
A-DETL-GENF
370
5
100
AcDbLine
 10
1.756208403184175
 20
-45.83857049996679
 30
0.0
 11
-1.756208403184207
 21
-46.65625489166894
 31
0.0
  0
SPLINE
  5
7D
330
2F
100
AcDbEntity
  8
A-DETL-GENF
370
5
100
AcDbSpline
 70
8
 71
2
 72
6
 73
3
 74
0
 42
1e-09
 40
0.0
 40
0.0
 40
0.0
 40
0.0080843581380993
 40
0.0080843581380993
 40
0.0080843581380993
 10
-1.756208403184207
 20
-46.65625489166894
 30
0.0
 10
-1.337306454534207
 20
-46.87097071623575
 30
0.0
 10
1.007156484571654
 20
-46.47854490213702
 30
0.0
  0
SPLINE
  5
7E
330
2F
100
AcDbEntity
  8
A-DETL-GENF
370
5
100
AcDbSpline
 70
8
 71
2
 72
6
 73
3
 74
0
 42
1e-09
 40
0.0
 40
0.0
 40
0.0
 40
0.0081625666579304
 40
0.0081625666579304
 40
0.0081625666579304
 10
-1.007156484571488
 20
-46.01628048949867
 30
0.0
 10
1.591708874145216
 20
-45.64936700965247
 30
0.0
 10
1.756208403184174
 20
-45.83857049996679
 30
0.0
  0
LINE
  5
7F
330
2F
100
AcDbEntity
  8
A-DETL-GENF
370
5
100
AcDbLine
 10
0.2708635186258141
 20
-48.87445653888594
 30
0.0
 11
1.019915437238335
 21
-48.23448213671571
 31
0.0
  0
LINE
  5
80
330
2F
100
AcDbEntity
  8
A-DETL-GENF
370
5
100
AcDbLine
 10
-1.01991543723888
 20
-48.70935113994677
 30
0.0
 11
-0.270863518626161
 21
-48.0693767377765
 31
0.0
  0
LINE
  5
81
330
2F
100
AcDbEntity
  8
A-DETL-GENF
370
5
100
AcDbLine
 10
1.019915437238335
 20
-48.23448213671571
 30
0.0
 11
-1.01991543723888
 21
-48.70935113994676
 31
0.0
  0
SPLINE
  5
82
330
2F
100
AcDbEntity
  8
A-DETL-GENF
370
5
100
AcDbSpline
 70
8
 71
2
 72
6
 73
3
 74
0
 42
1e-09
 40
0.0
 40
0.0
 40
0.0
 40
0.0080843581380993
 40
0.0080843581380993
 40
0.0080843581380993
 10
-1.01991543723888
 20
-48.70935113994677
 30
0.0
 10
-0.8458527777751672
 20
-48.84586815087534
 30
0.0
 10
0.2708635186258138
 20
-48.87445653888594
 30
0.0
  0
SPLINE
  5
83
330
2F
100
AcDbEntity
  8
A-DETL-GENF
370
5
100
AcDbSpline
 70
8
 71
2
 72
6
 73
3
 74
0
 42
1e-09
 40
0.0
 40
0.0
 40
0.0
 40
0.0081625666579304
 40
0.0081625666579304
 40
0.0081625666579304
 10
-0.270863518626161
 20
-48.0693767377765
 30
0.0
 10
0.9609410316797528
 20
-48.1324833068527
 30
0.0
 10
1.019915437238335
 20
-48.23448213671571
 30
0.0
  0
LINE
  5
84
330
2F
100
AcDbEntity
  8
A-DETL-GENF
370
5
100
AcDbLine
 10
1.75094808138748
 20
-32.18416346932162
 30
0.0
 11
2.500000000000001
 21
-31.5441890671514
 31
0.0
  0
LINE
  5
85
330
2F
100
AcDbEntity
  8
A-DETL-GENF
370
5
100
AcDbLine
 10
-2.500000000000001
 20
-32.70818018321085
 30
0.0
 11
-1.750948081387281
 21
-32.06820578104057
 31
0.0
  0
LINE
  5
86
330
2F
100
AcDbEntity
  8
A-DETL-GENF
370
5
100
AcDbLine
 10
2.500000000000001
 20
-31.5441890671514
 30
0.0
 11
-2.500000000000001
 21
-32.70818018321085
 31
0.0
  0
SPLINE
  5
87
330
2F
100
AcDbEntity
  8
A-DETL-GENF
370
5
100
AcDbSpline
 70
8
 71
2
 72
6
 73
3
 74
0
 42
1e-09
 40
0.0
 40
0.0
 40
0.0
 40
0.0080843581380993
 40
0.0080843581380993
 40
0.0080843581380993
 10
-2.500000000000001
 20
-32.70818018321085
 30
0.0
 10
-1.833765244587081
 20
-33.00189122185034
 30
0.0
 10
1.750948081387479
 20
-32.18416346932162
 30
0.0
  0
SPLINE
  5
88
330
2F
100
AcDbEntity
  8
A-DETL-GENF
370
5
100
AcDbSpline
 70
8
 71
2
 72
6
 73
3
 74
0
 42
1e-09
 40
0.0
 40
0.0
 40
0.0
 40
0.0081625666579304
 40
0.0081625666579304
 40
0.0081625666579304
 10
-1.750948081387281
 20
-32.06820578104058
 30
0.0
 10
2.228900647619182
 20
-31.26689279767604
 30
0.0
 10
2.500000000000001
 20
-31.5441890671514
 30
0.0
  0
LINE
  5
89
330
2F
100
AcDbEntity
  8
A-DETL-GENF
370
5
100
AcDbLine
 10
1.75094808138748
 20
-34.62129821422416
 30
0.0
 11
2.500000000000001
 21
-33.98132381205394
 31
0.0
  0
LINE
  5
8A
330
2F
100
AcDbEntity
  8
A-DETL-GENF
370
5
100
AcDbLine
 10
-2.500000000000001
 20
-35.1453149281134
 30
0.0
 11
-1.750948081387281
 21
-34.50534052594313
 31
0.0
  0
LINE
  5
8B
330
2F
100
AcDbEntity
  8
A-DETL-GENF
370
5
100
AcDbLine
 10
2.500000000000001
 20
-33.98132381205394
 30
0.0
 11
-2.500000000000001
 21
-35.1453149281134
 31
0.0
  0
SPLINE
  5
8C
330
2F
100
AcDbEntity
  8
A-DETL-GENF
370
5
100
AcDbSpline
 70
8
 71
2
 72
6
 73
3
 74
0
 42
1e-09
 40
0.0
 40
0.0
 40
0.0
 40
0.0080843581380993
 40
0.0080843581380993
 40
0.0080843581380993
 10
-2.500000000000001
 20
-35.1453149281134
 30
0.0
 10
-1.833765244587081
 20
-35.43902596675289
 30
0.0
 10
1.750948081387479
 20
-34.62129821422416
 30
0.0
  0
SPLINE
  5
8D
330
2F
100
AcDbEntity
  8
A-DETL-GENF
370
5
100
AcDbSpline
 70
8
 71
2
 72
6
 73
3
 74
0
 42
1e-09
 40
0.0
 40
0.0
 40
0.0
 40
0.0081625666579304
 40
0.0081625666579304
 40
0.0081625666579304
 10
-1.750948081387281
 20
-34.50534052594313
 30
0.0
 10
2.228900647619182
 20
-33.70402754257858
 30
0.0
 10
2.500000000000001
 20
-33.98132381205394
 30
0.0
  0
LINE
  5
8E
330
2F
100
AcDbEntity
  8
A-DETL-GENF
370
5
100
AcDbLine
 10
1.75094808138748
 20
-37.05843295912671
 30
0.0
 11
2.500000000000001
 21
-36.41845855695649
 31
0.0
  0
LINE
  5
8F
330
2F
100
AcDbEntity
  8
A-DETL-GENF
370
5
100
AcDbLine
 10
-2.500000000000001
 20
-37.58244967301595
 30
0.0
 11
-1.750948081387281
 21
-36.94247527084567
 31
0.0
  0
LINE
  5
90
330
2F
100
AcDbEntity
  8
A-DETL-GENF
370
5
100
AcDbLine
 10
2.500000000000001
 20
-36.41845855695649
 30
0.0
 11
-2.500000000000001
 21
-37.58244967301595
 31
0.0
  0
SPLINE
  5
91
330
2F
100
AcDbEntity
  8
A-DETL-GENF
370
5
100
AcDbSpline
 70
8
 71
2
 72
6
 73
3
 74
0
 42
1e-09
 40
0.0
 40
0.0
 40
0.0
 40
0.0080843581380993
 40
0.0080843581380993
 40
0.0080843581380993
 10
-2.500000000000001
 20
-37.58244967301595
 30
0.0
 10
-1.833765244587081
 20
-37.87616071165543
 30
0.0
 10
1.750948081387479
 20
-37.05843295912671
 30
0.0
  0
SPLINE
  5
92
330
2F
100
AcDbEntity
  8
A-DETL-GENF
370
5
100
AcDbSpline
 70
8
 71
2
 72
6
 73
3
 74
0
 42
1e-09
 40
0.0
 40
0.0
 40
0.0
 40
0.0081625666579304
 40
0.0081625666579304
 40
0.0081625666579304
 10
-1.750948081387281
 20
-36.94247527084568
 30
0.0
 10
2.228900647619182
 20
-36.14116228748113
 30
0.0
 10
2.500000000000001
 20
-36.41845855695649
 30
0.0
  0
LINE
  5
93
330
2F
100
AcDbEntity
  8
A-DETL-GENF
370
5
100
AcDbLine
 10
1.75094808138748
 20
-39.49556770402926
 30
0.0
 11
2.500000000000001
 21
-38.85559330185904
 31
0.0
  0
LINE
  5
94
330
2F
100
AcDbEntity
  8
A-DETL-GENF
370
5
100
AcDbLine
 10
-2.500000000000001
 20
-40.01958441791848
 30
0.0
 11
-1.750948081387281
 21
-39.37961001574822
 31
0.0
  0
LINE
  5
95
330
2F
100
AcDbEntity
  8
A-DETL-GENF
370
5
100
AcDbLine
 10
2.500000000000001
 20
-38.85559330185903
 30
0.0
 11
-2.500000000000001
 21
-40.01958441791848
 31
0.0
  0
SPLINE
  5
96
330
2F
100
AcDbEntity
  8
A-DETL-GENF
370
5
100
AcDbSpline
 70
8
 71
2
 72
6
 73
3
 74
0
 42
1e-09
 40
0.0
 40
0.0
 40
0.0
 40
0.0080843581380993
 40
0.0080843581380993
 40
0.0080843581380993
 10
-2.500000000000001
 20
-40.01958441791848
 30
0.0
 10
-1.833765244587081
 20
-40.31329545655798
 30
0.0
 10
1.750948081387479
 20
-39.49556770402926
 30
0.0
  0
SPLINE
  5
97
330
2F
100
AcDbEntity
  8
A-DETL-GENF
370
5
100
AcDbSpline
 70
8
 71
2
 72
6
 73
3
 74
0
 42
1e-09
 40
0.0
 40
0.0
 40
0.0
 40
0.0081625666579304
 40
0.0081625666579304
 40
0.0081625666579304
 10
-1.750948081387281
 20
-39.37961001574822
 30
0.0
 10
2.228900647619182
 20
-38.57829703238367
 30
0.0
 10
2.500000000000001
 20
-38.85559330185903
 30
0.0
  0
LINE
  5
98
330
2F
100
AcDbEntity
  8
A-DETL-GENF
370
5
100
AcDbLine
 10
1.75094808138748
 20
-41.93270244893181
 30
0.0
 11
2.500000000000001
 21
-41.29272804676158
 31
0.0
  0
LINE
  5
99
330
2F
100
AcDbEntity
  8
A-DETL-GENF
370
5
100
AcDbLine
 10
-2.500000000000001
 20
-42.45671916282105
 30
0.0
 11
-1.750948081387281
 21
-41.81674476065077
 31
0.0
  0
LINE
  5
9A
330
2F
100
AcDbEntity
  8
A-DETL-GENF
370
5
100
AcDbLine
 10
2.500000000000001
 20
-41.29272804676157
 30
0.0
 11
-2.500000000000001
 21
-42.45671916282105
 31
0.0
  0
SPLINE
  5
9B
330
2F
100
AcDbEntity
  8
A-DETL-GENF
370
5
100
AcDbSpline
 70
8
 71
2
 72
6
 73
3
 74
0
 42
1e-09
 40
0.0
 40
0.0
 40
0.0
 40
0.0080843581380993
 40
0.0080843581380993
 40
0.0080843581380993
 10
-2.500000000000001
 20
-42.45671916282105
 30
0.0
 10
-1.833765244587081
 20
-42.75043020146052
 30
0.0
 10
1.750948081387479
 20
-41.93270244893181
 30
0.0
  0
SPLINE
  5
9C
330
2F
100
AcDbEntity
  8
A-DETL-GENF
370
5
100
AcDbSpline
 70
8
 71
2
 72
6
 73
3
 74
0
 42
1e-09
 40
0.0
 40
0.0
 40
0.0
 40
0.0081625666579304
 40
0.0081625666579304
 40
0.0081625666579304
 10
-1.750948081387281
 20
-41.81674476065077
 30
0.0
 10
2.228900647619182
 20
-41.01543177728621
 30
0.0
 10
2.500000000000001
 20
-41.29272804676157
 30
0.0
  0
LINE
  5
9D
330
2F
100
AcDbEntity
  8
A-DETL-GENF
100
AcDbLine
 10
-1.499999999999615
 20
-3.552400233235931
 30
0.0
 11
-1.499999999999615
 21
0.0
 31
0.0
  0
LINE
  5
9E
330
2F
100
AcDbEntity
  8
A-DETL-GENF
100
AcDbLine
 10
1.499999999991355
 20
-3.552400233235626
 30
0.0
 11
1.499999999991355
 21
0.0
 31
0.0
  0
ENDBLK
  5
31
330
2F
100
AcDbEntity
  8
0
100
AcDbBlockEnd
  0
ENDSEC
  0
SECTION
  2
ENTITIES
  0
INSERT
  5
A1
330
17
100
AcDbEntity
  8
0
100
AcDbBlockReference
  2
28 schroeven 2D - Verzonken schroef 5_0x50mm-3138919-00_0 Basismaterialen
 10
0.0
 20
0.0
 30
0.0
  0
ENDSEC
  0
SECTION
  2
OBJECTS
  0
DICTIONARY
  5
A
330
0
100
AcDbDictionary
281
1
  3
ACAD_COLOR
350
B
  3
ACAD_GROUP
350
C
  3
ACAD_LAYOUT
350
D
  3
ACAD_MATERIAL
350
E
  3
ACAD_MLEADERSTYLE
350
F
  3
ACAD_MLINESTYLE
350
10
  3
ACAD_PLOTSETTINGS
350
11
  3
ACAD_PLOTSTYLENAME
350
12
  3
ACAD_SCALELIST
350
14
  3
ACAD_TABLESTYLE
350
15
  3
ACAD_VISUALSTYLE
350
16
  3
EZDXF_META
350
2D
  0
DICTIONARY
  5
B
330
A
100
AcDbDictionary
281
1
  0
DICTIONARY
  5
C
330
A
100
AcDbDictionary
281
1
  0
DICTIONARY
  5
D
330
A
100
AcDbDictionary
281
1
  3
Model
350
1A
  3
Layout1
350
1E
  0
DICTIONARY
  5
E
330
A
100
AcDbDictionary
281
1
  3
ByBlock
350
1F
  3
ByLayer
350
20
  3
Global
350
21
  0
DICTIONARY
  5
F
330
A
100
AcDbDictionary
281
1
  3
Standard
350
2C
  0
DICTIONARY
  5
10
330
A
100
AcDbDictionary
281
1
  3
Standard
350
22
  0
DICTIONARY
  5
11
330
A
100
AcDbDictionary
281
1
  0
ACDBDICTIONARYWDFLT
  5
12
330
A
100
AcDbDictionary
281
1
  3
Normal
350
13
100
AcDbDictionaryWithDefault
340
13
  0
ACDBPLACEHOLDER
  5
13
330
12
  0
DICTIONARY
  5
14
330
A
100
AcDbDictionary
281
1
  0
DICTIONARY
  5
15
330
A
100
AcDbDictionary
281
1
  0
DICTIONARY
  5
16
330
A
100
AcDbDictionary
281
1
  0
LAYOUT
  5
1A
330
D
100
AcDbPlotSettings
  1

  4
A3
  6

 40
7.5
 41
20.0
 42
7.5
 43
20.0
 44
420.0
 45
297.0
 46
0.0
 47
0.0
 48
0.0
 49
0.0
140
0.0
141
0.0
142
1.0
143
1.0
 70
1024
 72
1
 73
0
 74
5
  7

 75
16
 76
0
 77
2
 78
300
147
1.0
148
0.0
149
0.0
100
AcDbLayout
  1
Model
 70
1
 71
0
 10
0.0
 20
0.0
 11
420.0
 21
297.0
 12
0.0
 22
0.0
 32
0.0
 14
1e+20
 24
1e+20
 34
1e+20
 15
-1e+20
 25
-1e+20
 35
-1e+20
146
0.0
 13
0.0
 23
0.0
 33
0.0
 16
1.0
 26
0.0
 36
0.0
 17
0.0
 27
1.0
 37
0.0
 76
1
330
17
  0
LAYOUT
  5
1E
330
D
100
AcDbPlotSettings
  1

  4
A3
  6

 40
7.5
 41
20.0
 42
7.5
 43
20.0
 44
420.0
 45
297.0
 46
0.0
 47
0.0
 48
0.0
 49
0.0
140
0.0
141
0.0
142
1.0
143
1.0
 70
0
 72
1
 73
0
 74
5
  7

 75
16
 76
0
 77
2
 78
300
147
1.0
148
0.0
149
0.0
100
AcDbLayout
  1
Layout1
 70
1
 71
1
 10
0.0
 20
0.0
 11
420.0
 21
297.0
 12
0.0
 22
0.0
 32
0.0
 14
1e+20
 24
1e+20
 34
1e+20
 15
-1e+20
 25
-1e+20
 35
-1e+20
146
0.0
 13
0.0
 23
0.0
 33
0.0
 16
1.0
 26
0.0
 36
0.0
 17
0.0
 27
1.0
 37
0.0
 76
1
330
1B
  0
MATERIAL
  5
1F
102
{ACAD_REACTORS
330
E
102
}
330
E
100
AcDbMaterial
  1
ByBlock
  2

 70
0
 40
1.0
 71
1
 41
1.0
 91
-1023410177
 42
1.0
 72
1
  3

 73
1
 74
1
 75
1
 44
0.5
 73
0
 45
1.0
 46
1.0
 77
1
  4

 78
1
 79
1
170
1
 48
1.0
171
1
  6

172
1
173
1
174
1
140
1.0
141
1.0
175
1
  7

176
1
177
1
178
1
143
1.0
179
1
  8

270
1
271
1
272
1
145
1.0
146
1.0
273
1
  9

274
1
275
1
276
1
 42
1.0
 72
1
  3

 73
1
 74
1
 75
1
 94
63
  0
MATERIAL
  5
20
102
{ACAD_REACTORS
330
E
102
}
330
E
100
AcDbMaterial
  1
ByLayer
  2

 70
0
 40
1.0
 71
1
 41
1.0
 91
-1023410177
 42
1.0
 72
1
  3

 73
1
 74
1
 75
1
 44
0.5
 73
0
 45
1.0
 46
1.0
 77
1
  4

 78
1
 79
1
170
1
 48
1.0
171
1
  6

172
1
173
1
174
1
140
1.0
141
1.0
175
1
  7

176
1
177
1
178
1
143
1.0
179
1
  8

270
1
271
1
272
1
145
1.0
146
1.0
273
1
  9

274
1
275
1
276
1
 42
1.0
 72
1
  3

 73
1
 74
1
 75
1
 94
63
  0
MATERIAL
  5
21
102
{ACAD_REACTORS
330
E
102
}
330
E
100
AcDbMaterial
  1
Global
  2

 70
0
 40
1.0
 71
1
 41
1.0
 91
-1023410177
 42
1.0
 72
1
  3

 73
1
 74
1
 75
1
 44
0.5
 73
0
 45
1.0
 46
1.0
 77
1
  4

 78
1
 79
1
170
1
 48
1.0
171
1
  6

172
1
173
1
174
1
140
1.0
141
1.0
175
1
  7

176
1
177
1
178
1
143
1.0
179
1
  8

270
1
271
1
272
1
145
1.0
146
1.0
273
1
  9

274
1
275
1
276
1
 42
1.0
 72
1
  3

 73
1
 74
1
 75
1
 94
63
  0
MLINESTYLE
  5
22
102
{ACAD_REACTORS
330
10
102
}
330
10
100
AcDbMlineStyle
  2
Standard
 70
0
  3

 62
256
 51
90.0
 52
90.0
 71
2
 49
0.5
 62
256
  6
BYLAYER
 49
-0.5
 62
256
  6
BYLAYER
  0
MLEADERSTYLE
  5
2C
102
{ACAD_REACTORS
330
F
102
}
330
F
100
AcDbMLeaderStyle
179
2
170
2
171
1
172
0
 90
2
 40
0.0
 41
0.0
173
1
 91
-1056964608
 92
-2
290
1
 42
2.0
291
1
 43
8.0
  3
Standard
 44
4.0
300

342
29
174
1
175
1
176
0
178
1
 93
-1056964608
 45
4.0
292
0
297
0
 46
4.0
 94
-1056964608
 47
1.0
 49
1.0
140
1.0
294
1
141
0.0
177
0
142
1.0
295
0
296
0
143
3.75
271
0
272
9
273
9
  0
DICTIONARY
  5
2D
330
A
100
AcDbDictionary
280
1
281
1
  3
CREATED_BY_EZDXF
350
2E
  3
WRITTEN_BY_EZDXF
350
A5
  0
DICTIONARYVAR
  5
2E
330
2D
100
DictionaryVariables
280
0
  1
1.4.3 @ 2026-02-13T04:54:11.240523+00:00
  0
DICTIONARYVAR
  5
A5
330
2D
100
DictionaryVariables
280
0
  1
1.4.3 @ 2026-02-13T04:54:11.249739+00:00
  0
ENDSEC
  0
EOF
