0
SECTION
2
HEADER
9
$EXTMIN
10
 0
20
 100
30
0.0
9
$EXTMAX
10
 0
20
 100
30
0.0
9
$LIMMIN
10
 100
20
 0
9
$LIMMAX
10
 0
20
 100
9
$PSLTSCALE
70
1
0
ENDSEC
0
SECTION
2
TABLES
0
TABLE
2
LAYER
70
2
0
LAYER
2
0
70
0
62
7
6
CONTINUOUS
0
LAYER
2
Halfen
70
0
62
7
6
CONTINUOUS
0
ENDTAB
0
ENDSEC
0
SECTION
2
ENTITIES
0
POLYLINE
8
Halfen
62
7
66
1
10
0.0
20
0.0
30
0.0
70
1
0
VERTEX
8
Halfen
62
7
10
 0
20
-73.5
30
0
0
VERTEX
8
Halfen
62
7
10
 500
20
-73.5
30
0
0
VERTEX
8
Halfen
62
7
10
 500
20
 73.5
30
0
0
VERTEX
8
Halfen
62
7
10
 0
20
 73.5
30
0
0
SEQEND
8
Halfen
0
POLYLINE
8
Halfen
62
7
66
1
10
0.0
20
0.0
30
0.0
70
1
0
VERTEX
8
Halfen
62
7
10
 0
20
-60
30
0
0
VERTEX
8
Halfen
62
7
10
 500
20
-60
30
0
0
VERTEX
8
Halfen
62
7
10
 500
20
 60
30
0
0
VERTEX
8
Halfen
62
7
10
 0
20
 60
30
0
0
SEQEND
8
Halfen
0
POLYLINE
8
Halfen
62
7
66
1
10
0.0
20
0.0
30
0.0
70
1
0
VERTEX
8
Halfen
62
7
10
 20
20
-32.5
30
0
0
VERTEX
8
Halfen
62
7
10
 37
20
-1.5
30
0
0
VERTEX
8
Halfen
62
7
10
 28
20
-1.5
30
0
0
VERTEX
8
Halfen
62
7
10
 28
20
 32.5
30
0
0
VERTEX
8
Halfen
62
7
10
 12
20
 32.5
30
0
0
VERTEX
8
Halfen
62
7
10
 12
20
-1.5
30
0
0
VERTEX
8
Halfen
62
7
10
 3
20
-1.5
30
0
0
SEQEND
8
Halfen
0
POLYLINE
8
Halfen
62
7
66
1
10
0.0
20
0.0
30
0.0
70
1
0
VERTEX
8
Halfen
62
7
10
 480
20
-32.5
30
0
0
VERTEX
8
Halfen
62
7
10
 497
20
-1.5
30
0
0
VERTEX
8
Halfen
62
7
10
 488
20
-1.5
30
0
0
VERTEX
8
Halfen
62
7
10
 488
20
 32.5
30
0
0
VERTEX
8
Halfen
62
7
10
 472
20
 32.5
30
0
0
VERTEX
8
Halfen
62
7
10
 472
20
-1.5
30
0
0
VERTEX
8
Halfen
62
7
10
 463
20
-1.5
30
0
0
SEQEND
8
Halfen
0
POLYLINE
8
Halfen
62
7
66
1
10
0.0
20
0.0
30
0.0
70
1
0
VERTEX
8
Halfen
62
7
10
 151
20
-69.3
30
0
0
VERTEX
8
Halfen
62
7
10
 151
20
-56.8
30
0
0
VERTEX
8
Halfen
62
7
10
 151
20
 69.3
30
0
0
VERTEX
8
Halfen
62
7
10
 150.958
20
 70.359
30
0
0
VERTEX
8
Halfen
62
7
10
 150.834
20
 71.412
30
0
0
VERTEX
8
Halfen
62
7
10
 150.627
20
 72.452
30
0
0
VERTEX
8
Halfen
62
7
10
 150.339
20
 73.472
30
0
0
VERTEX
8
Halfen
62
7
10
 149.972
20
 74.466
30
0
0
VERTEX
8
Halfen
62
7
10
 149.529
20
 75.429
30
0
0
VERTEX
8
Halfen
62
7
10
 149.011
20
 76.354
30
0
0
VERTEX
8
Halfen
62
7
10
 148.422
20
 77.235
30
0
0
VERTEX
8
Halfen
62
7
10
 147.765
20
 78.068
30
0
0
VERTEX
8
Halfen
62
7
10
 147.046
20
 78.846
30
0
0
VERTEX
8
Halfen
62
7
10
 146.268
20
 79.565
30
0
0
VERTEX
8
Halfen
62
7
10
 145.435
20
 80.222
30
0
0
VERTEX
8
Halfen
62
7
10
 144.554
20
 80.811
30
0
0
VERTEX
8
Halfen
62
7
10
 143.629
20
 81.329
30
0
0
VERTEX
8
Halfen
62
7
10
 142.666
20
 81.772
30
0
0
VERTEX
8
Halfen
62
7
10
 141.672
20
 82.139
30
0
0
VERTEX
8
Halfen
62
7
10
 140.652
20
 82.427
30
0
0
VERTEX
8
Halfen
62
7
10
 139.612
20
 82.634
30
0
0
VERTEX
8
Halfen
62
7
10
 138.559
20
 82.758
30
0
0
VERTEX
8
Halfen
62
7
10
 137.5
20
 82.8
30
0
0
VERTEX
8
Halfen
62
7
10
 134.5
20
 82.8
30
0
0
VERTEX
8
Halfen
62
7
10
 133.441
20
 82.758
30
0
0
VERTEX
8
Halfen
62
7
10
 132.388
20
 82.634
30
0
0
VERTEX
8
Halfen
62
7
10
 131.348
20
 82.427
30
0
0
VERTEX
8
Halfen
62
7
10
 130.328
20
 82.139
30
0
0
VERTEX
8
Halfen
62
7
10
 129.334
20
 81.772
30
0
0
VERTEX
8
Halfen
62
7
10
 128.371
20
 81.329
30
0
0
VERTEX
8
Halfen
62
7
10
 127.446
20
 80.811
30
0
0
VERTEX
8
Halfen
62
7
10
 126.565
20
 80.222
30
0
0
VERTEX
8
Halfen
62
7
10
 125.732
20
 79.565
30
0
0
VERTEX
8
Halfen
62
7
10
 124.954
20
 78.846
30
0
0
VERTEX
8
Halfen
62
7
10
 124.235
20
 78.068
30
0
0
VERTEX
8
Halfen
62
7
10
 123.578
20
 77.235
30
0
0
VERTEX
8
Halfen
62
7
10
 122.989
20
 76.354
30
0
0
VERTEX
8
Halfen
62
7
10
 122.471
20
 75.429
30
0
0
VERTEX
8
Halfen
62
7
10
 122.028
20
 74.466
30
0
0
VERTEX
8
Halfen
62
7
10
 121.661
20
 73.472
30
0
0
VERTEX
8
Halfen
62
7
10
 121.373
20
 72.452
30
0
0
VERTEX
8
Halfen
62
7
10
 121.166
20
 71.412
30
0
0
VERTEX
8
Halfen
62
7
10
 121.042
20
 70.359
30
0
0
VERTEX
8
Halfen
62
7
10
 121
20
 69.3
30
0
0
VERTEX
8
Halfen
62
7
10
 121
20
-56.8
30
0
0
VERTEX
8
Halfen
62
7
10
 121
20
-69.3
30
0
0
VERTEX
8
Halfen
62
7
10
 121.042
20
-70.359
30
0
0
VERTEX
8
Halfen
62
7
10
 121.166
20
-71.412
30
0
0
VERTEX
8
Halfen
62
7
10
 121.373
20
-72.452
30
0
0
VERTEX
8
Halfen
62
7
10
 121.661
20
-73.472
30
0
0
VERTEX
8
Halfen
62
7
10
 122.028
20
-74.466
30
0
0
VERTEX
8
Halfen
62
7
10
 122.471
20
-75.429
30
0
0
VERTEX
8
Halfen
62
7
10
 122.989
20
-76.354
30
0
0
VERTEX
8
Halfen
62
7
10
 123.578
20
-77.235
30
0
0
VERTEX
8
Halfen
62
7
10
 124.235
20
-78.068
30
0
0
VERTEX
8
Halfen
62
7
10
 124.954
20
-78.846
30
0
0
VERTEX
8
Halfen
62
7
10
 125.732
20
-79.565
30
0
0
VERTEX
8
Halfen
62
7
10
 126.565
20
-80.222
30
0
0
VERTEX
8
Halfen
62
7
10
 127.446
20
-80.811
30
0
0
VERTEX
8
Halfen
62
7
10
 128.371
20
-81.329
30
0
0
VERTEX
8
Halfen
62
7
10
 129.334
20
-81.772
30
0
0
VERTEX
8
Halfen
62
7
10
 130.328
20
-82.139
30
0
0
VERTEX
8
Halfen
62
7
10
 131.348
20
-82.427
30
0
0
VERTEX
8
Halfen
62
7
10
 132.388
20
-82.634
30
0
0
VERTEX
8
Halfen
62
7
10
 133.441
20
-82.758
30
0
0
VERTEX
8
Halfen
62
7
10
 134.5
20
-82.8
30
0
0
VERTEX
8
Halfen
62
7
10
 137.5
20
-82.8
30
0
0
VERTEX
8
Halfen
62
7
10
 138.559
20
-82.758
30
0
0
VERTEX
8
Halfen
62
7
10
 139.612
20
-82.634
30
0
0
VERTEX
8
Halfen
62
7
10
 140.652
20
-82.427
30
0
0
VERTEX
8
Halfen
62
7
10
 141.672
20
-82.139
30
0
0
VERTEX
8
Halfen
62
7
10
 142.666
20
-81.772
30
0
0
VERTEX
8
Halfen
62
7
10
 143.629
20
-81.329
30
0
0
VERTEX
8
Halfen
62
7
10
 144.554
20
-80.811
30
0
0
VERTEX
8
Halfen
62
7
10
 145.435
20
-80.222
30
0
0
VERTEX
8
Halfen
62
7
10
 146.268
20
-79.565
30
0
0
VERTEX
8
Halfen
62
7
10
 147.046
20
-78.846
30
0
0
VERTEX
8
Halfen
62
7
10
 147.765
20
-78.068
30
0
0
VERTEX
8
Halfen
62
7
10
 148.422
20
-77.235
30
0
0
VERTEX
8
Halfen
62
7
10
 149.011
20
-76.354
30
0
0
VERTEX
8
Halfen
62
7
10
 149.529
20
-75.429
30
0
0
VERTEX
8
Halfen
62
7
10
 149.972
20
-74.466
30
0
0
VERTEX
8
Halfen
62
7
10
 150.339
20
-73.472
30
0
0
VERTEX
8
Halfen
62
7
10
 150.627
20
-72.452
30
0
0
VERTEX
8
Halfen
62
7
10
 150.834
20
-71.412
30
0
0
VERTEX
8
Halfen
62
7
10
 150.958
20
-70.359
30
0
0
VERTEX
8
Halfen
62
7
10
 151
20
-69.3
30
0
0
SEQEND
8
Halfen
0
POLYLINE
8
Halfen
62
7
66
1
10
0.0
20
0.0
30
0.0
70
1
0
VERTEX
8
Halfen
62
7
10
 265
20
-69.3
30
0
0
VERTEX
8
Halfen
62
7
10
 265
20
-56.8
30
0
0
VERTEX
8
Halfen
62
7
10
 265
20
 69.3
30
0
0
VERTEX
8
Halfen
62
7
10
 264.958
20
 70.359
30
0
0
VERTEX
8
Halfen
62
7
10
 264.834
20
 71.412
30
0
0
VERTEX
8
Halfen
62
7
10
 264.627
20
 72.452
30
0
0
VERTEX
8
Halfen
62
7
10
 264.339
20
 73.472
30
0
0
VERTEX
8
Halfen
62
7
10
 263.972
20
 74.466
30
0
0
VERTEX
8
Halfen
62
7
10
 263.529
20
 75.429
30
0
0
VERTEX
8
Halfen
62
7
10
 263.011
20
 76.354
30
0
0
VERTEX
8
Halfen
62
7
10
 262.422
20
 77.235
30
0
0
VERTEX
8
Halfen
62
7
10
 261.765
20
 78.068
30
0
0
VERTEX
8
Halfen
62
7
10
 261.046
20
 78.846
30
0
0
VERTEX
8
Halfen
62
7
10
 260.268
20
 79.565
30
0
0
VERTEX
8
Halfen
62
7
10
 259.435
20
 80.222
30
0
0
VERTEX
8
Halfen
62
7
10
 258.554
20
 80.811
30
0
0
VERTEX
8
Halfen
62
7
10
 257.629
20
 81.329
30
0
0
VERTEX
8
Halfen
62
7
10
 256.666
20
 81.772
30
0
0
VERTEX
8
Halfen
62
7
10
 255.672
20
 82.139
30
0
0
VERTEX
8
Halfen
62
7
10
 254.652
20
 82.427
30
0
0
VERTEX
8
Halfen
62
7
10
 253.612
20
 82.634
30
0
0
VERTEX
8
Halfen
62
7
10
 252.559
20
 82.758
30
0
0
VERTEX
8
Halfen
62
7
10
 251.5
20
 82.8
30
0
0
VERTEX
8
Halfen
62
7
10
 248.5
20
 82.8
30
0
0
VERTEX
8
Halfen
62
7
10
 247.441
20
 82.758
30
0
0
VERTEX
8
Halfen
62
7
10
 246.388
20
 82.634
30
0
0
VERTEX
8
Halfen
62
7
10
 245.348
20
 82.427
30
0
0
VERTEX
8
Halfen
62
7
10
 244.328
20
 82.139
30
0
0
VERTEX
8
Halfen
62
7
10
 243.334
20
 81.772
30
0
0
VERTEX
8
Halfen
62
7
10
 242.371
20
 81.329
30
0
0
VERTEX
8
Halfen
62
7
10
 241.446
20
 80.811
30
0
0
VERTEX
8
Halfen
62
7
10
 240.565
20
 80.222
30
0
0
VERTEX
8
Halfen
62
7
10
 239.732
20
 79.565
30
0
0
VERTEX
8
Halfen
62
7
10
 238.954
20
 78.846
30
0
0
VERTEX
8
Halfen
62
7
10
 238.235
20
 78.068
30
0
0
VERTEX
8
Halfen
62
7
10
 237.578
20
 77.235
30
0
0
VERTEX
8
Halfen
62
7
10
 236.989
20
 76.354
30
0
0
VERTEX
8
Halfen
62
7
10
 236.471
20
 75.429
30
0
0
VERTEX
8
Halfen
62
7
10
 236.028
20
 74.466
30
0
0
VERTEX
8
Halfen
62
7
10
 235.661
20
 73.472
30
0
0
VERTEX
8
Halfen
62
7
10
 235.373
20
 72.452
30
0
0
VERTEX
8
Halfen
62
7
10
 235.166
20
 71.412
30
0
0
VERTEX
8
Halfen
62
7
10
 235.042
20
 70.359
30
0
0
VERTEX
8
Halfen
62
7
10
 235
20
 69.3
30
0
0
VERTEX
8
Halfen
62
7
10
 235
20
-56.8
30
0
0
VERTEX
8
Halfen
62
7
10
 235
20
-69.3
30
0
0
VERTEX
8
Halfen
62
7
10
 235.042
20
-70.359
30
0
0
VERTEX
8
Halfen
62
7
10
 235.166
20
-71.412
30
0
0
VERTEX
8
Halfen
62
7
10
 235.373
20
-72.452
30
0
0
VERTEX
8
Halfen
62
7
10
 235.661
20
-73.472
30
0
0
VERTEX
8
Halfen
62
7
10
 236.028
20
-74.466
30
0
0
VERTEX
8
Halfen
62
7
10
 236.471
20
-75.429
30
0
0
VERTEX
8
Halfen
62
7
10
 236.989
20
-76.354
30
0
0
VERTEX
8
Halfen
62
7
10
 237.578
20
-77.235
30
0
0
VERTEX
8
Halfen
62
7
10
 238.235
20
-78.068
30
0
0
VERTEX
8
Halfen
62
7
10
 238.954
20
-78.846
30
0
0
VERTEX
8
Halfen
62
7
10
 239.732
20
-79.565
30
0
0
VERTEX
8
Halfen
62
7
10
 240.565
20
-80.222
30
0
0
VERTEX
8
Halfen
62
7
10
 241.446
20
-80.811
30
0
0
VERTEX
8
Halfen
62
7
10
 242.371
20
-81.329
30
0
0
VERTEX
8
Halfen
62
7
10
 243.334
20
-81.772
30
0
0
VERTEX
8
Halfen
62
7
10
 244.328
20
-82.139
30
0
0
VERTEX
8
Halfen
62
7
10
 245.348
20
-82.427
30
0
0
VERTEX
8
Halfen
62
7
10
 246.388
20
-82.634
30
0
0
VERTEX
8
Halfen
62
7
10
 247.441
20
-82.758
30
0
0
VERTEX
8
Halfen
62
7
10
 248.5
20
-82.8
30
0
0
VERTEX
8
Halfen
62
7
10
 251.5
20
-82.8
30
0
0
VERTEX
8
Halfen
62
7
10
 252.559
20
-82.758
30
0
0
VERTEX
8
Halfen
62
7
10
 253.612
20
-82.634
30
0
0
VERTEX
8
Halfen
62
7
10
 254.652
20
-82.427
30
0
0
VERTEX
8
Halfen
62
7
10
 255.672
20
-82.139
30
0
0
VERTEX
8
Halfen
62
7
10
 256.666
20
-81.772
30
0
0
VERTEX
8
Halfen
62
7
10
 257.629
20
-81.329
30
0
0
VERTEX
8
Halfen
62
7
10
 258.554
20
-80.811
30
0
0
VERTEX
8
Halfen
62
7
10
 259.435
20
-80.222
30
0
0
VERTEX
8
Halfen
62
7
10
 260.268
20
-79.565
30
0
0
VERTEX
8
Halfen
62
7
10
 261.046
20
-78.846
30
0
0
VERTEX
8
Halfen
62
7
10
 261.765
20
-78.068
30
0
0
VERTEX
8
Halfen
62
7
10
 262.422
20
-77.235
30
0
0
VERTEX
8
Halfen
62
7
10
 263.011
20
-76.354
30
0
0
VERTEX
8
Halfen
62
7
10
 263.529
20
-75.429
30
0
0
VERTEX
8
Halfen
62
7
10
 263.972
20
-74.466
30
0
0
VERTEX
8
Halfen
62
7
10
 264.339
20
-73.472
30
0
0
VERTEX
8
Halfen
62
7
10
 264.627
20
-72.452
30
0
0
VERTEX
8
Halfen
62
7
10
 264.834
20
-71.412
30
0
0
VERTEX
8
Halfen
62
7
10
 264.958
20
-70.359
30
0
0
VERTEX
8
Halfen
62
7
10
 265
20
-69.3
30
0
0
SEQEND
8
Halfen
0
POLYLINE
8
Halfen
62
7
66
1
10
0.0
20
0.0
30
0.0
70
1
0
VERTEX
8
Halfen
62
7
10
 379
20
-69.3
30
0
0
VERTEX
8
Halfen
62
7
10
 379
20
-56.8
30
0
0
VERTEX
8
Halfen
62
7
10
 379
20
 69.3
30
0
0
VERTEX
8
Halfen
62
7
10
 378.958
20
 70.359
30
0
0
VERTEX
8
Halfen
62
7
10
 378.834
20
 71.412
30
0
0
VERTEX
8
Halfen
62
7
10
 378.627
20
 72.452
30
0
0
VERTEX
8
Halfen
62
7
10
 378.339
20
 73.472
30
0
0
VERTEX
8
Halfen
62
7
10
 377.972
20
 74.466
30
0
0
VERTEX
8
Halfen
62
7
10
 377.529
20
 75.429
30
0
0
VERTEX
8
Halfen
62
7
10
 377.011
20
 76.354
30
0
0
VERTEX
8
Halfen
62
7
10
 376.422
20
 77.235
30
0
0
VERTEX
8
Halfen
62
7
10
 375.765
20
 78.068
30
0
0
VERTEX
8
Halfen
62
7
10
 375.046
20
 78.846
30
0
0
VERTEX
8
Halfen
62
7
10
 374.268
20
 79.565
30
0
0
VERTEX
8
Halfen
62
7
10
 373.435
20
 80.222
30
0
0
VERTEX
8
Halfen
62
7
10
 372.554
20
 80.811
30
0
0
VERTEX
8
Halfen
62
7
10
 371.629
20
 81.329
30
0
0
VERTEX
8
Halfen
62
7
10
 370.666
20
 81.772
30
0
0
VERTEX
8
Halfen
62
7
10
 369.672
20
 82.139
30
0
0
VERTEX
8
Halfen
62
7
10
 368.652
20
 82.427
30
0
0
VERTEX
8
Halfen
62
7
10
 367.612
20
 82.634
30
0
0
VERTEX
8
Halfen
62
7
10
 366.559
20
 82.758
30
0
0
VERTEX
8
Halfen
62
7
10
 365.5
20
 82.8
30
0
0
VERTEX
8
Halfen
62
7
10
 362.5
20
 82.8
30
0
0
VERTEX
8
Halfen
62
7
10
 361.441
20
 82.758
30
0
0
VERTEX
8
Halfen
62
7
10
 360.388
20
 82.634
30
0
0
VERTEX
8
Halfen
62
7
10
 359.348
20
 82.427
30
0
0
VERTEX
8
Halfen
62
7
10
 358.328
20
 82.139
30
0
0
VERTEX
8
Halfen
62
7
10
 357.334
20
 81.772
30
0
0
VERTEX
8
Halfen
62
7
10
 356.371
20
 81.329
30
0
0
VERTEX
8
Halfen
62
7
10
 355.446
20
 80.811
30
0
0
VERTEX
8
Halfen
62
7
10
 354.565
20
 80.222
30
0
0
VERTEX
8
Halfen
62
7
10
 353.732
20
 79.565
30
0
0
VERTEX
8
Halfen
62
7
10
 352.954
20
 78.846
30
0
0
VERTEX
8
Halfen
62
7
10
 352.235
20
 78.068
30
0
0
VERTEX
8
Halfen
62
7
10
 351.578
20
 77.235
30
0
0
VERTEX
8
Halfen
62
7
10
 350.989
20
 76.354
30
0
0
VERTEX
8
Halfen
62
7
10
 350.471
20
 75.429
30
0
0
VERTEX
8
Halfen
62
7
10
 350.028
20
 74.466
30
0
0
VERTEX
8
Halfen
62
7
10
 349.661
20
 73.472
30
0
0
VERTEX
8
Halfen
62
7
10
 349.373
20
 72.452
30
0
0
VERTEX
8
Halfen
62
7
10
 349.166
20
 71.412
30
0
0
VERTEX
8
Halfen
62
7
10
 349.042
20
 70.359
30
0
0
VERTEX
8
Halfen
62
7
10
 349
20
 69.3
30
0
0
VERTEX
8
Halfen
62
7
10
 349
20
-56.8
30
0
0
VERTEX
8
Halfen
62
7
10
 349
20
-69.3
30
0
0
VERTEX
8
Halfen
62
7
10
 349.042
20
-70.359
30
0
0
VERTEX
8
Halfen
62
7
10
 349.166
20
-71.412
30
0
0
VERTEX
8
Halfen
62
7
10
 349.373
20
-72.452
30
0
0
VERTEX
8
Halfen
62
7
10
 349.661
20
-73.472
30
0
0
VERTEX
8
Halfen
62
7
10
 350.028
20
-74.466
30
0
0
VERTEX
8
Halfen
62
7
10
 350.471
20
-75.429
30
0
0
VERTEX
8
Halfen
62
7
10
 350.989
20
-76.354
30
0
0
VERTEX
8
Halfen
62
7
10
 351.578
20
-77.235
30
0
0
VERTEX
8
Halfen
62
7
10
 352.235
20
-78.068
30
0
0
VERTEX
8
Halfen
62
7
10
 352.954
20
-78.846
30
0
0
VERTEX
8
Halfen
62
7
10
 353.732
20
-79.565
30
0
0
VERTEX
8
Halfen
62
7
10
 354.565
20
-80.222
30
0
0
VERTEX
8
Halfen
62
7
10
 355.446
20
-80.811
30
0
0
VERTEX
8
Halfen
62
7
10
 356.371
20
-81.329
30
0
0
VERTEX
8
Halfen
62
7
10
 357.334
20
-81.772
30
0
0
VERTEX
8
Halfen
62
7
10
 358.328
20
-82.139
30
0
0
VERTEX
8
Halfen
62
7
10
 359.348
20
-82.427
30
0
0
VERTEX
8
Halfen
62
7
10
 360.388
20
-82.634
30
0
0
VERTEX
8
Halfen
62
7
10
 361.441
20
-82.758
30
0
0
VERTEX
8
Halfen
62
7
10
 362.5
20
-82.8
30
0
0
VERTEX
8
Halfen
62
7
10
 365.5
20
-82.8
30
0
0
VERTEX
8
Halfen
62
7
10
 366.559
20
-82.758
30
0
0
VERTEX
8
Halfen
62
7
10
 367.612
20
-82.634
30
0
0
VERTEX
8
Halfen
62
7
10
 368.652
20
-82.427
30
0
0
VERTEX
8
Halfen
62
7
10
 369.672
20
-82.139
30
0
0
VERTEX
8
Halfen
62
7
10
 370.666
20
-81.772
30
0
0
VERTEX
8
Halfen
62
7
10
 371.629
20
-81.329
30
0
0
VERTEX
8
Halfen
62
7
10
 372.554
20
-80.811
30
0
0
VERTEX
8
Halfen
62
7
10
 373.435
20
-80.222
30
0
0
VERTEX
8
Halfen
62
7
10
 374.268
20
-79.565
30
0
0
VERTEX
8
Halfen
62
7
10
 375.046
20
-78.846
30
0
0
VERTEX
8
Halfen
62
7
10
 375.765
20
-78.068
30
0
0
VERTEX
8
Halfen
62
7
10
 376.422
20
-77.235
30
0
0
VERTEX
8
Halfen
62
7
10
 377.011
20
-76.354
30
0
0
VERTEX
8
Halfen
62
7
10
 377.529
20
-75.429
30
0
0
VERTEX
8
Halfen
62
7
10
 377.972
20
-74.466
30
0
0
VERTEX
8
Halfen
62
7
10
 378.339
20
-73.472
30
0
0
VERTEX
8
Halfen
62
7
10
 378.627
20
-72.452
30
0
0
VERTEX
8
Halfen
62
7
10
 378.834
20
-71.412
30
0
0
VERTEX
8
Halfen
62
7
10
 378.958
20
-70.359
30
0
0
VERTEX
8
Halfen
62
7
10
 379
20
-69.3
30
0
0
SEQEND
8
Halfen
0
POLYLINE
8
Halfen
62
7
66
1
10
0.0
20
0.0
30
0.0
70
1
0
VERTEX
8
Halfen
62
7
10
 90
20
-819.914
30
0
0
VERTEX
8
Halfen
62
7
10
 90
20
 823.254
30
0
0
VERTEX
8
Halfen
62
7
10
 78
20
 823.254
30
0
0
VERTEX
8
Halfen
62
7
10
 78
20
-819.914
30
0
0
SEQEND
8
Halfen
0
POLYLINE
8
Halfen
62
7
66
1
10
0.0
20
0.0
30
0.0
70
1
0
VERTEX
8
Halfen
62
7
10
 319
20
-819.914
30
0
0
VERTEX
8
Halfen
62
7
10
 319
20
 823.254
30
0
0
VERTEX
8
Halfen
62
7
10
 307
20
 823.254
30
0
0
VERTEX
8
Halfen
62
7
10
 307
20
-819.914
30
0
0
SEQEND
8
Halfen
0
POLYLINE
8
Halfen
62
7
66
1
10
0.0
20
0.0
30
0.0
70
1
0
VERTEX
8
Halfen
62
7
10
 434
20
-819.914
30
0
0
VERTEX
8
Halfen
62
7
10
 434
20
 823.254
30
0
0
VERTEX
8
Halfen
62
7
10
 422
20
 823.254
30
0
0
VERTEX
8
Halfen
62
7
10
 422
20
-819.914
30
0
0
SEQEND
8
Halfen
0
POLYLINE
8
Halfen
62
7
66
1
10
0.0
20
0.0
30
0.0
70
1
0
VERTEX
8
Halfen
62
7
10
 422
20
-819.914
30
0
0
VERTEX
8
Halfen
62
7
10
 422
20
 823.254
30
0
0
VERTEX
8
Halfen
62
7
10
 410
20
 823.254
30
0
0
VERTEX
8
Halfen
62
7
10
 410
20
-819.914
30
0
0
SEQEND
8
Halfen
0
POLYLINE
8
Halfen
62
7
66
1
10
0.0
20
0.0
30
0.0
70
1
0
VERTEX
8
Halfen
62
7
10
 193
20
-819.914
30
0
0
VERTEX
8
Halfen
62
7
10
 193
20
 823.254
30
0
0
VERTEX
8
Halfen
62
7
10
 181
20
 823.254
30
0
0
VERTEX
8
Halfen
62
7
10
 181
20
-819.914
30
0
0
SEQEND
8
Halfen
0
POLYLINE
8
Halfen
62
7
66
1
10
0.0
20
0.0
30
0.0
70
1
0
VERTEX
8
Halfen
62
7
10
 78
20
-819.914
30
0
0
VERTEX
8
Halfen
62
7
10
 78
20
 823.254
30
0
0
VERTEX
8
Halfen
62
7
10
 66
20
 823.254
30
0
0
VERTEX
8
Halfen
62
7
10
 66
20
-819.914
30
0
0
SEQEND
8
Halfen
0
POLYLINE
8
Halfen
62
7
66
1
10
0.0
20
0.0
30
0.0
70
1
0
VERTEX
8
Halfen
62
7
10
 890
20
-60
30
0
0
VERTEX
8
Halfen
62
7
10
 890
20
 60
30
0
0
VERTEX
8
Halfen
62
7
10
 876.5
20
 73.5
30
0
0
VERTEX
8
Halfen
62
7
10
 876.5
20
 60
30
0
0
VERTEX
8
Halfen
62
7
10
 750
20
 60
30
0
0
VERTEX
8
Halfen
62
7
10
 750
20
-60
30
0
0
VERTEX
8
Halfen
62
7
10
 876.5
20
-60
30
0
0
VERTEX
8
Halfen
62
7
10
 876.5
20
-73.5
30
0
0
SEQEND
8
Halfen
0
POLYLINE
8
Halfen
62
7
66
1
10
0.0
20
0.0
30
0.0
70
1
0
VERTEX
8
Halfen
62
7
10
 750
20
-60
30
0
0
VERTEX
8
Halfen
62
7
10
 750
20
 60
30
0
0
VERTEX
8
Halfen
62
7
10
 713.5
20
 60
30
0
0
VERTEX
8
Halfen
62
7
10
 713.5
20
 73.5
30
0
0
VERTEX
8
Halfen
62
7
10
 700
20
 60
30
0
0
VERTEX
8
Halfen
62
7
10
 700
20
-60
30
0
0
VERTEX
8
Halfen
62
7
10
 713.5
20
-73.5
30
0
0
VERTEX
8
Halfen
62
7
10
 713.5
20
-60
30
0
0
SEQEND
8
Halfen
0
POLYLINE
8
Halfen
62
7
66
1
10
0.0
20
0.0
30
0.0
70
1
0
VERTEX
8
Halfen
62
7
10
 887.5
20
-58.75
30
0
0
VERTEX
8
Halfen
62
7
10
 887.5
20
 58.75
30
0
0
VERTEX
8
Halfen
62
7
10
 879
20
 67.25
30
0
0
VERTEX
8
Halfen
62
7
10
 879
20
 58
30
0
0
VERTEX
8
Halfen
62
7
10
 752
20
 58
30
0
0
VERTEX
8
Halfen
62
7
10
 752
20
-58
30
0
0
VERTEX
8
Halfen
62
7
10
 879
20
-58
30
0
0
VERTEX
8
Halfen
62
7
10
 879
20
-67.25
30
0
0
SEQEND
8
Halfen
0
POLYLINE
8
Halfen
62
7
66
1
10
0.0
20
0.0
30
0.0
70
1
0
VERTEX
8
Halfen
62
7
10
 748
20
-58
30
0
0
VERTEX
8
Halfen
62
7
10
 748
20
 58
30
0
0
VERTEX
8
Halfen
62
7
10
 711
20
 58
30
0
0
VERTEX
8
Halfen
62
7
10
 711
20
 67.25
30
0
0
VERTEX
8
Halfen
62
7
10
 702.5
20
 58.75
30
0
0
VERTEX
8
Halfen
62
7
10
 702.5
20
-58.75
30
0
0
VERTEX
8
Halfen
62
7
10
 711
20
-67.25
30
0
0
VERTEX
8
Halfen
62
7
10
 711
20
-58
30
0
0
SEQEND
8
Halfen
0
POLYLINE
8
Halfen
62
7
66
1
10
0.0
20
0.0
30
0.0
70
1
0
VERTEX
8
Halfen
62
7
10
 875
20
-81.8
30
0
0
VERTEX
8
Halfen
62
7
10
 875
20
 81.8
30
0
0
VERTEX
8
Halfen
62
7
10
 871
20
 81.8
30
0
0
VERTEX
8
Halfen
62
7
10
 870.846
20
 81.797
30
0
0
VERTEX
8
Halfen
62
7
10
 870.691
20
 81.786
30
0
0
VERTEX
8
Halfen
62
7
10
 870.538
20
 81.769
30
0
0
VERTEX
8
Halfen
62
7
10
 870.385
20
 81.746
30
0
0
VERTEX
8
Halfen
62
7
10
 870.234
20
 81.715
30
0
0
VERTEX
8
Halfen
62
7
10
 870.084
20
 81.678
30
0
0
VERTEX
8
Halfen
62
7
10
 869.936
20
 81.634
30
0
0
VERTEX
8
Halfen
62
7
10
 869.789
20
 81.584
30
0
0
VERTEX
8
Halfen
62
7
10
 869.646
20
 81.527
30
0
0
VERTEX
8
Halfen
62
7
10
 869.505
20
 81.464
30
0
0
VERTEX
8
Halfen
62
7
10
 869.366
20
 81.395
30
0
0
VERTEX
8
Halfen
62
7
10
 869.231
20
 81.32
30
0
0
VERTEX
8
Halfen
62
7
10
 869.1
20
 81.239
30
0
0
VERTEX
8
Halfen
62
7
10
 868.972
20
 81.153
30
0
0
VERTEX
8
Halfen
62
7
10
 868.848
20
 81.06
30
0
0
VERTEX
8
Halfen
62
7
10
 868.728
20
 80.963
30
0
0
VERTEX
8
Halfen
62
7
10
 868.613
20
 80.86
30
0
0
VERTEX
8
Halfen
62
7
10
 868.502
20
 80.752
30
0
0
VERTEX
8
Halfen
62
7
10
 868.397
20
 80.639
30
0
0
VERTEX
8
Halfen
62
7
10
 868.296
20
 80.522
30
0
0
VERTEX
8
Halfen
62
7
10
 867.41
20
 79.491
30
0
0
VERTEX
8
Halfen
62
7
10
 866.479
20
 78.5
30
0
0
VERTEX
8
Halfen
62
7
10
 865.505
20
 77.551
30
0
0
VERTEX
8
Halfen
62
7
10
 864.491
20
 76.646
30
0
0
VERTEX
8
Halfen
62
7
10
 863.437
20
 75.787
30
0
0
VERTEX
8
Halfen
62
7
10
 862.347
20
 74.975
30
0
0
VERTEX
8
Halfen
62
7
10
 861.222
20
 74.211
30
0
0
VERTEX
8
Halfen
62
7
10
 860.064
20
 73.499
30
0
0
VERTEX
8
Halfen
62
7
10
 858.876
20
 72.838
30
0
0
VERTEX
8
Halfen
62
7
10
 857.66
20
 72.23
30
0
0
VERTEX
8
Halfen
62
7
10
 856.418
20
 71.676
30
0
0
VERTEX
8
Halfen
62
7
10
 855.153
20
 71.178
30
0
0
VERTEX
8
Halfen
62
7
10
 853.867
20
 70.736
30
0
0
VERTEX
8
Halfen
62
7
10
 852.563
20
 70.351
30
0
0
VERTEX
8
Halfen
62
7
10
 851.243
20
 70.024
30
0
0
VERTEX
8
Halfen
62
7
10
 849.911
20
 69.756
30
0
0
VERTEX
8
Halfen
62
7
10
 848.567
20
 69.547
30
0
0
VERTEX
8
Halfen
62
7
10
 847.216
20
 69.397
30
0
0
VERTEX
8
Halfen
62
7
10
 845.859
20
 69.307
30
0
0
VERTEX
8
Halfen
62
7
10
 844.5
20
 69.277
30
0
0
VERTEX
8
Halfen
62
7
10
 822.5
20
 69.277
30
0
0
VERTEX
8
Halfen
62
7
10
 821.141
20
 69.307
30
0
0
VERTEX
8
Halfen
62
7
10
 819.784
20
 69.397
30
0
0
VERTEX
8
Halfen
62
7
10
 818.433
20
 69.547
30
0
0
VERTEX
8
Halfen
62
7
10
 817.089
20
 69.756
30
0
0
VERTEX
8
Halfen
62
7
10
 815.757
20
 70.024
30
0
0
VERTEX
8
Halfen
62
7
10
 814.437
20
 70.351
30
0
0
VERTEX
8
Halfen
62
7
10
 813.133
20
 70.736
30
0
0
VERTEX
8
Halfen
62
7
10
 811.847
20
 71.178
30
0
0
VERTEX
8
Halfen
62
7
10
 810.582
20
 71.676
30
0
0
VERTEX
8
Halfen
62
7
10
 809.34
20
 72.23
30
0
0
VERTEX
8
Halfen
62
7
10
 808.124
20
 72.838
30
0
0
VERTEX
8
Halfen
62
7
10
 806.936
20
 73.499
30
0
0
VERTEX
8
Halfen
62
7
10
 805.778
20
 74.211
30
0
0
VERTEX
8
Halfen
62
7
10
 804.653
20
 74.975
30
0
0
VERTEX
8
Halfen
62
7
10
 803.563
20
 75.787
30
0
0
VERTEX
8
Halfen
62
7
10
 802.509
20
 76.646
30
0
0
VERTEX
8
Halfen
62
7
10
 801.495
20
 77.551
30
0
0
VERTEX
8
Halfen
62
7
10
 800.521
20
 78.5
30
0
0
VERTEX
8
Halfen
62
7
10
 799.59
20
 79.491
30
0
0
VERTEX
8
Halfen
62
7
10
 798.704
20
 80.522
30
0
0
VERTEX
8
Halfen
62
7
10
 798.603
20
 80.639
30
0
0
VERTEX
8
Halfen
62
7
10
 798.498
20
 80.752
30
0
0
VERTEX
8
Halfen
62
7
10
 798.387
20
 80.86
30
0
0
VERTEX
8
Halfen
62
7
10
 798.272
20
 80.963
30
0
0
VERTEX
8
Halfen
62
7
10
 798.152
20
 81.06
30
0
0
VERTEX
8
Halfen
62
7
10
 798.028
20
 81.153
30
0
0
VERTEX
8
Halfen
62
7
10
 797.9
20
 81.239
30
0
0
VERTEX
8
Halfen
62
7
10
 797.769
20
 81.32
30
0
0
VERTEX
8
Halfen
62
7
10
 797.634
20
 81.395
30
0
0
VERTEX
8
Halfen
62
7
10
 797.495
20
 81.464
30
0
0
VERTEX
8
Halfen
62
7
10
 797.354
20
 81.527
30
0
0
VERTEX
8
Halfen
62
7
10
 797.211
20
 81.584
30
0
0
VERTEX
8
Halfen
62
7
10
 797.064
20
 81.634
30
0
0
VERTEX
8
Halfen
62
7
10
 796.916
20
 81.678
30
0
0
VERTEX
8
Halfen
62
7
10
 796.766
20
 81.715
30
0
0
VERTEX
8
Halfen
62
7
10
 796.615
20
 81.746
30
0
0
VERTEX
8
Halfen
62
7
10
 796.462
20
 81.769
30
0
0
VERTEX
8
Halfen
62
7
10
 796.309
20
 81.786
30
0
0
VERTEX
8
Halfen
62
7
10
 796.154
20
 81.797
30
0
0
VERTEX
8
Halfen
62
7
10
 796
20
 81.8
30
0
0
VERTEX
8
Halfen
62
7
10
 792
20
 81.8
30
0
0
VERTEX
8
Halfen
62
7
10
 792
20
-81.8
30
0
0
VERTEX
8
Halfen
62
7
10
 796
20
-81.8
30
0
0
VERTEX
8
Halfen
62
7
10
 796.154
20
-81.797
30
0
0
VERTEX
8
Halfen
62
7
10
 796.309
20
-81.786
30
0
0
VERTEX
8
Halfen
62
7
10
 796.462
20
-81.769
30
0
0
VERTEX
8
Halfen
62
7
10
 796.615
20
-81.746
30
0
0
VERTEX
8
Halfen
62
7
10
 796.766
20
-81.715
30
0
0
VERTEX
8
Halfen
62
7
10
 796.916
20
-81.678
30
0
0
VERTEX
8
Halfen
62
7
10
 797.064
20
-81.634
30
0
0
VERTEX
8
Halfen
62
7
10
 797.211
20
-81.584
30
0
0
VERTEX
8
Halfen
62
7
10
 797.354
20
-81.527
30
0
0
VERTEX
8
Halfen
62
7
10
 797.495
20
-81.464
30
0
0
VERTEX
8
Halfen
62
7
10
 797.634
20
-81.395
30
0
0
VERTEX
8
Halfen
62
7
10
 797.769
20
-81.32
30
0
0
VERTEX
8
Halfen
62
7
10
 797.9
20
-81.239
30
0
0
VERTEX
8
Halfen
62
7
10
 798.028
20
-81.153
30
0
0
VERTEX
8
Halfen
62
7
10
 798.152
20
-81.06
30
0
0
VERTEX
8
Halfen
62
7
10
 798.272
20
-80.963
30
0
0
VERTEX
8
Halfen
62
7
10
 798.387
20
-80.86
30
0
0
VERTEX
8
Halfen
62
7
10
 798.498
20
-80.752
30
0
0
VERTEX
8
Halfen
62
7
10
 798.603
20
-80.639
30
0
0
VERTEX
8
Halfen
62
7
10
 798.704
20
-80.522
30
0
0
VERTEX
8
Halfen
62
7
10
 799.59
20
-79.491
30
0
0
VERTEX
8
Halfen
62
7
10
 800.521
20
-78.5
30
0
0
VERTEX
8
Halfen
62
7
10
 801.495
20
-77.551
30
0
0
VERTEX
8
Halfen
62
7
10
 802.509
20
-76.646
30
0
0
VERTEX
8
Halfen
62
7
10
 803.563
20
-75.787
30
0
0
VERTEX
8
Halfen
62
7
10
 804.653
20
-74.975
30
0
0
VERTEX
8
Halfen
62
7
10
 805.778
20
-74.211
30
0
0
VERTEX
8
Halfen
62
7
10
 806.936
20
-73.499
30
0
0
VERTEX
8
Halfen
62
7
10
 808.124
20
-72.838
30
0
0
VERTEX
8
Halfen
62
7
10
 809.34
20
-72.23
30
0
0
VERTEX
8
Halfen
62
7
10
 810.582
20
-71.676
30
0
0
VERTEX
8
Halfen
62
7
10
 811.847
20
-71.178
30
0
0
VERTEX
8
Halfen
62
7
10
 813.133
20
-70.736
30
0
0
VERTEX
8
Halfen
62
7
10
 814.437
20
-70.351
30
0
0
VERTEX
8
Halfen
62
7
10
 815.757
20
-70.024
30
0
0
VERTEX
8
Halfen
62
7
10
 817.089
20
-69.756
30
0
0
VERTEX
8
Halfen
62
7
10
 818.433
20
-69.547
30
0
0
VERTEX
8
Halfen
62
7
10
 819.784
20
-69.397
30
0
0
VERTEX
8
Halfen
62
7
10
 821.141
20
-69.307
30
0
0
VERTEX
8
Halfen
62
7
10
 822.5
20
-69.277
30
0
0
VERTEX
8
Halfen
62
7
10
 844.5
20
-69.277
30
0
0
VERTEX
8
Halfen
62
7
10
 845.859
20
-69.307
30
0
0
VERTEX
8
Halfen
62
7
10
 847.216
20
-69.397
30
0
0
VERTEX
8
Halfen
62
7
10
 848.567
20
-69.547
30
0
0
VERTEX
8
Halfen
62
7
10
 849.911
20
-69.756
30
0
0
VERTEX
8
Halfen
62
7
10
 851.243
20
-70.024
30
0
0
VERTEX
8
Halfen
62
7
10
 852.563
20
-70.351
30
0
0
VERTEX
8
Halfen
62
7
10
 853.867
20
-70.736
30
0
0
VERTEX
8
Halfen
62
7
10
 855.153
20
-71.178
30
0
0
VERTEX
8
Halfen
62
7
10
 856.418
20
-71.676
30
0
0
VERTEX
8
Halfen
62
7
10
 857.66
20
-72.23
30
0
0
VERTEX
8
Halfen
62
7
10
 858.876
20
-72.838
30
0
0
VERTEX
8
Halfen
62
7
10
 860.064
20
-73.499
30
0
0
VERTEX
8
Halfen
62
7
10
 861.222
20
-74.211
30
0
0
VERTEX
8
Halfen
62
7
10
 862.347
20
-74.975
30
0
0
VERTEX
8
Halfen
62
7
10
 863.437
20
-75.787
30
0
0
VERTEX
8
Halfen
62
7
10
 864.491
20
-76.646
30
0
0
VERTEX
8
Halfen
62
7
10
 865.505
20
-77.551
30
0
0
VERTEX
8
Halfen
62
7
10
 866.479
20
-78.5
30
0
0
VERTEX
8
Halfen
62
7
10
 867.41
20
-79.491
30
0
0
VERTEX
8
Halfen
62
7
10
 868.296
20
-80.522
30
0
0
VERTEX
8
Halfen
62
7
10
 868.397
20
-80.639
30
0
0
VERTEX
8
Halfen
62
7
10
 868.502
20
-80.752
30
0
0
VERTEX
8
Halfen
62
7
10
 868.613
20
-80.86
30
0
0
VERTEX
8
Halfen
62
7
10
 868.728
20
-80.963
30
0
0
VERTEX
8
Halfen
62
7
10
 868.848
20
-81.06
30
0
0
VERTEX
8
Halfen
62
7
10
 868.972
20
-81.153
30
0
0
VERTEX
8
Halfen
62
7
10
 869.1
20
-81.239
30
0
0
VERTEX
8
Halfen
62
7
10
 869.231
20
-81.32
30
0
0
VERTEX
8
Halfen
62
7
10
 869.366
20
-81.395
30
0
0
VERTEX
8
Halfen
62
7
10
 869.505
20
-81.464
30
0
0
VERTEX
8
Halfen
62
7
10
 869.646
20
-81.527
30
0
0
VERTEX
8
Halfen
62
7
10
 869.789
20
-81.584
30
0
0
VERTEX
8
Halfen
62
7
10
 869.936
20
-81.634
30
0
0
VERTEX
8
Halfen
62
7
10
 870.084
20
-81.678
30
0
0
VERTEX
8
Halfen
62
7
10
 870.234
20
-81.715
30
0
0
VERTEX
8
Halfen
62
7
10
 870.385
20
-81.746
30
0
0
VERTEX
8
Halfen
62
7
10
 870.538
20
-81.769
30
0
0
VERTEX
8
Halfen
62
7
10
 870.691
20
-81.786
30
0
0
VERTEX
8
Halfen
62
7
10
 870.846
20
-81.797
30
0
0
VERTEX
8
Halfen
62
7
10
 871
20
-81.8
30
0
0
SEQEND
8
Halfen
0
POLYLINE
8
Halfen
62
7
66
1
10
0.0
20
0.0
30
0.0
70
1
0
VERTEX
8
Halfen
62
7
10
 860
20
-819.914
30
0
0
VERTEX
8
Halfen
62
7
10
 860
20
-98.785
30
0
0
VERTEX
8
Halfen
62
7
10
 859.271
20
-90.449
30
0
0
VERTEX
8
Halfen
62
7
10
 857.105
20
-82.368
30
0
0
VERTEX
8
Halfen
62
7
10
 853.569
20
-74.785
30
0
0
VERTEX
8
Halfen
62
7
10
 761.823
20
 84.124
30
0
0
VERTEX
8
Halfen
62
7
10
 759.171
20
 89.812
30
0
0
VERTEX
8
Halfen
62
7
10
 757.547
20
 95.873
30
0
0
VERTEX
8
Halfen
62
7
10
 757
20
 102.124
30
0
0
VERTEX
8
Halfen
62
7
10
 757
20
 162.254
30
0
0
VERTEX
8
Halfen
62
7
10
 757
20
 823.254
30
0
0
VERTEX
8
Halfen
62
7
10
 745
20
 823.254
30
0
0
VERTEX
8
Halfen
62
7
10
 745
20
 162.254
30
0
0
VERTEX
8
Halfen
62
7
10
 745
20
 102.124
30
0
0
VERTEX
8
Halfen
62
7
10
 745.729
20
 93.789
30
0
0
VERTEX
8
Halfen
62
7
10
 747.895
20
 85.707
30
0
0
VERTEX
8
Halfen
62
7
10
 751.431
20
 78.124
30
0
0
VERTEX
8
Halfen
62
7
10
 843.177
20
-80.785
30
0
0
VERTEX
8
Halfen
62
7
10
 845.829
20
-86.472
30
0
0
VERTEX
8
Halfen
62
7
10
 847.453
20
-92.533
30
0
0
VERTEX
8
Halfen
62
7
10
 848
20
-98.785
30
0
0
VERTEX
8
Halfen
62
7
10
 848
20
-819.914
30
0
0
SEQEND
8
Halfen
0
POLYLINE
8
Halfen
62
7
66
1
10
0.0
20
0.0
30
0.0
70
1
0
VERTEX
8
Halfen
62
7
10
 745
20
-819.914
30
0
0
VERTEX
8
Halfen
62
7
10
 745
20
-98.785
30
0
0
VERTEX
8
Halfen
62
7
10
 745.729
20
-90.449
30
0
0
VERTEX
8
Halfen
62
7
10
 747.895
20
-82.368
30
0
0
VERTEX
8
Halfen
62
7
10
 751.431
20
-74.785
30
0
0
VERTEX
8
Halfen
62
7
10
 843.177
20
 84.124
30
0
0
VERTEX
8
Halfen
62
7
10
 845.829
20
 89.812
30
0
0
VERTEX
8
Halfen
62
7
10
 847.453
20
 95.873
30
0
0
VERTEX
8
Halfen
62
7
10
 848
20
 102.124
30
0
0
VERTEX
8
Halfen
62
7
10
 848
20
 162.254
30
0
0
VERTEX
8
Halfen
62
7
10
 848
20
 823.254
30
0
0
VERTEX
8
Halfen
62
7
10
 860
20
 823.254
30
0
0
VERTEX
8
Halfen
62
7
10
 860
20
 162.254
30
0
0
VERTEX
8
Halfen
62
7
10
 860
20
 102.124
30
0
0
VERTEX
8
Halfen
62
7
10
 859.271
20
 93.789
30
0
0
VERTEX
8
Halfen
62
7
10
 857.105
20
 85.707
30
0
0
VERTEX
8
Halfen
62
7
10
 853.569
20
 78.124
30
0
0
VERTEX
8
Halfen
62
7
10
 761.823
20
-80.785
30
0
0
VERTEX
8
Halfen
62
7
10
 759.171
20
-86.472
30
0
0
VERTEX
8
Halfen
62
7
10
 757.547
20
-92.533
30
0
0
VERTEX
8
Halfen
62
7
10
 757
20
-98.785
30
0
0
VERTEX
8
Halfen
62
7
10
 757
20
-819.914
30
0
0
SEQEND
8
Halfen
0
ENDSEC
0
EOF
