0
SECTION
2
HEADER
9
$EXTMIN
10
 0
20
 100
30
0.0
9
$EXTMAX
10
 0
20
 100
30
0.0
9
$LIMMIN
10
 100
20
 0
9
$LIMMAX
10
 0
20
 100
9
$PSLTSCALE
70
1
0
ENDSEC
0
SECTION
2
TABLES
0
TABLE
2
LAYER
70
2
0
LAYER
2
0
70
0
62
7
6
CONTINUOUS
0
LAYER
2
Halfen
70
0
62
7
6
CONTINUOUS
0
ENDTAB
0
ENDSEC
0
SECTION
2
ENTITIES
0
POLYLINE
8
Halfen
62
7
66
1
10
0.0
20
0.0
30
0.0
70
1
0
VERTEX
8
Halfen
62
7
10
 0
20
-73.5
30
0
0
VERTEX
8
Halfen
62
7
10
 500
20
-73.5
30
0
0
VERTEX
8
Halfen
62
7
10
 500
20
 73.5
30
0
0
VERTEX
8
Halfen
62
7
10
 0
20
 73.5
30
0
0
SEQEND
8
Halfen
0
POLYLINE
8
Halfen
62
7
66
1
10
0.0
20
0.0
30
0.0
70
1
0
VERTEX
8
Halfen
62
7
10
 0
20
-60
30
0
0
VERTEX
8
Halfen
62
7
10
 500
20
-60
30
0
0
VERTEX
8
Halfen
62
7
10
 500
20
 60
30
0
0
VERTEX
8
Halfen
62
7
10
 0
20
 60
30
0
0
SEQEND
8
Halfen
0
POLYLINE
8
Halfen
62
7
66
1
10
0.0
20
0.0
30
0.0
70
1
0
VERTEX
8
Halfen
62
7
10
 20
20
-32.5
30
0
0
VERTEX
8
Halfen
62
7
10
 37
20
-1.5
30
0
0
VERTEX
8
Halfen
62
7
10
 28
20
-1.5
30
0
0
VERTEX
8
Halfen
62
7
10
 28
20
 32.5
30
0
0
VERTEX
8
Halfen
62
7
10
 12
20
 32.5
30
0
0
VERTEX
8
Halfen
62
7
10
 12
20
-1.5
30
0
0
VERTEX
8
Halfen
62
7
10
 3
20
-1.5
30
0
0
SEQEND
8
Halfen
0
POLYLINE
8
Halfen
62
7
66
1
10
0.0
20
0.0
30
0.0
70
1
0
VERTEX
8
Halfen
62
7
10
 480
20
-32.5
30
0
0
VERTEX
8
Halfen
62
7
10
 497
20
-1.5
30
0
0
VERTEX
8
Halfen
62
7
10
 488
20
-1.5
30
0
0
VERTEX
8
Halfen
62
7
10
 488
20
 32.5
30
0
0
VERTEX
8
Halfen
62
7
10
 472
20
 32.5
30
0
0
VERTEX
8
Halfen
62
7
10
 472
20
-1.5
30
0
0
VERTEX
8
Halfen
62
7
10
 463
20
-1.5
30
0
0
SEQEND
8
Halfen
0
POLYLINE
8
Halfen
62
7
66
1
10
0.0
20
0.0
30
0.0
70
1
0
VERTEX
8
Halfen
62
7
10
 68
20
-775
30
0
0
VERTEX
8
Halfen
62
7
10
 68
20
-160
30
0
0
VERTEX
8
Halfen
62
7
10
 56
20
-160
30
0
0
VERTEX
8
Halfen
62
7
10
 56
20
-775
30
0
0
SEQEND
8
Halfen
0
POLYLINE
8
Halfen
62
7
66
1
10
0.0
20
0.0
30
0.0
70
1
0
VERTEX
8
Halfen
62
7
10
 67.25
20
-160
30
0
0
VERTEX
8
Halfen
62
7
10
 67.25
20
-62
30
0
0
VERTEX
8
Halfen
62
7
10
 56.75
20
-62
30
0
0
VERTEX
8
Halfen
62
7
10
 56.75
20
-160
30
0
0
SEQEND
8
Halfen
0
POLYLINE
8
Halfen
62
7
66
1
10
0.0
20
0.0
30
0.0
70
1
0
VERTEX
8
Halfen
62
7
10
 68
20
-62
30
0
0
VERTEX
8
Halfen
62
7
10
 68
20
-60
30
0
0
VERTEX
8
Halfen
62
7
10
 56
20
-60
30
0
0
VERTEX
8
Halfen
62
7
10
 56
20
-62
30
0
0
SEQEND
8
Halfen
0
POLYLINE
8
Halfen
62
7
66
1
10
0.0
20
0.0
30
0.0
70
1
0
VERTEX
8
Halfen
62
7
10
 67.25
20
-60
30
0
0
VERTEX
8
Halfen
62
7
10
 67.25
20
 60
30
0
0
VERTEX
8
Halfen
62
7
10
 56.75
20
 60
30
0
0
VERTEX
8
Halfen
62
7
10
 56.75
20
-60
30
0
0
SEQEND
8
Halfen
0
POLYLINE
8
Halfen
62
7
66
1
10
0.0
20
0.0
30
0.0
70
1
0
VERTEX
8
Halfen
62
7
10
 68
20
 60
30
0
0
VERTEX
8
Halfen
62
7
10
 68
20
 62
30
0
0
VERTEX
8
Halfen
62
7
10
 56
20
 62
30
0
0
VERTEX
8
Halfen
62
7
10
 56
20
 60
30
0
0
SEQEND
8
Halfen
0
POLYLINE
8
Halfen
62
7
66
1
10
0.0
20
0.0
30
0.0
70
1
0
VERTEX
8
Halfen
62
7
10
 67.25
20
 62
30
0
0
VERTEX
8
Halfen
62
7
10
 67.25
20
 160
30
0
0
VERTEX
8
Halfen
62
7
10
 56.75
20
 160
30
0
0
VERTEX
8
Halfen
62
7
10
 56.75
20
 62
30
0
0
SEQEND
8
Halfen
0
POLYLINE
8
Halfen
62
7
66
1
10
0.0
20
0.0
30
0.0
70
1
0
VERTEX
8
Halfen
62
7
10
 68
20
 160
30
0
0
VERTEX
8
Halfen
62
7
10
 68
20
 775
30
0
0
VERTEX
8
Halfen
62
7
10
 56
20
 775
30
0
0
VERTEX
8
Halfen
62
7
10
 56
20
 160
30
0
0
SEQEND
8
Halfen
0
POLYLINE
8
Halfen
62
7
66
1
10
0.0
20
0.0
30
0.0
70
1
0
VERTEX
8
Halfen
62
7
10
 152
20
-775
30
0
0
VERTEX
8
Halfen
62
7
10
 152
20
-160
30
0
0
VERTEX
8
Halfen
62
7
10
 140
20
-160
30
0
0
VERTEX
8
Halfen
62
7
10
 140
20
-775
30
0
0
SEQEND
8
Halfen
0
POLYLINE
8
Halfen
62
7
66
1
10
0.0
20
0.0
30
0.0
70
1
0
VERTEX
8
Halfen
62
7
10
 151.25
20
-160
30
0
0
VERTEX
8
Halfen
62
7
10
 151.25
20
-62
30
0
0
VERTEX
8
Halfen
62
7
10
 140.75
20
-62
30
0
0
VERTEX
8
Halfen
62
7
10
 140.75
20
-160
30
0
0
SEQEND
8
Halfen
0
POLYLINE
8
Halfen
62
7
66
1
10
0.0
20
0.0
30
0.0
70
1
0
VERTEX
8
Halfen
62
7
10
 152
20
-62
30
0
0
VERTEX
8
Halfen
62
7
10
 152
20
-60
30
0
0
VERTEX
8
Halfen
62
7
10
 140
20
-60
30
0
0
VERTEX
8
Halfen
62
7
10
 140
20
-62
30
0
0
SEQEND
8
Halfen
0
POLYLINE
8
Halfen
62
7
66
1
10
0.0
20
0.0
30
0.0
70
1
0
VERTEX
8
Halfen
62
7
10
 151.25
20
-60
30
0
0
VERTEX
8
Halfen
62
7
10
 151.25
20
 60
30
0
0
VERTEX
8
Halfen
62
7
10
 140.75
20
 60
30
0
0
VERTEX
8
Halfen
62
7
10
 140.75
20
-60
30
0
0
SEQEND
8
Halfen
0
POLYLINE
8
Halfen
62
7
66
1
10
0.0
20
0.0
30
0.0
70
1
0
VERTEX
8
Halfen
62
7
10
 152
20
 60
30
0
0
VERTEX
8
Halfen
62
7
10
 152
20
 62
30
0
0
VERTEX
8
Halfen
62
7
10
 140
20
 62
30
0
0
VERTEX
8
Halfen
62
7
10
 140
20
 60
30
0
0
SEQEND
8
Halfen
0
POLYLINE
8
Halfen
62
7
66
1
10
0.0
20
0.0
30
0.0
70
1
0
VERTEX
8
Halfen
62
7
10
 151.25
20
 62
30
0
0
VERTEX
8
Halfen
62
7
10
 151.25
20
 160
30
0
0
VERTEX
8
Halfen
62
7
10
 140.75
20
 160
30
0
0
VERTEX
8
Halfen
62
7
10
 140.75
20
 62
30
0
0
SEQEND
8
Halfen
0
POLYLINE
8
Halfen
62
7
66
1
10
0.0
20
0.0
30
0.0
70
1
0
VERTEX
8
Halfen
62
7
10
 152
20
 160
30
0
0
VERTEX
8
Halfen
62
7
10
 152
20
 775
30
0
0
VERTEX
8
Halfen
62
7
10
 140
20
 775
30
0
0
VERTEX
8
Halfen
62
7
10
 140
20
 160
30
0
0
SEQEND
8
Halfen
0
POLYLINE
8
Halfen
62
7
66
1
10
0.0
20
0.0
30
0.0
70
1
0
VERTEX
8
Halfen
62
7
10
 284
20
-775
30
0
0
VERTEX
8
Halfen
62
7
10
 284
20
-160
30
0
0
VERTEX
8
Halfen
62
7
10
 272
20
-160
30
0
0
VERTEX
8
Halfen
62
7
10
 272
20
-775
30
0
0
SEQEND
8
Halfen
0
POLYLINE
8
Halfen
62
7
66
1
10
0.0
20
0.0
30
0.0
70
1
0
VERTEX
8
Halfen
62
7
10
 283.25
20
-160
30
0
0
VERTEX
8
Halfen
62
7
10
 283.25
20
-62
30
0
0
VERTEX
8
Halfen
62
7
10
 272.75
20
-62
30
0
0
VERTEX
8
Halfen
62
7
10
 272.75
20
-160
30
0
0
SEQEND
8
Halfen
0
POLYLINE
8
Halfen
62
7
66
1
10
0.0
20
0.0
30
0.0
70
1
0
VERTEX
8
Halfen
62
7
10
 284
20
-62
30
0
0
VERTEX
8
Halfen
62
7
10
 284
20
-60
30
0
0
VERTEX
8
Halfen
62
7
10
 272
20
-60
30
0
0
VERTEX
8
Halfen
62
7
10
 272
20
-62
30
0
0
SEQEND
8
Halfen
0
POLYLINE
8
Halfen
62
7
66
1
10
0.0
20
0.0
30
0.0
70
1
0
VERTEX
8
Halfen
62
7
10
 283.25
20
-60
30
0
0
VERTEX
8
Halfen
62
7
10
 283.25
20
 60
30
0
0
VERTEX
8
Halfen
62
7
10
 272.75
20
 60
30
0
0
VERTEX
8
Halfen
62
7
10
 272.75
20
-60
30
0
0
SEQEND
8
Halfen
0
POLYLINE
8
Halfen
62
7
66
1
10
0.0
20
0.0
30
0.0
70
1
0
VERTEX
8
Halfen
62
7
10
 284
20
 60
30
0
0
VERTEX
8
Halfen
62
7
10
 284
20
 62
30
0
0
VERTEX
8
Halfen
62
7
10
 272
20
 62
30
0
0
VERTEX
8
Halfen
62
7
10
 272
20
 60
30
0
0
SEQEND
8
Halfen
0
POLYLINE
8
Halfen
62
7
66
1
10
0.0
20
0.0
30
0.0
70
1
0
VERTEX
8
Halfen
62
7
10
 283.25
20
 62
30
0
0
VERTEX
8
Halfen
62
7
10
 283.25
20
 160
30
0
0
VERTEX
8
Halfen
62
7
10
 272.75
20
 160
30
0
0
VERTEX
8
Halfen
62
7
10
 272.75
20
 62
30
0
0
SEQEND
8
Halfen
0
POLYLINE
8
Halfen
62
7
66
1
10
0.0
20
0.0
30
0.0
70
1
0
VERTEX
8
Halfen
62
7
10
 284
20
 160
30
0
0
VERTEX
8
Halfen
62
7
10
 284
20
 775
30
0
0
VERTEX
8
Halfen
62
7
10
 272
20
 775
30
0
0
VERTEX
8
Halfen
62
7
10
 272
20
 160
30
0
0
SEQEND
8
Halfen
0
POLYLINE
8
Halfen
62
7
66
1
10
0.0
20
0.0
30
0.0
70
1
0
VERTEX
8
Halfen
62
7
10
 332
20
-775
30
0
0
VERTEX
8
Halfen
62
7
10
 332
20
-160
30
0
0
VERTEX
8
Halfen
62
7
10
 320
20
-160
30
0
0
VERTEX
8
Halfen
62
7
10
 320
20
-775
30
0
0
SEQEND
8
Halfen
0
POLYLINE
8
Halfen
62
7
66
1
10
0.0
20
0.0
30
0.0
70
1
0
VERTEX
8
Halfen
62
7
10
 331.25
20
-160
30
0
0
VERTEX
8
Halfen
62
7
10
 331.25
20
-62
30
0
0
VERTEX
8
Halfen
62
7
10
 320.75
20
-62
30
0
0
VERTEX
8
Halfen
62
7
10
 320.75
20
-160
30
0
0
SEQEND
8
Halfen
0
POLYLINE
8
Halfen
62
7
66
1
10
0.0
20
0.0
30
0.0
70
1
0
VERTEX
8
Halfen
62
7
10
 332
20
-62
30
0
0
VERTEX
8
Halfen
62
7
10
 332
20
-60
30
0
0
VERTEX
8
Halfen
62
7
10
 320
20
-60
30
0
0
VERTEX
8
Halfen
62
7
10
 320
20
-62
30
0
0
SEQEND
8
Halfen
0
POLYLINE
8
Halfen
62
7
66
1
10
0.0
20
0.0
30
0.0
70
1
0
VERTEX
8
Halfen
62
7
10
 331.25
20
-60
30
0
0
VERTEX
8
Halfen
62
7
10
 331.25
20
 60
30
0
0
VERTEX
8
Halfen
62
7
10
 320.75
20
 60
30
0
0
VERTEX
8
Halfen
62
7
10
 320.75
20
-60
30
0
0
SEQEND
8
Halfen
0
POLYLINE
8
Halfen
62
7
66
1
10
0.0
20
0.0
30
0.0
70
1
0
VERTEX
8
Halfen
62
7
10
 332
20
 60
30
0
0
VERTEX
8
Halfen
62
7
10
 332
20
 62
30
0
0
VERTEX
8
Halfen
62
7
10
 320
20
 62
30
0
0
VERTEX
8
Halfen
62
7
10
 320
20
 60
30
0
0
SEQEND
8
Halfen
0
POLYLINE
8
Halfen
62
7
66
1
10
0.0
20
0.0
30
0.0
70
1
0
VERTEX
8
Halfen
62
7
10
 331.25
20
 62
30
0
0
VERTEX
8
Halfen
62
7
10
 331.25
20
 160
30
0
0
VERTEX
8
Halfen
62
7
10
 320.75
20
 160
30
0
0
VERTEX
8
Halfen
62
7
10
 320.75
20
 62
30
0
0
SEQEND
8
Halfen
0
POLYLINE
8
Halfen
62
7
66
1
10
0.0
20
0.0
30
0.0
70
1
0
VERTEX
8
Halfen
62
7
10
 332
20
 160
30
0
0
VERTEX
8
Halfen
62
7
10
 332
20
 775
30
0
0
VERTEX
8
Halfen
62
7
10
 320
20
 775
30
0
0
VERTEX
8
Halfen
62
7
10
 320
20
 160
30
0
0
SEQEND
8
Halfen
0
POLYLINE
8
Halfen
62
7
66
1
10
0.0
20
0.0
30
0.0
70
1
0
VERTEX
8
Halfen
62
7
10
 416
20
-775
30
0
0
VERTEX
8
Halfen
62
7
10
 416
20
-160
30
0
0
VERTEX
8
Halfen
62
7
10
 404
20
-160
30
0
0
VERTEX
8
Halfen
62
7
10
 404
20
-775
30
0
0
SEQEND
8
Halfen
0
POLYLINE
8
Halfen
62
7
66
1
10
0.0
20
0.0
30
0.0
70
1
0
VERTEX
8
Halfen
62
7
10
 415.25
20
-160
30
0
0
VERTEX
8
Halfen
62
7
10
 415.25
20
-62
30
0
0
VERTEX
8
Halfen
62
7
10
 404.75
20
-62
30
0
0
VERTEX
8
Halfen
62
7
10
 404.75
20
-160
30
0
0
SEQEND
8
Halfen
0
POLYLINE
8
Halfen
62
7
66
1
10
0.0
20
0.0
30
0.0
70
1
0
VERTEX
8
Halfen
62
7
10
 416
20
-62
30
0
0
VERTEX
8
Halfen
62
7
10
 416
20
-60
30
0
0
VERTEX
8
Halfen
62
7
10
 404
20
-60
30
0
0
VERTEX
8
Halfen
62
7
10
 404
20
-62
30
0
0
SEQEND
8
Halfen
0
POLYLINE
8
Halfen
62
7
66
1
10
0.0
20
0.0
30
0.0
70
1
0
VERTEX
8
Halfen
62
7
10
 415.25
20
-60
30
0
0
VERTEX
8
Halfen
62
7
10
 415.25
20
 60
30
0
0
VERTEX
8
Halfen
62
7
10
 404.75
20
 60
30
0
0
VERTEX
8
Halfen
62
7
10
 404.75
20
-60
30
0
0
SEQEND
8
Halfen
0
POLYLINE
8
Halfen
62
7
66
1
10
0.0
20
0.0
30
0.0
70
1
0
VERTEX
8
Halfen
62
7
10
 416
20
 60
30
0
0
VERTEX
8
Halfen
62
7
10
 416
20
 62
30
0
0
VERTEX
8
Halfen
62
7
10
 404
20
 62
30
0
0
VERTEX
8
Halfen
62
7
10
 404
20
 60
30
0
0
SEQEND
8
Halfen
0
POLYLINE
8
Halfen
62
7
66
1
10
0.0
20
0.0
30
0.0
70
1
0
VERTEX
8
Halfen
62
7
10
 415.25
20
 62
30
0
0
VERTEX
8
Halfen
62
7
10
 415.25
20
 160
30
0
0
VERTEX
8
Halfen
62
7
10
 404.75
20
 160
30
0
0
VERTEX
8
Halfen
62
7
10
 404.75
20
 62
30
0
0
SEQEND
8
Halfen
0
POLYLINE
8
Halfen
62
7
66
1
10
0.0
20
0.0
30
0.0
70
1
0
VERTEX
8
Halfen
62
7
10
 416
20
 160
30
0
0
VERTEX
8
Halfen
62
7
10
 416
20
 775
30
0
0
VERTEX
8
Halfen
62
7
10
 404
20
 775
30
0
0
VERTEX
8
Halfen
62
7
10
 404
20
 160
30
0
0
SEQEND
8
Halfen
0
POLYLINE
8
Halfen
62
7
66
1
10
0.0
20
0.0
30
0.0
70
1
0
VERTEX
8
Halfen
62
7
10
 98
20
-577.739
30
0
0
VERTEX
8
Halfen
62
7
10
 98
20
 589.296
30
0
0
VERTEX
8
Halfen
62
7
10
 90
20
 589.296
30
0
0
VERTEX
8
Halfen
62
7
10
 90
20
-577.739
30
0
0
SEQEND
8
Halfen
0
POLYLINE
8
Halfen
62
7
66
1
10
0.0
20
0.0
30
0.0
70
1
0
VERTEX
8
Halfen
62
7
10
 106
20
-589.296
30
0
0
VERTEX
8
Halfen
62
7
10
 106
20
 577.739
30
0
0
VERTEX
8
Halfen
62
7
10
 98
20
 577.739
30
0
0
VERTEX
8
Halfen
62
7
10
 98
20
-589.296
30
0
0
SEQEND
8
Halfen
0
POLYLINE
8
Halfen
62
7
66
1
10
0.0
20
0.0
30
0.0
70
1
0
VERTEX
8
Halfen
62
7
10
 230
20
-577.739
30
0
0
VERTEX
8
Halfen
62
7
10
 230
20
 589.296
30
0
0
VERTEX
8
Halfen
62
7
10
 222
20
 589.296
30
0
0
VERTEX
8
Halfen
62
7
10
 222
20
-577.739
30
0
0
SEQEND
8
Halfen
0
POLYLINE
8
Halfen
62
7
66
1
10
0.0
20
0.0
30
0.0
70
1
0
VERTEX
8
Halfen
62
7
10
 238
20
-589.296
30
0
0
VERTEX
8
Halfen
62
7
10
 238
20
 577.739
30
0
0
VERTEX
8
Halfen
62
7
10
 230
20
 577.739
30
0
0
VERTEX
8
Halfen
62
7
10
 230
20
-589.296
30
0
0
SEQEND
8
Halfen
0
POLYLINE
8
Halfen
62
7
66
1
10
0.0
20
0.0
30
0.0
70
1
0
VERTEX
8
Halfen
62
7
10
 362
20
-577.739
30
0
0
VERTEX
8
Halfen
62
7
10
 362
20
 589.296
30
0
0
VERTEX
8
Halfen
62
7
10
 354
20
 589.296
30
0
0
VERTEX
8
Halfen
62
7
10
 354
20
-577.739
30
0
0
SEQEND
8
Halfen
0
POLYLINE
8
Halfen
62
7
66
1
10
0.0
20
0.0
30
0.0
70
1
0
VERTEX
8
Halfen
62
7
10
 370
20
-589.296
30
0
0
VERTEX
8
Halfen
62
7
10
 370
20
 577.739
30
0
0
VERTEX
8
Halfen
62
7
10
 362
20
 577.739
30
0
0
VERTEX
8
Halfen
62
7
10
 362
20
-589.296
30
0
0
SEQEND
8
Halfen
0
POLYLINE
8
Halfen
62
7
66
1
10
0.0
20
0.0
30
0.0
70
1
0
VERTEX
8
Halfen
62
7
10
 950
20
-60
30
0
0
VERTEX
8
Halfen
62
7
10
 950
20
 60
30
0
0
VERTEX
8
Halfen
62
7
10
 936.5
20
 73.5
30
0
0
VERTEX
8
Halfen
62
7
10
 936.5
20
 60
30
0
0
VERTEX
8
Halfen
62
7
10
 770
20
 60
30
0
0
VERTEX
8
Halfen
62
7
10
 770
20
-60
30
0
0
VERTEX
8
Halfen
62
7
10
 936.5
20
-60
30
0
0
VERTEX
8
Halfen
62
7
10
 936.5
20
-73.5
30
0
0
SEQEND
8
Halfen
0
POLYLINE
8
Halfen
62
7
66
1
10
0.0
20
0.0
30
0.0
70
1
0
VERTEX
8
Halfen
62
7
10
 770
20
-60
30
0
0
VERTEX
8
Halfen
62
7
10
 770
20
 60
30
0
0
VERTEX
8
Halfen
62
7
10
 713.5
20
 60
30
0
0
VERTEX
8
Halfen
62
7
10
 713.5
20
 73.5
30
0
0
VERTEX
8
Halfen
62
7
10
 700
20
 60
30
0
0
VERTEX
8
Halfen
62
7
10
 700
20
-60
30
0
0
VERTEX
8
Halfen
62
7
10
 713.5
20
-73.5
30
0
0
VERTEX
8
Halfen
62
7
10
 713.5
20
-60
30
0
0
SEQEND
8
Halfen
0
POLYLINE
8
Halfen
62
7
66
1
10
0.0
20
0.0
30
0.0
70
1
0
VERTEX
8
Halfen
62
7
10
 947.5
20
-58.75
30
0
0
VERTEX
8
Halfen
62
7
10
 947.5
20
 58.75
30
0
0
VERTEX
8
Halfen
62
7
10
 939
20
 67.25
30
0
0
VERTEX
8
Halfen
62
7
10
 939
20
 58
30
0
0
VERTEX
8
Halfen
62
7
10
 772
20
 58
30
0
0
VERTEX
8
Halfen
62
7
10
 772
20
-58
30
0
0
VERTEX
8
Halfen
62
7
10
 939
20
-58
30
0
0
VERTEX
8
Halfen
62
7
10
 939
20
-67.25
30
0
0
SEQEND
8
Halfen
0
POLYLINE
8
Halfen
62
7
66
1
10
0.0
20
0.0
30
0.0
70
1
0
VERTEX
8
Halfen
62
7
10
 768
20
-58
30
0
0
VERTEX
8
Halfen
62
7
10
 768
20
 58
30
0
0
VERTEX
8
Halfen
62
7
10
 711
20
 58
30
0
0
VERTEX
8
Halfen
62
7
10
 711
20
 67.25
30
0
0
VERTEX
8
Halfen
62
7
10
 702.5
20
 58.75
30
0
0
VERTEX
8
Halfen
62
7
10
 702.5
20
-58.75
30
0
0
VERTEX
8
Halfen
62
7
10
 711
20
-67.25
30
0
0
VERTEX
8
Halfen
62
7
10
 711
20
-58
30
0
0
SEQEND
8
Halfen
0
POLYLINE
8
Halfen
62
7
66
1
10
0.0
20
0.0
30
0.0
70
1
0
VERTEX
8
Halfen
62
7
10
 762
20
-775
30
0
0
VERTEX
8
Halfen
62
7
10
 762
20
-160
30
0
0
VERTEX
8
Halfen
62
7
10
 750
20
-160
30
0
0
VERTEX
8
Halfen
62
7
10
 750
20
-775
30
0
0
SEQEND
8
Halfen
0
POLYLINE
8
Halfen
62
7
66
1
10
0.0
20
0.0
30
0.0
70
1
0
VERTEX
8
Halfen
62
7
10
 761.25
20
-160
30
0
0
VERTEX
8
Halfen
62
7
10
 761.25
20
-62
30
0
0
VERTEX
8
Halfen
62
7
10
 750.75
20
-62
30
0
0
VERTEX
8
Halfen
62
7
10
 750.75
20
-160
30
0
0
SEQEND
8
Halfen
0
POLYLINE
8
Halfen
62
7
66
1
10
0.0
20
0.0
30
0.0
70
1
0
VERTEX
8
Halfen
62
7
10
 762
20
-62
30
0
0
VERTEX
8
Halfen
62
7
10
 762
20
-60
30
0
0
VERTEX
8
Halfen
62
7
10
 750
20
-60
30
0
0
VERTEX
8
Halfen
62
7
10
 750
20
-62
30
0
0
SEQEND
8
Halfen
0
POLYLINE
8
Halfen
62
7
66
1
10
0.0
20
0.0
30
0.0
70
1
0
VERTEX
8
Halfen
62
7
10
 761.25
20
-60
30
0
0
VERTEX
8
Halfen
62
7
10
 761.25
20
 60
30
0
0
VERTEX
8
Halfen
62
7
10
 750.75
20
 60
30
0
0
VERTEX
8
Halfen
62
7
10
 750.75
20
-60
30
0
0
SEQEND
8
Halfen
0
POLYLINE
8
Halfen
62
7
66
1
10
0.0
20
0.0
30
0.0
70
1
0
VERTEX
8
Halfen
62
7
10
 762
20
 60
30
0
0
VERTEX
8
Halfen
62
7
10
 762
20
 62
30
0
0
VERTEX
8
Halfen
62
7
10
 750
20
 62
30
0
0
VERTEX
8
Halfen
62
7
10
 750
20
 60
30
0
0
SEQEND
8
Halfen
0
POLYLINE
8
Halfen
62
7
66
1
10
0.0
20
0.0
30
0.0
70
1
0
VERTEX
8
Halfen
62
7
10
 761.25
20
 62
30
0
0
VERTEX
8
Halfen
62
7
10
 761.25
20
 160
30
0
0
VERTEX
8
Halfen
62
7
10
 750.75
20
 160
30
0
0
VERTEX
8
Halfen
62
7
10
 750.75
20
 62
30
0
0
SEQEND
8
Halfen
0
POLYLINE
8
Halfen
62
7
66
1
10
0.0
20
0.0
30
0.0
70
1
0
VERTEX
8
Halfen
62
7
10
 762
20
 160
30
0
0
VERTEX
8
Halfen
62
7
10
 762
20
 775
30
0
0
VERTEX
8
Halfen
62
7
10
 750
20
 775
30
0
0
VERTEX
8
Halfen
62
7
10
 750
20
 160
30
0
0
SEQEND
8
Halfen
0
POLYLINE
8
Halfen
62
7
66
1
10
0.0
20
0.0
30
0.0
70
1
0
VERTEX
8
Halfen
62
7
10
 920
20
-775
30
0
0
VERTEX
8
Halfen
62
7
10
 920
20
-160
30
0
0
VERTEX
8
Halfen
62
7
10
 908
20
-160
30
0
0
VERTEX
8
Halfen
62
7
10
 908
20
-775
30
0
0
SEQEND
8
Halfen
0
POLYLINE
8
Halfen
62
7
66
1
10
0.0
20
0.0
30
0.0
70
1
0
VERTEX
8
Halfen
62
7
10
 919.25
20
-160
30
0
0
VERTEX
8
Halfen
62
7
10
 919.25
20
-62
30
0
0
VERTEX
8
Halfen
62
7
10
 908.75
20
-62
30
0
0
VERTEX
8
Halfen
62
7
10
 908.75
20
-160
30
0
0
SEQEND
8
Halfen
0
POLYLINE
8
Halfen
62
7
66
1
10
0.0
20
0.0
30
0.0
70
1
0
VERTEX
8
Halfen
62
7
10
 920
20
-62
30
0
0
VERTEX
8
Halfen
62
7
10
 920
20
-60
30
0
0
VERTEX
8
Halfen
62
7
10
 908
20
-60
30
0
0
VERTEX
8
Halfen
62
7
10
 908
20
-62
30
0
0
SEQEND
8
Halfen
0
POLYLINE
8
Halfen
62
7
66
1
10
0.0
20
0.0
30
0.0
70
1
0
VERTEX
8
Halfen
62
7
10
 919.25
20
-60
30
0
0
VERTEX
8
Halfen
62
7
10
 919.25
20
 60
30
0
0
VERTEX
8
Halfen
62
7
10
 908.75
20
 60
30
0
0
VERTEX
8
Halfen
62
7
10
 908.75
20
-60
30
0
0
SEQEND
8
Halfen
0
POLYLINE
8
Halfen
62
7
66
1
10
0.0
20
0.0
30
0.0
70
1
0
VERTEX
8
Halfen
62
7
10
 920
20
 60
30
0
0
VERTEX
8
Halfen
62
7
10
 920
20
 62
30
0
0
VERTEX
8
Halfen
62
7
10
 908
20
 62
30
0
0
VERTEX
8
Halfen
62
7
10
 908
20
 60
30
0
0
SEQEND
8
Halfen
0
POLYLINE
8
Halfen
62
7
66
1
10
0.0
20
0.0
30
0.0
70
1
0
VERTEX
8
Halfen
62
7
10
 919.25
20
 62
30
0
0
VERTEX
8
Halfen
62
7
10
 919.25
20
 160
30
0
0
VERTEX
8
Halfen
62
7
10
 908.75
20
 160
30
0
0
VERTEX
8
Halfen
62
7
10
 908.75
20
 62
30
0
0
SEQEND
8
Halfen
0
POLYLINE
8
Halfen
62
7
66
1
10
0.0
20
0.0
30
0.0
70
1
0
VERTEX
8
Halfen
62
7
10
 920
20
 160
30
0
0
VERTEX
8
Halfen
62
7
10
 920
20
 775
30
0
0
VERTEX
8
Halfen
62
7
10
 908
20
 775
30
0
0
VERTEX
8
Halfen
62
7
10
 908
20
 160
30
0
0
SEQEND
8
Halfen
0
POLYLINE
8
Halfen
62
7
66
1
10
0.0
20
0.0
30
0.0
70
1
0
VERTEX
8
Halfen
62
7
10
 920
20
-577.739
30
0
0
VERTEX
8
Halfen
62
7
10
 920
20
-89.739
30
0
0
VERTEX
8
Halfen
62
7
10
 919.573
20
-84.526
30
0
0
VERTEX
8
Halfen
62
7
10
 918.302
20
-79.453
30
0
0
VERTEX
8
Halfen
62
7
10
 916.221
20
-74.654
30
0
0
VERTEX
8
Halfen
62
7
10
 913.387
20
-70.259
30
0
0
VERTEX
8
Halfen
62
7
10
 792.96
20
 86.686
30
0
0
VERTEX
8
Halfen
62
7
10
 790.834
20
 89.983
30
0
0
VERTEX
8
Halfen
62
7
10
 789.274
20
 93.582
30
0
0
VERTEX
8
Halfen
62
7
10
 788.321
20
 97.387
30
0
0
VERTEX
8
Halfen
62
7
10
 788
20
 101.296
30
0
0
VERTEX
8
Halfen
62
7
10
 788
20
 589.296
30
0
0
VERTEX
8
Halfen
62
7
10
 780
20
 589.296
30
0
0
VERTEX
8
Halfen
62
7
10
 780
20
 101.296
30
0
0
VERTEX
8
Halfen
62
7
10
 780.427
20
 96.084
30
0
0
VERTEX
8
Halfen
62
7
10
 781.698
20
 91.01
30
0
0
VERTEX
8
Halfen
62
7
10
 783.779
20
 86.212
30
0
0
VERTEX
8
Halfen
62
7
10
 786.613
20
 81.816
30
0
0
VERTEX
8
Halfen
62
7
10
 907.04
20
-75.129
30
0
0
VERTEX
8
Halfen
62
7
10
 909.166
20
-78.425
30
0
0
VERTEX
8
Halfen
62
7
10
 910.726
20
-82.024
30
0
0
VERTEX
8
Halfen
62
7
10
 911.679
20
-85.829
30
0
0
VERTEX
8
Halfen
62
7
10
 912
20
-89.739
30
0
0
VERTEX
8
Halfen
62
7
10
 912
20
-577.739
30
0
0
SEQEND
8
Halfen
0
POLYLINE
8
Halfen
62
7
66
1
10
0.0
20
0.0
30
0.0
70
1
0
VERTEX
8
Halfen
62
7
10
 780
20
-589.296
30
0
0
VERTEX
8
Halfen
62
7
10
 780
20
-101.296
30
0
0
VERTEX
8
Halfen
62
7
10
 780.427
20
-96.084
30
0
0
VERTEX
8
Halfen
62
7
10
 781.698
20
-91.01
30
0
0
VERTEX
8
Halfen
62
7
10
 783.779
20
-86.211
30
0
0
VERTEX
8
Halfen
62
7
10
 786.613
20
-81.816
30
0
0
VERTEX
8
Halfen
62
7
10
 907.04
20
 75.129
30
0
0
VERTEX
8
Halfen
62
7
10
 909.166
20
 78.425
30
0
0
VERTEX
8
Halfen
62
7
10
 910.726
20
 82.024
30
0
0
VERTEX
8
Halfen
62
7
10
 911.679
20
 85.83
30
0
0
VERTEX
8
Halfen
62
7
10
 912
20
 89.739
30
0
0
VERTEX
8
Halfen
62
7
10
 912
20
 577.739
30
0
0
VERTEX
8
Halfen
62
7
10
 920
20
 577.739
30
0
0
VERTEX
8
Halfen
62
7
10
 920
20
 89.739
30
0
0
VERTEX
8
Halfen
62
7
10
 919.573
20
 84.526
30
0
0
VERTEX
8
Halfen
62
7
10
 918.302
20
 79.453
30
0
0
VERTEX
8
Halfen
62
7
10
 916.221
20
 74.654
30
0
0
VERTEX
8
Halfen
62
7
10
 913.387
20
 70.259
30
0
0
VERTEX
8
Halfen
62
7
10
 792.96
20
-86.686
30
0
0
VERTEX
8
Halfen
62
7
10
 790.834
20
-89.983
30
0
0
VERTEX
8
Halfen
62
7
10
 789.274
20
-93.582
30
0
0
VERTEX
8
Halfen
62
7
10
 788.321
20
-97.387
30
0
0
VERTEX
8
Halfen
62
7
10
 788
20
-101.296
30
0
0
VERTEX
8
Halfen
62
7
10
 788
20
-589.296
30
0
0
SEQEND
8
Halfen
0
ENDSEC
0
EOF
