0
SECTION
2
HEADER
9
$EXTMIN
10
 0
20
 100
30
0.0
9
$EXTMAX
10
 0
20
 100
30
0.0
9
$LIMMIN
10
 100
20
 0
9
$LIMMAX
10
 0
20
 100
9
$PSLTSCALE
70
1
0
ENDSEC
0
SECTION
2
TABLES
0
TABLE
2
LAYER
70
2
0
LAYER
2
0
70
0
62
7
6
CONTINUOUS
0
LAYER
2
Halfen
70
0
62
7
6
CONTINUOUS
0
ENDTAB
0
ENDSEC
0
SECTION
2
ENTITIES
0
POLYLINE
8
Halfen
62
7
66
1
10
0.0
20
0.0
30
0.0
70
1
0
VERTEX
8
Halfen
62
7
10
 0
20
-73.5
30
0
0
VERTEX
8
Halfen
62
7
10
 500
20
-73.5
30
0
0
VERTEX
8
Halfen
62
7
10
 500
20
 73.5
30
0
0
VERTEX
8
Halfen
62
7
10
 0
20
 73.5
30
0
0
SEQEND
8
Halfen
0
POLYLINE
8
Halfen
62
7
66
1
10
0.0
20
0.0
30
0.0
70
1
0
VERTEX
8
Halfen
62
7
10
 0
20
-60
30
0
0
VERTEX
8
Halfen
62
7
10
 500
20
-60
30
0
0
VERTEX
8
Halfen
62
7
10
 500
20
 60
30
0
0
VERTEX
8
Halfen
62
7
10
 0
20
 60
30
0
0
SEQEND
8
Halfen
0
POLYLINE
8
Halfen
62
7
66
1
10
0.0
20
0.0
30
0.0
70
1
0
VERTEX
8
Halfen
62
7
10
 20
20
-32.5
30
0
0
VERTEX
8
Halfen
62
7
10
 37
20
-1.5
30
0
0
VERTEX
8
Halfen
62
7
10
 28
20
-1.5
30
0
0
VERTEX
8
Halfen
62
7
10
 28
20
 32.5
30
0
0
VERTEX
8
Halfen
62
7
10
 12
20
 32.5
30
0
0
VERTEX
8
Halfen
62
7
10
 12
20
-1.5
30
0
0
VERTEX
8
Halfen
62
7
10
 3
20
-1.5
30
0
0
SEQEND
8
Halfen
0
POLYLINE
8
Halfen
62
7
66
1
10
0.0
20
0.0
30
0.0
70
1
0
VERTEX
8
Halfen
62
7
10
 480
20
-32.5
30
0
0
VERTEX
8
Halfen
62
7
10
 497
20
-1.5
30
0
0
VERTEX
8
Halfen
62
7
10
 488
20
-1.5
30
0
0
VERTEX
8
Halfen
62
7
10
 488
20
 32.5
30
0
0
VERTEX
8
Halfen
62
7
10
 472
20
 32.5
30
0
0
VERTEX
8
Halfen
62
7
10
 472
20
-1.5
30
0
0
VERTEX
8
Halfen
62
7
10
 463
20
-1.5
30
0
0
SEQEND
8
Halfen
0
POLYLINE
8
Halfen
62
7
66
1
10
0.0
20
0.0
30
0.0
70
1
0
VERTEX
8
Halfen
62
7
10
 140
20
-69.3
30
0
0
VERTEX
8
Halfen
62
7
10
 140
20
-56.8
30
0
0
VERTEX
8
Halfen
62
7
10
 140
20
 69.3
30
0
0
VERTEX
8
Halfen
62
7
10
 139.958
20
 70.359
30
0
0
VERTEX
8
Halfen
62
7
10
 139.834
20
 71.412
30
0
0
VERTEX
8
Halfen
62
7
10
 139.627
20
 72.452
30
0
0
VERTEX
8
Halfen
62
7
10
 139.339
20
 73.472
30
0
0
VERTEX
8
Halfen
62
7
10
 138.972
20
 74.466
30
0
0
VERTEX
8
Halfen
62
7
10
 138.529
20
 75.429
30
0
0
VERTEX
8
Halfen
62
7
10
 138.011
20
 76.354
30
0
0
VERTEX
8
Halfen
62
7
10
 137.422
20
 77.235
30
0
0
VERTEX
8
Halfen
62
7
10
 136.765
20
 78.068
30
0
0
VERTEX
8
Halfen
62
7
10
 136.046
20
 78.846
30
0
0
VERTEX
8
Halfen
62
7
10
 135.268
20
 79.565
30
0
0
VERTEX
8
Halfen
62
7
10
 134.435
20
 80.222
30
0
0
VERTEX
8
Halfen
62
7
10
 133.554
20
 80.811
30
0
0
VERTEX
8
Halfen
62
7
10
 132.629
20
 81.329
30
0
0
VERTEX
8
Halfen
62
7
10
 131.666
20
 81.772
30
0
0
VERTEX
8
Halfen
62
7
10
 130.672
20
 82.139
30
0
0
VERTEX
8
Halfen
62
7
10
 129.652
20
 82.427
30
0
0
VERTEX
8
Halfen
62
7
10
 128.612
20
 82.634
30
0
0
VERTEX
8
Halfen
62
7
10
 127.559
20
 82.758
30
0
0
VERTEX
8
Halfen
62
7
10
 126.5
20
 82.8
30
0
0
VERTEX
8
Halfen
62
7
10
 123.5
20
 82.8
30
0
0
VERTEX
8
Halfen
62
7
10
 122.441
20
 82.758
30
0
0
VERTEX
8
Halfen
62
7
10
 121.388
20
 82.634
30
0
0
VERTEX
8
Halfen
62
7
10
 120.348
20
 82.427
30
0
0
VERTEX
8
Halfen
62
7
10
 119.328
20
 82.139
30
0
0
VERTEX
8
Halfen
62
7
10
 118.334
20
 81.772
30
0
0
VERTEX
8
Halfen
62
7
10
 117.371
20
 81.329
30
0
0
VERTEX
8
Halfen
62
7
10
 116.446
20
 80.811
30
0
0
VERTEX
8
Halfen
62
7
10
 115.565
20
 80.222
30
0
0
VERTEX
8
Halfen
62
7
10
 114.732
20
 79.565
30
0
0
VERTEX
8
Halfen
62
7
10
 113.954
20
 78.846
30
0
0
VERTEX
8
Halfen
62
7
10
 113.235
20
 78.068
30
0
0
VERTEX
8
Halfen
62
7
10
 112.578
20
 77.235
30
0
0
VERTEX
8
Halfen
62
7
10
 111.989
20
 76.354
30
0
0
VERTEX
8
Halfen
62
7
10
 111.471
20
 75.429
30
0
0
VERTEX
8
Halfen
62
7
10
 111.028
20
 74.466
30
0
0
VERTEX
8
Halfen
62
7
10
 110.661
20
 73.472
30
0
0
VERTEX
8
Halfen
62
7
10
 110.373
20
 72.452
30
0
0
VERTEX
8
Halfen
62
7
10
 110.166
20
 71.412
30
0
0
VERTEX
8
Halfen
62
7
10
 110.042
20
 70.359
30
0
0
VERTEX
8
Halfen
62
7
10
 110
20
 69.3
30
0
0
VERTEX
8
Halfen
62
7
10
 110
20
-56.8
30
0
0
VERTEX
8
Halfen
62
7
10
 110
20
-69.3
30
0
0
VERTEX
8
Halfen
62
7
10
 110.042
20
-70.359
30
0
0
VERTEX
8
Halfen
62
7
10
 110.166
20
-71.412
30
0
0
VERTEX
8
Halfen
62
7
10
 110.373
20
-72.452
30
0
0
VERTEX
8
Halfen
62
7
10
 110.661
20
-73.472
30
0
0
VERTEX
8
Halfen
62
7
10
 111.028
20
-74.466
30
0
0
VERTEX
8
Halfen
62
7
10
 111.471
20
-75.429
30
0
0
VERTEX
8
Halfen
62
7
10
 111.989
20
-76.354
30
0
0
VERTEX
8
Halfen
62
7
10
 112.578
20
-77.235
30
0
0
VERTEX
8
Halfen
62
7
10
 113.235
20
-78.068
30
0
0
VERTEX
8
Halfen
62
7
10
 113.954
20
-78.846
30
0
0
VERTEX
8
Halfen
62
7
10
 114.732
20
-79.565
30
0
0
VERTEX
8
Halfen
62
7
10
 115.565
20
-80.222
30
0
0
VERTEX
8
Halfen
62
7
10
 116.446
20
-80.811
30
0
0
VERTEX
8
Halfen
62
7
10
 117.371
20
-81.329
30
0
0
VERTEX
8
Halfen
62
7
10
 118.334
20
-81.772
30
0
0
VERTEX
8
Halfen
62
7
10
 119.328
20
-82.139
30
0
0
VERTEX
8
Halfen
62
7
10
 120.348
20
-82.427
30
0
0
VERTEX
8
Halfen
62
7
10
 121.388
20
-82.634
30
0
0
VERTEX
8
Halfen
62
7
10
 122.441
20
-82.758
30
0
0
VERTEX
8
Halfen
62
7
10
 123.5
20
-82.8
30
0
0
VERTEX
8
Halfen
62
7
10
 126.5
20
-82.8
30
0
0
VERTEX
8
Halfen
62
7
10
 127.559
20
-82.758
30
0
0
VERTEX
8
Halfen
62
7
10
 128.612
20
-82.634
30
0
0
VERTEX
8
Halfen
62
7
10
 129.652
20
-82.427
30
0
0
VERTEX
8
Halfen
62
7
10
 130.672
20
-82.139
30
0
0
VERTEX
8
Halfen
62
7
10
 131.666
20
-81.772
30
0
0
VERTEX
8
Halfen
62
7
10
 132.629
20
-81.329
30
0
0
VERTEX
8
Halfen
62
7
10
 133.554
20
-80.811
30
0
0
VERTEX
8
Halfen
62
7
10
 134.435
20
-80.222
30
0
0
VERTEX
8
Halfen
62
7
10
 135.268
20
-79.565
30
0
0
VERTEX
8
Halfen
62
7
10
 136.046
20
-78.846
30
0
0
VERTEX
8
Halfen
62
7
10
 136.765
20
-78.068
30
0
0
VERTEX
8
Halfen
62
7
10
 137.422
20
-77.235
30
0
0
VERTEX
8
Halfen
62
7
10
 138.011
20
-76.354
30
0
0
VERTEX
8
Halfen
62
7
10
 138.529
20
-75.429
30
0
0
VERTEX
8
Halfen
62
7
10
 138.972
20
-74.466
30
0
0
VERTEX
8
Halfen
62
7
10
 139.339
20
-73.472
30
0
0
VERTEX
8
Halfen
62
7
10
 139.627
20
-72.452
30
0
0
VERTEX
8
Halfen
62
7
10
 139.834
20
-71.412
30
0
0
VERTEX
8
Halfen
62
7
10
 139.958
20
-70.359
30
0
0
VERTEX
8
Halfen
62
7
10
 140
20
-69.3
30
0
0
SEQEND
8
Halfen
0
POLYLINE
8
Halfen
62
7
66
1
10
0.0
20
0.0
30
0.0
70
1
0
VERTEX
8
Halfen
62
7
10
 390
20
-69.3
30
0
0
VERTEX
8
Halfen
62
7
10
 390
20
-56.8
30
0
0
VERTEX
8
Halfen
62
7
10
 390
20
 69.3
30
0
0
VERTEX
8
Halfen
62
7
10
 389.958
20
 70.359
30
0
0
VERTEX
8
Halfen
62
7
10
 389.834
20
 71.412
30
0
0
VERTEX
8
Halfen
62
7
10
 389.627
20
 72.452
30
0
0
VERTEX
8
Halfen
62
7
10
 389.339
20
 73.472
30
0
0
VERTEX
8
Halfen
62
7
10
 388.972
20
 74.466
30
0
0
VERTEX
8
Halfen
62
7
10
 388.529
20
 75.429
30
0
0
VERTEX
8
Halfen
62
7
10
 388.011
20
 76.354
30
0
0
VERTEX
8
Halfen
62
7
10
 387.422
20
 77.235
30
0
0
VERTEX
8
Halfen
62
7
10
 386.765
20
 78.068
30
0
0
VERTEX
8
Halfen
62
7
10
 386.046
20
 78.846
30
0
0
VERTEX
8
Halfen
62
7
10
 385.268
20
 79.565
30
0
0
VERTEX
8
Halfen
62
7
10
 384.435
20
 80.222
30
0
0
VERTEX
8
Halfen
62
7
10
 383.554
20
 80.811
30
0
0
VERTEX
8
Halfen
62
7
10
 382.629
20
 81.329
30
0
0
VERTEX
8
Halfen
62
7
10
 381.666
20
 81.772
30
0
0
VERTEX
8
Halfen
62
7
10
 380.672
20
 82.139
30
0
0
VERTEX
8
Halfen
62
7
10
 379.652
20
 82.427
30
0
0
VERTEX
8
Halfen
62
7
10
 378.612
20
 82.634
30
0
0
VERTEX
8
Halfen
62
7
10
 377.559
20
 82.758
30
0
0
VERTEX
8
Halfen
62
7
10
 376.5
20
 82.8
30
0
0
VERTEX
8
Halfen
62
7
10
 373.5
20
 82.8
30
0
0
VERTEX
8
Halfen
62
7
10
 372.441
20
 82.758
30
0
0
VERTEX
8
Halfen
62
7
10
 371.388
20
 82.634
30
0
0
VERTEX
8
Halfen
62
7
10
 370.348
20
 82.427
30
0
0
VERTEX
8
Halfen
62
7
10
 369.328
20
 82.139
30
0
0
VERTEX
8
Halfen
62
7
10
 368.334
20
 81.772
30
0
0
VERTEX
8
Halfen
62
7
10
 367.371
20
 81.329
30
0
0
VERTEX
8
Halfen
62
7
10
 366.446
20
 80.811
30
0
0
VERTEX
8
Halfen
62
7
10
 365.565
20
 80.222
30
0
0
VERTEX
8
Halfen
62
7
10
 364.732
20
 79.565
30
0
0
VERTEX
8
Halfen
62
7
10
 363.954
20
 78.846
30
0
0
VERTEX
8
Halfen
62
7
10
 363.235
20
 78.068
30
0
0
VERTEX
8
Halfen
62
7
10
 362.578
20
 77.235
30
0
0
VERTEX
8
Halfen
62
7
10
 361.989
20
 76.354
30
0
0
VERTEX
8
Halfen
62
7
10
 361.471
20
 75.429
30
0
0
VERTEX
8
Halfen
62
7
10
 361.028
20
 74.466
30
0
0
VERTEX
8
Halfen
62
7
10
 360.661
20
 73.472
30
0
0
VERTEX
8
Halfen
62
7
10
 360.373
20
 72.452
30
0
0
VERTEX
8
Halfen
62
7
10
 360.166
20
 71.412
30
0
0
VERTEX
8
Halfen
62
7
10
 360.042
20
 70.359
30
0
0
VERTEX
8
Halfen
62
7
10
 360
20
 69.3
30
0
0
VERTEX
8
Halfen
62
7
10
 360
20
-56.8
30
0
0
VERTEX
8
Halfen
62
7
10
 360
20
-69.3
30
0
0
VERTEX
8
Halfen
62
7
10
 360.042
20
-70.359
30
0
0
VERTEX
8
Halfen
62
7
10
 360.166
20
-71.412
30
0
0
VERTEX
8
Halfen
62
7
10
 360.373
20
-72.452
30
0
0
VERTEX
8
Halfen
62
7
10
 360.661
20
-73.472
30
0
0
VERTEX
8
Halfen
62
7
10
 361.028
20
-74.466
30
0
0
VERTEX
8
Halfen
62
7
10
 361.471
20
-75.429
30
0
0
VERTEX
8
Halfen
62
7
10
 361.989
20
-76.354
30
0
0
VERTEX
8
Halfen
62
7
10
 362.578
20
-77.235
30
0
0
VERTEX
8
Halfen
62
7
10
 363.235
20
-78.068
30
0
0
VERTEX
8
Halfen
62
7
10
 363.954
20
-78.846
30
0
0
VERTEX
8
Halfen
62
7
10
 364.732
20
-79.565
30
0
0
VERTEX
8
Halfen
62
7
10
 365.565
20
-80.222
30
0
0
VERTEX
8
Halfen
62
7
10
 366.446
20
-80.811
30
0
0
VERTEX
8
Halfen
62
7
10
 367.371
20
-81.329
30
0
0
VERTEX
8
Halfen
62
7
10
 368.334
20
-81.772
30
0
0
VERTEX
8
Halfen
62
7
10
 369.328
20
-82.139
30
0
0
VERTEX
8
Halfen
62
7
10
 370.348
20
-82.427
30
0
0
VERTEX
8
Halfen
62
7
10
 371.388
20
-82.634
30
0
0
VERTEX
8
Halfen
62
7
10
 372.441
20
-82.758
30
0
0
VERTEX
8
Halfen
62
7
10
 373.5
20
-82.8
30
0
0
VERTEX
8
Halfen
62
7
10
 376.5
20
-82.8
30
0
0
VERTEX
8
Halfen
62
7
10
 377.559
20
-82.758
30
0
0
VERTEX
8
Halfen
62
7
10
 378.612
20
-82.634
30
0
0
VERTEX
8
Halfen
62
7
10
 379.652
20
-82.427
30
0
0
VERTEX
8
Halfen
62
7
10
 380.672
20
-82.139
30
0
0
VERTEX
8
Halfen
62
7
10
 381.666
20
-81.772
30
0
0
VERTEX
8
Halfen
62
7
10
 382.629
20
-81.329
30
0
0
VERTEX
8
Halfen
62
7
10
 383.554
20
-80.811
30
0
0
VERTEX
8
Halfen
62
7
10
 384.435
20
-80.222
30
0
0
VERTEX
8
Halfen
62
7
10
 385.268
20
-79.565
30
0
0
VERTEX
8
Halfen
62
7
10
 386.046
20
-78.846
30
0
0
VERTEX
8
Halfen
62
7
10
 386.765
20
-78.068
30
0
0
VERTEX
8
Halfen
62
7
10
 387.422
20
-77.235
30
0
0
VERTEX
8
Halfen
62
7
10
 388.011
20
-76.354
30
0
0
VERTEX
8
Halfen
62
7
10
 388.529
20
-75.429
30
0
0
VERTEX
8
Halfen
62
7
10
 388.972
20
-74.466
30
0
0
VERTEX
8
Halfen
62
7
10
 389.339
20
-73.472
30
0
0
VERTEX
8
Halfen
62
7
10
 389.627
20
-72.452
30
0
0
VERTEX
8
Halfen
62
7
10
 389.834
20
-71.412
30
0
0
VERTEX
8
Halfen
62
7
10
 389.958
20
-70.359
30
0
0
VERTEX
8
Halfen
62
7
10
 390
20
-69.3
30
0
0
SEQEND
8
Halfen
0
POLYLINE
8
Halfen
62
7
66
1
10
0.0
20
0.0
30
0.0
70
1
0
VERTEX
8
Halfen
62
7
10
 73
20
-456.927
30
0
0
VERTEX
8
Halfen
62
7
10
 73
20
 214.971
30
0
0
VERTEX
8
Halfen
62
7
10
 67
20
 214.971
30
0
0
VERTEX
8
Halfen
62
7
10
 67
20
-456.927
30
0
0
SEQEND
8
Halfen
0
POLYLINE
8
Halfen
62
7
66
1
10
0.0
20
0.0
30
0.0
70
1
0
VERTEX
8
Halfen
62
7
10
 193
20
-456.927
30
0
0
VERTEX
8
Halfen
62
7
10
 193
20
 214.971
30
0
0
VERTEX
8
Halfen
62
7
10
 187
20
 214.971
30
0
0
VERTEX
8
Halfen
62
7
10
 187
20
-456.927
30
0
0
SEQEND
8
Halfen
0
POLYLINE
8
Halfen
62
7
66
1
10
0.0
20
0.0
30
0.0
70
1
0
VERTEX
8
Halfen
62
7
10
 323
20
-456.927
30
0
0
VERTEX
8
Halfen
62
7
10
 323
20
 214.971
30
0
0
VERTEX
8
Halfen
62
7
10
 317
20
 214.971
30
0
0
VERTEX
8
Halfen
62
7
10
 317
20
-456.927
30
0
0
SEQEND
8
Halfen
0
POLYLINE
8
Halfen
62
7
66
1
10
0.0
20
0.0
30
0.0
70
1
0
VERTEX
8
Halfen
62
7
10
 433
20
-456.927
30
0
0
VERTEX
8
Halfen
62
7
10
 433
20
 214.971
30
0
0
VERTEX
8
Halfen
62
7
10
 427
20
 214.971
30
0
0
VERTEX
8
Halfen
62
7
10
 427
20
-456.927
30
0
0
SEQEND
8
Halfen
0
POLYLINE
8
Halfen
62
7
66
1
10
0.0
20
0.0
30
0.0
70
1
0
VERTEX
8
Halfen
62
7
10
 313
20
-456.927
30
0
0
VERTEX
8
Halfen
62
7
10
 313
20
 214.971
30
0
0
VERTEX
8
Halfen
62
7
10
 307
20
 214.971
30
0
0
VERTEX
8
Halfen
62
7
10
 307
20
-456.927
30
0
0
SEQEND
8
Halfen
0
POLYLINE
8
Halfen
62
7
66
1
10
0.0
20
0.0
30
0.0
70
1
0
VERTEX
8
Halfen
62
7
10
 183
20
-456.927
30
0
0
VERTEX
8
Halfen
62
7
10
 183
20
 214.971
30
0
0
VERTEX
8
Halfen
62
7
10
 177
20
 214.971
30
0
0
VERTEX
8
Halfen
62
7
10
 177
20
-456.927
30
0
0
SEQEND
8
Halfen
0
POLYLINE
8
Halfen
62
7
66
1
10
0.0
20
0.0
30
0.0
70
1
0
VERTEX
8
Halfen
62
7
10
 880
20
-60
30
0
0
VERTEX
8
Halfen
62
7
10
 880
20
 60
30
0
0
VERTEX
8
Halfen
62
7
10
 866.5
20
 73.5
30
0
0
VERTEX
8
Halfen
62
7
10
 866.5
20
 60
30
0
0
VERTEX
8
Halfen
62
7
10
 750
20
 60
30
0
0
VERTEX
8
Halfen
62
7
10
 750
20
-60
30
0
0
VERTEX
8
Halfen
62
7
10
 866.5
20
-60
30
0
0
VERTEX
8
Halfen
62
7
10
 866.5
20
-73.5
30
0
0
SEQEND
8
Halfen
0
POLYLINE
8
Halfen
62
7
66
1
10
0.0
20
0.0
30
0.0
70
1
0
VERTEX
8
Halfen
62
7
10
 750
20
-60
30
0
0
VERTEX
8
Halfen
62
7
10
 750
20
 60
30
0
0
VERTEX
8
Halfen
62
7
10
 713.5
20
 60
30
0
0
VERTEX
8
Halfen
62
7
10
 713.5
20
 73.5
30
0
0
VERTEX
8
Halfen
62
7
10
 700
20
 60
30
0
0
VERTEX
8
Halfen
62
7
10
 700
20
-60
30
0
0
VERTEX
8
Halfen
62
7
10
 713.5
20
-73.5
30
0
0
VERTEX
8
Halfen
62
7
10
 713.5
20
-60
30
0
0
SEQEND
8
Halfen
0
POLYLINE
8
Halfen
62
7
66
1
10
0.0
20
0.0
30
0.0
70
1
0
VERTEX
8
Halfen
62
7
10
 877.5
20
-58.75
30
0
0
VERTEX
8
Halfen
62
7
10
 877.5
20
 58.75
30
0
0
VERTEX
8
Halfen
62
7
10
 869
20
 67.25
30
0
0
VERTEX
8
Halfen
62
7
10
 869
20
 58
30
0
0
VERTEX
8
Halfen
62
7
10
 752
20
 58
30
0
0
VERTEX
8
Halfen
62
7
10
 752
20
-58
30
0
0
VERTEX
8
Halfen
62
7
10
 869
20
-58
30
0
0
VERTEX
8
Halfen
62
7
10
 869
20
-67.25
30
0
0
SEQEND
8
Halfen
0
POLYLINE
8
Halfen
62
7
66
1
10
0.0
20
0.0
30
0.0
70
1
0
VERTEX
8
Halfen
62
7
10
 748
20
-58
30
0
0
VERTEX
8
Halfen
62
7
10
 748
20
 58
30
0
0
VERTEX
8
Halfen
62
7
10
 711
20
 58
30
0
0
VERTEX
8
Halfen
62
7
10
 711
20
 67.25
30
0
0
VERTEX
8
Halfen
62
7
10
 702.5
20
 58.75
30
0
0
VERTEX
8
Halfen
62
7
10
 702.5
20
-58.75
30
0
0
VERTEX
8
Halfen
62
7
10
 711
20
-67.25
30
0
0
VERTEX
8
Halfen
62
7
10
 711
20
-58
30
0
0
SEQEND
8
Halfen
0
POLYLINE
8
Halfen
62
7
66
1
10
0.0
20
0.0
30
0.0
70
1
0
VERTEX
8
Halfen
62
7
10
 865
20
-81.8
30
0
0
VERTEX
8
Halfen
62
7
10
 865
20
 81.8
30
0
0
VERTEX
8
Halfen
62
7
10
 861
20
 81.8
30
0
0
VERTEX
8
Halfen
62
7
10
 860.846
20
 81.797
30
0
0
VERTEX
8
Halfen
62
7
10
 860.691
20
 81.786
30
0
0
VERTEX
8
Halfen
62
7
10
 860.538
20
 81.769
30
0
0
VERTEX
8
Halfen
62
7
10
 860.385
20
 81.746
30
0
0
VERTEX
8
Halfen
62
7
10
 860.234
20
 81.715
30
0
0
VERTEX
8
Halfen
62
7
10
 860.084
20
 81.678
30
0
0
VERTEX
8
Halfen
62
7
10
 859.936
20
 81.634
30
0
0
VERTEX
8
Halfen
62
7
10
 859.789
20
 81.584
30
0
0
VERTEX
8
Halfen
62
7
10
 859.646
20
 81.527
30
0
0
VERTEX
8
Halfen
62
7
10
 859.505
20
 81.464
30
0
0
VERTEX
8
Halfen
62
7
10
 859.366
20
 81.395
30
0
0
VERTEX
8
Halfen
62
7
10
 859.231
20
 81.32
30
0
0
VERTEX
8
Halfen
62
7
10
 859.1
20
 81.239
30
0
0
VERTEX
8
Halfen
62
7
10
 858.972
20
 81.153
30
0
0
VERTEX
8
Halfen
62
7
10
 858.848
20
 81.06
30
0
0
VERTEX
8
Halfen
62
7
10
 858.728
20
 80.963
30
0
0
VERTEX
8
Halfen
62
7
10
 858.613
20
 80.86
30
0
0
VERTEX
8
Halfen
62
7
10
 858.502
20
 80.752
30
0
0
VERTEX
8
Halfen
62
7
10
 858.397
20
 80.639
30
0
0
VERTEX
8
Halfen
62
7
10
 858.296
20
 80.522
30
0
0
VERTEX
8
Halfen
62
7
10
 857.41
20
 79.491
30
0
0
VERTEX
8
Halfen
62
7
10
 856.479
20
 78.5
30
0
0
VERTEX
8
Halfen
62
7
10
 855.505
20
 77.551
30
0
0
VERTEX
8
Halfen
62
7
10
 854.491
20
 76.646
30
0
0
VERTEX
8
Halfen
62
7
10
 853.437
20
 75.787
30
0
0
VERTEX
8
Halfen
62
7
10
 852.347
20
 74.975
30
0
0
VERTEX
8
Halfen
62
7
10
 851.222
20
 74.211
30
0
0
VERTEX
8
Halfen
62
7
10
 850.064
20
 73.499
30
0
0
VERTEX
8
Halfen
62
7
10
 848.876
20
 72.838
30
0
0
VERTEX
8
Halfen
62
7
10
 847.66
20
 72.23
30
0
0
VERTEX
8
Halfen
62
7
10
 846.418
20
 71.676
30
0
0
VERTEX
8
Halfen
62
7
10
 845.153
20
 71.178
30
0
0
VERTEX
8
Halfen
62
7
10
 843.867
20
 70.736
30
0
0
VERTEX
8
Halfen
62
7
10
 842.563
20
 70.351
30
0
0
VERTEX
8
Halfen
62
7
10
 841.243
20
 70.024
30
0
0
VERTEX
8
Halfen
62
7
10
 839.911
20
 69.756
30
0
0
VERTEX
8
Halfen
62
7
10
 838.567
20
 69.547
30
0
0
VERTEX
8
Halfen
62
7
10
 837.216
20
 69.397
30
0
0
VERTEX
8
Halfen
62
7
10
 835.859
20
 69.307
30
0
0
VERTEX
8
Halfen
62
7
10
 834.5
20
 69.277
30
0
0
VERTEX
8
Halfen
62
7
10
 812.5
20
 69.277
30
0
0
VERTEX
8
Halfen
62
7
10
 811.141
20
 69.307
30
0
0
VERTEX
8
Halfen
62
7
10
 809.784
20
 69.397
30
0
0
VERTEX
8
Halfen
62
7
10
 808.433
20
 69.547
30
0
0
VERTEX
8
Halfen
62
7
10
 807.089
20
 69.756
30
0
0
VERTEX
8
Halfen
62
7
10
 805.757
20
 70.024
30
0
0
VERTEX
8
Halfen
62
7
10
 804.437
20
 70.351
30
0
0
VERTEX
8
Halfen
62
7
10
 803.133
20
 70.736
30
0
0
VERTEX
8
Halfen
62
7
10
 801.847
20
 71.178
30
0
0
VERTEX
8
Halfen
62
7
10
 800.582
20
 71.676
30
0
0
VERTEX
8
Halfen
62
7
10
 799.34
20
 72.23
30
0
0
VERTEX
8
Halfen
62
7
10
 798.124
20
 72.838
30
0
0
VERTEX
8
Halfen
62
7
10
 796.936
20
 73.499
30
0
0
VERTEX
8
Halfen
62
7
10
 795.778
20
 74.211
30
0
0
VERTEX
8
Halfen
62
7
10
 794.653
20
 74.975
30
0
0
VERTEX
8
Halfen
62
7
10
 793.563
20
 75.787
30
0
0
VERTEX
8
Halfen
62
7
10
 792.509
20
 76.646
30
0
0
VERTEX
8
Halfen
62
7
10
 791.495
20
 77.551
30
0
0
VERTEX
8
Halfen
62
7
10
 790.521
20
 78.5
30
0
0
VERTEX
8
Halfen
62
7
10
 789.59
20
 79.491
30
0
0
VERTEX
8
Halfen
62
7
10
 788.704
20
 80.522
30
0
0
VERTEX
8
Halfen
62
7
10
 788.603
20
 80.639
30
0
0
VERTEX
8
Halfen
62
7
10
 788.498
20
 80.752
30
0
0
VERTEX
8
Halfen
62
7
10
 788.387
20
 80.86
30
0
0
VERTEX
8
Halfen
62
7
10
 788.272
20
 80.963
30
0
0
VERTEX
8
Halfen
62
7
10
 788.152
20
 81.06
30
0
0
VERTEX
8
Halfen
62
7
10
 788.028
20
 81.153
30
0
0
VERTEX
8
Halfen
62
7
10
 787.9
20
 81.239
30
0
0
VERTEX
8
Halfen
62
7
10
 787.769
20
 81.32
30
0
0
VERTEX
8
Halfen
62
7
10
 787.634
20
 81.395
30
0
0
VERTEX
8
Halfen
62
7
10
 787.495
20
 81.464
30
0
0
VERTEX
8
Halfen
62
7
10
 787.354
20
 81.527
30
0
0
VERTEX
8
Halfen
62
7
10
 787.211
20
 81.584
30
0
0
VERTEX
8
Halfen
62
7
10
 787.064
20
 81.634
30
0
0
VERTEX
8
Halfen
62
7
10
 786.916
20
 81.678
30
0
0
VERTEX
8
Halfen
62
7
10
 786.766
20
 81.715
30
0
0
VERTEX
8
Halfen
62
7
10
 786.615
20
 81.746
30
0
0
VERTEX
8
Halfen
62
7
10
 786.462
20
 81.769
30
0
0
VERTEX
8
Halfen
62
7
10
 786.309
20
 81.786
30
0
0
VERTEX
8
Halfen
62
7
10
 786.154
20
 81.797
30
0
0
VERTEX
8
Halfen
62
7
10
 786
20
 81.8
30
0
0
VERTEX
8
Halfen
62
7
10
 782
20
 81.8
30
0
0
VERTEX
8
Halfen
62
7
10
 782
20
-81.8
30
0
0
VERTEX
8
Halfen
62
7
10
 786
20
-81.8
30
0
0
VERTEX
8
Halfen
62
7
10
 786.154
20
-81.797
30
0
0
VERTEX
8
Halfen
62
7
10
 786.309
20
-81.786
30
0
0
VERTEX
8
Halfen
62
7
10
 786.462
20
-81.769
30
0
0
VERTEX
8
Halfen
62
7
10
 786.615
20
-81.746
30
0
0
VERTEX
8
Halfen
62
7
10
 786.766
20
-81.715
30
0
0
VERTEX
8
Halfen
62
7
10
 786.916
20
-81.678
30
0
0
VERTEX
8
Halfen
62
7
10
 787.064
20
-81.634
30
0
0
VERTEX
8
Halfen
62
7
10
 787.211
20
-81.584
30
0
0
VERTEX
8
Halfen
62
7
10
 787.354
20
-81.527
30
0
0
VERTEX
8
Halfen
62
7
10
 787.495
20
-81.464
30
0
0
VERTEX
8
Halfen
62
7
10
 787.634
20
-81.395
30
0
0
VERTEX
8
Halfen
62
7
10
 787.769
20
-81.32
30
0
0
VERTEX
8
Halfen
62
7
10
 787.9
20
-81.239
30
0
0
VERTEX
8
Halfen
62
7
10
 788.028
20
-81.153
30
0
0
VERTEX
8
Halfen
62
7
10
 788.152
20
-81.06
30
0
0
VERTEX
8
Halfen
62
7
10
 788.272
20
-80.963
30
0
0
VERTEX
8
Halfen
62
7
10
 788.387
20
-80.86
30
0
0
VERTEX
8
Halfen
62
7
10
 788.498
20
-80.752
30
0
0
VERTEX
8
Halfen
62
7
10
 788.603
20
-80.639
30
0
0
VERTEX
8
Halfen
62
7
10
 788.704
20
-80.522
30
0
0
VERTEX
8
Halfen
62
7
10
 789.59
20
-79.491
30
0
0
VERTEX
8
Halfen
62
7
10
 790.521
20
-78.5
30
0
0
VERTEX
8
Halfen
62
7
10
 791.495
20
-77.551
30
0
0
VERTEX
8
Halfen
62
7
10
 792.509
20
-76.646
30
0
0
VERTEX
8
Halfen
62
7
10
 793.563
20
-75.787
30
0
0
VERTEX
8
Halfen
62
7
10
 794.653
20
-74.975
30
0
0
VERTEX
8
Halfen
62
7
10
 795.778
20
-74.211
30
0
0
VERTEX
8
Halfen
62
7
10
 796.936
20
-73.499
30
0
0
VERTEX
8
Halfen
62
7
10
 798.124
20
-72.838
30
0
0
VERTEX
8
Halfen
62
7
10
 799.34
20
-72.23
30
0
0
VERTEX
8
Halfen
62
7
10
 800.582
20
-71.676
30
0
0
VERTEX
8
Halfen
62
7
10
 801.847
20
-71.178
30
0
0
VERTEX
8
Halfen
62
7
10
 803.133
20
-70.736
30
0
0
VERTEX
8
Halfen
62
7
10
 804.437
20
-70.351
30
0
0
VERTEX
8
Halfen
62
7
10
 805.757
20
-70.024
30
0
0
VERTEX
8
Halfen
62
7
10
 807.089
20
-69.756
30
0
0
VERTEX
8
Halfen
62
7
10
 808.433
20
-69.547
30
0
0
VERTEX
8
Halfen
62
7
10
 809.784
20
-69.397
30
0
0
VERTEX
8
Halfen
62
7
10
 811.141
20
-69.307
30
0
0
VERTEX
8
Halfen
62
7
10
 812.5
20
-69.277
30
0
0
VERTEX
8
Halfen
62
7
10
 834.5
20
-69.277
30
0
0
VERTEX
8
Halfen
62
7
10
 835.859
20
-69.307
30
0
0
VERTEX
8
Halfen
62
7
10
 837.216
20
-69.397
30
0
0
VERTEX
8
Halfen
62
7
10
 838.567
20
-69.547
30
0
0
VERTEX
8
Halfen
62
7
10
 839.911
20
-69.756
30
0
0
VERTEX
8
Halfen
62
7
10
 841.243
20
-70.024
30
0
0
VERTEX
8
Halfen
62
7
10
 842.563
20
-70.351
30
0
0
VERTEX
8
Halfen
62
7
10
 843.867
20
-70.736
30
0
0
VERTEX
8
Halfen
62
7
10
 845.153
20
-71.178
30
0
0
VERTEX
8
Halfen
62
7
10
 846.418
20
-71.676
30
0
0
VERTEX
8
Halfen
62
7
10
 847.66
20
-72.23
30
0
0
VERTEX
8
Halfen
62
7
10
 848.876
20
-72.838
30
0
0
VERTEX
8
Halfen
62
7
10
 850.064
20
-73.499
30
0
0
VERTEX
8
Halfen
62
7
10
 851.222
20
-74.211
30
0
0
VERTEX
8
Halfen
62
7
10
 852.347
20
-74.975
30
0
0
VERTEX
8
Halfen
62
7
10
 853.437
20
-75.787
30
0
0
VERTEX
8
Halfen
62
7
10
 854.491
20
-76.646
30
0
0
VERTEX
8
Halfen
62
7
10
 855.505
20
-77.551
30
0
0
VERTEX
8
Halfen
62
7
10
 856.479
20
-78.5
30
0
0
VERTEX
8
Halfen
62
7
10
 857.41
20
-79.491
30
0
0
VERTEX
8
Halfen
62
7
10
 858.296
20
-80.522
30
0
0
VERTEX
8
Halfen
62
7
10
 858.397
20
-80.639
30
0
0
VERTEX
8
Halfen
62
7
10
 858.502
20
-80.752
30
0
0
VERTEX
8
Halfen
62
7
10
 858.613
20
-80.86
30
0
0
VERTEX
8
Halfen
62
7
10
 858.728
20
-80.963
30
0
0
VERTEX
8
Halfen
62
7
10
 858.848
20
-81.06
30
0
0
VERTEX
8
Halfen
62
7
10
 858.972
20
-81.153
30
0
0
VERTEX
8
Halfen
62
7
10
 859.1
20
-81.239
30
0
0
VERTEX
8
Halfen
62
7
10
 859.231
20
-81.32
30
0
0
VERTEX
8
Halfen
62
7
10
 859.366
20
-81.395
30
0
0
VERTEX
8
Halfen
62
7
10
 859.505
20
-81.464
30
0
0
VERTEX
8
Halfen
62
7
10
 859.646
20
-81.527
30
0
0
VERTEX
8
Halfen
62
7
10
 859.789
20
-81.584
30
0
0
VERTEX
8
Halfen
62
7
10
 859.936
20
-81.634
30
0
0
VERTEX
8
Halfen
62
7
10
 860.084
20
-81.678
30
0
0
VERTEX
8
Halfen
62
7
10
 860.234
20
-81.715
30
0
0
VERTEX
8
Halfen
62
7
10
 860.385
20
-81.746
30
0
0
VERTEX
8
Halfen
62
7
10
 860.538
20
-81.769
30
0
0
VERTEX
8
Halfen
62
7
10
 860.691
20
-81.786
30
0
0
VERTEX
8
Halfen
62
7
10
 860.846
20
-81.797
30
0
0
VERTEX
8
Halfen
62
7
10
 861
20
-81.8
30
0
0
SEQEND
8
Halfen
0
POLYLINE
8
Halfen
62
7
66
1
10
0.0
20
0.0
30
0.0
70
1
0
VERTEX
8
Halfen
62
7
10
 850
20
-456.927
30
0
0
VERTEX
8
Halfen
62
7
10
 850
20
-79.715
30
0
0
VERTEX
8
Halfen
62
7
10
 849.766
20
-76.375
30
0
0
VERTEX
8
Halfen
62
7
10
 849.07
20
-73.1
30
0
0
VERTEX
8
Halfen
62
7
10
 847.925
20
-69.953
30
0
0
VERTEX
8
Halfen
62
7
10
 846.353
20
-66.997
30
0
0
VERTEX
8
Halfen
62
7
10
 758.735
20
 73.221
30
0
0
VERTEX
8
Halfen
62
7
10
 757.556
20
 75.438
30
0
0
VERTEX
8
Halfen
62
7
10
 756.697
20
 77.798
30
0
0
VERTEX
8
Halfen
62
7
10
 756.175
20
 80.255
30
0
0
VERTEX
8
Halfen
62
7
10
 756
20
 82.76
30
0
0
VERTEX
8
Halfen
62
7
10
 756
20
 190.971
30
0
0
VERTEX
8
Halfen
62
7
10
 756.222
20
 193.787
30
0
0
VERTEX
8
Halfen
62
7
10
 756.881
20
 196.534
30
0
0
VERTEX
8
Halfen
62
7
10
 757.962
20
 199.143
30
0
0
VERTEX
8
Halfen
62
7
10
 759.438
20
 201.551
30
0
0
VERTEX
8
Halfen
62
7
10
 761.272
20
 203.699
30
0
0
VERTEX
8
Halfen
62
7
10
 763.42
20
 205.534
30
0
0
VERTEX
8
Halfen
62
7
10
 765.828
20
 207.009
30
0
0
VERTEX
8
Halfen
62
7
10
 768.438
20
 208.09
30
0
0
VERTEX
8
Halfen
62
7
10
 771.184
20
 208.75
30
0
0
VERTEX
8
Halfen
62
7
10
 774
20
 208.971
30
0
0
VERTEX
8
Halfen
62
7
10
 845
20
 208.971
30
0
0
VERTEX
8
Halfen
62
7
10
 845
20
 214.971
30
0
0
VERTEX
8
Halfen
62
7
10
 774
20
 214.971
30
0
0
VERTEX
8
Halfen
62
7
10
 770.246
20
 214.676
30
0
0
VERTEX
8
Halfen
62
7
10
 766.584
20
 213.797
30
0
0
VERTEX
8
Halfen
62
7
10
 763.104
20
 212.355
30
0
0
VERTEX
8
Halfen
62
7
10
 759.893
20
 210.388
30
0
0
VERTEX
8
Halfen
62
7
10
 757.029
20
 207.942
30
0
0
VERTEX
8
Halfen
62
7
10
 754.584
20
 205.078
30
0
0
VERTEX
8
Halfen
62
7
10
 752.616
20
 201.867
30
0
0
VERTEX
8
Halfen
62
7
10
 751.175
20
 198.388
30
0
0
VERTEX
8
Halfen
62
7
10
 750.295
20
 194.726
30
0
0
VERTEX
8
Halfen
62
7
10
 750
20
 190.971
30
0
0
VERTEX
8
Halfen
62
7
10
 750
20
 82.76
30
0
0
VERTEX
8
Halfen
62
7
10
 750.234
20
 79.419
30
0
0
VERTEX
8
Halfen
62
7
10
 750.93
20
 76.144
30
0
0
VERTEX
8
Halfen
62
7
10
 752.075
20
 72.998
30
0
0
VERTEX
8
Halfen
62
7
10
 753.647
20
 70.042
30
0
0
VERTEX
8
Halfen
62
7
10
 841.265
20
-70.177
30
0
0
VERTEX
8
Halfen
62
7
10
 842.444
20
-72.394
30
0
0
VERTEX
8
Halfen
62
7
10
 843.303
20
-74.754
30
0
0
VERTEX
8
Halfen
62
7
10
 843.825
20
-77.21
30
0
0
VERTEX
8
Halfen
62
7
10
 844
20
-79.715
30
0
0
VERTEX
8
Halfen
62
7
10
 844
20
-456.927
30
0
0
SEQEND
8
Halfen
0
POLYLINE
8
Halfen
62
7
66
1
10
0.0
20
0.0
30
0.0
70
1
0
VERTEX
8
Halfen
62
7
10
 750
20
-456.898
30
0
0
VERTEX
8
Halfen
62
7
10
 750
20
-79.686
30
0
0
VERTEX
8
Halfen
62
7
10
 750.234
20
-76.346
30
0
0
VERTEX
8
Halfen
62
7
10
 750.93
20
-73.071
30
0
0
VERTEX
8
Halfen
62
7
10
 752.075
20
-69.925
30
0
0
VERTEX
8
Halfen
62
7
10
 753.647
20
-66.968
30
0
0
VERTEX
8
Halfen
62
7
10
 841.265
20
 73.25
30
0
0
VERTEX
8
Halfen
62
7
10
 842.444
20
 75.467
30
0
0
VERTEX
8
Halfen
62
7
10
 843.303
20
 77.827
30
0
0
VERTEX
8
Halfen
62
7
10
 843.825
20
 80.283
30
0
0
VERTEX
8
Halfen
62
7
10
 844
20
 82.788
30
0
0
VERTEX
8
Halfen
62
7
10
 844
20
 191
30
0
0
VERTEX
8
Halfen
62
7
10
 843.778
20
 193.816
30
0
0
VERTEX
8
Halfen
62
7
10
 843.119
20
 196.562
30
0
0
VERTEX
8
Halfen
62
7
10
 842.038
20
 199.172
30
0
0
VERTEX
8
Halfen
62
7
10
 840.562
20
 201.58
30
0
0
VERTEX
8
Halfen
62
7
10
 838.728
20
 203.728
30
0
0
VERTEX
8
Halfen
62
7
10
 836.58
20
 205.562
30
0
0
VERTEX
8
Halfen
62
7
10
 834.172
20
 207.038
30
0
0
VERTEX
8
Halfen
62
7
10
 831.562
20
 208.119
30
0
0
VERTEX
8
Halfen
62
7
10
 828.816
20
 208.778
30
0
0
VERTEX
8
Halfen
62
7
10
 826
20
 209
30
0
0
VERTEX
8
Halfen
62
7
10
 755
20
 209
30
0
0
VERTEX
8
Halfen
62
7
10
 755
20
 215
30
0
0
VERTEX
8
Halfen
62
7
10
 826
20
 215
30
0
0
VERTEX
8
Halfen
62
7
10
 829.754
20
 214.705
30
0
0
VERTEX
8
Halfen
62
7
10
 833.416
20
 213.825
30
0
0
VERTEX
8
Halfen
62
7
10
 836.896
20
 212.384
30
0
0
VERTEX
8
Halfen
62
7
10
 840.107
20
 210.416
30
0
0
VERTEX
8
Halfen
62
7
10
 842.971
20
 207.971
30
0
0
VERTEX
8
Halfen
62
7
10
 845.416
20
 205.107
30
0
0
VERTEX
8
Halfen
62
7
10
 847.384
20
 201.896
30
0
0
VERTEX
8
Halfen
62
7
10
 848.825
20
 198.416
30
0
0
VERTEX
8
Halfen
62
7
10
 849.705
20
 194.754
30
0
0
VERTEX
8
Halfen
62
7
10
 850
20
 191
30
0
0
VERTEX
8
Halfen
62
7
10
 850
20
 82.788
30
0
0
VERTEX
8
Halfen
62
7
10
 849.766
20
 79.448
30
0
0
VERTEX
8
Halfen
62
7
10
 849.07
20
 76.173
30
0
0
VERTEX
8
Halfen
62
7
10
 847.925
20
 73.027
30
0
0
VERTEX
8
Halfen
62
7
10
 846.353
20
 70.07
30
0
0
VERTEX
8
Halfen
62
7
10
 758.735
20
-70.148
30
0
0
VERTEX
8
Halfen
62
7
10
 757.556
20
-72.365
30
0
0
VERTEX
8
Halfen
62
7
10
 756.697
20
-74.725
30
0
0
VERTEX
8
Halfen
62
7
10
 756.175
20
-77.181
30
0
0
VERTEX
8
Halfen
62
7
10
 756
20
-79.686
30
0
0
VERTEX
8
Halfen
62
7
10
 756
20
-456.898
30
0
0
SEQEND
8
Halfen
0
ENDSEC
0
EOF
