  0
SECTION
  2
HEADER
  9
$ACADVER
  1
AC1024
  9
$ACADMAINTVER
 70
    63
  9
$DWGCODEPAGE
  3
ANSI_1252
  9
$LASTSAVEDBY
  1
uhlaender
  9
$INSBASE
 10
103.4076478762795
 20
2475.690439927472
 30
0.0
  9
$EXTMIN
 10
-218.7639335558224
 20
2135.574586167551
 30
-0.0015258207003583
  9
$EXTMAX
 10
512.266672442026
 20
2735.448069256145
 30
0.0000000349246037
  9
$LIMMIN
 10
0.0
 20
0.0
  9
$LIMMAX
 10
841.0
 20
1189.0
  9
$ORTHOMODE
 70
     1
  9
$REGENMODE
 70
     1
  9
$FILLMODE
 70
     1
  9
$QTEXTMODE
 70
     0
  9
$MIRRTEXT
 70
     1
  9
$LTSCALE
 40
0.1
  9
$ATTMODE
 70
     1
  9
$TEXTSIZE
 40
3.5
  9
$TRACEWID
 40
0.05
  9
$TEXTSTYLE
  7
ARIAL50
  9
$CLAYER
  8
Halfen
  9
$CELTYPE
  6
BYLAYER
  9
$CECOLOR
 62
   256
  9
$CELTSCALE
 40
1.0
  9
$DISPSILH
 70
     0
  9
$DIMSCALE
 40
1.0
  9
$DIMASZ
 40
2.5
  9
$DIMEXO
 40
1.0
  9
$DIMDLI
 40
10.0
  9
$DIMRND
 40
0.0
  9
$DIMDLE
 40
0.0
  9
$DIMEXE
 40
1.0
  9
$DIMTP
 40
0.1
  9
$DIMTM
 40
0.1
  9
$DIMTXT
 40
3.5
  9
$DIMCEN
 40
0.09
  9
$DIMTSZ
 40
0.0
  9
$DIMTOL
 70
     0
  9
$DIMLIM
 70
     0
  9
$DIMTIH
 70
     0
  9
$DIMTOH
 70
     0
  9
$DIMSE1
 70
     0
  9
$DIMSE2
 70
     0
  9
$DIMTAD
 70
     1
  9
$DIMZIN
 70
     8
  9
$DIMBLK
  1

  9
$DIMASO
 70
     1
  9
$DIMSHO
 70
     1
  9
$DIMPOST
  1

  9
$DIMAPOST
  1

  9
$DIMALT
 70
     0
  9
$DIMALTD
 70
     2
  9
$DIMALTF
 40
0.0393701
  9
$DIMLFAC
 40
1.0
  9
$DIMTOFL
 70
     1
  9
$DIMTVP
 40
0.0
  9
$DIMTIX
 70
     0
  9
$DIMSOXD
 70
     0
  9
$DIMSAH
 70
     0
  9
$DIMBLK1
  1

  9
$DIMBLK2
  1

  9
$DIMSTYLE
  2
GEN-ISO
  9
$DIMCLRD
 70
     1
  9
$DIMCLRE
 70
     1
  9
$DIMCLRT
 70
     7
  9
$DIMTFAC
 40
0.71
  9
$DIMGAP
 40
3.0
  9
$DIMJUST
 70
     0
  9
$DIMSD1
 70
     0
  9
$DIMSD2
 70
     0
  9
$DIMTOLJ
 70
     0
  9
$DIMTZIN
 70
     0
  9
$DIMALTZ
 70
     0
  9
$DIMALTTZ
 70
     0
  9
$DIMUPT
 70
     0
  9
$DIMDEC
 70
     1
  9
$DIMTDEC
 70
     3
  9
$DIMALTU
 70
     2
  9
$DIMALTTD
 70
     4
  9
$DIMTXSTY
  7
STANDARD
  9
$DIMAUNIT
 70
     0
  9
$DIMADEC
 70
     0
  9
$DIMALTRND
 40
0.0
  9
$DIMAZIN
 70
     0
  9
$DIMDSEP
 70
    46
  9
$DIMATFIT
 70
     3
  9
$DIMFRAC
 70
     0
  9
$DIMLDRBLK
  1

  9
$DIMLUNIT
 70
     2
  9
$DIMLWD
 70
    -2
  9
$DIMLWE
 70
    -2
  9
$DIMTMOVE
 70
     0
  9
$DIMFXL
 40
1.0
  9
$DIMFXLON
 70
     0
  9
$DIMJOGANG
 40
0.7853981633974483
  9
$DIMTFILL
 70
     0
  9
$DIMTFILLCLR
 70
     0
  9
$DIMARCSYM
 70
     0
  9
$DIMLTYPE
  6

  9
$DIMLTEX1
  6

  9
$DIMLTEX2
  6

  9
$DIMTXTDIRECTION
 70
     0
  9
$LUNITS
 70
     2
  9
$LUPREC
 70
     2
  9
$SKETCHINC
 40
0.1
  9
$FILLETRAD
 40
0.0
  9
$AUNITS
 70
     0
  9
$AUPREC
 70
     0
  9
$MENU
  1
.
  9
$ELEVATION
 40
0.0
  9
$PELEVATION
 40
0.0
  9
$THICKNESS
 40
0.0
  9
$LIMCHECK
 70
     0
  9
$CHAMFERA
 40
2.5
  9
$CHAMFERB
 40
2.5
  9
$CHAMFERC
 40
1.0
  9
$CHAMFERD
 40
0.0
  9
$SKPOLY
 70
     0
  9
$TDCREATE
 40
2451438.371298843
  9
$TDUCREATE
 40
2451438.287965509
  9
$TDUPDATE
 40
2456115.400735116
  9
$TDUUPDATE
 40
2456115.317401783
  9
$TDINDWG
 40
0.9486564931
  9
$TDUSRTIMER
 40
0.9486564931
  9
$USRTIMER
 70
     1
  9
$ANGBASE
 50
0.0
  9
$ANGDIR
 70
     0
  9
$PDMODE
 70
     0
  9
$PDSIZE
 40
0.0
  9
$PLINEWID
 40
0.0
  9
$SPLFRAME
 70
     0
  9
$SPLINETYPE
 70
     6
  9
$SPLINESEGS
 70
     8
  9
$HANDSEED
  5
2F8
  9
$SURFTAB1
 70
     6
  9
$SURFTAB2
 70
     6
  9
$SURFTYPE
 70
     6
  9
$SURFU
 70
     6
  9
$SURFV
 70
     6
  9
$UCSBASE
  2

  9
$UCSNAME
  2

  9
$UCSORG
 10
0.0
 20
0.0
 30
0.0
  9
$UCSXDIR
 10
1.0
 20
0.0
 30
0.0
  9
$UCSYDIR
 10
0.0
 20
1.0
 30
0.0
  9
$UCSORTHOREF
  2

  9
$UCSORTHOVIEW
 70
     0
  9
$UCSORGTOP
 10
0.0
 20
0.0
 30
0.0
  9
$UCSORGBOTTOM
 10
0.0
 20
0.0
 30
0.0
  9
$UCSORGLEFT
 10
0.0
 20
0.0
 30
0.0
  9
$UCSORGRIGHT
 10
0.0
 20
0.0
 30
0.0
  9
$UCSORGFRONT
 10
0.0
 20
0.0
 30
0.0
  9
$UCSORGBACK
 10
0.0
 20
0.0
 30
0.0
  9
$PUCSBASE
  2

  9
$PUCSNAME
  2

  9
$PUCSORG
 10
0.0
 20
0.0
 30
0.0
  9
$PUCSXDIR
 10
1.0
 20
0.0
 30
0.0
  9
$PUCSYDIR
 10
0.0
 20
1.0
 30
0.0
  9
$PUCSORTHOREF
  2

  9
$PUCSORTHOVIEW
 70
     0
  9
$PUCSORGTOP
 10
0.0
 20
0.0
 30
0.0
  9
$PUCSORGBOTTOM
 10
0.0
 20
0.0
 30
0.0
  9
$PUCSORGLEFT
 10
0.0
 20
0.0
 30
0.0
  9
$PUCSORGRIGHT
 10
0.0
 20
0.0
 30
0.0
  9
$PUCSORGFRONT
 10
0.0
 20
0.0
 30
0.0
  9
$PUCSORGBACK
 10
0.0
 20
0.0
 30
0.0
  9
$USERI1
 70
     0
  9
$USERI2
 70
     0
  9
$USERI3
 70
     0
  9
$USERI4
 70
     0
  9
$USERI5
 70
     0
  9
$USERR1
 40
0.0
  9
$USERR2
 40
0.0
  9
$USERR3
 40
0.0
  9
$USERR4
 40
0.0
  9
$USERR5
 40
0.0
  9
$WORLDVIEW
 70
     1
  9
$SHADEDGE
 70
     3
  9
$SHADEDIF
 70
    70
  9
$TILEMODE
 70
     1
  9
$MAXACTVP
 70
    48
  9
$PINSBASE
 10
0.0
 20
0.0
 30
0.0
  9
$PLIMCHECK
 70
     0
  9
$PEXTMIN
 10
1.000000000000000E+20
 20
1.000000000000000E+20
 30
1.000000000000000E+20
  9
$PEXTMAX
 10
-1.000000000000000E+20
 20
-1.000000000000000E+20
 30
-1.000000000000000E+20
  9
$PLIMMIN
 10
0.0
 20
0.0
  9
$PLIMMAX
 10
12.0
 20
9.0
  9
$UNITMODE
 70
     0
  9
$VISRETAIN
 70
     1
  9
$PLINEGEN
 70
     0
  9
$PSLTSCALE
 70
     1
  9
$TREEDEPTH
 70
  3020
  9
$CMLSTYLE
  2
STANDARD
  9
$CMLJUST
 70
     0
  9
$CMLSCALE
 40
1.0
  9
$PROXYGRAPHICS
 70
     1
  9
$MEASUREMENT
 70
     1
  9
$CELWEIGHT
370
    -1
  9
$ENDCAPS
280
     0
  9
$JOINSTYLE
280
     0
  9
$LWDISPLAY
290
     0
  9
$INSUNITS
 70
     4
  9
$HYPERLINKBASE
  1

  9
$STYLESHEET
  1

  9
$XEDIT
290
     1
  9
$CEPSNTYPE
380
     0
  9
$PSTYLEMODE
290
     1
  9
$FINGERPRINTGUID
  2
{33841872-811C-4372-AEEA-8146A4A300BC}
  9
$VERSIONGUID
  2
{D2F1CD72-1C0C-4683-9456-0D90A18EBC67}
  9
$EXTNAMES
290
     1
  9
$PSVPSCALE
 40
0.0
  9
$OLESTARTUP
290
     0
  9
$SORTENTS
280
   127
  9
$INDEXCTL
280
     0
  9
$HIDETEXT
280
     1
  9
$XCLIPFRAME
280
     2
  9
$HALOGAP
280
     0
  9
$OBSCOLOR
 70
   257
  9
$OBSLTYPE
280
     0
  9
$INTERSECTIONDISPLAY
280
     0
  9
$INTERSECTIONCOLOR
 70
   257
  9
$DIMASSOC
280
     1
  9
$PROJECTNAME
  1

  9
$CAMERADISPLAY
290
     0
  9
$LENSLENGTH
 40
50.0
  9
$CAMERAHEIGHT
 40
0.0
  9
$STEPSPERSEC
 40
2.0
  9
$STEPSIZE
 40
6.0
  9
$3DDWFPREC
 40
2.0
  9
$PSOLWIDTH
 40
0.25
  9
$PSOLHEIGHT
 40
4.0
  9
$LOFTANG1
 40
1.570796326794896
  9
$LOFTANG2
 40
1.570796326794896
  9
$LOFTMAG1
 40
0.0
  9
$LOFTMAG2
 40
0.0
  9
$LOFTPARAM
 70
     7
  9
$LOFTNORMALS
280
     1
  9
$LATITUDE
 40
37.795
  9
$LONGITUDE
 40
-122.394
  9
$NORTHDIRECTION
 40
0.0
  9
$TIMEZONE
 70
 -8000
  9
$LIGHTGLYPHDISPLAY
280
     1
  9
$TILEMODELIGHTSYNCH
280
     1
  9
$CMATERIAL
347
222
  9
$SOLIDHIST
280
     0
  9
$SHOWHIST
280
     1
  9
$DWFFRAME
280
     2
  9
$DGNFRAME
280
     0
  9
$REALWORLDSCALE
290
     1
  9
$INTERFERECOLOR
 62
     1
  9
$INTERFEREOBJVS
345
244
  9
$INTERFEREVPVS
346
241
  9
$CSHADOW
280
     0
  9
$SHADOWPLANELOCATION
 40
0.0
  0
ENDSEC
  0
SECTION
  2
CLASSES
  0
CLASS
  1
ACDBDICTIONARYWDFLT
  2
AcDbDictionaryWithDefault
  3
ObjectDBX Classes
 90
        0
 91
        1
280
     0
281
     0
  0
CLASS
  1
ACME_DOCUMENT
  2
AcMeDbDoc
  3
AcMeServices
 90
     1024
 91
        2
280
     1
281
     0
  0
CLASS
  1
AMGSETTINGSOBJ
  2
AmgSettingsObj
  3
"AcadM|Product Description: AutoCAD Mechanical|Company: Autodesk, Inc."
 90
     1024
 91
        2
280
     1
281
     0
  0
CLASS
  1
ACMESCOPE
  2
AcMeScope
  3
AcMeServices
 90
     1024
 91
        1
280
     1
281
     0
  0
CLASS
  1
ACMECOMMANDHISTORY
  2
AcMeCommandHistory
  3
AcMeServices
 90
     1024
 91
        1
280
     1
281
     0
  0
CLASS
  1
ACIMSYSVARMAN
  2
AcImSysVarManager
  3
AcMeServices
 90
     1024
 91
        3
280
     1
281
     0
  0
CLASS
  1
ACIMREALSYSVAR
  2
AcImRealSysVar
  3
AcMeServices
 90
     1024
 91
        0
280
     1
281
     0
  0
CLASS
  1
ACIMINTSYSVAR
  2
AcImIntSysVar
  3
AcMeServices
 90
     1024
 91
        2
280
     1
281
     0
  0
CLASS
  1
ACMEDRAWINGMAN
  2
AcMeDrawingMan
  3
AcMeServices
 90
     1024
 91
        0
280
     1
281
     0
  0
CLASS
  1
ACMEVIEW
  2
AcMeView
  3
AcMeServices
 90
     1024
 91
        0
280
     1
281
     0
  0
CLASS
  1
ACDBENTITYCACHE
  2
AcMeEntityCache
  3
AcMeServices
 90
     1024
 91
        1
280
     1
281
     0
  0
CLASS
  1
GSMANAGER
  2
AcMeGSManager
  3
AcMeServices
 90
        0
 91
        0
280
     1
281
     0
  0
CLASS
  1
AMDTINTERNALREACTOR
  2
AmdtInternalReactor
  3
AcMeServices
 90
     1024
 91
        0
280
     1
281
     0
  0
CLASS
  1
ACMESTATEMGR
  2
AcMeStateMgr
  3
AcMeServices
 90
     1024
 91
        1
280
     1
281
     0
  0
CLASS
  1
ACGREFMASTER
  2
AcGrefMaster
  3
AcAttribServices
 90
     1024
 91
        1
280
     1
281
     0
  0
CLASS
  1
ACME_DATABASE
  2
AcMeDbDatabase
  3
AcMeServices
 90
     1024
 91
        1
280
     1
281
     0
  0
CLASS
  1
ACRFINSADJUSTERMGR
  2
AcRfInsAdjusterMgr
  3
AcMeServices
 90
     1024
 91
        1
280
     1
281
     0
  0
CLASS
  1
ACGREFACADMASTER
  2
AcGrefacadMaster
  3
AcGrefServices
 90
     1024
 91
        1
280
     1
281
     0
  0
CLASS
  1
AMIMASTER
  2
AmiMaster
  3
AmiServices
 90
     1024
 91
        1
280
     1
281
     0
  0
CLASS
  1
ACMDATADICTIONARY
  2
AcmDataDictionary
  3
"AcmSymBB|Product Description: AutoCAD Mechanical|Company: Autodesk, Inc."
 90
     1024
 91
        1
280
     1
281
     0
  0
CLASS
  1
ACMDATAENTRYBLOCK
  2
AcmDataEntryBlock
  3
AcmSymBB|Product Description: AutoCAD Mechanical|Company: Autodesk, Inc.
 90
     1024
 91
        0
280
     1
281
     0
  0
CLASS
  1
ACIMSTRSYSVAR
  2
AcImStrSysVar
  3
AcMeServices
 90
     1024
 91
        5
280
     1
281
     0
  0
CLASS
  1
ACMSTANDARDDIN
  2
AcmStandardDIN
  3
"Amdt_StdImp|Product Description: AutoCAD Mechanical|Company: Autodesk, Inc."
 90
     1024
 91
        1
280
     1
281
     0
  0
CLASS
  1
AMGOBJPROPCFG
  2
AmgObjPropCfg
  3
"AmgLay|Product Description: AutoCAD Mechanical|Company: Autodesk, Inc."
 90
     1025
 91
        1
280
     1
281
     0
  0
CLASS
  1
AMDTEDGESTANDARDDIN
  2
AmdtEdgeStdDIN
  3
"Amdt_StdImp|Product Description: AutoCAD Mechanical|Company: Autodesk, Inc."
 90
     1024
 91
        0
280
     1
281
     0
  0
CLASS
  1
ACMSURFSTANDARDDIN
  2
AcmSurfTextStdDIN
  3
"Amdt_StdImp|Product Description: AutoCAD Mechanical|Company: Autodesk, Inc."
 90
     1024
 91
        0
280
     1
281
     0
  0
CLASS
  1
ACMFCFSTANDARDDIN
  2
AcmFCFStdDIN
  3
"Amdt_StdImp|Product Description: AutoCAD Mechanical|Company: Autodesk, Inc."
 90
     1024
 91
        0
280
     1
281
     0
  0
CLASS
  1
ACMWELDSTANDARDDIN
  2
AcmWeldingStdDIN
  3
"Amdt_StdImp|Product Description: AutoCAD Mechanical|Company: Autodesk, Inc."
 90
     1024
 91
        1
280
     1
281
     0
  0
CLASS
  1
ACMIDSTANDARDDIN
  2
AcmIdStdDIN
  3
"Amdt_StdImp|Product Description: AutoCAD Mechanical|Company: Autodesk, Inc."
 90
     1024
 91
        0
280
     1
281
     0
  0
CLASS
  1
ACMDATUMSTANDARDDIN
  2
AcmDatumStdDIN
  3
"Amdt_StdImp|Product Description: AutoCAD Mechanical|Company: Autodesk, Inc."
 90
     1024
 91
        1
280
     1
281
     0
  0
CLASS
  1
ACMBOMSTANDARDDIN
  2
AcmBOMStdDIN
  3
"Amdt_StdImp|Product Description: AutoCAD Mechanical|Company: Autodesk, Inc."
 90
     1024
 91
        1
280
     1
281
     0
  0
CLASS
  1
ACMDETAILSTANDARDDIN
  2
AmdtDetailSymStdDIN
  3
"Amdt_StdImp|Product Description: AutoCAD Mechanical|Company: Autodesk, Inc."
 90
     1024
 91
        1
280
     1
281
     0
  0
CLASS
  1
ACMSECTIONSTANDARDDIN
  2
AmdtSectionSymStdDIN
  3
"Amdt_StdImp|Product Description: AutoCAD Mechanical|Company: Autodesk, Inc."
 90
     1024
 91
        1
280
     1
281
     0
  0
CLASS
  1
ACMCENTERLINESTANDARDDIN
  2
AmdtCenterLineStdDIN
  3
"Amdt_StdImp|Product Description: AutoCAD Mechanical|Company: Autodesk, Inc."
 90
     1024
 91
        1
280
     1
281
     0
  0
CLASS
  1
ACMNOTESTANDARDDIN
  2
AmdtNoteStdDIN
  3
"Amdt_StdImp|Product Description: AutoCAD Mechanical|Company: Autodesk, Inc."
 90
     1024
 91
        1
280
     1
281
     0
  0
CLASS
  1
ACAMGLAYSTD
  2
AcAmgLayStd
  3
"AmgLay|Product Description: AutoCAD Mechanical|Company: Autodesk, Inc."
 90
     1024
 91
        1
280
     1
281
     0
  0
CLASS
  1
ACAMGDIMSTD
  2
AcAmgDimStd
  3
"AmgDim|Product Description: AutoCAD Mechanical|Company: Autodesk, Inc."
 90
     1024
 91
        1
280
     1
281
     0
  0
CLASS
  1
ACAMGHOLECHARTSTDDIN
  2
AcAmgHoleChartStdDIN
  3
AmgDim|Product Description: AutoCAD Mechanical|Company: Autodesk, Inc.
 90
     1024
 91
        1
280
     1
281
     0
  0
CLASS
  1
ACAMGTITLESTD
  2
AcAmgTitleStd
  3
"AmgTitle|Product Description: AutoCAD Mechanical|Company: Autodesk, Inc."
 90
     4095
 91
        1
280
     1
281
     0
  0
CLASS
  1
ACAMGFILTERDAT
  2
AcAmgFilterDat
  3
"AcadM|Product Description: AutoCAD Mechanical|Company: Autodesk, Inc."
 90
     1024
 91
        6
280
     1
281
     0
  0
CLASS
  1
AMDTFORMULAUPDATEDISPATCHER
  2
AmdtFormulaUpdateDispatcher
  3
AcMeServices
 90
     1024
 91
        0
280
     1
281
     0
  0
CLASS
  1
LAYER_INDEX
  2
AcDbLayerIndex
  3
ObjectDBX Classes
 90
        0
 91
        0
280
     0
281
     0
  0
CLASS
  1
IDBUFFER
  2
AcDbIdBuffer
  3
ObjectDBX Classes
 90
        0
 91
        0
280
     0
281
     0
  0
CLASS
  1
DICTIONARYVAR
  2
AcDbDictionaryVar
  3
ObjectDBX Classes
 90
        0
 91
       10
280
     0
281
     0
  0
CLASS
  1
TABLESTYLE
  2
AcDbTableStyle
  3
ObjectDBX Classes
 90
     4095
 91
        1
280
     0
281
     0
  0
CLASS
  1
MATERIAL
  2
AcDbMaterial
  3
ObjectDBX Classes
 90
     1153
 91
        3
280
     0
281
     0
  0
CLASS
  1
VISUALSTYLE
  2
AcDbVisualStyle
  3
ObjectDBX Classes
 90
     4095
 91
       24
280
     0
281
     0
  0
CLASS
  1
SCALE
  2
AcDbScale
  3
ObjectDBX Classes
 90
     1153
 91
       17
280
     0
281
     0
  0
CLASS
  1
MLEADERSTYLE
  2
AcDbMLeaderStyle
  3
ACDB_MLEADERSTYLE_CLASS
 90
     4095
 91
        1
280
     0
281
     0
  0
CLASS
  1
AMDTMENUSTATEMGR
  2
AmdtMenuStateMgr
  3
McadcomServices
 90
     1024
 91
        1
280
     0
281
     0
  0
CLASS
  1
AMDTMCOMMENUSTATE
  2
AmdtMcomMenuState
  3
McadcomServices
 90
     1024
 91
        1
280
     0
281
     0
  0
CLASS
  1
MAPIAMMOUDLE
  2
MApiAmModule
  3
MApiAmServices
 90
     1024
 91
        1
280
     0
281
     0
  0
CLASS
  1
AMDTAMMENUSTATE
  2
AmdtAmMenuState
  3
DesignerAssemblies
 90
     1024
 91
        1
280
     0
281
     0
  0
CLASS
  1
ACAMPROJECT
  2
AcAmProject
  3
DesignerAssemblies
 90
     1024
 91
        1
280
     0
281
     0
  0
CLASS
  1
ACAMGRCOMPDEF
  2
AcAmGrCompDef
  3
DesignerAssemblies
 90
     1024
 91
        1
280
     0
281
     0
  0
CLASS
  1
ACAMCOMPDEF
  2
AcAmCompDef
  3
DesignerAssemblies
 90
     1024
 91
        1
280
     0
281
     0
  0
CLASS
  1
ACAMCOMPDEFMGR
  2
AcAmCompDefMgr
  3
DesignerAssemblies
 90
     1024
 91
        1
280
     0
281
     0
  0
CLASS
  1
AMCONTEXTMGR
  2
AcAmContextMgr
  3
DesignerAssemblies
 90
     1024
 91
        1
280
     0
281
     0
  0
CLASS
  1
ACAMCONTEXTMODELER
  2
AcAmContextModeler
  3
DesignerAssemblies
 90
     1024
 91
        1
280
     0
281
     0
  0
CLASS
  1
ACAMGRCOMPDEFSET
  2
AcAmGrCompDefSet
  3
DesignerAssemblies
 90
     1024
 91
        1
280
     0
281
     0
  0
CLASS
  1
AMDTBROWSERDBTAB
  2
AmdtBrowserDbTab
  3
McadcomServices
 90
     1024
 91
        1
280
     0
281
     0
  0
CLASS
  1
CBROWSERAPPOBJECT
  2
CBrowserAppObject
  3
McadcomServices
 90
     1024
 91
        2
280
     0
281
     0
  0
CLASS
  1
DM_PLACEHOLDER
  2
AcDmSelsetPlaceholder
  3
McadcomServices
 90
     1024
 91
        1
280
     0
281
     0
  0
CLASS
  1
AMDTEDGESTANDARDDIN13715
  2
AmdtEdgeStdDIN13715
  3
"Amdt_StdImp|Product Description: AutoCAD Mechanical|Company: Autodesk, Inc."
 90
     1024
 91
        1
280
     0
281
     0
  0
CLASS
  1
ACMSURFSTANDARDDIN2002
  2
AcmSurfTextStdDIN2002
  3
"Amdt_StdImp|Product Description: AutoCAD Mechanical|Company: Autodesk, Inc."
 90
     1024
 91
        1
280
     0
281
     0
  0
CLASS
  1
ACMFCFSTANDARDDIN2008
  2
AcmFCFStdDIN2008
  3
"Amdt_StdImp|Product Description: AutoCAD Mechanical|Company: Autodesk, Inc."
 90
     1024
 91
        1
280
     0
281
     0
  0
CLASS
  1
ACMIDSTANDARDDIN2008
  2
AcmIdStdDIN2008
  3
"Amdt_StdImp|Product Description: AutoCAD Mechanical|Company: Autodesk, Inc."
 90
     1024
 91
        1
280
     0
281
     0
  0
CLASS
  1
ACMTHREADLINESTANDARDDIN
  2
AmdtThreadLineStdDIN
  3
"Amdt_StdImp|Product Description: AutoCAD Mechanical|Company: Autodesk, Inc."
 90
     1024
 91
        1
280
     0
281
     0
  0
CLASS
  1
ACMTAPERSTANDARDDIN
  2
AcmTaperStdDIN
  3
"Amdt_StdImp|Product Description: AutoCAD Mechanical|Company: Autodesk, Inc."
 90
     1024
 91
        1
280
     0
281
     0
  0
CLASS
  1
ACMANOOTATIONVIEWSTANDARDDIN
  2
AmdtAnViewStdDIN
  3
"Amdt_StdImp|Product Description: AutoCAD Mechanical|Company: Autodesk, Inc."
 90
     1024
 91
        1
280
     0
281
     0
  0
CLASS
  1
AMDTNOTETEMPLATEDB
  2
AmdtNoteTemplateDB
  3
AcmSymBB|Product Description: AutoCAD Mechanical|Company: Autodesk, Inc.
 90
     1024
 91
        6
280
     0
281
     0
  0
CLASS
  1
CELLSTYLEMAP
  2
AcDbCellStyleMap
  3
ObjectDBX Classes
 90
     1152
 91
        1
280
     0
281
     0
  0
ENDSEC
  0
SECTION
  2
TABLES
  0
TABLE
  2
VPORT
  5
1A
330
0
100
AcDbSymbolTable
 70
     1
  0
VPORT
  5
21A
330
1A
100
AcDbSymbolTableRecord
100
AcDbViewportTableRecord
  2
*Active
 70
     0
 10
0.0
 20
0.0
 11
1.0
 21
1.0
 12
146.7513694431018
 22
2435.511327711848
 13
0.0
 23
0.0
 14
280.5337337595501
 24
280.5337337595501
 15
10.0
 25
10.0
 16
0.0
 26
0.0
 36
1.0
 17
0.0
 27
0.0
 37
0.0
 40
603.9039880141608
 41
2.095291479820627
 42
50.0
 43
0.0
 44
0.0
 50
0.0
 51
0.0
 71
     0
 72
   100
 73
     1
 74
     1
 75
     0
 76
     0
 77
     0
 78
     0
281
     0
 65
     1
110
0.0
120
0.0
130
0.0
111
1.0
121
0.0
131
0.0
112
0.0
122
1.0
132
0.0
 79
     0
146
0.0
348
240
 60
     3
 61
     5
292
     1
282
     1
141
0.0
142
0.0
 63
   250
421
  3355443
1001
ACAD_NAV_VCDISPLAY
1070
     3
  0
ENDTAB
  0
TABLE
  2
LTYPE
  5
15
330
0
100
AcDbSymbolTable
 70
    21
  0
LTYPE
  5
16
330
15
100
AcDbSymbolTableRecord
100
AcDbLinetypeTableRecord
  2
BYBLOCK
 70
     0
  3

 72
    65
 73
     0
 40
0.0
  0
LTYPE
  5
17
330
15
100
AcDbSymbolTableRecord
100
AcDbLinetypeTableRecord
  2
BYLAYER
 70
     0
  3

 72
    65
 73
     0
 40
0.0
  0
LTYPE
  5
9
330
15
100
AcDbSymbolTableRecord
100
AcDbLinetypeTableRecord
  2
CONTINUOUS
 70
     0
  3
Solid line
 72
    65
 73
     0
 40
0.0
  0
LTYPE
  5
46
330
15
100
AcDbSymbolTableRecord
100
AcDbLinetypeTableRecord
  2
MITTE2
 70
     0
  3
Mitte (.5x) ___ _ ___ _ ___ _ ___ _ ___ _ ___
 72
    65
 73
     4
 40
28.575
 49
19.05
 74
     0
 49
-3.174999999999999
 74
     0
 49
3.174999999999999
 74
     0
 49
-3.174999999999999
 74
     0
  0
LTYPE
  5
279
330
15
100
AcDbSymbolTableRecord
100
AcDbLinetypeTableRecord
  2
HIDDEN
 70
     0
  3
Hidden __ __ __ __ __ __ __ __ __ __ __ __ __ __
 72
    65
 73
     2
 40
9.525
 49
6.349999999999999
 74
     0
 49
-3.174999999999999
 74
     0
  0
LTYPE
  5
27A
330
15
100
AcDbSymbolTableRecord
100
AcDbLinetypeTableRecord
  2
PHANTOM2
 70
     0
  3
Phantom (.5x) ___ _ _ ___ _ _ ___ _ _ ___ _ _
 72
    65
 73
     6
 40
31.75
 49
15.875
 74
     0
 49
-3.174999999999999
 74
     0
 49
3.174999999999999
 74
     0
 49
-3.174999999999999
 74
     0
 49
3.174999999999999
 74
     0
 49
-3.174999999999999
 74
     0
  0
LTYPE
  5
27B
330
15
100
AcDbSymbolTableRecord
100
AcDbLinetypeTableRecord
  2
CENTER
 70
     0
  3
Center ____ _ ____ _ ____ _ ____ _ ____ _ ____
 72
    65
 73
     4
 40
50.8
 49
31.75
 74
     0
 49
-6.349999999999999
 74
     0
 49
6.349999999999999
 74
     0
 49
-6.349999999999999
 74
     0
  0
LTYPE
  5
2B6
330
15
100
AcDbSymbolTableRecord
100
AcDbLinetypeTableRecord
  2
AM_ISO02W050
 70
     0
  3
__ __ __ __ __ __ __ __ __ __ __ __ __ __ __
 72
    65
 73
     2
 40
7.5
 49
6.0
 74
     0
 49
-1.5
 74
     0
  0
LTYPE
  5
2B7
330
15
100
AcDbSymbolTableRecord
100
AcDbLinetypeTableRecord
  2
AM_ISO08W050
 70
     0
  3
____ . ____ . ____ . ____ . ____ . ____ . ____
 72
    65
 73
     4
 40
18.0
 49
12.0
 74
     0
 49
-1.5
 74
     0
 49
3.0
 74
     0
 49
-1.5
 74
     0
  0
LTYPE
  5
2B8
330
15
100
AcDbSymbolTableRecord
100
AcDbLinetypeTableRecord
  2
AM_ISO09W050
 70
     0
  3
_____ . . _____ . . _____ . . ____ .. ____
 72
    65
 73
     6
 40
22.5
 49
12.0
 74
     0
 49
-1.5
 74
     0
 49
3.0
 74
     0
 49
-1.5
 74
     0
 49
3.0
 74
     0
 49
-1.5
 74
     0
  0
LTYPE
  5
2B9
330
15
100
AcDbSymbolTableRecord
100
AcDbLinetypeTableRecord
  2
Amconstr
 70
     0
  3
_______________________
 72
    65
 73
     2
 40
9999.0
 49
9999.0
 74
     0
 49
0.0
 74
     0
  0
LTYPE
  5
2BA
330
15
100
AcDbSymbolTableRecord
100
AcDbLinetypeTableRecord
  2
AM_ISO08W050x2
 70
     0
  3
__ . __ . __ . __ . __ . __
 72
    65
 73
     4
 40
9.0
 49
6.0
 74
     0
 49
-0.75
 74
     0
 49
1.5
 74
     0
 49
-0.75
 74
     0
  0
LTYPE
  5
2BB
330
15
100
AcDbSymbolTableRecord
100
AcDbLinetypeTableRecord
  2
AM_ISO02W050x2
 70
     0
  3
 _ _ _ _ _ _ _ _ _ _ _ _
 72
    65
 73
     2
 40
3.75
 49
3.0
 74
     0
 49
-0.75
 74
     0
  0
LTYPE
  5
2BE
330
15
100
AcDbSymbolTableRecord
100
AcDbLinetypeTableRecord
  2
Amzigzag
 70
     0
  3
/\/-/\/-/\/-/\/-/\/-/\/
 72
    65
 73
     2
 40
11.0001
 49
0.0001
 74
     4
 75
   136
340
2BD
 46
0.04
 50
0.0
 44
0.0
 45
0.0
 49
-11.0
 74
     0
  0
LTYPE
  5
2BF
330
15
100
AcDbSymbolTableRecord
100
AcDbLinetypeTableRecord
  2
AM_DIN_F_W050
 70
     0
  3
__ __ __ __ __ __ __ __ __ __ __ __ __ __ __
 72
    65
 73
     2
 40
6.25
 49
4.75
 74
     0
 49
-1.5
 74
     0
  0
LTYPE
  5
2C0
330
15
100
AcDbSymbolTableRecord
100
AcDbLinetypeTableRecord
  2
AM_DIN_G_W050
 70
     0
  3
____ . ____ . ____ . ____ . ____ . ____ . ____
 72
    65
 73
     4
 40
13.75
 49
9.75
 74
     0
 49
-1.5
 74
     0
 49
1.0
 74
     0
 49
-1.5
 74
     0
  0
LTYPE
  5
2C1
330
15
100
AcDbSymbolTableRecord
100
AcDbLinetypeTableRecord
  2
AM_DIN_K_W050
 70
     0
  3
_____ . . _____ . . _____ . . ____ .. ____
 72
    65
 73
     6
 40
16.25
 49
9.75
 74
     0
 49
-1.5
 74
     0
 49
1.0
 74
     0
 49
-1.5
 74
     0
 49
1.0
 74
     0
 49
-1.5
 74
     0
  0
LTYPE
  5
2C2
330
15
100
AcDbSymbolTableRecord
100
AcDbLinetypeTableRecord
  2
AM_DIN_G_W050x2
 70
     0
  3
__ . __ . __ . __ . __ . __
 72
    65
 73
     4
 40
6.875
 49
4.75
 74
     0
 49
-0.875
 74
     0
 49
0.375
 74
     0
 49
-0.875
 74
     0
  0
LTYPE
  5
2C3
330
15
100
AcDbSymbolTableRecord
100
AcDbLinetypeTableRecord
  2
AM_DIN_F_W050x2
 70
     0
  3
 _ _ _ _ _ _ _ _ _ _ _ _
 72
    65
 73
     2
 40
3.125
 49
2.25
 74
     0
 49
-0.875
 74
     0
  0
LTYPE
  5
2D2
330
15
100
AcDbSymbolTableRecord
100
AcDbLinetypeTableRecord
  2
ACDINWELD
 70
     0
  3
_ _ _ _ _
 72
    65
 73
     2
 40
2.0
 49
2.0
 74
     0
 49
-1.0
 74
     0
  0
LTYPE
  5
2D3
330
15
100
AcDbSymbolTableRecord
100
AcDbLinetypeTableRecord
  2
ACDINTGL
 70
     0
  3
_ _ _ _ _
 72
    65
 73
     2
 40
3.0
 49
2.0
 74
     0
 49
-1.0
 74
     0
  0
LTYPE
  5
2D4
330
15
100
AcDbSymbolTableRecord
100
AcDbLinetypeTableRecord
  2
ACDINTGB
 70
     0
  3
__ . . __ . .
 72
    65
 73
     6
 40
9.0
 49
4.0
 74
     0
 49
-1.0
 74
     0
 49
1.0
 74
     0
 49
-1.0
 74
     0
 49
1.0
 74
     0
 49
-1.0
 74
     0
  0
ENDTAB
  0
TABLE
  2
LAYER
  5
11
330
0
100
AcDbSymbolTable
 70
     2
  0
LAYER
  5
5
102
{ACAD_XDICTIONARY
360
2E9
102
}
330
11
100
AcDbSymbolTableRecord
100
AcDbLayerTableRecord
  2
0
 70
     0
 62
     7
  6
CONTINUOUS
370
    -3
390
6
347
232
  0
LAYER
  5
26
102
{ACAD_XDICTIONARY
360
2EB
102
}
330
11
100
AcDbSymbolTableRecord
100
AcDbLayerTableRecord
  2
Halfen
 70
     0
 62
     2
  6
CONTINUOUS
370
    -3
390
6
347
232
  0
ENDTAB
  0
TABLE
  2
STYLE
  5
12
330
0
100
AcDbSymbolTable
 70
     5
  0
STYLE
  5
13
330
12
100
AcDbSymbolTableRecord
100
AcDbTextStyleTableRecord
  2
STANDARD
 70
     0
 40
0.0
 41
1.0
 50
0.0
 71
     0
 42
0.2
  3
ISOCP.SHX
  4

  0
STYLE
  5
27
330
12
100
AcDbSymbolTableRecord
100
AcDbTextStyleTableRecord
  2
ARIAL50
 70
     0
 40
5.0
 41
1.0
 50
0.0
 71
     0
 42
3.5
  3
ARIAL.TTF
  4

1001
ACAD
1000
Arial
1071
       34
  0
STYLE
  5
2BD
330
12
100
AcDbSymbolTableRecord
100
AcDbTextStyleTableRecord
  2

 70
     1
 40
0.0
 41
1.0
 50
0.0
 71
     0
 42
3.5
  3
genltshp.shx
  4

  0
STYLE
  5
2D0
330
12
100
AcDbSymbolTableRecord
100
AcDbTextStyleTableRecord
  2
ACDINTS
 70
     0
 40
1.0
 41
1.0
 50
0.0
 71
     0
 42
3.5
  3
isocp.shx
  4

  0
STYLE
  5
2D1
330
12
100
AcDbSymbolTableRecord
100
AcDbTextStyleTableRecord
  2
ACDINGDT
 70
     0
 40
0.0
 41
1.0
 50
0.0
 71
     0
 42
3.5
  3
amgdt.shx
  4

  0
ENDTAB
  0
TABLE
  2
VIEW
  5
18
330
0
100
AcDbSymbolTable
 70
     0
  0
ENDTAB
  0
TABLE
  2
UCS
  5
19
330
0
100
AcDbSymbolTable
 70
     0
  0
ENDTAB
  0
TABLE
  2
APPID
  5
1C
330
0
100
AcDbSymbolTable
 70
    10
  0
APPID
  5
1D
330
1C
100
AcDbSymbolTableRecord
100
AcDbRegAppTableRecord
  2
ACAD
 70
     0
  0
APPID
  5
1FB
330
1C
100
AcDbSymbolTableRecord
100
AcDbRegAppTableRecord
  2
DCO15
 70
     0
  0
APPID
  5
272
330
1C
100
AcDbSymbolTableRecord
100
AcDbRegAppTableRecord
  2
MCAD_NO_VIS
 70
     0
  0
APPID
  5
273
330
1C
100
AcDbSymbolTableRecord
100
AcDbRegAppTableRecord
  2
ACAD_TEMP_GRAPHIC
 70
     0
  0
APPID
  5
280
330
1C
100
AcDbSymbolTableRecord
100
AcDbRegAppTableRecord
  2
ACATTRIBSERVICES
 70
     0
  0
APPID
  5
298
330
1C
100
AcDbSymbolTableRecord
100
AcDbRegAppTableRecord
  2
DESIGNERASSEMBLIES
 70
     0
  0
APPID
  5
2B3
330
1C
100
AcDbSymbolTableRecord
100
AcDbRegAppTableRecord
  2
ACAD_DSTYLE_DIMJAG
 70
     0
  0
APPID
  5
2B4
330
1C
100
AcDbSymbolTableRecord
100
AcDbRegAppTableRecord
  2
ACAD_DSTYLE_DIMBREAK
 70
     0
  0
APPID
  5
2DB
330
1C
100
AcDbSymbolTableRecord
100
AcDbRegAppTableRecord
  2
ACAD_NAV_VCDISPLAY
 70
     0
  0
APPID
  5
2E4
330
1C
100
AcDbSymbolTableRecord
100
AcDbRegAppTableRecord
  2
ACAD_EXEMPT_FROM_CAD_STANDARDS
 70
     0
  0
ENDTAB
  0
TABLE
  2
DIMSTYLE
  5
1E
330
0
100
AcDbSymbolTable
 70
     8
100
AcDbDimStyleTable
 71
     0
  0
DIMSTYLE
105
2A
330
1E
100
AcDbSymbolTableRecord
100
AcDbDimStyleTableRecord
  2
GEN-ISO
 70
     0
 41
2.5
 42
1.0
 43
10.0
 44
1.0
 47
0.1
 48
0.1
 73
     0
 74
     0
 77
     1
 78
     8
140
3.5
141
0.0
143
0.0393701
146
0.71
147
3.0
172
     1
176
     1
177
     1
178
     7
271
     1
272
     3
274
     4
283
     0
340
13
  0
DIMSTYLE
105
2B2
102
{ACAD_REACTORS
330
2A1
102
}
330
1E
100
AcDbSymbolTableRecord
100
AcDbDimStyleTableRecord
  2
AM_DIN
 70
     0
  4
"
 41
3.5
 42
1.0
 43
10.0
 44
1.0
 47
0.1
 48
0.1
 50
90.0
 73
     0
 74
     0
 77
     1
 78
     8
 79
     2
140
3.5
141
0.0
143
0.0393701
146
0.71
147
1.5
172
     1
176
   256
177
   256
178
     2
271
     2
272
     3
274
     4
283
     0
284
     8
340
13
345
16
346
16
347
16
371
    -1
372
    -1
1001
ACAD_DSTYLE_DIMJAG
1070
   388
1040
1.5
1001
ACAD_DSTYLE_DIMBREAK
1070
   391
1040
3.75
  0
DIMSTYLE
105
2C4
330
1E
100
AcDbSymbolTableRecord
100
AcDbDimStyleTableRecord
  2
AM_DIN$3
 70
     0
  4
"
 41
3.5
 42
1.0
 43
10.0
 44
1.0
 47
0.1
 48
0.1
 50
90.0
 73
     0
 77
     1
 78
     8
 79
     2
140
3.5
141
0.0
143
0.0393701
146
0.71
147
1.5
176
   256
177
   256
178
     2
271
     2
272
     3
274
     4
283
     0
284
     8
288
     1
289
     0
340
13
345
16
346
16
347
16
371
    -1
372
    -1
1001
ACAD_DSTYLE_DIMBREAK
1070
   391
1040
3.75
1001
ACAD_DSTYLE_DIMJAG
1070
   388
1040
1.5
  0
DIMSTYLE
105
2C5
330
1E
100
AcDbSymbolTableRecord
100
AcDbDimStyleTableRecord
  2
AM_DIN$4
 70
     0
  4
"
 41
3.5
 42
1.0
 43
10.0
 44
1.0
 47
0.1
 48
0.1
 50
90.0
 73
     0
 77
     1
 78
     8
 79
     2
140
3.5
141
0.0
143
0.0393701
146
0.71
147
1.5
176
   256
177
   256
178
     2
271
     2
272
     3
274
     4
283
     0
284
     8
288
     1
289
     0
340
13
345
16
346
16
347
16
371
    -1
372
    -1
1001
ACAD_DSTYLE_DIMBREAK
1070
   391
1040
3.75
1001
ACAD_DSTYLE_DIMJAG
1070
   388
1040
1.5
  0
DIMSTYLE
105
2C6
330
1E
100
AcDbSymbolTableRecord
100
AcDbDimStyleTableRecord
  2
AM_DIN$6
 70
     0
  4
"
 41
3.5
 42
1.0
 43
10.0
 44
1.0
 47
0.1
 48
0.1
 50
90.0
 73
     0
 74
     0
 78
     8
 79
     2
140
3.5
141
0.0
143
0.0393701
146
0.71
147
1.5
172
     1
176
   256
177
   256
178
     2
271
     2
272
     3
274
     4
283
     0
284
     8
340
13
345
16
346
16
347
16
371
    -1
372
    -1
1001
ACAD_DSTYLE_DIMBREAK
1070
   391
1040
3.75
1001
ACAD_DSTYLE_DIMJAG
1070
   388
1040
1.5
  0
DIMSTYLE
105
2C7
330
1E
100
AcDbSymbolTableRecord
100
AcDbDimStyleTableRecord
  2
AM_DIN$7
 70
     0
  4
"
 41
3.5
 42
1.0
 43
10.0
 44
1.0
 47
0.1
 48
0.1
 50
90.0
 73
     0
 74
     0
 77
     1
 78
     8
 79
     2
140
3.5
141
0.0
143
0.0393701
146
0.71
147
1.5
172
     1
176
   256
177
   256
178
     2
271
     2
272
     3
274
     4
283
     0
284
     8
340
13
345
16
346
16
347
16
371
    -1
372
    -1
1001
ACAD_DSTYLE_DIMBREAK
1070
   391
1040
3.75
1001
ACAD_DSTYLE_DIMJAG
1070
   388
1040
1.5
  0
DIMSTYLE
105
2C8
330
1E
100
AcDbSymbolTableRecord
100
AcDbDimStyleTableRecord
  2
AM_DIN$SF
 70
     0
  4
"
 41
3.5
 42
1.0
 43
10.0
 44
1.0
 47
0.1
 48
0.1
 50
90.0
 73
     0
 74
     0
 75
     1
 76
     1
 77
     1
 78
     8
 79
     2
140
3.5
141
0.0
143
0.0393701
146
0.71
147
1.5
172
     1
176
   256
177
   256
178
     2
271
     2
272
     3
274
     4
283
     0
284
     8
340
13
345
16
346
16
347
16
371
    -1
372
    -1
1001
ACAD_DSTYLE_DIMBREAK
1070
   391
1040
3.75
1001
ACAD_DSTYLE_DIMJAG
1070
   388
1040
1.5
  0
DIMSTYLE
105
2CD
330
1E
100
AcDbSymbolTableRecord
100
AcDbDimStyleTableRecord
  2
AM_DIN$SH
 70
     0
  4
"
 41
3.5
 42
1.0
 43
10.0
 44
1.0
 47
0.1
 48
0.1
 50
90.0
 73
     0
 74
     0
 75
     1
 76
     1
 77
     1
 78
     8
 79
     2
140
3.5
141
0.0
143
0.0393701
144
2.0
146
0.71
147
1.5
172
     1
173
     1
176
   256
177
   256
178
     2
271
     2
272
     3
274
     4
283
     0
284
     8
340
13
343
2C9
345
16
346
16
347
16
371
    -1
372
    -1
1001
ACAD_DSTYLE_DIMBREAK
1070
   391
1040
3.75
1001
ACAD_DSTYLE_DIMJAG
1070
   388
1040
1.5
  0
ENDTAB
  0
TABLE
  2
BLOCK_RECORD
  5
1
330
0
100
AcDbSymbolTable
 70
     2
  0
BLOCK_RECORD
  5
2
102
{ACAD_XDICTIONARY
360
3
102
}
330
1
100
AcDbSymbolTableRecord
100
AcDbBlockTableRecord
  2
*MODEL_SPACE
340
B
 70
     0
280
     1
281
     0
  0
BLOCK_RECORD
  5
D
330
1
100
AcDbSymbolTableRecord
100
AcDbBlockTableRecord
  2
*PAPER_SPACE
340
10
 70
     0
280
     1
281
     0
  0
BLOCK_RECORD
  5
2C9
330
1
100
AcDbSymbolTableRecord
100
AcDbBlockTableRecord
  2
GENAXEH
340
0
 70
     0
280
     1
281
     0
  0
ENDTAB
  0
ENDSEC
  0
SECTION
  2
BLOCKS
  0
BLOCK
  5
4
330
2
100
AcDbEntity
  8
0
100
AcDbBlockBegin
  2
*MODEL_SPACE
 70
     0
 10
0.0
 20
0.0
 30
0.0
  3
*MODEL_SPACE
  1

  0
ENDBLK
  5
A
330
2
100
AcDbEntity
  8
0
100
AcDbBlockEnd
  0
BLOCK
  5
E
330
D
100
AcDbEntity
 67
     1
  8
0
100
AcDbBlockBegin
  2
*PAPER_SPACE
 70
     0
 10
0.0
 20
0.0
 30
0.0
  3
*PAPER_SPACE
  1

  0
ENDBLK
  5
F
330
D
100
AcDbEntity
 67
     1
  8
0
100
AcDbBlockEnd
  0
BLOCK
  5
2CB
330
2C9
100
AcDbEntity
  8
0
100
AcDbBlockBegin
  2
GENAXEH
 70
     0
 10
0.0
 20
0.0
 30
0.0
  3
GENAXEH
  1

  0
LINE
  5
2CA
330
2C9
100
AcDbEntity
  8
0
100
AcDbLine
 10
-1.0
 20
0.0
 30
0.0
 11
1.0
 21
0.0
 31
0.0
  0
ENDBLK
  5
2CC
330
2C9
100
AcDbEntity
  8
0
100
AcDbBlockEnd
  0
ENDSEC
  0
SECTION
  2
ENTITIES
  0
TEXT
  5
2B
330
2
100
AcDbEntity
  8
Halfen
100
AcDbText
 10
-162.7499999999996
 20
2444.749755004997
 30
0.0
 40
5.0
  1
0003.060-00001
  7
ARIAL50
100
AcDbText
  0
TEXT
  5
2C
330
2
100
AcDbEntity
  8
Halfen
100
AcDbText
 10
-162.7499999999996
 20
2462.749755004997
 30
0.0
 40
5.0
  1
HGB - EE - 40/25 - 170/170 - A4
  7
ARIAL50
100
AcDbText
  0
LINE
  5
2D
330
2
100
AcDbEntity
  8
Halfen
100
AcDbLine
 10
-217.7499999999997
 20
2442.249755004997
 30
0.0
 11
-57.74999999999963
 21
2442.249755004997
 31
0.0
  0
LINE
  5
2E
330
2
100
AcDbEntity
  8
Halfen
100
AcDbLine
 10
-217.7499999999997
 20
2452.249755004997
 30
0.0
 11
-57.74999999999963
 21
2452.249755004997
 31
0.0
  0
LINE
  5
2F
330
2
100
AcDbEntity
  8
Halfen
100
AcDbLine
 10
-217.7499999999997
 20
2470.249755004997
 30
0.0
 11
-57.74999999999963
 21
2470.249755004997
 31
0.0
  0
TEXT
  5
30
330
2
100
AcDbEntity
  8
Halfen
100
AcDbText
 10
-212.7499999999997
 20
2462.749755004997
 30
0.0
 40
5.0
  1
Benennung
  7
ARIAL50
100
AcDbText
  0
TEXT
  5
31
330
2
100
AcDbEntity
  8
Halfen
100
AcDbText
 10
-212.7499999999997
 20
2444.749755004997
 30
0.0
 40
5.0
  1
Id. Nr.
  7
ARIAL50
100
AcDbText
  0
LINE
  5
32
330
2
100
AcDbEntity
  8
Halfen
100
AcDbLine
 10
-217.7499999999997
 20
2442.249755004997
 30
0.0
 11
-217.7499999999997
 21
2470.249755004997
 31
0.0
  0
LINE
  5
33
330
2
100
AcDbEntity
  8
Halfen
100
AcDbLine
 10
-167.7499999999996
 20
2442.249755004997
 30
0.0
 11
-167.7499999999996
 21
2470.249755004997
 31
0.0
  0
LINE
  5
34
330
2
100
AcDbEntity
  8
Halfen
100
AcDbLine
 10
-57.74999999999963
 20
2442.249755004997
 30
0.0
 11
-57.74999999999963
 21
2470.249755004997
 31
0.0
  0
LINE
  5
35
330
2
100
AcDbEntity
  8
Halfen
100
AcDbLine
 10
-217.75
 20
2735.249999999998
 30
0.0
 11
-57.75
 21
2735.249999999998
 31
0.0
  0
LINE
  5
36
330
2
100
AcDbEntity
  8
Halfen
100
AcDbLine
 10
-217.75
 20
2717.249999999998
 30
0.0
 11
-57.75
 21
2717.249999999998
 31
0.0
  0
LINE
  5
37
330
2
100
AcDbEntity
  8
Halfen
100
AcDbLine
 10
-217.75
 20
2707.249999999998
 30
0.0
 11
-57.75
 21
2707.249999999998
 31
0.0
  0
TEXT
  5
38
330
2
100
AcDbEntity
  8
Halfen
100
AcDbText
 10
-162.75
 20
2727.749999999999
 30
0.0
 40
5.0
  1
HGB - E - 40/25 - 100 - A4
  7
ARIAL50
100
AcDbText
  0
TEXT
  5
39
330
2
100
AcDbEntity
  8
Halfen
100
AcDbText
 10
-162.75
 20
2709.749999999998
 30
0.0
 40
5.0
  1
0003.020-00001
  7
ARIAL50
100
AcDbText
  0
TEXT
  5
3A
330
2
100
AcDbEntity
  8
Halfen
100
AcDbText
 10
-212.75
 20
2709.749999999998
 30
0.0
 40
5.0
  1
Id. Nr.
  7
ARIAL50
100
AcDbText
  0
TEXT
  5
3B
330
2
100
AcDbEntity
  8
Halfen
100
AcDbText
 10
-212.75
 20
2727.749999999999
 30
0.0
 40
5.0
  1
Benennung
  7
ARIAL50
100
AcDbText
  0
LINE
  5
3C
330
2
100
AcDbEntity
  8
Halfen
100
AcDbLine
 10
-217.75
 20
2707.249999999998
 30
0.0
 11
-217.75
 21
2735.249999999998
 31
0.0
  0
LINE
  5
3D
330
2
100
AcDbEntity
  8
Halfen
100
AcDbLine
 10
-167.75
 20
2707.249999999998
 30
0.0
 11
-167.75
 21
2735.249999999998
 31
0.0
  0
LINE
  5
3E
330
2
100
AcDbEntity
  8
Halfen
100
AcDbLine
 10
-57.75
 20
2707.249999999998
 30
0.0
 11
-57.75
 21
2735.249999999998
 31
0.0
  0
LINE
  5
3F
330
2
100
AcDbEntity
  8
Halfen
100
AcDbLine
 10
-157.7499999999998
 20
2572.249755004996
 30
0.0
 11
-57.74999999999988
 21
2572.249755004996
 31
0.0
  0
LINE
  5
40
330
2
100
AcDbEntity
  8
Halfen
100
AcDbLine
 10
-157.7499999999998
 20
2597.249999999999
 30
0.0
 11
-57.74999999999988
 21
2597.249999999999
 31
0.0
  0
LINE
  5
41
330
2
100
AcDbEntity
  8
Halfen
100
AcDbLine
 10
-157.7499999999998
 20
2552.249755004997
 30
0.0
 11
-57.74999999999988
 21
2552.249755004997
 31
0.0
  0
LINE
  5
42
330
2
100
AcDbEntity
  8
Halfen
100
AcDbLine
 10
-157.7499999999998
 20
2541.249755004997
 30
0.0
 11
-57.74999999999988
 21
2541.249755004997
 31
0.0
  0
LINE
  5
43
330
2
100
AcDbEntity
  8
Halfen
100
AcDbLine
 10
-157.7499999999998
 20
2523.249755004996
 30
0.0
 11
-57.74999999999988
 21
2523.249755004997
 31
0.0
  0
LINE
  5
44
330
2
100
AcDbEntity
  8
Halfen
100
AcDbLine
 10
-157.7499999999998
 20
2512.249755004997
 30
0.0
 11
-57.74999999999988
 21
2512.249755004996
 31
0.0
  0
LINE
  5
45
330
2
100
AcDbEntity
  8
Halfen
  6
MITTE2
 62
     1
100
AcDbLine
 10
-197.7499999999999
 20
2687.249999999998
 30
0.0
 11
-197.75
 21
2572.249755004996
 31
0.0
  0
LINE
  5
47
330
2
100
AcDbEntity
  8
Halfen
100
AcDbLine
 10
-157.7499999999998
 20
2552.249755004997
 30
0.0
 11
-157.7499999999998
 21
2512.249755004997
 31
0.0
  0
LINE
  5
48
330
2
100
AcDbEntity
  8
Halfen
100
AcDbLine
 10
-206.75
 20
2575.538064647345
 30
0.0
 11
-211.3460576093582
 21
2572.836009356374
 31
0.0
  0
LINE
  5
49
330
2
100
AcDbEntity
  8
Halfen
100
AcDbLine
 10
-206.75
 20
2575.538064647345
 30
0.0
 11
-208.1437274292389
 21
2577.908723596454
 31
0.0
  0
LINE
  5
4A
330
2
100
AcDbEntity
  8
Halfen
100
AcDbLine
 10
-214.0
 20
2594.499999999998
 30
0.0
 11
-181.4999999999999
 21
2594.499999999998
 31
0.0
  0
LINE
  5
4B
330
2
100
AcDbEntity
  8
Halfen
100
AcDbLine
 10
-214.0
 20
2597.249999999998
 30
0.0
 11
-181.4999999999999
 21
2597.249999999998
 31
0.0
  0
ARC
  5
4C
330
2
100
AcDbEntity
  8
Halfen
100
AcDbCircle
 10
-213.5
 20
2576.499755004996
 30
0.0
 40
4.25
100
AcDbArc
 50
180.0
 51
300.4515763634802
  0
ARC
  5
4D
330
2
100
AcDbEntity
  8
Halfen
100
AcDbCircle
 10
-213.5
 20
2576.499755004996
 30
0.0
 40
1.5
100
AcDbArc
 50
180.0
 51
300.4515763634858
  0
LINE
  5
4E
330
2
100
AcDbEntity
  8
Halfen
100
AcDbLine
 10
-215.0
 20
2593.499999999998
 30
0.0
 11
-215.0
 21
2576.499755004996
 31
0.0
  0
ARC
  5
4F
330
2
100
AcDbEntity
  8
Halfen
100
AcDbCircle
 10
-214.0
 20
2593.499999999998
 30
0.0
 40
1.0
100
AcDbArc
 50
90.0
 51
180.0
  0
LINE
  5
50
330
2
100
AcDbEntity
  8
Halfen
100
AcDbLine
 10
-208.1437274292389
 20
2577.908723596454
 30
0.0
 11
-212.7397850385968
 21
2575.206668305483
 31
0.0
  0
LINE
  5
51
330
2
100
AcDbEntity
  8
Halfen
100
AcDbLine
 10
-217.75
 20
2593.499999999998
 30
0.0
 11
-217.75
 21
2576.499755004996
 31
0.0
  0
ARC
  5
52
330
2
100
AcDbEntity
  8
Halfen
100
AcDbCircle
 10
-214.0
 20
2593.499999999998
 30
0.0
 40
3.75
100
AcDbArc
 50
90.0
 51
180.0
  0
ARC
  5
53
330
2
100
AcDbEntity
  8
Halfen
100
AcDbCircle
 10
-181.9999999999999
 20
2576.499755004996
 30
0.0
 40
4.25
100
AcDbArc
 50
239.5484236365198
 51
0.0
  0
LINE
  5
54
330
2
100
AcDbEntity
  8
Halfen
100
AcDbLine
 10
-188.7499999999999
 20
2575.538064647345
 30
0.0
 11
-184.1539423906417
 21
2572.836009356374
 31
0.0
  0
LINE
  5
55
330
2
100
AcDbEntity
  8
Halfen
100
AcDbLine
 10
-177.7499999999998
 20
2593.499999999998
 30
0.0
 11
-177.7499999999999
 21
2576.499755004996
 31
0.0
  0
ARC
  5
56
330
2
100
AcDbEntity
  8
Halfen
100
AcDbCircle
 10
-181.9999999999999
 20
2576.499755004996
 30
0.0
 40
1.5
100
AcDbArc
 50
239.5484236365142
 51
0.0
  0
LINE
  5
57
330
2
100
AcDbEntity
  8
Halfen
100
AcDbLine
 10
-187.3562725707611
 20
2577.908723596454
 30
0.0
 11
-182.7602149614031
 21
2575.206668305483
 31
0.0
  0
LINE
  5
58
330
2
100
AcDbEntity
  8
Halfen
100
AcDbLine
 10
-180.4999999999999
 20
2593.499999999998
 30
0.0
 11
-180.4999999999999
 21
2576.499755004996
 31
0.0
  0
LINE
  5
59
330
2
100
AcDbEntity
  8
Halfen
100
AcDbLine
 10
-188.7499999999999
 20
2575.538064647345
 30
0.0
 11
-187.3562725707611
 21
2577.908723596454
 31
0.0
  0
LINE
  5
5A
330
2
100
AcDbEntity
  8
Halfen
100
AcDbLine
 10
-157.7499999999998
 20
2597.249999999999
 30
0.0
 11
-157.7499999999998
 21
2572.249755004996
 31
0.0
  0
ARC
  5
5B
330
2
100
AcDbEntity
  8
Halfen
100
AcDbCircle
 10
-181.4999999999999
 20
2593.499999999998
 30
0.0
 40
3.75
100
AcDbArc
 50
0.0
 51
90.0
  0
ARC
  5
5C
330
2
100
AcDbEntity
  8
Halfen
100
AcDbCircle
 10
-181.4999999999999
 20
2593.499999999998
 30
0.0
 40
1.0
100
AcDbArc
 50
0.0
 51
90.0
  0
LINE
  5
5D
330
2
100
AcDbEntity
  8
Halfen
100
AcDbLine
 10
-57.74999999999988
 20
2552.249755004997
 30
0.0
 11
-57.74999999999988
 21
2512.249755004996
 31
0.0
  0
LINE
  5
5E
330
2
100
AcDbEntity
  8
Halfen
100
AcDbLine
 10
-57.74999999999988
 20
2597.249999999999
 30
0.0
 11
-57.74999999999988
 21
2572.249755004996
 31
0.0
  0
TEXT
  5
5F
330
2
100
AcDbEntity
  8
Halfen
100
AcDbText
 10
47.25
 20
2709.749999999998
 30
0.0
 40
5.0
  1
0003.020-00003
  7
ARIAL50
100
AcDbText
  0
TEXT
  5
60
330
2
100
AcDbEntity
  8
Halfen
100
AcDbText
 10
47.25
 20
2727.749999999999
 30
0.0
 40
5.0
  1
HGB - E - 40/25 - 150 - A4
  7
ARIAL50
100
AcDbText
  0
LINE
  5
61
330
2
100
AcDbEntity
  8
Halfen
100
AcDbLine
 10
-7.75
 20
2735.249999999998
 30
0.0
 11
152.25
 21
2735.249999999998
 31
0.0
  0
LINE
  5
62
330
2
100
AcDbEntity
  8
Halfen
100
AcDbLine
 10
-7.75
 20
2717.249999999998
 30
0.0
 11
152.25
 21
2717.249999999998
 31
0.0
  0
LINE
  5
63
330
2
100
AcDbEntity
  8
Halfen
100
AcDbLine
 10
-7.75
 20
2707.249999999998
 30
0.0
 11
152.25
 21
2707.249999999998
 31
0.0
  0
TEXT
  5
64
330
2
100
AcDbEntity
  8
Halfen
100
AcDbText
 10
-2.75
 20
2727.749999999999
 30
0.0
 40
5.0
  1
Benennung
  7
ARIAL50
100
AcDbText
  0
TEXT
  5
65
330
2
100
AcDbEntity
  8
Halfen
100
AcDbText
 10
-2.75
 20
2709.749999999998
 30
0.0
 40
5.0
  1
Id. Nr.
  7
ARIAL50
100
AcDbText
  0
LINE
  5
66
330
2
100
AcDbEntity
  8
Halfen
100
AcDbLine
 10
-7.75
 20
2707.249999999998
 30
0.0
 11
-7.75
 21
2735.249999999998
 31
0.0
  0
LINE
  5
67
330
2
100
AcDbEntity
  8
Halfen
100
AcDbLine
 10
42.25
 20
2707.249999999998
 30
0.0
 11
42.25
 21
2735.249999999998
 31
0.0
  0
LINE
  5
68
330
2
100
AcDbEntity
  8
Halfen
100
AcDbLine
 10
152.25
 20
2707.249999999998
 30
0.0
 11
152.25
 21
2735.249999999998
 31
0.0
  0
TEXT
  5
69
330
2
100
AcDbEntity
  8
Halfen
100
AcDbText
 10
307.2500000000001
 20
2709.749999999998
 30
0.0
 40
5.0
  1
0003.020-00004
  7
ARIAL50
100
AcDbText
  0
TEXT
  5
6A
330
2
100
AcDbEntity
  8
Halfen
100
AcDbText
 10
307.2500000000001
 20
2727.749999999999
 30
0.0
 40
5.0
  1
HGB - E - 40/25 - 200 - A4
  7
ARIAL50
100
AcDbText
  0
LINE
  5
6B
330
2
100
AcDbEntity
  8
Halfen
100
AcDbLine
 10
252.2500000000001
 20
2735.249999999998
 30
0.0
 11
412.2500000000001
 21
2735.249999999998
 31
0.0
  0
LINE
  5
6C
330
2
100
AcDbEntity
  8
Halfen
100
AcDbLine
 10
252.2500000000001
 20
2717.249999999998
 30
0.0
 11
412.2500000000001
 21
2717.249999999998
 31
0.0
  0
LINE
  5
6D
330
2
100
AcDbEntity
  8
Halfen
100
AcDbLine
 10
252.2500000000001
 20
2707.249999999998
 30
0.0
 11
412.2500000000001
 21
2707.249999999998
 31
0.0
  0
TEXT
  5
6E
330
2
100
AcDbEntity
  8
Halfen
100
AcDbText
 10
257.2500000000001
 20
2727.749999999999
 30
0.0
 40
5.0
  1
Benennung
  7
ARIAL50
100
AcDbText
  0
TEXT
  5
6F
330
2
100
AcDbEntity
  8
Halfen
100
AcDbText
 10
257.2500000000001
 20
2709.749999999998
 30
0.0
 40
5.0
  1
Id. Nr.
  7
ARIAL50
100
AcDbText
  0
LINE
  5
70
330
2
100
AcDbEntity
  8
Halfen
100
AcDbLine
 10
252.2500000000001
 20
2707.249999999998
 30
0.0
 11
252.2500000000001
 21
2735.249999999998
 31
0.0
  0
LINE
  5
71
330
2
100
AcDbEntity
  8
Halfen
100
AcDbLine
 10
302.2500000000001
 20
2707.249999999998
 30
0.0
 11
302.2500000000001
 21
2735.249999999998
 31
0.0
  0
LINE
  5
72
330
2
100
AcDbEntity
  8
Halfen
100
AcDbLine
 10
412.2500000000001
 20
2707.249999999998
 30
0.0
 11
412.2500000000001
 21
2735.249999999998
 31
0.0
  0
LINE
  5
73
330
2
100
AcDbEntity
  8
Halfen
100
AcDbLine
 10
-147.7499999999999
 20
2687.249999999999
 30
0.0
 11
-117.7499999999999
 21
2687.249999999999
 31
0.0
  0
LINE
  5
74
330
2
100
AcDbEntity
  8
Halfen
100
AcDbLine
 10
-147.7499999999999
 20
2683.749999999999
 30
0.0
 11
-117.7499999999999
 21
2683.749999999999
 31
0.0
  0
LINE
  5
75
330
2
100
AcDbEntity
  8
Halfen
100
AcDbLine
 10
-137.7499999999999
 20
2680.249999999999
 30
0.0
 11
-127.7499999999999
 21
2680.249999999999
 31
0.0
  0
LINE
  5
76
330
2
100
AcDbEntity
  8
Halfen
100
AcDbLine
 10
-127.7499999999999
 20
2680.249999999999
 30
0.0
 11
-127.7499999999999
 21
2597.249999999999
 31
0.0
  0
LINE
  5
77
330
2
100
AcDbEntity
  8
Halfen
100
AcDbLine
 10
-137.7499999999999
 20
2680.249999999999
 30
0.0
 11
-137.7499999999999
 21
2597.249999999999
 31
0.0
  0
LINE
  5
78
330
2
100
AcDbEntity
  8
Halfen
100
AcDbLine
 10
-127.7499999999999
 20
2680.249999999999
 30
0.0
 11
-117.7499999999999
 21
2683.749999999999
 31
0.0
  0
LINE
  5
79
330
2
100
AcDbEntity
  8
Halfen
100
AcDbLine
 10
-117.7499999999999
 20
2683.749999999999
 30
0.0
 11
-117.7499999999999
 21
2687.249999999999
 31
0.0
  0
LINE
  5
7A
330
2
100
AcDbEntity
  8
Halfen
100
AcDbLine
 10
-137.7499999999999
 20
2680.249999999999
 30
0.0
 11
-147.7499999999999
 21
2683.749999999999
 31
0.0
  0
LINE
  5
7B
330
2
100
AcDbEntity
  8
Halfen
100
AcDbLine
 10
-147.7499999999999
 20
2683.749999999999
 30
0.0
 11
-147.7499999999999
 21
2687.249999999999
 31
0.0
  0
ARC
  5
7C
330
2
100
AcDbEntity
  8
Halfen
 62
     1
100
AcDbCircle
 10
-124.5525924181902
 20
2647.039905695702
 30
0.0
 40
13.23994164521477
100
AcDbArc
 50
108.0058901692794
 51
153.3319217269807
  0
ARC
  5
7D
330
2
100
AcDbEntity
  8
Halfen
 62
     1
100
AcDbCircle
 10
-140.4767514666044
 20
2665.573784254835
 30
0.0
 40
13.23994164521477
100
AcDbArc
 50
288.0058901692783
 51
333.3319217269795
  0
ARC
  5
7E
330
2
100
AcDbEntity
  8
Halfen
 62
     1
100
AcDbCircle
 10
-140.4767514666051
 20
2622.223784254837
 30
0.0
 40
13.23994164521477
100
AcDbArc
 50
288.0058901692783
 51
333.3319217269795
  0
ARC
  5
7F
330
2
100
AcDbEntity
  8
Halfen
 62
     1
100
AcDbCircle
 10
-140.4767514666051
 20
2611.386284254836
 30
0.0
 40
13.23994164521477
100
AcDbArc
 50
288.0058901692783
 51
333.3319217269795
  0
ARC
  5
80
330
2
100
AcDbEntity
  8
Halfen
 62
     1
100
AcDbCircle
 10
-124.552592418191
 20
2592.852405695702
 30
0.0
 40
13.23994164521477
100
AcDbArc
 50
108.0058901692794
 51
153.3319217269807
  0
ARC
  5
81
330
2
100
AcDbEntity
  8
Halfen
 62
     1
100
AcDbCircle
 10
-124.5525924181908
 20
2625.364905695702
 30
0.0
 40
13.23994164521477
100
AcDbArc
 50
108.0058901692794
 51
153.3319217269807
  0
ARC
  5
82
330
2
100
AcDbEntity
  8
Halfen
 62
     1
100
AcDbCircle
 10
-140.4767514666049
 20
2643.898784254837
 30
0.0
 40
13.23994164521477
100
AcDbArc
 50
288.0058901692783
 51
333.3319217269795
  0
ARC
  5
83
330
2
100
AcDbEntity
  8
Halfen
 62
     1
100
AcDbCircle
 10
-124.552592418191
 20
2614.527405695703
 30
0.0
 40
13.23994164521477
100
AcDbArc
 50
108.0058901692794
 51
153.3319217269807
  0
ARC
  5
84
330
2
100
AcDbEntity
  8
Halfen
 62
     1
100
AcDbCircle
 10
-140.4767514666051
 20
2633.061284254836
 30
0.0
 40
13.23994164521477
100
AcDbArc
 50
288.0058901692783
 51
333.3319217269795
  0
ARC
  5
85
330
2
100
AcDbEntity
  8
Halfen
 62
     1
100
AcDbCircle
 10
-124.552592418191
 20
2603.689905695703
 30
0.0
 40
13.23994164521477
100
AcDbArc
 50
108.0058901692794
 51
153.3319217269807
  0
ARC
  5
86
330
2
100
AcDbEntity
  8
Halfen
 62
     1
100
AcDbCircle
 10
-124.5525924181905
 20
2636.202405695702
 30
0.0
 40
13.23994164521477
100
AcDbArc
 50
108.0058901692794
 51
153.3319217269807
  0
ARC
  5
87
330
2
100
AcDbEntity
  8
Halfen
 62
     1
100
AcDbCircle
 10
-140.4767514666047
 20
2654.736284254836
 30
0.0
 40
13.23994164521477
100
AcDbArc
 50
288.0058901692783
 51
333.3319217269795
  0
ARC
  5
88
330
2
100
AcDbEntity
  8
Halfen
 62
     1
100
AcDbCircle
 10
-124.5525924181897
 20
2657.877405695701
 30
0.0
 40
13.23994164521477
100
AcDbArc
 50
108.0058901692794
 51
153.3319217269807
  0
ARC
  5
89
330
2
100
AcDbEntity
  8
Halfen
 62
     1
100
AcDbCircle
 10
-140.476751466604
 20
2676.411284254836
 30
0.0
 40
13.23994164521477
100
AcDbArc
 50
288.0058901692783
 51
333.3319217269795
  0
ARC
  5
8A
330
2
100
AcDbEntity
  8
Halfen
 62
     1
100
AcDbCircle
 10
-124.5525924181897
 20
2668.714905695702
 30
0.0
 40
13.23994164521477
100
AcDbArc
 50
119.3975819914344
 51
153.3319217269807
  0
ARC
  5
8B
330
2
100
AcDbEntity
  8
Halfen
 62
     1
100
AcDbCircle
 10
-140.476751466604
 20
2687.248784254836
 30
0.0
 40
13.23994164521477
100
AcDbArc
 50
288.0058901692783
 51
328.0883185067858
  0
LINE
  5
8C
330
2
100
AcDbEntity
  8
Halfen
100
AcDbLine
 10
-192.75
 20
2680.249999999998
 30
0.0
 11
-192.75
 21
2597.249999999998
 31
0.0
  0
LINE
  5
8D
330
2
100
AcDbEntity
  8
Halfen
100
AcDbLine
 10
-202.75
 20
2680.249999999998
 30
0.0
 11
-202.75
 21
2597.249999999998
 31
0.0
  0
ARC
  5
8E
330
2
100
AcDbEntity
  8
Halfen
 62
     1
100
AcDbCircle
 10
-189.5525924181909
 20
2625.364905695702
 30
0.0
 40
13.23994164521477
100
AcDbArc
 50
108.0058901692794
 51
153.3319217269807
  0
ARC
  5
8F
330
2
100
AcDbEntity
  8
Halfen
 62
     1
100
AcDbCircle
 10
-189.5525924181911
 20
2603.689905695702
 30
0.0
 40
13.23994164521477
100
AcDbArc
 50
108.0058901692794
 51
153.3319217269807
  0
ARC
  5
90
330
2
100
AcDbEntity
  8
Halfen
 62
     1
100
AcDbCircle
 10
-205.4767514666053
 20
2633.061284254836
 30
0.0
 40
13.23994164521477
100
AcDbArc
 50
288.0058901692783
 51
333.3319217269795
  0
ARC
  5
91
330
2
100
AcDbEntity
  8
Halfen
 62
     1
100
AcDbCircle
 10
-189.5525924181911
 20
2614.527405695702
 30
0.0
 40
13.23994164521477
100
AcDbArc
 50
108.0058901692794
 51
153.3319217269807
  0
ARC
  5
92
330
2
100
AcDbEntity
  8
Halfen
 62
     1
100
AcDbCircle
 10
-205.476751466605
 20
2643.898784254836
 30
0.0
 40
13.23994164521477
100
AcDbArc
 50
288.0058901692783
 51
333.3319217269795
  0
ARC
  5
93
330
2
100
AcDbEntity
  8
Halfen
 62
     1
100
AcDbCircle
 10
-189.5525924181911
 20
2592.852405695702
 30
0.0
 40
13.23994164521477
100
AcDbArc
 50
108.0058901692794
 51
153.3319217269807
  0
ARC
  5
94
330
2
100
AcDbEntity
  8
Halfen
 62
     1
100
AcDbCircle
 10
-205.4767514666053
 20
2611.386284254836
 30
0.0
 40
13.23994164521477
100
AcDbArc
 50
288.0058901692783
 51
333.3319217269795
  0
ARC
  5
95
330
2
100
AcDbEntity
  8
Halfen
 62
     1
100
AcDbCircle
 10
-205.4767514666053
 20
2622.223784254836
 30
0.0
 40
13.23994164521477
100
AcDbArc
 50
288.0058901692783
 51
333.3319217269795
  0
LINE
  5
96
330
2
100
AcDbEntity
  8
Halfen
100
AcDbLine
 10
-202.75
 20
2680.249999999998
 30
0.0
 11
-192.75
 21
2680.249999999998
 31
0.0
  0
ARC
  5
97
330
2
100
AcDbEntity
  8
Halfen
 62
     1
100
AcDbCircle
 10
-205.4767514666046
 20
2665.573784254835
 30
0.0
 40
13.23994164521477
100
AcDbArc
 50
288.0058901692783
 51
333.3319217269795
  0
ARC
  5
98
330
2
100
AcDbEntity
  8
Halfen
 62
     1
100
AcDbCircle
 10
-189.5525924181903
 20
2647.039905695701
 30
0.0
 40
13.23994164521477
100
AcDbArc
 50
108.0058901692794
 51
153.3319217269807
  0
ARC
  5
99
330
2
100
AcDbEntity
  8
Halfen
 62
     1
100
AcDbCircle
 10
-205.4767514666041
 20
2676.411284254835
 30
0.0
 40
13.23994164521477
100
AcDbArc
 50
288.0058901692783
 51
333.3319217269795
  0
ARC
  5
9A
330
2
100
AcDbEntity
  8
Halfen
 62
     1
100
AcDbCircle
 10
-189.5525924181898
 20
2657.877405695701
 30
0.0
 40
13.23994164521477
100
AcDbArc
 50
108.0058901692794
 51
153.3319217269807
  0
ARC
  5
9B
330
2
100
AcDbEntity
  8
Halfen
 62
     1
100
AcDbCircle
 10
-189.5525924181898
 20
2668.714905695701
 30
0.0
 40
13.23994164521477
100
AcDbArc
 50
119.3975819914344
 51
153.3319217269807
  0
ARC
  5
9C
330
2
100
AcDbEntity
  8
Halfen
 62
     1
100
AcDbCircle
 10
-205.4767514666041
 20
2687.248784254835
 30
0.0
 40
13.23994164521477
100
AcDbArc
 50
288.0058901692783
 51
328.0883185067858
  0
ARC
  5
9D
330
2
100
AcDbEntity
  8
Halfen
 62
     1
100
AcDbCircle
 10
-205.4767514666048
 20
2654.736284254836
 30
0.0
 40
13.23994164521477
100
AcDbArc
 50
288.0058901692783
 51
333.3319217269795
  0
ARC
  5
9E
330
2
100
AcDbEntity
  8
Halfen
 62
     1
100
AcDbCircle
 10
-189.5525924181906
 20
2636.202405695701
 30
0.0
 40
13.23994164521477
100
AcDbArc
 50
108.0058901692794
 51
153.3319217269807
  0
LINE
  5
9F
330
2
100
AcDbEntity
  8
Halfen
100
AcDbLine
 10
-212.75
 20
2687.249999999998
 30
0.0
 11
-182.75
 21
2687.249999999998
 31
0.0
  0
LINE
  5
A0
330
2
100
AcDbEntity
  8
Halfen
100
AcDbLine
 10
-212.75
 20
2683.749999999998
 30
0.0
 11
-182.75
 21
2683.749999999998
 31
0.0
  0
LINE
  5
A1
330
2
100
AcDbEntity
  8
Halfen
100
AcDbLine
 10
-192.75
 20
2680.249999999998
 30
0.0
 11
-182.75
 21
2683.749999999998
 31
0.0
  0
LINE
  5
A2
330
2
100
AcDbEntity
  8
Halfen
100
AcDbLine
 10
-182.75
 20
2683.749999999998
 30
0.0
 11
-182.75
 21
2687.249999999998
 31
0.0
  0
LINE
  5
A3
330
2
100
AcDbEntity
  8
Halfen
100
AcDbLine
 10
-202.75
 20
2680.249999999998
 30
0.0
 11
-212.75
 21
2683.749999999998
 31
0.0
  0
LINE
  5
A4
330
2
100
AcDbEntity
  8
Halfen
100
AcDbLine
 10
-212.75
 20
2683.749999999998
 30
0.0
 11
-212.75
 21
2687.249999999998
 31
0.0
  0
LINE
  5
A5
330
2
100
AcDbEntity
  8
Halfen
100
AcDbLine
 10
-87.74999999999989
 20
2680.249999999999
 30
0.0
 11
-87.74999999999989
 21
2597.249999999999
 31
0.0
  0
LINE
  5
A6
330
2
100
AcDbEntity
  8
Halfen
100
AcDbLine
 10
-77.74999999999988
 20
2680.249999999999
 30
0.0
 11
-77.74999999999988
 21
2597.249999999999
 31
0.0
  0
ARC
  5
A7
330
2
100
AcDbEntity
  8
Halfen
 62
     1
100
AcDbCircle
 10
-90.47675146660514
 20
2622.223784254837
 30
0.0
 40
13.23994164521477
100
AcDbArc
 50
288.0058901692783
 51
333.3319217269795
  0
ARC
  5
A8
330
2
100
AcDbEntity
  8
Halfen
 62
     1
100
AcDbCircle
 10
-90.47675146660514
 20
2611.386284254836
 30
0.0
 40
13.23994164521477
100
AcDbArc
 50
288.0058901692783
 51
333.3319217269795
  0
ARC
  5
A9
330
2
100
AcDbEntity
  8
Halfen
 62
     1
100
AcDbCircle
 10
-74.55259241819101
 20
2592.852405695702
 30
0.0
 40
13.23994164521477
100
AcDbArc
 50
108.0058901692794
 51
153.3319217269807
  0
ARC
  5
AA
330
2
100
AcDbEntity
  8
Halfen
 62
     1
100
AcDbCircle
 10
-90.47675146660493
 20
2643.898784254837
 30
0.0
 40
13.23994164521477
100
AcDbArc
 50
288.0058901692783
 51
333.3319217269795
  0
ARC
  5
AB
330
2
100
AcDbEntity
  8
Halfen
 62
     1
100
AcDbCircle
 10
-74.55259241819101
 20
2614.527405695703
 30
0.0
 40
13.23994164521477
100
AcDbArc
 50
108.0058901692794
 51
153.3319217269807
  0
ARC
  5
AC
330
2
100
AcDbEntity
  8
Halfen
 62
     1
100
AcDbCircle
 10
-90.47675146660514
 20
2633.061284254836
 30
0.0
 40
13.23994164521477
100
AcDbArc
 50
288.0058901692783
 51
333.3319217269795
  0
ARC
  5
AD
330
2
100
AcDbEntity
  8
Halfen
 62
     1
100
AcDbCircle
 10
-74.55259241819101
 20
2603.689905695703
 30
0.0
 40
13.23994164521477
100
AcDbArc
 50
108.0058901692794
 51
153.3319217269807
  0
ARC
  5
AE
330
2
100
AcDbEntity
  8
Halfen
 62
     1
100
AcDbCircle
 10
-74.55259241819078
 20
2625.364905695702
 30
0.0
 40
13.23994164521477
100
AcDbArc
 50
108.0058901692794
 51
153.3319217269807
  0
LINE
  5
AF
330
2
100
AcDbEntity
  8
Halfen
100
AcDbLine
 10
-77.74999999999988
 20
2680.249999999999
 30
0.0
 11
-67.74999999999988
 21
2683.749999999999
 31
0.0
  0
LINE
  5
B0
330
2
100
AcDbEntity
  8
Halfen
100
AcDbLine
 10
-97.74999999999989
 20
2683.749999999999
 30
0.0
 11
-67.74999999999988
 21
2683.749999999999
 31
0.0
  0
LINE
  5
B1
330
2
100
AcDbEntity
  8
Halfen
100
AcDbLine
 10
-97.74999999999989
 20
2687.249999999999
 30
0.0
 11
-67.74999999999988
 21
2687.249999999999
 31
0.0
  0
LINE
  5
B2
330
2
100
AcDbEntity
  8
Halfen
100
AcDbLine
 10
-97.74999999999989
 20
2683.749999999999
 30
0.0
 11
-97.74999999999989
 21
2687.249999999999
 31
0.0
  0
LINE
  5
B3
330
2
100
AcDbEntity
  8
Halfen
100
AcDbLine
 10
-87.74999999999989
 20
2680.249999999999
 30
0.0
 11
-97.74999999999989
 21
2683.749999999999
 31
0.0
  0
ARC
  5
B4
330
2
100
AcDbEntity
  8
Halfen
 62
     1
100
AcDbCircle
 10
-74.55259241819056
 20
2636.202405695702
 30
0.0
 40
13.23994164521477
100
AcDbArc
 50
108.0058901692794
 51
153.3319217269807
  0
ARC
  5
B5
330
2
100
AcDbEntity
  8
Halfen
 62
     1
100
AcDbCircle
 10
-90.4767514666047
 20
2654.736284254836
 30
0.0
 40
13.23994164521477
100
AcDbArc
 50
288.0058901692783
 51
333.3319217269795
  0
ARC
  5
B6
330
2
100
AcDbEntity
  8
Halfen
 62
     1
100
AcDbCircle
 10
-90.47675146660401
 20
2687.248784254836
 30
0.0
 40
13.23994164521477
100
AcDbArc
 50
288.0058901692783
 51
328.0883185067858
  0
ARC
  5
B7
330
2
100
AcDbEntity
  8
Halfen
 62
     1
100
AcDbCircle
 10
-74.55259241818976
 20
2668.714905695702
 30
0.0
 40
13.23994164521477
100
AcDbArc
 50
119.3975819914344
 51
153.3319217269807
  0
ARC
  5
B8
330
2
100
AcDbEntity
  8
Halfen
 62
     1
100
AcDbCircle
 10
-74.55259241818976
 20
2657.877405695701
 30
0.0
 40
13.23994164521477
100
AcDbArc
 50
108.0058901692794
 51
153.3319217269807
  0
ARC
  5
B9
330
2
100
AcDbEntity
  8
Halfen
 62
     1
100
AcDbCircle
 10
-90.47675146660401
 20
2676.411284254836
 30
0.0
 40
13.23994164521477
100
AcDbArc
 50
288.0058901692783
 51
333.3319217269795
  0
ARC
  5
BA
330
2
100
AcDbEntity
  8
Halfen
 62
     1
100
AcDbCircle
 10
-74.55259241819021
 20
2647.039905695702
 30
0.0
 40
13.23994164521477
100
AcDbArc
 50
108.0058901692794
 51
153.3319217269807
  0
ARC
  5
BB
330
2
100
AcDbEntity
  8
Halfen
 62
     1
100
AcDbCircle
 10
-90.47675146660447
 20
2665.573784254835
 30
0.0
 40
13.23994164521477
100
AcDbArc
 50
288.0058901692783
 51
333.3319217269795
  0
LINE
  5
BC
330
2
100
AcDbEntity
  8
Halfen
100
AcDbLine
 10
-87.74999999999989
 20
2680.249999999999
 30
0.0
 11
-77.74999999999988
 21
2680.249999999999
 31
0.0
  0
LINE
  5
BD
330
2
100
AcDbEntity
  8
Halfen
100
AcDbLine
 10
-67.74999999999988
 20
2683.749999999999
 30
0.0
 11
-67.74999999999988
 21
2687.249999999999
 31
0.0
  0
ARC
  5
BE
330
2
100
AcDbEntity
  8
Halfen
 62
     1
100
AcDbCircle
 10
185.4474075818094
 20
2636.202405695702
 30
0.0
 40
13.23994164521477
100
AcDbArc
 50
108.0058901692794
 51
153.3319217269807
  0
ARC
  5
BF
330
2
100
AcDbEntity
  8
Halfen
 62
     1
100
AcDbCircle
 10
169.5232485333953
 20
2654.736284254836
 30
0.0
 40
13.23994164521477
100
AcDbArc
 50
288.0058901692783
 51
333.3319217269795
  0
ARC
  5
C0
330
2
100
AcDbEntity
  8
Halfen
 62
     1
100
AcDbCircle
 10
69.5232485333953
 20
2654.736284254836
 30
0.0
 40
13.23994164521477
100
AcDbArc
 50
288.0058901692783
 51
333.3319217269795
  0
ARC
  5
C1
330
2
100
AcDbEntity
  8
Halfen
 62
     1
100
AcDbCircle
 10
85.44740758180944
 20
2636.202405695702
 30
0.0
 40
13.23994164521477
100
AcDbArc
 50
108.0058901692794
 51
153.3319217269807
  0
ARC
  5
C2
330
2
100
AcDbEntity
  8
Halfen
 62
     1
100
AcDbCircle
 10
20.44740758180933
 20
2636.202405695701
 30
0.0
 40
13.23994164521477
100
AcDbArc
 50
108.0058901692794
 51
153.3319217269807
  0
ARC
  5
C3
330
2
100
AcDbEntity
  8
Halfen
 62
     1
100
AcDbCircle
 10
4.523248533395189
 20
2654.736284254836
 30
0.0
 40
13.23994164521477
100
AcDbArc
 50
288.0058901692783
 51
333.3319217269795
  0
LINE
  5
C4
330
2
100
AcDbEntity
  8
Halfen
100
AcDbLine
 10
17.25
 20
2680.249999999998
 30
0.0
 11
17.25
 21
2597.249999999998
 31
0.0
  0
LINE
  5
C5
330
2
100
AcDbEntity
  8
Halfen
100
AcDbLine
 10
7.25
 20
2680.249999999998
 30
0.0
 11
7.25
 21
2597.249999999998
 31
0.0
  0
LINE
  5
C6
330
2
100
AcDbEntity
  8
Halfen
100
AcDbLine
 10
82.25000000000012
 20
2680.249999999999
 30
0.0
 11
82.25000000000012
 21
2597.249999999999
 31
0.0
  0
LINE
  5
C7
330
2
100
AcDbEntity
  8
Halfen
100
AcDbLine
 10
72.25000000000012
 20
2680.249999999999
 30
0.0
 11
72.25000000000012
 21
2597.249999999999
 31
0.0
  0
LINE
  5
C8
330
2
100
AcDbEntity
  8
Halfen
100
AcDbLine
 10
172.2500000000001
 20
2680.249999999999
 30
0.0
 11
172.2500000000001
 21
2597.249999999999
 31
0.0
  0
LINE
  5
C9
330
2
100
AcDbEntity
  8
Halfen
100
AcDbLine
 10
182.2500000000001
 20
2680.249999999999
 30
0.0
 11
182.2500000000001
 21
2597.249999999999
 31
0.0
  0
LINE
  5
CA
330
2
100
AcDbEntity
  8
Halfen
  6
MITTE2
 62
     1
100
AcDbLine
 10
12.25000000000011
 20
2687.249999999998
 30
0.0
 11
12.25
 21
2572.249755004996
 31
0.0
  0
LINE
  5
CB
330
2
100
AcDbEntity
  8
Halfen
100
AcDbLine
 10
52.25000000000012
 20
2552.249755004997
 30
0.0
 11
52.25000000000012
 21
2512.249755004997
 31
0.0
  0
LINE
  5
CC
330
2
100
AcDbEntity
  8
Halfen
100
AcDbLine
 10
202.2500000000001
 20
2552.249755004997
 30
0.0
 11
202.2500000000001
 21
2512.249755004996
 31
0.0
  0
LINE
  5
CD
330
2
100
AcDbEntity
  8
Halfen
100
AcDbLine
 10
52.25000000000012
 20
2512.249755004997
 30
0.0
 11
202.2500000000001
 21
2512.249755004996
 31
0.0
  0
LINE
  5
CE
330
2
100
AcDbEntity
  8
Halfen
100
AcDbLine
 10
52.25000000000012
 20
2523.249755004996
 30
0.0
 11
202.2500000000001
 21
2523.249755004997
 31
0.0
  0
LINE
  5
CF
330
2
100
AcDbEntity
  8
Halfen
100
AcDbLine
 10
52.25000000000012
 20
2541.249755004997
 30
0.0
 11
202.2500000000001
 21
2541.249755004997
 31
0.0
  0
LINE
  5
D0
330
2
100
AcDbEntity
  8
Halfen
100
AcDbLine
 10
52.25000000000012
 20
2552.249755004997
 30
0.0
 11
202.2500000000001
 21
2552.249755004997
 31
0.0
  0
LINE
  5
D1
330
2
100
AcDbEntity
  8
Halfen
100
AcDbLine
 10
52.25000000000012
 20
2597.249999999999
 30
0.0
 11
202.2500000000001
 21
2597.249999999999
 31
0.0
  0
LINE
  5
D2
330
2
100
AcDbEntity
  8
Halfen
100
AcDbLine
 10
52.25000000000012
 20
2572.249755004996
 30
0.0
 11
202.2500000000001
 21
2572.249755004996
 31
0.0
  0
LINE
  5
D3
330
2
100
AcDbEntity
  8
Halfen
100
AcDbLine
 10
32.25000000000017
 20
2593.499999999998
 30
0.0
 11
32.25000000000012
 21
2576.499755004996
 31
0.0
  0
LINE
  5
D4
330
2
100
AcDbEntity
  8
Halfen
100
AcDbLine
 10
29.50000000000012
 20
2593.499999999998
 30
0.0
 11
29.50000000000012
 21
2576.499755004996
 31
0.0
  0
LINE
  5
D5
330
2
100
AcDbEntity
  8
Halfen
100
AcDbLine
 10
52.25000000000012
 20
2597.249999999999
 30
0.0
 11
52.25000000000012
 21
2572.249755004996
 31
0.0
  0
LINE
  5
D6
330
2
100
AcDbEntity
  8
Halfen
100
AcDbLine
 10
-5.0
 20
2593.499999999998
 30
0.0
 11
-5.0
 21
2576.499755004996
 31
0.0
  0
LINE
  5
D7
330
2
100
AcDbEntity
  8
Halfen
100
AcDbLine
 10
-7.75
 20
2593.499999999998
 30
0.0
 11
-7.75
 21
2576.499755004996
 31
0.0
  0
LINE
  5
D8
330
2
100
AcDbEntity
  8
Halfen
100
AcDbLine
 10
3.25
 20
2575.538064647345
 30
0.0
 11
-1.34605760935824
 21
2572.836009356374
 31
0.0
  0
LINE
  5
D9
330
2
100
AcDbEntity
  8
Halfen
100
AcDbLine
 10
1.85627257076112
 20
2577.908723596454
 30
0.0
 11
-2.739785038596778
 21
2575.206668305483
 31
0.0
  0
ARC
  5
DA
330
2
100
AcDbEntity
  8
Halfen
100
AcDbCircle
 10
-3.5
 20
2576.499755004996
 30
0.0
 40
4.25
100
AcDbArc
 50
180.0
 51
300.4515763634802
  0
ARC
  5
DB
330
2
100
AcDbEntity
  8
Halfen
100
AcDbCircle
 10
-3.5
 20
2576.499755004996
 30
0.0
 40
1.5
100
AcDbArc
 50
180.0
 51
300.4515763634858
  0
LINE
  5
DC
330
2
100
AcDbEntity
  8
Halfen
100
AcDbLine
 10
3.25
 20
2575.538064647345
 30
0.0
 11
1.85627257076112
 21
2577.908723596454
 31
0.0
  0
LINE
  5
DD
330
2
100
AcDbEntity
  8
Halfen
100
AcDbLine
 10
21.25000000000011
 20
2575.538064647345
 30
0.0
 11
25.8460576093583
 21
2572.836009356374
 31
0.0
  0
LINE
  5
DE
330
2
100
AcDbEntity
  8
Halfen
100
AcDbLine
 10
22.64372742923888
 20
2577.908723596454
 30
0.0
 11
27.23978503859689
 21
2575.206668305483
 31
0.0
  0
LINE
  5
DF
330
2
100
AcDbEntity
  8
Halfen
100
AcDbLine
 10
21.25000000000011
 20
2575.538064647345
 30
0.0
 11
22.64372742923888
 21
2577.908723596454
 31
0.0
  0
ARC
  5
E0
330
2
100
AcDbEntity
  8
Halfen
100
AcDbCircle
 10
28.00000000000011
 20
2576.499755004996
 30
0.0
 40
4.25
100
AcDbArc
 50
239.5484236365198
 51
0.0
  0
ARC
  5
E1
330
2
100
AcDbEntity
  8
Halfen
100
AcDbCircle
 10
28.00000000000011
 20
2576.499755004996
 30
0.0
 40
1.5
100
AcDbArc
 50
239.5484236365142
 51
0.0
  0
LINE
  5
E2
330
2
100
AcDbEntity
  8
Halfen
100
AcDbLine
 10
-4.0
 20
2594.499999999998
 30
0.0
 11
28.50000000000012
 21
2594.499999999998
 31
0.0
  0
LINE
  5
E3
330
2
100
AcDbEntity
  8
Halfen
100
AcDbLine
 10
-4.0
 20
2597.249999999998
 30
0.0
 11
28.50000000000012
 21
2597.249999999998
 31
0.0
  0
ARC
  5
E4
330
2
100
AcDbEntity
  8
Halfen
100
AcDbCircle
 10
-4.0
 20
2593.499999999998
 30
0.0
 40
1.0
100
AcDbArc
 50
90.0
 51
180.0
  0
ARC
  5
E5
330
2
100
AcDbEntity
  8
Halfen
100
AcDbCircle
 10
-4.0
 20
2593.499999999998
 30
0.0
 40
3.75
100
AcDbArc
 50
90.0
 51
180.0
  0
ARC
  5
E6
330
2
100
AcDbEntity
  8
Halfen
100
AcDbCircle
 10
28.50000000000012
 20
2593.499999999998
 30
0.0
 40
3.75
100
AcDbArc
 50
0.0
 51
90.0
  0
ARC
  5
E7
330
2
100
AcDbEntity
  8
Halfen
100
AcDbCircle
 10
28.50000000000012
 20
2593.499999999998
 30
0.0
 40
1.0
100
AcDbArc
 50
0.0
 51
90.0
  0
ARC
  5
E8
330
2
100
AcDbEntity
  8
Halfen
 62
     1
100
AcDbCircle
 10
20.4474075818091
 20
2625.364905695702
 30
0.0
 40
13.23994164521477
100
AcDbArc
 50
108.0058901692794
 51
153.3319217269807
  0
ARC
  5
E9
330
2
100
AcDbEntity
  8
Halfen
 62
     1
100
AcDbCircle
 10
20.44740758180887
 20
2603.689905695702
 30
0.0
 40
13.23994164521477
100
AcDbArc
 50
108.0058901692794
 51
153.3319217269807
  0
ARC
  5
EA
330
2
100
AcDbEntity
  8
Halfen
 62
     1
100
AcDbCircle
 10
4.523248533394735
 20
2633.061284254836
 30
0.0
 40
13.23994164521477
100
AcDbArc
 50
288.0058901692783
 51
333.3319217269795
  0
ARC
  5
EB
330
2
100
AcDbEntity
  8
Halfen
 62
     1
100
AcDbCircle
 10
20.44740758180887
 20
2614.527405695702
 30
0.0
 40
13.23994164521477
100
AcDbArc
 50
108.0058901692794
 51
153.3319217269807
  0
ARC
  5
EC
330
2
100
AcDbEntity
  8
Halfen
 62
     1
100
AcDbCircle
 10
4.523248533394962
 20
2643.898784254836
 30
0.0
 40
13.23994164521477
100
AcDbArc
 50
288.0058901692783
 51
333.3319217269795
  0
ARC
  5
ED
330
2
100
AcDbEntity
  8
Halfen
 62
     1
100
AcDbCircle
 10
20.44740758180887
 20
2592.852405695702
 30
0.0
 40
13.23994164521477
100
AcDbArc
 50
108.0058901692794
 51
153.3319217269807
  0
ARC
  5
EE
330
2
100
AcDbEntity
  8
Halfen
 62
     1
100
AcDbCircle
 10
4.523248533394735
 20
2611.386284254836
 30
0.0
 40
13.23994164521477
100
AcDbArc
 50
288.0058901692783
 51
333.3319217269795
  0
ARC
  5
EF
330
2
100
AcDbEntity
  8
Halfen
 62
     1
100
AcDbCircle
 10
4.523248533394735
 20
2622.223784254836
 30
0.0
 40
13.23994164521477
100
AcDbArc
 50
288.0058901692783
 51
333.3319217269795
  0
LINE
  5
F0
330
2
100
AcDbEntity
  8
Halfen
100
AcDbLine
 10
202.2500000000001
 20
2597.249999999999
 30
0.0
 11
202.2500000000001
 21
2572.249755004996
 31
0.0
  0
ARC
  5
F1
330
2
100
AcDbEntity
  8
Halfen
 62
     1
100
AcDbCircle
 10
85.44740758180921
 20
2625.364905695702
 30
0.0
 40
13.23994164521477
100
AcDbArc
 50
108.0058901692794
 51
153.3319217269807
  0
ARC
  5
F2
330
2
100
AcDbEntity
  8
Halfen
 62
     1
100
AcDbCircle
 10
85.44740758180898
 20
2603.689905695703
 30
0.0
 40
13.23994164521477
100
AcDbArc
 50
108.0058901692794
 51
153.3319217269807
  0
ARC
  5
F3
330
2
100
AcDbEntity
  8
Halfen
 62
     1
100
AcDbCircle
 10
69.52324853339485
 20
2633.061284254836
 30
0.0
 40
13.23994164521477
100
AcDbArc
 50
288.0058901692783
 51
333.3319217269795
  0
ARC
  5
F4
330
2
100
AcDbEntity
  8
Halfen
 62
     1
100
AcDbCircle
 10
85.44740758180898
 20
2614.527405695703
 30
0.0
 40
13.23994164521477
100
AcDbArc
 50
108.0058901692794
 51
153.3319217269807
  0
ARC
  5
F5
330
2
100
AcDbEntity
  8
Halfen
 62
     1
100
AcDbCircle
 10
69.52324853339508
 20
2643.898784254837
 30
0.0
 40
13.23994164521477
100
AcDbArc
 50
288.0058901692783
 51
333.3319217269795
  0
ARC
  5
F6
330
2
100
AcDbEntity
  8
Halfen
 62
     1
100
AcDbCircle
 10
85.44740758180898
 20
2592.852405695702
 30
0.0
 40
13.23994164521477
100
AcDbArc
 50
108.0058901692794
 51
153.3319217269807
  0
ARC
  5
F7
330
2
100
AcDbEntity
  8
Halfen
 62
     1
100
AcDbCircle
 10
69.52324853339485
 20
2611.386284254836
 30
0.0
 40
13.23994164521477
100
AcDbArc
 50
288.0058901692783
 51
333.3319217269795
  0
ARC
  5
F8
330
2
100
AcDbEntity
  8
Halfen
 62
     1
100
AcDbCircle
 10
69.52324853339485
 20
2622.223784254837
 30
0.0
 40
13.23994164521477
100
AcDbArc
 50
288.0058901692783
 51
333.3319217269795
  0
ARC
  5
F9
330
2
100
AcDbEntity
  8
Halfen
 62
     1
100
AcDbCircle
 10
169.5232485333948
 20
2622.223784254837
 30
0.0
 40
13.23994164521477
100
AcDbArc
 50
288.0058901692783
 51
333.3319217269795
  0
ARC
  5
FA
330
2
100
AcDbEntity
  8
Halfen
 62
     1
100
AcDbCircle
 10
169.5232485333948
 20
2611.386284254836
 30
0.0
 40
13.23994164521477
100
AcDbArc
 50
288.0058901692783
 51
333.3319217269795
  0
ARC
  5
FB
330
2
100
AcDbEntity
  8
Halfen
 62
     1
100
AcDbCircle
 10
185.447407581809
 20
2592.852405695702
 30
0.0
 40
13.23994164521477
100
AcDbArc
 50
108.0058901692794
 51
153.3319217269807
  0
ARC
  5
FC
330
2
100
AcDbEntity
  8
Halfen
 62
     1
100
AcDbCircle
 10
169.5232485333951
 20
2643.898784254837
 30
0.0
 40
13.23994164521477
100
AcDbArc
 50
288.0058901692783
 51
333.3319217269795
  0
ARC
  5
FD
330
2
100
AcDbEntity
  8
Halfen
 62
     1
100
AcDbCircle
 10
185.447407581809
 20
2614.527405695703
 30
0.0
 40
13.23994164521477
100
AcDbArc
 50
108.0058901692794
 51
153.3319217269807
  0
ARC
  5
FE
330
2
100
AcDbEntity
  8
Halfen
 62
     1
100
AcDbCircle
 10
169.5232485333948
 20
2633.061284254836
 30
0.0
 40
13.23994164521477
100
AcDbArc
 50
288.0058901692783
 51
333.3319217269795
  0
ARC
  5
FF
330
2
100
AcDbEntity
  8
Halfen
 62
     1
100
AcDbCircle
 10
185.447407581809
 20
2603.689905695703
 30
0.0
 40
13.23994164521477
100
AcDbArc
 50
108.0058901692794
 51
153.3319217269807
  0
ARC
  5
100
330
2
100
AcDbEntity
  8
Halfen
 62
     1
100
AcDbCircle
 10
185.4474075818092
 20
2625.364905695702
 30
0.0
 40
13.23994164521477
100
AcDbArc
 50
108.0058901692794
 51
153.3319217269807
  0
LINE
  5
101
330
2
100
AcDbEntity
  8
Halfen
100
AcDbLine
 10
-2.75
 20
2687.249999999998
 30
0.0
 11
27.25
 21
2687.249999999998
 31
0.0
  0
LINE
  5
102
330
2
100
AcDbEntity
  8
Halfen
100
AcDbLine
 10
-2.75
 20
2683.749999999998
 30
0.0
 11
27.25
 21
2683.749999999998
 31
0.0
  0
LINE
  5
103
330
2
100
AcDbEntity
  8
Halfen
100
AcDbLine
 10
7.25
 20
2680.249999999998
 30
0.0
 11
-2.75
 21
2683.749999999998
 31
0.0
  0
LINE
  5
104
330
2
100
AcDbEntity
  8
Halfen
100
AcDbLine
 10
-2.75
 20
2683.749999999998
 30
0.0
 11
-2.75
 21
2687.249999999998
 31
0.0
  0
LINE
  5
105
330
2
100
AcDbEntity
  8
Halfen
100
AcDbLine
 10
17.25
 20
2680.249999999998
 30
0.0
 11
27.25
 21
2683.749999999998
 31
0.0
  0
LINE
  5
106
330
2
100
AcDbEntity
  8
Halfen
100
AcDbLine
 10
27.25
 20
2683.749999999998
 30
0.0
 11
27.25
 21
2687.249999999998
 31
0.0
  0
LINE
  5
107
330
2
100
AcDbEntity
  8
Halfen
100
AcDbLine
 10
7.25
 20
2680.249999999998
 30
0.0
 11
17.25
 21
2680.249999999998
 31
0.0
  0
ARC
  5
108
330
2
100
AcDbEntity
  8
Halfen
 62
     1
100
AcDbCircle
 10
4.523248533395417
 20
2665.573784254835
 30
0.0
 40
13.23994164521477
100
AcDbArc
 50
288.0058901692783
 51
333.3319217269795
  0
ARC
  5
109
330
2
100
AcDbEntity
  8
Halfen
 62
     1
100
AcDbCircle
 10
20.44740758180967
 20
2647.039905695701
 30
0.0
 40
13.23994164521477
100
AcDbArc
 50
108.0058901692794
 51
153.3319217269807
  0
ARC
  5
10A
330
2
100
AcDbEntity
  8
Halfen
 62
     1
100
AcDbCircle
 10
4.523248533395872
 20
2676.411284254835
 30
0.0
 40
13.23994164521477
100
AcDbArc
 50
288.0058901692783
 51
333.3319217269795
  0
ARC
  5
10B
330
2
100
AcDbEntity
  8
Halfen
 62
     1
100
AcDbCircle
 10
20.44740758181013
 20
2657.877405695701
 30
0.0
 40
13.23994164521477
100
AcDbArc
 50
108.0058901692794
 51
153.3319217269807
  0
ARC
  5
10C
330
2
100
AcDbEntity
  8
Halfen
 62
     1
100
AcDbCircle
 10
20.44740758181013
 20
2668.714905695701
 30
0.0
 40
13.23994164521477
100
AcDbArc
 50
119.3975819914344
 51
153.3319217269807
  0
ARC
  5
10D
330
2
100
AcDbEntity
  8
Halfen
 62
     1
100
AcDbCircle
 10
4.523248533395872
 20
2687.248784254835
 30
0.0
 40
13.23994164521477
100
AcDbArc
 50
288.0058901692783
 51
328.0883185067858
  0
LINE
  5
10E
330
2
100
AcDbEntity
  8
Halfen
100
AcDbLine
 10
162.2500000000001
 20
2683.749999999999
 30
0.0
 11
192.2500000000001
 21
2683.749999999999
 31
0.0
  0
LINE
  5
10F
330
2
100
AcDbEntity
  8
Halfen
100
AcDbLine
 10
162.2500000000001
 20
2687.249999999999
 30
0.0
 11
192.2500000000001
 21
2687.249999999999
 31
0.0
  0
LINE
  5
110
330
2
100
AcDbEntity
  8
Halfen
100
AcDbLine
 10
172.2500000000001
 20
2680.249999999999
 30
0.0
 11
162.2500000000001
 21
2683.749999999999
 31
0.0
  0
LINE
  5
111
330
2
100
AcDbEntity
  8
Halfen
100
AcDbLine
 10
92.25000000000012
 20
2683.749999999999
 30
0.0
 11
92.25000000000012
 21
2687.249999999999
 31
0.0
  0
LINE
  5
112
330
2
100
AcDbEntity
  8
Halfen
100
AcDbLine
 10
162.2500000000001
 20
2683.749999999999
 30
0.0
 11
162.2500000000001
 21
2687.249999999999
 31
0.0
  0
LINE
  5
113
330
2
100
AcDbEntity
  8
Halfen
100
AcDbLine
 10
72.25000000000012
 20
2680.249999999999
 30
0.0
 11
82.25000000000012
 21
2680.249999999999
 31
0.0
  0
ARC
  5
114
330
2
100
AcDbEntity
  8
Halfen
 62
     1
100
AcDbCircle
 10
69.52324853339553
 20
2665.573784254835
 30
0.0
 40
13.23994164521477
100
AcDbArc
 50
288.0058901692783
 51
333.3319217269795
  0
ARC
  5
115
330
2
100
AcDbEntity
  8
Halfen
 62
     1
100
AcDbCircle
 10
85.44740758180978
 20
2647.039905695702
 30
0.0
 40
13.23994164521477
100
AcDbArc
 50
108.0058901692794
 51
153.3319217269807
  0
ARC
  5
116
330
2
100
AcDbEntity
  8
Halfen
 62
     1
100
AcDbCircle
 10
69.52324853339598
 20
2676.411284254836
 30
0.0
 40
13.23994164521477
100
AcDbArc
 50
288.0058901692783
 51
333.3319217269795
  0
ARC
  5
117
330
2
100
AcDbEntity
  8
Halfen
 62
     1
100
AcDbCircle
 10
85.44740758181024
 20
2657.877405695701
 30
0.0
 40
13.23994164521477
100
AcDbArc
 50
108.0058901692794
 51
153.3319217269807
  0
ARC
  5
118
330
2
100
AcDbEntity
  8
Halfen
 62
     1
100
AcDbCircle
 10
85.44740758181024
 20
2668.714905695702
 30
0.0
 40
13.23994164521477
100
AcDbArc
 50
119.3975819914344
 51
153.3319217269807
  0
ARC
  5
119
330
2
100
AcDbEntity
  8
Halfen
 62
     1
100
AcDbCircle
 10
69.52324853339598
 20
2687.248784254836
 30
0.0
 40
13.23994164521477
100
AcDbArc
 50
288.0058901692783
 51
328.0883185067858
  0
LINE
  5
11A
330
2
100
AcDbEntity
  8
Halfen
100
AcDbLine
 10
72.25000000000012
 20
2680.249999999999
 30
0.0
 11
62.25000000000012
 21
2683.749999999999
 31
0.0
  0
LINE
  5
11B
330
2
100
AcDbEntity
  8
Halfen
100
AcDbLine
 10
62.25000000000012
 20
2683.749999999999
 30
0.0
 11
62.25000000000012
 21
2687.249999999999
 31
0.0
  0
LINE
  5
11C
330
2
100
AcDbEntity
  8
Halfen
100
AcDbLine
 10
62.25000000000012
 20
2687.249999999999
 30
0.0
 11
92.25000000000012
 21
2687.249999999999
 31
0.0
  0
LINE
  5
11D
330
2
100
AcDbEntity
  8
Halfen
100
AcDbLine
 10
62.25000000000012
 20
2683.749999999999
 30
0.0
 11
92.25000000000012
 21
2683.749999999999
 31
0.0
  0
LINE
  5
11E
330
2
100
AcDbEntity
  8
Halfen
100
AcDbLine
 10
82.25000000000012
 20
2680.249999999999
 30
0.0
 11
92.25000000000012
 21
2683.749999999999
 31
0.0
  0
LINE
  5
11F
330
2
100
AcDbEntity
  8
Halfen
100
AcDbLine
 10
182.2500000000001
 20
2680.249999999999
 30
0.0
 11
192.2500000000001
 21
2683.749999999999
 31
0.0
  0
ARC
  5
120
330
2
100
AcDbEntity
  8
Halfen
 62
     1
100
AcDbCircle
 10
169.523248533396
 20
2687.248784254836
 30
0.0
 40
13.23994164521477
100
AcDbArc
 50
288.0058901692783
 51
328.0883185067858
  0
ARC
  5
121
330
2
100
AcDbEntity
  8
Halfen
 62
     1
100
AcDbCircle
 10
185.4474075818102
 20
2668.714905695702
 30
0.0
 40
13.23994164521477
100
AcDbArc
 50
119.3975819914344
 51
153.3319217269807
  0
ARC
  5
122
330
2
100
AcDbEntity
  8
Halfen
 62
     1
100
AcDbCircle
 10
185.4474075818102
 20
2657.877405695701
 30
0.0
 40
13.23994164521477
100
AcDbArc
 50
108.0058901692794
 51
153.3319217269807
  0
ARC
  5
123
330
2
100
AcDbEntity
  8
Halfen
 62
     1
100
AcDbCircle
 10
169.523248533396
 20
2676.411284254836
 30
0.0
 40
13.23994164521477
100
AcDbArc
 50
288.0058901692783
 51
333.3319217269795
  0
ARC
  5
124
330
2
100
AcDbEntity
  8
Halfen
 62
     1
100
AcDbCircle
 10
185.4474075818098
 20
2647.039905695702
 30
0.0
 40
13.23994164521477
100
AcDbArc
 50
108.0058901692794
 51
153.3319217269807
  0
ARC
  5
125
330
2
100
AcDbEntity
  8
Halfen
 62
     1
100
AcDbCircle
 10
169.5232485333955
 20
2665.573784254835
 30
0.0
 40
13.23994164521477
100
AcDbArc
 50
288.0058901692783
 51
333.3319217269795
  0
LINE
  5
126
330
2
100
AcDbEntity
  8
Halfen
100
AcDbLine
 10
172.2500000000001
 20
2680.249999999999
 30
0.0
 11
182.2500000000001
 21
2680.249999999999
 31
0.0
  0
LINE
  5
127
330
2
100
AcDbEntity
  8
Halfen
100
AcDbLine
 10
192.2500000000001
 20
2683.749999999999
 30
0.0
 11
192.2500000000001
 21
2687.249999999999
 31
0.0
  0
ARC
  5
128
330
2
100
AcDbEntity
  8
Halfen
 62
     1
100
AcDbCircle
 10
495.4474075818096
 20
2636.202405695702
 30
0.0
 40
13.23994164521477
100
AcDbArc
 50
108.0058901692794
 51
153.3319217269807
  0
ARC
  5
129
330
2
100
AcDbEntity
  8
Halfen
 62
     1
100
AcDbCircle
 10
479.5232485333953
 20
2654.736284254836
 30
0.0
 40
13.23994164521477
100
AcDbArc
 50
288.0058901692783
 51
333.3319217269795
  0
LINE
  5
12A
330
2
100
AcDbEntity
  8
Halfen
100
AcDbLine
 10
482.2500000000002
 20
2680.249999999999
 30
0.0
 11
482.2500000000002
 21
2597.249999999999
 31
0.0
  0
LINE
  5
12B
330
2
100
AcDbEntity
  8
Halfen
100
AcDbLine
 10
492.2500000000002
 20
2680.249999999999
 30
0.0
 11
492.2500000000002
 21
2597.249999999999
 31
0.0
  0
LINE
  5
12C
330
2
100
AcDbEntity
  8
Halfen
  6
MITTE2
 62
     1
100
AcDbLine
 10
272.2500000000002
 20
2687.249999999998
 30
0.0
 11
272.2500000000001
 21
2572.249755004996
 31
0.0
  0
LINE
  5
12D
330
2
100
AcDbEntity
  8
Halfen
100
AcDbLine
 10
332.2500000000002
 20
2680.249999999999
 30
0.0
 11
332.2500000000002
 21
2597.249999999999
 31
0.0
  0
LINE
  5
12E
330
2
100
AcDbEntity
  8
Halfen
100
AcDbLine
 10
342.2500000000002
 20
2680.249999999999
 30
0.0
 11
342.2500000000002
 21
2597.249999999999
 31
0.0
  0
LINE
  5
12F
330
2
100
AcDbEntity
  8
Halfen
100
AcDbLine
 10
267.2500000000001
 20
2680.249999999998
 30
0.0
 11
267.2500000000001
 21
2597.249999999998
 31
0.0
  0
LINE
  5
130
330
2
100
AcDbEntity
  8
Halfen
100
AcDbLine
 10
277.2500000000001
 20
2680.249999999998
 30
0.0
 11
277.2500000000001
 21
2597.249999999998
 31
0.0
  0
ARC
  5
131
330
2
100
AcDbEntity
  8
Halfen
 62
     1
100
AcDbCircle
 10
264.5232485333953
 20
2654.736284254836
 30
0.0
 40
13.23994164521477
100
AcDbArc
 50
288.0058901692783
 51
333.3319217269795
  0
ARC
  5
132
330
2
100
AcDbEntity
  8
Halfen
 62
     1
100
AcDbCircle
 10
280.4474075818094
 20
2636.202405695701
 30
0.0
 40
13.23994164521477
100
AcDbArc
 50
108.0058901692794
 51
153.3319217269807
  0
ARC
  5
133
330
2
100
AcDbEntity
  8
Halfen
 62
     1
100
AcDbCircle
 10
345.4474075818096
 20
2636.202405695702
 30
0.0
 40
13.23994164521477
100
AcDbArc
 50
108.0058901692794
 51
153.3319217269807
  0
ARC
  5
134
330
2
100
AcDbEntity
  8
Halfen
 62
     1
100
AcDbCircle
 10
329.5232485333954
 20
2654.736284254836
 30
0.0
 40
13.23994164521477
100
AcDbArc
 50
288.0058901692783
 51
333.3319217269795
  0
LINE
  5
135
330
2
100
AcDbEntity
  8
Halfen
100
AcDbLine
 10
512.2500000000002
 20
2552.249755004997
 30
0.0
 11
512.2500000000002
 21
2512.249755004996
 31
0.0
  0
LINE
  5
136
330
2
100
AcDbEntity
  8
Halfen
100
AcDbLine
 10
312.2500000000002
 20
2552.249755004997
 30
0.0
 11
312.2500000000002
 21
2512.249755004997
 31
0.0
  0
LINE
  5
137
330
2
100
AcDbEntity
  8
Halfen
100
AcDbLine
 10
312.2500000000002
 20
2512.249755004997
 30
0.0
 11
512.2500000000002
 21
2512.249755004996
 31
0.0
  0
LINE
  5
138
330
2
100
AcDbEntity
  8
Halfen
100
AcDbLine
 10
312.2500000000002
 20
2523.249755004996
 30
0.0
 11
512.2500000000002
 21
2523.249755004997
 31
0.0
  0
LINE
  5
139
330
2
100
AcDbEntity
  8
Halfen
100
AcDbLine
 10
312.2500000000002
 20
2541.249755004997
 30
0.0
 11
512.2500000000002
 21
2541.249755004997
 31
0.0
  0
LINE
  5
13A
330
2
100
AcDbEntity
  8
Halfen
100
AcDbLine
 10
312.2500000000002
 20
2552.249755004997
 30
0.0
 11
512.2500000000002
 21
2552.249755004997
 31
0.0
  0
LINE
  5
13B
330
2
100
AcDbEntity
  8
Halfen
100
AcDbLine
 10
312.2500000000002
 20
2597.249999999999
 30
0.0
 11
512.2500000000002
 21
2597.249999999999
 31
0.0
  0
LINE
  5
13C
330
2
100
AcDbEntity
  8
Halfen
100
AcDbLine
 10
312.2500000000002
 20
2572.249755004996
 30
0.0
 11
512.2500000000002
 21
2572.249755004996
 31
0.0
  0
LINE
  5
13D
330
2
100
AcDbEntity
  8
Halfen
100
AcDbLine
 10
252.2500000000001
 20
2593.499999999998
 30
0.0
 11
252.2500000000001
 21
2576.499755004996
 31
0.0
  0
LINE
  5
13E
330
2
100
AcDbEntity
  8
Halfen
100
AcDbLine
 10
255.0000000000001
 20
2593.499999999998
 30
0.0
 11
255.0000000000001
 21
2576.499755004996
 31
0.0
  0
LINE
  5
13F
330
2
100
AcDbEntity
  8
Halfen
100
AcDbLine
 10
312.2500000000002
 20
2597.249999999999
 30
0.0
 11
312.2500000000002
 21
2572.249755004996
 31
0.0
  0
LINE
  5
140
330
2
100
AcDbEntity
  8
Halfen
100
AcDbLine
 10
289.5000000000002
 20
2593.499999999998
 30
0.0
 11
289.5000000000002
 21
2576.499755004996
 31
0.0
  0
LINE
  5
141
330
2
100
AcDbEntity
  8
Halfen
100
AcDbLine
 10
292.2500000000003
 20
2593.499999999998
 30
0.0
 11
292.2500000000002
 21
2576.499755004996
 31
0.0
  0
ARC
  5
142
330
2
100
AcDbEntity
  8
Halfen
100
AcDbCircle
 10
288.0000000000002
 20
2576.499755004996
 30
0.0
 40
4.25
100
AcDbArc
 50
239.5484236365198
 51
0.0
  0
ARC
  5
143
330
2
100
AcDbEntity
  8
Halfen
100
AcDbCircle
 10
288.0000000000002
 20
2576.499755004996
 30
0.0
 40
1.5
100
AcDbArc
 50
239.5484236365142
 51
0.0
  0
LINE
  5
144
330
2
100
AcDbEntity
  8
Halfen
100
AcDbLine
 10
281.2500000000002
 20
2575.538064647345
 30
0.0
 11
282.643727429239
 21
2577.908723596454
 31
0.0
  0
LINE
  5
145
330
2
100
AcDbEntity
  8
Halfen
100
AcDbLine
 10
282.643727429239
 20
2577.908723596454
 30
0.0
 11
287.239785038597
 21
2575.206668305483
 31
0.0
  0
LINE
  5
146
330
2
100
AcDbEntity
  8
Halfen
100
AcDbLine
 10
281.2500000000002
 20
2575.538064647345
 30
0.0
 11
285.8460576093584
 21
2572.836009356374
 31
0.0
  0
LINE
  5
147
330
2
100
AcDbEntity
  8
Halfen
100
AcDbLine
 10
263.2500000000001
 20
2575.538064647345
 30
0.0
 11
261.8562725707612
 21
2577.908723596454
 31
0.0
  0
ARC
  5
148
330
2
100
AcDbEntity
  8
Halfen
100
AcDbCircle
 10
256.5000000000001
 20
2576.499755004996
 30
0.0
 40
1.5
100
AcDbArc
 50
180.0
 51
300.4515763634858
  0
ARC
  5
149
330
2
100
AcDbEntity
  8
Halfen
100
AcDbCircle
 10
256.5000000000001
 20
2576.499755004996
 30
0.0
 40
4.25
100
AcDbArc
 50
180.0
 51
300.4515763634802
  0
LINE
  5
14A
330
2
100
AcDbEntity
  8
Halfen
100
AcDbLine
 10
261.8562725707612
 20
2577.908723596454
 30
0.0
 11
257.2602149614033
 21
2575.206668305483
 31
0.0
  0
LINE
  5
14B
330
2
100
AcDbEntity
  8
Halfen
100
AcDbLine
 10
263.2500000000001
 20
2575.538064647345
 30
0.0
 11
258.6539423906419
 21
2572.836009356374
 31
0.0
  0
ARC
  5
14C
330
2
100
AcDbEntity
  8
Halfen
100
AcDbCircle
 10
288.5000000000002
 20
2593.499999999998
 30
0.0
 40
3.75
100
AcDbArc
 50
0.0
 51
90.0
  0
ARC
  5
14D
330
2
100
AcDbEntity
  8
Halfen
 62
     1
100
AcDbCircle
 10
264.5232485333949
 20
2622.223784254836
 30
0.0
 40
13.23994164521477
100
AcDbArc
 50
288.0058901692783
 51
333.3319217269795
  0
ARC
  5
14E
330
2
100
AcDbEntity
  8
Halfen
 62
     1
100
AcDbCircle
 10
264.5232485333949
 20
2611.386284254836
 30
0.0
 40
13.23994164521477
100
AcDbArc
 50
288.0058901692783
 51
333.3319217269795
  0
ARC
  5
14F
330
2
100
AcDbEntity
  8
Halfen
 62
     1
100
AcDbCircle
 10
280.447407581809
 20
2592.852405695702
 30
0.0
 40
13.23994164521477
100
AcDbArc
 50
108.0058901692794
 51
153.3319217269807
  0
ARC
  5
150
330
2
100
AcDbEntity
  8
Halfen
 62
     1
100
AcDbCircle
 10
264.5232485333951
 20
2643.898784254836
 30
0.0
 40
13.23994164521477
100
AcDbArc
 50
288.0058901692783
 51
333.3319217269795
  0
ARC
  5
151
330
2
100
AcDbEntity
  8
Halfen
 62
     1
100
AcDbCircle
 10
280.447407581809
 20
2614.527405695702
 30
0.0
 40
13.23994164521477
100
AcDbArc
 50
108.0058901692794
 51
153.3319217269807
  0
ARC
  5
152
330
2
100
AcDbEntity
  8
Halfen
 62
     1
100
AcDbCircle
 10
264.5232485333949
 20
2633.061284254836
 30
0.0
 40
13.23994164521477
100
AcDbArc
 50
288.0058901692783
 51
333.3319217269795
  0
ARC
  5
153
330
2
100
AcDbEntity
  8
Halfen
 62
     1
100
AcDbCircle
 10
280.447407581809
 20
2603.689905695702
 30
0.0
 40
13.23994164521477
100
AcDbArc
 50
108.0058901692794
 51
153.3319217269807
  0
ARC
  5
154
330
2
100
AcDbEntity
  8
Halfen
 62
     1
100
AcDbCircle
 10
280.4474075818092
 20
2625.364905695702
 30
0.0
 40
13.23994164521477
100
AcDbArc
 50
108.0058901692794
 51
153.3319217269807
  0
ARC
  5
155
330
2
100
AcDbEntity
  8
Halfen
100
AcDbCircle
 10
288.5000000000002
 20
2593.499999999998
 30
0.0
 40
1.0
100
AcDbArc
 50
0.0
 51
90.0
  0
ARC
  5
156
330
2
100
AcDbEntity
  8
Halfen
100
AcDbCircle
 10
256.0000000000001
 20
2593.499999999998
 30
0.0
 40
3.75
100
AcDbArc
 50
90.0
 51
180.0
  0
ARC
  5
157
330
2
100
AcDbEntity
  8
Halfen
100
AcDbCircle
 10
256.0000000000001
 20
2593.499999999998
 30
0.0
 40
1.0
100
AcDbArc
 50
90.0
 51
180.0
  0
LINE
  5
158
330
2
100
AcDbEntity
  8
Halfen
100
AcDbLine
 10
256.0000000000001
 20
2597.249999999998
 30
0.0
 11
288.5000000000002
 21
2597.249999999998
 31
0.0
  0
LINE
  5
159
330
2
100
AcDbEntity
  8
Halfen
100
AcDbLine
 10
256.0000000000001
 20
2594.499999999998
 30
0.0
 11
288.5000000000002
 21
2594.499999999998
 31
0.0
  0
ARC
  5
15A
330
2
100
AcDbEntity
  8
Halfen
 62
     1
100
AcDbCircle
 10
329.523248533395
 20
2622.223784254837
 30
0.0
 40
13.23994164521477
100
AcDbArc
 50
288.0058901692783
 51
333.3319217269795
  0
ARC
  5
15B
330
2
100
AcDbEntity
  8
Halfen
 62
     1
100
AcDbCircle
 10
329.523248533395
 20
2611.386284254836
 30
0.0
 40
13.23994164521477
100
AcDbArc
 50
288.0058901692783
 51
333.3319217269795
  0
ARC
  5
15C
330
2
100
AcDbEntity
  8
Halfen
 62
     1
100
AcDbCircle
 10
345.4474075818091
 20
2592.852405695702
 30
0.0
 40
13.23994164521477
100
AcDbArc
 50
108.0058901692794
 51
153.3319217269807
  0
ARC
  5
15D
330
2
100
AcDbEntity
  8
Halfen
 62
     1
100
AcDbCircle
 10
329.5232485333952
 20
2643.898784254837
 30
0.0
 40
13.23994164521477
100
AcDbArc
 50
288.0058901692783
 51
333.3319217269795
  0
ARC
  5
15E
330
2
100
AcDbEntity
  8
Halfen
 62
     1
100
AcDbCircle
 10
345.4474075818091
 20
2614.527405695703
 30
0.0
 40
13.23994164521477
100
AcDbArc
 50
108.0058901692794
 51
153.3319217269807
  0
ARC
  5
15F
330
2
100
AcDbEntity
  8
Halfen
 62
     1
100
AcDbCircle
 10
329.523248533395
 20
2633.061284254836
 30
0.0
 40
13.23994164521477
100
AcDbArc
 50
288.0058901692783
 51
333.3319217269795
  0
ARC
  5
160
330
2
100
AcDbEntity
  8
Halfen
 62
     1
100
AcDbCircle
 10
345.4474075818091
 20
2603.689905695703
 30
0.0
 40
13.23994164521477
100
AcDbArc
 50
108.0058901692794
 51
153.3319217269807
  0
ARC
  5
161
330
2
100
AcDbEntity
  8
Halfen
 62
     1
100
AcDbCircle
 10
345.4474075818093
 20
2625.364905695702
 30
0.0
 40
13.23994164521477
100
AcDbArc
 50
108.0058901692794
 51
153.3319217269807
  0
LINE
  5
162
330
2
100
AcDbEntity
  8
Halfen
100
AcDbLine
 10
512.2500000000002
 20
2597.249999999999
 30
0.0
 11
512.2500000000002
 21
2572.249755004996
 31
0.0
  0
ARC
  5
163
330
2
100
AcDbEntity
  8
Halfen
 62
     1
100
AcDbCircle
 10
479.5232485333949
 20
2622.223784254837
 30
0.0
 40
13.23994164521477
100
AcDbArc
 50
288.0058901692783
 51
333.3319217269795
  0
ARC
  5
164
330
2
100
AcDbEntity
  8
Halfen
 62
     1
100
AcDbCircle
 10
479.5232485333949
 20
2611.386284254836
 30
0.0
 40
13.23994164521477
100
AcDbArc
 50
288.0058901692783
 51
333.3319217269795
  0
ARC
  5
165
330
2
100
AcDbEntity
  8
Halfen
 62
     1
100
AcDbCircle
 10
495.447407581809
 20
2592.852405695702
 30
0.0
 40
13.23994164521477
100
AcDbArc
 50
108.0058901692794
 51
153.3319217269807
  0
ARC
  5
166
330
2
100
AcDbEntity
  8
Halfen
 62
     1
100
AcDbCircle
 10
479.5232485333952
 20
2643.898784254837
 30
0.0
 40
13.23994164521477
100
AcDbArc
 50
288.0058901692783
 51
333.3319217269795
  0
ARC
  5
167
330
2
100
AcDbEntity
  8
Halfen
 62
     1
100
AcDbCircle
 10
495.447407581809
 20
2614.527405695703
 30
0.0
 40
13.23994164521477
100
AcDbArc
 50
108.0058901692794
 51
153.3319217269807
  0
ARC
  5
168
330
2
100
AcDbEntity
  8
Halfen
 62
     1
100
AcDbCircle
 10
479.5232485333949
 20
2633.061284254836
 30
0.0
 40
13.23994164521477
100
AcDbArc
 50
288.0058901692783
 51
333.3319217269795
  0
ARC
  5
169
330
2
100
AcDbEntity
  8
Halfen
 62
     1
100
AcDbCircle
 10
495.447407581809
 20
2603.689905695703
 30
0.0
 40
13.23994164521477
100
AcDbArc
 50
108.0058901692794
 51
153.3319217269807
  0
ARC
  5
16A
330
2
100
AcDbEntity
  8
Halfen
 62
     1
100
AcDbCircle
 10
495.4474075818093
 20
2625.364905695702
 30
0.0
 40
13.23994164521477
100
AcDbArc
 50
108.0058901692794
 51
153.3319217269807
  0
LINE
  5
16B
330
2
100
AcDbEntity
  8
Halfen
100
AcDbLine
 10
342.2500000000002
 20
2680.249999999999
 30
0.0
 11
352.2500000000002
 21
2683.749999999999
 31
0.0
  0
LINE
  5
16C
330
2
100
AcDbEntity
  8
Halfen
100
AcDbLine
 10
322.2500000000002
 20
2683.749999999999
 30
0.0
 11
352.2500000000002
 21
2683.749999999999
 31
0.0
  0
LINE
  5
16D
330
2
100
AcDbEntity
  8
Halfen
100
AcDbLine
 10
322.2500000000002
 20
2687.249999999999
 30
0.0
 11
352.2500000000002
 21
2687.249999999999
 31
0.0
  0
ARC
  5
16E
330
2
100
AcDbEntity
  8
Halfen
 62
     1
100
AcDbCircle
 10
264.523248533396
 20
2687.248784254835
 30
0.0
 40
13.23994164521477
100
AcDbArc
 50
288.0058901692783
 51
328.0883185067858
  0
ARC
  5
16F
330
2
100
AcDbEntity
  8
Halfen
 62
     1
100
AcDbCircle
 10
280.4474075818102
 20
2668.714905695701
 30
0.0
 40
13.23994164521477
100
AcDbArc
 50
119.3975819914344
 51
153.3319217269807
  0
ARC
  5
170
330
2
100
AcDbEntity
  8
Halfen
 62
     1
100
AcDbCircle
 10
280.4474075818102
 20
2657.877405695701
 30
0.0
 40
13.23994164521477
100
AcDbArc
 50
108.0058901692794
 51
153.3319217269807
  0
ARC
  5
171
330
2
100
AcDbEntity
  8
Halfen
 62
     1
100
AcDbCircle
 10
264.523248533396
 20
2676.411284254835
 30
0.0
 40
13.23994164521477
100
AcDbArc
 50
288.0058901692783
 51
333.3319217269795
  0
ARC
  5
172
330
2
100
AcDbEntity
  8
Halfen
 62
     1
100
AcDbCircle
 10
280.4474075818098
 20
2647.039905695701
 30
0.0
 40
13.23994164521477
100
AcDbArc
 50
108.0058901692794
 51
153.3319217269807
  0
ARC
  5
173
330
2
100
AcDbEntity
  8
Halfen
 62
     1
100
AcDbCircle
 10
264.5232485333955
 20
2665.573784254835
 30
0.0
 40
13.23994164521477
100
AcDbArc
 50
288.0058901692783
 51
333.3319217269795
  0
LINE
  5
174
330
2
100
AcDbEntity
  8
Halfen
100
AcDbLine
 10
267.2500000000001
 20
2680.249999999998
 30
0.0
 11
277.2500000000001
 21
2680.249999999998
 31
0.0
  0
LINE
  5
175
330
2
100
AcDbEntity
  8
Halfen
100
AcDbLine
 10
287.2500000000001
 20
2683.749999999998
 30
0.0
 11
287.2500000000001
 21
2687.249999999998
 31
0.0
  0
LINE
  5
176
330
2
100
AcDbEntity
  8
Halfen
100
AcDbLine
 10
277.2500000000001
 20
2680.249999999998
 30
0.0
 11
287.2500000000001
 21
2683.749999999998
 31
0.0
  0
LINE
  5
177
330
2
100
AcDbEntity
  8
Halfen
100
AcDbLine
 10
257.2500000000001
 20
2683.749999999998
 30
0.0
 11
257.2500000000001
 21
2687.249999999998
 31
0.0
  0
LINE
  5
178
330
2
100
AcDbEntity
  8
Halfen
100
AcDbLine
 10
267.2500000000001
 20
2680.249999999998
 30
0.0
 11
257.2500000000001
 21
2683.749999999998
 31
0.0
  0
LINE
  5
179
330
2
100
AcDbEntity
  8
Halfen
100
AcDbLine
 10
257.2500000000001
 20
2683.749999999998
 30
0.0
 11
287.2500000000001
 21
2683.749999999998
 31
0.0
  0
LINE
  5
17A
330
2
100
AcDbEntity
  8
Halfen
100
AcDbLine
 10
257.2500000000001
 20
2687.249999999998
 30
0.0
 11
287.2500000000001
 21
2687.249999999998
 31
0.0
  0
LINE
  5
17B
330
2
100
AcDbEntity
  8
Halfen
100
AcDbLine
 10
322.2500000000002
 20
2683.749999999999
 30
0.0
 11
322.2500000000002
 21
2687.249999999999
 31
0.0
  0
LINE
  5
17C
330
2
100
AcDbEntity
  8
Halfen
100
AcDbLine
 10
332.2500000000002
 20
2680.249999999999
 30
0.0
 11
322.2500000000002
 21
2683.749999999999
 31
0.0
  0
ARC
  5
17D
330
2
100
AcDbEntity
  8
Halfen
 62
     1
100
AcDbCircle
 10
329.5232485333961
 20
2687.248784254836
 30
0.0
 40
13.23994164521477
100
AcDbArc
 50
288.0058901692783
 51
328.0883185067858
  0
ARC
  5
17E
330
2
100
AcDbEntity
  8
Halfen
 62
     1
100
AcDbCircle
 10
345.4474075818104
 20
2668.714905695702
 30
0.0
 40
13.23994164521477
100
AcDbArc
 50
119.3975819914344
 51
153.3319217269807
  0
ARC
  5
17F
330
2
100
AcDbEntity
  8
Halfen
 62
     1
100
AcDbCircle
 10
345.4474075818104
 20
2657.877405695701
 30
0.0
 40
13.23994164521477
100
AcDbArc
 50
108.0058901692794
 51
153.3319217269807
  0
ARC
  5
180
330
2
100
AcDbEntity
  8
Halfen
 62
     1
100
AcDbCircle
 10
329.5232485333961
 20
2676.411284254836
 30
0.0
 40
13.23994164521477
100
AcDbArc
 50
288.0058901692783
 51
333.3319217269795
  0
ARC
  5
181
330
2
100
AcDbEntity
  8
Halfen
 62
     1
100
AcDbCircle
 10
345.4474075818099
 20
2647.039905695702
 30
0.0
 40
13.23994164521477
100
AcDbArc
 50
108.0058901692794
 51
153.3319217269807
  0
ARC
  5
182
330
2
100
AcDbEntity
  8
Halfen
 62
     1
100
AcDbCircle
 10
329.5232485333956
 20
2665.573784254835
 30
0.0
 40
13.23994164521477
100
AcDbArc
 50
288.0058901692783
 51
333.3319217269795
  0
LINE
  5
183
330
2
100
AcDbEntity
  8
Halfen
100
AcDbLine
 10
332.2500000000002
 20
2680.249999999999
 30
0.0
 11
342.2500000000002
 21
2680.249999999999
 31
0.0
  0
LINE
  5
184
330
2
100
AcDbEntity
  8
Halfen
100
AcDbLine
 10
352.2500000000002
 20
2683.749999999999
 30
0.0
 11
352.2500000000002
 21
2687.249999999999
 31
0.0
  0
LINE
  5
185
330
2
100
AcDbEntity
  8
Halfen
100
AcDbLine
 10
472.2500000000002
 20
2683.749999999999
 30
0.0
 11
502.2500000000002
 21
2683.749999999999
 31
0.0
  0
LINE
  5
186
330
2
100
AcDbEntity
  8
Halfen
100
AcDbLine
 10
472.2500000000002
 20
2687.249999999999
 30
0.0
 11
502.2500000000002
 21
2687.249999999999
 31
0.0
  0
LINE
  5
187
330
2
100
AcDbEntity
  8
Halfen
100
AcDbLine
 10
482.2500000000002
 20
2680.249999999999
 30
0.0
 11
472.2500000000002
 21
2683.749999999999
 31
0.0
  0
LINE
  5
188
330
2
100
AcDbEntity
  8
Halfen
100
AcDbLine
 10
472.2500000000002
 20
2683.749999999999
 30
0.0
 11
472.2500000000002
 21
2687.249999999999
 31
0.0
  0
LINE
  5
189
330
2
100
AcDbEntity
  8
Halfen
100
AcDbLine
 10
492.2500000000002
 20
2680.249999999999
 30
0.0
 11
502.2500000000002
 21
2683.749999999999
 31
0.0
  0
ARC
  5
18A
330
2
100
AcDbEntity
  8
Halfen
 62
     1
100
AcDbCircle
 10
479.523248533396
 20
2687.248784254836
 30
0.0
 40
13.23994164521477
100
AcDbArc
 50
288.0058901692783
 51
328.0883185067858
  0
ARC
  5
18B
330
2
100
AcDbEntity
  8
Halfen
 62
     1
100
AcDbCircle
 10
495.4474075818104
 20
2668.714905695702
 30
0.0
 40
13.23994164521477
100
AcDbArc
 50
119.3975819914344
 51
153.3319217269807
  0
ARC
  5
18C
330
2
100
AcDbEntity
  8
Halfen
 62
     1
100
AcDbCircle
 10
495.4474075818104
 20
2657.877405695701
 30
0.0
 40
13.23994164521477
100
AcDbArc
 50
108.0058901692794
 51
153.3319217269807
  0
ARC
  5
18D
330
2
100
AcDbEntity
  8
Halfen
 62
     1
100
AcDbCircle
 10
479.523248533396
 20
2676.411284254836
 30
0.0
 40
13.23994164521477
100
AcDbArc
 50
288.0058901692783
 51
333.3319217269795
  0
ARC
  5
18E
330
2
100
AcDbEntity
  8
Halfen
 62
     1
100
AcDbCircle
 10
495.4474075818098
 20
2647.039905695702
 30
0.0
 40
13.23994164521477
100
AcDbArc
 50
108.0058901692794
 51
153.3319217269807
  0
ARC
  5
18F
330
2
100
AcDbEntity
  8
Halfen
 62
     1
100
AcDbCircle
 10
479.5232485333956
 20
2665.573784254835
 30
0.0
 40
13.23994164521477
100
AcDbArc
 50
288.0058901692783
 51
333.3319217269795
  0
LINE
  5
190
330
2
100
AcDbEntity
  8
Halfen
100
AcDbLine
 10
482.2500000000002
 20
2680.249999999999
 30
0.0
 11
492.2500000000002
 21
2680.249999999999
 31
0.0
  0
LINE
  5
191
330
2
100
AcDbEntity
  8
Halfen
100
AcDbLine
 10
502.2500000000002
 20
2683.749999999999
 30
0.0
 11
502.2500000000002
 21
2687.249999999999
 31
0.0
  0
LINE
  5
192
330
2
100
AcDbEntity
  8
Halfen
100
AcDbLine
 10
-132.7497550049971
 20
2136.689834481424
 30
0.0
 11
12.25000000000079
 21
2136.689834481424
 31
0.0
  0
LINE
  5
193
330
2
100
AcDbEntity
  8
Halfen
100
AcDbLine
 10
-132.7497550049971
 20
2147.689834481423
 30
0.0
 11
12.25000000000079
 21
2147.689834481424
 31
0.0
  0
LINE
  5
194
330
2
100
AcDbEntity
  8
Halfen
100
AcDbLine
 10
-132.7497550049971
 20
2165.689834481424
 30
0.0
 11
12.25000000000079
 21
2165.689834481424
 31
0.0
  0
LINE
  5
195
330
2
100
AcDbEntity
  8
Halfen
100
AcDbLine
 10
-132.7497550049971
 20
2176.689834481424
 30
0.0
 11
12.25000000000079
 21
2176.689834481424
 31
0.0
  0
LINE
  5
196
330
2
100
AcDbEntity
  8
Halfen
100
AcDbLine
 10
-132.7497550049971
 20
2221.690079476426
 30
0.0
 11
12.25000000000079
 21
2221.690079476426
 31
0.0
  0
LINE
  5
197
330
2
100
AcDbEntity
  8
Halfen
100
AcDbLine
 10
-157.7499999999992
 20
2196.689834481424
 30
0.0
 11
12.25000000000079
 21
2196.689834481424
 31
0.0
  0
LINE
  5
198
330
2
100
AcDbEntity
  8
Halfen
100
AcDbLine
 10
-132.7497550049971
 20
2176.689834481424
 30
0.0
 11
-132.7497550049971
 21
2136.689834481424
 31
0.0
  0
LINE
  5
199
330
2
100
AcDbEntity
  8
Halfen
100
AcDbLine
 10
-137.0608015517648
 20
2136.689834481424
 30
0.0
 11
-154.0610465467669
 21
2136.689834481424
 31
0.0
  0
LINE
  5
19A
330
2
100
AcDbEntity
  8
Halfen
100
AcDbLine
 10
-137.0608015517648
 20
2139.439834481424
 30
0.0
 11
-154.0610465467673
 21
2139.439834481424
 31
0.0
  0
LINE
  5
19B
330
2
100
AcDbEntity
  8
Halfen
100
AcDbLine
 10
-157.7499999999992
 20
2221.690079476426
 30
0.0
 11
-157.7499999999992
 21
2196.689834481424
 31
0.0
  0
LINE
  5
19C
330
2
100
AcDbEntity
  8
Halfen
100
AcDbLine
 10
-137.0608015517648
 20
2173.939834481424
 30
0.0
 11
-154.0610465467673
 21
2173.939834481424
 31
0.0
  0
LINE
  5
19D
330
2
100
AcDbEntity
  8
Halfen
100
AcDbLine
 10
-137.0608015517648
 20
2176.689834481424
 30
0.0
 11
-154.0610465467669
 21
2176.689834481424
 31
0.0
  0
LINE
  5
19E
330
2
100
AcDbEntity
  8
Halfen
100
AcDbLine
 10
-155.022736904418
 20
2165.689834481424
 30
0.0
 11
-157.7247921953888
 21
2170.285892090782
 31
0.0
  0
LINE
  5
19F
330
2
100
AcDbEntity
  8
Halfen
100
AcDbLine
 10
-152.6520779553095
 20
2167.083561910663
 30
0.0
 11
-155.3541332462807
 21
2171.679619520021
 31
0.0
  0
ARC
  5
1A0
330
2
100
AcDbEntity
  8
Halfen
100
AcDbCircle
 10
-154.0610465467669
 20
2172.439834481424
 30
0.0
 40
4.25
100
AcDbArc
 50
89.99999999999998
 51
210.4515763634802
  0
ARC
  5
1A1
330
2
100
AcDbEntity
  8
Halfen
100
AcDbCircle
 10
-154.0610465467673
 20
2172.439834481424
 30
0.0
 40
1.5
100
AcDbArc
 50
89.99999999999998
 51
210.4515763634858
  0
LINE
  5
1A2
330
2
100
AcDbEntity
  8
Halfen
100
AcDbLine
 10
-155.022736904418
 20
2165.689834481424
 30
0.0
 11
-152.6520779553095
 21
2167.083561910663
 31
0.0
  0
LINE
  5
1A3
330
2
100
AcDbEntity
  8
Halfen
100
AcDbLine
 10
-155.022736904418
 20
2147.689834481424
 30
0.0
 11
-157.7247921953888
 21
2143.093776872066
 31
0.0
  0
LINE
  5
1A4
330
2
100
AcDbEntity
  8
Halfen
100
AcDbLine
 10
-152.6520779553095
 20
2146.296107052185
 30
0.0
 11
-155.3541332462807
 21
2141.700049442827
 31
0.0
  0
LINE
  5
1A5
330
2
100
AcDbEntity
  8
Halfen
100
AcDbLine
 10
-155.022736904418
 20
2147.689834481424
 30
0.0
 11
-152.6520779553095
 21
2146.296107052185
 31
0.0
  0
ARC
  5
1A6
330
2
100
AcDbEntity
  8
Halfen
100
AcDbCircle
 10
-154.0610465467674
 20
2140.939834481424
 30
0.0
 40
1.5
100
AcDbArc
 50
149.5484236365142
 51
270.0
  0
ARC
  5
1A7
330
2
100
AcDbEntity
  8
Halfen
100
AcDbCircle
 10
-154.061046546767
 20
2140.939834481424
 30
0.0
 40
4.25
100
AcDbArc
 50
149.5484236365198
 51
270.0
  0
LINE
  5
1A8
330
2
100
AcDbEntity
  8
Halfen
100
AcDbLine
 10
-136.0608015517648
 20
2172.939834481424
 30
0.0
 11
-136.0608015517648
 21
2140.439834481424
 31
0.0
  0
ARC
  5
1A9
330
2
100
AcDbEntity
  8
Halfen
100
AcDbCircle
 10
-137.0608015517649
 20
2172.939834481424
 30
0.0
 40
1.0
100
AcDbArc
 50
0.0
 51
89.99999999999998
  0
ARC
  5
1AA
330
2
100
AcDbEntity
  8
Halfen
100
AcDbCircle
 10
-137.0608015517649
 20
2172.939834481424
 30
0.0
 40
3.75
100
AcDbArc
 50
0.0
 51
89.99999999999998
  0
ARC
  5
1AB
330
2
100
AcDbEntity
  8
Halfen
100
AcDbCircle
 10
-137.0608015517649
 20
2140.439834481424
 30
0.0
 40
1.0
100
AcDbArc
 50
270.0
 51
0.0
  0
ARC
  5
1AC
330
2
100
AcDbEntity
  8
Halfen
100
AcDbCircle
 10
-137.0608015517649
 20
2140.439834481424
 30
0.0
 40
3.75
100
AcDbArc
 50
270.0
 51
0.0
  0
LINE
  5
1AD
330
2
100
AcDbEntity
  8
Halfen
100
AcDbLine
 10
12.25000000000079
 20
2176.689834481424
 30
0.0
 11
12.25000000000079
 21
2136.689834481424
 31
0.0
  0
LINE
  5
1AE
330
2
100
AcDbEntity
  8
Halfen
100
AcDbLine
 10
12.25000000000079
 20
2221.690079476426
 30
0.0
 11
12.25000000000079
 21
2196.689834481424
 31
0.0
  0
LINE
  5
1AF
330
2
100
AcDbEntity
  8
Halfen
100
AcDbLine
 10
-157.7499999999992
 20
2366.689834481424
 30
0.0
 11
-157.7499999999992
 21
2196.689834481424
 31
0.0
  0
LINE
  5
1B0
330
2
100
AcDbEntity
  8
Halfen
100
AcDbLine
 10
-132.7497550049971
 20
2366.689834481424
 30
0.0
 11
-132.7497550049971
 21
2196.689834481424
 31
0.0
  0
LINE
  5
1B1
330
2
100
AcDbEntity
  8
Halfen
100
AcDbLine
 10
-132.7497550049971
 20
2366.689834481424
 30
0.0
 11
-157.7499999999992
 21
2366.689834481424
 31
0.0
  0
ARC
  5
1B2
330
2
100
AcDbEntity
  8
Halfen
 62
     1
100
AcDbCircle
 10
46.0626634449651
 20
2270.400437268313
 30
0.0
 40
18.32517874770211
100
AcDbArc
 50
161.6680782730206
 51
206.9941098307218
  0
ARC
  5
1B3
330
2
100
AcDbEntity
  8
Halfen
 62
     1
100
AcDbCircle
 10
12.33877132222653
 20
2267.846319118798
 30
0.0
 40
18.32517874770211
100
AcDbArc
 50
341.6680782730194
 51
26.99410983072062
  0
LINE
  5
1B4
330
2
100
AcDbEntity
  8
Halfen
100
AcDbLine
 10
40.9398628384838
 20
2290.279437251521
 30
0.0
 11
-27.64949493661049
 21
2221.690079476426
 31
0.0
  0
LINE
  5
1B5
330
2
100
AcDbEntity
  8
Halfen
100
AcDbLine
 10
50.83935777509612
 20
2280.379942314911
 30
0.0
 11
-7.850505063387913
 21
2221.690079476426
 31
0.0
  0
ARC
  5
1B6
330
2
100
AcDbEntity
  8
Halfen
 62
     1
100
AcDbCircle
 10
24.84946000936964
 20
2249.187233832717
 30
0.0
 40
18.32517874770211
100
AcDbArc
 50
161.6680782730206
 51
206.9941098307218
  0
ARC
  5
1B7
330
2
100
AcDbEntity
  8
Halfen
 62
     1
100
AcDbCircle
 10
-8.87443211336847
 20
2246.633115683202
 30
0.0
 40
18.32517874770211
100
AcDbArc
 50
341.6680782730194
 51
26.99410983072062
  0
ARC
  5
1B8
330
2
100
AcDbEntity
  8
Halfen
 62
     1
100
AcDbCircle
 10
14.24285829157145
 20
2238.580632114919
 30
0.0
 40
18.32517874770211
100
AcDbArc
 50
161.6680782730206
 51
206.9941098307218
  0
ARC
  5
1B9
330
2
100
AcDbEntity
  8
Halfen
 62
     1
100
AcDbCircle
 10
-19.48103383116665
 20
2236.026513965403
 30
0.0
 40
18.32517874770211
100
AcDbArc
 50
341.6680782730194
 51
26.99410983072062
  0
ARC
  5
1BA
330
2
100
AcDbEntity
  8
Halfen
 62
     1
100
AcDbCircle
 10
-30.08763554896484
 20
2225.419912247605
 30
0.0
 40
18.32517874770211
100
AcDbArc
 50
348.2561912954242
 51
26.99410983072062
  0
ARC
  5
1BB
330
2
100
AcDbEntity
  8
Halfen
 62
     1
100
AcDbCircle
 10
3.636256573773266
 20
2227.97403039712
 30
0.0
 40
18.32517874770211
100
AcDbArc
 50
161.6680782730206
 51
200.0544791068159
  0
ARC
  5
1BC
330
2
100
AcDbEntity
  8
Halfen
 62
     1
100
AcDbCircle
 10
35.45606172716737
 20
2259.793835550516
 30
0.0
 40
18.32517874770211
100
AcDbArc
 50
161.6680782730206
 51
206.9941098307218
  0
ARC
  5
1BD
330
2
100
AcDbEntity
  8
Halfen
 62
     1
100
AcDbCircle
 10
1.732169604429259
 20
2257.239717401
 30
0.0
 40
18.32517874770211
100
AcDbArc
 50
341.6680782730194
 51
26.99410983072062
  0
LINE
  5
1BE
330
2
100
AcDbEntity
  8
Halfen
100
AcDbLine
 10
40.93986283848437
 20
2290.279437251521
 30
0.0
 11
34.57590180780528
 21
2303.714466094065
 31
0.0
  0
LINE
  5
1BF
330
2
100
AcDbEntity
  8
Halfen
100
AcDbLine
 10
67.80992052357317
 20
2277.551515190163
 30
0.0
 11
38.11143571373816
 21
2307.249999999998
 31
0.0
  0
LINE
  5
1C0
330
2
100
AcDbEntity
  8
Halfen
100
AcDbLine
 10
64.27438661764028
 20
2274.01598128423
 30
0.0
 11
34.57590180780528
 21
2303.714466094065
 31
0.0
  0
ARC
  5
1C1
330
2
100
AcDbEntity
  8
Halfen
 62
     1
100
AcDbCircle
 10
56.66926516276283
 20
2281.007038986112
 30
0.0
 40
18.32517874770211
100
AcDbArc
 50
161.6680782730206
 51
206.9941098307218
  0
ARC
  5
1C2
330
2
100
AcDbEntity
  8
Halfen
 62
     1
100
AcDbCircle
 10
22.94537304002426
 20
2278.452920836596
 30
0.0
 40
18.32517874770211
100
AcDbArc
 50
341.6680782730194
 51
26.99410983072062
  0
LINE
  5
1C3
330
2
100
AcDbEntity
  8
Halfen
100
AcDbLine
 10
38.11143571373816
 20
2307.249999999998
 30
0.0
 11
34.57590180780528
 21
2303.714466094065
 31
0.0
  0
LINE
  5
1C4
330
2
100
AcDbEntity
  8
Halfen
100
AcDbLine
 10
50.83935777509634
 20
2280.37994231491
 30
0.0
 11
40.93986283848392
 21
2290.279437251521
 31
0.0
  0
LINE
  5
1C5
330
2
100
AcDbEntity
  8
Halfen
100
AcDbLine
 10
67.80992052357317
 20
2277.551515190163
 30
0.0
 11
64.27438661764028
 21
2274.01598128423
 31
0.0
  0
LINE
  5
1C6
330
2
100
AcDbEntity
  8
Halfen
100
AcDbLine
 10
50.83935777509589
 20
2280.379942314909
 30
0.0
 11
64.27438661764028
 21
2274.01598128423
 31
0.0
  0
LINE
  5
1C7
330
2
100
AcDbEntity
  8
Halfen
100
AcDbLine
 10
-64.16039722990274
 20
2395.379697319907
 30
0.0
 11
-132.7497550049971
 21
2326.790339544813
 31
0.0
  0
LINE
  5
1C8
330
2
100
AcDbEntity
  8
Halfen
100
AcDbLine
 10
-74.05989216651244
 20
2405.27919225652
 30
0.0
 11
-132.7497550049971
 21
2346.589329418035
 31
0.0
  0
LINE
  5
1C9
330
2
100
AcDbEntity
  8
Halfen
100
AcDbLine
 10
-76.88831929126002
 20
2422.249755004996
 30
0.0
 11
-80.42385319719334
 21
2418.714221099064
 31
0.0
  0
LINE
  5
1CA
330
2
100
AcDbEntity
  8
Halfen
100
AcDbLine
 10
-80.42385319719334
 20
2418.714221099064
 30
0.0
 11
-50.72536838735789
 21
2389.015736289228
 31
0.0
  0
LINE
  5
1CB
330
2
100
AcDbEntity
  8
Halfen
100
AcDbLine
 10
-74.05989216651426
 20
2405.279192256519
 30
0.0
 11
-80.42385319719334
 21
2418.714221099064
 31
0.0
  0
ARC
  5
1CC
330
2
100
AcDbEntity
  8
Halfen
 62
     1
100
AcDbCircle
 10
-75.98691364482704
 20
2377.385207521448
 30
0.0
 40
18.32517874770211
100
AcDbArc
 50
63.00589016927938
 51
108.3319217269806
  0
ARC
  5
1CD
330
2
100
AcDbEntity
  8
Halfen
 62
     1
100
AcDbCircle
 10
-73.43279549531155
 20
2411.109099644186
 30
0.0
 40
18.32517874770211
100
AcDbArc
 50
243.0058901692782
 51
288.3319217269794
  0
ARC
  5
1CE
330
2
100
AcDbEntity
  8
Halfen
 62
     1
100
AcDbCircle
 10
-97.20011708042342
 20
2356.172004085852
 30
0.0
 40
18.32517874770211
100
AcDbArc
 50
63.00589016927938
 51
108.3319217269806
  0
ARC
  5
1CF
330
2
100
AcDbEntity
  8
Halfen
 62
     1
100
AcDbCircle
 10
-94.64599893090792
 20
2389.89589620859
 30
0.0
 40
18.32517874770211
100
AcDbArc
 50
243.0058901692782
 51
288.3319217269794
  0
ARC
  5
1D0
330
2
100
AcDbEntity
  8
Halfen
 62
     1
100
AcDbCircle
 10
-126.4658040843029
 20
2358.076091055197
 30
0.0
 40
18.32517874770211
100
AcDbArc
 50
249.9455208931841
 51
288.3319217269794
  0
ARC
  5
1D1
330
2
100
AcDbEntity
  8
Halfen
 62
     1
100
AcDbCircle
 10
-129.0199222338184
 20
2324.352198932459
 30
0.0
 40
18.32517874770211
100
AcDbArc
 50
63.00589016927938
 51
101.7438087045758
  0
ARC
  5
1D2
330
2
100
AcDbEntity
  8
Halfen
 62
     1
100
AcDbCircle
 10
-118.4133205160202
 20
2334.958800650257
 30
0.0
 40
18.32517874770211
100
AcDbArc
 50
63.00589016927938
 51
108.3319217269806
  0
ARC
  5
1D3
330
2
100
AcDbEntity
  8
Halfen
 62
     1
100
AcDbCircle
 10
-115.8592023665047
 20
2368.682692772995
 30
0.0
 40
18.32517874770211
100
AcDbArc
 50
243.0058901692782
 51
288.3319217269794
  0
ARC
  5
1D4
330
2
100
AcDbEntity
  8
Halfen
 62
     1
100
AcDbCircle
 10
-107.8067187982216
 20
2345.565402368055
 30
0.0
 40
18.32517874770211
100
AcDbArc
 50
63.00589016927938
 51
108.3319217269806
  0
ARC
  5
1D5
330
2
100
AcDbEntity
  8
Halfen
 62
     1
100
AcDbCircle
 10
-105.2526006487065
 20
2379.289294490793
 30
0.0
 40
18.32517874770211
100
AcDbArc
 50
243.0058901692782
 51
288.3319217269794
  0
ARC
  5
1D6
330
2
100
AcDbEntity
  8
Halfen
 62
     1
100
AcDbCircle
 10
-86.59351536262523
 20
2366.778605803649
 30
0.0
 40
18.32517874770211
100
AcDbArc
 50
63.00589016927938
 51
108.3319217269806
  0
ARC
  5
1D7
330
2
100
AcDbEntity
  8
Halfen
 62
     1
100
AcDbCircle
 10
-84.03939721310974
 20
2400.502497926389
 30
0.0
 40
18.32517874770211
100
AcDbArc
 50
243.0058901692782
 51
288.3319217269794
  0
LINE
  5
1D8
330
2
100
AcDbEntity
  8
Halfen
100
AcDbLine
 10
-74.05989216651335
 20
2405.27919225652
 30
0.0
 11
-64.16039722990274
 21
2395.379697319908
 31
0.0
  0
LINE
  5
1D9
330
2
100
AcDbEntity
  8
Halfen
100
AcDbLine
 10
-76.88831929126002
 20
2422.249755004996
 30
0.0
 11
-47.18983448142546
 21
2392.551270195162
 31
0.0
  0
LINE
  5
1DA
330
2
100
AcDbEntity
  8
Halfen
100
AcDbLine
 10
-47.18983448142546
 20
2392.551270195162
 30
0.0
 11
-50.72536838735789
 21
2389.015736289228
 31
0.0
  0
LINE
  5
1DB
330
2
100
AcDbEntity
  8
Halfen
100
AcDbLine
 10
-64.16039722990274
 20
2395.379697319908
 30
0.0
 11
-50.72536838735789
 21
2389.015736289228
 31
0.0
  0
ELLIPSE
  5
1DC
330
2
100
AcDbEntity
  8
Halfen
100
AcDbEllipse
 10
-197.7500000008043
 20
2403.864978694146
 30
0.0
 11
21.0
 21
-0.0000000000000013
 31
0.0
210
0.0
220
0.0
230
1.0
 40
0.7071067811865479
 41
5.052225889838811
 42
10.65573737811015
  0
ELLIPSE
  5
1DD
330
2
100
AcDbEntity
  8
Halfen
100
AcDbEllipse
 10
-197.7500000008043
 20
2407.400512600079
 30
0.0
 11
-21.0
 21
0.0000000000000013
 31
0.0
210
0.0
220
0.0
230
1.0
 40
0.7071067811865479
 41
3.141592653589793
 42
6.283185307179586
  0
ARC
  5
1DE
330
2
100
AcDbEntity
  8
Halfen
 62
     1
100
AcDbCircle
 10
-208.4289427396458
 20
2405.139356127922
 30
0.0
 40
18.32517874770211
100
AcDbArc
 50
288.0058901692783
 51
333.3319217269795
  0
ARC
  5
1DF
330
2
100
AcDbEntity
  8
Halfen
 62
     1
100
AcDbCircle
 10
-186.3885841951279
 20
2379.486929056456
 30
0.0
 40
18.32517874770211
100
AcDbArc
 50
108.0058901692794
 51
153.3319217269807
  0
LINE
  5
1E0
330
2
100
AcDbEntity
  8
Halfen
100
AcDbLine
 10
-190.7500000008043
 20
2400.329444788214
 30
0.0
 11
-190.7500000008043
 21
2366.689834481424
 31
0.0
  0
LINE
  5
1E1
330
2
100
AcDbEntity
  8
Halfen
100
AcDbLine
 10
-204.7500000008043
 20
2400.329444788214
 30
0.0
 11
-204.7500000008043
 21
2366.689834481424
 31
0.0
  0
ARC
  5
1E2
330
2
100
AcDbEntity
  8
Halfen
 62
     1
100
AcDbCircle
 10
-208.4289427396458
 20
2390.139356127922
 30
0.0
 40
18.32517874770211
100
AcDbArc
 50
288.0058901692783
 51
333.3319217269795
  0
ARC
  5
1E3
330
2
100
AcDbEntity
  8
Halfen
 62
     1
100
AcDbCircle
 10
-186.3885841951279
 20
2364.486929056456
 30
0.0
 40
18.32517874770211
100
AcDbArc
 50
108.0058901692794
 51
153.3319217269807
  0
LINE
  5
1E4
330
2
100
AcDbEntity
  8
Halfen
100
AcDbLine
 10
-176.7500000008043
 20
2407.400512600079
 30
0.0
 11
-176.7500000008043
 21
2403.864978694146
 31
0.0
  0
ELLIPSE
  5
1E5
330
2
100
AcDbEntity
  8
Halfen
100
AcDbEllipse
 10
-197.7500000008043
 20
2400.329444788214
 30
0.0
 11
-7.0
 21
0.0000000000000004
 31
0.0
210
0.0
220
0.0
230
1.0
 40
0.7071067811866831
 41
3.141592653589793
 42
6.283185307179586
  0
LINE
  5
1E6
330
2
100
AcDbEntity
  8
Halfen
100
AcDbLine
 10
-218.7500000008043
 20
2407.400512600079
 30
0.0
 11
-218.7500000008043
 21
2403.864978694146
 31
0.0
  0
LINE
  5
1E7
330
2
100
AcDbEntity
  8
Halfen
100
AcDbLine
 10
-217.7499999999997
 20
2366.689834481424
 30
0.0
 11
-177.7499999999992
 21
2366.689834481424
 31
0.0
  0
LINE
  5
1E8
330
2
100
AcDbEntity
  8
Halfen
100
AcDbLine
 10
-217.7499999999997
 20
2196.689834481424
 30
0.0
 11
-217.7499999999997
 21
2366.689834481424
 31
0.0
  0
LINE
  5
1E9
330
2
100
AcDbEntity
  8
Halfen
100
AcDbLine
 10
-177.7499999999996
 20
2196.689834481424
 30
0.0
 11
-177.7499999999992
 21
2366.689834481424
 31
0.0
  0
LINE
  5
1EA
330
2
100
AcDbEntity
  8
Halfen
100
AcDbLine
 10
-188.7499999999986
 20
2196.689834481424
 30
0.0
 11
-188.7499999999996
 21
2366.689834481424
 31
0.0
  0
LINE
  5
1EB
330
2
100
AcDbEntity
  8
Halfen
100
AcDbLine
 10
-206.7499999999997
 20
2196.689834481424
 30
0.0
 11
-206.7499999999997
 21
2366.689834481424
 31
0.0
  0
LINE
  5
1EC
330
2
100
AcDbEntity
  8
Halfen
100
AcDbLine
 10
-177.7499999999996
 20
2196.689834481424
 30
0.0
 11
-217.7499999999997
 21
2196.689834481424
 31
0.0
  0
ELLIPSE
  5
1ED
330
2
100
AcDbEntity
  8
Halfen
100
AcDbEllipse
 10
49.42514421272282
 20
2156.689834482229
 30
0.0
 11
0.0
 21
-21.0
 31
0.0
210
0.0
220
0.0
230
1.0
 40
0.7071067811865479
 41
5.052225889838811
 42
10.65573737811015
  0
ELLIPSE
  5
1EE
330
2
100
AcDbEntity
  8
Halfen
100
AcDbEllipse
 10
52.96067811865569
 20
2156.689834482229
 30
0.0
 11
0.0
 21
21.0
 31
0.0
210
0.0
220
0.0
230
1.0
 40
0.7071067811865479
 41
3.141592653589793
 42
6.283185307179586
  0
LINE
  5
1EF
330
2
100
AcDbEntity
  8
Halfen
100
AcDbLine
 10
45.88961030679081
 20
2149.689834482229
 30
0.0
 11
12.25000000000079
 21
2149.689834482229
 31
0.0
  0
LINE
  5
1F0
330
2
100
AcDbEntity
  8
Halfen
100
AcDbLine
 10
45.88961030679081
 20
2163.689834482229
 30
0.0
 11
12.25000000000079
 21
2163.689834482229
 31
0.0
  0
ARC
  5
1F1
330
2
100
AcDbEntity
  8
Halfen
 62
     1
100
AcDbCircle
 10
50.69952164649897
 20
2167.368777221071
 30
0.0
 40
18.32517874770211
100
AcDbArc
 50
198.0058901692783
 51
243.3319217269795
  0
ARC
  5
1F2
330
2
100
AcDbEntity
  8
Halfen
 62
     1
100
AcDbCircle
 10
25.04709457503316
 20
2145.328418676553
 30
0.0
 40
18.32517874770211
100
AcDbArc
 50
18.00589016927945
 51
63.33192172698071
  0
ARC
  5
1F3
330
2
100
AcDbEntity
  8
Halfen
 62
     1
100
AcDbCircle
 10
35.69952164649897
 20
2167.368777221071
 30
0.0
 40
18.32517874770211
100
AcDbArc
 50
198.0058901692783
 51
243.3319217269795
  0
ARC
  5
1F4
330
2
100
AcDbEntity
  8
Halfen
 62
     1
100
AcDbCircle
 10
10.04709457503315
 20
2145.328418676553
 30
0.0
 40
18.32517874770211
100
AcDbArc
 50
18.00589016927945
 51
63.33192172698071
  0
LINE
  5
1F5
330
2
100
AcDbEntity
  8
Halfen
100
AcDbLine
 10
52.96067811865566
 20
2135.689834482229
 30
0.0
 11
49.42514421272278
 21
2135.689834482229
 31
0.0
  0
ELLIPSE
  5
1F6
330
2
100
AcDbEntity
  8
Halfen
100
AcDbEllipse
 10
45.88961030679084
 20
2156.689834482229
 30
0.0
 11
0.0
 21
7.0
 31
0.0
210
0.0
220
0.0
230
1.0
 40
0.7071067811866831
 41
3.141592653589793
 42
6.283185307179586
  0
LINE
  5
1F7
330
2
100
AcDbEntity
  8
Halfen
100
AcDbLine
 10
52.96067811865566
 20
2177.689834482229
 30
0.0
 11
49.42514421272278
 21
2177.689834482229
 31
0.0
  0
TEXT
  5
2E3
330
2
100
AcDbEntity
  8
Halfen
100
AcDbText
 10
-162.75
 20
2719.749999999999
 30
0.0
 40
5.0
  1

  7
ARIAL50
100
AcDbText
  0
TEXT
  5
2E6
330
2
100
AcDbEntity
  8
Halfen
100
AcDbText
 10
47.25
 20
2719.749999999999
 30
0.0
 40
5.0
  1

  7
ARIAL50
100
AcDbText
  0
TEXT
  5
2E7
330
2
100
AcDbEntity
  8
Halfen
100
AcDbText
 10
307.2500000000001
 20
2719.749999999999
 30
0.0
 40
5.0
  1

  7
ARIAL50
100
AcDbText
  0
TEXT
  5
2E8
330
2
100
AcDbEntity
  8
Halfen
100
AcDbText
 10
-162.7499999999996
 20
2454.749755004997
 30
0.0
 40
5.0
  1

  7
ARIAL50
100
AcDbText
  0
ENDSEC
  0
SECTION
  2
OBJECTS
  0
DICTIONARY
  5
8
330
0
100
AcDbDictionary
281
     1
  3
ACAD_CIP_PREVIOUS_PRODUCT_INFO
350
26B
  3
ACAD_COLOR
350
24
  3
ACAD_GROUP
350
20
  3
ACAD_LAYOUT
350
C
  3
ACAD_MATERIAL
350
23
  3
ACAD_MLEADERSTYLE
350
265
  3
ACAD_MLINESTYLE
350
21
  3
ACAD_PLOTSETTINGS
350
22
  3
ACAD_PLOTSTYLENAME
350
7
  3
ACAD_SCALELIST
350
253
  3
ACAD_TABLESTYLE
350
25
  3
ACAD_VISUALSTYLE
350
23A
  3
ACDB_RECOMPOSE_DATA
350
2F7
  3
AcDbVariableDictionary
350
1FD
  3
AcmDictionary
350
299
  3
AMG
350
26D
  3
AMGSNAPSETTINGS
350
2DC
  3
ASE_INDEX_DICTIONARY
350
1FA
  0
DICTIONARY
  5
2E9
330
5
100
AcDbDictionary
280
     1
281
     1
  3
ADSK_XREC_LAYER_RECONCILED
360
2EA
  0
DICTIONARY
  5
2EB
330
26
100
AcDbDictionary
280
     1
281
     1
  3
ADSK_XREC_LAYER_RECONCILED
360
2EC
  0
DICTIONARY
  5
3
330
2
100
AcDbDictionary
280
     1
281
     1
  0
XRECORD
  5
26B
102
{ACAD_REACTORS
330
8
102
}
330
8
100
AcDbXrecord
280
     1
300
AMECH_PP
300
2012
300
PDSP_F_S
  0
DICTIONARY
  5
24
102
{ACAD_REACTORS
330
8
102
}
330
8
100
AcDbDictionary
281
     1
  0
DICTIONARY
  5
20
102
{ACAD_REACTORS
330
8
102
}
330
8
100
AcDbDictionary
281
     1
  0
DICTIONARY
  5
C
102
{ACAD_REACTORS
330
8
102
}
330
8
100
AcDbDictionary
281
     1
  3
Layout1
350
10
  3
Model
350
B
  0
DICTIONARY
  5
23
102
{ACAD_REACTORS
330
8
102
}
330
8
100
AcDbDictionary
281
     1
  3
ByBlock
350
22A
  3
ByLayer
350
222
  3
Global
350
232
  0
DICTIONARY
  5
265
102
{ACAD_REACTORS
330
8
102
}
330
8
100
AcDbDictionary
281
     1
  3
Standard
350
266
  0
DICTIONARY
  5
21
102
{ACAD_REACTORS
330
8
102
}
330
8
100
AcDbDictionary
281
     1
  3
STANDARD
350
28
  0
DICTIONARY
  5
22
102
{ACAD_REACTORS
330
8
102
}
330
8
100
AcDbDictionary
281
     1
  0
ACDBDICTIONARYWDFLT
  5
7
102
{ACAD_REACTORS
330
8
102
}
330
8
100
AcDbDictionary
281
     1
  3
Normal
350
6
100
AcDbDictionaryWithDefault
340
6
  0
DICTIONARY
  5
253
102
{ACAD_REACTORS
330
8
102
}
330
8
100
AcDbDictionary
281
     1
  3
A0
350
254
  3
A1
350
255
  3
A2
350
256
  3
A3
350
257
  3
A4
350
258
  3
A5
350
259
  3
A6
350
25A
  3
A7
350
25B
  3
A8
350
25C
  3
A9
350
25D
  3
B0
350
25E
  3
B1
350
25F
  3
B2
350
260
  3
B3
350
261
  3
B4
350
262
  3
B5
350
263
  3
B6
350
264
  0
DICTIONARY
  5
25
102
{ACAD_REACTORS
330
8
102
}
330
8
100
AcDbDictionary
281
     1
  3
Standard
350
29
  0
DICTIONARY
  5
23A
102
{ACAD_REACTORS
330
8
102
}
330
8
100
AcDbDictionary
281
     1
  3
2dWireframe
350
240
  3
Basic
350
23F
  3
Brighten
350
246
  3
ColorChange
350
24A
  3
Conceptual
350
243
  3
Dim
350
245
  3
EdgeColorOff
350
252
  3
Facepattern
350
249
  3
Flat
350
23B
  3
FlatWithEdges
350
23C
  3
Gouraud
350
23D
  3
GouraudWithEdges
350
23E
  3
Hidden
350
242
  3
JitterOff
350
250
  3
Linepattern
350
248
  3
OverhangOff
350
251
  3
Realistic
350
244
  3
Shaded
350
24F
  3
Shaded with edges
350
24E
  3
Shades of Gray
350
24B
  3
Sketchy
350
24C
  3
Thicken
350
247
  3
Wireframe
350
241
  3
X-Ray
350
24D
  0
XRECORD
  5
2F7
102
{ACAD_REACTORS
330
8
102
}
330
8
100
AcDbXrecord
280
     1
 90
        1
330
29
  0
DICTIONARY
  5
1FD
102
{ACAD_REACTORS
330
8
102
}
330
8
100
AcDbDictionary
281
     1
  3
CANNOSCALE
350
2EF
  3
CMLEADERSTYLE
350
2ED
  3
CTABLESTYLE
350
1FE
  3
DIMASSOC
350
20C
  3
HIDETEXT
350
20B
  3
LAYEREVAL
350
2F1
  3
LAYERNOTIFY
350
2F2
  3
LIGHTINGUNITS
350
2F0
  3
MSLTSCALE
350
2EE
  3
PROJECTNAME
350
20D
  0
DICTIONARY
  5
299
102
{ACAD_REACTORS
330
8
102
}
330
8
100
AcDbDictionary
281
     1
  3
AcmStdDictionary
350
2A0
  0
DICTIONARY
  5
26D
102
{ACAD_REACTORS
330
8
102
}
330
8
100
AcDbDictionary
281
     1
  0
DICTIONARY
  5
2DC
102
{ACAD_REACTORS
330
8
102
}
330
8
100
AcDbDictionary
281
     1
  0
DICTIONARY
  5
1FA
102
{ACAD_REACTORS
330
8
102
}
330
8
100
AcDbDictionary
281
     1
  3
ASEBlockHierarchyIndexRecord
350
1FC
1001
DCO15
1040
1565414225.171
  0
XRECORD
  5
2EA
102
{ACAD_REACTORS
330
2E9
102
}
330
2E9
100
AcDbXrecord
280
     1
290
     1
  0
XRECORD
  5
2EC
102
{ACAD_REACTORS
330
2EB
102
}
330
2EB
100
AcDbXrecord
280
     1
290
     1
  0
LAYOUT
  5
10
102
{ACAD_REACTORS
330
C
102
}
330
C
100
AcDbPlotSettings
  1

  2
\\dlant020\DLAKBHL013
  4

  6

 40
0.0
 41
0.0
 42
0.0
 43
0.0
 44
0.0
 45
0.0
 46
0.0
 47
0.0
 48
0.0
 49
0.0
140
0.0
141
0.0
142
1.0
143
1.0
 70
   688
 72
     0
 73
     0
 74
     5
  7

 75
    16
147
1.0
 76
     0
 77
     2
 78
   300
148
0.0
149
0.0
100
AcDbLayout
  1
Layout1
 70
     1
 71
     1
 10
0.0
 20
0.0
 11
12.0
 21
9.0
 12
0.0
 22
0.0
 32
0.0
 14
1.000000000000000E+20
 24
1.000000000000000E+20
 34
1.000000000000000E+20
 15
-1.000000000000000E+20
 25
-1.000000000000000E+20
 35
-1.000000000000000E+20
146
0.0
 13
0.0
 23
0.0
 33
0.0
 16
1.0
 26
0.0
 36
0.0
 17
0.0
 27
1.0
 37
0.0
 76
     0
330
D
  0
LAYOUT
  5
B
102
{ACAD_REACTORS
330
C
102
}
330
C
100
AcDbPlotSettings
  1

  2
\\dlant020\DLAKBHL013
  4

  6

 40
0.0
 41
0.0
 42
0.0
 43
0.0
 44
0.0
 45
0.0
 46
0.0
 47
0.0
 48
0.0
 49
0.0
140
0.0
141
0.0
142
1.0
143
1.0
 70
  1712
 72
     0
 73
     0
 74
     0
  7

 75
     0
147
1.0
 76
     0
 77
     2
 78
   300
148
0.0
149
0.0
100
AcDbLayout
  1
Model
 70
     1
 71
     0
 10
0.0
 20
0.0
 11
12.0
 21
9.0
 12
0.0
 22
0.0
 32
0.0
 14
0.0
 24
0.0
 34
0.0
 15
0.0
 25
0.0
 35
0.0
146
0.0
 13
0.0
 23
0.0
 33
0.0
 16
1.0
 26
0.0
 36
0.0
 17
0.0
 27
1.0
 37
0.0
 76
     0
330
2
331
21A
  0
MATERIAL
  5
22A
102
{ACAD_XDICTIONARY
360
22B
102
}
102
{ACAD_REACTORS
330
23
102
}
330
23
100
AcDbMaterial
  1
ByBlock
 72
     0
 43
0.0008202099737533
 43
0.0
 43
0.0
 43
0.0
 43
0.0
 43
0.0008202099737533
 43
0.0
 43
0.0
 43
0.0
 43
0.0
 43
1.0
 43
0.0
 43
0.0
 43
0.0
 43
0.0
 43
1.0
 77
     0
 47
0.0008202099737533
 47
0.0
 47
0.0
 47
0.0
 47
0.0
 47
0.0008202099737533
 47
0.0
 47
0.0
 47
0.0
 47
0.0
 47
1.0
 47
0.0
 47
0.0
 47
0.0
 47
0.0
 47
1.0
171
     0
 49
0.0008202099737533
 49
0.0
 49
0.0
 49
0.0
 49
0.0
 49
0.0008202099737533
 49
0.0
 49
0.0
 49
0.0
 49
0.0
 49
1.0
 49
0.0
 49
0.0
 49
0.0
 49
0.0
 49
1.0
175
     0
142
0.0008202099737533
142
0.0
142
0.0
142
0.0
142
0.0
142
0.0008202099737533
142
0.0
142
0.0
142
0.0
142
0.0
142
1.0
142
0.0
142
0.0
142
0.0
142
0.0
142
1.0
179
     0
144
0.0008202099737533
144
0.0
144
0.0
144
0.0
144
0.0
144
0.0008202099737533
144
0.0
144
0.0
144
0.0
144
0.0
144
1.0
144
0.0
144
0.0
144
0.0
144
0.0
144
1.0
147
0.0008202099737533
147
0.0
147
0.0
147
0.0
147
0.0
147
0.0008202099737533
147
0.0
147
0.0
147
0.0
147
0.0
147
1.0
147
0.0
147
0.0
147
0.0
147
0.0
147
1.0
  0
MATERIAL
  5
222
102
{ACAD_XDICTIONARY
360
223
102
}
102
{ACAD_REACTORS
330
23
102
}
330
23
100
AcDbMaterial
  1
ByLayer
 72
     0
 43
0.0008202099737533
 43
0.0
 43
0.0
 43
0.0
 43
0.0
 43
0.0008202099737533
 43
0.0
 43
0.0
 43
0.0
 43
0.0
 43
1.0
 43
0.0
 43
0.0
 43
0.0
 43
0.0
 43
1.0
 77
     0
 47
0.0008202099737533
 47
0.0
 47
0.0
 47
0.0
 47
0.0
 47
0.0008202099737533
 47
0.0
 47
0.0
 47
0.0
 47
0.0
 47
1.0
 47
0.0
 47
0.0
 47
0.0
 47
0.0
 47
1.0
171
     0
 49
0.0008202099737533
 49
0.0
 49
0.0
 49
0.0
 49
0.0
 49
0.0008202099737533
 49
0.0
 49
0.0
 49
0.0
 49
0.0
 49
1.0
 49
0.0
 49
0.0
 49
0.0
 49
0.0
 49
1.0
175
     0
142
0.0008202099737533
142
0.0
142
0.0
142
0.0
142
0.0
142
0.0008202099737533
142
0.0
142
0.0
142
0.0
142
0.0
142
1.0
142
0.0
142
0.0
142
0.0
142
0.0
142
1.0
179
     0
144
0.0008202099737533
144
0.0
144
0.0
144
0.0
144
0.0
144
0.0008202099737533
144
0.0
144
0.0
144
0.0
144
0.0
144
1.0
144
0.0
144
0.0
144
0.0
144
0.0
144
1.0
147
0.0008202099737533
147
0.0
147
0.0
147
0.0
147
0.0
147
0.0008202099737533
147
0.0
147
0.0
147
0.0
147
0.0
147
1.0
147
0.0
147
0.0
147
0.0
147
0.0
147
1.0
  0
MATERIAL
  5
232
102
{ACAD_XDICTIONARY
360
233
102
}
102
{ACAD_REACTORS
330
23
102
}
330
23
100
AcDbMaterial
  1
Global
 72
     0
 43
0.0008202099737533
 43
0.0
 43
0.0
 43
0.0
 43
0.0
 43
0.0008202099737533
 43
0.0
 43
0.0
 43
0.0
 43
0.0
 43
1.0
 43
0.0
 43
0.0
 43
0.0
 43
0.0
 43
1.0
 77
     0
 47
0.0008202099737533
 47
0.0
 47
0.0
 47
0.0
 47
0.0
 47
0.0008202099737533
 47
0.0
 47
0.0
 47
0.0
 47
0.0
 47
1.0
 47
0.0
 47
0.0
 47
0.0
 47
0.0
 47
1.0
171
     0
 49
0.0008202099737533
 49
0.0
 49
0.0
 49
0.0
 49
0.0
 49
0.0008202099737533
 49
0.0
 49
0.0
 49
0.0
 49
0.0
 49
1.0
 49
0.0
 49
0.0
 49
0.0
 49
0.0
 49
1.0
175
     0
142
0.0008202099737533
142
0.0
142
0.0
142
0.0
142
0.0
142
0.0008202099737533
142
0.0
142
0.0
142
0.0
142
0.0
142
1.0
142
0.0
142
0.0
142
0.0
142
0.0
142
1.0
179
     0
144
0.0008202099737533
144
0.0
144
0.0
144
0.0
144
0.0
144
0.0008202099737533
144
0.0
144
0.0
144
0.0
144
0.0
144
1.0
144
0.0
144
0.0
144
0.0
144
0.0
144
1.0
147
0.0008202099737533
147
0.0
147
0.0
147
0.0
147
0.0
147
0.0008202099737533
147
0.0
147
0.0
147
0.0
147
0.0
147
1.0
147
0.0
147
0.0
147
0.0
147
0.0
147
1.0
  0
MLEADERSTYLE
  5
266
102
{ACAD_XDICTIONARY
360
2F5
102
}
102
{ACAD_REACTORS
330
265
102
}
330
265
100
AcDbMLeaderStyle
179
     2
170
     2
171
     1
172
     0
 90
        2
 40
0.0
 41
0.0
173
     1
 91
-1056964608
340
16
 92
       -2
290
     1
 42
2.0
291
     1
 43
0.36
  3
Standard
 44
4.0
300

342
13
174
     1
178
     6
175
     1
176
     0
 93
-1056964608
 45
4.0
292
     0
297
     0
 46
4.0
 94
-1056964608
 47
1.0
 49
1.0
140
1.0
293
     1
141
0.0
294
     1
177
     0
142
1.0
295
     0
296
     0
143
0.125
271
     0
272
     9
273
     9
  0
MLINESTYLE
  5
28
102
{ACAD_REACTORS
330
21
102
}
330
21
100
AcDbMlineStyle
  2
STANDARD
 70
     0
  3

 62
     0
 51
90.0
 52
90.0
 71
     2
 49
0.5
 62
   256
  6
BYLAYER
 49
-0.5
 62
   256
  6
BYLAYER
  0
ACDBPLACEHOLDER
  5
6
102
{ACAD_REACTORS
330
7
102
}
330
7
  0
SCALE
  5
254
102
{ACAD_REACTORS
330
253
102
}
330
253
100
AcDbScale
 70
     0
300
1:1
140
1.0
141
1.0
290
     1
  0
SCALE
  5
255
102
{ACAD_REACTORS
330
253
102
}
330
253
100
AcDbScale
 70
     0
300
1:2
140
1.0
141
2.0
290
     0
  0
SCALE
  5
256
102
{ACAD_REACTORS
330
253
102
}
330
253
100
AcDbScale
 70
     0
300
1:4
140
1.0
141
4.0
290
     0
  0
SCALE
  5
257
102
{ACAD_REACTORS
330
253
102
}
330
253
100
AcDbScale
 70
     0
300
1:5
140
1.0
141
5.0
290
     0
  0
SCALE
  5
258
102
{ACAD_REACTORS
330
253
102
}
330
253
100
AcDbScale
 70
     0
300
1:8
140
1.0
141
8.0
290
     0
  0
SCALE
  5
259
102
{ACAD_REACTORS
330
253
102
}
330
253
100
AcDbScale
 70
     0
300
1:10
140
1.0
141
10.0
290
     0
  0
SCALE
  5
25A
102
{ACAD_REACTORS
330
253
102
}
330
253
100
AcDbScale
 70
     0
300
1:16
140
1.0
141
16.0
290
     0
  0
SCALE
  5
25B
102
{ACAD_REACTORS
330
253
102
}
330
253
100
AcDbScale
 70
     0
300
1:20
140
1.0
141
20.0
290
     0
  0
SCALE
  5
25C
102
{ACAD_REACTORS
330
253
102
}
330
253
100
AcDbScale
 70
     0
300
1:30
140
1.0
141
30.0
290
     0
  0
SCALE
  5
25D
102
{ACAD_REACTORS
330
253
102
}
330
253
100
AcDbScale
 70
     0
300
1:40
140
1.0
141
40.0
290
     0
  0
SCALE
  5
25E
102
{ACAD_REACTORS
330
253
102
}
330
253
100
AcDbScale
 70
     0
300
1:50
140
1.0
141
50.0
290
     0
  0
SCALE
  5
25F
102
{ACAD_REACTORS
330
253
102
}
330
253
100
AcDbScale
 70
     0
300
1:100
140
1.0
141
100.0
290
     0
  0
SCALE
  5
260
102
{ACAD_REACTORS
330
253
102
}
330
253
100
AcDbScale
 70
     0
300
2:1
140
2.0
141
1.0
290
     0
  0
SCALE
  5
261
102
{ACAD_REACTORS
330
253
102
}
330
253
100
AcDbScale
 70
     0
300
4:1
140
4.0
141
1.0
290
     0
  0
SCALE
  5
262
102
{ACAD_REACTORS
330
253
102
}
330
253
100
AcDbScale
 70
     0
300
8:1
140
8.0
141
1.0
290
     0
  0
SCALE
  5
263
102
{ACAD_REACTORS
330
253
102
}
330
253
100
AcDbScale
 70
     0
300
10:1
140
10.0
141
1.0
290
     0
  0
SCALE
  5
264
102
{ACAD_REACTORS
330
253
102
}
330
253
100
AcDbScale
 70
     0
300
100:1
140
100.0
141
1.0
290
     0
  0
TABLESTYLE
  5
29
102
{ACAD_XDICTIONARY
360
2F3
102
}
102
{ACAD_REACTORS
330
25
102
}
330
25
100
AcDbTableStyle
280
     0
  3
Standard
 70
     0
 71
     0
 40
1.5
 41
1.5
280
     0
281
     0
  7
STANDARD
140
4.5
170
     2
 62
     0
 63
     7
283
     0
 90
        4
 91
        0
  1

274
    -2
284
     1
 64
     0
275
    -2
285
     1
 65
     0
276
    -2
286
     1
 66
     0
277
    -2
287
     1
 67
     0
278
    -2
288
     1
 68
     0
279
    -2
289
     1
 69
     0
  7
STANDARD
140
6.0
170
     5
 62
     0
 63
     7
283
     0
 90
        4
 91
        0
  1

274
    -2
284
     1
 64
     0
275
    -2
285
     1
 65
     0
276
    -2
286
     1
 66
     0
277
    -2
287
     1
 67
     0
278
    -2
288
     1
 68
     0
279
    -2
289
     1
 69
     0
  7
STANDARD
140
4.5
170
     5
 62
     0
 63
     7
283
     0
 90
        4
 91
        0
  1

274
    -2
284
     1
 64
     0
275
    -2
285
     1
 65
     0
276
    -2
286
     1
 66
     0
277
    -2
287
     1
 67
     0
278
    -2
288
     1
 68
     0
279
    -2
289
     1
 69
     0
  0
VISUALSTYLE
  5
240
102
{ACAD_REACTORS
330
23A
102
}
330
23A
100
AcDbVisualStyle
  2
2dWireframe
 70
     4
177
     2
291
     0
 71
     0
176
     1
 72
     2
176
     1
 73
     0
176
     1
 90
        0
176
     1
 40
0.6
176
     1
 41
30.0
176
     1
 63
     7
421
 16777215
176
     1
 74
     1
176
     1
 91
        4
176
     1
 64
     7
176
     1
 65
   257
176
     1
 75
     1
176
     1
175
     1
176
     1
 42
1.0
176
     1
 92
        0
176
     1
 66
   257
176
     1
 43
1.0
176
     1
 76
     1
176
     1
 77
     6
176
     1
 78
     2
176
     1
 67
     7
176
     1
 79
     5
176
     1
170
     0
176
     1
171
     0
176
     1
290
     0
176
     1
 93
        1
176
     1
 44
0.0
176
     1
173
     0
176
     1
  0
VISUALSTYLE
  5
23F
102
{ACAD_REACTORS
330
23A
102
}
330
23A
100
AcDbVisualStyle
  2
Basic
 70
     7
177
     2
291
     1
 71
     1
176
     1
 72
     0
176
     1
 73
     1
176
     1
 90
        0
176
     1
 40
0.6
176
     1
 41
30.0
176
     1
 63
     7
421
 16777215
176
     1
 74
     0
176
     1
 91
        4
176
     1
 64
     7
176
     1
 65
   257
176
     1
 75
     1
176
     1
175
     1
176
     1
 42
1.0
176
     1
 92
        8
176
     1
 66
     7
176
     1
 43
1.0
176
     1
 76
     1
176
     1
 77
     6
176
     1
 78
     2
176
     1
 67
     7
176
     1
 79
     5
176
     1
170
     0
176
     1
171
     0
176
     1
290
     0
176
     1
 93
        1
176
     1
 44
0.0
176
     1
173
     0
176
     1
  0
VISUALSTYLE
  5
246
102
{ACAD_REACTORS
330
23A
102
}
330
23A
100
AcDbVisualStyle
  2
Brighten
 70
    12
177
     2
291
     1
 71
     2
176
     1
 72
     2
176
     1
 73
     0
176
     1
 90
        0
176
     1
 40
0.6
176
     1
 41
30.0
176
     1
 63
     7
421
 16777215
176
     1
 74
     1
176
     1
 91
        4
176
     1
 64
     7
176
     1
 65
   257
176
     1
 75
     1
176
     1
175
     1
176
     1
 42
1.0
176
     1
 92
        8
176
     1
 66
     7
176
     1
 43
1.0
176
     1
 76
     1
176
     1
 77
     6
176
     1
 78
     2
176
     1
 67
     7
176
     1
 79
     5
176
     1
170
     0
176
     1
171
     0
176
     1
290
     0
176
     1
 93
        1
176
     1
 44
50.0
176
     1
173
     0
176
     1
  0
VISUALSTYLE
  5
24A
102
{ACAD_REACTORS
330
23A
102
}
330
23A
100
AcDbVisualStyle
  2
ColorChange
 70
    16
177
     2
291
     1
 71
     2
176
     1
 72
     2
176
     1
 73
     3
176
     1
 90
        0
176
     1
 40
0.6
176
     1
 41
30.0
176
     1
 63
     8
421
  8421504
176
     1
 74
     1
176
     1
 91
        4
176
     1
 64
     7
176
     1
 65
   257
176
     1
 75
     1
176
     1
175
     1
176
     1
 42
1.0
176
     1
 92
        8
176
     1
 66
     8
424
  8421504
176
     1
 43
1.0
176
     1
 76
     1
176
     1
 77
     6
176
     1
 78
     2
176
     1
 67
     7
176
     1
 79
     5
176
     1
170
     0
176
     1
171
     0
176
     1
290
     0
176
     1
 93
        1
176
     1
 44
0.0
176
     1
173
     0
176
     1
  0
VISUALSTYLE
  5
243
102
{ACAD_REACTORS
330
23A
102
}
330
23A
100
AcDbVisualStyle
  2
Conceptual
 70
     9
177
     2
291
     0
 71
     3
176
     1
 72
     2
176
     1
 73
     0
176
     1
 90
        0
176
     1
 40
0.6
176
     1
 41
30.0
176
     1
 63
     7
421
 16777215
176
     1
 74
     2
176
     1
 91
        2
176
     1
 64
     7
176
     1
 65
   257
176
     1
 75
     1
176
     1
175
     1
176
     1
 42
179.0
176
     1
 92
        8
176
     1
 66
     7
176
     1
 43
1.0
176
     1
 76
     1
176
     1
 77
     6
176
     1
 78
     2
176
     1
 67
     7
176
     1
 79
     3
176
     1
170
     0
176
     1
171
     0
176
     1
290
     0
176
     1
 93
        1
176
     1
 44
0.0
176
     1
173
     0
176
     1
  0
VISUALSTYLE
  5
245
102
{ACAD_REACTORS
330
23A
102
}
330
23A
100
AcDbVisualStyle
  2
Dim
 70
    11
177
     2
291
     1
 71
     2
176
     1
 72
     2
176
     1
 73
     0
176
     1
 90
        0
176
     1
 40
0.6
176
     1
 41
30.0
176
     1
 63
     7
421
 16777215
176
     1
 74
     1
176
     1
 91
        4
176
     1
 64
     7
176
     1
 65
   257
176
     1
 75
     1
176
     1
175
     1
176
     1
 42
1.0
176
     1
 92
        8
176
     1
 66
     7
176
     1
 43
1.0
176
     1
 76
     1
176
     1
 77
     6
176
     1
 78
     2
176
     1
 67
     7
176
     1
 79
     5
176
     1
170
     0
176
     1
171
     0
176
     1
290
     0
176
     1
 93
        1
176
     1
 44
-50.0
176
     1
173
     0
176
     1
  0
VISUALSTYLE
  5
252
102
{ACAD_REACTORS
330
23A
102
}
330
23A
100
AcDbVisualStyle
  2
EdgeColorOff
 70
    22
177
     2
291
     1
 71
     2
176
     0
 72
     2
176
     0
 73
     0
176
     0
 90
        0
176
     0
 40
0.6
176
     0
 41
30.0
176
     0
 63
     7
421
 16777215
176
     0
 74
     1
176
     0
 91
        4
176
     0
 64
     7
176
     0
 65
   257
176
     0
 75
     1
176
     0
175
     1
176
     0
 42
1.0
176
     0
 92
        8
176
     2
 66
     7
176
     0
 43
1.0
176
     0
 76
     1
176
     0
 77
     6
176
     0
 78
     2
176
     0
 67
     7
176
     0
 79
     5
176
     0
170
     0
176
     0
171
     0
176
     0
290
     0
176
     0
 93
        1
176
     0
 44
0.0
176
     0
173
     0
176
     0
  0
VISUALSTYLE
  5
249
102
{ACAD_REACTORS
330
23A
102
}
330
23A
100
AcDbVisualStyle
  2
Facepattern
 70
    15
177
     2
291
     1
 71
     2
176
     1
 72
     2
176
     1
 73
     0
176
     1
 90
        0
176
     1
 40
0.6
176
     1
 41
30.0
176
     1
 63
     7
421
 16777215
176
     1
 74
     1
176
     1
 91
        4
176
     1
 64
     7
176
     1
 65
   257
176
     1
 75
     1
176
     1
175
     1
176
     1
 42
1.0
176
     1
 92
        8
176
     1
 66
     7
176
     1
 43
1.0
176
     1
 76
     1
176
     1
 77
     6
176
     1
 78
     2
176
     1
 67
     7
176
     1
 79
     5
176
     1
170
     0
176
     1
171
     0
176
     1
290
     0
176
     1
 93
        1
176
     1
 44
0.0
176
     1
173
     0
176
     1
  0
VISUALSTYLE
  5
23B
102
{ACAD_REACTORS
330
23A
102
}
330
23A
100
AcDbVisualStyle
  2
Flat
 70
     0
177
     2
291
     1
 71
     2
176
     1
 72
     1
176
     1
 73
     1
176
     1
 90
        2
176
     1
 40
0.6
176
     1
 41
30.0
176
     1
 63
     7
421
 16777215
176
     1
 74
     0
176
     1
 91
        0
176
     1
 64
     7
176
     1
 65
   257
176
     1
 75
     1
176
     1
175
     1
176
     1
 42
1.0
176
     1
 92
        8
176
     1
 66
     7
176
     1
 43
1.0
176
     1
 76
     1
176
     1
 77
     6
176
     1
 78
     2
176
     1
 67
     7
176
     1
 79
     5
176
     1
170
     0
176
     1
171
     0
176
     1
290
     0
176
     1
 93
       13
176
     1
 44
0.0
176
     1
173
     0
176
     1
  0
VISUALSTYLE
  5
23C
102
{ACAD_REACTORS
330
23A
102
}
330
23A
100
AcDbVisualStyle
  2
FlatWithEdges
 70
     1
177
     2
291
     1
 71
     2
176
     1
 72
     1
176
     1
 73
     1
176
     1
 90
        2
176
     1
 40
0.6
176
     1
 41
30.0
176
     1
 63
     7
421
 16777215
176
     1
 74
     1
176
     1
 91
        0
176
     1
 64
     7
176
     1
 65
   257
176
     1
 75
     1
176
     1
175
     1
176
     1
 42
1.0
176
     1
 92
        0
176
     1
 66
   257
176
     1
 43
1.0
176
     1
 76
     1
176
     1
 77
     6
176
     1
 78
     2
176
     1
 67
     7
176
     1
 79
     5
176
     1
170
     0
176
     1
171
     0
176
     1
290
     0
176
     1
 93
       13
176
     1
 44
0.0
176
     1
173
     0
176
     1
  0
VISUALSTYLE
  5
23D
102
{ACAD_REACTORS
330
23A
102
}
330
23A
100
AcDbVisualStyle
  2
Gouraud
 70
     2
177
     2
291
     1
 71
     2
176
     1
 72
     2
176
     1
 73
     1
176
     1
 90
        2
176
     1
 40
0.6
176
     1
 41
30.0
176
     1
 63
     7
421
 16777215
176
     1
 74
     0
176
     1
 91
        0
176
     1
 64
     7
176
     1
 65
   257
176
     1
 75
     1
176
     1
175
     1
176
     1
 42
1.0
176
     1
 92
        0
176
     1
 66
     7
176
     1
 43
1.0
176
     1
 76
     1
176
     1
 77
     6
176
     1
 78
     2
176
     1
 67
     7
176
     1
 79
     5
176
     1
170
     0
176
     1
171
     0
176
     1
290
     0
176
     1
 93
       13
176
     1
 44
0.0
176
     1
173
     0
176
     1
  0
VISUALSTYLE
  5
23E
102
{ACAD_REACTORS
330
23A
102
}
330
23A
100
AcDbVisualStyle
  2
GouraudWithEdges
 70
     3
177
     2
291
     1
 71
     2
176
     1
 72
     2
176
     1
 73
     1
176
     1
 90
        2
176
     1
 40
0.6
176
     1
 41
30.0
176
     1
 63
     7
421
 16777215
176
     1
 74
     1
176
     1
 91
        0
176
     1
 64
     7
176
     1
 65
   257
176
     1
 75
     1
176
     1
175
     1
176
     1
 42
1.0
176
     1
 92
        0
176
     1
 66
   257
176
     1
 43
1.0
176
     1
 76
     1
176
     1
 77
     6
176
     1
 78
     2
176
     1
 67
     7
176
     1
 79
     5
176
     1
170
     0
176
     1
171
     0
176
     1
290
     0
176
     1
 93
       13
176
     1
 44
0.0
176
     1
173
     0
176
     1
  0
VISUALSTYLE
  5
242
102
{ACAD_REACTORS
330
23A
102
}
330
23A
100
AcDbVisualStyle
  2
Hidden
 70
     6
177
     2
291
     0
 71
     1
176
     1
 72
     2
176
     1
 73
     2
176
     1
 90
        0
176
     1
 40
0.6
176
     1
 41
30.0
176
     1
 63
     7
421
 16777215
176
     1
 74
     2
176
     1
 91
        2
176
     1
 64
     7
176
     1
 65
   257
176
     1
 75
     2
176
     1
175
     1
176
     1
 42
40.0
176
     1
 92
        0
176
     1
 66
   257
176
     1
 43
1.0
176
     1
 76
     1
176
     1
 77
     6
176
     1
 78
     2
176
     1
 67
     7
176
     1
 79
     3
176
     1
170
     0
176
     1
171
     0
176
     1
290
     0
176
     1
 93
        1
176
     1
 44
0.0
176
     1
173
     0
176
     1
  0
VISUALSTYLE
  5
250
102
{ACAD_REACTORS
330
23A
102
}
330
23A
100
AcDbVisualStyle
  2
JitterOff
 70
    20
177
     2
291
     1
 71
     2
176
     0
 72
     2
176
     0
 73
     0
176
     0
 90
        0
176
     0
 40
0.6
176
     0
 41
30.0
176
     0
 63
     7
421
 16777215
176
     0
 74
     1
176
     0
 91
        4
176
     0
 64
     7
176
     0
 65
   257
176
     0
 75
     1
176
     0
175
     1
176
     0
 42
1.0
176
     0
 92
       10
176
     2
 66
     7
176
     0
 43
1.0
176
     0
 76
     1
176
     0
 77
     6
176
     0
 78
     2
176
     0
 67
     7
176
     0
 79
     5
176
     0
170
     0
176
     0
171
     0
176
     0
290
     0
176
     0
 93
        1
176
     0
 44
0.0
176
     0
173
     0
176
     0
  0
VISUALSTYLE
  5
248
102
{ACAD_REACTORS
330
23A
102
}
330
23A
100
AcDbVisualStyle
  2
Linepattern
 70
    14
177
     2
291
     1
 71
     2
176
     1
 72
     2
176
     1
 73
     0
176
     1
 90
        0
176
     1
 40
0.6
176
     1
 41
30.0
176
     1
 63
     7
421
 16777215
176
     1
 74
     1
176
     1
 91
        4
176
     1
 64
     7
176
     1
 65
   257
176
     1
 75
     7
176
     1
175
     7
176
     1
 42
1.0
176
     1
 92
        8
176
     1
 66
     7
176
     1
 43
1.0
176
     1
 76
     1
176
     1
 77
     6
176
     1
 78
     2
176
     1
 67
     7
176
     1
 79
     5
176
     1
170
     0
176
     1
171
     0
176
     1
290
     0
176
     1
 93
        1
176
     1
 44
0.0
176
     1
173
     0
176
     1
  0
VISUALSTYLE
  5
251
102
{ACAD_REACTORS
330
23A
102
}
330
23A
100
AcDbVisualStyle
  2
OverhangOff
 70
    21
177
     2
291
     1
 71
     2
176
     0
 72
     2
176
     0
 73
     0
176
     0
 90
        0
176
     0
 40
0.6
176
     0
 41
30.0
176
     0
 63
     7
421
 16777215
176
     0
 74
     1
176
     0
 91
        4
176
     0
 64
     7
176
     0
 65
   257
176
     0
 75
     1
176
     0
175
     1
176
     0
 42
1.0
176
     0
 92
        9
176
     2
 66
     7
176
     0
 43
1.0
176
     0
 76
     1
176
     0
 77
     6
176
     0
 78
     2
176
     0
 67
     7
176
     0
 79
     5
176
     0
170
     0
176
     0
171
     0
176
     0
290
     0
176
     0
 93
        1
176
     0
 44
0.0
176
     0
173
     0
176
     0
  0
VISUALSTYLE
  5
244
102
{ACAD_REACTORS
330
23A
102
}
330
23A
100
AcDbVisualStyle
  2
Realistic
 70
     8
177
     2
291
     0
 71
     2
176
     1
 72
     3
176
     1
 73
     0
176
     1
 90
        2
176
     1
 40
0.6
176
     1
 41
30.0
176
     1
 63
     7
421
 16777215
176
     1
 74
     0
176
     1
 91
        0
176
     1
 64
     7
176
     1
 65
   257
176
     1
 75
     1
176
     1
175
     1
176
     1
 42
1.0
176
     1
 92
        8
176
     1
 66
   257
176
     1
 43
1.0
176
     1
 76
     1
176
     1
 77
     6
176
     1
 78
     2
176
     1
 67
     7
176
     1
 79
     3
176
     1
170
     0
176
     1
171
     0
176
     1
290
     0
176
     1
 93
       13
176
     1
 44
0.0
176
     1
173
     0
176
     1
  0
VISUALSTYLE
  5
24F
102
{ACAD_REACTORS
330
23A
102
}
330
23A
100
AcDbVisualStyle
  2
Shaded
 70
    27
177
     2
291
     0
 71
     2
176
     1
 72
     2
176
     1
 73
     1
176
     1
 90
        2
176
     1
 40
0.6
176
     1
 41
30.0
176
     1
 63
     7
421
 16777215
176
     1
 74
     0
176
     1
 91
        4
176
     1
 64
     7
176
     1
 65
   257
176
     1
 75
     1
176
     1
175
     1
176
     1
 42
1.0
176
     1
 92
        8
176
     1
 66
   257
176
     1
 43
1.0
176
     1
 76
     1
176
     1
 77
     6
176
     1
 78
     2
176
     1
 67
     8
425
  7895160
176
     1
 79
     3
176
     1
170
     0
176
     1
171
     0
176
     1
290
     0
176
     1
 93
        5
176
     1
 44
0.0
176
     1
173
     0
176
     1
  0
VISUALSTYLE
  5
24E
102
{ACAD_REACTORS
330
23A
102
}
330
23A
100
AcDbVisualStyle
  2
Shaded with edges
 70
    26
177
     2
291
     0
 71
     2
176
     1
 72
     2
176
     1
 73
     1
176
     1
 90
        2
176
     1
 40
0.6
176
     1
 41
30.0
176
     1
 63
     7
421
 16777215
176
     1
 74
     1
176
     1
 91
       10
176
     1
 64
     7
176
     1
 65
   257
176
     1
 75
     2
176
     1
175
     1
176
     1
 42
1.0
176
     1
 92
        8
176
     1
 66
   257
176
     1
 43
1.0
176
     1
 76
     1
176
     1
 77
     6
176
     1
 78
     2
176
     1
 67
     7
176
     1
 79
     3
176
     1
170
     0
176
     1
171
     0
176
     1
290
     0
176
     1
 93
        5
176
     1
 44
0.0
176
     1
173
     0
176
     1
  0
VISUALSTYLE
  5
24B
102
{ACAD_REACTORS
330
23A
102
}
330
23A
100
AcDbVisualStyle
  2
Shades of Gray
 70
    23
177
     2
291
     0
 71
     2
176
     1
 72
     2
176
     1
 73
     3
176
     1
 90
        0
176
     1
 40
0.6
176
     1
 41
30.0
176
     1
 63
     7
421
 16777215
176
     1
 74
     2
176
     1
 91
        2
176
     1
 64
     7
176
     1
 65
     7
176
     1
 75
     1
176
     1
175
     1
176
     1
 42
40.0
176
     1
 92
        8
176
     1
 66
     7
176
     1
 43
1.0
176
     1
 76
     1
176
     1
 77
     6
176
     1
 78
     2
176
     1
 67
     7
176
     1
 79
     3
176
     1
170
     0
176
     1
171
     0
176
     1
290
     0
176
     1
 93
        1
176
     1
 44
0.0
176
     1
173
     0
176
     1
  0
VISUALSTYLE
  5
24C
102
{ACAD_REACTORS
330
23A
102
}
330
23A
100
AcDbVisualStyle
  2
Sketchy
 70
    24
177
     2
291
     0
 71
     1
176
     1
 72
     2
176
     1
 73
     2
176
     1
 90
        0
176
     1
 40
0.6
176
     1
 41
30.0
176
     1
 63
     7
421
 16777215
176
     1
 74
     2
176
     1
 91
        2
176
     1
 64
     7
176
     1
 65
     7
176
     1
 75
     1
176
     1
175
     1
176
     1
 42
40.0
176
     1
 92
       11
176
     1
 66
     7
176
     1
 43
1.0
176
     1
 76
     1
176
     1
 77
     6
176
     1
 78
     2
176
     1
 67
     7
176
     1
 79
     6
176
     1
170
     0
176
     1
171
     0
176
     1
290
     0
176
     1
 93
        1
176
     1
 44
0.0
176
     1
173
     0
176
     1
  0
VISUALSTYLE
  5
247
102
{ACAD_REACTORS
330
23A
102
}
330
23A
100
AcDbVisualStyle
  2
Thicken
 70
    13
177
     2
291
     1
 71
     2
176
     1
 72
     2
176
     1
 73
     0
176
     1
 90
        0
176
     1
 40
0.6
176
     1
 41
30.0
176
     1
 63
     7
421
 16777215
176
     1
 74
     1
176
     1
 91
        4
176
     1
 64
     7
176
     1
 65
   257
176
     1
 75
     1
176
     1
175
     1
176
     1
 42
1.0
176
     1
 92
       12
176
     1
 66
     7
176
     1
 43
1.0
176
     1
 76
     1
176
     1
 77
     6
176
     1
 78
     2
176
     1
 67
     7
176
     1
 79
     5
176
     1
170
     0
176
     1
171
     0
176
     1
290
     0
176
     1
 93
        1
176
     1
 44
0.0
176
     1
173
     0
176
     1
  0
VISUALSTYLE
  5
241
102
{ACAD_REACTORS
330
23A
102
}
330
23A
100
AcDbVisualStyle
  2
Wireframe
 70
     5
177
     2
291
     0
 71
     0
176
     1
 72
     2
176
     1
 73
     0
176
     1
 90
        0
176
     1
 40
0.6
176
     1
 41
30.0
176
     1
 63
     7
421
 16777215
176
     1
 74
     1
176
     1
 91
        4
176
     1
 64
     7
176
     1
 65
   257
176
     1
 75
     1
176
     1
175
     1
176
     1
 42
1.0
176
     1
 92
        0
176
     1
 66
   257
176
     1
 43
1.0
176
     1
 76
     1
176
     1
 77
     6
176
     1
 78
     2
176
     1
 67
     7
176
     1
 79
     3
176
     1
170
     0
176
     1
171
     0
176
     1
290
     0
176
     1
 93
        1
176
     1
 44
0.0
176
     1
173
     0
176
     1
  0
VISUALSTYLE
  5
24D
102
{ACAD_REACTORS
330
23A
102
}
330
23A
100
AcDbVisualStyle
  2
X-Ray
 70
    25
177
     2
291
     0
 71
     2
176
     1
 72
     2
176
     1
 73
     1
176
     1
 90
        1
176
     1
 40
0.5
176
     1
 41
30.0
176
     1
 63
     7
421
 16777215
176
     1
 74
     1
176
     1
 91
        0
176
     1
 64
     7
176
     1
 65
   257
176
     1
 75
     1
176
     1
175
     1
176
     1
 42
1.0
176
     1
 92
        8
176
     1
 66
     7
176
     1
 43
1.0
176
     1
 76
     1
176
     1
 77
     6
176
     1
 78
     2
176
     1
 67
     7
176
     1
 79
     3
176
     1
170
     0
176
     1
171
     0
176
     1
290
     0
176
     1
 93
       13
176
     1
 44
0.0
176
     1
173
     0
176
     1
  0
DICTIONARYVAR
  5
2EF
102
{ACAD_REACTORS
330
1FD
102
}
330
1FD
100
DictionaryVariables
280
     0
  1
1:1
  0
DICTIONARYVAR
  5
2ED
102
{ACAD_REACTORS
330
1FD
102
}
330
1FD
100
DictionaryVariables
280
     0
  1
STANDARD
  0
DICTIONARYVAR
  5
1FE
102
{ACAD_REACTORS
330
1FD
102
}
330
1FD
100
DictionaryVariables
280
     0
  1
STANDARD
  0
DICTIONARYVAR
  5
20C
102
{ACAD_REACTORS
330
1FD
102
}
330
1FD
100
DictionaryVariables
280
     0
  1
1
  0
DICTIONARYVAR
  5
20B
102
{ACAD_REACTORS
330
1FD
102
}
330
1FD
100
DictionaryVariables
280
     0
  1
1
  0
DICTIONARYVAR
  5
2F1
102
{ACAD_REACTORS
330
1FD
102
}
330
1FD
100
DictionaryVariables
280
     0
  1
1
  0
DICTIONARYVAR
  5
2F2
102
{ACAD_REACTORS
330
1FD
102
}
330
1FD
100
DictionaryVariables
280
     0
  1
15
  0
DICTIONARYVAR
  5
2F0
102
{ACAD_REACTORS
330
1FD
102
}
330
1FD
100
DictionaryVariables
280
     0
  1
0
  0
DICTIONARYVAR
  5
2EE
102
{ACAD_REACTORS
330
1FD
102
}
330
1FD
100
DictionaryVariables
280
     0
  1
0
  0
DICTIONARYVAR
  5
20D
102
{ACAD_REACTORS
330
1FD
102
}
330
1FD
100
DictionaryVariables
280
     0
  1

  0
DICTIONARY
  5
2A0
102
{ACAD_REACTORS
330
299
102
}
330
299
100
AcDbDictionary
281
     1
  0
XRECORD
  5
1FC
102
{ACAD_REACTORS
330
1FA
102
}
330
1FA
100
AcDbXrecord
280
     1
  0
DICTIONARY
  5
22B
330
22A
100
AcDbDictionary
280
     1
281
     1
  3
BUMPTILE
360
22D
  3
DIFFUSETILE
360
22C
  3
OPACITYTILE
360
230
  3
REFLECTIONTILE
360
22F
  3
REFRACTIONTILE
360
231
  3
SPECULARTILE
360
22E
  0
DICTIONARY
  5
223
330
222
100
AcDbDictionary
280
     1
281
     1
  3
BUMPTILE
360
225
  3
DIFFUSETILE
360
224
  3
OPACITYTILE
360
228
  3
REFLECTIONTILE
360
227
  3
REFRACTIONTILE
360
229
  3
SPECULARTILE
360
226
  0
DICTIONARY
  5
233
330
232
100
AcDbDictionary
280
     1
281
     1
  3
BUMPTILE
360
235
  3
DIFFUSETILE
360
234
  3
OPACITYTILE
360
238
  3
REFLECTIONTILE
360
237
  3
REFRACTIONTILE
360
239
  3
SPECULARTILE
360
236
  0
DICTIONARY
  5
2F5
330
266
100
AcDbDictionary
280
     1
281
     1
  3
ACAD_XREC_ROUNDTRIP
360
2F6
  0
DICTIONARY
  5
2F3
330
29
100
AcDbDictionary
280
     1
281
     1
  3
ACAD_ROUNDTRIP_2008_TABLESTYLE_CELLSTYLEMAP
360
2F4
  0
XRECORD
  5
22D
102
{ACAD_REACTORS
330
22B
102
}
330
22B
100
AcDbXrecord
280
     1
270
     1
271
     1
  0
XRECORD
  5
22C
102
{ACAD_REACTORS
330
22B
102
}
330
22B
100
AcDbXrecord
280
     1
270
     1
271
     1
  0
XRECORD
  5
230
102
{ACAD_REACTORS
330
22B
102
}
330
22B
100
AcDbXrecord
280
     1
270
     1
271
     1
  0
XRECORD
  5
22F
102
{ACAD_REACTORS
330
22B
102
}
330
22B
100
AcDbXrecord
280
     1
270
     1
271
     1
  0
XRECORD
  5
231
102
{ACAD_REACTORS
330
22B
102
}
330
22B
100
AcDbXrecord
280
     1
270
     1
271
     1
  0
XRECORD
  5
22E
102
{ACAD_REACTORS
330
22B
102
}
330
22B
100
AcDbXrecord
280
     1
270
     1
271
     1
  0
XRECORD
  5
225
102
{ACAD_REACTORS
330
223
102
}
330
223
100
AcDbXrecord
280
     1
270
     1
271
     1
  0
XRECORD
  5
224
102
{ACAD_REACTORS
330
223
102
}
330
223
100
AcDbXrecord
280
     1
270
     1
271
     1
  0
XRECORD
  5
228
102
{ACAD_REACTORS
330
223
102
}
330
223
100
AcDbXrecord
280
     1
270
     1
271
     1
  0
XRECORD
  5
227
102
{ACAD_REACTORS
330
223
102
}
330
223
100
AcDbXrecord
280
     1
270
     1
271
     1
  0
XRECORD
  5
229
102
{ACAD_REACTORS
330
223
102
}
330
223
100
AcDbXrecord
280
     1
270
     1
271
     1
  0
XRECORD
  5
226
102
{ACAD_REACTORS
330
223
102
}
330
223
100
AcDbXrecord
280
     1
270
     1
271
     1
  0
XRECORD
  5
235
102
{ACAD_REACTORS
330
233
102
}
330
233
100
AcDbXrecord
280
     1
270
     1
271
     1
  0
XRECORD
  5
234
102
{ACAD_REACTORS
330
233
102
}
330
233
100
AcDbXrecord
280
     1
270
     1
271
     1
  0
XRECORD
  5
238
102
{ACAD_REACTORS
330
233
102
}
330
233
100
AcDbXrecord
280
     1
270
     1
271
     1
  0
XRECORD
  5
237
102
{ACAD_REACTORS
330
233
102
}
330
233
100
AcDbXrecord
280
     1
270
     1
271
     1
  0
XRECORD
  5
239
102
{ACAD_REACTORS
330
233
102
}
330
233
100
AcDbXrecord
280
     1
270
     1
271
     1
  0
XRECORD
  5
236
102
{ACAD_REACTORS
330
233
102
}
330
233
100
AcDbXrecord
280
     1
270
     1
271
     1
  0
XRECORD
  5
2F6
102
{ACAD_REACTORS
330
2F5
102
}
330
2F5
100
AcDbXrecord
280
     1
102
ACAD_ROUNDTRIP_2012_MLEADER_STYLE
298
     1
  0
CELLSTYLEMAP
  5
2F4
102
{ACAD_REACTORS
330
2F3
102
}
330
2F3
100
AcDbCellStyleMap
 90
        3
300
CELLSTYLE
  1
TABLEFORMAT_BEGIN
 90
        5
170
     1
 91
        0
 92
    32768
 62
   257
 93
        1
300
CONTENTFORMAT
  1
CONTENTFORMAT_BEGIN
 90
        0
 91
        0
 92
        4
 93
        0
300

 40
0.0
140
1.0
 94
        5
 62
     0
340
13
144
6.0
309
CONTENTFORMAT_END
171
     1
301
MARGIN
  1
CELLMARGIN_BEGIN
 40
1.5
 40
1.5
 40
1.5
 40
1.5
 40
0.18
 40
0.18
309
CELLMARGIN_END
 94
        6
 95
        1
302
GRIDFORMAT
  1
GRIDFORMAT_BEGIN
 90
        0
 91
        1
 62
     0
 92
       -2
340
0
 93
        0
 40
0.045
309
GRIDFORMAT_END
 95
        2
302
GRIDFORMAT
  1
GRIDFORMAT_BEGIN
 90
        0
 91
        1
 62
     0
 92
       -2
340
0
 93
        0
 40
0.045
309
GRIDFORMAT_END
 95
        4
302
GRIDFORMAT
  1
GRIDFORMAT_BEGIN
 90
        0
 91
        1
 62
     0
 92
       -2
340
0
 93
        0
 40
0.045
309
GRIDFORMAT_END
 95
        8
302
GRIDFORMAT
  1
GRIDFORMAT_BEGIN
 90
        0
 91
        1
 62
     0
 92
       -2
340
0
 93
        0
 40
0.045
309
GRIDFORMAT_END
 95
       16
302
GRIDFORMAT
  1
GRIDFORMAT_BEGIN
 90
        0
 91
        1
 62
     0
 92
       -2
340
0
 93
        0
 40
0.045
309
GRIDFORMAT_END
 95
       32
302
GRIDFORMAT
  1
GRIDFORMAT_BEGIN
 90
        0
 91
        1
 62
     0
 92
       -2
340
0
 93
        0
 40
0.045
309
GRIDFORMAT_END
309
TABLEFORMAT_END
  1
CELLSTYLE_BEGIN
 90
        1
 91
        1
300
_TITLE
309
CELLSTYLE_END
300
CELLSTYLE
  1
TABLEFORMAT_BEGIN
 90
        5
170
     1
 91
        0
 92
        0
 62
   257
 93
        1
300
CONTENTFORMAT
  1
CONTENTFORMAT_BEGIN
 90
        0
 91
        0
 92
        4
 93
        0
300

 40
0.0
140
1.0
 94
        5
 62
     0
340
13
144
4.5
309
CONTENTFORMAT_END
171
     1
301
MARGIN
  1
CELLMARGIN_BEGIN
 40
1.5
 40
1.5
 40
1.5
 40
1.5
 40
0.18
 40
0.18
309
CELLMARGIN_END
 94
        6
 95
        1
302
GRIDFORMAT
  1
GRIDFORMAT_BEGIN
 90
        0
 91
        1
 62
     0
 92
       -2
340
0
 93
        0
 40
0.045
309
GRIDFORMAT_END
 95
        2
302
GRIDFORMAT
  1
GRIDFORMAT_BEGIN
 90
        0
 91
        1
 62
     0
 92
       -2
340
0
 93
        0
 40
0.045
309
GRIDFORMAT_END
 95
        4
302
GRIDFORMAT
  1
GRIDFORMAT_BEGIN
 90
        0
 91
        1
 62
     0
 92
       -2
340
0
 93
        0
 40
0.045
309
GRIDFORMAT_END
 95
        8
302
GRIDFORMAT
  1
GRIDFORMAT_BEGIN
 90
        0
 91
        1
 62
     0
 92
       -2
340
0
 93
        0
 40
0.045
309
GRIDFORMAT_END
 95
       16
302
GRIDFORMAT
  1
GRIDFORMAT_BEGIN
 90
        0
 91
        1
 62
     0
 92
       -2
340
0
 93
        0
 40
0.045
309
GRIDFORMAT_END
 95
       32
302
GRIDFORMAT
  1
GRIDFORMAT_BEGIN
 90
        0
 91
        1
 62
     0
 92
       -2
340
0
 93
        0
 40
0.045
309
GRIDFORMAT_END
309
TABLEFORMAT_END
  1
CELLSTYLE_BEGIN
 90
        2
 91
        1
300
_HEADER
309
CELLSTYLE_END
300
CELLSTYLE
  1
TABLEFORMAT_BEGIN
 90
        5
170
     1
 91
        0
 92
        0
 62
   257
 93
        1
300
CONTENTFORMAT
  1
CONTENTFORMAT_BEGIN
 90
        0
 91
        0
 92
        4
 93
        0
300

 40
0.0
140
1.0
 94
        2
 62
     0
340
13
144
4.5
309
CONTENTFORMAT_END
171
     1
301
MARGIN
  1
CELLMARGIN_BEGIN
 40
1.5
 40
1.5
 40
1.5
 40
1.5
 40
0.18
 40
0.18
309
CELLMARGIN_END
 94
        6
 95
        1
302
GRIDFORMAT
  1
GRIDFORMAT_BEGIN
 90
        0
 91
        1
 62
     0
 92
       -2
340
0
 93
        0
 40
0.045
309
GRIDFORMAT_END
 95
        2
302
GRIDFORMAT
  1
GRIDFORMAT_BEGIN
 90
        0
 91
        1
 62
     0
 92
       -2
340
0
 93
        0
 40
0.045
309
GRIDFORMAT_END
 95
        4
302
GRIDFORMAT
  1
GRIDFORMAT_BEGIN
 90
        0
 91
        1
 62
     0
 92
       -2
340
0
 93
        0
 40
0.045
309
GRIDFORMAT_END
 95
        8
302
GRIDFORMAT
  1
GRIDFORMAT_BEGIN
 90
        0
 91
        1
 62
     0
 92
       -2
340
0
 93
        0
 40
0.045
309
GRIDFORMAT_END
 95
       16
302
GRIDFORMAT
  1
GRIDFORMAT_BEGIN
 90
        0
 91
        1
 62
     0
 92
       -2
340
0
 93
        0
 40
0.045
309
GRIDFORMAT_END
 95
       32
302
GRIDFORMAT
  1
GRIDFORMAT_BEGIN
 90
        0
 91
        1
 62
     0
 92
       -2
340
0
 93
        0
 40
0.045
309
GRIDFORMAT_END
309
TABLEFORMAT_END
  1
CELLSTYLE_BEGIN
 90
        3
 91
        2
300
_DATA
309
CELLSTYLE_END
  0
ENDSEC
  0
EOF
