0
SECTION
2
HEADER
9
$EXTMIN
10
 0
20
 100
30
0.0
9
$EXTMAX
10
 0
20
 100
30
0.0
9
$LIMMIN
10
 100
20
 0
9
$LIMMAX
10
 0
20
 100
9
$PSLTSCALE
70
1
0
ENDSEC
0
SECTION
2
TABLES
0
TABLE
2
LAYER
70
2
0
LAYER
2
0
70
0
62
7
6
CONTINUOUS
0
LAYER
2
Halfen
70
0
62
7
6
CONTINUOUS
0
ENDTAB
0
ENDSEC
0
SECTION
2
ENTITIES
0
POLYLINE
8
Halfen
62
7
66
1
10
0.0
20
0.0
30
0.0
70
1
0
VERTEX
8
Halfen
62
7
10
 0
20
-73.5
30
0
0
VERTEX
8
Halfen
62
7
10
 1000
20
-73.5
30
0
0
VERTEX
8
Halfen
62
7
10
 1000
20
 73.5
30
0
0
VERTEX
8
Halfen
62
7
10
 0
20
 73.5
30
0
0
SEQEND
8
Halfen
0
POLYLINE
8
Halfen
62
7
66
1
10
0.0
20
0.0
30
0.0
70
1
0
VERTEX
8
Halfen
62
7
10
 0
20
-60
30
0
0
VERTEX
8
Halfen
62
7
10
 1000
20
-60
30
0
0
VERTEX
8
Halfen
62
7
10
 1000
20
 60
30
0
0
VERTEX
8
Halfen
62
7
10
 0
20
 60
30
0
0
SEQEND
8
Halfen
0
POLYLINE
8
Halfen
62
7
66
1
10
0.0
20
0.0
30
0.0
70
1
0
VERTEX
8
Halfen
62
7
10
 20
20
-32.5
30
0
0
VERTEX
8
Halfen
62
7
10
 37
20
-1.5
30
0
0
VERTEX
8
Halfen
62
7
10
 28
20
-1.5
30
0
0
VERTEX
8
Halfen
62
7
10
 28
20
 32.5
30
0
0
VERTEX
8
Halfen
62
7
10
 12
20
 32.5
30
0
0
VERTEX
8
Halfen
62
7
10
 12
20
-1.5
30
0
0
VERTEX
8
Halfen
62
7
10
 3
20
-1.5
30
0
0
SEQEND
8
Halfen
0
POLYLINE
8
Halfen
62
7
66
1
10
0.0
20
0.0
30
0.0
70
1
0
VERTEX
8
Halfen
62
7
10
 980
20
-32.5
30
0
0
VERTEX
8
Halfen
62
7
10
 997
20
-1.5
30
0
0
VERTEX
8
Halfen
62
7
10
 988
20
-1.5
30
0
0
VERTEX
8
Halfen
62
7
10
 988
20
 32.5
30
0
0
VERTEX
8
Halfen
62
7
10
 972
20
 32.5
30
0
0
VERTEX
8
Halfen
62
7
10
 972
20
-1.5
30
0
0
VERTEX
8
Halfen
62
7
10
 963
20
-1.5
30
0
0
SEQEND
8
Halfen
0
POLYLINE
8
Halfen
62
7
66
1
10
0.0
20
0.0
30
0.0
70
1
0
VERTEX
8
Halfen
62
7
10
 265
20
-69.3
30
0
0
VERTEX
8
Halfen
62
7
10
 265
20
-56.8
30
0
0
VERTEX
8
Halfen
62
7
10
 265
20
 69.3
30
0
0
VERTEX
8
Halfen
62
7
10
 264.958
20
 70.359
30
0
0
VERTEX
8
Halfen
62
7
10
 264.834
20
 71.412
30
0
0
VERTEX
8
Halfen
62
7
10
 264.627
20
 72.452
30
0
0
VERTEX
8
Halfen
62
7
10
 264.339
20
 73.472
30
0
0
VERTEX
8
Halfen
62
7
10
 263.972
20
 74.466
30
0
0
VERTEX
8
Halfen
62
7
10
 263.529
20
 75.429
30
0
0
VERTEX
8
Halfen
62
7
10
 263.011
20
 76.354
30
0
0
VERTEX
8
Halfen
62
7
10
 262.422
20
 77.235
30
0
0
VERTEX
8
Halfen
62
7
10
 261.765
20
 78.068
30
0
0
VERTEX
8
Halfen
62
7
10
 261.046
20
 78.846
30
0
0
VERTEX
8
Halfen
62
7
10
 260.268
20
 79.565
30
0
0
VERTEX
8
Halfen
62
7
10
 259.435
20
 80.222
30
0
0
VERTEX
8
Halfen
62
7
10
 258.554
20
 80.811
30
0
0
VERTEX
8
Halfen
62
7
10
 257.629
20
 81.329
30
0
0
VERTEX
8
Halfen
62
7
10
 256.666
20
 81.772
30
0
0
VERTEX
8
Halfen
62
7
10
 255.672
20
 82.139
30
0
0
VERTEX
8
Halfen
62
7
10
 254.652
20
 82.427
30
0
0
VERTEX
8
Halfen
62
7
10
 253.612
20
 82.634
30
0
0
VERTEX
8
Halfen
62
7
10
 252.559
20
 82.758
30
0
0
VERTEX
8
Halfen
62
7
10
 251.5
20
 82.8
30
0
0
VERTEX
8
Halfen
62
7
10
 248.5
20
 82.8
30
0
0
VERTEX
8
Halfen
62
7
10
 247.441
20
 82.758
30
0
0
VERTEX
8
Halfen
62
7
10
 246.388
20
 82.634
30
0
0
VERTEX
8
Halfen
62
7
10
 245.348
20
 82.427
30
0
0
VERTEX
8
Halfen
62
7
10
 244.328
20
 82.139
30
0
0
VERTEX
8
Halfen
62
7
10
 243.334
20
 81.772
30
0
0
VERTEX
8
Halfen
62
7
10
 242.371
20
 81.329
30
0
0
VERTEX
8
Halfen
62
7
10
 241.446
20
 80.811
30
0
0
VERTEX
8
Halfen
62
7
10
 240.565
20
 80.222
30
0
0
VERTEX
8
Halfen
62
7
10
 239.732
20
 79.565
30
0
0
VERTEX
8
Halfen
62
7
10
 238.954
20
 78.846
30
0
0
VERTEX
8
Halfen
62
7
10
 238.235
20
 78.068
30
0
0
VERTEX
8
Halfen
62
7
10
 237.578
20
 77.235
30
0
0
VERTEX
8
Halfen
62
7
10
 236.989
20
 76.354
30
0
0
VERTEX
8
Halfen
62
7
10
 236.471
20
 75.429
30
0
0
VERTEX
8
Halfen
62
7
10
 236.028
20
 74.466
30
0
0
VERTEX
8
Halfen
62
7
10
 235.661
20
 73.472
30
0
0
VERTEX
8
Halfen
62
7
10
 235.373
20
 72.452
30
0
0
VERTEX
8
Halfen
62
7
10
 235.166
20
 71.412
30
0
0
VERTEX
8
Halfen
62
7
10
 235.042
20
 70.359
30
0
0
VERTEX
8
Halfen
62
7
10
 235
20
 69.3
30
0
0
VERTEX
8
Halfen
62
7
10
 235
20
-56.8
30
0
0
VERTEX
8
Halfen
62
7
10
 235
20
-69.3
30
0
0
VERTEX
8
Halfen
62
7
10
 235.042
20
-70.359
30
0
0
VERTEX
8
Halfen
62
7
10
 235.166
20
-71.412
30
0
0
VERTEX
8
Halfen
62
7
10
 235.373
20
-72.452
30
0
0
VERTEX
8
Halfen
62
7
10
 235.661
20
-73.472
30
0
0
VERTEX
8
Halfen
62
7
10
 236.028
20
-74.466
30
0
0
VERTEX
8
Halfen
62
7
10
 236.471
20
-75.429
30
0
0
VERTEX
8
Halfen
62
7
10
 236.989
20
-76.354
30
0
0
VERTEX
8
Halfen
62
7
10
 237.578
20
-77.235
30
0
0
VERTEX
8
Halfen
62
7
10
 238.235
20
-78.068
30
0
0
VERTEX
8
Halfen
62
7
10
 238.954
20
-78.846
30
0
0
VERTEX
8
Halfen
62
7
10
 239.732
20
-79.565
30
0
0
VERTEX
8
Halfen
62
7
10
 240.565
20
-80.222
30
0
0
VERTEX
8
Halfen
62
7
10
 241.446
20
-80.811
30
0
0
VERTEX
8
Halfen
62
7
10
 242.371
20
-81.329
30
0
0
VERTEX
8
Halfen
62
7
10
 243.334
20
-81.772
30
0
0
VERTEX
8
Halfen
62
7
10
 244.328
20
-82.139
30
0
0
VERTEX
8
Halfen
62
7
10
 245.348
20
-82.427
30
0
0
VERTEX
8
Halfen
62
7
10
 246.388
20
-82.634
30
0
0
VERTEX
8
Halfen
62
7
10
 247.441
20
-82.758
30
0
0
VERTEX
8
Halfen
62
7
10
 248.5
20
-82.8
30
0
0
VERTEX
8
Halfen
62
7
10
 251.5
20
-82.8
30
0
0
VERTEX
8
Halfen
62
7
10
 252.559
20
-82.758
30
0
0
VERTEX
8
Halfen
62
7
10
 253.612
20
-82.634
30
0
0
VERTEX
8
Halfen
62
7
10
 254.652
20
-82.427
30
0
0
VERTEX
8
Halfen
62
7
10
 255.672
20
-82.139
30
0
0
VERTEX
8
Halfen
62
7
10
 256.666
20
-81.772
30
0
0
VERTEX
8
Halfen
62
7
10
 257.629
20
-81.329
30
0
0
VERTEX
8
Halfen
62
7
10
 258.554
20
-80.811
30
0
0
VERTEX
8
Halfen
62
7
10
 259.435
20
-80.222
30
0
0
VERTEX
8
Halfen
62
7
10
 260.268
20
-79.565
30
0
0
VERTEX
8
Halfen
62
7
10
 261.046
20
-78.846
30
0
0
VERTEX
8
Halfen
62
7
10
 261.765
20
-78.068
30
0
0
VERTEX
8
Halfen
62
7
10
 262.422
20
-77.235
30
0
0
VERTEX
8
Halfen
62
7
10
 263.011
20
-76.354
30
0
0
VERTEX
8
Halfen
62
7
10
 263.529
20
-75.429
30
0
0
VERTEX
8
Halfen
62
7
10
 263.972
20
-74.466
30
0
0
VERTEX
8
Halfen
62
7
10
 264.339
20
-73.472
30
0
0
VERTEX
8
Halfen
62
7
10
 264.627
20
-72.452
30
0
0
VERTEX
8
Halfen
62
7
10
 264.834
20
-71.412
30
0
0
VERTEX
8
Halfen
62
7
10
 264.958
20
-70.359
30
0
0
VERTEX
8
Halfen
62
7
10
 265
20
-69.3
30
0
0
SEQEND
8
Halfen
0
POLYLINE
8
Halfen
62
7
66
1
10
0.0
20
0.0
30
0.0
70
1
0
VERTEX
8
Halfen
62
7
10
 765
20
-69.3
30
0
0
VERTEX
8
Halfen
62
7
10
 765
20
-56.8
30
0
0
VERTEX
8
Halfen
62
7
10
 765
20
 69.3
30
0
0
VERTEX
8
Halfen
62
7
10
 764.958
20
 70.359
30
0
0
VERTEX
8
Halfen
62
7
10
 764.834
20
 71.412
30
0
0
VERTEX
8
Halfen
62
7
10
 764.627
20
 72.452
30
0
0
VERTEX
8
Halfen
62
7
10
 764.339
20
 73.472
30
0
0
VERTEX
8
Halfen
62
7
10
 763.972
20
 74.466
30
0
0
VERTEX
8
Halfen
62
7
10
 763.529
20
 75.429
30
0
0
VERTEX
8
Halfen
62
7
10
 763.011
20
 76.354
30
0
0
VERTEX
8
Halfen
62
7
10
 762.422
20
 77.235
30
0
0
VERTEX
8
Halfen
62
7
10
 761.765
20
 78.068
30
0
0
VERTEX
8
Halfen
62
7
10
 761.046
20
 78.846
30
0
0
VERTEX
8
Halfen
62
7
10
 760.268
20
 79.565
30
0
0
VERTEX
8
Halfen
62
7
10
 759.435
20
 80.222
30
0
0
VERTEX
8
Halfen
62
7
10
 758.554
20
 80.811
30
0
0
VERTEX
8
Halfen
62
7
10
 757.629
20
 81.329
30
0
0
VERTEX
8
Halfen
62
7
10
 756.666
20
 81.772
30
0
0
VERTEX
8
Halfen
62
7
10
 755.672
20
 82.139
30
0
0
VERTEX
8
Halfen
62
7
10
 754.652
20
 82.427
30
0
0
VERTEX
8
Halfen
62
7
10
 753.612
20
 82.634
30
0
0
VERTEX
8
Halfen
62
7
10
 752.559
20
 82.758
30
0
0
VERTEX
8
Halfen
62
7
10
 751.5
20
 82.8
30
0
0
VERTEX
8
Halfen
62
7
10
 748.5
20
 82.8
30
0
0
VERTEX
8
Halfen
62
7
10
 747.441
20
 82.758
30
0
0
VERTEX
8
Halfen
62
7
10
 746.388
20
 82.634
30
0
0
VERTEX
8
Halfen
62
7
10
 745.348
20
 82.427
30
0
0
VERTEX
8
Halfen
62
7
10
 744.328
20
 82.139
30
0
0
VERTEX
8
Halfen
62
7
10
 743.334
20
 81.772
30
0
0
VERTEX
8
Halfen
62
7
10
 742.371
20
 81.329
30
0
0
VERTEX
8
Halfen
62
7
10
 741.446
20
 80.811
30
0
0
VERTEX
8
Halfen
62
7
10
 740.565
20
 80.222
30
0
0
VERTEX
8
Halfen
62
7
10
 739.732
20
 79.565
30
0
0
VERTEX
8
Halfen
62
7
10
 738.954
20
 78.846
30
0
0
VERTEX
8
Halfen
62
7
10
 738.235
20
 78.068
30
0
0
VERTEX
8
Halfen
62
7
10
 737.578
20
 77.235
30
0
0
VERTEX
8
Halfen
62
7
10
 736.989
20
 76.354
30
0
0
VERTEX
8
Halfen
62
7
10
 736.471
20
 75.429
30
0
0
VERTEX
8
Halfen
62
7
10
 736.028
20
 74.466
30
0
0
VERTEX
8
Halfen
62
7
10
 735.661
20
 73.472
30
0
0
VERTEX
8
Halfen
62
7
10
 735.373
20
 72.452
30
0
0
VERTEX
8
Halfen
62
7
10
 735.166
20
 71.412
30
0
0
VERTEX
8
Halfen
62
7
10
 735.042
20
 70.359
30
0
0
VERTEX
8
Halfen
62
7
10
 735
20
 69.3
30
0
0
VERTEX
8
Halfen
62
7
10
 735
20
-56.8
30
0
0
VERTEX
8
Halfen
62
7
10
 735
20
-69.3
30
0
0
VERTEX
8
Halfen
62
7
10
 735.042
20
-70.359
30
0
0
VERTEX
8
Halfen
62
7
10
 735.166
20
-71.412
30
0
0
VERTEX
8
Halfen
62
7
10
 735.373
20
-72.452
30
0
0
VERTEX
8
Halfen
62
7
10
 735.661
20
-73.472
30
0
0
VERTEX
8
Halfen
62
7
10
 736.028
20
-74.466
30
0
0
VERTEX
8
Halfen
62
7
10
 736.471
20
-75.429
30
0
0
VERTEX
8
Halfen
62
7
10
 736.989
20
-76.354
30
0
0
VERTEX
8
Halfen
62
7
10
 737.578
20
-77.235
30
0
0
VERTEX
8
Halfen
62
7
10
 738.235
20
-78.068
30
0
0
VERTEX
8
Halfen
62
7
10
 738.954
20
-78.846
30
0
0
VERTEX
8
Halfen
62
7
10
 739.732
20
-79.565
30
0
0
VERTEX
8
Halfen
62
7
10
 740.565
20
-80.222
30
0
0
VERTEX
8
Halfen
62
7
10
 741.446
20
-80.811
30
0
0
VERTEX
8
Halfen
62
7
10
 742.371
20
-81.329
30
0
0
VERTEX
8
Halfen
62
7
10
 743.334
20
-81.772
30
0
0
VERTEX
8
Halfen
62
7
10
 744.328
20
-82.139
30
0
0
VERTEX
8
Halfen
62
7
10
 745.348
20
-82.427
30
0
0
VERTEX
8
Halfen
62
7
10
 746.388
20
-82.634
30
0
0
VERTEX
8
Halfen
62
7
10
 747.441
20
-82.758
30
0
0
VERTEX
8
Halfen
62
7
10
 748.5
20
-82.8
30
0
0
VERTEX
8
Halfen
62
7
10
 751.5
20
-82.8
30
0
0
VERTEX
8
Halfen
62
7
10
 752.559
20
-82.758
30
0
0
VERTEX
8
Halfen
62
7
10
 753.612
20
-82.634
30
0
0
VERTEX
8
Halfen
62
7
10
 754.652
20
-82.427
30
0
0
VERTEX
8
Halfen
62
7
10
 755.672
20
-82.139
30
0
0
VERTEX
8
Halfen
62
7
10
 756.666
20
-81.772
30
0
0
VERTEX
8
Halfen
62
7
10
 757.629
20
-81.329
30
0
0
VERTEX
8
Halfen
62
7
10
 758.554
20
-80.811
30
0
0
VERTEX
8
Halfen
62
7
10
 759.435
20
-80.222
30
0
0
VERTEX
8
Halfen
62
7
10
 760.268
20
-79.565
30
0
0
VERTEX
8
Halfen
62
7
10
 761.046
20
-78.846
30
0
0
VERTEX
8
Halfen
62
7
10
 761.765
20
-78.068
30
0
0
VERTEX
8
Halfen
62
7
10
 762.422
20
-77.235
30
0
0
VERTEX
8
Halfen
62
7
10
 763.011
20
-76.354
30
0
0
VERTEX
8
Halfen
62
7
10
 763.529
20
-75.429
30
0
0
VERTEX
8
Halfen
62
7
10
 763.972
20
-74.466
30
0
0
VERTEX
8
Halfen
62
7
10
 764.339
20
-73.472
30
0
0
VERTEX
8
Halfen
62
7
10
 764.627
20
-72.452
30
0
0
VERTEX
8
Halfen
62
7
10
 764.834
20
-71.412
30
0
0
VERTEX
8
Halfen
62
7
10
 764.958
20
-70.359
30
0
0
VERTEX
8
Halfen
62
7
10
 765
20
-69.3
30
0
0
SEQEND
8
Halfen
0
POLYLINE
8
Halfen
62
7
66
1
10
0.0
20
0.0
30
0.0
70
1
0
VERTEX
8
Halfen
62
7
10
 74
20
-575.304
30
0
0
VERTEX
8
Halfen
62
7
10
 74
20
 585.215
30
0
0
VERTEX
8
Halfen
62
7
10
 66
20
 585.215
30
0
0
VERTEX
8
Halfen
62
7
10
 66
20
-575.304
30
0
0
SEQEND
8
Halfen
0
POLYLINE
8
Halfen
62
7
66
1
10
0.0
20
0.0
30
0.0
70
1
0
VERTEX
8
Halfen
62
7
10
 194
20
-575.304
30
0
0
VERTEX
8
Halfen
62
7
10
 194
20
 585.215
30
0
0
VERTEX
8
Halfen
62
7
10
 186
20
 585.215
30
0
0
VERTEX
8
Halfen
62
7
10
 186
20
-575.304
30
0
0
SEQEND
8
Halfen
0
POLYLINE
8
Halfen
62
7
66
1
10
0.0
20
0.0
30
0.0
70
1
0
VERTEX
8
Halfen
62
7
10
 324
20
-575.304
30
0
0
VERTEX
8
Halfen
62
7
10
 324
20
 585.215
30
0
0
VERTEX
8
Halfen
62
7
10
 316
20
 585.215
30
0
0
VERTEX
8
Halfen
62
7
10
 316
20
-575.304
30
0
0
SEQEND
8
Halfen
0
POLYLINE
8
Halfen
62
7
66
1
10
0.0
20
0.0
30
0.0
70
1
0
VERTEX
8
Halfen
62
7
10
 574
20
-575.304
30
0
0
VERTEX
8
Halfen
62
7
10
 574
20
 585.215
30
0
0
VERTEX
8
Halfen
62
7
10
 566
20
 585.215
30
0
0
VERTEX
8
Halfen
62
7
10
 566
20
-575.304
30
0
0
SEQEND
8
Halfen
0
POLYLINE
8
Halfen
62
7
66
1
10
0.0
20
0.0
30
0.0
70
1
0
VERTEX
8
Halfen
62
7
10
 694
20
-575.304
30
0
0
VERTEX
8
Halfen
62
7
10
 694
20
 585.215
30
0
0
VERTEX
8
Halfen
62
7
10
 686
20
 585.215
30
0
0
VERTEX
8
Halfen
62
7
10
 686
20
-575.304
30
0
0
SEQEND
8
Halfen
0
POLYLINE
8
Halfen
62
7
66
1
10
0.0
20
0.0
30
0.0
70
1
0
VERTEX
8
Halfen
62
7
10
 824
20
-575.304
30
0
0
VERTEX
8
Halfen
62
7
10
 824
20
 585.215
30
0
0
VERTEX
8
Halfen
62
7
10
 816
20
 585.215
30
0
0
VERTEX
8
Halfen
62
7
10
 816
20
-575.304
30
0
0
SEQEND
8
Halfen
0
POLYLINE
8
Halfen
62
7
66
1
10
0.0
20
0.0
30
0.0
70
1
0
VERTEX
8
Halfen
62
7
10
 934
20
-575.304
30
0
0
VERTEX
8
Halfen
62
7
10
 934
20
 585.215
30
0
0
VERTEX
8
Halfen
62
7
10
 926
20
 585.215
30
0
0
VERTEX
8
Halfen
62
7
10
 926
20
-575.304
30
0
0
SEQEND
8
Halfen
0
POLYLINE
8
Halfen
62
7
66
1
10
0.0
20
0.0
30
0.0
70
1
0
VERTEX
8
Halfen
62
7
10
 814
20
-575.304
30
0
0
VERTEX
8
Halfen
62
7
10
 814
20
 585.215
30
0
0
VERTEX
8
Halfen
62
7
10
 806
20
 585.215
30
0
0
VERTEX
8
Halfen
62
7
10
 806
20
-575.304
30
0
0
SEQEND
8
Halfen
0
POLYLINE
8
Halfen
62
7
66
1
10
0.0
20
0.0
30
0.0
70
1
0
VERTEX
8
Halfen
62
7
10
 684
20
-575.304
30
0
0
VERTEX
8
Halfen
62
7
10
 684
20
 585.215
30
0
0
VERTEX
8
Halfen
62
7
10
 676
20
 585.215
30
0
0
VERTEX
8
Halfen
62
7
10
 676
20
-575.304
30
0
0
SEQEND
8
Halfen
0
POLYLINE
8
Halfen
62
7
66
1
10
0.0
20
0.0
30
0.0
70
1
0
VERTEX
8
Halfen
62
7
10
 434
20
-575.304
30
0
0
VERTEX
8
Halfen
62
7
10
 434
20
 585.215
30
0
0
VERTEX
8
Halfen
62
7
10
 426
20
 585.215
30
0
0
VERTEX
8
Halfen
62
7
10
 426
20
-575.304
30
0
0
SEQEND
8
Halfen
0
POLYLINE
8
Halfen
62
7
66
1
10
0.0
20
0.0
30
0.0
70
1
0
VERTEX
8
Halfen
62
7
10
 314
20
-575.304
30
0
0
VERTEX
8
Halfen
62
7
10
 314
20
 585.215
30
0
0
VERTEX
8
Halfen
62
7
10
 306
20
 585.215
30
0
0
VERTEX
8
Halfen
62
7
10
 306
20
-575.304
30
0
0
SEQEND
8
Halfen
0
POLYLINE
8
Halfen
62
7
66
1
10
0.0
20
0.0
30
0.0
70
1
0
VERTEX
8
Halfen
62
7
10
 184
20
-575.304
30
0
0
VERTEX
8
Halfen
62
7
10
 184
20
 585.215
30
0
0
VERTEX
8
Halfen
62
7
10
 176
20
 585.215
30
0
0
VERTEX
8
Halfen
62
7
10
 176
20
-575.304
30
0
0
SEQEND
8
Halfen
0
POLYLINE
8
Halfen
62
7
66
1
10
0.0
20
0.0
30
0.0
70
1
0
VERTEX
8
Halfen
62
7
10
 1430
20
-60
30
0
0
VERTEX
8
Halfen
62
7
10
 1430
20
 60
30
0
0
VERTEX
8
Halfen
62
7
10
 1416.5
20
 73.5
30
0
0
VERTEX
8
Halfen
62
7
10
 1416.5
20
 60
30
0
0
VERTEX
8
Halfen
62
7
10
 1250
20
 60
30
0
0
VERTEX
8
Halfen
62
7
10
 1250
20
-60
30
0
0
VERTEX
8
Halfen
62
7
10
 1416.5
20
-60
30
0
0
VERTEX
8
Halfen
62
7
10
 1416.5
20
-73.5
30
0
0
SEQEND
8
Halfen
0
POLYLINE
8
Halfen
62
7
66
1
10
0.0
20
0.0
30
0.0
70
1
0
VERTEX
8
Halfen
62
7
10
 1250
20
-60
30
0
0
VERTEX
8
Halfen
62
7
10
 1250
20
 60
30
0
0
VERTEX
8
Halfen
62
7
10
 1213.5
20
 60
30
0
0
VERTEX
8
Halfen
62
7
10
 1213.5
20
 73.5
30
0
0
VERTEX
8
Halfen
62
7
10
 1200
20
 60
30
0
0
VERTEX
8
Halfen
62
7
10
 1200
20
-60
30
0
0
VERTEX
8
Halfen
62
7
10
 1213.5
20
-73.5
30
0
0
VERTEX
8
Halfen
62
7
10
 1213.5
20
-60
30
0
0
SEQEND
8
Halfen
0
POLYLINE
8
Halfen
62
7
66
1
10
0.0
20
0.0
30
0.0
70
1
0
VERTEX
8
Halfen
62
7
10
 1427.5
20
-58.75
30
0
0
VERTEX
8
Halfen
62
7
10
 1427.5
20
 58.75
30
0
0
VERTEX
8
Halfen
62
7
10
 1419
20
 67.25
30
0
0
VERTEX
8
Halfen
62
7
10
 1419
20
 58
30
0
0
VERTEX
8
Halfen
62
7
10
 1252
20
 58
30
0
0
VERTEX
8
Halfen
62
7
10
 1252
20
-58
30
0
0
VERTEX
8
Halfen
62
7
10
 1419
20
-58
30
0
0
VERTEX
8
Halfen
62
7
10
 1419
20
-67.25
30
0
0
SEQEND
8
Halfen
0
POLYLINE
8
Halfen
62
7
66
1
10
0.0
20
0.0
30
0.0
70
1
0
VERTEX
8
Halfen
62
7
10
 1248
20
-58
30
0
0
VERTEX
8
Halfen
62
7
10
 1248
20
 58
30
0
0
VERTEX
8
Halfen
62
7
10
 1211
20
 58
30
0
0
VERTEX
8
Halfen
62
7
10
 1211
20
 67.25
30
0
0
VERTEX
8
Halfen
62
7
10
 1202.5
20
 58.75
30
0
0
VERTEX
8
Halfen
62
7
10
 1202.5
20
-58.75
30
0
0
VERTEX
8
Halfen
62
7
10
 1211
20
-67.25
30
0
0
VERTEX
8
Halfen
62
7
10
 1211
20
-58
30
0
0
SEQEND
8
Halfen
0
POLYLINE
8
Halfen
62
7
66
1
10
0.0
20
0.0
30
0.0
70
1
0
VERTEX
8
Halfen
62
7
10
 1415
20
-81.8
30
0
0
VERTEX
8
Halfen
62
7
10
 1415
20
 81.8
30
0
0
VERTEX
8
Halfen
62
7
10
 1411
20
 81.8
30
0
0
VERTEX
8
Halfen
62
7
10
 1410.846
20
 81.797
30
0
0
VERTEX
8
Halfen
62
7
10
 1410.691
20
 81.786
30
0
0
VERTEX
8
Halfen
62
7
10
 1410.538
20
 81.769
30
0
0
VERTEX
8
Halfen
62
7
10
 1410.385
20
 81.746
30
0
0
VERTEX
8
Halfen
62
7
10
 1410.234
20
 81.715
30
0
0
VERTEX
8
Halfen
62
7
10
 1410.084
20
 81.678
30
0
0
VERTEX
8
Halfen
62
7
10
 1409.936
20
 81.634
30
0
0
VERTEX
8
Halfen
62
7
10
 1409.789
20
 81.584
30
0
0
VERTEX
8
Halfen
62
7
10
 1409.646
20
 81.527
30
0
0
VERTEX
8
Halfen
62
7
10
 1409.505
20
 81.464
30
0
0
VERTEX
8
Halfen
62
7
10
 1409.366
20
 81.395
30
0
0
VERTEX
8
Halfen
62
7
10
 1409.231
20
 81.32
30
0
0
VERTEX
8
Halfen
62
7
10
 1409.1
20
 81.239
30
0
0
VERTEX
8
Halfen
62
7
10
 1408.972
20
 81.153
30
0
0
VERTEX
8
Halfen
62
7
10
 1408.848
20
 81.06
30
0
0
VERTEX
8
Halfen
62
7
10
 1408.728
20
 80.963
30
0
0
VERTEX
8
Halfen
62
7
10
 1408.613
20
 80.86
30
0
0
VERTEX
8
Halfen
62
7
10
 1408.502
20
 80.752
30
0
0
VERTEX
8
Halfen
62
7
10
 1408.397
20
 80.639
30
0
0
VERTEX
8
Halfen
62
7
10
 1408.296
20
 80.522
30
0
0
VERTEX
8
Halfen
62
7
10
 1407.41
20
 79.491
30
0
0
VERTEX
8
Halfen
62
7
10
 1406.479
20
 78.5
30
0
0
VERTEX
8
Halfen
62
7
10
 1405.505
20
 77.551
30
0
0
VERTEX
8
Halfen
62
7
10
 1404.491
20
 76.646
30
0
0
VERTEX
8
Halfen
62
7
10
 1403.437
20
 75.787
30
0
0
VERTEX
8
Halfen
62
7
10
 1402.347
20
 74.975
30
0
0
VERTEX
8
Halfen
62
7
10
 1401.222
20
 74.211
30
0
0
VERTEX
8
Halfen
62
7
10
 1400.064
20
 73.499
30
0
0
VERTEX
8
Halfen
62
7
10
 1398.876
20
 72.838
30
0
0
VERTEX
8
Halfen
62
7
10
 1397.66
20
 72.23
30
0
0
VERTEX
8
Halfen
62
7
10
 1396.418
20
 71.676
30
0
0
VERTEX
8
Halfen
62
7
10
 1395.153
20
 71.178
30
0
0
VERTEX
8
Halfen
62
7
10
 1393.867
20
 70.736
30
0
0
VERTEX
8
Halfen
62
7
10
 1392.563
20
 70.351
30
0
0
VERTEX
8
Halfen
62
7
10
 1391.243
20
 70.024
30
0
0
VERTEX
8
Halfen
62
7
10
 1389.911
20
 69.756
30
0
0
VERTEX
8
Halfen
62
7
10
 1388.567
20
 69.547
30
0
0
VERTEX
8
Halfen
62
7
10
 1387.216
20
 69.397
30
0
0
VERTEX
8
Halfen
62
7
10
 1385.859
20
 69.307
30
0
0
VERTEX
8
Halfen
62
7
10
 1384.5
20
 69.277
30
0
0
VERTEX
8
Halfen
62
7
10
 1362.5
20
 69.277
30
0
0
VERTEX
8
Halfen
62
7
10
 1361.141
20
 69.307
30
0
0
VERTEX
8
Halfen
62
7
10
 1359.784
20
 69.397
30
0
0
VERTEX
8
Halfen
62
7
10
 1358.433
20
 69.547
30
0
0
VERTEX
8
Halfen
62
7
10
 1357.089
20
 69.756
30
0
0
VERTEX
8
Halfen
62
7
10
 1355.757
20
 70.024
30
0
0
VERTEX
8
Halfen
62
7
10
 1354.437
20
 70.351
30
0
0
VERTEX
8
Halfen
62
7
10
 1353.133
20
 70.736
30
0
0
VERTEX
8
Halfen
62
7
10
 1351.847
20
 71.178
30
0
0
VERTEX
8
Halfen
62
7
10
 1350.582
20
 71.676
30
0
0
VERTEX
8
Halfen
62
7
10
 1349.34
20
 72.23
30
0
0
VERTEX
8
Halfen
62
7
10
 1348.124
20
 72.838
30
0
0
VERTEX
8
Halfen
62
7
10
 1346.936
20
 73.499
30
0
0
VERTEX
8
Halfen
62
7
10
 1345.778
20
 74.211
30
0
0
VERTEX
8
Halfen
62
7
10
 1344.653
20
 74.975
30
0
0
VERTEX
8
Halfen
62
7
10
 1343.563
20
 75.787
30
0
0
VERTEX
8
Halfen
62
7
10
 1342.509
20
 76.646
30
0
0
VERTEX
8
Halfen
62
7
10
 1341.495
20
 77.551
30
0
0
VERTEX
8
Halfen
62
7
10
 1340.521
20
 78.5
30
0
0
VERTEX
8
Halfen
62
7
10
 1339.59
20
 79.491
30
0
0
VERTEX
8
Halfen
62
7
10
 1338.704
20
 80.522
30
0
0
VERTEX
8
Halfen
62
7
10
 1338.603
20
 80.639
30
0
0
VERTEX
8
Halfen
62
7
10
 1338.498
20
 80.752
30
0
0
VERTEX
8
Halfen
62
7
10
 1338.387
20
 80.86
30
0
0
VERTEX
8
Halfen
62
7
10
 1338.272
20
 80.963
30
0
0
VERTEX
8
Halfen
62
7
10
 1338.152
20
 81.06
30
0
0
VERTEX
8
Halfen
62
7
10
 1338.028
20
 81.153
30
0
0
VERTEX
8
Halfen
62
7
10
 1337.9
20
 81.239
30
0
0
VERTEX
8
Halfen
62
7
10
 1337.769
20
 81.32
30
0
0
VERTEX
8
Halfen
62
7
10
 1337.634
20
 81.395
30
0
0
VERTEX
8
Halfen
62
7
10
 1337.495
20
 81.464
30
0
0
VERTEX
8
Halfen
62
7
10
 1337.354
20
 81.527
30
0
0
VERTEX
8
Halfen
62
7
10
 1337.211
20
 81.584
30
0
0
VERTEX
8
Halfen
62
7
10
 1337.064
20
 81.634
30
0
0
VERTEX
8
Halfen
62
7
10
 1336.916
20
 81.678
30
0
0
VERTEX
8
Halfen
62
7
10
 1336.766
20
 81.715
30
0
0
VERTEX
8
Halfen
62
7
10
 1336.615
20
 81.746
30
0
0
VERTEX
8
Halfen
62
7
10
 1336.462
20
 81.769
30
0
0
VERTEX
8
Halfen
62
7
10
 1336.309
20
 81.786
30
0
0
VERTEX
8
Halfen
62
7
10
 1336.154
20
 81.797
30
0
0
VERTEX
8
Halfen
62
7
10
 1336
20
 81.8
30
0
0
VERTEX
8
Halfen
62
7
10
 1332
20
 81.8
30
0
0
VERTEX
8
Halfen
62
7
10
 1332
20
-81.8
30
0
0
VERTEX
8
Halfen
62
7
10
 1336
20
-81.8
30
0
0
VERTEX
8
Halfen
62
7
10
 1336.154
20
-81.797
30
0
0
VERTEX
8
Halfen
62
7
10
 1336.309
20
-81.786
30
0
0
VERTEX
8
Halfen
62
7
10
 1336.462
20
-81.769
30
0
0
VERTEX
8
Halfen
62
7
10
 1336.615
20
-81.746
30
0
0
VERTEX
8
Halfen
62
7
10
 1336.766
20
-81.715
30
0
0
VERTEX
8
Halfen
62
7
10
 1336.916
20
-81.678
30
0
0
VERTEX
8
Halfen
62
7
10
 1337.064
20
-81.634
30
0
0
VERTEX
8
Halfen
62
7
10
 1337.211
20
-81.584
30
0
0
VERTEX
8
Halfen
62
7
10
 1337.354
20
-81.527
30
0
0
VERTEX
8
Halfen
62
7
10
 1337.495
20
-81.464
30
0
0
VERTEX
8
Halfen
62
7
10
 1337.634
20
-81.395
30
0
0
VERTEX
8
Halfen
62
7
10
 1337.769
20
-81.32
30
0
0
VERTEX
8
Halfen
62
7
10
 1337.9
20
-81.239
30
0
0
VERTEX
8
Halfen
62
7
10
 1338.028
20
-81.153
30
0
0
VERTEX
8
Halfen
62
7
10
 1338.152
20
-81.06
30
0
0
VERTEX
8
Halfen
62
7
10
 1338.272
20
-80.963
30
0
0
VERTEX
8
Halfen
62
7
10
 1338.387
20
-80.86
30
0
0
VERTEX
8
Halfen
62
7
10
 1338.498
20
-80.752
30
0
0
VERTEX
8
Halfen
62
7
10
 1338.603
20
-80.639
30
0
0
VERTEX
8
Halfen
62
7
10
 1338.704
20
-80.522
30
0
0
VERTEX
8
Halfen
62
7
10
 1339.59
20
-79.491
30
0
0
VERTEX
8
Halfen
62
7
10
 1340.521
20
-78.5
30
0
0
VERTEX
8
Halfen
62
7
10
 1341.495
20
-77.551
30
0
0
VERTEX
8
Halfen
62
7
10
 1342.509
20
-76.646
30
0
0
VERTEX
8
Halfen
62
7
10
 1343.563
20
-75.787
30
0
0
VERTEX
8
Halfen
62
7
10
 1344.653
20
-74.975
30
0
0
VERTEX
8
Halfen
62
7
10
 1345.778
20
-74.211
30
0
0
VERTEX
8
Halfen
62
7
10
 1346.936
20
-73.499
30
0
0
VERTEX
8
Halfen
62
7
10
 1348.124
20
-72.838
30
0
0
VERTEX
8
Halfen
62
7
10
 1349.34
20
-72.23
30
0
0
VERTEX
8
Halfen
62
7
10
 1350.582
20
-71.676
30
0
0
VERTEX
8
Halfen
62
7
10
 1351.847
20
-71.178
30
0
0
VERTEX
8
Halfen
62
7
10
 1353.133
20
-70.736
30
0
0
VERTEX
8
Halfen
62
7
10
 1354.437
20
-70.351
30
0
0
VERTEX
8
Halfen
62
7
10
 1355.757
20
-70.024
30
0
0
VERTEX
8
Halfen
62
7
10
 1357.089
20
-69.756
30
0
0
VERTEX
8
Halfen
62
7
10
 1358.433
20
-69.547
30
0
0
VERTEX
8
Halfen
62
7
10
 1359.784
20
-69.397
30
0
0
VERTEX
8
Halfen
62
7
10
 1361.141
20
-69.307
30
0
0
VERTEX
8
Halfen
62
7
10
 1362.5
20
-69.277
30
0
0
VERTEX
8
Halfen
62
7
10
 1384.5
20
-69.277
30
0
0
VERTEX
8
Halfen
62
7
10
 1385.859
20
-69.307
30
0
0
VERTEX
8
Halfen
62
7
10
 1387.216
20
-69.397
30
0
0
VERTEX
8
Halfen
62
7
10
 1388.567
20
-69.547
30
0
0
VERTEX
8
Halfen
62
7
10
 1389.911
20
-69.756
30
0
0
VERTEX
8
Halfen
62
7
10
 1391.243
20
-70.024
30
0
0
VERTEX
8
Halfen
62
7
10
 1392.563
20
-70.351
30
0
0
VERTEX
8
Halfen
62
7
10
 1393.867
20
-70.736
30
0
0
VERTEX
8
Halfen
62
7
10
 1395.153
20
-71.178
30
0
0
VERTEX
8
Halfen
62
7
10
 1396.418
20
-71.676
30
0
0
VERTEX
8
Halfen
62
7
10
 1397.66
20
-72.23
30
0
0
VERTEX
8
Halfen
62
7
10
 1398.876
20
-72.838
30
0
0
VERTEX
8
Halfen
62
7
10
 1400.064
20
-73.499
30
0
0
VERTEX
8
Halfen
62
7
10
 1401.222
20
-74.211
30
0
0
VERTEX
8
Halfen
62
7
10
 1402.347
20
-74.975
30
0
0
VERTEX
8
Halfen
62
7
10
 1403.437
20
-75.787
30
0
0
VERTEX
8
Halfen
62
7
10
 1404.491
20
-76.646
30
0
0
VERTEX
8
Halfen
62
7
10
 1405.505
20
-77.551
30
0
0
VERTEX
8
Halfen
62
7
10
 1406.479
20
-78.5
30
0
0
VERTEX
8
Halfen
62
7
10
 1407.41
20
-79.491
30
0
0
VERTEX
8
Halfen
62
7
10
 1408.296
20
-80.522
30
0
0
VERTEX
8
Halfen
62
7
10
 1408.397
20
-80.639
30
0
0
VERTEX
8
Halfen
62
7
10
 1408.502
20
-80.752
30
0
0
VERTEX
8
Halfen
62
7
10
 1408.613
20
-80.86
30
0
0
VERTEX
8
Halfen
62
7
10
 1408.728
20
-80.963
30
0
0
VERTEX
8
Halfen
62
7
10
 1408.848
20
-81.06
30
0
0
VERTEX
8
Halfen
62
7
10
 1408.972
20
-81.153
30
0
0
VERTEX
8
Halfen
62
7
10
 1409.1
20
-81.239
30
0
0
VERTEX
8
Halfen
62
7
10
 1409.231
20
-81.32
30
0
0
VERTEX
8
Halfen
62
7
10
 1409.366
20
-81.395
30
0
0
VERTEX
8
Halfen
62
7
10
 1409.505
20
-81.464
30
0
0
VERTEX
8
Halfen
62
7
10
 1409.646
20
-81.527
30
0
0
VERTEX
8
Halfen
62
7
10
 1409.789
20
-81.584
30
0
0
VERTEX
8
Halfen
62
7
10
 1409.936
20
-81.634
30
0
0
VERTEX
8
Halfen
62
7
10
 1410.084
20
-81.678
30
0
0
VERTEX
8
Halfen
62
7
10
 1410.234
20
-81.715
30
0
0
VERTEX
8
Halfen
62
7
10
 1410.385
20
-81.746
30
0
0
VERTEX
8
Halfen
62
7
10
 1410.538
20
-81.769
30
0
0
VERTEX
8
Halfen
62
7
10
 1410.691
20
-81.786
30
0
0
VERTEX
8
Halfen
62
7
10
 1410.846
20
-81.797
30
0
0
VERTEX
8
Halfen
62
7
10
 1411
20
-81.8
30
0
0
SEQEND
8
Halfen
0
POLYLINE
8
Halfen
62
7
66
1
10
0.0
20
0.0
30
0.0
70
1
0
VERTEX
8
Halfen
62
7
10
 1400
20
-575.304
30
0
0
VERTEX
8
Halfen
62
7
10
 1400
20
-87.304
30
0
0
VERTEX
8
Halfen
62
7
10
 1399.573
20
-82.091
30
0
0
VERTEX
8
Halfen
62
7
10
 1398.302
20
-77.018
30
0
0
VERTEX
8
Halfen
62
7
10
 1396.221
20
-72.219
30
0
0
VERTEX
8
Halfen
62
7
10
 1393.387
20
-67.824
30
0
0
VERTEX
8
Halfen
62
7
10
 1277.96
20
 82.605
30
0
0
VERTEX
8
Halfen
62
7
10
 1275.834
20
 85.902
30
0
0
VERTEX
8
Halfen
62
7
10
 1274.274
20
 89.501
30
0
0
VERTEX
8
Halfen
62
7
10
 1273.321
20
 93.306
30
0
0
VERTEX
8
Halfen
62
7
10
 1273
20
 97.215
30
0
0
VERTEX
8
Halfen
62
7
10
 1273
20
 585.215
30
0
0
VERTEX
8
Halfen
62
7
10
 1265
20
 585.215
30
0
0
VERTEX
8
Halfen
62
7
10
 1265
20
 97.215
30
0
0
VERTEX
8
Halfen
62
7
10
 1265.427
20
 92.002
30
0
0
VERTEX
8
Halfen
62
7
10
 1266.698
20
 86.929
30
0
0
VERTEX
8
Halfen
62
7
10
 1268.779
20
 82.13
30
0
0
VERTEX
8
Halfen
62
7
10
 1271.613
20
 77.735
30
0
0
VERTEX
8
Halfen
62
7
10
 1387.04
20
-72.694
30
0
0
VERTEX
8
Halfen
62
7
10
 1389.166
20
-75.99
30
0
0
VERTEX
8
Halfen
62
7
10
 1390.726
20
-79.589
30
0
0
VERTEX
8
Halfen
62
7
10
 1391.679
20
-83.394
30
0
0
VERTEX
8
Halfen
62
7
10
 1392
20
-87.304
30
0
0
VERTEX
8
Halfen
62
7
10
 1392
20
-575.304
30
0
0
SEQEND
8
Halfen
0
POLYLINE
8
Halfen
62
7
66
1
10
0.0
20
0.0
30
0.0
70
1
0
VERTEX
8
Halfen
62
7
10
 1265
20
-575.304
30
0
0
VERTEX
8
Halfen
62
7
10
 1265
20
-87.304
30
0
0
VERTEX
8
Halfen
62
7
10
 1265.427
20
-82.091
30
0
0
VERTEX
8
Halfen
62
7
10
 1266.698
20
-77.018
30
0
0
VERTEX
8
Halfen
62
7
10
 1268.779
20
-72.219
30
0
0
VERTEX
8
Halfen
62
7
10
 1271.613
20
-67.824
30
0
0
VERTEX
8
Halfen
62
7
10
 1387.04
20
 82.605
30
0
0
VERTEX
8
Halfen
62
7
10
 1389.166
20
 85.902
30
0
0
VERTEX
8
Halfen
62
7
10
 1390.726
20
 89.501
30
0
0
VERTEX
8
Halfen
62
7
10
 1391.679
20
 93.306
30
0
0
VERTEX
8
Halfen
62
7
10
 1392
20
 97.215
30
0
0
VERTEX
8
Halfen
62
7
10
 1392
20
 585.215
30
0
0
VERTEX
8
Halfen
62
7
10
 1400
20
 585.215
30
0
0
VERTEX
8
Halfen
62
7
10
 1400
20
 97.215
30
0
0
VERTEX
8
Halfen
62
7
10
 1399.573
20
 92.002
30
0
0
VERTEX
8
Halfen
62
7
10
 1398.302
20
 86.929
30
0
0
VERTEX
8
Halfen
62
7
10
 1396.221
20
 82.13
30
0
0
VERTEX
8
Halfen
62
7
10
 1393.387
20
 77.735
30
0
0
VERTEX
8
Halfen
62
7
10
 1277.96
20
-72.694
30
0
0
VERTEX
8
Halfen
62
7
10
 1275.834
20
-75.99
30
0
0
VERTEX
8
Halfen
62
7
10
 1274.274
20
-79.589
30
0
0
VERTEX
8
Halfen
62
7
10
 1273.321
20
-83.394
30
0
0
VERTEX
8
Halfen
62
7
10
 1273
20
-87.304
30
0
0
VERTEX
8
Halfen
62
7
10
 1273
20
-575.304
30
0
0
SEQEND
8
Halfen
0
ENDSEC
0
EOF
