  0
SECTION
  2
HEADER
  9
$ACADVER
  1
AC1032
  9
$ACADMAINTVER
 90
4
  9
$DWGCODEPAGE
  3
ANSI_1252
  9
$LASTSAVEDBY
  1
ezdxf
  9
$REQUIREDVERSIONS
160
0
  9
$INSBASE
 10
0.0
 20
0.0
 30
0.0
  9
$EXTMIN
 10
1e+20
 20
1e+20
 30
1e+20
  9
$EXTMAX
 10
-1e+20
 20
-1e+20
 30
-1e+20
  9
$LIMMIN
 10
0.0
 20
0.0
  9
$LIMMAX
 10
420.0
 20
297.0
  9
$ORTHOMODE
 70
0
  9
$REGENMODE
 70
1
  9
$FILLMODE
 70
1
  9
$QTEXTMODE
 70
0
  9
$MIRRTEXT
 70
1
  9
$LTSCALE
 40
1.0
  9
$ATTMODE
 70
1
  9
$TEXTSIZE
 40
2.5
  9
$TRACEWID
 40
1.0
  9
$TEXTSTYLE
  7
Standard
  9
$CLAYER
  8
0
  9
$CELTYPE
  6
ByLayer
  9
$CECOLOR
 62
256
  9
$CELTSCALE
 40
1.0
  9
$DISPSILH
 70
0
  9
$DIMSCALE
 40
1.0
  9
$DIMASZ
 40
2.5
  9
$DIMEXO
 40
0.625
  9
$DIMDLI
 40
3.75
  9
$DIMRND
 40
0.0
  9
$DIMDLE
 40
0.0
  9
$DIMEXE
 40
1.25
  9
$DIMTP
 40
0.0
  9
$DIMTM
 40
0.0
  9
$DIMTXT
 40
2.5
  9
$DIMCEN
 40
2.5
  9
$DIMTSZ
 40
0.0
  9
$DIMTOL
 70
0
  9
$DIMLIM
 70
0
  9
$DIMTIH
 70
0
  9
$DIMTOH
 70
0
  9
$DIMSE1
 70
0
  9
$DIMSE2
 70
0
  9
$DIMTAD
 70
1
  9
$DIMZIN
 70
8
  9
$DIMBLK
  1

  9
$DIMASO
 70
1
  9
$DIMSHO
 70
1
  9
$DIMPOST
  1

  9
$DIMAPOST
  1

  9
$DIMALT
 70
0
  9
$DIMALTD
 70
3
  9
$DIMALTF
 40
0.03937007874
  9
$DIMLFAC
 40
1.0
  9
$DIMTOFL
 70
1
  9
$DIMTVP
 40
0.0
  9
$DIMTIX
 70
0
  9
$DIMSOXD
 70
0
  9
$DIMSAH
 70
0
  9
$DIMBLK1
  1

  9
$DIMBLK2
  1

  9
$DIMSTYLE
  2
ISO-25
  9
$DIMCLRD
 70
0
  9
$DIMCLRE
 70
0
  9
$DIMCLRT
 70
0
  9
$DIMTFAC
 40
1.0
  9
$DIMGAP
 40
0.625
  9
$DIMJUST
 70
0
  9
$DIMSD1
 70
0
  9
$DIMSD2
 70
0
  9
$DIMTOLJ
 70
0
  9
$DIMTZIN
 70
8
  9
$DIMALTZ
 70
0
  9
$DIMALTTZ
 70
0
  9
$DIMUPT
 70
0
  9
$DIMDEC
 70
2
  9
$DIMTDEC
 70
2
  9
$DIMALTU
 70
2
  9
$DIMALTTD
 70
3
  9
$DIMTXSTY
  7
Standard
  9
$DIMAUNIT
 70
0
  9
$DIMADEC
 70
0
  9
$DIMALTRND
 40
0.0
  9
$DIMAZIN
 70
0
  9
$DIMDSEP
 70
44
  9
$DIMATFIT
 70
3
  9
$DIMFRAC
 70
0
  9
$DIMLDRBLK
  1

  9
$DIMLUNIT
 70
2
  9
$DIMLWD
 70
-2
  9
$DIMLWE
 70
-2
  9
$DIMTMOVE
 70
0
  9
$DIMFXL
 40
1.0
  9
$DIMFXLON
 70
0
  9
$DIMJOGANG
 40
0.785398163397
  9
$DIMTFILL
 70
0
  9
$DIMTFILLCLR
 70
0
  9
$DIMARCSYM
 70
0
  9
$DIMLTYPE
  6

  9
$DIMLTEX1
  6

  9
$DIMLTEX2
  6

  9
$DIMTXTDIRECTION
 70
0
  9
$LUNITS
 70
2
  9
$LUPREC
 70
4
  9
$SKETCHINC
 40
1.0
  9
$FILLETRAD
 40
10.0
  9
$AUNITS
 70
0
  9
$AUPREC
 70
2
  9
$MENU
  1
.
  9
$ELEVATION
 40
0.0
  9
$PELEVATION
 40
0.0
  9
$THICKNESS
 40
0.0
  9
$LIMCHECK
 70
0
  9
$CHAMFERA
 40
0.0
  9
$CHAMFERB
 40
0.0
  9
$CHAMFERC
 40
0.0
  9
$CHAMFERD
 40
0.0
  9
$SKPOLY
 70
0
  9
$TDCREATE
 40
2461085.2459027776
  9
$TDUCREATE
 40
2458532.153996898
  9
$TDUPDATE
 40
2461085.2459027776
  9
$TDUUPDATE
 40
2458532.1544311
  9
$TDINDWG
 40
0.0
  9
$TDUSRTIMER
 40
0.0
  9
$USRTIMER
 70
1
  9
$ANGBASE
 50
0.0
  9
$ANGDIR
 70
0
  9
$PDMODE
 70
0
  9
$PDSIZE
 40
0.0
  9
$PLINEWID
 40
0.0
  9
$SPLFRAME
 70
0
  9
$SPLINETYPE
 70
6
  9
$SPLINESEGS
 70
8
  9
$HANDSEED
  5
C8
  9
$SURFTAB1
 70
6
  9
$SURFTAB2
 70
6
  9
$SURFTYPE
 70
6
  9
$SURFU
 70
6
  9
$SURFV
 70
6
  9
$UCSBASE
  2

  9
$UCSNAME
  2

  9
$UCSORG
 10
0.0
 20
0.0
 30
0.0
  9
$UCSXDIR
 10
1.0
 20
0.0
 30
0.0
  9
$UCSYDIR
 10
0.0
 20
1.0
 30
0.0
  9
$UCSORTHOREF
  2

  9
$UCSORTHOVIEW
 70
0
  9
$UCSORGTOP
 10
0.0
 20
0.0
 30
0.0
  9
$UCSORGBOTTOM
 10
0.0
 20
0.0
 30
0.0
  9
$UCSORGLEFT
 10
0.0
 20
0.0
 30
0.0
  9
$UCSORGRIGHT
 10
0.0
 20
0.0
 30
0.0
  9
$UCSORGFRONT
 10
0.0
 20
0.0
 30
0.0
  9
$UCSORGBACK
 10
0.0
 20
0.0
 30
0.0
  9
$PUCSBASE
  2

  9
$PUCSNAME
  2

  9
$PUCSORG
 10
0.0
 20
0.0
 30
0.0
  9
$PUCSXDIR
 10
1.0
 20
0.0
 30
0.0
  9
$PUCSYDIR
 10
0.0
 20
1.0
 30
0.0
  9
$PUCSORTHOREF
  2

  9
$PUCSORTHOVIEW
 70
0
  9
$PUCSORGTOP
 10
0.0
 20
0.0
 30
0.0
  9
$PUCSORGBOTTOM
 10
0.0
 20
0.0
 30
0.0
  9
$PUCSORGLEFT
 10
0.0
 20
0.0
 30
0.0
  9
$PUCSORGRIGHT
 10
0.0
 20
0.0
 30
0.0
  9
$PUCSORGFRONT
 10
0.0
 20
0.0
 30
0.0
  9
$PUCSORGBACK
 10
0.0
 20
0.0
 30
0.0
  9
$USERI1
 70
0
  9
$USERI2
 70
0
  9
$USERI3
 70
0
  9
$USERI4
 70
0
  9
$USERI5
 70
0
  9
$USERR1
 40
0.0
  9
$USERR2
 40
0.0
  9
$USERR3
 40
0.0
  9
$USERR4
 40
0.0
  9
$USERR5
 40
0.0
  9
$WORLDVIEW
 70
1
  9
$SHADEDGE
 70
3
  9
$SHADEDIF
 70
70
  9
$TILEMODE
 70
1
  9
$MAXACTVP
 70
64
  9
$PINSBASE
 10
0.0
 20
0.0
 30
0.0
  9
$PLIMCHECK
 70
0
  9
$PEXTMIN
 10
1e+20
 20
1e+20
 30
1e+20
  9
$PEXTMAX
 10
-1e+20
 20
-1e+20
 30
-1e+20
  9
$PLIMMIN
 10
0.0
 20
0.0
  9
$PLIMMAX
 10
420.0
 20
297.0
  9
$UNITMODE
 70
0
  9
$VISRETAIN
 70
1
  9
$PLINEGEN
 70
0
  9
$PSLTSCALE
 70
1
  9
$TREEDEPTH
 70
3020
  9
$CMLSTYLE
  2
Standard
  9
$CMLJUST
 70
0
  9
$CMLSCALE
 40
20.0
  9
$PROXYGRAPHICS
 70
1
  9
$MEASUREMENT
 70
1
  9
$CELWEIGHT
370
-1
  9
$ENDCAPS
280
0
  9
$JOINSTYLE
280
0
  9
$LWDISPLAY
290
0
  9
$INSUNITS
 70
6
  9
$HYPERLINKBASE
  1

  9
$STYLESHEET
  1

  9
$XEDIT
290
1
  9
$CEPSNTYPE
380
0
  9
$PSTYLEMODE
290
1
  9
$FINGERPRINTGUID
  2
{3390400D-2CF8-4576-9B6C-0D0B2FDEB955}
  9
$VERSIONGUID
  2
{5C5D4B14-B4E6-440C-BD3D-19F9CABF31A6}
  9
$EXTNAMES
290
1
  9
$PSVPSCALE
 40
0.0
  9
$OLESTARTUP
290
0
  9
$SORTENTS
280
127
  9
$INDEXCTL
280
0
  9
$HIDETEXT
280
1
  9
$XCLIPFRAME
280
1
  9
$HALOGAP
280
0
  9
$OBSCOLOR
 70
257
  9
$OBSLTYPE
280
0
  9
$INTERSECTIONDISPLAY
280
0
  9
$INTERSECTIONCOLOR
 70
257
  9
$DIMASSOC
280
2
  9
$PROJECTNAME
  1

  9
$CAMERADISPLAY
290
0
  9
$LENSLENGTH
 40
50.0
  9
$CAMERAHEIGHT
 40
0.0
  9
$STEPSPERSEC
 40
24.0
  9
$STEPSIZE
 40
100.0
  9
$3DDWFPREC
 40
2.0
  9
$PSOLWIDTH
 40
0.005
  9
$PSOLHEIGHT
 40
0.08
  9
$LOFTANG1
 40
1.570796326795
  9
$LOFTANG2
 40
1.570796326795
  9
$LOFTMAG1
 40
0.0
  9
$LOFTMAG2
 40
0.0
  9
$LOFTPARAM
 70
7
  9
$LOFTNORMALS
280
1
  9
$LATITUDE
 40
37.795
  9
$LONGITUDE
 40
-122.394
  9
$NORTHDIRECTION
 40
0.0
  9
$TIMEZONE
 70
-8000
  9
$LIGHTGLYPHDISPLAY
280
1
  9
$TILEMODELIGHTSYNCH
280
1
  9
$CMATERIAL
347
20
  9
$SOLIDHIST
280
0
  9
$SHOWHIST
280
1
  9
$DWFFRAME
280
2
  9
$DGNFRAME
280
2
  9
$REALWORLDSCALE
290
1
  9
$INTERFERECOLOR
 62
256
  9
$CSHADOW
280
0
  9
$SHADOWPLANELOCATION
 40
0.0
  0
ENDSEC
  0
SECTION
  2
CLASSES
  0
CLASS
  1
ACDBDICTIONARYWDFLT
  2
AcDbDictionaryWithDefault
  3
ObjectDBX Classes
 90
0
 91
0
280
0
281
0
  0
CLASS
  1
SUN
  2
AcDbSun
  3
SCENEOE
 90
1153
 91
0
280
0
281
0
  0
CLASS
  1
VISUALSTYLE
  2
AcDbVisualStyle
  3
ObjectDBX Classes
 90
4095
 91
0
280
0
281
0
  0
CLASS
  1
MATERIAL
  2
AcDbMaterial
  3
ObjectDBX Classes
 90
1153
 91
0
280
0
281
0
  0
CLASS
  1
SCALE
  2
AcDbScale
  3
ObjectDBX Classes
 90
1153
 91
0
280
0
281
0
  0
CLASS
  1
TABLESTYLE
  2
AcDbTableStyle
  3
ObjectDBX Classes
 90
4095
 91
0
280
0
281
0
  0
CLASS
  1
MLEADERSTYLE
  2
AcDbMLeaderStyle
  3
ACDB_MLEADERSTYLE_CLASS
 90
4095
 91
0
280
0
281
0
  0
CLASS
  1
DICTIONARYVAR
  2
AcDbDictionaryVar
  3
ObjectDBX Classes
 90
0
 91
0
280
0
281
0
  0
CLASS
  1
CELLSTYLEMAP
  2
AcDbCellStyleMap
  3
ObjectDBX Classes
 90
1152
 91
0
280
0
281
0
  0
CLASS
  1
MENTALRAYRENDERSETTINGS
  2
AcDbMentalRayRenderSettings
  3
SCENEOE
 90
1024
 91
0
280
0
281
0
  0
CLASS
  1
ACDBDETAILVIEWSTYLE
  2
AcDbDetailViewStyle
  3
ObjectDBX Classes
 90
1025
 91
0
280
0
281
0
  0
CLASS
  1
ACDBSECTIONVIEWSTYLE
  2
AcDbSectionViewStyle
  3
ObjectDBX Classes
 90
1025
 91
0
280
0
281
0
  0
CLASS
  1
RASTERVARIABLES
  2
AcDbRasterVariables
  3
ISM
 90
0
 91
0
280
0
281
0
  0
CLASS
  1
LAYOUT
  2
AcDbLayout
  3
ObjectDBX Classes
 90
0
 91
0
280
0
281
0
  0
CLASS
  1
ACDBPLACEHOLDER
  2
AcDbPlaceHolder
  3
ObjectDBX Classes
 90
0
 91
0
280
0
281
0
  0
ENDSEC
  0
SECTION
  2
TABLES
  0
TABLE
  2
VPORT
  5
8
330
0
100
AcDbSymbolTable
 70
1
  0
VPORT
  5
23
330
8
100
AcDbSymbolTableRecord
100
AcDbViewportTableRecord
  2
*Active
 70
0
 10
0.0
 20
0.0
 11
1.0
 21
1.0
 12
0.0
 22
0.0
 13
0.0
 23
0.0
 14
0.5
 24
0.5
 15
0.5
 25
0.5
 16
0.0
 26
0.0
 36
1.0
 17
0.0
 27
0.0
 37
0.0
 40
1000.0
 41
1.34
 42
50.0
 43
0.0
 44
0.0
 50
0.0
 51
0.0
 71
0
 72
1000
 73
1
 74
3
 75
0
 76
0
 77
0
 78
0
281
0
 65
0
146
0.0
  0
ENDTAB
  0
TABLE
  2
LTYPE
  5
2
330
0
100
AcDbSymbolTable
 70
3
  0
LTYPE
  5
24
330
2
100
AcDbSymbolTableRecord
100
AcDbLinetypeTableRecord
  2
ByBlock
 70
0
  3

 72
65
 73
0
 40
0.0
  0
LTYPE
  5
25
330
2
100
AcDbSymbolTableRecord
100
AcDbLinetypeTableRecord
  2
ByLayer
 70
0
  3

 72
65
 73
0
 40
0.0
  0
LTYPE
  5
26
330
2
100
AcDbSymbolTableRecord
100
AcDbLinetypeTableRecord
  2
Continuous
 70
0
  3

 72
65
 73
0
 40
0.0
  0
ENDTAB
  0
TABLE
  2
LAYER
  5
1
330
0
100
AcDbSymbolTable
 70
4
  0
LAYER
  5
27
330
1
100
AcDbSymbolTableRecord
100
AcDbLayerTableRecord
  2
0
 70
0
 62
7
  6
Continuous
370
-3
390
13
347
21
  0
LAYER
  5
28
330
1
100
AcDbSymbolTableRecord
100
AcDbLayerTableRecord
  2
Defpoints
 70
0
 62
7
  6
Continuous
290
0
370
-3
390
13
347
21
  0
LAYER
  5
C1
330
1
100
AcDbSymbolTableRecord
100
AcDbLayerTableRecord
  2
A-DETL-GENF
 70
0
 62
92
  6
Continuous
370
18
390
13
347
21
348
0
  0
LAYER
  5
C2
330
1
100
AcDbSymbolTableRecord
100
AcDbLayerTableRecord
  2
STANDARD
 70
0
 62
250
  6
Continuous
370
25
390
13
347
21
348
0
  0
ENDTAB
  0
TABLE
  2
STYLE
  5
5
330
0
100
AcDbSymbolTable
 70
1
  0
STYLE
  5
29
330
5
100
AcDbSymbolTableRecord
100
AcDbTextStyleTableRecord
  2
Standard
 70
0
 40
0.0
 41
1.0
 50
0.0
 71
0
 42
2.5
  3
txt
  4

  0
ENDTAB
  0
TABLE
  2
VIEW
  5
7
330
0
100
AcDbSymbolTable
 70
0
  0
ENDTAB
  0
TABLE
  2
UCS
  5
6
330
0
100
AcDbSymbolTable
 70
0
  0
ENDTAB
  0
TABLE
  2
APPID
  5
3
330
0
100
AcDbSymbolTable
 70
3
  0
APPID
  5
2A
330
3
100
AcDbSymbolTableRecord
100
AcDbRegAppTableRecord
  2
ACAD
 70
0
  0
APPID
  5
C5
330
3
100
AcDbSymbolTableRecord
100
AcDbRegAppTableRecord
  2
HATCHBACKGROUNDCOLOR
 70
0
  0
APPID
  5
C6
330
3
100
AcDbSymbolTableRecord
100
AcDbRegAppTableRecord
  2
EZDXF
 70
0
  0
ENDTAB
  0
TABLE
  2
DIMSTYLE
  5
4
330
0
100
AcDbSymbolTable
 70
1
100
AcDbDimStyleTable
  0
DIMSTYLE
105
2B
330
4
100
AcDbSymbolTableRecord
100
AcDbDimStyleTableRecord
  2
Standard
 70
0
 40
1.0
 41
2.5
 42
0.625
 43
3.75
 44
1.25
 45
0.0
 46
0.0
 47
0.0
 48
0.0
 49
2.5
140
2.5
141
2.5
142
0.0
143
0.03937007874
144
1.0
145
0.0
146
1.0
147
0.625
148
0.0
 69
0
 70
0
 71
0
 72
0
 73
0
 74
0
 75
0
 76
0
 77
1
 78
8
 79
3
170
0
171
3
172
1
173
0
174
0
175
0
176
0
177
0
178
0
179
2
271
2
272
2
273
2
274
3
275
0
276
0
277
2
278
44
279
0
280
0
281
0
282
0
283
0
284
8
285
0
286
0
288
0
289
3
290
0
371
-2
372
-2
  0
ENDTAB
  0
TABLE
  2
BLOCK_RECORD
  5
9
330
0
100
AcDbSymbolTable
 70
4
  0
BLOCK_RECORD
  5
17
330
9
100
AcDbSymbolTableRecord
100
AcDbBlockTableRecord
  2
*Model_Space
340
1A
 70
0
280
1
281
0
  0
BLOCK_RECORD
  5
1B
330
9
100
AcDbSymbolTableRecord
100
AcDbBlockTableRecord
  2
*Paper_Space
340
1E
 70
0
280
1
281
0
  0
BLOCK_RECORD
  5
2F
330
9
100
AcDbSymbolTableRecord
100
AcDbBlockTableRecord
  2
00 stalendeurprofiel - 00_DI_stalendeurprofiel-3717858-00_0 Basismaterialen
340
0
 70
0
280
1
281
0
  0
BLOCK_RECORD
  5
A4
330
9
100
AcDbSymbolTableRecord
100
AcDbBlockTableRecord
  2
00 stalendeurprofiel - schroefje_dwg-4337371-00_0 Basismaterialen
340
0
 70
0
280
1
281
0
  0
ENDTAB
  0
ENDSEC
  0
SECTION
  2
BLOCKS
  0
BLOCK
  5
18
330
17
100
AcDbEntity
  8
0
100
AcDbBlockBegin
  2
*Model_Space
 70
0
 10
0.0
 20
0.0
 30
0.0
  3
*Model_Space
  1

  0
ENDBLK
  5
19
330
17
100
AcDbEntity
  8
0
100
AcDbBlockEnd
  0
BLOCK
  5
1C
330
1B
100
AcDbEntity
  8
0
100
AcDbBlockBegin
  2
*Paper_Space
 70
0
 10
0.0
 20
0.0
 30
0.0
  3
*Paper_Space
  1

  0
ENDBLK
  5
1D
330
1B
100
AcDbEntity
  8
0
100
AcDbBlockEnd
  0
BLOCK
  5
30
330
2F
100
AcDbEntity
  8
0
100
AcDbBlockBegin
  2
00 stalendeurprofiel - 00_DI_stalendeurprofiel-3717858-00_0 Basismaterialen
 70
0
 10
0.0
 20
0.0
 30
0.0
  3
00 stalendeurprofiel - 00_DI_stalendeurprofiel-3717858-00_0 Basismaterialen
  1

  0
HATCH
  5
32
330
2F
100
AcDbEntity
  8
A-DETL-GENF
370
13
100
AcDbHatch
 10
0.0
 20
0.0
 30
0.0
210
0.0
220
0.0
230
1.0
  2
FP_695
 70
0
 71
0
 91
1
 92
1
 93
177
 72
1
 10
-9.756228139507696
 20
-11.58981872092591
 11
-9.396333197308445
 21
-11.53571847339925
 72
1
 10
-9.396333197308445
 20
-11.53571847339925
 11
-9.10425452918995
 21
-11.31859809703761
 72
1
 10
-9.10425452918995
 20
-11.31859809703761
 11
-8.948737740894172
 21
-10.98956050836132
 72
1
 10
-8.948737740894172
 20
-10.98956050836132
 11
-8.14961198478302
 21
-1.499999999999658
 72
1
 10
-8.14961198478302
 20
-1.499999999999658
 11
4.129409522529693
 21
-1.517037086856424
 72
1
 10
4.129409522529693
 20
-1.517037086856424
 11
4.35355339057479
 21
-1.646446609406518
 72
1
 10
4.35355339057479
 20
-1.646446609406518
 11
4.48296291312705
 21
-1.870590477449451
 72
1
 10
4.48296291312705
 20
-1.870590477449451
 11
4.499999999981651
 21
-2.000000000001711
 72
1
 10
4.499999999981651
 20
-2.000000000001711
 11
4.499999999981651
 21
-6.500000000000687
 72
1
 10
4.499999999981651
 20
-6.500000000000688
 11
4.670370868536315
 21
-7.794095225514621
 72
1
 10
4.670370868536315
 20
-7.794095225514621
 11
5.169872981056767
 21
-9.000000000000119
 72
1
 10
5.169872981056767
 20
-9.000000000000119
 11
5.964466094045917
 21
-10.03553390593312
 72
1
 10
5.964466094045917
 20
-10.03553390593312
 11
6.999999999981082
 21
-10.83012701892227
 72
1
 10
6.999999999981082
 20
-10.83012701892227
 11
8.20590477446658
 21
-11.32962913144705
 72
1
 10
8.20590477446658
 20
-11.32962913144705
 11
9.499999999980515
 21
-11.50000000000171
 72
1
 10
9.499999999980515
 20
-11.50000000000171
 11
37.49999999998281
 21
-11.50000000000171
 72
1
 10
37.49999999998281
 20
-11.50000000000171
 11
38.01763809018752
 21
-11.43185165257898
 72
1
 10
38.01763809018752
 20
-11.43185165257898
 11
38.49999999998259
 21
-11.2320508075695
 72
1
 10
38.49999999998259
 20
-11.2320508075695
 11
38.91421356235492
 21
-10.91421356237427
 72
1
 10
38.91421356235492
 20
-10.91421356237427
 11
39.23205080754798
 21
-10.49999999999978
 72
1
 10
39.23205080754798
 20
-10.49999999999978
 11
39.43185165255962
 21
-10.01763809020688
 72
1
 10
39.43185165255962
 20
-10.01763809020688
 11
39.49999999997802
 21
-9.500000000000005
 72
1
 10
39.49999999997802
 20
-9.500000000000005
 11
39.49999999997802
 21
40.49999999999945
 72
1
 10
39.49999999997802
 20
40.49999999999945
 11
39.60222252111429
 21
41.27645713530651
 72
1
 10
39.60222252111429
 20
41.27645713530651
 11
39.98665979741544
 21
42.11043011664379
 72
1
 10
39.98665979741544
 20
42.11043011664379
 11
40.29537839714244
 21
42.51276002887517
 72
1
 10
40.29537839714244
 20
42.51276002887517
 11
40.55909084638644
 21
42.78458162703222
 72
1
 10
40.55909084638644
 20
42.78458162703222
 11
41.03498003971702
 21
43.1179603732703
 72
1
 10
41.03498003971702
 20
43.1179603732703
 11
41.72354286467244
 21
43.39777747886684
 72
1
 10
41.72354286467244
 20
43.39777747886684
 11
42.49999999998167
 21
43.50000000000093
 72
1
 10
42.49999999998167
 20
43.50000000000093
 11
47.05721680026794
 21
43.50000000000093
 72
1
 10
47.05721680026794
 20
43.50000000000093
 11
47.76118900167366
 21
43.41623441095708
 72
1
 10
47.76118900167366
 20
43.41623441095708
 11
48.52318676715499
 21
43.10413652799897
 72
1
 10
48.52318676715499
 20
43.10413652799897
 11
49.01407903410472
 21
42.77391516943661
 72
1
 10
49.01407903410472
 20
42.77391516943661
 11
49.49303081741621
 21
42.25123101670556
 72
1
 10
49.49303081741621
 20
42.25123101670556
 11
49.83595767010029
 21
41.63075159886228
 72
1
 10
49.83595767010029
 20
41.63075159886228
 11
50.02370927894598
 21
40.94712679852849
 72
1
 10
50.02370927894598
 20
40.94712679852849
 11
50.04580089454382
 21
40.23853277175599
 72
1
 10
50.04580089454382
 20
40.23853277175599
 11
49.50040382516792
 21
35.95149247904911
 72
1
 10
49.50040382516792
 20
35.95149247904911
 11
49.5958791088845
 21
35.31394753831239
 72
1
 10
49.5958791088845
 20
35.31394753831239
 11
49.85120088781881
 21
34.72201015103452
 72
1
 10
49.85120088781881
 20
34.72201015103452
 11
50.24939337114795
 21
34.21503694910405
 72
1
 10
50.24939337114795
 20
34.21503694910405
 11
50.76398160506187
 21
33.82673548017044
 72
1
 10
50.76398160506187
 20
33.82673548017044
 11
51.36075173496217
 21
33.58292306597506
 72
1
 10
51.36075173496217
 20
33.58292306597506
 11
52.17102070653241
 21
33.49981026466382
 72
1
 10
52.17102070653241
 20
33.49981026466382
 11
62.00033679510503
 21
33.49981026466382
 72
1
 10
62.00033679510503
 20
33.49981026466382
 11
62.64747525860358
 21
33.58500765966773
 72
1
 10
62.64747525860358
 20
33.58500765966773
 11
63.25051230526046
 21
33.83479378300762
 72
1
 10
63.25051230526046
 20
33.83479378300762
 11
63.7683519569091
 21
34.2321461231663
 72
1
 10
63.7683519569091
 20
34.2321461231663
 11
64.16570429706995
 21
34.7499857748171
 72
1
 10
64.16570429706995
 20
34.7499857748171
 11
64.41549042040766
 21
35.35302282147398
 72
1
 10
64.41549042040766
 20
35.35302282147398
 11
64.50068781541158
 21
36.00016128497037
 72
1
 10
64.50068781541158
 20
36.00016128497037
 11
64.50068781541158
 21
86.51146163267472
 72
1
 10
64.50068781541158
 20
86.51146163267472
 11
64.43249283685849
 21
87.02945392147087
 72
1
 10
64.43249283685849
 20
87.02945392147087
 11
64.23255527629831
 21
87.51214589180914
 72
1
 10
64.23255527629831
 20
87.51214589180914
 11
63.91450054806667
 21
87.92664288359651
 72
1
 10
63.91450054806667
 20
87.92664288359651
 11
63.50000355627715
 21
88.24469761183248
 72
1
 10
63.50000355627715
 20
88.24469761183248
 11
63.01731158593888
 21
88.44463517239265
 72
1
 10
63.01731158593888
 20
88.44463517239265
 11
62.49931929713839
 21
88.51283015094359
 72
1
 10
62.49931929713839
 20
88.51283015094359
 11
39.49999999997802
 21
88.51283015094359
 72
1
 10
39.49999999997802
 20
88.51283015094359
 11
39.49999999997802
 21
131.5000000000004
 72
1
 10
39.49999999997802
 20
131.5000000000004
 11
39.43185165255962
 21
132.0176380902051
 72
1
 10
39.43185165255962
 20
132.0176380902051
 11
39.23205080754798
 21
132.499999999998
 72
1
 10
39.23205080754798
 20
132.499999999998
 11
38.91421356235492
 21
132.9142135623725
 72
1
 10
38.91421356235492
 20
132.9142135623725
 11
38.49999999998259
 21
133.2320508075677
 72
1
 10
38.49999999998259
 20
133.2320508075677
 11
38.01763809018752
 21
133.4318516525772
 72
1
 10
38.01763809018752
 20
133.4318516525772
 11
37.49999999998281
 21
133.4999999999999
 72
1
 10
37.49999999998281
 20
133.4999999999999
 11
9.499999999980515
 21
133.4999999999999
 72
1
 10
9.499999999980515
 20
133.4999999999999
 11
8.20590477446658
 21
133.3296291314453
 72
1
 10
8.20590477446658
 20
133.3296291314453
 11
6.999999999981082
 21
132.8301270189227
 72
1
 10
6.999999999981082
 20
132.8301270189227
 11
5.964466094045917
 21
132.0355339059313
 72
1
 10
5.964466094045917
 20
132.0355339059313
 11
5.169872981056767
 21
131.0000000000005
 72
1
 10
5.169872981056767
 20
131.0000000000005
 11
4.670370868536315
 21
129.7940952255129
 72
1
 10
4.670370868536315
 20
129.7940952255129
 11
4.499999999981651
 21
128.5000000000011
 72
1
 10
4.499999999981651
 20
128.5000000000011
 11
4.48296291312705
 21
123.8705904774477
 72
1
 10
4.48296291312705
 20
123.8705904774477
 11
4.35355339057479
 21
123.6464466094048
 72
1
 10
4.35355339057479
 20
123.6464466094048
 11
4.129409522529693
 21
123.5170370868547
 72
1
 10
4.129409522529693
 20
123.5170370868547
 11
3.999999999981764
 21
123.5000000000001
 72
1
 10
3.999999999981764
 20
123.5000000000001
 11
-8.149611984783022
 21
123.5000000000001
 72
1
 10
-8.14961198478302
 20
123.5000000000001
 11
-9.00623972417202
 21
133.1636533211968
 72
1
 10
-9.00623972417202
 20
133.1636533211968
 11
-9.236927367436193
 21
133.4451394086858
 72
1
 10
-9.236927367436193
 20
133.4451394086858
 11
-9.572950116276889
 21
133.5849246670731
 72
1
 10
-9.572950116276889
 20
133.5849246670731
 11
-9.935219389657368
 21
133.5501082949297
 72
1
 10
-9.935219389657368
 20
133.5501082949297
 11
-10.23846904744272
 21
133.3488849084797
 72
1
 10
-10.23846904744272
 20
133.3488849084797
 11
-10.41132420439601
 21
133.0286158014517
 72
1
 10
-10.41132420439601
 20
133.0286158014517
 11
-10.4346170873646
 21
132.8467580901355
 72
1
 10
-10.4346170873646
 20
132.8467580901355
 11
-9.679867062586538
 21
123.8012063797489
 72
1
 10
-9.679867062586538
 20
123.8012063797489
 11
-9.572023863752703
 21
123.3242093173662
 72
1
 10
-9.572023863752703
 20
123.3242093173662
 11
-9.35162734421117
 21
122.8876526460933
 72
1
 10
-9.35162734421117
 20
122.8876526460933
 11
-9.031859174447494
 21
122.5176463344407
 72
1
 10
-9.031859174447494
 20
122.5176463344407
 11
-8.631844332705361
 21
122.2363200479973
 72
1
 10
-8.631844332705361
 20
122.2363200479973
 11
-8.1755072613537
 21
122.0604995987646
 72
1
 10
-8.1755072613537
 20
122.0604995987646
 11
-7.690140972607605
 21
122.000700612079
 72
1
 10
-7.690140972607605
 20
122.000700612079
 11
3.998686704817397
 21
122.000700612079
 72
1
 10
3.998686704817396
 20
122.000700612079
 11
4.515977303324155
 21
122.0688032113499
 72
1
 10
4.515977303324155
 20
122.0688032113499
 11
4.998015402408623
 21
122.2684699295715
 72
1
 10
4.998015402408623
 20
122.2684699295715
 11
5.411950902213527
 21
122.5860938098566
 72
1
 10
5.411950902213527
 20
122.5860938098566
 11
5.729574782503038
 21
123.0000293096659
 72
1
 10
5.729574782503038
 20
123.0000293096659
 11
5.929241500720286
 21
123.482067408746
 72
1
 10
5.929241500720286
 20
123.482067408746
 11
5.997344099995518
 21
123.9993580072528
 72
1
 10
5.997344099995518
 20
123.9993580072528
 11
5.997344099995518
 21
128.5052898177244
 72
1
 10
5.997344099995518
 20
128.5052898177244
 11
6.116784203826966
 21
129.4125274776319
 72
1
 10
6.116784203826966
 20
129.4125274776319
 11
6.466964869629964
 21
130.2579383902967
 72
1
 10
6.466964869629964
 20
130.2579383902967
 11
7.024021863734424
 21
130.98390919913
 72
1
 10
7.024021863734424
 20
130.98390919913
 11
7.749992672565565
 21
131.5409661932323
 72
1
 10
7.749992672565565
 20
131.5409661932323
 11
8.595403585228153
 21
131.8911468590353
 72
1
 10
8.595403585228153
 20
131.8911468590353
 11
9.50264124513561
 21
132.0105869628667
 72
1
 10
9.50264124513561
 20
132.0105869628667
 11
37.65605721971036
 21
131.9928285168274
 72
1
 10
37.65605721971036
 20
131.9928285168274
 11
37.88969145658806
 21
131.8579397272734
 72
1
 10
37.88969145658806
 20
131.8579397272734
 11
38.02458024614208
 21
131.6243054903935
 72
1
 10
38.02458024614208
 20
131.6243054903935
 11
38.04233869218141
 21
131.4894167008395
 72
1
 10
38.04233869218141
 20
131.4894167008395
 11
38.04233869218141
 21
88.51283015094359
 72
1
 10
38.04233869218141
 20
88.51283015094359
 11
38.19869187002519
 21
88.10059916632623
 72
1
 10
38.19869187002519
 20
88.10059916632623
 11
38.44112199353816
 21
87.73234879481409
 72
1
 10
38.44112199353816
 20
87.73234879481409
 11
38.7579758774406
 21
87.42578017743847
 72
1
 10
38.7579758774406
 20
87.42578017743847
 11
39.13402291854107
 21
87.19562952290724
 72
1
 10
39.13402291854107
 20
87.19562952290724
 11
39.55118720375919
 21
87.05295976423592
 72
1
 10
39.55118720375919
 20
87.05295976423592
 11
39.98941638715153
 21
87.00462878321876
 72
1
 10
39.98941638715153
 20
87.00462878321876
 11
62.63006225637421
 21
86.98768498190002
 72
1
 10
62.63006225637421
 20
86.98768498190002
 11
62.85297883822472
 21
86.85898403336068
 72
1
 10
62.85297883822472
 20
86.85898403336068
 11
62.98167978676621
 21
86.63606745150801
 72
1
 10
62.98167978676621
 20
86.63606745150801
 11
62.9986235880828
 21
86.50736650297083
 72
1
 10
62.9986235880828
 20
86.50736650297083
 11
62.96457337907646
 21
35.74104153801626
 72
1
 10
62.96457337907646
 20
35.74104153801626
 11
62.86474321753804
 21
35.50003020809735
 72
1
 10
62.86474321753804
 20
35.50003020809735
 11
62.70593636399702
 21
35.2930690871826
 72
1
 10
62.70593636399702
 20
35.2930690871826
 11
62.49897524308011
 21
35.13426223363942
 72
1
 10
62.49897524308011
 20
35.13426223363942
 11
62.2579639131612
 21
35.03443207210099
 72
1
 10
62.2579639131612
 20
35.03443207210099
 11
61.99932689807742
 21
35.00038186309683
 72
1
 10
61.99932689807742
 20
35.00038186309683
 11
51.76946306987652
 21
35.02731149933926
 72
1
 10
51.76946306987652
 20
35.02731149933926
 11
51.35748492575691
 21
35.2341226798658
 72
1
 10
51.35748492575691
 20
35.2341226798658
 11
51.08207855026762
 21
35.60378223129064
 72
1
 10
51.08207855026762
 20
35.60378223129064
 11
51.00178835103717
 21
36.05770991223653
 72
1
 10
51.00178835103717
 20
36.05770991223653
 11
51.04193135550374
 21
36.28626616003082
 72
1
 10
51.04193135550374
 20
36.28626616003082
 11
51.54164091151141
 21
40.12591392634032
 72
1
 10
51.54164091151141
 20
40.12591392634032
 11
51.5046062347474
 21
41.18609563334329
 72
1
 10
51.5046062347474
 20
41.18609563334329
 11
51.22041600107193
 21
42.20814882678586
 72
1
 10
51.22041600107193
 20
42.20814882678586
 11
50.70486356442476
 21
43.1352747644103
 72
1
 10
50.70486356442476
 20
43.1352747644103
 11
49.98659981124353
 21
43.91595011307384
 72
1
 10
49.98659981124353
 20
43.91595011307384
 11
49.10554093967381
 21
44.50679026403042
 72
1
 10
49.10554093967381
 20
44.50679026403042
 11
48.1106501896826
 21
44.87496035342823
 72
1
 10
48.1106501896826
 20
44.87496035342823
 11
47.05721680026794
 21
45.00000000000059
 72
1
 10
47.05721680026794
 20
45.00000000000059
 11
42.49999999998167
 21
45.00000000000059
 72
1
 10
42.49999999998167
 20
45.00000000000059
 11
41.33531429701999
 21
44.84666621830053
 72
1
 10
41.33531429701999
 20
44.84666621830053
 11
40.24999999997785
 21
44.39711431703083
 72
1
 10
40.24999999997785
 20
44.39711431703083
 11
39.31801948464444
 21
43.68198051533886
 72
1
 10
39.31801948464444
 20
43.68198051533886
 11
38.60288568294814
 21
42.74999999999894
 72
1
 10
38.60288568294814
 20
42.74999999999894
 11
38.15333378168276
 21
41.66468570296113
 72
1
 10
38.15333378168276
 20
41.66468570296113
 11
37.99999999997837
 21
40.49999999999945
 72
1
 10
37.99999999997837
 20
40.49999999999945
 11
37.9829629131281
 21
-9.629409522550098
 72
1
 10
37.9829629131281
 20
-9.629409522550098
 11
37.85355339057584
 21
-9.853553390593033
 72
1
 10
37.85355339057584
 20
-9.853553390593033
 11
37.62940952253075
 21
-9.982962913145291
 72
1
 10
37.62940952253075
 20
-9.982962913145291
 11
37.49999999998281
 21
-10.00000000000206
 72
1
 10
37.49999999998281
 20
-10.00000000000206
 11
9.499999999980515
 21
-10.00000000000206
 72
1
 10
9.499999999980515
 20
-10.00000000000206
 11
8.59413334212336
 21
-9.880740392011194
 72
1
 10
8.59413334212336
 20
-9.880740392011194
 11
7.749999999980912
 21
-9.531088913247311
 72
1
 10
7.749999999980912
 20
-9.531088913247311
 11
7.025126265829328
 21
-8.97487373415404
 72
1
 10
7.025126265829328
 20
-8.97487373415404
 11
6.468911086736056
 21
-8.25000000000029
 72
1
 10
6.468911086736056
 20
-8.25000000000029
 11
6.119259607967842
 21
-7.405866657860008
 72
1
 10
6.119259607967842
 20
-7.405866657860008
 11
5.99999999998131
 21
-6.500000000000688
 72
1
 10
5.99999999998131
 20
-6.500000000000688
 11
5.99999999998131
 21
-2.000000000001711
 72
1
 10
5.99999999998131
 20
-2.000000000001711
 11
5.931851652558577
 21
-1.482361909794838
 72
1
 10
5.931851652558577
 20
-1.482361909794838
 11
5.732050807551263
 21
-0.9999999999997726
 72
1
 10
5.732050807551263
 20
-0.9999999999997726
 11
5.414213562353871
 21
-0.5857864376274393
 72
1
 10
5.414213562353871
 20
-0.5857864376274393
 11
4.999999999981537
 21
-0.2679491924300464
 72
1
 10
4.999999999981537
 20
-0.2679491924300464
 11
4.517638090186472
 21
-0.0681483474227321
 72
1
 10
4.517638090186472
 20
-0.0681483474227321
 11
3.999999999981764
 21
0.0
 72
1
 10
3.999999999981764
 20
0.0
 11
-7.690024875793471
 21
0.0
 72
1
 10
-7.690024875793472
 20
0.0
 11
-8.175502183109689
 21
-0.0598165591675354
 72
1
 10
-8.175502183109689
 20
-0.0598165591675354
 11
-8.631939908351422
 21
-0.2356882159219936
 72
1
 10
-8.631939908351422
 20
-0.2356882159219936
 11
-9.032035517315046
 21
-0.5170949328953443
 72
1
 10
-9.032035517315046
 20
-0.5170949328953443
 11
-9.351856667340599
 21
-0.8872039285582674
 72
1
 10
-9.351856667340599
 20
-0.8872039285582674
 11
-9.572272757674034
 21
-1.323876556268908
 72
1
 10
-9.572272757674034
 20
-1.323876556268908
 11
-9.680099256214806
 21
-1.800992561957412
 72
1
 10
-9.680099256214806
 20
-1.800992561957412
 11
-10.41132420439601
 21
-11.02861580145351
 72
1
 10
-10.41132420439601
 20
-11.02861580145351
 11
-10.23846904744272
 21
-11.34888490848144
 72
1
 10
-10.23846904744272
 20
-11.34888490848144
 11
-9.935219389657368
 21
-11.55010829493143
 72
1
 10
-9.935219389657368
 20
-11.55010829493143
 11
-9.756228139507696
 21
-11.58981872092591
 97
0
 75
0
 76
2
 52
0.0
 41
1.0
 77
0
 78
17
 53
50.0
 43
13179.317
 44
484.963
 45
36.43649882390161
 46
-3.187713201625367
 79
2
 49
3.81
 49
-41.90999999999999
 53
355.0
 43
13179.317
 44
484.963
 45
-7.048450637260456
 46
38.21172008185581
 79
2
 49
3.048
 49
-33.528
 53
100.451
 43
13182.353
 44
484.698
 45
29.38857289101913
 46
35.02294419989923
 79
2
 49
3.237999999999999
 49
-35.618
 53
46.184
 43
13179.317
 44
495.123
 45
54.21605576489391
 46
-8.408366208599219
 79
2
 49
5.714999999999999
 49
-62.865
 53
96.636
 43
13183.834
 44
494.423
 45
47.48050142084204
 46
49.48544265564791
 79
2
 49
4.857
 49
-53.427
 53
351.184
 43
13179.317
 44
495.123
 45
47.48105749519273
 46
49.48459764551189
 79
2
 49
4.572
 49
-50.292
 53
21.0
 43
13184.397
 44
492.583
 45
30.32264590381153
 46
-20.45280194477181
 79
2
 49
3.81
 49
-41.90999999999999
 53
326.0
 43
13184.397
 44
492.583
 45
12.36069566969662
 46
36.8378801040606
 79
2
 49
3.048
 49
-33.528
 53
71.45100000000001
 43
13186.923
 44
490.879
 45
42.68328529264973
 46
16.38389433639848
 79
2
 49
3.237999999999999
 49
-35.618
 53
37.5
 43
13179.317
 44
484.963
 45
0.6180667407672545
 46
16.91081956925676
 79
5
 49
1.675999999999999
 49
-31.445
 49
1.675999999999999
 49
-32.36
 49
-33.655
 53
37.5
 43
13179.317
 44
484.963
 45
0.6180667407672545
 46
16.91081956925676
 79
3
 49
-67.158
 49
1.675999999999999
 49
-31.979
 53
7.499999999999999
 43
13179.317
 44
484.963
 45
13.36413812266816
 46
20.03577892766457
 79
5
 49
1.675999999999999
 49
-17.729
 49
1.675999999999999
 49
-30.68300000000001
 49
-12.827
 53
7.499999999999999
 43
13179.317
 44
484.963
 45
13.36413812266816
 46
20.03577892766457
 79
3
 49
-51.765
 49
1.675999999999999
 49
-11.151
 53
327.5
 43
13167.988
 44
484.963
 45
27.11815875975744
 46
-1.14605867240335
 79
5
 49
1.675999999999999
 49
-11.024
 49
1.675999999999999
 49
-37.948
 49
-52.578
 53
327.5
 43
13167.988
 44
484.963
 45
27.11815875975744
 46
-1.14605867240335
 79
3
 49
-52.324
 49
1.675999999999999
 49
-50.902
 53
317.5
 43
13162.908
 44
484.963
 45
29.62578963244251
 46
5.085069680374331
 79
5
 49
1.675999999999999
 49
-14.834
 49
1.675999999999999
 49
-24.638
 49
-37.338
 53
317.5
 43
13162.908
 44
484.963
 45
29.62578963244251
 46
5.085069680374331
 79
3
 49
-42.82399999999999
 49
1.675999999999999
 49
-35.662
 98
1
 10
0.0
 20
0.0
  0
LINE
  5
33
330
2F
100
AcDbEntity
  8
A-DETL-GENF
100
AcDbLine
 10
62.99862358809911
 20
86.5073665029712
 30
0.0
 11
62.99862358809911
 21
35.99967855309849
 31
0.0
  0
ARC
  5
34
330
2F
100
AcDbEntity
  8
A-DETL-GENF
100
AcDbCircle
 10
61.9993268980985
 20
35.99967855309849
 30
0.0
 40
0.9992966900006265
100
AcDbArc
 50
270.0000000000001
 51
4.074e-13
  0
LINE
  5
35
330
2F
100
AcDbEntity
  8
A-DETL-GENF
100
AcDbLine
 10
61.9993268980985
 20
35.00038186309787
 30
0.0
 11
51.99994997604268
 21
35.00038186309787
 31
0.0
  0
ARC
  5
36
330
2F
100
AcDbEntity
  8
A-DETL-GENF
100
AcDbCircle
 10
51.99994997604269
 20
36.00019891837121
 30
0.0
 40
0.9998170552733469
100
AcDbArc
 50
163.3742167732453
 51
269.9999999999997
  0
LINE
  5
37
330
2F
100
AcDbEntity
  8
A-DETL-GENF
100
AcDbLine
 10
51.04193135552204
 20
36.28626616003155
 30
0.0
 11
51.54164091153106
 21
40.1259139263402
 31
0.0
  0
ARC
  5
38
330
2F
100
AcDbEntity
  8
A-DETL-GENF
100
AcDbCircle
 10
47.05721680028847
 20
40.50000000000001
 30
0.0
 40
4.500000000000004
100
AcDbArc
 50
355.2314851410293
 51
89.99999999999973
  0
LINE
  5
39
330
2F
100
AcDbEntity
  8
A-DETL-GENF
100
AcDbLine
 10
47.0572168002885
 20
45.0
 30
0.0
 11
42.50000000000009
 21
45.00000000000001
 31
0.0
  0
ARC
  5
3A
330
2F
100
AcDbEntity
  8
A-DETL-GENF
100
AcDbCircle
 10
42.50000000000007
 20
40.49999999999991
 30
0.0
 40
4.500000000000088
100
AcDbArc
 50
89.99999999999969
 51
180.0
  0
LINE
  5
3B
330
2F
100
AcDbEntity
  8
A-DETL-GENF
100
AcDbLine
 10
38.00000000000001
 20
40.49999999999991
 30
0.0
 11
38.00000000000001
 21
-9.499999999999583
 31
0.0
  0
ARC
  5
3C
330
2F
100
AcDbEntity
  8
A-DETL-GENF
100
AcDbCircle
 10
37.50000000000001
 20
-9.499999999999583
 30
0.0
 40
0.4999999999999787
100
AcDbArc
 50
270.0000000000005
 51
0.0
  0
LINE
  5
3D
330
2F
100
AcDbEntity
  8
A-DETL-GENF
100
AcDbLine
 10
37.50000000000002
 20
-9.999999999999975
 30
0.0
 11
9.500000000000192
 21
-9.999999999999975
 31
0.0
  0
ARC
  5
3E
330
2F
100
AcDbEntity
  8
A-DETL-GENF
100
AcDbCircle
 10
9.5000000000002
 20
-6.499999999999943
 30
0.0
 40
3.500000000000074
100
AcDbArc
 50
180.0000000000002
 51
269.9999999999995
  0
LINE
  5
3F
330
2F
100
AcDbEntity
  8
A-DETL-GENF
100
AcDbLine
 10
6.000000000000125
 20
-6.49999999999996
 30
0.0
 11
6.000000000000125
 21
-1.999999999999646
 31
0.0
  0
ARC
  5
40
330
2F
100
AcDbEntity
  8
A-DETL-GENF
100
AcDbCircle
 10
4.000000000000249
 20
-1.999999999999646
 30
0.0
 40
1.999999999999879
100
AcDbArc
 50
359.9999999999996
 51
90.00000000000028
  0
LINE
  5
41
330
2F
100
AcDbEntity
  8
A-DETL-GENF
100
AcDbLine
 10
4.000000000000241
 20
2.03e-13
 30
0.0
 11
-7.690024875775663
 21
2.03e-13
 31
0.0
  0
ARC
  5
42
330
2F
100
AcDbEntity
  8
A-DETL-GENF
100
AcDbCircle
 10
-7.69002487577568
 20
-1.999999999999765
 30
0.0
 40
1.999999999999989
100
AcDbArc
 50
89.99999999999946
 51
174.2894068624809
  0
LINE
  5
43
330
2F
100
AcDbEntity
  8
A-DETL-GENF
100
AcDbLine
 10
-9.680099256195584
 20
-1.800992561957073
 30
0.0
 11
-10.43461708734517
 21
-10.84675809013639
 31
0.0
  0
ARC
  5
44
330
2F
100
AcDbEntity
  8
A-DETL-GENF
100
AcDbCircle
 10
-9.684463424566054
 20
-10.84309671835852
 30
0.0
 40
0.750162597990742
100
AcDbArc
 50
180.2796486835908
 51
348.7410967297382
  0
LINE
  5
45
330
2F
100
AcDbEntity
  8
A-DETL-GENF
100
AcDbLine
 10
-8.9487377408755
 20
-10.98956050836228
 30
0.0
 11
-8.149611984761286
 21
-1.499999999999726
 31
0.0
  0
LINE
  5
46
330
2F
100
AcDbEntity
  8
A-DETL-GENF
100
AcDbLine
 10
-8.149611984761286
 20
-1.499999999999726
 30
0.0
 11
4.000000000000241
 21
-1.499999999999726
 31
0.0
  0
ARC
  5
47
330
2F
100
AcDbEntity
  8
A-DETL-GENF
100
AcDbCircle
 10
4.000000000000232
 20
-1.999999999999663
 30
0.0
 40
0.4999999999998991
100
AcDbArc
 50
1.8765e-12
 51
90.00000000000006
  0
LINE
  5
48
330
2F
100
AcDbEntity
  8
A-DETL-GENF
100
AcDbLine
 10
4.499999999999967
 20
-1.999999999999646
 30
0.0
 11
4.499999999999967
 21
-6.49999999999996
 31
0.0
  0
ARC
  5
49
330
2F
100
AcDbEntity
  8
A-DETL-GENF
100
AcDbCircle
 10
9.50000000000021
 20
-6.499999999999943
 30
0.0
 40
5.000000000000242
100
AcDbArc
 50
179.9999999999997
 51
269.9999999999991
  0
LINE
  5
4A
330
2F
100
AcDbEntity
  8
A-DETL-GENF
100
AcDbLine
 10
9.500000000000192
 20
-11.50000000000001
 30
0.0
 11
37.50000000000002
 21
-11.50000000000001
 31
0.0
  0
ARC
  5
4B
330
2F
100
AcDbEntity
  8
A-DETL-GENF
100
AcDbCircle
 10
37.50000000000002
 20
-9.4999999999996
 30
0.0
 40
1.999999999999969
100
AcDbArc
 50
269.9999999999995
 51
5.979e-13
  0
LINE
  5
4C
330
2F
100
AcDbEntity
  8
A-DETL-GENF
100
AcDbLine
 10
39.50000000000001
 20
-9.499999999999583
 30
0.0
 11
39.50000000000001
 21
30.66178904584225
 31
0.0
  0
LINE
  5
4D
330
2F
100
AcDbEntity
  8
A-DETL-GENF
100
AcDbLine
 10
39.50000000000001
 20
31.45481576964568
 30
0.0
 11
39.50000000000001
 21
35.46045358299247
 31
0.0
  0
LINE
  5
4E
330
2F
100
AcDbEntity
  8
A-DETL-GENF
100
AcDbLine
 10
39.50000000000001
 20
36.2790133840079
 30
0.0
 11
39.50000000000001
 21
40.49999999999991
 31
0.0
  0
ARC
  5
4F
330
2F
100
AcDbEntity
  8
A-DETL-GENF
100
AcDbCircle
 10
42.50000000000008
 20
40.49999999999992
 30
0.0
 40
3.000000000000083
100
AcDbArc
 50
150.0000000000003
 51
180.0000000000006
  0
ARC
  5
50
330
2F
100
AcDbEntity
  8
A-DETL-GENF
100
AcDbCircle
 10
42.50000000000008
 20
40.49999999999992
 30
0.0
 40
3.000000000000084
100
AcDbArc
 50
131.105884462606
 51
135.0000000000004
  0
ARC
  5
51
330
2F
100
AcDbEntity
  8
A-DETL-GENF
100
AcDbCircle
 10
42.50000000000008
 20
40.49999999999992
 30
0.0
 40
3.000000000000089
100
AcDbArc
 50
90.00000000000014
 51
107.7801283173266
  0
LINE
  5
52
330
2F
100
AcDbEntity
  8
A-DETL-GENF
100
AcDbLine
 10
42.50000000000009
 20
43.5
 30
0.0
 11
47.05721680028849
 21
43.49999999999999
 31
0.0
  0
ARC
  5
53
330
2F
100
AcDbEntity
  8
A-DETL-GENF
100
AcDbCircle
 10
47.05721680028847
 20
40.5
 30
0.0
 40
3.000000000000015
100
AcDbArc
 50
355.0000000000024
 51
89.99999999999991
  0
LINE
  5
54
330
2F
100
AcDbEntity
  8
A-DETL-GENF
100
AcDbLine
 10
50.04580089456373
 20
40.23853277175716
 30
0.0
 11
49.57112298105371
 21
36.59225599412359
 31
0.0
  0
ARC
  5
55
330
2F
100
AcDbEntity
  8
A-DETL-GENF
100
AcDbCircle
 10
52.00002581040934
 20
35.99990095288646
 30
0.0
 40
2.500090688221278
100
AcDbArc
 50
166.2943811846721
 51
269.9999999999993
  0
LINE
  5
56
330
2F
100
AcDbEntity
  8
A-DETL-GENF
100
AcDbLine
 10
52.00002581040932
 20
33.49981026466518
 30
0.0
 11
52.17102070655197
 21
33.49981026466518
 31
0.0
  0
LINE
  5
57
330
2F
100
AcDbEntity
  8
A-DETL-GENF
100
AcDbLine
 10
52.45284561992399
 20
33.49981026466518
 30
0.0
 11
62.0003367951244
 21
33.49981026466518
 31
0.0
  0
ARC
  5
58
330
2F
100
AcDbEntity
  8
A-DETL-GENF
100
AcDbCircle
 10
62.0003367951244
 20
36.00016128497152
 30
0.0
 40
2.500351020306339
100
AcDbArc
 50
269.9999999999998
 51
359.9999999999993
  0
LINE
  5
59
330
2F
100
AcDbEntity
  8
A-DETL-GENF
100
AcDbLine
 10
64.50068781543072
 20
36.00016128497151
 30
0.0
 11
64.50068781543072
 21
86.51146163267464
 31
0.0
  0
ARC
  5
5A
330
2F
100
AcDbEntity
  8
A-DETL-GENF
100
AcDbCircle
 10
62.49931929716026
 20
86.51146163267465
 30
0.0
 40
2.001368518270467
100
AcDbArc
 50
359.9999999999988
 51
90.0
  0
LINE
  5
5B
330
2F
100
AcDbEntity
  8
A-DETL-GENF
100
AcDbLine
 10
62.49931929716023
 20
88.51283015094513
 30
0.0
 11
39.50000000000012
 21
88.51283015094513
 31
0.0
  0
LINE
  5
5C
330
2F
100
AcDbEntity
  8
A-DETL-GENF
100
AcDbLine
 10
39.50000000000012
 20
88.51283015094513
 30
0.0
 11
39.50000000000012
 21
131.4999999999999
 31
0.0
  0
ARC
  5
5D
330
2F
100
AcDbEntity
  8
A-DETL-GENF
100
AcDbCircle
 10
37.50000000000002
 20
131.4999999999999
 30
0.0
 40
1.999999999999975
100
AcDbArc
 50
359.9999999999996
 51
90.0000000000003
  0
LINE
  5
5E
330
2F
100
AcDbEntity
  8
A-DETL-GENF
100
AcDbLine
 10
37.50000000000002
 20
133.5000000000004
 30
0.0
 11
9.5000000000002
 21
133.5000000000004
 31
0.0
  0
ARC
  5
5F
330
2F
100
AcDbEntity
  8
A-DETL-GENF
100
AcDbCircle
 10
9.5000000000002
 20
128.5000000000003
 30
0.0
 40
5.000000000000219
100
AcDbArc
 50
90.0
 51
180.0
  0
LINE
  5
60
330
2F
100
AcDbEntity
  8
A-DETL-GENF
100
AcDbLine
 10
4.499999999999967
 20
128.5000000000003
 30
0.0
 11
4.499999999999967
 21
124.0
 31
0.0
  0
ARC
  5
61
330
2F
100
AcDbEntity
  8
A-DETL-GENF
100
AcDbCircle
 10
4.000000000000249
 20
124.0
 30
0.0
 40
0.4999999999998818
100
AcDbArc
 50
269.9999999999987
 51
4.53e-14
  0
LINE
  5
62
330
2F
100
AcDbEntity
  8
A-DETL-GENF
100
AcDbLine
 10
4.000000000000241
 20
123.5000000000001
 30
0.0
 11
-8.149611984761286
 21
123.5000000000001
 31
0.0
  0
LINE
  5
63
330
2F
100
AcDbEntity
  8
A-DETL-GENF
100
AcDbLine
 10
-8.149611984761286
 20
123.5000000000001
 30
0.0
 11
-8.9487377408755
 21
132.9895605083627
 31
0.0
  0
ARC
  5
64
330
2F
100
AcDbEntity
  8
A-DETL-GENF
100
AcDbCircle
 10
-9.684463424566063
 20
132.8430967183588
 30
0.0
 40
0.7501625979907395
100
AcDbArc
 50
11.25890327026239
 51
179.7203513164088
  0
LINE
  5
65
330
2F
100
AcDbEntity
  8
A-DETL-GENF
100
AcDbLine
 10
-10.43461708734517
 20
132.8467580901367
 30
0.0
 11
-9.679867062569771
 21
123.8012063797496
 31
0.0
  0
ARC
  5
66
330
2F
100
AcDbEntity
  8
A-DETL-GENF
100
AcDbCircle
 10
-7.690140972588612
 20
124.000369555624
 30
0.0
 40
1.999668943544429
100
AcDbArc
 50
185.7160262820461
 51
269.9999999999999
  0
LINE
  5
67
330
2F
100
AcDbEntity
  8
A-DETL-GENF
100
AcDbLine
 10
-7.690140972588604
 20
122.0007006120795
 30
0.0
 11
3.9986867048394
 21
122.0007006120795
 31
0.0
  0
ARC
  5
68
330
2F
100
AcDbEntity
  8
A-DETL-GENF
100
AcDbCircle
 10
3.998686704839392
 20
123.9993580072526
 30
0.0
 40
1.99865739517308
100
AcDbArc
 50
269.9999999999998
 51
1.209e-13
  0
LINE
  5
69
330
2F
100
AcDbEntity
  8
A-DETL-GENF
100
AcDbLine
 10
5.997344100012472
 20
123.9993580072526
 30
0.0
 11
5.997344100012472
 21
128.5052898177261
 31
0.0
  0
ARC
  5
6A
330
2F
100
AcDbEntity
  8
A-DETL-GENF
100
AcDbCircle
 10
9.50264124515485
 20
128.5052898177261
 30
0.0
 40
3.505297145142379
100
AcDbArc
 50
90.00000000000018
 51
180.0000000000004
  0
LINE
  5
6B
330
2F
100
AcDbEntity
  8
A-DETL-GENF
100
AcDbLine
 10
9.502641245154843
 20
132.0105869628685
 30
0.0
 11
37.52116843017411
 21
132.0105869628685
 31
0.0
  0
ARC
  5
6C
330
2F
100
AcDbEntity
  8
A-DETL-GENF
100
AcDbCircle
 10
37.5211684301741
 20
131.4894167008401
 30
0.0
 40
0.5211702620284528
100
AcDbArc
 50
1.9465e-12
 51
89.99999999999883
  0
LINE
  5
6D
330
2F
100
AcDbEntity
  8
A-DETL-GENF
100
AcDbLine
 10
38.04233869220253
 20
131.4894167008401
 30
0.0
 11
38.04233869220253
 21
88.5128301509451
 31
0.0
  0
ARC
  5
6E
330
2F
100
AcDbEntity
  8
A-DETL-GENF
100
AcDbCircle
 10
39.98941638717258
 20
89.01556148944093
 30
0.0
 40
2.010932706222584
100
AcDbArc
 50
194.4774580981628
 51
269.9999999999993
  0
LINE
  5
6F
330
2F
100
AcDbEntity
  8
A-DETL-GENF
100
AcDbLine
 10
39.98941638717258
 20
87.00462878321834
 30
0.0
 11
62.50136130785198
 21
87.00462878321834
 31
0.0
  0
ARC
  5
70
330
2F
100
AcDbEntity
  8
A-DETL-GENF
100
AcDbCircle
 10
62.50136130785197
 20
86.5073665029712
 30
0.0
 40
0.4972622802471648
100
AcDbArc
 50
359.9999999999992
 51
89.9999999999996
  0
HATCH
  5
71
330
2F
100
AcDbEntity
  8
A-DETL-GENF
370
13
100
AcDbHatch
 10
0.0
 20
0.0
 30
0.0
210
0.0
220
0.0
230
1.0
  2
FP_695
 70
0
 71
0
 91
3
 92
1
 93
43
 72
1
 10
48.93224473397945
 20
29.34942374605214
 11
50.10812647719702
 21
29.47239635765049
 72
1
 10
50.10812647719702
 20
29.47239635765049
 11
51.21299819554457
 21
29.89320346692732
 72
1
 10
51.21299819554457
 20
29.89320346692732
 11
52.17275929269832
 21
30.58362274072022
 72
1
 10
52.17275929269832
 20
30.58362274072022
 11
52.92304132798888
 21
31.49734972661281
 72
1
 10
52.92304132798888
 20
31.49734972661281
 11
53.41352502425018
 21
32.57310336054813
 72
1
 10
53.41352502425018
 20
32.57310336054813
 11
53.32999167425653
 21
32.84233084335156
 72
1
 10
53.32999167425653
 20
32.84233084335156
 11
53.18047196191387
 21
33.08129760606114
 72
1
 10
53.18047196191387
 20
33.08129760606114
 11
52.97488211087062
 21
33.27415525099391
 72
1
 10
52.97488211087062
 20
33.27415525099391
 11
52.72685694500169
 21
33.40811336068683
 72
1
 10
52.72685694500169
 20
33.40811336068683
 11
52.45284561990189
 21
33.47428776492915
 72
1
 10
52.45284561990189
 20
33.47428776492915
 11
52.17102070653241
 21
33.4682897434511
 72
1
 10
52.17102070653241
 20
33.4682897434511
 11
51.90007297699859
 21
33.39051708809904
 72
1
 10
51.90007297699859
 20
33.39051708809904
 11
51.65797182304019
 21
33.24612772107568
 72
1
 10
51.65797182304019
 20
33.24612772107568
 11
51.05219392031678
 21
33.22664763226285
 72
1
 10
51.05219392031678
 20
33.22664763226285
 11
50.45913448411461
 21
33.35165501771984
 72
1
 10
50.45913448411461
 20
33.35165501771984
 11
49.91275877849115
 21
33.61399054636896
 72
1
 10
49.91275877849115
 20
33.61399054636896
 11
49.44435843119837
 21
33.99862993065658
 72
1
 10
49.44435843119837
 20
33.99862993065658
 11
49.08075932259881
 21
34.48354438652646
 72
1
 10
49.08075932259881
 20
34.48354438652646
 11
48.8427852335513
 21
35.04096224973586
 72
1
 10
48.8427852335513
 20
35.04096224973586
 11
48.52318676715499
 21
41.99217331291599
 72
1
 10
48.52318676715499
 20
41.99217331291599
 11
45.13642666500517
 21
43.08188520036721
 72
1
 10
45.13642666500517
 20
43.08188520036721
 11
41.58944006420987
 21
43.35847522349985
 72
1
 10
41.58944006420987
 20
43.35847522349985
 11
41.03498003971702
 21
43.1179603732703
 72
1
 10
41.03498003971702
 20
43.1179603732703
 11
40.53997920332658
 21
42.77119318347765
 72
1
 10
40.53997920332658
 20
42.77119318347765
 11
40.12452762114677
 21
42.33224752077199
 72
1
 10
40.12452762114677
 20
42.33224752077199
 11
39.80548677932278
 21
41.81893840026679
 72
1
 10
39.80548677932278
 20
41.81893840026679
 11
40.55909084638644
 21
42.04933828523981
 72
1
 10
40.55909084638644
 20
42.04933828523981
 11
40.55909084638644
 21
37.08060554656151
 72
1
 10
40.55909084638644
 20
37.08060554656151
 11
39.49999999997802
 21
36.27901338400623
 72
1
 10
39.49999999997802
 20
36.27901338400623
 11
39.49999999997802
 21
35.46045358299107
 72
1
 10
39.49999999997802
 20
35.46045358299107
 11
40.55909084638644
 21
35.89494949089902
 72
1
 10
40.55909084638644
 20
35.89494949089902
 11
40.50116185039595
 21
32.09591912959581
 72
1
 10
40.50116185039595
 20
32.09591912959581
 11
40.38217705003853
 21
31.87121057480486
 72
1
 10
40.38217705003853
 20
31.87121057480486
 11
40.20995980953069
 21
31.68414764586639
 72
1
 10
40.20995980953069
 20
31.68414764586639
 11
39.99583357683182
 21
31.54702990892709
 72
1
 10
39.99583357683182
 20
31.54702990892709
 11
39.75387735615766
 21
31.46887298609158
 72
1
 10
39.75387735615766
 20
31.46887298609158
 11
39.49999999997802
 21
31.45481576964544
 72
1
 10
39.49999999997802
 20
31.45481576964544
 11
39.49999999997802
 21
30.6617890458414
 72
1
 10
39.49999999997802
 20
30.6617890458414
 11
39.88104050813115
 21
30.89533313994088
 72
1
 10
39.88104050813115
 20
30.89533313994088
 11
40.30176492131641
 21
31.04608353261253
 72
1
 10
40.30176492131641
 20
31.04608353261253
 11
40.74441697482205
 21
31.10767795013222
 72
1
 10
40.74441697482205
 20
31.10767795013222
 11
41.19031496918901
 21
31.07751686001042
 72
1
 10
41.19031496918901
 20
31.07751686001042
 11
48.93224473397945
 21
29.34942374605214
 97
0
 92
1
 93
17
 72
1
 10
49.5061126675595
 20
30.22240176554941
 11
48.92474967798454
 21
30.27799208152386
 72
1
 10
48.92474967798454
 20
30.27799208152386
 11
41.60909084639053
 21
31.86772127020947
 72
1
 10
41.60909084639053
 20
31.86772127020947
 11
41.60909084639053
 21
35.92858953497229
 72
1
 10
41.60909084639053
 20
35.92858953497229
 11
47.72997045558469
 21
35.08849189046069
 72
1
 10
47.72997045558469
 20
35.08849189046069
 11
47.92096540963753
 21
34.30259070830797
 72
1
 10
47.92096540963753
 20
34.30259070830797
 11
48.30205407966631
 21
33.58922462686072
 72
1
 10
48.30205407966631
 20
33.58922462686072
 11
48.84911869014098
 21
32.99354010251342
 72
1
 10
48.84911869014098
 20
32.99354010251342
 11
49.52753742594868
 21
32.55323593550384
 72
1
 10
49.52753742594868
 20
32.55323593550384
 11
50.29437552656882
 21
32.29617744406479
 72
1
 10
50.29437552656882
 20
32.29617744406479
 11
51.10110247762048
 21
32.2386329654142
 72
1
 10
51.10110247762048
 20
32.2386329654142
 11
51.89666333822971
 21
32.38424428932107
 72
1
 10
51.89666333822971
 20
32.38424428932107
 11
51.75650433496874
 21
31.81729749932815
 72
1
 10
51.75650433496874
 20
31.81729749932815
 11
51.48699839687012
 21
31.29918577565216
 72
1
 10
51.48699839687012
 20
31.29918577565216
 11
51.10325002000152
 21
30.85894675860706
 72
1
 10
51.10325002000152
 20
30.85894675860706
 11
50.62676643306804
 21
30.52125370231675
 72
1
 10
50.62676643306804
 20
30.52125370231675
 11
50.08425222193383
 21
30.30503265894174
 72
1
 10
50.08425222193383
 20
30.30503265894174
 11
49.5061126675595
 21
30.22240176554941
 97
0
 92
1
 93
5
 72
1
 10
47.76206666198214
 20
36.09198897467651
 11
41.60909084639053
 21
36.93649185979356
 72
1
 10
41.60909084639053
 20
36.93649185979356
 11
41.60909084639053
 21
42.10362568853877
 72
1
 10
41.60909084639053
 20
42.10362568853877
 11
44.6190644992814
 21
42.02933859725368
 72
1
 10
44.6190644992814
 20
42.02933859725368
 11
47.55584208678572
 21
41.3654128750763
 72
1
 10
47.55584208678572
 20
41.3654128750763
 11
47.76206666198214
 21
36.09198897467651
 97
0
 75
0
 76
2
 52
0.0
 41
1.0
 77
0
 78
17
 53
50.0
 43
13179.317
 44
484.963
 45
36.43649882390161
 46
-3.187713201625367
 79
2
 49
3.81
 49
-41.90999999999999
 53
355.0
 43
13179.317
 44
484.963
 45
-7.048450637260456
 46
38.21172008185581
 79
2
 49
3.048
 49
-33.528
 53
100.451
 43
13182.353
 44
484.698
 45
29.38857289101913
 46
35.02294419989923
 79
2
 49
3.237999999999999
 49
-35.618
 53
46.184
 43
13179.317
 44
495.123
 45
54.21605576489391
 46
-8.408366208599219
 79
2
 49
5.714999999999999
 49
-62.865
 53
96.636
 43
13183.834
 44
494.423
 45
47.48050142084204
 46
49.48544265564791
 79
2
 49
4.857
 49
-53.427
 53
351.184
 43
13179.317
 44
495.123
 45
47.48105749519273
 46
49.48459764551189
 79
2
 49
4.572
 49
-50.292
 53
21.0
 43
13184.397
 44
492.583
 45
30.32264590381153
 46
-20.45280194477181
 79
2
 49
3.81
 49
-41.90999999999999
 53
326.0
 43
13184.397
 44
492.583
 45
12.36069566969662
 46
36.8378801040606
 79
2
 49
3.048
 49
-33.528
 53
71.45100000000001
 43
13186.923
 44
490.879
 45
42.68328529264973
 46
16.38389433639848
 79
2
 49
3.237999999999999
 49
-35.618
 53
37.5
 43
13179.317
 44
484.963
 45
0.6180667407672545
 46
16.91081956925676
 79
5
 49
1.675999999999999
 49
-31.445
 49
1.675999999999999
 49
-32.36
 49
-33.655
 53
37.5
 43
13179.317
 44
484.963
 45
0.6180667407672545
 46
16.91081956925676
 79
3
 49
-67.158
 49
1.675999999999999
 49
-31.979
 53
7.499999999999999
 43
13179.317
 44
484.963
 45
13.36413812266816
 46
20.03577892766457
 79
5
 49
1.675999999999999
 49
-17.729
 49
1.675999999999999
 49
-30.68300000000001
 49
-12.827
 53
7.499999999999999
 43
13179.317
 44
484.963
 45
13.36413812266816
 46
20.03577892766457
 79
3
 49
-51.765
 49
1.675999999999999
 49
-11.151
 53
327.5
 43
13167.988
 44
484.963
 45
27.11815875975744
 46
-1.14605867240335
 79
5
 49
1.675999999999999
 49
-11.024
 49
1.675999999999999
 49
-37.948
 49
-52.578
 53
327.5
 43
13167.988
 44
484.963
 45
27.11815875975744
 46
-1.14605867240335
 79
3
 49
-52.324
 49
1.675999999999999
 49
-50.902
 53
317.5
 43
13162.908
 44
484.963
 45
29.62578963244251
 46
5.085069680374331
 79
5
 49
1.675999999999999
 49
-14.834
 49
1.675999999999999
 49
-24.638
 49
-37.338
 53
317.5
 43
13162.908
 44
484.963
 45
29.62578963244251
 46
5.085069680374331
 79
3
 49
-42.82399999999999
 49
1.675999999999999
 49
-35.662
 98
1
 10
0.0
 20
0.0
  0
LINE
  5
72
330
2F
100
AcDbEntity
  8
A-DETL-GENF
100
AcDbLine
 10
48.92474967800115
 20
30.27799208152484
 30
0.0
 11
41.60909084640799
 21
31.86772127020852
 31
0.0
  0
LINE
  5
73
330
2F
100
AcDbEntity
  8
A-DETL-GENF
100
AcDbLine
 10
41.60909084640799
 20
31.86772127020852
 30
0.0
 11
41.60909084640799
 21
35.92858953497443
 31
0.0
  0
LINE
  5
74
330
2F
100
AcDbEntity
  8
A-DETL-GENF
100
AcDbLine
 10
41.60909084640799
 20
35.92858953497443
 30
0.0
 11
47.72997045560513
 21
35.08849189046071
 31
0.0
  0
ARC
  5
75
330
2F
100
AcDbEntity
  8
A-DETL-GENF
100
AcDbCircle
 10
50.92466536997964
 20
35.44872895908519
 30
0.0
 40
3.21494111012029
100
AcDbArc
 50
186.4335549365767
 51
287.5980663018087
  0
ARC
  5
76
330
2F
100
AcDbEntity
  8
A-DETL-GENF
100
AcDbCircle
 10
49.44859767844595
 20
32.68864999618487
 30
0.0
 40
2.466918788505837
100
AcDbArc
 50
257.7399484891273
 51
352.9119153530842
  0
ARC
  5
77
330
2F
100
AcDbEntity
  8
A-DETL-GENF
100
AcDbCircle
 10
49.0493365069198
 20
33.91323664115006
 30
0.0
 40
4.565314734467682
100
AcDbArc
 50
268.5303093966611
 51
342.9295857093979
  0
ARC
  5
78
330
2F
100
AcDbEntity
  8
A-DETL-GENF
100
AcDbCircle
 10
52.335030056983
 20
32.38605087980519
 30
0.0
 40
1.094595827242099
100
AcDbArc
 50
9.839410171216139
 51
128.2100574691092
  0
ARC
  5
79
330
2F
100
AcDbEntity
  8
A-DETL-GENF
100
AcDbCircle
 10
51.27426805383159
 20
35.74950922073333
 30
0.0
 40
2.532616732817753
100
AcDbArc
 50
196.2464023777822
 51
278.7141460594231
  0
LINE
  5
7A
330
2F
100
AcDbEntity
  8
A-DETL-GENF
100
AcDbLine
 10
48.84278523356696
 20
35.04096224973813
 30
0.0
 11
48.52318676717048
 21
41.9921733129168
 31
0.0
  0
ARC
  5
7B
330
2F
100
AcDbEntity
  8
A-DETL-GENF
100
AcDbCircle
 10
42.18364816451088
 20
28.0970432457021
 30
0.0
 40
15.27299542589551
100
AcDbArc
 50
65.47554786935987
 51
92.22970086261768
  0
ARC
  5
7C
330
2F
100
AcDbEntity
  8
A-DETL-GENF
100
AcDbCircle
 10
42.50000000000006
 20
40.50000000000003
 30
0.0
 40
2.999999999999955
100
AcDbArc
 50
107.6691444145248
 51
153.9186947593423
  0
LINE
  5
7D
330
2F
100
AcDbEntity
  8
A-DETL-GENF
100
AcDbLine
 10
39.805486779342
 20
41.81893840026693
 30
0.0
 11
40.55909084640805
 21
42.04933828524104
 31
0.0
  0
LINE
  5
7E
330
2F
100
AcDbEntity
  8
A-DETL-GENF
100
AcDbLine
 10
40.55909084640805
 20
42.04933828524104
 30
0.0
 11
40.55909084640805
 21
37.08060554656221
 31
0.0
  0
LINE
  5
7F
330
2F
100
AcDbEntity
  8
A-DETL-GENF
100
AcDbLine
 10
40.55909084640805
 20
37.08060554656221
 30
0.0
 11
39.50000000000009
 21
36.27901338400735
 31
0.0
  0
LINE
  5
80
330
2F
100
AcDbEntity
  8
A-DETL-GENF
100
AcDbLine
 10
39.50000000000009
 20
36.27901338400735
 30
0.0
 11
39.50000000000009
 21
35.46045358299308
 31
0.0
  0
LINE
  5
81
330
2F
100
AcDbEntity
  8
A-DETL-GENF
100
AcDbLine
 10
39.50000000000009
 20
35.46045358299308
 30
0.0
 11
40.55909084640805
 21
35.89494949089948
 31
0.0
  0
LINE
  5
82
330
2F
100
AcDbEntity
  8
A-DETL-GENF
100
AcDbLine
 10
40.55909084640805
 20
35.89494949089948
 30
0.0
 11
40.55909084640805
 21
32.34349850824974
 31
0.0
  0
ARC
  5
83
330
2F
100
AcDbEntity
  8
A-DETL-GENF
100
AcDbCircle
 10
39.57256994299573
 20
32.44375930921331
 30
0.0
 40
0.9916026023963928
100
AcDbArc
 50
265.8030847616627
 51
354.1969152383434
  0
LINE
  5
84
330
2F
100
AcDbEntity
  8
A-DETL-GENF
100
AcDbLine
 10
39.50000000000009
 20
31.4548157696455
 30
0.0
 11
39.50000000000009
 21
30.6617890458419
 31
0.0
  0
ARC
  5
85
330
2F
100
AcDbEntity
  8
A-DETL-GENF
100
AcDbCircle
 10
40.82132766457099
 20
28.93358431461697
 30
0.0
 40
2.175453605616219
100
AcDbArc
 50
80.23462525736186
 51
127.4003217221114
  0
LINE
  5
86
330
2F
100
AcDbEntity
  8
A-DETL-GENF
100
AcDbLine
 10
41.19031496920988
 20
31.07751686001198
 30
0.0
 11
48.93224473400032
 21
29.34942374605213
 31
0.0
  0
LINE
  5
87
330
2F
100
AcDbEntity
  8
A-DETL-GENF
100
AcDbLine
 10
41.60909084640799
 20
36.93649185979505
 30
0.0
 11
41.60909084640799
 21
42.10362568854008
 31
0.0
  0
ARC
  5
88
330
2F
100
AcDbEntity
  8
A-DETL-GENF
100
AcDbCircle
 10
42.73946954077119
 20
26.88806300946408
 30
0.0
 40
15.25749336010212
100
AcDbArc
 50
71.59857739879325
 51
94.24875319735527
  0
LINE
  5
89
330
2F
100
AcDbEntity
  8
A-DETL-GENF
100
AcDbLine
 10
47.55584208680452
 20
41.3654128750775
 30
0.0
 11
47.76206666200173
 21
36.09198897467652
 31
0.0
  0
LINE
  5
8A
330
2F
100
AcDbEntity
  8
A-DETL-GENF
100
AcDbLine
 10
47.76206666200173
 20
36.09198897467652
 30
0.0
 11
41.60909084640799
 21
36.93649185979505
 31
0.0
  0
HATCH
  5
8B
330
2F
100
AcDbEntity
  8
A-DETL-GENF
370
13
100
AcDbHatch
 10
0.0
 20
0.0
 30
0.0
210
0.0
220
0.0
230
1.0
  2
FP_695
 70
0
 71
0
 91
1
 92
1
 93
76
 72
1
 10
36.5438596491047
 20
-7.359649122806826
 11
36.80267869420489
 21
-7.32557494909546
 72
1
 10
36.80267869420489
 20
-7.32557494909546
 11
37.04385964910458
 21
-7.225674526591802
 72
1
 10
37.04385964910458
 20
-7.225674526591802
 11
37.25096643029075
 21
-7.066755903995272
 72
1
 10
37.25096643029075
 20
-7.066755903995272
 11
37.40988505288512
 21
-6.859649122806939
 72
1
 10
37.40988505288512
 20
-6.859649122806939
 11
37.50978547539527
 21
-6.618468167909407
 72
1
 10
37.50978547539527
 20
-6.618468167909407
 11
37.54385964910447
 21
-6.359649122807053
 72
1
 10
37.54385964910447
 20
-6.359649122807053
 11
37.54385964910447
 21
14.05263157894714
 72
1
 10
37.54385964910447
 20
14.05263157894714
 11
37.44343050553459
 21
14.81546665924961
 72
1
 10
37.44343050553459
 20
14.81546665924961
 11
37.14898715499681
 21
15.5263157894738
 72
1
 10
37.14898715499681
 20
15.5263157894738
 11
36.68059542522995
 21
16.13673577612811
 72
1
 10
36.68059542522995
 20
16.13673577612811
 11
36.07017543857781
 21
16.60512750589063
 72
1
 10
36.07017543857781
 20
16.60512750589063
 11
35.35932630835578
 21
16.89957085643058
 72
1
 10
35.35932630835578
 20
16.89957085643058
 11
34.59649122805114
 21
16.9999999999983
 72
1
 10
34.59649122805114
 20
16.9999999999983
 11
13.09226667035646
 21
17.05021457178541
 72
1
 10
13.09226667035646
 20
17.05021457178541
 11
12.73684210524544
 21
17.1974362470543
 72
1
 10
12.73684210524544
 20
17.1974362470543
 11
12.43163211191504
 21
17.43163211193339
 72
1
 10
12.43163211191504
 20
17.43163211193339
 11
12.19743624703594
 21
17.73684210526163
 72
1
 10
12.19743624703594
 20
17.73684210526163
 11
12.05021457176489
 21
18.09226667037481
 72
1
 10
12.05021457176489
 20
18.09226667037481
 11
11.99999999997994
 21
18.47368421052496
 72
1
 10
11.99999999997994
 20
18.47368421052496
 11
12.05021457176489
 21
103.9077333296234
 72
1
 10
12.05021457176489
 20
103.9077333296234
 11
12.19743624703594
 21
104.2631578947366
 72
1
 10
12.19743624703594
 20
104.2631578947366
 11
12.43163211191504
 21
104.5683678880648
 72
1
 10
12.43163211191504
 20
104.5683678880648
 11
12.73684210524544
 21
104.8025637529461
 72
1
 10
12.73684210524544
 20
104.8025637529461
 11
13.09226667035646
 21
104.9497854282172
 72
1
 10
13.09226667035646
 20
104.9497854282172
 11
13.47368421050661
 21
104.9999999999999
 72
1
 10
13.47368421050661
 20
104.9999999999999
 11
34.59649122805114
 21
104.9999999999999
 72
1
 10
34.59649122805114
 20
104.9999999999999
 11
35.35932630835578
 21
105.1004291435698
 72
1
 10
35.35932630835578
 20
105.1004291435698
 11
36.07017543857781
 21
105.3948724941097
 72
1
 10
36.07017543857781
 20
105.3948724941097
 11
36.68059542522995
 21
105.8632642238723
 72
1
 10
36.68059542522995
 20
105.8632642238723
 11
37.14898715499681
 21
106.4736842105266
 72
1
 10
37.14898715499681
 20
106.4736842105266
 11
37.44343050553459
 21
107.1845333407508
 72
1
 10
37.44343050553459
 20
107.1845333407508
 11
37.54385964910447
 21
107.9473684210533
 72
1
 10
37.54385964910447
 20
107.9473684210533
 11
37.50978547539527
 21
128.6184681679098
 72
1
 10
37.50978547539527
 20
128.6184681679098
 11
37.40988505288512
 21
128.8596491228073
 72
1
 10
37.40988505288512
 20
128.8596491228073
 11
37.25096643029075
 21
129.0667559039935
 72
1
 10
37.25096643029075
 20
129.0667559039935
 11
37.04385964910458
 21
129.2256745265922
 72
1
 10
37.04385964910458
 20
129.2256745265922
 11
36.80267869420489
 21
129.3255749490959
 72
1
 10
36.80267869420489
 20
129.3255749490959
 11
36.5438596491047
 21
129.3596491228072
 72
1
 10
36.5438596491047
 20
129.3596491228072
 11
36.28504060400018
 21
129.3255749490959
 72
1
 10
36.28504060400018
 20
129.3255749490959
 11
36.04385964910048
 21
129.2256745265922
 72
1
 10
36.04385964910048
 20
129.2256745265922
 11
35.83675286791864
 21
129.0667559039935
 72
1
 10
35.83675286791864
 20
129.0667559039935
 11
35.67783424531995
 21
128.8596491228073
 72
1
 10
35.67783424531995
 20
128.8596491228073
 11
35.57793382281412
 21
128.6184681679098
 72
1
 10
35.57793382281412
 20
128.6184681679098
 11
35.54385964910493
 21
128.3596491228074
 72
1
 10
35.54385964910493
 20
128.3596491228074
 11
35.51157885295777
 21
107.7021714309555
 72
1
 10
35.51157885295777
 20
107.7021714309555
 11
35.41693634742298
 21
107.4736842105264
 72
1
 10
35.41693634742298
 20
107.4736842105264
 11
35.26638186285784
 21
107.2774777862444
 72
1
 10
35.26638186285784
 20
107.2774777862444
 11
35.07017543857803
 21
107.1269233016792
 72
1
 10
35.07017543857803
 20
107.1269233016792
 11
34.84168821814674
 21
107.0322807961466
 72
1
 10
34.84168821814674
 20
107.0322807961466
 11
34.59649122805114
 21
106.9999999999995
 72
1
 10
34.59649122805114
 20
106.9999999999995
 11
13.47368421050661
 21
106.9999999999995
 72
1
 10
13.47368421050661
 20
106.9999999999995
 11
12.57462858015175
 21
106.881637080794
 72
1
 10
12.57462858015175
 20
106.881637080794
 11
11.73684210524567
 21
106.5346145605156
 72
1
 10
11.73684210524567
 20
106.5346145605156
 11
11.01741854954293
 21
105.9825814504369
 72
1
 10
11.01741854954293
 20
105.9825814504369
 11
10.46538543946644
 21
105.2631578947364
 72
1
 10
10.46538543946644
 20
105.2631578947364
 11
10.11836291918807
 21
104.4253714198303
 72
1
 10
10.11836291918807
 20
104.4253714198303
 11
9.999999999980401
 21
103.5263157894733
 72
1
 10
9.999999999980401
 20
103.5263157894733
 11
9.999999999980401
 21
18.47368421052496
 72
1
 10
9.999999999980401
 20
18.47368421052496
 11
10.11836291918807
 21
17.5746285801701
 72
1
 10
10.11836291918807
 20
17.5746285801701
 11
10.46538543946644
 21
16.73684210526186
 72
1
 10
10.46538543946644
 20
16.73684210526186
 11
11.01741854954293
 21
16.01741854956129
 72
1
 10
11.01741854954293
 20
16.01741854956129
 11
11.73684210524567
 21
15.4653854394848
 72
1
 10
11.73684210524567
 20
15.4653854394848
 11
12.57462858015175
 21
15.11836291920643
 72
1
 10
12.57462858015175
 20
15.11836291920643
 11
13.47368421050661
 21
14.99999999999875
 72
1
 10
13.47368421050661
 20
14.99999999999875
 11
34.84168821814674
 21
14.9677192038516
 72
1
 10
34.84168821814674
 20
14.9677192038516
 11
35.07017543857803
 21
14.87307669832113
 72
1
 10
35.07017543857803
 20
14.87307669832113
 11
35.26638186285784
 21
14.722522213756
 72
1
 10
35.26638186285784
 20
14.722522213756
 11
35.41693634742298
 21
14.52631578947186
 72
1
 10
35.41693634742298
 20
14.52631578947186
 11
35.51157885295777
 21
14.29782856904273
 72
1
 10
35.51157885295777
 20
14.29782856904273
 11
35.54385964910493
 21
14.05263157894714
 72
1
 10
35.54385964910493
 20
14.05263157894714
 11
35.57793382281412
 21
-6.618468167909407
 72
1
 10
35.57793382281412
 20
-6.618468167909407
 11
35.67783424531995
 21
-6.859649122806939
 72
1
 10
35.67783424531995
 20
-6.859649122806939
 11
35.83675286791864
 21
-7.066755903995272
 72
1
 10
35.83675286791864
 20
-7.066755903995272
 11
36.04385964910048
 21
-7.225674526591802
 72
1
 10
36.04385964910048
 20
-7.225674526591802
 11
36.28504060400018
 21
-7.32557494909546
 72
1
 10
36.28504060400018
 20
-7.32557494909546
 11
36.5438596491047
 21
-7.359649122806826
 97
0
 75
0
 76
2
 52
0.0
 41
1.0
 77
0
 78
17
 53
50.0
 43
13179.317
 44
484.963
 45
36.43649882390161
 46
-3.187713201625367
 79
2
 49
3.81
 49
-41.90999999999999
 53
355.0
 43
13179.317
 44
484.963
 45
-7.048450637260456
 46
38.21172008185581
 79
2
 49
3.048
 49
-33.528
 53
100.451
 43
13182.353
 44
484.698
 45
29.38857289101913
 46
35.02294419989923
 79
2
 49
3.237999999999999
 49
-35.618
 53
46.184
 43
13179.317
 44
495.123
 45
54.21605576489391
 46
-8.408366208599219
 79
2
 49
5.714999999999999
 49
-62.865
 53
96.636
 43
13183.834
 44
494.423
 45
47.48050142084204
 46
49.48544265564791
 79
2
 49
4.857
 49
-53.427
 53
351.184
 43
13179.317
 44
495.123
 45
47.48105749519273
 46
49.48459764551189
 79
2
 49
4.572
 49
-50.292
 53
21.0
 43
13184.397
 44
492.583
 45
30.32264590381153
 46
-20.45280194477181
 79
2
 49
3.81
 49
-41.90999999999999
 53
326.0
 43
13184.397
 44
492.583
 45
12.36069566969662
 46
36.8378801040606
 79
2
 49
3.048
 49
-33.528
 53
71.45100000000001
 43
13186.923
 44
490.879
 45
42.68328529264973
 46
16.38389433639848
 79
2
 49
3.237999999999999
 49
-35.618
 53
37.5
 43
13179.317
 44
484.963
 45
0.6180667407672545
 46
16.91081956925676
 79
5
 49
1.675999999999999
 49
-31.445
 49
1.675999999999999
 49
-32.36
 49
-33.655
 53
37.5
 43
13179.317
 44
484.963
 45
0.6180667407672545
 46
16.91081956925676
 79
3
 49
-67.158
 49
1.675999999999999
 49
-31.979
 53
7.499999999999999
 43
13179.317
 44
484.963
 45
13.36413812266816
 46
20.03577892766457
 79
5
 49
1.675999999999999
 49
-17.729
 49
1.675999999999999
 49
-30.68300000000001
 49
-12.827
 53
7.499999999999999
 43
13179.317
 44
484.963
 45
13.36413812266816
 46
20.03577892766457
 79
3
 49
-51.765
 49
1.675999999999999
 49
-11.151
 53
327.5
 43
13167.988
 44
484.963
 45
27.11815875975744
 46
-1.14605867240335
 79
5
 49
1.675999999999999
 49
-11.024
 49
1.675999999999999
 49
-37.948
 49
-52.578
 53
327.5
 43
13167.988
 44
484.963
 45
27.11815875975744
 46
-1.14605867240335
 79
3
 49
-52.324
 49
1.675999999999999
 49
-50.902
 53
317.5
 43
13162.908
 44
484.963
 45
29.62578963244251
 46
5.085069680374331
 79
5
 49
1.675999999999999
 49
-14.834
 49
1.675999999999999
 49
-24.638
 49
-37.338
 53
317.5
 43
13162.908
 44
484.963
 45
29.62578963244251
 46
5.085069680374331
 79
3
 49
-42.82399999999999
 49
1.675999999999999
 49
-35.662
 98
1
 10
0.0
 20
0.0
  0
LINE
  5
8C
330
2F
100
AcDbEntity
  8
A-DETL-GENF
100
AcDbLine
 10
12.00000000000006
 20
18.47368421052598
 30
0.0
 11
12.00000000000006
 21
103.5263157894745
 31
0.0
  0
ARC
  5
8D
330
2F
100
AcDbEntity
  8
A-DETL-GENF
100
AcDbCircle
 10
13.47368421052618
 20
103.5263157894745
 30
0.0
 40
1.473684210526116
100
AcDbArc
 50
89.9999999999998
 51
179.9999999999994
  0
LINE
  5
8E
330
2F
100
AcDbEntity
  8
A-DETL-GENF
100
AcDbLine
 10
13.47368421052618
 20
105.0000000000006
 30
0.0
 11
34.59649122807032
 21
105.0000000000006
 31
0.0
  0
ARC
  5
8F
330
2F
100
AcDbEntity
  8
A-DETL-GENF
100
AcDbCircle
 10
34.59649122807034
 20
107.9473684210534
 30
0.0
 40
2.947368421052694
100
AcDbArc
 50
269.9999999999994
 51
5.525e-13
  0
LINE
  5
90
330
2F
100
AcDbEntity
  8
A-DETL-GENF
100
AcDbLine
 10
37.54385964912309
 20
107.9473684210534
 30
0.0
 11
37.54385964912309
 21
128.3596491228078
 31
0.0
  0
ARC
  5
91
330
2F
100
AcDbEntity
  8
A-DETL-GENF
100
AcDbCircle
 10
36.54385964912307
 20
128.3596491228078
 30
0.0
 40
1.000000000000007
100
AcDbArc
 50
0.0
 51
179.9999999999984
  0
LINE
  5
92
330
2F
100
AcDbEntity
  8
A-DETL-GENF
100
AcDbLine
 10
35.54385964912305
 20
128.3596491228078
 30
0.0
 11
35.54385964912305
 21
107.9473684210534
 31
0.0
  0
ARC
  5
93
330
2F
100
AcDbEntity
  8
A-DETL-GENF
100
AcDbCircle
 10
34.59649122807031
 20
107.9473684210534
 30
0.0
 40
0.9473684210527225
100
AcDbArc
 50
270.0000000000005
 51
0.0
  0
LINE
  5
94
330
2F
100
AcDbEntity
  8
A-DETL-GENF
100
AcDbLine
 10
34.59649122807032
 20
107.0000000000007
 30
0.0
 11
13.47368421052616
 21
107.0000000000007
 31
0.0
  0
ARC
  5
95
330
2F
100
AcDbEntity
  8
A-DETL-GENF
100
AcDbCircle
 10
13.47368421052618
 20
103.5263157894745
 30
0.0
 40
3.47368421052613
100
AcDbArc
 50
89.99999999999999
 51
179.9999999999997
  0
LINE
  5
96
330
2F
100
AcDbEntity
  8
A-DETL-GENF
100
AcDbLine
 10
10.00000000000001
 20
103.5263157894745
 30
0.0
 11
10.00000000000001
 21
18.47368421052596
 31
0.0
  0
ARC
  5
97
330
2F
100
AcDbEntity
  8
A-DETL-GENF
100
AcDbCircle
 10
13.47368421052615
 20
18.47368421052598
 30
0.0
 40
3.473684210526123
100
AcDbArc
 50
180.0000000000003
 51
269.9999999999998
  0
LINE
  5
98
330
2F
100
AcDbEntity
  8
A-DETL-GENF
100
AcDbLine
 10
13.47368421052615
 20
14.99999999999985
 30
0.0
 11
34.59649122807032
 21
14.99999999999985
 31
0.0
  0
ARC
  5
99
330
2F
100
AcDbEntity
  8
A-DETL-GENF
100
AcDbCircle
 10
34.59649122807032
 20
14.05263157894714
 30
0.0
 40
0.94736842105271
100
AcDbArc
 50
359.9999999999992
 51
90.00000000000011
  0
LINE
  5
9A
330
2F
100
AcDbEntity
  8
A-DETL-GENF
100
AcDbLine
 10
35.54385964912303
 20
14.05263157894714
 30
0.0
 11
35.54385964912303
 21
-6.359649122806875
 31
0.0
  0
ARC
  5
9B
330
2F
100
AcDbEntity
  8
A-DETL-GENF
100
AcDbCircle
 10
36.54385964912304
 20
-6.359649122806867
 30
0.0
 40
1.000000000000009
100
AcDbArc
 50
180.0000000000004
 51
359.9999999999996
  0
LINE
  5
9C
330
2F
100
AcDbEntity
  8
A-DETL-GENF
100
AcDbLine
 10
37.54385964912306
 20
-6.359649122806867
 30
0.0
 11
37.54385964912306
 21
14.05263157894714
 31
0.0
  0
ARC
  5
9D
330
2F
100
AcDbEntity
  8
A-DETL-GENF
100
AcDbCircle
 10
34.59649122807031
 20
14.05263157894713
 30
0.0
 40
2.947368421052717
100
AcDbArc
 50
359.9999999999992
 51
89.99999999999947
  0
LINE
  5
9E
330
2F
100
AcDbEntity
  8
A-DETL-GENF
100
AcDbLine
 10
34.59649122807032
 20
16.99999999999988
 30
0.0
 11
13.47368421052615
 21
16.99999999999988
 31
0.0
  0
ARC
  5
9F
330
2F
100
AcDbEntity
  8
A-DETL-GENF
100
AcDbCircle
 10
13.47368421052615
 20
18.47368421052598
 30
0.0
 40
1.473684210526128
100
AcDbArc
 50
180.0000000000008
 51
270.0000000000001
  0
INSERT
  5
A0
330
2F
100
AcDbEntity
  8
0
100
AcDbBlockReference
  2
00 stalendeurprofiel - schroefje_dwg-4337371-00_0 Basismaterialen
 10
0.0
 20
0.0
 30
0.0
  0
INSERT
  5
A2
330
2F
100
AcDbEntity
  8
0
100
AcDbBlockReference
  2
00 stalendeurprofiel - schroefje_dwg-4337371-00_0 Basismaterialen
 10
0.0
 20
121.3750000000001
 30
0.0
 43
-1.0
 50
180.0
210
0.0
220
0.0
230
-1.0
  0
ENDBLK
  5
31
330
2F
100
AcDbEntity
  8
0
100
AcDbBlockEnd
  0
BLOCK
  5
A5
330
A4
100
AcDbEntity
  8
0
100
AcDbBlockBegin
  2
00 stalendeurprofiel - schroefje_dwg-4337371-00_0 Basismaterialen
 70
0
 10
0.0
 20
0.0
 30
0.0
  3
00 stalendeurprofiel - schroefje_dwg-4337371-00_0 Basismaterialen
  1

  0
LINE
  5
A7
330
A4
100
AcDbEntity
  8
STANDARD
 62
10
370
5
100
AcDbLine
 10
21.81703519121852
 20
76.36022785653685
 30
0.0
 11
0.2264981982943537
 21
76.36022785653661
 31
0.0
  0
LWPOLYLINE
  5
A8
330
A4
100
AcDbEntity
  8
STANDARD
 62
10
370
5
100
AcDbPolyline
 90
17
 70
128
 10
20.12365974079334
 20
76.36022785653682
 10
19.70031587818265
 20
75.93688399392974
 10
19.27697201557929
 20
75.93688399392974
 10
18.85362815297687
 20
75.93688399392974
 10
18.43028429036625
 20
75.93688399392973
 10
18.00694042776376
 20
75.93688399392973
 10
17.58359656515309
 20
75.93688399392971
 10
17.16025270254978
 20
75.93688399392971
 10
16.73690883994005
 20
75.93688399392971
 10
16.31356497733668
 20
75.93688399392971
 10
16.31356497733668
 20
75.51354013132276
 10
15.89022111472601
 20
75.51354013132274
 10
15.46687725212359
 20
75.51354013132274
 10
15.04353338951298
 20
75.09019626871579
 10
14.62018952691049
 20
74.66685240611044
 10
14.19684566430082
 20
74.66685240611044
 10
14.62018952691049
 20
78.0536033069611
  0
LWPOLYLINE
  5
A9
330
A4
100
AcDbEntity
  8
STANDARD
 62
10
370
5
100
AcDbPolyline
 90
33
 70
128
 10
7.000000000000032
 20
74.2435085435053
 10
7.000000000000032
 20
74.66685240611035
 10
8.270031587815552
 20
74.66685240611037
 10
8.693375450417976
 20
73.82016468089836
 10
8.693375450417976
 20
74.66685240611038
 10
9.963407038241755
 20
74.6668524061104
 10
10.38675090084505
 20
73.82016468089839
 10
10.81009476345478
 20
74.6668524061104
 10
11.65678248866788
 20
74.66685240611041
 10
12.08012635127125
 20
73.8201646808984
 10
12.50347021388187
 20
74.66685240611042
 10
13.35015793908765
 20
74.66685240611044
 10
13.77350180169745
 20
73.82016468089842
 10
14.19684566430082
 20
74.66685240611044
 10
18.85362815297687
 20
74.6668524061105
 10
20.12365974079334
 20
76.36022785653682
 10
18.85362815297687
 20
78.05360330696112
 10
14.62018952691049
 20
78.0536033069611
 10
14.19684566430082
 20
78.47694716956613
 10
14.19684566430082
 20
78.05360330696107
 10
12.92681407648428
 20
78.05360330696107
 10
12.50347021388187
 20
78.47694716956612
 10
12.50347021388187
 20
78.05360330696105
 10
11.23343862605815
 20
78.05360330696104
 10
10.81009476345478
 20
78.4769471695661
 10
10.81009476345478
 20
78.05360330696104
 10
9.540063175631076
 20
78.05360330696102
 10
9.116719313028584
 20
78.47694716956609
 10
8.693375450417976
 20
78.05360330696102
 10
7.846687725212185
 20
78.05360330696101
 10
7.423343862602454
 20
78.47694716956606
 10
7.000000000000032
 20
78.05360330696101
 10
7.000000000000032
 20
76.78357171914176
  0
LINE
  5
AA
330
A4
100
AcDbEntity
  8
STANDARD
 62
10
370
5
100
AcDbLine
 10
10.81009476345478
 20
78.05360330696104
 30
0.0
 11
9.963407038241755
 21
74.6668524061104
 31
0.0
  0
LINE
  5
AB
330
A4
100
AcDbEntity
  8
STANDARD
 62
10
370
5
100
AcDbLine
 10
10.81009476345478
 20
78.4769471695661
 30
0.0
 11
10.38675090084505
 21
73.82016468089824
 31
0.0
  0
LINE
  5
AC
330
A4
100
AcDbEntity
  8
STANDARD
 62
10
370
5
100
AcDbLine
 10
11.23343862605815
 20
78.05360330696104
 30
0.0
 11
10.81009476345478
 21
74.6668524061104
 31
0.0
  0
LINE
  5
AD
330
A4
100
AcDbEntity
  8
STANDARD
 62
10
370
5
100
AcDbLine
 10
12.50347021388187
 20
78.05360330696105
 30
0.0
 11
11.65678248866788
 21
74.66685240611041
 31
0.0
  0
LINE
  5
AE
330
A4
100
AcDbEntity
  8
STANDARD
 62
10
370
5
100
AcDbLine
 10
12.50347021388187
 20
78.47694716956612
 30
0.0
 11
12.08012635127125
 21
73.82016468089826
 31
0.0
  0
LINE
  5
AF
330
A4
100
AcDbEntity
  8
STANDARD
 62
10
370
5
100
AcDbLine
 10
12.92681407648428
 20
78.05360330696107
 30
0.0
 11
12.50347021388187
 21
74.66685240611042
 31
0.0
  0
LINE
  5
B0
330
A4
100
AcDbEntity
  8
STANDARD
 62
10
370
5
100
AcDbLine
 10
14.19684566430082
 20
78.05360330696107
 30
0.0
 11
13.35015793908772
 21
74.66685240611044
 31
0.0
  0
LINE
  5
B1
330
A4
100
AcDbEntity
  8
STANDARD
 62
10
370
5
100
AcDbLine
 10
14.19684566430082
 20
78.47694716956613
 30
0.0
 11
13.77350180169745
 21
73.82016468089827
 31
0.0
  0
LINE
  5
B2
330
A4
100
AcDbEntity
  8
STANDARD
 62
10
370
5
100
AcDbLine
 10
6.153312274786933
 20
72.97347695568428
 30
0.0
 11
4.459936824359853
 21
72.97347695568426
 31
0.0
  0
LWPOLYLINE
  5
B3
330
A4
100
AcDbEntity
  8
STANDARD
 62
10
370
5
100
AcDbPolyline
 90
4
 70
129
 10
6.153312274787
 20
72.55013309307908
 10
7.0000000000001
 20
72.5501330930791
 10
6.999999999999965
 20
79.7469787573853
 10
6.153312274786864
 20
79.74697875738529
  0
LWPOLYLINE
  5
B4
330
A4
100
AcDbEntity
  8
STANDARD
 62
10
370
5
100
AcDbPolyline
 90
9
 70
128
 10
4.429977168615506
 20
78.05121770052281
 10
4.266575336691847
 20
77.69298241004874
 10
4.14986834881258
 20
77.32161816135967
 10
4.079855807760386
 20
76.9415024487414
 10
4.056537316306236
 20
76.55701276646573
 10
4.079912477226583
 20
76.17252660882227
 10
4.149980893295849
 20
75.79242147008776
 10
4.266742167290422
 20
75.42107484454279
 10
4.430195901974908
 20
75.06286422647169
  0
LWPOLYLINE
  5
B5
330
A4
100
AcDbEntity
  8
STANDARD
 62
10
370
5
100
AcDbPolyline
 90
17
 70
128
 10
4.479918740873507
 20
74.86394337238634
 10
4.385217680962385
 20
74.78383967541492
 10
4.301349756936319
 20
74.6941728123464
 10
4.228867957844159
 20
74.59604852394368
 10
4.168325272747136
 20
74.49057255096595
 10
4.120274690716497
 20
74.37885063417771
 10
4.085269200807521
 20
74.26198851434032
 10
4.063861792073115
 20
74.14109193221597
 10
4.05660545359116
 20
74.01726662856603
 10
4.063866227932527
 20
73.89344577634694
 10
4.085277725529561
 20
73.7725529609005
 10
4.120287020038661
 20
73.65569407545875
 10
4.168341185120901
 20
73.54397501326164
 10
4.228887294414542
 20
73.43850166753762
 10
4.301372421587966
 20
73.34037993152447
 10
4.38524364029128
 20
73.25071569845827
 10
4.479948024172764
 20
73.1706148615693
  0
LINE
  5
B6
330
A4
100
AcDbEntity
  8
STANDARD
 62
10
370
5
100
AcDbLine
 10
6.153312274786933
 20
74.66685240611035
 30
0.0
 11
4.459936824359853
 21
74.66685240611032
 31
0.0
  0
LWPOLYLINE
  5
B7
330
A4
100
AcDbEntity
  8
STANDARD
 62
10
370
5
100
AcDbPolyline
 90
3
 70
128
 10
4.036592961749175
 20
73.8201646808983
 10
4.036592961749175
 20
76.36022785653667
 10
4.036592961749175
 20
78.47694716956603
  0
LWPOLYLINE
  5
B8
330
A4
100
AcDbEntity
  8
STANDARD
 62
10
370
5
100
AcDbPolyline
 90
17
 70
128
 10
4.479837133020705
 20
79.52056017177782
 10
4.385145298105213
 20
79.44045212689778
 10
4.301285874842414
 20
79.35078221549956
 10
4.228811850147366
 20
79.25265618429216
 10
4.168276210907579
 20
79.14717977998302
 10
4.120231944044405
 20
79.0354587492937
 10
4.08523203644556
 20
78.91859883892243
 10
4.063829475034222
 20
78.7977057955858
 10
4.0565772467044
 20
78.67388536599431
 10
4.063843138845222
 20
78.55006581956584
 10
4.08525777437442
 20
78.42917532478786
 10
4.120268393484358
 20
78.31231947697495
 10
4.16832223637356
 20
78.2006038714306
 10
4.22886654323791
 20
78.09513410347319
 10
4.301348554263276
 20
77.99701576841
 10
4.385215509648315
 20
77.90735446155207
 10
4.479914649596154
 20
77.82725577821363
  0
LINE
  5
B9
330
A4
100
AcDbEntity
  8
STANDARD
 62
10
370
5
100
AcDbLine
 10
6.153312274786864
 20
79.32363489477834
 30
0.0
 11
4.459936824359785
 21
79.32363489477832
 31
0.0
  0
LINE
  5
BA
330
A4
100
AcDbEntity
  8
STANDARD
 62
10
370
5
100
AcDbLine
 10
6.153312274786933
 20
77.63025944435579
 30
0.0
 11
4.459936824359853
 21
77.63025944435577
 31
0.0
  0
LINE
  5
BB
330
A4
100
AcDbEntity
  8
STANDARD
 62
10
370
5
100
AcDbLine
 10
7.423343862602454
 20
78.47694716956606
 30
0.0
 11
7.000000000000032
 21
75.09019626871554
 31
0.0
  0
LINE
  5
BC
330
A4
100
AcDbEntity
  8
STANDARD
 62
10
370
5
100
AcDbLine
 10
7.846687725212185
 20
78.05360330696101
 30
0.0
 11
7.000000000000032
 21
74.66685240611035
 31
0.0
  0
LINE
  5
BD
330
A4
100
AcDbEntity
  8
STANDARD
 62
10
370
5
100
AcDbLine
 10
8.693375450417976
 20
78.05360330696102
 30
0.0
 11
8.270031587815552
 21
74.66685240611037
 31
0.0
  0
LINE
  5
BE
330
A4
100
AcDbEntity
  8
STANDARD
 62
10
370
5
100
AcDbLine
 10
9.116719313028584
 20
78.47694716956609
 30
0.0
 11
8.693375450417976
 21
73.82016468089823
 31
0.0
  0
LINE
  5
BF
330
A4
100
AcDbEntity
  8
STANDARD
 62
10
370
5
100
AcDbLine
 10
9.540063175631076
 20
78.05360330696102
 30
0.0
 11
8.693375450417976
 21
74.66685240611038
 31
0.0
  0
LWPOLYLINE
  5
C0
330
A4
100
AcDbEntity
  8
STANDARD
 62
10
370
5
100
AcDbPolyline
 90
17
 70
128
 10
18.82080743993905
 20
78.20852966317857
 10
18.71260325130607
 20
78.10173299628427
 10
18.6220944538827
 20
77.98245858273816
 10
18.54994010235804
 20
77.85284916587534
 10
18.49679925141568
 20
77.71504748902493
 10
18.46333095573482
 20
77.57119629551839
 10
18.45019426999629
 20
77.42343832868659
 10
18.45804824888456
 20
77.27391633185732
 10
18.48755194707614
 20
77.12477304836567
 10
18.53806407076174
 20
76.98137520857294
 10
18.6074044527295
 20
76.84867090196441
 10
18.6939154273596
 20
76.72816900449014
 10
18.79593932904667
 20
76.62137839210386
 10
18.91181849216268
 20
76.52980794075766
 10
19.03989525109678
 20
76.45496652640311
 10
19.1785119402284
 20
76.3983630249905
 10
19.32601089393755
 20
76.36150631247708
  0
ENDBLK
  5
A6
330
A4
100
AcDbEntity
  8
0
100
AcDbBlockEnd
  0
ENDSEC
  0
SECTION
  2
ENTITIES
  0
INSERT
  5
C3
330
17
100
AcDbEntity
  8
0
100
AcDbBlockReference
  2
00 stalendeurprofiel - 00_DI_stalendeurprofiel-3717858-00_0 Basismaterialen
 10
0.0
 20
0.0
 30
0.0
  0
ENDSEC
  0
SECTION
  2
OBJECTS
  0
DICTIONARY
  5
A
330
0
100
AcDbDictionary
281
1
  3
ACAD_COLOR
350
B
  3
ACAD_GROUP
350
C
  3
ACAD_LAYOUT
350
D
  3
ACAD_MATERIAL
350
E
  3
ACAD_MLEADERSTYLE
350
F
  3
ACAD_MLINESTYLE
350
10
  3
ACAD_PLOTSETTINGS
350
11
  3
ACAD_PLOTSTYLENAME
350
12
  3
ACAD_SCALELIST
350
14
  3
ACAD_TABLESTYLE
350
15
  3
ACAD_VISUALSTYLE
350
16
  3
EZDXF_META
350
2D
  0
DICTIONARY
  5
B
330
A
100
AcDbDictionary
281
1
  0
DICTIONARY
  5
C
330
A
100
AcDbDictionary
281
1
  0
DICTIONARY
  5
D
330
A
100
AcDbDictionary
281
1
  3
Model
350
1A
  3
Layout1
350
1E
  0
DICTIONARY
  5
E
330
A
100
AcDbDictionary
281
1
  3
ByBlock
350
1F
  3
ByLayer
350
20
  3
Global
350
21
  0
DICTIONARY
  5
F
330
A
100
AcDbDictionary
281
1
  3
Standard
350
2C
  0
DICTIONARY
  5
10
330
A
100
AcDbDictionary
281
1
  3
Standard
350
22
  0
DICTIONARY
  5
11
330
A
100
AcDbDictionary
281
1
  0
ACDBDICTIONARYWDFLT
  5
12
330
A
100
AcDbDictionary
281
1
  3
Normal
350
13
100
AcDbDictionaryWithDefault
340
13
  0
ACDBPLACEHOLDER
  5
13
330
12
  0
DICTIONARY
  5
14
330
A
100
AcDbDictionary
281
1
  0
DICTIONARY
  5
15
330
A
100
AcDbDictionary
281
1
  0
DICTIONARY
  5
16
330
A
100
AcDbDictionary
281
1
  0
LAYOUT
  5
1A
330
D
100
AcDbPlotSettings
  1

  4
A3
  6

 40
7.5
 41
20.0
 42
7.5
 43
20.0
 44
420.0
 45
297.0
 46
0.0
 47
0.0
 48
0.0
 49
0.0
140
0.0
141
0.0
142
1.0
143
1.0
 70
1024
 72
1
 73
0
 74
5
  7

 75
16
 76
0
 77
2
 78
300
147
1.0
148
0.0
149
0.0
100
AcDbLayout
  1
Model
 70
1
 71
0
 10
0.0
 20
0.0
 11
420.0
 21
297.0
 12
0.0
 22
0.0
 32
0.0
 14
1e+20
 24
1e+20
 34
1e+20
 15
-1e+20
 25
-1e+20
 35
-1e+20
146
0.0
 13
0.0
 23
0.0
 33
0.0
 16
1.0
 26
0.0
 36
0.0
 17
0.0
 27
1.0
 37
0.0
 76
1
330
17
  0
LAYOUT
  5
1E
330
D
100
AcDbPlotSettings
  1

  4
A3
  6

 40
7.5
 41
20.0
 42
7.5
 43
20.0
 44
420.0
 45
297.0
 46
0.0
 47
0.0
 48
0.0
 49
0.0
140
0.0
141
0.0
142
1.0
143
1.0
 70
0
 72
1
 73
0
 74
5
  7

 75
16
 76
0
 77
2
 78
300
147
1.0
148
0.0
149
0.0
100
AcDbLayout
  1
Layout1
 70
1
 71
1
 10
0.0
 20
0.0
 11
420.0
 21
297.0
 12
0.0
 22
0.0
 32
0.0
 14
1e+20
 24
1e+20
 34
1e+20
 15
-1e+20
 25
-1e+20
 35
-1e+20
146
0.0
 13
0.0
 23
0.0
 33
0.0
 16
1.0
 26
0.0
 36
0.0
 17
0.0
 27
1.0
 37
0.0
 76
1
330
1B
  0
MATERIAL
  5
1F
102
{ACAD_REACTORS
330
E
102
}
330
E
100
AcDbMaterial
  1
ByBlock
  2

 70
0
 40
1.0
 71
1
 41
1.0
 91
-1023410177
 42
1.0
 72
1
  3

 73
1
 74
1
 75
1
 44
0.5
 73
0
 45
1.0
 46
1.0
 77
1
  4

 78
1
 79
1
170
1
 48
1.0
171
1
  6

172
1
173
1
174
1
140
1.0
141
1.0
175
1
  7

176
1
177
1
178
1
143
1.0
179
1
  8

270
1
271
1
272
1
145
1.0
146
1.0
273
1
  9

274
1
275
1
276
1
 42
1.0
 72
1
  3

 73
1
 74
1
 75
1
 94
63
  0
MATERIAL
  5
20
102
{ACAD_REACTORS
330
E
102
}
330
E
100
AcDbMaterial
  1
ByLayer
  2

 70
0
 40
1.0
 71
1
 41
1.0
 91
-1023410177
 42
1.0
 72
1
  3

 73
1
 74
1
 75
1
 44
0.5
 73
0
 45
1.0
 46
1.0
 77
1
  4

 78
1
 79
1
170
1
 48
1.0
171
1
  6

172
1
173
1
174
1
140
1.0
141
1.0
175
1
  7

176
1
177
1
178
1
143
1.0
179
1
  8

270
1
271
1
272
1
145
1.0
146
1.0
273
1
  9

274
1
275
1
276
1
 42
1.0
 72
1
  3

 73
1
 74
1
 75
1
 94
63
  0
MATERIAL
  5
21
102
{ACAD_REACTORS
330
E
102
}
330
E
100
AcDbMaterial
  1
Global
  2

 70
0
 40
1.0
 71
1
 41
1.0
 91
-1023410177
 42
1.0
 72
1
  3

 73
1
 74
1
 75
1
 44
0.5
 73
0
 45
1.0
 46
1.0
 77
1
  4

 78
1
 79
1
170
1
 48
1.0
171
1
  6

172
1
173
1
174
1
140
1.0
141
1.0
175
1
  7

176
1
177
1
178
1
143
1.0
179
1
  8

270
1
271
1
272
1
145
1.0
146
1.0
273
1
  9

274
1
275
1
276
1
 42
1.0
 72
1
  3

 73
1
 74
1
 75
1
 94
63
  0
MLINESTYLE
  5
22
102
{ACAD_REACTORS
330
10
102
}
330
10
100
AcDbMlineStyle
  2
Standard
 70
0
  3

 62
256
 51
90.0
 52
90.0
 71
2
 49
0.5
 62
256
  6
BYLAYER
 49
-0.5
 62
256
  6
BYLAYER
  0
MLEADERSTYLE
  5
2C
102
{ACAD_REACTORS
330
F
102
}
330
F
100
AcDbMLeaderStyle
179
2
170
2
171
1
172
0
 90
2
 40
0.0
 41
0.0
173
1
 91
-1056964608
 92
-2
290
1
 42
2.0
291
1
 43
8.0
  3
Standard
 44
4.0
300

342
29
174
1
175
1
176
0
178
1
 93
-1056964608
 45
4.0
292
0
297
0
 46
4.0
 94
-1056964608
 47
1.0
 49
1.0
140
1.0
294
1
141
0.0
177
0
142
1.0
295
0
296
0
143
3.75
271
0
272
9
273
9
  0
DICTIONARY
  5
2D
330
A
100
AcDbDictionary
280
1
281
1
  3
CREATED_BY_EZDXF
350
2E
  3
WRITTEN_BY_EZDXF
350
C7
  0
DICTIONARYVAR
  5
2E
330
2D
100
DictionaryVariables
280
0
  1
1.4.3 @ 2026-02-13T04:54:06.282848+00:00
  0
DICTIONARYVAR
  5
C7
330
2D
100
DictionaryVariables
280
0
  1
1.4.3 @ 2026-02-13T04:54:06.293034+00:00
  0
ENDSEC
  0
EOF
