  0
SECTION
  2
HEADER
  9
$ACADVER
  1
AC1018
  9
$ACADMAINTVER
 70
    39
  9
$DWGCODEPAGE
  3
ANSI_1252
  9
$LASTSAVEDBY
  1
uhlaender
  9
$INSBASE
 10
1211.045471065459
 20
2334.809405072851
 30
0.0
  9
$EXTMIN
 10
1092.250000000002
 20
2151.102458529512
 30
0.0
  9
$EXTMAX
 10
1546.520255543996
 20
2575.073328785804
 30
0.0
  9
$LIMMIN
 10
0.0
 20
0.0
  9
$LIMMAX
 10
841.0
 20
1189.0
  9
$ORTHOMODE
 70
     1
  9
$REGENMODE
 70
     1
  9
$FILLMODE
 70
     1
  9
$QTEXTMODE
 70
     0
  9
$MIRRTEXT
 70
     1
  9
$LTSCALE
 40
5.0
  9
$ATTMODE
 70
     1
  9
$TEXTSIZE
 40
3.5
  9
$TRACEWID
 40
0.05
  9
$TEXTSTYLE
  7
ARIAL50
  9
$CLAYER
  8
HALFEN
  9
$CELTYPE
  6
BYLAYER
  9
$CECOLOR
 62
   256
  9
$CELTSCALE
 40
1.0
  9
$DISPSILH
 70
     0
  9
$DIMSCALE
 40
1.0
  9
$DIMASZ
 40
2.5
  9
$DIMEXO
 40
1.0
  9
$DIMDLI
 40
10.0
  9
$DIMRND
 40
0.0
  9
$DIMDLE
 40
0.0
  9
$DIMEXE
 40
1.0
  9
$DIMTP
 40
0.1
  9
$DIMTM
 40
0.1
  9
$DIMTXT
 40
3.5
  9
$DIMCEN
 40
0.09
  9
$DIMTSZ
 40
0.0
  9
$DIMTOL
 70
     0
  9
$DIMLIM
 70
     0
  9
$DIMTIH
 70
     0
  9
$DIMTOH
 70
     0
  9
$DIMSE1
 70
     0
  9
$DIMSE2
 70
     0
  9
$DIMTAD
 70
     1
  9
$DIMZIN
 70
     8
  9
$DIMBLK
  1

  9
$DIMASO
 70
     1
  9
$DIMSHO
 70
     1
  9
$DIMPOST
  1

  9
$DIMAPOST
  1

  9
$DIMALT
 70
     0
  9
$DIMALTD
 70
     2
  9
$DIMALTF
 40
0.0393701
  9
$DIMLFAC
 40
1.0
  9
$DIMTOFL
 70
     1
  9
$DIMTVP
 40
0.0
  9
$DIMTIX
 70
     0
  9
$DIMSOXD
 70
     0
  9
$DIMSAH
 70
     0
  9
$DIMBLK1
  1

  9
$DIMBLK2
  1

  9
$DIMSTYLE
  2
GEN-ISO
  9
$DIMCLRD
 70
     1
  9
$DIMCLRE
 70
     1
  9
$DIMCLRT
 70
     7
  9
$DIMTFAC
 40
0.71
  9
$DIMGAP
 40
3.0
  9
$DIMJUST
 70
     0
  9
$DIMSD1
 70
     0
  9
$DIMSD2
 70
     0
  9
$DIMTOLJ
 70
     0
  9
$DIMTZIN
 70
     0
  9
$DIMALTZ
 70
     0
  9
$DIMALTTZ
 70
     0
  9
$DIMUPT
 70
     0
  9
$DIMDEC
 70
     1
  9
$DIMTDEC
 70
     3
  9
$DIMALTU
 70
     2
  9
$DIMALTTD
 70
     4
  9
$DIMTXSTY
  7
STANDARD
  9
$DIMAUNIT
 70
     0
  9
$DIMADEC
 70
     0
  9
$DIMALTRND
 40
0.0
  9
$DIMAZIN
 70
     0
  9
$DIMDSEP
 70
    46
  9
$DIMATFIT
 70
     3
  9
$DIMFRAC
 70
     0
  9
$DIMLDRBLK
  1

  9
$DIMLUNIT
 70
     2
  9
$DIMLWD
 70
    -2
  9
$DIMLWE
 70
    -2
  9
$DIMTMOVE
 70
     0
  9
$LUNITS
 70
     2
  9
$LUPREC
 70
     2
  9
$SKETCHINC
 40
0.1
  9
$FILLETRAD
 40
0.0
  9
$AUNITS
 70
     0
  9
$AUPREC
 70
     0
  9
$MENU
  1
.
  9
$ELEVATION
 40
0.0
  9
$PELEVATION
 40
0.0
  9
$THICKNESS
 40
0.0
  9
$LIMCHECK
 70
     0
  9
$CHAMFERA
 40
2.5
  9
$CHAMFERB
 40
2.5
  9
$CHAMFERC
 40
1.0
  9
$CHAMFERD
 40
0.0
  9
$SKPOLY
 70
     0
  9
$TDCREATE
 40
2451438.371298843
  9
$TDUCREATE
 40
2451438.287965509
  9
$TDUPDATE
 40
2453937.436583288
  9
$TDUUPDATE
 40
2453937.353249953
  9
$TDINDWG
 40
1.3797355208
  9
$TDUSRTIMER
 40
1.3797355208
  9
$USRTIMER
 70
     1
  9
$ANGBASE
 50
0.0
  9
$ANGDIR
 70
     0
  9
$PDMODE
 70
     0
  9
$PDSIZE
 40
0.0
  9
$PLINEWID
 40
0.0
  9
$SPLFRAME
 70
     0
  9
$SPLINETYPE
 70
     6
  9
$SPLINESEGS
 70
     8
  9
$HANDSEED
  5
2C0
  9
$SURFTAB1
 70
     6
  9
$SURFTAB2
 70
     6
  9
$SURFTYPE
 70
     6
  9
$SURFU
 70
     6
  9
$SURFV
 70
     6
  9
$UCSBASE
  2

  9
$UCSNAME
  2

  9
$UCSORG
 10
0.0
 20
0.0
 30
0.0
  9
$UCSXDIR
 10
1.0
 20
0.0
 30
0.0
  9
$UCSYDIR
 10
0.0
 20
1.0
 30
0.0
  9
$UCSORTHOREF
  2

  9
$UCSORTHOVIEW
 70
     0
  9
$UCSORGTOP
 10
0.0
 20
0.0
 30
0.0
  9
$UCSORGBOTTOM
 10
0.0
 20
0.0
 30
0.0
  9
$UCSORGLEFT
 10
0.0
 20
0.0
 30
0.0
  9
$UCSORGRIGHT
 10
0.0
 20
0.0
 30
0.0
  9
$UCSORGFRONT
 10
0.0
 20
0.0
 30
0.0
  9
$UCSORGBACK
 10
0.0
 20
0.0
 30
0.0
  9
$PUCSBASE
  2

  9
$PUCSNAME
  2

  9
$PUCSORG
 10
0.0
 20
0.0
 30
0.0
  9
$PUCSXDIR
 10
1.0
 20
0.0
 30
0.0
  9
$PUCSYDIR
 10
0.0
 20
1.0
 30
0.0
  9
$PUCSORTHOREF
  2

  9
$PUCSORTHOVIEW
 70
     0
  9
$PUCSORGTOP
 10
0.0
 20
0.0
 30
0.0
  9
$PUCSORGBOTTOM
 10
0.0
 20
0.0
 30
0.0
  9
$PUCSORGLEFT
 10
0.0
 20
0.0
 30
0.0
  9
$PUCSORGRIGHT
 10
0.0
 20
0.0
 30
0.0
  9
$PUCSORGFRONT
 10
0.0
 20
0.0
 30
0.0
  9
$PUCSORGBACK
 10
0.0
 20
0.0
 30
0.0
  9
$USERI1
 70
     0
  9
$USERI2
 70
     0
  9
$USERI3
 70
     0
  9
$USERI4
 70
     0
  9
$USERI5
 70
     0
  9
$USERR1
 40
0.0
  9
$USERR2
 40
0.0
  9
$USERR3
 40
0.0
  9
$USERR4
 40
0.0
  9
$USERR5
 40
0.0
  9
$WORLDVIEW
 70
     1
  9
$SHADEDGE
 70
     3
  9
$SHADEDIF
 70
    70
  9
$TILEMODE
 70
     1
  9
$MAXACTVP
 70
    48
  9
$PINSBASE
 10
0.0
 20
0.0
 30
0.0
  9
$PLIMCHECK
 70
     0
  9
$PEXTMIN
 10
1.000000000000000E+20
 20
1.000000000000000E+20
 30
1.000000000000000E+20
  9
$PEXTMAX
 10
-1.000000000000000E+20
 20
-1.000000000000000E+20
 30
-1.000000000000000E+20
  9
$PLIMMIN
 10
0.0
 20
0.0
  9
$PLIMMAX
 10
12.0
 20
9.0
  9
$UNITMODE
 70
     0
  9
$VISRETAIN
 70
     1
  9
$PLINEGEN
 70
     0
  9
$PSLTSCALE
 70
     1
  9
$TREEDEPTH
 70
  3020
  9
$CMLSTYLE
  2
STANDARD
  9
$CMLJUST
 70
     0
  9
$CMLSCALE
 40
1.0
  9
$PROXYGRAPHICS
 70
     1
  9
$MEASUREMENT
 70
     1
  9
$CELWEIGHT
370
    -1
  9
$ENDCAPS
280
     0
  9
$JOINSTYLE
280
     0
  9
$LWDISPLAY
290
     0
  9
$INSUNITS
 70
     4
  9
$HYPERLINKBASE
  1

  9
$STYLESHEET
  1

  9
$XEDIT
290
     1
  9
$CEPSNTYPE
380
     0
  9
$PSTYLEMODE
290
     1
  9
$FINGERPRINTGUID
  2
{0EFB4027-046E-45FA-9726-21ACC95C20C4}
  9
$VERSIONGUID
  2
{D84565CF-230B-4223-BB92-C84236464A8D}
  9
$EXTNAMES
290
     1
  9
$PSVPSCALE
 40
0.0
  9
$OLESTARTUP
290
     0
  9
$SORTENTS
280
   127
  9
$INDEXCTL
280
     0
  9
$HIDETEXT
280
     1
  9
$XCLIPFRAME
290
     0
  9
$HALOGAP
280
     0
  9
$OBSCOLOR
 70
   257
  9
$OBSLTYPE
280
     0
  9
$INTERSECTIONDISPLAY
280
     0
  9
$INTERSECTIONCOLOR
 70
   257
  9
$DIMASSOC
280
     1
  9
$PROJECTNAME
  1

  0
ENDSEC
  0
SECTION
  2
CLASSES
  0
CLASS
  1
ACDBDICTIONARYWDFLT
  2
AcDbDictionaryWithDefault
  3
ObjectDBX Classes
 90
        0
 91
        1
280
     0
281
     0
  0
CLASS
  1
TABLESTYLE
  2
AcDbTableStyle
  3
ObjectDBX Classes
 90
     2047
 91
        1
280
     0
281
     0
  0
CLASS
  1
DICTIONARYVAR
  2
AcDbDictionaryVar
  3
ObjectDBX Classes
 90
        0
 91
        4
280
     0
281
     0
  0
CLASS
  1
SORTENTSTABLE
  2
AcDbSortentsTable
  3
ObjectDBX Classes
 90
        0
 91
        1
280
     0
281
     0
  0
ENDSEC
  0
SECTION
  2
TABLES
  0
TABLE
  2
VPORT
  5
19
330
0
100
AcDbSymbolTable
 70
     3
  0
VPORT
  5
2BF
330
19
100
AcDbSymbolTableRecord
100
AcDbViewportTableRecord
  2
*Active
 70
     0
 10
0.0
 20
0.0
 11
1.0
 21
1.0
 12
1319.337045987747
 22
2363.142768962133
 13
0.0
 23
0.0
 14
273.4512969780281
 24
273.4512969780281
 15
10.0
 25
10.0
 16
0.0
 26
0.0
 36
1.0
 17
0.0
 27
0.0
 37
0.0
 40
426.9815004844567
 41
1.656732891832229
 42
50.0
 43
0.0
 44
0.0
 50
0.0
 51
0.0
 71
     0
 72
   100
 73
     1
 74
     1
 75
     0
 76
     1
 77
     0
 78
     1
281
     0
 65
     1
110
0.0
120
0.0
130
0.0
111
1.0
121
0.0
131
0.0
112
0.0
122
1.0
132
0.0
 79
     0
146
0.0
  0
ENDTAB
  0
TABLE
  2
LTYPE
  5
14
330
0
100
AcDbSymbolTable
 70
     2
  0
LTYPE
  5
15
330
14
100
AcDbSymbolTableRecord
100
AcDbLinetypeTableRecord
  2
BYBLOCK
 70
     0
  3

 72
    65
 73
     0
 40
0.0
  0
LTYPE
  5
16
330
14
100
AcDbSymbolTableRecord
100
AcDbLinetypeTableRecord
  2
BYLAYER
 70
     0
  3

 72
    65
 73
     0
 40
0.0
  0
LTYPE
  5
8
330
14
100
AcDbSymbolTableRecord
100
AcDbLinetypeTableRecord
  2
CONTINUOUS
 70
     0
  3
Solid line
 72
    65
 73
     0
 40
0.0
  0
LTYPE
  5
36
330
14
100
AcDbSymbolTableRecord
100
AcDbLinetypeTableRecord
  2
MITTE2
 70
     0
  3
Mitte (.5x) ___ _ ___ _ ___ _ ___ _ ___ _ ___
 72
    65
 73
     4
 40
1.125
 49
0.75
 74
     0
 49
-0.125
 74
     0
 49
0.125
 74
     0
 49
-0.125
 74
     0
  0
ENDTAB
  0
TABLE
  2
LAYER
  5
10
330
0
100
AcDbSymbolTable
 70
     2
  0
LAYER
  5
4
330
10
100
AcDbSymbolTableRecord
100
AcDbLayerTableRecord
  2
0
 70
     0
 62
     7
  6
CONTINUOUS
370
    -3
390
5
  0
LAYER
  5
25
330
10
100
AcDbSymbolTableRecord
100
AcDbLayerTableRecord
  2
HALFEN
 70
     0
 62
     2
  6
CONTINUOUS
370
    -3
390
5
  0
ENDTAB
  0
TABLE
  2
STYLE
  5
11
330
0
100
AcDbSymbolTable
 70
     2
  0
STYLE
  5
12
330
11
100
AcDbSymbolTableRecord
100
AcDbTextStyleTableRecord
  2
STANDARD
 70
     0
 40
0.0
 41
1.0
 50
0.0
 71
     0
 42
0.2
  3
geniso.shx
  4

  0
STYLE
  5
26
330
11
100
AcDbSymbolTableRecord
100
AcDbTextStyleTableRecord
  2
ARIAL50
 70
     0
 40
5.0
 41
1.0
 50
0.0
 71
     0
 42
3.5
  3
ARIAL.TTF
  4

1001
ACAD
1000
Arial
1071
       34
  0
ENDTAB
  0
TABLE
  2
VIEW
  5
17
330
0
100
AcDbSymbolTable
 70
     0
  0
ENDTAB
  0
TABLE
  2
UCS
  5
18
330
0
100
AcDbSymbolTable
 70
     0
  0
ENDTAB
  0
TABLE
  2
APPID
  5
1B
330
0
100
AcDbSymbolTable
 70
     5
  0
APPID
  5
1C
330
1B
100
AcDbSymbolTableRecord
100
AcDbRegAppTableRecord
  2
ACAD
 70
     0
  0
APPID
  5
37
330
1B
100
AcDbSymbolTableRecord
100
AcDbRegAppTableRecord
  2
GENIUS_GENOREF_13
 70
     0
  0
APPID
  5
5E
330
1B
100
AcDbSymbolTableRecord
100
AcDbRegAppTableRecord
  2
GENIUS_GENODEF_13
 70
     0
  0
APPID
  5
5F
330
1B
100
AcDbSymbolTableRecord
100
AcDbRegAppTableRecord
  2
GENIUS_GENOBJ-N-FIL_13
 70
     0
  0
APPID
  5
108
330
1B
100
AcDbSymbolTableRecord
100
AcDbRegAppTableRecord
  2
DCO15
 70
     0
  0
ENDTAB
  0
TABLE
  2
DIMSTYLE
  5
1D
330
0
100
AcDbSymbolTable
 70
     1
100
AcDbDimStyleTable
 71
     0
  0
DIMSTYLE
105
29
330
1D
100
AcDbSymbolTableRecord
100
AcDbDimStyleTableRecord
  2
GEN-ISO
 70
     0
 41
2.5
 42
1.0
 43
10.0
 44
1.0
 47
0.1
 48
0.1
 73
     0
 74
     0
 77
     1
 78
     8
140
3.5
141
0.0
143
0.0393701
146
0.71
147
3.0
172
     1
176
     1
177
     1
178
     7
271
     1
272
     3
274
     4
283
     0
340
12
  0
ENDTAB
  0
TABLE
  2
BLOCK_RECORD
  5
1
330
0
100
AcDbSymbolTable
 70
     0
  0
BLOCK_RECORD
  5
2
102
{ACAD_XDICTIONARY
360
1D2
102
}
330
1
100
AcDbSymbolTableRecord
100
AcDbBlockTableRecord
  2
*MODEL_SPACE
340
A
  0
BLOCK_RECORD
  5
C
330
1
100
AcDbSymbolTableRecord
100
AcDbBlockTableRecord
  2
*PAPER_SPACE
340
F
  0
ENDTAB
  0
ENDSEC
  0
SECTION
  2
BLOCKS
  0
BLOCK
  5
3
330
2
100
AcDbEntity
  8
0
100
AcDbBlockBegin
  2
*MODEL_SPACE
 70
     0
 10
0.0
 20
0.0
 30
0.0
  3
*MODEL_SPACE
  1

  0
ENDBLK
  5
9
330
2
100
AcDbEntity
  8
0
100
AcDbBlockEnd
  0
BLOCK
  5
D
330
C
100
AcDbEntity
 67
     1
  8
0
100
AcDbBlockBegin
  2
*PAPER_SPACE
 70
     0
 10
0.0
 20
0.0
 30
0.0
  3
*PAPER_SPACE
  1

  0
ENDBLK
  5
E
330
C
100
AcDbEntity
 67
     1
  8
0
100
AcDbBlockEnd
  0
ENDSEC
  0
SECTION
  2
ENTITIES
  0
TEXT
  5
2A
330
2
100
AcDbEntity
  8
HALFEN
100
AcDbText
 10
1147.250000000002
 20
2548.749999999993
 30
0.0
 40
5.0
  1
0038.010-00001
  7
ARIAL50
100
AcDbText
  0
TEXT
  5
2B
330
2
100
AcDbEntity
  8
HALFEN
100
AcDbText
 10
1147.250000000002
 20
2558.749999999993
 30
0.0
 40
5.0
  1
HSF 6/12 - fv
  7
ARIAL50
100
AcDbText
  0
LINE
  5
2C
330
2
100
AcDbEntity
  8
HALFEN
100
AcDbLine
 10
1092.250000000002
 20
2546.249999999993
 30
0.0
 11
1242.250000000002
 21
2546.249999999993
 31
0.0
  0
LINE
  5
2D
330
2
100
AcDbEntity
  8
HALFEN
100
AcDbLine
 10
1092.250000000002
 20
2556.249999999993
 30
0.0
 11
1242.250000000002
 21
2556.249999999993
 31
0.0
  0
LINE
  5
2E
330
2
100
AcDbEntity
  8
HALFEN
100
AcDbLine
 10
1092.250000000002
 20
2566.249999999993
 30
0.0
 11
1242.250000000002
 21
2566.249999999993
 31
0.0
  0
TEXT
  5
2F
330
2
100
AcDbEntity
  8
HALFEN
100
AcDbText
 10
1092.250000000002
 20
2568.749999999993
 30
0.0
 40
5.0
  1
fv
  7
ARIAL50
100
AcDbText
  0
LINE
  5
30
330
2
100
AcDbEntity
  8
HALFEN
100
AcDbLine
 10
1092.250000000002
 20
2546.249999999993
 30
0.0
 11
1092.250000000002
 21
2566.249999999993
 31
0.0
  0
TEXT
  5
31
330
2
100
AcDbEntity
  8
HALFEN
100
AcDbText
 10
1097.250000000002
 20
2558.749999999993
 30
0.0
 40
5.0
  1
Benennung
  7
ARIAL50
100
AcDbText
  0
TEXT
  5
32
330
2
100
AcDbEntity
  8
HALFEN
100
AcDbText
 10
1097.250000000002
 20
2548.749999999993
 30
0.0
 40
5.0
  1
Id. Nr.
  7
ARIAL50
100
AcDbText
  0
LINE
  5
33
330
2
100
AcDbEntity
  8
HALFEN
100
AcDbLine
 10
1142.250000000002
 20
2546.249999999993
 30
0.0
 11
1142.250000000002
 21
2566.249999999993
 31
0.0
  0
LINE
  5
34
330
2
100
AcDbEntity
  8
HALFEN
100
AcDbLine
 10
1242.250000000002
 20
2546.249999999993
 30
0.0
 11
1242.250000000002
 21
2566.249999999993
 31
0.0
  0
LINE
  5
35
330
2
100
AcDbEntity
  8
HALFEN
  6
MITTE2
 62
     1
100
AcDbLine
 10
1123.61473670975
 20
2509.924682452687
 30
0.0
 11
1129.676914536241
 21
2513.424682452687
 31
0.0
1001
GENIUS_GENOREF_13
1005
0
  0
CIRCLE
  5
38
330
2
100
AcDbEntity
  8
HALFEN
100
AcDbCircle
 10
1126.645825622996
 20
2511.674682452687
 30
0.0
 40
2.5
  0
LINE
  5
39
330
2
100
AcDbEntity
  8
HALFEN
  6
MITTE2
 62
     1
100
AcDbLine
 10
1124.895825622996
 20
2514.705771365933
 30
0.0
 11
1128.395825622996
 21
2508.643593539442
 31
0.0
1001
GENIUS_GENOREF_13
1005
0
  0
LINE
  5
3A
330
2
100
AcDbEntity
  8
HALFEN
100
AcDbLine
 10
1092.250000000002
 20
2506.249999999993
 30
0.0
 11
1126.891016151379
 21
2526.249999999993
 31
0.0
  0
LINE
  5
3B
330
2
100
AcDbEntity
  8
HALFEN
100
AcDbLine
 10
1126.891016151379
 20
2526.249999999993
 30
0.0
 11
1175.391016151379
 21
2442.245535832902
 31
0.0
  0
LINE
  5
3C
330
2
100
AcDbEntity
  8
HALFEN
100
AcDbLine
 10
1145.886857111114
 20
2438.657078564782
 30
0.0
 11
1204.234533764047
 21
2438.657078564782
 31
0.0
  0
LINE
  5
3D
330
2
100
AcDbEntity
  8
HALFEN
100
AcDbLine
 10
1137.07050807569
 20
2388.657078564782
 30
0.0
 11
1309.070508075691
 21
2388.657078564782
 31
0.0
  0
LINE
  5
3E
330
2
100
AcDbEntity
  8
HALFEN
  6
MITTE2
 62
     1
100
AcDbLine
 10
1129.464101615139
 20
2449.793285244544
 30
0.0
 11
1135.52627944163
 21
2453.293285244543
 31
0.0
1001
GENIUS_GENOREF_13
1005
0
  0
CIRCLE
  5
3F
330
2
100
AcDbEntity
  8
HALFEN
100
AcDbCircle
 10
1132.495190528385
 20
2451.543285244544
 30
0.0
 40
2.5
  0
LINE
  5
40
330
2
100
AcDbEntity
  8
HALFEN
  6
MITTE2
 62
     1
100
AcDbLine
 10
1130.745190528385
 20
2454.574374157789
 30
0.0
 11
1134.245190528385
 21
2448.512196331298
 31
0.0
1001
GENIUS_GENOREF_13
1005
0
  0
LINE
  5
41
330
2
100
AcDbEntity
  8
HALFEN
100
AcDbLine
 10
1092.250000000002
 20
2506.249999999993
 30
0.0
 11
1142.468283137197
 21
2419.269382137491
 31
0.0
  0
LINE
  5
42
330
2
100
AcDbEntity
  8
HALFEN
  6
MITTE2
 62
     1
100
AcDbLine
 10
1099.464101615139
 20
2501.75480947161
 30
0.0
 11
1105.52627944163
 21
2505.25480947161
 31
0.0
1001
GENIUS_GENOREF_13
1005
0
  0
CIRCLE
  5
43
330
2
100
AcDbEntity
  8
HALFEN
100
AcDbCircle
 10
1102.495190528385
 20
2503.50480947161
 30
0.0
 40
2.5
  0
CIRCLE
  5
44
330
2
100
AcDbEntity
  8
HALFEN
100
AcDbCircle
 10
1122.495190528385
 20
2468.863793320232
 30
0.0
 40
2.5
  0
LINE
  5
45
330
2
100
AcDbEntity
  8
HALFEN
  6
MITTE2
 62
     1
100
AcDbLine
 10
1119.464101615139
 20
2467.113793320232
 30
0.0
 11
1125.52627944163
 21
2470.613793320232
 31
0.0
1001
GENIUS_GENOREF_13
1005
0
  0
LINE
  5
46
330
2
100
AcDbEntity
  8
HALFEN
  6
MITTE2
 62
     1
100
AcDbLine
 10
1120.745190528385
 20
2471.894882233478
 30
0.0
 11
1124.245190528385
 21
2465.832704406986
 31
0.0
1001
GENIUS_GENOREF_13
1005
0
  0
CIRCLE
  5
47
330
2
100
AcDbEntity
  8
HALFEN
100
AcDbCircle
 10
1112.495190528385
 20
2486.184301395921
 30
0.0
 40
2.5
  0
LINE
  5
48
330
2
100
AcDbEntity
  8
HALFEN
  6
MITTE2
 62
     1
100
AcDbLine
 10
1109.464101615139
 20
2484.434301395921
 30
0.0
 11
1115.52627944163
 21
2487.934301395921
 31
0.0
1001
GENIUS_GENOREF_13
1005
0
  0
LINE
  5
49
330
2
100
AcDbEntity
  8
HALFEN
  6
MITTE2
 62
     1
100
AcDbLine
 10
1110.745190528385
 20
2489.215390309166
 30
0.0
 11
1114.245190528385
 21
2483.153212482675
 31
0.0
1001
GENIUS_GENOREF_13
1005
0
  0
LINE
  5
4A
330
2
100
AcDbEntity
  8
HALFEN
  6
MITTE2
 62
     1
100
AcDbLine
 10
1100.745190528385
 20
2506.535898384855
 30
0.0
 11
1104.245190528385
 21
2500.473720558364
 31
0.0
1001
GENIUS_GENOREF_13
1005
0
  0
LINE
  5
4B
330
2
100
AcDbEntity
  8
HALFEN
  6
MITTE2
 62
     1
100
AcDbLine
 10
1167.07050807569
 20
2435.807501355459
 30
0.0
 11
1167.07050807569
 21
2397.506655774105
 31
0.0
  0
LWPOLYLINE
  5
4C
330
2
100
AcDbEntity
  8
HALFEN
100
AcDbPolyline
 90
        6
 70
     1
 43
0.0
 10
1158.832915080352
 20
2430.925008164783
 10
1150.595322085013
 20
2416.657078564782
 10
1158.832915080351
 20
2402.389148964783
 10
1175.308101071029
 20
2402.389148964783
 10
1183.545694066367
 20
2416.657078564782
 10
1175.30810107103
 20
2430.925008164783
  0
CIRCLE
  5
4D
330
2
100
AcDbEntity
  8
HALFEN
100
AcDbCircle
 10
1167.07050807569
 20
2416.657078564782
 30
0.0
 40
14.2679296
  0
LINE
  5
4E
330
2
100
AcDbEntity
  8
HALFEN
100
AcDbLine
 10
1137.07050807569
 20
2388.657078564782
 30
0.0
 11
1145.886857111114
 21
2438.657078564782
 31
0.0
  0
LINE
  5
4F
330
2
100
AcDbEntity
  8
HALFEN
  6
MITTE2
 62
     1
100
AcDbLine
 10
1186.220930866367
 20
2416.657078564782
 30
0.0
 11
1147.920085285013
 21
2416.657078564782
 31
0.0
  0
LINE
  5
50
330
2
100
AcDbEntity
  8
HALFEN
  6
MITTE2
 62
     1
100
AcDbLine
 10
1153.61473670975
 20
2457.963158225621
 30
0.0
 11
1159.676914536241
 21
2461.463158225621
 31
0.0
1001
GENIUS_GENOREF_13
1005
0
  0
LINE
  5
51
330
2
100
AcDbEntity
  8
HALFEN
  6
MITTE2
 62
     1
100
AcDbLine
 10
1154.895825622996
 20
2462.744247138866
 30
0.0
 11
1158.395825622996
 21
2456.682069312376
 31
0.0
1001
GENIUS_GENOREF_13
1005
0
  0
CIRCLE
  5
52
330
2
100
AcDbEntity
  8
HALFEN
100
AcDbCircle
 10
1156.645825622996
 20
2459.713158225621
 30
0.0
 40
2.5
  0
LINE
  5
53
330
2
100
AcDbEntity
  8
HALFEN
  6
MITTE2
 62
     1
100
AcDbLine
 10
1143.61473670975
 20
2475.28366630131
 30
0.0
 11
1149.676914536241
 21
2478.78366630131
 31
0.0
1001
GENIUS_GENOREF_13
1005
0
  0
LINE
  5
54
330
2
100
AcDbEntity
  8
HALFEN
  6
MITTE2
 62
     1
100
AcDbLine
 10
1144.895825622996
 20
2480.064755214555
 30
0.0
 11
1148.395825622996
 21
2474.002577388064
 31
0.0
1001
GENIUS_GENOREF_13
1005
0
  0
CIRCLE
  5
55
330
2
100
AcDbEntity
  8
HALFEN
100
AcDbCircle
 10
1146.645825622996
 20
2477.03366630131
 30
0.0
 40
2.5
  0
LINE
  5
56
330
2
100
AcDbEntity
  8
HALFEN
  6
MITTE2
 62
     1
100
AcDbLine
 10
1134.895825622996
 20
2497.385263290244
 30
0.0
 11
1138.395825622996
 21
2491.323085463753
 31
0.0
1001
GENIUS_GENOREF_13
1005
0
  0
LINE
  5
57
330
2
100
AcDbEntity
  8
HALFEN
  6
MITTE2
 62
     1
100
AcDbLine
 10
1133.61473670975
 20
2492.604174376999
 30
0.0
 11
1139.676914536241
 21
2496.104174376998
 31
0.0
1001
GENIUS_GENOREF_13
1005
0
  0
CIRCLE
  5
58
330
2
100
AcDbEntity
  8
HALFEN
100
AcDbCircle
 10
1136.645825622996
 20
2494.354174376999
 30
0.0
 40
2.5
  0
LINE
  5
59
330
2
100
AcDbEntity
  8
HALFEN
100
AcDbLine
 10
1170.194863728672
 20
2439.245535832902
 30
0.0
 11
1177.123066958948
 21
2443.245535832903
 31
0.0
  0
LINE
  5
5A
330
2
100
AcDbEntity
  8
HALFEN
100
AcDbLine
 10
1179.772213997862
 20
2438.657078564782
 30
0.0
 11
1177.123066958948
 21
2443.245535832903
 31
0.0
  0
LINE
  5
5B
330
2
100
AcDbEntity
  8
HALFEN
100
AcDbLine
 10
1257.010480596526
 20
2401.657078564782
 30
0.0
 11
1309.070508075691
 21
2401.657078564782
 31
0.0
  0
LINE
  5
5C
330
2
100
AcDbEntity
  8
HALFEN
100
AcDbLine
 10
1215.528002874909
 20
2433.529137896148
 30
0.0
 11
1234.423542374802
 21
2411.91295990205
 31
0.0
  0
ARC
  5
5D
330
2
100
AcDbEntity
  8
HALFEN
100
AcDbCircle
 10
1257.010480596526
 20
2431.657078564783
 30
0.0
 40
30.0
100
AcDbArc
 50
221.1579660970292
 51
270.0
1001
GENIUS_GENODEF_13
1002
{
1000
HIER
1070
     0
1002
}
1002
{
1000
MANEDIT
1070
     0
1002
}
1002
{
1000
NOSEL
1070
     0
1002
}
1002
{
1000
BEHIND
1070
     0
1002
}
1002
{
1000
REACTOR
1002
}
1001
GENIUS_GENOBJ-N-FIL_13
1002
{
1000
OWNER
1000
GEN
1002
}
  0
ARC
  5
60
330
2
100
AcDbEntity
  8
HALFEN
100
AcDbCircle
 10
1204.234533764047
 20
2423.657078564783
 30
0.0
 40
15.0
100
AcDbArc
 50
41.15796609702914
 51
90.0
1001
GENIUS_GENODEF_13
1002
{
1000
HIER
1070
     0
1002
}
1002
{
1000
MANEDIT
1070
     0
1002
}
1002
{
1000
NOSEL
1070
     0
1002
}
1002
{
1000
BEHIND
1070
     0
1002
}
1002
{
1000
REACTOR
1002
}
1001
GENIUS_GENOBJ-N-FIL_13
1002
{
1000
OWNER
1000
GEN
1002
}
  0
LINE
  5
61
330
2
100
AcDbEntity
  8
HALFEN
100
AcDbLine
 10
1309.070508075691
 20
2388.657078564782
 30
0.0
 11
1309.070508075691
 21
2401.657078564782
 31
0.0
  0
ARC
  5
62
330
2
100
AcDbEntity
  8
HALFEN
100
AcDbCircle
 10
1189.892041785636
 20
2145.657078564783
 30
0.0
 40
46.0
100
AcDbArc
 50
62.62210942908044
 51
89.99999999999985
1001
GENIUS_GENODEF_13
1002
{
1000
HIER
1070
     0
1002
}
1002
{
1000
MANEDIT
1070
     0
1002
}
1002
{
1000
NOSEL
1070
     0
1002
}
1002
{
1000
BEHIND
1070
     0
1002
}
1002
{
1000
REACTOR
1002
}
1001
GENIUS_GENOBJ-N-FIL_13
1002
{
1000
OWNER
1000
GEN
1002
}
  0
ARC
  5
63
330
2
100
AcDbEntity
  8
HALFEN
100
AcDbCircle
 10
1189.892041785636
 20
2145.657078564783
 30
0.0
 40
50.0
100
AcDbArc
 50
62.62210942908044
 51
89.99999999999985
1001
GENIUS_GENODEF_13
1002
{
1000
HIER
1070
     0
1002
}
1002
{
1000
MANEDIT
1070
     0
1002
}
1002
{
1000
NOSEL
1070
     0
1002
}
1002
{
1000
BEHIND
1070
     0
1002
}
1002
{
1000
REACTOR
1002
}
1001
GENIUS_GENOBJ-N-FIL_13
1002
{
1000
OWNER
1000
GEN
1002
}
  0
LINE
  5
64
330
2
100
AcDbEntity
  8
HALFEN
100
AcDbLine
 10
1202.123066958948
 20
2225.657078564783
 30
0.0
 11
1170.194863728672
 21
2225.657078564783
 31
0.0
  0
LINE
  5
65
330
2
100
AcDbEntity
  8
HALFEN
100
AcDbLine
 10
1170.194863728672
 20
2295.657078564782
 30
0.0
 11
1202.123066958948
 21
2295.657078564782
 31
0.0
  0
ARC
  5
66
330
2
100
AcDbEntity
  8
HALFEN
100
AcDbCircle
 10
1189.892041785636
 20
2375.657078564783
 30
0.0
 40
46.0
100
AcDbArc
 50
270.0000000000002
 51
297.3778905709196
1001
GENIUS_GENODEF_13
1002
{
1000
HIER
1070
     0
1002
}
1002
{
1000
MANEDIT
1070
     0
1002
}
1002
{
1000
NOSEL
1070
     0
1002
}
1002
{
1000
BEHIND
1070
     0
1002
}
1002
{
1000
REACTOR
1002
}
1001
GENIUS_GENOBJ-N-FIL_13
1002
{
1000
OWNER
1000
GEN
1002
}
  0
ARC
  5
67
330
2
100
AcDbEntity
  8
HALFEN
100
AcDbCircle
 10
1189.892041785636
 20
2375.657078564783
 30
0.0
 40
50.0
100
AcDbArc
 50
270.0000000000002
 51
297.3778905709196
1001
GENIUS_GENODEF_13
1002
{
1000
HIER
1070
     0
1002
}
1002
{
1000
MANEDIT
1070
     0
1002
}
1002
{
1000
NOSEL
1070
     0
1002
}
1002
{
1000
BEHIND
1070
     0
1002
}
1002
{
1000
REACTOR
1002
}
1001
GENIUS_GENOBJ-N-FIL_13
1002
{
1000
OWNER
1000
GEN
1002
}
  0
LINE
  5
68
330
2
100
AcDbEntity
  8
HALFEN
100
AcDbLine
 10
1181.07050807569
 20
2317.657078564782
 30
0.0
 11
1181.07050807569
 21
2295.657078564782
 31
0.0
  0
LINE
  5
69
330
2
100
AcDbEntity
  8
HALFEN
100
AcDbLine
 10
1153.07050807569
 20
2317.657078564782
 30
0.0
 11
1153.07050807569
 21
2260.657078564782
 31
0.0
  0
LINE
  5
6A
330
2
100
AcDbEntity
  8
HALFEN
100
AcDbLine
 10
1137.07050807569
 20
2317.657078564782
 30
0.0
 11
1137.07050807569
 21
2203.657078564782
 31
0.0
  0
LINE
  5
6B
330
2
100
AcDbEntity
  8
HALFEN
100
AcDbLine
 10
1092.250000000002
 20
2200.657078564782
 30
0.0
 11
1187.07050807569
 21
2200.657078564782
 31
0.0
  0
LINE
  5
6C
330
2
100
AcDbEntity
  8
HALFEN
100
AcDbLine
 10
1187.07050807569
 20
2203.657078564782
 30
0.0
 11
1092.250000000002
 21
2203.657078564782
 31
0.0
  0
LINE
  5
6D
330
2
100
AcDbEntity
  8
HALFEN
100
AcDbLine
 10
1092.250000000002
 20
2203.657078564782
 30
0.0
 11
1092.250000000002
 21
2200.657078564782
 31
0.0
  0
LINE
  5
6E
330
2
100
AcDbEntity
  8
HALFEN
100
AcDbLine
 10
1126.891016151379
 20
2200.657078564782
 30
0.0
 11
1126.891016151379
 21
2203.657078564782
 31
0.0
  0
LINE
  5
6F
330
2
100
AcDbEntity
  8
HALFEN
100
AcDbLine
 10
1181.07050807569
 20
2203.657078564782
 30
0.0
 11
1181.07050807569
 21
2225.657078564783
 31
0.0
  0
LINE
  5
70
330
2
100
AcDbEntity
  8
HALFEN
100
AcDbLine
 10
1153.07050807569
 20
2203.657078564782
 30
0.0
 11
1153.07050807569
 21
2260.657078564782
 31
0.0
  0
LINE
  5
71
330
2
100
AcDbEntity
  8
HALFEN
100
AcDbLine
 10
1137.07050807569
 20
2195.657078564782
 30
0.0
 11
1189.892041785636
 21
2195.657078564782
 31
0.0
  0
LINE
  5
72
330
2
100
AcDbEntity
  8
HALFEN
100
AcDbLine
 10
1137.07050807569
 20
2191.657078564782
 30
0.0
 11
1189.892041785636
 21
2191.657078564782
 31
0.0
  0
LINE
  5
73
330
2
100
AcDbEntity
  8
HALFEN
100
AcDbLine
 10
1185.570508075691
 20
2191.657078564782
 30
0.0
 11
1148.57050807569
 21
2191.657078564782
 31
0.0
  0
LINE
  5
74
330
2
100
AcDbEntity
  8
HALFEN
100
AcDbLine
 10
1185.570508075691
 20
2188.657078564782
 30
0.0
 11
1148.57050807569
 21
2188.657078564782
 31
0.0
  0
LINE
  5
75
330
2
100
AcDbEntity
  8
HALFEN
100
AcDbLine
 10
1179.42675807569
 20
2176.657078564782
 30
0.0
 11
1154.71425807569
 21
2176.657078564782
 31
0.0
  0
ARC
  5
76
330
2
100
AcDbEntity
  8
HALFEN
100
AcDbCircle
 10
1167.07050807569
 20
2192.113827802742
 30
0.0
 40
15.45674923796022
100
AcDbArc
 50
237.7957724960258
 51
302.2042275039742
  0
LINE
  5
77
330
2
100
AcDbEntity
  8
HALFEN
100
AcDbLine
 10
1137.07050807569
 20
2200.657078564782
 30
0.0
 11
1137.07050807569
 21
2191.657078564782
 31
0.0
  0
LINE
  5
78
330
2
100
AcDbEntity
  8
HALFEN
100
AcDbLine
 10
1148.57050807569
 20
2188.657078564782
 30
0.0
 11
1148.57050807569
 21
2191.657078564782
 31
0.0
  0
LINE
  5
79
330
2
100
AcDbEntity
  8
HALFEN
100
AcDbLine
 10
1145.886857111114
 20
2191.657078564782
 30
0.0
 11
1145.886857111114
 21
2195.657078564782
 31
0.0
  0
LINE
  5
7A
330
2
100
AcDbEntity
  8
HALFEN
100
AcDbLine
 10
1150.59550807569
 20
2179.035039986008
 30
0.0
 11
1150.59550807569
 21
2188.657078564782
 31
0.0
  0
LINE
  5
7B
330
2
100
AcDbEntity
  8
HALFEN
100
AcDbLine
 10
1158.83300807569
 20
2179.035039986008
 30
0.0
 11
1158.83300807569
 21
2188.657078564782
 31
0.0
  0
ARC
  5
7C
330
2
100
AcDbEntity
  8
HALFEN
100
AcDbCircle
 10
1154.71425807569
 20
2181.413001407232
 30
0.0
 40
4.75592284244935
100
AcDbArc
 50
209.9999999993126
 51
330.0000000000035
  0
LINE
  5
7D
330
2
100
AcDbEntity
  8
HALFEN
100
AcDbLine
 10
1153.07050807569
 20
2195.657078564782
 30
0.0
 11
1153.07050807569
 21
2200.657078564782
 31
0.0
  0
ARC
  5
7E
330
2
100
AcDbEntity
  8
HALFEN
100
AcDbCircle
 10
1179.42675807569
 20
2181.413001407232
 30
0.0
 40
4.75592284244935
100
AcDbArc
 50
209.9999999999972
 51
329.9999999998042
  0
LINE
  5
7F
330
2
100
AcDbEntity
  8
HALFEN
100
AcDbLine
 10
1175.308008075691
 20
2179.035039986007
 30
0.0
 11
1175.308008075691
 21
2188.657078564782
 31
0.0
  0
LINE
  5
80
330
2
100
AcDbEntity
  8
HALFEN
100
AcDbLine
 10
1181.07050807569
 20
2195.657078564782
 30
0.0
 11
1181.07050807569
 21
2200.657078564782
 31
0.0
  0
LINE
  5
81
330
2
100
AcDbEntity
  8
HALFEN
100
AcDbLine
 10
1183.54550807569
 20
2188.657078564782
 30
0.0
 11
1183.54550807569
 21
2179.035039986008
 31
0.0
  0
LINE
  5
82
330
2
100
AcDbEntity
  8
HALFEN
100
AcDbLine
 10
1185.570508075691
 20
2188.657078564782
 30
0.0
 11
1185.570508075691
 21
2191.657078564782
 31
0.0
  0
LINE
  5
83
330
2
100
AcDbEntity
  8
HALFEN
100
AcDbLine
 10
1187.07050807569
 20
2200.657078564782
 30
0.0
 11
1187.07050807569
 21
2203.657078564782
 31
0.0
  0
LINE
  5
84
330
2
100
AcDbEntity
  8
HALFEN
100
AcDbLine
 10
1170.194863728672
 20
2225.657078564783
 30
0.0
 11
1170.194863728672
 21
2295.657078564782
 31
0.0
  0
LINE
  5
85
330
2
100
AcDbEntity
  8
HALFEN
100
AcDbLine
 10
1176.623066958948
 20
2295.657078564782
 30
0.0
 11
1176.623066958948
 21
2225.657078564783
 31
0.0
  0
LINE
  5
86
330
2
100
AcDbEntity
  8
HALFEN
100
AcDbLine
 10
1187.07050807569
 20
2317.657078564782
 30
0.0
 11
1092.250000000002
 21
2317.657078564782
 31
0.0
  0
LINE
  5
87
330
2
100
AcDbEntity
  8
HALFEN
100
AcDbLine
 10
1092.250000000002
 20
2320.657078564782
 30
0.0
 11
1187.07050807569
 21
2320.657078564782
 31
0.0
  0
LINE
  5
88
330
2
100
AcDbEntity
  8
HALFEN
100
AcDbLine
 10
1092.250000000002
 20
2317.657078564782
 30
0.0
 11
1092.250000000002
 21
2320.657078564782
 31
0.0
  0
LINE
  5
89
330
2
100
AcDbEntity
  8
HALFEN
100
AcDbLine
 10
1126.891016151379
 20
2317.657078564782
 30
0.0
 11
1126.891016151379
 21
2320.657078564782
 31
0.0
  0
LINE
  5
8A
330
2
100
AcDbEntity
  8
HALFEN
100
AcDbLine
 10
1154.71425807569
 20
2332.657078564782
 30
0.0
 11
1179.42675807569
 21
2332.657078564782
 31
0.0
  0
LINE
  5
8B
330
2
100
AcDbEntity
  8
HALFEN
100
AcDbLine
 10
1137.07050807569
 20
2329.657078564782
 30
0.0
 11
1189.892041785636
 21
2329.657078564783
 31
0.0
  0
LINE
  5
8C
330
2
100
AcDbEntity
  8
HALFEN
100
AcDbLine
 10
1185.570508075691
 20
2332.657078564782
 30
0.0
 11
1148.57050807569
 21
2332.657078564782
 31
0.0
  0
ARC
  5
8D
330
2
100
AcDbEntity
  8
HALFEN
100
AcDbCircle
 10
1167.07050807569
 20
2348.113827802743
 30
0.0
 40
15.45674923796022
100
AcDbArc
 50
237.7957724960258
 51
302.2042275039742
  0
ARC
  5
8E
330
2
100
AcDbEntity
  8
HALFEN
100
AcDbCircle
 10
1167.07050807569
 20
2327.200329326823
 30
0.0
 40
15.45674923796022
100
AcDbArc
 50
57.79577249602581
 51
122.2042275039742
  0
LINE
  5
8F
330
2
100
AcDbEntity
  8
HALFEN
100
AcDbLine
 10
1179.42675807569
 20
2342.657078564782
 30
0.0
 11
1154.71425807569
 21
2342.657078564782
 31
0.0
  0
LINE
  5
90
330
2
100
AcDbEntity
  8
HALFEN
100
AcDbLine
 10
1177.07050807569
 20
2350.657078564783
 30
0.0
 11
1157.07050807569
 21
2350.657078564783
 31
0.0
  0
LINE
  5
91
330
2
100
AcDbEntity
  8
HALFEN
100
AcDbLine
 10
1175.07050807569
 20
2352.657078564782
 30
0.0
 11
1159.07050807569
 21
2352.657078564782
 31
0.0
  0
LINE
  5
92
330
2
100
AcDbEntity
  8
HALFEN
100
AcDbLine
 10
1185.570508075691
 20
2329.657078564782
 30
0.0
 11
1148.57050807569
 21
2329.657078564782
 31
0.0
  0
LINE
  5
93
330
2
100
AcDbEntity
  8
HALFEN
100
AcDbLine
 10
1137.07050807569
 20
2325.657078564782
 30
0.0
 11
1189.892041785636
 21
2325.657078564783
 31
0.0
  0
ARC
  5
94
330
2
100
AcDbEntity
  8
HALFEN
100
AcDbCircle
 10
1154.71425807569
 20
2337.901155722333
 30
0.0
 40
4.75592284244935
100
AcDbArc
 50
29.99999999999655
 51
150.0000000006873
  0
LINE
  5
95
330
2
100
AcDbEntity
  8
HALFEN
100
AcDbLine
 10
1137.07050807569
 20
2329.657078564782
 30
0.0
 11
1137.07050807569
 21
2320.657078564782
 31
0.0
  0
LINE
  5
96
330
2
100
AcDbEntity
  8
HALFEN
100
AcDbLine
 10
1148.57050807569
 20
2332.657078564782
 30
0.0
 11
1148.57050807569
 21
2329.657078564782
 31
0.0
  0
LINE
  5
97
330
2
100
AcDbEntity
  8
HALFEN
100
AcDbLine
 10
1145.886857111114
 20
2325.657078564782
 30
0.0
 11
1145.886857111114
 21
2329.657078564782
 31
0.0
  0
ARC
  5
98
330
2
100
AcDbEntity
  8
HALFEN
100
AcDbCircle
 10
1154.71425807569
 20
2337.413001407232
 30
0.0
 40
4.75592284244935
100
AcDbArc
 50
209.9999999993126
 51
330.0000000000035
  0
LINE
  5
99
330
2
100
AcDbEntity
  8
HALFEN
100
AcDbLine
 10
1153.07050807569
 20
2325.657078564782
 30
0.0
 11
1153.07050807569
 21
2320.657078564782
 31
0.0
  0
LINE
  5
9A
330
2
100
AcDbEntity
  8
HALFEN
100
AcDbLine
 10
1150.59550807569
 20
2340.279117143557
 30
0.0
 11
1150.59550807569
 21
2335.035039986007
 31
0.0
  0
LINE
  5
9B
330
2
100
AcDbEntity
  8
HALFEN
100
AcDbLine
 10
1158.83300807569
 20
2340.279117143557
 30
0.0
 11
1158.83300807569
 21
2335.035039986007
 31
0.0
  0
LINE
  5
9C
330
2
100
AcDbEntity
  8
HALFEN
100
AcDbLine
 10
1157.07050807569
 20
2350.657078564783
 30
0.0
 11
1159.07050807569
 21
2352.657078564782
 31
0.0
  0
LINE
  5
9D
330
2
100
AcDbEntity
  8
HALFEN
100
AcDbLine
 10
1157.07050807569
 20
2342.657078564782
 30
0.0
 11
1157.07050807569
 21
2350.657078564783
 31
0.0
  0
LINE
  5
9E
330
2
100
AcDbEntity
  8
HALFEN
100
AcDbLine
 10
1159.07050807569
 20
2342.657078564782
 30
0.0
 11
1159.07050807569
 21
2352.657078564782
 31
0.0
  0
ARC
  5
9F
330
2
100
AcDbEntity
  8
HALFEN
100
AcDbCircle
 10
1179.42675807569
 20
2337.901155722333
 30
0.0
 40
4.75592284244935
100
AcDbArc
 50
30.0000000001958
 51
150.0000000000028
  0
ARC
  5
A0
330
2
100
AcDbEntity
  8
HALFEN
100
AcDbCircle
 10
1179.42675807569
 20
2337.413001407232
 30
0.0
 40
4.75592284244935
100
AcDbArc
 50
209.9999999999972
 51
329.9999999998042
  0
LINE
  5
A1
330
2
100
AcDbEntity
  8
HALFEN
100
AcDbLine
 10
1181.07050807569
 20
2325.657078564782
 30
0.0
 11
1181.07050807569
 21
2320.657078564782
 31
0.0
  0
LINE
  5
A2
330
2
100
AcDbEntity
  8
HALFEN
100
AcDbLine
 10
1175.308008075691
 20
2340.279117143558
 30
0.0
 11
1175.308008075691
 21
2335.035039986007
 31
0.0
  0
LINE
  5
A3
330
2
100
AcDbEntity
  8
HALFEN
100
AcDbLine
 10
1187.07050807569
 20
2320.657078564782
 30
0.0
 11
1187.07050807569
 21
2317.657078564782
 31
0.0
  0
LINE
  5
A4
330
2
100
AcDbEntity
  8
HALFEN
100
AcDbLine
 10
1185.570508075691
 20
2332.657078564782
 30
0.0
 11
1185.570508075691
 21
2329.657078564782
 31
0.0
  0
LINE
  5
A5
330
2
100
AcDbEntity
  8
HALFEN
100
AcDbLine
 10
1183.54550807569
 20
2335.035039986007
 30
0.0
 11
1183.54550807569
 21
2340.279117143557
 31
0.0
  0
LINE
  5
A6
330
2
100
AcDbEntity
  8
HALFEN
100
AcDbLine
 10
1175.07050807569
 20
2352.657078564782
 30
0.0
 11
1177.07050807569
 21
2350.657078564783
 31
0.0
  0
LINE
  5
A7
330
2
100
AcDbEntity
  8
HALFEN
100
AcDbLine
 10
1177.07050807569
 20
2342.657078564782
 30
0.0
 11
1177.07050807569
 21
2350.657078564783
 31
0.0
  0
LINE
  5
A8
330
2
100
AcDbEntity
  8
HALFEN
100
AcDbLine
 10
1175.07050807569
 20
2342.657078564782
 30
0.0
 11
1175.07050807569
 21
2352.657078564782
 31
0.0
  0
LINE
  5
A9
330
2
100
AcDbEntity
  8
HALFEN
100
AcDbLine
 10
1309.070508075691
 20
2368.657078564782
 30
0.0
 11
1309.070508075691
 21
2152.657078564782
 31
0.0
  0
ARC
  5
AA
330
2
100
AcDbEntity
  8
HALFEN
100
AcDbCircle
 10
1289.070508075691
 20
2206.657078564782
 30
0.0
 40
54.0
100
AcDbArc
 50
242.0164563584513
 51
270.0
  0
LINE
  5
AB
330
2
100
AcDbEntity
  8
HALFEN
100
AcDbLine
 10
1265.609610810535
 20
2162.50295871721
 30
0.0
 11
1238.272677571545
 21
2176.909376021625
 31
0.0
  0
LINE
  5
AC
330
2
100
AcDbEntity
  8
HALFEN
100
AcDbLine
 10
1301.57050807569
 20
2184.157078564783
 30
0.0
 11
1241.570508075691
 21
2184.157078564783
 31
0.0
  0
LINE
  5
AD
330
2
100
AcDbEntity
  8
HALFEN
100
AcDbLine
 10
1301.57050807569
 20
2219.157078564782
 30
0.0
 11
1241.570508075691
 21
2219.157078564782
 31
0.0
  0
CIRCLE
  5
AE
330
2
100
AcDbEntity
  8
HALFEN
100
AcDbCircle
 10
1271.57050807569
 20
2201.657078564782
 30
0.0
 40
8.5
  0
LINE
  5
AF
330
2
100
AcDbEntity
  8
HALFEN
  6
MITTE2
 62
     1
100
AcDbLine
 10
1285.57050807569
 20
2201.657078564782
 30
0.0
 11
1257.57050807569
 21
2201.657078564782
 31
0.0
  0
ARC
  5
B0
330
2
100
AcDbEntity
  8
HALFEN
100
AcDbCircle
 10
1257.57050807569
 20
2201.657078564782
 30
0.0
 40
8.5
100
AcDbArc
 50
114.3157391711765
 51
245.6842608288235
  0
LINE
  5
B1
330
2
100
AcDbEntity
  8
HALFEN
100
AcDbLine
 10
1243.07050807569
 20
2219.157078564782
 30
0.0
 11
1243.07050807569
 21
2184.157078564783
 31
0.0
  0
LINE
  5
B2
330
2
100
AcDbEntity
  8
HALFEN
100
AcDbLine
 10
1247.57050807569
 20
2219.157078564782
 30
0.0
 11
1247.57050807569
 21
2184.157078564783
 31
0.0
  0
LINE
  5
B3
330
2
100
AcDbEntity
  8
HALFEN
100
AcDbLine
 10
1246.070508075691
 20
2219.157078564782
 30
0.0
 11
1246.070508075691
 21
2184.157078564783
 31
0.0
  0
LINE
  5
B4
330
2
100
AcDbEntity
  8
HALFEN
100
AcDbLine
 10
1244.570508075691
 20
2219.157078564782
 30
0.0
 11
1244.570508075691
 21
2184.157078564783
 31
0.0
  0
LINE
  5
B5
330
2
100
AcDbEntity
  8
HALFEN
100
AcDbLine
 10
1241.570508075691
 20
2184.157078564783
 30
0.0
 11
1241.570508075691
 21
2219.157078564782
 31
0.0
  0
LINE
  5
B6
330
2
100
AcDbEntity
  8
HALFEN
100
AcDbLine
 10
1254.070508075691
 20
2219.157078564782
 30
0.0
 11
1254.070508075691
 21
2184.157078564783
 31
0.0
  0
LINE
  5
B7
330
2
100
AcDbEntity
  8
HALFEN
100
AcDbLine
 10
1250.570508075691
 20
2219.157078564782
 30
0.0
 11
1250.570508075691
 21
2206.478903945279
 31
0.0
  0
LINE
  5
B8
330
2
100
AcDbEntity
  8
HALFEN
100
AcDbLine
 10
1249.07050807569
 20
2219.157078564782
 30
0.0
 11
1249.07050807569
 21
2184.157078564783
 31
0.0
  0
LINE
  5
B9
330
2
100
AcDbEntity
  8
HALFEN
100
AcDbLine
 10
1211.045471065459
 20
2186.504752056714
 30
0.0
 11
1236.433248938517
 21
2173.357404413631
 31
0.0
  0
LINE
  5
BA
330
2
100
AcDbEntity
  8
HALFEN
100
AcDbLine
 10
1212.884899698487
 20
2190.056723664709
 30
0.0
 11
1238.272677571545
 21
2176.909376021625
 31
0.0
  0
LINE
  5
BB
330
2
100
AcDbEntity
  8
HALFEN
100
AcDbLine
 10
1263.744744197062
 20
2158.964276403981
 30
0.0
 11
1236.407810958073
 21
2173.370693708397
 31
0.0
  0
LINE
  5
BC
330
2
100
AcDbEntity
  8
HALFEN
100
AcDbLine
 10
1253.57050807569
 20
2194.157078564782
 30
0.0
 11
1253.57050807569
 21
2184.157078564783
 31
0.0
  0
LINE
  5
BD
330
2
100
AcDbEntity
  8
HALFEN
100
AcDbLine
 10
1250.570508075691
 20
2196.835253184286
 30
0.0
 11
1250.570508075691
 21
2184.157078564783
 31
0.0
  0
LINE
  5
BE
330
2
100
AcDbEntity
  8
HALFEN
100
AcDbLine
 10
1252.07050807569
 20
2195.176337866374
 30
0.0
 11
1252.07050807569
 21
2184.157078564783
 31
0.0
  0
LINE
  5
BF
330
2
100
AcDbEntity
  8
HALFEN
100
AcDbLine
 10
1202.123066958948
 20
2295.657078564782
 30
0.0
 11
1202.123066958948
 21
2225.657078564783
 31
0.0
  0
LINE
  5
C0
330
2
100
AcDbEntity
  8
HALFEN
100
AcDbLine
 10
1252.07050807569
 20
2219.157078564782
 30
0.0
 11
1252.07050807569
 21
2208.137819263191
 31
0.0
  0
LINE
  5
C1
330
2
100
AcDbEntity
  8
HALFEN
100
AcDbLine
 10
1253.57050807569
 20
2219.157078564782
 30
0.0
 11
1253.57050807569
 21
2209.157078564782
 31
0.0
  0
LINE
  5
C2
330
2
100
AcDbEntity
  8
HALFEN
100
AcDbLine
 10
1292.570508075691
 20
2219.157078564782
 30
0.0
 11
1292.570508075691
 21
2206.478903945279
 31
0.0
  0
ARC
  5
C3
330
2
100
AcDbEntity
  8
HALFEN
100
AcDbCircle
 10
1285.57050807569
 20
2201.657078564782
 30
0.0
 40
8.5
100
AcDbArc
 50
294.315739171176
 51
65.68426082882398
  0
LINE
  5
C4
330
2
100
AcDbEntity
  8
HALFEN
100
AcDbLine
 10
1301.57050807569
 20
2219.157078564782
 30
0.0
 11
1301.57050807569
 21
2184.157078564783
 31
0.0
  0
LINE
  5
C5
330
2
100
AcDbEntity
  8
HALFEN
100
AcDbLine
 10
1300.07050807569
 20
2219.157078564782
 30
0.0
 11
1300.07050807569
 21
2184.157078564783
 31
0.0
  0
LINE
  5
C6
330
2
100
AcDbEntity
  8
HALFEN
100
AcDbLine
 10
1298.57050807569
 20
2219.157078564782
 30
0.0
 11
1298.57050807569
 21
2184.157078564783
 31
0.0
  0
LINE
  5
C7
330
2
100
AcDbEntity
  8
HALFEN
100
AcDbLine
 10
1297.070508075691
 20
2219.157078564782
 30
0.0
 11
1297.070508075691
 21
2184.157078564783
 31
0.0
  0
LINE
  5
C8
330
2
100
AcDbEntity
  8
HALFEN
100
AcDbLine
 10
1294.07050807569
 20
2219.157078564782
 30
0.0
 11
1294.07050807569
 21
2184.157078564783
 31
0.0
  0
LINE
  5
C9
330
2
100
AcDbEntity
  8
HALFEN
100
AcDbLine
 10
1289.070508075691
 20
2219.157078564782
 30
0.0
 11
1289.070508075691
 21
2184.157078564783
 31
0.0
  0
LINE
  5
CA
330
2
100
AcDbEntity
  8
HALFEN
100
AcDbLine
 10
1295.57050807569
 20
2219.157078564782
 30
0.0
 11
1295.57050807569
 21
2184.157078564783
 31
0.0
  0
LINE
  5
CB
330
2
100
AcDbEntity
  8
HALFEN
  6
MITTE2
 62
     1
100
AcDbLine
 10
1271.57050807569
 20
2219.157078564782
 30
0.0
 11
1271.57050807569
 21
2184.157078564783
 31
0.0
  0
LINE
  5
CC
330
2
100
AcDbEntity
  8
HALFEN
100
AcDbLine
 10
1289.070508075691
 20
2152.657078564782
 30
0.0
 11
1309.070508075691
 21
2152.657078564782
 31
0.0
  0
LINE
  5
CD
330
2
100
AcDbEntity
  8
HALFEN
100
AcDbLine
 10
1289.070508075691
 20
2156.657078564782
 30
0.0
 11
1309.070508075691
 21
2156.657078564782
 31
0.0
  0
ARC
  5
CE
330
2
100
AcDbEntity
  8
HALFEN
100
AcDbCircle
 10
1289.070508075691
 20
2206.657078564782
 30
0.0
 40
50.0
100
AcDbArc
 50
242.0164563584513
 51
270.0
  0
LINE
  5
CF
330
2
100
AcDbEntity
  8
HALFEN
100
AcDbLine
 10
1271.07050807569
 20
2184.157078564783
 30
0.0
 11
1271.07050807569
 21
2193.171797190544
 31
0.0
  0
LINE
  5
D0
330
2
100
AcDbEntity
  8
HALFEN
100
AcDbLine
 10
1272.070508075691
 20
2184.157078564783
 30
0.0
 11
1272.070508075691
 21
2193.171797190544
 31
0.0
  0
LINE
  5
D1
330
2
100
AcDbEntity
  8
HALFEN
100
AcDbLine
 10
1292.570508075691
 20
2196.835253184286
 30
0.0
 11
1292.570508075691
 21
2184.157078564783
 31
0.0
  0
LINE
  5
D2
330
2
100
AcDbEntity
  8
HALFEN
100
AcDbLine
 10
1291.070508075691
 20
2195.176337866374
 30
0.0
 11
1291.070508075691
 21
2184.157078564783
 31
0.0
  0
LINE
  5
D3
330
2
100
AcDbEntity
  8
HALFEN
100
AcDbLine
 10
1289.57050807569
 20
2194.157078564782
 30
0.0
 11
1289.57050807569
 21
2184.157078564783
 31
0.0
  0
LINE
  5
D4
330
2
100
AcDbEntity
  8
HALFEN
100
AcDbLine
 10
1272.070508075691
 20
2210.142359939021
 30
0.0
 11
1272.070508075691
 21
2219.157078564782
 31
0.0
  0
LINE
  5
D5
330
2
100
AcDbEntity
  8
HALFEN
100
AcDbLine
 10
1271.07050807569
 20
2210.142359939021
 30
0.0
 11
1271.07050807569
 21
2219.157078564782
 31
0.0
  0
LINE
  5
D6
330
2
100
AcDbEntity
  8
HALFEN
100
AcDbLine
 10
1291.070508075691
 20
2219.157078564782
 30
0.0
 11
1291.070508075691
 21
2208.137819263191
 31
0.0
  0
LINE
  5
D7
330
2
100
AcDbEntity
  8
HALFEN
100
AcDbLine
 10
1289.57050807569
 20
2219.157078564782
 30
0.0
 11
1289.57050807569
 21
2209.157078564782
 31
0.0
  0
LINE
  5
D8
330
2
100
AcDbEntity
  8
HALFEN
100
AcDbLine
 10
1301.57050807569
 20
2302.157078564782
 30
0.0
 11
1241.570508075691
 21
2302.157078564782
 31
0.0
  0
LINE
  5
D9
330
2
100
AcDbEntity
  8
HALFEN
100
AcDbLine
 10
1301.57050807569
 20
2337.157078564782
 30
0.0
 11
1241.570508075691
 21
2337.157078564782
 31
0.0
  0
LINE
  5
DA
330
2
100
AcDbEntity
  8
HALFEN
  6
MITTE2
 62
     1
100
AcDbLine
 10
1285.57050807569
 20
2319.657078564782
 30
0.0
 11
1257.57050807569
 21
2319.657078564782
 31
0.0
  0
CIRCLE
  5
DB
330
2
100
AcDbEntity
  8
HALFEN
100
AcDbCircle
 10
1271.57050807569
 20
2319.657078564782
 30
0.0
 40
8.5
  0
LINE
  5
DC
330
2
100
AcDbEntity
  8
HALFEN
100
AcDbLine
 10
1265.609610810535
 20
2358.811198412356
 30
0.0
 11
1238.272677571545
 21
2344.40478110794
 31
0.0
  0
ARC
  5
DD
330
2
100
AcDbEntity
  8
HALFEN
100
AcDbCircle
 10
1289.070508075691
 20
2314.657078564783
 30
0.0
 40
54.0
100
AcDbArc
 50
90.0
 51
117.9835436415487
  0
LINE
  5
DE
330
2
100
AcDbEntity
  8
HALFEN
100
AcDbLine
 10
1212.884899698487
 20
2331.257433464856
 30
0.0
 11
1238.272677571545
 21
2344.40478110794
 31
0.0
  0
LINE
  5
DF
330
2
100
AcDbEntity
  8
HALFEN
100
AcDbLine
 10
1211.045471065459
 20
2334.809405072851
 30
0.0
 11
1236.433248938517
 21
2347.956752715934
 31
0.0
  0
LINE
  5
E0
330
2
100
AcDbEntity
  8
HALFEN
100
AcDbLine
 10
1243.07050807569
 20
2337.157078564782
 30
0.0
 11
1243.07050807569
 21
2302.157078564782
 31
0.0
  0
LINE
  5
E1
330
2
100
AcDbEntity
  8
HALFEN
100
AcDbLine
 10
1244.570508075691
 20
2337.157078564782
 30
0.0
 11
1244.570508075691
 21
2302.157078564782
 31
0.0
  0
LINE
  5
E2
330
2
100
AcDbEntity
  8
HALFEN
100
AcDbLine
 10
1247.57050807569
 20
2337.157078564782
 30
0.0
 11
1247.57050807569
 21
2302.157078564782
 31
0.0
  0
LINE
  5
E3
330
2
100
AcDbEntity
  8
HALFEN
100
AcDbLine
 10
1241.570508075691
 20
2302.157078564782
 30
0.0
 11
1241.570508075691
 21
2337.157078564782
 31
0.0
  0
LINE
  5
E4
330
2
100
AcDbEntity
  8
HALFEN
100
AcDbLine
 10
1246.070508075691
 20
2337.157078564782
 30
0.0
 11
1246.070508075691
 21
2302.157078564782
 31
0.0
  0
ARC
  5
E5
330
2
100
AcDbEntity
  8
HALFEN
100
AcDbCircle
 10
1257.57050807569
 20
2319.657078564782
 30
0.0
 40
8.5
100
AcDbArc
 50
114.3157391711765
 51
245.6842608288235
  0
LINE
  5
E6
330
2
100
AcDbEntity
  8
HALFEN
100
AcDbLine
 10
1249.07050807569
 20
2337.157078564782
 30
0.0
 11
1249.07050807569
 21
2302.157078564782
 31
0.0
  0
LINE
  5
E7
330
2
100
AcDbEntity
  8
HALFEN
100
AcDbLine
 10
1254.070508075691
 20
2337.157078564782
 30
0.0
 11
1254.070508075691
 21
2302.157078564782
 31
0.0
  0
LINE
  5
E8
330
2
100
AcDbEntity
  8
HALFEN
100
AcDbLine
 10
1252.07050807569
 20
2313.176337866375
 30
0.0
 11
1252.07050807569
 21
2302.157078564782
 31
0.0
  0
LINE
  5
E9
330
2
100
AcDbEntity
  8
HALFEN
100
AcDbLine
 10
1253.57050807569
 20
2312.157078564782
 30
0.0
 11
1253.57050807569
 21
2302.157078564782
 31
0.0
  0
LINE
  5
EA
330
2
100
AcDbEntity
  8
HALFEN
100
AcDbLine
 10
1250.570508075691
 20
2314.835253184286
 30
0.0
 11
1250.570508075691
 21
2302.157078564782
 31
0.0
  0
LINE
  5
EB
330
2
100
AcDbEntity
  8
HALFEN
100
AcDbLine
 10
1253.57050807569
 20
2337.157078564782
 30
0.0
 11
1253.57050807569
 21
2327.157078564782
 31
0.0
  0
LINE
  5
EC
330
2
100
AcDbEntity
  8
HALFEN
100
AcDbLine
 10
1250.570508075691
 20
2337.157078564782
 30
0.0
 11
1250.570508075691
 21
2324.478903945279
 31
0.0
  0
LINE
  5
ED
330
2
100
AcDbEntity
  8
HALFEN
100
AcDbLine
 10
1252.07050807569
 20
2337.157078564782
 30
0.0
 11
1252.07050807569
 21
2326.137819263191
 31
0.0
  0
LINE
  5
EE
330
2
100
AcDbEntity
  8
HALFEN
100
AcDbLine
 10
1263.744744197062
 20
2362.349880725583
 30
0.0
 11
1236.407810958073
 21
2347.943463421168
 31
0.0
  0
LINE
  5
EF
330
2
100
AcDbEntity
  8
HALFEN
100
AcDbLine
 10
1289.070508075691
 20
2368.657078564782
 30
0.0
 11
1309.070508075691
 21
2368.657078564782
 31
0.0
  0
LINE
  5
F0
330
2
100
AcDbEntity
  8
HALFEN
100
AcDbLine
 10
1289.070508075691
 20
2364.657078564782
 30
0.0
 11
1309.070508075691
 21
2364.657078564782
 31
0.0
  0
LINE
  5
F1
330
2
100
AcDbEntity
  8
HALFEN
  6
MITTE2
 62
     1
100
AcDbLine
 10
1271.57050807569
 20
2337.157078564782
 30
0.0
 11
1271.57050807569
 21
2302.157078564782
 31
0.0
  0
LINE
  5
F2
330
2
100
AcDbEntity
  8
HALFEN
100
AcDbLine
 10
1272.070508075691
 20
2302.157078564782
 30
0.0
 11
1272.070508075691
 21
2311.171797190544
 31
0.0
  0
LINE
  5
F3
330
2
100
AcDbEntity
  8
HALFEN
100
AcDbLine
 10
1271.07050807569
 20
2302.157078564782
 30
0.0
 11
1271.07050807569
 21
2311.171797190544
 31
0.0
  0
LINE
  5
F4
330
2
100
AcDbEntity
  8
HALFEN
100
AcDbLine
 10
1272.070508075691
 20
2328.142359939021
 30
0.0
 11
1272.070508075691
 21
2337.157078564782
 31
0.0
  0
LINE
  5
F5
330
2
100
AcDbEntity
  8
HALFEN
100
AcDbLine
 10
1271.07050807569
 20
2328.142359939021
 30
0.0
 11
1271.07050807569
 21
2337.157078564782
 31
0.0
  0
LINE
  5
F6
330
2
100
AcDbEntity
  8
HALFEN
100
AcDbLine
 10
1294.07050807569
 20
2337.157078564782
 30
0.0
 11
1294.07050807569
 21
2302.157078564782
 31
0.0
  0
LINE
  5
F7
330
2
100
AcDbEntity
  8
HALFEN
100
AcDbLine
 10
1297.070508075691
 20
2337.157078564782
 30
0.0
 11
1297.070508075691
 21
2302.157078564782
 31
0.0
  0
ARC
  5
F8
330
2
100
AcDbEntity
  8
HALFEN
100
AcDbCircle
 10
1285.57050807569
 20
2319.657078564782
 30
0.0
 40
8.5
100
AcDbArc
 50
294.315739171176
 51
65.68426082882398
  0
LINE
  5
F9
330
2
100
AcDbEntity
  8
HALFEN
100
AcDbLine
 10
1289.070508075691
 20
2337.157078564782
 30
0.0
 11
1289.070508075691
 21
2302.157078564782
 31
0.0
  0
LINE
  5
FA
330
2
100
AcDbEntity
  8
HALFEN
100
AcDbLine
 10
1295.57050807569
 20
2337.157078564782
 30
0.0
 11
1295.57050807569
 21
2302.157078564782
 31
0.0
  0
LINE
  5
FB
330
2
100
AcDbEntity
  8
HALFEN
100
AcDbLine
 10
1291.070508075691
 20
2313.176337866375
 30
0.0
 11
1291.070508075691
 21
2302.157078564782
 31
0.0
  0
LINE
  5
FC
330
2
100
AcDbEntity
  8
HALFEN
100
AcDbLine
 10
1289.57050807569
 20
2312.157078564782
 30
0.0
 11
1289.57050807569
 21
2302.157078564782
 31
0.0
  0
LINE
  5
FD
330
2
100
AcDbEntity
  8
HALFEN
100
AcDbLine
 10
1292.570508075691
 20
2314.835253184286
 30
0.0
 11
1292.570508075691
 21
2302.157078564782
 31
0.0
  0
LINE
  5
FE
330
2
100
AcDbEntity
  8
HALFEN
100
AcDbLine
 10
1291.070508075691
 20
2337.157078564782
 30
0.0
 11
1291.070508075691
 21
2326.137819263191
 31
0.0
  0
LINE
  5
FF
330
2
100
AcDbEntity
  8
HALFEN
100
AcDbLine
 10
1292.570508075691
 20
2337.157078564782
 30
0.0
 11
1292.570508075691
 21
2324.478903945279
 31
0.0
  0
LINE
  5
100
330
2
100
AcDbEntity
  8
HALFEN
100
AcDbLine
 10
1289.57050807569
 20
2337.157078564782
 30
0.0
 11
1289.57050807569
 21
2327.157078564782
 31
0.0
  0
ARC
  5
101
330
2
100
AcDbEntity
  8
HALFEN
100
AcDbCircle
 10
1289.070508075691
 20
2314.657078564783
 30
0.0
 40
50.0
100
AcDbArc
 50
90.0
 51
117.9835436415487
  0
LINE
  5
102
330
2
100
AcDbEntity
  8
HALFEN
100
AcDbLine
 10
1298.57050807569
 20
2337.157078564782
 30
0.0
 11
1298.57050807569
 21
2302.157078564782
 31
0.0
  0
LINE
  5
103
330
2
100
AcDbEntity
  8
HALFEN
100
AcDbLine
 10
1300.07050807569
 20
2337.157078564782
 30
0.0
 11
1300.07050807569
 21
2302.157078564782
 31
0.0
  0
LINE
  5
104
330
2
100
AcDbEntity
  8
HALFEN
100
AcDbLine
 10
1301.57050807569
 20
2337.157078564782
 30
0.0
 11
1301.57050807569
 21
2302.157078564782
 31
0.0
  0
LINE
  5
1CA
330
2
100
AcDbEntity
  8
HALFEN
100
AcDbLine
 10
1336.07050807569
 20
2388.657078564782
 30
0.0
 11
1538.070508075691
 21
2388.657078564782
 31
0.0
  0
LINE
  5
1CC
330
2
100
AcDbEntity
  8
HALFEN
100
AcDbLine
 10
1329.070508075691
 20
2395.657078564782
 30
0.0
 11
1329.070508075691
 21
2401.657078564782
 31
0.0
  0
LINE
  5
1CD
330
2
100
AcDbEntity
  8
HALFEN
100
AcDbLine
 10
1329.070508075691
 20
2401.657078564782
 30
0.0
 11
1333.070508075691
 21
2401.657078564782
 31
0.0
  0
LINE
  5
1CE
330
2
100
AcDbEntity
  8
HALFEN
100
AcDbLine
 10
1333.070508075691
 20
2395.657078564781
 30
0.0
 11
1333.070508075691
 21
2401.657078564782
 31
0.0
  0
LINE
  5
1D4
330
2
100
AcDbEntity
  8
HALFEN
100
AcDbLine
 10
1336.070508075691
 20
2392.657078564781
 30
0.0
 11
1538.070508075691
 21
2392.657078564782
 31
0.0
  0
LINE
  5
1D5
330
2
100
AcDbEntity
  8
HALFEN
100
AcDbLine
 10
1541.070508075691
 20
2401.657078564782
 30
0.0
 11
1545.070508075691
 21
2401.657078564782
 31
0.0
  0
ARC
  5
1D7
330
2
100
AcDbEntity
  8
HALFEN
100
AcDbCircle
 10
1336.070508075691
 20
2395.657078564781
 30
0.0
 40
3.0
100
AcDbArc
 50
180.0000000000003
 51
270.0
  0
ARC
  5
1D8
330
2
100
AcDbEntity
  8
HALFEN
100
AcDbCircle
 10
1538.070508075691
 20
2395.657078564781
 30
0.0
 40
3.0
100
AcDbArc
 50
270.0000000000001
 51
0.0000000000002799
  0
ARC
  5
1D9
330
2
100
AcDbEntity
  8
HALFEN
100
AcDbCircle
 10
1538.070508075691
 20
2395.657078564781
 30
0.0
 40
7.0
100
AcDbArc
 50
269.9999999999999
 51
0.0
  0
ARC
  5
1DA
330
2
100
AcDbEntity
  8
HALFEN
100
AcDbCircle
 10
1336.07050807569
 20
2395.657078564782
 30
0.0
 40
7.0
100
AcDbArc
 50
180.0
 51
269.9999999999999
  0
LINE
  5
1DD
330
2
100
AcDbEntity
  8
HALFEN
100
AcDbLine
 10
1368.07050807569
 20
2438.657078564782
 30
0.0
 11
1372.070508075691
 21
2438.657078564782
 31
0.0
  0
ARC
  5
1E5
330
2
100
AcDbEntity
  8
HALFEN
100
AcDbCircle
 10
1381.185126227262
 20
2370.468697269882
 30
0.0
 40
57.33874438516727
100
AcDbArc
 50
121.5975038251798
 51
147.0482855437255
  0
ARC
  5
1E7
330
2
100
AcDbEntity
  8
HALFEN
100
AcDbCircle
 10
1347.215290940307
 20
2445.3287939237
 30
0.0
 40
25.73506566297279
100
AcDbArc
 50
284.8636676369735
 51
344.9746670114543
  0
ARC
  5
1E9
330
2
100
AcDbEntity
  8
HALFEN
100
AcDbCircle
 10
1356.382047972913
 20
2410.789461512055
 30
0.0
 40
10.0
100
AcDbArc
 50
104.8636676369738
 51
121.5975038251801
  0
ARC
  5
1EA
330
2
100
AcDbEntity
  8
HALFEN
100
AcDbCircle
 10
1377.185126227262
 20
2370.468697269882
 30
0.0
 40
57.33874438516727
100
AcDbArc
 50
121.5975038251798
 51
147.0482855437255
  0
ARC
  5
1EB
330
2
100
AcDbEntity
  8
HALFEN
100
AcDbCircle
 10
1352.382047972913
 20
2410.789461512055
 30
0.0
 40
10.0
100
AcDbArc
 50
104.8636676369738
 51
121.5975038251801
  0
ARC
  5
1EC
330
2
100
AcDbEntity
  8
HALFEN
100
AcDbCircle
 10
1343.215290940306
 20
2445.3287939237
 30
0.0
 40
25.73506566297279
100
AcDbArc
 50
284.8636676369735
 51
344.9746670114543
  0
LINE
  5
1EE
330
2
100
AcDbEntity
  8
HALFEN
100
AcDbLine
 10
1545.070508075691
 20
2395.657078564782
 30
0.0
 11
1545.070508075691
 21
2401.657078564782
 31
0.0
  0
LINE
  5
1EF
330
2
100
AcDbEntity
  8
HALFEN
100
AcDbLine
 10
1545.070508075691
 20
2401.657078564782
 30
0.0
 11
1541.070508075691
 21
2401.657078564782
 31
0.0
  0
LINE
  5
1F0
330
2
100
AcDbEntity
  8
HALFEN
100
AcDbLine
 10
1541.070508075691
 20
2395.657078564781
 30
0.0
 11
1541.070508075691
 21
2401.657078564782
 31
0.0
  0
LINE
  5
1F1
330
2
100
AcDbEntity
  8
HALFEN
100
AcDbLine
 10
1506.070508075691
 20
2438.657078564782
 30
0.0
 11
1502.07050807569
 21
2438.657078564782
 31
0.0
  0
ARC
  5
1F2
330
2
100
AcDbEntity
  8
HALFEN
100
AcDbCircle
 10
1492.955889924119
 20
2370.468697269882
 30
0.0
 40
57.33874438516727
100
AcDbArc
 50
32.95171445627445
 51
58.40249617482022
  0
ARC
  5
1F3
330
2
100
AcDbEntity
  8
HALFEN
100
AcDbCircle
 10
1517.758968178468
 20
2410.789461512055
 30
0.0
 40
10.0
100
AcDbArc
 50
58.40249617481991
 51
75.13633236302618
  0
ARC
  5
1F4
330
2
100
AcDbEntity
  8
HALFEN
100
AcDbCircle
 10
1526.925725211075
 20
2445.3287939237
 30
0.0
 40
25.73506566297279
100
AcDbArc
 50
195.0253329885457
 51
255.1363323630265
  0
ARC
  5
1F5
330
2
100
AcDbEntity
  8
HALFEN
100
AcDbCircle
 10
1496.95588992412
 20
2370.468697269882
 30
0.0
 40
57.33874438516727
100
AcDbArc
 50
32.95171445627445
 51
58.40249617482022
  0
ARC
  5
1F6
330
2
100
AcDbEntity
  8
HALFEN
100
AcDbCircle
 10
1521.758968178469
 20
2410.789461512055
 30
0.0
 40
10.0
100
AcDbArc
 50
58.40249617481991
 51
75.13633236302618
  0
ARC
  5
1F7
330
2
100
AcDbEntity
  8
HALFEN
100
AcDbCircle
 10
1530.925725211075
 20
2445.3287939237
 30
0.0
 40
25.73506566297279
100
AcDbArc
 50
195.0253329885457
 51
255.1363323630265
  0
LINE
  5
1F8
330
2
100
AcDbEntity
  8
HALFEN
100
AcDbLine
 10
1372.070508075691
 20
2438.657078564782
 30
0.0
 11
1372.070508075691
 21
2397.657078564781
 31
0.0
  0
LINE
  5
1F9
330
2
100
AcDbEntity
  8
HALFEN
100
AcDbLine
 10
1502.07050807569
 20
2438.657078564782
 30
0.0
 11
1502.070508075691
 21
2397.657078564781
 31
0.0
  0
LINE
  5
1FB
330
2
100
AcDbEntity
  8
HALFEN
100
AcDbLine
 10
1502.07050807569
 20
2402.657078564781
 30
0.0
 11
1497.07050807569
 21
2402.657078564781
 31
0.0
  0
LINE
  5
1FC
330
2
100
AcDbEntity
  8
HALFEN
100
AcDbLine
 10
1502.07050807569
 20
2430.657078564781
 30
0.0
 11
1497.07050807569
 21
2430.657078564781
 31
0.0
  0
LINE
  5
1FD
330
2
100
AcDbEntity
  8
HALFEN
100
AcDbLine
 10
1365.07050807569
 20
2431.740450071607
 30
0.0
 11
1365.070508075691
 21
2435.157078564781
 31
0.0
  0
LINE
  5
1FE
330
2
100
AcDbEntity
  8
HALFEN
100
AcDbLine
 10
1353.07050807569
 20
2421.555525324453
 30
0.0
 11
1353.07050807569
 21
2429.013328564781
 31
0.0
  0
ARC
  5
1FF
330
2
100
AcDbEntity
  8
HALFEN
100
AcDbCircle
 10
1368.527257313651
 20
2416.657078564781
 30
0.0
 40
15.45674923796022
100
AcDbArc
 50
147.7957724960258
 51
159.9044531625436
  0
LINE
  5
200
330
2
100
AcDbEntity
  8
HALFEN
100
AcDbLine
 10
1365.070508075691
 20
2435.157078564781
 30
0.0
 11
1366.85487239461
 21
2435.157078564781
 31
0.0
  0
LINE
  5
201
330
2
100
AcDbEntity
  8
HALFEN
100
AcDbLine
 10
1355.448469496916
 20
2433.132078564781
 30
0.0
 11
1365.070508075691
 21
2433.132078564781
 31
0.0
  0
LINE
  5
202
330
2
100
AcDbEntity
  8
HALFEN
100
AcDbLine
 10
1355.448469496916
 20
2424.894578564781
 30
0.0
 11
1358.859345636671
 21
2424.894578564781
 31
0.0
  0
ARC
  5
203
330
2
100
AcDbEntity
  8
HALFEN
100
AcDbCircle
 10
1357.82643091814
 20
2429.013328564781
 30
0.0
 40
4.75592284244935
100
AcDbArc
 50
119.9999999993126
 51
240.0000000000034
  0
LINE
  5
209
330
2
100
AcDbEntity
  8
HALFEN
100
AcDbLine
 10
1509.070508075691
 20
2431.740450071607
 30
0.0
 11
1509.070508075691
 21
2435.157078564781
 31
0.0
  0
ARC
  5
20B
330
2
100
AcDbEntity
  8
HALFEN
100
AcDbCircle
 10
1503.613758837731
 20
2416.657078564781
 30
0.0
 40
15.45674923796022
100
AcDbArc
 50
25.62998779322199
 51
32.20422750397418
  0
LINE
  5
20C
330
2
100
AcDbEntity
  8
HALFEN
100
AcDbLine
 10
1519.070508075691
 20
2422.487002589603
 30
0.0
 11
1519.07050807569
 21
2429.013328564781
 31
0.0
  0
LINE
  5
20D
330
2
100
AcDbEntity
  8
HALFEN
100
AcDbLine
 10
1527.070508075691
 20
2419.262563495594
 30
0.0
 11
1527.070508075691
 21
2426.657078564781
 31
0.0
  0
LINE
  5
20E
330
2
100
AcDbEntity
  8
HALFEN
100
AcDbLine
 10
1529.07050807569
 20
2417.970096287663
 30
0.0
 11
1529.07050807569
 21
2424.657078564781
 31
0.0
  0
ARC
  5
20F
330
2
100
AcDbEntity
  8
HALFEN
100
AcDbCircle
 10
1514.314585233242
 20
2429.013328564781
 30
0.0
 40
4.75592284244935
100
AcDbArc
 50
299.9999999999965
 51
60.00000000068733
  0
LINE
  5
210
330
2
100
AcDbEntity
  8
HALFEN
100
AcDbLine
 10
1509.070508075691
 20
2435.157078564781
 30
0.0
 11
1507.286143756771
 21
2435.157078564781
 31
0.0
  0
ARC
  5
211
330
2
100
AcDbEntity
  8
HALFEN
100
AcDbCircle
 10
1513.82643091814
 20
2429.013328564781
 30
0.0
 40
4.75592284244935
100
AcDbArc
 50
119.9999999993126
 51
154.801347805701
  0
LINE
  5
212
330
2
100
AcDbEntity
  8
HALFEN
100
AcDbLine
 10
1516.692546654466
 20
2433.132078564781
 30
0.0
 11
1511.448469496915
 21
2433.132078564781
 31
0.0
  0
LINE
  5
213
330
2
100
AcDbEntity
  8
HALFEN
100
AcDbLine
 10
1516.692546654466
 20
2424.894578564781
 30
0.0
 11
1515.281670514711
 21
2424.894578564781
 31
0.0
  0
LINE
  5
214
330
2
100
AcDbEntity
  8
HALFEN
100
AcDbLine
 10
1527.070508075691
 20
2426.657078564781
 30
0.0
 11
1529.07050807569
 21
2424.657078564781
 31
0.0
  0
LINE
  5
215
330
2
100
AcDbEntity
  8
HALFEN
100
AcDbLine
 10
1519.07050807569
 20
2426.657078564781
 30
0.0
 11
1527.070508075691
 21
2426.657078564781
 31
0.0
  0
LINE
  5
216
330
2
100
AcDbEntity
  8
HALFEN
100
AcDbLine
 10
1519.07050807569
 20
2424.657078564781
 30
0.0
 11
1529.07050807569
 21
2424.657078564781
 31
0.0
  0
LINE
  5
21F
330
2
100
AcDbEntity
  8
HALFEN
100
AcDbLine
 10
1402.070508075691
 20
2395.944265643679
 30
0.0
 11
1402.070508075691
 21
2443.245535832901
 31
0.0
  0
LINE
  5
220
330
2
100
AcDbEntity
  8
HALFEN
100
AcDbLine
 10
1472.070508075691
 20
2395.944265643679
 30
0.0
 11
1472.07050807569
 21
2443.245535832901
 31
0.0
  0
LINE
  5
221
330
2
100
AcDbEntity
  8
HALFEN
100
AcDbLine
 10
1402.070508075691
 20
2443.245535832901
 30
0.0
 11
1472.07050807569
 21
2443.245535832901
 31
0.0
  0
LINE
  5
225
330
2
100
AcDbEntity
  8
HALFEN
100
AcDbLine
 10
1402.070508075691
 20
2399.944265643678
 30
0.0
 11
1472.070508075691
 21
2399.944265643678
 31
0.0
  0
LINE
  5
227
330
2
100
AcDbEntity
  8
HALFEN
100
AcDbLine
 10
1402.070508075691
 20
2395.944265643679
 30
0.0
 11
1472.070508075691
 21
2395.944265643679
 31
0.0
  0
LINE
  5
228
330
2
100
AcDbEntity
  8
HALFEN
100
AcDbLine
 10
1402.070508075691
 20
2430.657078564781
 30
0.0
 11
1380.070508075691
 21
2430.657078564781
 31
0.0
  0
LINE
  5
229
330
2
100
AcDbEntity
  8
HALFEN
100
AcDbLine
 10
1402.070508075691
 20
2402.657078564782
 30
0.0
 11
1380.070508075691
 21
2402.657078564783
 31
0.0
  0
LINE
  5
22A
330
2
100
AcDbEntity
  8
HALFEN
100
AcDbLine
 10
1494.07050807569
 20
2526.249999999992
 30
0.0
 11
1497.07050807569
 21
2526.249999999992
 31
0.0
  0
LINE
  5
22C
330
2
100
AcDbEntity
  8
HALFEN
100
AcDbLine
 10
1494.07050807569
 20
2422.016062413403
 30
0.0
 11
1497.070508075691
 21
2422.016062413403
 31
0.0
  0
LINE
  5
22D
330
2
100
AcDbEntity
  8
HALFEN
100
AcDbLine
 10
1497.07050807569
 20
2397.657078564781
 30
0.0
 11
1497.07050807569
 21
2526.249999999992
 31
0.0
  0
LINE
  5
22E
330
2
100
AcDbEntity
  8
HALFEN
100
AcDbLine
 10
1494.07050807569
 20
2397.657078564781
 30
0.0
 11
1494.07050807569
 21
2526.249999999992
 31
0.0
  0
LINE
  5
231
330
2
100
AcDbEntity
  8
HALFEN
100
AcDbLine
 10
1170.534609690828
 20
2438.657078564782
 30
0.0
 11
1170.194863728672
 21
2439.245535832902
 31
0.0
  0
LINE
  5
232
330
2
100
AcDbEntity
  8
HALFEN
100
AcDbLine
 10
1494.07050807569
 20
2430.657078564781
 30
0.0
 11
1472.07050807569
 21
2430.657078564781
 31
0.0
  0
LINE
  5
233
330
2
100
AcDbEntity
  8
HALFEN
100
AcDbLine
 10
1494.07050807569
 20
2402.657078564781
 30
0.0
 11
1472.07050807569
 21
2402.657078564781
 31
0.0
  0
LINE
  5
235
330
2
100
AcDbEntity
  8
HALFEN
100
AcDbLine
 10
1380.070508075691
 20
2526.249999999992
 30
0.0
 11
1377.070508075691
 21
2526.249999999992
 31
0.0
  0
LINE
  5
236
330
2
100
AcDbEntity
  8
HALFEN
100
AcDbLine
 10
1380.070508075691
 20
2422.016062413403
 30
0.0
 11
1377.07050807569
 21
2422.016062413403
 31
0.0
  0
LINE
  5
237
330
2
100
AcDbEntity
  8
HALFEN
100
AcDbLine
 10
1377.070508075691
 20
2397.657078564781
 30
0.0
 11
1377.070508075691
 21
2526.249999999992
 31
0.0
  0
LINE
  5
238
330
2
100
AcDbEntity
  8
HALFEN
100
AcDbLine
 10
1380.070508075691
 20
2397.657078564781
 30
0.0
 11
1380.070508075691
 21
2526.249999999992
 31
0.0
  0
LINE
  5
23A
330
2
100
AcDbEntity
  8
HALFEN
100
AcDbLine
 10
1377.070508075691
 20
2430.657078564781
 30
0.0
 11
1372.07050807569
 21
2430.657078564781
 31
0.0
  0
LINE
  5
23B
330
2
100
AcDbEntity
  8
HALFEN
100
AcDbLine
 10
1377.070508075691
 20
2402.657078564783
 30
0.0
 11
1372.070508075691
 21
2402.657078564783
 31
0.0
  0
LINE
  5
2A5
330
2
100
AcDbEntity
  8
HALFEN
100
AcDbLine
 10
1478.570508075691
 20
2392.657078564782
 30
0.0
 11
1478.570508075691
 21
2397.657078564781
 31
0.0
  0
LINE
  5
2A6
330
2
100
AcDbEntity
  8
HALFEN
100
AcDbLine
 10
1513.570508075691
 20
2392.657078564782
 30
0.0
 11
1513.570508075691
 21
2397.657078564781
 31
0.0
  0
LINE
  5
2A7
330
2
100
AcDbEntity
  8
HALFEN
100
AcDbLine
 10
1478.570508075691
 20
2397.657078564781
 30
0.0
 11
1513.57050807569
 21
2397.657078564781
 31
0.0
  0
LINE
  5
2A8
330
2
100
AcDbEntity
  8
HALFEN
100
AcDbLine
 10
1395.570508075691
 20
2397.657078564781
 30
0.0
 11
1360.570508075691
 21
2397.657078564781
 31
0.0
  0
LINE
  5
2A9
330
2
100
AcDbEntity
  8
HALFEN
100
AcDbLine
 10
1395.570508075691
 20
2392.657078564782
 30
0.0
 11
1395.570508075691
 21
2397.657078564781
 31
0.0
  0
LINE
  5
2AA
330
2
100
AcDbEntity
  8
HALFEN
100
AcDbLine
 10
1360.57050807569
 20
2392.657078564782
 30
0.0
 11
1360.57050807569
 21
2397.657078564781
 31
0.0
  0
LINE
  5
2AB
330
2
100
AcDbEntity
  8
HALFEN
  6
MITTE2
 62
     1
100
AcDbLine
 10
1496.070508075692
 20
2383.657078564781
 30
0.0
 11
1496.070508075692
 21
2411.657078564781
 31
0.0
  0
LINE
  5
2AC
330
2
100
AcDbEntity
  8
HALFEN
  6
MITTE2
 62
     1
100
AcDbLine
 10
1378.07050807569
 20
2383.657078564781
 30
0.0
 11
1378.07050807569
 21
2411.657078564781
 31
0.0
  0
LINE
  5
2B7
330
2
100
AcDbEntity
  8
HALFEN
  6
MITTE2
 62
     1
100
AcDbLine
 10
1271.57050807569
 20
2406.157078564783
 30
0.0
 11
1271.57050807569
 21
2371.157078564783
 31
0.0
  0
ENDSEC
  0
SECTION
  2
OBJECTS
  0
DICTIONARY
  5
7
330
0
100
AcDbDictionary
281
     1
  3
ACAD_COLOR
350
23
  3
ACAD_GROUP
350
1F
  3
ACAD_LAYOUT
350
B
  3
ACAD_MATERIAL
350
22
  3
ACAD_MLINESTYLE
350
20
  3
ACAD_PLOTSETTINGS
350
21
  3
ACAD_PLOTSTYLENAME
350
6
  3
ACAD_TABLESTYLE
350
24
  3
AcDbVariableDictionary
350
10A
  3
ASE_INDEX_DICTIONARY
350
107
  0
DICTIONARY
  5
1D2
330
2
100
AcDbDictionary
280
     1
281
     1
  3
ACAD_SORTENTS
360
1D3
  0
DICTIONARY
  5
23
102
{ACAD_REACTORS
330
7
102
}
330
7
100
AcDbDictionary
281
     1
  0
DICTIONARY
  5
1F
102
{ACAD_REACTORS
330
7
102
}
330
7
100
AcDbDictionary
281
     1
  0
DICTIONARY
  5
B
102
{ACAD_REACTORS
330
7
102
}
330
7
100
AcDbDictionary
281
     1
  3
Layout1
350
F
  3
Model
350
A
  0
DICTIONARY
  5
22
102
{ACAD_REACTORS
330
7
102
}
330
7
100
AcDbDictionary
281
     1
  0
DICTIONARY
  5
20
102
{ACAD_REACTORS
330
7
102
}
330
7
100
AcDbDictionary
281
     1
  3
STANDARD
350
27
  0
DICTIONARY
  5
21
102
{ACAD_REACTORS
330
7
102
}
330
7
100
AcDbDictionary
281
     1
  0
ACDBDICTIONARYWDFLT
  5
6
102
{ACAD_REACTORS
330
7
102
}
330
7
100
AcDbDictionary
281
     1
  3
Normal
350
5
100
AcDbDictionaryWithDefault
340
5
  0
DICTIONARY
  5
24
102
{ACAD_REACTORS
330
7
102
}
330
7
100
AcDbDictionary
281
     1
  3
Standard
350
28
  0
DICTIONARY
  5
10A
102
{ACAD_REACTORS
330
7
102
}
330
7
100
AcDbDictionary
281
     1
  3
CTABLESTYLE
350
10B
  3
DIMASSOC
350
119
  3
HIDETEXT
350
118
  3
PROJECTNAME
350
11A
  0
DICTIONARY
  5
107
102
{ACAD_REACTORS
330
7
102
}
330
7
100
AcDbDictionary
281
     1
  3
ASEBlockHierarchyIndexRecord
350
109
1001
DCO15
1040
1565416485.687
  0
SORTENTSTABLE
  5
1D3
102
{ACAD_REACTORS
330
1D2
102
}
330
1D2
100
AcDbSortentsTable
330
2
331
DB
  5
DB
331
9C
  5
9C
331
201
  5
20E
331
238
  5
23B
331
1CA
  5
1CA
331
A4
  5
A4
331
E3
  5
E3
331
209
  5
211
331
AC
  5
AC
331
EB
  5
EB
331
211
  5
220
331
B4
  5
B4
331
1DA
  5
1D4
331
65
  5
65
331
2E
  5
2E
331
6D
  5
6D
331
75
  5
75
331
3E
  5
3E
331
F3
  5
F3
331
BC
  5
BC
331
7D
  5
7D
331
FB
  5
FB
331
C4
  5
C4
331
85
  5
85
331
1EA
  5
1EB
331
221
  5
22C
331
103
  5
103
331
CC
  5
CC
331
8D
  5
8D
331
1F2
  5
1F3
331
229
  5
1FE
331
95
  5
95
331
D4
  5
D4
331
231
  5
236
331
46
  5
46
331
4E
  5
4E
331
56
  5
56
331
202
  5
20F
331
9D
  5
9D
331
DC
  5
DC
331
E4
  5
E4
331
A5
  5
A5
331
EC
  5
EC
331
AD
  5
AD
331
212
  5
221
331
B5
  5
B5
331
66
  5
66
331
6E
  5
6E
331
2F
  5
2F
331
76
  5
76
331
3F
  5
3F
331
BD
  5
BD
331
7E
  5
7E
331
F4
  5
F4
331
FC
  5
FC
331
86
  5
86
331
C5
  5
C5
331
1EB
  5
1EC
331
104
  5
104
331
CD
  5
CD
331
8E
  5
8E
331
1F3
  5
1F4
331
22A
  5
231
331
1FB
  5
1FC
331
D5
  5
D5
331
96
  5
96
331
232
  5
201
331
47
  5
47
331
4F
  5
4F
331
57
  5
57
331
23A
  5
203
331
DD
  5
DD
331
9E
  5
9E
331
203
  5
210
331
A6
  5
A6
331
E5
  5
E5
331
1CC
  5
1D1
331
20B
  5
212
331
1D4
  5
1CC
331
AE
  5
AE
331
ED
  5
ED
331
213
  5
225
331
B6
  5
B6
331
67
  5
67
331
30
  5
30
331
6F
  5
6F
331
38
  5
38
331
77
  5
77
331
F5
  5
F5
331
BE
  5
BE
331
7F
  5
7F
331
FD
  5
FD
331
C6
  5
C6
331
87
  5
87
331
1EC
  5
1EE
331
CE
  5
CE
331
8F
  5
8F
331
1F4
  5
1F5
331
233
  5
1FD
331
97
  5
97
331
D6
  5
D6
331
1FC
  5
200
331
40
  5
40
331
48
  5
48
331
50
  5
50
331
58
  5
58
331
DE
  5
DE
331
9F
  5
9F
331
23B
  5
1FF
331
1CD
  5
1D5
331
E6
  5
E6
331
A7
  5
A7
331
20C
  5
213
331
1D5
  5
1D6
331
EE
  5
EE
331
AF
  5
AF
331
214
  5
227
331
B7
  5
B7
331
1DD
  5
1E5
331
60
  5
60
331
68
  5
68
331
70
  5
70
331
31
  5
31
331
39
  5
39
331
78
  5
78
331
BF
  5
BF
331
80
  5
80
331
F6
  5
F6
331
1E5
  5
1E7
331
FE
  5
FE
331
88
  5
88
331
C7
  5
C7
331
1F5
  5
1F6
331
CF
  5
CF
331
90
  5
90
331
22C
  5
233
331
1FD
  5
209
331
D7
  5
D7
331
41
  5
41
331
49
  5
49
331
51
  5
51
331
59
  5
59
331
98
  5
98
331
DF
  5
DF
331
A0
  5
A0
331
A8
  5
A8
331
E7
  5
E7
331
1CE
  5
1D8
331
20D
  5
214
331
EF
  5
EF
331
B0
  5
B0
331
215
  5
228
331
61
  5
61
331
69
  5
69
331
2A
  5
2A
331
32
  5
32
331
71
  5
71
331
3A
  5
3A
331
79
  5
79
331
B8
  5
B8
331
F7
  5
F7
331
C0
  5
C0
331
81
  5
81
331
1EE
  5
1EF
331
C8
  5
C8
331
89
  5
89
331
FF
  5
FF
331
225
  5
22E
331
D0
  5
D0
331
91
  5
91
331
1F6
  5
1F7
331
22D
  5
234
331
1FE
  5
20B
331
235
  5
238
331
42
  5
42
331
4A
  5
4A
331
52
  5
52
331
5A
  5
5A
331
99
  5
99
331
D8
  5
D8
331
E0
  5
E0
331
A1
  5
A1
331
2A5
  5
2A6
331
E8
  5
E8
331
A9
  5
A9
331
20E
  5
215
331
B1
  5
B1
331
1D7
  5
1D0
331
216
  5
229
331
62
  5
62
331
6A
  5
6A
331
2B
  5
2B
331
72
  5
72
331
33
  5
33
331
3B
  5
3B
331
B9
  5
B9
331
7A
  5
7A
331
F0
  5
F0
331
F8
  5
F8
331
82
  5
82
331
C1
  5
C1
331
1E7
  5
1EA
331
100
  5
100
331
8A
  5
8A
331
C9
  5
C9
331
1EF
  5
1F0
331
1F7
  5
1F8
331
D1
  5
D1
331
92
  5
92
331
22E
  5
235
331
1FF
  5
20C
331
236
  5
239
331
43
  5
43
331
4B
  5
4B
331
53
  5
53
331
5B
  5
5B
331
D9
  5
D9
331
9A
  5
9A
331
E1
  5
E1
331
A2
  5
A2
331
2A6
  5
2A7
331
AA
  5
AA
331
E9
  5
E9
331
20F
  5
216
331
B2
  5
B2
331
1D8
  5
1DD
331
63
  5
63
331
6B
  5
6B
331
2C
  5
2C
331
34
  5
34
331
73
  5
73
331
3C
  5
3C
331
F1
  5
F1
331
7B
  5
7B
331
BA
  5
BA
331
F9
  5
F9
331
C2
  5
C2
331
83
  5
83
331
21F
  5
22A
331
101
  5
101
331
CA
  5
CA
331
8B
  5
8B
331
1F0
  5
1F1
331
227
  5
230
331
93
  5
93
331
D2
  5
D2
331
1F8
  5
1F9
331
237
  5
23A
331
44
  5
44
331
4C
  5
4C
331
54
  5
54
331
5C
  5
5C
331
9B
  5
9B
331
DA
  5
DA
331
200
  5
20D
331
E2
  5
E2
331
A3
  5
A3
331
EA
  5
EA
331
AB
  5
AB
331
210
  5
21F
331
2A7
  5
1CE
331
B3
  5
B3
331
1D9
  5
1CB
331
64
  5
64
331
6C
  5
6C
331
2D
  5
2D
331
74
  5
74
331
35
  5
35
331
3D
  5
3D
331
BB
  5
BB
331
7C
  5
7C
331
F2
  5
F2
331
FA
  5
FA
331
84
  5
84
331
C3
  5
C3
331
220
  5
22B
331
102
  5
102
331
8C
  5
8C
331
CB
  5
CB
331
1F1
  5
1F2
331
228
  5
202
331
D3
  5
D3
331
94
  5
94
331
1F9
  5
1FB
331
45
  5
45
331
4D
  5
4D
331
55
  5
55
331
5D
  5
5D
  0
LAYOUT
  5
F
102
{ACAD_REACTORS
330
B
102
}
330
B
100
AcDbPlotSettings
  1

  2
\\DLANT038\DLAKBHL013
  4

  6

 40
0.0
 41
0.0
 42
0.0
 43
0.0
 44
0.0
 45
0.0
 46
0.0
 47
0.0
 48
0.0
 49
0.0
140
0.0
141
0.0
142
1.0
143
1.0
 70
   688
 72
     0
 73
     0
 74
     5
  7

 75
    16
147
1.0
 76
     0
 77
     2
 78
   300
148
0.0
149
0.0
100
AcDbLayout
  1
Layout1
 70
     1
 71
     1
 10
0.0
 20
0.0
 11
12.0
 21
9.0
 12
0.0
 22
0.0
 32
0.0
 14
1.000000000000000E+20
 24
1.000000000000000E+20
 34
1.000000000000000E+20
 15
-1.000000000000000E+20
 25
-1.000000000000000E+20
 35
-1.000000000000000E+20
146
0.0
 13
0.0
 23
0.0
 33
0.0
 16
1.0
 26
0.0
 36
0.0
 17
0.0
 27
1.0
 37
0.0
 76
     0
330
C
  0
LAYOUT
  5
A
102
{ACAD_REACTORS
330
B
102
}
330
B
100
AcDbPlotSettings
  1

  2
\\DLANT038\DLAKBHL013
  4

  6

 40
0.0
 41
0.0
 42
0.0
 43
0.0
 44
0.0
 45
0.0
 46
0.0
 47
0.0
 48
0.0
 49
0.0
140
0.0
141
0.0
142
1.0
143
1.0
 70
  1712
 72
     0
 73
     0
 74
     0
  7

 75
     0
147
1.0
 76
     0
 77
     2
 78
   300
148
0.0
149
0.0
100
AcDbLayout
  1
Model
 70
     1
 71
     0
 10
0.0
 20
0.0
 11
12.0
 21
9.0
 12
0.0
 22
0.0
 32
0.0
 14
0.0
 24
0.0
 34
0.0
 15
0.0
 25
0.0
 35
0.0
146
0.0
 13
0.0
 23
0.0
 33
0.0
 16
1.0
 26
0.0
 36
0.0
 17
0.0
 27
1.0
 37
0.0
 76
     0
330
2
  0
MLINESTYLE
  5
27
102
{ACAD_REACTORS
330
20
102
}
330
20
100
AcDbMlineStyle
  2
STANDARD
 70
     0
  3

 62
     0
 51
90.0
 52
90.0
 71
     2
 49
0.5
 62
   256
  6
BYLAYER
 49
-0.5
 62
   256
  6
BYLAYER
  0
ACDBPLACEHOLDER
  5
5
102
{ACAD_REACTORS
330
6
102
}
330
6
  0
TABLESTYLE
  5
28
102
{ACAD_REACTORS
330
24
102
}
330
24
100
AcDbTableStyle
  3
Standard
 70
     0
 71
     0
 40
1.5
 41
1.5
280
     0
281
     0
  7
STANDARD
140
4.5
170
     2
 62
     0
 63
     7
283
     0
274
    -2
284
     1
 64
     0
275
    -2
285
     1
 65
     0
276
    -2
286
     1
 66
     0
277
    -2
287
     1
 67
     0
278
    -2
288
     1
 68
     0
279
    -2
289
     1
 69
     0
  7
STANDARD
140
6.0
170
     5
 62
     0
 63
     7
283
     0
274
    -2
284
     1
 64
     0
275
    -2
285
     1
 65
     0
276
    -2
286
     1
 66
     0
277
    -2
287
     1
 67
     0
278
    -2
288
     1
 68
     0
279
    -2
289
     1
 69
     0
  7
STANDARD
140
4.5
170
     5
 62
     0
 63
     7
283
     0
274
    -2
284
     1
 64
     0
275
    -2
285
     1
 65
     0
276
    -2
286
     1
 66
     0
277
    -2
287
     1
 67
     0
278
    -2
288
     1
 68
     0
279
    -2
289
     1
 69
     0
  0
DICTIONARYVAR
  5
10B
102
{ACAD_REACTORS
330
10A
102
}
330
10A
100
DictionaryVariables
280
     0
  1
STANDARD
  0
DICTIONARYVAR
  5
119
102
{ACAD_REACTORS
330
10A
102
}
330
10A
100
DictionaryVariables
280
     0
  1
1
  0
DICTIONARYVAR
  5
118
102
{ACAD_REACTORS
330
10A
102
}
330
10A
100
DictionaryVariables
280
     0
  1
1
  0
DICTIONARYVAR
  5
11A
102
{ACAD_REACTORS
330
10A
102
}
330
10A
100
DictionaryVariables
280
     0
  1

  0
XRECORD
  5
109
102
{ACAD_REACTORS
330
107
102
}
330
107
100
AcDbXrecord
280
     1
  0
ENDSEC
  0
EOF
