  0
SECTION
  2
HEADER
  9
$ACADVER
  1
AC1032
  9
$ACADMAINTVER
 90
4
  9
$DWGCODEPAGE
  3
ANSI_1252
  9
$LASTSAVEDBY
  1
ezdxf
  9
$REQUIREDVERSIONS
160
0
  9
$INSBASE
 10
0.0
 20
0.0
 30
0.0
  9
$EXTMIN
 10
1e+20
 20
1e+20
 30
1e+20
  9
$EXTMAX
 10
-1e+20
 20
-1e+20
 30
-1e+20
  9
$LIMMIN
 10
0.0
 20
0.0
  9
$LIMMAX
 10
420.0
 20
297.0
  9
$ORTHOMODE
 70
0
  9
$REGENMODE
 70
1
  9
$FILLMODE
 70
1
  9
$QTEXTMODE
 70
0
  9
$MIRRTEXT
 70
1
  9
$LTSCALE
 40
1.0
  9
$ATTMODE
 70
1
  9
$TEXTSIZE
 40
2.5
  9
$TRACEWID
 40
1.0
  9
$TEXTSTYLE
  7
Standard
  9
$CLAYER
  8
0
  9
$CELTYPE
  6
ByLayer
  9
$CECOLOR
 62
256
  9
$CELTSCALE
 40
1.0
  9
$DISPSILH
 70
0
  9
$DIMSCALE
 40
1.0
  9
$DIMASZ
 40
2.5
  9
$DIMEXO
 40
0.625
  9
$DIMDLI
 40
3.75
  9
$DIMRND
 40
0.0
  9
$DIMDLE
 40
0.0
  9
$DIMEXE
 40
1.25
  9
$DIMTP
 40
0.0
  9
$DIMTM
 40
0.0
  9
$DIMTXT
 40
2.5
  9
$DIMCEN
 40
2.5
  9
$DIMTSZ
 40
0.0
  9
$DIMTOL
 70
0
  9
$DIMLIM
 70
0
  9
$DIMTIH
 70
0
  9
$DIMTOH
 70
0
  9
$DIMSE1
 70
0
  9
$DIMSE2
 70
0
  9
$DIMTAD
 70
1
  9
$DIMZIN
 70
8
  9
$DIMBLK
  1

  9
$DIMASO
 70
1
  9
$DIMSHO
 70
1
  9
$DIMPOST
  1

  9
$DIMAPOST
  1

  9
$DIMALT
 70
0
  9
$DIMALTD
 70
3
  9
$DIMALTF
 40
0.03937007874
  9
$DIMLFAC
 40
1.0
  9
$DIMTOFL
 70
1
  9
$DIMTVP
 40
0.0
  9
$DIMTIX
 70
0
  9
$DIMSOXD
 70
0
  9
$DIMSAH
 70
0
  9
$DIMBLK1
  1

  9
$DIMBLK2
  1

  9
$DIMSTYLE
  2
ISO-25
  9
$DIMCLRD
 70
0
  9
$DIMCLRE
 70
0
  9
$DIMCLRT
 70
0
  9
$DIMTFAC
 40
1.0
  9
$DIMGAP
 40
0.625
  9
$DIMJUST
 70
0
  9
$DIMSD1
 70
0
  9
$DIMSD2
 70
0
  9
$DIMTOLJ
 70
0
  9
$DIMTZIN
 70
8
  9
$DIMALTZ
 70
0
  9
$DIMALTTZ
 70
0
  9
$DIMUPT
 70
0
  9
$DIMDEC
 70
2
  9
$DIMTDEC
 70
2
  9
$DIMALTU
 70
2
  9
$DIMALTTD
 70
3
  9
$DIMTXSTY
  7
Standard
  9
$DIMAUNIT
 70
0
  9
$DIMADEC
 70
0
  9
$DIMALTRND
 40
0.0
  9
$DIMAZIN
 70
0
  9
$DIMDSEP
 70
44
  9
$DIMATFIT
 70
3
  9
$DIMFRAC
 70
0
  9
$DIMLDRBLK
  1

  9
$DIMLUNIT
 70
2
  9
$DIMLWD
 70
-2
  9
$DIMLWE
 70
-2
  9
$DIMTMOVE
 70
0
  9
$DIMFXL
 40
1.0
  9
$DIMFXLON
 70
0
  9
$DIMJOGANG
 40
0.785398163397
  9
$DIMTFILL
 70
0
  9
$DIMTFILLCLR
 70
0
  9
$DIMARCSYM
 70
0
  9
$DIMLTYPE
  6

  9
$DIMLTEX1
  6

  9
$DIMLTEX2
  6

  9
$DIMTXTDIRECTION
 70
0
  9
$LUNITS
 70
2
  9
$LUPREC
 70
4
  9
$SKETCHINC
 40
1.0
  9
$FILLETRAD
 40
10.0
  9
$AUNITS
 70
0
  9
$AUPREC
 70
2
  9
$MENU
  1
.
  9
$ELEVATION
 40
0.0
  9
$PELEVATION
 40
0.0
  9
$THICKNESS
 40
0.0
  9
$LIMCHECK
 70
0
  9
$CHAMFERA
 40
0.0
  9
$CHAMFERB
 40
0.0
  9
$CHAMFERC
 40
0.0
  9
$CHAMFERD
 40
0.0
  9
$SKPOLY
 70
0
  9
$TDCREATE
 40
2461085.245960648
  9
$TDUCREATE
 40
2458532.153996898
  9
$TDUPDATE
 40
2461085.245960648
  9
$TDUUPDATE
 40
2458532.1544311
  9
$TDINDWG
 40
0.0
  9
$TDUSRTIMER
 40
0.0
  9
$USRTIMER
 70
1
  9
$ANGBASE
 50
0.0
  9
$ANGDIR
 70
0
  9
$PDMODE
 70
0
  9
$PDSIZE
 40
0.0
  9
$PLINEWID
 40
0.0
  9
$SPLFRAME
 70
0
  9
$SPLINETYPE
 70
6
  9
$SPLINESEGS
 70
8
  9
$HANDSEED
  5
80
  9
$SURFTAB1
 70
6
  9
$SURFTAB2
 70
6
  9
$SURFTYPE
 70
6
  9
$SURFU
 70
6
  9
$SURFV
 70
6
  9
$UCSBASE
  2

  9
$UCSNAME
  2

  9
$UCSORG
 10
0.0
 20
0.0
 30
0.0
  9
$UCSXDIR
 10
1.0
 20
0.0
 30
0.0
  9
$UCSYDIR
 10
0.0
 20
1.0
 30
0.0
  9
$UCSORTHOREF
  2

  9
$UCSORTHOVIEW
 70
0
  9
$UCSORGTOP
 10
0.0
 20
0.0
 30
0.0
  9
$UCSORGBOTTOM
 10
0.0
 20
0.0
 30
0.0
  9
$UCSORGLEFT
 10
0.0
 20
0.0
 30
0.0
  9
$UCSORGRIGHT
 10
0.0
 20
0.0
 30
0.0
  9
$UCSORGFRONT
 10
0.0
 20
0.0
 30
0.0
  9
$UCSORGBACK
 10
0.0
 20
0.0
 30
0.0
  9
$PUCSBASE
  2

  9
$PUCSNAME
  2

  9
$PUCSORG
 10
0.0
 20
0.0
 30
0.0
  9
$PUCSXDIR
 10
1.0
 20
0.0
 30
0.0
  9
$PUCSYDIR
 10
0.0
 20
1.0
 30
0.0
  9
$PUCSORTHOREF
  2

  9
$PUCSORTHOVIEW
 70
0
  9
$PUCSORGTOP
 10
0.0
 20
0.0
 30
0.0
  9
$PUCSORGBOTTOM
 10
0.0
 20
0.0
 30
0.0
  9
$PUCSORGLEFT
 10
0.0
 20
0.0
 30
0.0
  9
$PUCSORGRIGHT
 10
0.0
 20
0.0
 30
0.0
  9
$PUCSORGFRONT
 10
0.0
 20
0.0
 30
0.0
  9
$PUCSORGBACK
 10
0.0
 20
0.0
 30
0.0
  9
$USERI1
 70
0
  9
$USERI2
 70
0
  9
$USERI3
 70
0
  9
$USERI4
 70
0
  9
$USERI5
 70
0
  9
$USERR1
 40
0.0
  9
$USERR2
 40
0.0
  9
$USERR3
 40
0.0
  9
$USERR4
 40
0.0
  9
$USERR5
 40
0.0
  9
$WORLDVIEW
 70
1
  9
$SHADEDGE
 70
3
  9
$SHADEDIF
 70
70
  9
$TILEMODE
 70
1
  9
$MAXACTVP
 70
64
  9
$PINSBASE
 10
0.0
 20
0.0
 30
0.0
  9
$PLIMCHECK
 70
0
  9
$PEXTMIN
 10
1e+20
 20
1e+20
 30
1e+20
  9
$PEXTMAX
 10
-1e+20
 20
-1e+20
 30
-1e+20
  9
$PLIMMIN
 10
0.0
 20
0.0
  9
$PLIMMAX
 10
420.0
 20
297.0
  9
$UNITMODE
 70
0
  9
$VISRETAIN
 70
1
  9
$PLINEGEN
 70
0
  9
$PSLTSCALE
 70
1
  9
$TREEDEPTH
 70
3020
  9
$CMLSTYLE
  2
Standard
  9
$CMLJUST
 70
0
  9
$CMLSCALE
 40
20.0
  9
$PROXYGRAPHICS
 70
1
  9
$MEASUREMENT
 70
1
  9
$CELWEIGHT
370
-1
  9
$ENDCAPS
280
0
  9
$JOINSTYLE
280
0
  9
$LWDISPLAY
290
0
  9
$INSUNITS
 70
6
  9
$HYPERLINKBASE
  1

  9
$STYLESHEET
  1

  9
$XEDIT
290
1
  9
$CEPSNTYPE
380
0
  9
$PSTYLEMODE
290
1
  9
$FINGERPRINTGUID
  2
{6D790B9B-BCDF-47B3-8606-6D08B1264203}
  9
$VERSIONGUID
  2
{11DDC004-CDC9-46DD-A61B-78383CE79C9C}
  9
$EXTNAMES
290
1
  9
$PSVPSCALE
 40
0.0
  9
$OLESTARTUP
290
0
  9
$SORTENTS
280
127
  9
$INDEXCTL
280
0
  9
$HIDETEXT
280
1
  9
$XCLIPFRAME
280
1
  9
$HALOGAP
280
0
  9
$OBSCOLOR
 70
257
  9
$OBSLTYPE
280
0
  9
$INTERSECTIONDISPLAY
280
0
  9
$INTERSECTIONCOLOR
 70
257
  9
$DIMASSOC
280
2
  9
$PROJECTNAME
  1

  9
$CAMERADISPLAY
290
0
  9
$LENSLENGTH
 40
50.0
  9
$CAMERAHEIGHT
 40
0.0
  9
$STEPSPERSEC
 40
24.0
  9
$STEPSIZE
 40
100.0
  9
$3DDWFPREC
 40
2.0
  9
$PSOLWIDTH
 40
0.005
  9
$PSOLHEIGHT
 40
0.08
  9
$LOFTANG1
 40
1.570796326795
  9
$LOFTANG2
 40
1.570796326795
  9
$LOFTMAG1
 40
0.0
  9
$LOFTMAG2
 40
0.0
  9
$LOFTPARAM
 70
7
  9
$LOFTNORMALS
280
1
  9
$LATITUDE
 40
37.795
  9
$LONGITUDE
 40
-122.394
  9
$NORTHDIRECTION
 40
0.0
  9
$TIMEZONE
 70
-8000
  9
$LIGHTGLYPHDISPLAY
280
1
  9
$TILEMODELIGHTSYNCH
280
1
  9
$CMATERIAL
347
20
  9
$SOLIDHIST
280
0
  9
$SHOWHIST
280
1
  9
$DWFFRAME
280
2
  9
$DGNFRAME
280
2
  9
$REALWORLDSCALE
290
1
  9
$INTERFERECOLOR
 62
256
  9
$CSHADOW
280
0
  9
$SHADOWPLANELOCATION
 40
0.0
  0
ENDSEC
  0
SECTION
  2
CLASSES
  0
CLASS
  1
ACDBDICTIONARYWDFLT
  2
AcDbDictionaryWithDefault
  3
ObjectDBX Classes
 90
0
 91
0
280
0
281
0
  0
CLASS
  1
SUN
  2
AcDbSun
  3
SCENEOE
 90
1153
 91
0
280
0
281
0
  0
CLASS
  1
VISUALSTYLE
  2
AcDbVisualStyle
  3
ObjectDBX Classes
 90
4095
 91
0
280
0
281
0
  0
CLASS
  1
MATERIAL
  2
AcDbMaterial
  3
ObjectDBX Classes
 90
1153
 91
0
280
0
281
0
  0
CLASS
  1
SCALE
  2
AcDbScale
  3
ObjectDBX Classes
 90
1153
 91
0
280
0
281
0
  0
CLASS
  1
TABLESTYLE
  2
AcDbTableStyle
  3
ObjectDBX Classes
 90
4095
 91
0
280
0
281
0
  0
CLASS
  1
MLEADERSTYLE
  2
AcDbMLeaderStyle
  3
ACDB_MLEADERSTYLE_CLASS
 90
4095
 91
0
280
0
281
0
  0
CLASS
  1
DICTIONARYVAR
  2
AcDbDictionaryVar
  3
ObjectDBX Classes
 90
0
 91
0
280
0
281
0
  0
CLASS
  1
CELLSTYLEMAP
  2
AcDbCellStyleMap
  3
ObjectDBX Classes
 90
1152
 91
0
280
0
281
0
  0
CLASS
  1
MENTALRAYRENDERSETTINGS
  2
AcDbMentalRayRenderSettings
  3
SCENEOE
 90
1024
 91
0
280
0
281
0
  0
CLASS
  1
ACDBDETAILVIEWSTYLE
  2
AcDbDetailViewStyle
  3
ObjectDBX Classes
 90
1025
 91
0
280
0
281
0
  0
CLASS
  1
ACDBSECTIONVIEWSTYLE
  2
AcDbSectionViewStyle
  3
ObjectDBX Classes
 90
1025
 91
0
280
0
281
0
  0
CLASS
  1
RASTERVARIABLES
  2
AcDbRasterVariables
  3
ISM
 90
0
 91
0
280
0
281
0
  0
CLASS
  1
LAYOUT
  2
AcDbLayout
  3
ObjectDBX Classes
 90
0
 91
0
280
0
281
0
  0
CLASS
  1
ACDBPLACEHOLDER
  2
AcDbPlaceHolder
  3
ObjectDBX Classes
 90
0
 91
0
280
0
281
0
  0
ENDSEC
  0
SECTION
  2
TABLES
  0
TABLE
  2
VPORT
  5
8
330
0
100
AcDbSymbolTable
 70
1
  0
VPORT
  5
23
330
8
100
AcDbSymbolTableRecord
100
AcDbViewportTableRecord
  2
*Active
 70
0
 10
0.0
 20
0.0
 11
1.0
 21
1.0
 12
0.0
 22
0.0
 13
0.0
 23
0.0
 14
0.5
 24
0.5
 15
0.5
 25
0.5
 16
0.0
 26
0.0
 36
1.0
 17
0.0
 27
0.0
 37
0.0
 40
1000.0
 41
1.34
 42
50.0
 43
0.0
 44
0.0
 50
0.0
 51
0.0
 71
0
 72
1000
 73
1
 74
3
 75
0
 76
0
 77
0
 78
0
281
0
 65
0
146
0.0
  0
ENDTAB
  0
TABLE
  2
LTYPE
  5
2
330
0
100
AcDbSymbolTable
 70
3
  0
LTYPE
  5
24
330
2
100
AcDbSymbolTableRecord
100
AcDbLinetypeTableRecord
  2
ByBlock
 70
0
  3

 72
65
 73
0
 40
0.0
  0
LTYPE
  5
25
330
2
100
AcDbSymbolTableRecord
100
AcDbLinetypeTableRecord
  2
ByLayer
 70
0
  3

 72
65
 73
0
 40
0.0
  0
LTYPE
  5
26
330
2
100
AcDbSymbolTableRecord
100
AcDbLinetypeTableRecord
  2
Continuous
 70
0
  3

 72
65
 73
0
 40
0.0
  0
ENDTAB
  0
TABLE
  2
LAYER
  5
1
330
0
100
AcDbSymbolTable
 70
3
  0
LAYER
  5
27
330
1
100
AcDbSymbolTableRecord
100
AcDbLayerTableRecord
  2
0
 70
0
 62
7
  6
Continuous
370
-3
390
13
347
21
  0
LAYER
  5
28
330
1
100
AcDbSymbolTableRecord
100
AcDbLayerTableRecord
  2
Defpoints
 70
0
 62
7
  6
Continuous
290
0
370
-3
390
13
347
21
  0
LAYER
  5
7A
330
1
100
AcDbSymbolTableRecord
100
AcDbLayerTableRecord
  2
A-DETL-GENF
 70
0
 62
92
  6
Continuous
370
18
390
13
347
21
348
0
  0
ENDTAB
  0
TABLE
  2
STYLE
  5
5
330
0
100
AcDbSymbolTable
 70
1
  0
STYLE
  5
29
330
5
100
AcDbSymbolTableRecord
100
AcDbTextStyleTableRecord
  2
Standard
 70
0
 40
0.0
 41
1.0
 50
0.0
 71
0
 42
2.5
  3
txt
  4

  0
ENDTAB
  0
TABLE
  2
VIEW
  5
7
330
0
100
AcDbSymbolTable
 70
0
  0
ENDTAB
  0
TABLE
  2
UCS
  5
6
330
0
100
AcDbSymbolTable
 70
0
  0
ENDTAB
  0
TABLE
  2
APPID
  5
3
330
0
100
AcDbSymbolTable
 70
3
  0
APPID
  5
2A
330
3
100
AcDbSymbolTableRecord
100
AcDbRegAppTableRecord
  2
ACAD
 70
0
  0
APPID
  5
7D
330
3
100
AcDbSymbolTableRecord
100
AcDbRegAppTableRecord
  2
HATCHBACKGROUNDCOLOR
 70
0
  0
APPID
  5
7E
330
3
100
AcDbSymbolTableRecord
100
AcDbRegAppTableRecord
  2
EZDXF
 70
0
  0
ENDTAB
  0
TABLE
  2
DIMSTYLE
  5
4
330
0
100
AcDbSymbolTable
 70
1
100
AcDbDimStyleTable
  0
DIMSTYLE
105
2B
330
4
100
AcDbSymbolTableRecord
100
AcDbDimStyleTableRecord
  2
Standard
 70
0
 40
1.0
 41
2.5
 42
0.625
 43
3.75
 44
1.25
 45
0.0
 46
0.0
 47
0.0
 48
0.0
 49
2.5
140
2.5
141
2.5
142
0.0
143
0.03937007874
144
1.0
145
0.0
146
1.0
147
0.625
148
0.0
 69
0
 70
0
 71
0
 72
0
 73
0
 74
0
 75
0
 76
0
 77
1
 78
8
 79
3
170
0
171
3
172
1
173
0
174
0
175
0
176
0
177
0
178
0
179
2
271
2
272
2
273
2
274
3
275
0
276
0
277
2
278
44
279
0
280
0
281
0
282
0
283
0
284
8
285
0
286
0
288
0
289
3
290
0
371
-2
372
-2
  0
ENDTAB
  0
TABLE
  2
BLOCK_RECORD
  5
9
330
0
100
AcDbSymbolTable
 70
3
  0
BLOCK_RECORD
  5
17
330
9
100
AcDbSymbolTableRecord
100
AcDbBlockTableRecord
  2
*Model_Space
340
1A
 70
0
280
1
281
0
  0
BLOCK_RECORD
  5
1B
330
9
100
AcDbSymbolTableRecord
100
AcDbBlockTableRecord
  2
*Paper_Space
340
1E
 70
0
280
1
281
0
  0
BLOCK_RECORD
  5
2F
330
9
100
AcDbSymbolTableRecord
100
AcDbBlockTableRecord
  2
31 recystel stelkozijn - R2005-1524511-00_0 Basismaterialen
340
0
 70
0
280
1
281
0
  0
ENDTAB
  0
ENDSEC
  0
SECTION
  2
BLOCKS
  0
BLOCK
  5
18
330
17
100
AcDbEntity
  8
0
100
AcDbBlockBegin
  2
*Model_Space
 70
0
 10
0.0
 20
0.0
 30
0.0
  3
*Model_Space
  1

  0
ENDBLK
  5
19
330
17
100
AcDbEntity
  8
0
100
AcDbBlockEnd
  0
BLOCK
  5
1C
330
1B
100
AcDbEntity
  8
0
100
AcDbBlockBegin
  2
*Paper_Space
 70
0
 10
0.0
 20
0.0
 30
0.0
  3
*Paper_Space
  1

  0
ENDBLK
  5
1D
330
1B
100
AcDbEntity
  8
0
100
AcDbBlockEnd
  0
BLOCK
  5
30
330
2F
100
AcDbEntity
  8
0
100
AcDbBlockBegin
  2
31 recystel stelkozijn - R2005-1524511-00_0 Basismaterialen
 70
0
 10
0.0
 20
0.0
 30
0.0
  3
31 recystel stelkozijn - R2005-1524511-00_0 Basismaterialen
  1

  0
HATCH
  5
32
330
2F
100
AcDbEntity
  8
A-DETL-GENF
100
AcDbHatch
 10
0.0
 20
0.0
 30
0.0
210
0.0
220
0.0
230
1.0
  2
SOLID
 70
1
 71
0
 91
1
 92
1
 93
18
 72
1
 10
-101.000000000016
 20
-20.99999999999739
 11
-99.98277406977557
 21
-20.99999999999739
 72
1
 10
-99.98277406977557
 20
-20.99999999999739
 11
-99.98277406977557
 21
-20.19999999999757
 72
1
 10
-99.98277406977557
 20
-20.19999999999757
 11
-101.200000000016
 21
-20.19999999999757
 72
1
 10
-101.200000000016
 20
-20.19999999999757
 11
-101.200000000016
 21
-0.7999999999976524
 72
1
 10
-101.200000000016
 20
-0.7999999999976524
 11
-99.98277406977557
 21
-0.7999999999976524
 72
1
 10
-99.98277406977557
 20
-0.7999999999976524
 11
-99.98277406977557
 21
2.1657e-12
 72
1
 10
-99.98277406977557
 20
2.1657e-12
 11
-101.2588190451205
 21
-0.0340741737092003
 72
1
 10
-101.2588190451205
 20
-0.0340741737092003
 11
-101.5000000000159
 21
-0.1339745962128575
 72
1
 10
-101.5000000000159
 20
-0.1339745962128575
 11
-101.707106781202
 21
-0.2928932188115539
 72
1
 10
-101.707106781202
 20
-0.2928932188115539
 11
-101.8660254038051
 21
-0.4999999999977206
 72
1
 10
-101.8660254038051
 20
-0.4999999999977206
 11
-101.9659258263066
 21
-0.7411809548974191
 72
1
 10
-101.9659258263066
 20
-0.7411809548974191
 11
-102.0000000000201
 21
-0.9999999999976068
 72
1
 10
-102.0000000000201
 20
-0.9999999999976068
 11
-101.9659258263066
 21
-20.25881904509997
 72
1
 10
-101.9659258263066
 20
-20.25881904509997
 11
-101.8660254038051
 21
-20.49999999999751
 72
1
 10
-101.8660254038051
 20
-20.49999999999751
 11
-101.707106781202
 21
-20.70710678118584
 72
1
 10
-101.707106781202
 20
-20.70710678118584
 11
-101.5000000000159
 21
-20.86602540378237
 72
1
 10
-101.5000000000159
 20
-20.86602540378237
 11
-101.2588190451205
 21
-20.96592582628819
 72
1
 10
-101.2588190451205
 20
-20.96592582628819
 11
-101.000000000016
 21
-20.99999999999739
 97
0
 75
0
 76
1
 98
1
 10
0.0
 20
0.0
450
0
451
0
460
0.0
461
0.0
452
0
462
0.0
453
0
470

  0
HATCH
  5
33
330
2F
100
AcDbEntity
  8
A-DETL-GENF
370
13
100
AcDbHatch
 10
0.0
 20
0.0
 30
0.0
210
0.0
220
0.0
230
1.0
  2
FP_67
 70
0
 71
0
 91
6
 92
1
 93
39
 72
1
 10
-0.9242640687305765
 20
-20.99999999999739
 11
-1.73259e-11
 21
-20.07573593128631
 72
1
 10
-1.73259e-11
 20
-20.07573593128631
 11
0.9242640686959248
 21
-20.99999999999739
 72
1
 10
0.9242640686959248
 20
-20.99999999999739
 11
47.99999999998475
 21
-20.99999999999739
 72
1
 10
47.99999999998475
 20
-20.99999999999739
 11
47.99999999998475
 21
2.1672e-12
 72
1
 10
47.99999999998475
 20
2.1657e-12
 11
0.9242640686959263
 21
2.1657e-12
 72
1
 10
0.9242640686959248
 20
2.1657e-12
 11
-1.73259e-11
 21
-0.9242640687089192
 72
1
 10
-1.73259e-11
 20
-0.9242640687089192
 11
-0.9242640687305765
 21
2.1657e-12
 72
1
 10
-0.9242640687305765
 20
2.1657e-12
 11
-81.25881904511643
 21
-0.0340741737092003
 72
1
 10
-81.25881904511643
 20
-0.0340741737092003
 11
-81.50000000001613
 21
-0.1339745962128575
 72
1
 10
-81.50000000001613
 20
-0.1339745962128575
 11
-81.7071067812066
 21
-0.2928932188115539
 72
1
 10
-81.7071067812066
 20
-0.2928932188115539
 11
-81.86602540380532
 21
-0.4999999999977206
 72
1
 10
-81.86602540380532
 20
-0.4999999999977206
 11
-81.96592582630682
 21
-0.7411809548974191
 72
1
 10
-81.96592582630682
 20
-0.7411809548974191
 11
-82.00000000002034
 21
-0.9999999999976068
 72
1
 10
-82.00000000002034
 20
-0.9999999999976068
 11
-82.03407417372954
 21
-5.258819045101216
 72
1
 10
-82.03407417372954
 20
-5.258819045101216
 11
-82.13397459623536
 21
-5.499999999998749
 72
1
 10
-82.13397459623536
 20
-5.499999999998749
 11
-82.29289321882973
 21
-5.707106781184916
 72
1
 10
-82.29289321882973
 20
-5.707106781184916
 11
-82.50000000001589
 21
-5.866025403783612
 72
1
 10
-82.50000000001589
 20
-5.866025403783612
 11
-82.74118095491559
 21
-5.96592582628727
 72
1
 10
-82.74118095491559
 20
-5.96592582628727
 11
-83.00000000002011
 21
-5.999999999998635
 72
1
 10
-83.00000000002011
 20
-5.999999999998635
 11
-93.25881904511803
 21
-5.96592582628727
 72
1
 10
-93.25881904511803
 20
-5.96592582628727
 11
-93.50000000001772
 21
-5.866025403783612
 72
1
 10
-93.50000000001772
 20
-5.866025403783612
 11
-93.70710678120389
 21
-5.707106781184916
 72
1
 10
-93.70710678120389
 20
-5.707106781184916
 11
-93.8660254038026
 21
-5.499999999998749
 72
1
 10
-93.8660254038026
 20
-5.499999999998749
 11
-93.9659258263084
 21
-5.258819045101216
 72
1
 10
-93.9659258263084
 20
-5.258819045101216
 11
-94.0000000000176
 21
-4.999999999996697
 72
1
 10
-94.0000000000176
 20
-4.999999999996697
 11
-94.03407417372681
 21
-0.7411809548974189
 72
1
 10
-94.03407417372681
 20
-0.7411809548974191
 11
-94.13397459623263
 21
-0.4999999999977206
 72
1
 10
-94.13397459623263
 20
-0.4999999999977206
 11
-94.29289321883134
 21
-0.2928932188115539
 72
1
 10
-94.29289321883134
 20
-0.2928932188115539
 11
-94.5000000000175
 21
-0.1339745962128575
 72
1
 10
-94.5000000000175
 20
-0.1339745962128575
 11
-94.7411809549172
 21
-0.0340741737092003
 72
1
 10
-94.7411809549172
 20
-0.0340741737092003
 11
-95.0000000000174
 21
2.1657e-12
 72
1
 10
-95.0000000000174
 20
2.1657e-12
 11
-99.98277406977557
 21
2.1657e-12
 72
1
 10
-99.98277406977557
 20
2.1657e-12
 11
-99.98277406977557
 21
-0.7999999999976524
 72
1
 10
-99.98277406977557
 20
-0.7999999999976524
 11
-101.200000000016
 21
-0.7999999999976524
 72
1
 10
-101.200000000016
 20
-0.7999999999976524
 11
-101.200000000016
 21
-20.19999999999757
 72
1
 10
-101.200000000016
 20
-20.19999999999757
 11
-99.98277406977557
 21
-20.19999999999757
 72
1
 10
-99.98277406977557
 20
-20.19999999999757
 11
-99.98277406977557
 21
-20.99999999999739
 72
1
 10
-99.98277406977557
 20
-20.99999999999739
 11
-45.55368757865443
 21
-20.99999999999739
 72
1
 10
-45.55368757865443
 20
-20.99999999999739
 11
-0.9242640687305794
 21
-20.99999999999739
 97
0
 92
1
 93
25
 72
1
 10
-70.75000000001857
 20
-14.99999999999875
 11
-71.00881904511876
 21
-14.96592582628739
 72
1
 10
-71.00881904511876
 20
-14.96592582628739
 11
-71.25000000001846
 21
-14.86602540378373
 72
1
 10
-71.25000000001846
 20
-14.86602540378373
 11
-71.45710678120462
 21
-14.70710678118503
 72
1
 10
-71.45710678120462
 20
-14.70710678118503
 11
-71.61602540380332
 21
-14.49999999999887
 72
1
 10
-71.61602540380332
 20
-14.49999999999887
 11
-71.71592582630481
 21
-14.25881904510134
 72
1
 10
-71.71592582630481
 20
-14.25881904510134
 11
-71.75000000001835
 21
-13.99999999999898
 72
1
 10
-71.75000000001835
 20
-13.99999999999898
 11
-71.71592582630481
 21
-6.741180954896054
 72
1
 10
-71.71592582630481
 20
-6.741180954896054
 11
-71.61602540380332
 21
-6.499999999998522
 72
1
 10
-71.61602540380332
 20
-6.499999999998522
 11
-71.45710678120462
 21
-6.292893218812355
 72
1
 10
-71.45710678120462
 20
-6.292893218812355
 11
-71.25000000001846
 21
-6.133974596213659
 72
1
 10
-71.25000000001846
 20
-6.133974596213659
 11
-71.00881904511876
 21
-6.034074173707836
 72
1
 10
-71.00881904511876
 20
-6.034074173707836
 11
-70.75000000001857
 21
-5.999999999998635
 72
1
 10
-70.75000000001857
 20
-5.999999999998635
 11
-50.24118095491432
 21
-6.034074173707836
 72
1
 10
-50.24118095491432
 20
-6.034074173707836
 11
-50.00000000001895
 21
-6.133974596213659
 72
1
 10
-50.00000000001895
 20
-6.133974596213659
 11
-49.79289321883278
 21
-6.292893218812355
 72
1
 10
-49.79289321883278
 20
-6.292893218812355
 11
-49.63397459623409
 21
-6.499999999998522
 72
1
 10
-49.63397459623409
 20
-6.499999999998522
 11
-49.53407417372826
 21
-6.741180954896054
 72
1
 10
-49.53407417372826
 20
-6.741180954896054
 11
-49.50000000001907
 21
-6.999999999998408
 72
1
 10
-49.50000000001907
 20
-6.999999999998408
 11
-49.53407417372826
 21
-14.25881904510134
 72
1
 10
-49.53407417372826
 20
-14.25881904510134
 11
-49.63397459623409
 21
-14.4999999999967
 72
1
 10
-49.63397459623409
 20
-14.4999999999967
 11
-49.79289321883278
 21
-14.70710678118503
 72
1
 10
-49.79289321883278
 20
-14.70710678118503
 11
-50.00000000001895
 21
-14.86602540378373
 72
1
 10
-50.00000000001895
 20
-14.86602540378373
 11
-50.24118095491432
 21
-14.96592582628739
 72
1
 10
-50.24118095491432
 20
-14.96592582628739
 11
-50.50000000001451
 21
-14.99999999999875
 72
1
 10
-50.50000000001451
 20
-14.99999999999875
 11
-70.75000000001857
 21
-14.99999999999875
 97
0
 92
1
 93
36
 72
1
 10
-74.75000000001766
 20
-14.99999999999875
 11
-95.25881904512191
 21
-14.96592582628739
 72
1
 10
-95.25881904512191
 20
-14.96592582628739
 11
-95.50000000001727
 21
-14.86602540378373
 72
1
 10
-95.50000000001727
 20
-14.86602540378373
 11
-95.70710678120344
 21
-14.70710678118503
 72
1
 10
-95.70710678120344
 20
-14.70710678118503
 11
-95.86602540380214
 21
-14.4999999999967
 72
1
 10
-95.86602540380214
 20
-14.4999999999967
 11
-95.96592582630362
 21
-14.25881904510134
 72
1
 10
-95.96592582630362
 20
-14.25881904510134
 11
-96.00000000001715
 21
-13.99999999999898
 72
1
 10
-96.00000000001715
 20
-13.99999999999898
 11
-95.96592582630362
 21
-12.74118095489469
 72
1
 10
-95.96592582630362
 20
-12.74118095489469
 11
-95.86602540380214
 21
-12.49999999999932
 72
1
 10
-95.86602540380214
 20
-12.49999999999932
 11
-95.70710678120344
 21
-12.29289321881099
 72
1
 10
-95.70710678120344
 20
-12.29289321881099
 11
-95.50000000001727
 21
-12.13397459621446
 72
1
 10
-95.50000000001727
 20
-12.13397459621446
 11
-95.25881904512191
 21
-12.03407417370863
 72
1
 10
-95.25881904512191
 20
-12.03407417370863
 11
-95.0000000000174
 21
-11.99999999999944
 72
1
 10
-95.0000000000174
 20
-11.99999999999944
 11
-77.9594328664089
 21
-11.9659258262859
 72
1
 10
-77.9594328664089
 20
-11.9659258262859
 11
-77.71825191151353
 21
-11.86602540378441
 72
1
 10
-77.71825191151353
 20
-11.86602540378441
 11
-77.51114513032739
 21
-11.70710678118355
 72
1
 10
-77.51114513032739
 20
-11.70710678118355
 11
-77.35222650772867
 21
-11.49999999999738
 72
1
 10
-77.35222650772867
 20
-11.49999999999738
 11
-77.2523260852272
 21
-11.25881904509985
 72
1
 10
-77.2523260852272
 20
-11.25881904509985
 11
-77.21825191151366
 21
-10.9999999999975
 72
1
 10
-77.21825191151366
 20
-10.9999999999975
 11
-77.18417773780014
 21
-6.741180954896054
 72
1
 10
-77.18417773780014
 20
-6.741180954896054
 11
-77.08427731529865
 21
-6.499999999998522
 72
1
 10
-77.08427731529865
 20
-6.499999999998522
 11
-76.92535869269994
 21
-6.292893218812355
 72
1
 10
-76.92535869269994
 20
-6.292893218812355
 11
-76.71825191151378
 21
-6.133974596213659
 72
1
 10
-76.71825191151378
 20
-6.133974596213659
 11
-76.47707095661842
 21
-6.034074173707836
 72
1
 10
-76.47707095661842
 20
-6.034074173707836
 11
-76.21825191151389
 21
-5.999999999998635
 72
1
 10
-76.21825191151389
 20
-5.999999999998635
 11
-74.49118095491313
 21
-6.034074173707836
 72
1
 10
-74.49118095491313
 20
-6.034074173707836
 11
-74.25000000001776
 21
-6.133974596213659
 72
1
 10
-74.25000000001776
 20
-6.133974596213659
 11
-74.04289321883161
 21
-6.292893218812355
 72
1
 10
-74.04289321883161
 20
-6.292893218812355
 11
-73.8839745962329
 21
-6.499999999998522
 72
1
 10
-73.8839745962329
 20
-6.499999999998522
 11
-73.78407417372709
 21
-6.741180954896054
 72
1
 10
-73.78407417372709
 20
-6.741180954896054
 11
-73.75000000001789
 21
-6.999999999998408
 72
1
 10
-73.75000000001789
 20
-6.999999999998408
 11
-73.78407417372709
 21
-14.25881904510134
 72
1
 10
-73.78407417372709
 20
-14.25881904510134
 11
-73.8839745962329
 21
-14.4999999999967
 72
1
 10
-73.8839745962329
 20
-14.4999999999967
 11
-74.04289321883161
 21
-14.70710678118503
 72
1
 10
-74.04289321883161
 20
-14.70710678118503
 11
-74.25000000001776
 21
-14.86602540378373
 72
1
 10
-74.25000000001776
 20
-14.86602540378373
 11
-74.49118095491313
 21
-14.96592582628739
 72
1
 10
-74.49118095491313
 20
-14.96592582628739
 11
-74.75000000001766
 21
-14.99999999999875
 97
0
 92
1
 93
24
 72
1
 10
-14.00000000001847
 20
-14.99999999999875
 11
-45.75881904512016
 21
-14.96592582628739
 72
1
 10
-45.75881904512016
 20
-14.96592582628739
 11
-46.00000000001553
 21
-14.86602540378373
 72
1
 10
-46.00000000001553
 20
-14.86602540378373
 11
-46.20710678120169
 21
-14.70710678118503
 72
1
 10
-46.20710678120169
 20
-14.70710678118503
 11
-46.36602540380039
 21
-14.4999999999967
 72
1
 10
-46.36602540380039
 20
-14.4999999999967
 11
-46.46592582630622
 21
-14.25881904510134
 72
1
 10
-46.46592582630622
 20
-14.25881904510134
 11
-46.50000000001542
 21
-13.99999999999898
 72
1
 10
-46.50000000001542
 20
-13.99999999999898
 11
-46.46592582630622
 21
-6.741180954896054
 72
1
 10
-46.46592582630622
 20
-6.741180954896054
 11
-46.36602540380039
 21
-6.499999999998522
 72
1
 10
-46.36602540380039
 20
-6.499999999998522
 11
-46.20710678120169
 21
-6.292893218812355
 72
1
 10
-46.20710678120169
 20
-6.292893218812355
 11
-46.00000000001553
 21
-6.133974596213659
 72
1
 10
-46.00000000001553
 20
-6.133974596213659
 11
-45.55368757865443
 21
-6.007068103815351
 72
1
 10
-45.55368757865443
 20
-6.007068103815351
 11
-45.50000000001997
 21
-5.999999999998635
 72
1
 10
-45.50000000001997
 20
-5.999999999998635
 11
-13.74118095491396
 21
-6.034074173707836
 72
1
 10
-13.74118095491395
 20
-6.034074173707836
 11
-13.50000000001859
 21
-6.133974596213659
 72
1
 10
-13.50000000001859
 20
-6.133974596213659
 11
-13.29289321883242
 21
-6.292893218812355
 72
1
 10
-13.29289321883242
 20
-6.292893218812355
 11
-13.13397459623372
 21
-6.499999999998522
 72
1
 10
-13.13397459623372
 20
-6.499999999998522
 11
-13.0340741737279
 21
-6.741180954896054
 72
1
 10
-13.0340741737279
 20
-6.741180954896054
 11
-13.0000000000187
 21
-6.999999999998408
 72
1
 10
-13.0000000000187
 20
-6.999999999998408
 11
-13.0340741737279
 21
-14.25881904510134
 72
1
 10
-13.0340741737279
 20
-14.25881904510134
 11
-13.13397459623372
 21
-14.4999999999967
 72
1
 10
-13.13397459623372
 20
-14.4999999999967
 11
-13.29289321883242
 21
-14.70710678118503
 72
1
 10
-13.29289321883242
 20
-14.70710678118503
 11
-13.50000000001859
 21
-14.86602540378373
 72
1
 10
-13.50000000001859
 20
-14.86602540378373
 11
-13.74118095491395
 21
-14.96592582628739
 72
1
 10
-13.74118095491395
 20
-14.96592582628739
 11
-14.00000000001847
 21
-14.99999999999875
 97
0
 92
1
 93
25
 72
1
 10
-9.00000000001961
 20
-14.99999999999875
 11
-9.258819045119798
 21
-14.96592582628739
 72
1
 10
-9.258819045119798
 20
-14.96592582628739
 11
-9.500000000019497
 21
-14.86602540378373
 72
1
 10
-9.500000000019497
 20
-14.86602540378373
 11
-9.707106781201333
 21
-14.70710678118503
 72
1
 10
-9.707106781201333
 20
-14.70710678118503
 11
-9.866025403800029
 21
-14.4999999999967
 72
1
 10
-9.866025403800029
 20
-14.4999999999967
 11
-9.965925826305853
 21
-14.25881904510134
 72
1
 10
-9.965925826305853
 20
-14.25881904510134
 11
-10.00000000001505
 21
-13.99999999999898
 72
1
 10
-10.00000000001505
 20
-13.99999999999898
 11
-9.965925826305853
 21
-6.741180954896054
 72
1
 10
-9.965925826305853
 20
-6.741180954896054
 11
-9.866025403800029
 21
-6.499999999998522
 72
1
 10
-9.866025403800029
 20
-6.499999999998522
 11
-9.707106781201333
 21
-6.292893218812355
 72
1
 10
-9.707106781201333
 20
-6.292893218812355
 11
-9.500000000019497
 21
-6.133974596213659
 72
1
 10
-9.500000000019497
 20
-6.133974596213659
 11
-9.258819045119798
 21
-6.034074173707836
 72
1
 10
-9.258819045119798
 20
-6.034074173707836
 11
-9.00000000001961
 21
-5.999999999998635
 72
1
 10
-9.00000000001961
 20
-5.999999999998635
 11
9.254191983551198
 21
-6.034074173707836
 72
1
 10
9.254191983551198
 20
-6.034074173707836
 11
9.495372938450897
 21
-6.133974596213659
 72
1
 10
9.495372938450897
 20
-6.133974596213659
 11
9.702479719637063
 21
-6.292893218812355
 72
1
 10
9.702479719637063
 20
-6.292893218812355
 11
9.86139834223576
 21
-6.499999999998522
 72
1
 10
9.86139834223576
 20
-6.499999999998522
 11
9.961298764741583
 21
-6.741180954896054
 72
1
 10
9.961298764741583
 20
-6.741180954896054
 11
9.995372938450783
 21
-6.999999999998408
 72
1
 10
9.995372938450783
 20
-6.999999999998408
 11
9.961298764741583
 21
-14.25881904510134
 72
1
 10
9.961298764741583
 20
-14.25881904510134
 11
9.86139834223576
 21
-14.4999999999967
 72
1
 10
9.86139834223576
 20
-14.4999999999967
 11
9.702479719637063
 21
-14.70710678118503
 72
1
 10
9.702479719637063
 20
-14.70710678118503
 11
9.495372938450897
 21
-14.86602540378373
 72
1
 10
9.495372938450897
 20
-14.86602540378373
 11
9.254191983551198
 21
-14.96592582628739
 72
1
 10
9.254191983551198
 20
-14.96592582628739
 11
8.99537293845101
 21
-14.99999999999875
 72
1
 10
8.99537293845101
 20
-14.99999999999875
 11
-9.000000000019613
 21
-14.99999999999875
 97
0
 92
1
 93
25
 72
1
 10
13.99537293844987
 20
-14.99999999999875
 11
13.73655389334968
 21
-14.96592582628739
 72
1
 10
13.73655389334968
 20
-14.96592582628739
 11
13.49537293844998
 21
-14.86602540378373
 72
1
 10
13.49537293844998
 20
-14.86602540378373
 11
13.28826615726382
 21
-14.70710678118503
 72
1
 10
13.28826615726382
 20
-14.70710678118503
 11
13.12934753466512
 21
-14.4999999999967
 72
1
 10
13.12934753466512
 20
-14.4999999999967
 11
13.0294471121593
 21
-14.25881904510134
 72
1
 10
13.0294471121593
 20
-14.25881904510134
 11
12.9953729384501
 21
-13.99999999999898
 72
1
 10
12.9953729384501
 20
-13.99999999999898
 11
13.0294471121593
 21
-6.741180954896054
 72
1
 10
13.0294471121593
 20
-6.741180954896054
 11
13.12934753466512
 21
-6.499999999998522
 72
1
 10
13.12934753466512
 20
-6.499999999998522
 11
13.28826615726382
 21
-6.292893218812355
 72
1
 10
13.28826615726382
 20
-6.292893218812355
 11
13.49537293844998
 21
-6.133974596213659
 72
1
 10
13.49537293844998
 20
-6.133974596213659
 11
13.73655389334968
 21
-6.034074173707836
 72
1
 10
13.73655389334968
 20
-6.034074173707836
 11
13.99537293844987
 21
-5.999999999998635
 72
1
 10
13.99537293844987
 20
-5.999999999998635
 11
45.75419198355156
 21
-6.034074173707836
 72
1
 10
45.75419198355156
 20
-6.034074173707836
 11
45.99537293845126
 21
-6.133974596213659
 72
1
 10
45.99537293845126
 20
-6.133974596213659
 11
46.20247971963743
 21
-6.292893218812355
 72
1
 10
46.20247971963743
 20
-6.292893218812355
 11
46.36139834223179
 21
-6.499999999998522
 72
1
 10
46.36139834223179
 20
-6.499999999998522
 11
46.46129876474194
 21
-6.741180954896054
 72
1
 10
46.46129876474194
 20
-6.741180954896054
 11
46.49537293844681
 21
-6.999999999998408
 72
1
 10
46.49537293844681
 20
-6.999999999998408
 11
46.46129876474194
 21
-14.25881904510134
 72
1
 10
46.46129876474194
 20
-14.25881904510134
 11
46.36139834223179
 21
-14.4999999999967
 72
1
 10
46.36139834223179
 20
-14.4999999999967
 11
46.20247971963743
 21
-14.70710678118503
 72
1
 10
46.20247971963743
 20
-14.70710678118503
 11
45.99537293845126
 21
-14.86602540378373
 72
1
 10
45.99537293845126
 20
-14.86602540378373
 11
45.75419198355156
 21
-14.96592582628739
 72
1
 10
45.75419198355156
 20
-14.96592582628739
 11
45.49537293845137
 21
-14.99999999999875
 72
1
 10
45.49537293845137
 20
-14.99999999999875
 11
13.99537293844987
 21
-14.99999999999875
 97
0
 75
0
 76
2
 52
0.0
 41
1.0
 77
0
 78
1
 53
45.0
 43
10769.752
 44
-1406.077
 45
-1.767766952966368
 46
1.767766952966368
 79
0
 98
1
 10
0.0
 20
0.0
  0
LINE
  5
34
330
2F
100
AcDbEntity
  8
A-DETL-GENF
370
25
100
AcDbLine
 10
-99.98277406975824
 20
-20.99999999999999
 30
0.0
 11
-0.9242640687118971
 21
-20.99999999999999
 31
0.0
  0
LINE
  5
35
330
2F
100
AcDbEntity
  8
A-DETL-GENF
370
25
100
AcDbLine
 10
-0.9242640687118971
 20
-20.99999999999998
 30
0.0
 11
8.46e-14
 21
-20.07573593128802
 31
0.0
  0
LINE
  5
36
330
2F
100
AcDbEntity
  8
A-DETL-GENF
370
25
100
AcDbLine
 10
8.46e-14
 20
-20.07573593128802
 30
0.0
 11
0.9242640687120495
 21
-20.99999999999999
 31
0.0
  0
LINE
  5
37
330
2F
100
AcDbEntity
  8
A-DETL-GENF
370
25
100
AcDbLine
 10
0.9242640687120495
 20
-20.99999999999999
 30
0.0
 11
48.00000000000086
 21
-20.99999999999999
 31
0.0
  0
LINE
  5
38
330
2F
100
AcDbEntity
  8
A-DETL-GENF
370
25
100
AcDbLine
 10
48.0000000000012
 20
2.33e-14
 30
0.0
 11
0.9242640687120324
 21
2.33e-14
 31
0.0
  0
LINE
  5
39
330
2F
100
AcDbEntity
  8
A-DETL-GENF
370
25
100
AcDbLine
 10
0.9242640687120324
 20
2.34e-14
 30
0.0
 11
1.523e-13
 21
-0.924264068711844
 31
0.0
  0
LINE
  5
3A
330
2F
100
AcDbEntity
  8
A-DETL-GENF
370
25
100
AcDbLine
 10
1.523e-13
 20
-0.9242640687118437
 30
0.0
 11
-0.9242640687117111
 21
1.81e-14
 31
0.0
  0
LINE
  5
3B
330
2F
100
AcDbEntity
  8
A-DETL-GENF
370
25
100
AcDbLine
 10
-0.924264068711728
 20
2.33e-14
 30
0.0
 11
-80.99999999999989
 21
2.33e-14
 31
0.0
  0
ARC
  5
3C
330
2F
100
AcDbEntity
  8
A-DETL-GENF
370
25
100
AcDbCircle
 10
-80.99999999999989
 20
-0.9999999999999905
 30
0.0
 40
0.9999999999999792
100
AcDbArc
 50
89.99999999999996
 51
179.9999999999994
  0
LINE
  5
3D
330
2F
100
AcDbEntity
  8
A-DETL-GENF
370
25
100
AcDbLine
 10
-81.99999999999979
 20
-0.9999999999999861
 30
0.0
 11
-81.99999999999979
 21
-4.99999999999999
 31
0.0
  0
ARC
  5
3E
330
2F
100
AcDbEntity
  8
A-DETL-GENF
370
25
100
AcDbCircle
 10
-82.99999999999991
 20
-4.999999999999986
 30
0.0
 40
0.9999999999999797
100
AcDbArc
 50
269.9999999999997
 51
7.63e-14
  0
LINE
  5
3F
330
2F
100
AcDbEntity
  8
A-DETL-GENF
370
25
100
AcDbLine
 10
-82.99999999999991
 20
-5.999999999999983
 30
0.0
 11
-92.99999999999989
 21
-5.999999999999983
 31
0.0
  0
ARC
  5
40
330
2F
100
AcDbEntity
  8
A-DETL-GENF
370
25
100
AcDbCircle
 10
-92.99999999999989
 20
-4.999999999999994
 30
0.0
 40
0.9999999999999729
100
AcDbArc
 50
180.0000000000004
 51
269.9999999999997
  0
LINE
  5
41
330
2F
100
AcDbEntity
  8
A-DETL-GENF
370
25
100
AcDbLine
 10
-93.99999999999979
 20
-4.999999999999997
 30
0.0
 11
-93.99999999999979
 21
-0.9999999999999861
 31
0.0
  0
ARC
  5
42
330
2F
100
AcDbEntity
  8
A-DETL-GENF
370
25
100
AcDbCircle
 10
-94.99999999999989
 20
-0.9999999999999915
 30
0.0
 40
0.9999999999999715
100
AcDbArc
 50
359.9999999999996
 51
89.99999999999991
  0
LINE
  5
43
330
2F
100
AcDbEntity
  8
A-DETL-GENF
370
25
100
AcDbLine
 10
-94.99999999999989
 20
2.33e-14
 30
0.0
 11
-99.98277406975855
 21
2.33e-14
 31
0.0
  0
ARC
  5
44
330
2F
100
AcDbEntity
  8
A-DETL-GENF
370
25
100
AcDbCircle
 10
-94.99999999999989
 20
-13.99999999999997
 30
0.0
 40
0.9999999999999868
100
AcDbArc
 50
180.0000000000003
 51
269.9999999999998
  0
LINE
  5
45
330
2F
100
AcDbEntity
  8
A-DETL-GENF
370
25
100
AcDbLine
 10
-95.9999999999998
 20
-13.99999999999997
 30
0.0
 11
-95.9999999999998
 21
-12.99999999999998
 31
0.0
  0
ARC
  5
46
330
2F
100
AcDbEntity
  8
A-DETL-GENF
370
25
100
AcDbCircle
 10
-94.99999999999989
 20
-12.99999999999999
 30
0.0
 40
0.9999999999999843
100
AcDbArc
 50
89.99999999999974
 51
179.9999999999997
  0
LINE
  5
47
330
2F
100
AcDbEntity
  8
A-DETL-GENF
370
25
100
AcDbLine
 10
-94.99999999999989
 20
-11.99999999999999
 30
0.0
 11
-78.21825191149601
 21
-11.99999999999999
 31
0.0
  0
ARC
  5
48
330
2F
100
AcDbEntity
  8
A-DETL-GENF
370
25
100
AcDbCircle
 10
-78.21825191149601
 20
-10.99999999999997
 30
0.0
 40
0.9999999999999715
100
AcDbArc
 50
269.9999999999996
 51
359.9999999999992
  0
LINE
  5
49
330
2F
100
AcDbEntity
  8
A-DETL-GENF
370
25
100
AcDbLine
 10
-77.21825191149604
 20
-10.99999999999998
 30
0.0
 11
-77.21825191149604
 21
-6.999999999999976
 31
0.0
  0
ARC
  5
4A
330
2F
100
AcDbEntity
  8
A-DETL-GENF
370
25
100
AcDbCircle
 10
-76.21825191149598
 20
-6.999999999999987
 30
0.0
 40
0.9999999999999957
100
AcDbArc
 50
90.0000000000013
 51
179.9999999999988
  0
LINE
  5
4B
330
2F
100
AcDbEntity
  8
A-DETL-GENF
370
25
100
AcDbLine
 10
-76.218251911496
 20
-5.999999999999983
 30
0.0
 11
-74.74999999999989
 21
-5.999999999999983
 31
0.0
  0
ARC
  5
4C
330
2F
100
AcDbEntity
  8
A-DETL-GENF
370
25
100
AcDbCircle
 10
-74.74999999999989
 20
-6.999999999999976
 30
0.0
 40
0.999999999999977
100
AcDbArc
 50
0.0
 51
90.00000000000006
  0
LINE
  5
4D
330
2F
100
AcDbEntity
  8
A-DETL-GENF
370
25
100
AcDbLine
 10
-73.74999999999979
 20
-6.999999999999976
 30
0.0
 11
-73.74999999999979
 21
-13.99999999999997
 31
0.0
  0
ARC
  5
4E
330
2F
100
AcDbEntity
  8
A-DETL-GENF
370
25
100
AcDbCircle
 10
-74.74999999999989
 20
-13.99999999999997
 30
0.0
 40
0.9999999999999715
100
AcDbArc
 50
269.9999999999997
 51
0.0
  0
LINE
  5
4F
330
2F
100
AcDbEntity
  8
A-DETL-GENF
370
25
100
AcDbLine
 10
-74.74999999999989
 20
-14.99999999999998
 30
0.0
 11
-94.99999999999989
 21
-14.99999999999998
 31
0.0
  0
ARC
  5
50
330
2F
100
AcDbEntity
  8
A-DETL-GENF
370
25
100
AcDbCircle
 10
-70.74999999999993
 20
-13.99999999999997
 30
0.0
 40
1.000000000000043
100
AcDbArc
 50
179.9999999999998
 51
269.9999999999997
  0
LINE
  5
51
330
2F
100
AcDbEntity
  8
A-DETL-GENF
370
25
100
AcDbLine
 10
-71.74999999999974
 20
-13.99999999999997
 30
0.0
 11
-71.74999999999974
 21
-6.999999999999976
 31
0.0
  0
ARC
  5
52
330
2F
100
AcDbEntity
  8
A-DETL-GENF
370
25
100
AcDbCircle
 10
-70.74999999999993
 20
-6.999999999999978
 30
0.0
 40
1.000000000000042
100
AcDbArc
 50
89.99999999999991
 51
179.9999999999999
  0
LINE
  5
53
330
2F
100
AcDbEntity
  8
A-DETL-GENF
370
25
100
AcDbLine
 10
-70.74999999999993
 20
-5.999999999999983
 30
0.0
 11
-50.49999999999965
 21
-5.999999999999983
 31
0.0
  0
ARC
  5
54
330
2F
100
AcDbEntity
  8
A-DETL-GENF
370
25
100
AcDbCircle
 10
-50.49999999999965
 20
-6.999999999999976
 30
0.0
 40
0.9999999999999777
100
AcDbArc
 50
0.0
 51
90.00000000000006
  0
LINE
  5
55
330
2F
100
AcDbEntity
  8
A-DETL-GENF
370
25
100
AcDbLine
 10
-49.49999999999968
 20
-6.999999999999976
 30
0.0
 11
-49.49999999999968
 21
-13.99999999999997
 31
0.0
  0
ARC
  5
56
330
2F
100
AcDbEntity
  8
A-DETL-GENF
370
25
100
AcDbCircle
 10
-50.49999999999965
 20
-13.99999999999997
 30
0.0
 40
0.9999999999999715
100
AcDbArc
 50
269.9999999999997
 51
0.0
  0
LINE
  5
57
330
2F
100
AcDbEntity
  8
A-DETL-GENF
370
25
100
AcDbLine
 10
-50.49999999999965
 20
-14.99999999999998
 30
0.0
 11
-70.74999999999993
 21
-14.99999999999998
 31
0.0
  0
ARC
  5
58
330
2F
100
AcDbEntity
  8
A-DETL-GENF
370
25
100
AcDbCircle
 10
-45.49999999999967
 20
-13.99999999999997
 30
0.0
 40
1.00000000000001
100
AcDbArc
 50
180.0
 51
269.9999999999997
  0
LINE
  5
59
330
2F
100
AcDbEntity
  8
A-DETL-GENF
370
25
100
AcDbLine
 10
-46.49999999999968
 20
-13.99999999999997
 30
0.0
 11
-46.49999999999968
 21
-6.999999999999976
 31
0.0
  0
ARC
  5
5A
330
2F
100
AcDbEntity
  8
A-DETL-GENF
370
25
100
AcDbCircle
 10
-45.49999999999967
 20
-6.999999999999976
 30
0.0
 40
1.000000000000007
100
AcDbArc
 50
90.0000000000004
 51
180.0
  0
LINE
  5
5B
330
2F
100
AcDbEntity
  8
A-DETL-GENF
370
25
100
AcDbLine
 10
-45.49999999999967
 20
-5.999999999999983
 30
0.0
 11
-13.99999999999989
 21
-5.999999999999983
 31
0.0
  0
ARC
  5
5C
330
2F
100
AcDbEntity
  8
A-DETL-GENF
370
25
100
AcDbCircle
 10
-13.99999999999989
 20
-6.999999999999975
 30
0.0
 40
1.000000000000008
100
AcDbArc
 50
359.9999999999996
 51
90.00000000000007
  0
LINE
  5
5D
330
2F
100
AcDbEntity
  8
A-DETL-GENF
370
25
100
AcDbLine
 10
-12.99999999999978
 20
-6.999999999999976
 30
0.0
 11
-12.99999999999978
 21
-13.99999999999997
 31
0.0
  0
ARC
  5
5E
330
2F
100
AcDbEntity
  8
A-DETL-GENF
370
25
100
AcDbCircle
 10
-13.99999999999989
 20
-13.99999999999997
 30
0.0
 40
1.000000000000005
100
AcDbArc
 50
269.9999999999995
 51
2.036e-13
  0
LINE
  5
5F
330
2F
100
AcDbEntity
  8
A-DETL-GENF
370
25
100
AcDbLine
 10
-13.99999999999989
 20
-14.99999999999998
 30
0.0
 11
-45.49999999999967
 21
-14.99999999999998
 31
0.0
  0
ARC
  5
60
330
2F
100
AcDbEntity
  8
A-DETL-GENF
370
25
100
AcDbCircle
 10
8.995372938467794
 20
-6.999999999999975
 30
0.0
 40
1.000000000000009
100
AcDbArc
 50
359.9999999999995
 51
90.00000000000007
  0
LINE
  5
61
330
2F
100
AcDbEntity
  8
A-DETL-GENF
370
25
100
AcDbLine
 10
9.995372938467805
 20
-6.999999999999976
 30
0.0
 11
9.995372938467805
 21
-13.99999999999997
 31
0.0
  0
ARC
  5
62
330
2F
100
AcDbEntity
  8
A-DETL-GENF
370
25
100
AcDbCircle
 10
8.995372938467794
 20
-13.99999999999997
 30
0.0
 40
1.000000000000003
100
AcDbArc
 50
269.9999999999995
 51
1.972e-13
  0
LINE
  5
63
330
2F
100
AcDbEntity
  8
A-DETL-GENF
370
25
100
AcDbLine
 10
8.995372938467794
 20
-14.99999999999998
 30
0.0
 11
-8.999999999999782
 21
-14.99999999999998
 31
0.0
  0
ARC
  5
64
330
2F
100
AcDbEntity
  8
A-DETL-GENF
370
25
100
AcDbCircle
 10
-8.999999999999782
 20
-13.99999999999997
 30
0.0
 40
1.000000000000007
100
AcDbArc
 50
179.9999999999998
 51
269.9999999999997
  0
LINE
  5
65
330
2F
100
AcDbEntity
  8
A-DETL-GENF
370
25
100
AcDbLine
 10
-9.999999999999892
 20
-13.99999999999997
 30
0.0
 11
-9.999999999999892
 21
-6.999999999999976
 31
0.0
  0
ARC
  5
66
330
2F
100
AcDbEntity
  8
A-DETL-GENF
370
25
100
AcDbCircle
 10
-8.999999999999782
 20
-6.99999999999998
 30
0.0
 40
1.000000000000012
100
AcDbArc
 50
89.99999999999991
 51
179.9999999999998
  0
LINE
  5
67
330
2F
100
AcDbEntity
  8
A-DETL-GENF
370
25
100
AcDbLine
 10
-8.999999999999782
 20
-5.999999999999983
 30
0.0
 11
8.995372938467794
 21
-5.999999999999983
 31
0.0
  0
LINE
  5
68
330
2F
100
AcDbEntity
  8
A-DETL-GENF
370
25
100
AcDbLine
 10
13.99537293846781
 20
-5.999999999999983
 30
0.0
 11
45.49537293846769
 21
-5.999999999999983
 31
0.0
  0
ARC
  5
69
330
2F
100
AcDbEntity
  8
A-DETL-GENF
370
25
100
AcDbCircle
 10
45.49537293846769
 20
-6.999999999999972
 30
0.0
 40
1.000000000000005
100
AcDbArc
 50
1.018e-13
 51
90.00000000000006
  0
LINE
  5
6A
330
2F
100
AcDbEntity
  8
A-DETL-GENF
370
25
100
AcDbLine
 10
46.49537293846769
 20
-6.999999999999976
 30
0.0
 11
46.49537293846769
 21
-13.99999999999997
 31
0.0
  0
ARC
  5
6B
330
2F
100
AcDbEntity
  8
A-DETL-GENF
370
25
100
AcDbCircle
 10
45.49537293846769
 20
-13.99999999999997
 30
0.0
 40
1.000000000000007
100
AcDbArc
 50
269.9999999999997
 51
4.071e-13
  0
LINE
  5
6C
330
2F
100
AcDbEntity
  8
A-DETL-GENF
370
25
100
AcDbLine
 10
45.49537293846769
 20
-14.99999999999998
 30
0.0
 11
13.99537293846781
 21
-14.99999999999998
 31
0.0
  0
ARC
  5
6D
330
2F
100
AcDbEntity
  8
A-DETL-GENF
370
25
100
AcDbCircle
 10
13.99537293846781
 20
-13.99999999999997
 30
0.0
 40
1.000000000000009
100
AcDbArc
 50
180.0000000000007
 51
269.9999999999997
  0
LINE
  5
6E
330
2F
100
AcDbEntity
  8
A-DETL-GENF
370
25
100
AcDbLine
 10
12.9953729384678
 20
-13.99999999999998
 30
0.0
 11
12.9953729384678
 21
-6.999999999999976
 31
0.0
  0
ARC
  5
6F
330
2F
100
AcDbEntity
  8
A-DETL-GENF
370
25
100
AcDbCircle
 10
13.99537293846781
 20
-6.99999999999998
 30
0.0
 40
1.00000000000001
100
AcDbArc
 50
89.99999999999994
 51
180.0000000000001
  0
ARC
  5
70
330
2F
100
AcDbEntity
  8
A-DETL-GENF
100
AcDbCircle
 10
-101.0000000000001
 20
-19.99999999999982
 30
0.0
 40
1.000000000000014
100
AcDbArc
 50
180.0000000000001
 51
269.9999999999998
  0
LINE
  5
71
330
2F
100
AcDbEntity
  8
A-DETL-GENF
100
AcDbLine
 10
-101.0000000000001
 20
-20.99999999999981
 30
0.0
 11
-99.98277406975708
 21
-20.99999999999982
 31
0.0
  0
LINE
  5
72
330
2F
100
AcDbEntity
  8
A-DETL-GENF
100
AcDbLine
 10
-99.98277406975708
 20
-20.99999999999982
 30
0.0
 11
-99.98277406975708
 21
-20.1999999999999
 31
0.0
  0
LINE
  5
73
330
2F
100
AcDbEntity
  8
A-DETL-GENF
100
AcDbLine
 10
-99.98277406975708
 20
-20.1999999999999
 30
0.0
 11
-101.2
 21
-20.1999999999999
 31
0.0
  0
LINE
  5
74
330
2F
100
AcDbEntity
  8
A-DETL-GENF
100
AcDbLine
 10
-101.2
 20
-20.19999999999989
 30
0.0
 11
-101.2
 21
-0.7999999999998816
 31
0.0
  0
LINE
  5
75
330
2F
100
AcDbEntity
  8
A-DETL-GENF
100
AcDbLine
 10
-101.2
 20
-0.7999999999998858
 30
0.0
 11
-99.98277406975704
 21
-0.7999999999998858
 31
0.0
  0
LINE
  5
76
330
2F
100
AcDbEntity
  8
A-DETL-GENF
100
AcDbLine
 10
-99.98277406975704
 20
-0.7999999999998858
 30
0.0
 11
-99.98277406975704
 21
3.81e-14
 31
0.0
  0
LINE
  5
77
330
2F
100
AcDbEntity
  8
A-DETL-GENF
100
AcDbLine
 10
-99.98277406975704
 20
3.81e-14
 30
0.0
 11
-101.0
 21
3.38e-14
 31
0.0
  0
ARC
  5
78
330
2F
100
AcDbEntity
  8
A-DETL-GENF
100
AcDbCircle
 10
-101.0
 20
-0.9999999999999609
 30
0.0
 40
0.9999999999999856
100
AcDbArc
 50
89.99999999999994
 51
179.9999999999995
  0
LINE
  5
79
330
2F
100
AcDbEntity
  8
A-DETL-GENF
100
AcDbLine
 10
-102.0
 20
-0.9999999999999523
 30
0.0
 11
-102.0
 21
-19.99999999999982
 31
0.0
  0
ENDBLK
  5
31
330
2F
100
AcDbEntity
  8
0
100
AcDbBlockEnd
  0
ENDSEC
  0
SECTION
  2
ENTITIES
  0
INSERT
  5
7B
330
17
100
AcDbEntity
  8
0
100
AcDbBlockReference
  2
31 recystel stelkozijn - R2005-1524511-00_0 Basismaterialen
 10
0.0
 20
0.0
 30
0.0
  0
ENDSEC
  0
SECTION
  2
OBJECTS
  0
DICTIONARY
  5
A
330
0
100
AcDbDictionary
281
1
  3
ACAD_COLOR
350
B
  3
ACAD_GROUP
350
C
  3
ACAD_LAYOUT
350
D
  3
ACAD_MATERIAL
350
E
  3
ACAD_MLEADERSTYLE
350
F
  3
ACAD_MLINESTYLE
350
10
  3
ACAD_PLOTSETTINGS
350
11
  3
ACAD_PLOTSTYLENAME
350
12
  3
ACAD_SCALELIST
350
14
  3
ACAD_TABLESTYLE
350
15
  3
ACAD_VISUALSTYLE
350
16
  3
EZDXF_META
350
2D
  0
DICTIONARY
  5
B
330
A
100
AcDbDictionary
281
1
  0
DICTIONARY
  5
C
330
A
100
AcDbDictionary
281
1
  0
DICTIONARY
  5
D
330
A
100
AcDbDictionary
281
1
  3
Model
350
1A
  3
Layout1
350
1E
  0
DICTIONARY
  5
E
330
A
100
AcDbDictionary
281
1
  3
ByBlock
350
1F
  3
ByLayer
350
20
  3
Global
350
21
  0
DICTIONARY
  5
F
330
A
100
AcDbDictionary
281
1
  3
Standard
350
2C
  0
DICTIONARY
  5
10
330
A
100
AcDbDictionary
281
1
  3
Standard
350
22
  0
DICTIONARY
  5
11
330
A
100
AcDbDictionary
281
1
  0
ACDBDICTIONARYWDFLT
  5
12
330
A
100
AcDbDictionary
281
1
  3
Normal
350
13
100
AcDbDictionaryWithDefault
340
13
  0
ACDBPLACEHOLDER
  5
13
330
12
  0
DICTIONARY
  5
14
330
A
100
AcDbDictionary
281
1
  0
DICTIONARY
  5
15
330
A
100
AcDbDictionary
281
1
  0
DICTIONARY
  5
16
330
A
100
AcDbDictionary
281
1
  0
LAYOUT
  5
1A
330
D
100
AcDbPlotSettings
  1

  4
A3
  6

 40
7.5
 41
20.0
 42
7.5
 43
20.0
 44
420.0
 45
297.0
 46
0.0
 47
0.0
 48
0.0
 49
0.0
140
0.0
141
0.0
142
1.0
143
1.0
 70
1024
 72
1
 73
0
 74
5
  7

 75
16
 76
0
 77
2
 78
300
147
1.0
148
0.0
149
0.0
100
AcDbLayout
  1
Model
 70
1
 71
0
 10
0.0
 20
0.0
 11
420.0
 21
297.0
 12
0.0
 22
0.0
 32
0.0
 14
1e+20
 24
1e+20
 34
1e+20
 15
-1e+20
 25
-1e+20
 35
-1e+20
146
0.0
 13
0.0
 23
0.0
 33
0.0
 16
1.0
 26
0.0
 36
0.0
 17
0.0
 27
1.0
 37
0.0
 76
1
330
17
  0
LAYOUT
  5
1E
330
D
100
AcDbPlotSettings
  1

  4
A3
  6

 40
7.5
 41
20.0
 42
7.5
 43
20.0
 44
420.0
 45
297.0
 46
0.0
 47
0.0
 48
0.0
 49
0.0
140
0.0
141
0.0
142
1.0
143
1.0
 70
0
 72
1
 73
0
 74
5
  7

 75
16
 76
0
 77
2
 78
300
147
1.0
148
0.0
149
0.0
100
AcDbLayout
  1
Layout1
 70
1
 71
1
 10
0.0
 20
0.0
 11
420.0
 21
297.0
 12
0.0
 22
0.0
 32
0.0
 14
1e+20
 24
1e+20
 34
1e+20
 15
-1e+20
 25
-1e+20
 35
-1e+20
146
0.0
 13
0.0
 23
0.0
 33
0.0
 16
1.0
 26
0.0
 36
0.0
 17
0.0
 27
1.0
 37
0.0
 76
1
330
1B
  0
MATERIAL
  5
1F
102
{ACAD_REACTORS
330
E
102
}
330
E
100
AcDbMaterial
  1
ByBlock
  2

 70
0
 40
1.0
 71
1
 41
1.0
 91
-1023410177
 42
1.0
 72
1
  3

 73
1
 74
1
 75
1
 44
0.5
 73
0
 45
1.0
 46
1.0
 77
1
  4

 78
1
 79
1
170
1
 48
1.0
171
1
  6

172
1
173
1
174
1
140
1.0
141
1.0
175
1
  7

176
1
177
1
178
1
143
1.0
179
1
  8

270
1
271
1
272
1
145
1.0
146
1.0
273
1
  9

274
1
275
1
276
1
 42
1.0
 72
1
  3

 73
1
 74
1
 75
1
 94
63
  0
MATERIAL
  5
20
102
{ACAD_REACTORS
330
E
102
}
330
E
100
AcDbMaterial
  1
ByLayer
  2

 70
0
 40
1.0
 71
1
 41
1.0
 91
-1023410177
 42
1.0
 72
1
  3

 73
1
 74
1
 75
1
 44
0.5
 73
0
 45
1.0
 46
1.0
 77
1
  4

 78
1
 79
1
170
1
 48
1.0
171
1
  6

172
1
173
1
174
1
140
1.0
141
1.0
175
1
  7

176
1
177
1
178
1
143
1.0
179
1
  8

270
1
271
1
272
1
145
1.0
146
1.0
273
1
  9

274
1
275
1
276
1
 42
1.0
 72
1
  3

 73
1
 74
1
 75
1
 94
63
  0
MATERIAL
  5
21
102
{ACAD_REACTORS
330
E
102
}
330
E
100
AcDbMaterial
  1
Global
  2

 70
0
 40
1.0
 71
1
 41
1.0
 91
-1023410177
 42
1.0
 72
1
  3

 73
1
 74
1
 75
1
 44
0.5
 73
0
 45
1.0
 46
1.0
 77
1
  4

 78
1
 79
1
170
1
 48
1.0
171
1
  6

172
1
173
1
174
1
140
1.0
141
1.0
175
1
  7

176
1
177
1
178
1
143
1.0
179
1
  8

270
1
271
1
272
1
145
1.0
146
1.0
273
1
  9

274
1
275
1
276
1
 42
1.0
 72
1
  3

 73
1
 74
1
 75
1
 94
63
  0
MLINESTYLE
  5
22
102
{ACAD_REACTORS
330
10
102
}
330
10
100
AcDbMlineStyle
  2
Standard
 70
0
  3

 62
256
 51
90.0
 52
90.0
 71
2
 49
0.5
 62
256
  6
BYLAYER
 49
-0.5
 62
256
  6
BYLAYER
  0
MLEADERSTYLE
  5
2C
102
{ACAD_REACTORS
330
F
102
}
330
F
100
AcDbMLeaderStyle
179
2
170
2
171
1
172
0
 90
2
 40
0.0
 41
0.0
173
1
 91
-1056964608
 92
-2
290
1
 42
2.0
291
1
 43
8.0
  3
Standard
 44
4.0
300

342
29
174
1
175
1
176
0
178
1
 93
-1056964608
 45
4.0
292
0
297
0
 46
4.0
 94
-1056964608
 47
1.0
 49
1.0
140
1.0
294
1
141
0.0
177
0
142
1.0
295
0
296
0
143
3.75
271
0
272
9
273
9
  0
DICTIONARY
  5
2D
330
A
100
AcDbDictionary
280
1
281
1
  3
CREATED_BY_EZDXF
350
2E
  3
WRITTEN_BY_EZDXF
350
7F
  0
DICTIONARYVAR
  5
2E
330
2D
100
DictionaryVariables
280
0
  1
1.4.3 @ 2026-02-13T04:54:11.911576+00:00
  0
DICTIONARYVAR
  5
7F
330
2D
100
DictionaryVariables
280
0
  1
1.4.3 @ 2026-02-13T04:54:11.917084+00:00
  0
ENDSEC
  0
EOF
