  0
SECTION
  2
HEADER
  9
$ACADVER
  1
AC1032
  9
$ACADMAINTVER
 90
4
  9
$DWGCODEPAGE
  3
ANSI_1252
  9
$LASTSAVEDBY
  1
ezdxf
  9
$REQUIREDVERSIONS
160
0
  9
$INSBASE
 10
0.0
 20
0.0
 30
0.0
  9
$EXTMIN
 10
1e+20
 20
1e+20
 30
1e+20
  9
$EXTMAX
 10
-1e+20
 20
-1e+20
 30
-1e+20
  9
$LIMMIN
 10
0.0
 20
0.0
  9
$LIMMAX
 10
420.0
 20
297.0
  9
$ORTHOMODE
 70
0
  9
$REGENMODE
 70
1
  9
$FILLMODE
 70
1
  9
$QTEXTMODE
 70
0
  9
$MIRRTEXT
 70
1
  9
$LTSCALE
 40
1.0
  9
$ATTMODE
 70
1
  9
$TEXTSIZE
 40
2.5
  9
$TRACEWID
 40
1.0
  9
$TEXTSTYLE
  7
Standard
  9
$CLAYER
  8
0
  9
$CELTYPE
  6
ByLayer
  9
$CECOLOR
 62
256
  9
$CELTSCALE
 40
1.0
  9
$DISPSILH
 70
0
  9
$DIMSCALE
 40
1.0
  9
$DIMASZ
 40
2.5
  9
$DIMEXO
 40
0.625
  9
$DIMDLI
 40
3.75
  9
$DIMRND
 40
0.0
  9
$DIMDLE
 40
0.0
  9
$DIMEXE
 40
1.25
  9
$DIMTP
 40
0.0
  9
$DIMTM
 40
0.0
  9
$DIMTXT
 40
2.5
  9
$DIMCEN
 40
2.5
  9
$DIMTSZ
 40
0.0
  9
$DIMTOL
 70
0
  9
$DIMLIM
 70
0
  9
$DIMTIH
 70
0
  9
$DIMTOH
 70
0
  9
$DIMSE1
 70
0
  9
$DIMSE2
 70
0
  9
$DIMTAD
 70
1
  9
$DIMZIN
 70
8
  9
$DIMBLK
  1

  9
$DIMASO
 70
1
  9
$DIMSHO
 70
1
  9
$DIMPOST
  1

  9
$DIMAPOST
  1

  9
$DIMALT
 70
0
  9
$DIMALTD
 70
3
  9
$DIMALTF
 40
0.03937007874
  9
$DIMLFAC
 40
1.0
  9
$DIMTOFL
 70
1
  9
$DIMTVP
 40
0.0
  9
$DIMTIX
 70
0
  9
$DIMSOXD
 70
0
  9
$DIMSAH
 70
0
  9
$DIMBLK1
  1

  9
$DIMBLK2
  1

  9
$DIMSTYLE
  2
ISO-25
  9
$DIMCLRD
 70
0
  9
$DIMCLRE
 70
0
  9
$DIMCLRT
 70
0
  9
$DIMTFAC
 40
1.0
  9
$DIMGAP
 40
0.625
  9
$DIMJUST
 70
0
  9
$DIMSD1
 70
0
  9
$DIMSD2
 70
0
  9
$DIMTOLJ
 70
0
  9
$DIMTZIN
 70
8
  9
$DIMALTZ
 70
0
  9
$DIMALTTZ
 70
0
  9
$DIMUPT
 70
0
  9
$DIMDEC
 70
2
  9
$DIMTDEC
 70
2
  9
$DIMALTU
 70
2
  9
$DIMALTTD
 70
3
  9
$DIMTXSTY
  7
Standard
  9
$DIMAUNIT
 70
0
  9
$DIMADEC
 70
0
  9
$DIMALTRND
 40
0.0
  9
$DIMAZIN
 70
0
  9
$DIMDSEP
 70
44
  9
$DIMATFIT
 70
3
  9
$DIMFRAC
 70
0
  9
$DIMLDRBLK
  1

  9
$DIMLUNIT
 70
2
  9
$DIMLWD
 70
-2
  9
$DIMLWE
 70
-2
  9
$DIMTMOVE
 70
0
  9
$DIMFXL
 40
1.0
  9
$DIMFXLON
 70
0
  9
$DIMJOGANG
 40
0.785398163397
  9
$DIMTFILL
 70
0
  9
$DIMTFILLCLR
 70
0
  9
$DIMARCSYM
 70
0
  9
$DIMLTYPE
  6

  9
$DIMLTEX1
  6

  9
$DIMLTEX2
  6

  9
$DIMTXTDIRECTION
 70
0
  9
$LUNITS
 70
2
  9
$LUPREC
 70
4
  9
$SKETCHINC
 40
1.0
  9
$FILLETRAD
 40
10.0
  9
$AUNITS
 70
0
  9
$AUPREC
 70
2
  9
$MENU
  1
.
  9
$ELEVATION
 40
0.0
  9
$PELEVATION
 40
0.0
  9
$THICKNESS
 40
0.0
  9
$LIMCHECK
 70
0
  9
$CHAMFERA
 40
0.0
  9
$CHAMFERB
 40
0.0
  9
$CHAMFERC
 40
0.0
  9
$CHAMFERD
 40
0.0
  9
$SKPOLY
 70
0
  9
$TDCREATE
 40
2461085.2459143517
  9
$TDUCREATE
 40
2458532.153996898
  9
$TDUPDATE
 40
2461085.2459143517
  9
$TDUUPDATE
 40
2458532.1544311
  9
$TDINDWG
 40
0.0
  9
$TDUSRTIMER
 40
0.0
  9
$USRTIMER
 70
1
  9
$ANGBASE
 50
0.0
  9
$ANGDIR
 70
0
  9
$PDMODE
 70
0
  9
$PDSIZE
 40
0.0
  9
$PLINEWID
 40
0.0
  9
$SPLFRAME
 70
0
  9
$SPLINETYPE
 70
6
  9
$SPLINESEGS
 70
8
  9
$HANDSEED
  5
91
  9
$SURFTAB1
 70
6
  9
$SURFTAB2
 70
6
  9
$SURFTYPE
 70
6
  9
$SURFU
 70
6
  9
$SURFV
 70
6
  9
$UCSBASE
  2

  9
$UCSNAME
  2

  9
$UCSORG
 10
0.0
 20
0.0
 30
0.0
  9
$UCSXDIR
 10
1.0
 20
0.0
 30
0.0
  9
$UCSYDIR
 10
0.0
 20
1.0
 30
0.0
  9
$UCSORTHOREF
  2

  9
$UCSORTHOVIEW
 70
0
  9
$UCSORGTOP
 10
0.0
 20
0.0
 30
0.0
  9
$UCSORGBOTTOM
 10
0.0
 20
0.0
 30
0.0
  9
$UCSORGLEFT
 10
0.0
 20
0.0
 30
0.0
  9
$UCSORGRIGHT
 10
0.0
 20
0.0
 30
0.0
  9
$UCSORGFRONT
 10
0.0
 20
0.0
 30
0.0
  9
$UCSORGBACK
 10
0.0
 20
0.0
 30
0.0
  9
$PUCSBASE
  2

  9
$PUCSNAME
  2

  9
$PUCSORG
 10
0.0
 20
0.0
 30
0.0
  9
$PUCSXDIR
 10
1.0
 20
0.0
 30
0.0
  9
$PUCSYDIR
 10
0.0
 20
1.0
 30
0.0
  9
$PUCSORTHOREF
  2

  9
$PUCSORTHOVIEW
 70
0
  9
$PUCSORGTOP
 10
0.0
 20
0.0
 30
0.0
  9
$PUCSORGBOTTOM
 10
0.0
 20
0.0
 30
0.0
  9
$PUCSORGLEFT
 10
0.0
 20
0.0
 30
0.0
  9
$PUCSORGRIGHT
 10
0.0
 20
0.0
 30
0.0
  9
$PUCSORGFRONT
 10
0.0
 20
0.0
 30
0.0
  9
$PUCSORGBACK
 10
0.0
 20
0.0
 30
0.0
  9
$USERI1
 70
0
  9
$USERI2
 70
0
  9
$USERI3
 70
0
  9
$USERI4
 70
0
  9
$USERI5
 70
0
  9
$USERR1
 40
0.0
  9
$USERR2
 40
0.0
  9
$USERR3
 40
0.0
  9
$USERR4
 40
0.0
  9
$USERR5
 40
0.0
  9
$WORLDVIEW
 70
1
  9
$SHADEDGE
 70
3
  9
$SHADEDIF
 70
70
  9
$TILEMODE
 70
1
  9
$MAXACTVP
 70
64
  9
$PINSBASE
 10
0.0
 20
0.0
 30
0.0
  9
$PLIMCHECK
 70
0
  9
$PEXTMIN
 10
1e+20
 20
1e+20
 30
1e+20
  9
$PEXTMAX
 10
-1e+20
 20
-1e+20
 30
-1e+20
  9
$PLIMMIN
 10
0.0
 20
0.0
  9
$PLIMMAX
 10
420.0
 20
297.0
  9
$UNITMODE
 70
0
  9
$VISRETAIN
 70
1
  9
$PLINEGEN
 70
0
  9
$PSLTSCALE
 70
1
  9
$TREEDEPTH
 70
3020
  9
$CMLSTYLE
  2
Standard
  9
$CMLJUST
 70
0
  9
$CMLSCALE
 40
20.0
  9
$PROXYGRAPHICS
 70
1
  9
$MEASUREMENT
 70
1
  9
$CELWEIGHT
370
-1
  9
$ENDCAPS
280
0
  9
$JOINSTYLE
280
0
  9
$LWDISPLAY
290
0
  9
$INSUNITS
 70
6
  9
$HYPERLINKBASE
  1

  9
$STYLESHEET
  1

  9
$XEDIT
290
1
  9
$CEPSNTYPE
380
0
  9
$PSTYLEMODE
290
1
  9
$FINGERPRINTGUID
  2
{8E2A16D3-E0C6-45CF-9E69-A4964E88C470}
  9
$VERSIONGUID
  2
{EB4EB7A4-FBEC-4E5C-8D35-C68604197FC4}
  9
$EXTNAMES
290
1
  9
$PSVPSCALE
 40
0.0
  9
$OLESTARTUP
290
0
  9
$SORTENTS
280
127
  9
$INDEXCTL
280
0
  9
$HIDETEXT
280
1
  9
$XCLIPFRAME
280
1
  9
$HALOGAP
280
0
  9
$OBSCOLOR
 70
257
  9
$OBSLTYPE
280
0
  9
$INTERSECTIONDISPLAY
280
0
  9
$INTERSECTIONCOLOR
 70
257
  9
$DIMASSOC
280
2
  9
$PROJECTNAME
  1

  9
$CAMERADISPLAY
290
0
  9
$LENSLENGTH
 40
50.0
  9
$CAMERAHEIGHT
 40
0.0
  9
$STEPSPERSEC
 40
24.0
  9
$STEPSIZE
 40
100.0
  9
$3DDWFPREC
 40
2.0
  9
$PSOLWIDTH
 40
0.005
  9
$PSOLHEIGHT
 40
0.08
  9
$LOFTANG1
 40
1.570796326795
  9
$LOFTANG2
 40
1.570796326795
  9
$LOFTMAG1
 40
0.0
  9
$LOFTMAG2
 40
0.0
  9
$LOFTPARAM
 70
7
  9
$LOFTNORMALS
280
1
  9
$LATITUDE
 40
37.795
  9
$LONGITUDE
 40
-122.394
  9
$NORTHDIRECTION
 40
0.0
  9
$TIMEZONE
 70
-8000
  9
$LIGHTGLYPHDISPLAY
280
1
  9
$TILEMODELIGHTSYNCH
280
1
  9
$CMATERIAL
347
20
  9
$SOLIDHIST
280
0
  9
$SHOWHIST
280
1
  9
$DWFFRAME
280
2
  9
$DGNFRAME
280
2
  9
$REALWORLDSCALE
290
1
  9
$INTERFERECOLOR
 62
256
  9
$CSHADOW
280
0
  9
$SHADOWPLANELOCATION
 40
0.0
  0
ENDSEC
  0
SECTION
  2
CLASSES
  0
CLASS
  1
ACDBDICTIONARYWDFLT
  2
AcDbDictionaryWithDefault
  3
ObjectDBX Classes
 90
0
 91
0
280
0
281
0
  0
CLASS
  1
SUN
  2
AcDbSun
  3
SCENEOE
 90
1153
 91
0
280
0
281
0
  0
CLASS
  1
VISUALSTYLE
  2
AcDbVisualStyle
  3
ObjectDBX Classes
 90
4095
 91
0
280
0
281
0
  0
CLASS
  1
MATERIAL
  2
AcDbMaterial
  3
ObjectDBX Classes
 90
1153
 91
0
280
0
281
0
  0
CLASS
  1
SCALE
  2
AcDbScale
  3
ObjectDBX Classes
 90
1153
 91
0
280
0
281
0
  0
CLASS
  1
TABLESTYLE
  2
AcDbTableStyle
  3
ObjectDBX Classes
 90
4095
 91
0
280
0
281
0
  0
CLASS
  1
MLEADERSTYLE
  2
AcDbMLeaderStyle
  3
ACDB_MLEADERSTYLE_CLASS
 90
4095
 91
0
280
0
281
0
  0
CLASS
  1
DICTIONARYVAR
  2
AcDbDictionaryVar
  3
ObjectDBX Classes
 90
0
 91
0
280
0
281
0
  0
CLASS
  1
CELLSTYLEMAP
  2
AcDbCellStyleMap
  3
ObjectDBX Classes
 90
1152
 91
0
280
0
281
0
  0
CLASS
  1
MENTALRAYRENDERSETTINGS
  2
AcDbMentalRayRenderSettings
  3
SCENEOE
 90
1024
 91
0
280
0
281
0
  0
CLASS
  1
ACDBDETAILVIEWSTYLE
  2
AcDbDetailViewStyle
  3
ObjectDBX Classes
 90
1025
 91
0
280
0
281
0
  0
CLASS
  1
ACDBSECTIONVIEWSTYLE
  2
AcDbSectionViewStyle
  3
ObjectDBX Classes
 90
1025
 91
0
280
0
281
0
  0
CLASS
  1
RASTERVARIABLES
  2
AcDbRasterVariables
  3
ISM
 90
0
 91
0
280
0
281
0
  0
CLASS
  1
LAYOUT
  2
AcDbLayout
  3
ObjectDBX Classes
 90
0
 91
0
280
0
281
0
  0
CLASS
  1
ACDBPLACEHOLDER
  2
AcDbPlaceHolder
  3
ObjectDBX Classes
 90
0
 91
0
280
0
281
0
  0
ENDSEC
  0
SECTION
  2
TABLES
  0
TABLE
  2
VPORT
  5
8
330
0
100
AcDbSymbolTable
 70
1
  0
VPORT
  5
23
330
8
100
AcDbSymbolTableRecord
100
AcDbViewportTableRecord
  2
*Active
 70
0
 10
0.0
 20
0.0
 11
1.0
 21
1.0
 12
0.0
 22
0.0
 13
0.0
 23
0.0
 14
0.5
 24
0.5
 15
0.5
 25
0.5
 16
0.0
 26
0.0
 36
1.0
 17
0.0
 27
0.0
 37
0.0
 40
1000.0
 41
1.34
 42
50.0
 43
0.0
 44
0.0
 50
0.0
 51
0.0
 71
0
 72
1000
 73
1
 74
3
 75
0
 76
0
 77
0
 78
0
281
0
 65
0
146
0.0
  0
ENDTAB
  0
TABLE
  2
LTYPE
  5
2
330
0
100
AcDbSymbolTable
 70
3
  0
LTYPE
  5
24
330
2
100
AcDbSymbolTableRecord
100
AcDbLinetypeTableRecord
  2
ByBlock
 70
0
  3

 72
65
 73
0
 40
0.0
  0
LTYPE
  5
25
330
2
100
AcDbSymbolTableRecord
100
AcDbLinetypeTableRecord
  2
ByLayer
 70
0
  3

 72
65
 73
0
 40
0.0
  0
LTYPE
  5
26
330
2
100
AcDbSymbolTableRecord
100
AcDbLinetypeTableRecord
  2
Continuous
 70
0
  3

 72
65
 73
0
 40
0.0
  0
ENDTAB
  0
TABLE
  2
LAYER
  5
1
330
0
100
AcDbSymbolTable
 70
3
  0
LAYER
  5
27
330
1
100
AcDbSymbolTableRecord
100
AcDbLayerTableRecord
  2
0
 70
0
 62
7
  6
Continuous
370
-3
390
13
347
21
  0
LAYER
  5
28
330
1
100
AcDbSymbolTableRecord
100
AcDbLayerTableRecord
  2
Defpoints
 70
0
 62
7
  6
Continuous
290
0
370
-3
390
13
347
21
  0
LAYER
  5
8B
330
1
100
AcDbSymbolTableRecord
100
AcDbLayerTableRecord
  2
A-DETL-GENF
 70
0
 62
92
  6
Continuous
370
18
390
13
347
21
348
0
  0
ENDTAB
  0
TABLE
  2
STYLE
  5
5
330
0
100
AcDbSymbolTable
 70
1
  0
STYLE
  5
29
330
5
100
AcDbSymbolTableRecord
100
AcDbTextStyleTableRecord
  2
Standard
 70
0
 40
0.0
 41
1.0
 50
0.0
 71
0
 42
2.5
  3
txt
  4

  0
ENDTAB
  0
TABLE
  2
VIEW
  5
7
330
0
100
AcDbSymbolTable
 70
0
  0
ENDTAB
  0
TABLE
  2
UCS
  5
6
330
0
100
AcDbSymbolTable
 70
0
  0
ENDTAB
  0
TABLE
  2
APPID
  5
3
330
0
100
AcDbSymbolTable
 70
3
  0
APPID
  5
2A
330
3
100
AcDbSymbolTableRecord
100
AcDbRegAppTableRecord
  2
ACAD
 70
0
  0
APPID
  5
8E
330
3
100
AcDbSymbolTableRecord
100
AcDbRegAppTableRecord
  2
HATCHBACKGROUNDCOLOR
 70
0
  0
APPID
  5
8F
330
3
100
AcDbSymbolTableRecord
100
AcDbRegAppTableRecord
  2
EZDXF
 70
0
  0
ENDTAB
  0
TABLE
  2
DIMSTYLE
  5
4
330
0
100
AcDbSymbolTable
 70
1
100
AcDbDimStyleTable
  0
DIMSTYLE
105
2B
330
4
100
AcDbSymbolTableRecord
100
AcDbDimStyleTableRecord
  2
Standard
 70
0
 40
1.0
 41
2.5
 42
0.625
 43
3.75
 44
1.25
 45
0.0
 46
0.0
 47
0.0
 48
0.0
 49
2.5
140
2.5
141
2.5
142
0.0
143
0.03937007874
144
1.0
145
0.0
146
1.0
147
0.625
148
0.0
 69
0
 70
0
 71
0
 72
0
 73
0
 74
0
 75
0
 76
0
 77
1
 78
8
 79
3
170
0
171
3
172
1
173
0
174
0
175
0
176
0
177
0
178
0
179
2
271
2
272
2
273
2
274
3
275
0
276
0
277
2
278
44
279
0
280
0
281
0
282
0
283
0
284
8
285
0
286
0
288
0
289
3
290
0
371
-2
372
-2
  0
ENDTAB
  0
TABLE
  2
BLOCK_RECORD
  5
9
330
0
100
AcDbSymbolTable
 70
3
  0
BLOCK_RECORD
  5
17
330
9
100
AcDbSymbolTableRecord
100
AcDbBlockTableRecord
  2
*Model_Space
340
1A
 70
0
280
1
281
0
  0
BLOCK_RECORD
  5
1B
330
9
100
AcDbSymbolTableRecord
100
AcDbBlockTableRecord
  2
*Paper_Space
340
1E
 70
0
280
1
281
0
  0
BLOCK_RECORD
  5
2F
330
9
100
AcDbSymbolTableRecord
100
AcDbBlockTableRecord
  2
23 kanaalplaat_200 - std-3345092-00_0 Basismaterialen
340
0
 70
0
280
1
281
0
  0
ENDTAB
  0
ENDSEC
  0
SECTION
  2
BLOCKS
  0
BLOCK
  5
18
330
17
100
AcDbEntity
  8
0
100
AcDbBlockBegin
  2
*Model_Space
 70
0
 10
0.0
 20
0.0
 30
0.0
  3
*Model_Space
  1

  0
ENDBLK
  5
19
330
17
100
AcDbEntity
  8
0
100
AcDbBlockEnd
  0
BLOCK
  5
1C
330
1B
100
AcDbEntity
  8
0
100
AcDbBlockBegin
  2
*Paper_Space
 70
0
 10
0.0
 20
0.0
 30
0.0
  3
*Paper_Space
  1

  0
ENDBLK
  5
1D
330
1B
100
AcDbEntity
  8
0
100
AcDbBlockEnd
  0
BLOCK
  5
30
330
2F
100
AcDbEntity
  8
0
100
AcDbBlockBegin
  2
23 kanaalplaat_200 - std-3345092-00_0 Basismaterialen
 70
0
 10
0.0
 20
0.0
 30
0.0
  3
23 kanaalplaat_200 - std-3345092-00_0 Basismaterialen
  1

  0
HATCH
  5
32
330
2F
100
AcDbEntity
  8
A-DETL-GENF
370
13
100
AcDbHatch
 10
0.0
 20
0.0
 30
0.0
210
0.0
220
0.0
230
1.0
  2
FP_722
 70
0
 71
0
 91
8
 92
1
 93
19
 72
1
 10
1189.99999999998
 20
-2.16573e-11
 11
1199.999999999978
 21
9.999999999980401
 72
1
 10
1199.999999999978
 20
9.999999999980401
 11
1199.999999999978
 21
19.99999999997812
 72
1
 10
1199.999999999978
 20
19.99999999997812
 11
1194.999999999984
 21
19.99999999997812
 72
1
 10
1194.999999999984
 20
19.99999999997812
 11
1183.485281374217
 21
100.6030303803091
 72
1
 10
1183.485281374217
 20
100.6030303803091
 11
1169.343145750487
 21
114.7451660040432
 72
1
 10
1169.343145750487
 20
114.7451660040432
 11
1164.393398282184
 21
149.3933982821815
 72
1
 10
1164.393398282184
 20
149.3933982821815
 11
1174.99999999998
 21
159.9999999999809
 72
1
 10
1174.99999999998
 20
159.9999999999809
 11
1174.99999999998
 21
199.9999999999718
 72
1
 10
1174.99999999998
 20
199.9999999999718
 11
24.99999999997704
 21
199.9999999999805
 72
1
 10
24.99999999997699
 20
199.9999999999805
 11
24.99999999997699
 21
159.9999999999809
 72
1
 10
24.99999999997699
 20
159.9999999999809
 11
35.60660171778078
 21
149.3933982821815
 72
1
 10
35.60660171778078
 20
149.3933982821815
 11
30.65685424947408
 21
114.7451660040432
 72
1
 10
30.65685424947408
 20
114.7451660040432
 11
16.51471862574002
 21
100.6030303803091
 72
1
 10
16.51471862574002
 20
100.6030303803091
 11
4.999999999981536
 21
19.99999999997813
 72
1
 10
4.999999999981537
 20
19.99999999997812
 11
-1.73257e-11
 21
19.99999999997812
 72
1
 10
-1.73259e-11
 20
19.99999999997812
 11
-1.73259e-11
 21
9.999999999980401
 72
1
 10
-1.73259e-11
 20
9.999999999980401
 11
9.999999999980401
 21
-1.73266e-11
 72
1
 10
9.999999999980401
 20
-1.73259e-11
 11
959.9012444012242
 21
-2.16573e-11
 72
1
 10
959.9012444012242
 20
-2.16573e-11
 11
1189.99999999998
 21
-2.16573e-11
 97
0
 92
1
 93
61
 72
1
 10
1075.307247875193
 20
35.08183019937746
 11
1066.692752124744
 21
35.08183019937746
 72
1
 10
1066.692752124744
 20
35.08183019937746
 11
1058.143557051139
 21
35.68917049390797
 72
1
 10
1058.143557051139
 20
35.68917049390797
 11
1049.703196438959
 21
36.90385108295597
 72
1
 10
1049.703196438959
 20
36.90385108295597
 11
1041.328136503623
 21
38.72587196653449
 72
1
 10
1041.328136503623
 20
38.72587196653449
 11
1033.01837724514
 21
41.15523314463484
 72
1
 10
1033.01837724514
 20
41.15523314463484
 11
1031.664336866957
 21
41.77265814328628
 72
1
 10
1031.664336866957
 20
41.77265814328628
 11
1030.471413479128
 21
42.66236189481245
 72
1
 10
1030.471413479128
 20
42.66236189481245
 11
1029.493523298558
 21
43.78413271340963
 72
1
 10
1029.493523298558
 20
43.78413271340963
 11
1028.774863747843
 21
45.08727024447472
 72
1
 10
1028.774863747843
 20
45.08727024447472
 11
1013.669426829737
 21
81.06719950817335
 72
1
 10
1013.669426829737
 20
81.06719950817335
 11
1012.795262709678
 21
83.91214562051276
 72
1
 10
1012.795262709678
 20
83.91214562051276
 11
1012.499999999982
 21
86.87368259025648
 72
1
 10
1012.499999999982
 20
86.87368259025648
 11
1012.499999999982
 21
106.4999999999758
 72
1
 10
1012.499999999982
 20
106.4999999999758
 11
1012.736575770183
 21
111.6616189658084
 72
1
 10
1012.736575770183
 20
111.6616189658084
 11
1013.401022157547
 21
116.7085903453076
 72
1
 10
1013.401022157547
 20
116.7085903453076
 11
1014.49333916207
 21
121.6409141384732
 72
1
 10
1014.49333916207
 20
121.6409141384732
 11
1016.028277555939
 21
126.4942018595699
 72
1
 10
1016.028277555939
 20
126.4942018595699
 11
1017.991086566958
 21
131.2328419943331
 72
1
 10
1017.991086566958
 20
131.2328419943331
 11
1020.337513878589
 21
135.7499999999778
 72
1
 10
1020.337513878589
 20
135.7499999999778
 11
1023.076273808569
 21
140.040644662804
 72
1
 10
1023.076273808569
 20
140.040644662804
 11
1026.198652039158
 21
144.1098071965118
 72
1
 10
1026.198652039158
 20
144.1098071965118
 11
1029.634253300567
 21
147.8657466993902
 72
1
 10
1029.634253300567
 20
147.8657466993902
 11
1033.390192803445
 21
151.3013479608038
 72
1
 10
1033.390192803445
 20
151.3013479608038
 11
1037.459355337153
 21
154.4237261913836
 72
1
 10
1037.459355337153
 20
154.4237261913836
 11
1042.248426333377
 21
157.4213925311188
 72
1
 10
1042.248426333377
 20
157.4213925311188
 11
1046.267158005624
 21
159.5089134329954
 72
1
 10
1046.267158005624
 20
159.5089134329954
 11
1051.005798140387
 21
161.4717224440229
 72
1
 10
1051.005798140387
 20
161.4717224440229
 11
1055.859085861484
 21
163.0066608378876
 72
1
 10
1055.859085861484
 20
163.0066608378876
 11
1060.829625516762
 21
164.1040090561059
 72
1
 10
1060.829625516762
 20
164.1040090561059
 11
1065.91481275837
 21
164.7734866571613
 72
1
 10
1065.91481275837
 20
164.7734866571613
 11
1070.999999999981
 21
164.9999999999755
 72
1
 10
1070.999999999981
 20
164.9999999999755
 11
1076.085187241589
 21
164.7734866571613
 72
1
 10
1076.085187241589
 20
164.7734866571613
 11
1081.170374483201
 21
164.1040090561059
 72
1
 10
1081.170374483201
 20
164.1040090561059
 11
1086.140914138479
 21
163.0066608378876
 72
1
 10
1086.140914138479
 20
163.0066608378876
 11
1090.994201859576
 21
161.4717224440229
 72
1
 10
1090.994201859576
 20
161.4717224440229
 11
1095.732841994339
 21
159.5089134329954
 72
1
 10
1095.732841994339
 20
159.5089134329954
 11
1100.249999999979
 21
157.1624861213641
 72
1
 10
1100.249999999979
 20
157.1624861213641
 11
1104.540644662806
 21
154.4237261913879
 72
1
 10
1104.540644662806
 20
154.4237261913879
 11
1108.609807196513
 21
151.3013479608038
 72
1
 10
1108.609807196513
 20
151.3013479608038
 11
1112.365746699396
 21
147.8657466993902
 72
1
 10
1112.365746699396
 20
147.8657466993902
 11
1115.801347960805
 21
144.1098071965118
 72
1
 10
1115.801347960805
 20
144.1098071965118
 11
1118.923726191394
 21
140.040644662804
 72
1
 10
1118.923726191394
 20
140.040644662804
 11
1121.662486121374
 21
135.7499999999778
 72
1
 10
1121.662486121374
 20
135.7499999999778
 11
1124.008913433001
 21
131.2328419943331
 72
1
 10
1124.008913433001
 20
131.2328419943331
 11
1125.971722444024
 21
126.4942018595699
 72
1
 10
1125.971722444024
 20
126.4942018595699
 11
1127.506660837893
 21
121.6409141384732
 72
1
 10
1127.506660837893
 20
121.6409141384732
 11
1128.598977842416
 21
116.7085903453076
 72
1
 10
1128.598977842416
 20
116.7085903453076
 11
1129.263424229776
 21
111.6616189658084
 72
1
 10
1129.263424229776
 20
111.6616189658084
 11
1129.499999999981
 21
106.4999999999801
 72
1
 10
1129.499999999981
 20
106.4999999999801
 11
1129.499999999981
 21
86.87368259025214
 72
1
 10
1129.499999999981
 20
86.87368259025214
 11
1129.204737290286
 21
83.91214562050844
 72
1
 10
1129.204737290286
 20
83.91214562050844
 11
1128.330573170221
 21
81.067199508169
 72
1
 10
1128.330573170221
 20
81.067199508169
 11
1113.225136252138
 21
45.08727024451371
 72
1
 10
1113.225136252138
 20
45.08727024451371
 11
1112.506476701414
 21
43.78413271343562
 72
1
 10
1112.506476701414
 20
43.78413271343562
 11
1111.528586520835
 21
42.66236189482545
 72
1
 10
1111.528586520835
 20
42.66236189482545
 11
1110.335663132993
 21
41.77265814329495
 72
1
 10
1110.335663132993
 20
41.77265814329495
 11
1108.981622754797
 21
41.15523314463484
 72
1
 10
1108.981622754797
 20
41.15523314463484
 11
1100.671863496314
 21
38.72587196653016
 72
1
 10
1100.671863496314
 20
38.72587196653016
 11
1092.296803560979
 21
36.90385108295597
 72
1
 10
1092.296803560979
 20
36.90385108295597
 11
1083.856442948794
 21
35.68917049390364
 72
1
 10
1083.856442948794
 20
35.68917049390364
 11
1075.307247875193
 21
35.08183019937746
 97
0
 92
1
 93
61
 72
1
 10
761.3072478751956
 20
35.08183019937746
 11
752.6927521247418
 21
35.08183019937746
 72
1
 10
752.6927521247418
 20
35.08183019937746
 11
744.1435570511455
 21
35.68917049390797
 72
1
 10
744.1435570511455
 20
35.68917049390797
 11
735.7031964389566
 21
36.90385108296031
 72
1
 10
735.7031964389566
 20
36.90385108296031
 11
727.3281365036208
 21
38.72587196653449
 72
1
 10
727.3281365036208
 20
38.72587196653449
 11
719.0183772451381
 21
41.15523314463916
 72
1
 10
719.0183772451381
 20
41.15523314463916
 11
717.6643368669552
 21
41.77265814328628
 72
1
 10
717.6643368669552
 20
41.77265814328628
 11
716.4714134791299
 21
42.66236189481245
 72
1
 10
716.4714134791299
 20
42.66236189481245
 11
715.493523298556
 21
43.78413271340963
 72
1
 10
715.493523298556
 20
43.78413271340963
 11
714.7748637478405
 21
45.08727024447472
 72
1
 10
714.7748637478405
 20
45.08727024447472
 11
699.6694268297355
 21
81.06719950817335
 72
1
 10
699.6694268297355
 20
81.06719950817335
 11
698.7952627096756
 21
83.91214562051276
 72
1
 10
698.7952627096756
 20
83.91214562051276
 11
698.4999999999797
 21
86.87368259025648
 72
1
 10
698.4999999999797
 20
86.87368259025648
 11
698.4999999999797
 21
106.4999999999801
 72
1
 10
698.4999999999797
 20
106.4999999999801
 11
698.7365757701853
 21
111.6616189658127
 72
1
 10
698.7365757701853
 20
111.6616189658127
 11
699.4010221575494
 21
116.7085903453076
 72
1
 10
699.4010221575494
 20
116.7085903453076
 11
700.4933391620676
 21
121.6409141384775
 72
1
 10
700.4933391620676
 20
121.6409141384775
 11
702.0282775559366
 21
126.4942018595699
 72
1
 10
702.0282775559366
 20
126.4942018595699
 11
703.9910865669599
 21
131.2328419943374
 72
1
 10
703.9910865669599
 20
131.2328419943374
 11
706.3375138785912
 21
135.7499999999778
 72
1
 10
706.3375138785912
 20
135.7499999999778
 11
709.0762738085715
 21
140.040644662804
 72
1
 10
709.0762738085715
 20
140.040644662804
 11
712.1986520391558
 21
144.1098071965118
 72
1
 10
712.1986520391558
 20
144.1098071965118
 11
715.6342533005694
 21
147.8657466993902
 72
1
 10
715.6342533005694
 20
147.8657466993902
 11
719.3901928034478
 21
151.3013479608038
 72
1
 10
719.3901928034478
 20
151.3013479608038
 11
723.4593553371554
 21
154.4237261913879
 72
1
 10
723.4593553371554
 20
154.4237261913879
 11
728.2484263333794
 21
157.4213925311188
 72
1
 10
728.2484263333794
 20
157.4213925311188
 11
732.2671580056223
 21
159.5089134329954
 72
1
 10
732.2671580056223
 20
159.5089134329954
 11
737.0057981403854
 21
161.4717224440229
 72
1
 10
737.0057981403854
 20
161.4717224440229
 11
741.8590858614821
 21
163.0066608378876
 72
1
 10
741.8590858614821
 20
163.0066608378876
 11
746.8296255167603
 21
164.1040090561059
 72
1
 10
746.8296255167603
 20
164.1040090561059
 11
751.9148127583721
 21
164.7734866571613
 72
1
 10
751.9148127583721
 20
164.7734866571613
 11
756.9999999999795
 21
164.9999999999755
 72
1
 10
756.9999999999795
 20
164.9999999999755
 11
762.0851872415913
 21
164.7734866571613
 72
1
 10
762.0851872415913
 20
164.7734866571613
 11
767.1703744832029
 21
164.1040090561059
 72
1
 10
767.1703744832029
 20
164.1040090561059
 11
772.1409141384769
 21
163.0066608378876
 72
1
 10
772.1409141384769
 20
163.0066608378876
 11
776.9942018595736
 21
161.4717224440229
 72
1
 10
776.9942018595736
 20
161.4717224440229
 11
781.7328419943367
 21
159.5089134329954
 72
1
 10
781.7328419943367
 20
159.5089134329954
 11
786.2499999999815
 21
157.1624861213641
 72
1
 10
786.2499999999815
 20
157.1624861213641
 11
790.5406446628077
 21
154.4237261913879
 72
1
 10
790.5406446628077
 20
154.4237261913879
 11
794.6098071965155
 21
151.3013479608038
 72
1
 10
794.6098071965155
 20
151.3013479608038
 11
798.365746699394
 21
147.8657466993902
 72
1
 10
798.365746699394
 20
147.8657466993902
 11
801.8013479608031
 21
144.1098071965118
 72
1
 10
801.8013479608031
 20
144.1098071965118
 11
804.9237261913916
 21
140.040644662804
 72
1
 10
804.9237261913916
 20
140.040644662804
 11
807.6624861213724
 21
135.7499999999778
 72
1
 10
807.6624861213724
 20
135.7499999999778
 11
810.0089134330033
 21
131.2328419943374
 72
1
 10
810.0089134330033
 20
131.2328419943374
 11
811.9717224440266
 21
126.4942018595742
 72
1
 10
811.9717224440266
 20
126.4942018595742
 11
813.5066608378913
 21
121.6409141384775
 72
1
 10
813.5066608378913
 20
121.6409141384775
 11
814.5989778424139
 21
116.7085903453076
 72
1
 10
814.5989778424139
 20
116.7085903453076
 11
815.263424229778
 21
111.6616189658127
 72
1
 10
815.263424229778
 20
111.6616189658127
 11
815.4999999999835
 21
106.4999999999801
 72
1
 10
815.4999999999835
 20
106.4999999999801
 11
815.4999999999835
 21
86.87368259025648
 72
1
 10
815.4999999999835
 20
86.87368259025648
 11
815.2047372902833
 21
83.91214562051276
 72
1
 10
815.2047372902833
 20
83.91214562051276
 11
814.3305731702234
 21
81.067199508169
 72
1
 10
814.3305731702234
 20
81.067199508169
 11
799.2251362521358
 21
45.08727024451371
 72
1
 10
799.2251362521358
 20
45.08727024451371
 11
798.5064767014159
 21
43.78413271343562
 72
1
 10
798.5064767014159
 20
43.78413271343562
 11
797.5285865208334
 21
42.66236189482545
 72
1
 10
797.5285865208334
 20
42.66236189482545
 11
796.3356631329951
 21
41.77265814329495
 72
1
 10
796.3356631329951
 20
41.77265814329495
 11
794.9816227547992
 21
41.15523314463484
 72
1
 10
794.9816227547992
 20
41.15523314463484
 11
786.6718634963121
 21
38.72587196653449
 72
1
 10
786.6718634963121
 20
38.72587196653449
 11
778.2968035609806
 21
36.90385108295597
 72
1
 10
778.2968035609806
 20
36.90385108295597
 11
769.8564429487961
 21
35.68917049390797
 72
1
 10
769.8564429487961
 20
35.68917049390797
 11
761.3072478751956
 21
35.08183019937746
 97
0
 92
1
 93
61
 72
1
 10
918.3072478751945
 20
35.08183019937746
 11
909.6927521247407
 21
35.08183019937746
 72
1
 10
909.6927521247407
 20
35.08183019937746
 11
901.14355705114
 21
35.68917049390797
 72
1
 10
901.14355705114
 20
35.68917049390797
 11
892.7031964389554
 21
36.90385108295597
 72
1
 10
892.7031964389554
 20
36.90385108295597
 11
884.3281365036243
 21
38.72587196653449
 72
1
 10
884.3281365036243
 20
38.72587196653449
 11
876.0183772451371
 21
41.15523314463484
 72
1
 10
876.0183772451371
 20
41.15523314463484
 11
874.664336866954
 21
41.77265814328628
 72
1
 10
874.664336866954
 20
41.77265814328628
 11
873.4714134791245
 21
42.66236189481245
 72
1
 10
873.4714134791245
 20
42.66236189481245
 11
872.4935232985594
 21
43.78413271340963
 72
1
 10
872.4935232985594
 20
43.78413271340963
 11
871.7748637478438
 21
45.08727024447472
 72
1
 10
871.7748637478438
 20
45.08727024447472
 11
856.6694268297389
 21
81.06719950817335
 72
1
 10
856.6694268297389
 20
81.06719950817335
 11
855.7952627096788
 21
83.91214562051276
 72
1
 10
855.7952627096788
 20
83.91214562051276
 11
855.4999999999789
 21
86.87368259025648
 72
1
 10
855.4999999999789
 20
86.87368259025648
 11
855.4999999999789
 21
106.4999999999801
 72
1
 10
855.4999999999789
 20
106.4999999999801
 11
855.7365757701843
 21
111.6616189658084
 72
1
 10
855.7365757701843
 20
111.6616189658084
 11
856.4010221575484
 21
116.7085903453076
 72
1
 10
856.4010221575484
 20
116.7085903453076
 11
857.4933391620708
 21
121.6409141384732
 72
1
 10
857.4933391620708
 20
121.6409141384732
 11
859.0282775559355
 21
126.4942018595699
 72
1
 10
859.0282775559355
 20
126.4942018595699
 11
860.9910865669588
 21
131.2328419943331
 72
1
 10
860.9910865669588
 20
131.2328419943331
 11
863.3375138785901
 21
135.7499999999778
 72
1
 10
863.3375138785901
 20
135.7499999999778
 11
866.0762738085706
 21
140.040644662804
 72
1
 10
866.0762738085706
 20
140.040644662804
 11
869.1986520391548
 21
144.1098071965118
 72
1
 10
869.1986520391548
 20
144.1098071965118
 11
872.6342533005684
 21
147.8657466993902
 72
1
 10
872.6342533005684
 20
147.8657466993902
 11
876.3901928034467
 21
151.3013479608038
 72
1
 10
876.3901928034467
 20
151.3013479608038
 11
880.4593553371544
 21
154.4237261913879
 72
1
 10
880.4593553371544
 20
154.4237261913879
 11
885.2484263333783
 21
157.4213925311188
 72
1
 10
885.2484263333783
 20
157.4213925311188
 11
889.2671580056254
 21
159.5089134329954
 72
1
 10
889.2671580056254
 20
159.5089134329954
 11
894.0057981403887
 21
161.4717224440229
 72
1
 10
894.0057981403887
 20
161.4717224440229
 11
898.8590858614854
 21
163.0066608378876
 72
1
 10
898.8590858614854
 20
163.0066608378876
 11
903.8296255167635
 21
164.1040090561059
 72
1
 10
903.8296255167635
 20
164.1040090561059
 11
908.914812758371
 21
164.7734866571613
 72
1
 10
908.914812758371
 20
164.7734866571613
 11
913.9999999999828
 21
164.9999999999755
 72
1
 10
913.9999999999828
 20
164.9999999999755
 11
919.0851872415903
 21
164.7734866571613
 72
1
 10
919.0851872415903
 20
164.7734866571613
 11
924.170374483202
 21
164.1040090561059
 72
1
 10
924.170374483202
 20
164.1040090561059
 11
929.1409141384759
 21
163.0066608378876
 72
1
 10
929.1409141384759
 20
163.0066608378876
 11
933.9942018595726
 21
161.4717224440229
 72
1
 10
933.9942018595726
 20
161.4717224440229
 11
938.7328419943358
 21
159.5089134329954
 72
1
 10
938.7328419943358
 20
159.5089134329954
 11
943.2499999999803
 21
157.1624861213641
 72
1
 10
943.2499999999803
 20
157.1624861213641
 11
947.5406446628067
 21
154.4237261913879
 72
1
 10
947.5406446628067
 20
154.4237261913879
 11
951.6098071965145
 21
151.3013479608038
 72
1
 10
951.6098071965145
 20
151.3013479608038
 11
955.3657466993928
 21
147.8657466993902
 72
1
 10
955.3657466993928
 20
147.8657466993902
 11
958.8013479608063
 21
144.1098071965118
 72
1
 10
958.8013479608063
 20
144.1098071965118
 11
961.923726191395
 21
140.040644662804
 72
1
 10
961.923726191395
 20
140.040644662804
 11
964.6624861213711
 21
135.7499999999778
 72
1
 10
964.6624861213711
 20
135.7499999999778
 11
967.0089134330022
 21
131.2328419943374
 72
1
 10
967.0089134330022
 20
131.2328419943374
 11
968.9717224440255
 21
126.4942018595699
 72
1
 10
968.9717224440255
 20
126.4942018595699
 11
970.5066608378903
 21
121.6409141384775
 72
1
 10
970.5066608378903
 20
121.6409141384775
 11
971.5989778424173
 21
116.7085903453076
 72
1
 10
971.5989778424173
 20
116.7085903453076
 11
972.263424229777
 21
111.6616189658127
 72
1
 10
972.263424229777
 20
111.6616189658127
 11
972.4999999999825
 21
106.4999999999801
 72
1
 10
972.4999999999825
 20
106.4999999999801
 11
972.4999999999825
 21
86.87368259025648
 72
1
 10
972.4999999999825
 20
86.87368259025648
 11
972.2047372902823
 21
83.91214562050844
 72
1
 10
972.2047372902823
 20
83.91214562050844
 11
971.3305731702224
 21
81.067199508169
 72
1
 10
971.3305731702224
 20
81.067199508169
 11
956.2251362521347
 21
45.08727024451371
 72
1
 10
956.2251362521347
 20
45.08727024451371
 11
955.5064767014147
 21
43.78413271343562
 72
1
 10
955.5064767014147
 20
43.78413271343562
 11
954.5285865208366
 21
42.66236189482545
 72
1
 10
954.5285865208366
 20
42.66236189482545
 11
953.335663132994
 21
41.77265814329495
 72
1
 10
953.335663132994
 20
41.77265814329495
 11
951.9816227547982
 21
41.15523314463484
 72
1
 10
951.9816227547982
 20
41.15523314463484
 11
943.6718634963154
 21
38.72587196653449
 72
1
 10
943.6718634963154
 20
38.72587196653449
 11
935.2968035609796
 21
36.90385108295597
 72
1
 10
935.2968035609796
 20
36.90385108295597
 11
926.856442948795
 21
35.68917049390797
 72
1
 10
926.856442948795
 20
35.68917049390797
 11
918.3072478751945
 21
35.08183019937746
 97
0
 92
1
 93
61
 72
1
 10
604.3072478751966
 20
35.08183019937746
 11
595.6927521247428
 21
35.0818301993818
 72
1
 10
595.6927521247428
 20
35.0818301993818
 11
587.1435570511422
 21
35.68917049390797
 72
1
 10
587.1435570511422
 20
35.68917049390797
 11
578.7031964389575
 21
36.90385108296031
 72
1
 10
578.7031964389575
 20
36.90385108296031
 11
570.3281365036217
 21
38.72587196653449
 72
1
 10
570.3281365036217
 20
38.72587196653449
 11
562.018377245139
 21
41.15523314463916
 72
1
 10
562.018377245139
 20
41.15523314463916
 11
560.6643368669605
 21
41.77265814329062
 72
1
 10
560.6643368669605
 20
41.77265814329062
 11
559.4714134791266
 21
42.66236189481245
 72
1
 10
559.4714134791266
 20
42.66236189481245
 11
558.4935232985571
 21
43.78413271340963
 72
1
 10
558.4935232985571
 20
43.78413271340963
 11
557.7748637478416
 21
45.08727024447472
 72
1
 10
557.7748637478416
 20
45.08727024447472
 11
542.6694268297366
 21
81.06719950817335
 72
1
 10
542.6694268297366
 20
81.06719950817335
 11
541.7952627096766
 21
83.91214562051276
 72
1
 10
541.7952627096766
 20
83.91214562051276
 11
541.4999999999809
 21
86.87368259025648
 72
1
 10
541.4999999999809
 20
86.87368259025648
 11
541.4999999999809
 21
106.4999999999801
 72
1
 10
541.4999999999809
 20
106.4999999999801
 11
541.7365757701864
 21
111.6616189658127
 72
1
 10
541.7365757701864
 20
111.6616189658127
 11
542.4010221575504
 21
116.7085903453076
 72
1
 10
542.4010221575504
 20
116.7085903453076
 11
543.4933391620687
 21
121.6409141384775
 72
1
 10
543.4933391620687
 20
121.6409141384775
 11
545.0282775559334
 21
126.4942018595742
 72
1
 10
545.0282775559334
 20
126.4942018595742
 11
546.9910865669609
 21
131.2328419943374
 72
1
 10
546.9910865669609
 20
131.2328419943374
 11
549.3375138785921
 21
135.7499999999778
 72
1
 10
549.3375138785921
 20
135.7499999999778
 11
552.0762738085728
 21
140.040644662804
 72
1
 10
552.0762738085728
 20
140.040644662804
 11
555.1986520391569
 21
144.1098071965118
 72
1
 10
555.1986520391569
 20
144.1098071965118
 11
558.6342533005704
 21
147.8657466993902
 72
1
 10
558.6342533005704
 20
147.8657466993902
 11
562.3901928034488
 21
151.3013479608038
 72
1
 10
562.3901928034488
 20
151.3013479608038
 11
566.4593553371521
 21
154.4237261913879
 72
1
 10
566.4593553371521
 20
154.4237261913879
 11
571.2484263333674
 21
157.4213925311188
 72
1
 10
571.2484263333674
 20
157.4213925311188
 11
575.2671580056232
 21
159.5089134329954
 72
1
 10
575.2671580056232
 20
159.5089134329954
 11
580.0057981403864
 21
161.4717224440229
 72
1
 10
580.0057981403864
 20
161.4717224440229
 11
584.8590858614831
 21
163.0066608378876
 72
1
 10
584.8590858614831
 20
163.0066608378876
 11
589.8296255167613
 21
164.1040090561059
 72
1
 10
589.8296255167613
 20
164.1040090561059
 11
594.9148127583688
 21
164.7734866571613
 72
1
 10
594.9148127583688
 20
164.7734866571613
 11
599.9999999999804
 21
164.9999999999755
 72
1
 10
599.9999999999804
 20
164.9999999999755
 11
605.0851872415923
 21
164.7734866571613
 72
1
 10
605.0851872415923
 20
164.7734866571613
 11
610.1703744832041
 21
164.1040090561059
 72
1
 10
610.1703744832041
 20
164.1040090561059
 11
615.140914138478
 21
163.0066608378876
 72
1
 10
615.140914138478
 20
163.0066608378876
 11
619.9942018595747
 21
161.4717224440229
 72
1
 10
619.9942018595747
 20
161.4717224440229
 11
624.7328419943378
 21
159.5089134329954
 72
1
 10
624.7328419943378
 20
159.5089134329954
 11
629.2499999999826
 21
157.1624861213684
 72
1
 10
629.2499999999826
 20
157.1624861213684
 11
633.5406446628089
 21
154.4237261913879
 72
1
 10
633.5406446628089
 20
154.4237261913879
 11
637.6098071965123
 21
151.3013479608038
 72
1
 10
637.6098071965123
 20
151.3013479608038
 11
641.3657466993949
 21
147.8657466993902
 72
1
 10
641.3657466993949
 20
147.8657466993902
 11
644.8013479608042
 21
144.1098071965118
 72
1
 10
644.8013479608042
 20
144.1098071965118
 11
647.9237261913927
 21
140.040644662804
 72
1
 10
647.9237261913927
 20
140.040644662804
 11
650.6624861213689
 21
135.7499999999778
 72
1
 10
650.6624861213689
 20
135.7499999999778
 11
653.0089134330002
 21
131.2328419943374
 72
1
 10
653.0089134330002
 20
131.2328419943374
 11
654.9717224440277
 21
126.4942018595742
 72
1
 10
654.9717224440277
 20
126.4942018595742
 11
656.506660837888
 21
121.6409141384775
 72
1
 10
656.506660837888
 20
121.6409141384775
 11
657.598977842415
 21
116.7085903453076
 72
1
 10
657.598977842415
 20
116.7085903453076
 11
658.263424229779
 21
111.6616189658127
 72
1
 10
658.263424229779
 20
111.6616189658127
 11
658.4999999999801
 21
106.4999999999801
 72
1
 10
658.4999999999801
 20
106.4999999999801
 11
658.4999999999801
 21
86.87368259025648
 72
1
 10
658.4999999999801
 20
86.87368259025648
 11
658.2047372902844
 21
83.91214562051276
 72
1
 10
658.2047372902844
 20
83.91214562051276
 11
657.3305731702244
 21
81.067199508169
 72
1
 10
657.3305731702244
 20
81.067199508169
 11
642.2251362521368
 21
45.08727024451371
 72
1
 10
642.2251362521368
 20
45.08727024451371
 11
641.5064767014126
 21
43.78413271343562
 72
1
 10
641.5064767014126
 20
43.78413271343562
 11
640.5285865208344
 21
42.66236189482977
 72
1
 10
640.5285865208344
 20
42.66236189482977
 11
639.3356631329918
 21
41.77265814329495
 72
1
 10
639.3356631329918
 20
41.77265814329495
 11
637.9816227548002
 21
41.15523314463484
 72
1
 10
637.9816227548002
 20
41.15523314463484
 11
629.6718634963132
 21
38.72587196653449
 72
1
 10
629.6718634963132
 20
38.72587196653449
 11
621.2968035609774
 21
36.90385108296031
 72
1
 10
621.2968035609774
 20
36.90385108296031
 11
612.8564429487973
 21
35.68917049390797
 72
1
 10
612.8564429487973
 20
35.68917049390797
 11
604.3072478751966
 21
35.08183019937746
 97
0
 92
1
 93
61
 72
1
 10
281.6927521247449
 20
35.0818301993818
 11
273.14355705114
 21
35.68917049390797
 72
1
 10
273.14355705114
 20
35.68917049390797
 11
264.7031964389597
 21
36.90385108296031
 72
1
 10
264.7031964389597
 20
36.90385108296031
 11
256.3281365036239
 21
38.72587196653449
 72
1
 10
256.3281365036239
 20
38.72587196653449
 11
248.0183772451369
 21
41.15523314463916
 72
1
 10
248.0183772451369
 20
41.15523314463916
 11
246.6643368669583
 21
41.77265814329062
 72
1
 10
246.6643368669583
 20
41.77265814329062
 11
245.4714134791287
 21
42.66236189481679
 72
1
 10
245.4714134791287
 20
42.66236189481679
 11
244.4935232985592
 21
43.78413271340963
 72
1
 10
244.4935232985592
 20
43.78413271340963
 11
243.7748637478394
 21
45.08727024447472
 72
1
 10
243.7748637478394
 20
45.08727024447472
 11
228.6694268297343
 21
81.06719950817335
 72
1
 10
228.6694268297343
 20
81.06719950817335
 11
227.7952627096787
 21
83.91214562051276
 72
1
 10
227.7952627096787
 20
83.91214562051276
 11
227.4999999999786
 21
86.87368259025648
 72
1
 10
227.4999999999786
 20
86.87368259025648
 11
227.4999999999786
 21
106.4999999999801
 72
1
 10
227.4999999999786
 20
106.4999999999801
 11
227.7365757701841
 21
111.6616189658127
 72
1
 10
227.7365757701841
 20
111.6616189658127
 11
228.4010221575482
 21
116.7085903453076
 72
1
 10
228.4010221575482
 20
116.7085903453076
 11
229.4933391620708
 21
121.6409141384775
 72
1
 10
229.4933391620708
 20
121.6409141384775
 11
231.0282775559354
 21
126.4942018595742
 72
1
 10
231.0282775559354
 20
126.4942018595742
 11
232.9910865669587
 21
131.2328419943374
 72
1
 10
232.9910865669587
 20
131.2328419943374
 11
235.3375138785899
 21
135.7499999999778
 72
1
 10
235.3375138785899
 20
135.7499999999778
 11
238.0762738085704
 21
140.040644662804
 72
1
 10
238.0762738085704
 20
140.040644662804
 11
241.1986520391546
 21
144.1098071965118
 72
1
 10
241.1986520391546
 20
144.1098071965118
 11
244.6342533005682
 21
147.8657466993902
 72
1
 10
244.6342533005682
 20
147.8657466993902
 11
248.3901928034466
 21
151.3013479608038
 72
1
 10
248.3901928034466
 20
151.3013479608038
 11
252.45935533715
 21
154.4237261913879
 72
1
 10
252.45935533715
 20
154.4237261913879
 11
257.2484263333739
 21
157.4213925311188
 72
1
 10
257.2484263333739
 20
157.4213925311188
 11
261.267158005621
 21
159.5089134329997
 72
1
 10
261.267158005621
 20
159.5089134329997
 11
266.0057981403842
 21
161.4717224440229
 72
1
 10
266.0057981403842
 20
161.4717224440229
 11
270.8590858614809
 21
163.0066608378876
 72
1
 10
270.8590858614809
 20
163.0066608378876
 11
275.8296255167591
 21
164.1040090561059
 72
1
 10
275.8296255167591
 20
164.1040090561059
 11
280.9148127583709
 21
164.7734866571613
 72
1
 10
280.9148127583709
 20
164.7734866571613
 11
285.9999999999826
 21
164.9999999999798
 72
1
 10
285.9999999999826
 20
164.9999999999798
 11
291.08518724159
 21
164.7734866571613
 72
1
 10
291.08518724159
 20
164.7734866571613
 11
296.1703744832018
 21
164.1040090561059
 72
1
 10
296.1703744832018
 20
164.1040090561059
 11
301.1409141384801
 21
163.0066608378876
 72
1
 10
301.1409141384801
 20
163.0066608378876
 11
305.9942018595724
 21
161.4717224440273
 72
1
 10
305.9942018595724
 20
161.4717224440273
 11
310.7328419943399
 21
159.5089134329997
 72
1
 10
310.7328419943399
 20
159.5089134329997
 11
315.2499999999804
 21
157.1624861213684
 72
1
 10
315.2499999999804
 20
157.1624861213684
 11
319.5406446628065
 21
154.4237261913879
 72
1
 10
319.5406446628065
 20
154.4237261913879
 11
323.6098071965143
 21
151.3013479608038
 72
1
 10
323.6098071965143
 20
151.3013479608038
 11
327.3657466993928
 21
147.8657466993902
 72
1
 10
327.3657466993928
 20
147.8657466993902
 11
330.8013479608063
 21
144.1098071965118
 72
1
 10
330.8013479608063
 20
144.1098071965118
 11
333.9237261913905
 21
140.0406446628084
 72
1
 10
333.9237261913905
 20
140.0406446628084
 11
336.6624861213667
 21
135.7499999999778
 72
1
 10
336.6624861213667
 20
135.7499999999778
 11
339.0089134329979
 21
131.2328419943374
 72
1
 10
339.0089134329979
 20
131.2328419943374
 11
340.9717224440255
 21
126.4942018595742
 72
1
 10
340.9717224440255
 20
126.4942018595742
 11
342.5066608378945
 21
121.6409141384775
 72
1
 10
342.5066608378945
 20
121.6409141384775
 11
343.5989778424128
 21
116.7085903453076
 72
1
 10
343.5989778424128
 20
116.7085903453076
 11
344.2634242297768
 21
111.6616189658127
 72
1
 10
344.2634242297768
 20
111.6616189658127
 11
344.499999999978
 21
106.4999999999801
 72
1
 10
344.499999999978
 20
106.4999999999801
 11
344.499999999978
 21
86.87368259025648
 72
1
 10
344.499999999978
 20
86.87368259025648
 11
344.2047372902865
 21
83.91214562051276
 72
1
 10
344.2047372902865
 20
83.91214562051276
 11
343.3305731702223
 21
81.06719950817335
 72
1
 10
343.3305731702223
 20
81.06719950817335
 11
328.2251362521389
 21
45.08727024451371
 72
1
 10
328.2251362521389
 20
45.08727024451371
 11
327.5064767014104
 21
43.78413271343562
 72
1
 10
327.5064767014104
 20
43.78413271343562
 11
326.5285865208322
 21
42.66236189482977
 72
1
 10
326.5285865208322
 20
42.66236189482977
 11
325.335663132994
 21
41.77265814329495
 72
1
 10
325.335663132994
 20
41.77265814329495
 11
323.981622754798
 21
41.15523314463916
 72
1
 10
323.981622754798
 20
41.15523314463916
 11
315.671863496311
 21
38.72587196653449
 72
1
 10
315.671863496311
 20
38.72587196653449
 11
307.2968035609795
 21
36.90385108296031
 72
1
 10
307.2968035609795
 20
36.90385108296031
 11
298.856442948795
 21
35.68917049390797
 72
1
 10
298.856442948795
 20
35.68917049390797
 11
290.3072478751943
 21
35.0818301993818
 72
1
 10
290.3072478751943
 20
35.0818301993818
 11
281.6927521247449
 21
35.0818301993818
 97
0
 92
1
 93
61
 72
1
 10
438.6927521247439
 20
35.0818301993818
 11
430.1435570511432
 21
35.68917049390797
 72
1
 10
430.1435570511432
 20
35.68917049390797
 11
421.7031964389587
 21
36.90385108296031
 72
1
 10
421.7031964389587
 20
36.90385108296031
 11
413.3281365036229
 21
38.72587196653449
 72
1
 10
413.3281365036229
 20
38.72587196653449
 11
405.0183772451402
 21
41.15523314463916
 72
1
 10
405.0183772451402
 20
41.15523314463916
 11
403.6643368669572
 21
41.77265814329062
 72
1
 10
403.6643368669572
 20
41.77265814329062
 11
402.4714134791277
 21
42.66236189481679
 72
1
 10
402.4714134791277
 20
42.66236189481679
 11
401.4935232985581
 21
43.78413271340963
 72
1
 10
401.4935232985581
 20
43.78413271340963
 11
400.7748637478426
 21
45.08727024447472
 72
1
 10
400.7748637478426
 20
45.08727024447472
 11
385.6694268297376
 21
81.06719950817335
 72
1
 10
385.6694268297376
 20
81.06719950817335
 11
384.7952627096777
 21
83.91214562051276
 72
1
 10
384.7952627096777
 20
83.91214562051276
 11
384.4999999999819
 21
86.87368259025648
 72
1
 10
384.4999999999819
 20
86.87368259025648
 11
384.4999999999819
 21
106.4999999999801
 72
1
 10
384.4999999999819
 20
106.4999999999801
 11
384.736575770183
 21
111.6616189658127
 72
1
 10
384.736575770183
 20
111.6616189658127
 11
385.4010221575471
 21
116.7085903453076
 72
1
 10
385.4010221575471
 20
116.7085903453076
 11
386.4933391620697
 21
121.6409141384775
 72
1
 10
386.4933391620697
 20
121.6409141384775
 11
388.0282775559344
 21
126.4942018595742
 72
1
 10
388.0282775559344
 20
126.4942018595742
 11
389.991086566962
 21
131.2328419943374
 72
1
 10
389.991086566962
 20
131.2328419943374
 11
392.3375138785933
 21
135.7499999999778
 72
1
 10
392.3375138785933
 20
135.7499999999778
 11
395.0762738085694
 21
140.040644662804
 72
1
 10
395.0762738085694
 20
140.040644662804
 11
398.1986520391579
 21
144.1098071965118
 72
1
 10
398.1986520391579
 20
144.1098071965118
 11
401.6342533005671
 21
147.8657466993902
 72
1
 10
401.6342533005671
 20
147.8657466993902
 11
405.3901928034498
 21
151.3013479608038
 72
1
 10
405.3901928034498
 20
151.3013479608038
 11
409.4593553371533
 21
154.4237261913879
 72
1
 10
409.4593553371533
 20
154.4237261913879
 11
414.2484263333684
 21
157.4213925311188
 72
1
 10
414.2484263333684
 20
157.4213925311188
 11
418.2671580056199
 21
159.5089134329997
 72
1
 10
418.2671580056199
 20
159.5089134329997
 11
423.0057981403875
 21
161.4717224440229
 72
1
 10
423.0057981403875
 20
161.4717224440229
 11
427.8590858614798
 21
163.0066608378876
 72
1
 10
427.8590858614798
 20
163.0066608378876
 11
432.8296255167581
 21
164.1040090561059
 72
1
 10
432.8296255167581
 20
164.1040090561059
 11
437.9148127583698
 21
164.7734866571613
 72
1
 10
437.9148127583698
 20
164.7734866571613
 11
442.9999999999815
 21
164.9999999999755
 72
1
 10
442.9999999999815
 20
164.9999999999755
 11
448.0851872415933
 21
164.7734866571613
 72
1
 10
448.0851872415933
 20
164.7734866571613
 11
453.1703744832007
 21
164.1040090561059
 72
1
 10
453.1703744832007
 20
164.1040090561059
 11
458.140914138479
 21
163.0066608378876
 72
1
 10
458.140914138479
 20
163.0066608378876
 11
462.9942018595756
 21
161.4717224440229
 72
1
 10
462.9942018595756
 20
161.4717224440229
 11
467.7328419943389
 21
159.5089134329997
 72
1
 10
467.7328419943389
 20
159.5089134329997
 11
472.2499999999792
 21
157.1624861213684
 72
1
 10
472.2499999999792
 20
157.1624861213684
 11
476.5406446628098
 21
154.4237261913879
 72
1
 10
476.5406446628098
 20
154.4237261913879
 11
480.6098071965132
 21
151.3013479608038
 72
1
 10
480.6098071965132
 20
151.3013479608038
 11
484.3657466993916
 21
147.8657466993902
 72
1
 10
484.3657466993916
 20
147.8657466993902
 11
487.8013479608052
 21
144.1098071965118
 72
1
 10
487.8013479608052
 20
144.1098071965118
 11
490.9237261913894
 21
140.040644662804
 72
1
 10
490.9237261913894
 20
140.040644662804
 11
493.6624861213699
 21
135.7499999999778
 72
1
 10
493.6624861213699
 20
135.7499999999778
 11
496.0089134330011
 21
131.2328419943374
 72
1
 10
496.0089134330011
 20
131.2328419943374
 11
497.9717224440287
 21
126.4942018595742
 72
1
 10
497.9717224440287
 20
126.4942018595742
 11
499.506660837889
 21
121.6409141384775
 72
1
 10
499.506660837889
 20
121.6409141384775
 11
500.5989778424117
 21
116.7085903453076
 72
1
 10
500.5989778424117
 20
116.7085903453076
 11
501.2634242297758
 21
111.6616189658127
 72
1
 10
501.2634242297758
 20
111.6616189658127
 11
501.4999999999813
 21
106.4999999999801
 72
1
 10
501.4999999999813
 20
106.4999999999801
 11
501.4999999999813
 21
86.87368259025648
 72
1
 10
501.4999999999813
 20
86.87368259025648
 11
501.2047372902854
 21
83.91214562051276
 72
1
 10
501.2047372902854
 20
83.91214562051276
 11
500.3305731702255
 21
81.067199508169
 72
1
 10
500.3305731702255
 20
81.067199508169
 11
485.2251362521379
 21
45.08727024451371
 72
1
 10
485.2251362521379
 20
45.08727024451371
 11
484.5064767014136
 21
43.78413271343562
 72
1
 10
484.5064767014136
 20
43.78413271343562
 11
483.5285865208355
 21
42.66236189482977
 72
1
 10
483.5285865208355
 20
42.66236189482977
 11
482.3224138681045
 21
41.76661664889885
 72
1
 10
482.3224138681045
 20
41.76661664889885
 11
480.981622754797
 21
41.15523314463484
 72
1
 10
480.981622754797
 20
41.15523314463484
 11
472.6718634963143
 21
38.72587196653449
 72
1
 10
472.6718634963143
 20
38.72587196653449
 11
464.2968035609785
 21
36.90385108296031
 72
1
 10
464.2968035609785
 20
36.90385108296031
 11
455.8564429487939
 21
35.68917049390797
 72
1
 10
455.8564429487939
 20
35.68917049390797
 11
447.3072478751933
 21
35.0818301993818
 72
1
 10
447.3072478751933
 20
35.0818301993818
 11
438.6927521247439
 21
35.0818301993818
 97
0
 92
1
 93
61
 72
1
 10
124.6927521247416
 20
35.0818301993818
 11
116.143557051141
 21
35.68917049390797
 72
1
 10
116.143557051141
 20
35.68917049390797
 11
107.7031964389564
 21
36.90385108296031
 72
1
 10
107.7031964389564
 20
36.90385108296031
 11
99.32813650362498
 21
38.72587196653449
 72
1
 10
99.32813650362498
 20
38.72587196653449
 11
91.01837724513796
 21
41.15523314463916
 72
1
 10
91.01837724513796
 20
41.15523314463916
 11
89.66433686695503
 21
41.77265814329062
 72
1
 10
89.66433686695503
 20
41.77265814329062
 11
88.47141347912543
 21
42.66236189481679
 72
1
 10
88.47141347912543
 20
42.66236189481679
 11
87.49352329856025
 21
43.78413271341396
 72
1
 10
87.49352329856025
 20
43.78413271341396
 11
86.7748637478404
 21
45.08727024447472
 72
1
 10
86.7748637478404
 20
45.08727024447472
 11
71.66942682973537
 21
81.06719950817767
 72
1
 10
71.66942682973537
 20
81.06719950817767
 11
70.7952627096798
 21
83.91214562051276
 72
1
 10
70.7952627096798
 20
83.91214562051276
 11
70.49999999997964
 21
86.87368259026081
 72
1
 10
70.49999999997964
 20
86.87368259026081
 11
70.49999999997964
 21
106.4999999999801
 72
1
 10
70.49999999997964
 20
106.4999999999801
 11
70.73657577018514
 21
111.6616189658127
 72
1
 10
70.73657577018514
 20
111.6616189658127
 11
71.40102215754487
 21
116.7085903453076
 72
1
 10
71.40102215754487
 20
116.7085903453076
 11
72.49333916207182
 21
121.6409141384775
 72
1
 10
72.49333916207182
 20
121.6409141384775
 11
74.0282775559365
 21
126.4942018595742
 72
1
 10
74.0282775559365
 20
126.4942018595742
 11
75.99108656695974
 21
131.2328419943374
 72
1
 10
75.99108656695974
 20
131.2328419943374
 11
78.33751387859098
 21
135.7499999999778
 72
1
 10
78.33751387859098
 20
135.7499999999778
 11
81.07627380856717
 21
140.0406446628084
 72
1
 10
81.07627380856717
 20
140.0406446628084
 11
84.19865203915568
 21
144.1098071965118
 72
1
 10
84.19865203915568
 20
144.1098071965118
 11
87.6342533005649
 21
147.8657466993902
 72
1
 10
87.6342533005649
 20
147.8657466993902
 11
91.39019280344763
 21
151.3013479608038
 72
1
 10
91.39019280344763
 20
151.3013479608038
 11
95.45935533715107
 21
154.4237261913879
 72
1
 10
95.45935533715107
 20
154.4237261913879
 11
100.2484263333705
 21
157.4213925311188
 72
1
 10
100.2484263333705
 20
157.4213925311188
 11
104.267158005622
 21
159.5089134329997
 72
1
 10
104.267158005622
 20
159.5089134329997
 11
109.0057981403852
 21
161.4717224440273
 72
1
 10
109.0057981403852
 20
161.4717224440273
 11
113.8590858614819
 21
163.0066608378876
 72
1
 10
113.8590858614819
 20
163.0066608378876
 11
118.8296255167601
 21
164.1040090561102
 72
1
 10
118.8296255167601
 20
164.1040090561102
 11
123.9148127583719
 21
164.7734866571657
 72
1
 10
123.9148127583719
 20
164.7734866571657
 11
128.9999999999793
 21
164.9999999999798
 72
1
 10
128.9999999999793
 20
164.9999999999798
 11
134.0851872415911
 21
164.7734866571657
 72
1
 10
134.0851872415911
 20
164.7734866571657
 11
139.1703744831985
 21
164.1040090561102
 72
1
 10
139.1703744831985
 20
164.1040090561102
 11
144.1409141384768
 21
163.0066608378876
 72
1
 10
144.1409141384768
 20
163.0066608378876
 11
148.9942018595734
 21
161.4717224440273
 72
1
 10
148.9942018595734
 20
161.4717224440273
 11
153.7328419943366
 21
159.5089134329997
 72
1
 10
153.7328419943366
 20
159.5089134329997
 11
158.2499999999813
 21
157.1624861213684
 72
1
 10
158.2499999999813
 20
157.1624861213684
 11
162.5406446628075
 21
154.4237261913879
 72
1
 10
162.5406446628075
 20
154.4237261913879
 11
166.6098071965153
 21
151.3013479608038
 72
1
 10
166.6098071965153
 20
151.3013479608038
 11
170.3657466993937
 21
147.8657466993902
 72
1
 10
170.3657466993937
 20
147.8657466993902
 11
173.8013479608073
 21
144.1098071965118
 72
1
 10
173.8013479608073
 20
144.1098071965118
 11
176.9237261913872
 21
140.0406446628084
 72
1
 10
176.9237261913872
 20
140.0406446628084
 11
179.6624861213677
 21
135.7499999999821
 72
1
 10
179.6624861213677
 20
135.7499999999821
 11
182.0089134329989
 21
131.2328419943374
 72
1
 10
182.0089134329989
 20
131.2328419943374
 11
183.9717224440265
 21
126.4942018595742
 72
1
 10
183.9717224440265
 20
126.4942018595742
 11
185.5066608378912
 21
121.6409141384775
 72
1
 10
185.5066608378912
 20
121.6409141384775
 11
186.5989778424095
 21
116.7085903453119
 72
1
 10
186.5989778424095
 20
116.7085903453119
 11
187.2634242297735
 21
111.6616189658127
 72
1
 10
187.2634242297735
 20
111.6616189658127
 11
187.499999999979
 21
106.4999999999801
 72
1
 10
187.499999999979
 20
106.4999999999801
 11
187.499999999979
 21
86.87368259025648
 72
1
 10
187.499999999979
 20
86.87368259025648
 11
187.2047372902832
 21
83.91214562051276
 72
1
 10
187.2047372902832
 20
83.91214562051276
 11
186.3305731702233
 21
81.06719950817335
 72
1
 10
186.3305731702233
 20
81.06719950817335
 11
171.2251362521356
 21
45.08727024451803
 72
1
 10
171.2251362521356
 20
45.08727024451803
 11
170.5064767014114
 21
43.78413271343562
 72
1
 10
170.5064767014114
 20
43.78413271343562
 11
169.5285865208332
 21
42.66236189482977
 72
1
 10
169.5285865208332
 20
42.66236189482977
 11
168.3356631329906
 21
41.77265814329928
 72
1
 10
168.3356631329906
 20
41.77265814329928
 11
166.9816227547947
 21
41.15523314463916
 72
1
 10
166.9816227547947
 20
41.15523314463916
 11
158.671863496312
 21
38.72587196653449
 72
1
 10
158.671863496312
 20
38.72587196653449
 11
150.2968035609762
 21
36.90385108296031
 72
1
 10
150.2968035609762
 20
36.90385108296031
 11
141.8564429487917
 21
35.68917049390797
 72
1
 10
141.8564429487917
 20
35.68917049390797
 11
133.307247875191
 21
35.0818301993818
 72
1
 10
133.307247875191
 20
35.0818301993818
 11
124.6927521247416
 21
35.0818301993818
 97
0
 75
0
 76
2
 52
0.0
 41
1.0
 77
0
 78
20
 53
45.0
 43
12252.786
 44
11934.54
 45
-21.21320343559643
 46
21.21320343559643
 79
0
 53
50.0
 43
12252.786
 44
11934.54
 45
35.8628059355529
 46
-3.137112116082581
 79
2
 49
3.75
 49
-41.25
 53
355.0
 43
12252.786
 44
11934.54
 45
-6.93749278969262
 46
37.60975882391381
 79
2
 49
3.0
 49
-33.0
 53
100.451
 43
12255.774
 44
11934.278
 45
28.92585883244663
 46
34.4718682523209
 79
2
 49
3.186999999999999
 49
-35.057
 53
46.184
 43
12252.786
 44
11944.54
 45
53.36178341619348
 46
-8.276083351637912
 79
2
 49
5.625
 49
-61.875
 53
96.636
 43
12257.232
 44
11943.85
 45
46.73258838951883
 46
48.70578946507088
 79
2
 49
4.781
 49
-52.58600000000001
 53
351.184
 43
12252.786
 44
11944.54
 45
46.73289898260853
 46
48.70606386972063
 79
2
 49
4.5
 49
-49.5
 53
21.0
 43
12257.786
 44
11942.04
 45
29.84541469088208
 46
-20.13041340681508
 79
2
 49
3.75
 49
-41.25
 53
326.0
 43
12257.786
 44
11942.04
 45
12.16590498097535
 46
36.25759949298738
 79
2
 49
3.0
 49
-33.0
 53
71.45100000000001
 43
12260.273
 44
11940.362
 45
42.01141953737944
 46
16.12624067953512
 79
2
 49
3.186999999999999
 49
-35.057
 53
37.5
 43
12252.786
 44
11934.54
 45
0.6079927658645313
 46
16.64469269156557
 79
5
 49
0.16764
 49
-32.432
 49
0.16764
 49
-33.332
 49
-33.125
 53
37.5
 43
12252.786
 44
11934.54
 45
0.6079927658645313
 46
16.64469269156557
 79
3
 49
-66.1
 49
0.16764
 49
-32.957
 53
7.499999999999999
 43
12252.786
 44
11934.54
 45
13.15347687210743
 46
19.72058559411801
 79
5
 49
0.16764
 49
-18.932
 49
0.16764
 49
-31.682
 49
-12.625
 53
7.499999999999999
 43
12252.786
 44
11934.54
 45
13.15347687210743
 46
19.72058559411801
 79
3
 49
-50.95
 49
0.16764
 49
-12.457
 53
327.5
 43
12241.636
 44
11934.54
 45
26.69112180862045
 46
-1.127743586718983
 79
5
 49
0.16764
 49
-12.332
 49
0.16764
 49
-38.832
 49
-51.75
 53
327.5
 43
12241.636
 44
11934.54
 45
26.69112180862045
 46
-1.127743586718983
 79
3
 49
-51.5
 49
0.16764
 49
-51.582
 53
317.5
 43
12236.636
 44
11934.54
 45
29.15930846711931
 46
5.005249116615885
 79
5
 49
0.16764
 49
-16.082
 49
0.16764
 49
-25.732
 49
-36.75
 53
317.5
 43
12236.636
 44
11934.54
 45
29.15930846711931
 46
5.005249116615885
 79
3
 49
-42.14999999999999
 49
0.16764
 49
-36.582
 53
317.5
 43
12236.636
 44
11934.54
 45
29.15930846711931
 46
5.005249116615885
 79
5
 49
0.16764
 49
-16.082
 49
0.16764
 49
-25.732
 49
-36.75
 53
317.5
 43
12236.636
 44
11934.54
 45
29.15930846711931
 46
5.005249116615885
 79
3
 49
-42.14999999999999
 49
0.16764
 49
-36.582
 98
1
 10
0.0
 20
0.0
  0
LINE
  5
33
330
2F
100
AcDbEntity
  8
A-DETL-GENF
370
25
100
AcDbLine
 10
1174.999999999998
 20
199.9999999999938
 30
0.0
 11
24.99999999999932
 21
199.9999999999975
 31
0.0
  0
LINE
  5
34
330
2F
100
AcDbEntity
  8
A-DETL-GENF
370
25
100
AcDbLine
 10
24.99999999999919
 20
199.9999999999975
 30
0.0
 11
24.99999999999919
 21
159.999999999998
 31
0.0
  0
LINE
  5
35
330
2F
100
AcDbEntity
  8
A-DETL-GENF
370
25
100
AcDbLine
 10
24.99999999999919
 20
159.999999999998
 30
0.0
 11
35.60660171779757
 21
149.3933982821996
 31
0.0
  0
LINE
  5
36
330
2F
100
AcDbEntity
  8
A-DETL-GENF
370
25
100
AcDbLine
 10
35.60660171779757
 20
149.3933982821996
 30
0.0
 11
30.65685424949276
 21
114.7451660040618
 31
0.0
  0
LINE
  5
37
330
2F
100
AcDbEntity
  8
A-DETL-GENF
370
25
100
AcDbLine
 10
30.65685424949276
 20
114.7451660040618
 30
0.0
 11
16.51471862575951
 21
100.6030303803286
 31
0.0
  0
LINE
  5
38
330
2F
100
AcDbEntity
  8
A-DETL-GENF
370
25
100
AcDbLine
 10
16.51471862575951
 20
100.6030303803286
 30
0.0
 11
4.999999999999404
 21
19.99999999999782
 31
0.0
  0
LINE
  5
39
330
2F
100
AcDbEntity
  8
A-DETL-GENF
370
25
100
AcDbLine
 10
4.999999999999404
 20
19.99999999999782
 30
0.0
 11
8.122e-13
 21
19.99999999999782
 31
0.0
  0
LINE
  5
3A
330
2F
100
AcDbEntity
  8
A-DETL-GENF
370
25
100
AcDbLine
 10
8.122e-13
 20
19.99999999999782
 30
0.0
 11
8.122e-13
 21
9.999999999999824
 31
0.0
  0
LINE
  5
3B
330
2F
100
AcDbEntity
  8
A-DETL-GENF
370
25
100
AcDbLine
 10
8.122e-13
 20
9.999999999999824
 30
0.0
 11
9.999999999998675
 21
1.895e-12
 31
0.0
  0
LINE
  5
3C
330
2F
100
AcDbEntity
  8
A-DETL-GENF
370
25
100
AcDbLine
 10
9.99999999999881
 20
1.8273e-12
 30
0.0
 11
1189.999999999998
 21
-1.9627e-12
 31
0.0
  0
LINE
  5
3D
330
2F
100
AcDbEntity
  8
A-DETL-GENF
370
25
100
AcDbLine
 10
1189.999999999998
 20
-1.9627e-12
 30
0.0
 11
1199.999999999999
 21
9.99999999999847
 31
0.0
  0
LINE
  5
3E
330
2F
100
AcDbEntity
  8
A-DETL-GENF
370
25
100
AcDbLine
 10
1199.999999999999
 20
9.99999999999847
 30
0.0
 11
1199.999999999999
 21
19.99999999999782
 31
0.0
  0
LINE
  5
3F
330
2F
100
AcDbEntity
  8
A-DETL-GENF
370
25
100
AcDbLine
 10
1199.999999999999
 20
19.99999999999782
 30
0.0
 11
1194.999999999998
 21
19.99999999999782
 31
0.0
  0
LINE
  5
40
330
2F
100
AcDbEntity
  8
A-DETL-GENF
370
25
100
AcDbLine
 10
1194.999999999998
 20
19.99999999999782
 30
0.0
 11
1183.485281374236
 21
100.6030303803286
 31
0.0
  0
LINE
  5
41
330
2F
100
AcDbEntity
  8
A-DETL-GENF
370
25
100
AcDbLine
 10
1183.485281374236
 20
100.6030303803286
 30
0.0
 11
1169.343145750506
 21
114.7451660040589
 31
0.0
  0
LINE
  5
42
330
2F
100
AcDbEntity
  8
A-DETL-GENF
370
25
100
AcDbLine
 10
1169.343145750506
 20
114.7451660040589
 30
0.0
 11
1164.3933982822
 21
149.3933982821996
 31
0.0
  0
LINE
  5
43
330
2F
100
AcDbEntity
  8
A-DETL-GENF
370
25
100
AcDbLine
 10
1164.3933982822
 20
149.3933982821996
 30
0.0
 11
1174.999999999998
 21
159.9999999999979
 31
0.0
  0
LINE
  5
44
330
2F
100
AcDbEntity
  8
A-DETL-GENF
370
25
100
AcDbLine
 10
1174.999999999998
 20
159.9999999999979
 30
0.0
 11
1174.999999999998
 21
199.9999999999938
 31
0.0
  0
ARC
  5
45
330
2F
100
AcDbEntity
  8
A-DETL-GENF
370
25
100
AcDbCircle
 10
128.9999999999994
 20
106.4999999999978
 30
0.0
 40
58.50000000000012
100
AcDbArc
 50
3.499e-13
 51
180.0000000000003
  0
LINE
  5
46
330
2F
100
AcDbEntity
  8
A-DETL-GENF
370
25
100
AcDbLine
 10
187.4999999999993
 20
106.4999999999981
 30
0.0
 11
187.4999999999993
 21
86.87368259027627
 31
0.0
  0
ARC
  5
47
330
2F
100
AcDbEntity
  8
A-DETL-GENF
370
25
100
AcDbCircle
 10
172.5000000000068
 20
86.87368259027548
 30
0.0
 40
14.99999999999257
100
AcDbArc
 50
337.2258972323228
 51
3.0915e-12
  0
LINE
  5
48
330
2F
100
AcDbEntity
  8
A-DETL-GENF
370
25
100
AcDbLine
 10
186.3305731702425
 20
81.06719950819112
 30
0.0
 11
171.2251362521558
 21
45.08727024453435
 31
0.0
  0
ARC
  5
49
330
2F
100
AcDbEntity
  8
A-DETL-GENF
370
25
100
AcDbCircle
 10
164.7708687727111
 20
47.796962349507
 30
0.0
 40
6.999999999997695
100
AcDbArc
 50
288.4104441538001
 51
337.2258972323272
  0
ARC
  5
4A
330
2F
100
AcDbEntity
  8
A-DETL-GENF
370
25
100
AcDbCircle
 10
128.9999999999881
 20
155.2627526336134
 30
0.0
 40
120.2627526336101
100
AcDbArc
 50
251.5895558461984
 51
288.4104441537994
  0
ARC
  5
4B
330
2F
100
AcDbEntity
  8
A-DETL-GENF
370
25
100
AcDbCircle
 10
93.22913122724007
 20
47.79696234944138
 30
0.0
 40
6.999999999927508
100
AcDbArc
 50
202.7741027676734
 51
251.5895558461982
  0
LINE
  5
4C
330
2F
100
AcDbEntity
  8
A-DETL-GENF
370
25
100
AcDbLine
 10
86.7748637478603
 20
45.08727024449577
 30
0.0
 11
71.66942682975554
 21
81.06719950819401
 31
0.0
  0
ARC
  5
4D
330
2F
100
AcDbEntity
  8
A-DETL-GENF
370
25
100
AcDbCircle
 10
85.4999999999918
 20
86.8736825902774
 30
0.0
 40
14.99999999999264
100
AcDbArc
 50
180.0000000000005
 51
202.7741027676724
  0
LINE
  5
4E
330
2F
100
AcDbEntity
  8
A-DETL-GENF
370
25
100
AcDbLine
 10
70.49999999999913
 20
86.87368259027718
 30
0.0
 11
70.49999999999913
 21
106.4999999999976
 31
0.0
  0
ARC
  5
4F
330
2F
100
AcDbEntity
  8
A-DETL-GENF
370
25
100
AcDbCircle
 10
285.9999999999994
 20
106.4999999999973
 30
0.0
 40
58.50000000000013
100
AcDbArc
 50
4.453e-13
 51
180.0000000000003
  0
LINE
  5
50
330
2F
100
AcDbEntity
  8
A-DETL-GENF
370
25
100
AcDbLine
 10
344.4999999999995
 20
106.4999999999976
 30
0.0
 11
344.4999999999995
 21
86.87368259027582
 31
0.0
  0
ARC
  5
51
330
2F
100
AcDbEntity
  8
A-DETL-GENF
370
25
100
AcDbCircle
 10
329.4999999999999
 20
86.87368259027639
 30
0.0
 40
14.99999999999947
100
AcDbArc
 50
337.2258972323281
 51
359.9999999999976
  0
LINE
  5
52
330
2F
100
AcDbEntity
  8
A-DETL-GENF
370
25
100
AcDbLine
 10
343.3305731702426
 20
81.06719950819064
 30
0.0
 11
328.2251362521559
 21
45.08727024453384
 31
0.0
  0
ARC
  5
53
330
2F
100
AcDbEntity
  8
A-DETL-GENF
370
25
100
AcDbCircle
 10
321.7708687727112
 20
47.79696234950652
 30
0.0
 40
6.999999999997695
100
AcDbArc
 50
288.4104441537999
 51
337.2258972323272
  0
ARC
  5
54
330
2F
100
AcDbEntity
  8
A-DETL-GENF
370
25
100
AcDbCircle
 10
285.9999999999882
 20
155.2627526336127
 30
0.0
 40
120.2627526336099
100
AcDbArc
 50
251.5895558461984
 51
288.4104441537994
  0
ARC
  5
55
330
2F
100
AcDbEntity
  8
A-DETL-GENF
370
25
100
AcDbCircle
 10
250.2291312272407
 20
47.79696234944156
 30
0.0
 40
6.999999999928335
100
AcDbArc
 50
202.7741027676764
 51
251.5895558461955
  0
LINE
  5
56
330
2F
100
AcDbEntity
  8
A-DETL-GENF
370
25
100
AcDbLine
 10
243.7748637478602
 20
45.08727024449529
 30
0.0
 11
228.6694268297556
 21
81.06719950819357
 31
0.0
  0
ARC
  5
57
330
2F
100
AcDbEntity
  8
A-DETL-GENF
370
25
100
AcDbCircle
 10
242.4999999999852
 20
86.87368259027564
 30
0.0
 40
14.99999999998598
100
AcDbArc
 50
179.9999999999958
 51
202.7741027676776
  0
LINE
  5
58
330
2F
100
AcDbEntity
  8
A-DETL-GENF
370
25
100
AcDbLine
 10
227.4999999999992
 20
86.87368259027672
 30
0.0
 11
227.4999999999992
 21
106.4999999999971
 31
0.0
  0
ARC
  5
59
330
2F
100
AcDbEntity
  8
A-DETL-GENF
370
25
100
AcDbCircle
 10
442.9999999999993
 20
106.4999999999968
 30
0.0
 40
58.50000000000012
100
AcDbArc
 50
4.58e-13
 51
180.0
  0
LINE
  5
5A
330
2F
100
AcDbEntity
  8
A-DETL-GENF
370
25
100
AcDbLine
 10
501.4999999999997
 20
106.4999999999971
 30
0.0
 11
501.4999999999997
 21
86.87368259027527
 31
0.0
  0
ARC
  5
5B
330
2F
100
AcDbEntity
  8
A-DETL-GENF
370
25
100
AcDbCircle
 10
486.5
 20
86.87368259027583
 30
0.0
 40
14.9999999999995
100
AcDbArc
 50
337.2258972323281
 51
359.9999999999975
  0
LINE
  5
5C
330
2F
100
AcDbEntity
  8
A-DETL-GENF
370
25
100
AcDbLine
 10
500.3305731702425
 20
81.06719950819011
 30
0.0
 11
485.2251362521558
 21
45.08727024453333
 31
0.0
  0
ARC
  5
5D
330
2F
100
AcDbEntity
  8
A-DETL-GENF
370
25
100
AcDbCircle
 10
478.7708687727111
 20
47.79696234950642
 30
0.0
 40
6.999999999998186
100
AcDbArc
 50
288.4104441538
 51
337.2258972323248
  0
ARC
  5
5E
330
2F
100
AcDbEntity
  8
A-DETL-GENF
370
25
100
AcDbCircle
 10
442.9999999999882
 20
155.2627526336122
 30
0.0
 40
120.26275263361
100
AcDbArc
 50
251.5895558461984
 51
288.4104441537994
  0
ARC
  5
5F
330
2F
100
AcDbEntity
  8
A-DETL-GENF
370
25
100
AcDbCircle
 10
407.2291312272406
 20
47.79696234944102
 30
0.0
 40
6.999999999928272
100
AcDbArc
 50
202.7741027676762
 51
251.5895558461957
  0
LINE
  5
60
330
2F
100
AcDbEntity
  8
A-DETL-GENF
370
25
100
AcDbLine
 10
400.7748637478602
 20
45.08727024449476
 30
0.0
 11
385.6694268297557
 21
81.06719950819301
 31
0.0
  0
ARC
  5
61
330
2F
100
AcDbEntity
  8
A-DETL-GENF
370
25
100
AcDbCircle
 10
399.4999999999921
 20
86.87368259027646
 30
0.0
 40
14.99999999999293
100
AcDbArc
 50
180.0000000000004
 51
202.7741027676722
  0
LINE
  5
62
330
2F
100
AcDbEntity
  8
A-DETL-GENF
370
25
100
AcDbLine
 10
384.4999999999992
 20
86.87368259027618
 30
0.0
 11
384.4999999999992
 21
106.4999999999965
 31
0.0
  0
ARC
  5
63
330
2F
100
AcDbEntity
  8
A-DETL-GENF
370
25
100
AcDbCircle
 10
599.9999999999994
 20
106.4999999999963
 30
0.0
 40
58.50000000000006
100
AcDbArc
 50
4.771e-13
 51
180.0
  0
LINE
  5
64
330
2F
100
AcDbEntity
  8
A-DETL-GENF
370
25
100
AcDbLine
 10
658.4999999999994
 20
106.4999999999966
 30
0.0
 11
658.4999999999994
 21
86.87368259027477
 31
0.0
  0
ARC
  5
65
330
2F
100
AcDbEntity
  8
A-DETL-GENF
370
25
100
AcDbCircle
 10
643.5000000000067
 20
86.87368259027402
 30
0.0
 40
14.99999999999267
100
AcDbArc
 50
337.2258972323229
 51
3.0661e-12
  0
LINE
  5
66
330
2F
100
AcDbEntity
  8
A-DETL-GENF
370
25
100
AcDbLine
 10
657.3305731702427
 20
81.06719950818959
 30
0.0
 11
642.225136252156
 21
45.08727024453279
 31
0.0
  0
ARC
  5
67
330
2F
100
AcDbEntity
  8
A-DETL-GENF
370
25
100
AcDbCircle
 10
635.7708687727114
 20
47.79696234950528
 30
0.0
 40
6.999999999997292
100
AcDbArc
 50
288.4104441537985
 51
337.225897232328
  0
ARC
  5
68
330
2F
100
AcDbEntity
  8
A-DETL-GENF
370
25
100
AcDbCircle
 10
599.9999999999882
 20
155.2627526336113
 30
0.0
 40
120.2627526336096
100
AcDbArc
 50
251.5895558461983
 51
288.4104441537993
  0
ARC
  5
69
330
2F
100
AcDbEntity
  8
A-DETL-GENF
370
25
100
AcDbCircle
 10
564.2291312272407
 20
47.79696234944055
 30
0.0
 40
6.9999999999282
100
AcDbArc
 50
202.7741027676762
 51
251.5895558461959
  0
LINE
  5
6A
330
2F
100
AcDbEntity
  8
A-DETL-GENF
370
25
100
AcDbLine
 10
557.7748637478602
 20
45.08727024449428
 30
0.0
 11
542.6694268297556
 21
81.06719950819254
 31
0.0
  0
ARC
  5
6B
330
2F
100
AcDbEntity
  8
A-DETL-GENF
370
25
100
AcDbCircle
 10
556.4999999999886
 20
86.87368259027497
 30
0.0
 40
14.99999999998942
100
AcDbArc
 50
179.9999999999969
 51
202.7741027676735
  0
LINE
  5
6C
330
2F
100
AcDbEntity
  8
A-DETL-GENF
370
25
100
AcDbLine
 10
541.4999999999992
 20
86.8736825902757
 30
0.0
 11
541.4999999999992
 21
106.4999999999961
 31
0.0
  0
ARC
  5
6D
330
2F
100
AcDbEntity
  8
A-DETL-GENF
370
25
100
AcDbCircle
 10
756.9999999999995
 20
106.4999999999959
 30
0.0
 40
58.50000000000005
100
AcDbArc
 50
3.499e-13
 51
180.0
  0
LINE
  5
6E
330
2F
100
AcDbEntity
  8
A-DETL-GENF
370
25
100
AcDbLine
 10
815.4999999999995
 20
106.4999999999961
 30
0.0
 11
815.4999999999995
 21
86.87368259027431
 31
0.0
  0
ARC
  5
6F
330
2F
100
AcDbEntity
  8
A-DETL-GENF
370
25
100
AcDbCircle
 10
800.5000000000066
 20
86.87368259027355
 30
0.0
 40
14.99999999999261
100
AcDbArc
 50
337.2258972323233
 51
3.0398e-12
  0
LINE
  5
70
330
2F
100
AcDbEntity
  8
A-DETL-GENF
370
25
100
AcDbLine
 10
814.3305731702426
 20
81.0671995081891
 30
0.0
 11
799.225136252156
 21
45.08727024453231
 31
0.0
  0
ARC
  5
71
330
2F
100
AcDbEntity
  8
A-DETL-GENF
370
25
100
AcDbCircle
 10
792.770868772711
 20
47.79696234950523
 30
0.0
 40
6.999999999997887
100
AcDbArc
 50
288.4104441537989
 51
337.2258972323261
  0
ARC
  5
72
330
2F
100
AcDbEntity
  8
A-DETL-GENF
370
25
100
AcDbCircle
 10
756.9999999999882
 20
155.2627526336104
 30
0.0
 40
120.2627526336092
100
AcDbArc
 50
251.5895558461983
 51
288.4104441537996
  0
ARC
  5
73
330
2F
100
AcDbEntity
  8
A-DETL-GENF
370
25
100
AcDbCircle
 10
721.2291312272403
 20
47.79696234943965
 30
0.0
 40
6.999999999927733
100
AcDbArc
 50
202.7741027676749
 51
251.5895558461986
  0
LINE
  5
74
330
2F
100
AcDbEntity
  8
A-DETL-GENF
370
25
100
AcDbLine
 10
714.7748637478604
 20
45.08727024449387
 30
0.0
 11
699.6694268297558
 21
81.06719950819208
 31
0.0
  0
ARC
  5
75
330
2F
100
AcDbEntity
  8
A-DETL-GENF
370
25
100
AcDbCircle
 10
713.4999999999924
 20
86.87368259027554
 30
0.0
 40
14.9999999999931
100
AcDbArc
 50
180.0000000000006
 51
202.7741027676722
  0
LINE
  5
76
330
2F
100
AcDbEntity
  8
A-DETL-GENF
370
25
100
AcDbLine
 10
698.4999999999993
 20
86.87368259027522
 30
0.0
 11
698.4999999999993
 21
106.4999999999956
 31
0.0
  0
ARC
  5
77
330
2F
100
AcDbEntity
  8
A-DETL-GENF
370
25
100
AcDbCircle
 10
913.9999999999995
 20
106.4999999999953
 30
0.0
 40
58.50000000000005
100
AcDbArc
 50
3.499e-13
 51
180.0
  0
LINE
  5
78
330
2F
100
AcDbEntity
  8
A-DETL-GENF
370
25
100
AcDbLine
 10
972.4999999999995
 20
106.4999999999956
 30
0.0
 11
972.4999999999995
 21
86.87368259027377
 31
0.0
  0
ARC
  5
79
330
2F
100
AcDbEntity
  8
A-DETL-GENF
370
25
100
AcDbCircle
 10
957.500000000007
 20
86.873682590273
 30
0.0
 40
14.99999999999267
100
AcDbArc
 50
337.2258972323228
 51
3.0661e-12
  0
LINE
  5
7A
330
2F
100
AcDbEntity
  8
A-DETL-GENF
370
25
100
AcDbLine
 10
971.3305731702426
 20
81.06719950818858
 30
0.0
 11
956.225136252156
 21
45.08727024453178
 31
0.0
  0
ARC
  5
7B
330
2F
100
AcDbEntity
  8
A-DETL-GENF
370
25
100
AcDbCircle
 10
949.770868772711
 20
47.7969623495047
 30
0.0
 40
6.999999999997887
100
AcDbArc
 50
288.4104441537998
 51
337.2258972323261
  0
ARC
  5
7C
330
2F
100
AcDbEntity
  8
A-DETL-GENF
370
25
100
AcDbCircle
 10
913.9999999999881
 20
155.2627526336099
 30
0.0
 40
120.2627526336091
100
AcDbArc
 50
251.5895558461984
 51
288.4104441537996
  0
ARC
  5
7D
330
2F
100
AcDbEntity
  8
A-DETL-GENF
370
25
100
AcDbCircle
 10
878.2291312272401
 20
47.79696234943913
 30
0.0
 40
6.999999999927696
100
AcDbArc
 50
202.7741027676746
 51
251.5895558461994
  0
LINE
  5
7E
330
2F
100
AcDbEntity
  8
A-DETL-GENF
370
25
100
AcDbLine
 10
871.7748637478605
 20
45.08727024449334
 30
0.0
 11
856.669426829756
 21
81.06719950819154
 31
0.0
  0
ARC
  5
7F
330
2F
100
AcDbEntity
  8
A-DETL-GENF
370
25
100
AcDbCircle
 10
870.4999999999923
 20
86.873682590275
 30
0.0
 40
14.9999999999931
100
AcDbArc
 50
180.0000000000006
 51
202.7741027676722
  0
LINE
  5
80
330
2F
100
AcDbEntity
  8
A-DETL-GENF
370
25
100
AcDbLine
 10
855.4999999999992
 20
86.87368259027468
 30
0.0
 11
855.4999999999992
 21
106.4999999999951
 31
0.0
  0
ARC
  5
81
330
2F
100
AcDbEntity
  8
A-DETL-GENF
370
25
100
AcDbCircle
 10
1070.999999999999
 20
106.4999999999949
 30
0.0
 40
58.50000000000009
100
AcDbArc
 50
2.799e-13
 51
180.0
  0
LINE
  5
82
330
2F
100
AcDbEntity
  8
A-DETL-GENF
370
25
100
AcDbLine
 10
1129.499999999999
 20
106.4999999999951
 30
0.0
 11
1129.499999999999
 21
86.8736825902733
 31
0.0
  0
ARC
  5
83
330
2F
100
AcDbEntity
  8
A-DETL-GENF
370
25
100
AcDbCircle
 10
1114.500000000007
 20
86.87368259027252
 30
0.0
 40
14.99999999999267
100
AcDbArc
 50
337.2258972323231
 51
3.2823e-12
  0
LINE
  5
84
330
2F
100
AcDbEntity
  8
A-DETL-GENF
370
25
100
AcDbLine
 10
1128.330573170243
 20
81.0671995081881
 30
0.0
 11
1113.225136252156
 21
45.0872702445313
 31
0.0
  0
ARC
  5
85
330
2F
100
AcDbEntity
  8
A-DETL-GENF
370
25
100
AcDbCircle
 10
1106.770868772711
 20
47.79696234950376
 30
0.0
 40
6.999999999997292
100
AcDbArc
 50
288.4104441537985
 51
337.2258972323282
  0
ARC
  5
86
330
2F
100
AcDbEntity
  8
A-DETL-GENF
370
25
100
AcDbCircle
 10
1070.999999999989
 20
155.2627526336095
 30
0.0
 40
120.2627526336094
100
AcDbArc
 50
251.5895558461982
 51
288.4104441537992
  0
ARC
  5
87
330
2F
100
AcDbEntity
  8
A-DETL-GENF
370
25
100
AcDbCircle
 10
1035.22913122724
 20
47.7969623494384
 30
0.0
 40
6.999999999927481
100
AcDbArc
 50
202.7741027676731
 51
251.5895558461989
  0
LINE
  5
88
330
2F
100
AcDbEntity
  8
A-DETL-GENF
370
25
100
AcDbLine
 10
1028.77486374786
 20
45.08727024449286
 30
0.0
 11
1013.669426829756
 21
81.06719950819107
 31
0.0
  0
ARC
  5
89
330
2F
100
AcDbEntity
  8
A-DETL-GENF
370
25
100
AcDbCircle
 10
1027.499999999992
 20
86.87368259027451
 30
0.0
 40
14.9999999999931
100
AcDbArc
 50
180.0000000000005
 51
202.7741027676722
  0
LINE
  5
8A
330
2F
100
AcDbEntity
  8
A-DETL-GENF
370
25
100
AcDbLine
 10
1012.499999999999
 20
86.87368259027421
 30
0.0
 11
1012.499999999999
 21
106.4999999999946
 31
0.0
  0
ENDBLK
  5
31
330
2F
100
AcDbEntity
  8
0
100
AcDbBlockEnd
  0
ENDSEC
  0
SECTION
  2
ENTITIES
  0
INSERT
  5
8C
330
17
100
AcDbEntity
  8
0
100
AcDbBlockReference
  2
23 kanaalplaat_200 - std-3345092-00_0 Basismaterialen
 10
0.0
 20
0.0
 30
0.0
  0
ENDSEC
  0
SECTION
  2
OBJECTS
  0
DICTIONARY
  5
A
330
0
100
AcDbDictionary
281
1
  3
ACAD_COLOR
350
B
  3
ACAD_GROUP
350
C
  3
ACAD_LAYOUT
350
D
  3
ACAD_MATERIAL
350
E
  3
ACAD_MLEADERSTYLE
350
F
  3
ACAD_MLINESTYLE
350
10
  3
ACAD_PLOTSETTINGS
350
11
  3
ACAD_PLOTSTYLENAME
350
12
  3
ACAD_SCALELIST
350
14
  3
ACAD_TABLESTYLE
350
15
  3
ACAD_VISUALSTYLE
350
16
  3
EZDXF_META
350
2D
  0
DICTIONARY
  5
B
330
A
100
AcDbDictionary
281
1
  0
DICTIONARY
  5
C
330
A
100
AcDbDictionary
281
1
  0
DICTIONARY
  5
D
330
A
100
AcDbDictionary
281
1
  3
Model
350
1A
  3
Layout1
350
1E
  0
DICTIONARY
  5
E
330
A
100
AcDbDictionary
281
1
  3
ByBlock
350
1F
  3
ByLayer
350
20
  3
Global
350
21
  0
DICTIONARY
  5
F
330
A
100
AcDbDictionary
281
1
  3
Standard
350
2C
  0
DICTIONARY
  5
10
330
A
100
AcDbDictionary
281
1
  3
Standard
350
22
  0
DICTIONARY
  5
11
330
A
100
AcDbDictionary
281
1
  0
ACDBDICTIONARYWDFLT
  5
12
330
A
100
AcDbDictionary
281
1
  3
Normal
350
13
100
AcDbDictionaryWithDefault
340
13
  0
ACDBPLACEHOLDER
  5
13
330
12
  0
DICTIONARY
  5
14
330
A
100
AcDbDictionary
281
1
  0
DICTIONARY
  5
15
330
A
100
AcDbDictionary
281
1
  0
DICTIONARY
  5
16
330
A
100
AcDbDictionary
281
1
  0
LAYOUT
  5
1A
330
D
100
AcDbPlotSettings
  1

  4
A3
  6

 40
7.5
 41
20.0
 42
7.5
 43
20.0
 44
420.0
 45
297.0
 46
0.0
 47
0.0
 48
0.0
 49
0.0
140
0.0
141
0.0
142
1.0
143
1.0
 70
1024
 72
1
 73
0
 74
5
  7

 75
16
 76
0
 77
2
 78
300
147
1.0
148
0.0
149
0.0
100
AcDbLayout
  1
Model
 70
1
 71
0
 10
0.0
 20
0.0
 11
420.0
 21
297.0
 12
0.0
 22
0.0
 32
0.0
 14
1e+20
 24
1e+20
 34
1e+20
 15
-1e+20
 25
-1e+20
 35
-1e+20
146
0.0
 13
0.0
 23
0.0
 33
0.0
 16
1.0
 26
0.0
 36
0.0
 17
0.0
 27
1.0
 37
0.0
 76
1
330
17
  0
LAYOUT
  5
1E
330
D
100
AcDbPlotSettings
  1

  4
A3
  6

 40
7.5
 41
20.0
 42
7.5
 43
20.0
 44
420.0
 45
297.0
 46
0.0
 47
0.0
 48
0.0
 49
0.0
140
0.0
141
0.0
142
1.0
143
1.0
 70
0
 72
1
 73
0
 74
5
  7

 75
16
 76
0
 77
2
 78
300
147
1.0
148
0.0
149
0.0
100
AcDbLayout
  1
Layout1
 70
1
 71
1
 10
0.0
 20
0.0
 11
420.0
 21
297.0
 12
0.0
 22
0.0
 32
0.0
 14
1e+20
 24
1e+20
 34
1e+20
 15
-1e+20
 25
-1e+20
 35
-1e+20
146
0.0
 13
0.0
 23
0.0
 33
0.0
 16
1.0
 26
0.0
 36
0.0
 17
0.0
 27
1.0
 37
0.0
 76
1
330
1B
  0
MATERIAL
  5
1F
102
{ACAD_REACTORS
330
E
102
}
330
E
100
AcDbMaterial
  1
ByBlock
  2

 70
0
 40
1.0
 71
1
 41
1.0
 91
-1023410177
 42
1.0
 72
1
  3

 73
1
 74
1
 75
1
 44
0.5
 73
0
 45
1.0
 46
1.0
 77
1
  4

 78
1
 79
1
170
1
 48
1.0
171
1
  6

172
1
173
1
174
1
140
1.0
141
1.0
175
1
  7

176
1
177
1
178
1
143
1.0
179
1
  8

270
1
271
1
272
1
145
1.0
146
1.0
273
1
  9

274
1
275
1
276
1
 42
1.0
 72
1
  3

 73
1
 74
1
 75
1
 94
63
  0
MATERIAL
  5
20
102
{ACAD_REACTORS
330
E
102
}
330
E
100
AcDbMaterial
  1
ByLayer
  2

 70
0
 40
1.0
 71
1
 41
1.0
 91
-1023410177
 42
1.0
 72
1
  3

 73
1
 74
1
 75
1
 44
0.5
 73
0
 45
1.0
 46
1.0
 77
1
  4

 78
1
 79
1
170
1
 48
1.0
171
1
  6

172
1
173
1
174
1
140
1.0
141
1.0
175
1
  7

176
1
177
1
178
1
143
1.0
179
1
  8

270
1
271
1
272
1
145
1.0
146
1.0
273
1
  9

274
1
275
1
276
1
 42
1.0
 72
1
  3

 73
1
 74
1
 75
1
 94
63
  0
MATERIAL
  5
21
102
{ACAD_REACTORS
330
E
102
}
330
E
100
AcDbMaterial
  1
Global
  2

 70
0
 40
1.0
 71
1
 41
1.0
 91
-1023410177
 42
1.0
 72
1
  3

 73
1
 74
1
 75
1
 44
0.5
 73
0
 45
1.0
 46
1.0
 77
1
  4

 78
1
 79
1
170
1
 48
1.0
171
1
  6

172
1
173
1
174
1
140
1.0
141
1.0
175
1
  7

176
1
177
1
178
1
143
1.0
179
1
  8

270
1
271
1
272
1
145
1.0
146
1.0
273
1
  9

274
1
275
1
276
1
 42
1.0
 72
1
  3

 73
1
 74
1
 75
1
 94
63
  0
MLINESTYLE
  5
22
102
{ACAD_REACTORS
330
10
102
}
330
10
100
AcDbMlineStyle
  2
Standard
 70
0
  3

 62
256
 51
90.0
 52
90.0
 71
2
 49
0.5
 62
256
  6
BYLAYER
 49
-0.5
 62
256
  6
BYLAYER
  0
MLEADERSTYLE
  5
2C
102
{ACAD_REACTORS
330
F
102
}
330
F
100
AcDbMLeaderStyle
179
2
170
2
171
1
172
0
 90
2
 40
0.0
 41
0.0
173
1
 91
-1056964608
 92
-2
290
1
 42
2.0
291
1
 43
8.0
  3
Standard
 44
4.0
300

342
29
174
1
175
1
176
0
178
1
 93
-1056964608
 45
4.0
292
0
297
0
 46
4.0
 94
-1056964608
 47
1.0
 49
1.0
140
1.0
294
1
141
0.0
177
0
142
1.0
295
0
296
0
143
3.75
271
0
272
9
273
9
  0
DICTIONARY
  5
2D
330
A
100
AcDbDictionary
280
1
281
1
  3
CREATED_BY_EZDXF
350
2E
  3
WRITTEN_BY_EZDXF
350
90
  0
DICTIONARYVAR
  5
2E
330
2D
100
DictionaryVariables
280
0
  1
1.4.3 @ 2026-02-13T04:54:07.631208+00:00
  0
DICTIONARYVAR
  5
90
330
2D
100
DictionaryVariables
280
0
  1
1.4.3 @ 2026-02-13T04:54:07.638795+00:00
  0
ENDSEC
  0
EOF
