0
SECTION
2
HEADER
9
$EXTMIN
10
 0
20
 100
30
0.0
9
$EXTMAX
10
 0
20
 100
30
0.0
9
$LIMMIN
10
 100
20
 0
9
$LIMMAX
10
 0
20
 100
9
$PSLTSCALE
70
1
0
ENDSEC
0
SECTION
2
TABLES
0
TABLE
2
LAYER
70
2
0
LAYER
2
0
70
0
62
7
6
CONTINUOUS
0
LAYER
2
Halfen
70
0
62
7
6
CONTINUOUS
0
ENDTAB
0
ENDSEC
0
SECTION
2
ENTITIES
0
POLYLINE
8
Halfen
62
7
66
1
10
0.0
20
0.0
30
0.0
70
1
0
VERTEX
8
Halfen
62
7
10
 0
20
-73.5
30
0
0
VERTEX
8
Halfen
62
7
10
 1000
20
-73.5
30
0
0
VERTEX
8
Halfen
62
7
10
 1000
20
 73.5
30
0
0
VERTEX
8
Halfen
62
7
10
 0
20
 73.5
30
0
0
SEQEND
8
Halfen
0
POLYLINE
8
Halfen
62
7
66
1
10
0.0
20
0.0
30
0.0
70
1
0
VERTEX
8
Halfen
62
7
10
 0
20
-60
30
0
0
VERTEX
8
Halfen
62
7
10
 1000
20
-60
30
0
0
VERTEX
8
Halfen
62
7
10
 1000
20
 60
30
0
0
VERTEX
8
Halfen
62
7
10
 0
20
 60
30
0
0
SEQEND
8
Halfen
0
POLYLINE
8
Halfen
62
7
66
1
10
0.0
20
0.0
30
0.0
70
1
0
VERTEX
8
Halfen
62
7
10
 20
20
-32.5
30
0
0
VERTEX
8
Halfen
62
7
10
 37
20
-1.5
30
0
0
VERTEX
8
Halfen
62
7
10
 28
20
-1.5
30
0
0
VERTEX
8
Halfen
62
7
10
 28
20
 32.5
30
0
0
VERTEX
8
Halfen
62
7
10
 12
20
 32.5
30
0
0
VERTEX
8
Halfen
62
7
10
 12
20
-1.5
30
0
0
VERTEX
8
Halfen
62
7
10
 3
20
-1.5
30
0
0
SEQEND
8
Halfen
0
POLYLINE
8
Halfen
62
7
66
1
10
0.0
20
0.0
30
0.0
70
1
0
VERTEX
8
Halfen
62
7
10
 980
20
-32.5
30
0
0
VERTEX
8
Halfen
62
7
10
 997
20
-1.5
30
0
0
VERTEX
8
Halfen
62
7
10
 988
20
-1.5
30
0
0
VERTEX
8
Halfen
62
7
10
 988
20
 32.5
30
0
0
VERTEX
8
Halfen
62
7
10
 972
20
 32.5
30
0
0
VERTEX
8
Halfen
62
7
10
 972
20
-1.5
30
0
0
VERTEX
8
Halfen
62
7
10
 963
20
-1.5
30
0
0
SEQEND
8
Halfen
0
POLYLINE
8
Halfen
62
7
66
1
10
0.0
20
0.0
30
0.0
70
1
0
VERTEX
8
Halfen
62
7
10
 97
20
-69.3
30
0
0
VERTEX
8
Halfen
62
7
10
 97
20
-56.8
30
0
0
VERTEX
8
Halfen
62
7
10
 97
20
 69.3
30
0
0
VERTEX
8
Halfen
62
7
10
 96.958
20
 70.359
30
0
0
VERTEX
8
Halfen
62
7
10
 96.834
20
 71.412
30
0
0
VERTEX
8
Halfen
62
7
10
 96.627
20
 72.452
30
0
0
VERTEX
8
Halfen
62
7
10
 96.339
20
 73.472
30
0
0
VERTEX
8
Halfen
62
7
10
 95.972
20
 74.466
30
0
0
VERTEX
8
Halfen
62
7
10
 95.529
20
 75.429
30
0
0
VERTEX
8
Halfen
62
7
10
 95.011
20
 76.354
30
0
0
VERTEX
8
Halfen
62
7
10
 94.422
20
 77.235
30
0
0
VERTEX
8
Halfen
62
7
10
 93.765
20
 78.068
30
0
0
VERTEX
8
Halfen
62
7
10
 93.046
20
 78.846
30
0
0
VERTEX
8
Halfen
62
7
10
 92.268
20
 79.565
30
0
0
VERTEX
8
Halfen
62
7
10
 91.435
20
 80.222
30
0
0
VERTEX
8
Halfen
62
7
10
 90.554
20
 80.811
30
0
0
VERTEX
8
Halfen
62
7
10
 89.629
20
 81.329
30
0
0
VERTEX
8
Halfen
62
7
10
 88.666
20
 81.772
30
0
0
VERTEX
8
Halfen
62
7
10
 87.672
20
 82.139
30
0
0
VERTEX
8
Halfen
62
7
10
 86.652
20
 82.427
30
0
0
VERTEX
8
Halfen
62
7
10
 85.612
20
 82.634
30
0
0
VERTEX
8
Halfen
62
7
10
 84.559
20
 82.758
30
0
0
VERTEX
8
Halfen
62
7
10
 83.5
20
 82.8
30
0
0
VERTEX
8
Halfen
62
7
10
 80.5
20
 82.8
30
0
0
VERTEX
8
Halfen
62
7
10
 79.441
20
 82.758
30
0
0
VERTEX
8
Halfen
62
7
10
 78.388
20
 82.634
30
0
0
VERTEX
8
Halfen
62
7
10
 77.348
20
 82.427
30
0
0
VERTEX
8
Halfen
62
7
10
 76.328
20
 82.139
30
0
0
VERTEX
8
Halfen
62
7
10
 75.334
20
 81.772
30
0
0
VERTEX
8
Halfen
62
7
10
 74.371
20
 81.329
30
0
0
VERTEX
8
Halfen
62
7
10
 73.446
20
 80.811
30
0
0
VERTEX
8
Halfen
62
7
10
 72.565
20
 80.222
30
0
0
VERTEX
8
Halfen
62
7
10
 71.732
20
 79.565
30
0
0
VERTEX
8
Halfen
62
7
10
 70.954
20
 78.846
30
0
0
VERTEX
8
Halfen
62
7
10
 70.235
20
 78.068
30
0
0
VERTEX
8
Halfen
62
7
10
 69.578
20
 77.235
30
0
0
VERTEX
8
Halfen
62
7
10
 68.989
20
 76.354
30
0
0
VERTEX
8
Halfen
62
7
10
 68.471
20
 75.429
30
0
0
VERTEX
8
Halfen
62
7
10
 68.028
20
 74.466
30
0
0
VERTEX
8
Halfen
62
7
10
 67.661
20
 73.472
30
0
0
VERTEX
8
Halfen
62
7
10
 67.373
20
 72.452
30
0
0
VERTEX
8
Halfen
62
7
10
 67.166
20
 71.412
30
0
0
VERTEX
8
Halfen
62
7
10
 67.042
20
 70.359
30
0
0
VERTEX
8
Halfen
62
7
10
 67
20
 69.3
30
0
0
VERTEX
8
Halfen
62
7
10
 67
20
-56.8
30
0
0
VERTEX
8
Halfen
62
7
10
 67
20
-69.3
30
0
0
VERTEX
8
Halfen
62
7
10
 67.042
20
-70.359
30
0
0
VERTEX
8
Halfen
62
7
10
 67.166
20
-71.412
30
0
0
VERTEX
8
Halfen
62
7
10
 67.373
20
-72.452
30
0
0
VERTEX
8
Halfen
62
7
10
 67.661
20
-73.472
30
0
0
VERTEX
8
Halfen
62
7
10
 68.028
20
-74.466
30
0
0
VERTEX
8
Halfen
62
7
10
 68.471
20
-75.429
30
0
0
VERTEX
8
Halfen
62
7
10
 68.989
20
-76.354
30
0
0
VERTEX
8
Halfen
62
7
10
 69.578
20
-77.235
30
0
0
VERTEX
8
Halfen
62
7
10
 70.235
20
-78.068
30
0
0
VERTEX
8
Halfen
62
7
10
 70.954
20
-78.846
30
0
0
VERTEX
8
Halfen
62
7
10
 71.732
20
-79.565
30
0
0
VERTEX
8
Halfen
62
7
10
 72.565
20
-80.222
30
0
0
VERTEX
8
Halfen
62
7
10
 73.446
20
-80.811
30
0
0
VERTEX
8
Halfen
62
7
10
 74.371
20
-81.329
30
0
0
VERTEX
8
Halfen
62
7
10
 75.334
20
-81.772
30
0
0
VERTEX
8
Halfen
62
7
10
 76.328
20
-82.139
30
0
0
VERTEX
8
Halfen
62
7
10
 77.348
20
-82.427
30
0
0
VERTEX
8
Halfen
62
7
10
 78.388
20
-82.634
30
0
0
VERTEX
8
Halfen
62
7
10
 79.441
20
-82.758
30
0
0
VERTEX
8
Halfen
62
7
10
 80.5
20
-82.8
30
0
0
VERTEX
8
Halfen
62
7
10
 83.5
20
-82.8
30
0
0
VERTEX
8
Halfen
62
7
10
 84.559
20
-82.758
30
0
0
VERTEX
8
Halfen
62
7
10
 85.612
20
-82.634
30
0
0
VERTEX
8
Halfen
62
7
10
 86.652
20
-82.427
30
0
0
VERTEX
8
Halfen
62
7
10
 87.672
20
-82.139
30
0
0
VERTEX
8
Halfen
62
7
10
 88.666
20
-81.772
30
0
0
VERTEX
8
Halfen
62
7
10
 89.629
20
-81.329
30
0
0
VERTEX
8
Halfen
62
7
10
 90.554
20
-80.811
30
0
0
VERTEX
8
Halfen
62
7
10
 91.435
20
-80.222
30
0
0
VERTEX
8
Halfen
62
7
10
 92.268
20
-79.565
30
0
0
VERTEX
8
Halfen
62
7
10
 93.046
20
-78.846
30
0
0
VERTEX
8
Halfen
62
7
10
 93.765
20
-78.068
30
0
0
VERTEX
8
Halfen
62
7
10
 94.422
20
-77.235
30
0
0
VERTEX
8
Halfen
62
7
10
 95.011
20
-76.354
30
0
0
VERTEX
8
Halfen
62
7
10
 95.529
20
-75.429
30
0
0
VERTEX
8
Halfen
62
7
10
 95.972
20
-74.466
30
0
0
VERTEX
8
Halfen
62
7
10
 96.339
20
-73.472
30
0
0
VERTEX
8
Halfen
62
7
10
 96.627
20
-72.452
30
0
0
VERTEX
8
Halfen
62
7
10
 96.834
20
-71.412
30
0
0
VERTEX
8
Halfen
62
7
10
 96.958
20
-70.359
30
0
0
VERTEX
8
Halfen
62
7
10
 97
20
-69.3
30
0
0
SEQEND
8
Halfen
0
POLYLINE
8
Halfen
62
7
66
1
10
0.0
20
0.0
30
0.0
70
1
0
VERTEX
8
Halfen
62
7
10
 181
20
-69.3
30
0
0
VERTEX
8
Halfen
62
7
10
 181
20
-56.8
30
0
0
VERTEX
8
Halfen
62
7
10
 181
20
 69.3
30
0
0
VERTEX
8
Halfen
62
7
10
 180.958
20
 70.359
30
0
0
VERTEX
8
Halfen
62
7
10
 180.834
20
 71.412
30
0
0
VERTEX
8
Halfen
62
7
10
 180.627
20
 72.452
30
0
0
VERTEX
8
Halfen
62
7
10
 180.339
20
 73.472
30
0
0
VERTEX
8
Halfen
62
7
10
 179.972
20
 74.466
30
0
0
VERTEX
8
Halfen
62
7
10
 179.529
20
 75.429
30
0
0
VERTEX
8
Halfen
62
7
10
 179.011
20
 76.354
30
0
0
VERTEX
8
Halfen
62
7
10
 178.422
20
 77.235
30
0
0
VERTEX
8
Halfen
62
7
10
 177.765
20
 78.068
30
0
0
VERTEX
8
Halfen
62
7
10
 177.046
20
 78.846
30
0
0
VERTEX
8
Halfen
62
7
10
 176.268
20
 79.565
30
0
0
VERTEX
8
Halfen
62
7
10
 175.435
20
 80.222
30
0
0
VERTEX
8
Halfen
62
7
10
 174.554
20
 80.811
30
0
0
VERTEX
8
Halfen
62
7
10
 173.629
20
 81.329
30
0
0
VERTEX
8
Halfen
62
7
10
 172.666
20
 81.772
30
0
0
VERTEX
8
Halfen
62
7
10
 171.672
20
 82.139
30
0
0
VERTEX
8
Halfen
62
7
10
 170.652
20
 82.427
30
0
0
VERTEX
8
Halfen
62
7
10
 169.612
20
 82.634
30
0
0
VERTEX
8
Halfen
62
7
10
 168.559
20
 82.758
30
0
0
VERTEX
8
Halfen
62
7
10
 167.5
20
 82.8
30
0
0
VERTEX
8
Halfen
62
7
10
 164.5
20
 82.8
30
0
0
VERTEX
8
Halfen
62
7
10
 163.441
20
 82.758
30
0
0
VERTEX
8
Halfen
62
7
10
 162.388
20
 82.634
30
0
0
VERTEX
8
Halfen
62
7
10
 161.348
20
 82.427
30
0
0
VERTEX
8
Halfen
62
7
10
 160.328
20
 82.139
30
0
0
VERTEX
8
Halfen
62
7
10
 159.334
20
 81.772
30
0
0
VERTEX
8
Halfen
62
7
10
 158.371
20
 81.329
30
0
0
VERTEX
8
Halfen
62
7
10
 157.446
20
 80.811
30
0
0
VERTEX
8
Halfen
62
7
10
 156.565
20
 80.222
30
0
0
VERTEX
8
Halfen
62
7
10
 155.732
20
 79.565
30
0
0
VERTEX
8
Halfen
62
7
10
 154.954
20
 78.846
30
0
0
VERTEX
8
Halfen
62
7
10
 154.235
20
 78.068
30
0
0
VERTEX
8
Halfen
62
7
10
 153.578
20
 77.235
30
0
0
VERTEX
8
Halfen
62
7
10
 152.989
20
 76.354
30
0
0
VERTEX
8
Halfen
62
7
10
 152.471
20
 75.429
30
0
0
VERTEX
8
Halfen
62
7
10
 152.028
20
 74.466
30
0
0
VERTEX
8
Halfen
62
7
10
 151.661
20
 73.472
30
0
0
VERTEX
8
Halfen
62
7
10
 151.373
20
 72.452
30
0
0
VERTEX
8
Halfen
62
7
10
 151.166
20
 71.412
30
0
0
VERTEX
8
Halfen
62
7
10
 151.042
20
 70.359
30
0
0
VERTEX
8
Halfen
62
7
10
 151
20
 69.3
30
0
0
VERTEX
8
Halfen
62
7
10
 151
20
-56.8
30
0
0
VERTEX
8
Halfen
62
7
10
 151
20
-69.3
30
0
0
VERTEX
8
Halfen
62
7
10
 151.042
20
-70.359
30
0
0
VERTEX
8
Halfen
62
7
10
 151.166
20
-71.412
30
0
0
VERTEX
8
Halfen
62
7
10
 151.373
20
-72.452
30
0
0
VERTEX
8
Halfen
62
7
10
 151.661
20
-73.472
30
0
0
VERTEX
8
Halfen
62
7
10
 152.028
20
-74.466
30
0
0
VERTEX
8
Halfen
62
7
10
 152.471
20
-75.429
30
0
0
VERTEX
8
Halfen
62
7
10
 152.989
20
-76.354
30
0
0
VERTEX
8
Halfen
62
7
10
 153.578
20
-77.235
30
0
0
VERTEX
8
Halfen
62
7
10
 154.235
20
-78.068
30
0
0
VERTEX
8
Halfen
62
7
10
 154.954
20
-78.846
30
0
0
VERTEX
8
Halfen
62
7
10
 155.732
20
-79.565
30
0
0
VERTEX
8
Halfen
62
7
10
 156.565
20
-80.222
30
0
0
VERTEX
8
Halfen
62
7
10
 157.446
20
-80.811
30
0
0
VERTEX
8
Halfen
62
7
10
 158.371
20
-81.329
30
0
0
VERTEX
8
Halfen
62
7
10
 159.334
20
-81.772
30
0
0
VERTEX
8
Halfen
62
7
10
 160.328
20
-82.139
30
0
0
VERTEX
8
Halfen
62
7
10
 161.348
20
-82.427
30
0
0
VERTEX
8
Halfen
62
7
10
 162.388
20
-82.634
30
0
0
VERTEX
8
Halfen
62
7
10
 163.441
20
-82.758
30
0
0
VERTEX
8
Halfen
62
7
10
 164.5
20
-82.8
30
0
0
VERTEX
8
Halfen
62
7
10
 167.5
20
-82.8
30
0
0
VERTEX
8
Halfen
62
7
10
 168.559
20
-82.758
30
0
0
VERTEX
8
Halfen
62
7
10
 169.612
20
-82.634
30
0
0
VERTEX
8
Halfen
62
7
10
 170.652
20
-82.427
30
0
0
VERTEX
8
Halfen
62
7
10
 171.672
20
-82.139
30
0
0
VERTEX
8
Halfen
62
7
10
 172.666
20
-81.772
30
0
0
VERTEX
8
Halfen
62
7
10
 173.629
20
-81.329
30
0
0
VERTEX
8
Halfen
62
7
10
 174.554
20
-80.811
30
0
0
VERTEX
8
Halfen
62
7
10
 175.435
20
-80.222
30
0
0
VERTEX
8
Halfen
62
7
10
 176.268
20
-79.565
30
0
0
VERTEX
8
Halfen
62
7
10
 177.046
20
-78.846
30
0
0
VERTEX
8
Halfen
62
7
10
 177.765
20
-78.068
30
0
0
VERTEX
8
Halfen
62
7
10
 178.422
20
-77.235
30
0
0
VERTEX
8
Halfen
62
7
10
 179.011
20
-76.354
30
0
0
VERTEX
8
Halfen
62
7
10
 179.529
20
-75.429
30
0
0
VERTEX
8
Halfen
62
7
10
 179.972
20
-74.466
30
0
0
VERTEX
8
Halfen
62
7
10
 180.339
20
-73.472
30
0
0
VERTEX
8
Halfen
62
7
10
 180.627
20
-72.452
30
0
0
VERTEX
8
Halfen
62
7
10
 180.834
20
-71.412
30
0
0
VERTEX
8
Halfen
62
7
10
 180.958
20
-70.359
30
0
0
VERTEX
8
Halfen
62
7
10
 181
20
-69.3
30
0
0
SEQEND
8
Halfen
0
POLYLINE
8
Halfen
62
7
66
1
10
0.0
20
0.0
30
0.0
70
1
0
VERTEX
8
Halfen
62
7
10
 265
20
-69.3
30
0
0
VERTEX
8
Halfen
62
7
10
 265
20
-56.8
30
0
0
VERTEX
8
Halfen
62
7
10
 265
20
 69.3
30
0
0
VERTEX
8
Halfen
62
7
10
 264.958
20
 70.359
30
0
0
VERTEX
8
Halfen
62
7
10
 264.834
20
 71.412
30
0
0
VERTEX
8
Halfen
62
7
10
 264.627
20
 72.452
30
0
0
VERTEX
8
Halfen
62
7
10
 264.339
20
 73.472
30
0
0
VERTEX
8
Halfen
62
7
10
 263.972
20
 74.466
30
0
0
VERTEX
8
Halfen
62
7
10
 263.529
20
 75.429
30
0
0
VERTEX
8
Halfen
62
7
10
 263.011
20
 76.354
30
0
0
VERTEX
8
Halfen
62
7
10
 262.422
20
 77.235
30
0
0
VERTEX
8
Halfen
62
7
10
 261.765
20
 78.068
30
0
0
VERTEX
8
Halfen
62
7
10
 261.046
20
 78.846
30
0
0
VERTEX
8
Halfen
62
7
10
 260.268
20
 79.565
30
0
0
VERTEX
8
Halfen
62
7
10
 259.435
20
 80.222
30
0
0
VERTEX
8
Halfen
62
7
10
 258.554
20
 80.811
30
0
0
VERTEX
8
Halfen
62
7
10
 257.629
20
 81.329
30
0
0
VERTEX
8
Halfen
62
7
10
 256.666
20
 81.772
30
0
0
VERTEX
8
Halfen
62
7
10
 255.672
20
 82.139
30
0
0
VERTEX
8
Halfen
62
7
10
 254.652
20
 82.427
30
0
0
VERTEX
8
Halfen
62
7
10
 253.612
20
 82.634
30
0
0
VERTEX
8
Halfen
62
7
10
 252.559
20
 82.758
30
0
0
VERTEX
8
Halfen
62
7
10
 251.5
20
 82.8
30
0
0
VERTEX
8
Halfen
62
7
10
 248.5
20
 82.8
30
0
0
VERTEX
8
Halfen
62
7
10
 247.441
20
 82.758
30
0
0
VERTEX
8
Halfen
62
7
10
 246.388
20
 82.634
30
0
0
VERTEX
8
Halfen
62
7
10
 245.348
20
 82.427
30
0
0
VERTEX
8
Halfen
62
7
10
 244.328
20
 82.139
30
0
0
VERTEX
8
Halfen
62
7
10
 243.334
20
 81.772
30
0
0
VERTEX
8
Halfen
62
7
10
 242.371
20
 81.329
30
0
0
VERTEX
8
Halfen
62
7
10
 241.446
20
 80.811
30
0
0
VERTEX
8
Halfen
62
7
10
 240.565
20
 80.222
30
0
0
VERTEX
8
Halfen
62
7
10
 239.732
20
 79.565
30
0
0
VERTEX
8
Halfen
62
7
10
 238.954
20
 78.846
30
0
0
VERTEX
8
Halfen
62
7
10
 238.235
20
 78.068
30
0
0
VERTEX
8
Halfen
62
7
10
 237.578
20
 77.235
30
0
0
VERTEX
8
Halfen
62
7
10
 236.989
20
 76.354
30
0
0
VERTEX
8
Halfen
62
7
10
 236.471
20
 75.429
30
0
0
VERTEX
8
Halfen
62
7
10
 236.028
20
 74.466
30
0
0
VERTEX
8
Halfen
62
7
10
 235.661
20
 73.472
30
0
0
VERTEX
8
Halfen
62
7
10
 235.373
20
 72.452
30
0
0
VERTEX
8
Halfen
62
7
10
 235.166
20
 71.412
30
0
0
VERTEX
8
Halfen
62
7
10
 235.042
20
 70.359
30
0
0
VERTEX
8
Halfen
62
7
10
 235
20
 69.3
30
0
0
VERTEX
8
Halfen
62
7
10
 235
20
-56.8
30
0
0
VERTEX
8
Halfen
62
7
10
 235
20
-69.3
30
0
0
VERTEX
8
Halfen
62
7
10
 235.042
20
-70.359
30
0
0
VERTEX
8
Halfen
62
7
10
 235.166
20
-71.412
30
0
0
VERTEX
8
Halfen
62
7
10
 235.373
20
-72.452
30
0
0
VERTEX
8
Halfen
62
7
10
 235.661
20
-73.472
30
0
0
VERTEX
8
Halfen
62
7
10
 236.028
20
-74.466
30
0
0
VERTEX
8
Halfen
62
7
10
 236.471
20
-75.429
30
0
0
VERTEX
8
Halfen
62
7
10
 236.989
20
-76.354
30
0
0
VERTEX
8
Halfen
62
7
10
 237.578
20
-77.235
30
0
0
VERTEX
8
Halfen
62
7
10
 238.235
20
-78.068
30
0
0
VERTEX
8
Halfen
62
7
10
 238.954
20
-78.846
30
0
0
VERTEX
8
Halfen
62
7
10
 239.732
20
-79.565
30
0
0
VERTEX
8
Halfen
62
7
10
 240.565
20
-80.222
30
0
0
VERTEX
8
Halfen
62
7
10
 241.446
20
-80.811
30
0
0
VERTEX
8
Halfen
62
7
10
 242.371
20
-81.329
30
0
0
VERTEX
8
Halfen
62
7
10
 243.334
20
-81.772
30
0
0
VERTEX
8
Halfen
62
7
10
 244.328
20
-82.139
30
0
0
VERTEX
8
Halfen
62
7
10
 245.348
20
-82.427
30
0
0
VERTEX
8
Halfen
62
7
10
 246.388
20
-82.634
30
0
0
VERTEX
8
Halfen
62
7
10
 247.441
20
-82.758
30
0
0
VERTEX
8
Halfen
62
7
10
 248.5
20
-82.8
30
0
0
VERTEX
8
Halfen
62
7
10
 251.5
20
-82.8
30
0
0
VERTEX
8
Halfen
62
7
10
 252.559
20
-82.758
30
0
0
VERTEX
8
Halfen
62
7
10
 253.612
20
-82.634
30
0
0
VERTEX
8
Halfen
62
7
10
 254.652
20
-82.427
30
0
0
VERTEX
8
Halfen
62
7
10
 255.672
20
-82.139
30
0
0
VERTEX
8
Halfen
62
7
10
 256.666
20
-81.772
30
0
0
VERTEX
8
Halfen
62
7
10
 257.629
20
-81.329
30
0
0
VERTEX
8
Halfen
62
7
10
 258.554
20
-80.811
30
0
0
VERTEX
8
Halfen
62
7
10
 259.435
20
-80.222
30
0
0
VERTEX
8
Halfen
62
7
10
 260.268
20
-79.565
30
0
0
VERTEX
8
Halfen
62
7
10
 261.046
20
-78.846
30
0
0
VERTEX
8
Halfen
62
7
10
 261.765
20
-78.068
30
0
0
VERTEX
8
Halfen
62
7
10
 262.422
20
-77.235
30
0
0
VERTEX
8
Halfen
62
7
10
 263.011
20
-76.354
30
0
0
VERTEX
8
Halfen
62
7
10
 263.529
20
-75.429
30
0
0
VERTEX
8
Halfen
62
7
10
 263.972
20
-74.466
30
0
0
VERTEX
8
Halfen
62
7
10
 264.339
20
-73.472
30
0
0
VERTEX
8
Halfen
62
7
10
 264.627
20
-72.452
30
0
0
VERTEX
8
Halfen
62
7
10
 264.834
20
-71.412
30
0
0
VERTEX
8
Halfen
62
7
10
 264.958
20
-70.359
30
0
0
VERTEX
8
Halfen
62
7
10
 265
20
-69.3
30
0
0
SEQEND
8
Halfen
0
POLYLINE
8
Halfen
62
7
66
1
10
0.0
20
0.0
30
0.0
70
1
0
VERTEX
8
Halfen
62
7
10
 349
20
-69.3
30
0
0
VERTEX
8
Halfen
62
7
10
 349
20
-56.8
30
0
0
VERTEX
8
Halfen
62
7
10
 349
20
 69.3
30
0
0
VERTEX
8
Halfen
62
7
10
 348.958
20
 70.359
30
0
0
VERTEX
8
Halfen
62
7
10
 348.834
20
 71.412
30
0
0
VERTEX
8
Halfen
62
7
10
 348.627
20
 72.452
30
0
0
VERTEX
8
Halfen
62
7
10
 348.339
20
 73.472
30
0
0
VERTEX
8
Halfen
62
7
10
 347.972
20
 74.466
30
0
0
VERTEX
8
Halfen
62
7
10
 347.529
20
 75.429
30
0
0
VERTEX
8
Halfen
62
7
10
 347.011
20
 76.354
30
0
0
VERTEX
8
Halfen
62
7
10
 346.422
20
 77.235
30
0
0
VERTEX
8
Halfen
62
7
10
 345.765
20
 78.068
30
0
0
VERTEX
8
Halfen
62
7
10
 345.046
20
 78.846
30
0
0
VERTEX
8
Halfen
62
7
10
 344.268
20
 79.565
30
0
0
VERTEX
8
Halfen
62
7
10
 343.435
20
 80.222
30
0
0
VERTEX
8
Halfen
62
7
10
 342.554
20
 80.811
30
0
0
VERTEX
8
Halfen
62
7
10
 341.629
20
 81.329
30
0
0
VERTEX
8
Halfen
62
7
10
 340.666
20
 81.772
30
0
0
VERTEX
8
Halfen
62
7
10
 339.672
20
 82.139
30
0
0
VERTEX
8
Halfen
62
7
10
 338.652
20
 82.427
30
0
0
VERTEX
8
Halfen
62
7
10
 337.612
20
 82.634
30
0
0
VERTEX
8
Halfen
62
7
10
 336.559
20
 82.758
30
0
0
VERTEX
8
Halfen
62
7
10
 335.5
20
 82.8
30
0
0
VERTEX
8
Halfen
62
7
10
 332.5
20
 82.8
30
0
0
VERTEX
8
Halfen
62
7
10
 331.441
20
 82.758
30
0
0
VERTEX
8
Halfen
62
7
10
 330.388
20
 82.634
30
0
0
VERTEX
8
Halfen
62
7
10
 329.348
20
 82.427
30
0
0
VERTEX
8
Halfen
62
7
10
 328.328
20
 82.139
30
0
0
VERTEX
8
Halfen
62
7
10
 327.334
20
 81.772
30
0
0
VERTEX
8
Halfen
62
7
10
 326.371
20
 81.329
30
0
0
VERTEX
8
Halfen
62
7
10
 325.446
20
 80.811
30
0
0
VERTEX
8
Halfen
62
7
10
 324.565
20
 80.222
30
0
0
VERTEX
8
Halfen
62
7
10
 323.732
20
 79.565
30
0
0
VERTEX
8
Halfen
62
7
10
 322.954
20
 78.846
30
0
0
VERTEX
8
Halfen
62
7
10
 322.235
20
 78.068
30
0
0
VERTEX
8
Halfen
62
7
10
 321.578
20
 77.235
30
0
0
VERTEX
8
Halfen
62
7
10
 320.989
20
 76.354
30
0
0
VERTEX
8
Halfen
62
7
10
 320.471
20
 75.429
30
0
0
VERTEX
8
Halfen
62
7
10
 320.028
20
 74.466
30
0
0
VERTEX
8
Halfen
62
7
10
 319.661
20
 73.472
30
0
0
VERTEX
8
Halfen
62
7
10
 319.373
20
 72.452
30
0
0
VERTEX
8
Halfen
62
7
10
 319.166
20
 71.412
30
0
0
VERTEX
8
Halfen
62
7
10
 319.042
20
 70.359
30
0
0
VERTEX
8
Halfen
62
7
10
 319
20
 69.3
30
0
0
VERTEX
8
Halfen
62
7
10
 319
20
-56.8
30
0
0
VERTEX
8
Halfen
62
7
10
 319
20
-69.3
30
0
0
VERTEX
8
Halfen
62
7
10
 319.042
20
-70.359
30
0
0
VERTEX
8
Halfen
62
7
10
 319.166
20
-71.412
30
0
0
VERTEX
8
Halfen
62
7
10
 319.373
20
-72.452
30
0
0
VERTEX
8
Halfen
62
7
10
 319.661
20
-73.472
30
0
0
VERTEX
8
Halfen
62
7
10
 320.028
20
-74.466
30
0
0
VERTEX
8
Halfen
62
7
10
 320.471
20
-75.429
30
0
0
VERTEX
8
Halfen
62
7
10
 320.989
20
-76.354
30
0
0
VERTEX
8
Halfen
62
7
10
 321.578
20
-77.235
30
0
0
VERTEX
8
Halfen
62
7
10
 322.235
20
-78.068
30
0
0
VERTEX
8
Halfen
62
7
10
 322.954
20
-78.846
30
0
0
VERTEX
8
Halfen
62
7
10
 323.732
20
-79.565
30
0
0
VERTEX
8
Halfen
62
7
10
 324.565
20
-80.222
30
0
0
VERTEX
8
Halfen
62
7
10
 325.446
20
-80.811
30
0
0
VERTEX
8
Halfen
62
7
10
 326.371
20
-81.329
30
0
0
VERTEX
8
Halfen
62
7
10
 327.334
20
-81.772
30
0
0
VERTEX
8
Halfen
62
7
10
 328.328
20
-82.139
30
0
0
VERTEX
8
Halfen
62
7
10
 329.348
20
-82.427
30
0
0
VERTEX
8
Halfen
62
7
10
 330.388
20
-82.634
30
0
0
VERTEX
8
Halfen
62
7
10
 331.441
20
-82.758
30
0
0
VERTEX
8
Halfen
62
7
10
 332.5
20
-82.8
30
0
0
VERTEX
8
Halfen
62
7
10
 335.5
20
-82.8
30
0
0
VERTEX
8
Halfen
62
7
10
 336.559
20
-82.758
30
0
0
VERTEX
8
Halfen
62
7
10
 337.612
20
-82.634
30
0
0
VERTEX
8
Halfen
62
7
10
 338.652
20
-82.427
30
0
0
VERTEX
8
Halfen
62
7
10
 339.672
20
-82.139
30
0
0
VERTEX
8
Halfen
62
7
10
 340.666
20
-81.772
30
0
0
VERTEX
8
Halfen
62
7
10
 341.629
20
-81.329
30
0
0
VERTEX
8
Halfen
62
7
10
 342.554
20
-80.811
30
0
0
VERTEX
8
Halfen
62
7
10
 343.435
20
-80.222
30
0
0
VERTEX
8
Halfen
62
7
10
 344.268
20
-79.565
30
0
0
VERTEX
8
Halfen
62
7
10
 345.046
20
-78.846
30
0
0
VERTEX
8
Halfen
62
7
10
 345.765
20
-78.068
30
0
0
VERTEX
8
Halfen
62
7
10
 346.422
20
-77.235
30
0
0
VERTEX
8
Halfen
62
7
10
 347.011
20
-76.354
30
0
0
VERTEX
8
Halfen
62
7
10
 347.529
20
-75.429
30
0
0
VERTEX
8
Halfen
62
7
10
 347.972
20
-74.466
30
0
0
VERTEX
8
Halfen
62
7
10
 348.339
20
-73.472
30
0
0
VERTEX
8
Halfen
62
7
10
 348.627
20
-72.452
30
0
0
VERTEX
8
Halfen
62
7
10
 348.834
20
-71.412
30
0
0
VERTEX
8
Halfen
62
7
10
 348.958
20
-70.359
30
0
0
VERTEX
8
Halfen
62
7
10
 349
20
-69.3
30
0
0
SEQEND
8
Halfen
0
POLYLINE
8
Halfen
62
7
66
1
10
0.0
20
0.0
30
0.0
70
1
0
VERTEX
8
Halfen
62
7
10
 433
20
-69.3
30
0
0
VERTEX
8
Halfen
62
7
10
 433
20
-56.8
30
0
0
VERTEX
8
Halfen
62
7
10
 433
20
 69.3
30
0
0
VERTEX
8
Halfen
62
7
10
 432.958
20
 70.359
30
0
0
VERTEX
8
Halfen
62
7
10
 432.834
20
 71.412
30
0
0
VERTEX
8
Halfen
62
7
10
 432.627
20
 72.452
30
0
0
VERTEX
8
Halfen
62
7
10
 432.339
20
 73.472
30
0
0
VERTEX
8
Halfen
62
7
10
 431.972
20
 74.466
30
0
0
VERTEX
8
Halfen
62
7
10
 431.529
20
 75.429
30
0
0
VERTEX
8
Halfen
62
7
10
 431.011
20
 76.354
30
0
0
VERTEX
8
Halfen
62
7
10
 430.422
20
 77.235
30
0
0
VERTEX
8
Halfen
62
7
10
 429.765
20
 78.068
30
0
0
VERTEX
8
Halfen
62
7
10
 429.046
20
 78.846
30
0
0
VERTEX
8
Halfen
62
7
10
 428.268
20
 79.565
30
0
0
VERTEX
8
Halfen
62
7
10
 427.435
20
 80.222
30
0
0
VERTEX
8
Halfen
62
7
10
 426.554
20
 80.811
30
0
0
VERTEX
8
Halfen
62
7
10
 425.629
20
 81.329
30
0
0
VERTEX
8
Halfen
62
7
10
 424.666
20
 81.772
30
0
0
VERTEX
8
Halfen
62
7
10
 423.672
20
 82.139
30
0
0
VERTEX
8
Halfen
62
7
10
 422.652
20
 82.427
30
0
0
VERTEX
8
Halfen
62
7
10
 421.612
20
 82.634
30
0
0
VERTEX
8
Halfen
62
7
10
 420.559
20
 82.758
30
0
0
VERTEX
8
Halfen
62
7
10
 419.5
20
 82.8
30
0
0
VERTEX
8
Halfen
62
7
10
 416.5
20
 82.8
30
0
0
VERTEX
8
Halfen
62
7
10
 415.441
20
 82.758
30
0
0
VERTEX
8
Halfen
62
7
10
 414.388
20
 82.634
30
0
0
VERTEX
8
Halfen
62
7
10
 413.348
20
 82.427
30
0
0
VERTEX
8
Halfen
62
7
10
 412.328
20
 82.139
30
0
0
VERTEX
8
Halfen
62
7
10
 411.334
20
 81.772
30
0
0
VERTEX
8
Halfen
62
7
10
 410.371
20
 81.329
30
0
0
VERTEX
8
Halfen
62
7
10
 409.446
20
 80.811
30
0
0
VERTEX
8
Halfen
62
7
10
 408.565
20
 80.222
30
0
0
VERTEX
8
Halfen
62
7
10
 407.732
20
 79.565
30
0
0
VERTEX
8
Halfen
62
7
10
 406.954
20
 78.846
30
0
0
VERTEX
8
Halfen
62
7
10
 406.235
20
 78.068
30
0
0
VERTEX
8
Halfen
62
7
10
 405.578
20
 77.235
30
0
0
VERTEX
8
Halfen
62
7
10
 404.989
20
 76.354
30
0
0
VERTEX
8
Halfen
62
7
10
 404.471
20
 75.429
30
0
0
VERTEX
8
Halfen
62
7
10
 404.028
20
 74.466
30
0
0
VERTEX
8
Halfen
62
7
10
 403.661
20
 73.472
30
0
0
VERTEX
8
Halfen
62
7
10
 403.373
20
 72.452
30
0
0
VERTEX
8
Halfen
62
7
10
 403.166
20
 71.412
30
0
0
VERTEX
8
Halfen
62
7
10
 403.042
20
 70.359
30
0
0
VERTEX
8
Halfen
62
7
10
 403
20
 69.3
30
0
0
VERTEX
8
Halfen
62
7
10
 403
20
-56.8
30
0
0
VERTEX
8
Halfen
62
7
10
 403
20
-69.3
30
0
0
VERTEX
8
Halfen
62
7
10
 403.042
20
-70.359
30
0
0
VERTEX
8
Halfen
62
7
10
 403.166
20
-71.412
30
0
0
VERTEX
8
Halfen
62
7
10
 403.373
20
-72.452
30
0
0
VERTEX
8
Halfen
62
7
10
 403.661
20
-73.472
30
0
0
VERTEX
8
Halfen
62
7
10
 404.028
20
-74.466
30
0
0
VERTEX
8
Halfen
62
7
10
 404.471
20
-75.429
30
0
0
VERTEX
8
Halfen
62
7
10
 404.989
20
-76.354
30
0
0
VERTEX
8
Halfen
62
7
10
 405.578
20
-77.235
30
0
0
VERTEX
8
Halfen
62
7
10
 406.235
20
-78.068
30
0
0
VERTEX
8
Halfen
62
7
10
 406.954
20
-78.846
30
0
0
VERTEX
8
Halfen
62
7
10
 407.732
20
-79.565
30
0
0
VERTEX
8
Halfen
62
7
10
 408.565
20
-80.222
30
0
0
VERTEX
8
Halfen
62
7
10
 409.446
20
-80.811
30
0
0
VERTEX
8
Halfen
62
7
10
 410.371
20
-81.329
30
0
0
VERTEX
8
Halfen
62
7
10
 411.334
20
-81.772
30
0
0
VERTEX
8
Halfen
62
7
10
 412.328
20
-82.139
30
0
0
VERTEX
8
Halfen
62
7
10
 413.348
20
-82.427
30
0
0
VERTEX
8
Halfen
62
7
10
 414.388
20
-82.634
30
0
0
VERTEX
8
Halfen
62
7
10
 415.441
20
-82.758
30
0
0
VERTEX
8
Halfen
62
7
10
 416.5
20
-82.8
30
0
0
VERTEX
8
Halfen
62
7
10
 419.5
20
-82.8
30
0
0
VERTEX
8
Halfen
62
7
10
 420.559
20
-82.758
30
0
0
VERTEX
8
Halfen
62
7
10
 421.612
20
-82.634
30
0
0
VERTEX
8
Halfen
62
7
10
 422.652
20
-82.427
30
0
0
VERTEX
8
Halfen
62
7
10
 423.672
20
-82.139
30
0
0
VERTEX
8
Halfen
62
7
10
 424.666
20
-81.772
30
0
0
VERTEX
8
Halfen
62
7
10
 425.629
20
-81.329
30
0
0
VERTEX
8
Halfen
62
7
10
 426.554
20
-80.811
30
0
0
VERTEX
8
Halfen
62
7
10
 427.435
20
-80.222
30
0
0
VERTEX
8
Halfen
62
7
10
 428.268
20
-79.565
30
0
0
VERTEX
8
Halfen
62
7
10
 429.046
20
-78.846
30
0
0
VERTEX
8
Halfen
62
7
10
 429.765
20
-78.068
30
0
0
VERTEX
8
Halfen
62
7
10
 430.422
20
-77.235
30
0
0
VERTEX
8
Halfen
62
7
10
 431.011
20
-76.354
30
0
0
VERTEX
8
Halfen
62
7
10
 431.529
20
-75.429
30
0
0
VERTEX
8
Halfen
62
7
10
 431.972
20
-74.466
30
0
0
VERTEX
8
Halfen
62
7
10
 432.339
20
-73.472
30
0
0
VERTEX
8
Halfen
62
7
10
 432.627
20
-72.452
30
0
0
VERTEX
8
Halfen
62
7
10
 432.834
20
-71.412
30
0
0
VERTEX
8
Halfen
62
7
10
 432.958
20
-70.359
30
0
0
VERTEX
8
Halfen
62
7
10
 433
20
-69.3
30
0
0
SEQEND
8
Halfen
0
POLYLINE
8
Halfen
62
7
66
1
10
0.0
20
0.0
30
0.0
70
1
0
VERTEX
8
Halfen
62
7
10
 597
20
-69.3
30
0
0
VERTEX
8
Halfen
62
7
10
 597
20
-56.8
30
0
0
VERTEX
8
Halfen
62
7
10
 597
20
 69.3
30
0
0
VERTEX
8
Halfen
62
7
10
 596.958
20
 70.359
30
0
0
VERTEX
8
Halfen
62
7
10
 596.834
20
 71.412
30
0
0
VERTEX
8
Halfen
62
7
10
 596.627
20
 72.452
30
0
0
VERTEX
8
Halfen
62
7
10
 596.339
20
 73.472
30
0
0
VERTEX
8
Halfen
62
7
10
 595.972
20
 74.466
30
0
0
VERTEX
8
Halfen
62
7
10
 595.529
20
 75.429
30
0
0
VERTEX
8
Halfen
62
7
10
 595.011
20
 76.354
30
0
0
VERTEX
8
Halfen
62
7
10
 594.422
20
 77.235
30
0
0
VERTEX
8
Halfen
62
7
10
 593.765
20
 78.068
30
0
0
VERTEX
8
Halfen
62
7
10
 593.046
20
 78.846
30
0
0
VERTEX
8
Halfen
62
7
10
 592.268
20
 79.565
30
0
0
VERTEX
8
Halfen
62
7
10
 591.435
20
 80.222
30
0
0
VERTEX
8
Halfen
62
7
10
 590.554
20
 80.811
30
0
0
VERTEX
8
Halfen
62
7
10
 589.629
20
 81.329
30
0
0
VERTEX
8
Halfen
62
7
10
 588.666
20
 81.772
30
0
0
VERTEX
8
Halfen
62
7
10
 587.672
20
 82.139
30
0
0
VERTEX
8
Halfen
62
7
10
 586.652
20
 82.427
30
0
0
VERTEX
8
Halfen
62
7
10
 585.612
20
 82.634
30
0
0
VERTEX
8
Halfen
62
7
10
 584.559
20
 82.758
30
0
0
VERTEX
8
Halfen
62
7
10
 583.5
20
 82.8
30
0
0
VERTEX
8
Halfen
62
7
10
 580.5
20
 82.8
30
0
0
VERTEX
8
Halfen
62
7
10
 579.441
20
 82.758
30
0
0
VERTEX
8
Halfen
62
7
10
 578.388
20
 82.634
30
0
0
VERTEX
8
Halfen
62
7
10
 577.348
20
 82.427
30
0
0
VERTEX
8
Halfen
62
7
10
 576.328
20
 82.139
30
0
0
VERTEX
8
Halfen
62
7
10
 575.334
20
 81.772
30
0
0
VERTEX
8
Halfen
62
7
10
 574.371
20
 81.329
30
0
0
VERTEX
8
Halfen
62
7
10
 573.446
20
 80.811
30
0
0
VERTEX
8
Halfen
62
7
10
 572.565
20
 80.222
30
0
0
VERTEX
8
Halfen
62
7
10
 571.732
20
 79.565
30
0
0
VERTEX
8
Halfen
62
7
10
 570.954
20
 78.846
30
0
0
VERTEX
8
Halfen
62
7
10
 570.235
20
 78.068
30
0
0
VERTEX
8
Halfen
62
7
10
 569.578
20
 77.235
30
0
0
VERTEX
8
Halfen
62
7
10
 568.989
20
 76.354
30
0
0
VERTEX
8
Halfen
62
7
10
 568.471
20
 75.429
30
0
0
VERTEX
8
Halfen
62
7
10
 568.028
20
 74.466
30
0
0
VERTEX
8
Halfen
62
7
10
 567.661
20
 73.472
30
0
0
VERTEX
8
Halfen
62
7
10
 567.373
20
 72.452
30
0
0
VERTEX
8
Halfen
62
7
10
 567.166
20
 71.412
30
0
0
VERTEX
8
Halfen
62
7
10
 567.042
20
 70.359
30
0
0
VERTEX
8
Halfen
62
7
10
 567
20
 69.3
30
0
0
VERTEX
8
Halfen
62
7
10
 567
20
-56.8
30
0
0
VERTEX
8
Halfen
62
7
10
 567
20
-69.3
30
0
0
VERTEX
8
Halfen
62
7
10
 567.042
20
-70.359
30
0
0
VERTEX
8
Halfen
62
7
10
 567.166
20
-71.412
30
0
0
VERTEX
8
Halfen
62
7
10
 567.373
20
-72.452
30
0
0
VERTEX
8
Halfen
62
7
10
 567.661
20
-73.472
30
0
0
VERTEX
8
Halfen
62
7
10
 568.028
20
-74.466
30
0
0
VERTEX
8
Halfen
62
7
10
 568.471
20
-75.429
30
0
0
VERTEX
8
Halfen
62
7
10
 568.989
20
-76.354
30
0
0
VERTEX
8
Halfen
62
7
10
 569.578
20
-77.235
30
0
0
VERTEX
8
Halfen
62
7
10
 570.235
20
-78.068
30
0
0
VERTEX
8
Halfen
62
7
10
 570.954
20
-78.846
30
0
0
VERTEX
8
Halfen
62
7
10
 571.732
20
-79.565
30
0
0
VERTEX
8
Halfen
62
7
10
 572.565
20
-80.222
30
0
0
VERTEX
8
Halfen
62
7
10
 573.446
20
-80.811
30
0
0
VERTEX
8
Halfen
62
7
10
 574.371
20
-81.329
30
0
0
VERTEX
8
Halfen
62
7
10
 575.334
20
-81.772
30
0
0
VERTEX
8
Halfen
62
7
10
 576.328
20
-82.139
30
0
0
VERTEX
8
Halfen
62
7
10
 577.348
20
-82.427
30
0
0
VERTEX
8
Halfen
62
7
10
 578.388
20
-82.634
30
0
0
VERTEX
8
Halfen
62
7
10
 579.441
20
-82.758
30
0
0
VERTEX
8
Halfen
62
7
10
 580.5
20
-82.8
30
0
0
VERTEX
8
Halfen
62
7
10
 583.5
20
-82.8
30
0
0
VERTEX
8
Halfen
62
7
10
 584.559
20
-82.758
30
0
0
VERTEX
8
Halfen
62
7
10
 585.612
20
-82.634
30
0
0
VERTEX
8
Halfen
62
7
10
 586.652
20
-82.427
30
0
0
VERTEX
8
Halfen
62
7
10
 587.672
20
-82.139
30
0
0
VERTEX
8
Halfen
62
7
10
 588.666
20
-81.772
30
0
0
VERTEX
8
Halfen
62
7
10
 589.629
20
-81.329
30
0
0
VERTEX
8
Halfen
62
7
10
 590.554
20
-80.811
30
0
0
VERTEX
8
Halfen
62
7
10
 591.435
20
-80.222
30
0
0
VERTEX
8
Halfen
62
7
10
 592.268
20
-79.565
30
0
0
VERTEX
8
Halfen
62
7
10
 593.046
20
-78.846
30
0
0
VERTEX
8
Halfen
62
7
10
 593.765
20
-78.068
30
0
0
VERTEX
8
Halfen
62
7
10
 594.422
20
-77.235
30
0
0
VERTEX
8
Halfen
62
7
10
 595.011
20
-76.354
30
0
0
VERTEX
8
Halfen
62
7
10
 595.529
20
-75.429
30
0
0
VERTEX
8
Halfen
62
7
10
 595.972
20
-74.466
30
0
0
VERTEX
8
Halfen
62
7
10
 596.339
20
-73.472
30
0
0
VERTEX
8
Halfen
62
7
10
 596.627
20
-72.452
30
0
0
VERTEX
8
Halfen
62
7
10
 596.834
20
-71.412
30
0
0
VERTEX
8
Halfen
62
7
10
 596.958
20
-70.359
30
0
0
VERTEX
8
Halfen
62
7
10
 597
20
-69.3
30
0
0
SEQEND
8
Halfen
0
POLYLINE
8
Halfen
62
7
66
1
10
0.0
20
0.0
30
0.0
70
1
0
VERTEX
8
Halfen
62
7
10
 681
20
-69.3
30
0
0
VERTEX
8
Halfen
62
7
10
 681
20
-56.8
30
0
0
VERTEX
8
Halfen
62
7
10
 681
20
 69.3
30
0
0
VERTEX
8
Halfen
62
7
10
 680.958
20
 70.359
30
0
0
VERTEX
8
Halfen
62
7
10
 680.834
20
 71.412
30
0
0
VERTEX
8
Halfen
62
7
10
 680.627
20
 72.452
30
0
0
VERTEX
8
Halfen
62
7
10
 680.339
20
 73.472
30
0
0
VERTEX
8
Halfen
62
7
10
 679.972
20
 74.466
30
0
0
VERTEX
8
Halfen
62
7
10
 679.529
20
 75.429
30
0
0
VERTEX
8
Halfen
62
7
10
 679.011
20
 76.354
30
0
0
VERTEX
8
Halfen
62
7
10
 678.422
20
 77.235
30
0
0
VERTEX
8
Halfen
62
7
10
 677.765
20
 78.068
30
0
0
VERTEX
8
Halfen
62
7
10
 677.046
20
 78.846
30
0
0
VERTEX
8
Halfen
62
7
10
 676.268
20
 79.565
30
0
0
VERTEX
8
Halfen
62
7
10
 675.435
20
 80.222
30
0
0
VERTEX
8
Halfen
62
7
10
 674.554
20
 80.811
30
0
0
VERTEX
8
Halfen
62
7
10
 673.629
20
 81.329
30
0
0
VERTEX
8
Halfen
62
7
10
 672.666
20
 81.772
30
0
0
VERTEX
8
Halfen
62
7
10
 671.672
20
 82.139
30
0
0
VERTEX
8
Halfen
62
7
10
 670.652
20
 82.427
30
0
0
VERTEX
8
Halfen
62
7
10
 669.612
20
 82.634
30
0
0
VERTEX
8
Halfen
62
7
10
 668.559
20
 82.758
30
0
0
VERTEX
8
Halfen
62
7
10
 667.5
20
 82.8
30
0
0
VERTEX
8
Halfen
62
7
10
 664.5
20
 82.8
30
0
0
VERTEX
8
Halfen
62
7
10
 663.441
20
 82.758
30
0
0
VERTEX
8
Halfen
62
7
10
 662.388
20
 82.634
30
0
0
VERTEX
8
Halfen
62
7
10
 661.348
20
 82.427
30
0
0
VERTEX
8
Halfen
62
7
10
 660.328
20
 82.139
30
0
0
VERTEX
8
Halfen
62
7
10
 659.334
20
 81.772
30
0
0
VERTEX
8
Halfen
62
7
10
 658.371
20
 81.329
30
0
0
VERTEX
8
Halfen
62
7
10
 657.446
20
 80.811
30
0
0
VERTEX
8
Halfen
62
7
10
 656.565
20
 80.222
30
0
0
VERTEX
8
Halfen
62
7
10
 655.732
20
 79.565
30
0
0
VERTEX
8
Halfen
62
7
10
 654.954
20
 78.846
30
0
0
VERTEX
8
Halfen
62
7
10
 654.235
20
 78.068
30
0
0
VERTEX
8
Halfen
62
7
10
 653.578
20
 77.235
30
0
0
VERTEX
8
Halfen
62
7
10
 652.989
20
 76.354
30
0
0
VERTEX
8
Halfen
62
7
10
 652.471
20
 75.429
30
0
0
VERTEX
8
Halfen
62
7
10
 652.028
20
 74.466
30
0
0
VERTEX
8
Halfen
62
7
10
 651.661
20
 73.472
30
0
0
VERTEX
8
Halfen
62
7
10
 651.373
20
 72.452
30
0
0
VERTEX
8
Halfen
62
7
10
 651.166
20
 71.412
30
0
0
VERTEX
8
Halfen
62
7
10
 651.042
20
 70.359
30
0
0
VERTEX
8
Halfen
62
7
10
 651
20
 69.3
30
0
0
VERTEX
8
Halfen
62
7
10
 651
20
-56.8
30
0
0
VERTEX
8
Halfen
62
7
10
 651
20
-69.3
30
0
0
VERTEX
8
Halfen
62
7
10
 651.042
20
-70.359
30
0
0
VERTEX
8
Halfen
62
7
10
 651.166
20
-71.412
30
0
0
VERTEX
8
Halfen
62
7
10
 651.373
20
-72.452
30
0
0
VERTEX
8
Halfen
62
7
10
 651.661
20
-73.472
30
0
0
VERTEX
8
Halfen
62
7
10
 652.028
20
-74.466
30
0
0
VERTEX
8
Halfen
62
7
10
 652.471
20
-75.429
30
0
0
VERTEX
8
Halfen
62
7
10
 652.989
20
-76.354
30
0
0
VERTEX
8
Halfen
62
7
10
 653.578
20
-77.235
30
0
0
VERTEX
8
Halfen
62
7
10
 654.235
20
-78.068
30
0
0
VERTEX
8
Halfen
62
7
10
 654.954
20
-78.846
30
0
0
VERTEX
8
Halfen
62
7
10
 655.732
20
-79.565
30
0
0
VERTEX
8
Halfen
62
7
10
 656.565
20
-80.222
30
0
0
VERTEX
8
Halfen
62
7
10
 657.446
20
-80.811
30
0
0
VERTEX
8
Halfen
62
7
10
 658.371
20
-81.329
30
0
0
VERTEX
8
Halfen
62
7
10
 659.334
20
-81.772
30
0
0
VERTEX
8
Halfen
62
7
10
 660.328
20
-82.139
30
0
0
VERTEX
8
Halfen
62
7
10
 661.348
20
-82.427
30
0
0
VERTEX
8
Halfen
62
7
10
 662.388
20
-82.634
30
0
0
VERTEX
8
Halfen
62
7
10
 663.441
20
-82.758
30
0
0
VERTEX
8
Halfen
62
7
10
 664.5
20
-82.8
30
0
0
VERTEX
8
Halfen
62
7
10
 667.5
20
-82.8
30
0
0
VERTEX
8
Halfen
62
7
10
 668.559
20
-82.758
30
0
0
VERTEX
8
Halfen
62
7
10
 669.612
20
-82.634
30
0
0
VERTEX
8
Halfen
62
7
10
 670.652
20
-82.427
30
0
0
VERTEX
8
Halfen
62
7
10
 671.672
20
-82.139
30
0
0
VERTEX
8
Halfen
62
7
10
 672.666
20
-81.772
30
0
0
VERTEX
8
Halfen
62
7
10
 673.629
20
-81.329
30
0
0
VERTEX
8
Halfen
62
7
10
 674.554
20
-80.811
30
0
0
VERTEX
8
Halfen
62
7
10
 675.435
20
-80.222
30
0
0
VERTEX
8
Halfen
62
7
10
 676.268
20
-79.565
30
0
0
VERTEX
8
Halfen
62
7
10
 677.046
20
-78.846
30
0
0
VERTEX
8
Halfen
62
7
10
 677.765
20
-78.068
30
0
0
VERTEX
8
Halfen
62
7
10
 678.422
20
-77.235
30
0
0
VERTEX
8
Halfen
62
7
10
 679.011
20
-76.354
30
0
0
VERTEX
8
Halfen
62
7
10
 679.529
20
-75.429
30
0
0
VERTEX
8
Halfen
62
7
10
 679.972
20
-74.466
30
0
0
VERTEX
8
Halfen
62
7
10
 680.339
20
-73.472
30
0
0
VERTEX
8
Halfen
62
7
10
 680.627
20
-72.452
30
0
0
VERTEX
8
Halfen
62
7
10
 680.834
20
-71.412
30
0
0
VERTEX
8
Halfen
62
7
10
 680.958
20
-70.359
30
0
0
VERTEX
8
Halfen
62
7
10
 681
20
-69.3
30
0
0
SEQEND
8
Halfen
0
POLYLINE
8
Halfen
62
7
66
1
10
0.0
20
0.0
30
0.0
70
1
0
VERTEX
8
Halfen
62
7
10
 765
20
-69.3
30
0
0
VERTEX
8
Halfen
62
7
10
 765
20
-56.8
30
0
0
VERTEX
8
Halfen
62
7
10
 765
20
 69.3
30
0
0
VERTEX
8
Halfen
62
7
10
 764.958
20
 70.359
30
0
0
VERTEX
8
Halfen
62
7
10
 764.834
20
 71.412
30
0
0
VERTEX
8
Halfen
62
7
10
 764.627
20
 72.452
30
0
0
VERTEX
8
Halfen
62
7
10
 764.339
20
 73.472
30
0
0
VERTEX
8
Halfen
62
7
10
 763.972
20
 74.466
30
0
0
VERTEX
8
Halfen
62
7
10
 763.529
20
 75.429
30
0
0
VERTEX
8
Halfen
62
7
10
 763.011
20
 76.354
30
0
0
VERTEX
8
Halfen
62
7
10
 762.422
20
 77.235
30
0
0
VERTEX
8
Halfen
62
7
10
 761.765
20
 78.068
30
0
0
VERTEX
8
Halfen
62
7
10
 761.046
20
 78.846
30
0
0
VERTEX
8
Halfen
62
7
10
 760.268
20
 79.565
30
0
0
VERTEX
8
Halfen
62
7
10
 759.435
20
 80.222
30
0
0
VERTEX
8
Halfen
62
7
10
 758.554
20
 80.811
30
0
0
VERTEX
8
Halfen
62
7
10
 757.629
20
 81.329
30
0
0
VERTEX
8
Halfen
62
7
10
 756.666
20
 81.772
30
0
0
VERTEX
8
Halfen
62
7
10
 755.672
20
 82.139
30
0
0
VERTEX
8
Halfen
62
7
10
 754.652
20
 82.427
30
0
0
VERTEX
8
Halfen
62
7
10
 753.612
20
 82.634
30
0
0
VERTEX
8
Halfen
62
7
10
 752.559
20
 82.758
30
0
0
VERTEX
8
Halfen
62
7
10
 751.5
20
 82.8
30
0
0
VERTEX
8
Halfen
62
7
10
 748.5
20
 82.8
30
0
0
VERTEX
8
Halfen
62
7
10
 747.441
20
 82.758
30
0
0
VERTEX
8
Halfen
62
7
10
 746.388
20
 82.634
30
0
0
VERTEX
8
Halfen
62
7
10
 745.348
20
 82.427
30
0
0
VERTEX
8
Halfen
62
7
10
 744.328
20
 82.139
30
0
0
VERTEX
8
Halfen
62
7
10
 743.334
20
 81.772
30
0
0
VERTEX
8
Halfen
62
7
10
 742.371
20
 81.329
30
0
0
VERTEX
8
Halfen
62
7
10
 741.446
20
 80.811
30
0
0
VERTEX
8
Halfen
62
7
10
 740.565
20
 80.222
30
0
0
VERTEX
8
Halfen
62
7
10
 739.732
20
 79.565
30
0
0
VERTEX
8
Halfen
62
7
10
 738.954
20
 78.846
30
0
0
VERTEX
8
Halfen
62
7
10
 738.235
20
 78.068
30
0
0
VERTEX
8
Halfen
62
7
10
 737.578
20
 77.235
30
0
0
VERTEX
8
Halfen
62
7
10
 736.989
20
 76.354
30
0
0
VERTEX
8
Halfen
62
7
10
 736.471
20
 75.429
30
0
0
VERTEX
8
Halfen
62
7
10
 736.028
20
 74.466
30
0
0
VERTEX
8
Halfen
62
7
10
 735.661
20
 73.472
30
0
0
VERTEX
8
Halfen
62
7
10
 735.373
20
 72.452
30
0
0
VERTEX
8
Halfen
62
7
10
 735.166
20
 71.412
30
0
0
VERTEX
8
Halfen
62
7
10
 735.042
20
 70.359
30
0
0
VERTEX
8
Halfen
62
7
10
 735
20
 69.3
30
0
0
VERTEX
8
Halfen
62
7
10
 735
20
-56.8
30
0
0
VERTEX
8
Halfen
62
7
10
 735
20
-69.3
30
0
0
VERTEX
8
Halfen
62
7
10
 735.042
20
-70.359
30
0
0
VERTEX
8
Halfen
62
7
10
 735.166
20
-71.412
30
0
0
VERTEX
8
Halfen
62
7
10
 735.373
20
-72.452
30
0
0
VERTEX
8
Halfen
62
7
10
 735.661
20
-73.472
30
0
0
VERTEX
8
Halfen
62
7
10
 736.028
20
-74.466
30
0
0
VERTEX
8
Halfen
62
7
10
 736.471
20
-75.429
30
0
0
VERTEX
8
Halfen
62
7
10
 736.989
20
-76.354
30
0
0
VERTEX
8
Halfen
62
7
10
 737.578
20
-77.235
30
0
0
VERTEX
8
Halfen
62
7
10
 738.235
20
-78.068
30
0
0
VERTEX
8
Halfen
62
7
10
 738.954
20
-78.846
30
0
0
VERTEX
8
Halfen
62
7
10
 739.732
20
-79.565
30
0
0
VERTEX
8
Halfen
62
7
10
 740.565
20
-80.222
30
0
0
VERTEX
8
Halfen
62
7
10
 741.446
20
-80.811
30
0
0
VERTEX
8
Halfen
62
7
10
 742.371
20
-81.329
30
0
0
VERTEX
8
Halfen
62
7
10
 743.334
20
-81.772
30
0
0
VERTEX
8
Halfen
62
7
10
 744.328
20
-82.139
30
0
0
VERTEX
8
Halfen
62
7
10
 745.348
20
-82.427
30
0
0
VERTEX
8
Halfen
62
7
10
 746.388
20
-82.634
30
0
0
VERTEX
8
Halfen
62
7
10
 747.441
20
-82.758
30
0
0
VERTEX
8
Halfen
62
7
10
 748.5
20
-82.8
30
0
0
VERTEX
8
Halfen
62
7
10
 751.5
20
-82.8
30
0
0
VERTEX
8
Halfen
62
7
10
 752.559
20
-82.758
30
0
0
VERTEX
8
Halfen
62
7
10
 753.612
20
-82.634
30
0
0
VERTEX
8
Halfen
62
7
10
 754.652
20
-82.427
30
0
0
VERTEX
8
Halfen
62
7
10
 755.672
20
-82.139
30
0
0
VERTEX
8
Halfen
62
7
10
 756.666
20
-81.772
30
0
0
VERTEX
8
Halfen
62
7
10
 757.629
20
-81.329
30
0
0
VERTEX
8
Halfen
62
7
10
 758.554
20
-80.811
30
0
0
VERTEX
8
Halfen
62
7
10
 759.435
20
-80.222
30
0
0
VERTEX
8
Halfen
62
7
10
 760.268
20
-79.565
30
0
0
VERTEX
8
Halfen
62
7
10
 761.046
20
-78.846
30
0
0
VERTEX
8
Halfen
62
7
10
 761.765
20
-78.068
30
0
0
VERTEX
8
Halfen
62
7
10
 762.422
20
-77.235
30
0
0
VERTEX
8
Halfen
62
7
10
 763.011
20
-76.354
30
0
0
VERTEX
8
Halfen
62
7
10
 763.529
20
-75.429
30
0
0
VERTEX
8
Halfen
62
7
10
 763.972
20
-74.466
30
0
0
VERTEX
8
Halfen
62
7
10
 764.339
20
-73.472
30
0
0
VERTEX
8
Halfen
62
7
10
 764.627
20
-72.452
30
0
0
VERTEX
8
Halfen
62
7
10
 764.834
20
-71.412
30
0
0
VERTEX
8
Halfen
62
7
10
 764.958
20
-70.359
30
0
0
VERTEX
8
Halfen
62
7
10
 765
20
-69.3
30
0
0
SEQEND
8
Halfen
0
POLYLINE
8
Halfen
62
7
66
1
10
0.0
20
0.0
30
0.0
70
1
0
VERTEX
8
Halfen
62
7
10
 849
20
-69.3
30
0
0
VERTEX
8
Halfen
62
7
10
 849
20
-56.8
30
0
0
VERTEX
8
Halfen
62
7
10
 849
20
 69.3
30
0
0
VERTEX
8
Halfen
62
7
10
 848.958
20
 70.359
30
0
0
VERTEX
8
Halfen
62
7
10
 848.834
20
 71.412
30
0
0
VERTEX
8
Halfen
62
7
10
 848.627
20
 72.452
30
0
0
VERTEX
8
Halfen
62
7
10
 848.339
20
 73.472
30
0
0
VERTEX
8
Halfen
62
7
10
 847.972
20
 74.466
30
0
0
VERTEX
8
Halfen
62
7
10
 847.529
20
 75.429
30
0
0
VERTEX
8
Halfen
62
7
10
 847.011
20
 76.354
30
0
0
VERTEX
8
Halfen
62
7
10
 846.422
20
 77.235
30
0
0
VERTEX
8
Halfen
62
7
10
 845.765
20
 78.068
30
0
0
VERTEX
8
Halfen
62
7
10
 845.046
20
 78.846
30
0
0
VERTEX
8
Halfen
62
7
10
 844.268
20
 79.565
30
0
0
VERTEX
8
Halfen
62
7
10
 843.435
20
 80.222
30
0
0
VERTEX
8
Halfen
62
7
10
 842.554
20
 80.811
30
0
0
VERTEX
8
Halfen
62
7
10
 841.629
20
 81.329
30
0
0
VERTEX
8
Halfen
62
7
10
 840.666
20
 81.772
30
0
0
VERTEX
8
Halfen
62
7
10
 839.672
20
 82.139
30
0
0
VERTEX
8
Halfen
62
7
10
 838.652
20
 82.427
30
0
0
VERTEX
8
Halfen
62
7
10
 837.612
20
 82.634
30
0
0
VERTEX
8
Halfen
62
7
10
 836.559
20
 82.758
30
0
0
VERTEX
8
Halfen
62
7
10
 835.5
20
 82.8
30
0
0
VERTEX
8
Halfen
62
7
10
 832.5
20
 82.8
30
0
0
VERTEX
8
Halfen
62
7
10
 831.441
20
 82.758
30
0
0
VERTEX
8
Halfen
62
7
10
 830.388
20
 82.634
30
0
0
VERTEX
8
Halfen
62
7
10
 829.348
20
 82.427
30
0
0
VERTEX
8
Halfen
62
7
10
 828.328
20
 82.139
30
0
0
VERTEX
8
Halfen
62
7
10
 827.334
20
 81.772
30
0
0
VERTEX
8
Halfen
62
7
10
 826.371
20
 81.329
30
0
0
VERTEX
8
Halfen
62
7
10
 825.446
20
 80.811
30
0
0
VERTEX
8
Halfen
62
7
10
 824.565
20
 80.222
30
0
0
VERTEX
8
Halfen
62
7
10
 823.732
20
 79.565
30
0
0
VERTEX
8
Halfen
62
7
10
 822.954
20
 78.846
30
0
0
VERTEX
8
Halfen
62
7
10
 822.235
20
 78.068
30
0
0
VERTEX
8
Halfen
62
7
10
 821.578
20
 77.235
30
0
0
VERTEX
8
Halfen
62
7
10
 820.989
20
 76.354
30
0
0
VERTEX
8
Halfen
62
7
10
 820.471
20
 75.429
30
0
0
VERTEX
8
Halfen
62
7
10
 820.028
20
 74.466
30
0
0
VERTEX
8
Halfen
62
7
10
 819.661
20
 73.472
30
0
0
VERTEX
8
Halfen
62
7
10
 819.373
20
 72.452
30
0
0
VERTEX
8
Halfen
62
7
10
 819.166
20
 71.412
30
0
0
VERTEX
8
Halfen
62
7
10
 819.042
20
 70.359
30
0
0
VERTEX
8
Halfen
62
7
10
 819
20
 69.3
30
0
0
VERTEX
8
Halfen
62
7
10
 819
20
-56.8
30
0
0
VERTEX
8
Halfen
62
7
10
 819
20
-69.3
30
0
0
VERTEX
8
Halfen
62
7
10
 819.042
20
-70.359
30
0
0
VERTEX
8
Halfen
62
7
10
 819.166
20
-71.412
30
0
0
VERTEX
8
Halfen
62
7
10
 819.373
20
-72.452
30
0
0
VERTEX
8
Halfen
62
7
10
 819.661
20
-73.472
30
0
0
VERTEX
8
Halfen
62
7
10
 820.028
20
-74.466
30
0
0
VERTEX
8
Halfen
62
7
10
 820.471
20
-75.429
30
0
0
VERTEX
8
Halfen
62
7
10
 820.989
20
-76.354
30
0
0
VERTEX
8
Halfen
62
7
10
 821.578
20
-77.235
30
0
0
VERTEX
8
Halfen
62
7
10
 822.235
20
-78.068
30
0
0
VERTEX
8
Halfen
62
7
10
 822.954
20
-78.846
30
0
0
VERTEX
8
Halfen
62
7
10
 823.732
20
-79.565
30
0
0
VERTEX
8
Halfen
62
7
10
 824.565
20
-80.222
30
0
0
VERTEX
8
Halfen
62
7
10
 825.446
20
-80.811
30
0
0
VERTEX
8
Halfen
62
7
10
 826.371
20
-81.329
30
0
0
VERTEX
8
Halfen
62
7
10
 827.334
20
-81.772
30
0
0
VERTEX
8
Halfen
62
7
10
 828.328
20
-82.139
30
0
0
VERTEX
8
Halfen
62
7
10
 829.348
20
-82.427
30
0
0
VERTEX
8
Halfen
62
7
10
 830.388
20
-82.634
30
0
0
VERTEX
8
Halfen
62
7
10
 831.441
20
-82.758
30
0
0
VERTEX
8
Halfen
62
7
10
 832.5
20
-82.8
30
0
0
VERTEX
8
Halfen
62
7
10
 835.5
20
-82.8
30
0
0
VERTEX
8
Halfen
62
7
10
 836.559
20
-82.758
30
0
0
VERTEX
8
Halfen
62
7
10
 837.612
20
-82.634
30
0
0
VERTEX
8
Halfen
62
7
10
 838.652
20
-82.427
30
0
0
VERTEX
8
Halfen
62
7
10
 839.672
20
-82.139
30
0
0
VERTEX
8
Halfen
62
7
10
 840.666
20
-81.772
30
0
0
VERTEX
8
Halfen
62
7
10
 841.629
20
-81.329
30
0
0
VERTEX
8
Halfen
62
7
10
 842.554
20
-80.811
30
0
0
VERTEX
8
Halfen
62
7
10
 843.435
20
-80.222
30
0
0
VERTEX
8
Halfen
62
7
10
 844.268
20
-79.565
30
0
0
VERTEX
8
Halfen
62
7
10
 845.046
20
-78.846
30
0
0
VERTEX
8
Halfen
62
7
10
 845.765
20
-78.068
30
0
0
VERTEX
8
Halfen
62
7
10
 846.422
20
-77.235
30
0
0
VERTEX
8
Halfen
62
7
10
 847.011
20
-76.354
30
0
0
VERTEX
8
Halfen
62
7
10
 847.529
20
-75.429
30
0
0
VERTEX
8
Halfen
62
7
10
 847.972
20
-74.466
30
0
0
VERTEX
8
Halfen
62
7
10
 848.339
20
-73.472
30
0
0
VERTEX
8
Halfen
62
7
10
 848.627
20
-72.452
30
0
0
VERTEX
8
Halfen
62
7
10
 848.834
20
-71.412
30
0
0
VERTEX
8
Halfen
62
7
10
 848.958
20
-70.359
30
0
0
VERTEX
8
Halfen
62
7
10
 849
20
-69.3
30
0
0
SEQEND
8
Halfen
0
POLYLINE
8
Halfen
62
7
66
1
10
0.0
20
0.0
30
0.0
70
1
0
VERTEX
8
Halfen
62
7
10
 933
20
-69.3
30
0
0
VERTEX
8
Halfen
62
7
10
 933
20
-56.8
30
0
0
VERTEX
8
Halfen
62
7
10
 933
20
 69.3
30
0
0
VERTEX
8
Halfen
62
7
10
 932.958
20
 70.359
30
0
0
VERTEX
8
Halfen
62
7
10
 932.834
20
 71.412
30
0
0
VERTEX
8
Halfen
62
7
10
 932.627
20
 72.452
30
0
0
VERTEX
8
Halfen
62
7
10
 932.339
20
 73.472
30
0
0
VERTEX
8
Halfen
62
7
10
 931.972
20
 74.466
30
0
0
VERTEX
8
Halfen
62
7
10
 931.529
20
 75.429
30
0
0
VERTEX
8
Halfen
62
7
10
 931.011
20
 76.354
30
0
0
VERTEX
8
Halfen
62
7
10
 930.422
20
 77.235
30
0
0
VERTEX
8
Halfen
62
7
10
 929.765
20
 78.068
30
0
0
VERTEX
8
Halfen
62
7
10
 929.046
20
 78.846
30
0
0
VERTEX
8
Halfen
62
7
10
 928.268
20
 79.565
30
0
0
VERTEX
8
Halfen
62
7
10
 927.435
20
 80.222
30
0
0
VERTEX
8
Halfen
62
7
10
 926.554
20
 80.811
30
0
0
VERTEX
8
Halfen
62
7
10
 925.629
20
 81.329
30
0
0
VERTEX
8
Halfen
62
7
10
 924.666
20
 81.772
30
0
0
VERTEX
8
Halfen
62
7
10
 923.672
20
 82.139
30
0
0
VERTEX
8
Halfen
62
7
10
 922.652
20
 82.427
30
0
0
VERTEX
8
Halfen
62
7
10
 921.612
20
 82.634
30
0
0
VERTEX
8
Halfen
62
7
10
 920.559
20
 82.758
30
0
0
VERTEX
8
Halfen
62
7
10
 919.5
20
 82.8
30
0
0
VERTEX
8
Halfen
62
7
10
 916.5
20
 82.8
30
0
0
VERTEX
8
Halfen
62
7
10
 915.441
20
 82.758
30
0
0
VERTEX
8
Halfen
62
7
10
 914.388
20
 82.634
30
0
0
VERTEX
8
Halfen
62
7
10
 913.348
20
 82.427
30
0
0
VERTEX
8
Halfen
62
7
10
 912.328
20
 82.139
30
0
0
VERTEX
8
Halfen
62
7
10
 911.334
20
 81.772
30
0
0
VERTEX
8
Halfen
62
7
10
 910.371
20
 81.329
30
0
0
VERTEX
8
Halfen
62
7
10
 909.446
20
 80.811
30
0
0
VERTEX
8
Halfen
62
7
10
 908.565
20
 80.222
30
0
0
VERTEX
8
Halfen
62
7
10
 907.732
20
 79.565
30
0
0
VERTEX
8
Halfen
62
7
10
 906.954
20
 78.846
30
0
0
VERTEX
8
Halfen
62
7
10
 906.235
20
 78.068
30
0
0
VERTEX
8
Halfen
62
7
10
 905.578
20
 77.235
30
0
0
VERTEX
8
Halfen
62
7
10
 904.989
20
 76.354
30
0
0
VERTEX
8
Halfen
62
7
10
 904.471
20
 75.429
30
0
0
VERTEX
8
Halfen
62
7
10
 904.028
20
 74.466
30
0
0
VERTEX
8
Halfen
62
7
10
 903.661
20
 73.472
30
0
0
VERTEX
8
Halfen
62
7
10
 903.373
20
 72.452
30
0
0
VERTEX
8
Halfen
62
7
10
 903.166
20
 71.412
30
0
0
VERTEX
8
Halfen
62
7
10
 903.042
20
 70.359
30
0
0
VERTEX
8
Halfen
62
7
10
 903
20
 69.3
30
0
0
VERTEX
8
Halfen
62
7
10
 903
20
-56.8
30
0
0
VERTEX
8
Halfen
62
7
10
 903
20
-69.3
30
0
0
VERTEX
8
Halfen
62
7
10
 903.042
20
-70.359
30
0
0
VERTEX
8
Halfen
62
7
10
 903.166
20
-71.412
30
0
0
VERTEX
8
Halfen
62
7
10
 903.373
20
-72.452
30
0
0
VERTEX
8
Halfen
62
7
10
 903.661
20
-73.472
30
0
0
VERTEX
8
Halfen
62
7
10
 904.028
20
-74.466
30
0
0
VERTEX
8
Halfen
62
7
10
 904.471
20
-75.429
30
0
0
VERTEX
8
Halfen
62
7
10
 904.989
20
-76.354
30
0
0
VERTEX
8
Halfen
62
7
10
 905.578
20
-77.235
30
0
0
VERTEX
8
Halfen
62
7
10
 906.235
20
-78.068
30
0
0
VERTEX
8
Halfen
62
7
10
 906.954
20
-78.846
30
0
0
VERTEX
8
Halfen
62
7
10
 907.732
20
-79.565
30
0
0
VERTEX
8
Halfen
62
7
10
 908.565
20
-80.222
30
0
0
VERTEX
8
Halfen
62
7
10
 909.446
20
-80.811
30
0
0
VERTEX
8
Halfen
62
7
10
 910.371
20
-81.329
30
0
0
VERTEX
8
Halfen
62
7
10
 911.334
20
-81.772
30
0
0
VERTEX
8
Halfen
62
7
10
 912.328
20
-82.139
30
0
0
VERTEX
8
Halfen
62
7
10
 913.348
20
-82.427
30
0
0
VERTEX
8
Halfen
62
7
10
 914.388
20
-82.634
30
0
0
VERTEX
8
Halfen
62
7
10
 915.441
20
-82.758
30
0
0
VERTEX
8
Halfen
62
7
10
 916.5
20
-82.8
30
0
0
VERTEX
8
Halfen
62
7
10
 919.5
20
-82.8
30
0
0
VERTEX
8
Halfen
62
7
10
 920.559
20
-82.758
30
0
0
VERTEX
8
Halfen
62
7
10
 921.612
20
-82.634
30
0
0
VERTEX
8
Halfen
62
7
10
 922.652
20
-82.427
30
0
0
VERTEX
8
Halfen
62
7
10
 923.672
20
-82.139
30
0
0
VERTEX
8
Halfen
62
7
10
 924.666
20
-81.772
30
0
0
VERTEX
8
Halfen
62
7
10
 925.629
20
-81.329
30
0
0
VERTEX
8
Halfen
62
7
10
 926.554
20
-80.811
30
0
0
VERTEX
8
Halfen
62
7
10
 927.435
20
-80.222
30
0
0
VERTEX
8
Halfen
62
7
10
 928.268
20
-79.565
30
0
0
VERTEX
8
Halfen
62
7
10
 929.046
20
-78.846
30
0
0
VERTEX
8
Halfen
62
7
10
 929.765
20
-78.068
30
0
0
VERTEX
8
Halfen
62
7
10
 930.422
20
-77.235
30
0
0
VERTEX
8
Halfen
62
7
10
 931.011
20
-76.354
30
0
0
VERTEX
8
Halfen
62
7
10
 931.529
20
-75.429
30
0
0
VERTEX
8
Halfen
62
7
10
 931.972
20
-74.466
30
0
0
VERTEX
8
Halfen
62
7
10
 932.339
20
-73.472
30
0
0
VERTEX
8
Halfen
62
7
10
 932.627
20
-72.452
30
0
0
VERTEX
8
Halfen
62
7
10
 932.834
20
-71.412
30
0
0
VERTEX
8
Halfen
62
7
10
 932.958
20
-70.359
30
0
0
VERTEX
8
Halfen
62
7
10
 933
20
-69.3
30
0
0
SEQEND
8
Halfen
0
POLYLINE
8
Halfen
62
7
66
1
10
0.0
20
0.0
30
0.0
70
1
0
VERTEX
8
Halfen
62
7
10
 76
20
-775
30
0
0
VERTEX
8
Halfen
62
7
10
 76
20
-160
30
0
0
VERTEX
8
Halfen
62
7
10
 64
20
-160
30
0
0
VERTEX
8
Halfen
62
7
10
 64
20
-775
30
0
0
SEQEND
8
Halfen
0
POLYLINE
8
Halfen
62
7
66
1
10
0.0
20
0.0
30
0.0
70
1
0
VERTEX
8
Halfen
62
7
10
 75.25
20
-160
30
0
0
VERTEX
8
Halfen
62
7
10
 75.25
20
-62
30
0
0
VERTEX
8
Halfen
62
7
10
 64.75
20
-62
30
0
0
VERTEX
8
Halfen
62
7
10
 64.75
20
-160
30
0
0
SEQEND
8
Halfen
0
POLYLINE
8
Halfen
62
7
66
1
10
0.0
20
0.0
30
0.0
70
1
0
VERTEX
8
Halfen
62
7
10
 76
20
-62
30
0
0
VERTEX
8
Halfen
62
7
10
 76
20
-60
30
0
0
VERTEX
8
Halfen
62
7
10
 64
20
-60
30
0
0
VERTEX
8
Halfen
62
7
10
 64
20
-62
30
0
0
SEQEND
8
Halfen
0
POLYLINE
8
Halfen
62
7
66
1
10
0.0
20
0.0
30
0.0
70
1
0
VERTEX
8
Halfen
62
7
10
 75.25
20
-60
30
0
0
VERTEX
8
Halfen
62
7
10
 75.25
20
 60
30
0
0
VERTEX
8
Halfen
62
7
10
 64.75
20
 60
30
0
0
VERTEX
8
Halfen
62
7
10
 64.75
20
-60
30
0
0
SEQEND
8
Halfen
0
POLYLINE
8
Halfen
62
7
66
1
10
0.0
20
0.0
30
0.0
70
1
0
VERTEX
8
Halfen
62
7
10
 76
20
 60
30
0
0
VERTEX
8
Halfen
62
7
10
 76
20
 62
30
0
0
VERTEX
8
Halfen
62
7
10
 64
20
 62
30
0
0
VERTEX
8
Halfen
62
7
10
 64
20
 60
30
0
0
SEQEND
8
Halfen
0
POLYLINE
8
Halfen
62
7
66
1
10
0.0
20
0.0
30
0.0
70
1
0
VERTEX
8
Halfen
62
7
10
 75.25
20
 62
30
0
0
VERTEX
8
Halfen
62
7
10
 75.25
20
 160
30
0
0
VERTEX
8
Halfen
62
7
10
 64.75
20
 160
30
0
0
VERTEX
8
Halfen
62
7
10
 64.75
20
 62
30
0
0
SEQEND
8
Halfen
0
POLYLINE
8
Halfen
62
7
66
1
10
0.0
20
0.0
30
0.0
70
1
0
VERTEX
8
Halfen
62
7
10
 76
20
 160
30
0
0
VERTEX
8
Halfen
62
7
10
 76
20
 775
30
0
0
VERTEX
8
Halfen
62
7
10
 64
20
 775
30
0
0
VERTEX
8
Halfen
62
7
10
 64
20
 160
30
0
0
SEQEND
8
Halfen
0
POLYLINE
8
Halfen
62
7
66
1
10
0.0
20
0.0
30
0.0
70
1
0
VERTEX
8
Halfen
62
7
10
 166
20
-775
30
0
0
VERTEX
8
Halfen
62
7
10
 166
20
-160
30
0
0
VERTEX
8
Halfen
62
7
10
 154
20
-160
30
0
0
VERTEX
8
Halfen
62
7
10
 154
20
-775
30
0
0
SEQEND
8
Halfen
0
POLYLINE
8
Halfen
62
7
66
1
10
0.0
20
0.0
30
0.0
70
1
0
VERTEX
8
Halfen
62
7
10
 165.25
20
-160
30
0
0
VERTEX
8
Halfen
62
7
10
 165.25
20
-62
30
0
0
VERTEX
8
Halfen
62
7
10
 154.75
20
-62
30
0
0
VERTEX
8
Halfen
62
7
10
 154.75
20
-160
30
0
0
SEQEND
8
Halfen
0
POLYLINE
8
Halfen
62
7
66
1
10
0.0
20
0.0
30
0.0
70
1
0
VERTEX
8
Halfen
62
7
10
 166
20
-62
30
0
0
VERTEX
8
Halfen
62
7
10
 166
20
-60
30
0
0
VERTEX
8
Halfen
62
7
10
 154
20
-60
30
0
0
VERTEX
8
Halfen
62
7
10
 154
20
-62
30
0
0
SEQEND
8
Halfen
0
POLYLINE
8
Halfen
62
7
66
1
10
0.0
20
0.0
30
0.0
70
1
0
VERTEX
8
Halfen
62
7
10
 165.25
20
-60
30
0
0
VERTEX
8
Halfen
62
7
10
 165.25
20
 60
30
0
0
VERTEX
8
Halfen
62
7
10
 154.75
20
 60
30
0
0
VERTEX
8
Halfen
62
7
10
 154.75
20
-60
30
0
0
SEQEND
8
Halfen
0
POLYLINE
8
Halfen
62
7
66
1
10
0.0
20
0.0
30
0.0
70
1
0
VERTEX
8
Halfen
62
7
10
 166
20
 60
30
0
0
VERTEX
8
Halfen
62
7
10
 166
20
 62
30
0
0
VERTEX
8
Halfen
62
7
10
 154
20
 62
30
0
0
VERTEX
8
Halfen
62
7
10
 154
20
 60
30
0
0
SEQEND
8
Halfen
0
POLYLINE
8
Halfen
62
7
66
1
10
0.0
20
0.0
30
0.0
70
1
0
VERTEX
8
Halfen
62
7
10
 165.25
20
 62
30
0
0
VERTEX
8
Halfen
62
7
10
 165.25
20
 160
30
0
0
VERTEX
8
Halfen
62
7
10
 154.75
20
 160
30
0
0
VERTEX
8
Halfen
62
7
10
 154.75
20
 62
30
0
0
SEQEND
8
Halfen
0
POLYLINE
8
Halfen
62
7
66
1
10
0.0
20
0.0
30
0.0
70
1
0
VERTEX
8
Halfen
62
7
10
 166
20
 160
30
0
0
VERTEX
8
Halfen
62
7
10
 166
20
 775
30
0
0
VERTEX
8
Halfen
62
7
10
 154
20
 775
30
0
0
VERTEX
8
Halfen
62
7
10
 154
20
 160
30
0
0
SEQEND
8
Halfen
0
POLYLINE
8
Halfen
62
7
66
1
10
0.0
20
0.0
30
0.0
70
1
0
VERTEX
8
Halfen
62
7
10
 256
20
-775
30
0
0
VERTEX
8
Halfen
62
7
10
 256
20
-160
30
0
0
VERTEX
8
Halfen
62
7
10
 244
20
-160
30
0
0
VERTEX
8
Halfen
62
7
10
 244
20
-775
30
0
0
SEQEND
8
Halfen
0
POLYLINE
8
Halfen
62
7
66
1
10
0.0
20
0.0
30
0.0
70
1
0
VERTEX
8
Halfen
62
7
10
 255.25
20
-160
30
0
0
VERTEX
8
Halfen
62
7
10
 255.25
20
-62
30
0
0
VERTEX
8
Halfen
62
7
10
 244.75
20
-62
30
0
0
VERTEX
8
Halfen
62
7
10
 244.75
20
-160
30
0
0
SEQEND
8
Halfen
0
POLYLINE
8
Halfen
62
7
66
1
10
0.0
20
0.0
30
0.0
70
1
0
VERTEX
8
Halfen
62
7
10
 256
20
-62
30
0
0
VERTEX
8
Halfen
62
7
10
 256
20
-60
30
0
0
VERTEX
8
Halfen
62
7
10
 244
20
-60
30
0
0
VERTEX
8
Halfen
62
7
10
 244
20
-62
30
0
0
SEQEND
8
Halfen
0
POLYLINE
8
Halfen
62
7
66
1
10
0.0
20
0.0
30
0.0
70
1
0
VERTEX
8
Halfen
62
7
10
 255.25
20
-60
30
0
0
VERTEX
8
Halfen
62
7
10
 255.25
20
 60
30
0
0
VERTEX
8
Halfen
62
7
10
 244.75
20
 60
30
0
0
VERTEX
8
Halfen
62
7
10
 244.75
20
-60
30
0
0
SEQEND
8
Halfen
0
POLYLINE
8
Halfen
62
7
66
1
10
0.0
20
0.0
30
0.0
70
1
0
VERTEX
8
Halfen
62
7
10
 256
20
 60
30
0
0
VERTEX
8
Halfen
62
7
10
 256
20
 62
30
0
0
VERTEX
8
Halfen
62
7
10
 244
20
 62
30
0
0
VERTEX
8
Halfen
62
7
10
 244
20
 60
30
0
0
SEQEND
8
Halfen
0
POLYLINE
8
Halfen
62
7
66
1
10
0.0
20
0.0
30
0.0
70
1
0
VERTEX
8
Halfen
62
7
10
 255.25
20
 62
30
0
0
VERTEX
8
Halfen
62
7
10
 255.25
20
 160
30
0
0
VERTEX
8
Halfen
62
7
10
 244.75
20
 160
30
0
0
VERTEX
8
Halfen
62
7
10
 244.75
20
 62
30
0
0
SEQEND
8
Halfen
0
POLYLINE
8
Halfen
62
7
66
1
10
0.0
20
0.0
30
0.0
70
1
0
VERTEX
8
Halfen
62
7
10
 256
20
 160
30
0
0
VERTEX
8
Halfen
62
7
10
 256
20
 775
30
0
0
VERTEX
8
Halfen
62
7
10
 244
20
 775
30
0
0
VERTEX
8
Halfen
62
7
10
 244
20
 160
30
0
0
SEQEND
8
Halfen
0
POLYLINE
8
Halfen
62
7
66
1
10
0.0
20
0.0
30
0.0
70
1
0
VERTEX
8
Halfen
62
7
10
 346
20
-775
30
0
0
VERTEX
8
Halfen
62
7
10
 346
20
-160
30
0
0
VERTEX
8
Halfen
62
7
10
 334
20
-160
30
0
0
VERTEX
8
Halfen
62
7
10
 334
20
-775
30
0
0
SEQEND
8
Halfen
0
POLYLINE
8
Halfen
62
7
66
1
10
0.0
20
0.0
30
0.0
70
1
0
VERTEX
8
Halfen
62
7
10
 345.25
20
-160
30
0
0
VERTEX
8
Halfen
62
7
10
 345.25
20
-62
30
0
0
VERTEX
8
Halfen
62
7
10
 334.75
20
-62
30
0
0
VERTEX
8
Halfen
62
7
10
 334.75
20
-160
30
0
0
SEQEND
8
Halfen
0
POLYLINE
8
Halfen
62
7
66
1
10
0.0
20
0.0
30
0.0
70
1
0
VERTEX
8
Halfen
62
7
10
 346
20
-62
30
0
0
VERTEX
8
Halfen
62
7
10
 346
20
-60
30
0
0
VERTEX
8
Halfen
62
7
10
 334
20
-60
30
0
0
VERTEX
8
Halfen
62
7
10
 334
20
-62
30
0
0
SEQEND
8
Halfen
0
POLYLINE
8
Halfen
62
7
66
1
10
0.0
20
0.0
30
0.0
70
1
0
VERTEX
8
Halfen
62
7
10
 345.25
20
-60
30
0
0
VERTEX
8
Halfen
62
7
10
 345.25
20
 60
30
0
0
VERTEX
8
Halfen
62
7
10
 334.75
20
 60
30
0
0
VERTEX
8
Halfen
62
7
10
 334.75
20
-60
30
0
0
SEQEND
8
Halfen
0
POLYLINE
8
Halfen
62
7
66
1
10
0.0
20
0.0
30
0.0
70
1
0
VERTEX
8
Halfen
62
7
10
 346
20
 60
30
0
0
VERTEX
8
Halfen
62
7
10
 346
20
 62
30
0
0
VERTEX
8
Halfen
62
7
10
 334
20
 62
30
0
0
VERTEX
8
Halfen
62
7
10
 334
20
 60
30
0
0
SEQEND
8
Halfen
0
POLYLINE
8
Halfen
62
7
66
1
10
0.0
20
0.0
30
0.0
70
1
0
VERTEX
8
Halfen
62
7
10
 345.25
20
 62
30
0
0
VERTEX
8
Halfen
62
7
10
 345.25
20
 160
30
0
0
VERTEX
8
Halfen
62
7
10
 334.75
20
 160
30
0
0
VERTEX
8
Halfen
62
7
10
 334.75
20
 62
30
0
0
SEQEND
8
Halfen
0
POLYLINE
8
Halfen
62
7
66
1
10
0.0
20
0.0
30
0.0
70
1
0
VERTEX
8
Halfen
62
7
10
 346
20
 160
30
0
0
VERTEX
8
Halfen
62
7
10
 346
20
 775
30
0
0
VERTEX
8
Halfen
62
7
10
 334
20
 775
30
0
0
VERTEX
8
Halfen
62
7
10
 334
20
 160
30
0
0
SEQEND
8
Halfen
0
POLYLINE
8
Halfen
62
7
66
1
10
0.0
20
0.0
30
0.0
70
1
0
VERTEX
8
Halfen
62
7
10
 436
20
-775
30
0
0
VERTEX
8
Halfen
62
7
10
 436
20
-160
30
0
0
VERTEX
8
Halfen
62
7
10
 424
20
-160
30
0
0
VERTEX
8
Halfen
62
7
10
 424
20
-775
30
0
0
SEQEND
8
Halfen
0
POLYLINE
8
Halfen
62
7
66
1
10
0.0
20
0.0
30
0.0
70
1
0
VERTEX
8
Halfen
62
7
10
 435.25
20
-160
30
0
0
VERTEX
8
Halfen
62
7
10
 435.25
20
-62
30
0
0
VERTEX
8
Halfen
62
7
10
 424.75
20
-62
30
0
0
VERTEX
8
Halfen
62
7
10
 424.75
20
-160
30
0
0
SEQEND
8
Halfen
0
POLYLINE
8
Halfen
62
7
66
1
10
0.0
20
0.0
30
0.0
70
1
0
VERTEX
8
Halfen
62
7
10
 436
20
-62
30
0
0
VERTEX
8
Halfen
62
7
10
 436
20
-60
30
0
0
VERTEX
8
Halfen
62
7
10
 424
20
-60
30
0
0
VERTEX
8
Halfen
62
7
10
 424
20
-62
30
0
0
SEQEND
8
Halfen
0
POLYLINE
8
Halfen
62
7
66
1
10
0.0
20
0.0
30
0.0
70
1
0
VERTEX
8
Halfen
62
7
10
 435.25
20
-60
30
0
0
VERTEX
8
Halfen
62
7
10
 435.25
20
 60
30
0
0
VERTEX
8
Halfen
62
7
10
 424.75
20
 60
30
0
0
VERTEX
8
Halfen
62
7
10
 424.75
20
-60
30
0
0
SEQEND
8
Halfen
0
POLYLINE
8
Halfen
62
7
66
1
10
0.0
20
0.0
30
0.0
70
1
0
VERTEX
8
Halfen
62
7
10
 436
20
 60
30
0
0
VERTEX
8
Halfen
62
7
10
 436
20
 62
30
0
0
VERTEX
8
Halfen
62
7
10
 424
20
 62
30
0
0
VERTEX
8
Halfen
62
7
10
 424
20
 60
30
0
0
SEQEND
8
Halfen
0
POLYLINE
8
Halfen
62
7
66
1
10
0.0
20
0.0
30
0.0
70
1
0
VERTEX
8
Halfen
62
7
10
 435.25
20
 62
30
0
0
VERTEX
8
Halfen
62
7
10
 435.25
20
 160
30
0
0
VERTEX
8
Halfen
62
7
10
 424.75
20
 160
30
0
0
VERTEX
8
Halfen
62
7
10
 424.75
20
 62
30
0
0
SEQEND
8
Halfen
0
POLYLINE
8
Halfen
62
7
66
1
10
0.0
20
0.0
30
0.0
70
1
0
VERTEX
8
Halfen
62
7
10
 436
20
 160
30
0
0
VERTEX
8
Halfen
62
7
10
 436
20
 775
30
0
0
VERTEX
8
Halfen
62
7
10
 424
20
 775
30
0
0
VERTEX
8
Halfen
62
7
10
 424
20
 160
30
0
0
SEQEND
8
Halfen
0
POLYLINE
8
Halfen
62
7
66
1
10
0.0
20
0.0
30
0.0
70
1
0
VERTEX
8
Halfen
62
7
10
 576
20
-775
30
0
0
VERTEX
8
Halfen
62
7
10
 576
20
-160
30
0
0
VERTEX
8
Halfen
62
7
10
 564
20
-160
30
0
0
VERTEX
8
Halfen
62
7
10
 564
20
-775
30
0
0
SEQEND
8
Halfen
0
POLYLINE
8
Halfen
62
7
66
1
10
0.0
20
0.0
30
0.0
70
1
0
VERTEX
8
Halfen
62
7
10
 575.25
20
-160
30
0
0
VERTEX
8
Halfen
62
7
10
 575.25
20
-62
30
0
0
VERTEX
8
Halfen
62
7
10
 564.75
20
-62
30
0
0
VERTEX
8
Halfen
62
7
10
 564.75
20
-160
30
0
0
SEQEND
8
Halfen
0
POLYLINE
8
Halfen
62
7
66
1
10
0.0
20
0.0
30
0.0
70
1
0
VERTEX
8
Halfen
62
7
10
 576
20
-62
30
0
0
VERTEX
8
Halfen
62
7
10
 576
20
-60
30
0
0
VERTEX
8
Halfen
62
7
10
 564
20
-60
30
0
0
VERTEX
8
Halfen
62
7
10
 564
20
-62
30
0
0
SEQEND
8
Halfen
0
POLYLINE
8
Halfen
62
7
66
1
10
0.0
20
0.0
30
0.0
70
1
0
VERTEX
8
Halfen
62
7
10
 575.25
20
-60
30
0
0
VERTEX
8
Halfen
62
7
10
 575.25
20
 60
30
0
0
VERTEX
8
Halfen
62
7
10
 564.75
20
 60
30
0
0
VERTEX
8
Halfen
62
7
10
 564.75
20
-60
30
0
0
SEQEND
8
Halfen
0
POLYLINE
8
Halfen
62
7
66
1
10
0.0
20
0.0
30
0.0
70
1
0
VERTEX
8
Halfen
62
7
10
 576
20
 60
30
0
0
VERTEX
8
Halfen
62
7
10
 576
20
 62
30
0
0
VERTEX
8
Halfen
62
7
10
 564
20
 62
30
0
0
VERTEX
8
Halfen
62
7
10
 564
20
 60
30
0
0
SEQEND
8
Halfen
0
POLYLINE
8
Halfen
62
7
66
1
10
0.0
20
0.0
30
0.0
70
1
0
VERTEX
8
Halfen
62
7
10
 575.25
20
 62
30
0
0
VERTEX
8
Halfen
62
7
10
 575.25
20
 160
30
0
0
VERTEX
8
Halfen
62
7
10
 564.75
20
 160
30
0
0
VERTEX
8
Halfen
62
7
10
 564.75
20
 62
30
0
0
SEQEND
8
Halfen
0
POLYLINE
8
Halfen
62
7
66
1
10
0.0
20
0.0
30
0.0
70
1
0
VERTEX
8
Halfen
62
7
10
 576
20
 160
30
0
0
VERTEX
8
Halfen
62
7
10
 576
20
 775
30
0
0
VERTEX
8
Halfen
62
7
10
 564
20
 775
30
0
0
VERTEX
8
Halfen
62
7
10
 564
20
 160
30
0
0
SEQEND
8
Halfen
0
POLYLINE
8
Halfen
62
7
66
1
10
0.0
20
0.0
30
0.0
70
1
0
VERTEX
8
Halfen
62
7
10
 666
20
-775
30
0
0
VERTEX
8
Halfen
62
7
10
 666
20
-160
30
0
0
VERTEX
8
Halfen
62
7
10
 654
20
-160
30
0
0
VERTEX
8
Halfen
62
7
10
 654
20
-775
30
0
0
SEQEND
8
Halfen
0
POLYLINE
8
Halfen
62
7
66
1
10
0.0
20
0.0
30
0.0
70
1
0
VERTEX
8
Halfen
62
7
10
 665.25
20
-160
30
0
0
VERTEX
8
Halfen
62
7
10
 665.25
20
-62
30
0
0
VERTEX
8
Halfen
62
7
10
 654.75
20
-62
30
0
0
VERTEX
8
Halfen
62
7
10
 654.75
20
-160
30
0
0
SEQEND
8
Halfen
0
POLYLINE
8
Halfen
62
7
66
1
10
0.0
20
0.0
30
0.0
70
1
0
VERTEX
8
Halfen
62
7
10
 666
20
-62
30
0
0
VERTEX
8
Halfen
62
7
10
 666
20
-60
30
0
0
VERTEX
8
Halfen
62
7
10
 654
20
-60
30
0
0
VERTEX
8
Halfen
62
7
10
 654
20
-62
30
0
0
SEQEND
8
Halfen
0
POLYLINE
8
Halfen
62
7
66
1
10
0.0
20
0.0
30
0.0
70
1
0
VERTEX
8
Halfen
62
7
10
 665.25
20
-60
30
0
0
VERTEX
8
Halfen
62
7
10
 665.25
20
 60
30
0
0
VERTEX
8
Halfen
62
7
10
 654.75
20
 60
30
0
0
VERTEX
8
Halfen
62
7
10
 654.75
20
-60
30
0
0
SEQEND
8
Halfen
0
POLYLINE
8
Halfen
62
7
66
1
10
0.0
20
0.0
30
0.0
70
1
0
VERTEX
8
Halfen
62
7
10
 666
20
 60
30
0
0
VERTEX
8
Halfen
62
7
10
 666
20
 62
30
0
0
VERTEX
8
Halfen
62
7
10
 654
20
 62
30
0
0
VERTEX
8
Halfen
62
7
10
 654
20
 60
30
0
0
SEQEND
8
Halfen
0
POLYLINE
8
Halfen
62
7
66
1
10
0.0
20
0.0
30
0.0
70
1
0
VERTEX
8
Halfen
62
7
10
 665.25
20
 62
30
0
0
VERTEX
8
Halfen
62
7
10
 665.25
20
 160
30
0
0
VERTEX
8
Halfen
62
7
10
 654.75
20
 160
30
0
0
VERTEX
8
Halfen
62
7
10
 654.75
20
 62
30
0
0
SEQEND
8
Halfen
0
POLYLINE
8
Halfen
62
7
66
1
10
0.0
20
0.0
30
0.0
70
1
0
VERTEX
8
Halfen
62
7
10
 666
20
 160
30
0
0
VERTEX
8
Halfen
62
7
10
 666
20
 775
30
0
0
VERTEX
8
Halfen
62
7
10
 654
20
 775
30
0
0
VERTEX
8
Halfen
62
7
10
 654
20
 160
30
0
0
SEQEND
8
Halfen
0
POLYLINE
8
Halfen
62
7
66
1
10
0.0
20
0.0
30
0.0
70
1
0
VERTEX
8
Halfen
62
7
10
 756
20
-775
30
0
0
VERTEX
8
Halfen
62
7
10
 756
20
-160
30
0
0
VERTEX
8
Halfen
62
7
10
 744
20
-160
30
0
0
VERTEX
8
Halfen
62
7
10
 744
20
-775
30
0
0
SEQEND
8
Halfen
0
POLYLINE
8
Halfen
62
7
66
1
10
0.0
20
0.0
30
0.0
70
1
0
VERTEX
8
Halfen
62
7
10
 755.25
20
-160
30
0
0
VERTEX
8
Halfen
62
7
10
 755.25
20
-62
30
0
0
VERTEX
8
Halfen
62
7
10
 744.75
20
-62
30
0
0
VERTEX
8
Halfen
62
7
10
 744.75
20
-160
30
0
0
SEQEND
8
Halfen
0
POLYLINE
8
Halfen
62
7
66
1
10
0.0
20
0.0
30
0.0
70
1
0
VERTEX
8
Halfen
62
7
10
 756
20
-62
30
0
0
VERTEX
8
Halfen
62
7
10
 756
20
-60
30
0
0
VERTEX
8
Halfen
62
7
10
 744
20
-60
30
0
0
VERTEX
8
Halfen
62
7
10
 744
20
-62
30
0
0
SEQEND
8
Halfen
0
POLYLINE
8
Halfen
62
7
66
1
10
0.0
20
0.0
30
0.0
70
1
0
VERTEX
8
Halfen
62
7
10
 755.25
20
-60
30
0
0
VERTEX
8
Halfen
62
7
10
 755.25
20
 60
30
0
0
VERTEX
8
Halfen
62
7
10
 744.75
20
 60
30
0
0
VERTEX
8
Halfen
62
7
10
 744.75
20
-60
30
0
0
SEQEND
8
Halfen
0
POLYLINE
8
Halfen
62
7
66
1
10
0.0
20
0.0
30
0.0
70
1
0
VERTEX
8
Halfen
62
7
10
 756
20
 60
30
0
0
VERTEX
8
Halfen
62
7
10
 756
20
 62
30
0
0
VERTEX
8
Halfen
62
7
10
 744
20
 62
30
0
0
VERTEX
8
Halfen
62
7
10
 744
20
 60
30
0
0
SEQEND
8
Halfen
0
POLYLINE
8
Halfen
62
7
66
1
10
0.0
20
0.0
30
0.0
70
1
0
VERTEX
8
Halfen
62
7
10
 755.25
20
 62
30
0
0
VERTEX
8
Halfen
62
7
10
 755.25
20
 160
30
0
0
VERTEX
8
Halfen
62
7
10
 744.75
20
 160
30
0
0
VERTEX
8
Halfen
62
7
10
 744.75
20
 62
30
0
0
SEQEND
8
Halfen
0
POLYLINE
8
Halfen
62
7
66
1
10
0.0
20
0.0
30
0.0
70
1
0
VERTEX
8
Halfen
62
7
10
 756
20
 160
30
0
0
VERTEX
8
Halfen
62
7
10
 756
20
 775
30
0
0
VERTEX
8
Halfen
62
7
10
 744
20
 775
30
0
0
VERTEX
8
Halfen
62
7
10
 744
20
 160
30
0
0
SEQEND
8
Halfen
0
POLYLINE
8
Halfen
62
7
66
1
10
0.0
20
0.0
30
0.0
70
1
0
VERTEX
8
Halfen
62
7
10
 846
20
-775
30
0
0
VERTEX
8
Halfen
62
7
10
 846
20
-160
30
0
0
VERTEX
8
Halfen
62
7
10
 834
20
-160
30
0
0
VERTEX
8
Halfen
62
7
10
 834
20
-775
30
0
0
SEQEND
8
Halfen
0
POLYLINE
8
Halfen
62
7
66
1
10
0.0
20
0.0
30
0.0
70
1
0
VERTEX
8
Halfen
62
7
10
 845.25
20
-160
30
0
0
VERTEX
8
Halfen
62
7
10
 845.25
20
-62
30
0
0
VERTEX
8
Halfen
62
7
10
 834.75
20
-62
30
0
0
VERTEX
8
Halfen
62
7
10
 834.75
20
-160
30
0
0
SEQEND
8
Halfen
0
POLYLINE
8
Halfen
62
7
66
1
10
0.0
20
0.0
30
0.0
70
1
0
VERTEX
8
Halfen
62
7
10
 846
20
-62
30
0
0
VERTEX
8
Halfen
62
7
10
 846
20
-60
30
0
0
VERTEX
8
Halfen
62
7
10
 834
20
-60
30
0
0
VERTEX
8
Halfen
62
7
10
 834
20
-62
30
0
0
SEQEND
8
Halfen
0
POLYLINE
8
Halfen
62
7
66
1
10
0.0
20
0.0
30
0.0
70
1
0
VERTEX
8
Halfen
62
7
10
 845.25
20
-60
30
0
0
VERTEX
8
Halfen
62
7
10
 845.25
20
 60
30
0
0
VERTEX
8
Halfen
62
7
10
 834.75
20
 60
30
0
0
VERTEX
8
Halfen
62
7
10
 834.75
20
-60
30
0
0
SEQEND
8
Halfen
0
POLYLINE
8
Halfen
62
7
66
1
10
0.0
20
0.0
30
0.0
70
1
0
VERTEX
8
Halfen
62
7
10
 846
20
 60
30
0
0
VERTEX
8
Halfen
62
7
10
 846
20
 62
30
0
0
VERTEX
8
Halfen
62
7
10
 834
20
 62
30
0
0
VERTEX
8
Halfen
62
7
10
 834
20
 60
30
0
0
SEQEND
8
Halfen
0
POLYLINE
8
Halfen
62
7
66
1
10
0.0
20
0.0
30
0.0
70
1
0
VERTEX
8
Halfen
62
7
10
 845.25
20
 62
30
0
0
VERTEX
8
Halfen
62
7
10
 845.25
20
 160
30
0
0
VERTEX
8
Halfen
62
7
10
 834.75
20
 160
30
0
0
VERTEX
8
Halfen
62
7
10
 834.75
20
 62
30
0
0
SEQEND
8
Halfen
0
POLYLINE
8
Halfen
62
7
66
1
10
0.0
20
0.0
30
0.0
70
1
0
VERTEX
8
Halfen
62
7
10
 846
20
 160
30
0
0
VERTEX
8
Halfen
62
7
10
 846
20
 775
30
0
0
VERTEX
8
Halfen
62
7
10
 834
20
 775
30
0
0
VERTEX
8
Halfen
62
7
10
 834
20
 160
30
0
0
SEQEND
8
Halfen
0
POLYLINE
8
Halfen
62
7
66
1
10
0.0
20
0.0
30
0.0
70
1
0
VERTEX
8
Halfen
62
7
10
 936
20
-775
30
0
0
VERTEX
8
Halfen
62
7
10
 936
20
-160
30
0
0
VERTEX
8
Halfen
62
7
10
 924
20
-160
30
0
0
VERTEX
8
Halfen
62
7
10
 924
20
-775
30
0
0
SEQEND
8
Halfen
0
POLYLINE
8
Halfen
62
7
66
1
10
0.0
20
0.0
30
0.0
70
1
0
VERTEX
8
Halfen
62
7
10
 935.25
20
-160
30
0
0
VERTEX
8
Halfen
62
7
10
 935.25
20
-62
30
0
0
VERTEX
8
Halfen
62
7
10
 924.75
20
-62
30
0
0
VERTEX
8
Halfen
62
7
10
 924.75
20
-160
30
0
0
SEQEND
8
Halfen
0
POLYLINE
8
Halfen
62
7
66
1
10
0.0
20
0.0
30
0.0
70
1
0
VERTEX
8
Halfen
62
7
10
 936
20
-62
30
0
0
VERTEX
8
Halfen
62
7
10
 936
20
-60
30
0
0
VERTEX
8
Halfen
62
7
10
 924
20
-60
30
0
0
VERTEX
8
Halfen
62
7
10
 924
20
-62
30
0
0
SEQEND
8
Halfen
0
POLYLINE
8
Halfen
62
7
66
1
10
0.0
20
0.0
30
0.0
70
1
0
VERTEX
8
Halfen
62
7
10
 935.25
20
-60
30
0
0
VERTEX
8
Halfen
62
7
10
 935.25
20
 60
30
0
0
VERTEX
8
Halfen
62
7
10
 924.75
20
 60
30
0
0
VERTEX
8
Halfen
62
7
10
 924.75
20
-60
30
0
0
SEQEND
8
Halfen
0
POLYLINE
8
Halfen
62
7
66
1
10
0.0
20
0.0
30
0.0
70
1
0
VERTEX
8
Halfen
62
7
10
 936
20
 60
30
0
0
VERTEX
8
Halfen
62
7
10
 936
20
 62
30
0
0
VERTEX
8
Halfen
62
7
10
 924
20
 62
30
0
0
VERTEX
8
Halfen
62
7
10
 924
20
 60
30
0
0
SEQEND
8
Halfen
0
POLYLINE
8
Halfen
62
7
66
1
10
0.0
20
0.0
30
0.0
70
1
0
VERTEX
8
Halfen
62
7
10
 935.25
20
 62
30
0
0
VERTEX
8
Halfen
62
7
10
 935.25
20
 160
30
0
0
VERTEX
8
Halfen
62
7
10
 924.75
20
 160
30
0
0
VERTEX
8
Halfen
62
7
10
 924.75
20
 62
30
0
0
SEQEND
8
Halfen
0
POLYLINE
8
Halfen
62
7
66
1
10
0.0
20
0.0
30
0.0
70
1
0
VERTEX
8
Halfen
62
7
10
 936
20
 160
30
0
0
VERTEX
8
Halfen
62
7
10
 936
20
 775
30
0
0
VERTEX
8
Halfen
62
7
10
 924
20
 775
30
0
0
VERTEX
8
Halfen
62
7
10
 924
20
 160
30
0
0
SEQEND
8
Halfen
0
POLYLINE
8
Halfen
62
7
66
1
10
0.0
20
0.0
30
0.0
70
1
0
VERTEX
8
Halfen
62
7
10
 1510
20
-60
30
0
0
VERTEX
8
Halfen
62
7
10
 1510
20
 60
30
0
0
VERTEX
8
Halfen
62
7
10
 1496.5
20
 73.5
30
0
0
VERTEX
8
Halfen
62
7
10
 1496.5
20
 60
30
0
0
VERTEX
8
Halfen
62
7
10
 1270
20
 60
30
0
0
VERTEX
8
Halfen
62
7
10
 1270
20
-60
30
0
0
VERTEX
8
Halfen
62
7
10
 1496.5
20
-60
30
0
0
VERTEX
8
Halfen
62
7
10
 1496.5
20
-73.5
30
0
0
SEQEND
8
Halfen
0
POLYLINE
8
Halfen
62
7
66
1
10
0.0
20
0.0
30
0.0
70
1
0
VERTEX
8
Halfen
62
7
10
 1270
20
-60
30
0
0
VERTEX
8
Halfen
62
7
10
 1270
20
 60
30
0
0
VERTEX
8
Halfen
62
7
10
 1213.5
20
 60
30
0
0
VERTEX
8
Halfen
62
7
10
 1213.5
20
 73.5
30
0
0
VERTEX
8
Halfen
62
7
10
 1200
20
 60
30
0
0
VERTEX
8
Halfen
62
7
10
 1200
20
-60
30
0
0
VERTEX
8
Halfen
62
7
10
 1213.5
20
-73.5
30
0
0
VERTEX
8
Halfen
62
7
10
 1213.5
20
-60
30
0
0
SEQEND
8
Halfen
0
POLYLINE
8
Halfen
62
7
66
1
10
0.0
20
0.0
30
0.0
70
1
0
VERTEX
8
Halfen
62
7
10
 1507.5
20
-58.75
30
0
0
VERTEX
8
Halfen
62
7
10
 1507.5
20
 58.75
30
0
0
VERTEX
8
Halfen
62
7
10
 1499
20
 67.25
30
0
0
VERTEX
8
Halfen
62
7
10
 1499
20
 58
30
0
0
VERTEX
8
Halfen
62
7
10
 1272
20
 58
30
0
0
VERTEX
8
Halfen
62
7
10
 1272
20
-58
30
0
0
VERTEX
8
Halfen
62
7
10
 1499
20
-58
30
0
0
VERTEX
8
Halfen
62
7
10
 1499
20
-67.25
30
0
0
SEQEND
8
Halfen
0
POLYLINE
8
Halfen
62
7
66
1
10
0.0
20
0.0
30
0.0
70
1
0
VERTEX
8
Halfen
62
7
10
 1268
20
-58
30
0
0
VERTEX
8
Halfen
62
7
10
 1268
20
 58
30
0
0
VERTEX
8
Halfen
62
7
10
 1211
20
 58
30
0
0
VERTEX
8
Halfen
62
7
10
 1211
20
 67.25
30
0
0
VERTEX
8
Halfen
62
7
10
 1202.5
20
 58.75
30
0
0
VERTEX
8
Halfen
62
7
10
 1202.5
20
-58.75
30
0
0
VERTEX
8
Halfen
62
7
10
 1211
20
-67.25
30
0
0
VERTEX
8
Halfen
62
7
10
 1211
20
-58
30
0
0
SEQEND
8
Halfen
0
POLYLINE
8
Halfen
62
7
66
1
10
0.0
20
0.0
30
0.0
70
1
0
VERTEX
8
Halfen
62
7
10
 1495
20
-81.8
30
0
0
VERTEX
8
Halfen
62
7
10
 1495
20
 81.8
30
0
0
VERTEX
8
Halfen
62
7
10
 1491
20
 81.8
30
0
0
VERTEX
8
Halfen
62
7
10
 1490.846
20
 81.797
30
0
0
VERTEX
8
Halfen
62
7
10
 1490.691
20
 81.786
30
0
0
VERTEX
8
Halfen
62
7
10
 1490.538
20
 81.769
30
0
0
VERTEX
8
Halfen
62
7
10
 1490.385
20
 81.746
30
0
0
VERTEX
8
Halfen
62
7
10
 1490.234
20
 81.715
30
0
0
VERTEX
8
Halfen
62
7
10
 1490.084
20
 81.678
30
0
0
VERTEX
8
Halfen
62
7
10
 1489.936
20
 81.634
30
0
0
VERTEX
8
Halfen
62
7
10
 1489.789
20
 81.584
30
0
0
VERTEX
8
Halfen
62
7
10
 1489.646
20
 81.527
30
0
0
VERTEX
8
Halfen
62
7
10
 1489.505
20
 81.464
30
0
0
VERTEX
8
Halfen
62
7
10
 1489.366
20
 81.395
30
0
0
VERTEX
8
Halfen
62
7
10
 1489.231
20
 81.32
30
0
0
VERTEX
8
Halfen
62
7
10
 1489.1
20
 81.239
30
0
0
VERTEX
8
Halfen
62
7
10
 1488.972
20
 81.153
30
0
0
VERTEX
8
Halfen
62
7
10
 1488.848
20
 81.06
30
0
0
VERTEX
8
Halfen
62
7
10
 1488.728
20
 80.963
30
0
0
VERTEX
8
Halfen
62
7
10
 1488.613
20
 80.86
30
0
0
VERTEX
8
Halfen
62
7
10
 1488.502
20
 80.752
30
0
0
VERTEX
8
Halfen
62
7
10
 1488.397
20
 80.639
30
0
0
VERTEX
8
Halfen
62
7
10
 1488.296
20
 80.522
30
0
0
VERTEX
8
Halfen
62
7
10
 1487.41
20
 79.491
30
0
0
VERTEX
8
Halfen
62
7
10
 1486.479
20
 78.5
30
0
0
VERTEX
8
Halfen
62
7
10
 1485.505
20
 77.551
30
0
0
VERTEX
8
Halfen
62
7
10
 1484.491
20
 76.646
30
0
0
VERTEX
8
Halfen
62
7
10
 1483.437
20
 75.787
30
0
0
VERTEX
8
Halfen
62
7
10
 1482.347
20
 74.975
30
0
0
VERTEX
8
Halfen
62
7
10
 1481.222
20
 74.211
30
0
0
VERTEX
8
Halfen
62
7
10
 1480.064
20
 73.499
30
0
0
VERTEX
8
Halfen
62
7
10
 1478.876
20
 72.838
30
0
0
VERTEX
8
Halfen
62
7
10
 1477.66
20
 72.23
30
0
0
VERTEX
8
Halfen
62
7
10
 1476.418
20
 71.676
30
0
0
VERTEX
8
Halfen
62
7
10
 1475.153
20
 71.178
30
0
0
VERTEX
8
Halfen
62
7
10
 1473.867
20
 70.736
30
0
0
VERTEX
8
Halfen
62
7
10
 1472.563
20
 70.351
30
0
0
VERTEX
8
Halfen
62
7
10
 1471.243
20
 70.024
30
0
0
VERTEX
8
Halfen
62
7
10
 1469.911
20
 69.756
30
0
0
VERTEX
8
Halfen
62
7
10
 1468.567
20
 69.547
30
0
0
VERTEX
8
Halfen
62
7
10
 1467.216
20
 69.397
30
0
0
VERTEX
8
Halfen
62
7
10
 1465.859
20
 69.307
30
0
0
VERTEX
8
Halfen
62
7
10
 1464.5
20
 69.277
30
0
0
VERTEX
8
Halfen
62
7
10
 1442.5
20
 69.277
30
0
0
VERTEX
8
Halfen
62
7
10
 1441.141
20
 69.307
30
0
0
VERTEX
8
Halfen
62
7
10
 1439.784
20
 69.397
30
0
0
VERTEX
8
Halfen
62
7
10
 1438.433
20
 69.547
30
0
0
VERTEX
8
Halfen
62
7
10
 1437.089
20
 69.756
30
0
0
VERTEX
8
Halfen
62
7
10
 1435.757
20
 70.024
30
0
0
VERTEX
8
Halfen
62
7
10
 1434.437
20
 70.351
30
0
0
VERTEX
8
Halfen
62
7
10
 1433.133
20
 70.736
30
0
0
VERTEX
8
Halfen
62
7
10
 1431.847
20
 71.178
30
0
0
VERTEX
8
Halfen
62
7
10
 1430.582
20
 71.676
30
0
0
VERTEX
8
Halfen
62
7
10
 1429.34
20
 72.23
30
0
0
VERTEX
8
Halfen
62
7
10
 1428.124
20
 72.838
30
0
0
VERTEX
8
Halfen
62
7
10
 1426.936
20
 73.499
30
0
0
VERTEX
8
Halfen
62
7
10
 1425.778
20
 74.211
30
0
0
VERTEX
8
Halfen
62
7
10
 1424.653
20
 74.975
30
0
0
VERTEX
8
Halfen
62
7
10
 1423.563
20
 75.787
30
0
0
VERTEX
8
Halfen
62
7
10
 1422.509
20
 76.646
30
0
0
VERTEX
8
Halfen
62
7
10
 1421.495
20
 77.551
30
0
0
VERTEX
8
Halfen
62
7
10
 1420.521
20
 78.5
30
0
0
VERTEX
8
Halfen
62
7
10
 1419.59
20
 79.491
30
0
0
VERTEX
8
Halfen
62
7
10
 1418.704
20
 80.522
30
0
0
VERTEX
8
Halfen
62
7
10
 1418.603
20
 80.639
30
0
0
VERTEX
8
Halfen
62
7
10
 1418.498
20
 80.752
30
0
0
VERTEX
8
Halfen
62
7
10
 1418.387
20
 80.86
30
0
0
VERTEX
8
Halfen
62
7
10
 1418.272
20
 80.963
30
0
0
VERTEX
8
Halfen
62
7
10
 1418.152
20
 81.06
30
0
0
VERTEX
8
Halfen
62
7
10
 1418.028
20
 81.153
30
0
0
VERTEX
8
Halfen
62
7
10
 1417.9
20
 81.239
30
0
0
VERTEX
8
Halfen
62
7
10
 1417.769
20
 81.32
30
0
0
VERTEX
8
Halfen
62
7
10
 1417.634
20
 81.395
30
0
0
VERTEX
8
Halfen
62
7
10
 1417.495
20
 81.464
30
0
0
VERTEX
8
Halfen
62
7
10
 1417.354
20
 81.527
30
0
0
VERTEX
8
Halfen
62
7
10
 1417.211
20
 81.584
30
0
0
VERTEX
8
Halfen
62
7
10
 1417.064
20
 81.634
30
0
0
VERTEX
8
Halfen
62
7
10
 1416.916
20
 81.678
30
0
0
VERTEX
8
Halfen
62
7
10
 1416.766
20
 81.715
30
0
0
VERTEX
8
Halfen
62
7
10
 1416.615
20
 81.746
30
0
0
VERTEX
8
Halfen
62
7
10
 1416.462
20
 81.769
30
0
0
VERTEX
8
Halfen
62
7
10
 1416.309
20
 81.786
30
0
0
VERTEX
8
Halfen
62
7
10
 1416.154
20
 81.797
30
0
0
VERTEX
8
Halfen
62
7
10
 1416
20
 81.8
30
0
0
VERTEX
8
Halfen
62
7
10
 1412
20
 81.8
30
0
0
VERTEX
8
Halfen
62
7
10
 1412
20
-81.8
30
0
0
VERTEX
8
Halfen
62
7
10
 1416
20
-81.8
30
0
0
VERTEX
8
Halfen
62
7
10
 1416.154
20
-81.797
30
0
0
VERTEX
8
Halfen
62
7
10
 1416.309
20
-81.786
30
0
0
VERTEX
8
Halfen
62
7
10
 1416.462
20
-81.769
30
0
0
VERTEX
8
Halfen
62
7
10
 1416.615
20
-81.746
30
0
0
VERTEX
8
Halfen
62
7
10
 1416.766
20
-81.715
30
0
0
VERTEX
8
Halfen
62
7
10
 1416.916
20
-81.678
30
0
0
VERTEX
8
Halfen
62
7
10
 1417.064
20
-81.634
30
0
0
VERTEX
8
Halfen
62
7
10
 1417.211
20
-81.584
30
0
0
VERTEX
8
Halfen
62
7
10
 1417.354
20
-81.527
30
0
0
VERTEX
8
Halfen
62
7
10
 1417.495
20
-81.464
30
0
0
VERTEX
8
Halfen
62
7
10
 1417.634
20
-81.395
30
0
0
VERTEX
8
Halfen
62
7
10
 1417.769
20
-81.32
30
0
0
VERTEX
8
Halfen
62
7
10
 1417.9
20
-81.239
30
0
0
VERTEX
8
Halfen
62
7
10
 1418.028
20
-81.153
30
0
0
VERTEX
8
Halfen
62
7
10
 1418.152
20
-81.06
30
0
0
VERTEX
8
Halfen
62
7
10
 1418.272
20
-80.963
30
0
0
VERTEX
8
Halfen
62
7
10
 1418.387
20
-80.86
30
0
0
VERTEX
8
Halfen
62
7
10
 1418.498
20
-80.752
30
0
0
VERTEX
8
Halfen
62
7
10
 1418.603
20
-80.639
30
0
0
VERTEX
8
Halfen
62
7
10
 1418.704
20
-80.522
30
0
0
VERTEX
8
Halfen
62
7
10
 1419.59
20
-79.491
30
0
0
VERTEX
8
Halfen
62
7
10
 1420.521
20
-78.5
30
0
0
VERTEX
8
Halfen
62
7
10
 1421.495
20
-77.551
30
0
0
VERTEX
8
Halfen
62
7
10
 1422.509
20
-76.646
30
0
0
VERTEX
8
Halfen
62
7
10
 1423.563
20
-75.787
30
0
0
VERTEX
8
Halfen
62
7
10
 1424.653
20
-74.975
30
0
0
VERTEX
8
Halfen
62
7
10
 1425.778
20
-74.211
30
0
0
VERTEX
8
Halfen
62
7
10
 1426.936
20
-73.499
30
0
0
VERTEX
8
Halfen
62
7
10
 1428.124
20
-72.838
30
0
0
VERTEX
8
Halfen
62
7
10
 1429.34
20
-72.23
30
0
0
VERTEX
8
Halfen
62
7
10
 1430.582
20
-71.676
30
0
0
VERTEX
8
Halfen
62
7
10
 1431.847
20
-71.178
30
0
0
VERTEX
8
Halfen
62
7
10
 1433.133
20
-70.736
30
0
0
VERTEX
8
Halfen
62
7
10
 1434.437
20
-70.351
30
0
0
VERTEX
8
Halfen
62
7
10
 1435.757
20
-70.024
30
0
0
VERTEX
8
Halfen
62
7
10
 1437.089
20
-69.756
30
0
0
VERTEX
8
Halfen
62
7
10
 1438.433
20
-69.547
30
0
0
VERTEX
8
Halfen
62
7
10
 1439.784
20
-69.397
30
0
0
VERTEX
8
Halfen
62
7
10
 1441.141
20
-69.307
30
0
0
VERTEX
8
Halfen
62
7
10
 1442.5
20
-69.277
30
0
0
VERTEX
8
Halfen
62
7
10
 1464.5
20
-69.277
30
0
0
VERTEX
8
Halfen
62
7
10
 1465.859
20
-69.307
30
0
0
VERTEX
8
Halfen
62
7
10
 1467.216
20
-69.397
30
0
0
VERTEX
8
Halfen
62
7
10
 1468.567
20
-69.547
30
0
0
VERTEX
8
Halfen
62
7
10
 1469.911
20
-69.756
30
0
0
VERTEX
8
Halfen
62
7
10
 1471.243
20
-70.024
30
0
0
VERTEX
8
Halfen
62
7
10
 1472.563
20
-70.351
30
0
0
VERTEX
8
Halfen
62
7
10
 1473.867
20
-70.736
30
0
0
VERTEX
8
Halfen
62
7
10
 1475.153
20
-71.178
30
0
0
VERTEX
8
Halfen
62
7
10
 1476.418
20
-71.676
30
0
0
VERTEX
8
Halfen
62
7
10
 1477.66
20
-72.23
30
0
0
VERTEX
8
Halfen
62
7
10
 1478.876
20
-72.838
30
0
0
VERTEX
8
Halfen
62
7
10
 1480.064
20
-73.499
30
0
0
VERTEX
8
Halfen
62
7
10
 1481.222
20
-74.211
30
0
0
VERTEX
8
Halfen
62
7
10
 1482.347
20
-74.975
30
0
0
VERTEX
8
Halfen
62
7
10
 1483.437
20
-75.787
30
0
0
VERTEX
8
Halfen
62
7
10
 1484.491
20
-76.646
30
0
0
VERTEX
8
Halfen
62
7
10
 1485.505
20
-77.551
30
0
0
VERTEX
8
Halfen
62
7
10
 1486.479
20
-78.5
30
0
0
VERTEX
8
Halfen
62
7
10
 1487.41
20
-79.491
30
0
0
VERTEX
8
Halfen
62
7
10
 1488.296
20
-80.522
30
0
0
VERTEX
8
Halfen
62
7
10
 1488.397
20
-80.639
30
0
0
VERTEX
8
Halfen
62
7
10
 1488.502
20
-80.752
30
0
0
VERTEX
8
Halfen
62
7
10
 1488.613
20
-80.86
30
0
0
VERTEX
8
Halfen
62
7
10
 1488.728
20
-80.963
30
0
0
VERTEX
8
Halfen
62
7
10
 1488.848
20
-81.06
30
0
0
VERTEX
8
Halfen
62
7
10
 1488.972
20
-81.153
30
0
0
VERTEX
8
Halfen
62
7
10
 1489.1
20
-81.239
30
0
0
VERTEX
8
Halfen
62
7
10
 1489.231
20
-81.32
30
0
0
VERTEX
8
Halfen
62
7
10
 1489.366
20
-81.395
30
0
0
VERTEX
8
Halfen
62
7
10
 1489.505
20
-81.464
30
0
0
VERTEX
8
Halfen
62
7
10
 1489.646
20
-81.527
30
0
0
VERTEX
8
Halfen
62
7
10
 1489.789
20
-81.584
30
0
0
VERTEX
8
Halfen
62
7
10
 1489.936
20
-81.634
30
0
0
VERTEX
8
Halfen
62
7
10
 1490.084
20
-81.678
30
0
0
VERTEX
8
Halfen
62
7
10
 1490.234
20
-81.715
30
0
0
VERTEX
8
Halfen
62
7
10
 1490.385
20
-81.746
30
0
0
VERTEX
8
Halfen
62
7
10
 1490.538
20
-81.769
30
0
0
VERTEX
8
Halfen
62
7
10
 1490.691
20
-81.786
30
0
0
VERTEX
8
Halfen
62
7
10
 1490.846
20
-81.797
30
0
0
VERTEX
8
Halfen
62
7
10
 1491
20
-81.8
30
0
0
SEQEND
8
Halfen
0
POLYLINE
8
Halfen
62
7
66
1
10
0.0
20
0.0
30
0.0
70
1
0
VERTEX
8
Halfen
62
7
10
 1262
20
-775
30
0
0
VERTEX
8
Halfen
62
7
10
 1262
20
-160
30
0
0
VERTEX
8
Halfen
62
7
10
 1250
20
-160
30
0
0
VERTEX
8
Halfen
62
7
10
 1250
20
-775
30
0
0
SEQEND
8
Halfen
0
POLYLINE
8
Halfen
62
7
66
1
10
0.0
20
0.0
30
0.0
70
1
0
VERTEX
8
Halfen
62
7
10
 1261.25
20
-160
30
0
0
VERTEX
8
Halfen
62
7
10
 1261.25
20
-62
30
0
0
VERTEX
8
Halfen
62
7
10
 1250.75
20
-62
30
0
0
VERTEX
8
Halfen
62
7
10
 1250.75
20
-160
30
0
0
SEQEND
8
Halfen
0
POLYLINE
8
Halfen
62
7
66
1
10
0.0
20
0.0
30
0.0
70
1
0
VERTEX
8
Halfen
62
7
10
 1262
20
-62
30
0
0
VERTEX
8
Halfen
62
7
10
 1262
20
-60
30
0
0
VERTEX
8
Halfen
62
7
10
 1250
20
-60
30
0
0
VERTEX
8
Halfen
62
7
10
 1250
20
-62
30
0
0
SEQEND
8
Halfen
0
POLYLINE
8
Halfen
62
7
66
1
10
0.0
20
0.0
30
0.0
70
1
0
VERTEX
8
Halfen
62
7
10
 1261.25
20
-60
30
0
0
VERTEX
8
Halfen
62
7
10
 1261.25
20
 60
30
0
0
VERTEX
8
Halfen
62
7
10
 1250.75
20
 60
30
0
0
VERTEX
8
Halfen
62
7
10
 1250.75
20
-60
30
0
0
SEQEND
8
Halfen
0
POLYLINE
8
Halfen
62
7
66
1
10
0.0
20
0.0
30
0.0
70
1
0
VERTEX
8
Halfen
62
7
10
 1262
20
 60
30
0
0
VERTEX
8
Halfen
62
7
10
 1262
20
 62
30
0
0
VERTEX
8
Halfen
62
7
10
 1250
20
 62
30
0
0
VERTEX
8
Halfen
62
7
10
 1250
20
 60
30
0
0
SEQEND
8
Halfen
0
POLYLINE
8
Halfen
62
7
66
1
10
0.0
20
0.0
30
0.0
70
1
0
VERTEX
8
Halfen
62
7
10
 1261.25
20
 62
30
0
0
VERTEX
8
Halfen
62
7
10
 1261.25
20
 160
30
0
0
VERTEX
8
Halfen
62
7
10
 1250.75
20
 160
30
0
0
VERTEX
8
Halfen
62
7
10
 1250.75
20
 62
30
0
0
SEQEND
8
Halfen
0
POLYLINE
8
Halfen
62
7
66
1
10
0.0
20
0.0
30
0.0
70
1
0
VERTEX
8
Halfen
62
7
10
 1262
20
 160
30
0
0
VERTEX
8
Halfen
62
7
10
 1262
20
 775
30
0
0
VERTEX
8
Halfen
62
7
10
 1250
20
 775
30
0
0
VERTEX
8
Halfen
62
7
10
 1250
20
 160
30
0
0
SEQEND
8
Halfen
0
ENDSEC
0
EOF
