0
SECTION
2
HEADER
9
$EXTMIN
10
 0
20
 100
30
0.0
9
$EXTMAX
10
 0
20
 100
30
0.0
9
$LIMMIN
10
 100
20
 0
9
$LIMMAX
10
 0
20
 100
9
$PSLTSCALE
70
1
0
ENDSEC
0
SECTION
2
TABLES
0
TABLE
2
LAYER
70
2
0
LAYER
2
0
70
0
62
7
6
CONTINUOUS
0
LAYER
2
Halfen
70
0
62
7
6
CONTINUOUS
0
ENDTAB
0
ENDSEC
0
SECTION
2
ENTITIES
0
POLYLINE
8
Halfen
62
7
66
1
10
0.0
20
0.0
30
0.0
70
1
0
VERTEX
8
Halfen
62
7
10
 0
20
-73.5
30
0
0
VERTEX
8
Halfen
62
7
10
 500
20
-73.5
30
0
0
VERTEX
8
Halfen
62
7
10
 500
20
 73.5
30
0
0
VERTEX
8
Halfen
62
7
10
 0
20
 73.5
30
0
0
SEQEND
8
Halfen
0
POLYLINE
8
Halfen
62
7
66
1
10
0.0
20
0.0
30
0.0
70
1
0
VERTEX
8
Halfen
62
7
10
 0
20
-60
30
0
0
VERTEX
8
Halfen
62
7
10
 500
20
-60
30
0
0
VERTEX
8
Halfen
62
7
10
 500
20
 60
30
0
0
VERTEX
8
Halfen
62
7
10
 0
20
 60
30
0
0
SEQEND
8
Halfen
0
POLYLINE
8
Halfen
62
7
66
1
10
0.0
20
0.0
30
0.0
70
1
0
VERTEX
8
Halfen
62
7
10
 20
20
-32.5
30
0
0
VERTEX
8
Halfen
62
7
10
 37
20
-1.5
30
0
0
VERTEX
8
Halfen
62
7
10
 28
20
-1.5
30
0
0
VERTEX
8
Halfen
62
7
10
 28
20
 32.5
30
0
0
VERTEX
8
Halfen
62
7
10
 12
20
 32.5
30
0
0
VERTEX
8
Halfen
62
7
10
 12
20
-1.5
30
0
0
VERTEX
8
Halfen
62
7
10
 3
20
-1.5
30
0
0
SEQEND
8
Halfen
0
POLYLINE
8
Halfen
62
7
66
1
10
0.0
20
0.0
30
0.0
70
1
0
VERTEX
8
Halfen
62
7
10
 480
20
-32.5
30
0
0
VERTEX
8
Halfen
62
7
10
 497
20
-1.5
30
0
0
VERTEX
8
Halfen
62
7
10
 488
20
-1.5
30
0
0
VERTEX
8
Halfen
62
7
10
 488
20
 32.5
30
0
0
VERTEX
8
Halfen
62
7
10
 472
20
 32.5
30
0
0
VERTEX
8
Halfen
62
7
10
 472
20
-1.5
30
0
0
VERTEX
8
Halfen
62
7
10
 463
20
-1.5
30
0
0
SEQEND
8
Halfen
0
POLYLINE
8
Halfen
62
7
66
1
10
0.0
20
0.0
30
0.0
70
1
0
VERTEX
8
Halfen
62
7
10
 265
20
-69.3
30
0
0
VERTEX
8
Halfen
62
7
10
 265
20
-56.8
30
0
0
VERTEX
8
Halfen
62
7
10
 265
20
 69.3
30
0
0
VERTEX
8
Halfen
62
7
10
 264.958
20
 70.359
30
0
0
VERTEX
8
Halfen
62
7
10
 264.834
20
 71.412
30
0
0
VERTEX
8
Halfen
62
7
10
 264.627
20
 72.452
30
0
0
VERTEX
8
Halfen
62
7
10
 264.339
20
 73.472
30
0
0
VERTEX
8
Halfen
62
7
10
 263.972
20
 74.466
30
0
0
VERTEX
8
Halfen
62
7
10
 263.529
20
 75.429
30
0
0
VERTEX
8
Halfen
62
7
10
 263.011
20
 76.354
30
0
0
VERTEX
8
Halfen
62
7
10
 262.422
20
 77.235
30
0
0
VERTEX
8
Halfen
62
7
10
 261.765
20
 78.068
30
0
0
VERTEX
8
Halfen
62
7
10
 261.046
20
 78.846
30
0
0
VERTEX
8
Halfen
62
7
10
 260.268
20
 79.565
30
0
0
VERTEX
8
Halfen
62
7
10
 259.435
20
 80.222
30
0
0
VERTEX
8
Halfen
62
7
10
 258.554
20
 80.811
30
0
0
VERTEX
8
Halfen
62
7
10
 257.629
20
 81.329
30
0
0
VERTEX
8
Halfen
62
7
10
 256.666
20
 81.772
30
0
0
VERTEX
8
Halfen
62
7
10
 255.672
20
 82.139
30
0
0
VERTEX
8
Halfen
62
7
10
 254.652
20
 82.427
30
0
0
VERTEX
8
Halfen
62
7
10
 253.612
20
 82.634
30
0
0
VERTEX
8
Halfen
62
7
10
 252.559
20
 82.758
30
0
0
VERTEX
8
Halfen
62
7
10
 251.5
20
 82.8
30
0
0
VERTEX
8
Halfen
62
7
10
 248.5
20
 82.8
30
0
0
VERTEX
8
Halfen
62
7
10
 247.441
20
 82.758
30
0
0
VERTEX
8
Halfen
62
7
10
 246.388
20
 82.634
30
0
0
VERTEX
8
Halfen
62
7
10
 245.348
20
 82.427
30
0
0
VERTEX
8
Halfen
62
7
10
 244.328
20
 82.139
30
0
0
VERTEX
8
Halfen
62
7
10
 243.334
20
 81.772
30
0
0
VERTEX
8
Halfen
62
7
10
 242.371
20
 81.329
30
0
0
VERTEX
8
Halfen
62
7
10
 241.446
20
 80.811
30
0
0
VERTEX
8
Halfen
62
7
10
 240.565
20
 80.222
30
0
0
VERTEX
8
Halfen
62
7
10
 239.732
20
 79.565
30
0
0
VERTEX
8
Halfen
62
7
10
 238.954
20
 78.846
30
0
0
VERTEX
8
Halfen
62
7
10
 238.235
20
 78.068
30
0
0
VERTEX
8
Halfen
62
7
10
 237.578
20
 77.235
30
0
0
VERTEX
8
Halfen
62
7
10
 236.989
20
 76.354
30
0
0
VERTEX
8
Halfen
62
7
10
 236.471
20
 75.429
30
0
0
VERTEX
8
Halfen
62
7
10
 236.028
20
 74.466
30
0
0
VERTEX
8
Halfen
62
7
10
 235.661
20
 73.472
30
0
0
VERTEX
8
Halfen
62
7
10
 235.373
20
 72.452
30
0
0
VERTEX
8
Halfen
62
7
10
 235.166
20
 71.412
30
0
0
VERTEX
8
Halfen
62
7
10
 235.042
20
 70.359
30
0
0
VERTEX
8
Halfen
62
7
10
 235
20
 69.3
30
0
0
VERTEX
8
Halfen
62
7
10
 235
20
-56.8
30
0
0
VERTEX
8
Halfen
62
7
10
 235
20
-69.3
30
0
0
VERTEX
8
Halfen
62
7
10
 235.042
20
-70.359
30
0
0
VERTEX
8
Halfen
62
7
10
 235.166
20
-71.412
30
0
0
VERTEX
8
Halfen
62
7
10
 235.373
20
-72.452
30
0
0
VERTEX
8
Halfen
62
7
10
 235.661
20
-73.472
30
0
0
VERTEX
8
Halfen
62
7
10
 236.028
20
-74.466
30
0
0
VERTEX
8
Halfen
62
7
10
 236.471
20
-75.429
30
0
0
VERTEX
8
Halfen
62
7
10
 236.989
20
-76.354
30
0
0
VERTEX
8
Halfen
62
7
10
 237.578
20
-77.235
30
0
0
VERTEX
8
Halfen
62
7
10
 238.235
20
-78.068
30
0
0
VERTEX
8
Halfen
62
7
10
 238.954
20
-78.846
30
0
0
VERTEX
8
Halfen
62
7
10
 239.732
20
-79.565
30
0
0
VERTEX
8
Halfen
62
7
10
 240.565
20
-80.222
30
0
0
VERTEX
8
Halfen
62
7
10
 241.446
20
-80.811
30
0
0
VERTEX
8
Halfen
62
7
10
 242.371
20
-81.329
30
0
0
VERTEX
8
Halfen
62
7
10
 243.334
20
-81.772
30
0
0
VERTEX
8
Halfen
62
7
10
 244.328
20
-82.139
30
0
0
VERTEX
8
Halfen
62
7
10
 245.348
20
-82.427
30
0
0
VERTEX
8
Halfen
62
7
10
 246.388
20
-82.634
30
0
0
VERTEX
8
Halfen
62
7
10
 247.441
20
-82.758
30
0
0
VERTEX
8
Halfen
62
7
10
 248.5
20
-82.8
30
0
0
VERTEX
8
Halfen
62
7
10
 251.5
20
-82.8
30
0
0
VERTEX
8
Halfen
62
7
10
 252.559
20
-82.758
30
0
0
VERTEX
8
Halfen
62
7
10
 253.612
20
-82.634
30
0
0
VERTEX
8
Halfen
62
7
10
 254.652
20
-82.427
30
0
0
VERTEX
8
Halfen
62
7
10
 255.672
20
-82.139
30
0
0
VERTEX
8
Halfen
62
7
10
 256.666
20
-81.772
30
0
0
VERTEX
8
Halfen
62
7
10
 257.629
20
-81.329
30
0
0
VERTEX
8
Halfen
62
7
10
 258.554
20
-80.811
30
0
0
VERTEX
8
Halfen
62
7
10
 259.435
20
-80.222
30
0
0
VERTEX
8
Halfen
62
7
10
 260.268
20
-79.565
30
0
0
VERTEX
8
Halfen
62
7
10
 261.046
20
-78.846
30
0
0
VERTEX
8
Halfen
62
7
10
 261.765
20
-78.068
30
0
0
VERTEX
8
Halfen
62
7
10
 262.422
20
-77.235
30
0
0
VERTEX
8
Halfen
62
7
10
 263.011
20
-76.354
30
0
0
VERTEX
8
Halfen
62
7
10
 263.529
20
-75.429
30
0
0
VERTEX
8
Halfen
62
7
10
 263.972
20
-74.466
30
0
0
VERTEX
8
Halfen
62
7
10
 264.339
20
-73.472
30
0
0
VERTEX
8
Halfen
62
7
10
 264.627
20
-72.452
30
0
0
VERTEX
8
Halfen
62
7
10
 264.834
20
-71.412
30
0
0
VERTEX
8
Halfen
62
7
10
 264.958
20
-70.359
30
0
0
VERTEX
8
Halfen
62
7
10
 265
20
-69.3
30
0
0
SEQEND
8
Halfen
0
POLYLINE
8
Halfen
62
7
66
1
10
0.0
20
0.0
30
0.0
70
1
0
VERTEX
8
Halfen
62
7
10
 73
20
-457.177
30
0
0
VERTEX
8
Halfen
62
7
10
 73
20
 215.147
30
0
0
VERTEX
8
Halfen
62
7
10
 67
20
 215.147
30
0
0
VERTEX
8
Halfen
62
7
10
 67
20
-457.177
30
0
0
SEQEND
8
Halfen
0
POLYLINE
8
Halfen
62
7
66
1
10
0.0
20
0.0
30
0.0
70
1
0
VERTEX
8
Halfen
62
7
10
 193
20
-457.177
30
0
0
VERTEX
8
Halfen
62
7
10
 193
20
 215.147
30
0
0
VERTEX
8
Halfen
62
7
10
 187
20
 215.147
30
0
0
VERTEX
8
Halfen
62
7
10
 187
20
-457.177
30
0
0
SEQEND
8
Halfen
0
POLYLINE
8
Halfen
62
7
66
1
10
0.0
20
0.0
30
0.0
70
1
0
VERTEX
8
Halfen
62
7
10
 323
20
-457.177
30
0
0
VERTEX
8
Halfen
62
7
10
 323
20
 215.147
30
0
0
VERTEX
8
Halfen
62
7
10
 317
20
 215.147
30
0
0
VERTEX
8
Halfen
62
7
10
 317
20
-457.177
30
0
0
SEQEND
8
Halfen
0
POLYLINE
8
Halfen
62
7
66
1
10
0.0
20
0.0
30
0.0
70
1
0
VERTEX
8
Halfen
62
7
10
 1050
20
-60
30
0
0
VERTEX
8
Halfen
62
7
10
 1050
20
 60
30
0
0
VERTEX
8
Halfen
62
7
10
 1036.5
20
 73.5
30
0
0
VERTEX
8
Halfen
62
7
10
 1036.5
20
 60
30
0
0
VERTEX
8
Halfen
62
7
10
 750
20
 60
30
0
0
VERTEX
8
Halfen
62
7
10
 750
20
-60
30
0
0
VERTEX
8
Halfen
62
7
10
 1036.5
20
-60
30
0
0
VERTEX
8
Halfen
62
7
10
 1036.5
20
-73.5
30
0
0
SEQEND
8
Halfen
0
POLYLINE
8
Halfen
62
7
66
1
10
0.0
20
0.0
30
0.0
70
1
0
VERTEX
8
Halfen
62
7
10
 750
20
-60
30
0
0
VERTEX
8
Halfen
62
7
10
 750
20
 60
30
0
0
VERTEX
8
Halfen
62
7
10
 713.5
20
 60
30
0
0
VERTEX
8
Halfen
62
7
10
 713.5
20
 73.5
30
0
0
VERTEX
8
Halfen
62
7
10
 700
20
 60
30
0
0
VERTEX
8
Halfen
62
7
10
 700
20
-60
30
0
0
VERTEX
8
Halfen
62
7
10
 713.5
20
-73.5
30
0
0
VERTEX
8
Halfen
62
7
10
 713.5
20
-60
30
0
0
SEQEND
8
Halfen
0
POLYLINE
8
Halfen
62
7
66
1
10
0.0
20
0.0
30
0.0
70
1
0
VERTEX
8
Halfen
62
7
10
 1047.5
20
-58.75
30
0
0
VERTEX
8
Halfen
62
7
10
 1047.5
20
 58.75
30
0
0
VERTEX
8
Halfen
62
7
10
 1039
20
 67.25
30
0
0
VERTEX
8
Halfen
62
7
10
 1039
20
 58
30
0
0
VERTEX
8
Halfen
62
7
10
 752
20
 58
30
0
0
VERTEX
8
Halfen
62
7
10
 752
20
-58
30
0
0
VERTEX
8
Halfen
62
7
10
 1039
20
-58
30
0
0
VERTEX
8
Halfen
62
7
10
 1039
20
-67.25
30
0
0
SEQEND
8
Halfen
0
POLYLINE
8
Halfen
62
7
66
1
10
0.0
20
0.0
30
0.0
70
1
0
VERTEX
8
Halfen
62
7
10
 748
20
-58
30
0
0
VERTEX
8
Halfen
62
7
10
 748
20
 58
30
0
0
VERTEX
8
Halfen
62
7
10
 711
20
 58
30
0
0
VERTEX
8
Halfen
62
7
10
 711
20
 67.25
30
0
0
VERTEX
8
Halfen
62
7
10
 702.5
20
 58.75
30
0
0
VERTEX
8
Halfen
62
7
10
 702.5
20
-58.75
30
0
0
VERTEX
8
Halfen
62
7
10
 711
20
-67.25
30
0
0
VERTEX
8
Halfen
62
7
10
 711
20
-58
30
0
0
SEQEND
8
Halfen
0
POLYLINE
8
Halfen
62
7
66
1
10
0.0
20
0.0
30
0.0
70
1
0
VERTEX
8
Halfen
62
7
10
 1035
20
-81.8
30
0
0
VERTEX
8
Halfen
62
7
10
 1035
20
 81.8
30
0
0
VERTEX
8
Halfen
62
7
10
 1031
20
 81.8
30
0
0
VERTEX
8
Halfen
62
7
10
 1030.846
20
 81.797
30
0
0
VERTEX
8
Halfen
62
7
10
 1030.691
20
 81.786
30
0
0
VERTEX
8
Halfen
62
7
10
 1030.538
20
 81.769
30
0
0
VERTEX
8
Halfen
62
7
10
 1030.385
20
 81.746
30
0
0
VERTEX
8
Halfen
62
7
10
 1030.234
20
 81.715
30
0
0
VERTEX
8
Halfen
62
7
10
 1030.084
20
 81.678
30
0
0
VERTEX
8
Halfen
62
7
10
 1029.936
20
 81.634
30
0
0
VERTEX
8
Halfen
62
7
10
 1029.789
20
 81.584
30
0
0
VERTEX
8
Halfen
62
7
10
 1029.646
20
 81.527
30
0
0
VERTEX
8
Halfen
62
7
10
 1029.505
20
 81.464
30
0
0
VERTEX
8
Halfen
62
7
10
 1029.366
20
 81.395
30
0
0
VERTEX
8
Halfen
62
7
10
 1029.231
20
 81.32
30
0
0
VERTEX
8
Halfen
62
7
10
 1029.1
20
 81.239
30
0
0
VERTEX
8
Halfen
62
7
10
 1028.972
20
 81.153
30
0
0
VERTEX
8
Halfen
62
7
10
 1028.848
20
 81.06
30
0
0
VERTEX
8
Halfen
62
7
10
 1028.728
20
 80.963
30
0
0
VERTEX
8
Halfen
62
7
10
 1028.613
20
 80.86
30
0
0
VERTEX
8
Halfen
62
7
10
 1028.502
20
 80.752
30
0
0
VERTEX
8
Halfen
62
7
10
 1028.397
20
 80.639
30
0
0
VERTEX
8
Halfen
62
7
10
 1028.296
20
 80.522
30
0
0
VERTEX
8
Halfen
62
7
10
 1027.41
20
 79.491
30
0
0
VERTEX
8
Halfen
62
7
10
 1026.479
20
 78.5
30
0
0
VERTEX
8
Halfen
62
7
10
 1025.505
20
 77.551
30
0
0
VERTEX
8
Halfen
62
7
10
 1024.491
20
 76.646
30
0
0
VERTEX
8
Halfen
62
7
10
 1023.437
20
 75.787
30
0
0
VERTEX
8
Halfen
62
7
10
 1022.347
20
 74.975
30
0
0
VERTEX
8
Halfen
62
7
10
 1021.222
20
 74.211
30
0
0
VERTEX
8
Halfen
62
7
10
 1020.064
20
 73.499
30
0
0
VERTEX
8
Halfen
62
7
10
 1018.876
20
 72.838
30
0
0
VERTEX
8
Halfen
62
7
10
 1017.66
20
 72.23
30
0
0
VERTEX
8
Halfen
62
7
10
 1016.418
20
 71.676
30
0
0
VERTEX
8
Halfen
62
7
10
 1015.153
20
 71.178
30
0
0
VERTEX
8
Halfen
62
7
10
 1013.867
20
 70.736
30
0
0
VERTEX
8
Halfen
62
7
10
 1012.563
20
 70.351
30
0
0
VERTEX
8
Halfen
62
7
10
 1011.243
20
 70.024
30
0
0
VERTEX
8
Halfen
62
7
10
 1009.911
20
 69.756
30
0
0
VERTEX
8
Halfen
62
7
10
 1008.567
20
 69.547
30
0
0
VERTEX
8
Halfen
62
7
10
 1007.216
20
 69.397
30
0
0
VERTEX
8
Halfen
62
7
10
 1005.859
20
 69.307
30
0
0
VERTEX
8
Halfen
62
7
10
 1004.5
20
 69.277
30
0
0
VERTEX
8
Halfen
62
7
10
 982.5
20
 69.277
30
0
0
VERTEX
8
Halfen
62
7
10
 981.141
20
 69.307
30
0
0
VERTEX
8
Halfen
62
7
10
 979.784
20
 69.397
30
0
0
VERTEX
8
Halfen
62
7
10
 978.433
20
 69.547
30
0
0
VERTEX
8
Halfen
62
7
10
 977.089
20
 69.756
30
0
0
VERTEX
8
Halfen
62
7
10
 975.757
20
 70.024
30
0
0
VERTEX
8
Halfen
62
7
10
 974.437
20
 70.351
30
0
0
VERTEX
8
Halfen
62
7
10
 973.133
20
 70.736
30
0
0
VERTEX
8
Halfen
62
7
10
 971.847
20
 71.178
30
0
0
VERTEX
8
Halfen
62
7
10
 970.582
20
 71.676
30
0
0
VERTEX
8
Halfen
62
7
10
 969.34
20
 72.23
30
0
0
VERTEX
8
Halfen
62
7
10
 968.124
20
 72.838
30
0
0
VERTEX
8
Halfen
62
7
10
 966.936
20
 73.499
30
0
0
VERTEX
8
Halfen
62
7
10
 965.778
20
 74.211
30
0
0
VERTEX
8
Halfen
62
7
10
 964.653
20
 74.975
30
0
0
VERTEX
8
Halfen
62
7
10
 963.563
20
 75.787
30
0
0
VERTEX
8
Halfen
62
7
10
 962.509
20
 76.646
30
0
0
VERTEX
8
Halfen
62
7
10
 961.495
20
 77.551
30
0
0
VERTEX
8
Halfen
62
7
10
 960.521
20
 78.5
30
0
0
VERTEX
8
Halfen
62
7
10
 959.59
20
 79.491
30
0
0
VERTEX
8
Halfen
62
7
10
 958.704
20
 80.522
30
0
0
VERTEX
8
Halfen
62
7
10
 958.603
20
 80.639
30
0
0
VERTEX
8
Halfen
62
7
10
 958.498
20
 80.752
30
0
0
VERTEX
8
Halfen
62
7
10
 958.387
20
 80.86
30
0
0
VERTEX
8
Halfen
62
7
10
 958.272
20
 80.963
30
0
0
VERTEX
8
Halfen
62
7
10
 958.152
20
 81.06
30
0
0
VERTEX
8
Halfen
62
7
10
 958.028
20
 81.153
30
0
0
VERTEX
8
Halfen
62
7
10
 957.9
20
 81.239
30
0
0
VERTEX
8
Halfen
62
7
10
 957.769
20
 81.32
30
0
0
VERTEX
8
Halfen
62
7
10
 957.634
20
 81.395
30
0
0
VERTEX
8
Halfen
62
7
10
 957.495
20
 81.464
30
0
0
VERTEX
8
Halfen
62
7
10
 957.354
20
 81.527
30
0
0
VERTEX
8
Halfen
62
7
10
 957.211
20
 81.584
30
0
0
VERTEX
8
Halfen
62
7
10
 957.064
20
 81.634
30
0
0
VERTEX
8
Halfen
62
7
10
 956.916
20
 81.678
30
0
0
VERTEX
8
Halfen
62
7
10
 956.766
20
 81.715
30
0
0
VERTEX
8
Halfen
62
7
10
 956.615
20
 81.746
30
0
0
VERTEX
8
Halfen
62
7
10
 956.462
20
 81.769
30
0
0
VERTEX
8
Halfen
62
7
10
 956.309
20
 81.786
30
0
0
VERTEX
8
Halfen
62
7
10
 956.154
20
 81.797
30
0
0
VERTEX
8
Halfen
62
7
10
 956
20
 81.8
30
0
0
VERTEX
8
Halfen
62
7
10
 952
20
 81.8
30
0
0
VERTEX
8
Halfen
62
7
10
 952
20
-81.8
30
0
0
VERTEX
8
Halfen
62
7
10
 956
20
-81.8
30
0
0
VERTEX
8
Halfen
62
7
10
 956.154
20
-81.797
30
0
0
VERTEX
8
Halfen
62
7
10
 956.309
20
-81.786
30
0
0
VERTEX
8
Halfen
62
7
10
 956.462
20
-81.769
30
0
0
VERTEX
8
Halfen
62
7
10
 956.615
20
-81.746
30
0
0
VERTEX
8
Halfen
62
7
10
 956.766
20
-81.715
30
0
0
VERTEX
8
Halfen
62
7
10
 956.916
20
-81.678
30
0
0
VERTEX
8
Halfen
62
7
10
 957.064
20
-81.634
30
0
0
VERTEX
8
Halfen
62
7
10
 957.211
20
-81.584
30
0
0
VERTEX
8
Halfen
62
7
10
 957.354
20
-81.527
30
0
0
VERTEX
8
Halfen
62
7
10
 957.495
20
-81.464
30
0
0
VERTEX
8
Halfen
62
7
10
 957.634
20
-81.395
30
0
0
VERTEX
8
Halfen
62
7
10
 957.769
20
-81.32
30
0
0
VERTEX
8
Halfen
62
7
10
 957.9
20
-81.239
30
0
0
VERTEX
8
Halfen
62
7
10
 958.028
20
-81.153
30
0
0
VERTEX
8
Halfen
62
7
10
 958.152
20
-81.06
30
0
0
VERTEX
8
Halfen
62
7
10
 958.272
20
-80.963
30
0
0
VERTEX
8
Halfen
62
7
10
 958.387
20
-80.86
30
0
0
VERTEX
8
Halfen
62
7
10
 958.498
20
-80.752
30
0
0
VERTEX
8
Halfen
62
7
10
 958.603
20
-80.639
30
0
0
VERTEX
8
Halfen
62
7
10
 958.704
20
-80.522
30
0
0
VERTEX
8
Halfen
62
7
10
 959.59
20
-79.491
30
0
0
VERTEX
8
Halfen
62
7
10
 960.521
20
-78.5
30
0
0
VERTEX
8
Halfen
62
7
10
 961.495
20
-77.551
30
0
0
VERTEX
8
Halfen
62
7
10
 962.509
20
-76.646
30
0
0
VERTEX
8
Halfen
62
7
10
 963.563
20
-75.787
30
0
0
VERTEX
8
Halfen
62
7
10
 964.653
20
-74.975
30
0
0
VERTEX
8
Halfen
62
7
10
 965.778
20
-74.211
30
0
0
VERTEX
8
Halfen
62
7
10
 966.936
20
-73.499
30
0
0
VERTEX
8
Halfen
62
7
10
 968.124
20
-72.838
30
0
0
VERTEX
8
Halfen
62
7
10
 969.34
20
-72.23
30
0
0
VERTEX
8
Halfen
62
7
10
 970.582
20
-71.676
30
0
0
VERTEX
8
Halfen
62
7
10
 971.847
20
-71.178
30
0
0
VERTEX
8
Halfen
62
7
10
 973.133
20
-70.736
30
0
0
VERTEX
8
Halfen
62
7
10
 974.437
20
-70.351
30
0
0
VERTEX
8
Halfen
62
7
10
 975.757
20
-70.024
30
0
0
VERTEX
8
Halfen
62
7
10
 977.089
20
-69.756
30
0
0
VERTEX
8
Halfen
62
7
10
 978.433
20
-69.547
30
0
0
VERTEX
8
Halfen
62
7
10
 979.784
20
-69.397
30
0
0
VERTEX
8
Halfen
62
7
10
 981.141
20
-69.307
30
0
0
VERTEX
8
Halfen
62
7
10
 982.5
20
-69.277
30
0
0
VERTEX
8
Halfen
62
7
10
 1004.5
20
-69.277
30
0
0
VERTEX
8
Halfen
62
7
10
 1005.859
20
-69.307
30
0
0
VERTEX
8
Halfen
62
7
10
 1007.216
20
-69.397
30
0
0
VERTEX
8
Halfen
62
7
10
 1008.567
20
-69.547
30
0
0
VERTEX
8
Halfen
62
7
10
 1009.911
20
-69.756
30
0
0
VERTEX
8
Halfen
62
7
10
 1011.243
20
-70.024
30
0
0
VERTEX
8
Halfen
62
7
10
 1012.563
20
-70.351
30
0
0
VERTEX
8
Halfen
62
7
10
 1013.867
20
-70.736
30
0
0
VERTEX
8
Halfen
62
7
10
 1015.153
20
-71.178
30
0
0
VERTEX
8
Halfen
62
7
10
 1016.418
20
-71.676
30
0
0
VERTEX
8
Halfen
62
7
10
 1017.66
20
-72.23
30
0
0
VERTEX
8
Halfen
62
7
10
 1018.876
20
-72.838
30
0
0
VERTEX
8
Halfen
62
7
10
 1020.064
20
-73.499
30
0
0
VERTEX
8
Halfen
62
7
10
 1021.222
20
-74.211
30
0
0
VERTEX
8
Halfen
62
7
10
 1022.347
20
-74.975
30
0
0
VERTEX
8
Halfen
62
7
10
 1023.437
20
-75.787
30
0
0
VERTEX
8
Halfen
62
7
10
 1024.491
20
-76.646
30
0
0
VERTEX
8
Halfen
62
7
10
 1025.505
20
-77.551
30
0
0
VERTEX
8
Halfen
62
7
10
 1026.479
20
-78.5
30
0
0
VERTEX
8
Halfen
62
7
10
 1027.41
20
-79.491
30
0
0
VERTEX
8
Halfen
62
7
10
 1028.296
20
-80.522
30
0
0
VERTEX
8
Halfen
62
7
10
 1028.397
20
-80.639
30
0
0
VERTEX
8
Halfen
62
7
10
 1028.502
20
-80.752
30
0
0
VERTEX
8
Halfen
62
7
10
 1028.613
20
-80.86
30
0
0
VERTEX
8
Halfen
62
7
10
 1028.728
20
-80.963
30
0
0
VERTEX
8
Halfen
62
7
10
 1028.848
20
-81.06
30
0
0
VERTEX
8
Halfen
62
7
10
 1028.972
20
-81.153
30
0
0
VERTEX
8
Halfen
62
7
10
 1029.1
20
-81.239
30
0
0
VERTEX
8
Halfen
62
7
10
 1029.231
20
-81.32
30
0
0
VERTEX
8
Halfen
62
7
10
 1029.366
20
-81.395
30
0
0
VERTEX
8
Halfen
62
7
10
 1029.505
20
-81.464
30
0
0
VERTEX
8
Halfen
62
7
10
 1029.646
20
-81.527
30
0
0
VERTEX
8
Halfen
62
7
10
 1029.789
20
-81.584
30
0
0
VERTEX
8
Halfen
62
7
10
 1029.936
20
-81.634
30
0
0
VERTEX
8
Halfen
62
7
10
 1030.084
20
-81.678
30
0
0
VERTEX
8
Halfen
62
7
10
 1030.234
20
-81.715
30
0
0
VERTEX
8
Halfen
62
7
10
 1030.385
20
-81.746
30
0
0
VERTEX
8
Halfen
62
7
10
 1030.538
20
-81.769
30
0
0
VERTEX
8
Halfen
62
7
10
 1030.691
20
-81.786
30
0
0
VERTEX
8
Halfen
62
7
10
 1030.846
20
-81.797
30
0
0
VERTEX
8
Halfen
62
7
10
 1031
20
-81.8
30
0
0
SEQEND
8
Halfen
0
POLYLINE
8
Halfen
62
7
66
1
10
0.0
20
0.0
30
0.0
70
1
0
VERTEX
8
Halfen
62
7
10
 1020
20
-457.177
30
0
0
VERTEX
8
Halfen
62
7
10
 1020
20
-81.213
30
0
0
VERTEX
8
Halfen
62
7
10
 1019.705
20
-77.459
30
0
0
VERTEX
8
Halfen
62
7
10
 1018.825
20
-73.797
30
0
0
VERTEX
8
Halfen
62
7
10
 1017.384
20
-70.317
30
0
0
VERTEX
8
Halfen
62
7
10
 1015.416
20
-67.106
30
0
0
VERTEX
8
Halfen
62
7
10
 1012.971
20
-64.243
30
0
0
VERTEX
8
Halfen
62
7
10
 811.272
20
 137.456
30
0
0
VERTEX
8
Halfen
62
7
10
 809.438
20
 139.604
30
0
0
VERTEX
8
Halfen
62
7
10
 807.962
20
 142.012
30
0
0
VERTEX
8
Halfen
62
7
10
 806.881
20
 144.621
30
0
0
VERTEX
8
Halfen
62
7
10
 806.222
20
 147.368
30
0
0
VERTEX
8
Halfen
62
7
10
 806
20
 150.184
30
0
0
VERTEX
8
Halfen
62
7
10
 806
20
 191.147
30
0
0
VERTEX
8
Halfen
62
7
10
 806.222
20
 193.963
30
0
0
VERTEX
8
Halfen
62
7
10
 806.881
20
 196.71
30
0
0
VERTEX
8
Halfen
62
7
10
 807.962
20
 199.319
30
0
0
VERTEX
8
Halfen
62
7
10
 809.438
20
 201.728
30
0
0
VERTEX
8
Halfen
62
7
10
 811.272
20
 203.875
30
0
0
VERTEX
8
Halfen
62
7
10
 813.42
20
 205.71
30
0
0
VERTEX
8
Halfen
62
7
10
 815.828
20
 207.186
30
0
0
VERTEX
8
Halfen
62
7
10
 818.438
20
 208.266
30
0
0
VERTEX
8
Halfen
62
7
10
 821.184
20
 208.926
30
0
0
VERTEX
8
Halfen
62
7
10
 824
20
 209.147
30
0
0
VERTEX
8
Halfen
62
7
10
 920
20
 209.147
30
0
0
VERTEX
8
Halfen
62
7
10
 920
20
 215.147
30
0
0
VERTEX
8
Halfen
62
7
10
 824
20
 215.147
30
0
0
VERTEX
8
Halfen
62
7
10
 820.246
20
 214.852
30
0
0
VERTEX
8
Halfen
62
7
10
 816.584
20
 213.973
30
0
0
VERTEX
8
Halfen
62
7
10
 813.104
20
 212.532
30
0
0
VERTEX
8
Halfen
62
7
10
 809.893
20
 210.564
30
0
0
VERTEX
8
Halfen
62
7
10
 807.029
20
 208.118
30
0
0
VERTEX
8
Halfen
62
7
10
 804.584
20
 205.254
30
0
0
VERTEX
8
Halfen
62
7
10
 802.616
20
 202.043
30
0
0
VERTEX
8
Halfen
62
7
10
 801.175
20
 198.564
30
0
0
VERTEX
8
Halfen
62
7
10
 800.295
20
 194.902
30
0
0
VERTEX
8
Halfen
62
7
10
 800
20
 191.147
30
0
0
VERTEX
8
Halfen
62
7
10
 800
20
 150.184
30
0
0
VERTEX
8
Halfen
62
7
10
 800.295
20
 146.429
30
0
0
VERTEX
8
Halfen
62
7
10
 801.175
20
 142.767
30
0
0
VERTEX
8
Halfen
62
7
10
 802.616
20
 139.288
30
0
0
VERTEX
8
Halfen
62
7
10
 804.584
20
 136.077
30
0
0
VERTEX
8
Halfen
62
7
10
 807.029
20
 133.213
30
0
0
VERTEX
8
Halfen
62
7
10
 1008.728
20
-68.485
30
0
0
VERTEX
8
Halfen
62
7
10
 1010.562
20
-70.633
30
0
0
VERTEX
8
Halfen
62
7
10
 1012.038
20
-73.041
30
0
0
VERTEX
8
Halfen
62
7
10
 1013.119
20
-75.651
30
0
0
VERTEX
8
Halfen
62
7
10
 1013.778
20
-78.397
30
0
0
VERTEX
8
Halfen
62
7
10
 1014
20
-81.213
30
0
0
VERTEX
8
Halfen
62
7
10
 1014
20
-457.177
30
0
0
SEQEND
8
Halfen
0
ENDSEC
0
EOF
