0
SECTION
2
HEADER
9
$EXTMIN
10
 0
20
 100
30
0.0
9
$EXTMAX
10
 0
20
 100
30
0.0
9
$LIMMIN
10
 100
20
 0
9
$LIMMAX
10
 0
20
 100
9
$PSLTSCALE
70
1
0
ENDSEC
0
SECTION
2
TABLES
0
TABLE
2
LAYER
70
2
0
LAYER
2
0
70
0
62
7
6
CONTINUOUS
0
LAYER
2
Halfen
70
0
62
7
6
CONTINUOUS
0
ENDTAB
0
ENDSEC
0
SECTION
2
ENTITIES
0
POLYLINE
8
Halfen
62
7
66
1
10
0.0
20
0.0
30
0.0
70
1
0
VERTEX
8
Halfen
62
7
10
 0
20
-73.5
30
0
0
VERTEX
8
Halfen
62
7
10
 1000
20
-73.5
30
0
0
VERTEX
8
Halfen
62
7
10
 1000
20
 73.5
30
0
0
VERTEX
8
Halfen
62
7
10
 0
20
 73.5
30
0
0
SEQEND
8
Halfen
0
POLYLINE
8
Halfen
62
7
66
1
10
0.0
20
0.0
30
0.0
70
1
0
VERTEX
8
Halfen
62
7
10
 0
20
-60
30
0
0
VERTEX
8
Halfen
62
7
10
 1000
20
-60
30
0
0
VERTEX
8
Halfen
62
7
10
 1000
20
 60
30
0
0
VERTEX
8
Halfen
62
7
10
 0
20
 60
30
0
0
SEQEND
8
Halfen
0
POLYLINE
8
Halfen
62
7
66
1
10
0.0
20
0.0
30
0.0
70
1
0
VERTEX
8
Halfen
62
7
10
 20
20
-32.5
30
0
0
VERTEX
8
Halfen
62
7
10
 37
20
-1.5
30
0
0
VERTEX
8
Halfen
62
7
10
 28
20
-1.5
30
0
0
VERTEX
8
Halfen
62
7
10
 28
20
 32.5
30
0
0
VERTEX
8
Halfen
62
7
10
 12
20
 32.5
30
0
0
VERTEX
8
Halfen
62
7
10
 12
20
-1.5
30
0
0
VERTEX
8
Halfen
62
7
10
 3
20
-1.5
30
0
0
SEQEND
8
Halfen
0
POLYLINE
8
Halfen
62
7
66
1
10
0.0
20
0.0
30
0.0
70
1
0
VERTEX
8
Halfen
62
7
10
 980
20
-32.5
30
0
0
VERTEX
8
Halfen
62
7
10
 997
20
-1.5
30
0
0
VERTEX
8
Halfen
62
7
10
 988
20
-1.5
30
0
0
VERTEX
8
Halfen
62
7
10
 988
20
 32.5
30
0
0
VERTEX
8
Halfen
62
7
10
 972
20
 32.5
30
0
0
VERTEX
8
Halfen
62
7
10
 972
20
-1.5
30
0
0
VERTEX
8
Halfen
62
7
10
 963
20
-1.5
30
0
0
SEQEND
8
Halfen
0
POLYLINE
8
Halfen
62
7
66
1
10
0.0
20
0.0
30
0.0
70
1
0
VERTEX
8
Halfen
62
7
10
 265
20
-69.3
30
0
0
VERTEX
8
Halfen
62
7
10
 265
20
-56.8
30
0
0
VERTEX
8
Halfen
62
7
10
 265
20
 69.3
30
0
0
VERTEX
8
Halfen
62
7
10
 264.958
20
 70.359
30
0
0
VERTEX
8
Halfen
62
7
10
 264.834
20
 71.412
30
0
0
VERTEX
8
Halfen
62
7
10
 264.627
20
 72.452
30
0
0
VERTEX
8
Halfen
62
7
10
 264.339
20
 73.472
30
0
0
VERTEX
8
Halfen
62
7
10
 263.972
20
 74.466
30
0
0
VERTEX
8
Halfen
62
7
10
 263.529
20
 75.429
30
0
0
VERTEX
8
Halfen
62
7
10
 263.011
20
 76.354
30
0
0
VERTEX
8
Halfen
62
7
10
 262.422
20
 77.235
30
0
0
VERTEX
8
Halfen
62
7
10
 261.765
20
 78.068
30
0
0
VERTEX
8
Halfen
62
7
10
 261.046
20
 78.846
30
0
0
VERTEX
8
Halfen
62
7
10
 260.268
20
 79.565
30
0
0
VERTEX
8
Halfen
62
7
10
 259.435
20
 80.222
30
0
0
VERTEX
8
Halfen
62
7
10
 258.554
20
 80.811
30
0
0
VERTEX
8
Halfen
62
7
10
 257.629
20
 81.329
30
0
0
VERTEX
8
Halfen
62
7
10
 256.666
20
 81.772
30
0
0
VERTEX
8
Halfen
62
7
10
 255.672
20
 82.139
30
0
0
VERTEX
8
Halfen
62
7
10
 254.652
20
 82.427
30
0
0
VERTEX
8
Halfen
62
7
10
 253.612
20
 82.634
30
0
0
VERTEX
8
Halfen
62
7
10
 252.559
20
 82.758
30
0
0
VERTEX
8
Halfen
62
7
10
 251.5
20
 82.8
30
0
0
VERTEX
8
Halfen
62
7
10
 248.5
20
 82.8
30
0
0
VERTEX
8
Halfen
62
7
10
 247.441
20
 82.758
30
0
0
VERTEX
8
Halfen
62
7
10
 246.388
20
 82.634
30
0
0
VERTEX
8
Halfen
62
7
10
 245.348
20
 82.427
30
0
0
VERTEX
8
Halfen
62
7
10
 244.328
20
 82.139
30
0
0
VERTEX
8
Halfen
62
7
10
 243.334
20
 81.772
30
0
0
VERTEX
8
Halfen
62
7
10
 242.371
20
 81.329
30
0
0
VERTEX
8
Halfen
62
7
10
 241.446
20
 80.811
30
0
0
VERTEX
8
Halfen
62
7
10
 240.565
20
 80.222
30
0
0
VERTEX
8
Halfen
62
7
10
 239.732
20
 79.565
30
0
0
VERTEX
8
Halfen
62
7
10
 238.954
20
 78.846
30
0
0
VERTEX
8
Halfen
62
7
10
 238.235
20
 78.068
30
0
0
VERTEX
8
Halfen
62
7
10
 237.578
20
 77.235
30
0
0
VERTEX
8
Halfen
62
7
10
 236.989
20
 76.354
30
0
0
VERTEX
8
Halfen
62
7
10
 236.471
20
 75.429
30
0
0
VERTEX
8
Halfen
62
7
10
 236.028
20
 74.466
30
0
0
VERTEX
8
Halfen
62
7
10
 235.661
20
 73.472
30
0
0
VERTEX
8
Halfen
62
7
10
 235.373
20
 72.452
30
0
0
VERTEX
8
Halfen
62
7
10
 235.166
20
 71.412
30
0
0
VERTEX
8
Halfen
62
7
10
 235.042
20
 70.359
30
0
0
VERTEX
8
Halfen
62
7
10
 235
20
 69.3
30
0
0
VERTEX
8
Halfen
62
7
10
 235
20
-56.8
30
0
0
VERTEX
8
Halfen
62
7
10
 235
20
-69.3
30
0
0
VERTEX
8
Halfen
62
7
10
 235.042
20
-70.359
30
0
0
VERTEX
8
Halfen
62
7
10
 235.166
20
-71.412
30
0
0
VERTEX
8
Halfen
62
7
10
 235.373
20
-72.452
30
0
0
VERTEX
8
Halfen
62
7
10
 235.661
20
-73.472
30
0
0
VERTEX
8
Halfen
62
7
10
 236.028
20
-74.466
30
0
0
VERTEX
8
Halfen
62
7
10
 236.471
20
-75.429
30
0
0
VERTEX
8
Halfen
62
7
10
 236.989
20
-76.354
30
0
0
VERTEX
8
Halfen
62
7
10
 237.578
20
-77.235
30
0
0
VERTEX
8
Halfen
62
7
10
 238.235
20
-78.068
30
0
0
VERTEX
8
Halfen
62
7
10
 238.954
20
-78.846
30
0
0
VERTEX
8
Halfen
62
7
10
 239.732
20
-79.565
30
0
0
VERTEX
8
Halfen
62
7
10
 240.565
20
-80.222
30
0
0
VERTEX
8
Halfen
62
7
10
 241.446
20
-80.811
30
0
0
VERTEX
8
Halfen
62
7
10
 242.371
20
-81.329
30
0
0
VERTEX
8
Halfen
62
7
10
 243.334
20
-81.772
30
0
0
VERTEX
8
Halfen
62
7
10
 244.328
20
-82.139
30
0
0
VERTEX
8
Halfen
62
7
10
 245.348
20
-82.427
30
0
0
VERTEX
8
Halfen
62
7
10
 246.388
20
-82.634
30
0
0
VERTEX
8
Halfen
62
7
10
 247.441
20
-82.758
30
0
0
VERTEX
8
Halfen
62
7
10
 248.5
20
-82.8
30
0
0
VERTEX
8
Halfen
62
7
10
 251.5
20
-82.8
30
0
0
VERTEX
8
Halfen
62
7
10
 252.559
20
-82.758
30
0
0
VERTEX
8
Halfen
62
7
10
 253.612
20
-82.634
30
0
0
VERTEX
8
Halfen
62
7
10
 254.652
20
-82.427
30
0
0
VERTEX
8
Halfen
62
7
10
 255.672
20
-82.139
30
0
0
VERTEX
8
Halfen
62
7
10
 256.666
20
-81.772
30
0
0
VERTEX
8
Halfen
62
7
10
 257.629
20
-81.329
30
0
0
VERTEX
8
Halfen
62
7
10
 258.554
20
-80.811
30
0
0
VERTEX
8
Halfen
62
7
10
 259.435
20
-80.222
30
0
0
VERTEX
8
Halfen
62
7
10
 260.268
20
-79.565
30
0
0
VERTEX
8
Halfen
62
7
10
 261.046
20
-78.846
30
0
0
VERTEX
8
Halfen
62
7
10
 261.765
20
-78.068
30
0
0
VERTEX
8
Halfen
62
7
10
 262.422
20
-77.235
30
0
0
VERTEX
8
Halfen
62
7
10
 263.011
20
-76.354
30
0
0
VERTEX
8
Halfen
62
7
10
 263.529
20
-75.429
30
0
0
VERTEX
8
Halfen
62
7
10
 263.972
20
-74.466
30
0
0
VERTEX
8
Halfen
62
7
10
 264.339
20
-73.472
30
0
0
VERTEX
8
Halfen
62
7
10
 264.627
20
-72.452
30
0
0
VERTEX
8
Halfen
62
7
10
 264.834
20
-71.412
30
0
0
VERTEX
8
Halfen
62
7
10
 264.958
20
-70.359
30
0
0
VERTEX
8
Halfen
62
7
10
 265
20
-69.3
30
0
0
SEQEND
8
Halfen
0
POLYLINE
8
Halfen
62
7
66
1
10
0.0
20
0.0
30
0.0
70
1
0
VERTEX
8
Halfen
62
7
10
 765
20
-69.3
30
0
0
VERTEX
8
Halfen
62
7
10
 765
20
-56.8
30
0
0
VERTEX
8
Halfen
62
7
10
 765
20
 69.3
30
0
0
VERTEX
8
Halfen
62
7
10
 764.958
20
 70.359
30
0
0
VERTEX
8
Halfen
62
7
10
 764.834
20
 71.412
30
0
0
VERTEX
8
Halfen
62
7
10
 764.627
20
 72.452
30
0
0
VERTEX
8
Halfen
62
7
10
 764.339
20
 73.472
30
0
0
VERTEX
8
Halfen
62
7
10
 763.972
20
 74.466
30
0
0
VERTEX
8
Halfen
62
7
10
 763.529
20
 75.429
30
0
0
VERTEX
8
Halfen
62
7
10
 763.011
20
 76.354
30
0
0
VERTEX
8
Halfen
62
7
10
 762.422
20
 77.235
30
0
0
VERTEX
8
Halfen
62
7
10
 761.765
20
 78.068
30
0
0
VERTEX
8
Halfen
62
7
10
 761.046
20
 78.846
30
0
0
VERTEX
8
Halfen
62
7
10
 760.268
20
 79.565
30
0
0
VERTEX
8
Halfen
62
7
10
 759.435
20
 80.222
30
0
0
VERTEX
8
Halfen
62
7
10
 758.554
20
 80.811
30
0
0
VERTEX
8
Halfen
62
7
10
 757.629
20
 81.329
30
0
0
VERTEX
8
Halfen
62
7
10
 756.666
20
 81.772
30
0
0
VERTEX
8
Halfen
62
7
10
 755.672
20
 82.139
30
0
0
VERTEX
8
Halfen
62
7
10
 754.652
20
 82.427
30
0
0
VERTEX
8
Halfen
62
7
10
 753.612
20
 82.634
30
0
0
VERTEX
8
Halfen
62
7
10
 752.559
20
 82.758
30
0
0
VERTEX
8
Halfen
62
7
10
 751.5
20
 82.8
30
0
0
VERTEX
8
Halfen
62
7
10
 748.5
20
 82.8
30
0
0
VERTEX
8
Halfen
62
7
10
 747.441
20
 82.758
30
0
0
VERTEX
8
Halfen
62
7
10
 746.388
20
 82.634
30
0
0
VERTEX
8
Halfen
62
7
10
 745.348
20
 82.427
30
0
0
VERTEX
8
Halfen
62
7
10
 744.328
20
 82.139
30
0
0
VERTEX
8
Halfen
62
7
10
 743.334
20
 81.772
30
0
0
VERTEX
8
Halfen
62
7
10
 742.371
20
 81.329
30
0
0
VERTEX
8
Halfen
62
7
10
 741.446
20
 80.811
30
0
0
VERTEX
8
Halfen
62
7
10
 740.565
20
 80.222
30
0
0
VERTEX
8
Halfen
62
7
10
 739.732
20
 79.565
30
0
0
VERTEX
8
Halfen
62
7
10
 738.954
20
 78.846
30
0
0
VERTEX
8
Halfen
62
7
10
 738.235
20
 78.068
30
0
0
VERTEX
8
Halfen
62
7
10
 737.578
20
 77.235
30
0
0
VERTEX
8
Halfen
62
7
10
 736.989
20
 76.354
30
0
0
VERTEX
8
Halfen
62
7
10
 736.471
20
 75.429
30
0
0
VERTEX
8
Halfen
62
7
10
 736.028
20
 74.466
30
0
0
VERTEX
8
Halfen
62
7
10
 735.661
20
 73.472
30
0
0
VERTEX
8
Halfen
62
7
10
 735.373
20
 72.452
30
0
0
VERTEX
8
Halfen
62
7
10
 735.166
20
 71.412
30
0
0
VERTEX
8
Halfen
62
7
10
 735.042
20
 70.359
30
0
0
VERTEX
8
Halfen
62
7
10
 735
20
 69.3
30
0
0
VERTEX
8
Halfen
62
7
10
 735
20
-56.8
30
0
0
VERTEX
8
Halfen
62
7
10
 735
20
-69.3
30
0
0
VERTEX
8
Halfen
62
7
10
 735.042
20
-70.359
30
0
0
VERTEX
8
Halfen
62
7
10
 735.166
20
-71.412
30
0
0
VERTEX
8
Halfen
62
7
10
 735.373
20
-72.452
30
0
0
VERTEX
8
Halfen
62
7
10
 735.661
20
-73.472
30
0
0
VERTEX
8
Halfen
62
7
10
 736.028
20
-74.466
30
0
0
VERTEX
8
Halfen
62
7
10
 736.471
20
-75.429
30
0
0
VERTEX
8
Halfen
62
7
10
 736.989
20
-76.354
30
0
0
VERTEX
8
Halfen
62
7
10
 737.578
20
-77.235
30
0
0
VERTEX
8
Halfen
62
7
10
 738.235
20
-78.068
30
0
0
VERTEX
8
Halfen
62
7
10
 738.954
20
-78.846
30
0
0
VERTEX
8
Halfen
62
7
10
 739.732
20
-79.565
30
0
0
VERTEX
8
Halfen
62
7
10
 740.565
20
-80.222
30
0
0
VERTEX
8
Halfen
62
7
10
 741.446
20
-80.811
30
0
0
VERTEX
8
Halfen
62
7
10
 742.371
20
-81.329
30
0
0
VERTEX
8
Halfen
62
7
10
 743.334
20
-81.772
30
0
0
VERTEX
8
Halfen
62
7
10
 744.328
20
-82.139
30
0
0
VERTEX
8
Halfen
62
7
10
 745.348
20
-82.427
30
0
0
VERTEX
8
Halfen
62
7
10
 746.388
20
-82.634
30
0
0
VERTEX
8
Halfen
62
7
10
 747.441
20
-82.758
30
0
0
VERTEX
8
Halfen
62
7
10
 748.5
20
-82.8
30
0
0
VERTEX
8
Halfen
62
7
10
 751.5
20
-82.8
30
0
0
VERTEX
8
Halfen
62
7
10
 752.559
20
-82.758
30
0
0
VERTEX
8
Halfen
62
7
10
 753.612
20
-82.634
30
0
0
VERTEX
8
Halfen
62
7
10
 754.652
20
-82.427
30
0
0
VERTEX
8
Halfen
62
7
10
 755.672
20
-82.139
30
0
0
VERTEX
8
Halfen
62
7
10
 756.666
20
-81.772
30
0
0
VERTEX
8
Halfen
62
7
10
 757.629
20
-81.329
30
0
0
VERTEX
8
Halfen
62
7
10
 758.554
20
-80.811
30
0
0
VERTEX
8
Halfen
62
7
10
 759.435
20
-80.222
30
0
0
VERTEX
8
Halfen
62
7
10
 760.268
20
-79.565
30
0
0
VERTEX
8
Halfen
62
7
10
 761.046
20
-78.846
30
0
0
VERTEX
8
Halfen
62
7
10
 761.765
20
-78.068
30
0
0
VERTEX
8
Halfen
62
7
10
 762.422
20
-77.235
30
0
0
VERTEX
8
Halfen
62
7
10
 763.011
20
-76.354
30
0
0
VERTEX
8
Halfen
62
7
10
 763.529
20
-75.429
30
0
0
VERTEX
8
Halfen
62
7
10
 763.972
20
-74.466
30
0
0
VERTEX
8
Halfen
62
7
10
 764.339
20
-73.472
30
0
0
VERTEX
8
Halfen
62
7
10
 764.627
20
-72.452
30
0
0
VERTEX
8
Halfen
62
7
10
 764.834
20
-71.412
30
0
0
VERTEX
8
Halfen
62
7
10
 764.958
20
-70.359
30
0
0
VERTEX
8
Halfen
62
7
10
 765
20
-69.3
30
0
0
SEQEND
8
Halfen
0
POLYLINE
8
Halfen
62
7
66
1
10
0.0
20
0.0
30
0.0
70
1
0
VERTEX
8
Halfen
62
7
10
 193
20
-457.177
30
0
0
VERTEX
8
Halfen
62
7
10
 193
20
 215.147
30
0
0
VERTEX
8
Halfen
62
7
10
 187
20
 215.147
30
0
0
VERTEX
8
Halfen
62
7
10
 187
20
-457.177
30
0
0
SEQEND
8
Halfen
0
POLYLINE
8
Halfen
62
7
66
1
10
0.0
20
0.0
30
0.0
70
1
0
VERTEX
8
Halfen
62
7
10
 573
20
-457.177
30
0
0
VERTEX
8
Halfen
62
7
10
 573
20
 215.147
30
0
0
VERTEX
8
Halfen
62
7
10
 567
20
 215.147
30
0
0
VERTEX
8
Halfen
62
7
10
 567
20
-457.177
30
0
0
SEQEND
8
Halfen
0
POLYLINE
8
Halfen
62
7
66
1
10
0.0
20
0.0
30
0.0
70
1
0
VERTEX
8
Halfen
62
7
10
 823
20
-457.177
30
0
0
VERTEX
8
Halfen
62
7
10
 823
20
 215.147
30
0
0
VERTEX
8
Halfen
62
7
10
 817
20
 215.147
30
0
0
VERTEX
8
Halfen
62
7
10
 817
20
-457.177
30
0
0
SEQEND
8
Halfen
0
POLYLINE
8
Halfen
62
7
66
1
10
0.0
20
0.0
30
0.0
70
1
0
VERTEX
8
Halfen
62
7
10
 813
20
-457.177
30
0
0
VERTEX
8
Halfen
62
7
10
 813
20
 215.147
30
0
0
VERTEX
8
Halfen
62
7
10
 807
20
 215.147
30
0
0
VERTEX
8
Halfen
62
7
10
 807
20
-457.177
30
0
0
SEQEND
8
Halfen
0
POLYLINE
8
Halfen
62
7
66
1
10
0.0
20
0.0
30
0.0
70
1
0
VERTEX
8
Halfen
62
7
10
 433
20
-457.177
30
0
0
VERTEX
8
Halfen
62
7
10
 433
20
 215.147
30
0
0
VERTEX
8
Halfen
62
7
10
 427
20
 215.147
30
0
0
VERTEX
8
Halfen
62
7
10
 427
20
-457.177
30
0
0
SEQEND
8
Halfen
0
POLYLINE
8
Halfen
62
7
66
1
10
0.0
20
0.0
30
0.0
70
1
0
VERTEX
8
Halfen
62
7
10
 183
20
-457.177
30
0
0
VERTEX
8
Halfen
62
7
10
 183
20
 215.147
30
0
0
VERTEX
8
Halfen
62
7
10
 177
20
 215.147
30
0
0
VERTEX
8
Halfen
62
7
10
 177
20
-457.177
30
0
0
SEQEND
8
Halfen
0
POLYLINE
8
Halfen
62
7
66
1
10
0.0
20
0.0
30
0.0
70
1
0
VERTEX
8
Halfen
62
7
10
 1480
20
-60
30
0
0
VERTEX
8
Halfen
62
7
10
 1480
20
 60
30
0
0
VERTEX
8
Halfen
62
7
10
 1466.5
20
 73.5
30
0
0
VERTEX
8
Halfen
62
7
10
 1466.5
20
 60
30
0
0
VERTEX
8
Halfen
62
7
10
 1250
20
 60
30
0
0
VERTEX
8
Halfen
62
7
10
 1250
20
-60
30
0
0
VERTEX
8
Halfen
62
7
10
 1466.5
20
-60
30
0
0
VERTEX
8
Halfen
62
7
10
 1466.5
20
-73.5
30
0
0
SEQEND
8
Halfen
0
POLYLINE
8
Halfen
62
7
66
1
10
0.0
20
0.0
30
0.0
70
1
0
VERTEX
8
Halfen
62
7
10
 1250
20
-60
30
0
0
VERTEX
8
Halfen
62
7
10
 1250
20
 60
30
0
0
VERTEX
8
Halfen
62
7
10
 1213.5
20
 60
30
0
0
VERTEX
8
Halfen
62
7
10
 1213.5
20
 73.5
30
0
0
VERTEX
8
Halfen
62
7
10
 1200
20
 60
30
0
0
VERTEX
8
Halfen
62
7
10
 1200
20
-60
30
0
0
VERTEX
8
Halfen
62
7
10
 1213.5
20
-73.5
30
0
0
VERTEX
8
Halfen
62
7
10
 1213.5
20
-60
30
0
0
SEQEND
8
Halfen
0
POLYLINE
8
Halfen
62
7
66
1
10
0.0
20
0.0
30
0.0
70
1
0
VERTEX
8
Halfen
62
7
10
 1477.5
20
-58.75
30
0
0
VERTEX
8
Halfen
62
7
10
 1477.5
20
 58.75
30
0
0
VERTEX
8
Halfen
62
7
10
 1469
20
 67.25
30
0
0
VERTEX
8
Halfen
62
7
10
 1469
20
 58
30
0
0
VERTEX
8
Halfen
62
7
10
 1252
20
 58
30
0
0
VERTEX
8
Halfen
62
7
10
 1252
20
-58
30
0
0
VERTEX
8
Halfen
62
7
10
 1469
20
-58
30
0
0
VERTEX
8
Halfen
62
7
10
 1469
20
-67.25
30
0
0
SEQEND
8
Halfen
0
POLYLINE
8
Halfen
62
7
66
1
10
0.0
20
0.0
30
0.0
70
1
0
VERTEX
8
Halfen
62
7
10
 1248
20
-58
30
0
0
VERTEX
8
Halfen
62
7
10
 1248
20
 58
30
0
0
VERTEX
8
Halfen
62
7
10
 1211
20
 58
30
0
0
VERTEX
8
Halfen
62
7
10
 1211
20
 67.25
30
0
0
VERTEX
8
Halfen
62
7
10
 1202.5
20
 58.75
30
0
0
VERTEX
8
Halfen
62
7
10
 1202.5
20
-58.75
30
0
0
VERTEX
8
Halfen
62
7
10
 1211
20
-67.25
30
0
0
VERTEX
8
Halfen
62
7
10
 1211
20
-58
30
0
0
SEQEND
8
Halfen
0
POLYLINE
8
Halfen
62
7
66
1
10
0.0
20
0.0
30
0.0
70
1
0
VERTEX
8
Halfen
62
7
10
 1465
20
-81.8
30
0
0
VERTEX
8
Halfen
62
7
10
 1465
20
 81.8
30
0
0
VERTEX
8
Halfen
62
7
10
 1461
20
 81.8
30
0
0
VERTEX
8
Halfen
62
7
10
 1460.846
20
 81.797
30
0
0
VERTEX
8
Halfen
62
7
10
 1460.691
20
 81.786
30
0
0
VERTEX
8
Halfen
62
7
10
 1460.538
20
 81.769
30
0
0
VERTEX
8
Halfen
62
7
10
 1460.385
20
 81.746
30
0
0
VERTEX
8
Halfen
62
7
10
 1460.234
20
 81.715
30
0
0
VERTEX
8
Halfen
62
7
10
 1460.084
20
 81.678
30
0
0
VERTEX
8
Halfen
62
7
10
 1459.936
20
 81.634
30
0
0
VERTEX
8
Halfen
62
7
10
 1459.789
20
 81.584
30
0
0
VERTEX
8
Halfen
62
7
10
 1459.646
20
 81.527
30
0
0
VERTEX
8
Halfen
62
7
10
 1459.505
20
 81.464
30
0
0
VERTEX
8
Halfen
62
7
10
 1459.366
20
 81.395
30
0
0
VERTEX
8
Halfen
62
7
10
 1459.231
20
 81.32
30
0
0
VERTEX
8
Halfen
62
7
10
 1459.1
20
 81.239
30
0
0
VERTEX
8
Halfen
62
7
10
 1458.972
20
 81.153
30
0
0
VERTEX
8
Halfen
62
7
10
 1458.848
20
 81.06
30
0
0
VERTEX
8
Halfen
62
7
10
 1458.728
20
 80.963
30
0
0
VERTEX
8
Halfen
62
7
10
 1458.613
20
 80.86
30
0
0
VERTEX
8
Halfen
62
7
10
 1458.502
20
 80.752
30
0
0
VERTEX
8
Halfen
62
7
10
 1458.397
20
 80.639
30
0
0
VERTEX
8
Halfen
62
7
10
 1458.296
20
 80.522
30
0
0
VERTEX
8
Halfen
62
7
10
 1457.41
20
 79.491
30
0
0
VERTEX
8
Halfen
62
7
10
 1456.479
20
 78.5
30
0
0
VERTEX
8
Halfen
62
7
10
 1455.505
20
 77.551
30
0
0
VERTEX
8
Halfen
62
7
10
 1454.491
20
 76.646
30
0
0
VERTEX
8
Halfen
62
7
10
 1453.437
20
 75.787
30
0
0
VERTEX
8
Halfen
62
7
10
 1452.347
20
 74.975
30
0
0
VERTEX
8
Halfen
62
7
10
 1451.222
20
 74.211
30
0
0
VERTEX
8
Halfen
62
7
10
 1450.064
20
 73.499
30
0
0
VERTEX
8
Halfen
62
7
10
 1448.876
20
 72.838
30
0
0
VERTEX
8
Halfen
62
7
10
 1447.66
20
 72.23
30
0
0
VERTEX
8
Halfen
62
7
10
 1446.418
20
 71.676
30
0
0
VERTEX
8
Halfen
62
7
10
 1445.153
20
 71.178
30
0
0
VERTEX
8
Halfen
62
7
10
 1443.867
20
 70.736
30
0
0
VERTEX
8
Halfen
62
7
10
 1442.563
20
 70.351
30
0
0
VERTEX
8
Halfen
62
7
10
 1441.243
20
 70.024
30
0
0
VERTEX
8
Halfen
62
7
10
 1439.911
20
 69.756
30
0
0
VERTEX
8
Halfen
62
7
10
 1438.567
20
 69.547
30
0
0
VERTEX
8
Halfen
62
7
10
 1437.216
20
 69.397
30
0
0
VERTEX
8
Halfen
62
7
10
 1435.859
20
 69.307
30
0
0
VERTEX
8
Halfen
62
7
10
 1434.5
20
 69.277
30
0
0
VERTEX
8
Halfen
62
7
10
 1412.5
20
 69.277
30
0
0
VERTEX
8
Halfen
62
7
10
 1411.141
20
 69.307
30
0
0
VERTEX
8
Halfen
62
7
10
 1409.784
20
 69.397
30
0
0
VERTEX
8
Halfen
62
7
10
 1408.433
20
 69.547
30
0
0
VERTEX
8
Halfen
62
7
10
 1407.089
20
 69.756
30
0
0
VERTEX
8
Halfen
62
7
10
 1405.757
20
 70.024
30
0
0
VERTEX
8
Halfen
62
7
10
 1404.437
20
 70.351
30
0
0
VERTEX
8
Halfen
62
7
10
 1403.133
20
 70.736
30
0
0
VERTEX
8
Halfen
62
7
10
 1401.847
20
 71.178
30
0
0
VERTEX
8
Halfen
62
7
10
 1400.582
20
 71.676
30
0
0
VERTEX
8
Halfen
62
7
10
 1399.34
20
 72.23
30
0
0
VERTEX
8
Halfen
62
7
10
 1398.124
20
 72.838
30
0
0
VERTEX
8
Halfen
62
7
10
 1396.936
20
 73.499
30
0
0
VERTEX
8
Halfen
62
7
10
 1395.778
20
 74.211
30
0
0
VERTEX
8
Halfen
62
7
10
 1394.653
20
 74.975
30
0
0
VERTEX
8
Halfen
62
7
10
 1393.563
20
 75.787
30
0
0
VERTEX
8
Halfen
62
7
10
 1392.509
20
 76.646
30
0
0
VERTEX
8
Halfen
62
7
10
 1391.495
20
 77.551
30
0
0
VERTEX
8
Halfen
62
7
10
 1390.521
20
 78.5
30
0
0
VERTEX
8
Halfen
62
7
10
 1389.59
20
 79.491
30
0
0
VERTEX
8
Halfen
62
7
10
 1388.704
20
 80.522
30
0
0
VERTEX
8
Halfen
62
7
10
 1388.603
20
 80.639
30
0
0
VERTEX
8
Halfen
62
7
10
 1388.498
20
 80.752
30
0
0
VERTEX
8
Halfen
62
7
10
 1388.387
20
 80.86
30
0
0
VERTEX
8
Halfen
62
7
10
 1388.272
20
 80.963
30
0
0
VERTEX
8
Halfen
62
7
10
 1388.152
20
 81.06
30
0
0
VERTEX
8
Halfen
62
7
10
 1388.028
20
 81.153
30
0
0
VERTEX
8
Halfen
62
7
10
 1387.9
20
 81.239
30
0
0
VERTEX
8
Halfen
62
7
10
 1387.769
20
 81.32
30
0
0
VERTEX
8
Halfen
62
7
10
 1387.634
20
 81.395
30
0
0
VERTEX
8
Halfen
62
7
10
 1387.495
20
 81.464
30
0
0
VERTEX
8
Halfen
62
7
10
 1387.354
20
 81.527
30
0
0
VERTEX
8
Halfen
62
7
10
 1387.211
20
 81.584
30
0
0
VERTEX
8
Halfen
62
7
10
 1387.064
20
 81.634
30
0
0
VERTEX
8
Halfen
62
7
10
 1386.916
20
 81.678
30
0
0
VERTEX
8
Halfen
62
7
10
 1386.766
20
 81.715
30
0
0
VERTEX
8
Halfen
62
7
10
 1386.615
20
 81.746
30
0
0
VERTEX
8
Halfen
62
7
10
 1386.462
20
 81.769
30
0
0
VERTEX
8
Halfen
62
7
10
 1386.309
20
 81.786
30
0
0
VERTEX
8
Halfen
62
7
10
 1386.154
20
 81.797
30
0
0
VERTEX
8
Halfen
62
7
10
 1386
20
 81.8
30
0
0
VERTEX
8
Halfen
62
7
10
 1382
20
 81.8
30
0
0
VERTEX
8
Halfen
62
7
10
 1382
20
-81.8
30
0
0
VERTEX
8
Halfen
62
7
10
 1386
20
-81.8
30
0
0
VERTEX
8
Halfen
62
7
10
 1386.154
20
-81.797
30
0
0
VERTEX
8
Halfen
62
7
10
 1386.309
20
-81.786
30
0
0
VERTEX
8
Halfen
62
7
10
 1386.462
20
-81.769
30
0
0
VERTEX
8
Halfen
62
7
10
 1386.615
20
-81.746
30
0
0
VERTEX
8
Halfen
62
7
10
 1386.766
20
-81.715
30
0
0
VERTEX
8
Halfen
62
7
10
 1386.916
20
-81.678
30
0
0
VERTEX
8
Halfen
62
7
10
 1387.064
20
-81.634
30
0
0
VERTEX
8
Halfen
62
7
10
 1387.211
20
-81.584
30
0
0
VERTEX
8
Halfen
62
7
10
 1387.354
20
-81.527
30
0
0
VERTEX
8
Halfen
62
7
10
 1387.495
20
-81.464
30
0
0
VERTEX
8
Halfen
62
7
10
 1387.634
20
-81.395
30
0
0
VERTEX
8
Halfen
62
7
10
 1387.769
20
-81.32
30
0
0
VERTEX
8
Halfen
62
7
10
 1387.9
20
-81.239
30
0
0
VERTEX
8
Halfen
62
7
10
 1388.028
20
-81.153
30
0
0
VERTEX
8
Halfen
62
7
10
 1388.152
20
-81.06
30
0
0
VERTEX
8
Halfen
62
7
10
 1388.272
20
-80.963
30
0
0
VERTEX
8
Halfen
62
7
10
 1388.387
20
-80.86
30
0
0
VERTEX
8
Halfen
62
7
10
 1388.498
20
-80.752
30
0
0
VERTEX
8
Halfen
62
7
10
 1388.603
20
-80.639
30
0
0
VERTEX
8
Halfen
62
7
10
 1388.704
20
-80.522
30
0
0
VERTEX
8
Halfen
62
7
10
 1389.59
20
-79.491
30
0
0
VERTEX
8
Halfen
62
7
10
 1390.521
20
-78.5
30
0
0
VERTEX
8
Halfen
62
7
10
 1391.495
20
-77.551
30
0
0
VERTEX
8
Halfen
62
7
10
 1392.509
20
-76.646
30
0
0
VERTEX
8
Halfen
62
7
10
 1393.563
20
-75.787
30
0
0
VERTEX
8
Halfen
62
7
10
 1394.653
20
-74.975
30
0
0
VERTEX
8
Halfen
62
7
10
 1395.778
20
-74.211
30
0
0
VERTEX
8
Halfen
62
7
10
 1396.936
20
-73.499
30
0
0
VERTEX
8
Halfen
62
7
10
 1398.124
20
-72.838
30
0
0
VERTEX
8
Halfen
62
7
10
 1399.34
20
-72.23
30
0
0
VERTEX
8
Halfen
62
7
10
 1400.582
20
-71.676
30
0
0
VERTEX
8
Halfen
62
7
10
 1401.847
20
-71.178
30
0
0
VERTEX
8
Halfen
62
7
10
 1403.133
20
-70.736
30
0
0
VERTEX
8
Halfen
62
7
10
 1404.437
20
-70.351
30
0
0
VERTEX
8
Halfen
62
7
10
 1405.757
20
-70.024
30
0
0
VERTEX
8
Halfen
62
7
10
 1407.089
20
-69.756
30
0
0
VERTEX
8
Halfen
62
7
10
 1408.433
20
-69.547
30
0
0
VERTEX
8
Halfen
62
7
10
 1409.784
20
-69.397
30
0
0
VERTEX
8
Halfen
62
7
10
 1411.141
20
-69.307
30
0
0
VERTEX
8
Halfen
62
7
10
 1412.5
20
-69.277
30
0
0
VERTEX
8
Halfen
62
7
10
 1434.5
20
-69.277
30
0
0
VERTEX
8
Halfen
62
7
10
 1435.859
20
-69.307
30
0
0
VERTEX
8
Halfen
62
7
10
 1437.216
20
-69.397
30
0
0
VERTEX
8
Halfen
62
7
10
 1438.567
20
-69.547
30
0
0
VERTEX
8
Halfen
62
7
10
 1439.911
20
-69.756
30
0
0
VERTEX
8
Halfen
62
7
10
 1441.243
20
-70.024
30
0
0
VERTEX
8
Halfen
62
7
10
 1442.563
20
-70.351
30
0
0
VERTEX
8
Halfen
62
7
10
 1443.867
20
-70.736
30
0
0
VERTEX
8
Halfen
62
7
10
 1445.153
20
-71.178
30
0
0
VERTEX
8
Halfen
62
7
10
 1446.418
20
-71.676
30
0
0
VERTEX
8
Halfen
62
7
10
 1447.66
20
-72.23
30
0
0
VERTEX
8
Halfen
62
7
10
 1448.876
20
-72.838
30
0
0
VERTEX
8
Halfen
62
7
10
 1450.064
20
-73.499
30
0
0
VERTEX
8
Halfen
62
7
10
 1451.222
20
-74.211
30
0
0
VERTEX
8
Halfen
62
7
10
 1452.347
20
-74.975
30
0
0
VERTEX
8
Halfen
62
7
10
 1453.437
20
-75.787
30
0
0
VERTEX
8
Halfen
62
7
10
 1454.491
20
-76.646
30
0
0
VERTEX
8
Halfen
62
7
10
 1455.505
20
-77.551
30
0
0
VERTEX
8
Halfen
62
7
10
 1456.479
20
-78.5
30
0
0
VERTEX
8
Halfen
62
7
10
 1457.41
20
-79.491
30
0
0
VERTEX
8
Halfen
62
7
10
 1458.296
20
-80.522
30
0
0
VERTEX
8
Halfen
62
7
10
 1458.397
20
-80.639
30
0
0
VERTEX
8
Halfen
62
7
10
 1458.502
20
-80.752
30
0
0
VERTEX
8
Halfen
62
7
10
 1458.613
20
-80.86
30
0
0
VERTEX
8
Halfen
62
7
10
 1458.728
20
-80.963
30
0
0
VERTEX
8
Halfen
62
7
10
 1458.848
20
-81.06
30
0
0
VERTEX
8
Halfen
62
7
10
 1458.972
20
-81.153
30
0
0
VERTEX
8
Halfen
62
7
10
 1459.1
20
-81.239
30
0
0
VERTEX
8
Halfen
62
7
10
 1459.231
20
-81.32
30
0
0
VERTEX
8
Halfen
62
7
10
 1459.366
20
-81.395
30
0
0
VERTEX
8
Halfen
62
7
10
 1459.505
20
-81.464
30
0
0
VERTEX
8
Halfen
62
7
10
 1459.646
20
-81.527
30
0
0
VERTEX
8
Halfen
62
7
10
 1459.789
20
-81.584
30
0
0
VERTEX
8
Halfen
62
7
10
 1459.936
20
-81.634
30
0
0
VERTEX
8
Halfen
62
7
10
 1460.084
20
-81.678
30
0
0
VERTEX
8
Halfen
62
7
10
 1460.234
20
-81.715
30
0
0
VERTEX
8
Halfen
62
7
10
 1460.385
20
-81.746
30
0
0
VERTEX
8
Halfen
62
7
10
 1460.538
20
-81.769
30
0
0
VERTEX
8
Halfen
62
7
10
 1460.691
20
-81.786
30
0
0
VERTEX
8
Halfen
62
7
10
 1460.846
20
-81.797
30
0
0
VERTEX
8
Halfen
62
7
10
 1461
20
-81.8
30
0
0
SEQEND
8
Halfen
0
POLYLINE
8
Halfen
62
7
66
1
10
0.0
20
0.0
30
0.0
70
1
0
VERTEX
8
Halfen
62
7
10
 1450
20
-457.177
30
0
0
VERTEX
8
Halfen
62
7
10
 1450
20
-81.213
30
0
0
VERTEX
8
Halfen
62
7
10
 1449.705
20
-77.459
30
0
0
VERTEX
8
Halfen
62
7
10
 1448.825
20
-73.797
30
0
0
VERTEX
8
Halfen
62
7
10
 1447.384
20
-70.317
30
0
0
VERTEX
8
Halfen
62
7
10
 1445.416
20
-67.106
30
0
0
VERTEX
8
Halfen
62
7
10
 1442.971
20
-64.243
30
0
0
VERTEX
8
Halfen
62
7
10
 1241.272
20
 137.456
30
0
0
VERTEX
8
Halfen
62
7
10
 1239.438
20
 139.604
30
0
0
VERTEX
8
Halfen
62
7
10
 1237.962
20
 142.012
30
0
0
VERTEX
8
Halfen
62
7
10
 1236.881
20
 144.621
30
0
0
VERTEX
8
Halfen
62
7
10
 1236.222
20
 147.368
30
0
0
VERTEX
8
Halfen
62
7
10
 1236
20
 150.184
30
0
0
VERTEX
8
Halfen
62
7
10
 1236
20
 191.147
30
0
0
VERTEX
8
Halfen
62
7
10
 1236.222
20
 193.963
30
0
0
VERTEX
8
Halfen
62
7
10
 1236.881
20
 196.71
30
0
0
VERTEX
8
Halfen
62
7
10
 1237.962
20
 199.319
30
0
0
VERTEX
8
Halfen
62
7
10
 1239.438
20
 201.728
30
0
0
VERTEX
8
Halfen
62
7
10
 1241.272
20
 203.875
30
0
0
VERTEX
8
Halfen
62
7
10
 1243.42
20
 205.71
30
0
0
VERTEX
8
Halfen
62
7
10
 1245.828
20
 207.186
30
0
0
VERTEX
8
Halfen
62
7
10
 1248.438
20
 208.266
30
0
0
VERTEX
8
Halfen
62
7
10
 1251.184
20
 208.926
30
0
0
VERTEX
8
Halfen
62
7
10
 1254
20
 209.147
30
0
0
VERTEX
8
Halfen
62
7
10
 1350
20
 209.147
30
0
0
VERTEX
8
Halfen
62
7
10
 1350
20
 215.147
30
0
0
VERTEX
8
Halfen
62
7
10
 1254
20
 215.147
30
0
0
VERTEX
8
Halfen
62
7
10
 1250.246
20
 214.852
30
0
0
VERTEX
8
Halfen
62
7
10
 1246.584
20
 213.973
30
0
0
VERTEX
8
Halfen
62
7
10
 1243.104
20
 212.532
30
0
0
VERTEX
8
Halfen
62
7
10
 1239.893
20
 210.564
30
0
0
VERTEX
8
Halfen
62
7
10
 1237.029
20
 208.118
30
0
0
VERTEX
8
Halfen
62
7
10
 1234.584
20
 205.254
30
0
0
VERTEX
8
Halfen
62
7
10
 1232.616
20
 202.043
30
0
0
VERTEX
8
Halfen
62
7
10
 1231.175
20
 198.564
30
0
0
VERTEX
8
Halfen
62
7
10
 1230.295
20
 194.902
30
0
0
VERTEX
8
Halfen
62
7
10
 1230
20
 191.147
30
0
0
VERTEX
8
Halfen
62
7
10
 1230
20
 150.184
30
0
0
VERTEX
8
Halfen
62
7
10
 1230.295
20
 146.429
30
0
0
VERTEX
8
Halfen
62
7
10
 1231.175
20
 142.767
30
0
0
VERTEX
8
Halfen
62
7
10
 1232.616
20
 139.288
30
0
0
VERTEX
8
Halfen
62
7
10
 1234.584
20
 136.077
30
0
0
VERTEX
8
Halfen
62
7
10
 1237.029
20
 133.213
30
0
0
VERTEX
8
Halfen
62
7
10
 1438.728
20
-68.485
30
0
0
VERTEX
8
Halfen
62
7
10
 1440.562
20
-70.633
30
0
0
VERTEX
8
Halfen
62
7
10
 1442.038
20
-73.041
30
0
0
VERTEX
8
Halfen
62
7
10
 1443.119
20
-75.651
30
0
0
VERTEX
8
Halfen
62
7
10
 1443.778
20
-78.397
30
0
0
VERTEX
8
Halfen
62
7
10
 1444
20
-81.213
30
0
0
VERTEX
8
Halfen
62
7
10
 1444
20
-457.177
30
0
0
SEQEND
8
Halfen
0
POLYLINE
8
Halfen
62
7
66
1
10
0.0
20
0.0
30
0.0
70
1
0
VERTEX
8
Halfen
62
7
10
 1230
20
-457.324
30
0
0
VERTEX
8
Halfen
62
7
10
 1230
20
-81.361
30
0
0
VERTEX
8
Halfen
62
7
10
 1230.295
20
-77.606
30
0
0
VERTEX
8
Halfen
62
7
10
 1231.175
20
-73.944
30
0
0
VERTEX
8
Halfen
62
7
10
 1232.616
20
-70.465
30
0
0
VERTEX
8
Halfen
62
7
10
 1234.584
20
-67.254
30
0
0
VERTEX
8
Halfen
62
7
10
 1237.029
20
-64.39
30
0
0
VERTEX
8
Halfen
62
7
10
 1438.728
20
 137.308
30
0
0
VERTEX
8
Halfen
62
7
10
 1440.562
20
 139.456
30
0
0
VERTEX
8
Halfen
62
7
10
 1442.038
20
 141.865
30
0
0
VERTEX
8
Halfen
62
7
10
 1443.119
20
 144.474
30
0
0
VERTEX
8
Halfen
62
7
10
 1443.778
20
 147.221
30
0
0
VERTEX
8
Halfen
62
7
10
 1444
20
 150.036
30
0
0
VERTEX
8
Halfen
62
7
10
 1444
20
 191
30
0
0
VERTEX
8
Halfen
62
7
10
 1443.778
20
 193.816
30
0
0
VERTEX
8
Halfen
62
7
10
 1443.119
20
 196.562
30
0
0
VERTEX
8
Halfen
62
7
10
 1442.038
20
 199.172
30
0
0
VERTEX
8
Halfen
62
7
10
 1440.562
20
 201.58
30
0
0
VERTEX
8
Halfen
62
7
10
 1438.728
20
 203.728
30
0
0
VERTEX
8
Halfen
62
7
10
 1436.58
20
 205.562
30
0
0
VERTEX
8
Halfen
62
7
10
 1434.172
20
 207.038
30
0
0
VERTEX
8
Halfen
62
7
10
 1431.562
20
 208.119
30
0
0
VERTEX
8
Halfen
62
7
10
 1428.816
20
 208.778
30
0
0
VERTEX
8
Halfen
62
7
10
 1426
20
 209
30
0
0
VERTEX
8
Halfen
62
7
10
 1330
20
 209
30
0
0
VERTEX
8
Halfen
62
7
10
 1330
20
 215
30
0
0
VERTEX
8
Halfen
62
7
10
 1426
20
 215
30
0
0
VERTEX
8
Halfen
62
7
10
 1429.754
20
 214.705
30
0
0
VERTEX
8
Halfen
62
7
10
 1433.416
20
 213.825
30
0
0
VERTEX
8
Halfen
62
7
10
 1436.896
20
 212.384
30
0
0
VERTEX
8
Halfen
62
7
10
 1440.107
20
 210.416
30
0
0
VERTEX
8
Halfen
62
7
10
 1442.971
20
 207.971
30
0
0
VERTEX
8
Halfen
62
7
10
 1445.416
20
 205.107
30
0
0
VERTEX
8
Halfen
62
7
10
 1447.384
20
 201.896
30
0
0
VERTEX
8
Halfen
62
7
10
 1448.825
20
 198.416
30
0
0
VERTEX
8
Halfen
62
7
10
 1449.705
20
 194.754
30
0
0
VERTEX
8
Halfen
62
7
10
 1450
20
 191
30
0
0
VERTEX
8
Halfen
62
7
10
 1450
20
 150.036
30
0
0
VERTEX
8
Halfen
62
7
10
 1449.705
20
 146.282
30
0
0
VERTEX
8
Halfen
62
7
10
 1448.825
20
 142.62
30
0
0
VERTEX
8
Halfen
62
7
10
 1447.384
20
 139.141
30
0
0
VERTEX
8
Halfen
62
7
10
 1445.416
20
 135.929
30
0
0
VERTEX
8
Halfen
62
7
10
 1442.971
20
 133.066
30
0
0
VERTEX
8
Halfen
62
7
10
 1241.272
20
-68.633
30
0
0
VERTEX
8
Halfen
62
7
10
 1239.438
20
-70.78
30
0
0
VERTEX
8
Halfen
62
7
10
 1237.962
20
-73.189
30
0
0
VERTEX
8
Halfen
62
7
10
 1236.881
20
-75.798
30
0
0
VERTEX
8
Halfen
62
7
10
 1236.222
20
-78.545
30
0
0
VERTEX
8
Halfen
62
7
10
 1236
20
-81.361
30
0
0
VERTEX
8
Halfen
62
7
10
 1236
20
-457.324
30
0
0
SEQEND
8
Halfen
0
ENDSEC
0
EOF
