  0
SECTION
  2
HEADER
  9
$ACADVER
  1
AC1021
  9
$ACADMAINTVER
 70
    50
  9
$DWGCODEPAGE
  3
ANSI_1252
  9
$LASTSAVEDBY
  1
uhlaender
  9
$INSBASE
 10
2522.428186936312
 20
2564.95029540152
 30
0.0
  9
$EXTMIN
 10
2347.950271084845
 20
2417.958506031537
 30
-0.0000000000000006
  9
$EXTMAX
 10
2668.236990412042
 20
2623.81027275332
 30
-0.0000000000000006
  9
$LIMMIN
 10
0.0
 20
0.0
  9
$LIMMAX
 10
420.0
 20
297.0
  9
$ORTHOMODE
 70
     1
  9
$REGENMODE
 70
     1
  9
$FILLMODE
 70
     1
  9
$QTEXTMODE
 70
     0
  9
$MIRRTEXT
 70
     0
  9
$LTSCALE
 40
1.0
  9
$ATTMODE
 70
     1
  9
$TEXTSIZE
 40
2.5
  9
$TRACEWID
 40
1.0
  9
$TEXTSTYLE
  7
Standard
  9
$CLAYER
  8
Halfen
  9
$CELTYPE
  6
ByLayer
  9
$CECOLOR
 62
   256
  9
$CELTSCALE
 40
1.0
  9
$DISPSILH
 70
     0
  9
$DIMSCALE
 40
1.0
  9
$DIMASZ
 40
2.5
  9
$DIMEXO
 40
0.625
  9
$DIMDLI
 40
3.75
  9
$DIMRND
 40
0.0
  9
$DIMDLE
 40
0.0
  9
$DIMEXE
 40
1.25
  9
$DIMTP
 40
0.0
  9
$DIMTM
 40
0.0
  9
$DIMTXT
 40
2.5
  9
$DIMCEN
 40
2.5
  9
$DIMTSZ
 40
0.0
  9
$DIMTOL
 70
     0
  9
$DIMLIM
 70
     0
  9
$DIMTIH
 70
     0
  9
$DIMTOH
 70
     0
  9
$DIMSE1
 70
     0
  9
$DIMSE2
 70
     0
  9
$DIMTAD
 70
     1
  9
$DIMZIN
 70
     8
  9
$DIMBLK
  1

  9
$DIMASO
 70
     1
  9
$DIMSHO
 70
     1
  9
$DIMPOST
  1

  9
$DIMAPOST
  1

  9
$DIMALT
 70
     0
  9
$DIMALTD
 70
     3
  9
$DIMALTF
 40
0.03937007874016
  9
$DIMLFAC
 40
1.0
  9
$DIMTOFL
 70
     1
  9
$DIMTVP
 40
0.0
  9
$DIMTIX
 70
     0
  9
$DIMSOXD
 70
     0
  9
$DIMSAH
 70
     0
  9
$DIMBLK1
  1

  9
$DIMBLK2
  1

  9
$DIMSTYLE
  2
ISO-25
  9
$DIMCLRD
 70
     0
  9
$DIMCLRE
 70
     0
  9
$DIMCLRT
 70
     0
  9
$DIMTFAC
 40
1.0
  9
$DIMGAP
 40
0.625
  9
$DIMJUST
 70
     0
  9
$DIMSD1
 70
     0
  9
$DIMSD2
 70
     0
  9
$DIMTOLJ
 70
     0
  9
$DIMTZIN
 70
     8
  9
$DIMALTZ
 70
     0
  9
$DIMALTTZ
 70
     0
  9
$DIMUPT
 70
     0
  9
$DIMDEC
 70
     2
  9
$DIMTDEC
 70
     2
  9
$DIMALTU
 70
     2
  9
$DIMALTTD
 70
     3
  9
$DIMTXSTY
  7
Standard
  9
$DIMAUNIT
 70
     0
  9
$DIMADEC
 70
     0
  9
$DIMALTRND
 40
0.0
  9
$DIMAZIN
 70
     0
  9
$DIMDSEP
 70
    44
  9
$DIMATFIT
 70
     3
  9
$DIMFRAC
 70
     0
  9
$DIMLDRBLK
  1

  9
$DIMLUNIT
 70
     2
  9
$DIMLWD
 70
    -2
  9
$DIMLWE
 70
    -2
  9
$DIMTMOVE
 70
     0
  9
$DIMFXL
 40
1.0
  9
$DIMFXLON
 70
     0
  9
$DIMJOGANG
 40
0.7853981633974483
  9
$DIMTFILL
 70
     0
  9
$DIMTFILLCLR
 70
     0
  9
$DIMARCSYM
 70
     0
  9
$DIMLTYPE
  6

  9
$DIMLTEX1
  6

  9
$DIMLTEX2
  6

  9
$LUNITS
 70
     2
  9
$LUPREC
 70
     4
  9
$SKETCHINC
 40
1.0
  9
$FILLETRAD
 40
0.0
  9
$AUNITS
 70
     0
  9
$AUPREC
 70
     0
  9
$MENU
  1
.
  9
$ELEVATION
 40
0.0
  9
$PELEVATION
 40
0.0
  9
$THICKNESS
 40
0.0
  9
$LIMCHECK
 70
     0
  9
$CHAMFERA
 40
0.0
  9
$CHAMFERB
 40
0.0
  9
$CHAMFERC
 40
0.0
  9
$CHAMFERD
 40
0.0
  9
$SKPOLY
 70
     0
  9
$TDCREATE
 40
2454781.633586690
  9
$TDUCREATE
 40
2454781.591920024
  9
$TDUPDATE
 40
2454783.557409387
  9
$TDUUPDATE
 40
2454783.515742720
  9
$TDINDWG
 40
0.1166467824
  9
$TDUSRTIMER
 40
0.1166411806
  9
$USRTIMER
 70
     1
  9
$ANGBASE
 50
0.0
  9
$ANGDIR
 70
     0
  9
$PDMODE
 70
     0
  9
$PDSIZE
 40
0.0
  9
$PLINEWID
 40
0.0
  9
$SPLFRAME
 70
     0
  9
$SPLINETYPE
 70
     6
  9
$SPLINESEGS
 70
     8
  9
$HANDSEED
  5
106
  9
$SURFTAB1
 70
     6
  9
$SURFTAB2
 70
     6
  9
$SURFTYPE
 70
     6
  9
$SURFU
 70
     6
  9
$SURFV
 70
     6
  9
$UCSBASE
  2

  9
$UCSNAME
  2

  9
$UCSORG
 10
0.0
 20
0.0
 30
0.0
  9
$UCSXDIR
 10
1.0
 20
0.0
 30
0.0
  9
$UCSYDIR
 10
0.0
 20
1.0
 30
0.0
  9
$UCSORTHOREF
  2

  9
$UCSORTHOVIEW
 70
     0
  9
$UCSORGTOP
 10
0.0
 20
0.0
 30
0.0
  9
$UCSORGBOTTOM
 10
0.0
 20
0.0
 30
0.0
  9
$UCSORGLEFT
 10
0.0
 20
0.0
 30
0.0
  9
$UCSORGRIGHT
 10
0.0
 20
0.0
 30
0.0
  9
$UCSORGFRONT
 10
0.0
 20
0.0
 30
0.0
  9
$UCSORGBACK
 10
0.0
 20
0.0
 30
0.0
  9
$PUCSBASE
  2

  9
$PUCSNAME
  2

  9
$PUCSORG
 10
0.0
 20
0.0
 30
0.0
  9
$PUCSXDIR
 10
1.0
 20
0.0
 30
0.0
  9
$PUCSYDIR
 10
0.0
 20
1.0
 30
0.0
  9
$PUCSORTHOREF
  2

  9
$PUCSORTHOVIEW
 70
     0
  9
$PUCSORGTOP
 10
0.0
 20
0.0
 30
0.0
  9
$PUCSORGBOTTOM
 10
0.0
 20
0.0
 30
0.0
  9
$PUCSORGLEFT
 10
0.0
 20
0.0
 30
0.0
  9
$PUCSORGRIGHT
 10
0.0
 20
0.0
 30
0.0
  9
$PUCSORGFRONT
 10
0.0
 20
0.0
 30
0.0
  9
$PUCSORGBACK
 10
0.0
 20
0.0
 30
0.0
  9
$USERI1
 70
     0
  9
$USERI2
 70
     0
  9
$USERI3
 70
     0
  9
$USERI4
 70
     0
  9
$USERI5
 70
     0
  9
$USERR1
 40
0.0
  9
$USERR2
 40
0.0
  9
$USERR3
 40
0.0
  9
$USERR4
 40
0.0
  9
$USERR5
 40
0.0
  9
$WORLDVIEW
 70
     1
  9
$SHADEDGE
 70
     3
  9
$SHADEDIF
 70
    70
  9
$TILEMODE
 70
     1
  9
$MAXACTVP
 70
    64
  9
$PINSBASE
 10
0.0
 20
0.0
 30
0.0
  9
$PLIMCHECK
 70
     0
  9
$PEXTMIN
 10
0.0
 20
0.0
 30
0.0
  9
$PEXTMAX
 10
0.0
 20
0.0
 30
0.0
  9
$PLIMMIN
 10
0.0
 20
0.0
  9
$PLIMMAX
 10
12.0
 20
9.0
  9
$UNITMODE
 70
     0
  9
$VISRETAIN
 70
     1
  9
$PLINEGEN
 70
     0
  9
$PSLTSCALE
 70
     1
  9
$TREEDEPTH
 70
  3020
  9
$CMLSTYLE
  2
Standard
  9
$CMLJUST
 70
     0
  9
$CMLSCALE
 40
20.0
  9
$PROXYGRAPHICS
 70
     1
  9
$MEASUREMENT
 70
     1
  9
$CELWEIGHT
370
    -1
  9
$ENDCAPS
280
     0
  9
$JOINSTYLE
280
     0
  9
$LWDISPLAY
290
     0
  9
$INSUNITS
 70
     4
  9
$HYPERLINKBASE
  1

  9
$STYLESHEET
  1
Halfen-Plotstil.ctb
  9
$XEDIT
290
     1
  9
$CEPSNTYPE
380
     0
  9
$PSTYLEMODE
290
     1
  9
$FINGERPRINTGUID
  2
{3411F999-871C-439B-9C35-909CC5F0DAF1}
  9
$VERSIONGUID
  2
{B4EA8028-EC3C-4563-BEE4-AF38814E9395}
  9
$EXTNAMES
290
     1
  9
$PSVPSCALE
 40
0.0
  9
$OLESTARTUP
290
     0
  9
$SORTENTS
280
   127
  9
$INDEXCTL
280
     0
  9
$HIDETEXT
280
     1
  9
$XCLIPFRAME
290
     0
  9
$HALOGAP
280
     0
  9
$OBSCOLOR
 70
   257
  9
$OBSLTYPE
280
     0
  9
$INTERSECTIONDISPLAY
280
     0
  9
$INTERSECTIONCOLOR
 70
   257
  9
$DIMASSOC
280
     2
  9
$PROJECTNAME
  1

  9
$CAMERADISPLAY
290
     0
  9
$LENSLENGTH
 40
50.0
  9
$CAMERAHEIGHT
 40
0.0
  9
$STEPSPERSEC
 40
2.0
  9
$STEPSIZE
 40
6.0
  9
$3DDWFPREC
 40
2.0
  9
$PSOLWIDTH
 40
5.0
  9
$PSOLHEIGHT
 40
80.0
  9
$LOFTANG1
 40
1.570796326794896
  9
$LOFTANG2
 40
1.570796326794896
  9
$LOFTMAG1
 40
0.0
  9
$LOFTMAG2
 40
0.0
  9
$LOFTPARAM
 70
     7
  9
$LOFTNORMALS
280
     1
  9
$LATITUDE
 40
37.795
  9
$LONGITUDE
 40
-122.394
  9
$NORTHDIRECTION
 40
0.0
  9
$TIMEZONE
 70
 -8000
  9
$LIGHTGLYPHDISPLAY
280
     1
  9
$TILEMODELIGHTSYNCH
280
     1
  9
$CMATERIAL
347
32
  9
$SOLIDHIST
280
     1
  9
$SHOWHIST
280
     1
  9
$DWFFRAME
280
     2
  9
$DGNFRAME
280
     0
  9
$REALWORLDSCALE
290
     1
  9
$INTERFERECOLOR
 62
     1
  9
$INTERFEREOBJVS
345
3C
  9
$INTERFEREVPVS
346
3D
  9
$CSHADOW
280
     0
  9
$SHADOWPLANELOCATION
 40
0.0
  0
ENDSEC
  0
SECTION
  2
CLASSES
  0
CLASS
  1
ACDBDICTIONARYWDFLT
  2
AcDbDictionaryWithDefault
  3
ObjectDBX Classes
 90
        0
 91
        1
280
     0
281
     0
  0
CLASS
  1
DICTIONARYVAR
  2
AcDbDictionaryVar
  3
ObjectDBX Classes
 90
        0
 91
       13
280
     0
281
     0
  0
CLASS
  1
TABLESTYLE
  2
AcDbTableStyle
  3
ObjectDBX Classes
 90
     4095
 91
        1
280
     0
281
     0
  0
CLASS
  1
MATERIAL
  2
AcDbMaterial
  3
ObjectDBX Classes
 90
     1153
 91
        3
280
     0
281
     0
  0
CLASS
  1
VISUALSTYLE
  2
AcDbVisualStyle
  3
ObjectDBX Classes
 90
     4095
 91
       16
280
     0
281
     0
  0
CLASS
  1
SCALE
  2
AcDbScale
  3
ObjectDBX Classes
 90
     1153
 91
       17
280
     0
281
     0
  0
CLASS
  1
MLEADERSTYLE
  2
AcDbMLeaderStyle
  3
ACDB_MLEADERSTYLE_CLASS
 90
     4095
 91
        1
280
     0
281
     0
  0
CLASS
  1
CELLSTYLEMAP
  2
AcDbCellStyleMap
  3
ObjectDBX Classes
 90
     1152
 91
        2
280
     0
281
     0
  0
CLASS
  1
EXACXREFPANELOBJECT
  2
ExAcXREFPanelObject
  3
EXAC_ESW
 90
     1025
 91
        0
280
     1
281
     0
  0
CLASS
  1
NPOCOLLECTION
  2
AcDbImpNonPersistentObjectsCollection
  3
ObjectDBX Classes
 90
     1153
 91
        0
280
     0
281
     0
  0
CLASS
  1
LAYER_INDEX
  2
AcDbLayerIndex
  3
ObjectDBX Classes
 90
        0
 91
        0
280
     0
281
     0
  0
CLASS
  1
SPATIAL_INDEX
  2
AcDbSpatialIndex
  3
ObjectDBX Classes
 90
        0
 91
        0
280
     0
281
     0
  0
CLASS
  1
IDBUFFER
  2
AcDbIdBuffer
  3
ObjectDBX Classes
 90
        0
 91
        0
280
     0
281
     0
  0
CLASS
  1
SORTENTSTABLE
  2
AcDbSortentsTable
  3
ObjectDBX Classes
 90
        0
 91
        0
280
     0
281
     0
  0
CLASS
  1
SOLID_BACKGROUND
  2
AcDbSolidBackground
  3
SCENEOE
 90
     4095
 91
        0
280
     0
281
     0
  0
ENDSEC
  0
SECTION
  2
TABLES
  0
TABLE
  2
VPORT
  5
26
102
{ACAD_XDICTIONARY
360
2A
102
}
330
0
100
AcDbSymbolTable
 70
     1
  0
VPORT
  5
27
330
26
100
AcDbSymbolTableRecord
100
AcDbViewportTableRecord
  2
*Active
 70
     0
 10
0.0
 20
0.0
 11
1.0
 21
1.0
 12
2508.038829576297
 22
2520.873692604717
 13
0.0
 23
0.0
 14
10.0
 24
10.0
 15
10.0
 25
10.0
 16
0.0
 26
0.0
 36
1.0
 17
0.0
 27
0.0
 37
0.0
 40
207.3843789138173
 41
1.791706846673095
 42
50.0
 43
0.0
 44
0.0
 50
0.0
 51
0.0
 71
     0
 72
  1000
 73
     1
 74
     3
 75
     0
 76
     0
 77
     0
 78
     0
281
     0
 65
     1
110
0.0
120
0.0
130
0.0
111
1.0
121
0.0
131
0.0
112
0.0
122
1.0
132
0.0
 79
     0
146
0.0
348
28
 60
     3
 61
     5
292
     1
282
     1
141
0.0
142
0.0
 63
   250
421
  3355443
  0
ENDTAB
  0
TABLE
  2
LTYPE
  5
21
330
0
100
AcDbSymbolTable
 70
     3
  0
LTYPE
  5
22
330
21
100
AcDbSymbolTableRecord
100
AcDbLinetypeTableRecord
  2
ByBlock
 70
     0
  3

 72
    65
 73
     0
 40
0.0
  0
LTYPE
  5
23
330
21
100
AcDbSymbolTableRecord
100
AcDbLinetypeTableRecord
  2
ByLayer
 70
     0
  3

 72
    65
 73
     0
 40
0.0
  0
LTYPE
  5
12
330
21
100
AcDbSymbolTableRecord
100
AcDbLinetypeTableRecord
  2
Continuous
 70
     0
  3
Solid line
 72
    65
 73
     0
 40
0.0
  0
LTYPE
  5
50
330
21
100
AcDbSymbolTableRecord
100
AcDbLinetypeTableRecord
  2
MITTELLINIE
 70
     0
  3
dd1
 72
    65
 73
     4
 40
0.9770000000000001
 49
0.65
 74
     0
 49
-0.13
 74
     0
 49
0.067
 74
     0
 49
-0.13
 74
     0
  0
LTYPE
  5
5F
330
21
100
AcDbSymbolTableRecord
100
AcDbLinetypeTableRecord
  2
VERDECKT
 70
     0
  3
Verdeckt __ __ __ __ __ __ __ __ __ __ __ __ __
 72
    65
 73
     2
 40
9.524999999999998
 49
6.349999999999999
 74
     0
 49
-3.174999999999999
 74
     0
  0
ENDTAB
  0
TABLE
  2
LAYER
  5
1B
102
{ACAD_XDICTIONARY
360
1C
102
}
330
0
100
AcDbSymbolTable
 70
     2
  0
LAYER
  5
5
102
{ACAD_XDICTIONARY
360
6
102
}
330
1B
100
AcDbSymbolTableRecord
100
AcDbLayerTableRecord
  2
0
 70
     0
 62
     7
  6
Continuous
370
    -3
390
7
347
A
  0
LAYER
  5
37
330
1B
100
AcDbSymbolTableRecord
100
AcDbLayerTableRecord
  2
Halfen
 70
     0
 62
     2
  6
Continuous
370
    -3
390
7
347
A
1001
AcAecLayerStandard
1000

1000

  0
ENDTAB
  0
TABLE
  2
STYLE
  5
1E
330
0
100
AcDbSymbolTable
 70
     2
  0
STYLE
  5
1F
330
1E
100
AcDbSymbolTableRecord
100
AcDbTextStyleTableRecord
  2
Standard
 70
     0
 40
0.0
 41
1.0
 50
0.0
 71
     0
 42
2.5
  3
ARIAL.TTF
  4

1001
ACAD
1000
Arial
1071
       34
  0
STYLE
  5
74
330
1E
100
AcDbSymbolTableRecord
100
AcDbTextStyleTableRecord
  2
ARIAL50
 70
     0
 40
5.0
 41
1.0
 50
0.0
 71
     0
 42
3.5
  3
ARIAL.TTF
  4

1001
ACAD
1000
Arial
1071
       34
  0
ENDTAB
  0
TABLE
  2
VIEW
  5
24
330
0
100
AcDbSymbolTable
 70
     0
  0
ENDTAB
  0
TABLE
  2
UCS
  5
25
330
0
100
AcDbSymbolTable
 70
     0
  0
ENDTAB
  0
TABLE
  2
APPID
  5
2B
330
0
100
AcDbSymbolTable
 70
     4
  0
APPID
  5
11
330
2B
100
AcDbSymbolTableRecord
100
AcDbRegAppTableRecord
  2
ACAD
 70
     0
  0
APPID
  5
16
330
2B
100
AcDbSymbolTableRecord
100
AcDbRegAppTableRecord
  2
ACAD_PSEXT
 70
     0
  0
APPID
  5
38
330
2B
100
AcDbSymbolTableRecord
100
AcDbRegAppTableRecord
  2
AcAecLayerStandard
 70
     0
  0
APPID
  5
E7
330
2B
100
AcDbSymbolTableRecord
100
AcDbRegAppTableRecord
  2
ACAD_MLEADERVER
 70
     0
  0
ENDTAB
  0
TABLE
  2
DIMSTYLE
  5
2C
330
0
100
AcDbSymbolTable
 70
     1
100
AcDbDimStyleTable
 71
     1
340
2D
  0
DIMSTYLE
105
2D
330
2C
100
AcDbSymbolTableRecord
100
AcDbDimStyleTableRecord
  2
ISO-25
 70
     0
 41
2.5
 42
0.625
 43
3.75
 44
1.25
 73
     0
 74
     0
 77
     1
 78
     8
140
2.5
141
2.5
143
0.03937007874016
147
0.625
171
     3
172
     1
271
     2
272
     2
274
     3
278
    44
283
     0
284
     8
340
1F
  0
ENDTAB
  0
TABLE
  2
BLOCK_RECORD
  5
1
330
0
100
AcDbSymbolTable
 70
     0
  0
BLOCK_RECORD
  5
2
102
{ACAD_XDICTIONARY
360
3
102
}
330
1
100
AcDbSymbolTableRecord
100
AcDbBlockTableRecord
  2
*Model_Space
340
14
 70
     0
280
     1
281
     0
  0
BLOCK_RECORD
  5
17
330
1
100
AcDbSymbolTableRecord
100
AcDbBlockTableRecord
  2
*Paper_Space
340
1A
 70
     0
280
     1
281
     0
  0
ENDTAB
  0
ENDSEC
  0
SECTION
  2
BLOCKS
  0
BLOCK
  5
4
330
2
100
AcDbEntity
  8
0
100
AcDbBlockBegin
  2
*Model_Space
 70
     0
 10
0.0
 20
0.0
 30
0.0
  3
*Model_Space
  1

  0
ENDBLK
  5
13
330
2
100
AcDbEntity
  8
0
100
AcDbBlockEnd
  0
BLOCK
  5
18
330
17
100
AcDbEntity
 67
     1
  8
0
100
AcDbBlockBegin
  2
*Paper_Space
 70
     0
 10
0.0
 20
0.0
 30
0.0
  3
*Paper_Space
  1

  0
ENDBLK
  5
19
330
17
100
AcDbEntity
 67
     1
  8
0
100
AcDbBlockEnd
  0
ENDSEC
  0
SECTION
  2
ENTITIES
  0
LINE
  5
4F
330
2
100
AcDbEntity
  8
Halfen
  6
MITTELLINIE
 62
     1
 48
5.0
100
AcDbLine
 10
2355.758517492251
 20
2565.986943967508
 30
-0.0000000000000006
 11
2355.758517492251
 21
2574.986943967508
 31
-0.0000000000000006
  0
ARC
  5
51
330
2
100
AcDbEntity
  8
Halfen
100
AcDbCircle
 10
2349.221798165054
 20
2566.986943967509
 30
-0.0000000000000006
 40
1.0
100
AcDbArc
 50
170.0000000000084
 51
270.0
  0
LINE
  5
52
330
2
100
AcDbEntity
  8
Halfen
100
AcDbLine
 10
2362.443101746084
 20
2565.986943967508
 30
-0.0000000000000006
 11
2363.823098732879
 21
2573.813295789841
 31
-0.0000000000000006
  0
LINE
  5
53
330
2
100
AcDbEntity
  8
Halfen
100
AcDbLine
 10
2383.823098732879
 20
2574.98386913384
 30
-0.0000000000000006
 11
2383.823098732879
 21
2565.986943967509
 31
-0.0000000000000006
  0
LINE
  5
54
330
2
100
AcDbEntity
  8
Halfen
100
AcDbLine
 10
2387.823098732878
 20
2574.98386913384
 30
-0.0000000000000006
 11
2387.823098732878
 21
2565.986943967509
 31
-0.0000000000000006
  0
LINE
  5
55
330
2
100
AcDbEntity
  8
Halfen
100
AcDbLine
 10
2349.221798165054
 20
2565.986943967508
 30
-0.0000000000000006
 11
2362.443101746084
 21
2565.986943967508
 31
-0.0000000000000006
  0
LINE
  5
56
330
2
100
AcDbEntity
  8
Halfen
100
AcDbLine
 10
2383.823098732879
 20
2565.986943967509
 30
-0.0000000000000006
 11
2387.823098732878
 21
2565.986943967509
 31
-0.0000000000000006
  0
LINE
  5
57
330
2
100
AcDbEntity
  8
Halfen
100
AcDbLine
 10
2349.616987398837
 20
2574.986943967508
 30
-0.0000000000000006
 11
2362.838290979866
 21
2574.986943967508
 31
-0.0000000000000006
  0
LINE
  5
58
330
2
100
AcDbEntity
  8
Halfen
100
AcDbLine
 10
2349.616987398837
 20
2574.986943967508
 30
-0.0000000000000006
 11
2362.838290979866
 21
2574.986943967508
 31
-0.0000000000000006
  0
LINE
  5
59
330
2
100
AcDbEntity
  8
Halfen
100
AcDbLine
 10
2348.236990412043
 20
2567.160592145175
 30
-0.0000000000000006
 11
2349.616987398837
 21
2574.986943967508
 31
-0.0000000000000006
  0
LINE
  5
5A
330
2
100
AcDbEntity
  8
Halfen
  6
MITTELLINIE
 62
     1
 48
5.0
100
AcDbLine
 10
2352.605364603614
 20
2570.486943967508
 30
-0.0000000000000006
 11
2359.536274294669
 21
2570.486943967508
 31
-0.0000000000000006
  0
CIRCLE
  5
5B
330
2
100
AcDbEntity
  8
Halfen
100
AcDbCircle
 10
2355.758517492251
 20
2570.486943967508
 30
-0.0000000000000006
 40
1.75
  0
ARC
  5
5C
330
2
100
AcDbEntity
  8
Halfen
 62
     1
100
AcDbCircle
 10
2355.758517492251
 20
2570.486943967508
 30
-0.0000000000000006
 40
2.500000000000003
100
AcDbArc
 50
255.1030973265984
 51
165.103097326598
  0
ARC
  5
5D
330
2
100
AcDbEntity
  8
Halfen
100
AcDbCircle
 10
2362.838290979866
 20
2573.986943967508
 30
-0.0000000000000006
 40
1.0
100
AcDbArc
 50
350.0000000000083
 51
90.0
  0
LINE
  5
5E
330
2
100
AcDbEntity
  8
Halfen
  6
VERDECKT
 62
     1
 48
0.1
100
AcDbLine
 10
2383.823098732879
 20
2567.986943967509
 30
-0.0000000000000006
 11
2387.823098732878
 21
2567.986943967509
 31
-0.0000000000000006
  0
LINE
  5
60
330
2
100
AcDbEntity
  8
Halfen
  6
VERDECKT
 62
     1
 48
0.1
100
AcDbLine
 10
2383.823098732879
 20
2568.736943967508
 30
-0.0000000000000006
 11
2387.823098732878
 21
2568.736943967508
 31
-0.0000000000000006
  0
LINE
  5
61
330
2
100
AcDbEntity
  8
Halfen
  6
VERDECKT
 62
     1
 48
0.1
100
AcDbLine
 10
2383.823098732879
 20
2572.236943967509
 30
-0.0000000000000006
 11
2387.823098732878
 21
2572.236943967509
 31
-0.0000000000000006
  0
LINE
  5
62
330
2
100
AcDbEntity
  8
Halfen
  6
VERDECKT
 62
     1
 48
0.1
100
AcDbLine
 10
2383.823098732879
 20
2572.986943967509
 30
-0.0000000000000006
 11
2387.823098732878
 21
2572.986943967509
 31
-0.0000000000000006
  0
LINE
  5
63
330
2
100
AcDbEntity
  8
Halfen
  6
MITTELLINIE
 62
     1
 48
5.0
100
AcDbLine
 10
2382.825204810092
 20
2570.486943967509
 30
-0.0000000000000006
 11
2388.882080682035
 21
2570.486943967509
 31
-0.0000000000000006
  0
LINE
  5
64
330
2
100
AcDbEntity
  8
Halfen
100
AcDbLine
 10
2383.823098732879
 20
2574.98386913384
 30
-0.0000000000000006
 11
2387.823098732878
 21
2574.98386913384
 31
-0.0000000000000006
  0
LINE
  5
65
330
2
100
AcDbEntity
  8
Halfen
100
AcDbLine
 10
2363.566763899657
 20
2545.986943967508
 30
-0.0000000000000006
 11
2347.950271084845
 21
2545.986943967508
 31
-0.0000000000000006
  0
LINE
  5
66
330
2
100
AcDbEntity
  8
Halfen
100
AcDbLine
 10
2347.950271084845
 20
2545.986943967508
 30
-0.0000000000000006
 11
2347.950271084845
 21
2541.986943967508
 31
-0.0000000000000006
  0
LINE
  5
67
330
2
100
AcDbEntity
  8
Halfen
100
AcDbLine
 10
2363.566763899657
 20
2545.986943967508
 30
-0.0000000000000006
 11
2363.566763899657
 21
2541.986943967508
 31
-0.0000000000000006
  0
LINE
  5
68
330
2
100
AcDbEntity
  8
Halfen
100
AcDbLine
 10
2363.566763899657
 20
2541.986943967508
 30
-0.0000000000000006
 11
2347.950271084845
 21
2541.986943967508
 31
-0.0000000000000006
  0
LINE
  5
69
330
2
100
AcDbEntity
  8
Halfen
  6
MITTELLINIE
 62
     1
 48
5.0
100
AcDbLine
 10
2355.486990412042
 20
2547.015381903479
 30
-0.0000000000000006
 11
2355.486990412042
 21
2540.958506031537
 31
-0.0000000000000006
  0
LINE
  5
6A
330
2
100
AcDbEntity
  8
Halfen
  6
VERDECKT
 62
     1
 48
0.1
100
AcDbLine
 10
2357.986990412042
 20
2541.986943967508
 30
-0.0000000000000006
 11
2357.986990412042
 21
2545.986943967508
 31
-0.0000000000000006
  0
LINE
  5
6B
330
2
100
AcDbEntity
  8
Halfen
  6
VERDECKT
 62
     1
 48
0.1
100
AcDbLine
 10
2357.236990412042
 20
2541.986943967508
 30
-0.0000000000000006
 11
2357.236990412042
 21
2545.986943967508
 31
-0.0000000000000006
  0
LINE
  5
6C
330
2
100
AcDbEntity
  8
Halfen
  6
VERDECKT
 62
     1
 48
0.1
100
AcDbLine
 10
2353.736990412042
 20
2541.986943967508
 30
-0.0000000000000006
 11
2353.736990412042
 21
2545.986943967508
 31
-0.0000000000000006
  0
LINE
  5
6D
330
2
100
AcDbEntity
  8
Halfen
  6
VERDECKT
 62
     1
 48
0.1
100
AcDbLine
 10
2352.986990412042
 20
2541.986943967508
 30
-0.0000000000000006
 11
2352.986990412042
 21
2545.986943967508
 31
-0.0000000000000006
  0
LINE
  5
6E
330
2
100
AcDbEntity
  8
Halfen
100
AcDbLine
 10
2362.201729448505
 20
2545.986943967508
 30
-0.0000000000000006
 11
2362.201729448505
 21
2541.986943967508
 31
-0.0000000000000006
  0
LINE
  5
6F
330
2
100
AcDbEntity
  8
Halfen
  6
VERDECKT
 62
     1
 48
0.2
100
AcDbLine
 10
2349.345460318628
 20
2541.986943967508
 30
-0.0000000000000006
 11
2349.345460318628
 21
2545.986943967508
 31
-0.0000000000000006
  0
LINE
  5
70
330
2
100
AcDbEntity
  8
Halfen
100
AcDbLine
 10
2518.236990412042
 20
2594.986943967508
 30
-0.0000000000000006
 11
2668.236990412042
 21
2594.986943967508
 31
-0.0000000000000006
  0
LINE
  5
71
330
2
100
AcDbEntity
  8
Halfen
100
AcDbLine
 10
2518.236990412042
 20
2604.986943967508
 30
-0.0000000000000006
 11
2668.236990412042
 21
2604.986943967508
 31
-0.0000000000000006
  0
LINE
  5
72
330
2
100
AcDbEntity
  8
Halfen
100
AcDbLine
 10
2518.236990412042
 20
2614.986943967509
 30
-0.0000000000000006
 11
2668.236990412042
 21
2614.986943967509
 31
-0.0000000000000006
  0
TEXT
  5
73
330
2
100
AcDbEntity
  8
Halfen
100
AcDbText
 10
2523.236990412043
 20
2597.486943967509
 30
-0.0000000000000006
 40
5.0
  1
Id. Nr.
  7
ARIAL50
100
AcDbText
  0
TEXT
  5
75
330
2
100
AcDbEntity
  8
Halfen
100
AcDbText
 10
2523.236990412043
 20
2607.486943967508
 30
-0.0000000000000006
 40
5.0
  1
Benennung
  7
ARIAL50
100
AcDbText
  0
TEXT
  5
76
330
2
100
AcDbEntity
  8
Halfen
100
AcDbText
 10
2518.236990412042
 20
2617.486943967508
 30
-0.0000000000000006
 40
5.0
  1
A4
  7
ARIAL50
100
AcDbText
  0
LINE
  5
77
330
2
100
AcDbEntity
  8
Halfen
100
AcDbLine
 10
2518.236990412042
 20
2594.986943967508
 30
-0.0000000000000006
 11
2518.236990412042
 21
2614.986943967509
 31
-0.0000000000000006
  0
TEXT
  5
78
330
2
100
AcDbEntity
  8
Halfen
100
AcDbText
 10
2573.236990412043
 20
2597.486943967509
 30
-0.0000000000000006
 40
5.0
  1
0380.010-00004
  7
ARIAL50
100
AcDbText
  0
TEXT
  5
79
330
2
100
AcDbEntity
  8
Halfen
100
AcDbText
 10
2573.236990412043
 20
2607.486943967508
 30
-0.0000000000000006
 40
5.0
  1
GWP 20/12 - M5 - A4
  7
ARIAL50
100
AcDbText
  0
LINE
  5
7A
330
2
100
AcDbEntity
  8
Halfen
100
AcDbLine
 10
2568.236990412043
 20
2594.986943967508
 30
-0.0000000000000006
 11
2568.236990412043
 21
2614.986943967509
 31
-0.0000000000000006
  0
LINE
  5
7B
330
2
100
AcDbEntity
  8
Halfen
100
AcDbLine
 10
2668.236990412042
 20
2594.986943967508
 30
-0.0000000000000006
 11
2668.236990412042
 21
2614.986943967509
 31
-0.0000000000000006
  0
TEXT
  5
7C
330
2
100
AcDbEntity
  8
Halfen
100
AcDbText
 10
2403.236990412043
 20
2607.486943967508
 30
-0.0000000000000006
 40
5.0
  1
GWP 20/12 - M5 - gv
  7
ARIAL50
100
AcDbText
  0
LINE
  5
7D
330
2
100
AcDbEntity
  8
Halfen
100
AcDbLine
 10
2348.236990412043
 20
2594.986943967508
 30
-0.0000000000000006
 11
2498.236990412042
 21
2594.986943967508
 31
-0.0000000000000006
  0
LINE
  5
7E
330
2
100
AcDbEntity
  8
Halfen
100
AcDbLine
 10
2348.236990412043
 20
2604.986943967508
 30
-0.0000000000000006
 11
2498.236990412042
 21
2604.986943967508
 31
-0.0000000000000006
  0
LINE
  5
7F
330
2
100
AcDbEntity
  8
Halfen
100
AcDbLine
 10
2348.236990412043
 20
2614.986943967509
 30
-0.0000000000000006
 11
2498.236990412042
 21
2614.986943967509
 31
-0.0000000000000006
  0
TEXT
  5
80
330
2
100
AcDbEntity
  8
Halfen
100
AcDbText
 10
2353.236990412042
 20
2607.486943967508
 30
-0.0000000000000006
 40
5.0
  1
Benennung
  7
ARIAL50
100
AcDbText
  0
TEXT
  5
81
330
2
100
AcDbEntity
  8
Halfen
100
AcDbText
 10
2353.236990412042
 20
2597.486943967509
 30
-0.0000000000000006
 40
5.0
  1
Id. Nr.
  7
ARIAL50
100
AcDbText
  0
TEXT
  5
82
330
2
100
AcDbEntity
  8
Halfen
100
AcDbText
 10
2348.236990412043
 20
2617.486943967508
 30
-0.0000000000000006
 40
5.0
  1
gv
  7
ARIAL50
100
AcDbText
  0
LINE
  5
83
330
2
100
AcDbEntity
  8
Halfen
100
AcDbLine
 10
2348.236990412043
 20
2594.986943967508
 30
-0.0000000000000006
 11
2348.236990412043
 21
2614.986943967509
 31
-0.0000000000000006
  0
TEXT
  5
84
330
2
100
AcDbEntity
  8
Halfen
100
AcDbText
 10
2403.236990412043
 20
2597.486943967509
 30
-0.0000000000000006
 40
5.0
  1
0380.010-00002
  7
ARIAL50
100
AcDbText
  0
LINE
  5
85
330
2
100
AcDbEntity
  8
Halfen
100
AcDbLine
 10
2398.236990412042
 20
2594.986943967508
 30
-0.0000000000000006
 11
2398.236990412042
 21
2614.986943967509
 31
-0.0000000000000006
  0
LINE
  5
86
330
2
100
AcDbEntity
  8
Halfen
100
AcDbLine
 10
2498.236990412042
 20
2594.986943967508
 30
-0.0000000000000006
 11
2498.236990412042
 21
2614.986943967509
 31
-0.0000000000000006
  0
LINE
  5
87
330
2
100
AcDbEntity
  8
Halfen
  6
MITTELLINIE
 62
     1
 48
5.0
100
AcDbLine
 10
2355.758517492251
 20
2442.986943967508
 30
-0.0000000000000006
 11
2355.758517492251
 21
2451.986943967508
 31
-0.0000000000000006
  0
ARC
  5
88
330
2
100
AcDbEntity
  8
Halfen
100
AcDbCircle
 10
2349.221798165055
 20
2443.986943967508
 30
-0.0000000000000006
 40
1.0
100
AcDbArc
 50
170.0000000000078
 51
270.0
  0
LINE
  5
89
330
2
100
AcDbEntity
  8
Halfen
100
AcDbLine
 10
2362.443101746085
 20
2442.986943967508
 30
-0.0000000000000006
 11
2363.823098732879
 21
2450.813295789841
 31
-0.0000000000000006
  0
LINE
  5
8A
330
2
100
AcDbEntity
  8
Halfen
100
AcDbLine
 10
2383.82309873288
 20
2451.98386913384
 30
-0.0000000000000006
 11
2383.82309873288
 21
2442.986943967509
 31
-0.0000000000000006
  0
LINE
  5
8B
330
2
100
AcDbEntity
  8
Halfen
100
AcDbLine
 10
2387.82309873288
 20
2451.98386913384
 30
-0.0000000000000006
 11
2387.82309873288
 21
2442.986943967509
 31
-0.0000000000000006
  0
LINE
  5
8C
330
2
100
AcDbEntity
  8
Halfen
100
AcDbLine
 10
2349.221798165055
 20
2442.986943967508
 30
-0.0000000000000006
 11
2362.443101746085
 21
2442.986943967508
 31
-0.0000000000000006
  0
LINE
  5
8D
330
2
100
AcDbEntity
  8
Halfen
100
AcDbLine
 10
2383.82309873288
 20
2442.986943967509
 30
-0.0000000000000006
 11
2387.82309873288
 21
2442.986943967509
 31
-0.0000000000000006
  0
LINE
  5
8E
330
2
100
AcDbEntity
  8
Halfen
100
AcDbLine
 10
2349.616987398837
 20
2451.986943967508
 30
-0.0000000000000006
 11
2362.838290979867
 21
2451.986943967508
 31
-0.0000000000000006
  0
LINE
  5
8F
330
2
100
AcDbEntity
  8
Halfen
100
AcDbLine
 10
2349.616987398837
 20
2451.986943967508
 30
-0.0000000000000006
 11
2362.838290979867
 21
2451.986943967508
 31
-0.0000000000000006
  0
LINE
  5
90
330
2
100
AcDbEntity
  8
Halfen
100
AcDbLine
 10
2348.236990412043
 20
2444.160592145176
 30
-0.0000000000000006
 11
2349.616987398837
 21
2451.986943967508
 31
-0.0000000000000006
  0
LINE
  5
91
330
2
100
AcDbEntity
  8
Halfen
  6
MITTELLINIE
 62
     1
 48
5.0
100
AcDbLine
 10
2352.605364603615
 20
2447.486943967508
 30
-0.0000000000000006
 11
2359.536274294669
 21
2447.486943967508
 31
-0.0000000000000006
  0
CIRCLE
  5
92
330
2
100
AcDbEntity
  8
Halfen
100
AcDbCircle
 10
2355.758517492251
 20
2447.486943967508
 30
-0.0000000000000006
 40
2.25
  0
ARC
  5
93
330
2
100
AcDbEntity
  8
Halfen
 62
     1
100
AcDbCircle
 10
2355.758517492251
 20
2447.486943967508
 30
-0.0000000000000006
 40
3.0
100
AcDbArc
 50
255.1030973265984
 51
165.103097326598
  0
ARC
  5
94
330
2
100
AcDbEntity
  8
Halfen
100
AcDbCircle
 10
2362.838290979867
 20
2450.986943967508
 30
-0.0000000000000006
 40
1.0
100
AcDbArc
 50
350.0000000000078
 51
90.0
  0
LINE
  5
95
330
2
100
AcDbEntity
  8
Halfen
  6
VERDECKT
 62
     1
 48
0.1
100
AcDbLine
 10
2383.82309873288
 20
2444.486943967508
 30
-0.0000000000000006
 11
2387.82309873288
 21
2444.486943967508
 31
-0.0000000000000006
  0
LINE
  5
96
330
2
100
AcDbEntity
  8
Halfen
  6
VERDECKT
 62
     1
 48
0.1
100
AcDbLine
 10
2383.82309873288
 20
2445.236943967509
 30
-0.0000000000000006
 11
2387.82309873288
 21
2445.236943967509
 31
-0.0000000000000006
  0
LINE
  5
97
330
2
100
AcDbEntity
  8
Halfen
  6
VERDECKT
 62
     1
 48
0.1
100
AcDbLine
 10
2383.82309873288
 20
2449.736943967509
 30
-0.0000000000000006
 11
2387.82309873288
 21
2449.736943967509
 31
-0.0000000000000006
  0
LINE
  5
98
330
2
100
AcDbEntity
  8
Halfen
  6
VERDECKT
 62
     1
 48
0.1
100
AcDbLine
 10
2383.82309873288
 20
2450.486943967509
 30
-0.0000000000000006
 11
2387.82309873288
 21
2450.486943967508
 31
-0.0000000000000006
  0
LINE
  5
99
330
2
100
AcDbEntity
  8
Halfen
  6
MITTELLINIE
 62
     1
 48
5.0
100
AcDbLine
 10
2382.825204810094
 20
2447.486943967509
 30
-0.0000000000000006
 11
2388.882080682036
 21
2447.486943967509
 31
-0.0000000000000006
  0
LINE
  5
9A
330
2
100
AcDbEntity
  8
Halfen
100
AcDbLine
 10
2383.82309873288
 20
2451.98386913384
 30
-0.0000000000000006
 11
2387.82309873288
 21
2451.98386913384
 31
-0.0000000000000006
  0
LINE
  5
9B
330
2
100
AcDbEntity
  8
Halfen
100
AcDbLine
 10
2363.912223443185
 20
2422.986943967508
 30
-0.0000000000000006
 11
2348.295730628373
 21
2422.986943967508
 31
-0.0000000000000006
  0
LINE
  5
9C
330
2
100
AcDbEntity
  8
Halfen
100
AcDbLine
 10
2348.295730628373
 20
2422.986943967508
 30
-0.0000000000000006
 11
2348.295730628373
 21
2418.986943967508
 31
-0.0000000000000006
  0
LINE
  5
9D
330
2
100
AcDbEntity
  8
Halfen
100
AcDbLine
 10
2363.912223443185
 20
2422.986943967508
 30
-0.0000000000000006
 11
2363.912223443185
 21
2418.986943967508
 31
-0.0000000000000006
  0
LINE
  5
9E
330
2
100
AcDbEntity
  8
Halfen
100
AcDbLine
 10
2363.912223443185
 20
2418.986943967508
 30
-0.0000000000000006
 11
2348.295730628373
 21
2418.986943967508
 31
-0.0000000000000006
  0
LINE
  5
9F
330
2
100
AcDbEntity
  8
Halfen
  6
MITTELLINIE
 62
     1
 48
5.0
100
AcDbLine
 10
2355.83244995557
 20
2424.015381903479
 30
-0.0000000000000006
 11
2355.83244995557
 21
2417.958506031537
 31
-0.0000000000000006
  0
LINE
  5
A0
330
2
100
AcDbEntity
  8
Halfen
  6
VERDECKT
 62
     1
 48
0.1
100
AcDbLine
 10
2358.83244995557
 20
2418.986943967508
 30
-0.0000000000000006
 11
2358.83244995557
 21
2422.986943967508
 31
-0.0000000000000006
  0
LINE
  5
A1
330
2
100
AcDbEntity
  8
Halfen
  6
VERDECKT
 62
     1
 48
0.1
100
AcDbLine
 10
2358.08244995557
 20
2418.986943967508
 30
-0.0000000000000006
 11
2358.08244995557
 21
2422.986943967508
 31
-0.0000000000000006
  0
LINE
  5
A2
330
2
100
AcDbEntity
  8
Halfen
  6
VERDECKT
 62
     1
 48
0.1
100
AcDbLine
 10
2353.582449955569
 20
2418.986943967508
 30
-0.0000000000000006
 11
2353.582449955569
 21
2422.986943967508
 31
-0.0000000000000006
  0
LINE
  5
A3
330
2
100
AcDbEntity
  8
Halfen
  6
VERDECKT
 62
     1
 48
0.1
100
AcDbLine
 10
2352.83244995557
 20
2418.986943967508
 30
-0.0000000000000006
 11
2352.83244995557
 21
2422.986943967508
 31
-0.0000000000000006
  0
LINE
  5
A4
330
2
100
AcDbEntity
  8
Halfen
100
AcDbLine
 10
2362.547188992033
 20
2422.986943967508
 30
-0.0000000000000006
 11
2362.547188992033
 21
2418.986943967508
 31
-0.0000000000000006
  0
LINE
  5
A5
330
2
100
AcDbEntity
  8
Halfen
  6
VERDECKT
 62
     1
 48
0.2
100
AcDbLine
 10
2349.690919862155
 20
2418.986943967508
 30
-0.0000000000000006
 11
2349.690919862155
 21
2422.986943967508
 31
-0.0000000000000006
  0
LINE
  5
A6
330
2
100
AcDbEntity
  8
Halfen
100
AcDbLine
 10
2518.236990412042
 20
2471.986943967508
 30
-0.0000000000000006
 11
2668.236990412042
 21
2471.986943967508
 31
-0.0000000000000006
  0
LINE
  5
A7
330
2
100
AcDbEntity
  8
Halfen
100
AcDbLine
 10
2518.236990412042
 20
2481.986943967508
 30
-0.0000000000000006
 11
2668.236990412042
 21
2481.986943967508
 31
-0.0000000000000006
  0
LINE
  5
A8
330
2
100
AcDbEntity
  8
Halfen
100
AcDbLine
 10
2518.236990412042
 20
2491.986943967508
 30
-0.0000000000000006
 11
2668.236990412042
 21
2491.986943967508
 31
-0.0000000000000006
  0
TEXT
  5
A9
330
2
100
AcDbEntity
  8
Halfen
100
AcDbText
 10
2523.236990412043
 20
2474.486943967508
 30
-0.0000000000000006
 40
5.0
  1
Id. Nr.
  7
ARIAL50
100
AcDbText
  0
TEXT
  5
AA
330
2
100
AcDbEntity
  8
Halfen
100
AcDbText
 10
2523.236990412043
 20
2484.486943967508
 30
-0.0000000000000006
 40
5.0
  1
Benennung
  7
ARIAL50
100
AcDbText
  0
TEXT
  5
AB
330
2
100
AcDbEntity
  8
Halfen
100
AcDbText
 10
2518.236990412042
 20
2494.486943967508
 30
-0.0000000000000006
 40
5.0
  1
A4
  7
ARIAL50
100
AcDbText
  0
LINE
  5
AC
330
2
100
AcDbEntity
  8
Halfen
100
AcDbLine
 10
2518.236990412042
 20
2471.986943967508
 30
-0.0000000000000006
 11
2518.236990412042
 21
2491.986943967508
 31
-0.0000000000000006
  0
TEXT
  5
AD
330
2
100
AcDbEntity
  8
Halfen
100
AcDbText
 10
2573.236990412043
 20
2474.486943967508
 30
-0.0000000000000006
 40
5.0
  1
0380.010-00005
  7
ARIAL50
100
AcDbText
  0
TEXT
  5
AE
330
2
100
AcDbEntity
  8
Halfen
100
AcDbText
 10
2573.236990412043
 20
2484.486943967508
 30
-0.0000000000000006
 40
5.0
  1
GWP 20/12 - M6 - A4
  7
ARIAL50
100
AcDbText
  0
LINE
  5
AF
330
2
100
AcDbEntity
  8
Halfen
100
AcDbLine
 10
2568.236990412043
 20
2471.986943967508
 30
-0.0000000000000006
 11
2568.236990412043
 21
2491.986943967508
 31
-0.0000000000000006
  0
LINE
  5
B0
330
2
100
AcDbEntity
  8
Halfen
100
AcDbLine
 10
2668.236990412042
 20
2471.986943967508
 30
-0.0000000000000006
 11
2668.236990412042
 21
2491.986943967508
 31
-0.0000000000000006
  0
TEXT
  5
B1
330
2
100
AcDbEntity
  8
Halfen
100
AcDbText
 10
2403.236990412043
 20
2484.486943967508
 30
-0.0000000000000006
 40
5.0
  1
GWP 20/12 - M6 - gv
  7
ARIAL50
100
AcDbText
  0
LINE
  5
B2
330
2
100
AcDbEntity
  8
Halfen
100
AcDbLine
 10
2348.236990412043
 20
2471.986943967508
 30
-0.0000000000000006
 11
2498.236990412042
 21
2471.986943967508
 31
-0.0000000000000006
  0
LINE
  5
B3
330
2
100
AcDbEntity
  8
Halfen
100
AcDbLine
 10
2348.236990412043
 20
2481.986943967508
 30
-0.0000000000000006
 11
2498.236990412042
 21
2481.986943967508
 31
-0.0000000000000006
  0
LINE
  5
B4
330
2
100
AcDbEntity
  8
Halfen
100
AcDbLine
 10
2348.236990412043
 20
2491.986943967508
 30
-0.0000000000000006
 11
2498.236990412042
 21
2491.986943967508
 31
-0.0000000000000006
  0
TEXT
  5
B5
330
2
100
AcDbEntity
  8
Halfen
100
AcDbText
 10
2353.236990412042
 20
2484.486943967508
 30
-0.0000000000000006
 40
5.0
  1
Benennung
  7
ARIAL50
100
AcDbText
  0
TEXT
  5
B6
330
2
100
AcDbEntity
  8
Halfen
100
AcDbText
 10
2353.236990412042
 20
2474.486943967508
 30
-0.0000000000000006
 40
5.0
  1
Id. Nr.
  7
ARIAL50
100
AcDbText
  0
TEXT
  5
B7
330
2
100
AcDbEntity
  8
Halfen
100
AcDbText
 10
2348.236990412043
 20
2494.486943967508
 30
-0.0000000000000006
 40
5.0
  1
gv
  7
ARIAL50
100
AcDbText
  0
LINE
  5
B8
330
2
100
AcDbEntity
  8
Halfen
100
AcDbLine
 10
2348.236990412043
 20
2471.986943967508
 30
-0.0000000000000006
 11
2348.236990412043
 21
2491.986943967508
 31
-0.0000000000000006
  0
TEXT
  5
B9
330
2
100
AcDbEntity
  8
Halfen
100
AcDbText
 10
2403.236990412043
 20
2474.486943967508
 30
-0.0000000000000006
 40
5.0
  1
0380.010-00003
  7
ARIAL50
100
AcDbText
  0
LINE
  5
BA
330
2
100
AcDbEntity
  8
Halfen
100
AcDbLine
 10
2398.236990412042
 20
2471.986943967508
 30
-0.0000000000000006
 11
2398.236990412042
 21
2491.986943967508
 31
-0.0000000000000006
  0
LINE
  5
BB
330
2
100
AcDbEntity
  8
Halfen
100
AcDbLine
 10
2498.236990412042
 20
2471.986943967508
 30
-0.0000000000000006
 11
2498.236990412042
 21
2491.986943967508
 31
-0.0000000000000006
  0
ENDSEC
  0
SECTION
  2
OBJECTS
  0
DICTIONARY
  5
9
330
0
100
AcDbDictionary
281
     1
  3
ACAD_COLOR
350
34
  3
ACAD_GROUP
350
2F
  3
ACAD_LAYOUT
350
15
  3
ACAD_MATERIAL
350
B
  3
ACAD_MLEADERSTYLE
350
E5
  3
ACAD_MLINESTYLE
350
30
  3
ACAD_PLOTSETTINGS
350
31
  3
ACAD_PLOTSTYLENAME
350
8
  3
ACAD_SCALELIST
350
35
  3
ACAD_TABLESTYLE
350
36
  3
ACAD_VISUALSTYLE
350
29
  3
ACDB_RECOMPOSE_DATA
350
BE
  3
AcDbVariableDictionary
350
C9
  0
DICTIONARY
  5
2A
330
26
100
AcDbDictionary
280
     1
281
     1
  0
DICTIONARY
  5
1C
330
1B
100
AcDbDictionary
280
     1
281
     1
  3
ACAD_LAYERSTATES
360
1D
  0
DICTIONARY
  5
6
330
5
100
AcDbDictionary
280
     1
281
     1
  0
DICTIONARY
  5
3
330
2
100
AcDbDictionary
280
     1
281
     1
  0
DICTIONARY
  5
34
102
{ACAD_REACTORS
330
9
102
}
330
9
100
AcDbDictionary
281
     1
  0
DICTIONARY
  5
2F
102
{ACAD_REACTORS
330
9
102
}
330
9
100
AcDbDictionary
281
     1
  0
DICTIONARY
  5
15
102
{ACAD_REACTORS
330
9
102
}
330
9
100
AcDbDictionary
281
     1
  3
Layout1
350
1A
  3
Model
350
14
  0
DICTIONARY
  5
B
102
{ACAD_REACTORS
330
9
102
}
330
9
100
AcDbDictionary
281
     1
  3
ByBlock
350
33
  3
ByLayer
350
32
  3
Global
350
A
  0
DICTIONARY
  5
E5
102
{ACAD_REACTORS
330
9
102
}
330
9
100
AcDbDictionary
281
     1
  3
Standard
350
E6
  0
DICTIONARY
  5
30
102
{ACAD_REACTORS
330
9
102
}
330
9
100
AcDbDictionary
281
     1
  3
Standard
350
39
  0
DICTIONARY
  5
31
102
{ACAD_REACTORS
330
9
102
}
330
9
100
AcDbDictionary
281
     1
  0
ACDBDICTIONARYWDFLT
  5
8
102
{ACAD_REACTORS
330
9
102
}
330
9
100
AcDbDictionary
281
     1
  3
Normal
350
7
100
AcDbDictionaryWithDefault
340
7
  0
DICTIONARY
  5
35
102
{ACAD_REACTORS
330
9
102
}
330
9
100
AcDbDictionary
281
     1
  3
A0
350
3E
  3
A1
350
3F
  3
A2
350
40
  3
A3
350
41
  3
A4
350
42
  3
A5
350
43
  3
A6
350
44
  3
A7
350
45
  3
A8
350
46
  3
A9
350
47
  3
B0
350
48
  3
B1
350
49
  3
B2
350
4A
  3
B3
350
4B
  3
B4
350
4C
  3
B5
350
4D
  3
B6
350
4E
  0
DICTIONARY
  5
36
102
{ACAD_REACTORS
330
9
102
}
330
9
100
AcDbDictionary
281
     1
  3
Standard
350
3A
  0
DICTIONARY
  5
29
102
{ACAD_REACTORS
330
9
102
}
330
9
100
AcDbDictionary
281
     1
  3
2dWireframe
350
28
  3
3D Hidden
350
DD
  3
3dWireframe
350
3D
  3
Basic
350
DC
  3
Brighten
350
E0
  3
ColorChange
350
E4
  3
Conceptual
350
DE
  3
Dim
350
DF
  3
Facepattern
350
E3
  3
Flat
350
D8
  3
FlatWithEdges
350
D9
  3
Gouraud
350
DA
  3
GouraudWithEdges
350
DB
  3
Linepattern
350
E2
  3
Realistic
350
3C
  3
Thicken
350
E1
  0
XRECORD
  5
BE
102
{ACAD_REACTORS
330
9
102
}
330
9
100
AcDbXrecord
280
     1
 90
        1
330
3A
  0
DICTIONARY
  5
C9
102
{ACAD_REACTORS
330
9
102
}
330
9
100
AcDbDictionary
281
     1
  3
CANNOSCALE
350
CD
  3
CMLEADERSTYLE
350
CB
  3
CTABLESTYLE
350
CA
  3
DIMASSOC
350
D4
  3
HIDETEXT
350
D3
  3
INDEXCTL
350
D2
  3
LAYEREVAL
350
CF
  3
LAYERNOTIFY
350
D0
  3
LIGHTINGUNITS
350
CE
  3
MSLTSCALE
350
CC
  3
SORTENTS
350
D1
  0
DICTIONARY
  5
1D
102
{ACAD_REACTORS
330
1C
102
}
330
1C
100
AcDbDictionary
281
     1
  0
LAYOUT
  5
1A
102
{ACAD_REACTORS
330
15
102
}
330
15
100
AcDbPlotSettings
  1

  2
C:\Documents and Settings\basas\Application Data\Autodesk\AutoCAD 2005\R16.1\enu\plotters\Default Windows System Printer.pc3
  4

  6

 40
0.0
 41
0.0
 42
0.0
 43
0.0
 44
0.0
 45
0.0
 46
0.0
 47
0.0
 48
0.0
 49
0.0
140
0.0
141
0.0
142
1.0
143
1.0
 70
   688
 72
     0
 73
     0
 74
     5
  7

 75
    16
147
1.0
 76
     0
 77
     2
 78
   300
148
0.0
149
0.0
100
AcDbLayout
  1
Layout1
 70
     1
 71
     1
 10
0.0
 20
0.0
 11
12.0
 21
9.0
 12
0.0
 22
0.0
 32
0.0
 14
0.0
 24
0.0
 34
0.0
 15
0.0
 25
0.0
 35
0.0
146
0.0
 13
0.0
 23
0.0
 33
0.0
 16
1.0
 26
0.0
 36
0.0
 17
0.0
 27
1.0
 37
0.0
 76
     0
330
17
  0
LAYOUT
  5
14
102
{ACAD_REACTORS
330
15
102
}
330
15
100
AcDbPlotSettings
  1

  2
none_device
  4
ISO_A4_(210.00_x_297.00_MM)
  6

 40
7.5
 41
20.0
 42
7.5
 43
20.0
 44
210.0
 45
297.0
 46
11.54999923706054
 47
-13.65000009536743
 48
0.0
 49
0.0
140
0.0
141
0.0
142
1.0
143
8.704084754739808
 70
 11952
 72
     1
 73
     0
 74
     0
  7

 75
     0
147
0.1148885871608098
 76
     0
 77
     2
 78
   300
148
0.0
149
0.0
100
AcDbLayout
  1
Model
 70
     1
 71
     0
 10
0.0
 20
0.0
 11
12.0
 21
9.0
 12
0.0
 22
0.0
 32
0.0
 14
0.0
 24
0.0
 34
0.0
 15
0.0
 25
0.0
 35
0.0
146
0.0
 13
0.0
 23
0.0
 33
0.0
 16
1.0
 26
0.0
 36
0.0
 17
0.0
 27
1.0
 37
0.0
 76
     0
330
2
331
27
1001
ACAD_PSEXT
1000
None
1000
None
1000
Not applicable
1000
The layout will not be plotted unless a new plotter configuration name is selected.
1070
     0
  0
MATERIAL
  5
33
102
{ACAD_REACTORS
330
B
102
}
330
B
100
AcDbMaterial
  1
ByBlock
 94
       63
  0
MATERIAL
  5
32
102
{ACAD_REACTORS
330
B
102
}
330
B
100
AcDbMaterial
  1
ByLayer
 94
       63
  0
MATERIAL
  5
A
102
{ACAD_XDICTIONARY
360
C
102
}
102
{ACAD_REACTORS
330
B
102
}
330
B
100
AcDbMaterial
  1
Global
 43
0.0007999999797903
 43
0.0
 43
0.0
 43
0.0
 43
0.0
 43
0.0007999999797903
 43
0.0
 43
0.0
 43
0.0
 43
0.0
 43
1.0
 43
0.0
 43
0.0
 43
0.0
 43
0.0
 43
1.0
 49
0.0007999999797903
 49
0.0
 49
0.0
 49
0.0
 49
0.0
 49
0.0007999999797903
 49
0.0
 49
0.0
 49
0.0
 49
0.0
 49
1.0
 49
0.0
 49
0.0
 49
0.0
 49
0.0
 49
1.0
142
0.0007999999797903
142
0.0
142
0.0
142
0.0
142
0.0
142
0.0007999999797903
142
0.0
142
0.0
142
0.0
142
0.0
142
1.0
142
0.0
142
0.0
142
0.0
142
0.0
142
1.0
144
0.0007999999797903
144
0.0
144
0.0
144
0.0
144
0.0
144
0.0007999999797903
144
0.0
144
0.0
144
0.0
144
0.0
144
1.0
144
0.0
144
0.0
144
0.0
144
0.0
144
1.0
 94
       63
1001
ACAD
1070
    -1
1070
     3
1070
     0
1000

1071
        0
1070
     0
  0
MLEADERSTYLE
  5
E6
102
{ACAD_REACTORS
330
E5
102
}
330
E5
100
AcDbMLeaderStyle
170
     2
171
     1
172
     0
 90
        2
 40
0.0
 41
0.0
173
     1
 91
-1056964608
340
22
 92
       -2
290
     1
 42
2.0
291
     1
 43
0.36
  3
Standard
 44
4.0
300

342
1F
174
     1
178
     6
175
     1
176
     0
 93
-1056964608
 45
4.0
292
     0
297
     0
 46
4.0
 94
-1056964608
 47
1.0
 49
1.0
140
1.0
293
     1
141
0.0
294
     1
177
     0
142
1.0
295
     0
296
     0
143
0.125
1001
ACAD_MLEADERVER
1070
     2
  0
MLINESTYLE
  5
39
102
{ACAD_REACTORS
330
30
102
}
330
30
100
AcDbMlineStyle
  2
STANDARD
 70
     0
  3

 62
   256
 51
90.0
 52
90.0
 71
     2
 49
0.5
 62
   256
  6
BYLAYER
 49
-0.5
 62
   256
  6
BYLAYER
  0
ACDBPLACEHOLDER
  5
7
102
{ACAD_REACTORS
330
8
102
}
330
8
  0
SCALE
  5
3E
102
{ACAD_REACTORS
330
35
102
}
330
35
100
AcDbScale
 70
     0
300
1:1
140
1.0
141
1.0
290
     1
  0
SCALE
  5
3F
102
{ACAD_REACTORS
330
35
102
}
330
35
100
AcDbScale
 70
     0
300
1:2
140
1.0
141
2.0
290
     0
  0
SCALE
  5
40
102
{ACAD_REACTORS
330
35
102
}
330
35
100
AcDbScale
 70
     0
300
1:4
140
1.0
141
4.0
290
     0
  0
SCALE
  5
41
102
{ACAD_REACTORS
330
35
102
}
330
35
100
AcDbScale
 70
     0
300
1:5
140
1.0
141
5.0
290
     0
  0
SCALE
  5
42
102
{ACAD_REACTORS
330
35
102
}
330
35
100
AcDbScale
 70
     0
300
1:8
140
1.0
141
8.0
290
     0
  0
SCALE
  5
43
102
{ACAD_REACTORS
330
35
102
}
330
35
100
AcDbScale
 70
     0
300
1:10
140
1.0
141
10.0
290
     0
  0
SCALE
  5
44
102
{ACAD_REACTORS
330
35
102
}
330
35
100
AcDbScale
 70
     0
300
1:16
140
1.0
141
16.0
290
     0
  0
SCALE
  5
45
102
{ACAD_REACTORS
330
35
102
}
330
35
100
AcDbScale
 70
     0
300
1:20
140
1.0
141
20.0
290
     0
  0
SCALE
  5
46
102
{ACAD_REACTORS
330
35
102
}
330
35
100
AcDbScale
 70
     0
300
1:30
140
1.0
141
30.0
290
     0
  0
SCALE
  5
47
102
{ACAD_REACTORS
330
35
102
}
330
35
100
AcDbScale
 70
     0
300
1:40
140
1.0
141
40.0
290
     0
  0
SCALE
  5
48
102
{ACAD_REACTORS
330
35
102
}
330
35
100
AcDbScale
 70
     0
300
1:50
140
1.0
141
50.0
290
     0
  0
SCALE
  5
49
102
{ACAD_REACTORS
330
35
102
}
330
35
100
AcDbScale
 70
     0
300
1:100
140
1.0
141
100.0
290
     0
  0
SCALE
  5
4A
102
{ACAD_REACTORS
330
35
102
}
330
35
100
AcDbScale
 70
     0
300
2:1
140
2.0
141
1.0
290
     0
  0
SCALE
  5
4B
102
{ACAD_REACTORS
330
35
102
}
330
35
100
AcDbScale
 70
     0
300
4:1
140
4.0
141
1.0
290
     0
  0
SCALE
  5
4C
102
{ACAD_REACTORS
330
35
102
}
330
35
100
AcDbScale
 70
     0
300
8:1
140
8.0
141
1.0
290
     0
  0
SCALE
  5
4D
102
{ACAD_REACTORS
330
35
102
}
330
35
100
AcDbScale
 70
     0
300
10:1
140
10.0
141
1.0
290
     0
  0
SCALE
  5
4E
102
{ACAD_REACTORS
330
35
102
}
330
35
100
AcDbScale
 70
     0
300
100:1
140
100.0
141
1.0
290
     0
  0
TABLESTYLE
  5
3A
102
{ACAD_XDICTIONARY
360
3B
102
}
102
{ACAD_REACTORS
330
36
102
}
330
36
100
AcDbTableStyle
  3
Standard
 70
     0
 71
     0
 40
1.5
 41
1.5
280
     0
281
     0
  7
Standard
140
4.5
170
     2
 62
     0
 63
     7
283
     0
 90
      512
 91
        0
  1

274
    -2
284
     1
 64
     0
275
    -2
285
     1
 65
     0
276
    -2
286
     1
 66
     0
277
    -2
287
     1
 67
     0
278
    -2
288
     1
 68
     0
279
    -2
289
     1
 69
     0
  7
Standard
140
6.0
170
     5
 62
     0
 63
     7
283
     0
 90
      512
 91
        0
  1

274
    -2
284
     1
 64
     0
275
    -2
285
     1
 65
     0
276
    -2
286
     1
 66
     0
277
    -2
287
     1
 67
     0
278
    -2
288
     1
 68
     0
279
    -2
289
     1
 69
     0
  7
Standard
140
4.5
170
     5
 62
     0
 63
     7
283
     0
 90
      512
 91
        0
  1

274
    -2
284
     1
 64
     0
275
    -2
285
     1
 65
     0
276
    -2
286
     1
 66
     0
277
    -2
287
     1
 67
     0
278
    -2
288
     1
 68
     0
279
    -2
289
     1
 69
     0
  0
VISUALSTYLE
  5
28
102
{ACAD_REACTORS
330
29
102
}
330
29
100
AcDbVisualStyle
  2
2dWireframe
 70
     4
 71
     0
 72
     2
 73
     1
 90
        0
 40
-0.6
 41
-30.0
 62
     5
 63
     7
 74
     1
 91
        4
 64
     7
 65
   257
 75
     1
175
     1
 42
1.0
 92
        0
 66
   257
 43
1.0
 76
     1
 77
     6
 78
     2
 67
     7
 79
     5
170
     0
171
     0
290
     0
174
     0
 93
        1
 44
0.0
173
     0
291
     0
 45
0.0
  0
VISUALSTYLE
  5
DD
102
{ACAD_REACTORS
330
29
102
}
330
29
100
AcDbVisualStyle
  2
3D Hidden
 70
     6
 71
     1
 72
     2
 73
     2
 90
        0
 40
-0.6
 41
-30.0
 62
     5
 63
     7
 74
     2
 91
        2
 64
     7
 65
   257
 75
     2
175
     1
 42
40.0
 92
        0
 66
   257
 43
1.0
 76
     1
 77
     6
 78
     2
 67
     7
 79
     3
170
     0
171
     0
290
     0
174
     0
 93
        1
 44
0.0
173
     0
291
     0
 45
0.0
  0
VISUALSTYLE
  5
3D
102
{ACAD_REACTORS
330
29
102
}
330
29
100
AcDbVisualStyle
  2
3dWireframe
 70
     5
 71
     0
 72
     2
 73
     1
 90
        0
 40
-0.6
 41
-30.0
 62
     5
 63
     7
 74
     1
 91
        4
 64
     7
 65
   257
 75
     1
175
     1
 42
1.0
 92
        0
 66
   257
 43
1.0
 76
     1
 77
     6
 78
     2
 67
     7
 79
     5
170
     0
171
     0
290
     0
174
     0
 93
        1
 44
0.0
173
     0
291
     0
 45
0.0
  0
VISUALSTYLE
  5
DC
102
{ACAD_REACTORS
330
29
102
}
330
29
100
AcDbVisualStyle
  2
Basic
 70
     7
 71
     1
 72
     0
 73
     1
 90
        0
 40
-0.6
 41
-30.0
 62
     5
 63
     7
 74
     0
 91
        4
 64
     7
 65
   257
 75
     1
175
     1
 42
1.0
 92
        8
 66
     7
 43
1.0
 76
     1
 77
     6
 78
     2
 67
     7
 79
     5
170
     0
171
     0
290
     0
174
     0
 93
        1
 44
0.0
173
     0
291
     1
 45
0.0
  0
VISUALSTYLE
  5
E0
102
{ACAD_REACTORS
330
29
102
}
330
29
100
AcDbVisualStyle
  2
Brighten
 70
    12
 71
     2
 72
     2
 73
     0
 90
        0
 40
-0.6
 41
-30.0
 62
     5
 63
     7
 74
     1
 91
        4
 64
     7
 65
   257
 75
     1
175
     1
 42
1.0
 92
        8
 66
     7
 43
1.0
 76
     1
 77
     6
 78
     2
 67
     7
 79
     5
170
     0
171
     0
290
     0
174
     0
 93
        1
 44
50.0
173
     0
291
     1
 45
0.0
  0
VISUALSTYLE
  5
E4
102
{ACAD_REACTORS
330
29
102
}
330
29
100
AcDbVisualStyle
  2
ColorChange
 70
    16
 71
     2
 72
     2
 73
     3
 90
        0
 40
-0.6
 41
-30.0
 62
     5
 63
     8
 74
     1
 91
        4
 64
     7
 65
   257
 75
     1
175
     1
 42
1.0
 92
        8
 66
     8
 43
1.0
 76
     1
 77
     6
 78
     2
 67
     7
 79
     5
170
     0
171
     0
290
     0
174
     0
 93
        1
 44
0.0
173
     0
291
     1
 45
0.0
  0
VISUALSTYLE
  5
DE
102
{ACAD_REACTORS
330
29
102
}
330
29
100
AcDbVisualStyle
  2
Conceptual
 70
     9
 71
     3
 72
     2
 73
     0
 90
        0
 40
-0.6
 41
-30.0
 62
     5
 63
     7
 74
     2
 91
        2
 64
     7
 65
   257
 75
     1
175
     1
 42
40.0
 92
        8
 66
     7
 43
1.0
 76
     1
 77
     6
 78
     2
 67
     7
 79
     3
170
     0
171
     0
290
     0
174
     0
 93
        1
 44
0.0
173
     0
291
     0
 45
0.0
  0
VISUALSTYLE
  5
DF
102
{ACAD_REACTORS
330
29
102
}
330
29
100
AcDbVisualStyle
  2
Dim
 70
    11
 71
     2
 72
     2
 73
     0
 90
        0
 40
-0.6
 41
-30.0
 62
     5
 63
     7
 74
     1
 91
        4
 64
     7
 65
   257
 75
     1
175
     1
 42
1.0
 92
        8
 66
     7
 43
1.0
 76
     1
 77
     6
 78
     2
 67
     7
 79
     5
170
     0
171
     0
290
     0
174
     0
 93
        1
 44
-50.0
173
     0
291
     1
 45
0.0
  0
VISUALSTYLE
  5
E3
102
{ACAD_REACTORS
330
29
102
}
330
29
100
AcDbVisualStyle
  2
Facepattern
 70
    15
 71
     2
 72
     2
 73
     0
 90
        0
 40
-0.6
 41
-30.0
 62
     5
 63
     7
 74
     1
 91
        4
 64
     7
 65
   257
 75
     1
175
     1
 42
1.0
 92
        8
 66
     7
 43
1.0
 76
     1
 77
     6
 78
     2
 67
     7
 79
     5
170
     0
171
     0
290
     0
174
     0
 93
        1
 44
0.0
173
     0
291
     1
 45
0.0
  0
VISUALSTYLE
  5
D8
102
{ACAD_REACTORS
330
29
102
}
330
29
100
AcDbVisualStyle
  2
Flat
 70
     0
 71
     2
 72
     1
 73
     1
 90
        2
 40
-0.6
 41
30.0
 62
     5
 63
     7
 74
     0
 91
        4
 64
     7
 65
   257
 75
     1
175
     1
 42
1.0
 92
        8
 66
     7
 43
1.0
 76
     1
 77
     6
 78
     2
 67
     7
 79
     5
170
     0
171
     0
290
     0
174
     0
 93
       13
 44
0.0
173
     0
291
     1
 45
0.0
  0
VISUALSTYLE
  5
D9
102
{ACAD_REACTORS
330
29
102
}
330
29
100
AcDbVisualStyle
  2
FlatWithEdges
 70
     1
 71
     2
 72
     1
 73
     1
 90
        2
 40
-0.6
 41
30.0
 62
     5
 63
     7
 74
     1
 91
        4
 64
     7
 65
   257
 75
     1
175
     1
 42
1.0
 92
        0
 66
   257
 43
1.0
 76
     1
 77
     6
 78
     2
 67
     7
 79
     5
170
     0
171
     0
290
     0
174
     0
 93
       13
 44
0.0
173
     0
291
     1
 45
0.0
  0
VISUALSTYLE
  5
DA
102
{ACAD_REACTORS
330
29
102
}
330
29
100
AcDbVisualStyle
  2
Gouraud
 70
     2
 71
     2
 72
     2
 73
     1
 90
        2
 40
-0.6
 41
30.0
 62
     5
 63
     7
 74
     0
 91
        4
 64
     7
 65
   257
 75
     1
175
     1
 42
1.0
 92
        0
 66
     7
 43
1.0
 76
     1
 77
     6
 78
     2
 67
     7
 79
     5
170
     0
171
     0
290
     0
174
     0
 93
       13
 44
0.0
173
     0
291
     1
 45
0.0
  0
VISUALSTYLE
  5
DB
102
{ACAD_REACTORS
330
29
102
}
330
29
100
AcDbVisualStyle
  2
GouraudWithEdges
 70
     3
 71
     2
 72
     2
 73
     1
 90
        2
 40
-0.6
 41
30.0
 62
     5
 63
     7
 74
     1
 91
        4
 64
     7
 65
   257
 75
     1
175
     1
 42
1.0
 92
        0
 66
   257
 43
1.0
 76
     1
 77
     6
 78
     2
 67
     7
 79
     5
170
     0
171
     0
290
     0
174
     0
 93
       13
 44
0.0
173
     0
291
     1
 45
0.0
  0
VISUALSTYLE
  5
E2
102
{ACAD_REACTORS
330
29
102
}
330
29
100
AcDbVisualStyle
  2
Linepattern
 70
    14
 71
     2
 72
     2
 73
     0
 90
        0
 40
-0.6
 41
-30.0
 62
     5
 63
     7
 74
     1
 91
        4
 64
     7
 65
   257
 75
     7
175
     7
 42
1.0
 92
        8
 66
     7
 43
1.0
 76
     1
 77
     6
 78
     2
 67
     7
 79
     5
170
     0
171
     0
290
     0
174
     0
 93
        1
 44
0.0
173
     0
291
     1
 45
0.0
  0
VISUALSTYLE
  5
3C
102
{ACAD_REACTORS
330
29
102
}
330
29
100
AcDbVisualStyle
  2
Realistic
 70
     8
 71
     2
 72
     2
 73
     1
 90
        0
 40
-0.6
 41
-30.0
 62
     5
 63
     7
 74
     1
 91
        0
 64
     7
 65
   257
 75
     1
175
     1
 42
1.0
 92
        8
 66
     8
 43
1.0
 76
     1
 77
     6
 78
     2
 67
     7
 79
     5
170
     0
171
     0
290
     0
174
     0
 93
       13
 44
0.0
173
     0
291
     0
 45
0.0
  0
VISUALSTYLE
  5
E1
102
{ACAD_REACTORS
330
29
102
}
330
29
100
AcDbVisualStyle
  2
Thicken
 70
    13
 71
     2
 72
     2
 73
     0
 90
        0
 40
-0.6
 41
-30.0
 62
     5
 63
     7
 74
     1
 91
        4
 64
     7
 65
   257
 75
     1
175
     1
 42
1.0
 92
       12
 66
     7
 43
1.0
 76
     1
 77
     6
 78
     2
 67
     7
 79
     5
170
     0
171
     0
290
     0
174
     0
 93
        1
 44
0.0
173
     0
291
     1
 45
0.0
  0
DICTIONARYVAR
  5
CD
102
{ACAD_REACTORS
330
C9
102
}
330
C9
100
DictionaryVariables
280
     0
  1
1:1
  0
DICTIONARYVAR
  5
CB
102
{ACAD_REACTORS
330
C9
102
}
330
C9
100
DictionaryVariables
280
     0
  1
STANDARD
  0
DICTIONARYVAR
  5
CA
102
{ACAD_REACTORS
330
C9
102
}
330
C9
100
DictionaryVariables
280
     0
  1
STANDARD
  0
DICTIONARYVAR
  5
D4
102
{ACAD_REACTORS
330
C9
102
}
330
C9
100
DictionaryVariables
280
     0
  1
2
  0
DICTIONARYVAR
  5
D3
102
{ACAD_REACTORS
330
C9
102
}
330
C9
100
DictionaryVariables
280
     0
  1
1
  0
DICTIONARYVAR
  5
D2
102
{ACAD_REACTORS
330
C9
102
}
330
C9
100
DictionaryVariables
280
     0
  1
0
  0
DICTIONARYVAR
  5
CF
102
{ACAD_REACTORS
330
C9
102
}
330
C9
100
DictionaryVariables
280
     0
  1
0
  0
DICTIONARYVAR
  5
D0
102
{ACAD_REACTORS
330
C9
102
}
330
C9
100
DictionaryVariables
280
     0
  1
0
  0
DICTIONARYVAR
  5
CE
102
{ACAD_REACTORS
330
C9
102
}
330
C9
100
DictionaryVariables
280
     0
  1
2
  0
DICTIONARYVAR
  5
CC
102
{ACAD_REACTORS
330
C9
102
}
330
C9
100
DictionaryVariables
280
     0
  1
1
  0
DICTIONARYVAR
  5
D1
102
{ACAD_REACTORS
330
C9
102
}
330
C9
100
DictionaryVariables
280
     0
  1
127
  0
DICTIONARY
  5
C
330
A
100
AcDbDictionary
280
     1
281
     1
  3
BUMPTILE
360
D
  3
DIFFUSETILE
360
E
  3
OPACITYTILE
360
F
  3
REFLECTIONTILE
360
10
  0
DICTIONARY
  5
3B
330
3A
100
AcDbDictionary
280
     1
281
     1
  3
ACAD_ROUNDTRIP_2008_TABLESTYLE_CELLSTYLEMAP
360
105
  0
XRECORD
  5
D
102
{ACAD_REACTORS
330
C
102
}
330
C
100
AcDbXrecord
280
     1
270
     1
271
     1
  0
XRECORD
  5
E
102
{ACAD_REACTORS
330
C
102
}
330
C
100
AcDbXrecord
280
     1
270
     1
271
     1
  0
XRECORD
  5
F
102
{ACAD_REACTORS
330
C
102
}
330
C
100
AcDbXrecord
280
     1
270
     1
271
     1
  0
XRECORD
  5
10
102
{ACAD_REACTORS
330
C
102
}
330
C
100
AcDbXrecord
280
     1
270
     1
271
     1
  0
CELLSTYLEMAP
  5
105
102
{ACAD_REACTORS
330
3B
102
}
330
3B
100
AcDbCellStyleMap
 90
        3
300
CELLSTYLE
  1
TABLEFORMAT_BEGIN
 90
        5
170
     1
 91
        0
 92
    32768
 62
   257
 93
        1
300
CONTENTFORMAT
  1
CONTENTFORMAT_BEGIN
 90
        0
 91
        0
 92
      512
 93
        0
300

 40
0.0
140
1.0
 94
        5
 62
     0
340
1F
144
6.0
309
CONTENTFORMAT_END
171
     1
301
MARGIN
  1
CELLMARGIN_BEGIN
 40
1.5
 40
1.5
 40
1.5
 40
1.5
 40
4.5
 40
4.5
309
CELLMARGIN_END
 94
        6
 95
        1
302
GRIDFORMAT
  1
GRIDFORMAT_BEGIN
 90
        0
 91
        1
 62
     0
 92
       -2
340
22
 93
        0
 40
1.125
309
GRIDFORMAT_END
 95
        2
302
GRIDFORMAT
  1
GRIDFORMAT_BEGIN
 90
        0
 91
        1
 62
     0
 92
       -2
340
22
 93
        0
 40
1.125
309
GRIDFORMAT_END
 95
        4
302
GRIDFORMAT
  1
GRIDFORMAT_BEGIN
 90
        0
 91
        1
 62
     0
 92
       -2
340
22
 93
        0
 40
1.125
309
GRIDFORMAT_END
 95
        8
302
GRIDFORMAT
  1
GRIDFORMAT_BEGIN
 90
        0
 91
        1
 62
     0
 92
       -2
340
22
 93
        0
 40
1.125
309
GRIDFORMAT_END
 95
       16
302
GRIDFORMAT
  1
GRIDFORMAT_BEGIN
 90
        0
 91
        1
 62
     0
 92
       -2
340
22
 93
        0
 40
1.125
309
GRIDFORMAT_END
 95
       32
302
GRIDFORMAT
  1
GRIDFORMAT_BEGIN
 90
        0
 91
        1
 62
     0
 92
       -2
340
22
 93
        0
 40
1.125
309
GRIDFORMAT_END
309
TABLEFORMAT_END
  1
CELLSTYLE_BEGIN
 90
        1
 91
        1
300
_TITLE
309
CELLSTYLE_END
300
CELLSTYLE
  1
TABLEFORMAT_BEGIN
 90
        5
170
     1
 91
        0
 92
        0
 62
   257
 93
        1
300
CONTENTFORMAT
  1
CONTENTFORMAT_BEGIN
 90
        0
 91
        0
 92
      512
 93
        0
300

 40
0.0
140
1.0
 94
        5
 62
     0
340
1F
144
4.5
309
CONTENTFORMAT_END
171
     1
301
MARGIN
  1
CELLMARGIN_BEGIN
 40
1.5
 40
1.5
 40
1.5
 40
1.5
 40
4.5
 40
4.5
309
CELLMARGIN_END
 94
        6
 95
        1
302
GRIDFORMAT
  1
GRIDFORMAT_BEGIN
 90
        0
 91
        1
 62
     0
 92
       -2
340
22
 93
        0
 40
1.125
309
GRIDFORMAT_END
 95
        2
302
GRIDFORMAT
  1
GRIDFORMAT_BEGIN
 90
        0
 91
        1
 62
     0
 92
       -2
340
22
 93
        0
 40
1.125
309
GRIDFORMAT_END
 95
        4
302
GRIDFORMAT
  1
GRIDFORMAT_BEGIN
 90
        0
 91
        1
 62
     0
 92
       -2
340
22
 93
        0
 40
1.125
309
GRIDFORMAT_END
 95
        8
302
GRIDFORMAT
  1
GRIDFORMAT_BEGIN
 90
        0
 91
        1
 62
     0
 92
       -2
340
22
 93
        0
 40
1.125
309
GRIDFORMAT_END
 95
       16
302
GRIDFORMAT
  1
GRIDFORMAT_BEGIN
 90
        0
 91
        1
 62
     0
 92
       -2
340
22
 93
        0
 40
1.125
309
GRIDFORMAT_END
 95
       32
302
GRIDFORMAT
  1
GRIDFORMAT_BEGIN
 90
        0
 91
        1
 62
     0
 92
       -2
340
22
 93
        0
 40
1.125
309
GRIDFORMAT_END
309
TABLEFORMAT_END
  1
CELLSTYLE_BEGIN
 90
        2
 91
        1
300
_HEADER
309
CELLSTYLE_END
300
CELLSTYLE
  1
TABLEFORMAT_BEGIN
 90
        5
170
     1
 91
        0
 92
        0
 62
   257
 93
        1
300
CONTENTFORMAT
  1
CONTENTFORMAT_BEGIN
 90
        0
 91
        0
 92
      512
 93
        0
300

 40
0.0
140
1.0
 94
        2
 62
     0
340
1F
144
4.5
309
CONTENTFORMAT_END
171
     1
301
MARGIN
  1
CELLMARGIN_BEGIN
 40
1.5
 40
1.5
 40
1.5
 40
1.5
 40
4.5
 40
4.5
309
CELLMARGIN_END
 94
        6
 95
        1
302
GRIDFORMAT
  1
GRIDFORMAT_BEGIN
 90
        0
 91
        1
 62
     0
 92
       -2
340
22
 93
        0
 40
1.125
309
GRIDFORMAT_END
 95
        2
302
GRIDFORMAT
  1
GRIDFORMAT_BEGIN
 90
        0
 91
        1
 62
     0
 92
       -2
340
22
 93
        0
 40
1.125
309
GRIDFORMAT_END
 95
        4
302
GRIDFORMAT
  1
GRIDFORMAT_BEGIN
 90
        0
 91
        1
 62
     0
 92
       -2
340
22
 93
        0
 40
1.125
309
GRIDFORMAT_END
 95
        8
302
GRIDFORMAT
  1
GRIDFORMAT_BEGIN
 90
        0
 91
        1
 62
     0
 92
       -2
340
22
 93
        0
 40
1.125
309
GRIDFORMAT_END
 95
       16
302
GRIDFORMAT
  1
GRIDFORMAT_BEGIN
 90
        0
 91
        1
 62
     0
 92
       -2
340
22
 93
        0
 40
1.125
309
GRIDFORMAT_END
 95
       32
302
GRIDFORMAT
  1
GRIDFORMAT_BEGIN
 90
        0
 91
        1
 62
     0
 92
       -2
340
22
 93
        0
 40
1.125
309
GRIDFORMAT_END
309
TABLEFORMAT_END
  1
CELLSTYLE_BEGIN
 90
        3
 91
        2
300
_DATA
309
CELLSTYLE_END
  0
ENDSEC
  0
EOF
