0
SECTION
2
HEADER
9
$EXTMIN
10
 0
20
 100
30
0.0
9
$EXTMAX
10
 0
20
 100
30
0.0
9
$LIMMIN
10
 100
20
 0
9
$LIMMAX
10
 0
20
 100
9
$PSLTSCALE
70
1
0
ENDSEC
0
SECTION
2
TABLES
0
TABLE
2
LAYER
70
2
0
LAYER
2
0
70
0
62
7
6
CONTINUOUS
0
LAYER
2
Halfen
70
0
62
7
6
CONTINUOUS
0
ENDTAB
0
ENDSEC
0
SECTION
2
ENTITIES
0
POLYLINE
8
Halfen
62
7
66
1
10
0.0
20
0.0
30
0.0
70
1
0
VERTEX
8
Halfen
62
7
10
 0
20
-73.5
30
0
0
VERTEX
8
Halfen
62
7
10
 250
20
-73.5
30
0
0
VERTEX
8
Halfen
62
7
10
 250
20
 73.5
30
0
0
VERTEX
8
Halfen
62
7
10
 0
20
 73.5
30
0
0
SEQEND
8
Halfen
0
POLYLINE
8
Halfen
62
7
66
1
10
0.0
20
0.0
30
0.0
70
1
0
VERTEX
8
Halfen
62
7
10
 0
20
-60
30
0
0
VERTEX
8
Halfen
62
7
10
 250
20
-60
30
0
0
VERTEX
8
Halfen
62
7
10
 250
20
 60
30
0
0
VERTEX
8
Halfen
62
7
10
 0
20
 60
30
0
0
SEQEND
8
Halfen
0
POLYLINE
8
Halfen
62
7
66
1
10
0.0
20
0.0
30
0.0
70
1
0
VERTEX
8
Halfen
62
7
10
 20
20
-32.5
30
0
0
VERTEX
8
Halfen
62
7
10
 37
20
-1.5
30
0
0
VERTEX
8
Halfen
62
7
10
 28
20
-1.5
30
0
0
VERTEX
8
Halfen
62
7
10
 28
20
 32.5
30
0
0
VERTEX
8
Halfen
62
7
10
 12
20
 32.5
30
0
0
VERTEX
8
Halfen
62
7
10
 12
20
-1.5
30
0
0
VERTEX
8
Halfen
62
7
10
 3
20
-1.5
30
0
0
SEQEND
8
Halfen
0
POLYLINE
8
Halfen
62
7
66
1
10
0.0
20
0.0
30
0.0
70
1
0
VERTEX
8
Halfen
62
7
10
 230
20
-32.5
30
0
0
VERTEX
8
Halfen
62
7
10
 247
20
-1.5
30
0
0
VERTEX
8
Halfen
62
7
10
 238
20
-1.5
30
0
0
VERTEX
8
Halfen
62
7
10
 238
20
 32.5
30
0
0
VERTEX
8
Halfen
62
7
10
 222
20
 32.5
30
0
0
VERTEX
8
Halfen
62
7
10
 222
20
-1.5
30
0
0
VERTEX
8
Halfen
62
7
10
 213
20
-1.5
30
0
0
SEQEND
8
Halfen
0
POLYLINE
8
Halfen
62
7
66
1
10
0.0
20
0.0
30
0.0
70
1
0
VERTEX
8
Halfen
62
7
10
 140
20
-69.3
30
0
0
VERTEX
8
Halfen
62
7
10
 140
20
-56.8
30
0
0
VERTEX
8
Halfen
62
7
10
 140
20
 69.3
30
0
0
VERTEX
8
Halfen
62
7
10
 139.958
20
 70.359
30
0
0
VERTEX
8
Halfen
62
7
10
 139.834
20
 71.412
30
0
0
VERTEX
8
Halfen
62
7
10
 139.627
20
 72.452
30
0
0
VERTEX
8
Halfen
62
7
10
 139.339
20
 73.472
30
0
0
VERTEX
8
Halfen
62
7
10
 138.972
20
 74.466
30
0
0
VERTEX
8
Halfen
62
7
10
 138.529
20
 75.429
30
0
0
VERTEX
8
Halfen
62
7
10
 138.011
20
 76.354
30
0
0
VERTEX
8
Halfen
62
7
10
 137.422
20
 77.235
30
0
0
VERTEX
8
Halfen
62
7
10
 136.765
20
 78.068
30
0
0
VERTEX
8
Halfen
62
7
10
 136.046
20
 78.846
30
0
0
VERTEX
8
Halfen
62
7
10
 135.268
20
 79.565
30
0
0
VERTEX
8
Halfen
62
7
10
 134.435
20
 80.222
30
0
0
VERTEX
8
Halfen
62
7
10
 133.554
20
 80.811
30
0
0
VERTEX
8
Halfen
62
7
10
 132.629
20
 81.329
30
0
0
VERTEX
8
Halfen
62
7
10
 131.666
20
 81.772
30
0
0
VERTEX
8
Halfen
62
7
10
 130.672
20
 82.139
30
0
0
VERTEX
8
Halfen
62
7
10
 129.652
20
 82.427
30
0
0
VERTEX
8
Halfen
62
7
10
 128.612
20
 82.634
30
0
0
VERTEX
8
Halfen
62
7
10
 127.559
20
 82.758
30
0
0
VERTEX
8
Halfen
62
7
10
 126.5
20
 82.8
30
0
0
VERTEX
8
Halfen
62
7
10
 123.5
20
 82.8
30
0
0
VERTEX
8
Halfen
62
7
10
 122.441
20
 82.758
30
0
0
VERTEX
8
Halfen
62
7
10
 121.388
20
 82.634
30
0
0
VERTEX
8
Halfen
62
7
10
 120.348
20
 82.427
30
0
0
VERTEX
8
Halfen
62
7
10
 119.328
20
 82.139
30
0
0
VERTEX
8
Halfen
62
7
10
 118.334
20
 81.772
30
0
0
VERTEX
8
Halfen
62
7
10
 117.371
20
 81.329
30
0
0
VERTEX
8
Halfen
62
7
10
 116.446
20
 80.811
30
0
0
VERTEX
8
Halfen
62
7
10
 115.565
20
 80.222
30
0
0
VERTEX
8
Halfen
62
7
10
 114.732
20
 79.565
30
0
0
VERTEX
8
Halfen
62
7
10
 113.954
20
 78.846
30
0
0
VERTEX
8
Halfen
62
7
10
 113.235
20
 78.068
30
0
0
VERTEX
8
Halfen
62
7
10
 112.578
20
 77.235
30
0
0
VERTEX
8
Halfen
62
7
10
 111.989
20
 76.354
30
0
0
VERTEX
8
Halfen
62
7
10
 111.471
20
 75.429
30
0
0
VERTEX
8
Halfen
62
7
10
 111.028
20
 74.466
30
0
0
VERTEX
8
Halfen
62
7
10
 110.661
20
 73.472
30
0
0
VERTEX
8
Halfen
62
7
10
 110.373
20
 72.452
30
0
0
VERTEX
8
Halfen
62
7
10
 110.166
20
 71.412
30
0
0
VERTEX
8
Halfen
62
7
10
 110.042
20
 70.359
30
0
0
VERTEX
8
Halfen
62
7
10
 110
20
 69.3
30
0
0
VERTEX
8
Halfen
62
7
10
 110
20
-56.8
30
0
0
VERTEX
8
Halfen
62
7
10
 110
20
-69.3
30
0
0
VERTEX
8
Halfen
62
7
10
 110.042
20
-70.359
30
0
0
VERTEX
8
Halfen
62
7
10
 110.166
20
-71.412
30
0
0
VERTEX
8
Halfen
62
7
10
 110.373
20
-72.452
30
0
0
VERTEX
8
Halfen
62
7
10
 110.661
20
-73.472
30
0
0
VERTEX
8
Halfen
62
7
10
 111.028
20
-74.466
30
0
0
VERTEX
8
Halfen
62
7
10
 111.471
20
-75.429
30
0
0
VERTEX
8
Halfen
62
7
10
 111.989
20
-76.354
30
0
0
VERTEX
8
Halfen
62
7
10
 112.578
20
-77.235
30
0
0
VERTEX
8
Halfen
62
7
10
 113.235
20
-78.068
30
0
0
VERTEX
8
Halfen
62
7
10
 113.954
20
-78.846
30
0
0
VERTEX
8
Halfen
62
7
10
 114.732
20
-79.565
30
0
0
VERTEX
8
Halfen
62
7
10
 115.565
20
-80.222
30
0
0
VERTEX
8
Halfen
62
7
10
 116.446
20
-80.811
30
0
0
VERTEX
8
Halfen
62
7
10
 117.371
20
-81.329
30
0
0
VERTEX
8
Halfen
62
7
10
 118.334
20
-81.772
30
0
0
VERTEX
8
Halfen
62
7
10
 119.328
20
-82.139
30
0
0
VERTEX
8
Halfen
62
7
10
 120.348
20
-82.427
30
0
0
VERTEX
8
Halfen
62
7
10
 121.388
20
-82.634
30
0
0
VERTEX
8
Halfen
62
7
10
 122.441
20
-82.758
30
0
0
VERTEX
8
Halfen
62
7
10
 123.5
20
-82.8
30
0
0
VERTEX
8
Halfen
62
7
10
 126.5
20
-82.8
30
0
0
VERTEX
8
Halfen
62
7
10
 127.559
20
-82.758
30
0
0
VERTEX
8
Halfen
62
7
10
 128.612
20
-82.634
30
0
0
VERTEX
8
Halfen
62
7
10
 129.652
20
-82.427
30
0
0
VERTEX
8
Halfen
62
7
10
 130.672
20
-82.139
30
0
0
VERTEX
8
Halfen
62
7
10
 131.666
20
-81.772
30
0
0
VERTEX
8
Halfen
62
7
10
 132.629
20
-81.329
30
0
0
VERTEX
8
Halfen
62
7
10
 133.554
20
-80.811
30
0
0
VERTEX
8
Halfen
62
7
10
 134.435
20
-80.222
30
0
0
VERTEX
8
Halfen
62
7
10
 135.268
20
-79.565
30
0
0
VERTEX
8
Halfen
62
7
10
 136.046
20
-78.846
30
0
0
VERTEX
8
Halfen
62
7
10
 136.765
20
-78.068
30
0
0
VERTEX
8
Halfen
62
7
10
 137.422
20
-77.235
30
0
0
VERTEX
8
Halfen
62
7
10
 138.011
20
-76.354
30
0
0
VERTEX
8
Halfen
62
7
10
 138.529
20
-75.429
30
0
0
VERTEX
8
Halfen
62
7
10
 138.972
20
-74.466
30
0
0
VERTEX
8
Halfen
62
7
10
 139.339
20
-73.472
30
0
0
VERTEX
8
Halfen
62
7
10
 139.627
20
-72.452
30
0
0
VERTEX
8
Halfen
62
7
10
 139.834
20
-71.412
30
0
0
VERTEX
8
Halfen
62
7
10
 139.958
20
-70.359
30
0
0
VERTEX
8
Halfen
62
7
10
 140
20
-69.3
30
0
0
SEQEND
8
Halfen
0
POLYLINE
8
Halfen
62
7
66
1
10
0.0
20
0.0
30
0.0
70
1
0
VERTEX
8
Halfen
62
7
10
 73
20
-456.927
30
0
0
VERTEX
8
Halfen
62
7
10
 73
20
 214.971
30
0
0
VERTEX
8
Halfen
62
7
10
 67
20
 214.971
30
0
0
VERTEX
8
Halfen
62
7
10
 67
20
-456.927
30
0
0
SEQEND
8
Halfen
0
POLYLINE
8
Halfen
62
7
66
1
10
0.0
20
0.0
30
0.0
70
1
0
VERTEX
8
Halfen
62
7
10
 193
20
-456.927
30
0
0
VERTEX
8
Halfen
62
7
10
 193
20
 214.971
30
0
0
VERTEX
8
Halfen
62
7
10
 187
20
 214.971
30
0
0
VERTEX
8
Halfen
62
7
10
 187
20
-456.927
30
0
0
SEQEND
8
Halfen
0
POLYLINE
8
Halfen
62
7
66
1
10
0.0
20
0.0
30
0.0
70
1
0
VERTEX
8
Halfen
62
7
10
 183
20
-456.927
30
0
0
VERTEX
8
Halfen
62
7
10
 183
20
 214.971
30
0
0
VERTEX
8
Halfen
62
7
10
 177
20
 214.971
30
0
0
VERTEX
8
Halfen
62
7
10
 177
20
-456.927
30
0
0
SEQEND
8
Halfen
0
POLYLINE
8
Halfen
62
7
66
1
10
0.0
20
0.0
30
0.0
70
1
0
VERTEX
8
Halfen
62
7
10
 63
20
-456.927
30
0
0
VERTEX
8
Halfen
62
7
10
 63
20
 214.971
30
0
0
VERTEX
8
Halfen
62
7
10
 57
20
 214.971
30
0
0
VERTEX
8
Halfen
62
7
10
 57
20
-456.927
30
0
0
SEQEND
8
Halfen
0
POLYLINE
8
Halfen
62
7
66
1
10
0.0
20
0.0
30
0.0
70
1
0
VERTEX
8
Halfen
62
7
10
 630
20
-60
30
0
0
VERTEX
8
Halfen
62
7
10
 630
20
 60
30
0
0
VERTEX
8
Halfen
62
7
10
 616.5
20
 73.5
30
0
0
VERTEX
8
Halfen
62
7
10
 616.5
20
 60
30
0
0
VERTEX
8
Halfen
62
7
10
 500
20
 60
30
0
0
VERTEX
8
Halfen
62
7
10
 500
20
-60
30
0
0
VERTEX
8
Halfen
62
7
10
 616.5
20
-60
30
0
0
VERTEX
8
Halfen
62
7
10
 616.5
20
-73.5
30
0
0
SEQEND
8
Halfen
0
POLYLINE
8
Halfen
62
7
66
1
10
0.0
20
0.0
30
0.0
70
1
0
VERTEX
8
Halfen
62
7
10
 500
20
-60
30
0
0
VERTEX
8
Halfen
62
7
10
 500
20
 60
30
0
0
VERTEX
8
Halfen
62
7
10
 463.5
20
 60
30
0
0
VERTEX
8
Halfen
62
7
10
 463.5
20
 73.5
30
0
0
VERTEX
8
Halfen
62
7
10
 450
20
 60
30
0
0
VERTEX
8
Halfen
62
7
10
 450
20
-60
30
0
0
VERTEX
8
Halfen
62
7
10
 463.5
20
-73.5
30
0
0
VERTEX
8
Halfen
62
7
10
 463.5
20
-60
30
0
0
SEQEND
8
Halfen
0
POLYLINE
8
Halfen
62
7
66
1
10
0.0
20
0.0
30
0.0
70
1
0
VERTEX
8
Halfen
62
7
10
 627.5
20
-58.75
30
0
0
VERTEX
8
Halfen
62
7
10
 627.5
20
 58.75
30
0
0
VERTEX
8
Halfen
62
7
10
 619
20
 67.25
30
0
0
VERTEX
8
Halfen
62
7
10
 619
20
 58
30
0
0
VERTEX
8
Halfen
62
7
10
 502
20
 58
30
0
0
VERTEX
8
Halfen
62
7
10
 502
20
-58
30
0
0
VERTEX
8
Halfen
62
7
10
 619
20
-58
30
0
0
VERTEX
8
Halfen
62
7
10
 619
20
-67.25
30
0
0
SEQEND
8
Halfen
0
POLYLINE
8
Halfen
62
7
66
1
10
0.0
20
0.0
30
0.0
70
1
0
VERTEX
8
Halfen
62
7
10
 498
20
-58
30
0
0
VERTEX
8
Halfen
62
7
10
 498
20
 58
30
0
0
VERTEX
8
Halfen
62
7
10
 461
20
 58
30
0
0
VERTEX
8
Halfen
62
7
10
 461
20
 67.25
30
0
0
VERTEX
8
Halfen
62
7
10
 452.5
20
 58.75
30
0
0
VERTEX
8
Halfen
62
7
10
 452.5
20
-58.75
30
0
0
VERTEX
8
Halfen
62
7
10
 461
20
-67.25
30
0
0
VERTEX
8
Halfen
62
7
10
 461
20
-58
30
0
0
SEQEND
8
Halfen
0
POLYLINE
8
Halfen
62
7
66
1
10
0.0
20
0.0
30
0.0
70
1
0
VERTEX
8
Halfen
62
7
10
 615
20
-81.8
30
0
0
VERTEX
8
Halfen
62
7
10
 615
20
 81.8
30
0
0
VERTEX
8
Halfen
62
7
10
 611
20
 81.8
30
0
0
VERTEX
8
Halfen
62
7
10
 610.846
20
 81.797
30
0
0
VERTEX
8
Halfen
62
7
10
 610.691
20
 81.786
30
0
0
VERTEX
8
Halfen
62
7
10
 610.538
20
 81.769
30
0
0
VERTEX
8
Halfen
62
7
10
 610.385
20
 81.746
30
0
0
VERTEX
8
Halfen
62
7
10
 610.234
20
 81.715
30
0
0
VERTEX
8
Halfen
62
7
10
 610.084
20
 81.678
30
0
0
VERTEX
8
Halfen
62
7
10
 609.936
20
 81.634
30
0
0
VERTEX
8
Halfen
62
7
10
 609.789
20
 81.584
30
0
0
VERTEX
8
Halfen
62
7
10
 609.646
20
 81.527
30
0
0
VERTEX
8
Halfen
62
7
10
 609.505
20
 81.464
30
0
0
VERTEX
8
Halfen
62
7
10
 609.366
20
 81.395
30
0
0
VERTEX
8
Halfen
62
7
10
 609.231
20
 81.32
30
0
0
VERTEX
8
Halfen
62
7
10
 609.1
20
 81.239
30
0
0
VERTEX
8
Halfen
62
7
10
 608.972
20
 81.153
30
0
0
VERTEX
8
Halfen
62
7
10
 608.848
20
 81.06
30
0
0
VERTEX
8
Halfen
62
7
10
 608.728
20
 80.963
30
0
0
VERTEX
8
Halfen
62
7
10
 608.613
20
 80.86
30
0
0
VERTEX
8
Halfen
62
7
10
 608.502
20
 80.752
30
0
0
VERTEX
8
Halfen
62
7
10
 608.397
20
 80.639
30
0
0
VERTEX
8
Halfen
62
7
10
 608.296
20
 80.522
30
0
0
VERTEX
8
Halfen
62
7
10
 607.41
20
 79.491
30
0
0
VERTEX
8
Halfen
62
7
10
 606.479
20
 78.5
30
0
0
VERTEX
8
Halfen
62
7
10
 605.505
20
 77.551
30
0
0
VERTEX
8
Halfen
62
7
10
 604.491
20
 76.646
30
0
0
VERTEX
8
Halfen
62
7
10
 603.437
20
 75.787
30
0
0
VERTEX
8
Halfen
62
7
10
 602.347
20
 74.975
30
0
0
VERTEX
8
Halfen
62
7
10
 601.222
20
 74.211
30
0
0
VERTEX
8
Halfen
62
7
10
 600.064
20
 73.499
30
0
0
VERTEX
8
Halfen
62
7
10
 598.876
20
 72.838
30
0
0
VERTEX
8
Halfen
62
7
10
 597.66
20
 72.23
30
0
0
VERTEX
8
Halfen
62
7
10
 596.418
20
 71.676
30
0
0
VERTEX
8
Halfen
62
7
10
 595.153
20
 71.178
30
0
0
VERTEX
8
Halfen
62
7
10
 593.867
20
 70.736
30
0
0
VERTEX
8
Halfen
62
7
10
 592.563
20
 70.351
30
0
0
VERTEX
8
Halfen
62
7
10
 591.243
20
 70.024
30
0
0
VERTEX
8
Halfen
62
7
10
 589.911
20
 69.756
30
0
0
VERTEX
8
Halfen
62
7
10
 588.567
20
 69.547
30
0
0
VERTEX
8
Halfen
62
7
10
 587.216
20
 69.397
30
0
0
VERTEX
8
Halfen
62
7
10
 585.859
20
 69.307
30
0
0
VERTEX
8
Halfen
62
7
10
 584.5
20
 69.277
30
0
0
VERTEX
8
Halfen
62
7
10
 562.5
20
 69.277
30
0
0
VERTEX
8
Halfen
62
7
10
 561.141
20
 69.307
30
0
0
VERTEX
8
Halfen
62
7
10
 559.784
20
 69.397
30
0
0
VERTEX
8
Halfen
62
7
10
 558.433
20
 69.547
30
0
0
VERTEX
8
Halfen
62
7
10
 557.089
20
 69.756
30
0
0
VERTEX
8
Halfen
62
7
10
 555.757
20
 70.024
30
0
0
VERTEX
8
Halfen
62
7
10
 554.437
20
 70.351
30
0
0
VERTEX
8
Halfen
62
7
10
 553.133
20
 70.736
30
0
0
VERTEX
8
Halfen
62
7
10
 551.847
20
 71.178
30
0
0
VERTEX
8
Halfen
62
7
10
 550.582
20
 71.676
30
0
0
VERTEX
8
Halfen
62
7
10
 549.34
20
 72.23
30
0
0
VERTEX
8
Halfen
62
7
10
 548.124
20
 72.838
30
0
0
VERTEX
8
Halfen
62
7
10
 546.936
20
 73.499
30
0
0
VERTEX
8
Halfen
62
7
10
 545.778
20
 74.211
30
0
0
VERTEX
8
Halfen
62
7
10
 544.653
20
 74.975
30
0
0
VERTEX
8
Halfen
62
7
10
 543.563
20
 75.787
30
0
0
VERTEX
8
Halfen
62
7
10
 542.509
20
 76.646
30
0
0
VERTEX
8
Halfen
62
7
10
 541.495
20
 77.551
30
0
0
VERTEX
8
Halfen
62
7
10
 540.521
20
 78.5
30
0
0
VERTEX
8
Halfen
62
7
10
 539.59
20
 79.491
30
0
0
VERTEX
8
Halfen
62
7
10
 538.704
20
 80.522
30
0
0
VERTEX
8
Halfen
62
7
10
 538.603
20
 80.639
30
0
0
VERTEX
8
Halfen
62
7
10
 538.498
20
 80.752
30
0
0
VERTEX
8
Halfen
62
7
10
 538.387
20
 80.86
30
0
0
VERTEX
8
Halfen
62
7
10
 538.272
20
 80.963
30
0
0
VERTEX
8
Halfen
62
7
10
 538.152
20
 81.06
30
0
0
VERTEX
8
Halfen
62
7
10
 538.028
20
 81.153
30
0
0
VERTEX
8
Halfen
62
7
10
 537.9
20
 81.239
30
0
0
VERTEX
8
Halfen
62
7
10
 537.769
20
 81.32
30
0
0
VERTEX
8
Halfen
62
7
10
 537.634
20
 81.395
30
0
0
VERTEX
8
Halfen
62
7
10
 537.495
20
 81.464
30
0
0
VERTEX
8
Halfen
62
7
10
 537.354
20
 81.527
30
0
0
VERTEX
8
Halfen
62
7
10
 537.211
20
 81.584
30
0
0
VERTEX
8
Halfen
62
7
10
 537.064
20
 81.634
30
0
0
VERTEX
8
Halfen
62
7
10
 536.916
20
 81.678
30
0
0
VERTEX
8
Halfen
62
7
10
 536.766
20
 81.715
30
0
0
VERTEX
8
Halfen
62
7
10
 536.615
20
 81.746
30
0
0
VERTEX
8
Halfen
62
7
10
 536.462
20
 81.769
30
0
0
VERTEX
8
Halfen
62
7
10
 536.309
20
 81.786
30
0
0
VERTEX
8
Halfen
62
7
10
 536.154
20
 81.797
30
0
0
VERTEX
8
Halfen
62
7
10
 536
20
 81.8
30
0
0
VERTEX
8
Halfen
62
7
10
 532
20
 81.8
30
0
0
VERTEX
8
Halfen
62
7
10
 532
20
-81.8
30
0
0
VERTEX
8
Halfen
62
7
10
 536
20
-81.8
30
0
0
VERTEX
8
Halfen
62
7
10
 536.154
20
-81.797
30
0
0
VERTEX
8
Halfen
62
7
10
 536.309
20
-81.786
30
0
0
VERTEX
8
Halfen
62
7
10
 536.462
20
-81.769
30
0
0
VERTEX
8
Halfen
62
7
10
 536.615
20
-81.746
30
0
0
VERTEX
8
Halfen
62
7
10
 536.766
20
-81.715
30
0
0
VERTEX
8
Halfen
62
7
10
 536.916
20
-81.678
30
0
0
VERTEX
8
Halfen
62
7
10
 537.064
20
-81.634
30
0
0
VERTEX
8
Halfen
62
7
10
 537.211
20
-81.584
30
0
0
VERTEX
8
Halfen
62
7
10
 537.354
20
-81.527
30
0
0
VERTEX
8
Halfen
62
7
10
 537.495
20
-81.464
30
0
0
VERTEX
8
Halfen
62
7
10
 537.634
20
-81.395
30
0
0
VERTEX
8
Halfen
62
7
10
 537.769
20
-81.32
30
0
0
VERTEX
8
Halfen
62
7
10
 537.9
20
-81.239
30
0
0
VERTEX
8
Halfen
62
7
10
 538.028
20
-81.153
30
0
0
VERTEX
8
Halfen
62
7
10
 538.152
20
-81.06
30
0
0
VERTEX
8
Halfen
62
7
10
 538.272
20
-80.963
30
0
0
VERTEX
8
Halfen
62
7
10
 538.387
20
-80.86
30
0
0
VERTEX
8
Halfen
62
7
10
 538.498
20
-80.752
30
0
0
VERTEX
8
Halfen
62
7
10
 538.603
20
-80.639
30
0
0
VERTEX
8
Halfen
62
7
10
 538.704
20
-80.522
30
0
0
VERTEX
8
Halfen
62
7
10
 539.59
20
-79.491
30
0
0
VERTEX
8
Halfen
62
7
10
 540.521
20
-78.5
30
0
0
VERTEX
8
Halfen
62
7
10
 541.495
20
-77.551
30
0
0
VERTEX
8
Halfen
62
7
10
 542.509
20
-76.646
30
0
0
VERTEX
8
Halfen
62
7
10
 543.563
20
-75.787
30
0
0
VERTEX
8
Halfen
62
7
10
 544.653
20
-74.975
30
0
0
VERTEX
8
Halfen
62
7
10
 545.778
20
-74.211
30
0
0
VERTEX
8
Halfen
62
7
10
 546.936
20
-73.499
30
0
0
VERTEX
8
Halfen
62
7
10
 548.124
20
-72.838
30
0
0
VERTEX
8
Halfen
62
7
10
 549.34
20
-72.23
30
0
0
VERTEX
8
Halfen
62
7
10
 550.582
20
-71.676
30
0
0
VERTEX
8
Halfen
62
7
10
 551.847
20
-71.178
30
0
0
VERTEX
8
Halfen
62
7
10
 553.133
20
-70.736
30
0
0
VERTEX
8
Halfen
62
7
10
 554.437
20
-70.351
30
0
0
VERTEX
8
Halfen
62
7
10
 555.757
20
-70.024
30
0
0
VERTEX
8
Halfen
62
7
10
 557.089
20
-69.756
30
0
0
VERTEX
8
Halfen
62
7
10
 558.433
20
-69.547
30
0
0
VERTEX
8
Halfen
62
7
10
 559.784
20
-69.397
30
0
0
VERTEX
8
Halfen
62
7
10
 561.141
20
-69.307
30
0
0
VERTEX
8
Halfen
62
7
10
 562.5
20
-69.277
30
0
0
VERTEX
8
Halfen
62
7
10
 584.5
20
-69.277
30
0
0
VERTEX
8
Halfen
62
7
10
 585.859
20
-69.307
30
0
0
VERTEX
8
Halfen
62
7
10
 587.216
20
-69.397
30
0
0
VERTEX
8
Halfen
62
7
10
 588.567
20
-69.547
30
0
0
VERTEX
8
Halfen
62
7
10
 589.911
20
-69.756
30
0
0
VERTEX
8
Halfen
62
7
10
 591.243
20
-70.024
30
0
0
VERTEX
8
Halfen
62
7
10
 592.563
20
-70.351
30
0
0
VERTEX
8
Halfen
62
7
10
 593.867
20
-70.736
30
0
0
VERTEX
8
Halfen
62
7
10
 595.153
20
-71.178
30
0
0
VERTEX
8
Halfen
62
7
10
 596.418
20
-71.676
30
0
0
VERTEX
8
Halfen
62
7
10
 597.66
20
-72.23
30
0
0
VERTEX
8
Halfen
62
7
10
 598.876
20
-72.838
30
0
0
VERTEX
8
Halfen
62
7
10
 600.064
20
-73.499
30
0
0
VERTEX
8
Halfen
62
7
10
 601.222
20
-74.211
30
0
0
VERTEX
8
Halfen
62
7
10
 602.347
20
-74.975
30
0
0
VERTEX
8
Halfen
62
7
10
 603.437
20
-75.787
30
0
0
VERTEX
8
Halfen
62
7
10
 604.491
20
-76.646
30
0
0
VERTEX
8
Halfen
62
7
10
 605.505
20
-77.551
30
0
0
VERTEX
8
Halfen
62
7
10
 606.479
20
-78.5
30
0
0
VERTEX
8
Halfen
62
7
10
 607.41
20
-79.491
30
0
0
VERTEX
8
Halfen
62
7
10
 608.296
20
-80.522
30
0
0
VERTEX
8
Halfen
62
7
10
 608.397
20
-80.639
30
0
0
VERTEX
8
Halfen
62
7
10
 608.502
20
-80.752
30
0
0
VERTEX
8
Halfen
62
7
10
 608.613
20
-80.86
30
0
0
VERTEX
8
Halfen
62
7
10
 608.728
20
-80.963
30
0
0
VERTEX
8
Halfen
62
7
10
 608.848
20
-81.06
30
0
0
VERTEX
8
Halfen
62
7
10
 608.972
20
-81.153
30
0
0
VERTEX
8
Halfen
62
7
10
 609.1
20
-81.239
30
0
0
VERTEX
8
Halfen
62
7
10
 609.231
20
-81.32
30
0
0
VERTEX
8
Halfen
62
7
10
 609.366
20
-81.395
30
0
0
VERTEX
8
Halfen
62
7
10
 609.505
20
-81.464
30
0
0
VERTEX
8
Halfen
62
7
10
 609.646
20
-81.527
30
0
0
VERTEX
8
Halfen
62
7
10
 609.789
20
-81.584
30
0
0
VERTEX
8
Halfen
62
7
10
 609.936
20
-81.634
30
0
0
VERTEX
8
Halfen
62
7
10
 610.084
20
-81.678
30
0
0
VERTEX
8
Halfen
62
7
10
 610.234
20
-81.715
30
0
0
VERTEX
8
Halfen
62
7
10
 610.385
20
-81.746
30
0
0
VERTEX
8
Halfen
62
7
10
 610.538
20
-81.769
30
0
0
VERTEX
8
Halfen
62
7
10
 610.691
20
-81.786
30
0
0
VERTEX
8
Halfen
62
7
10
 610.846
20
-81.797
30
0
0
VERTEX
8
Halfen
62
7
10
 611
20
-81.8
30
0
0
SEQEND
8
Halfen
0
POLYLINE
8
Halfen
62
7
66
1
10
0.0
20
0.0
30
0.0
70
1
0
VERTEX
8
Halfen
62
7
10
 600
20
-456.927
30
0
0
VERTEX
8
Halfen
62
7
10
 600
20
-79.715
30
0
0
VERTEX
8
Halfen
62
7
10
 599.766
20
-76.375
30
0
0
VERTEX
8
Halfen
62
7
10
 599.07
20
-73.1
30
0
0
VERTEX
8
Halfen
62
7
10
 597.925
20
-69.953
30
0
0
VERTEX
8
Halfen
62
7
10
 596.353
20
-66.997
30
0
0
VERTEX
8
Halfen
62
7
10
 508.735
20
 73.221
30
0
0
VERTEX
8
Halfen
62
7
10
 507.556
20
 75.438
30
0
0
VERTEX
8
Halfen
62
7
10
 506.697
20
 77.798
30
0
0
VERTEX
8
Halfen
62
7
10
 506.175
20
 80.255
30
0
0
VERTEX
8
Halfen
62
7
10
 506
20
 82.76
30
0
0
VERTEX
8
Halfen
62
7
10
 506
20
 190.971
30
0
0
VERTEX
8
Halfen
62
7
10
 506.222
20
 193.787
30
0
0
VERTEX
8
Halfen
62
7
10
 506.881
20
 196.534
30
0
0
VERTEX
8
Halfen
62
7
10
 507.962
20
 199.143
30
0
0
VERTEX
8
Halfen
62
7
10
 509.438
20
 201.551
30
0
0
VERTEX
8
Halfen
62
7
10
 511.272
20
 203.699
30
0
0
VERTEX
8
Halfen
62
7
10
 513.42
20
 205.534
30
0
0
VERTEX
8
Halfen
62
7
10
 515.828
20
 207.009
30
0
0
VERTEX
8
Halfen
62
7
10
 518.438
20
 208.09
30
0
0
VERTEX
8
Halfen
62
7
10
 521.184
20
 208.75
30
0
0
VERTEX
8
Halfen
62
7
10
 524
20
 208.971
30
0
0
VERTEX
8
Halfen
62
7
10
 595
20
 208.971
30
0
0
VERTEX
8
Halfen
62
7
10
 595
20
 214.971
30
0
0
VERTEX
8
Halfen
62
7
10
 524
20
 214.971
30
0
0
VERTEX
8
Halfen
62
7
10
 520.246
20
 214.676
30
0
0
VERTEX
8
Halfen
62
7
10
 516.584
20
 213.797
30
0
0
VERTEX
8
Halfen
62
7
10
 513.104
20
 212.355
30
0
0
VERTEX
8
Halfen
62
7
10
 509.893
20
 210.388
30
0
0
VERTEX
8
Halfen
62
7
10
 507.029
20
 207.942
30
0
0
VERTEX
8
Halfen
62
7
10
 504.584
20
 205.078
30
0
0
VERTEX
8
Halfen
62
7
10
 502.616
20
 201.867
30
0
0
VERTEX
8
Halfen
62
7
10
 501.175
20
 198.388
30
0
0
VERTEX
8
Halfen
62
7
10
 500.295
20
 194.726
30
0
0
VERTEX
8
Halfen
62
7
10
 500
20
 190.971
30
0
0
VERTEX
8
Halfen
62
7
10
 500
20
 82.76
30
0
0
VERTEX
8
Halfen
62
7
10
 500.234
20
 79.419
30
0
0
VERTEX
8
Halfen
62
7
10
 500.93
20
 76.144
30
0
0
VERTEX
8
Halfen
62
7
10
 502.075
20
 72.998
30
0
0
VERTEX
8
Halfen
62
7
10
 503.647
20
 70.042
30
0
0
VERTEX
8
Halfen
62
7
10
 591.265
20
-70.177
30
0
0
VERTEX
8
Halfen
62
7
10
 592.444
20
-72.394
30
0
0
VERTEX
8
Halfen
62
7
10
 593.303
20
-74.754
30
0
0
VERTEX
8
Halfen
62
7
10
 593.825
20
-77.21
30
0
0
VERTEX
8
Halfen
62
7
10
 594
20
-79.715
30
0
0
VERTEX
8
Halfen
62
7
10
 594
20
-456.927
30
0
0
SEQEND
8
Halfen
0
POLYLINE
8
Halfen
62
7
66
1
10
0.0
20
0.0
30
0.0
70
1
0
VERTEX
8
Halfen
62
7
10
 500
20
-456.898
30
0
0
VERTEX
8
Halfen
62
7
10
 500
20
-79.686
30
0
0
VERTEX
8
Halfen
62
7
10
 500.234
20
-76.346
30
0
0
VERTEX
8
Halfen
62
7
10
 500.93
20
-73.071
30
0
0
VERTEX
8
Halfen
62
7
10
 502.075
20
-69.925
30
0
0
VERTEX
8
Halfen
62
7
10
 503.647
20
-66.968
30
0
0
VERTEX
8
Halfen
62
7
10
 591.265
20
 73.25
30
0
0
VERTEX
8
Halfen
62
7
10
 592.444
20
 75.467
30
0
0
VERTEX
8
Halfen
62
7
10
 593.303
20
 77.827
30
0
0
VERTEX
8
Halfen
62
7
10
 593.825
20
 80.283
30
0
0
VERTEX
8
Halfen
62
7
10
 594
20
 82.788
30
0
0
VERTEX
8
Halfen
62
7
10
 594
20
 191
30
0
0
VERTEX
8
Halfen
62
7
10
 593.778
20
 193.816
30
0
0
VERTEX
8
Halfen
62
7
10
 593.119
20
 196.562
30
0
0
VERTEX
8
Halfen
62
7
10
 592.038
20
 199.172
30
0
0
VERTEX
8
Halfen
62
7
10
 590.562
20
 201.58
30
0
0
VERTEX
8
Halfen
62
7
10
 588.728
20
 203.728
30
0
0
VERTEX
8
Halfen
62
7
10
 586.58
20
 205.562
30
0
0
VERTEX
8
Halfen
62
7
10
 584.172
20
 207.038
30
0
0
VERTEX
8
Halfen
62
7
10
 581.562
20
 208.119
30
0
0
VERTEX
8
Halfen
62
7
10
 578.816
20
 208.778
30
0
0
VERTEX
8
Halfen
62
7
10
 576
20
 209
30
0
0
VERTEX
8
Halfen
62
7
10
 505
20
 209
30
0
0
VERTEX
8
Halfen
62
7
10
 505
20
 215
30
0
0
VERTEX
8
Halfen
62
7
10
 576
20
 215
30
0
0
VERTEX
8
Halfen
62
7
10
 579.754
20
 214.705
30
0
0
VERTEX
8
Halfen
62
7
10
 583.416
20
 213.825
30
0
0
VERTEX
8
Halfen
62
7
10
 586.896
20
 212.384
30
0
0
VERTEX
8
Halfen
62
7
10
 590.107
20
 210.416
30
0
0
VERTEX
8
Halfen
62
7
10
 592.971
20
 207.971
30
0
0
VERTEX
8
Halfen
62
7
10
 595.416
20
 205.107
30
0
0
VERTEX
8
Halfen
62
7
10
 597.384
20
 201.896
30
0
0
VERTEX
8
Halfen
62
7
10
 598.825
20
 198.416
30
0
0
VERTEX
8
Halfen
62
7
10
 599.705
20
 194.754
30
0
0
VERTEX
8
Halfen
62
7
10
 600
20
 191
30
0
0
VERTEX
8
Halfen
62
7
10
 600
20
 82.788
30
0
0
VERTEX
8
Halfen
62
7
10
 599.766
20
 79.448
30
0
0
VERTEX
8
Halfen
62
7
10
 599.07
20
 76.173
30
0
0
VERTEX
8
Halfen
62
7
10
 597.925
20
 73.027
30
0
0
VERTEX
8
Halfen
62
7
10
 596.353
20
 70.07
30
0
0
VERTEX
8
Halfen
62
7
10
 508.735
20
-70.148
30
0
0
VERTEX
8
Halfen
62
7
10
 507.556
20
-72.365
30
0
0
VERTEX
8
Halfen
62
7
10
 506.697
20
-74.725
30
0
0
VERTEX
8
Halfen
62
7
10
 506.175
20
-77.181
30
0
0
VERTEX
8
Halfen
62
7
10
 506
20
-79.686
30
0
0
VERTEX
8
Halfen
62
7
10
 506
20
-456.898
30
0
0
SEQEND
8
Halfen
0
ENDSEC
0
EOF
