  0
SECTION
  2
HEADER
  9
$ACADVER
  1
AC1032
  9
$ACADMAINTVER
 90
4
  9
$DWGCODEPAGE
  3
ANSI_1252
  9
$LASTSAVEDBY
  1
ezdxf
  9
$REQUIREDVERSIONS
160
0
  9
$INSBASE
 10
0.0
 20
0.0
 30
0.0
  9
$EXTMIN
 10
1e+20
 20
1e+20
 30
1e+20
  9
$EXTMAX
 10
-1e+20
 20
-1e+20
 30
-1e+20
  9
$LIMMIN
 10
0.0
 20
0.0
  9
$LIMMAX
 10
420.0
 20
297.0
  9
$ORTHOMODE
 70
0
  9
$REGENMODE
 70
1
  9
$FILLMODE
 70
1
  9
$QTEXTMODE
 70
0
  9
$MIRRTEXT
 70
1
  9
$LTSCALE
 40
1.0
  9
$ATTMODE
 70
1
  9
$TEXTSIZE
 40
2.5
  9
$TRACEWID
 40
1.0
  9
$TEXTSTYLE
  7
Standard
  9
$CLAYER
  8
0
  9
$CELTYPE
  6
ByLayer
  9
$CECOLOR
 62
256
  9
$CELTSCALE
 40
1.0
  9
$DISPSILH
 70
0
  9
$DIMSCALE
 40
1.0
  9
$DIMASZ
 40
2.5
  9
$DIMEXO
 40
0.625
  9
$DIMDLI
 40
3.75
  9
$DIMRND
 40
0.0
  9
$DIMDLE
 40
0.0
  9
$DIMEXE
 40
1.25
  9
$DIMTP
 40
0.0
  9
$DIMTM
 40
0.0
  9
$DIMTXT
 40
2.5
  9
$DIMCEN
 40
2.5
  9
$DIMTSZ
 40
0.0
  9
$DIMTOL
 70
0
  9
$DIMLIM
 70
0
  9
$DIMTIH
 70
0
  9
$DIMTOH
 70
0
  9
$DIMSE1
 70
0
  9
$DIMSE2
 70
0
  9
$DIMTAD
 70
1
  9
$DIMZIN
 70
8
  9
$DIMBLK
  1

  9
$DIMASO
 70
1
  9
$DIMSHO
 70
1
  9
$DIMPOST
  1

  9
$DIMAPOST
  1

  9
$DIMALT
 70
0
  9
$DIMALTD
 70
3
  9
$DIMALTF
 40
0.03937007874
  9
$DIMLFAC
 40
1.0
  9
$DIMTOFL
 70
1
  9
$DIMTVP
 40
0.0
  9
$DIMTIX
 70
0
  9
$DIMSOXD
 70
0
  9
$DIMSAH
 70
0
  9
$DIMBLK1
  1

  9
$DIMBLK2
  1

  9
$DIMSTYLE
  2
ISO-25
  9
$DIMCLRD
 70
0
  9
$DIMCLRE
 70
0
  9
$DIMCLRT
 70
0
  9
$DIMTFAC
 40
1.0
  9
$DIMGAP
 40
0.625
  9
$DIMJUST
 70
0
  9
$DIMSD1
 70
0
  9
$DIMSD2
 70
0
  9
$DIMTOLJ
 70
0
  9
$DIMTZIN
 70
8
  9
$DIMALTZ
 70
0
  9
$DIMALTTZ
 70
0
  9
$DIMUPT
 70
0
  9
$DIMDEC
 70
2
  9
$DIMTDEC
 70
2
  9
$DIMALTU
 70
2
  9
$DIMALTTD
 70
3
  9
$DIMTXSTY
  7
Standard
  9
$DIMAUNIT
 70
0
  9
$DIMADEC
 70
0
  9
$DIMALTRND
 40
0.0
  9
$DIMAZIN
 70
0
  9
$DIMDSEP
 70
44
  9
$DIMATFIT
 70
3
  9
$DIMFRAC
 70
0
  9
$DIMLDRBLK
  1

  9
$DIMLUNIT
 70
2
  9
$DIMLWD
 70
-2
  9
$DIMLWE
 70
-2
  9
$DIMTMOVE
 70
0
  9
$DIMFXL
 40
1.0
  9
$DIMFXLON
 70
0
  9
$DIMJOGANG
 40
0.785398163397
  9
$DIMTFILL
 70
0
  9
$DIMTFILLCLR
 70
0
  9
$DIMARCSYM
 70
0
  9
$DIMLTYPE
  6

  9
$DIMLTEX1
  6

  9
$DIMLTEX2
  6

  9
$DIMTXTDIRECTION
 70
0
  9
$LUNITS
 70
2
  9
$LUPREC
 70
4
  9
$SKETCHINC
 40
1.0
  9
$FILLETRAD
 40
10.0
  9
$AUNITS
 70
0
  9
$AUPREC
 70
2
  9
$MENU
  1
.
  9
$ELEVATION
 40
0.0
  9
$PELEVATION
 40
0.0
  9
$THICKNESS
 40
0.0
  9
$LIMCHECK
 70
0
  9
$CHAMFERA
 40
0.0
  9
$CHAMFERB
 40
0.0
  9
$CHAMFERC
 40
0.0
  9
$CHAMFERD
 40
0.0
  9
$SKPOLY
 70
0
  9
$TDCREATE
 40
2461085.245983796
  9
$TDUCREATE
 40
2458532.153996898
  9
$TDUPDATE
 40
2461085.245983796
  9
$TDUUPDATE
 40
2458532.1544311
  9
$TDINDWG
 40
0.0
  9
$TDUSRTIMER
 40
0.0
  9
$USRTIMER
 70
1
  9
$ANGBASE
 50
0.0
  9
$ANGDIR
 70
0
  9
$PDMODE
 70
0
  9
$PDSIZE
 40
0.0
  9
$PLINEWID
 40
0.0
  9
$SPLFRAME
 70
0
  9
$SPLINETYPE
 70
6
  9
$SPLINESEGS
 70
8
  9
$HANDSEED
  5
E0
  9
$SURFTAB1
 70
6
  9
$SURFTAB2
 70
6
  9
$SURFTYPE
 70
6
  9
$SURFU
 70
6
  9
$SURFV
 70
6
  9
$UCSBASE
  2

  9
$UCSNAME
  2

  9
$UCSORG
 10
0.0
 20
0.0
 30
0.0
  9
$UCSXDIR
 10
1.0
 20
0.0
 30
0.0
  9
$UCSYDIR
 10
0.0
 20
1.0
 30
0.0
  9
$UCSORTHOREF
  2

  9
$UCSORTHOVIEW
 70
0
  9
$UCSORGTOP
 10
0.0
 20
0.0
 30
0.0
  9
$UCSORGBOTTOM
 10
0.0
 20
0.0
 30
0.0
  9
$UCSORGLEFT
 10
0.0
 20
0.0
 30
0.0
  9
$UCSORGRIGHT
 10
0.0
 20
0.0
 30
0.0
  9
$UCSORGFRONT
 10
0.0
 20
0.0
 30
0.0
  9
$UCSORGBACK
 10
0.0
 20
0.0
 30
0.0
  9
$PUCSBASE
  2

  9
$PUCSNAME
  2

  9
$PUCSORG
 10
0.0
 20
0.0
 30
0.0
  9
$PUCSXDIR
 10
1.0
 20
0.0
 30
0.0
  9
$PUCSYDIR
 10
0.0
 20
1.0
 30
0.0
  9
$PUCSORTHOREF
  2

  9
$PUCSORTHOVIEW
 70
0
  9
$PUCSORGTOP
 10
0.0
 20
0.0
 30
0.0
  9
$PUCSORGBOTTOM
 10
0.0
 20
0.0
 30
0.0
  9
$PUCSORGLEFT
 10
0.0
 20
0.0
 30
0.0
  9
$PUCSORGRIGHT
 10
0.0
 20
0.0
 30
0.0
  9
$PUCSORGFRONT
 10
0.0
 20
0.0
 30
0.0
  9
$PUCSORGBACK
 10
0.0
 20
0.0
 30
0.0
  9
$USERI1
 70
0
  9
$USERI2
 70
0
  9
$USERI3
 70
0
  9
$USERI4
 70
0
  9
$USERI5
 70
0
  9
$USERR1
 40
0.0
  9
$USERR2
 40
0.0
  9
$USERR3
 40
0.0
  9
$USERR4
 40
0.0
  9
$USERR5
 40
0.0
  9
$WORLDVIEW
 70
1
  9
$SHADEDGE
 70
3
  9
$SHADEDIF
 70
70
  9
$TILEMODE
 70
1
  9
$MAXACTVP
 70
64
  9
$PINSBASE
 10
0.0
 20
0.0
 30
0.0
  9
$PLIMCHECK
 70
0
  9
$PEXTMIN
 10
1e+20
 20
1e+20
 30
1e+20
  9
$PEXTMAX
 10
-1e+20
 20
-1e+20
 30
-1e+20
  9
$PLIMMIN
 10
0.0
 20
0.0
  9
$PLIMMAX
 10
420.0
 20
297.0
  9
$UNITMODE
 70
0
  9
$VISRETAIN
 70
1
  9
$PLINEGEN
 70
0
  9
$PSLTSCALE
 70
1
  9
$TREEDEPTH
 70
3020
  9
$CMLSTYLE
  2
Standard
  9
$CMLJUST
 70
0
  9
$CMLSCALE
 40
20.0
  9
$PROXYGRAPHICS
 70
1
  9
$MEASUREMENT
 70
1
  9
$CELWEIGHT
370
-1
  9
$ENDCAPS
280
0
  9
$JOINSTYLE
280
0
  9
$LWDISPLAY
290
0
  9
$INSUNITS
 70
6
  9
$HYPERLINKBASE
  1

  9
$STYLESHEET
  1

  9
$XEDIT
290
1
  9
$CEPSNTYPE
380
0
  9
$PSTYLEMODE
290
1
  9
$FINGERPRINTGUID
  2
{474F17AE-5067-4C84-8F15-8994C41011A3}
  9
$VERSIONGUID
  2
{E206936B-AB82-45FC-BD39-B6ED2387548D}
  9
$EXTNAMES
290
1
  9
$PSVPSCALE
 40
0.0
  9
$OLESTARTUP
290
0
  9
$SORTENTS
280
127
  9
$INDEXCTL
280
0
  9
$HIDETEXT
280
1
  9
$XCLIPFRAME
280
1
  9
$HALOGAP
280
0
  9
$OBSCOLOR
 70
257
  9
$OBSLTYPE
280
0
  9
$INTERSECTIONDISPLAY
280
0
  9
$INTERSECTIONCOLOR
 70
257
  9
$DIMASSOC
280
2
  9
$PROJECTNAME
  1

  9
$CAMERADISPLAY
290
0
  9
$LENSLENGTH
 40
50.0
  9
$CAMERAHEIGHT
 40
0.0
  9
$STEPSPERSEC
 40
24.0
  9
$STEPSIZE
 40
100.0
  9
$3DDWFPREC
 40
2.0
  9
$PSOLWIDTH
 40
0.005
  9
$PSOLHEIGHT
 40
0.08
  9
$LOFTANG1
 40
1.570796326795
  9
$LOFTANG2
 40
1.570796326795
  9
$LOFTMAG1
 40
0.0
  9
$LOFTMAG2
 40
0.0
  9
$LOFTPARAM
 70
7
  9
$LOFTNORMALS
280
1
  9
$LATITUDE
 40
37.795
  9
$LONGITUDE
 40
-122.394
  9
$NORTHDIRECTION
 40
0.0
  9
$TIMEZONE
 70
-8000
  9
$LIGHTGLYPHDISPLAY
280
1
  9
$TILEMODELIGHTSYNCH
280
1
  9
$CMATERIAL
347
20
  9
$SOLIDHIST
280
0
  9
$SHOWHIST
280
1
  9
$DWFFRAME
280
2
  9
$DGNFRAME
280
2
  9
$REALWORLDSCALE
290
1
  9
$INTERFERECOLOR
 62
256
  9
$CSHADOW
280
0
  9
$SHADOWPLANELOCATION
 40
0.0
  0
ENDSEC
  0
SECTION
  2
CLASSES
  0
CLASS
  1
ACDBDICTIONARYWDFLT
  2
AcDbDictionaryWithDefault
  3
ObjectDBX Classes
 90
0
 91
0
280
0
281
0
  0
CLASS
  1
SUN
  2
AcDbSun
  3
SCENEOE
 90
1153
 91
0
280
0
281
0
  0
CLASS
  1
VISUALSTYLE
  2
AcDbVisualStyle
  3
ObjectDBX Classes
 90
4095
 91
0
280
0
281
0
  0
CLASS
  1
MATERIAL
  2
AcDbMaterial
  3
ObjectDBX Classes
 90
1153
 91
0
280
0
281
0
  0
CLASS
  1
SCALE
  2
AcDbScale
  3
ObjectDBX Classes
 90
1153
 91
0
280
0
281
0
  0
CLASS
  1
TABLESTYLE
  2
AcDbTableStyle
  3
ObjectDBX Classes
 90
4095
 91
0
280
0
281
0
  0
CLASS
  1
MLEADERSTYLE
  2
AcDbMLeaderStyle
  3
ACDB_MLEADERSTYLE_CLASS
 90
4095
 91
0
280
0
281
0
  0
CLASS
  1
DICTIONARYVAR
  2
AcDbDictionaryVar
  3
ObjectDBX Classes
 90
0
 91
0
280
0
281
0
  0
CLASS
  1
CELLSTYLEMAP
  2
AcDbCellStyleMap
  3
ObjectDBX Classes
 90
1152
 91
0
280
0
281
0
  0
CLASS
  1
MENTALRAYRENDERSETTINGS
  2
AcDbMentalRayRenderSettings
  3
SCENEOE
 90
1024
 91
0
280
0
281
0
  0
CLASS
  1
ACDBDETAILVIEWSTYLE
  2
AcDbDetailViewStyle
  3
ObjectDBX Classes
 90
1025
 91
0
280
0
281
0
  0
CLASS
  1
ACDBSECTIONVIEWSTYLE
  2
AcDbSectionViewStyle
  3
ObjectDBX Classes
 90
1025
 91
0
280
0
281
0
  0
CLASS
  1
RASTERVARIABLES
  2
AcDbRasterVariables
  3
ISM
 90
0
 91
0
280
0
281
0
  0
CLASS
  1
LAYOUT
  2
AcDbLayout
  3
ObjectDBX Classes
 90
0
 91
0
280
0
281
0
  0
CLASS
  1
ACDBPLACEHOLDER
  2
AcDbPlaceHolder
  3
ObjectDBX Classes
 90
0
 91
0
280
0
281
0
  0
ENDSEC
  0
SECTION
  2
TABLES
  0
TABLE
  2
VPORT
  5
8
330
0
100
AcDbSymbolTable
 70
1
  0
VPORT
  5
23
330
8
100
AcDbSymbolTableRecord
100
AcDbViewportTableRecord
  2
*Active
 70
0
 10
0.0
 20
0.0
 11
1.0
 21
1.0
 12
0.0
 22
0.0
 13
0.0
 23
0.0
 14
0.5
 24
0.5
 15
0.5
 25
0.5
 16
0.0
 26
0.0
 36
1.0
 17
0.0
 27
0.0
 37
0.0
 40
1000.0
 41
1.34
 42
50.0
 43
0.0
 44
0.0
 50
0.0
 51
0.0
 71
0
 72
1000
 73
1
 74
3
 75
0
 76
0
 77
0
 78
0
281
0
 65
0
146
0.0
  0
ENDTAB
  0
TABLE
  2
LTYPE
  5
2
330
0
100
AcDbSymbolTable
 70
3
  0
LTYPE
  5
24
330
2
100
AcDbSymbolTableRecord
100
AcDbLinetypeTableRecord
  2
ByBlock
 70
0
  3

 72
65
 73
0
 40
0.0
  0
LTYPE
  5
25
330
2
100
AcDbSymbolTableRecord
100
AcDbLinetypeTableRecord
  2
ByLayer
 70
0
  3

 72
65
 73
0
 40
0.0
  0
LTYPE
  5
26
330
2
100
AcDbSymbolTableRecord
100
AcDbLinetypeTableRecord
  2
Continuous
 70
0
  3

 72
65
 73
0
 40
0.0
  0
ENDTAB
  0
TABLE
  2
LAYER
  5
1
330
0
100
AcDbSymbolTable
 70
3
  0
LAYER
  5
27
330
1
100
AcDbSymbolTableRecord
100
AcDbLayerTableRecord
  2
0
 70
0
 62
7
  6
Continuous
370
-3
390
13
347
21
  0
LAYER
  5
28
330
1
100
AcDbSymbolTableRecord
100
AcDbLayerTableRecord
  2
Defpoints
 70
0
 62
7
  6
Continuous
290
0
370
-3
390
13
347
21
  0
LAYER
  5
DA
330
1
100
AcDbSymbolTableRecord
100
AcDbLayerTableRecord
  2
A-DETL-GENF
 70
0
 62
92
  6
Continuous
370
18
390
13
347
21
348
0
  0
ENDTAB
  0
TABLE
  2
STYLE
  5
5
330
0
100
AcDbSymbolTable
 70
1
  0
STYLE
  5
29
330
5
100
AcDbSymbolTableRecord
100
AcDbTextStyleTableRecord
  2
Standard
 70
0
 40
0.0
 41
1.0
 50
0.0
 71
0
 42
2.5
  3
txt
  4

  0
ENDTAB
  0
TABLE
  2
VIEW
  5
7
330
0
100
AcDbSymbolTable
 70
0
  0
ENDTAB
  0
TABLE
  2
UCS
  5
6
330
0
100
AcDbSymbolTable
 70
0
  0
ENDTAB
  0
TABLE
  2
APPID
  5
3
330
0
100
AcDbSymbolTable
 70
3
  0
APPID
  5
2A
330
3
100
AcDbSymbolTableRecord
100
AcDbRegAppTableRecord
  2
ACAD
 70
0
  0
APPID
  5
DD
330
3
100
AcDbSymbolTableRecord
100
AcDbRegAppTableRecord
  2
HATCHBACKGROUNDCOLOR
 70
0
  0
APPID
  5
DE
330
3
100
AcDbSymbolTableRecord
100
AcDbRegAppTableRecord
  2
EZDXF
 70
0
  0
ENDTAB
  0
TABLE
  2
DIMSTYLE
  5
4
330
0
100
AcDbSymbolTable
 70
1
100
AcDbDimStyleTable
  0
DIMSTYLE
105
2B
330
4
100
AcDbSymbolTableRecord
100
AcDbDimStyleTableRecord
  2
Standard
 70
0
 40
1.0
 41
2.5
 42
0.625
 43
3.75
 44
1.25
 45
0.0
 46
0.0
 47
0.0
 48
0.0
 49
2.5
140
2.5
141
2.5
142
0.0
143
0.03937007874
144
1.0
145
0.0
146
1.0
147
0.625
148
0.0
 69
0
 70
0
 71
0
 72
0
 73
0
 74
0
 75
0
 76
0
 77
1
 78
8
 79
3
170
0
171
3
172
1
173
0
174
0
175
0
176
0
177
0
178
0
179
2
271
2
272
2
273
2
274
3
275
0
276
0
277
2
278
44
279
0
280
0
281
0
282
0
283
0
284
8
285
0
286
0
288
0
289
3
290
0
371
-2
372
-2
  0
ENDTAB
  0
TABLE
  2
BLOCK_RECORD
  5
9
330
0
100
AcDbSymbolTable
 70
3
  0
BLOCK_RECORD
  5
17
330
9
100
AcDbSymbolTableRecord
100
AcDbBlockTableRecord
  2
*Model_Space
340
1A
 70
0
280
1
281
0
  0
BLOCK_RECORD
  5
1B
330
9
100
AcDbSymbolTableRecord
100
AcDbBlockTableRecord
  2
*Paper_Space
340
1E
 70
0
280
1
281
0
  0
BLOCK_RECORD
  5
2F
330
9
100
AcDbSymbolTableRecord
100
AcDbBlockTableRecord
  2
34 Bent plate detail item - Bent plate detail item-3345145-00_0 Basismaterialen
340
0
 70
0
280
1
281
0
  0
ENDTAB
  0
ENDSEC
  0
SECTION
  2
BLOCKS
  0
BLOCK
  5
18
330
17
100
AcDbEntity
  8
0
100
AcDbBlockBegin
  2
*Model_Space
 70
0
 10
0.0
 20
0.0
 30
0.0
  3
*Model_Space
  1

  0
ENDBLK
  5
19
330
17
100
AcDbEntity
  8
0
100
AcDbBlockEnd
  0
BLOCK
  5
1C
330
1B
100
AcDbEntity
  8
0
100
AcDbBlockBegin
  2
*Paper_Space
 70
0
 10
0.0
 20
0.0
 30
0.0
  3
*Paper_Space
  1

  0
ENDBLK
  5
1D
330
1B
100
AcDbEntity
  8
0
100
AcDbBlockEnd
  0
BLOCK
  5
30
330
2F
100
AcDbEntity
  8
0
100
AcDbBlockBegin
  2
34 Bent plate detail item - Bent plate detail item-3345145-00_0 Basismaterialen
 70
0
 10
0.0
 20
0.0
 30
0.0
  3
34 Bent plate detail item - Bent plate detail item-3345145-00_0 Basismaterialen
  1

  0
HATCH
  5
32
330
2F
100
AcDbEntity
  8
A-DETL-GENF
100
AcDbHatch
 10
0.0
 20
0.0
 30
0.0
210
0.0
220
0.0
230
1.0
  2
SOLID
 70
1
 71
0
 91
1
 92
1
 93
30
 72
1
 10
-75.00246454147648
 20
-3.55267048e-08
 11
8.955829193143243
 21
-4.3315e-12
 72
1
 10
8.955829193143243
 20
-4.3315e-12
 11
10.51953783953518
 21
0.2058661487928134
 72
1
 10
10.51953783953518
 20
0.2058661487928134
 11
11.97668232582531
 21
0.8094351573509868
 72
1
 10
11.97668232582531
 20
0.8094351573509868
 11
13.2279606633183
 21
1.76957479518258
 72
1
 10
13.2279606633183
 20
1.76957479518258
 11
14.18810030114989
 21
3.020853132675568
 72
1
 10
14.18810030114989
 20
3.020853132675568
 11
14.79166930971023
 21
4.477997618965702
 72
1
 10
14.79166930971023
 20
4.477997618965702
 11
14.99753545848572
 21
6.041706265353304
 72
1
 10
14.99753545848572
 20
6.041706265353304
 11
14.99753545850738
 21
393.9582936991179
 72
1
 10
14.99753545850738
 20
393.9582936991179
 11
14.79166930971023
 21
395.5220023455055
 72
1
 10
14.79166930971023
 20
395.5220023455055
 11
14.18810030114989
 21
396.9791468317956
 72
1
 10
14.18810030114989
 20
396.9791468317956
 11
13.2279606633183
 21
398.2304251692886
 72
1
 10
13.2279606633183
 20
398.2304251692886
 11
11.97668232582531
 21
399.1905648071202
 72
1
 10
11.97668232582531
 20
399.1905648071202
 11
10.51953783953518
 21
399.7941338156783
 72
1
 10
10.51953783953518
 20
399.7941338156783
 11
8.955829193143243
 21
399.9999999640597
 72
1
 10
8.955829193143243
 20
399.9999999640597
 11
-75.00246454147648
 21
399.9999999640597
 72
1
 10
-75.00246454147648
 20
399.9999999640597
 11
-75.00246454147648
 21
394.9999999644745
 72
1
 10
-75.00246454147648
 20
394.9999999644745
 11
9.225442614021247
 21
394.9645046842342
 72
1
 10
9.225442614021246
 20
394.9645046842342
 11
9.47668232582588
 21
394.8604377881986
 72
1
 10
9.47668232582588
 20
394.8604377881986
 11
9.692426757383704
 21
394.6948912633583
 72
1
 10
9.692426757383704
 20
394.6948912633583
 11
9.857973282230478
 21
394.4791468317983
 72
1
 10
9.857973282230478
 20
394.4791468317983
 11
9.962040178261702
 21
394.2279071199937
 72
1
 10
9.962040178261702
 20
394.2279071199937
 11
9.997535458504183
 21
393.9582936991179
 72
1
 10
9.997535458504183
 20
393.9582936991179
 11
9.962040178261702
 21
5.772092844477469
 72
1
 10
9.962040178261702
 20
5.772092844477469
 11
9.857973282230478
 21
5.520853132677166
 72
1
 10
9.857973282230478
 20
5.520853132677166
 11
9.692426757383704
 21
5.305108701117177
 72
1
 10
9.692426757383704
 20
5.305108701117177
 11
9.47668232582588
 21
5.139562176272568
 72
1
 10
9.47668232582588
 20
5.139562176272568
 11
9.225442614021246
 21
5.035495280237012
 72
1
 10
9.225442614021246
 20
5.035495280237012
 11
8.955829193143243
 21
4.999999964474324
 72
1
 10
8.955829193143243
 20
4.999999964474324
 11
-75.00246454147648
 21
4.999999964474324
 72
1
 10
-75.00246454147648
 20
4.999999964474324
 11
-75.00246454147648
 21
-3.55267051e-08
 97
0
 75
0
 76
1
 98
1
 10
0.0
 20
0.0
450
0
451
0
460
0.0
461
0.0
452
0
462
0.0
453
0
470

  0
HATCH
  5
33
330
2F
100
AcDbEntity
  8
A-DETL-GENF
100
AcDbHatch
 10
0.0
 20
0.0
 30
0.0
210
0.0
220
0.0
230
1.0
  2
SOLID
 70
1
 71
0
 91
1
 92
1
 93
4
 72
1
 10
-59.99702828747653
 20
412.0001592353964
 11
-59.99702828747653
 21
510.0001592353979
 72
1
 10
-59.99702828747653
 20
510.0001592353979
 11
-65.99702828747517
 21
510.0001592353979
 72
1
 10
-65.99702828747517
 20
510.0001592353979
 11
-65.99702828747517
 21
412.0001592353964
 72
1
 10
-65.99702828747517
 20
412.0001592353964
 11
-59.99702828747653
 21
412.0001592353964
 97
0
 75
0
 76
1
 98
1
 10
0.0
 20
0.0
450
0
451
0
460
0.0
461
0.0
452
0
462
0.0
453
0
470

  0
HATCH
  5
34
330
2F
100
AcDbEntity
  8
A-DETL-GENF
100
AcDbHatch
 10
0.0
 20
0.0
 30
0.0
210
0.0
220
0.0
230
1.0
  2
SOLID
 70
1
 71
0
 91
2
 92
1
 93
28
 72
1
 10
-53.99631112446826
 20
1380.000397654028
 11
-25.99631112447463
 21
1380.000397654028
 72
1
 10
-25.99631112447463
 20
1380.000397654028
 11
-24.44339685386051
 21
1380.204842696294
 72
1
 10
-24.44339685386051
 20
1380.204842696294
 11
-22.99631112447531
 21
1380.804245231322
 72
1
 10
-22.99631112447531
 20
1380.804245231322
 11
-21.75367043735398
 21
1381.757756966908
 72
1
 10
-21.75367043735398
 20
1381.757756966908
 11
-20.80015870177047
 21
1383.000397654027
 72
1
 10
-20.80015870177047
 20
1383.000397654027
 11
-20.20075616673986
 21
1384.447483383412
 72
1
 10
-20.20075616673986
 20
1384.447483383412
 11
-19.99631112447599
 21
1386.000397654026
 72
1
 10
-19.99631112447599
 20
1386.000397654026
 11
-19.99631112447599
 21
1414.000397654026
 72
1
 10
-19.99631112447599
 20
1414.000397654026
 11
-20.20075616673986
 21
1415.553311924641
 72
1
 10
-20.20075616673986
 20
1415.553311924641
 11
-20.80015870177047
 21
1417.000397654026
 72
1
 10
-20.80015870177047
 20
1417.000397654026
 11
-21.75367043735398
 21
1418.243038341145
 72
1
 10
-21.75367043735398
 20
1418.243038341145
 11
-22.99631112447531
 21
1419.196550076731
 72
1
 10
-22.99631112447531
 20
1419.196550076731
 11
-24.44339685386051
 21
1419.795952611761
 72
1
 10
-24.44339685386051
 20
1419.795952611761
 11
-25.99631112447463
 21
1420.000397654025
 72
1
 10
-25.99631112447463
 20
1420.000397654025
 11
-53.99631112446826
 21
1420.000397654025
 72
1
 10
-53.99631112446826
 20
1420.000397654025
 11
-55.54922539507805
 21
1419.795952611761
 72
1
 10
-55.54922539507805
 20
1419.795952611761
 11
-56.99631112446758
 21
1419.196550076731
 72
1
 10
-56.99631112446758
 20
1419.196550076731
 11
-58.23895181158459
 21
1418.243038341145
 72
1
 10
-58.23895181158459
 20
1418.243038341145
 11
-59.19246354717243
 21
1417.000397654026
 72
1
 10
-59.19246354717243
 20
1417.000397654026
 11
-59.79186608220303
 21
1415.553311924641
 72
1
 10
-59.79186608220303
 20
1415.553311924641
 11
-59.9963111244669
 21
1414.000397654026
 72
1
 10
-59.9963111244669
 20
1414.000397654026
 11
-59.9963111244669
 21
1386.000397654026
 72
1
 10
-59.9963111244669
 20
1386.000397654026
 11
-59.79186608219871
 21
1384.447483383412
 72
1
 10
-59.79186608219871
 20
1384.447483383412
 11
-59.19246354717243
 21
1383.000397654027
 72
1
 10
-59.19246354717243
 20
1383.000397654027
 11
-58.23895181158459
 21
1381.757756966908
 72
1
 10
-58.23895181158459
 20
1381.757756966908
 11
-56.99631112446758
 21
1380.804245231322
 72
1
 10
-56.99631112446758
 20
1380.804245231322
 11
-55.54922539507805
 21
1380.204842696294
 72
1
 10
-55.54922539507805
 20
1380.204842696294
 11
-53.99631112446826
 21
1380.000397654028
 97
0
 92
1
 93
28
 72
1
 10
-25.99631112447463
 20
1383.000397654027
 11
-53.99631112446826
 21
1383.000397654027
 72
1
 10
-53.99631112446826
 20
1383.000397654027
 11
-54.77276825977316
 21
1383.102620175161
 72
1
 10
-54.77276825977316
 20
1383.102620175161
 11
-55.49631112446792
 21
1383.402321442677
 72
1
 10
-55.49631112446792
 20
1383.402321442677
 11
-56.11763146802642
 21
1383.879077310468
 72
1
 10
-56.11763146802642
 20
1383.879077310468
 11
-56.59438733582251
 21
1384.500397654027
 72
1
 10
-56.59438733582251
 20
1384.500397654027
 11
-56.89408860333565
 21
1385.223940518719
 72
1
 10
-56.89408860333565
 20
1385.223940518719
 11
-56.99631112446758
 21
1386.000397654026
 72
1
 10
-56.99631112446758
 20
1386.000397654026
 11
-56.99631112446758
 21
1414.000397654026
 72
1
 10
-56.99631112446758
 20
1414.000397654026
 11
-56.89408860333565
 21
1414.776854789334
 72
1
 10
-56.89408860333565
 20
1414.776854789334
 11
-56.59438733582251
 21
1415.500397654026
 72
1
 10
-56.59438733582251
 20
1415.500397654026
 11
-56.11763146802642
 21
1416.121717997587
 72
1
 10
-56.11763146802642
 20
1416.121717997587
 11
-55.49631112446792
 21
1416.598473865381
 72
1
 10
-55.49631112446792
 20
1416.598473865381
 11
-54.77276825977316
 21
1416.898175132894
 72
1
 10
-54.77276825977316
 20
1416.898175132894
 11
-53.99631112446826
 21
1417.000397654026
 72
1
 10
-53.99631112446826
 20
1417.000397654026
 11
-25.99631112447463
 21
1417.000397654026
 72
1
 10
-25.99631112447463
 20
1417.000397654026
 11
-25.21985398916541
 21
1416.898175132894
 72
1
 10
-25.21985398916541
 20
1416.898175132894
 11
-24.49631112447497
 21
1416.598473865381
 72
1
 10
-24.49631112447497
 20
1416.598473865381
 11
-23.87499078091647
 21
1416.121717997587
 72
1
 10
-23.87499078091647
 20
1416.121717997587
 11
-23.39823491312039
 21
1415.500397654026
 72
1
 10
-23.39823491312039
 20
1415.500397654026
 11
-23.09853364560725
 21
1414.776854789334
 72
1
 10
-23.09853364560725
 20
1414.776854789334
 11
-22.99631112447531
 21
1414.000397654026
 72
1
 10
-22.99631112447531
 20
1414.000397654026
 11
-22.99631112447531
 21
1386.000397654026
 72
1
 10
-22.99631112447531
 20
1386.000397654026
 11
-23.09853364560725
 21
1385.223940518719
 72
1
 10
-23.09853364560725
 20
1385.223940518719
 11
-23.39823491312039
 21
1384.500397654027
 72
1
 10
-23.39823491312039
 20
1384.500397654027
 11
-23.87499078091647
 21
1383.879077310468
 72
1
 10
-23.87499078091647
 20
1383.879077310468
 11
-24.49631112447497
 21
1383.402321442677
 72
1
 10
-24.49631112447497
 20
1383.402321442677
 11
-25.21985398916541
 21
1383.102620175161
 72
1
 10
-25.21985398916541
 20
1383.102620175161
 11
-25.99631112447463
 21
1383.000397654027
 97
0
 75
0
 76
1
 98
1
 10
0.0
 20
0.0
450
0
451
0
460
0.0
461
0.0
452
0
462
0.0
453
0
470

  0
HATCH
  5
35
330
2F
100
AcDbEntity
  8
A-DETL-GENF
100
AcDbHatch
 10
0.0
 20
0.0
 30
0.0
210
0.0
220
0.0
230
1.0
  2
SOLID
 70
1
 71
0
 91
2
 92
1
 93
29
 72
1
 10
-53.99631112446826
 20
880.000397654016
 11
-25.99631112447463
 21
880.0003976540203
 72
1
 10
-25.99631112447463
 20
880.0003976540203
 11
-24.65086502703784
 21
880.1531953487342
 72
1
 10
-24.65086502703784
 20
880.1531953487342
 11
-23.37394595028786
 21
880.6038060543855
 72
1
 10
-23.37394595028786
 20
880.6038060543855
 11
-22.23059065797567
 21
881.329279011957
 72
1
 10
-22.23059065797567
 20
881.329279011957
 11
-21.27903316774519
 21
882.2926640229502
 72
1
 10
-21.27903316774519
 20
882.2926640229502
 11
-20.56773874322826
 21
883.4448934177586
 72
1
 10
-20.56773874322826
 20
883.4448934177586
 11
-20.13293543386274
 21
884.7272811979489
 72
1
 10
-20.13293543386274
 20
884.7272811979489
 11
-19.99676888742714
 21
886.0745120646739
 72
1
 10
-19.99676888742714
 20
886.0745120646739
 11
-19.99676888742714
 21
914.0745120646716
 72
1
 10
-19.99676888742714
 20
914.0745120646716
 11
-20.21704853538043
 21
915.6128876311317
 72
1
 10
-20.21704853538043
 20
915.6128876311317
 11
-20.82504004866005
 21
917.0430865077154
 72
1
 10
-20.82504004866005
 20
917.0430865077154
 11
-21.77995526093331
 21
918.2691613195236
 72
1
 10
-21.77995526093331
 20
918.2691613195236
 11
-23.01773202716882
 21
919.2088587089823
 72
1
 10
-23.01773202716882
 20
919.2088587089823
 11
-24.45533194385453
 21
919.7991374451173
 72
1
 10
-24.45533194385453
 20
919.7991374451173
 11
-25.99631112447463
 21
920.0003976540177
 72
1
 10
-25.99631112447463
 20
920.0003976540177
 11
-53.99631112446826
 21
920.0003976540135
 72
1
 10
-53.99631112446826
 20
920.0003976540135
 11
-55.54922539508239
 21
919.7959526117497
 72
1
 10
-55.54922539508239
 20
919.7959526117497
 11
-56.99631112446758
 21
919.1965500767233
 72
1
 10
-56.99631112446758
 20
919.1965500767233
 11
-58.23895181158459
 21
918.2430383411332
 72
1
 10
-58.23895181158459
 20
918.2430383411332
 11
-59.19246354717243
 21
917.0003976540143
 72
1
 10
-59.19246354717243
 20
917.0003976540143
 11
-59.79186608220303
 21
915.553311924631
 72
1
 10
-59.79186608220303
 20
915.553311924631
 11
-59.99676888743537
 21
914.0003976540148
 72
1
 10
-59.99676888743537
 20
914.0003976540148
 11
-59.9963111244669
 21
886.0003976540168
 72
1
 10
-59.9963111244669
 20
886.0003976540168
 11
-59.79186608220303
 21
884.4474833834006
 72
1
 10
-59.79186608220303
 20
884.4474833834006
 11
-59.19246354717243
 21
883.0003976540175
 72
1
 10
-59.19246354717243
 20
883.0003976540175
 11
-58.23895181158459
 21
881.7577569669005
 72
1
 10
-58.23895181158459
 20
881.7577569669005
 11
-56.99631112446758
 21
880.8042452313106
 72
1
 10
-56.99631112446758
 20
880.8042452313106
 11
-55.54922539508239
 21
880.2048426962821
 72
1
 10
-55.54922539508239
 20
880.2048426962821
 11
-53.99631112446826
 21
880.000397654016
 97
0
 92
1
 93
28
 72
1
 10
-25.99631112447463
 20
883.0003976540153
 11
-53.99631112446826
 21
883.0003976540175
 72
1
 10
-53.99631112446826
 20
883.0003976540175
 11
-54.77276825977316
 21
883.1026201751495
 72
1
 10
-54.77276825977316
 20
883.1026201751495
 11
-55.49631112446792
 21
883.4023214426647
 72
1
 10
-55.49631112446792
 20
883.4023214426647
 11
-56.11763146802642
 21
883.8790773104564
 72
1
 10
-56.11763146802642
 20
883.8790773104564
 11
-56.59438733582251
 21
884.5003976540171
 72
1
 10
-56.59438733582251
 20
884.5003976540171
 11
-56.89408860333565
 21
885.2239405187075
 72
1
 10
-56.89408860333565
 20
885.2239405187075
 11
-56.99631112446758
 21
886.0003976540168
 72
1
 10
-56.99631112446758
 20
886.0003976540168
 11
-56.99631112446758
 21
914.0003976540148
 72
1
 10
-56.99631112446758
 20
914.0003976540148
 11
-56.89408860333565
 21
914.7768547893262
 72
1
 10
-56.89408860333565
 20
914.7768547893262
 11
-56.59438733582251
 21
915.5003976540145
 72
1
 10
-56.59438733582251
 20
915.5003976540145
 11
-56.11763146802642
 21
916.1217179975752
 72
1
 10
-56.11763146802642
 20
916.1217179975752
 11
-55.49631112446792
 21
916.5984738653691
 72
1
 10
-55.49631112446792
 20
916.5984738653691
 11
-54.77276825977316
 21
916.8981751328821
 72
1
 10
-54.77276825977316
 20
916.8981751328821
 11
-53.99631112446826
 21
917.0003976540185
 72
1
 10
-53.99631112446826
 20
917.0003976540185
 11
-25.99631112447463
 21
917.0003976540143
 72
1
 10
-25.99631112447463
 20
917.0003976540143
 11
-25.21985398916541
 21
916.8981751328821
 72
1
 10
-25.21985398916541
 20
916.8981751328821
 11
-24.49631112447497
 21
916.5984738653691
 72
1
 10
-24.49631112447497
 20
916.5984738653691
 11
-23.87499078091647
 21
916.1217179975752
 72
1
 10
-23.87499078091647
 20
916.1217179975752
 11
-23.39823491312039
 21
915.5003976540145
 72
1
 10
-23.39823491312039
 20
915.5003976540145
 11
-23.09853364560725
 21
914.7768547893262
 72
1
 10
-23.09853364560725
 20
914.7768547893262
 11
-22.99631112447531
 21
914.0003976540148
 72
1
 10
-22.99631112447531
 20
914.0003976540148
 11
-22.99631112447531
 21
886.0003976540168
 72
1
 10
-22.99631112447531
 20
886.0003976540168
 11
-23.09853364560725
 21
885.2239405187075
 72
1
 10
-23.09853364560725
 20
885.2239405187075
 11
-23.39823491312039
 21
884.5003976540171
 72
1
 10
-23.39823491312039
 20
884.5003976540171
 11
-23.87499078091647
 21
883.8790773104564
 72
1
 10
-23.87499078091647
 20
883.8790773104564
 11
-24.49631112447497
 21
883.4023214426647
 72
1
 10
-24.49631112447497
 20
883.4023214426647
 11
-25.21985398916541
 21
883.1026201751495
 72
1
 10
-25.21985398916541
 20
883.1026201751495
 11
-25.99631112447463
 21
883.0003976540153
 97
0
 75
0
 76
1
 98
1
 10
0.0
 20
0.0
450
0
451
0
460
0.0
461
0.0
452
0
462
0.0
453
0
470

  0
LINE
  5
36
330
2F
100
AcDbEntity
  8
A-DETL-GENF
100
AcDbLine
 10
-75.0024645414597
 20
-3.55202076e-08
 30
0.0
 11
8.955829193160588
 21
-3.55202076e-08
 31
0.0
  0
ARC
  5
37
330
2F
100
AcDbEntity
  8
A-DETL-GENF
100
AcDbCircle
 10
8.955829193160588
 20
6.041706265359864
 30
0.0
 40
6.041706265359858
100
AcDbArc
 50
269.9999999999993
 51
359.9999999999992
  0
LINE
  5
38
330
2F
100
AcDbEntity
  8
A-DETL-GENF
100
AcDbLine
 10
14.9975354585025
 20
6.041706265359856
 30
0.0
 11
14.9975354585025
 21
393.95829369912
 31
0.0
  0
ARC
  5
39
330
2F
100
AcDbEntity
  8
A-DETL-GENF
100
AcDbCircle
 10
8.955829193161096
 20
393.95829369912
 30
0.0
 40
6.041706265359891
100
AcDbArc
 50
359.9999999999996
 51
89.99999999999987
  0
LINE
  5
3A
330
2F
100
AcDbEntity
  8
A-DETL-GENF
100
AcDbLine
 10
8.955829193161113
 20
399.9999999640619
 30
0.0
 11
-75.0024645414597
 21
399.9999999640619
 31
0.0
  0
LINE
  5
3B
330
2F
100
AcDbEntity
  8
A-DETL-GENF
100
AcDbLine
 10
-75.0024645414597
 20
399.9999999640619
 30
0.0
 11
-75.0024645414597
 21
394.9999999644798
 31
0.0
  0
LINE
  5
3C
330
2F
100
AcDbEntity
  8
A-DETL-GENF
100
AcDbLine
 10
-75.0024645414597
 20
394.9999999644798
 30
0.0
 11
8.955829193161113
 21
394.9999999644798
 31
0.0
  0
ARC
  5
3D
330
2F
100
AcDbEntity
  8
A-DETL-GENF
100
AcDbCircle
 10
8.955829193161096
 20
393.95829369912
 30
0.0
 40
1.041706265359882
100
AcDbArc
 50
2.6096e-12
 51
89.99999999999947
  0
LINE
  5
3E
330
2F
100
AcDbEntity
  8
A-DETL-GENF
100
AcDbLine
 10
9.997535458520966
 20
393.95829369912
 30
0.0
 11
9.997535458520966
 21
6.041706265359868
 31
0.0
  0
ARC
  5
3F
330
2F
100
AcDbEntity
  8
A-DETL-GENF
100
AcDbCircle
 10
8.955829193160588
 20
6.041706265359853
 30
0.0
 40
1.041706265359849
100
AcDbArc
 50
269.9999999999996
 51
9.033e-13
  0
LINE
  5
40
330
2F
100
AcDbEntity
  8
A-DETL-GENF
100
AcDbLine
 10
8.955829193160588
 20
4.999999964479738
 30
0.0
 11
-75.0024645414597
 21
4.999999964479738
 31
0.0
  0
LINE
  5
41
330
2F
100
AcDbEntity
  8
A-DETL-GENF
100
AcDbLine
 10
-75.0024645414597
 20
4.999999964479738
 30
0.0
 11
-75.0024645414597
 21
-3.55202076e-08
 31
0.0
  0
LINE
  5
42
330
2F
100
AcDbEntity
  8
A-DETL-GENF
100
AcDbLine
 10
-65.99702828745836
 20
510.0001592354001
 30
0.0
 11
-65.99702828745836
 21
412.0001592354012
 31
0.0
  0
LINE
  5
43
330
2F
100
AcDbEntity
  8
A-DETL-GENF
100
AcDbLine
 10
-65.99702828745836
 20
412.0001592354012
 30
0.0
 11
-59.99702828745975
 21
412.0001592354012
 31
0.0
  0
LINE
  5
44
330
2F
100
AcDbEntity
  8
A-DETL-GENF
100
AcDbLine
 10
-59.99702828745975
 20
412.0001592354012
 30
0.0
 11
-59.99702828745975
 21
510.0001592354001
 31
0.0
  0
LINE
  5
45
330
2F
100
AcDbEntity
  8
A-DETL-GENF
100
AcDbLine
 10
-59.99702828745975
 20
510.0001592354001
 30
0.0
 11
-65.99702828745836
 21
510.0001592354001
 31
0.0
  0
LINE
  5
46
330
2F
100
AcDbEntity
  8
A-DETL-GENF
100
AcDbLine
 10
-59.99631112445012
 20
1414.00039765403
 30
0.0
 11
-59.99631112445012
 21
1386.00039765403
 31
0.0
  0
ARC
  5
47
330
2F
100
AcDbEntity
  8
A-DETL-GENF
100
AcDbCircle
 10
-53.99631112445142
 20
1386.00039765403
 30
0.0
 40
5.999999999998714
100
AcDbArc
 50
179.9999999999999
 51
269.999999999999
  0
LINE
  5
48
330
2F
100
AcDbEntity
  8
A-DETL-GENF
100
AcDbLine
 10
-53.99631112445148
 20
1380.00039765403
 30
0.0
 11
-25.99631112445785
 21
1380.00039765403
 31
0.0
  0
ARC
  5
49
330
2F
100
AcDbEntity
  8
A-DETL-GENF
100
AcDbCircle
 10
-25.9963111244579
 20
1386.00039765403
 30
0.0
 40
5.999999999998624
100
AcDbArc
 50
269.9999999999999
 51
2.417e-13
  0
LINE
  5
4A
330
2F
100
AcDbEntity
  8
A-DETL-GENF
100
AcDbLine
 10
-19.99631112445921
 20
1386.00039765403
 30
0.0
 11
-19.99631112445921
 21
1414.00039765403
 31
0.0
  0
ARC
  5
4B
330
2F
100
AcDbEntity
  8
A-DETL-GENF
100
AcDbCircle
 10
-25.9963111244579
 20
1414.00039765403
 30
0.0
 40
5.999999999998678
100
AcDbArc
 50
359.9999999999996
 51
89.99999999999955
  0
LINE
  5
4C
330
2F
100
AcDbEntity
  8
A-DETL-GENF
100
AcDbLine
 10
-25.99631112445785
 20
1420.00039765403
 30
0.0
 11
-53.99631112445148
 21
1420.00039765403
 31
0.0
  0
ARC
  5
4D
330
2F
100
AcDbEntity
  8
A-DETL-GENF
100
AcDbCircle
 10
-53.99631112445143
 20
1414.00039765403
 30
0.0
 40
5.999999999998625
100
AcDbArc
 50
90.00000000000024
 51
180.0000000000002
  0
ARC
  5
4E
330
2F
100
AcDbEntity
  8
A-DETL-GENF
100
AcDbCircle
 10
-25.99631112445788
 20
1414.00039765403
 30
0.0
 40
2.999999999999346
100
AcDbArc
 50
359.9999999999996
 51
89.99999999999991
  0
LINE
  5
4F
330
2F
100
AcDbEntity
  8
A-DETL-GENF
100
AcDbLine
 10
-22.99631112445853
 20
1414.00039765403
 30
0.0
 11
-22.99631112445853
 21
1386.00039765403
 31
0.0
  0
ARC
  5
50
330
2F
100
AcDbEntity
  8
A-DETL-GENF
100
AcDbCircle
 10
-25.99631112445783
 20
1386.00039765403
 30
0.0
 40
2.999999999999299
100
AcDbArc
 50
269.9999999999997
 51
2.94e-14
  0
LINE
  5
51
330
2F
100
AcDbEntity
  8
A-DETL-GENF
100
AcDbLine
 10
-25.99631112445785
 20
1383.000397654029
 30
0.0
 11
-53.99631112445148
 21
1383.000397654029
 31
0.0
  0
ARC
  5
52
330
2F
100
AcDbEntity
  8
A-DETL-GENF
100
AcDbCircle
 10
-53.99631112445144
 20
1386.00039765403
 30
0.0
 40
2.999999999999364
100
AcDbArc
 50
179.9999999999997
 51
269.9999999999994
  0
LINE
  5
53
330
2F
100
AcDbEntity
  8
A-DETL-GENF
100
AcDbLine
 10
-56.9963111244508
 20
1386.00039765403
 30
0.0
 11
-56.9963111244508
 21
1414.00039765403
 31
0.0
  0
ARC
  5
54
330
2F
100
AcDbEntity
  8
A-DETL-GENF
100
AcDbCircle
 10
-53.99631112445149
 20
1414.00039765403
 30
0.0
 40
2.9999999999993
100
AcDbArc
 50
89.99999999999987
 51
180.0000000000001
  0
LINE
  5
55
330
2F
100
AcDbEntity
  8
A-DETL-GENF
100
AcDbLine
 10
-53.99631112445148
 20
1417.00039765403
 30
0.0
 11
-25.99631112445785
 21
1417.00039765403
 31
0.0
  0
LINE
  5
56
330
2F
100
AcDbEntity
  8
A-DETL-GENF
100
AcDbLine
 10
-59.99676888741886
 20
914.0003976540199
 30
0.0
 11
-59.99676888741886
 21
886.0003976540198
 31
0.0
  0
ARC
  5
57
330
2F
100
AcDbEntity
  8
A-DETL-GENF
100
AcDbCircle
 10
-53.99631112445177
 20
886.0003976540198
 30
0.0
 40
5.999999999998636
100
AcDbArc
 50
180.0
 51
269.9999999999999
  0
LINE
  5
58
330
2F
100
AcDbEntity
  8
A-DETL-GENF
100
AcDbLine
 10
-53.99631112445175
 20
880.00039765402
 30
0.0
 11
-25.99631112445812
 21
880.00039765402
 31
0.0
  0
ARC
  5
59
330
2F
100
AcDbEntity
  8
A-DETL-GENF
100
AcDbCircle
 10
-25.9963111244581
 20
886.0003976540198
 30
0.0
 40
5.99999999999864
100
AcDbArc
 50
269.9999999999995
 51
0.7077584879034966
  0
LINE
  5
5A
330
2F
100
AcDbEntity
  8
A-DETL-GENF
100
AcDbLine
 10
-19.99676888741063
 20
886.0745120646754
 30
0.0
 11
-19.99676888741063
 21
914.0745120646754
 31
0.0
  0
ARC
  5
5B
330
2F
100
AcDbEntity
  8
A-DETL-GENF
100
AcDbCircle
 10
-25.99631112445806
 20
914.0003976540199
 30
0.0
 40
5.999999999998574
100
AcDbArc
 50
0.7077584879036105
 51
90.00000000000058
  0
LINE
  5
5C
330
2F
100
AcDbEntity
  8
A-DETL-GENF
100
AcDbLine
 10
-25.99631112445812
 20
920.0003976540196
 30
0.0
 11
-53.99631112445175
 21
920.0003976540196
 31
0.0
  0
ARC
  5
5D
330
2F
100
AcDbEntity
  8
A-DETL-GENF
100
AcDbCircle
 10
-53.9963111244518
 20
914.0003976540199
 30
0.0
 40
5.999999999998645
100
AcDbArc
 50
89.99999999999976
 51
180.0000000000009
  0
ARC
  5
5E
330
2F
100
AcDbEntity
  8
A-DETL-GENF
100
AcDbCircle
 10
-25.99631112445816
 20
914.0003976540199
 30
0.0
 40
2.999999999999366
100
AcDbArc
 50
359.9999999999994
 51
89.99999999999982
  0
LINE
  5
5F
330
2F
100
AcDbEntity
  8
A-DETL-GENF
100
AcDbLine
 10
-22.9963111244588
 20
914.0003976540199
 30
0.0
 11
-22.9963111244588
 21
886.0003976540198
 31
0.0
  0
ARC
  5
60
330
2F
100
AcDbEntity
  8
A-DETL-GENF
100
AcDbCircle
 10
-25.99631112445813
 20
886.0003976540198
 30
0.0
 40
2.999999999999316
100
AcDbArc
 50
270.0000000000002
 51
3.18e-14
  0
LINE
  5
61
330
2F
100
AcDbEntity
  8
A-DETL-GENF
100
AcDbLine
 10
-25.99631112445812
 20
883.0003976540195
 30
0.0
 11
-53.99631112445175
 21
883.0003976540195
 31
0.0
  0
ARC
  5
62
330
2F
100
AcDbEntity
  8
A-DETL-GENF
100
AcDbCircle
 10
-53.99631112445179
 20
886.0003976540198
 30
0.0
 40
2.999999999999255
100
AcDbArc
 50
180.0000000000006
 51
270.0000000000002
  0
LINE
  5
63
330
2F
100
AcDbEntity
  8
A-DETL-GENF
100
AcDbLine
 10
-56.99631112445107
 20
886.0003976540198
 30
0.0
 11
-56.99631112445107
 21
914.0003976540199
 31
0.0
  0
ARC
  5
64
330
2F
100
AcDbEntity
  8
A-DETL-GENF
100
AcDbCircle
 10
-53.99631112445174
 20
914.0003976540199
 30
0.0
 40
2.999999999999314
100
AcDbArc
 50
90.00000000000047
 51
180.0000000000001
  0
LINE
  5
65
330
2F
100
AcDbEntity
  8
A-DETL-GENF
100
AcDbLine
 10
-53.99631112445175
 20
917.0003976540204
 30
0.0
 11
-25.99631112445812
 21
917.0003976540204
 31
0.0
  0
LINE
  5
66
330
2F
100
AcDbEntity
  8
A-DETL-GENF
100
AcDbLine
 10
-9.996311124461611
 20
399.9999999640619
 30
0.0
 11
-9.996311124461611
 21
420.0003976539993
 31
0.0
  0
LINE
  5
67
330
2F
100
AcDbEntity
  8
A-DETL-GENF
100
AcDbLine
 10
-9.996311124461611
 20
420.0003976539993
 30
0.0
 11
-59.99676888741872
 21
420.0003976539993
 31
0.0
  0
LINE
  5
68
330
2F
100
AcDbEntity
  8
A-DETL-GENF
100
AcDbLine
 10
-65.9970282874585
 20
420.0003976539993
 30
0.0
 11
-69.99631112444797
 21
420.0003976539993
 31
0.0
  0
LINE
  5
69
330
2F
100
AcDbEntity
  8
A-DETL-GENF
100
AcDbLine
 10
-69.99631112444797
 20
420.0003976539993
 30
0.0
 11
-69.99631112444797
 21
399.9999999640619
 31
0.0
  0
LINE
  5
6A
330
2F
100
AcDbEntity
  8
A-DETL-GENF
100
AcDbLine
 10
-69.99631112444797
 20
394.9999999644798
 30
0.0
 11
-69.99631112444797
 21
375.0003213600397
 31
0.0
  0
LINE
  5
6B
330
2F
100
AcDbEntity
  8
A-DETL-GENF
100
AcDbLine
 10
-69.99631112444797
 20
375.0003213600397
 30
0.0
 11
-9.996311124461611
 21
375.0003213600397
 31
0.0
  0
LINE
  5
6C
330
2F
100
AcDbEntity
  8
A-DETL-GENF
100
AcDbLine
 10
-9.996311124461611
 20
375.0003213600397
 30
0.0
 11
-9.996311124461611
 21
394.9999999644798
 31
0.0
  0
ARC
  5
6D
330
2F
100
AcDbEntity
  8
A-DETL-GENF
100
AcDbCircle
 10
-25.99631112445798
 20
914.0003976540191
 30
0.0
 40
5.999999999998638
100
AcDbArc
 50
0.7077584879036103
 51
90.0
  0
ARC
  5
6E
330
2F
100
AcDbEntity
  8
A-DETL-GENF
100
AcDbCircle
 10
-53.99631112445161
 20
914.0003976540191
 30
0.0
 40
5.999999999998635
100
AcDbArc
 50
90.0
 51
180.0
  0
LINE
  5
6F
330
2F
100
AcDbEntity
  8
A-DETL-GENF
100
AcDbLine
 10
-19.99676888741048
 20
420.0003976539993
 30
0.0
 11
-19.99676888741048
 21
1380.000198029872
 31
0.0
  0
LINE
  5
70
330
2F
100
AcDbEntity
  8
A-DETL-GENF
100
AcDbLine
 10
-19.99676888741048
 20
1380.000198029872
 30
0.0
 11
-25.99630585323405
 21
1380.000198029872
 31
0.0
  0
LINE
  5
71
330
2F
100
AcDbEntity
  8
A-DETL-GENF
100
AcDbLine
 10
-25.99631112445798
 20
920.0003976540189
 30
0.0
 11
-53.99631112445161
 21
920.0003976540189
 31
0.0
  0
LINE
  5
72
330
2F
100
AcDbEntity
  8
A-DETL-GENF
100
AcDbLine
 10
-53.99676888745474
 20
1380.000198029872
 30
0.0
 11
-59.99676888741872
 21
1380.000198029872
 31
0.0
  0
LINE
  5
73
330
2F
100
AcDbEntity
  8
A-DETL-GENF
100
AcDbLine
 10
-59.99676888741872
 20
1380.000198029872
 30
0.0
 11
-59.99676888741872
 21
914.0003976540191
 31
0.0
  0
LINE
  5
74
330
2F
100
AcDbEntity
  8
A-DETL-GENF
100
AcDbLine
 10
-59.99676888741872
 20
914.0003976540191
 30
0.0
 11
-59.99676888741872
 21
886.0003976540189
 31
0.0
  0
LINE
  5
75
330
2F
100
AcDbEntity
  8
A-DETL-GENF
100
AcDbLine
 10
-59.99676888741872
 20
886.0003976540189
 30
0.0
 11
-59.99676888741872
 21
420.0003976539993
 31
0.0
  0
LINE
  5
76
330
2F
100
AcDbEntity
  8
A-DETL-GENF
100
AcDbLine
 10
-32.1863821754255
 20
4.999999964479781
 30
0.0
 11
-32.1863821754255
 21
288.4366148690729
 31
0.0
  0
LINE
  5
77
330
2F
100
AcDbEntity
  8
A-DETL-GENF
100
AcDbLine
 10
-32.1863821754255
 20
288.4366148690729
 30
0.0
 11
-48.18638217543919
 21
288.4366148690729
 31
0.0
  0
LINE
  5
78
330
2F
100
AcDbEntity
  8
A-DETL-GENF
100
AcDbLine
 10
-48.18638217543919
 20
288.4366148690729
 30
0.0
 11
-48.18638217543919
 21
4.999999964479738
 31
0.0
  0
LINE
  5
79
330
2F
100
AcDbEntity
  8
A-DETL-GENF
100
AcDbLine
 10
-48.18638217543919
 20
-14.00000003551322
 30
0.0
 11
-48.18638217543919
 21
-54.0633851309287
 31
0.0
  0
LINE
  5
7A
330
2F
100
AcDbEntity
  8
A-DETL-GENF
100
AcDbLine
 10
-48.18638217543919
 20
-54.0633851309287
 30
0.0
 11
-40.18638217547566
 21
-54.0633851309287
 31
0.0
  0
LINE
  5
7B
330
2F
100
AcDbEntity
  8
A-DETL-GENF
100
AcDbLine
 10
-40.18638217547566
 20
-54.0633851309287
 30
0.0
 11
-32.1863821754255
 21
-54.0633851309287
 31
0.0
  0
LINE
  5
7C
330
2F
100
AcDbEntity
  8
A-DETL-GENF
100
AcDbLine
 10
-32.1863821754255
 20
-54.0633851309287
 30
0.0
 11
-32.1863821754255
 21
-14.00000003551322
 31
0.0
  0
LINE
  5
7D
330
2F
100
AcDbEntity
  8
A-DETL-GENF
100
AcDbLine
 10
-28.00323642542901
 20
-14.00000003551322
 30
0.0
 11
-28.00323642542901
 21
-26.00338512974761
 31
0.0
  0
LINE
  5
7E
330
2F
100
AcDbEntity
  8
A-DETL-GENF
100
AcDbLine
 10
-28.00323642542901
 20
-26.00338512974761
 30
0.0
 11
-40.0032364257728
 21
-26.00338512974761
 31
0.0
  0
LINE
  5
7F
330
2F
100
AcDbEntity
  8
A-DETL-GENF
100
AcDbLine
 10
-40.0032364257728
 20
-26.00338512974761
 30
0.0
 11
-52.0032364257874
 21
-26.00338512974761
 31
0.0
  0
LINE
  5
80
330
2F
100
AcDbEntity
  8
A-DETL-GENF
100
AcDbLine
 10
-52.0032364257874
 20
-26.00338512974761
 30
0.0
 11
-52.0032364257874
 21
-14.00000003551322
 31
0.0
  0
LINE
  5
81
330
2F
100
AcDbEntity
  8
A-DETL-GENF
100
AcDbLine
 10
-40.0032364257728
 20
-14.00000003551322
 30
0.0
 11
-40.0032364257728
 21
-26.00338512974761
 31
0.0
  0
LINE
  5
82
330
2F
100
AcDbEntity
  8
A-DETL-GENF
100
AcDbLine
 10
-52.0032364257874
 20
7.996614870251619
 30
0.0
 11
-52.0032364257874
 21
20.99661487025191
 31
0.0
  0
LINE
  5
83
330
2F
100
AcDbEntity
  8
A-DETL-GENF
100
AcDbLine
 10
-52.0032364257874
 20
20.99661487025191
 30
0.0
 11
-40.0032364257728
 21
20.99661487025191
 31
0.0
  0
LINE
  5
84
330
2F
100
AcDbEntity
  8
A-DETL-GENF
100
AcDbLine
 10
-40.0032364257728
 20
20.99661487025191
 30
0.0
 11
-28.00323642542901
 21
20.99661487025191
 31
0.0
  0
LINE
  5
85
330
2F
100
AcDbEntity
  8
A-DETL-GENF
100
AcDbLine
 10
-28.00323642542901
 20
20.99661487025191
 30
0.0
 11
-28.00323642542901
 21
7.996614870251619
 31
0.0
  0
LINE
  5
86
330
2F
100
AcDbEntity
  8
A-DETL-GENF
100
AcDbLine
 10
-28.00323642542901
 20
7.996614870251619
 30
0.0
 11
-40.0032364257728
 21
7.996614870251619
 31
0.0
  0
LINE
  5
87
330
2F
100
AcDbEntity
  8
A-DETL-GENF
100
AcDbLine
 10
-40.0032364257728
 20
7.996614870251619
 30
0.0
 11
-52.0032364257874
 21
7.996614870251619
 31
0.0
  0
LINE
  5
88
330
2F
100
AcDbEntity
  8
A-DETL-GENF
100
AcDbLine
 10
-40.0032364257728
 20
20.99661487025191
 30
0.0
 11
-40.0032364257728
 21
7.996614870251619
 31
0.0
  0
LINE
  5
89
330
2F
100
AcDbEntity
  8
A-DETL-GENF
100
AcDbLine
 10
-34.99483499678542
 20
335.7692773526675
 30
0.0
 11
-34.99483499678542
 21
334.0119180397246
 31
0.0
  0
LINE
  5
8A
330
2F
100
AcDbEntity
  8
A-DETL-GENF
100
AcDbLine
 10
-34.99483499678542
 20
334.0119180397246
 30
0.0
 11
-49.99323642542687
 21
334.0119180397246
 31
0.0
  0
LINE
  5
8B
330
2F
100
AcDbEntity
  8
A-DETL-GENF
100
AcDbLine
 10
-49.99323642542687
 20
334.0119180397246
 30
0.0
 11
-34.99483499678542
 21
334.0119180397246
 31
0.0
  0
LINE
  5
8C
330
2F
100
AcDbEntity
  8
A-DETL-GENF
100
AcDbLine
 10
-34.99483499744381
 20
334.0119180397246
 30
0.0
 11
-34.99483499744381
 21
335.7692773526675
 31
0.0
  0
LINE
  5
8D
330
2F
100
AcDbEntity
  8
A-DETL-GENF
100
AcDbLine
 10
-421.9948349982913
 20
332.1362736979023
 30
0.0
 11
-414.994834996543
 21
334.0119180387197
 31
0.0
  0
LINE
  5
8E
330
2F
100
AcDbEntity
  8
A-DETL-GENF
100
AcDbLine
 10
-74.9932364254212
 20
334.0119180387197
 30
0.0
 11
-414.994834996543
 21
334.0119180387197
 31
0.0
  0
LINE
  5
8F
330
2F
100
AcDbEntity
  8
A-DETL-GENF
100
AcDbLine
 10
-34.99483499650821
 20
340.0119180397882
 30
0.0
 11
-34.99483499650821
 21
335.7692773526675
 31
0.0
  0
LINE
  5
90
330
2F
100
AcDbEntity
  8
A-DETL-GENF
100
AcDbLine
 10
-34.99483499650821
 20
335.7692773526675
 30
0.0
 11
-34.99483499650821
 21
340.0119180397882
 31
0.0
  0
LINE
  5
91
330
2F
100
AcDbEntity
  8
A-DETL-GENF
100
AcDbLine
 10
-421.9948349982913
 20
332.1362736979023
 30
0.0
 11
-427.1191906506411
 21
327.0119180418643
 31
0.0
  0
LINE
  5
92
330
2F
100
AcDbEntity
  8
A-DETL-GENF
100
AcDbLine
 10
-34.99483499675078
 20
344.2545587269283
 30
0.0
 11
-34.99483499675078
 21
340.0119180397882
 31
0.0
  0
LINE
  5
93
330
2F
100
AcDbEntity
  8
A-DETL-GENF
100
AcDbLine
 10
-34.99483499675078
 20
340.0119180397882
 30
0.0
 11
-34.99483499675078
 21
344.2545587269283
 31
0.0
  0
LINE
  5
94
330
2F
100
AcDbEntity
  8
A-DETL-GENF
100
AcDbLine
 10
-427.1191906506411
 20
327.0119180418643
 30
0.0
 11
-428.9948350005768
 21
320.0119180311385
 31
0.0
  0
LINE
  5
95
330
2F
100
AcDbEntity
  8
A-DETL-GENF
100
AcDbLine
 10
-49.99323642542687
 20
346.0119180397987
 30
0.0
 11
-34.99483499742648
 21
346.0119180397987
 31
0.0
  0
LINE
  5
96
330
2F
100
AcDbEntity
  8
A-DETL-GENF
100
AcDbLine
 10
-34.99483499742648
 20
346.0119180397987
 30
0.0
 11
-34.99483499742648
 21
344.2545587269283
 31
0.0
  0
LINE
  5
97
330
2F
100
AcDbEntity
  8
A-DETL-GENF
100
AcDbLine
 10
-34.99483499742648
 20
344.2545587269283
 30
0.0
 11
-34.99483499742648
 21
346.0119180397987
 31
0.0
  0
LINE
  5
98
330
2F
100
AcDbEntity
  8
A-DETL-GENF
100
AcDbLine
 10
-34.99483499742648
 20
346.0119180397176
 30
0.0
 11
-49.99323642542687
 21
346.0119180397176
 31
0.0
  0
LINE
  5
99
330
2F
100
AcDbEntity
  8
A-DETL-GENF
100
AcDbLine
 10
-74.9932364254212
 20
346.0119180418064
 30
0.0
 11
-414.9948349860945
 21
346.0119180418064
 31
0.0
  0
LINE
  5
9A
330
2F
100
AcDbEntity
  8
A-DETL-GENF
100
AcDbLine
 10
-428.9948350005768
 20
280.011918009671
 30
0.0
 11
-428.9948350005768
 21
320.0119180311385
 31
0.0
  0
LINE
  5
9B
330
2F
100
AcDbEntity
  8
A-DETL-GENF
100
AcDbLine
 10
-414.9948349860945
 20
346.0119180418064
 30
0.0
 11
-427.9948349927268
 21
342.5285785446344
 31
0.0
  0
LINE
  5
9C
330
2F
100
AcDbEntity
  8
A-DETL-GENF
100
AcDbLine
 10
-440.9948350010418
 20
320.0119179998114
 30
0.0
 11
-440.9948350010418
 21
280.011918009671
 31
0.0
  0
LINE
  5
9D
330
2F
100
AcDbEntity
  8
A-DETL-GENF
100
AcDbLine
 10
-428.9948350005768
 20
280.011918009671
 30
0.0
 11
-440.9948350010418
 21
280.011918009671
 31
0.0
  0
LINE
  5
9E
330
2F
100
AcDbEntity
  8
A-DETL-GENF
100
AcDbLine
 10
-440.9948350010418
 20
320.0119179998114
 30
0.0
 11
-437.5114954962198
 21
333.0119180418962
 31
0.0
  0
LINE
  5
9F
330
2F
100
AcDbEntity
  8
A-DETL-GENF
100
AcDbLine
 10
-437.5114954962198
 20
333.0119180418962
 30
0.0
 11
-427.9948349927268
 21
342.5285785446344
 31
0.0
  0
LINE
  5
A0
330
2F
100
AcDbEntity
  8
A-DETL-GENF
100
AcDbLine
 10
-74.9932364254212
 20
350.9866151373346
 30
0.0
 11
-74.9932364254212
 21
345.4966148893794
 31
0.0
  0
LINE
  5
A1
330
2F
100
AcDbEntity
  8
A-DETL-GENF
100
AcDbLine
 10
-74.9932364254212
 20
345.4966148893794
 30
0.0
 11
-74.9932364254212
 21
350.9866151373346
 31
0.0
  0
LINE
  5
A2
330
2F
100
AcDbEntity
  8
A-DETL-GENF
100
AcDbLine
 10
-74.9932364254212
 20
350.9866151373346
 30
0.0
 11
-64.99361429445514
 21
350.9866151373346
 31
0.0
  0
LINE
  5
A3
330
2F
100
AcDbEntity
  8
A-DETL-GENF
100
AcDbLine
 10
-64.99361429445514
 20
350.9866151373346
 30
0.0
 11
-74.9932364254212
 21
350.9866151373346
 31
0.0
  0
LINE
  5
A4
330
2F
100
AcDbEntity
  8
A-DETL-GENF
100
AcDbLine
 10
-59.99361429442163
 20
334.536614851233
 30
0.0
 11
-49.99323642542687
 21
334.536614851233
 31
0.0
  0
LINE
  5
A5
330
2F
100
AcDbEntity
  8
A-DETL-GENF
100
AcDbLine
 10
-49.99323642542687
 20
334.536614851233
 30
0.0
 11
-59.99361429442163
 21
334.536614851233
 31
0.0
  0
LINE
  5
A6
330
2F
100
AcDbEntity
  8
A-DETL-GENF
100
AcDbLine
 10
-64.99361429445514
 20
345.4966148893794
 30
0.0
 11
-74.9932364254212
 21
345.4966148893794
 31
0.0
  0
LINE
  5
A7
330
2F
100
AcDbEntity
  8
A-DETL-GENF
100
AcDbLine
 10
-74.9932364254212
 20
345.4966148893794
 30
0.0
 11
-74.9932364254212
 21
334.536614851233
 31
0.0
  0
LINE
  5
A8
330
2F
100
AcDbEntity
  8
A-DETL-GENF
100
AcDbLine
 10
-74.9932364254212
 20
334.536614851233
 30
0.0
 11
-74.9932364254212
 21
329.0466146032778
 31
0.0
  0
LINE
  5
A9
330
2F
100
AcDbEntity
  8
A-DETL-GENF
100
AcDbLine
 10
-74.9932364254212
 20
329.0466146032778
 30
0.0
 11
-64.99361429445514
 21
329.0466146032778
 31
0.0
  0
LINE
  5
AA
330
2F
100
AcDbEntity
  8
A-DETL-GENF
100
AcDbLine
 10
-64.99361429445514
 20
329.0466146032778
 30
0.0
 11
-74.9932364254212
 21
329.0466146032778
 31
0.0
  0
LINE
  5
AB
330
2F
100
AcDbEntity
  8
A-DETL-GENF
100
AcDbLine
 10
-74.9932364254212
 20
329.0466146032778
 30
0.0
 11
-74.9932364254212
 21
334.536614851233
 31
0.0
  0
LINE
  5
AC
330
2F
100
AcDbEntity
  8
A-DETL-GENF
100
AcDbLine
 10
-74.9932364254212
 20
334.536614851233
 30
0.0
 11
-64.99361429445514
 21
334.536614851233
 31
0.0
  0
LINE
  5
AD
330
2F
100
AcDbEntity
  8
A-DETL-GENF
100
AcDbLine
 10
-64.99361429445514
 20
334.536614851233
 30
0.0
 11
-74.9932364254212
 21
334.536614851233
 31
0.0
  0
LINE
  5
AE
330
2F
100
AcDbEntity
  8
A-DETL-GENF
100
AcDbLine
 10
-74.9932364254212
 20
334.536614851233
 30
0.0
 11
-74.9932364254212
 21
345.4966148893794
 31
0.0
  0
LINE
  5
AF
330
2F
100
AcDbEntity
  8
A-DETL-GENF
100
AcDbLine
 10
-74.9932364254212
 20
345.4966148893794
 30
0.0
 11
-64.99361429445514
 21
345.4966148893794
 31
0.0
  0
LINE
  5
B0
330
2F
100
AcDbEntity
  8
A-DETL-GENF
100
AcDbLine
 10
-59.99361429442163
 20
329.0466146032778
 30
0.0
 11
-49.99323642542687
 21
329.0466146032778
 31
0.0
  0
LINE
  5
B1
330
2F
100
AcDbEntity
  8
A-DETL-GENF
100
AcDbLine
 10
-49.99323642542687
 20
329.0466146032778
 30
0.0
 11
-49.99323642542687
 21
334.536614851233
 31
0.0
  0
LINE
  5
B2
330
2F
100
AcDbEntity
  8
A-DETL-GENF
100
AcDbLine
 10
-49.99323642542687
 20
334.536614851233
 30
0.0
 11
-49.99323642542687
 21
345.4966148893794
 31
0.0
  0
LINE
  5
B3
330
2F
100
AcDbEntity
  8
A-DETL-GENF
100
AcDbLine
 10
-49.99323642542687
 20
345.4966148893794
 30
0.0
 11
-49.99323642542687
 21
350.9866151373346
 31
0.0
  0
LINE
  5
B4
330
2F
100
AcDbEntity
  8
A-DETL-GENF
100
AcDbLine
 10
-49.99323642542687
 20
350.9866151373346
 30
0.0
 11
-59.99361429442163
 21
350.9866151373346
 31
0.0
  0
LINE
  5
B5
330
2F
100
AcDbEntity
  8
A-DETL-GENF
100
AcDbLine
 10
-59.99361429442163
 20
350.9866151373346
 30
0.0
 11
-49.99323642542687
 21
350.9866151373346
 31
0.0
  0
LINE
  5
B6
330
2F
100
AcDbEntity
  8
A-DETL-GENF
100
AcDbLine
 10
-49.99323642542687
 20
350.9866151373346
 30
0.0
 11
-49.99323642542687
 21
345.4966148893794
 31
0.0
  0
LINE
  5
B7
330
2F
100
AcDbEntity
  8
A-DETL-GENF
100
AcDbLine
 10
-49.99323642542687
 20
345.4966148893794
 30
0.0
 11
-59.99361429442163
 21
345.4966148893794
 31
0.0
  0
LINE
  5
B8
330
2F
100
AcDbEntity
  8
A-DETL-GENF
100
AcDbLine
 10
-59.99361429442163
 20
345.4966148893794
 30
0.0
 11
-49.99323642542687
 21
345.4966148893794
 31
0.0
  0
LINE
  5
B9
330
2F
100
AcDbEntity
  8
A-DETL-GENF
100
AcDbLine
 10
-49.99323642542687
 20
345.4966148893794
 30
0.0
 11
-49.99323642542687
 21
334.536614851233
 31
0.0
  0
LINE
  5
BA
330
2F
100
AcDbEntity
  8
A-DETL-GENF
100
AcDbLine
 10
-49.99323642542687
 20
334.536614851233
 30
0.0
 11
-49.99323642542687
 21
329.0466146032778
 31
0.0
  0
LINE
  5
BB
330
2F
100
AcDbEntity
  8
A-DETL-GENF
100
AcDbLine
 10
-49.99323642542687
 20
329.0466146032778
 30
0.0
 11
-59.99361429442163
 21
329.0466146032778
 31
0.0
  0
LINE
  5
BC
330
2F
100
AcDbEntity
  8
A-DETL-GENF
100
AcDbLine
 10
-59.99361429442163
 20
315.0118226724905
 30
0.0
 11
-59.99361429442163
 21
365.0118226724899
 31
0.0
  0
LINE
  5
BD
330
2F
100
AcDbEntity
  8
A-DETL-GENF
100
AcDbLine
 10
-27.99631112442287
 20
365.0118226724899
 30
0.0
 11
-18.49361429445705
 21
365.0118226724899
 31
0.0
  0
LINE
  5
BE
330
2F
100
AcDbEntity
  8
A-DETL-GENF
100
AcDbLine
 10
-18.49361429445705
 20
365.0118226724899
 30
0.0
 11
-14.99361429441453
 21
365.0118226724899
 31
0.0
  0
LINE
  5
BF
330
2F
100
AcDbEntity
  8
A-DETL-GENF
100
AcDbLine
 10
-14.99361429441453
 20
365.0118226724899
 30
0.0
 11
-14.99361429441453
 21
315.0118226724905
 31
0.0
  0
LINE
  5
C0
330
2F
100
AcDbEntity
  8
A-DETL-GENF
100
AcDbLine
 10
-14.99361429441453
 20
315.0118226724905
 30
0.0
 11
-18.49361429445705
 21
315.0118226724905
 31
0.0
  0
LINE
  5
C1
330
2F
100
AcDbEntity
  8
A-DETL-GENF
100
AcDbLine
 10
-18.49361429445705
 20
315.0118226724905
 30
0.0
 11
-52.99361429445787
 21
315.0118226724905
 31
0.0
  0
LINE
  5
C2
330
2F
100
AcDbEntity
  8
A-DETL-GENF
100
AcDbLine
 10
-52.99361429445787
 20
315.0118226724905
 30
0.0
 11
-59.99361429442163
 21
315.0118226724905
 31
0.0
  0
LINE
  5
C3
330
2F
100
AcDbEntity
  8
A-DETL-GENF
100
AcDbLine
 10
-59.99361429442163
 20
315.0118226724905
 30
0.0
 11
-63.49361429446414
 21
315.0118226724905
 31
0.0
  0
LINE
  5
C4
330
2F
100
AcDbEntity
  8
A-DETL-GENF
100
AcDbLine
 10
-63.49361429446414
 20
315.0118226724905
 30
0.0
 11
-64.99361429445514
 21
315.0118226724905
 31
0.0
  0
LINE
  5
C5
330
2F
100
AcDbEntity
  8
A-DETL-GENF
100
AcDbLine
 10
-64.99361429445514
 20
315.0118226724905
 30
0.0
 11
-64.99361429445514
 21
365.0118226724899
 31
0.0
  0
LINE
  5
C6
330
2F
100
AcDbEntity
  8
A-DETL-GENF
100
AcDbLine
 10
-64.99361429445514
 20
365.0118226724899
 30
0.0
 11
-63.49361429444682
 21
365.0118226724899
 31
0.0
  0
LINE
  5
C7
330
2F
100
AcDbEntity
  8
A-DETL-GENF
100
AcDbLine
 10
-63.49361429444682
 20
365.0118226724899
 30
0.0
 11
-59.99361429442163
 21
365.0118226724899
 31
0.0
  0
LINE
  5
C8
330
2F
100
AcDbEntity
  8
A-DETL-GENF
100
AcDbLine
 10
-59.99361429442163
 20
365.0118226724899
 30
0.0
 11
-52.99361429445787
 21
365.0118226724899
 31
0.0
  0
LINE
  5
C9
330
2F
100
AcDbEntity
  8
A-DETL-GENF
100
AcDbLine
 10
-52.99361429445787
 20
365.0118226724899
 30
0.0
 11
-51.99631112478126
 21
365.0118226724899
 31
0.0
  0
LINE
  5
CA
330
2F
100
AcDbEntity
  8
A-DETL-GENF
100
AcDbLine
 10
-27.99631112442287
 20
375.0003213600397
 30
0.0
 11
-27.99631112442287
 21
362.000397653942
 31
0.0
  0
LINE
  5
CB
330
2F
100
AcDbEntity
  8
A-DETL-GENF
100
AcDbLine
 10
-27.99631112442287
 20
362.000397653942
 30
0.0
 11
-39.99631112476666
 21
362.000397653942
 31
0.0
  0
LINE
  5
CC
330
2F
100
AcDbEntity
  8
A-DETL-GENF
100
AcDbLine
 10
-39.99631112476666
 20
362.000397653942
 30
0.0
 11
-51.99631112478126
 21
362.000397653942
 31
0.0
  0
LINE
  5
CD
330
2F
100
AcDbEntity
  8
A-DETL-GENF
100
AcDbLine
 10
-51.99631112478126
 20
362.000397653942
 30
0.0
 11
-51.99631112478126
 21
375.0003213600397
 31
0.0
  0
LINE
  5
CE
330
2F
100
AcDbEntity
  8
A-DETL-GENF
100
AcDbLine
 10
-39.99631112476666
 20
375.0003213600397
 30
0.0
 11
-39.99631112476666
 21
362.000397653942
 31
0.0
  0
LINE
  5
CF
330
2F
100
AcDbEntity
  8
A-DETL-GENF
370
13
100
AcDbLine
 10
-322.0032364257874
 20
2e-16
 30
0.0
 11
0.0
 21
0.0
 31
0.0
  0
LINE
  5
D0
330
2F
100
AcDbEntity
  8
A-DETL-GENF
370
13
100
AcDbLine
 10
0.0
 20
0.0
 30
0.0
 11
0.0
 21
-264.0033851297481
 31
0.0
  0
CIRCLE
  5
D1
330
2F
100
AcDbEntity
  8
A-DETL-GENF
100
AcDbCircle
 10
-24.18638217541865
 20
199.99999998224
 30
0.0
 40
8.000000000006853
  0
ARC
  5
D2
330
2F
100
AcDbEntity
  8
A-DETL-GENF
100
AcDbCircle
 10
-24.18638217541865
 20
199.99999998224
 30
0.0
 40
10.00000000000681
100
AcDbArc
 50
269.9999999999988
 51
89.99999999999935
  0
ARC
  5
D3
330
2F
100
AcDbEntity
  8
A-DETL-GENF
100
AcDbCircle
 10
-24.18638217541865
 20
199.99999998224
 30
0.0
 40
15.00000000000681
100
AcDbArc
 50
269.9999999999991
 51
89.9999999999991
  0
LINE
  5
D4
330
2F
100
AcDbEntity
  8
A-DETL-GENF
100
AcDbLine
 10
-24.18638217541844
 20
214.9999999822469
 30
0.0
 11
-524.1863821754185
 21
214.9999999822511
 31
0.0
  0
LINE
  5
D5
330
2F
100
AcDbEntity
  8
A-DETL-GENF
100
AcDbLine
 10
-24.18638217541856
 20
209.9999999822469
 30
0.0
 11
-524.1863821754185
 21
209.9999999822486
 31
0.0
  0
LINE
  5
D6
330
2F
100
AcDbEntity
  8
A-DETL-GENF
100
AcDbLine
 10
-24.1863821754188
 20
189.9999999822332
 30
0.0
 11
-104.1863821754188
 21
189.9999999822339
 31
0.0
  0
LINE
  5
D7
330
2F
100
AcDbEntity
  8
A-DETL-GENF
100
AcDbLine
 10
-24.18638217541881
 20
184.9999999822332
 30
0.0
 11
-104.1863821754188
 21
184.9999999822335
 31
0.0
  0
LINE
  5
D8
330
2F
100
AcDbEntity
  8
A-DETL-GENF
100
AcDbLine
 10
-104.1863821754188
 20
184.9999999822335
 30
0.0
 11
-104.1863821754188
 21
189.9999999822339
 31
0.0
  0
LINE
  5
D9
330
2F
100
AcDbEntity
  8
A-DETL-GENF
100
AcDbLine
 10
-524.1863821754185
 20
214.9999999822511
 30
0.0
 11
-524.1863821754185
 21
209.9999999822486
 31
0.0
  0
ENDBLK
  5
31
330
2F
100
AcDbEntity
  8
0
100
AcDbBlockEnd
  0
ENDSEC
  0
SECTION
  2
ENTITIES
  0
INSERT
  5
DB
330
17
100
AcDbEntity
  8
0
100
AcDbBlockReference
  2
34 Bent plate detail item - Bent plate detail item-3345145-00_0 Basismaterialen
 10
0.0
 20
0.0
 30
0.0
  0
ENDSEC
  0
SECTION
  2
OBJECTS
  0
DICTIONARY
  5
A
330
0
100
AcDbDictionary
281
1
  3
ACAD_COLOR
350
B
  3
ACAD_GROUP
350
C
  3
ACAD_LAYOUT
350
D
  3
ACAD_MATERIAL
350
E
  3
ACAD_MLEADERSTYLE
350
F
  3
ACAD_MLINESTYLE
350
10
  3
ACAD_PLOTSETTINGS
350
11
  3
ACAD_PLOTSTYLENAME
350
12
  3
ACAD_SCALELIST
350
14
  3
ACAD_TABLESTYLE
350
15
  3
ACAD_VISUALSTYLE
350
16
  3
EZDXF_META
350
2D
  0
DICTIONARY
  5
B
330
A
100
AcDbDictionary
281
1
  0
DICTIONARY
  5
C
330
A
100
AcDbDictionary
281
1
  0
DICTIONARY
  5
D
330
A
100
AcDbDictionary
281
1
  3
Model
350
1A
  3
Layout1
350
1E
  0
DICTIONARY
  5
E
330
A
100
AcDbDictionary
281
1
  3
ByBlock
350
1F
  3
ByLayer
350
20
  3
Global
350
21
  0
DICTIONARY
  5
F
330
A
100
AcDbDictionary
281
1
  3
Standard
350
2C
  0
DICTIONARY
  5
10
330
A
100
AcDbDictionary
281
1
  3
Standard
350
22
  0
DICTIONARY
  5
11
330
A
100
AcDbDictionary
281
1
  0
ACDBDICTIONARYWDFLT
  5
12
330
A
100
AcDbDictionary
281
1
  3
Normal
350
13
100
AcDbDictionaryWithDefault
340
13
  0
ACDBPLACEHOLDER
  5
13
330
12
  0
DICTIONARY
  5
14
330
A
100
AcDbDictionary
281
1
  0
DICTIONARY
  5
15
330
A
100
AcDbDictionary
281
1
  0
DICTIONARY
  5
16
330
A
100
AcDbDictionary
281
1
  0
LAYOUT
  5
1A
330
D
100
AcDbPlotSettings
  1

  4
A3
  6

 40
7.5
 41
20.0
 42
7.5
 43
20.0
 44
420.0
 45
297.0
 46
0.0
 47
0.0
 48
0.0
 49
0.0
140
0.0
141
0.0
142
1.0
143
1.0
 70
1024
 72
1
 73
0
 74
5
  7

 75
16
 76
0
 77
2
 78
300
147
1.0
148
0.0
149
0.0
100
AcDbLayout
  1
Model
 70
1
 71
0
 10
0.0
 20
0.0
 11
420.0
 21
297.0
 12
0.0
 22
0.0
 32
0.0
 14
1e+20
 24
1e+20
 34
1e+20
 15
-1e+20
 25
-1e+20
 35
-1e+20
146
0.0
 13
0.0
 23
0.0
 33
0.0
 16
1.0
 26
0.0
 36
0.0
 17
0.0
 27
1.0
 37
0.0
 76
1
330
17
  0
LAYOUT
  5
1E
330
D
100
AcDbPlotSettings
  1

  4
A3
  6

 40
7.5
 41
20.0
 42
7.5
 43
20.0
 44
420.0
 45
297.0
 46
0.0
 47
0.0
 48
0.0
 49
0.0
140
0.0
141
0.0
142
1.0
143
1.0
 70
0
 72
1
 73
0
 74
5
  7

 75
16
 76
0
 77
2
 78
300
147
1.0
148
0.0
149
0.0
100
AcDbLayout
  1
Layout1
 70
1
 71
1
 10
0.0
 20
0.0
 11
420.0
 21
297.0
 12
0.0
 22
0.0
 32
0.0
 14
1e+20
 24
1e+20
 34
1e+20
 15
-1e+20
 25
-1e+20
 35
-1e+20
146
0.0
 13
0.0
 23
0.0
 33
0.0
 16
1.0
 26
0.0
 36
0.0
 17
0.0
 27
1.0
 37
0.0
 76
1
330
1B
  0
MATERIAL
  5
1F
102
{ACAD_REACTORS
330
E
102
}
330
E
100
AcDbMaterial
  1
ByBlock
  2

 70
0
 40
1.0
 71
1
 41
1.0
 91
-1023410177
 42
1.0
 72
1
  3

 73
1
 74
1
 75
1
 44
0.5
 73
0
 45
1.0
 46
1.0
 77
1
  4

 78
1
 79
1
170
1
 48
1.0
171
1
  6

172
1
173
1
174
1
140
1.0
141
1.0
175
1
  7

176
1
177
1
178
1
143
1.0
179
1
  8

270
1
271
1
272
1
145
1.0
146
1.0
273
1
  9

274
1
275
1
276
1
 42
1.0
 72
1
  3

 73
1
 74
1
 75
1
 94
63
  0
MATERIAL
  5
20
102
{ACAD_REACTORS
330
E
102
}
330
E
100
AcDbMaterial
  1
ByLayer
  2

 70
0
 40
1.0
 71
1
 41
1.0
 91
-1023410177
 42
1.0
 72
1
  3

 73
1
 74
1
 75
1
 44
0.5
 73
0
 45
1.0
 46
1.0
 77
1
  4

 78
1
 79
1
170
1
 48
1.0
171
1
  6

172
1
173
1
174
1
140
1.0
141
1.0
175
1
  7

176
1
177
1
178
1
143
1.0
179
1
  8

270
1
271
1
272
1
145
1.0
146
1.0
273
1
  9

274
1
275
1
276
1
 42
1.0
 72
1
  3

 73
1
 74
1
 75
1
 94
63
  0
MATERIAL
  5
21
102
{ACAD_REACTORS
330
E
102
}
330
E
100
AcDbMaterial
  1
Global
  2

 70
0
 40
1.0
 71
1
 41
1.0
 91
-1023410177
 42
1.0
 72
1
  3

 73
1
 74
1
 75
1
 44
0.5
 73
0
 45
1.0
 46
1.0
 77
1
  4

 78
1
 79
1
170
1
 48
1.0
171
1
  6

172
1
173
1
174
1
140
1.0
141
1.0
175
1
  7

176
1
177
1
178
1
143
1.0
179
1
  8

270
1
271
1
272
1
145
1.0
146
1.0
273
1
  9

274
1
275
1
276
1
 42
1.0
 72
1
  3

 73
1
 74
1
 75
1
 94
63
  0
MLINESTYLE
  5
22
102
{ACAD_REACTORS
330
10
102
}
330
10
100
AcDbMlineStyle
  2
Standard
 70
0
  3

 62
256
 51
90.0
 52
90.0
 71
2
 49
0.5
 62
256
  6
BYLAYER
 49
-0.5
 62
256
  6
BYLAYER
  0
MLEADERSTYLE
  5
2C
102
{ACAD_REACTORS
330
F
102
}
330
F
100
AcDbMLeaderStyle
179
2
170
2
171
1
172
0
 90
2
 40
0.0
 41
0.0
173
1
 91
-1056964608
 92
-2
290
1
 42
2.0
291
1
 43
8.0
  3
Standard
 44
4.0
300

342
29
174
1
175
1
176
0
178
1
 93
-1056964608
 45
4.0
292
0
297
0
 46
4.0
 94
-1056964608
 47
1.0
 49
1.0
140
1.0
294
1
141
0.0
177
0
142
1.0
295
0
296
0
143
3.75
271
0
272
9
273
9
  0
DICTIONARY
  5
2D
330
A
100
AcDbDictionary
280
1
281
1
  3
CREATED_BY_EZDXF
350
2E
  3
WRITTEN_BY_EZDXF
350
DF
  0
DICTIONARYVAR
  5
2E
330
2D
100
DictionaryVariables
280
0
  1
1.4.3 @ 2026-02-13T04:54:13.333662+00:00
  0
DICTIONARYVAR
  5
DF
330
2D
100
DictionaryVariables
280
0
  1
1.4.3 @ 2026-02-13T04:54:13.343217+00:00
  0
ENDSEC
  0
EOF
