  0
SECTION
  2
HEADER
  9
$ACADVER
  1
AC1032
  9
$ACADMAINTVER
 90
4
  9
$DWGCODEPAGE
  3
ANSI_1252
  9
$LASTSAVEDBY
  1
ezdxf
  9
$REQUIREDVERSIONS
160
0
  9
$INSBASE
 10
0.0
 20
0.0
 30
0.0
  9
$EXTMIN
 10
1e+20
 20
1e+20
 30
1e+20
  9
$EXTMAX
 10
-1e+20
 20
-1e+20
 30
-1e+20
  9
$LIMMIN
 10
0.0
 20
0.0
  9
$LIMMAX
 10
420.0
 20
297.0
  9
$ORTHOMODE
 70
0
  9
$REGENMODE
 70
1
  9
$FILLMODE
 70
1
  9
$QTEXTMODE
 70
0
  9
$MIRRTEXT
 70
1
  9
$LTSCALE
 40
1.0
  9
$ATTMODE
 70
1
  9
$TEXTSIZE
 40
2.5
  9
$TRACEWID
 40
1.0
  9
$TEXTSTYLE
  7
Standard
  9
$CLAYER
  8
0
  9
$CELTYPE
  6
ByLayer
  9
$CECOLOR
 62
256
  9
$CELTSCALE
 40
1.0
  9
$DISPSILH
 70
0
  9
$DIMSCALE
 40
1.0
  9
$DIMASZ
 40
2.5
  9
$DIMEXO
 40
0.625
  9
$DIMDLI
 40
3.75
  9
$DIMRND
 40
0.0
  9
$DIMDLE
 40
0.0
  9
$DIMEXE
 40
1.25
  9
$DIMTP
 40
0.0
  9
$DIMTM
 40
0.0
  9
$DIMTXT
 40
2.5
  9
$DIMCEN
 40
2.5
  9
$DIMTSZ
 40
0.0
  9
$DIMTOL
 70
0
  9
$DIMLIM
 70
0
  9
$DIMTIH
 70
0
  9
$DIMTOH
 70
0
  9
$DIMSE1
 70
0
  9
$DIMSE2
 70
0
  9
$DIMTAD
 70
1
  9
$DIMZIN
 70
8
  9
$DIMBLK
  1

  9
$DIMASO
 70
1
  9
$DIMSHO
 70
1
  9
$DIMPOST
  1

  9
$DIMAPOST
  1

  9
$DIMALT
 70
0
  9
$DIMALTD
 70
3
  9
$DIMALTF
 40
0.03937007874
  9
$DIMLFAC
 40
1.0
  9
$DIMTOFL
 70
1
  9
$DIMTVP
 40
0.0
  9
$DIMTIX
 70
0
  9
$DIMSOXD
 70
0
  9
$DIMSAH
 70
0
  9
$DIMBLK1
  1

  9
$DIMBLK2
  1

  9
$DIMSTYLE
  2
ISO-25
  9
$DIMCLRD
 70
0
  9
$DIMCLRE
 70
0
  9
$DIMCLRT
 70
0
  9
$DIMTFAC
 40
1.0
  9
$DIMGAP
 40
0.625
  9
$DIMJUST
 70
0
  9
$DIMSD1
 70
0
  9
$DIMSD2
 70
0
  9
$DIMTOLJ
 70
0
  9
$DIMTZIN
 70
8
  9
$DIMALTZ
 70
0
  9
$DIMALTTZ
 70
0
  9
$DIMUPT
 70
0
  9
$DIMDEC
 70
2
  9
$DIMTDEC
 70
2
  9
$DIMALTU
 70
2
  9
$DIMALTTD
 70
3
  9
$DIMTXSTY
  7
Standard
  9
$DIMAUNIT
 70
0
  9
$DIMADEC
 70
0
  9
$DIMALTRND
 40
0.0
  9
$DIMAZIN
 70
0
  9
$DIMDSEP
 70
44
  9
$DIMATFIT
 70
3
  9
$DIMFRAC
 70
0
  9
$DIMLDRBLK
  1

  9
$DIMLUNIT
 70
2
  9
$DIMLWD
 70
-2
  9
$DIMLWE
 70
-2
  9
$DIMTMOVE
 70
0
  9
$DIMFXL
 40
1.0
  9
$DIMFXLON
 70
0
  9
$DIMJOGANG
 40
0.785398163397
  9
$DIMTFILL
 70
0
  9
$DIMTFILLCLR
 70
0
  9
$DIMARCSYM
 70
0
  9
$DIMLTYPE
  6

  9
$DIMLTEX1
  6

  9
$DIMLTEX2
  6

  9
$DIMTXTDIRECTION
 70
0
  9
$LUNITS
 70
2
  9
$LUPREC
 70
4
  9
$SKETCHINC
 40
1.0
  9
$FILLETRAD
 40
10.0
  9
$AUNITS
 70
0
  9
$AUPREC
 70
2
  9
$MENU
  1
.
  9
$ELEVATION
 40
0.0
  9
$PELEVATION
 40
0.0
  9
$THICKNESS
 40
0.0
  9
$LIMCHECK
 70
0
  9
$CHAMFERA
 40
0.0
  9
$CHAMFERB
 40
0.0
  9
$CHAMFERC
 40
0.0
  9
$CHAMFERD
 40
0.0
  9
$SKPOLY
 70
0
  9
$TDCREATE
 40
2461085.245960648
  9
$TDUCREATE
 40
2458532.153996898
  9
$TDUPDATE
 40
2461085.245960648
  9
$TDUUPDATE
 40
2458532.1544311
  9
$TDINDWG
 40
0.0
  9
$TDUSRTIMER
 40
0.0
  9
$USRTIMER
 70
1
  9
$ANGBASE
 50
0.0
  9
$ANGDIR
 70
0
  9
$PDMODE
 70
0
  9
$PDSIZE
 40
0.0
  9
$PLINEWID
 40
0.0
  9
$SPLFRAME
 70
0
  9
$SPLINETYPE
 70
6
  9
$SPLINESEGS
 70
8
  9
$HANDSEED
  5
7B
  9
$SURFTAB1
 70
6
  9
$SURFTAB2
 70
6
  9
$SURFTYPE
 70
6
  9
$SURFU
 70
6
  9
$SURFV
 70
6
  9
$UCSBASE
  2

  9
$UCSNAME
  2

  9
$UCSORG
 10
0.0
 20
0.0
 30
0.0
  9
$UCSXDIR
 10
1.0
 20
0.0
 30
0.0
  9
$UCSYDIR
 10
0.0
 20
1.0
 30
0.0
  9
$UCSORTHOREF
  2

  9
$UCSORTHOVIEW
 70
0
  9
$UCSORGTOP
 10
0.0
 20
0.0
 30
0.0
  9
$UCSORGBOTTOM
 10
0.0
 20
0.0
 30
0.0
  9
$UCSORGLEFT
 10
0.0
 20
0.0
 30
0.0
  9
$UCSORGRIGHT
 10
0.0
 20
0.0
 30
0.0
  9
$UCSORGFRONT
 10
0.0
 20
0.0
 30
0.0
  9
$UCSORGBACK
 10
0.0
 20
0.0
 30
0.0
  9
$PUCSBASE
  2

  9
$PUCSNAME
  2

  9
$PUCSORG
 10
0.0
 20
0.0
 30
0.0
  9
$PUCSXDIR
 10
1.0
 20
0.0
 30
0.0
  9
$PUCSYDIR
 10
0.0
 20
1.0
 30
0.0
  9
$PUCSORTHOREF
  2

  9
$PUCSORTHOVIEW
 70
0
  9
$PUCSORGTOP
 10
0.0
 20
0.0
 30
0.0
  9
$PUCSORGBOTTOM
 10
0.0
 20
0.0
 30
0.0
  9
$PUCSORGLEFT
 10
0.0
 20
0.0
 30
0.0
  9
$PUCSORGRIGHT
 10
0.0
 20
0.0
 30
0.0
  9
$PUCSORGFRONT
 10
0.0
 20
0.0
 30
0.0
  9
$PUCSORGBACK
 10
0.0
 20
0.0
 30
0.0
  9
$USERI1
 70
0
  9
$USERI2
 70
0
  9
$USERI3
 70
0
  9
$USERI4
 70
0
  9
$USERI5
 70
0
  9
$USERR1
 40
0.0
  9
$USERR2
 40
0.0
  9
$USERR3
 40
0.0
  9
$USERR4
 40
0.0
  9
$USERR5
 40
0.0
  9
$WORLDVIEW
 70
1
  9
$SHADEDGE
 70
3
  9
$SHADEDIF
 70
70
  9
$TILEMODE
 70
1
  9
$MAXACTVP
 70
64
  9
$PINSBASE
 10
0.0
 20
0.0
 30
0.0
  9
$PLIMCHECK
 70
0
  9
$PEXTMIN
 10
1e+20
 20
1e+20
 30
1e+20
  9
$PEXTMAX
 10
-1e+20
 20
-1e+20
 30
-1e+20
  9
$PLIMMIN
 10
0.0
 20
0.0
  9
$PLIMMAX
 10
420.0
 20
297.0
  9
$UNITMODE
 70
0
  9
$VISRETAIN
 70
1
  9
$PLINEGEN
 70
0
  9
$PSLTSCALE
 70
1
  9
$TREEDEPTH
 70
3020
  9
$CMLSTYLE
  2
Standard
  9
$CMLJUST
 70
0
  9
$CMLSCALE
 40
20.0
  9
$PROXYGRAPHICS
 70
1
  9
$MEASUREMENT
 70
1
  9
$CELWEIGHT
370
-1
  9
$ENDCAPS
280
0
  9
$JOINSTYLE
280
0
  9
$LWDISPLAY
290
0
  9
$INSUNITS
 70
6
  9
$HYPERLINKBASE
  1

  9
$STYLESHEET
  1

  9
$XEDIT
290
1
  9
$CEPSNTYPE
380
0
  9
$PSTYLEMODE
290
1
  9
$FINGERPRINTGUID
  2
{673A6022-B8BA-49C9-B303-FCA012B1E101}
  9
$VERSIONGUID
  2
{FF29BA8F-DD86-4AF4-A21B-C22CCD03FF4C}
  9
$EXTNAMES
290
1
  9
$PSVPSCALE
 40
0.0
  9
$OLESTARTUP
290
0
  9
$SORTENTS
280
127
  9
$INDEXCTL
280
0
  9
$HIDETEXT
280
1
  9
$XCLIPFRAME
280
1
  9
$HALOGAP
280
0
  9
$OBSCOLOR
 70
257
  9
$OBSLTYPE
280
0
  9
$INTERSECTIONDISPLAY
280
0
  9
$INTERSECTIONCOLOR
 70
257
  9
$DIMASSOC
280
2
  9
$PROJECTNAME
  1

  9
$CAMERADISPLAY
290
0
  9
$LENSLENGTH
 40
50.0
  9
$CAMERAHEIGHT
 40
0.0
  9
$STEPSPERSEC
 40
24.0
  9
$STEPSIZE
 40
100.0
  9
$3DDWFPREC
 40
2.0
  9
$PSOLWIDTH
 40
0.005
  9
$PSOLHEIGHT
 40
0.08
  9
$LOFTANG1
 40
1.570796326795
  9
$LOFTANG2
 40
1.570796326795
  9
$LOFTMAG1
 40
0.0
  9
$LOFTMAG2
 40
0.0
  9
$LOFTPARAM
 70
7
  9
$LOFTNORMALS
280
1
  9
$LATITUDE
 40
37.795
  9
$LONGITUDE
 40
-122.394
  9
$NORTHDIRECTION
 40
0.0
  9
$TIMEZONE
 70
-8000
  9
$LIGHTGLYPHDISPLAY
280
1
  9
$TILEMODELIGHTSYNCH
280
1
  9
$CMATERIAL
347
20
  9
$SOLIDHIST
280
0
  9
$SHOWHIST
280
1
  9
$DWFFRAME
280
2
  9
$DGNFRAME
280
2
  9
$REALWORLDSCALE
290
1
  9
$INTERFERECOLOR
 62
256
  9
$CSHADOW
280
0
  9
$SHADOWPLANELOCATION
 40
0.0
  0
ENDSEC
  0
SECTION
  2
CLASSES
  0
CLASS
  1
ACDBDICTIONARYWDFLT
  2
AcDbDictionaryWithDefault
  3
ObjectDBX Classes
 90
0
 91
0
280
0
281
0
  0
CLASS
  1
SUN
  2
AcDbSun
  3
SCENEOE
 90
1153
 91
0
280
0
281
0
  0
CLASS
  1
VISUALSTYLE
  2
AcDbVisualStyle
  3
ObjectDBX Classes
 90
4095
 91
0
280
0
281
0
  0
CLASS
  1
MATERIAL
  2
AcDbMaterial
  3
ObjectDBX Classes
 90
1153
 91
0
280
0
281
0
  0
CLASS
  1
SCALE
  2
AcDbScale
  3
ObjectDBX Classes
 90
1153
 91
0
280
0
281
0
  0
CLASS
  1
TABLESTYLE
  2
AcDbTableStyle
  3
ObjectDBX Classes
 90
4095
 91
0
280
0
281
0
  0
CLASS
  1
MLEADERSTYLE
  2
AcDbMLeaderStyle
  3
ACDB_MLEADERSTYLE_CLASS
 90
4095
 91
0
280
0
281
0
  0
CLASS
  1
DICTIONARYVAR
  2
AcDbDictionaryVar
  3
ObjectDBX Classes
 90
0
 91
0
280
0
281
0
  0
CLASS
  1
CELLSTYLEMAP
  2
AcDbCellStyleMap
  3
ObjectDBX Classes
 90
1152
 91
0
280
0
281
0
  0
CLASS
  1
MENTALRAYRENDERSETTINGS
  2
AcDbMentalRayRenderSettings
  3
SCENEOE
 90
1024
 91
0
280
0
281
0
  0
CLASS
  1
ACDBDETAILVIEWSTYLE
  2
AcDbDetailViewStyle
  3
ObjectDBX Classes
 90
1025
 91
0
280
0
281
0
  0
CLASS
  1
ACDBSECTIONVIEWSTYLE
  2
AcDbSectionViewStyle
  3
ObjectDBX Classes
 90
1025
 91
0
280
0
281
0
  0
CLASS
  1
RASTERVARIABLES
  2
AcDbRasterVariables
  3
ISM
 90
0
 91
0
280
0
281
0
  0
CLASS
  1
LAYOUT
  2
AcDbLayout
  3
ObjectDBX Classes
 90
0
 91
0
280
0
281
0
  0
CLASS
  1
ACDBPLACEHOLDER
  2
AcDbPlaceHolder
  3
ObjectDBX Classes
 90
0
 91
0
280
0
281
0
  0
ENDSEC
  0
SECTION
  2
TABLES
  0
TABLE
  2
VPORT
  5
8
330
0
100
AcDbSymbolTable
 70
1
  0
VPORT
  5
23
330
8
100
AcDbSymbolTableRecord
100
AcDbViewportTableRecord
  2
*Active
 70
0
 10
0.0
 20
0.0
 11
1.0
 21
1.0
 12
0.0
 22
0.0
 13
0.0
 23
0.0
 14
0.5
 24
0.5
 15
0.5
 25
0.5
 16
0.0
 26
0.0
 36
1.0
 17
0.0
 27
0.0
 37
0.0
 40
1000.0
 41
1.34
 42
50.0
 43
0.0
 44
0.0
 50
0.0
 51
0.0
 71
0
 72
1000
 73
1
 74
3
 75
0
 76
0
 77
0
 78
0
281
0
 65
0
146
0.0
  0
ENDTAB
  0
TABLE
  2
LTYPE
  5
2
330
0
100
AcDbSymbolTable
 70
4
  0
LTYPE
  5
24
330
2
100
AcDbSymbolTableRecord
100
AcDbLinetypeTableRecord
  2
ByBlock
 70
0
  3

 72
65
 73
0
 40
0.0
  0
LTYPE
  5
25
330
2
100
AcDbSymbolTableRecord
100
AcDbLinetypeTableRecord
  2
ByLayer
 70
0
  3

 72
65
 73
0
 40
0.0
  0
LTYPE
  5
26
330
2
100
AcDbSymbolTableRecord
100
AcDbLinetypeTableRecord
  2
Continuous
 70
0
  3

 72
65
 73
0
 40
0.0
  0
LTYPE
  5
75
330
2
100
AcDbSymbolTableRecord
100
AcDbLinetypeTableRecord
  2
Streep 1_1
 70
0
  3

 72
65
 73
2
 40
2.0
 49
1.0
 74
0
 49
-1.0
 74
0
  0
ENDTAB
  0
TABLE
  2
LAYER
  5
1
330
0
100
AcDbSymbolTable
 70
3
  0
LAYER
  5
27
330
1
100
AcDbSymbolTableRecord
100
AcDbLayerTableRecord
  2
0
 70
0
 62
7
  6
Continuous
370
-3
390
13
347
21
  0
LAYER
  5
28
330
1
100
AcDbSymbolTableRecord
100
AcDbLayerTableRecord
  2
Defpoints
 70
0
 62
7
  6
Continuous
290
0
370
-3
390
13
347
21
  0
LAYER
  5
74
330
1
100
AcDbSymbolTableRecord
100
AcDbLayerTableRecord
  2
A-DETL-GENF
 70
0
 62
92
  6
Continuous
370
18
390
13
347
21
348
0
  0
ENDTAB
  0
TABLE
  2
STYLE
  5
5
330
0
100
AcDbSymbolTable
 70
1
  0
STYLE
  5
29
330
5
100
AcDbSymbolTableRecord
100
AcDbTextStyleTableRecord
  2
Standard
 70
0
 40
0.0
 41
1.0
 50
0.0
 71
0
 42
2.5
  3
txt
  4

  0
ENDTAB
  0
TABLE
  2
VIEW
  5
7
330
0
100
AcDbSymbolTable
 70
0
  0
ENDTAB
  0
TABLE
  2
UCS
  5
6
330
0
100
AcDbSymbolTable
 70
0
  0
ENDTAB
  0
TABLE
  2
APPID
  5
3
330
0
100
AcDbSymbolTable
 70
3
  0
APPID
  5
2A
330
3
100
AcDbSymbolTableRecord
100
AcDbRegAppTableRecord
  2
ACAD
 70
0
  0
APPID
  5
78
330
3
100
AcDbSymbolTableRecord
100
AcDbRegAppTableRecord
  2
HATCHBACKGROUNDCOLOR
 70
0
  0
APPID
  5
79
330
3
100
AcDbSymbolTableRecord
100
AcDbRegAppTableRecord
  2
EZDXF
 70
0
  0
ENDTAB
  0
TABLE
  2
DIMSTYLE
  5
4
330
0
100
AcDbSymbolTable
 70
1
100
AcDbDimStyleTable
  0
DIMSTYLE
105
2B
330
4
100
AcDbSymbolTableRecord
100
AcDbDimStyleTableRecord
  2
Standard
 70
0
 40
1.0
 41
2.5
 42
0.625
 43
3.75
 44
1.25
 45
0.0
 46
0.0
 47
0.0
 48
0.0
 49
2.5
140
2.5
141
2.5
142
0.0
143
0.03937007874
144
1.0
145
0.0
146
1.0
147
0.625
148
0.0
 69
0
 70
0
 71
0
 72
0
 73
0
 74
0
 75
0
 76
0
 77
1
 78
8
 79
3
170
0
171
3
172
1
173
0
174
0
175
0
176
0
177
0
178
0
179
2
271
2
272
2
273
2
274
3
275
0
276
0
277
2
278
44
279
0
280
0
281
0
282
0
283
0
284
8
285
0
286
0
288
0
289
3
290
0
371
-2
372
-2
  0
ENDTAB
  0
TABLE
  2
BLOCK_RECORD
  5
9
330
0
100
AcDbSymbolTable
 70
3
  0
BLOCK_RECORD
  5
17
330
9
100
AcDbSymbolTableRecord
100
AcDbBlockTableRecord
  2
*Model_Space
340
1A
 70
0
280
1
281
0
  0
BLOCK_RECORD
  5
1B
330
9
100
AcDbSymbolTableRecord
100
AcDbBlockTableRecord
  2
*Paper_Space
340
1E
 70
0
280
1
281
0
  0
BLOCK_RECORD
  5
2F
330
9
100
AcDbSymbolTableRecord
100
AcDbBlockTableRecord
  2
31 recystel stelkozijn - R2004-1524510-00_0 Basismaterialen
340
0
 70
0
280
1
281
0
  0
ENDTAB
  0
ENDSEC
  0
SECTION
  2
BLOCKS
  0
BLOCK
  5
18
330
17
100
AcDbEntity
  8
0
100
AcDbBlockBegin
  2
*Model_Space
 70
0
 10
0.0
 20
0.0
 30
0.0
  3
*Model_Space
  1

  0
ENDBLK
  5
19
330
17
100
AcDbEntity
  8
0
100
AcDbBlockEnd
  0
BLOCK
  5
1C
330
1B
100
AcDbEntity
  8
0
100
AcDbBlockBegin
  2
*Paper_Space
 70
0
 10
0.0
 20
0.0
 30
0.0
  3
*Paper_Space
  1

  0
ENDBLK
  5
1D
330
1B
100
AcDbEntity
  8
0
100
AcDbBlockEnd
  0
BLOCK
  5
30
330
2F
100
AcDbEntity
  8
0
100
AcDbBlockBegin
  2
31 recystel stelkozijn - R2004-1524510-00_0 Basismaterialen
 70
0
 10
0.0
 20
0.0
 30
0.0
  3
31 recystel stelkozijn - R2004-1524510-00_0 Basismaterialen
  1

  0
HATCH
  5
32
330
2F
100
AcDbEntity
  8
A-DETL-GENF
100
AcDbHatch
 10
0.0
 20
0.0
 30
0.0
210
0.0
220
0.0
230
1.0
  2
SOLID
 70
1
 71
0
 91
1
 92
1
 93
11
 72
1
 10
-51.00000000001872
 20
2.1657e-12
 11
-50.20000000001457
 21
2.1657e-12
 72
1
 10
-50.20000000001457
 20
2.1657e-12
 11
-50.20000000001457
 21
24.20000000000316
 72
1
 10
-50.20000000001457
 20
24.20000000000316
 11
-48.05517803437175
 21
24.20000000000316
 72
1
 10
-48.05517803437175
 20
24.20000000000316
 11
-48.05517803437175
 21
25.00000000000298
 72
1
 10
-48.05517803437175
 20
25.00000000000298
 11
-50.25881904511914
 21
24.96592582628945
 72
1
 10
-50.25881904511914
 20
24.96592582628945
 11
-50.50000000001451
 21
24.86602540378579
 72
1
 10
-50.50000000001451
 20
24.86602540378579
 11
-50.70710678120501
 21
24.70710678118926
 72
1
 10
-50.70710678120501
 20
24.70710678118926
 11
-50.8660254038037
 21
24.50000000000093
 72
1
 10
-50.8660254038037
 20
24.50000000000093
 11
-50.9659258263052
 21
24.25881904510339
 72
1
 10
-50.9659258263052
 20
24.25881904510339
 11
-51.00000000001872
 21
24.00000000000321
 72
1
 10
-51.00000000001872
 20
24.00000000000321
 11
-51.00000000001872
 21
2.1672e-12
 97
0
 75
0
 76
1
 98
1
 10
0.0
 20
0.0
450
0
451
0
460
0.0
461
0.0
452
0
462
0.0
453
0
470

  0
HATCH
  5
33
330
2F
100
AcDbEntity
  8
A-DETL-GENF
370
13
100
AcDbHatch
 10
0.0
 20
0.0
 30
0.0
210
0.0
220
0.0
230
1.0
  2
FP_66
 70
0
 71
0
 91
2
 92
1
 93
131
 72
1
 10
-2.000000000016871
 20
2.1657e-12
 11
-1.741180954912351
 21
0.0340741737135318
 72
1
 10
-1.741180954912351
 20
0.0340741737135318
 11
-1.500000000016984
 21
0.133974596217189
 72
1
 10
-1.500000000016984
 20
0.133974596217189
 11
-1.292893218830818
 21
0.2928932188158853
 72
1
 10
-1.292893218830818
 20
0.2928932188158853
 11
-1.133974596232121
 21
0.5000000000020521
 72
1
 10
-1.133974596232121
 20
0.5000000000020521
 11
-1.034074173726298
 21
0.7411809548995848
 72
1
 10
-1.034074173726298
 20
0.7411809548995848
 11
-1.000000000017098
 21
1.000000000001938
 72
1
 10
-1.000000000017098
 20
1.000000000001938
 11
-1.03407417373063
 21
4.258819045105775
 72
1
 10
-1.03407417373063
 20
4.258819045105775
 11
-1.133974596232121
 21
4.500000000003308
 72
1
 10
-1.133974596232121
 20
4.500000000003308
 11
-1.292893218830818
 21
4.707106781189475
 72
1
 10
-1.292893218830818
 20
4.707106781189475
 11
-1.500000000016984
 21
4.866025403786006
 72
1
 10
-1.500000000016984
 20
4.866025403786006
 11
-1.741180954912351
 21
4.965925826291829
 72
1
 10
-1.741180954912351
 20
4.965925826291829
 11
-2.000000000016871
 21
5.000000000001029
 72
1
 10
-2.000000000016871
 20
5.000000000001029
 11
-3.258819045121163
 21
5.034074173712395
 72
1
 10
-3.258819045121163
 20
5.034074173712395
 11
-3.50000000001653
 21
5.133974596218218
 72
1
 10
-3.50000000001653
 20
5.133974596218218
 11
-3.707106781202696
 21
5.292893218816914
 72
1
 10
-3.707106781202696
 20
5.292893218816914
 11
-3.866025403801393
 21
5.500000000000915
 72
1
 10
-3.866025403801393
 20
5.500000000000915
 11
-3.965925826302884
 21
5.741180954898448
 72
1
 10
-3.965925826302884
 20
5.741180954898448
 11
-4.000000000016416
 21
6.000000000002967
 72
1
 10
-4.000000000016416
 20
6.000000000002967
 11
-3.965925826302884
 21
30.2588190451042
 72
1
 10
-3.965925826302884
 20
30.2588190451042
 11
-3.866025403801393
 21
30.50000000000173
 72
1
 10
-3.866025403801393
 20
30.50000000000173
 11
-3.707106781202696
 21
30.70710678119006
 72
1
 10
-3.707106781202696
 20
30.70710678119006
 11
-3.50000000001653
 21
30.8660254037866
 72
1
 10
-3.50000000001653
 20
30.8660254037866
 11
-3.258819045121163
 21
30.96592582629025
 72
1
 10
-3.258819045121163
 20
30.96592582629025
 11
-3.000000000016644
 21
31.00000000000162
 72
1
 10
-3.000000000016644
 20
31.00000000000162
 11
-1.741180954912351
 21
31.03407417371298
 72
1
 10
-1.741180954912351
 20
31.03407417371298
 11
-1.500000000016984
 21
31.13397459621664
 72
1
 10
-1.500000000016984
 20
31.13397459621664
 11
-1.292893218830818
 21
31.29289321881534
 72
1
 10
-1.292893218830818
 20
31.29289321881534
 11
-1.133974596232121
 21
31.5000000000015
 72
1
 10
-1.133974596232121
 20
31.5000000000015
 11
-1.03407417373063
 21
31.7411809549012
 72
1
 10
-1.03407417373063
 20
31.7411809549012
 11
-1.000000000017098
 21
32.00000000000139
 72
1
 10
-1.000000000017098
 20
32.00000000000139
 11
-1.03407417373063
 21
35.25881904510523
 72
1
 10
-1.03407417373063
 20
35.25881904510523
 11
-1.133974596232121
 21
35.50000000000276
 72
1
 10
-1.133974596232121
 20
35.50000000000276
 11
-1.292893218830818
 21
35.70710678118893
 72
1
 10
-1.292893218830818
 20
35.70710678118893
 11
-1.500000000016984
 21
35.86602540378546
 72
1
 10
-1.500000000016984
 20
35.86602540378546
 11
-1.741180954912351
 21
35.96592582629128
 72
1
 10
-1.741180954912351
 20
35.96592582629128
 11
-2.000000000016871
 21
36.00000000000048
 72
1
 10
-2.000000000016871
 20
36.00000000000048
 11
-3.258819045121163
 21
36.03407417371401
 72
1
 10
-3.258819045121163
 20
36.03407417371401
 11
-3.50000000001653
 21
36.13397459621767
 72
1
 10
-3.50000000001653
 20
36.13397459621767
 11
-3.707106781202696
 21
36.29289321881637
 72
1
 10
-3.707106781202696
 20
36.29289321881637
 11
-3.866025403801393
 21
36.50000000000253
 72
1
 10
-3.866025403801393
 20
36.50000000000253
 11
-3.965925826302884
 21
36.74118095490007
 72
1
 10
-3.965925826302884
 20
36.74118095490007
 11
-4.000000000016416
 21
37.00000000000242
 72
1
 10
-4.000000000016416
 20
37.00000000000242
 11
-3.965925826302884
 21
54.25881904510523
 72
1
 10
-3.965925826302884
 20
54.25881904510523
 11
-3.866025403801393
 21
54.50000000000277
 72
1
 10
-3.866025403801393
 20
54.50000000000277
 11
-3.707106781202696
 21
54.70710678118893
 72
1
 10
-3.707106781202696
 20
54.70710678118893
 11
-3.50000000001653
 21
54.86602540378546
 72
1
 10
-3.50000000001653
 20
54.86602540378546
 11
-3.258819045121163
 21
54.96592582629129
 72
1
 10
-3.258819045121163
 20
54.96592582629129
 11
-3.000000000016644
 21
55.00000000000266
 72
1
 10
-3.000000000016644
 20
55.00000000000266
 11
-1.741180954912351
 21
55.03407417371185
 72
1
 10
-1.741180954912351
 20
55.03407417371185
 11
-1.500000000016984
 21
55.13397459621767
 72
1
 10
-1.500000000016984
 20
55.13397459621767
 11
-1.292893218830818
 21
55.29289321881638
 72
1
 10
-1.292893218830818
 20
55.29289321881638
 11
-1.133974596232121
 21
55.50000000000254
 72
1
 10
-1.133974596232121
 20
55.50000000000254
 11
-1.03407417373063
 21
55.74118095490007
 72
1
 10
-1.03407417373063
 20
55.74118095490007
 11
-1.000000000017098
 21
56.04722519580448
 72
1
 10
-1.000000000017098
 20
56.04722519580448
 11
-1.03407417373063
 21
59.2588190451041
 72
1
 10
-1.03407417373063
 20
59.2588190451041
 11
-1.133974596232121
 21
59.50000000000163
 72
1
 10
-1.133974596232121
 20
59.50000000000163
 11
-1.292893218830818
 21
59.70710678118996
 72
1
 10
-1.292893218830818
 20
59.70710678118996
 11
-1.500000000016984
 21
59.86602540378649
 72
1
 10
-1.500000000016984
 20
59.86602540378649
 11
-1.741180954912351
 21
59.96592582629015
 72
1
 10
-1.741180954912351
 20
59.96592582629015
 11
-2.000000000016871
 21
60.00000000000152
 72
1
 10
-2.000000000016871
 20
60.00000000000152
 11
-3.258819045121163
 21
60.03407417371288
 72
1
 10
-3.258819045121163
 20
60.03407417371288
 11
-3.50000000001653
 21
60.13397459621654
 72
1
 10
-3.50000000001653
 20
60.13397459621654
 11
-3.707106781202696
 21
60.29289321881524
 72
1
 10
-3.707106781202696
 20
60.29289321881524
 11
-3.866025403801393
 21
60.50000000000357
 72
1
 10
-3.866025403801393
 20
60.50000000000357
 11
-3.965925826302884
 21
60.7411809549011
 72
1
 10
-3.965925826302884
 20
60.7411809549011
 11
-4.000000000016416
 21
61.00000000000129
 72
1
 10
-4.000000000016416
 20
61.00000000000129
 11
-3.965925826302884
 21
74.25881904510503
 72
1
 10
-3.965925826302884
 20
74.25881904510503
 11
-3.866025403801393
 21
74.50000000000038
 72
1
 10
-3.866025403801393
 20
74.50000000000038
 11
-3.707106781202696
 21
74.70710678118873
 72
1
 10
-3.707106781202696
 20
74.70710678118873
 11
-3.50000000001653
 21
74.86602540378742
 72
1
 10
-3.50000000001653
 20
74.86602540378742
 11
-3.258819045121163
 21
74.96592582629107
 72
1
 10
-3.258819045121163
 20
74.96592582629107
 11
-3.000000000016644
 21
75.00000000000244
 72
1
 10
-3.000000000016644
 20
75.00000000000244
 11
-1.741180954912351
 21
75.0340741737138
 72
1
 10
-1.741180954912351
 20
75.0340741737138
 11
-1.500000000016984
 21
75.13397459621747
 72
1
 10
-1.500000000016984
 20
75.13397459621747
 11
-1.292893218830818
 21
75.29289321881616
 72
1
 10
-1.292893218830818
 20
75.29289321881616
 11
-1.133974596232121
 21
75.50000000000233
 72
1
 10
-1.133974596232121
 20
75.50000000000233
 11
-1.03407417373063
 21
75.74118095489986
 72
1
 10
-1.03407417373063
 20
75.74118095489986
 11
-1.000000000017098
 21
76.00000000000222
 72
1
 10
-1.000000000017098
 20
76.00000000000222
 11
-1.03407417373063
 21
79.25881904510389
 72
1
 10
-1.03407417373063
 20
79.25881904510389
 11
-1.133974596232121
 21
79.50000000000142
 72
1
 10
-1.133974596232121
 20
79.50000000000142
 11
-1.292893218830818
 21
79.70710678118759
 72
1
 10
-1.292893218830818
 20
79.70710678118759
 11
-1.500000000016984
 21
79.86602540378628
 72
1
 10
-1.500000000016984
 20
79.86602540378628
 11
-1.741180954912351
 21
79.96592582628993
 72
1
 10
-1.741180954912351
 20
79.96592582628993
 11
-2.000000000016871
 21
80.00000000000345
 72
1
 10
-2.000000000016871
 20
80.00000000000345
 11
-10.25881904511957
 21
79.96592582628993
 72
1
 10
-10.25881904511957
 20
79.96592582628993
 11
-10.50000000001927
 21
79.86602540378628
 72
1
 10
-10.50000000001927
 20
79.86602540378628
 11
-10.70710678120543
 21
79.70710678118759
 72
1
 10
-10.70710678120543
 20
79.70710678118759
 11
-10.8660254037998
 21
79.50000000000142
 72
1
 10
-10.8660254037998
 20
79.50000000000142
 11
-10.96592582630562
 21
79.25881904510389
 72
1
 10
-10.96592582630562
 20
79.25881904510389
 11
-11.00000000001482
 21
79.00000000000153
 72
1
 10
-11.00000000001482
 20
79.00000000000153
 11
-11.00000000001482
 21
65.88950464523045
 72
1
 10
-11.00000000001482
 20
65.88950464523045
 11
-10.40000000001929
 21
65.00000000000038
 72
1
 10
-10.40000000001929
 20
65.00000000000038
 11
-11.00000000001482
 21
64.21941786443321
 72
1
 10
-11.00000000001482
 20
64.21941786443321
 11
-11.00000000001482
 21
48.46709182472009
 72
1
 10
-11.00000000001482
 20
48.46709182472009
 11
-10.40000000001929
 21
47.57758717949003
 72
1
 10
-10.40000000001929
 20
47.57758717949003
 11
-11.00000000001482
 21
46.79700504392285
 72
1
 10
-11.00000000001482
 20
46.79700504392285
 11
-11.03407417372835
 21
40.74118095489915
 72
1
 10
-11.03407417372835
 20
40.74118095489915
 11
-11.13397459622984
 21
40.50000000000162
 72
1
 10
-11.13397459622984
 20
40.50000000000162
 11
-11.29289321882854
 21
40.29289321881545
 72
1
 10
-11.29289321882854
 20
40.29289321881545
 11
-11.50000000001904
 21
40.13397459621676
 72
1
 10
-11.50000000001904
 20
40.13397459621676
 11
-11.74118095491441
 21
40.0340741737131
 72
1
 10
-11.74118095491441
 20
40.0340741737131
 11
-12.00000000001893
 21
40.00000000000173
 72
1
 10
-12.00000000001893
 20
40.00000000000173
 11
-33.25881904511868
 21
39.96592582629253
 72
1
 10
-33.25881904511868
 20
39.96592582629253
 11
-33.50000000001838
 21
39.86602540378672
 72
1
 10
-33.50000000001838
 20
39.86602540378672
 11
-33.70710678120454
 21
39.70710678118802
 72
1
 10
-33.70710678120454
 20
39.70710678118802
 11
-33.86602540379891
 21
39.50000000000185
 72
1
 10
-33.86602540379891
 20
39.50000000000185
 11
-33.96592582630473
 21
39.25881904510432
 72
1
 10
-33.96592582630473
 20
39.25881904510432
 11
-34.00000000001393
 21
39.00000000000196
 72
1
 10
-34.00000000001393
 20
39.00000000000196
 11
-34.03407417372746
 21
10.74118095489947
 72
1
 10
-34.03407417372746
 20
10.74118095489947
 11
-34.13397459622895
 21
10.50000000000194
 72
1
 10
-34.13397459622895
 20
10.50000000000194
 11
-34.29289321882765
 21
10.29289321881577
 72
1
 10
-34.29289321882765
 20
10.29289321881577
 11
-34.50000000001815
 21
10.13397459621708
 72
1
 10
-34.50000000001815
 20
10.13397459621708
 11
-34.74118095491784
 21
10.03407417371342
 72
1
 10
-34.74118095491784
 20
10.03407417371342
 11
-35.00000000001803
 21
10.00000000000206
 72
1
 10
-35.00000000001803
 20
10.00000000000206
 11
-43.2588190451164
 21
10.03407417371342
 72
1
 10
-43.2588190451164
 20
10.03407417371342
 11
-43.50000000001609
 21
10.13397459621708
 72
1
 10
-43.50000000001609
 20
10.13397459621708
 11
-43.70710678120226
 21
10.29289321881577
 72
1
 10
-43.70710678120226
 20
10.29289321881577
 11
-43.86602540380096
 21
10.50000000000194
 72
1
 10
-43.86602540380096
 20
10.50000000000194
 11
-43.96592582630678
 21
10.74118095489947
 72
1
 10
-43.96592582630678
 20
10.74118095489947
 11
-44.00000000001599
 21
11.00000000000183
 72
1
 10
-44.00000000001599
 20
11.00000000000183
 11
-44.03407417372519
 21
24.25881904510339
 72
1
 10
-44.03407417372519
 20
24.25881904510339
 11
-44.13397459623101
 21
24.50000000000093
 72
1
 10
-44.13397459623101
 20
24.50000000000093
 11
-44.2928932188297
 21
24.70710678118926
 72
1
 10
-44.2928932188297
 20
24.70710678118926
 11
-44.50000000001587
 21
24.86602540378579
 72
1
 10
-44.50000000001587
 20
24.86602540378579
 11
-44.74118095491557
 21
24.96592582629161
 72
1
 10
-44.74118095491557
 20
24.96592582629161
 11
-45.00000000001576
 21
25.00000000000298
 72
1
 10
-45.00000000001576
 20
25.00000000000298
 11
-48.05517803437175
 21
25.00000000000298
 72
1
 10
-48.05517803437175
 20
25.00000000000298
 11
-48.05517803437175
 21
24.20000000000316
 72
1
 10
-48.05517803437175
 20
24.20000000000316
 11
-50.20000000001457
 21
24.20000000000316
 72
1
 10
-50.20000000001457
 20
24.20000000000316
 11
-50.20000000001457
 21
2.1672e-12
 72
1
 10
-50.20000000001457
 20
2.1657e-12
 11
-2.000000000016868
 21
2.1657e-12
 97
0
 92
1
 93
25
 72
1
 10
-26.00000000001575
 20
7.000000000000574
 11
-26.25881904512027
 21
7.034074173714105
 72
1
 10
-26.25881904512027
 20
7.034074173714105
 11
-26.50000000001996
 21
7.133974596217763
 72
1
 10
-26.50000000001996
 20
7.133974596217763
 11
-26.7071067812018
 21
7.292893218816459
 72
1
 10
-26.7071067812018
 20
7.292893218816459
 11
-26.8660254038005
 21
7.500000000002626
 72
1
 10
-26.8660254038005
 20
7.500000000002626
 11
-26.96592582630632
 21
7.741180954900158
 72
1
 10
-26.96592582630632
 20
7.741180954900158
 11
-27.00000000001552
 21
8.000000000002514
 72
1
 10
-27.00000000001552
 20
8.000000000002514
 11
-26.96592582630632
 21
32.25881904510374
 72
1
 10
-26.96592582630632
 20
32.25881904510374
 11
-26.8660254038005
 21
32.50000000000127
 72
1
 10
-26.8660254038005
 20
32.50000000000127
 11
-26.7071067812018
 21
32.70710678118961
 72
1
 10
-26.7071067812018
 20
32.70710678118961
 11
-26.50000000001996
 21
32.86602540378614
 72
1
 10
-26.50000000001996
 20
32.86602540378614
 11
-26.25881904512027
 21
32.9659258262898
 72
1
 10
-26.25881904512027
 20
32.9659258262898
 11
-26.00000000001575
 21
33.00000000000116
 72
1
 10
-26.00000000001575
 20
33.00000000000116
 11
-11.74118095491441
 21
32.9659258262898
 72
1
 10
-11.74118095491441
 20
32.9659258262898
 11
-11.50000000001904
 21
32.86602540378614
 72
1
 10
-11.50000000001904
 20
32.86602540378614
 11
-11.29289321882854
 21
32.70710678118744
 72
1
 10
-11.29289321882854
 20
32.70710678118744
 11
-11.13397459622984
 21
32.50000000000127
 72
1
 10
-11.13397459622984
 20
32.50000000000127
 11
-11.03407417372835
 21
32.25881904510374
 72
1
 10
-11.03407417372835
 20
32.25881904510374
 11
-11.00000000001482
 21
32.00000000000139
 72
1
 10
-11.00000000001482
 20
32.00000000000139
 11
-11.03407417372835
 21
7.741180954900158
 72
1
 10
-11.03407417372835
 20
7.741180954900158
 11
-11.13397459622984
 21
7.500000000002626
 72
1
 10
-11.13397459622984
 20
7.500000000002626
 11
-11.29289321882854
 21
7.292893218816459
 72
1
 10
-11.29289321882854
 20
7.292893218816459
 11
-11.50000000001904
 21
7.133974596215597
 72
1
 10
-11.50000000001904
 20
7.133974596215597
 11
-11.74118095491441
 21
7.034074173714105
 72
1
 10
-11.74118095491441
 20
7.034074173714105
 11
-12.00000000001893
 21
7.000000000000574
 72
1
 10
-12.00000000001893
 20
7.000000000000574
 11
-26.00000000001575
 21
7.000000000000574
 97
0
 75
0
 76
2
 52
0.0
 41
1.0
 77
0
 78
1
 53
45.0
 43
10856.617
 44
-1540.042
 45
-1.767766952966368
 46
1.767766952966368
 79
0
 98
1
 10
0.0
 20
0.0
  0
ARC
  5
34
330
2F
100
AcDbEntity
  8
A-DETL-GENF
370
25
100
AcDbCircle
 10
-3.00000000000006
 20
29.99999999999995
 30
0.0
 40
0.9999999999999744
100
AcDbArc
 50
90.00000000000003
 51
180.0000000000005
  0
LINE
  5
35
330
2F
100
AcDbEntity
  8
A-DETL-GENF
370
25
100
AcDbLine
 10
-3.000000000000063
 20
31.00000000000002
 30
0.0
 11
-2.000000000000046
 21
31.00000000000002
 31
0.0
  0
ARC
  5
36
330
2F
100
AcDbEntity
  8
A-DETL-GENF
370
25
100
AcDbCircle
 10
-2.00000000000005
 20
32.00000000000008
 30
0.0
 40
1.000000000000044
100
AcDbArc
 50
269.9999999999997
 51
3.5e-14
  0
LINE
  5
37
330
2F
100
AcDbEntity
  8
A-DETL-GENF
370
25
100
AcDbLine
 10
-1.000000000000073
 20
32.00000000000008
 30
0.0
 11
-1.000000000000078
 21
34.99999999999993
 31
0.0
  0
ARC
  5
38
330
2F
100
AcDbEntity
  8
A-DETL-GENF
370
25
100
AcDbCircle
 10
-2.000000000000053
 20
34.99999999999993
 30
0.0
 40
0.9999999999999764
100
AcDbArc
 50
359.9999999999996
 51
89.99999999999967
  0
LINE
  5
39
330
2F
100
AcDbEntity
  8
A-DETL-GENF
370
25
100
AcDbLine
 10
-2.000000000000048
 20
35.99999999999998
 30
0.0
 11
-3.00000000000009
 21
35.99999999999998
 31
0.0
  0
ARC
  5
3A
330
2F
100
AcDbEntity
  8
A-DETL-GENF
370
25
100
AcDbCircle
 10
-3.000000000000091
 20
37.00000000000001
 30
0.0
 40
1.000000000000043
100
AcDbArc
 50
180.0
 51
269.9999999999997
  0
LINE
  5
3B
330
2F
100
AcDbEntity
  8
A-DETL-GENF
370
25
100
AcDbLine
 10
-4.000000000000067
 20
37.00000000000001
 30
0.0
 11
-4.0000000000001
 21
53.99999999999991
 31
0.0
  0
ARC
  5
3C
330
2F
100
AcDbEntity
  8
A-DETL-GENF
370
25
100
AcDbCircle
 10
-3.000000000000129
 20
53.99999999999991
 30
0.0
 40
0.9999999999999714
100
AcDbArc
 50
89.99999999999999
 51
180.0
  0
LINE
  5
3D
330
2F
100
AcDbEntity
  8
A-DETL-GENF
370
25
100
AcDbLine
 10
-3.000000000000131
 20
54.99999999999997
 30
0.0
 11
-2.00000000000008
 21
54.99999999999997
 31
0.0
  0
ARC
  5
3E
330
2F
100
AcDbEntity
  8
A-DETL-GENF
370
25
100
AcDbCircle
 10
-2.000000000000081
 20
56.00000000000004
 30
0.0
 40
1.000000000000043
100
AcDbArc
 50
269.9999999999996
 51
359.9999999999996
  0
LINE
  5
3F
330
2F
100
AcDbEntity
  8
A-DETL-GENF
370
25
100
AcDbLine
 10
-1.000000000000106
 20
56.00000000000004
 30
0.0
 11
-1.000000000000112
 21
58.99999999999988
 31
0.0
  0
ARC
  5
40
330
2F
100
AcDbEntity
  8
A-DETL-GENF
370
25
100
AcDbCircle
 10
-2.000000000000154
 20
58.99999999999988
 30
0.0
 40
1.000000000000043
100
AcDbArc
 50
359.9999999999996
 51
89.99999999999969
  0
LINE
  5
41
330
2F
100
AcDbEntity
  8
A-DETL-GENF
370
25
100
AcDbLine
 10
-2.00000000000015
 20
59.99999999999993
 30
0.0
 11
-3.000000000000191
 21
59.99999999999993
 31
0.0
  0
ARC
  5
42
330
2F
100
AcDbEntity
  8
A-DETL-GENF
370
25
100
AcDbCircle
 10
-3.000000000000194
 20
60.99999999999996
 30
0.0
 40
1.000000000000042
100
AcDbArc
 50
180.0
 51
269.9999999999997
  0
LINE
  5
43
330
2F
100
AcDbEntity
  8
A-DETL-GENF
370
25
100
AcDbLine
 10
-4.000000000000101
 20
60.99999999999996
 30
0.0
 11
-4.000000000000126
 21
73.99999999999994
 31
0.0
  0
ARC
  5
44
330
2F
100
AcDbEntity
  8
A-DETL-GENF
370
25
100
AcDbCircle
 10
-3.000000000000098
 20
73.99999999999994
 30
0.0
 40
1.00000000000004
100
AcDbArc
 50
89.99999999999982
 51
180.0
  0
LINE
  5
45
330
2F
100
AcDbEntity
  8
A-DETL-GENF
370
25
100
AcDbLine
 10
-3.000000000000097
 20
75.00000000000003
 30
0.0
 11
-2.000000000000114
 21
75.00000000000003
 31
0.0
  0
ARC
  5
46
330
2F
100
AcDbEntity
  8
A-DETL-GENF
370
25
100
AcDbCircle
 10
-2.000000000000115
 20
76.00000000000009
 30
0.0
 40
1.000000000000042
100
AcDbArc
 50
269.9999999999996
 51
359.9999999999996
  0
LINE
  5
47
330
2F
100
AcDbEntity
  8
A-DETL-GENF
370
25
100
AcDbLine
 10
-1.00000000000014
 20
76.00000000000009
 30
0.0
 11
-1.000000000000146
 21
78.99999999999994
 31
0.0
  0
ARC
  5
48
330
2F
100
AcDbEntity
  8
A-DETL-GENF
370
25
100
AcDbCircle
 10
-2.000000000000186
 20
78.99999999999994
 30
0.0
 40
1.000000000000042
100
AcDbArc
 50
359.9999999999996
 51
89.99999999999991
  0
LINE
  5
49
330
2F
100
AcDbEntity
  8
A-DETL-GENF
370
25
100
AcDbLine
 10
-2.000000000000183
 20
79.99999999999999
 30
0.0
 11
-9.999999999999996
 21
79.99999999999997
 31
0.0
  0
ARC
  5
4A
330
2F
100
AcDbEntity
  8
A-DETL-GENF
370
25
100
AcDbCircle
 10
-9.999999999999996
 20
78.99999999999991
 30
0.0
 40
1.00000000000004
100
AcDbArc
 50
90.0
 51
180.0
  0
LINE
  5
4B
330
2F
100
AcDbEntity
  8
A-DETL-GENF
370
25
100
AcDbLine
 10
-11.0000000000001
 20
78.99999999999991
 30
0.0
 11
-11.00000000000007
 21
65.88950464522858
 31
0.0
  0
LINE
  5
4C
330
2F
100
AcDbEntity
  8
A-DETL-GENF
370
25
100
AcDbLine
 10
-11.00000000000007
 20
65.88950464522858
 30
0.0
 11
-10.4000000000002
 21
64.99999999999987
 31
0.0
  0
LINE
  5
4D
330
2F
100
AcDbEntity
  8
A-DETL-GENF
370
25
100
AcDbLine
 10
-10.4000000000002
 20
64.99999999999987
 30
0.0
 11
-11.00000000000006
 21
64.21941786443215
 31
0.0
  0
LINE
  5
4E
330
2F
100
AcDbEntity
  8
A-DETL-GENF
370
25
100
AcDbLine
 10
-11.00000000000006
 20
64.21941786443215
 30
0.0
 11
-11.00000000000004
 21
48.46709182471707
 31
0.0
  0
LINE
  5
4F
330
2F
100
AcDbEntity
  8
A-DETL-GENF
370
25
100
AcDbLine
 10
-11.00000000000004
 20
48.46709182471707
 30
0.0
 11
-10.40000000000022
 21
47.57758717948843
 31
0.0
  0
LINE
  5
50
330
2F
100
AcDbEntity
  8
A-DETL-GENF
370
25
100
AcDbLine
 10
-10.40000000000022
 20
47.57758717948843
 30
0.0
 11
-11.00000000000003
 21
46.79700504392077
 31
0.0
  0
LINE
  5
51
330
2F
100
AcDbEntity
  8
A-DETL-GENF
370
25
100
AcDbLine
 10
-11.00000000000003
 20
46.79700504392077
 30
0.0
 11
-11.00000000000002
 21
40.99999999999988
 31
0.0
  0
ARC
  5
52
330
2F
100
AcDbEntity
  8
A-DETL-GENF
370
25
100
AcDbCircle
 10
-12.00000000000007
 20
40.99999999999988
 30
0.0
 40
1.00000000000004
100
AcDbArc
 50
269.9999999999995
 51
5.09e-14
  0
LINE
  5
53
330
2F
100
AcDbEntity
  8
A-DETL-GENF
370
25
100
AcDbLine
 10
-12.00000000000008
 20
39.99999999999985
 30
0.0
 11
-33.00000000000007
 21
39.99999999999981
 31
0.0
  0
ARC
  5
54
330
2F
100
AcDbEntity
  8
A-DETL-GENF
370
25
100
AcDbCircle
 10
-33.00000000000006
 20
39.00000000000004
 30
0.0
 40
0.9999999999997726
100
AcDbArc
 50
90.0
 51
180.0
  0
LINE
  5
55
330
2F
100
AcDbEntity
  8
A-DETL-GENF
370
25
100
AcDbLine
 10
-34.0000000000001
 20
39.00000000000004
 30
0.0
 11
-34.00000000000005
 21
10.99999999999987
 31
0.0
  0
ARC
  5
56
330
2F
100
AcDbEntity
  8
A-DETL-GENF
370
25
100
AcDbCircle
 10
-35.00000000000015
 20
10.99999999999987
 30
0.0
 40
1.000000000000112
100
AcDbArc
 50
269.9999999999996
 51
359.9999999999996
  0
LINE
  5
57
330
2F
100
AcDbEntity
  8
A-DETL-GENF
370
25
100
AcDbLine
 10
-35.00000000000015
 20
9.99999999999985
 30
0.0
 11
-43.00000000000008
 21
9.999999999999833
 31
0.0
  0
ARC
  5
58
330
2F
100
AcDbEntity
  8
A-DETL-GENF
370
25
100
AcDbCircle
 10
-43.00000000000008
 20
10.99999999999987
 30
0.0
 40
1.000000000000049
100
AcDbArc
 50
180.0
 51
269.9999999999997
  0
LINE
  5
59
330
2F
100
AcDbEntity
  8
A-DETL-GENF
370
25
100
AcDbLine
 10
-44.0
 20
10.99999999999987
 30
0.0
 11
-44.00000000000002
 21
23.99999999999993
 31
0.0
  0
ARC
  5
5A
330
2F
100
AcDbEntity
  8
A-DETL-GENF
370
25
100
AcDbCircle
 10
-45.00000000000014
 20
23.99999999999993
 30
0.0
 40
1.000000000000042
100
AcDbArc
 50
0.0
 51
89.99999999999959
  0
LINE
  5
5B
330
2F
100
AcDbEntity
  8
A-DETL-GENF
370
25
100
AcDbLine
 10
-45.00000000000013
 20
24.99999999999995
 30
0.0
 11
-48.05517803435694
 21
24.99999999999994
 31
0.0
  0
LINE
  5
5C
330
2F
100
AcDbEntity
  8
A-DETL-GENF
370
25
100
AcDbLine
 10
-50.19999999999868
 20
-7.47e-14
 30
0.0
 11
-1.999999999999976
 21
1.27e-14
 31
0.0
  0
ARC
  5
5D
330
2F
100
AcDbEntity
  8
A-DETL-GENF
370
25
100
AcDbCircle
 10
-1.99999999999998
 20
1.000000000000068
 30
0.0
 40
1.000000000000042
100
AcDbArc
 50
269.9999999999998
 51
4.45e-14
  0
LINE
  5
5E
330
2F
100
AcDbEntity
  8
A-DETL-GENF
370
25
100
AcDbLine
 10
-1.000000000000005
 20
1.000000000000068
 30
0.0
 11
-1.000000000000011
 21
3.999999999999902
 31
0.0
  0
ARC
  5
5F
330
2F
100
AcDbEntity
  8
A-DETL-GENF
370
25
100
AcDbCircle
 10
-1.999999999999985
 20
3.999999999999902
 30
0.0
 40
0.9999999999999767
100
AcDbArc
 50
359.9999999999996
 51
89.9999999999998
  0
LINE
  5
60
330
2F
100
AcDbEntity
  8
A-DETL-GENF
370
25
100
AcDbLine
 10
-1.99999999999998
 20
4.999999999999971
 30
0.0
 11
-3.000000000000022
 21
4.999999999999971
 31
0.0
  0
ARC
  5
61
330
2F
100
AcDbEntity
  8
A-DETL-GENF
370
25
100
AcDbCircle
 10
-3.000000000000023
 20
5.999999999999998
 30
0.0
 40
1.000000000000045
100
AcDbArc
 50
179.9999999999999
 51
269.9999999999998
  0
LINE
  5
62
330
2F
100
AcDbEntity
  8
A-DETL-GENF
370
25
100
AcDbLine
 10
-4.0
 20
5.999999999999998
 30
0.0
 11
-4.000000000000045
 21
29.99999999999995
 31
0.0
  0
ARC
  5
63
330
2F
100
AcDbEntity
  8
A-DETL-GENF
370
25
100
AcDbCircle
 10
-12.00000000000001
 20
7.999999999999805
 30
0.0
 40
1.000000000000042
100
AcDbArc
 50
269.9999999999997
 51
2.735e-13
  0
LINE
  5
64
330
2F
100
AcDbEntity
  8
A-DETL-GENF
370
25
100
AcDbLine
 10
-12.00000000000001
 20
7.000000000000024
 30
0.0
 11
-26.00000000000001
 21
6.999999999999999
 31
0.0
  0
ARC
  5
65
330
2F
100
AcDbEntity
  8
A-DETL-GENF
370
25
100
AcDbCircle
 10
-26.00000000000001
 20
7.99999999999978
 30
0.0
 40
0.9999999999997754
100
AcDbArc
 50
179.9999999999999
 51
269.9999999999999
  0
LINE
  5
66
330
2F
100
AcDbEntity
  8
A-DETL-GENF
370
25
100
AcDbLine
 10
-27.0
 20
7.99999999999978
 30
0.0
 11
-27.00000000000005
 21
32.00000000000003
 31
0.0
  0
ARC
  5
67
330
2F
100
AcDbEntity
  8
A-DETL-GENF
370
25
100
AcDbCircle
 10
-25.99999999999994
 20
32.00000000000004
 30
0.0
 40
1.000000000000042
100
AcDbArc
 50
90.0
 51
180.0
  0
LINE
  5
68
330
2F
100
AcDbEntity
  8
A-DETL-GENF
370
25
100
AcDbLine
 10
-25.99999999999994
 20
32.9999999999998
 30
0.0
 11
-12.00000000000008
 21
32.99999999999982
 31
0.0
  0
ARC
  5
69
330
2F
100
AcDbEntity
  8
A-DETL-GENF
370
25
100
AcDbCircle
 10
-12.00000000000008
 20
32.00000000000004
 30
0.0
 40
0.999999999999771
100
AcDbArc
 50
5.089e-13
 51
90.0000000000001
  0
LINE
  5
6A
330
2F
100
AcDbEntity
  8
A-DETL-GENF
370
25
100
AcDbLine
 10
-11.00000000000003
 20
32.00000000000005
 30
0.0
 11
-10.99999999999999
 21
7.999999999999809
 31
0.0
  0
LINE
  5
6B
330
2F
100
AcDbEntity
  8
A-DETL-GENF
100
AcDbLine
 10
-48.05517803435544
 20
24.99999999999992
 30
0.0
 11
-50.00000000000007
 21
24.99999999999991
 31
0.0
  0
ARC
  5
6C
330
2F
100
AcDbEntity
  8
A-DETL-GENF
100
AcDbCircle
 10
-50.00000000000007
 20
23.99999999999993
 30
0.0
 40
0.9999999999999928
100
AcDbArc
 50
90.0
 51
180.0
  0
LINE
  5
6D
330
2F
100
AcDbEntity
  8
A-DETL-GENF
100
AcDbLine
 10
-51.00000000000003
 20
23.99999999999993
 30
0.0
 11
-51.00000000000003
 21
-7.61e-14
 31
0.0
  0
LINE
  5
6E
330
2F
100
AcDbEntity
  8
A-DETL-GENF
100
AcDbLine
 10
-51.00000000000003
 20
-7.61e-14
 30
0.0
 11
-50.20000000000007
 21
-7.61e-14
 31
0.0
  0
LINE
  5
6F
330
2F
100
AcDbEntity
  8
A-DETL-GENF
100
AcDbLine
 10
-50.20000000000007
 20
-7.61e-14
 30
0.0
 11
-50.20000000000007
 21
24.19999999999999
 31
0.0
  0
LINE
  5
70
330
2F
100
AcDbEntity
  8
A-DETL-GENF
100
AcDbLine
 10
-50.20000000000007
 20
24.19999999999999
 30
0.0
 11
-48.05517803435544
 21
24.19999999999999
 31
0.0
  0
LINE
  5
71
330
2F
100
AcDbEntity
  8
A-DETL-GENF
100
AcDbLine
 10
-48.05517803435544
 20
24.19999999999999
 30
0.0
 11
-48.05517803435544
 21
24.99999999999992
 31
0.0
  0
LINE
  5
72
330
2F
100
AcDbEntity
  8
A-DETL-GENF
  6
Streep 1_1
370
13
100
AcDbLine
 10
-17.30497324829076
 20
65.0908546925192
 30
0.0
 11
37.69502675170926
 21
65.09085469251903
 31
0.0
  0
LINE
  5
73
330
2F
100
AcDbEntity
  8
A-DETL-GENF
100
AcDbLine
 10
-12.30497324829075
 20
69.87018810635651
 30
0.0
 11
-12.30497324829078
 21
60.31152127868184
 31
0.0
  0
ENDBLK
  5
31
330
2F
100
AcDbEntity
  8
0
100
AcDbBlockEnd
  0
ENDSEC
  0
SECTION
  2
ENTITIES
  0
INSERT
  5
76
330
17
100
AcDbEntity
  8
0
100
AcDbBlockReference
  2
31 recystel stelkozijn - R2004-1524510-00_0 Basismaterialen
 10
0.0
 20
0.0
 30
0.0
  0
ENDSEC
  0
SECTION
  2
OBJECTS
  0
DICTIONARY
  5
A
330
0
100
AcDbDictionary
281
1
  3
ACAD_COLOR
350
B
  3
ACAD_GROUP
350
C
  3
ACAD_LAYOUT
350
D
  3
ACAD_MATERIAL
350
E
  3
ACAD_MLEADERSTYLE
350
F
  3
ACAD_MLINESTYLE
350
10
  3
ACAD_PLOTSETTINGS
350
11
  3
ACAD_PLOTSTYLENAME
350
12
  3
ACAD_SCALELIST
350
14
  3
ACAD_TABLESTYLE
350
15
  3
ACAD_VISUALSTYLE
350
16
  3
EZDXF_META
350
2D
  0
DICTIONARY
  5
B
330
A
100
AcDbDictionary
281
1
  0
DICTIONARY
  5
C
330
A
100
AcDbDictionary
281
1
  0
DICTIONARY
  5
D
330
A
100
AcDbDictionary
281
1
  3
Model
350
1A
  3
Layout1
350
1E
  0
DICTIONARY
  5
E
330
A
100
AcDbDictionary
281
1
  3
ByBlock
350
1F
  3
ByLayer
350
20
  3
Global
350
21
  0
DICTIONARY
  5
F
330
A
100
AcDbDictionary
281
1
  3
Standard
350
2C
  0
DICTIONARY
  5
10
330
A
100
AcDbDictionary
281
1
  3
Standard
350
22
  0
DICTIONARY
  5
11
330
A
100
AcDbDictionary
281
1
  0
ACDBDICTIONARYWDFLT
  5
12
330
A
100
AcDbDictionary
281
1
  3
Normal
350
13
100
AcDbDictionaryWithDefault
340
13
  0
ACDBPLACEHOLDER
  5
13
330
12
  0
DICTIONARY
  5
14
330
A
100
AcDbDictionary
281
1
  0
DICTIONARY
  5
15
330
A
100
AcDbDictionary
281
1
  0
DICTIONARY
  5
16
330
A
100
AcDbDictionary
281
1
  0
LAYOUT
  5
1A
330
D
100
AcDbPlotSettings
  1

  4
A3
  6

 40
7.5
 41
20.0
 42
7.5
 43
20.0
 44
420.0
 45
297.0
 46
0.0
 47
0.0
 48
0.0
 49
0.0
140
0.0
141
0.0
142
1.0
143
1.0
 70
1024
 72
1
 73
0
 74
5
  7

 75
16
 76
0
 77
2
 78
300
147
1.0
148
0.0
149
0.0
100
AcDbLayout
  1
Model
 70
1
 71
0
 10
0.0
 20
0.0
 11
420.0
 21
297.0
 12
0.0
 22
0.0
 32
0.0
 14
1e+20
 24
1e+20
 34
1e+20
 15
-1e+20
 25
-1e+20
 35
-1e+20
146
0.0
 13
0.0
 23
0.0
 33
0.0
 16
1.0
 26
0.0
 36
0.0
 17
0.0
 27
1.0
 37
0.0
 76
1
330
17
  0
LAYOUT
  5
1E
330
D
100
AcDbPlotSettings
  1

  4
A3
  6

 40
7.5
 41
20.0
 42
7.5
 43
20.0
 44
420.0
 45
297.0
 46
0.0
 47
0.0
 48
0.0
 49
0.0
140
0.0
141
0.0
142
1.0
143
1.0
 70
0
 72
1
 73
0
 74
5
  7

 75
16
 76
0
 77
2
 78
300
147
1.0
148
0.0
149
0.0
100
AcDbLayout
  1
Layout1
 70
1
 71
1
 10
0.0
 20
0.0
 11
420.0
 21
297.0
 12
0.0
 22
0.0
 32
0.0
 14
1e+20
 24
1e+20
 34
1e+20
 15
-1e+20
 25
-1e+20
 35
-1e+20
146
0.0
 13
0.0
 23
0.0
 33
0.0
 16
1.0
 26
0.0
 36
0.0
 17
0.0
 27
1.0
 37
0.0
 76
1
330
1B
  0
MATERIAL
  5
1F
102
{ACAD_REACTORS
330
E
102
}
330
E
100
AcDbMaterial
  1
ByBlock
  2

 70
0
 40
1.0
 71
1
 41
1.0
 91
-1023410177
 42
1.0
 72
1
  3

 73
1
 74
1
 75
1
 44
0.5
 73
0
 45
1.0
 46
1.0
 77
1
  4

 78
1
 79
1
170
1
 48
1.0
171
1
  6

172
1
173
1
174
1
140
1.0
141
1.0
175
1
  7

176
1
177
1
178
1
143
1.0
179
1
  8

270
1
271
1
272
1
145
1.0
146
1.0
273
1
  9

274
1
275
1
276
1
 42
1.0
 72
1
  3

 73
1
 74
1
 75
1
 94
63
  0
MATERIAL
  5
20
102
{ACAD_REACTORS
330
E
102
}
330
E
100
AcDbMaterial
  1
ByLayer
  2

 70
0
 40
1.0
 71
1
 41
1.0
 91
-1023410177
 42
1.0
 72
1
  3

 73
1
 74
1
 75
1
 44
0.5
 73
0
 45
1.0
 46
1.0
 77
1
  4

 78
1
 79
1
170
1
 48
1.0
171
1
  6

172
1
173
1
174
1
140
1.0
141
1.0
175
1
  7

176
1
177
1
178
1
143
1.0
179
1
  8

270
1
271
1
272
1
145
1.0
146
1.0
273
1
  9

274
1
275
1
276
1
 42
1.0
 72
1
  3

 73
1
 74
1
 75
1
 94
63
  0
MATERIAL
  5
21
102
{ACAD_REACTORS
330
E
102
}
330
E
100
AcDbMaterial
  1
Global
  2

 70
0
 40
1.0
 71
1
 41
1.0
 91
-1023410177
 42
1.0
 72
1
  3

 73
1
 74
1
 75
1
 44
0.5
 73
0
 45
1.0
 46
1.0
 77
1
  4

 78
1
 79
1
170
1
 48
1.0
171
1
  6

172
1
173
1
174
1
140
1.0
141
1.0
175
1
  7

176
1
177
1
178
1
143
1.0
179
1
  8

270
1
271
1
272
1
145
1.0
146
1.0
273
1
  9

274
1
275
1
276
1
 42
1.0
 72
1
  3

 73
1
 74
1
 75
1
 94
63
  0
MLINESTYLE
  5
22
102
{ACAD_REACTORS
330
10
102
}
330
10
100
AcDbMlineStyle
  2
Standard
 70
0
  3

 62
256
 51
90.0
 52
90.0
 71
2
 49
0.5
 62
256
  6
BYLAYER
 49
-0.5
 62
256
  6
BYLAYER
  0
MLEADERSTYLE
  5
2C
102
{ACAD_REACTORS
330
F
102
}
330
F
100
AcDbMLeaderStyle
179
2
170
2
171
1
172
0
 90
2
 40
0.0
 41
0.0
173
1
 91
-1056964608
 92
-2
290
1
 42
2.0
291
1
 43
8.0
  3
Standard
 44
4.0
300

342
29
174
1
175
1
176
0
178
1
 93
-1056964608
 45
4.0
292
0
297
0
 46
4.0
 94
-1056964608
 47
1.0
 49
1.0
140
1.0
294
1
141
0.0
177
0
142
1.0
295
0
296
0
143
3.75
271
0
272
9
273
9
  0
DICTIONARY
  5
2D
330
A
100
AcDbDictionary
280
1
281
1
  3
CREATED_BY_EZDXF
350
2E
  3
WRITTEN_BY_EZDXF
350
7A
  0
DICTIONARYVAR
  5
2E
330
2D
100
DictionaryVariables
280
0
  1
1.4.3 @ 2026-02-13T04:54:11.902039+00:00
  0
DICTIONARYVAR
  5
7A
330
2D
100
DictionaryVariables
280
0
  1
1.4.3 @ 2026-02-13T04:54:11.906052+00:00
  0
ENDSEC
  0
EOF
