0
SECTION
2
HEADER
9
$EXTMIN
10
 0
20
 100
30
0.0
9
$EXTMAX
10
 0
20
 100
30
0.0
9
$LIMMIN
10
 100
20
 0
9
$LIMMAX
10
 0
20
 100
9
$PSLTSCALE
70
1
0
ENDSEC
0
SECTION
2
TABLES
0
TABLE
2
LAYER
70
2
0
LAYER
2
0
70
0
62
7
6
CONTINUOUS
0
LAYER
2
Halfen
70
0
62
7
6
CONTINUOUS
0
ENDTAB
0
ENDSEC
0
SECTION
2
ENTITIES
0
POLYLINE
8
Halfen
62
7
66
1
10
0.0
20
0.0
30
0.0
70
1
0
VERTEX
8
Halfen
62
7
10
 0
20
-73.5
30
0
0
VERTEX
8
Halfen
62
7
10
 500
20
-73.5
30
0
0
VERTEX
8
Halfen
62
7
10
 500
20
 73.5
30
0
0
VERTEX
8
Halfen
62
7
10
 0
20
 73.5
30
0
0
SEQEND
8
Halfen
0
POLYLINE
8
Halfen
62
7
66
1
10
0.0
20
0.0
30
0.0
70
1
0
VERTEX
8
Halfen
62
7
10
 0
20
-60
30
0
0
VERTEX
8
Halfen
62
7
10
 500
20
-60
30
0
0
VERTEX
8
Halfen
62
7
10
 500
20
 60
30
0
0
VERTEX
8
Halfen
62
7
10
 0
20
 60
30
0
0
SEQEND
8
Halfen
0
POLYLINE
8
Halfen
62
7
66
1
10
0.0
20
0.0
30
0.0
70
1
0
VERTEX
8
Halfen
62
7
10
 20
20
-32.5
30
0
0
VERTEX
8
Halfen
62
7
10
 37
20
-1.5
30
0
0
VERTEX
8
Halfen
62
7
10
 28
20
-1.5
30
0
0
VERTEX
8
Halfen
62
7
10
 28
20
 32.5
30
0
0
VERTEX
8
Halfen
62
7
10
 12
20
 32.5
30
0
0
VERTEX
8
Halfen
62
7
10
 12
20
-1.5
30
0
0
VERTEX
8
Halfen
62
7
10
 3
20
-1.5
30
0
0
SEQEND
8
Halfen
0
POLYLINE
8
Halfen
62
7
66
1
10
0.0
20
0.0
30
0.0
70
1
0
VERTEX
8
Halfen
62
7
10
 480
20
-32.5
30
0
0
VERTEX
8
Halfen
62
7
10
 497
20
-1.5
30
0
0
VERTEX
8
Halfen
62
7
10
 488
20
-1.5
30
0
0
VERTEX
8
Halfen
62
7
10
 488
20
 32.5
30
0
0
VERTEX
8
Halfen
62
7
10
 472
20
 32.5
30
0
0
VERTEX
8
Halfen
62
7
10
 472
20
-1.5
30
0
0
VERTEX
8
Halfen
62
7
10
 463
20
-1.5
30
0
0
SEQEND
8
Halfen
0
POLYLINE
8
Halfen
62
7
66
1
10
0.0
20
0.0
30
0.0
70
1
0
VERTEX
8
Halfen
62
7
10
 90
20
-815.455
30
0
0
VERTEX
8
Halfen
62
7
10
 90
20
 828.419
30
0
0
VERTEX
8
Halfen
62
7
10
 78
20
 828.419
30
0
0
VERTEX
8
Halfen
62
7
10
 78
20
-815.455
30
0
0
SEQEND
8
Halfen
0
POLYLINE
8
Halfen
62
7
66
1
10
0.0
20
0.0
30
0.0
70
1
0
VERTEX
8
Halfen
62
7
10
 205
20
-815.455
30
0
0
VERTEX
8
Halfen
62
7
10
 205
20
 828.419
30
0
0
VERTEX
8
Halfen
62
7
10
 193
20
 828.419
30
0
0
VERTEX
8
Halfen
62
7
10
 193
20
-815.455
30
0
0
SEQEND
8
Halfen
0
POLYLINE
8
Halfen
62
7
66
1
10
0.0
20
0.0
30
0.0
70
1
0
VERTEX
8
Halfen
62
7
10
 319
20
-815.455
30
0
0
VERTEX
8
Halfen
62
7
10
 319
20
 828.419
30
0
0
VERTEX
8
Halfen
62
7
10
 307
20
 828.419
30
0
0
VERTEX
8
Halfen
62
7
10
 307
20
-815.455
30
0
0
SEQEND
8
Halfen
0
POLYLINE
8
Halfen
62
7
66
1
10
0.0
20
0.0
30
0.0
70
1
0
VERTEX
8
Halfen
62
7
10
 434
20
-815.455
30
0
0
VERTEX
8
Halfen
62
7
10
 434
20
 828.419
30
0
0
VERTEX
8
Halfen
62
7
10
 422
20
 828.419
30
0
0
VERTEX
8
Halfen
62
7
10
 422
20
-815.455
30
0
0
SEQEND
8
Halfen
0
POLYLINE
8
Halfen
62
7
66
1
10
0.0
20
0.0
30
0.0
70
1
0
VERTEX
8
Halfen
62
7
10
 920
20
-60
30
0
0
VERTEX
8
Halfen
62
7
10
 920
20
 60
30
0
0
VERTEX
8
Halfen
62
7
10
 906.5
20
 73.5
30
0
0
VERTEX
8
Halfen
62
7
10
 906.5
20
 60
30
0
0
VERTEX
8
Halfen
62
7
10
 750
20
 60
30
0
0
VERTEX
8
Halfen
62
7
10
 750
20
-60
30
0
0
VERTEX
8
Halfen
62
7
10
 906.5
20
-60
30
0
0
VERTEX
8
Halfen
62
7
10
 906.5
20
-73.5
30
0
0
SEQEND
8
Halfen
0
POLYLINE
8
Halfen
62
7
66
1
10
0.0
20
0.0
30
0.0
70
1
0
VERTEX
8
Halfen
62
7
10
 750
20
-60
30
0
0
VERTEX
8
Halfen
62
7
10
 750
20
 60
30
0
0
VERTEX
8
Halfen
62
7
10
 713.5
20
 60
30
0
0
VERTEX
8
Halfen
62
7
10
 713.5
20
 73.5
30
0
0
VERTEX
8
Halfen
62
7
10
 700
20
 60
30
0
0
VERTEX
8
Halfen
62
7
10
 700
20
-60
30
0
0
VERTEX
8
Halfen
62
7
10
 713.5
20
-73.5
30
0
0
VERTEX
8
Halfen
62
7
10
 713.5
20
-60
30
0
0
SEQEND
8
Halfen
0
POLYLINE
8
Halfen
62
7
66
1
10
0.0
20
0.0
30
0.0
70
1
0
VERTEX
8
Halfen
62
7
10
 917.5
20
-58.75
30
0
0
VERTEX
8
Halfen
62
7
10
 917.5
20
 58.75
30
0
0
VERTEX
8
Halfen
62
7
10
 909
20
 67.25
30
0
0
VERTEX
8
Halfen
62
7
10
 909
20
 58
30
0
0
VERTEX
8
Halfen
62
7
10
 752
20
 58
30
0
0
VERTEX
8
Halfen
62
7
10
 752
20
-58
30
0
0
VERTEX
8
Halfen
62
7
10
 909
20
-58
30
0
0
VERTEX
8
Halfen
62
7
10
 909
20
-67.25
30
0
0
SEQEND
8
Halfen
0
POLYLINE
8
Halfen
62
7
66
1
10
0.0
20
0.0
30
0.0
70
1
0
VERTEX
8
Halfen
62
7
10
 748
20
-58
30
0
0
VERTEX
8
Halfen
62
7
10
 748
20
 58
30
0
0
VERTEX
8
Halfen
62
7
10
 711
20
 58
30
0
0
VERTEX
8
Halfen
62
7
10
 711
20
 67.25
30
0
0
VERTEX
8
Halfen
62
7
10
 702.5
20
 58.75
30
0
0
VERTEX
8
Halfen
62
7
10
 702.5
20
-58.75
30
0
0
VERTEX
8
Halfen
62
7
10
 711
20
-67.25
30
0
0
VERTEX
8
Halfen
62
7
10
 711
20
-58
30
0
0
SEQEND
8
Halfen
0
POLYLINE
8
Halfen
62
7
66
1
10
0.0
20
0.0
30
0.0
70
1
0
VERTEX
8
Halfen
62
7
10
 890
20
-815.455
30
0
0
VERTEX
8
Halfen
62
7
10
 890
20
-100.956
30
0
0
VERTEX
8
Halfen
62
7
10
 889.359
20
-93.137
30
0
0
VERTEX
8
Halfen
62
7
10
 887.453
20
-85.527
30
0
0
VERTEX
8
Halfen
62
7
10
 884.332
20
-78.329
30
0
0
VERTEX
8
Halfen
62
7
10
 880.081
20
-71.735
30
0
0
VERTEX
8
Halfen
62
7
10
 754.439
20
 92.004
30
0
0
VERTEX
8
Halfen
62
7
10
 751.251
20
 96.949
30
0
0
VERTEX
8
Halfen
62
7
10
 748.911
20
 102.348
30
0
0
VERTEX
8
Halfen
62
7
10
 747.481
20
 108.055
30
0
0
VERTEX
8
Halfen
62
7
10
 747
20
 113.919
30
0
0
VERTEX
8
Halfen
62
7
10
 747
20
 167.419
30
0
0
VERTEX
8
Halfen
62
7
10
 747
20
 828.419
30
0
0
VERTEX
8
Halfen
62
7
10
 735
20
 828.419
30
0
0
VERTEX
8
Halfen
62
7
10
 735
20
 167.419
30
0
0
VERTEX
8
Halfen
62
7
10
 735
20
 113.919
30
0
0
VERTEX
8
Halfen
62
7
10
 735.641
20
 106.101
30
0
0
VERTEX
8
Halfen
62
7
10
 737.547
20
 98.49
30
0
0
VERTEX
8
Halfen
62
7
10
 740.668
20
 91.292
30
0
0
VERTEX
8
Halfen
62
7
10
 744.919
20
 84.699
30
0
0
VERTEX
8
Halfen
62
7
10
 870.561
20
-79.04
30
0
0
VERTEX
8
Halfen
62
7
10
 873.749
20
-83.986
30
0
0
VERTEX
8
Halfen
62
7
10
 876.089
20
-89.384
30
0
0
VERTEX
8
Halfen
62
7
10
 877.519
20
-95.092
30
0
0
VERTEX
8
Halfen
62
7
10
 878
20
-100.956
30
0
0
VERTEX
8
Halfen
62
7
10
 878
20
-815.455
30
0
0
SEQEND
8
Halfen
0
ENDSEC
0
EOF
