0
SECTION
2
HEADER
9
$EXTMIN
10
 0
20
 100
30
0.0
9
$EXTMAX
10
 0
20
 100
30
0.0
9
$LIMMIN
10
 100
20
 0
9
$LIMMAX
10
 0
20
 100
9
$PSLTSCALE
70
1
0
ENDSEC
0
SECTION
2
TABLES
0
TABLE
2
LAYER
70
2
0
LAYER
2
0
70
0
62
7
6
CONTINUOUS
0
LAYER
2
Halfen
70
0
62
7
6
CONTINUOUS
0
ENDTAB
0
ENDSEC
0
SECTION
2
ENTITIES
0
POLYLINE
8
Halfen
62
7
66
1
10
0.0
20
0.0
30
0.0
70
1
0
VERTEX
8
Halfen
62
7
10
 0
20
-73.5
30
0
0
VERTEX
8
Halfen
62
7
10
 1000
20
-73.5
30
0
0
VERTEX
8
Halfen
62
7
10
 1000
20
 73.5
30
0
0
VERTEX
8
Halfen
62
7
10
 0
20
 73.5
30
0
0
SEQEND
8
Halfen
0
POLYLINE
8
Halfen
62
7
66
1
10
0.0
20
0.0
30
0.0
70
1
0
VERTEX
8
Halfen
62
7
10
 0
20
-60
30
0
0
VERTEX
8
Halfen
62
7
10
 1000
20
-60
30
0
0
VERTEX
8
Halfen
62
7
10
 1000
20
 60
30
0
0
VERTEX
8
Halfen
62
7
10
 0
20
 60
30
0
0
SEQEND
8
Halfen
0
POLYLINE
8
Halfen
62
7
66
1
10
0.0
20
0.0
30
0.0
70
1
0
VERTEX
8
Halfen
62
7
10
 20
20
-32.5
30
0
0
VERTEX
8
Halfen
62
7
10
 37
20
-1.5
30
0
0
VERTEX
8
Halfen
62
7
10
 28
20
-1.5
30
0
0
VERTEX
8
Halfen
62
7
10
 28
20
 32.5
30
0
0
VERTEX
8
Halfen
62
7
10
 12
20
 32.5
30
0
0
VERTEX
8
Halfen
62
7
10
 12
20
-1.5
30
0
0
VERTEX
8
Halfen
62
7
10
 3
20
-1.5
30
0
0
SEQEND
8
Halfen
0
POLYLINE
8
Halfen
62
7
66
1
10
0.0
20
0.0
30
0.0
70
1
0
VERTEX
8
Halfen
62
7
10
 980
20
-32.5
30
0
0
VERTEX
8
Halfen
62
7
10
 997
20
-1.5
30
0
0
VERTEX
8
Halfen
62
7
10
 988
20
-1.5
30
0
0
VERTEX
8
Halfen
62
7
10
 988
20
 32.5
30
0
0
VERTEX
8
Halfen
62
7
10
 972
20
 32.5
30
0
0
VERTEX
8
Halfen
62
7
10
 972
20
-1.5
30
0
0
VERTEX
8
Halfen
62
7
10
 963
20
-1.5
30
0
0
SEQEND
8
Halfen
0
POLYLINE
8
Halfen
62
7
66
1
10
0.0
20
0.0
30
0.0
70
1
0
VERTEX
8
Halfen
62
7
10
 75
20
-696.961
30
0
0
VERTEX
8
Halfen
62
7
10
 75
20
 745.246
30
0
0
VERTEX
8
Halfen
62
7
10
 65
20
 745.246
30
0
0
VERTEX
8
Halfen
62
7
10
 65
20
-696.961
30
0
0
SEQEND
8
Halfen
0
POLYLINE
8
Halfen
62
7
66
1
10
0.0
20
0.0
30
0.0
70
1
0
VERTEX
8
Halfen
62
7
10
 195
20
-696.961
30
0
0
VERTEX
8
Halfen
62
7
10
 195
20
 745.246
30
0
0
VERTEX
8
Halfen
62
7
10
 185
20
 745.246
30
0
0
VERTEX
8
Halfen
62
7
10
 185
20
-696.961
30
0
0
SEQEND
8
Halfen
0
POLYLINE
8
Halfen
62
7
66
1
10
0.0
20
0.0
30
0.0
70
1
0
VERTEX
8
Halfen
62
7
10
 325
20
-696.961
30
0
0
VERTEX
8
Halfen
62
7
10
 325
20
 745.246
30
0
0
VERTEX
8
Halfen
62
7
10
 315
20
 745.246
30
0
0
VERTEX
8
Halfen
62
7
10
 315
20
-696.961
30
0
0
SEQEND
8
Halfen
0
POLYLINE
8
Halfen
62
7
66
1
10
0.0
20
0.0
30
0.0
70
1
0
VERTEX
8
Halfen
62
7
10
 445
20
-696.961
30
0
0
VERTEX
8
Halfen
62
7
10
 445
20
 745.246
30
0
0
VERTEX
8
Halfen
62
7
10
 435
20
 745.246
30
0
0
VERTEX
8
Halfen
62
7
10
 435
20
-696.961
30
0
0
SEQEND
8
Halfen
0
POLYLINE
8
Halfen
62
7
66
1
10
0.0
20
0.0
30
0.0
70
1
0
VERTEX
8
Halfen
62
7
10
 575
20
-696.961
30
0
0
VERTEX
8
Halfen
62
7
10
 575
20
 745.246
30
0
0
VERTEX
8
Halfen
62
7
10
 565
20
 745.246
30
0
0
VERTEX
8
Halfen
62
7
10
 565
20
-696.961
30
0
0
SEQEND
8
Halfen
0
POLYLINE
8
Halfen
62
7
66
1
10
0.0
20
0.0
30
0.0
70
1
0
VERTEX
8
Halfen
62
7
10
 695
20
-696.961
30
0
0
VERTEX
8
Halfen
62
7
10
 695
20
 745.246
30
0
0
VERTEX
8
Halfen
62
7
10
 685
20
 745.246
30
0
0
VERTEX
8
Halfen
62
7
10
 685
20
-696.961
30
0
0
SEQEND
8
Halfen
0
POLYLINE
8
Halfen
62
7
66
1
10
0.0
20
0.0
30
0.0
70
1
0
VERTEX
8
Halfen
62
7
10
 825
20
-696.961
30
0
0
VERTEX
8
Halfen
62
7
10
 825
20
 745.246
30
0
0
VERTEX
8
Halfen
62
7
10
 815
20
 745.246
30
0
0
VERTEX
8
Halfen
62
7
10
 815
20
-696.961
30
0
0
SEQEND
8
Halfen
0
POLYLINE
8
Halfen
62
7
66
1
10
0.0
20
0.0
30
0.0
70
1
0
VERTEX
8
Halfen
62
7
10
 945
20
-696.961
30
0
0
VERTEX
8
Halfen
62
7
10
 945
20
 745.246
30
0
0
VERTEX
8
Halfen
62
7
10
 935
20
 745.246
30
0
0
VERTEX
8
Halfen
62
7
10
 935
20
-696.961
30
0
0
SEQEND
8
Halfen
0
POLYLINE
8
Halfen
62
7
66
1
10
0.0
20
0.0
30
0.0
70
1
0
VERTEX
8
Halfen
62
7
10
 935
20
-696.961
30
0
0
VERTEX
8
Halfen
62
7
10
 935
20
 745.246
30
0
0
VERTEX
8
Halfen
62
7
10
 925
20
 745.246
30
0
0
VERTEX
8
Halfen
62
7
10
 925
20
-696.961
30
0
0
SEQEND
8
Halfen
0
POLYLINE
8
Halfen
62
7
66
1
10
0.0
20
0.0
30
0.0
70
1
0
VERTEX
8
Halfen
62
7
10
 815
20
-696.961
30
0
0
VERTEX
8
Halfen
62
7
10
 815
20
 745.246
30
0
0
VERTEX
8
Halfen
62
7
10
 805
20
 745.246
30
0
0
VERTEX
8
Halfen
62
7
10
 805
20
-696.961
30
0
0
SEQEND
8
Halfen
0
POLYLINE
8
Halfen
62
7
66
1
10
0.0
20
0.0
30
0.0
70
1
0
VERTEX
8
Halfen
62
7
10
 685
20
-696.961
30
0
0
VERTEX
8
Halfen
62
7
10
 685
20
 745.246
30
0
0
VERTEX
8
Halfen
62
7
10
 675
20
 745.246
30
0
0
VERTEX
8
Halfen
62
7
10
 675
20
-696.961
30
0
0
SEQEND
8
Halfen
0
POLYLINE
8
Halfen
62
7
66
1
10
0.0
20
0.0
30
0.0
70
1
0
VERTEX
8
Halfen
62
7
10
 565
20
-696.961
30
0
0
VERTEX
8
Halfen
62
7
10
 565
20
 745.246
30
0
0
VERTEX
8
Halfen
62
7
10
 555
20
 745.246
30
0
0
VERTEX
8
Halfen
62
7
10
 555
20
-696.961
30
0
0
SEQEND
8
Halfen
0
POLYLINE
8
Halfen
62
7
66
1
10
0.0
20
0.0
30
0.0
70
1
0
VERTEX
8
Halfen
62
7
10
 435
20
-696.961
30
0
0
VERTEX
8
Halfen
62
7
10
 435
20
 745.246
30
0
0
VERTEX
8
Halfen
62
7
10
 425
20
 745.246
30
0
0
VERTEX
8
Halfen
62
7
10
 425
20
-696.961
30
0
0
SEQEND
8
Halfen
0
POLYLINE
8
Halfen
62
7
66
1
10
0.0
20
0.0
30
0.0
70
1
0
VERTEX
8
Halfen
62
7
10
 315
20
-696.961
30
0
0
VERTEX
8
Halfen
62
7
10
 315
20
 745.246
30
0
0
VERTEX
8
Halfen
62
7
10
 305
20
 745.246
30
0
0
VERTEX
8
Halfen
62
7
10
 305
20
-696.961
30
0
0
SEQEND
8
Halfen
0
POLYLINE
8
Halfen
62
7
66
1
10
0.0
20
0.0
30
0.0
70
1
0
VERTEX
8
Halfen
62
7
10
 185
20
-696.961
30
0
0
VERTEX
8
Halfen
62
7
10
 185
20
 745.246
30
0
0
VERTEX
8
Halfen
62
7
10
 175
20
 745.246
30
0
0
VERTEX
8
Halfen
62
7
10
 175
20
-696.961
30
0
0
SEQEND
8
Halfen
0
POLYLINE
8
Halfen
62
7
66
1
10
0.0
20
0.0
30
0.0
70
1
0
VERTEX
8
Halfen
62
7
10
 65
20
-696.961
30
0
0
VERTEX
8
Halfen
62
7
10
 65
20
 745.246
30
0
0
VERTEX
8
Halfen
62
7
10
 55
20
 745.246
30
0
0
VERTEX
8
Halfen
62
7
10
 55
20
-696.961
30
0
0
SEQEND
8
Halfen
0
POLYLINE
8
Halfen
62
7
66
1
10
0.0
20
0.0
30
0.0
70
1
0
VERTEX
8
Halfen
62
7
10
 1500
20
-60
30
0
0
VERTEX
8
Halfen
62
7
10
 1500
20
 60
30
0
0
VERTEX
8
Halfen
62
7
10
 1486.5
20
 73.5
30
0
0
VERTEX
8
Halfen
62
7
10
 1486.5
20
 60
30
0
0
VERTEX
8
Halfen
62
7
10
 1250
20
 60
30
0
0
VERTEX
8
Halfen
62
7
10
 1250
20
-60
30
0
0
VERTEX
8
Halfen
62
7
10
 1486.5
20
-60
30
0
0
VERTEX
8
Halfen
62
7
10
 1486.5
20
-73.5
30
0
0
SEQEND
8
Halfen
0
POLYLINE
8
Halfen
62
7
66
1
10
0.0
20
0.0
30
0.0
70
1
0
VERTEX
8
Halfen
62
7
10
 1250
20
-60
30
0
0
VERTEX
8
Halfen
62
7
10
 1250
20
 60
30
0
0
VERTEX
8
Halfen
62
7
10
 1213.5
20
 60
30
0
0
VERTEX
8
Halfen
62
7
10
 1213.5
20
 73.5
30
0
0
VERTEX
8
Halfen
62
7
10
 1200
20
 60
30
0
0
VERTEX
8
Halfen
62
7
10
 1200
20
-60
30
0
0
VERTEX
8
Halfen
62
7
10
 1213.5
20
-73.5
30
0
0
VERTEX
8
Halfen
62
7
10
 1213.5
20
-60
30
0
0
SEQEND
8
Halfen
0
POLYLINE
8
Halfen
62
7
66
1
10
0.0
20
0.0
30
0.0
70
1
0
VERTEX
8
Halfen
62
7
10
 1497.5
20
-58.75
30
0
0
VERTEX
8
Halfen
62
7
10
 1497.5
20
 58.75
30
0
0
VERTEX
8
Halfen
62
7
10
 1489
20
 67.25
30
0
0
VERTEX
8
Halfen
62
7
10
 1489
20
 58
30
0
0
VERTEX
8
Halfen
62
7
10
 1252
20
 58
30
0
0
VERTEX
8
Halfen
62
7
10
 1252
20
-58
30
0
0
VERTEX
8
Halfen
62
7
10
 1489
20
-58
30
0
0
VERTEX
8
Halfen
62
7
10
 1489
20
-67.25
30
0
0
SEQEND
8
Halfen
0
POLYLINE
8
Halfen
62
7
66
1
10
0.0
20
0.0
30
0.0
70
1
0
VERTEX
8
Halfen
62
7
10
 1248
20
-58
30
0
0
VERTEX
8
Halfen
62
7
10
 1248
20
 58
30
0
0
VERTEX
8
Halfen
62
7
10
 1211
20
 58
30
0
0
VERTEX
8
Halfen
62
7
10
 1211
20
 67.25
30
0
0
VERTEX
8
Halfen
62
7
10
 1202.5
20
 58.75
30
0
0
VERTEX
8
Halfen
62
7
10
 1202.5
20
-58.75
30
0
0
VERTEX
8
Halfen
62
7
10
 1211
20
-67.25
30
0
0
VERTEX
8
Halfen
62
7
10
 1211
20
-58
30
0
0
SEQEND
8
Halfen
0
POLYLINE
8
Halfen
62
7
66
1
10
0.0
20
0.0
30
0.0
70
1
0
VERTEX
8
Halfen
62
7
10
 1470
20
-696.961
30
0
0
VERTEX
8
Halfen
62
7
10
 1470
20
-95.355
30
0
0
VERTEX
8
Halfen
62
7
10
 1469.508
20
-89.098
30
0
0
VERTEX
8
Halfen
62
7
10
 1468.042
20
-82.995
30
0
0
VERTEX
8
Halfen
62
7
10
 1465.64
20
-77.196
30
0
0
VERTEX
8
Halfen
62
7
10
 1462.361
20
-71.844
30
0
0
VERTEX
8
Halfen
62
7
10
 1458.284
20
-67.071
30
0
0
VERTEX
8
Halfen
62
7
10
 1268.787
20
 122.426
30
0
0
VERTEX
8
Halfen
62
7
10
 1265.729
20
 126.006
30
0
0
VERTEX
8
Halfen
62
7
10
 1263.27
20
 130.02
30
0
0
VERTEX
8
Halfen
62
7
10
 1261.468
20
 134.369
30
0
0
VERTEX
8
Halfen
62
7
10
 1260.369
20
 138.947
30
0
0
VERTEX
8
Halfen
62
7
10
 1260
20
 143.64
30
0
0
VERTEX
8
Halfen
62
7
10
 1260
20
 206.246
30
0
0
VERTEX
8
Halfen
62
7
10
 1260
20
 745.246
30
0
0
VERTEX
8
Halfen
62
7
10
 1250
20
 745.246
30
0
0
VERTEX
8
Halfen
62
7
10
 1250
20
 206.246
30
0
0
VERTEX
8
Halfen
62
7
10
 1250
20
 143.64
30
0
0
VERTEX
8
Halfen
62
7
10
 1250.492
20
 137.382
30
0
0
VERTEX
8
Halfen
62
7
10
 1251.958
20
 131.279
30
0
0
VERTEX
8
Halfen
62
7
10
 1254.36
20
 125.48
30
0
0
VERTEX
8
Halfen
62
7
10
 1257.639
20
 120.128
30
0
0
VERTEX
8
Halfen
62
7
10
 1261.716
20
 115.355
30
0
0
VERTEX
8
Halfen
62
7
10
 1451.213
20
-74.142
30
0
0
VERTEX
8
Halfen
62
7
10
 1454.271
20
-77.722
30
0
0
VERTEX
8
Halfen
62
7
10
 1456.73
20
-81.736
30
0
0
VERTEX
8
Halfen
62
7
10
 1458.532
20
-86.085
30
0
0
VERTEX
8
Halfen
62
7
10
 1459.631
20
-90.662
30
0
0
VERTEX
8
Halfen
62
7
10
 1460
20
-95.355
30
0
0
VERTEX
8
Halfen
62
7
10
 1460
20
-696.961
30
0
0
SEQEND
8
Halfen
0
POLYLINE
8
Halfen
62
7
66
1
10
0.0
20
0.0
30
0.0
70
1
0
VERTEX
8
Halfen
62
7
10
 1250
20
-696.961
30
0
0
VERTEX
8
Halfen
62
7
10
 1250
20
-95.355
30
0
0
VERTEX
8
Halfen
62
7
10
 1250.492
20
-89.098
30
0
0
VERTEX
8
Halfen
62
7
10
 1251.958
20
-82.995
30
0
0
VERTEX
8
Halfen
62
7
10
 1254.36
20
-77.196
30
0
0
VERTEX
8
Halfen
62
7
10
 1257.639
20
-71.844
30
0
0
VERTEX
8
Halfen
62
7
10
 1261.716
20
-67.071
30
0
0
VERTEX
8
Halfen
62
7
10
 1451.213
20
 122.426
30
0
0
VERTEX
8
Halfen
62
7
10
 1454.271
20
 126.006
30
0
0
VERTEX
8
Halfen
62
7
10
 1456.73
20
 130.02
30
0
0
VERTEX
8
Halfen
62
7
10
 1458.532
20
 134.369
30
0
0
VERTEX
8
Halfen
62
7
10
 1459.631
20
 138.947
30
0
0
VERTEX
8
Halfen
62
7
10
 1460
20
 143.64
30
0
0
VERTEX
8
Halfen
62
7
10
 1460
20
 206.246
30
0
0
VERTEX
8
Halfen
62
7
10
 1460
20
 745.246
30
0
0
VERTEX
8
Halfen
62
7
10
 1470
20
 745.246
30
0
0
VERTEX
8
Halfen
62
7
10
 1470
20
 206.246
30
0
0
VERTEX
8
Halfen
62
7
10
 1470
20
 143.64
30
0
0
VERTEX
8
Halfen
62
7
10
 1469.508
20
 137.382
30
0
0
VERTEX
8
Halfen
62
7
10
 1468.042
20
 131.279
30
0
0
VERTEX
8
Halfen
62
7
10
 1465.64
20
 125.48
30
0
0
VERTEX
8
Halfen
62
7
10
 1462.361
20
 120.128
30
0
0
VERTEX
8
Halfen
62
7
10
 1458.284
20
 115.355
30
0
0
VERTEX
8
Halfen
62
7
10
 1268.787
20
-74.142
30
0
0
VERTEX
8
Halfen
62
7
10
 1265.729
20
-77.722
30
0
0
VERTEX
8
Halfen
62
7
10
 1263.27
20
-81.736
30
0
0
VERTEX
8
Halfen
62
7
10
 1261.468
20
-86.085
30
0
0
VERTEX
8
Halfen
62
7
10
 1260.369
20
-90.662
30
0
0
VERTEX
8
Halfen
62
7
10
 1260
20
-95.355
30
0
0
VERTEX
8
Halfen
62
7
10
 1260
20
-696.961
30
0
0
SEQEND
8
Halfen
0
ENDSEC
0
EOF
