0
SECTION
2
HEADER
9
$EXTMIN
10
 0
20
 100
30
0.0
9
$EXTMAX
10
 0
20
 100
30
0.0
9
$LIMMIN
10
 100
20
 0
9
$LIMMAX
10
 0
20
 100
9
$PSLTSCALE
70
1
0
ENDSEC
0
SECTION
2
TABLES
0
TABLE
2
LAYER
70
2
0
LAYER
2
0
70
0
62
7
6
CONTINUOUS
0
LAYER
2
Halfen
70
0
62
7
6
CONTINUOUS
0
ENDTAB
0
ENDSEC
0
SECTION
2
ENTITIES
0
POLYLINE
8
Halfen
62
7
66
1
10
0.0
20
0.0
30
0.0
70
1
0
VERTEX
8
Halfen
62
7
10
 0
20
-73.5
30
0
0
VERTEX
8
Halfen
62
7
10
 500
20
-73.5
30
0
0
VERTEX
8
Halfen
62
7
10
 500
20
 73.5
30
0
0
VERTEX
8
Halfen
62
7
10
 0
20
 73.5
30
0
0
SEQEND
8
Halfen
0
POLYLINE
8
Halfen
62
7
66
1
10
0.0
20
0.0
30
0.0
70
1
0
VERTEX
8
Halfen
62
7
10
 0
20
-60
30
0
0
VERTEX
8
Halfen
62
7
10
 500
20
-60
30
0
0
VERTEX
8
Halfen
62
7
10
 500
20
 60
30
0
0
VERTEX
8
Halfen
62
7
10
 0
20
 60
30
0
0
SEQEND
8
Halfen
0
POLYLINE
8
Halfen
62
7
66
1
10
0.0
20
0.0
30
0.0
70
1
0
VERTEX
8
Halfen
62
7
10
 20
20
-32.5
30
0
0
VERTEX
8
Halfen
62
7
10
 37
20
-1.5
30
0
0
VERTEX
8
Halfen
62
7
10
 28
20
-1.5
30
0
0
VERTEX
8
Halfen
62
7
10
 28
20
 32.5
30
0
0
VERTEX
8
Halfen
62
7
10
 12
20
 32.5
30
0
0
VERTEX
8
Halfen
62
7
10
 12
20
-1.5
30
0
0
VERTEX
8
Halfen
62
7
10
 3
20
-1.5
30
0
0
SEQEND
8
Halfen
0
POLYLINE
8
Halfen
62
7
66
1
10
0.0
20
0.0
30
0.0
70
1
0
VERTEX
8
Halfen
62
7
10
 480
20
-32.5
30
0
0
VERTEX
8
Halfen
62
7
10
 497
20
-1.5
30
0
0
VERTEX
8
Halfen
62
7
10
 488
20
-1.5
30
0
0
VERTEX
8
Halfen
62
7
10
 488
20
 32.5
30
0
0
VERTEX
8
Halfen
62
7
10
 472
20
 32.5
30
0
0
VERTEX
8
Halfen
62
7
10
 472
20
-1.5
30
0
0
VERTEX
8
Halfen
62
7
10
 463
20
-1.5
30
0
0
SEQEND
8
Halfen
0
POLYLINE
8
Halfen
62
7
66
1
10
0.0
20
0.0
30
0.0
70
1
0
VERTEX
8
Halfen
62
7
10
 68
20
-775
30
0
0
VERTEX
8
Halfen
62
7
10
 68
20
-160
30
0
0
VERTEX
8
Halfen
62
7
10
 56
20
-160
30
0
0
VERTEX
8
Halfen
62
7
10
 56
20
-775
30
0
0
SEQEND
8
Halfen
0
POLYLINE
8
Halfen
62
7
66
1
10
0.0
20
0.0
30
0.0
70
1
0
VERTEX
8
Halfen
62
7
10
 67.25
20
-160
30
0
0
VERTEX
8
Halfen
62
7
10
 67.25
20
-62
30
0
0
VERTEX
8
Halfen
62
7
10
 56.75
20
-62
30
0
0
VERTEX
8
Halfen
62
7
10
 56.75
20
-160
30
0
0
SEQEND
8
Halfen
0
POLYLINE
8
Halfen
62
7
66
1
10
0.0
20
0.0
30
0.0
70
1
0
VERTEX
8
Halfen
62
7
10
 68
20
-62
30
0
0
VERTEX
8
Halfen
62
7
10
 68
20
-60
30
0
0
VERTEX
8
Halfen
62
7
10
 56
20
-60
30
0
0
VERTEX
8
Halfen
62
7
10
 56
20
-62
30
0
0
SEQEND
8
Halfen
0
POLYLINE
8
Halfen
62
7
66
1
10
0.0
20
0.0
30
0.0
70
1
0
VERTEX
8
Halfen
62
7
10
 67.25
20
-60
30
0
0
VERTEX
8
Halfen
62
7
10
 67.25
20
 60
30
0
0
VERTEX
8
Halfen
62
7
10
 56.75
20
 60
30
0
0
VERTEX
8
Halfen
62
7
10
 56.75
20
-60
30
0
0
SEQEND
8
Halfen
0
POLYLINE
8
Halfen
62
7
66
1
10
0.0
20
0.0
30
0.0
70
1
0
VERTEX
8
Halfen
62
7
10
 68
20
 60
30
0
0
VERTEX
8
Halfen
62
7
10
 68
20
 62
30
0
0
VERTEX
8
Halfen
62
7
10
 56
20
 62
30
0
0
VERTEX
8
Halfen
62
7
10
 56
20
 60
30
0
0
SEQEND
8
Halfen
0
POLYLINE
8
Halfen
62
7
66
1
10
0.0
20
0.0
30
0.0
70
1
0
VERTEX
8
Halfen
62
7
10
 67.25
20
 62
30
0
0
VERTEX
8
Halfen
62
7
10
 67.25
20
 160
30
0
0
VERTEX
8
Halfen
62
7
10
 56.75
20
 160
30
0
0
VERTEX
8
Halfen
62
7
10
 56.75
20
 62
30
0
0
SEQEND
8
Halfen
0
POLYLINE
8
Halfen
62
7
66
1
10
0.0
20
0.0
30
0.0
70
1
0
VERTEX
8
Halfen
62
7
10
 68
20
 160
30
0
0
VERTEX
8
Halfen
62
7
10
 68
20
 775
30
0
0
VERTEX
8
Halfen
62
7
10
 56
20
 775
30
0
0
VERTEX
8
Halfen
62
7
10
 56
20
 160
30
0
0
SEQEND
8
Halfen
0
POLYLINE
8
Halfen
62
7
66
1
10
0.0
20
0.0
30
0.0
70
1
0
VERTEX
8
Halfen
62
7
10
 152
20
-775
30
0
0
VERTEX
8
Halfen
62
7
10
 152
20
-160
30
0
0
VERTEX
8
Halfen
62
7
10
 140
20
-160
30
0
0
VERTEX
8
Halfen
62
7
10
 140
20
-775
30
0
0
SEQEND
8
Halfen
0
POLYLINE
8
Halfen
62
7
66
1
10
0.0
20
0.0
30
0.0
70
1
0
VERTEX
8
Halfen
62
7
10
 151.25
20
-160
30
0
0
VERTEX
8
Halfen
62
7
10
 151.25
20
-62
30
0
0
VERTEX
8
Halfen
62
7
10
 140.75
20
-62
30
0
0
VERTEX
8
Halfen
62
7
10
 140.75
20
-160
30
0
0
SEQEND
8
Halfen
0
POLYLINE
8
Halfen
62
7
66
1
10
0.0
20
0.0
30
0.0
70
1
0
VERTEX
8
Halfen
62
7
10
 152
20
-62
30
0
0
VERTEX
8
Halfen
62
7
10
 152
20
-60
30
0
0
VERTEX
8
Halfen
62
7
10
 140
20
-60
30
0
0
VERTEX
8
Halfen
62
7
10
 140
20
-62
30
0
0
SEQEND
8
Halfen
0
POLYLINE
8
Halfen
62
7
66
1
10
0.0
20
0.0
30
0.0
70
1
0
VERTEX
8
Halfen
62
7
10
 151.25
20
-60
30
0
0
VERTEX
8
Halfen
62
7
10
 151.25
20
 60
30
0
0
VERTEX
8
Halfen
62
7
10
 140.75
20
 60
30
0
0
VERTEX
8
Halfen
62
7
10
 140.75
20
-60
30
0
0
SEQEND
8
Halfen
0
POLYLINE
8
Halfen
62
7
66
1
10
0.0
20
0.0
30
0.0
70
1
0
VERTEX
8
Halfen
62
7
10
 152
20
 60
30
0
0
VERTEX
8
Halfen
62
7
10
 152
20
 62
30
0
0
VERTEX
8
Halfen
62
7
10
 140
20
 62
30
0
0
VERTEX
8
Halfen
62
7
10
 140
20
 60
30
0
0
SEQEND
8
Halfen
0
POLYLINE
8
Halfen
62
7
66
1
10
0.0
20
0.0
30
0.0
70
1
0
VERTEX
8
Halfen
62
7
10
 151.25
20
 62
30
0
0
VERTEX
8
Halfen
62
7
10
 151.25
20
 160
30
0
0
VERTEX
8
Halfen
62
7
10
 140.75
20
 160
30
0
0
VERTEX
8
Halfen
62
7
10
 140.75
20
 62
30
0
0
SEQEND
8
Halfen
0
POLYLINE
8
Halfen
62
7
66
1
10
0.0
20
0.0
30
0.0
70
1
0
VERTEX
8
Halfen
62
7
10
 152
20
 160
30
0
0
VERTEX
8
Halfen
62
7
10
 152
20
 775
30
0
0
VERTEX
8
Halfen
62
7
10
 140
20
 775
30
0
0
VERTEX
8
Halfen
62
7
10
 140
20
 160
30
0
0
SEQEND
8
Halfen
0
POLYLINE
8
Halfen
62
7
66
1
10
0.0
20
0.0
30
0.0
70
1
0
VERTEX
8
Halfen
62
7
10
 332
20
-775
30
0
0
VERTEX
8
Halfen
62
7
10
 332
20
-160
30
0
0
VERTEX
8
Halfen
62
7
10
 320
20
-160
30
0
0
VERTEX
8
Halfen
62
7
10
 320
20
-775
30
0
0
SEQEND
8
Halfen
0
POLYLINE
8
Halfen
62
7
66
1
10
0.0
20
0.0
30
0.0
70
1
0
VERTEX
8
Halfen
62
7
10
 331.25
20
-160
30
0
0
VERTEX
8
Halfen
62
7
10
 331.25
20
-62
30
0
0
VERTEX
8
Halfen
62
7
10
 320.75
20
-62
30
0
0
VERTEX
8
Halfen
62
7
10
 320.75
20
-160
30
0
0
SEQEND
8
Halfen
0
POLYLINE
8
Halfen
62
7
66
1
10
0.0
20
0.0
30
0.0
70
1
0
VERTEX
8
Halfen
62
7
10
 332
20
-62
30
0
0
VERTEX
8
Halfen
62
7
10
 332
20
-60
30
0
0
VERTEX
8
Halfen
62
7
10
 320
20
-60
30
0
0
VERTEX
8
Halfen
62
7
10
 320
20
-62
30
0
0
SEQEND
8
Halfen
0
POLYLINE
8
Halfen
62
7
66
1
10
0.0
20
0.0
30
0.0
70
1
0
VERTEX
8
Halfen
62
7
10
 331.25
20
-60
30
0
0
VERTEX
8
Halfen
62
7
10
 331.25
20
 60
30
0
0
VERTEX
8
Halfen
62
7
10
 320.75
20
 60
30
0
0
VERTEX
8
Halfen
62
7
10
 320.75
20
-60
30
0
0
SEQEND
8
Halfen
0
POLYLINE
8
Halfen
62
7
66
1
10
0.0
20
0.0
30
0.0
70
1
0
VERTEX
8
Halfen
62
7
10
 332
20
 60
30
0
0
VERTEX
8
Halfen
62
7
10
 332
20
 62
30
0
0
VERTEX
8
Halfen
62
7
10
 320
20
 62
30
0
0
VERTEX
8
Halfen
62
7
10
 320
20
 60
30
0
0
SEQEND
8
Halfen
0
POLYLINE
8
Halfen
62
7
66
1
10
0.0
20
0.0
30
0.0
70
1
0
VERTEX
8
Halfen
62
7
10
 331.25
20
 62
30
0
0
VERTEX
8
Halfen
62
7
10
 331.25
20
 160
30
0
0
VERTEX
8
Halfen
62
7
10
 320.75
20
 160
30
0
0
VERTEX
8
Halfen
62
7
10
 320.75
20
 62
30
0
0
SEQEND
8
Halfen
0
POLYLINE
8
Halfen
62
7
66
1
10
0.0
20
0.0
30
0.0
70
1
0
VERTEX
8
Halfen
62
7
10
 332
20
 160
30
0
0
VERTEX
8
Halfen
62
7
10
 332
20
 775
30
0
0
VERTEX
8
Halfen
62
7
10
 320
20
 775
30
0
0
VERTEX
8
Halfen
62
7
10
 320
20
 160
30
0
0
SEQEND
8
Halfen
0
POLYLINE
8
Halfen
62
7
66
1
10
0.0
20
0.0
30
0.0
70
1
0
VERTEX
8
Halfen
62
7
10
 416
20
-775
30
0
0
VERTEX
8
Halfen
62
7
10
 416
20
-160
30
0
0
VERTEX
8
Halfen
62
7
10
 404
20
-160
30
0
0
VERTEX
8
Halfen
62
7
10
 404
20
-775
30
0
0
SEQEND
8
Halfen
0
POLYLINE
8
Halfen
62
7
66
1
10
0.0
20
0.0
30
0.0
70
1
0
VERTEX
8
Halfen
62
7
10
 415.25
20
-160
30
0
0
VERTEX
8
Halfen
62
7
10
 415.25
20
-62
30
0
0
VERTEX
8
Halfen
62
7
10
 404.75
20
-62
30
0
0
VERTEX
8
Halfen
62
7
10
 404.75
20
-160
30
0
0
SEQEND
8
Halfen
0
POLYLINE
8
Halfen
62
7
66
1
10
0.0
20
0.0
30
0.0
70
1
0
VERTEX
8
Halfen
62
7
10
 416
20
-62
30
0
0
VERTEX
8
Halfen
62
7
10
 416
20
-60
30
0
0
VERTEX
8
Halfen
62
7
10
 404
20
-60
30
0
0
VERTEX
8
Halfen
62
7
10
 404
20
-62
30
0
0
SEQEND
8
Halfen
0
POLYLINE
8
Halfen
62
7
66
1
10
0.0
20
0.0
30
0.0
70
1
0
VERTEX
8
Halfen
62
7
10
 415.25
20
-60
30
0
0
VERTEX
8
Halfen
62
7
10
 415.25
20
 60
30
0
0
VERTEX
8
Halfen
62
7
10
 404.75
20
 60
30
0
0
VERTEX
8
Halfen
62
7
10
 404.75
20
-60
30
0
0
SEQEND
8
Halfen
0
POLYLINE
8
Halfen
62
7
66
1
10
0.0
20
0.0
30
0.0
70
1
0
VERTEX
8
Halfen
62
7
10
 416
20
 60
30
0
0
VERTEX
8
Halfen
62
7
10
 416
20
 62
30
0
0
VERTEX
8
Halfen
62
7
10
 404
20
 62
30
0
0
VERTEX
8
Halfen
62
7
10
 404
20
 60
30
0
0
SEQEND
8
Halfen
0
POLYLINE
8
Halfen
62
7
66
1
10
0.0
20
0.0
30
0.0
70
1
0
VERTEX
8
Halfen
62
7
10
 415.25
20
 62
30
0
0
VERTEX
8
Halfen
62
7
10
 415.25
20
 160
30
0
0
VERTEX
8
Halfen
62
7
10
 404.75
20
 160
30
0
0
VERTEX
8
Halfen
62
7
10
 404.75
20
 62
30
0
0
SEQEND
8
Halfen
0
POLYLINE
8
Halfen
62
7
66
1
10
0.0
20
0.0
30
0.0
70
1
0
VERTEX
8
Halfen
62
7
10
 416
20
 160
30
0
0
VERTEX
8
Halfen
62
7
10
 416
20
 775
30
0
0
VERTEX
8
Halfen
62
7
10
 404
20
 775
30
0
0
VERTEX
8
Halfen
62
7
10
 404
20
 160
30
0
0
SEQEND
8
Halfen
0
POLYLINE
8
Halfen
62
7
66
1
10
0.0
20
0.0
30
0.0
70
1
0
VERTEX
8
Halfen
62
7
10
 98
20
-454.298
30
0
0
VERTEX
8
Halfen
62
7
10
 98
20
 459.026
30
0
0
VERTEX
8
Halfen
62
7
10
 92
20
 459.026
30
0
0
VERTEX
8
Halfen
62
7
10
 92
20
-454.298
30
0
0
SEQEND
8
Halfen
0
POLYLINE
8
Halfen
62
7
66
1
10
0.0
20
0.0
30
0.0
70
1
0
VERTEX
8
Halfen
62
7
10
 104
20
-459.026
30
0
0
VERTEX
8
Halfen
62
7
10
 104
20
 454.298
30
0
0
VERTEX
8
Halfen
62
7
10
 98
20
 454.298
30
0
0
VERTEX
8
Halfen
62
7
10
 98
20
-459.026
30
0
0
SEQEND
8
Halfen
0
POLYLINE
8
Halfen
62
7
66
1
10
0.0
20
0.0
30
0.0
70
1
0
VERTEX
8
Halfen
62
7
10
 362
20
-454.298
30
0
0
VERTEX
8
Halfen
62
7
10
 362
20
 459.026
30
0
0
VERTEX
8
Halfen
62
7
10
 356
20
 459.026
30
0
0
VERTEX
8
Halfen
62
7
10
 356
20
-454.298
30
0
0
SEQEND
8
Halfen
0
POLYLINE
8
Halfen
62
7
66
1
10
0.0
20
0.0
30
0.0
70
1
0
VERTEX
8
Halfen
62
7
10
 368
20
-459.026
30
0
0
VERTEX
8
Halfen
62
7
10
 368
20
 454.298
30
0
0
VERTEX
8
Halfen
62
7
10
 362
20
 454.298
30
0
0
VERTEX
8
Halfen
62
7
10
 362
20
-459.026
30
0
0
SEQEND
8
Halfen
0
POLYLINE
8
Halfen
62
7
66
1
10
0.0
20
0.0
30
0.0
70
1
0
VERTEX
8
Halfen
62
7
10
 940
20
-60
30
0
0
VERTEX
8
Halfen
62
7
10
 940
20
 60
30
0
0
VERTEX
8
Halfen
62
7
10
 926.5
20
 73.5
30
0
0
VERTEX
8
Halfen
62
7
10
 926.5
20
 60
30
0
0
VERTEX
8
Halfen
62
7
10
 750
20
 60
30
0
0
VERTEX
8
Halfen
62
7
10
 750
20
-60
30
0
0
VERTEX
8
Halfen
62
7
10
 926.5
20
-60
30
0
0
VERTEX
8
Halfen
62
7
10
 926.5
20
-73.5
30
0
0
SEQEND
8
Halfen
0
POLYLINE
8
Halfen
62
7
66
1
10
0.0
20
0.0
30
0.0
70
1
0
VERTEX
8
Halfen
62
7
10
 750
20
-60
30
0
0
VERTEX
8
Halfen
62
7
10
 750
20
 60
30
0
0
VERTEX
8
Halfen
62
7
10
 713.5
20
 60
30
0
0
VERTEX
8
Halfen
62
7
10
 713.5
20
 73.5
30
0
0
VERTEX
8
Halfen
62
7
10
 700
20
 60
30
0
0
VERTEX
8
Halfen
62
7
10
 700
20
-60
30
0
0
VERTEX
8
Halfen
62
7
10
 713.5
20
-73.5
30
0
0
VERTEX
8
Halfen
62
7
10
 713.5
20
-60
30
0
0
SEQEND
8
Halfen
0
POLYLINE
8
Halfen
62
7
66
1
10
0.0
20
0.0
30
0.0
70
1
0
VERTEX
8
Halfen
62
7
10
 937.5
20
-58.75
30
0
0
VERTEX
8
Halfen
62
7
10
 937.5
20
 58.75
30
0
0
VERTEX
8
Halfen
62
7
10
 929
20
 67.25
30
0
0
VERTEX
8
Halfen
62
7
10
 929
20
 58
30
0
0
VERTEX
8
Halfen
62
7
10
 752
20
 58
30
0
0
VERTEX
8
Halfen
62
7
10
 752
20
-58
30
0
0
VERTEX
8
Halfen
62
7
10
 929
20
-58
30
0
0
VERTEX
8
Halfen
62
7
10
 929
20
-67.25
30
0
0
SEQEND
8
Halfen
0
POLYLINE
8
Halfen
62
7
66
1
10
0.0
20
0.0
30
0.0
70
1
0
VERTEX
8
Halfen
62
7
10
 748
20
-58
30
0
0
VERTEX
8
Halfen
62
7
10
 748
20
 58
30
0
0
VERTEX
8
Halfen
62
7
10
 711
20
 58
30
0
0
VERTEX
8
Halfen
62
7
10
 711
20
 67.25
30
0
0
VERTEX
8
Halfen
62
7
10
 702.5
20
 58.75
30
0
0
VERTEX
8
Halfen
62
7
10
 702.5
20
-58.75
30
0
0
VERTEX
8
Halfen
62
7
10
 711
20
-67.25
30
0
0
VERTEX
8
Halfen
62
7
10
 711
20
-58
30
0
0
SEQEND
8
Halfen
0
POLYLINE
8
Halfen
62
7
66
1
10
0.0
20
0.0
30
0.0
70
1
0
VERTEX
8
Halfen
62
7
10
 742
20
-775
30
0
0
VERTEX
8
Halfen
62
7
10
 742
20
-160
30
0
0
VERTEX
8
Halfen
62
7
10
 730
20
-160
30
0
0
VERTEX
8
Halfen
62
7
10
 730
20
-775
30
0
0
SEQEND
8
Halfen
0
POLYLINE
8
Halfen
62
7
66
1
10
0.0
20
0.0
30
0.0
70
1
0
VERTEX
8
Halfen
62
7
10
 741.25
20
-160
30
0
0
VERTEX
8
Halfen
62
7
10
 741.25
20
-62
30
0
0
VERTEX
8
Halfen
62
7
10
 730.75
20
-62
30
0
0
VERTEX
8
Halfen
62
7
10
 730.75
20
-160
30
0
0
SEQEND
8
Halfen
0
POLYLINE
8
Halfen
62
7
66
1
10
0.0
20
0.0
30
0.0
70
1
0
VERTEX
8
Halfen
62
7
10
 742
20
-62
30
0
0
VERTEX
8
Halfen
62
7
10
 742
20
-60
30
0
0
VERTEX
8
Halfen
62
7
10
 730
20
-60
30
0
0
VERTEX
8
Halfen
62
7
10
 730
20
-62
30
0
0
SEQEND
8
Halfen
0
POLYLINE
8
Halfen
62
7
66
1
10
0.0
20
0.0
30
0.0
70
1
0
VERTEX
8
Halfen
62
7
10
 741.25
20
-60
30
0
0
VERTEX
8
Halfen
62
7
10
 741.25
20
 60
30
0
0
VERTEX
8
Halfen
62
7
10
 730.75
20
 60
30
0
0
VERTEX
8
Halfen
62
7
10
 730.75
20
-60
30
0
0
SEQEND
8
Halfen
0
POLYLINE
8
Halfen
62
7
66
1
10
0.0
20
0.0
30
0.0
70
1
0
VERTEX
8
Halfen
62
7
10
 742
20
 60
30
0
0
VERTEX
8
Halfen
62
7
10
 742
20
 62
30
0
0
VERTEX
8
Halfen
62
7
10
 730
20
 62
30
0
0
VERTEX
8
Halfen
62
7
10
 730
20
 60
30
0
0
SEQEND
8
Halfen
0
POLYLINE
8
Halfen
62
7
66
1
10
0.0
20
0.0
30
0.0
70
1
0
VERTEX
8
Halfen
62
7
10
 741.25
20
 62
30
0
0
VERTEX
8
Halfen
62
7
10
 741.25
20
 160
30
0
0
VERTEX
8
Halfen
62
7
10
 730.75
20
 160
30
0
0
VERTEX
8
Halfen
62
7
10
 730.75
20
 62
30
0
0
SEQEND
8
Halfen
0
POLYLINE
8
Halfen
62
7
66
1
10
0.0
20
0.0
30
0.0
70
1
0
VERTEX
8
Halfen
62
7
10
 742
20
 160
30
0
0
VERTEX
8
Halfen
62
7
10
 742
20
 775
30
0
0
VERTEX
8
Halfen
62
7
10
 730
20
 775
30
0
0
VERTEX
8
Halfen
62
7
10
 730
20
 160
30
0
0
SEQEND
8
Halfen
0
POLYLINE
8
Halfen
62
7
66
1
10
0.0
20
0.0
30
0.0
70
1
0
VERTEX
8
Halfen
62
7
10
 910
20
-775
30
0
0
VERTEX
8
Halfen
62
7
10
 910
20
-160
30
0
0
VERTEX
8
Halfen
62
7
10
 898
20
-160
30
0
0
VERTEX
8
Halfen
62
7
10
 898
20
-775
30
0
0
SEQEND
8
Halfen
0
POLYLINE
8
Halfen
62
7
66
1
10
0.0
20
0.0
30
0.0
70
1
0
VERTEX
8
Halfen
62
7
10
 909.25
20
-160
30
0
0
VERTEX
8
Halfen
62
7
10
 909.25
20
-62
30
0
0
VERTEX
8
Halfen
62
7
10
 898.75
20
-62
30
0
0
VERTEX
8
Halfen
62
7
10
 898.75
20
-160
30
0
0
SEQEND
8
Halfen
0
POLYLINE
8
Halfen
62
7
66
1
10
0.0
20
0.0
30
0.0
70
1
0
VERTEX
8
Halfen
62
7
10
 910
20
-62
30
0
0
VERTEX
8
Halfen
62
7
10
 910
20
-60
30
0
0
VERTEX
8
Halfen
62
7
10
 898
20
-60
30
0
0
VERTEX
8
Halfen
62
7
10
 898
20
-62
30
0
0
SEQEND
8
Halfen
0
POLYLINE
8
Halfen
62
7
66
1
10
0.0
20
0.0
30
0.0
70
1
0
VERTEX
8
Halfen
62
7
10
 909.25
20
-60
30
0
0
VERTEX
8
Halfen
62
7
10
 909.25
20
 60
30
0
0
VERTEX
8
Halfen
62
7
10
 898.75
20
 60
30
0
0
VERTEX
8
Halfen
62
7
10
 898.75
20
-60
30
0
0
SEQEND
8
Halfen
0
POLYLINE
8
Halfen
62
7
66
1
10
0.0
20
0.0
30
0.0
70
1
0
VERTEX
8
Halfen
62
7
10
 910
20
 60
30
0
0
VERTEX
8
Halfen
62
7
10
 910
20
 62
30
0
0
VERTEX
8
Halfen
62
7
10
 898
20
 62
30
0
0
VERTEX
8
Halfen
62
7
10
 898
20
 60
30
0
0
SEQEND
8
Halfen
0
POLYLINE
8
Halfen
62
7
66
1
10
0.0
20
0.0
30
0.0
70
1
0
VERTEX
8
Halfen
62
7
10
 909.25
20
 62
30
0
0
VERTEX
8
Halfen
62
7
10
 909.25
20
 160
30
0
0
VERTEX
8
Halfen
62
7
10
 898.75
20
 160
30
0
0
VERTEX
8
Halfen
62
7
10
 898.75
20
 62
30
0
0
SEQEND
8
Halfen
0
POLYLINE
8
Halfen
62
7
66
1
10
0.0
20
0.0
30
0.0
70
1
0
VERTEX
8
Halfen
62
7
10
 910
20
 160
30
0
0
VERTEX
8
Halfen
62
7
10
 910
20
 775
30
0
0
VERTEX
8
Halfen
62
7
10
 898
20
 775
30
0
0
VERTEX
8
Halfen
62
7
10
 898
20
 160
30
0
0
SEQEND
8
Halfen
0
POLYLINE
8
Halfen
62
7
66
1
10
0.0
20
0.0
30
0.0
70
1
0
VERTEX
8
Halfen
62
7
10
 910
20
-454.298
30
0
0
VERTEX
8
Halfen
62
7
10
 910
20
-83.335
30
0
0
VERTEX
8
Halfen
62
7
10
 909.705
20
-79.58
30
0
0
VERTEX
8
Halfen
62
7
10
 908.825
20
-75.918
30
0
0
VERTEX
8
Halfen
62
7
10
 907.384
20
-72.439
30
0
0
VERTEX
8
Halfen
62
7
10
 905.416
20
-69.228
30
0
0
VERTEX
8
Halfen
62
7
10
 902.971
20
-66.364
30
0
0
VERTEX
8
Halfen
62
7
10
 761.272
20
 75.335
30
0
0
VERTEX
8
Halfen
62
7
10
 759.438
20
 77.482
30
0
0
VERTEX
8
Halfen
62
7
10
 757.962
20
 79.891
30
0
0
VERTEX
8
Halfen
62
7
10
 756.881
20
 82.5
30
0
0
VERTEX
8
Halfen
62
7
10
 756.222
20
 85.247
30
0
0
VERTEX
8
Halfen
62
7
10
 756
20
 88.062
30
0
0
VERTEX
8
Halfen
62
7
10
 756
20
 459.026
30
0
0
VERTEX
8
Halfen
62
7
10
 750
20
 459.026
30
0
0
VERTEX
8
Halfen
62
7
10
 750
20
 88.062
30
0
0
VERTEX
8
Halfen
62
7
10
 750.295
20
 84.308
30
0
0
VERTEX
8
Halfen
62
7
10
 751.175
20
 80.646
30
0
0
VERTEX
8
Halfen
62
7
10
 752.616
20
 77.167
30
0
0
VERTEX
8
Halfen
62
7
10
 754.584
20
 73.956
30
0
0
VERTEX
8
Halfen
62
7
10
 757.029
20
 71.092
30
0
0
VERTEX
8
Halfen
62
7
10
 898.728
20
-70.607
30
0
0
VERTEX
8
Halfen
62
7
10
 900.562
20
-72.754
30
0
0
VERTEX
8
Halfen
62
7
10
 902.038
20
-75.163
30
0
0
VERTEX
8
Halfen
62
7
10
 903.119
20
-77.772
30
0
0
VERTEX
8
Halfen
62
7
10
 903.778
20
-80.519
30
0
0
VERTEX
8
Halfen
62
7
10
 904
20
-83.335
30
0
0
VERTEX
8
Halfen
62
7
10
 904
20
-454.298
30
0
0
SEQEND
8
Halfen
0
POLYLINE
8
Halfen
62
7
66
1
10
0.0
20
0.0
30
0.0
70
1
0
VERTEX
8
Halfen
62
7
10
 750
20
-459.026
30
0
0
VERTEX
8
Halfen
62
7
10
 750
20
-88.062
30
0
0
VERTEX
8
Halfen
62
7
10
 750.295
20
-84.308
30
0
0
VERTEX
8
Halfen
62
7
10
 751.175
20
-80.646
30
0
0
VERTEX
8
Halfen
62
7
10
 752.616
20
-77.167
30
0
0
VERTEX
8
Halfen
62
7
10
 754.584
20
-73.956
30
0
0
VERTEX
8
Halfen
62
7
10
 757.029
20
-71.092
30
0
0
VERTEX
8
Halfen
62
7
10
 898.728
20
 70.607
30
0
0
VERTEX
8
Halfen
62
7
10
 900.562
20
 72.754
30
0
0
VERTEX
8
Halfen
62
7
10
 902.038
20
 75.163
30
0
0
VERTEX
8
Halfen
62
7
10
 903.119
20
 77.772
30
0
0
VERTEX
8
Halfen
62
7
10
 903.778
20
 80.519
30
0
0
VERTEX
8
Halfen
62
7
10
 904
20
 83.335
30
0
0
VERTEX
8
Halfen
62
7
10
 904
20
 454.298
30
0
0
VERTEX
8
Halfen
62
7
10
 910
20
 454.298
30
0
0
VERTEX
8
Halfen
62
7
10
 910
20
 83.335
30
0
0
VERTEX
8
Halfen
62
7
10
 909.705
20
 79.58
30
0
0
VERTEX
8
Halfen
62
7
10
 908.825
20
 75.918
30
0
0
VERTEX
8
Halfen
62
7
10
 907.384
20
 72.439
30
0
0
VERTEX
8
Halfen
62
7
10
 905.416
20
 69.228
30
0
0
VERTEX
8
Halfen
62
7
10
 902.971
20
 66.364
30
0
0
VERTEX
8
Halfen
62
7
10
 761.272
20
-75.334
30
0
0
VERTEX
8
Halfen
62
7
10
 759.438
20
-77.482
30
0
0
VERTEX
8
Halfen
62
7
10
 757.962
20
-79.891
30
0
0
VERTEX
8
Halfen
62
7
10
 756.881
20
-82.5
30
0
0
VERTEX
8
Halfen
62
7
10
 756.222
20
-85.247
30
0
0
VERTEX
8
Halfen
62
7
10
 756
20
-88.062
30
0
0
VERTEX
8
Halfen
62
7
10
 756
20
-459.026
30
0
0
SEQEND
8
Halfen
0
ENDSEC
0
EOF
