0
SECTION
2
HEADER
9
$EXTMIN
10
 0
20
 100
30
0.0
9
$EXTMAX
10
 0
20
 100
30
0.0
9
$LIMMIN
10
 100
20
 0
9
$LIMMAX
10
 0
20
 100
9
$PSLTSCALE
70
1
0
ENDSEC
0
SECTION
2
TABLES
0
TABLE
2
LAYER
70
2
0
LAYER
2
0
70
0
62
7
6
CONTINUOUS
0
LAYER
2
Halfen
70
0
62
7
6
CONTINUOUS
0
ENDTAB
0
ENDSEC
0
SECTION
2
ENTITIES
0
POLYLINE
8
Halfen
62
7
66
1
10
0.0
20
0.0
30
0.0
70
1
0
VERTEX
8
Halfen
62
7
10
 0
20
-73.5
30
0
0
VERTEX
8
Halfen
62
7
10
 250
20
-73.5
30
0
0
VERTEX
8
Halfen
62
7
10
 250
20
 73.5
30
0
0
VERTEX
8
Halfen
62
7
10
 0
20
 73.5
30
0
0
SEQEND
8
Halfen
0
POLYLINE
8
Halfen
62
7
66
1
10
0.0
20
0.0
30
0.0
70
1
0
VERTEX
8
Halfen
62
7
10
 0
20
-60
30
0
0
VERTEX
8
Halfen
62
7
10
 250
20
-60
30
0
0
VERTEX
8
Halfen
62
7
10
 250
20
 60
30
0
0
VERTEX
8
Halfen
62
7
10
 0
20
 60
30
0
0
SEQEND
8
Halfen
0
POLYLINE
8
Halfen
62
7
66
1
10
0.0
20
0.0
30
0.0
70
1
0
VERTEX
8
Halfen
62
7
10
 20
20
-32.5
30
0
0
VERTEX
8
Halfen
62
7
10
 37
20
-1.5
30
0
0
VERTEX
8
Halfen
62
7
10
 28
20
-1.5
30
0
0
VERTEX
8
Halfen
62
7
10
 28
20
 32.5
30
0
0
VERTEX
8
Halfen
62
7
10
 12
20
 32.5
30
0
0
VERTEX
8
Halfen
62
7
10
 12
20
-1.5
30
0
0
VERTEX
8
Halfen
62
7
10
 3
20
-1.5
30
0
0
SEQEND
8
Halfen
0
POLYLINE
8
Halfen
62
7
66
1
10
0.0
20
0.0
30
0.0
70
1
0
VERTEX
8
Halfen
62
7
10
 230
20
-32.5
30
0
0
VERTEX
8
Halfen
62
7
10
 247
20
-1.5
30
0
0
VERTEX
8
Halfen
62
7
10
 238
20
-1.5
30
0
0
VERTEX
8
Halfen
62
7
10
 238
20
 32.5
30
0
0
VERTEX
8
Halfen
62
7
10
 222
20
 32.5
30
0
0
VERTEX
8
Halfen
62
7
10
 222
20
-1.5
30
0
0
VERTEX
8
Halfen
62
7
10
 213
20
-1.5
30
0
0
SEQEND
8
Halfen
0
POLYLINE
8
Halfen
62
7
66
1
10
0.0
20
0.0
30
0.0
70
1
0
VERTEX
8
Halfen
62
7
10
 75
20
-697.88
30
0
0
VERTEX
8
Halfen
62
7
10
 75
20
 702.801
30
0
0
VERTEX
8
Halfen
62
7
10
 65
20
 702.801
30
0
0
VERTEX
8
Halfen
62
7
10
 65
20
-697.88
30
0
0
SEQEND
8
Halfen
0
POLYLINE
8
Halfen
62
7
66
1
10
0.0
20
0.0
30
0.0
70
1
0
VERTEX
8
Halfen
62
7
10
 195
20
-697.88
30
0
0
VERTEX
8
Halfen
62
7
10
 195
20
 702.801
30
0
0
VERTEX
8
Halfen
62
7
10
 185
20
 702.801
30
0
0
VERTEX
8
Halfen
62
7
10
 185
20
-697.88
30
0
0
SEQEND
8
Halfen
0
POLYLINE
8
Halfen
62
7
66
1
10
0.0
20
0.0
30
0.0
70
1
0
VERTEX
8
Halfen
62
7
10
 690
20
-60
30
0
0
VERTEX
8
Halfen
62
7
10
 690
20
 60
30
0
0
VERTEX
8
Halfen
62
7
10
 676.5
20
 73.5
30
0
0
VERTEX
8
Halfen
62
7
10
 676.5
20
 60
30
0
0
VERTEX
8
Halfen
62
7
10
 500
20
 60
30
0
0
VERTEX
8
Halfen
62
7
10
 500
20
-60
30
0
0
VERTEX
8
Halfen
62
7
10
 676.5
20
-60
30
0
0
VERTEX
8
Halfen
62
7
10
 676.5
20
-73.5
30
0
0
SEQEND
8
Halfen
0
POLYLINE
8
Halfen
62
7
66
1
10
0.0
20
0.0
30
0.0
70
1
0
VERTEX
8
Halfen
62
7
10
 500
20
-60
30
0
0
VERTEX
8
Halfen
62
7
10
 500
20
 60
30
0
0
VERTEX
8
Halfen
62
7
10
 463.5
20
 60
30
0
0
VERTEX
8
Halfen
62
7
10
 463.5
20
 73.5
30
0
0
VERTEX
8
Halfen
62
7
10
 450
20
 60
30
0
0
VERTEX
8
Halfen
62
7
10
 450
20
-60
30
0
0
VERTEX
8
Halfen
62
7
10
 463.5
20
-73.5
30
0
0
VERTEX
8
Halfen
62
7
10
 463.5
20
-60
30
0
0
SEQEND
8
Halfen
0
POLYLINE
8
Halfen
62
7
66
1
10
0.0
20
0.0
30
0.0
70
1
0
VERTEX
8
Halfen
62
7
10
 687.5
20
-58.75
30
0
0
VERTEX
8
Halfen
62
7
10
 687.5
20
 58.75
30
0
0
VERTEX
8
Halfen
62
7
10
 679
20
 67.25
30
0
0
VERTEX
8
Halfen
62
7
10
 679
20
 58
30
0
0
VERTEX
8
Halfen
62
7
10
 502
20
 58
30
0
0
VERTEX
8
Halfen
62
7
10
 502
20
-58
30
0
0
VERTEX
8
Halfen
62
7
10
 679
20
-58
30
0
0
VERTEX
8
Halfen
62
7
10
 679
20
-67.25
30
0
0
SEQEND
8
Halfen
0
POLYLINE
8
Halfen
62
7
66
1
10
0.0
20
0.0
30
0.0
70
1
0
VERTEX
8
Halfen
62
7
10
 498
20
-58
30
0
0
VERTEX
8
Halfen
62
7
10
 498
20
 58
30
0
0
VERTEX
8
Halfen
62
7
10
 461
20
 58
30
0
0
VERTEX
8
Halfen
62
7
10
 461
20
 67.25
30
0
0
VERTEX
8
Halfen
62
7
10
 452.5
20
 58.75
30
0
0
VERTEX
8
Halfen
62
7
10
 452.5
20
-58.75
30
0
0
VERTEX
8
Halfen
62
7
10
 461
20
-67.25
30
0
0
VERTEX
8
Halfen
62
7
10
 461
20
-58
30
0
0
SEQEND
8
Halfen
0
POLYLINE
8
Halfen
62
7
66
1
10
0.0
20
0.0
30
0.0
70
1
0
VERTEX
8
Halfen
62
7
10
 660
20
-697.88
30
0
0
VERTEX
8
Halfen
62
7
10
 660
20
-94.13
30
0
0
VERTEX
8
Halfen
62
7
10
 659.466
20
-87.614
30
0
0
VERTEX
8
Halfen
62
7
10
 657.877
20
-81.272
30
0
0
VERTEX
8
Halfen
62
7
10
 655.277
20
-75.274
30
0
0
VERTEX
8
Halfen
62
7
10
 651.734
20
-69.779
30
0
0
VERTEX
8
Halfen
62
7
10
 536.199
20
 80.788
30
0
0
VERTEX
8
Halfen
62
7
10
 533.542
20
 84.909
30
0
0
VERTEX
8
Halfen
62
7
10
 531.592
20
 89.408
30
0
0
VERTEX
8
Halfen
62
7
10
 530.401
20
 94.164
30
0
0
VERTEX
8
Halfen
62
7
10
 530
20
 99.051
30
0
0
VERTEX
8
Halfen
62
7
10
 530
20
 163.801
30
0
0
VERTEX
8
Halfen
62
7
10
 530
20
 702.801
30
0
0
VERTEX
8
Halfen
62
7
10
 520
20
 702.801
30
0
0
VERTEX
8
Halfen
62
7
10
 520
20
 163.801
30
0
0
VERTEX
8
Halfen
62
7
10
 520
20
 99.051
30
0
0
VERTEX
8
Halfen
62
7
10
 520.534
20
 92.535
30
0
0
VERTEX
8
Halfen
62
7
10
 522.123
20
 86.194
30
0
0
VERTEX
8
Halfen
62
7
10
 524.723
20
 80.195
30
0
0
VERTEX
8
Halfen
62
7
10
 528.266
20
 74.701
30
0
0
VERTEX
8
Halfen
62
7
10
 643.801
20
-75.867
30
0
0
VERTEX
8
Halfen
62
7
10
 646.458
20
-79.988
30
0
0
VERTEX
8
Halfen
62
7
10
 648.408
20
-84.487
30
0
0
VERTEX
8
Halfen
62
7
10
 649.599
20
-89.243
30
0
0
VERTEX
8
Halfen
62
7
10
 650
20
-94.13
30
0
0
VERTEX
8
Halfen
62
7
10
 650
20
-697.88
30
0
0
SEQEND
8
Halfen
0
ENDSEC
0
EOF
