  0
SECTION
  2
HEADER
  9
$ACADVER
  1
AC1018
  9
$ACADMAINTVER
 70
    39
  9
$DWGCODEPAGE
  3
ANSI_1252
  9
$LASTSAVEDBY
  1
uhlaender
  9
$INSBASE
 10
-57.74999999999991
 20
2312.964999999998
 30
0.0
  9
$EXTMIN
 10
-218.1487267993757
 20
1889.748940280639
 30
-0.0000000349181948
  9
$EXTMAX
 10
252.2931460682553
 20
2636.872573891837
 30
0.0000000814935746
  9
$LIMMIN
 10
0.0
 20
0.0
  9
$LIMMAX
 10
841.0
 20
1189.0
  9
$ORTHOMODE
 70
     1
  9
$REGENMODE
 70
     1
  9
$FILLMODE
 70
     1
  9
$QTEXTMODE
 70
     0
  9
$MIRRTEXT
 70
     1
  9
$LTSCALE
 40
10.0
  9
$ATTMODE
 70
     1
  9
$TEXTSIZE
 40
3.5
  9
$TRACEWID
 40
0.05
  9
$TEXTSTYLE
  7
ARIAL50
  9
$CLAYER
  8
HALFEN
  9
$CELTYPE
  6
BYLAYER
  9
$CECOLOR
 62
   256
  9
$CELTSCALE
 40
1.0
  9
$DISPSILH
 70
     0
  9
$DIMSCALE
 40
1.0
  9
$DIMASZ
 40
2.5
  9
$DIMEXO
 40
1.0
  9
$DIMDLI
 40
10.0
  9
$DIMRND
 40
0.0
  9
$DIMDLE
 40
0.0
  9
$DIMEXE
 40
1.0
  9
$DIMTP
 40
0.1
  9
$DIMTM
 40
0.1
  9
$DIMTXT
 40
3.5
  9
$DIMCEN
 40
0.0
  9
$DIMTSZ
 40
0.0
  9
$DIMTOL
 70
     0
  9
$DIMLIM
 70
     0
  9
$DIMTIH
 70
     0
  9
$DIMTOH
 70
     0
  9
$DIMSE1
 70
     0
  9
$DIMSE2
 70
     0
  9
$DIMTAD
 70
     1
  9
$DIMZIN
 70
     8
  9
$DIMBLK
  1

  9
$DIMASO
 70
     1
  9
$DIMSHO
 70
     1
  9
$DIMPOST
  1

  9
$DIMAPOST
  1

  9
$DIMALT
 70
     0
  9
$DIMALTD
 70
     2
  9
$DIMALTF
 40
0.0393701
  9
$DIMLFAC
 40
1.0
  9
$DIMTOFL
 70
     1
  9
$DIMTVP
 40
0.0
  9
$DIMTIX
 70
     0
  9
$DIMSOXD
 70
     0
  9
$DIMSAH
 70
     0
  9
$DIMBLK1
  1

  9
$DIMBLK2
  1

  9
$DIMSTYLE
  2
GEN-ISO
  9
$DIMCLRD
 70
     1
  9
$DIMCLRE
 70
     1
  9
$DIMCLRT
 70
     7
  9
$DIMTFAC
 40
0.71
  9
$DIMGAP
 40
3.0
  9
$DIMJUST
 70
     0
  9
$DIMSD1
 70
     0
  9
$DIMSD2
 70
     0
  9
$DIMTOLJ
 70
     0
  9
$DIMTZIN
 70
     0
  9
$DIMALTZ
 70
     0
  9
$DIMALTTZ
 70
     0
  9
$DIMUPT
 70
     0
  9
$DIMDEC
 70
     1
  9
$DIMTDEC
 70
     3
  9
$DIMALTU
 70
     2
  9
$DIMALTTD
 70
     4
  9
$DIMTXSTY
  7
STANDARD
  9
$DIMAUNIT
 70
     0
  9
$DIMADEC
 70
     0
  9
$DIMALTRND
 40
0.0
  9
$DIMAZIN
 70
     0
  9
$DIMDSEP
 70
    46
  9
$DIMATFIT
 70
     3
  9
$DIMFRAC
 70
     0
  9
$DIMLDRBLK
  1

  9
$DIMLUNIT
 70
     2
  9
$DIMLWD
 70
    -2
  9
$DIMLWE
 70
    -2
  9
$DIMTMOVE
 70
     0
  9
$LUNITS
 70
     2
  9
$LUPREC
 70
     2
  9
$SKETCHINC
 40
0.1
  9
$FILLETRAD
 40
0.0
  9
$AUNITS
 70
     0
  9
$AUPREC
 70
     0
  9
$MENU
  1
.
  9
$ELEVATION
 40
0.0
  9
$PELEVATION
 40
0.0
  9
$THICKNESS
 40
0.0
  9
$LIMCHECK
 70
     0
  9
$CHAMFERA
 40
2.5
  9
$CHAMFERB
 40
2.5
  9
$CHAMFERC
 40
1.0
  9
$CHAMFERD
 40
0.0
  9
$SKPOLY
 70
     0
  9
$TDCREATE
 40
2451438.371298843
  9
$TDUCREATE
 40
2451438.287965509
  9
$TDUPDATE
 40
2453937.315244132
  9
$TDUUPDATE
 40
2453937.231910799
  9
$TDINDWG
 40
0.6387286806
  9
$TDUSRTIMER
 40
0.6387286806
  9
$USRTIMER
 70
     1
  9
$ANGBASE
 50
0.0
  9
$ANGDIR
 70
     0
  9
$PDMODE
 70
     0
  9
$PDSIZE
 40
0.0
  9
$PLINEWID
 40
0.0
  9
$SPLFRAME
 70
     0
  9
$SPLINETYPE
 70
     6
  9
$SPLINESEGS
 70
     8
  9
$HANDSEED
  5
1CA
  9
$SURFTAB1
 70
     6
  9
$SURFTAB2
 70
     6
  9
$SURFTYPE
 70
     6
  9
$SURFU
 70
     6
  9
$SURFV
 70
     6
  9
$UCSBASE
  2

  9
$UCSNAME
  2

  9
$UCSORG
 10
0.0
 20
0.0
 30
0.0
  9
$UCSXDIR
 10
1.0
 20
0.0
 30
0.0
  9
$UCSYDIR
 10
0.0
 20
1.0
 30
0.0
  9
$UCSORTHOREF
  2

  9
$UCSORTHOVIEW
 70
     0
  9
$UCSORGTOP
 10
0.0
 20
0.0
 30
0.0
  9
$UCSORGBOTTOM
 10
0.0
 20
0.0
 30
0.0
  9
$UCSORGLEFT
 10
0.0
 20
0.0
 30
0.0
  9
$UCSORGRIGHT
 10
0.0
 20
0.0
 30
0.0
  9
$UCSORGFRONT
 10
0.0
 20
0.0
 30
0.0
  9
$UCSORGBACK
 10
0.0
 20
0.0
 30
0.0
  9
$PUCSBASE
  2

  9
$PUCSNAME
  2

  9
$PUCSORG
 10
0.0
 20
0.0
 30
0.0
  9
$PUCSXDIR
 10
1.0
 20
0.0
 30
0.0
  9
$PUCSYDIR
 10
0.0
 20
1.0
 30
0.0
  9
$PUCSORTHOREF
  2

  9
$PUCSORTHOVIEW
 70
     0
  9
$PUCSORGTOP
 10
0.0
 20
0.0
 30
0.0
  9
$PUCSORGBOTTOM
 10
0.0
 20
0.0
 30
0.0
  9
$PUCSORGLEFT
 10
0.0
 20
0.0
 30
0.0
  9
$PUCSORGRIGHT
 10
0.0
 20
0.0
 30
0.0
  9
$PUCSORGFRONT
 10
0.0
 20
0.0
 30
0.0
  9
$PUCSORGBACK
 10
0.0
 20
0.0
 30
0.0
  9
$USERI1
 70
     0
  9
$USERI2
 70
     0
  9
$USERI3
 70
     0
  9
$USERI4
 70
     0
  9
$USERI5
 70
     0
  9
$USERR1
 40
0.0
  9
$USERR2
 40
0.0
  9
$USERR3
 40
0.0
  9
$USERR4
 40
0.0
  9
$USERR5
 40
0.0
  9
$WORLDVIEW
 70
     1
  9
$SHADEDGE
 70
     3
  9
$SHADEDIF
 70
    70
  9
$TILEMODE
 70
     1
  9
$MAXACTVP
 70
    48
  9
$PINSBASE
 10
0.0
 20
0.0
 30
0.0
  9
$PLIMCHECK
 70
     0
  9
$PEXTMIN
 10
1.000000000000000E+20
 20
1.000000000000000E+20
 30
1.000000000000000E+20
  9
$PEXTMAX
 10
-1.000000000000000E+20
 20
-1.000000000000000E+20
 30
-1.000000000000000E+20
  9
$PLIMMIN
 10
0.0
 20
0.0
  9
$PLIMMAX
 10
12.0
 20
9.0
  9
$UNITMODE
 70
     0
  9
$VISRETAIN
 70
     1
  9
$PLINEGEN
 70
     0
  9
$PSLTSCALE
 70
     1
  9
$TREEDEPTH
 70
  3020
  9
$CMLSTYLE
  2
STANDARD
  9
$CMLJUST
 70
     0
  9
$CMLSCALE
 40
1.0
  9
$PROXYGRAPHICS
 70
     1
  9
$MEASUREMENT
 70
     0
  9
$CELWEIGHT
370
    -1
  9
$ENDCAPS
280
     0
  9
$JOINSTYLE
280
     0
  9
$LWDISPLAY
290
     0
  9
$INSUNITS
 70
     4
  9
$HYPERLINKBASE
  1

  9
$STYLESHEET
  1

  9
$XEDIT
290
     1
  9
$CEPSNTYPE
380
     0
  9
$PSTYLEMODE
290
     1
  9
$FINGERPRINTGUID
  2
{3D70BC11-2994-4DFE-B9C3-4C88F2B32F99}
  9
$VERSIONGUID
  2
{76FDD4A4-0FAF-45EB-9158-8842BD3AC61C}
  9
$EXTNAMES
290
     1
  9
$PSVPSCALE
 40
0.0
  9
$OLESTARTUP
290
     0
  9
$SORTENTS
280
   127
  9
$INDEXCTL
280
     0
  9
$HIDETEXT
280
     1
  9
$XCLIPFRAME
290
     0
  9
$HALOGAP
280
     0
  9
$OBSCOLOR
 70
   257
  9
$OBSLTYPE
280
     0
  9
$INTERSECTIONDISPLAY
280
     0
  9
$INTERSECTIONCOLOR
 70
   257
  9
$DIMASSOC
280
     1
  9
$PROJECTNAME
  1

  0
ENDSEC
  0
SECTION
  2
CLASSES
  0
CLASS
  1
ACDBDICTIONARYWDFLT
  2
AcDbDictionaryWithDefault
  3
ObjectDBX Classes
 90
        0
 91
        1
280
     0
281
     0
  0
CLASS
  1
TABLESTYLE
  2
AcDbTableStyle
  3
ObjectDBX Classes
 90
     2047
 91
        1
280
     0
281
     0
  0
CLASS
  1
DICTIONARYVAR
  2
AcDbDictionaryVar
  3
ObjectDBX Classes
 90
        0
 91
        4
280
     0
281
     0
  0
ENDSEC
  0
SECTION
  2
TABLES
  0
TABLE
  2
VPORT
  5
19
330
0
100
AcDbSymbolTable
 70
     3
  0
VPORT
  5
1C9
330
19
100
AcDbSymbolTableRecord
100
AcDbViewportTableRecord
  2
*Active
 70
     0
 10
0.0
 20
0.0
 11
1.0
 21
1.0
 12
17.07220963443973
 22
2263.310757086239
 13
0.0
 23
0.0
 14
263.1620808041474
 24
263.1620808041474
 15
10.0
 25
10.0
 16
0.0
 26
0.0
 36
1.0
 17
0.0
 27
0.0
 37
0.0
 40
752.0660170749986
 41
1.656732891832229
 42
50.0
 43
0.0
 44
0.0
 50
0.0
 51
0.0
 71
     0
 72
   100
 73
     1
 74
     1
 75
     0
 76
     0
 77
     0
 78
     0
281
     0
 65
     1
110
0.0
120
0.0
130
0.0
111
1.0
121
0.0
131
0.0
112
0.0
122
1.0
132
0.0
 79
     0
146
0.0
  0
ENDTAB
  0
TABLE
  2
LTYPE
  5
14
330
0
100
AcDbSymbolTable
 70
     2
  0
LTYPE
  5
15
330
14
100
AcDbSymbolTableRecord
100
AcDbLinetypeTableRecord
  2
BYBLOCK
 70
     0
  3

 72
    65
 73
     0
 40
0.0
  0
LTYPE
  5
16
330
14
100
AcDbSymbolTableRecord
100
AcDbLinetypeTableRecord
  2
BYLAYER
 70
     0
  3

 72
    65
 73
     0
 40
0.0
  0
LTYPE
  5
8
330
14
100
AcDbSymbolTableRecord
100
AcDbLinetypeTableRecord
  2
CONTINUOUS
 70
     0
  3
Solid line
 72
    65
 73
     0
 40
0.0
  0
LTYPE
  5
82
330
14
100
AcDbSymbolTableRecord
100
AcDbLinetypeTableRecord
  2
MITTE2
 70
     0
  3
Mitte (.5x) ___ _ ___ _ ___ _ ___ _ ___ _ ___
 72
    65
 73
     4
 40
1.125
 49
0.75
 74
     0
 49
-0.125
 74
     0
 49
0.125
 74
     0
 49
-0.125
 74
     0
  0
ENDTAB
  0
TABLE
  2
LAYER
  5
10
330
0
100
AcDbSymbolTable
 70
     2
  0
LAYER
  5
4
330
10
100
AcDbSymbolTableRecord
100
AcDbLayerTableRecord
  2
0
 70
     0
 62
     7
  6
CONTINUOUS
370
    -3
390
5
  0
LAYER
  5
25
330
10
100
AcDbSymbolTableRecord
100
AcDbLayerTableRecord
  2
HALFEN
 70
     0
 62
     2
  6
CONTINUOUS
370
    -3
390
5
  0
ENDTAB
  0
TABLE
  2
STYLE
  5
11
330
0
100
AcDbSymbolTable
 70
     2
  0
STYLE
  5
12
330
11
100
AcDbSymbolTableRecord
100
AcDbTextStyleTableRecord
  2
STANDARD
 70
     0
 40
0.0
 41
1.0
 50
0.0
 71
     0
 42
0.2
  3
geniso.shx
  4

  0
STYLE
  5
26
330
11
100
AcDbSymbolTableRecord
100
AcDbTextStyleTableRecord
  2
ARIAL50
 70
     0
 40
5.0
 41
1.0
 50
0.0
 71
     0
 42
3.5
  3
ARIAL.TTF
  4

1001
ACAD
1000
Arial
1071
       34
  0
ENDTAB
  0
TABLE
  2
VIEW
  5
17
330
0
100
AcDbSymbolTable
 70
     0
  0
ENDTAB
  0
TABLE
  2
UCS
  5
18
330
0
100
AcDbSymbolTable
 70
     0
  0
ENDTAB
  0
TABLE
  2
APPID
  5
1B
330
0
100
AcDbSymbolTable
 70
     2
  0
APPID
  5
1C
330
1B
100
AcDbSymbolTableRecord
100
AcDbRegAppTableRecord
  2
ACAD
 70
     0
  0
APPID
  5
1AC
330
1B
100
AcDbSymbolTableRecord
100
AcDbRegAppTableRecord
  2
DCO15
 70
     0
  0
ENDTAB
  0
TABLE
  2
DIMSTYLE
  5
1D
330
0
100
AcDbSymbolTable
 70
     1
100
AcDbDimStyleTable
 71
     0
  0
DIMSTYLE
105
29
330
1D
100
AcDbSymbolTableRecord
100
AcDbDimStyleTableRecord
  2
GEN-ISO
 70
     0
 41
2.5
 42
1.0
 43
10.0
 44
1.0
 47
0.1
 48
0.1
 73
     0
 74
     0
 77
     1
 78
     8
140
3.5
141
0.0
143
0.0393701
146
0.71
147
3.0
172
     1
176
     1
177
     1
178
     7
271
     1
272
     3
274
     4
283
     0
340
12
  0
ENDTAB
  0
TABLE
  2
BLOCK_RECORD
  5
1
330
0
100
AcDbSymbolTable
 70
     0
  0
BLOCK_RECORD
  5
2
330
1
100
AcDbSymbolTableRecord
100
AcDbBlockTableRecord
  2
*MODEL_SPACE
340
A
  0
BLOCK_RECORD
  5
C
330
1
100
AcDbSymbolTableRecord
100
AcDbBlockTableRecord
  2
*PAPER_SPACE
340
F
  0
ENDTAB
  0
ENDSEC
  0
SECTION
  2
BLOCKS
  0
BLOCK
  5
3
330
2
100
AcDbEntity
  8
0
100
AcDbBlockBegin
  2
*MODEL_SPACE
 70
     0
 10
0.0
 20
0.0
 30
0.0
  3
*MODEL_SPACE
  1

  0
ENDBLK
  5
9
330
2
100
AcDbEntity
  8
0
100
AcDbBlockEnd
  0
BLOCK
  5
D
330
C
100
AcDbEntity
 67
     1
  8
0
100
AcDbBlockBegin
  2
*PAPER_SPACE
 70
     0
 10
0.0
 20
0.0
 30
0.0
  3
*PAPER_SPACE
  1

  0
ENDBLK
  5
E
330
C
100
AcDbEntity
 67
     1
  8
0
100
AcDbBlockEnd
  0
ENDSEC
  0
SECTION
  2
ENTITIES
  0
TEXT
  5
2A
330
2
100
AcDbEntity
  8
HALFEN
100
AcDbText
 10
-57.74999999999976
 20
2086.954999999997
 30
0.0
 40
5.0
  1
Edelstahl A4
  7
ARIAL50
100
AcDbText
  0
TEXT
  5
2B
330
2
100
AcDbEntity
  8
HALFEN
100
AcDbText
 10
-57.7499999999998
 20
2204.674999999999
 30
0.0
 40
5.0
  1
Edelstahl A4
  7
ARIAL50
100
AcDbText
  0
LINE
  5
2C
330
2
100
AcDbEntity
  8
HALFEN
100
AcDbLine
 10
-57.74999999999991
 20
2064.454999999998
 30
0.0
 11
92.25000000000008
 21
2064.454999999998
 31
0.0
  0
TEXT
  5
2D
330
2
100
AcDbEntity
  8
HALFEN
100
AcDbText
 10
-52.74999999999991
 20
2076.954999999998
 30
0.0
 40
5.0
  1
Benennung
  7
ARIAL50
100
AcDbText
  0
LINE
  5
2E
330
2
100
AcDbEntity
  8
HALFEN
100
AcDbLine
 10
-57.74999999999991
 20
2084.454999999998
 30
0.0
 11
92.25000000000008
 21
2084.454999999998
 31
0.0
  0
LINE
  5
2F
330
2
100
AcDbEntity
  8
HALFEN
100
AcDbLine
 10
-57.74999999999991
 20
2074.454999999998
 30
0.0
 11
92.25000000000008
 21
2074.454999999998
 31
0.0
  0
LINE
  5
30
330
2
100
AcDbEntity
  8
HALFEN
100
AcDbLine
 10
-57.74999999999991
 20
2202.174999999998
 30
0.0
 11
92.25000000000008
 21
2202.174999999998
 31
0.0
  0
LINE
  5
31
330
2
100
AcDbEntity
  8
HALFEN
100
AcDbLine
 10
-57.74999999999991
 20
2192.174999999998
 30
0.0
 11
92.25000000000008
 21
2192.174999999998
 31
0.0
  0
LINE
  5
32
330
2
100
AcDbEntity
  8
HALFEN
100
AcDbLine
 10
-57.74999999999991
 20
2182.174999999999
 30
0.0
 11
92.25000000000008
 21
2182.174999999999
 31
0.0
  0
TEXT
  5
33
330
2
100
AcDbEntity
  8
HALFEN
100
AcDbText
 10
-52.74999999999991
 20
2194.674999999998
 30
0.0
 40
5.0
  1
Benennung
  7
ARIAL50
100
AcDbText
  0
TEXT
  5
34
330
2
100
AcDbEntity
  8
HALFEN
100
AcDbText
 10
-57.74999999999984
 20
2315.464999999998
 30
0.0
 40
5.0
  1
Edelstahl A4
  7
ARIAL50
100
AcDbText
  0
TEXT
  5
35
330
2
100
AcDbEntity
  8
HALFEN
100
AcDbText
 10
-57.74999999999988
 20
2423.944999999998
 30
0.0
 40
5.0
  1
Edelstahl A4
  7
ARIAL50
100
AcDbText
  0
LINE
  5
36
330
2
100
AcDbEntity
  8
HALFEN
100
AcDbLine
 10
-57.74999999999991
 20
2312.964999999998
 30
0.0
 11
92.25000000000008
 21
2312.964999999998
 31
0.0
  0
LINE
  5
37
330
2
100
AcDbEntity
  8
HALFEN
100
AcDbLine
 10
-57.74999999999991
 20
2302.964999999998
 30
0.0
 11
92.25000000000008
 21
2302.964999999998
 31
0.0
  0
LINE
  5
38
330
2
100
AcDbEntity
  8
HALFEN
100
AcDbLine
 10
-57.74999999999991
 20
2292.964999999998
 30
0.0
 11
92.25000000000008
 21
2292.964999999998
 31
0.0
  0
TEXT
  5
39
330
2
100
AcDbEntity
  8
HALFEN
100
AcDbText
 10
-52.74999999999991
 20
2305.464999999998
 30
0.0
 40
5.0
  1
Benennung
  7
ARIAL50
100
AcDbText
  0
LINE
  5
3A
330
2
100
AcDbEntity
  8
HALFEN
100
AcDbLine
 10
-57.74999999999997
 20
2421.444999999998
 30
0.0
 11
92.25000000000003
 21
2421.444999999998
 31
0.0
  0
LINE
  5
3B
330
2
100
AcDbEntity
  8
HALFEN
100
AcDbLine
 10
-57.74999999999997
 20
2411.444999999998
 30
0.0
 11
92.25000000000003
 21
2411.444999999998
 31
0.0
  0
LINE
  5
3C
330
2
100
AcDbEntity
  8
HALFEN
100
AcDbLine
 10
-57.74999999999997
 20
2401.444999999998
 30
0.0
 11
92.25000000000003
 21
2401.444999999998
 31
0.0
  0
TEXT
  5
3D
330
2
100
AcDbEntity
  8
HALFEN
100
AcDbText
 10
-52.74999999999997
 20
2413.944999999998
 30
0.0
 40
5.0
  1
Benennung
  7
ARIAL50
100
AcDbText
  0
LINE
  5
3E
330
2
100
AcDbEntity
  8
HALFEN
100
AcDbLine
 10
-57.74999999999997
 20
2526.459999999998
 30
0.0
 11
92.25000000000003
 21
2526.459999999998
 31
0.0
  0
LINE
  5
3F
330
2
100
AcDbEntity
  8
HALFEN
100
AcDbLine
 10
-57.74999999999997
 20
2506.459999999999
 30
0.0
 11
92.25000000000003
 21
2506.459999999999
 31
0.0
  0
LINE
  5
40
330
2
100
AcDbEntity
  8
HALFEN
100
AcDbLine
 10
-57.74999999999997
 20
2516.459999999999
 30
0.0
 11
92.25000000000003
 21
2516.459999999999
 31
0.0
  0
TEXT
  5
41
330
2
100
AcDbEntity
  8
HALFEN
100
AcDbText
 10
-52.74999999999997
 20
2518.959999999998
 30
0.0
 40
5.0
  1
Benennung
  7
ARIAL50
100
AcDbText
  0
TEXT
  5
42
330
2
100
AcDbEntity
  8
HALFEN
100
AcDbText
 10
-57.74999999999993
 20
2528.959999999998
 30
0.0
 40
5.0
  1
Edelstahl A4
  7
ARIAL50
100
AcDbText
  0
TEXT
  5
43
330
2
100
AcDbEntity
  8
HALFEN
100
AcDbText
 10
-57.74999999999997
 20
2630.509999999999
 30
0.0
 40
5.0
  1
Edelstahl A4
  7
ARIAL50
100
AcDbText
  0
LINE
  5
44
330
2
100
AcDbEntity
  8
HALFEN
100
AcDbLine
 10
-57.75
 20
2628.009999999998
 30
0.0
 11
92.24999999999999
 21
2628.009999999998
 31
0.0
  0
LINE
  5
45
330
2
100
AcDbEntity
  8
HALFEN
100
AcDbLine
 10
-57.75
 20
2608.009999999998
 30
0.0
 11
92.24999999999999
 21
2608.009999999998
 31
0.0
  0
LINE
  5
46
330
2
100
AcDbEntity
  8
HALFEN
100
AcDbLine
 10
-57.75
 20
2618.009999999999
 30
0.0
 11
92.24999999999999
 21
2618.009999999999
 31
0.0
  0
TEXT
  5
47
330
2
100
AcDbEntity
  8
HALFEN
100
AcDbText
 10
-52.75
 20
2620.509999999999
 30
0.0
 40
5.0
  1
Benennung
  7
ARIAL50
100
AcDbText
  0
TEXT
  5
48
330
2
100
AcDbEntity
  8
HALFEN
100
AcDbText
 10
-217.7499999999997
 20
1973.952655396556
 30
0.0
 40
5.0
  1
galv. verzinkt
  7
ARIAL50
100
AcDbText
  0
LINE
  5
49
330
2
100
AcDbEntity
  8
HALFEN
100
AcDbLine
 10
-217.7499999999999
 20
1971.452655396556
 30
0.0
 11
-67.74999999999991
 21
1971.452655396556
 31
0.0
  0
LINE
  5
4A
330
2
100
AcDbEntity
  8
HALFEN
100
AcDbLine
 10
-217.7499999999999
 20
1951.452655396557
 30
0.0
 11
-67.74999999999991
 21
1951.452655396557
 31
0.0
  0
LINE
  5
4B
330
2
100
AcDbEntity
  8
HALFEN
100
AcDbLine
 10
-217.7499999999999
 20
1961.452655396556
 30
0.0
 11
-67.74999999999991
 21
1961.452655396556
 31
0.0
  0
TEXT
  5
4C
330
2
100
AcDbEntity
  8
HALFEN
100
AcDbText
 10
-212.7499999999999
 20
1963.952655396557
 30
0.0
 40
5.0
  1
Benennung
  7
ARIAL50
100
AcDbText
  0
TEXT
  5
4D
330
2
100
AcDbEntity
  8
HALFEN
100
AcDbText
 10
-217.7499999999998
 20
2086.954999999997
 30
0.0
 40
5.0
  1
galv. verzinkt
  7
ARIAL50
100
AcDbText
  0
LINE
  5
4E
330
2
100
AcDbEntity
  8
HALFEN
100
AcDbLine
 10
-217.7499999999999
 20
2064.454999999998
 30
0.0
 11
-67.74999999999991
 21
2064.454999999998
 31
0.0
  0
TEXT
  5
4F
330
2
100
AcDbEntity
  8
HALFEN
100
AcDbText
 10
-212.7499999999999
 20
2076.954999999998
 30
0.0
 40
5.0
  1
Benennung
  7
ARIAL50
100
AcDbText
  0
LINE
  5
50
330
2
100
AcDbEntity
  8
HALFEN
100
AcDbLine
 10
-217.7499999999999
 20
2074.454999999998
 30
0.0
 11
-67.74999999999991
 21
2074.454999999998
 31
0.0
  0
LINE
  5
51
330
2
100
AcDbEntity
  8
HALFEN
100
AcDbLine
 10
-217.7499999999999
 20
2084.454999999998
 30
0.0
 11
-67.74999999999991
 21
2084.454999999998
 31
0.0
  0
TEXT
  5
52
330
2
100
AcDbEntity
  8
HALFEN
100
AcDbText
 10
-217.7499999999998
 20
2204.674999999999
 30
0.0
 40
5.0
  1
galv. verzinkt
  7
ARIAL50
100
AcDbText
  0
TEXT
  5
53
330
2
100
AcDbEntity
  8
HALFEN
100
AcDbText
 10
-212.7499999999999
 20
2194.674999999998
 30
0.0
 40
5.0
  1
Benennung
  7
ARIAL50
100
AcDbText
  0
LINE
  5
54
330
2
100
AcDbEntity
  8
HALFEN
100
AcDbLine
 10
-217.7499999999999
 20
2202.174999999998
 30
0.0
 11
-67.74999999999991
 21
2202.174999999998
 31
0.0
  0
LINE
  5
55
330
2
100
AcDbEntity
  8
HALFEN
100
AcDbLine
 10
-217.7499999999999
 20
2182.174999999999
 30
0.0
 11
-67.74999999999991
 21
2182.174999999999
 31
0.0
  0
LINE
  5
56
330
2
100
AcDbEntity
  8
HALFEN
100
AcDbLine
 10
-217.7499999999999
 20
2192.174999999998
 30
0.0
 11
-67.74999999999991
 21
2192.174999999998
 31
0.0
  0
ARC
  5
57
330
2
100
AcDbEntity
  8
HALFEN
100
AcDbCircle
 10
-204.6406422170935
 20
1895.070155396556
 30
0.0
 40
9.190642217093614
100
AcDbArc
 50
334.4384694047321
 51
34.43846940473178
  0
ARC
  5
58
330
2
100
AcDbEntity
  8
HALFEN
100
AcDbCircle
 10
-208.5593577829063
 20
1895.070155396556
 30
0.0
 40
9.190642217093591
100
AcDbArc
 50
145.5615305952682
 51
205.5615305952684
  0
LINE
  5
59
330
2
100
AcDbEntity
  8
HALFEN
100
AcDbLine
 10
-217.7499999999999
 20
1928.662655396556
 30
0.0
 11
-217.7499999999999
 21
1892.662655396556
 31
0.0
  0
LINE
  5
5A
330
2
100
AcDbEntity
  8
HALFEN
100
AcDbLine
 10
-195.4499999999999
 20
1928.662655396556
 30
0.0
 11
-195.4499999999999
 21
1892.662655396556
 31
0.0
  0
LINE
  5
5B
330
2
100
AcDbEntity
  8
HALFEN
100
AcDbLine
 10
-216.1391927489609
 20
1889.872655396557
 30
0.0
 11
-197.0608072510389
 21
1889.872655396557
 31
0.0
  0
LINE
  5
5C
330
2
100
AcDbEntity
  8
HALFEN
100
AcDbLine
 10
-216.1391927489609
 20
1889.872655396557
 30
0.0
 11
-217.7499999999999
 21
1892.662655396556
 31
0.0
  0
LINE
  5
5D
330
2
100
AcDbEntity
  8
HALFEN
100
AcDbLine
 10
-197.0608072510389
 20
1889.872655396557
 30
0.0
 11
-195.4499999999999
 21
1892.662655396556
 31
0.0
  0
LINE
  5
5E
330
2
100
AcDbEntity
  8
HALFEN
100
AcDbLine
 10
-216.1391927489609
 20
1931.452655396556
 30
0.0
 11
-197.0608072510389
 21
1931.452655396556
 31
0.0
  0
LINE
  5
5F
330
2
100
AcDbEntity
  8
HALFEN
100
AcDbLine
 10
-216.1391927489609
 20
1921.057655396556
 30
0.0
 11
-197.0608072510389
 21
1921.057655396556
 31
0.0
  0
LINE
  5
60
330
2
100
AcDbEntity
  8
HALFEN
 62
     1
100
AcDbLine
 10
-217.7499999999999
 20
1910.662655396556
 30
0.0
 11
-195.4499999999999
 21
1910.662655396556
 31
0.0
  0
LINE
  5
61
330
2
100
AcDbEntity
  8
HALFEN
100
AcDbLine
 10
-216.1391927489609
 20
1900.267655396557
 30
0.0
 11
-197.0608072510389
 21
1900.267655396557
 31
0.0
  0
TEXT
  5
62
330
2
100
AcDbEntity
  8
HALFEN
100
AcDbText
 10
-212.7499999999999
 20
1953.952655396556
 30
0.0
 40
5.0
  1
Id. Nr.
  7
ARIAL50
100
AcDbText
  0
ARC
  5
63
330
2
100
AcDbEntity
  8
HALFEN
100
AcDbCircle
 10
-208.5593577829063
 20
1926.255155396556
 30
0.0
 40
9.190642217093591
100
AcDbArc
 50
154.438469404732
 51
214.4384694047318
  0
LINE
  5
64
330
2
100
AcDbEntity
  8
HALFEN
100
AcDbLine
 10
-216.1391927489609
 20
1931.452655396556
 30
0.0
 11
-217.7499999999999
 21
1928.662655396556
 31
0.0
  0
ARC
  5
65
330
2
100
AcDbEntity
  8
HALFEN
100
AcDbCircle
 10
-183.4036420081841
 20
1910.662655396556
 30
0.0
 40
34.34635799181582
100
AcDbArc
 50
162.3830311596133
 51
197.6169688403866
  0
LINE
  5
66
330
2
100
AcDbEntity
  8
HALFEN
100
AcDbLine
 10
-217.7499999999999
 20
1951.452655396557
 30
0.0
 11
-217.7499999999999
 21
1971.452655396556
 31
0.0
  0
LINE
  5
67
330
2
100
AcDbEntity
  8
HALFEN
100
AcDbLine
 10
-197.0608072510389
 20
1931.452655396556
 30
0.0
 11
-195.4499999999999
 21
1928.662655396556
 31
0.0
  0
ARC
  5
68
330
2
100
AcDbEntity
  8
HALFEN
100
AcDbCircle
 10
-204.6406422170935
 20
1926.255155396556
 30
0.0
 40
9.190642217093591
100
AcDbArc
 50
325.5615305952682
 51
25.56153059526825
  0
ARC
  5
69
330
2
100
AcDbEntity
  8
HALFEN
100
AcDbCircle
 10
-229.7963579918156
 20
1910.662655396556
 30
0.0
 40
34.34635799181567
100
AcDbArc
 50
342.3830311596133
 51
17.61696884038675
  0
LINE
  5
6A
330
2
100
AcDbEntity
  8
HALFEN
100
AcDbLine
 10
-216.407660624134
 20
2044.454999999998
 30
0.0
 11
-200.0923393758658
 21
2044.454999999998
 31
0.0
  0
LINE
  5
6B
330
2
100
AcDbEntity
  8
HALFEN
100
AcDbLine
 10
-216.407660624134
 20
2018.467499999998
 30
0.0
 11
-200.0923393758658
 21
2018.467499999998
 31
0.0
  0
LINE
  5
6C
330
2
100
AcDbEntity
  8
HALFEN
100
AcDbLine
 10
-216.407660624134
 20
2009.804999999998
 30
0.0
 11
-200.0923393758658
 21
2009.804999999998
 31
0.0
  0
LINE
  5
6D
330
2
100
AcDbEntity
  8
HALFEN
100
AcDbLine
 10
-216.407660624134
 20
2035.792499999998
 30
0.0
 11
-200.0923393758658
 21
2035.792499999998
 31
0.0
  0
LINE
  5
6E
330
2
100
AcDbEntity
  8
HALFEN
 62
     1
100
AcDbLine
 10
-217.7499999999999
 20
2027.129999999998
 30
0.0
 11
-198.7499999999999
 21
2027.129999999998
 31
0.0
  0
TEXT
  5
6F
330
2
100
AcDbEntity
  8
HALFEN
100
AcDbText
 10
-212.7499999999999
 20
2066.954999999998
 30
0.0
 40
5.0
  1
Id. Nr.
  7
ARIAL50
100
AcDbText
  0
ARC
  5
70
330
2
100
AcDbEntity
  8
HALFEN
100
AcDbCircle
 10
-210.0911314857552
 20
2014.136249999998
 30
0.0
 40
7.658868514244656
100
AcDbArc
 50
145.5615305952681
 51
205.5615305952684
  0
ARC
  5
71
330
2
100
AcDbEntity
  8
HALFEN
100
AcDbCircle
 10
-210.0911314857552
 20
2040.123749999998
 30
0.0
 40
7.658868514244656
100
AcDbArc
 50
154.4384694047318
 51
214.4384694047318
  0
LINE
  5
72
330
2
100
AcDbEntity
  8
HALFEN
100
AcDbLine
 10
-216.407660624134
 20
2044.454999999998
 30
0.0
 11
-217.7499999999999
 21
2042.129999999998
 31
0.0
  0
LINE
  5
73
330
2
100
AcDbEntity
  8
HALFEN
100
AcDbLine
 10
-216.407660624134
 20
2009.804999999998
 30
0.0
 11
-217.7499999999999
 21
2012.129999999998
 31
0.0
  0
ARC
  5
74
330
2
100
AcDbEntity
  8
HALFEN
100
AcDbCircle
 10
-189.1280350068202
 20
2027.129999999998
 30
0.0
 40
28.62196499317976
100
AcDbArc
 50
162.3830311596132
 51
197.6169688403867
  0
LINE
  5
75
330
2
100
AcDbEntity
  8
HALFEN
100
AcDbLine
 10
-217.7499999999999
 20
2042.129999999998
 30
0.0
 11
-217.7499999999999
 21
2012.129999999998
 31
0.0
  0
LINE
  5
76
330
2
100
AcDbEntity
  8
HALFEN
100
AcDbLine
 10
-217.7499999999999
 20
2064.454999999998
 30
0.0
 11
-217.7499999999999
 21
2084.454999999998
 31
0.0
  0
LINE
  5
77
330
2
100
AcDbEntity
  8
HALFEN
100
AcDbLine
 10
-200.0923393758658
 20
2044.454999999998
 30
0.0
 11
-198.7499999999999
 21
2042.129999999998
 31
0.0
  0
LINE
  5
78
330
2
100
AcDbEntity
  8
HALFEN
100
AcDbLine
 10
-200.0923393758658
 20
2009.804999999998
 30
0.0
 11
-198.7499999999999
 21
2012.129999999998
 31
0.0
  0
ARC
  5
79
330
2
100
AcDbEntity
  8
HALFEN
100
AcDbCircle
 10
-227.3719649931797
 20
2027.129999999998
 30
0.0
 40
28.62196499317979
100
AcDbArc
 50
342.3830311596133
 51
17.61696884038671
  0
ARC
  5
7A
330
2
100
AcDbEntity
  8
HALFEN
100
AcDbCircle
 10
-206.4088685142446
 20
2014.136249999998
 30
0.0
 40
7.658868514244673
100
AcDbArc
 50
334.4384694047314
 51
34.43846940473174
  0
LINE
  5
7B
330
2
100
AcDbEntity
  8
HALFEN
100
AcDbLine
 10
-198.7499999999999
 20
2042.129999999998
 30
0.0
 11
-198.7499999999999
 21
2012.129999999998
 31
0.0
  0
ARC
  5
7C
330
2
100
AcDbEntity
  8
HALFEN
100
AcDbCircle
 10
-206.4088685142446
 20
2040.123749999998
 30
0.0
 40
7.658868514244657
100
AcDbArc
 50
325.5615305952682
 51
25.56153059526817
  0
LINE
  5
7D
330
2
100
AcDbEntity
  8
HALFEN
100
AcDbLine
 10
-216.6761284993072
 20
2162.174999999999
 30
0.0
 11
-202.9238715006926
 21
2162.174999999999
 31
0.0
  0
LINE
  5
7E
330
2
100
AcDbEntity
  8
HALFEN
100
AcDbLine
 10
-216.6761284993072
 20
2141.384999999998
 30
0.0
 11
-202.9238715006926
 21
2141.384999999998
 31
0.0
  0
LINE
  5
7F
330
2
100
AcDbEntity
  8
HALFEN
100
AcDbLine
 10
-216.6761284993072
 20
2134.454999999998
 30
0.0
 11
-202.9238715006926
 21
2134.454999999998
 31
0.0
  0
LINE
  5
80
330
2
100
AcDbEntity
  8
HALFEN
100
AcDbLine
 10
-216.6761284993072
 20
2155.244999999998
 30
0.0
 11
-202.9238715006926
 21
2155.244999999998
 31
0.0
  0
LINE
  5
81
330
2
100
AcDbEntity
  8
HALFEN
  6
MITTE2
 62
     1
100
AcDbLine
 10
-217.7499999999999
 20
2148.314999999998
 30
0.0
 11
-201.8499999999999
 21
2148.314999999998
 31
0.0
  0
TEXT
  5
83
330
2
100
AcDbEntity
  8
HALFEN
100
AcDbText
 10
-212.7499999999999
 20
2184.674999999998
 30
0.0
 40
5.0
  1
Id. Nr.
  7
ARIAL50
100
AcDbText
  0
LINE
  5
84
330
2
100
AcDbEntity
  8
HALFEN
100
AcDbLine
 10
-216.6761284993072
 20
2162.174999999999
 30
0.0
 11
-217.7499999999999
 21
2160.314999999998
 31
0.0
  0
ARC
  5
85
330
2
100
AcDbEntity
  8
HALFEN
100
AcDbCircle
 10
-211.6229051886042
 20
2137.919999999998
 30
0.0
 40
6.127094811395736
100
AcDbArc
 50
145.5615305952682
 51
205.5615305952685
  0
ARC
  5
86
330
2
100
AcDbEntity
  8
HALFEN
100
AcDbCircle
 10
-211.6229051886042
 20
2158.709999999998
 30
0.0
 40
6.127094811395736
100
AcDbArc
 50
154.438469404732
 51
214.4384694047317
  0
LINE
  5
87
330
2
100
AcDbEntity
  8
HALFEN
100
AcDbLine
 10
-216.6761284993072
 20
2134.454999999998
 30
0.0
 11
-217.7499999999999
 21
2136.314999999998
 31
0.0
  0
ARC
  5
88
330
2
100
AcDbEntity
  8
HALFEN
100
AcDbCircle
 10
-194.852428005456
 20
2148.314999999998
 30
0.0
 40
22.89757199454391
100
AcDbArc
 50
162.3830311596133
 51
197.6169688403866
  0
LINE
  5
89
330
2
100
AcDbEntity
  8
HALFEN
100
AcDbLine
 10
-217.7499999999999
 20
2160.314999999998
 30
0.0
 11
-217.7499999999999
 21
2136.314999999998
 31
0.0
  0
LINE
  5
8A
330
2
100
AcDbEntity
  8
HALFEN
100
AcDbLine
 10
-217.7499999999999
 20
2182.174999999999
 30
0.0
 11
-217.7499999999999
 21
2202.174999999998
 31
0.0
  0
LINE
  5
8B
330
2
100
AcDbEntity
  8
HALFEN
100
AcDbLine
 10
-202.9238715006926
 20
2162.174999999999
 30
0.0
 11
-201.8499999999999
 21
2160.314999999998
 31
0.0
  0
LINE
  5
8C
330
2
100
AcDbEntity
  8
HALFEN
100
AcDbLine
 10
-202.9238715006926
 20
2134.454999999998
 30
0.0
 11
-201.8499999999999
 21
2136.314999999998
 31
0.0
  0
ARC
  5
8D
330
2
100
AcDbEntity
  8
HALFEN
100
AcDbCircle
 10
-224.7475719945438
 20
2148.314999999998
 30
0.0
 40
22.89757199454391
100
AcDbArc
 50
342.3830311596133
 51
17.61696884038664
  0
ARC
  5
8E
330
2
100
AcDbEntity
  8
HALFEN
100
AcDbCircle
 10
-207.9770948113957
 20
2137.919999999998
 30
0.0
 40
6.127094811395751
100
AcDbArc
 50
334.4384694047316
 51
34.43846940473168
  0
LINE
  5
8F
330
2
100
AcDbEntity
  8
HALFEN
100
AcDbLine
 10
-201.8499999999999
 20
2160.314999999998
 30
0.0
 11
-201.8499999999999
 21
2136.314999999998
 31
0.0
  0
ARC
  5
90
330
2
100
AcDbEntity
  8
HALFEN
100
AcDbCircle
 10
-207.9770948113957
 20
2158.709999999998
 30
0.0
 40
6.127094811395736
100
AcDbArc
 50
325.5615305952682
 51
25.5615305952684
  0
CIRCLE
  5
91
330
2
100
AcDbEntity
  8
HALFEN
100
AcDbCircle
 10
-157.4499999999999
 20
1910.662655396556
 30
0.0
 40
18.0
  0
LWPOLYLINE
  5
92
330
2
100
AcDbEntity
  8
HALFEN
100
AcDbPolyline
 90
        6
 70
     1
 43
0.0
 10
-175.4499999999999
 20
1900.270350551143
 10
-157.4499999999999
 20
1889.87804570573
 10
-139.4499999999999
 20
1900.270350551143
 10
-139.4499999999999
 20
1921.05496024197
 10
-157.4499999999996
 20
1931.447265087383
 10
-175.4499999999999
 20
1921.05496024197
  0
LINE
  5
93
330
2
100
AcDbEntity
  8
HALFEN
 62
     1
100
AcDbLine
 10
-175.4499999999999
 20
1910.662655396556
 30
0.0
 11
-139.4499999999999
 21
1910.662655396556
 31
0.0
  0
TEXT
  5
94
330
2
100
AcDbEntity
  8
HALFEN
100
AcDbText
 10
-162.7499999999999
 20
1963.952655396557
 30
0.0
 40
5.0
  1
MU - M 24 - gv
  7
ARIAL50
100
AcDbText
  0
TEXT
  5
95
330
2
100
AcDbEntity
  8
HALFEN
100
AcDbText
 10
-162.7499999999999
 20
1953.952655396556
 30
0.0
 40
5.0
  1
0360.090-00001
  7
ARIAL50
100
AcDbText
  0
LINE
  5
96
330
2
100
AcDbEntity
  8
HALFEN
 62
     1
100
AcDbLine
 10
-157.4499999999999
 20
1931.447265087383
 30
0.0
 11
-157.4499999999999
 21
1889.87804570573
 31
0.0
  0
CIRCLE
  5
97
330
2
100
AcDbEntity
  8
HALFEN
100
AcDbCircle
 10
-157.4499999999999
 20
1910.662655396556
 30
0.0
 40
10.376
  0
ARC
  5
98
330
2
100
AcDbEntity
  8
HALFEN
 62
     1
100
AcDbCircle
 10
-157.4499999999999
 20
1910.662655396556
 30
0.0
 40
12.0
100
AcDbArc
 50
280.0000000000001
 51
210.0
  0
LINE
  5
99
330
2
100
AcDbEntity
  8
HALFEN
100
AcDbLine
 10
-167.7499999999999
 20
1951.452655396557
 30
0.0
 11
-167.7499999999999
 21
1971.452655396556
 31
0.0
  0
TEXT
  5
9A
330
2
100
AcDbEntity
  8
HALFEN
100
AcDbText
 10
-162.7499999999999
 20
2066.954999999998
 30
0.0
 40
5.0
  1
0360.080-00001
  7
ARIAL50
100
AcDbText
  0
TEXT
  5
9B
330
2
100
AcDbEntity
  8
HALFEN
100
AcDbText
 10
-162.7499999999999
 20
2076.954999999998
 30
0.0
 40
5.0
  1
MU - M 20 - gv
  7
ARIAL50
100
AcDbText
  0
TEXT
  5
9C
330
2
100
AcDbEntity
  8
HALFEN
100
AcDbText
 10
-162.7499999999999
 20
2184.674999999998
 30
0.0
 40
5.0
  1
0360.070-00002
  7
ARIAL50
100
AcDbText
  0
TEXT
  5
9D
330
2
100
AcDbEntity
  8
HALFEN
100
AcDbText
 10
-162.7499999999999
 20
2194.674999999998
 30
0.0
 40
5.0
  1
MU - M 16 - gv
  7
ARIAL50
100
AcDbText
  0
CIRCLE
  5
9E
330
2
100
AcDbEntity
  8
HALFEN
100
AcDbCircle
 10
-163.7499999999999
 20
2027.129999999998
 30
0.0
 40
8.647
  0
CIRCLE
  5
9F
330
2
100
AcDbEntity
  8
HALFEN
100
AcDbCircle
 10
-163.7499999999999
 20
2027.129999999998
 30
0.0
 40
15.0
  0
LWPOLYLINE
  5
A0
330
2
100
AcDbEntity
  8
HALFEN
100
AcDbPolyline
 90
        6
 70
     1
 43
0.0
 10
-178.7499999999999
 20
2018.469745962153
 10
-163.7499999999999
 20
2009.809491924309
 10
-148.7499999999999
 20
2018.469745962153
 10
-148.7499999999999
 20
2035.790254037842
 10
-163.7499999999997
 20
2044.450508075687
 10
-178.7499999999999
 20
2035.790254037842
  0
LINE
  5
A1
330
2
100
AcDbEntity
  8
HALFEN
 62
     1
100
AcDbLine
 10
-178.7499999999999
 20
2027.129999999998
 30
0.0
 11
-148.7499999999999
 21
2027.129999999998
 31
0.0
  0
ARC
  5
A2
330
2
100
AcDbEntity
  8
HALFEN
 62
     1
100
AcDbCircle
 10
-163.7499999999999
 20
2027.129999999998
 30
0.0
 40
10.0
100
AcDbArc
 50
280.0000000000001
 51
210.0
  0
LINE
  5
A3
330
2
100
AcDbEntity
  8
HALFEN
100
AcDbLine
 10
-167.7499999999999
 20
2064.454999999998
 30
0.0
 11
-167.7499999999999
 21
2084.454999999998
 31
0.0
  0
LINE
  5
A4
330
2
100
AcDbEntity
  8
HALFEN
 62
     1
100
AcDbLine
 10
-163.7499999999999
 20
2044.450508075687
 30
0.0
 11
-163.7499999999999
 21
2009.809491924309
 31
0.0
  0
CIRCLE
  5
A5
330
2
100
AcDbEntity
  8
HALFEN
100
AcDbCircle
 10
-169.8499999999999
 20
2148.314999999998
 30
0.0
 40
6.9175
  0
ARC
  5
A6
330
2
100
AcDbEntity
  8
HALFEN
 62
     1
100
AcDbCircle
 10
-169.8499999999999
 20
2148.314999999998
 30
0.0
 40
8.0
100
AcDbArc
 50
280.0000000000001
 51
210.0
  0
CIRCLE
  5
A7
330
2
100
AcDbEntity
  8
HALFEN
100
AcDbCircle
 10
-169.8499999999999
 20
2148.314999999998
 30
0.0
 40
12.0
  0
LWPOLYLINE
  5
A8
330
2
100
AcDbEntity
  8
HALFEN
100
AcDbPolyline
 90
        6
 70
     1
 43
0.0
 10
-181.8499999999999
 20
2141.386796769722
 10
-169.8499999999999
 20
2134.458593539447
 10
-157.8499999999999
 20
2141.386796769722
 10
-157.8499999999999
 20
2155.243203230273
 10
-169.8499999999997
 20
2162.171406460549
 10
-181.8499999999999
 20
2155.243203230274
  0
LINE
  5
A9
330
2
100
AcDbEntity
  8
HALFEN
  6
MITTE2
 62
     1
100
AcDbLine
 10
-181.8499999999999
 20
2148.314999999998
 30
0.0
 11
-157.8499999999999
 21
2148.314999999998
 31
0.0
  0
LINE
  5
AA
330
2
100
AcDbEntity
  8
HALFEN
  6
MITTE2
 62
     1
100
AcDbLine
 10
-169.8499999999999
 20
2162.171406460549
 30
0.0
 11
-169.8499999999999
 21
2134.458593539447
 31
0.0
  0
LINE
  5
AB
330
2
100
AcDbEntity
  8
HALFEN
100
AcDbLine
 10
-167.7499999999999
 20
2182.174999999999
 30
0.0
 11
-167.7499999999999
 21
2202.174999999998
 31
0.0
  0
LINE
  5
AC
330
2
100
AcDbEntity
  8
HALFEN
100
AcDbLine
 10
-67.74999999999991
 20
1951.452655396557
 30
0.0
 11
-67.74999999999991
 21
1971.452655396556
 31
0.0
  0
LINE
  5
AD
330
2
100
AcDbEntity
  8
HALFEN
100
AcDbLine
 10
-67.74999999999991
 20
2064.454999999998
 30
0.0
 11
-67.74999999999991
 21
2084.454999999998
 31
0.0
  0
LINE
  5
AE
330
2
100
AcDbEntity
  8
HALFEN
100
AcDbLine
 10
-67.74999999999991
 20
2182.174999999999
 30
0.0
 11
-67.74999999999991
 21
2202.174999999998
 31
0.0
  0
TEXT
  5
AF
330
2
100
AcDbEntity
  8
HALFEN
100
AcDbText
 10
-52.74999999999991
 20
2066.954999999998
 30
0.0
 40
5.0
  1
Id. Nr.
  7
ARIAL50
100
AcDbText
  0
LINE
  5
B0
330
2
100
AcDbEntity
  8
HALFEN
100
AcDbLine
 10
-57.74999999999991
 20
2064.454999999998
 30
0.0
 11
-57.74999999999991
 21
2084.454999999998
 31
0.0
  0
TEXT
  5
B1
330
2
100
AcDbEntity
  8
HALFEN
100
AcDbText
 10
-52.74999999999991
 20
2184.674999999998
 30
0.0
 40
5.0
  1
Id. Nr.
  7
ARIAL50
100
AcDbText
  0
LINE
  5
B2
330
2
100
AcDbEntity
  8
HALFEN
100
AcDbLine
 10
-57.74999999999991
 20
2182.174999999999
 30
0.0
 11
-57.74999999999991
 21
2202.174999999998
 31
0.0
  0
TEXT
  5
B3
330
2
100
AcDbEntity
  8
HALFEN
100
AcDbText
 10
-217.7499999999998
 20
2315.464999999998
 30
0.0
 40
5.0
  1
galv. verzinkt
  7
ARIAL50
100
AcDbText
  0
TEXT
  5
B4
330
2
100
AcDbEntity
  8
HALFEN
100
AcDbText
 10
-212.7499999999999
 20
2305.464999999998
 30
0.0
 40
5.0
  1
Benennung
  7
ARIAL50
100
AcDbText
  0
LINE
  5
B5
330
2
100
AcDbEntity
  8
HALFEN
100
AcDbLine
 10
-217.7499999999999
 20
2312.964999999998
 30
0.0
 11
-67.74999999999991
 21
2312.964999999998
 31
0.0
  0
LINE
  5
B6
330
2
100
AcDbEntity
  8
HALFEN
100
AcDbLine
 10
-217.7499999999999
 20
2292.964999999998
 30
0.0
 11
-67.74999999999991
 21
2292.964999999998
 31
0.0
  0
LINE
  5
B7
330
2
100
AcDbEntity
  8
HALFEN
100
AcDbLine
 10
-217.7499999999999
 20
2302.964999999998
 30
0.0
 11
-67.74999999999991
 21
2302.964999999998
 31
0.0
  0
LINE
  5
B8
330
2
100
AcDbEntity
  8
HALFEN
 62
     1
100
AcDbLine
 10
-188.2499999999999
 20
2372.204999999998
 30
0.0
 11
-172.2499999999999
 21
2372.204999999998
 31
0.0
  0
CIRCLE
  5
B9
330
2
100
AcDbEntity
  8
HALFEN
100
AcDbCircle
 10
-180.25
 20
2372.204999999998
 30
0.0
 40
8.0
  0
LWPOLYLINE
  5
BA
330
2
100
AcDbEntity
  8
HALFEN
100
AcDbPolyline
 90
        6
 70
     1
 43
0.0
 10
-188.25
 20
2367.586197846481
 10
-180.25
 20
2362.967395692964
 10
-172.2499999999999
 20
2367.586197846481
 10
-172.2499999999999
 20
2376.823802153515
 10
-180.2499999999998
 20
2381.442604307032
 10
-188.25
 20
2376.823802153515
  0
TEXT
  5
BB
330
2
100
AcDbEntity
  8
HALFEN
100
AcDbText
 10
-212.75
 20
2413.944999999998
 30
0.0
 40
5.0
  1
Benennung
  7
ARIAL50
100
AcDbText
  0
LINE
  5
BC
330
2
100
AcDbEntity
  8
HALFEN
100
AcDbLine
 10
-217.75
 20
2421.444999999998
 30
0.0
 11
-67.74999999999997
 21
2421.444999999998
 31
0.0
  0
LINE
  5
BD
330
2
100
AcDbEntity
  8
HALFEN
100
AcDbLine
 10
-217.75
 20
2401.444999999998
 30
0.0
 11
-67.74999999999997
 21
2401.444999999998
 31
0.0
  0
LINE
  5
BE
330
2
100
AcDbEntity
  8
HALFEN
100
AcDbLine
 10
-217.75
 20
2411.444999999998
 30
0.0
 11
-67.74999999999997
 21
2411.444999999998
 31
0.0
  0
TEXT
  5
BF
330
2
100
AcDbEntity
  8
HALFEN
100
AcDbText
 10
-217.7499999999999
 20
2423.944999999998
 30
0.0
 40
5.0
  1
galv. verzinkt
  7
ARIAL50
100
AcDbText
  0
TEXT
  5
C0
330
2
100
AcDbEntity
  8
HALFEN
100
AcDbText
 10
-212.75
 20
2518.959999999998
 30
0.0
 40
5.0
  1
Benennung
  7
ARIAL50
100
AcDbText
  0
LINE
  5
C1
330
2
100
AcDbEntity
  8
HALFEN
100
AcDbLine
 10
-217.75
 20
2516.459999999999
 30
0.0
 11
-67.74999999999997
 21
2516.459999999999
 31
0.0
  0
LINE
  5
C2
330
2
100
AcDbEntity
  8
HALFEN
100
AcDbLine
 10
-217.75
 20
2506.459999999999
 30
0.0
 11
-67.74999999999997
 21
2506.459999999999
 31
0.0
  0
LINE
  5
C3
330
2
100
AcDbEntity
  8
HALFEN
100
AcDbLine
 10
-217.75
 20
2526.459999999998
 30
0.0
 11
-67.74999999999997
 21
2526.459999999998
 31
0.0
  0
ARC
  5
C4
330
2
100
AcDbEntity
  8
HALFEN
 62
     1
100
AcDbCircle
 10
-183.3499999999999
 20
2478.952499999998
 30
0.0
 40
4.0
100
AcDbArc
 50
280.0000000000001
 51
210.0
  0
LWPOLYLINE
  5
C5
330
2
100
AcDbEntity
  8
HALFEN
100
AcDbPolyline
 90
        6
 70
     1
 43
0.0
 10
-189.8499999999999
 20
2475.199723250265
 10
-183.3499999999999
 20
2471.446946500533
 10
-176.8499999999999
 20
2475.199723250265
 10
-176.8499999999999
 20
2482.705276749731
 10
-183.3499999999999
 20
2486.458053499463
 10
-189.8499999999999
 20
2482.705276749731
  0
CIRCLE
  5
C6
330
2
100
AcDbEntity
  8
HALFEN
100
AcDbCircle
 10
-183.3499999999999
 20
2478.952499999998
 30
0.0
 40
6.5
  0
LINE
  5
C7
330
2
100
AcDbEntity
  8
HALFEN
  6
MITTE2
 62
     1
100
AcDbLine
 10
-189.8499999999999
 20
2478.952499999998
 30
0.0
 11
-176.8499999999999
 21
2478.952499999998
 31
0.0
  0
TEXT
  5
C8
330
2
100
AcDbEntity
  8
HALFEN
100
AcDbText
 10
-217.75
 20
2528.959999999998
 30
0.0
 40
5.0
  1
galv. verzinkt
  7
ARIAL50
100
AcDbText
  0
TEXT
  5
C9
330
2
100
AcDbEntity
  8
HALFEN
100
AcDbText
 10
-212.75
 20
2620.509999999999
 30
0.0
 40
5.0
  1
Benennung
  7
ARIAL50
100
AcDbText
  0
LINE
  5
CA
330
2
100
AcDbEntity
  8
HALFEN
100
AcDbLine
 10
-217.75
 20
2618.009999999999
 30
0.0
 11
-67.75
 21
2618.009999999999
 31
0.0
  0
LINE
  5
CB
330
2
100
AcDbEntity
  8
HALFEN
100
AcDbLine
 10
-217.75
 20
2608.009999999998
 30
0.0
 11
-67.75
 21
2608.009999999998
 31
0.0
  0
LINE
  5
CC
330
2
100
AcDbEntity
  8
HALFEN
100
AcDbLine
 10
-217.75
 20
2628.009999999998
 30
0.0
 11
-67.75
 21
2628.009999999998
 31
0.0
  0
CIRCLE
  5
CD
330
2
100
AcDbEntity
  8
HALFEN
100
AcDbCircle
 10
-186.65
 20
2582.234999999998
 30
0.0
 40
5.0
  0
LWPOLYLINE
  5
CE
330
2
100
AcDbEntity
  8
HALFEN
100
AcDbPolyline
 90
        6
 70
     1
 43
0.0
 10
-191.65
 20
2579.34824865405
 10
-186.65
 20
2576.461497308102
 10
-181.6499999999999
 20
2579.34824865405
 10
-181.6499999999999
 20
2585.121751345946
 10
-186.6499999999999
 20
2588.008502691895
 10
-191.65
 20
2585.121751345946
  0
LINE
  5
CF
330
2
100
AcDbEntity
  8
HALFEN
 62
     1
100
AcDbLine
 10
-191.65
 20
2582.234999999998
 30
0.0
 11
-181.6499999999999
 21
2582.234999999998
 31
0.0
  0
CIRCLE
  5
D0
330
2
100
AcDbEntity
  8
HALFEN
100
AcDbCircle
 10
-186.65
 20
2582.234999999998
 30
0.0
 40
2.458499999999999
  0
ARC
  5
D1
330
2
100
AcDbEntity
  8
HALFEN
 62
     1
100
AcDbCircle
 10
-186.65
 20
2582.234999999998
 30
0.0
 40
3.0
100
AcDbArc
 50
280.0000000000001
 51
210.0
  0
TEXT
  5
D2
330
2
100
AcDbEntity
  8
HALFEN
100
AcDbText
 10
-217.75
 20
2630.509999999999
 30
0.0
 40
5.0
  1
galv. verzinkt
  7
ARIAL50
100
AcDbText
  0
LINE
  5
DD
330
2
100
AcDbEntity
  8
HALFEN
100
AcDbLine
 10
-216.9445963744804
 20
2272.964999999999
 30
0.0
 11
-206.3554036255194
 21
2272.964999999999
 31
0.0
  0
LINE
  5
DE
330
2
100
AcDbEntity
  8
HALFEN
100
AcDbLine
 10
-216.9445963744804
 20
2257.372499999998
 30
0.0
 11
-206.3554036255194
 21
2257.372499999998
 31
0.0
  0
LINE
  5
DF
330
2
100
AcDbEntity
  8
HALFEN
100
AcDbLine
 10
-216.9445963744804
 20
2252.174999999998
 30
0.0
 11
-206.3554036255194
 21
2252.174999999998
 31
0.0
  0
LINE
  5
E0
330
2
100
AcDbEntity
  8
HALFEN
100
AcDbLine
 10
-216.9445963744804
 20
2267.767499999999
 30
0.0
 11
-206.3554036255194
 21
2267.767499999999
 31
0.0
  0
LINE
  5
E1
330
2
100
AcDbEntity
  8
HALFEN
  6
MITTE2
 62
     1
100
AcDbLine
 10
-217.7499999999999
 20
2262.569999999999
 30
0.0
 11
-205.5499999999999
 21
2262.569999999999
 31
0.0
  0
TEXT
  5
E2
330
2
100
AcDbEntity
  8
HALFEN
100
AcDbText
 10
-212.7499999999999
 20
2295.464999999998
 30
0.0
 40
5.0
  1
Id. Nr.
  7
ARIAL50
100
AcDbText
  0
LINE
  5
E3
330
2
100
AcDbEntity
  8
HALFEN
100
AcDbLine
 10
-217.7499999999999
 20
2271.569999999999
 30
0.0
 11
-217.7499999999999
 21
2253.569999999999
 31
0.0
  0
ARC
  5
E4
330
2
100
AcDbEntity
  8
HALFEN
100
AcDbCircle
 10
-213.1546788914608
 20
2270.366249999998
 30
0.0
 40
4.595321108539113
100
AcDbArc
 50
154.4384694045695
 51
214.438469404786
  0
ARC
  5
E5
330
2
100
AcDbEntity
  8
HALFEN
100
AcDbCircle
 10
-213.1546788914608
 20
2254.773750000001
 30
0.0
 40
4.595321108539113
100
AcDbArc
 50
145.5615305952385
 51
205.561530595622
  0
LINE
  5
E6
330
2
100
AcDbEntity
  8
HALFEN
100
AcDbLine
 10
-216.9445963744804
 20
2252.174999999998
 30
0.0
 11
-217.7499999999999
 21
2253.569999999999
 31
0.0
  0
ARC
  5
E7
330
2
100
AcDbEntity
  8
HALFEN
100
AcDbCircle
 10
-200.5768210041266
 20
2262.569999999999
 30
0.0
 40
17.17317899587332
100
AcDbArc
 50
162.3830311595784
 51
197.6169688404216
  0
LINE
  5
E8
330
2
100
AcDbEntity
  8
HALFEN
100
AcDbLine
 10
-216.9445963744804
 20
2272.964999999999
 30
0.0
 11
-217.7499999999999
 21
2271.569999999999
 31
0.0
  0
LINE
  5
E9
330
2
100
AcDbEntity
  8
HALFEN
100
AcDbLine
 10
-217.7499999999999
 20
2292.964999999998
 30
0.0
 11
-217.7499999999999
 21
2312.964999999998
 31
0.0
  0
LINE
  5
EA
330
2
100
AcDbEntity
  8
HALFEN
100
AcDbLine
 10
-205.5499999999999
 20
2271.569999999999
 30
0.0
 11
-205.5499999999999
 21
2253.569999999999
 31
0.0
  0
ARC
  5
EB
330
2
100
AcDbEntity
  8
HALFEN
100
AcDbCircle
 10
-210.145321108539
 20
2270.366249999998
 30
0.0
 40
4.595321108539113
100
AcDbArc
 50
325.5615305952141
 51
25.56153059542996
  0
LINE
  5
EC
330
2
100
AcDbEntity
  8
HALFEN
100
AcDbLine
 10
-206.3554036255194
 20
2252.174999999998
 30
0.0
 11
-205.5499999999999
 21
2253.569999999999
 31
0.0
  0
ARC
  5
ED
330
2
100
AcDbEntity
  8
HALFEN
100
AcDbCircle
 10
-222.7231789958733
 20
2262.569999999999
 30
0.0
 40
17.17317899587339
100
AcDbArc
 50
342.3830311595785
 51
17.61696884042152
  0
ARC
  5
EE
330
2
100
AcDbEntity
  8
HALFEN
100
AcDbCircle
 10
-210.1453211085467
 20
2254.773749999999
 30
0.0
 40
4.595321108546784
100
AcDbArc
 50
334.4384694047317
 51
34.43846940473186
  0
LINE
  5
EF
330
2
100
AcDbEntity
  8
HALFEN
100
AcDbLine
 10
-206.3554036255194
 20
2272.964999999999
 30
0.0
 11
-205.5499999999999
 21
2271.569999999999
 31
0.0
  0
TEXT
  5
F0
330
2
100
AcDbEntity
  8
HALFEN
100
AcDbText
 10
-212.75
 20
2403.944999999998
 30
0.0
 40
5.0
  1
Id. Nr.
  7
ARIAL50
100
AcDbText
  0
LINE
  5
F1
330
2
100
AcDbEntity
  8
HALFEN
100
AcDbLine
 10
-208.25
 20
2380.204999999998
 30
0.0
 11
-208.25
 21
2364.204999999998
 31
0.0
  0
LINE
  5
F2
330
2
100
AcDbEntity
  8
HALFEN
100
AcDbLine
 10
-217.75
 20
2380.204999999998
 30
0.0
 11
-217.75
 21
2364.204999999998
 31
0.0
  0
ARC
  5
F3
330
2
100
AcDbEntity
  8
HALFEN
100
AcDbCircle
 10
-202.4849520036447
 20
2372.204999999998
 30
0.0
 40
15.26504799635524
100
AcDbArc
 50
162.383031159605
 51
197.616968840395
  0
ARC
  5
F4
330
2
100
AcDbEntity
  8
HALFEN
100
AcDbCircle
 10
-223.5150479963552
 20
2372.204999999998
 30
0.0
 40
15.26504799635522
100
AcDbArc
 50
342.383031159605
 51
17.61696884039504
  0
ARC
  5
F5
330
2
100
AcDbEntity
  8
HALFEN
100
AcDbCircle
 10
-213.6652701257379
 20
2365.274999999999
 30
0.0
 40
4.08472987426214
100
AcDbArc
 50
145.5615305952608
 51
205.561530595355
  0
LINE
  5
F6
330
2
100
AcDbEntity
  8
HALFEN
100
AcDbLine
 10
-217.0340856662048
 20
2362.964999999999
 30
0.0
 11
-217.75
 21
2364.204999999998
 31
0.0
  0
LINE
  5
F7
330
2
100
AcDbEntity
  8
HALFEN
100
AcDbLine
 10
-217.0340856662048
 20
2362.964999999999
 30
0.0
 11
-208.9659143337951
 21
2362.964999999999
 31
0.0
  0
LINE
  5
F8
330
2
100
AcDbEntity
  8
HALFEN
100
AcDbLine
 10
-217.0340856662048
 20
2367.584999999998
 30
0.0
 11
-208.9659143337951
 21
2367.584999999998
 31
0.0
  0
ARC
  5
F9
330
2
100
AcDbEntity
  8
HALFEN
100
AcDbCircle
 10
-212.3347298742638
 20
2365.274999999998
 30
0.0
 40
4.084729874263807
100
AcDbArc
 50
334.4384694047316
 51
34.4384694047319
  0
LINE
  5
FA
330
2
100
AcDbEntity
  8
HALFEN
100
AcDbLine
 10
-208.9659143337951
 20
2362.964999999999
 30
0.0
 11
-208.25
 21
2364.204999999998
 31
0.0
  0
LINE
  5
FB
330
2
100
AcDbEntity
  8
HALFEN
 62
     1
100
AcDbLine
 10
-217.75
 20
2372.204999999998
 30
0.0
 11
-208.25
 21
2372.204999999998
 31
0.0
  0
ARC
  5
FC
330
2
100
AcDbEntity
  8
HALFEN
100
AcDbCircle
 10
-213.6652701257379
 20
2379.134999999998
 30
0.0
 40
4.08472987426214
100
AcDbArc
 50
154.4384694046924
 51
214.4384694047451
  0
LINE
  5
FD
330
2
100
AcDbEntity
  8
HALFEN
100
AcDbLine
 10
-217.0340856662048
 20
2376.824999999998
 30
0.0
 11
-208.9659143337951
 21
2376.824999999998
 31
0.0
  0
LINE
  5
FE
330
2
100
AcDbEntity
  8
HALFEN
100
AcDbLine
 10
-217.0340856662048
 20
2381.444999999998
 30
0.0
 11
-217.75
 21
2380.204999999998
 31
0.0
  0
LINE
  5
FF
330
2
100
AcDbEntity
  8
HALFEN
100
AcDbLine
 10
-217.0340856662048
 20
2381.444999999998
 30
0.0
 11
-208.9659143337951
 21
2381.444999999998
 31
0.0
  0
ARC
  5
100
330
2
100
AcDbEntity
  8
HALFEN
100
AcDbCircle
 10
-212.3347298742621
 20
2379.134999999998
 30
0.0
 40
4.08472987426214
100
AcDbArc
 50
325.5615305952549
 51
25.56153059530754
  0
LINE
  5
101
330
2
100
AcDbEntity
  8
HALFEN
100
AcDbLine
 10
-208.9659143337951
 20
2381.444999999998
 30
0.0
 11
-208.25
 21
2380.204999999998
 31
0.0
  0
LINE
  5
102
330
2
100
AcDbEntity
  8
HALFEN
100
AcDbLine
 10
-217.75
 20
2401.444999999998
 30
0.0
 11
-217.75
 21
2421.444999999998
 31
0.0
  0
TEXT
  5
103
330
2
100
AcDbEntity
  8
HALFEN
100
AcDbText
 10
-212.75
 20
2508.959999999998
 30
0.0
 40
5.0
  1
Id. Nr.
  7
ARIAL50
100
AcDbText
  0
LINE
  5
104
330
2
100
AcDbEntity
  8
HALFEN
100
AcDbLine
 10
-217.75
 20
2485.452499999998
 30
0.0
 11
-217.75
 21
2472.452499999998
 31
0.0
  0
ARC
  5
105
330
2
100
AcDbEntity
  8
HALFEN
100
AcDbCircle
 10
-205.3471485029555
 20
2478.952499999998
 30
0.0
 40
12.40285149704446
100
AcDbArc
 50
162.3830311596131
 51
197.6169688403869
  0
LINE
  5
106
330
2
100
AcDbEntity
  8
HALFEN
100
AcDbLine
 10
-209.85
 20
2485.452499999998
 30
0.0
 11
-209.85
 21
2472.452499999998
 31
0.0
  0
ARC
  5
107
330
2
100
AcDbEntity
  8
HALFEN
100
AcDbCircle
 10
-222.2528514970445
 20
2478.952499999998
 30
0.0
 40
12.40285149704447
100
AcDbArc
 50
342.3830311596132
 51
17.61696884038685
  0
LINE
  5
108
330
2
100
AcDbEntity
  8
HALFEN
  6
MITTE2
 62
     1
100
AcDbLine
 10
-217.75
 20
2478.952499999998
 30
0.0
 11
-209.85
 21
2478.952499999998
 31
0.0
  0
LINE
  5
109
330
2
100
AcDbEntity
  8
HALFEN
100
AcDbLine
 10
-217.1683196037914
 20
2471.444999999998
 30
0.0
 11
-210.4316803962085
 21
2471.444999999998
 31
0.0
  0
LINE
  5
10A
330
2
100
AcDbEntity
  8
HALFEN
100
AcDbLine
 10
-217.1683196037914
 20
2475.198749999999
 30
0.0
 11
-210.4316803962085
 21
2475.198749999999
 31
0.0
  0
ARC
  5
10B
330
2
100
AcDbEntity
  8
HALFEN
100
AcDbCircle
 10
-214.4311569771606
 20
2473.321874999999
 30
0.0
 40
3.318843022839325
100
AcDbArc
 50
145.561530595268
 51
205.56153059527
  0
LINE
  5
10C
330
2
100
AcDbEntity
  8
HALFEN
100
AcDbLine
 10
-217.1683196037914
 20
2471.444999999998
 30
0.0
 11
-217.75
 21
2472.452499999998
 31
0.0
  0
ARC
  5
10D
330
2
100
AcDbEntity
  8
HALFEN
100
AcDbCircle
 10
-213.1688430228393
 20
2473.321874999999
 30
0.0
 40
3.318843022839344
100
AcDbArc
 50
334.4384694047317
 51
34.4384694047319
  0
LINE
  5
10E
330
2
100
AcDbEntity
  8
HALFEN
100
AcDbLine
 10
-210.4316803962085
 20
2471.444999999998
 30
0.0
 11
-209.85
 21
2472.452499999998
 31
0.0
  0
LINE
  5
10F
330
2
100
AcDbEntity
  8
HALFEN
100
AcDbLine
 10
-217.75
 20
2506.459999999999
 30
0.0
 11
-217.75
 21
2526.459999999998
 31
0.0
  0
LINE
  5
110
330
2
100
AcDbEntity
  8
HALFEN
100
AcDbLine
 10
-217.1683196037914
 20
2482.706249999998
 30
0.0
 11
-210.4316803962085
 21
2482.706249999998
 31
0.0
  0
LINE
  5
111
330
2
100
AcDbEntity
  8
HALFEN
100
AcDbLine
 10
-217.1683196037914
 20
2486.459999999998
 30
0.0
 11
-210.4316803962085
 21
2486.459999999998
 31
0.0
  0
ARC
  5
112
330
2
100
AcDbEntity
  8
HALFEN
100
AcDbCircle
 10
-214.4311569771606
 20
2484.583124999998
 30
0.0
 40
3.318843022839325
100
AcDbArc
 50
154.4384694047311
 51
214.4384694047321
  0
LINE
  5
113
330
2
100
AcDbEntity
  8
HALFEN
100
AcDbLine
 10
-217.1683196037914
 20
2486.459999999998
 30
0.0
 11
-217.75
 21
2485.452499999998
 31
0.0
  0
ARC
  5
114
330
2
100
AcDbEntity
  8
HALFEN
100
AcDbCircle
 10
-213.1688430228393
 20
2484.583124999998
 30
0.0
 40
3.318843022839325
100
AcDbArc
 50
325.5615305952679
 51
25.56153059526877
  0
LINE
  5
115
330
2
100
AcDbEntity
  8
HALFEN
100
AcDbLine
 10
-210.4316803962085
 20
2486.459999999998
 30
0.0
 11
-209.85
 21
2485.452499999998
 31
0.0
  0
TEXT
  5
116
330
2
100
AcDbEntity
  8
HALFEN
100
AcDbText
 10
-212.75
 20
2610.509999999999
 30
0.0
 40
5.0
  1
Id. Nr.
  7
ARIAL50
100
AcDbText
  0
LINE
  5
117
330
2
100
AcDbEntity
  8
HALFEN
 62
     1
100
AcDbLine
 10
-217.75
 20
2582.234999999998
 30
0.0
 11
-211.65
 21
2582.234999999998
 31
0.0
  0
ARC
  5
118
330
2
100
AcDbEntity
  8
HALFEN
100
AcDbCircle
 10
-214.2029561714117
 20
2586.566249999999
 30
0.0
 40
2.552956171411752
100
AcDbArc
 50
325.5615305952284
 51
25.56153059538713
  0
ARC
  5
119
330
2
100
AcDbEntity
  8
HALFEN
100
AcDbCircle
 10
-214.2029561714149
 20
2577.903749999999
 30
0.0
 40
2.55295617141488
100
AcDbArc
 50
334.4384694047319
 51
34.43846940473188
  0
ARC
  5
11A
330
2
100
AcDbEntity
  8
HALFEN
100
AcDbCircle
 10
-221.1906549976296
 20
2582.234999999998
 30
0.0
 40
9.540654997629651
100
AcDbArc
 50
342.383031159437
 51
17.61696884056291
  0
LINE
  5
11B
330
2
100
AcDbEntity
  8
HALFEN
100
AcDbLine
 10
-212.097446458622
 20
2576.459999999999
 30
0.0
 11
-211.65
 21
2577.234999999999
 31
0.0
  0
LINE
  5
11C
330
2
100
AcDbEntity
  8
HALFEN
100
AcDbLine
 10
-212.097446458622
 20
2588.009999999999
 30
0.0
 11
-211.65
 21
2587.234999999998
 31
0.0
  0
LINE
  5
11D
330
2
100
AcDbEntity
  8
HALFEN
100
AcDbLine
 10
-217.302553541378
 20
2588.009999999999
 30
0.0
 11
-217.75
 21
2587.234999999998
 31
0.0
  0
ARC
  5
11E
330
2
100
AcDbEntity
  8
HALFEN
100
AcDbCircle
 10
-215.1970438285883
 20
2586.566249999999
 30
0.0
 40
2.552956171411752
100
AcDbArc
 50
154.4384694046135
 51
214.4384694047716
  0
LINE
  5
11F
330
2
100
AcDbEntity
  8
HALFEN
100
AcDbLine
 10
-217.75
 20
2587.234999999998
 30
0.0
 11
-217.75
 21
2577.234999999999
 31
0.0
  0
ARC
  5
120
330
2
100
AcDbEntity
  8
HALFEN
100
AcDbCircle
 10
-208.2093450023703
 20
2582.234999999998
 30
0.0
 40
9.540654997629703
100
AcDbArc
 50
162.3830311594372
 51
197.6169688405628
  0
ARC
  5
121
330
2
100
AcDbEntity
  8
HALFEN
100
AcDbCircle
 10
-215.1970438285883
 20
2577.903749999999
 30
0.0
 40
2.552956171411752
100
AcDbArc
 50
145.5615305952464
 51
205.5615305955275
  0
LINE
  5
122
330
2
100
AcDbEntity
  8
HALFEN
100
AcDbLine
 10
-217.302553541378
 20
2585.122499999998
 30
0.0
 11
-212.097446458622
 21
2585.122499999998
 31
0.0
  0
LINE
  5
123
330
2
100
AcDbEntity
  8
HALFEN
100
AcDbLine
 10
-217.302553541378
 20
2576.459999999999
 30
0.0
 11
-217.75
 21
2577.234999999999
 31
0.0
  0
LINE
  5
124
330
2
100
AcDbEntity
  8
HALFEN
100
AcDbLine
 10
-217.302553541378
 20
2576.459999999999
 30
0.0
 11
-212.097446458622
 21
2576.459999999999
 31
0.0
  0
LINE
  5
125
330
2
100
AcDbEntity
  8
HALFEN
100
AcDbLine
 10
-217.302553541378
 20
2579.347499999999
 30
0.0
 11
-212.097446458622
 21
2579.347499999999
 31
0.0
  0
LINE
  5
126
330
2
100
AcDbEntity
  8
HALFEN
100
AcDbLine
 10
-217.302553541378
 20
2588.009999999999
 30
0.0
 11
-212.097446458622
 21
2588.009999999999
 31
0.0
  0
LINE
  5
127
330
2
100
AcDbEntity
  8
HALFEN
100
AcDbLine
 10
-211.65
 20
2587.234999999998
 30
0.0
 11
-211.65
 21
2577.234999999999
 31
0.0
  0
LINE
  5
128
330
2
100
AcDbEntity
  8
HALFEN
100
AcDbLine
 10
-217.75
 20
2608.009999999998
 30
0.0
 11
-217.75
 21
2628.009999999998
 31
0.0
  0
TEXT
  5
13D
330
2
100
AcDbEntity
  8
HALFEN
100
AcDbText
 10
-162.7499999999999
 20
2295.464999999998
 30
0.0
 40
5.0
  1
0360.050-00002
  7
ARIAL50
100
AcDbText
  0
TEXT
  5
13E
330
2
100
AcDbEntity
  8
HALFEN
100
AcDbText
 10
-162.7499999999999
 20
2305.464999999998
 30
0.0
 40
5.0
  1
MU - M 12 - gv
  7
ARIAL50
100
AcDbText
  0
TEXT
  5
13F
330
2
100
AcDbEntity
  8
HALFEN
100
AcDbText
 10
-162.7499999999999
 20
2403.944999999998
 30
0.0
 40
5.0
  1
0360.040-00001
  7
ARIAL50
100
AcDbText
  0
TEXT
  5
140
330
2
100
AcDbEntity
  8
HALFEN
100
AcDbText
 10
-162.7499999999999
 20
2413.944999999998
 30
0.0
 40
5.0
  1
MU - M 10 - gv
  7
ARIAL50
100
AcDbText
  0
LINE
  5
141
330
2
100
AcDbEntity
  8
HALFEN
  6
MITTE2
 62
     1
100
AcDbLine
 10
-176.5499999999999
 20
2272.962304845412
 30
0.0
 11
-176.5499999999999
 21
2252.177695154585
 31
0.0
  0
LWPOLYLINE
  5
142
330
2
100
AcDbEntity
  8
HALFEN
100
AcDbPolyline
 90
        6
 70
     1
 43
0.0
 10
-185.5499999999999
 20
2257.373847577292
 10
-176.5499999999999
 20
2252.177695154585
 10
-167.5499999999999
 20
2257.373847577292
 10
-167.5499999999999
 20
2267.766152422705
 10
-176.5499999999998
 20
2272.962304845412
 10
-185.5499999999999
 20
2267.766152422705
  0
CIRCLE
  5
143
330
2
100
AcDbEntity
  8
HALFEN
100
AcDbCircle
 10
-176.5499999999999
 20
2262.569999999999
 30
0.0
 40
9.0
  0
ARC
  5
144
330
2
100
AcDbEntity
  8
HALFEN
 62
     1
100
AcDbCircle
 10
-176.5499999999999
 20
2262.569999999999
 30
0.0
 40
6.0
100
AcDbArc
 50
280.0000000000001
 51
210.0
  0
LINE
  5
145
330
2
100
AcDbEntity
  8
HALFEN
  6
MITTE2
 62
     1
100
AcDbLine
 10
-185.5499999999999
 20
2262.569999999999
 30
0.0
 11
-167.5499999999999
 21
2262.569999999999
 31
0.0
  0
CIRCLE
  5
146
330
2
100
AcDbEntity
  8
HALFEN
100
AcDbCircle
 10
-176.5499999999999
 20
2262.569999999999
 30
0.0
 40
5.052999999999999
  0
LINE
  5
147
330
2
100
AcDbEntity
  8
HALFEN
100
AcDbLine
 10
-167.7499999999999
 20
2292.964999999998
 30
0.0
 11
-167.7499999999999
 21
2312.964999999998
 31
0.0
  0
CIRCLE
  5
148
330
2
100
AcDbEntity
  8
HALFEN
100
AcDbCircle
 10
-180.25
 20
2372.204999999998
 30
0.0
 40
4.187999999999999
  0
LINE
  5
149
330
2
100
AcDbEntity
  8
HALFEN
 62
     1
100
AcDbLine
 10
-180.25
 20
2381.442604307032
 30
0.0
 11
-180.25
 21
2362.967395692964
 31
0.0
  0
ARC
  5
14A
330
2
100
AcDbEntity
  8
HALFEN
 62
     1
100
AcDbCircle
 10
-180.25
 20
2372.204999999998
 30
0.0
 40
5.0
100
AcDbArc
 50
280.0000000000001
 51
210.0
  0
LINE
  5
14B
330
2
100
AcDbEntity
  8
HALFEN
100
AcDbLine
 10
-167.75
 20
2401.444999999998
 30
0.0
 11
-167.75
 21
2421.444999999998
 31
0.0
  0
TEXT
  5
14C
330
2
100
AcDbEntity
  8
HALFEN
100
AcDbText
 10
-162.7499999999999
 20
2508.959999999998
 30
0.0
 40
5.0
  1
0360.030-00001
  7
ARIAL50
100
AcDbText
  0
TEXT
  5
14D
330
2
100
AcDbEntity
  8
HALFEN
100
AcDbText
 10
-162.7499999999999
 20
2518.959999999998
 30
0.0
 40
5.0
  1
MU - M 8 - gv
  7
ARIAL50
100
AcDbText
  0
TEXT
  5
14E
330
2
100
AcDbEntity
  8
HALFEN
100
AcDbText
 10
-162.75
 20
2610.509999999999
 30
0.0
 40
5.0
  1
0360.020-00001
  7
ARIAL50
100
AcDbText
  0
TEXT
  5
14F
330
2
100
AcDbEntity
  8
HALFEN
100
AcDbText
 10
-162.75
 20
2620.509999999999
 30
0.0
 40
5.0
  1
MU - M 6 - gv
  7
ARIAL50
100
AcDbText
  0
LINE
  5
150
330
2
100
AcDbEntity
  8
HALFEN
  6
MITTE2
 62
     1
100
AcDbLine
 10
-183.3499999999999
 20
2486.458053499463
 30
0.0
 11
-183.3499999999999
 21
2471.446946500533
 31
0.0
  0
CIRCLE
  5
151
330
2
100
AcDbEntity
  8
HALFEN
100
AcDbCircle
 10
-183.3499999999999
 20
2478.952499999998
 30
0.0
 40
3.3235
  0
LINE
  5
152
330
2
100
AcDbEntity
  8
HALFEN
100
AcDbLine
 10
-167.75
 20
2506.459999999999
 30
0.0
 11
-167.75
 21
2526.459999999998
 31
0.0
  0
LINE
  5
153
330
2
100
AcDbEntity
  8
HALFEN
 62
     1
100
AcDbLine
 10
-186.65
 20
2588.008502691895
 30
0.0
 11
-186.65
 21
2576.461497308102
 31
0.0
  0
LINE
  5
154
330
2
100
AcDbEntity
  8
HALFEN
100
AcDbLine
 10
-167.75
 20
2608.009999999998
 30
0.0
 11
-167.75
 21
2628.009999999998
 31
0.0
  0
LINE
  5
155
330
2
100
AcDbEntity
  8
HALFEN
100
AcDbLine
 10
-67.74999999999991
 20
2292.964999999998
 30
0.0
 11
-67.74999999999991
 21
2312.964999999998
 31
0.0
  0
LINE
  5
156
330
2
100
AcDbEntity
  8
HALFEN
100
AcDbLine
 10
-67.74999999999997
 20
2401.444999999998
 30
0.0
 11
-67.74999999999997
 21
2421.444999999998
 31
0.0
  0
TEXT
  5
157
330
2
100
AcDbEntity
  8
HALFEN
100
AcDbText
 10
-52.74999999999991
 20
2295.464999999998
 30
0.0
 40
5.0
  1
Id. Nr.
  7
ARIAL50
100
AcDbText
  0
LINE
  5
158
330
2
100
AcDbEntity
  8
HALFEN
100
AcDbLine
 10
-57.74999999999991
 20
2292.964999999998
 30
0.0
 11
-57.74999999999991
 21
2312.964999999998
 31
0.0
  0
TEXT
  5
159
330
2
100
AcDbEntity
  8
HALFEN
100
AcDbText
 10
-52.74999999999997
 20
2403.944999999998
 30
0.0
 40
5.0
  1
Id. Nr.
  7
ARIAL50
100
AcDbText
  0
LINE
  5
15A
330
2
100
AcDbEntity
  8
HALFEN
100
AcDbLine
 10
-57.74999999999997
 20
2401.444999999998
 30
0.0
 11
-57.74999999999997
 21
2421.444999999998
 31
0.0
  0
LINE
  5
15B
330
2
100
AcDbEntity
  8
HALFEN
100
AcDbLine
 10
-67.74999999999997
 20
2506.459999999999
 30
0.0
 11
-67.74999999999997
 21
2526.459999999998
 31
0.0
  0
LINE
  5
15C
330
2
100
AcDbEntity
  8
HALFEN
100
AcDbLine
 10
-67.75
 20
2608.009999999998
 30
0.0
 11
-67.75
 21
2628.009999999998
 31
0.0
  0
TEXT
  5
15D
330
2
100
AcDbEntity
  8
HALFEN
100
AcDbText
 10
-52.74999999999997
 20
2508.959999999998
 30
0.0
 40
5.0
  1
Id. Nr.
  7
ARIAL50
100
AcDbText
  0
LINE
  5
15E
330
2
100
AcDbEntity
  8
HALFEN
100
AcDbLine
 10
-57.74999999999997
 20
2506.459999999999
 30
0.0
 11
-57.74999999999997
 21
2526.459999999998
 31
0.0
  0
TEXT
  5
15F
330
2
100
AcDbEntity
  8
HALFEN
100
AcDbText
 10
-52.75
 20
2610.509999999999
 30
0.0
 40
5.0
  1
Id. Nr.
  7
ARIAL50
100
AcDbText
  0
LINE
  5
160
330
2
100
AcDbEntity
  8
HALFEN
100
AcDbLine
 10
-57.75
 20
2608.009999999998
 30
0.0
 11
-57.75
 21
2628.009999999998
 31
0.0
  0
LINE
  5
165
330
2
100
AcDbEntity
  8
HALFEN
100
AcDbLine
 10
102.2500000000001
 20
2202.174999999998
 30
0.0
 11
252.2500000000001
 21
2202.174999999998
 31
0.0
  0
LINE
  5
166
330
2
100
AcDbEntity
  8
HALFEN
100
AcDbLine
 10
102.2500000000001
 20
2192.174999999998
 30
0.0
 11
252.2500000000001
 21
2192.174999999998
 31
0.0
  0
LINE
  5
167
330
2
100
AcDbEntity
  8
HALFEN
100
AcDbLine
 10
102.2500000000001
 20
2182.174999999999
 30
0.0
 11
252.2500000000001
 21
2182.174999999999
 31
0.0
  0
TEXT
  5
168
330
2
100
AcDbEntity
  8
HALFEN
100
AcDbText
 10
-2.749999999999914
 20
2066.954999999998
 30
0.0
 40
5.0
  1
0360.080-00003
  7
ARIAL50
100
AcDbText
  0
TEXT
  5
169
330
2
100
AcDbEntity
  8
HALFEN
100
AcDbText
 10
-2.749999999999914
 20
2184.674999999998
 30
0.0
 40
5.0
  1
0360.070-00004
  7
ARIAL50
100
AcDbText
  0
TEXT
  5
16A
330
2
100
AcDbEntity
  8
HALFEN
100
AcDbText
 10
-2.749999999999914
 20
2076.954999999998
 30
0.0
 40
5.0
  1
MU - M 20 - A4
  7
ARIAL50
100
AcDbText
  0
TEXT
  5
16B
330
2
100
AcDbEntity
  8
HALFEN
100
AcDbText
 10
-2.749999999999914
 20
2194.674999999998
 30
0.0
 40
5.0
  1
MU - M 16 - A4
  7
ARIAL50
100
AcDbText
  0
LINE
  5
16C
330
2
100
AcDbEntity
  8
HALFEN
100
AcDbLine
 10
-7.749999999999914
 20
2064.454999999998
 30
0.0
 11
-7.749999999999914
 21
2084.454999999998
 31
0.0
  0
LINE
  5
16D
330
2
100
AcDbEntity
  8
HALFEN
100
AcDbLine
 10
-7.749999999999914
 20
2182.174999999999
 30
0.0
 11
-7.749999999999914
 21
2202.174999999998
 31
0.0
  0
TEXT
  5
16E
330
2
100
AcDbEntity
  8
HALFEN
100
AcDbText
 10
102.2500000000002
 20
2204.674999999999
 30
0.0
 40
5.0
  1
Edelstahl A2
  7
ARIAL50
100
AcDbText
  0
LINE
  5
16F
330
2
100
AcDbEntity
  8
HALFEN
100
AcDbLine
 10
92.25000000000008
 20
2064.454999999998
 30
0.0
 11
92.25000000000008
 21
2084.454999999998
 31
0.0
  0
LINE
  5
170
330
2
100
AcDbEntity
  8
HALFEN
100
AcDbLine
 10
92.25000000000008
 20
2182.174999999999
 30
0.0
 11
92.25000000000008
 21
2202.174999999998
 31
0.0
  0
LINE
  5
171
330
2
100
AcDbEntity
  8
HALFEN
100
AcDbLine
 10
102.2500000000001
 20
2182.174999999999
 30
0.0
 11
102.2500000000001
 21
2202.174999999998
 31
0.0
  0
TEXT
  5
172
330
2
100
AcDbEntity
  8
HALFEN
100
AcDbText
 10
107.2500000000001
 20
2184.674999999998
 30
0.0
 40
5.0
  1
Id. Nr.
  7
ARIAL50
100
AcDbText
  0
TEXT
  5
173
330
2
100
AcDbEntity
  8
HALFEN
100
AcDbText
 10
107.2500000000001
 20
2194.674999999998
 30
0.0
 40
5.0
  1
Benennung
  7
ARIAL50
100
AcDbText
  0
TEXT
  5
174
330
2
100
AcDbEntity
  8
HALFEN
100
AcDbText
 10
157.2500000000001
 20
2194.674999999998
 30
0.0
 40
5.0
  1
MU - M 16 - A2
  7
ARIAL50
100
AcDbText
  0
TEXT
  5
175
330
2
100
AcDbEntity
  8
HALFEN
100
AcDbText
 10
157.2500000000001
 20
2184.674999999998
 30
0.0
 40
5.0
  1
0360.070-00003
  7
ARIAL50
100
AcDbText
  0
LINE
  5
176
330
2
100
AcDbEntity
  8
HALFEN
100
AcDbLine
 10
152.2500000000001
 20
2182.174999999999
 30
0.0
 11
152.2500000000001
 21
2202.174999999998
 31
0.0
  0
LINE
  5
177
330
2
100
AcDbEntity
  8
HALFEN
100
AcDbLine
 10
252.2500000000001
 20
2182.174999999999
 30
0.0
 11
252.2500000000001
 21
2202.174999999998
 31
0.0
  0
LINE
  5
178
330
2
100
AcDbEntity
  8
HALFEN
100
AcDbLine
 10
102.2500000000001
 20
2312.964999999998
 30
0.0
 11
252.2500000000001
 21
2312.964999999998
 31
0.0
  0
LINE
  5
179
330
2
100
AcDbEntity
  8
HALFEN
100
AcDbLine
 10
102.2500000000001
 20
2302.964999999998
 30
0.0
 11
252.2500000000001
 21
2302.964999999998
 31
0.0
  0
LINE
  5
17A
330
2
100
AcDbEntity
  8
HALFEN
100
AcDbLine
 10
102.2500000000001
 20
2292.964999999998
 30
0.0
 11
252.2500000000001
 21
2292.964999999998
 31
0.0
  0
LINE
  5
17B
330
2
100
AcDbEntity
  8
HALFEN
100
AcDbLine
 10
102.25
 20
2421.444999999998
 30
0.0
 11
252.25
 21
2421.444999999998
 31
0.0
  0
LINE
  5
17C
330
2
100
AcDbEntity
  8
HALFEN
100
AcDbLine
 10
102.25
 20
2411.444999999998
 30
0.0
 11
252.25
 21
2411.444999999998
 31
0.0
  0
LINE
  5
17D
330
2
100
AcDbEntity
  8
HALFEN
100
AcDbLine
 10
102.25
 20
2401.444999999998
 30
0.0
 11
252.25
 21
2401.444999999998
 31
0.0
  0
LINE
  5
17E
330
2
100
AcDbEntity
  8
HALFEN
100
AcDbLine
 10
102.25
 20
2516.459999999999
 30
0.0
 11
252.25
 21
2516.459999999999
 31
0.0
  0
LINE
  5
17F
330
2
100
AcDbEntity
  8
HALFEN
100
AcDbLine
 10
102.25
 20
2506.459999999999
 30
0.0
 11
252.25
 21
2506.459999999999
 31
0.0
  0
LINE
  5
180
330
2
100
AcDbEntity
  8
HALFEN
100
AcDbLine
 10
102.25
 20
2526.459999999998
 30
0.0
 11
252.25
 21
2526.459999999998
 31
0.0
  0
TEXT
  5
181
330
2
100
AcDbEntity
  8
HALFEN
100
AcDbText
 10
-2.749999999999914
 20
2295.464999999998
 30
0.0
 40
5.0
  1
0360.050-00004
  7
ARIAL50
100
AcDbText
  0
TEXT
  5
182
330
2
100
AcDbEntity
  8
HALFEN
100
AcDbText
 10
-2.749999999999971
 20
2403.944999999998
 30
0.0
 40
5.0
  1
0360.040-00003
  7
ARIAL50
100
AcDbText
  0
TEXT
  5
183
330
2
100
AcDbEntity
  8
HALFEN
100
AcDbText
 10
-2.749999999999914
 20
2305.464999999998
 30
0.0
 40
5.0
  1
MU - M 12 - A4
  7
ARIAL50
100
AcDbText
  0
TEXT
  5
184
330
2
100
AcDbEntity
  8
HALFEN
100
AcDbText
 10
-2.749999999999971
 20
2413.944999999998
 30
0.0
 40
5.0
  1
MU - M 10 - A4
  7
ARIAL50
100
AcDbText
  0
LINE
  5
185
330
2
100
AcDbEntity
  8
HALFEN
100
AcDbLine
 10
-7.749999999999914
 20
2292.964999999998
 30
0.0
 11
-7.749999999999914
 21
2312.964999999998
 31
0.0
  0
LINE
  5
186
330
2
100
AcDbEntity
  8
HALFEN
100
AcDbLine
 10
-7.749999999999971
 20
2401.444999999998
 30
0.0
 11
-7.749999999999971
 21
2421.444999999998
 31
0.0
  0
TEXT
  5
187
330
2
100
AcDbEntity
  8
HALFEN
100
AcDbText
 10
-2.749999999999971
 20
2508.959999999998
 30
0.0
 40
5.0
  1
0360.030-00003
  7
ARIAL50
100
AcDbText
  0
TEXT
  5
188
330
2
100
AcDbEntity
  8
HALFEN
100
AcDbText
 10
-2.749999999999971
 20
2518.959999999998
 30
0.0
 40
5.0
  1
MU - M 8 - gv
  7
ARIAL50
100
AcDbText
  0
TEXT
  5
189
330
2
100
AcDbEntity
  8
HALFEN
100
AcDbText
 10
-2.75
 20
2610.509999999999
 30
0.0
 40
5.0
  1
0360.020-00002
  7
ARIAL50
100
AcDbText
  0
TEXT
  5
18A
330
2
100
AcDbEntity
  8
HALFEN
100
AcDbText
 10
-2.75
 20
2620.509999999999
 30
0.0
 40
5.0
  1
MU - M 6 - A4
  7
ARIAL50
100
AcDbText
  0
LINE
  5
18B
330
2
100
AcDbEntity
  8
HALFEN
100
AcDbLine
 10
-7.749999999999971
 20
2506.459999999999
 30
0.0
 11
-7.749999999999971
 21
2526.459999999998
 31
0.0
  0
LINE
  5
18C
330
2
100
AcDbEntity
  8
HALFEN
100
AcDbLine
 10
-7.75
 20
2608.009999999998
 30
0.0
 11
-7.75
 21
2628.009999999998
 31
0.0
  0
TEXT
  5
18D
330
2
100
AcDbEntity
  8
HALFEN
100
AcDbText
 10
102.2500000000001
 20
2423.944999999998
 30
0.0
 40
5.0
  1
Edelstahl A2
  7
ARIAL50
100
AcDbText
  0
TEXT
  5
18E
330
2
100
AcDbEntity
  8
HALFEN
100
AcDbText
 10
102.2500000000001
 20
2315.464999999998
 30
0.0
 40
5.0
  1
Edelstahl A2
  7
ARIAL50
100
AcDbText
  0
LINE
  5
18F
330
2
100
AcDbEntity
  8
HALFEN
100
AcDbLine
 10
92.25000000000008
 20
2292.964999999998
 30
0.0
 11
92.25000000000008
 21
2312.964999999998
 31
0.0
  0
LINE
  5
190
330
2
100
AcDbEntity
  8
HALFEN
100
AcDbLine
 10
102.2500000000001
 20
2292.964999999998
 30
0.0
 11
102.2500000000001
 21
2312.964999999998
 31
0.0
  0
LINE
  5
191
330
2
100
AcDbEntity
  8
HALFEN
100
AcDbLine
 10
92.25000000000003
 20
2401.444999999998
 30
0.0
 11
92.25000000000003
 21
2421.444999999998
 31
0.0
  0
LINE
  5
192
330
2
100
AcDbEntity
  8
HALFEN
100
AcDbLine
 10
102.25
 20
2401.444999999998
 30
0.0
 11
102.25
 21
2421.444999999998
 31
0.0
  0
TEXT
  5
193
330
2
100
AcDbEntity
  8
HALFEN
100
AcDbText
 10
107.2500000000001
 20
2295.464999999998
 30
0.0
 40
5.0
  1
Id. Nr.
  7
ARIAL50
100
AcDbText
  0
TEXT
  5
194
330
2
100
AcDbEntity
  8
HALFEN
100
AcDbText
 10
107.2500000000001
 20
2305.464999999998
 30
0.0
 40
5.0
  1
Benennung
  7
ARIAL50
100
AcDbText
  0
TEXT
  5
195
330
2
100
AcDbEntity
  8
HALFEN
100
AcDbText
 10
107.25
 20
2403.944999999998
 30
0.0
 40
5.0
  1
Id. Nr.
  7
ARIAL50
100
AcDbText
  0
TEXT
  5
196
330
2
100
AcDbEntity
  8
HALFEN
100
AcDbText
 10
107.25
 20
2413.944999999998
 30
0.0
 40
5.0
  1
Benennung
  7
ARIAL50
100
AcDbText
  0
TEXT
  5
197
330
2
100
AcDbEntity
  8
HALFEN
100
AcDbText
 10
102.25
 20
2528.959999999998
 30
0.0
 40
5.0
  1
Edelstahl A2
  7
ARIAL50
100
AcDbText
  0
LINE
  5
198
330
2
100
AcDbEntity
  8
HALFEN
100
AcDbLine
 10
92.25000000000003
 20
2506.459999999999
 30
0.0
 11
92.25000000000003
 21
2526.459999999998
 31
0.0
  0
LINE
  5
199
330
2
100
AcDbEntity
  8
HALFEN
100
AcDbLine
 10
102.25
 20
2506.459999999999
 30
0.0
 11
102.25
 21
2526.459999999998
 31
0.0
  0
LINE
  5
19A
330
2
100
AcDbEntity
  8
HALFEN
100
AcDbLine
 10
92.24999999999999
 20
2608.009999999998
 30
0.0
 11
92.24999999999999
 21
2628.009999999998
 31
0.0
  0
TEXT
  5
19B
330
2
100
AcDbEntity
  8
HALFEN
100
AcDbText
 10
107.25
 20
2508.959999999998
 30
0.0
 40
5.0
  1
Id. Nr.
  7
ARIAL50
100
AcDbText
  0
TEXT
  5
19C
330
2
100
AcDbEntity
  8
HALFEN
100
AcDbText
 10
107.25
 20
2518.959999999998
 30
0.0
 40
5.0
  1
Benennung
  7
ARIAL50
100
AcDbText
  0
TEXT
  5
19D
330
2
100
AcDbEntity
  8
HALFEN
100
AcDbText
 10
157.2500000000001
 20
2305.464999999998
 30
0.0
 40
5.0
  1
MU - M 12 - A2
  7
ARIAL50
100
AcDbText
  0
TEXT
  5
19E
330
2
100
AcDbEntity
  8
HALFEN
100
AcDbText
 10
157.25
 20
2413.944999999998
 30
0.0
 40
5.0
  1
MU - M 10 - A2
  7
ARIAL50
100
AcDbText
  0
TEXT
  5
19F
330
2
100
AcDbEntity
  8
HALFEN
100
AcDbText
 10
157.2500000000001
 20
2295.464999999998
 30
0.0
 40
5.0
  1
0360.050-00003
  7
ARIAL50
100
AcDbText
  0
LINE
  5
1A0
330
2
100
AcDbEntity
  8
HALFEN
100
AcDbLine
 10
152.2500000000001
 20
2292.964999999998
 30
0.0
 11
152.2500000000001
 21
2312.964999999998
 31
0.0
  0
TEXT
  5
1A1
330
2
100
AcDbEntity
  8
HALFEN
100
AcDbText
 10
157.25
 20
2403.944999999998
 30
0.0
 40
5.0
  1
0360.040-00002
  7
ARIAL50
100
AcDbText
  0
LINE
  5
1A2
330
2
100
AcDbEntity
  8
HALFEN
100
AcDbLine
 10
152.25
 20
2401.444999999998
 30
0.0
 11
152.25
 21
2421.444999999998
 31
0.0
  0
TEXT
  5
1A3
330
2
100
AcDbEntity
  8
HALFEN
100
AcDbText
 10
157.25
 20
2518.959999999998
 30
0.0
 40
5.0
  1
MU - M 8 - A2
  7
ARIAL50
100
AcDbText
  0
TEXT
  5
1A4
330
2
100
AcDbEntity
  8
HALFEN
100
AcDbText
 10
157.25
 20
2508.959999999998
 30
0.0
 40
5.0
  1
0360.030-00002
  7
ARIAL50
100
AcDbText
  0
LINE
  5
1A5
330
2
100
AcDbEntity
  8
HALFEN
100
AcDbLine
 10
152.25
 20
2506.459999999999
 30
0.0
 11
152.25
 21
2526.459999999998
 31
0.0
  0
LINE
  5
1A6
330
2
100
AcDbEntity
  8
HALFEN
100
AcDbLine
 10
252.2500000000001
 20
2292.964999999998
 30
0.0
 11
252.2500000000001
 21
2312.964999999998
 31
0.0
  0
LINE
  5
1A7
330
2
100
AcDbEntity
  8
HALFEN
100
AcDbLine
 10
252.25
 20
2401.444999999998
 30
0.0
 11
252.25
 21
2421.444999999998
 31
0.0
  0
LINE
  5
1A8
330
2
100
AcDbEntity
  8
HALFEN
100
AcDbLine
 10
252.25
 20
2506.459999999999
 30
0.0
 11
252.25
 21
2526.459999999998
 31
0.0
  0
ENDSEC
  0
SECTION
  2
OBJECTS
  0
DICTIONARY
  5
7
330
0
100
AcDbDictionary
281
     1
  3
ACAD_COLOR
350
23
  3
ACAD_GROUP
350
1F
  3
ACAD_LAYOUT
350
B
  3
ACAD_MATERIAL
350
22
  3
ACAD_MLINESTYLE
350
20
  3
ACAD_PLOTSETTINGS
350
21
  3
ACAD_PLOTSTYLENAME
350
6
  3
ACAD_TABLESTYLE
350
24
  3
AcDbVariableDictionary
350
1AE
  3
ASE_INDEX_DICTIONARY
350
1AB
  0
DICTIONARY
  5
23
102
{ACAD_REACTORS
330
7
102
}
330
7
100
AcDbDictionary
281
     1
  0
DICTIONARY
  5
1F
102
{ACAD_REACTORS
330
7
102
}
330
7
100
AcDbDictionary
281
     1
  0
DICTIONARY
  5
B
102
{ACAD_REACTORS
330
7
102
}
330
7
100
AcDbDictionary
281
     1
  3
Layout1
350
F
  3
Model
350
A
  0
DICTIONARY
  5
22
102
{ACAD_REACTORS
330
7
102
}
330
7
100
AcDbDictionary
281
     1
  0
DICTIONARY
  5
20
102
{ACAD_REACTORS
330
7
102
}
330
7
100
AcDbDictionary
281
     1
  3
STANDARD
350
27
  0
DICTIONARY
  5
21
102
{ACAD_REACTORS
330
7
102
}
330
7
100
AcDbDictionary
281
     1
  0
ACDBDICTIONARYWDFLT
  5
6
102
{ACAD_REACTORS
330
7
102
}
330
7
100
AcDbDictionary
281
     1
  3
Normal
350
5
100
AcDbDictionaryWithDefault
340
5
  0
DICTIONARY
  5
24
102
{ACAD_REACTORS
330
7
102
}
330
7
100
AcDbDictionary
281
     1
  3
Standard
350
28
  0
DICTIONARY
  5
1AE
102
{ACAD_REACTORS
330
7
102
}
330
7
100
AcDbDictionary
281
     1
  3
CTABLESTYLE
350
1AF
  3
DIMASSOC
350
1BD
  3
HIDETEXT
350
1BC
  3
PROJECTNAME
350
1BE
  0
DICTIONARY
  5
1AB
102
{ACAD_REACTORS
330
7
102
}
330
7
100
AcDbDictionary
281
     1
  3
ASEBlockHierarchyIndexRecord
350
1AD
1001
DCO15
1040
1565416393.484
  0
LAYOUT
  5
F
102
{ACAD_REACTORS
330
B
102
}
330
B
100
AcDbPlotSettings
  1

  2
\\DLANT038\DLAKBHL013
  4

  6

 40
0.0
 41
0.0
 42
0.0
 43
0.0
 44
0.0
 45
0.0
 46
0.0
 47
0.0
 48
0.0
 49
0.0
140
0.0
141
0.0
142
1.0
143
1.0
 70
   688
 72
     0
 73
     0
 74
     5
  7

 75
    16
147
1.0
 76
     0
 77
     2
 78
   300
148
0.0
149
0.0
100
AcDbLayout
  1
Layout1
 70
     1
 71
     1
 10
0.0
 20
0.0
 11
12.0
 21
9.0
 12
0.0
 22
0.0
 32
0.0
 14
1.000000000000000E+20
 24
1.000000000000000E+20
 34
1.000000000000000E+20
 15
-1.000000000000000E+20
 25
-1.000000000000000E+20
 35
-1.000000000000000E+20
146
0.0
 13
0.0
 23
0.0
 33
0.0
 16
1.0
 26
0.0
 36
0.0
 17
0.0
 27
1.0
 37
0.0
 76
     0
330
C
  0
LAYOUT
  5
A
102
{ACAD_REACTORS
330
B
102
}
330
B
100
AcDbPlotSettings
  1

  2
\\DLANT038\DLAKBHL013
  4

  6

 40
0.0
 41
0.0
 42
0.0
 43
0.0
 44
0.0
 45
0.0
 46
0.0
 47
0.0
 48
0.0
 49
0.0
140
0.0
141
0.0
142
1.0
143
1.0
 70
  1712
 72
     0
 73
     0
 74
     0
  7

 75
     0
147
1.0
 76
     0
 77
     2
 78
   300
148
0.0
149
0.0
100
AcDbLayout
  1
Model
 70
     1
 71
     0
 10
0.0
 20
0.0
 11
12.0
 21
9.0
 12
0.0
 22
0.0
 32
0.0
 14
0.0
 24
0.0
 34
0.0
 15
0.0
 25
0.0
 35
0.0
146
0.0
 13
0.0
 23
0.0
 33
0.0
 16
1.0
 26
0.0
 36
0.0
 17
0.0
 27
1.0
 37
0.0
 76
     0
330
2
  0
MLINESTYLE
  5
27
102
{ACAD_REACTORS
330
20
102
}
330
20
100
AcDbMlineStyle
  2
STANDARD
 70
     0
  3

 62
     0
 51
90.0
 52
90.0
 71
     2
 49
0.5
 62
   256
  6
BYLAYER
 49
-0.5
 62
   256
  6
BYLAYER
  0
ACDBPLACEHOLDER
  5
5
102
{ACAD_REACTORS
330
6
102
}
330
6
  0
TABLESTYLE
  5
28
102
{ACAD_REACTORS
330
24
102
}
330
24
100
AcDbTableStyle
  3
Standard
 70
     0
 71
     0
 40
0.06
 41
0.06
280
     0
281
     0
  7
STANDARD
140
0.18
170
     2
 62
     0
 63
     7
283
     0
274
    -2
284
     1
 64
     0
275
    -2
285
     1
 65
     0
276
    -2
286
     1
 66
     0
277
    -2
287
     1
 67
     0
278
    -2
288
     1
 68
     0
279
    -2
289
     1
 69
     0
  7
STANDARD
140
0.25
170
     5
 62
     0
 63
     7
283
     0
274
    -2
284
     1
 64
     0
275
    -2
285
     1
 65
     0
276
    -2
286
     1
 66
     0
277
    -2
287
     1
 67
     0
278
    -2
288
     1
 68
     0
279
    -2
289
     1
 69
     0
  7
STANDARD
140
0.18
170
     5
 62
     0
 63
     7
283
     0
274
    -2
284
     1
 64
     0
275
    -2
285
     1
 65
     0
276
    -2
286
     1
 66
     0
277
    -2
287
     1
 67
     0
278
    -2
288
     1
 68
     0
279
    -2
289
     1
 69
     0
  0
DICTIONARYVAR
  5
1AF
102
{ACAD_REACTORS
330
1AE
102
}
330
1AE
100
DictionaryVariables
280
     0
  1
STANDARD
  0
DICTIONARYVAR
  5
1BD
102
{ACAD_REACTORS
330
1AE
102
}
330
1AE
100
DictionaryVariables
280
     0
  1
1
  0
DICTIONARYVAR
  5
1BC
102
{ACAD_REACTORS
330
1AE
102
}
330
1AE
100
DictionaryVariables
280
     0
  1
1
  0
DICTIONARYVAR
  5
1BE
102
{ACAD_REACTORS
330
1AE
102
}
330
1AE
100
DictionaryVariables
280
     0
  1

  0
XRECORD
  5
1AD
102
{ACAD_REACTORS
330
1AB
102
}
330
1AB
100
AcDbXrecord
280
     1
  0
ENDSEC
  0
EOF
