0
SECTION
2
HEADER
9
$EXTMIN
10
 0
20
 100
30
0.0
9
$EXTMAX
10
 0
20
 100
30
0.0
9
$LIMMIN
10
 100
20
 0
9
$LIMMAX
10
 0
20
 100
9
$PSLTSCALE
70
1
0
ENDSEC
0
SECTION
2
TABLES
0
TABLE
2
LAYER
70
2
0
LAYER
2
0
70
0
62
7
6
CONTINUOUS
0
LAYER
2
Halfen
70
0
62
7
6
CONTINUOUS
0
ENDTAB
0
ENDSEC
0
SECTION
2
ENTITIES
0
POLYLINE
8
Halfen
62
7
66
1
10
0.0
20
0.0
30
0.0
70
1
0
VERTEX
8
Halfen
62
7
10
 0
20
-73.5
30
0
0
VERTEX
8
Halfen
62
7
10
 500
20
-73.5
30
0
0
VERTEX
8
Halfen
62
7
10
 500
20
 73.5
30
0
0
VERTEX
8
Halfen
62
7
10
 0
20
 73.5
30
0
0
SEQEND
8
Halfen
0
POLYLINE
8
Halfen
62
7
66
1
10
0.0
20
0.0
30
0.0
70
1
0
VERTEX
8
Halfen
62
7
10
 0
20
-60
30
0
0
VERTEX
8
Halfen
62
7
10
 500
20
-60
30
0
0
VERTEX
8
Halfen
62
7
10
 500
20
 60
30
0
0
VERTEX
8
Halfen
62
7
10
 0
20
 60
30
0
0
SEQEND
8
Halfen
0
POLYLINE
8
Halfen
62
7
66
1
10
0.0
20
0.0
30
0.0
70
1
0
VERTEX
8
Halfen
62
7
10
 20
20
-32.5
30
0
0
VERTEX
8
Halfen
62
7
10
 37
20
-1.5
30
0
0
VERTEX
8
Halfen
62
7
10
 28
20
-1.5
30
0
0
VERTEX
8
Halfen
62
7
10
 28
20
 32.5
30
0
0
VERTEX
8
Halfen
62
7
10
 12
20
 32.5
30
0
0
VERTEX
8
Halfen
62
7
10
 12
20
-1.5
30
0
0
VERTEX
8
Halfen
62
7
10
 3
20
-1.5
30
0
0
SEQEND
8
Halfen
0
POLYLINE
8
Halfen
62
7
66
1
10
0.0
20
0.0
30
0.0
70
1
0
VERTEX
8
Halfen
62
7
10
 480
20
-32.5
30
0
0
VERTEX
8
Halfen
62
7
10
 497
20
-1.5
30
0
0
VERTEX
8
Halfen
62
7
10
 488
20
-1.5
30
0
0
VERTEX
8
Halfen
62
7
10
 488
20
 32.5
30
0
0
VERTEX
8
Halfen
62
7
10
 472
20
 32.5
30
0
0
VERTEX
8
Halfen
62
7
10
 472
20
-1.5
30
0
0
VERTEX
8
Halfen
62
7
10
 463
20
-1.5
30
0
0
SEQEND
8
Halfen
0
POLYLINE
8
Halfen
62
7
66
1
10
0.0
20
0.0
30
0.0
70
1
0
VERTEX
8
Halfen
62
7
10
 265
20
-69.3
30
0
0
VERTEX
8
Halfen
62
7
10
 265
20
-56.8
30
0
0
VERTEX
8
Halfen
62
7
10
 265
20
 69.3
30
0
0
VERTEX
8
Halfen
62
7
10
 264.958
20
 70.359
30
0
0
VERTEX
8
Halfen
62
7
10
 264.834
20
 71.412
30
0
0
VERTEX
8
Halfen
62
7
10
 264.627
20
 72.452
30
0
0
VERTEX
8
Halfen
62
7
10
 264.339
20
 73.472
30
0
0
VERTEX
8
Halfen
62
7
10
 263.972
20
 74.466
30
0
0
VERTEX
8
Halfen
62
7
10
 263.529
20
 75.429
30
0
0
VERTEX
8
Halfen
62
7
10
 263.011
20
 76.354
30
0
0
VERTEX
8
Halfen
62
7
10
 262.422
20
 77.235
30
0
0
VERTEX
8
Halfen
62
7
10
 261.765
20
 78.068
30
0
0
VERTEX
8
Halfen
62
7
10
 261.046
20
 78.846
30
0
0
VERTEX
8
Halfen
62
7
10
 260.268
20
 79.565
30
0
0
VERTEX
8
Halfen
62
7
10
 259.435
20
 80.222
30
0
0
VERTEX
8
Halfen
62
7
10
 258.554
20
 80.811
30
0
0
VERTEX
8
Halfen
62
7
10
 257.629
20
 81.329
30
0
0
VERTEX
8
Halfen
62
7
10
 256.666
20
 81.772
30
0
0
VERTEX
8
Halfen
62
7
10
 255.672
20
 82.139
30
0
0
VERTEX
8
Halfen
62
7
10
 254.652
20
 82.427
30
0
0
VERTEX
8
Halfen
62
7
10
 253.612
20
 82.634
30
0
0
VERTEX
8
Halfen
62
7
10
 252.559
20
 82.758
30
0
0
VERTEX
8
Halfen
62
7
10
 251.5
20
 82.8
30
0
0
VERTEX
8
Halfen
62
7
10
 248.5
20
 82.8
30
0
0
VERTEX
8
Halfen
62
7
10
 247.441
20
 82.758
30
0
0
VERTEX
8
Halfen
62
7
10
 246.388
20
 82.634
30
0
0
VERTEX
8
Halfen
62
7
10
 245.348
20
 82.427
30
0
0
VERTEX
8
Halfen
62
7
10
 244.328
20
 82.139
30
0
0
VERTEX
8
Halfen
62
7
10
 243.334
20
 81.772
30
0
0
VERTEX
8
Halfen
62
7
10
 242.371
20
 81.329
30
0
0
VERTEX
8
Halfen
62
7
10
 241.446
20
 80.811
30
0
0
VERTEX
8
Halfen
62
7
10
 240.565
20
 80.222
30
0
0
VERTEX
8
Halfen
62
7
10
 239.732
20
 79.565
30
0
0
VERTEX
8
Halfen
62
7
10
 238.954
20
 78.846
30
0
0
VERTEX
8
Halfen
62
7
10
 238.235
20
 78.068
30
0
0
VERTEX
8
Halfen
62
7
10
 237.578
20
 77.235
30
0
0
VERTEX
8
Halfen
62
7
10
 236.989
20
 76.354
30
0
0
VERTEX
8
Halfen
62
7
10
 236.471
20
 75.429
30
0
0
VERTEX
8
Halfen
62
7
10
 236.028
20
 74.466
30
0
0
VERTEX
8
Halfen
62
7
10
 235.661
20
 73.472
30
0
0
VERTEX
8
Halfen
62
7
10
 235.373
20
 72.452
30
0
0
VERTEX
8
Halfen
62
7
10
 235.166
20
 71.412
30
0
0
VERTEX
8
Halfen
62
7
10
 235.042
20
 70.359
30
0
0
VERTEX
8
Halfen
62
7
10
 235
20
 69.3
30
0
0
VERTEX
8
Halfen
62
7
10
 235
20
-56.8
30
0
0
VERTEX
8
Halfen
62
7
10
 235
20
-69.3
30
0
0
VERTEX
8
Halfen
62
7
10
 235.042
20
-70.359
30
0
0
VERTEX
8
Halfen
62
7
10
 235.166
20
-71.412
30
0
0
VERTEX
8
Halfen
62
7
10
 235.373
20
-72.452
30
0
0
VERTEX
8
Halfen
62
7
10
 235.661
20
-73.472
30
0
0
VERTEX
8
Halfen
62
7
10
 236.028
20
-74.466
30
0
0
VERTEX
8
Halfen
62
7
10
 236.471
20
-75.429
30
0
0
VERTEX
8
Halfen
62
7
10
 236.989
20
-76.354
30
0
0
VERTEX
8
Halfen
62
7
10
 237.578
20
-77.235
30
0
0
VERTEX
8
Halfen
62
7
10
 238.235
20
-78.068
30
0
0
VERTEX
8
Halfen
62
7
10
 238.954
20
-78.846
30
0
0
VERTEX
8
Halfen
62
7
10
 239.732
20
-79.565
30
0
0
VERTEX
8
Halfen
62
7
10
 240.565
20
-80.222
30
0
0
VERTEX
8
Halfen
62
7
10
 241.446
20
-80.811
30
0
0
VERTEX
8
Halfen
62
7
10
 242.371
20
-81.329
30
0
0
VERTEX
8
Halfen
62
7
10
 243.334
20
-81.772
30
0
0
VERTEX
8
Halfen
62
7
10
 244.328
20
-82.139
30
0
0
VERTEX
8
Halfen
62
7
10
 245.348
20
-82.427
30
0
0
VERTEX
8
Halfen
62
7
10
 246.388
20
-82.634
30
0
0
VERTEX
8
Halfen
62
7
10
 247.441
20
-82.758
30
0
0
VERTEX
8
Halfen
62
7
10
 248.5
20
-82.8
30
0
0
VERTEX
8
Halfen
62
7
10
 251.5
20
-82.8
30
0
0
VERTEX
8
Halfen
62
7
10
 252.559
20
-82.758
30
0
0
VERTEX
8
Halfen
62
7
10
 253.612
20
-82.634
30
0
0
VERTEX
8
Halfen
62
7
10
 254.652
20
-82.427
30
0
0
VERTEX
8
Halfen
62
7
10
 255.672
20
-82.139
30
0
0
VERTEX
8
Halfen
62
7
10
 256.666
20
-81.772
30
0
0
VERTEX
8
Halfen
62
7
10
 257.629
20
-81.329
30
0
0
VERTEX
8
Halfen
62
7
10
 258.554
20
-80.811
30
0
0
VERTEX
8
Halfen
62
7
10
 259.435
20
-80.222
30
0
0
VERTEX
8
Halfen
62
7
10
 260.268
20
-79.565
30
0
0
VERTEX
8
Halfen
62
7
10
 261.046
20
-78.846
30
0
0
VERTEX
8
Halfen
62
7
10
 261.765
20
-78.068
30
0
0
VERTEX
8
Halfen
62
7
10
 262.422
20
-77.235
30
0
0
VERTEX
8
Halfen
62
7
10
 263.011
20
-76.354
30
0
0
VERTEX
8
Halfen
62
7
10
 263.529
20
-75.429
30
0
0
VERTEX
8
Halfen
62
7
10
 263.972
20
-74.466
30
0
0
VERTEX
8
Halfen
62
7
10
 264.339
20
-73.472
30
0
0
VERTEX
8
Halfen
62
7
10
 264.627
20
-72.452
30
0
0
VERTEX
8
Halfen
62
7
10
 264.834
20
-71.412
30
0
0
VERTEX
8
Halfen
62
7
10
 264.958
20
-70.359
30
0
0
VERTEX
8
Halfen
62
7
10
 265
20
-69.3
30
0
0
SEQEND
8
Halfen
0
POLYLINE
8
Halfen
62
7
66
1
10
0.0
20
0.0
30
0.0
70
1
0
VERTEX
8
Halfen
62
7
10
 194
20
-574.569
30
0
0
VERTEX
8
Halfen
62
7
10
 194
20
 583.197
30
0
0
VERTEX
8
Halfen
62
7
10
 186
20
 583.197
30
0
0
VERTEX
8
Halfen
62
7
10
 186
20
-574.569
30
0
0
SEQEND
8
Halfen
0
POLYLINE
8
Halfen
62
7
66
1
10
0.0
20
0.0
30
0.0
70
1
0
VERTEX
8
Halfen
62
7
10
 184
20
-574.569
30
0
0
VERTEX
8
Halfen
62
7
10
 184
20
 583.197
30
0
0
VERTEX
8
Halfen
62
7
10
 176
20
 583.197
30
0
0
VERTEX
8
Halfen
62
7
10
 176
20
-574.569
30
0
0
SEQEND
8
Halfen
0
POLYLINE
8
Halfen
62
7
66
1
10
0.0
20
0.0
30
0.0
70
1
0
VERTEX
8
Halfen
62
7
10
 940
20
-60
30
0
0
VERTEX
8
Halfen
62
7
10
 940
20
 60
30
0
0
VERTEX
8
Halfen
62
7
10
 926.5
20
 73.5
30
0
0
VERTEX
8
Halfen
62
7
10
 926.5
20
 60
30
0
0
VERTEX
8
Halfen
62
7
10
 750
20
 60
30
0
0
VERTEX
8
Halfen
62
7
10
 750
20
-60
30
0
0
VERTEX
8
Halfen
62
7
10
 926.5
20
-60
30
0
0
VERTEX
8
Halfen
62
7
10
 926.5
20
-73.5
30
0
0
SEQEND
8
Halfen
0
POLYLINE
8
Halfen
62
7
66
1
10
0.0
20
0.0
30
0.0
70
1
0
VERTEX
8
Halfen
62
7
10
 750
20
-60
30
0
0
VERTEX
8
Halfen
62
7
10
 750
20
 60
30
0
0
VERTEX
8
Halfen
62
7
10
 713.5
20
 60
30
0
0
VERTEX
8
Halfen
62
7
10
 713.5
20
 73.5
30
0
0
VERTEX
8
Halfen
62
7
10
 700
20
 60
30
0
0
VERTEX
8
Halfen
62
7
10
 700
20
-60
30
0
0
VERTEX
8
Halfen
62
7
10
 713.5
20
-73.5
30
0
0
VERTEX
8
Halfen
62
7
10
 713.5
20
-60
30
0
0
SEQEND
8
Halfen
0
POLYLINE
8
Halfen
62
7
66
1
10
0.0
20
0.0
30
0.0
70
1
0
VERTEX
8
Halfen
62
7
10
 937.5
20
-58.75
30
0
0
VERTEX
8
Halfen
62
7
10
 937.5
20
 58.75
30
0
0
VERTEX
8
Halfen
62
7
10
 929
20
 67.25
30
0
0
VERTEX
8
Halfen
62
7
10
 929
20
 58
30
0
0
VERTEX
8
Halfen
62
7
10
 752
20
 58
30
0
0
VERTEX
8
Halfen
62
7
10
 752
20
-58
30
0
0
VERTEX
8
Halfen
62
7
10
 929
20
-58
30
0
0
VERTEX
8
Halfen
62
7
10
 929
20
-67.25
30
0
0
SEQEND
8
Halfen
0
POLYLINE
8
Halfen
62
7
66
1
10
0.0
20
0.0
30
0.0
70
1
0
VERTEX
8
Halfen
62
7
10
 748
20
-58
30
0
0
VERTEX
8
Halfen
62
7
10
 748
20
 58
30
0
0
VERTEX
8
Halfen
62
7
10
 711
20
 58
30
0
0
VERTEX
8
Halfen
62
7
10
 711
20
 67.25
30
0
0
VERTEX
8
Halfen
62
7
10
 702.5
20
 58.75
30
0
0
VERTEX
8
Halfen
62
7
10
 702.5
20
-58.75
30
0
0
VERTEX
8
Halfen
62
7
10
 711
20
-67.25
30
0
0
VERTEX
8
Halfen
62
7
10
 711
20
-58
30
0
0
SEQEND
8
Halfen
0
POLYLINE
8
Halfen
62
7
66
1
10
0.0
20
0.0
30
0.0
70
1
0
VERTEX
8
Halfen
62
7
10
 925
20
-81.8
30
0
0
VERTEX
8
Halfen
62
7
10
 925
20
 81.8
30
0
0
VERTEX
8
Halfen
62
7
10
 921
20
 81.8
30
0
0
VERTEX
8
Halfen
62
7
10
 920.846
20
 81.797
30
0
0
VERTEX
8
Halfen
62
7
10
 920.691
20
 81.786
30
0
0
VERTEX
8
Halfen
62
7
10
 920.538
20
 81.769
30
0
0
VERTEX
8
Halfen
62
7
10
 920.385
20
 81.746
30
0
0
VERTEX
8
Halfen
62
7
10
 920.234
20
 81.715
30
0
0
VERTEX
8
Halfen
62
7
10
 920.084
20
 81.678
30
0
0
VERTEX
8
Halfen
62
7
10
 919.936
20
 81.634
30
0
0
VERTEX
8
Halfen
62
7
10
 919.789
20
 81.584
30
0
0
VERTEX
8
Halfen
62
7
10
 919.646
20
 81.527
30
0
0
VERTEX
8
Halfen
62
7
10
 919.505
20
 81.464
30
0
0
VERTEX
8
Halfen
62
7
10
 919.366
20
 81.395
30
0
0
VERTEX
8
Halfen
62
7
10
 919.231
20
 81.32
30
0
0
VERTEX
8
Halfen
62
7
10
 919.1
20
 81.239
30
0
0
VERTEX
8
Halfen
62
7
10
 918.972
20
 81.153
30
0
0
VERTEX
8
Halfen
62
7
10
 918.848
20
 81.06
30
0
0
VERTEX
8
Halfen
62
7
10
 918.728
20
 80.963
30
0
0
VERTEX
8
Halfen
62
7
10
 918.613
20
 80.86
30
0
0
VERTEX
8
Halfen
62
7
10
 918.502
20
 80.752
30
0
0
VERTEX
8
Halfen
62
7
10
 918.397
20
 80.639
30
0
0
VERTEX
8
Halfen
62
7
10
 918.296
20
 80.522
30
0
0
VERTEX
8
Halfen
62
7
10
 917.41
20
 79.491
30
0
0
VERTEX
8
Halfen
62
7
10
 916.479
20
 78.5
30
0
0
VERTEX
8
Halfen
62
7
10
 915.505
20
 77.551
30
0
0
VERTEX
8
Halfen
62
7
10
 914.491
20
 76.646
30
0
0
VERTEX
8
Halfen
62
7
10
 913.437
20
 75.787
30
0
0
VERTEX
8
Halfen
62
7
10
 912.347
20
 74.975
30
0
0
VERTEX
8
Halfen
62
7
10
 911.222
20
 74.211
30
0
0
VERTEX
8
Halfen
62
7
10
 910.064
20
 73.499
30
0
0
VERTEX
8
Halfen
62
7
10
 908.876
20
 72.838
30
0
0
VERTEX
8
Halfen
62
7
10
 907.66
20
 72.23
30
0
0
VERTEX
8
Halfen
62
7
10
 906.418
20
 71.676
30
0
0
VERTEX
8
Halfen
62
7
10
 905.153
20
 71.178
30
0
0
VERTEX
8
Halfen
62
7
10
 903.867
20
 70.736
30
0
0
VERTEX
8
Halfen
62
7
10
 902.563
20
 70.351
30
0
0
VERTEX
8
Halfen
62
7
10
 901.243
20
 70.024
30
0
0
VERTEX
8
Halfen
62
7
10
 899.911
20
 69.756
30
0
0
VERTEX
8
Halfen
62
7
10
 898.567
20
 69.547
30
0
0
VERTEX
8
Halfen
62
7
10
 897.216
20
 69.397
30
0
0
VERTEX
8
Halfen
62
7
10
 895.859
20
 69.307
30
0
0
VERTEX
8
Halfen
62
7
10
 894.5
20
 69.277
30
0
0
VERTEX
8
Halfen
62
7
10
 872.5
20
 69.277
30
0
0
VERTEX
8
Halfen
62
7
10
 871.141
20
 69.307
30
0
0
VERTEX
8
Halfen
62
7
10
 869.784
20
 69.397
30
0
0
VERTEX
8
Halfen
62
7
10
 868.433
20
 69.547
30
0
0
VERTEX
8
Halfen
62
7
10
 867.089
20
 69.756
30
0
0
VERTEX
8
Halfen
62
7
10
 865.757
20
 70.024
30
0
0
VERTEX
8
Halfen
62
7
10
 864.437
20
 70.351
30
0
0
VERTEX
8
Halfen
62
7
10
 863.133
20
 70.736
30
0
0
VERTEX
8
Halfen
62
7
10
 861.847
20
 71.178
30
0
0
VERTEX
8
Halfen
62
7
10
 860.582
20
 71.676
30
0
0
VERTEX
8
Halfen
62
7
10
 859.34
20
 72.23
30
0
0
VERTEX
8
Halfen
62
7
10
 858.124
20
 72.838
30
0
0
VERTEX
8
Halfen
62
7
10
 856.936
20
 73.499
30
0
0
VERTEX
8
Halfen
62
7
10
 855.778
20
 74.211
30
0
0
VERTEX
8
Halfen
62
7
10
 854.653
20
 74.975
30
0
0
VERTEX
8
Halfen
62
7
10
 853.563
20
 75.787
30
0
0
VERTEX
8
Halfen
62
7
10
 852.509
20
 76.646
30
0
0
VERTEX
8
Halfen
62
7
10
 851.495
20
 77.551
30
0
0
VERTEX
8
Halfen
62
7
10
 850.521
20
 78.5
30
0
0
VERTEX
8
Halfen
62
7
10
 849.59
20
 79.491
30
0
0
VERTEX
8
Halfen
62
7
10
 848.704
20
 80.522
30
0
0
VERTEX
8
Halfen
62
7
10
 848.603
20
 80.639
30
0
0
VERTEX
8
Halfen
62
7
10
 848.498
20
 80.752
30
0
0
VERTEX
8
Halfen
62
7
10
 848.387
20
 80.86
30
0
0
VERTEX
8
Halfen
62
7
10
 848.272
20
 80.963
30
0
0
VERTEX
8
Halfen
62
7
10
 848.152
20
 81.06
30
0
0
VERTEX
8
Halfen
62
7
10
 848.028
20
 81.153
30
0
0
VERTEX
8
Halfen
62
7
10
 847.9
20
 81.239
30
0
0
VERTEX
8
Halfen
62
7
10
 847.769
20
 81.32
30
0
0
VERTEX
8
Halfen
62
7
10
 847.634
20
 81.395
30
0
0
VERTEX
8
Halfen
62
7
10
 847.495
20
 81.464
30
0
0
VERTEX
8
Halfen
62
7
10
 847.354
20
 81.527
30
0
0
VERTEX
8
Halfen
62
7
10
 847.211
20
 81.584
30
0
0
VERTEX
8
Halfen
62
7
10
 847.064
20
 81.634
30
0
0
VERTEX
8
Halfen
62
7
10
 846.916
20
 81.678
30
0
0
VERTEX
8
Halfen
62
7
10
 846.766
20
 81.715
30
0
0
VERTEX
8
Halfen
62
7
10
 846.615
20
 81.746
30
0
0
VERTEX
8
Halfen
62
7
10
 846.462
20
 81.769
30
0
0
VERTEX
8
Halfen
62
7
10
 846.309
20
 81.786
30
0
0
VERTEX
8
Halfen
62
7
10
 846.154
20
 81.797
30
0
0
VERTEX
8
Halfen
62
7
10
 846
20
 81.8
30
0
0
VERTEX
8
Halfen
62
7
10
 842
20
 81.8
30
0
0
VERTEX
8
Halfen
62
7
10
 842
20
-81.8
30
0
0
VERTEX
8
Halfen
62
7
10
 846
20
-81.8
30
0
0
VERTEX
8
Halfen
62
7
10
 846.154
20
-81.797
30
0
0
VERTEX
8
Halfen
62
7
10
 846.309
20
-81.786
30
0
0
VERTEX
8
Halfen
62
7
10
 846.462
20
-81.769
30
0
0
VERTEX
8
Halfen
62
7
10
 846.615
20
-81.746
30
0
0
VERTEX
8
Halfen
62
7
10
 846.766
20
-81.715
30
0
0
VERTEX
8
Halfen
62
7
10
 846.916
20
-81.678
30
0
0
VERTEX
8
Halfen
62
7
10
 847.064
20
-81.634
30
0
0
VERTEX
8
Halfen
62
7
10
 847.211
20
-81.584
30
0
0
VERTEX
8
Halfen
62
7
10
 847.354
20
-81.527
30
0
0
VERTEX
8
Halfen
62
7
10
 847.495
20
-81.464
30
0
0
VERTEX
8
Halfen
62
7
10
 847.634
20
-81.395
30
0
0
VERTEX
8
Halfen
62
7
10
 847.769
20
-81.32
30
0
0
VERTEX
8
Halfen
62
7
10
 847.9
20
-81.239
30
0
0
VERTEX
8
Halfen
62
7
10
 848.028
20
-81.153
30
0
0
VERTEX
8
Halfen
62
7
10
 848.152
20
-81.06
30
0
0
VERTEX
8
Halfen
62
7
10
 848.272
20
-80.963
30
0
0
VERTEX
8
Halfen
62
7
10
 848.387
20
-80.86
30
0
0
VERTEX
8
Halfen
62
7
10
 848.498
20
-80.752
30
0
0
VERTEX
8
Halfen
62
7
10
 848.603
20
-80.639
30
0
0
VERTEX
8
Halfen
62
7
10
 848.704
20
-80.522
30
0
0
VERTEX
8
Halfen
62
7
10
 849.59
20
-79.491
30
0
0
VERTEX
8
Halfen
62
7
10
 850.521
20
-78.5
30
0
0
VERTEX
8
Halfen
62
7
10
 851.495
20
-77.551
30
0
0
VERTEX
8
Halfen
62
7
10
 852.509
20
-76.646
30
0
0
VERTEX
8
Halfen
62
7
10
 853.563
20
-75.787
30
0
0
VERTEX
8
Halfen
62
7
10
 854.653
20
-74.975
30
0
0
VERTEX
8
Halfen
62
7
10
 855.778
20
-74.211
30
0
0
VERTEX
8
Halfen
62
7
10
 856.936
20
-73.499
30
0
0
VERTEX
8
Halfen
62
7
10
 858.124
20
-72.838
30
0
0
VERTEX
8
Halfen
62
7
10
 859.34
20
-72.23
30
0
0
VERTEX
8
Halfen
62
7
10
 860.582
20
-71.676
30
0
0
VERTEX
8
Halfen
62
7
10
 861.847
20
-71.178
30
0
0
VERTEX
8
Halfen
62
7
10
 863.133
20
-70.736
30
0
0
VERTEX
8
Halfen
62
7
10
 864.437
20
-70.351
30
0
0
VERTEX
8
Halfen
62
7
10
 865.757
20
-70.024
30
0
0
VERTEX
8
Halfen
62
7
10
 867.089
20
-69.756
30
0
0
VERTEX
8
Halfen
62
7
10
 868.433
20
-69.547
30
0
0
VERTEX
8
Halfen
62
7
10
 869.784
20
-69.397
30
0
0
VERTEX
8
Halfen
62
7
10
 871.141
20
-69.307
30
0
0
VERTEX
8
Halfen
62
7
10
 872.5
20
-69.277
30
0
0
VERTEX
8
Halfen
62
7
10
 894.5
20
-69.277
30
0
0
VERTEX
8
Halfen
62
7
10
 895.859
20
-69.307
30
0
0
VERTEX
8
Halfen
62
7
10
 897.216
20
-69.397
30
0
0
VERTEX
8
Halfen
62
7
10
 898.567
20
-69.547
30
0
0
VERTEX
8
Halfen
62
7
10
 899.911
20
-69.756
30
0
0
VERTEX
8
Halfen
62
7
10
 901.243
20
-70.024
30
0
0
VERTEX
8
Halfen
62
7
10
 902.563
20
-70.351
30
0
0
VERTEX
8
Halfen
62
7
10
 903.867
20
-70.736
30
0
0
VERTEX
8
Halfen
62
7
10
 905.153
20
-71.178
30
0
0
VERTEX
8
Halfen
62
7
10
 906.418
20
-71.676
30
0
0
VERTEX
8
Halfen
62
7
10
 907.66
20
-72.23
30
0
0
VERTEX
8
Halfen
62
7
10
 908.876
20
-72.838
30
0
0
VERTEX
8
Halfen
62
7
10
 910.064
20
-73.499
30
0
0
VERTEX
8
Halfen
62
7
10
 911.222
20
-74.211
30
0
0
VERTEX
8
Halfen
62
7
10
 912.347
20
-74.975
30
0
0
VERTEX
8
Halfen
62
7
10
 913.437
20
-75.787
30
0
0
VERTEX
8
Halfen
62
7
10
 914.491
20
-76.646
30
0
0
VERTEX
8
Halfen
62
7
10
 915.505
20
-77.551
30
0
0
VERTEX
8
Halfen
62
7
10
 916.479
20
-78.5
30
0
0
VERTEX
8
Halfen
62
7
10
 917.41
20
-79.491
30
0
0
VERTEX
8
Halfen
62
7
10
 918.296
20
-80.522
30
0
0
VERTEX
8
Halfen
62
7
10
 918.397
20
-80.639
30
0
0
VERTEX
8
Halfen
62
7
10
 918.502
20
-80.752
30
0
0
VERTEX
8
Halfen
62
7
10
 918.613
20
-80.86
30
0
0
VERTEX
8
Halfen
62
7
10
 918.728
20
-80.963
30
0
0
VERTEX
8
Halfen
62
7
10
 918.848
20
-81.06
30
0
0
VERTEX
8
Halfen
62
7
10
 918.972
20
-81.153
30
0
0
VERTEX
8
Halfen
62
7
10
 919.1
20
-81.239
30
0
0
VERTEX
8
Halfen
62
7
10
 919.231
20
-81.32
30
0
0
VERTEX
8
Halfen
62
7
10
 919.366
20
-81.395
30
0
0
VERTEX
8
Halfen
62
7
10
 919.505
20
-81.464
30
0
0
VERTEX
8
Halfen
62
7
10
 919.646
20
-81.527
30
0
0
VERTEX
8
Halfen
62
7
10
 919.789
20
-81.584
30
0
0
VERTEX
8
Halfen
62
7
10
 919.936
20
-81.634
30
0
0
VERTEX
8
Halfen
62
7
10
 920.084
20
-81.678
30
0
0
VERTEX
8
Halfen
62
7
10
 920.234
20
-81.715
30
0
0
VERTEX
8
Halfen
62
7
10
 920.385
20
-81.746
30
0
0
VERTEX
8
Halfen
62
7
10
 920.538
20
-81.769
30
0
0
VERTEX
8
Halfen
62
7
10
 920.691
20
-81.786
30
0
0
VERTEX
8
Halfen
62
7
10
 920.846
20
-81.797
30
0
0
VERTEX
8
Halfen
62
7
10
 921
20
-81.8
30
0
0
SEQEND
8
Halfen
0
POLYLINE
8
Halfen
62
7
66
1
10
0.0
20
0.0
30
0.0
70
1
0
VERTEX
8
Halfen
62
7
10
 910
20
-574.569
30
0
0
VERTEX
8
Halfen
62
7
10
 910
20
-88.284
30
0
0
VERTEX
8
Halfen
62
7
10
 909.606
20
-83.278
30
0
0
VERTEX
8
Halfen
62
7
10
 908.434
20
-78.396
30
0
0
VERTEX
8
Halfen
62
7
10
 906.512
20
-73.757
30
0
0
VERTEX
8
Halfen
62
7
10
 903.889
20
-69.475
30
0
0
VERTEX
8
Halfen
62
7
10
 900.627
20
-65.657
30
0
0
VERTEX
8
Halfen
62
7
10
 755.029
20
 79.941
30
0
0
VERTEX
8
Halfen
62
7
10
 752.584
20
 82.805
30
0
0
VERTEX
8
Halfen
62
7
10
 750.616
20
 86.016
30
0
0
VERTEX
8
Halfen
62
7
10
 749.175
20
 89.495
30
0
0
VERTEX
8
Halfen
62
7
10
 748.295
20
 93.157
30
0
0
VERTEX
8
Halfen
62
7
10
 748
20
 96.912
30
0
0
VERTEX
8
Halfen
62
7
10
 748
20
 583.197
30
0
0
VERTEX
8
Halfen
62
7
10
 740
20
 583.197
30
0
0
VERTEX
8
Halfen
62
7
10
 740
20
 96.912
30
0
0
VERTEX
8
Halfen
62
7
10
 740.394
20
 91.906
30
0
0
VERTEX
8
Halfen
62
7
10
 741.566
20
 87.023
30
0
0
VERTEX
8
Halfen
62
7
10
 743.488
20
 82.384
30
0
0
VERTEX
8
Halfen
62
7
10
 746.111
20
 78.103
30
0
0
VERTEX
8
Halfen
62
7
10
 749.373
20
 74.284
30
0
0
VERTEX
8
Halfen
62
7
10
 894.971
20
-71.314
30
0
0
VERTEX
8
Halfen
62
7
10
 897.416
20
-74.177
30
0
0
VERTEX
8
Halfen
62
7
10
 899.384
20
-77.388
30
0
0
VERTEX
8
Halfen
62
7
10
 900.825
20
-80.868
30
0
0
VERTEX
8
Halfen
62
7
10
 901.705
20
-84.53
30
0
0
VERTEX
8
Halfen
62
7
10
 902
20
-88.284
30
0
0
VERTEX
8
Halfen
62
7
10
 902
20
-574.569
30
0
0
SEQEND
8
Halfen
0
POLYLINE
8
Halfen
62
7
66
1
10
0.0
20
0.0
30
0.0
70
1
0
VERTEX
8
Halfen
62
7
10
 740
20
-574.569
30
0
0
VERTEX
8
Halfen
62
7
10
 740
20
-88.284
30
0
0
VERTEX
8
Halfen
62
7
10
 740.394
20
-83.278
30
0
0
VERTEX
8
Halfen
62
7
10
 741.566
20
-78.396
30
0
0
VERTEX
8
Halfen
62
7
10
 743.488
20
-73.757
30
0
0
VERTEX
8
Halfen
62
7
10
 746.111
20
-69.475
30
0
0
VERTEX
8
Halfen
62
7
10
 749.373
20
-65.657
30
0
0
VERTEX
8
Halfen
62
7
10
 894.971
20
 79.941
30
0
0
VERTEX
8
Halfen
62
7
10
 897.416
20
 82.805
30
0
0
VERTEX
8
Halfen
62
7
10
 899.384
20
 86.016
30
0
0
VERTEX
8
Halfen
62
7
10
 900.825
20
 89.495
30
0
0
VERTEX
8
Halfen
62
7
10
 901.705
20
 93.157
30
0
0
VERTEX
8
Halfen
62
7
10
 902
20
 96.912
30
0
0
VERTEX
8
Halfen
62
7
10
 902
20
 583.197
30
0
0
VERTEX
8
Halfen
62
7
10
 910
20
 583.197
30
0
0
VERTEX
8
Halfen
62
7
10
 910
20
 96.912
30
0
0
VERTEX
8
Halfen
62
7
10
 909.606
20
 91.906
30
0
0
VERTEX
8
Halfen
62
7
10
 908.434
20
 87.023
30
0
0
VERTEX
8
Halfen
62
7
10
 906.512
20
 82.384
30
0
0
VERTEX
8
Halfen
62
7
10
 903.889
20
 78.103
30
0
0
VERTEX
8
Halfen
62
7
10
 900.627
20
 74.284
30
0
0
VERTEX
8
Halfen
62
7
10
 755.029
20
-71.314
30
0
0
VERTEX
8
Halfen
62
7
10
 752.584
20
-74.177
30
0
0
VERTEX
8
Halfen
62
7
10
 750.616
20
-77.388
30
0
0
VERTEX
8
Halfen
62
7
10
 749.175
20
-80.868
30
0
0
VERTEX
8
Halfen
62
7
10
 748.295
20
-84.53
30
0
0
VERTEX
8
Halfen
62
7
10
 748
20
-88.284
30
0
0
VERTEX
8
Halfen
62
7
10
 748
20
-574.569
30
0
0
SEQEND
8
Halfen
0
ENDSEC
0
EOF
