  0
SECTION
  2
HEADER
  9
$ACADVER
  1
AC1032
  9
$ACADMAINTVER
 90
4
  9
$DWGCODEPAGE
  3
ANSI_1252
  9
$LASTSAVEDBY
  1
ezdxf
  9
$REQUIREDVERSIONS
160
0
  9
$INSBASE
 10
0.0
 20
0.0
 30
0.0
  9
$EXTMIN
 10
1e+20
 20
1e+20
 30
1e+20
  9
$EXTMAX
 10
-1e+20
 20
-1e+20
 30
-1e+20
  9
$LIMMIN
 10
0.0
 20
0.0
  9
$LIMMAX
 10
420.0
 20
297.0
  9
$ORTHOMODE
 70
0
  9
$REGENMODE
 70
1
  9
$FILLMODE
 70
1
  9
$QTEXTMODE
 70
0
  9
$MIRRTEXT
 70
1
  9
$LTSCALE
 40
1.0
  9
$ATTMODE
 70
1
  9
$TEXTSIZE
 40
2.5
  9
$TRACEWID
 40
1.0
  9
$TEXTSTYLE
  7
Standard
  9
$CLAYER
  8
0
  9
$CELTYPE
  6
ByLayer
  9
$CECOLOR
 62
256
  9
$CELTSCALE
 40
1.0
  9
$DISPSILH
 70
0
  9
$DIMSCALE
 40
1.0
  9
$DIMASZ
 40
2.5
  9
$DIMEXO
 40
0.625
  9
$DIMDLI
 40
3.75
  9
$DIMRND
 40
0.0
  9
$DIMDLE
 40
0.0
  9
$DIMEXE
 40
1.25
  9
$DIMTP
 40
0.0
  9
$DIMTM
 40
0.0
  9
$DIMTXT
 40
2.5
  9
$DIMCEN
 40
2.5
  9
$DIMTSZ
 40
0.0
  9
$DIMTOL
 70
0
  9
$DIMLIM
 70
0
  9
$DIMTIH
 70
0
  9
$DIMTOH
 70
0
  9
$DIMSE1
 70
0
  9
$DIMSE2
 70
0
  9
$DIMTAD
 70
1
  9
$DIMZIN
 70
8
  9
$DIMBLK
  1

  9
$DIMASO
 70
1
  9
$DIMSHO
 70
1
  9
$DIMPOST
  1

  9
$DIMAPOST
  1

  9
$DIMALT
 70
0
  9
$DIMALTD
 70
3
  9
$DIMALTF
 40
0.03937007874
  9
$DIMLFAC
 40
1.0
  9
$DIMTOFL
 70
1
  9
$DIMTVP
 40
0.0
  9
$DIMTIX
 70
0
  9
$DIMSOXD
 70
0
  9
$DIMSAH
 70
0
  9
$DIMBLK1
  1

  9
$DIMBLK2
  1

  9
$DIMSTYLE
  2
ISO-25
  9
$DIMCLRD
 70
0
  9
$DIMCLRE
 70
0
  9
$DIMCLRT
 70
0
  9
$DIMTFAC
 40
1.0
  9
$DIMGAP
 40
0.625
  9
$DIMJUST
 70
0
  9
$DIMSD1
 70
0
  9
$DIMSD2
 70
0
  9
$DIMTOLJ
 70
0
  9
$DIMTZIN
 70
8
  9
$DIMALTZ
 70
0
  9
$DIMALTTZ
 70
0
  9
$DIMUPT
 70
0
  9
$DIMDEC
 70
2
  9
$DIMTDEC
 70
2
  9
$DIMALTU
 70
2
  9
$DIMALTTD
 70
3
  9
$DIMTXSTY
  7
Standard
  9
$DIMAUNIT
 70
0
  9
$DIMADEC
 70
0
  9
$DIMALTRND
 40
0.0
  9
$DIMAZIN
 70
0
  9
$DIMDSEP
 70
44
  9
$DIMATFIT
 70
3
  9
$DIMFRAC
 70
0
  9
$DIMLDRBLK
  1

  9
$DIMLUNIT
 70
2
  9
$DIMLWD
 70
-2
  9
$DIMLWE
 70
-2
  9
$DIMTMOVE
 70
0
  9
$DIMFXL
 40
1.0
  9
$DIMFXLON
 70
0
  9
$DIMJOGANG
 40
0.785398163397
  9
$DIMTFILL
 70
0
  9
$DIMTFILLCLR
 70
0
  9
$DIMARCSYM
 70
0
  9
$DIMLTYPE
  6

  9
$DIMLTEX1
  6

  9
$DIMLTEX2
  6

  9
$DIMTXTDIRECTION
 70
0
  9
$LUNITS
 70
2
  9
$LUPREC
 70
4
  9
$SKETCHINC
 40
1.0
  9
$FILLETRAD
 40
10.0
  9
$AUNITS
 70
0
  9
$AUPREC
 70
2
  9
$MENU
  1
.
  9
$ELEVATION
 40
0.0
  9
$PELEVATION
 40
0.0
  9
$THICKNESS
 40
0.0
  9
$LIMCHECK
 70
0
  9
$CHAMFERA
 40
0.0
  9
$CHAMFERB
 40
0.0
  9
$CHAMFERC
 40
0.0
  9
$CHAMFERD
 40
0.0
  9
$SKPOLY
 70
0
  9
$TDCREATE
 40
2461085.246006944
  9
$TDUCREATE
 40
2458532.153996898
  9
$TDUPDATE
 40
2461085.246006944
  9
$TDUUPDATE
 40
2458532.1544311
  9
$TDINDWG
 40
0.0
  9
$TDUSRTIMER
 40
0.0
  9
$USRTIMER
 70
1
  9
$ANGBASE
 50
0.0
  9
$ANGDIR
 70
0
  9
$PDMODE
 70
0
  9
$PDSIZE
 40
0.0
  9
$PLINEWID
 40
0.0
  9
$SPLFRAME
 70
0
  9
$SPLINETYPE
 70
6
  9
$SPLINESEGS
 70
8
  9
$HANDSEED
  5
1B1
  9
$SURFTAB1
 70
6
  9
$SURFTAB2
 70
6
  9
$SURFTYPE
 70
6
  9
$SURFU
 70
6
  9
$SURFV
 70
6
  9
$UCSBASE
  2

  9
$UCSNAME
  2

  9
$UCSORG
 10
0.0
 20
0.0
 30
0.0
  9
$UCSXDIR
 10
1.0
 20
0.0
 30
0.0
  9
$UCSYDIR
 10
0.0
 20
1.0
 30
0.0
  9
$UCSORTHOREF
  2

  9
$UCSORTHOVIEW
 70
0
  9
$UCSORGTOP
 10
0.0
 20
0.0
 30
0.0
  9
$UCSORGBOTTOM
 10
0.0
 20
0.0
 30
0.0
  9
$UCSORGLEFT
 10
0.0
 20
0.0
 30
0.0
  9
$UCSORGRIGHT
 10
0.0
 20
0.0
 30
0.0
  9
$UCSORGFRONT
 10
0.0
 20
0.0
 30
0.0
  9
$UCSORGBACK
 10
0.0
 20
0.0
 30
0.0
  9
$PUCSBASE
  2

  9
$PUCSNAME
  2

  9
$PUCSORG
 10
0.0
 20
0.0
 30
0.0
  9
$PUCSXDIR
 10
1.0
 20
0.0
 30
0.0
  9
$PUCSYDIR
 10
0.0
 20
1.0
 30
0.0
  9
$PUCSORTHOREF
  2

  9
$PUCSORTHOVIEW
 70
0
  9
$PUCSORGTOP
 10
0.0
 20
0.0
 30
0.0
  9
$PUCSORGBOTTOM
 10
0.0
 20
0.0
 30
0.0
  9
$PUCSORGLEFT
 10
0.0
 20
0.0
 30
0.0
  9
$PUCSORGRIGHT
 10
0.0
 20
0.0
 30
0.0
  9
$PUCSORGFRONT
 10
0.0
 20
0.0
 30
0.0
  9
$PUCSORGBACK
 10
0.0
 20
0.0
 30
0.0
  9
$USERI1
 70
0
  9
$USERI2
 70
0
  9
$USERI3
 70
0
  9
$USERI4
 70
0
  9
$USERI5
 70
0
  9
$USERR1
 40
0.0
  9
$USERR2
 40
0.0
  9
$USERR3
 40
0.0
  9
$USERR4
 40
0.0
  9
$USERR5
 40
0.0
  9
$WORLDVIEW
 70
1
  9
$SHADEDGE
 70
3
  9
$SHADEDIF
 70
70
  9
$TILEMODE
 70
1
  9
$MAXACTVP
 70
64
  9
$PINSBASE
 10
0.0
 20
0.0
 30
0.0
  9
$PLIMCHECK
 70
0
  9
$PEXTMIN
 10
1e+20
 20
1e+20
 30
1e+20
  9
$PEXTMAX
 10
-1e+20
 20
-1e+20
 30
-1e+20
  9
$PLIMMIN
 10
0.0
 20
0.0
  9
$PLIMMAX
 10
420.0
 20
297.0
  9
$UNITMODE
 70
0
  9
$VISRETAIN
 70
1
  9
$PLINEGEN
 70
0
  9
$PSLTSCALE
 70
1
  9
$TREEDEPTH
 70
3020
  9
$CMLSTYLE
  2
Standard
  9
$CMLJUST
 70
0
  9
$CMLSCALE
 40
20.0
  9
$PROXYGRAPHICS
 70
1
  9
$MEASUREMENT
 70
1
  9
$CELWEIGHT
370
-1
  9
$ENDCAPS
280
0
  9
$JOINSTYLE
280
0
  9
$LWDISPLAY
290
0
  9
$INSUNITS
 70
6
  9
$HYPERLINKBASE
  1

  9
$STYLESHEET
  1

  9
$XEDIT
290
1
  9
$CEPSNTYPE
380
0
  9
$PSTYLEMODE
290
1
  9
$FINGERPRINTGUID
  2
{EA5F295F-4EAB-4DFA-83BC-6CA08128B539}
  9
$VERSIONGUID
  2
{79D6367F-3DE5-4371-9DB0-BC635A1EC0F5}
  9
$EXTNAMES
290
1
  9
$PSVPSCALE
 40
0.0
  9
$OLESTARTUP
290
0
  9
$SORTENTS
280
127
  9
$INDEXCTL
280
0
  9
$HIDETEXT
280
1
  9
$XCLIPFRAME
280
1
  9
$HALOGAP
280
0
  9
$OBSCOLOR
 70
257
  9
$OBSLTYPE
280
0
  9
$INTERSECTIONDISPLAY
280
0
  9
$INTERSECTIONCOLOR
 70
257
  9
$DIMASSOC
280
2
  9
$PROJECTNAME
  1

  9
$CAMERADISPLAY
290
0
  9
$LENSLENGTH
 40
50.0
  9
$CAMERAHEIGHT
 40
0.0
  9
$STEPSPERSEC
 40
24.0
  9
$STEPSIZE
 40
100.0
  9
$3DDWFPREC
 40
2.0
  9
$PSOLWIDTH
 40
0.005
  9
$PSOLHEIGHT
 40
0.08
  9
$LOFTANG1
 40
1.570796326795
  9
$LOFTANG2
 40
1.570796326795
  9
$LOFTMAG1
 40
0.0
  9
$LOFTMAG2
 40
0.0
  9
$LOFTPARAM
 70
7
  9
$LOFTNORMALS
280
1
  9
$LATITUDE
 40
37.795
  9
$LONGITUDE
 40
-122.394
  9
$NORTHDIRECTION
 40
0.0
  9
$TIMEZONE
 70
-8000
  9
$LIGHTGLYPHDISPLAY
280
1
  9
$TILEMODELIGHTSYNCH
280
1
  9
$CMATERIAL
347
20
  9
$SOLIDHIST
280
0
  9
$SHOWHIST
280
1
  9
$DWFFRAME
280
2
  9
$DGNFRAME
280
2
  9
$REALWORLDSCALE
290
1
  9
$INTERFERECOLOR
 62
256
  9
$CSHADOW
280
0
  9
$SHADOWPLANELOCATION
 40
0.0
  0
ENDSEC
  0
SECTION
  2
CLASSES
  0
CLASS
  1
ACDBDICTIONARYWDFLT
  2
AcDbDictionaryWithDefault
  3
ObjectDBX Classes
 90
0
 91
0
280
0
281
0
  0
CLASS
  1
SUN
  2
AcDbSun
  3
SCENEOE
 90
1153
 91
0
280
0
281
0
  0
CLASS
  1
VISUALSTYLE
  2
AcDbVisualStyle
  3
ObjectDBX Classes
 90
4095
 91
0
280
0
281
0
  0
CLASS
  1
MATERIAL
  2
AcDbMaterial
  3
ObjectDBX Classes
 90
1153
 91
0
280
0
281
0
  0
CLASS
  1
SCALE
  2
AcDbScale
  3
ObjectDBX Classes
 90
1153
 91
0
280
0
281
0
  0
CLASS
  1
TABLESTYLE
  2
AcDbTableStyle
  3
ObjectDBX Classes
 90
4095
 91
0
280
0
281
0
  0
CLASS
  1
MLEADERSTYLE
  2
AcDbMLeaderStyle
  3
ACDB_MLEADERSTYLE_CLASS
 90
4095
 91
0
280
0
281
0
  0
CLASS
  1
DICTIONARYVAR
  2
AcDbDictionaryVar
  3
ObjectDBX Classes
 90
0
 91
0
280
0
281
0
  0
CLASS
  1
CELLSTYLEMAP
  2
AcDbCellStyleMap
  3
ObjectDBX Classes
 90
1152
 91
0
280
0
281
0
  0
CLASS
  1
MENTALRAYRENDERSETTINGS
  2
AcDbMentalRayRenderSettings
  3
SCENEOE
 90
1024
 91
0
280
0
281
0
  0
CLASS
  1
ACDBDETAILVIEWSTYLE
  2
AcDbDetailViewStyle
  3
ObjectDBX Classes
 90
1025
 91
0
280
0
281
0
  0
CLASS
  1
ACDBSECTIONVIEWSTYLE
  2
AcDbSectionViewStyle
  3
ObjectDBX Classes
 90
1025
 91
0
280
0
281
0
  0
CLASS
  1
RASTERVARIABLES
  2
AcDbRasterVariables
  3
ISM
 90
0
 91
0
280
0
281
0
  0
CLASS
  1
LAYOUT
  2
AcDbLayout
  3
ObjectDBX Classes
 90
0
 91
0
280
0
281
0
  0
CLASS
  1
ACDBPLACEHOLDER
  2
AcDbPlaceHolder
  3
ObjectDBX Classes
 90
0
 91
0
280
0
281
0
  0
ENDSEC
  0
SECTION
  2
TABLES
  0
TABLE
  2
VPORT
  5
8
330
0
100
AcDbSymbolTable
 70
1
  0
VPORT
  5
23
330
8
100
AcDbSymbolTableRecord
100
AcDbViewportTableRecord
  2
*Active
 70
0
 10
0.0
 20
0.0
 11
1.0
 21
1.0
 12
0.0
 22
0.0
 13
0.0
 23
0.0
 14
0.5
 24
0.5
 15
0.5
 25
0.5
 16
0.0
 26
0.0
 36
1.0
 17
0.0
 27
0.0
 37
0.0
 40
1000.0
 41
1.34
 42
50.0
 43
0.0
 44
0.0
 50
0.0
 51
0.0
 71
0
 72
1000
 73
1
 74
3
 75
0
 76
0
 77
0
 78
0
281
0
 65
0
146
0.0
  0
ENDTAB
  0
TABLE
  2
LTYPE
  5
2
330
0
100
AcDbSymbolTable
 70
3
  0
LTYPE
  5
24
330
2
100
AcDbSymbolTableRecord
100
AcDbLinetypeTableRecord
  2
ByBlock
 70
0
  3

 72
65
 73
0
 40
0.0
  0
LTYPE
  5
25
330
2
100
AcDbSymbolTableRecord
100
AcDbLinetypeTableRecord
  2
ByLayer
 70
0
  3

 72
65
 73
0
 40
0.0
  0
LTYPE
  5
26
330
2
100
AcDbSymbolTableRecord
100
AcDbLinetypeTableRecord
  2
Continuous
 70
0
  3

 72
65
 73
0
 40
0.0
  0
ENDTAB
  0
TABLE
  2
LAYER
  5
1
330
0
100
AcDbSymbolTable
 70
3
  0
LAYER
  5
27
330
1
100
AcDbSymbolTableRecord
100
AcDbLayerTableRecord
  2
0
 70
0
 62
7
  6
Continuous
370
-3
390
13
347
21
  0
LAYER
  5
28
330
1
100
AcDbSymbolTableRecord
100
AcDbLayerTableRecord
  2
Defpoints
 70
0
 62
7
  6
Continuous
290
0
370
-3
390
13
347
21
  0
LAYER
  5
1AB
330
1
100
AcDbSymbolTableRecord
100
AcDbLayerTableRecord
  2
A-DETL-GENF
 70
0
 62
92
  6
Continuous
370
18
390
13
347
21
348
0
  0
ENDTAB
  0
TABLE
  2
STYLE
  5
5
330
0
100
AcDbSymbolTable
 70
1
  0
STYLE
  5
29
330
5
100
AcDbSymbolTableRecord
100
AcDbTextStyleTableRecord
  2
Standard
 70
0
 40
0.0
 41
1.0
 50
0.0
 71
0
 42
2.5
  3
txt
  4

  0
ENDTAB
  0
TABLE
  2
VIEW
  5
7
330
0
100
AcDbSymbolTable
 70
0
  0
ENDTAB
  0
TABLE
  2
UCS
  5
6
330
0
100
AcDbSymbolTable
 70
0
  0
ENDTAB
  0
TABLE
  2
APPID
  5
3
330
0
100
AcDbSymbolTable
 70
3
  0
APPID
  5
2A
330
3
100
AcDbSymbolTableRecord
100
AcDbRegAppTableRecord
  2
ACAD
 70
0
  0
APPID
  5
1AE
330
3
100
AcDbSymbolTableRecord
100
AcDbRegAppTableRecord
  2
HATCHBACKGROUNDCOLOR
 70
0
  0
APPID
  5
1AF
330
3
100
AcDbSymbolTableRecord
100
AcDbRegAppTableRecord
  2
EZDXF
 70
0
  0
ENDTAB
  0
TABLE
  2
DIMSTYLE
  5
4
330
0
100
AcDbSymbolTable
 70
1
100
AcDbDimStyleTable
  0
DIMSTYLE
105
2B
330
4
100
AcDbSymbolTableRecord
100
AcDbDimStyleTableRecord
  2
Standard
 70
0
 40
1.0
 41
2.5
 42
0.625
 43
3.75
 44
1.25
 45
0.0
 46
0.0
 47
0.0
 48
0.0
 49
2.5
140
2.5
141
2.5
142
0.0
143
0.03937007874
144
1.0
145
0.0
146
1.0
147
0.625
148
0.0
 69
0
 70
0
 71
0
 72
0
 73
0
 74
0
 75
0
 76
0
 77
1
 78
8
 79
3
170
0
171
3
172
1
173
0
174
0
175
0
176
0
177
0
178
0
179
2
271
2
272
2
273
2
274
3
275
0
276
0
277
2
278
44
279
0
280
0
281
0
282
0
283
0
284
8
285
0
286
0
288
0
289
3
290
0
371
-2
372
-2
  0
ENDTAB
  0
TABLE
  2
BLOCK_RECORD
  5
9
330
0
100
AcDbSymbolTable
 70
3
  0
BLOCK_RECORD
  5
17
330
9
100
AcDbSymbolTableRecord
100
AcDbBlockTableRecord
  2
*Model_Space
340
1A
 70
0
280
1
281
0
  0
BLOCK_RECORD
  5
1B
330
9
100
AcDbSymbolTableRecord
100
AcDbBlockTableRecord
  2
*Paper_Space
340
1E
 70
0
280
1
281
0
  0
BLOCK_RECORD
  5
2F
330
9
100
AcDbSymbolTableRecord
100
AcDbBlockTableRecord
  2
90 man_wijzend - Type 1-3640640-00_0 Basismaterialen
340
0
 70
0
280
1
281
0
  0
ENDTAB
  0
ENDSEC
  0
SECTION
  2
BLOCKS
  0
BLOCK
  5
18
330
17
100
AcDbEntity
  8
0
100
AcDbBlockBegin
  2
*Model_Space
 70
0
 10
0.0
 20
0.0
 30
0.0
  3
*Model_Space
  1

  0
ENDBLK
  5
19
330
17
100
AcDbEntity
  8
0
100
AcDbBlockEnd
  0
BLOCK
  5
1C
330
1B
100
AcDbEntity
  8
0
100
AcDbBlockBegin
  2
*Paper_Space
 70
0
 10
0.0
 20
0.0
 30
0.0
  3
*Paper_Space
  1

  0
ENDBLK
  5
1D
330
1B
100
AcDbEntity
  8
0
100
AcDbBlockEnd
  0
BLOCK
  5
30
330
2F
100
AcDbEntity
  8
0
100
AcDbBlockBegin
  2
90 man_wijzend - Type 1-3640640-00_0 Basismaterialen
 70
0
 10
0.0
 20
0.0
 30
0.0
  3
90 man_wijzend - Type 1-3640640-00_0 Basismaterialen
  1

  0
LINE
  5
32
330
2F
100
AcDbEntity
  8
A-DETL-GENF
370
13
100
AcDbLine
 10
-349.1
 20
1648.64
 30
0.0
 11
-341.1199999999999
 21
1651.3
 31
0.0
  0
LINE
  5
33
330
2F
100
AcDbEntity
  8
A-DETL-GENF
370
13
100
AcDbLine
 10
-341.1199999999999
 20
1651.3
 30
0.0
 11
-279.87
 21
1595.45
 31
0.0
  0
LINE
  5
34
330
2F
100
AcDbEntity
  8
A-DETL-GENF
370
13
100
AcDbLine
 10
-279.87
 20
1595.45
 30
0.0
 11
-234.599999999996
 21
1568.859999999997
 31
0.0
  0
LINE
  5
35
330
2F
100
AcDbEntity
  8
A-DETL-GENF
370
13
100
AcDbLine
 10
-234.5999999999536
 20
1568.859999999971
 30
0.0
 11
-199.9799999999999
 21
1547.59
 31
0.0
  0
LINE
  5
36
330
2F
100
AcDbEntity
  8
A-DETL-GENF
370
13
100
AcDbLine
 10
-199.9799999999999
 20
1547.59
 30
0.0
 11
-144.0599999999999
 21
1547.59
 31
0.0
  0
LINE
  5
37
330
2F
100
AcDbEntity
  8
A-DETL-GENF
370
13
100
AcDbLine
 10
-144.0599999999999
 20
1547.59
 30
0.0
 11
-104.1199999999999
 21
1571.52
 31
0.0
  0
LINE
  5
38
330
2F
100
AcDbEntity
  8
A-DETL-GENF
370
13
100
AcDbLine
 10
-104.1199999999999
 20
1571.52
 30
0.0
 11
-77.48999999999994
 21
1603.43
 31
0.0
  0
LINE
  5
39
330
2F
100
AcDbEntity
  8
A-DETL-GENF
370
13
100
AcDbLine
 10
-77.48999999999994
 20
1603.43
 30
0.0
 11
-45.53999999999994
 21
1582.16
 31
0.0
  0
LINE
  5
3A
330
2F
100
AcDbEntity
  8
A-DETL-GENF
370
13
100
AcDbLine
 10
-45.53999999999996
 20
1582.16
 30
0.0
 11
-21.56999999999994
 21
1552.91
 31
0.0
  0
LINE
  5
3B
330
2F
100
AcDbEntity
  8
A-DETL-GENF
370
13
100
AcDbLine
 10
-21.56999999999994
 20
1552.91
 30
0.0
 11
2.390000000000397
 21
1566.2
 31
0.0
  0
LINE
  5
3C
330
2F
100
AcDbEntity
  8
A-DETL-GENF
370
13
100
AcDbLine
 10
2.389999999999236
 20
1566.2
 30
0.0
 11
31.68000000000005
 21
1579.5
 31
0.0
  0
LINE
  5
3D
330
2F
100
AcDbEntity
  8
A-DETL-GENF
370
13
100
AcDbLine
 10
31.68000000000006
 20
1579.5
 30
0.0
 11
52.99000000000004
 21
1600.77
 31
0.0
  0
LINE
  5
3E
330
2F
100
AcDbEntity
  8
A-DETL-GENF
370
13
100
AcDbLine
 10
52.99000000000004
 20
1600.77
 30
0.0
 11
82.28000000000011
 21
1592.8
 31
0.0
  0
LINE
  5
3F
330
2F
100
AcDbEntity
  8
A-DETL-GENF
370
13
100
AcDbLine
 10
82.27999999999997
 20
1592.8
 30
0.0
 11
124.88
 21
1568.86
 31
0.0
  0
LINE
  5
40
330
2F
100
AcDbEntity
  8
A-DETL-GENF
370
13
100
AcDbLine
 10
124.88
 20
1568.86
 30
0.0
 11
156.8399999999994
 21
1528.980000000001
 31
0.0
  0
LINE
  5
41
330
2F
100
AcDbEntity
  8
A-DETL-GENF
370
13
100
AcDbLine
 10
156.8399999999994
 20
1528.980000000001
 30
0.0
 11
180.8000000000016
 21
1494.409999999998
 31
0.0
  0
LINE
  5
42
330
2F
100
AcDbEntity
  8
A-DETL-GENF
370
13
100
AcDbLine
 10
180.8000000000023
 20
1494.409999999997
 30
0.0
 11
207.4300000000003
 21
1459.84
 31
0.0
  0
LINE
  5
43
330
2F
100
AcDbEntity
  8
A-DETL-GENF
370
13
100
AcDbLine
 10
207.4300000000001
 20
1459.84
 30
0.0
 11
231.4000000000001
 21
1422.61
 31
0.0
  0
LINE
  5
44
330
2F
100
AcDbEntity
  8
A-DETL-GENF
370
13
100
AcDbLine
 10
231.4000000000001
 20
1422.61
 30
0.0
 11
239.3800000000001
 21
1374.75
 31
0.0
  0
LINE
  5
45
330
2F
100
AcDbEntity
  8
A-DETL-GENF
370
13
100
AcDbLine
 10
239.3800000000001
 20
1374.75
 30
0.0
 11
236.7200000000001
 21
1326.89
 31
0.0
  0
LINE
  5
46
330
2F
100
AcDbEntity
  8
A-DETL-GENF
370
13
100
AcDbLine
 10
236.7200000000001
 20
1326.89
 30
0.0
 11
231.4000000000001
 21
1300.3
 31
0.0
  0
LINE
  5
47
330
2F
100
AcDbEntity
  8
A-DETL-GENF
370
13
100
AcDbLine
 10
231.4000000000001
 20
1300.3
 30
0.0
 11
239.3800000000085
 21
1273.699999999972
 31
0.0
  0
LINE
  5
48
330
2F
100
AcDbEntity
  8
A-DETL-GENF
370
13
100
AcDbLine
 10
239.3799999999916
 20
1273.70000000003
 30
0.0
 11
244.7100000000001
 21
1255.09
 31
0.0
  0
LINE
  5
49
330
2F
100
AcDbEntity
  8
A-DETL-GENF
370
13
100
AcDbLine
 10
244.7100000000001
 20
1255.09
 30
0.0
 11
234.0600000000001
 21
1236.48
 31
0.0
  0
LINE
  5
4A
330
2F
100
AcDbEntity
  8
A-DETL-GENF
370
13
100
AcDbLine
 10
234.0600000000001
 20
1236.48
 30
0.0
 11
231.4000000000001
 21
1204.57
 31
0.0
  0
LINE
  5
4B
330
2F
100
AcDbEntity
  8
A-DETL-GENF
370
13
100
AcDbLine
 10
231.4000000000001
 20
1204.57
 30
0.0
 11
242.0500000000001
 21
1177.98
 31
0.0
  0
LINE
  5
4C
330
2F
100
AcDbEntity
  8
A-DETL-GENF
370
13
100
AcDbLine
 10
242.0500000000001
 20
1177.98
 30
0.0
 11
252.7000000000001
 21
1119.48
 31
0.0
  0
LINE
  5
4D
330
2F
100
AcDbEntity
  8
A-DETL-GENF
370
13
100
AcDbLine
 10
252.7000000000001
 20
1119.48
 30
0.0
 11
255.3600000000001
 21
1079.59
 31
0.0
  0
LINE
  5
4E
330
2F
100
AcDbEntity
  8
A-DETL-GENF
370
13
100
AcDbLine
 10
255.3600000000002
 20
1079.59
 30
0.0
 11
239.3799999999998
 21
1018.429999999998
 31
0.0
  0
LINE
  5
4F
330
2F
100
AcDbEntity
  8
A-DETL-GENF
370
13
100
AcDbLine
 10
239.3800000000001
 20
1018.43
 30
0.0
 11
231.3999999999996
 21
967.9099999999971
 31
0.0
  0
LINE
  5
50
330
2F
100
AcDbEntity
  8
A-DETL-GENF
370
13
100
AcDbLine
 10
231.3999999999996
 20
967.9099999999962
 30
0.0
 11
226.0700000000003
 21
920.0500000000025
 31
0.0
  0
LINE
  5
51
330
2F
100
AcDbEntity
  8
A-DETL-GENF
370
13
100
AcDbLine
 10
226.07
 20
920.0499999999982
 30
0.0
 11
223.4099999999977
 21
874.8399999999582
 31
0.0
  0
LINE
  5
52
330
2F
100
AcDbEntity
  8
A-DETL-GENF
370
13
100
AcDbLine
 10
223.4099999999978
 20
874.839999999949
 30
0.0
 11
220.7400000000001
 21
816.3400000000001
 31
0.0
  0
LINE
  5
53
330
2F
100
AcDbEntity
  8
A-DETL-GENF
370
13
100
AcDbLine
 10
220.7400000000001
 20
816.3400000000001
 30
0.0
 11
204.7700000000001
 21
803.05
 31
0.0
  0
LINE
  5
54
330
2F
100
AcDbEntity
  8
A-DETL-GENF
370
13
100
AcDbLine
 10
204.7700000000001
 20
803.05
 30
0.0
 11
172.8100000000001
 21
821.6600000000001
 31
0.0
  0
LINE
  5
55
330
2F
100
AcDbEntity
  8
A-DETL-GENF
370
13
100
AcDbLine
 10
172.8100000000001
 20
821.6600000000001
 30
0.0
 11
140.86
 21
824.3199999999999
 31
0.0
  0
LINE
  5
56
330
2F
100
AcDbEntity
  8
A-DETL-GENF
370
13
100
AcDbLine
 10
140.8599999999994
 20
824.3199999999999
 30
0.0
 11
98.25000000000009
 21
826.98
 31
0.0
  0
LINE
  5
57
330
2F
100
AcDbEntity
  8
A-DETL-GENF
370
13
100
AcDbLine
 10
98.25000000000009
 20
826.98
 30
0.0
 11
103.58
 21
890.8000000000004
 31
0.0
  0
LINE
  5
58
330
2F
100
AcDbEntity
  8
A-DETL-GENF
370
13
100
AcDbLine
 10
103.5800000000001
 20
890.8000000000004
 30
0.0
 11
116.8900000000002
 21
957.2700000000013
 31
0.0
  0
LINE
  5
59
330
2F
100
AcDbEntity
  8
A-DETL-GENF
370
13
100
AcDbLine
 10
116.890000000001
 20
957.2700000000057
 30
0.0
 11
127.55
 21
1021.09
 31
0.0
  0
LINE
  5
5A
330
2F
100
AcDbEntity
  8
A-DETL-GENF
370
13
100
AcDbLine
 10
127.55
 20
1021.09
 30
0.0
 11
119.56
 21
1087.57
 31
0.0
  0
LINE
  5
5B
330
2F
100
AcDbEntity
  8
A-DETL-GENF
370
13
100
AcDbLine
 10
119.56
 20
1087.57
 30
0.0
 11
122.2200000000001
 21
1146.07
 31
0.0
  0
LINE
  5
5C
330
2F
100
AcDbEntity
  8
A-DETL-GENF
370
13
100
AcDbLine
 10
122.2200000000001
 20
1146.07
 30
0.0
 11
119.56
 21
1180.64
 31
0.0
  0
LINE
  5
5D
330
2F
100
AcDbEntity
  8
A-DETL-GENF
370
13
100
AcDbLine
 10
119.56
 20
1180.64
 30
0.0
 11
106.2399999999999
 21
1225.84
 31
0.0
  0
LINE
  5
5E
330
2F
100
AcDbEntity
  8
A-DETL-GENF
370
13
100
AcDbLine
 10
106.24
 20
1225.84
 30
0.0
 11
95.58999999999993
 21
1273.7
 31
0.0
  0
LINE
  5
5F
330
2F
100
AcDbEntity
  8
A-DETL-GENF
370
13
100
AcDbLine
 10
95.59000000000007
 20
1273.7
 30
0.0
 11
90.27000000000004
 21
1353.48
 31
0.0
  0
LINE
  5
60
330
2F
100
AcDbEntity
  8
A-DETL-GENF
370
13
100
AcDbLine
 10
231.4000000000001
 20
1422.61
 30
0.0
 11
204.7700000000001
 21
1451.86
 31
0.0
  0
LINE
  5
61
330
2F
100
AcDbEntity
  8
A-DETL-GENF
370
13
100
AcDbLine
 10
204.7700000000001
 20
1451.86
 30
0.0
 11
178.14
 21
1438.57
 31
0.0
  0
LINE
  5
62
330
2F
100
AcDbEntity
  8
A-DETL-GENF
370
13
100
AcDbLine
 10
178.14
 20
1438.57
 30
0.0
 11
154.1700000000001
 21
1411.98
 31
0.0
  0
LINE
  5
63
330
2F
100
AcDbEntity
  8
A-DETL-GENF
370
13
100
AcDbLine
 10
82.28000000000006
 20
1590.14
 30
0.0
 11
76.95000000000007
 21
1547.59
 31
0.0
  0
LINE
  5
64
330
2F
100
AcDbEntity
  8
A-DETL-GENF
370
13
100
AcDbLine
 10
76.95000000000005
 20
1547.59
 30
0.0
 11
42.32999999999992
 21
1478.45
 31
0.0
  0
LINE
  5
65
330
2F
100
AcDbEntity
  8
A-DETL-GENF
370
13
100
AcDbLine
 10
42.33000000000004
 20
1478.45
 30
0.0
 11
18.37000000004633
 21
1414.640000000123
 31
0.0
  0
LINE
  5
66
330
2F
100
AcDbEntity
  8
A-DETL-GENF
370
13
100
AcDbLine
 10
18.37000000000124
 20
1414.640000000003
 30
0.0
 11
-2.929999999999946
 21
1356.14
 31
0.0
  0
LINE
  5
67
330
2F
100
AcDbEntity
  8
A-DETL-GENF
370
13
100
AcDbLine
 10
-2.929999999999997
 20
1356.14
 30
0.0
 11
-16.25000000000086
 21
1284.339999999995
 31
0.0
  0
LINE
  5
68
330
2F
100
AcDbEntity
  8
A-DETL-GENF
370
13
100
AcDbLine
 10
-16.25000000000131
 20
1284.339999999992
 30
0.0
 11
-26.89999999999979
 21
1217.860000000001
 31
0.0
  0
LINE
  5
69
330
2F
100
AcDbEntity
  8
A-DETL-GENF
370
13
100
AcDbLine
 10
-26.90000000000002
 20
1217.86
 30
0.0
 11
-48.19999999999996
 21
1143.41
 31
0.0
  0
LINE
  5
6A
330
2F
100
AcDbEntity
  8
A-DETL-GENF
370
13
100
AcDbLine
 10
-48.19999999999996
 20
1143.41
 30
0.0
 11
-48.19999999999996
 21
1079.59
 31
0.0
  0
LINE
  5
6B
330
2F
100
AcDbEntity
  8
A-DETL-GENF
370
13
100
AcDbLine
 10
-48.19999999999996
 20
1079.59
 30
0.0
 11
-50.86999999999998
 21
1015.769999999999
 31
0.0
  0
LINE
  5
6C
330
2F
100
AcDbEntity
  8
A-DETL-GENF
370
13
100
AcDbLine
 10
-50.86999999999998
 20
1015.77
 30
0.0
 11
-40.2099999999999
 21
935.9999999999997
 31
0.0
  0
LINE
  5
6D
330
2F
100
AcDbEntity
  8
A-DETL-GENF
370
13
100
AcDbLine
 10
-40.20999999999999
 20
936.0000000000002
 30
0.0
 11
-32.22999999999994
 21
912.07
 31
0.0
  0
LINE
  5
6E
330
2F
100
AcDbEntity
  8
A-DETL-GENF
370
13
100
AcDbLine
 10
-32.22999999999994
 20
912.07
 30
0.0
 11
23.68999999999958
 21
930.68
 31
0.0
  0
LINE
  5
6F
330
2F
100
AcDbEntity
  8
A-DETL-GENF
370
13
100
AcDbLine
 10
23.69000000000023
 20
930.6800000000002
 30
0.0
 11
74.29000000000003
 21
941.32
 31
0.0
  0
LINE
  5
70
330
2F
100
AcDbEntity
  8
A-DETL-GENF
370
13
100
AcDbLine
 10
74.28999999999996
 20
941.32
 30
0.0
 11
114.23
 21
936.0000000000001
 31
0.0
  0
LINE
  5
71
330
2F
100
AcDbEntity
  8
A-DETL-GENF
370
13
100
AcDbLine
 10
-69.50999999999996
 20
1802.86
 30
0.0
 11
-80.15999999999995
 21
1824.14
 31
0.0
  0
LINE
  5
72
330
2F
100
AcDbEntity
  8
A-DETL-GENF
370
13
100
AcDbLine
 10
-80.15999999999995
 20
1824.14
 30
0.0
 11
-77.48999999999995
 21
1848.07
 31
0.0
  0
LINE
  5
73
330
2F
100
AcDbEntity
  8
A-DETL-GENF
370
13
100
AcDbLine
 10
-77.48999999999995
 20
1848.07
 30
0.0
 11
-42.87999999999998
 21
1864.02
 31
0.0
  0
LINE
  5
74
330
2F
100
AcDbEntity
  8
A-DETL-GENF
370
13
100
AcDbLine
 10
-42.87999999999999
 20
1864.02
 30
0.0
 11
2.390000000000042
 21
1866.68
 31
0.0
  0
LINE
  5
75
330
2F
100
AcDbEntity
  8
A-DETL-GENF
370
13
100
AcDbLine
 10
2.390000000000042
 20
1866.68
 30
0.0
 11
37.01000000000023
 21
1856.05
 31
0.0
  0
LINE
  5
76
330
2F
100
AcDbEntity
  8
A-DETL-GENF
370
13
100
AcDbLine
 10
37.01000000000003
 20
1856.05
 30
0.0
 11
71.63000000000014
 21
1837.43
 31
0.0
  0
LINE
  5
77
330
2F
100
AcDbEntity
  8
A-DETL-GENF
370
13
100
AcDbLine
 10
71.63
 20
1837.43
 30
0.0
 11
92.93000000000002
 21
1818.82
 31
0.0
  0
LINE
  5
78
330
2F
100
AcDbEntity
  8
A-DETL-GENF
370
13
100
AcDbLine
 10
92.93000000000006
 20
1818.82
 30
0.0
 11
116.89
 21
1786.91
 31
0.0
  0
LINE
  5
79
330
2F
100
AcDbEntity
  8
A-DETL-GENF
370
13
100
AcDbLine
 10
116.89
 20
1786.91
 30
0.0
 11
122.22
 21
1760.32
 31
0.0
  0
LINE
  5
7A
330
2F
100
AcDbEntity
  8
A-DETL-GENF
370
13
100
AcDbLine
 10
122.2200000000001
 20
1760.32
 30
0.0
 11
124.88
 21
1723.09
 31
0.0
  0
LINE
  5
7B
330
2F
100
AcDbEntity
  8
A-DETL-GENF
370
13
100
AcDbLine
 10
124.8800000000001
 20
1723.09
 30
0.0
 11
122.22
 21
1677.89
 31
0.0
  0
LINE
  5
7C
330
2F
100
AcDbEntity
  8
A-DETL-GENF
370
13
100
AcDbLine
 10
122.2200000000001
 20
1677.89
 30
0.0
 11
138.2000000000001
 21
1651.3
 31
0.0
  0
LINE
  5
7D
330
2F
100
AcDbEntity
  8
A-DETL-GENF
370
13
100
AcDbLine
 10
138.2
 20
1651.3
 30
0.0
 11
138.2
 21
1630.02
 31
0.0
  0
LINE
  5
7E
330
2F
100
AcDbEntity
  8
A-DETL-GENF
370
13
100
AcDbLine
 10
138.2
 20
1630.02
 30
0.0
 11
122.22
 21
1600.77
 31
0.0
  0
LINE
  5
7F
330
2F
100
AcDbEntity
  8
A-DETL-GENF
370
13
100
AcDbLine
 10
122.22
 20
1600.77
 30
0.0
 11
103.58
 21
1580.83
 31
0.0
  0
LINE
  5
80
330
2F
100
AcDbEntity
  8
A-DETL-GENF
370
13
100
AcDbLine
 10
103.58
 20
1580.83
 30
0.0
 11
103.58
 21
1539.61
 31
0.0
  0
LINE
  5
81
330
2F
100
AcDbEntity
  8
A-DETL-GENF
370
13
100
AcDbLine
 10
103.58
 20
1539.61
 30
0.0
 11
90.27000000000007
 21
1473.14
 31
0.0
  0
LINE
  5
82
330
2F
100
AcDbEntity
  8
A-DETL-GENF
370
13
100
AcDbLine
 10
90.27000000000007
 20
1473.14
 30
0.0
 11
103.58
 21
1457.18
 31
0.0
  0
LINE
  5
83
330
2F
100
AcDbEntity
  8
A-DETL-GENF
370
13
100
AcDbLine
 10
103.58
 20
1457.18
 30
0.0
 11
71.63000000000005
 21
1435.91
 31
0.0
  0
LINE
  5
84
330
2F
100
AcDbEntity
  8
A-DETL-GENF
370
13
100
AcDbLine
 10
71.63000000000005
 20
1435.91
 30
0.0
 11
55.65000000000004
 21
1390.7
 31
0.0
  0
LINE
  5
85
330
2F
100
AcDbEntity
  8
A-DETL-GENF
370
13
100
AcDbLine
 10
55.65000000000005
 20
1390.7
 30
0.0
 11
47.66000000000051
 21
1324.230000000004
 31
0.0
  0
LINE
  5
86
330
2F
100
AcDbEntity
  8
A-DETL-GENF
370
13
100
AcDbLine
 10
47.66000000000029
 20
1324.230000000001
 30
0.0
 11
37.00999999999697
 21
1265.729999999983
 31
0.0
  0
LINE
  5
87
330
2F
100
AcDbEntity
  8
A-DETL-GENF
370
13
100
AcDbLine
 10
37.00999999999849
 20
1265.729999999993
 30
0.0
 11
21.03000000000005
 21
1191.27
 31
0.0
  0
LINE
  5
88
330
2F
100
AcDbEntity
  8
A-DETL-GENF
370
13
100
AcDbLine
 10
21.03000000000005
 20
1191.27
 30
0.0
 11
-5.599999999999965
 21
1140.75
 31
0.0
  0
LINE
  5
89
330
2F
100
AcDbEntity
  8
A-DETL-GENF
370
13
100
AcDbLine
 10
-5.60000000000014
 20
1140.749999999999
 30
0.0
 11
-42.87999999999996
 21
1090.23
 31
0.0
  0
LINE
  5
8A
330
2F
100
AcDbEntity
  8
A-DETL-GENF
370
13
100
AcDbLine
 10
-33.55964930480487
 20
1567.540673432021
 30
0.0
 11
-50.86999999999997
 21
1534.3
 31
0.0
  0
LINE
  5
8B
330
2F
100
AcDbEntity
  8
A-DETL-GENF
370
13
100
AcDbLine
 10
-50.86999999999995
 20
1534.3
 30
0.0
 11
-82.81999999999996
 21
1483.77
 31
0.0
  0
LINE
  5
8C
330
2F
100
AcDbEntity
  8
A-DETL-GENF
370
13
100
AcDbLine
 10
-82.81999999999996
 20
1483.77
 30
0.0
 11
-85.48
 21
1430.59
 31
0.0
  0
LINE
  5
8D
330
2F
100
AcDbEntity
  8
A-DETL-GENF
370
13
100
AcDbLine
 10
-85.47999999999998
 20
1430.59
 30
0.0
 11
-98.80000000000267
 21
1374.749999999989
 31
0.0
  0
LINE
  5
8E
330
2F
100
AcDbEntity
  8
A-DETL-GENF
370
13
100
AcDbLine
 10
-98.80000000000379
 20
1374.749999999983
 30
0.0
 11
-109.4500000000118
 21
1326.889999999947
 31
0.0
  0
LINE
  5
8F
330
2F
100
AcDbEntity
  8
A-DETL-GENF
370
13
100
AcDbLine
 10
-109.4500000000059
 20
1326.889999999973
 30
0.0
 11
-125.4199999999999
 21
1252.43
 31
0.0
  0
LINE
  5
90
330
2F
100
AcDbEntity
  8
A-DETL-GENF
370
13
100
AcDbLine
 10
-125.4199999999999
 20
1252.43
 30
0.0
 11
-130.7499999999994
 21
1188.610000000007
 31
0.0
  0
LINE
  5
91
330
2F
100
AcDbEntity
  8
A-DETL-GENF
370
13
100
AcDbLine
 10
-130.7499999999949
 20
1188.610000000048
 30
0.0
 11
-138.7399999999999
 21
1111.5
 31
0.0
  0
LINE
  5
92
330
2F
100
AcDbEntity
  8
A-DETL-GENF
370
13
100
AcDbLine
 10
-138.7400000000002
 20
1111.499999999999
 30
0.0
 11
-154.7199999999999
 21
1042.36
 31
0.0
  0
LINE
  5
93
330
2F
100
AcDbEntity
  8
A-DETL-GENF
370
13
100
AcDbLine
 10
-154.72
 20
1042.36
 30
0.0
 11
-178.6800000000036
 21
989.1799999999919
 31
0.0
  0
LINE
  5
94
330
2F
100
AcDbEntity
  8
A-DETL-GENF
370
13
100
AcDbLine
 10
-178.6800000000041
 20
989.17999999999
 30
0.0
 11
-202.6499999999999
 21
930.6800000000002
 31
0.0
  0
LINE
  5
95
330
2F
100
AcDbEntity
  8
A-DETL-GENF
370
13
100
AcDbLine
 10
-202.6499999999999
 20
930.6800000000002
 30
0.0
 11
-168.03
 21
933.3400000000001
 31
0.0
  0
LINE
  5
96
330
2F
100
AcDbEntity
  8
A-DETL-GENF
370
13
100
AcDbLine
 10
-168.0299999999992
 20
933.3400000000004
 30
0.0
 11
-114.7699999999999
 21
943.9799999999999
 31
0.0
  0
LINE
  5
97
330
2F
100
AcDbEntity
  8
A-DETL-GENF
370
13
100
AcDbLine
 10
-114.7699999999999
 20
943.9799999999999
 30
0.0
 11
-106.7799999999845
 21
978.5500000000665
 31
0.0
  0
LINE
  5
98
330
2F
100
AcDbEntity
  8
A-DETL-GENF
370
13
100
AcDbLine
 10
-106.7800000000108
 20
978.5499999999546
 30
0.0
 11
-93.46999999999994
 21
1034.39
 31
0.0
  0
LINE
  5
99
330
2F
100
AcDbEntity
  8
A-DETL-GENF
370
13
100
AcDbLine
 10
-93.46999999999994
 20
1034.39
 30
0.0
 11
-93.46999999999994
 21
1103.52
 31
0.0
  0
LINE
  5
9A
330
2F
100
AcDbEntity
  8
A-DETL-GENF
370
13
100
AcDbLine
 10
-93.46999999999994
 20
1103.52
 30
0.0
 11
-133.4099999999999
 21
1132.77
 31
0.0
  0
LINE
  5
9B
330
2F
100
AcDbEntity
  8
A-DETL-GENF
370
13
100
AcDbLine
 10
-93.46999999999994
 20
1103.52
 30
0.0
 11
-50.86999999999996
 21
1087.57
 31
0.0
  0
LINE
  5
9C
330
2F
100
AcDbEntity
  8
A-DETL-GENF
370
13
100
AcDbLine
 10
-21.56999999999994
 20
1550.25
 30
0.0
 11
-24.23999999999996
 21
1513.02
 31
0.0
  0
LINE
  5
9D
330
2F
100
AcDbEntity
  8
A-DETL-GENF
370
13
100
AcDbLine
 10
-24.23999999999996
 20
1513.02
 30
0.0
 11
-42.87999999999995
 21
1518.34
 31
0.0
  0
LINE
  5
9E
330
2F
100
AcDbEntity
  8
A-DETL-GENF
370
13
100
AcDbLine
 10
-42.87999999999995
 20
1518.34
 30
0.0
 11
-40.20999999999996
 21
1552.91
 31
0.0
  0
LINE
  5
9F
330
2F
100
AcDbEntity
  8
A-DETL-GENF
370
13
100
AcDbLine
 10
-24.23999999999996
 20
1510.36
 30
0.0
 11
-37.55000000004353
 21
1473.139999999878
 31
0.0
  0
LINE
  5
A0
330
2F
100
AcDbEntity
  8
A-DETL-GENF
370
13
100
AcDbLine
 10
-37.55000000001499
 20
1473.139999999957
 30
0.0
 11
-56.18999999999995
 21
1419.95
 31
0.0
  0
LINE
  5
A1
330
2F
100
AcDbEntity
  8
A-DETL-GENF
370
13
100
AcDbLine
 10
-56.18999999999995
 20
1419.95
 30
0.0
 11
-53.52999999999996
 21
1382.73
 31
0.0
  0
LINE
  5
A2
330
2F
100
AcDbEntity
  8
A-DETL-GENF
370
13
100
AcDbLine
 10
-53.52999999999996
 20
1382.73
 30
0.0
 11
-69.50999999999996
 21
1364.11
 31
0.0
  0
LINE
  5
A3
330
2F
100
AcDbEntity
  8
A-DETL-GENF
370
13
100
AcDbLine
 10
-69.50999999999996
 20
1364.11
 30
0.0
 11
-74.82999999999996
 21
1332.2
 31
0.0
  0
LINE
  5
A4
330
2F
100
AcDbEntity
  8
A-DETL-GENF
370
13
100
AcDbLine
 10
-74.82999999999996
 20
1332.2
 30
0.0
 11
-88.14999999999999
 21
1292.32
 31
0.0
  0
LINE
  5
A5
330
2F
100
AcDbEntity
  8
A-DETL-GENF
370
13
100
AcDbLine
 10
-88.14999999999999
 20
1292.32
 30
0.0
 11
-93.47000000000197
 21
1249.769999999984
 31
0.0
  0
LINE
  5
A6
330
2F
100
AcDbEntity
  8
A-DETL-GENF
370
13
100
AcDbLine
 10
-93.4700000000012
 20
1249.769999999988
 30
0.0
 11
-98.79999999999995
 21
1199.25
 31
0.0
  0
LINE
  5
A7
330
2F
100
AcDbEntity
  8
A-DETL-GENF
370
13
100
AcDbLine
 10
-98.79999999999997
 20
1199.25
 30
0.0
 11
-120.1
 21
1170.0
 31
0.0
  0
LINE
  5
A8
330
2F
100
AcDbEntity
  8
A-DETL-GENF
370
13
100
AcDbLine
 10
-120.0999999999999
 20
1170.0
 30
0.0
 11
-120.0999999999999
 21
1138.09
 31
0.0
  0
LINE
  5
A9
330
2F
100
AcDbEntity
  8
A-DETL-GENF
370
13
100
AcDbLine
 10
-202.6499999999999
 20
930.6800000000002
 30
0.0
 11
-210.64
 21
970.57
 31
0.0
  0
LINE
  5
AA
330
2F
100
AcDbEntity
  8
A-DETL-GENF
370
13
100
AcDbLine
 10
-210.64
 20
970.57
 30
0.0
 11
-202.6499999999999
 21
1039.7
 31
0.0
  0
LINE
  5
AB
330
2F
100
AcDbEntity
  8
A-DETL-GENF
370
13
100
AcDbLine
 10
-202.6499999999999
 20
1039.7
 30
0.0
 11
-194.6599999999999
 21
1108.84
 31
0.0
  0
LINE
  5
AC
330
2F
100
AcDbEntity
  8
A-DETL-GENF
370
13
100
AcDbLine
 10
-194.6599999999999
 20
1108.84
 30
0.0
 11
-202.6499999999999
 21
1196.59
 31
0.0
  0
LINE
  5
AD
330
2F
100
AcDbEntity
  8
A-DETL-GENF
370
13
100
AcDbLine
 10
-202.6499999999999
 20
1196.59
 30
0.0
 11
-192.0000000000007
 21
1252.429999999996
 31
0.0
  0
LINE
  5
AE
330
2F
100
AcDbEntity
  8
A-DETL-GENF
370
13
100
AcDbLine
 10
-192.0000000000004
 20
1252.429999999998
 30
0.0
 11
-178.68
 21
1308.27
 31
0.0
  0
LINE
  5
AF
330
2F
100
AcDbEntity
  8
A-DETL-GENF
370
13
100
AcDbLine
 10
-178.6799999999999
 20
1308.27
 30
0.0
 11
-146.7299999999999
 21
1398.68
 31
0.0
  0
LINE
  5
B0
330
2F
100
AcDbEntity
  8
A-DETL-GENF
370
13
100
AcDbLine
 10
-146.7299999999999
 20
1398.68
 30
0.0
 11
-194.6600000000032
 21
1409.320000000001
 31
0.0
  0
LINE
  5
B1
330
2F
100
AcDbEntity
  8
A-DETL-GENF
370
13
100
AcDbLine
 10
-194.66
 20
1409.32
 30
0.0
 11
-245.25
 21
1422.61
 31
0.0
  0
LINE
  5
B2
330
2F
100
AcDbEntity
  8
A-DETL-GENF
370
13
100
AcDbLine
 10
-245.25
 20
1422.61
 30
0.0
 11
-277.2100000000018
 21
1443.890000000001
 31
0.0
  0
LINE
  5
B3
330
2F
100
AcDbEntity
  8
A-DETL-GENF
370
13
100
AcDbLine
 10
-277.2100000000049
 20
1443.890000000004
 30
0.0
 11
-319.81
 21
1475.8
 31
0.0
  0
LINE
  5
B4
330
2F
100
AcDbEntity
  8
A-DETL-GENF
370
13
100
AcDbLine
 10
-319.81
 20
1475.8
 30
0.0
 11
-362.4200000000042
 21
1507.700000000003
 31
0.0
  0
LINE
  5
B5
330
2F
100
AcDbEntity
  8
A-DETL-GENF
370
13
100
AcDbLine
 10
-362.420000000019
 20
1507.700000000015
 30
0.0
 11
-413.0099999999999
 21
1547.59
 31
0.0
  0
LINE
  5
B6
330
2F
100
AcDbEntity
  8
A-DETL-GENF
370
13
100
AcDbLine
 10
-413.0099999999999
 20
1547.59
 30
0.0
 11
-375.7299999999999
 21
1592.8
 31
0.0
  0
LINE
  5
B7
330
2F
100
AcDbEntity
  8
A-DETL-GENF
370
13
100
AcDbLine
 10
-375.7299999999999
 20
1592.8
 30
0.0
 11
-349.1
 21
1648.64
 31
0.0
  0
LINE
  5
B8
330
2F
100
AcDbEntity
  8
A-DETL-GENF
370
13
100
AcDbLine
 10
-349.1
 20
1648.64
 30
0.0
 11
-391.7099999999999
 21
1693.84
 31
0.0
  0
LINE
  5
B9
330
2F
100
AcDbEntity
  8
A-DETL-GENF
370
13
100
AcDbLine
 10
-391.7099999999999
 20
1693.84
 30
0.0
 11
-394.37
 21
1720.43
 31
0.0
  0
LINE
  5
BA
330
2F
100
AcDbEntity
  8
A-DETL-GENF
370
13
100
AcDbLine
 10
-394.37
 20
1720.43
 30
0.0
 11
-428.9899999999999
 21
1755.0
 31
0.0
  0
LINE
  5
BB
330
2F
100
AcDbEntity
  8
A-DETL-GENF
370
13
100
AcDbLine
 10
-428.9899999999999
 20
1755.0
 30
0.0
 11
-468.9300000000001
 21
1794.89
 31
0.0
  0
LINE
  5
BC
330
2F
100
AcDbEntity
  8
A-DETL-GENF
370
13
100
AcDbLine
 10
-468.9300000000002
 20
1794.89
 30
0.0
 11
-503.5499999999999
 21
1810.84
 31
0.0
  0
LINE
  5
BD
330
2F
100
AcDbEntity
  8
A-DETL-GENF
370
13
100
AcDbLine
 10
-503.5499999999999
 20
1810.84
 30
0.0
 11
-500.89
 21
1789.57
 31
0.0
  0
LINE
  5
BE
330
2F
100
AcDbEntity
  8
A-DETL-GENF
370
13
100
AcDbLine
 10
-500.89
 20
1789.57
 30
0.0
 11
-460.9399999999999
 21
1744.36
 31
0.0
  0
LINE
  5
BF
330
2F
100
AcDbEntity
  8
A-DETL-GENF
370
13
100
AcDbLine
 10
-460.9399999999999
 20
1744.36
 30
0.0
 11
-476.92
 21
1739.05
 31
0.0
  0
LINE
  5
C0
330
2F
100
AcDbEntity
  8
A-DETL-GENF
370
13
100
AcDbLine
 10
-476.92
 20
1739.05
 30
0.0
 11
-482.2499999999998
 21
1717.770000000001
 31
0.0
  0
LINE
  5
C1
330
2F
100
AcDbEntity
  8
A-DETL-GENF
370
13
100
AcDbLine
 10
-482.2499999999998
 20
1717.770000000001
 30
0.0
 11
-487.5699999999999
 21
1683.2
 31
0.0
  0
LINE
  5
C2
330
2F
100
AcDbEntity
  8
A-DETL-GENF
370
13
100
AcDbLine
 10
-487.5699999999999
 20
1683.2
 30
0.0
 11
-455.62
 21
1669.91
 31
0.0
  0
LINE
  5
C3
330
2F
100
AcDbEntity
  8
A-DETL-GENF
370
13
100
AcDbLine
 10
-455.62
 20
1669.91
 30
0.0
 11
-426.33
 21
1638.0
 31
0.0
  0
LINE
  5
C4
330
2F
100
AcDbEntity
  8
A-DETL-GENF
370
13
100
AcDbLine
 10
-426.33
 20
1638.0
 30
0.0
 11
-410.35
 21
1638.0
 31
0.0
  0
LINE
  5
C5
330
2F
100
AcDbEntity
  8
A-DETL-GENF
370
13
100
AcDbLine
 10
-410.35
 20
1638.0
 30
0.0
 11
-378.3899999999999
 21
1587.48
 31
0.0
  0
LINE
  5
C6
330
2F
100
AcDbEntity
  8
A-DETL-GENF
370
13
100
AcDbLine
 10
23.69285842085524
 20
1635.337146349142
 30
0.0
 11
47.66000000000005
 21
1611.41
 31
0.0
  0
LINE
  5
C7
330
2F
100
AcDbEntity
  8
A-DETL-GENF
370
13
100
AcDbLine
 10
47.66000000000006
 20
1611.41
 30
0.0
 11
52.99000000000004
 21
1600.77
 31
0.0
  0
LINE
  5
C8
330
2F
100
AcDbEntity
  8
A-DETL-GENF
370
13
100
AcDbLine
 10
-10.92203712860697
 20
1800.209746076223
 30
0.0
 11
31.68000000000007
 21
1805.52
 31
0.0
  0
LINE
  5
C9
330
2F
100
AcDbEntity
  8
A-DETL-GENF
370
13
100
AcDbLine
 10
31.68000000000001
 20
1805.52
 30
0.0
 11
58.31000000000002
 21
1800.2
 31
0.0
  0
LINE
  5
CA
330
2F
100
AcDbEntity
  8
A-DETL-GENF
370
13
100
AcDbLine
 10
58.3100000000001
 20
1800.2
 30
0.0
 11
87.60000000000005
 21
1781.59
 31
0.0
  0
LINE
  5
CB
330
2F
100
AcDbEntity
  8
A-DETL-GENF
370
13
100
AcDbLine
 10
87.60000000000005
 20
1781.59
 30
0.0
 11
76.95000000000005
 21
1747.02
 31
0.0
  0
LINE
  5
CC
330
2F
100
AcDbEntity
  8
A-DETL-GENF
370
13
100
AcDbLine
 10
76.95000000000005
 20
1747.02
 30
0.0
 11
50.32000000000004
 21
1760.32
 31
0.0
  0
LINE
  5
CD
330
2F
100
AcDbEntity
  8
A-DETL-GENF
370
13
100
AcDbLine
 10
50.32000000000046
 20
1760.32
 30
0.0
 11
29.02000000000004
 21
1773.61
 31
0.0
  0
LINE
  5
CE
330
2F
100
AcDbEntity
  8
A-DETL-GENF
370
13
100
AcDbLine
 10
29.02000000000004
 20
1773.61
 30
0.0
 11
7.720000000000043
 21
1778.93
 31
0.0
  0
LINE
  5
CF
330
2F
100
AcDbEntity
  8
A-DETL-GENF
370
13
100
AcDbLine
 10
-75.81999999999998
 20
1707.14
 30
0.0
 11
-64.47999999999996
 21
1707.14
 31
0.0
  0
LINE
  5
D0
330
2F
100
AcDbEntity
  8
A-DETL-GENF
370
13
100
AcDbLine
 10
37.01000000000006
 20
1396.02
 30
0.0
 11
21.03000000000005
 21
1393.36
 31
0.0
  0
LINE
  5
D1
330
2F
100
AcDbEntity
  8
A-DETL-GENF
370
13
100
AcDbLine
 10
21.03000000000005
 20
1393.36
 30
0.0
 11
18.37000000000005
 21
1361.45
 31
0.0
  0
LINE
  5
D2
330
2F
100
AcDbEntity
  8
A-DETL-GENF
370
13
100
AcDbLine
 10
140.86
 20
824.3199999999999
 30
0.0
 11
122.2199999999871
 21
792.4099999999777
 31
0.0
  0
LINE
  5
D3
330
2F
100
AcDbEntity
  8
A-DETL-GENF
370
13
100
AcDbLine
 10
122.2199999999826
 20
792.4099999999708
 30
0.0
 11
106.24
 21
765.82
 31
0.0
  0
LINE
  5
D4
330
2F
100
AcDbEntity
  8
A-DETL-GENF
370
13
100
AcDbLine
 10
106.24
 20
765.82
 30
0.0
 11
106.24
 21
733.9099999999999
 31
0.0
  0
LINE
  5
D5
330
2F
100
AcDbEntity
  8
A-DETL-GENF
370
13
100
AcDbLine
 10
106.24
 20
733.9099999999999
 30
0.0
 11
106.24
 21
704.66
 31
0.0
  0
LINE
  5
D6
330
2F
100
AcDbEntity
  8
A-DETL-GENF
370
13
100
AcDbLine
 10
106.24
 20
704.66
 30
0.0
 11
116.89
 21
707.3199999999999
 31
0.0
  0
LINE
  5
D7
330
2F
100
AcDbEntity
  8
A-DETL-GENF
370
13
100
AcDbLine
 10
116.89
 20
707.3199999999999
 30
0.0
 11
122.2200000000001
 21
747.2
 31
0.0
  0
LINE
  5
D8
330
2F
100
AcDbEntity
  8
A-DETL-GENF
370
13
100
AcDbLine
 10
122.2200000000001
 20
747.2
 30
0.0
 11
135.53
 21
707.3199999999999
 31
0.0
  0
LINE
  5
D9
330
2F
100
AcDbEntity
  8
A-DETL-GENF
370
13
100
AcDbLine
 10
135.53
 20
707.3199999999999
 30
0.0
 11
148.8500000000001
 21
699.3399999999999
 31
0.0
  0
LINE
  5
DA
330
2F
100
AcDbEntity
  8
A-DETL-GENF
370
13
100
AcDbLine
 10
148.8500000000001
 20
699.3399999999999
 30
0.0
 11
162.16
 21
717.95
 31
0.0
  0
LINE
  5
DB
330
2F
100
AcDbEntity
  8
A-DETL-GENF
370
13
100
AcDbLine
 10
162.16
 20
717.95
 30
0.0
 11
178.14
 21
717.95
 31
0.0
  0
LINE
  5
DC
330
2F
100
AcDbEntity
  8
A-DETL-GENF
370
13
100
AcDbLine
 10
178.14
 20
717.95
 30
0.0
 11
191.4500000000001
 21
709.9799999999999
 31
0.0
  0
LINE
  5
DD
330
2F
100
AcDbEntity
  8
A-DETL-GENF
370
13
100
AcDbLine
 10
191.4500000000001
 20
709.9799999999999
 30
0.0
 11
196.7800000000001
 21
736.5700000000002
 31
0.0
  0
LINE
  5
DE
330
2F
100
AcDbEntity
  8
A-DETL-GENF
370
13
100
AcDbLine
 10
196.7800000000001
 20
736.57
 30
0.0
 11
191.4500000000001
 21
749.86
 31
0.0
  0
LINE
  5
DF
330
2F
100
AcDbEntity
  8
A-DETL-GENF
370
13
100
AcDbLine
 10
191.4500000000001
 20
749.86
 30
0.0
 11
196.7800000000001
 21
760.5000000000001
 31
0.0
  0
LINE
  5
E0
330
2F
100
AcDbEntity
  8
A-DETL-GENF
370
13
100
AcDbLine
 10
196.7800000000001
 20
760.5000000000001
 30
0.0
 11
202.1000000000001
 21
797.7300000000001
 31
0.0
  0
LINE
  5
E1
330
2F
100
AcDbEntity
  8
A-DETL-GENF
370
13
100
AcDbLine
 10
-114.7699999999999
 20
943.9799999999999
 30
0.0
 11
-104.12
 21
888.1400000000002
 31
0.0
  0
LINE
  5
E2
330
2F
100
AcDbEntity
  8
A-DETL-GENF
370
13
100
AcDbLine
 10
-104.1199999999999
 20
888.1400000000001
 30
0.0
 11
-106.7799999999999
 21
845.5900000000003
 31
0.0
  0
LINE
  5
E3
330
2F
100
AcDbEntity
  8
A-DETL-GENF
370
13
100
AcDbLine
 10
-106.78
 20
845.5899999999999
 30
0.0
 11
-117.4399999999885
 21
808.3600000000398
 31
0.0
  0
LINE
  5
E4
330
2F
100
AcDbEntity
  8
A-DETL-GENF
370
13
100
AcDbLine
 10
-117.4400000000169
 20
808.3599999999377
 30
0.0
 11
-125.4199999999999
 21
779.1099999999999
 31
0.0
  0
LINE
  5
E5
330
2F
100
AcDbEntity
  8
A-DETL-GENF
370
13
100
AcDbLine
 10
-125.4199999999999
 20
779.1099999999999
 30
0.0
 11
-120.1
 21
741.8900000000003
 31
0.0
  0
LINE
  5
E6
330
2F
100
AcDbEntity
  8
A-DETL-GENF
370
13
100
AcDbLine
 10
-120.0999999999999
 20
741.8899999999998
 30
0.0
 11
-120.0999999999999
 21
656.8
 31
0.0
  0
LINE
  5
E7
330
2F
100
AcDbEntity
  8
A-DETL-GENF
370
13
100
AcDbLine
 10
-120.0999999999999
 20
656.8
 30
0.0
 11
-117.44
 21
534.480000000002
 31
0.0
  0
LINE
  5
E8
330
2F
100
AcDbEntity
  8
A-DETL-GENF
370
13
100
AcDbLine
 10
-117.44
 20
534.4799999999987
 30
0.0
 11
-120.1000000000001
 21
470.659999999997
 31
0.0
  0
LINE
  5
E9
330
2F
100
AcDbEntity
  8
A-DETL-GENF
370
13
100
AcDbLine
 10
-120.0999999999999
 20
470.6600000000052
 30
0.0
 11
-120.0999999999999
 21
406.8399999999999
 31
0.0
  0
LINE
  5
EA
330
2F
100
AcDbEntity
  8
A-DETL-GENF
370
13
100
AcDbLine
 10
-120.0999999999999
 20
406.8399999999999
 30
0.0
 11
-114.7699999999999
 21
337.7000000000001
 31
0.0
  0
LINE
  5
EB
330
2F
100
AcDbEntity
  8
A-DETL-GENF
370
13
100
AcDbLine
 10
-114.7699999999999
 20
337.7
 30
0.0
 11
-122.76
 21
273.8899999999995
 31
0.0
  0
LINE
  5
EC
330
2F
100
AcDbEntity
  8
A-DETL-GENF
370
13
100
AcDbLine
 10
-122.7599999999999
 20
273.8899999999997
 30
0.0
 11
-120.0999999999999
 21
226.0200000000001
 31
0.0
  0
LINE
  5
ED
330
2F
100
AcDbEntity
  8
A-DETL-GENF
370
13
100
AcDbLine
 10
-120.0999999999999
 20
226.0200000000001
 30
0.0
 11
-160.0400000000002
 21
183.4799999999997
 31
0.0
  0
LINE
  5
EE
330
2F
100
AcDbEntity
  8
A-DETL-GENF
370
13
100
AcDbLine
 10
-160.0400000000004
 20
183.4799999999994
 30
0.0
 11
-173.36
 21
164.86
 31
0.0
  0
LINE
  5
EF
330
2F
100
AcDbEntity
  8
A-DETL-GENF
370
13
100
AcDbLine
 10
-173.36
 20
164.86
 30
0.0
 11
-149.39
 21
140.93
 31
0.0
  0
LINE
  5
F0
330
2F
100
AcDbEntity
  8
A-DETL-GENF
370
13
100
AcDbLine
 10
-149.39
 20
140.93
 30
0.0
 11
-114.7700000000008
 21
124.9800000000004
 31
0.0
  0
LINE
  5
F1
330
2F
100
AcDbEntity
  8
A-DETL-GENF
370
13
100
AcDbLine
 10
-114.7700000000006
 20
124.9800000000002
 30
0.0
 11
-77.48999999999995
 21
111.68
 31
0.0
  0
LINE
  5
F2
330
2F
100
AcDbEntity
  8
A-DETL-GENF
370
13
100
AcDbLine
 10
-77.4900000000001
 20
111.6800000000001
 30
0.0
 11
-48.19999999999986
 21
95.72999999999996
 31
0.0
  0
LINE
  5
F3
330
2F
100
AcDbEntity
  8
A-DETL-GENF
370
13
100
AcDbLine
 10
-48.1999999999999
 20
95.73
 30
0.0
 11
-16.24999999999996
 21
85.09000000000002
 31
0.0
  0
LINE
  5
F4
330
2F
100
AcDbEntity
  8
A-DETL-GENF
370
13
100
AcDbLine
 10
-16.24999999999996
 20
85.09000000000002
 30
0.0
 11
-8.259999999999948
 21
117.0
 31
0.0
  0
LINE
  5
F5
330
2F
100
AcDbEntity
  8
A-DETL-GENF
370
13
100
AcDbLine
 10
-8.259999999999948
 20
117.0
 30
0.0
 11
-8.259999999999948
 21
156.89
 31
0.0
  0
LINE
  5
F6
330
2F
100
AcDbEntity
  8
A-DETL-GENF
370
13
100
AcDbLine
 10
-8.259999999999948
 20
156.89
 30
0.0
 11
-8.259999999999948
 21
194.11
 31
0.0
  0
LINE
  5
F7
330
2F
100
AcDbEntity
  8
A-DETL-GENF
370
13
100
AcDbLine
 10
-8.259999999999948
 20
194.11
 30
0.0
 11
5.049999999998993
 21
260.5899999999948
 31
0.0
  0
LINE
  5
F8
330
2F
100
AcDbEntity
  8
A-DETL-GENF
370
13
100
AcDbLine
 10
5.04999999999655
 20
260.5899999999843
 30
0.0
 11
15.71000000000011
 21
308.4500000000003
 31
0.0
  0
LINE
  5
F9
330
2F
100
AcDbEntity
  8
A-DETL-GENF
370
13
100
AcDbLine
 10
15.71000000000003
 20
308.4499999999997
 30
0.0
 11
18.37000000000003
 21
356.3199999999997
 31
0.0
  0
LINE
  5
FA
330
2F
100
AcDbEntity
  8
A-DETL-GENF
370
13
100
AcDbLine
 10
18.37000000000007
 20
356.3199999999994
 30
0.0
 11
15.71000000000005
 21
420.1399999999999
 31
0.0
  0
LINE
  5
FB
330
2F
100
AcDbEntity
  8
A-DETL-GENF
370
13
100
AcDbLine
 10
15.71000000000004
 20
420.1399999999997
 30
0.0
 11
18.37000000000006
 21
449.39
 31
0.0
  0
LINE
  5
FC
330
2F
100
AcDbEntity
  8
A-DETL-GENF
370
13
100
AcDbLine
 10
18.37000000000003
 20
449.39
 30
0.0
 11
29.01999999999988
 21
374.9300000000013
 31
0.0
  0
LINE
  5
FD
330
2F
100
AcDbEntity
  8
A-DETL-GENF
370
13
100
AcDbLine
 10
29.01999999999987
 20
374.9300000000021
 30
0.0
 11
34.35000000000002
 21
313.7700000000003
 31
0.0
  0
LINE
  5
FE
330
2F
100
AcDbEntity
  8
A-DETL-GENF
370
13
100
AcDbLine
 10
34.35000000000007
 20
313.7700000000002
 30
0.0
 11
29.02000000000005
 21
260.5900000000001
 31
0.0
  0
LINE
  5
FF
330
2F
100
AcDbEntity
  8
A-DETL-GENF
370
13
100
AcDbLine
 10
29.02000000000003
 20
260.5900000000001
 30
0.0
 11
39.67000000000184
 21
220.6999999999933
 31
0.0
  0
LINE
  5
100
330
2F
100
AcDbEntity
  8
A-DETL-GENF
370
13
100
AcDbLine
 10
39.67000000001475
 20
220.6999999999477
 30
0.0
 11
58.30999999999996
 21
154.2300000000003
 31
0.0
  0
LINE
  5
101
330
2F
100
AcDbEntity
  8
A-DETL-GENF
370
13
100
AcDbLine
 10
58.31000000000005
 20
154.23
 30
0.0
 11
60.97000000000005
 21
117.0
 31
0.0
  0
LINE
  5
102
330
2F
100
AcDbEntity
  8
A-DETL-GENF
370
13
100
AcDbLine
 10
60.97000000000006
 20
117.0
 30
0.0
 11
58.31000000000005
 21
98.39000000000001
 31
0.0
  0
LINE
  5
103
330
2F
100
AcDbEntity
  8
A-DETL-GENF
370
13
100
AcDbLine
 10
58.31000000000005
 20
98.39000000000001
 30
0.0
 11
90.27000000000004
 21
95.73000000000002
 31
0.0
  0
LINE
  5
104
330
2F
100
AcDbEntity
  8
A-DETL-GENF
370
13
100
AcDbLine
 10
90.27000000000008
 20
95.73
 30
0.0
 11
116.89
 21
82.43
 31
0.0
  0
LINE
  5
105
330
2F
100
AcDbEntity
  8
A-DETL-GENF
370
13
100
AcDbLine
 10
116.89
 20
82.43
 30
0.0
 11
130.21
 21
61.16
 31
0.0
  0
LINE
  5
106
330
2F
100
AcDbEntity
  8
A-DETL-GENF
370
13
100
AcDbLine
 10
130.21
 20
61.16000000000001
 30
0.0
 11
122.2200000000001
 21
42.55
 31
0.0
  0
LINE
  5
107
330
2F
100
AcDbEntity
  8
A-DETL-GENF
370
13
100
AcDbLine
 10
122.2200000000001
 20
42.55000000000001
 30
0.0
 11
119.56
 21
18.60999999999999
 31
0.0
  0
LINE
  5
108
330
2F
100
AcDbEntity
  8
A-DETL-GENF
370
13
100
AcDbLine
 10
119.56
 20
18.60999999999999
 30
0.0
 11
154.1700000000001
 21
26.59000000000002
 31
0.0
  0
LINE
  5
109
330
2F
100
AcDbEntity
  8
A-DETL-GENF
370
13
100
AcDbLine
 10
154.17
 20
26.58999999999999
 30
0.0
 11
186.1300000000001
 21
45.20000000000002
 31
0.0
  0
LINE
  5
10A
330
2F
100
AcDbEntity
  8
A-DETL-GENF
370
13
100
AcDbLine
 10
186.1300000000001
 20
45.20000000000003
 30
0.0
 11
196.7800000000001
 21
63.82000000000001
 31
0.0
  0
LINE
  5
10B
330
2F
100
AcDbEntity
  8
A-DETL-GENF
370
13
100
AcDbLine
 10
196.7800000000001
 20
63.82000000000001
 30
0.0
 11
188.7900000000001
 21
103.6999999999997
 31
0.0
  0
LINE
  5
10C
330
2F
100
AcDbEntity
  8
A-DETL-GENF
370
13
100
AcDbLine
 10
188.7900000000001
 20
103.6999999999991
 30
0.0
 11
186.13
 21
138.27
 31
0.0
  0
LINE
  5
10D
330
2F
100
AcDbEntity
  8
A-DETL-GENF
370
13
100
AcDbLine
 10
186.1300000000001
 20
138.2700000000001
 30
0.0
 11
188.7900000000001
 21
186.14
 31
0.0
  0
LINE
  5
10E
330
2F
100
AcDbEntity
  8
A-DETL-GENF
370
13
100
AcDbLine
 10
42.33000000000004
 20
202.09
 30
0.0
 11
76.95
 21
175.5
 31
0.0
  0
LINE
  5
10F
330
2F
100
AcDbEntity
  8
A-DETL-GENF
370
13
100
AcDbLine
 10
76.95000000000005
 20
175.5
 30
0.0
 11
127.5500000000001
 21
170.18
 31
0.0
  0
LINE
  5
110
330
2F
100
AcDbEntity
  8
A-DETL-GENF
370
13
100
AcDbLine
 10
127.5499999999998
 20
170.18
 30
0.0
 11
172.8100000000001
 21
175.5
 31
0.0
  0
LINE
  5
111
330
2F
100
AcDbEntity
  8
A-DETL-GENF
370
13
100
AcDbLine
 10
172.81
 20
175.5
 30
0.0
 11
188.7900000000001
 21
186.14
 31
0.0
  0
LINE
  5
112
330
2F
100
AcDbEntity
  8
A-DETL-GENF
370
13
100
AcDbLine
 10
188.7900000000001
 20
186.14
 30
0.0
 11
231.4000000000002
 21
204.7500000000001
 31
0.0
  0
LINE
  5
113
330
2F
100
AcDbEntity
  8
A-DETL-GENF
370
13
100
AcDbLine
 10
231.4000000000001
 20
204.7500000000001
 30
0.0
 11
284.6500000000002
 21
252.6100000000001
 31
0.0
  0
LINE
  5
114
330
2F
100
AcDbEntity
  8
A-DETL-GENF
370
13
100
AcDbLine
 10
284.6500000000002
 20
252.61
 30
0.0
 11
305.9600000000005
 21
316.430000000001
 31
0.0
  0
LINE
  5
115
330
2F
100
AcDbEntity
  8
A-DETL-GENF
370
13
100
AcDbLine
 10
305.9600000000003
 20
316.4300000000007
 30
0.0
 11
324.5999999999996
 21
404.1799999999977
 31
0.0
  0
LINE
  5
116
330
2F
100
AcDbEntity
  8
A-DETL-GENF
370
13
100
AcDbLine
 10
324.6000000000001
 20
404.1800000000007
 30
0.0
 11
335.25
 21
489.2700000000005
 31
0.0
  0
LINE
  5
117
330
2F
100
AcDbEntity
  8
A-DETL-GENF
370
13
100
AcDbLine
 10
335.25
 20
489.2700000000007
 30
0.0
 11
332.5799999999992
 21
558.4100000000218
 31
0.0
  0
LINE
  5
118
330
2F
100
AcDbEntity
  8
A-DETL-GENF
370
13
100
AcDbLine
 10
332.5799999999987
 20
558.4100000000273
 30
0.0
 11
329.9200000000001
 21
608.93
 31
0.0
  0
LINE
  5
119
330
2F
100
AcDbEntity
  8
A-DETL-GENF
370
13
100
AcDbLine
 10
329.9200000000001
 20
608.93
 30
0.0
 11
284.6500000000002
 21
579.68
 31
0.0
  0
LINE
  5
11A
330
2F
100
AcDbEntity
  8
A-DETL-GENF
370
13
100
AcDbLine
 10
284.6500000000002
 20
579.68
 30
0.0
 11
252.7000000000001
 21
579.68
 31
0.0
  0
LINE
  5
11B
330
2F
100
AcDbEntity
  8
A-DETL-GENF
370
13
100
AcDbLine
 10
252.7000000000001
 20
579.68
 30
0.0
 11
284.6500000000002
 21
630.1999999999999
 31
0.0
  0
LINE
  5
11C
330
2F
100
AcDbEntity
  8
A-DETL-GENF
370
13
100
AcDbLine
 10
284.6500000000002
 20
630.1999999999999
 30
0.0
 11
281.99
 21
659.45
 31
0.0
  0
LINE
  5
11D
330
2F
100
AcDbEntity
  8
A-DETL-GENF
370
13
100
AcDbLine
 10
281.99
 20
659.45
 30
0.0
 11
268.6800000000001
 21
680.73
 31
0.0
  0
LINE
  5
11E
330
2F
100
AcDbEntity
  8
A-DETL-GENF
370
13
100
AcDbLine
 10
268.6800000000001
 20
680.73
 30
0.0
 11
242.0500000000001
 21
686.05
 31
0.0
  0
LINE
  5
11F
330
2F
100
AcDbEntity
  8
A-DETL-GENF
370
13
100
AcDbLine
 10
242.0500000000001
 20
686.05
 30
0.0
 11
207.43
 21
654.14
 31
0.0
  0
LINE
  5
120
330
2F
100
AcDbEntity
  8
A-DETL-GENF
370
13
100
AcDbLine
 10
207.43
 20
654.14
 30
0.0
 11
162.160000000013
 21
632.860000000006
 31
0.0
  0
LINE
  5
121
330
2F
100
AcDbEntity
  8
A-DETL-GENF
370
13
100
AcDbLine
 10
162.1600000000293
 20
632.8600000000145
 30
0.0
 11
119.5599999999997
 21
611.5899999999999
 31
0.0
  0
LINE
  5
122
330
2F
100
AcDbEntity
  8
A-DETL-GENF
370
13
100
AcDbLine
 10
119.5599999999998
 20
611.5899999999999
 30
0.0
 11
71.63000000000007
 21
598.3
 31
0.0
  0
LINE
  5
123
330
2F
100
AcDbEntity
  8
A-DETL-GENF
370
13
100
AcDbLine
 10
71.63
 20
598.3
 30
0.0
 11
34.35000000000002
 21
574.3599999999999
 31
0.0
  0
LINE
  5
124
330
2F
100
AcDbEntity
  8
A-DETL-GENF
370
13
100
AcDbLine
 10
34.35000000000001
 20
574.3599999999999
 30
0.0
 11
2.390000000000046
 21
542.4499999999999
 31
0.0
  0
LINE
  5
125
330
2F
100
AcDbEntity
  8
A-DETL-GENF
370
13
100
AcDbLine
 10
2.39000000000005
 20
542.4499999999999
 30
0.0
 11
7.720000000000116
 21
497.2499999999993
 31
0.0
  0
LINE
  5
126
330
2F
100
AcDbEntity
  8
A-DETL-GENF
370
13
100
AcDbLine
 10
7.720000000000043
 20
497.2499999999999
 30
0.0
 11
18.37000000000002
 21
449.39
 31
0.0
  0
LINE
  5
127
330
2F
100
AcDbEntity
  8
A-DETL-GENF
370
13
100
AcDbLine
 10
7.720000000000043
 20
497.2499999999999
 30
0.0
 11
55.65000000000005
 21
467.9999999999999
 31
0.0
  0
LINE
  5
128
330
2F
100
AcDbEntity
  8
A-DETL-GENF
370
13
100
AcDbLine
 10
55.65000000000005
 20
467.9999999999999
 30
0.0
 11
52.99000000000004
 21
436.0899999999999
 31
0.0
  0
LINE
  5
129
330
2F
100
AcDbEntity
  8
A-DETL-GENF
370
13
100
AcDbLine
 10
52.99000000000004
 20
436.0899999999999
 30
0.0
 11
29.02000000000001
 21
417.4799999999999
 31
0.0
  0
LINE
  5
12A
330
2F
100
AcDbEntity
  8
A-DETL-GENF
370
13
100
AcDbLine
 10
29.02000000000012
 20
417.48
 30
0.0
 11
87.60000000000015
 21
449.39
 31
0.0
  0
LINE
  5
12B
330
2F
100
AcDbEntity
  8
A-DETL-GENF
370
13
100
AcDbLine
 10
87.59999999999997
 20
449.3899999999999
 30
0.0
 11
146.19
 21
489.2699999999999
 31
0.0
  0
LINE
  5
12C
330
2F
100
AcDbEntity
  8
A-DETL-GENF
370
13
100
AcDbLine
 10
146.1900000000002
 20
489.27
 30
0.0
 11
191.4500000000002
 21
534.4800000000001
 31
0.0
  0
LINE
  5
12D
330
2F
100
AcDbEntity
  8
A-DETL-GENF
370
13
100
AcDbLine
 10
191.4500000000002
 20
534.4800000000001
 30
0.0
 11
220.7400000000003
 21
553.0900000000001
 31
0.0
  0
LINE
  5
12E
330
2F
100
AcDbEntity
  8
A-DETL-GENF
370
13
100
AcDbLine
 10
220.7400000000004
 20
553.0900000000001
 30
0.0
 11
252.7000000000001
 21
579.68
 31
0.0
  0
LINE
  5
12F
330
2F
100
AcDbEntity
  8
A-DETL-GENF
370
13
100
AcDbLine
 10
275.3371395621233
 20
670.0865792725784
 30
0.0
 11
308.6200000000001
 21
654.14
 31
0.0
  0
LINE
  5
130
330
2F
100
AcDbEntity
  8
A-DETL-GENF
370
13
100
AcDbLine
 10
308.6200000000001
 20
654.14
 30
0.0
 11
321.9300000000001
 21
622.23
 31
0.0
  0
LINE
  5
131
330
2F
100
AcDbEntity
  8
A-DETL-GENF
370
13
100
AcDbLine
 10
321.9300000000001
 20
622.23
 30
0.0
 11
329.9200000000001
 21
608.93
 31
0.0
  0
LINE
  5
132
330
2F
100
AcDbEntity
  8
A-DETL-GENF
370
13
100
AcDbLine
 10
55.65000000000005
 20
467.9999999999999
 30
0.0
 11
50.32000000000006
 21
497.2499999999999
 31
0.0
  0
LINE
  5
133
330
2F
100
AcDbEntity
  8
A-DETL-GENF
370
13
100
AcDbLine
 10
50.32000000000006
 20
497.2499999999999
 30
0.0
 11
87.60000000000005
 21
547.7699999999999
 31
0.0
  0
LINE
  5
134
330
2F
100
AcDbEntity
  8
A-DETL-GENF
370
13
100
AcDbLine
 10
87.60000000000005
 20
547.7699999999999
 30
0.0
 11
106.24
 21
550.43
 31
0.0
  0
LINE
  5
135
330
2F
100
AcDbEntity
  8
A-DETL-GENF
370
13
100
AcDbLine
 10
106.24
 20
550.43
 30
0.0
 11
156.84
 21
582.3399999999999
 31
0.0
  0
LINE
  5
136
330
2F
100
AcDbEntity
  8
A-DETL-GENF
370
13
100
AcDbLine
 10
156.8400000000004
 20
582.34
 30
0.0
 11
204.7700000000002
 21
600.9499999999999
 31
0.0
  0
LINE
  5
137
330
2F
100
AcDbEntity
  8
A-DETL-GENF
370
13
100
AcDbLine
 10
204.7700000000001
 20
600.9499999999998
 30
0.0
 11
228.7299999999994
 21
622.2299999999993
 31
0.0
  0
LINE
  5
138
330
2F
100
AcDbEntity
  8
A-DETL-GENF
370
13
100
AcDbLine
 10
228.7299999999984
 20
622.2299999999982
 30
0.0
 11
250.0400000000001
 21
643.5
 31
0.0
  0
LINE
  5
139
330
2F
100
AcDbEntity
  8
A-DETL-GENF
370
13
100
AcDbLine
 10
250.0400000000001
 20
643.5
 30
0.0
 11
260.6900000000001
 21
664.77
 31
0.0
  0
LINE
  5
13A
330
2F
100
AcDbEntity
  8
A-DETL-GENF
370
13
100
AcDbLine
 10
260.6900000000001
 20
664.77
 30
0.0
 11
276.0800000000001
 21
637.69
 31
0.0
  0
LINE
  5
13B
330
2F
100
AcDbEntity
  8
A-DETL-GENF
370
13
100
AcDbLine
 10
276.0800000000001
 20
637.69
 30
0.0
 11
276.0800000000001
 21
616.6489389671361
 31
0.0
  0
LINE
  5
13C
330
2F
100
AcDbEntity
  8
A-DETL-GENF
370
13
100
AcDbLine
 10
127.55
 20
717.95
 30
0.0
 11
111.57
 21
680.73
 31
0.0
  0
LINE
  5
13D
330
2F
100
AcDbEntity
  8
A-DETL-GENF
370
13
100
AcDbLine
 10
111.57
 20
680.73
 30
0.0
 11
100.92
 21
632.86
 31
0.0
  0
LINE
  5
13E
330
2F
100
AcDbEntity
  8
A-DETL-GENF
370
13
100
AcDbLine
 10
100.92
 20
632.86
 30
0.0
 11
74.29000000000003
 21
595.64
 31
0.0
  0
LINE
  5
13F
330
2F
100
AcDbEntity
  8
A-DETL-GENF
370
13
100
AcDbLine
 10
74.29000000000006
 20
595.64
 30
0.0
 11
76.95000000000005
 21
577.0199999999999
 31
0.0
  0
LINE
  5
140
330
2F
100
AcDbEntity
  8
A-DETL-GENF
370
13
100
AcDbLine
 10
138.2
 20
696.68
 30
0.0
 11
135.53
 21
648.8200000000002
 31
0.0
  0
LINE
  5
141
330
2F
100
AcDbEntity
  8
A-DETL-GENF
370
13
100
AcDbLine
 10
135.53
 20
648.8200000000004
 30
0.0
 11
138.2000000000001
 21
598.3
 31
0.0
  0
LINE
  5
142
330
2F
100
AcDbEntity
  8
A-DETL-GENF
370
13
100
AcDbLine
 10
138.2
 20
598.3
 30
0.0
 11
124.88
 21
555.7499999999999
 31
0.0
  0
LINE
  5
143
330
2F
100
AcDbEntity
  8
A-DETL-GENF
370
13
100
AcDbLine
 10
124.88
 20
555.7499999999999
 30
0.0
 11
127.5500000000018
 21
518.5199999999747
 31
0.0
  0
LINE
  5
144
330
2F
100
AcDbEntity
  8
A-DETL-GENF
370
13
100
AcDbLine
 10
127.5499999999973
 20
518.5200000000439
 30
0.0
 11
130.21
 21
475.9800000000007
 31
0.0
  0
LINE
  5
145
330
2F
100
AcDbEntity
  8
A-DETL-GENF
370
13
100
AcDbLine
 10
130.2100000000001
 20
475.9800000000011
 30
0.0
 11
129.64
 21
459.7799999999999
 31
0.0
  0
LINE
  5
146
330
2F
100
AcDbEntity
  8
A-DETL-GENF
370
13
100
AcDbLine
 10
196.7800000000001
 20
707.3199999999999
 30
0.0
 11
218.0800000000001
 21
691.3599999999998
 31
0.0
  0
LINE
  5
147
330
2F
100
AcDbEntity
  8
A-DETL-GENF
370
13
100
AcDbLine
 10
218.0800000000001
 20
691.3599999999998
 30
0.0
 11
220.7400000000001
 21
654.14
 31
0.0
  0
LINE
  5
148
330
2F
100
AcDbEntity
  8
A-DETL-GENF
370
13
100
AcDbLine
 10
220.7400000000001
 20
654.14
 30
0.0
 11
215.4200000000001
 21
611.59
 31
0.0
  0
LINE
  5
149
330
2F
100
AcDbEntity
  8
A-DETL-GENF
370
13
100
AcDbLine
 10
215.4200000000001
 20
611.59
 30
0.0
 11
231.4
 21
569.0500000000001
 31
0.0
  0
LINE
  5
14A
330
2F
100
AcDbEntity
  8
A-DETL-GENF
370
13
100
AcDbLine
 10
231.4000000000001
 20
569.0499999999997
 30
0.0
 11
236.7200000000001
 21
542.4499999999999
 31
0.0
  0
LINE
  5
14B
330
2F
100
AcDbEntity
  8
A-DETL-GENF
370
13
100
AcDbLine
 10
140.86
 20
771.14
 30
0.0
 11
135.53
 21
752.5199999999999
 31
0.0
  0
LINE
  5
14C
330
2F
100
AcDbEntity
  8
A-DETL-GENF
370
13
100
AcDbLine
 10
236.7200000000001
 20
446.73
 30
0.0
 11
204.7700000000001
 21
358.98
 31
0.0
  0
LINE
  5
14D
330
2F
100
AcDbEntity
  8
A-DETL-GENF
370
13
100
AcDbLine
 10
204.7700000000001
 20
358.98
 30
0.0
 11
228.7300000000001
 21
295.16
 31
0.0
  0
LINE
  5
14E
330
2F
100
AcDbEntity
  8
A-DETL-GENF
370
13
100
AcDbLine
 10
228.7300000000001
 20
295.1600000000001
 30
0.0
 11
215.4200000000001
 21
241.98
 31
0.0
  0
LINE
  5
14F
330
2F
100
AcDbEntity
  8
A-DETL-GENF
370
13
100
AcDbLine
 10
103.58
 20
377.59
 30
0.0
 11
79.61000000000004
 21
327.07
 31
0.0
  0
LINE
  5
150
330
2F
100
AcDbEntity
  8
A-DETL-GENF
370
13
100
AcDbLine
 10
79.61000000000004
 20
327.07
 30
0.0
 11
106.24
 21
260.5900000000002
 31
0.0
  0
LINE
  5
151
330
2F
100
AcDbEntity
  8
A-DETL-GENF
370
13
100
AcDbLine
 10
106.24
 20
260.5900000000001
 30
0.0
 11
103.58
 21
202.09
 31
0.0
  0
LINE
  5
152
330
2F
100
AcDbEntity
  8
A-DETL-GENF
370
13
100
AcDbLine
 10
-104.1199999999999
 20
888.1400000000001
 30
0.0
 11
-77.49000000000012
 21
811.0200000000007
 31
0.0
  0
LINE
  5
153
330
2F
100
AcDbEntity
  8
A-DETL-GENF
370
13
100
AcDbLine
 10
-77.48999999999977
 20
811.0199999999993
 30
0.0
 11
-66.84
 21
752.5200000000002
 31
0.0
  0
LINE
  5
154
330
2F
100
AcDbEntity
  8
A-DETL-GENF
370
13
100
AcDbLine
 10
-66.83999999999996
 20
752.5199999999999
 30
0.0
 11
-40.20999999999995
 21
694.0199999999999
 31
0.0
  0
LINE
  5
155
330
2F
100
AcDbEntity
  8
A-DETL-GENF
370
13
100
AcDbLine
 10
-40.20999999999987
 20
694.0199999999999
 30
0.0
 11
13.04000000000005
 21
619.57
 31
0.0
  0
LINE
  5
156
330
2F
100
AcDbEntity
  8
A-DETL-GENF
370
13
100
AcDbLine
 10
13.04000000000004
 20
619.57
 30
0.0
 11
7.720000000000074
 21
571.7000000000003
 31
0.0
  0
LINE
  5
157
330
2F
100
AcDbEntity
  8
A-DETL-GENF
370
13
100
AcDbLine
 10
7.719999999999815
 20
571.6999999999988
 30
0.0
 11
2.070000000000042
 21
541.7799999999999
 31
0.0
  0
LINE
  5
158
330
2F
100
AcDbEntity
  8
A-DETL-GENF
370
13
100
AcDbLine
 10
-173.36
 20
164.86
 30
0.0
 11
-157.3799999999999
 21
148.91
 31
0.0
  0
LINE
  5
159
330
2F
100
AcDbEntity
  8
A-DETL-GENF
370
13
100
AcDbLine
 10
-157.3799999999999
 20
148.91
 30
0.0
 11
-197.3199999999999
 21
143.59
 31
0.0
  0
LINE
  5
15A
330
2F
100
AcDbEntity
  8
A-DETL-GENF
370
13
100
AcDbLine
 10
-197.3199999999999
 20
143.59
 30
0.0
 11
-237.2599999999999
 21
138.27
 31
0.0
  0
LINE
  5
15B
330
2F
100
AcDbEntity
  8
A-DETL-GENF
370
13
100
AcDbLine
 10
-237.2600000000001
 20
138.27
 30
0.0
 11
-258.5699999999999
 21
124.98
 31
0.0
  0
LINE
  5
15C
330
2F
100
AcDbEntity
  8
A-DETL-GENF
370
13
100
AcDbLine
 10
-258.5699999999999
 20
124.98
 30
0.0
 11
-263.8899999999999
 21
95.73000000000002
 31
0.0
  0
LINE
  5
15D
330
2F
100
AcDbEntity
  8
A-DETL-GENF
370
13
100
AcDbLine
 10
-263.8899999999999
 20
95.73000000000002
 30
0.0
 11
-239.93
 21
85.09000000000005
 31
0.0
  0
LINE
  5
15E
330
2F
100
AcDbEntity
  8
A-DETL-GENF
370
13
100
AcDbLine
 10
-239.93
 20
85.09000000000002
 30
0.0
 11
-191.9999999999999
 21
77.11
 31
0.0
  0
LINE
  5
15F
330
2F
100
AcDbEntity
  8
A-DETL-GENF
370
13
100
AcDbLine
 10
-191.9999999999999
 20
77.11
 30
0.0
 11
-144.0599999999999
 21
82.43
 31
0.0
  0
LINE
  5
160
330
2F
100
AcDbEntity
  8
A-DETL-GENF
370
13
100
AcDbLine
 10
-144.0599999999999
 20
82.43
 30
0.0
 11
-120.0999999999999
 21
93.07
 31
0.0
  0
LINE
  5
161
330
2F
100
AcDbEntity
  8
A-DETL-GENF
370
13
100
AcDbLine
 10
-120.0999999999999
 20
93.07
 30
0.0
 11
-106.7799999999999
 21
85.09000000000002
 31
0.0
  0
LINE
  5
162
330
2F
100
AcDbEntity
  8
A-DETL-GENF
370
13
100
AcDbLine
 10
-106.7799999999999
 20
85.09000000000002
 30
0.0
 11
-77.48999999999994
 21
85.09000000000002
 31
0.0
  0
LINE
  5
163
330
2F
100
AcDbEntity
  8
A-DETL-GENF
370
13
100
AcDbLine
 10
-77.48999999999994
 20
85.09000000000002
 30
0.0
 11
-45.53999999999994
 21
82.43
 31
0.0
  0
LINE
  5
164
330
2F
100
AcDbEntity
  8
A-DETL-GENF
370
13
100
AcDbLine
 10
-45.53999999999994
 20
82.43
 30
0.0
 11
-40.20999999999996
 21
90.41
 31
0.0
  0
LINE
  5
165
330
2F
100
AcDbEntity
  8
A-DETL-GENF
370
13
100
AcDbLine
 10
58.31000000000003
 20
98.39
 30
0.0
 11
45.00000000000005
 21
69.14000000000001
 31
0.0
  0
LINE
  5
166
330
2F
100
AcDbEntity
  8
A-DETL-GENF
370
13
100
AcDbLine
 10
45.00000000000002
 20
69.14
 30
0.0
 11
13.04000000000007
 21
42.55000000000004
 31
0.0
  0
LINE
  5
167
330
2F
100
AcDbEntity
  8
A-DETL-GENF
370
13
100
AcDbLine
 10
13.04000000000004
 20
42.55000000000001
 30
0.0
 11
7.72000000000004
 21
26.58999999999999
 31
0.0
  0
LINE
  5
168
330
2F
100
AcDbEntity
  8
A-DETL-GENF
370
13
100
AcDbLine
 10
7.720000000000043
 20
26.59
 30
0.0
 11
10.38000000000004
 21
2.659999999999998
 31
0.0
  0
LINE
  5
169
330
2F
100
AcDbEntity
  8
A-DETL-GENF
370
13
100
AcDbLine
 10
10.38000000000004
 20
2.66
 30
0.0
 11
45.00000000000005
 21
0.0
 31
0.0
  0
LINE
  5
16A
330
2F
100
AcDbEntity
  8
A-DETL-GENF
370
13
100
AcDbLine
 10
45.00000000000002
 20
-1.4e-15
 30
0.0
 11
76.94999999997907
 21
2.659999999998254
 31
0.0
  0
LINE
  5
16B
330
2F
100
AcDbEntity
  8
A-DETL-GENF
370
13
100
AcDbLine
 10
76.94999999998291
 20
2.659999999998288
 30
0.0
 11
103.58
 21
5.320000000000001
 31
0.0
  0
LINE
  5
16C
330
2F
100
AcDbEntity
  8
A-DETL-GENF
370
13
100
AcDbLine
 10
103.58
 20
5.32
 30
0.0
 11
119.56
 21
18.60999999999999
 31
0.0
  0
LINE
  5
16D
330
2F
100
AcDbEntity
  8
A-DETL-GENF
370
13
100
AcDbLine
 10
116.89
 20
1058.32
 30
0.0
 11
95.59000000000002
 21
1042.36
 31
0.0
  0
LINE
  5
16E
330
2F
100
AcDbEntity
  8
A-DETL-GENF
370
13
100
AcDbLine
 10
95.59
 20
1042.36
 30
0.0
 11
66.30000000000005
 21
1034.39
 31
0.0
  0
LINE
  5
16F
330
2F
100
AcDbEntity
  8
A-DETL-GENF
370
13
100
AcDbLine
 10
66.30000000000005
 20
1034.39
 30
0.0
 11
63.64000000000004
 21
999.82
 31
0.0
  0
LINE
  5
170
330
2F
100
AcDbEntity
  8
A-DETL-GENF
370
13
100
AcDbLine
 10
63.64000000000004
 20
999.82
 30
0.0
 11
84.94000000000005
 21
978.55
 31
0.0
  0
LINE
  5
171
330
2F
100
AcDbEntity
  8
A-DETL-GENF
370
13
100
AcDbLine
 10
84.94000000000005
 20
978.55
 30
0.0
 11
113.95
 21
983.06
 31
0.0
  0
LINE
  5
172
330
2F
100
AcDbEntity
  8
A-DETL-GENF
370
13
100
AcDbLine
 10
130.21
 20
61.16
 30
0.0
 11
166.2500000000001
 21
62.09
 31
0.0
  0
LINE
  5
173
330
2F
100
AcDbEntity
  8
A-DETL-GENF
370
13
100
AcDbLine
 10
166.2500000000001
 20
62.09
 30
0.0
 11
195.01
 21
69.94000000000001
 31
0.0
  0
LINE
  5
174
330
2F
100
AcDbEntity
  8
A-DETL-GENF
370
13
100
AcDbLine
 10
29.02703177434748
 20
55.85085027784414
 30
0.0
 11
59.04000000000004
 21
59.48
 31
0.0
  0
LINE
  5
175
330
2F
100
AcDbEntity
  8
A-DETL-GENF
370
13
100
AcDbLine
 10
59.04000000000006
 20
59.48
 30
0.0
 11
90.42000000000012
 21
46.38999999999998
 31
0.0
  0
LINE
  5
176
330
2F
100
AcDbEntity
  8
A-DETL-GENF
370
13
100
AcDbLine
 10
90.42000000000004
 20
46.39000000000002
 30
0.0
 11
100.88
 21
35.93
 31
0.0
  0
LINE
  5
177
330
2F
100
AcDbEntity
  8
A-DETL-GENF
370
13
100
AcDbLine
 10
-82.16999999999996
 20
512.11
 30
0.0
 11
-79.55999999999995
 21
451.93
 31
0.0
  0
LINE
  5
178
330
2F
100
AcDbEntity
  8
A-DETL-GENF
370
13
100
AcDbLine
 10
-79.56000000000004
 20
451.9300000000003
 30
0.0
 11
-61.24999999999993
 21
370.8199999999998
 31
0.0
  0
LINE
  5
179
330
2F
100
AcDbEntity
  8
A-DETL-GENF
370
13
100
AcDbLine
 10
-61.24999999999996
 20
370.8199999999998
 30
0.0
 11
-63.86999999999996
 21
302.8000000000001
 31
0.0
  0
LINE
  5
17A
330
2F
100
AcDbEntity
  8
A-DETL-GENF
370
13
100
AcDbLine
 10
-146.7300000000003
 20
1398.679999999999
 30
0.0
 11
-118.7800000000001
 21
1448.77
 31
0.0
  0
LINE
  5
17B
330
2F
100
AcDbEntity
  8
A-DETL-GENF
370
13
100
AcDbLine
 10
-118.78
 20
1448.77
 30
0.0
 11
-103.0900000000002
 21
1503.709999999999
 31
0.0
  0
LINE
  5
17C
330
2F
100
AcDbEntity
  8
A-DETL-GENF
370
13
100
AcDbLine
 10
-103.0899999999998
 20
1503.710000000001
 30
0.0
 11
-90.01999999999992
 21
1571.74
 31
0.0
  0
LINE
  5
17D
330
2F
100
AcDbEntity
  8
A-DETL-GENF
370
13
100
AcDbLine
 10
-90.02000000000005
 20
1571.74
 30
0.0
 11
-77.48999999999994
 21
1603.43
 31
0.0
  0
LINE
  5
17E
330
2F
100
AcDbEntity
  8
A-DETL-GENF
370
13
100
AcDbLine
 10
-77.48999999999994
 20
1603.43
 30
0.0
 11
-77.48999999999994
 21
1635.34
 31
0.0
  0
LINE
  5
17F
330
2F
100
AcDbEntity
  8
A-DETL-GENF
370
13
100
AcDbLine
 10
-77.48999999999994
 20
1635.34
 30
0.0
 11
-85.47999999999998
 21
1653.95
 31
0.0
  0
LINE
  5
180
330
2F
100
AcDbEntity
  8
A-DETL-GENF
370
13
100
AcDbLine
 10
-85.47999999999998
 20
1653.95
 30
0.0
 11
-82.81999999999994
 21
1675.23
 31
0.0
  0
LINE
  5
181
330
2F
100
AcDbEntity
  8
A-DETL-GENF
370
13
100
AcDbLine
 10
-82.81999999999994
 20
1675.23
 30
0.0
 11
-98.79999999999997
 21
1683.2
 31
0.0
  0
LINE
  5
182
330
2F
100
AcDbEntity
  8
A-DETL-GENF
370
13
100
AcDbLine
 10
-98.79999999999997
 20
1683.2
 30
0.0
 11
-88.15000000000023
 21
1704.48
 31
0.0
  0
LINE
  5
183
330
2F
100
AcDbEntity
  8
A-DETL-GENF
370
13
100
AcDbLine
 10
-88.14999999999988
 20
1704.48
 30
0.0
 11
-80.15999999999995
 21
1725.75
 31
0.0
  0
LINE
  5
184
330
2F
100
AcDbEntity
  8
A-DETL-GENF
370
13
100
AcDbLine
 10
-80.15999999999995
 20
1725.75
 30
0.0
 11
-85.48
 21
1762.98
 31
0.0
  0
LINE
  5
185
330
2F
100
AcDbEntity
  8
A-DETL-GENF
370
13
100
AcDbLine
 10
-85.47999999999998
 20
1762.98
 30
0.0
 11
-69.50999999999996
 21
1802.86
 31
0.0
  0
LINE
  5
186
330
2F
100
AcDbEntity
  8
A-DETL-GENF
370
13
100
AcDbLine
 10
-69.50999999999996
 20
1802.86
 30
0.0
 11
-42.87999999999997
 21
1813.5
 31
0.0
  0
LINE
  5
187
330
2F
100
AcDbEntity
  8
A-DETL-GENF
370
13
100
AcDbLine
 10
-42.88000000000017
 20
1813.5
 30
0.0
 11
-18.90999999999995
 21
1818.82
 31
0.0
  0
LINE
  5
188
330
2F
100
AcDbEntity
  8
A-DETL-GENF
370
13
100
AcDbLine
 10
-18.90999999999995
 20
1818.82
 30
0.0
 11
-2.929999999999946
 21
1781.59
 31
0.0
  0
LINE
  5
189
330
2F
100
AcDbEntity
  8
A-DETL-GENF
370
13
100
AcDbLine
 10
-2.929999999999946
 20
1781.59
 30
0.0
 11
-18.90999999999996
 21
1757.66
 31
0.0
  0
LINE
  5
18A
330
2F
100
AcDbEntity
  8
A-DETL-GENF
370
13
100
AcDbLine
 10
-18.90999999999995
 20
1757.66
 30
0.0
 11
-24.23999999999996
 21
1731.07
 31
0.0
  0
LINE
  5
18B
330
2F
100
AcDbEntity
  8
A-DETL-GENF
370
13
100
AcDbLine
 10
-24.23999999999996
 20
1731.07
 30
0.0
 11
-50.86999999999996
 21
1696.5
 31
0.0
  0
LINE
  5
18C
330
2F
100
AcDbEntity
  8
A-DETL-GENF
370
13
100
AcDbLine
 10
-50.86999999999996
 20
1696.5
 30
0.0
 11
-16.24999999999996
 21
1680.55
 31
0.0
  0
LINE
  5
18D
330
2F
100
AcDbEntity
  8
A-DETL-GENF
370
13
100
AcDbLine
 10
-16.24999999999996
 20
1680.55
 30
0.0
 11
-10.91999999999996
 21
1653.95
 31
0.0
  0
LINE
  5
18E
330
2F
100
AcDbEntity
  8
A-DETL-GENF
370
13
100
AcDbLine
 10
-10.91999999999996
 20
1653.95
 30
0.0
 11
2.390000000000052
 21
1675.23
 31
0.0
  0
LINE
  5
18F
330
2F
100
AcDbEntity
  8
A-DETL-GENF
370
13
100
AcDbLine
 10
2.390000000000046
 20
1675.23
 30
0.0
 11
23.69000000000005
 21
1672.569999999999
 31
0.0
  0
LINE
  5
190
330
2F
100
AcDbEntity
  8
A-DETL-GENF
370
13
100
AcDbLine
 10
23.69000000000005
 20
1672.569999999999
 30
0.0
 11
31.68000000000005
 21
1645.98
 31
0.0
  0
LINE
  5
191
330
2F
100
AcDbEntity
  8
A-DETL-GENF
370
13
100
AcDbLine
 10
31.68000000000005
 20
1645.98
 30
0.0
 11
15.71000000000005
 21
1624.7
 31
0.0
  0
LINE
  5
192
330
2F
100
AcDbEntity
  8
A-DETL-GENF
370
13
100
AcDbLine
 10
15.71000000000006
 20
1624.7
 30
0.0
 11
-0.2699999999999606
 21
1619.39
 31
0.0
  0
LINE
  5
193
330
2F
100
AcDbEntity
  8
A-DETL-GENF
370
13
100
AcDbLine
 10
-0.2699999999999556
 20
1619.39
 30
0.0
 11
-16.00999999999994
 21
1627.41
 31
0.0
  0
LINE
  5
194
330
2F
100
AcDbEntity
  8
A-DETL-GENF
370
13
100
AcDbLine
 10
-71.70999999999995
 20
1488.02
 30
0.0
 11
-40.32999999999995
 21
1493.25
 31
0.0
  0
LINE
  5
195
330
2F
100
AcDbEntity
  8
A-DETL-GENF
370
13
100
AcDbLine
 10
-66.47999999999996
 20
1467.09
 30
0.0
 11
-42.94999999999995
 21
1464.47
 31
0.0
  0
LINE
  5
196
330
2F
100
AcDbEntity
  8
A-DETL-GENF
370
13
100
AcDbLine
 10
-79.55999999999995
 20
1435.69
 30
0.0
 11
-63.86999999999996
 21
1433.07
 31
0.0
  0
LINE
  5
197
330
2F
100
AcDbEntity
  8
A-DETL-GENF
370
13
100
AcDbLine
 10
-84.78999999999996
 20
1391.21
 30
0.0
 11
-63.86999999999996
 21
1391.21
 31
0.0
  0
LINE
  5
198
330
2F
100
AcDbEntity
  8
A-DETL-GENF
370
13
100
AcDbLine
 10
-95.24999999999996
 20
1351.96
 30
0.0
 11
-82.16999999999996
 21
1349.35
 31
0.0
  0
LINE
  5
199
330
2F
100
AcDbEntity
  8
A-DETL-GENF
370
13
100
AcDbLine
 10
-103.0899999999999
 20
1323.18
 30
0.0
 11
-90.01999999999997
 21
1317.95
 31
0.0
  0
LINE
  5
19A
330
2F
100
AcDbEntity
  8
A-DETL-GENF
370
13
100
AcDbLine
 10
-113.5499999999999
 20
1278.71
 30
0.0
 11
-100.4799999999999
 21
1273.47
 31
0.0
  0
LINE
  5
19B
330
2F
100
AcDbEntity
  8
A-DETL-GENF
370
13
100
AcDbLine
 10
-118.7799999999999
 20
1247.31
 30
0.0
 11
-100.4799999999999
 21
1234.23
 31
0.0
  0
LINE
  5
19C
330
2F
100
AcDbEntity
  8
A-DETL-GENF
370
13
100
AcDbLine
 10
-126.6299999999999
 20
1210.68
 30
0.0
 11
-105.7099999999999
 21
1202.83
 31
0.0
  0
LINE
  5
19D
330
2F
100
AcDbEntity
  8
A-DETL-GENF
370
13
100
AcDbLine
 10
-380.28
 20
1553.43
 30
0.0
 11
-367.2
 21
1545.58
 31
0.0
  0
LINE
  5
19E
330
2F
100
AcDbEntity
  8
A-DETL-GENF
370
13
100
AcDbLine
 10
-356.74
 20
1532.49
 30
0.0
 11
-346.28
 21
1522.03
 31
0.0
  0
LINE
  5
19F
330
2F
100
AcDbEntity
  8
A-DETL-GENF
370
13
100
AcDbLine
 10
208.0900000000001
 20
867.94
 30
0.0
 11
208.0900000000001
 21
852.2400000000001
 31
0.0
  0
LINE
  5
1A0
330
2F
100
AcDbEntity
  8
A-DETL-GENF
370
13
100
AcDbLine
 10
254.0296453646741
 20
1099.540318196674
 30
0.0
 11
226.3900000000001
 21
1124.34
 31
0.0
  0
LINE
  5
1A1
330
2F
100
AcDbEntity
  8
A-DETL-GENF
370
13
100
AcDbLine
 10
221.1600000000001
 20
1302.25
 30
0.0
 11
189.7800000000001
 21
1328.42
 31
0.0
  0
LINE
  5
1A2
330
2F
100
AcDbEntity
  8
A-DETL-GENF
370
13
100
AcDbLine
 10
35.50000000000005
 20
844.3900000000001
 30
0.0
 11
53.81000000000006
 21
786.83
 31
0.0
  0
LINE
  5
1A3
330
2F
100
AcDbEntity
  8
A-DETL-GENF
370
13
100
AcDbLine
 10
53.81000000000006
 20
786.83
 30
0.0
 11
56.42000000000004
 21
726.6499999999999
 31
0.0
  0
LINE
  5
1A4
330
2F
100
AcDbEntity
  8
A-DETL-GENF
370
13
100
AcDbLine
 10
-8.259999999999948
 20
175.5
 30
0.0
 11
-19.40999999999995
 21
229.54
 31
0.0
  0
LINE
  5
1A5
330
2F
100
AcDbEntity
  8
A-DETL-GENF
370
13
100
AcDbLine
 10
-35.09999999999997
 20
1038.0
 30
0.0
 11
-19.40999999999996
 21
1038.0
 31
0.0
  0
LINE
  5
1A6
330
2F
100
AcDbEntity
  8
A-DETL-GENF
370
13
100
AcDbLine
 10
178.14
 20
717.95
 30
0.0
 11
197.63
 21
695.25
 31
0.0
  0
LINE
  5
1A7
330
2F
100
AcDbEntity
  8
A-DETL-GENF
370
13
100
AcDbLine
 10
197.6300000000001
 20
695.25
 30
0.0
 11
208.0900000000001
 21
663.86
 31
0.0
  0
LINE
  5
1A8
330
2F
100
AcDbEntity
  8
A-DETL-GENF
370
13
100
AcDbLine
 10
208.0900000000001
 20
663.86
 30
0.0
 11
208.0900000000001
 21
653.39
 31
0.0
  0
LINE
  5
1A9
330
2F
100
AcDbEntity
  8
A-DETL-GENF
370
13
100
AcDbLine
 10
-77.48999999999994
 20
1635.34
 30
0.0
 11
-57.02999999999995
 21
1633.27
 31
0.0
  0
LINE
  5
1AA
330
2F
100
AcDbEntity
  8
A-DETL-GENF
370
13
100
AcDbLine
 10
-57.02999999999995
 20
1633.27
 30
0.0
 11
-49.48999999999997
 21
1638.3
 31
0.0
  0
ENDBLK
  5
31
330
2F
100
AcDbEntity
  8
0
100
AcDbBlockEnd
  0
ENDSEC
  0
SECTION
  2
ENTITIES
  0
INSERT
  5
1AC
330
17
100
AcDbEntity
  8
0
100
AcDbBlockReference
  2
90 man_wijzend - Type 1-3640640-00_0 Basismaterialen
 10
0.0
 20
0.0
 30
0.0
  0
ENDSEC
  0
SECTION
  2
OBJECTS
  0
DICTIONARY
  5
A
330
0
100
AcDbDictionary
281
1
  3
ACAD_COLOR
350
B
  3
ACAD_GROUP
350
C
  3
ACAD_LAYOUT
350
D
  3
ACAD_MATERIAL
350
E
  3
ACAD_MLEADERSTYLE
350
F
  3
ACAD_MLINESTYLE
350
10
  3
ACAD_PLOTSETTINGS
350
11
  3
ACAD_PLOTSTYLENAME
350
12
  3
ACAD_SCALELIST
350
14
  3
ACAD_TABLESTYLE
350
15
  3
ACAD_VISUALSTYLE
350
16
  3
EZDXF_META
350
2D
  0
DICTIONARY
  5
B
330
A
100
AcDbDictionary
281
1
  0
DICTIONARY
  5
C
330
A
100
AcDbDictionary
281
1
  0
DICTIONARY
  5
D
330
A
100
AcDbDictionary
281
1
  3
Model
350
1A
  3
Layout1
350
1E
  0
DICTIONARY
  5
E
330
A
100
AcDbDictionary
281
1
  3
ByBlock
350
1F
  3
ByLayer
350
20
  3
Global
350
21
  0
DICTIONARY
  5
F
330
A
100
AcDbDictionary
281
1
  3
Standard
350
2C
  0
DICTIONARY
  5
10
330
A
100
AcDbDictionary
281
1
  3
Standard
350
22
  0
DICTIONARY
  5
11
330
A
100
AcDbDictionary
281
1
  0
ACDBDICTIONARYWDFLT
  5
12
330
A
100
AcDbDictionary
281
1
  3
Normal
350
13
100
AcDbDictionaryWithDefault
340
13
  0
ACDBPLACEHOLDER
  5
13
330
12
  0
DICTIONARY
  5
14
330
A
100
AcDbDictionary
281
1
  0
DICTIONARY
  5
15
330
A
100
AcDbDictionary
281
1
  0
DICTIONARY
  5
16
330
A
100
AcDbDictionary
281
1
  0
LAYOUT
  5
1A
330
D
100
AcDbPlotSettings
  1

  4
A3
  6

 40
7.5
 41
20.0
 42
7.5
 43
20.0
 44
420.0
 45
297.0
 46
0.0
 47
0.0
 48
0.0
 49
0.0
140
0.0
141
0.0
142
1.0
143
1.0
 70
1024
 72
1
 73
0
 74
5
  7

 75
16
 76
0
 77
2
 78
300
147
1.0
148
0.0
149
0.0
100
AcDbLayout
  1
Model
 70
1
 71
0
 10
0.0
 20
0.0
 11
420.0
 21
297.0
 12
0.0
 22
0.0
 32
0.0
 14
1e+20
 24
1e+20
 34
1e+20
 15
-1e+20
 25
-1e+20
 35
-1e+20
146
0.0
 13
0.0
 23
0.0
 33
0.0
 16
1.0
 26
0.0
 36
0.0
 17
0.0
 27
1.0
 37
0.0
 76
1
330
17
  0
LAYOUT
  5
1E
330
D
100
AcDbPlotSettings
  1

  4
A3
  6

 40
7.5
 41
20.0
 42
7.5
 43
20.0
 44
420.0
 45
297.0
 46
0.0
 47
0.0
 48
0.0
 49
0.0
140
0.0
141
0.0
142
1.0
143
1.0
 70
0
 72
1
 73
0
 74
5
  7

 75
16
 76
0
 77
2
 78
300
147
1.0
148
0.0
149
0.0
100
AcDbLayout
  1
Layout1
 70
1
 71
1
 10
0.0
 20
0.0
 11
420.0
 21
297.0
 12
0.0
 22
0.0
 32
0.0
 14
1e+20
 24
1e+20
 34
1e+20
 15
-1e+20
 25
-1e+20
 35
-1e+20
146
0.0
 13
0.0
 23
0.0
 33
0.0
 16
1.0
 26
0.0
 36
0.0
 17
0.0
 27
1.0
 37
0.0
 76
1
330
1B
  0
MATERIAL
  5
1F
102
{ACAD_REACTORS
330
E
102
}
330
E
100
AcDbMaterial
  1
ByBlock
  2

 70
0
 40
1.0
 71
1
 41
1.0
 91
-1023410177
 42
1.0
 72
1
  3

 73
1
 74
1
 75
1
 44
0.5
 73
0
 45
1.0
 46
1.0
 77
1
  4

 78
1
 79
1
170
1
 48
1.0
171
1
  6

172
1
173
1
174
1
140
1.0
141
1.0
175
1
  7

176
1
177
1
178
1
143
1.0
179
1
  8

270
1
271
1
272
1
145
1.0
146
1.0
273
1
  9

274
1
275
1
276
1
 42
1.0
 72
1
  3

 73
1
 74
1
 75
1
 94
63
  0
MATERIAL
  5
20
102
{ACAD_REACTORS
330
E
102
}
330
E
100
AcDbMaterial
  1
ByLayer
  2

 70
0
 40
1.0
 71
1
 41
1.0
 91
-1023410177
 42
1.0
 72
1
  3

 73
1
 74
1
 75
1
 44
0.5
 73
0
 45
1.0
 46
1.0
 77
1
  4

 78
1
 79
1
170
1
 48
1.0
171
1
  6

172
1
173
1
174
1
140
1.0
141
1.0
175
1
  7

176
1
177
1
178
1
143
1.0
179
1
  8

270
1
271
1
272
1
145
1.0
146
1.0
273
1
  9

274
1
275
1
276
1
 42
1.0
 72
1
  3

 73
1
 74
1
 75
1
 94
63
  0
MATERIAL
  5
21
102
{ACAD_REACTORS
330
E
102
}
330
E
100
AcDbMaterial
  1
Global
  2

 70
0
 40
1.0
 71
1
 41
1.0
 91
-1023410177
 42
1.0
 72
1
  3

 73
1
 74
1
 75
1
 44
0.5
 73
0
 45
1.0
 46
1.0
 77
1
  4

 78
1
 79
1
170
1
 48
1.0
171
1
  6

172
1
173
1
174
1
140
1.0
141
1.0
175
1
  7

176
1
177
1
178
1
143
1.0
179
1
  8

270
1
271
1
272
1
145
1.0
146
1.0
273
1
  9

274
1
275
1
276
1
 42
1.0
 72
1
  3

 73
1
 74
1
 75
1
 94
63
  0
MLINESTYLE
  5
22
102
{ACAD_REACTORS
330
10
102
}
330
10
100
AcDbMlineStyle
  2
Standard
 70
0
  3

 62
256
 51
90.0
 52
90.0
 71
2
 49
0.5
 62
256
  6
BYLAYER
 49
-0.5
 62
256
  6
BYLAYER
  0
MLEADERSTYLE
  5
2C
102
{ACAD_REACTORS
330
F
102
}
330
F
100
AcDbMLeaderStyle
179
2
170
2
171
1
172
0
 90
2
 40
0.0
 41
0.0
173
1
 91
-1056964608
 92
-2
290
1
 42
2.0
291
1
 43
8.0
  3
Standard
 44
4.0
300

342
29
174
1
175
1
176
0
178
1
 93
-1056964608
 45
4.0
292
0
297
0
 46
4.0
 94
-1056964608
 47
1.0
 49
1.0
140
1.0
294
1
141
0.0
177
0
142
1.0
295
0
296
0
143
3.75
271
0
272
9
273
9
  0
DICTIONARY
  5
2D
330
A
100
AcDbDictionary
280
1
281
1
  3
CREATED_BY_EZDXF
350
2E
  3
WRITTEN_BY_EZDXF
350
1B0
  0
DICTIONARYVAR
  5
2E
330
2D
100
DictionaryVariables
280
0
  1
1.4.3 @ 2026-02-13T04:54:15.219055+00:00
  0
DICTIONARYVAR
  5
1B0
330
2D
100
DictionaryVariables
280
0
  1
1.4.3 @ 2026-02-13T04:54:15.241751+00:00
  0
ENDSEC
  0
EOF
