<?xml version='1.0' encoding='utf-8'?>
<svg xmlns="http://www.w3.org/2000/svg" width="100%" height="100%" viewBox="0 0 982456 1000000"><defs><style>.C1 {stroke: #333333; stroke-width: 456; stroke-opacity: 1.000; fill: none; fill-opacity: 1.000;}</style><style>.C2 {stroke: #333333; stroke-width: 632; stroke-opacity: 1.000; fill: none; fill-opacity: 1.000;}</style></defs><g stroke-linecap="round" stroke-linejoin="round" fill-rule="evenodd"><path d="M 971817 992857 l 3621 -3621 m -90588 3621 l 62256 -62256 m -149222 62256 l 62256 -62256 m -149222 62256 l 62256 -62256 m -149222 62256 l 62256 -62256 m -149222 62256 l 62256 -62256 m -149222 62256 l 85315 -85315 m -172281 85315 l 146335 -146335 m -233302 146335 l 62256 -62256 m 134731 -134731 l 36316 -36316 m -320269 233302 l 62256 -62256 m 221697 -221697 l 36316 -36316 m -407236 320269 l 62256 -62256 m 308664 -308664 l 36316 -36316 m -494202 407236 l 62256 -62256 m 395631 -395631 l 36316 -36316 m 411963 -411963 l 54089 -54089 m -502368 415402 l 36316 -36316 m 324997 -324997 l 62256 -62256 m -423568 336601 l 36316 -36316 m 238030 -238030 l 62256 -62256 m -336601 249635 l 36316 -36316 m 151063 -151063 l 62256 -62256 m -249635 162668 l 39325 -39325 m 58078 -58078 l 65265 -65265 m -181143 94176 l 94176 -94176 m -150326 63359 l 63359 -63359 m -149222 62256 l 62256 -62256 m -149222 62256 l 62256 -62256 m -149222 62256 l 62256 -62256 m -149222 62256 l 62256 -62256 m -106920 19954 l 19954 -19954 m 878959 968421 l 62256 -62256 m -149222 62256 l 62256 -62256 m -149222 62256 l 62256 -62256 m -149222 62256 l 62256 -62256 m -149222 62256 l 62256 -62256 m -149222 62256 l 76162 -76162 m -163129 76162 l 127584 -127584 m -214550 127584 l 62256 -62256 m 113651 -113651 l 36316 -36316 m -299189 212223 l 62256 -62256 m 200618 -200618 l 36316 -36316 m -386156 299189 l 62256 -62256 m 287585 -287585 l 36316 -36316 m -473123 386156 l 62256 -62256 m 374551 -374551 l 36316 -36316 m 433043 -433043 l 33010 -33010 m -968421 881454 l 4535 -4535 m 461518 -461518 l 36316 -36316 m 346076 -346076 l 62256 -62256 m -444647 357681 l 36316 -36316 m 259109 -259109 l 62256 -62256 m -357681 270714 l 36316 -36316 m 172143 -172143 l 62256 -62256 m -270714 183747 l 36316 -36316 m 85176 -85176 l 62256 -62256 m -193655 106688 l 106688 -106688 m -153882 66916 l 66916 -66916 m -149222 62256 l 62256 -62256 m -149222 62256 l 62256 -62256 m -149222 62256 l 62256 -62256 m -149222 62256 l 62256 -62256 m -128000 41033 l 41033 -41033" class="C1" /><path d="M 592393 86692 l 383045 0" class="C2" /><path d="M 975439 86692 l 0 -62256" class="C2" /><path d="M 975439 24436 l -968421 0" class="C2" /><path d="M 7018 24436 l 0 62256" class="C2" /><path d="M 7018 86692 l 383045 0" class="C2" /><path d="M 473070 169699 c -0 -45844 -37164 -83008 -83008 -83008" class="C2" /><path d="M 473070 169699 l 0 677895" class="C2" /><path d="M 390063 930602 c 22015 0 43128 -8745 58695 -24312 c 15567 -15567 24312 -36680 24312 -58695" class="C2" /><path d="M 390063 930602 l -383045 0" class="C2" /><path d="M 7018 930602 l 0 62256" class="C2" /><path d="M 7018 992857 l 968421 0" class="C2" /><path d="M 975439 992857 l 0 -62256" class="C2" /><path d="M 975439 930602 l -383045 0" class="C2" /><path d="M 509386 847594 c 0 45844 37164 83008 83008 83008" class="C2" /><path d="M 509386 847594 l 0 -677895" class="C2" /><path d="M 592393 86692 c -45844 0 -83008 37164 -83008 83008" class="C2" /><path d="M 975439 24436 l 0 62256" class="C2" /><path d="M 975439 86692 l -383045 0" class="C2" /><path d="M 592393 86692 c -22015 -0 -43128 8745 -58695 24312 c -15567 15567 -24312 36680 -24312 58695" class="C2" /><path d="M 509386 169699 l 0 677895" class="C2" /><path d="M 975439 24436 l -968421 0" class="C2" /><path d="M 7018 24436 l 0 62256" class="C2" /><path d="M 7018 86692 l 383045 0" class="C2" /><path d="M 473070 169699 c 0 -22015 -8745 -43128 -24312 -58695 c -15567 -15567 -36680 -24312 -58695 -24312" class="C2" /><path d="M 473070 169699 l 0 677895" class="C2" /><path d="M 975439 992857 l 0 -62256" class="C2" /><path d="M 975439 930602 l -383045 0" class="C2" /><path d="M 509386 847594 c 0 45844 37164 83008 83008 83008" class="C2" /><path d="M 975439 992857 l -968421 0" class="C2" /><path d="M 7018 992857 l 0 -62256" class="C2" /><path d="M 7018 930602 l 383045 0" class="C2" /><path d="M 390063 930602 c 22015 0 43128 -8745 58695 -24312 c 15567 -15567 24312 -36680 24312 -58695" class="C2" /><path d="M 491228 7143 l 0 17293 m 0 2767 l 0 346 m 0 2767 l 0 17293 m 0 2767 l 0 346 m 0 2767 l 0 17293 m 0 2767 l 0 346 m 0 2767 l 0 17293 m 0 2767 l 0 346 m 0 2767 l 0 17293 m 0 2767 l 0 346 m 0 2767 l 0 17293 m 0 2767 l 0 346 m 0 2767 l 0 17293 m 0 2767 l 0 346 m 0 2767 l 0 17293 m 0 2767 l 0 346 m 0 2767 l 0 17293 m 0 2767 l 0 346 m 0 2767 l 0 17293 m 0 2767 l 0 346 m 0 2767 l 0 17293 m 0 2767 l 0 346 m 0 2767 l 0 17293 m 0 2767 l 0 346 m 0 2767 l 0 17293 m 0 2767 l 0 346 m 0 2767 l 0 17293 m 0 2767 l 0 346 m 0 2767 l 0 17293 m 0 2767 l 0 346 m 0 2767 l 0 17293 m 0 2767 l 0 346 m 0 2767 l 0 17293 m 0 2767 l 0 346 m 0 2767 l 0 17293 m 0 2767 l 0 346 m 0 2767 l 0 17293 m 0 2767 l 0 346 m 0 2767 l 0 17293 m 0 2767 l 0 346 m 0 2767 l 0 17293 m 0 2767 l 0 346 m 0 2767 l 0 17293 m 0 2767 l 0 346 m 0 2767 l 0 17293 m 0 2767 l 0 346 m 0 2767 l 0 17293 m 0 2767 l 0 346 m 0 2767 l 0 17293 m 0 2767 l 0 346 m 0 2767 l 0 17293 m 0 2767 l 0 346 m 0 2767 l 0 17293 m 0 2767 l 0 346 m 0 2767 l 0 17293 m 0 2767 l 0 346 m 0 2767 l 0 17293 m 0 2767 l 0 346 m 0 2767 l 0 17293 m 0 2767 l 0 346 m 0 2767 l 0 17293 m 0 2767 l 0 346 m 0 2767 l 0 17293 m 0 2767 l 0 346 m 0 2767 l 0 17293 m 0 2767 l 0 346 m 0 2767 l 0 17293 m 0 2767 l 0 346 m 0 2767 l 0 17293 m 0 2767 l 0 346 m 0 2767 l 0 17293 m 0 2767 l 0 346 m 0 2767 l 0 17293 m 0 2767 l 0 346 m 0 2767 l 0 17293 m 0 2767 l 0 346 m 0 2767 l 0 17293 m 0 2767 l 0 346 m 0 2767 l 0 17293 m 0 2767 l 0 346 m 0 2767 l 0 17293 m 0 2767 l 0 346 m 0 2767 l 0 17293 m 0 2767 l 0 346 m 0 2767 l 0 12451" class="C1" /><path d="M 7018 508647 l 968421 0" class="C2" /></g></svg>