<?xml version='1.0' encoding='utf-8'?>
<svg xmlns="http://www.w3.org/2000/svg" width="100%" height="100%" viewBox="0 0 1000000 1000000"><defs><style>.C1 {stroke: #333333; stroke-width: 50000; stroke-opacity: 1.000; fill: none; fill-opacity: 1.000;}</style></defs><g stroke-linecap="round" stroke-linejoin="round" fill-rule="evenodd"><path d="M 383179 240896 c 0 6062 -4914 10976 -10976 10976 c -6062 0 -10976 -4914 -10976 -10976 c 0 -6062 4914 -10976 10976 -10976 c 6062 0 10976 4914 10976 10976" class="C1" /><path d="M 379521 240896 c 0 4041 -3276 7317 -7317 7317 c -4041 0 -7317 -3276 -7317 -7317 c 0 -4041 3276 -7317 7317 -7317 c 4041 0 7317 3276 7317 7317" class="C1" /><path d="M 391011 521951 c 3906 0 7123 -3068 7309 -6969" class="C1" /><path d="M 273598 514634 c 0 4041 3276 7317 7317 7317" class="C1" /><path d="M 412622 214634 l -14302 300348" class="C1" /><path d="M 273598 214634 l 0 300000" class="C1" /><path d="M 416280 207317 c 0 -4041 -3276 -7317 -7317 -7317" class="C1" /><path d="M 277256 200000 c -4041 0 -7317 3276 -7317 7317" class="C1" /><path d="M 269939 214634 l 146341 0" class="C1" /><path d="M 280915 521951 l 446545 0" class="C1" /><path d="M 284573 558537 l 21951 21951" class="C1" /><path d="M 284573 521951 l 0 36585" class="C1" /><path d="M 416280 207317 l 0 7317" class="C1" /><path d="M 269939 207317 l 0 7317" class="C1" /><path d="M 277256 200000 l 131707 0" class="C1" /><path d="M 456728 800000 l 182927 0" class="C1" /><path d="M 387216 623010 l 0 81868" class="C1" /><path d="M 401850 719512 l 12127 0" class="C1" /><path d="M 306524 580488 l 142886 0" class="C1" /><path d="M 450918 603662 l -57893 12188" class="C1" /><path d="M 427521 728605 l 29207 71395" class="C1" /><path d="M 427521 728605 c -2250 -5500 -7602 -9093 -13545 -9093" class="C1" /><path d="M 387216 704878 c 0 8082 6552 14634 14634 14634" class="C1" /><path d="M 393025 615850 c -3386 713 -5810 3700 -5810 7160" class="C1" /><path d="M 456728 587805 l 0 8697" class="C1" /><path d="M 450918 603662 c 3386 -713 5810 -3700 5810 -7160" class="C1" /><path d="M 456728 587805 c 0 -4041 -3276 -7317 -7317 -7317" class="C1" /><path d="M 623548 723494 l 16107 76506" class="C1" /><path d="M 659650 644437 c 44150 -24495 70411 -72074 67606 -122486" class="C1" /><path d="M 659650 644437 c -28076 15577 -42717 47638 -36102 79057" class="C1" /><path d="M 471505 688858 c 71264 4998 142184 -13669 201753 -53102" class="C1" /><path d="M 453734 792683 l 94010 0" class="C1" /><path d="M 559737 742559 l 5908 28062" class="C1" /><path d="M 547744 792683 c 5513 0 10731 -2486 14205 -6767 c 3473 -4281 4831 -9900 3695 -15294" class="C1" /></g></svg>