<?xml version='1.0' encoding='utf-8'?>
<svg xmlns="http://www.w3.org/2000/svg" width="100%" height="100%" viewBox="0 0 957950 1000000"><defs><style>.C1 {stroke: #333333; stroke-width: 1200; stroke-opacity: 1.000; fill: none; fill-opacity: 1.000;}</style></defs><g stroke-linecap="round" stroke-linejoin="round" fill-rule="evenodd"><path d="M 413018 445217 c 12358 18906 35746 27336 57324 20664 c 21578 -6672 36125 -26833 35654 -49415 c -471 -22581 -15844 -42119 -37682 -47887 c -21837 -5768 -44854 3630 -56414 23034" class="C1" /><path d="M 677963 650082 l 0 0" class="C1" /><path d="M 733011 612057 l 0 0" class="C1" /><path d="M 749132 585261 l 0 0" class="C1" /><path d="M 758734 533939 l 0 0" class="C1" /><path d="M 732592 543909 l 0 0" class="C1" /><path d="M 716277 605575 l 0 0" class="C1" /><path d="M 685215 686325 l 0 0" class="C1" /><path d="M 714160 651083 l 0 0" class="C1" /><path d="M 690960 658407 l 0 0" class="C1" /><path d="M 727311 631724 l 0 0" class="C1" /><path d="M 693813 624084 l 0 0" class="C1" /><path d="M 712789 562698 l 0 0" class="C1" /><path d="M 768725 556355 l 0 0" class="C1" /><path d="M 730540 577704 l 0 0" class="C1" /><path d="M 708907 590627 l 0 0" class="C1" /><path d="M 55408 493555 l 0 0" class="C1" /><path d="M 86647 572257 l 0 0" class="C1" /><path d="M 111467 608597 l 0 0" class="C1" /><path d="M 55707 583265 l 0 0" class="C1" /><path d="M 58780 557195 l 0 0" class="C1" /><path d="M 86559 587962 l 0 0" class="C1" /><path d="M 42773 563494 l 0 0" class="C1" /><path d="M 81986 548806 l 0 0" class="C1" /><path d="M 39250 527006 l 0 0" class="C1" /><path d="M 68320 517052 l 0 0" class="C1" /><path d="M 37542 499046 l 0 0" class="C1" /><path d="M 71268 465693 l 0 0" class="C1" /><path d="M 21125 435600 l 0 0" class="C1" /><path d="M 50865 448809 l 0 0" class="C1" /><path d="M 18297 465398 l 0 0" class="C1" /><path d="M 52075 422729 l 0 0" class="C1" /><path d="M 29747 417015 l 0 0" class="C1" /><path d="M 51201 388385 l 0 0" class="C1" /><path d="M 817204 412649 c 0 204810 -166031 370841 -370841 370841 c -204810 -0 -370841 -166031 -370841 -370841 c 0 -204810 166031 -370841 370841 -370841 c 204810 0 370841 166031 370841 370841" class="C1" /><path d="M 333116 146653 c -7124 -1195 -14324 -1885 -21546 -2066 c -6498 -163 -12999 185 -19442 1039 c -8610 1142 -17142 2802 -25552 4971 c -4452 1148 -8759 2803 -12835 4931 c -5280 2757 -7824 8903 -6035 14584 c 1775 5638 -814 11729 -6105 14363 c -3969 1977 -8777 960 -11607 -2454 c -2658 -3207 -7341 -3816 -10732 -1397 c -2452 1749 -4107 4403 -4598 7375 c -491 2972 221 6017 1979 8463 c 3904 5430 3359 12877 -1294 17681 c -11902 12288 -24713 23662 -38326 34023 c -25479 19394 -50167 39804 -74006 61182 l -62875 57414 c -6113 6010 -11113 13054 -14769 20807 c -7156 15173 -12941 30956 -17286 47160 c -3231 12051 -5095 24427 -5557 36895 c -591 15953 220 31927 2424 47738 c 2219 15921 6514 31483 12776 46287 c 4612 10903 11141 20891 19278 29490 c 9642 10190 20690 18952 32809 26020 c 8753 5105 18436 8411 28483 9725 l 79272 9758 l 69699 7841 c 8842 1143 17093 5061 23568 11190 c 9486 8979 16975 19855 21978 31921 l 36762 90711 l 32045 77375 c 5520 13232 12112 25991 19710 38150 c 8831 14132 18643 27627 29365 40384 c 5672 6749 12339 12594 19773 17333 c 15920 10150 32535 19164 49723 26976 c 14765 6710 30362 11412 46376 13980 c 10335 1657 20903 1122 31017 -1570 c 12933 -3442 24528 -10702 33273 -20832 c 14055 -16280 25023 -34986 32367 -55200 c 8729 -24026 16494 -48392 23277 -73039 c 3385 -12298 5776 -24848 7152 -37529 l 9016 -89391 c 1273 -13845 2331 -27708 3173 -41586 c 1028 -16930 2271 -33847 3729 -50745 c 1533 -17761 5795 -35180 12637 -51642 c 4786 -11517 12083 -21820 21359 -30157 c 7241 -6509 16361 -10553 26046 -11551 c 12090 -1245 23678 -5487 33714 -12340 c 13305 -9086 25136 -20161 35079 -32838 c 7830 -9984 17546 -18333 28595 -24572 c 8988 -5075 18521 -9115 28418 -12044 c 10865 -3216 21370 -7542 31348 -12912 c 12229 -6581 23937 -14087 35021 -22454 c 3812 -2878 6919 -6585 9086 -10841 c 1987 -3902 3585 -7989 4773 -12203 c 3892 -13810 7372 -27732 10434 -41750 c 2969 -13592 5601 -27255 7893 -40978 c 925 -5537 1508 -11125 1745 -16733 c 286 -6745 -714 -13483 -2948 -19854 c -5797 -16535 -12781 -32630 -20897 -48159 c -5609 -10731 -11888 -21099 -18802 -31040 c -4844 -6966 -10307 -13481 -16321 -19466 c -6747 -6715 -14576 -12247 -23157 -16366 c -8246 -3957 -17121 -6440 -26223 -7334 c -12049 -1184 -24212 238 -35663 4171 c -13715 4710 -28161 6936 -42658 6573 c -14443 -362 -28868 -1246 -43247 -2651 c -12611 -1232 -25166 -2985 -37632 -5253 c -18371 -3342 -36442 -8161 -54038 -14409 c -9309 -3305 -18054 -8023 -25928 -13987 c -5106 -3867 -9936 -8086 -14454 -12626 c -9448 -9493 -18576 -19298 -27371 -29400 c -9764 -11215 -18237 -23492 -25258 -36599 c -5003 -9338 -11456 -17824 -19119 -25139 c -3508 -3348 -7505 -6143 -11854 -8288 c -5431 -2678 -11167 -4687 -17082 -5982 c -5188 -1136 -10555 -1187 -15763 -149 c -5936 1182 -11610 3426 -16748 6623 c -5215 3245 -8409 8930 -8468 15072 c -60 6242 -3240 12040 -8472 15446 c -4057 2641 -8644 4362 -13438 5041 c -4016 569 -8111 67 -11871 -1456 c -6236 -2525 -10168 -8746 -9773 -15462 c 475 -8083 -3062 -15881 -9457 -20847 c -4648 -3610 -9757 -6584 -15192 -8843 c -2585 -1074 -5426 -1377 -8179 -870 c -4134 760 -7627 3512 -9334 7354 c -1707 3842 -1407 8278 800 11856 c 5985 9700 5565 22043 -1064 31314 c -3095 4329 -6476 8446 -10119 12326 c -1054 1122 -2358 1980 -3806 2504 c -2149 777 -4440 1081 -6717 893 c -5901 -487 -11752 -1454 -17495 -2892 c -6697 -1676 -12489 -5871 -16170 -11712 c -2305 -3657 -6937 -5079 -10898 -3346 c -2726 1193 -5139 3001 -7051 5282 c -5958 7110 -11394 14643 -16263 22538 c -1688 2737 -3186 5587 -4484 8530 c -821 1862 -1843 3629 -3046 5270 c -2130 2903 -6170 3612 -9161 1607 c -3446 -2310 -7959 -2253 -11346 142 c -2475 1750 -3890 4639 -3758 7667 c 127 2904 -1316 5653 -3778 7198 c -2986 1873 -6906 1186 -9075 -1593 c -2111 -2704 -5997 -3223 -8744 -1168 c -1529 1143 -2461 2915 -2537 4823 c -76 1908 713 3748 2146 5009 c 1371 1206 2012 3042 1690 4839 c -322 1798 -1561 3296 -3266 3951 c -2717 1043 -5745 911 -8361 -364 c -2618 -1277 -4589 -3583 -5443 -6367" class="C1" /></g></svg>