<?xml version='1.0' encoding='utf-8'?>
<svg xmlns="http://www.w3.org/2000/svg" width="100%" height="100%" viewBox="0 0 433333 1000000"><defs><style>.C1 {stroke: #333333; stroke-width: 2400; stroke-opacity: 1.000; fill: none; fill-opacity: 1.000;}</style></defs><g stroke-linecap="round" stroke-linejoin="round" fill-rule="evenodd"><path d="M 420000 937949 l 0 -31282" class="C1" /><path d="M 420000 906667 l -406667 0" class="C1" /><path d="M 13333 906667 l 0 31282" class="C1" /><path d="M 13333 937949 l 406667 0" class="C1" /><path d="M 13333 30769 l 406667 0" class="C1" /><path d="M 13333 99590 l 406667 0" class="C1" /><path d="M 13333 969231 l 0 -62564" class="C1" /><path d="M 420000 906667 l 0 62564" class="C1" /><path d="M 420000 906667 l -406667 0" class="C1" /><path d="M 420000 937949 l -406667 0" class="C1" /><path d="M 13333 969231 l 406667 0" class="C1" /><path d="M 420000 906667 l 0 -875897" class="C1" /><path d="M 13333 906667 l 0 -875897" class="C1" /><path d="M 13333 969231 l 406667 -31282" class="C1" /><path d="M 420000 969231 l -406667 -31282" class="C1" /></g></svg>