  0
SECTION
  2
HEADER
  9
$ACADVER
  1
AC1032
  9
$ACADMAINTVER
 90
4
  9
$DWGCODEPAGE
  3
ANSI_1252
  9
$LASTSAVEDBY
  1
ezdxf
  9
$REQUIREDVERSIONS
160
0
  9
$INSBASE
 10
0.0
 20
0.0
 30
0.0
  9
$EXTMIN
 10
1e+20
 20
1e+20
 30
1e+20
  9
$EXTMAX
 10
-1e+20
 20
-1e+20
 30
-1e+20
  9
$LIMMIN
 10
0.0
 20
0.0
  9
$LIMMAX
 10
420.0
 20
297.0
  9
$ORTHOMODE
 70
0
  9
$REGENMODE
 70
1
  9
$FILLMODE
 70
1
  9
$QTEXTMODE
 70
0
  9
$MIRRTEXT
 70
1
  9
$LTSCALE
 40
1.0
  9
$ATTMODE
 70
1
  9
$TEXTSIZE
 40
2.5
  9
$TRACEWID
 40
1.0
  9
$TEXTSTYLE
  7
Standard
  9
$CLAYER
  8
0
  9
$CELTYPE
  6
ByLayer
  9
$CECOLOR
 62
256
  9
$CELTSCALE
 40
1.0
  9
$DISPSILH
 70
0
  9
$DIMSCALE
 40
1.0
  9
$DIMASZ
 40
2.5
  9
$DIMEXO
 40
0.625
  9
$DIMDLI
 40
3.75
  9
$DIMRND
 40
0.0
  9
$DIMDLE
 40
0.0
  9
$DIMEXE
 40
1.25
  9
$DIMTP
 40
0.0
  9
$DIMTM
 40
0.0
  9
$DIMTXT
 40
2.5
  9
$DIMCEN
 40
2.5
  9
$DIMTSZ
 40
0.0
  9
$DIMTOL
 70
0
  9
$DIMLIM
 70
0
  9
$DIMTIH
 70
0
  9
$DIMTOH
 70
0
  9
$DIMSE1
 70
0
  9
$DIMSE2
 70
0
  9
$DIMTAD
 70
1
  9
$DIMZIN
 70
8
  9
$DIMBLK
  1

  9
$DIMASO
 70
1
  9
$DIMSHO
 70
1
  9
$DIMPOST
  1

  9
$DIMAPOST
  1

  9
$DIMALT
 70
0
  9
$DIMALTD
 70
3
  9
$DIMALTF
 40
0.03937007874
  9
$DIMLFAC
 40
1.0
  9
$DIMTOFL
 70
1
  9
$DIMTVP
 40
0.0
  9
$DIMTIX
 70
0
  9
$DIMSOXD
 70
0
  9
$DIMSAH
 70
0
  9
$DIMBLK1
  1

  9
$DIMBLK2
  1

  9
$DIMSTYLE
  2
ISO-25
  9
$DIMCLRD
 70
0
  9
$DIMCLRE
 70
0
  9
$DIMCLRT
 70
0
  9
$DIMTFAC
 40
1.0
  9
$DIMGAP
 40
0.625
  9
$DIMJUST
 70
0
  9
$DIMSD1
 70
0
  9
$DIMSD2
 70
0
  9
$DIMTOLJ
 70
0
  9
$DIMTZIN
 70
8
  9
$DIMALTZ
 70
0
  9
$DIMALTTZ
 70
0
  9
$DIMUPT
 70
0
  9
$DIMDEC
 70
2
  9
$DIMTDEC
 70
2
  9
$DIMALTU
 70
2
  9
$DIMALTTD
 70
3
  9
$DIMTXSTY
  7
Standard
  9
$DIMAUNIT
 70
0
  9
$DIMADEC
 70
0
  9
$DIMALTRND
 40
0.0
  9
$DIMAZIN
 70
0
  9
$DIMDSEP
 70
44
  9
$DIMATFIT
 70
3
  9
$DIMFRAC
 70
0
  9
$DIMLDRBLK
  1

  9
$DIMLUNIT
 70
2
  9
$DIMLWD
 70
-2
  9
$DIMLWE
 70
-2
  9
$DIMTMOVE
 70
0
  9
$DIMFXL
 40
1.0
  9
$DIMFXLON
 70
0
  9
$DIMJOGANG
 40
0.785398163397
  9
$DIMTFILL
 70
0
  9
$DIMTFILLCLR
 70
0
  9
$DIMARCSYM
 70
0
  9
$DIMLTYPE
  6

  9
$DIMLTEX1
  6

  9
$DIMLTEX2
  6

  9
$DIMTXTDIRECTION
 70
0
  9
$LUNITS
 70
2
  9
$LUPREC
 70
4
  9
$SKETCHINC
 40
1.0
  9
$FILLETRAD
 40
10.0
  9
$AUNITS
 70
0
  9
$AUPREC
 70
2
  9
$MENU
  1
.
  9
$ELEVATION
 40
0.0
  9
$PELEVATION
 40
0.0
  9
$THICKNESS
 40
0.0
  9
$LIMCHECK
 70
0
  9
$CHAMFERA
 40
0.0
  9
$CHAMFERB
 40
0.0
  9
$CHAMFERC
 40
0.0
  9
$CHAMFERD
 40
0.0
  9
$SKPOLY
 70
0
  9
$TDCREATE
 40
2461085.245972222
  9
$TDUCREATE
 40
2458532.153996898
  9
$TDUPDATE
 40
2461085.245972222
  9
$TDUUPDATE
 40
2458532.1544311
  9
$TDINDWG
 40
0.0
  9
$TDUSRTIMER
 40
0.0
  9
$USRTIMER
 70
1
  9
$ANGBASE
 50
0.0
  9
$ANGDIR
 70
0
  9
$PDMODE
 70
0
  9
$PDSIZE
 40
0.0
  9
$PLINEWID
 40
0.0
  9
$SPLFRAME
 70
0
  9
$SPLINETYPE
 70
6
  9
$SPLINESEGS
 70
8
  9
$HANDSEED
  5
BE
  9
$SURFTAB1
 70
6
  9
$SURFTAB2
 70
6
  9
$SURFTYPE
 70
6
  9
$SURFU
 70
6
  9
$SURFV
 70
6
  9
$UCSBASE
  2

  9
$UCSNAME
  2

  9
$UCSORG
 10
0.0
 20
0.0
 30
0.0
  9
$UCSXDIR
 10
1.0
 20
0.0
 30
0.0
  9
$UCSYDIR
 10
0.0
 20
1.0
 30
0.0
  9
$UCSORTHOREF
  2

  9
$UCSORTHOVIEW
 70
0
  9
$UCSORGTOP
 10
0.0
 20
0.0
 30
0.0
  9
$UCSORGBOTTOM
 10
0.0
 20
0.0
 30
0.0
  9
$UCSORGLEFT
 10
0.0
 20
0.0
 30
0.0
  9
$UCSORGRIGHT
 10
0.0
 20
0.0
 30
0.0
  9
$UCSORGFRONT
 10
0.0
 20
0.0
 30
0.0
  9
$UCSORGBACK
 10
0.0
 20
0.0
 30
0.0
  9
$PUCSBASE
  2

  9
$PUCSNAME
  2

  9
$PUCSORG
 10
0.0
 20
0.0
 30
0.0
  9
$PUCSXDIR
 10
1.0
 20
0.0
 30
0.0
  9
$PUCSYDIR
 10
0.0
 20
1.0
 30
0.0
  9
$PUCSORTHOREF
  2

  9
$PUCSORTHOVIEW
 70
0
  9
$PUCSORGTOP
 10
0.0
 20
0.0
 30
0.0
  9
$PUCSORGBOTTOM
 10
0.0
 20
0.0
 30
0.0
  9
$PUCSORGLEFT
 10
0.0
 20
0.0
 30
0.0
  9
$PUCSORGRIGHT
 10
0.0
 20
0.0
 30
0.0
  9
$PUCSORGFRONT
 10
0.0
 20
0.0
 30
0.0
  9
$PUCSORGBACK
 10
0.0
 20
0.0
 30
0.0
  9
$USERI1
 70
0
  9
$USERI2
 70
0
  9
$USERI3
 70
0
  9
$USERI4
 70
0
  9
$USERI5
 70
0
  9
$USERR1
 40
0.0
  9
$USERR2
 40
0.0
  9
$USERR3
 40
0.0
  9
$USERR4
 40
0.0
  9
$USERR5
 40
0.0
  9
$WORLDVIEW
 70
1
  9
$SHADEDGE
 70
3
  9
$SHADEDIF
 70
70
  9
$TILEMODE
 70
1
  9
$MAXACTVP
 70
64
  9
$PINSBASE
 10
0.0
 20
0.0
 30
0.0
  9
$PLIMCHECK
 70
0
  9
$PEXTMIN
 10
1e+20
 20
1e+20
 30
1e+20
  9
$PEXTMAX
 10
-1e+20
 20
-1e+20
 30
-1e+20
  9
$PLIMMIN
 10
0.0
 20
0.0
  9
$PLIMMAX
 10
420.0
 20
297.0
  9
$UNITMODE
 70
0
  9
$VISRETAIN
 70
1
  9
$PLINEGEN
 70
0
  9
$PSLTSCALE
 70
1
  9
$TREEDEPTH
 70
3020
  9
$CMLSTYLE
  2
Standard
  9
$CMLJUST
 70
0
  9
$CMLSCALE
 40
20.0
  9
$PROXYGRAPHICS
 70
1
  9
$MEASUREMENT
 70
1
  9
$CELWEIGHT
370
-1
  9
$ENDCAPS
280
0
  9
$JOINSTYLE
280
0
  9
$LWDISPLAY
290
0
  9
$INSUNITS
 70
6
  9
$HYPERLINKBASE
  1

  9
$STYLESHEET
  1

  9
$XEDIT
290
1
  9
$CEPSNTYPE
380
0
  9
$PSTYLEMODE
290
1
  9
$FINGERPRINTGUID
  2
{E7D2EB30-0F00-4D50-B6AF-1F1B8A2928D0}
  9
$VERSIONGUID
  2
{83910CB8-6EE0-4100-8E68-EBD239A3ED03}
  9
$EXTNAMES
290
1
  9
$PSVPSCALE
 40
0.0
  9
$OLESTARTUP
290
0
  9
$SORTENTS
280
127
  9
$INDEXCTL
280
0
  9
$HIDETEXT
280
1
  9
$XCLIPFRAME
280
1
  9
$HALOGAP
280
0
  9
$OBSCOLOR
 70
257
  9
$OBSLTYPE
280
0
  9
$INTERSECTIONDISPLAY
280
0
  9
$INTERSECTIONCOLOR
 70
257
  9
$DIMASSOC
280
2
  9
$PROJECTNAME
  1

  9
$CAMERADISPLAY
290
0
  9
$LENSLENGTH
 40
50.0
  9
$CAMERAHEIGHT
 40
0.0
  9
$STEPSPERSEC
 40
24.0
  9
$STEPSIZE
 40
100.0
  9
$3DDWFPREC
 40
2.0
  9
$PSOLWIDTH
 40
0.005
  9
$PSOLHEIGHT
 40
0.08
  9
$LOFTANG1
 40
1.570796326795
  9
$LOFTANG2
 40
1.570796326795
  9
$LOFTMAG1
 40
0.0
  9
$LOFTMAG2
 40
0.0
  9
$LOFTPARAM
 70
7
  9
$LOFTNORMALS
280
1
  9
$LATITUDE
 40
37.795
  9
$LONGITUDE
 40
-122.394
  9
$NORTHDIRECTION
 40
0.0
  9
$TIMEZONE
 70
-8000
  9
$LIGHTGLYPHDISPLAY
280
1
  9
$TILEMODELIGHTSYNCH
280
1
  9
$CMATERIAL
347
20
  9
$SOLIDHIST
280
0
  9
$SHOWHIST
280
1
  9
$DWFFRAME
280
2
  9
$DGNFRAME
280
2
  9
$REALWORLDSCALE
290
1
  9
$INTERFERECOLOR
 62
256
  9
$CSHADOW
280
0
  9
$SHADOWPLANELOCATION
 40
0.0
  0
ENDSEC
  0
SECTION
  2
CLASSES
  0
CLASS
  1
ACDBDICTIONARYWDFLT
  2
AcDbDictionaryWithDefault
  3
ObjectDBX Classes
 90
0
 91
0
280
0
281
0
  0
CLASS
  1
SUN
  2
AcDbSun
  3
SCENEOE
 90
1153
 91
0
280
0
281
0
  0
CLASS
  1
VISUALSTYLE
  2
AcDbVisualStyle
  3
ObjectDBX Classes
 90
4095
 91
0
280
0
281
0
  0
CLASS
  1
MATERIAL
  2
AcDbMaterial
  3
ObjectDBX Classes
 90
1153
 91
0
280
0
281
0
  0
CLASS
  1
SCALE
  2
AcDbScale
  3
ObjectDBX Classes
 90
1153
 91
0
280
0
281
0
  0
CLASS
  1
TABLESTYLE
  2
AcDbTableStyle
  3
ObjectDBX Classes
 90
4095
 91
0
280
0
281
0
  0
CLASS
  1
MLEADERSTYLE
  2
AcDbMLeaderStyle
  3
ACDB_MLEADERSTYLE_CLASS
 90
4095
 91
0
280
0
281
0
  0
CLASS
  1
DICTIONARYVAR
  2
AcDbDictionaryVar
  3
ObjectDBX Classes
 90
0
 91
0
280
0
281
0
  0
CLASS
  1
CELLSTYLEMAP
  2
AcDbCellStyleMap
  3
ObjectDBX Classes
 90
1152
 91
0
280
0
281
0
  0
CLASS
  1
MENTALRAYRENDERSETTINGS
  2
AcDbMentalRayRenderSettings
  3
SCENEOE
 90
1024
 91
0
280
0
281
0
  0
CLASS
  1
ACDBDETAILVIEWSTYLE
  2
AcDbDetailViewStyle
  3
ObjectDBX Classes
 90
1025
 91
0
280
0
281
0
  0
CLASS
  1
ACDBSECTIONVIEWSTYLE
  2
AcDbSectionViewStyle
  3
ObjectDBX Classes
 90
1025
 91
0
280
0
281
0
  0
CLASS
  1
RASTERVARIABLES
  2
AcDbRasterVariables
  3
ISM
 90
0
 91
0
280
0
281
0
  0
CLASS
  1
LAYOUT
  2
AcDbLayout
  3
ObjectDBX Classes
 90
0
 91
0
280
0
281
0
  0
CLASS
  1
ACDBPLACEHOLDER
  2
AcDbPlaceHolder
  3
ObjectDBX Classes
 90
0
 91
0
280
0
281
0
  0
ENDSEC
  0
SECTION
  2
TABLES
  0
TABLE
  2
VPORT
  5
8
330
0
100
AcDbSymbolTable
 70
1
  0
VPORT
  5
23
330
8
100
AcDbSymbolTableRecord
100
AcDbViewportTableRecord
  2
*Active
 70
0
 10
0.0
 20
0.0
 11
1.0
 21
1.0
 12
0.0
 22
0.0
 13
0.0
 23
0.0
 14
0.5
 24
0.5
 15
0.5
 25
0.5
 16
0.0
 26
0.0
 36
1.0
 17
0.0
 27
0.0
 37
0.0
 40
1000.0
 41
1.34
 42
50.0
 43
0.0
 44
0.0
 50
0.0
 51
0.0
 71
0
 72
1000
 73
1
 74
3
 75
0
 76
0
 77
0
 78
0
281
0
 65
0
146
0.0
  0
ENDTAB
  0
TABLE
  2
LTYPE
  5
2
330
0
100
AcDbSymbolTable
 70
3
  0
LTYPE
  5
24
330
2
100
AcDbSymbolTableRecord
100
AcDbLinetypeTableRecord
  2
ByBlock
 70
0
  3

 72
65
 73
0
 40
0.0
  0
LTYPE
  5
25
330
2
100
AcDbSymbolTableRecord
100
AcDbLinetypeTableRecord
  2
ByLayer
 70
0
  3

 72
65
 73
0
 40
0.0
  0
LTYPE
  5
26
330
2
100
AcDbSymbolTableRecord
100
AcDbLinetypeTableRecord
  2
Continuous
 70
0
  3

 72
65
 73
0
 40
0.0
  0
ENDTAB
  0
TABLE
  2
LAYER
  5
1
330
0
100
AcDbSymbolTable
 70
3
  0
LAYER
  5
27
330
1
100
AcDbSymbolTableRecord
100
AcDbLayerTableRecord
  2
0
 70
0
 62
7
  6
Continuous
370
-3
390
13
347
21
  0
LAYER
  5
28
330
1
100
AcDbSymbolTableRecord
100
AcDbLayerTableRecord
  2
Defpoints
 70
0
 62
7
  6
Continuous
290
0
370
-3
390
13
347
21
  0
LAYER
  5
B8
330
1
100
AcDbSymbolTableRecord
100
AcDbLayerTableRecord
  2
A-DETL-GENF
 70
0
 62
92
  6
Continuous
370
18
390
13
347
21
348
0
  0
ENDTAB
  0
TABLE
  2
STYLE
  5
5
330
0
100
AcDbSymbolTable
 70
1
  0
STYLE
  5
29
330
5
100
AcDbSymbolTableRecord
100
AcDbTextStyleTableRecord
  2
Standard
 70
0
 40
0.0
 41
1.0
 50
0.0
 71
0
 42
2.5
  3
txt
  4

  0
ENDTAB
  0
TABLE
  2
VIEW
  5
7
330
0
100
AcDbSymbolTable
 70
0
  0
ENDTAB
  0
TABLE
  2
UCS
  5
6
330
0
100
AcDbSymbolTable
 70
0
  0
ENDTAB
  0
TABLE
  2
APPID
  5
3
330
0
100
AcDbSymbolTable
 70
3
  0
APPID
  5
2A
330
3
100
AcDbSymbolTableRecord
100
AcDbRegAppTableRecord
  2
ACAD
 70
0
  0
APPID
  5
BB
330
3
100
AcDbSymbolTableRecord
100
AcDbRegAppTableRecord
  2
HATCHBACKGROUNDCOLOR
 70
0
  0
APPID
  5
BC
330
3
100
AcDbSymbolTableRecord
100
AcDbRegAppTableRecord
  2
EZDXF
 70
0
  0
ENDTAB
  0
TABLE
  2
DIMSTYLE
  5
4
330
0
100
AcDbSymbolTable
 70
1
100
AcDbDimStyleTable
  0
DIMSTYLE
105
2B
330
4
100
AcDbSymbolTableRecord
100
AcDbDimStyleTableRecord
  2
Standard
 70
0
 40
1.0
 41
2.5
 42
0.625
 43
3.75
 44
1.25
 45
0.0
 46
0.0
 47
0.0
 48
0.0
 49
2.5
140
2.5
141
2.5
142
0.0
143
0.03937007874
144
1.0
145
0.0
146
1.0
147
0.625
148
0.0
 69
0
 70
0
 71
0
 72
0
 73
0
 74
0
 75
0
 76
0
 77
1
 78
8
 79
3
170
0
171
3
172
1
173
0
174
0
175
0
176
0
177
0
178
0
179
2
271
2
272
2
273
2
274
3
275
0
276
0
277
2
278
44
279
0
280
0
281
0
282
0
283
0
284
8
285
0
286
0
288
0
289
3
290
0
371
-2
372
-2
  0
ENDTAB
  0
TABLE
  2
BLOCK_RECORD
  5
9
330
0
100
AcDbSymbolTable
 70
3
  0
BLOCK_RECORD
  5
17
330
9
100
AcDbSymbolTableRecord
100
AcDbBlockTableRecord
  2
*Model_Space
340
1A
 70
0
280
1
281
0
  0
BLOCK_RECORD
  5
1B
330
9
100
AcDbSymbolTableRecord
100
AcDbBlockTableRecord
  2
*Paper_Space
340
1E
 70
0
280
1
281
0
  0
BLOCK_RECORD
  5
2F
330
9
100
AcDbSymbolTableRecord
100
AcDbBlockTableRecord
  2
31 Schuco FW50 regel-plat - 31 g Schuco FW50 regel-plat-427123-00_0 Basismaterialen
340
0
 70
0
280
1
281
0
  0
ENDTAB
  0
ENDSEC
  0
SECTION
  2
BLOCKS
  0
BLOCK
  5
18
330
17
100
AcDbEntity
  8
0
100
AcDbBlockBegin
  2
*Model_Space
 70
0
 10
0.0
 20
0.0
 30
0.0
  3
*Model_Space
  1

  0
ENDBLK
  5
19
330
17
100
AcDbEntity
  8
0
100
AcDbBlockEnd
  0
BLOCK
  5
1C
330
1B
100
AcDbEntity
  8
0
100
AcDbBlockBegin
  2
*Paper_Space
 70
0
 10
0.0
 20
0.0
 30
0.0
  3
*Paper_Space
  1

  0
ENDBLK
  5
1D
330
1B
100
AcDbEntity
  8
0
100
AcDbBlockEnd
  0
BLOCK
  5
30
330
2F
100
AcDbEntity
  8
0
100
AcDbBlockBegin
  2
31 Schuco FW50 regel-plat - 31 g Schuco FW50 regel-plat-427123-00_0 Basismaterialen
 70
0
 10
0.0
 20
0.0
 30
0.0
  3
31 Schuco FW50 regel-plat - 31 g Schuco FW50 regel-plat-427123-00_0 Basismaterialen
  1

  0
HATCH
  5
32
330
2F
100
AcDbEntity
  8
A-DETL-GENF
100
AcDbHatch
 10
0.0
 20
0.0
 30
0.0
210
0.0
220
0.0
230
1.0
  2
SOLID
 70
1
 71
0
 91
1
 92
1
 93
81
 72
1
 10
-23.49870336645634
 20
0.0
 11
23.8337814469237
 21
0.0376081308959215
 72
1
 10
23.8337814469237
 20
0.0376081308959215
 11
24.15082564494935
 21
0.1485466948240855
 72
1
 10
24.15082564494935
 20
0.1485466948240855
 11
24.43523472984003
 21
0.3272527688702326
 72
1
 10
24.43523472984003
 20
0.3272527688702326
 11
24.67274724227328
 21
0.5647652841340971
 72
1
 10
24.67274724227328
 20
0.5647652841340971
 11
24.85145331292789
 21
0.8491743711558626
 72
1
 10
24.85145331292789
 20
0.8491743711558626
 11
24.96239187307468
 21
1.16621857050477
 72
1
 10
24.96239187307468
 20
1.16621857050477
 11
24.99999999998999
 21
1.49999996192605
 72
1
 10
24.99999999998999
 20
1.49999996192605
 11
24.99999919428053
 21
5.99999931596663
 72
1
 10
24.99999919428053
 20
5.99999931596663
 11
23.09997572634555
 21
5.99999931596663
 72
1
 10
23.09997572634555
 20
5.99999931596663
 11
22.30214589794261
 21
5.20210946673796
 72
1
 10
22.30214589794261
 20
5.20210946673796
 11
22.24610344869161
 21
4.776334113329324
 72
1
 10
22.24610344869161
 20
4.776334113329324
 11
22.37521025440378
 21
4.647230594186027
 72
1
 10
22.37521025440378
 20
4.647230594186027
 11
22.55157138692798
 21
4.599975574629246
 72
1
 10
22.55157138692798
 20
4.599975574629246
 11
23.49999996302124
 21
4.59997558593871
 72
1
 10
23.49999996302124
 20
4.59997558593871
 11
23.48410572410756
 21
2.299987792782019
 72
1
 10
23.48410572410756
 20
2.299987792782019
 11
21.48403658972526
 21
2.299987768930788
 72
1
 10
21.48403658972526
 20
2.299987768930788
 11
21.38639632547324
 21
2.202355042129192
 72
1
 10
21.38639632547324
 20
2.202355042129192
 11
21.20396506909672
 21
2.299987765593391
 72
1
 10
21.20396506909672
 20
2.299987765593391
 11
16.45397552213547
 21
2.299987708948612
 72
1
 10
16.45397552213547
 20
2.299987708948612
 11
16.21919288393674
 21
2.164910104587551
 72
1
 10
16.21919288393674
 20
2.164910104587551
 11
16.08412659551119
 21
2.299987704537011
 72
1
 10
16.08412659551119
 20
2.299987704537011
 11
14.0999755763835
 21
2.29998768087853
 72
1
 10
14.0999755763835
 20
2.29998768087853
 11
14.09997554895664
 21
4.599975473846803
 72
1
 10
14.09997554895664
 20
4.599975473846803
 11
15.21215253611203
 21
4.638227687659508
 72
1
 10
15.21215253611203
 20
4.638227687659508
 11
15.3367489481652
 21
4.744645545224068
 72
1
 10
15.3367489481652
 20
4.744645545224068
 11
15.35204894179413
 21
5.134302786981248
 72
1
 10
15.35204894179413
 20
5.134302786981248
 11
15.30097119695123
 21
5.19908976668109
 72
1
 10
15.30097119695123
 20
5.19908976668109
 11
14.49999978154775
 21
5.99999931596663
 72
1
 10
14.49999978154775
 20
5.99999931596663
 11
10.90002489413824
 21
5.99999931596663
 72
1
 10
10.90002489413824
 20
5.99999931596663
 11
10.90002437469554
 21
4.799987642717724
 72
1
 10
10.90002437469554
 20
4.799987642717724
 11
12.09997554657045
 21
4.799987657024565
 72
1
 10
12.09997554657045
 20
4.799987657024565
 11
12.099975571615
 21
2.700012071087451
 72
1
 10
12.099975571615
 20
2.700012071087451
 11
6.499999985678686
 21
2.700012004309201
 72
1
 10
6.499999985678686
 20
2.700012004309201
 11
5.330078103996072
 21
3.259948513794717
 72
1
 10
5.330078103996072
 20
3.259948513794717
 11
4.999999967794394
 21
4.200011986419895
 72
1
 10
4.999999967794394
 20
4.200011986419895
 11
4.999999827077977
 21
15.99999977939034
 72
1
 10
4.999999827077977
 20
15.99999977939034
 11
3.499999827073986
 21
15.99999976150354
 72
1
 10
3.499999827073986
 20
15.99999976150354
 11
1.999999842580985
 21
14.70001195064824
 72
1
 10
1.999999842580985
 20
14.70001195064824
 11
1.999999964810695
 21
4.450011950648404
 72
1
 10
1.999999964810695
 20
4.450011950648405
 11
0.8699951052489268
 21
2.49999973014028
 72
1
 10
0.8699951052489268
 20
2.49999973014028
 11
-5.8518139e-09
 21
1.989989954139832
 72
1
 10
-5.851814e-09
 20
1.989989954139832
 11
-0.8699951291239812
 21
2.499999709396877
 72
1
 10
-0.8699951291239812
 20
2.499999709396877
 11
-2.000000035192726
 21
4.450011902948108
 72
1
 10
-2.000000035192726
 20
4.450011902948108
 11
-2.000000157422437
 21
14.70001190294578
 72
1
 10
-2.000000157422437
 20
14.70001190294578
 11
-3.500000172924421
 21
15.99999967802531
 72
1
 10
-3.500000172924421
 20
15.99999967802531
 11
-5.000000172924081
 21
15.99999966014284
 72
1
 10
-5.000000172924081
 20
15.99999966014284
 11
-5.000000032207663
 21
4.200011867174566
 72
1
 10
-5.000000032207663
 20
4.200011867174566
 11
-5.330078145998323
 21
3.259948386674778
 72
1
 10
-5.330078145998323
 20
3.259948386674778
 11
-6.500000014322688
 21
2.700011849288108
 72
1
 10
-6.500000014322688
 20
2.700011849288108
 11
-12.099975600259
 21
2.700011782509858
 72
1
 10
-12.099975600259
 20
2.700011782509858
 11
-12.09997562530356
 21
4.799987368446972
 72
1
 10
-12.09997562530356
 20
4.799987368446972
 11
-10.90002445342431
 21
4.799987382753812
 72
1
 10
-10.90002445342431
 20
4.799987382753812
 11
-10.90002474154061
 21
5.999999315968795
 72
1
 10
-10.90002474154061
 20
5.999999315968795
 11
-14.49999959189873
 21
5.999999315968795
 72
1
 10
-14.49999959189873
 20
5.999999315968795
 11
-15.31481258363051
 21
5.123593530078091
 72
1
 10
-15.31481258363051
 20
5.123593530078091
 11
-15.19417644437882
 21
4.695815711163009
 72
1
 10
-15.19417644437882
 20
4.695815711163009
 11
-15.02777337249906
 21
4.611027514542292
 72
1
 10
-15.02777337249906
 20
4.611027514542292
 11
-14.93439374313773
 21
4.599975127613032
 72
1
 10
-14.93439374313773
 20
4.599975127613032
 11
-14.09997562291646
 21
4.599975137562416
 72
1
 10
-14.09997562291646
 20
4.599975137562416
 11
-14.09997559549393
 21
2.299987344594143
 72
1
 10
-14.09997559549393
 20
2.299987344594143
 11
-16.08412697911471
 21
2.299987320935662
 72
1
 10
-16.08412697911471
 20
2.299987320935662
 11
-16.21919288396273
 21
2.164910104587551
 72
1
 10
-16.21919288396273
 20
2.164910104587551
 11
-16.45397484007645
 21
2.299987316524061
 72
1
 10
-16.45397484007645
 20
2.299987316524061
 11
-21.20396601406288
 21
2.299987259881447
 72
1
 10
-21.20396601406288
 20
2.299987259881447
 11
-21.38639632549923
 21
2.202355042129192
 72
1
 10
-21.38639632549923
 20
2.202355042129192
 11
-21.48403607732553
 21
2.299987256541885
 72
1
 10
-21.48403607732553
 20
2.299987256541885
 11
-23.50000000955421
 21
2.299987232502235
 72
1
 10
-23.50000000955421
 20
2.299987232502235
 11
-23.50000003697674
 21
4.599975025470508
 72
1
 10
-23.50000003697674
 20
4.599975025470508
 11
-22.46569428903083
 21
4.653563180789433
 72
1
 10
-22.46569428903083
 20
4.653563180789433
 11
-22.31928458361446
 21
4.799969166154392
 72
1
 10
-22.31928458361446
 20
4.799969166154392
 11
-22.27932321892931
 21
4.896439233315556
 72
1
 10
-22.27932321892931
 20
4.896439233315556
 11
-22.38283785737658
 21
5.282806960889923
 72
1
 10
-22.38283785737658
 20
5.282806960889923
 11
-23.09997551128814
 21
5.999999315968795
 72
1
 10
-23.09997551128814
 20
5.999999315968795
 11
-24.99999467869861
 21
5.999999315968795
 72
1
 10
-24.99999467869861
 20
5.999999315968795
 11
-24.96235063503846
 21
1.166037385689975
 72
1
 10
-24.96235063503846
 20
1.166037385689975
 11
-24.85129251419783
 21
0.8488400140795987
 72
1
 10
-24.85129251419783
 20
0.8488400140795987
 11
-24.67240066073382
 21
0.5643302892418433
 72
1
 10
-24.67240066073382
 20
0.5643302892418433
 11
-24.43465529361224
 21
0.3267903574910292
 72
1
 10
-24.43465529361224
 20
0.3267903574910292
 11
-24.14999102815014
 21
0.148144521461262
 72
1
 10
-24.14999102815014
 20
0.148144521461262
 11
-23.83269776846704
 21
0.0373606502461371
 72
1
 10
-23.83269776846704
 20
0.0373606502461371
 11
-23.49870336645634
 21
0.0
 97
0
 75
0
 76
1
 98
1
 10
0.0
 20
0.0
450
0
451
0
460
0.0
461
0.0
452
0
462
0.0
453
0
470

  0
HATCH
  5
33
330
2F
100
AcDbEntity
  8
A-DETL-GENF
100
AcDbHatch
 10
0.0
 20
0.0
 30
0.0
210
0.0
220
0.0
230
1.0
  2
SOLID
 70
1
 71
0
 91
1
 92
1
 93
6
 72
1
 10
23.51000444450324
 20
5.99999931596663
 11
24.99999467867263
 21
5.99999931596663
 72
1
 10
24.99999467867263
 20
5.99999931596663
 11
24.99999467867263
 21
6.789435033329721
 72
1
 10
24.99999467867263
 20
6.789435033329721
 11
12.60000497681548
 21
6.789435033329721
 72
1
 10
12.60000497681548
 20
6.789435033329721
 11
12.60000497681548
 21
5.99999931596663
 72
1
 10
12.60000497681548
 20
5.99999931596663
 11
23.26354106524428
 21
5.99999931596663
 72
1
 10
23.26354106524428
 20
5.99999931596663
 11
23.51000444450324
 21
5.99999931596663
 97
0
 75
0
 76
1
 98
1
 10
0.0
 20
0.0
450
0
451
0
460
0.0
461
0.0
452
0
462
0.0
453
0
470

  0
HATCH
  5
34
330
2F
100
AcDbEntity
  8
A-DETL-GENF
100
AcDbHatch
 10
0.0
 20
0.0
 30
0.0
210
0.0
220
0.0
230
1.0
  2
SOLID
 70
1
 71
0
 91
2
 92
1
 93
22
 72
1
 10
23.26354106524428
 20
6.789435033329721
 11
20.87686872979992
 21
6.819436356687339
 72
1
 10
20.87686872979992
 20
6.819436356687339
 11
20.7016417984793
 21
6.973970092116871
 72
1
 10
20.7016417984793
 20
6.973970092116871
 11
20.6763184788078
 21
7.206228315498009
 72
1
 10
20.6763184788078
 20
7.206228315498009
 11
20.81412623712961
 21
7.394892500210563
 72
1
 10
20.81412623712961
 20
7.394892500210563
 11
20.88579848273074
 21
7.429245321711903
 72
1
 10
20.88579848273074
 20
7.429245321711903
 11
22.04992129202293
 21
7.819822515263741
 72
1
 10
22.04992129202293
 20
7.819822515263741
 11
24.74239763508523
 21
8.268332081164113
 72
1
 10
24.74239763508523
 20
8.268332081164113
 11
24.86896370355755
 21
8.438174335351778
 72
1
 10
24.86896370355755
 20
8.438174335351778
 11
24.80984733449912
 21
8.843075634004027
 72
1
 10
24.80984733449912
 20
8.843075634004027
 11
24.64000508031578
 21
8.969641702482846
 72
1
 10
24.64000508031578
 20
8.969641702482846
 11
24.42963433931594
 21
8.994330005951923
 72
1
 10
24.42963433931594
 20
8.994330005951923
 11
22.16002886491156
 21
8.819822594752457
 72
1
 10
22.16002886491156
 20
8.819822594752457
 11
19.90990669528811
 21
8.059910743598232
 72
1
 10
19.90990669528811
 20
8.059910743598232
 11
18.41991646111439
 21
8.059935480233765
 72
1
 10
18.41991646111439
 20
8.059935480233765
 11
17.65001910765861
 21
8.999876793749626
 72
1
 10
17.65001910765861
 20
8.999876793749626
 11
16.53991159990684
 21
7.809935697394161
 72
1
 10
16.53991159990684
 20
7.809935697394161
 11
15.43993598236277
 21
8.999999315968115
 72
1
 10
15.43993598236277
 20
8.999999315968115
 11
14.31994065805854
 21
7.809935836620553
 72
1
 10
14.31994065805854
 20
7.809935836620553
 11
13.23998481019355
 21
8.999999599664141
 72
1
 10
13.23998481019355
 20
8.999999599664141
 11
12.60000497681548
 21
8.109985085551802
 72
1
 10
12.60000497681548
 20
8.109985085551802
 11
12.60000497681548
 21
6.789435033329721
 72
1
 10
12.60000497681548
 20
6.789435033329721
 11
23.26354106524428
 21
6.789435033329721
 97
0
 92
1
 93
5
 72
1
 10
24.99999467867263
 20
6.789435033329721
 11
24.99999467867263
 21
7.799778325945493
 72
1
 10
24.99999467867263
 20
7.799778325945493
 11
23.51000444450324
 21
7.799803062576694
 72
1
 10
23.51000444450324
 20
7.799803062576694
 11
21.03372857966182
 21
6.80266633681357
 72
1
 10
21.03372857966182
 20
6.80266633681357
 11
23.26354106524428
 21
6.795227772437465
 72
1
 10
23.26354106524428
 20
6.795227772437465
 11
24.99999467867263
 21
6.789435033329721
 97
0
 75
0
 76
1
 98
1
 10
0.0
 20
0.0
450
0
451
0
460
0.0
461
0.0
452
0
462
0.0
453
0
470

  0
HATCH
  5
35
330
2F
100
AcDbEntity
  8
A-DETL-GENF
100
AcDbHatch
 10
0.0
 20
0.0
 30
0.0
210
0.0
220
0.0
230
1.0
  2
SOLID
 70
1
 71
0
 91
1
 92
1
 93
24
 72
1
 10
16.21919288393674
 20
2.164910104587551
 11
17.51413975715528
 21
2.909932491034368
 72
1
 10
17.51413975715528
 20
2.909932491034368
 11
20.06433426847524
 21
2.90989015301738
 72
1
 10
20.06433426847524
 20
2.90989015301738
 11
21.38639632547324
 21
2.202355042129192
 72
1
 10
21.38639632547324
 20
2.202355042129192
 11
23.48410572410756
 21
4.29990250566401
 72
1
 10
23.48410572410756
 20
4.29990250566401
 11
22.08418017208064
 21
4.299925747054953
 72
1
 10
22.08418017208064
 20
4.299925747054953
 11
22.08420839649692
 21
5.99999931596663
 72
1
 10
22.08420839649692
 20
5.99999931596663
 11
19.54416933364853
 21
5.99999931596663
 72
1
 10
19.54416933364853
 20
5.99999931596663
 11
20.81418869236625
 21
4.969969676660366
 72
1
 10
20.81418869236625
 20
4.969969676660366
 11
20.90602787113886
 21
4.682349790265067
 72
1
 10
20.90602787113886
 20
4.682349790265067
 11
20.85859911190112
 21
4.384171745121705
 72
1
 10
20.85859911190112
 20
4.384171745121705
 11
20.68205158206208
 21
4.1392419520896
 72
1
 10
20.68205158206208
 20
4.1392419520896
 11
20.41416426773082
 21
3.999972355165784
 72
1
 10
20.41416426773082
 20
3.999972355165784
 11
17.05599791063622
 21
4.017065783309078
 72
1
 10
17.05599791063622
 20
4.017065783309078
 11
16.83111280352523
 21
4.146903260434476
 72
1
 10
16.83111280352523
 20
4.146903260434476
 11
16.70127532640416
 21
4.371788367541137
 72
1
 10
16.70127532640416
 20
4.371788367541137
 11
16.6841818982587
 21
4.501625844666534
 72
1
 10
16.6841818982587
 20
4.501625844666534
 11
16.72885823360218
 21
5.640907867159074
 72
1
 10
16.72885823360218
 20
5.640907867159074
 11
16.89025695243968
 21
5.860740456675301
 72
1
 10
16.89025695243968
 20
5.860740456675301
 11
17.13355973526019
 21
5.983946258999475
 72
1
 10
17.13355973526019
 20
5.983946258999475
 11
17.26991947442201
 21
5.99999931596663
 72
1
 10
17.26991947442201
 20
5.99999931596663
 11
15.48413887272965
 21
5.99999931596663
 72
1
 10
15.48413887272965
 20
5.99999931596663
 11
15.48411065005028
 21
4.300030313813926
 72
1
 10
15.48411065005028
 20
4.300030313813926
 11
14.08422823300025
 21
4.300053554490176
 72
1
 10
14.08422823300025
 20
4.300053554490176
 11
16.21919288393674
 21
2.164910104587551
 97
0
 75
0
 76
1
 98
1
 10
0.0
 20
0.0
450
0
451
0
460
0.0
461
0.0
452
0
462
0.0
453
0
470

  0
HATCH
  5
36
330
2F
100
AcDbEntity
  8
A-DETL-GENF
100
AcDbHatch
 10
0.0
 20
0.0
 30
0.0
210
0.0
220
0.0
230
1.0
  2
SOLID
 70
1
 71
0
 91
1
 92
1
 93
6
 72
1
 10
-19.54416933367452
 20
5.999999315968795
 11
-12.6000049768458
 21
5.999999315968795
 72
1
 10
-12.6000049768458
 20
5.999999315968795
 11
-12.6000049768458
 21
6.789435033329721
 72
1
 10
-12.6000049768458
 20
6.789435033329721
 11
-24.99999467869861
 21
6.789435033329721
 72
1
 10
-24.99999467869861
 20
6.789435033329721
 11
-24.99999467869861
 21
5.999999315968795
 72
1
 10
-24.99999467869861
 20
5.999999315968795
 11
-20.27135224073509
 21
5.999999315968795
 72
1
 10
-20.27135224073509
 20
5.999999315968795
 11
-19.54416933367452
 21
5.999999315968795
 97
0
 75
0
 76
1
 98
1
 10
0.0
 20
0.0
450
0
451
0
460
0.0
461
0.0
452
0
462
0.0
453
0
470

  0
HATCH
  5
37
330
2F
100
AcDbEntity
  8
A-DETL-GENF
100
AcDbHatch
 10
0.0
 20
0.0
 30
0.0
210
0.0
220
0.0
230
1.0
  2
SOLID
 70
1
 71
0
 91
2
 92
1
 93
22
 72
1
 10
-12.6000049768458
 20
6.789435033329721
 11
-12.6000049768458
 21
8.109985085551802
 72
1
 10
-12.6000049768458
 20
8.109985085551802
 11
-13.23998481021954
 21
8.999999599664141
 72
1
 10
-13.23998481021954
 20
8.999999599664141
 11
-14.31994065808453
 21
7.809935836620553
 72
1
 10
-14.31994065808453
 20
7.809935836620553
 11
-15.43993598239309
 21
8.999999315968115
 72
1
 10
-15.43993598239309
 20
8.999999315968115
 11
-16.53991159993283
 21
7.809935697394161
 72
1
 10
-16.53991159993283
 20
7.809935697394161
 11
-17.6500191076846
 21
8.999876793749626
 72
1
 10
-17.6500191076846
 20
8.999876793749626
 11
-18.41991646114471
 21
8.059935480233765
 72
1
 10
-18.41991646114471
 20
8.059935480233765
 11
-19.9099066953141
 21
8.059910743598232
 72
1
 10
-19.9099066953141
 20
8.059910743598232
 11
-22.16002886493754
 21
8.819822594752457
 72
1
 10
-22.16002886493754
 20
8.819822594752457
 11
-24.6400050803461
 21
8.969641702482846
 72
1
 10
-24.6400050803461
 20
8.969641702482846
 11
-24.80984733452511
 21
8.843075634004027
 72
1
 10
-24.80984733452511
 20
8.843075634004027
 11
-24.86455488767353
 21
8.751326902401422
 72
1
 10
-24.86455488767353
 20
8.751326902401422
 11
-24.81686074782775
 21
8.3449218387453
 72
1
 10
-24.81686074782775
 20
8.3449218387453
 11
-24.65064890350861
 21
8.213624528017858
 72
1
 10
-24.65064890350861
 20
8.213624528017858
 11
-24.54786707745881
 21
8.184527408638761
 72
1
 10
-24.54786707745881
 20
8.184527408638761
 11
-22.04992129205325
 21
7.819822515263741
 72
1
 10
-22.04992129205325
 20
7.819822515263741
 11
-20.75300237532159
 21
7.344089934831675
 72
1
 10
-20.75300237532159
 20
7.344089934831675
 11
-20.66539396366856
 21
7.127502956792414
 72
1
 10
-20.66539396366856
 20
7.127502956792414
 11
-20.74662297730561
 21
6.908443603666689
 72
1
 10
-20.74662297730561
 20
6.908443603666689
 11
-20.95425998526526
 21
6.801336060642324
 72
1
 10
-20.95425998526526
 20
6.801336060642324
 11
-24.99999467869861
 21
6.789435033329721
 72
1
 10
-24.99999467869861
 20
6.789435033329721
 11
-12.6000049768458
 21
6.789435033329721
 97
0
 92
1
 93
4
 72
1
 10
-24.99999467869861
 20
6.789435033329721
 11
-21.11047065942779
 21
6.823346770383529
 72
1
 10
-21.11047065942779
 20
6.823346770383529
 11
-23.51000444452923
 21
7.799803062576694
 72
1
 10
-23.51000444452923
 20
7.799803062576694
 11
-24.99999467869861
 21
7.799778325945493
 72
1
 10
-24.99999467869861
 20
7.799778325945493
 11
-24.99999467869861
 21
6.789435033329721
 97
0
 75
0
 76
1
 98
1
 10
0.0
 20
0.0
450
0
451
0
460
0.0
461
0.0
452
0
462
0.0
453
0
470

  0
HATCH
  5
38
330
2F
100
AcDbEntity
  8
A-DETL-GENF
100
AcDbHatch
 10
0.0
 20
0.0
 30
0.0
210
0.0
220
0.0
230
1.0
  2
SOLID
 70
1
 71
0
 91
1
 92
1
 93
24
 72
1
 10
-16.21919288396273
 20
2.164910104587551
 11
-14.08422823302624
 21
4.300053554490176
 72
1
 10
-14.08422823302624
 20
4.300053554490176
 11
-15.48411065008061
 21
4.300030313813926
 72
1
 10
-15.48411065008061
 20
4.300030313813926
 11
-15.48413887275563
 21
5.999999315968795
 72
1
 10
-15.48413887275563
 20
5.999999315968795
 11
-17.13355973528618
 21
5.983946258999475
 72
1
 10
-17.13355973528618
 20
5.983946258999475
 11
-16.89025695246566
 21
5.860740456675301
 72
1
 10
-16.89025695246566
 20
5.860740456675301
 11
-16.72885823362817
 21
5.640907867159074
 72
1
 10
-16.72885823362817
 20
5.640907867159074
 11
-16.68418189828469
 21
5.371872667016504
 72
1
 10
-16.68418189828469
 20
5.371872667016504
 11
-16.70127532643015
 21
4.371788367541137
 72
1
 10
-16.70127532643015
 20
4.371788367541137
 11
-16.83111280355555
 21
4.146903260434476
 72
1
 10
-16.83111280355555
 20
4.146903260434476
 11
-17.05599791066221
 21
4.017065783309078
 72
1
 10
-17.05599791066221
 20
4.017065783309078
 11
-17.18583538778761
 21
3.999972355165784
 72
1
 10
-17.18583538778761
 20
3.999972355165784
 11
-20.55627166414969
 21
4.053904069644556
 72
1
 10
-20.55627166414969
 20
4.053904069644556
 11
-20.7846827014046
 21
4.251357942405372
 72
1
 10
-20.7846827014046
 20
4.251357942405372
 11
-20.89979216498226
 21
4.530480577107527
 72
1
 10
-20.89979216498226
 20
4.530480577107527
 11
-20.87696805448792
 21
4.831543184860476
 72
1
 10
-20.87696805448792
 20
4.831543184860476
 11
-20.81418869239657
 21
4.969969676660366
 72
1
 10
-20.81418869239657
 20
4.969969676660366
 11
-19.54416933367452
 21
5.999999315968795
 72
1
 10
-19.54416933367452
 20
5.999999315968795
 11
-22.08420839652291
 21
5.999999315968795
 72
1
 10
-22.08420839652291
 20
5.999999315968795
 11
-22.08418017210663
 21
4.299925747054953
 72
1
 10
-22.08418017210663
 20
4.299925747054953
 11
-23.48410572413354
 21
4.29990250566401
 72
1
 10
-23.48410572413354
 20
4.29990250566401
 11
-21.38639632549923
 21
2.202355042129192
 72
1
 10
-21.38639632549923
 20
2.202355042129192
 11
-20.06433426850556
 21
2.90989015301738
 72
1
 10
-20.06433426850556
 20
2.90989015301738
 11
-17.51413975718127
 21
2.909932491034368
 72
1
 10
-17.51413975718127
 20
2.909932491034368
 11
-16.21919288396273
 21
2.164910104587551
 97
0
 75
0
 76
1
 98
1
 10
0.0
 20
0.0
450
0
451
0
460
0.0
461
0.0
452
0
462
0.0
453
0
470

  0
ARC
  5
39
330
2F
100
AcDbEntity
  8
A-DETL-GENF
100
AcDbCircle
 10
-23.50000005596589
 20
1.499999383567037
 30
0.0
 40
1.499999944034998
100
AcDbArc
 50
180.0000006832726
 51
270.0495298994138
  0
LINE
  5
3A
330
2F
100
AcDbEntity
  8
A-DETL-GENF
100
AcDbLine
 10
-24.99999999999864
 20
1.499999365678992
 30
0.0
 11
-25.00000005366278
 21
5.999999315967911
 31
0.0
  0
LINE
  5
3B
330
2F
100
AcDbEntity
  8
A-DETL-GENF
100
AcDbLine
 10
-23.09997551127579
 20
5.999999315968632
 30
0.0
 11
-22.38283785736243
 21
5.282806960889796
 31
0.0
  0
LINE
  5
3C
330
2F
100
AcDbEntity
  8
A-DETL-GENF
100
AcDbLine
 10
-22.66569135165797
 20
4.599975035417425
 30
0.0
 11
-23.50000003696374
 21
4.599975025468392
 31
0.0
  0
LINE
  5
3D
330
2F
100
AcDbEntity
  8
A-DETL-GENF
100
AcDbLine
 10
-23.50000003696374
 20
4.599975025468392
 30
0.0
 11
-23.50000000953882
 21
2.299987232500389
 31
0.0
  0
LINE
  5
3E
330
2F
100
AcDbEntity
  8
A-DETL-GENF
100
AcDbLine
 10
-23.50000000953882
 20
2.299987232500389
 30
0.0
 11
-21.48403607731172
 21
2.299987256540522
 31
0.0
  0
LINE
  5
3F
330
2F
100
AcDbEntity
  8
A-DETL-GENF
100
AcDbLine
 10
-21.20396601405035
 20
2.299987259880325
 30
0.0
 11
-16.45397484006562
 21
2.299987316523411
 31
0.0
  0
LINE
  5
40
330
2F
100
AcDbEntity
  8
A-DETL-GENF
100
AcDbLine
 10
-16.08412697909903
 20
2.299987320933803
 30
0.0
 11
-14.09997559547661
 21
2.299987344594575
 31
0.0
  0
LINE
  5
41
330
2F
100
AcDbEntity
  8
A-DETL-GENF
100
AcDbLine
 10
-14.09997559547661
 20
2.299987344594575
 30
0.0
 11
-14.09997562290153
 21
4.599975137562752
 31
0.0
  0
LINE
  5
42
330
2F
100
AcDbEntity
  8
A-DETL-GENF
100
AcDbLine
 10
-14.09997562290153
 20
4.599975137562752
 30
0.0
 11
-14.93439374312407
 21
4.599975127610909
 31
0.0
  0
LINE
  5
43
330
2F
100
AcDbEntity
  8
A-DETL-GENF
100
AcDbLine
 10
-15.21722567419074
 20
5.282828625852845
 30
0.0
 11
-14.5000002845669
 21
5.999999315968159
 31
0.0
  0
LINE
  5
44
330
2F
100
AcDbEntity
  8
A-DETL-GENF
100
AcDbLine
 10
-12.60000497683079
 20
5.999999569513115
 30
0.0
 11
-10.90002446772465
 21
5.999999589785183
 31
0.0
  0
LINE
  5
45
330
2F
100
AcDbEntity
  8
A-DETL-GENF
100
AcDbLine
 10
-10.90002446772465
 20
5.999999589785183
 30
0.0
 11
-10.90002445341248
 21
4.799987382754149
 31
0.0
  0
LINE
  5
46
330
2F
100
AcDbEntity
  8
A-DETL-GENF
100
AcDbLine
 10
-10.90002445341248
 20
4.799987382754149
 30
0.0
 11
-12.09997562528839
 21
4.799987368444872
 31
0.0
  0
LINE
  5
47
330
2F
100
AcDbEntity
  8
A-DETL-GENF
100
AcDbLine
 10
-12.09997562528839
 20
4.799987368444872
 30
0.0
 11
-12.09997560024643
 21
2.70001178250803
 31
0.0
  0
LINE
  5
48
330
2F
100
AcDbEntity
  8
A-DETL-GENF
100
AcDbLine
 10
-12.09997560024643
 20
2.70001178250803
 30
0.0
 11
-6.500000014308046
 21
2.70001184928708
 31
0.0
  0
LINE
  5
49
330
2F
100
AcDbEntity
  8
A-DETL-GENF
100
AcDbLine
 10
-6.500000014308059
 20
2.700011849287077
 30
0.0
 11
-5.330078145985481
 21
3.259948386674683
 31
0.0
  0
LINE
  5
4A
330
2F
100
AcDbEntity
  8
A-DETL-GENF
100
AcDbLine
 10
-5.330078145985482
 20
3.259948386674683
 30
0.0
 11
-5.00000003219683
 21
4.200011867174631
 31
0.0
  0
LINE
  5
4B
330
2F
100
AcDbEntity
  8
A-DETL-GENF
100
AcDbLine
 10
-5.00000003219683
 20
4.200011867174628
 30
0.0
 11
-5.000000172910297
 21
15.99999966014196
 31
0.0
  0
LINE
  5
4C
330
2F
100
AcDbEntity
  8
A-DETL-GENF
100
AcDbLine
 10
-5.000000172910297
 20
15.99999966014196
 30
0.0
 11
-3.500000172909678
 21
15.99999967802603
 31
0.0
  0
LINE
  5
4D
330
2F
100
AcDbEntity
  8
A-DETL-GENF
100
AcDbLine
 10
-3.500000172909676
 20
15.99999967802603
 30
0.0
 11
-2.000000157407289
 21
14.70001190294657
 31
0.0
  0
LINE
  5
4E
330
2F
100
AcDbEntity
  8
A-DETL-GENF
100
AcDbLine
 10
-2.000000157407289
 20
14.70001190294657
 30
0.0
 11
-2.000000035177244
 21
4.450011902947907
 31
0.0
  0
LINE
  5
4F
330
2F
100
AcDbEntity
  8
A-DETL-GENF
100
AcDbLine
 10
-2.000000035177242
 20
4.450011902947909
 30
0.0
 11
-0.8699951291118626
 21
2.499999709394701
 31
0.0
  0
LINE
  5
50
330
2F
100
AcDbEntity
  8
A-DETL-GENF
100
AcDbLine
 10
-0.8699951291118635
 20
2.499999709394703
 30
0.0
 11
-5.8393237e-09
 21
1.989989954140203
 31
0.0
  0
LINE
  5
51
330
2F
100
AcDbEntity
  8
A-DETL-GENF
100
AcDbLine
 10
0.8699951052610597
 20
2.499999730138874
 30
0.0
 11
-5.8393239e-09
 21
1.989989954140203
 31
0.0
  0
LINE
  5
52
330
2F
100
AcDbEntity
  8
A-DETL-GENF
100
AcDbLine
 10
1.999999964821843
 20
4.450011950647154
 30
0.0
 11
0.8699951052610593
 21
2.499999730138873
 31
0.0
  0
LINE
  5
53
330
2F
100
AcDbEntity
  8
A-DETL-GENF
100
AcDbLine
 10
1.999999842591801
 20
14.70001195064821
 30
0.0
 11
1.999999964821845
 21
4.450011950647153
 31
0.0
  0
LINE
  5
54
330
2F
100
AcDbEntity
  8
A-DETL-GENF
100
AcDbLine
 10
3.499999827088731
 20
15.99999976150358
 30
0.0
 11
1.999999842591801
 21
14.70001195064821
 31
0.0
  0
LINE
  5
55
330
2F
100
AcDbEntity
  8
A-DETL-GENF
100
AcDbLine
 10
4.999999827091755
 20
15.9999997793909
 30
0.0
 11
3.49999982708873
 21
15.99999976150358
 31
0.0
  0
LINE
  5
56
330
2F
100
AcDbEntity
  8
A-DETL-GENF
100
AcDbLine
 10
4.999999967805223
 20
4.200011986420556
 30
0.0
 11
4.999999827091755
 21
15.9999997793909
 31
0.0
  0
LINE
  5
57
330
2F
100
AcDbEntity
  8
A-DETL-GENF
100
AcDbLine
 10
5.33007810401324
 20
3.259948513795539
 30
0.0
 11
4.999999967805222
 21
4.200011986420559
 31
0.0
  0
LINE
  5
58
330
2F
100
AcDbEntity
  8
A-DETL-GENF
100
AcDbLine
 10
6.499999985693315
 20
2.70001200430879
 30
0.0
 11
5.33007810401324
 21
3.259948513795539
 31
0.0
  0
LINE
  5
59
330
2F
100
AcDbEntity
  8
A-DETL-GENF
100
AcDbLine
 10
12.09997557162757
 20
2.700012071085673
 30
0.0
 11
6.499999985693315
 21
2.700012004308788
 31
0.0
  0
LINE
  5
5A
330
2F
100
AcDbEntity
  8
A-DETL-GENF
100
AcDbLine
 10
12.09997554658561
 20
4.799987657023057
 30
0.0
 11
12.09997557162757
 21
2.700012071085673
 31
0.0
  0
LINE
  5
5B
330
2F
100
AcDbEntity
  8
A-DETL-GENF
100
AcDbLine
 10
10.9000243747117
 20
4.799987642715946
 30
0.0
 11
12.09997554658561
 21
4.799987657023057
 31
0.0
  0
LINE
  5
5C
330
2F
100
AcDbEntity
  8
A-DETL-GENF
100
AcDbLine
 10
10.90002436039953
 20
5.999999849746776
 30
0.0
 11
10.9000243747117
 21
4.799987642715946
 31
0.0
  0
LINE
  5
5D
330
2F
100
AcDbEntity
  8
A-DETL-GENF
100
AcDbLine
 10
12.60000497683039
 20
5.999999870018846
 30
0.0
 11
10.90002436039953
 21
5.999999849746776
 31
0.0
  0
LINE
  5
5E
330
2F
100
AcDbEntity
  8
A-DETL-GENF
100
AcDbLine
 10
15.30097119696271
 20
5.199089766680186
 30
0.0
 11
14.50000052309565
 21
5.999999315964933
 31
0.0
  0
LINE
  5
5F
330
2F
100
AcDbEntity
  8
A-DETL-GENF
100
AcDbLine
 10
14.09997554897157
 20
4.599975473845025
 30
0.0
 11
15.0528233319166
 21
4.599975485205903
 31
0.0
  0
LINE
  5
60
330
2F
100
AcDbEntity
  8
A-DETL-GENF
100
AcDbLine
 10
14.09997557639649
 20
2.299987680876657
 30
0.0
 11
14.09997554897157
 21
4.599975473845025
 31
0.0
  0
LINE
  5
61
330
2F
100
AcDbEntity
  8
A-DETL-GENF
100
AcDbLine
 10
23.49999999045916
 20
2.299987792970843
 30
0.0
 11
21.48403658973851
 21
2.299987768930717
 31
0.0
  0
LINE
  5
62
330
2F
100
AcDbEntity
  8
A-DETL-GENF
100
AcDbLine
 10
21.20396506910702
 20
2.299987765590897
 30
0.0
 11
16.45397552215096
 21
2.29998770894783
 31
0.0
  0
LINE
  5
63
330
2F
100
AcDbEntity
  8
A-DETL-GENF
100
AcDbLine
 10
16.08412659552666
 20
2.299987704537425
 30
0.0
 11
14.09997557639649
 21
2.299987680876657
 31
0.0
  0
LINE
  5
64
330
2F
100
AcDbEntity
  8
A-DETL-GENF
100
AcDbLine
 10
23.49999996303424
 20
4.599975585939386
 30
0.0
 11
23.49999999045916
 21
2.299987792970842
 31
0.0
  0
LINE
  5
65
330
2F
100
AcDbEntity
  8
A-DETL-GENF
100
AcDbLine
 10
22.55157138694007
 20
4.599975574629486
 30
0.0
 11
23.49999996303424
 21
4.599975585939386
 31
0.0
  0
LINE
  5
66
330
2F
100
AcDbEntity
  8
A-DETL-GENF
100
AcDbLine
 10
23.09997485306306
 20
5.999999315967211
 30
0.0
 11
22.30214589795533
 21
5.202109466738265
 31
0.0
  0
LINE
  5
67
330
2F
100
AcDbEntity
  8
A-DETL-GENF
100
AcDbLine
 10
25.00000000000298
 20
1.499999961925535
 30
0.0
 11
24.99999994633885
 21
5.999999315966239
 31
0.0
  0
ARC
  5
68
330
2F
100
AcDbEntity
  8
A-DETL-GENF
100
AcDbCircle
 10
23.50000005596589
 20
1.49999994403749
 30
0.0
 40
1.499999944034992
100
AcDbArc
 50
269.9999999999999
 51
6.832730312e-07
  0
LINE
  5
69
330
2F
100
AcDbEntity
  8
A-DETL-GENF
100
AcDbLine
 10
-23.49870336644103
 20
7.59e-14
 30
0.0
 11
23.50000005596589
 21
-7.59e-14
 31
0.0
  0
ARC
  5
6A
330
2F
100
AcDbEntity
  8
A-DETL-GENF
100
AcDbCircle
 10
15.05282332773222
 20
4.950922959062877
 30
0.0
 40
0.3509474738569758
100
AcDbArc
 50
270.0000006831414
 51
45.00218629366804
  0
ARC
  5
6B
330
2F
100
AcDbEntity
  8
A-DETL-GENF
100
AcDbCircle
 10
22.55157138273384
 20
4.952703017852634
 30
0.0
 40
0.3527274432231491
100
AcDbArc
 50
135.0021864605037
 51
270.0000006832443
  0
ARC
  5
6C
330
2F
100
AcDbEntity
  8
A-DETL-GENF
100
AcDbCircle
 10
-14.93439374789475
 20
4.99997512761091
 30
0.0
 40
0.4000000000000008
100
AcDbArc
 50
134.9978150728224
 51
270.0000006833481
  0
ARC
  5
6D
330
2F
100
AcDbEntity
  8
A-DETL-GENF
100
AcDbCircle
 10
-22.66569135642793
 20
4.999975035417426
 30
0.0
 40
0.400000000000005
100
AcDbArc
 50
270.0000006832459
 51
44.99781490598773
  0
LINE
  5
6E
330
2F
100
AcDbEntity
  8
A-DETL-GENF
100
AcDbLine
 10
12.60000497683154
 20
5.999999315967182
 30
0.0
 11
15.48413887274246
 21
5.999999315967188
 31
0.0
  0
LINE
  5
6F
330
2F
100
AcDbEntity
  8
A-DETL-GENF
100
AcDbLine
 10
17.2699194744332
 20
5.99999931596719
 30
0.0
 11
19.54416933366149
 21
5.999999315967196
 31
0.0
  0
LINE
  5
70
330
2F
100
AcDbEntity
  8
A-DETL-GENF
100
AcDbLine
 10
22.08420839650989
 20
5.9999993159672
 30
0.0
 11
24.99999467868521
 21
5.999999315967206
 31
0.0
  0
LINE
  5
71
330
2F
100
AcDbEntity
  8
A-DETL-GENF
100
AcDbLine
 10
24.9999946786852
 20
5.999999315967206
 30
0.0
 11
24.9999946786852
 21
6.789435033329639
 31
0.0
  0
LINE
  5
72
330
2F
100
AcDbEntity
  8
A-DETL-GENF
100
AcDbLine
 10
12.60000497683153
 20
6.789435033329616
 30
0.0
 11
12.60000497683153
 21
5.999999315967182
 31
0.0
  0
LINE
  5
73
330
2F
100
AcDbEntity
  8
A-DETL-GENF
100
AcDbLine
 10
24.9999946786852
 20
6.78943503332966
 30
0.0
 11
24.9999946786852
 21
7.799778325943884
 31
0.0
  0
LINE
  5
74
330
2F
100
AcDbEntity
  8
A-DETL-GENF
100
AcDbLine
 10
24.9999946786852
 20
7.799778325943884
 30
0.0
 11
23.51000444451557
 21
7.799803062577442
 31
0.0
  0
LINE
  5
75
330
2F
100
AcDbEntity
  8
A-DETL-GENF
100
AcDbLine
 10
23.51000444451558
 20
7.799803062577441
 30
0.0
 11
21.11047065941409
 21
6.823346770381351
 31
0.0
  0
ARC
  5
76
330
2F
100
AcDbEntity
  8
A-DETL-GENF
100
AcDbCircle
 10
20.98862473086793
 20
7.122769718914985
 30
0.0
 40
0.323265420996203
100
AcDbArc
 50
108.5472218163947
 51
292.1431693040286
  0
LINE
  5
77
330
2F
100
AcDbEntity
  8
A-DETL-GENF
100
AcDbLine
 10
20.88579848274648
 20
7.429245321710896
 30
0.0
 11
22.04992129203909
 21
7.819822515262822
 31
0.0
  0
LINE
  5
78
330
2F
100
AcDbEntity
  8
A-DETL-GENF
100
AcDbLine
 10
22.04992129203906
 20
7.819822515262816
 30
0.0
 11
24.54786707744523
 21
8.18452740863968
 31
0.0
  0
ARC
  5
79
330
2F
100
AcDbEntity
  8
A-DETL-GENF
100
AcDbCircle
 10
24.48875070838046
 20
8.589428707293928
 30
0.0
 40
0.4091940942186908
100
AcDbArc
 50
278.3066031806959
 51
98.3066031785798
  0
LINE
  5
7A
330
2F
100
AcDbEntity
  8
A-DETL-GENF
100
AcDbLine
 10
24.42963433933061
 20
8.994330005950548
 30
0.0
 11
22.16002886492358
 21
8.819822594751662
 31
0.0
  0
LINE
  5
7B
330
2F
100
AcDbEntity
  8
A-DETL-GENF
100
AcDbLine
 10
22.16002886492358
 20
8.819822594751663
 30
0.0
 11
19.90990669530009
 21
8.059910743596603
 31
0.0
  0
LINE
  5
7C
330
2F
100
AcDbEntity
  8
A-DETL-GENF
100
AcDbLine
 10
19.9099066953001
 20
8.059910743596605
 30
0.0
 11
18.41991646113148
 21
8.059935480232326
 31
0.0
  0
LINE
  5
7D
330
2F
100
AcDbEntity
  8
A-DETL-GENF
100
AcDbLine
 10
18.41991646113148
 20
8.059935480232326
 30
0.0
 11
17.65001910767088
 21
8.999876793748557
 31
0.0
  0
LINE
  5
7E
330
2F
100
AcDbEntity
  8
A-DETL-GENF
100
AcDbLine
 10
17.65001910767088
 20
8.999876793748555
 30
0.0
 11
16.5399115999198
 21
7.809935697393142
 31
0.0
  0
LINE
  5
7F
330
2F
100
AcDbEntity
  8
A-DETL-GENF
100
AcDbLine
 10
16.53991159991981
 20
7.809935697393142
 30
0.0
 11
15.43993598237918
 21
8.999999315967194
 31
0.0
  0
LINE
  5
80
330
2F
100
AcDbEntity
  8
A-DETL-GENF
100
AcDbLine
 10
15.43993598237918
 20
8.999999315967194
 30
0.0
 11
14.31994065807173
 21
7.809935836619754
 31
0.0
  0
LINE
  5
81
330
2F
100
AcDbEntity
  8
A-DETL-GENF
100
AcDbLine
 10
14.31994065807173
 20
7.809935836619754
 30
0.0
 11
13.23998481020705
 21
8.999999599661654
 31
0.0
  0
LINE
  5
82
330
2F
100
AcDbEntity
  8
A-DETL-GENF
100
AcDbLine
 10
13.23998481020705
 20
8.999999599661654
 30
0.0
 11
12.60000497683153
 21
8.10998508555133
 31
0.0
  0
LINE
  5
83
330
2F
100
AcDbEntity
  8
A-DETL-GENF
100
AcDbLine
 10
12.60000497683153
 20
8.10998508555133
 30
0.0
 11
12.60000497683153
 21
6.789435033329656
 31
0.0
  0
LINE
  5
84
330
2F
100
AcDbEntity
  8
A-DETL-GENF
100
AcDbLine
 10
21.38639632548684
 20
2.202355042128236
 30
0.0
 11
23.48410572412221
 21
4.299902505662647
 31
0.0
  0
LINE
  5
85
330
2F
100
AcDbEntity
  8
A-DETL-GENF
100
AcDbLine
 10
23.48410572412221
 20
4.299902505662648
 30
0.0
 11
22.08418017209632
 21
4.299925747055527
 31
0.0
  0
LINE
  5
86
330
2F
100
AcDbEntity
  8
A-DETL-GENF
100
AcDbLine
 10
22.08418017209632
 20
4.299925747055527
 30
0.0
 11
22.08420839650989
 21
5.999999315967197
 31
0.0
  0
LINE
  5
87
330
2F
100
AcDbEntity
  8
A-DETL-GENF
100
AcDbLine
 10
19.54416933366135
 20
5.999999315967196
 30
0.0
 11
20.8141886923796
 21
4.969969676658769
 31
0.0
  0
ARC
  5
88
330
2F
100
AcDbEntity
  8
A-DETL-GENF
100
AcDbCircle
 10
20.25520547022705
 20
4.633009746006909
 30
0.0
 40
0.6526900010824132
100
AcDbArc
 50
284.0958107570292
 51
31.08193693023933
  0
LINE
  5
89
330
2F
100
AcDbEntity
  8
A-DETL-GENF
100
AcDbLine
 10
20.41416426774388
 20
3.999972355164187
 30
0.0
 11
17.18583538777281
 21
3.999972355164175
 31
0.0
  0
ARC
  5
8A
330
2F
100
AcDbEntity
  8
A-DETL-GENF
100
AcDbCircle
 10
17.18583538777281
 20
4.501625844664925
 30
0.0
 40
0.501653489500634
100
AcDbArc
 50
180.0000000000005
 51
270.0000000000002
  0
LINE
  5
8B
330
2F
100
AcDbEntity
  8
A-DETL-GENF
100
AcDbLine
 10
16.68418189827206
 20
4.501625844664923
 30
0.0
 11
16.68418189827206
 21
5.371872667016397
 31
0.0
  0
ARC
  5
8C
330
2F
100
AcDbEntity
  8
A-DETL-GENF
100
AcDbCircle
 10
17.2699194744332
 20
5.412831428343405
 30
0.0
 40
0.5871678876237789
100
AcDbArc
 50
90.0
 51
183.9999999990791
  0
LINE
  5
8D
330
2F
100
AcDbEntity
  8
A-DETL-GENF
100
AcDbLine
 10
15.48413887274337
 20
5.999999315967186
 30
0.0
 11
15.48411065006581
 21
4.300030313812983
 31
0.0
  0
LINE
  5
8E
330
2F
100
AcDbEntity
  8
A-DETL-GENF
100
AcDbLine
 10
15.48411065006581
 20
4.300030313812983
 30
0.0
 11
14.084228233011
 21
4.300053554489742
 31
0.0
  0
LINE
  5
8F
330
2F
100
AcDbEntity
  8
A-DETL-GENF
100
AcDbLine
 10
14.084228233011
 20
4.300053554489741
 30
0.0
 11
16.21919288394992
 21
2.164910104586504
 31
0.0
  0
LINE
  5
90
330
2F
100
AcDbEntity
  8
A-DETL-GENF
100
AcDbLine
 10
16.21919288394991
 20
2.164910104586504
 30
0.0
 11
17.51413975716849
 21
2.909932491033587
 31
0.0
  0
LINE
  5
91
330
2F
100
AcDbEntity
  8
A-DETL-GENF
100
AcDbLine
 10
17.51413975716849
 20
2.909932491033587
 30
0.0
 11
20.06433426849048
 21
2.909890153016059
 31
0.0
  0
LINE
  5
92
330
2F
100
AcDbEntity
  8
A-DETL-GENF
100
AcDbLine
 10
20.06433426849048
 20
2.909890153016059
 30
0.0
 11
21.38639632548684
 21
2.202355042128236
 31
0.0
  0
LINE
  5
93
330
2F
100
AcDbEntity
  8
A-DETL-GENF
100
AcDbLine
 10
-12.60000497683158
 20
5.999999315967263
 30
0.0
 11
-12.60000497683158
 21
6.789435033329698
 31
0.0
  0
LINE
  5
94
330
2F
100
AcDbEntity
  8
A-DETL-GENF
100
AcDbLine
 10
-24.99999467868524
 20
6.789435033329721
 30
0.0
 11
-24.99999467868525
 21
5.999999315967286
 31
0.0
  0
LINE
  5
95
330
2F
100
AcDbEntity
  8
A-DETL-GENF
100
AcDbLine
 10
-24.99999467868526
 20
5.999999315967286
 30
0.0
 11
-22.08420839650993
 21
5.999999315967281
 31
0.0
  0
LINE
  5
96
330
2F
100
AcDbEntity
  8
A-DETL-GENF
100
AcDbLine
 10
-19.54416933366153
 20
5.999999315967277
 30
0.0
 11
-17.26991947443325
 21
5.999999315967272
 31
0.0
  0
LINE
  5
97
330
2F
100
AcDbEntity
  8
A-DETL-GENF
100
AcDbLine
 10
-15.48413887274251
 20
5.999999315967269
 30
0.0
 11
-12.60000497683159
 21
5.999999315967263
 31
0.0
  0
LINE
  5
98
330
2F
100
AcDbEntity
  8
A-DETL-GENF
100
AcDbLine
 10
-12.60000497683157
 20
6.789435033329738
 30
0.0
 11
-12.60000497683157
 21
8.109985085551413
 31
0.0
  0
LINE
  5
99
330
2F
100
AcDbEntity
  8
A-DETL-GENF
100
AcDbLine
 10
-12.60000497683157
 20
8.109985085551413
 30
0.0
 11
-13.2399848102071
 21
8.999999599661734
 31
0.0
  0
LINE
  5
9A
330
2F
100
AcDbEntity
  8
A-DETL-GENF
100
AcDbLine
 10
-13.2399848102071
 20
8.999999599661734
 30
0.0
 11
-14.31994065807178
 21
7.809935836619835
 31
0.0
  0
LINE
  5
9B
330
2F
100
AcDbEntity
  8
A-DETL-GENF
100
AcDbLine
 10
-14.31994065807178
 20
7.809935836619835
 30
0.0
 11
-15.43993598237923
 21
8.999999315967276
 31
0.0
  0
LINE
  5
9C
330
2F
100
AcDbEntity
  8
A-DETL-GENF
100
AcDbLine
 10
-15.43993598237923
 20
8.999999315967276
 30
0.0
 11
-16.53991159991985
 21
7.809935697393224
 31
0.0
  0
LINE
  5
9D
330
2F
100
AcDbEntity
  8
A-DETL-GENF
100
AcDbLine
 10
-16.53991159991985
 20
7.809935697393224
 30
0.0
 11
-17.65001910767092
 21
8.999876793748637
 31
0.0
  0
LINE
  5
9E
330
2F
100
AcDbEntity
  8
A-DETL-GENF
100
AcDbLine
 10
-17.65001910767092
 20
8.999876793748637
 30
0.0
 11
-18.41991646113153
 21
8.05993548023241
 31
0.0
  0
LINE
  5
9F
330
2F
100
AcDbEntity
  8
A-DETL-GENF
100
AcDbLine
 10
-18.41991646113153
 20
8.05993548023241
 30
0.0
 11
-19.90990669530015
 21
8.059910743596687
 31
0.0
  0
LINE
  5
A0
330
2F
100
AcDbEntity
  8
A-DETL-GENF
100
AcDbLine
 10
-19.90990669530014
 20
8.059910743596685
 30
0.0
 11
-22.16002886492363
 21
8.819822594751743
 31
0.0
  0
LINE
  5
A1
330
2F
100
AcDbEntity
  8
A-DETL-GENF
100
AcDbLine
 10
-22.16002886492363
 20
8.819822594751743
 30
0.0
 11
-24.42963433933066
 21
8.994330005950632
 31
0.0
  0
ARC
  5
A2
330
2F
100
AcDbEntity
  8
A-DETL-GENF
100
AcDbCircle
 10
-24.4887507083805
 20
8.589428707294013
 30
0.0
 40
0.4091940942186884
100
AcDbArc
 50
81.69339682142012
 51
261.6933968193033
  0
LINE
  5
A3
330
2F
100
AcDbEntity
  8
A-DETL-GENF
100
AcDbLine
 10
-24.54786707744527
 20
8.184527408639761
 30
0.0
 11
-22.04992129203912
 21
7.819822515262898
 31
0.0
  0
LINE
  5
A4
330
2F
100
AcDbEntity
  8
A-DETL-GENF
100
AcDbLine
 10
-22.04992129203913
 20
7.819822515262903
 30
0.0
 11
-20.88579848274653
 21
7.429245321710978
 31
0.0
  0
ARC
  5
A5
330
2F
100
AcDbEntity
  8
A-DETL-GENF
100
AcDbCircle
 10
-20.98862473086798
 20
7.122769718915066
 30
0.0
 40
0.323265420996204
100
AcDbArc
 50
247.8568306959708
 51
71.45277818360599
  0
LINE
  5
A6
330
2F
100
AcDbEntity
  8
A-DETL-GENF
100
AcDbLine
 10
-21.11047065941414
 20
6.823346770381433
 30
0.0
 11
-23.51000444451562
 21
7.799803062577522
 31
0.0
  0
LINE
  5
A7
330
2F
100
AcDbEntity
  8
A-DETL-GENF
100
AcDbLine
 10
-23.51000444451562
 20
7.799803062577523
 30
0.0
 11
-24.99999467868525
 21
7.799778325943965
 31
0.0
  0
LINE
  5
A8
330
2F
100
AcDbEntity
  8
A-DETL-GENF
100
AcDbLine
 10
-24.99999467868525
 20
7.799778325943965
 30
0.0
 11
-24.99999467868525
 21
6.789435033329741
 31
0.0
  0
LINE
  5
A9
330
2F
100
AcDbEntity
  8
A-DETL-GENF
100
AcDbLine
 10
-21.38639632548688
 20
2.202355042128318
 30
0.0
 11
-20.06433426849053
 21
2.90989015301614
 31
0.0
  0
LINE
  5
AA
330
2F
100
AcDbEntity
  8
A-DETL-GENF
100
AcDbLine
 10
-20.06433426849053
 20
2.90989015301614
 30
0.0
 11
-17.51413975716854
 21
2.909932491033668
 31
0.0
  0
LINE
  5
AB
330
2F
100
AcDbEntity
  8
A-DETL-GENF
100
AcDbLine
 10
-17.51413975716854
 20
2.909932491033668
 30
0.0
 11
-16.21919288394996
 21
2.164910104586585
 31
0.0
  0
LINE
  5
AC
330
2F
100
AcDbEntity
  8
A-DETL-GENF
100
AcDbLine
 10
-16.21919288394996
 20
2.164910104586585
 30
0.0
 11
-14.08422823301105
 21
4.300053554489822
 31
0.0
  0
LINE
  5
AD
330
2F
100
AcDbEntity
  8
A-DETL-GENF
100
AcDbLine
 10
-14.08422823301105
 20
4.300053554489823
 30
0.0
 11
-15.48411065006585
 21
4.300030313813063
 31
0.0
  0
LINE
  5
AE
330
2F
100
AcDbEntity
  8
A-DETL-GENF
100
AcDbLine
 10
-15.48411065006585
 20
4.300030313813063
 30
0.0
 11
-15.48413887274342
 21
5.999999315967268
 31
0.0
  0
ARC
  5
AF
330
2F
100
AcDbEntity
  8
A-DETL-GENF
100
AcDbCircle
 10
-17.26991947443324
 20
5.412831428343488
 30
0.0
 40
0.5871678876237799
100
AcDbArc
 50
356.0000000009198
 51
90.00000000000006
  0
LINE
  5
B0
330
2F
100
AcDbEntity
  8
A-DETL-GENF
100
AcDbLine
 10
-16.6841818982721
 20
5.371872667016479
 30
0.0
 11
-16.6841818982721
 21
4.501625844665004
 31
0.0
  0
ARC
  5
B1
330
2F
100
AcDbEntity
  8
A-DETL-GENF
100
AcDbCircle
 10
-17.18583538777286
 20
4.501625844665007
 30
0.0
 40
0.501653489500632
100
AcDbArc
 50
269.9999999999992
 51
359.9999999999992
  0
LINE
  5
B2
330
2F
100
AcDbEntity
  8
A-DETL-GENF
100
AcDbLine
 10
-17.18583538777286
 20
3.999972355164256
 30
0.0
 11
-20.41416426774393
 21
3.999972355164268
 31
0.0
  0
ARC
  5
B3
330
2F
100
AcDbEntity
  8
A-DETL-GENF
100
AcDbCircle
 10
-20.2552054702271
 20
4.633009746006991
 30
0.0
 40
0.6526900010824102
100
AcDbArc
 50
148.9180630697608
 51
255.90418924297
  0
LINE
  5
B4
330
2F
100
AcDbEntity
  8
A-DETL-GENF
100
AcDbLine
 10
-20.81418869237965
 20
4.96996967665885
 30
0.0
 11
-19.5441693336614
 21
5.999999315967277
 31
0.0
  0
LINE
  5
B5
330
2F
100
AcDbEntity
  8
A-DETL-GENF
100
AcDbLine
 10
-22.08420839650993
 20
5.999999315967277
 30
0.0
 11
-22.08418017209636
 21
4.299925747055609
 31
0.0
  0
LINE
  5
B6
330
2F
100
AcDbEntity
  8
A-DETL-GENF
100
AcDbLine
 10
-22.08418017209636
 20
4.299925747055609
 30
0.0
 11
-23.48410572412225
 21
4.299902505662728
 31
0.0
  0
LINE
  5
B7
330
2F
100
AcDbEntity
  8
A-DETL-GENF
100
AcDbLine
 10
-23.48410572412225
 20
4.299902505662728
 30
0.0
 11
-21.38639632548688
 21
2.202355042128318
 31
0.0
  0
ENDBLK
  5
31
330
2F
100
AcDbEntity
  8
0
100
AcDbBlockEnd
  0
ENDSEC
  0
SECTION
  2
ENTITIES
  0
INSERT
  5
B9
330
17
100
AcDbEntity
  8
0
100
AcDbBlockReference
  2
31 Schuco FW50 regel-plat - 31 g Schuco FW50 regel-plat-427123-00_0 Basismaterialen
 10
0.0
 20
0.0
 30
0.0
  0
ENDSEC
  0
SECTION
  2
OBJECTS
  0
DICTIONARY
  5
A
330
0
100
AcDbDictionary
281
1
  3
ACAD_COLOR
350
B
  3
ACAD_GROUP
350
C
  3
ACAD_LAYOUT
350
D
  3
ACAD_MATERIAL
350
E
  3
ACAD_MLEADERSTYLE
350
F
  3
ACAD_MLINESTYLE
350
10
  3
ACAD_PLOTSETTINGS
350
11
  3
ACAD_PLOTSTYLENAME
350
12
  3
ACAD_SCALELIST
350
14
  3
ACAD_TABLESTYLE
350
15
  3
ACAD_VISUALSTYLE
350
16
  3
EZDXF_META
350
2D
  0
DICTIONARY
  5
B
330
A
100
AcDbDictionary
281
1
  0
DICTIONARY
  5
C
330
A
100
AcDbDictionary
281
1
  0
DICTIONARY
  5
D
330
A
100
AcDbDictionary
281
1
  3
Model
350
1A
  3
Layout1
350
1E
  0
DICTIONARY
  5
E
330
A
100
AcDbDictionary
281
1
  3
ByBlock
350
1F
  3
ByLayer
350
20
  3
Global
350
21
  0
DICTIONARY
  5
F
330
A
100
AcDbDictionary
281
1
  3
Standard
350
2C
  0
DICTIONARY
  5
10
330
A
100
AcDbDictionary
281
1
  3
Standard
350
22
  0
DICTIONARY
  5
11
330
A
100
AcDbDictionary
281
1
  0
ACDBDICTIONARYWDFLT
  5
12
330
A
100
AcDbDictionary
281
1
  3
Normal
350
13
100
AcDbDictionaryWithDefault
340
13
  0
ACDBPLACEHOLDER
  5
13
330
12
  0
DICTIONARY
  5
14
330
A
100
AcDbDictionary
281
1
  0
DICTIONARY
  5
15
330
A
100
AcDbDictionary
281
1
  0
DICTIONARY
  5
16
330
A
100
AcDbDictionary
281
1
  0
LAYOUT
  5
1A
330
D
100
AcDbPlotSettings
  1

  4
A3
  6

 40
7.5
 41
20.0
 42
7.5
 43
20.0
 44
420.0
 45
297.0
 46
0.0
 47
0.0
 48
0.0
 49
0.0
140
0.0
141
0.0
142
1.0
143
1.0
 70
1024
 72
1
 73
0
 74
5
  7

 75
16
 76
0
 77
2
 78
300
147
1.0
148
0.0
149
0.0
100
AcDbLayout
  1
Model
 70
1
 71
0
 10
0.0
 20
0.0
 11
420.0
 21
297.0
 12
0.0
 22
0.0
 32
0.0
 14
1e+20
 24
1e+20
 34
1e+20
 15
-1e+20
 25
-1e+20
 35
-1e+20
146
0.0
 13
0.0
 23
0.0
 33
0.0
 16
1.0
 26
0.0
 36
0.0
 17
0.0
 27
1.0
 37
0.0
 76
1
330
17
  0
LAYOUT
  5
1E
330
D
100
AcDbPlotSettings
  1

  4
A3
  6

 40
7.5
 41
20.0
 42
7.5
 43
20.0
 44
420.0
 45
297.0
 46
0.0
 47
0.0
 48
0.0
 49
0.0
140
0.0
141
0.0
142
1.0
143
1.0
 70
0
 72
1
 73
0
 74
5
  7

 75
16
 76
0
 77
2
 78
300
147
1.0
148
0.0
149
0.0
100
AcDbLayout
  1
Layout1
 70
1
 71
1
 10
0.0
 20
0.0
 11
420.0
 21
297.0
 12
0.0
 22
0.0
 32
0.0
 14
1e+20
 24
1e+20
 34
1e+20
 15
-1e+20
 25
-1e+20
 35
-1e+20
146
0.0
 13
0.0
 23
0.0
 33
0.0
 16
1.0
 26
0.0
 36
0.0
 17
0.0
 27
1.0
 37
0.0
 76
1
330
1B
  0
MATERIAL
  5
1F
102
{ACAD_REACTORS
330
E
102
}
330
E
100
AcDbMaterial
  1
ByBlock
  2

 70
0
 40
1.0
 71
1
 41
1.0
 91
-1023410177
 42
1.0
 72
1
  3

 73
1
 74
1
 75
1
 44
0.5
 73
0
 45
1.0
 46
1.0
 77
1
  4

 78
1
 79
1
170
1
 48
1.0
171
1
  6

172
1
173
1
174
1
140
1.0
141
1.0
175
1
  7

176
1
177
1
178
1
143
1.0
179
1
  8

270
1
271
1
272
1
145
1.0
146
1.0
273
1
  9

274
1
275
1
276
1
 42
1.0
 72
1
  3

 73
1
 74
1
 75
1
 94
63
  0
MATERIAL
  5
20
102
{ACAD_REACTORS
330
E
102
}
330
E
100
AcDbMaterial
  1
ByLayer
  2

 70
0
 40
1.0
 71
1
 41
1.0
 91
-1023410177
 42
1.0
 72
1
  3

 73
1
 74
1
 75
1
 44
0.5
 73
0
 45
1.0
 46
1.0
 77
1
  4

 78
1
 79
1
170
1
 48
1.0
171
1
  6

172
1
173
1
174
1
140
1.0
141
1.0
175
1
  7

176
1
177
1
178
1
143
1.0
179
1
  8

270
1
271
1
272
1
145
1.0
146
1.0
273
1
  9

274
1
275
1
276
1
 42
1.0
 72
1
  3

 73
1
 74
1
 75
1
 94
63
  0
MATERIAL
  5
21
102
{ACAD_REACTORS
330
E
102
}
330
E
100
AcDbMaterial
  1
Global
  2

 70
0
 40
1.0
 71
1
 41
1.0
 91
-1023410177
 42
1.0
 72
1
  3

 73
1
 74
1
 75
1
 44
0.5
 73
0
 45
1.0
 46
1.0
 77
1
  4

 78
1
 79
1
170
1
 48
1.0
171
1
  6

172
1
173
1
174
1
140
1.0
141
1.0
175
1
  7

176
1
177
1
178
1
143
1.0
179
1
  8

270
1
271
1
272
1
145
1.0
146
1.0
273
1
  9

274
1
275
1
276
1
 42
1.0
 72
1
  3

 73
1
 74
1
 75
1
 94
63
  0
MLINESTYLE
  5
22
102
{ACAD_REACTORS
330
10
102
}
330
10
100
AcDbMlineStyle
  2
Standard
 70
0
  3

 62
256
 51
90.0
 52
90.0
 71
2
 49
0.5
 62
256
  6
BYLAYER
 49
-0.5
 62
256
  6
BYLAYER
  0
MLEADERSTYLE
  5
2C
102
{ACAD_REACTORS
330
F
102
}
330
F
100
AcDbMLeaderStyle
179
2
170
2
171
1
172
0
 90
2
 40
0.0
 41
0.0
173
1
 91
-1056964608
 92
-2
290
1
 42
2.0
291
1
 43
8.0
  3
Standard
 44
4.0
300

342
29
174
1
175
1
176
0
178
1
 93
-1056964608
 45
4.0
292
0
297
0
 46
4.0
 94
-1056964608
 47
1.0
 49
1.0
140
1.0
294
1
141
0.0
177
0
142
1.0
295
0
296
0
143
3.75
271
0
272
9
273
9
  0
DICTIONARY
  5
2D
330
A
100
AcDbDictionary
280
1
281
1
  3
CREATED_BY_EZDXF
350
2E
  3
WRITTEN_BY_EZDXF
350
BD
  0
DICTIONARYVAR
  5
2E
330
2D
100
DictionaryVariables
280
0
  1
1.4.3 @ 2026-02-13T04:54:12.387652+00:00
  0
DICTIONARYVAR
  5
BD
330
2D
100
DictionaryVariables
280
0
  1
1.4.3 @ 2026-02-13T04:54:12.395445+00:00
  0
ENDSEC
  0
EOF
