  0
SECTION
  2
HEADER
  9
$ACADVER
  1
AC1032
  9
$ACADMAINTVER
 90
4
  9
$DWGCODEPAGE
  3
ANSI_1252
  9
$LASTSAVEDBY
  1
ezdxf
  9
$REQUIREDVERSIONS
160
0
  9
$INSBASE
 10
0.0
 20
0.0
 30
0.0
  9
$EXTMIN
 10
1e+20
 20
1e+20
 30
1e+20
  9
$EXTMAX
 10
-1e+20
 20
-1e+20
 30
-1e+20
  9
$LIMMIN
 10
0.0
 20
0.0
  9
$LIMMAX
 10
420.0
 20
297.0
  9
$ORTHOMODE
 70
0
  9
$REGENMODE
 70
1
  9
$FILLMODE
 70
1
  9
$QTEXTMODE
 70
0
  9
$MIRRTEXT
 70
1
  9
$LTSCALE
 40
1.0
  9
$ATTMODE
 70
1
  9
$TEXTSIZE
 40
2.5
  9
$TRACEWID
 40
1.0
  9
$TEXTSTYLE
  7
Standard
  9
$CLAYER
  8
0
  9
$CELTYPE
  6
ByLayer
  9
$CECOLOR
 62
256
  9
$CELTSCALE
 40
1.0
  9
$DISPSILH
 70
0
  9
$DIMSCALE
 40
1.0
  9
$DIMASZ
 40
2.5
  9
$DIMEXO
 40
0.625
  9
$DIMDLI
 40
3.75
  9
$DIMRND
 40
0.0
  9
$DIMDLE
 40
0.0
  9
$DIMEXE
 40
1.25
  9
$DIMTP
 40
0.0
  9
$DIMTM
 40
0.0
  9
$DIMTXT
 40
2.5
  9
$DIMCEN
 40
2.5
  9
$DIMTSZ
 40
0.0
  9
$DIMTOL
 70
0
  9
$DIMLIM
 70
0
  9
$DIMTIH
 70
0
  9
$DIMTOH
 70
0
  9
$DIMSE1
 70
0
  9
$DIMSE2
 70
0
  9
$DIMTAD
 70
1
  9
$DIMZIN
 70
8
  9
$DIMBLK
  1

  9
$DIMASO
 70
1
  9
$DIMSHO
 70
1
  9
$DIMPOST
  1

  9
$DIMAPOST
  1

  9
$DIMALT
 70
0
  9
$DIMALTD
 70
3
  9
$DIMALTF
 40
0.03937007874
  9
$DIMLFAC
 40
1.0
  9
$DIMTOFL
 70
1
  9
$DIMTVP
 40
0.0
  9
$DIMTIX
 70
0
  9
$DIMSOXD
 70
0
  9
$DIMSAH
 70
0
  9
$DIMBLK1
  1

  9
$DIMBLK2
  1

  9
$DIMSTYLE
  2
ISO-25
  9
$DIMCLRD
 70
0
  9
$DIMCLRE
 70
0
  9
$DIMCLRT
 70
0
  9
$DIMTFAC
 40
1.0
  9
$DIMGAP
 40
0.625
  9
$DIMJUST
 70
0
  9
$DIMSD1
 70
0
  9
$DIMSD2
 70
0
  9
$DIMTOLJ
 70
0
  9
$DIMTZIN
 70
8
  9
$DIMALTZ
 70
0
  9
$DIMALTTZ
 70
0
  9
$DIMUPT
 70
0
  9
$DIMDEC
 70
2
  9
$DIMTDEC
 70
2
  9
$DIMALTU
 70
2
  9
$DIMALTTD
 70
3
  9
$DIMTXSTY
  7
Standard
  9
$DIMAUNIT
 70
0
  9
$DIMADEC
 70
0
  9
$DIMALTRND
 40
0.0
  9
$DIMAZIN
 70
0
  9
$DIMDSEP
 70
44
  9
$DIMATFIT
 70
3
  9
$DIMFRAC
 70
0
  9
$DIMLDRBLK
  1

  9
$DIMLUNIT
 70
2
  9
$DIMLWD
 70
-2
  9
$DIMLWE
 70
-2
  9
$DIMTMOVE
 70
0
  9
$DIMFXL
 40
1.0
  9
$DIMFXLON
 70
0
  9
$DIMJOGANG
 40
0.785398163397
  9
$DIMTFILL
 70
0
  9
$DIMTFILLCLR
 70
0
  9
$DIMARCSYM
 70
0
  9
$DIMLTYPE
  6

  9
$DIMLTEX1
  6

  9
$DIMLTEX2
  6

  9
$DIMTXTDIRECTION
 70
0
  9
$LUNITS
 70
2
  9
$LUPREC
 70
4
  9
$SKETCHINC
 40
1.0
  9
$FILLETRAD
 40
10.0
  9
$AUNITS
 70
0
  9
$AUPREC
 70
2
  9
$MENU
  1
.
  9
$ELEVATION
 40
0.0
  9
$PELEVATION
 40
0.0
  9
$THICKNESS
 40
0.0
  9
$LIMCHECK
 70
0
  9
$CHAMFERA
 40
0.0
  9
$CHAMFERB
 40
0.0
  9
$CHAMFERC
 40
0.0
  9
$CHAMFERD
 40
0.0
  9
$SKPOLY
 70
0
  9
$TDCREATE
 40
2461085.245983796
  9
$TDUCREATE
 40
2458532.153996898
  9
$TDUPDATE
 40
2461085.245983796
  9
$TDUUPDATE
 40
2458532.1544311
  9
$TDINDWG
 40
0.0
  9
$TDUSRTIMER
 40
0.0
  9
$USRTIMER
 70
1
  9
$ANGBASE
 50
0.0
  9
$ANGDIR
 70
0
  9
$PDMODE
 70
0
  9
$PDSIZE
 40
0.0
  9
$PLINEWID
 40
0.0
  9
$SPLFRAME
 70
0
  9
$SPLINETYPE
 70
6
  9
$SPLINESEGS
 70
8
  9
$HANDSEED
  5
B8
  9
$SURFTAB1
 70
6
  9
$SURFTAB2
 70
6
  9
$SURFTYPE
 70
6
  9
$SURFU
 70
6
  9
$SURFV
 70
6
  9
$UCSBASE
  2

  9
$UCSNAME
  2

  9
$UCSORG
 10
0.0
 20
0.0
 30
0.0
  9
$UCSXDIR
 10
1.0
 20
0.0
 30
0.0
  9
$UCSYDIR
 10
0.0
 20
1.0
 30
0.0
  9
$UCSORTHOREF
  2

  9
$UCSORTHOVIEW
 70
0
  9
$UCSORGTOP
 10
0.0
 20
0.0
 30
0.0
  9
$UCSORGBOTTOM
 10
0.0
 20
0.0
 30
0.0
  9
$UCSORGLEFT
 10
0.0
 20
0.0
 30
0.0
  9
$UCSORGRIGHT
 10
0.0
 20
0.0
 30
0.0
  9
$UCSORGFRONT
 10
0.0
 20
0.0
 30
0.0
  9
$UCSORGBACK
 10
0.0
 20
0.0
 30
0.0
  9
$PUCSBASE
  2

  9
$PUCSNAME
  2

  9
$PUCSORG
 10
0.0
 20
0.0
 30
0.0
  9
$PUCSXDIR
 10
1.0
 20
0.0
 30
0.0
  9
$PUCSYDIR
 10
0.0
 20
1.0
 30
0.0
  9
$PUCSORTHOREF
  2

  9
$PUCSORTHOVIEW
 70
0
  9
$PUCSORGTOP
 10
0.0
 20
0.0
 30
0.0
  9
$PUCSORGBOTTOM
 10
0.0
 20
0.0
 30
0.0
  9
$PUCSORGLEFT
 10
0.0
 20
0.0
 30
0.0
  9
$PUCSORGRIGHT
 10
0.0
 20
0.0
 30
0.0
  9
$PUCSORGFRONT
 10
0.0
 20
0.0
 30
0.0
  9
$PUCSORGBACK
 10
0.0
 20
0.0
 30
0.0
  9
$USERI1
 70
0
  9
$USERI2
 70
0
  9
$USERI3
 70
0
  9
$USERI4
 70
0
  9
$USERI5
 70
0
  9
$USERR1
 40
0.0
  9
$USERR2
 40
0.0
  9
$USERR3
 40
0.0
  9
$USERR4
 40
0.0
  9
$USERR5
 40
0.0
  9
$WORLDVIEW
 70
1
  9
$SHADEDGE
 70
3
  9
$SHADEDIF
 70
70
  9
$TILEMODE
 70
1
  9
$MAXACTVP
 70
64
  9
$PINSBASE
 10
0.0
 20
0.0
 30
0.0
  9
$PLIMCHECK
 70
0
  9
$PEXTMIN
 10
1e+20
 20
1e+20
 30
1e+20
  9
$PEXTMAX
 10
-1e+20
 20
-1e+20
 30
-1e+20
  9
$PLIMMIN
 10
0.0
 20
0.0
  9
$PLIMMAX
 10
420.0
 20
297.0
  9
$UNITMODE
 70
0
  9
$VISRETAIN
 70
1
  9
$PLINEGEN
 70
0
  9
$PSLTSCALE
 70
1
  9
$TREEDEPTH
 70
3020
  9
$CMLSTYLE
  2
Standard
  9
$CMLJUST
 70
0
  9
$CMLSCALE
 40
20.0
  9
$PROXYGRAPHICS
 70
1
  9
$MEASUREMENT
 70
1
  9
$CELWEIGHT
370
-1
  9
$ENDCAPS
280
0
  9
$JOINSTYLE
280
0
  9
$LWDISPLAY
290
0
  9
$INSUNITS
 70
6
  9
$HYPERLINKBASE
  1

  9
$STYLESHEET
  1

  9
$XEDIT
290
1
  9
$CEPSNTYPE
380
0
  9
$PSTYLEMODE
290
1
  9
$FINGERPRINTGUID
  2
{14C1AA8B-4601-45FC-80DD-6DCDAB2C8575}
  9
$VERSIONGUID
  2
{74033B9B-6A80-4B14-979F-7379A4F405FA}
  9
$EXTNAMES
290
1
  9
$PSVPSCALE
 40
0.0
  9
$OLESTARTUP
290
0
  9
$SORTENTS
280
127
  9
$INDEXCTL
280
0
  9
$HIDETEXT
280
1
  9
$XCLIPFRAME
280
1
  9
$HALOGAP
280
0
  9
$OBSCOLOR
 70
257
  9
$OBSLTYPE
280
0
  9
$INTERSECTIONDISPLAY
280
0
  9
$INTERSECTIONCOLOR
 70
257
  9
$DIMASSOC
280
2
  9
$PROJECTNAME
  1

  9
$CAMERADISPLAY
290
0
  9
$LENSLENGTH
 40
50.0
  9
$CAMERAHEIGHT
 40
0.0
  9
$STEPSPERSEC
 40
24.0
  9
$STEPSIZE
 40
100.0
  9
$3DDWFPREC
 40
2.0
  9
$PSOLWIDTH
 40
0.005
  9
$PSOLHEIGHT
 40
0.08
  9
$LOFTANG1
 40
1.570796326795
  9
$LOFTANG2
 40
1.570796326795
  9
$LOFTMAG1
 40
0.0
  9
$LOFTMAG2
 40
0.0
  9
$LOFTPARAM
 70
7
  9
$LOFTNORMALS
280
1
  9
$LATITUDE
 40
37.795
  9
$LONGITUDE
 40
-122.394
  9
$NORTHDIRECTION
 40
0.0
  9
$TIMEZONE
 70
-8000
  9
$LIGHTGLYPHDISPLAY
280
1
  9
$TILEMODELIGHTSYNCH
280
1
  9
$CMATERIAL
347
20
  9
$SOLIDHIST
280
0
  9
$SHOWHIST
280
1
  9
$DWFFRAME
280
2
  9
$DGNFRAME
280
2
  9
$REALWORLDSCALE
290
1
  9
$INTERFERECOLOR
 62
256
  9
$CSHADOW
280
0
  9
$SHADOWPLANELOCATION
 40
0.0
  0
ENDSEC
  0
SECTION
  2
CLASSES
  0
CLASS
  1
ACDBDICTIONARYWDFLT
  2
AcDbDictionaryWithDefault
  3
ObjectDBX Classes
 90
0
 91
0
280
0
281
0
  0
CLASS
  1
SUN
  2
AcDbSun
  3
SCENEOE
 90
1153
 91
0
280
0
281
0
  0
CLASS
  1
VISUALSTYLE
  2
AcDbVisualStyle
  3
ObjectDBX Classes
 90
4095
 91
0
280
0
281
0
  0
CLASS
  1
MATERIAL
  2
AcDbMaterial
  3
ObjectDBX Classes
 90
1153
 91
0
280
0
281
0
  0
CLASS
  1
SCALE
  2
AcDbScale
  3
ObjectDBX Classes
 90
1153
 91
0
280
0
281
0
  0
CLASS
  1
TABLESTYLE
  2
AcDbTableStyle
  3
ObjectDBX Classes
 90
4095
 91
0
280
0
281
0
  0
CLASS
  1
MLEADERSTYLE
  2
AcDbMLeaderStyle
  3
ACDB_MLEADERSTYLE_CLASS
 90
4095
 91
0
280
0
281
0
  0
CLASS
  1
DICTIONARYVAR
  2
AcDbDictionaryVar
  3
ObjectDBX Classes
 90
0
 91
0
280
0
281
0
  0
CLASS
  1
CELLSTYLEMAP
  2
AcDbCellStyleMap
  3
ObjectDBX Classes
 90
1152
 91
0
280
0
281
0
  0
CLASS
  1
MENTALRAYRENDERSETTINGS
  2
AcDbMentalRayRenderSettings
  3
SCENEOE
 90
1024
 91
0
280
0
281
0
  0
CLASS
  1
ACDBDETAILVIEWSTYLE
  2
AcDbDetailViewStyle
  3
ObjectDBX Classes
 90
1025
 91
0
280
0
281
0
  0
CLASS
  1
ACDBSECTIONVIEWSTYLE
  2
AcDbSectionViewStyle
  3
ObjectDBX Classes
 90
1025
 91
0
280
0
281
0
  0
CLASS
  1
RASTERVARIABLES
  2
AcDbRasterVariables
  3
ISM
 90
0
 91
0
280
0
281
0
  0
CLASS
  1
LAYOUT
  2
AcDbLayout
  3
ObjectDBX Classes
 90
0
 91
0
280
0
281
0
  0
CLASS
  1
ACDBPLACEHOLDER
  2
AcDbPlaceHolder
  3
ObjectDBX Classes
 90
0
 91
0
280
0
281
0
  0
ENDSEC
  0
SECTION
  2
TABLES
  0
TABLE
  2
VPORT
  5
8
330
0
100
AcDbSymbolTable
 70
1
  0
VPORT
  5
23
330
8
100
AcDbSymbolTableRecord
100
AcDbViewportTableRecord
  2
*Active
 70
0
 10
0.0
 20
0.0
 11
1.0
 21
1.0
 12
0.0
 22
0.0
 13
0.0
 23
0.0
 14
0.5
 24
0.5
 15
0.5
 25
0.5
 16
0.0
 26
0.0
 36
1.0
 17
0.0
 27
0.0
 37
0.0
 40
1000.0
 41
1.34
 42
50.0
 43
0.0
 44
0.0
 50
0.0
 51
0.0
 71
0
 72
1000
 73
1
 74
3
 75
0
 76
0
 77
0
 78
0
281
0
 65
0
146
0.0
  0
ENDTAB
  0
TABLE
  2
LTYPE
  5
2
330
0
100
AcDbSymbolTable
 70
3
  0
LTYPE
  5
24
330
2
100
AcDbSymbolTableRecord
100
AcDbLinetypeTableRecord
  2
ByBlock
 70
0
  3

 72
65
 73
0
 40
0.0
  0
LTYPE
  5
25
330
2
100
AcDbSymbolTableRecord
100
AcDbLinetypeTableRecord
  2
ByLayer
 70
0
  3

 72
65
 73
0
 40
0.0
  0
LTYPE
  5
26
330
2
100
AcDbSymbolTableRecord
100
AcDbLinetypeTableRecord
  2
Continuous
 70
0
  3

 72
65
 73
0
 40
0.0
  0
ENDTAB
  0
TABLE
  2
LAYER
  5
1
330
0
100
AcDbSymbolTable
 70
3
  0
LAYER
  5
27
330
1
100
AcDbSymbolTableRecord
100
AcDbLayerTableRecord
  2
0
 70
0
 62
7
  6
Continuous
370
-3
390
13
347
21
  0
LAYER
  5
28
330
1
100
AcDbSymbolTableRecord
100
AcDbLayerTableRecord
  2
Defpoints
 70
0
 62
7
  6
Continuous
290
0
370
-3
390
13
347
21
  0
LAYER
  5
B2
330
1
100
AcDbSymbolTableRecord
100
AcDbLayerTableRecord
  2
G-IMPT
 70
0
 62
8
  6
Continuous
370
13
390
13
347
21
348
0
  0
ENDTAB
  0
TABLE
  2
STYLE
  5
5
330
0
100
AcDbSymbolTable
 70
1
  0
STYLE
  5
29
330
5
100
AcDbSymbolTableRecord
100
AcDbTextStyleTableRecord
  2
Standard
 70
0
 40
0.0
 41
1.0
 50
0.0
 71
0
 42
2.5
  3
txt
  4

  0
ENDTAB
  0
TABLE
  2
VIEW
  5
7
330
0
100
AcDbSymbolTable
 70
0
  0
ENDTAB
  0
TABLE
  2
UCS
  5
6
330
0
100
AcDbSymbolTable
 70
0
  0
ENDTAB
  0
TABLE
  2
APPID
  5
3
330
0
100
AcDbSymbolTable
 70
3
  0
APPID
  5
2A
330
3
100
AcDbSymbolTableRecord
100
AcDbRegAppTableRecord
  2
ACAD
 70
0
  0
APPID
  5
B5
330
3
100
AcDbSymbolTableRecord
100
AcDbRegAppTableRecord
  2
HATCHBACKGROUNDCOLOR
 70
0
  0
APPID
  5
B6
330
3
100
AcDbSymbolTableRecord
100
AcDbRegAppTableRecord
  2
EZDXF
 70
0
  0
ENDTAB
  0
TABLE
  2
DIMSTYLE
  5
4
330
0
100
AcDbSymbolTable
 70
1
100
AcDbDimStyleTable
  0
DIMSTYLE
105
2B
330
4
100
AcDbSymbolTableRecord
100
AcDbDimStyleTableRecord
  2
Standard
 70
0
 40
1.0
 41
2.5
 42
0.625
 43
3.75
 44
1.25
 45
0.0
 46
0.0
 47
0.0
 48
0.0
 49
2.5
140
2.5
141
2.5
142
0.0
143
0.03937007874
144
1.0
145
0.0
146
1.0
147
0.625
148
0.0
 69
0
 70
0
 71
0
 72
0
 73
0
 74
0
 75
0
 76
0
 77
1
 78
8
 79
3
170
0
171
3
172
1
173
0
174
0
175
0
176
0
177
0
178
0
179
2
271
2
272
2
273
2
274
3
275
0
276
0
277
2
278
44
279
0
280
0
281
0
282
0
283
0
284
8
285
0
286
0
288
0
289
3
290
0
371
-2
372
-2
  0
ENDTAB
  0
TABLE
  2
BLOCK_RECORD
  5
9
330
0
100
AcDbSymbolTable
 70
7
  0
BLOCK_RECORD
  5
17
330
9
100
AcDbSymbolTableRecord
100
AcDbBlockTableRecord
  2
*Model_Space
340
1A
 70
0
280
1
281
0
  0
BLOCK_RECORD
  5
1B
330
9
100
AcDbSymbolTableRecord
100
AcDbBlockTableRecord
  2
*Paper_Space
340
1E
 70
0
280
1
281
0
  0
BLOCK_RECORD
  5
2F
330
9
100
AcDbSymbolTableRecord
100
AcDbBlockTableRecord
  2
31 GlasVast - DI_GlasVast-3345025-00_0 Basismaterialen
340
0
 70
0
280
1
281
0
  0
BLOCK_RECORD
  5
38
330
9
100
AcDbSymbolTableRecord
100
AcDbBlockTableRecord
  2
31 GlasVast - GlasvastRT_dwg_S234713_5block-4581421-00_0 Basismaterialen
340
0
 70
0
280
1
281
0
  0
BLOCK_RECORD
  5
55
330
9
100
AcDbSymbolTableRecord
100
AcDbBlockTableRecord
  2
31 GlasVast - GlasvastRT_dwg_S170719block-4581420-00_0 Basismaterialen
340
0
 70
0
280
1
281
0
  0
BLOCK_RECORD
  5
82
330
9
100
AcDbSymbolTableRecord
100
AcDbBlockTableRecord
  2
31 GlasVast - 270148 detail_dwg-4581424-00_0 Basismaterialen
340
0
 70
0
280
1
281
0
  0
BLOCK_RECORD
  5
87
330
9
100
AcDbSymbolTableRecord
100
AcDbBlockTableRecord
  2
31 GlasVast - 270148 detail_dwg_S270148block-4581425-00_0 Basismaterialen
340
0
 70
0
280
1
281
0
  0
ENDTAB
  0
ENDSEC
  0
SECTION
  2
BLOCKS
  0
BLOCK
  5
18
330
17
100
AcDbEntity
  8
0
100
AcDbBlockBegin
  2
*Model_Space
 70
0
 10
0.0
 20
0.0
 30
0.0
  3
*Model_Space
  1

  0
ENDBLK
  5
19
330
17
100
AcDbEntity
  8
0
100
AcDbBlockEnd
  0
BLOCK
  5
1C
330
1B
100
AcDbEntity
  8
0
100
AcDbBlockBegin
  2
*Paper_Space
 70
0
 10
0.0
 20
0.0
 30
0.0
  3
*Paper_Space
  1

  0
ENDBLK
  5
1D
330
1B
100
AcDbEntity
  8
0
100
AcDbBlockEnd
  0
BLOCK
  5
30
330
2F
100
AcDbEntity
  8
0
100
AcDbBlockBegin
  2
31 GlasVast - DI_GlasVast-3345025-00_0 Basismaterialen
 70
0
 10
0.0
 20
0.0
 30
0.0
  3
31 GlasVast - DI_GlasVast-3345025-00_0 Basismaterialen
  1

  0
INSERT
  5
32
330
2F
100
AcDbEntity
  8
0
100
AcDbBlockReference
  2
31 GlasVast - GlasvastRT_dwg_S234713_5block-4581421-00_0 Basismaterialen
 10
41.49999999999992
 20
19.30978162286457
 30
0.0
  0
INSERT
  5
34
330
2F
100
AcDbEntity
  8
0
100
AcDbBlockReference
  2
31 GlasVast - GlasvastRT_dwg_S170719block-4581420-00_0 Basismaterialen
 10
72.20000000000002
 20
-0.5000000000000325
 30
0.0
  0
INSERT
  5
36
330
2F
100
AcDbEntity
  8
0
100
AcDbBlockReference
  2
31 GlasVast - 270148 detail_dwg-4581424-00_0 Basismaterialen
 10
0.1999999999999923
 20
21.57392138427958
 30
0.0
  0
ENDBLK
  5
31
330
2F
100
AcDbEntity
  8
0
100
AcDbBlockEnd
  0
BLOCK
  5
39
330
38
100
AcDbEntity
  8
0
100
AcDbBlockBegin
  2
31 GlasVast - GlasvastRT_dwg_S234713_5block-4581421-00_0 Basismaterialen
 70
0
 10
0.0
 20
0.0
 30
0.0
  3
31 GlasVast - GlasvastRT_dwg_S234713_5block-4581421-00_0 Basismaterialen
  1

  0
ARC
  5
3B
330
38
100
AcDbEntity
  8
G-IMPT
100
AcDbCircle
 10
-4.700027182129645
 20
3.670146797926321
 30
0.0
 40
0.1000000000000227
100
AcDbArc
 50
90.0
 51
180.0
  0
ARC
  5
3C
330
38
100
AcDbEntity
  8
G-IMPT
100
AcDbCircle
 10
-1.800027182129669
 20
1.3449277842019
 30
0.0
 40
3.000000000000001
100
AcDbArc
 50
180.0
 51
226.9429762186951
  0
ARC
  5
3D
330
38
100
AcDbEntity
  8
G-IMPT
100
AcDbCircle
 10
-5.21365670185682
 20
-2.308445109720565
 30
0.0
 40
2.000000000000006
100
AcDbArc
 50
313.0570237813051
 51
46.94297621869455
  0
ARC
  5
3E
330
38
100
AcDbEntity
  8
G-IMPT
100
AcDbCircle
 10
-1.800027182129669
 20
-5.961818003643032
 30
0.0
 40
3.000000000000001
100
AcDbArc
 50
133.0570237813044
 51
180.0
  0
ARC
  5
3F
330
38
100
AcDbEntity
  8
G-IMPT
100
AcDbCircle
 10
-4.650027182129676
 20
-7.363857714364812
 30
0.0
 40
0.1499999999999919
100
AcDbArc
 50
179.9999999999947
 51
269.9999999999944
  0
ARC
  5
40
330
38
100
AcDbEntity
  8
G-IMPT
100
AcDbCircle
 10
-4.594372213420285
 20
-7.043377555665135
 30
0.0
 40
0.4797692341311882
100
AcDbArc
 50
281.2930407714262
 51
353.9299358500946
  0
ARC
  5
41
330
38
100
AcDbEntity
  8
G-IMPT
100
AcDbCircle
 10
-1.631309564525446
 20
-7.358471870750554
 30
0.0
 40
2.500000000000013
100
AcDbArc
 50
101.3330479717008
 51
173.9299358501942
  0
ARC
  5
42
330
38
100
AcDbEntity
  8
G-IMPT
100
AcDbCircle
 10
-1.099999999999972
 20
-3.786022135607888
 30
0.0
 40
0.8999999999999836
100
AcDbArc
 50
284.7674092377182
 51
5.372e-13
  0
ARC
  5
43
330
38
100
AcDbEntity
  8
G-IMPT
100
AcDbCircle
 10
-5.8e-14
 20
-3.656425869345528
 30
0.0
 40
0.1999999999999306
100
AcDbArc
 50
135.0000000000107
 51
180.0000000000154
  0
ARC
  5
44
330
38
100
AcDbEntity
  8
G-IMPT
100
AcDbCircle
 10
0.2983565449915181
 20
-2.843805639563566
 30
0.0
 40
0.1636393388333328
100
AcDbArc
 50
314.9999999999958
 51
59.99999999998998
  0
ARC
  5
45
330
38
100
AcDbEntity
  8
G-IMPT
100
AcDbCircle
 10
0.1999999999999842
 20
-2.1361848138336
 30
0.0
 40
0.3999999999999732
100
AcDbArc
 50
179.999999999997
 51
240.0
  0
ARC
  5
46
330
38
100
AcDbEntity
  8
G-IMPT
100
AcDbCircle
 10
0.1963672065999732
 20
-0.1963672065999732
 30
0.0
 40
0.3963672065999615
100
AcDbArc
 50
89.99999999999999
 51
180.0000000000041
  0
LWPOLYLINE
  5
47
330
38
100
AcDbEntity
  8
G-IMPT
100
AcDbPolyline
 90
3
 70
128
 10
-4.665638468756014
 20
3.770146797926344
 10
-4.700027182129645
 20
3.770146797926344
 10
-4.800027182129667
 20
1.3449277842019
  0
LWPOLYLINE
  5
48
330
38
100
AcDbEntity
  8
G-IMPT
100
AcDbPolyline
 90
3
 70
128
 10
-4.800027182129667
 20
-5.961818003643032
 10
-4.800027182129667
 20
-7.363857714364798
 10
-4.500420426376138
 20
-7.513857714364775
  0
LINE
  5
49
330
38
100
AcDbEntity
  8
G-IMPT
100
AcDbLine
 10
-2.122588879894522
 20
-4.907218184513538
 30
0.0
 11
-0.87059380526847
 21
-4.656293816072547
 31
0.0
  0
LWPOLYLINE
  5
4A
330
38
100
AcDbEntity
  8
G-IMPT
100
AcDbPolyline
 90
3
 70
128
 10
-0.1999999999999886
 20
-3.786022135607879
 10
-0.1999999999999886
 20
-3.656425869345582
 10
0.4140670311494433
 20
-2.959516125721506
  0
LINE
  5
4B
330
38
100
AcDbEntity
  8
G-IMPT
100
AcDbLine
 10
0.380176214408209
 20
-2.702089815075425
 30
0.0
 11
0.0
 21
-2.482594975347353
 31
0.0
  0
LINE
  5
4C
330
38
100
AcDbEntity
  8
G-IMPT
100
AcDbLine
 10
-0.1999999999999886
 20
-2.13618481383358
 30
0.0
 11
-0.1999999999999886
 21
-0.1963672066000015
 31
0.0
  0
LINE
  5
4D
330
38
100
AcDbEntity
  8
G-IMPT
100
AcDbLine
 10
0.1963672065999731
 20
0.1999999999999886
 30
0.0
 11
1.438981754179963
 21
0.1999999999999886
 31
0.0
  0
ARC
  5
4E
330
38
100
AcDbEntity
  8
G-IMPT
100
AcDbCircle
 10
1.438981754179953
 20
0.3499999999999845
 30
0.0
 40
0.1499999999999956
100
AcDbArc
 50
270.0000000000032
 51
38.25131302349028
  0
ARC
  5
4F
330
38
100
AcDbEntity
  8
G-IMPT
100
AcDbCircle
 10
-3.179834044937744
 20
-3.704512006958294
 30
0.0
 40
6.295731622411131
100
AcDbArc
 50
41.20540365184187
 51
95.34402774679275
  0
ARC
  5
50
330
38
100
AcDbEntity
  8
G-IMPT
100
AcDbCircle
 10
-3.747564300845116
 20
2.364724054441062
 30
0.0
 40
0.2000000000000081
100
AcDbArc
 50
95.34402774677925
 51
203.7957667436288
  0
ARC
  5
51
330
38
100
AcDbEntity
  8
G-IMPT
100
AcDbCircle
 10
-0.7797164197227185
 20
3.673439011798995
 30
0.0
 40
3.443586885701555
100
AcDbArc
 50
203.7957667436325
 51
245.2053146777912
  0
ARC
  5
52
330
38
100
AcDbEntity
  8
G-IMPT
100
AcDbCircle
 10
-2.281822257646018
 20
0.3832983140788588
 30
0.0
 40
0.1739423867813701
100
AcDbArc
 50
239.9438387945352
 51
70.53041349455222
  0
ARC
  5
53
330
38
100
AcDbEntity
  8
G-IMPT
100
AcDbCircle
 10
-0.0759446634178449
 20
3.826632868981587
 30
0.0
 40
4.263081247562555
100
AcDbArc
 50
186.4511163900038
 51
237.4610365896393
  0
ARC
  5
54
330
38
100
AcDbEntity
  8
G-IMPT
100
AcDbCircle
 10
-4.808759754115047
 20
3.290538916063926
 30
0.0
 40
0.499999999999977
100
AcDbArc
 50
6.559033016665934
 51
73.38420629430527
  0
ENDBLK
  5
3A
330
38
100
AcDbEntity
  8
0
100
AcDbBlockEnd
  0
BLOCK
  5
56
330
55
100
AcDbEntity
  8
0
100
AcDbBlockBegin
  2
31 GlasVast - GlasvastRT_dwg_S170719block-4581420-00_0 Basismaterialen
 70
0
 10
0.0
 20
0.0
 30
0.0
  3
31 GlasVast - GlasvastRT_dwg_S170719block-4581420-00_0 Basismaterialen
  1

  0
ARC
  5
58
330
55
100
AcDbEntity
  8
G-IMPT
100
AcDbCircle
 10
-2.999999999999928
 20
16.8382915523411
 30
0.0
 40
1.499999999999987
100
AcDbArc
 50
359.9999999999986
 51
88.51854282911196
  0
ARC
  5
59
330
55
100
AcDbEntity
  8
G-IMPT
100
AcDbCircle
 10
-1.999999999999938
 20
3.733161507461979
 30
0.0
 40
0.4999999999999955
100
AcDbArc
 50
299.9999999999994
 51
359.9999999999988
  0
ARC
  5
5A
330
55
100
AcDbEntity
  8
G-IMPT
100
AcDbCircle
 10
-3.90000000000001
 20
0.0381197846483402
 30
0.0
 40
2.000000000000025
100
AcDbArc
 50
120.0000000000022
 51
180.0000000000007
  0
ARC
  5
5B
330
55
100
AcDbEntity
  8
G-IMPT
100
AcDbCircle
 10
-5.400000000000033
 20
-2.396519625095351
 30
0.0
 40
0.5000000000000016
100
AcDbArc
 50
179.9999999999998
 51
314.9999999999996
  0
ARC
  5
5C
330
55
100
AcDbEntity
  8
G-IMPT
100
AcDbCircle
 10
-4.699999999999989
 20
-1.979362337569904
 30
0.0
 40
0.2999999999999994
100
AcDbArc
 50
315.0000000000066
 51
55.15009542177192
  0
ARC
  5
5D
330
55
100
AcDbEntity
  8
G-IMPT
100
AcDbCircle
 10
-4.299999999992958
 20
-1.404906072912362
 30
0.0
 40
0.4000000000070879
100
AcDbArc
 50
179.9999999980568
 51
235.150095419819
  0
ARC
  5
5E
330
55
100
AcDbEntity
  8
G-IMPT
100
AcDbCircle
 10
-3.700000000000017
 20
-0.0773502691896295
 30
0.0
 40
1.000000000000027
100
AcDbArc
 50
120.0000000000009
 51
179.999999999998
  0
ARC
  5
5F
330
55
100
AcDbEntity
  8
G-IMPT
100
AcDbCircle
 10
-1.699999999999984
 20
1.366025403784474
 30
0.0
 40
0.4999999999999955
100
AcDbArc
 50
359.9999999999966
 51
120.0000000000008
  0
ARC
  5
60
330
55
100
AcDbEntity
  8
G-IMPT
100
AcDbCircle
 10
-0.999999999999943
 20
0.6629242815561441
 30
0.0
 40
0.2000000000000456
100
AcDbArc
 50
179.9999999999999
 51
269.9999999999834
  0
ARC
  5
61
330
55
100
AcDbEntity
  8
G-IMPT
100
AcDbCircle
 10
-0.5
 20
0.9629242815560985
 30
0.0
 40
0.4999999999999997
100
AcDbArc
 50
269.9999999999996
 51
4.45e-14
  0
ARC
  5
62
330
55
100
AcDbEntity
  8
G-IMPT
100
AcDbCircle
 10
-0.5
 20
19.30000000000001
 30
0.0
 40
0.5000000000000006
100
AcDbArc
 50
359.9999999999996
 51
90.00000000000006
  0
ARC
  5
63
330
55
100
AcDbEntity
  8
G-IMPT
100
AcDbCircle
 10
-30.4000000000001
 20
19.30000000000001
 30
0.0
 40
0.5
100
AcDbArc
 50
90.0
 51
180.0
  0
ARC
  5
64
330
55
100
AcDbEntity
  8
G-IMPT
100
AcDbCircle
 10
-30.4000000000001
 20
18.0
 30
0.0
 40
0.4999999999999965
100
AcDbArc
 50
180.0
 51
269.9999999999997
  0
ARC
  5
65
330
55
100
AcDbEntity
  8
G-IMPT
100
AcDbCircle
 10
-29.90000000000009
 20
18.0
 30
0.0
 40
0.5000000000000036
100
AcDbArc
 50
269.9999999999997
 51
0.0
  0
ARC
  5
66
330
55
100
AcDbEntity
  8
G-IMPT
100
AcDbCircle
 10
-28.90000000000009
 20
18.09999999999996
 30
0.0
 40
0.5
100
AcDbArc
 50
90.0
 51
180.0
  0
ARC
  5
67
330
55
100
AcDbEntity
  8
G-IMPT
100
AcDbCircle
 10
-14.71740324662216
 20
17.59279133921969
 30
0.0
 40
1.01742878425357
100
AcDbArc
 50
0.4059540095083004
 51
98.12789164650314
  0
ARC
  5
68
330
55
100
AcDbEntity
  8
G-IMPT
100
AcDbCircle
 10
-13.89999999999993
 20
-2.700000000000041
 30
0.0
 40
0.2000000000000046
100
AcDbArc
 50
209.9999999999698
 51
359.9999999999986
  0
ARC
  5
69
330
55
100
AcDbEntity
  8
G-IMPT
100
AcDbCircle
 10
-15.45604779323146
 20
-2.19999999999995
 30
0.0
 40
0.1999999999999506
100
AcDbArc
 50
45.00000000001286
 51
90.00000000001323
  0
ARC
  5
6A
330
55
100
AcDbEntity
  8
G-IMPT
100
AcDbCircle
 10
-15.60000000000002
 20
-2.199999999999988
 30
0.0
 40
0.1999999999999868
100
AcDbArc
 50
90.0
 51
180.0
  0
ARC
  5
6B
330
55
100
AcDbEntity
  8
G-IMPT
100
AcDbCircle
 10
-15.30000000000001
 20
-2.666025403784415
 30
0.0
 40
0.4999999999999968
100
AcDbArc
 50
180.0000000000017
 51
210.0000000000023
  0
ARC
  5
6C
330
55
100
AcDbEntity
  8
G-IMPT
100
AcDbCircle
 10
-13.50647552145615
 20
-3.593524478543753
 30
0.0
 40
0.9064755214562399
100
AcDbArc
 50
209.9999999999984
 51
359.9999999999985
  0
ARC
  5
6D
330
55
100
AcDbEntity
  8
G-IMPT
100
AcDbCircle
 10
-11.59999999999991
 20
17.57380356362965
 30
0.0
 40
0.9999999999999928
100
AcDbArc
 50
88.51854282911329
 51
180.0000000000004
  0
LWPOLYLINE
  5
6E
330
55
100
AcDbEntity
  8
G-IMPT
100
AcDbPolyline
 90
3
 70
128
 10
-1.499999999999943
 20
16.83829155234107
 10
-1.499999999999943
 20
9.900000000000006
 10
-1.499999999999943
 20
3.733161507461972
  0
LINE
  5
6F
330
55
100
AcDbEntity
  8
G-IMPT
100
AcDbLine
 10
-1.749999999999943
 20
3.300148805569762
 30
0.0
 11
-4.900000000000091
 21
1.770170592217198
 31
0.0
  0
LINE
  5
70
330
55
100
AcDbEntity
  8
G-IMPT
100
AcDbLine
 10
-5.900000000000034
 20
0.0381197846483019
 30
0.0
 11
-5.900000000000034
 21
-2.396519625095351
 31
0.0
  0
LINE
  5
71
330
55
100
AcDbEntity
  8
G-IMPT
100
AcDbLine
 10
-5.046446609406757
 20
-2.750073015688628
 30
0.0
 11
-4.487867965643999
 21
-2.191494371925841
 31
0.0
  0
LINE
  5
72
330
55
100
AcDbEntity
  8
G-IMPT
100
AcDbLine
 10
-4.700000000000045
 20
-1.404906072898796
 30
0.0
 11
-4.700000000000045
 21
-0.0773502691895943
 31
0.0
  0
LINE
  5
73
330
55
100
AcDbEntity
  8
G-IMPT
100
AcDbLine
 10
-4.200000000000045
 20
0.7886751345948256
 30
0.0
 11
-1.949999999999988
 21
1.799038105676686
 31
0.0
  0
LINE
  5
74
330
55
100
AcDbEntity
  8
G-IMPT
100
AcDbLine
 10
-1.199999999999988
 20
1.366025403784448
 30
0.0
 11
-1.199999999999988
 21
0.6629242815561441
 31
0.0
  0
LINE
  5
75
330
55
100
AcDbEntity
  8
G-IMPT
100
AcDbLine
 10
-1.0
 20
0.4629242815560986
 30
0.0
 11
-0.5
 21
0.4629242815560986
 31
0.0
  0
LWPOLYLINE
  5
76
330
55
100
AcDbEntity
  8
G-IMPT
100
AcDbPolyline
 90
3
 70
128
 10
0.0
 20
0.9629242815560985
 10
0.0
 20
9.900000000000006
 10
0.0
 20
19.30000000000001
  0
LINE
  5
77
330
55
100
AcDbEntity
  8
G-IMPT
100
AcDbLine
 10
-0.5
 20
19.80000000000001
 30
0.0
 11
-30.4000000000001
 21
19.80000000000001
 31
0.0
  0
LINE
  5
78
330
55
100
AcDbEntity
  8
G-IMPT
100
AcDbLine
 10
-30.90000000000009
 20
19.30000000000001
 30
0.0
 11
-30.90000000000009
 21
18.0
 31
0.0
  0
LINE
  5
79
330
55
100
AcDbEntity
  8
G-IMPT
100
AcDbLine
 10
-30.4000000000001
 20
17.5
 30
0.0
 11
-29.90000000000009
 21
17.5
 31
0.0
  0
LINE
  5
7A
330
55
100
AcDbEntity
  8
G-IMPT
100
AcDbLine
 10
-29.40000000000009
 20
18.0
 30
0.0
 11
-29.40000000000009
 21
18.09999999999996
 31
0.0
  0
LINE
  5
7B
330
55
100
AcDbEntity
  8
G-IMPT
100
AcDbLine
 10
-28.90000000000009
 20
18.59999999999996
 30
0.0
 11
-14.86125054300603
 21
18.59999999999996
 31
0.0
  0
LWPOLYLINE
  5
7C
330
55
100
AcDbEntity
  8
G-IMPT
100
AcDbPolyline
 90
4
 70
128
 10
-13.69999999999993
 20
17.59999999999994
 10
-13.69999999999993
 20
9.899999999999977
 10
-13.69999999999993
 20
-0.354340265723124
 10
-13.69999999999993
 20
-2.700000000000045
  0
LWPOLYLINE
  5
7D
330
55
100
AcDbEntity
  8
G-IMPT
100
AcDbPolyline
 90
3
 70
128
 10
-14.07320508075688
 20
-2.799999999999954
 10
-15.31462643699422
 20
-2.058578643762643
 10
-15.60000000000002
 20
-2.0
  0
LINE
  5
7E
330
55
100
AcDbEntity
  8
G-IMPT
100
AcDbLine
 10
-15.80000000000001
 20
-2.199999999999988
 30
0.0
 11
-15.80000000000001
 21
-2.666025403784431
 31
0.0
  0
LINE
  5
7F
330
55
100
AcDbEntity
  8
G-IMPT
100
AcDbLine
 10
-15.73301270189222
 20
-2.916025403784431
 30
0.0
 11
-14.29150635094601
 21
-4.046762239271856
 31
0.0
  0
LWPOLYLINE
  5
80
330
55
100
AcDbEntity
  8
G-IMPT
100
AcDbPolyline
 90
4
 70
128
 10
-12.59999999999991
 20
-3.59352447854377
 10
-12.59999999999991
 20
-0.583888850313997
 10
-12.59999999999991
 20
9.900000000000006
 10
-12.59999999999991
 20
17.57380356362964
  0
LINE
  5
81
330
55
100
AcDbEntity
  8
G-IMPT
100
AcDbLine
 10
-11.57414657557683
 20
18.57346930798903
 30
0.0
 11
-2.961219863365272
 21
18.33779016888016
 31
0.0
  0
ENDBLK
  5
57
330
55
100
AcDbEntity
  8
0
100
AcDbBlockEnd
  0
BLOCK
  5
83
330
82
100
AcDbEntity
  8
0
100
AcDbBlockBegin
  2
31 GlasVast - 270148 detail_dwg-4581424-00_0 Basismaterialen
 70
0
 10
0.0
 20
0.0
 30
0.0
  3
31 GlasVast - 270148 detail_dwg-4581424-00_0 Basismaterialen
  1

  0
INSERT
  5
85
330
82
100
AcDbEntity
  8
0
100
AcDbBlockReference
  2
31 GlasVast - 270148 detail_dwg_S270148block-4581425-00_0 Basismaterialen
 10
0.0
 20
0.0
 30
0.0
  0
ENDBLK
  5
84
330
82
100
AcDbEntity
  8
0
100
AcDbBlockEnd
  0
BLOCK
  5
88
330
87
100
AcDbEntity
  8
0
100
AcDbBlockBegin
  2
31 GlasVast - 270148 detail_dwg_S270148block-4581425-00_0 Basismaterialen
 70
0
 10
0.0
 20
0.0
 30
0.0
  3
31 GlasVast - 270148 detail_dwg_S270148block-4581425-00_0 Basismaterialen
  1

  0
ARC
  5
8A
330
87
100
AcDbEntity
  8
G-IMPT
100
AcDbCircle
 10
6.5
 20
-1.287365029012473
 30
0.0
 40
0.3000000000000676
100
AcDbArc
 50
325.7695798620684
 51
4.6224e-12
  0
ARC
  5
8B
330
87
100
AcDbEntity
  8
G-IMPT
100
AcDbCircle
 10
9.09228885175554
 20
1.183973697481969
 30
0.0
 40
2.489649446055933
100
AcDbArc
 50
157.0326785862568
 51
202.9673214137411
  0
ARC
  5
8C
330
87
100
AcDbEntity
  8
G-IMPT
100
AcDbCircle
 10
6.811792091753877
 20
-0.8911173383816501
 30
0.0
 40
3.429585539065567
100
AcDbArc
 50
90.19700293597923
 51
161.4490118515204
  0
ARC
  5
8D
330
87
100
AcDbEntity
  8
G-IMPT
100
AcDbCircle
 10
3.699999999999988
 20
-0.3000000000000683
 30
0.0
 40
0.5000000000000006
100
AcDbArc
 50
359.9999999999996
 51
90.00000000000006
  0
ARC
  5
8E
330
87
100
AcDbEntity
  8
G-IMPT
100
AcDbCircle
 10
3.699999999999988
 20
-2.200000000000102
 30
0.0
 40
0.4999999999999997
100
AcDbArc
 50
269.9999999999996
 51
5.09e-14
  0
ARC
  5
8F
330
87
100
AcDbEntity
  8
G-IMPT
100
AcDbCircle
 10
3.030000000000015
 20
-2.470000000000098
 30
0.0
 40
0.2300000000000046
100
AcDbArc
 50
179.9999999999963
 51
269.9999999999961
  0
ARC
  5
90
330
87
100
AcDbEntity
  8
G-IMPT
100
AcDbCircle
 10
2.500000000000008
 20
-2.400000000000054
 30
0.0
 40
0.3000000000000318
100
AcDbArc
 50
359.9999999999925
 51
89.99999999999635
  0
ARC
  5
91
330
87
100
AcDbEntity
  8
G-IMPT
100
AcDbCircle
 10
2.500000000000036
 20
-5.600000000000089
 30
0.0
 40
0.300000000000003
100
AcDbArc
 50
269.9999999999981
 51
1.6443e-12
  0
ARC
  5
92
330
87
100
AcDbEntity
  8
G-IMPT
100
AcDbCircle
 10
3.029999999999986
 20
-5.530000000000043
 30
0.0
 40
0.2299999999999756
100
AcDbArc
 50
89.99999999999642
 51
179.9999999999966
  0
ARC
  5
93
330
87
100
AcDbEntity
  8
G-IMPT
100
AcDbCircle
 10
3.700000000000017
 20
-5.800000000000011
 30
0.0
 40
0.5000000000000011
100
AcDbArc
 50
359.9999999999996
 51
90.00000000000006
  0
ARC
  5
94
330
87
100
AcDbEntity
  8
G-IMPT
100
AcDbCircle
 10
4.37609876620921
 20
-6.581141048246835
 30
0.0
 40
0.4930733343604318
100
AcDbArc
 50
249.0750249041112
 51
298.0166341069035
  0
ARC
  5
95
330
87
100
AcDbEntity
  8
G-IMPT
100
AcDbCircle
 10
4.466790694297692
 20
-6.751588361574517
 30
0.0
 40
0.300000000000012
100
AcDbArc
 50
298.0166341069022
 51
353.41047162269
  0
ARC
  5
96
330
87
100
AcDbEntity
  8
G-IMPT
100
AcDbCircle
 10
16.58945145888933
 20
-8.151982865289435
 30
0.0
 40
11.90327860779242
100
AcDbArc
 50
145.7695798620646
 51
173.4104716226926
  0
ARC
  5
97
330
87
100
AcDbEntity
  8
G-IMPT
100
AcDbCircle
 10
2.800000000000014
 20
-4.200000000000042
 30
0.0
 40
0.3000000000000146
100
AcDbArc
 50
180.0000000000004
 51
269.9999999999991
  0
ARC
  5
98
330
87
100
AcDbEntity
  8
G-IMPT
100
AcDbCircle
 10
2.800000000000007
 20
-3.800000000000064
 30
0.0
 40
0.3000000000000076
100
AcDbArc
 50
89.9999999999991
 51
180.0000000000007
  0
ARC
  5
99
330
87
100
AcDbEntity
  8
G-IMPT
100
AcDbCircle
 10
3.987895438320089
 20
-3.800000000000117
 30
0.0
 40
0.3000000000000038
100
AcDbArc
 50
23.19859051364434
 51
89.99999999998803
  0
ARC
  5
9A
330
87
100
AcDbEntity
  8
G-IMPT
100
AcDbCircle
 10
4.159324009748723
 20
-4.200000000000088
 30
0.0
 40
0.3000000000000245
100
AcDbArc
 50
270.0000000000008
 51
23.19859051365324
  0
ARC
  5
9B
330
87
100
AcDbEntity
  8
G-IMPT
100
AcDbCircle
 10
16.58945145888966
 20
-8.151982865289394
 30
0.0
 40
12.70327860779268
100
AcDbArc
 50
146.3939710081001
 51
152.0774158626954
  0
ARC
  5
9C
330
87
100
AcDbEntity
  8
G-IMPT
100
AcDbCircle
 10
5.100000000000016
 20
-2.062831879667724
 30
0.0
 40
0.3000000000000055
100
AcDbArc
 50
179.9999999999999
 51
332.0774158626946
  0
LINE
  5
9D
330
87
100
AcDbEntity
  8
G-IMPT
100
AcDbLine
 10
6.80000000000004
 20
-1.287365029012448
 30
0.0
 11
6.80000000000004
 21
0.212497406284342
 31
0.0
  0
LINE
  5
9E
330
87
100
AcDbEntity
  8
G-IMPT
100
AcDbLine
 10
6.800000000000011
 20
2.155449988679606
 30
0.0
 11
6.800000000000011
 21
2.538447927995491
 31
0.0
  0
LINE
  5
9F
330
87
100
AcDbEntity
  8
G-IMPT
100
AcDbLine
 10
3.560404707320657
 20
0.1999999999999318
 30
0.0
 11
3.699999999999988
 21
0.1999999999999318
 31
0.0
  0
LINE
  5
A0
330
87
100
AcDbEntity
  8
G-IMPT
100
AcDbLine
 10
4.199999999999988
 20
-0.3000000000000682
 30
0.0
 11
4.199999999999988
 21
-2.200000000000102
 31
0.0
  0
LINE
  5
A1
330
87
100
AcDbEntity
  8
G-IMPT
100
AcDbLine
 10
3.699999999999988
 20
-2.700000000000102
 30
0.0
 11
3.030000000000001
 21
-2.700000000000102
 31
0.0
  0
LINE
  5
A2
330
87
100
AcDbEntity
  8
G-IMPT
100
AcDbLine
 10
2.800000000000011
 20
-2.470000000000027
 30
0.0
 11
2.800000000000011
 21
-2.399999999999977
 31
0.0
  0
LWPOLYLINE
  5
A3
330
87
100
AcDbEntity
  8
G-IMPT
100
AcDbPolyline
 90
6
 70
128
 10
2.500000000000028
 20
-2.100000000000022
 10
2.33218007376459
 20
-2.100000000000022
 10
1.69999999999996
 20
-2.85340287407547
 10
1.69999999999996
 20
-5.146597125924699
 10
2.33218007376459
 20
-5.900000000000147
 10
2.500000000000028
 20
-5.900000000000147
  0
LINE
  5
A4
330
87
100
AcDbEntity
  8
G-IMPT
100
AcDbLine
 10
2.800000000000039
 20
-5.600000000000136
 30
0.0
 11
2.800000000000039
 21
-5.530000000000143
 31
0.0
  0
LINE
  5
A5
330
87
100
AcDbEntity
  8
G-IMPT
100
AcDbLine
 10
3.030000000000001
 20
-5.300000000000068
 30
0.0
 11
3.700000000000017
 21
-5.300000000000068
 31
0.0
  0
LINE
  5
A6
330
87
100
AcDbEntity
  8
G-IMPT
100
AcDbLine
 10
4.200000000000017
 20
-5.800000000000011
 30
0.0
 11
4.200000000000017
 21
-7.041695646089976
 31
0.0
  0
LINE
  5
A7
330
87
100
AcDbEntity
  8
G-IMPT
100
AcDbLine
 10
4.159324009748729
 20
-4.500000000000113
 30
0.0
 11
2.800000000000011
 21
-4.500000000000113
 31
0.0
  0
LINE
  5
A8
330
87
100
AcDbEntity
  8
G-IMPT
100
AcDbLine
 10
2.5
 20
-4.200000000000045
 30
0.0
 11
2.5
 21
-3.800000000000068
 31
0.0
  0
LINE
  5
A9
330
87
100
AcDbEntity
  8
G-IMPT
100
AcDbLine
 10
2.800000000000011
 20
-3.500000000000057
 30
0.0
 11
3.987895438320151
 21
-3.500000000000057
 31
0.0
  0
LINE
  5
AA
330
87
100
AcDbEntity
  8
G-IMPT
100
AcDbLine
 10
4.263638947325517
 20
-3.681824210426384
 30
0.0
 11
4.435067518754152
 21
-4.081824210426304
 31
0.0
  0
LINE
  5
AB
330
87
100
AcDbEntity
  8
G-IMPT
100
AcDbLine
 10
4.800000000000011
 20
-2.062831879667726
 30
0.0
 11
4.800000000000011
 21
-0.3000000000000682
 31
0.0
  0
ARC
  5
AC
330
87
100
AcDbEntity
  8
G-IMPT
100
AcDbCircle
 10
3.699999999999992
 20
-0.3000000000000535
 30
0.0
 40
1.099999999999991
100
AcDbArc
 50
359.9999999999988
 51
31.48621880147814
  0
ARC
  5
AD
330
87
100
AcDbEntity
  8
G-IMPT
100
AcDbCircle
 10
4.893872140792979
 20
0.431210852927012
 30
0.0
 40
0.2999999999999939
100
AcDbArc
 50
145.4153083750107
 51
211.4862188014772
  0
ARC
  5
AE
330
87
100
AcDbEntity
  8
G-IMPT
100
AcDbCircle
 10
6.811792091753927
 20
-0.8911173383816773
 30
0.0
 40
2.629585539065635
100
AcDbArc
 50
124.1035751688085
 51
145.4153083750157
  0
ARC
  5
AF
330
87
100
AcDbEntity
  8
G-IMPT
100
AcDbCircle
 10
5.505615230950379
 20
1.037838542950265
 30
0.0
 40
0.3000000000000047
100
AcDbArc
 50
2.333164340991158
 51
124.1035751688062
  0
ARC
  5
B0
330
87
100
AcDbEntity
  8
G-IMPT
100
AcDbCircle
 10
9.092288851755448
 20
1.183973697481915
 30
0.0
 40
3.289649446055823
100
AcDbArc
 50
182.3331643409945
 51
204.09828032683
  0
ARC
  5
B1
330
87
100
AcDbEntity
  8
G-IMPT
100
AcDbCircle
 10
5.176497658524356
 20
-0.5675033080939381
 30
0.0
 40
1.00000000000001
100
AcDbArc
 50
326.3939710081
 51
24.09828032683147
  0
ENDBLK
  5
89
330
87
100
AcDbEntity
  8
0
100
AcDbBlockEnd
  0
ENDSEC
  0
SECTION
  2
ENTITIES
  0
INSERT
  5
B3
330
17
100
AcDbEntity
  8
0
100
AcDbBlockReference
  2
31 GlasVast - DI_GlasVast-3345025-00_0 Basismaterialen
 10
0.0
 20
0.0
 30
0.0
  0
ENDSEC
  0
SECTION
  2
OBJECTS
  0
DICTIONARY
  5
A
330
0
100
AcDbDictionary
281
1
  3
ACAD_COLOR
350
B
  3
ACAD_GROUP
350
C
  3
ACAD_LAYOUT
350
D
  3
ACAD_MATERIAL
350
E
  3
ACAD_MLEADERSTYLE
350
F
  3
ACAD_MLINESTYLE
350
10
  3
ACAD_PLOTSETTINGS
350
11
  3
ACAD_PLOTSTYLENAME
350
12
  3
ACAD_SCALELIST
350
14
  3
ACAD_TABLESTYLE
350
15
  3
ACAD_VISUALSTYLE
350
16
  3
EZDXF_META
350
2D
  0
DICTIONARY
  5
B
330
A
100
AcDbDictionary
281
1
  0
DICTIONARY
  5
C
330
A
100
AcDbDictionary
281
1
  0
DICTIONARY
  5
D
330
A
100
AcDbDictionary
281
1
  3
Model
350
1A
  3
Layout1
350
1E
  0
DICTIONARY
  5
E
330
A
100
AcDbDictionary
281
1
  3
ByBlock
350
1F
  3
ByLayer
350
20
  3
Global
350
21
  0
DICTIONARY
  5
F
330
A
100
AcDbDictionary
281
1
  3
Standard
350
2C
  0
DICTIONARY
  5
10
330
A
100
AcDbDictionary
281
1
  3
Standard
350
22
  0
DICTIONARY
  5
11
330
A
100
AcDbDictionary
281
1
  0
ACDBDICTIONARYWDFLT
  5
12
330
A
100
AcDbDictionary
281
1
  3
Normal
350
13
100
AcDbDictionaryWithDefault
340
13
  0
ACDBPLACEHOLDER
  5
13
330
12
  0
DICTIONARY
  5
14
330
A
100
AcDbDictionary
281
1
  0
DICTIONARY
  5
15
330
A
100
AcDbDictionary
281
1
  0
DICTIONARY
  5
16
330
A
100
AcDbDictionary
281
1
  0
LAYOUT
  5
1A
330
D
100
AcDbPlotSettings
  1

  4
A3
  6

 40
7.5
 41
20.0
 42
7.5
 43
20.0
 44
420.0
 45
297.0
 46
0.0
 47
0.0
 48
0.0
 49
0.0
140
0.0
141
0.0
142
1.0
143
1.0
 70
1024
 72
1
 73
0
 74
5
  7

 75
16
 76
0
 77
2
 78
300
147
1.0
148
0.0
149
0.0
100
AcDbLayout
  1
Model
 70
1
 71
0
 10
0.0
 20
0.0
 11
420.0
 21
297.0
 12
0.0
 22
0.0
 32
0.0
 14
1e+20
 24
1e+20
 34
1e+20
 15
-1e+20
 25
-1e+20
 35
-1e+20
146
0.0
 13
0.0
 23
0.0
 33
0.0
 16
1.0
 26
0.0
 36
0.0
 17
0.0
 27
1.0
 37
0.0
 76
1
330
17
  0
LAYOUT
  5
1E
330
D
100
AcDbPlotSettings
  1

  4
A3
  6

 40
7.5
 41
20.0
 42
7.5
 43
20.0
 44
420.0
 45
297.0
 46
0.0
 47
0.0
 48
0.0
 49
0.0
140
0.0
141
0.0
142
1.0
143
1.0
 70
0
 72
1
 73
0
 74
5
  7

 75
16
 76
0
 77
2
 78
300
147
1.0
148
0.0
149
0.0
100
AcDbLayout
  1
Layout1
 70
1
 71
1
 10
0.0
 20
0.0
 11
420.0
 21
297.0
 12
0.0
 22
0.0
 32
0.0
 14
1e+20
 24
1e+20
 34
1e+20
 15
-1e+20
 25
-1e+20
 35
-1e+20
146
0.0
 13
0.0
 23
0.0
 33
0.0
 16
1.0
 26
0.0
 36
0.0
 17
0.0
 27
1.0
 37
0.0
 76
1
330
1B
  0
MATERIAL
  5
1F
102
{ACAD_REACTORS
330
E
102
}
330
E
100
AcDbMaterial
  1
ByBlock
  2

 70
0
 40
1.0
 71
1
 41
1.0
 91
-1023410177
 42
1.0
 72
1
  3

 73
1
 74
1
 75
1
 44
0.5
 73
0
 45
1.0
 46
1.0
 77
1
  4

 78
1
 79
1
170
1
 48
1.0
171
1
  6

172
1
173
1
174
1
140
1.0
141
1.0
175
1
  7

176
1
177
1
178
1
143
1.0
179
1
  8

270
1
271
1
272
1
145
1.0
146
1.0
273
1
  9

274
1
275
1
276
1
 42
1.0
 72
1
  3

 73
1
 74
1
 75
1
 94
63
  0
MATERIAL
  5
20
102
{ACAD_REACTORS
330
E
102
}
330
E
100
AcDbMaterial
  1
ByLayer
  2

 70
0
 40
1.0
 71
1
 41
1.0
 91
-1023410177
 42
1.0
 72
1
  3

 73
1
 74
1
 75
1
 44
0.5
 73
0
 45
1.0
 46
1.0
 77
1
  4

 78
1
 79
1
170
1
 48
1.0
171
1
  6

172
1
173
1
174
1
140
1.0
141
1.0
175
1
  7

176
1
177
1
178
1
143
1.0
179
1
  8

270
1
271
1
272
1
145
1.0
146
1.0
273
1
  9

274
1
275
1
276
1
 42
1.0
 72
1
  3

 73
1
 74
1
 75
1
 94
63
  0
MATERIAL
  5
21
102
{ACAD_REACTORS
330
E
102
}
330
E
100
AcDbMaterial
  1
Global
  2

 70
0
 40
1.0
 71
1
 41
1.0
 91
-1023410177
 42
1.0
 72
1
  3

 73
1
 74
1
 75
1
 44
0.5
 73
0
 45
1.0
 46
1.0
 77
1
  4

 78
1
 79
1
170
1
 48
1.0
171
1
  6

172
1
173
1
174
1
140
1.0
141
1.0
175
1
  7

176
1
177
1
178
1
143
1.0
179
1
  8

270
1
271
1
272
1
145
1.0
146
1.0
273
1
  9

274
1
275
1
276
1
 42
1.0
 72
1
  3

 73
1
 74
1
 75
1
 94
63
  0
MLINESTYLE
  5
22
102
{ACAD_REACTORS
330
10
102
}
330
10
100
AcDbMlineStyle
  2
Standard
 70
0
  3

 62
256
 51
90.0
 52
90.0
 71
2
 49
0.5
 62
256
  6
BYLAYER
 49
-0.5
 62
256
  6
BYLAYER
  0
MLEADERSTYLE
  5
2C
102
{ACAD_REACTORS
330
F
102
}
330
F
100
AcDbMLeaderStyle
179
2
170
2
171
1
172
0
 90
2
 40
0.0
 41
0.0
173
1
 91
-1056964608
 92
-2
290
1
 42
2.0
291
1
 43
8.0
  3
Standard
 44
4.0
300

342
29
174
1
175
1
176
0
178
1
 93
-1056964608
 45
4.0
292
0
297
0
 46
4.0
 94
-1056964608
 47
1.0
 49
1.0
140
1.0
294
1
141
0.0
177
0
142
1.0
295
0
296
0
143
3.75
271
0
272
9
273
9
  0
DICTIONARY
  5
2D
330
A
100
AcDbDictionary
280
1
281
1
  3
CREATED_BY_EZDXF
350
2E
  3
WRITTEN_BY_EZDXF
350
B7
  0
DICTIONARYVAR
  5
2E
330
2D
100
DictionaryVariables
280
0
  1
1.4.3 @ 2026-02-13T04:54:13.074042+00:00
  0
DICTIONARYVAR
  5
B7
330
2D
100
DictionaryVariables
280
0
  1
1.4.3 @ 2026-02-13T04:54:13.081562+00:00
  0
ENDSEC
  0
EOF
