  0
SECTION
  2
HEADER
  9
$ACADVER
  1
AC1032
  9
$ACADMAINTVER
 90
4
  9
$DWGCODEPAGE
  3
ANSI_1252
  9
$LASTSAVEDBY
  1
ezdxf
  9
$REQUIREDVERSIONS
160
0
  9
$INSBASE
 10
0.0
 20
0.0
 30
0.0
  9
$EXTMIN
 10
1e+20
 20
1e+20
 30
1e+20
  9
$EXTMAX
 10
-1e+20
 20
-1e+20
 30
-1e+20
  9
$LIMMIN
 10
0.0
 20
0.0
  9
$LIMMAX
 10
420.0
 20
297.0
  9
$ORTHOMODE
 70
0
  9
$REGENMODE
 70
1
  9
$FILLMODE
 70
1
  9
$QTEXTMODE
 70
0
  9
$MIRRTEXT
 70
1
  9
$LTSCALE
 40
1.0
  9
$ATTMODE
 70
1
  9
$TEXTSIZE
 40
2.5
  9
$TRACEWID
 40
1.0
  9
$TEXTSTYLE
  7
Standard
  9
$CLAYER
  8
0
  9
$CELTYPE
  6
ByLayer
  9
$CECOLOR
 62
256
  9
$CELTSCALE
 40
1.0
  9
$DISPSILH
 70
0
  9
$DIMSCALE
 40
1.0
  9
$DIMASZ
 40
2.5
  9
$DIMEXO
 40
0.625
  9
$DIMDLI
 40
3.75
  9
$DIMRND
 40
0.0
  9
$DIMDLE
 40
0.0
  9
$DIMEXE
 40
1.25
  9
$DIMTP
 40
0.0
  9
$DIMTM
 40
0.0
  9
$DIMTXT
 40
2.5
  9
$DIMCEN
 40
2.5
  9
$DIMTSZ
 40
0.0
  9
$DIMTOL
 70
0
  9
$DIMLIM
 70
0
  9
$DIMTIH
 70
0
  9
$DIMTOH
 70
0
  9
$DIMSE1
 70
0
  9
$DIMSE2
 70
0
  9
$DIMTAD
 70
1
  9
$DIMZIN
 70
8
  9
$DIMBLK
  1

  9
$DIMASO
 70
1
  9
$DIMSHO
 70
1
  9
$DIMPOST
  1

  9
$DIMAPOST
  1

  9
$DIMALT
 70
0
  9
$DIMALTD
 70
3
  9
$DIMALTF
 40
0.03937007874
  9
$DIMLFAC
 40
1.0
  9
$DIMTOFL
 70
1
  9
$DIMTVP
 40
0.0
  9
$DIMTIX
 70
0
  9
$DIMSOXD
 70
0
  9
$DIMSAH
 70
0
  9
$DIMBLK1
  1

  9
$DIMBLK2
  1

  9
$DIMSTYLE
  2
ISO-25
  9
$DIMCLRD
 70
0
  9
$DIMCLRE
 70
0
  9
$DIMCLRT
 70
0
  9
$DIMTFAC
 40
1.0
  9
$DIMGAP
 40
0.625
  9
$DIMJUST
 70
0
  9
$DIMSD1
 70
0
  9
$DIMSD2
 70
0
  9
$DIMTOLJ
 70
0
  9
$DIMTZIN
 70
8
  9
$DIMALTZ
 70
0
  9
$DIMALTTZ
 70
0
  9
$DIMUPT
 70
0
  9
$DIMDEC
 70
2
  9
$DIMTDEC
 70
2
  9
$DIMALTU
 70
2
  9
$DIMALTTD
 70
3
  9
$DIMTXSTY
  7
Standard
  9
$DIMAUNIT
 70
0
  9
$DIMADEC
 70
0
  9
$DIMALTRND
 40
0.0
  9
$DIMAZIN
 70
0
  9
$DIMDSEP
 70
44
  9
$DIMATFIT
 70
3
  9
$DIMFRAC
 70
0
  9
$DIMLDRBLK
  1

  9
$DIMLUNIT
 70
2
  9
$DIMLWD
 70
-2
  9
$DIMLWE
 70
-2
  9
$DIMTMOVE
 70
0
  9
$DIMFXL
 40
1.0
  9
$DIMFXLON
 70
0
  9
$DIMJOGANG
 40
0.785398163397
  9
$DIMTFILL
 70
0
  9
$DIMTFILLCLR
 70
0
  9
$DIMARCSYM
 70
0
  9
$DIMLTYPE
  6

  9
$DIMLTEX1
  6

  9
$DIMLTEX2
  6

  9
$DIMTXTDIRECTION
 70
0
  9
$LUNITS
 70
2
  9
$LUPREC
 70
4
  9
$SKETCHINC
 40
1.0
  9
$FILLETRAD
 40
10.0
  9
$AUNITS
 70
0
  9
$AUPREC
 70
2
  9
$MENU
  1
.
  9
$ELEVATION
 40
0.0
  9
$PELEVATION
 40
0.0
  9
$THICKNESS
 40
0.0
  9
$LIMCHECK
 70
0
  9
$CHAMFERA
 40
0.0
  9
$CHAMFERB
 40
0.0
  9
$CHAMFERC
 40
0.0
  9
$CHAMFERD
 40
0.0
  9
$SKPOLY
 70
0
  9
$TDCREATE
 40
2461085.245972222
  9
$TDUCREATE
 40
2458532.153996898
  9
$TDUPDATE
 40
2461085.245972222
  9
$TDUUPDATE
 40
2458532.1544311
  9
$TDINDWG
 40
0.0
  9
$TDUSRTIMER
 40
0.0
  9
$USRTIMER
 70
1
  9
$ANGBASE
 50
0.0
  9
$ANGDIR
 70
0
  9
$PDMODE
 70
0
  9
$PDSIZE
 40
0.0
  9
$PLINEWID
 40
0.0
  9
$SPLFRAME
 70
0
  9
$SPLINETYPE
 70
6
  9
$SPLINESEGS
 70
8
  9
$HANDSEED
  5
C0
  9
$SURFTAB1
 70
6
  9
$SURFTAB2
 70
6
  9
$SURFTYPE
 70
6
  9
$SURFU
 70
6
  9
$SURFV
 70
6
  9
$UCSBASE
  2

  9
$UCSNAME
  2

  9
$UCSORG
 10
0.0
 20
0.0
 30
0.0
  9
$UCSXDIR
 10
1.0
 20
0.0
 30
0.0
  9
$UCSYDIR
 10
0.0
 20
1.0
 30
0.0
  9
$UCSORTHOREF
  2

  9
$UCSORTHOVIEW
 70
0
  9
$UCSORGTOP
 10
0.0
 20
0.0
 30
0.0
  9
$UCSORGBOTTOM
 10
0.0
 20
0.0
 30
0.0
  9
$UCSORGLEFT
 10
0.0
 20
0.0
 30
0.0
  9
$UCSORGRIGHT
 10
0.0
 20
0.0
 30
0.0
  9
$UCSORGFRONT
 10
0.0
 20
0.0
 30
0.0
  9
$UCSORGBACK
 10
0.0
 20
0.0
 30
0.0
  9
$PUCSBASE
  2

  9
$PUCSNAME
  2

  9
$PUCSORG
 10
0.0
 20
0.0
 30
0.0
  9
$PUCSXDIR
 10
1.0
 20
0.0
 30
0.0
  9
$PUCSYDIR
 10
0.0
 20
1.0
 30
0.0
  9
$PUCSORTHOREF
  2

  9
$PUCSORTHOVIEW
 70
0
  9
$PUCSORGTOP
 10
0.0
 20
0.0
 30
0.0
  9
$PUCSORGBOTTOM
 10
0.0
 20
0.0
 30
0.0
  9
$PUCSORGLEFT
 10
0.0
 20
0.0
 30
0.0
  9
$PUCSORGRIGHT
 10
0.0
 20
0.0
 30
0.0
  9
$PUCSORGFRONT
 10
0.0
 20
0.0
 30
0.0
  9
$PUCSORGBACK
 10
0.0
 20
0.0
 30
0.0
  9
$USERI1
 70
0
  9
$USERI2
 70
0
  9
$USERI3
 70
0
  9
$USERI4
 70
0
  9
$USERI5
 70
0
  9
$USERR1
 40
0.0
  9
$USERR2
 40
0.0
  9
$USERR3
 40
0.0
  9
$USERR4
 40
0.0
  9
$USERR5
 40
0.0
  9
$WORLDVIEW
 70
1
  9
$SHADEDGE
 70
3
  9
$SHADEDIF
 70
70
  9
$TILEMODE
 70
1
  9
$MAXACTVP
 70
64
  9
$PINSBASE
 10
0.0
 20
0.0
 30
0.0
  9
$PLIMCHECK
 70
0
  9
$PEXTMIN
 10
1e+20
 20
1e+20
 30
1e+20
  9
$PEXTMAX
 10
-1e+20
 20
-1e+20
 30
-1e+20
  9
$PLIMMIN
 10
0.0
 20
0.0
  9
$PLIMMAX
 10
420.0
 20
297.0
  9
$UNITMODE
 70
0
  9
$VISRETAIN
 70
1
  9
$PLINEGEN
 70
0
  9
$PSLTSCALE
 70
1
  9
$TREEDEPTH
 70
3020
  9
$CMLSTYLE
  2
Standard
  9
$CMLJUST
 70
0
  9
$CMLSCALE
 40
20.0
  9
$PROXYGRAPHICS
 70
1
  9
$MEASUREMENT
 70
1
  9
$CELWEIGHT
370
-1
  9
$ENDCAPS
280
0
  9
$JOINSTYLE
280
0
  9
$LWDISPLAY
290
0
  9
$INSUNITS
 70
6
  9
$HYPERLINKBASE
  1

  9
$STYLESHEET
  1

  9
$XEDIT
290
1
  9
$CEPSNTYPE
380
0
  9
$PSTYLEMODE
290
1
  9
$FINGERPRINTGUID
  2
{56E43EF0-F13D-46CD-8090-6CDECE5DC867}
  9
$VERSIONGUID
  2
{9E20F69E-F383-4AA9-856F-B7261EE485CB}
  9
$EXTNAMES
290
1
  9
$PSVPSCALE
 40
0.0
  9
$OLESTARTUP
290
0
  9
$SORTENTS
280
127
  9
$INDEXCTL
280
0
  9
$HIDETEXT
280
1
  9
$XCLIPFRAME
280
1
  9
$HALOGAP
280
0
  9
$OBSCOLOR
 70
257
  9
$OBSLTYPE
280
0
  9
$INTERSECTIONDISPLAY
280
0
  9
$INTERSECTIONCOLOR
 70
257
  9
$DIMASSOC
280
2
  9
$PROJECTNAME
  1

  9
$CAMERADISPLAY
290
0
  9
$LENSLENGTH
 40
50.0
  9
$CAMERAHEIGHT
 40
0.0
  9
$STEPSPERSEC
 40
24.0
  9
$STEPSIZE
 40
100.0
  9
$3DDWFPREC
 40
2.0
  9
$PSOLWIDTH
 40
0.005
  9
$PSOLHEIGHT
 40
0.08
  9
$LOFTANG1
 40
1.570796326795
  9
$LOFTANG2
 40
1.570796326795
  9
$LOFTMAG1
 40
0.0
  9
$LOFTMAG2
 40
0.0
  9
$LOFTPARAM
 70
7
  9
$LOFTNORMALS
280
1
  9
$LATITUDE
 40
37.795
  9
$LONGITUDE
 40
-122.394
  9
$NORTHDIRECTION
 40
0.0
  9
$TIMEZONE
 70
-8000
  9
$LIGHTGLYPHDISPLAY
280
1
  9
$TILEMODELIGHTSYNCH
280
1
  9
$CMATERIAL
347
20
  9
$SOLIDHIST
280
0
  9
$SHOWHIST
280
1
  9
$DWFFRAME
280
2
  9
$DGNFRAME
280
2
  9
$REALWORLDSCALE
290
1
  9
$INTERFERECOLOR
 62
256
  9
$CSHADOW
280
0
  9
$SHADOWPLANELOCATION
 40
0.0
  0
ENDSEC
  0
SECTION
  2
CLASSES
  0
CLASS
  1
ACDBDICTIONARYWDFLT
  2
AcDbDictionaryWithDefault
  3
ObjectDBX Classes
 90
0
 91
0
280
0
281
0
  0
CLASS
  1
SUN
  2
AcDbSun
  3
SCENEOE
 90
1153
 91
0
280
0
281
0
  0
CLASS
  1
VISUALSTYLE
  2
AcDbVisualStyle
  3
ObjectDBX Classes
 90
4095
 91
0
280
0
281
0
  0
CLASS
  1
MATERIAL
  2
AcDbMaterial
  3
ObjectDBX Classes
 90
1153
 91
0
280
0
281
0
  0
CLASS
  1
SCALE
  2
AcDbScale
  3
ObjectDBX Classes
 90
1153
 91
0
280
0
281
0
  0
CLASS
  1
TABLESTYLE
  2
AcDbTableStyle
  3
ObjectDBX Classes
 90
4095
 91
0
280
0
281
0
  0
CLASS
  1
MLEADERSTYLE
  2
AcDbMLeaderStyle
  3
ACDB_MLEADERSTYLE_CLASS
 90
4095
 91
0
280
0
281
0
  0
CLASS
  1
DICTIONARYVAR
  2
AcDbDictionaryVar
  3
ObjectDBX Classes
 90
0
 91
0
280
0
281
0
  0
CLASS
  1
CELLSTYLEMAP
  2
AcDbCellStyleMap
  3
ObjectDBX Classes
 90
1152
 91
0
280
0
281
0
  0
CLASS
  1
MENTALRAYRENDERSETTINGS
  2
AcDbMentalRayRenderSettings
  3
SCENEOE
 90
1024
 91
0
280
0
281
0
  0
CLASS
  1
ACDBDETAILVIEWSTYLE
  2
AcDbDetailViewStyle
  3
ObjectDBX Classes
 90
1025
 91
0
280
0
281
0
  0
CLASS
  1
ACDBSECTIONVIEWSTYLE
  2
AcDbSectionViewStyle
  3
ObjectDBX Classes
 90
1025
 91
0
280
0
281
0
  0
CLASS
  1
RASTERVARIABLES
  2
AcDbRasterVariables
  3
ISM
 90
0
 91
0
280
0
281
0
  0
CLASS
  1
LAYOUT
  2
AcDbLayout
  3
ObjectDBX Classes
 90
0
 91
0
280
0
281
0
  0
CLASS
  1
ACDBPLACEHOLDER
  2
AcDbPlaceHolder
  3
ObjectDBX Classes
 90
0
 91
0
280
0
281
0
  0
ENDSEC
  0
SECTION
  2
TABLES
  0
TABLE
  2
VPORT
  5
8
330
0
100
AcDbSymbolTable
 70
1
  0
VPORT
  5
23
330
8
100
AcDbSymbolTableRecord
100
AcDbViewportTableRecord
  2
*Active
 70
0
 10
0.0
 20
0.0
 11
1.0
 21
1.0
 12
0.0
 22
0.0
 13
0.0
 23
0.0
 14
0.5
 24
0.5
 15
0.5
 25
0.5
 16
0.0
 26
0.0
 36
1.0
 17
0.0
 27
0.0
 37
0.0
 40
1000.0
 41
1.34
 42
50.0
 43
0.0
 44
0.0
 50
0.0
 51
0.0
 71
0
 72
1000
 73
1
 74
3
 75
0
 76
0
 77
0
 78
0
281
0
 65
0
146
0.0
  0
ENDTAB
  0
TABLE
  2
LTYPE
  5
2
330
0
100
AcDbSymbolTable
 70
3
  0
LTYPE
  5
24
330
2
100
AcDbSymbolTableRecord
100
AcDbLinetypeTableRecord
  2
ByBlock
 70
0
  3

 72
65
 73
0
 40
0.0
  0
LTYPE
  5
25
330
2
100
AcDbSymbolTableRecord
100
AcDbLinetypeTableRecord
  2
ByLayer
 70
0
  3

 72
65
 73
0
 40
0.0
  0
LTYPE
  5
26
330
2
100
AcDbSymbolTableRecord
100
AcDbLinetypeTableRecord
  2
Continuous
 70
0
  3

 72
65
 73
0
 40
0.0
  0
ENDTAB
  0
TABLE
  2
LAYER
  5
1
330
0
100
AcDbSymbolTable
 70
3
  0
LAYER
  5
27
330
1
100
AcDbSymbolTableRecord
100
AcDbLayerTableRecord
  2
0
 70
0
 62
7
  6
Continuous
370
-3
390
13
347
21
  0
LAYER
  5
28
330
1
100
AcDbSymbolTableRecord
100
AcDbLayerTableRecord
  2
Defpoints
 70
0
 62
7
  6
Continuous
290
0
370
-3
390
13
347
21
  0
LAYER
  5
BA
330
1
100
AcDbSymbolTableRecord
100
AcDbLayerTableRecord
  2
A-DETL-GENF
 70
0
 62
92
  6
Continuous
370
18
390
13
347
21
348
0
  0
ENDTAB
  0
TABLE
  2
STYLE
  5
5
330
0
100
AcDbSymbolTable
 70
1
  0
STYLE
  5
29
330
5
100
AcDbSymbolTableRecord
100
AcDbTextStyleTableRecord
  2
Standard
 70
0
 40
0.0
 41
1.0
 50
0.0
 71
0
 42
2.5
  3
txt
  4

  0
ENDTAB
  0
TABLE
  2
VIEW
  5
7
330
0
100
AcDbSymbolTable
 70
0
  0
ENDTAB
  0
TABLE
  2
UCS
  5
6
330
0
100
AcDbSymbolTable
 70
0
  0
ENDTAB
  0
TABLE
  2
APPID
  5
3
330
0
100
AcDbSymbolTable
 70
3
  0
APPID
  5
2A
330
3
100
AcDbSymbolTableRecord
100
AcDbRegAppTableRecord
  2
ACAD
 70
0
  0
APPID
  5
BD
330
3
100
AcDbSymbolTableRecord
100
AcDbRegAppTableRecord
  2
HATCHBACKGROUNDCOLOR
 70
0
  0
APPID
  5
BE
330
3
100
AcDbSymbolTableRecord
100
AcDbRegAppTableRecord
  2
EZDXF
 70
0
  0
ENDTAB
  0
TABLE
  2
DIMSTYLE
  5
4
330
0
100
AcDbSymbolTable
 70
1
100
AcDbDimStyleTable
  0
DIMSTYLE
105
2B
330
4
100
AcDbSymbolTableRecord
100
AcDbDimStyleTableRecord
  2
Standard
 70
0
 40
1.0
 41
2.5
 42
0.625
 43
3.75
 44
1.25
 45
0.0
 46
0.0
 47
0.0
 48
0.0
 49
2.5
140
2.5
141
2.5
142
0.0
143
0.03937007874
144
1.0
145
0.0
146
1.0
147
0.625
148
0.0
 69
0
 70
0
 71
0
 72
0
 73
0
 74
0
 75
0
 76
0
 77
1
 78
8
 79
3
170
0
171
3
172
1
173
0
174
0
175
0
176
0
177
0
178
0
179
2
271
2
272
2
273
2
274
3
275
0
276
0
277
2
278
44
279
0
280
0
281
0
282
0
283
0
284
8
285
0
286
0
288
0
289
3
290
0
371
-2
372
-2
  0
ENDTAB
  0
TABLE
  2
BLOCK_RECORD
  5
9
330
0
100
AcDbSymbolTable
 70
3
  0
BLOCK_RECORD
  5
17
330
9
100
AcDbSymbolTableRecord
100
AcDbBlockTableRecord
  2
*Model_Space
340
1A
 70
0
280
1
281
0
  0
BLOCK_RECORD
  5
1B
330
9
100
AcDbSymbolTableRecord
100
AcDbBlockTableRecord
  2
*Paper_Space
340
1E
 70
0
280
1
281
0
  0
BLOCK_RECORD
  5
2F
330
9
100
AcDbSymbolTableRecord
100
AcDbBlockTableRecord
  2
31 Harol SC1000 - horizontaal-4587913-00_0 Basismaterialen
340
0
 70
0
280
1
281
0
  0
ENDTAB
  0
ENDSEC
  0
SECTION
  2
BLOCKS
  0
BLOCK
  5
18
330
17
100
AcDbEntity
  8
0
100
AcDbBlockBegin
  2
*Model_Space
 70
0
 10
0.0
 20
0.0
 30
0.0
  3
*Model_Space
  1

  0
ENDBLK
  5
19
330
17
100
AcDbEntity
  8
0
100
AcDbBlockEnd
  0
BLOCK
  5
1C
330
1B
100
AcDbEntity
  8
0
100
AcDbBlockBegin
  2
*Paper_Space
 70
0
 10
0.0
 20
0.0
 30
0.0
  3
*Paper_Space
  1

  0
ENDBLK
  5
1D
330
1B
100
AcDbEntity
  8
0
100
AcDbBlockEnd
  0
BLOCK
  5
30
330
2F
100
AcDbEntity
  8
0
100
AcDbBlockBegin
  2
31 Harol SC1000 - horizontaal-4587913-00_0 Basismaterialen
 70
0
 10
0.0
 20
0.0
 30
0.0
  3
31 Harol SC1000 - horizontaal-4587913-00_0 Basismaterialen
  1

  0
HATCH
  5
32
330
2F
100
AcDbEntity
  8
A-DETL-GENF
100
AcDbHatch
 10
0.0
 20
0.0
 30
0.0
210
0.0
220
0.0
230
1.0
  2
SOLID
 70
1
 71
0
 91
1
 92
1
 93
39
 72
1
 10
-19.75000277163291
 20
2.1657e-12
 11
-1.73266e-11
 21
2.1657e-12
 72
1
 10
-1.73259e-11
 20
2.1657e-12
 11
-1.73259e-11
 21
40.00002145767445
 72
1
 10
-1.73259e-11
 20
40.00002145767445
 11
-19.75000277163291
 21
40.00002145767445
 72
1
 10
-19.75000277163291
 20
40.00002145767445
 11
-19.75000277163291
 21
30.82644939422964
 72
1
 10
-19.75000277163291
 20
30.82644939422964
 11
-22.47000485660112
 21
30.82644939422964
 72
1
 10
-22.47000485660112
 20
30.82644939422964
 11
-22.99078833637658
 21
31.42887729726241
 72
1
 10
-22.99078833637658
 20
31.42887729726241
 11
-25.65000578781935
 21
30.15879280475175
 72
1
 10
-25.65000578781935
 20
30.15879280475175
 11
-25.65000578816587
 21
29.02503870462516
 72
1
 10
-25.65000578816587
 20
29.02503870462516
 11
-25.51181275028915
 21
28.64197922760276
 72
1
 10
-25.51181275028915
 20
28.64197922760276
 11
-25.29285143272409
 21
28.47637979818001
 72
1
 10
-25.29285143272409
 20
28.47637979818001
 11
-24.88663752442734
 21
28.44770682555193
 72
1
 10
-24.88663752442734
 20
28.44770682555193
 11
-24.59585358795132
 21
28.61517747993911
 72
1
 10
-24.59585358795132
 20
28.61517747993911
 11
-24.41911070677273
 21
28.90042065995343
 72
1
 10
-24.41911070677273
 20
28.90042065995343
 11
-24.39859379655865
 21
29.23535464477327
 72
1
 10
-24.39859379655865
 20
29.23535464477327
 11
-24.45000410092055
 21
29.39641475677698
 72
1
 10
-24.45000410092055
 20
29.39641475677698
 11
-23.4243422748579
 21
29.87641096115519
 72
1
 10
-23.4243422748579
 20
29.87641096115519
 11
-22.65497715761316
 21
29.62642908096583
 72
1
 10
-22.65497715761316
 20
29.62642908096583
 11
-18.25000345708381
 21
29.62642908096583
 72
1
 10
-18.25000345708381
 20
29.62642908096583
 11
-18.25000345708381
 21
38.50001096725871
 72
1
 10
-18.25000345708381
 20
38.50001096725871
 11
-1.500003039854583
 21
38.50001096725871
 72
1
 10
-1.500003039854584
 20
38.50001096725871
 11
-1.500003039854584
 21
1.500010490420081
 72
1
 10
-1.500003039854584
 20
1.500010490420078
 11
-18.25000345708381
 21
1.500010490420078
 72
1
 10
-18.25000345708381
 20
1.500010490420078
 11
-18.25000345708381
 21
10.37365198135818
 72
1
 10
-18.25000345708381
 20
10.37365198135818
 11
-22.65497715743556
 21
10.37365198135818
 72
1
 10
-22.65497715743556
 20
10.37365198135818
 11
-23.42434227468465
 21
10.12367010116883
 72
1
 10
-23.42434227468465
 20
10.12367010116883
 11
-24.4500041008166
 21
10.60366630554487
 72
1
 10
-24.4500041008166
 20
10.60366630554487
 11
-24.38808373853457
 21
10.93346561804048
 72
1
 10
-24.38808373853457
 20
10.93346561804048
 11
-24.48979485074575
 21
11.25324142613231
 72
1
 10
-24.48979485074575
 20
11.25324142613231
 11
-24.73086107246424
 21
11.48666977602519
 72
1
 10
-24.73086107246424
 20
11.48666977602519
 11
-24.88663752424109
 21
11.55237423676991
 72
1
 10
-24.88663752424109
 20
11.55237423676991
 11
-25.29285143253784
 21
11.52370126413966
 72
1
 10
-25.29285143253784
 20
11.52370126413966
 11
-25.5118127501029
 21
11.35810183471909
 72
1
 10
-25.5118127501029
 20
11.35810183471909
 11
-25.65000578762877
 21
10.97504235769668
 72
1
 10
-25.65000578762877
 20
10.97504235769668
 11
-25.65000578762877
 21
9.841288257570103
 72
1
 10
-25.65000578762877
 20
9.841288257570103
 11
-22.99078833637658
 21
8.571203765059437
 72
1
 10
-22.99078833637658
 20
8.571203765059437
 11
-22.47000485660112
 21
9.173631668094373
 72
1
 10
-22.47000485660112
 20
9.173631668094373
 11
-19.75000277163291
 21
9.173631668094373
 72
1
 10
-19.75000277163291
 20
9.173631668094373
 11
-19.75000277163291
 21
1.391662266147728
 72
1
 10
-19.75000277163291
 20
1.391662266147727
 11
-19.75000277163291
 21
2.1658e-12
 97
0
 75
0
 76
1
 98
1
 10
0.0
 20
0.0
450
0
451
0
460
0.0
461
0.0
452
0
462
0.0
453
0
470

  0
HATCH
  5
33
330
2F
100
AcDbEntity
  8
A-DETL-GENF
100
AcDbHatch
 10
0.0
 20
0.0
 30
0.0
210
0.0
220
0.0
230
1.0
  2
SOLID
 70
1
 71
0
 91
2
 92
1
 93
174
 72
1
 10
-135.3500038385556
 20
2.1657e-12
 11
-135.3500038385556
 21
4.900038242343839
 72
1
 10
-135.3500038385556
 20
4.900038242343839
 11
-137.1000036597435
 21
4.900038242343839
 72
1
 10
-137.1000036597435
 20
4.900038242343839
 11
-137.1000036597435
 21
1.749992370607265
 72
1
 10
-137.1000036597435
 20
1.749992370607265
 11
-140.0000080466455
 21
1.749992370607265
 72
1
 10
-140.0000080466455
 20
1.749992370607265
 11
-139.9815850700631
 21
17.83692197581498
 72
1
 10
-139.9815850700631
 20
17.83692197581498
 11
-139.841458949323
 21
18.08349977214674
 72
1
 10
-139.841458949323
 20
18.08349977214674
 11
-139.5978024542267
 21
18.22864608368604
 72
1
 10
-139.5978024542267
 20
18.22864608368604
 11
-139.3142496256755
 21
18.23445407638286
 72
1
 10
-139.3142496256755
 20
18.23445407638286
 11
-139.0648539473898
 21
18.09940691792267
 72
1
 10
-139.0648539473898
 20
18.09940691792267
 11
-138.434948365004
 21
17.31094774569325
 72
1
 10
-138.434948365004
 20
17.31094774569325
 11
-137.7562201732799
 21
16.77277738634406
 72
1
 10
-137.7562201732799
 20
16.77277738634406
 11
-136.9732512735731
 21
16.40229257421328
 72
1
 10
-136.9732512735731
 20
16.40229257421328
 11
-136.1267237037397
 21
16.21874321457275
 72
1
 10
-136.1267237037397
 20
16.21874321457275
 11
-135.260621926809
 21
16.23166629158639
 72
1
 10
-135.260621926809
 20
16.23166629158639
 11
-134.4199474559722
 21
16.44039033910532
 72
1
 10
-134.4199474559722
 20
16.44039033910532
 11
-133.4767551340021
 21
16.98228719582523
 72
1
 10
-133.4767551340021
 20
16.98228719582523
 11
-133.2691898545417
 21
17.3814690601012
 72
1
 10
-133.2691898545417
 20
17.3814690601012
 11
-133.2807840940229
 21
17.83124131315408
 72
1
 10
-133.2807840940229
 20
17.83124131315408
 11
-133.5086402716681
 21
18.21919887309462
 72
1
 10
-133.5086402716681
 20
18.21919887309462
 11
-133.8958135845537
 21
18.44838511132306
 72
1
 10
-133.8958135845537
 20
18.44838511132306
 11
-134.3455433996236
 21
18.4615228220963
 72
1
 10
-134.3455433996236
 20
18.4615228220963
 11
-134.7454352408925
 21
18.25532868714387
 72
1
 10
-134.7454352408925
 20
18.25532868714387
 11
-134.9955499172404
 21
17.8813338279744
 72
1
 10
-134.9955499172404
 20
17.8813338279744
 11
-135.5466388361761
 21
17.78342950444832
 72
1
 10
-135.5466388361761
 20
17.78342950444832
 11
-136.1043196567275
 21
17.83114067223676
 72
1
 10
-136.1043196567275
 20
17.83114067223676
 11
-136.6307697777563
 21
18.02123150109183
 72
1
 10
-136.6307697777563
 20
18.02123150109183
 11
-137.0902847026801
 21
18.34080979652578
 72
1
 10
-137.0902847026801
 20
18.34080979652578
 11
-137.4516995624924
 21
18.76820136435057
 72
1
 10
-137.4516995624924
 20
18.76820136435057
 11
-137.6905027556055
 21
19.27441998125461
 72
1
 10
-137.6905027556055
 20
19.27441998125461
 11
-137.7904983549028
 21
19.82513327623241
 72
1
 10
-137.7904983549028
 20
19.82513327623241
 11
-137.6799223798761
 21
20.85166118284476
 72
1
 10
-137.6799223798761
 20
20.85166118284476
 11
-137.4067588067712
 21
21.23799769551583
 72
1
 10
-137.4067588067712
 20
21.23799769551583
 11
-136.9865664304064
 21
21.45551230545492
 72
1
 10
-136.9865664304064
 20
21.45551230545492
 11
-136.1262549181714
 21
21.54945400537028
 72
1
 10
-136.1262549181714
 20
21.54945400537028
 11
-135.5297809288722
 21
21.74326127793062
 72
1
 10
-135.5297809288722
 20
21.74326127793062
 11
-134.9866373117705
 21
22.05684936764246
 72
1
 10
-134.9866373117705
 20
22.05684936764246
 11
-134.5205629039166
 21
22.47651247675794
 72
1
 10
-134.5205629039166
 20
22.47651247675794
 11
-134.1519281268273
 21
22.98390865326175
 72
1
 10
-134.1519281268273
 20
22.98390865326175
 11
-135.2347675207322
 21
23.60910008716472
 72
1
 10
-135.2347675207322
 20
23.60910008716472
 11
-135.4975479888899
 21
23.26224507953122
 72
1
 10
-135.4975479888899
 20
23.26224507953122
 11
-135.8377921092583
 21
22.99095941952892
 72
1
 10
-135.8377921092583
 20
22.99095941952892
 11
-136.2344570302746
 21
22.8120211307256
 72
1
 10
-136.2344570302746
 20
22.8120211307256
 11
-136.663010480709
 21
22.73649689031667
 72
1
 10
-136.663010480709
 20
22.73649689031667
 11
-137.0969480006667
 21
22.76905759571388
 72
1
 10
-137.0969480006667
 20
22.76905759571388
 11
-137.5094321453098
 21
22.90768948664747
 72
1
 10
-137.5094321453098
 20
22.90768948664747
 11
-137.8749522824085
 21
23.14381868887242
 72
1
 10
-137.8749522824085
 20
23.14381868887242
 11
-138.1709023314242
 21
23.46284147685409
 72
1
 10
-138.1709023314242
 20
23.46284147685409
 11
-138.3789788667573
 21
23.84502746065081
 72
1
 10
-138.3789788667573
 20
23.84502746065081
 11
-138.4863131174729
 21
24.26673983821079
 72
1
 10
-138.4863131174729
 20
24.26673983821079
 11
-138.4862668536381
 21
24.70189724493484
 72
1
 10
-138.4862668536381
 20
24.70189724493484
 11
-138.378842936504
 21
25.12358679044714
 72
1
 10
-138.378842936504
 20
25.12358679044714
 11
-138.1706851415394
 21
25.50572852221808
 72
1
 10
-138.1706851415394
 20
25.50572852221808
 11
-137.8746672652829
 21
25.82468837502557
 72
1
 10
-137.8746672652829
 20
25.82468837502557
 11
-137.509096928214
 21
26.06073985124186
 72
1
 10
-137.509096928214
 20
26.06073985124186
 11
-137.0965833155509
 21
26.19928403239825
 72
1
 10
-137.0965833155509
 20
26.19928403239825
 11
-136.6626388820065
 21
26.23175246877297
 72
1
 10
-136.6626388820065
 20
26.23175246877297
 11
-136.2341015000078
 21
26.1561371066068
 72
1
 10
-136.2341015000078
 20
26.1561371066068
 11
-135.837474635668
 21
25.97711447885088
 72
1
 10
-135.837474635668
 20
25.97711447885088
 11
-135.4972882065577
 21
25.70575647875465
 72
1
 10
-135.4972882065577
 20
25.70575647875465
 11
-135.2345814962355
 21
25.35884560386187
 72
1
 10
-135.2345814962355
 20
25.35884560386187
 11
-134.1519281268273
 21
25.98392963409757
 72
1
 10
-134.1519281268273
 20
25.98392963409757
 11
-134.5724937916524
 21
26.54751742906159
 72
1
 10
-134.5724937916524
 20
26.54751742906159
 11
-135.1127010655781
 21
26.99772047463762
 72
1
 10
-135.1127010655781
 20
26.99772047463762
 11
-135.7428687554414
 21
27.30980277742476
 72
1
 10
-135.7428687554414
 20
27.30980277742476
 11
-136.4283728755092
 21
27.46661726153419
 72
1
 10
-136.4283728755092
 20
27.46661726153419
 11
-137.1315490306561
 21
27.4595478989754
 72
1
 10
-137.1315490306561
 20
27.4595478989754
 11
-137.8137618520021
 21
27.2889831093819
 72
1
 10
-137.8137618520021
 20
27.2889831093819
 11
-138.651033267703
 21
26.85396720762157
 72
1
 10
-138.651033267703
 20
26.85396720762157
 11
-139.1250190003513
 21
26.79893677460164
 72
1
 10
-139.1250190003513
 20
26.79893677460164
 11
-139.5705430874686
 21
26.96981424857376
 72
1
 10
-139.5705430874686
 20
26.96981424857376
 11
-139.8861611673436
 21
27.32769139364825
 72
1
 10
-139.8861611673436
 20
27.32769139364825
 11
-140.0000080466455
 21
27.79108076705205
 72
1
 10
-140.0000080466455
 20
27.79108076705205
 11
-140.0000080466455
 21
38.25002908706935
 72
1
 10
-140.0000080466455
 20
38.25002908706935
 11
-61.11863593732
 21
38.22114902915567
 72
1
 10
-61.11863593732
 20
38.22114902915567
 11
-60.69577162832032
 21
38.0000205723509
 72
1
 10
-60.69577162832032
 20
38.0000205723509
 11
-60.42351961517741
 21
37.60811387481387
 72
1
 10
-60.42351961517741
 20
37.60811387481387
 11
-60.36387077814839
 21
37.13466479151492
 72
1
 10
-60.36387077814839
 20
37.13466479151492
 11
-60.5304069598587
 21
36.68747610823397
 72
1
 10
-60.5304069598587
 20
36.68747610823397
 11
-60.83309610702727
 21
36.11999973570421
 72
1
 10
-60.83309610702727
 20
36.11999973570421
 11
-61.00786869491789
 21
35.50104521741213
 72
1
 10
-61.00786869491789
 20
35.50104521741213
 11
-61.04669163263611
 21
34.85906162517494
 72
1
 10
-61.04669163263611
 20
34.85906162517494
 11
-60.94778049738962
 21
34.22355651855878
 72
1
 10
-60.94778049738962
 20
34.22355651855878
 11
-59.74033329121866
 21
34.54711376258994
 72
1
 10
-59.74033329121866
 20
34.54711376258994
 11
-59.79983975336697
 21
34.97821698082813
 72
1
 10
-59.79983975336697
 20
34.97821698082813
 11
-59.75112807418049
 21
35.41067296254583
 72
1
 10
-59.75112807418049
 20
35.41067296254583
 11
-59.59721085560869
 21
35.81773621762997
 72
1
 10
-59.59721085560869
 20
35.81773621762997
 11
-59.34760719698924
 21
36.17423168382249
 72
1
 10
-59.34760719698924
 20
36.17423168382249
 11
-59.01775398083197
 21
36.45811169299063
 72
1
 10
-59.01775398083197
 20
36.45811169299063
 11
-58.62805116992739
 21
36.65181952190785
 72
1
 10
-58.62805116992739
 20
36.65181952190785
 11
-58.20260015982889
 21
36.74337519794884
 72
1
 10
-58.20260015982889
 20
36.74337519794884
 11
-57.76771321412045
 21
36.72711640741531
 72
1
 10
-57.76771321412045
 20
36.72711640741531
 11
-57.35028616730375
 21
36.60404868460827
 72
1
 10
-57.35028616730375
 20
36.60404868460827
 11
-56.97613503632157
 21
36.38178322396438
 72
1
 10
-56.97613503632157
 20
36.38178322396438
 11
-56.66839941409542
 21
36.07406616134664
 72
1
 10
-56.66839941409542
 20
36.07406616134664
 11
-56.4461113880274
 21
35.69992843632884
 72
1
 10
-56.4461113880274
 20
35.69992843632884
 11
-56.32301848955368
 21
35.28250881273957
 72
1
 10
-56.32301848955368
 20
35.28250881273957
 11
-56.30673347012873
 21
34.84762284842927
 72
1
 10
-56.30673347012873
 20
34.84762284842927
 11
-56.39826348617339
 21
34.42216631718761
 72
1
 10
-56.39826348617339
 20
34.42216631718761
 11
-56.59194781095929
 21
34.03245182407204
 72
1
 10
-56.59194781095929
 20
34.03245182407204
 11
-56.87580792548679
 21
33.70258148712924
 72
1
 10
-56.87580792548679
 20
33.70258148712924
 11
-57.23228833691763
 21
33.45295632798585
 72
1
 10
-57.23228833691763
 20
33.45295632798585
 11
-57.63934230819853
 21
33.29901455887139
 72
1
 10
-57.63934230819853
 20
33.29901455887139
 11
-58.07179535122492
 21
33.25027679746353
 72
1
 10
-58.07179535122492
 20
33.25027679746353
 11
-58.5029021576408
 21
33.30975725878309
 72
1
 10
-58.5029021576408
 20
33.30975725878309
 11
-58.82646236570453
 21
32.10222721100054
 72
1
 10
-58.82646236570453
 20
32.10222721100054
 11
-58.16945060644258
 21
32.00238247406189
 72
1
 10
-58.16945060644258
 20
32.00238247406189
 11
-57.50657760340337
 21
32.04963504170861
 72
1
 10
-57.50657760340337
 20
32.04963504170861
 11
-56.87037206449922
 21
32.24166612140975
 72
1
 10
-56.87037206449922
 20
32.24166612140975
 11
-56.29205406362767
 21
32.56905230495064
 72
1
 10
-56.29205406362767
 20
32.56905230495064
 11
-55.80000299962023
 21
33.0157279968283
 72
1
 10
-55.80000299962023
 20
33.0157279968283
 11
-55.80000299962023
 21
29.15000915527544
 72
1
 10
-55.80000299962023
 20
29.15000915527544
 11
-28.05000543596062
 21
29.15000915527544
 72
1
 10
-28.05000543596062
 20
29.15000915527544
 11
-28.05000543596062
 21
24.7499942779577
 72
1
 10
-28.05000543596062
 20
24.7499942779577
 11
-21.50000259282083
 21
24.7499942779577
 72
1
 10
-21.50000259282083
 20
24.7499942779577
 11
-21.50000259282083
 21
15.25002717972108
 72
1
 10
-21.50000259282083
 20
15.25002717972108
 11
-28.05000543596062
 21
15.25002717972108
 72
1
 10
-28.05000543596062
 20
15.25002717972108
 11
-28.05000543596062
 21
5.767405033114323
 72
1
 10
-28.05000543596062
 20
5.767405033114323
 11
-26.85105346845013
 21
4.568457740516651
 72
1
 10
-26.85105346845013
 20
4.568457740516651
 11
-26.0912040882796
 21
4.848905137686188
 72
1
 10
-26.0912040882796
 20
4.848905137686188
 11
-25.28756349130408
 21
4.949819031703362
 72
1
 10
-25.28756349130408
 20
4.949819031703362
 11
-24.3111671370973
 21
4.806985975555761
 72
1
 10
-24.3111671370973
 20
4.806985975555761
 11
-23.59138798479567
 21
4.523126123714502
 72
1
 10
-23.59138798479567
 20
4.523126123714502
 11
-22.96869972470846
 21
4.10829651538437
 72
1
 10
-22.96869972470846
 20
4.10829651538437
 11
-22.39091554212548
 21
3.482934568508415
 72
1
 10
-22.39091554212548
 20
3.482934568508415
 11
-22.03528436129254
 21
2.906041166622384
 72
1
 10
-22.03528436129254
 20
2.906041166622384
 11
-21.95042236236941
 21
2.638549059699641
 72
1
 10
-21.95042236236941
 20
2.638549059699641
 11
-21.93768372102864
 21
2.358207637243748
 72
1
 10
-21.93768372102864
 20
2.358207637243748
 11
-21.99793654765656
 21
2.084121550384441
 72
1
 10
-21.99793654765656
 20
2.084121550384441
 11
-22.12707474468191
 21
1.83496916288654
 72
1
 10
-22.12707474468191
 20
1.83496916288654
 11
-22.31629782811805
 21
1.627729661769115
 72
1
 10
-22.31629782811805
 20
1.627729661769115
 11
-22.55271066115181
 21
1.476525963060663
 72
1
 10
-22.55271066115181
 20
1.476525963060663
 11
-22.82020222938497
 21
1.391662266147727
 72
1
 10
-22.82020222938497
 20
1.391662266147727
 11
-23.10054357097019
 21
1.37892184525561
 72
1
 10
-23.10054357097019
 20
1.37892184525561
 11
-23.37463004029599
 21
1.439172932036575
 72
1
 10
-23.37463004029599
 20
1.439172932036575
 11
-23.62378324753514
 21
1.568309547489002
 72
1
 10
-23.62378324753514
 20
1.568309547489002
 11
-23.83102394980127
 21
1.757531315404008
 72
1
 10
-23.83102394980127
 20
1.757531315404008
 11
-24.20755526805813
 21
2.326190471652734
 72
1
 10
-24.20755526805813
 20
2.326190471652734
 11
-24.4934364597734
 21
2.568931320979879
 72
1
 10
-24.4934364597734
 20
2.568931320979879
 11
-24.86168967617242
 21
2.734256662875822
 72
1
 10
-24.86168967617242
 20
2.734256662875822
 11
-25.07273105381244
 21
2.788747436834137
 72
1
 10
-25.07273105381244
 20
2.788747436834137
 11
-25.64895180490161
 21
2.73165615619136
 72
1
 10
-25.64895180490161
 20
2.73165615619136
 11
-25.76395036821888
 21
2.702270823164656
 72
1
 10
-25.76395036821888
 20
2.702270823164656
 11
-26.071777077204
 21
2.533463377096512
 72
1
 10
-26.071777077204
 20
2.533463377096512
 11
-26.35230760050196
 21
2.255036528114664
 72
1
 10
-26.35230760050196
 20
2.255036528114664
 11
-26.51629566838625
 21
1.997118742172659
 72
1
 10
-26.51629566838625
 20
1.997118742172659
 11
-26.62503464326757
 21
1.663308808294857
 72
1
 10
-26.62503464326757
 20
1.663308808294857
 11
-26.60602896358157
 21
1.095903923001543
 72
1
 10
-26.60602896358157
 20
1.095903923001543
 11
-26.58171247845082
 21
0.9680494787255497
 72
1
 10
-26.58171247845082
 20
0.9680494787255497
 11
-26.34686855125035
 21
0.546886330069782
 72
1
 10
-26.34686855125035
 20
0.546886330069782
 11
-26.02223750656387
 21
0.244199382498897
 72
1
 10
-26.02223750656387
 20
0.244199382498897
 11
-25.92471384233001
 21
0.1733069417068805
 72
1
 10
-25.92471384233001
 20
0.1733069417068805
 11
-25.59831255572394
 21
0.0440187492316909
 72
1
 10
-25.59831255572394
 20
0.0440187492316909
 11
-25.25000868504344
 21
2.1657e-12
 72
1
 10
-25.25000868504344
 20
2.1657e-12
 11
-19.75000277163291
 21
2.1657e-12
 72
1
 10
-19.75000277163291
 20
2.1657e-12
 11
-19.75000277163291
 21
9.173631668094373
 72
1
 10
-19.75000277163291
 20
9.173631668094373
 11
-22.35127240421229
 21
9.173631668094373
 72
1
 10
-22.35127240421229
 20
9.173631668094373
 11
-22.35127240421229
 21
6.900012493136125
 72
1
 10
-22.35127240421229
 20
6.900012493136125
 11
-26.30000561477704
 21
6.900012493136125
 72
1
 10
-26.30000561477704
 20
6.900012493136125
 11
-26.30000561477271
 21
13.50003480911598
 72
1
 10
-26.30000561477271
 20
13.50003480911598
 11
-19.75000277163291
 21
13.50003480911382
 72
1
 10
-19.75000277163291
 20
13.50003480911382
 11
-19.75000277163291
 21
26.4999866485628
 72
1
 10
-19.75000277163291
 20
26.4999866485628
 11
-26.30000561477271
 21
26.4999866485628
 72
1
 10
-26.30000561477271
 20
26.4999866485628
 11
-26.30000561477271
 21
33.10000896454049
 72
1
 10
-26.30000561477271
 20
33.10000896454049
 11
-22.35127240421229
 21
33.10000896454049
 72
1
 10
-22.35127240421229
 20
33.10000896454049
 11
-22.35127240421229
 21
30.82644939422964
 72
1
 10
-22.35127240421229
 20
30.82644939422964
 11
-19.75000277163291
 21
30.82644939422964
 72
1
 10
-19.75000277163291
 20
30.82644939422964
 11
-19.75000277163291
 21
40.00002145767445
 72
1
 10
-19.75000277163291
 20
40.00002145767445
 11
-21.25000208618201
 21
40.00002145767445
 72
1
 10
-21.25000208618201
 20
40.00002145767445
 11
-21.25000208618201
 21
34.85000133514559
 72
1
 10
-21.25000208618201
 20
34.85000133514559
 11
-26.30000561477271
 21
34.85000133514559
 72
1
 10
-26.30000561477271
 20
34.85000133514559
 11
-26.30000561477271
 21
40.00002145767445
 72
1
 10
-26.30000561477271
 20
40.00002145767445
 11
-141.7500078678291
 21
40.00002145767445
 72
1
 10
-141.7500078678291
 20
40.00002145767445
 11
-141.7500078678291
 21
2.1672e-12
 72
1
 10
-141.7500078678291
 20
2.1657e-12
 11
-135.3500038385556
 21
2.1657e-12
 97
0
 92
1
 93
22
 72
1
 10
-28.05000543596062
 20
30.65001964568685
 11
-32.70534874718269
 21
30.65001964568685
 72
1
 10
-32.70534874718269
 20
30.65001964568685
 11
-32.70534874718269
 21
32.47623232686873
 72
1
 10
-32.70534874718269
 20
32.47623232686873
 11
-32.8064394386637
 21
32.85350792365224
 72
1
 10
-32.8064394386637
 20
32.85350792365224
 11
-33.08262434396187
 21
33.12969282895474
 72
1
 10
-33.08262434396187
 20
33.12969282895474
 11
-33.45989994074538
 21
33.23078352043574
 72
1
 10
-33.45989994074538
 20
33.23078352043574
 11
-33.8371755375289
 21
33.12969282895474
 72
1
 10
-33.8371755375289
 20
33.12969282895474
 11
-34.11336044282706
 21
32.85350792365224
 72
1
 10
-34.11336044282706
 20
32.85350792365224
 11
-34.21445113431241
 21
32.47623232686873
 72
1
 10
-34.21445113431241
 20
32.47623232686873
 11
-34.21445113431241
 21
30.65001964568685
 72
1
 10
-34.21445113431241
 20
30.65001964568685
 11
-47.90000431241216
 21
30.65001964568685
 72
1
 10
-47.90000431241216
 20
30.65001964568685
 11
-47.90000431241216
 21
32.51850136759398
 72
1
 10
-47.90000431241216
 20
32.51850136759398
 11
-48.00048533843323
 21
32.89350166189119
 72
1
 10
-48.00048533843323
 20
32.89350166189119
 11
-48.27500460671154
 21
33.16802093017166
 72
1
 10
-48.27500460671154
 20
33.16802093017166
 11
-48.65000490101092
 21
33.2685019561884
 72
1
 10
-48.65000490101092
 20
33.2685019561884
 11
-49.02500519530596
 21
33.16802093017166
 72
1
 10
-49.02500519530596
 20
33.16802093017166
 11
-49.29952446358427
 21
32.89350166189119
 72
1
 10
-49.29952446358427
 20
32.89350166189119
 11
-49.40000548960534
 21
32.51850136759398
 72
1
 10
-49.40000548960534
 20
32.51850136759398
 11
-49.40000548960534
 21
30.65001964569335
 72
1
 10
-49.40000548960534
 20
30.65001964569335
 11
-54.05000410975867
 21
30.65001964569335
 72
1
 10
-54.05000410975867
 20
30.65001964569335
 11
-54.05000410975867
 21
38.25002908706935
 72
1
 10
-54.05000410975867
 20
38.25002908706935
 11
-28.05000543596062
 21
38.25002908706935
 72
1
 10
-28.05000543596062
 20
38.25002908706935
 11
-28.05000543596062
 21
30.65001964568685
 97
0
 75
0
 76
1
 98
1
 10
0.0
 20
0.0
450
0
451
0
460
0.0
461
0.0
452
0
462
0.0
453
0
470

  0
HATCH
  5
34
330
2F
100
AcDbEntity
  8
A-DETL-GENF
100
AcDbHatch
 10
0.0
 20
0.0
 30
0.0
210
0.0
220
0.0
230
1.0
  2
SOLID
 70
1
 71
0
 91
1
 92
1
 93
102
 72
1
 10
-27.14739096978931
 20
-3.83335e-10
 11
-26.90616765291527
 21
0.0620347880112718
 72
1
 10
-26.90616765291527
 20
0.0620347880112718
 11
-26.7247991483759
 21
0.2327464429686984
 72
1
 10
-26.7247991483759
 20
0.2327464429686984
 11
-26.65648452005232
 21
0.5950373901816647
 72
1
 10
-26.65648452005232
 20
0.5950373901816647
 11
-26.82083770013079
 21
1.095903923001543
 72
1
 10
-26.82083770013079
 20
1.095903923001543
 11
-26.84708454001448
 21
1.496658865882977
 72
1
 10
-26.84708454001448
 20
1.496658865882977
 11
-26.77270708520653
 21
1.891325073033675
 72
1
 10
-26.77270708520653
 20
1.891325073033675
 11
-26.60239150080018
 21
2.255036528114664
 72
1
 10
-26.60239150080018
 20
2.255036528114664
 11
-26.34686855125035
 21
2.56487752459804
 72
1
 10
-26.34686855125035
 20
2.56487752459804
 11
-26.02223750656387
 21
2.801326474007544
 72
1
 10
-26.02223750656387
 20
2.801326474007544
 11
-25.64895180490161
 21
2.949485867182625
 72
1
 10
-25.64895180490161
 20
2.949485867182625
 11
-25.25053037995446
 21
3.00002088943101
 72
1
 10
-25.25053037995446
 20
3.00002088943101
 11
-24.86168967617242
 21
2.955082422306128
 72
1
 10
-24.86168967617242
 20
2.955082422306128
 11
-24.4934364597734
 21
2.822394339332993
 72
1
 10
-24.4934364597734
 20
2.822394339332993
 11
-24.16529623199859
 21
2.608992020555803
 72
1
 10
-24.16529623199859
 20
2.608992020555803
 11
-23.56912191118179
 21
2.04551621215416
 72
1
 10
-23.56912191118179
 20
2.04551621215416
 11
-23.14756096644566
 21
1.961585157753512
 72
1
 10
-23.14756096644566
 20
1.961585157753512
 11
-22.73933901122692
 21
2.096169284962371
 72
1
 10
-22.73933901122692
 20
2.096169284962371
 11
-22.4503500901538
 21
2.4143570526642
 72
1
 10
-22.4503500901538
 20
2.4143570526642
 11
-22.35555882801248
 21
2.833609564453439
 72
1
 10
-22.35555882801248
 20
2.833609564453439
 11
-22.47955437298776
 21
3.245171415021354
 72
1
 10
-22.47955437298776
 20
3.245171415021354
 11
-22.96869972470846
 21
3.860811758746257
 72
1
 10
-22.96869972470846
 20
3.860811758746257
 11
-23.59138798479567
 21
4.340952924110616
 72
1
 10
-23.59138798479567
 20
4.340952924110616
 11
-24.3111671370973
 21
4.65748756650795
 72
1
 10
-24.3111671370973
 20
4.65748756650795
 11
-25.0859014887502
 21
4.791885826554227
 72
1
 10
-25.0859014887502
 20
4.791885826554227
 11
-25.87023828314215
 21
4.736280063475845
 72
1
 10
-25.87023828314215
 20
4.736280063475845
 11
-26.61826263906533
 21
4.493925424839392
 72
1
 10
-26.61826263906533
 20
4.493925424839392
 11
-27.28618539644331
 21
4.079009291016194
 72
1
 10
-27.28618539644331
 20
4.079009291016194
 11
-27.81181071740051
 21
3.560226114525744
 72
1
 10
-27.81181071740051
 20
3.560226114525744
 11
-28.22179346872785
 21
2.945952473667227
 72
1
 10
-28.22179346872785
 20
2.945952473667227
 11
-28.61111018169419
 21
2.050357712341047
 72
1
 10
-28.61111018169419
 20
2.050357712341047
 11
-28.80821338534119
 21
1.915237612085303
 72
1
 10
-28.80821338534119
 20
1.915237612085303
 11
-29.04551301695148
 21
1.887024154010919
 72
1
 10
-29.04551301695148
 20
1.887024154010919
 11
-29.26880353270317
 21
1.972162041914271
 72
1
 10
-29.26880353270317
 20
1.972162041914271
 11
-29.42707944321474
 21
2.151203519040848
 72
1
 10
-29.42707944321474
 20
2.151203519040848
 11
-29.48418632151679
 21
2.383250752681362
 72
1
 10
-29.48418632151679
 20
2.383250752681362
 11
-29.51826074380031
 21
27.85885071916102
 72
1
 10
-29.51826074380031
 20
27.85885071916102
 11
-29.61816189737139
 21
28.10003343900636
 72
1
 10
-29.61816189737139
 20
28.10003343900636
 11
-29.77708168292607
 21
28.30714173578636
 72
1
 10
-29.77708168292607
 20
28.30714173578636
 11
-29.98418997970606
 21
28.46606152134104
 72
1
 10
-29.98418997970606
 20
28.46606152134104
 11
-30.22537269954924
 21
28.56596267491212
 72
1
 10
-30.22537269954924
 20
28.56596267491212
 11
-30.484193638675
 21
28.60003709793415
 72
1
 10
-30.484193638675
 20
28.60003709793415
 11
-57.34299699454044
 21
28.56596267491212
 72
1
 10
-57.34299699454044
 20
28.56596267491212
 11
-57.58417971438362
 21
28.46606152134104
 72
1
 10
-57.58417971438362
 20
28.46606152134104
 11
-57.79128801116361
 21
28.30714173578636
 72
1
 10
-57.79128801116361
 20
28.30714173578636
 11
-57.9502077967183
 21
28.10003343900636
 72
1
 10
-57.9502077967183
 20
28.10003343900636
 11
-58.05010895028937
 21
27.85885071916102
 72
1
 10
-58.05010895028937
 20
27.85885071916102
 11
-58.08418337257289
 21
27.6000297800396
 72
1
 10
-58.08418337257289
 20
27.6000297800396
 11
-58.08418337257289
 21
1.500010490420077
 72
1
 10
-58.08418337257289
 20
1.500010490420078
 11
-132.0841871202162
 21
1.500010490420078
 72
1
 10
-132.0841871202162
 20
1.500010490420078
 11
-132.0841871202162
 21
7.015943527225124
 72
1
 10
-132.0841871202162
 20
7.015943527225124
 11
-131.6699762846809
 21
7.333780164918898
 72
1
 10
-131.6699762846809
 20
7.333780164918898
 11
-131.3521414177976
 21
7.747992359244546
 72
1
 10
-131.3521414177976
 20
7.747992359244546
 11
-131.1523424014193
 21
8.230352284603299
 72
1
 10
-131.1523424014193
 20
8.230352284603299
 11
-131.0841951837649
 21
8.747987968519144
 72
1
 10
-131.0841951837649
 20
8.747987968519144
 11
-131.1523438767262
 21
9.265623458207614
 72
1
 10
-131.1523438767262
 20
9.265623458207614
 11
-131.3521442678692
 21
9.747982814116863
 72
1
 10
-131.3521442678692
 20
9.747982814116863
 11
-131.6699803152943
 21
10.16219410258301
 72
1
 10
-131.6699803152943
 20
10.16219410258301
 11
-132.0841920566913
 21
10.48002955973937
 72
1
 10
-132.0841920566913
 20
10.48002955973937
 11
-132.5665516973253
 21
10.67982926350219
 72
1
 10
-132.5665516973253
 20
10.67982926350219
 11
-133.0841872841274
 21
10.7479772188079
 72
1
 10
-133.0841872841274
 20
10.7479772188079
 11
-133.6018228709296
 21
10.67982926350219
 72
1
 10
-133.6018228709296
 20
10.67982926350219
 11
-134.0841825115636
 21
10.48002955973937
 72
1
 10
-134.0841825115636
 20
10.48002955973937
 11
-134.4983942529649
 21
10.16219410258301
 72
1
 10
-134.4983942529649
 20
10.16219410258301
 11
-134.81623030039
 21
9.747982814116863
 72
1
 10
-134.81623030039
 20
9.747982814116863
 11
-135.0160306915374
 21
9.265623458207614
 72
1
 10
-135.0160306915374
 20
9.265623458207614
 11
-135.0841793844943
 21
8.747987968519144
 72
1
 10
-135.0841793844943
 20
8.747987968519144
 11
-135.0160321668442
 21
8.230352284603299
 72
1
 10
-135.0160321668442
 20
8.230352284603299
 11
-134.8162331504659
 21
7.747992359244546
 72
1
 10
-134.8162331504659
 20
7.747992359244546
 11
-134.4983982835783
 21
7.333780164918898
 72
1
 10
-134.4983982835783
 20
7.333780164918898
 11
-134.084187448043
 21
7.015943527225124
 72
1
 10
-134.084187448043
 20
7.015943527225124
 11
-134.084187448043
 21
1.500010490420078
 72
1
 10
-134.084187448043
 20
1.500010490420078
 11
-135.0841894746026
 21
1.500010490420078
 72
1
 10
-135.0841894746026
 20
1.500010490420078
 11
-135.0841894746026
 21
2.1658e-12
 72
1
 10
-135.0841894746026
 20
2.1657e-12
 11
-54.77183415475568
 21
2.1657e-12
 72
1
 10
-54.77183415475568
 20
2.1657e-12
 11
-54.08418271692374
 21
0.6876437527174346
 72
1
 10
-54.08418271692374
 20
0.6876437527174346
 11
-54.08418271692374
 21
1.500010490420078
 72
1
 10
-54.08418271692374
 20
1.500010490420078
 11
-56.58418405802812
 21
1.500010490420078
 72
1
 10
-56.58418405802812
 20
1.500010490420078
 11
-56.58418405802812
 21
15.6000256538421
 72
1
 10
-56.58418405802812
 20
15.6000256538421
 11
-54.20413815284724
 21
15.62558146285122
 72
1
 10
-54.20413815284724
 20
15.62558146285122
 11
-53.86791999942458
 21
15.81969710423764
 72
1
 10
-53.86791999942458
 20
15.81969710423764
 11
-53.67380435803599
 21
16.15591525766463
 72
1
 10
-53.67380435803599
 20
16.15591525766463
 11
-53.67380435803599
 21
16.54414654043748
 72
1
 10
-53.67380435803599
 20
16.54414654043748
 11
-53.86791999942458
 21
16.88036469386447
 72
1
 10
-53.86791999942458
 20
16.88036469386447
 11
-54.20413815284724
 21
17.07448033525089
 72
1
 10
-54.20413815284724
 20
17.07448033525089
 11
-54.39825379423149
 21
17.10003614426001
 72
1
 10
-54.39825379423149
 20
17.10003614426001
 11
-56.58418405802812
 21
17.10003614426001
 72
1
 10
-56.58418405802812
 20
17.10003614426001
 11
-56.58418405802812
 21
27.10002660751624
 72
1
 10
-56.58418405802812
 20
27.10002660751624
 11
-30.98418563606156
 21
27.10002660751624
 72
1
 10
-30.98418563606156
 20
27.10002660751624
 11
-30.98418563606156
 21
17.10003614426001
 72
1
 10
-30.98418563606156
 20
17.10003614426001
 11
-33.38211390629057
 21
17.07448033525089
 72
1
 10
-33.38211390629057
 20
17.07448033525089
 11
-33.71833205971756
 21
16.88036469386447
 72
1
 10
-33.71833205971756
 20
16.88036469386447
 11
-33.91244770110615
 21
16.54414654043748
 72
1
 10
-33.91244770110615
 20
16.54414654043748
 11
-33.91244770110615
 21
16.15591525766463
 72
1
 10
-33.91244770110615
 20
16.15591525766463
 11
-33.71833205971756
 21
15.81969710423764
 72
1
 10
-33.71833205971756
 20
15.81969710423764
 11
-33.38211390629057
 21
15.62558146285122
 72
1
 10
-33.38211390629057
 20
15.62558146285122
 11
-33.18799826490631
 21
15.6000256538421
 72
1
 10
-33.18799826490631
 20
15.6000256538421
 11
-30.98418563606156
 21
15.6000256538421
 72
1
 10
-30.98418563606156
 20
15.6000256538421
 11
-30.98418563606156
 21
1.500010490420077
 72
1
 10
-30.98418563606156
 20
1.500010490420078
 11
-33.48418697716594
 21
1.500010490420078
 72
1
 10
-33.48418697716594
 20
1.500010490420078
 11
-33.48418697716594
 21
0.6876437527174346
 72
1
 10
-33.48418697716594
 20
0.6876437527174346
 11
-32.796535539334
 21
2.1657e-12
 72
1
 10
-32.796535539334
 20
2.1657e-12
 11
-27.14739096978931
 21
-3.83335e-10
 97
0
 75
0
 76
1
 98
1
 10
0.0
 20
0.0
450
0
451
0
460
0.0
461
0.0
452
0
462
0.0
453
0
470

  0
LINE
  5
35
330
2F
100
AcDbEntity
  8
A-DETL-GENF
100
AcDbLine
 10
7.11e-14
 20
40.00002145767211
 30
0.0
 11
-19.75000277161591
 21
40.00002145767214
 31
0.0
  0
LINE
  5
36
330
2F
100
AcDbEntity
  8
A-DETL-GENF
100
AcDbLine
 10
-22.35127240419396
 20
30.82644939422613
 30
0.0
 11
-22.47000485658641
 21
30.82644939422613
 31
0.0
  0
LINE
  5
37
330
2F
100
AcDbEntity
  8
A-DETL-GENF
100
AcDbLine
 10
-22.47000485658641
 20
30.82644939422613
 30
0.0
 11
-22.99078833635762
 21
31.42887729725971
 31
0.0
  0
LINE
  5
38
330
2F
100
AcDbEntity
  8
A-DETL-GENF
100
AcDbLine
 10
-22.99078833635762
 20
31.42887729725971
 30
0.0
 11
-25.65000578779935
 21
30.15879280474948
 31
0.0
  0
LINE
  5
39
330
2F
100
AcDbEntity
  8
A-DETL-GENF
100
AcDbLine
 10
-25.65000578779935
 20
30.15879280474948
 30
0.0
 11
-25.65000578779936
 21
29.02503870462309
 31
0.0
  0
ARC
  5
3A
330
2F
100
AcDbEntity
  8
A-DETL-GENF
100
AcDbCircle
 10
-25.05000494439365
 20
29.02503870462309
 30
0.0
 40
0.6000008437556517
100
AcDbArc
 50
180.0
 51
285.799904927978
  0
ARC
  5
3B
330
2F
100
AcDbEntity
  8
A-DETL-GENF
100
AcDbCircle
 10
-25.07365339780425
 20
29.10861109651282
 30
0.0
 40
0.6868547097310631
100
AcDbArc
 50
285.7999049279777
 51
24.77252931029376
  0
LINE
  5
3C
330
2F
100
AcDbEntity
  8
A-DETL-GENF
100
AcDbLine
 10
-24.4500041009025
 20
29.3964147567749
 30
0.0
 11
-23.42434227484062
 21
29.87641096115107
 31
0.0
  0
LINE
  5
3D
330
2F
100
AcDbEntity
  8
A-DETL-GENF
100
AcDbLine
 10
-23.42434227484062
 20
29.87641096115107
 30
0.0
 11
-22.6549771575939
 21
29.62642908096306
 31
0.0
  0
LINE
  5
3E
330
2F
100
AcDbEntity
  8
A-DETL-GENF
100
AcDbLine
 10
-22.6549771575939
 20
29.62642908096306
 30
0.0
 11
-18.25000345706933
 21
29.62642908096303
 31
0.0
  0
LINE
  5
3F
330
2F
100
AcDbEntity
  8
A-DETL-GENF
100
AcDbLine
 10
-18.25000345706933
 20
29.62642908096303
 30
0.0
 11
-18.25000345706931
 21
38.50001096725465
 31
0.0
  0
LINE
  5
40
330
2F
100
AcDbEntity
  8
A-DETL-GENF
100
AcDbLine
 10
-18.25000345706931
 20
38.50001096725465
 30
0.0
 11
-1.500003039836818
 21
38.50001096725461
 31
0.0
  0
LINE
  5
41
330
2F
100
AcDbEntity
  8
A-DETL-GENF
100
AcDbLine
 10
-1.500003039836818
 20
38.50001096725461
 30
0.0
 11
-1.500003039836884
 21
1.500010490417472
 31
0.0
  0
LINE
  5
42
330
2F
100
AcDbEntity
  8
A-DETL-GENF
100
AcDbLine
 10
-1.500003039836884
 20
1.500010490417472
 30
0.0
 11
-18.25000345706951
 21
1.500010490417498
 31
0.0
  0
LINE
  5
43
330
2F
100
AcDbEntity
  8
A-DETL-GENF
100
AcDbLine
 10
-18.25000345706951
 20
1.500010490417506
 30
0.0
 11
-18.25000345706946
 21
10.37365198135387
 31
0.0
  0
LINE
  5
44
330
2F
100
AcDbEntity
  8
A-DETL-GENF
100
AcDbLine
 10
-18.25000345706946
 20
10.37365198135387
 30
0.0
 11
-22.65497715741918
 21
10.37365198135388
 31
0.0
  0
LINE
  5
45
330
2F
100
AcDbEntity
  8
A-DETL-GENF
100
AcDbLine
 10
-22.65497715741918
 20
10.37365198135388
 30
0.0
 11
-23.42434227466591
 21
10.12367010116588
 31
0.0
  0
LINE
  5
46
330
2F
100
AcDbEntity
  8
A-DETL-GENF
100
AcDbLine
 10
-23.42434227466591
 20
10.12367010116588
 30
0.0
 11
-24.4500041007996
 21
10.60366630554205
 31
0.0
  0
ARC
  5
47
330
2F
100
AcDbEntity
  8
A-DETL-GENF
100
AcDbCircle
 10
-25.07365339761588
 20
10.89146996580422
 30
0.0
 40
0.686854709731067
100
AcDbArc
 50
335.2274706919185
 51
74.20009507224223
  0
ARC
  5
48
330
2F
100
AcDbEntity
  8
A-DETL-GENF
100
AcDbCircle
 10
-25.05000494420528
 20
10.97504235769387
 30
0.0
 40
0.6000008437556505
100
AcDbArc
 50
74.20009507224223
 51
179.9999999999995
  0
LINE
  5
49
330
2F
100
AcDbEntity
  8
A-DETL-GENF
100
AcDbLine
 10
-25.65000578761107
 20
10.97504235769387
 30
0.0
 11
-25.65000578761107
 21
9.841288257567497
 31
0.0
  0
LINE
  5
4A
330
2F
100
AcDbEntity
  8
A-DETL-GENF
100
AcDbLine
 10
-25.65000578761107
 20
9.841288257567497
 30
0.0
 11
-22.9907883363578
 21
8.571203765057216
 31
0.0
  0
LINE
  5
4B
330
2F
100
AcDbEntity
  8
A-DETL-GENF
100
AcDbLine
 10
-22.9907883363578
 20
8.571203765057213
 30
0.0
 11
-22.47000485658654
 21
9.173631668090858
 31
0.0
  0
LINE
  5
4C
330
2F
100
AcDbEntity
  8
A-DETL-GENF
100
AcDbLine
 10
-22.47000485658654
 20
9.173631668090858
 30
0.0
 11
-22.35127240419408
 21
9.173631668090858
 31
0.0
  0
LINE
  5
4D
330
2F
100
AcDbEntity
  8
A-DETL-GENF
100
AcDbLine
 10
-19.75000277161599
 20
0.0
 30
0.0
 11
0.0
 21
-3.38e-14
 31
0.0
  0
LINE
  5
4E
330
2F
100
AcDbEntity
  8
A-DETL-GENF
100
AcDbLine
 10
0.0
 20
-3.38e-14
 30
0.0
 11
7.11e-14
 21
40.00002145767211
 31
0.0
  0
LINE
  5
4F
330
2F
100
AcDbEntity
  8
A-DETL-GENF
100
AcDbLine
 10
-34.21445113429366
 20
30.65001964568445
 30
0.0
 11
-47.90000431239598
 21
30.65001964568448
 31
0.0
  0
LINE
  5
50
330
2F
100
AcDbEntity
  8
A-DETL-GENF
100
AcDbLine
 10
-47.90000431239598
 20
30.65001964568448
 30
0.0
 11
-47.90000431239598
 21
32.5185013675908
 31
0.0
  0
ARC
  5
51
330
2F
100
AcDbEntity
  8
A-DETL-GENF
100
AcDbCircle
 10
-48.65000490099187
 20
32.5185013675908
 30
0.0
 40
0.750000588595893
100
AcDbArc
 50
359.9999999999991
 51
179.9999999999989
  0
LINE
  5
52
330
2F
100
AcDbEntity
  8
A-DETL-GENF
100
AcDbLine
 10
-49.40000548958774
 20
32.5185013675908
 30
0.0
 11
-49.40000548958774
 21
30.65001964569098
 31
0.0
  0
LINE
  5
53
330
2F
100
AcDbEntity
  8
A-DETL-GENF
100
AcDbLine
 10
-49.40000548958774
 20
30.65001964569098
 30
0.0
 11
-54.0500041097402
 21
30.65001964569099
 31
0.0
  0
LINE
  5
54
330
2F
100
AcDbEntity
  8
A-DETL-GENF
100
AcDbLine
 10
-54.0500041097402
 20
30.65001964569099
 30
0.0
 11
-54.05000410974018
 21
38.25002908706672
 31
0.0
  0
LINE
  5
55
330
2F
100
AcDbEntity
  8
A-DETL-GENF
100
AcDbLine
 10
-54.05000410974018
 20
38.25002908706672
 30
0.0
 11
-28.05000543594354
 21
38.25002908706667
 31
0.0
  0
LINE
  5
56
330
2F
100
AcDbEntity
  8
A-DETL-GENF
100
AcDbLine
 10
-28.05000543594354
 20
38.25002908706667
 30
0.0
 11
-28.05000543594355
 21
30.65001964568445
 31
0.0
  0
LINE
  5
57
330
2F
100
AcDbEntity
  8
A-DETL-GENF
100
AcDbLine
 10
-28.05000543594355
 20
30.65001964568445
 30
0.0
 11
-32.70534874716171
 21
30.65001964568446
 31
0.0
  0
LINE
  5
58
330
2F
100
AcDbEntity
  8
A-DETL-GENF
100
AcDbLine
 10
-32.70534874716171
 20
30.65001964568446
 30
0.0
 11
-32.70534874716171
 21
32.47623232686666
 31
0.0
  0
ARC
  5
59
330
2F
100
AcDbEntity
  8
A-DETL-GENF
100
AcDbCircle
 10
-33.45989994072765
 20
32.47623232686666
 30
0.0
 40
0.7545511935659733
100
AcDbArc
 50
0.0
 51
179.9999999999994
  0
LINE
  5
5A
330
2F
100
AcDbEntity
  8
A-DETL-GENF
100
AcDbLine
 10
-34.21445113429366
 20
32.47623232686667
 30
0.0
 11
-34.21445113429366
 21
30.65001964568445
 31
0.0
  0
LINE
  5
5B
330
2F
100
AcDbEntity
  8
A-DETL-GENF
100
AcDbLine
 10
-28.05000543594354
 20
29.15000915527343
 30
0.0
 11
-28.05000543594355
 21
24.74999427795408
 31
0.0
  0
LINE
  5
5C
330
2F
100
AcDbEntity
  8
A-DETL-GENF
100
AcDbLine
 10
-28.05000543594355
 20
24.74999427795408
 30
0.0
 11
-21.50000259280198
 21
24.74999427795407
 31
0.0
  0
LINE
  5
5D
330
2F
100
AcDbEntity
  8
A-DETL-GENF
100
AcDbLine
 10
-21.50000259280198
 20
24.74999427795407
 30
0.0
 11
-21.500002592802
 21
15.25002717971797
 31
0.0
  0
LINE
  5
5E
330
2F
100
AcDbEntity
  8
A-DETL-GENF
100
AcDbLine
 10
-21.500002592802
 20
15.25002717971797
 30
0.0
 11
-28.05000543594354
 21
15.25002717971798
 31
0.0
  0
LINE
  5
5F
330
2F
100
AcDbEntity
  8
A-DETL-GENF
100
AcDbLine
 10
-28.05000543594354
 20
15.25002717971798
 30
0.0
 11
-28.05000543594355
 21
5.767405033111599
 31
0.0
  0
LINE
  5
60
330
2F
100
AcDbEntity
  8
A-DETL-GENF
100
AcDbLine
 10
-28.05000543594355
 20
5.767405033111599
 30
0.0
 11
-26.8510534684321
 21
4.568457740514592
 31
0.0
  0
ARC
  5
61
330
2F
100
AcDbEntity
  8
A-DETL-GENF
100
AcDbCircle
 10
-25.24997315308175
 20
1.400059735646822
 30
0.0
 40
3.549958322776834
100
AcDbArc
 50
25.10162473362302
 51
116.8087491412394
  0
ARC
  5
62
330
2F
100
AcDbEntity
  8
A-DETL-GENF
100
AcDbCircle
 10
-23.00875965014423
 20
2.449998357035749
 30
0.0
 40
1.075001945212657
100
AcDbArc
 50
205.1023521387574
 51
25.10162473362246
  0
ARC
  5
63
330
2F
100
AcDbEntity
  8
A-DETL-GENF
100
AcDbCircle
 10
-25.25000868502554
 20
1.400008391187859
 30
0.0
 40
1.400008391200481
100
AcDbArc
 50
25.10235213875783
 51
269.9999999999989
  0
LINE
  5
64
330
2F
100
AcDbEntity
  8
A-DETL-GENF
100
AcDbLine
 10
-25.25000868502556
 20
3.38e-14
 30
0.0
 11
-19.750002771616
 21
2.54e-14
 31
0.0
  0
LINE
  5
65
330
2F
100
AcDbEntity
  8
A-DETL-GENF
100
AcDbLine
 10
-19.750002771616
 20
2.54e-14
 30
0.0
 11
-19.75000277161596
 21
9.17363166809085
 31
0.0
  0
LINE
  5
66
330
2F
100
AcDbEntity
  8
A-DETL-GENF
100
AcDbLine
 10
-19.75000277161596
 20
9.17363166809085
 30
0.0
 11
-22.35127240419388
 21
9.173631668090854
 31
0.0
  0
LINE
  5
67
330
2F
100
AcDbEntity
  8
A-DETL-GENF
100
AcDbLine
 10
-22.35127240419388
 20
9.173631668090854
 30
0.0
 11
-22.35127240419389
 21
6.900012493133579
 31
0.0
  0
LINE
  5
68
330
2F
100
AcDbEntity
  8
A-DETL-GENF
100
AcDbLine
 10
-22.35127240419389
 20
6.900012493133579
 30
0.0
 11
-26.30000561475749
 21
6.900012493133587
 31
0.0
  0
LINE
  5
69
330
2F
100
AcDbEntity
  8
A-DETL-GENF
100
AcDbLine
 10
-26.30000561475749
 20
6.900012493133587
 30
0.0
 11
-26.30000561475748
 21
13.50003480911261
 31
0.0
  0
LINE
  5
6A
330
2F
100
AcDbEntity
  8
A-DETL-GENF
100
AcDbLine
 10
-26.30000561475748
 20
13.50003480911261
 30
0.0
 11
-19.75000277161594
 21
13.5000348091126
 31
0.0
  0
LINE
  5
6B
330
2F
100
AcDbEntity
  8
A-DETL-GENF
100
AcDbLine
 10
-19.75000277161594
 20
13.5000348091126
 30
0.0
 11
-19.75000277161592
 21
26.49998664855957
 31
0.0
  0
LINE
  5
6C
330
2F
100
AcDbEntity
  8
A-DETL-GENF
100
AcDbLine
 10
-19.75000277161592
 20
26.49998664855957
 30
0.0
 11
-26.30000561475748
 21
26.49998664855959
 31
0.0
  0
LINE
  5
6D
330
2F
100
AcDbEntity
  8
A-DETL-GENF
100
AcDbLine
 10
-26.30000561475748
 20
26.49998664855959
 30
0.0
 11
-26.30000561475747
 21
33.1000089645386
 31
0.0
  0
LINE
  5
6E
330
2F
100
AcDbEntity
  8
A-DETL-GENF
100
AcDbLine
 10
-26.30000561475747
 20
33.1000089645386
 30
0.0
 11
-22.35127240419382
 21
33.1000089645386
 31
0.0
  0
LINE
  5
6F
330
2F
100
AcDbEntity
  8
A-DETL-GENF
100
AcDbLine
 10
-22.35127240419382
 20
33.1000089645386
 30
0.0
 11
-22.35127240419382
 21
30.82644939422613
 31
0.0
  0
LINE
  5
70
330
2F
100
AcDbEntity
  8
A-DETL-GENF
100
AcDbLine
 10
-22.35127240419382
 20
30.82644939422613
 30
0.0
 11
-19.75000277161594
 21
30.82644939422612
 31
0.0
  0
LINE
  5
71
330
2F
100
AcDbEntity
  8
A-DETL-GENF
100
AcDbLine
 10
-19.75000277161594
 20
30.82644939422612
 30
0.0
 11
-19.75000277161592
 21
40.00002145767214
 31
0.0
  0
LINE
  5
72
330
2F
100
AcDbEntity
  8
A-DETL-GENF
100
AcDbLine
 10
-19.75000277161592
 20
40.00002145767214
 30
0.0
 11
-21.25000208616252
 21
40.00002145767214
 31
0.0
  0
LINE
  5
73
330
2F
100
AcDbEntity
  8
A-DETL-GENF
100
AcDbLine
 10
-21.25000208616252
 20
40.00002145767214
 30
0.0
 11
-21.25000208616253
 21
34.8500013351441
 31
0.0
  0
LINE
  5
74
330
2F
100
AcDbEntity
  8
A-DETL-GENF
100
AcDbLine
 10
-21.25000208616253
 20
34.8500013351441
 30
0.0
 11
-26.30000561475748
 21
34.85000133514411
 31
0.0
  0
LINE
  5
75
330
2F
100
AcDbEntity
  8
A-DETL-GENF
100
AcDbLine
 10
-26.30000561475748
 20
34.85000133514411
 30
0.0
 11
-26.30000561475747
 21
40.00002145767218
 31
0.0
  0
LINE
  5
76
330
2F
100
AcDbEntity
  8
A-DETL-GENF
100
AcDbLine
 10
-26.30000561475747
 20
40.00002145767218
 30
0.0
 11
-141.7500078678131
 21
40.00002145767239
 31
0.0
  0
LINE
  5
77
330
2F
100
AcDbEntity
  8
A-DETL-GENF
100
AcDbLine
 10
-141.7500078678131
 20
40.00002145767239
 30
0.0
 11
-141.7500078678131
 21
2.369e-13
 31
0.0
  0
LINE
  5
78
330
2F
100
AcDbEntity
  8
A-DETL-GENF
100
AcDbLine
 10
-141.7500078678131
 20
2.369e-13
 30
0.0
 11
-135.3500038385391
 21
2.242e-13
 31
0.0
  0
LINE
  5
79
330
2F
100
AcDbEntity
  8
A-DETL-GENF
100
AcDbLine
 10
-135.3500038385391
 20
2.242e-13
 30
0.0
 11
-135.3500038385391
 21
4.900038242340253
 31
0.0
  0
LINE
  5
7A
330
2F
100
AcDbEntity
  8
A-DETL-GENF
100
AcDbLine
 10
-135.3500038385391
 20
4.900038242340253
 30
0.0
 11
-137.1000036597252
 21
4.900038242340256
 31
0.0
  0
LINE
  5
7B
330
2F
100
AcDbEntity
  8
A-DETL-GENF
100
AcDbLine
 10
-137.1000036597252
 20
4.900038242340256
 30
0.0
 11
-137.1000036597252
 21
1.749992370605742
 31
0.0
  0
LINE
  5
7C
330
2F
100
AcDbEntity
  8
A-DETL-GENF
100
AcDbLine
 10
-137.1000036597252
 20
1.749992370605742
 30
0.0
 11
-140.000008046627
 21
1.749992370605746
 31
0.0
  0
LINE
  5
7D
330
2F
100
AcDbEntity
  8
A-DETL-GENF
100
AcDbLine
 10
-140.000008046627
 20
1.749992370605746
 30
0.0
 11
-140.000008046627
 21
17.69511582348028
 31
0.0
  0
ARC
  5
7E
330
2F
100
AcDbEntity
  8
A-DETL-GENF
100
AcDbCircle
 10
-139.4450382946865
 20
17.69511582348027
 30
0.0
 40
0.5549697532185541
100
AcDbArc
 50
31.95570224617391
 51
179.9999999999996
  0
ARC
  5
7F
330
2F
100
AcDbEntity
  8
A-DETL-GENF
100
AcDbCircle
 10
-135.749997359599
 20
20.00006331782286
 30
0.0
 40
3.800040060526719
100
AcDbArc
 50
211.9557022461723
 51
303.5765910744708
  0
ARC
  5
80
330
2F
100
AcDbEntity
  8
A-DETL-GENF
100
AcDbCircle
 10
-134.1461241439538
 20
17.58389899263016
 30
0.0
 40
0.8999953475245108
100
AcDbArc
 50
303.5765910744556
 51
160.7017929200206
  0
ARC
  5
81
330
2F
100
AcDbEntity
  8
A-DETL-GENF
100
AcDbCircle
 10
-135.6438340842277
 20
19.93047820650112
 30
0.0
 40
2.149247553272244
100
AcDbArc
 50
167.8457166848853
 51
287.5557163444617
  0
ARC
  5
82
330
2F
100
AcDbEntity
  8
A-DETL-GENF
100
AcDbCircle
 10
-136.7499935357792
 20
20.48388448617463
 30
0.0
 40
1.000013676735123
100
AcDbArc
 50
89.99977252311486
 51
185.7905330368051
  0
ARC
  5
83
330
2F
100
AcDbEntity
  8
A-DETL-GENF
100
AcDbCircle
 10
-136.7499776550676
 20
24.48384145636162
 30
0.0
 40
2.99994329364588
100
AcDbArc
 50
269.999772523114
 51
330.0008566391232
  0
LINE
  5
84
330
2F
100
AcDbEntity
  8
A-DETL-GENF
100
AcDbLine
 10
-134.1519281268119
 20
22.98390865325953
 30
0.0
 11
-135.2347675207144
 21
23.60910008716122
 31
0.0
  0
ARC
  5
85
330
2F
100
AcDbEntity
  8
A-DETL-GENF
100
AcDbCircle
 10
-136.7500660775302
 20
24.48413395462671
 30
0.0
 40
1.749803984879363
100
AcDbArc
 50
29.99280345185194
 51
329.9950137268182
  0
LINE
  5
86
330
2F
100
AcDbEntity
  8
A-DETL-GENF
100
AcDbLine
 10
-135.2345814962178
 20
25.35884560385978
 30
0.0
 11
-134.1519281268119
 21
25.98392963409438
 31
0.0
  0
ARC
  5
87
330
2F
100
AcDbEntity
  8
A-DETL-GENF
100
AcDbCircle
 10
-136.7500096047604
 20
24.48387847781357
 30
0.0
 40
3.000030139435036
100
AcDbArc
 50
30.00079581779874
 51
124.2288945920889
  0
ARC
  5
88
330
2F
100
AcDbEntity
  8
A-DETL-GENF
100
AcDbCircle
 10
-139.0000209380465
 20
27.79108076704944
 30
0.0
 40
0.9999871085827297
100
AcDbArc
 50
180.0
 51
304.2288945920896
  0
LINE
  5
89
330
2F
100
AcDbEntity
  8
A-DETL-GENF
100
AcDbLine
 10
-140.000008046627
 20
27.79108076704945
 30
0.0
 11
-140.000008046627
 21
38.25002908706689
 31
0.0
  0
LINE
  5
8A
330
2F
100
AcDbEntity
  8
A-DETL-GENF
100
AcDbLine
 10
-140.000008046627
 20
38.25002908706689
 30
0.0
 11
-61.35723183953007
 21
38.25002908706674
 31
0.0
  0
ARC
  5
8B
330
2F
100
AcDbEntity
  8
A-DETL-GENF
100
AcDbCircle
 10
-61.35723183953007
 20
37.24999541307557
 30
0.0
 40
1.000033674721365
100
AcDbArc
 50
325.7711085257057
 51
90.0
  0
ARC
  5
8C
330
2F
100
AcDbEntity
  8
A-DETL-GENF
100
AcDbCircle
 10
-58.05006920092561
 20
35.00001131869556
 30
0.0
 40
2.999935468341848
100
AcDbArc
 50
145.7711085257058
 51
195.0002840720503
  0
LINE
  5
8D
330
2F
100
AcDbEntity
  8
A-DETL-GENF
100
AcDbLine
 10
-60.94778049737213
 20
34.22355651855478
 30
0.0
 11
-59.74033329119916
 21
34.54711376258704
 31
0.0
  0
ARC
  5
8E
330
2F
100
AcDbEntity
  8
A-DETL-GENF
100
AcDbCircle
 10
-58.05002764098974
 20
35.00009022585792
 30
0.0
 40
1.74994881851078
100
AcDbArc
 50
255.0015445024348
 51
195.0019111240697
  0
LINE
  5
8F
330
2F
100
AcDbEntity
  8
A-DETL-GENF
100
AcDbLine
 10
-58.50290215762065
 20
33.30975725877906
 30
0.0
 11
-58.82646236568681
 21
32.10222721099869
 31
0.0
  0
ARC
  5
90
330
2F
100
AcDbEntity
  8
A-DETL-GENF
100
AcDbCircle
 10
-58.0500096414401
 20
34.99994488303604
 30
0.0
 40
2.999941089392865
100
AcDbArc
 50
254.9997857403449
 51
318.5918454741336
  0
LINE
  5
91
330
2F
100
AcDbEntity
  8
A-DETL-GENF
100
AcDbLine
 10
-55.80000299960367
 20
33.01572799682636
 30
0.0
 11
-55.80000299960368
 21
29.15000915527348
 31
0.0
  0
LINE
  5
92
330
2F
100
AcDbEntity
  8
A-DETL-GENF
100
AcDbLine
 10
-55.80000299960368
 20
29.15000915527348
 30
0.0
 11
-28.05000543594354
 21
29.15000915527343
 31
0.0
  0
ARC
  5
93
330
2F
100
AcDbEntity
  8
A-DETL-GENF
100
AcDbCircle
 10
-25.24993434610213
 20
1.546159332635707
 30
0.0
 40
3.24986880529129
100
AcDbArc
 50
31.51985831132472
 51
128.79707889239
  0
ARC
  5
94
330
2F
100
AcDbEntity
  8
A-DETL-GENF
100
AcDbCircle
 10
-25.00749964181072
 20
1.244599890554146
 30
0.0
 40
3.636796037407858
100
AcDbArc
 50
128.7970788923899
 51
163.7624959849982
  0
ARC
  5
95
330
2F
100
AcDbEntity
  8
A-DETL-GENF
100
AcDbCircle
 10
-28.98418427085488
 20
2.383250752678419
 30
0.0
 40
0.5000020523205312
100
AcDbArc
 50
179.9999999999999
 51
345.9090602395517
  0
LINE
  5
96
330
2F
100
AcDbEntity
  8
A-DETL-GENF
100
AcDbLine
 10
-29.48418632149696
 20
2.383250752678419
 30
0.0
 11
-29.48418632149691
 21
27.60002978003543
 31
0.0
  0
ARC
  5
97
330
2F
100
AcDbEntity
  8
A-DETL-GENF
100
AcDbCircle
 10
-30.48419363865638
 20
27.60002978003543
 30
0.0
 40
1.000007317936173
100
AcDbArc
 50
0.0
 51
89.9999999999998
  0
LINE
  5
98
330
2F
100
AcDbEntity
  8
A-DETL-GENF
100
AcDbLine
 10
-30.48419363865638
 20
28.60003709793094
 30
0.0
 11
-57.08417605539768
 21
28.60003709793098
 31
0.0
  0
ARC
  5
99
330
2F
100
AcDbEntity
  8
A-DETL-GENF
100
AcDbCircle
 10
-57.08417605539766
 20
27.60002978003547
 30
0.0
 40
1.000007317936187
100
AcDbArc
 50
90.0
 51
180.0
  0
LINE
  5
9A
330
2F
100
AcDbEntity
  8
A-DETL-GENF
100
AcDbLine
 10
-58.08418337255712
 20
27.60002978003547
 30
0.0
 11
-58.08418337255716
 21
1.500010490417574
 31
0.0
  0
LINE
  5
9B
330
2F
100
AcDbEntity
  8
A-DETL-GENF
100
AcDbLine
 10
-58.08418337255716
 20
1.500010490417574
 30
0.0
 11
-132.0841871201992
 21
1.500010490417705
 31
0.0
  0
LINE
  5
9C
330
2F
100
AcDbEntity
  8
A-DETL-GENF
100
AcDbLine
 10
-132.0841871201992
 20
1.500010490417705
 30
0.0
 11
-132.0841871201992
 21
7.015943527221958
 31
0.0
  0
ARC
  5
9D
330
2F
100
AcDbEntity
  8
A-DETL-GENF
100
AcDbCircle
 10
-133.0841872841119
 20
8.747985118438242
 30
0.0
 40
1.999992100366566
100
AcDbArc
 50
300.0001360817067
 51
239.9998639182908
  0
LINE
  5
9E
330
2F
100
AcDbEntity
  8
A-DETL-GENF
100
AcDbLine
 10
-134.0841874480247
 20
7.015943527221979
 30
0.0
 11
-134.0841874480247
 21
1.500010490417709
 31
0.0
  0
LINE
  5
9F
330
2F
100
AcDbEntity
  8
A-DETL-GENF
100
AcDbLine
 10
-134.0841874480247
 20
1.500010490417709
 30
0.0
 11
-135.0841894745826
 21
1.500010490417711
 31
0.0
  0
LINE
  5
A0
330
2F
100
AcDbEntity
  8
A-DETL-GENF
100
AcDbLine
 10
-135.0841894745826
 20
1.500010490417711
 30
0.0
 11
-135.0841894745826
 21
7.265e-13
 31
0.0
  0
LINE
  5
A1
330
2F
100
AcDbEntity
  8
A-DETL-GENF
100
AcDbLine
 10
-135.0841894745826
 20
7.265e-13
 30
0.0
 11
-54.77183415473694
 21
6.5e-14
 31
0.0
  0
LINE
  5
A2
330
2F
100
AcDbEntity
  8
A-DETL-GENF
100
AcDbLine
 10
-54.77183415473692
 20
6.61e-14
 30
0.0
 11
-54.08418271690625
 21
0.6876437527139556
 31
0.0
  0
LINE
  5
A3
330
2F
100
AcDbEntity
  8
A-DETL-GENF
100
AcDbLine
 10
-54.08418271690625
 20
0.6876437527139571
 30
0.0
 11
-54.08418271690624
 21
1.500010490417553
 31
0.0
  0
LINE
  5
A4
330
2F
100
AcDbEntity
  8
A-DETL-GENF
100
AcDbLine
 10
-54.08418271690624
 20
1.500010490417553
 30
0.0
 11
-56.58418405801059
 21
1.500010490417574
 31
0.0
  0
LINE
  5
A5
330
2F
100
AcDbEntity
  8
A-DETL-GENF
100
AcDbLine
 10
-56.58418405801059
 20
1.500010490417574
 30
0.0
 11
-56.58418405801057
 21
15.60002565383919
 31
0.0
  0
LINE
  5
A6
330
2F
100
AcDbEntity
  8
A-DETL-GENF
100
AcDbLine
 10
-56.58418405801057
 20
15.60002565383919
 30
0.0
 11
-54.39825379421634
 21
15.60002565383919
 31
0.0
  0
ARC
  5
A7
330
2F
100
AcDbEntity
  8
A-DETL-GENF
100
AcDbCircle
 10
-54.39825379421634
 20
16.35003089904801
 30
0.0
 40
0.7500052452087758
100
AcDbArc
 50
269.9999999999997
 51
89.9999999999989
  0
LINE
  5
A8
330
2F
100
AcDbEntity
  8
A-DETL-GENF
100
AcDbLine
 10
-54.39825379421634
 20
17.1000361442567
 30
0.0
 11
-56.58418405801053
 21
17.1000361442567
 31
0.0
  0
LINE
  5
A9
330
2F
100
AcDbEntity
  8
A-DETL-GENF
100
AcDbLine
 10
-56.58418405801053
 20
17.1000361442567
 30
0.0
 11
-56.5841840580105
 21
27.10002660751346
 31
0.0
  0
LINE
  5
AA
330
2F
100
AcDbEntity
  8
A-DETL-GENF
100
AcDbLine
 10
-56.5841840580105
 20
27.10002660751346
 30
0.0
 11
-30.98418563604349
 21
27.10002660751341
 31
0.0
  0
LINE
  5
AB
330
2F
100
AcDbEntity
  8
A-DETL-GENF
100
AcDbLine
 10
-30.98418563604349
 20
27.10002660751341
 30
0.0
 11
-30.98418563604351
 21
17.10003614425666
 31
0.0
  0
LINE
  5
AC
330
2F
100
AcDbEntity
  8
A-DETL-GENF
100
AcDbLine
 10
-30.98418563604351
 20
17.10003614425666
 30
0.0
 11
-33.18799826488922
 21
17.10003614425667
 31
0.0
  0
ARC
  5
AD
330
2F
100
AcDbEntity
  8
A-DETL-GENF
100
AcDbCircle
 10
-33.18799826488922
 20
16.35003089904798
 30
0.0
 40
0.7500052452087544
100
AcDbArc
 50
90.0
 51
269.9999999999997
  0
LINE
  5
AE
330
2F
100
AcDbEntity
  8
A-DETL-GENF
100
AcDbLine
 10
-33.18799826488922
 20
15.60002565383916
 30
0.0
 11
-30.98418563604349
 21
15.60002565383915
 31
0.0
  0
LINE
  5
AF
330
2F
100
AcDbEntity
  8
A-DETL-GENF
100
AcDbLine
 10
-30.98418563604349
 20
15.60002565383915
 30
0.0
 11
-30.98418563604351
 21
1.50001049041754
 31
0.0
  0
LINE
  5
B0
330
2F
100
AcDbEntity
  8
A-DETL-GENF
100
AcDbLine
 10
-30.98418563604351
 20
1.50001049041754
 30
0.0
 11
-33.48418697714807
 21
1.500010490417544
 31
0.0
  0
LINE
  5
B1
330
2F
100
AcDbEntity
  8
A-DETL-GENF
100
AcDbLine
 10
-33.48418697714807
 20
1.500010490417544
 30
0.0
 11
-33.48418697714807
 21
0.6876437527139471
 31
0.0
  0
LINE
  5
B2
330
2F
100
AcDbEntity
  8
A-DETL-GENF
100
AcDbLine
 10
-33.48418697714807
 20
0.6876437527139477
 30
0.0
 11
-32.79653553931738
 21
3.38e-14
 31
0.0
  0
LINE
  5
B3
330
2F
100
AcDbEntity
  8
A-DETL-GENF
100
AcDbLine
 10
-32.79653553931738
 20
3.44e-14
 30
0.0
 11
-27.14739096977405
 21
2.43e-14
 31
0.0
  0
ARC
  5
B4
330
2F
100
AcDbEntity
  8
A-DETL-GENF
100
AcDbCircle
 10
-27.14739096977405
 20
0.5000178539575622
 30
0.0
 40
0.5000178543435027
100
AcDbArc
 50
269.9999999999996
 51
25.37676390356655
  0
ARC
  5
B5
330
2F
100
AcDbEntity
  8
A-DETL-GENF
100
AcDbCircle
 10
-25.25000488703998
 20
1.400020216309017
 30
0.0
 40
1.600000764527448
100
AcDbArc
 50
90.01881781956958
 51
205.3767639035663
  0
ARC
  5
B6
330
2F
100
AcDbEntity
  8
A-DETL-GENF
100
AcDbCircle
 10
-25.24997207471241
 20
1.300114496050373
 30
0.0
 40
1.699906485061278
100
AcDbArc
 50
37.12869120265612
 51
90.01881781956932
  0
ARC
  5
B7
330
2F
100
AcDbEntity
  8
A-DETL-GENF
100
AcDbCircle
 10
-23.1989828230594
 20
2.803962035452595
 30
0.0
 40
0.8439449101836212
100
AcDbArc
 50
214.4798940404242
 51
31.51985831132559
  0
LINE
  5
B8
330
2F
100
AcDbEntity
  8
A-DETL-GENF
100
AcDbLine
 10
-25.79238053267201
 20
83.64681225092328
 30
0.0
 11
-135.792380532672
 21
83.64681225092363
 31
0.0
  0
LINE
  5
B9
330
2F
100
AcDbEntity
  8
A-DETL-GENF
100
AcDbLine
 10
-84.55998569807294
 20
138.5999865707551
 30
0.0
 11
-84.55998569807304
 21
28.59998657075516
 31
0.0
  0
ENDBLK
  5
31
330
2F
100
AcDbEntity
  8
0
100
AcDbBlockEnd
  0
ENDSEC
  0
SECTION
  2
ENTITIES
  0
INSERT
  5
BB
330
17
100
AcDbEntity
  8
0
100
AcDbBlockReference
  2
31 Harol SC1000 - horizontaal-4587913-00_0 Basismaterialen
 10
0.0
 20
0.0
 30
0.0
  0
ENDSEC
  0
SECTION
  2
OBJECTS
  0
DICTIONARY
  5
A
330
0
100
AcDbDictionary
281
1
  3
ACAD_COLOR
350
B
  3
ACAD_GROUP
350
C
  3
ACAD_LAYOUT
350
D
  3
ACAD_MATERIAL
350
E
  3
ACAD_MLEADERSTYLE
350
F
  3
ACAD_MLINESTYLE
350
10
  3
ACAD_PLOTSETTINGS
350
11
  3
ACAD_PLOTSTYLENAME
350
12
  3
ACAD_SCALELIST
350
14
  3
ACAD_TABLESTYLE
350
15
  3
ACAD_VISUALSTYLE
350
16
  3
EZDXF_META
350
2D
  0
DICTIONARY
  5
B
330
A
100
AcDbDictionary
281
1
  0
DICTIONARY
  5
C
330
A
100
AcDbDictionary
281
1
  0
DICTIONARY
  5
D
330
A
100
AcDbDictionary
281
1
  3
Model
350
1A
  3
Layout1
350
1E
  0
DICTIONARY
  5
E
330
A
100
AcDbDictionary
281
1
  3
ByBlock
350
1F
  3
ByLayer
350
20
  3
Global
350
21
  0
DICTIONARY
  5
F
330
A
100
AcDbDictionary
281
1
  3
Standard
350
2C
  0
DICTIONARY
  5
10
330
A
100
AcDbDictionary
281
1
  3
Standard
350
22
  0
DICTIONARY
  5
11
330
A
100
AcDbDictionary
281
1
  0
ACDBDICTIONARYWDFLT
  5
12
330
A
100
AcDbDictionary
281
1
  3
Normal
350
13
100
AcDbDictionaryWithDefault
340
13
  0
ACDBPLACEHOLDER
  5
13
330
12
  0
DICTIONARY
  5
14
330
A
100
AcDbDictionary
281
1
  0
DICTIONARY
  5
15
330
A
100
AcDbDictionary
281
1
  0
DICTIONARY
  5
16
330
A
100
AcDbDictionary
281
1
  0
LAYOUT
  5
1A
330
D
100
AcDbPlotSettings
  1

  4
A3
  6

 40
7.5
 41
20.0
 42
7.5
 43
20.0
 44
420.0
 45
297.0
 46
0.0
 47
0.0
 48
0.0
 49
0.0
140
0.0
141
0.0
142
1.0
143
1.0
 70
1024
 72
1
 73
0
 74
5
  7

 75
16
 76
0
 77
2
 78
300
147
1.0
148
0.0
149
0.0
100
AcDbLayout
  1
Model
 70
1
 71
0
 10
0.0
 20
0.0
 11
420.0
 21
297.0
 12
0.0
 22
0.0
 32
0.0
 14
1e+20
 24
1e+20
 34
1e+20
 15
-1e+20
 25
-1e+20
 35
-1e+20
146
0.0
 13
0.0
 23
0.0
 33
0.0
 16
1.0
 26
0.0
 36
0.0
 17
0.0
 27
1.0
 37
0.0
 76
1
330
17
  0
LAYOUT
  5
1E
330
D
100
AcDbPlotSettings
  1

  4
A3
  6

 40
7.5
 41
20.0
 42
7.5
 43
20.0
 44
420.0
 45
297.0
 46
0.0
 47
0.0
 48
0.0
 49
0.0
140
0.0
141
0.0
142
1.0
143
1.0
 70
0
 72
1
 73
0
 74
5
  7

 75
16
 76
0
 77
2
 78
300
147
1.0
148
0.0
149
0.0
100
AcDbLayout
  1
Layout1
 70
1
 71
1
 10
0.0
 20
0.0
 11
420.0
 21
297.0
 12
0.0
 22
0.0
 32
0.0
 14
1e+20
 24
1e+20
 34
1e+20
 15
-1e+20
 25
-1e+20
 35
-1e+20
146
0.0
 13
0.0
 23
0.0
 33
0.0
 16
1.0
 26
0.0
 36
0.0
 17
0.0
 27
1.0
 37
0.0
 76
1
330
1B
  0
MATERIAL
  5
1F
102
{ACAD_REACTORS
330
E
102
}
330
E
100
AcDbMaterial
  1
ByBlock
  2

 70
0
 40
1.0
 71
1
 41
1.0
 91
-1023410177
 42
1.0
 72
1
  3

 73
1
 74
1
 75
1
 44
0.5
 73
0
 45
1.0
 46
1.0
 77
1
  4

 78
1
 79
1
170
1
 48
1.0
171
1
  6

172
1
173
1
174
1
140
1.0
141
1.0
175
1
  7

176
1
177
1
178
1
143
1.0
179
1
  8

270
1
271
1
272
1
145
1.0
146
1.0
273
1
  9

274
1
275
1
276
1
 42
1.0
 72
1
  3

 73
1
 74
1
 75
1
 94
63
  0
MATERIAL
  5
20
102
{ACAD_REACTORS
330
E
102
}
330
E
100
AcDbMaterial
  1
ByLayer
  2

 70
0
 40
1.0
 71
1
 41
1.0
 91
-1023410177
 42
1.0
 72
1
  3

 73
1
 74
1
 75
1
 44
0.5
 73
0
 45
1.0
 46
1.0
 77
1
  4

 78
1
 79
1
170
1
 48
1.0
171
1
  6

172
1
173
1
174
1
140
1.0
141
1.0
175
1
  7

176
1
177
1
178
1
143
1.0
179
1
  8

270
1
271
1
272
1
145
1.0
146
1.0
273
1
  9

274
1
275
1
276
1
 42
1.0
 72
1
  3

 73
1
 74
1
 75
1
 94
63
  0
MATERIAL
  5
21
102
{ACAD_REACTORS
330
E
102
}
330
E
100
AcDbMaterial
  1
Global
  2

 70
0
 40
1.0
 71
1
 41
1.0
 91
-1023410177
 42
1.0
 72
1
  3

 73
1
 74
1
 75
1
 44
0.5
 73
0
 45
1.0
 46
1.0
 77
1
  4

 78
1
 79
1
170
1
 48
1.0
171
1
  6

172
1
173
1
174
1
140
1.0
141
1.0
175
1
  7

176
1
177
1
178
1
143
1.0
179
1
  8

270
1
271
1
272
1
145
1.0
146
1.0
273
1
  9

274
1
275
1
276
1
 42
1.0
 72
1
  3

 73
1
 74
1
 75
1
 94
63
  0
MLINESTYLE
  5
22
102
{ACAD_REACTORS
330
10
102
}
330
10
100
AcDbMlineStyle
  2
Standard
 70
0
  3

 62
256
 51
90.0
 52
90.0
 71
2
 49
0.5
 62
256
  6
BYLAYER
 49
-0.5
 62
256
  6
BYLAYER
  0
MLEADERSTYLE
  5
2C
102
{ACAD_REACTORS
330
F
102
}
330
F
100
AcDbMLeaderStyle
179
2
170
2
171
1
172
0
 90
2
 40
0.0
 41
0.0
173
1
 91
-1056964608
 92
-2
290
1
 42
2.0
291
1
 43
8.0
  3
Standard
 44
4.0
300

342
29
174
1
175
1
176
0
178
1
 93
-1056964608
 45
4.0
292
0
297
0
 46
4.0
 94
-1056964608
 47
1.0
 49
1.0
140
1.0
294
1
141
0.0
177
0
142
1.0
295
0
296
0
143
3.75
271
0
272
9
273
9
  0
DICTIONARY
  5
2D
330
A
100
AcDbDictionary
280
1
281
1
  3
CREATED_BY_EZDXF
350
2E
  3
WRITTEN_BY_EZDXF
350
BF
  0
DICTIONARYVAR
  5
2E
330
2D
100
DictionaryVariables
280
0
  1
1.4.3 @ 2026-02-13T04:54:12.062303+00:00
  0
DICTIONARYVAR
  5
BF
330
2D
100
DictionaryVariables
280
0
  1
1.4.3 @ 2026-02-13T04:54:12.069335+00:00
  0
ENDSEC
  0
EOF
