  0
SECTION
  2
HEADER
  9
$ACADVER
  1
AC1032
  9
$ACADMAINTVER
 90
4
  9
$DWGCODEPAGE
  3
ANSI_1252
  9
$LASTSAVEDBY
  1
ezdxf
  9
$REQUIREDVERSIONS
160
0
  9
$INSBASE
 10
0.0
 20
0.0
 30
0.0
  9
$EXTMIN
 10
1e+20
 20
1e+20
 30
1e+20
  9
$EXTMAX
 10
-1e+20
 20
-1e+20
 30
-1e+20
  9
$LIMMIN
 10
0.0
 20
0.0
  9
$LIMMAX
 10
420.0
 20
297.0
  9
$ORTHOMODE
 70
0
  9
$REGENMODE
 70
1
  9
$FILLMODE
 70
1
  9
$QTEXTMODE
 70
0
  9
$MIRRTEXT
 70
1
  9
$LTSCALE
 40
1.0
  9
$ATTMODE
 70
1
  9
$TEXTSIZE
 40
2.5
  9
$TRACEWID
 40
1.0
  9
$TEXTSTYLE
  7
Standard
  9
$CLAYER
  8
0
  9
$CELTYPE
  6
ByLayer
  9
$CECOLOR
 62
256
  9
$CELTSCALE
 40
1.0
  9
$DISPSILH
 70
0
  9
$DIMSCALE
 40
1.0
  9
$DIMASZ
 40
2.5
  9
$DIMEXO
 40
0.625
  9
$DIMDLI
 40
3.75
  9
$DIMRND
 40
0.0
  9
$DIMDLE
 40
0.0
  9
$DIMEXE
 40
1.25
  9
$DIMTP
 40
0.0
  9
$DIMTM
 40
0.0
  9
$DIMTXT
 40
2.5
  9
$DIMCEN
 40
2.5
  9
$DIMTSZ
 40
0.0
  9
$DIMTOL
 70
0
  9
$DIMLIM
 70
0
  9
$DIMTIH
 70
0
  9
$DIMTOH
 70
0
  9
$DIMSE1
 70
0
  9
$DIMSE2
 70
0
  9
$DIMTAD
 70
1
  9
$DIMZIN
 70
8
  9
$DIMBLK
  1

  9
$DIMASO
 70
1
  9
$DIMSHO
 70
1
  9
$DIMPOST
  1

  9
$DIMAPOST
  1

  9
$DIMALT
 70
0
  9
$DIMALTD
 70
3
  9
$DIMALTF
 40
0.03937007874
  9
$DIMLFAC
 40
1.0
  9
$DIMTOFL
 70
1
  9
$DIMTVP
 40
0.0
  9
$DIMTIX
 70
0
  9
$DIMSOXD
 70
0
  9
$DIMSAH
 70
0
  9
$DIMBLK1
  1

  9
$DIMBLK2
  1

  9
$DIMSTYLE
  2
ISO-25
  9
$DIMCLRD
 70
0
  9
$DIMCLRE
 70
0
  9
$DIMCLRT
 70
0
  9
$DIMTFAC
 40
1.0
  9
$DIMGAP
 40
0.625
  9
$DIMJUST
 70
0
  9
$DIMSD1
 70
0
  9
$DIMSD2
 70
0
  9
$DIMTOLJ
 70
0
  9
$DIMTZIN
 70
8
  9
$DIMALTZ
 70
0
  9
$DIMALTTZ
 70
0
  9
$DIMUPT
 70
0
  9
$DIMDEC
 70
2
  9
$DIMTDEC
 70
2
  9
$DIMALTU
 70
2
  9
$DIMALTTD
 70
3
  9
$DIMTXSTY
  7
Standard
  9
$DIMAUNIT
 70
0
  9
$DIMADEC
 70
0
  9
$DIMALTRND
 40
0.0
  9
$DIMAZIN
 70
0
  9
$DIMDSEP
 70
44
  9
$DIMATFIT
 70
3
  9
$DIMFRAC
 70
0
  9
$DIMLDRBLK
  1

  9
$DIMLUNIT
 70
2
  9
$DIMLWD
 70
-2
  9
$DIMLWE
 70
-2
  9
$DIMTMOVE
 70
0
  9
$DIMFXL
 40
1.0
  9
$DIMFXLON
 70
0
  9
$DIMJOGANG
 40
0.785398163397
  9
$DIMTFILL
 70
0
  9
$DIMTFILLCLR
 70
0
  9
$DIMARCSYM
 70
0
  9
$DIMLTYPE
  6

  9
$DIMLTEX1
  6

  9
$DIMLTEX2
  6

  9
$DIMTXTDIRECTION
 70
0
  9
$LUNITS
 70
2
  9
$LUPREC
 70
4
  9
$SKETCHINC
 40
1.0
  9
$FILLETRAD
 40
10.0
  9
$AUNITS
 70
0
  9
$AUPREC
 70
2
  9
$MENU
  1
.
  9
$ELEVATION
 40
0.0
  9
$PELEVATION
 40
0.0
  9
$THICKNESS
 40
0.0
  9
$LIMCHECK
 70
0
  9
$CHAMFERA
 40
0.0
  9
$CHAMFERB
 40
0.0
  9
$CHAMFERC
 40
0.0
  9
$CHAMFERD
 40
0.0
  9
$SKPOLY
 70
0
  9
$TDCREATE
 40
2461085.245972222
  9
$TDUCREATE
 40
2458532.153996898
  9
$TDUPDATE
 40
2461085.245972222
  9
$TDUUPDATE
 40
2458532.1544311
  9
$TDINDWG
 40
0.0
  9
$TDUSRTIMER
 40
0.0
  9
$USRTIMER
 70
1
  9
$ANGBASE
 50
0.0
  9
$ANGDIR
 70
0
  9
$PDMODE
 70
0
  9
$PDSIZE
 40
0.0
  9
$PLINEWID
 40
0.0
  9
$SPLFRAME
 70
0
  9
$SPLINETYPE
 70
6
  9
$SPLINESEGS
 70
8
  9
$HANDSEED
  5
5C
  9
$SURFTAB1
 70
6
  9
$SURFTAB2
 70
6
  9
$SURFTYPE
 70
6
  9
$SURFU
 70
6
  9
$SURFV
 70
6
  9
$UCSBASE
  2

  9
$UCSNAME
  2

  9
$UCSORG
 10
0.0
 20
0.0
 30
0.0
  9
$UCSXDIR
 10
1.0
 20
0.0
 30
0.0
  9
$UCSYDIR
 10
0.0
 20
1.0
 30
0.0
  9
$UCSORTHOREF
  2

  9
$UCSORTHOVIEW
 70
0
  9
$UCSORGTOP
 10
0.0
 20
0.0
 30
0.0
  9
$UCSORGBOTTOM
 10
0.0
 20
0.0
 30
0.0
  9
$UCSORGLEFT
 10
0.0
 20
0.0
 30
0.0
  9
$UCSORGRIGHT
 10
0.0
 20
0.0
 30
0.0
  9
$UCSORGFRONT
 10
0.0
 20
0.0
 30
0.0
  9
$UCSORGBACK
 10
0.0
 20
0.0
 30
0.0
  9
$PUCSBASE
  2

  9
$PUCSNAME
  2

  9
$PUCSORG
 10
0.0
 20
0.0
 30
0.0
  9
$PUCSXDIR
 10
1.0
 20
0.0
 30
0.0
  9
$PUCSYDIR
 10
0.0
 20
1.0
 30
0.0
  9
$PUCSORTHOREF
  2

  9
$PUCSORTHOVIEW
 70
0
  9
$PUCSORGTOP
 10
0.0
 20
0.0
 30
0.0
  9
$PUCSORGBOTTOM
 10
0.0
 20
0.0
 30
0.0
  9
$PUCSORGLEFT
 10
0.0
 20
0.0
 30
0.0
  9
$PUCSORGRIGHT
 10
0.0
 20
0.0
 30
0.0
  9
$PUCSORGFRONT
 10
0.0
 20
0.0
 30
0.0
  9
$PUCSORGBACK
 10
0.0
 20
0.0
 30
0.0
  9
$USERI1
 70
0
  9
$USERI2
 70
0
  9
$USERI3
 70
0
  9
$USERI4
 70
0
  9
$USERI5
 70
0
  9
$USERR1
 40
0.0
  9
$USERR2
 40
0.0
  9
$USERR3
 40
0.0
  9
$USERR4
 40
0.0
  9
$USERR5
 40
0.0
  9
$WORLDVIEW
 70
1
  9
$SHADEDGE
 70
3
  9
$SHADEDIF
 70
70
  9
$TILEMODE
 70
1
  9
$MAXACTVP
 70
64
  9
$PINSBASE
 10
0.0
 20
0.0
 30
0.0
  9
$PLIMCHECK
 70
0
  9
$PEXTMIN
 10
1e+20
 20
1e+20
 30
1e+20
  9
$PEXTMAX
 10
-1e+20
 20
-1e+20
 30
-1e+20
  9
$PLIMMIN
 10
0.0
 20
0.0
  9
$PLIMMAX
 10
420.0
 20
297.0
  9
$UNITMODE
 70
0
  9
$VISRETAIN
 70
1
  9
$PLINEGEN
 70
0
  9
$PSLTSCALE
 70
1
  9
$TREEDEPTH
 70
3020
  9
$CMLSTYLE
  2
Standard
  9
$CMLJUST
 70
0
  9
$CMLSCALE
 40
20.0
  9
$PROXYGRAPHICS
 70
1
  9
$MEASUREMENT
 70
1
  9
$CELWEIGHT
370
-1
  9
$ENDCAPS
280
0
  9
$JOINSTYLE
280
0
  9
$LWDISPLAY
290
0
  9
$INSUNITS
 70
6
  9
$HYPERLINKBASE
  1

  9
$STYLESHEET
  1

  9
$XEDIT
290
1
  9
$CEPSNTYPE
380
0
  9
$PSTYLEMODE
290
1
  9
$FINGERPRINTGUID
  2
{AEE6D807-837A-4808-9F00-AC35BDE9EF4B}
  9
$VERSIONGUID
  2
{FA342583-EEC5-45F9-A025-2EEDE3277FF6}
  9
$EXTNAMES
290
1
  9
$PSVPSCALE
 40
0.0
  9
$OLESTARTUP
290
0
  9
$SORTENTS
280
127
  9
$INDEXCTL
280
0
  9
$HIDETEXT
280
1
  9
$XCLIPFRAME
280
1
  9
$HALOGAP
280
0
  9
$OBSCOLOR
 70
257
  9
$OBSLTYPE
280
0
  9
$INTERSECTIONDISPLAY
280
0
  9
$INTERSECTIONCOLOR
 70
257
  9
$DIMASSOC
280
2
  9
$PROJECTNAME
  1

  9
$CAMERADISPLAY
290
0
  9
$LENSLENGTH
 40
50.0
  9
$CAMERAHEIGHT
 40
0.0
  9
$STEPSPERSEC
 40
24.0
  9
$STEPSIZE
 40
100.0
  9
$3DDWFPREC
 40
2.0
  9
$PSOLWIDTH
 40
0.005
  9
$PSOLHEIGHT
 40
0.08
  9
$LOFTANG1
 40
1.570796326795
  9
$LOFTANG2
 40
1.570796326795
  9
$LOFTMAG1
 40
0.0
  9
$LOFTMAG2
 40
0.0
  9
$LOFTPARAM
 70
7
  9
$LOFTNORMALS
280
1
  9
$LATITUDE
 40
37.795
  9
$LONGITUDE
 40
-122.394
  9
$NORTHDIRECTION
 40
0.0
  9
$TIMEZONE
 70
-8000
  9
$LIGHTGLYPHDISPLAY
280
1
  9
$TILEMODELIGHTSYNCH
280
1
  9
$CMATERIAL
347
20
  9
$SOLIDHIST
280
0
  9
$SHOWHIST
280
1
  9
$DWFFRAME
280
2
  9
$DGNFRAME
280
2
  9
$REALWORLDSCALE
290
1
  9
$INTERFERECOLOR
 62
256
  9
$CSHADOW
280
0
  9
$SHADOWPLANELOCATION
 40
0.0
  0
ENDSEC
  0
SECTION
  2
CLASSES
  0
CLASS
  1
ACDBDICTIONARYWDFLT
  2
AcDbDictionaryWithDefault
  3
ObjectDBX Classes
 90
0
 91
0
280
0
281
0
  0
CLASS
  1
SUN
  2
AcDbSun
  3
SCENEOE
 90
1153
 91
0
280
0
281
0
  0
CLASS
  1
VISUALSTYLE
  2
AcDbVisualStyle
  3
ObjectDBX Classes
 90
4095
 91
0
280
0
281
0
  0
CLASS
  1
MATERIAL
  2
AcDbMaterial
  3
ObjectDBX Classes
 90
1153
 91
0
280
0
281
0
  0
CLASS
  1
SCALE
  2
AcDbScale
  3
ObjectDBX Classes
 90
1153
 91
0
280
0
281
0
  0
CLASS
  1
TABLESTYLE
  2
AcDbTableStyle
  3
ObjectDBX Classes
 90
4095
 91
0
280
0
281
0
  0
CLASS
  1
MLEADERSTYLE
  2
AcDbMLeaderStyle
  3
ACDB_MLEADERSTYLE_CLASS
 90
4095
 91
0
280
0
281
0
  0
CLASS
  1
DICTIONARYVAR
  2
AcDbDictionaryVar
  3
ObjectDBX Classes
 90
0
 91
0
280
0
281
0
  0
CLASS
  1
CELLSTYLEMAP
  2
AcDbCellStyleMap
  3
ObjectDBX Classes
 90
1152
 91
0
280
0
281
0
  0
CLASS
  1
MENTALRAYRENDERSETTINGS
  2
AcDbMentalRayRenderSettings
  3
SCENEOE
 90
1024
 91
0
280
0
281
0
  0
CLASS
  1
ACDBDETAILVIEWSTYLE
  2
AcDbDetailViewStyle
  3
ObjectDBX Classes
 90
1025
 91
0
280
0
281
0
  0
CLASS
  1
ACDBSECTIONVIEWSTYLE
  2
AcDbSectionViewStyle
  3
ObjectDBX Classes
 90
1025
 91
0
280
0
281
0
  0
CLASS
  1
RASTERVARIABLES
  2
AcDbRasterVariables
  3
ISM
 90
0
 91
0
280
0
281
0
  0
CLASS
  1
LAYOUT
  2
AcDbLayout
  3
ObjectDBX Classes
 90
0
 91
0
280
0
281
0
  0
CLASS
  1
ACDBPLACEHOLDER
  2
AcDbPlaceHolder
  3
ObjectDBX Classes
 90
0
 91
0
280
0
281
0
  0
ENDSEC
  0
SECTION
  2
TABLES
  0
TABLE
  2
VPORT
  5
8
330
0
100
AcDbSymbolTable
 70
1
  0
VPORT
  5
23
330
8
100
AcDbSymbolTableRecord
100
AcDbViewportTableRecord
  2
*Active
 70
0
 10
0.0
 20
0.0
 11
1.0
 21
1.0
 12
0.0
 22
0.0
 13
0.0
 23
0.0
 14
0.5
 24
0.5
 15
0.5
 25
0.5
 16
0.0
 26
0.0
 36
1.0
 17
0.0
 27
0.0
 37
0.0
 40
1000.0
 41
1.34
 42
50.0
 43
0.0
 44
0.0
 50
0.0
 51
0.0
 71
0
 72
1000
 73
1
 74
3
 75
0
 76
0
 77
0
 78
0
281
0
 65
0
146
0.0
  0
ENDTAB
  0
TABLE
  2
LTYPE
  5
2
330
0
100
AcDbSymbolTable
 70
3
  0
LTYPE
  5
24
330
2
100
AcDbSymbolTableRecord
100
AcDbLinetypeTableRecord
  2
ByBlock
 70
0
  3

 72
65
 73
0
 40
0.0
  0
LTYPE
  5
25
330
2
100
AcDbSymbolTableRecord
100
AcDbLinetypeTableRecord
  2
ByLayer
 70
0
  3

 72
65
 73
0
 40
0.0
  0
LTYPE
  5
26
330
2
100
AcDbSymbolTableRecord
100
AcDbLinetypeTableRecord
  2
Continuous
 70
0
  3

 72
65
 73
0
 40
0.0
  0
ENDTAB
  0
TABLE
  2
LAYER
  5
1
330
0
100
AcDbSymbolTable
 70
3
  0
LAYER
  5
27
330
1
100
AcDbSymbolTableRecord
100
AcDbLayerTableRecord
  2
0
 70
0
 62
7
  6
Continuous
370
-3
390
13
347
21
  0
LAYER
  5
28
330
1
100
AcDbSymbolTableRecord
100
AcDbLayerTableRecord
  2
Defpoints
 70
0
 62
7
  6
Continuous
290
0
370
-3
390
13
347
21
  0
LAYER
  5
56
330
1
100
AcDbSymbolTableRecord
100
AcDbLayerTableRecord
  2
A-DETL-GENF
 70
0
 62
92
  6
Continuous
370
18
390
13
347
21
348
0
  0
ENDTAB
  0
TABLE
  2
STYLE
  5
5
330
0
100
AcDbSymbolTable
 70
1
  0
STYLE
  5
29
330
5
100
AcDbSymbolTableRecord
100
AcDbTextStyleTableRecord
  2
Standard
 70
0
 40
0.0
 41
1.0
 50
0.0
 71
0
 42
2.5
  3
txt
  4

  0
ENDTAB
  0
TABLE
  2
VIEW
  5
7
330
0
100
AcDbSymbolTable
 70
0
  0
ENDTAB
  0
TABLE
  2
UCS
  5
6
330
0
100
AcDbSymbolTable
 70
0
  0
ENDTAB
  0
TABLE
  2
APPID
  5
3
330
0
100
AcDbSymbolTable
 70
3
  0
APPID
  5
2A
330
3
100
AcDbSymbolTableRecord
100
AcDbRegAppTableRecord
  2
ACAD
 70
0
  0
APPID
  5
59
330
3
100
AcDbSymbolTableRecord
100
AcDbRegAppTableRecord
  2
HATCHBACKGROUNDCOLOR
 70
0
  0
APPID
  5
5A
330
3
100
AcDbSymbolTableRecord
100
AcDbRegAppTableRecord
  2
EZDXF
 70
0
  0
ENDTAB
  0
TABLE
  2
DIMSTYLE
  5
4
330
0
100
AcDbSymbolTable
 70
1
100
AcDbDimStyleTable
  0
DIMSTYLE
105
2B
330
4
100
AcDbSymbolTableRecord
100
AcDbDimStyleTableRecord
  2
Standard
 70
0
 40
1.0
 41
2.5
 42
0.625
 43
3.75
 44
1.25
 45
0.0
 46
0.0
 47
0.0
 48
0.0
 49
2.5
140
2.5
141
2.5
142
0.0
143
0.03937007874
144
1.0
145
0.0
146
1.0
147
0.625
148
0.0
 69
0
 70
0
 71
0
 72
0
 73
0
 74
0
 75
0
 76
0
 77
1
 78
8
 79
3
170
0
171
3
172
1
173
0
174
0
175
0
176
0
177
0
178
0
179
2
271
2
272
2
273
2
274
3
275
0
276
0
277
2
278
44
279
0
280
0
281
0
282
0
283
0
284
8
285
0
286
0
288
0
289
3
290
0
371
-2
372
-2
  0
ENDTAB
  0
TABLE
  2
BLOCK_RECORD
  5
9
330
0
100
AcDbSymbolTable
 70
3
  0
BLOCK_RECORD
  5
17
330
9
100
AcDbSymbolTableRecord
100
AcDbBlockTableRecord
  2
*Model_Space
340
1A
 70
0
280
1
281
0
  0
BLOCK_RECORD
  5
1B
330
9
100
AcDbSymbolTableRecord
100
AcDbBlockTableRecord
  2
*Paper_Space
340
1E
 70
0
280
1
281
0
  0
BLOCK_RECORD
  5
2F
330
9
100
AcDbSymbolTableRecord
100
AcDbBlockTableRecord
  2
31 Harol SC700 - horizontaal-1613339-00_0 Basismaterialen
340
0
 70
0
280
1
281
0
  0
ENDTAB
  0
ENDSEC
  0
SECTION
  2
BLOCKS
  0
BLOCK
  5
18
330
17
100
AcDbEntity
  8
0
100
AcDbBlockBegin
  2
*Model_Space
 70
0
 10
0.0
 20
0.0
 30
0.0
  3
*Model_Space
  1

  0
ENDBLK
  5
19
330
17
100
AcDbEntity
  8
0
100
AcDbBlockEnd
  0
BLOCK
  5
1C
330
1B
100
AcDbEntity
  8
0
100
AcDbBlockBegin
  2
*Paper_Space
 70
0
 10
0.0
 20
0.0
 30
0.0
  3
*Paper_Space
  1

  0
ENDBLK
  5
1D
330
1B
100
AcDbEntity
  8
0
100
AcDbBlockEnd
  0
BLOCK
  5
30
330
2F
100
AcDbEntity
  8
0
100
AcDbBlockBegin
  2
31 Harol SC700 - horizontaal-1613339-00_0 Basismaterialen
 70
0
 10
0.0
 20
0.0
 30
0.0
  3
31 Harol SC700 - horizontaal-1613339-00_0 Basismaterialen
  1

  0
HATCH
  5
32
330
2F
100
AcDbEntity
  8
A-DETL-GENF
100
AcDbHatch
 10
0.0
 20
0.0
 30
0.0
210
0.0
220
0.0
230
1.0
  2
SOLID
 70
1
 71
0
 91
2
 92
1
 93
74
 72
1
 10
-27.39940389265402
 20
-0.0001987700918505
 11
-24.74434740309456
 21
0.0202472971245925
 72
1
 10
-24.74434740309456
 20
0.0202472971245925
 11
-24.4753541984018
 21
0.1755505962621498
 72
1
 10
-24.4753541984018
 20
0.1755505962621498
 11
-24.32005089926207
 21
0.4445438009570808
 72
1
 10
-24.32005089926207
 20
0.4445438009570808
 11
-24.32005089926207
 21
0.755150399236527
 72
1
 10
-24.32005089926207
 20
0.755150399236527
 11
-24.4753541984018
 21
1.024143603929292
 72
1
 10
-24.4753541984018
 20
1.024143603929292
 11
-24.74434740309456
 21
1.179446903069015
 72
1
 10
-24.74434740309456
 20
1.179446903069015
 11
-24.89965070223429
 21
1.199892970285458
 72
1
 10
-24.89965070223429
 20
1.199892970285458
 11
-27.68368116909519
 21
1.233967139264694
 72
1
 10
-27.68368116909519
 20
1.233967139264694
 11
-27.92486209050831
 21
1.333867547901155
 72
1
 10
-27.92486209050831
 20
1.333867547901155
 11
-28.13196884294218
 21
1.492786148435351
 72
1
 10
-28.13196884294218
 20
1.492786148435351
 11
-28.29088744347638
 21
1.69989290086923
 72
1
 10
-28.29088744347638
 20
1.69989290086923
 11
-28.39078785211284
 21
1.941073822284511
 72
1
 10
-28.39078785211284
 20
1.941073822284511
 11
-28.42486202109208
 21
2.199892831453002
 72
1
 10
-28.42486202109208
 20
2.199892831453002
 11
-28.42486202109208
 21
16.34989280824394
 72
1
 10
-28.42486202109208
 20
16.34989280824394
 11
-11.17486235024862
 21
16.34989280824394
 72
1
 10
-11.17486235024862
 20
16.34989280824394
 11
-11.21222633858862
 21
2.012633889926501
 72
1
 10
-11.21222633858862
 20
2.012633889926502
 11
-11.32177200956678
 21
1.748167245362634
 72
1
 10
-11.32177200956678
 20
1.748167245362634
 11
-11.49603400672506
 21
1.521064589143094
 72
1
 10
-11.49603400672506
 20
1.521064589143094
 11
-11.72313666294027
 21
1.346802591984811
 72
1
 10
-11.72313666294027
 20
1.346802591984811
 11
-11.98760330750414
 21
1.237256921013147
 72
1
 10
-11.98760330750414
 20
1.237256921013147
 11
-12.27141097563625
 21
1.199892932668819
 72
1
 10
-12.27141097563625
 20
1.199892932668819
 11
-14.72667314156509
 21
1.199892932668819
 72
1
 10
-14.72667314156509
 20
1.199892932668819
 11
-15.02664637473122
 21
1.119515347089765
 72
1
 10
-15.02664637473122
 20
1.119515347089765
 11
-15.24624202232045
 21
0.899919699500532
 72
1
 10
-15.24624202232045
 20
0.899919699500532
 11
-15.32661960789734
 21
0.5999464663365757
 72
1
 10
-15.32661960789734
 20
0.5999464663365757
 11
-15.24624202232045
 21
0.2999732331704536
 72
1
 10
-15.24624202232045
 20
0.2999732331704536
 11
-15.02664637473122
 21
0.0803775855812205
 72
1
 10
-15.02664637473122
 20
0.0803775855812205
 11
-14.72667314156509
 21
2.1657e-12
 72
1
 10
-14.72667314156509
 20
2.1657e-12
 11
-12.19939773836839
 21
2.1657e-12
 72
1
 10
-12.19939773836839
 20
2.1657e-12
 11
-11.63004203492503
 21
0.0749571003777817
 72
1
 10
-11.63004203492503
 20
0.0749571003777817
 11
-11.09948698177158
 21
0.2947201989794223
 72
1
 10
-11.09948698177158
 20
0.2947201989794223
 11
-10.64388902899374
 21
0.6443128038146483
 72
1
 10
-10.64388902899374
 20
0.6443128038146483
 11
-10.29429642415634
 21
1.099910756596818
 72
1
 10
-10.29429642415634
 20
1.099910756596818
 11
-10.0745333255547
 21
1.630465809752439
 72
1
 10
-10.0745333255547
 20
1.630465809752439
 11
-9.999576225179087
 21
2.199821513189306
 72
1
 10
-9.999576225179087
 20
2.199821513189306
 11
-9.999576225179087
 21
7.999892557159274
 72
1
 10
-9.999576225179087
 20
7.999892557159274
 11
-0.3704526393946939
 21
8.01692964036028
 72
1
 10
-0.3704526393946935
 20
8.01692964036028
 11
-0.1463088194505531
 21
8.14633913514133
 72
1
 10
-0.1463088194505531
 20
8.14633913514133
 11
0.0001377585315026
 21
8.49989244987085
 72
1
 10
0.0001377585315026
 20
8.49989244987085
 11
0.0001377585315026
 21
9.499892386518566
 72
1
 10
0.0001377585315026
 20
9.499892386518566
 11
-1.648057415670189
 21
11.43061367451603
 72
1
 10
-1.648057415670189
 20
11.43061367451603
 11
-1.973487512251892
 21
11.56209607631519
 72
1
 10
-1.973487512251892
 20
11.56209607631519
 11
-2.322552478701766
 21
11.52540794555095
 72
1
 10
-2.322552478701766
 20
11.52540794555095
 11
-2.613534502480763
 21
11.32913815271621
 72
1
 10
-2.613534502480763
 20
11.32913815271621
 11
-2.714949586990667
 21
11.1843024294323
 72
1
 10
-2.714949586990667
 20
11.1843024294323
 11
-2.799861210309802
 21
10.84374056138491
 72
1
 10
-2.799861210309802
 20
10.84374056138491
 11
-2.799861210309802
 21
9.499892803028246
 72
1
 10
-2.799861210309802
 20
9.499892803028246
 11
-9.999862017949454
 21
9.499892803028246
 72
1
 10
-9.999862017949454
 20
9.499892803028246
 11
-9.999862017949454
 21
28.49989312340316
 72
1
 10
-9.999862017949454
 20
28.49989312340316
 11
-2.799861210309803
 21
28.49989312340316
 72
1
 10
-2.799861210309802
 20
28.49989312340316
 11
-2.778831183731733
 21
26.93686543892809
 72
1
 10
-2.778831183731733
 20
26.93686543892809
 11
-2.716990467643836
 21
26.77576488806576
 72
1
 10
-2.716990467643836
 20
26.77576488806576
 11
-2.487778684287445
 21
26.52119946049392
 72
1
 10
-2.487778684287445
 20
26.52119946049392
 11
-2.165885455548345
 21
26.40403996307312
 72
1
 10
-2.165885455548345
 20
26.40403996307312
 11
-1.826667554675339
 21
26.45171400500243
 72
1
 10
-1.826667554675339
 20
26.45171400500243
 11
-1.549537545093517
 21
26.65306086077899
 72
1
 10
-1.549537545093517
 20
26.65306086077899
 11
-1.73259e-11
 21
28.49972895851782
 72
1
 10
-1.73259e-11
 20
28.49972895851782
 11
-0.0170399071907014
 21
29.62929591348654
 72
1
 10
-0.0170399071907014
 20
29.62929591348654
 11
-0.0669983872061835
 21
29.74990635349446
 72
1
 10
-0.0669983872061835
 20
29.74990635349446
 11
-0.3706518250497993
 21
29.98290783134131
 72
1
 10
-0.3706518250497993
 20
29.98290783134131
 11
-0.5000827700621017
 21
29.99994773851901
 72
1
 10
-0.5000827700621017
 20
29.99994773851901
 11
-28.55170176075477
 21
29.95177455649289
 72
1
 10
-28.55170176075477
 20
29.95177455649289
 11
-28.89267713230339
 21
29.81053793315913
 72
1
 10
-28.89267713230339
 20
29.81053793315913
 11
-29.18547932183239
 21
29.58586291099696
 72
1
 10
-29.18547932183239
 20
29.58586291099696
 11
-29.41015434399672
 21
29.29306072147013
 72
1
 10
-29.41015434399672
 20
29.29306072147013
 11
-29.55139096732832
 21
28.95208534991501
 72
1
 10
-29.55139096732832
 20
28.95208534991501
 11
-29.59956414935661
 21
28.58617370442125
 72
1
 10
-29.59956414935661
 20
28.58617370442125
 11
-29.59956414935661
 21
2.199961486608572
 72
1
 10
-29.59956414935661
 20
2.199961486608572
 11
-29.52459550657465
 21
1.630518109895791
 72
1
 10
-29.52459550657465
 20
1.630518109895791
 11
-29.30479856735299
 21
1.099881358259443
 72
1
 10
-29.30479856735299
 20
1.099881358259443
 11
-28.95515212986403
 21
0.6442132493985583
 72
1
 10
-28.95515212986403
 20
0.6442132493985583
 11
-28.49948402100531
 21
0.2945668119074356
 72
1
 10
-28.49948402100531
 20
0.2945668119074356
 11
-27.96884726936463
 21
0.0747698726857777
 72
1
 10
-27.96884726936463
 20
0.0747698726857777
 11
-27.39940389265402
 21
-0.0001987700918505
 97
0
 92
1
 93
4
 72
1
 10
-11.17486235024862
 20
17.54989286524146
 11
-28.42486202109208
 21
17.54989286524146
 72
1
 10
-28.42486202109208
 20
17.54989286524146
 11
-28.42486202109208
 21
28.79989261378417
 72
1
 10
-28.42486202109208
 20
28.79989261378417
 11
-11.17486235024862
 21
28.79989261378417
 72
1
 10
-11.17486235024862
 20
28.79989261378417
 11
-11.17486235024862
 21
17.54989286524146
 97
0
 75
0
 76
1
 98
1
 10
0.0
 20
0.0
450
0
451
0
460
0.0
461
0.0
452
0
462
0.0
453
0
470

  0
LINE
  5
33
330
2F
100
AcDbEntity
  8
A-DETL-GENF
100
AcDbLine
 10
-28.42486202107759
 20
2.199892831450227
 30
0.0
 11
-28.42486202107759
 21
16.34989280824036
 31
0.0
  0
LINE
  5
34
330
2F
100
AcDbEntity
  8
A-DETL-GENF
100
AcDbLine
 10
-28.42486202107759
 20
16.34989280824036
 30
0.0
 11
-11.17486235023076
 21
16.34989280824037
 31
0.0
  0
LINE
  5
35
330
2F
100
AcDbEntity
  8
A-DETL-GENF
100
AcDbLine
 10
-11.17486235023076
 20
16.34989280824037
 30
0.0
 11
-11.17486235023075
 21
2.296441558054774
 31
0.0
  0
ARC
  5
36
330
2F
100
AcDbEntity
  8
A-DETL-GENF
100
AcDbCircle
 10
-12.27141097562041
 20
2.296441558054774
 30
0.0
 40
1.096548625389621
100
AcDbArc
 50
270.0
 51
4.326e-13
  0
LINE
  5
37
330
2F
100
AcDbEntity
  8
A-DETL-GENF
100
AcDbLine
 10
-12.27141097562041
 20
1.199892932665116
 30
0.0
 11
-14.72667314154872
 21
1.199892932665114
 31
0.0
  0
ARC
  5
38
330
2F
100
AcDbEntity
  8
A-DETL-GENF
100
AcDbCircle
 10
-14.72667314154872
 20
0.5999464663325995
 30
0.0
 40
0.5999464663325909
100
AcDbArc
 50
89.99999999999996
 51
269.9999999999993
  0
LINE
  5
39
330
2F
100
AcDbEntity
  8
A-DETL-GENF
100
AcDbLine
 10
-14.72667314154872
 20
8.46e-14
 30
0.0
 11
-12.19939773835025
 21
8.64e-14
 31
0.0
  0
ARC
  5
3A
330
2F
100
AcDbEntity
  8
A-DETL-GENF
100
AcDbCircle
 10
-12.19939773835025
 20
2.19982151318668
 30
0.0
 40
2.199821513186706
100
AcDbArc
 50
269.9999999999996
 51
1.463e-13
  0
LINE
  5
3B
330
2F
100
AcDbEntity
  8
A-DETL-GENF
100
AcDbLine
 10
-9.99957622516366
 20
2.199821513186685
 30
0.0
 11
-9.999576225163663
 21
7.999892557155838
 31
0.0
  0
LINE
  5
3C
330
2F
100
AcDbEntity
  8
A-DETL-GENF
100
AcDbLine
 10
-9.999576225163663
 20
7.999892557155838
 30
0.0
 11
-0.4998621341638313
 21
7.999892557155845
 31
0.0
  0
ARC
  5
3D
330
2F
100
AcDbEntity
  8
A-DETL-GENF
100
AcDbCircle
 10
-0.4998621341638313
 20
8.499892449867415
 30
0.0
 40
0.4999998927115869
100
AcDbArc
 50
269.9999999999997
 51
0.0
  0
LINE
  5
3E
330
2F
100
AcDbEntity
  8
A-DETL-GENF
100
AcDbLine
 10
0.0001377585477456
 20
8.499892449867415
 30
0.0
 11
0.0001377585477456
 21
9.499892386515334
 31
0.0
  0
LINE
  5
3F
330
2F
100
AcDbEntity
  8
A-DETL-GENF
100
AcDbLine
 10
0.0001377585477456
 20
9.499892386515334
 30
0.0
 11
-1.51874550560113
 21
11.31002828558297
 31
0.0
  0
ARC
  5
40
330
2F
100
AcDbEntity
  8
A-DETL-GENF
100
AcDbCircle
 10
-2.074445978965921
 20
10.84374056138052
 30
0.0
 40
0.7254152313259306
100
AcDbArc
 50
39.99997954677169
 51
179.9999999999997
  0
LINE
  5
41
330
2F
100
AcDbEntity
  8
A-DETL-GENF
100
AcDbLine
 10
-2.799861210291799
 20
10.84374056138053
 30
0.0
 11
-2.799861210291799
 21
9.499892803024945
 31
0.0
  0
LINE
  5
42
330
2F
100
AcDbEntity
  8
A-DETL-GENF
100
AcDbLine
 10
-2.799861210291799
 20
9.499892803024945
 30
0.0
 11
-9.999862017934959
 21
9.499892803024942
 31
0.0
  0
LINE
  5
43
330
2F
100
AcDbEntity
  8
A-DETL-GENF
100
AcDbLine
 10
-9.999862017934959
 20
9.499892803024942
 30
0.0
 11
-9.999862017934971
 21
28.4998931234
 31
0.0
  0
LINE
  5
44
330
2F
100
AcDbEntity
  8
A-DETL-GENF
100
AcDbLine
 10
-9.999862017934971
 20
28.4998931234
 30
0.0
 11
-2.799861210291935
 21
28.4998931234
 31
0.0
  0
LINE
  5
45
330
2F
100
AcDbEntity
  8
A-DETL-GENF
100
AcDbLine
 10
-2.799861210291935
 20
28.4998931234
 30
0.0
 11
-2.799861210291935
 21
27.10814123883905
 31
0.0
  0
ARC
  5
46
330
2F
100
AcDbEntity
  8
A-DETL-GENF
100
AcDbCircle
 10
-2.091881561681163
 20
27.10814123883905
 30
0.0
 40
0.7079796486108904
100
AcDbArc
 50
180.0
 51
320.0000177455113
  0
LINE
  5
47
330
2F
100
AcDbEntity
  8
A-DETL-GENF
100
AcDbLine
 10
-1.549537545075074
 20
26.65306086077525
 30
0.0
 11
0.0
 21
28.49972895851539
 31
0.0
  0
LINE
  5
48
330
2F
100
AcDbEntity
  8
A-DETL-GENF
100
AcDbLine
 10
0.0
 20
28.49972895851539
 30
0.0
 11
0.0
 21
29.49986496846803
 31
0.0
  0
ARC
  5
49
330
2F
100
AcDbEntity
  8
A-DETL-GENF
100
AcDbCircle
 10
-0.5000827700469374
 20
29.49986496846803
 30
0.0
 40
0.5000827700468669
100
AcDbArc
 50
359.9999999999992
 51
90.00000000000007
  0
LINE
  5
4A
330
2F
100
AcDbEntity
  8
A-DETL-GENF
100
AcDbLine
 10
-0.5000827700469416
 20
29.9999477385149
 30
0.0
 11
-28.18579011523909
 21
29.99994773851488
 31
0.0
  0
ARC
  5
4B
330
2F
100
AcDbEntity
  8
A-DETL-GENF
100
AcDbCircle
 10
-28.18579011523907
 20
28.58617370441617
 30
0.0
 40
1.413774034098752
100
AcDbArc
 50
90.00000000000063
 51
179.9999999999998
  0
LINE
  5
4C
330
2F
100
AcDbEntity
  8
A-DETL-GENF
100
AcDbLine
 10
-29.59956414933781
 20
28.58617370441617
 30
0.0
 11
-29.59956414933779
 21
2.199961486605662
 31
0.0
  0
ARC
  5
4D
330
2F
100
AcDbEntity
  8
A-DETL-GENF
100
AcDbCircle
 10
-27.39940389263655
 20
2.199961486605662
 30
0.0
 40
2.200160256701332
100
AcDbArc
 50
179.9999999999996
 51
269.9999999999993
  0
LINE
  5
4E
330
2F
100
AcDbEntity
  8
A-DETL-GENF
100
AcDbLine
 10
-27.39940389263656
 20
-0.0001987700955747
 30
0.0
 11
-24.8996507022194
 21
-0.0001987700955729
 31
0.0
  0
ARC
  5
4F
330
2F
100
AcDbEntity
  8
A-DETL-GENF
100
AcDbCircle
 10
-24.8996507022194
 20
0.5998471000930815
 30
0.0
 40
0.600045870188699
100
AcDbArc
 50
269.9999999999993
 51
89.99999999999959
  0
LINE
  5
50
330
2F
100
AcDbEntity
  8
A-DETL-GENF
100
AcDbLine
 10
-24.89965070221939
 20
1.199892970281737
 30
0.0
 11
-27.4248621599091
 21
1.199892970281735
 31
0.0
  0
ARC
  5
51
330
2F
100
AcDbEntity
  8
A-DETL-GENF
100
AcDbCircle
 10
-27.4248621599091
 20
2.199892831450228
 30
0.0
 40
0.9999998611684757
100
AcDbArc
 50
180.0000000000005
 51
270.0
  0
LINE
  5
52
330
2F
100
AcDbEntity
  8
A-DETL-GENF
100
AcDbLine
 10
-11.17486235023075
 20
17.54989286523735
 30
0.0
 11
-28.42486202107759
 21
17.54989286523733
 31
0.0
  0
LINE
  5
53
330
2F
100
AcDbEntity
  8
A-DETL-GENF
100
AcDbLine
 10
-28.42486202107759
 20
17.54989286523733
 30
0.0
 11
-28.42486202107759
 21
28.79989261378018
 31
0.0
  0
LINE
  5
54
330
2F
100
AcDbEntity
  8
A-DETL-GENF
100
AcDbLine
 10
-28.42486202107759
 20
28.79989261378018
 30
0.0
 11
-11.17486235023076
 21
28.79989261378019
 31
0.0
  0
LINE
  5
55
330
2F
100
AcDbEntity
  8
A-DETL-GENF
100
AcDbLine
 10
-11.17486235023076
 20
28.79989261378019
 30
0.0
 11
-11.17486235023075
 21
17.54989286523735
 31
0.0
  0
ENDBLK
  5
31
330
2F
100
AcDbEntity
  8
0
100
AcDbBlockEnd
  0
ENDSEC
  0
SECTION
  2
ENTITIES
  0
INSERT
  5
57
330
17
100
AcDbEntity
  8
0
100
AcDbBlockReference
  2
31 Harol SC700 - horizontaal-1613339-00_0 Basismaterialen
 10
0.0
 20
0.0
 30
0.0
  0
ENDSEC
  0
SECTION
  2
OBJECTS
  0
DICTIONARY
  5
A
330
0
100
AcDbDictionary
281
1
  3
ACAD_COLOR
350
B
  3
ACAD_GROUP
350
C
  3
ACAD_LAYOUT
350
D
  3
ACAD_MATERIAL
350
E
  3
ACAD_MLEADERSTYLE
350
F
  3
ACAD_MLINESTYLE
350
10
  3
ACAD_PLOTSETTINGS
350
11
  3
ACAD_PLOTSTYLENAME
350
12
  3
ACAD_SCALELIST
350
14
  3
ACAD_TABLESTYLE
350
15
  3
ACAD_VISUALSTYLE
350
16
  3
EZDXF_META
350
2D
  0
DICTIONARY
  5
B
330
A
100
AcDbDictionary
281
1
  0
DICTIONARY
  5
C
330
A
100
AcDbDictionary
281
1
  0
DICTIONARY
  5
D
330
A
100
AcDbDictionary
281
1
  3
Model
350
1A
  3
Layout1
350
1E
  0
DICTIONARY
  5
E
330
A
100
AcDbDictionary
281
1
  3
ByBlock
350
1F
  3
ByLayer
350
20
  3
Global
350
21
  0
DICTIONARY
  5
F
330
A
100
AcDbDictionary
281
1
  3
Standard
350
2C
  0
DICTIONARY
  5
10
330
A
100
AcDbDictionary
281
1
  3
Standard
350
22
  0
DICTIONARY
  5
11
330
A
100
AcDbDictionary
281
1
  0
ACDBDICTIONARYWDFLT
  5
12
330
A
100
AcDbDictionary
281
1
  3
Normal
350
13
100
AcDbDictionaryWithDefault
340
13
  0
ACDBPLACEHOLDER
  5
13
330
12
  0
DICTIONARY
  5
14
330
A
100
AcDbDictionary
281
1
  0
DICTIONARY
  5
15
330
A
100
AcDbDictionary
281
1
  0
DICTIONARY
  5
16
330
A
100
AcDbDictionary
281
1
  0
LAYOUT
  5
1A
330
D
100
AcDbPlotSettings
  1

  4
A3
  6

 40
7.5
 41
20.0
 42
7.5
 43
20.0
 44
420.0
 45
297.0
 46
0.0
 47
0.0
 48
0.0
 49
0.0
140
0.0
141
0.0
142
1.0
143
1.0
 70
1024
 72
1
 73
0
 74
5
  7

 75
16
 76
0
 77
2
 78
300
147
1.0
148
0.0
149
0.0
100
AcDbLayout
  1
Model
 70
1
 71
0
 10
0.0
 20
0.0
 11
420.0
 21
297.0
 12
0.0
 22
0.0
 32
0.0
 14
1e+20
 24
1e+20
 34
1e+20
 15
-1e+20
 25
-1e+20
 35
-1e+20
146
0.0
 13
0.0
 23
0.0
 33
0.0
 16
1.0
 26
0.0
 36
0.0
 17
0.0
 27
1.0
 37
0.0
 76
1
330
17
  0
LAYOUT
  5
1E
330
D
100
AcDbPlotSettings
  1

  4
A3
  6

 40
7.5
 41
20.0
 42
7.5
 43
20.0
 44
420.0
 45
297.0
 46
0.0
 47
0.0
 48
0.0
 49
0.0
140
0.0
141
0.0
142
1.0
143
1.0
 70
0
 72
1
 73
0
 74
5
  7

 75
16
 76
0
 77
2
 78
300
147
1.0
148
0.0
149
0.0
100
AcDbLayout
  1
Layout1
 70
1
 71
1
 10
0.0
 20
0.0
 11
420.0
 21
297.0
 12
0.0
 22
0.0
 32
0.0
 14
1e+20
 24
1e+20
 34
1e+20
 15
-1e+20
 25
-1e+20
 35
-1e+20
146
0.0
 13
0.0
 23
0.0
 33
0.0
 16
1.0
 26
0.0
 36
0.0
 17
0.0
 27
1.0
 37
0.0
 76
1
330
1B
  0
MATERIAL
  5
1F
102
{ACAD_REACTORS
330
E
102
}
330
E
100
AcDbMaterial
  1
ByBlock
  2

 70
0
 40
1.0
 71
1
 41
1.0
 91
-1023410177
 42
1.0
 72
1
  3

 73
1
 74
1
 75
1
 44
0.5
 73
0
 45
1.0
 46
1.0
 77
1
  4

 78
1
 79
1
170
1
 48
1.0
171
1
  6

172
1
173
1
174
1
140
1.0
141
1.0
175
1
  7

176
1
177
1
178
1
143
1.0
179
1
  8

270
1
271
1
272
1
145
1.0
146
1.0
273
1
  9

274
1
275
1
276
1
 42
1.0
 72
1
  3

 73
1
 74
1
 75
1
 94
63
  0
MATERIAL
  5
20
102
{ACAD_REACTORS
330
E
102
}
330
E
100
AcDbMaterial
  1
ByLayer
  2

 70
0
 40
1.0
 71
1
 41
1.0
 91
-1023410177
 42
1.0
 72
1
  3

 73
1
 74
1
 75
1
 44
0.5
 73
0
 45
1.0
 46
1.0
 77
1
  4

 78
1
 79
1
170
1
 48
1.0
171
1
  6

172
1
173
1
174
1
140
1.0
141
1.0
175
1
  7

176
1
177
1
178
1
143
1.0
179
1
  8

270
1
271
1
272
1
145
1.0
146
1.0
273
1
  9

274
1
275
1
276
1
 42
1.0
 72
1
  3

 73
1
 74
1
 75
1
 94
63
  0
MATERIAL
  5
21
102
{ACAD_REACTORS
330
E
102
}
330
E
100
AcDbMaterial
  1
Global
  2

 70
0
 40
1.0
 71
1
 41
1.0
 91
-1023410177
 42
1.0
 72
1
  3

 73
1
 74
1
 75
1
 44
0.5
 73
0
 45
1.0
 46
1.0
 77
1
  4

 78
1
 79
1
170
1
 48
1.0
171
1
  6

172
1
173
1
174
1
140
1.0
141
1.0
175
1
  7

176
1
177
1
178
1
143
1.0
179
1
  8

270
1
271
1
272
1
145
1.0
146
1.0
273
1
  9

274
1
275
1
276
1
 42
1.0
 72
1
  3

 73
1
 74
1
 75
1
 94
63
  0
MLINESTYLE
  5
22
102
{ACAD_REACTORS
330
10
102
}
330
10
100
AcDbMlineStyle
  2
Standard
 70
0
  3

 62
256
 51
90.0
 52
90.0
 71
2
 49
0.5
 62
256
  6
BYLAYER
 49
-0.5
 62
256
  6
BYLAYER
  0
MLEADERSTYLE
  5
2C
102
{ACAD_REACTORS
330
F
102
}
330
F
100
AcDbMLeaderStyle
179
2
170
2
171
1
172
0
 90
2
 40
0.0
 41
0.0
173
1
 91
-1056964608
 92
-2
290
1
 42
2.0
291
1
 43
8.0
  3
Standard
 44
4.0
300

342
29
174
1
175
1
176
0
178
1
 93
-1056964608
 45
4.0
292
0
297
0
 46
4.0
 94
-1056964608
 47
1.0
 49
1.0
140
1.0
294
1
141
0.0
177
0
142
1.0
295
0
296
0
143
3.75
271
0
272
9
273
9
  0
DICTIONARY
  5
2D
330
A
100
AcDbDictionary
280
1
281
1
  3
CREATED_BY_EZDXF
350
2E
  3
WRITTEN_BY_EZDXF
350
5B
  0
DICTIONARYVAR
  5
2E
330
2D
100
DictionaryVariables
280
0
  1
1.4.3 @ 2026-02-13T04:54:12.035716+00:00
  0
DICTIONARYVAR
  5
5B
330
2D
100
DictionaryVariables
280
0
  1
1.4.3 @ 2026-02-13T04:54:12.038724+00:00
  0
ENDSEC
  0
EOF
