  0
SECTION
  2
HEADER
  9
$ACADVER
  1
AC1032
  9
$ACADMAINTVER
 90
4
  9
$DWGCODEPAGE
  3
ANSI_1252
  9
$LASTSAVEDBY
  1
ezdxf
  9
$REQUIREDVERSIONS
160
0
  9
$INSBASE
 10
0.0
 20
0.0
 30
0.0
  9
$EXTMIN
 10
1e+20
 20
1e+20
 30
1e+20
  9
$EXTMAX
 10
-1e+20
 20
-1e+20
 30
-1e+20
  9
$LIMMIN
 10
0.0
 20
0.0
  9
$LIMMAX
 10
420.0
 20
297.0
  9
$ORTHOMODE
 70
0
  9
$REGENMODE
 70
1
  9
$FILLMODE
 70
1
  9
$QTEXTMODE
 70
0
  9
$MIRRTEXT
 70
1
  9
$LTSCALE
 40
1.0
  9
$ATTMODE
 70
1
  9
$TEXTSIZE
 40
2.5
  9
$TRACEWID
 40
1.0
  9
$TEXTSTYLE
  7
Standard
  9
$CLAYER
  8
0
  9
$CELTYPE
  6
ByLayer
  9
$CECOLOR
 62
256
  9
$CELTSCALE
 40
1.0
  9
$DISPSILH
 70
0
  9
$DIMSCALE
 40
1.0
  9
$DIMASZ
 40
2.5
  9
$DIMEXO
 40
0.625
  9
$DIMDLI
 40
3.75
  9
$DIMRND
 40
0.0
  9
$DIMDLE
 40
0.0
  9
$DIMEXE
 40
1.25
  9
$DIMTP
 40
0.0
  9
$DIMTM
 40
0.0
  9
$DIMTXT
 40
2.5
  9
$DIMCEN
 40
2.5
  9
$DIMTSZ
 40
0.0
  9
$DIMTOL
 70
0
  9
$DIMLIM
 70
0
  9
$DIMTIH
 70
0
  9
$DIMTOH
 70
0
  9
$DIMSE1
 70
0
  9
$DIMSE2
 70
0
  9
$DIMTAD
 70
1
  9
$DIMZIN
 70
8
  9
$DIMBLK
  1

  9
$DIMASO
 70
1
  9
$DIMSHO
 70
1
  9
$DIMPOST
  1

  9
$DIMAPOST
  1

  9
$DIMALT
 70
0
  9
$DIMALTD
 70
3
  9
$DIMALTF
 40
0.03937007874
  9
$DIMLFAC
 40
1.0
  9
$DIMTOFL
 70
1
  9
$DIMTVP
 40
0.0
  9
$DIMTIX
 70
0
  9
$DIMSOXD
 70
0
  9
$DIMSAH
 70
0
  9
$DIMBLK1
  1

  9
$DIMBLK2
  1

  9
$DIMSTYLE
  2
ISO-25
  9
$DIMCLRD
 70
0
  9
$DIMCLRE
 70
0
  9
$DIMCLRT
 70
0
  9
$DIMTFAC
 40
1.0
  9
$DIMGAP
 40
0.625
  9
$DIMJUST
 70
0
  9
$DIMSD1
 70
0
  9
$DIMSD2
 70
0
  9
$DIMTOLJ
 70
0
  9
$DIMTZIN
 70
8
  9
$DIMALTZ
 70
0
  9
$DIMALTTZ
 70
0
  9
$DIMUPT
 70
0
  9
$DIMDEC
 70
2
  9
$DIMTDEC
 70
2
  9
$DIMALTU
 70
2
  9
$DIMALTTD
 70
3
  9
$DIMTXSTY
  7
Standard
  9
$DIMAUNIT
 70
0
  9
$DIMADEC
 70
0
  9
$DIMALTRND
 40
0.0
  9
$DIMAZIN
 70
0
  9
$DIMDSEP
 70
44
  9
$DIMATFIT
 70
3
  9
$DIMFRAC
 70
0
  9
$DIMLDRBLK
  1

  9
$DIMLUNIT
 70
2
  9
$DIMLWD
 70
-2
  9
$DIMLWE
 70
-2
  9
$DIMTMOVE
 70
0
  9
$DIMFXL
 40
1.0
  9
$DIMFXLON
 70
0
  9
$DIMJOGANG
 40
0.785398163397
  9
$DIMTFILL
 70
0
  9
$DIMTFILLCLR
 70
0
  9
$DIMARCSYM
 70
0
  9
$DIMLTYPE
  6

  9
$DIMLTEX1
  6

  9
$DIMLTEX2
  6

  9
$DIMTXTDIRECTION
 70
0
  9
$LUNITS
 70
2
  9
$LUPREC
 70
4
  9
$SKETCHINC
 40
1.0
  9
$FILLETRAD
 40
10.0
  9
$AUNITS
 70
0
  9
$AUPREC
 70
2
  9
$MENU
  1
.
  9
$ELEVATION
 40
0.0
  9
$PELEVATION
 40
0.0
  9
$THICKNESS
 40
0.0
  9
$LIMCHECK
 70
0
  9
$CHAMFERA
 40
0.0
  9
$CHAMFERB
 40
0.0
  9
$CHAMFERC
 40
0.0
  9
$CHAMFERD
 40
0.0
  9
$SKPOLY
 70
0
  9
$TDCREATE
 40
2461085.245960648
  9
$TDUCREATE
 40
2458532.153996898
  9
$TDUPDATE
 40
2461085.245960648
  9
$TDUUPDATE
 40
2458532.1544311
  9
$TDINDWG
 40
0.0
  9
$TDUSRTIMER
 40
0.0
  9
$USRTIMER
 70
1
  9
$ANGBASE
 50
0.0
  9
$ANGDIR
 70
0
  9
$PDMODE
 70
0
  9
$PDSIZE
 40
0.0
  9
$PLINEWID
 40
0.0
  9
$SPLFRAME
 70
0
  9
$SPLINETYPE
 70
6
  9
$SPLINESEGS
 70
8
  9
$HANDSEED
  5
83
  9
$SURFTAB1
 70
6
  9
$SURFTAB2
 70
6
  9
$SURFTYPE
 70
6
  9
$SURFU
 70
6
  9
$SURFV
 70
6
  9
$UCSBASE
  2

  9
$UCSNAME
  2

  9
$UCSORG
 10
0.0
 20
0.0
 30
0.0
  9
$UCSXDIR
 10
1.0
 20
0.0
 30
0.0
  9
$UCSYDIR
 10
0.0
 20
1.0
 30
0.0
  9
$UCSORTHOREF
  2

  9
$UCSORTHOVIEW
 70
0
  9
$UCSORGTOP
 10
0.0
 20
0.0
 30
0.0
  9
$UCSORGBOTTOM
 10
0.0
 20
0.0
 30
0.0
  9
$UCSORGLEFT
 10
0.0
 20
0.0
 30
0.0
  9
$UCSORGRIGHT
 10
0.0
 20
0.0
 30
0.0
  9
$UCSORGFRONT
 10
0.0
 20
0.0
 30
0.0
  9
$UCSORGBACK
 10
0.0
 20
0.0
 30
0.0
  9
$PUCSBASE
  2

  9
$PUCSNAME
  2

  9
$PUCSORG
 10
0.0
 20
0.0
 30
0.0
  9
$PUCSXDIR
 10
1.0
 20
0.0
 30
0.0
  9
$PUCSYDIR
 10
0.0
 20
1.0
 30
0.0
  9
$PUCSORTHOREF
  2

  9
$PUCSORTHOVIEW
 70
0
  9
$PUCSORGTOP
 10
0.0
 20
0.0
 30
0.0
  9
$PUCSORGBOTTOM
 10
0.0
 20
0.0
 30
0.0
  9
$PUCSORGLEFT
 10
0.0
 20
0.0
 30
0.0
  9
$PUCSORGRIGHT
 10
0.0
 20
0.0
 30
0.0
  9
$PUCSORGFRONT
 10
0.0
 20
0.0
 30
0.0
  9
$PUCSORGBACK
 10
0.0
 20
0.0
 30
0.0
  9
$USERI1
 70
0
  9
$USERI2
 70
0
  9
$USERI3
 70
0
  9
$USERI4
 70
0
  9
$USERI5
 70
0
  9
$USERR1
 40
0.0
  9
$USERR2
 40
0.0
  9
$USERR3
 40
0.0
  9
$USERR4
 40
0.0
  9
$USERR5
 40
0.0
  9
$WORLDVIEW
 70
1
  9
$SHADEDGE
 70
3
  9
$SHADEDIF
 70
70
  9
$TILEMODE
 70
1
  9
$MAXACTVP
 70
64
  9
$PINSBASE
 10
0.0
 20
0.0
 30
0.0
  9
$PLIMCHECK
 70
0
  9
$PEXTMIN
 10
1e+20
 20
1e+20
 30
1e+20
  9
$PEXTMAX
 10
-1e+20
 20
-1e+20
 30
-1e+20
  9
$PLIMMIN
 10
0.0
 20
0.0
  9
$PLIMMAX
 10
420.0
 20
297.0
  9
$UNITMODE
 70
0
  9
$VISRETAIN
 70
1
  9
$PLINEGEN
 70
0
  9
$PSLTSCALE
 70
1
  9
$TREEDEPTH
 70
3020
  9
$CMLSTYLE
  2
Standard
  9
$CMLJUST
 70
0
  9
$CMLSCALE
 40
20.0
  9
$PROXYGRAPHICS
 70
1
  9
$MEASUREMENT
 70
1
  9
$CELWEIGHT
370
-1
  9
$ENDCAPS
280
0
  9
$JOINSTYLE
280
0
  9
$LWDISPLAY
290
0
  9
$INSUNITS
 70
6
  9
$HYPERLINKBASE
  1

  9
$STYLESHEET
  1

  9
$XEDIT
290
1
  9
$CEPSNTYPE
380
0
  9
$PSTYLEMODE
290
1
  9
$FINGERPRINTGUID
  2
{59C07487-D1F9-4322-80CD-B00B0E8951B9}
  9
$VERSIONGUID
  2
{9B316449-72D3-4057-B8E1-1DAD1BB5C475}
  9
$EXTNAMES
290
1
  9
$PSVPSCALE
 40
0.0
  9
$OLESTARTUP
290
0
  9
$SORTENTS
280
127
  9
$INDEXCTL
280
0
  9
$HIDETEXT
280
1
  9
$XCLIPFRAME
280
1
  9
$HALOGAP
280
0
  9
$OBSCOLOR
 70
257
  9
$OBSLTYPE
280
0
  9
$INTERSECTIONDISPLAY
280
0
  9
$INTERSECTIONCOLOR
 70
257
  9
$DIMASSOC
280
2
  9
$PROJECTNAME
  1

  9
$CAMERADISPLAY
290
0
  9
$LENSLENGTH
 40
50.0
  9
$CAMERAHEIGHT
 40
0.0
  9
$STEPSPERSEC
 40
24.0
  9
$STEPSIZE
 40
100.0
  9
$3DDWFPREC
 40
2.0
  9
$PSOLWIDTH
 40
0.005
  9
$PSOLHEIGHT
 40
0.08
  9
$LOFTANG1
 40
1.570796326795
  9
$LOFTANG2
 40
1.570796326795
  9
$LOFTMAG1
 40
0.0
  9
$LOFTMAG2
 40
0.0
  9
$LOFTPARAM
 70
7
  9
$LOFTNORMALS
280
1
  9
$LATITUDE
 40
37.795
  9
$LONGITUDE
 40
-122.394
  9
$NORTHDIRECTION
 40
0.0
  9
$TIMEZONE
 70
-8000
  9
$LIGHTGLYPHDISPLAY
280
1
  9
$TILEMODELIGHTSYNCH
280
1
  9
$CMATERIAL
347
20
  9
$SOLIDHIST
280
0
  9
$SHOWHIST
280
1
  9
$DWFFRAME
280
2
  9
$DGNFRAME
280
2
  9
$REALWORLDSCALE
290
1
  9
$INTERFERECOLOR
 62
256
  9
$CSHADOW
280
0
  9
$SHADOWPLANELOCATION
 40
0.0
  0
ENDSEC
  0
SECTION
  2
CLASSES
  0
CLASS
  1
ACDBDICTIONARYWDFLT
  2
AcDbDictionaryWithDefault
  3
ObjectDBX Classes
 90
0
 91
0
280
0
281
0
  0
CLASS
  1
SUN
  2
AcDbSun
  3
SCENEOE
 90
1153
 91
0
280
0
281
0
  0
CLASS
  1
VISUALSTYLE
  2
AcDbVisualStyle
  3
ObjectDBX Classes
 90
4095
 91
0
280
0
281
0
  0
CLASS
  1
MATERIAL
  2
AcDbMaterial
  3
ObjectDBX Classes
 90
1153
 91
0
280
0
281
0
  0
CLASS
  1
SCALE
  2
AcDbScale
  3
ObjectDBX Classes
 90
1153
 91
0
280
0
281
0
  0
CLASS
  1
TABLESTYLE
  2
AcDbTableStyle
  3
ObjectDBX Classes
 90
4095
 91
0
280
0
281
0
  0
CLASS
  1
MLEADERSTYLE
  2
AcDbMLeaderStyle
  3
ACDB_MLEADERSTYLE_CLASS
 90
4095
 91
0
280
0
281
0
  0
CLASS
  1
DICTIONARYVAR
  2
AcDbDictionaryVar
  3
ObjectDBX Classes
 90
0
 91
0
280
0
281
0
  0
CLASS
  1
CELLSTYLEMAP
  2
AcDbCellStyleMap
  3
ObjectDBX Classes
 90
1152
 91
0
280
0
281
0
  0
CLASS
  1
MENTALRAYRENDERSETTINGS
  2
AcDbMentalRayRenderSettings
  3
SCENEOE
 90
1024
 91
0
280
0
281
0
  0
CLASS
  1
ACDBDETAILVIEWSTYLE
  2
AcDbDetailViewStyle
  3
ObjectDBX Classes
 90
1025
 91
0
280
0
281
0
  0
CLASS
  1
ACDBSECTIONVIEWSTYLE
  2
AcDbSectionViewStyle
  3
ObjectDBX Classes
 90
1025
 91
0
280
0
281
0
  0
CLASS
  1
RASTERVARIABLES
  2
AcDbRasterVariables
  3
ISM
 90
0
 91
0
280
0
281
0
  0
CLASS
  1
LAYOUT
  2
AcDbLayout
  3
ObjectDBX Classes
 90
0
 91
0
280
0
281
0
  0
CLASS
  1
ACDBPLACEHOLDER
  2
AcDbPlaceHolder
  3
ObjectDBX Classes
 90
0
 91
0
280
0
281
0
  0
ENDSEC
  0
SECTION
  2
TABLES
  0
TABLE
  2
VPORT
  5
8
330
0
100
AcDbSymbolTable
 70
1
  0
VPORT
  5
23
330
8
100
AcDbSymbolTableRecord
100
AcDbViewportTableRecord
  2
*Active
 70
0
 10
0.0
 20
0.0
 11
1.0
 21
1.0
 12
0.0
 22
0.0
 13
0.0
 23
0.0
 14
0.5
 24
0.5
 15
0.5
 25
0.5
 16
0.0
 26
0.0
 36
1.0
 17
0.0
 27
0.0
 37
0.0
 40
1000.0
 41
1.34
 42
50.0
 43
0.0
 44
0.0
 50
0.0
 51
0.0
 71
0
 72
1000
 73
1
 74
3
 75
0
 76
0
 77
0
 78
0
281
0
 65
0
146
0.0
  0
ENDTAB
  0
TABLE
  2
LTYPE
  5
2
330
0
100
AcDbSymbolTable
 70
4
  0
LTYPE
  5
24
330
2
100
AcDbSymbolTableRecord
100
AcDbLinetypeTableRecord
  2
ByBlock
 70
0
  3

 72
65
 73
0
 40
0.0
  0
LTYPE
  5
25
330
2
100
AcDbSymbolTableRecord
100
AcDbLinetypeTableRecord
  2
ByLayer
 70
0
  3

 72
65
 73
0
 40
0.0
  0
LTYPE
  5
26
330
2
100
AcDbSymbolTableRecord
100
AcDbLinetypeTableRecord
  2
Continuous
 70
0
  3

 72
65
 73
0
 40
0.0
  0
LTYPE
  5
7D
330
2
100
AcDbSymbolTableRecord
100
AcDbLinetypeTableRecord
  2
Streep 1_1
 70
0
  3

 72
65
 73
2
 40
2.0
 49
1.0
 74
0
 49
-1.0
 74
0
  0
ENDTAB
  0
TABLE
  2
LAYER
  5
1
330
0
100
AcDbSymbolTable
 70
3
  0
LAYER
  5
27
330
1
100
AcDbSymbolTableRecord
100
AcDbLayerTableRecord
  2
0
 70
0
 62
7
  6
Continuous
370
-3
390
13
347
21
  0
LAYER
  5
28
330
1
100
AcDbSymbolTableRecord
100
AcDbLayerTableRecord
  2
Defpoints
 70
0
 62
7
  6
Continuous
290
0
370
-3
390
13
347
21
  0
LAYER
  5
7C
330
1
100
AcDbSymbolTableRecord
100
AcDbLayerTableRecord
  2
A-DETL-GENF
 70
0
 62
92
  6
Continuous
370
18
390
13
347
21
348
0
  0
ENDTAB
  0
TABLE
  2
STYLE
  5
5
330
0
100
AcDbSymbolTable
 70
1
  0
STYLE
  5
29
330
5
100
AcDbSymbolTableRecord
100
AcDbTextStyleTableRecord
  2
Standard
 70
0
 40
0.0
 41
1.0
 50
0.0
 71
0
 42
2.5
  3
txt
  4

  0
ENDTAB
  0
TABLE
  2
VIEW
  5
7
330
0
100
AcDbSymbolTable
 70
0
  0
ENDTAB
  0
TABLE
  2
UCS
  5
6
330
0
100
AcDbSymbolTable
 70
0
  0
ENDTAB
  0
TABLE
  2
APPID
  5
3
330
0
100
AcDbSymbolTable
 70
3
  0
APPID
  5
2A
330
3
100
AcDbSymbolTableRecord
100
AcDbRegAppTableRecord
  2
ACAD
 70
0
  0
APPID
  5
80
330
3
100
AcDbSymbolTableRecord
100
AcDbRegAppTableRecord
  2
HATCHBACKGROUNDCOLOR
 70
0
  0
APPID
  5
81
330
3
100
AcDbSymbolTableRecord
100
AcDbRegAppTableRecord
  2
EZDXF
 70
0
  0
ENDTAB
  0
TABLE
  2
DIMSTYLE
  5
4
330
0
100
AcDbSymbolTable
 70
1
100
AcDbDimStyleTable
  0
DIMSTYLE
105
2B
330
4
100
AcDbSymbolTableRecord
100
AcDbDimStyleTableRecord
  2
Standard
 70
0
 40
1.0
 41
2.5
 42
0.625
 43
3.75
 44
1.25
 45
0.0
 46
0.0
 47
0.0
 48
0.0
 49
2.5
140
2.5
141
2.5
142
0.0
143
0.03937007874
144
1.0
145
0.0
146
1.0
147
0.625
148
0.0
 69
0
 70
0
 71
0
 72
0
 73
0
 74
0
 75
0
 76
0
 77
1
 78
8
 79
3
170
0
171
3
172
1
173
0
174
0
175
0
176
0
177
0
178
0
179
2
271
2
272
2
273
2
274
3
275
0
276
0
277
2
278
44
279
0
280
0
281
0
282
0
283
0
284
8
285
0
286
0
288
0
289
3
290
0
371
-2
372
-2
  0
ENDTAB
  0
TABLE
  2
BLOCK_RECORD
  5
9
330
0
100
AcDbSymbolTable
 70
3
  0
BLOCK_RECORD
  5
17
330
9
100
AcDbSymbolTableRecord
100
AcDbBlockTableRecord
  2
*Model_Space
340
1A
 70
0
280
1
281
0
  0
BLOCK_RECORD
  5
1B
330
9
100
AcDbSymbolTableRecord
100
AcDbBlockTableRecord
  2
*Paper_Space
340
1E
 70
0
280
1
281
0
  0
BLOCK_RECORD
  5
2F
330
9
100
AcDbSymbolTableRecord
100
AcDbBlockTableRecord
  2
31 recystel stelkozijn - R2001-1524508-00_0 Basismaterialen
340
0
 70
0
280
1
281
0
  0
ENDTAB
  0
ENDSEC
  0
SECTION
  2
BLOCKS
  0
BLOCK
  5
18
330
17
100
AcDbEntity
  8
0
100
AcDbBlockBegin
  2
*Model_Space
 70
0
 10
0.0
 20
0.0
 30
0.0
  3
*Model_Space
  1

  0
ENDBLK
  5
19
330
17
100
AcDbEntity
  8
0
100
AcDbBlockEnd
  0
BLOCK
  5
1C
330
1B
100
AcDbEntity
  8
0
100
AcDbBlockBegin
  2
*Paper_Space
 70
0
 10
0.0
 20
0.0
 30
0.0
  3
*Paper_Space
  1

  0
ENDBLK
  5
1D
330
1B
100
AcDbEntity
  8
0
100
AcDbBlockEnd
  0
BLOCK
  5
30
330
2F
100
AcDbEntity
  8
0
100
AcDbBlockBegin
  2
31 recystel stelkozijn - R2001-1524508-00_0 Basismaterialen
 70
0
 10
0.0
 20
0.0
 30
0.0
  3
31 recystel stelkozijn - R2001-1524508-00_0 Basismaterialen
  1

  0
HATCH
  5
32
330
2F
100
AcDbEntity
  8
A-DETL-GENF
100
AcDbHatch
 10
0.0
 20
0.0
 30
0.0
210
0.0
220
0.0
230
1.0
  2
SOLID
 70
1
 71
0
 91
1
 92
1
 93
11
 72
1
 10
-151.0000000000133
 20
2.1657e-12
 11
-150.2000000000135
 21
2.1657e-12
 72
1
 10
-150.2000000000135
 20
2.1657e-12
 11
-150.2000000000135
 21
17.20000000000042
 72
1
 10
-150.2000000000135
 20
17.20000000000042
 11
-143.0000000000151
 21
17.20000000000042
 72
1
 10
-143.0000000000151
 20
17.20000000000042
 11
-143.0000000000151
 21
18.0000000000024
 72
1
 10
-143.0000000000151
 20
18.0000000000024
 11
-150.258819045118
 21
17.96592582629104
 72
1
 10
-150.258819045118
 20
17.96592582629104
 11
-150.5000000000134
 21
17.86602540378521
 72
1
 10
-150.5000000000134
 20
17.86602540378521
 11
-150.7071067811996
 21
17.70710678118868
 72
1
 10
-150.7071067811996
 20
17.70710678118868
 11
-150.8660254037983
 21
17.50000000000252
 72
1
 10
-150.8660254037983
 20
17.50000000000252
 11
-150.9659258262997
 21
17.25881904510498
 72
1
 10
-150.9659258262997
 20
17.25881904510498
 11
-151.0000000000133
 21
17.00000000000263
 72
1
 10
-151.0000000000133
 20
17.00000000000263
 11
-151.0000000000133
 21
2.1672e-12
 97
0
 75
0
 76
1
 98
1
 10
0.0
 20
0.0
450
0
451
0
460
0.0
461
0.0
452
0
462
0.0
453
0
470

  0
HATCH
  5
33
330
2F
100
AcDbEntity
  8
A-DETL-GENF
370
13
100
AcDbHatch
 10
0.0
 20
0.0
 30
0.0
210
0.0
220
0.0
230
1.0
  2
FP_64
 70
0
 71
0
 91
2
 92
1
 93
163
 72
1
 10
-150.2000000000135
 20
2.1657e-12
 11
-1.741180954912351
 21
0.034074173711366
 72
1
 10
-1.741180954912351
 20
0.034074173711366
 11
-1.500000000012653
 21
0.133974596217189
 72
1
 10
-1.500000000012653
 20
0.133974596217189
 11
-1.292893218826486
 21
0.2928932188158853
 72
1
 10
-1.292893218826486
 20
0.2928932188158853
 11
-1.13397459622779
 21
0.5000000000020521
 72
1
 10
-1.13397459622779
 20
0.5000000000020521
 11
-1.034074173726298
 21
0.7411809548995848
 72
1
 10
-1.034074173726298
 20
0.7411809548995848
 11
-1.000000000012767
 21
1.000000000001938
 72
1
 10
-1.000000000012767
 20
1.000000000001938
 11
-1.034074173726298
 21
4.258819045105775
 72
1
 10
-1.034074173726298
 20
4.258819045105775
 11
-1.13397459622779
 21
4.500000000003308
 72
1
 10
-1.13397459622779
 20
4.500000000003308
 11
-1.292893218826486
 21
4.707106781189475
 72
1
 10
-1.292893218826486
 20
4.707106781189475
 11
-1.500000000012653
 21
4.866025403786006
 72
1
 10
-1.500000000012653
 20
4.866025403786006
 11
-1.741180954912351
 21
4.965925826291829
 72
1
 10
-1.741180954912351
 20
4.965925826291829
 11
-2.000000000016871
 21
5.000000000001029
 72
1
 10
-2.000000000016871
 20
5.000000000001029
 11
-4.258819045112272
 21
5.034074173712395
 72
1
 10
-4.258819045112272
 20
5.034074173712395
 11
-4.500000000011971
 21
5.133974596218218
 72
1
 10
-4.500000000011971
 20
5.133974596218218
 11
-4.707106781198137
 21
5.292893218816914
 72
1
 10
-4.707106781198137
 20
5.292893218816914
 11
-4.866025403796834
 21
5.500000000000915
 72
1
 10
-4.866025403796834
 20
5.500000000000915
 11
-4.965925826302657
 21
5.741180954898448
 72
1
 10
-4.965925826302657
 20
5.741180954898448
 11
-5.000000000016188
 21
6.000000000002967
 72
1
 10
-5.000000000016188
 20
6.000000000002967
 11
-4.965925826302657
 21
60.25881904510388
 72
1
 10
-4.965925826302657
 20
60.25881904510388
 11
-4.866025403796834
 21
60.50000000000357
 72
1
 10
-4.866025403796834
 20
60.50000000000357
 11
-4.707106781202469
 21
60.70710678118757
 72
1
 10
-4.707106781202469
 20
60.70710678118757
 11
-4.500000000011971
 21
60.86602540378627
 72
1
 10
-4.500000000011971
 20
60.86602540378627
 11
-4.258819045112272
 21
60.96592582629209
 72
1
 10
-4.258819045112272
 20
60.96592582629209
 11
-4.000000000012085
 21
61.00000000000129
 72
1
 10
-4.000000000012085
 20
61.00000000000129
 11
-1.741180954912351
 21
61.03407417371266
 72
1
 10
-1.741180954912351
 20
61.03407417371266
 11
-1.500000000012653
 21
61.13397459621848
 72
1
 10
-1.500000000012653
 20
61.13397459621848
 11
-1.292893218826486
 21
61.292893218815
 72
1
 10
-1.292893218826486
 20
61.292893218815
 11
-1.13397459622779
 21
61.50000000000118
 72
1
 10
-1.13397459622779
 20
61.50000000000118
 11
-1.034074173726298
 21
61.74118095489871
 72
1
 10
-1.034074173726298
 20
61.74118095489871
 11
-1.000000000012767
 21
62.00000000000323
 72
1
 10
-1.000000000012767
 20
62.00000000000323
 11
-1.034074173726298
 21
65.2588190451049
 72
1
 10
-1.034074173726298
 20
65.2588190451049
 11
-1.13397459622779
 21
65.50000000000243
 72
1
 10
-1.13397459622779
 20
65.50000000000243
 11
-1.292893218826486
 21
65.7071067811886
 72
1
 10
-1.292893218826486
 20
65.7071067811886
 11
-1.500000000012653
 21
65.8660254037873
 72
1
 10
-1.500000000012653
 20
65.8660254037873
 11
-1.741180954912351
 21
65.96592582629096
 72
1
 10
-1.741180954912351
 20
65.96592582629096
 11
-2.000000000016871
 21
66.00000000000232
 72
1
 10
-2.000000000016871
 20
66.00000000000232
 11
-4.258819045112272
 21
66.03407417371152
 72
1
 10
-4.258819045112272
 20
66.03407417371152
 11
-4.500000000011971
 21
66.13397459621734
 72
1
 10
-4.500000000011971
 20
66.13397459621734
 11
-4.707106781202469
 21
66.29289321881603
 72
1
 10
-4.707106781202469
 20
66.29289321881603
 11
-4.866025403796834
 21
66.5000000000022
 72
1
 10
-4.866025403796834
 20
66.5000000000022
 11
-4.965925826302657
 21
66.74118095489975
 72
1
 10
-4.965925826302657
 20
66.74118095489975
 11
-5.000000000016188
 21
67.00000000000207
 72
1
 10
-5.000000000016188
 20
67.00000000000207
 11
-4.965925826302657
 21
71.25881904510354
 72
1
 10
-4.965925826302657
 20
71.25881904510354
 11
-4.866025403796834
 21
71.50000000000107
 72
1
 10
-4.866025403796834
 20
71.50000000000107
 11
-4.707106781202469
 21
71.70710678118724
 72
1
 10
-4.707106781202469
 20
71.70710678118724
 11
-4.500000000011971
 21
71.8660254037881
 72
1
 10
-4.500000000011971
 20
71.8660254037881
 11
-4.258819045112272
 21
71.96592582629175
 72
1
 10
-4.258819045112272
 20
71.96592582629175
 11
-4.000000000012085
 21
72.00000000000313
 72
1
 10
-4.000000000012085
 20
72.00000000000313
 11
-1.741180954912351
 21
72.03407417371233
 72
1
 10
-1.741180954912351
 20
72.03407417371233
 11
-1.500000000012653
 21
72.13397459621815
 72
1
 10
-1.500000000012653
 20
72.13397459621815
 11
-1.292893218826486
 21
72.29289321881468
 72
1
 10
-1.292893218826486
 20
72.29289321881468
 11
-1.13397459622779
 21
72.50000000000084
 72
1
 10
-1.13397459622779
 20
72.50000000000084
 11
-1.034074173726298
 21
72.74118095489838
 72
1
 10
-1.034074173726298
 20
72.74118095489838
 11
-1.000000000012767
 21
73.00000000000072
 72
1
 10
-1.000000000012767
 20
73.00000000000072
 11
-1.034074173726298
 21
76.25881904510457
 72
1
 10
-1.034074173726298
 20
76.25881904510457
 11
-1.13397459622779
 21
76.5000000000021
 72
1
 10
-1.13397459622779
 20
76.5000000000021
 11
-1.292893218826486
 21
76.70710678118827
 72
1
 10
-1.292893218826486
 20
76.70710678118827
 11
-1.500000000012653
 21
76.86602540378696
 72
1
 10
-1.500000000012653
 20
76.86602540378696
 11
-1.741180954912351
 21
76.96592582629278
 72
1
 10
-1.741180954912351
 20
76.96592582629278
 11
-2.000000000016871
 21
77.00000000000199
 72
1
 10
-2.000000000016871
 20
77.00000000000199
 11
-4.258819045112272
 21
77.03407417371335
 72
1
 10
-4.258819045112272
 20
77.03407417371335
 11
-4.500000000011971
 21
77.13397459621702
 72
1
 10
-4.500000000011971
 20
77.13397459621702
 11
-4.707106781202469
 21
77.2928932188157
 72
1
 10
-4.707106781202469
 20
77.2928932188157
 11
-4.866025403796834
 21
77.50000000000188
 72
1
 10
-4.866025403796834
 20
77.50000000000188
 11
-4.965925826302657
 21
77.7411809548994
 72
1
 10
-4.965925826302657
 20
77.7411809548994
 11
-5.000000000016188
 21
78.00000000000176
 72
1
 10
-5.000000000016188
 20
78.00000000000176
 11
-4.965925826302657
 21
94.25881904510481
 72
1
 10
-4.965925826302657
 20
94.25881904510481
 11
-4.866025403796834
 21
94.50000000000234
 72
1
 10
-4.866025403796834
 20
94.50000000000234
 11
-4.707106781202469
 21
94.7071067811885
 72
1
 10
-4.707106781202469
 20
94.7071067811885
 11
-4.500000000011971
 21
94.8660254037872
 72
1
 10
-4.500000000011971
 20
94.8660254037872
 11
-4.258819045112272
 21
94.96592582629086
 72
1
 10
-4.258819045112272
 20
94.96592582629086
 11
-4.000000000012085
 21
95.00000000000223
 72
1
 10
-4.000000000012085
 20
95.00000000000223
 11
-1.741180954912351
 21
95.03407417371143
 72
1
 10
-1.741180954912351
 20
95.03407417371143
 11
-1.500000000012653
 21
95.13397459621724
 72
1
 10
-1.500000000012653
 20
95.13397459621724
 11
-1.292893218826486
 21
95.29289321881595
 72
1
 10
-1.292893218826486
 20
95.29289321881595
 11
-1.13397459622779
 21
95.50000000000212
 72
1
 10
-1.13397459622779
 20
95.50000000000212
 11
-1.034074173726298
 21
95.74118095489963
 72
1
 10
-1.034074173726298
 20
95.74118095489963
 11
-1.000000000012767
 21
96.000000000002
 72
1
 10
-1.000000000012767
 20
96.000000000002
 11
-1.034074173726298
 21
99.25881904510584
 72
1
 10
-1.034074173726298
 20
99.25881904510584
 11
-1.13397459622779
 21
99.50000000000335
 72
1
 10
-1.13397459622779
 20
99.50000000000335
 11
-1.292893218826486
 21
99.70710678118955
 72
1
 10
-1.292893218826486
 20
99.70710678118955
 11
-1.500000000012653
 21
99.86602540378607
 72
1
 10
-1.500000000012653
 20
99.86602540378607
 11
-1.741180954912351
 21
99.9659258262919
 72
1
 10
-1.741180954912351
 20
99.9659258262919
 11
-2.000000000016871
 21
100.0000000000011
 72
1
 10
-2.000000000016871
 20
100.0000000000011
 11
-9.584080628088907
 21
100.0000000000011
 72
1
 10
-9.584080628088907
 20
100.0000000000011
 11
-10.14146436951834
 21
99.83025499986022
 72
1
 10
-10.14146436951834
 20
99.83025499986022
 11
-10.29324226369604
 21
99.70504593792631
 72
1
 10
-10.29324226369604
 20
99.70504593792631
 11
-14.86699385384888
 21
95.0566215798266
 72
1
 10
-14.86699385384888
 20
95.0566215798266
 11
-14.96617644710891
 21
94.81618464628994
 72
1
 10
-14.96617644710891
 20
94.81618464628994
 11
-15.00000000001391
 21
94.55830274874333
 72
1
 10
-15.00000000001391
 20
94.55830274874333
 11
-15.00000000001391
 21
70.00690921460729
 72
1
 10
-15.00000000001391
 20
70.00690921460729
 11
-14.53543458298968
 21
69.89456774096995
 72
1
 10
-14.53543458298968
 20
69.89456774096995
 11
-14.17679452786475
 21
69.57862637892747
 72
1
 10
-14.17679452786475
 20
69.57862637892747
 11
-14.00677352787973
 21
69.13193353932037
 72
1
 10
-14.00677352787973
 20
69.13193353932037
 11
-14.06457429957662
 21
68.65748575064
 72
1
 10
-14.06457429957662
 20
68.65748575064
 11
-14.33686938770556
 21
68.2646791590829
 72
1
 10
-14.33686938770556
 20
68.2646791590829
 11
-14.76087415299117
 21
68.04408543204627
 72
1
 10
-14.76087415299117
 20
68.04408543204627
 11
-15.00000000001391
 21
68.01621310892793
 72
1
 10
-15.00000000001391
 20
68.01621310892793
 11
-15.02810541953603
 21
60.65554112209748
 72
1
 10
-15.02810541953603
 20
60.65554112209748
 11
-15.24355860396507
 21
60.23689613756258
 72
1
 10
-15.24355860396507
 20
60.23689613756258
 11
-15.62670251420583
 21
59.96324591958192
 72
1
 10
-15.62670251420583
 20
59.96324591958192
 11
-99.86205006172982
 21
26.10015886759303
 72
1
 10
-99.86205006172982
 20
26.10015886759303
 11
-100.1055812422009
 21
26.09618739003185
 72
1
 10
-100.1055812422009
 20
26.09618739003185
 11
-100.3428490046287
 21
26.15120754459828
 72
1
 10
-100.3428490046287
 20
26.15120754459828
 11
-100.5597778640768
 21
26.26195535918594
 72
1
 10
-100.5597778640768
 20
26.26195535918594
 11
-100.7434989045798
 21
26.42186091810478
 72
1
 10
-100.7434989045798
 20
26.42186091810478
 11
-100.8831132045502
 21
26.62143811053983
 72
1
 10
-100.8831132045502
 20
26.62143811053983
 11
-100.9703383957678
 21
26.84884737709371
 72
1
 10
-100.9703383957678
 20
26.84884737709371
 11
-101.0000000000117
 21
27.09059807043353
 72
1
 10
-101.0000000000117
 20
27.09059807043353
 11
-101.0340741737252
 21
29.25881904510442
 72
1
 10
-101.0340741737252
 20
29.25881904510442
 11
-101.1339745962267
 21
29.50000000000196
 72
1
 10
-101.1339745962267
 20
29.50000000000196
 11
-101.2928932188254
 21
29.70710678118813
 72
1
 10
-101.2928932188254
 20
29.70710678118813
 11
-101.5000000000116
 21
29.86602540378682
 72
1
 10
-101.5000000000116
 20
29.86602540378682
 11
-101.7411809549112
 21
29.96592582629048
 72
1
 10
-101.7411809549112
 20
29.96592582629048
 11
-102.0000000000158
 21
30.00000000000185
 72
1
 10
-102.0000000000158
 20
30.00000000000185
 11
-105.2588190451153
 21
29.96592582629048
 72
1
 10
-105.2588190451153
 20
29.96592582629048
 11
-105.5000000000106
 21
29.86602540378682
 72
1
 10
-105.5000000000106
 20
29.86602540378682
 11
-105.7071067811968
 21
29.70710678118813
 72
1
 10
-105.7071067811968
 20
29.70710678118813
 11
-105.8660254037999
 21
29.50000000000196
 72
1
 10
-105.8660254037999
 20
29.50000000000196
 11
-105.9659258263013
 21
29.25881904510442
 72
1
 10
-105.9659258263013
 20
29.25881904510442
 11
-106.0000000000149
 21
29.00000000000207
 72
1
 10
-106.0000000000149
 20
29.00000000000207
 11
-106.0000000000149
 21
13.00000000000137
 72
1
 10
-106.0000000000149
 20
13.00000000000137
 11
-106.1022225211468
 21
12.22354286469431
 72
1
 10
-106.1022225211468
 20
12.22354286469431
 11
-106.4019237886599
 21
11.50000000000171
 72
1
 10
-106.4019237886599
 20
11.50000000000171
 11
-106.8786796564517
 21
10.87867965644321
 72
1
 10
-106.8786796564517
 20
10.87867965644321
 11
-107.5000000000145
 21
10.40192378864929
 72
1
 10
-107.5000000000145
 20
10.40192378864929
 11
-108.2235428647093
 21
10.10222252113399
 72
1
 10
-108.2235428647093
 20
10.10222252113399
 11
-109.0000000000142
 21
10.00000000000206
 72
1
 10
-109.0000000000142
 20
10.00000000000206
 11
-122.2588190451157
 21
10.03407417371342
 72
1
 10
-122.2588190451157
 20
10.03407417371342
 11
-122.5000000000154
 21
10.13397459621708
 72
1
 10
-122.5000000000154
 20
10.13397459621708
 11
-122.7071067812016
 21
10.29289321881577
 72
1
 10
-122.7071067812016
 20
10.29289321881577
 11
-122.866025403796
 21
10.50000000000194
 72
1
 10
-122.866025403796
 20
10.50000000000194
 11
-122.9659258263018
 21
10.74118095489947
 72
1
 10
-122.9659258263018
 20
10.74118095489947
 11
-123.000000000011
 21
11.00000000000183
 72
1
 10
-123.000000000011
 20
11.00000000000183
 11
-123.0340741737245
 21
17.25881904510498
 72
1
 10
-123.0340741737245
 20
17.25881904510498
 11
-123.133974596226
 21
17.50000000000252
 72
1
 10
-123.133974596226
 20
17.50000000000252
 11
-123.2928932188247
 21
17.70710678118868
 72
1
 10
-123.2928932188247
 20
17.70710678118868
 11
-123.5000000000152
 21
17.86602540378521
 72
1
 10
-123.5000000000152
 20
17.86602540378521
 11
-123.7411809549106
 21
17.96592582629104
 72
1
 10
-123.7411809549106
 20
17.96592582629104
 11
-124.0000000000151
 21
18.0000000000024
 72
1
 10
-124.0000000000151
 20
18.0000000000024
 11
-127.2588190451189
 21
17.96592582629104
 72
1
 10
-127.2588190451189
 20
17.96592582629104
 11
-127.5000000000143
 21
17.86602540378521
 72
1
 10
-127.5000000000143
 20
17.86602540378521
 11
-127.7071067812005
 21
17.70710678118868
 72
1
 10
-127.7071067812005
 20
17.70710678118868
 11
-127.8660254037992
 21
17.50000000000252
 72
1
 10
-127.8660254037992
 20
17.50000000000252
 11
-127.9659258263007
 21
17.25881904510498
 72
1
 10
-127.9659258263007
 20
17.25881904510498
 11
-128.0000000000142
 21
17.00000000000263
 72
1
 10
-128.0000000000142
 20
17.00000000000263
 11
-128.0000000000142
 21
13.00000000000137
 72
1
 10
-128.0000000000142
 20
13.00000000000137
 11
-128.1022225211461
 21
12.22354286469431
 72
1
 10
-128.1022225211461
 20
12.22354286469431
 11
-128.4019237886592
 21
11.50000000000171
 72
1
 10
-128.4019237886592
 20
11.50000000000171
 11
-128.8786796564554
 21
10.87867965644321
 72
1
 10
-128.8786796564554
 20
10.87867965644321
 11
-129.5000000000138
 21
10.40192378864929
 72
1
 10
-129.5000000000138
 20
10.40192378864929
 11
-130.2235428647043
 21
10.10222252113399
 72
1
 10
-130.2235428647043
 20
10.10222252113399
 11
-131.0000000000135
 21
10.00000000000206
 72
1
 10
-131.0000000000135
 20
10.00000000000206
 11
-142.2588190451155
 21
10.03407417371342
 72
1
 10
-142.2588190451155
 20
10.03407417371342
 11
-142.5000000000152
 21
10.13397459621708
 72
1
 10
-142.5000000000152
 20
10.13397459621708
 11
-142.7071067812014
 21
10.29289321881577
 72
1
 10
-142.7071067812014
 20
10.29289321881577
 11
-142.8660254038001
 21
10.50000000000194
 72
1
 10
-142.8660254038001
 20
10.50000000000194
 11
-142.9659258263016
 21
10.74118095489947
 72
1
 10
-142.9659258263016
 20
10.74118095489947
 11
-143.0000000000151
 21
11.00000000000183
 72
1
 10
-143.0000000000151
 20
11.00000000000183
 11
-143.0000000000151
 21
17.20000000000042
 72
1
 10
-143.0000000000151
 20
17.20000000000042
 11
-150.2000000000135
 21
17.20000000000042
 72
1
 10
-150.2000000000135
 20
17.20000000000042
 11
-150.2000000000135
 21
17.00000000000263
 72
1
 10
-150.2000000000135
 20
17.00000000000263
 11
-150.2000000000135
 21
2.1672e-12
 97
0
 92
1
 93
25
 72
1
 10
-18.00000000001323
 20
8.000000000002514
 11
-97.0000000000126
 21
8.000000000002514
 72
1
 10
-97.0000000000126
 20
8.000000000002514
 11
-97.77645713532182
 21
8.102222521134445
 72
1
 10
-97.77645713532182
 20
8.102222521134445
 11
-98.50000000001226
 21
8.401923788649748
 72
1
 10
-98.50000000001226
 20
8.401923788649748
 11
-99.1213203435751
 21
8.878679656441506
 72
1
 10
-99.1213203435751
 20
8.878679656441506
 11
-99.59807621136684
 21
9.500000000002172
 72
1
 10
-99.59807621136684
 20
9.500000000002172
 11
-99.89777747887997
 21
10.22354286469477
 72
1
 10
-99.89777747887997
 20
10.22354286469477
 11
-100.0000000000119
 21
11.00000000000183
 72
1
 10
-100.0000000000119
 20
11.00000000000183
 11
-99.9718945804898
 21
17.75396795408077
 72
1
 10
-99.9718945804898
 20
17.75396795408077
 11
-99.75644139606077
 21
18.17261293861351
 72
1
 10
-99.75644139606077
 20
18.17261293861351
 11
-99.37329748582
 21
18.44626315659634
 72
1
 10
-99.37329748582
 20
18.44626315659634
 11
-16.13794993830012
 21
51.90696497592946
 72
1
 10
-16.13794993830012
 20
51.90696497592946
 11
-15.89441875782473
 21
51.91093645348848
 72
1
 10
-15.89441875782473
 20
51.91093645348848
 11
-15.65715099539689
 21
51.85591629892638
 72
1
 10
-15.65715099539689
 20
51.85591629892638
 11
-15.44022213594879
 21
51.74516848433657
 72
1
 10
-15.44022213594879
 20
51.74516848433657
 11
-15.25650109544575
 21
51.58526292541772
 72
1
 10
-15.25650109544575
 20
51.58526292541772
 11
-15.1168867954754
 21
51.38568573298266
 72
1
 10
-15.1168867954754
 20
51.38568573298266
 11
-15.0296616042621
 21
51.15827646642663
 72
1
 10
-15.0296616042621
 20
51.15827646642663
 11
-15.00000000001391
 21
50.91652577308897
 72
1
 10
-15.00000000001391
 20
50.91652577308897
 11
-15.00000000001391
 21
11.00000000000183
 72
1
 10
-15.00000000001391
 20
11.00000000000183
 11
-15.10222252114585
 21
10.22354286469477
 72
1
 10
-15.10222252114585
 20
10.22354286469477
 11
-15.40192378866332
 21
9.500000000002172
 72
1
 10
-15.40192378866332
 20
9.500000000002172
 11
-15.87867965645507
 21
8.878679656441506
 72
1
 10
-15.87867965645507
 20
8.878679656441506
 11
-16.50000000001357
 21
8.401923788649748
 72
1
 10
-16.50000000001357
 20
8.401923788649748
 11
-17.22354286470401
 21
8.102222521134445
 72
1
 10
-17.22354286470401
 20
8.102222521134445
 11
-18.00000000001323
 21
8.000000000002514
 97
0
 75
0
 76
2
 52
0.0
 41
1.0
 77
0
 78
1
 53
45.0
 43
10990.418
 44
-1540.042
 45
-1.767766952966368
 46
1.767766952966368
 79
0
 98
1
 10
0.0
 20
0.0
  0
LINE
  5
34
330
2F
100
AcDbEntity
  8
A-DETL-GENF
370
25
100
AcDbLine
 10
-2.000000000000188
 20
99.99999999999991
 30
0.0
 11
-9.584080628075068
 21
99.99999999999991
 31
0.0
  0
ARC
  5
35
330
2F
100
AcDbEntity
  8
A-DETL-GENF
370
25
100
AcDbCircle
 10
-9.584080628075075
 20
99.00000000000016
 30
0.0
 40
0.9999999999998916
100
AcDbArc
 50
89.9999999999992
 51
135.1667445751793
  0
LINE
  5
36
330
2F
100
AcDbEntity
  8
A-DETL-GENF
370
25
100
AcDbLine
 10
-10.29324226368036
 20
99.70504593792568
 30
0.0
 11
-14.7091616356055
 21
95.26334868666596
 31
0.0
  0
ARC
  5
37
330
2F
100
AcDbEntity
  8
A-DETL-GENF
370
25
100
AcDbCircle
 10
-14.00000000000004
 20
94.55830274874037
 30
0.0
 40
1.000000000000101
100
AcDbArc
 50
135.1667445751818
 51
179.9999999999992
  0
LINE
  5
38
330
2F
100
AcDbEntity
  8
A-DETL-GENF
370
25
100
AcDbLine
 10
-15.00000000000014
 20
94.55830274874037
 30
0.0
 11
-15.00000000000014
 21
70.0069092146068
 31
0.0
  0
ARC
  5
39
330
2F
100
AcDbEntity
  8
A-DETL-GENF
370
25
100
AcDbCircle
 10
-14.9948296847602
 20
69.01156116176617
 30
0.0
 40
0.9953614812987893
100
AcDbArc
 50
269.7023809141143
 51
90.29761908588644
  0
LINE
  5
3A
330
2F
100
AcDbEntity
  8
A-DETL-GENF
370
25
100
AcDbLine
 10
-15.00000000000014
 20
68.01621310892554
 30
0.0
 11
-15.00000000000014
 21
60.89095761352822
 31
0.0
  0
ARC
  5
3B
330
2F
100
AcDbEntity
  8
A-DETL-GENF
370
25
100
AcDbCircle
 10
-16.00000000000011
 20
60.89095761352822
 30
0.0
 40
0.999999999999952
100
AcDbArc
 50
291.9191260893299
 51
1.1196e-12
  0
LINE
  5
3C
330
2F
100
AcDbEntity
  8
A-DETL-GENF
370
25
100
AcDbLine
 10
-15.62670251419275
 20
59.96324591957904
 30
0.0
 11
-99.62670251419281
 21
26.16288637648259
 31
0.0
  0
ARC
  5
3D
330
2F
100
AcDbEntity
  8
A-DETL-GENF
370
25
100
AcDbCircle
 10
-100.0000000000001
 20
27.09059807043174
 30
0.0
 40
0.999999999999933
100
AcDbArc
 50
180.0
 51
291.9191260893289
  0
LINE
  5
3E
330
2F
100
AcDbEntity
  8
A-DETL-GENF
370
25
100
AcDbLine
 10
-101.0000000000001
 20
27.09059807043175
 30
0.0
 11
-101.0000000000001
 21
29.00000000000002
 31
0.0
  0
ARC
  5
3F
330
2F
100
AcDbEntity
  8
A-DETL-GENF
370
25
100
AcDbCircle
 10
-102.0000000000001
 20
29.00000000000002
 30
0.0
 40
1.000000000000014
100
AcDbArc
 50
0.0
 51
90.0
  0
LINE
  5
40
330
2F
100
AcDbEntity
  8
A-DETL-GENF
370
25
100
AcDbLine
 10
-102.0000000000001
 20
29.99999999999992
 30
0.0
 11
-105.0000000000001
 21
29.99999999999992
 31
0.0
  0
ARC
  5
41
330
2F
100
AcDbEntity
  8
A-DETL-GENF
370
25
100
AcDbCircle
 10
-105.0000000000001
 20
29.00000000000002
 30
0.0
 40
1.0
100
AcDbArc
 50
90.0
 51
179.9999999999996
  0
LINE
  5
42
330
2F
100
AcDbEntity
  8
A-DETL-GENF
370
25
100
AcDbLine
 10
-106.0000000000001
 20
29.00000000000002
 30
0.0
 11
-106.0000000000001
 21
13.0
 31
0.0
  0
ARC
  5
43
330
2F
100
AcDbEntity
  8
A-DETL-GENF
370
25
100
AcDbCircle
 10
-109.0000000000001
 20
13.0
 30
0.0
 40
3.000000000000004
100
AcDbArc
 50
270.0000000000002
 51
3.053e-13
  0
LINE
  5
44
330
2F
100
AcDbEntity
  8
A-DETL-GENF
370
25
100
AcDbLine
 10
-109.0000000000001
 20
9.999999999999892
 30
0.0
 11
-122.0000000000001
 21
9.999999999999892
 31
0.0
  0
ARC
  5
45
330
2F
100
AcDbEntity
  8
A-DETL-GENF
370
25
100
AcDbCircle
 10
-122.0000000000001
 20
11.0
 30
0.0
 40
0.9999999999999538
100
AcDbArc
 50
180.0000000000002
 51
270.0000000000009
  0
LINE
  5
46
330
2F
100
AcDbEntity
  8
A-DETL-GENF
370
25
100
AcDbLine
 10
-123.0000000000001
 20
11.00000000000002
 30
0.0
 11
-123.0000000000001
 21
17.00000000000001
 31
0.0
  0
ARC
  5
47
330
2F
100
AcDbEntity
  8
A-DETL-GENF
370
25
100
AcDbCircle
 10
-124.0000000000001
 20
16.99999999999999
 30
0.0
 40
0.9999999999999982
100
AcDbArc
 50
1.3263e-12
 51
89.99999999999969
  0
LINE
  5
48
330
2F
100
AcDbEntity
  8
A-DETL-GENF
370
25
100
AcDbLine
 10
-124.0000000000001
 20
17.9999999999999
 30
0.0
 11
-127.0000000000001
 21
17.9999999999999
 31
0.0
  0
ARC
  5
49
330
2F
100
AcDbEntity
  8
A-DETL-GENF
370
25
100
AcDbCircle
 10
-127.0000000000001
 20
17.00000000000001
 30
0.0
 40
1.000000000000014
100
AcDbArc
 50
90.0
 51
180.0
  0
LINE
  5
4A
330
2F
100
AcDbEntity
  8
A-DETL-GENF
370
25
100
AcDbLine
 10
-128.0000000000001
 20
17.00000000000001
 30
0.0
 11
-128.0000000000001
 21
13.0
 31
0.0
  0
ARC
  5
4B
330
2F
100
AcDbEntity
  8
A-DETL-GENF
370
25
100
AcDbCircle
 10
-131.0000000000001
 20
13.0
 30
0.0
 40
3.00000000000001
100
AcDbArc
 50
270.0000000000003
 51
1.59e-13
  0
LINE
  5
4C
330
2F
100
AcDbEntity
  8
A-DETL-GENF
370
25
100
AcDbLine
 10
-131.0000000000001
 20
9.999999999999892
 30
0.0
 11
-142.0000000000001
 21
9.999999999999892
 31
0.0
  0
ARC
  5
4D
330
2F
100
AcDbEntity
  8
A-DETL-GENF
370
25
100
AcDbCircle
 10
-142.0000000000001
 20
11.00000000000002
 30
0.0
 40
1.000000000000014
100
AcDbArc
 50
180.0000000000009
 51
269.9999999999997
  0
LINE
  5
4E
330
2F
100
AcDbEntity
  8
A-DETL-GENF
370
25
100
AcDbLine
 10
-143.0000000000001
 20
11.00000000000002
 30
0.0
 11
-143.0000000000001
 21
17.19999999999994
 31
0.0
  0
LINE
  5
4F
330
2F
100
AcDbEntity
  8
A-DETL-GENF
370
25
100
AcDbLine
 10
-150.2000000000001
 20
-1.015e-13
 30
0.0
 11
-2.00000000000012
 21
-1.015e-13
 31
0.0
  0
ARC
  5
50
330
2F
100
AcDbEntity
  8
A-DETL-GENF
370
25
100
AcDbCircle
 10
-2.000000000000127
 20
0.9999999999999079
 30
0.0
 40
0.9999999999999809
100
AcDbArc
 50
269.9999999999996
 51
4.45e-14
  0
LINE
  5
51
330
2F
100
AcDbEntity
  8
A-DETL-GENF
370
25
100
AcDbLine
 10
-1.000000000000144
 20
0.9999999999999079
 30
0.0
 11
-1.000000000000144
 21
4.000000000000021
 31
0.0
  0
ARC
  5
52
330
2F
100
AcDbEntity
  8
A-DETL-GENF
370
25
100
AcDbCircle
 10
-2.000000000000123
 20
4.000000000000021
 30
0.0
 40
1.000000000000013
100
AcDbArc
 50
359.9999999999996
 51
89.99999999999955
  0
LINE
  5
53
330
2F
100
AcDbEntity
  8
A-DETL-GENF
370
25
100
AcDbLine
 10
-2.00000000000012
 20
4.999999999999912
 30
0.0
 11
-3.999999999999666
 21
4.999999999999912
 31
0.0
  0
ARC
  5
54
330
2F
100
AcDbEntity
  8
A-DETL-GENF
370
25
100
AcDbCircle
 10
-3.999999999999661
 20
6.000000000000039
 30
0.0
 40
1.000000000000048
100
AcDbArc
 50
180.0000000000009
 51
269.9999999999998
  0
LINE
  5
55
330
2F
100
AcDbEntity
  8
A-DETL-GENF
370
25
100
AcDbLine
 10
-5.00000000000025
 20
6.000000000000023
 30
0.0
 11
-5.00000000000025
 21
60.00000000000001
 31
0.0
  0
ARC
  5
56
330
2F
100
AcDbEntity
  8
A-DETL-GENF
370
25
100
AcDbCircle
 10
-4.000000000000277
 20
60.00000000000001
 30
0.0
 40
1.000000000000005
100
AcDbArc
 50
90.00000000000017
 51
180.0000000000005
  0
LINE
  5
57
330
2F
100
AcDbEntity
  8
A-DETL-GENF
370
25
100
AcDbLine
 10
-4.000000000000275
 20
60.9999999999999
 30
0.0
 11
-2.00000000000012
 21
60.9999999999999
 31
0.0
  0
ARC
  5
58
330
2F
100
AcDbEntity
  8
A-DETL-GENF
370
25
100
AcDbCircle
 10
-2.000000000000121
 20
61.99999999999992
 30
0.0
 40
0.9999999999999767
100
AcDbArc
 50
269.9999999999993
 51
359.9999999999992
  0
LINE
  5
59
330
2F
100
AcDbEntity
  8
A-DETL-GENF
370
25
100
AcDbLine
 10
-1.000000000000144
 20
61.99999999999992
 30
0.0
 11
-1.000000000000144
 21
65.00000000000003
 31
0.0
  0
ARC
  5
5A
330
2F
100
AcDbEntity
  8
A-DETL-GENF
370
25
100
AcDbCircle
 10
-2.000000000000122
 20
65.00000000000003
 30
0.0
 40
0.9999999999999706
100
AcDbArc
 50
359.999999999999
 51
89.9999999999994
  0
LINE
  5
5B
330
2F
100
AcDbEntity
  8
A-DETL-GENF
370
25
100
AcDbLine
 10
-2.00000000000012
 20
65.99999999999989
 30
0.0
 11
-4.000000000000139
 21
65.99999999999989
 31
0.0
  0
ARC
  5
5C
330
2F
100
AcDbEntity
  8
A-DETL-GENF
370
25
100
AcDbCircle
 10
-4.000000000000134
 20
67.00000000000001
 30
0.0
 40
0.9999999999999813
100
AcDbArc
 50
180.0000000000009
 51
269.9999999999997
  0
LINE
  5
5D
330
2F
100
AcDbEntity
  8
A-DETL-GENF
370
25
100
AcDbLine
 10
-5.00000000000025
 20
67.0
 30
0.0
 11
-5.00000000000025
 21
70.99999999999994
 31
0.0
  0
ARC
  5
5E
330
2F
100
AcDbEntity
  8
A-DETL-GENF
370
25
100
AcDbCircle
 10
-4.000000000000204
 20
70.99999999999994
 30
0.0
 40
1.000000000000076
100
AcDbArc
 50
90.00000000000028
 51
180.0000000000003
  0
LINE
  5
5F
330
2F
100
AcDbEntity
  8
A-DETL-GENF
370
25
100
AcDbLine
 10
-4.000000000000206
 20
71.99999999999991
 30
0.0
 11
-2.00000000000012
 21
71.99999999999991
 31
0.0
  0
ARC
  5
60
330
2F
100
AcDbEntity
  8
A-DETL-GENF
370
25
100
AcDbCircle
 10
-2.000000000000121
 20
72.99999999999991
 30
0.0
 40
0.9999999999999784
100
AcDbArc
 50
269.9999999999995
 51
359.9999999999995
  0
LINE
  5
61
330
2F
100
AcDbEntity
  8
A-DETL-GENF
370
25
100
AcDbLine
 10
-1.000000000000144
 20
72.99999999999991
 30
0.0
 11
-1.000000000000144
 21
76.00000000000003
 31
0.0
  0
ARC
  5
62
330
2F
100
AcDbEntity
  8
A-DETL-GENF
370
25
100
AcDbCircle
 10
-2.000000000000119
 20
76.00000000000003
 30
0.0
 40
0.9999999999999785
100
AcDbArc
 50
359.9999999999994
 51
89.99999999999994
  0
LINE
  5
63
330
2F
100
AcDbEntity
  8
A-DETL-GENF
370
25
100
AcDbLine
 10
-2.00000000000012
 20
76.99999999999989
 30
0.0
 11
-4.000000000000139
 21
76.99999999999989
 31
0.0
  0
ARC
  5
64
330
2F
100
AcDbEntity
  8
A-DETL-GENF
370
25
100
AcDbCircle
 10
-4.00000000000015
 20
78.0
 30
0.0
 40
0.9999999999999571
100
AcDbArc
 50
180.0000000000001
 51
270.0000000000005
  0
LINE
  5
65
330
2F
100
AcDbEntity
  8
A-DETL-GENF
370
25
100
AcDbLine
 10
-5.000000000000115
 20
78.00000000000001
 30
0.0
 11
-5.000000000000115
 21
94.00000000000003
 31
0.0
  0
ARC
  5
66
330
2F
100
AcDbEntity
  8
A-DETL-GENF
370
25
100
AcDbCircle
 10
-4.00000000000014
 20
94.00000000000003
 30
0.0
 40
0.9999999999999749
100
AcDbArc
 50
90.00000000000026
 51
180.0
  0
LINE
  5
67
330
2F
100
AcDbEntity
  8
A-DETL-GENF
370
25
100
AcDbLine
 10
-4.000000000000139
 20
94.99999999999989
 30
0.0
 11
-2.00000000000012
 21
94.99999999999989
 31
0.0
  0
ARC
  5
68
330
2F
100
AcDbEntity
  8
A-DETL-GENF
370
25
100
AcDbCircle
 10
-2.000000000000124
 20
95.9999999999999
 30
0.0
 40
0.9999999999999786
100
AcDbArc
 50
269.9999999999995
 51
359.9999999999996
  0
LINE
  5
69
330
2F
100
AcDbEntity
  8
A-DETL-GENF
370
25
100
AcDbLine
 10
-1.000000000000144
 20
95.9999999999999
 30
0.0
 11
-1.000000000000144
 21
99.00000000000001
 31
0.0
  0
ARC
  5
6A
330
2F
100
AcDbEntity
  8
A-DETL-GENF
370
25
100
AcDbCircle
 10
-2.00000000000019
 20
99.00000000000001
 30
0.0
 40
1.000000000000014
100
AcDbArc
 50
359.9999999999996
 51
89.99999999999955
  0
LINE
  5
6B
330
2F
100
AcDbEntity
  8
A-DETL-GENF
370
25
100
AcDbLine
 10
-99.37329748580758
 20
18.4462631565942
 30
0.0
 11
-16.37329748580735
 21
51.84423746703476
 31
0.0
  0
ARC
  5
6C
330
2F
100
AcDbEntity
  8
A-DETL-GENF
370
25
100
AcDbCircle
 10
-16.00000000000005
 20
50.91652577308572
 30
0.0
 40
0.9999999999999072
100
AcDbArc
 50
4.071e-13
 51
111.9191260893294
  0
LINE
  5
6D
330
2F
100
AcDbEntity
  8
A-DETL-GENF
370
25
100
AcDbLine
 10
-15.00000000000014
 20
50.91652577308572
 30
0.0
 11
-15.00000000000014
 21
11.00000000000002
 31
0.0
  0
ARC
  5
6E
330
2F
100
AcDbEntity
  8
A-DETL-GENF
370
25
100
AcDbCircle
 10
-18.00000000000014
 20
11.00000000000002
 30
0.0
 40
2.99999999999999
100
AcDbArc
 50
270.0
 51
3.689e-13
  0
LINE
  5
6F
330
2F
100
AcDbEntity
  8
A-DETL-GENF
370
25
100
AcDbLine
 10
-18.00000000000014
 20
7.999999999999906
 30
0.0
 11
-97.00000000000016
 21
7.999999999999906
 31
0.0
  0
ARC
  5
70
330
2F
100
AcDbEntity
  8
A-DETL-GENF
370
25
100
AcDbCircle
 10
-97.00000000000016
 20
11.00000000000002
 30
0.0
 40
3.0
100
AcDbArc
 50
180.0000000000006
 51
270.0
  0
LINE
  5
71
330
2F
100
AcDbEntity
  8
A-DETL-GENF
370
25
100
AcDbLine
 10
-100.0000000000002
 20
11.0
 30
0.0
 11
-100.0000000000002
 21
17.51855146264525
 31
0.0
  0
ARC
  5
72
330
2F
100
AcDbEntity
  8
A-DETL-GENF
370
25
100
AcDbCircle
 10
-99.00000000000033
 20
17.51855146264525
 30
0.0
 40
0.9999999999999857
100
AcDbArc
 50
111.9191260893297
 51
180.0
  0
LINE
  5
73
330
2F
100
AcDbEntity
  8
A-DETL-GENF
100
AcDbLine
 10
-143.0000000000001
 20
17.9999999999999
 30
0.0
 11
-150.0000000000001
 21
17.99999999999987
 31
0.0
  0
ARC
  5
74
330
2F
100
AcDbEntity
  8
A-DETL-GENF
100
AcDbCircle
 10
-150.0000000000001
 20
17.0
 30
0.0
 40
0.9999999999999982
100
AcDbArc
 50
89.99999999999991
 51
179.9999999999997
  0
LINE
  5
75
330
2F
100
AcDbEntity
  8
A-DETL-GENF
100
AcDbLine
 10
-151.0000000000001
 20
17.00000000000001
 30
0.0
 11
-151.0000000000001
 21
-1.015e-13
 31
0.0
  0
LINE
  5
76
330
2F
100
AcDbEntity
  8
A-DETL-GENF
100
AcDbLine
 10
-151.0000000000001
 20
-1.015e-13
 30
0.0
 11
-150.2000000000001
 21
-1.015e-13
 31
0.0
  0
LINE
  5
77
330
2F
100
AcDbEntity
  8
A-DETL-GENF
100
AcDbLine
 10
-150.2000000000001
 20
-1.015e-13
 30
0.0
 11
-150.2000000000001
 21
17.19999999999994
 31
0.0
  0
LINE
  5
78
330
2F
100
AcDbEntity
  8
A-DETL-GENF
100
AcDbLine
 10
-150.2000000000001
 20
17.19999999999994
 30
0.0
 11
-143.0000000000001
 21
17.19999999999994
 31
0.0
  0
LINE
  5
79
330
2F
100
AcDbEntity
  8
A-DETL-GENF
100
AcDbLine
 10
-143.0000000000001
 20
17.19999999999994
 30
0.0
 11
-143.0000000000001
 21
17.9999999999999
 31
0.0
  0
LINE
  5
7A
330
2F
100
AcDbEntity
  8
A-DETL-GENF
  6
Streep 1_1
370
13
100
AcDbLine
 10
-20.99999999999995
 20
69.10841194677234
 30
0.0
 11
34.00000000000007
 21
69.10841194677215
 31
0.0
  0
LINE
  5
7B
330
2F
100
AcDbEntity
  8
A-DETL-GENF
100
AcDbLine
 10
-15.99999999999993
 20
73.88774536060964
 30
0.0
 11
-15.99999999999996
 21
64.32907853293499
 31
0.0
  0
ENDBLK
  5
31
330
2F
100
AcDbEntity
  8
0
100
AcDbBlockEnd
  0
ENDSEC
  0
SECTION
  2
ENTITIES
  0
INSERT
  5
7E
330
17
100
AcDbEntity
  8
0
100
AcDbBlockReference
  2
31 recystel stelkozijn - R2001-1524508-00_0 Basismaterialen
 10
0.0
 20
0.0
 30
0.0
  0
ENDSEC
  0
SECTION
  2
OBJECTS
  0
DICTIONARY
  5
A
330
0
100
AcDbDictionary
281
1
  3
ACAD_COLOR
350
B
  3
ACAD_GROUP
350
C
  3
ACAD_LAYOUT
350
D
  3
ACAD_MATERIAL
350
E
  3
ACAD_MLEADERSTYLE
350
F
  3
ACAD_MLINESTYLE
350
10
  3
ACAD_PLOTSETTINGS
350
11
  3
ACAD_PLOTSTYLENAME
350
12
  3
ACAD_SCALELIST
350
14
  3
ACAD_TABLESTYLE
350
15
  3
ACAD_VISUALSTYLE
350
16
  3
EZDXF_META
350
2D
  0
DICTIONARY
  5
B
330
A
100
AcDbDictionary
281
1
  0
DICTIONARY
  5
C
330
A
100
AcDbDictionary
281
1
  0
DICTIONARY
  5
D
330
A
100
AcDbDictionary
281
1
  3
Model
350
1A
  3
Layout1
350
1E
  0
DICTIONARY
  5
E
330
A
100
AcDbDictionary
281
1
  3
ByBlock
350
1F
  3
ByLayer
350
20
  3
Global
350
21
  0
DICTIONARY
  5
F
330
A
100
AcDbDictionary
281
1
  3
Standard
350
2C
  0
DICTIONARY
  5
10
330
A
100
AcDbDictionary
281
1
  3
Standard
350
22
  0
DICTIONARY
  5
11
330
A
100
AcDbDictionary
281
1
  0
ACDBDICTIONARYWDFLT
  5
12
330
A
100
AcDbDictionary
281
1
  3
Normal
350
13
100
AcDbDictionaryWithDefault
340
13
  0
ACDBPLACEHOLDER
  5
13
330
12
  0
DICTIONARY
  5
14
330
A
100
AcDbDictionary
281
1
  0
DICTIONARY
  5
15
330
A
100
AcDbDictionary
281
1
  0
DICTIONARY
  5
16
330
A
100
AcDbDictionary
281
1
  0
LAYOUT
  5
1A
330
D
100
AcDbPlotSettings
  1

  4
A3
  6

 40
7.5
 41
20.0
 42
7.5
 43
20.0
 44
420.0
 45
297.0
 46
0.0
 47
0.0
 48
0.0
 49
0.0
140
0.0
141
0.0
142
1.0
143
1.0
 70
1024
 72
1
 73
0
 74
5
  7

 75
16
 76
0
 77
2
 78
300
147
1.0
148
0.0
149
0.0
100
AcDbLayout
  1
Model
 70
1
 71
0
 10
0.0
 20
0.0
 11
420.0
 21
297.0
 12
0.0
 22
0.0
 32
0.0
 14
1e+20
 24
1e+20
 34
1e+20
 15
-1e+20
 25
-1e+20
 35
-1e+20
146
0.0
 13
0.0
 23
0.0
 33
0.0
 16
1.0
 26
0.0
 36
0.0
 17
0.0
 27
1.0
 37
0.0
 76
1
330
17
  0
LAYOUT
  5
1E
330
D
100
AcDbPlotSettings
  1

  4
A3
  6

 40
7.5
 41
20.0
 42
7.5
 43
20.0
 44
420.0
 45
297.0
 46
0.0
 47
0.0
 48
0.0
 49
0.0
140
0.0
141
0.0
142
1.0
143
1.0
 70
0
 72
1
 73
0
 74
5
  7

 75
16
 76
0
 77
2
 78
300
147
1.0
148
0.0
149
0.0
100
AcDbLayout
  1
Layout1
 70
1
 71
1
 10
0.0
 20
0.0
 11
420.0
 21
297.0
 12
0.0
 22
0.0
 32
0.0
 14
1e+20
 24
1e+20
 34
1e+20
 15
-1e+20
 25
-1e+20
 35
-1e+20
146
0.0
 13
0.0
 23
0.0
 33
0.0
 16
1.0
 26
0.0
 36
0.0
 17
0.0
 27
1.0
 37
0.0
 76
1
330
1B
  0
MATERIAL
  5
1F
102
{ACAD_REACTORS
330
E
102
}
330
E
100
AcDbMaterial
  1
ByBlock
  2

 70
0
 40
1.0
 71
1
 41
1.0
 91
-1023410177
 42
1.0
 72
1
  3

 73
1
 74
1
 75
1
 44
0.5
 73
0
 45
1.0
 46
1.0
 77
1
  4

 78
1
 79
1
170
1
 48
1.0
171
1
  6

172
1
173
1
174
1
140
1.0
141
1.0
175
1
  7

176
1
177
1
178
1
143
1.0
179
1
  8

270
1
271
1
272
1
145
1.0
146
1.0
273
1
  9

274
1
275
1
276
1
 42
1.0
 72
1
  3

 73
1
 74
1
 75
1
 94
63
  0
MATERIAL
  5
20
102
{ACAD_REACTORS
330
E
102
}
330
E
100
AcDbMaterial
  1
ByLayer
  2

 70
0
 40
1.0
 71
1
 41
1.0
 91
-1023410177
 42
1.0
 72
1
  3

 73
1
 74
1
 75
1
 44
0.5
 73
0
 45
1.0
 46
1.0
 77
1
  4

 78
1
 79
1
170
1
 48
1.0
171
1
  6

172
1
173
1
174
1
140
1.0
141
1.0
175
1
  7

176
1
177
1
178
1
143
1.0
179
1
  8

270
1
271
1
272
1
145
1.0
146
1.0
273
1
  9

274
1
275
1
276
1
 42
1.0
 72
1
  3

 73
1
 74
1
 75
1
 94
63
  0
MATERIAL
  5
21
102
{ACAD_REACTORS
330
E
102
}
330
E
100
AcDbMaterial
  1
Global
  2

 70
0
 40
1.0
 71
1
 41
1.0
 91
-1023410177
 42
1.0
 72
1
  3

 73
1
 74
1
 75
1
 44
0.5
 73
0
 45
1.0
 46
1.0
 77
1
  4

 78
1
 79
1
170
1
 48
1.0
171
1
  6

172
1
173
1
174
1
140
1.0
141
1.0
175
1
  7

176
1
177
1
178
1
143
1.0
179
1
  8

270
1
271
1
272
1
145
1.0
146
1.0
273
1
  9

274
1
275
1
276
1
 42
1.0
 72
1
  3

 73
1
 74
1
 75
1
 94
63
  0
MLINESTYLE
  5
22
102
{ACAD_REACTORS
330
10
102
}
330
10
100
AcDbMlineStyle
  2
Standard
 70
0
  3

 62
256
 51
90.0
 52
90.0
 71
2
 49
0.5
 62
256
  6
BYLAYER
 49
-0.5
 62
256
  6
BYLAYER
  0
MLEADERSTYLE
  5
2C
102
{ACAD_REACTORS
330
F
102
}
330
F
100
AcDbMLeaderStyle
179
2
170
2
171
1
172
0
 90
2
 40
0.0
 41
0.0
173
1
 91
-1056964608
 92
-2
290
1
 42
2.0
291
1
 43
8.0
  3
Standard
 44
4.0
300

342
29
174
1
175
1
176
0
178
1
 93
-1056964608
 45
4.0
292
0
297
0
 46
4.0
 94
-1056964608
 47
1.0
 49
1.0
140
1.0
294
1
141
0.0
177
0
142
1.0
295
0
296
0
143
3.75
271
0
272
9
273
9
  0
DICTIONARY
  5
2D
330
A
100
AcDbDictionary
280
1
281
1
  3
CREATED_BY_EZDXF
350
2E
  3
WRITTEN_BY_EZDXF
350
82
  0
DICTIONARYVAR
  5
2E
330
2D
100
DictionaryVariables
280
0
  1
1.4.3 @ 2026-02-13T04:54:11.872923+00:00
  0
DICTIONARYVAR
  5
82
330
2D
100
DictionaryVariables
280
0
  1
1.4.3 @ 2026-02-13T04:54:11.879087+00:00
  0
ENDSEC
  0
EOF
