  0
SECTION
  2
HEADER
  9
$ACADVER
  1
AC1032
  9
$ACADMAINTVER
 90
4
  9
$DWGCODEPAGE
  3
ANSI_1252
  9
$LASTSAVEDBY
  1
ezdxf
  9
$REQUIREDVERSIONS
160
0
  9
$INSBASE
 10
0.0
 20
0.0
 30
0.0
  9
$EXTMIN
 10
1e+20
 20
1e+20
 30
1e+20
  9
$EXTMAX
 10
-1e+20
 20
-1e+20
 30
-1e+20
  9
$LIMMIN
 10
0.0
 20
0.0
  9
$LIMMAX
 10
420.0
 20
297.0
  9
$ORTHOMODE
 70
0
  9
$REGENMODE
 70
1
  9
$FILLMODE
 70
1
  9
$QTEXTMODE
 70
0
  9
$MIRRTEXT
 70
1
  9
$LTSCALE
 40
1.0
  9
$ATTMODE
 70
1
  9
$TEXTSIZE
 40
2.5
  9
$TRACEWID
 40
1.0
  9
$TEXTSTYLE
  7
Standard
  9
$CLAYER
  8
0
  9
$CELTYPE
  6
ByLayer
  9
$CECOLOR
 62
256
  9
$CELTSCALE
 40
1.0
  9
$DISPSILH
 70
0
  9
$DIMSCALE
 40
1.0
  9
$DIMASZ
 40
2.5
  9
$DIMEXO
 40
0.625
  9
$DIMDLI
 40
3.75
  9
$DIMRND
 40
0.0
  9
$DIMDLE
 40
0.0
  9
$DIMEXE
 40
1.25
  9
$DIMTP
 40
0.0
  9
$DIMTM
 40
0.0
  9
$DIMTXT
 40
2.5
  9
$DIMCEN
 40
2.5
  9
$DIMTSZ
 40
0.0
  9
$DIMTOL
 70
0
  9
$DIMLIM
 70
0
  9
$DIMTIH
 70
0
  9
$DIMTOH
 70
0
  9
$DIMSE1
 70
0
  9
$DIMSE2
 70
0
  9
$DIMTAD
 70
1
  9
$DIMZIN
 70
8
  9
$DIMBLK
  1

  9
$DIMASO
 70
1
  9
$DIMSHO
 70
1
  9
$DIMPOST
  1

  9
$DIMAPOST
  1

  9
$DIMALT
 70
0
  9
$DIMALTD
 70
3
  9
$DIMALTF
 40
0.03937007874
  9
$DIMLFAC
 40
1.0
  9
$DIMTOFL
 70
1
  9
$DIMTVP
 40
0.0
  9
$DIMTIX
 70
0
  9
$DIMSOXD
 70
0
  9
$DIMSAH
 70
0
  9
$DIMBLK1
  1

  9
$DIMBLK2
  1

  9
$DIMSTYLE
  2
ISO-25
  9
$DIMCLRD
 70
0
  9
$DIMCLRE
 70
0
  9
$DIMCLRT
 70
0
  9
$DIMTFAC
 40
1.0
  9
$DIMGAP
 40
0.625
  9
$DIMJUST
 70
0
  9
$DIMSD1
 70
0
  9
$DIMSD2
 70
0
  9
$DIMTOLJ
 70
0
  9
$DIMTZIN
 70
8
  9
$DIMALTZ
 70
0
  9
$DIMALTTZ
 70
0
  9
$DIMUPT
 70
0
  9
$DIMDEC
 70
2
  9
$DIMTDEC
 70
2
  9
$DIMALTU
 70
2
  9
$DIMALTTD
 70
3
  9
$DIMTXSTY
  7
Standard
  9
$DIMAUNIT
 70
0
  9
$DIMADEC
 70
0
  9
$DIMALTRND
 40
0.0
  9
$DIMAZIN
 70
0
  9
$DIMDSEP
 70
44
  9
$DIMATFIT
 70
3
  9
$DIMFRAC
 70
0
  9
$DIMLDRBLK
  1

  9
$DIMLUNIT
 70
2
  9
$DIMLWD
 70
-2
  9
$DIMLWE
 70
-2
  9
$DIMTMOVE
 70
0
  9
$DIMFXL
 40
1.0
  9
$DIMFXLON
 70
0
  9
$DIMJOGANG
 40
0.785398163397
  9
$DIMTFILL
 70
0
  9
$DIMTFILLCLR
 70
0
  9
$DIMARCSYM
 70
0
  9
$DIMLTYPE
  6

  9
$DIMLTEX1
  6

  9
$DIMLTEX2
  6

  9
$DIMTXTDIRECTION
 70
0
  9
$LUNITS
 70
2
  9
$LUPREC
 70
4
  9
$SKETCHINC
 40
1.0
  9
$FILLETRAD
 40
10.0
  9
$AUNITS
 70
0
  9
$AUPREC
 70
2
  9
$MENU
  1
.
  9
$ELEVATION
 40
0.0
  9
$PELEVATION
 40
0.0
  9
$THICKNESS
 40
0.0
  9
$LIMCHECK
 70
0
  9
$CHAMFERA
 40
0.0
  9
$CHAMFERB
 40
0.0
  9
$CHAMFERC
 40
0.0
  9
$CHAMFERD
 40
0.0
  9
$SKPOLY
 70
0
  9
$TDCREATE
 40
2461085.245972222
  9
$TDUCREATE
 40
2458532.153996898
  9
$TDUPDATE
 40
2461085.245972222
  9
$TDUUPDATE
 40
2458532.1544311
  9
$TDINDWG
 40
0.0
  9
$TDUSRTIMER
 40
0.0
  9
$USRTIMER
 70
1
  9
$ANGBASE
 50
0.0
  9
$ANGDIR
 70
0
  9
$PDMODE
 70
0
  9
$PDSIZE
 40
0.0
  9
$PLINEWID
 40
0.0
  9
$SPLFRAME
 70
0
  9
$SPLINETYPE
 70
6
  9
$SPLINESEGS
 70
8
  9
$HANDSEED
  5
92
  9
$SURFTAB1
 70
6
  9
$SURFTAB2
 70
6
  9
$SURFTYPE
 70
6
  9
$SURFU
 70
6
  9
$SURFV
 70
6
  9
$UCSBASE
  2

  9
$UCSNAME
  2

  9
$UCSORG
 10
0.0
 20
0.0
 30
0.0
  9
$UCSXDIR
 10
1.0
 20
0.0
 30
0.0
  9
$UCSYDIR
 10
0.0
 20
1.0
 30
0.0
  9
$UCSORTHOREF
  2

  9
$UCSORTHOVIEW
 70
0
  9
$UCSORGTOP
 10
0.0
 20
0.0
 30
0.0
  9
$UCSORGBOTTOM
 10
0.0
 20
0.0
 30
0.0
  9
$UCSORGLEFT
 10
0.0
 20
0.0
 30
0.0
  9
$UCSORGRIGHT
 10
0.0
 20
0.0
 30
0.0
  9
$UCSORGFRONT
 10
0.0
 20
0.0
 30
0.0
  9
$UCSORGBACK
 10
0.0
 20
0.0
 30
0.0
  9
$PUCSBASE
  2

  9
$PUCSNAME
  2

  9
$PUCSORG
 10
0.0
 20
0.0
 30
0.0
  9
$PUCSXDIR
 10
1.0
 20
0.0
 30
0.0
  9
$PUCSYDIR
 10
0.0
 20
1.0
 30
0.0
  9
$PUCSORTHOREF
  2

  9
$PUCSORTHOVIEW
 70
0
  9
$PUCSORGTOP
 10
0.0
 20
0.0
 30
0.0
  9
$PUCSORGBOTTOM
 10
0.0
 20
0.0
 30
0.0
  9
$PUCSORGLEFT
 10
0.0
 20
0.0
 30
0.0
  9
$PUCSORGRIGHT
 10
0.0
 20
0.0
 30
0.0
  9
$PUCSORGFRONT
 10
0.0
 20
0.0
 30
0.0
  9
$PUCSORGBACK
 10
0.0
 20
0.0
 30
0.0
  9
$USERI1
 70
0
  9
$USERI2
 70
0
  9
$USERI3
 70
0
  9
$USERI4
 70
0
  9
$USERI5
 70
0
  9
$USERR1
 40
0.0
  9
$USERR2
 40
0.0
  9
$USERR3
 40
0.0
  9
$USERR4
 40
0.0
  9
$USERR5
 40
0.0
  9
$WORLDVIEW
 70
1
  9
$SHADEDGE
 70
3
  9
$SHADEDIF
 70
70
  9
$TILEMODE
 70
1
  9
$MAXACTVP
 70
64
  9
$PINSBASE
 10
0.0
 20
0.0
 30
0.0
  9
$PLIMCHECK
 70
0
  9
$PEXTMIN
 10
1e+20
 20
1e+20
 30
1e+20
  9
$PEXTMAX
 10
-1e+20
 20
-1e+20
 30
-1e+20
  9
$PLIMMIN
 10
0.0
 20
0.0
  9
$PLIMMAX
 10
420.0
 20
297.0
  9
$UNITMODE
 70
0
  9
$VISRETAIN
 70
1
  9
$PLINEGEN
 70
0
  9
$PSLTSCALE
 70
1
  9
$TREEDEPTH
 70
3020
  9
$CMLSTYLE
  2
Standard
  9
$CMLJUST
 70
0
  9
$CMLSCALE
 40
20.0
  9
$PROXYGRAPHICS
 70
1
  9
$MEASUREMENT
 70
1
  9
$CELWEIGHT
370
-1
  9
$ENDCAPS
280
0
  9
$JOINSTYLE
280
0
  9
$LWDISPLAY
290
0
  9
$INSUNITS
 70
6
  9
$HYPERLINKBASE
  1

  9
$STYLESHEET
  1

  9
$XEDIT
290
1
  9
$CEPSNTYPE
380
0
  9
$PSTYLEMODE
290
1
  9
$FINGERPRINTGUID
  2
{FEE95CC7-BC55-4756-83B6-AF5B632EFBAE}
  9
$VERSIONGUID
  2
{C5BAFB80-CC7D-458E-B3B7-5BB7DA04EBA1}
  9
$EXTNAMES
290
1
  9
$PSVPSCALE
 40
0.0
  9
$OLESTARTUP
290
0
  9
$SORTENTS
280
127
  9
$INDEXCTL
280
0
  9
$HIDETEXT
280
1
  9
$XCLIPFRAME
280
1
  9
$HALOGAP
280
0
  9
$OBSCOLOR
 70
257
  9
$OBSLTYPE
280
0
  9
$INTERSECTIONDISPLAY
280
0
  9
$INTERSECTIONCOLOR
 70
257
  9
$DIMASSOC
280
2
  9
$PROJECTNAME
  1

  9
$CAMERADISPLAY
290
0
  9
$LENSLENGTH
 40
50.0
  9
$CAMERAHEIGHT
 40
0.0
  9
$STEPSPERSEC
 40
24.0
  9
$STEPSIZE
 40
100.0
  9
$3DDWFPREC
 40
2.0
  9
$PSOLWIDTH
 40
0.005
  9
$PSOLHEIGHT
 40
0.08
  9
$LOFTANG1
 40
1.570796326795
  9
$LOFTANG2
 40
1.570796326795
  9
$LOFTMAG1
 40
0.0
  9
$LOFTMAG2
 40
0.0
  9
$LOFTPARAM
 70
7
  9
$LOFTNORMALS
280
1
  9
$LATITUDE
 40
37.795
  9
$LONGITUDE
 40
-122.394
  9
$NORTHDIRECTION
 40
0.0
  9
$TIMEZONE
 70
-8000
  9
$LIGHTGLYPHDISPLAY
280
1
  9
$TILEMODELIGHTSYNCH
280
1
  9
$CMATERIAL
347
20
  9
$SOLIDHIST
280
0
  9
$SHOWHIST
280
1
  9
$DWFFRAME
280
2
  9
$DGNFRAME
280
2
  9
$REALWORLDSCALE
290
1
  9
$INTERFERECOLOR
 62
256
  9
$CSHADOW
280
0
  9
$SHADOWPLANELOCATION
 40
0.0
  0
ENDSEC
  0
SECTION
  2
CLASSES
  0
CLASS
  1
ACDBDICTIONARYWDFLT
  2
AcDbDictionaryWithDefault
  3
ObjectDBX Classes
 90
0
 91
0
280
0
281
0
  0
CLASS
  1
SUN
  2
AcDbSun
  3
SCENEOE
 90
1153
 91
0
280
0
281
0
  0
CLASS
  1
VISUALSTYLE
  2
AcDbVisualStyle
  3
ObjectDBX Classes
 90
4095
 91
0
280
0
281
0
  0
CLASS
  1
MATERIAL
  2
AcDbMaterial
  3
ObjectDBX Classes
 90
1153
 91
0
280
0
281
0
  0
CLASS
  1
SCALE
  2
AcDbScale
  3
ObjectDBX Classes
 90
1153
 91
0
280
0
281
0
  0
CLASS
  1
TABLESTYLE
  2
AcDbTableStyle
  3
ObjectDBX Classes
 90
4095
 91
0
280
0
281
0
  0
CLASS
  1
MLEADERSTYLE
  2
AcDbMLeaderStyle
  3
ACDB_MLEADERSTYLE_CLASS
 90
4095
 91
0
280
0
281
0
  0
CLASS
  1
DICTIONARYVAR
  2
AcDbDictionaryVar
  3
ObjectDBX Classes
 90
0
 91
0
280
0
281
0
  0
CLASS
  1
CELLSTYLEMAP
  2
AcDbCellStyleMap
  3
ObjectDBX Classes
 90
1152
 91
0
280
0
281
0
  0
CLASS
  1
MENTALRAYRENDERSETTINGS
  2
AcDbMentalRayRenderSettings
  3
SCENEOE
 90
1024
 91
0
280
0
281
0
  0
CLASS
  1
ACDBDETAILVIEWSTYLE
  2
AcDbDetailViewStyle
  3
ObjectDBX Classes
 90
1025
 91
0
280
0
281
0
  0
CLASS
  1
ACDBSECTIONVIEWSTYLE
  2
AcDbSectionViewStyle
  3
ObjectDBX Classes
 90
1025
 91
0
280
0
281
0
  0
CLASS
  1
RASTERVARIABLES
  2
AcDbRasterVariables
  3
ISM
 90
0
 91
0
280
0
281
0
  0
CLASS
  1
LAYOUT
  2
AcDbLayout
  3
ObjectDBX Classes
 90
0
 91
0
280
0
281
0
  0
CLASS
  1
ACDBPLACEHOLDER
  2
AcDbPlaceHolder
  3
ObjectDBX Classes
 90
0
 91
0
280
0
281
0
  0
ENDSEC
  0
SECTION
  2
TABLES
  0
TABLE
  2
VPORT
  5
8
330
0
100
AcDbSymbolTable
 70
1
  0
VPORT
  5
23
330
8
100
AcDbSymbolTableRecord
100
AcDbViewportTableRecord
  2
*Active
 70
0
 10
0.0
 20
0.0
 11
1.0
 21
1.0
 12
0.0
 22
0.0
 13
0.0
 23
0.0
 14
0.5
 24
0.5
 15
0.5
 25
0.5
 16
0.0
 26
0.0
 36
1.0
 17
0.0
 27
0.0
 37
0.0
 40
1000.0
 41
1.34
 42
50.0
 43
0.0
 44
0.0
 50
0.0
 51
0.0
 71
0
 72
1000
 73
1
 74
3
 75
0
 76
0
 77
0
 78
0
281
0
 65
0
146
0.0
  0
ENDTAB
  0
TABLE
  2
LTYPE
  5
2
330
0
100
AcDbSymbolTable
 70
3
  0
LTYPE
  5
24
330
2
100
AcDbSymbolTableRecord
100
AcDbLinetypeTableRecord
  2
ByBlock
 70
0
  3

 72
65
 73
0
 40
0.0
  0
LTYPE
  5
25
330
2
100
AcDbSymbolTableRecord
100
AcDbLinetypeTableRecord
  2
ByLayer
 70
0
  3

 72
65
 73
0
 40
0.0
  0
LTYPE
  5
26
330
2
100
AcDbSymbolTableRecord
100
AcDbLinetypeTableRecord
  2
Continuous
 70
0
  3

 72
65
 73
0
 40
0.0
  0
ENDTAB
  0
TABLE
  2
LAYER
  5
1
330
0
100
AcDbSymbolTable
 70
3
  0
LAYER
  5
27
330
1
100
AcDbSymbolTableRecord
100
AcDbLayerTableRecord
  2
0
 70
0
 62
7
  6
Continuous
370
-3
390
13
347
21
  0
LAYER
  5
28
330
1
100
AcDbSymbolTableRecord
100
AcDbLayerTableRecord
  2
Defpoints
 70
0
 62
7
  6
Continuous
290
0
370
-3
390
13
347
21
  0
LAYER
  5
8C
330
1
100
AcDbSymbolTableRecord
100
AcDbLayerTableRecord
  2
A-DETL-GENF
 70
0
 62
92
  6
Continuous
370
18
390
13
347
21
348
0
  0
ENDTAB
  0
TABLE
  2
STYLE
  5
5
330
0
100
AcDbSymbolTable
 70
1
  0
STYLE
  5
29
330
5
100
AcDbSymbolTableRecord
100
AcDbTextStyleTableRecord
  2
Standard
 70
0
 40
0.0
 41
1.0
 50
0.0
 71
0
 42
2.5
  3
txt
  4

  0
ENDTAB
  0
TABLE
  2
VIEW
  5
7
330
0
100
AcDbSymbolTable
 70
0
  0
ENDTAB
  0
TABLE
  2
UCS
  5
6
330
0
100
AcDbSymbolTable
 70
0
  0
ENDTAB
  0
TABLE
  2
APPID
  5
3
330
0
100
AcDbSymbolTable
 70
3
  0
APPID
  5
2A
330
3
100
AcDbSymbolTableRecord
100
AcDbRegAppTableRecord
  2
ACAD
 70
0
  0
APPID
  5
8F
330
3
100
AcDbSymbolTableRecord
100
AcDbRegAppTableRecord
  2
HATCHBACKGROUNDCOLOR
 70
0
  0
APPID
  5
90
330
3
100
AcDbSymbolTableRecord
100
AcDbRegAppTableRecord
  2
EZDXF
 70
0
  0
ENDTAB
  0
TABLE
  2
DIMSTYLE
  5
4
330
0
100
AcDbSymbolTable
 70
1
100
AcDbDimStyleTable
  0
DIMSTYLE
105
2B
330
4
100
AcDbSymbolTableRecord
100
AcDbDimStyleTableRecord
  2
Standard
 70
0
 40
1.0
 41
2.5
 42
0.625
 43
3.75
 44
1.25
 45
0.0
 46
0.0
 47
0.0
 48
0.0
 49
2.5
140
2.5
141
2.5
142
0.0
143
0.03937007874
144
1.0
145
0.0
146
1.0
147
0.625
148
0.0
 69
0
 70
0
 71
0
 72
0
 73
0
 74
0
 75
0
 76
0
 77
1
 78
8
 79
3
170
0
171
3
172
1
173
0
174
0
175
0
176
0
177
0
178
0
179
2
271
2
272
2
273
2
274
3
275
0
276
0
277
2
278
44
279
0
280
0
281
0
282
0
283
0
284
8
285
0
286
0
288
0
289
3
290
0
371
-2
372
-2
  0
ENDTAB
  0
TABLE
  2
BLOCK_RECORD
  5
9
330
0
100
AcDbSymbolTable
 70
3
  0
BLOCK_RECORD
  5
17
330
9
100
AcDbSymbolTableRecord
100
AcDbBlockTableRecord
  2
*Model_Space
340
1A
 70
0
280
1
281
0
  0
BLOCK_RECORD
  5
1B
330
9
100
AcDbSymbolTableRecord
100
AcDbBlockTableRecord
  2
*Paper_Space
340
1E
 70
0
280
1
281
0
  0
BLOCK_RECORD
  5
2F
330
9
100
AcDbSymbolTableRecord
100
AcDbBlockTableRecord
  2
31 Solarlux p_04 - 31Solarlux p_04-4741231-00_0 Basismaterialen
340
0
 70
0
280
1
281
0
  0
ENDTAB
  0
ENDSEC
  0
SECTION
  2
BLOCKS
  0
BLOCK
  5
18
330
17
100
AcDbEntity
  8
0
100
AcDbBlockBegin
  2
*Model_Space
 70
0
 10
0.0
 20
0.0
 30
0.0
  3
*Model_Space
  1

  0
ENDBLK
  5
19
330
17
100
AcDbEntity
  8
0
100
AcDbBlockEnd
  0
BLOCK
  5
1C
330
1B
100
AcDbEntity
  8
0
100
AcDbBlockBegin
  2
*Paper_Space
 70
0
 10
0.0
 20
0.0
 30
0.0
  3
*Paper_Space
  1

  0
ENDBLK
  5
1D
330
1B
100
AcDbEntity
  8
0
100
AcDbBlockEnd
  0
BLOCK
  5
30
330
2F
100
AcDbEntity
  8
0
100
AcDbBlockBegin
  2
31 Solarlux p_04 - 31Solarlux p_04-4741231-00_0 Basismaterialen
 70
0
 10
0.0
 20
0.0
 30
0.0
  3
31 Solarlux p_04 - 31Solarlux p_04-4741231-00_0 Basismaterialen
  1

  0
HATCH
  5
32
330
2F
100
AcDbEntity
  8
A-DETL-GENF
100
AcDbHatch
 10
0.0
 20
0.0
 30
0.0
210
0.0
220
0.0
230
1.0
  2
SOLID
 70
1
 71
0
 91
2
 92
1
 93
90
 72
1
 10
-48.99999999999752
 20
-25.49999999999853
 11
-48.99999999999752
 21
-26.29999999999836
 72
1
 10
-48.99999999999752
 20
-26.29999999999836
 11
-37.99999999999569
 21
-26.29999999999836
 72
1
 10
-37.99999999999569
 20
-26.29999999999836
 11
-37.99999999999569
 21
-27.79999999999801
 72
1
 10
-37.99999999999569
 20
-27.79999999999801
 11
-39.99999999999524
 21
-28.04999999995897
 72
1
 10
-39.99999999999524
 20
-28.04999999995897
 11
-39.99999999999524
 21
-29.94999999992822
 72
1
 10
-39.99999999999524
 20
-29.94999999992822
 11
-37.99999999999569
 21
-30.19999999999747
 72
1
 10
-37.99999999999569
 20
-30.19999999999747
 11
-37.99999999999569
 21
-31.69999999999713
 72
1
 10
-37.99999999999569
 20
-31.69999999999713
 11
-45.3329371405877
 21
-31.73066675633974
 72
1
 10
-45.3329371405877
 20
-31.73066675633974
 11
-45.54999999999398
 21
-31.82057713659541
 72
1
 10
-45.54999999999398
 20
-31.82057713659541
 11
-45.73639610306195
 21
-31.96360389693121
 72
1
 10
-45.73639610306195
 20
-31.96360389693121
 11
-45.87942286339991
 21
-32.15000000000136
 72
1
 10
-45.87942286339991
 20
-32.15000000000136
 11
-45.96933324365559
 21
-32.36706285940545
 72
1
 10
-45.96933324365559
 20
-32.36706285940545
 11
-45.99999999999604
 21
-32.60000000000125
 72
1
 10
-45.99999999999604
 20
-32.60000000000125
 11
-45.96933324365559
 21
-32.83293714059272
 72
1
 10
-45.96933324365559
 20
-32.83293714059272
 11
-45.87942286339991
 21
-33.05000000000115
 72
1
 10
-45.87942286339991
 20
-33.05000000000115
 11
-45.73639610306195
 21
-33.23639610306697
 72
1
 10
-45.73639610306195
 20
-33.23639610306697
 11
-45.54999999999398
 21
-33.37942286340709
 72
1
 10
-45.54999999999398
 20
-33.37942286340709
 11
-45.3329371405877
 21
-33.46933324366277
 72
1
 10
-45.3329371405877
 20
-33.46933324366277
 11
-45.09999999999407
 21
-33.50000000000104
 72
1
 10
-45.09999999999407
 20
-33.50000000000104
 11
-24.99999999999432
 21
-33.49999999999672
 72
1
 10
-24.99999999999432
 20
-33.49999999999672
 11
-24.98296291313972
 21
-36.71882666835261
 72
1
 10
-24.98296291313972
 20
-36.71882666835261
 11
-24.85355339058529
 21
-36.94297053639338
 72
1
 10
-24.85355339058529
 20
-36.94297053639338
 11
-24.74999999999004
 21
-37.02242984769489
 72
1
 10
-24.74999999999004
 20
-37.02242984769489
 11
-24.37059047741618
 21
-37.07238005900628
 72
1
 10
-24.37059047741618
 20
-37.07238005900628
 11
-21.95724189744329
 21
-36.42572525590197
 72
1
 10
-21.95724189744329
 20
-36.42572525590197
 11
-23.64641016144753
 21
-33.50000000000104
 72
1
 10
-23.64641016144753
 20
-33.50000000000104
 11
-18.35358983843247
 21
-33.50000000000104
 72
1
 10
-18.35358983843247
 20
-33.50000000000104
 11
-19.9249999999933
 21
-36.2217622392625
 72
1
 10
-19.9249999999933
 20
-36.2217622392625
 11
-19.9249999999933
 21
-36.50000000000036
 72
1
 10
-19.9249999999933
 20
-36.50000000000036
 11
-18.09477079329763
 21
-36.46592582628684
 72
1
 10
-18.09477079329763
 20
-36.46592582628684
 11
-17.77858983839795
 21
-36.30847587968645
 72
1
 10
-17.77858983839795
 20
-36.30847587968645
 11
-17.57148305721178
 21
-36.10936487817258
 72
1
 10
-17.57148305721178
 20
-36.10936487817258
 11
-17.41256443461525
 21
-35.87009618929351
 72
1
 10
-17.41256443461525
 20
-35.87009618929351
 11
-16.04418876169768
 21
-33.50000000000104
 72
1
 10
-16.04418876169768
 20
-33.50000000000104
 11
-9.680811238194678
 21
-33.50000000000104
 72
1
 10
-9.680811238194678
 20
-33.50000000000104
 11
-8.078516942693591
 21
-36.20710678117365
 72
1
 10
-8.078516942693591
 20
-36.20710678117365
 11
-7.734013819272025
 21
-36.42293683215064
 72
1
 10
-7.734013819272025
 20
-36.42293683215064
 11
-7.446410161496692
 21
-36.49012606267719
 72
1
 10
-7.446410161496692
 20
-36.49012606267719
 11
-7.371410161498875
 21
-36.4999999999917
 72
1
 10
-7.371410161498875
 20
-36.4999999999917
 11
-5.734032087303757
 21
-36.46592582628684
 72
1
 10
-5.734032087303757
 20
-36.46592582628684
 11
-7.44641016144688
 21
-33.49999999999238
 72
1
 10
-7.44641016144688
 20
-33.49999999999238
 11
-2.153589838431821
 21
-33.49999999999238
 72
1
 10
-2.153589838431821
 20
-33.49999999999238
 11
-3.842758102542177
 21
-36.42572525586731
 72
1
 10
-3.842758102542177
 20
-36.42572525586731
 11
-1.300000000004035
 21
-37.08941714578724
 72
1
 10
-1.300000000004035
 20
-37.08941714578724
 11
-1.049999999999761
 21
-37.02242984768623
 72
1
 10
-1.049999999999761
 20
-37.02242984768623
 11
-0.8170370868500867
 21
-36.71882666834394
 72
1
 10
-0.8170370868500867
 20
-36.71882666834394
 11
-0.7999999999954867
 21
-36.58941714579169
 72
1
 10
-0.7999999999954867
 20
-36.58941714579169
 11
-0.7999999999954867
 21
-33.49999999999238
 72
1
 10
-0.7999999999954867
 20
-33.49999999999238
 11
-0.3999999999955776
 21
-33.3928203230195
 72
1
 10
-0.3999999999955776
 20
-33.3928203230195
 11
-0.2343145750457779
 21
-33.26568542494228
 72
1
 10
-0.2343145750457779
 20
-33.26568542494228
 11
-0.0272593389630288
 21
-32.90705523607531
 72
1
 10
-0.0272593389630288
 20
-32.90705523607531
 11
4.3315e-12
 21
-32.69999999999257
 72
1
 10
4.3315e-12
 20
-32.69999999999257
 11
4.3315e-12
 21
-23.09999999999042
 72
1
 10
4.3315e-12
 20
-23.09999999999042
 11
-1.299999999997538
 21
-21.79999999999072
 72
1
 10
-1.299999999997538
 20
-21.79999999999072
 11
-10.69999999999756
 21
-21.79999999999072
 72
1
 10
-10.69999999999756
 20
-21.79999999999072
 11
-11.58284271244629
 21
-20.91715728741421
 72
1
 10
-11.58284271244629
 20
-20.91715728741421
 11
-12.46568542489502
 21
-21.79999999999072
 72
1
 10
-12.46568542489502
 20
-21.79999999999072
 11
-13.70000000000555
 21
-21.79999999999072
 72
1
 10
-13.70000000000555
 20
-21.79999999999072
 11
-15.50000000000081
 21
-19.99999999999545
 72
1
 10
-15.50000000000081
 20
-19.99999999999545
 11
-13.69999999999688
 21
-18.19999999999153
 72
1
 10
-13.69999999999688
 20
-18.19999999999153
 11
-12.46568542489502
 21
-18.19999999999153
 72
1
 10
-12.46568542489502
 20
-18.19999999999153
 11
-11.58284271244629
 21
-19.08284271244242
 72
1
 10
-11.58284271244629
 20
-19.08284271244242
 11
-10.69999999999973
 21
-18.19999999999153
 72
1
 10
-10.69999999999973
 20
-18.19999999999153
 11
-1.299999999995373
 21
-18.1999999999872
 72
1
 10
-1.299999999995373
 20
-18.1999999999872
 11
4.3314e-12
 21
-16.89999999999183
 72
1
 10
4.3315e-12
 20
-16.89999999999183
 11
4.3315e-12
 21
-14.40192378858991
 72
1
 10
4.3315e-12
 20
-14.40192378858991
 11
-1.499999999995327
 21
-13.99999999999248
 72
1
 10
-1.499999999995327
 20
-13.99999999999248
 11
-1.499999999995327
 21
-15.99999999999203
 72
1
 10
-1.499999999995327
 20
-15.99999999999203
 11
-4.999999999998863
 21
-15.99999999999203
 72
1
 10
-4.999999999998863
 20
-15.99999999999203
 11
-4.999999999998863
 21
-1.999999999986551
 72
1
 10
-4.999999999998863
 20
-1.999999999986551
 11
-1.499999999995327
 21
-1.999999999986551
 72
1
 10
-1.499999999995327
 20
-1.999999999986551
 11
-1.499999999995327
 21
-3.999999999986096
 72
1
 10
-1.499999999995327
 20
-3.999999999986096
 11
0.0
 21
-3.598076211289049
 72
1
 10
0.0
 20
-3.598076211289049
 11
0.0
 21
4.3316e-12
 72
1
 10
0.0
 20
4.3315e-12
 11
-34.99999999999638
 21
0.0
 72
1
 10
-34.99999999999638
 20
0.0
 11
-34.99999999999638
 21
-4.598076211301815
 72
1
 10
-34.99999999999638
 20
-4.598076211301815
 11
-33.50000000000104
 21
-4.999999999998863
 72
1
 10
-33.50000000000104
 20
-4.999999999998863
 11
-33.50000000000104
 21
-1.79999999999959
 72
1
 10
-33.50000000000104
 20
-1.79999999999959
 11
-29.99999999999751
 21
-1.79999999999959
 72
1
 10
-29.99999999999751
 20
-1.79999999999959
 11
-29.99999999999534
 21
-14.50000000000103
 72
1
 10
-29.99999999999534
 20
-14.50000000000103
 11
-33.49999999999672
 21
-14.50000000000103
 72
1
 10
-33.49999999999672
 20
-14.50000000000103
 11
-33.49999999999672
 21
-12.50000000000149
 72
1
 10
-33.49999999999672
 20
-12.50000000000149
 11
-34.99999999999638
 21
-12.90192378859891
 72
1
 10
-34.99999999999638
 20
-12.90192378859891
 11
-34.99999999999638
 21
-24.49999999999443
 72
1
 10
-34.99999999999638
 20
-24.49999999999443
 11
-48.25881904510227
 21
-24.53407417370796
 72
1
 10
-48.25881904510227
 20
-24.53407417370796
 11
-48.49999999999763
 21
-24.63397459621379
 72
1
 10
-48.49999999999763
 20
-24.63397459621379
 11
-48.7071067811838
 21
-24.79289321881248
 72
1
 10
-48.7071067811838
 20
-24.79289321881248
 11
-48.8660254037825
 21
-24.99999999999865
 72
1
 10
-48.8660254037825
 20
-24.99999999999865
 11
-48.96592582628832
 21
-25.24118095489835
 72
1
 10
-48.96592582628832
 20
-25.24118095489835
 11
-48.99999999999752
 21
-25.49999999999853
 97
0
 92
1
 93
42
 72
1
 10
-36.1999999999961
 20
-26.29999999999836
 11
-34.99999999999638
 21
-26.29999999999836
 72
1
 10
-34.99999999999638
 20
-26.29999999999836
 11
-34.53412571881127
 21
-26.23866648731746
 72
1
 10
-34.53412571881127
 20
-26.23866648731746
 11
-34.09999999999658
 21
-26.05884572681044
 72
1
 10
-34.09999999999658
 20
-26.05884572681044
 11
-33.72720779386062
 21
-25.77279220613019
 72
1
 10
-33.72720779386062
 20
-25.77279220613019
 11
-33.44115427318469
 21
-25.39999999999856
 72
1
 10
-33.44115427318469
 20
-25.39999999999856
 11
-33.26133351267551
 21
-24.9658742811817
 72
1
 10
-33.26133351267551
 20
-24.9658742811817
 11
-33.19999999999679
 21
-24.49999999999443
 72
1
 10
-33.19999999999679
 20
-24.49999999999443
 11
-33.19999999999679
 21
-16.30000000000062
 72
1
 10
-33.19999999999679
 20
-16.30000000000062
 11
-29.99999999999751
 21
-16.30000000000062
 72
1
 10
-29.99999999999751
 20
-16.30000000000062
 11
-29.53412571881458
 21
-16.23866648731973
 72
1
 10
-29.53412571881458
 20
-16.23866648731973
 11
-29.09999999999772
 21
-16.05884572681272
 72
1
 10
-29.09999999999772
 20
-16.05884572681272
 11
-28.72720779386175
 21
-15.7727922061368
 72
1
 10
-28.72720779386175
 20
-15.7727922061368
 11
-28.44115427318583
 21
-15.40000000000083
 72
1
 10
-28.44115427318583
 20
-15.40000000000083
 11
-28.26133351267881
 21
-14.96587428118397
 72
1
 10
-28.26133351267881
 20
-14.96587428118397
 11
-28.19999999999792
 21
-14.32624685167935
 72
1
 10
-28.19999999999792
 20
-14.32624685167935
 11
-28.19999999999792
 21
-1.999999999999545
 72
1
 10
-28.19999999999792
 20
-1.999999999999545
 11
-23.19999999999906
 21
-1.999999999999545
 72
1
 10
-23.19999999999906
 20
-1.999999999999545
 11
-23.19999999999906
 21
-3.99999999999909
 72
1
 10
-23.19999999999906
 20
-3.99999999999909
 11
-21.6999999999994
 21
-3.99999999999909
 72
1
 10
-21.6999999999994
 20
-3.99999999999909
 11
-21.6999999999994
 21
-1.999999999990882
 72
1
 10
-21.6999999999994
 20
-1.999999999990882
 11
-6.799999999994122
 21
-1.999999999986551
 72
1
 10
-6.799999999994122
 20
-1.999999999986551
 11
-6.799999999994122
 21
-16.19999999999632
 72
1
 10
-6.799999999994122
 20
-16.19999999999632
 11
-21.69999999999507
 21
-16.20000000000065
 72
1
 10
-21.69999999999507
 20
-16.20000000000065
 11
-21.69999999999507
 21
-14.19999999999677
 72
1
 10
-21.69999999999507
 20
-14.19999999999677
 11
-23.19999999999473
 21
-14.19999999999677
 72
1
 10
-23.19999999999473
 20
-14.19999999999677
 11
-23.19999999999473
 21
-17.70000000000031
 72
1
 10
-23.19999999999473
 20
-17.70000000000031
 11
-16.52842712469778
 21
-17.70000000000031
 72
1
 10
-16.52842712469778
 20
-17.70000000000031
 11
-16.52842712469778
 21
-18.90805785447174
 72
1
 10
-16.52842712469778
 20
-18.90805785447174
 11
-16.74918605892484
 21
-19.16961804560862
 72
1
 10
-16.74918605892484
 20
-19.16961804560862
 11
-16.90490501580866
 21
-19.47441280785541
 72
1
 10
-16.90490501580866
 20
-19.47441280785541
 11
-16.98747635009249
 21
-19.80657273225977
 72
1
 10
-16.98747635009249
 20
-19.80657273225977
 11
-16.99260091220394
 21
-20.14880361849518
 72
1
 10
-16.99260091220394
 20
-20.14880361849518
 11
-16.92001188728182
 21
-20.48328691268171
 72
1
 10
-16.92001188728182
 20
-20.48328691268171
 11
-16.77348868713121
 21
-20.79260744618002
 72
1
 10
-16.77348868713121
 20
-20.79260744618002
 11
-16.56066017171708
 21
-21.06066017167491
 72
1
 10
-16.56066017171708
 20
-21.06066017167491
 11
-14.32132034349474
 21
-23.29999999999037
 72
1
 10
-14.32132034349474
 20
-23.29999999999037
 11
-10.212435565294
 21
-23.29999999999037
 72
1
 10
-10.212435565294
 20
-23.29999999999037
 11
-9.61243556529414
 21
-23.89999999999024
 72
1
 10
-9.61243556529414
 20
-23.89999999999024
 11
-1.799999999995259
 21
-23.89999999998591
 72
1
 10
-1.799999999995259
 20
-23.89999999998591
 11
-1.799999999995259
 21
-31.69999999999713
 72
1
 10
-1.799999999995259
 20
-31.69999999999713
 11
-36.1999999999961
 21
-31.70000000000146
 72
1
 10
-36.1999999999961
 20
-31.70000000000146
 11
-36.1999999999961
 21
-26.29999999999836
 97
0
 75
0
 76
1
 98
1
 10
0.0
 20
0.0
450
0
451
0
460
0.0
461
0.0
452
0
462
0.0
453
0
470

  0
LINE
  5
33
330
2F
100
AcDbEntity
  8
A-DETL-GENF
100
AcDbLine
 10
-1.3705e-12
 20
-5.107e-12
 30
0.0
 11
-34.99999999999822
 21
-8.6629e-12
 31
0.0
  0
LINE
  5
34
330
2F
100
AcDbEntity
  8
A-DETL-GENF
100
AcDbLine
 10
-34.99999999999822
 20
-8.6629e-12
 30
0.0
 11
-34.99999999999775
 21
-4.598076211310642
 31
0.0
  0
LINE
  5
35
330
2F
100
AcDbEntity
  8
A-DETL-GENF
100
AcDbLine
 10
-34.99999999999775
 20
-4.598076211310642
 30
0.0
 11
-33.5000000000021
 21
-5.000000000006452
 31
0.0
  0
LINE
  5
36
330
2F
100
AcDbEntity
  8
A-DETL-GENF
100
AcDbLine
 10
-33.5000000000021
 20
-5.000000000006452
 30
0.0
 11
-33.50000000000243
 21
-1.800000000008609
 31
0.0
  0
LINE
  5
37
330
2F
100
AcDbEntity
  8
A-DETL-GENF
100
AcDbLine
 10
-33.50000000000243
 20
-1.800000000008609
 30
0.0
 11
-29.99999999999954
 21
-1.800000000008253
 31
0.0
  0
LINE
  5
38
330
2F
100
AcDbEntity
  8
A-DETL-GENF
100
AcDbLine
 10
-29.99999999999954
 20
-1.800000000008253
 30
0.0
 11
-29.99999999999824
 21
-14.50000000000934
 31
0.0
  0
LINE
  5
39
330
2F
100
AcDbEntity
  8
A-DETL-GENF
100
AcDbLine
 10
-29.99999999999824
 20
-14.50000000000934
 30
0.0
 11
-33.49999999999789
 21
-14.5000000000097
 31
0.0
  0
LINE
  5
3A
330
2F
100
AcDbEntity
  8
A-DETL-GENF
100
AcDbLine
 10
-33.49999999999789
 20
-14.5000000000097
 30
0.0
 11
-33.49999999999809
 21
-12.50000000000999
 31
0.0
  0
LINE
  5
3B
330
2F
100
AcDbEntity
  8
A-DETL-GENF
100
AcDbLine
 10
-33.49999999999809
 20
-12.50000000000999
 30
0.0
 11
-34.99999999999893
 21
-12.90192378860789
 31
0.0
  0
LINE
  5
3C
330
2F
100
AcDbEntity
  8
A-DETL-GENF
100
AcDbLine
 10
-34.99999999999893
 20
-12.90192378860789
 30
0.0
 11
-34.99999999999775
 21
-24.5000000000061
 31
0.0
  0
LINE
  5
3D
330
2F
100
AcDbEntity
  8
A-DETL-GENF
100
AcDbLine
 10
-34.99999999999775
 20
-24.5000000000061
 30
0.0
 11
-47.99999999999922
 21
-24.50000000000743
 31
0.0
  0
ARC
  5
3E
330
2F
100
AcDbEntity
  8
A-DETL-GENF
100
AcDbCircle
 10
-47.99999999999911
 20
-25.5000000000072
 30
0.0
 40
0.9999999999999957
100
AcDbArc
 50
90.00000000000641
 51
180.0000000000068
  0
LINE
  5
3F
330
2F
100
AcDbEntity
  8
A-DETL-GENF
100
AcDbLine
 10
-48.99999999999898
 20
-25.5000000000073
 30
0.0
 11
-48.99999999999889
 21
-26.30000000000714
 31
0.0
  0
LINE
  5
40
330
2F
100
AcDbEntity
  8
A-DETL-GENF
100
AcDbLine
 10
-48.99999999999889
 20
-26.30000000000714
 30
0.0
 11
-47.79999999999916
 21
-26.30000000000701
 31
0.0
  0
LINE
  5
41
330
2F
100
AcDbEntity
  8
A-DETL-GENF
100
AcDbLine
 10
-47.79999999999916
 20
-26.30000000000801
 30
0.0
 11
-37.99999999999722
 21
-26.30000000000701
 31
0.0
  0
LINE
  5
42
330
2F
100
AcDbEntity
  8
A-DETL-GENF
100
AcDbLine
 10
-37.99999999999722
 20
-26.30000000000701
 30
0.0
 11
-37.99999999999707
 21
-27.80000000000649
 31
0.0
  0
LINE
  5
43
330
2F
100
AcDbEntity
  8
A-DETL-GENF
100
AcDbLine
 10
-37.99999999999707
 20
-27.80000000000649
 30
0.0
 11
-39.99999999999678
 21
-28.0499999999674
 31
0.0
  0
LINE
  5
44
330
2F
100
AcDbEntity
  8
A-DETL-GENF
100
AcDbLine
 10
-39.99999999999678
 20
-28.0499999999674
 30
0.0
 11
-39.99999999999658
 21
-29.94999999993531
 31
0.0
  0
LINE
  5
45
330
2F
100
AcDbEntity
  8
A-DETL-GENF
100
AcDbLine
 10
-39.99999999999658
 20
-29.94999999993531
 30
0.0
 11
-37.99999999999722
 21
-30.20000000001044
 31
0.0
  0
LINE
  5
46
330
2F
100
AcDbEntity
  8
A-DETL-GENF
100
AcDbLine
 10
-37.99999999999722
 20
-30.20000000001044
 30
0.0
 11
-37.99999999999707
 21
-31.7000000000094
 31
0.0
  0
LINE
  5
47
330
2F
100
AcDbEntity
  8
A-DETL-GENF
100
AcDbLine
 10
-37.99999999999707
 20
-31.7000000000094
 30
0.0
 11
-45.09999999999553
 21
-31.70000000001012
 31
0.0
  0
ARC
  5
48
330
2F
100
AcDbEntity
  8
A-DETL-GENF
100
AcDbCircle
 10
-45.09999999999545
 20
-32.60000000000991
 30
0.0
 40
0.899999999999995
100
AcDbArc
 50
90.00000000000655
 51
270.0000000000057
  0
LINE
  5
49
330
2F
100
AcDbEntity
  8
A-DETL-GENF
100
AcDbLine
 10
-45.09999999999535
 20
-33.50000000000971
 30
0.0
 11
-24.99999999999569
 21
-33.50000000000767
 31
0.0
  0
LINE
  5
4A
330
2F
100
AcDbEntity
  8
A-DETL-GENF
100
AcDbLine
 10
-24.99999999999569
 20
-33.50000000000767
 30
0.0
 11
-24.99999999999538
 21
-36.58941714580907
 31
0.0
  0
ARC
  5
4B
330
2F
100
AcDbEntity
  8
A-DETL-GENF
100
AcDbCircle
 10
-24.4999999999958
 20
-36.58941714580902
 30
0.0
 40
0.4999999999999984
100
AcDbArc
 50
180.0000000000059
 51
285.0000000010821
  0
LINE
  5
4C
330
2F
100
AcDbEntity
  8
A-DETL-GENF
100
AcDbLine
 10
-24.3705904774179
 20
-37.0723800590165
 30
0.0
 11
-21.95724189744401
 21
-36.42572525590886
 31
0.0
  0
LINE
  5
4D
330
2F
100
AcDbEntity
  8
A-DETL-GENF
100
AcDbLine
 10
-21.95724189744401
 20
-36.42572525590885
 30
0.0
 11
-23.64641016144816
 21
-33.50000000000974
 31
0.0
  0
LINE
  5
4E
330
2F
100
AcDbEntity
  8
A-DETL-GENF
100
AcDbLine
 10
-23.64641016144816
 20
-33.50000000000974
 30
0.0
 11
-23.00625000000274
 21
-33.50000000000968
 31
0.0
  0
LINE
  5
4F
330
2F
100
AcDbEntity
  8
A-DETL-GENF
100
AcDbLine
 10
-18.84374999998557
 20
-33.50000000000926
 30
0.0
 11
-18.35358983843305
 21
-33.50000000000921
 31
0.0
  0
LINE
  5
50
330
2F
100
AcDbEntity
  8
A-DETL-GENF
100
AcDbLine
 10
-18.35358983843305
 20
-33.50000000000921
 30
0.0
 11
-18.82457903764403
 21
-34.31577722283149
 31
0.0
  0
ARC
  5
51
330
2F
100
AcDbEntity
  8
A-DETL-GENF
100
AcDbCircle
 10
-18.35358983839918
 20
-35.50000000000927
 30
0.0
 40
0.999999999999993
100
AcDbArc
 50
314.9999999996972
 51
329.9999999995947
  0
LINE
  5
52
330
2F
100
AcDbEntity
  8
A-DETL-GENF
100
AcDbLine
 10
-17.48756443467983
 20
-35.99999999997986
 30
0.0
 11
-16.04418876169939
 21
-33.50000000000971
 31
0.0
  0
LINE
  5
53
330
2F
100
AcDbEntity
  8
A-DETL-GENF
100
AcDbLine
 10
-16.04418876169939
 20
-33.50000000000971
 30
0.0
 11
-15.96918876169705
 21
-33.5000000000097
 31
0.0
  0
LINE
  5
54
330
2F
100
AcDbEntity
  8
A-DETL-GENF
100
AcDbLine
 10
-5.724999999905998
 20
-36.48156986056946
 30
0.0
 11
-7.446410161447515
 21
-33.50000000000108
 31
0.0
  0
LINE
  5
55
330
2F
100
AcDbEntity
  8
A-DETL-GENF
100
AcDbLine
 10
-7.446410161447515
 20
-33.50000000000108
 30
0.0
 11
-6.806249999915691
 21
-33.50000000000102
 31
0.0
  0
LINE
  5
56
330
2F
100
AcDbEntity
  8
A-DETL-GENF
100
AcDbLine
 10
-2.64374999989853
 20
-33.5000000000006
 30
0.0
 11
-2.153589838432403
 21
-33.50000000000055
 31
0.0
  0
LINE
  5
57
330
2F
100
AcDbEntity
  8
A-DETL-GENF
100
AcDbLine
 10
-2.153589838432402
 20
-33.50000000000055
 30
0.0
 11
-2.624579037648948
 21
-34.31577722283247
 31
0.0
  0
LINE
  5
58
330
2F
100
AcDbEntity
  8
A-DETL-GENF
100
AcDbLine
 10
-3.842758102543112
 20
-36.42572525587524
 30
0.0
 11
-1.429409522567819
 21
-37.07238005898274
 31
0.0
  0
ARC
  5
59
330
2F
100
AcDbEntity
  8
A-DETL-GENF
100
AcDbCircle
 10
-1.299999999996743
 20
-36.58941714580036
 30
0.0
 40
0.4999999999999981
100
AcDbArc
 50
254.9999999989293
 51
6.5138e-12
  0
LINE
  5
5A
330
2F
100
AcDbEntity
  8
A-DETL-GENF
100
AcDbLine
 10
-0.7999999999968594
 20
-36.58941714580031
 30
0.0
 11
-0.7999999999971731
 21
-33.50000000000124
 31
0.0
  0
ARC
  5
5B
330
2F
100
AcDbEntity
  8
A-DETL-GENF
100
AcDbCircle
 10
-0.7999999999968594
 20
-32.70000000000123
 30
0.0
 40
0.800000000000006
100
AcDbArc
 50
269.9999999999777
 51
5.9858e-12
  0
LINE
  5
5C
330
2F
100
AcDbEntity
  8
A-DETL-GENF
100
AcDbLine
 10
3.9342e-12
 20
-32.70000000000115
 30
0.0
 11
2.9588e-12
 21
-23.09999999999882
 31
0.0
  0
LINE
  5
5D
330
2F
100
AcDbEntity
  8
A-DETL-GENF
100
AcDbLine
 10
2.9599e-12
 20
-23.09999999999882
 30
0.0
 11
-1.299999999997701
 21
-21.79999999999842
 31
0.0
  0
LINE
  5
5E
330
2F
100
AcDbEntity
  8
A-DETL-GENF
100
AcDbLine
 10
-1.2999999999977
 20
-21.79999999999842
 30
0.0
 11
-10.69999999999879
 21
-21.79999999999937
 31
0.0
  0
LINE
  5
5F
330
2F
100
AcDbEntity
  8
A-DETL-GENF
100
AcDbLine
 10
-10.69999999999879
 20
-21.79999999999937
 30
0.0
 11
-11.58284271244777
 21
-20.91715728742679
 31
0.0
  0
LINE
  5
60
330
2F
100
AcDbEntity
  8
A-DETL-GENF
100
AcDbLine
 10
-11.58284271244777
 20
-20.91715728742679
 30
0.0
 11
-12.46568542489627
 21
-21.79999999999925
 31
0.0
  0
LINE
  5
61
330
2F
100
AcDbEntity
  8
A-DETL-GENF
100
AcDbLine
 10
-12.46568542489627
 20
-21.79999999999925
 30
0.0
 11
-13.70000000000655
 21
-21.79999999999937
 31
0.0
  0
LINE
  5
62
330
2F
100
AcDbEntity
  8
A-DETL-GENF
100
AcDbLine
 10
-13.70000000000655
 20
-21.79999999999937
 30
0.0
 11
-15.50000000000199
 21
-20.0000000000043
 31
0.0
  0
LINE
  5
63
330
2F
100
AcDbEntity
  8
A-DETL-GENF
100
AcDbLine
 10
-15.50000000000199
 20
-20.0000000000043
 30
0.0
 11
-13.69999999999838
 21
-18.20000000000032
 31
0.0
  0
LINE
  5
64
330
2F
100
AcDbEntity
  8
A-DETL-GENF
100
AcDbLine
 10
-13.69999999999838
 20
-18.20000000000032
 30
0.0
 11
-12.46568542489655
 21
-18.20000000000019
 31
0.0
  0
LINE
  5
65
330
2F
100
AcDbEntity
  8
A-DETL-GENF
100
AcDbLine
 10
-12.46568542489655
 20
-18.20000000000019
 30
0.0
 11
-11.58284271244756
 21
-19.08284271245415
 31
0.0
  0
LINE
  5
66
330
2F
100
AcDbEntity
  8
A-DETL-GENF
100
AcDbLine
 10
-11.58284271244756
 20
-19.08284271245415
 30
0.0
 11
-10.69999999999964
 21
-18.2000000000009
 31
0.0
  0
LINE
  5
67
330
2F
100
AcDbEntity
  8
A-DETL-GENF
100
AcDbLine
 10
-10.69999999999964
 20
-18.2000000000009
 30
0.0
 11
-1.299999999996233
 21
-18.19999999999994
 31
0.0
  0
LINE
  5
68
330
2F
100
AcDbEntity
  8
A-DETL-GENF
100
AcDbLine
 10
-1.299999999996232
 20
-18.19999999999994
 30
0.0
 11
3.2126e-12
 21
-16.90000000000023
 31
0.0
  0
LINE
  5
69
330
2F
100
AcDbEntity
  8
A-DETL-GENF
100
AcDbLine
 10
3.2126e-12
 20
-16.90000000000023
 30
0.0
 11
2.9588e-12
 21
-14.40192378859841
 31
0.0
  0
LINE
  5
6A
330
2F
100
AcDbEntity
  8
A-DETL-GENF
100
AcDbLine
 10
2.9591e-12
 20
-14.40192378859841
 30
0.0
 11
-1.499999999996903
 21
-14.00000000000109
 31
0.0
  0
LINE
  5
6B
330
2F
100
AcDbEntity
  8
A-DETL-GENF
100
AcDbLine
 10
-1.499999999996903
 20
-14.00000000000109
 30
0.0
 11
-1.4999999999967
 21
-16.00000000000034
 31
0.0
  0
LINE
  5
6C
330
2F
100
AcDbEntity
  8
A-DETL-GENF
100
AcDbLine
 10
-1.4999999999967
 20
-16.00000000000034
 30
0.0
 11
-4.999999999998811
 21
-16.00000000000069
 31
0.0
  0
LINE
  5
6D
330
2F
100
AcDbEntity
  8
A-DETL-GENF
100
AcDbLine
 10
-4.999999999998811
 20
-16.00000000000069
 30
0.0
 11
-5.000000000000233
 21
-1.9999999999999
 31
0.0
  0
LINE
  5
6E
330
2F
100
AcDbEntity
  8
A-DETL-GENF
100
AcDbLine
 10
-5.000000000000233
 20
-1.9999999999999
 30
0.0
 11
-1.499999999996903
 21
-1.999999999999545
 31
0.0
  0
LINE
  5
6F
330
2F
100
AcDbEntity
  8
A-DETL-GENF
100
AcDbLine
 10
-1.499999999996903
 20
-1.999999999999545
 30
0.0
 11
-1.4999999999967
 21
-3.999999999998093
 31
0.0
  0
LINE
  5
70
330
2F
100
AcDbEntity
  8
A-DETL-GENF
100
AcDbLine
 10
-1.4999999999967
 20
-3.999999999998093
 30
0.0
 11
-1.0078e-12
 21
-3.598076211301945
 31
0.0
  0
LINE
  5
71
330
2F
100
AcDbEntity
  8
A-DETL-GENF
100
AcDbLine
 10
-1.0079e-12
 20
-3.598076211301945
 30
0.0
 11
-1.3726e-12
 21
-5.1071e-12
 31
0.0
  0
LINE
  5
72
330
2F
100
AcDbEntity
  8
A-DETL-GENF
100
AcDbLine
 10
-6.799999999996935
 20
-1.999999999999545
 30
0.0
 11
-6.799999999995493
 21
-16.2000000000078
 31
0.0
  0
LINE
  5
73
330
2F
100
AcDbEntity
  8
A-DETL-GENF
100
AcDbLine
 10
-6.799999999995493
 20
-16.2000000000078
 30
0.0
 11
-21.69999999999623
 21
-16.20000000000931
 31
0.0
  0
LINE
  5
74
330
2F
100
AcDbEntity
  8
A-DETL-GENF
100
AcDbLine
 10
-21.69999999999623
 20
-16.20000000000931
 30
0.0
 11
-21.69999999999644
 21
-14.20000000000976
 31
0.0
  0
LINE
  5
75
330
2F
100
AcDbEntity
  8
A-DETL-GENF
100
AcDbLine
 10
-21.69999999999644
 20
-14.20000000000976
 30
0.0
 11
-23.1999999999963
 21
-14.20000000000992
 31
0.0
  0
LINE
  5
76
330
2F
100
AcDbEntity
  8
A-DETL-GENF
100
AcDbLine
 10
-23.1999999999963
 20
-14.20000000000992
 30
0.0
 11
-23.19999999999595
 21
-17.70000000000965
 31
0.0
  0
LINE
  5
77
330
2F
100
AcDbEntity
  8
A-DETL-GENF
100
AcDbLine
 10
-23.19999999999595
 20
-17.70000000000965
 30
0.0
 11
-16.52842712469915
 21
-17.70000000000897
 31
0.0
  0
LINE
  5
78
330
2F
100
AcDbEntity
  8
A-DETL-GENF
100
AcDbLine
 10
-16.52842712469915
 20
-17.70000000000897
 30
0.0
 11
-16.52842712469903
 21
-18.90805785448111
 31
0.0
  0
ARC
  5
79
330
2F
100
AcDbEntity
  8
A-DETL-GENF
100
AcDbCircle
 10
-15.49999999999784
 20
-20.00000000000845
 30
0.0
 40
1.500000000000001
100
AcDbArc
 50
133.2842352897401
 51
224.9999999987866
  0
LINE
  5
7A
330
2F
100
AcDbEntity
  8
A-DETL-GENF
100
AcDbLine
 10
-16.56066017171731
 20
-21.060660171683
 30
0.0
 11
-14.32132034349569
 21
-23.29999999999945
 31
0.0
  0
LINE
  5
7B
330
2F
100
AcDbEntity
  8
A-DETL-GENF
100
AcDbLine
 10
-14.3213203434957
 20
-23.29999999999945
 30
0.0
 11
-10.21243556529537
 21
-23.29999999999904
 31
0.0
  0
LINE
  5
7C
330
2F
100
AcDbEntity
  8
A-DETL-GENF
100
AcDbLine
 10
-10.21243556529537
 20
-23.29999999999904
 30
0.0
 11
-9.612435565294595
 21
-23.89999999999969
 31
0.0
  0
LINE
  5
7D
330
2F
100
AcDbEntity
  8
A-DETL-GENF
100
AcDbLine
 10
-9.612435565294598
 20
-23.89999999999969
 30
0.0
 11
-1.799999999997424
 21
-23.8999999999989
 31
0.0
  0
LINE
  5
7E
330
2F
100
AcDbEntity
  8
A-DETL-GENF
100
AcDbLine
 10
-1.799999999997424
 20
-23.8999999999989
 30
0.0
 11
-1.799999999996631
 21
-31.70000000000662
 31
0.0
  0
LINE
  5
7F
330
2F
100
AcDbEntity
  8
A-DETL-GENF
100
AcDbLine
 10
-1.799999999996634
 20
-31.70000000000662
 30
0.0
 11
-36.19999999999693
 21
-31.70000000001012
 31
0.0
  0
LINE
  5
80
330
2F
100
AcDbEntity
  8
A-DETL-GENF
100
AcDbLine
 10
-36.19999999999693
 20
-31.70000000001012
 30
0.0
 11
-36.19999999999747
 21
-26.30000000000714
 31
0.0
  0
LINE
  5
81
330
2F
100
AcDbEntity
  8
A-DETL-GENF
100
AcDbLine
 10
-36.19999999999747
 20
-26.30000000000714
 30
0.0
 11
-34.99999999999757
 21
-26.30000000000701
 31
0.0
  0
ARC
  5
82
330
2F
100
AcDbEntity
  8
A-DETL-GENF
100
AcDbCircle
 10
-34.99999999999776
 20
-24.50000000000742
 30
0.0
 40
1.800000000000002
100
AcDbArc
 50
270.0000000000059
 51
6.1639e-12
  0
LINE
  5
83
330
2F
100
AcDbEntity
  8
A-DETL-GENF
100
AcDbLine
 10
-33.19999999999732
 20
-24.50000000000724
 30
0.0
 11
-33.19999999999815
 21
-16.30000000000961
 31
0.0
  0
LINE
  5
84
330
2F
100
AcDbEntity
  8
A-DETL-GENF
100
AcDbLine
 10
-33.19999999999815
 20
-16.30000000000961
 30
0.0
 11
-29.9999999999987
 21
-16.30000000000929
 31
0.0
  0
ARC
  5
85
330
2F
100
AcDbEntity
  8
A-DETL-GENF
100
AcDbCircle
 10
-29.99999999999888
 20
-14.50000000000969
 30
0.0
 40
1.8
100
AcDbArc
 50
270.0000000000057
 51
6.1067e-12
  0
LINE
  5
86
330
2F
100
AcDbEntity
  8
A-DETL-GENF
100
AcDbLine
 10
-28.19999999999802
 20
-14.50000000000951
 30
0.0
 11
-28.19999999999929
 21
-2.000000000008715
 31
0.0
  0
LINE
  5
87
330
2F
100
AcDbEntity
  8
A-DETL-GENF
100
AcDbLine
 10
-28.19999999999929
 20
-2.000000000008716
 30
0.0
 11
-23.20000000000053
 21
-2.000000000008208
 31
0.0
  0
LINE
  5
88
330
2F
100
AcDbEntity
  8
A-DETL-GENF
100
AcDbLine
 10
-23.20000000000053
 20
-2.000000000008208
 30
0.0
 11
-23.20000000000033
 21
-4.000000000007905
 31
0.0
  0
LINE
  5
89
330
2F
100
AcDbEntity
  8
A-DETL-GENF
100
AcDbLine
 10
-23.20000000000033
 20
-4.000000000007905
 30
0.0
 11
-21.70000000000056
 21
-4.000000000007753
 31
0.0
  0
LINE
  5
8A
330
2F
100
AcDbEntity
  8
A-DETL-GENF
100
AcDbLine
 10
-21.70000000000056
 20
-4.000000000007753
 30
0.0
 11
-21.70000000000077
 21
-2.000000000001059
 31
0.0
  0
LINE
  5
8B
330
2F
100
AcDbEntity
  8
A-DETL-GENF
100
AcDbLine
 10
-21.70000000000077
 20
-2.000000000001059
 30
0.0
 11
-6.799999999996935
 21
-1.999999999999545
 31
0.0
  0
ENDBLK
  5
31
330
2F
100
AcDbEntity
  8
0
100
AcDbBlockEnd
  0
ENDSEC
  0
SECTION
  2
ENTITIES
  0
INSERT
  5
8D
330
17
100
AcDbEntity
  8
0
100
AcDbBlockReference
  2
31 Solarlux p_04 - 31Solarlux p_04-4741231-00_0 Basismaterialen
 10
0.0
 20
0.0
 30
0.0
  0
ENDSEC
  0
SECTION
  2
OBJECTS
  0
DICTIONARY
  5
A
330
0
100
AcDbDictionary
281
1
  3
ACAD_COLOR
350
B
  3
ACAD_GROUP
350
C
  3
ACAD_LAYOUT
350
D
  3
ACAD_MATERIAL
350
E
  3
ACAD_MLEADERSTYLE
350
F
  3
ACAD_MLINESTYLE
350
10
  3
ACAD_PLOTSETTINGS
350
11
  3
ACAD_PLOTSTYLENAME
350
12
  3
ACAD_SCALELIST
350
14
  3
ACAD_TABLESTYLE
350
15
  3
ACAD_VISUALSTYLE
350
16
  3
EZDXF_META
350
2D
  0
DICTIONARY
  5
B
330
A
100
AcDbDictionary
281
1
  0
DICTIONARY
  5
C
330
A
100
AcDbDictionary
281
1
  0
DICTIONARY
  5
D
330
A
100
AcDbDictionary
281
1
  3
Model
350
1A
  3
Layout1
350
1E
  0
DICTIONARY
  5
E
330
A
100
AcDbDictionary
281
1
  3
ByBlock
350
1F
  3
ByLayer
350
20
  3
Global
350
21
  0
DICTIONARY
  5
F
330
A
100
AcDbDictionary
281
1
  3
Standard
350
2C
  0
DICTIONARY
  5
10
330
A
100
AcDbDictionary
281
1
  3
Standard
350
22
  0
DICTIONARY
  5
11
330
A
100
AcDbDictionary
281
1
  0
ACDBDICTIONARYWDFLT
  5
12
330
A
100
AcDbDictionary
281
1
  3
Normal
350
13
100
AcDbDictionaryWithDefault
340
13
  0
ACDBPLACEHOLDER
  5
13
330
12
  0
DICTIONARY
  5
14
330
A
100
AcDbDictionary
281
1
  0
DICTIONARY
  5
15
330
A
100
AcDbDictionary
281
1
  0
DICTIONARY
  5
16
330
A
100
AcDbDictionary
281
1
  0
LAYOUT
  5
1A
330
D
100
AcDbPlotSettings
  1

  4
A3
  6

 40
7.5
 41
20.0
 42
7.5
 43
20.0
 44
420.0
 45
297.0
 46
0.0
 47
0.0
 48
0.0
 49
0.0
140
0.0
141
0.0
142
1.0
143
1.0
 70
1024
 72
1
 73
0
 74
5
  7

 75
16
 76
0
 77
2
 78
300
147
1.0
148
0.0
149
0.0
100
AcDbLayout
  1
Model
 70
1
 71
0
 10
0.0
 20
0.0
 11
420.0
 21
297.0
 12
0.0
 22
0.0
 32
0.0
 14
1e+20
 24
1e+20
 34
1e+20
 15
-1e+20
 25
-1e+20
 35
-1e+20
146
0.0
 13
0.0
 23
0.0
 33
0.0
 16
1.0
 26
0.0
 36
0.0
 17
0.0
 27
1.0
 37
0.0
 76
1
330
17
  0
LAYOUT
  5
1E
330
D
100
AcDbPlotSettings
  1

  4
A3
  6

 40
7.5
 41
20.0
 42
7.5
 43
20.0
 44
420.0
 45
297.0
 46
0.0
 47
0.0
 48
0.0
 49
0.0
140
0.0
141
0.0
142
1.0
143
1.0
 70
0
 72
1
 73
0
 74
5
  7

 75
16
 76
0
 77
2
 78
300
147
1.0
148
0.0
149
0.0
100
AcDbLayout
  1
Layout1
 70
1
 71
1
 10
0.0
 20
0.0
 11
420.0
 21
297.0
 12
0.0
 22
0.0
 32
0.0
 14
1e+20
 24
1e+20
 34
1e+20
 15
-1e+20
 25
-1e+20
 35
-1e+20
146
0.0
 13
0.0
 23
0.0
 33
0.0
 16
1.0
 26
0.0
 36
0.0
 17
0.0
 27
1.0
 37
0.0
 76
1
330
1B
  0
MATERIAL
  5
1F
102
{ACAD_REACTORS
330
E
102
}
330
E
100
AcDbMaterial
  1
ByBlock
  2

 70
0
 40
1.0
 71
1
 41
1.0
 91
-1023410177
 42
1.0
 72
1
  3

 73
1
 74
1
 75
1
 44
0.5
 73
0
 45
1.0
 46
1.0
 77
1
  4

 78
1
 79
1
170
1
 48
1.0
171
1
  6

172
1
173
1
174
1
140
1.0
141
1.0
175
1
  7

176
1
177
1
178
1
143
1.0
179
1
  8

270
1
271
1
272
1
145
1.0
146
1.0
273
1
  9

274
1
275
1
276
1
 42
1.0
 72
1
  3

 73
1
 74
1
 75
1
 94
63
  0
MATERIAL
  5
20
102
{ACAD_REACTORS
330
E
102
}
330
E
100
AcDbMaterial
  1
ByLayer
  2

 70
0
 40
1.0
 71
1
 41
1.0
 91
-1023410177
 42
1.0
 72
1
  3

 73
1
 74
1
 75
1
 44
0.5
 73
0
 45
1.0
 46
1.0
 77
1
  4

 78
1
 79
1
170
1
 48
1.0
171
1
  6

172
1
173
1
174
1
140
1.0
141
1.0
175
1
  7

176
1
177
1
178
1
143
1.0
179
1
  8

270
1
271
1
272
1
145
1.0
146
1.0
273
1
  9

274
1
275
1
276
1
 42
1.0
 72
1
  3

 73
1
 74
1
 75
1
 94
63
  0
MATERIAL
  5
21
102
{ACAD_REACTORS
330
E
102
}
330
E
100
AcDbMaterial
  1
Global
  2

 70
0
 40
1.0
 71
1
 41
1.0
 91
-1023410177
 42
1.0
 72
1
  3

 73
1
 74
1
 75
1
 44
0.5
 73
0
 45
1.0
 46
1.0
 77
1
  4

 78
1
 79
1
170
1
 48
1.0
171
1
  6

172
1
173
1
174
1
140
1.0
141
1.0
175
1
  7

176
1
177
1
178
1
143
1.0
179
1
  8

270
1
271
1
272
1
145
1.0
146
1.0
273
1
  9

274
1
275
1
276
1
 42
1.0
 72
1
  3

 73
1
 74
1
 75
1
 94
63
  0
MLINESTYLE
  5
22
102
{ACAD_REACTORS
330
10
102
}
330
10
100
AcDbMlineStyle
  2
Standard
 70
0
  3

 62
256
 51
90.0
 52
90.0
 71
2
 49
0.5
 62
256
  6
BYLAYER
 49
-0.5
 62
256
  6
BYLAYER
  0
MLEADERSTYLE
  5
2C
102
{ACAD_REACTORS
330
F
102
}
330
F
100
AcDbMLeaderStyle
179
2
170
2
171
1
172
0
 90
2
 40
0.0
 41
0.0
173
1
 91
-1056964608
 92
-2
290
1
 42
2.0
291
1
 43
8.0
  3
Standard
 44
4.0
300

342
29
174
1
175
1
176
0
178
1
 93
-1056964608
 45
4.0
292
0
297
0
 46
4.0
 94
-1056964608
 47
1.0
 49
1.0
140
1.0
294
1
141
0.0
177
0
142
1.0
295
0
296
0
143
3.75
271
0
272
9
273
9
  0
DICTIONARY
  5
2D
330
A
100
AcDbDictionary
280
1
281
1
  3
CREATED_BY_EZDXF
350
2E
  3
WRITTEN_BY_EZDXF
350
91
  0
DICTIONARYVAR
  5
2E
330
2D
100
DictionaryVariables
280
0
  1
1.4.3 @ 2026-02-13T04:54:12.678931+00:00
  0
DICTIONARYVAR
  5
91
330
2D
100
DictionaryVariables
280
0
  1
1.4.3 @ 2026-02-13T04:54:12.684597+00:00
  0
ENDSEC
  0
EOF
