  0
SECTION
  2
HEADER
  9
$ACADVER
  1
AC1032
  9
$ACADMAINTVER
 90
4
  9
$DWGCODEPAGE
  3
ANSI_1252
  9
$LASTSAVEDBY
  1
ezdxf
  9
$REQUIREDVERSIONS
160
0
  9
$INSBASE
 10
0.0
 20
0.0
 30
0.0
  9
$EXTMIN
 10
1e+20
 20
1e+20
 30
1e+20
  9
$EXTMAX
 10
-1e+20
 20
-1e+20
 30
-1e+20
  9
$LIMMIN
 10
0.0
 20
0.0
  9
$LIMMAX
 10
420.0
 20
297.0
  9
$ORTHOMODE
 70
0
  9
$REGENMODE
 70
1
  9
$FILLMODE
 70
1
  9
$QTEXTMODE
 70
0
  9
$MIRRTEXT
 70
1
  9
$LTSCALE
 40
1.0
  9
$ATTMODE
 70
1
  9
$TEXTSIZE
 40
2.5
  9
$TRACEWID
 40
1.0
  9
$TEXTSTYLE
  7
Standard
  9
$CLAYER
  8
0
  9
$CELTYPE
  6
ByLayer
  9
$CECOLOR
 62
256
  9
$CELTSCALE
 40
1.0
  9
$DISPSILH
 70
0
  9
$DIMSCALE
 40
1.0
  9
$DIMASZ
 40
2.5
  9
$DIMEXO
 40
0.625
  9
$DIMDLI
 40
3.75
  9
$DIMRND
 40
0.0
  9
$DIMDLE
 40
0.0
  9
$DIMEXE
 40
1.25
  9
$DIMTP
 40
0.0
  9
$DIMTM
 40
0.0
  9
$DIMTXT
 40
2.5
  9
$DIMCEN
 40
2.5
  9
$DIMTSZ
 40
0.0
  9
$DIMTOL
 70
0
  9
$DIMLIM
 70
0
  9
$DIMTIH
 70
0
  9
$DIMTOH
 70
0
  9
$DIMSE1
 70
0
  9
$DIMSE2
 70
0
  9
$DIMTAD
 70
1
  9
$DIMZIN
 70
8
  9
$DIMBLK
  1

  9
$DIMASO
 70
1
  9
$DIMSHO
 70
1
  9
$DIMPOST
  1

  9
$DIMAPOST
  1

  9
$DIMALT
 70
0
  9
$DIMALTD
 70
3
  9
$DIMALTF
 40
0.03937007874
  9
$DIMLFAC
 40
1.0
  9
$DIMTOFL
 70
1
  9
$DIMTVP
 40
0.0
  9
$DIMTIX
 70
0
  9
$DIMSOXD
 70
0
  9
$DIMSAH
 70
0
  9
$DIMBLK1
  1

  9
$DIMBLK2
  1

  9
$DIMSTYLE
  2
ISO-25
  9
$DIMCLRD
 70
0
  9
$DIMCLRE
 70
0
  9
$DIMCLRT
 70
0
  9
$DIMTFAC
 40
1.0
  9
$DIMGAP
 40
0.625
  9
$DIMJUST
 70
0
  9
$DIMSD1
 70
0
  9
$DIMSD2
 70
0
  9
$DIMTOLJ
 70
0
  9
$DIMTZIN
 70
8
  9
$DIMALTZ
 70
0
  9
$DIMALTTZ
 70
0
  9
$DIMUPT
 70
0
  9
$DIMDEC
 70
2
  9
$DIMTDEC
 70
2
  9
$DIMALTU
 70
2
  9
$DIMALTTD
 70
3
  9
$DIMTXSTY
  7
Standard
  9
$DIMAUNIT
 70
0
  9
$DIMADEC
 70
0
  9
$DIMALTRND
 40
0.0
  9
$DIMAZIN
 70
0
  9
$DIMDSEP
 70
44
  9
$DIMATFIT
 70
3
  9
$DIMFRAC
 70
0
  9
$DIMLDRBLK
  1

  9
$DIMLUNIT
 70
2
  9
$DIMLWD
 70
-2
  9
$DIMLWE
 70
-2
  9
$DIMTMOVE
 70
0
  9
$DIMFXL
 40
1.0
  9
$DIMFXLON
 70
0
  9
$DIMJOGANG
 40
0.785398163397
  9
$DIMTFILL
 70
0
  9
$DIMTFILLCLR
 70
0
  9
$DIMARCSYM
 70
0
  9
$DIMLTYPE
  6

  9
$DIMLTEX1
  6

  9
$DIMLTEX2
  6

  9
$DIMTXTDIRECTION
 70
0
  9
$LUNITS
 70
2
  9
$LUPREC
 70
4
  9
$SKETCHINC
 40
1.0
  9
$FILLETRAD
 40
10.0
  9
$AUNITS
 70
0
  9
$AUPREC
 70
2
  9
$MENU
  1
.
  9
$ELEVATION
 40
0.0
  9
$PELEVATION
 40
0.0
  9
$THICKNESS
 40
0.0
  9
$LIMCHECK
 70
0
  9
$CHAMFERA
 40
0.0
  9
$CHAMFERB
 40
0.0
  9
$CHAMFERC
 40
0.0
  9
$CHAMFERD
 40
0.0
  9
$SKPOLY
 70
0
  9
$TDCREATE
 40
2461085.245972222
  9
$TDUCREATE
 40
2458532.153996898
  9
$TDUPDATE
 40
2461085.245972222
  9
$TDUUPDATE
 40
2458532.1544311
  9
$TDINDWG
 40
0.0
  9
$TDUSRTIMER
 40
0.0
  9
$USRTIMER
 70
1
  9
$ANGBASE
 50
0.0
  9
$ANGDIR
 70
0
  9
$PDMODE
 70
0
  9
$PDSIZE
 40
0.0
  9
$PLINEWID
 40
0.0
  9
$SPLFRAME
 70
0
  9
$SPLINETYPE
 70
6
  9
$SPLINESEGS
 70
8
  9
$HANDSEED
  5
A4
  9
$SURFTAB1
 70
6
  9
$SURFTAB2
 70
6
  9
$SURFTYPE
 70
6
  9
$SURFU
 70
6
  9
$SURFV
 70
6
  9
$UCSBASE
  2

  9
$UCSNAME
  2

  9
$UCSORG
 10
0.0
 20
0.0
 30
0.0
  9
$UCSXDIR
 10
1.0
 20
0.0
 30
0.0
  9
$UCSYDIR
 10
0.0
 20
1.0
 30
0.0
  9
$UCSORTHOREF
  2

  9
$UCSORTHOVIEW
 70
0
  9
$UCSORGTOP
 10
0.0
 20
0.0
 30
0.0
  9
$UCSORGBOTTOM
 10
0.0
 20
0.0
 30
0.0
  9
$UCSORGLEFT
 10
0.0
 20
0.0
 30
0.0
  9
$UCSORGRIGHT
 10
0.0
 20
0.0
 30
0.0
  9
$UCSORGFRONT
 10
0.0
 20
0.0
 30
0.0
  9
$UCSORGBACK
 10
0.0
 20
0.0
 30
0.0
  9
$PUCSBASE
  2

  9
$PUCSNAME
  2

  9
$PUCSORG
 10
0.0
 20
0.0
 30
0.0
  9
$PUCSXDIR
 10
1.0
 20
0.0
 30
0.0
  9
$PUCSYDIR
 10
0.0
 20
1.0
 30
0.0
  9
$PUCSORTHOREF
  2

  9
$PUCSORTHOVIEW
 70
0
  9
$PUCSORGTOP
 10
0.0
 20
0.0
 30
0.0
  9
$PUCSORGBOTTOM
 10
0.0
 20
0.0
 30
0.0
  9
$PUCSORGLEFT
 10
0.0
 20
0.0
 30
0.0
  9
$PUCSORGRIGHT
 10
0.0
 20
0.0
 30
0.0
  9
$PUCSORGFRONT
 10
0.0
 20
0.0
 30
0.0
  9
$PUCSORGBACK
 10
0.0
 20
0.0
 30
0.0
  9
$USERI1
 70
0
  9
$USERI2
 70
0
  9
$USERI3
 70
0
  9
$USERI4
 70
0
  9
$USERI5
 70
0
  9
$USERR1
 40
0.0
  9
$USERR2
 40
0.0
  9
$USERR3
 40
0.0
  9
$USERR4
 40
0.0
  9
$USERR5
 40
0.0
  9
$WORLDVIEW
 70
1
  9
$SHADEDGE
 70
3
  9
$SHADEDIF
 70
70
  9
$TILEMODE
 70
1
  9
$MAXACTVP
 70
64
  9
$PINSBASE
 10
0.0
 20
0.0
 30
0.0
  9
$PLIMCHECK
 70
0
  9
$PEXTMIN
 10
1e+20
 20
1e+20
 30
1e+20
  9
$PEXTMAX
 10
-1e+20
 20
-1e+20
 30
-1e+20
  9
$PLIMMIN
 10
0.0
 20
0.0
  9
$PLIMMAX
 10
420.0
 20
297.0
  9
$UNITMODE
 70
0
  9
$VISRETAIN
 70
1
  9
$PLINEGEN
 70
0
  9
$PSLTSCALE
 70
1
  9
$TREEDEPTH
 70
3020
  9
$CMLSTYLE
  2
Standard
  9
$CMLJUST
 70
0
  9
$CMLSCALE
 40
20.0
  9
$PROXYGRAPHICS
 70
1
  9
$MEASUREMENT
 70
1
  9
$CELWEIGHT
370
-1
  9
$ENDCAPS
280
0
  9
$JOINSTYLE
280
0
  9
$LWDISPLAY
290
0
  9
$INSUNITS
 70
6
  9
$HYPERLINKBASE
  1

  9
$STYLESHEET
  1

  9
$XEDIT
290
1
  9
$CEPSNTYPE
380
0
  9
$PSTYLEMODE
290
1
  9
$FINGERPRINTGUID
  2
{7433F821-F8BC-4F89-BB20-32A536E6A112}
  9
$VERSIONGUID
  2
{211C29C2-3B6B-4FEC-B2FD-03C2BAC18714}
  9
$EXTNAMES
290
1
  9
$PSVPSCALE
 40
0.0
  9
$OLESTARTUP
290
0
  9
$SORTENTS
280
127
  9
$INDEXCTL
280
0
  9
$HIDETEXT
280
1
  9
$XCLIPFRAME
280
1
  9
$HALOGAP
280
0
  9
$OBSCOLOR
 70
257
  9
$OBSLTYPE
280
0
  9
$INTERSECTIONDISPLAY
280
0
  9
$INTERSECTIONCOLOR
 70
257
  9
$DIMASSOC
280
2
  9
$PROJECTNAME
  1

  9
$CAMERADISPLAY
290
0
  9
$LENSLENGTH
 40
50.0
  9
$CAMERAHEIGHT
 40
0.0
  9
$STEPSPERSEC
 40
24.0
  9
$STEPSIZE
 40
100.0
  9
$3DDWFPREC
 40
2.0
  9
$PSOLWIDTH
 40
0.005
  9
$PSOLHEIGHT
 40
0.08
  9
$LOFTANG1
 40
1.570796326795
  9
$LOFTANG2
 40
1.570796326795
  9
$LOFTMAG1
 40
0.0
  9
$LOFTMAG2
 40
0.0
  9
$LOFTPARAM
 70
7
  9
$LOFTNORMALS
280
1
  9
$LATITUDE
 40
37.795
  9
$LONGITUDE
 40
-122.394
  9
$NORTHDIRECTION
 40
0.0
  9
$TIMEZONE
 70
-8000
  9
$LIGHTGLYPHDISPLAY
280
1
  9
$TILEMODELIGHTSYNCH
280
1
  9
$CMATERIAL
347
20
  9
$SOLIDHIST
280
0
  9
$SHOWHIST
280
1
  9
$DWFFRAME
280
2
  9
$DGNFRAME
280
2
  9
$REALWORLDSCALE
290
1
  9
$INTERFERECOLOR
 62
256
  9
$CSHADOW
280
0
  9
$SHADOWPLANELOCATION
 40
0.0
  0
ENDSEC
  0
SECTION
  2
CLASSES
  0
CLASS
  1
ACDBDICTIONARYWDFLT
  2
AcDbDictionaryWithDefault
  3
ObjectDBX Classes
 90
0
 91
0
280
0
281
0
  0
CLASS
  1
SUN
  2
AcDbSun
  3
SCENEOE
 90
1153
 91
0
280
0
281
0
  0
CLASS
  1
VISUALSTYLE
  2
AcDbVisualStyle
  3
ObjectDBX Classes
 90
4095
 91
0
280
0
281
0
  0
CLASS
  1
MATERIAL
  2
AcDbMaterial
  3
ObjectDBX Classes
 90
1153
 91
0
280
0
281
0
  0
CLASS
  1
SCALE
  2
AcDbScale
  3
ObjectDBX Classes
 90
1153
 91
0
280
0
281
0
  0
CLASS
  1
TABLESTYLE
  2
AcDbTableStyle
  3
ObjectDBX Classes
 90
4095
 91
0
280
0
281
0
  0
CLASS
  1
MLEADERSTYLE
  2
AcDbMLeaderStyle
  3
ACDB_MLEADERSTYLE_CLASS
 90
4095
 91
0
280
0
281
0
  0
CLASS
  1
DICTIONARYVAR
  2
AcDbDictionaryVar
  3
ObjectDBX Classes
 90
0
 91
0
280
0
281
0
  0
CLASS
  1
CELLSTYLEMAP
  2
AcDbCellStyleMap
  3
ObjectDBX Classes
 90
1152
 91
0
280
0
281
0
  0
CLASS
  1
MENTALRAYRENDERSETTINGS
  2
AcDbMentalRayRenderSettings
  3
SCENEOE
 90
1024
 91
0
280
0
281
0
  0
CLASS
  1
ACDBDETAILVIEWSTYLE
  2
AcDbDetailViewStyle
  3
ObjectDBX Classes
 90
1025
 91
0
280
0
281
0
  0
CLASS
  1
ACDBSECTIONVIEWSTYLE
  2
AcDbSectionViewStyle
  3
ObjectDBX Classes
 90
1025
 91
0
280
0
281
0
  0
CLASS
  1
RASTERVARIABLES
  2
AcDbRasterVariables
  3
ISM
 90
0
 91
0
280
0
281
0
  0
CLASS
  1
LAYOUT
  2
AcDbLayout
  3
ObjectDBX Classes
 90
0
 91
0
280
0
281
0
  0
CLASS
  1
ACDBPLACEHOLDER
  2
AcDbPlaceHolder
  3
ObjectDBX Classes
 90
0
 91
0
280
0
281
0
  0
ENDSEC
  0
SECTION
  2
TABLES
  0
TABLE
  2
VPORT
  5
8
330
0
100
AcDbSymbolTable
 70
1
  0
VPORT
  5
23
330
8
100
AcDbSymbolTableRecord
100
AcDbViewportTableRecord
  2
*Active
 70
0
 10
0.0
 20
0.0
 11
1.0
 21
1.0
 12
0.0
 22
0.0
 13
0.0
 23
0.0
 14
0.5
 24
0.5
 15
0.5
 25
0.5
 16
0.0
 26
0.0
 36
1.0
 17
0.0
 27
0.0
 37
0.0
 40
1000.0
 41
1.34
 42
50.0
 43
0.0
 44
0.0
 50
0.0
 51
0.0
 71
0
 72
1000
 73
1
 74
3
 75
0
 76
0
 77
0
 78
0
281
0
 65
0
146
0.0
  0
ENDTAB
  0
TABLE
  2
LTYPE
  5
2
330
0
100
AcDbSymbolTable
 70
3
  0
LTYPE
  5
24
330
2
100
AcDbSymbolTableRecord
100
AcDbLinetypeTableRecord
  2
ByBlock
 70
0
  3

 72
65
 73
0
 40
0.0
  0
LTYPE
  5
25
330
2
100
AcDbSymbolTableRecord
100
AcDbLinetypeTableRecord
  2
ByLayer
 70
0
  3

 72
65
 73
0
 40
0.0
  0
LTYPE
  5
26
330
2
100
AcDbSymbolTableRecord
100
AcDbLinetypeTableRecord
  2
Continuous
 70
0
  3

 72
65
 73
0
 40
0.0
  0
ENDTAB
  0
TABLE
  2
LAYER
  5
1
330
0
100
AcDbSymbolTable
 70
3
  0
LAYER
  5
27
330
1
100
AcDbSymbolTableRecord
100
AcDbLayerTableRecord
  2
0
 70
0
 62
7
  6
Continuous
370
-3
390
13
347
21
  0
LAYER
  5
28
330
1
100
AcDbSymbolTableRecord
100
AcDbLayerTableRecord
  2
Defpoints
 70
0
 62
7
  6
Continuous
290
0
370
-3
390
13
347
21
  0
LAYER
  5
9E
330
1
100
AcDbSymbolTableRecord
100
AcDbLayerTableRecord
  2
A-DETL-GENF
 70
0
 62
92
  6
Continuous
370
18
390
13
347
21
348
0
  0
ENDTAB
  0
TABLE
  2
STYLE
  5
5
330
0
100
AcDbSymbolTable
 70
1
  0
STYLE
  5
29
330
5
100
AcDbSymbolTableRecord
100
AcDbTextStyleTableRecord
  2
Standard
 70
0
 40
0.0
 41
1.0
 50
0.0
 71
0
 42
2.5
  3
txt
  4

  0
ENDTAB
  0
TABLE
  2
VIEW
  5
7
330
0
100
AcDbSymbolTable
 70
0
  0
ENDTAB
  0
TABLE
  2
UCS
  5
6
330
0
100
AcDbSymbolTable
 70
0
  0
ENDTAB
  0
TABLE
  2
APPID
  5
3
330
0
100
AcDbSymbolTable
 70
3
  0
APPID
  5
2A
330
3
100
AcDbSymbolTableRecord
100
AcDbRegAppTableRecord
  2
ACAD
 70
0
  0
APPID
  5
A1
330
3
100
AcDbSymbolTableRecord
100
AcDbRegAppTableRecord
  2
HATCHBACKGROUNDCOLOR
 70
0
  0
APPID
  5
A2
330
3
100
AcDbSymbolTableRecord
100
AcDbRegAppTableRecord
  2
EZDXF
 70
0
  0
ENDTAB
  0
TABLE
  2
DIMSTYLE
  5
4
330
0
100
AcDbSymbolTable
 70
1
100
AcDbDimStyleTable
  0
DIMSTYLE
105
2B
330
4
100
AcDbSymbolTableRecord
100
AcDbDimStyleTableRecord
  2
Standard
 70
0
 40
1.0
 41
2.5
 42
0.625
 43
3.75
 44
1.25
 45
0.0
 46
0.0
 47
0.0
 48
0.0
 49
2.5
140
2.5
141
2.5
142
0.0
143
0.03937007874
144
1.0
145
0.0
146
1.0
147
0.625
148
0.0
 69
0
 70
0
 71
0
 72
0
 73
0
 74
0
 75
0
 76
0
 77
1
 78
8
 79
3
170
0
171
3
172
1
173
0
174
0
175
0
176
0
177
0
178
0
179
2
271
2
272
2
273
2
274
3
275
0
276
0
277
2
278
44
279
0
280
0
281
0
282
0
283
0
284
8
285
0
286
0
288
0
289
3
290
0
371
-2
372
-2
  0
ENDTAB
  0
TABLE
  2
BLOCK_RECORD
  5
9
330
0
100
AcDbSymbolTable
 70
3
  0
BLOCK_RECORD
  5
17
330
9
100
AcDbSymbolTableRecord
100
AcDbBlockTableRecord
  2
*Model_Space
340
1A
 70
0
280
1
281
0
  0
BLOCK_RECORD
  5
1B
330
9
100
AcDbSymbolTableRecord
100
AcDbBlockTableRecord
  2
*Paper_Space
340
1E
 70
0
280
1
281
0
  0
BLOCK_RECORD
  5
2F
330
9
100
AcDbSymbolTableRecord
100
AcDbBlockTableRecord
  2
31 Solarlux p_03 - 31Solarlux p_03-971071-00_0 Basismaterialen
340
0
 70
0
280
1
281
0
  0
ENDTAB
  0
ENDSEC
  0
SECTION
  2
BLOCKS
  0
BLOCK
  5
18
330
17
100
AcDbEntity
  8
0
100
AcDbBlockBegin
  2
*Model_Space
 70
0
 10
0.0
 20
0.0
 30
0.0
  3
*Model_Space
  1

  0
ENDBLK
  5
19
330
17
100
AcDbEntity
  8
0
100
AcDbBlockEnd
  0
BLOCK
  5
1C
330
1B
100
AcDbEntity
  8
0
100
AcDbBlockBegin
  2
*Paper_Space
 70
0
 10
0.0
 20
0.0
 30
0.0
  3
*Paper_Space
  1

  0
ENDBLK
  5
1D
330
1B
100
AcDbEntity
  8
0
100
AcDbBlockEnd
  0
BLOCK
  5
30
330
2F
100
AcDbEntity
  8
0
100
AcDbBlockBegin
  2
31 Solarlux p_03 - 31Solarlux p_03-971071-00_0 Basismaterialen
 70
0
 10
0.0
 20
0.0
 30
0.0
  3
31 Solarlux p_03 - 31Solarlux p_03-971071-00_0 Basismaterialen
  1

  0
HATCH
  5
32
330
2F
100
AcDbEntity
  8
A-DETL-GENF
100
AcDbHatch
 10
0.0
 20
0.0
 30
0.0
210
0.0
220
0.0
230
1.0
  2
SOLID
 70
1
 71
0
 91
3
 92
1
 93
122
 72
1
 10
-1.300000000025693
 20
-30.08941714579317
 11
-1.050000000021418
 21
-30.02242984768782
 72
1
 10
-1.050000000021418
 20
-30.02242984768782
 11
-0.9464466094240037
 21
-29.94297053638847
 72
1
 10
-0.9464466094240037
 20
-29.94297053638847
 11
-0.8000000000171439
 21
-29.58941714579328
 72
1
 10
-0.8000000000171439
 20
-29.58941714579328
 11
-0.8000000000171439
 21
-26.49999999999398
 72
1
 10
-0.8000000000171439
 20
-26.49999999999398
 11
-0.400000000017235
 21
-26.39282032302109
 72
1
 10
-0.400000000017235
 20
-26.39282032302109
 11
-0.1071796769902107
 21
-26.09999999999407
 72
1
 10
-0.1071796769902107
 20
-26.09999999999407
 11
-1.29944e-11
 21
-25.69999999999416
 72
1
 10
-1.29944e-11
 20
-25.69999999999416
 11
-1.29944e-11
 21
-23.09999999999908
 72
1
 10
-1.29944e-11
 20
-23.09999999999908
 11
-1.300000000012698
 21
-21.79999999999937
 72
1
 10
-1.300000000012698
 20
-21.79999999999937
 11
-10.70000000001922
 21
-21.79999999999937
 72
1
 10
-10.70000000001922
 20
-21.79999999999937
 11
-11.58284271246579
 21
-20.9171572874272
 72
1
 10
-11.58284271246579
 20
-20.9171572874272
 11
-12.46568542491668
 21
-21.79999999999937
 72
1
 10
-12.46568542491668
 20
-21.79999999999937
 11
-13.70000000001854
 21
-21.79999999999937
 72
1
 10
-13.70000000001854
 20
-21.79999999999937
 11
-15.5000000000138
 21
-19.99999999999978
 72
1
 10
-15.5000000000138
 20
-19.99999999999978
 11
-13.70000000001854
 21
-18.20000000000019
 72
1
 10
-13.70000000001854
 20
-18.20000000000019
 11
-12.46568542491668
 21
-18.20000000000019
 72
1
 10
-12.46568542491668
 20
-18.20000000000019
 11
-11.58284271246579
 21
-19.08284271245325
 72
1
 10
-11.58284271246579
 20
-19.08284271245325
 11
-10.70000000001922
 21
-18.20000000000019
 72
1
 10
-10.70000000001922
 20
-18.20000000000019
 11
-1.300000000012698
 21
-18.20000000000019
 72
1
 10
-1.300000000012698
 20
-18.20000000000019
 11
-1.29945e-11
 21
-16.90000000000049
 72
1
 10
-1.29944e-11
 20
-16.90000000000049
 11
-1.29944e-11
 21
-14.40192378859857
 72
1
 10
-1.29944e-11
 20
-14.40192378859857
 11
-1.500000000012653
 21
-14.00000000000115
 72
1
 10
-1.500000000012653
 20
-14.00000000000115
 11
-1.500000000012653
 21
-16.00000000000069
 72
1
 10
-1.500000000012653
 20
-16.00000000000069
 11
-5.000000000016188
 21
-16.00000000000069
 72
1
 10
-5.000000000016188
 20
-16.00000000000069
 11
-5.000000000016188
 21
-1.999999999999545
 72
1
 10
-5.000000000016188
 20
-1.999999999999545
 11
-1.500000000012653
 21
-1.999999999999545
 72
1
 10
-1.500000000012653
 20
-1.999999999999545
 11
-1.500000000012653
 21
-3.99999999999909
 72
1
 10
-1.500000000012653
 20
-3.99999999999909
 11
-1.29945e-11
 21
-3.598076211397335
 72
1
 10
-1.29944e-11
 20
-3.598076211397335
 11
-1.29944e-11
 21
0.0
 72
1
 10
-1.29944e-11
 20
0.0
 11
-60.00000000001668
 21
0.0
 72
1
 10
-60.00000000001668
 20
0.0
 11
-61.29409522552628
 21
-0.1703708685524987
 72
1
 10
-61.29409522552628
 20
-0.1703708685524987
 11
-62.50000000001178
 21
-0.6698729810772818
 72
1
 10
-62.50000000001178
 20
-0.6698729810772818
 11
-63.53553390594695
 21
-1.464466094064266
 72
1
 10
-63.53553390594695
 20
-1.464466094064266
 11
-64.3301270189361
 21
-2.499999999999431
 72
1
 10
-64.3301270189361
 20
-2.499999999999431
 11
-64.82962913146088
 21
-3.705904774487095
 72
1
 10
-64.82962913146088
 20
-3.705904774487095
 11
-65.00000000001121
 21
-4.999999999998863
 72
1
 10
-65.00000000001121
 20
-4.999999999998863
 11
-65.00000000001121
 21
-8.499999999998067
 72
1
 10
-65.00000000001121
 20
-8.499999999998067
 11
-62.80000000001604
 21
-8.499999999998067
 72
1
 10
-62.80000000001604
 20
-8.499999999998067
 11
-62.80000000001604
 21
-7.499999999998294
 72
1
 10
-62.80000000001604
 20
-7.499999999998294
 11
-64.00000000001144
 21
-7.499999999998294
 72
1
 10
-64.00000000001144
 20
-7.499999999998294
 11
-64.00000000001144
 21
-6.19999999999859
 72
1
 10
-64.00000000001144
 20
-6.19999999999859
 11
-58.50000000001703
 21
-6.19999999999859
 72
1
 10
-58.50000000001703
 20
-6.19999999999859
 11
-58.50000000001703
 21
-7.499999999998294
 72
1
 10
-58.50000000001703
 20
-7.499999999998294
 11
-59.70000000001242
 21
-7.499999999998294
 72
1
 10
-59.70000000001242
 20
-7.499999999998294
 11
-59.70000000001242
 21
-8.499999999998067
 72
1
 10
-59.70000000001242
 20
-8.499999999998067
 11
-57.50000000001725
 21
-8.499999999998067
 72
1
 10
-57.50000000001725
 20
-8.499999999998067
 11
-57.55111126058105
 21
-5.811771432343976
 72
1
 10
-57.55111126058105
 20
-5.811771432343976
 11
-57.70096189433761
 21
-5.449999999998761
 72
1
 10
-57.70096189433761
 20
-5.449999999998761
 11
-57.93933982823783
 21
-5.139339828219511
 72
1
 10
-57.93933982823783
 20
-5.139339828219511
 11
-58.25000000001708
 21
-4.900961894321466
 72
1
 10
-58.25000000001708
 20
-4.900961894321466
 11
-58.61177143236012
 21
-4.751111260564897
 72
1
 10
-58.61177143236012
 20
-4.751111260564897
 11
-59.00000000001691
 21
-4.699999999998931
 72
1
 10
-59.00000000001691
 20
-4.699999999998931
 11
-62.98496231133625
 21
-4.699999999998931
 72
1
 10
-62.98496231133625
 20
-4.699999999998931
 11
-62.82295004247822
 21
-3.984641414199194
 72
1
 10
-62.82295004247822
 20
-3.984641414199194
 11
-62.49219252172025
 21
-3.329977115494017
 72
1
 10
-62.49219252172025
 20
-3.329977115494017
 11
-62.01246117976349
 21
-2.77514045387162
 72
1
 10
-62.01246117976349
 20
-2.77514045387162
 11
-61.41243253760753
 21
-2.353297461601863
 72
1
 10
-61.41243253760753
 20
-2.353297461601863
 11
-60.72797403279657
 21
-2.089664313587343
 72
1
 10
-60.72797403279657
 20
-2.089664313587343
 11
-60.00000000001668
 21
-1.999999999999545
 72
1
 10
-60.00000000001668
 20
-1.999999999999545
 11
-50.20000000001457
 21
-1.999999999999545
 72
1
 10
-50.20000000001457
 20
-1.999999999999545
 11
-50.20000000001457
 21
-4.199999999999045
 72
1
 10
-50.20000000001457
 20
-4.199999999999045
 11
-52.20000000001412
 21
-4.199999999999045
 72
1
 10
-52.20000000001412
 20
-4.199999999999045
 11
-52.20000000001412
 21
-5.199999999998818
 72
1
 10
-52.20000000001412
 20
-5.199999999998818
 11
-49.81177143236212
 21
-5.148888739432851
 72
1
 10
-49.81177143236212
 20
-5.148888739432851
 11
-49.45000000001474
 21
-4.999038105676283
 72
1
 10
-49.45000000001474
 20
-4.999038105676283
 11
-49.13933982823983
 21
-4.760660171778238
 72
1
 10
-49.13933982823983
 20
-4.760660171778238
 11
-48.90096189433961
 21
-4.449999999998988
 72
1
 10
-48.90096189433961
 20
-4.449999999998988
 11
-48.75111126058305
 21
-4.088228567651606
 72
1
 10
-48.75111126058305
 20
-4.088228567651606
 11
-48.70000000001492
 21
-3.699999999999159
 72
1
 10
-48.70000000001492
 20
-3.699999999999159
 11
-48.70000000001492
 21
-1.999999999999545
 72
1
 10
-48.70000000001492
 20
-1.999999999999545
 11
-23.20000000001205
 21
-1.999999999999545
 72
1
 10
-23.20000000001205
 20
-1.999999999999545
 11
-23.20000000001205
 21
-17.49999999999169
 72
1
 10
-23.20000000001205
 20
-17.49999999999169
 11
-48.25881904511959
 21
-17.53407417370306
 72
1
 10
-48.25881904511959
 20
-17.53407417370306
 11
-48.50000000001929
 21
-17.63397459620671
 72
1
 10
-48.50000000001929
 20
-17.63397459620671
 11
-48.70710678120546
 21
-17.79289321880541
 72
1
 10
-48.70710678120546
 20
-17.79289321880541
 11
-48.86602540379982
 21
-17.99999999999158
 72
1
 10
-48.86602540379982
 20
-17.99999999999158
 11
-48.96592582630565
 21
-18.24118095488911
 72
1
 10
-48.96592582630565
 20
-18.24118095488911
 11
-49.00000000001485
 21
-18.49999999999146
 72
1
 10
-49.00000000001485
 20
-18.49999999999146
 11
-49.00000000001485
 21
-19.29999999999128
 72
1
 10
-49.00000000001485
 20
-19.29999999999128
 11
-38.00000000001735
 21
-19.29999999999128
 72
1
 10
-38.00000000001735
 20
-19.29999999999128
 11
-38.00000000001735
 21
-20.79999999999094
 72
1
 10
-38.00000000001735
 20
-20.79999999999094
 11
-40.0000000000169
 21
-21.0499999999519
 72
1
 10
-40.0000000000169
 20
-21.0499999999519
 11
-40.0000000000169
 21
-22.94999999991898
 72
1
 10
-40.0000000000169
 20
-22.94999999991898
 11
-38.00000000001735
 21
-23.19999999999473
 72
1
 10
-38.00000000001735
 20
-23.19999999999473
 11
-38.00000000001735
 21
-24.69999999999439
 72
1
 10
-38.00000000001735
 20
-24.69999999999439
 11
-45.33293714060721
 21
-24.73066675633266
 72
1
 10
-45.33293714060721
 20
-24.73066675633266
 11
-45.5500000000113
 21
-24.82057713658834
 72
1
 10
-45.5500000000113
 20
-24.82057713658834
 11
-45.73639610308145
 21
-24.9636038969263
 72
1
 10
-45.73639610308145
 20
-24.9636038969263
 11
-45.87942286342157
 21
-25.14999999999429
 72
1
 10
-45.87942286342157
 20
-25.14999999999429
 11
-45.96933324367292
 21
-25.36706285940054
 72
1
 10
-45.96933324367292
 20
-25.36706285940054
 11
-46.00000000001553
 21
-25.59999999999418
 72
1
 10
-46.00000000001553
 20
-25.59999999999418
 11
-45.96933324367292
 21
-25.83293714058565
 72
1
 10
-45.96933324367292
 20
-25.83293714058565
 11
-45.87942286342157
 21
-26.04999999999408
 72
1
 10
-45.87942286342157
 20
-26.04999999999408
 11
-45.73639610308145
 21
-26.23639610306206
 72
1
 10
-45.73639610308145
 20
-26.23639610306206
 11
-45.5500000000113
 21
-26.37942286340002
 72
1
 10
-45.5500000000113
 20
-26.37942286340002
 11
-45.33293714060721
 21
-26.46933324365353
 72
1
 10
-45.33293714060721
 20
-26.46933324365353
 11
-45.10000000001141
 21
-26.49999999999398
 72
1
 10
-45.10000000001141
 20
-26.49999999999398
 11
-25.00000000001164
 21
-26.49999999999398
 72
1
 10
-25.00000000001164
 20
-26.49999999999398
 11
-24.98296291315704
 21
-29.71882666834554
 72
1
 10
-24.98296291315704
 20
-29.71882666834554
 11
-24.85355339060479
 21
-29.94297053638847
 72
1
 10
-24.85355339060479
 20
-29.94297053638847
 11
-24.75000000000737
 21
-30.02242984768782
 72
1
 10
-24.75000000000737
 20
-30.02242984768782
 11
-24.37059047743351
 21
-30.07238005900137
 72
1
 10
-24.37059047743351
 20
-30.07238005900137
 11
-21.95724189746495
 21
-29.42572525589273
 72
1
 10
-21.95724189746495
 20
-29.42572525589273
 11
-23.64641016146702
 21
-26.49999999999398
 72
1
 10
-23.64641016146702
 20
-26.49999999999398
 11
-18.35358983844979
 21
-26.49999999999398
 72
1
 10
-18.35358983844979
 20
-26.49999999999398
 11
-20.0856406460756
 21
-29.49999999999329
 72
1
 10
-20.0856406460756
 20
-29.49999999999329
 11
-18.09477079331496
 21
-29.46592582628409
 72
1
 10
-18.09477079331496
 20
-29.46592582628409
 11
-17.85358983841959
 21
-29.36602540378044
 72
1
 10
-17.85358983841959
 20
-29.36602540378044
 11
-17.64648305723342
 21
-29.20710678118391
 72
1
 10
-17.64648305723342
 20
-29.20710678118391
 11
-17.48756443469537
 21
-28.99999999996309
 72
1
 10
-17.48756443469537
 20
-28.99999999996309
 11
-16.04418876171501
 21
-26.49999999999398
 72
1
 10
-16.04418876171501
 20
-26.49999999999398
 11
-9.755811238214154
 21
-26.49999999999398
 72
1
 10
-9.755811238214154
 20
-26.49999999999398
 11
-8.153516942713066
 21
-29.20710678116875
 72
1
 10
-8.153516942713066
 20
-29.20710678116875
 11
-7.946410161526898
 21
-29.36602540377394
 72
1
 10
-7.946410161526898
 20
-29.36602540377394
 11
-7.705229206622869
 21
-29.46592582628193
 72
1
 10
-7.705229206622869
 20
-29.46592582628193
 11
-7.446410161514018
 21
-29.49999999999329
 72
1
 10
-7.446410161514018
 20
-29.49999999999329
 11
-5.714359353961845
 21
-29.49999999999329
 72
1
 10
-5.714359353961845
 20
-29.49999999999329
 11
-7.44641016146204
 21
-26.49999999999398
 72
1
 10
-7.44641016146204
 20
-26.49999999999398
 11
-2.153589838453479
 21
-26.49999999999398
 72
1
 10
-2.153589838453478
 20
-26.49999999999398
 11
-3.842758102559503
 21
-29.42572525586891
 72
1
 10
-3.842758102559503
 20
-29.42572525586891
 11
-1.429409522573621
 21
-30.07238005893424
 72
1
 10
-1.429409522573621
 20
-30.07238005893424
 11
-1.300000000025693
 21
-30.08941714579317
 97
0
 92
1
 93
16
 72
1
 10
-36.20000000001343
 20
-24.69999999999439
 11
-36.20000000001343
 21
-19.29999999999128
 72
1
 10
-36.20000000001343
 20
-19.29999999999128
 11
-21.70000000001239
 21
-19.29999999999128
 72
1
 10
-21.70000000001239
 20
-19.29999999999128
 11
-21.70000000001239
 21
-17.70000000000031
 72
1
 10
-21.70000000001239
 20
-17.70000000000031
 11
-16.52842712471944
 21
-17.70000000000031
 72
1
 10
-16.52842712471944
 20
-17.70000000000031
 11
-16.52842712471944
 21
-18.90805785447391
 72
1
 10
-16.52842712471944
 20
-18.90805785447391
 11
-16.74918605894217
 21
-19.16961804560862
 72
1
 10
-16.74918605894217
 20
-19.16961804560862
 11
-16.90490501582815
 21
-19.47441280785541
 72
1
 10
-16.90490501582815
 20
-19.47441280785541
 11
-16.98747635011198
 21
-19.8065727322641
 72
1
 10
-16.98747635011198
 20
-19.8065727322641
 11
-16.9926009122256
 21
-20.14880361849518
 72
1
 10
-16.9926009122256
 20
-20.14880361849518
 11
-16.92001188729914
 21
-20.48328691267954
 72
1
 10
-16.92001188729914
 20
-20.48328691267954
 11
-16.7734886871507
 21
-20.79260744618002
 72
1
 10
-16.7734886871507
 20
-20.79260744618002
 11
-16.5606601717409
 21
-21.06066017167924
 72
1
 10
-16.5606601717409
 20
-21.06066017167924
 11
-14.32132034351207
 21
-23.29999999999904
 72
1
 10
-14.32132034351207
 20
-23.29999999999904
 11
-10.21243556531133
 21
-23.29999999999904
 72
1
 10
-10.21243556531133
 20
-23.29999999999904
 11
-10.21243556531133
 21
-24.69999999999439
 72
1
 10
-10.21243556531133
 20
-24.69999999999439
 11
-36.20000000001343
 21
-24.69999999999439
 97
0
 92
1
 93
4
 72
1
 10
-21.70000000001239
 20
-16.20000000000065
 11
-21.70000000001239
 21
-1.999999999999545
 72
1
 10
-21.70000000001239
 20
-1.999999999999545
 11
-6.80000000001578
 21
-1.999999999999545
 72
1
 10
-6.80000000001578
 20
-1.999999999999545
 11
-6.80000000001578
 21
-16.20000000000065
 72
1
 10
-6.80000000001578
 20
-16.20000000000065
 11
-21.70000000001239
 21
-16.20000000000065
 97
0
 75
0
 76
1
 98
1
 10
0.0
 20
0.0
450
0
451
0
460
0.0
461
0.0
452
0
462
0.0
453
0
470

  0
LINE
  5
33
330
2F
100
AcDbEntity
  8
A-DETL-GENF
100
AcDbLine
 10
-1.499999999997422
 20
-16.00000000000273
 30
0.0
 11
-4.999999999996653
 21
-16.00000000000276
 31
0.0
  0
LINE
  5
34
330
2F
100
AcDbEntity
  8
A-DETL-GENF
100
AcDbLine
 10
-4.999999999996653
 20
-16.00000000000276
 30
0.0
 11
-4.999999999996738
 21
-2.000000000001609
 31
0.0
  0
LINE
  5
35
330
2F
100
AcDbEntity
  8
A-DETL-GENF
100
AcDbLine
 10
-4.999999999996738
 20
-2.000000000001609
 30
0.0
 11
-1.499999999997422
 21
-2.000000000001588
 31
0.0
  0
LINE
  5
36
330
2F
100
AcDbEntity
  8
A-DETL-GENF
100
AcDbLine
 10
-1.499999999997422
 20
-2.000000000001588
 30
0.0
 11
-1.49999999999741
 21
-4.000000000001152
 31
0.0
  0
LINE
  5
37
330
2F
100
AcDbEntity
  8
A-DETL-GENF
100
AcDbLine
 10
-1.49999999999741
 20
-4.000000000001152
 30
0.0
 11
2.2363e-12
 21
-3.598076211399389
 31
0.0
  0
LINE
  5
38
330
2F
100
AcDbEntity
  8
A-DETL-GENF
100
AcDbLine
 10
2.2361e-12
 20
-3.598076211399389
 30
0.0
 11
2.2141e-12
 21
-2.0642e-12
 31
0.0
  0
LINE
  5
39
330
2F
100
AcDbEntity
  8
A-DETL-GENF
100
AcDbLine
 10
2.2141e-12
 20
-2.0642e-12
 30
0.0
 11
-59.99999999999717
 21
-2.4322e-12
 31
0.0
  0
ARC
  5
3A
330
2F
100
AcDbEntity
  8
A-DETL-GENF
100
AcDbCircle
 10
-59.99999999999713
 20
-5.000000000000933
 30
0.0
 40
5.000000000000008
100
AcDbArc
 50
90.00000000000006
 51
180.0
  0
LINE
  5
3B
330
2F
100
AcDbEntity
  8
A-DETL-GENF
100
AcDbLine
 10
-64.999999999996
 20
-5.000000000000959
 30
0.0
 11
-64.99999999999598
 21
-8.500000000000146
 31
0.0
  0
LINE
  5
3C
330
2F
100
AcDbEntity
  8
A-DETL-GENF
100
AcDbLine
 10
-64.99999999999598
 20
-8.500000000000146
 30
0.0
 11
-62.7999999999965
 21
-8.500000000000131
 31
0.0
  0
LINE
  5
3D
330
2F
100
AcDbEntity
  8
A-DETL-GENF
100
AcDbLine
 10
-62.7999999999965
 20
-8.500000000000131
 30
0.0
 11
-62.79999999999651
 21
-7.500000000000351
 31
0.0
  0
LINE
  5
3E
330
2F
100
AcDbEntity
  8
A-DETL-GENF
100
AcDbLine
 10
-62.79999999999651
 20
-7.500000000000351
 30
0.0
 11
-63.99999999999623
 21
-7.500000000000358
 31
0.0
  0
LINE
  5
3F
330
2F
100
AcDbEntity
  8
A-DETL-GENF
100
AcDbLine
 10
-63.99999999999623
 20
-7.500000000000358
 30
0.0
 11
-63.99999999999625
 21
-6.200000000000654
 31
0.0
  0
LINE
  5
40
330
2F
100
AcDbEntity
  8
A-DETL-GENF
100
AcDbLine
 10
-63.99999999999625
 20
-6.200000000000654
 30
0.0
 11
-63.64999999999866
 21
-6.200000000000652
 31
0.0
  0
LINE
  5
41
330
2F
100
AcDbEntity
  8
A-DETL-GENF
100
AcDbLine
 10
-58.84999999999506
 20
-6.200000000000622
 30
0.0
 11
-58.49999999999748
 21
-6.200000000000621
 31
0.0
  0
LINE
  5
42
330
2F
100
AcDbEntity
  8
A-DETL-GENF
100
AcDbLine
 10
-58.49999999999748
 20
-6.200000000000621
 30
0.0
 11
-58.49999999999747
 21
-7.500000000000358
 31
0.0
  0
LINE
  5
43
330
2F
100
AcDbEntity
  8
A-DETL-GENF
100
AcDbLine
 10
-58.49999999999747
 20
-7.500000000000358
 30
0.0
 11
-59.6999999999972
 21
-7.500000000000366
 31
0.0
  0
LINE
  5
44
330
2F
100
AcDbEntity
  8
A-DETL-GENF
100
AcDbLine
 10
-59.6999999999972
 20
-7.500000000000366
 30
0.0
 11
-59.69999999999719
 21
-8.500000000000135
 31
0.0
  0
LINE
  5
45
330
2F
100
AcDbEntity
  8
A-DETL-GENF
100
AcDbLine
 10
-59.69999999999719
 20
-8.500000000000135
 30
0.0
 11
-57.49999999999769
 21
-8.50000000000012
 31
0.0
  0
LINE
  5
46
330
2F
100
AcDbEntity
  8
A-DETL-GENF
100
AcDbLine
 10
-57.49999999999769
 20
-8.50000000000012
 30
0.0
 11
-57.49999999999771
 21
-6.200000000000636
 31
0.0
  0
ARC
  5
47
330
2F
100
AcDbEntity
  8
A-DETL-GENF
100
AcDbCircle
 10
-58.99999999999736
 20
-6.200000000000654
 30
0.0
 40
1.499999999999998
100
AcDbArc
 50
3.82e-14
 51
90.00000000000006
  0
LINE
  5
48
330
2F
100
AcDbEntity
  8
A-DETL-GENF
100
AcDbLine
 10
-58.99999999999737
 20
-4.700000000000986
 30
0.0
 11
-62.984962311317
 21
-4.70000000000101
 31
0.0
  0
ARC
  5
49
330
2F
100
AcDbEntity
  8
A-DETL-GENF
100
AcDbCircle
 10
-59.99999999999714
 20
-5.000000000000929
 30
0.0
 40
3.0
100
AcDbArc
 50
90.0000000000004
 51
174.2608295227348
  0
LINE
  5
4A
330
2F
100
AcDbEntity
  8
A-DETL-GENF
100
AcDbLine
 10
-59.99999999999715
 20
-2.000000000001609
 30
0.0
 11
-50.19999999999936
 21
-2.00000000000155
 31
0.0
  0
LINE
  5
4B
330
2F
100
AcDbEntity
  8
A-DETL-GENF
100
AcDbLine
 10
-50.19999999999936
 20
-2.00000000000155
 30
0.0
 11
-50.19999999999935
 21
-4.200000000001109
 31
0.0
  0
LINE
  5
4C
330
2F
100
AcDbEntity
  8
A-DETL-GENF
100
AcDbLine
 10
-50.19999999999935
 20
-4.200000000001109
 30
0.0
 11
-52.19999999999891
 21
-4.200000000001121
 31
0.0
  0
LINE
  5
4D
330
2F
100
AcDbEntity
  8
A-DETL-GENF
100
AcDbLine
 10
-52.19999999999891
 20
-4.200000000001121
 30
0.0
 11
-52.1999999999989
 21
-5.200000000000882
 31
0.0
  0
LINE
  5
4E
330
2F
100
AcDbEntity
  8
A-DETL-GENF
100
AcDbLine
 10
-52.1999999999989
 20
-5.200000000000882
 30
0.0
 11
-50.19999999999935
 21
-5.200000000000869
 31
0.0
  0
ARC
  5
4F
330
2F
100
AcDbEntity
  8
A-DETL-GENF
100
AcDbCircle
 10
-50.19999999999936
 20
-3.700000000001223
 30
0.0
 40
1.499999999999992
100
AcDbArc
 50
269.9999999999999
 51
2.751e-13
  0
LINE
  5
50
330
2F
100
AcDbEntity
  8
A-DETL-GENF
100
AcDbLine
 10
-48.6999999999997
 20
-3.700000000001204
 30
0.0
 11
-48.69999999999972
 21
-2.000000000001609
 31
0.0
  0
LINE
  5
51
330
2F
100
AcDbEntity
  8
A-DETL-GENF
100
AcDbLine
 10
-48.69999999999972
 20
-2.000000000001609
 30
0.0
 11
-23.19999999999694
 21
-2.000000000001453
 31
0.0
  0
LINE
  5
52
330
2F
100
AcDbEntity
  8
A-DETL-GENF
100
AcDbLine
 10
-23.19999999999694
 20
-2.000000000001453
 30
0.0
 11
-23.19999999999684
 21
-17.49999999999359
 31
0.0
  0
LINE
  5
53
330
2F
100
AcDbEntity
  8
A-DETL-GENF
100
AcDbLine
 10
-23.19999999999684
 20
-17.49999999999359
 30
0.0
 11
-47.99999999999987
 21
-17.49999999999375
 31
0.0
  0
ARC
  5
54
330
2F
100
AcDbEntity
  8
A-DETL-GENF
100
AcDbCircle
 10
-47.99999999999985
 20
-18.49999999999353
 30
0.0
 40
1.000000000000007
100
AcDbArc
 50
90.00000000000081
 51
179.9999999999998
  0
LINE
  5
55
330
2F
100
AcDbEntity
  8
A-DETL-GENF
100
AcDbLine
 10
-48.99999999999964
 20
-18.49999999999353
 30
0.0
 11
-48.99999999999963
 21
-19.29999999999335
 31
0.0
  0
LINE
  5
56
330
2F
100
AcDbEntity
  8
A-DETL-GENF
100
AcDbLine
 10
-48.99999999999963
 20
-19.29999999999335
 30
0.0
 11
-47.79999999999991
 21
-19.29999999999335
 31
0.0
  0
LINE
  5
57
330
2F
100
AcDbEntity
  8
A-DETL-GENF
100
AcDbLine
 10
-47.79999999999992
 20
-19.2999999999934
 30
0.0
 11
-37.99999999999783
 21
-19.29999999999335
 31
0.0
  0
LINE
  5
58
330
2F
100
AcDbEntity
  8
A-DETL-GENF
100
AcDbLine
 10
-37.99999999999783
 20
-19.29999999999335
 30
0.0
 11
-37.99999999999782
 21
-20.79999999999299
 31
0.0
  0
LINE
  5
59
330
2F
100
AcDbEntity
  8
A-DETL-GENF
100
AcDbLine
 10
-37.99999999999782
 20
-20.79999999999299
 30
0.0
 11
-39.99999999999737
 21
-21.04999999995368
 31
0.0
  0
LINE
  5
5A
330
2F
100
AcDbEntity
  8
A-DETL-GENF
100
AcDbLine
 10
-39.99999999999737
 20
-21.04999999995368
 30
0.0
 11
-39.99999999999737
 21
-22.94999999992143
 31
0.0
  0
LINE
  5
5B
330
2F
100
AcDbEntity
  8
A-DETL-GENF
100
AcDbLine
 10
-39.99999999999737
 20
-22.94999999992143
 30
0.0
 11
-37.99999999999783
 21
-23.19999999999679
 31
0.0
  0
LINE
  5
5C
330
2F
100
AcDbEntity
  8
A-DETL-GENF
100
AcDbLine
 10
-37.99999999999783
 20
-23.19999999999679
 30
0.0
 11
-37.99999999999782
 21
-24.6999999999964
 31
0.0
  0
LINE
  5
5D
330
2F
100
AcDbEntity
  8
A-DETL-GENF
100
AcDbLine
 10
-37.99999999999782
 20
-24.6999999999964
 30
0.0
 11
-45.0999999999962
 21
-24.69999999999645
 31
0.0
  0
ARC
  5
5E
330
2F
100
AcDbEntity
  8
A-DETL-GENF
100
AcDbCircle
 10
-45.09999999999619
 20
-25.59999999999624
 30
0.0
 40
0.8999999999999992
100
AcDbArc
 50
90.00000000000058
 51
270.0000000000002
  0
LINE
  5
5F
330
2F
100
AcDbEntity
  8
A-DETL-GENF
100
AcDbLine
 10
-45.09999999999618
 20
-26.49999999999604
 30
0.0
 11
-24.99999999999646
 21
-26.49999999999591
 31
0.0
  0
LINE
  5
60
330
2F
100
AcDbEntity
  8
A-DETL-GENF
100
AcDbLine
 10
-24.99999999999646
 20
-26.49999999999591
 30
0.0
 11
-24.99999999999644
 21
-29.58941714579535
 31
0.0
  0
ARC
  5
61
330
2F
100
AcDbEntity
  8
A-DETL-GENF
100
AcDbCircle
 10
-24.49999999999656
 20
-29.58941714579534
 30
0.0
 40
0.5000000000000079
100
AcDbArc
 50
180.0000000000006
 51
285.0000000010762
  0
LINE
  5
62
330
2F
100
AcDbEntity
  8
A-DETL-GENF
100
AcDbLine
 10
-24.3705904774187
 20
-30.07238005900285
 30
0.0
 11
-21.95724189744467
 21
-29.42572525589541
 31
0.0
  0
LINE
  5
63
330
2F
100
AcDbEntity
  8
A-DETL-GENF
100
AcDbLine
 10
-21.95724189744467
 20
-29.4257252558954
 30
0.0
 11
-23.64641016144859
 21
-26.49999999999604
 31
0.0
  0
LINE
  5
64
330
2F
100
AcDbEntity
  8
A-DETL-GENF
100
AcDbLine
 10
-23.64641016144859
 20
-26.49999999999604
 30
0.0
 11
-18.35358983843403
 21
-26.49999999999601
 31
0.0
  0
LINE
  5
65
330
2F
100
AcDbEntity
  8
A-DETL-GENF
100
AcDbLine
 10
-18.35358983843403
 20
-26.49999999999601
 30
0.0
 11
-20.08564064606092
 21
-29.49999999999537
 31
0.0
  0
LINE
  5
66
330
2F
100
AcDbEntity
  8
A-DETL-GENF
100
AcDbLine
 10
-20.08564064606092
 20
-29.49999999999537
 30
0.0
 11
-18.35358983839993
 21
-29.49999999999535
 31
0.0
  0
ARC
  5
67
330
2F
100
AcDbEntity
  8
A-DETL-GENF
100
AcDbCircle
 10
-18.35358983839994
 20
-28.49999999999558
 30
0.0
 40
1.000000000000005
100
AcDbArc
 50
270.0000000000002
 51
329.9999999995881
  0
LINE
  5
68
330
2F
100
AcDbEntity
  8
A-DETL-GENF
100
AcDbLine
 10
-17.48756443468063
 20
-28.99999999996627
 30
0.0
 11
-16.04418876169982
 21
-26.49999999999604
 31
0.0
  0
LINE
  5
69
330
2F
100
AcDbEntity
  8
A-DETL-GENF
100
AcDbLine
 10
-16.04418876169982
 20
-26.49999999999604
 30
0.0
 11
-9.755811238198971
 21
-26.499999999996
 31
0.0
  0
LINE
  5
6A
330
2F
100
AcDbEntity
  8
A-DETL-GENF
100
AcDbLine
 10
-9.755811238198971
 20
-26.499999999996
 30
0.0
 11
-8.312435565303863
 21
-28.99999999998278
 31
0.0
  0
ARC
  5
6B
330
2F
100
AcDbEntity
  8
A-DETL-GENF
100
AcDbCircle
 10
-7.446410161498819
 20
-28.49999999999559
 30
0.0
 40
0.9999999999999891
100
AcDbArc
 50
209.9999999987734
 51
270.0000000000003
  0
LINE
  5
6C
330
2F
100
AcDbEntity
  8
A-DETL-GENF
100
AcDbLine
 10
-7.446410161498807
 20
-29.49999999999536
 30
0.0
 11
-5.71435935394556
 21
-29.49999999999535
 31
0.0
  0
LINE
  5
6D
330
2F
100
AcDbEntity
  8
A-DETL-GENF
100
AcDbLine
 10
-5.714359353945561
 20
-29.49999999999535
 30
0.0
 11
-7.44641016144794
 21
-26.49999999999604
 31
0.0
  0
LINE
  5
6E
330
2F
100
AcDbEntity
  8
A-DETL-GENF
100
AcDbLine
 10
-7.446410161447942
 20
-26.49999999999604
 30
0.0
 11
-2.153589838433359
 21
-26.49999999999601
 31
0.0
  0
LINE
  5
6F
330
2F
100
AcDbEntity
  8
A-DETL-GENF
100
AcDbLine
 10
-2.153589838433358
 20
-26.49999999999601
 30
0.0
 11
-3.842758102544109
 21
-29.42572525587014
 31
0.0
  0
LINE
  5
70
330
2F
100
AcDbEntity
  8
A-DETL-GENF
100
AcDbLine
 10
-3.84275810254411
 20
-29.42572525587014
 30
0.0
 11
-1.429409522568643
 21
-30.07238005897793
 31
0.0
  0
ARC
  5
71
330
2F
100
AcDbEntity
  8
A-DETL-GENF
100
AcDbCircle
 10
-1.299999999997467
 20
-29.58941714579534
 30
0.0
 40
0.499999999999999
100
AcDbArc
 50
254.9999999989237
 51
0.0
  0
LINE
  5
72
330
2F
100
AcDbEntity
  8
A-DETL-GENF
100
AcDbLine
 10
-0.7999999999975821
 20
-29.58941714579534
 30
0.0
 11
-0.7999999999976022
 21
-26.49999999999623
 31
0.0
  0
ARC
  5
73
330
2F
100
AcDbEntity
  8
A-DETL-GENF
100
AcDbCircle
 10
-0.7999999999975808
 20
-25.69999999999622
 30
0.0
 40
0.800000000000003
100
AcDbArc
 50
269.9999999999981
 51
2.688e-13
  0
LINE
  5
74
330
2F
100
AcDbEntity
  8
A-DETL-GENF
100
AcDbLine
 10
2.2992e-12
 20
-25.69999999999622
 30
0.0
 11
2.2821e-12
 21
-23.10000000000117
 31
0.0
  0
LINE
  5
75
330
2F
100
AcDbEntity
  8
A-DETL-GENF
100
AcDbLine
 10
2.2826e-12
 20
-23.10000000000117
 30
0.0
 11
-1.299999999997531
 21
-21.80000000000138
 31
0.0
  0
LINE
  5
76
330
2F
100
AcDbEntity
  8
A-DETL-GENF
100
AcDbLine
 10
-1.299999999997529
 20
-21.80000000000138
 30
0.0
 11
-10.69999999999968
 21
-21.80000000000144
 31
0.0
  0
LINE
  5
77
330
2F
100
AcDbEntity
  8
A-DETL-GENF
100
AcDbLine
 10
-10.69999999999968
 20
-21.80000000000144
 30
0.0
 11
-11.58284271244842
 21
-20.91715728742892
 31
0.0
  0
LINE
  5
78
330
2F
100
AcDbEntity
  8
A-DETL-GENF
100
AcDbLine
 10
-11.58284271244842
 20
-20.91715728742892
 30
0.0
 11
-12.46568542489713
 21
-21.80000000000143
 31
0.0
  0
LINE
  5
79
330
2F
100
AcDbEntity
  8
A-DETL-GENF
100
AcDbLine
 10
-12.46568542489713
 20
-21.80000000000143
 30
0.0
 11
-13.69999999999898
 21
-21.80000000000144
 31
0.0
  0
LINE
  5
7A
330
2F
100
AcDbEntity
  8
A-DETL-GENF
100
AcDbLine
 10
-13.69999999999898
 20
-21.80000000000144
 30
0.0
 11
-15.49999999999858
 21
-20.00000000000186
 31
0.0
  0
LINE
  5
7B
330
2F
100
AcDbEntity
  8
A-DETL-GENF
100
AcDbLine
 10
-15.49999999999858
 20
-20.00000000000186
 30
0.0
 11
-13.69999999999901
 21
-18.20000000000226
 31
0.0
  0
LINE
  5
7C
330
2F
100
AcDbEntity
  8
A-DETL-GENF
100
AcDbLine
 10
-13.69999999999901
 20
-18.20000000000226
 30
0.0
 11
-12.46568542489715
 21
-18.20000000000226
 31
0.0
  0
LINE
  5
7D
330
2F
100
AcDbEntity
  8
A-DETL-GENF
100
AcDbLine
 10
-12.46568542489715
 20
-18.20000000000226
 30
0.0
 11
-11.58284271244841
 21
-19.08284271245615
 31
0.0
  0
LINE
  5
7E
330
2F
100
AcDbEntity
  8
A-DETL-GENF
100
AcDbLine
 10
-11.5828427124484
 20
-19.08284271245615
 30
0.0
 11
-10.69999999999973
 21
-18.2000000000023
 31
0.0
  0
LINE
  5
7F
330
2F
100
AcDbEntity
  8
A-DETL-GENF
100
AcDbLine
 10
-10.69999999999973
 20
-18.2000000000023
 30
0.0
 11
-1.299999999997434
 21
-18.20000000000224
 31
0.0
  0
LINE
  5
80
330
2F
100
AcDbEntity
  8
A-DETL-GENF
100
AcDbLine
 10
-1.299999999997434
 20
-18.20000000000224
 30
0.0
 11
2.2527e-12
 21
-16.90000000000253
 31
0.0
  0
LINE
  5
81
330
2F
100
AcDbEntity
  8
A-DETL-GENF
100
AcDbLine
 10
2.2524e-12
 20
-16.90000000000253
 30
0.0
 11
2.2361e-12
 21
-14.40192378860063
 31
0.0
  0
LINE
  5
82
330
2F
100
AcDbEntity
  8
A-DETL-GENF
100
AcDbLine
 10
2.2366e-12
 20
-14.40192378860063
 30
0.0
 11
-1.499999999997436
 21
-14.00000000000321
 31
0.0
  0
LINE
  5
83
330
2F
100
AcDbEntity
  8
A-DETL-GENF
100
AcDbLine
 10
-1.499999999997436
 20
-14.00000000000321
 30
0.0
 11
-1.499999999997422
 21
-16.00000000000273
 31
0.0
  0
LINE
  5
84
330
2F
100
AcDbEntity
  8
A-DETL-GENF
100
AcDbLine
 10
-6.799999999996157
 20
-16.20000000000261
 30
0.0
 11
-21.69999999999719
 21
-16.20000000000271
 31
0.0
  0
LINE
  5
85
330
2F
100
AcDbEntity
  8
A-DETL-GENF
100
AcDbLine
 10
-21.69999999999719
 20
-16.20000000000271
 30
0.0
 11
-21.69999999999728
 21
-2.000000000001609
 31
0.0
  0
LINE
  5
86
330
2F
100
AcDbEntity
  8
A-DETL-GENF
100
AcDbLine
 10
-21.69999999999728
 20
-2.000000000001609
 30
0.0
 11
-6.799999999996243
 21
-2.000000000001518
 31
0.0
  0
LINE
  5
87
330
2F
100
AcDbEntity
  8
A-DETL-GENF
100
AcDbLine
 10
-6.799999999996243
 20
-2.000000000001518
 30
0.0
 11
-6.799999999996157
 21
-16.20000000000261
 31
0.0
  0
LINE
  5
88
330
2F
100
AcDbEntity
  8
A-DETL-GENF
100
AcDbLine
 10
-21.69999999999719
 20
-17.7000000000024
 30
0.0
 11
-16.5284271246999
 21
-17.70000000000237
 31
0.0
  0
LINE
  5
89
330
2F
100
AcDbEntity
  8
A-DETL-GENF
100
AcDbLine
 10
-16.5284271246999
 20
-17.70000000000237
 30
0.0
 11
-16.52842712469989
 21
-18.90805785447462
 31
0.0
  0
ARC
  5
8A
330
2F
100
AcDbEntity
  8
A-DETL-GENF
100
AcDbCircle
 10
-15.4999999999986
 20
-20.00000000000185
 30
0.0
 40
1.499999999999997
100
AcDbArc
 50
133.2842352897456
 51
224.9999999987812
  0
LINE
  5
8B
330
2F
100
AcDbEntity
  8
A-DETL-GENF
100
AcDbLine
 10
-16.56066017172228
 20
-21.06066017168042
 30
0.0
 11
-14.32132034349684
 21
-23.30000000000112
 31
0.0
  0
LINE
  5
8C
330
2F
100
AcDbEntity
  8
A-DETL-GENF
100
AcDbLine
 10
-14.32132034349683
 20
-23.30000000000112
 30
0.0
 11
-10.21243556529612
 21
-23.3000000000011
 31
0.0
  0
LINE
  5
8D
330
2F
100
AcDbEntity
  8
A-DETL-GENF
100
AcDbLine
 10
-10.21243556529612
 20
-23.3000000000011
 30
0.0
 11
-10.21243556529611
 21
-24.69999999999628
 31
0.0
  0
LINE
  5
8E
330
2F
100
AcDbEntity
  8
A-DETL-GENF
100
AcDbLine
 10
-10.21243556529611
 20
-24.69999999999628
 30
0.0
 11
-36.19999999999819
 21
-24.69999999999645
 31
0.0
  0
LINE
  5
8F
330
2F
100
AcDbEntity
  8
A-DETL-GENF
100
AcDbLine
 10
-36.19999999999819
 20
-24.69999999999645
 30
0.0
 11
-36.19999999999823
 21
-19.29999999999335
 31
0.0
  0
LINE
  5
90
330
2F
100
AcDbEntity
  8
A-DETL-GENF
100
AcDbLine
 10
-36.19999999999823
 20
-19.29999999999335
 30
0.0
 11
-21.69999999999718
 21
-19.29999999999326
 31
0.0
  0
LINE
  5
91
330
2F
100
AcDbEntity
  8
A-DETL-GENF
100
AcDbLine
 10
-21.69999999999718
 20
-19.29999999999326
 30
0.0
 11
-21.69999999999719
 21
-17.7000000000024
 31
0.0
  0
LINE
  5
92
330
2F
100
AcDbEntity
  8
A-DETL-GENF
100
AcDbLine
 10
-63.64999999999685
 20
-6.200000000000637
 30
0.0
 11
-63.64999999999685
 21
-7.200000000000637
 31
0.0
  0
LINE
  5
93
330
2F
100
AcDbEntity
  8
A-DETL-GENF
100
AcDbLine
 10
-63.64999999999685
 20
-7.200000000000637
 30
0.0
 11
-58.84999999999687
 21
-7.200000000000637
 31
0.0
  0
LINE
  5
94
330
2F
100
AcDbEntity
  8
A-DETL-GENF
100
AcDbLine
 10
-58.84999999999687
 20
-7.200000000000637
 30
0.0
 11
-58.84999999999687
 21
-6.200000000000637
 31
0.0
  0
LINE
  5
95
330
2F
100
AcDbEntity
  8
A-DETL-GENF
100
AcDbLine
 10
-58.84999999999687
 20
-6.200000000000637
 30
0.0
 11
-63.64999999999685
 21
-6.200000000000637
 31
0.0
  0
LINE
  5
96
330
2F
100
AcDbEntity
  8
A-DETL-GENF
100
AcDbLine
 10
-61.24999999999686
 20
-7.200000000000643
 30
0.0
 11
-61.24999999999687
 21
-10.00000000000196
 31
0.0
  0
LINE
  5
97
330
2F
100
AcDbEntity
  8
A-DETL-GENF
100
AcDbLine
 10
-61.24999999999686
 20
-7.200000000000643
 30
0.0
 11
-60.49974226118937
 21
-10.00000000000196
 31
0.0
  0
LINE
  5
98
330
2F
100
AcDbEntity
  8
A-DETL-GENF
100
AcDbLine
 10
-61.24999999999686
 20
-7.200000000000643
 30
0.0
 11
-62.00025773880436
 21
-10.00000000000196
 31
0.0
  0
LINE
  5
99
330
2F
100
AcDbEntity
  8
A-DETL-GENF
100
AcDbLine
 10
-60.73236190979183
 20
-7.200000000000637
 30
0.0
 11
-59.98210417098433
 21
-10.00000000000196
 31
0.0
  0
LINE
  5
9A
330
2F
100
AcDbEntity
  8
A-DETL-GENF
100
AcDbLine
 10
-61.24999999999686
 20
-7.200000000000642
 30
0.0
 11
-60.49974226118937
 21
-10.00000000000196
 31
0.0
  0
LINE
  5
9B
330
2F
100
AcDbEntity
  8
A-DETL-GENF
100
AcDbLine
 10
-60.21472381958678
 20
-7.200000000000637
 30
0.0
 11
-59.46446608077929
 21
-10.00000000000196
 31
0.0
  0
LINE
  5
9C
330
2F
100
AcDbEntity
  8
A-DETL-GENF
100
AcDbLine
 10
-61.7676380902019
 20
-7.200000000000637
 30
0.0
 11
-62.5178958290094
 21
-10.00000000000195
 31
0.0
  0
LINE
  5
9D
330
2F
100
AcDbEntity
  8
A-DETL-GENF
100
AcDbLine
 10
-62.28527618040694
 20
-7.200000000000637
 30
0.0
 11
-63.03553391921443
 21
-10.00000000000195
 31
0.0
  0
ENDBLK
  5
31
330
2F
100
AcDbEntity
  8
0
100
AcDbBlockEnd
  0
ENDSEC
  0
SECTION
  2
ENTITIES
  0
INSERT
  5
9F
330
17
100
AcDbEntity
  8
0
100
AcDbBlockReference
  2
31 Solarlux p_03 - 31Solarlux p_03-971071-00_0 Basismaterialen
 10
0.0
 20
0.0
 30
0.0
  0
ENDSEC
  0
SECTION
  2
OBJECTS
  0
DICTIONARY
  5
A
330
0
100
AcDbDictionary
281
1
  3
ACAD_COLOR
350
B
  3
ACAD_GROUP
350
C
  3
ACAD_LAYOUT
350
D
  3
ACAD_MATERIAL
350
E
  3
ACAD_MLEADERSTYLE
350
F
  3
ACAD_MLINESTYLE
350
10
  3
ACAD_PLOTSETTINGS
350
11
  3
ACAD_PLOTSTYLENAME
350
12
  3
ACAD_SCALELIST
350
14
  3
ACAD_TABLESTYLE
350
15
  3
ACAD_VISUALSTYLE
350
16
  3
EZDXF_META
350
2D
  0
DICTIONARY
  5
B
330
A
100
AcDbDictionary
281
1
  0
DICTIONARY
  5
C
330
A
100
AcDbDictionary
281
1
  0
DICTIONARY
  5
D
330
A
100
AcDbDictionary
281
1
  3
Model
350
1A
  3
Layout1
350
1E
  0
DICTIONARY
  5
E
330
A
100
AcDbDictionary
281
1
  3
ByBlock
350
1F
  3
ByLayer
350
20
  3
Global
350
21
  0
DICTIONARY
  5
F
330
A
100
AcDbDictionary
281
1
  3
Standard
350
2C
  0
DICTIONARY
  5
10
330
A
100
AcDbDictionary
281
1
  3
Standard
350
22
  0
DICTIONARY
  5
11
330
A
100
AcDbDictionary
281
1
  0
ACDBDICTIONARYWDFLT
  5
12
330
A
100
AcDbDictionary
281
1
  3
Normal
350
13
100
AcDbDictionaryWithDefault
340
13
  0
ACDBPLACEHOLDER
  5
13
330
12
  0
DICTIONARY
  5
14
330
A
100
AcDbDictionary
281
1
  0
DICTIONARY
  5
15
330
A
100
AcDbDictionary
281
1
  0
DICTIONARY
  5
16
330
A
100
AcDbDictionary
281
1
  0
LAYOUT
  5
1A
330
D
100
AcDbPlotSettings
  1

  4
A3
  6

 40
7.5
 41
20.0
 42
7.5
 43
20.0
 44
420.0
 45
297.0
 46
0.0
 47
0.0
 48
0.0
 49
0.0
140
0.0
141
0.0
142
1.0
143
1.0
 70
1024
 72
1
 73
0
 74
5
  7

 75
16
 76
0
 77
2
 78
300
147
1.0
148
0.0
149
0.0
100
AcDbLayout
  1
Model
 70
1
 71
0
 10
0.0
 20
0.0
 11
420.0
 21
297.0
 12
0.0
 22
0.0
 32
0.0
 14
1e+20
 24
1e+20
 34
1e+20
 15
-1e+20
 25
-1e+20
 35
-1e+20
146
0.0
 13
0.0
 23
0.0
 33
0.0
 16
1.0
 26
0.0
 36
0.0
 17
0.0
 27
1.0
 37
0.0
 76
1
330
17
  0
LAYOUT
  5
1E
330
D
100
AcDbPlotSettings
  1

  4
A3
  6

 40
7.5
 41
20.0
 42
7.5
 43
20.0
 44
420.0
 45
297.0
 46
0.0
 47
0.0
 48
0.0
 49
0.0
140
0.0
141
0.0
142
1.0
143
1.0
 70
0
 72
1
 73
0
 74
5
  7

 75
16
 76
0
 77
2
 78
300
147
1.0
148
0.0
149
0.0
100
AcDbLayout
  1
Layout1
 70
1
 71
1
 10
0.0
 20
0.0
 11
420.0
 21
297.0
 12
0.0
 22
0.0
 32
0.0
 14
1e+20
 24
1e+20
 34
1e+20
 15
-1e+20
 25
-1e+20
 35
-1e+20
146
0.0
 13
0.0
 23
0.0
 33
0.0
 16
1.0
 26
0.0
 36
0.0
 17
0.0
 27
1.0
 37
0.0
 76
1
330
1B
  0
MATERIAL
  5
1F
102
{ACAD_REACTORS
330
E
102
}
330
E
100
AcDbMaterial
  1
ByBlock
  2

 70
0
 40
1.0
 71
1
 41
1.0
 91
-1023410177
 42
1.0
 72
1
  3

 73
1
 74
1
 75
1
 44
0.5
 73
0
 45
1.0
 46
1.0
 77
1
  4

 78
1
 79
1
170
1
 48
1.0
171
1
  6

172
1
173
1
174
1
140
1.0
141
1.0
175
1
  7

176
1
177
1
178
1
143
1.0
179
1
  8

270
1
271
1
272
1
145
1.0
146
1.0
273
1
  9

274
1
275
1
276
1
 42
1.0
 72
1
  3

 73
1
 74
1
 75
1
 94
63
  0
MATERIAL
  5
20
102
{ACAD_REACTORS
330
E
102
}
330
E
100
AcDbMaterial
  1
ByLayer
  2

 70
0
 40
1.0
 71
1
 41
1.0
 91
-1023410177
 42
1.0
 72
1
  3

 73
1
 74
1
 75
1
 44
0.5
 73
0
 45
1.0
 46
1.0
 77
1
  4

 78
1
 79
1
170
1
 48
1.0
171
1
  6

172
1
173
1
174
1
140
1.0
141
1.0
175
1
  7

176
1
177
1
178
1
143
1.0
179
1
  8

270
1
271
1
272
1
145
1.0
146
1.0
273
1
  9

274
1
275
1
276
1
 42
1.0
 72
1
  3

 73
1
 74
1
 75
1
 94
63
  0
MATERIAL
  5
21
102
{ACAD_REACTORS
330
E
102
}
330
E
100
AcDbMaterial
  1
Global
  2

 70
0
 40
1.0
 71
1
 41
1.0
 91
-1023410177
 42
1.0
 72
1
  3

 73
1
 74
1
 75
1
 44
0.5
 73
0
 45
1.0
 46
1.0
 77
1
  4

 78
1
 79
1
170
1
 48
1.0
171
1
  6

172
1
173
1
174
1
140
1.0
141
1.0
175
1
  7

176
1
177
1
178
1
143
1.0
179
1
  8

270
1
271
1
272
1
145
1.0
146
1.0
273
1
  9

274
1
275
1
276
1
 42
1.0
 72
1
  3

 73
1
 74
1
 75
1
 94
63
  0
MLINESTYLE
  5
22
102
{ACAD_REACTORS
330
10
102
}
330
10
100
AcDbMlineStyle
  2
Standard
 70
0
  3

 62
256
 51
90.0
 52
90.0
 71
2
 49
0.5
 62
256
  6
BYLAYER
 49
-0.5
 62
256
  6
BYLAYER
  0
MLEADERSTYLE
  5
2C
102
{ACAD_REACTORS
330
F
102
}
330
F
100
AcDbMLeaderStyle
179
2
170
2
171
1
172
0
 90
2
 40
0.0
 41
0.0
173
1
 91
-1056964608
 92
-2
290
1
 42
2.0
291
1
 43
8.0
  3
Standard
 44
4.0
300

342
29
174
1
175
1
176
0
178
1
 93
-1056964608
 45
4.0
292
0
297
0
 46
4.0
 94
-1056964608
 47
1.0
 49
1.0
140
1.0
294
1
141
0.0
177
0
142
1.0
295
0
296
0
143
3.75
271
0
272
9
273
9
  0
DICTIONARY
  5
2D
330
A
100
AcDbDictionary
280
1
281
1
  3
CREATED_BY_EZDXF
350
2E
  3
WRITTEN_BY_EZDXF
350
A3
  0
DICTIONARYVAR
  5
2E
330
2D
100
DictionaryVariables
280
0
  1
1.4.3 @ 2026-02-13T04:54:12.547858+00:00
  0
DICTIONARYVAR
  5
A3
330
2D
100
DictionaryVariables
280
0
  1
1.4.3 @ 2026-02-13T04:54:12.554784+00:00
  0
ENDSEC
  0
EOF
