  0
SECTION
  2
HEADER
  9
$ACADVER
  1
AC1032
  9
$ACADMAINTVER
 90
4
  9
$DWGCODEPAGE
  3
ANSI_1252
  9
$LASTSAVEDBY
  1
ezdxf
  9
$REQUIREDVERSIONS
160
0
  9
$INSBASE
 10
0.0
 20
0.0
 30
0.0
  9
$EXTMIN
 10
1e+20
 20
1e+20
 30
1e+20
  9
$EXTMAX
 10
-1e+20
 20
-1e+20
 30
-1e+20
  9
$LIMMIN
 10
0.0
 20
0.0
  9
$LIMMAX
 10
420.0
 20
297.0
  9
$ORTHOMODE
 70
0
  9
$REGENMODE
 70
1
  9
$FILLMODE
 70
1
  9
$QTEXTMODE
 70
0
  9
$MIRRTEXT
 70
1
  9
$LTSCALE
 40
1.0
  9
$ATTMODE
 70
1
  9
$TEXTSIZE
 40
2.5
  9
$TRACEWID
 40
1.0
  9
$TEXTSTYLE
  7
Standard
  9
$CLAYER
  8
0
  9
$CELTYPE
  6
ByLayer
  9
$CECOLOR
 62
256
  9
$CELTSCALE
 40
1.0
  9
$DISPSILH
 70
0
  9
$DIMSCALE
 40
1.0
  9
$DIMASZ
 40
2.5
  9
$DIMEXO
 40
0.625
  9
$DIMDLI
 40
3.75
  9
$DIMRND
 40
0.0
  9
$DIMDLE
 40
0.0
  9
$DIMEXE
 40
1.25
  9
$DIMTP
 40
0.0
  9
$DIMTM
 40
0.0
  9
$DIMTXT
 40
2.5
  9
$DIMCEN
 40
2.5
  9
$DIMTSZ
 40
0.0
  9
$DIMTOL
 70
0
  9
$DIMLIM
 70
0
  9
$DIMTIH
 70
0
  9
$DIMTOH
 70
0
  9
$DIMSE1
 70
0
  9
$DIMSE2
 70
0
  9
$DIMTAD
 70
1
  9
$DIMZIN
 70
8
  9
$DIMBLK
  1

  9
$DIMASO
 70
1
  9
$DIMSHO
 70
1
  9
$DIMPOST
  1

  9
$DIMAPOST
  1

  9
$DIMALT
 70
0
  9
$DIMALTD
 70
3
  9
$DIMALTF
 40
0.03937007874
  9
$DIMLFAC
 40
1.0
  9
$DIMTOFL
 70
1
  9
$DIMTVP
 40
0.0
  9
$DIMTIX
 70
0
  9
$DIMSOXD
 70
0
  9
$DIMSAH
 70
0
  9
$DIMBLK1
  1

  9
$DIMBLK2
  1

  9
$DIMSTYLE
  2
ISO-25
  9
$DIMCLRD
 70
0
  9
$DIMCLRE
 70
0
  9
$DIMCLRT
 70
0
  9
$DIMTFAC
 40
1.0
  9
$DIMGAP
 40
0.625
  9
$DIMJUST
 70
0
  9
$DIMSD1
 70
0
  9
$DIMSD2
 70
0
  9
$DIMTOLJ
 70
0
  9
$DIMTZIN
 70
8
  9
$DIMALTZ
 70
0
  9
$DIMALTTZ
 70
0
  9
$DIMUPT
 70
0
  9
$DIMDEC
 70
2
  9
$DIMTDEC
 70
2
  9
$DIMALTU
 70
2
  9
$DIMALTTD
 70
3
  9
$DIMTXSTY
  7
Standard
  9
$DIMAUNIT
 70
0
  9
$DIMADEC
 70
0
  9
$DIMALTRND
 40
0.0
  9
$DIMAZIN
 70
0
  9
$DIMDSEP
 70
44
  9
$DIMATFIT
 70
3
  9
$DIMFRAC
 70
0
  9
$DIMLDRBLK
  1

  9
$DIMLUNIT
 70
2
  9
$DIMLWD
 70
-2
  9
$DIMLWE
 70
-2
  9
$DIMTMOVE
 70
0
  9
$DIMFXL
 40
1.0
  9
$DIMFXLON
 70
0
  9
$DIMJOGANG
 40
0.785398163397
  9
$DIMTFILL
 70
0
  9
$DIMTFILLCLR
 70
0
  9
$DIMARCSYM
 70
0
  9
$DIMLTYPE
  6

  9
$DIMLTEX1
  6

  9
$DIMLTEX2
  6

  9
$DIMTXTDIRECTION
 70
0
  9
$LUNITS
 70
2
  9
$LUPREC
 70
4
  9
$SKETCHINC
 40
1.0
  9
$FILLETRAD
 40
10.0
  9
$AUNITS
 70
0
  9
$AUPREC
 70
2
  9
$MENU
  1
.
  9
$ELEVATION
 40
0.0
  9
$PELEVATION
 40
0.0
  9
$THICKNESS
 40
0.0
  9
$LIMCHECK
 70
0
  9
$CHAMFERA
 40
0.0
  9
$CHAMFERB
 40
0.0
  9
$CHAMFERC
 40
0.0
  9
$CHAMFERD
 40
0.0
  9
$SKPOLY
 70
0
  9
$TDCREATE
 40
2461085.245972222
  9
$TDUCREATE
 40
2458532.153996898
  9
$TDUPDATE
 40
2461085.245972222
  9
$TDUUPDATE
 40
2458532.1544311
  9
$TDINDWG
 40
0.0
  9
$TDUSRTIMER
 40
0.0
  9
$USRTIMER
 70
1
  9
$ANGBASE
 50
0.0
  9
$ANGDIR
 70
0
  9
$PDMODE
 70
0
  9
$PDSIZE
 40
0.0
  9
$PLINEWID
 40
0.0
  9
$SPLFRAME
 70
0
  9
$SPLINETYPE
 70
6
  9
$SPLINESEGS
 70
8
  9
$HANDSEED
  5
93
  9
$SURFTAB1
 70
6
  9
$SURFTAB2
 70
6
  9
$SURFTYPE
 70
6
  9
$SURFU
 70
6
  9
$SURFV
 70
6
  9
$UCSBASE
  2

  9
$UCSNAME
  2

  9
$UCSORG
 10
0.0
 20
0.0
 30
0.0
  9
$UCSXDIR
 10
1.0
 20
0.0
 30
0.0
  9
$UCSYDIR
 10
0.0
 20
1.0
 30
0.0
  9
$UCSORTHOREF
  2

  9
$UCSORTHOVIEW
 70
0
  9
$UCSORGTOP
 10
0.0
 20
0.0
 30
0.0
  9
$UCSORGBOTTOM
 10
0.0
 20
0.0
 30
0.0
  9
$UCSORGLEFT
 10
0.0
 20
0.0
 30
0.0
  9
$UCSORGRIGHT
 10
0.0
 20
0.0
 30
0.0
  9
$UCSORGFRONT
 10
0.0
 20
0.0
 30
0.0
  9
$UCSORGBACK
 10
0.0
 20
0.0
 30
0.0
  9
$PUCSBASE
  2

  9
$PUCSNAME
  2

  9
$PUCSORG
 10
0.0
 20
0.0
 30
0.0
  9
$PUCSXDIR
 10
1.0
 20
0.0
 30
0.0
  9
$PUCSYDIR
 10
0.0
 20
1.0
 30
0.0
  9
$PUCSORTHOREF
  2

  9
$PUCSORTHOVIEW
 70
0
  9
$PUCSORGTOP
 10
0.0
 20
0.0
 30
0.0
  9
$PUCSORGBOTTOM
 10
0.0
 20
0.0
 30
0.0
  9
$PUCSORGLEFT
 10
0.0
 20
0.0
 30
0.0
  9
$PUCSORGRIGHT
 10
0.0
 20
0.0
 30
0.0
  9
$PUCSORGFRONT
 10
0.0
 20
0.0
 30
0.0
  9
$PUCSORGBACK
 10
0.0
 20
0.0
 30
0.0
  9
$USERI1
 70
0
  9
$USERI2
 70
0
  9
$USERI3
 70
0
  9
$USERI4
 70
0
  9
$USERI5
 70
0
  9
$USERR1
 40
0.0
  9
$USERR2
 40
0.0
  9
$USERR3
 40
0.0
  9
$USERR4
 40
0.0
  9
$USERR5
 40
0.0
  9
$WORLDVIEW
 70
1
  9
$SHADEDGE
 70
3
  9
$SHADEDIF
 70
70
  9
$TILEMODE
 70
1
  9
$MAXACTVP
 70
64
  9
$PINSBASE
 10
0.0
 20
0.0
 30
0.0
  9
$PLIMCHECK
 70
0
  9
$PEXTMIN
 10
1e+20
 20
1e+20
 30
1e+20
  9
$PEXTMAX
 10
-1e+20
 20
-1e+20
 30
-1e+20
  9
$PLIMMIN
 10
0.0
 20
0.0
  9
$PLIMMAX
 10
420.0
 20
297.0
  9
$UNITMODE
 70
0
  9
$VISRETAIN
 70
1
  9
$PLINEGEN
 70
0
  9
$PSLTSCALE
 70
1
  9
$TREEDEPTH
 70
3020
  9
$CMLSTYLE
  2
Standard
  9
$CMLJUST
 70
0
  9
$CMLSCALE
 40
20.0
  9
$PROXYGRAPHICS
 70
1
  9
$MEASUREMENT
 70
1
  9
$CELWEIGHT
370
-1
  9
$ENDCAPS
280
0
  9
$JOINSTYLE
280
0
  9
$LWDISPLAY
290
0
  9
$INSUNITS
 70
6
  9
$HYPERLINKBASE
  1

  9
$STYLESHEET
  1

  9
$XEDIT
290
1
  9
$CEPSNTYPE
380
0
  9
$PSTYLEMODE
290
1
  9
$FINGERPRINTGUID
  2
{7C427240-92E2-443D-B49D-175FD5363EEA}
  9
$VERSIONGUID
  2
{D0BE0BF7-52EF-474C-BD87-5DC22AA66DBE}
  9
$EXTNAMES
290
1
  9
$PSVPSCALE
 40
0.0
  9
$OLESTARTUP
290
0
  9
$SORTENTS
280
127
  9
$INDEXCTL
280
0
  9
$HIDETEXT
280
1
  9
$XCLIPFRAME
280
1
  9
$HALOGAP
280
0
  9
$OBSCOLOR
 70
257
  9
$OBSLTYPE
280
0
  9
$INTERSECTIONDISPLAY
280
0
  9
$INTERSECTIONCOLOR
 70
257
  9
$DIMASSOC
280
2
  9
$PROJECTNAME
  1

  9
$CAMERADISPLAY
290
0
  9
$LENSLENGTH
 40
50.0
  9
$CAMERAHEIGHT
 40
0.0
  9
$STEPSPERSEC
 40
24.0
  9
$STEPSIZE
 40
100.0
  9
$3DDWFPREC
 40
2.0
  9
$PSOLWIDTH
 40
0.005
  9
$PSOLHEIGHT
 40
0.08
  9
$LOFTANG1
 40
1.570796326795
  9
$LOFTANG2
 40
1.570796326795
  9
$LOFTMAG1
 40
0.0
  9
$LOFTMAG2
 40
0.0
  9
$LOFTPARAM
 70
7
  9
$LOFTNORMALS
280
1
  9
$LATITUDE
 40
37.795
  9
$LONGITUDE
 40
-122.394
  9
$NORTHDIRECTION
 40
0.0
  9
$TIMEZONE
 70
-8000
  9
$LIGHTGLYPHDISPLAY
280
1
  9
$TILEMODELIGHTSYNCH
280
1
  9
$CMATERIAL
347
20
  9
$SOLIDHIST
280
0
  9
$SHOWHIST
280
1
  9
$DWFFRAME
280
2
  9
$DGNFRAME
280
2
  9
$REALWORLDSCALE
290
1
  9
$INTERFERECOLOR
 62
256
  9
$CSHADOW
280
0
  9
$SHADOWPLANELOCATION
 40
0.0
  0
ENDSEC
  0
SECTION
  2
CLASSES
  0
CLASS
  1
ACDBDICTIONARYWDFLT
  2
AcDbDictionaryWithDefault
  3
ObjectDBX Classes
 90
0
 91
0
280
0
281
0
  0
CLASS
  1
SUN
  2
AcDbSun
  3
SCENEOE
 90
1153
 91
0
280
0
281
0
  0
CLASS
  1
VISUALSTYLE
  2
AcDbVisualStyle
  3
ObjectDBX Classes
 90
4095
 91
0
280
0
281
0
  0
CLASS
  1
MATERIAL
  2
AcDbMaterial
  3
ObjectDBX Classes
 90
1153
 91
0
280
0
281
0
  0
CLASS
  1
SCALE
  2
AcDbScale
  3
ObjectDBX Classes
 90
1153
 91
0
280
0
281
0
  0
CLASS
  1
TABLESTYLE
  2
AcDbTableStyle
  3
ObjectDBX Classes
 90
4095
 91
0
280
0
281
0
  0
CLASS
  1
MLEADERSTYLE
  2
AcDbMLeaderStyle
  3
ACDB_MLEADERSTYLE_CLASS
 90
4095
 91
0
280
0
281
0
  0
CLASS
  1
DICTIONARYVAR
  2
AcDbDictionaryVar
  3
ObjectDBX Classes
 90
0
 91
0
280
0
281
0
  0
CLASS
  1
CELLSTYLEMAP
  2
AcDbCellStyleMap
  3
ObjectDBX Classes
 90
1152
 91
0
280
0
281
0
  0
CLASS
  1
MENTALRAYRENDERSETTINGS
  2
AcDbMentalRayRenderSettings
  3
SCENEOE
 90
1024
 91
0
280
0
281
0
  0
CLASS
  1
ACDBDETAILVIEWSTYLE
  2
AcDbDetailViewStyle
  3
ObjectDBX Classes
 90
1025
 91
0
280
0
281
0
  0
CLASS
  1
ACDBSECTIONVIEWSTYLE
  2
AcDbSectionViewStyle
  3
ObjectDBX Classes
 90
1025
 91
0
280
0
281
0
  0
CLASS
  1
RASTERVARIABLES
  2
AcDbRasterVariables
  3
ISM
 90
0
 91
0
280
0
281
0
  0
CLASS
  1
LAYOUT
  2
AcDbLayout
  3
ObjectDBX Classes
 90
0
 91
0
280
0
281
0
  0
CLASS
  1
ACDBPLACEHOLDER
  2
AcDbPlaceHolder
  3
ObjectDBX Classes
 90
0
 91
0
280
0
281
0
  0
ENDSEC
  0
SECTION
  2
TABLES
  0
TABLE
  2
VPORT
  5
8
330
0
100
AcDbSymbolTable
 70
1
  0
VPORT
  5
23
330
8
100
AcDbSymbolTableRecord
100
AcDbViewportTableRecord
  2
*Active
 70
0
 10
0.0
 20
0.0
 11
1.0
 21
1.0
 12
0.0
 22
0.0
 13
0.0
 23
0.0
 14
0.5
 24
0.5
 15
0.5
 25
0.5
 16
0.0
 26
0.0
 36
1.0
 17
0.0
 27
0.0
 37
0.0
 40
1000.0
 41
1.34
 42
50.0
 43
0.0
 44
0.0
 50
0.0
 51
0.0
 71
0
 72
1000
 73
1
 74
3
 75
0
 76
0
 77
0
 78
0
281
0
 65
0
146
0.0
  0
ENDTAB
  0
TABLE
  2
LTYPE
  5
2
330
0
100
AcDbSymbolTable
 70
3
  0
LTYPE
  5
24
330
2
100
AcDbSymbolTableRecord
100
AcDbLinetypeTableRecord
  2
ByBlock
 70
0
  3

 72
65
 73
0
 40
0.0
  0
LTYPE
  5
25
330
2
100
AcDbSymbolTableRecord
100
AcDbLinetypeTableRecord
  2
ByLayer
 70
0
  3

 72
65
 73
0
 40
0.0
  0
LTYPE
  5
26
330
2
100
AcDbSymbolTableRecord
100
AcDbLinetypeTableRecord
  2
Continuous
 70
0
  3

 72
65
 73
0
 40
0.0
  0
ENDTAB
  0
TABLE
  2
LAYER
  5
1
330
0
100
AcDbSymbolTable
 70
3
  0
LAYER
  5
27
330
1
100
AcDbSymbolTableRecord
100
AcDbLayerTableRecord
  2
0
 70
0
 62
7
  6
Continuous
370
-3
390
13
347
21
  0
LAYER
  5
28
330
1
100
AcDbSymbolTableRecord
100
AcDbLayerTableRecord
  2
Defpoints
 70
0
 62
7
  6
Continuous
290
0
370
-3
390
13
347
21
  0
LAYER
  5
8D
330
1
100
AcDbSymbolTableRecord
100
AcDbLayerTableRecord
  2
A-DETL-GENF
 70
0
 62
92
  6
Continuous
370
18
390
13
347
21
348
0
  0
ENDTAB
  0
TABLE
  2
STYLE
  5
5
330
0
100
AcDbSymbolTable
 70
1
  0
STYLE
  5
29
330
5
100
AcDbSymbolTableRecord
100
AcDbTextStyleTableRecord
  2
Standard
 70
0
 40
0.0
 41
1.0
 50
0.0
 71
0
 42
2.5
  3
txt
  4

  0
ENDTAB
  0
TABLE
  2
VIEW
  5
7
330
0
100
AcDbSymbolTable
 70
0
  0
ENDTAB
  0
TABLE
  2
UCS
  5
6
330
0
100
AcDbSymbolTable
 70
0
  0
ENDTAB
  0
TABLE
  2
APPID
  5
3
330
0
100
AcDbSymbolTable
 70
3
  0
APPID
  5
2A
330
3
100
AcDbSymbolTableRecord
100
AcDbRegAppTableRecord
  2
ACAD
 70
0
  0
APPID
  5
90
330
3
100
AcDbSymbolTableRecord
100
AcDbRegAppTableRecord
  2
HATCHBACKGROUNDCOLOR
 70
0
  0
APPID
  5
91
330
3
100
AcDbSymbolTableRecord
100
AcDbRegAppTableRecord
  2
EZDXF
 70
0
  0
ENDTAB
  0
TABLE
  2
DIMSTYLE
  5
4
330
0
100
AcDbSymbolTable
 70
1
100
AcDbDimStyleTable
  0
DIMSTYLE
105
2B
330
4
100
AcDbSymbolTableRecord
100
AcDbDimStyleTableRecord
  2
Standard
 70
0
 40
1.0
 41
2.5
 42
0.625
 43
3.75
 44
1.25
 45
0.0
 46
0.0
 47
0.0
 48
0.0
 49
2.5
140
2.5
141
2.5
142
0.0
143
0.03937007874
144
1.0
145
0.0
146
1.0
147
0.625
148
0.0
 69
0
 70
0
 71
0
 72
0
 73
0
 74
0
 75
0
 76
0
 77
1
 78
8
 79
3
170
0
171
3
172
1
173
0
174
0
175
0
176
0
177
0
178
0
179
2
271
2
272
2
273
2
274
3
275
0
276
0
277
2
278
44
279
0
280
0
281
0
282
0
283
0
284
8
285
0
286
0
288
0
289
3
290
0
371
-2
372
-2
  0
ENDTAB
  0
TABLE
  2
BLOCK_RECORD
  5
9
330
0
100
AcDbSymbolTable
 70
3
  0
BLOCK_RECORD
  5
17
330
9
100
AcDbSymbolTableRecord
100
AcDbBlockTableRecord
  2
*Model_Space
340
1A
 70
0
280
1
281
0
  0
BLOCK_RECORD
  5
1B
330
9
100
AcDbSymbolTableRecord
100
AcDbBlockTableRecord
  2
*Paper_Space
340
1E
 70
0
280
1
281
0
  0
BLOCK_RECORD
  5
2F
330
9
100
AcDbSymbolTableRecord
100
AcDbBlockTableRecord
  2
31 Solarlux p_05 - 31Solarlux p_05-V23-00_0 Basismaterialen
340
0
 70
0
280
1
281
0
  0
ENDTAB
  0
ENDSEC
  0
SECTION
  2
BLOCKS
  0
BLOCK
  5
18
330
17
100
AcDbEntity
  8
0
100
AcDbBlockBegin
  2
*Model_Space
 70
0
 10
0.0
 20
0.0
 30
0.0
  3
*Model_Space
  1

  0
ENDBLK
  5
19
330
17
100
AcDbEntity
  8
0
100
AcDbBlockEnd
  0
BLOCK
  5
1C
330
1B
100
AcDbEntity
  8
0
100
AcDbBlockBegin
  2
*Paper_Space
 70
0
 10
0.0
 20
0.0
 30
0.0
  3
*Paper_Space
  1

  0
ENDBLK
  5
1D
330
1B
100
AcDbEntity
  8
0
100
AcDbBlockEnd
  0
BLOCK
  5
30
330
2F
100
AcDbEntity
  8
0
100
AcDbBlockBegin
  2
31 Solarlux p_05 - 31Solarlux p_05-V23-00_0 Basismaterialen
 70
0
 10
0.0
 20
0.0
 30
0.0
  3
31 Solarlux p_05 - 31Solarlux p_05-V23-00_0 Basismaterialen
  1

  0
HATCH
  5
32
330
2F
100
AcDbEntity
  8
A-DETL-GENF
100
AcDbHatch
 10
0.0
 20
0.0
 30
0.0
210
0.0
220
0.0
230
1.0
  2
SOLID
 70
1
 71
0
 91
2
 92
1
 93
126
 72
1
 10
51.37224385402634
 20
-2.1657e-12
 11
7.000000000011404
 21
-4.3315e-12
 72
1
 10
7.000000000011403
 20
-4.3315e-12
 11
5.188266684297093
 21
-0.2385192159817279
 72
1
 10
5.188266684297093
 20
-0.2385192159817279
 11
3.500000000012198
 21
-0.9378221735138254
 72
1
 10
3.500000000012198
 20
-0.9378221735138254
 11
2.0502525317047
 21
-2.050252531698203
 72
1
 10
2.0502525317047
 20
-2.050252531698203
 11
0.9378221735181568
 21
-3.500000000005701
 72
1
 10
0.9378221735181568
 20
-3.500000000005701
 11
0.2385192159903908
 21
-5.18826668428843
 72
1
 10
0.2385192159903909
 20
-5.18826668428843
 11
1.29944e-11
 21
-7.000000000004905
 72
1
 10
1.29944e-11
 20
-7.000000000004905
 11
1.29944e-11
 21
-12.00000000000377
 72
1
 10
1.29944e-11
 20
-12.00000000000377
 11
2.500000000012426
 21
-12.00000000000377
 72
1
 10
2.500000000012426
 20
-12.00000000000377
 11
2.457326535451409
 21
-11.00000000000399
 72
1
 10
2.457326535451409
 20
-11.00000000000399
 11
1.500000000012653
 21
-11.00000000000399
 72
1
 10
1.500000000012653
 20
-11.00000000000399
 11
1.500000000012653
 21
-9.000000000004452
 72
1
 10
1.500000000012653
 20
-9.000000000004452
 11
10.60000000001058
 21
-9.000000000004452
 72
1
 10
10.60000000001058
 20
-9.000000000004452
 11
10.60000000001058
 21
-11.00000000000399
 72
1
 10
10.60000000001058
 20
-11.00000000000399
 11
9.600000000010812
 21
-11.00000000000399
 72
1
 10
9.600000000010812
 20
-11.00000000000399
 11
9.600000000010812
 21
-12.00000000000377
 72
1
 10
9.600000000010812
 20
-12.00000000000377
 11
10.91058285413687
 21
-11.95911099155056
 72
1
 10
10.91058285413687
 20
-11.95911099155056
 11
11.20000000001478
 21
-11.83923048454661
 72
1
 10
11.20000000001478
 20
-11.83923048454661
 11
11.44852813743731
 21
-11.64852813742644
 72
1
 10
11.44852813743731
 20
-11.64852813742644
 11
11.63923048455315
 21
-11.4000000000039
 72
1
 10
11.63923048455315
 20
-11.4000000000039
 11
11.75911099155927
 21
-11.110582854126
 72
1
 10
11.75911099155927
 20
-11.110582854126
 11
11.80000000001031
 21
-10.80000000000404
 72
1
 10
11.80000000001031
 20
-10.80000000000404
 11
11.74888873944651
 21
-8.411771432349884
 72
1
 10
11.74888873944651
 20
-8.411771432349884
 11
11.59903810568561
 21
-8.050000000004667
 72
1
 10
11.59903810568561
 20
-8.050000000004667
 11
11.36066017178973
 21
-7.739339828225417
 72
1
 10
11.36066017178973
 20
-7.739339828225417
 11
11.05000000001048
 21
-7.500961894327372
 72
1
 10
11.05000000001048
 20
-7.500961894327372
 11
10.68822856766743
 21
-7.351111260570803
 72
1
 10
10.68822856766743
 20
-7.351111260570803
 11
10.30000000001065
 21
-7.300000000004837
 72
1
 10
10.30000000001065
 20
-7.300000000004837
 11
2.081852887608397
 21
-7.247812796588647
 72
1
 10
2.081852887608397
 20
-7.247812796588647
 11
1.905875174143432
 21
-7.10214520313736
 72
1
 10
1.905875174143432
 20
-7.10214520313736
 11
1.813059245841645
 21
-6.893405156975615
 72
1
 10
1.813059245841645
 20
-6.893405156975615
 11
1.804710145908768
 21
-6.778723404258847
 72
1
 10
1.804710145908768
 20
-6.778723404258847
 11
2.028075231347497
 21
-5.476857165352072
 72
1
 10
2.028075231347497
 20
-5.476857165352072
 11
2.57225222998436
 21
-4.273271248369576
 72
1
 10
2.57225222998436
 20
-4.273271248369576
 11
3.402128288699498
 21
-3.245626663622164
 72
1
 10
3.402128288699498
 20
-3.245626663622164
 11
4.464155910612078
 21
-2.4602318611849
 72
1
 10
4.464155910612078
 20
-2.4602318611849
 11
5.689808090762835
 21
-1.967764198601583
 72
1
 10
5.689808090762835
 20
-1.967764198601583
 11
7.000000000011403
 21
-1.800000000001756
 72
1
 10
7.000000000011403
 20
-1.800000000001756
 11
20.00000000001278
 21
-1.800000000001756
 72
1
 10
20.00000000001278
 20
-1.800000000001756
 11
20.00000000001278
 21
-5.300000000005292
 72
1
 10
20.00000000001278
 20
-5.300000000005292
 11
21.00000000001255
 21
-5.300000000005292
 72
1
 10
21.00000000001255
 20
-5.300000000005292
 11
21.50000000001244
 21
-1.800000000001756
 72
1
 10
21.50000000001244
 20
-1.800000000001756
 11
24.90000000001167
 21
-1.800000000001756
 72
1
 10
24.90000000001167
 20
-1.800000000001756
 11
24.90000000001167
 21
-14.5000000000032
 72
1
 10
24.90000000001167
 20
-14.5000000000032
 11
21.50000000001244
 21
-14.5000000000032
 72
1
 10
21.50000000001244
 20
-14.5000000000032
 11
21.50000000001244
 21
-12.4393549253846
 72
1
 10
21.50000000001244
 20
-12.4393549253846
 11
20.00000000001278
 21
-12.84127871410331
 72
1
 10
20.00000000001278
 20
-12.84127871410331
 11
20.00000000001711
 21
-29.49999999995648
 72
1
 10
20.00000000001711
 20
-29.49999999995648
 11
20.30730250815476
 21
-29.7365395840994
 72
1
 10
20.30730250815476
 20
-29.7365395840994
 11
20.46900291647732
 21
-30.08901480921628
 72
1
 10
20.46900291647732
 20
-30.08901480921628
 11
20.44785388664375
 21
-30.47623377170414
 72
1
 10
20.44785388664375
 20
-30.47623377170414
 11
20.24872705180621
 21
-30.8090014234117
 72
1
 10
20.24872705180621
 20
-30.8090014234117
 11
20.09538680311537
 21
-30.93000000004148
 72
1
 10
20.09538680311537
 20
-30.93000000004148
 11
19.93955973435618
 21
-32.71111154599972
 72
1
 10
19.93955973435618
 20
-32.71111154599972
 11
23.04922055217445
 21
-31.87788044107144
 72
1
 10
23.04922055217445
 20
-31.87788044107144
 11
21.67635063925095
 21
-29.50000000000412
 72
1
 10
21.67635063925095
 20
-29.50000000000412
 11
26.37690598925113
 21
-29.50000000000412
 72
1
 10
26.37690598925113
 20
-29.50000000000412
 11
26.37690598925113
 21
-30.30000000000177
 72
1
 10
26.37690598925113
 20
-30.30000000000177
 11
25.39541053164804
 21
-32.00000000000355
 72
1
 10
25.39541053164804
 20
-32.00000000000355
 11
27.13999237668981
 21
-31.94207390469575
 72
1
 10
27.13999237668981
 20
-31.94207390469575
 11
27.55000000001539
 21
-31.77224318643672
 72
1
 10
27.55000000001539
 20
-31.77224318643672
 11
27.90208152803534
 21
-31.50208152802153
 72
1
 10
27.90208152803534
 20
-31.50208152802153
 11
28.17224318644836
 21
-31.15000000000375
 72
1
 10
28.17224318644836
 20
-31.15000000000375
 11
28.34207390470956
 21
-30.73999237667816
 72
1
 10
28.34207390470956
 20
-30.73999237667816
 11
28.4000000000152
 21
-30.30000000000394
 72
1
 10
28.4000000000152
 20
-30.30000000000394
 11
28.4000000000152
 21
-29.50000000000412
 72
1
 10
28.4000000000152
 20
-29.50000000000412
 11
35.10000000001801
 21
-29.50000000000412
 72
1
 10
35.10000000001801
 20
-29.50000000000412
 11
35.15792609532798
 21
-30.73999237667816
 72
1
 10
35.15792609532798
 20
-30.73999237667816
 11
35.32775681358485
 21
-31.15000000000375
 72
1
 10
35.32775681358485
 20
-31.15000000000375
 11
35.5979184720022
 21
-31.50208152802153
 72
1
 10
35.5979184720022
 20
-31.50208152802153
 11
35.95000000001782
 21
-31.77224318643672
 72
1
 10
35.95000000001782
 20
-31.77224318643672
 11
36.36000762334341
 21
-31.94207390469575
 72
1
 10
36.36000762334341
 20
-31.94207390469575
 11
36.80000000001763
 21
-32.00000000000355
 72
1
 10
36.80000000001763
 20
-32.00000000000355
 11
38.10458946849345
 21
-32.00000000000355
 72
1
 10
38.10458946849345
 20
-32.00000000000355
 11
37.12309401078642
 21
-30.30000000000394
 72
1
 10
37.12309401078642
 20
-30.30000000000394
 11
37.12309401078642
 21
-29.50000000000412
 72
1
 10
37.12309401078642
 20
-29.50000000000412
 11
41.82364936087755
 21
-29.50000000000412
 72
1
 10
41.82364936087755
 20
-29.50000000000412
 11
40.45077944796271
 21
-31.87788044107144
 72
1
 10
40.45077944796271
 20
-31.87788044107144
 11
43.56044026578964
 21
-32.71111154600405
 72
1
 10
43.56044026578964
 20
-32.71111154600405
 11
43.4042632423209
 21
-30.92600000004599
 72
1
 10
43.4042632423209
 20
-30.92600000004599
 11
43.1336457084028
 21
-30.65081728099262
 72
1
 10
43.1336457084028
 20
-30.65081728099262
 11
43.02154161942052
 21
-30.28150433542627
 72
1
 10
43.02154161942052
 20
-30.28150433542627
 11
43.09352897542764
 21
-29.90232469580465
 72
1
 10
43.09352897542764
 20
-29.90232469580465
 11
43.33318292865381
 21
-29.59979310864051
 72
1
 10
43.33318292865381
 20
-29.59979310864051
 11
43.50000000001609
 21
-29.50000000003011
 72
1
 10
43.50000000001609
 20
-29.50000000003011
 11
43.4659258263069
 21
-28.241180954902
 72
1
 10
43.4659258263069
 20
-28.241180954902
 11
43.36602540380107
 21
-28.00000000000446
 72
1
 10
43.36602540380107
 20
-28.00000000000446
 11
43.20710678120238
 21
-27.7928932188183
 72
1
 10
43.20710678120238
 20
-27.7928932188183
 11
43.00000000002054
 21
-27.6339745962196
 72
1
 10
43.00000000002054
 20
-27.6339745962196
 11
42.75881904512084
 21
-27.53407417371594
 72
1
 10
42.75881904512084
 20
-27.53407417371594
 11
42.50000000001633
 21
-27.50000000000458
 72
1
 10
42.50000000001633
 20
-27.50000000000458
 11
38.60000000001721
 21
-27.50000000000458
 72
1
 10
38.60000000001721
 20
-27.50000000000458
 11
38.60000000001289
 21
-21.00000000000172
 72
1
 10
38.60000000001289
 20
-21.00000000000172
 11
45.90000000001122
 21
-21.00000000000172
 72
1
 10
45.90000000001122
 20
-21.00000000000172
 11
45.90000000001122
 21
-20.00000000000412
 72
1
 10
45.90000000001122
 20
-20.00000000000412
 11
44.90000000001145
 21
-20.00000000000412
 72
1
 10
44.90000000001145
 20
-20.00000000000412
 11
44.90000000001145
 21
-16.00000000000286
 72
1
 10
44.90000000001145
 20
-16.00000000000286
 11
51.90000000001418
 21
-16.00000000000286
 72
1
 10
51.90000000001418
 20
-16.00000000000286
 11
51.90000000001418
 21
-20.00000000000412
 72
1
 10
51.90000000001418
 20
-20.00000000000412
 11
50.90000000001008
 21
-20.00000000000412
 72
1
 10
50.90000000001008
 20
-20.00000000000412
 11
50.90000000001008
 21
-21.00000000000172
 72
1
 10
50.90000000001008
 20
-21.00000000000172
 11
52.85881904510989
 21
-20.96592582629252
 72
1
 10
52.85881904510989
 20
-20.96592582629252
 11
53.10000000000958
 21
-20.8660254037867
 72
1
 10
53.10000000000958
 20
-20.8660254037867
 11
53.30710678120008
 21
-20.70710678119017
 72
1
 10
53.30710678120008
 20
-20.70710678119017
 11
53.46602540379445
 21
-20.50000000000184
 72
1
 10
53.46602540379445
 20
-20.50000000000184
 11
53.56592582630027
 21
-20.25881904510431
 72
1
 10
53.56592582630027
 20
-20.25881904510431
 11
53.6000000000138
 21
-20.00000000000412
 72
1
 10
53.6000000000138
 20
-20.00000000000412
 11
53.6000000000138
 21
-16.00000000000286
 72
1
 10
53.6000000000138
 20
-16.00000000000286
 11
57.55205986627225
 21
-15.96958789987925
 72
1
 10
57.55205986627225
 20
-15.96958789987925
 11
57.78191689207305
 21
-15.88020139117765
 72
1
 10
57.78191689207305
 20
-15.88020139117765
 11
57.98290672994429
 21
-15.73727733680196
 72
1
 10
57.98290672994429
 20
-15.73727733680196
 11
58.14280433374003
 21
-15.54950897805273
 72
1
 10
58.14280433374003
 20
-15.54950897805273
 11
58.2518840595927
 21
-15.3283171751885
 72
1
 10
58.2518840595927
 20
-15.3283171751885
 11
58.30351122042026
 21
-15.08715574271553
 72
1
 10
58.30351122042026
 20
-15.08715574271553
 11
58.50000000001269
 21
-12.84127871410331
 72
1
 10
58.50000000001269
 20
-12.84127871410331
 11
57.00000000001303
 21
-12.43935492535428
 72
1
 10
57.00000000001303
 20
-12.43935492535428
 11
57.00000000001303
 21
-14.5000000000032
 72
1
 10
57.00000000001303
 20
-14.5000000000032
 11
53.6000000000138
 21
-14.5000000000032
 72
1
 10
53.6000000000138
 20
-14.5000000000032
 11
53.6000000000138
 21
-1.800000000001755
 72
1
 10
53.6000000000138
 20
-1.800000000001756
 11
57.00000000001303
 21
-1.800000000001756
 72
1
 10
57.00000000001303
 20
-1.800000000001756
 11
57.00000000001303
 21
-5.060645074650397
 72
1
 10
57.00000000001303
 20
-5.060645074650397
 11
58.49999999993039
 21
-4.658721283198537
 72
1
 10
58.49999999993039
 20
-4.658721283198537
 11
58.35000000011234
 21
-2.32936064294094
 72
1
 10
58.35000000011234
 20
-2.32936064294094
 11
58.49999999993039
 21
-2.1658e-12
 72
1
 10
58.49999999993039
 20
-2.1657e-12
 11
55.30000000011737
 21
-2.1657e-12
 72
1
 10
55.30000000011737
 20
-2.1657e-12
 11
51.37224385402634
 21
-2.1657e-12
 97
0
 92
1
 93
50
 72
1
 10
51.90000000001418
 20
-1.800000000001756
 11
51.90000000001418
 21
-14.5000000000032
 72
1
 10
51.90000000001418
 20
-14.5000000000032
 11
44.46000762333723
 21
-14.55792609531317
 72
1
 10
44.46000762333723
 20
-14.55792609531317
 11
44.05000000001164
 21
-14.72775681357004
 72
1
 10
44.05000000001164
 20
-14.72775681357004
 11
43.69791847199169
 21
-14.99791847198739
 72
1
 10
43.69791847199169
 20
-14.99791847198739
 11
43.42775681357867
 21
-15.35000000000301
 72
1
 10
43.42775681357867
 20
-15.35000000000301
 11
43.25792609531748
 21
-15.7600076233286
 72
1
 10
43.25792609531748
 20
-15.7600076233286
 11
43.20000000001183
 21
-16.20000000000281
 72
1
 10
43.20000000001183
 20
-16.20000000000281
 11
43.20000000001183
 21
-19.30000000000211
 72
1
 10
43.20000000001183
 20
-19.30000000000211
 11
38.16000762333866
 21
-19.35792609530992
 72
1
 10
38.16000762333866
 20
-19.35792609530992
 11
37.75000000001308
 21
-19.52775681356895
 72
1
 10
37.75000000001308
 20
-19.52775681356895
 11
37.39791847199746
 21
-19.79791847198413
 72
1
 10
37.39791847199746
 20
-19.79791847198413
 11
37.12775681358011
 21
-20.15000000000192
 72
1
 10
37.12775681358011
 20
-20.15000000000192
 11
36.95792609532324
 21
-20.5600076233275
 72
1
 10
36.95792609532324
 20
-20.5600076233275
 11
36.90000000001327
 21
-21.00000000000172
 72
1
 10
36.90000000001327
 20
-21.00000000000172
 11
36.9000000000176
 21
-27.50000000000458
 72
1
 10
36.9000000000176
 20
-27.50000000000458
 11
26.60000000001561
 21
-27.50000000000458
 72
1
 10
26.60000000001561
 20
-27.50000000000458
 11
26.60000000001561
 21
-25.78585715715084
 72
1
 10
26.60000000001561
 20
-25.78585715715084
 11
26.39228182893825
 21
-25.62956413165133
 72
1
 10
26.39228182893825
 20
-25.62956413165133
 11
26.15129803403043
 21
-25.53209024279547
 72
1
 10
26.15129803403043
 20
-25.53209024279547
 11
25.89333293821696
 21
-25.50002222510785
 72
1
 10
25.89333293821696
 20
-25.50002222510785
 11
25.63581836476357
 21
-25.53552705399038
 72
1
 10
25.63581836476357
 20
-25.53552705399038
 11
25.39615569317055
 21
-25.63620551376513
 72
1
 10
25.39615569317055
 20
-25.63620551376513
 11
25.19053997231896
 21
-25.79525432311152
 72
1
 10
25.19053997231896
 20
-25.79525432311152
 11
25.03286555056797
 21
-26.00192586237312
 72
1
 10
25.03286555056797
 20
-26.00192586237312
 11
24.9337871742207
 21
-26.24225443695012
 72
1
 10
24.9337871742207
 20
-26.24225443695012
 11
24.900000000016
 21
-26.5000000000048
 72
1
 10
24.900000000016
 20
-26.5000000000048
 11
24.900000000016
 21
-27.50000000000458
 72
1
 10
24.900000000016
 20
-27.50000000000458
 11
21.70000000001673
 21
-27.50000000000458
 72
1
 10
21.70000000001673
 20
-27.50000000000458
 11
21.70000000001239
 21
-16.20000000000281
 72
1
 10
21.70000000001239
 20
-16.20000000000281
 11
25.33999237668588
 21
-16.142073904695
 72
1
 10
25.33999237668588
 20
-16.142073904695
 11
25.75000000001147
 21
-15.97224318643814
 72
1
 10
25.75000000001147
 20
-15.97224318643814
 11
26.10208152802709
 21
-15.70208152802079
 72
1
 10
26.10208152802709
 20
-15.70208152802079
 11
26.37224318644444
 21
-15.35000000000301
 72
1
 10
26.37224318644444
 20
-15.35000000000301
 11
26.54207390470131
 21
-14.93999237667742
 72
1
 10
26.54207390470131
 20
-14.93999237667742
 11
26.60000000001128
 21
-14.5000000000032
 72
1
 10
26.60000000001128
 20
-14.5000000000032
 11
26.60000000001128
 21
-1.800000000001755
 72
1
 10
26.60000000001128
 20
-1.800000000001756
 11
36.90000000001327
 21
-1.800000000001756
 72
1
 10
36.90000000001327
 20
-1.800000000001756
 11
36.90000000001327
 21
-3.514142842857654
 72
1
 10
36.90000000001327
 20
-3.514142842857654
 11
37.10771817109497
 21
-3.670435868352837
 72
1
 10
37.10771817109497
 20
-3.670435868352837
 11
37.34870196600279
 21
-3.767909757210861
 72
1
 10
37.34870196600279
 20
-3.767909757210861
 11
37.60666706181193
 21
-3.799977774898485
 72
1
 10
37.60666706181193
 20
-3.799977774898485
 11
37.86418163526965
 21
-3.764472946015956
 72
1
 10
37.86418163526965
 20
-3.764472946015956
 11
38.10384430685834
 21
-3.663794486243375
 72
1
 10
38.10384430685834
 20
-3.663794486243375
 11
38.30946002770992
 21
-3.504745676894816
 72
1
 10
38.30946002770992
 20
-3.504745676894816
 11
38.46713444946524
 21
-3.298074137633216
 72
1
 10
38.46713444946524
 20
-3.298074137633216
 11
38.56621282580385
 21
-3.057745563058381
 72
1
 10
38.56621282580385
 20
-3.057745563058381
 11
38.60000000001289
 21
-2.800000000001529
 72
1
 10
38.60000000001289
 20
-2.800000000001529
 11
38.60000000001289
 21
-1.800000000001756
 72
1
 10
38.60000000001289
 20
-1.800000000001756
 11
51.37224385402634
 21
-1.800000000001756
 72
1
 10
51.37224385402634
 20
-1.800000000001756
 11
51.90000000001418
 21
-1.800000000001756
 97
0
 75
0
 76
1
 98
1
 10
0.0
 20
0.0
450
0
451
0
460
0.0
461
0.0
452
0
462
0.0
453
0
470

  0
LINE
  5
33
330
2F
100
AcDbEntity
  8
A-DETL-GENF
100
AcDbLine
 10
1.499999999999658
 20
-11.00000000000153
 30
0.0
 11
1.499999999999658
 21
-9.00000000000199
 31
0.0
  0
LINE
  5
34
330
2F
100
AcDbEntity
  8
A-DETL-GENF
100
AcDbLine
 10
1.499999999999658
 20
-9.00000000000199
 30
0.0
 11
10.59999999999759
 21
-9.000000000001988
 31
0.0
  0
LINE
  5
35
330
2F
100
AcDbEntity
  8
A-DETL-GENF
100
AcDbLine
 10
10.59999999999759
 20
-9.000000000001988
 30
0.0
 11
10.59999999999759
 21
-11.00000000000153
 31
0.0
  0
LINE
  5
36
330
2F
100
AcDbEntity
  8
A-DETL-GENF
100
AcDbLine
 10
10.59999999999759
 20
-11.00000000000153
 30
0.0
 11
10.39999999993732
 21
-11.00000000000153
 31
0.0
  0
LINE
  5
37
330
2F
100
AcDbEntity
  8
A-DETL-GENF
100
AcDbLine
 10
10.39999999994071
 20
-12.0000000000013
 30
0.0
 11
10.59999999999759
 21
-12.0000000000013
 31
0.0
  0
ARC
  5
38
330
2F
100
AcDbEntity
  8
A-DETL-GENF
100
AcDbCircle
 10
10.59999999999759
 20
-10.80000000000158
 30
0.0
 40
1.200000000000005
100
AcDbArc
 50
269.9999999999996
 51
4.45e-14
  0
LINE
  5
39
330
2F
100
AcDbEntity
  8
A-DETL-GENF
100
AcDbLine
 10
11.79999999999731
 20
-10.80000000000158
 30
0.0
 11
11.79999999999731
 21
-8.800000000002035
 31
0.0
  0
ARC
  5
3A
330
2F
100
AcDbEntity
  8
A-DETL-GENF
100
AcDbCircle
 10
10.29999999999765
 20
-8.800000000002036
 30
0.0
 40
1.5
100
AcDbArc
 50
2.54e-14
 51
89.99999999999999
  0
LINE
  5
3B
330
2F
100
AcDbEntity
  8
A-DETL-GENF
100
AcDbLine
 10
10.29999999999765
 20
-7.300000000002373
 30
0.0
 11
2.304257247300609
 21
-7.300000000002375
 31
0.0
  0
ARC
  5
3C
330
2F
100
AcDbEntity
  8
A-DETL-GENF
100
AcDbCircle
 10
2.304257247300609
 20
-6.800000000002489
 30
0.0
 40
0.4999999999999978
100
AcDbArc
 50
177.5611453090238
 51
269.9999999999994
  0
ARC
  5
3D
330
2F
100
AcDbEntity
  8
A-DETL-GENF
100
AcDbCircle
 10
6.999999999998411
 20
-7.000000000002446
 30
0.0
 40
5.200000000000013
100
AcDbArc
 50
89.99999999999969
 51
177.5611453090234
  0
LINE
  5
3E
330
2F
100
AcDbEntity
  8
A-DETL-GENF
100
AcDbLine
 10
6.999999999998406
 20
-1.799999999999296
 30
0.0
 11
19.99999999999978
 21
-1.799999999999294
 31
0.0
  0
LINE
  5
3F
330
2F
100
AcDbEntity
  8
A-DETL-GENF
100
AcDbLine
 10
19.99999999999978
 20
-1.799999999999294
 30
0.0
 11
19.99999999999978
 21
-5.30000000000283
 31
0.0
  0
LINE
  5
40
330
2F
100
AcDbEntity
  8
A-DETL-GENF
100
AcDbLine
 10
19.99999999999978
 20
-5.30000000000283
 30
0.0
 11
20.99999999999956
 21
-5.30000000000283
 31
0.0
  0
LINE
  5
41
330
2F
100
AcDbEntity
  8
A-DETL-GENF
100
AcDbLine
 10
20.99999999999956
 20
-5.30000000000283
 30
0.0
 11
21.49999999999944
 21
-1.799999999999294
 31
0.0
  0
LINE
  5
42
330
2F
100
AcDbEntity
  8
A-DETL-GENF
100
AcDbLine
 10
21.49999999999944
 20
-1.799999999999294
 30
0.0
 11
24.89999999999867
 21
-1.799999999999294
 31
0.0
  0
LINE
  5
43
330
2F
100
AcDbEntity
  8
A-DETL-GENF
100
AcDbLine
 10
24.89999999999867
 20
-1.799999999999294
 30
0.0
 11
24.89999999999867
 21
-14.50000000000074
 31
0.0
  0
LINE
  5
44
330
2F
100
AcDbEntity
  8
A-DETL-GENF
100
AcDbLine
 10
24.89999999999867
 20
-14.50000000000074
 30
0.0
 11
21.49999999999944
 21
-14.50000000000074
 31
0.0
  0
LINE
  5
45
330
2F
100
AcDbEntity
  8
A-DETL-GENF
100
AcDbLine
 10
21.49999999999944
 20
-14.50000000000074
 30
0.0
 11
21.49999999999944
 21
-12.43935492538277
 31
0.0
  0
LINE
  5
46
330
2F
100
AcDbEntity
  8
A-DETL-GENF
100
AcDbLine
 10
21.49999999999944
 20
-12.43935492538277
 30
0.0
 11
19.99999999999978
 21
-12.84127871410085
 31
0.0
  0
LINE
  5
47
330
2F
100
AcDbEntity
  8
A-DETL-GENF
100
AcDbLine
 10
19.99999999999978
 20
-12.84127871410085
 30
0.0
 11
19.99999999999978
 21
-29.49999999995484
 31
0.0
  0
ARC
  5
48
330
2F
100
AcDbEntity
  8
A-DETL-GENF
100
AcDbCircle
 10
19.67520582569874
 20
-30.23984643289894
 30
0.0
 40
0.8080000000000032
100
AcDbArc
 50
301.3339930015189
 51
66.29842244060205
  0
LINE
  5
49
330
2F
100
AcDbEntity
  8
A-DETL-GENF
100
AcDbLine
 10
20.09538680309493
 20
-30.93000000003772
 30
0.0
 11
19.93955973433827
 21
-32.71111154599732
 31
0.0
  0
LINE
  5
4A
330
2F
100
AcDbEntity
  8
A-DETL-GENF
100
AcDbLine
 10
19.93955973433827
 20
-32.71111154599732
 30
0.0
 11
23.04922055215406
 21
-31.87788044106825
 31
0.0
  0
LINE
  5
4B
330
2F
100
AcDbEntity
  8
A-DETL-GENF
100
AcDbLine
 10
23.04922055215406
 20
-31.87788044106825
 30
0.0
 11
21.67635063923559
 21
-29.50000000000165
 31
0.0
  0
LINE
  5
4C
330
2F
100
AcDbEntity
  8
A-DETL-GENF
100
AcDbLine
 10
21.6763506392356
 20
-29.50000000000165
 30
0.0
 11
26.3769059892338
 21
-29.50000000000165
 31
0.0
  0
LINE
  5
4D
330
2F
100
AcDbEntity
  8
A-DETL-GENF
100
AcDbLine
 10
26.3769059892338
 20
-29.50000000000165
 30
0.0
 11
26.3769059892338
 21
-30.29999999999862
 31
0.0
  0
LINE
  5
4E
330
2F
100
AcDbEntity
  8
A-DETL-GENF
100
AcDbLine
 10
26.3769059892338
 20
-30.29999999999862
 30
0.0
 11
25.39541053162702
 21
-32.00000000000109
 31
0.0
  0
LINE
  5
4F
330
2F
100
AcDbEntity
  8
A-DETL-GENF
100
AcDbLine
 10
25.39541053162701
 20
-32.00000000000109
 30
0.0
 11
26.69999999999826
 21
-32.00000000000109
 31
0.0
  0
ARC
  5
50
330
2F
100
AcDbEntity
  8
A-DETL-GENF
100
AcDbCircle
 10
26.69999999999827
 20
-30.30000000000148
 30
0.0
 40
1.7
100
AcDbArc
 50
269.9999999999995
 51
1.845e-13
  0
LINE
  5
51
330
2F
100
AcDbEntity
  8
A-DETL-GENF
100
AcDbLine
 10
28.39999999999788
 20
-30.30000000000147
 30
0.0
 11
28.39999999999788
 21
-29.50000000000165
 31
0.0
  0
LINE
  5
52
330
2F
100
AcDbEntity
  8
A-DETL-GENF
100
AcDbLine
 10
28.39999999999788
 20
-29.50000000000165
 30
0.0
 11
35.10000000000069
 21
-29.50000000000165
 31
0.0
  0
LINE
  5
53
330
2F
100
AcDbEntity
  8
A-DETL-GENF
100
AcDbLine
 10
35.10000000000069
 20
-29.50000000000165
 30
0.0
 11
35.10000000000069
 21
-30.30000000000147
 31
0.0
  0
ARC
  5
54
330
2F
100
AcDbEntity
  8
A-DETL-GENF
100
AcDbCircle
 10
36.8000000000003
 20
-30.30000000000148
 30
0.0
 40
1.700000000000008
100
AcDbArc
 50
179.9999999999997
 51
269.9999999999998
  0
LINE
  5
55
330
2F
100
AcDbEntity
  8
A-DETL-GENF
100
AcDbLine
 10
36.8000000000003
 20
-32.00000000000109
 30
0.0
 11
38.10458946847809
 21
-32.00000000000109
 31
0.0
  0
LINE
  5
56
330
2F
100
AcDbEntity
  8
A-DETL-GENF
100
AcDbLine
 10
38.10458946847809
 20
-32.00000000000109
 30
0.0
 11
37.1230940107691
 21
-30.30000000000188
 31
0.0
  0
LINE
  5
57
330
2F
100
AcDbEntity
  8
A-DETL-GENF
100
AcDbLine
 10
37.1230940107691
 20
-30.30000000000188
 30
0.0
 11
37.1230940107691
 21
-29.50000000000165
 31
0.0
  0
LINE
  5
58
330
2F
100
AcDbEntity
  8
A-DETL-GENF
100
AcDbLine
 10
37.1230940107691
 20
-29.50000000000165
 30
0.0
 11
41.82364936086258
 21
-29.50000000000165
 31
0.0
  0
LINE
  5
59
330
2F
100
AcDbEntity
  8
A-DETL-GENF
100
AcDbLine
 10
41.82364936086258
 20
-29.50000000000165
 30
0.0
 11
40.45077944794413
 21
-31.87788044106825
 31
0.0
  0
LINE
  5
5A
330
2F
100
AcDbEntity
  8
A-DETL-GENF
100
AcDbLine
 10
40.45077944794412
 20
-31.87788044106825
 30
0.0
 11
43.56044026576899
 21
-32.71111154599976
 31
0.0
  0
LINE
  5
5B
330
2F
100
AcDbEntity
  8
A-DETL-GENF
100
AcDbLine
 10
43.56044026576899
 20
-32.71111154599976
 30
0.0
 11
43.40426324230269
 21
-30.92600000004174
 31
0.0
  0
ARC
  5
5C
330
2F
100
AcDbEntity
  8
A-DETL-GENF
100
AcDbCircle
 10
43.82838358079808
 20
-30.23826026840298
 30
0.0
 40
0.8079999999999875
100
AcDbArc
 50
113.9798489979457
 51
238.3383936046061
  0
LINE
  5
5D
330
2F
100
AcDbEntity
  8
A-DETL-GENF
100
AcDbLine
 10
43.49999999999877
 20
-29.50000000002779
 30
0.0
 11
43.49999999999877
 21
-28.50000000000188
 31
0.0
  0
ARC
  5
5E
330
2F
100
AcDbEntity
  8
A-DETL-GENF
100
AcDbCircle
 10
42.49999999999899
 20
-28.50000000000188
 30
0.0
 40
1.000000000000007
100
AcDbArc
 50
0.0
 51
90.0
  0
LINE
  5
5F
330
2F
100
AcDbEntity
  8
A-DETL-GENF
100
AcDbLine
 10
42.49999999999899
 20
-27.50000000000211
 30
0.0
 11
38.59999999999989
 21
-27.50000000000211
 31
0.0
  0
LINE
  5
60
330
2F
100
AcDbEntity
  8
A-DETL-GENF
100
AcDbLine
 10
38.59999999999989
 20
-27.50000000000211
 30
0.0
 11
38.59999999999989
 21
-20.99999999999926
 31
0.0
  0
LINE
  5
61
330
2F
100
AcDbEntity
  8
A-DETL-GENF
100
AcDbLine
 10
38.59999999999989
 20
-20.99999999999926
 30
0.0
 11
43.82020410299091
 21
-20.99999999999926
 31
0.0
  0
LINE
  5
62
330
2F
100
AcDbEntity
  8
A-DETL-GENF
100
AcDbLine
 10
45.89999999999823
 20
-19.99999999999949
 30
0.0
 11
44.89999999999845
 21
-19.99999999999949
 31
0.0
  0
LINE
  5
63
330
2F
100
AcDbEntity
  8
A-DETL-GENF
100
AcDbLine
 10
44.89999999999845
 20
-19.99999999999949
 30
0.0
 11
44.89999999999845
 21
-16.0000000000004
 31
0.0
  0
LINE
  5
64
330
2F
100
AcDbEntity
  8
A-DETL-GENF
100
AcDbLine
 10
44.89999999999845
 20
-16.0000000000004
 30
0.0
 11
51.89999999999686
 21
-16.00000000000039
 31
0.0
  0
LINE
  5
65
330
2F
100
AcDbEntity
  8
A-DETL-GENF
100
AcDbLine
 10
51.89999999999686
 20
-16.00000000000039
 30
0.0
 11
51.89999999999686
 21
-19.99999999999949
 31
0.0
  0
LINE
  5
66
330
2F
100
AcDbEntity
  8
A-DETL-GENF
100
AcDbLine
 10
51.89999999999686
 20
-19.99999999999949
 30
0.0
 11
50.89999999999709
 21
-19.99999999999949
 31
0.0
  0
ARC
  5
67
330
2F
100
AcDbEntity
  8
A-DETL-GENF
100
AcDbCircle
 10
52.59999999999671
 20
-19.99999999999949
 30
0.0
 40
1.0
100
AcDbArc
 50
269.9999999999997
 51
2.036e-13
  0
LINE
  5
68
330
2F
100
AcDbEntity
  8
A-DETL-GENF
100
AcDbLine
 10
53.60000000000081
 20
-19.99999999999949
 30
0.0
 11
53.60000000000081
 21
-16.0000000000004
 31
0.0
  0
LINE
  5
69
330
2F
100
AcDbEntity
  8
A-DETL-GENF
100
AcDbLine
 10
53.60000000000081
 20
-16.0000000000004
 30
0.0
 11
57.30731652230087
 21
-16.0000000000004
 31
0.0
  0
ARC
  5
6A
330
2F
100
AcDbEntity
  8
A-DETL-GENF
100
AcDbCircle
 10
57.30731652230088
 20
-15.00000000000063
 30
0.0
 40
0.99999999999999
100
AcDbArc
 50
269.9999999999992
 51
355.0000000021105
  0
LINE
  5
6B
330
2F
100
AcDbEntity
  8
A-DETL-GENF
100
AcDbLine
 10
58.30351122040624
 20
-15.0871557427125
 30
0.0
 11
58.49999999999969
 21
-12.84127871410085
 31
0.0
  0
LINE
  5
6C
330
2F
100
AcDbEntity
  8
A-DETL-GENF
100
AcDbLine
 10
58.49999999999969
 20
-12.84127871410085
 30
0.0
 11
57.00000000000003
 21
-12.43935492535069
 31
0.0
  0
LINE
  5
6D
330
2F
100
AcDbEntity
  8
A-DETL-GENF
100
AcDbLine
 10
57.00000000000003
 20
-12.43935492535069
 30
0.0
 11
57.00000000000003
 21
-14.50000000000074
 31
0.0
  0
LINE
  5
6E
330
2F
100
AcDbEntity
  8
A-DETL-GENF
100
AcDbLine
 10
57.00000000000003
 20
-14.50000000000074
 30
0.0
 11
53.60000000000081
 21
-14.50000000000074
 31
0.0
  0
LINE
  5
6F
330
2F
100
AcDbEntity
  8
A-DETL-GENF
100
AcDbLine
 10
53.60000000000081
 20
-14.50000000000074
 30
0.0
 11
53.60000000000081
 21
-1.799999999999294
 31
0.0
  0
LINE
  5
70
330
2F
100
AcDbEntity
  8
A-DETL-GENF
100
AcDbLine
 10
53.60000000000081
 20
-1.799999999999294
 30
0.0
 11
57.00000000000003
 21
-1.799999999999294
 31
0.0
  0
LINE
  5
71
330
2F
100
AcDbEntity
  8
A-DETL-GENF
100
AcDbLine
 10
57.00000000000003
 20
-1.799999999999294
 30
0.0
 11
57.00000000000003
 21
-5.060645074648197
 31
0.0
  0
LINE
  5
72
330
2F
100
AcDbEntity
  8
A-DETL-GENF
100
AcDbLine
 10
57.00000000000003
 20
-5.060645074648197
 30
0.0
 11
58.50000000008996
 21
-4.658721285879056
 31
0.0
  0
ARC
  5
73
330
2F
100
AcDbEntity
  8
A-DETL-GENF
100
AcDbCircle
 10
76.51140335000015
 20
-2.329360642999108
 30
0.0
 40
18.16140334989988
100
AcDbArc
 50
174.2127729327216
 51
187.3689892600035
  0
ARC
  5
74
330
2F
100
AcDbEntity
  8
A-DETL-GENF
100
AcDbCircle
 10
76.51140335000015
 20
-2.329360642999108
 30
0.0
 40
18.16140334989986
100
AcDbArc
 50
172.6310107226749
 51
173.8033827479354
  0
LINE
  5
75
330
2F
100
AcDbEntity
  8
A-DETL-GENF
100
AcDbLine
 10
57.80000000010712
 20
3.065e-13
 30
0.0
 11
6.999999999998408
 21
2.961e-13
 31
0.0
  0
ARC
  5
76
330
2F
100
AcDbEntity
  8
A-DETL-GENF
100
AcDbCircle
 10
6.999999999998401
 20
-7.000000000002438
 30
0.0
 40
6.999999999999993
100
AcDbArc
 50
89.99999999999991
 51
179.9999999999997
  0
LINE
  5
77
330
2F
100
AcDbEntity
  8
A-DETL-GENF
100
AcDbLine
 10
0.0
 20
-7.000000000002399
 30
0.0
 11
1.1e-15
 21
-12.0000000000013
 31
0.0
  0
ARC
  5
78
330
2F
100
AcDbEntity
  8
A-DETL-GENF
100
AcDbCircle
 10
38.59999999999989
 20
-20.99999999999926
 30
0.0
 40
1.700000000000001
100
AcDbArc
 50
89.99999999999994
 51
179.9999999999997
  0
LINE
  5
79
330
2F
100
AcDbEntity
  8
A-DETL-GENF
100
AcDbLine
 10
36.90000000000028
 20
-20.99999999999925
 30
0.0
 11
36.90000000000028
 21
-27.50000000000211
 31
0.0
  0
LINE
  5
7A
330
2F
100
AcDbEntity
  8
A-DETL-GENF
100
AcDbLine
 10
36.90000000000028
 20
-27.50000000000211
 30
0.0
 11
26.59999999999829
 21
-27.50000000000212
 31
0.0
  0
LINE
  5
7B
330
2F
100
AcDbEntity
  8
A-DETL-GENF
100
AcDbLine
 10
26.59999999999829
 20
-27.50000000000212
 30
0.0
 11
26.59999999999829
 21
-25.7858571571479
 31
0.0
  0
ARC
  5
7C
330
2F
100
AcDbEntity
  8
A-DETL-GENF
100
AcDbCircle
 10
25.89999999999844
 20
-26.50000000000234
 30
0.0
 40
1.0
100
AcDbArc
 50
45.57299599920698
 51
179.9999999999998
  0
LINE
  5
7D
330
2F
100
AcDbEntity
  8
A-DETL-GENF
100
AcDbLine
 10
24.89999999999867
 20
-26.50000000000234
 30
0.0
 11
24.89999999999867
 21
-27.50000000000211
 31
0.0
  0
LINE
  5
7E
330
2F
100
AcDbEntity
  8
A-DETL-GENF
100
AcDbLine
 10
24.89999999999867
 20
-27.50000000000211
 30
0.0
 11
21.6999999999994
 21
-27.50000000000211
 31
0.0
  0
LINE
  5
7F
330
2F
100
AcDbEntity
  8
A-DETL-GENF
100
AcDbLine
 10
21.6999999999994
 20
-27.50000000000211
 30
0.0
 11
21.69999999999939
 21
-16.20000000000035
 31
0.0
  0
LINE
  5
80
330
2F
100
AcDbEntity
  8
A-DETL-GENF
100
AcDbLine
 10
21.69999999999939
 20
-16.20000000000035
 30
0.0
 11
24.89999999999867
 21
-16.20000000000035
 31
0.0
  0
ARC
  5
81
330
2F
100
AcDbEntity
  8
A-DETL-GENF
100
AcDbCircle
 10
24.89999999999867
 20
-14.50000000000074
 30
0.0
 40
1.700000000000001
100
AcDbArc
 50
269.9999999999996
 51
3.82e-14
  0
LINE
  5
82
330
2F
100
AcDbEntity
  8
A-DETL-GENF
100
AcDbLine
 10
26.59999999999829
 20
-14.50000000000074
 30
0.0
 11
26.59999999999828
 21
-1.799999999999294
 31
0.0
  0
LINE
  5
83
330
2F
100
AcDbEntity
  8
A-DETL-GENF
100
AcDbLine
 10
26.59999999999828
 20
-1.799999999999294
 30
0.0
 11
36.90000000000028
 21
-1.799999999999292
 31
0.0
  0
LINE
  5
84
330
2F
100
AcDbEntity
  8
A-DETL-GENF
100
AcDbLine
 10
36.90000000000028
 20
-1.799999999999292
 30
0.0
 11
36.90000000000028
 21
-3.51414284285351
 31
0.0
  0
ARC
  5
85
330
2F
100
AcDbEntity
  8
A-DETL-GENF
100
AcDbCircle
 10
37.60000000000012
 20
-2.799999999999067
 30
0.0
 40
1.0
100
AcDbArc
 50
225.5729959992068
 51
0.0
  0
LINE
  5
86
330
2F
100
AcDbEntity
  8
A-DETL-GENF
100
AcDbLine
 10
38.59999999999989
 20
-2.799999999999067
 30
0.0
 11
38.59999999999989
 21
-1.799999999999294
 31
0.0
  0
LINE
  5
87
330
2F
100
AcDbEntity
  8
A-DETL-GENF
100
AcDbLine
 10
38.59999999999989
 20
-1.799999999999294
 30
0.0
 11
51.89999999999686
 21
-1.799999999999292
 31
0.0
  0
LINE
  5
88
330
2F
100
AcDbEntity
  8
A-DETL-GENF
100
AcDbLine
 10
51.89999999999686
 20
-1.799999999999292
 30
0.0
 11
51.89999999999686
 21
-14.50000000000074
 31
0.0
  0
LINE
  5
89
330
2F
100
AcDbEntity
  8
A-DETL-GENF
100
AcDbLine
 10
51.89999999999686
 20
-14.50000000000074
 30
0.0
 11
44.89999999999845
 21
-14.50000000000074
 31
0.0
  0
ARC
  5
8A
330
2F
100
AcDbEntity
  8
A-DETL-GENF
100
AcDbCircle
 10
44.89999999999844
 20
-16.20000000000034
 30
0.0
 40
1.699999999999994
100
AcDbArc
 50
89.99999999999972
 51
179.9999999999998
  0
LINE
  5
8B
330
2F
100
AcDbEntity
  8
A-DETL-GENF
100
AcDbLine
 10
43.19999999999884
 20
-16.20000000000034
 30
0.0
 11
43.19999999999884
 21
-19.29999999999965
 31
0.0
  0
LINE
  5
8C
330
2F
100
AcDbEntity
  8
A-DETL-GENF
100
AcDbLine
 10
43.19999999999884
 20
-19.29999999999965
 30
0.0
 11
38.59999999999989
 21
-19.29999999999965
 31
0.0
  0
ENDBLK
  5
31
330
2F
100
AcDbEntity
  8
0
100
AcDbBlockEnd
  0
ENDSEC
  0
SECTION
  2
ENTITIES
  0
INSERT
  5
8E
330
17
100
AcDbEntity
  8
0
100
AcDbBlockReference
  2
31 Solarlux p_05 - 31Solarlux p_05-V23-00_0 Basismaterialen
 10
0.0
 20
0.0
 30
0.0
  0
ENDSEC
  0
SECTION
  2
OBJECTS
  0
DICTIONARY
  5
A
330
0
100
AcDbDictionary
281
1
  3
ACAD_COLOR
350
B
  3
ACAD_GROUP
350
C
  3
ACAD_LAYOUT
350
D
  3
ACAD_MATERIAL
350
E
  3
ACAD_MLEADERSTYLE
350
F
  3
ACAD_MLINESTYLE
350
10
  3
ACAD_PLOTSETTINGS
350
11
  3
ACAD_PLOTSTYLENAME
350
12
  3
ACAD_SCALELIST
350
14
  3
ACAD_TABLESTYLE
350
15
  3
ACAD_VISUALSTYLE
350
16
  3
EZDXF_META
350
2D
  0
DICTIONARY
  5
B
330
A
100
AcDbDictionary
281
1
  0
DICTIONARY
  5
C
330
A
100
AcDbDictionary
281
1
  0
DICTIONARY
  5
D
330
A
100
AcDbDictionary
281
1
  3
Model
350
1A
  3
Layout1
350
1E
  0
DICTIONARY
  5
E
330
A
100
AcDbDictionary
281
1
  3
ByBlock
350
1F
  3
ByLayer
350
20
  3
Global
350
21
  0
DICTIONARY
  5
F
330
A
100
AcDbDictionary
281
1
  3
Standard
350
2C
  0
DICTIONARY
  5
10
330
A
100
AcDbDictionary
281
1
  3
Standard
350
22
  0
DICTIONARY
  5
11
330
A
100
AcDbDictionary
281
1
  0
ACDBDICTIONARYWDFLT
  5
12
330
A
100
AcDbDictionary
281
1
  3
Normal
350
13
100
AcDbDictionaryWithDefault
340
13
  0
ACDBPLACEHOLDER
  5
13
330
12
  0
DICTIONARY
  5
14
330
A
100
AcDbDictionary
281
1
  0
DICTIONARY
  5
15
330
A
100
AcDbDictionary
281
1
  0
DICTIONARY
  5
16
330
A
100
AcDbDictionary
281
1
  0
LAYOUT
  5
1A
330
D
100
AcDbPlotSettings
  1

  4
A3
  6

 40
7.5
 41
20.0
 42
7.5
 43
20.0
 44
420.0
 45
297.0
 46
0.0
 47
0.0
 48
0.0
 49
0.0
140
0.0
141
0.0
142
1.0
143
1.0
 70
1024
 72
1
 73
0
 74
5
  7

 75
16
 76
0
 77
2
 78
300
147
1.0
148
0.0
149
0.0
100
AcDbLayout
  1
Model
 70
1
 71
0
 10
0.0
 20
0.0
 11
420.0
 21
297.0
 12
0.0
 22
0.0
 32
0.0
 14
1e+20
 24
1e+20
 34
1e+20
 15
-1e+20
 25
-1e+20
 35
-1e+20
146
0.0
 13
0.0
 23
0.0
 33
0.0
 16
1.0
 26
0.0
 36
0.0
 17
0.0
 27
1.0
 37
0.0
 76
1
330
17
  0
LAYOUT
  5
1E
330
D
100
AcDbPlotSettings
  1

  4
A3
  6

 40
7.5
 41
20.0
 42
7.5
 43
20.0
 44
420.0
 45
297.0
 46
0.0
 47
0.0
 48
0.0
 49
0.0
140
0.0
141
0.0
142
1.0
143
1.0
 70
0
 72
1
 73
0
 74
5
  7

 75
16
 76
0
 77
2
 78
300
147
1.0
148
0.0
149
0.0
100
AcDbLayout
  1
Layout1
 70
1
 71
1
 10
0.0
 20
0.0
 11
420.0
 21
297.0
 12
0.0
 22
0.0
 32
0.0
 14
1e+20
 24
1e+20
 34
1e+20
 15
-1e+20
 25
-1e+20
 35
-1e+20
146
0.0
 13
0.0
 23
0.0
 33
0.0
 16
1.0
 26
0.0
 36
0.0
 17
0.0
 27
1.0
 37
0.0
 76
1
330
1B
  0
MATERIAL
  5
1F
102
{ACAD_REACTORS
330
E
102
}
330
E
100
AcDbMaterial
  1
ByBlock
  2

 70
0
 40
1.0
 71
1
 41
1.0
 91
-1023410177
 42
1.0
 72
1
  3

 73
1
 74
1
 75
1
 44
0.5
 73
0
 45
1.0
 46
1.0
 77
1
  4

 78
1
 79
1
170
1
 48
1.0
171
1
  6

172
1
173
1
174
1
140
1.0
141
1.0
175
1
  7

176
1
177
1
178
1
143
1.0
179
1
  8

270
1
271
1
272
1
145
1.0
146
1.0
273
1
  9

274
1
275
1
276
1
 42
1.0
 72
1
  3

 73
1
 74
1
 75
1
 94
63
  0
MATERIAL
  5
20
102
{ACAD_REACTORS
330
E
102
}
330
E
100
AcDbMaterial
  1
ByLayer
  2

 70
0
 40
1.0
 71
1
 41
1.0
 91
-1023410177
 42
1.0
 72
1
  3

 73
1
 74
1
 75
1
 44
0.5
 73
0
 45
1.0
 46
1.0
 77
1
  4

 78
1
 79
1
170
1
 48
1.0
171
1
  6

172
1
173
1
174
1
140
1.0
141
1.0
175
1
  7

176
1
177
1
178
1
143
1.0
179
1
  8

270
1
271
1
272
1
145
1.0
146
1.0
273
1
  9

274
1
275
1
276
1
 42
1.0
 72
1
  3

 73
1
 74
1
 75
1
 94
63
  0
MATERIAL
  5
21
102
{ACAD_REACTORS
330
E
102
}
330
E
100
AcDbMaterial
  1
Global
  2

 70
0
 40
1.0
 71
1
 41
1.0
 91
-1023410177
 42
1.0
 72
1
  3

 73
1
 74
1
 75
1
 44
0.5
 73
0
 45
1.0
 46
1.0
 77
1
  4

 78
1
 79
1
170
1
 48
1.0
171
1
  6

172
1
173
1
174
1
140
1.0
141
1.0
175
1
  7

176
1
177
1
178
1
143
1.0
179
1
  8

270
1
271
1
272
1
145
1.0
146
1.0
273
1
  9

274
1
275
1
276
1
 42
1.0
 72
1
  3

 73
1
 74
1
 75
1
 94
63
  0
MLINESTYLE
  5
22
102
{ACAD_REACTORS
330
10
102
}
330
10
100
AcDbMlineStyle
  2
Standard
 70
0
  3

 62
256
 51
90.0
 52
90.0
 71
2
 49
0.5
 62
256
  6
BYLAYER
 49
-0.5
 62
256
  6
BYLAYER
  0
MLEADERSTYLE
  5
2C
102
{ACAD_REACTORS
330
F
102
}
330
F
100
AcDbMLeaderStyle
179
2
170
2
171
1
172
0
 90
2
 40
0.0
 41
0.0
173
1
 91
-1056964608
 92
-2
290
1
 42
2.0
291
1
 43
8.0
  3
Standard
 44
4.0
300

342
29
174
1
175
1
176
0
178
1
 93
-1056964608
 45
4.0
292
0
297
0
 46
4.0
 94
-1056964608
 47
1.0
 49
1.0
140
1.0
294
1
141
0.0
177
0
142
1.0
295
0
296
0
143
3.75
271
0
272
9
273
9
  0
DICTIONARY
  5
2D
330
A
100
AcDbDictionary
280
1
281
1
  3
CREATED_BY_EZDXF
350
2E
  3
WRITTEN_BY_EZDXF
350
92
  0
DICTIONARYVAR
  5
2E
330
2D
100
DictionaryVariables
280
0
  1
1.4.3 @ 2026-02-13T04:54:12.883752+00:00
  0
DICTIONARYVAR
  5
92
330
2D
100
DictionaryVariables
280
0
  1
1.4.3 @ 2026-02-13T04:54:12.888810+00:00
  0
ENDSEC
  0
EOF
