  0
SECTION
  2
HEADER
  9
$ACADVER
  1
AC1032
  9
$ACADMAINTVER
 90
4
  9
$DWGCODEPAGE
  3
ANSI_1252
  9
$LASTSAVEDBY
  1
ezdxf
  9
$REQUIREDVERSIONS
160
0
  9
$INSBASE
 10
0.0
 20
0.0
 30
0.0
  9
$EXTMIN
 10
1e+20
 20
1e+20
 30
1e+20
  9
$EXTMAX
 10
-1e+20
 20
-1e+20
 30
-1e+20
  9
$LIMMIN
 10
0.0
 20
0.0
  9
$LIMMAX
 10
420.0
 20
297.0
  9
$ORTHOMODE
 70
0
  9
$REGENMODE
 70
1
  9
$FILLMODE
 70
1
  9
$QTEXTMODE
 70
0
  9
$MIRRTEXT
 70
1
  9
$LTSCALE
 40
1.0
  9
$ATTMODE
 70
1
  9
$TEXTSIZE
 40
2.5
  9
$TRACEWID
 40
1.0
  9
$TEXTSTYLE
  7
Standard
  9
$CLAYER
  8
0
  9
$CELTYPE
  6
ByLayer
  9
$CECOLOR
 62
256
  9
$CELTSCALE
 40
1.0
  9
$DISPSILH
 70
0
  9
$DIMSCALE
 40
1.0
  9
$DIMASZ
 40
2.5
  9
$DIMEXO
 40
0.625
  9
$DIMDLI
 40
3.75
  9
$DIMRND
 40
0.0
  9
$DIMDLE
 40
0.0
  9
$DIMEXE
 40
1.25
  9
$DIMTP
 40
0.0
  9
$DIMTM
 40
0.0
  9
$DIMTXT
 40
2.5
  9
$DIMCEN
 40
2.5
  9
$DIMTSZ
 40
0.0
  9
$DIMTOL
 70
0
  9
$DIMLIM
 70
0
  9
$DIMTIH
 70
0
  9
$DIMTOH
 70
0
  9
$DIMSE1
 70
0
  9
$DIMSE2
 70
0
  9
$DIMTAD
 70
1
  9
$DIMZIN
 70
8
  9
$DIMBLK
  1

  9
$DIMASO
 70
1
  9
$DIMSHO
 70
1
  9
$DIMPOST
  1

  9
$DIMAPOST
  1

  9
$DIMALT
 70
0
  9
$DIMALTD
 70
3
  9
$DIMALTF
 40
0.03937007874
  9
$DIMLFAC
 40
1.0
  9
$DIMTOFL
 70
1
  9
$DIMTVP
 40
0.0
  9
$DIMTIX
 70
0
  9
$DIMSOXD
 70
0
  9
$DIMSAH
 70
0
  9
$DIMBLK1
  1

  9
$DIMBLK2
  1

  9
$DIMSTYLE
  2
ISO-25
  9
$DIMCLRD
 70
0
  9
$DIMCLRE
 70
0
  9
$DIMCLRT
 70
0
  9
$DIMTFAC
 40
1.0
  9
$DIMGAP
 40
0.625
  9
$DIMJUST
 70
0
  9
$DIMSD1
 70
0
  9
$DIMSD2
 70
0
  9
$DIMTOLJ
 70
0
  9
$DIMTZIN
 70
8
  9
$DIMALTZ
 70
0
  9
$DIMALTTZ
 70
0
  9
$DIMUPT
 70
0
  9
$DIMDEC
 70
2
  9
$DIMTDEC
 70
2
  9
$DIMALTU
 70
2
  9
$DIMALTTD
 70
3
  9
$DIMTXSTY
  7
Standard
  9
$DIMAUNIT
 70
0
  9
$DIMADEC
 70
0
  9
$DIMALTRND
 40
0.0
  9
$DIMAZIN
 70
0
  9
$DIMDSEP
 70
44
  9
$DIMATFIT
 70
3
  9
$DIMFRAC
 70
0
  9
$DIMLDRBLK
  1

  9
$DIMLUNIT
 70
2
  9
$DIMLWD
 70
-2
  9
$DIMLWE
 70
-2
  9
$DIMTMOVE
 70
0
  9
$DIMFXL
 40
1.0
  9
$DIMFXLON
 70
0
  9
$DIMJOGANG
 40
0.785398163397
  9
$DIMTFILL
 70
0
  9
$DIMTFILLCLR
 70
0
  9
$DIMARCSYM
 70
0
  9
$DIMLTYPE
  6

  9
$DIMLTEX1
  6

  9
$DIMLTEX2
  6

  9
$DIMTXTDIRECTION
 70
0
  9
$LUNITS
 70
2
  9
$LUPREC
 70
4
  9
$SKETCHINC
 40
1.0
  9
$FILLETRAD
 40
10.0
  9
$AUNITS
 70
0
  9
$AUPREC
 70
2
  9
$MENU
  1
.
  9
$ELEVATION
 40
0.0
  9
$PELEVATION
 40
0.0
  9
$THICKNESS
 40
0.0
  9
$LIMCHECK
 70
0
  9
$CHAMFERA
 40
0.0
  9
$CHAMFERB
 40
0.0
  9
$CHAMFERC
 40
0.0
  9
$CHAMFERD
 40
0.0
  9
$SKPOLY
 70
0
  9
$TDCREATE
 40
2461085.245972222
  9
$TDUCREATE
 40
2458532.153996898
  9
$TDUPDATE
 40
2461085.245972222
  9
$TDUUPDATE
 40
2458532.1544311
  9
$TDINDWG
 40
0.0
  9
$TDUSRTIMER
 40
0.0
  9
$USRTIMER
 70
1
  9
$ANGBASE
 50
0.0
  9
$ANGDIR
 70
0
  9
$PDMODE
 70
0
  9
$PDSIZE
 40
0.0
  9
$PLINEWID
 40
0.0
  9
$SPLFRAME
 70
0
  9
$SPLINETYPE
 70
6
  9
$SPLINESEGS
 70
8
  9
$HANDSEED
  5
97
  9
$SURFTAB1
 70
6
  9
$SURFTAB2
 70
6
  9
$SURFTYPE
 70
6
  9
$SURFU
 70
6
  9
$SURFV
 70
6
  9
$UCSBASE
  2

  9
$UCSNAME
  2

  9
$UCSORG
 10
0.0
 20
0.0
 30
0.0
  9
$UCSXDIR
 10
1.0
 20
0.0
 30
0.0
  9
$UCSYDIR
 10
0.0
 20
1.0
 30
0.0
  9
$UCSORTHOREF
  2

  9
$UCSORTHOVIEW
 70
0
  9
$UCSORGTOP
 10
0.0
 20
0.0
 30
0.0
  9
$UCSORGBOTTOM
 10
0.0
 20
0.0
 30
0.0
  9
$UCSORGLEFT
 10
0.0
 20
0.0
 30
0.0
  9
$UCSORGRIGHT
 10
0.0
 20
0.0
 30
0.0
  9
$UCSORGFRONT
 10
0.0
 20
0.0
 30
0.0
  9
$UCSORGBACK
 10
0.0
 20
0.0
 30
0.0
  9
$PUCSBASE
  2

  9
$PUCSNAME
  2

  9
$PUCSORG
 10
0.0
 20
0.0
 30
0.0
  9
$PUCSXDIR
 10
1.0
 20
0.0
 30
0.0
  9
$PUCSYDIR
 10
0.0
 20
1.0
 30
0.0
  9
$PUCSORTHOREF
  2

  9
$PUCSORTHOVIEW
 70
0
  9
$PUCSORGTOP
 10
0.0
 20
0.0
 30
0.0
  9
$PUCSORGBOTTOM
 10
0.0
 20
0.0
 30
0.0
  9
$PUCSORGLEFT
 10
0.0
 20
0.0
 30
0.0
  9
$PUCSORGRIGHT
 10
0.0
 20
0.0
 30
0.0
  9
$PUCSORGFRONT
 10
0.0
 20
0.0
 30
0.0
  9
$PUCSORGBACK
 10
0.0
 20
0.0
 30
0.0
  9
$USERI1
 70
0
  9
$USERI2
 70
0
  9
$USERI3
 70
0
  9
$USERI4
 70
0
  9
$USERI5
 70
0
  9
$USERR1
 40
0.0
  9
$USERR2
 40
0.0
  9
$USERR3
 40
0.0
  9
$USERR4
 40
0.0
  9
$USERR5
 40
0.0
  9
$WORLDVIEW
 70
1
  9
$SHADEDGE
 70
3
  9
$SHADEDIF
 70
70
  9
$TILEMODE
 70
1
  9
$MAXACTVP
 70
64
  9
$PINSBASE
 10
0.0
 20
0.0
 30
0.0
  9
$PLIMCHECK
 70
0
  9
$PEXTMIN
 10
1e+20
 20
1e+20
 30
1e+20
  9
$PEXTMAX
 10
-1e+20
 20
-1e+20
 30
-1e+20
  9
$PLIMMIN
 10
0.0
 20
0.0
  9
$PLIMMAX
 10
420.0
 20
297.0
  9
$UNITMODE
 70
0
  9
$VISRETAIN
 70
1
  9
$PLINEGEN
 70
0
  9
$PSLTSCALE
 70
1
  9
$TREEDEPTH
 70
3020
  9
$CMLSTYLE
  2
Standard
  9
$CMLJUST
 70
0
  9
$CMLSCALE
 40
20.0
  9
$PROXYGRAPHICS
 70
1
  9
$MEASUREMENT
 70
1
  9
$CELWEIGHT
370
-1
  9
$ENDCAPS
280
0
  9
$JOINSTYLE
280
0
  9
$LWDISPLAY
290
0
  9
$INSUNITS
 70
6
  9
$HYPERLINKBASE
  1

  9
$STYLESHEET
  1

  9
$XEDIT
290
1
  9
$CEPSNTYPE
380
0
  9
$PSTYLEMODE
290
1
  9
$FINGERPRINTGUID
  2
{B1C2DCA3-51E5-4ED7-BC0B-053284042052}
  9
$VERSIONGUID
  2
{F94021CE-FC7E-4C29-81F1-DD243A5E2191}
  9
$EXTNAMES
290
1
  9
$PSVPSCALE
 40
0.0
  9
$OLESTARTUP
290
0
  9
$SORTENTS
280
127
  9
$INDEXCTL
280
0
  9
$HIDETEXT
280
1
  9
$XCLIPFRAME
280
1
  9
$HALOGAP
280
0
  9
$OBSCOLOR
 70
257
  9
$OBSLTYPE
280
0
  9
$INTERSECTIONDISPLAY
280
0
  9
$INTERSECTIONCOLOR
 70
257
  9
$DIMASSOC
280
2
  9
$PROJECTNAME
  1

  9
$CAMERADISPLAY
290
0
  9
$LENSLENGTH
 40
50.0
  9
$CAMERAHEIGHT
 40
0.0
  9
$STEPSPERSEC
 40
24.0
  9
$STEPSIZE
 40
100.0
  9
$3DDWFPREC
 40
2.0
  9
$PSOLWIDTH
 40
0.005
  9
$PSOLHEIGHT
 40
0.08
  9
$LOFTANG1
 40
1.570796326795
  9
$LOFTANG2
 40
1.570796326795
  9
$LOFTMAG1
 40
0.0
  9
$LOFTMAG2
 40
0.0
  9
$LOFTPARAM
 70
7
  9
$LOFTNORMALS
280
1
  9
$LATITUDE
 40
37.795
  9
$LONGITUDE
 40
-122.394
  9
$NORTHDIRECTION
 40
0.0
  9
$TIMEZONE
 70
-8000
  9
$LIGHTGLYPHDISPLAY
280
1
  9
$TILEMODELIGHTSYNCH
280
1
  9
$CMATERIAL
347
20
  9
$SOLIDHIST
280
0
  9
$SHOWHIST
280
1
  9
$DWFFRAME
280
2
  9
$DGNFRAME
280
2
  9
$REALWORLDSCALE
290
1
  9
$INTERFERECOLOR
 62
256
  9
$CSHADOW
280
0
  9
$SHADOWPLANELOCATION
 40
0.0
  0
ENDSEC
  0
SECTION
  2
CLASSES
  0
CLASS
  1
ACDBDICTIONARYWDFLT
  2
AcDbDictionaryWithDefault
  3
ObjectDBX Classes
 90
0
 91
0
280
0
281
0
  0
CLASS
  1
SUN
  2
AcDbSun
  3
SCENEOE
 90
1153
 91
0
280
0
281
0
  0
CLASS
  1
VISUALSTYLE
  2
AcDbVisualStyle
  3
ObjectDBX Classes
 90
4095
 91
0
280
0
281
0
  0
CLASS
  1
MATERIAL
  2
AcDbMaterial
  3
ObjectDBX Classes
 90
1153
 91
0
280
0
281
0
  0
CLASS
  1
SCALE
  2
AcDbScale
  3
ObjectDBX Classes
 90
1153
 91
0
280
0
281
0
  0
CLASS
  1
TABLESTYLE
  2
AcDbTableStyle
  3
ObjectDBX Classes
 90
4095
 91
0
280
0
281
0
  0
CLASS
  1
MLEADERSTYLE
  2
AcDbMLeaderStyle
  3
ACDB_MLEADERSTYLE_CLASS
 90
4095
 91
0
280
0
281
0
  0
CLASS
  1
DICTIONARYVAR
  2
AcDbDictionaryVar
  3
ObjectDBX Classes
 90
0
 91
0
280
0
281
0
  0
CLASS
  1
CELLSTYLEMAP
  2
AcDbCellStyleMap
  3
ObjectDBX Classes
 90
1152
 91
0
280
0
281
0
  0
CLASS
  1
MENTALRAYRENDERSETTINGS
  2
AcDbMentalRayRenderSettings
  3
SCENEOE
 90
1024
 91
0
280
0
281
0
  0
CLASS
  1
ACDBDETAILVIEWSTYLE
  2
AcDbDetailViewStyle
  3
ObjectDBX Classes
 90
1025
 91
0
280
0
281
0
  0
CLASS
  1
ACDBSECTIONVIEWSTYLE
  2
AcDbSectionViewStyle
  3
ObjectDBX Classes
 90
1025
 91
0
280
0
281
0
  0
CLASS
  1
RASTERVARIABLES
  2
AcDbRasterVariables
  3
ISM
 90
0
 91
0
280
0
281
0
  0
CLASS
  1
LAYOUT
  2
AcDbLayout
  3
ObjectDBX Classes
 90
0
 91
0
280
0
281
0
  0
CLASS
  1
ACDBPLACEHOLDER
  2
AcDbPlaceHolder
  3
ObjectDBX Classes
 90
0
 91
0
280
0
281
0
  0
ENDSEC
  0
SECTION
  2
TABLES
  0
TABLE
  2
VPORT
  5
8
330
0
100
AcDbSymbolTable
 70
1
  0
VPORT
  5
23
330
8
100
AcDbSymbolTableRecord
100
AcDbViewportTableRecord
  2
*Active
 70
0
 10
0.0
 20
0.0
 11
1.0
 21
1.0
 12
0.0
 22
0.0
 13
0.0
 23
0.0
 14
0.5
 24
0.5
 15
0.5
 25
0.5
 16
0.0
 26
0.0
 36
1.0
 17
0.0
 27
0.0
 37
0.0
 40
1000.0
 41
1.34
 42
50.0
 43
0.0
 44
0.0
 50
0.0
 51
0.0
 71
0
 72
1000
 73
1
 74
3
 75
0
 76
0
 77
0
 78
0
281
0
 65
0
146
0.0
  0
ENDTAB
  0
TABLE
  2
LTYPE
  5
2
330
0
100
AcDbSymbolTable
 70
3
  0
LTYPE
  5
24
330
2
100
AcDbSymbolTableRecord
100
AcDbLinetypeTableRecord
  2
ByBlock
 70
0
  3

 72
65
 73
0
 40
0.0
  0
LTYPE
  5
25
330
2
100
AcDbSymbolTableRecord
100
AcDbLinetypeTableRecord
  2
ByLayer
 70
0
  3

 72
65
 73
0
 40
0.0
  0
LTYPE
  5
26
330
2
100
AcDbSymbolTableRecord
100
AcDbLinetypeTableRecord
  2
Continuous
 70
0
  3

 72
65
 73
0
 40
0.0
  0
ENDTAB
  0
TABLE
  2
LAYER
  5
1
330
0
100
AcDbSymbolTable
 70
3
  0
LAYER
  5
27
330
1
100
AcDbSymbolTableRecord
100
AcDbLayerTableRecord
  2
0
 70
0
 62
7
  6
Continuous
370
-3
390
13
347
21
  0
LAYER
  5
28
330
1
100
AcDbSymbolTableRecord
100
AcDbLayerTableRecord
  2
Defpoints
 70
0
 62
7
  6
Continuous
290
0
370
-3
390
13
347
21
  0
LAYER
  5
91
330
1
100
AcDbSymbolTableRecord
100
AcDbLayerTableRecord
  2
A-DETL-GENF
 70
0
 62
92
  6
Continuous
370
18
390
13
347
21
348
0
  0
ENDTAB
  0
TABLE
  2
STYLE
  5
5
330
0
100
AcDbSymbolTable
 70
1
  0
STYLE
  5
29
330
5
100
AcDbSymbolTableRecord
100
AcDbTextStyleTableRecord
  2
Standard
 70
0
 40
0.0
 41
1.0
 50
0.0
 71
0
 42
2.5
  3
txt
  4

  0
ENDTAB
  0
TABLE
  2
VIEW
  5
7
330
0
100
AcDbSymbolTable
 70
0
  0
ENDTAB
  0
TABLE
  2
UCS
  5
6
330
0
100
AcDbSymbolTable
 70
0
  0
ENDTAB
  0
TABLE
  2
APPID
  5
3
330
0
100
AcDbSymbolTable
 70
3
  0
APPID
  5
2A
330
3
100
AcDbSymbolTableRecord
100
AcDbRegAppTableRecord
  2
ACAD
 70
0
  0
APPID
  5
94
330
3
100
AcDbSymbolTableRecord
100
AcDbRegAppTableRecord
  2
HATCHBACKGROUNDCOLOR
 70
0
  0
APPID
  5
95
330
3
100
AcDbSymbolTableRecord
100
AcDbRegAppTableRecord
  2
EZDXF
 70
0
  0
ENDTAB
  0
TABLE
  2
DIMSTYLE
  5
4
330
0
100
AcDbSymbolTable
 70
1
100
AcDbDimStyleTable
  0
DIMSTYLE
105
2B
330
4
100
AcDbSymbolTableRecord
100
AcDbDimStyleTableRecord
  2
Standard
 70
0
 40
1.0
 41
2.5
 42
0.625
 43
3.75
 44
1.25
 45
0.0
 46
0.0
 47
0.0
 48
0.0
 49
2.5
140
2.5
141
2.5
142
0.0
143
0.03937007874
144
1.0
145
0.0
146
1.0
147
0.625
148
0.0
 69
0
 70
0
 71
0
 72
0
 73
0
 74
0
 75
0
 76
0
 77
1
 78
8
 79
3
170
0
171
3
172
1
173
0
174
0
175
0
176
0
177
0
178
0
179
2
271
2
272
2
273
2
274
3
275
0
276
0
277
2
278
44
279
0
280
0
281
0
282
0
283
0
284
8
285
0
286
0
288
0
289
3
290
0
371
-2
372
-2
  0
ENDTAB
  0
TABLE
  2
BLOCK_RECORD
  5
9
330
0
100
AcDbSymbolTable
 70
3
  0
BLOCK_RECORD
  5
17
330
9
100
AcDbSymbolTableRecord
100
AcDbBlockTableRecord
  2
*Model_Space
340
1A
 70
0
280
1
281
0
  0
BLOCK_RECORD
  5
1B
330
9
100
AcDbSymbolTableRecord
100
AcDbBlockTableRecord
  2
*Paper_Space
340
1E
 70
0
280
1
281
0
  0
BLOCK_RECORD
  5
2F
330
9
100
AcDbSymbolTableRecord
100
AcDbBlockTableRecord
  2
31 Solarlux p_06 - 31Solarlux p_06-971063-00_0 Basismaterialen
340
0
 70
0
280
1
281
0
  0
ENDTAB
  0
ENDSEC
  0
SECTION
  2
BLOCKS
  0
BLOCK
  5
18
330
17
100
AcDbEntity
  8
0
100
AcDbBlockBegin
  2
*Model_Space
 70
0
 10
0.0
 20
0.0
 30
0.0
  3
*Model_Space
  1

  0
ENDBLK
  5
19
330
17
100
AcDbEntity
  8
0
100
AcDbBlockEnd
  0
BLOCK
  5
1C
330
1B
100
AcDbEntity
  8
0
100
AcDbBlockBegin
  2
*Paper_Space
 70
0
 10
0.0
 20
0.0
 30
0.0
  3
*Paper_Space
  1

  0
ENDBLK
  5
1D
330
1B
100
AcDbEntity
  8
0
100
AcDbBlockEnd
  0
BLOCK
  5
30
330
2F
100
AcDbEntity
  8
0
100
AcDbBlockBegin
  2
31 Solarlux p_06 - 31Solarlux p_06-971063-00_0 Basismaterialen
 70
0
 10
0.0
 20
0.0
 30
0.0
  3
31 Solarlux p_06 - 31Solarlux p_06-971063-00_0 Basismaterialen
  1

  0
HATCH
  5
32
330
2F
100
AcDbEntity
  8
A-DETL-GENF
100
AcDbHatch
 10
0.0
 20
0.0
 30
0.0
210
0.0
220
0.0
230
1.0
  2
SOLID
 70
1
 71
0
 91
2
 92
1
 93
76
 72
1
 10
19.57598586582574
 20
-21.3999999999973
 11
21.42124174239573
 21
-19.55967897093411
 72
1
 10
21.42124174239573
 20
-19.55967897093411
 11
23.67935172792275
 21
-18.25864475412531
 72
1
 10
23.67935172792275
 20
-18.25864475412531
 11
26.19695062074522
 21
-17.58526035061647
 72
1
 10
26.19695062074522
 20
-17.58526035061647
 11
28.80304937943287
 21
-17.58526035061647
 72
1
 10
28.80304937943287
 20
-17.58526035061647
 11
31.32064827225534
 21
-18.25864475412531
 72
1
 10
31.32064827225534
 20
-18.25864475412531
 11
33.57875825778235
 21
-19.55967897093411
 72
1
 10
33.57875825778235
 20
-19.55967897093411
 11
35.42401413435234
 21
-21.3999999999973
 72
1
 10
35.42401413435234
 20
-21.3999999999973
 11
43.00000000008551
 21
-21.3999999999973
 72
1
 10
43.00000000008551
 20
-21.3999999999973
 11
43.01703708694011
 21
-20.37059047744741
 72
1
 10
43.01703708694011
 20
-20.37059047744741
 11
43.14644660949237
 21
-20.14644660940448
 72
1
 10
43.14644660949237
 20
-20.14644660940448
 11
43.37059047753314
 21
-20.01703708685222
 72
1
 10
43.37059047753314
 20
-20.01703708685222
 11
43.5000000000854
 21
-19.99999999999978
 72
1
 10
43.5000000000854
 20
-19.99999999999978
 11
45.03036297128718
 21
-19.99999999999978
 72
1
 10
45.03036297128718
 20
-19.99999999999978
 11
44.10682047734018
 21
-18.40037747771829
 72
1
 10
44.10682047734018
 20
-18.40037747771829
 11
44.10682047734018
 21
-17.49999999999386
 72
1
 10
44.10682047734018
 20
-17.49999999999386
 11
48.8972391992944
 21
-17.49999999999386
 72
1
 10
48.8972391992944
 20
-17.49999999999386
 11
47.50296385241267
 21
-19.91495574051133
 72
1
 10
47.50296385241267
 20
-19.91495574051133
 11
50.48094703364773
 21
-20.71290392895753
 72
1
 10
50.48094703364773
 20
-20.71290392895753
 11
50.32496315168993
 21
-18.9300000000637
 72
1
 10
50.32496315168993
 20
-18.9300000000637
 11
50.05324233323479
 21
-18.65429876666416
 72
1
 10
50.05324233323479
 20
-18.65429876666416
 11
49.94048992964041
 21
-18.28398772340194
 72
1
 10
49.94048992964041
 20
-18.28398772340194
 11
50.01245689426758
 21
-17.90364034365002
 72
1
 10
50.01245689426758
 20
-17.90364034365002
 11
50.25270705466954
 21
-17.60012224912189
 72
1
 10
50.25270705466954
 20
-17.60012224912189
 11
50.42000000008729
 21
-17.50000000007182
 72
1
 10
50.42000000008729
 20
-17.50000000007182
 11
50.42000000008729
 21
-15.99999999999419
 72
1
 10
50.42000000008729
 20
-15.99999999999419
 11
54.05205986634668
 21
-15.96958789987059
 72
1
 10
54.05205986634668
 20
-15.96958789987059
 11
54.28191689214748
 21
-15.88020139116899
 72
1
 10
54.28191689214748
 20
-15.88020139116899
 11
54.48290673001872
 21
-15.73727733679113
 72
1
 10
54.48290673001872
 20
-15.73727733679113
 11
54.64280433381446
 21
-15.54950897804623
 72
1
 10
54.64280433381446
 20
-15.54950897804623
 11
54.75188405966712
 21
-15.32831717517984
 72
1
 10
54.75188405966712
 20
-15.32831717517984
 11
54.80351122049469
 21
-15.08715574270687
 72
1
 10
54.80351122049469
 20
-15.08715574270687
 11
55.00000000008712
 21
-12.84127871409465
 72
1
 10
55.00000000008712
 20
-12.84127871409465
 11
53.50000000008746
 21
-12.43935492546907
 72
1
 10
53.50000000008746
 20
-12.43935492546907
 11
53.50000000008746
 21
-14.49999999999454
 72
1
 10
53.50000000008746
 20
-14.49999999999454
 11
50.10000000008823
 21
-14.49999999999454
 72
1
 10
50.10000000008823
 20
-14.49999999999454
 11
50.10000000008823
 21
-1.799999999997424
 72
1
 10
50.10000000008823
 20
-1.799999999997424
 11
53.50000000008746
 21
-1.799999999997424
 72
1
 10
53.50000000008746
 20
-1.799999999997424
 11
53.50000000008746
 21
-5.060645074622243
 72
1
 10
53.50000000008746
 20
-5.060645074622243
 11
55.00000000018674
 21
-4.65872128596851
 72
1
 10
55.00000000018674
 20
-4.65872128596851
 11
54.85000000018677
 21
-2.329360642984255
 72
1
 10
54.85000000018677
 20
-2.329360642984255
 11
55.0000000001954
 21
2.1658e-12
 72
1
 10
55.0000000001954
 20
2.1657e-12
 11
-1.7323e-11
 21
2.1657e-12
 72
1
 10
-1.73259e-11
 20
2.1657e-12
 11
0.149999999991303
 21
-2.329360642984255
 72
1
 10
0.149999999991303
 20
-2.329360642984255
 11
-8.6629e-12
 21
-4.65872128596851
 72
1
 10
-8.6629e-12
 20
-4.65872128596851
 11
1.500000000090619
 21
-5.060645074622243
 72
1
 10
1.500000000090619
 20
-5.060645074622243
 11
1.500000000090619
 21
-1.799999999997424
 72
1
 10
1.500000000090619
 20
-1.799999999997424
 11
4.900000000089846
 21
-1.799999999997424
 72
1
 10
4.900000000089846
 20
-1.799999999997424
 11
4.900000000089846
 21
-14.49999999999454
 72
1
 10
4.900000000089846
 20
-14.49999999999454
 11
1.500000000090619
 21
-14.49999999999454
 72
1
 10
1.500000000090619
 20
-14.49999999999454
 11
1.500000000090619
 21
-12.43935492546907
 72
1
 10
1.500000000090619
 20
-12.43935492546907
 11
9.09608e-11
 21
-12.84127871409465
 72
1
 10
9.09608e-11
 20
-12.84127871409465
 11
0.2481159405109565
 21
-15.32831717517984
 72
1
 10
0.2481159405109565
 20
-15.32831717517984
 11
0.3571956663636229
 21
-15.54950897804623
 72
1
 10
0.3571956663636229
 20
-15.54950897804623
 11
0.5170932701593643
 21
-15.73727733679113
 72
1
 10
0.5170932701593643
 20
-15.73727733679113
 11
0.7180831080306007
 21
-15.88020139116899
 72
1
 10
0.7180831080306007
 20
-15.88020139116899
 11
0.9479401338314005
 21
-15.96958789987059
 72
1
 10
0.9479401338314005
 20
-15.96958789987059
 11
1.192683477789785
 21
-15.99999999999419
 72
1
 10
1.192683477789785
 20
-15.99999999999419
 11
4.580000000090786
 21
-15.99999999999419
 72
1
 10
4.580000000090786
 20
-15.99999999999419
 11
4.580000000090786
 21
-17.50000000007182
 72
1
 10
4.580000000090786
 20
-17.50000000007182
 11
4.885815771028626
 21
-17.73731853606459
 72
1
 10
4.885815771028626
 20
-17.73731853606459
 11
5.046581339660337
 21
-18.08945175690835
 72
1
 10
5.046581339660337
 20
-18.08945175690835
 11
5.025580267771147
 21
-18.47597773049864
 72
1
 10
5.025580267771147
 20
-18.47597773049864
 11
4.827608884360711
 21
-18.80861973721332
 72
1
 10
4.827608884360711
 20
-18.80861973721332
 11
4.67503684848815
 21
-18.9300000000637
 72
1
 10
4.67503684848815
 20
-18.9300000000637
 11
4.519052966530352
 21
-20.71290392895753
 72
1
 10
4.519052966530352
 20
-20.71290392895753
 11
7.497036147765403
 21
-19.91495574051133
 72
1
 10
7.497036147765403
 20
-19.91495574051133
 11
6.102760800883686
 21
-17.49999999999386
 72
1
 10
6.102760800883686
 20
-17.49999999999386
 11
10.8868527052546
 21
-17.49999999999386
 72
1
 10
10.8868527052546
 20
-17.49999999999386
 11
10.8868527052546
 21
-18.4113358472213
 72
1
 10
10.8868527052546
 20
-18.4113358472213
 11
9.969637028886565
 21
-19.99999999999978
 72
1
 10
9.969637028886565
 20
-19.99999999999978
 11
11.62940952264494
 21
-20.01703708685222
 72
1
 10
11.62940952264494
 20
-20.01703708685222
 11
11.8535533906857
 21
-20.14644660940448
 72
1
 10
11.8535533906857
 20
-20.14644660940448
 11
11.98296291323796
 21
-20.37059047744741
 72
1
 10
11.98296291323796
 20
-20.37059047744741
 11
12.00000000009256
 21
-20.49999999999751
 72
1
 10
12.00000000009256
 20
-20.49999999999751
 11
12.00000000009256
 21
-21.3999999999973
 72
1
 10
12.00000000009256
 20
-21.3999999999973
 11
19.57598586582574
 21
-21.3999999999973
 97
0
 92
1
 93
155
 72
1
 10
41.06000000008768
 20
-19.39999999999775
 11
36.35381273811561
 21
-19.39999999999775
 72
1
 10
36.35381273811561
 20
-19.39999999999775
 11
34.20359740285784
 21
-17.54702145779122
 72
1
 10
34.20359740285784
 20
-17.54702145779122
 11
31.67830855555595
 21
-16.25092281049521
 72
1
 10
31.67830855555595
 20
-16.25092281049521
 11
28.91923883357261
 21
-15.58422217672763
 72
1
 10
28.91923883357261
 20
-15.58422217672763
 11
26.08076116660981
 21
-15.58422217672763
 72
1
 10
26.08076116660981
 20
-15.58422217672763
 11
23.32169144462214
 21
-16.25092281049521
 72
1
 10
23.32169144462214
 20
-16.25092281049521
 11
20.79640259731591
 21
-17.54702145779122
 72
1
 10
20.79640259731591
 20
-17.54702145779122
 11
18.64618726206247
 21
-19.39999999999775
 72
1
 10
18.64618726206247
 20
-19.39999999999775
 11
13.94000000009039
 21
-19.39999999999775
 72
1
 10
13.94000000009039
 20
-19.39999999999775
 11
13.18000000008883
 21
-18.63999999999619
 72
1
 10
13.18000000008883
 20
-18.63999999999619
 11
13.18000000008883
 21
-17.49999999999386
 72
1
 10
13.18000000008883
 20
-17.49999999999386
 11
13.11185165267043
 21
-16.98236190978915
 72
1
 10
13.11185165267043
 20
-16.98236190978915
 11
12.91205080765878
 21
-16.49999999999408
 72
1
 10
12.91205080765878
 20
-16.49999999999408
 11
12.59421356246139
 21
-16.08578643761958
 72
1
 10
12.59421356246139
 20
-16.08578643761958
 11
12.18000000008905
 21
-15.76794919242435
 72
1
 10
12.18000000008905
 20
-15.76794919242435
 11
11.69763809029399
 21
-15.56814834741704
 72
1
 10
11.69763809029399
 20
-15.56814834741704
 11
11.18000000008928
 21
-15.49999999999431
 72
1
 10
11.18000000008928
 20
-15.49999999999431
 11
6.60000000008946
 21
-15.49999999999431
 72
1
 10
6.60000000008946
 20
-15.49999999999431
 11
6.65742984894016
 21
-12.69034693085479
 72
1
 10
6.65742984894016
 20
-12.69034693085479
 11
6.816526645331146
 21
-12.51113181367319
 72
1
 10
6.816526645331146
 20
-12.51113181367319
 11
7.040742769392045
 21
-12.42653288601182
 72
1
 10
7.040742769392045
 20
-12.42653288601182
 11
7.278571428665066
 21
-12.45598416237644
 72
1
 10
7.278571428665066
 20
-12.45598416237644
 11
8.119647400817916
 21
-12.66868660154369
 72
1
 10
8.119647400817916
 20
-12.66868660154369
 11
8.987132278824935
 21
-12.67969137275648
 72
1
 10
8.987132278824935
 20
-12.67969137275648
 11
9.833333333417727
 21
-12.48839345388048
 72
1
 10
9.833333333417727
 20
-12.48839345388048
 11
10.0530568071303
 21
-12.37872795826395
 72
1
 10
10.0530568071303
 20
-12.37872795826395
 11
10.23942823111281
 21
-12.21881980290261
 72
1
 10
10.23942823111281
 20
-12.21881980290261
 11
10.38120849046984
 21
-12.01831223724628
 72
1
 10
10.38120849046984
 20
-12.01831223724628
 11
10.46984753717352
 21
-11.78929685516657
 72
1
 10
10.46984753717352
 20
-11.78929685516657
 11
10.50000000008857
 21
-11.54558441229763
 72
1
 10
10.50000000008857
 20
-11.54558441229763
 11
10.50000000008857
 21
-10.10238929919429
 72
1
 10
10.50000000008857
 20
-10.10238929919429
 11
10.19174913958132
 21
-9.870106745161833
 72
1
 10
10.19174913958132
 20
-9.870106745161833
 11
9.931461052543034
 21
-9.85962897148279
 72
1
 10
9.931461052543034
 20
-9.85962897148279
 11
9.696241956422751
 21
-9.971573818670544
 72
1
 10
9.696241956422751
 20
-9.971573818670544
 11
9.540220069904626
 21
-10.18018072872054
 72
1
 10
9.540220069904626
 20
-10.18018072872054
 11
9.526083654282742
 21
-10.56589297854708
 72
1
 10
9.526083654282742
 20
-10.56589297854708
 11
9.582895113550137
 21
-10.6841666176253
 72
1
 10
9.582895113550137
 20
-10.6841666176253
 11
9.20778999336385
 21
-10.8528603088372
 72
1
 10
9.20778999336385
 20
-10.8528603088372
 11
8.805646184457544
 21
-10.93912600076361
 72
1
 10
8.805646184457544
 20
-10.93912600076361
 11
8.394353815642502
 21
-10.93912600075495
 72
1
 10
8.394353815642502
 20
-10.93912600075495
 11
7.992210006740527
 21
-10.85286030881337
 72
1
 10
7.992210006740527
 20
-10.85286030881337
 11
7.617104886562902
 21
-10.68416661758631
 72
1
 10
7.617104886562902
 20
-10.68416661758631
 11
7.678403844676484
 21
-10.58112389310828
 72
1
 10
7.678403844676484
 20
-10.58112389310828
 11
7.648698872015586
 21
-10.11963837405656
 72
1
 10
7.648698872015586
 20
-10.11963837405656
 11
7.480361625963258
 21
-9.951301127993405
 72
1
 10
7.480361625963258
 20
-9.951301127993405
 11
7.253259388544745
 21
-9.879890830567058
 72
1
 10
7.253259388544745
 20
-9.879890830567058
 11
7.018876106909374
 21
-9.921596155302188
 72
1
 10
7.018876106909374
 20
-9.921596155302188
 11
6.915833382429172
 21
-9.982895113407109
 72
1
 10
6.915833382429172
 20
-9.982895113407109
 11
6.747139691243262
 21
-9.60778999325114
 72
1
 10
6.747139691243262
 20
-9.60778999325114
 11
6.660873999325509
 21
-9.205646184383818
 72
1
 10
6.660873999325509
 20
-9.205646184383818
 11
6.660873999325509
 21
-8.794353815607758
 72
1
 10
6.660873999325509
 20
-8.794353815607758
 11
6.747139691243262
 21
-8.392210006740436
 72
1
 10
6.747139691243262
 20
-8.392210006740436
 11
6.915833382429172
 21
-8.017104886584468
 72
1
 10
6.915833382429172
 20
-8.017104886584468
 11
7.133549402981794
 21
-8.113409565675237
 72
1
 10
7.133549402981794
 20
-8.113409565675237
 11
7.371122564489951
 21
-8.098117418936836
 72
1
 10
7.371122564489951
 20
-8.098117418936836
 11
7.574695167298625
 21
-7.974695167274711
 72
1
 10
7.574695167298625
 20
-7.974695167274711
 11
7.648698872015586
 21
-7.880361625935012
 72
1
 10
7.648698872015586
 20
-7.880361625935012
 11
7.678403844676484
 21
-7.418876106883295
 72
1
 10
7.678403844676484
 20
-7.418876106883295
 11
7.617104886562902
 21
-7.315833382407425
 72
1
 10
7.617104886562902
 20
-7.315833382407425
 11
7.991303969045635
 21
-7.147437142278
 72
1
 10
7.991303969045635
 20
-7.147437142278
 11
8.392457319896664
 21
-7.061076062370728
 72
1
 10
8.392457319896664
 20
-7.061076062370728
 11
8.802801072542684
 21
-7.060574382703601
 72
1
 10
8.802801072542684
 20
-7.060574382703601
 11
9.204164391195809
 21
-7.145954318650956
 72
1
 10
9.204164391195809
 20
-7.145954318650956
 11
9.578774111495353
 21
-7.313435077189012
 72
1
 10
9.578774111495353
 20
-7.313435077189012
 11
9.496024031803996
 21
-7.694789083267995
 72
1
 10
9.496024031803996
 20
-7.694789083267995
 11
9.597629944370182
 21
-7.937821513651988
 72
1
 10
9.597629944370182
 20
-7.937821513651988
 11
9.80127960404276
 21
-8.104900356722856
 72
1
 10
9.80127960404276
 20
-8.104900356722856
 11
10.05948053070091
 21
-8.157061694517074
 72
1
 10
10.05948053070091
 20
-8.157061694517074
 11
10.19033996800239
 21
-8.135074631139627
 72
1
 10
10.19033996800239
 20
-8.135074631139627
 11
10.50000000008857
 21
-7.897610700892579
 72
1
 10
10.50000000008857
 20
-7.897610700892579
 11
10.46984753717785
 21
-6.210703144931119
 72
1
 10
10.46984753717785
 20
-6.210703144931119
 11
10.38120849047417
 21
-5.98168776285575
 72
1
 10
10.38120849047417
 20
-5.98168776285575
 11
10.23942823112147
 21
-5.781180197199415
 72
1
 10
10.23942823112147
 20
-5.781180197199415
 11
10.05305680713896
 21
-5.621272041838079
 72
1
 10
10.05305680713896
 20
-5.621272041838079
 11
9.833333333452378
 21
-5.511606546154411
 72
1
 10
9.833333333452378
 20
-5.511606546154411
 11
8.987132278855256
 21
-5.320308627239421
 72
1
 10
8.987132278855256
 20
-5.320308627239421
 11
8.119647400830912
 21
-5.331313398447889
 72
1
 10
8.119647400830912
 20
-5.331313398447889
 11
7.040742769392045
 21
-5.573467113979757
 72
1
 10
7.040742769392045
 20
-5.573467113979757
 11
6.816526645331146
 21
-5.488868186320553
 72
1
 10
6.816526645331146
 20
-5.488868186320553
 11
6.65742984894016
 21
-5.309653069136788
 72
1
 10
6.65742984894016
 20
-5.309653069136788
 11
6.60000000008946
 21
-5.076990950796522
 72
1
 10
6.60000000008946
 20
-5.076990950796522
 11
6.60000000008946
 21
-1.799999999997424
 72
1
 10
6.60000000008946
 20
-1.799999999997424
 11
48.40000000008862
 21
-1.799999999997424
 72
1
 10
48.40000000008862
 20
-1.799999999997424
 11
48.34257015123792
 21
-5.309653069136788
 72
1
 10
48.34257015123792
 20
-5.309653069136788
 11
48.18347335484693
 21
-5.488868186320553
 72
1
 10
48.18347335484693
 20
-5.488868186320553
 11
47.95925723078603
 21
-5.573467113979757
 72
1
 10
47.95925723078603
 20
-5.573467113979757
 11
47.72142857151301
 21
-5.544015837617303
 72
1
 10
47.72142857151301
 20
-5.544015837617303
 11
46.88035259934717
 21
-5.331313398447889
 72
1
 10
46.88035259934717
 20
-5.331313398447889
 11
46.01286772132282
 21
-5.320308627239421
 72
1
 10
46.01286772132282
 20
-5.320308627239421
 11
45.16666666674736
 21
-5.511606546219383
 72
1
 10
45.16666666674736
 20
-5.511606546219383
 11
44.94694319303911
 21
-5.621272041838079
 72
1
 10
44.94694319303911
 20
-5.621272041838079
 11
44.7605717690566
 21
-5.781180197199415
 72
1
 10
44.7605717690566
 20
-5.781180197199415
 11
44.61879150970391
 21
-5.98168776285575
 72
1
 10
44.61879150970391
 20
-5.98168776285575
 11
44.53015246300022
 21
-6.210703144931119
 72
1
 10
44.53015246300022
 20
-6.210703144931119
 11
44.50000000008951
 21
-6.454415587797899
 72
1
 10
44.50000000008951
 20
-6.454415587797899
 11
44.50000000008951
 21
-7.897610700892579
 72
1
 10
44.50000000008951
 20
-7.897610700892579
 11
44.80966003217569
 21
-8.135074631139627
 72
1
 10
44.80966003217569
 20
-8.135074631139627
 11
45.07281590061434
 21
-8.14680120748783
 72
1
 10
45.07281590061434
 20
-8.14680120748783
 11
45.31078228327766
 21
-8.033838716328416
 72
1
 10
45.31078228327766
 20
-8.033838716328416
 11
45.46806380778937
 21
-7.822530775788715
 72
1
 10
45.46806380778937
 20
-7.822530775788715
 11
45.50397596837409
 21
-7.694789083267995
 72
1
 10
45.50397596837409
 20
-7.694789083267995
 11
45.42122588868273
 21
-7.313435077189012
 72
1
 10
45.42122588868273
 20
-7.313435077189012
 11
45.79583560898227
 21
-7.145954318650956
 72
1
 10
45.79583560898227
 20
-7.145954318650956
 11
46.19719892763106
 21
-7.060574382703601
 72
1
 10
46.19719892763106
 20
-7.060574382703601
 11
46.60754268028141
 21
-7.061076062370728
 72
1
 10
46.60754268028141
 20
-7.061076062370728
 11
47.00869603113244
 21
-7.147437142278
 72
1
 10
47.00869603113244
 20
-7.147437142278
 11
47.38289511361517
 21
-7.315833382407425
 72
1
 10
47.38289511361517
 20
-7.315833382407425
 11
47.28659043451141
 21
-7.533549402951383
 72
1
 10
47.28659043451141
 20
-7.533549402951383
 11
47.42530483287946
 21
-7.974695167274711
 72
1
 10
47.42530483287946
 20
-7.974695167274711
 11
47.62887743568813
 21
-8.098117418936836
 72
1
 10
47.62887743568813
 20
-8.098117418936836
 11
47.86645059719628
 21
-8.113409565675237
 72
1
 10
47.86645059719628
 20
-8.113409565675237
 11
48.08416661774891
 21
-8.017104886584468
 72
1
 10
48.08416661774891
 20
-8.017104886584468
 11
48.25286030893482
 21
-8.392210006740436
 72
1
 10
48.25286030893482
 20
-8.392210006740436
 11
48.33912600085257
 21
-8.794353815607758
 72
1
 10
48.33912600085257
 20
-8.794353815607758
 11
48.33912600085257
 21
-9.205646184383818
 72
1
 10
48.33912600085257
 20
-9.205646184383818
 11
48.25286030893482
 21
-9.60778999325114
 72
1
 10
48.25286030893482
 20
-9.60778999325114
 11
48.08416661774891
 21
-9.982895113407109
 72
1
 10
48.08416661774891
 20
-9.982895113407109
 11
47.86645059719628
 21
-9.886590434316338
 72
1
 10
47.86645059719628
 20
-9.886590434316338
 11
47.62887743568813
 21
-9.90188258105474
 72
1
 10
47.62887743568813
 20
-9.90188258105474
 11
47.42530483287946
 21
-10.02530483271686
 72
1
 10
47.42530483287946
 20
-10.02530483271686
 11
47.30188258123465
 21
-10.2288774355342
 72
1
 10
47.30188258123465
 20
-10.2288774355342
 11
47.38289511361517
 21
-10.68416661758631
 72
1
 10
47.38289511361517
 20
-10.68416661758631
 11
47.00778999343755
 21
-10.85286030881337
 72
1
 10
47.00778999343755
 20
-10.85286030881337
 11
46.60564618453558
 21
-10.93912600075495
 72
1
 10
46.60564618453558
 20
-10.93912600075495
 11
46.19435381572054
 21
-10.93912600076361
 72
1
 10
46.19435381572054
 20
-10.93912600076361
 11
45.79221000681423
 21
-10.8528603088372
 72
1
 10
45.79221000681423
 20
-10.8528603088372
 11
45.41710488662794
 21
-10.6841666176253
 72
1
 10
45.41710488662794
 20
-10.6841666176253
 11
45.47391634589967
 21
-10.56589297854708
 72
1
 10
45.47391634589967
 20
-10.56589297854708
 11
45.45977993027345
 21
-10.18018072872054
 72
1
 10
45.45977993027345
 20
-10.18018072872054
 11
45.30375804375533
 21
-9.971573818670544
 72
1
 10
45.30375804375533
 20
-9.971573818670544
 11
45.06853894763071
 21
-9.85962897148279
 72
1
 10
45.06853894763071
 20
-9.85962897148279
 11
44.80825086059675
 21
-9.870106745161833
 72
1
 10
44.80825086059675
 20
-9.870106745161833
 11
44.68758038511409
 21
-9.921631806549682
 72
1
 10
44.68758038511409
 20
-9.921631806549682
 11
44.50000000008951
 21
-10.10238929919429
 72
1
 10
44.50000000008951
 20
-10.10238929919429
 11
44.53015246300456
 21
-11.78929685516657
 72
1
 10
44.53015246300456
 20
-11.78929685516657
 11
44.61879150970823
 21
-12.01831223724628
 72
1
 10
44.61879150970823
 20
-12.01831223724628
 11
44.76057176906527
 21
-12.21881980290261
 72
1
 10
44.76057176906527
 20
-12.21881980290261
 11
44.94694319304778
 21
-12.37872795826395
 72
1
 10
44.94694319304778
 20
-12.37872795826395
 11
45.16666666676901
 21
-12.48839345385449
 72
1
 10
45.16666666676901
 20
-12.48839345385449
 11
46.01286772135314
 21
-12.67969137275648
 72
1
 10
46.01286772135314
 20
-12.67969137275648
 11
46.88035259936016
 21
-12.66868660154369
 72
1
 10
46.88035259936016
 20
-12.66868660154369
 11
47.95925723078603
 21
-12.42653288601182
 72
1
 10
47.95925723078603
 20
-12.42653288601182
 11
48.18347335484693
 21
-12.51113181367319
 72
1
 10
48.18347335484693
 20
-12.51113181367319
 11
48.34257015123792
 21
-12.69034693085479
 72
1
 10
48.34257015123792
 20
-12.69034693085479
 11
48.40000000008862
 21
-12.92300904919505
 72
1
 10
48.40000000008862
 20
-12.92300904919505
 11
48.40000000008862
 21
-15.49999999999431
 72
1
 10
48.40000000008862
 20
-15.49999999999431
 11
43.82000000008879
 21
-15.49999999999431
 72
1
 10
43.82000000008879
 20
-15.49999999999431
 11
43.30236190987975
 21
-15.56814834741704
 72
1
 10
43.30236190987975
 20
-15.56814834741704
 11
42.82000000008902
 21
-15.76794919242435
 72
1
 10
42.82000000008902
 20
-15.76794919242435
 11
42.40578643771669
 21
-16.08578643761958
 72
1
 10
42.40578643771669
 20
-16.08578643761958
 11
42.08794919251929
 21
-16.49999999999408
 72
1
 10
42.08794919251929
 20
-16.49999999999408
 11
41.88814834750765
 21
-16.98236190978915
 72
1
 10
41.88814834750765
 20
-16.98236190978915
 11
41.82000000008925
 21
-17.49999999999386
 72
1
 10
41.82000000008925
 20
-17.49999999999386
 11
41.82000000008925
 21
-18.63999999999619
 72
1
 10
41.82000000008925
 20
-18.63999999999619
 11
41.06000000008768
 21
-19.39999999999775
 97
0
 75
0
 76
1
 98
1
 10
0.0
 20
0.0
450
0
451
0
460
0.0
461
0.0
452
0
462
0.0
453
0
470

  0
ARC
  5
33
330
2F
100
AcDbEntity
  8
A-DETL-GENF
100
AcDbCircle
 10
-18.01140334989672
 20
-2.329360642999419
 30
0.0
 40
18.16140334990008
100
AcDbArc
 50
352.6310107227618
 51
7.36898927732493
  0
LINE
  5
34
330
2F
100
AcDbEntity
  8
A-DETL-GENF
100
AcDbLine
 10
1.7744e-12
 20
-4.658721285971451
 30
0.0
 11
1.500000000103614
 21
-5.060645074624066
 31
0.0
  0
LINE
  5
35
330
2F
100
AcDbEntity
  8
A-DETL-GENF
100
AcDbLine
 10
1.500000000103614
 20
-5.060645074624066
 30
0.0
 11
1.500000000103613
 21
-1.79999999999959
 31
0.0
  0
LINE
  5
36
330
2F
100
AcDbEntity
  8
A-DETL-GENF
100
AcDbLine
 10
1.500000000103613
 20
-1.79999999999959
 30
0.0
 11
4.900000000102841
 21
-1.799999999999589
 31
0.0
  0
LINE
  5
37
330
2F
100
AcDbEntity
  8
A-DETL-GENF
100
AcDbLine
 10
4.900000000102841
 20
-1.799999999999589
 30
0.0
 11
4.900000000102844
 21
-14.4999999999967
 31
0.0
  0
LINE
  5
38
330
2F
100
AcDbEntity
  8
A-DETL-GENF
100
AcDbLine
 10
4.900000000102844
 20
-14.4999999999967
 30
0.0
 11
1.500000000103614
 21
-14.4999999999967
 31
0.0
  0
LINE
  5
39
330
2F
100
AcDbEntity
  8
A-DETL-GENF
100
AcDbLine
 10
1.500000000103614
 20
-14.4999999999967
 30
0.0
 11
1.500000000103613
 21
-12.43935492547158
 31
0.0
  0
LINE
  5
3A
330
2F
100
AcDbEntity
  8
A-DETL-GENF
100
AcDbLine
 10
1.500000000103613
 20
-12.43935492547158
 30
0.0
 11
1.039552e-10
 21
-12.84127871409681
 31
0.0
  0
LINE
  5
3B
330
2F
100
AcDbEntity
  8
A-DETL-GENF
100
AcDbLine
 10
1.039552e-10
 20
-12.84127871409681
 30
0.0
 11
0.1964887796970248
 21
-15.08715574270833
 31
0.0
  0
ARC
  5
3C
330
2F
100
AcDbEntity
  8
A-DETL-GENF
100
AcDbCircle
 10
1.192683477802779
 20
-14.99999999999659
 30
0.0
 40
1.000000000000001
100
AcDbArc
 50
184.9999999978796
 51
269.9999999999993
  0
LINE
  5
3D
330
2F
100
AcDbEntity
  8
A-DETL-GENF
100
AcDbLine
 10
1.192683477802779
 20
-15.99999999999636
 30
0.0
 11
4.58000000010378
 21
-15.99999999999636
 31
0.0
  0
LINE
  5
3E
330
2F
100
AcDbEntity
  8
A-DETL-GENF
100
AcDbLine
 10
4.58000000010378
 20
-15.99999999999636
 30
0.0
 11
4.58000000010378
 21
-17.50000000007229
 31
0.0
  0
ARC
  5
3F
330
2F
100
AcDbEntity
  8
A-DETL-GENF
100
AcDbCircle
 10
4.250703015301973
 20
-18.24004290139655
 30
0.0
 40
0.8100000000000012
100
AcDbArc
 50
301.5921313354346
 51
66.01236462281994
  0
LINE
  5
40
330
2F
100
AcDbEntity
  8
A-DETL-GENF
100
AcDbLine
 10
4.675036848499426
 20
-18.93000000006571
 30
0.0
 11
4.519052966543683
 21
-20.71290392896074
 31
0.0
  0
LINE
  5
41
330
2F
100
AcDbEntity
  8
A-DETL-GENF
100
AcDbLine
 10
4.519052966543683
 20
-20.71290392896074
 30
0.0
 11
7.497036147779578
 21
-19.91495574051318
 31
0.0
  0
LINE
  5
42
330
2F
100
AcDbEntity
  8
A-DETL-GENF
100
AcDbLine
 10
7.497036147779578
 20
-19.91495574051318
 30
0.0
 11
6.102760800897474
 21
-17.49999999999602
 31
0.0
  0
LINE
  5
43
330
2F
100
AcDbEntity
  8
A-DETL-GENF
100
AcDbLine
 10
6.102760800897476
 20
-17.49999999999602
 30
0.0
 11
10.8868527052676
 21
-17.49999999999602
 31
0.0
  0
LINE
  5
44
330
2F
100
AcDbEntity
  8
A-DETL-GENF
100
AcDbLine
 10
10.8868527052676
 20
-17.49999999999602
 30
0.0
 11
10.8868527052676
 21
-18.41133584722269
 31
0.0
  0
LINE
  5
45
330
2F
100
AcDbEntity
  8
A-DETL-GENF
100
AcDbLine
 10
10.8868527052676
 20
-18.41133584722269
 30
0.0
 11
9.969637028902765
 21
-19.99999999999978
 31
0.0
  0
LINE
  5
46
330
2F
100
AcDbEntity
  8
A-DETL-GENF
100
AcDbLine
 10
9.969637028902765
 20
-19.99999999999978
 30
0.0
 11
11.50000000010567
 21
-19.99999999999978
 31
0.0
  0
ARC
  5
47
330
2F
100
AcDbEntity
  8
A-DETL-GENF
100
AcDbCircle
 10
11.50000000010567
 20
-20.49999999999967
 30
0.0
 40
0.4999999999999968
100
AcDbArc
 50
359.9999999999996
 51
90.0000000000003
  0
LINE
  5
48
330
2F
100
AcDbEntity
  8
A-DETL-GENF
100
AcDbLine
 10
12.00000000010556
 20
-20.49999999999967
 30
0.0
 11
12.00000000010556
 21
-21.39999999999947
 31
0.0
  0
LINE
  5
49
330
2F
100
AcDbEntity
  8
A-DETL-GENF
100
AcDbLine
 10
12.00000000010556
 20
-21.39999999999947
 30
0.0
 11
19.57598586583795
 21
-21.39999999999947
 31
0.0
  0
ARC
  5
4A
330
2F
100
AcDbEntity
  8
A-DETL-GENF
100
AcDbCircle
 10
27.50000000010203
 20
-27.49999999999808
 30
0.0
 40
9.99999999999999
100
AcDbArc
 50
37.58950296484679
 51
142.4104970351532
  0
LINE
  5
4B
330
2F
100
AcDbEntity
  8
A-DETL-GENF
100
AcDbLine
 10
35.42401413436612
 20
-21.39999999999947
 30
0.0
 11
43.00000000009851
 21
-21.39999999999947
 31
0.0
  0
LINE
  5
4C
330
2F
100
AcDbEntity
  8
A-DETL-GENF
100
AcDbLine
 10
43.00000000009851
 20
-21.39999999999947
 30
0.0
 11
43.00000000009851
 21
-20.49999999999967
 31
0.0
  0
ARC
  5
4D
330
2F
100
AcDbEntity
  8
A-DETL-GENF
100
AcDbCircle
 10
43.5000000000984
 20
-20.49999999999968
 30
0.0
 40
0.5
100
AcDbArc
 50
90.00000000000081
 51
180.0
  0
LINE
  5
4E
330
2F
100
AcDbEntity
  8
A-DETL-GENF
100
AcDbLine
 10
43.50000000009839
 20
-19.99999999999978
 30
0.0
 11
45.0303629713013
 21
-19.99999999999978
 31
0.0
  0
LINE
  5
4F
330
2F
100
AcDbEntity
  8
A-DETL-GENF
100
AcDbLine
 10
45.0303629713013
 20
-19.99999999999978
 30
0.0
 11
44.10682047735317
 21
-18.40037747771949
 31
0.0
  0
LINE
  5
50
330
2F
100
AcDbEntity
  8
A-DETL-GENF
100
AcDbLine
 10
44.10682047735317
 20
-18.40037747771949
 30
0.0
 11
44.10682047735317
 21
-17.49999999999602
 31
0.0
  0
LINE
  5
51
330
2F
100
AcDbEntity
  8
A-DETL-GENF
100
AcDbLine
 10
44.10682047735317
 20
-17.49999999999602
 30
0.0
 11
48.89723919930659
 21
-17.49999999999602
 31
0.0
  0
LINE
  5
52
330
2F
100
AcDbEntity
  8
A-DETL-GENF
100
AcDbLine
 10
48.89723919930659
 20
-17.49999999999602
 30
0.0
 11
47.50296385242449
 21
-19.91495574051318
 31
0.0
  0
LINE
  5
53
330
2F
100
AcDbEntity
  8
A-DETL-GENF
100
AcDbLine
 10
47.50296385242449
 20
-19.91495574051318
 30
0.0
 11
50.48094703366039
 21
-20.71290392896074
 31
0.0
  0
LINE
  5
54
330
2F
100
AcDbEntity
  8
A-DETL-GENF
100
AcDbLine
 10
50.48094703366039
 20
-20.71290392896074
 30
0.0
 11
50.32496315170464
 21
-18.93000000006571
 31
0.0
  0
ARC
  5
55
330
2F
100
AcDbEntity
  8
A-DETL-GENF
100
AcDbCircle
 10
50.74929698490209
 20
-18.24004290139655
 30
0.0
 40
0.8099999999999937
100
AcDbArc
 50
113.9876353771809
 51
238.4078686645646
  0
LINE
  5
56
330
2F
100
AcDbEntity
  8
A-DETL-GENF
100
AcDbLine
 10
50.42000000010029
 20
-17.50000000007229
 30
0.0
 11
50.42000000010029
 21
-15.99999999999636
 31
0.0
  0
LINE
  5
57
330
2F
100
AcDbEntity
  8
A-DETL-GENF
100
AcDbLine
 10
50.42000000010029
 20
-15.99999999999636
 30
0.0
 11
53.80731652240129
 21
-15.99999999999636
 31
0.0
  0
ARC
  5
58
330
2F
100
AcDbEntity
  8
A-DETL-GENF
100
AcDbCircle
 10
53.80731652240129
 20
-14.99999999999659
 30
0.0
 40
0.9999999999999994
100
AcDbArc
 50
269.9999999999995
 51
355.0000000021196
  0
LINE
  5
59
330
2F
100
AcDbEntity
  8
A-DETL-GENF
100
AcDbLine
 10
54.80351122050705
 20
-15.08715574270833
 30
0.0
 11
55.00000000010011
 21
-12.84127871409681
 31
0.0
  0
LINE
  5
5A
330
2F
100
AcDbEntity
  8
A-DETL-GENF
100
AcDbLine
 10
55.00000000010011
 20
-12.84127871409681
 30
0.0
 11
53.50000000010045
 21
-12.43935492547158
 31
0.0
  0
LINE
  5
5B
330
2F
100
AcDbEntity
  8
A-DETL-GENF
100
AcDbLine
 10
53.50000000010045
 20
-12.43935492547158
 30
0.0
 11
53.50000000010045
 21
-14.4999999999967
 31
0.0
  0
LINE
  5
5C
330
2F
100
AcDbEntity
  8
A-DETL-GENF
100
AcDbLine
 10
53.50000000010045
 20
-14.4999999999967
 30
0.0
 11
50.10000000010123
 21
-14.4999999999967
 31
0.0
  0
LINE
  5
5D
330
2F
100
AcDbEntity
  8
A-DETL-GENF
100
AcDbLine
 10
50.10000000010123
 20
-14.4999999999967
 30
0.0
 11
50.10000000010123
 21
-1.79999999999959
 31
0.0
  0
LINE
  5
5E
330
2F
100
AcDbEntity
  8
A-DETL-GENF
100
AcDbLine
 10
50.10000000010123
 20
-1.799999999999589
 30
0.0
 11
53.50000000010045
 21
-1.79999999999959
 31
0.0
  0
LINE
  5
5F
330
2F
100
AcDbEntity
  8
A-DETL-GENF
100
AcDbLine
 10
53.50000000010045
 20
-1.79999999999959
 30
0.0
 11
53.50000000010045
 21
-5.060645074624066
 31
0.0
  0
LINE
  5
60
330
2F
100
AcDbEntity
  8
A-DETL-GENF
100
AcDbLine
 10
53.50000000010045
 20
-5.060645074624066
 30
0.0
 11
55.00000000020232
 21
-4.658721285971446
 31
0.0
  0
ARC
  5
61
330
2F
100
AcDbEntity
  8
A-DETL-GENF
100
AcDbCircle
 10
73.01140335010096
 20
-2.329360642999422
 30
0.0
 40
18.16140334990025
100
AcDbArc
 50
172.6310107226755
 51
187.3689892772374
  0
LINE
  5
62
330
2F
100
AcDbEntity
  8
A-DETL-GENF
100
AcDbLine
 10
55.00000000020584
 20
0.0
 30
0.0
 11
-1.7681e-12
 21
-1.22e-14
 31
0.0
  0
ARC
  5
63
330
2F
100
AcDbEntity
  8
A-DETL-GENF
100
AcDbCircle
 10
27.50000000010203
 20
-27.49999999999808
 30
0.0
 40
11.99999999999999
100
AcDbArc
 50
42.45415020438862
 51
137.5458497956106
  0
LINE
  5
64
330
2F
100
AcDbEntity
  8
A-DETL-GENF
100
AcDbLine
 10
18.64618726207612
 20
-19.39999999999992
 30
0.0
 11
13.94000000010338
 21
-19.39999999999992
 31
0.0
  0
LINE
  5
65
330
2F
100
AcDbEntity
  8
A-DETL-GENF
100
AcDbLine
 10
13.94000000010338
 20
-19.39999999999992
 30
0.0
 11
13.18000000010182
 21
-18.63999999999836
 31
0.0
  0
LINE
  5
66
330
2F
100
AcDbEntity
  8
A-DETL-GENF
100
AcDbLine
 10
13.18000000010182
 20
-18.63999999999836
 30
0.0
 11
13.18000000010182
 21
-17.49999999999602
 31
0.0
  0
ARC
  5
67
330
2F
100
AcDbEntity
  8
A-DETL-GENF
100
AcDbCircle
 10
11.18000000010228
 20
-17.49999999999602
 30
0.0
 40
2.000000000000002
100
AcDbArc
 50
359.9999999999992
 51
89.99999999999976
  0
LINE
  5
68
330
2F
100
AcDbEntity
  8
A-DETL-GENF
100
AcDbLine
 10
11.18000000010228
 20
-15.49999999999647
 30
0.0
 11
6.600000000102454
 21
-15.49999999999647
 31
0.0
  0
LINE
  5
69
330
2F
100
AcDbEntity
  8
A-DETL-GENF
100
AcDbLine
 10
6.600000000102454
 20
-15.49999999999647
 30
0.0
 11
6.600000000102453
 21
-12.92300904919722
 31
0.0
  0
ARC
  5
6A
330
2F
100
AcDbEntity
  8
A-DETL-GENF
100
AcDbCircle
 10
7.100000000102341
 20
-12.92300904919722
 30
0.0
 40
0.5000000000000054
100
AcDbArc
 50
69.0751675724278
 51
179.9999999999998
  0
ARC
  5
6B
330
2F
100
AcDbEntity
  8
A-DETL-GENF
100
AcDbCircle
 10
8.600000000102
 20
-8.999999999997971
 30
0.0
 40
3.699999999999985
100
AcDbArc
 50
249.0751675724269
 51
289.4712206342719
  0
ARC
  5
6C
330
2F
100
AcDbEntity
  8
A-DETL-GENF
100
AcDbCircle
 10
9.500000000101798
 20
-11.5455844122998
 30
0.0
 40
0.9999999999999984
100
AcDbArc
 50
289.4712206342715
 51
359.9999999999993
  0
LINE
  5
6D
330
2F
100
AcDbEntity
  8
A-DETL-GENF
100
AcDbLine
 10
10.50000000010157
 20
-11.5455844122998
 30
0.0
 11
10.50000000010157
 21
-10.10238929919649
 31
0.0
  0
ARC
  5
6E
330
2F
100
AcDbEntity
  8
A-DETL-GENF
100
AcDbCircle
 10
10.04040063204688
 20
-10.39162760215681
 30
0.0
 40
0.5430380972046316
100
AcDbArc
 50
32.1833163453254
 51
212.5957360857742
  0
ARC
  5
6F
330
2F
100
AcDbEntity
  8
A-DETL-GENF
100
AcDbCircle
 10
8.600000000102002
 20
-8.999999999997963
 30
0.0
 40
1.949999999999995
100
AcDbArc
 50
239.7317716557608
 51
300.2682283419593
  0
ARC
  5
70
330
2F
100
AcDbEntity
  8
A-DETL-GENF
100
AcDbCircle
 10
7.221141776705599
 20
-10.37885822329906
 30
0.0
 40
0.499999999999997
100
AcDbArc
 50
322.3658858325125
 51
127.6341141635264
  0
ARC
  5
71
330
2F
100
AcDbEntity
  8
A-DETL-GENF
100
AcDbCircle
 10
8.600000000102002
 20
-8.999999999997954
 30
0.0
 40
1.950000000000007
100
AcDbArc
 50
149.7317716597217
 51
210.2682283402785
  0
ARC
  5
72
330
2F
100
AcDbEntity
  8
A-DETL-GENF
100
AcDbCircle
 10
7.221141776705599
 20
-7.621141776696845
 30
0.0
 40
0.5000000000000049
100
AcDbArc
 50
232.3658858364726
 51
37.63411416748603
  0
ARC
  5
73
330
2F
100
AcDbEntity
  8
A-DETL-GENF
100
AcDbCircle
 10
8.600000000102
 20
-8.999999999997954
 30
0.0
 40
1.950000000000004
100
AcDbArc
 50
59.87186938144896
 51
120.2682283442384
  0
ARC
  5
74
330
2F
100
AcDbEntity
  8
A-DETL-GENF
100
AcDbCircle
 10
10.03519762492466
 20
-7.612129484778995
 30
0.0
 40
0.5454729807470607
100
AcDbArc
 50
146.7983098625446
 51
328.4417899386268
  0
LINE
  5
75
330
2F
100
AcDbEntity
  8
A-DETL-GENF
100
AcDbLine
 10
10.50000000010157
 20
-7.897610700894855
 30
0.0
 11
10.50000000010157
 21
-6.454415587800065
 31
0.0
  0
ARC
  5
76
330
2F
100
AcDbEntity
  8
A-DETL-GENF
100
AcDbCircle
 10
9.500000000101794
 20
-6.454415587800067
 30
0.0
 40
1.000000000000003
100
AcDbArc
 50
359.9999999999992
 51
70.52877936499185
  0
ARC
  5
77
330
2F
100
AcDbEntity
  8
A-DETL-GENF
100
AcDbCircle
 10
8.600000000102002
 20
-8.99999999999796
 30
0.0
 40
3.700000000000008
100
AcDbArc
 50
70.52877936499183
 51
110.924832427572
  0
ARC
  5
78
330
2F
100
AcDbEntity
  8
A-DETL-GENF
100
AcDbCircle
 10
7.100000000102341
 20
-5.076990950798688
 30
0.0
 40
0.4999999999999956
100
AcDbArc
 50
180.0
 51
290.9248324275718
  0
LINE
  5
79
330
2F
100
AcDbEntity
  8
A-DETL-GENF
100
AcDbLine
 10
6.600000000102454
 20
-5.076990950798688
 30
0.0
 11
6.600000000102453
 21
-1.79999999999959
 31
0.0
  0
LINE
  5
7A
330
2F
100
AcDbEntity
  8
A-DETL-GENF
100
AcDbLine
 10
6.600000000102453
 20
-1.79999999999959
 30
0.0
 11
48.40000000010161
 21
-1.799999999999581
 31
0.0
  0
LINE
  5
7B
330
2F
100
AcDbEntity
  8
A-DETL-GENF
100
AcDbLine
 10
48.40000000010161
 20
-1.799999999999581
 30
0.0
 11
48.40000000010161
 21
-5.076990950798688
 31
0.0
  0
ARC
  5
7C
330
2F
100
AcDbEntity
  8
A-DETL-GENF
100
AcDbCircle
 10
47.90000000010173
 20
-5.076990950798686
 30
0.0
 40
0.5
100
AcDbArc
 50
249.0751675724273
 51
0.0
  0
ARC
  5
7D
330
2F
100
AcDbEntity
  8
A-DETL-GENF
100
AcDbCircle
 10
46.40000000010206
 20
-8.99999999999795
 30
0.0
 40
3.699999999999991
100
AcDbArc
 50
69.07516757242763
 51
109.4712206350079
  0
ARC
  5
7E
330
2F
100
AcDbEntity
  8
A-DETL-GENF
100
AcDbCircle
 10
45.50000000010228
 20
-6.454415587800069
 30
0.0
 40
1.000000000000009
100
AcDbArc
 50
109.4712206350083
 51
179.9999999999997
  0
LINE
  5
7F
330
2F
100
AcDbEntity
  8
A-DETL-GENF
100
AcDbLine
 10
44.5000000001025
 20
-6.454415587800065
 30
0.0
 11
44.5000000001025
 21
-7.89761070089485
 31
0.0
  0
ARC
  5
80
330
2F
100
AcDbEntity
  8
A-DETL-GENF
100
AcDbCircle
 10
44.96480237527941
 20
-7.612129484778993
 30
0.0
 40
0.5454729807470609
100
AcDbArc
 50
211.5582100613714
 51
33.20169013745436
  0
ARC
  5
81
330
2F
100
AcDbEntity
  8
A-DETL-GENF
100
AcDbCircle
 10
46.40000000010206
 20
-8.999999999997957
 30
0.0
 40
1.950000000000005
100
AcDbArc
 50
59.73177165576175
 51
120.1281306185514
  0
ARC
  5
82
330
2F
100
AcDbEntity
  8
A-DETL-GENF
100
AcDbCircle
 10
47.77885822349847
 20
-7.621141776696843
 30
0.0
 40
0.5000000000000007
100
AcDbArc
 50
142.3658858325141
 51
307.6341141635269
  0
ARC
  5
83
330
2F
100
AcDbEntity
  8
A-DETL-GENF
100
AcDbCircle
 10
46.4000000001021
 20
-8.999999999997955
 30
0.0
 40
1.949999999999974
100
AcDbArc
 50
329.7317716597206
 51
30.26822834027953
  0
ARC
  5
84
330
2F
100
AcDbEntity
  8
A-DETL-GENF
100
AcDbCircle
 10
47.77885822349847
 20
-10.37885822329906
 30
0.0
 40
0.499999999999992
100
AcDbArc
 50
52.36588583647196
 51
217.6341141674857
  0
ARC
  5
85
330
2F
100
AcDbEntity
  8
A-DETL-GENF
100
AcDbCircle
 10
46.40000000010206
 20
-8.99999999999793
 30
0.0
 40
1.950000000000022
100
AcDbArc
 50
239.7317716580407
 51
300.2682283442384
  0
ARC
  5
86
330
2F
100
AcDbEntity
  8
A-DETL-GENF
100
AcDbCircle
 10
44.95959936815718
 20
-10.39162760215681
 30
0.0
 40
0.5430380972046287
100
AcDbArc
 50
327.4042639142239
 51
147.8166836546748
  0
LINE
  5
87
330
2F
100
AcDbEntity
  8
A-DETL-GENF
100
AcDbLine
 10
44.5000000001025
 20
-10.1023892991965
 30
0.0
 11
44.5000000001025
 21
-11.5455844122998
 31
0.0
  0
ARC
  5
88
330
2F
100
AcDbEntity
  8
A-DETL-GENF
100
AcDbCircle
 10
45.50000000010228
 20
-11.54558441229979
 30
0.0
 40
1.000000000000014
100
AcDbArc
 50
180.0000000000006
 51
250.5287793657267
  0
ARC
  5
89
330
2F
100
AcDbEntity
  8
A-DETL-GENF
100
AcDbCircle
 10
46.40000000010206
 20
-8.999999999997952
 30
0.0
 40
3.70000000000001
100
AcDbArc
 50
250.5287793657272
 51
290.9248324275718
  0
ARC
  5
8A
330
2F
100
AcDbEntity
  8
A-DETL-GENF
100
AcDbCircle
 10
47.90000000010173
 20
-12.92300904919722
 30
0.0
 40
0.5000000000000007
100
AcDbArc
 50
2.036e-13
 51
110.9248324275731
  0
LINE
  5
8B
330
2F
100
AcDbEntity
  8
A-DETL-GENF
100
AcDbLine
 10
48.40000000010161
 20
-12.92300904919722
 30
0.0
 11
48.40000000010161
 21
-15.49999999999647
 31
0.0
  0
LINE
  5
8C
330
2F
100
AcDbEntity
  8
A-DETL-GENF
100
AcDbLine
 10
48.40000000010161
 20
-15.49999999999647
 30
0.0
 11
43.82000000010179
 21
-15.49999999999647
 31
0.0
  0
ARC
  5
8D
330
2F
100
AcDbEntity
  8
A-DETL-GENF
100
AcDbCircle
 10
43.82000000010179
 20
-17.49999999999602
 30
0.0
 40
2.000000000000001
100
AcDbArc
 50
89.99999999999994
 51
180.0000000000001
  0
LINE
  5
8E
330
2F
100
AcDbEntity
  8
A-DETL-GENF
100
AcDbLine
 10
41.82000000010225
 20
-17.49999999999602
 30
0.0
 11
41.82000000010225
 21
-18.63999999999836
 31
0.0
  0
LINE
  5
8F
330
2F
100
AcDbEntity
  8
A-DETL-GENF
100
AcDbLine
 10
41.82000000010225
 20
-18.63999999999836
 30
0.0
 11
41.06000000010069
 21
-19.39999999999992
 31
0.0
  0
LINE
  5
90
330
2F
100
AcDbEntity
  8
A-DETL-GENF
100
AcDbLine
 10
41.06000000010069
 20
-19.39999999999992
 30
0.0
 11
36.35381273812794
 21
-19.39999999999992
 31
0.0
  0
ENDBLK
  5
31
330
2F
100
AcDbEntity
  8
0
100
AcDbBlockEnd
  0
ENDSEC
  0
SECTION
  2
ENTITIES
  0
INSERT
  5
92
330
17
100
AcDbEntity
  8
0
100
AcDbBlockReference
  2
31 Solarlux p_06 - 31Solarlux p_06-971063-00_0 Basismaterialen
 10
0.0
 20
0.0
 30
0.0
  0
ENDSEC
  0
SECTION
  2
OBJECTS
  0
DICTIONARY
  5
A
330
0
100
AcDbDictionary
281
1
  3
ACAD_COLOR
350
B
  3
ACAD_GROUP
350
C
  3
ACAD_LAYOUT
350
D
  3
ACAD_MATERIAL
350
E
  3
ACAD_MLEADERSTYLE
350
F
  3
ACAD_MLINESTYLE
350
10
  3
ACAD_PLOTSETTINGS
350
11
  3
ACAD_PLOTSTYLENAME
350
12
  3
ACAD_SCALELIST
350
14
  3
ACAD_TABLESTYLE
350
15
  3
ACAD_VISUALSTYLE
350
16
  3
EZDXF_META
350
2D
  0
DICTIONARY
  5
B
330
A
100
AcDbDictionary
281
1
  0
DICTIONARY
  5
C
330
A
100
AcDbDictionary
281
1
  0
DICTIONARY
  5
D
330
A
100
AcDbDictionary
281
1
  3
Model
350
1A
  3
Layout1
350
1E
  0
DICTIONARY
  5
E
330
A
100
AcDbDictionary
281
1
  3
ByBlock
350
1F
  3
ByLayer
350
20
  3
Global
350
21
  0
DICTIONARY
  5
F
330
A
100
AcDbDictionary
281
1
  3
Standard
350
2C
  0
DICTIONARY
  5
10
330
A
100
AcDbDictionary
281
1
  3
Standard
350
22
  0
DICTIONARY
  5
11
330
A
100
AcDbDictionary
281
1
  0
ACDBDICTIONARYWDFLT
  5
12
330
A
100
AcDbDictionary
281
1
  3
Normal
350
13
100
AcDbDictionaryWithDefault
340
13
  0
ACDBPLACEHOLDER
  5
13
330
12
  0
DICTIONARY
  5
14
330
A
100
AcDbDictionary
281
1
  0
DICTIONARY
  5
15
330
A
100
AcDbDictionary
281
1
  0
DICTIONARY
  5
16
330
A
100
AcDbDictionary
281
1
  0
LAYOUT
  5
1A
330
D
100
AcDbPlotSettings
  1

  4
A3
  6

 40
7.5
 41
20.0
 42
7.5
 43
20.0
 44
420.0
 45
297.0
 46
0.0
 47
0.0
 48
0.0
 49
0.0
140
0.0
141
0.0
142
1.0
143
1.0
 70
1024
 72
1
 73
0
 74
5
  7

 75
16
 76
0
 77
2
 78
300
147
1.0
148
0.0
149
0.0
100
AcDbLayout
  1
Model
 70
1
 71
0
 10
0.0
 20
0.0
 11
420.0
 21
297.0
 12
0.0
 22
0.0
 32
0.0
 14
1e+20
 24
1e+20
 34
1e+20
 15
-1e+20
 25
-1e+20
 35
-1e+20
146
0.0
 13
0.0
 23
0.0
 33
0.0
 16
1.0
 26
0.0
 36
0.0
 17
0.0
 27
1.0
 37
0.0
 76
1
330
17
  0
LAYOUT
  5
1E
330
D
100
AcDbPlotSettings
  1

  4
A3
  6

 40
7.5
 41
20.0
 42
7.5
 43
20.0
 44
420.0
 45
297.0
 46
0.0
 47
0.0
 48
0.0
 49
0.0
140
0.0
141
0.0
142
1.0
143
1.0
 70
0
 72
1
 73
0
 74
5
  7

 75
16
 76
0
 77
2
 78
300
147
1.0
148
0.0
149
0.0
100
AcDbLayout
  1
Layout1
 70
1
 71
1
 10
0.0
 20
0.0
 11
420.0
 21
297.0
 12
0.0
 22
0.0
 32
0.0
 14
1e+20
 24
1e+20
 34
1e+20
 15
-1e+20
 25
-1e+20
 35
-1e+20
146
0.0
 13
0.0
 23
0.0
 33
0.0
 16
1.0
 26
0.0
 36
0.0
 17
0.0
 27
1.0
 37
0.0
 76
1
330
1B
  0
MATERIAL
  5
1F
102
{ACAD_REACTORS
330
E
102
}
330
E
100
AcDbMaterial
  1
ByBlock
  2

 70
0
 40
1.0
 71
1
 41
1.0
 91
-1023410177
 42
1.0
 72
1
  3

 73
1
 74
1
 75
1
 44
0.5
 73
0
 45
1.0
 46
1.0
 77
1
  4

 78
1
 79
1
170
1
 48
1.0
171
1
  6

172
1
173
1
174
1
140
1.0
141
1.0
175
1
  7

176
1
177
1
178
1
143
1.0
179
1
  8

270
1
271
1
272
1
145
1.0
146
1.0
273
1
  9

274
1
275
1
276
1
 42
1.0
 72
1
  3

 73
1
 74
1
 75
1
 94
63
  0
MATERIAL
  5
20
102
{ACAD_REACTORS
330
E
102
}
330
E
100
AcDbMaterial
  1
ByLayer
  2

 70
0
 40
1.0
 71
1
 41
1.0
 91
-1023410177
 42
1.0
 72
1
  3

 73
1
 74
1
 75
1
 44
0.5
 73
0
 45
1.0
 46
1.0
 77
1
  4

 78
1
 79
1
170
1
 48
1.0
171
1
  6

172
1
173
1
174
1
140
1.0
141
1.0
175
1
  7

176
1
177
1
178
1
143
1.0
179
1
  8

270
1
271
1
272
1
145
1.0
146
1.0
273
1
  9

274
1
275
1
276
1
 42
1.0
 72
1
  3

 73
1
 74
1
 75
1
 94
63
  0
MATERIAL
  5
21
102
{ACAD_REACTORS
330
E
102
}
330
E
100
AcDbMaterial
  1
Global
  2

 70
0
 40
1.0
 71
1
 41
1.0
 91
-1023410177
 42
1.0
 72
1
  3

 73
1
 74
1
 75
1
 44
0.5
 73
0
 45
1.0
 46
1.0
 77
1
  4

 78
1
 79
1
170
1
 48
1.0
171
1
  6

172
1
173
1
174
1
140
1.0
141
1.0
175
1
  7

176
1
177
1
178
1
143
1.0
179
1
  8

270
1
271
1
272
1
145
1.0
146
1.0
273
1
  9

274
1
275
1
276
1
 42
1.0
 72
1
  3

 73
1
 74
1
 75
1
 94
63
  0
MLINESTYLE
  5
22
102
{ACAD_REACTORS
330
10
102
}
330
10
100
AcDbMlineStyle
  2
Standard
 70
0
  3

 62
256
 51
90.0
 52
90.0
 71
2
 49
0.5
 62
256
  6
BYLAYER
 49
-0.5
 62
256
  6
BYLAYER
  0
MLEADERSTYLE
  5
2C
102
{ACAD_REACTORS
330
F
102
}
330
F
100
AcDbMLeaderStyle
179
2
170
2
171
1
172
0
 90
2
 40
0.0
 41
0.0
173
1
 91
-1056964608
 92
-2
290
1
 42
2.0
291
1
 43
8.0
  3
Standard
 44
4.0
300

342
29
174
1
175
1
176
0
178
1
 93
-1056964608
 45
4.0
292
0
297
0
 46
4.0
 94
-1056964608
 47
1.0
 49
1.0
140
1.0
294
1
141
0.0
177
0
142
1.0
295
0
296
0
143
3.75
271
0
272
9
273
9
  0
DICTIONARY
  5
2D
330
A
100
AcDbDictionary
280
1
281
1
  3
CREATED_BY_EZDXF
350
2E
  3
WRITTEN_BY_EZDXF
350
96
  0
DICTIONARYVAR
  5
2E
330
2D
100
DictionaryVariables
280
0
  1
1.4.3 @ 2026-02-13T04:54:12.580567+00:00
  0
DICTIONARYVAR
  5
96
330
2D
100
DictionaryVariables
280
0
  1
1.4.3 @ 2026-02-13T04:54:12.587276+00:00
  0
ENDSEC
  0
EOF
