  0
SECTION
  2
HEADER
  9
$ACADVER
  1
AC1032
  9
$ACADMAINTVER
 90
4
  9
$DWGCODEPAGE
  3
ANSI_1252
  9
$LASTSAVEDBY
  1
ezdxf
  9
$REQUIREDVERSIONS
160
0
  9
$INSBASE
 10
0.0
 20
0.0
 30
0.0
  9
$EXTMIN
 10
1e+20
 20
1e+20
 30
1e+20
  9
$EXTMAX
 10
-1e+20
 20
-1e+20
 30
-1e+20
  9
$LIMMIN
 10
0.0
 20
0.0
  9
$LIMMAX
 10
420.0
 20
297.0
  9
$ORTHOMODE
 70
0
  9
$REGENMODE
 70
1
  9
$FILLMODE
 70
1
  9
$QTEXTMODE
 70
0
  9
$MIRRTEXT
 70
1
  9
$LTSCALE
 40
1.0
  9
$ATTMODE
 70
1
  9
$TEXTSIZE
 40
2.5
  9
$TRACEWID
 40
1.0
  9
$TEXTSTYLE
  7
Standard
  9
$CLAYER
  8
0
  9
$CELTYPE
  6
ByLayer
  9
$CECOLOR
 62
256
  9
$CELTSCALE
 40
1.0
  9
$DISPSILH
 70
0
  9
$DIMSCALE
 40
1.0
  9
$DIMASZ
 40
2.5
  9
$DIMEXO
 40
0.625
  9
$DIMDLI
 40
3.75
  9
$DIMRND
 40
0.0
  9
$DIMDLE
 40
0.0
  9
$DIMEXE
 40
1.25
  9
$DIMTP
 40
0.0
  9
$DIMTM
 40
0.0
  9
$DIMTXT
 40
2.5
  9
$DIMCEN
 40
2.5
  9
$DIMTSZ
 40
0.0
  9
$DIMTOL
 70
0
  9
$DIMLIM
 70
0
  9
$DIMTIH
 70
0
  9
$DIMTOH
 70
0
  9
$DIMSE1
 70
0
  9
$DIMSE2
 70
0
  9
$DIMTAD
 70
1
  9
$DIMZIN
 70
8
  9
$DIMBLK
  1

  9
$DIMASO
 70
1
  9
$DIMSHO
 70
1
  9
$DIMPOST
  1

  9
$DIMAPOST
  1

  9
$DIMALT
 70
0
  9
$DIMALTD
 70
3
  9
$DIMALTF
 40
0.03937007874
  9
$DIMLFAC
 40
1.0
  9
$DIMTOFL
 70
1
  9
$DIMTVP
 40
0.0
  9
$DIMTIX
 70
0
  9
$DIMSOXD
 70
0
  9
$DIMSAH
 70
0
  9
$DIMBLK1
  1

  9
$DIMBLK2
  1

  9
$DIMSTYLE
  2
ISO-25
  9
$DIMCLRD
 70
0
  9
$DIMCLRE
 70
0
  9
$DIMCLRT
 70
0
  9
$DIMTFAC
 40
1.0
  9
$DIMGAP
 40
0.625
  9
$DIMJUST
 70
0
  9
$DIMSD1
 70
0
  9
$DIMSD2
 70
0
  9
$DIMTOLJ
 70
0
  9
$DIMTZIN
 70
8
  9
$DIMALTZ
 70
0
  9
$DIMALTTZ
 70
0
  9
$DIMUPT
 70
0
  9
$DIMDEC
 70
2
  9
$DIMTDEC
 70
2
  9
$DIMALTU
 70
2
  9
$DIMALTTD
 70
3
  9
$DIMTXSTY
  7
Standard
  9
$DIMAUNIT
 70
0
  9
$DIMADEC
 70
0
  9
$DIMALTRND
 40
0.0
  9
$DIMAZIN
 70
0
  9
$DIMDSEP
 70
44
  9
$DIMATFIT
 70
3
  9
$DIMFRAC
 70
0
  9
$DIMLDRBLK
  1

  9
$DIMLUNIT
 70
2
  9
$DIMLWD
 70
-2
  9
$DIMLWE
 70
-2
  9
$DIMTMOVE
 70
0
  9
$DIMFXL
 40
1.0
  9
$DIMFXLON
 70
0
  9
$DIMJOGANG
 40
0.785398163397
  9
$DIMTFILL
 70
0
  9
$DIMTFILLCLR
 70
0
  9
$DIMARCSYM
 70
0
  9
$DIMLTYPE
  6

  9
$DIMLTEX1
  6

  9
$DIMLTEX2
  6

  9
$DIMTXTDIRECTION
 70
0
  9
$LUNITS
 70
2
  9
$LUPREC
 70
4
  9
$SKETCHINC
 40
1.0
  9
$FILLETRAD
 40
10.0
  9
$AUNITS
 70
0
  9
$AUPREC
 70
2
  9
$MENU
  1
.
  9
$ELEVATION
 40
0.0
  9
$PELEVATION
 40
0.0
  9
$THICKNESS
 40
0.0
  9
$LIMCHECK
 70
0
  9
$CHAMFERA
 40
0.0
  9
$CHAMFERB
 40
0.0
  9
$CHAMFERC
 40
0.0
  9
$CHAMFERD
 40
0.0
  9
$SKPOLY
 70
0
  9
$TDCREATE
 40
2461085.245983796
  9
$TDUCREATE
 40
2458532.153996898
  9
$TDUPDATE
 40
2461085.245983796
  9
$TDUUPDATE
 40
2458532.1544311
  9
$TDINDWG
 40
0.0
  9
$TDUSRTIMER
 40
0.0
  9
$USRTIMER
 70
1
  9
$ANGBASE
 50
0.0
  9
$ANGDIR
 70
0
  9
$PDMODE
 70
0
  9
$PDSIZE
 40
0.0
  9
$PLINEWID
 40
0.0
  9
$SPLFRAME
 70
0
  9
$SPLINETYPE
 70
6
  9
$SPLINESEGS
 70
8
  9
$HANDSEED
  5
315
  9
$SURFTAB1
 70
6
  9
$SURFTAB2
 70
6
  9
$SURFTYPE
 70
6
  9
$SURFU
 70
6
  9
$SURFV
 70
6
  9
$UCSBASE
  2

  9
$UCSNAME
  2

  9
$UCSORG
 10
0.0
 20
0.0
 30
0.0
  9
$UCSXDIR
 10
1.0
 20
0.0
 30
0.0
  9
$UCSYDIR
 10
0.0
 20
1.0
 30
0.0
  9
$UCSORTHOREF
  2

  9
$UCSORTHOVIEW
 70
0
  9
$UCSORGTOP
 10
0.0
 20
0.0
 30
0.0
  9
$UCSORGBOTTOM
 10
0.0
 20
0.0
 30
0.0
  9
$UCSORGLEFT
 10
0.0
 20
0.0
 30
0.0
  9
$UCSORGRIGHT
 10
0.0
 20
0.0
 30
0.0
  9
$UCSORGFRONT
 10
0.0
 20
0.0
 30
0.0
  9
$UCSORGBACK
 10
0.0
 20
0.0
 30
0.0
  9
$PUCSBASE
  2

  9
$PUCSNAME
  2

  9
$PUCSORG
 10
0.0
 20
0.0
 30
0.0
  9
$PUCSXDIR
 10
1.0
 20
0.0
 30
0.0
  9
$PUCSYDIR
 10
0.0
 20
1.0
 30
0.0
  9
$PUCSORTHOREF
  2

  9
$PUCSORTHOVIEW
 70
0
  9
$PUCSORGTOP
 10
0.0
 20
0.0
 30
0.0
  9
$PUCSORGBOTTOM
 10
0.0
 20
0.0
 30
0.0
  9
$PUCSORGLEFT
 10
0.0
 20
0.0
 30
0.0
  9
$PUCSORGRIGHT
 10
0.0
 20
0.0
 30
0.0
  9
$PUCSORGFRONT
 10
0.0
 20
0.0
 30
0.0
  9
$PUCSORGBACK
 10
0.0
 20
0.0
 30
0.0
  9
$USERI1
 70
0
  9
$USERI2
 70
0
  9
$USERI3
 70
0
  9
$USERI4
 70
0
  9
$USERI5
 70
0
  9
$USERR1
 40
0.0
  9
$USERR2
 40
0.0
  9
$USERR3
 40
0.0
  9
$USERR4
 40
0.0
  9
$USERR5
 40
0.0
  9
$WORLDVIEW
 70
1
  9
$SHADEDGE
 70
3
  9
$SHADEDIF
 70
70
  9
$TILEMODE
 70
1
  9
$MAXACTVP
 70
64
  9
$PINSBASE
 10
0.0
 20
0.0
 30
0.0
  9
$PLIMCHECK
 70
0
  9
$PEXTMIN
 10
1e+20
 20
1e+20
 30
1e+20
  9
$PEXTMAX
 10
-1e+20
 20
-1e+20
 30
-1e+20
  9
$PLIMMIN
 10
0.0
 20
0.0
  9
$PLIMMAX
 10
420.0
 20
297.0
  9
$UNITMODE
 70
0
  9
$VISRETAIN
 70
1
  9
$PLINEGEN
 70
0
  9
$PSLTSCALE
 70
1
  9
$TREEDEPTH
 70
3020
  9
$CMLSTYLE
  2
Standard
  9
$CMLJUST
 70
0
  9
$CMLSCALE
 40
20.0
  9
$PROXYGRAPHICS
 70
1
  9
$MEASUREMENT
 70
1
  9
$CELWEIGHT
370
-1
  9
$ENDCAPS
280
0
  9
$JOINSTYLE
280
0
  9
$LWDISPLAY
290
0
  9
$INSUNITS
 70
6
  9
$HYPERLINKBASE
  1

  9
$STYLESHEET
  1

  9
$XEDIT
290
1
  9
$CEPSNTYPE
380
0
  9
$PSTYLEMODE
290
1
  9
$FINGERPRINTGUID
  2
{75B1709D-67CA-4457-B9A4-7DA8D75BC689}
  9
$VERSIONGUID
  2
{505B4512-C4A2-4F2F-804E-6274FDD43C0E}
  9
$EXTNAMES
290
1
  9
$PSVPSCALE
 40
0.0
  9
$OLESTARTUP
290
0
  9
$SORTENTS
280
127
  9
$INDEXCTL
280
0
  9
$HIDETEXT
280
1
  9
$XCLIPFRAME
280
1
  9
$HALOGAP
280
0
  9
$OBSCOLOR
 70
257
  9
$OBSLTYPE
280
0
  9
$INTERSECTIONDISPLAY
280
0
  9
$INTERSECTIONCOLOR
 70
257
  9
$DIMASSOC
280
2
  9
$PROJECTNAME
  1

  9
$CAMERADISPLAY
290
0
  9
$LENSLENGTH
 40
50.0
  9
$CAMERAHEIGHT
 40
0.0
  9
$STEPSPERSEC
 40
24.0
  9
$STEPSIZE
 40
100.0
  9
$3DDWFPREC
 40
2.0
  9
$PSOLWIDTH
 40
0.005
  9
$PSOLHEIGHT
 40
0.08
  9
$LOFTANG1
 40
1.570796326795
  9
$LOFTANG2
 40
1.570796326795
  9
$LOFTMAG1
 40
0.0
  9
$LOFTMAG2
 40
0.0
  9
$LOFTPARAM
 70
7
  9
$LOFTNORMALS
280
1
  9
$LATITUDE
 40
37.795
  9
$LONGITUDE
 40
-122.394
  9
$NORTHDIRECTION
 40
0.0
  9
$TIMEZONE
 70
-8000
  9
$LIGHTGLYPHDISPLAY
280
1
  9
$TILEMODELIGHTSYNCH
280
1
  9
$CMATERIAL
347
20
  9
$SOLIDHIST
280
0
  9
$SHOWHIST
280
1
  9
$DWFFRAME
280
2
  9
$DGNFRAME
280
2
  9
$REALWORLDSCALE
290
1
  9
$INTERFERECOLOR
 62
256
  9
$CSHADOW
280
0
  9
$SHADOWPLANELOCATION
 40
0.0
  0
ENDSEC
  0
SECTION
  2
CLASSES
  0
CLASS
  1
ACDBDICTIONARYWDFLT
  2
AcDbDictionaryWithDefault
  3
ObjectDBX Classes
 90
0
 91
0
280
0
281
0
  0
CLASS
  1
SUN
  2
AcDbSun
  3
SCENEOE
 90
1153
 91
0
280
0
281
0
  0
CLASS
  1
VISUALSTYLE
  2
AcDbVisualStyle
  3
ObjectDBX Classes
 90
4095
 91
0
280
0
281
0
  0
CLASS
  1
MATERIAL
  2
AcDbMaterial
  3
ObjectDBX Classes
 90
1153
 91
0
280
0
281
0
  0
CLASS
  1
SCALE
  2
AcDbScale
  3
ObjectDBX Classes
 90
1153
 91
0
280
0
281
0
  0
CLASS
  1
TABLESTYLE
  2
AcDbTableStyle
  3
ObjectDBX Classes
 90
4095
 91
0
280
0
281
0
  0
CLASS
  1
MLEADERSTYLE
  2
AcDbMLeaderStyle
  3
ACDB_MLEADERSTYLE_CLASS
 90
4095
 91
0
280
0
281
0
  0
CLASS
  1
DICTIONARYVAR
  2
AcDbDictionaryVar
  3
ObjectDBX Classes
 90
0
 91
0
280
0
281
0
  0
CLASS
  1
CELLSTYLEMAP
  2
AcDbCellStyleMap
  3
ObjectDBX Classes
 90
1152
 91
0
280
0
281
0
  0
CLASS
  1
MENTALRAYRENDERSETTINGS
  2
AcDbMentalRayRenderSettings
  3
SCENEOE
 90
1024
 91
0
280
0
281
0
  0
CLASS
  1
ACDBDETAILVIEWSTYLE
  2
AcDbDetailViewStyle
  3
ObjectDBX Classes
 90
1025
 91
0
280
0
281
0
  0
CLASS
  1
ACDBSECTIONVIEWSTYLE
  2
AcDbSectionViewStyle
  3
ObjectDBX Classes
 90
1025
 91
0
280
0
281
0
  0
CLASS
  1
RASTERVARIABLES
  2
AcDbRasterVariables
  3
ISM
 90
0
 91
0
280
0
281
0
  0
CLASS
  1
LAYOUT
  2
AcDbLayout
  3
ObjectDBX Classes
 90
0
 91
0
280
0
281
0
  0
CLASS
  1
ACDBPLACEHOLDER
  2
AcDbPlaceHolder
  3
ObjectDBX Classes
 90
0
 91
0
280
0
281
0
  0
ENDSEC
  0
SECTION
  2
TABLES
  0
TABLE
  2
VPORT
  5
8
330
0
100
AcDbSymbolTable
 70
1
  0
VPORT
  5
23
330
8
100
AcDbSymbolTableRecord
100
AcDbViewportTableRecord
  2
*Active
 70
0
 10
0.0
 20
0.0
 11
1.0
 21
1.0
 12
0.0
 22
0.0
 13
0.0
 23
0.0
 14
0.5
 24
0.5
 15
0.5
 25
0.5
 16
0.0
 26
0.0
 36
1.0
 17
0.0
 27
0.0
 37
0.0
 40
1000.0
 41
1.34
 42
50.0
 43
0.0
 44
0.0
 50
0.0
 51
0.0
 71
0
 72
1000
 73
1
 74
3
 75
0
 76
0
 77
0
 78
0
281
0
 65
0
146
0.0
  0
ENDTAB
  0
TABLE
  2
LTYPE
  5
2
330
0
100
AcDbSymbolTable
 70
3
  0
LTYPE
  5
24
330
2
100
AcDbSymbolTableRecord
100
AcDbLinetypeTableRecord
  2
ByBlock
 70
0
  3

 72
65
 73
0
 40
0.0
  0
LTYPE
  5
25
330
2
100
AcDbSymbolTableRecord
100
AcDbLinetypeTableRecord
  2
ByLayer
 70
0
  3

 72
65
 73
0
 40
0.0
  0
LTYPE
  5
26
330
2
100
AcDbSymbolTableRecord
100
AcDbLinetypeTableRecord
  2
Continuous
 70
0
  3

 72
65
 73
0
 40
0.0
  0
ENDTAB
  0
TABLE
  2
LAYER
  5
1
330
0
100
AcDbSymbolTable
 70
3
  0
LAYER
  5
27
330
1
100
AcDbSymbolTableRecord
100
AcDbLayerTableRecord
  2
0
 70
0
 62
7
  6
Continuous
370
-3
390
13
347
21
  0
LAYER
  5
28
330
1
100
AcDbSymbolTableRecord
100
AcDbLayerTableRecord
  2
Defpoints
 70
0
 62
7
  6
Continuous
290
0
370
-3
390
13
347
21
  0
LAYER
  5
30F
330
1
100
AcDbSymbolTableRecord
100
AcDbLayerTableRecord
  2
A-DETL-GENF
 70
0
 62
92
  6
Continuous
370
18
390
13
347
21
348
0
  0
ENDTAB
  0
TABLE
  2
STYLE
  5
5
330
0
100
AcDbSymbolTable
 70
1
  0
STYLE
  5
29
330
5
100
AcDbSymbolTableRecord
100
AcDbTextStyleTableRecord
  2
Standard
 70
0
 40
0.0
 41
1.0
 50
0.0
 71
0
 42
2.5
  3
txt
  4

  0
ENDTAB
  0
TABLE
  2
VIEW
  5
7
330
0
100
AcDbSymbolTable
 70
0
  0
ENDTAB
  0
TABLE
  2
UCS
  5
6
330
0
100
AcDbSymbolTable
 70
0
  0
ENDTAB
  0
TABLE
  2
APPID
  5
3
330
0
100
AcDbSymbolTable
 70
3
  0
APPID
  5
2A
330
3
100
AcDbSymbolTableRecord
100
AcDbRegAppTableRecord
  2
ACAD
 70
0
  0
APPID
  5
312
330
3
100
AcDbSymbolTableRecord
100
AcDbRegAppTableRecord
  2
HATCHBACKGROUNDCOLOR
 70
0
  0
APPID
  5
313
330
3
100
AcDbSymbolTableRecord
100
AcDbRegAppTableRecord
  2
EZDXF
 70
0
  0
ENDTAB
  0
TABLE
  2
DIMSTYLE
  5
4
330
0
100
AcDbSymbolTable
 70
1
100
AcDbDimStyleTable
  0
DIMSTYLE
105
2B
330
4
100
AcDbSymbolTableRecord
100
AcDbDimStyleTableRecord
  2
Standard
 70
0
 40
1.0
 41
2.5
 42
0.625
 43
3.75
 44
1.25
 45
0.0
 46
0.0
 47
0.0
 48
0.0
 49
2.5
140
2.5
141
2.5
142
0.0
143
0.03937007874
144
1.0
145
0.0
146
1.0
147
0.625
148
0.0
 69
0
 70
0
 71
0
 72
0
 73
0
 74
0
 75
0
 76
0
 77
1
 78
8
 79
3
170
0
171
3
172
1
173
0
174
0
175
0
176
0
177
0
178
0
179
2
271
2
272
2
273
2
274
3
275
0
276
0
277
2
278
44
279
0
280
0
281
0
282
0
283
0
284
8
285
0
286
0
288
0
289
3
290
0
371
-2
372
-2
  0
ENDTAB
  0
TABLE
  2
BLOCK_RECORD
  5
9
330
0
100
AcDbSymbolTable
 70
3
  0
BLOCK_RECORD
  5
17
330
9
100
AcDbSymbolTableRecord
100
AcDbBlockTableRecord
  2
*Model_Space
340
1A
 70
0
280
1
281
0
  0
BLOCK_RECORD
  5
1B
330
9
100
AcDbSymbolTableRecord
100
AcDbBlockTableRecord
  2
*Paper_Space
340
1E
 70
0
280
1
281
0
  0
BLOCK_RECORD
  5
2F
330
9
100
AcDbSymbolTableRecord
100
AcDbBlockTableRecord
  2
32 DO_MP_aluminium kozijnstijl2_gen_ASK - 32_DO_MP_aluminium kozijnstijl2_gen_ASK-3344907-00_0 Basismaterialen
340
0
 70
0
280
1
281
0
  0
ENDTAB
  0
ENDSEC
  0
SECTION
  2
BLOCKS
  0
BLOCK
  5
18
330
17
100
AcDbEntity
  8
0
100
AcDbBlockBegin
  2
*Model_Space
 70
0
 10
0.0
 20
0.0
 30
0.0
  3
*Model_Space
  1

  0
ENDBLK
  5
19
330
17
100
AcDbEntity
  8
0
100
AcDbBlockEnd
  0
BLOCK
  5
1C
330
1B
100
AcDbEntity
  8
0
100
AcDbBlockBegin
  2
*Paper_Space
 70
0
 10
0.0
 20
0.0
 30
0.0
  3
*Paper_Space
  1

  0
ENDBLK
  5
1D
330
1B
100
AcDbEntity
  8
0
100
AcDbBlockEnd
  0
BLOCK
  5
30
330
2F
100
AcDbEntity
  8
0
100
AcDbBlockBegin
  2
32 DO_MP_aluminium kozijnstijl2_gen_ASK - 32_DO_MP_aluminium kozijnstijl2_gen_ASK-3344907-00_0 Basismaterialen
 70
0
 10
0.0
 20
0.0
 30
0.0
  3
32 DO_MP_aluminium kozijnstijl2_gen_ASK - 32_DO_MP_aluminium kozijnstijl2_gen_ASK-3344907-00_0 Basismaterialen
  1

  0
LINE
  5
32
330
2F
100
AcDbEntity
  8
A-DETL-GENF
100
AcDbLine
 10
21.49999999999999
 20
62.00000000000108
 30
0.0
 11
2.200000000000041
 21
62.00000000000108
 31
0.0
  0
LINE
  5
33
330
2F
100
AcDbEntity
  8
A-DETL-GENF
100
AcDbLine
 10
2.200000000000041
 20
62.00000000000108
 30
0.0
 11
2.200000000000041
 21
43.10000000000104
 31
0.0
  0
LINE
  5
34
330
2F
100
AcDbEntity
  8
A-DETL-GENF
100
AcDbLine
 10
2.200000000000041
 20
43.10000000000104
 30
0.0
 11
4.494804959236224
 21
43.10000000000104
 31
0.0
  0
LINE
  5
35
330
2F
100
AcDbEntity
  8
A-DETL-GENF
100
AcDbLine
 10
4.494804959236224
 20
43.10000000000104
 30
0.0
 11
4.494804959236224
 21
44.67289678059977
 31
0.0
  0
LINE
  5
36
330
2F
100
AcDbEntity
  8
A-DETL-GENF
100
AcDbLine
 10
4.494804959236224
 20
44.67289678059977
 30
0.0
 11
3.400000000000038
 21
44.67289678059977
 31
0.0
  0
LINE
  5
37
330
2F
100
AcDbEntity
  8
A-DETL-GENF
100
AcDbLine
 10
3.400000000000038
 20
44.67289678059977
 30
0.0
 11
3.400000000000038
 21
48.30000000000122
 31
0.0
  0
LINE
  5
38
330
2F
100
AcDbEntity
  8
A-DETL-GENF
100
AcDbLine
 10
3.400000000000038
 20
48.30000000000122
 30
0.0
 11
25.0228914588418
 21
48.30000000000122
 31
0.0
  0
LINE
  5
39
330
2F
100
AcDbEntity
  8
A-DETL-GENF
100
AcDbLine
 10
25.0228914588418
 20
48.30000000000122
 30
0.0
 11
23.76869614451484
 21
46.20000000000115
 31
0.0
  0
LINE
  5
3A
330
2F
100
AcDbEntity
  8
A-DETL-GENF
100
AcDbLine
 10
23.76869614451484
 20
46.20000000000115
 30
0.0
 11
24.8634796724177
 21
46.20000000000115
 31
0.0
  0
LINE
  5
3B
330
2F
100
AcDbEntity
  8
A-DETL-GENF
100
AcDbLine
 10
24.8634796724177
 20
46.20000000000115
 30
0.0
 11
26.49660334481984
 21
48.28196821025544
 31
0.0
  0
LINE
  5
3C
330
2F
100
AcDbEntity
  8
A-DETL-GENF
100
AcDbLine
 10
26.49660334481984
 20
48.28196821025544
 30
0.0
 11
26.49660334481984
 21
49.40000000000124
 31
0.0
  0
LINE
  5
3D
330
2F
100
AcDbEntity
  8
A-DETL-GENF
100
AcDbLine
 10
26.49660334481984
 20
49.40000000000124
 30
0.0
 11
3.398459832940584
 21
49.40000000000124
 31
0.0
  0
LINE
  5
3E
330
2F
100
AcDbEntity
  8
A-DETL-GENF
100
AcDbLine
 10
3.398459832940584
 20
49.40000000000124
 30
0.0
 11
3.702193805319476
 21
60.50000000000115
 31
0.0
  0
LINE
  5
3F
330
2F
100
AcDbEntity
  8
A-DETL-GENF
100
AcDbLine
 10
3.702193805319476
 20
60.50000000000115
 30
0.0
 11
18.57842435210049
 21
60.50000000000115
 31
0.0
  0
LINE
  5
40
330
2F
100
AcDbEntity
  8
A-DETL-GENF
100
AcDbLine
 10
18.57842435210049
 20
60.50000000000115
 30
0.0
 11
20.41275898584309
 21
56.72337491745959
 31
0.0
  0
LINE
  5
41
330
2F
100
AcDbEntity
  8
A-DETL-GENF
100
AcDbLine
 10
20.41275898584309
 20
56.72337491745959
 30
0.0
 11
21.49247601504566
 21
56.10000000000134
 31
0.0
  0
LINE
  5
42
330
2F
100
AcDbEntity
  8
A-DETL-GENF
100
AcDbLine
 10
21.49247601504566
 20
56.10000000000134
 30
0.0
 11
24.89839549495751
 21
56.10000000000134
 31
0.0
  0
LINE
  5
43
330
2F
100
AcDbEntity
  8
A-DETL-GENF
100
AcDbLine
 10
24.89839549495751
 20
56.10000000000134
 30
0.0
 11
24.89839549495751
 21
57.30000000000134
 31
0.0
  0
LINE
  5
44
330
2F
100
AcDbEntity
  8
A-DETL-GENF
100
AcDbLine
 10
24.89839549495751
 20
57.30000000000134
 30
0.0
 11
21.99999999999987
 21
57.30000000000134
 31
0.0
  0
LINE
  5
45
330
2F
100
AcDbEntity
  8
A-DETL-GENF
100
AcDbLine
 10
21.99999999999987
 20
57.30000000000134
 30
0.0
 11
21.21132486540516
 21
57.80000000000122
 31
0.0
  0
LINE
  5
46
330
2F
100
AcDbEntity
  8
A-DETL-GENF
100
AcDbLine
 10
21.21132486540516
 20
57.80000000000122
 30
0.0
 11
20.26457364771005
 21
59.90834155722669
 31
0.0
  0
LINE
  5
47
330
2F
100
AcDbEntity
  8
A-DETL-GENF
100
AcDbLine
 10
20.26457364771005
 20
59.90834155722669
 30
0.0
 11
20.26457364771005
 21
60.80000000000135
 31
0.0
  0
LINE
  5
48
330
2F
100
AcDbEntity
  8
A-DETL-GENF
100
AcDbLine
 10
20.26457364771005
 20
60.80000000000135
 30
0.0
 11
21.49999999999999
 21
60.80000000000135
 31
0.0
  0
LINE
  5
49
330
2F
100
AcDbEntity
  8
A-DETL-GENF
100
AcDbLine
 10
21.49999999999999
 20
60.80000000000135
 30
0.0
 11
21.49999999999999
 21
62.00000000000108
 31
0.0
  0
LINE
  5
4A
330
2F
100
AcDbEntity
  8
A-DETL-GENF
100
AcDbLine
 10
22.00000000000014
 20
61.99999999999973
 30
0.0
 11
55.99999999999945
 21
61.99999999999973
 31
0.0
  0
LINE
  5
4B
330
2F
100
AcDbEntity
  8
A-DETL-GENF
100
AcDbLine
 10
55.99999999999945
 20
61.99999999999973
 30
0.0
 11
55.99999999999945
 21
57.80127347781395
 31
0.0
  0
LINE
  5
4C
330
2F
100
AcDbEntity
  8
A-DETL-GENF
100
AcDbLine
 10
55.99999999999945
 20
57.80127347781395
 30
0.0
 11
54.47866683974439
 21
57.80127347781395
 31
0.0
  0
LINE
  5
4D
330
2F
100
AcDbEntity
  8
A-DETL-GENF
100
AcDbLine
 10
54.47866683974439
 20
57.80127347781395
 30
0.0
 11
54.47866683974439
 21
60.19999999999987
 31
0.0
  0
LINE
  5
4E
330
2F
100
AcDbEntity
  8
A-DETL-GENF
100
AcDbLine
 10
54.47866683974439
 20
60.19999999999987
 30
0.0
 11
50.9999999999995
 21
60.19999999999987
 31
0.0
  0
LINE
  5
4F
330
2F
100
AcDbEntity
  8
A-DETL-GENF
100
AcDbLine
 10
50.9999999999995
 20
60.19999999999987
 30
0.0
 11
50.9999999999995
 21
45.69999999999992
 31
0.0
  0
LINE
  5
50
330
2F
100
AcDbEntity
  8
A-DETL-GENF
100
AcDbLine
 10
50.9999999999995
 20
45.69999999999992
 30
0.0
 11
54.47866683974439
 21
45.69999999999992
 31
0.0
  0
LINE
  5
51
330
2F
100
AcDbEntity
  8
A-DETL-GENF
100
AcDbLine
 10
54.47866683974439
 20
45.69999999999992
 30
0.0
 11
54.47866683974439
 21
47.87713469683935
 31
0.0
  0
LINE
  5
52
330
2F
100
AcDbEntity
  8
A-DETL-GENF
100
AcDbLine
 10
54.47866683974439
 20
47.87713469683935
 30
0.0
 11
55.7999999999995
 21
47.87713469683935
 31
0.0
  0
LINE
  5
53
330
2F
100
AcDbEntity
  8
A-DETL-GENF
100
AcDbLine
 10
55.7999999999995
 20
47.87713469683935
 30
0.0
 11
55.7999999999995
 21
42.3615392347942
 31
0.0
  0
LINE
  5
54
330
2F
100
AcDbEntity
  8
A-DETL-GENF
100
AcDbLine
 10
55.7999999999995
 20
42.3615392347942
 30
0.0
 11
54.47866683974439
 21
42.3615392347942
 31
0.0
  0
LINE
  5
55
330
2F
100
AcDbEntity
  8
A-DETL-GENF
100
AcDbLine
 10
54.47866683974439
 20
42.3615392347942
 30
0.0
 11
54.47866683974439
 21
43.99999999999976
 31
0.0
  0
LINE
  5
56
330
2F
100
AcDbEntity
  8
A-DETL-GENF
100
AcDbLine
 10
54.47866683974439
 20
43.99999999999976
 30
0.0
 11
50.9999999999995
 21
43.99999999999976
 31
0.0
  0
LINE
  5
57
330
2F
100
AcDbEntity
  8
A-DETL-GENF
100
AcDbLine
 10
50.9999999999995
 20
43.99999999999976
 30
0.0
 11
50.9999999999995
 21
40.11363624012038
 31
0.0
  0
LINE
  5
58
330
2F
100
AcDbEntity
  8
A-DETL-GENF
100
AcDbLine
 10
50.9999999999995
 20
40.11363624012038
 30
0.0
 11
48.81061606309212
 21
41.37767764545327
 31
0.0
  0
LINE
  5
59
330
2F
100
AcDbEntity
  8
A-DETL-GENF
100
AcDbLine
 10
48.81061606309212
 20
41.37767764545327
 30
0.0
 11
49.63196198956842
 21
39.92494836855188
 31
0.0
  0
LINE
  5
5A
330
2F
100
AcDbEntity
  8
A-DETL-GENF
100
AcDbLine
 10
49.63196198956842
 20
39.92494836855188
 30
0.0
 11
50.95000000000005
 21
39.16397876842694
 31
0.0
  0
LINE
  5
5B
330
2F
100
AcDbEntity
  8
A-DETL-GENF
100
AcDbLine
 10
50.95000000000005
 20
39.16397876842694
 30
0.0
 11
50.95000000000005
 21
27.23557739399929
 31
0.0
  0
LINE
  5
5C
330
2F
100
AcDbEntity
  8
A-DETL-GENF
100
AcDbLine
 10
50.95000000000005
 20
27.23557739399929
 30
0.0
 11
55.45000000000012
 21
27.23557739399929
 31
0.0
  0
LINE
  5
5D
330
2F
100
AcDbEntity
  8
A-DETL-GENF
100
AcDbLine
 10
55.45000000000012
 20
27.23557739399929
 30
0.0
 11
55.45000000000012
 21
24.60385711400054
 31
0.0
  0
LINE
  5
5E
330
2F
100
AcDbEntity
  8
A-DETL-GENF
100
AcDbLine
 10
55.45000000000012
 20
24.60385711400054
 30
0.0
 11
54.44763249308594
 21
24.60385711400054
 31
0.0
  0
LINE
  5
5F
330
2F
100
AcDbEntity
  8
A-DETL-GENF
100
AcDbLine
 10
54.44763249308594
 20
24.60385711400054
 30
0.0
 11
54.44763249308594
 21
26.00000000000006
 31
0.0
  0
LINE
  5
60
330
2F
100
AcDbEntity
  8
A-DETL-GENF
100
AcDbLine
 10
54.44763249308594
 20
26.00000000000006
 30
0.0
 11
50.95000000000005
 21
26.00000000000006
 31
0.0
  0
LINE
  5
61
330
2F
100
AcDbEntity
  8
A-DETL-GENF
100
AcDbLine
 10
50.95000000000005
 20
26.00000000000006
 30
0.0
 11
50.95000000000005
 21
22.8360212315728
 31
0.0
  0
LINE
  5
62
330
2F
100
AcDbEntity
  8
A-DETL-GENF
100
AcDbLine
 10
50.95000000000005
 20
22.8360212315728
 30
0.0
 11
49.63196198956842
 21
22.07505163144787
 31
0.0
  0
LINE
  5
63
330
2F
100
AcDbEntity
  8
A-DETL-GENF
100
AcDbLine
 10
49.63196198956842
 20
22.07505163144787
 30
0.0
 11
48.81061606309184
 21
20.6223223545462
 31
0.0
  0
LINE
  5
64
330
2F
100
AcDbEntity
  8
A-DETL-GENF
100
AcDbLine
 10
48.81061606309184
 20
20.6223223545462
 30
0.0
 11
51.00000000000004
 21
21.88636375987936
 31
0.0
  0
LINE
  5
65
330
2F
100
AcDbEntity
  8
A-DETL-GENF
100
AcDbLine
 10
51.00000000000004
 20
21.88636375987936
 30
0.0
 11
51.00000000000004
 21
18.49999999999987
 31
0.0
  0
LINE
  5
66
330
2F
100
AcDbEntity
  8
A-DETL-GENF
100
AcDbLine
 10
51.00000000000004
 20
18.49999999999987
 30
0.0
 11
55.80000000000004
 21
18.49999999999987
 31
0.0
  0
LINE
  5
67
330
2F
100
AcDbEntity
  8
A-DETL-GENF
100
AcDbLine
 10
55.80000000000004
 20
18.49999999999987
 30
0.0
 11
55.80000000000004
 21
14.87603583938169
 31
0.0
  0
LINE
  5
68
330
2F
100
AcDbEntity
  8
A-DETL-GENF
100
AcDbLine
 10
55.80000000000004
 20
14.87603583938169
 30
0.0
 11
54.77866683974432
 21
14.87603583938169
 31
0.0
  0
LINE
  5
69
330
2F
100
AcDbEntity
  8
A-DETL-GENF
100
AcDbLine
 10
54.77866683974432
 20
14.87603583938169
 30
0.0
 11
54.77866683974432
 21
16.79999999999999
 31
0.0
  0
LINE
  5
6A
330
2F
100
AcDbEntity
  8
A-DETL-GENF
100
AcDbLine
 10
54.77866683974432
 20
16.79999999999999
 30
0.0
 11
51.00000000000004
 21
16.79999999999999
 31
0.0
  0
LINE
  5
6B
330
2F
100
AcDbEntity
  8
A-DETL-GENF
100
AcDbLine
 10
51.00000000000004
 20
16.79999999999999
 30
0.0
 11
51.00000000000004
 21
2.000001934703577
 31
0.0
  0
LINE
  5
6C
330
2F
100
AcDbEntity
  8
A-DETL-GENF
100
AcDbLine
 10
51.00000000000004
 20
2.000001934703577
 30
0.0
 11
67.00000000001678
 21
1.799999999999698
 31
0.0
  0
LINE
  5
6D
330
2F
100
AcDbEntity
  8
A-DETL-GENF
100
AcDbLine
 10
67.00000000001678
 20
1.799999999999878
 30
0.0
 11
69.99999999999952
 21
1.799999999999878
 31
0.0
  0
LINE
  5
6E
330
2F
100
AcDbEntity
  8
A-DETL-GENF
100
AcDbLine
 10
69.99999999999952
 20
1.799999999999878
 30
0.0
 11
69.99999999999952
 21
3.19999999999983
 31
0.0
  0
LINE
  5
6F
330
2F
100
AcDbEntity
  8
A-DETL-GENF
100
AcDbLine
 10
69.99999999999952
 20
3.19999999999983
 30
0.0
 11
68.52368161563854
 21
3.19999999999983
 31
0.0
  0
LINE
  5
70
330
2F
100
AcDbEntity
  8
A-DETL-GENF
100
AcDbLine
 10
68.52368161563854
 20
3.19999999999983
 30
0.0
 11
68.52368161563854
 21
3.999999999999919
 31
0.0
  0
LINE
  5
71
330
2F
100
AcDbEntity
  8
A-DETL-GENF
100
AcDbLine
 10
68.52368161563854
 20
3.999999999999919
 30
0.0
 11
72.49999999999949
 21
3.999999999999919
 31
0.0
  0
LINE
  5
72
330
2F
100
AcDbEntity
  8
A-DETL-GENF
100
AcDbLine
 10
72.49999999999949
 20
3.999999999999919
 30
0.0
 11
72.49999999999949
 21
2.999999999999876
 31
0.0
  0
LINE
  5
73
330
2F
100
AcDbEntity
  8
A-DETL-GENF
100
AcDbLine
 10
72.49999999999949
 20
2.999999999999876
 30
0.0
 11
71.19999999999952
 21
2.999999999999876
 31
0.0
  0
LINE
  5
74
330
2F
100
AcDbEntity
  8
A-DETL-GENF
100
AcDbLine
 10
71.19999999999952
 20
2.999999999999876
 30
0.0
 11
71.19999999999952
 21
1.399999999999969
 31
0.0
  0
LINE
  5
75
330
2F
100
AcDbEntity
  8
A-DETL-GENF
100
AcDbLine
 10
71.19999999999952
 20
1.399999999999969
 30
0.0
 11
76.7999999999996
 21
1.399999999999969
 31
0.0
  0
LINE
  5
76
330
2F
100
AcDbEntity
  8
A-DETL-GENF
100
AcDbLine
 10
76.7999999999996
 20
1.399999999999969
 30
0.0
 11
76.7999999999996
 21
2.999999999999876
 31
0.0
  0
LINE
  5
77
330
2F
100
AcDbEntity
  8
A-DETL-GENF
100
AcDbLine
 10
76.7999999999996
 20
2.999999999999876
 30
0.0
 11
75.49999999999962
 21
2.999999999999876
 31
0.0
  0
LINE
  5
78
330
2F
100
AcDbEntity
  8
A-DETL-GENF
100
AcDbLine
 10
75.49999999999962
 20
2.999999999999876
 30
0.0
 11
75.49999999999962
 21
3.999999999999919
 31
0.0
  0
LINE
  5
79
330
2F
100
AcDbEntity
  8
A-DETL-GENF
100
AcDbLine
 10
75.49999999999962
 20
3.999999999999919
 30
0.0
 11
77.99999999999957
 21
3.999999999999919
 31
0.0
  0
LINE
  5
7A
330
2F
100
AcDbEntity
  8
A-DETL-GENF
100
AcDbLine
 10
77.99999999999957
 20
3.999999999999919
 30
0.0
 11
77.99999999999957
 21
1.69e-14
 31
0.0
  0
LINE
  5
7B
330
2F
100
AcDbEntity
  8
A-DETL-GENF
100
AcDbLine
 10
77.99999999999957
 20
1.69e-14
 30
0.0
 11
0.0
 21
1.69e-14
 31
0.0
  0
LINE
  5
7C
330
2F
100
AcDbEntity
  8
A-DETL-GENF
100
AcDbLine
 10
0.0
 20
1.69e-14
 30
0.0
 11
0.0
 21
3.999999999999919
 31
0.0
  0
LINE
  5
7D
330
2F
100
AcDbEntity
  8
A-DETL-GENF
100
AcDbLine
 10
0.0
 20
3.999999999999919
 30
0.0
 11
2.499999999999972
 21
3.999999999999919
 31
0.0
  0
LINE
  5
7E
330
2F
100
AcDbEntity
  8
A-DETL-GENF
100
AcDbLine
 10
2.499999999999972
 20
3.999999999999919
 30
0.0
 11
2.499999999999972
 21
2.999999999999876
 31
0.0
  0
LINE
  5
7F
330
2F
100
AcDbEntity
  8
A-DETL-GENF
100
AcDbLine
 10
2.499999999999972
 20
2.999999999999876
 30
0.0
 11
1.199999999999997
 21
2.999999999999876
 31
0.0
  0
LINE
  5
80
330
2F
100
AcDbEntity
  8
A-DETL-GENF
100
AcDbLine
 10
1.199999999999997
 20
2.999999999999876
 30
0.0
 11
1.199999999999997
 21
1.399999999999969
 31
0.0
  0
LINE
  5
81
330
2F
100
AcDbEntity
  8
A-DETL-GENF
100
AcDbLine
 10
1.199999999999997
 20
1.399999999999969
 30
0.0
 11
6.800000000000077
 21
1.399999999999969
 31
0.0
  0
LINE
  5
82
330
2F
100
AcDbEntity
  8
A-DETL-GENF
100
AcDbLine
 10
6.800000000000077
 20
1.399999999999969
 30
0.0
 11
6.800000000000077
 21
2.999999999999876
 31
0.0
  0
LINE
  5
83
330
2F
100
AcDbEntity
  8
A-DETL-GENF
100
AcDbLine
 10
6.800000000000077
 20
2.999999999999876
 30
0.0
 11
5.500000000000103
 21
2.999999999999876
 31
0.0
  0
LINE
  5
84
330
2F
100
AcDbEntity
  8
A-DETL-GENF
100
AcDbLine
 10
5.500000000000103
 20
2.999999999999876
 30
0.0
 11
5.500000000000103
 21
3.999999999999919
 31
0.0
  0
LINE
  5
85
330
2F
100
AcDbEntity
  8
A-DETL-GENF
100
AcDbLine
 10
5.500000000000103
 20
3.999999999999919
 30
0.0
 11
9.476318384361049
 21
3.999999999999919
 31
0.0
  0
LINE
  5
86
330
2F
100
AcDbEntity
  8
A-DETL-GENF
100
AcDbLine
 10
9.476318384361049
 20
3.999999999999919
 30
0.0
 11
9.476318384361049
 21
3.19999999999983
 31
0.0
  0
LINE
  5
87
330
2F
100
AcDbEntity
  8
A-DETL-GENF
100
AcDbLine
 10
9.476318384361049
 20
3.19999999999983
 30
0.0
 11
8.000000000000076
 21
3.19999999999983
 31
0.0
  0
LINE
  5
88
330
2F
100
AcDbEntity
  8
A-DETL-GENF
100
AcDbLine
 10
8.000000000000076
 20
3.19999999999983
 30
0.0
 11
8.000000000000076
 21
1.799999999999878
 31
0.0
  0
LINE
  5
89
330
2F
100
AcDbEntity
  8
A-DETL-GENF
100
AcDbLine
 10
8.000000000000076
 20
1.799999999999878
 30
0.0
 11
10.99999999999723
 21
1.799999999999878
 31
0.0
  0
LINE
  5
8A
330
2F
100
AcDbEntity
  8
A-DETL-GENF
100
AcDbLine
 10
10.99999999999723
 20
1.799999999999878
 30
0.0
 11
26.99999999999955
 21
2.000001934703577
 31
0.0
  0
LINE
  5
8B
330
2F
100
AcDbEntity
  8
A-DETL-GENF
100
AcDbLine
 10
26.99999999999955
 20
2.000001934703577
 30
0.0
 11
26.99999999999955
 21
16.09999999999988
 31
0.0
  0
LINE
  5
8C
330
2F
100
AcDbEntity
  8
A-DETL-GENF
100
AcDbLine
 10
26.99999999999955
 20
16.09999999999988
 30
0.0
 11
23.52133316025521
 21
16.09999999999988
 31
0.0
  0
LINE
  5
8D
330
2F
100
AcDbEntity
  8
A-DETL-GENF
100
AcDbLine
 10
23.52133316025521
 20
16.09999999999988
 30
0.0
 11
23.52133316025521
 21
14.73032167419044
 31
0.0
  0
LINE
  5
8E
330
2F
100
AcDbEntity
  8
A-DETL-GENF
100
AcDbLine
 10
23.52133316025521
 20
14.73032167419044
 30
0.0
 11
22.49999999999949
 21
14.73032167419044
 31
0.0
  0
LINE
  5
8F
330
2F
100
AcDbEntity
  8
A-DETL-GENF
100
AcDbLine
 10
22.49999999999949
 20
14.73032167419044
 30
0.0
 11
22.49999999999949
 21
19.16223521012495
 31
0.0
  0
LINE
  5
90
330
2F
100
AcDbEntity
  8
A-DETL-GENF
100
AcDbLine
 10
22.49999999999949
 20
19.16223521012495
 30
0.0
 11
23.52133316025521
 21
19.16223521012495
 31
0.0
  0
LINE
  5
91
330
2F
100
AcDbEntity
  8
A-DETL-GENF
100
AcDbLine
 10
23.52133316025521
 20
19.16223521012495
 30
0.0
 11
23.52133316025521
 21
17.79999999999976
 31
0.0
  0
LINE
  5
92
330
2F
100
AcDbEntity
  8
A-DETL-GENF
100
AcDbLine
 10
23.52133316025521
 20
17.79999999999976
 30
0.0
 11
26.99999999999955
 21
17.79999999999976
 31
0.0
  0
LINE
  5
93
330
2F
100
AcDbEntity
  8
A-DETL-GENF
100
AcDbLine
 10
26.99999999999955
 20
17.79999999999976
 30
0.0
 11
26.99999999999955
 21
21.88636375987936
 31
0.0
  0
LINE
  5
94
330
2F
100
AcDbEntity
  8
A-DETL-GENF
100
AcDbLine
 10
26.99999999999955
 20
21.88636375987936
 30
0.0
 11
29.18938393690775
 21
20.6223223545462
 31
0.0
  0
LINE
  5
95
330
2F
100
AcDbEntity
  8
A-DETL-GENF
100
AcDbLine
 10
29.18938393690775
 20
20.6223223545462
 30
0.0
 11
28.36803801043117
 21
22.07505163144787
 31
0.0
  0
LINE
  5
96
330
2F
100
AcDbEntity
  8
A-DETL-GENF
100
AcDbLine
 10
28.36803801043117
 20
22.07505163144787
 30
0.0
 11
27.04999999999954
 21
22.8360212315728
 31
0.0
  0
LINE
  5
97
330
2F
100
AcDbEntity
  8
A-DETL-GENF
100
AcDbLine
 10
27.04999999999954
 20
22.8360212315728
 30
0.0
 11
27.04999999999954
 21
26.00000000000006
 31
0.0
  0
LINE
  5
98
330
2F
100
AcDbEntity
  8
A-DETL-GENF
100
AcDbLine
 10
27.04999999999954
 20
26.00000000000006
 30
0.0
 11
23.55236750691366
 21
26.00000000000006
 31
0.0
  0
LINE
  5
99
330
2F
100
AcDbEntity
  8
A-DETL-GENF
100
AcDbLine
 10
23.55236750691366
 20
26.00000000000006
 30
0.0
 11
23.55236750691366
 21
24.60385711400054
 31
0.0
  0
LINE
  5
9A
330
2F
100
AcDbEntity
  8
A-DETL-GENF
100
AcDbLine
 10
23.55236750691366
 20
24.60385711400054
 30
0.0
 11
22.54999999999947
 21
24.60385711400054
 31
0.0
  0
LINE
  5
9B
330
2F
100
AcDbEntity
  8
A-DETL-GENF
100
AcDbLine
 10
22.54999999999947
 20
24.60385711400054
 30
0.0
 11
22.54999999999947
 21
27.23557739399929
 31
0.0
  0
LINE
  5
9C
330
2F
100
AcDbEntity
  8
A-DETL-GENF
100
AcDbLine
 10
22.54999999999947
 20
27.23557739399929
 30
0.0
 11
27.04999999999954
 21
27.23557739399929
 31
0.0
  0
LINE
  5
9D
330
2F
100
AcDbEntity
  8
A-DETL-GENF
100
AcDbLine
 10
27.04999999999954
 20
27.23557739399929
 30
0.0
 11
27.04999999999954
 21
39.16397876842694
 31
0.0
  0
LINE
  5
9E
330
2F
100
AcDbEntity
  8
A-DETL-GENF
100
AcDbLine
 10
27.04999999999954
 20
39.16397876842694
 30
0.0
 11
28.36803801043117
 21
39.92494836855188
 31
0.0
  0
LINE
  5
9F
330
2F
100
AcDbEntity
  8
A-DETL-GENF
100
AcDbLine
 10
28.36803801043117
 20
39.92494836855188
 30
0.0
 11
29.18938393690748
 21
41.37767764545327
 31
0.0
  0
LINE
  5
A0
330
2F
100
AcDbEntity
  8
A-DETL-GENF
100
AcDbLine
 10
29.18938393690748
 20
41.37767764545327
 30
0.0
 11
27.00000000000009
 21
40.11363624012038
 31
0.0
  0
LINE
  5
A1
330
2F
100
AcDbEntity
  8
A-DETL-GENF
100
AcDbLine
 10
27.00000000000009
 20
40.11363624012038
 30
0.0
 11
27.00000000000009
 21
43.99999999999976
 31
0.0
  0
LINE
  5
A2
330
2F
100
AcDbEntity
  8
A-DETL-GENF
100
AcDbLine
 10
27.00000000000009
 20
43.99999999999976
 30
0.0
 11
23.52133316025521
 21
43.99999999999976
 31
0.0
  0
LINE
  5
A3
330
2F
100
AcDbEntity
  8
A-DETL-GENF
100
AcDbLine
 10
23.52133316025521
 20
43.99999999999976
 30
0.0
 11
23.52133316025521
 21
42.3615392347942
 31
0.0
  0
LINE
  5
A4
330
2F
100
AcDbEntity
  8
A-DETL-GENF
100
AcDbLine
 10
23.52133316025521
 20
42.3615392347942
 30
0.0
 11
22.20000000000009
 21
42.3615392347942
 31
0.0
  0
LINE
  5
A5
330
2F
100
AcDbEntity
  8
A-DETL-GENF
100
AcDbLine
 10
22.20000000000009
 20
42.3615392347942
 30
0.0
 11
22.20000000000009
 21
47.87713469683935
 31
0.0
  0
LINE
  5
A6
330
2F
100
AcDbEntity
  8
A-DETL-GENF
100
AcDbLine
 10
22.20000000000009
 20
47.87713469683935
 30
0.0
 11
23.52133316025521
 21
47.87713469683935
 31
0.0
  0
LINE
  5
A7
330
2F
100
AcDbEntity
  8
A-DETL-GENF
100
AcDbLine
 10
23.52133316025521
 20
47.87713469683935
 30
0.0
 11
23.52133316025521
 21
45.69999999999992
 31
0.0
  0
LINE
  5
A8
330
2F
100
AcDbEntity
  8
A-DETL-GENF
100
AcDbLine
 10
23.52133316025521
 20
45.69999999999992
 30
0.0
 11
27.00000000000009
 21
45.69999999999992
 31
0.0
  0
LINE
  5
A9
330
2F
100
AcDbEntity
  8
A-DETL-GENF
100
AcDbLine
 10
27.00000000000009
 20
45.69999999999992
 30
0.0
 11
27.00000000000009
 21
60.19999999999987
 31
0.0
  0
LINE
  5
AA
330
2F
100
AcDbEntity
  8
A-DETL-GENF
100
AcDbLine
 10
27.00000000000009
 20
60.19999999999987
 30
0.0
 11
23.52133316025521
 21
60.19999999999987
 31
0.0
  0
LINE
  5
AB
330
2F
100
AcDbEntity
  8
A-DETL-GENF
100
AcDbLine
 10
23.52133316025521
 20
60.19999999999987
 30
0.0
 11
23.52133316025521
 21
57.80127347781395
 31
0.0
  0
LINE
  5
AC
330
2F
100
AcDbEntity
  8
A-DETL-GENF
100
AcDbLine
 10
23.52133316025521
 20
57.80127347781395
 30
0.0
 11
22.00000000000014
 21
57.80127347781395
 31
0.0
  0
LINE
  5
AD
330
2F
100
AcDbEntity
  8
A-DETL-GENF
100
AcDbLine
 10
22.00000000000014
 20
57.80127347781395
 30
0.0
 11
22.00000000000014
 21
61.99999999999973
 31
0.0
  0
LINE
  5
AE
330
2F
100
AcDbEntity
  8
A-DETL-GENF
100
AcDbLine
 10
49.49999999999957
 20
60.4999999999998
 30
0.0
 11
28.50000000000002
 21
60.4999999999998
 31
0.0
  0
LINE
  5
AF
330
2F
100
AcDbEntity
  8
A-DETL-GENF
100
AcDbLine
 10
28.50000000000002
 20
60.4999999999998
 30
0.0
 11
28.50000000000002
 21
45.10000000000005
 31
0.0
  0
LINE
  5
B0
330
2F
100
AcDbEntity
  8
A-DETL-GENF
100
AcDbLine
 10
28.50000000000002
 20
45.10000000000005
 30
0.0
 11
49.49999999999957
 21
45.10000000000005
 31
0.0
  0
LINE
  5
B1
330
2F
100
AcDbEntity
  8
A-DETL-GENF
100
AcDbLine
 10
49.49999999999957
 20
45.10000000000005
 30
0.0
 11
49.49999999999957
 21
60.4999999999998
 31
0.0
  0
LINE
  5
B2
330
2F
100
AcDbEntity
  8
A-DETL-GENF
100
AcDbLine
 10
46.49983832550248
 20
41.01400698736349
 30
0.0
 11
31.50016167449711
 21
41.01400698736349
 31
0.0
  0
LINE
  5
B3
330
2F
100
AcDbEntity
  8
A-DETL-GENF
100
AcDbLine
 10
31.50016167449711
 20
41.01400698736349
 30
0.0
 11
29.04999999999935
 21
36.35915976247172
 31
0.0
  0
LINE
  5
B4
330
2F
100
AcDbEntity
  8
A-DETL-GENF
100
AcDbLine
 10
29.04999999999935
 20
36.35915976247173
 30
0.0
 11
29.04999999999935
 21
25.64084023752802
 31
0.0
  0
LINE
  5
B5
330
2F
100
AcDbEntity
  8
A-DETL-GENF
100
AcDbLine
 10
29.04999999999935
 20
25.64084023752802
 30
0.0
 11
31.69158619726704
 21
20.6223223545462
 31
0.0
  0
LINE
  5
B6
330
2F
100
AcDbEntity
  8
A-DETL-GENF
100
AcDbLine
 10
31.69158619726704
 20
20.6223223545462
 30
0.0
 11
46.30841380273255
 21
20.6223223545462
 31
0.0
  0
LINE
  5
B7
330
2F
100
AcDbEntity
  8
A-DETL-GENF
100
AcDbLine
 10
46.30841380273255
 20
20.6223223545462
 30
0.0
 11
48.95000000000024
 21
25.64084023752802
 31
0.0
  0
LINE
  5
B8
330
2F
100
AcDbEntity
  8
A-DETL-GENF
100
AcDbLine
 10
48.95000000000024
 20
25.64084023752802
 30
0.0
 11
48.95000000000024
 21
36.35915976247173
 31
0.0
  0
LINE
  5
B9
330
2F
100
AcDbEntity
  8
A-DETL-GENF
100
AcDbLine
 10
48.95000000000024
 20
36.35915976247173
 30
0.0
 11
46.49983832550248
 21
41.01400698736349
 31
0.0
  0
LINE
  5
BA
330
2F
100
AcDbEntity
  8
A-DETL-GENF
100
AcDbLine
 10
48.22680948938003
 20
43.49999999999987
 30
0.0
 11
46.93029688110745
 21
43.49999999999987
 31
0.0
  0
LINE
  5
BB
330
2F
100
AcDbEntity
  8
A-DETL-GENF
100
AcDbLine
 10
46.93029688110745
 20
43.49999999999987
 30
0.0
 11
46.93029688110745
 21
42.06428806204228
 31
0.0
  0
LINE
  5
BC
330
2F
100
AcDbEntity
  8
A-DETL-GENF
100
AcDbLine
 10
46.93029688110745
 20
42.06428806204228
 30
0.0
 11
48.22680948938003
 21
42.06428806204228
 31
0.0
  0
LINE
  5
BD
330
2F
100
AcDbEntity
  8
A-DETL-GENF
100
AcDbLine
 10
48.22680948938003
 20
42.06428806204228
 30
0.0
 11
48.22680948938003
 21
43.49999999999987
 31
0.0
  0
LINE
  5
BE
330
2F
100
AcDbEntity
  8
A-DETL-GENF
100
AcDbLine
 10
31.06970311889214
 20
43.49999999999987
 30
0.0
 11
29.77319051061956
 21
43.49999999999987
 31
0.0
  0
LINE
  5
BF
330
2F
100
AcDbEntity
  8
A-DETL-GENF
100
AcDbLine
 10
29.77319051061956
 20
43.49999999999987
 30
0.0
 11
29.77319051061956
 21
42.06428806204228
 31
0.0
  0
LINE
  5
C0
330
2F
100
AcDbEntity
  8
A-DETL-GENF
100
AcDbLine
 10
29.77319051061956
 20
42.06428806204228
 30
0.0
 11
31.06970311889214
 21
42.06428806204228
 31
0.0
  0
LINE
  5
C1
330
2F
100
AcDbEntity
  8
A-DETL-GENF
100
AcDbLine
 10
31.06970311889214
 20
42.06428806204228
 30
0.0
 11
31.06970311889214
 21
43.49999999999987
 31
0.0
  0
LINE
  5
C2
330
2F
100
AcDbEntity
  8
A-DETL-GENF
100
AcDbLine
 10
31.06970311889187
 20
19.93571193795746
 30
0.0
 11
29.77319051061956
 21
19.93571193795746
 31
0.0
  0
LINE
  5
C3
330
2F
100
AcDbEntity
  8
A-DETL-GENF
100
AcDbLine
 10
29.77319051061956
 20
19.93571193795746
 30
0.0
 11
29.77319051061956
 21
18.49999999999987
 31
0.0
  0
LINE
  5
C4
330
2F
100
AcDbEntity
  8
A-DETL-GENF
100
AcDbLine
 10
29.77319051061956
 20
18.49999999999987
 30
0.0
 11
31.06970311889187
 21
18.49999999999987
 31
0.0
  0
LINE
  5
C5
330
2F
100
AcDbEntity
  8
A-DETL-GENF
100
AcDbLine
 10
31.06970311889187
 20
18.49999999999987
 30
0.0
 11
31.06970311889187
 21
19.93571193795746
 31
0.0
  0
LINE
  5
C6
330
2F
100
AcDbEntity
  8
A-DETL-GENF
100
AcDbLine
 10
48.22680948938003
 20
19.93571193795746
 30
0.0
 11
46.93029688110772
 21
19.93571193795746
 31
0.0
  0
LINE
  5
C7
330
2F
100
AcDbEntity
  8
A-DETL-GENF
100
AcDbLine
 10
46.93029688110772
 20
19.93571193795746
 30
0.0
 11
46.93029688110772
 21
18.49999999999987
 31
0.0
  0
LINE
  5
C8
330
2F
100
AcDbEntity
  8
A-DETL-GENF
100
AcDbLine
 10
46.93029688110772
 20
18.49999999999987
 30
0.0
 11
48.22680948938003
 21
18.49999999999987
 31
0.0
  0
LINE
  5
C9
330
2F
100
AcDbEntity
  8
A-DETL-GENF
100
AcDbLine
 10
48.22680948938003
 20
18.49999999999987
 30
0.0
 11
48.22680948938003
 21
19.93571193795746
 31
0.0
  0
LINE
  5
CA
330
2F
100
AcDbEntity
  8
A-DETL-GENF
100
AcDbLine
 10
49.50000000000011
 20
16.774488320742
 30
0.0
 11
28.49999999999948
 21
16.774488320742
 31
0.0
  0
LINE
  5
CB
330
2F
100
AcDbEntity
  8
A-DETL-GENF
100
AcDbLine
 10
28.49999999999948
 20
16.774488320742
 30
0.0
 11
28.49999999999948
 21
1.499999999999946
 31
0.0
  0
LINE
  5
CC
330
2F
100
AcDbEntity
  8
A-DETL-GENF
100
AcDbLine
 10
28.49999999999948
 20
1.499999999999946
 30
0.0
 11
49.50000000000011
 21
1.499999999999946
 31
0.0
  0
LINE
  5
CD
330
2F
100
AcDbEntity
  8
A-DETL-GENF
100
AcDbLine
 10
49.50000000000011
 20
1.499999999999946
 30
0.0
 11
49.50000000000011
 21
16.774488320742
 31
0.0
  0
LINE
  5
CE
330
2F
100
AcDbEntity
  8
A-DETL-GENF
100
AcDbLine
 10
56.50000000000367
 20
62.0000000000019
 30
0.0
 11
100.0000000000035
 21
62.0000000000019
 31
0.0
  0
LINE
  5
CF
330
2F
100
AcDbEntity
  8
A-DETL-GENF
100
AcDbLine
 10
100.0000000000035
 20
62.0000000000019
 30
0.0
 11
100.0000000000035
 21
58.00000000000172
 31
0.0
  0
LINE
  5
D0
330
2F
100
AcDbEntity
  8
A-DETL-GENF
100
AcDbLine
 10
100.0000000000035
 20
58.00000000000172
 30
0.0
 11
97.50000000000276
 21
58.00000000000172
 31
0.0
  0
LINE
  5
D1
330
2F
100
AcDbEntity
  8
A-DETL-GENF
100
AcDbLine
 10
97.50000000000276
 20
58.00000000000172
 30
0.0
 11
97.50000000000276
 21
59.00000000000176
 31
0.0
  0
LINE
  5
D2
330
2F
100
AcDbEntity
  8
A-DETL-GENF
100
AcDbLine
 10
97.50000000000276
 20
59.00000000000176
 30
0.0
 11
98.78989794856018
 21
59.00000000000176
 31
0.0
  0
LINE
  5
D3
330
2F
100
AcDbEntity
  8
A-DETL-GENF
100
AcDbLine
 10
98.78989794856018
 20
59.00000000000176
 30
0.0
 11
98.78989794856018
 21
60.60000000000167
 31
0.0
  0
LINE
  5
D4
330
2F
100
AcDbEntity
  8
A-DETL-GENF
100
AcDbLine
 10
98.78989794856018
 20
60.60000000000167
 30
0.0
 11
93.31010205144734
 21
60.60000000000167
 31
0.0
  0
LINE
  5
D5
330
2F
100
AcDbEntity
  8
A-DETL-GENF
100
AcDbLine
 10
93.31010205144734
 20
60.60000000000167
 30
0.0
 11
93.31010205144734
 21
59.00000000000176
 31
0.0
  0
LINE
  5
D6
330
2F
100
AcDbEntity
  8
A-DETL-GENF
100
AcDbLine
 10
93.31010205144734
 20
59.00000000000176
 30
0.0
 11
94.5000000000037
 21
59.00000000000176
 31
0.0
  0
LINE
  5
D7
330
2F
100
AcDbEntity
  8
A-DETL-GENF
100
AcDbLine
 10
94.5000000000037
 20
59.00000000000176
 30
0.0
 11
94.5000000000037
 21
58.00000000000172
 31
0.0
  0
LINE
  5
D8
330
2F
100
AcDbEntity
  8
A-DETL-GENF
100
AcDbLine
 10
94.5000000000037
 20
58.00000000000172
 30
0.0
 11
92.00000000000345
 21
58.00000000000172
 31
0.0
  0
LINE
  5
D9
330
2F
100
AcDbEntity
  8
A-DETL-GENF
100
AcDbLine
 10
92.00000000000345
 20
58.00000000000172
 30
0.0
 11
92.00000000000345
 21
60.40000000000198
 31
0.0
  0
LINE
  5
DA
330
2F
100
AcDbEntity
  8
A-DETL-GENF
100
AcDbLine
 10
92.00000000000345
 20
60.40000000000198
 30
0.0
 11
85.50000000000357
 21
60.40000000000198
 31
0.0
  0
LINE
  5
DB
330
2F
100
AcDbEntity
  8
A-DETL-GENF
100
AcDbLine
 10
85.50000000000357
 20
60.40000000000198
 30
0.0
 11
85.50000000000357
 21
31.42654054882769
 31
0.0
  0
LINE
  5
DC
330
2F
100
AcDbEntity
  8
A-DETL-GENF
100
AcDbLine
 10
85.50000000000357
 20
31.42654054882769
 30
0.0
 11
83.3329669814098
 21
32.67767764545525
 31
0.0
  0
LINE
  5
DD
330
2F
100
AcDbEntity
  8
A-DETL-GENF
100
AcDbLine
 10
83.3329669814098
 20
32.67767764545525
 30
0.0
 11
84.15431290788636
 21
31.22494836855386
 31
0.0
  0
LINE
  5
DE
330
2F
100
AcDbEntity
  8
A-DETL-GENF
100
AcDbLine
 10
84.15431290788636
 20
31.22494836855386
 30
0.0
 11
85.47235091831801
 21
30.46397876842892
 31
0.0
  0
LINE
  5
DF
330
2F
100
AcDbEntity
  8
A-DETL-GENF
100
AcDbLine
 10
85.47235091831801
 20
30.46397876842892
 30
0.0
 11
85.47235091831801
 21
14.13602123157478
 31
0.0
  0
LINE
  5
E0
330
2F
100
AcDbEntity
  8
A-DETL-GENF
100
AcDbLine
 10
85.47235091831801
 20
14.13602123157478
 30
0.0
 11
84.15431290788636
 21
13.37505163144984
 31
0.0
  0
LINE
  5
E1
330
2F
100
AcDbEntity
  8
A-DETL-GENF
100
AcDbLine
 10
84.15431290788636
 20
13.37505163144984
 30
0.0
 11
83.3329669814098
 21
11.92232235454818
 31
0.0
  0
LINE
  5
E2
330
2F
100
AcDbEntity
  8
A-DETL-GENF
100
AcDbLine
 10
83.3329669814098
 20
11.92232235454818
 30
0.0
 11
85.50000000000303
 21
13.17345945117574
 31
0.0
  0
LINE
  5
E3
330
2F
100
AcDbEntity
  8
A-DETL-GENF
100
AcDbLine
 10
85.50000000000303
 20
13.17345945117574
 30
0.0
 11
85.50000000000303
 21
9.200000000001715
 31
0.0
  0
LINE
  5
E4
330
2F
100
AcDbEntity
  8
A-DETL-GENF
100
AcDbLine
 10
85.50000000000303
 20
9.200000000001715
 30
0.0
 11
88.000000000003
 21
9.200000000001715
 31
0.0
  0
LINE
  5
E5
330
2F
100
AcDbEntity
  8
A-DETL-GENF
100
AcDbLine
 10
88.000000000003
 20
9.200000000001715
 30
0.0
 11
88.000000000003
 21
8.000000000001988
 31
0.0
  0
LINE
  5
E6
330
2F
100
AcDbEntity
  8
A-DETL-GENF
100
AcDbLine
 10
88.000000000003
 20
8.000000000001988
 30
0.0
 11
78.00000000000311
 21
8.000000000001988
 31
0.0
  0
LINE
  5
E7
330
2F
100
AcDbEntity
  8
A-DETL-GENF
100
AcDbLine
 10
78.00000000000311
 20
8.000000000001988
 30
0.0
 11
78.00000000000311
 21
4.500000000001971
 31
0.0
  0
LINE
  5
E8
330
2F
100
AcDbEntity
  8
A-DETL-GENF
100
AcDbLine
 10
78.00000000000311
 20
4.500000000001971
 30
0.0
 11
76.50000000000318
 21
4.500000000001971
 31
0.0
  0
LINE
  5
E9
330
2F
100
AcDbEntity
  8
A-DETL-GENF
100
AcDbLine
 10
76.50000000000318
 20
4.500000000001971
 30
0.0
 11
76.50000000000318
 21
6.500000000002058
 31
0.0
  0
LINE
  5
EA
330
2F
100
AcDbEntity
  8
A-DETL-GENF
100
AcDbLine
 10
76.50000000000318
 20
6.500000000002058
 30
0.0
 11
74.5000000000031
 21
6.500000000002058
 31
0.0
  0
LINE
  5
EB
330
2F
100
AcDbEntity
  8
A-DETL-GENF
100
AcDbLine
 10
74.5000000000031
 20
6.500000000002058
 30
0.0
 11
74.5000000000031
 21
1.900000000002021
 31
0.0
  0
LINE
  5
EC
330
2F
100
AcDbEntity
  8
A-DETL-GENF
100
AcDbLine
 10
74.5000000000031
 20
1.900000000002021
 30
0.0
 11
73.00000000000315
 21
1.900000000002021
 31
0.0
  0
LINE
  5
ED
330
2F
100
AcDbEntity
  8
A-DETL-GENF
100
AcDbLine
 10
73.00000000000315
 20
1.900000000002021
 30
0.0
 11
73.00000000000315
 21
6.500000000002058
 31
0.0
  0
LINE
  5
EE
330
2F
100
AcDbEntity
  8
A-DETL-GENF
100
AcDbLine
 10
73.00000000000315
 20
6.500000000002058
 30
0.0
 11
70.5000000000032
 21
6.500000000002058
 31
0.0
  0
LINE
  5
EF
330
2F
100
AcDbEntity
  8
A-DETL-GENF
100
AcDbLine
 10
70.5000000000032
 20
6.500000000002058
 30
0.0
 11
70.5000000000032
 21
11.67345945117635
 31
0.0
  0
LINE
  5
F0
330
2F
100
AcDbEntity
  8
A-DETL-GENF
100
AcDbLine
 10
70.5000000000032
 20
11.67345945117635
 30
0.0
 11
72.66703301859751
 21
10.42232235454825
 31
0.0
  0
LINE
  5
F1
330
2F
100
AcDbEntity
  8
A-DETL-GENF
100
AcDbLine
 10
72.66703301859751
 20
10.42232235454825
 30
0.0
 11
71.84568709212094
 21
11.87505163144991
 31
0.0
  0
LINE
  5
F2
330
2F
100
AcDbEntity
  8
A-DETL-GENF
100
AcDbLine
 10
71.84568709212094
 20
11.87505163144991
 30
0.0
 11
70.52764908168903
 21
12.63602123157485
 31
0.0
  0
LINE
  5
F3
330
2F
100
AcDbEntity
  8
A-DETL-GENF
100
AcDbLine
 10
70.52764908168903
 20
12.63602123157485
 30
0.0
 11
70.52764908168903
 21
28.96397876842899
 31
0.0
  0
LINE
  5
F4
330
2F
100
AcDbEntity
  8
A-DETL-GENF
100
AcDbLine
 10
70.52764908168903
 20
28.96397876842899
 30
0.0
 11
71.84568709212094
 21
29.72494836855393
 31
0.0
  0
LINE
  5
F5
330
2F
100
AcDbEntity
  8
A-DETL-GENF
100
AcDbLine
 10
71.84568709212094
 20
29.72494836855393
 30
0.0
 11
72.66703301859724
 21
31.17767764545532
 31
0.0
  0
LINE
  5
F6
330
2F
100
AcDbEntity
  8
A-DETL-GENF
100
AcDbLine
 10
72.66703301859724
 20
31.17767764545532
 30
0.0
 11
70.49909589644435
 21
29.92601856439435
 31
0.0
  0
LINE
  5
F7
330
2F
100
AcDbEntity
  8
A-DETL-GENF
100
AcDbLine
 10
70.49909589644435
 20
29.92601856439435
 30
0.0
 11
70.49909589644435
 21
35.10000000000206
 31
0.0
  0
LINE
  5
F8
330
2F
100
AcDbEntity
  8
A-DETL-GENF
100
AcDbLine
 10
70.49909589644435
 20
35.10000000000206
 30
0.0
 11
77.50000000000377
 21
35.10000000000206
 31
0.0
  0
LINE
  5
F9
330
2F
100
AcDbEntity
  8
A-DETL-GENF
100
AcDbLine
 10
77.50000000000377
 20
35.10000000000206
 30
0.0
 11
79.00000000000342
 21
36.60000000000172
 31
0.0
  0
LINE
  5
FA
330
2F
100
AcDbEntity
  8
A-DETL-GENF
100
AcDbLine
 10
79.00000000000342
 20
36.60000000000172
 30
0.0
 11
83.0000000000036
 21
36.60000000000172
 31
0.0
  0
LINE
  5
FB
330
2F
100
AcDbEntity
  8
A-DETL-GENF
100
AcDbLine
 10
83.0000000000036
 20
36.60000000000172
 30
0.0
 11
83.0000000000036
 21
60.20000000000177
 31
0.0
  0
LINE
  5
FC
330
2F
100
AcDbEntity
  8
A-DETL-GENF
100
AcDbLine
 10
83.0000000000036
 20
60.20000000000177
 30
0.0
 11
58.0000000000036
 21
60.20000000000177
 31
0.0
  0
LINE
  5
FD
330
2F
100
AcDbEntity
  8
A-DETL-GENF
100
AcDbLine
 10
58.0000000000036
 20
60.20000000000177
 30
0.0
 11
58.0000000000036
 21
55.90000000000192
 31
0.0
  0
LINE
  5
FE
330
2F
100
AcDbEntity
  8
A-DETL-GENF
100
AcDbLine
 10
58.0000000000036
 20
55.90000000000192
 30
0.0
 11
52.30000000000354
 21
55.90000000000192
 31
0.0
  0
LINE
  5
FF
330
2F
100
AcDbEntity
  8
A-DETL-GENF
100
AcDbLine
 10
52.30000000000354
 20
55.90000000000192
 30
0.0
 11
52.30000000000354
 21
57.40000000000186
 31
0.0
  0
LINE
  5
100
330
2F
100
AcDbEntity
  8
A-DETL-GENF
100
AcDbLine
 10
52.30000000000354
 20
57.40000000000186
 30
0.0
 11
56.50000000000367
 21
57.40000000000186
 31
0.0
  0
LINE
  5
101
330
2F
100
AcDbEntity
  8
A-DETL-GENF
100
AcDbLine
 10
56.50000000000367
 20
57.40000000000186
 30
0.0
 11
56.50000000000367
 21
62.0000000000019
 31
0.0
  0
LINE
  5
102
330
2F
100
AcDbEntity
  8
A-DETL-GENF
100
AcDbLine
 10
82.74916040769772
 20
34.80000000000185
 30
0.0
 11
81.4526477994254
 21
34.80000000000185
 31
0.0
  0
LINE
  5
103
330
2F
100
AcDbEntity
  8
A-DETL-GENF
100
AcDbLine
 10
81.4526477994254
 20
34.80000000000185
 30
0.0
 11
81.4526477994254
 21
33.36428806204427
 31
0.0
  0
LINE
  5
104
330
2F
100
AcDbEntity
  8
A-DETL-GENF
100
AcDbLine
 10
81.4526477994254
 20
33.36428806204427
 30
0.0
 11
82.74916040769772
 21
33.36428806204427
 31
0.0
  0
LINE
  5
105
330
2F
100
AcDbEntity
  8
A-DETL-GENF
100
AcDbLine
 10
82.74916040769772
 20
33.36428806204427
 30
0.0
 11
82.74916040769772
 21
34.80000000000185
 31
0.0
  0
LINE
  5
106
330
2F
100
AcDbEntity
  8
A-DETL-GENF
100
AcDbLine
 10
74.54735220058163
 20
33.30000000000165
 30
0.0
 11
73.25083959230932
 21
33.30000000000165
 31
0.0
  0
LINE
  5
107
330
2F
100
AcDbEntity
  8
A-DETL-GENF
100
AcDbLine
 10
73.25083959230932
 20
33.30000000000165
 30
0.0
 11
73.25083959230932
 21
31.86428806204434
 31
0.0
  0
LINE
  5
108
330
2F
100
AcDbEntity
  8
A-DETL-GENF
100
AcDbLine
 10
73.25083959230932
 20
31.86428806204434
 30
0.0
 11
74.54735220058163
 21
31.86428806204434
 31
0.0
  0
LINE
  5
109
330
2F
100
AcDbEntity
  8
A-DETL-GENF
100
AcDbLine
 10
74.54735220058163
 20
31.86428806204434
 30
0.0
 11
74.54735220058163
 21
33.30000000000165
 31
0.0
  0
LINE
  5
10A
330
2F
100
AcDbEntity
  8
A-DETL-GENF
100
AcDbLine
 10
81.02218924382016
 20
32.31400698736548
 30
0.0
 11
78.2387259777268
 21
32.46290071405827
 31
0.0
  0
LINE
  5
10B
330
2F
100
AcDbEntity
  8
A-DETL-GENF
100
AcDbLine
 10
78.2387259777268
 20
32.46290071405827
 30
0.0
 11
77.11600024587653
 21
31.23809816306252
 31
0.0
  0
LINE
  5
10C
330
2F
100
AcDbEntity
  8
A-DETL-GENF
100
AcDbLine
 10
77.11600024587653
 20
31.23809816306252
 30
0.0
 11
75.95081931685888
 21
30.81400698736555
 31
0.0
  0
LINE
  5
10D
330
2F
100
AcDbEntity
  8
A-DETL-GENF
100
AcDbLine
 10
75.95081931685888
 20
30.81400698736555
 30
0.0
 11
74.97781075618687
 21
30.81400698736555
 31
0.0
  0
LINE
  5
10E
330
2F
100
AcDbEntity
  8
A-DETL-GENF
100
AcDbLine
 10
74.97781075618687
 20
30.81400698736555
 30
0.0
 11
72.52764908168912
 21
26.15915976247377
 31
0.0
  0
LINE
  5
10F
330
2F
100
AcDbEntity
  8
A-DETL-GENF
100
AcDbLine
 10
72.52764908168912
 20
26.15915976247377
 30
0.0
 11
72.52764908168912
 21
15.44084023753006
 31
0.0
  0
LINE
  5
110
330
2F
100
AcDbEntity
  8
A-DETL-GENF
100
AcDbLine
 10
72.52764908168912
 20
15.44084023753006
 30
0.0
 11
74.98417537036072
 21
10.77390144050522
 31
0.0
  0
LINE
  5
111
330
2F
100
AcDbEntity
  8
A-DETL-GENF
100
AcDbLine
 10
74.98417537036072
 20
10.77390144050522
 30
0.0
 11
77.20000000000303
 21
10.50183238631683
 31
0.0
  0
LINE
  5
112
330
2F
100
AcDbEntity
  8
A-DETL-GENF
100
AcDbLine
 10
77.20000000000303
 20
10.50183238631683
 30
0.0
 11
77.20000000000303
 21
14.80000000000206
 31
0.0
  0
LINE
  5
113
330
2F
100
AcDbEntity
  8
A-DETL-GENF
100
AcDbLine
 10
77.20000000000303
 20
14.80000000000206
 30
0.0
 11
78.80000000000292
 21
14.80000000000206
 31
0.0
  0
LINE
  5
114
330
2F
100
AcDbEntity
  8
A-DETL-GENF
100
AcDbLine
 10
78.80000000000292
 20
14.80000000000206
 30
0.0
 11
78.80000000000292
 21
12.30000000000209
 31
0.0
  0
LINE
  5
115
330
2F
100
AcDbEntity
  8
A-DETL-GENF
100
AcDbLine
 10
78.80000000000292
 20
12.30000000000209
 30
0.0
 11
81.02956207088737
 21
12.30000000000209
 31
0.0
  0
LINE
  5
116
330
2F
100
AcDbEntity
  8
A-DETL-GENF
100
AcDbLine
 10
81.02956207088737
 20
12.30000000000209
 30
0.0
 11
83.47235091831818
 21
16.94084023753027
 31
0.0
  0
LINE
  5
117
330
2F
100
AcDbEntity
  8
A-DETL-GENF
100
AcDbLine
 10
83.47235091831818
 20
16.94084023753027
 30
0.0
 11
83.47235091831818
 21
27.65915976247343
 31
0.0
  0
LINE
  5
118
330
2F
100
AcDbEntity
  8
A-DETL-GENF
100
AcDbLine
 10
83.47235091831818
 20
27.65915976247343
 30
0.0
 11
81.02218924382016
 21
32.31400698736548
 31
0.0
  0
LINE
  5
119
330
2F
100
AcDbEntity
  8
A-DETL-GENF
100
AcDbLine
 10
81.4526477994254
 20
9.800000000001848
 30
0.0
 11
82.74916040769772
 21
9.800000000001848
 31
0.0
  0
LINE
  5
11A
330
2F
100
AcDbEntity
  8
A-DETL-GENF
100
AcDbLine
 10
82.74916040769772
 20
9.800000000001848
 30
0.0
 11
82.74916040769772
 21
11.23571193795943
 31
0.0
  0
LINE
  5
11B
330
2F
100
AcDbEntity
  8
A-DETL-GENF
100
AcDbLine
 10
82.74916040769772
 20
11.23571193795943
 30
0.0
 11
81.4526477994254
 21
11.23571193795943
 31
0.0
  0
LINE
  5
11C
330
2F
100
AcDbEntity
  8
A-DETL-GENF
100
AcDbLine
 10
81.4526477994254
 20
11.23571193795943
 30
0.0
 11
81.4526477994254
 21
9.800000000001848
 31
0.0
  0
LINE
  5
11D
330
2F
100
AcDbEntity
  8
A-DETL-GENF
100
AcDbLine
 10
73.25083959230932
 20
9.735711937959508
 30
0.0
 11
73.25083959230932
 21
8.30000000000192
 31
0.0
  0
LINE
  5
11E
330
2F
100
AcDbEntity
  8
A-DETL-GENF
100
AcDbLine
 10
73.25083959230932
 20
8.30000000000192
 30
0.0
 11
74.54735220058163
 21
8.30000000000192
 31
0.0
  0
LINE
  5
11F
330
2F
100
AcDbEntity
  8
A-DETL-GENF
100
AcDbLine
 10
74.54735220058163
 20
8.30000000000192
 30
0.0
 11
74.54735220058163
 21
9.735711937959508
 31
0.0
  0
LINE
  5
120
330
2F
100
AcDbEntity
  8
A-DETL-GENF
100
AcDbLine
 10
74.54735220058163
 20
9.735711937959508
 30
0.0
 11
73.25083959230932
 21
9.735711937959508
 31
0.0
  0
LINE
  5
121
330
2F
100
AcDbEntity
  8
A-DETL-GENF
100
AcDbLine
 10
105.0000000000026
 20
62.00000000000108
 30
0.0
 11
155.0000000000026
 21
62.00000000000108
 31
0.0
  0
LINE
  5
122
330
2F
100
AcDbEntity
  8
A-DETL-GENF
100
AcDbLine
 10
155.0000000000026
 20
62.00000000000108
 30
0.0
 11
155.0000000000026
 21
59.03796528942575
 31
0.0
  0
LINE
  5
123
330
2F
100
AcDbEntity
  8
A-DETL-GENF
100
AcDbLine
 10
155.0000000000026
 20
59.03796528942575
 30
0.0
 11
153.5000000000027
 21
57.53796528942583
 31
0.0
  0
LINE
  5
124
330
2F
100
AcDbEntity
  8
A-DETL-GENF
100
AcDbLine
 10
153.5000000000027
 20
57.53796528942583
 30
0.0
 11
153.5000000000027
 21
60.20000000000122
 31
0.0
  0
LINE
  5
125
330
2F
100
AcDbEntity
  8
A-DETL-GENF
100
AcDbLine
 10
153.5000000000027
 20
60.20000000000122
 30
0.0
 11
150.0000000000027
 21
60.20000000000122
 31
0.0
  0
LINE
  5
126
330
2F
100
AcDbEntity
  8
A-DETL-GENF
100
AcDbLine
 10
150.0000000000027
 20
60.20000000000122
 30
0.0
 11
150.0000000000027
 21
45.70000000000127
 31
0.0
  0
LINE
  5
127
330
2F
100
AcDbEntity
  8
A-DETL-GENF
100
AcDbLine
 10
150.0000000000027
 20
45.70000000000127
 30
0.0
 11
153.5000000000027
 21
45.70000000000127
 31
0.0
  0
LINE
  5
128
330
2F
100
AcDbEntity
  8
A-DETL-GENF
100
AcDbLine
 10
153.5000000000027
 20
45.70000000000127
 30
0.0
 11
153.5000000000027
 21
47.80000000000133
 31
0.0
  0
LINE
  5
129
330
2F
100
AcDbEntity
  8
A-DETL-GENF
100
AcDbLine
 10
153.5000000000027
 20
47.80000000000133
 30
0.0
 11
154.8000000000027
 21
47.80000000000133
 31
0.0
  0
LINE
  5
12A
330
2F
100
AcDbEntity
  8
A-DETL-GENF
100
AcDbLine
 10
154.8000000000027
 20
47.80000000000133
 30
0.0
 11
154.8000000000027
 21
44.00000000000111
 31
0.0
  0
LINE
  5
12B
330
2F
100
AcDbEntity
  8
A-DETL-GENF
100
AcDbLine
 10
154.8000000000027
 20
44.00000000000111
 30
0.0
 11
150.0000000000027
 21
44.00000000000111
 31
0.0
  0
LINE
  5
12C
330
2F
100
AcDbEntity
  8
A-DETL-GENF
100
AcDbLine
 10
150.0000000000027
 20
44.00000000000111
 30
0.0
 11
150.0000000000027
 21
27.0260185643942
 31
0.0
  0
LINE
  5
12D
330
2F
100
AcDbEntity
  8
A-DETL-GENF
100
AcDbLine
 10
150.0000000000027
 20
27.0260185643942
 30
0.0
 11
147.8320628778506
 21
28.2776776454549
 31
0.0
  0
LINE
  5
12E
330
2F
100
AcDbEntity
  8
A-DETL-GENF
100
AcDbLine
 10
147.8320628778506
 20
28.2776776454549
 30
0.0
 11
148.6534088043272
 21
26.82494836855323
 31
0.0
  0
LINE
  5
12F
330
2F
100
AcDbEntity
  8
A-DETL-GENF
100
AcDbLine
 10
148.6534088043272
 20
26.82494836855323
 30
0.0
 11
149.9714468147588
 21
26.0639787684283
 31
0.0
  0
LINE
  5
130
330
2F
100
AcDbEntity
  8
A-DETL-GENF
100
AcDbLine
 10
149.9714468147588
 20
26.0639787684283
 30
0.0
 11
149.9714468147588
 21
9.736021231574155
 31
0.0
  0
LINE
  5
131
330
2F
100
AcDbEntity
  8
A-DETL-GENF
100
AcDbLine
 10
149.9714468147588
 20
9.736021231574155
 30
0.0
 11
148.6534088043272
 21
8.975051631449219
 31
0.0
  0
LINE
  5
132
330
2F
100
AcDbEntity
  8
A-DETL-GENF
100
AcDbLine
 10
148.6534088043272
 20
8.975051631449219
 30
0.0
 11
147.8320628778506
 21
7.522322354547555
 31
0.0
  0
LINE
  5
133
330
2F
100
AcDbEntity
  8
A-DETL-GENF
100
AcDbLine
 10
147.8320628778506
 20
7.522322354547555
 30
0.0
 11
150.000000000003
 21
8.773981435608524
 31
0.0
  0
LINE
  5
134
330
2F
100
AcDbEntity
  8
A-DETL-GENF
100
AcDbLine
 10
150.000000000003
 20
8.773981435608524
 30
0.0
 11
150.000000000003
 21
1.800000000001231
 31
0.0
  0
LINE
  5
135
330
2F
100
AcDbEntity
  8
A-DETL-GENF
100
AcDbLine
 10
150.000000000003
 20
1.800000000001231
 30
0.0
 11
165.9999999999723
 21
1.600000000001568
 31
0.0
  0
LINE
  5
136
330
2F
100
AcDbEntity
  8
A-DETL-GENF
100
AcDbLine
 10
165.9999999999495
 20
1.600000000001818
 30
0.0
 11
169.000000000003
 21
1.600000000001818
 31
0.0
  0
LINE
  5
137
330
2F
100
AcDbEntity
  8
A-DETL-GENF
100
AcDbLine
 10
169.000000000003
 20
1.600000000001818
 30
0.0
 11
169.000000000003
 21
3.200000000001455
 31
0.0
  0
LINE
  5
138
330
2F
100
AcDbEntity
  8
A-DETL-GENF
100
AcDbLine
 10
169.000000000003
 20
3.200000000001455
 30
0.0
 11
167.523681615642
 21
3.200000000001455
 31
0.0
  0
LINE
  5
139
330
2F
100
AcDbEntity
  8
A-DETL-GENF
100
AcDbLine
 10
167.523681615642
 20
3.200000000001455
 30
0.0
 11
167.523681615642
 21
4.000000000001273
 31
0.0
  0
LINE
  5
13A
330
2F
100
AcDbEntity
  8
A-DETL-GENF
100
AcDbLine
 10
167.523681615642
 20
4.000000000001273
 30
0.0
 11
171.500000000003
 21
4.000000000001273
 31
0.0
  0
LINE
  5
13B
330
2F
100
AcDbEntity
  8
A-DETL-GENF
100
AcDbLine
 10
171.500000000003
 20
4.000000000001273
 30
0.0
 11
171.500000000003
 21
3.00000000000123
 31
0.0
  0
LINE
  5
13C
330
2F
100
AcDbEntity
  8
A-DETL-GENF
100
AcDbLine
 10
171.500000000003
 20
3.00000000000123
 30
0.0
 11
170.2000000000032
 21
3.00000000000123
 31
0.0
  0
LINE
  5
13D
330
2F
100
AcDbEntity
  8
A-DETL-GENF
100
AcDbLine
 10
170.2000000000032
 20
3.00000000000123
 30
0.0
 11
170.2000000000032
 21
1.400000000001322
 31
0.0
  0
LINE
  5
13E
330
2F
100
AcDbEntity
  8
A-DETL-GENF
100
AcDbLine
 10
170.2000000000032
 20
1.400000000001322
 30
0.0
 11
175.8000000000031
 21
1.400000000001322
 31
0.0
  0
LINE
  5
13F
330
2F
100
AcDbEntity
  8
A-DETL-GENF
100
AcDbLine
 10
175.8000000000031
 20
1.400000000001322
 30
0.0
 11
175.8000000000031
 21
3.00000000000123
 31
0.0
  0
LINE
  5
140
330
2F
100
AcDbEntity
  8
A-DETL-GENF
100
AcDbLine
 10
175.8000000000031
 20
3.00000000000123
 30
0.0
 11
174.5000000000031
 21
3.00000000000123
 31
0.0
  0
LINE
  5
141
330
2F
100
AcDbEntity
  8
A-DETL-GENF
100
AcDbLine
 10
174.5000000000031
 20
3.00000000000123
 30
0.0
 11
174.5000000000031
 21
4.000000000001273
 31
0.0
  0
LINE
  5
142
330
2F
100
AcDbEntity
  8
A-DETL-GENF
100
AcDbLine
 10
174.5000000000031
 20
4.000000000001273
 30
0.0
 11
177.000000000003
 21
4.000000000001273
 31
0.0
  0
LINE
  5
143
330
2F
100
AcDbEntity
  8
A-DETL-GENF
100
AcDbLine
 10
177.000000000003
 20
4.000000000001273
 30
0.0
 11
177.000000000003
 21
1.0998e-12
 31
0.0
  0
LINE
  5
144
330
2F
100
AcDbEntity
  8
A-DETL-GENF
100
AcDbLine
 10
177.000000000003
 20
1.0998e-12
 30
0.0
 11
83.00000000000279
 21
1.0998e-12
 31
0.0
  0
LINE
  5
145
330
2F
100
AcDbEntity
  8
A-DETL-GENF
100
AcDbLine
 10
83.00000000000279
 20
1.0998e-12
 30
0.0
 11
83.00000000000279
 21
4.000000000000731
 31
0.0
  0
LINE
  5
146
330
2F
100
AcDbEntity
  8
A-DETL-GENF
100
AcDbLine
 10
83.00000000000279
 20
4.000000000000731
 30
0.0
 11
85.40000000000279
 21
4.000000000000731
 31
0.0
  0
LINE
  5
147
330
2F
100
AcDbEntity
  8
A-DETL-GENF
100
AcDbLine
 10
85.40000000000279
 20
4.000000000000731
 30
0.0
 11
85.40000000000279
 21
3.000000000000688
 31
0.0
  0
LINE
  5
148
330
2F
100
AcDbEntity
  8
A-DETL-GENF
100
AcDbLine
 10
85.40000000000279
 20
3.000000000000688
 30
0.0
 11
84.20000000000304
 21
3.000000000000688
 31
0.0
  0
LINE
  5
149
330
2F
100
AcDbEntity
  8
A-DETL-GENF
100
AcDbLine
 10
84.20000000000304
 20
3.000000000000688
 30
0.0
 11
84.20000000000304
 21
1.400000000000781
 31
0.0
  0
LINE
  5
14A
330
2F
100
AcDbEntity
  8
A-DETL-GENF
100
AcDbLine
 10
84.20000000000304
 20
1.400000000000781
 30
0.0
 11
89.7967881089696
 21
1.400000000000781
 31
0.0
  0
LINE
  5
14B
330
2F
100
AcDbEntity
  8
A-DETL-GENF
100
AcDbLine
 10
89.7967881089696
 20
1.400000000000781
 30
0.0
 11
89.7967881089696
 21
3.000000000000688
 31
0.0
  0
LINE
  5
14C
330
2F
100
AcDbEntity
  8
A-DETL-GENF
100
AcDbLine
 10
89.7967881089696
 20
3.000000000000688
 30
0.0
 11
88.79678810896955
 21
3.000000000000688
 31
0.0
  0
LINE
  5
14D
330
2F
100
AcDbEntity
  8
A-DETL-GENF
100
AcDbLine
 10
88.79678810896955
 20
3.000000000000688
 30
0.0
 11
88.79678810896955
 21
4.000000000000731
 31
0.0
  0
LINE
  5
14E
330
2F
100
AcDbEntity
  8
A-DETL-GENF
100
AcDbLine
 10
88.79678810896955
 20
4.000000000000731
 30
0.0
 11
91.00000000000287
 21
4.000000000000731
 31
0.0
  0
LINE
  5
14F
330
2F
100
AcDbEntity
  8
A-DETL-GENF
100
AcDbLine
 10
91.00000000000287
 20
4.000000000000731
 30
0.0
 11
91.00000000000287
 21
1.545454545455269
 31
0.0
  0
LINE
  5
150
330
2F
100
AcDbEntity
  8
A-DETL-GENF
100
AcDbLine
 10
91.00000000000287
 20
1.545454545455269
 30
0.0
 11
105.0000000000032
 21
1.800000000000961
 31
0.0
  0
LINE
  5
151
330
2F
100
AcDbEntity
  8
A-DETL-GENF
100
AcDbLine
 10
105.0000000000032
 20
1.800000000000961
 30
0.0
 11
105.0000000000032
 21
8.000000000001174
 31
0.0
  0
LINE
  5
152
330
2F
100
AcDbEntity
  8
A-DETL-GENF
100
AcDbLine
 10
105.0000000000032
 20
8.000000000001174
 30
0.0
 11
95.00000000000303
 21
8.000000000001174
 31
0.0
  0
LINE
  5
153
330
2F
100
AcDbEntity
  8
A-DETL-GENF
100
AcDbLine
 10
95.00000000000303
 20
8.000000000001174
 30
0.0
 11
95.00000000000303
 21
9.200000000001173
 31
0.0
  0
LINE
  5
154
330
2F
100
AcDbEntity
  8
A-DETL-GENF
100
AcDbLine
 10
95.00000000000303
 20
9.200000000001173
 30
0.0
 11
97.50000000000301
 21
9.200000000001173
 31
0.0
  0
LINE
  5
155
330
2F
100
AcDbEntity
  8
A-DETL-GENF
100
AcDbLine
 10
97.50000000000301
 20
9.200000000001173
 30
0.0
 11
97.50000000000301
 21
13.17398143560833
 31
0.0
  0
LINE
  5
156
330
2F
100
AcDbEntity
  8
A-DETL-GENF
100
AcDbLine
 10
97.50000000000301
 20
13.17398143560833
 30
0.0
 11
99.66793712215564
 21
11.92232235454764
 31
0.0
  0
LINE
  5
157
330
2F
100
AcDbEntity
  8
A-DETL-GENF
100
AcDbLine
 10
99.66793712215564
 20
11.92232235454763
 30
0.0
 11
98.84659119567905
 21
13.37505163144903
 31
0.0
  0
LINE
  5
158
330
2F
100
AcDbEntity
  8
A-DETL-GENF
100
AcDbLine
 10
98.84659119567905
 20
13.37505163144903
 30
0.0
 11
97.52855318524716
 21
14.13602123157397
 31
0.0
  0
LINE
  5
159
330
2F
100
AcDbEntity
  8
A-DETL-GENF
100
AcDbLine
 10
97.52855318524716
 20
14.13602123157397
 30
0.0
 11
97.52855318524716
 21
30.46397876842811
 31
0.0
  0
LINE
  5
15A
330
2F
100
AcDbEntity
  8
A-DETL-GENF
100
AcDbLine
 10
97.52855318524716
 20
30.46397876842811
 30
0.0
 11
98.84659119567905
 21
31.22494836855332
 31
0.0
  0
LINE
  5
15B
330
2F
100
AcDbEntity
  8
A-DETL-GENF
100
AcDbLine
 10
98.84659119567905
 20
31.22494836855332
 30
0.0
 11
99.66793712215535
 21
32.67767764545471
 31
0.0
  0
LINE
  5
15C
330
2F
100
AcDbEntity
  8
A-DETL-GENF
100
AcDbLine
 10
99.66793712215535
 20
32.67767764545471
 30
0.0
 11
97.50000000000276
 21
31.42601856439374
 31
0.0
  0
LINE
  5
15D
330
2F
100
AcDbEntity
  8
A-DETL-GENF
100
AcDbLine
 10
97.50000000000276
 20
31.42601856439374
 30
0.0
 11
97.50000000000276
 21
36.60000000000117
 31
0.0
  0
LINE
  5
15E
330
2F
100
AcDbEntity
  8
A-DETL-GENF
100
AcDbLine
 10
97.50000000000276
 20
36.60000000000117
 30
0.0
 11
100.8000000000025
 21
36.60000000000117
 31
0.0
  0
LINE
  5
15F
330
2F
100
AcDbEntity
  8
A-DETL-GENF
100
AcDbLine
 10
100.8000000000025
 20
36.60000000000117
 30
0.0
 11
100.8000000000025
 21
38.60643511689231
 31
0.0
  0
LINE
  5
160
330
2F
100
AcDbEntity
  8
A-DETL-GENF
100
AcDbLine
 10
100.8000000000025
 20
38.60643511689231
 30
0.0
 11
102.1298664393733
 21
38.60643511689231
 31
0.0
  0
LINE
  5
161
330
2F
100
AcDbEntity
  8
A-DETL-GENF
100
AcDbLine
 10
102.1298664393733
 20
38.60643511689231
 30
0.0
 11
102.8207374543931
 21
36.60000000000117
 31
0.0
  0
LINE
  5
162
330
2F
100
AcDbEntity
  8
A-DETL-GENF
100
AcDbLine
 10
102.8207374543931
 20
36.60000000000117
 30
0.0
 11
105.0000000000026
 21
36.60000000000117
 31
0.0
  0
LINE
  5
163
330
2F
100
AcDbEntity
  8
A-DETL-GENF
100
AcDbLine
 10
105.0000000000026
 20
36.60000000000117
 30
0.0
 11
105.0000000000026
 21
52.00000000000119
 31
0.0
  0
LINE
  5
164
330
2F
100
AcDbEntity
  8
A-DETL-GENF
100
AcDbLine
 10
105.0000000000026
 20
52.00000000000119
 30
0.0
 11
99.2172433050505
 21
52.00000000000119
 31
0.0
  0
LINE
  5
165
330
2F
100
AcDbEntity
  8
A-DETL-GENF
100
AcDbLine
 10
99.2172433050505
 20
52.00000000000119
 30
0.0
 11
99.2172433050505
 21
50.37732189215658
 31
0.0
  0
LINE
  5
166
330
2F
100
AcDbEntity
  8
A-DETL-GENF
100
AcDbLine
 10
99.2172433050505
 20
50.37732189215658
 30
0.0
 11
100.0000000000027
 21
50.37732189215658
 31
0.0
  0
LINE
  5
167
330
2F
100
AcDbEntity
  8
A-DETL-GENF
100
AcDbLine
 10
100.0000000000027
 20
50.37732189215658
 30
0.0
 11
100.0000000000027
 21
48.8000000000011
 31
0.0
  0
LINE
  5
168
330
2F
100
AcDbEntity
  8
A-DETL-GENF
100
AcDbLine
 10
100.0000000000027
 20
48.8000000000011
 30
0.0
 11
97.50000000000276
 21
49.01872165881596
 31
0.0
  0
LINE
  5
169
330
2F
100
AcDbEntity
  8
A-DETL-GENF
100
AcDbLine
 10
97.50000000000276
 20
49.01872165881596
 30
0.0
 11
97.50000000000276
 21
52.800000000001
 31
0.0
  0
LINE
  5
16A
330
2F
100
AcDbEntity
  8
A-DETL-GENF
100
AcDbLine
 10
97.50000000000276
 20
52.800000000001
 30
0.0
 11
95.00000000000277
 21
52.800000000001
 31
0.0
  0
LINE
  5
16B
330
2F
100
AcDbEntity
  8
A-DETL-GENF
100
AcDbLine
 10
95.00000000000277
 20
52.800000000001
 30
0.0
 11
95.00000000000277
 21
54.00000000000101
 31
0.0
  0
LINE
  5
16C
330
2F
100
AcDbEntity
  8
A-DETL-GENF
100
AcDbLine
 10
95.00000000000277
 20
54.00000000000101
 30
0.0
 11
105.0000000000026
 21
54.00000000000101
 31
0.0
  0
LINE
  5
16D
330
2F
100
AcDbEntity
  8
A-DETL-GENF
100
AcDbLine
 10
105.0000000000026
 20
54.00000000000101
 30
0.0
 11
105.0000000000026
 21
62.00000000000108
 31
0.0
  0
LINE
  5
16E
330
2F
100
AcDbEntity
  8
A-DETL-GENF
100
AcDbLine
 10
148.2000000000025
 20
60.00000000000099
 30
0.0
 11
106.8000000000025
 21
60.00000000000099
 31
0.0
  0
LINE
  5
16F
330
2F
100
AcDbEntity
  8
A-DETL-GENF
100
AcDbLine
 10
106.8000000000025
 20
60.00000000000099
 30
0.0
 11
106.8000000000025
 21
32.20000000000109
 31
0.0
  0
LINE
  5
170
330
2F
100
AcDbEntity
  8
A-DETL-GENF
100
AcDbLine
 10
106.8000000000025
 20
32.20000000000109
 30
0.0
 11
148.2000000000025
 21
32.20000000000109
 31
0.0
  0
LINE
  5
171
330
2F
100
AcDbEntity
  8
A-DETL-GENF
100
AcDbLine
 10
148.2000000000025
 20
32.20000000000109
 30
0.0
 11
148.2000000000025
 21
60.00000000000099
 31
0.0
  0
LINE
  5
172
330
2F
100
AcDbEntity
  8
A-DETL-GENF
100
AcDbLine
 10
100.2517436958674
 20
33.36428806204345
 30
0.0
 11
101.54825630414
 21
33.36428806204345
 31
0.0
  0
LINE
  5
173
330
2F
100
AcDbEntity
  8
A-DETL-GENF
100
AcDbLine
 10
101.54825630414
 20
33.36428806204345
 30
0.0
 11
101.54825630414
 21
34.80000000000104
 31
0.0
  0
LINE
  5
174
330
2F
100
AcDbEntity
  8
A-DETL-GENF
100
AcDbLine
 10
101.54825630414
 20
34.80000000000104
 30
0.0
 11
100.2517436958674
 21
34.80000000000104
 31
0.0
  0
LINE
  5
175
330
2F
100
AcDbEntity
  8
A-DETL-GENF
100
AcDbLine
 10
100.2517436958674
 20
34.80000000000104
 30
0.0
 11
100.2517436958674
 21
33.36428806204345
 31
0.0
  0
LINE
  5
176
330
2F
100
AcDbEntity
  8
A-DETL-GENF
100
AcDbLine
 10
145.9517436958665
 20
30.40000000000096
 30
0.0
 11
145.9517436958665
 21
28.96428806204364
 31
0.0
  0
LINE
  5
177
330
2F
100
AcDbEntity
  8
A-DETL-GENF
100
AcDbLine
 10
145.9517436958665
 20
28.96428806204364
 30
0.0
 11
147.2482563041386
 21
28.96428806204364
 31
0.0
  0
LINE
  5
178
330
2F
100
AcDbEntity
  8
A-DETL-GENF
100
AcDbLine
 10
147.2482563041386
 20
28.96428806204364
 30
0.0
 11
147.2482563041386
 21
30.40000000000096
 31
0.0
  0
LINE
  5
179
330
2F
100
AcDbEntity
  8
A-DETL-GENF
100
AcDbLine
 10
147.2482563041386
 20
30.40000000000096
 30
0.0
 11
145.9517436958665
 21
30.40000000000096
 31
0.0
  0
LINE
  5
17A
330
2F
100
AcDbEntity
  8
A-DETL-GENF
100
AcDbLine
 10
141.3306869610391
 20
30.40000000000096
 30
0.0
 11
103.7554764976164
 21
30.40000000000096
 31
0.0
  0
LINE
  5
17B
330
2F
100
AcDbEntity
  8
A-DETL-GENF
100
AcDbLine
 10
103.7554764976164
 20
30.40000000000096
 30
0.0
 11
102.9517234204172
 21
31.20375307720038
 31
0.0
  0
LINE
  5
17C
330
2F
100
AcDbEntity
  8
A-DETL-GENF
100
AcDbLine
 10
102.9517234204172
 20
31.20375307720038
 30
0.0
 11
102.9517234204172
 21
32.31400698736467
 31
0.0
  0
LINE
  5
17D
330
2F
100
AcDbEntity
  8
A-DETL-GENF
100
AcDbLine
 10
102.9517234204172
 20
32.31400698736467
 30
0.0
 11
101.978714859745
 21
32.31400698736467
 31
0.0
  0
LINE
  5
17E
330
2F
100
AcDbEntity
  8
A-DETL-GENF
100
AcDbLine
 10
101.978714859745
 20
32.31400698736467
 30
0.0
 11
99.52855318524723
 21
27.65915976247289
 31
0.0
  0
LINE
  5
17F
330
2F
100
AcDbEntity
  8
A-DETL-GENF
100
AcDbLine
 10
99.52855318524723
 20
27.65915976247289
 30
0.0
 11
99.52855318524723
 21
16.94084023752918
 31
0.0
  0
LINE
  5
180
330
2F
100
AcDbEntity
  8
A-DETL-GENF
100
AcDbLine
 10
99.52855318524723
 20
16.94084023752918
 30
0.0
 11
101.9850794739191
 21
12.27390144050434
 31
0.0
  0
LINE
  5
181
330
2F
100
AcDbEntity
  8
A-DETL-GENF
100
AcDbLine
 10
101.9850794739191
 20
12.27390144050434
 30
0.0
 11
103.5037524824985
 21
12.08743184199087
 31
0.0
  0
LINE
  5
182
330
2F
100
AcDbEntity
  8
A-DETL-GENF
100
AcDbLine
 10
103.5037524824985
 20
12.08743184199087
 30
0.0
 11
104.7982718841421
 21
11.18099959860138
 31
0.0
  0
LINE
  5
183
330
2F
100
AcDbEntity
  8
A-DETL-GENF
100
AcDbLine
 10
104.7982718841421
 20
11.18099959860138
 30
0.0
 11
105.6951035096757
 21
9.800000000001038
 31
0.0
  0
LINE
  5
184
330
2F
100
AcDbEntity
  8
A-DETL-GENF
100
AcDbLine
 10
105.6951035096757
 20
9.800000000001038
 30
0.0
 11
143.1000000000032
 21
9.800000000001038
 31
0.0
  0
LINE
  5
185
330
2F
100
AcDbEntity
  8
A-DETL-GENF
100
AcDbLine
 10
143.1000000000032
 20
9.800000000001038
 30
0.0
 11
144.1182135770221
 21
9.346662107741748
 31
0.0
  0
LINE
  5
186
330
2F
100
AcDbEntity
  8
A-DETL-GENF
100
AcDbLine
 10
144.1182135770221
 20
9.346662107741748
 30
0.0
 11
144.6123439906739
 21
7.900000000001198
 31
0.0
  0
LINE
  5
187
330
2F
100
AcDbEntity
  8
A-DETL-GENF
100
AcDbLine
 10
144.6123439906739
 20
7.900000000001198
 30
0.0
 11
145.5286579673285
 21
7.900000000001198
 31
0.0
  0
LINE
  5
188
330
2F
100
AcDbEntity
  8
A-DETL-GENF
100
AcDbLine
 10
145.5286579673285
 20
7.900000000001198
 30
0.0
 11
147.971446814759
 21
12.54084023752937
 31
0.0
  0
LINE
  5
189
330
2F
100
AcDbEntity
  8
A-DETL-GENF
100
AcDbLine
 10
147.971446814759
 20
12.54084023752937
 30
0.0
 11
147.971446814759
 21
23.25915976247308
 31
0.0
  0
LINE
  5
18A
330
2F
100
AcDbEntity
  8
A-DETL-GENF
100
AcDbLine
 10
147.971446814759
 20
23.25915976247308
 30
0.0
 11
145.5212851402612
 21
27.91400698736458
 31
0.0
  0
LINE
  5
18B
330
2F
100
AcDbEntity
  8
A-DETL-GENF
100
AcDbLine
 10
145.5212851402612
 20
27.91400698736458
 30
0.0
 11
144.3694519979806
 21
27.97562113947932
 31
0.0
  0
LINE
  5
18C
330
2F
100
AcDbEntity
  8
A-DETL-GENF
100
AcDbLine
 10
144.3694519979806
 20
27.97562113947932
 30
0.0
 11
143.4446010318701
 21
28.38739131922718
 31
0.0
  0
LINE
  5
18D
330
2F
100
AcDbEntity
  8
A-DETL-GENF
100
AcDbLine
 10
143.4446010318701
 20
28.38739131922718
 30
0.0
 11
142.619567544429
 21
29.48224773639923
 31
0.0
  0
LINE
  5
18E
330
2F
100
AcDbEntity
  8
A-DETL-GENF
100
AcDbLine
 10
142.619567544429
 20
29.48224773639923
 30
0.0
 11
141.3306869610391
 21
30.40000000000096
 31
0.0
  0
LINE
  5
18F
330
2F
100
AcDbEntity
  8
A-DETL-GENF
100
AcDbLine
 10
100.2517436958674
 20
9.800000000001038
 30
0.0
 11
101.54825630414
 21
9.800000000001038
 31
0.0
  0
LINE
  5
190
330
2F
100
AcDbEntity
  8
A-DETL-GENF
100
AcDbLine
 10
101.54825630414
 20
9.800000000001038
 30
0.0
 11
101.54825630414
 21
11.23571193795862
 31
0.0
  0
LINE
  5
191
330
2F
100
AcDbEntity
  8
A-DETL-GENF
100
AcDbLine
 10
101.54825630414
 20
11.23571193795862
 30
0.0
 11
100.2517436958674
 21
11.23571193795862
 31
0.0
  0
LINE
  5
192
330
2F
100
AcDbEntity
  8
A-DETL-GENF
100
AcDbLine
 10
100.2517436958674
 20
11.23571193795862
 30
0.0
 11
100.2517436958674
 21
9.800000000001038
 31
0.0
  0
LINE
  5
193
330
2F
100
AcDbEntity
  8
A-DETL-GENF
100
AcDbLine
 10
142.2000000000031
 20
8.000000000001444
 30
0.0
 11
106.800000000003
 21
8.000000000001444
 31
0.0
  0
LINE
  5
194
330
2F
100
AcDbEntity
  8
A-DETL-GENF
100
AcDbLine
 10
106.800000000003
 20
8.000000000001444
 30
0.0
 11
106.800000000003
 21
2.000000000001186
 31
0.0
  0
LINE
  5
195
330
2F
100
AcDbEntity
  8
A-DETL-GENF
100
AcDbLine
 10
106.800000000003
 20
2.000000000001186
 30
0.0
 11
147.0000000000031
 21
2.000000000001186
 31
0.0
  0
LINE
  5
196
330
2F
100
AcDbEntity
  8
A-DETL-GENF
100
AcDbLine
 10
147.0000000000031
 20
2.000000000001186
 30
0.0
 11
147.0000000000031
 21
3.600000000001093
 31
0.0
  0
LINE
  5
197
330
2F
100
AcDbEntity
  8
A-DETL-GENF
100
AcDbLine
 10
147.0000000000031
 20
3.600000000001093
 30
0.0
 11
142.2000000000031
 21
3.600000000001093
 31
0.0
  0
LINE
  5
198
330
2F
100
AcDbEntity
  8
A-DETL-GENF
100
AcDbLine
 10
142.2000000000031
 20
3.600000000001093
 30
0.0
 11
142.2000000000031
 21
8.000000000001444
 31
0.0
  0
LINE
  5
199
330
2F
100
AcDbEntity
  8
A-DETL-GENF
100
AcDbLine
 10
147.2482563041388
 20
5.400000000001226
 30
0.0
 11
147.2482563041388
 21
6.835711937958541
 31
0.0
  0
LINE
  5
19A
330
2F
100
AcDbEntity
  8
A-DETL-GENF
100
AcDbLine
 10
147.2482563041388
 20
6.835711937958541
 30
0.0
 11
145.9517436958665
 21
6.835711937958541
 31
0.0
  0
LINE
  5
19B
330
2F
100
AcDbEntity
  8
A-DETL-GENF
100
AcDbLine
 10
145.9517436958665
 20
6.835711937958541
 30
0.0
 11
145.9517436958665
 21
5.400000000001226
 31
0.0
  0
LINE
  5
19C
330
2F
100
AcDbEntity
  8
A-DETL-GENF
100
AcDbLine
 10
145.9517436958665
 20
5.400000000001226
 30
0.0
 11
147.2482563041388
 21
5.400000000001226
 31
0.0
  0
ARC
  5
19D
330
2F
100
AcDbEntity
  8
A-DETL-GENF
100
AcDbCircle
 10
-3.205220196889759
 20
36.6999592268065
 30
0.0
 40
0.1999999999999545
100
AcDbArc
 50
179.9999999999999
 51
269.9999999999996
  0
ARC
  5
19E
330
2F
100
AcDbEntity
  8
A-DETL-GENF
100
AcDbCircle
 10
1.394177337493373
 20
40.99995922680658
 30
0.0
 40
4.500000000000055
100
AcDbArc
 50
269.9999999999999
 51
313.4293846194416
  0
ARC
  5
19F
330
2F
100
AcDbEntity
  8
A-DETL-GENF
100
AcDbCircle
 10
5.862667664581135
 20
36.27951494721536
 30
0.0
 40
1.999999999999543
100
AcDbArc
 50
46.57061538055796
 51
133.429384619442
  0
ARC
  5
1A0
330
2F
100
AcDbEntity
  8
A-DETL-GENF
100
AcDbCircle
 10
10.33115799166889
 20
40.99995922680658
 30
0.0
 40
4.500000000000061
100
AcDbArc
 50
226.5706153805577
 51
269.9999999999993
  0
ARC
  5
1A1
330
2F
100
AcDbEntity
  8
A-DETL-GENF
100
AcDbCircle
 10
13.5457865715468
 20
36.69995922680648
 30
0.0
 40
0.1999999999999549
100
AcDbArc
 50
269.9999999999997
 51
0.0
  0
ARC
  5
1A2
330
2F
100
AcDbEntity
  8
A-DETL-GENF
100
AcDbCircle
 10
13.04006633349887
 20
36.90844167986955
 30
0.0
 40
0.719653851197034
100
AcDbArc
 50
11.29304077205665
 51
96.88330156309397
  0
ARC
  5
1A3
330
2F
100
AcDbEntity
  8
A-DETL-GENF
100
AcDbCircle
 10
12.71591063363822
 20
40.62433451415645
 30
0.0
 40
3.000000000000401
100
AcDbArc
 50
191.2349691153149
 51
269.6686526249566
  0
ARC
  5
1A4
330
2F
100
AcDbEntity
  8
A-DETL-GENF
100
AcDbCircle
 10
7.934183808598539
 20
41.60000000000031
 30
0.0
 40
1.500000000000741
100
AcDbArc
 50
11.23496911531512
 51
90.0
  0
ARC
  5
1A5
330
2F
100
AcDbEntity
  8
A-DETL-GENF
100
AcDbCircle
 10
6.811618786533262
 20
43.40000000000098
 30
0.0
 40
0.2999999999999341
100
AcDbArc
 50
225.0000000000213
 51
269.9999999999994
  0
ARC
  5
1A6
330
2F
100
AcDbEntity
  8
A-DETL-GENF
100
AcDbCircle
 10
5.6926884418601
 20
43.74753481748792
 30
0.0
 40
0.2454590082495879
100
AcDbArc
 50
45.00000000002078
 51
150.0000000000183
  0
ARC
  5
1A7
330
2F
100
AcDbEntity
  8
A-DETL-GENF
100
AcDbCircle
 10
4.862197310940541
 20
43.40000000000098
 30
0.0
 40
0.2999999999999319
100
AcDbArc
 50
269.9999999999997
 51
330.0000000000188
  0
ARC
  5
1A8
330
2F
100
AcDbEntity
  8
A-DETL-GENF
100
AcDbCircle
 10
2.499999999999668
 20
43.40000000000098
 30
0.0
 40
0.2999999999999338
100
AcDbArc
 50
179.9999999999998
 51
269.9999999999994
  0
ARC
  5
1A9
330
2F
100
AcDbEntity
  8
A-DETL-GENF
100
AcDbCircle
 10
1.899999999999534
 20
45.53435140734342
 30
0.0
 40
0.2999999999999317
100
AcDbArc
 50
0.0
 51
129.4872056926569
  0
ARC
  5
1AA
330
2F
100
AcDbEntity
  8
A-DETL-GENF
100
AcDbCircle
 10
8.230378081053582
 20
38.7491534894689
 30
0.0
 40
9.579137005808718
100
AcDbArc
 50
132.9035224088029
 51
184.0227922239278
  0
ARC
  5
1AB
330
2F
100
AcDbEntity
  8
A-DETL-GENF
100
AcDbCircle
 10
-1.025897193472436
 20
38.09819142084601
 30
0.0
 40
0.2999999999999316
100
AcDbArc
 50
184.0227922239277
 51
290.099118662704
  0
ARC
  5
1AC
330
2F
100
AcDbEntity
  8
A-DETL-GENF
100
AcDbCircle
 10
-2.469324710089684
 20
42.04273049884698
 30
0.0
 40
4.500341835326395
100
AcDbArc
 50
290.0991186627038
 51
332.2097154280547
  0
ARC
  5
1AD
330
2F
100
AcDbEntity
  8
A-DETL-GENF
100
AcDbCircle
 10
1.781465988082135
 20
39.86051335595402
 30
0.0
 40
0.2823026805160253
100
AcDbArc
 50
330.0679784565246
 51
162.6908231036615
  0
ARC
  5
1AE
330
2F
100
AcDbEntity
  8
A-DETL-GENF
100
AcDbCircle
 10
-3.534029578738901
 20
44.65665763344976
 30
0.0
 40
7.435672524612556
100
AcDbArc
 50
274.7940370776235
 51
318.3972429629369
  0
ARC
  5
1AF
330
2F
100
AcDbEntity
  8
A-DETL-GENF
100
AcDbCircle
 10
-2.905220196889015
 20
36.74705280468519
 30
0.0
 40
0.499999999999888
100
AcDbArc
 50
90.84565689170124
 51
180.0000000000519
  0
LINE
  5
1B0
330
2F
100
AcDbEntity
  8
A-DETL-GENF
100
AcDbLine
 10
-3.205220196889761
 20
36.49995922680655
 30
0.0
 11
1.394177337493366
 21
36.49995922680654
 31
0.0
  0
LINE
  5
1B1
330
2F
100
AcDbEntity
  8
A-DETL-GENF
100
AcDbLine
 10
10.33115799166886
 20
36.49995922680655
 30
0.0
 11
13.5457865715468
 21
36.49995922680654
 31
0.0
  0
LINE
  5
1B2
330
2F
100
AcDbEntity
  8
A-DETL-GENF
100
AcDbLine
 10
13.74578657154703
 20
36.69995922680648
 30
0.0
 11
13.74578657154703
 21
37.04936936044358
 31
0.0
  0
LINE
  5
1B3
330
2F
100
AcDbEntity
  8
A-DETL-GENF
100
AcDbLine
 10
12.95381761723438
 20
37.62290849119492
 30
0.0
 11
12.69856142235691
 21
37.62438468043183
 31
0.0
  0
LINE
  5
1B4
330
2F
100
AcDbEntity
  8
A-DETL-GENF
100
AcDbLine
 10
9.773401354613563
 20
40.03983546124245
 30
0.0
 11
9.405438448110349
 21
41.8922495264572
 31
0.0
  0
LINE
  5
1B5
330
2F
100
AcDbEntity
  8
A-DETL-GENF
100
AcDbLine
 10
7.934183808598542
 20
43.10000000000104
 30
0.0
 11
6.81161878653326
 21
43.10000000000104
 31
0.0
  0
LINE
  5
1B6
330
2F
100
AcDbEntity
  8
A-DETL-GENF
100
AcDbLine
 10
6.599486752177472
 20
43.18786796564503
 30
0.0
 11
5.866254171097008
 21
43.92110054672495
 31
0.0
  0
LINE
  5
1B7
330
2F
100
AcDbEntity
  8
A-DETL-GENF
100
AcDbLine
 10
5.480114705127379
 20
43.8702643216131
 30
0.0
 11
5.122004932076138
 21
43.25000000000094
 31
0.0
  0
LINE
  5
1B8
330
2F
100
AcDbEntity
  8
A-DETL-GENF
100
AcDbLine
 10
4.862197310940541
 20
43.10000000000104
 30
0.0
 11
2.499999999999666
 21
43.10000000000104
 31
0.0
  0
LINE
  5
1B9
330
2F
100
AcDbEntity
  8
A-DETL-GENF
100
AcDbLine
 10
2.200000000000007
 20
43.40000000000098
 30
0.0
 11
2.200000000000011
 21
45.53435140734342
 31
0.0
  0
LINE
  5
1BA
330
2F
100
AcDbEntity
  8
A-DETL-GENF
100
AcDbLine
 10
2.753553390592717
 20
43.10000000000104
 30
0.0
 11
4.053553390592963
 21
43.10000000000104
 31
0.0
  0
ARC
  5
1BB
330
2F
100
AcDbEntity
  8
A-DETL-GENF
100
AcDbCircle
 10
5.223921384294929
 20
2.799999999999092
 30
0.0
 40
0.199999999999954
100
AcDbArc
 50
179.9999999999997
 51
269.9999999999994
  0
ARC
  5
1BC
330
2F
100
AcDbEntity
  8
A-DETL-GENF
100
AcDbCircle
 10
1.237365029012393
 20
6.300000000000479
 30
0.0
 40
0.2999999999999323
100
AcDbArc
 50
55.7695798620637
 51
89.99999999999982
  0
ARC
  5
1BD
330
2F
100
AcDbEntity
  8
A-DETL-GENF
100
AcDbCircle
 10
-1.233973697481889
 20
8.892288851755472
 30
0.0
 40
2.489649446055465
100
AcDbArc
 50
247.0326785862656
 51
292.9673214137334
  0
ARC
  5
1BE
330
2F
100
AcDbEntity
  8
A-DETL-GENF
100
AcDbCircle
 10
0.8411173383818656
 20
6.611792091754764
 30
0.0
 40
3.429585539065651
100
AcDbArc
 50
180.1970029360047
 51
251.837532883712
  0
ARC
  5
1BF
330
2F
100
AcDbEntity
  8
A-DETL-GENF
100
AcDbCircle
 10
0.2499999999999432
 20
3.500000000000033
 30
0.0
 40
0.4999999999998865
100
AcDbArc
 50
89.99999999999982
 51
197.087910159828
  0
ARC
  5
1C0
330
2F
100
AcDbEntity
  8
A-DETL-GENF
100
AcDbCircle
 10
2.150000000000052
 20
3.500000000000033
 30
0.0
 40
0.4999999999998868
100
AcDbArc
 50
359.9999999999994
 51
89.99999999999991
  0
ARC
  5
1C1
330
2F
100
AcDbEntity
  8
A-DETL-GENF
100
AcDbCircle
 10
2.420000000000478
 20
2.829999999999968
 30
0.0
 40
0.2300000000008138
100
AcDbArc
 50
269.9999999999995
 51
359.9999999999995
  0
ARC
  5
1C2
330
2F
100
AcDbEntity
  8
A-DETL-GENF
100
AcDbCircle
 10
2.350000000000278
 20
2.300000000000306
 30
0.0
 40
0.2999999999999316
100
AcDbArc
 50
89.99999999999979
 51
179.9999999999998
  0
ARC
  5
1C3
330
2F
100
AcDbEntity
  8
A-DETL-GENF
100
AcDbCircle
 10
5.550000000000092
 20
2.300000000000289
 30
0.0
 40
0.2999999999999319
100
AcDbArc
 50
359.9999999999992
 51
89.99999999999987
  0
ARC
  5
1C4
330
2F
100
AcDbEntity
  8
A-DETL-GENF
100
AcDbCircle
 10
5.993021594566907
 20
3.061057932154422
 30
0.0
 40
0.9698823135823976
100
AcDbArc
 50
104.5111335424974
 51
177.6988795036424
  0
ARC
  5
1C5
330
2F
100
AcDbEntity
  8
A-DETL-GENF
100
AcDbCircle
 10
6.531141048246798
 20
4.17609876620992
 30
0.0
 40
0.4930733343599858
100
AcDbArc
 50
339.0750249040979
 51
28.01663410673553
  0
ARC
  5
1C6
330
2F
100
AcDbEntity
  8
A-DETL-GENF
100
AcDbCircle
 10
6.701588361574451
 20
4.266790694297707
 30
0.0
 40
0.299999999999932
100
AcDbArc
 50
28.01663410673562
 51
83.41047162269253
  0
ARC
  5
1C7
330
2F
100
AcDbEntity
  8
A-DETL-GENF
100
AcDbCircle
 10
8.101982865289305
 20
16.38945145888935
 30
0.0
 40
11.90327860779253
100
AcDbArc
 50
235.7695798620633
 51
263.4104716226925
  0
ARC
  5
1C8
330
2F
100
AcDbEntity
  8
A-DETL-GENF
100
AcDbCircle
 10
4.149999999999598
 20
2.600000000000221
 30
0.0
 40
0.2999999999999314
100
AcDbArc
 50
269.9999999999998
 51
359.9999999999994
  0
ARC
  5
1C9
330
2F
100
AcDbEntity
  8
A-DETL-GENF
100
AcDbCircle
 10
3.749999999999959
 20
2.600000000000238
 30
0.0
 40
0.2999999999999321
100
AcDbArc
 50
179.9999999999998
 51
269.9999999999995
  0
ARC
  5
1CA
330
2F
100
AcDbEntity
  8
A-DETL-GENF
100
AcDbCircle
 10
3.749999999999959
 20
3.787895438320162
 30
0.0
 40
0.2999999999999316
100
AcDbArc
 50
113.198590513765
 51
179.9999999999998
  0
ARC
  5
1CB
330
2F
100
AcDbEntity
  8
A-DETL-GENF
100
AcDbCircle
 10
4.149999999999598
 20
3.959324009748677
 30
0.0
 40
0.2999999999999321
100
AcDbArc
 50
359.9999999999995
 51
113.198590513765
  0
ARC
  5
1CC
330
2F
100
AcDbEntity
  8
A-DETL-GENF
100
AcDbCircle
 10
8.101982865289305
 20
16.38945145888935
 30
0.0
 40
12.70327860779235
100
AcDbArc
 50
236.3939710081002
 51
242.0774158626956
  0
ARC
  5
1CD
330
2F
100
AcDbEntity
  8
A-DETL-GENF
100
AcDbCircle
 10
2.012831879667752
 20
4.899999999999715
 30
0.0
 40
0.2999999999999321
100
AcDbArc
 50
269.9999999999998
 51
62.07741586269539
  0
ARC
  5
1CE
330
2F
100
AcDbEntity
  8
A-DETL-GENF
100
AcDbCircle
 10
0.2499999999999432
 20
3.500000000000033
 30
0.0
 40
1.100000000000831
100
AcDbArc
 50
89.99999999999982
 51
121.4862188014675
  0
ARC
  5
1CF
330
2F
100
AcDbEntity
  8
A-DETL-GENF
100
AcDbCircle
 10
-0.4812108529267598
 20
4.693872140792921
 30
0.0
 40
0.2999999999999316
100
AcDbArc
 50
235.4153083750301
 51
301.4862188014672
  0
ARC
  5
1D0
330
2F
100
AcDbEntity
  8
A-DETL-GENF
100
AcDbCircle
 10
0.8411173383818656
 20
6.611792091754764
 30
0.0
 40
2.629585539064751
100
AcDbArc
 50
214.1035751688281
 51
235.4153083750298
  0
ARC
  5
1D1
330
2F
100
AcDbEntity
  8
A-DETL-GENF
100
AcDbCircle
 10
-1.08783854295007
 20
5.305615230950254
 30
0.0
 40
0.2999999999999321
100
AcDbArc
 50
92.33316434099712
 51
214.1035751688279
  0
ARC
  5
1D2
330
2F
100
AcDbEntity
  8
A-DETL-GENF
100
AcDbCircle
 10
-1.233973697481889
 20
8.892288851755472
 30
0.0
 40
3.289649446056365
100
AcDbArc
 50
272.3331643409968
 51
294.09828032683
  0
ARC
  5
1D3
330
2F
100
AcDbEntity
  8
A-DETL-GENF
100
AcDbCircle
 10
0.5175033080940445
 20
4.97649765852416
 30
0.0
 40
0.9999999999997718
100
AcDbArc
 50
56.39397100810043
 51
114.0982803268304
  0
LINE
  5
1D4
330
2F
100
AcDbEntity
  8
A-DETL-GENF
100
AcDbLine
 10
5.023921384294162
 20
2.799999999999093
 30
0.0
 11
5.023921384294163
 21
3.100000000015127
 31
0.0
  0
LINE
  5
1D5
330
2F
100
AcDbEntity
  8
A-DETL-GENF
100
AcDbLine
 10
1.237365029012394
 20
6.599999999999329
 30
0.0
 11
-0.2624974062844139
 21
6.599999999999333
 31
0.0
  0
LINE
  5
1D6
330
2F
100
AcDbEntity
  8
A-DETL-GENF
100
AcDbLine
 10
-2.205449988679379
 20
6.599999999999345
 30
0.0
 11
-2.588447927995237
 21
6.599999999999346
 31
0.0
  0
LINE
  5
1D7
330
2F
100
AcDbEntity
  8
A-DETL-GENF
100
AcDbLine
 10
0.2499999999999448
 20
3.999999999999919
 30
0.0
 11
2.150000000000054
 21
3.999999999999913
 31
0.0
  0
LINE
  5
1D8
330
2F
100
AcDbEntity
  8
A-DETL-GENF
100
AcDbLine
 10
2.650000000000209
 20
3.500000000000031
 30
0.0
 11
2.650000000000207
 21
2.829999999999968
 31
0.0
  0
LINE
  5
1D9
330
2F
100
AcDbEntity
  8
A-DETL-GENF
100
AcDbLine
 10
2.050000000000075
 20
2.300000000000307
 30
0.0
 11
2.050000000000074
 21
2.132180073763924
 31
0.0
  0
LINE
  5
1DA
330
2F
100
AcDbEntity
  8
A-DETL-GENF
100
AcDbLine
 10
2.050000000000074
 20
2.132180073763924
 30
0.0
 11
2.803402874075354
 21
1.500000000000487
 31
0.0
  0
LINE
  5
1DB
330
2F
100
AcDbEntity
  8
A-DETL-GENF
100
AcDbLine
 10
2.803402874075354
 20
1.500000000000488
 30
0.0
 11
5.096597125924208
 21
1.50000000000048
 31
0.0
  0
LINE
  5
1DC
330
2F
100
AcDbEntity
  8
A-DETL-GENF
100
AcDbLine
 10
5.096597125924208
 20
1.50000000000048
 30
0.0
 11
5.850000000000023
 21
2.132180073763902
 31
0.0
  0
LINE
  5
1DD
330
2F
100
AcDbEntity
  8
A-DETL-GENF
100
AcDbLine
 10
5.850000000000023
 20
2.132180073763902
 30
0.0
 11
5.850000000000024
 21
2.300000000000288
 31
0.0
  0
LINE
  5
1DE
330
2F
100
AcDbEntity
  8
A-DETL-GENF
100
AcDbLine
 10
5.550000000000093
 20
2.600000000000221
 30
0.0
 11
5.223921384294927
 21
2.600000000000222
 31
0.0
  0
LINE
  5
1DF
330
2F
100
AcDbEntity
  8
A-DETL-GENF
100
AcDbLine
 10
5.74999999999145
 20
3.999999999999902
 30
0.0
 11
6.991695646091811
 21
3.999999999999898
 31
0.0
  0
LINE
  5
1E0
330
2F
100
AcDbEntity
  8
A-DETL-GENF
100
AcDbLine
 10
4.4499999999998
 20
3.959324009748677
 30
0.0
 11
4.449999999999795
 21
2.600000000000219
 31
0.0
  0
LINE
  5
1E1
330
2F
100
AcDbEntity
  8
A-DETL-GENF
100
AcDbLine
 10
4.149999999999597
 20
2.300000000000289
 30
0.0
 11
3.749999999999956
 21
2.30000000000029
 31
0.0
  0
LINE
  5
1E2
330
2F
100
AcDbEntity
  8
A-DETL-GENF
100
AcDbLine
 10
3.449999999999757
 20
2.600000000000239
 30
0.0
 11
3.44999999999976
 21
3.787895438320163
 31
0.0
  0
LINE
  5
1E3
330
2F
100
AcDbEntity
  8
A-DETL-GENF
100
AcDbLine
 10
3.631824210425603
 20
4.06363894732544
 30
0.0
 11
4.031824210424928
 21
4.235067518754688
 31
0.0
  0
LINE
  5
1E4
330
2F
100
AcDbEntity
  8
A-DETL-GENF
100
AcDbLine
 10
2.012831879667751
 20
4.599999999999782
 30
0.0
 11
0.2499999999999469
 21
4.599999999999789
 31
0.0
  0
LINE
  5
1E5
330
2F
100
AcDbEntity
  8
A-DETL-GENF
100
AcDbLine
 10
155.5000000000025
 20
61.99999999999922
 30
0.0
 11
174.8000000000025
 21
61.99999999999922
 31
0.0
  0
LINE
  5
1E6
330
2F
100
AcDbEntity
  8
A-DETL-GENF
100
AcDbLine
 10
174.8000000000025
 20
61.99999999999922
 30
0.0
 11
174.8000000000025
 21
43.09999999999918
 31
0.0
  0
LINE
  5
1E7
330
2F
100
AcDbEntity
  8
A-DETL-GENF
100
AcDbLine
 10
174.8000000000025
 20
43.09999999999918
 30
0.0
 11
172.5051950407663
 21
43.09999999999918
 31
0.0
  0
LINE
  5
1E8
330
2F
100
AcDbEntity
  8
A-DETL-GENF
100
AcDbLine
 10
172.5051950407663
 20
43.09999999999918
 30
0.0
 11
172.5051950407663
 21
44.67289678059791
 31
0.0
  0
LINE
  5
1E9
330
2F
100
AcDbEntity
  8
A-DETL-GENF
100
AcDbLine
 10
172.5051950407663
 20
44.67289678059791
 30
0.0
 11
173.6000000000025
 21
44.67289678059791
 31
0.0
  0
LINE
  5
1EA
330
2F
100
AcDbEntity
  8
A-DETL-GENF
100
AcDbLine
 10
173.6000000000025
 20
44.67289678059791
 30
0.0
 11
173.6000000000025
 21
48.29999999999936
 31
0.0
  0
LINE
  5
1EB
330
2F
100
AcDbEntity
  8
A-DETL-GENF
100
AcDbLine
 10
173.6000000000025
 20
48.29999999999936
 30
0.0
 11
151.9771085411607
 21
48.29999999999936
 31
0.0
  0
LINE
  5
1EC
330
2F
100
AcDbEntity
  8
A-DETL-GENF
100
AcDbLine
 10
151.9771085411607
 20
48.29999999999936
 30
0.0
 11
153.2313038554877
 21
46.19999999999929
 31
0.0
  0
LINE
  5
1ED
330
2F
100
AcDbEntity
  8
A-DETL-GENF
100
AcDbLine
 10
153.2313038554877
 20
46.19999999999929
 30
0.0
 11
152.1365203275848
 21
46.19999999999929
 31
0.0
  0
LINE
  5
1EE
330
2F
100
AcDbEntity
  8
A-DETL-GENF
100
AcDbLine
 10
152.1365203275848
 20
46.19999999999929
 30
0.0
 11
150.5033966551827
 21
48.28196821025358
 31
0.0
  0
LINE
  5
1EF
330
2F
100
AcDbEntity
  8
A-DETL-GENF
100
AcDbLine
 10
150.5033966551827
 20
48.28196821025358
 30
0.0
 11
150.5033966551827
 21
49.39999999999938
 31
0.0
  0
LINE
  5
1F0
330
2F
100
AcDbEntity
  8
A-DETL-GENF
100
AcDbLine
 10
150.5033966551827
 20
49.39999999999938
 30
0.0
 11
173.6015401670619
 21
49.39999999999938
 31
0.0
  0
LINE
  5
1F1
330
2F
100
AcDbEntity
  8
A-DETL-GENF
100
AcDbLine
 10
173.6015401670619
 20
49.39999999999938
 30
0.0
 11
173.297806194683
 21
60.49999999999929
 31
0.0
  0
LINE
  5
1F2
330
2F
100
AcDbEntity
  8
A-DETL-GENF
100
AcDbLine
 10
173.297806194683
 20
60.49999999999929
 30
0.0
 11
158.421575647902
 21
60.49999999999929
 31
0.0
  0
LINE
  5
1F3
330
2F
100
AcDbEntity
  8
A-DETL-GENF
100
AcDbLine
 10
158.421575647902
 20
60.49999999999929
 30
0.0
 11
156.5872410141594
 21
56.72337491745772
 31
0.0
  0
LINE
  5
1F4
330
2F
100
AcDbEntity
  8
A-DETL-GENF
100
AcDbLine
 10
156.5872410141594
 20
56.72337491745772
 30
0.0
 11
155.5075239849568
 21
56.09999999999948
 31
0.0
  0
LINE
  5
1F5
330
2F
100
AcDbEntity
  8
A-DETL-GENF
100
AcDbLine
 10
155.5075239849568
 20
56.09999999999948
 30
0.0
 11
152.101604505045
 21
56.09999999999948
 31
0.0
  0
LINE
  5
1F6
330
2F
100
AcDbEntity
  8
A-DETL-GENF
100
AcDbLine
 10
152.101604505045
 20
56.09999999999948
 30
0.0
 11
152.101604505045
 21
57.29999999999948
 31
0.0
  0
LINE
  5
1F7
330
2F
100
AcDbEntity
  8
A-DETL-GENF
100
AcDbLine
 10
152.101604505045
 20
57.29999999999948
 30
0.0
 11
155.0000000000026
 21
57.29999999999948
 31
0.0
  0
LINE
  5
1F8
330
2F
100
AcDbEntity
  8
A-DETL-GENF
100
AcDbLine
 10
155.0000000000026
 20
57.29999999999948
 30
0.0
 11
155.7886751345973
 21
57.79999999999937
 31
0.0
  0
LINE
  5
1F9
330
2F
100
AcDbEntity
  8
A-DETL-GENF
100
AcDbLine
 10
155.7886751345973
 20
57.79999999999937
 30
0.0
 11
156.7354263522924
 21
59.90834155722484
 31
0.0
  0
LINE
  5
1FA
330
2F
100
AcDbEntity
  8
A-DETL-GENF
100
AcDbLine
 10
156.7354263522924
 20
59.90834155722484
 30
0.0
 11
156.7354263522924
 21
60.79999999999949
 31
0.0
  0
LINE
  5
1FB
330
2F
100
AcDbEntity
  8
A-DETL-GENF
100
AcDbLine
 10
156.7354263522924
 20
60.79999999999949
 30
0.0
 11
155.5000000000025
 21
60.79999999999949
 31
0.0
  0
LINE
  5
1FC
330
2F
100
AcDbEntity
  8
A-DETL-GENF
100
AcDbLine
 10
155.5000000000025
 20
60.79999999999949
 30
0.0
 11
155.5000000000025
 21
61.99999999999922
 31
0.0
  0
ARC
  5
1FD
330
2F
100
AcDbEntity
  8
A-DETL-GENF
100
AcDbCircle
 10
180.2052201968923
 20
36.69995922680464
 30
0.0
 40
0.1999999999999602
100
AcDbArc
 50
269.9999999999997
 51
0.0
  0
ARC
  5
1FE
330
2F
100
AcDbEntity
  8
A-DETL-GENF
100
AcDbCircle
 10
175.6058226625091
 20
40.99995922680473
 30
0.0
 40
4.500000000000053
100
AcDbArc
 50
226.5706153805575
 51
269.9999999999997
  0
ARC
  5
1FF
330
2F
100
AcDbEntity
  8
A-DETL-GENF
100
AcDbCircle
 10
171.1373323354214
 20
36.2795149472135
 30
0.0
 40
1.999999999999516
100
AcDbArc
 50
46.57061538055816
 51
133.4293846194418
  0
ARC
  5
200
330
2F
100
AcDbEntity
  8
A-DETL-GENF
100
AcDbCircle
 10
166.6688420083336
 20
40.99995922680473
 30
0.0
 40
4.500000000000051
100
AcDbArc
 50
270.0000000000002
 51
313.4293846194416
  0
ARC
  5
201
330
2F
100
AcDbEntity
  8
A-DETL-GENF
100
AcDbCircle
 10
163.4542134284557
 20
36.69995922680462
 30
0.0
 40
0.1999999999999318
100
AcDbArc
 50
180.0
 51
269.9999999999997
  0
ARC
  5
202
330
2F
100
AcDbEntity
  8
A-DETL-GENF
100
AcDbCircle
 10
163.9599336665036
 20
36.90844167986769
 30
0.0
 40
0.7196538511970525
100
AcDbArc
 50
83.11669843690674
 51
168.7069592279433
  0
ARC
  5
203
330
2F
100
AcDbEntity
  8
A-DETL-GENF
100
AcDbCircle
 10
164.2840893663643
 20
40.6243345141546
 30
0.0
 40
3.000000000000384
100
AcDbArc
 50
270.3313473750423
 51
348.7650308846834
  0
ARC
  5
204
330
2F
100
AcDbEntity
  8
A-DETL-GENF
100
AcDbCircle
 10
169.065816191404
 20
41.59999999999844
 30
0.0
 40
1.500000000000738
100
AcDbArc
 50
90.0
 51
168.7650308846835
  0
ARC
  5
205
330
2F
100
AcDbEntity
  8
A-DETL-GENF
100
AcDbCircle
 10
170.1883812134693
 20
43.39999999999911
 30
0.0
 40
0.2999999999999261
100
AcDbArc
 50
269.9999999999997
 51
314.9999999999773
  0
ARC
  5
206
330
2F
100
AcDbEntity
  8
A-DETL-GENF
100
AcDbCircle
 10
171.3073115581424
 20
43.74753481748605
 30
0.0
 40
0.245459008249581
100
AcDbArc
 50
29.99999999998152
 51
134.9999999999741
  0
ARC
  5
207
330
2F
100
AcDbEntity
  8
A-DETL-GENF
100
AcDbCircle
 10
172.137802689062
 20
43.39999999999911
 30
0.0
 40
0.2999999999999367
100
AcDbArc
 50
209.9999999999798
 51
269.9999999999997
  0
ARC
  5
208
330
2F
100
AcDbEntity
  8
A-DETL-GENF
100
AcDbCircle
 10
174.5000000000028
 20
43.39999999999911
 30
0.0
 40
0.2999999999999261
100
AcDbArc
 50
269.9999999999997
 51
0.0
  0
ARC
  5
209
330
2F
100
AcDbEntity
  8
A-DETL-GENF
100
AcDbCircle
 10
175.100000000003
 20
45.53435140734157
 30
0.0
 40
0.2999999999999195
100
AcDbArc
 50
50.51279430734682
 51
180.0
  0
ARC
  5
20A
330
2F
100
AcDbEntity
  8
A-DETL-GENF
100
AcDbCircle
 10
168.7696219189489
 20
38.74915348946704
 30
0.0
 40
9.579137005808718
100
AcDbArc
 50
355.9772077760714
 51
47.09647759119699
  0
ARC
  5
20B
330
2F
100
AcDbEntity
  8
A-DETL-GENF
100
AcDbCircle
 10
178.0258971934749
 20
38.09819142084414
 30
0.0
 40
0.2999999999999119
100
AcDbArc
 50
249.9008813372917
 51
355.9772077760715
  0
ARC
  5
20C
330
2F
100
AcDbEntity
  8
A-DETL-GENF
100
AcDbCircle
 10
179.4693247100922
 20
42.04273049884512
 30
0.0
 40
4.500341835326384
100
AcDbArc
 50
207.7902845719445
 51
249.9008813372953
  0
ARC
  5
20D
330
2F
100
AcDbEntity
  8
A-DETL-GENF
100
AcDbCircle
 10
175.2185340119204
 20
39.86051335595216
 30
0.0
 40
0.2823026805160184
100
AcDbArc
 50
17.30917689633949
 51
209.9320215434727
  0
ARC
  5
20E
330
2F
100
AcDbEntity
  8
A-DETL-GENF
100
AcDbCircle
 10
180.5340295787414
 20
44.6566576334479
 30
0.0
 40
7.43567252461256
100
AcDbArc
 50
221.6027570370624
 51
265.2059629223757
  0
ARC
  5
20F
330
2F
100
AcDbEntity
  8
A-DETL-GENF
100
AcDbCircle
 10
179.9052201968915
 20
36.74705280468333
 30
0.0
 40
0.4999999999998864
100
AcDbArc
 50
359.9999999999476
 51
89.15434310829956
  0
LINE
  5
210
330
2F
100
AcDbEntity
  8
A-DETL-GENF
100
AcDbLine
 10
180.2052201968923
 20
36.49995922680469
 30
0.0
 11
175.6058226625091
 21
36.49995922680468
 31
0.0
  0
LINE
  5
211
330
2F
100
AcDbEntity
  8
A-DETL-GENF
100
AcDbLine
 10
166.6688420083337
 20
36.49995922680469
 30
0.0
 11
163.4542134284557
 21
36.49995922680468
 31
0.0
  0
LINE
  5
212
330
2F
100
AcDbEntity
  8
A-DETL-GENF
100
AcDbLine
 10
163.2542134284555
 20
36.69995922680462
 30
0.0
 11
163.2542134284555
 21
37.04936936044172
 31
0.0
  0
LINE
  5
213
330
2F
100
AcDbEntity
  8
A-DETL-GENF
100
AcDbLine
 10
164.0461823827681
 20
37.62290849119306
 30
0.0
 11
164.3014385776456
 21
37.62438468042997
 31
0.0
  0
LINE
  5
214
330
2F
100
AcDbEntity
  8
A-DETL-GENF
100
AcDbLine
 10
167.2265986453889
 20
40.0398354612406
 30
0.0
 11
167.5945615518922
 21
41.89224952645534
 31
0.0
  0
LINE
  5
215
330
2F
100
AcDbEntity
  8
A-DETL-GENF
100
AcDbLine
 10
169.065816191404
 20
43.09999999999918
 30
0.0
 11
170.1883812134693
 21
43.09999999999918
 31
0.0
  0
LINE
  5
216
330
2F
100
AcDbEntity
  8
A-DETL-GENF
100
AcDbLine
 10
170.4005132478251
 20
43.18786796564316
 30
0.0
 11
171.1337458289055
 21
43.9211005467231
 31
0.0
  0
LINE
  5
217
330
2F
100
AcDbEntity
  8
A-DETL-GENF
100
AcDbLine
 10
171.5198852948751
 20
43.87026432161124
 30
0.0
 11
171.8779950679263
 21
43.24999999999908
 31
0.0
  0
LINE
  5
218
330
2F
100
AcDbEntity
  8
A-DETL-GENF
100
AcDbLine
 10
172.137802689062
 20
43.09999999999918
 30
0.0
 11
174.5000000000028
 21
43.09999999999918
 31
0.0
  0
LINE
  5
219
330
2F
100
AcDbEntity
  8
A-DETL-GENF
100
AcDbLine
 10
174.8000000000025
 20
43.39999999999911
 30
0.0
 11
174.8000000000025
 21
45.53435140734157
 31
0.0
  0
LINE
  5
21A
330
2F
100
AcDbEntity
  8
A-DETL-GENF
100
AcDbLine
 10
174.2464466094098
 20
43.09999999999918
 30
0.0
 11
172.9464466094096
 21
43.09999999999918
 31
0.0
  0
ARC
  5
21B
330
2F
100
AcDbEntity
  8
A-DETL-GENF
100
AcDbCircle
 10
171.7760786157076
 20
2.800000000000446
 30
0.0
 40
0.1999999999999602
100
AcDbArc
 50
269.9999999999998
 51
359.9999999999994
  0
ARC
  5
21C
330
2F
100
AcDbEntity
  8
A-DETL-GENF
100
AcDbCircle
 10
175.7626349709901
 20
6.300000000001833
 30
0.0
 40
0.2999999999999261
100
AcDbArc
 50
90.0
 51
124.2304201379362
  0
ARC
  5
21D
330
2F
100
AcDbEntity
  8
A-DETL-GENF
100
AcDbCircle
 10
178.2339736974844
 20
8.892288851756827
 30
0.0
 40
2.489649446055458
100
AcDbArc
 50
247.0326785862655
 51
292.9673214137344
  0
ARC
  5
21E
330
2F
100
AcDbEntity
  8
A-DETL-GENF
100
AcDbCircle
 10
176.1588826616207
 20
6.611792091756117
 30
0.0
 40
3.429585539065651
100
AcDbArc
 50
288.1624671162872
 51
359.8029970639945
  0
ARC
  5
21F
330
2F
100
AcDbEntity
  8
A-DETL-GENF
100
AcDbCircle
 10
176.7500000000026
 20
3.500000000001386
 30
0.0
 40
0.499999999999902
100
AcDbArc
 50
342.9120898401713
 51
90.0
  0
ARC
  5
220
330
2F
100
AcDbEntity
  8
A-DETL-GENF
100
AcDbCircle
 10
174.8500000000025
 20
3.500000000001386
 30
0.0
 40
0.4999999999998858
100
AcDbArc
 50
89.99999999999991
 51
180.0000000000001
  0
ARC
  5
221
330
2F
100
AcDbEntity
  8
A-DETL-GENF
100
AcDbCircle
 10
174.580000000002
 20
2.830000000001322
 30
0.0
 40
0.230000000000814
100
AcDbArc
 50
180.0
 51
269.9999999999997
  0
ARC
  5
222
330
2F
100
AcDbEntity
  8
A-DETL-GENF
100
AcDbCircle
 10
174.6500000000022
 20
2.300000000001659
 30
0.0
 40
0.2999999999999261
100
AcDbArc
 50
0.0
 51
90.0
  0
ARC
  5
223
330
2F
100
AcDbEntity
  8
A-DETL-GENF
100
AcDbCircle
 10
171.4500000000024
 20
2.300000000001642
 30
0.0
 40
0.2999999999999261
100
AcDbArc
 50
89.99999999999996
 51
180.0
  0
ARC
  5
224
330
2F
100
AcDbEntity
  8
A-DETL-GENF
100
AcDbCircle
 10
171.0069784054356
 20
3.061057932155776
 30
0.0
 40
0.9698823135823811
100
AcDbArc
 50
2.30112049635599
 51
75.48886645750257
  0
ARC
  5
225
330
2F
100
AcDbEntity
  8
A-DETL-GENF
100
AcDbCircle
 10
170.4688589517557
 20
4.176098766211274
 30
0.0
 40
0.4930733343600088
100
AcDbArc
 50
151.9833658932641
 51
200.9249750959013
  0
ARC
  5
226
330
2F
100
AcDbEntity
  8
A-DETL-GENF
100
AcDbCircle
 10
170.2984116384281
 20
4.266790694299061
 30
0.0
 40
0.2999999999999325
100
AcDbArc
 50
96.58952837730828
 51
151.9833658932656
  0
ARC
  5
227
330
2F
100
AcDbEntity
  8
A-DETL-GENF
100
AcDbCircle
 10
168.8980171347132
 20
16.3894514588907
 30
0.0
 40
11.9032786077925
100
AcDbArc
 50
276.5895283773068
 51
304.2304201379359
  0
ARC
  5
228
330
2F
100
AcDbEntity
  8
A-DETL-GENF
100
AcDbCircle
 10
172.8500000000029
 20
2.600000000001574
 30
0.0
 40
0.2999999999999545
100
AcDbArc
 50
180.0
 51
269.9999999999997
  0
ARC
  5
229
330
2F
100
AcDbEntity
  8
A-DETL-GENF
100
AcDbCircle
 10
173.2500000000026
 20
2.600000000001591
 30
0.0
 40
0.2999999999999319
100
AcDbArc
 50
269.9999999999998
 51
359.9999999999995
  0
ARC
  5
22A
330
2F
100
AcDbEntity
  8
A-DETL-GENF
100
AcDbCircle
 10
173.2500000000026
 20
3.787895438321515
 30
0.0
 40
0.2999999999999261
100
AcDbArc
 50
0.0
 51
66.8014094862352
  0
ARC
  5
22B
330
2F
100
AcDbEntity
  8
A-DETL-GENF
100
AcDbCircle
 10
172.8500000000029
 20
3.959324009750031
 30
0.0
 40
0.2999999999999266
100
AcDbArc
 50
66.80140948623547
 51
180.0
  0
ARC
  5
22C
330
2F
100
AcDbEntity
  8
A-DETL-GENF
100
AcDbCircle
 10
168.8980171347132
 20
16.3894514588907
 30
0.0
 40
12.70327860779234
100
AcDbArc
 50
297.9225841373036
 51
303.6060289918989
  0
ARC
  5
22D
330
2F
100
AcDbEntity
  8
A-DETL-GENF
100
AcDbCircle
 10
174.9871681203348
 20
4.900000000001068
 30
0.0
 40
0.2999999999999466
100
AcDbArc
 50
117.9225841372992
 51
269.9999999999997
  0
ARC
  5
22E
330
2F
100
AcDbEntity
  8
A-DETL-GENF
100
AcDbCircle
 10
176.7500000000026
 20
3.500000000001386
 30
0.0
 40
1.100000000000837
100
AcDbArc
 50
58.51378119853233
 51
90.0
  0
ARC
  5
22F
330
2F
100
AcDbEntity
  8
A-DETL-GENF
100
AcDbCircle
 10
177.4812108529293
 20
4.693872140794274
 30
0.0
 40
0.2999999999999308
100
AcDbArc
 50
238.5137811985312
 51
304.5846916249681
  0
ARC
  5
230
330
2F
100
AcDbEntity
  8
A-DETL-GENF
100
AcDbCircle
 10
176.1588826616207
 20
6.611792091756117
 30
0.0
 40
2.629585539064715
100
AcDbArc
 50
304.5846916249695
 51
325.8964248311718
  0
ARC
  5
231
330
2F
100
AcDbEntity
  8
A-DETL-GENF
100
AcDbCircle
 10
178.0878385429526
 20
5.305615230951607
 30
0.0
 40
0.299999999999954
100
AcDbArc
 50
325.8964248311728
 51
87.66683565900613
  0
ARC
  5
232
330
2F
100
AcDbEntity
  8
A-DETL-GENF
100
AcDbCircle
 10
178.2339736974844
 20
8.892288851756827
 30
0.0
 40
3.28964944605634
100
AcDbArc
 50
245.9017196731689
 51
267.6668356590026
  0
ARC
  5
233
330
2F
100
AcDbEntity
  8
A-DETL-GENF
100
AcDbCircle
 10
176.4824966919085
 20
4.976497658525514
 30
0.0
 40
0.9999999999997687
100
AcDbArc
 50
65.90171967316985
 51
123.606028991901
  0
LINE
  5
234
330
2F
100
AcDbEntity
  8
A-DETL-GENF
100
AcDbLine
 10
171.9760786157083
 20
2.800000000000446
 30
0.0
 11
171.9760786157083
 21
3.100000000016481
 31
0.0
  0
LINE
  5
235
330
2F
100
AcDbEntity
  8
A-DETL-GENF
100
AcDbLine
 10
175.7626349709901
 20
6.600000000000682
 30
0.0
 11
177.2624974062869
 21
6.600000000000687
 31
0.0
  0
LINE
  5
236
330
2F
100
AcDbEntity
  8
A-DETL-GENF
100
AcDbLine
 10
179.2054499886819
 20
6.600000000000699
 30
0.0
 11
179.5884479279977
 21
6.6000000000007
 31
0.0
  0
LINE
  5
237
330
2F
100
AcDbEntity
  8
A-DETL-GENF
100
AcDbLine
 10
176.7500000000026
 20
4.000000000001273
 30
0.0
 11
174.8500000000025
 21
4.000000000001266
 31
0.0
  0
LINE
  5
238
330
2F
100
AcDbEntity
  8
A-DETL-GENF
100
AcDbLine
 10
174.3500000000023
 20
3.500000000001385
 30
0.0
 11
174.3500000000023
 21
2.830000000001322
 31
0.0
  0
LINE
  5
239
330
2F
100
AcDbEntity
  8
A-DETL-GENF
100
AcDbLine
 10
174.9500000000024
 20
2.30000000000166
 30
0.0
 11
174.9500000000024
 21
2.132180073765278
 31
0.0
  0
LINE
  5
23A
330
2F
100
AcDbEntity
  8
A-DETL-GENF
100
AcDbLine
 10
174.9500000000024
 20
2.132180073765277
 30
0.0
 11
174.1965971259272
 21
1.500000000001838
 31
0.0
  0
LINE
  5
23B
330
2F
100
AcDbEntity
  8
A-DETL-GENF
100
AcDbLine
 10
174.1965971259272
 20
1.500000000001841
 30
0.0
 11
171.9034028740783
 21
1.500000000001834
 31
0.0
  0
LINE
  5
23C
330
2F
100
AcDbEntity
  8
A-DETL-GENF
100
AcDbLine
 10
171.9034028740783
 20
1.500000000001828
 30
0.0
 11
171.1500000000025
 21
2.132180073765256
 31
0.0
  0
LINE
  5
23D
330
2F
100
AcDbEntity
  8
A-DETL-GENF
100
AcDbLine
 10
171.1500000000025
 20
2.132180073765256
 30
0.0
 11
171.1500000000025
 21
2.300000000001641
 31
0.0
  0
LINE
  5
23E
330
2F
100
AcDbEntity
  8
A-DETL-GENF
100
AcDbLine
 10
171.4500000000024
 20
2.600000000001574
 30
0.0
 11
171.7760786157076
 21
2.600000000001575
 31
0.0
  0
LINE
  5
23F
330
2F
100
AcDbEntity
  8
A-DETL-GENF
100
AcDbLine
 10
171.2500000000111
 20
4.000000000001256
 30
0.0
 11
170.0083043539107
 21
4.000000000001252
 31
0.0
  0
LINE
  5
240
330
2F
100
AcDbEntity
  8
A-DETL-GENF
100
AcDbLine
 10
172.5500000000027
 20
3.95932400975003
 30
0.0
 11
172.5500000000027
 21
2.600000000001573
 31
0.0
  0
LINE
  5
241
330
2F
100
AcDbEntity
  8
A-DETL-GENF
100
AcDbLine
 10
172.8500000000029
 20
2.300000000001642
 30
0.0
 11
173.2500000000026
 21
2.300000000001644
 31
0.0
  0
LINE
  5
242
330
2F
100
AcDbEntity
  8
A-DETL-GENF
100
AcDbLine
 10
173.5500000000028
 20
2.600000000001592
 30
0.0
 11
173.5500000000028
 21
3.787895438321517
 31
0.0
  0
LINE
  5
243
330
2F
100
AcDbEntity
  8
A-DETL-GENF
100
AcDbLine
 10
173.3681757895769
 20
4.063638947326789
 30
0.0
 11
172.9681757895776
 21
4.235067518756036
 31
0.0
  0
LINE
  5
244
330
2F
100
AcDbEntity
  8
A-DETL-GENF
100
AcDbLine
 10
174.9871681203348
 20
4.600000000001136
 30
0.0
 11
176.7500000000026
 21
4.600000000001142
 31
0.0
  0
ARC
  5
245
330
2F
100
AcDbEntity
  8
A-DETL-GENF
100
AcDbCircle
 10
98.11324452449603
 20
56.35519742737084
 30
0.0
 40
0.2251000198983799
100
AcDbArc
 50
11.20947281445208
 51
152.7722118804468
  0
ARC
  5
246
330
2F
100
AcDbEntity
  8
A-DETL-GENF
100
AcDbCircle
 10
97.34070113056562
 20
55.72943602870634
 30
0.0
 40
1.197914738596028
100
AcDbArc
 50
342.9526771680984
 51
33.98007756830239
  0
ARC
  5
247
330
2F
100
AcDbEntity
  8
A-DETL-GENF
100
AcDbCircle
 10
98.08838508202626
 20
55.31791877306495
 30
0.0
 40
0.402149745612723
100
AcDbArc
 50
287.5822726303224
 51
8.628708647215849
  0
ARC
  5
248
330
2F
100
AcDbEntity
  8
A-DETL-GENF
100
AcDbCircle
 10
96.21523532420576
 20
58.7628178511701
 30
0.0
 40
3.93132940410366
100
AcDbArc
 50
223.3081499206444
 51
257.7948534169776
  0
ARC
  5
249
330
2F
100
AcDbEntity
  8
A-DETL-GENF
100
AcDbCircle
 10
93.17966555754506
 20
55.60067397026824
 30
0.0
 40
0.5892526670790565
100
AcDbArc
 50
130.0642472197517
 51
159.5458920112732
  0
ARC
  5
24A
330
2F
100
AcDbEntity
  8
A-DETL-GENF
100
AcDbCircle
 10
92.83856765655739
 20
55.69751222336901
 30
0.0
 40
0.2375312582547328
100
AcDbArc
 50
152.6629070151409
 51
227.3944402847812
  0
ARC
  5
24B
330
2F
100
AcDbEntity
  8
A-DETL-GENF
100
AcDbCircle
 10
98.76906932570812
 20
63.99741672254613
 30
0.0
 40
10.43671605612707
100
AcDbArc
 50
234.2929427022614
 51
249.9044171455239
  0
ARC
  5
24C
330
2F
100
AcDbEntity
  8
A-DETL-GENF
100
AcDbCircle
 10
100.8924809330495
 20
54.8463150377546
 30
0.0
 40
0.6127008209900663
100
AcDbArc
 50
280.436204582475
 51
40.33621755757798
  0
ARC
  5
24D
330
2F
100
AcDbEntity
  8
A-DETL-GENF
100
AcDbCircle
 10
99.71867371886563
 20
57.3395483516931
 30
0.0
 40
0.5094027852959487
100
AcDbArc
 50
13.99238825146941
 51
98.1945731067319
  0
ARC
  5
24E
330
2F
100
AcDbEntity
  8
A-DETL-GENF
100
AcDbCircle
 10
97.90199696583677
 20
58.54375000000526
 30
0.0
 40
0.699999999999848
100
AcDbArc
 50
180.0000000000003
 51
269.9999999999999
  0
ARC
  5
24F
330
2F
100
AcDbEntity
  8
A-DETL-GENF
100
AcDbCircle
 10
97.60199696583712
 20
58.75521205332201
 30
0.0
 40
0.4000000000009787
100
AcDbArc
 50
100.0000000000152
 51
180.0
  0
ARC
  5
250
330
2F
100
AcDbEntity
  8
A-DETL-GENF
100
AcDbCircle
 10
94.30199696583676
 20
58.75521205332201
 30
0.0
 40
0.4000000000009863
100
AcDbArc
 50
0.0
 51
79.99999999997665
  0
ARC
  5
251
330
2F
100
AcDbEntity
  8
A-DETL-GENF
100
AcDbCircle
 10
94.0019969658371
 20
58.54375000000526
 30
0.0
 40
0.6999999999998466
100
AcDbArc
 50
269.9999999999997
 51
0.0
  0
ARC
  5
252
330
2F
100
AcDbEntity
  8
A-DETL-GENF
100
AcDbCircle
 10
91.9019969658373
 20
57.64375000000436
 30
0.0
 40
0.199999999999946
100
AcDbArc
 50
90.0
 51
180.0
  0
ARC
  5
253
330
2F
100
AcDbEntity
  8
A-DETL-GENF
100
AcDbCircle
 10
92.20199696583695
 20
57.33242513460015
 30
0.0
 40
0.49999999999989
100
AcDbArc
 50
180.0000000000004
 51
239.9999999999833
  0
ARC
  5
254
330
2F
100
AcDbEntity
  8
A-DETL-GENF
100
AcDbCircle
 10
95.11143662379553
 20
58.31701717496973
 30
0.0
 40
2.843238572842579
100
AcDbArc
 50
230.8934437691077
 51
268.8197868210606
  0
ARC
  5
255
330
2F
100
AcDbEntity
  8
A-DETL-GENF
100
AcDbCircle
 10
94.77949151133657
 20
60.91882930170199
 30
0.0
 40
5.451306892558546
100
AcDbArc
 50
272.8745834905201
 51
305.0879918808095
  0
ARC
  5
256
330
2F
100
AcDbEntity
  8
A-DETL-GENF
100
AcDbCircle
 10
95.6339939286348
 20
59.44375000000504
 30
0.0
 40
0.1999999999999602
100
AcDbArc
 50
90.0
 51
175.0000000000266
  0
ARC
  5
257
330
2F
100
AcDbEntity
  8
A-DETL-GENF
100
AcDbCircle
 10
96.27000000303936
 20
59.44375000000505
 30
0.0
 40
0.199999999999954
100
AcDbArc
 50
4.999999999973158
 51
90.0
  0
ARC
  5
258
330
2F
100
AcDbEntity
  8
A-DETL-GENF
100
AcDbCircle
 10
96.38373526562344
 20
58.14375000000535
 30
0.0
 40
0.199999999999946
100
AcDbArc
 50
269.9999999999997
 51
4.999999999971132
  0
ARC
  5
259
330
2F
100
AcDbEntity
  8
A-DETL-GENF
100
AcDbCircle
 10
95.52025866605096
 20
58.14375000000533
 30
0.0
 40
0.1999999999999398
100
AcDbArc
 50
175.0000000000266
 51
269.9999999999997
  0
ARC
  5
25A
330
2F
100
AcDbEntity
  8
A-DETL-GENF
100
AcDbCircle
 10
99.91461130465188
 20
55.36210202440305
 30
0.0
 40
0.4781859563440303
100
AcDbArc
 50
250.0082995588227
 51
48.22109891049086
  0
ARC
  5
25B
330
2F
100
AcDbEntity
  8
A-DETL-GENF
100
AcDbCircle
 10
88.83213437524473
 20
49.78322489558013
 30
0.0
 40
12.85356980346539
100
AcDbArc
 50
27.50177194835132
 51
33.32124839798112
  0
ARC
  5
25C
330
2F
100
AcDbEntity
  8
A-DETL-GENF
100
AcDbCircle
 10
99.11934432054801
 20
56.83712301530988
 30
0.0
 40
0.4533343651942953
100
AcDbArc
 50
0.8833114367434058
 51
137.4384751269373
  0
ARC
  5
25D
330
2F
100
AcDbEntity
  8
A-DETL-GENF
100
AcDbCircle
 10
95.40219054259641
 20
59.23800802268717
 30
0.0
 40
3.124075967187045
100
AcDbArc
 50
227.2548289059783
 51
316.9632401722635
  0
ARC
  5
25E
330
2F
100
AcDbEntity
  8
A-DETL-GENF
100
AcDbCircle
 10
98.09187110229784
 20
54.21070928341529
 30
0.0
 40
2.923580772687747
100
AcDbArc
 50
83.61311133320471
 51
97.98732770343518
  0
ARC
  5
25F
330
2F
100
AcDbEntity
  8
A-DETL-GENF
100
AcDbCircle
 10
97.55123288151688
 20
55.76328407012415
 30
0.0
 40
1.606221700251002
100
AcDbArc
 50
341.9306313475127
 51
57.37982335823529
  0
ARC
  5
260
330
2F
100
AcDbEntity
  8
A-DETL-GENF
100
AcDbCircle
 10
99.28179719460933
 20
55.14571976894485
 30
0.0
 40
0.2359751222468602
100
AcDbArc
 50
149.612950746116
 51
281.2826292807589
  0
ARC
  5
261
330
2F
100
AcDbEntity
  8
A-DETL-GENF
100
AcDbCircle
 10
98.11324452449603
 20
56.35519742737084
 30
0.0
 40
0.2251000198983799
100
AcDbArc
 50
11.20947281445208
 51
152.7722118804468
  0
ARC
  5
262
330
2F
100
AcDbEntity
  8
A-DETL-GENF
100
AcDbCircle
 10
97.34070113056562
 20
55.72943602870634
 30
0.0
 40
1.197914738596028
100
AcDbArc
 50
342.9526771680984
 51
33.98007756830239
  0
ARC
  5
263
330
2F
100
AcDbEntity
  8
A-DETL-GENF
100
AcDbCircle
 10
98.08838508202626
 20
55.31791877306495
 30
0.0
 40
0.402149745612723
100
AcDbArc
 50
287.5822726303224
 51
8.628708647215849
  0
ARC
  5
264
330
2F
100
AcDbEntity
  8
A-DETL-GENF
100
AcDbCircle
 10
96.21523532420576
 20
58.7628178511701
 30
0.0
 40
3.93132940410366
100
AcDbArc
 50
223.3081499206444
 51
257.7948534169776
  0
ARC
  5
265
330
2F
100
AcDbEntity
  8
A-DETL-GENF
100
AcDbCircle
 10
93.07607917472804
 20
55.79069660211151
 30
0.0
 40
0.3917153973290257
100
AcDbArc
 50
44.70121633786861
 51
136.3709669436754
  0
ARC
  5
266
330
2F
100
AcDbEntity
  8
A-DETL-GENF
100
AcDbCircle
 10
93.17966555754506
 20
55.60067397026824
 30
0.0
 40
0.5892526670790604
100
AcDbArc
 50
130.0642472197586
 51
159.5458920112732
  0
ARC
  5
267
330
2F
100
AcDbEntity
  8
A-DETL-GENF
100
AcDbCircle
 10
92.83856765655739
 20
55.69751222336901
 30
0.0
 40
0.2375312582547328
100
AcDbArc
 50
152.6629070151409
 51
227.3944402847812
  0
ARC
  5
268
330
2F
100
AcDbEntity
  8
A-DETL-GENF
100
AcDbCircle
 10
98.76906932570812
 20
63.99741672254613
 30
0.0
 40
10.43671605612707
100
AcDbArc
 50
234.2929427022614
 51
249.9044171455239
  0
ARC
  5
269
330
2F
100
AcDbEntity
  8
A-DETL-GENF
100
AcDbCircle
 10
100.8924809330495
 20
54.8463150377546
 30
0.0
 40
0.6127008209900663
100
AcDbArc
 50
280.436204582475
 51
40.33621755757798
  0
ARC
  5
26A
330
2F
100
AcDbEntity
  8
A-DETL-GENF
100
AcDbCircle
 10
99.71867371886563
 20
57.3395483516931
 30
0.0
 40
0.5094027852959487
100
AcDbArc
 50
13.99238825146941
 51
98.1945731067319
  0
ARC
  5
26B
330
2F
100
AcDbEntity
  8
A-DETL-GENF
100
AcDbCircle
 10
97.90199696583677
 20
58.54375000000526
 30
0.0
 40
0.699999999999848
100
AcDbArc
 50
180.0000000000003
 51
269.9999999999999
  0
ARC
  5
26C
330
2F
100
AcDbEntity
  8
A-DETL-GENF
100
AcDbCircle
 10
97.60199696583712
 20
58.75521205332201
 30
0.0
 40
0.4000000000009787
100
AcDbArc
 50
100.0000000000152
 51
180.0
  0
ARC
  5
26D
330
2F
100
AcDbEntity
  8
A-DETL-GENF
100
AcDbCircle
 10
94.30199696583676
 20
58.75521205332201
 30
0.0
 40
0.4000000000009863
100
AcDbArc
 50
0.0
 51
79.99999999997665
  0
ARC
  5
26E
330
2F
100
AcDbEntity
  8
A-DETL-GENF
100
AcDbCircle
 10
94.0019969658371
 20
58.54375000000526
 30
0.0
 40
0.6999999999998466
100
AcDbArc
 50
269.9999999999997
 51
0.0
  0
ARC
  5
26F
330
2F
100
AcDbEntity
  8
A-DETL-GENF
100
AcDbCircle
 10
91.9019969658373
 20
57.64375000000436
 30
0.0
 40
0.199999999999946
100
AcDbArc
 50
90.0
 51
180.0
  0
ARC
  5
270
330
2F
100
AcDbEntity
  8
A-DETL-GENF
100
AcDbCircle
 10
92.20199696583695
 20
57.33242513460015
 30
0.0
 40
0.49999999999989
100
AcDbArc
 50
180.0000000000004
 51
239.9999999999833
  0
ARC
  5
271
330
2F
100
AcDbEntity
  8
A-DETL-GENF
100
AcDbCircle
 10
95.11143662379553
 20
58.31701717496973
 30
0.0
 40
2.843238572842579
100
AcDbArc
 50
230.8934437691077
 51
268.8197868210606
  0
ARC
  5
272
330
2F
100
AcDbEntity
  8
A-DETL-GENF
100
AcDbCircle
 10
94.77949151133657
 20
60.91882930170199
 30
0.0
 40
5.451306892558546
100
AcDbArc
 50
272.8745834905201
 51
305.0879918808095
  0
ARC
  5
273
330
2F
100
AcDbEntity
  8
A-DETL-GENF
100
AcDbCircle
 10
95.6339939286348
 20
59.44375000000504
 30
0.0
 40
0.1999999999999602
100
AcDbArc
 50
90.0
 51
175.0000000000266
  0
ARC
  5
274
330
2F
100
AcDbEntity
  8
A-DETL-GENF
100
AcDbCircle
 10
96.27000000303936
 20
59.44375000000505
 30
0.0
 40
0.199999999999954
100
AcDbArc
 50
4.999999999973158
 51
90.0
  0
ARC
  5
275
330
2F
100
AcDbEntity
  8
A-DETL-GENF
100
AcDbCircle
 10
96.38373526562344
 20
58.14375000000535
 30
0.0
 40
0.199999999999946
100
AcDbArc
 50
269.9999999999997
 51
4.999999999971132
  0
ARC
  5
276
330
2F
100
AcDbEntity
  8
A-DETL-GENF
100
AcDbCircle
 10
95.52025866605096
 20
58.14375000000533
 30
0.0
 40
0.1999999999999398
100
AcDbArc
 50
175.0000000000266
 51
269.9999999999997
  0
ARC
  5
277
330
2F
100
AcDbEntity
  8
A-DETL-GENF
100
AcDbCircle
 10
99.91461130465188
 20
55.36210202440305
 30
0.0
 40
0.4781859563440303
100
AcDbArc
 50
250.0082995588227
 51
48.22109891049086
  0
ARC
  5
278
330
2F
100
AcDbEntity
  8
A-DETL-GENF
100
AcDbCircle
 10
88.83213437524473
 20
49.78322489558013
 30
0.0
 40
12.85356980346539
100
AcDbArc
 50
27.50177194835132
 51
33.32124839798112
  0
ARC
  5
279
330
2F
100
AcDbEntity
  8
A-DETL-GENF
100
AcDbCircle
 10
99.11934432054801
 20
56.83712301530988
 30
0.0
 40
0.4533343651942953
100
AcDbArc
 50
0.8833114367434058
 51
137.4384751269373
  0
ARC
  5
27A
330
2F
100
AcDbEntity
  8
A-DETL-GENF
100
AcDbCircle
 10
95.40219054259641
 20
59.23800802268717
 30
0.0
 40
3.124075967187045
100
AcDbArc
 50
227.2548289059783
 51
316.9632401722635
  0
ARC
  5
27B
330
2F
100
AcDbEntity
  8
A-DETL-GENF
100
AcDbCircle
 10
98.09187110229784
 20
54.21070928341529
 30
0.0
 40
2.923580772687747
100
AcDbArc
 50
83.61311133320471
 51
97.98732770343518
  0
ARC
  5
27C
330
2F
100
AcDbEntity
  8
A-DETL-GENF
100
AcDbCircle
 10
97.55123288151688
 20
55.76328407012415
 30
0.0
 40
1.606221700251002
100
AcDbArc
 50
341.9306313475127
 51
57.37982335823529
  0
ARC
  5
27D
330
2F
100
AcDbEntity
  8
A-DETL-GENF
100
AcDbCircle
 10
99.28179719460933
 20
55.14571976894485
 30
0.0
 40
0.2359751222468602
100
AcDbArc
 50
149.612950746116
 51
281.2826292807589
  0
LINE
  5
27E
330
2F
100
AcDbEntity
  8
A-DETL-GENF
100
AcDbLine
 10
97.20199696583693
 20
58.75521205332201
 30
0.0
 11
97.20199696583693
 21
58.54375000000526
 31
0.0
  0
LINE
  5
27F
330
2F
100
AcDbEntity
  8
A-DETL-GENF
100
AcDbLine
 10
97.90199696583677
 20
57.84375000000543
 30
0.0
 11
99.64606589899482
 21
57.84375000000544
 31
0.0
  0
LINE
  5
280
330
2F
100
AcDbEntity
  8
A-DETL-GENF
100
AcDbLine
 10
95.3841027856337
 20
54.92034864675259
 30
0.0
 11
98.20986444960523
 21
54.93455578430756
 31
0.0
  0
LINE
  5
281
330
2F
100
AcDbEntity
  8
A-DETL-GENF
100
AcDbLine
 10
98.20986444960523
 20
54.93455578430756
 30
0.0
 11
95.38410278563371
 21
54.92034864675259
 31
0.0
  0
LINE
  5
282
330
2F
100
AcDbEntity
  8
A-DETL-GENF
100
AcDbLine
 10
101.0034659380003
 20
54.24375000000516
 30
0.0
 11
95.18314628434749
 21
54.19608018217267
 31
0.0
  0
LINE
  5
283
330
2F
100
AcDbEntity
  8
A-DETL-GENF
100
AcDbLine
 10
95.18314628434752
 20
54.19608018217267
 30
0.0
 11
101.0034659380003
 21
54.24375000000516
 31
0.0
  0
LINE
  5
284
330
2F
100
AcDbEntity
  8
A-DETL-GENF
100
AcDbLine
 10
100.2129614318992
 20
57.46271837406563
 30
0.0
 11
101.3595178512193
 21
55.24289896721761
 31
0.0
  0
LINE
  5
285
330
2F
100
AcDbEntity
  8
A-DETL-GENF
100
AcDbLine
 10
101.3595178512193
 20
55.24289896721768
 30
0.0
 11
100.2129614318993
 21
57.46271837406555
 31
0.0
  0
LINE
  5
286
330
2F
100
AcDbEntity
  8
A-DETL-GENF
100
AcDbLine
 10
94.37145623690326
 20
59.14913515452667
 30
0.0
 11
93.75199696583717
 21
59.25836253746521
 31
0.0
  0
LINE
  5
287
330
2F
100
AcDbEntity
  8
A-DETL-GENF
100
AcDbLine
 10
93.75199696583717
 20
59.25836253746521
 30
0.0
 11
93.75199696583717
 21
59.6583625374662
 31
0.0
  0
LINE
  5
288
330
2F
100
AcDbEntity
  8
A-DETL-GENF
100
AcDbLine
 10
93.75199696583717
 20
59.6583625374662
 30
0.0
 11
95.11232795458298
 21
60.44375000000481
 31
0.0
  0
LINE
  5
289
330
2F
100
AcDbEntity
  8
A-DETL-GENF
100
AcDbLine
 10
95.11232795458298
 20
60.44375000000481
 30
0.0
 11
96.79166597709111
 21
60.44375000000482
 31
0.0
  0
LINE
  5
28A
330
2F
100
AcDbEntity
  8
A-DETL-GENF
100
AcDbLine
 10
96.79166597709111
 20
60.44375000000482
 30
0.0
 11
98.15199696583726
 21
59.65836253746621
 31
0.0
  0
LINE
  5
28B
330
2F
100
AcDbEntity
  8
A-DETL-GENF
100
AcDbLine
 10
98.15199696583726
 20
59.65836253746621
 30
0.0
 11
98.15199696583726
 21
59.25836253746521
 31
0.0
  0
LINE
  5
28C
330
2F
100
AcDbEntity
  8
A-DETL-GENF
100
AcDbLine
 10
98.15199696583726
 20
59.25836253746521
 30
0.0
 11
97.53253769477065
 21
59.14913515452659
 31
0.0
  0
LINE
  5
28D
330
2F
100
AcDbEntity
  8
A-DETL-GENF
100
AcDbLine
 10
97.53253769477065
 20
59.14913515452661
 30
0.0
 11
98.15199696583726
 21
59.25836253746521
 31
0.0
  0
LINE
  5
28E
330
2F
100
AcDbEntity
  8
A-DETL-GENF
100
AcDbLine
 10
98.15199696583726
 20
59.25836253746521
 30
0.0
 11
98.15199696583726
 21
59.65836253746621
 31
0.0
  0
LINE
  5
28F
330
2F
100
AcDbEntity
  8
A-DETL-GENF
100
AcDbLine
 10
98.15199696583726
 20
59.6583625374662
 30
0.0
 11
96.79166597709111
 21
60.44375000000482
 31
0.0
  0
LINE
  5
290
330
2F
100
AcDbEntity
  8
A-DETL-GENF
100
AcDbLine
 10
96.79166597709111
 20
60.44375000000482
 30
0.0
 11
95.11232795458298
 21
60.44375000000481
 31
0.0
  0
LINE
  5
291
330
2F
100
AcDbEntity
  8
A-DETL-GENF
100
AcDbLine
 10
95.11232795458301
 20
60.44375000000481
 30
0.0
 11
93.75199696583717
 21
59.65836253746619
 31
0.0
  0
LINE
  5
292
330
2F
100
AcDbEntity
  8
A-DETL-GENF
100
AcDbLine
 10
93.75199696583717
 20
59.6583625374662
 30
0.0
 11
93.75199696583717
 21
59.25836253746521
 31
0.0
  0
LINE
  5
293
330
2F
100
AcDbEntity
  8
A-DETL-GENF
100
AcDbLine
 10
93.75199696583717
 20
59.25836253746521
 30
0.0
 11
94.37145623690326
 21
59.1491351545267
 31
0.0
  0
LINE
  5
294
330
2F
100
AcDbEntity
  8
A-DETL-GENF
100
AcDbLine
 10
94.7019969658375
 20
58.54375000000526
 30
0.0
 11
94.7019969658375
 21
58.75521205332201
 31
0.0
  0
LINE
  5
295
330
2F
100
AcDbEntity
  8
A-DETL-GENF
100
AcDbLine
 10
94.7019969658375
 20
58.75521205332201
 30
0.0
 11
94.7019969658375
 21
58.54375000000526
 31
0.0
  0
LINE
  5
296
330
2F
100
AcDbEntity
  8
A-DETL-GENF
100
AcDbLine
 10
91.9019969658373
 20
57.84375000000539
 30
0.0
 11
94.0019969658371
 21
57.8437500000054
 31
0.0
  0
LINE
  5
297
330
2F
100
AcDbEntity
  8
A-DETL-GENF
100
AcDbLine
 10
94.0019969658371
 20
57.84375000000542
 30
0.0
 11
91.9019969658373
 21
57.84375000000541
 31
0.0
  0
LINE
  5
298
330
2F
100
AcDbEntity
  8
A-DETL-GENF
100
AcDbLine
 10
91.70199696583708
 20
57.33242513460015
 30
0.0
 11
91.70199696583708
 21
57.64375000000436
 31
0.0
  0
LINE
  5
299
330
2F
100
AcDbEntity
  8
A-DETL-GENF
100
AcDbLine
 10
91.70199696583708
 20
57.64375000000436
 30
0.0
 11
91.70199696583708
 21
57.33242513460015
 31
0.0
  0
LINE
  5
29A
330
2F
100
AcDbEntity
  8
A-DETL-GENF
100
AcDbLine
 10
93.31802236961875
 20
56.11073729811468
 30
0.0
 11
91.95199696583694
 21
56.8994124327078
 31
0.0
  0
LINE
  5
29B
330
2F
100
AcDbEntity
  8
A-DETL-GENF
100
AcDbLine
 10
91.95199696583695
 20
56.8994124327078
 30
0.0
 11
93.31802236961877
 21
56.11073729811467
 31
0.0
  0
LINE
  5
29C
330
2F
100
AcDbEntity
  8
A-DETL-GENF
100
AcDbLine
 10
96.27000000303936
 20
59.64375000000609
 30
0.0
 11
95.6339939286348
 21
59.64375000000609
 31
0.0
  0
LINE
  5
29D
330
2F
100
AcDbEntity
  8
A-DETL-GENF
100
AcDbLine
 10
95.6339939286348
 20
59.64375000000607
 30
0.0
 11
96.27000000303936
 21
59.64375000000607
 31
0.0
  0
LINE
  5
29E
330
2F
100
AcDbEntity
  8
A-DETL-GENF
100
AcDbLine
 10
96.5829742052416
 20
58.16118114855484
 30
0.0
 11
96.46923894265802
 21
59.4611811485546
 31
0.0
  0
LINE
  5
29F
330
2F
100
AcDbEntity
  8
A-DETL-GENF
100
AcDbLine
 10
96.46923894265802
 20
59.4611811485546
 30
0.0
 11
96.5829742052416
 21
58.16118114855484
 31
0.0
  0
LINE
  5
2A0
330
2F
100
AcDbEntity
  8
A-DETL-GENF
100
AcDbLine
 10
95.52025866605096
 20
57.9437500000043
 30
0.0
 11
96.38373526562344
 21
57.9437500000043
 31
0.0
  0
LINE
  5
2A1
330
2F
100
AcDbEntity
  8
A-DETL-GENF
100
AcDbLine
 10
96.38373526562344
 20
57.94375000000432
 30
0.0
 11
95.52025866605096
 21
57.94375000000432
 31
0.0
  0
LINE
  5
2A2
330
2F
100
AcDbEntity
  8
A-DETL-GENF
100
AcDbLine
 10
95.43475498901611
 20
59.46118114855462
 30
0.0
 11
95.3210197264323
 21
58.16118114855491
 31
0.0
  0
LINE
  5
2A3
330
2F
100
AcDbEntity
  8
A-DETL-GENF
100
AcDbLine
 10
95.3210197264323
 20
58.16118114855491
 30
0.0
 11
95.43475498901611
 21
59.46118114855462
 31
0.0
  0
LINE
  5
2A4
330
2F
100
AcDbEntity
  8
A-DETL-GENF
100
AcDbLine
 10
99.75112716715167
 20
54.91273052371519
 30
0.0
 11
99.32796545263757
 21
54.91430509726205
 31
0.0
  0
LINE
  5
2A5
330
2F
100
AcDbEntity
  8
A-DETL-GENF
100
AcDbLine
 10
99.32796545263761
 20
54.91430509726206
 30
0.0
 11
99.75112716715162
 21
54.9127305237152
 31
0.0
  0
LINE
  5
2A6
330
2F
100
AcDbEntity
  8
A-DETL-GENF
100
AcDbLine
 10
93.25175880021114
 20
56.97375000000538
 30
0.0
 11
93.2817588002109
 21
57.14375000000558
 31
0.0
  0
LINE
  5
2A7
330
2F
100
AcDbEntity
  8
A-DETL-GENF
100
AcDbLine
 10
93.2817588002109
 20
57.14375000000556
 30
0.0
 11
98.78544023413617
 21
57.14375000000558
 31
0.0
  0
LINE
  5
2A8
330
2F
100
AcDbEntity
  8
A-DETL-GENF
100
AcDbLine
 10
98.78544023413617
 20
57.14375000000559
 30
0.0
 11
93.2817588002109
 21
57.14375000000558
 31
0.0
  0
LINE
  5
2A9
330
2F
100
AcDbEntity
  8
A-DETL-GENF
100
AcDbLine
 10
93.2817588002109
 20
57.14375000000558
 30
0.0
 11
93.25175880021114
 21
56.97375000000538
 31
0.0
  0
ARC
  5
2AA
330
2F
100
AcDbEntity
  8
A-DETL-GENF
100
AcDbCircle
 10
84.73914346166082
 20
5.644802572637891
 30
0.0
 40
0.2251000198983799
100
AcDbArc
 50
191.2094728144518
 51
332.7722118804495
  0
ARC
  5
2AB
330
2F
100
AcDbEntity
  8
A-DETL-GENF
100
AcDbCircle
 10
85.51168685559121
 20
6.270563971302399
 30
0.0
 40
1.19791473859602
100
AcDbArc
 50
162.952677168099
 51
213.980077568302
  0
ARC
  5
2AC
330
2F
100
AcDbEntity
  8
A-DETL-GENF
100
AcDbCircle
 10
84.76400290413055
 20
6.682081226943804
 30
0.0
 40
0.402149745612723
100
AcDbArc
 50
107.5822726303228
 51
188.6287086472164
  0
ARC
  5
2AD
330
2F
100
AcDbEntity
  8
A-DETL-GENF
100
AcDbCircle
 10
86.63715266195108
 20
3.237182148838657
 30
0.0
 40
3.93132940410366
100
AcDbArc
 50
43.30814992064502
 51
77.79485341697831
  0
ARC
  5
2AE
330
2F
100
AcDbEntity
  8
A-DETL-GENF
100
AcDbCircle
 10
89.67272242861175
 20
6.399326029740523
 30
0.0
 40
0.5892526670790673
100
AcDbArc
 50
310.064247219751
 51
339.5458920112731
  0
ARC
  5
2AF
330
2F
100
AcDbEntity
  8
A-DETL-GENF
100
AcDbCircle
 10
90.01382032959943
 20
6.302487776639766
 30
0.0
 40
0.2375312582547519
100
AcDbArc
 50
332.6629070151389
 51
47.3944402847843
  0
ARC
  5
2B0
330
2F
100
AcDbEntity
  8
A-DETL-GENF
100
AcDbCircle
 10
84.08331866044878
 20
-1.997416722537389
 30
0.0
 40
10.43671605612707
100
AcDbArc
 50
54.2929427022622
 51
69.90441714552468
  0
ARC
  5
2B1
330
2F
100
AcDbEntity
  8
A-DETL-GENF
100
AcDbCircle
 10
81.95990705310732
 20
7.153684962254123
 30
0.0
 40
0.6127008209900663
100
AcDbArc
 50
100.4362045824753
 51
220.3362175575791
  0
ARC
  5
2B2
330
2F
100
AcDbEntity
  8
A-DETL-GENF
100
AcDbCircle
 10
83.1337142672912
 20
4.660451648315627
 30
0.0
 40
0.5094027852959487
100
AcDbArc
 50
193.9923882514696
 51
278.1945731067317
  0
ARC
  5
2B3
330
2F
100
AcDbEntity
  8
A-DETL-GENF
100
AcDbCircle
 10
84.95039102032007
 20
3.456250000003477
 30
0.0
 40
0.6999999999998322
100
AcDbArc
 50
1.0687e-12
 51
89.99999999999991
  0
ARC
  5
2B4
330
2F
100
AcDbEntity
  8
A-DETL-GENF
100
AcDbCircle
 10
85.25039102031973
 20
3.244787946686726
 30
0.0
 40
0.4000000000009836
100
AcDbArc
 50
280.0000000000188
 51
9.542e-13
  0
ARC
  5
2B5
330
2F
100
AcDbEntity
  8
A-DETL-GENF
100
AcDbCircle
 10
88.55039102032006
 20
3.24478794668676
 30
0.0
 40
0.4000000000010009
100
AcDbArc
 50
180.0000000000003
 51
259.9999999999751
  0
ARC
  5
2B6
330
2F
100
AcDbEntity
  8
A-DETL-GENF
100
AcDbCircle
 10
88.85039102031973
 20
3.456250000003511
 30
0.0
 40
0.6999999999998479
100
AcDbArc
 50
90.00000000000021
 51
180.0000000000003
  0
ARC
  5
2B7
330
2F
100
AcDbEntity
  8
A-DETL-GENF
100
AcDbCircle
 10
90.95039102031951
 20
4.356250000004424
 30
0.0
 40
0.1999999999999605
100
AcDbArc
 50
270.0
 51
3.833e-13
  0
ARC
  5
2B8
330
2F
100
AcDbEntity
  8
A-DETL-GENF
100
AcDbCircle
 10
90.65039102031986
 20
4.667574865408631
 30
0.0
 40
0.4999999999998904
100
AcDbArc
 50
4.644e-13
 51
59.9999999999852
  0
ARC
  5
2B9
330
2F
100
AcDbEntity
  8
A-DETL-GENF
100
AcDbCircle
 10
87.74095136236132
 20
3.682982825039032
 30
0.0
 40
2.843238572842583
100
AcDbArc
 50
50.89344376910879
 51
88.81978682106153
  0
ARC
  5
2BA
330
2F
100
AcDbEntity
  8
A-DETL-GENF
100
AcDbCircle
 10
88.0728964748203
 20
1.081170698306776
 30
0.0
 40
5.451306892558549
100
AcDbArc
 50
92.87458349052085
 51
125.0879918808104
  0
ARC
  5
2BB
330
2F
100
AcDbEntity
  8
A-DETL-GENF
100
AcDbCircle
 10
87.21839405752203
 20
2.556250000003716
 30
0.0
 40
0.1999999999999606
100
AcDbArc
 50
270.0000000000001
 51
355.0000000000259
  0
ARC
  5
2BC
330
2F
100
AcDbEntity
  8
A-DETL-GENF
100
AcDbCircle
 10
86.58238798311748
 20
2.556250000003699
 30
0.0
 40
0.1999999999999398
100
AcDbArc
 50
184.9999999999736
 51
269.9999999999997
  0
ARC
  5
2BD
330
2F
100
AcDbEntity
  8
A-DETL-GENF
100
AcDbCircle
 10
86.46865272053341
 20
3.856250000003404
 30
0.0
 40
0.1999999999999604
100
AcDbArc
 50
90.00000000000024
 51
184.9999999999739
  0
ARC
  5
2BE
330
2F
100
AcDbEntity
  8
A-DETL-GENF
100
AcDbCircle
 10
87.33212932010586
 20
3.85625000000342
 30
0.0
 40
0.199999999999954
100
AcDbArc
 50
355.000000000027
 51
90.0
  0
ARC
  5
2BF
330
2F
100
AcDbEntity
  8
A-DETL-GENF
100
AcDbCircle
 10
82.93777668150491
 20
6.637897975605687
 30
0.0
 40
0.4781859563440303
100
AcDbArc
 50
70.00829955882318
 51
228.2210989104922
  0
ARC
  5
2C0
330
2F
100
AcDbEntity
  8
A-DETL-GENF
100
AcDbCircle
 10
94.02025361091204
 20
12.21677510442868
 30
0.0
 40
12.85356980346539
100
AcDbArc
 50
207.5017719483513
 51
213.3212483979812
  0
ARC
  5
2C1
330
2F
100
AcDbEntity
  8
A-DETL-GENF
100
AcDbCircle
 10
83.73304366560882
 20
5.162876984698851
 30
0.0
 40
0.4533343651942953
100
AcDbArc
 50
180.8833114367429
 51
317.4384751269386
  0
ARC
  5
2C2
330
2F
100
AcDbEntity
  8
A-DETL-GENF
100
AcDbCircle
 10
87.4501974435604
 20
2.761991977321593
 30
0.0
 40
3.124075967187024
100
AcDbArc
 50
47.25482890597876
 51
136.9632401722644
  0
ARC
  5
2C3
330
2F
100
AcDbEntity
  8
A-DETL-GENF
100
AcDbCircle
 10
84.76051688385898
 20
7.789290716593452
 30
0.0
 40
2.923580772687746
100
AcDbArc
 50
263.6131113332047
 51
277.9873277034351
  0
ARC
  5
2C4
330
2F
100
AcDbEntity
  8
A-DETL-GENF
100
AcDbCircle
 10
85.30115510463995
 20
6.236715929884604
 30
0.0
 40
1.606221700250993
100
AcDbArc
 50
161.9306313475137
 51
237.3798233582348
  0
ARC
  5
2C5
330
2F
100
AcDbEntity
  8
A-DETL-GENF
100
AcDbCircle
 10
83.57059079154749
 20
6.854280231063889
 30
0.0
 40
0.2359751222468602
100
AcDbArc
 50
329.6129507461162
 51
101.2826292807595
  0
ARC
  5
2C6
330
2F
100
AcDbEntity
  8
A-DETL-GENF
100
AcDbCircle
 10
84.73914346166082
 20
5.644802572637891
 30
0.0
 40
0.2251000198983799
100
AcDbArc
 50
191.2094728144518
 51
332.7722118804495
  0
ARC
  5
2C7
330
2F
100
AcDbEntity
  8
A-DETL-GENF
100
AcDbCircle
 10
85.51168685559121
 20
6.270563971302399
 30
0.0
 40
1.19791473859602
100
AcDbArc
 50
162.952677168099
 51
213.980077568302
  0
ARC
  5
2C8
330
2F
100
AcDbEntity
  8
A-DETL-GENF
100
AcDbCircle
 10
84.76400290413055
 20
6.682081226943804
 30
0.0
 40
0.402149745612723
100
AcDbArc
 50
107.5822726303228
 51
188.6287086472164
  0
ARC
  5
2C9
330
2F
100
AcDbEntity
  8
A-DETL-GENF
100
AcDbCircle
 10
86.63715266195108
 20
3.237182148838657
 30
0.0
 40
3.93132940410366
100
AcDbArc
 50
43.30814992064502
 51
77.79485341697831
  0
ARC
  5
2CA
330
2F
100
AcDbEntity
  8
A-DETL-GENF
100
AcDbCircle
 10
89.77630881142879
 20
6.209303397897262
 30
0.0
 40
0.3917153973290255
100
AcDbArc
 50
224.7012163378748
 51
316.3709669436749
  0
ARC
  5
2CB
330
2F
100
AcDbEntity
  8
A-DETL-GENF
100
AcDbCircle
 10
89.67272242861175
 20
6.399326029740523
 30
0.0
 40
0.5892526670790604
100
AcDbArc
 50
310.0642472197585
 51
339.5458920112734
  0
ARC
  5
2CC
330
2F
100
AcDbEntity
  8
A-DETL-GENF
100
AcDbCircle
 10
90.01382032959943
 20
6.302487776639766
 30
0.0
 40
0.2375312582547519
100
AcDbArc
 50
332.6629070151389
 51
47.3944402847843
  0
ARC
  5
2CD
330
2F
100
AcDbEntity
  8
A-DETL-GENF
100
AcDbCircle
 10
84.08331866044878
 20
-1.997416722537389
 30
0.0
 40
10.43671605612707
100
AcDbArc
 50
54.2929427022622
 51
69.90441714552468
  0
ARC
  5
2CE
330
2F
100
AcDbEntity
  8
A-DETL-GENF
100
AcDbCircle
 10
81.95990705310732
 20
7.153684962254123
 30
0.0
 40
0.6127008209900663
100
AcDbArc
 50
100.4362045824753
 51
220.3362175575791
  0
ARC
  5
2CF
330
2F
100
AcDbEntity
  8
A-DETL-GENF
100
AcDbCircle
 10
83.1337142672912
 20
4.660451648315627
 30
0.0
 40
0.5094027852959487
100
AcDbArc
 50
193.9923882514696
 51
278.1945731067317
  0
ARC
  5
2D0
330
2F
100
AcDbEntity
  8
A-DETL-GENF
100
AcDbCircle
 10
84.95039102032007
 20
3.456250000003477
 30
0.0
 40
0.6999999999998322
100
AcDbArc
 50
1.0687e-12
 51
89.99999999999991
  0
ARC
  5
2D1
330
2F
100
AcDbEntity
  8
A-DETL-GENF
100
AcDbCircle
 10
85.25039102031973
 20
3.244787946686726
 30
0.0
 40
0.4000000000009836
100
AcDbArc
 50
280.0000000000188
 51
9.542e-13
  0
ARC
  5
2D2
330
2F
100
AcDbEntity
  8
A-DETL-GENF
100
AcDbCircle
 10
88.55039102032006
 20
3.24478794668676
 30
0.0
 40
0.4000000000010009
100
AcDbArc
 50
180.0000000000003
 51
259.9999999999751
  0
ARC
  5
2D3
330
2F
100
AcDbEntity
  8
A-DETL-GENF
100
AcDbCircle
 10
88.85039102031973
 20
3.456250000003511
 30
0.0
 40
0.6999999999998479
100
AcDbArc
 50
90.00000000000021
 51
180.0000000000003
  0
ARC
  5
2D4
330
2F
100
AcDbEntity
  8
A-DETL-GENF
100
AcDbCircle
 10
90.95039102031951
 20
4.356250000004424
 30
0.0
 40
0.1999999999999605
100
AcDbArc
 50
270.0
 51
3.833e-13
  0
ARC
  5
2D5
330
2F
100
AcDbEntity
  8
A-DETL-GENF
100
AcDbCircle
 10
90.65039102031986
 20
4.667574865408631
 30
0.0
 40
0.4999999999998904
100
AcDbArc
 50
4.644e-13
 51
59.9999999999852
  0
ARC
  5
2D6
330
2F
100
AcDbEntity
  8
A-DETL-GENF
100
AcDbCircle
 10
87.74095136236132
 20
3.682982825039032
 30
0.0
 40
2.843238572842583
100
AcDbArc
 50
50.89344376910879
 51
88.81978682106153
  0
ARC
  5
2D7
330
2F
100
AcDbEntity
  8
A-DETL-GENF
100
AcDbCircle
 10
88.0728964748203
 20
1.081170698306776
 30
0.0
 40
5.451306892558549
100
AcDbArc
 50
92.87458349052085
 51
125.0879918808104
  0
ARC
  5
2D8
330
2F
100
AcDbEntity
  8
A-DETL-GENF
100
AcDbCircle
 10
87.21839405752203
 20
2.556250000003716
 30
0.0
 40
0.1999999999999606
100
AcDbArc
 50
270.0000000000001
 51
355.0000000000259
  0
ARC
  5
2D9
330
2F
100
AcDbEntity
  8
A-DETL-GENF
100
AcDbCircle
 10
86.58238798311748
 20
2.556250000003699
 30
0.0
 40
0.1999999999999398
100
AcDbArc
 50
184.9999999999736
 51
269.9999999999997
  0
ARC
  5
2DA
330
2F
100
AcDbEntity
  8
A-DETL-GENF
100
AcDbCircle
 10
86.46865272053341
 20
3.856250000003404
 30
0.0
 40
0.1999999999999604
100
AcDbArc
 50
90.00000000000024
 51
184.9999999999739
  0
ARC
  5
2DB
330
2F
100
AcDbEntity
  8
A-DETL-GENF
100
AcDbCircle
 10
87.33212932010586
 20
3.85625000000342
 30
0.0
 40
0.199999999999954
100
AcDbArc
 50
355.000000000027
 51
90.0
  0
ARC
  5
2DC
330
2F
100
AcDbEntity
  8
A-DETL-GENF
100
AcDbCircle
 10
82.93777668150491
 20
6.637897975605687
 30
0.0
 40
0.4781859563440303
100
AcDbArc
 50
70.00829955882318
 51
228.2210989104922
  0
ARC
  5
2DD
330
2F
100
AcDbEntity
  8
A-DETL-GENF
100
AcDbCircle
 10
94.02025361091204
 20
12.21677510442868
 30
0.0
 40
12.85356980346539
100
AcDbArc
 50
207.5017719483513
 51
213.3212483979812
  0
ARC
  5
2DE
330
2F
100
AcDbEntity
  8
A-DETL-GENF
100
AcDbCircle
 10
83.73304366560882
 20
5.162876984698851
 30
0.0
 40
0.4533343651942953
100
AcDbArc
 50
180.8833114367429
 51
317.4384751269386
  0
ARC
  5
2DF
330
2F
100
AcDbEntity
  8
A-DETL-GENF
100
AcDbCircle
 10
87.4501974435604
 20
2.761991977321593
 30
0.0
 40
3.124075967187024
100
AcDbArc
 50
47.25482890597876
 51
136.9632401722644
  0
ARC
  5
2E0
330
2F
100
AcDbEntity
  8
A-DETL-GENF
100
AcDbCircle
 10
84.76051688385898
 20
7.789290716593452
 30
0.0
 40
2.923580772687746
100
AcDbArc
 50
263.6131113332047
 51
277.9873277034351
  0
ARC
  5
2E1
330
2F
100
AcDbEntity
  8
A-DETL-GENF
100
AcDbCircle
 10
85.30115510463995
 20
6.236715929884604
 30
0.0
 40
1.606221700250993
100
AcDbArc
 50
161.9306313475137
 51
237.3798233582348
  0
ARC
  5
2E2
330
2F
100
AcDbEntity
  8
A-DETL-GENF
100
AcDbCircle
 10
83.57059079154749
 20
6.854280231063889
 30
0.0
 40
0.2359751222468602
100
AcDbArc
 50
329.6129507461162
 51
101.2826292807595
  0
LINE
  5
2E3
330
2F
100
AcDbEntity
  8
A-DETL-GENF
100
AcDbLine
 10
85.65039102031992
 20
3.244787946686731
 30
0.0
 11
85.65039102031992
 21
3.456250000003485
 31
0.0
  0
LINE
  5
2E4
330
2F
100
AcDbEntity
  8
A-DETL-GENF
100
AcDbLine
 10
84.95039102032007
 20
4.156250000003319
 30
0.0
 11
83.20632208716206
 21
4.156250000003301
 31
0.0
  0
LINE
  5
2E5
330
2F
100
AcDbEntity
  8
A-DETL-GENF
100
AcDbLine
 10
87.46828520052308
 20
7.079651353256166
 30
0.0
 11
84.64252353655156
 21
7.065444215701182
 31
0.0
  0
LINE
  5
2E6
330
2F
100
AcDbEntity
  8
A-DETL-GENF
100
AcDbLine
 10
84.64252353655155
 20
7.065444215701177
 30
0.0
 11
87.46828520052314
 21
7.079651353256161
 31
0.0
  0
LINE
  5
2E7
330
2F
100
AcDbEntity
  8
A-DETL-GENF
100
AcDbLine
 10
81.84892204815648
 20
7.756250000003559
 30
0.0
 11
87.66924170180933
 21
7.803919817836082
 31
0.0
  0
LINE
  5
2E8
330
2F
100
AcDbEntity
  8
A-DETL-GENF
100
AcDbLine
 10
87.6692417018093
 20
7.80391981783609
 30
0.0
 11
81.84892204815655
 21
7.756250000003568
 31
0.0
  0
LINE
  5
2E9
330
2F
100
AcDbEntity
  8
A-DETL-GENF
100
AcDbLine
 10
82.63942655425755
 20
4.537281625943091
 30
0.0
 11
81.49287013493748
 21
6.757101032791099
 31
0.0
  0
LINE
  5
2EA
330
2F
100
AcDbEntity
  8
A-DETL-GENF
100
AcDbLine
 10
81.49287013493752
 20
6.757101032791039
 30
0.0
 11
82.63942655425755
 21
4.537281625943163
 31
0.0
  0
LINE
  5
2EB
330
2F
100
AcDbEntity
  8
A-DETL-GENF
100
AcDbLine
 10
88.48093174925361
 20
2.850864845482083
 30
0.0
 11
89.10039102031968
 21
2.741637462543567
 31
0.0
  0
LINE
  5
2EC
330
2F
100
AcDbEntity
  8
A-DETL-GENF
100
AcDbLine
 10
89.10039102031968
 20
2.741637462543567
 30
0.0
 11
89.10039102031968
 21
2.341637462542571
 31
0.0
  0
LINE
  5
2ED
330
2F
100
AcDbEntity
  8
A-DETL-GENF
100
AcDbLine
 10
89.10039102031968
 20
2.341637462542569
 30
0.0
 11
87.74006003157388
 21
1.556250000003944
 31
0.0
  0
LINE
  5
2EE
330
2F
100
AcDbEntity
  8
A-DETL-GENF
100
AcDbLine
 10
87.74006003157388
 20
1.556250000003943
 30
0.0
 11
86.06072200906571
 21
1.556250000003926
 31
0.0
  0
LINE
  5
2EF
330
2F
100
AcDbEntity
  8
A-DETL-GENF
100
AcDbLine
 10
86.06072200906571
 20
1.556250000003926
 30
0.0
 11
84.70039102031959
 21
2.341637462542534
 31
0.0
  0
LINE
  5
2F0
330
2F
100
AcDbEntity
  8
A-DETL-GENF
100
AcDbLine
 10
84.70039102031959
 20
2.341637462542534
 30
0.0
 11
84.70039102031959
 21
2.74163746254352
 31
0.0
  0
LINE
  5
2F1
330
2F
100
AcDbEntity
  8
A-DETL-GENF
100
AcDbLine
 10
84.70039102031959
 20
2.741637462543527
 30
0.0
 11
85.31985029138619
 21
2.850864845482148
 31
0.0
  0
LINE
  5
2F2
330
2F
100
AcDbEntity
  8
A-DETL-GENF
100
AcDbLine
 10
85.31985029138619
 20
2.850864845482142
 30
0.0
 11
84.70039102031959
 21
2.741637462543521
 31
0.0
  0
LINE
  5
2F3
330
2F
100
AcDbEntity
  8
A-DETL-GENF
100
AcDbLine
 10
84.70039102031959
 20
2.741637462543521
 30
0.0
 11
84.70039102031959
 21
2.341637462542532
 31
0.0
  0
LINE
  5
2F4
330
2F
100
AcDbEntity
  8
A-DETL-GENF
100
AcDbLine
 10
84.70039102031959
 20
2.341637462542535
 30
0.0
 11
86.06072200906571
 21
1.556250000003927
 31
0.0
  0
LINE
  5
2F5
330
2F
100
AcDbEntity
  8
A-DETL-GENF
100
AcDbLine
 10
86.06072200906571
 20
1.556250000003926
 30
0.0
 11
87.74006003157388
 21
1.556250000003943
 31
0.0
  0
LINE
  5
2F6
330
2F
100
AcDbEntity
  8
A-DETL-GENF
100
AcDbLine
 10
87.74006003157383
 20
1.556250000003943
 30
0.0
 11
89.10039102031968
 21
2.341637462542587
 31
0.0
  0
LINE
  5
2F7
330
2F
100
AcDbEntity
  8
A-DETL-GENF
100
AcDbLine
 10
89.10039102031968
 20
2.341637462542569
 30
0.0
 11
89.10039102031968
 21
2.741637462543568
 31
0.0
  0
LINE
  5
2F8
330
2F
100
AcDbEntity
  8
A-DETL-GENF
100
AcDbLine
 10
89.10039102031968
 20
2.741637462543561
 30
0.0
 11
88.48093174925361
 21
2.850864845482076
 31
0.0
  0
LINE
  5
2F9
330
2F
100
AcDbEntity
  8
A-DETL-GENF
100
AcDbLine
 10
88.15039102031935
 20
3.456250000003505
 30
0.0
 11
88.15039102031935
 21
3.244787946686756
 31
0.0
  0
LINE
  5
2FA
330
2F
100
AcDbEntity
  8
A-DETL-GENF
100
AcDbLine
 10
88.15039102031935
 20
3.244787946686756
 30
0.0
 11
88.15039102031935
 21
3.456250000003505
 31
0.0
  0
LINE
  5
2FB
330
2F
100
AcDbEntity
  8
A-DETL-GENF
100
AcDbLine
 10
90.95039102031951
 20
4.156250000003386
 30
0.0
 11
88.85039102031973
 21
4.156250000003365
 31
0.0
  0
LINE
  5
2FC
330
2F
100
AcDbEntity
  8
A-DETL-GENF
100
AcDbLine
 10
88.85039102031973
 20
4.156250000003352
 30
0.0
 11
90.95039102031951
 21
4.156250000003374
 31
0.0
  0
LINE
  5
2FD
330
2F
100
AcDbEntity
  8
A-DETL-GENF
100
AcDbLine
 10
91.15039102031976
 20
4.667574865408637
 30
0.0
 11
91.15039102031976
 21
4.356250000004425
 31
0.0
  0
LINE
  5
2FE
330
2F
100
AcDbEntity
  8
A-DETL-GENF
100
AcDbLine
 10
91.15039102031976
 20
4.356250000004425
 30
0.0
 11
91.15039102031976
 21
4.667574865408637
 31
0.0
  0
LINE
  5
2FF
330
2F
100
AcDbEntity
  8
A-DETL-GENF
100
AcDbLine
 10
89.53436561653807
 20
5.88926270189408
 30
0.0
 11
90.90039102031987
 21
5.100587567300985
 31
0.0
  0
LINE
  5
300
330
2F
100
AcDbEntity
  8
A-DETL-GENF
100
AcDbLine
 10
90.90039102031987
 20
5.100587567300984
 30
0.0
 11
89.5343656165381
 21
5.889262701894071
 31
0.0
  0
LINE
  5
301
330
2F
100
AcDbEntity
  8
A-DETL-GENF
100
AcDbLine
 10
86.58238798311748
 20
2.356250000002662
 30
0.0
 11
87.21839405752203
 21
2.356250000002668
 31
0.0
  0
LINE
  5
302
330
2F
100
AcDbEntity
  8
A-DETL-GENF
100
AcDbLine
 10
87.21839405752203
 20
2.356250000002678
 30
0.0
 11
86.58238798311748
 21
2.356250000002672
 31
0.0
  0
LINE
  5
303
330
2F
100
AcDbEntity
  8
A-DETL-GENF
100
AcDbLine
 10
86.26941378091526
 20
3.838818851453906
 30
0.0
 11
86.3831490434988
 21
2.538818851454155
 31
0.0
  0
LINE
  5
304
330
2F
100
AcDbEntity
  8
A-DETL-GENF
100
AcDbLine
 10
86.3831490434988
 20
2.538818851454154
 30
0.0
 11
86.26941378091526
 21
3.838818851453905
 31
0.0
  0
LINE
  5
305
330
2F
100
AcDbEntity
  8
A-DETL-GENF
100
AcDbLine
 10
87.33212932010586
 20
4.056250000004458
 30
0.0
 11
86.46865272053341
 21
4.05625000000445
 31
0.0
  0
LINE
  5
306
330
2F
100
AcDbEntity
  8
A-DETL-GENF
100
AcDbLine
 10
86.46865272053341
 20
4.056250000004441
 30
0.0
 11
87.33212932010586
 21
4.05625000000445
 31
0.0
  0
LINE
  5
307
330
2F
100
AcDbEntity
  8
A-DETL-GENF
100
AcDbLine
 10
87.41763299714071
 20
2.538818851454135
 30
0.0
 11
87.53136825972454
 21
3.83881885145384
 31
0.0
  0
LINE
  5
308
330
2F
100
AcDbEntity
  8
A-DETL-GENF
100
AcDbLine
 10
87.53136825972454
 20
3.838818851453839
 30
0.0
 11
87.41763299714074
 21
2.538818851454133
 31
0.0
  0
LINE
  5
309
330
2F
100
AcDbEntity
  8
A-DETL-GENF
100
AcDbLine
 10
83.10126081900516
 20
7.087269476293542
 30
0.0
 11
83.5244225335192
 21
7.085694902746682
 31
0.0
  0
LINE
  5
30A
330
2F
100
AcDbEntity
  8
A-DETL-GENF
100
AcDbLine
 10
83.52442253351919
 20
7.085694902746677
 30
0.0
 11
83.10126081900516
 21
7.087269476293537
 31
0.0
  0
LINE
  5
30B
330
2F
100
AcDbEntity
  8
A-DETL-GENF
100
AcDbLine
 10
89.6006291859457
 20
5.026250000003388
 30
0.0
 11
89.57062918594592
 21
4.856250000003197
 31
0.0
  0
LINE
  5
30C
330
2F
100
AcDbEntity
  8
A-DETL-GENF
100
AcDbLine
 10
89.57062918594592
 20
4.85625000000321
 30
0.0
 11
84.06694775202065
 21
4.856250000003155
 31
0.0
  0
LINE
  5
30D
330
2F
100
AcDbEntity
  8
A-DETL-GENF
100
AcDbLine
 10
84.06694775202065
 20
4.856250000003142
 30
0.0
 11
89.57062918594592
 21
4.856250000003197
 31
0.0
  0
LINE
  5
30E
330
2F
100
AcDbEntity
  8
A-DETL-GENF
100
AcDbLine
 10
89.57062918594592
 20
4.856250000003197
 30
0.0
 11
89.6006291859457
 21
5.026250000003388
 31
0.0
  0
ENDBLK
  5
31
330
2F
100
AcDbEntity
  8
0
100
AcDbBlockEnd
  0
ENDSEC
  0
SECTION
  2
ENTITIES
  0
INSERT
  5
310
330
17
100
AcDbEntity
  8
0
100
AcDbBlockReference
  2
32 DO_MP_aluminium kozijnstijl2_gen_ASK - 32_DO_MP_aluminium kozijnstijl2_gen_ASK-3344907-00_0 Basismaterialen
 10
0.0
 20
0.0
 30
0.0
  0
ENDSEC
  0
SECTION
  2
OBJECTS
  0
DICTIONARY
  5
A
330
0
100
AcDbDictionary
281
1
  3
ACAD_COLOR
350
B
  3
ACAD_GROUP
350
C
  3
ACAD_LAYOUT
350
D
  3
ACAD_MATERIAL
350
E
  3
ACAD_MLEADERSTYLE
350
F
  3
ACAD_MLINESTYLE
350
10
  3
ACAD_PLOTSETTINGS
350
11
  3
ACAD_PLOTSTYLENAME
350
12
  3
ACAD_SCALELIST
350
14
  3
ACAD_TABLESTYLE
350
15
  3
ACAD_VISUALSTYLE
350
16
  3
EZDXF_META
350
2D
  0
DICTIONARY
  5
B
330
A
100
AcDbDictionary
281
1
  0
DICTIONARY
  5
C
330
A
100
AcDbDictionary
281
1
  0
DICTIONARY
  5
D
330
A
100
AcDbDictionary
281
1
  3
Model
350
1A
  3
Layout1
350
1E
  0
DICTIONARY
  5
E
330
A
100
AcDbDictionary
281
1
  3
ByBlock
350
1F
  3
ByLayer
350
20
  3
Global
350
21
  0
DICTIONARY
  5
F
330
A
100
AcDbDictionary
281
1
  3
Standard
350
2C
  0
DICTIONARY
  5
10
330
A
100
AcDbDictionary
281
1
  3
Standard
350
22
  0
DICTIONARY
  5
11
330
A
100
AcDbDictionary
281
1
  0
ACDBDICTIONARYWDFLT
  5
12
330
A
100
AcDbDictionary
281
1
  3
Normal
350
13
100
AcDbDictionaryWithDefault
340
13
  0
ACDBPLACEHOLDER
  5
13
330
12
  0
DICTIONARY
  5
14
330
A
100
AcDbDictionary
281
1
  0
DICTIONARY
  5
15
330
A
100
AcDbDictionary
281
1
  0
DICTIONARY
  5
16
330
A
100
AcDbDictionary
281
1
  0
LAYOUT
  5
1A
330
D
100
AcDbPlotSettings
  1

  4
A3
  6

 40
7.5
 41
20.0
 42
7.5
 43
20.0
 44
420.0
 45
297.0
 46
0.0
 47
0.0
 48
0.0
 49
0.0
140
0.0
141
0.0
142
1.0
143
1.0
 70
1024
 72
1
 73
0
 74
5
  7

 75
16
 76
0
 77
2
 78
300
147
1.0
148
0.0
149
0.0
100
AcDbLayout
  1
Model
 70
1
 71
0
 10
0.0
 20
0.0
 11
420.0
 21
297.0
 12
0.0
 22
0.0
 32
0.0
 14
1e+20
 24
1e+20
 34
1e+20
 15
-1e+20
 25
-1e+20
 35
-1e+20
146
0.0
 13
0.0
 23
0.0
 33
0.0
 16
1.0
 26
0.0
 36
0.0
 17
0.0
 27
1.0
 37
0.0
 76
1
330
17
  0
LAYOUT
  5
1E
330
D
100
AcDbPlotSettings
  1

  4
A3
  6

 40
7.5
 41
20.0
 42
7.5
 43
20.0
 44
420.0
 45
297.0
 46
0.0
 47
0.0
 48
0.0
 49
0.0
140
0.0
141
0.0
142
1.0
143
1.0
 70
0
 72
1
 73
0
 74
5
  7

 75
16
 76
0
 77
2
 78
300
147
1.0
148
0.0
149
0.0
100
AcDbLayout
  1
Layout1
 70
1
 71
1
 10
0.0
 20
0.0
 11
420.0
 21
297.0
 12
0.0
 22
0.0
 32
0.0
 14
1e+20
 24
1e+20
 34
1e+20
 15
-1e+20
 25
-1e+20
 35
-1e+20
146
0.0
 13
0.0
 23
0.0
 33
0.0
 16
1.0
 26
0.0
 36
0.0
 17
0.0
 27
1.0
 37
0.0
 76
1
330
1B
  0
MATERIAL
  5
1F
102
{ACAD_REACTORS
330
E
102
}
330
E
100
AcDbMaterial
  1
ByBlock
  2

 70
0
 40
1.0
 71
1
 41
1.0
 91
-1023410177
 42
1.0
 72
1
  3

 73
1
 74
1
 75
1
 44
0.5
 73
0
 45
1.0
 46
1.0
 77
1
  4

 78
1
 79
1
170
1
 48
1.0
171
1
  6

172
1
173
1
174
1
140
1.0
141
1.0
175
1
  7

176
1
177
1
178
1
143
1.0
179
1
  8

270
1
271
1
272
1
145
1.0
146
1.0
273
1
  9

274
1
275
1
276
1
 42
1.0
 72
1
  3

 73
1
 74
1
 75
1
 94
63
  0
MATERIAL
  5
20
102
{ACAD_REACTORS
330
E
102
}
330
E
100
AcDbMaterial
  1
ByLayer
  2

 70
0
 40
1.0
 71
1
 41
1.0
 91
-1023410177
 42
1.0
 72
1
  3

 73
1
 74
1
 75
1
 44
0.5
 73
0
 45
1.0
 46
1.0
 77
1
  4

 78
1
 79
1
170
1
 48
1.0
171
1
  6

172
1
173
1
174
1
140
1.0
141
1.0
175
1
  7

176
1
177
1
178
1
143
1.0
179
1
  8

270
1
271
1
272
1
145
1.0
146
1.0
273
1
  9

274
1
275
1
276
1
 42
1.0
 72
1
  3

 73
1
 74
1
 75
1
 94
63
  0
MATERIAL
  5
21
102
{ACAD_REACTORS
330
E
102
}
330
E
100
AcDbMaterial
  1
Global
  2

 70
0
 40
1.0
 71
1
 41
1.0
 91
-1023410177
 42
1.0
 72
1
  3

 73
1
 74
1
 75
1
 44
0.5
 73
0
 45
1.0
 46
1.0
 77
1
  4

 78
1
 79
1
170
1
 48
1.0
171
1
  6

172
1
173
1
174
1
140
1.0
141
1.0
175
1
  7

176
1
177
1
178
1
143
1.0
179
1
  8

270
1
271
1
272
1
145
1.0
146
1.0
273
1
  9

274
1
275
1
276
1
 42
1.0
 72
1
  3

 73
1
 74
1
 75
1
 94
63
  0
MLINESTYLE
  5
22
102
{ACAD_REACTORS
330
10
102
}
330
10
100
AcDbMlineStyle
  2
Standard
 70
0
  3

 62
256
 51
90.0
 52
90.0
 71
2
 49
0.5
 62
256
  6
BYLAYER
 49
-0.5
 62
256
  6
BYLAYER
  0
MLEADERSTYLE
  5
2C
102
{ACAD_REACTORS
330
F
102
}
330
F
100
AcDbMLeaderStyle
179
2
170
2
171
1
172
0
 90
2
 40
0.0
 41
0.0
173
1
 91
-1056964608
 92
-2
290
1
 42
2.0
291
1
 43
8.0
  3
Standard
 44
4.0
300

342
29
174
1
175
1
176
0
178
1
 93
-1056964608
 45
4.0
292
0
297
0
 46
4.0
 94
-1056964608
 47
1.0
 49
1.0
140
1.0
294
1
141
0.0
177
0
142
1.0
295
0
296
0
143
3.75
271
0
272
9
273
9
  0
DICTIONARY
  5
2D
330
A
100
AcDbDictionary
280
1
281
1
  3
CREATED_BY_EZDXF
350
2E
  3
WRITTEN_BY_EZDXF
350
314
  0
DICTIONARYVAR
  5
2E
330
2D
100
DictionaryVariables
280
0
  1
1.4.3 @ 2026-02-13T04:54:13.142728+00:00
  0
DICTIONARYVAR
  5
314
330
2D
100
DictionaryVariables
280
0
  1
1.4.3 @ 2026-02-13T04:54:13.177255+00:00
  0
ENDSEC
  0
EOF
