  0
SECTION
  2
HEADER
  9
$ACADVER
  1
AC1032
  9
$ACADMAINTVER
 90
4
  9
$DWGCODEPAGE
  3
ANSI_1252
  9
$LASTSAVEDBY
  1
ezdxf
  9
$REQUIREDVERSIONS
160
0
  9
$INSBASE
 10
0.0
 20
0.0
 30
0.0
  9
$EXTMIN
 10
1e+20
 20
1e+20
 30
1e+20
  9
$EXTMAX
 10
-1e+20
 20
-1e+20
 30
-1e+20
  9
$LIMMIN
 10
0.0
 20
0.0
  9
$LIMMAX
 10
420.0
 20
297.0
  9
$ORTHOMODE
 70
0
  9
$REGENMODE
 70
1
  9
$FILLMODE
 70
1
  9
$QTEXTMODE
 70
0
  9
$MIRRTEXT
 70
1
  9
$LTSCALE
 40
1.0
  9
$ATTMODE
 70
1
  9
$TEXTSIZE
 40
2.5
  9
$TRACEWID
 40
1.0
  9
$TEXTSTYLE
  7
Standard
  9
$CLAYER
  8
0
  9
$CELTYPE
  6
ByLayer
  9
$CECOLOR
 62
256
  9
$CELTSCALE
 40
1.0
  9
$DISPSILH
 70
0
  9
$DIMSCALE
 40
1.0
  9
$DIMASZ
 40
2.5
  9
$DIMEXO
 40
0.625
  9
$DIMDLI
 40
3.75
  9
$DIMRND
 40
0.0
  9
$DIMDLE
 40
0.0
  9
$DIMEXE
 40
1.25
  9
$DIMTP
 40
0.0
  9
$DIMTM
 40
0.0
  9
$DIMTXT
 40
2.5
  9
$DIMCEN
 40
2.5
  9
$DIMTSZ
 40
0.0
  9
$DIMTOL
 70
0
  9
$DIMLIM
 70
0
  9
$DIMTIH
 70
0
  9
$DIMTOH
 70
0
  9
$DIMSE1
 70
0
  9
$DIMSE2
 70
0
  9
$DIMTAD
 70
1
  9
$DIMZIN
 70
8
  9
$DIMBLK
  1

  9
$DIMASO
 70
1
  9
$DIMSHO
 70
1
  9
$DIMPOST
  1

  9
$DIMAPOST
  1

  9
$DIMALT
 70
0
  9
$DIMALTD
 70
3
  9
$DIMALTF
 40
0.03937007874
  9
$DIMLFAC
 40
1.0
  9
$DIMTOFL
 70
1
  9
$DIMTVP
 40
0.0
  9
$DIMTIX
 70
0
  9
$DIMSOXD
 70
0
  9
$DIMSAH
 70
0
  9
$DIMBLK1
  1

  9
$DIMBLK2
  1

  9
$DIMSTYLE
  2
ISO-25
  9
$DIMCLRD
 70
0
  9
$DIMCLRE
 70
0
  9
$DIMCLRT
 70
0
  9
$DIMTFAC
 40
1.0
  9
$DIMGAP
 40
0.625
  9
$DIMJUST
 70
0
  9
$DIMSD1
 70
0
  9
$DIMSD2
 70
0
  9
$DIMTOLJ
 70
0
  9
$DIMTZIN
 70
8
  9
$DIMALTZ
 70
0
  9
$DIMALTTZ
 70
0
  9
$DIMUPT
 70
0
  9
$DIMDEC
 70
2
  9
$DIMTDEC
 70
2
  9
$DIMALTU
 70
2
  9
$DIMALTTD
 70
3
  9
$DIMTXSTY
  7
Standard
  9
$DIMAUNIT
 70
0
  9
$DIMADEC
 70
0
  9
$DIMALTRND
 40
0.0
  9
$DIMAZIN
 70
0
  9
$DIMDSEP
 70
44
  9
$DIMATFIT
 70
3
  9
$DIMFRAC
 70
0
  9
$DIMLDRBLK
  1

  9
$DIMLUNIT
 70
2
  9
$DIMLWD
 70
-2
  9
$DIMLWE
 70
-2
  9
$DIMTMOVE
 70
0
  9
$DIMFXL
 40
1.0
  9
$DIMFXLON
 70
0
  9
$DIMJOGANG
 40
0.785398163397
  9
$DIMTFILL
 70
0
  9
$DIMTFILLCLR
 70
0
  9
$DIMARCSYM
 70
0
  9
$DIMLTYPE
  6

  9
$DIMLTEX1
  6

  9
$DIMLTEX2
  6

  9
$DIMTXTDIRECTION
 70
0
  9
$LUNITS
 70
2
  9
$LUPREC
 70
4
  9
$SKETCHINC
 40
1.0
  9
$FILLETRAD
 40
10.0
  9
$AUNITS
 70
0
  9
$AUPREC
 70
2
  9
$MENU
  1
.
  9
$ELEVATION
 40
0.0
  9
$PELEVATION
 40
0.0
  9
$THICKNESS
 40
0.0
  9
$LIMCHECK
 70
0
  9
$CHAMFERA
 40
0.0
  9
$CHAMFERB
 40
0.0
  9
$CHAMFERC
 40
0.0
  9
$CHAMFERD
 40
0.0
  9
$SKPOLY
 70
0
  9
$TDCREATE
 40
2461085.245983796
  9
$TDUCREATE
 40
2458532.153996898
  9
$TDUPDATE
 40
2461085.245983796
  9
$TDUUPDATE
 40
2458532.1544311
  9
$TDINDWG
 40
0.0
  9
$TDUSRTIMER
 40
0.0
  9
$USRTIMER
 70
1
  9
$ANGBASE
 50
0.0
  9
$ANGDIR
 70
0
  9
$PDMODE
 70
0
  9
$PDSIZE
 40
0.0
  9
$PLINEWID
 40
0.0
  9
$SPLFRAME
 70
0
  9
$SPLINETYPE
 70
6
  9
$SPLINESEGS
 70
8
  9
$HANDSEED
  5
92
  9
$SURFTAB1
 70
6
  9
$SURFTAB2
 70
6
  9
$SURFTYPE
 70
6
  9
$SURFU
 70
6
  9
$SURFV
 70
6
  9
$UCSBASE
  2

  9
$UCSNAME
  2

  9
$UCSORG
 10
0.0
 20
0.0
 30
0.0
  9
$UCSXDIR
 10
1.0
 20
0.0
 30
0.0
  9
$UCSYDIR
 10
0.0
 20
1.0
 30
0.0
  9
$UCSORTHOREF
  2

  9
$UCSORTHOVIEW
 70
0
  9
$UCSORGTOP
 10
0.0
 20
0.0
 30
0.0
  9
$UCSORGBOTTOM
 10
0.0
 20
0.0
 30
0.0
  9
$UCSORGLEFT
 10
0.0
 20
0.0
 30
0.0
  9
$UCSORGRIGHT
 10
0.0
 20
0.0
 30
0.0
  9
$UCSORGFRONT
 10
0.0
 20
0.0
 30
0.0
  9
$UCSORGBACK
 10
0.0
 20
0.0
 30
0.0
  9
$PUCSBASE
  2

  9
$PUCSNAME
  2

  9
$PUCSORG
 10
0.0
 20
0.0
 30
0.0
  9
$PUCSXDIR
 10
1.0
 20
0.0
 30
0.0
  9
$PUCSYDIR
 10
0.0
 20
1.0
 30
0.0
  9
$PUCSORTHOREF
  2

  9
$PUCSORTHOVIEW
 70
0
  9
$PUCSORGTOP
 10
0.0
 20
0.0
 30
0.0
  9
$PUCSORGBOTTOM
 10
0.0
 20
0.0
 30
0.0
  9
$PUCSORGLEFT
 10
0.0
 20
0.0
 30
0.0
  9
$PUCSORGRIGHT
 10
0.0
 20
0.0
 30
0.0
  9
$PUCSORGFRONT
 10
0.0
 20
0.0
 30
0.0
  9
$PUCSORGBACK
 10
0.0
 20
0.0
 30
0.0
  9
$USERI1
 70
0
  9
$USERI2
 70
0
  9
$USERI3
 70
0
  9
$USERI4
 70
0
  9
$USERI5
 70
0
  9
$USERR1
 40
0.0
  9
$USERR2
 40
0.0
  9
$USERR3
 40
0.0
  9
$USERR4
 40
0.0
  9
$USERR5
 40
0.0
  9
$WORLDVIEW
 70
1
  9
$SHADEDGE
 70
3
  9
$SHADEDIF
 70
70
  9
$TILEMODE
 70
1
  9
$MAXACTVP
 70
64
  9
$PINSBASE
 10
0.0
 20
0.0
 30
0.0
  9
$PLIMCHECK
 70
0
  9
$PEXTMIN
 10
1e+20
 20
1e+20
 30
1e+20
  9
$PEXTMAX
 10
-1e+20
 20
-1e+20
 30
-1e+20
  9
$PLIMMIN
 10
0.0
 20
0.0
  9
$PLIMMAX
 10
420.0
 20
297.0
  9
$UNITMODE
 70
0
  9
$VISRETAIN
 70
1
  9
$PLINEGEN
 70
0
  9
$PSLTSCALE
 70
1
  9
$TREEDEPTH
 70
3020
  9
$CMLSTYLE
  2
Standard
  9
$CMLJUST
 70
0
  9
$CMLSCALE
 40
20.0
  9
$PROXYGRAPHICS
 70
1
  9
$MEASUREMENT
 70
1
  9
$CELWEIGHT
370
-1
  9
$ENDCAPS
280
0
  9
$JOINSTYLE
280
0
  9
$LWDISPLAY
290
0
  9
$INSUNITS
 70
6
  9
$HYPERLINKBASE
  1

  9
$STYLESHEET
  1

  9
$XEDIT
290
1
  9
$CEPSNTYPE
380
0
  9
$PSTYLEMODE
290
1
  9
$FINGERPRINTGUID
  2
{009F51B1-3FA6-48C3-9A6D-65DF8416A192}
  9
$VERSIONGUID
  2
{17F1F12C-6C02-450B-9030-39A8A6F50F03}
  9
$EXTNAMES
290
1
  9
$PSVPSCALE
 40
0.0
  9
$OLESTARTUP
290
0
  9
$SORTENTS
280
127
  9
$INDEXCTL
280
0
  9
$HIDETEXT
280
1
  9
$XCLIPFRAME
280
1
  9
$HALOGAP
280
0
  9
$OBSCOLOR
 70
257
  9
$OBSLTYPE
280
0
  9
$INTERSECTIONDISPLAY
280
0
  9
$INTERSECTIONCOLOR
 70
257
  9
$DIMASSOC
280
2
  9
$PROJECTNAME
  1

  9
$CAMERADISPLAY
290
0
  9
$LENSLENGTH
 40
50.0
  9
$CAMERAHEIGHT
 40
0.0
  9
$STEPSPERSEC
 40
24.0
  9
$STEPSIZE
 40
100.0
  9
$3DDWFPREC
 40
2.0
  9
$PSOLWIDTH
 40
0.005
  9
$PSOLHEIGHT
 40
0.08
  9
$LOFTANG1
 40
1.570796326795
  9
$LOFTANG2
 40
1.570796326795
  9
$LOFTMAG1
 40
0.0
  9
$LOFTMAG2
 40
0.0
  9
$LOFTPARAM
 70
7
  9
$LOFTNORMALS
280
1
  9
$LATITUDE
 40
37.795
  9
$LONGITUDE
 40
-122.394
  9
$NORTHDIRECTION
 40
0.0
  9
$TIMEZONE
 70
-8000
  9
$LIGHTGLYPHDISPLAY
280
1
  9
$TILEMODELIGHTSYNCH
280
1
  9
$CMATERIAL
347
20
  9
$SOLIDHIST
280
0
  9
$SHOWHIST
280
1
  9
$DWFFRAME
280
2
  9
$DGNFRAME
280
2
  9
$REALWORLDSCALE
290
1
  9
$INTERFERECOLOR
 62
256
  9
$CSHADOW
280
0
  9
$SHADOWPLANELOCATION
 40
0.0
  0
ENDSEC
  0
SECTION
  2
CLASSES
  0
CLASS
  1
ACDBDICTIONARYWDFLT
  2
AcDbDictionaryWithDefault
  3
ObjectDBX Classes
 90
0
 91
0
280
0
281
0
  0
CLASS
  1
SUN
  2
AcDbSun
  3
SCENEOE
 90
1153
 91
0
280
0
281
0
  0
CLASS
  1
VISUALSTYLE
  2
AcDbVisualStyle
  3
ObjectDBX Classes
 90
4095
 91
0
280
0
281
0
  0
CLASS
  1
MATERIAL
  2
AcDbMaterial
  3
ObjectDBX Classes
 90
1153
 91
0
280
0
281
0
  0
CLASS
  1
SCALE
  2
AcDbScale
  3
ObjectDBX Classes
 90
1153
 91
0
280
0
281
0
  0
CLASS
  1
TABLESTYLE
  2
AcDbTableStyle
  3
ObjectDBX Classes
 90
4095
 91
0
280
0
281
0
  0
CLASS
  1
MLEADERSTYLE
  2
AcDbMLeaderStyle
  3
ACDB_MLEADERSTYLE_CLASS
 90
4095
 91
0
280
0
281
0
  0
CLASS
  1
DICTIONARYVAR
  2
AcDbDictionaryVar
  3
ObjectDBX Classes
 90
0
 91
0
280
0
281
0
  0
CLASS
  1
CELLSTYLEMAP
  2
AcDbCellStyleMap
  3
ObjectDBX Classes
 90
1152
 91
0
280
0
281
0
  0
CLASS
  1
MENTALRAYRENDERSETTINGS
  2
AcDbMentalRayRenderSettings
  3
SCENEOE
 90
1024
 91
0
280
0
281
0
  0
CLASS
  1
ACDBDETAILVIEWSTYLE
  2
AcDbDetailViewStyle
  3
ObjectDBX Classes
 90
1025
 91
0
280
0
281
0
  0
CLASS
  1
ACDBSECTIONVIEWSTYLE
  2
AcDbSectionViewStyle
  3
ObjectDBX Classes
 90
1025
 91
0
280
0
281
0
  0
CLASS
  1
RASTERVARIABLES
  2
AcDbRasterVariables
  3
ISM
 90
0
 91
0
280
0
281
0
  0
CLASS
  1
LAYOUT
  2
AcDbLayout
  3
ObjectDBX Classes
 90
0
 91
0
280
0
281
0
  0
CLASS
  1
ACDBPLACEHOLDER
  2
AcDbPlaceHolder
  3
ObjectDBX Classes
 90
0
 91
0
280
0
281
0
  0
ENDSEC
  0
SECTION
  2
TABLES
  0
TABLE
  2
VPORT
  5
8
330
0
100
AcDbSymbolTable
 70
1
  0
VPORT
  5
23
330
8
100
AcDbSymbolTableRecord
100
AcDbViewportTableRecord
  2
*Active
 70
0
 10
0.0
 20
0.0
 11
1.0
 21
1.0
 12
0.0
 22
0.0
 13
0.0
 23
0.0
 14
0.5
 24
0.5
 15
0.5
 25
0.5
 16
0.0
 26
0.0
 36
1.0
 17
0.0
 27
0.0
 37
0.0
 40
1000.0
 41
1.34
 42
50.0
 43
0.0
 44
0.0
 50
0.0
 51
0.0
 71
0
 72
1000
 73
1
 74
3
 75
0
 76
0
 77
0
 78
0
281
0
 65
0
146
0.0
  0
ENDTAB
  0
TABLE
  2
LTYPE
  5
2
330
0
100
AcDbSymbolTable
 70
3
  0
LTYPE
  5
24
330
2
100
AcDbSymbolTableRecord
100
AcDbLinetypeTableRecord
  2
ByBlock
 70
0
  3

 72
65
 73
0
 40
0.0
  0
LTYPE
  5
25
330
2
100
AcDbSymbolTableRecord
100
AcDbLinetypeTableRecord
  2
ByLayer
 70
0
  3

 72
65
 73
0
 40
0.0
  0
LTYPE
  5
26
330
2
100
AcDbSymbolTableRecord
100
AcDbLinetypeTableRecord
  2
Continuous
 70
0
  3

 72
65
 73
0
 40
0.0
  0
ENDTAB
  0
TABLE
  2
LAYER
  5
1
330
0
100
AcDbSymbolTable
 70
3
  0
LAYER
  5
27
330
1
100
AcDbSymbolTableRecord
100
AcDbLayerTableRecord
  2
0
 70
0
 62
7
  6
Continuous
370
-3
390
13
347
21
  0
LAYER
  5
28
330
1
100
AcDbSymbolTableRecord
100
AcDbLayerTableRecord
  2
Defpoints
 70
0
 62
7
  6
Continuous
290
0
370
-3
390
13
347
21
  0
LAYER
  5
8C
330
1
100
AcDbSymbolTableRecord
100
AcDbLayerTableRecord
  2
A-DETL-GENF
 70
0
 62
92
  6
Continuous
370
18
390
13
347
21
348
0
  0
ENDTAB
  0
TABLE
  2
STYLE
  5
5
330
0
100
AcDbSymbolTable
 70
1
  0
STYLE
  5
29
330
5
100
AcDbSymbolTableRecord
100
AcDbTextStyleTableRecord
  2
Standard
 70
0
 40
0.0
 41
1.0
 50
0.0
 71
0
 42
2.5
  3
txt
  4

  0
ENDTAB
  0
TABLE
  2
VIEW
  5
7
330
0
100
AcDbSymbolTable
 70
0
  0
ENDTAB
  0
TABLE
  2
UCS
  5
6
330
0
100
AcDbSymbolTable
 70
0
  0
ENDTAB
  0
TABLE
  2
APPID
  5
3
330
0
100
AcDbSymbolTable
 70
3
  0
APPID
  5
2A
330
3
100
AcDbSymbolTableRecord
100
AcDbRegAppTableRecord
  2
ACAD
 70
0
  0
APPID
  5
8F
330
3
100
AcDbSymbolTableRecord
100
AcDbRegAppTableRecord
  2
HATCHBACKGROUNDCOLOR
 70
0
  0
APPID
  5
90
330
3
100
AcDbSymbolTableRecord
100
AcDbRegAppTableRecord
  2
EZDXF
 70
0
  0
ENDTAB
  0
TABLE
  2
DIMSTYLE
  5
4
330
0
100
AcDbSymbolTable
 70
1
100
AcDbDimStyleTable
  0
DIMSTYLE
105
2B
330
4
100
AcDbSymbolTableRecord
100
AcDbDimStyleTableRecord
  2
Standard
 70
0
 40
1.0
 41
2.5
 42
0.625
 43
3.75
 44
1.25
 45
0.0
 46
0.0
 47
0.0
 48
0.0
 49
2.5
140
2.5
141
2.5
142
0.0
143
0.03937007874
144
1.0
145
0.0
146
1.0
147
0.625
148
0.0
 69
0
 70
0
 71
0
 72
0
 73
0
 74
0
 75
0
 76
0
 77
1
 78
8
 79
3
170
0
171
3
172
1
173
0
174
0
175
0
176
0
177
0
178
0
179
2
271
2
272
2
273
2
274
3
275
0
276
0
277
2
278
44
279
0
280
0
281
0
282
0
283
0
284
8
285
0
286
0
288
0
289
3
290
0
371
-2
372
-2
  0
ENDTAB
  0
TABLE
  2
BLOCK_RECORD
  5
9
330
0
100
AcDbSymbolTable
 70
3
  0
BLOCK_RECORD
  5
17
330
9
100
AcDbSymbolTableRecord
100
AcDbBlockTableRecord
  2
*Model_Space
340
1A
 70
0
280
1
281
0
  0
BLOCK_RECORD
  5
1B
330
9
100
AcDbSymbolTableRecord
100
AcDbBlockTableRecord
  2
*Paper_Space
340
1E
 70
0
280
1
281
0
  0
BLOCK_RECORD
  5
2F
330
9
100
AcDbSymbolTableRecord
100
AcDbBlockTableRecord
  2
32 stalen kozijn kierdichting - 50x125 sp 15x48-4930931-00_0 Basismaterialen
340
0
 70
0
280
1
281
0
  0
ENDTAB
  0
ENDSEC
  0
SECTION
  2
BLOCKS
  0
BLOCK
  5
18
330
17
100
AcDbEntity
  8
0
100
AcDbBlockBegin
  2
*Model_Space
 70
0
 10
0.0
 20
0.0
 30
0.0
  3
*Model_Space
  1

  0
ENDBLK
  5
19
330
17
100
AcDbEntity
  8
0
100
AcDbBlockEnd
  0
BLOCK
  5
1C
330
1B
100
AcDbEntity
  8
0
100
AcDbBlockBegin
  2
*Paper_Space
 70
0
 10
0.0
 20
0.0
 30
0.0
  3
*Paper_Space
  1

  0
ENDBLK
  5
1D
330
1B
100
AcDbEntity
  8
0
100
AcDbBlockEnd
  0
BLOCK
  5
30
330
2F
100
AcDbEntity
  8
0
100
AcDbBlockBegin
  2
32 stalen kozijn kierdichting - 50x125 sp 15x48-4930931-00_0 Basismaterialen
 70
0
 10
0.0
 20
0.0
 30
0.0
  3
32 stalen kozijn kierdichting - 50x125 sp 15x48-4930931-00_0 Basismaterialen
  1

  0
HATCH
  5
32
330
2F
100
AcDbEntity
  8
A-DETL-GENF
370
13
100
AcDbHatch
 10
0.0
 20
0.0
 30
0.0
210
0.0
220
0.0
230
1.0
  2
SOLID
 70
1
 71
0
 91
1
 92
1
 93
83
 72
1
 10
32.99999999998167
 20
-72.50000000000301
 11
33.51763809018854
 21
-72.43185165258242
 72
1
 10
33.51763809018854
 20
-72.43185165258242
 11
33.99999999997927
 21
-72.2320508075708
 72
1
 10
33.99999999997927
 20
-72.2320508075708
 11
34.41421356235594
 21
-71.91421356237556
 72
1
 10
34.41421356235594
 20
-71.91421356237556
 11
34.73205080755117
 21
-71.50000000000324
 72
1
 10
34.73205080755117
 20
-71.50000000000324
 11
34.93185165256065
 21
-71.01763809020817
 72
1
 10
34.93185165256065
 20
-71.01763809020817
 11
34.99999999997689
 21
-70.50000000000347
 72
1
 10
34.99999999997689
 20
-70.50000000000347
 11
35.02693386655022
 21
-16.82485940127962
 72
1
 10
35.02693386655022
 20
-16.82485940127962
 11
35.13277014625518
 21
-16.26231690075797
 72
1
 10
35.13277014625518
 20
-16.26231690075797
 11
35.40251014335281
 21
-15.68179813704409
 72
1
 10
35.40251014335281
 20
-15.68179813704409
 11
35.80080060650744
 21
-15.19485983089366
 72
1
 10
35.80080060650744
 20
-15.19485983089366
 11
36.3035691075501
 21
-14.82278970392562
 72
1
 10
36.3035691075501
 20
-14.82278970392562
 11
36.88042863060823
 21
-14.5854442875366
 72
1
 10
36.88042863060823
 20
-14.5854442875366
 11
37.52944242905444
 21
-14.50000000000103
 72
1
 10
37.52944242905444
 20
-14.50000000000103
 11
42.78948996443568
 21
-14.50000000000103
 72
1
 10
42.78948996443568
 20
-14.50000000000103
 11
43.40522309906222
 21
-14.57716137250547
 72
1
 10
43.40522309906222
 20
-14.57716137250547
 11
43.98287595472504
 21
-14.80387341194543
 72
1
 10
43.98287595472504
 20
-14.80387341194543
 11
44.48672334359637
 21
-15.16611501531377
 72
1
 10
44.48672334359637
 20
-15.16611501531377
 11
44.88560460849447
 21
-15.64148319577286
 72
1
 10
44.88560460849447
 20
-15.64148319577286
 11
45.18490270873734
 21
-16.34923699399732
 72
1
 10
45.18490270873734
 20
-16.34923699399732
 11
45.27414219576748
 21
-16.88231868345729
 72
1
 10
45.27414219576748
 20
-16.88231868345729
 11
45.24035162049369
 21
-17.4656164046345
 72
1
 10
45.24035162049369
 20
-17.4656164046345
 11
44.41389167914223
 21
-22.15270364466452
 72
1
 10
44.41389167914223
 20
-22.15270364466452
 11
44.43012890036378
 21
-22.85242048595097
 72
1
 10
44.43012890036378
 20
-22.85242048595097
 11
44.48765249283128
 21
-23.13697330050392
 72
1
 10
44.48765249283128
 20
-23.13697330050392
 11
44.7034553388659
 21
-23.58509252773098
 72
1
 10
44.7034553388659
 20
-23.58509252773098
 11
45.02316170962557
 21
-23.96610374365903
 72
1
 10
45.02316170962557
 20
-23.96610374365903
 11
45.57428806986177
 21
-24.31424975743027
 72
1
 10
45.57428806986177
 20
-24.31424975743027
 11
46.0172301278152
 21
-24.45409952969284
 72
1
 10
46.0172301278152
 20
-24.45409952969284
 11
46.38350718516496
 21
-24.49999999999876
 72
1
 10
46.38350718516496
 20
-24.49999999999876
 11
48.01673940606994
 21
-24.49779621537889
 72
1
 10
48.01673940606994
 20
-24.49779621537889
 11
48.51763809018513
 21
-24.43185165257603
 72
1
 10
48.51763809018513
 20
-24.43185165257603
 11
48.99999999998019
 21
-24.23205080756872
 72
1
 10
48.99999999998019
 20
-24.23205080756872
 11
49.41421356235036
 21
-23.91421356237349
 72
1
 10
49.41421356235036
 20
-23.91421356237349
 11
49.73205080754776
 21
-23.50000000000115
 72
1
 10
49.73205080754776
 20
-23.50000000000115
 11
49.93185165255724
 21
-23.01763809020609
 72
1
 10
49.93185165255724
 20
-23.01763809020609
 11
49.9999999999778
 21
-22.50000000000138
 72
1
 10
49.9999999999778
 20
-22.50000000000138
 11
49.9999999999778
 21
70.5000000000013
 72
1
 10
49.9999999999778
 20
70.5000000000013
 11
49.93185165255724
 21
71.017638090206
 72
1
 10
49.93185165255724
 20
71.017638090206
 11
49.73205080754776
 21
71.50000000000107
 72
1
 10
49.73205080754776
 20
71.50000000000107
 11
49.41421356235036
 21
71.9142135623734
 72
1
 10
49.41421356235036
 20
71.9142135623734
 11
48.99999999997586
 21
72.2320508075708
 72
1
 10
48.99999999997586
 20
72.2320508075708
 11
48.51763809018081
 21
72.43185165258028
 72
1
 10
48.51763809018081
 20
72.43185165258028
 11
47.99999999997825
 21
72.50000000000084
 72
1
 10
47.99999999997825
 20
72.50000000000084
 11
1.99999999997572
 21
72.50000000000084
 72
1
 10
1.999999999975722
 20
72.50000000000084
 11
1.48236190977318
 21
72.43185165258028
 72
1
 10
1.48236190977318
 20
72.43185165258028
 11
0.9999999999781152
 21
72.2320508075708
 72
1
 10
0.9999999999781152
 20
72.2320508075708
 11
0.5857864376036162
 21
71.9142135623734
 72
1
 10
0.5857864376036162
 20
71.9142135623734
 11
0.2679491924083891
 21
71.50000000000107
 72
1
 10
0.2679491924083891
 20
71.50000000000107
 11
0.0681483474010747
 21
71.017638090206
 72
1
 10
0.0681483474010747
 20
71.017638090206
 11
-2.38231e-11
 21
70.5000000000013
 72
1
 10
-2.38231e-11
 20
70.5000000000013
 11
-2.38231e-11
 21
62.50000000000095
 72
1
 10
-2.38231e-11
 20
62.50000000000095
 11
1.499999999975836
 21
62.50000000000095
 72
1
 10
1.499999999975836
 20
62.50000000000095
 11
1.499999999975836
 21
71.00000000000118
 72
1
 10
1.499999999975836
 20
71.00000000000118
 11
48.49999999997814
 21
71.00000000000118
 72
1
 10
48.49999999997814
 20
71.00000000000118
 11
48.49999999997814
 21
-23.00000000000126
 72
1
 10
48.49999999997814
 20
-23.00000000000127
 11
45.78763038886851
 21
-23.00000000000127
 72
1
 10
45.78763038886851
 20
-23.00000000000127
 11
46.73287549307
 21
-17.4656164046345
 72
1
 10
46.73287549307
 20
-17.4656164046345
 11
46.77051246338794
 21
-16.71148827345051
 72
1
 10
46.77051246338794
 20
-16.71148827345051
 11
46.57285233326708
 21
-15.73371995377737
 72
1
 10
46.57285233326708
 20
-15.73371995377737
 11
46.14003282466835
 21
-14.83496098332111
 72
1
 10
46.14003282466835
 20
-14.83496098332111
 11
45.49882184515083
 21
-14.07079549486755
 72
1
 10
45.49882184515083
 20
-14.07079549486755
 11
44.68887536188086
 21
-13.48848362976389
 72
1
 10
44.68887536188086
 20
-13.48848362976389
 11
43.76028486140762
 21
-13.12403871426959
 72
1
 10
43.76028486140762
 20
-13.12403871426959
 11
42.77047942024199
 21
-13.00000000000137
 72
1
 10
42.77047942024199
 20
-13.00000000000137
 11
37.49018996353473
 21
-13.00129151579269
 72
1
 10
37.49018996353473
 20
-13.00129151579269
 11
36.3035691075501
 21
-13.20304916219811
 72
1
 10
36.3035691075501
 20
-13.20304916219811
 11
35.40251014335281
 21
-13.61070498289931
 72
1
 10
35.40251014335281
 20
-13.61070498289931
 11
34.67157287522994
 21
-14.17157287524976
 72
1
 10
34.67157287522994
 20
-14.17157287524976
 11
34.03589838483732
 21
-14.99999999999442
 72
1
 10
34.03589838483732
 20
-14.99999999999442
 11
33.63629669481836
 21
-15.96472381958672
 72
1
 10
33.63629669481836
 20
-15.96472381958672
 11
33.49999999998156
 21
-16.99999999999613
 72
1
 10
33.49999999998156
 20
-16.99999999999613
 11
33.49999999998156
 21
-71.00000000000118
 72
1
 10
33.49999999998156
 20
-71.00000000000118
 11
1.499999999975834
 21
-71.00000000000118
 72
1
 10
1.499999999975836
 20
-71.00000000000118
 11
1.499999999975836
 21
-62.49999999999879
 72
1
 10
1.499999999975836
 20
-62.49999999999879
 11
-2.38232e-11
 21
-62.49999999999879
 72
1
 10
-2.38231e-11
 20
-62.49999999999879
 11
-2.38231e-11
 21
-70.49999999999913
 72
1
 10
-2.38231e-11
 20
-70.49999999999913
 11
0.0681483474010747
 21
-71.01763809020385
 72
1
 10
0.0681483474010747
 20
-71.01763809020385
 11
0.2679491924083891
 21
-71.4999999999989
 72
1
 10
0.2679491924083891
 20
-71.4999999999989
 11
0.5857864376036162
 21
-71.9142135623734
 72
1
 10
0.5857864376036162
 20
-71.9142135623734
 11
0.9999999999781152
 21
-72.23205080756863
 72
1
 10
0.9999999999781152
 20
-72.23205080756863
 11
1.48236190977318
 21
-72.43185165257594
 72
1
 10
1.48236190977318
 20
-72.43185165257594
 11
1.999999999980053
 21
-72.50000000000084
 72
1
 10
1.999999999980053
 20
-72.50000000000084
 11
32.99999999998167
 21
-72.50000000000301
 97
0
 75
0
 76
1
 98
1
 10
0.0
 20
0.0
450
0
451
0
460
0.0
461
0.0
452
0
462
0.0
453
0
470

  0
HATCH
  5
33
330
2F
100
AcDbEntity
  8
A-DETL-GENF
370
13
100
AcDbHatch
 10
0.0
 20
0.0
 30
0.0
210
0.0
220
0.0
230
1.0
  2
SOLID
 70
1
 71
0
 91
3
 92
1
 93
42
 72
1
 10
44.03380744357234
 20
-28.49999999999785
 11
45.47761119117465
 21
-28.49999999999785
 72
1
 10
45.47761119117465
 20
-28.49999999999785
 11
46.40704456111177
 21
-28.20303646587648
 72
1
 10
46.40704456111177
 20
-28.20303646587648
 11
47.25214530076603
 21
-27.71534960980401
 72
1
 10
47.25214530076603
 20
-27.71534960980401
 11
47.97431056002826
 21
-27.05921618734578
 72
1
 10
47.97431056002826
 20
-27.05921618734578
 11
48.54055298490487
 21
-26.26460732380301
 72
1
 10
48.54055298490487
 20
-26.26460732380301
 11
48.92500752709575
 21
-25.36781948114411
 72
1
 10
48.92500752709575
 20
-25.36781948114411
 11
48.96499981497279
 21
-24.93057428802793
 72
1
 10
48.96499981497279
 20
-24.93057428802793
 11
48.89093307595166
 21
-24.49779621537889
 72
1
 10
48.89093307595166
 20
-24.49779621537889
 11
47.83205206363507
 21
-24.49779621537889
 72
1
 10
47.83205206363507
 20
-24.49779621537889
 11
47.24204374707012
 21
-24.68258684651662
 72
1
 10
47.24204374707012
 20
-24.68258684651662
 11
46.62484219179616
 21
-24.7189135741665
 72
1
 10
46.62484219179616
 20
-24.7189135741665
 11
46.0172301278152
 21
-24.60461147148813
 72
1
 10
46.0172301278152
 20
-24.60461147148813
 11
45.45541879001659
 21
-24.34649248402124
 72
1
 10
45.45541879001659
 20
-24.34649248402124
 11
44.97288987424368
 21
-23.95993946513137
 72
1
 10
44.97288987424368
 20
-23.95993946513137
 11
44.59840016289516
 21
-23.46798941983193
 72
1
 10
44.59840016289516
 20
-23.46798941983193
 11
44.35426773639253
 21
-22.8999605919542
 72
1
 10
44.35426773639253
 20
-22.8999605919542
 11
44.07427303993924
 21
-16.81012463759084
 72
1
 10
44.07427303993924
 20
-16.81012463759084
 11
44.85204007332438
 21
-17.07071185663109
 72
1
 10
44.85204007332438
 20
-17.07071185663109
 11
45.14171068569683
 21
-16.95135045374822
 72
1
 10
45.14171068569683
 20
-16.95135045374822
 11
45.20980208701925
 21
-16.80478832085556
 72
1
 10
45.20980208701925
 20
-16.80478832085556
 11
45.21488109728103
 21
-16.72351630956867
 72
1
 10
45.21488109728103
 20
-16.72351630956867
 11
45.04887684276612
 21
-16.45781197077865
 72
1
 10
45.04887684276612
 20
-16.45781197077865
 11
41.39474305356737
 21
-15.02574012198541
 72
1
 10
41.39474305356737
 20
-15.02574012198541
 11
37.4965141444665
 21
-14.58810496430702
 72
1
 10
37.4965141444665
 20
-14.58810496430702
 11
36.88042863060823
 21
-14.67257128829374
 72
1
 10
36.88042863060823
 20
-14.67257128829374
 11
36.3035691075501
 21
-14.90479749467241
 72
1
 10
36.3035691075501
 20
-14.90479749467241
 11
35.80080060650744
 21
-15.27074797579237
 72
1
 10
35.80080060650744
 20
-15.27074797579237
 11
35.40251014335281
 21
-15.74830491191005
 72
1
 10
35.40251014335281
 20
-15.74830491191005
 11
35.13277014625518
 21
-16.30860505847349
 72
1
 10
35.13277014625518
 20
-16.30860505847349
 11
35.00788353307307
 21
-16.91778422269343
 72
1
 10
35.00788353307307
 20
-16.91778422269343
 11
36.07057334923201
 21
-16.5724953704367
 72
1
 10
36.07057334923201
 20
-16.5724953704367
 11
36.07057334923201
 21
-20.43507497871985
 72
1
 10
36.07057334923201
 20
-20.43507497871985
 11
35.04427640151951
 21
-21.23453661273568
 72
1
 10
35.04427640151951
 20
-21.23453661273568
 11
35.04427640151951
 21
-22.03086976405671
 72
1
 10
35.04427640151951
 20
-22.03086976405671
 11
36.07057334923201
 21
-22.04597335079321
 72
1
 10
36.07057334923201
 20
-22.04597335079321
 11
36.07057334923201
 21
-25.42468961157112
 72
1
 10
36.07057334923201
 20
-25.42468961157112
 11
34.99999999997689
 21
-26.23142449483459
 72
1
 10
34.99999999997689
 20
-26.23142449483459
 11
34.99999999997689
 21
-27.22508861469059
 72
1
 10
34.99999999997689
 20
-27.22508861469059
 11
35.60335818228571
 21
-26.95944309950189
 72
1
 10
35.60335818228571
 20
-26.95944309950189
 11
36.25381982132495
 21
-26.85216639170228
 72
1
 10
36.25381982132495
 20
-26.85216639170228
 11
36.91052695748917
 21
-26.90999694768772
 72
1
 10
36.91052695748917
 20
-26.90999694768772
 11
44.03380744357234
 21
-28.49999999999785
 97
0
 92
1
 93
23
 72
1
 10
44.55561425028845
 20
-27.68887307989602
 11
37.42654822295649
 21
-26.08625004016119
 72
1
 10
37.42654822295649
 20
-26.08625004016119
 11
37.20142506794299
 21
-25.8205488110667
 72
1
 10
37.20142506794299
 20
-25.8205488110667
 11
37.12057334923394
 21
-25.48181502526219
 72
1
 10
37.12057334923394
 20
-25.48181502526219
 11
37.1374139530857
 21
-22.52743580618193
 72
1
 10
37.1374139530857
 20
-22.52743580618193
 11
37.26621745378334
 21
-22.28465151317631
 72
1
 10
37.26621745378334
 20
-22.28465151317631
 11
37.49378242484881
 21
-22.13054525546638
 72
1
 10
37.49378242484881
 20
-22.13054525546638
 11
37.76703178587356
 21
-22.10106065914159
 72
1
 10
37.76703178587356
 20
-22.10106065914159
 11
43.24145177837148
 21
-22.85242048595097
 72
1
 10
43.24145177837148
 20
-22.85242048595097
 11
43.4157961844103
 21
-23.59370285667626
 72
1
 10
43.4157961844103
 20
-23.59370285667626
 11
43.75959825945095
 21
-24.27318476096723
 72
1
 10
43.75959825945095
 20
-24.27318476096723
 11
44.25356889274211
 21
-24.85274367817072
 72
1
 10
44.25356889274211
 20
-24.85274367817072
 11
44.86999372492769
 21
-25.29986329452721
 72
1
 10
44.86999372492769
 20
-25.29986329452721
 11
45.57428806986177
 21
-25.58945783997556
 72
1
 10
45.57428806986177
 20
-25.58945783997556
 11
46.3269372980323
 21
-25.70527953224488
 72
1
 10
46.3269372980323
 20
-25.70527953224488
 11
47.26884189341006
 21
-25.65127019019874
 72
1
 10
47.26884189341006
 20
-25.65127019019874
 11
47.42249755421534
 21
-25.75144416327436
 72
1
 10
47.42249755421534
 20
-25.75144416327436
 11
47.50593962704948
 21
-25.91479136239726
 72
1
 10
47.50593962704948
 20
-25.91479136239726
 11
47.49704378695509
 21
-26.09800094459215
 72
1
 10
47.49704378695509
 20
-26.09800094459215
 11
47.45772086031299
 21
-26.18172153494301
 72
1
 10
47.45772086031299
 20
-26.18172153494301
 11
46.90791486678366
 21
-26.83456605493657
 72
1
 10
46.90791486678366
 20
-26.83456605493657
 11
46.20814324001571
 21
-27.3232502762709
 72
1
 10
46.20814324001571
 20
-27.3232502762709
 11
45.40589515984548
 21
-27.61461021804232
 72
1
 10
45.40589515984548
 20
-27.61461021804232
 11
44.55561425028845
 21
-27.68887307989602
 97
0
 92
1
 93
17
 72
1
 10
42.6865254533453
 20
-21.7688383361562
 11
37.47335212854822
 21
-21.03705894671152
 72
1
 10
37.47335212854822
 20
-21.03705894671152
 11
37.2577707315747
 21
-20.88445823484109
 72
1
 10
37.2577707315747
 20
-20.88445823484109
 11
37.13641059356735
 21
-20.64986489971202
 72
1
 10
37.13641059356735
 20
-20.64986489971202
 11
37.12057334923394
 21
-20.51780211541514
 72
1
 10
37.12057334923394
 20
-20.51780211541514
 11
37.13755827207458
 21
-16.17922833910256
 72
1
 10
37.13755827207458
 20
-16.17922833910256
 11
37.26659235135181
 21
-15.95531776021374
 72
1
 10
37.26659235135181
 20
-15.95531776021374
 11
37.49018996353473
 21
-15.82574211135075
 72
1
 10
37.49018996353473
 20
-15.82574211135075
 11
37.61936316179275
 21
-15.80844449027512
 72
1
 10
37.61936316179275
 20
-15.80844449027512
 11
40.10469882702781
 21
-15.90839792377892
 72
1
 10
40.10469882702781
 20
-15.90839792377892
 11
42.71471824939009
 21
-16.48638250800099
 72
1
 10
42.71471824939009
 20
-16.48638250800099
 11
42.98128848946983
 21
-16.7520416421865
 72
1
 10
42.98128848946983
 20
-16.7520416421865
 11
43.0883376007998
 21
-17.1128393087996
 72
1
 10
43.0883376007998
 20
-17.1128393087996
 11
43.23984768548551
 21
-21.38156471603228
 72
1
 10
43.23984768548551
 20
-21.38156471603228
 11
43.13074263423812
 21
-21.59955113650948
 72
1
 10
43.13074263423812
 20
-21.59955113650948
 11
42.93004962000366
 21
-21.7379140858763
 72
1
 10
42.93004962000366
 20
-21.7379140858763
 11
42.81032645965548
 21
-21.76547148715698
 72
1
 10
42.81032645965548
 20
-21.76547148715698
 11
42.6865254533453
 21
-21.7688383361562
 97
0
 75
0
 76
1
 98
1
 10
0.0
 20
0.0
450
0
451
0
460
0.0
461
0.0
452
0
462
0.0
453
0
470

  0
LINE
  5
34
330
2F
100
AcDbEntity
  8
A-DETL-GENF
100
AcDbLine
 10
0.0
 20
70.50000000000017
 30
0.0
 11
0.0
 21
62.50000000000113
 31
0.0
  0
LINE
  5
35
330
2F
100
AcDbEntity
  8
A-DETL-GENF
100
AcDbLine
 10
0.0
 20
62.50000000000113
 30
0.0
 11
1.500000000000014
 21
62.50000000000113
 31
0.0
  0
LINE
  5
36
330
2F
100
AcDbEntity
  8
A-DETL-GENF
100
AcDbLine
 10
1.500000000000014
 20
62.50000000000113
 30
0.0
 11
1.500000000000014
 21
71.0000000000002
 31
0.0
  0
LINE
  5
37
330
2F
100
AcDbEntity
  8
A-DETL-GENF
100
AcDbLine
 10
1.500000000000014
 20
71.0000000000002
 30
0.0
 11
48.50000000000042
 21
71.0000000000002
 31
0.0
  0
LINE
  5
38
330
2F
100
AcDbEntity
  8
A-DETL-GENF
100
AcDbLine
 10
48.50000000000042
 20
71.0000000000002
 30
0.0
 11
48.50000000000042
 21
52.50000000000091
 31
0.0
  0
LINE
  5
39
330
2F
100
AcDbEntity
  8
A-DETL-GENF
100
AcDbLine
 10
48.50000000000042
 20
35.00000000000079
 30
0.0
 11
48.50000000000042
 21
-23.00000000000097
 31
0.0
  0
LINE
  5
3A
330
2F
100
AcDbEntity
  8
A-DETL-GENF
100
AcDbLine
 10
48.50000000000042
 20
-23.00000000000098
 30
0.0
 11
45.78763038889212
 21
-23.00000000000098
 31
0.0
  0
LINE
  5
3B
330
2F
100
AcDbEntity
  8
A-DETL-GENF
100
AcDbLine
 10
45.78763038889208
 20
-23.00000000000098
 30
0.0
 11
46.72078883979335
 21
-17.70779544257741
 31
0.0
  0
ARC
  5
3C
330
2F
100
AcDbEntity
  8
A-DETL-GENF
100
AcDbCircle
 10
42.77047942026483
 20
-17.01124930977397
 30
0.0
 40
4.011249309772148
100
AcDbArc
 50
350.0000000000618
 51
89.99999999999959
  0
LINE
  5
3D
330
2F
100
AcDbEntity
  8
A-DETL-GENF
100
AcDbLine
 10
42.77047942026483
 20
-13.00000000000288
 30
0.0
 11
37.49999999999854
 21
-13.00000000000288
 31
0.0
  0
ARC
  5
3E
330
2F
100
AcDbEntity
  8
A-DETL-GENF
100
AcDbCircle
 10
37.49999999999854
 20
-16.99999999999693
 30
0.0
 40
3.999999999999981
100
AcDbArc
 50
89.99999999999964
 51
180.0
  0
LINE
  5
3F
330
2F
100
AcDbEntity
  8
A-DETL-GENF
100
AcDbLine
 10
33.50000000000451
 20
-16.99999999999695
 30
0.0
 11
33.50000000000451
 21
-35.00000000000258
 31
0.0
  0
LINE
  5
40
330
2F
100
AcDbEntity
  8
A-DETL-GENF
100
AcDbLine
 10
33.50000000000451
 20
-53.47590991487391
 30
0.0
 11
33.50000000000451
 21
-71.00000000000198
 31
0.0
  0
LINE
  5
41
330
2F
100
AcDbEntity
  8
A-DETL-GENF
100
AcDbLine
 10
33.50000000000451
 20
-71.00000000000198
 30
0.0
 11
1.500000000000213
 21
-71.00000000000198
 31
0.0
  0
LINE
  5
42
330
2F
100
AcDbEntity
  8
A-DETL-GENF
100
AcDbLine
 10
1.500000000000213
 20
-71.00000000000198
 30
0.0
 11
1.500000000000213
 21
-62.49999999999995
 31
0.0
  0
LINE
  5
43
330
2F
100
AcDbEntity
  8
A-DETL-GENF
100
AcDbLine
 10
1.500000000000213
 20
-62.49999999999995
 30
0.0
 11
0.0
 21
-62.49999999999995
 31
0.0
  0
LINE
  5
44
330
2F
100
AcDbEntity
  8
A-DETL-GENF
100
AcDbLine
 10
0.0
 20
-62.49999999999995
 30
0.0
 11
0.0
 21
-70.49999999999993
 31
0.0
  0
ARC
  5
45
330
2F
100
AcDbEntity
  8
A-DETL-GENF
100
AcDbCircle
 10
2.000000000000217
 20
-70.49999999999993
 30
0.0
 40
2.000000000000003
100
AcDbArc
 50
179.9999999999999
 51
269.999999999999
  0
LINE
  5
46
330
2F
100
AcDbEntity
  8
A-DETL-GENF
100
AcDbLine
 10
2.000000000000218
 20
-72.50000000000016
 30
0.0
 11
33.00000000000417
 21
-72.50000000000016
 31
0.0
  0
ARC
  5
47
330
2F
100
AcDbEntity
  8
A-DETL-GENF
100
AcDbCircle
 10
33.00000000000417
 20
-70.50000000000409
 30
0.0
 40
1.999999999999984
100
AcDbArc
 50
269.9999999999989
 51
1.018e-13
  0
LINE
  5
48
330
2F
100
AcDbEntity
  8
A-DETL-GENF
100
AcDbLine
 10
35.00000000000023
 20
-70.50000000000409
 30
0.0
 11
35.00000000000023
 21
-27.22508861469191
 31
0.0
  0
LINE
  5
49
330
2F
100
AcDbEntity
  8
A-DETL-GENF
100
AcDbLine
 10
35.00000000000023
 20
-26.23142449483568
 30
0.0
 11
35.00000000000023
 21
-22.03086976405817
 31
0.0
  0
LINE
  5
4A
330
2F
100
AcDbEntity
  8
A-DETL-GENF
100
AcDbLine
 10
35.00000000000023
 20
-21.23453661273595
 30
0.0
 11
35.00000000000023
 21
-17.02944242908209
 31
0.0
  0
ARC
  5
4B
330
2F
100
AcDbEntity
  8
A-DETL-GENF
100
AcDbCircle
 10
37.52944242907921
 20
-17.02944242908209
 30
0.0
 40
2.52944242907835
100
AcDbArc
 50
177.4416445926402
 51
180.0000000000004
  0
ARC
  5
4C
330
2F
100
AcDbEntity
  8
A-DETL-GENF
100
AcDbCircle
 10
37.52944242907921
 20
-17.02944242908209
 30
0.0
 40
2.529442429078351
100
AcDbArc
 50
90.00000000000047
 51
165.0000000000004
  0
LINE
  5
4D
330
2F
100
AcDbEntity
  8
A-DETL-GENF
100
AcDbLine
 10
37.52944242907921
 20
-14.50000000000313
 30
0.0
 11
42.78948996445818
 21
-14.50000000000313
 31
0.0
  0
ARC
  5
4E
330
2F
100
AcDbEntity
  8
A-DETL-GENF
100
AcDbCircle
 10
42.78948996445818
 20
-16.995297569153
 30
0.0
 40
2.495297569150779
100
AcDbArc
 50
350.0000000001313
 51
90.00000000000018
  0
LINE
  5
4F
330
2F
100
AcDbEntity
  8
A-DETL-GENF
100
AcDbLine
 10
45.24687835663039
 20
-17.42860144476759
 30
0.0
 11
44.41389167916424
 21
-22.15270364466515
 31
0.0
  0
ARC
  5
50
330
2F
100
AcDbEntity
  8
A-DETL-GENF
100
AcDbCircle
 10
46.38350718518866
 20
-22.49999999999994
 30
0.0
 40
1.999999999999996
100
AcDbArc
 50
170.0
 51
198.571428571428
  0
ARC
  5
51
330
2F
100
AcDbEntity
  8
A-DETL-GENF
100
AcDbCircle
 10
46.38350718518866
 20
-22.49999999999994
 30
0.0
 40
1.99999999999999
100
AcDbArc
 50
227.1428571428566
 51
269.9999999999993
  0
LINE
  5
52
330
2F
100
AcDbEntity
  8
A-DETL-GENF
100
AcDbLine
 10
46.38350718518871
 20
-24.5000000000001
 30
0.0
 11
47.83205206365973
 21
-24.5000000000001
 31
0.0
  0
ARC
  5
53
330
2F
100
AcDbEntity
  8
A-DETL-GENF
100
AcDbCircle
 10
48.00000000000241
 20
-22.5000000000024
 30
0.0
 40
1.999999999997621
100
AcDbArc
 50
269.9999999999989
 51
359.9999999999992
  0
LINE
  5
54
330
2F
100
AcDbEntity
  8
A-DETL-GENF
100
AcDbLine
 10
50.00000000000012
 20
-22.50000000000242
 30
0.0
 11
50.00000000000012
 21
70.50000000000017
 31
0.0
  0
ARC
  5
55
330
2F
100
AcDbEntity
  8
A-DETL-GENF
100
AcDbCircle
 10
48.00000000000009
 20
70.50000000000017
 30
0.0
 40
1.999999999999999
100
AcDbArc
 50
359.9999999999993
 51
89.99999999999888
  0
LINE
  5
56
330
2F
100
AcDbEntity
  8
A-DETL-GENF
100
AcDbLine
 10
48.0000000000001
 20
72.5000000000002
 30
0.0
 11
2.000000000000002
 21
72.5000000000002
 31
0.0
  0
ARC
  5
57
330
2F
100
AcDbEntity
  8
A-DETL-GENF
100
AcDbCircle
 10
2.000000000000021
 20
70.50000000000017
 30
0.0
 40
2.000000000000005
100
AcDbArc
 50
90.00000000000006
 51
179.9999999999996
  0
LINE
  5
58
330
2F
100
AcDbEntity
  8
A-DETL-GENF
370
13
100
AcDbLine
 10
48.50000000000014
 20
34.99999999999996
 30
0.0
 11
48.50000000000014
 21
52.49999999999999
 31
0.0
  0
LINE
  5
59
330
2F
100
AcDbEntity
  8
A-DETL-GENF
370
13
100
AcDbLine
 10
48.50000000000014
 20
52.49999999999999
 30
0.0
 11
46.50000000000023
 21
52.49999999999999
 31
0.0
  0
LINE
  5
5A
330
2F
100
AcDbEntity
  8
A-DETL-GENF
370
13
100
AcDbLine
 10
46.50000000000023
 20
52.49999999999999
 30
0.0
 11
46.50000000000023
 21
35.00000000000006
 31
0.0
  0
LINE
  5
5B
330
2F
100
AcDbEntity
  8
A-DETL-GENF
370
13
100
AcDbLine
 10
46.50000000000023
 20
35.00000000000006
 30
0.0
 11
12.00000000000012
 21
35.00000000000006
 31
0.0
  0
ARC
  5
5C
330
2F
100
AcDbEntity
  8
A-DETL-GENF
370
13
100
AcDbCircle
 10
12.00000000000016
 20
32.9999999999999
 30
0.0
 40
1.999999999999993
100
AcDbArc
 50
89.99999999999976
 51
180.0
  0
LINE
  5
5D
330
2F
100
AcDbEntity
  8
A-DETL-GENF
370
13
100
AcDbLine
 10
10.0
 20
32.99999999999989
 30
0.0
 11
10.0
 21
-33.00000000000006
 31
0.0
  0
ARC
  5
5E
330
2F
100
AcDbEntity
  8
A-DETL-GENF
370
13
100
AcDbCircle
 10
12.00000000000001
 20
-33.00000000000006
 30
0.0
 40
2.000000000000008
100
AcDbArc
 50
179.9999999999995
 51
269.9999999999994
  0
LINE
  5
5F
330
2F
100
AcDbEntity
  8
A-DETL-GENF
370
13
100
AcDbLine
 10
12.00000000000001
 20
-35.00000000000006
 30
0.0
 11
31.50000000000205
 21
-35.00000000000006
 31
0.0
  0
LINE
  5
60
330
2F
100
AcDbEntity
  8
A-DETL-GENF
370
13
100
AcDbLine
 10
31.50000000000205
 20
-35.00000000000006
 30
0.0
 11
31.50000000000205
 21
-53.47590991487267
 31
0.0
  0
LINE
  5
61
330
2F
100
AcDbEntity
  8
A-DETL-GENF
370
13
100
AcDbLine
 10
31.50000000000205
 20
-53.47590991487267
 30
0.0
 11
33.50000000000206
 21
-53.47590991487267
 31
0.0
  0
LINE
  5
62
330
2F
100
AcDbEntity
  8
A-DETL-GENF
370
13
100
AcDbLine
 10
33.50000000000206
 20
-53.47590991487267
 30
0.0
 11
33.50000000000206
 21
-35.00000000000115
 31
0.0
  0
ARC
  5
63
330
2F
100
AcDbEntity
  8
A-DETL-GENF
370
13
100
AcDbCircle
 10
31.50000000000205
 20
-35.00000000000112
 30
0.0
 40
1.999999999999985
100
AcDbArc
 50
359.9999999999988
 51
89.9999999999998
  0
LINE
  5
64
330
2F
100
AcDbEntity
  8
A-DETL-GENF
370
13
100
AcDbLine
 10
31.50000000000205
 20
-33.00000000000112
 30
0.0
 11
12.02772202222496
 21
-33.00000000000112
 31
0.0
  0
LINE
  5
65
330
2F
100
AcDbEntity
  8
A-DETL-GENF
370
13
100
AcDbLine
 10
12.02772202222496
 20
-33.00000000000112
 30
0.0
 11
12.02772202222496
 21
33.00000000000002
 31
0.0
  0
LINE
  5
66
330
2F
100
AcDbEntity
  8
A-DETL-GENF
370
13
100
AcDbLine
 10
12.02772202222492
 20
33.00000000000006
 30
0.0
 11
46.50000000000024
 21
33.00000000000006
 31
0.0
  0
ARC
  5
67
330
2F
100
AcDbEntity
  8
A-DETL-GENF
370
13
100
AcDbCircle
 10
46.50000000000024
 20
34.99999999999996
 30
0.0
 40
1.999999999999991
100
AcDbArc
 50
269.9999999999988
 51
359.9999999999993
  0
ARC
  5
68
330
2F
100
AcDbEntity
  8
A-DETL-GENF
370
13
100
AcDbCircle
 10
37.69513066735779
 20
-29.8438795959912
 30
0.0
 40
15.27299542589531
100
AcDbArc
 50
61.2174455756315
 51
90.74589759546865
  0
ARC
  5
69
330
2F
100
AcDbEntity
  8
A-DETL-GENF
100
AcDbCircle
 10
37.52944242907908
 20
-17.11733305408046
 30
0.0
 40
2.529442429078332
100
AcDbArc
 50
90.74589759546814
 51
175.4752088313631
  0
LINE
  5
6A
330
2F
100
AcDbEntity
  8
A-DETL-GENF
370
13
100
AcDbLine
 10
35.00788353309554
 20
-16.91778422269325
 30
0.0
 11
36.07057334925493
 21
-16.57249537043697
 31
0.0
  0
LINE
  5
6B
330
2F
100
AcDbEntity
  8
A-DETL-GENF
370
13
100
AcDbLine
 10
36.07057334925493
 20
-16.57249537043697
 30
0.0
 11
36.07057334925493
 21
-20.4350749787208
 31
0.0
  0
LINE
  5
6C
330
2F
100
AcDbEntity
  8
A-DETL-GENF
370
13
100
AcDbLine
 10
36.07057334925493
 20
-20.4350749787208
 30
0.0
 11
35.04427640154213
 21
-21.23453661273619
 31
0.0
  0
LINE
  5
6D
330
2F
100
AcDbEntity
  8
A-DETL-GENF
370
13
100
AcDbLine
 10
35.04427640154213
 20
-21.23453661273619
 30
0.0
 11
35.04427640154213
 21
-22.03086976405785
 31
0.0
  0
LINE
  5
6E
330
2F
100
AcDbEntity
  8
A-DETL-GENF
370
13
100
AcDbLine
 10
35.04427640154213
 20
-22.03086976405785
 30
0.0
 11
36.07057334925493
 21
-22.04597335079401
 31
0.0
  0
LINE
  5
6F
330
2F
100
AcDbEntity
  8
A-DETL-GENF
370
13
100
AcDbLine
 10
36.07057334925493
 20
-22.04597335079401
 30
0.0
 11
36.07057334925493
 21
-25.42468961157205
 31
0.0
  0
LINE
  5
70
330
2F
100
AcDbEntity
  8
A-DETL-GENF
370
13
100
AcDbLine
 10
36.07057334925493
 20
-25.42468961157205
 30
0.0
 11
35.00000000000004
 21
-26.23142449483518
 31
0.0
  0
LINE
  5
71
330
2F
100
AcDbEntity
  8
A-DETL-GENF
370
13
100
AcDbLine
 10
35.00000000000004
 20
-26.23142449483518
 30
0.0
 11
35.00000000000004
 21
-27.22508861469196
 31
0.0
  0
ARC
  5
72
330
2F
100
AcDbEntity
  8
A-DETL-GENF
370
13
100
AcDbCircle
 10
36.35324858229726
 20
-29.48068583963193
 30
0.0
 40
2.630399316956699
100
AcDbArc
 50
77.76858065598277
 51
120.9617065664574
  0
LINE
  5
73
330
2F
100
AcDbEntity
  8
A-DETL-GENF
370
13
100
AcDbLine
 10
36.91052695751196
 20
-26.90999694768791
 30
0.0
 11
44.03380744359536
 21
-28.50000000000035
 31
0.0
  0
LINE
  5
74
330
2F
100
AcDbEntity
  8
A-DETL-GENF
100
AcDbLine
 10
44.03380744359533
 20
-28.50000000000035
 30
0.0
 11
45.47761119119836
 21
-28.50000000000035
 31
0.0
  0
ARC
  5
75
330
2F
100
AcDbEntity
  8
A-DETL-GENF
370
13
100
AcDbCircle
 10
44.56081900976667
 20
-24.02768620054337
 30
0.0
 40
4.565314734467678
100
AcDbArc
 50
281.5847309861531
 51
342.9295857093966
  0
ARC
  5
76
330
2F
100
AcDbEntity
  8
A-DETL-GENF
370
13
100
AcDbCircle
 10
47.27738690628242
 20
-24.99666962808003
 30
0.0
 40
1.688906724372066
100
AcDbArc
 50
347.3052121025544
 51
17.1804723938619
  0
LINE
  5
77
330
2F
100
AcDbEntity
  8
A-DETL-GENF
370
13
100
AcDbLine
 10
48.89093307597505
 20
-24.49779621537956
 30
0.0
 11
47.83205206365795
 21
-24.49779621537956
 31
0.0
  0
ARC
  5
78
330
2F
100
AcDbEntity
  8
A-DETL-GENF
370
13
100
AcDbCircle
 10
46.78575055667844
 20
-22.19141362096016
 30
0.0
 40
2.532616732817714
100
AcDbArc
 50
196.24640237778
 51
294.4016474194249
  0
LINE
  5
79
330
2F
100
AcDbEntity
  8
A-DETL-GENF
370
13
100
AcDbLine
 10
44.35426773641383
 20
-22.89996059195527
 30
0.0
 11
44.0742730399601
 21
-16.81012463759245
 31
0.0
  0
LINE
  5
7A
330
2F
100
AcDbEntity
  8
A-DETL-GENF
370
13
100
AcDbLine
 10
44.0742730399601
 20
-16.81012463759245
 30
0.0
 11
44.85204007334799
 21
-17.07071185663134
 31
0.0
  0
ARC
  5
7B
330
2F
100
AcDbEntity
  8
A-DETL-GENF
370
13
100
AcDbCircle
 10
44.88676266478065
 20
-16.74380559699321
 30
0.0
 40
0.3287451306808963
100
AcDbArc
 50
263.9370184023154
 51
60.4534657849132
  0
ARC
  5
7C
330
2F
100
AcDbEntity
  8
A-DETL-GENF
370
13
100
AcDbCircle
 10
38.25095204361807
 20
-31.05285983222944
 30
0.0
 40
15.25749336010217
100
AcDbArc
 50
73.67047777742914
 51
92.37245525127717
  0
ARC
  5
7D
330
2F
100
AcDbEntity
  8
A-DETL-GENF
370
13
100
AcDbCircle
 10
42.32636723068533
 20
-17.14263721977174
 30
0.0
 40
0.762552791920886
100
AcDbArc
 50
2.239489977710118
 51
73.67047777742923
  0
LINE
  5
7E
330
2F
100
AcDbEntity
  8
A-DETL-GENF
370
13
100
AcDbLine
 10
43.08833760082325
 20
-17.1128393088011
 30
0.0
 11
43.25048572273868
 21
-21.25917240560182
 31
0.0
  0
ARC
  5
7F
330
2F
100
AcDbEntity
  8
A-DETL-GENF
370
13
100
AcDbCircle
 10
42.76122565863069
 20
-21.27830560080617
 30
0.0
 40
0.4896340362859878
100
AcDbArc
 50
261.3413028875531
 51
2.239489977710115
  0
LINE
  5
80
330
2F
100
AcDbEntity
  8
A-DETL-GENF
370
13
100
AcDbLine
 10
42.68652545336901
 20
-21.76883833615822
 30
0.0
 11
37.60196144668209
 21
-21.0709859359566
 31
0.0
  0
ARC
  5
81
330
2F
100
AcDbEntity
  8
A-DETL-GENF
370
13
100
AcDbCircle
 10
37.67911108889504
 20
-20.51780211541526
 30
0.0
 40
0.5585377396401304
100
AcDbArc
 50
180.0
 51
262.0604699540546
  0
LINE
  5
82
330
2F
100
AcDbEntity
  8
A-DETL-GENF
370
13
100
AcDbLine
 10
37.1205733492549
 20
-20.51780211541526
 30
0.0
 11
37.1205733492549
 21
-16.3084430257217
 31
0.0
  0
ARC
  5
83
330
2F
100
AcDbEntity
  8
A-DETL-GENF
370
13
100
AcDbCircle
 10
37.62057334925502
 20
-16.3084430257217
 30
0.0
 40
0.5000000000001102
100
AcDbArc
 50
90.1386774009908
 51
180.0000000000004
  0
LINE
  5
84
330
2F
100
AcDbEntity
  8
A-DETL-GENF
370
13
100
AcDbLine
 10
37.1205733492549
 20
-25.48181502526245
 30
0.0
 11
37.1205733492549
 21
-22.66485355860293
 31
0.0
  0
ARC
  5
85
330
2F
100
AcDbEntity
  8
A-DETL-GENF
370
13
100
AcDbCircle
 10
37.68965165505551
 20
-22.66485355860293
 30
0.0
 40
0.5690783058006134
100
AcDbArc
 50
82.1850264701564
 51
180.0000000000001
  0
LINE
  5
86
330
2F
100
AcDbEntity
  8
A-DETL-GENF
370
13
100
AcDbLine
 10
37.76703178589639
 20
-22.10106065914077
 30
0.0
 11
43.24145177839362
 21
-22.85242048595216
 31
0.0
  0
ARC
  5
87
330
2F
100
AcDbEntity
  8
A-DETL-GENF
370
13
100
AcDbCircle
 10
46.43614787282653
 20
-22.49219388260831
 30
0.0
 40
3.214941110120292
100
AcDbArc
 50
186.4333672453209
 51
281.6566282205091
  0
ARC
  5
88
330
2F
100
AcDbEntity
  8
A-DETL-GENF
370
13
100
AcDbCircle
 10
47.15768643192848
 20
-25.98970250289641
 30
0.0
 40
0.3562189872794967
100
AcDbArc
 50
327.3811636413598
 51
101.6566282205102
  0
ARC
  5
89
330
2F
100
AcDbEntity
  8
A-DETL-GENF
370
13
100
AcDbCircle
 10
44.69811264440492
 20
-24.41559988928394
 30
0.0
 40
3.276373478818335
100
AcDbArc
 50
267.5072644036049
 51
327.3811636413601
  0
LINE
  5
8A
330
2F
100
AcDbEntity
  8
A-DETL-GENF
370
13
100
AcDbLine
 10
44.55561425031167
 20
-27.68887307989682
 30
0.0
 11
37.57901009009035
 21
-26.1728221640861
 31
0.0
  0
ARC
  5
8B
330
2F
100
AcDbEntity
  8
A-DETL-GENF
370
13
100
AcDbCircle
 10
37.87057334925479
 20
-25.48181502526245
 30
0.0
 40
0.7499999999999
100
AcDbArc
 50
180.0000000000004
 51
247.1231939656956
  0
ENDBLK
  5
31
330
2F
100
AcDbEntity
  8
0
100
AcDbBlockEnd
  0
ENDSEC
  0
SECTION
  2
ENTITIES
  0
INSERT
  5
8D
330
17
100
AcDbEntity
  8
0
100
AcDbBlockReference
  2
32 stalen kozijn kierdichting - 50x125 sp 15x48-4930931-00_0 Basismaterialen
 10
0.0
 20
0.0
 30
0.0
  0
ENDSEC
  0
SECTION
  2
OBJECTS
  0
DICTIONARY
  5
A
330
0
100
AcDbDictionary
281
1
  3
ACAD_COLOR
350
B
  3
ACAD_GROUP
350
C
  3
ACAD_LAYOUT
350
D
  3
ACAD_MATERIAL
350
E
  3
ACAD_MLEADERSTYLE
350
F
  3
ACAD_MLINESTYLE
350
10
  3
ACAD_PLOTSETTINGS
350
11
  3
ACAD_PLOTSTYLENAME
350
12
  3
ACAD_SCALELIST
350
14
  3
ACAD_TABLESTYLE
350
15
  3
ACAD_VISUALSTYLE
350
16
  3
EZDXF_META
350
2D
  0
DICTIONARY
  5
B
330
A
100
AcDbDictionary
281
1
  0
DICTIONARY
  5
C
330
A
100
AcDbDictionary
281
1
  0
DICTIONARY
  5
D
330
A
100
AcDbDictionary
281
1
  3
Model
350
1A
  3
Layout1
350
1E
  0
DICTIONARY
  5
E
330
A
100
AcDbDictionary
281
1
  3
ByBlock
350
1F
  3
ByLayer
350
20
  3
Global
350
21
  0
DICTIONARY
  5
F
330
A
100
AcDbDictionary
281
1
  3
Standard
350
2C
  0
DICTIONARY
  5
10
330
A
100
AcDbDictionary
281
1
  3
Standard
350
22
  0
DICTIONARY
  5
11
330
A
100
AcDbDictionary
281
1
  0
ACDBDICTIONARYWDFLT
  5
12
330
A
100
AcDbDictionary
281
1
  3
Normal
350
13
100
AcDbDictionaryWithDefault
340
13
  0
ACDBPLACEHOLDER
  5
13
330
12
  0
DICTIONARY
  5
14
330
A
100
AcDbDictionary
281
1
  0
DICTIONARY
  5
15
330
A
100
AcDbDictionary
281
1
  0
DICTIONARY
  5
16
330
A
100
AcDbDictionary
281
1
  0
LAYOUT
  5
1A
330
D
100
AcDbPlotSettings
  1

  4
A3
  6

 40
7.5
 41
20.0
 42
7.5
 43
20.0
 44
420.0
 45
297.0
 46
0.0
 47
0.0
 48
0.0
 49
0.0
140
0.0
141
0.0
142
1.0
143
1.0
 70
1024
 72
1
 73
0
 74
5
  7

 75
16
 76
0
 77
2
 78
300
147
1.0
148
0.0
149
0.0
100
AcDbLayout
  1
Model
 70
1
 71
0
 10
0.0
 20
0.0
 11
420.0
 21
297.0
 12
0.0
 22
0.0
 32
0.0
 14
1e+20
 24
1e+20
 34
1e+20
 15
-1e+20
 25
-1e+20
 35
-1e+20
146
0.0
 13
0.0
 23
0.0
 33
0.0
 16
1.0
 26
0.0
 36
0.0
 17
0.0
 27
1.0
 37
0.0
 76
1
330
17
  0
LAYOUT
  5
1E
330
D
100
AcDbPlotSettings
  1

  4
A3
  6

 40
7.5
 41
20.0
 42
7.5
 43
20.0
 44
420.0
 45
297.0
 46
0.0
 47
0.0
 48
0.0
 49
0.0
140
0.0
141
0.0
142
1.0
143
1.0
 70
0
 72
1
 73
0
 74
5
  7

 75
16
 76
0
 77
2
 78
300
147
1.0
148
0.0
149
0.0
100
AcDbLayout
  1
Layout1
 70
1
 71
1
 10
0.0
 20
0.0
 11
420.0
 21
297.0
 12
0.0
 22
0.0
 32
0.0
 14
1e+20
 24
1e+20
 34
1e+20
 15
-1e+20
 25
-1e+20
 35
-1e+20
146
0.0
 13
0.0
 23
0.0
 33
0.0
 16
1.0
 26
0.0
 36
0.0
 17
0.0
 27
1.0
 37
0.0
 76
1
330
1B
  0
MATERIAL
  5
1F
102
{ACAD_REACTORS
330
E
102
}
330
E
100
AcDbMaterial
  1
ByBlock
  2

 70
0
 40
1.0
 71
1
 41
1.0
 91
-1023410177
 42
1.0
 72
1
  3

 73
1
 74
1
 75
1
 44
0.5
 73
0
 45
1.0
 46
1.0
 77
1
  4

 78
1
 79
1
170
1
 48
1.0
171
1
  6

172
1
173
1
174
1
140
1.0
141
1.0
175
1
  7

176
1
177
1
178
1
143
1.0
179
1
  8

270
1
271
1
272
1
145
1.0
146
1.0
273
1
  9

274
1
275
1
276
1
 42
1.0
 72
1
  3

 73
1
 74
1
 75
1
 94
63
  0
MATERIAL
  5
20
102
{ACAD_REACTORS
330
E
102
}
330
E
100
AcDbMaterial
  1
ByLayer
  2

 70
0
 40
1.0
 71
1
 41
1.0
 91
-1023410177
 42
1.0
 72
1
  3

 73
1
 74
1
 75
1
 44
0.5
 73
0
 45
1.0
 46
1.0
 77
1
  4

 78
1
 79
1
170
1
 48
1.0
171
1
  6

172
1
173
1
174
1
140
1.0
141
1.0
175
1
  7

176
1
177
1
178
1
143
1.0
179
1
  8

270
1
271
1
272
1
145
1.0
146
1.0
273
1
  9

274
1
275
1
276
1
 42
1.0
 72
1
  3

 73
1
 74
1
 75
1
 94
63
  0
MATERIAL
  5
21
102
{ACAD_REACTORS
330
E
102
}
330
E
100
AcDbMaterial
  1
Global
  2

 70
0
 40
1.0
 71
1
 41
1.0
 91
-1023410177
 42
1.0
 72
1
  3

 73
1
 74
1
 75
1
 44
0.5
 73
0
 45
1.0
 46
1.0
 77
1
  4

 78
1
 79
1
170
1
 48
1.0
171
1
  6

172
1
173
1
174
1
140
1.0
141
1.0
175
1
  7

176
1
177
1
178
1
143
1.0
179
1
  8

270
1
271
1
272
1
145
1.0
146
1.0
273
1
  9

274
1
275
1
276
1
 42
1.0
 72
1
  3

 73
1
 74
1
 75
1
 94
63
  0
MLINESTYLE
  5
22
102
{ACAD_REACTORS
330
10
102
}
330
10
100
AcDbMlineStyle
  2
Standard
 70
0
  3

 62
256
 51
90.0
 52
90.0
 71
2
 49
0.5
 62
256
  6
BYLAYER
 49
-0.5
 62
256
  6
BYLAYER
  0
MLEADERSTYLE
  5
2C
102
{ACAD_REACTORS
330
F
102
}
330
F
100
AcDbMLeaderStyle
179
2
170
2
171
1
172
0
 90
2
 40
0.0
 41
0.0
173
1
 91
-1056964608
 92
-2
290
1
 42
2.0
291
1
 43
8.0
  3
Standard
 44
4.0
300

342
29
174
1
175
1
176
0
178
1
 93
-1056964608
 45
4.0
292
0
297
0
 46
4.0
 94
-1056964608
 47
1.0
 49
1.0
140
1.0
294
1
141
0.0
177
0
142
1.0
295
0
296
0
143
3.75
271
0
272
9
273
9
  0
DICTIONARY
  5
2D
330
A
100
AcDbDictionary
280
1
281
1
  3
CREATED_BY_EZDXF
350
2E
  3
WRITTEN_BY_EZDXF
350
91
  0
DICTIONARYVAR
  5
2E
330
2D
100
DictionaryVariables
280
0
  1
1.4.3 @ 2026-02-13T04:54:13.120988+00:00
  0
DICTIONARYVAR
  5
91
330
2D
100
DictionaryVariables
280
0
  1
1.4.3 @ 2026-02-13T04:54:13.126990+00:00
  0
ENDSEC
  0
EOF
