0
SECTION
2
HEADER
9
$EXTMIN
10
 0
20
 100
30
0.0
9
$EXTMAX
10
 0
20
 100
30
0.0
9
$LIMMIN
10
 100
20
 0
9
$LIMMAX
10
 0
20
 100
9
$PSLTSCALE
70
1
0
ENDSEC
0
SECTION
2
TABLES
0
TABLE
2
LAYER
70
2
0
LAYER
2
0
70
0
62
7
6
CONTINUOUS
0
LAYER
2
Halfen
70
0
62
7
6
CONTINUOUS
0
ENDTAB
0
ENDSEC
0
SECTION
2
ENTITIES
0
POLYLINE
8
Halfen
62
7
66
1
10
0.0
20
0.0
30
0.0
70
1
0
VERTEX
8
Halfen
62
7
10
 0
20
-73.5
30
0
0
VERTEX
8
Halfen
62
7
10
 500
20
-73.5
30
0
0
VERTEX
8
Halfen
62
7
10
 500
20
 73.5
30
0
0
VERTEX
8
Halfen
62
7
10
 0
20
 73.5
30
0
0
SEQEND
8
Halfen
0
POLYLINE
8
Halfen
62
7
66
1
10
0.0
20
0.0
30
0.0
70
1
0
VERTEX
8
Halfen
62
7
10
 0
20
-60
30
0
0
VERTEX
8
Halfen
62
7
10
 500
20
-60
30
0
0
VERTEX
8
Halfen
62
7
10
 500
20
 60
30
0
0
VERTEX
8
Halfen
62
7
10
 0
20
 60
30
0
0
SEQEND
8
Halfen
0
POLYLINE
8
Halfen
62
7
66
1
10
0.0
20
0.0
30
0.0
70
1
0
VERTEX
8
Halfen
62
7
10
 20
20
-32.5
30
0
0
VERTEX
8
Halfen
62
7
10
 37
20
-1.5
30
0
0
VERTEX
8
Halfen
62
7
10
 28
20
-1.5
30
0
0
VERTEX
8
Halfen
62
7
10
 28
20
 32.5
30
0
0
VERTEX
8
Halfen
62
7
10
 12
20
 32.5
30
0
0
VERTEX
8
Halfen
62
7
10
 12
20
-1.5
30
0
0
VERTEX
8
Halfen
62
7
10
 3
20
-1.5
30
0
0
SEQEND
8
Halfen
0
POLYLINE
8
Halfen
62
7
66
1
10
0.0
20
0.0
30
0.0
70
1
0
VERTEX
8
Halfen
62
7
10
 480
20
-32.5
30
0
0
VERTEX
8
Halfen
62
7
10
 497
20
-1.5
30
0
0
VERTEX
8
Halfen
62
7
10
 488
20
-1.5
30
0
0
VERTEX
8
Halfen
62
7
10
 488
20
 32.5
30
0
0
VERTEX
8
Halfen
62
7
10
 472
20
 32.5
30
0
0
VERTEX
8
Halfen
62
7
10
 472
20
-1.5
30
0
0
VERTEX
8
Halfen
62
7
10
 463
20
-1.5
30
0
0
SEQEND
8
Halfen
0
POLYLINE
8
Halfen
62
7
66
1
10
0.0
20
0.0
30
0.0
70
1
0
VERTEX
8
Halfen
62
7
10
 97
20
-69.3
30
0
0
VERTEX
8
Halfen
62
7
10
 97
20
-56.8
30
0
0
VERTEX
8
Halfen
62
7
10
 97
20
 69.3
30
0
0
VERTEX
8
Halfen
62
7
10
 96.958
20
 70.359
30
0
0
VERTEX
8
Halfen
62
7
10
 96.834
20
 71.412
30
0
0
VERTEX
8
Halfen
62
7
10
 96.627
20
 72.452
30
0
0
VERTEX
8
Halfen
62
7
10
 96.339
20
 73.472
30
0
0
VERTEX
8
Halfen
62
7
10
 95.972
20
 74.466
30
0
0
VERTEX
8
Halfen
62
7
10
 95.529
20
 75.429
30
0
0
VERTEX
8
Halfen
62
7
10
 95.011
20
 76.354
30
0
0
VERTEX
8
Halfen
62
7
10
 94.422
20
 77.235
30
0
0
VERTEX
8
Halfen
62
7
10
 93.765
20
 78.068
30
0
0
VERTEX
8
Halfen
62
7
10
 93.046
20
 78.846
30
0
0
VERTEX
8
Halfen
62
7
10
 92.268
20
 79.565
30
0
0
VERTEX
8
Halfen
62
7
10
 91.435
20
 80.222
30
0
0
VERTEX
8
Halfen
62
7
10
 90.554
20
 80.811
30
0
0
VERTEX
8
Halfen
62
7
10
 89.629
20
 81.329
30
0
0
VERTEX
8
Halfen
62
7
10
 88.666
20
 81.772
30
0
0
VERTEX
8
Halfen
62
7
10
 87.672
20
 82.139
30
0
0
VERTEX
8
Halfen
62
7
10
 86.652
20
 82.427
30
0
0
VERTEX
8
Halfen
62
7
10
 85.612
20
 82.634
30
0
0
VERTEX
8
Halfen
62
7
10
 84.559
20
 82.758
30
0
0
VERTEX
8
Halfen
62
7
10
 83.5
20
 82.8
30
0
0
VERTEX
8
Halfen
62
7
10
 80.5
20
 82.8
30
0
0
VERTEX
8
Halfen
62
7
10
 79.441
20
 82.758
30
0
0
VERTEX
8
Halfen
62
7
10
 78.388
20
 82.634
30
0
0
VERTEX
8
Halfen
62
7
10
 77.348
20
 82.427
30
0
0
VERTEX
8
Halfen
62
7
10
 76.328
20
 82.139
30
0
0
VERTEX
8
Halfen
62
7
10
 75.334
20
 81.772
30
0
0
VERTEX
8
Halfen
62
7
10
 74.371
20
 81.329
30
0
0
VERTEX
8
Halfen
62
7
10
 73.446
20
 80.811
30
0
0
VERTEX
8
Halfen
62
7
10
 72.565
20
 80.222
30
0
0
VERTEX
8
Halfen
62
7
10
 71.732
20
 79.565
30
0
0
VERTEX
8
Halfen
62
7
10
 70.954
20
 78.846
30
0
0
VERTEX
8
Halfen
62
7
10
 70.235
20
 78.068
30
0
0
VERTEX
8
Halfen
62
7
10
 69.578
20
 77.235
30
0
0
VERTEX
8
Halfen
62
7
10
 68.989
20
 76.354
30
0
0
VERTEX
8
Halfen
62
7
10
 68.471
20
 75.429
30
0
0
VERTEX
8
Halfen
62
7
10
 68.028
20
 74.466
30
0
0
VERTEX
8
Halfen
62
7
10
 67.661
20
 73.472
30
0
0
VERTEX
8
Halfen
62
7
10
 67.373
20
 72.452
30
0
0
VERTEX
8
Halfen
62
7
10
 67.166
20
 71.412
30
0
0
VERTEX
8
Halfen
62
7
10
 67.042
20
 70.359
30
0
0
VERTEX
8
Halfen
62
7
10
 67
20
 69.3
30
0
0
VERTEX
8
Halfen
62
7
10
 67
20
-56.8
30
0
0
VERTEX
8
Halfen
62
7
10
 67
20
-69.3
30
0
0
VERTEX
8
Halfen
62
7
10
 67.042
20
-70.359
30
0
0
VERTEX
8
Halfen
62
7
10
 67.166
20
-71.412
30
0
0
VERTEX
8
Halfen
62
7
10
 67.373
20
-72.452
30
0
0
VERTEX
8
Halfen
62
7
10
 67.661
20
-73.472
30
0
0
VERTEX
8
Halfen
62
7
10
 68.028
20
-74.466
30
0
0
VERTEX
8
Halfen
62
7
10
 68.471
20
-75.429
30
0
0
VERTEX
8
Halfen
62
7
10
 68.989
20
-76.354
30
0
0
VERTEX
8
Halfen
62
7
10
 69.578
20
-77.235
30
0
0
VERTEX
8
Halfen
62
7
10
 70.235
20
-78.068
30
0
0
VERTEX
8
Halfen
62
7
10
 70.954
20
-78.846
30
0
0
VERTEX
8
Halfen
62
7
10
 71.732
20
-79.565
30
0
0
VERTEX
8
Halfen
62
7
10
 72.565
20
-80.222
30
0
0
VERTEX
8
Halfen
62
7
10
 73.446
20
-80.811
30
0
0
VERTEX
8
Halfen
62
7
10
 74.371
20
-81.329
30
0
0
VERTEX
8
Halfen
62
7
10
 75.334
20
-81.772
30
0
0
VERTEX
8
Halfen
62
7
10
 76.328
20
-82.139
30
0
0
VERTEX
8
Halfen
62
7
10
 77.348
20
-82.427
30
0
0
VERTEX
8
Halfen
62
7
10
 78.388
20
-82.634
30
0
0
VERTEX
8
Halfen
62
7
10
 79.441
20
-82.758
30
0
0
VERTEX
8
Halfen
62
7
10
 80.5
20
-82.8
30
0
0
VERTEX
8
Halfen
62
7
10
 83.5
20
-82.8
30
0
0
VERTEX
8
Halfen
62
7
10
 84.559
20
-82.758
30
0
0
VERTEX
8
Halfen
62
7
10
 85.612
20
-82.634
30
0
0
VERTEX
8
Halfen
62
7
10
 86.652
20
-82.427
30
0
0
VERTEX
8
Halfen
62
7
10
 87.672
20
-82.139
30
0
0
VERTEX
8
Halfen
62
7
10
 88.666
20
-81.772
30
0
0
VERTEX
8
Halfen
62
7
10
 89.629
20
-81.329
30
0
0
VERTEX
8
Halfen
62
7
10
 90.554
20
-80.811
30
0
0
VERTEX
8
Halfen
62
7
10
 91.435
20
-80.222
30
0
0
VERTEX
8
Halfen
62
7
10
 92.268
20
-79.565
30
0
0
VERTEX
8
Halfen
62
7
10
 93.046
20
-78.846
30
0
0
VERTEX
8
Halfen
62
7
10
 93.765
20
-78.068
30
0
0
VERTEX
8
Halfen
62
7
10
 94.422
20
-77.235
30
0
0
VERTEX
8
Halfen
62
7
10
 95.011
20
-76.354
30
0
0
VERTEX
8
Halfen
62
7
10
 95.529
20
-75.429
30
0
0
VERTEX
8
Halfen
62
7
10
 95.972
20
-74.466
30
0
0
VERTEX
8
Halfen
62
7
10
 96.339
20
-73.472
30
0
0
VERTEX
8
Halfen
62
7
10
 96.627
20
-72.452
30
0
0
VERTEX
8
Halfen
62
7
10
 96.834
20
-71.412
30
0
0
VERTEX
8
Halfen
62
7
10
 96.958
20
-70.359
30
0
0
VERTEX
8
Halfen
62
7
10
 97
20
-69.3
30
0
0
SEQEND
8
Halfen
0
POLYLINE
8
Halfen
62
7
66
1
10
0.0
20
0.0
30
0.0
70
1
0
VERTEX
8
Halfen
62
7
10
 181
20
-69.3
30
0
0
VERTEX
8
Halfen
62
7
10
 181
20
-56.8
30
0
0
VERTEX
8
Halfen
62
7
10
 181
20
 69.3
30
0
0
VERTEX
8
Halfen
62
7
10
 180.958
20
 70.359
30
0
0
VERTEX
8
Halfen
62
7
10
 180.834
20
 71.412
30
0
0
VERTEX
8
Halfen
62
7
10
 180.627
20
 72.452
30
0
0
VERTEX
8
Halfen
62
7
10
 180.339
20
 73.472
30
0
0
VERTEX
8
Halfen
62
7
10
 179.972
20
 74.466
30
0
0
VERTEX
8
Halfen
62
7
10
 179.529
20
 75.429
30
0
0
VERTEX
8
Halfen
62
7
10
 179.011
20
 76.354
30
0
0
VERTEX
8
Halfen
62
7
10
 178.422
20
 77.235
30
0
0
VERTEX
8
Halfen
62
7
10
 177.765
20
 78.068
30
0
0
VERTEX
8
Halfen
62
7
10
 177.046
20
 78.846
30
0
0
VERTEX
8
Halfen
62
7
10
 176.268
20
 79.565
30
0
0
VERTEX
8
Halfen
62
7
10
 175.435
20
 80.222
30
0
0
VERTEX
8
Halfen
62
7
10
 174.554
20
 80.811
30
0
0
VERTEX
8
Halfen
62
7
10
 173.629
20
 81.329
30
0
0
VERTEX
8
Halfen
62
7
10
 172.666
20
 81.772
30
0
0
VERTEX
8
Halfen
62
7
10
 171.672
20
 82.139
30
0
0
VERTEX
8
Halfen
62
7
10
 170.652
20
 82.427
30
0
0
VERTEX
8
Halfen
62
7
10
 169.612
20
 82.634
30
0
0
VERTEX
8
Halfen
62
7
10
 168.559
20
 82.758
30
0
0
VERTEX
8
Halfen
62
7
10
 167.5
20
 82.8
30
0
0
VERTEX
8
Halfen
62
7
10
 164.5
20
 82.8
30
0
0
VERTEX
8
Halfen
62
7
10
 163.441
20
 82.758
30
0
0
VERTEX
8
Halfen
62
7
10
 162.388
20
 82.634
30
0
0
VERTEX
8
Halfen
62
7
10
 161.348
20
 82.427
30
0
0
VERTEX
8
Halfen
62
7
10
 160.328
20
 82.139
30
0
0
VERTEX
8
Halfen
62
7
10
 159.334
20
 81.772
30
0
0
VERTEX
8
Halfen
62
7
10
 158.371
20
 81.329
30
0
0
VERTEX
8
Halfen
62
7
10
 157.446
20
 80.811
30
0
0
VERTEX
8
Halfen
62
7
10
 156.565
20
 80.222
30
0
0
VERTEX
8
Halfen
62
7
10
 155.732
20
 79.565
30
0
0
VERTEX
8
Halfen
62
7
10
 154.954
20
 78.846
30
0
0
VERTEX
8
Halfen
62
7
10
 154.235
20
 78.068
30
0
0
VERTEX
8
Halfen
62
7
10
 153.578
20
 77.235
30
0
0
VERTEX
8
Halfen
62
7
10
 152.989
20
 76.354
30
0
0
VERTEX
8
Halfen
62
7
10
 152.471
20
 75.429
30
0
0
VERTEX
8
Halfen
62
7
10
 152.028
20
 74.466
30
0
0
VERTEX
8
Halfen
62
7
10
 151.661
20
 73.472
30
0
0
VERTEX
8
Halfen
62
7
10
 151.373
20
 72.452
30
0
0
VERTEX
8
Halfen
62
7
10
 151.166
20
 71.412
30
0
0
VERTEX
8
Halfen
62
7
10
 151.042
20
 70.359
30
0
0
VERTEX
8
Halfen
62
7
10
 151
20
 69.3
30
0
0
VERTEX
8
Halfen
62
7
10
 151
20
-56.8
30
0
0
VERTEX
8
Halfen
62
7
10
 151
20
-69.3
30
0
0
VERTEX
8
Halfen
62
7
10
 151.042
20
-70.359
30
0
0
VERTEX
8
Halfen
62
7
10
 151.166
20
-71.412
30
0
0
VERTEX
8
Halfen
62
7
10
 151.373
20
-72.452
30
0
0
VERTEX
8
Halfen
62
7
10
 151.661
20
-73.472
30
0
0
VERTEX
8
Halfen
62
7
10
 152.028
20
-74.466
30
0
0
VERTEX
8
Halfen
62
7
10
 152.471
20
-75.429
30
0
0
VERTEX
8
Halfen
62
7
10
 152.989
20
-76.354
30
0
0
VERTEX
8
Halfen
62
7
10
 153.578
20
-77.235
30
0
0
VERTEX
8
Halfen
62
7
10
 154.235
20
-78.068
30
0
0
VERTEX
8
Halfen
62
7
10
 154.954
20
-78.846
30
0
0
VERTEX
8
Halfen
62
7
10
 155.732
20
-79.565
30
0
0
VERTEX
8
Halfen
62
7
10
 156.565
20
-80.222
30
0
0
VERTEX
8
Halfen
62
7
10
 157.446
20
-80.811
30
0
0
VERTEX
8
Halfen
62
7
10
 158.371
20
-81.329
30
0
0
VERTEX
8
Halfen
62
7
10
 159.334
20
-81.772
30
0
0
VERTEX
8
Halfen
62
7
10
 160.328
20
-82.139
30
0
0
VERTEX
8
Halfen
62
7
10
 161.348
20
-82.427
30
0
0
VERTEX
8
Halfen
62
7
10
 162.388
20
-82.634
30
0
0
VERTEX
8
Halfen
62
7
10
 163.441
20
-82.758
30
0
0
VERTEX
8
Halfen
62
7
10
 164.5
20
-82.8
30
0
0
VERTEX
8
Halfen
62
7
10
 167.5
20
-82.8
30
0
0
VERTEX
8
Halfen
62
7
10
 168.559
20
-82.758
30
0
0
VERTEX
8
Halfen
62
7
10
 169.612
20
-82.634
30
0
0
VERTEX
8
Halfen
62
7
10
 170.652
20
-82.427
30
0
0
VERTEX
8
Halfen
62
7
10
 171.672
20
-82.139
30
0
0
VERTEX
8
Halfen
62
7
10
 172.666
20
-81.772
30
0
0
VERTEX
8
Halfen
62
7
10
 173.629
20
-81.329
30
0
0
VERTEX
8
Halfen
62
7
10
 174.554
20
-80.811
30
0
0
VERTEX
8
Halfen
62
7
10
 175.435
20
-80.222
30
0
0
VERTEX
8
Halfen
62
7
10
 176.268
20
-79.565
30
0
0
VERTEX
8
Halfen
62
7
10
 177.046
20
-78.846
30
0
0
VERTEX
8
Halfen
62
7
10
 177.765
20
-78.068
30
0
0
VERTEX
8
Halfen
62
7
10
 178.422
20
-77.235
30
0
0
VERTEX
8
Halfen
62
7
10
 179.011
20
-76.354
30
0
0
VERTEX
8
Halfen
62
7
10
 179.529
20
-75.429
30
0
0
VERTEX
8
Halfen
62
7
10
 179.972
20
-74.466
30
0
0
VERTEX
8
Halfen
62
7
10
 180.339
20
-73.472
30
0
0
VERTEX
8
Halfen
62
7
10
 180.627
20
-72.452
30
0
0
VERTEX
8
Halfen
62
7
10
 180.834
20
-71.412
30
0
0
VERTEX
8
Halfen
62
7
10
 180.958
20
-70.359
30
0
0
VERTEX
8
Halfen
62
7
10
 181
20
-69.3
30
0
0
SEQEND
8
Halfen
0
POLYLINE
8
Halfen
62
7
66
1
10
0.0
20
0.0
30
0.0
70
1
0
VERTEX
8
Halfen
62
7
10
 265
20
-69.3
30
0
0
VERTEX
8
Halfen
62
7
10
 265
20
-56.8
30
0
0
VERTEX
8
Halfen
62
7
10
 265
20
 69.3
30
0
0
VERTEX
8
Halfen
62
7
10
 264.958
20
 70.359
30
0
0
VERTEX
8
Halfen
62
7
10
 264.834
20
 71.412
30
0
0
VERTEX
8
Halfen
62
7
10
 264.627
20
 72.452
30
0
0
VERTEX
8
Halfen
62
7
10
 264.339
20
 73.472
30
0
0
VERTEX
8
Halfen
62
7
10
 263.972
20
 74.466
30
0
0
VERTEX
8
Halfen
62
7
10
 263.529
20
 75.429
30
0
0
VERTEX
8
Halfen
62
7
10
 263.011
20
 76.354
30
0
0
VERTEX
8
Halfen
62
7
10
 262.422
20
 77.235
30
0
0
VERTEX
8
Halfen
62
7
10
 261.765
20
 78.068
30
0
0
VERTEX
8
Halfen
62
7
10
 261.046
20
 78.846
30
0
0
VERTEX
8
Halfen
62
7
10
 260.268
20
 79.565
30
0
0
VERTEX
8
Halfen
62
7
10
 259.435
20
 80.222
30
0
0
VERTEX
8
Halfen
62
7
10
 258.554
20
 80.811
30
0
0
VERTEX
8
Halfen
62
7
10
 257.629
20
 81.329
30
0
0
VERTEX
8
Halfen
62
7
10
 256.666
20
 81.772
30
0
0
VERTEX
8
Halfen
62
7
10
 255.672
20
 82.139
30
0
0
VERTEX
8
Halfen
62
7
10
 254.652
20
 82.427
30
0
0
VERTEX
8
Halfen
62
7
10
 253.612
20
 82.634
30
0
0
VERTEX
8
Halfen
62
7
10
 252.559
20
 82.758
30
0
0
VERTEX
8
Halfen
62
7
10
 251.5
20
 82.8
30
0
0
VERTEX
8
Halfen
62
7
10
 248.5
20
 82.8
30
0
0
VERTEX
8
Halfen
62
7
10
 247.441
20
 82.758
30
0
0
VERTEX
8
Halfen
62
7
10
 246.388
20
 82.634
30
0
0
VERTEX
8
Halfen
62
7
10
 245.348
20
 82.427
30
0
0
VERTEX
8
Halfen
62
7
10
 244.328
20
 82.139
30
0
0
VERTEX
8
Halfen
62
7
10
 243.334
20
 81.772
30
0
0
VERTEX
8
Halfen
62
7
10
 242.371
20
 81.329
30
0
0
VERTEX
8
Halfen
62
7
10
 241.446
20
 80.811
30
0
0
VERTEX
8
Halfen
62
7
10
 240.565
20
 80.222
30
0
0
VERTEX
8
Halfen
62
7
10
 239.732
20
 79.565
30
0
0
VERTEX
8
Halfen
62
7
10
 238.954
20
 78.846
30
0
0
VERTEX
8
Halfen
62
7
10
 238.235
20
 78.068
30
0
0
VERTEX
8
Halfen
62
7
10
 237.578
20
 77.235
30
0
0
VERTEX
8
Halfen
62
7
10
 236.989
20
 76.354
30
0
0
VERTEX
8
Halfen
62
7
10
 236.471
20
 75.429
30
0
0
VERTEX
8
Halfen
62
7
10
 236.028
20
 74.466
30
0
0
VERTEX
8
Halfen
62
7
10
 235.661
20
 73.472
30
0
0
VERTEX
8
Halfen
62
7
10
 235.373
20
 72.452
30
0
0
VERTEX
8
Halfen
62
7
10
 235.166
20
 71.412
30
0
0
VERTEX
8
Halfen
62
7
10
 235.042
20
 70.359
30
0
0
VERTEX
8
Halfen
62
7
10
 235
20
 69.3
30
0
0
VERTEX
8
Halfen
62
7
10
 235
20
-56.8
30
0
0
VERTEX
8
Halfen
62
7
10
 235
20
-69.3
30
0
0
VERTEX
8
Halfen
62
7
10
 235.042
20
-70.359
30
0
0
VERTEX
8
Halfen
62
7
10
 235.166
20
-71.412
30
0
0
VERTEX
8
Halfen
62
7
10
 235.373
20
-72.452
30
0
0
VERTEX
8
Halfen
62
7
10
 235.661
20
-73.472
30
0
0
VERTEX
8
Halfen
62
7
10
 236.028
20
-74.466
30
0
0
VERTEX
8
Halfen
62
7
10
 236.471
20
-75.429
30
0
0
VERTEX
8
Halfen
62
7
10
 236.989
20
-76.354
30
0
0
VERTEX
8
Halfen
62
7
10
 237.578
20
-77.235
30
0
0
VERTEX
8
Halfen
62
7
10
 238.235
20
-78.068
30
0
0
VERTEX
8
Halfen
62
7
10
 238.954
20
-78.846
30
0
0
VERTEX
8
Halfen
62
7
10
 239.732
20
-79.565
30
0
0
VERTEX
8
Halfen
62
7
10
 240.565
20
-80.222
30
0
0
VERTEX
8
Halfen
62
7
10
 241.446
20
-80.811
30
0
0
VERTEX
8
Halfen
62
7
10
 242.371
20
-81.329
30
0
0
VERTEX
8
Halfen
62
7
10
 243.334
20
-81.772
30
0
0
VERTEX
8
Halfen
62
7
10
 244.328
20
-82.139
30
0
0
VERTEX
8
Halfen
62
7
10
 245.348
20
-82.427
30
0
0
VERTEX
8
Halfen
62
7
10
 246.388
20
-82.634
30
0
0
VERTEX
8
Halfen
62
7
10
 247.441
20
-82.758
30
0
0
VERTEX
8
Halfen
62
7
10
 248.5
20
-82.8
30
0
0
VERTEX
8
Halfen
62
7
10
 251.5
20
-82.8
30
0
0
VERTEX
8
Halfen
62
7
10
 252.559
20
-82.758
30
0
0
VERTEX
8
Halfen
62
7
10
 253.612
20
-82.634
30
0
0
VERTEX
8
Halfen
62
7
10
 254.652
20
-82.427
30
0
0
VERTEX
8
Halfen
62
7
10
 255.672
20
-82.139
30
0
0
VERTEX
8
Halfen
62
7
10
 256.666
20
-81.772
30
0
0
VERTEX
8
Halfen
62
7
10
 257.629
20
-81.329
30
0
0
VERTEX
8
Halfen
62
7
10
 258.554
20
-80.811
30
0
0
VERTEX
8
Halfen
62
7
10
 259.435
20
-80.222
30
0
0
VERTEX
8
Halfen
62
7
10
 260.268
20
-79.565
30
0
0
VERTEX
8
Halfen
62
7
10
 261.046
20
-78.846
30
0
0
VERTEX
8
Halfen
62
7
10
 261.765
20
-78.068
30
0
0
VERTEX
8
Halfen
62
7
10
 262.422
20
-77.235
30
0
0
VERTEX
8
Halfen
62
7
10
 263.011
20
-76.354
30
0
0
VERTEX
8
Halfen
62
7
10
 263.529
20
-75.429
30
0
0
VERTEX
8
Halfen
62
7
10
 263.972
20
-74.466
30
0
0
VERTEX
8
Halfen
62
7
10
 264.339
20
-73.472
30
0
0
VERTEX
8
Halfen
62
7
10
 264.627
20
-72.452
30
0
0
VERTEX
8
Halfen
62
7
10
 264.834
20
-71.412
30
0
0
VERTEX
8
Halfen
62
7
10
 264.958
20
-70.359
30
0
0
VERTEX
8
Halfen
62
7
10
 265
20
-69.3
30
0
0
SEQEND
8
Halfen
0
POLYLINE
8
Halfen
62
7
66
1
10
0.0
20
0.0
30
0.0
70
1
0
VERTEX
8
Halfen
62
7
10
 349
20
-69.3
30
0
0
VERTEX
8
Halfen
62
7
10
 349
20
-56.8
30
0
0
VERTEX
8
Halfen
62
7
10
 349
20
 69.3
30
0
0
VERTEX
8
Halfen
62
7
10
 348.958
20
 70.359
30
0
0
VERTEX
8
Halfen
62
7
10
 348.834
20
 71.412
30
0
0
VERTEX
8
Halfen
62
7
10
 348.627
20
 72.452
30
0
0
VERTEX
8
Halfen
62
7
10
 348.339
20
 73.472
30
0
0
VERTEX
8
Halfen
62
7
10
 347.972
20
 74.466
30
0
0
VERTEX
8
Halfen
62
7
10
 347.529
20
 75.429
30
0
0
VERTEX
8
Halfen
62
7
10
 347.011
20
 76.354
30
0
0
VERTEX
8
Halfen
62
7
10
 346.422
20
 77.235
30
0
0
VERTEX
8
Halfen
62
7
10
 345.765
20
 78.068
30
0
0
VERTEX
8
Halfen
62
7
10
 345.046
20
 78.846
30
0
0
VERTEX
8
Halfen
62
7
10
 344.268
20
 79.565
30
0
0
VERTEX
8
Halfen
62
7
10
 343.435
20
 80.222
30
0
0
VERTEX
8
Halfen
62
7
10
 342.554
20
 80.811
30
0
0
VERTEX
8
Halfen
62
7
10
 341.629
20
 81.329
30
0
0
VERTEX
8
Halfen
62
7
10
 340.666
20
 81.772
30
0
0
VERTEX
8
Halfen
62
7
10
 339.672
20
 82.139
30
0
0
VERTEX
8
Halfen
62
7
10
 338.652
20
 82.427
30
0
0
VERTEX
8
Halfen
62
7
10
 337.612
20
 82.634
30
0
0
VERTEX
8
Halfen
62
7
10
 336.559
20
 82.758
30
0
0
VERTEX
8
Halfen
62
7
10
 335.5
20
 82.8
30
0
0
VERTEX
8
Halfen
62
7
10
 332.5
20
 82.8
30
0
0
VERTEX
8
Halfen
62
7
10
 331.441
20
 82.758
30
0
0
VERTEX
8
Halfen
62
7
10
 330.388
20
 82.634
30
0
0
VERTEX
8
Halfen
62
7
10
 329.348
20
 82.427
30
0
0
VERTEX
8
Halfen
62
7
10
 328.328
20
 82.139
30
0
0
VERTEX
8
Halfen
62
7
10
 327.334
20
 81.772
30
0
0
VERTEX
8
Halfen
62
7
10
 326.371
20
 81.329
30
0
0
VERTEX
8
Halfen
62
7
10
 325.446
20
 80.811
30
0
0
VERTEX
8
Halfen
62
7
10
 324.565
20
 80.222
30
0
0
VERTEX
8
Halfen
62
7
10
 323.732
20
 79.565
30
0
0
VERTEX
8
Halfen
62
7
10
 322.954
20
 78.846
30
0
0
VERTEX
8
Halfen
62
7
10
 322.235
20
 78.068
30
0
0
VERTEX
8
Halfen
62
7
10
 321.578
20
 77.235
30
0
0
VERTEX
8
Halfen
62
7
10
 320.989
20
 76.354
30
0
0
VERTEX
8
Halfen
62
7
10
 320.471
20
 75.429
30
0
0
VERTEX
8
Halfen
62
7
10
 320.028
20
 74.466
30
0
0
VERTEX
8
Halfen
62
7
10
 319.661
20
 73.472
30
0
0
VERTEX
8
Halfen
62
7
10
 319.373
20
 72.452
30
0
0
VERTEX
8
Halfen
62
7
10
 319.166
20
 71.412
30
0
0
VERTEX
8
Halfen
62
7
10
 319.042
20
 70.359
30
0
0
VERTEX
8
Halfen
62
7
10
 319
20
 69.3
30
0
0
VERTEX
8
Halfen
62
7
10
 319
20
-56.8
30
0
0
VERTEX
8
Halfen
62
7
10
 319
20
-69.3
30
0
0
VERTEX
8
Halfen
62
7
10
 319.042
20
-70.359
30
0
0
VERTEX
8
Halfen
62
7
10
 319.166
20
-71.412
30
0
0
VERTEX
8
Halfen
62
7
10
 319.373
20
-72.452
30
0
0
VERTEX
8
Halfen
62
7
10
 319.661
20
-73.472
30
0
0
VERTEX
8
Halfen
62
7
10
 320.028
20
-74.466
30
0
0
VERTEX
8
Halfen
62
7
10
 320.471
20
-75.429
30
0
0
VERTEX
8
Halfen
62
7
10
 320.989
20
-76.354
30
0
0
VERTEX
8
Halfen
62
7
10
 321.578
20
-77.235
30
0
0
VERTEX
8
Halfen
62
7
10
 322.235
20
-78.068
30
0
0
VERTEX
8
Halfen
62
7
10
 322.954
20
-78.846
30
0
0
VERTEX
8
Halfen
62
7
10
 323.732
20
-79.565
30
0
0
VERTEX
8
Halfen
62
7
10
 324.565
20
-80.222
30
0
0
VERTEX
8
Halfen
62
7
10
 325.446
20
-80.811
30
0
0
VERTEX
8
Halfen
62
7
10
 326.371
20
-81.329
30
0
0
VERTEX
8
Halfen
62
7
10
 327.334
20
-81.772
30
0
0
VERTEX
8
Halfen
62
7
10
 328.328
20
-82.139
30
0
0
VERTEX
8
Halfen
62
7
10
 329.348
20
-82.427
30
0
0
VERTEX
8
Halfen
62
7
10
 330.388
20
-82.634
30
0
0
VERTEX
8
Halfen
62
7
10
 331.441
20
-82.758
30
0
0
VERTEX
8
Halfen
62
7
10
 332.5
20
-82.8
30
0
0
VERTEX
8
Halfen
62
7
10
 335.5
20
-82.8
30
0
0
VERTEX
8
Halfen
62
7
10
 336.559
20
-82.758
30
0
0
VERTEX
8
Halfen
62
7
10
 337.612
20
-82.634
30
0
0
VERTEX
8
Halfen
62
7
10
 338.652
20
-82.427
30
0
0
VERTEX
8
Halfen
62
7
10
 339.672
20
-82.139
30
0
0
VERTEX
8
Halfen
62
7
10
 340.666
20
-81.772
30
0
0
VERTEX
8
Halfen
62
7
10
 341.629
20
-81.329
30
0
0
VERTEX
8
Halfen
62
7
10
 342.554
20
-80.811
30
0
0
VERTEX
8
Halfen
62
7
10
 343.435
20
-80.222
30
0
0
VERTEX
8
Halfen
62
7
10
 344.268
20
-79.565
30
0
0
VERTEX
8
Halfen
62
7
10
 345.046
20
-78.846
30
0
0
VERTEX
8
Halfen
62
7
10
 345.765
20
-78.068
30
0
0
VERTEX
8
Halfen
62
7
10
 346.422
20
-77.235
30
0
0
VERTEX
8
Halfen
62
7
10
 347.011
20
-76.354
30
0
0
VERTEX
8
Halfen
62
7
10
 347.529
20
-75.429
30
0
0
VERTEX
8
Halfen
62
7
10
 347.972
20
-74.466
30
0
0
VERTEX
8
Halfen
62
7
10
 348.339
20
-73.472
30
0
0
VERTEX
8
Halfen
62
7
10
 348.627
20
-72.452
30
0
0
VERTEX
8
Halfen
62
7
10
 348.834
20
-71.412
30
0
0
VERTEX
8
Halfen
62
7
10
 348.958
20
-70.359
30
0
0
VERTEX
8
Halfen
62
7
10
 349
20
-69.3
30
0
0
SEQEND
8
Halfen
0
POLYLINE
8
Halfen
62
7
66
1
10
0.0
20
0.0
30
0.0
70
1
0
VERTEX
8
Halfen
62
7
10
 433
20
-69.3
30
0
0
VERTEX
8
Halfen
62
7
10
 433
20
-56.8
30
0
0
VERTEX
8
Halfen
62
7
10
 433
20
 69.3
30
0
0
VERTEX
8
Halfen
62
7
10
 432.958
20
 70.359
30
0
0
VERTEX
8
Halfen
62
7
10
 432.834
20
 71.412
30
0
0
VERTEX
8
Halfen
62
7
10
 432.627
20
 72.452
30
0
0
VERTEX
8
Halfen
62
7
10
 432.339
20
 73.472
30
0
0
VERTEX
8
Halfen
62
7
10
 431.972
20
 74.466
30
0
0
VERTEX
8
Halfen
62
7
10
 431.529
20
 75.429
30
0
0
VERTEX
8
Halfen
62
7
10
 431.011
20
 76.354
30
0
0
VERTEX
8
Halfen
62
7
10
 430.422
20
 77.235
30
0
0
VERTEX
8
Halfen
62
7
10
 429.765
20
 78.068
30
0
0
VERTEX
8
Halfen
62
7
10
 429.046
20
 78.846
30
0
0
VERTEX
8
Halfen
62
7
10
 428.268
20
 79.565
30
0
0
VERTEX
8
Halfen
62
7
10
 427.435
20
 80.222
30
0
0
VERTEX
8
Halfen
62
7
10
 426.554
20
 80.811
30
0
0
VERTEX
8
Halfen
62
7
10
 425.629
20
 81.329
30
0
0
VERTEX
8
Halfen
62
7
10
 424.666
20
 81.772
30
0
0
VERTEX
8
Halfen
62
7
10
 423.672
20
 82.139
30
0
0
VERTEX
8
Halfen
62
7
10
 422.652
20
 82.427
30
0
0
VERTEX
8
Halfen
62
7
10
 421.612
20
 82.634
30
0
0
VERTEX
8
Halfen
62
7
10
 420.559
20
 82.758
30
0
0
VERTEX
8
Halfen
62
7
10
 419.5
20
 82.8
30
0
0
VERTEX
8
Halfen
62
7
10
 416.5
20
 82.8
30
0
0
VERTEX
8
Halfen
62
7
10
 415.441
20
 82.758
30
0
0
VERTEX
8
Halfen
62
7
10
 414.388
20
 82.634
30
0
0
VERTEX
8
Halfen
62
7
10
 413.348
20
 82.427
30
0
0
VERTEX
8
Halfen
62
7
10
 412.328
20
 82.139
30
0
0
VERTEX
8
Halfen
62
7
10
 411.334
20
 81.772
30
0
0
VERTEX
8
Halfen
62
7
10
 410.371
20
 81.329
30
0
0
VERTEX
8
Halfen
62
7
10
 409.446
20
 80.811
30
0
0
VERTEX
8
Halfen
62
7
10
 408.565
20
 80.222
30
0
0
VERTEX
8
Halfen
62
7
10
 407.732
20
 79.565
30
0
0
VERTEX
8
Halfen
62
7
10
 406.954
20
 78.846
30
0
0
VERTEX
8
Halfen
62
7
10
 406.235
20
 78.068
30
0
0
VERTEX
8
Halfen
62
7
10
 405.578
20
 77.235
30
0
0
VERTEX
8
Halfen
62
7
10
 404.989
20
 76.354
30
0
0
VERTEX
8
Halfen
62
7
10
 404.471
20
 75.429
30
0
0
VERTEX
8
Halfen
62
7
10
 404.028
20
 74.466
30
0
0
VERTEX
8
Halfen
62
7
10
 403.661
20
 73.472
30
0
0
VERTEX
8
Halfen
62
7
10
 403.373
20
 72.452
30
0
0
VERTEX
8
Halfen
62
7
10
 403.166
20
 71.412
30
0
0
VERTEX
8
Halfen
62
7
10
 403.042
20
 70.359
30
0
0
VERTEX
8
Halfen
62
7
10
 403
20
 69.3
30
0
0
VERTEX
8
Halfen
62
7
10
 403
20
-56.8
30
0
0
VERTEX
8
Halfen
62
7
10
 403
20
-69.3
30
0
0
VERTEX
8
Halfen
62
7
10
 403.042
20
-70.359
30
0
0
VERTEX
8
Halfen
62
7
10
 403.166
20
-71.412
30
0
0
VERTEX
8
Halfen
62
7
10
 403.373
20
-72.452
30
0
0
VERTEX
8
Halfen
62
7
10
 403.661
20
-73.472
30
0
0
VERTEX
8
Halfen
62
7
10
 404.028
20
-74.466
30
0
0
VERTEX
8
Halfen
62
7
10
 404.471
20
-75.429
30
0
0
VERTEX
8
Halfen
62
7
10
 404.989
20
-76.354
30
0
0
VERTEX
8
Halfen
62
7
10
 405.578
20
-77.235
30
0
0
VERTEX
8
Halfen
62
7
10
 406.235
20
-78.068
30
0
0
VERTEX
8
Halfen
62
7
10
 406.954
20
-78.846
30
0
0
VERTEX
8
Halfen
62
7
10
 407.732
20
-79.565
30
0
0
VERTEX
8
Halfen
62
7
10
 408.565
20
-80.222
30
0
0
VERTEX
8
Halfen
62
7
10
 409.446
20
-80.811
30
0
0
VERTEX
8
Halfen
62
7
10
 410.371
20
-81.329
30
0
0
VERTEX
8
Halfen
62
7
10
 411.334
20
-81.772
30
0
0
VERTEX
8
Halfen
62
7
10
 412.328
20
-82.139
30
0
0
VERTEX
8
Halfen
62
7
10
 413.348
20
-82.427
30
0
0
VERTEX
8
Halfen
62
7
10
 414.388
20
-82.634
30
0
0
VERTEX
8
Halfen
62
7
10
 415.441
20
-82.758
30
0
0
VERTEX
8
Halfen
62
7
10
 416.5
20
-82.8
30
0
0
VERTEX
8
Halfen
62
7
10
 419.5
20
-82.8
30
0
0
VERTEX
8
Halfen
62
7
10
 420.559
20
-82.758
30
0
0
VERTEX
8
Halfen
62
7
10
 421.612
20
-82.634
30
0
0
VERTEX
8
Halfen
62
7
10
 422.652
20
-82.427
30
0
0
VERTEX
8
Halfen
62
7
10
 423.672
20
-82.139
30
0
0
VERTEX
8
Halfen
62
7
10
 424.666
20
-81.772
30
0
0
VERTEX
8
Halfen
62
7
10
 425.629
20
-81.329
30
0
0
VERTEX
8
Halfen
62
7
10
 426.554
20
-80.811
30
0
0
VERTEX
8
Halfen
62
7
10
 427.435
20
-80.222
30
0
0
VERTEX
8
Halfen
62
7
10
 428.268
20
-79.565
30
0
0
VERTEX
8
Halfen
62
7
10
 429.046
20
-78.846
30
0
0
VERTEX
8
Halfen
62
7
10
 429.765
20
-78.068
30
0
0
VERTEX
8
Halfen
62
7
10
 430.422
20
-77.235
30
0
0
VERTEX
8
Halfen
62
7
10
 431.011
20
-76.354
30
0
0
VERTEX
8
Halfen
62
7
10
 431.529
20
-75.429
30
0
0
VERTEX
8
Halfen
62
7
10
 431.972
20
-74.466
30
0
0
VERTEX
8
Halfen
62
7
10
 432.339
20
-73.472
30
0
0
VERTEX
8
Halfen
62
7
10
 432.627
20
-72.452
30
0
0
VERTEX
8
Halfen
62
7
10
 432.834
20
-71.412
30
0
0
VERTEX
8
Halfen
62
7
10
 432.958
20
-70.359
30
0
0
VERTEX
8
Halfen
62
7
10
 433
20
-69.3
30
0
0
SEQEND
8
Halfen
0
POLYLINE
8
Halfen
62
7
66
1
10
0.0
20
0.0
30
0.0
70
1
0
VERTEX
8
Halfen
62
7
10
 86
20
-775
30
0
0
VERTEX
8
Halfen
62
7
10
 86
20
-160
30
0
0
VERTEX
8
Halfen
62
7
10
 74
20
-160
30
0
0
VERTEX
8
Halfen
62
7
10
 74
20
-775
30
0
0
SEQEND
8
Halfen
0
POLYLINE
8
Halfen
62
7
66
1
10
0.0
20
0.0
30
0.0
70
1
0
VERTEX
8
Halfen
62
7
10
 85.25
20
-160
30
0
0
VERTEX
8
Halfen
62
7
10
 85.25
20
-62
30
0
0
VERTEX
8
Halfen
62
7
10
 74.75
20
-62
30
0
0
VERTEX
8
Halfen
62
7
10
 74.75
20
-160
30
0
0
SEQEND
8
Halfen
0
POLYLINE
8
Halfen
62
7
66
1
10
0.0
20
0.0
30
0.0
70
1
0
VERTEX
8
Halfen
62
7
10
 86
20
-62
30
0
0
VERTEX
8
Halfen
62
7
10
 86
20
-60
30
0
0
VERTEX
8
Halfen
62
7
10
 74
20
-60
30
0
0
VERTEX
8
Halfen
62
7
10
 74
20
-62
30
0
0
SEQEND
8
Halfen
0
POLYLINE
8
Halfen
62
7
66
1
10
0.0
20
0.0
30
0.0
70
1
0
VERTEX
8
Halfen
62
7
10
 85.25
20
-60
30
0
0
VERTEX
8
Halfen
62
7
10
 85.25
20
 60
30
0
0
VERTEX
8
Halfen
62
7
10
 74.75
20
 60
30
0
0
VERTEX
8
Halfen
62
7
10
 74.75
20
-60
30
0
0
SEQEND
8
Halfen
0
POLYLINE
8
Halfen
62
7
66
1
10
0.0
20
0.0
30
0.0
70
1
0
VERTEX
8
Halfen
62
7
10
 86
20
 60
30
0
0
VERTEX
8
Halfen
62
7
10
 86
20
 62
30
0
0
VERTEX
8
Halfen
62
7
10
 74
20
 62
30
0
0
VERTEX
8
Halfen
62
7
10
 74
20
 60
30
0
0
SEQEND
8
Halfen
0
POLYLINE
8
Halfen
62
7
66
1
10
0.0
20
0.0
30
0.0
70
1
0
VERTEX
8
Halfen
62
7
10
 85.25
20
 62
30
0
0
VERTEX
8
Halfen
62
7
10
 85.25
20
 160
30
0
0
VERTEX
8
Halfen
62
7
10
 74.75
20
 160
30
0
0
VERTEX
8
Halfen
62
7
10
 74.75
20
 62
30
0
0
SEQEND
8
Halfen
0
POLYLINE
8
Halfen
62
7
66
1
10
0.0
20
0.0
30
0.0
70
1
0
VERTEX
8
Halfen
62
7
10
 86
20
 160
30
0
0
VERTEX
8
Halfen
62
7
10
 86
20
 775
30
0
0
VERTEX
8
Halfen
62
7
10
 74
20
 775
30
0
0
VERTEX
8
Halfen
62
7
10
 74
20
 160
30
0
0
SEQEND
8
Halfen
0
POLYLINE
8
Halfen
62
7
66
1
10
0.0
20
0.0
30
0.0
70
1
0
VERTEX
8
Halfen
62
7
10
 256
20
-775
30
0
0
VERTEX
8
Halfen
62
7
10
 256
20
-160
30
0
0
VERTEX
8
Halfen
62
7
10
 244
20
-160
30
0
0
VERTEX
8
Halfen
62
7
10
 244
20
-775
30
0
0
SEQEND
8
Halfen
0
POLYLINE
8
Halfen
62
7
66
1
10
0.0
20
0.0
30
0.0
70
1
0
VERTEX
8
Halfen
62
7
10
 255.25
20
-160
30
0
0
VERTEX
8
Halfen
62
7
10
 255.25
20
-62
30
0
0
VERTEX
8
Halfen
62
7
10
 244.75
20
-62
30
0
0
VERTEX
8
Halfen
62
7
10
 244.75
20
-160
30
0
0
SEQEND
8
Halfen
0
POLYLINE
8
Halfen
62
7
66
1
10
0.0
20
0.0
30
0.0
70
1
0
VERTEX
8
Halfen
62
7
10
 256
20
-62
30
0
0
VERTEX
8
Halfen
62
7
10
 256
20
-60
30
0
0
VERTEX
8
Halfen
62
7
10
 244
20
-60
30
0
0
VERTEX
8
Halfen
62
7
10
 244
20
-62
30
0
0
SEQEND
8
Halfen
0
POLYLINE
8
Halfen
62
7
66
1
10
0.0
20
0.0
30
0.0
70
1
0
VERTEX
8
Halfen
62
7
10
 255.25
20
-60
30
0
0
VERTEX
8
Halfen
62
7
10
 255.25
20
 60
30
0
0
VERTEX
8
Halfen
62
7
10
 244.75
20
 60
30
0
0
VERTEX
8
Halfen
62
7
10
 244.75
20
-60
30
0
0
SEQEND
8
Halfen
0
POLYLINE
8
Halfen
62
7
66
1
10
0.0
20
0.0
30
0.0
70
1
0
VERTEX
8
Halfen
62
7
10
 256
20
 60
30
0
0
VERTEX
8
Halfen
62
7
10
 256
20
 62
30
0
0
VERTEX
8
Halfen
62
7
10
 244
20
 62
30
0
0
VERTEX
8
Halfen
62
7
10
 244
20
 60
30
0
0
SEQEND
8
Halfen
0
POLYLINE
8
Halfen
62
7
66
1
10
0.0
20
0.0
30
0.0
70
1
0
VERTEX
8
Halfen
62
7
10
 255.25
20
 62
30
0
0
VERTEX
8
Halfen
62
7
10
 255.25
20
 160
30
0
0
VERTEX
8
Halfen
62
7
10
 244.75
20
 160
30
0
0
VERTEX
8
Halfen
62
7
10
 244.75
20
 62
30
0
0
SEQEND
8
Halfen
0
POLYLINE
8
Halfen
62
7
66
1
10
0.0
20
0.0
30
0.0
70
1
0
VERTEX
8
Halfen
62
7
10
 256
20
 160
30
0
0
VERTEX
8
Halfen
62
7
10
 256
20
 775
30
0
0
VERTEX
8
Halfen
62
7
10
 244
20
 775
30
0
0
VERTEX
8
Halfen
62
7
10
 244
20
 160
30
0
0
SEQEND
8
Halfen
0
POLYLINE
8
Halfen
62
7
66
1
10
0.0
20
0.0
30
0.0
70
1
0
VERTEX
8
Halfen
62
7
10
 426
20
-775
30
0
0
VERTEX
8
Halfen
62
7
10
 426
20
-160
30
0
0
VERTEX
8
Halfen
62
7
10
 414
20
-160
30
0
0
VERTEX
8
Halfen
62
7
10
 414
20
-775
30
0
0
SEQEND
8
Halfen
0
POLYLINE
8
Halfen
62
7
66
1
10
0.0
20
0.0
30
0.0
70
1
0
VERTEX
8
Halfen
62
7
10
 425.25
20
-160
30
0
0
VERTEX
8
Halfen
62
7
10
 425.25
20
-62
30
0
0
VERTEX
8
Halfen
62
7
10
 414.75
20
-62
30
0
0
VERTEX
8
Halfen
62
7
10
 414.75
20
-160
30
0
0
SEQEND
8
Halfen
0
POLYLINE
8
Halfen
62
7
66
1
10
0.0
20
0.0
30
0.0
70
1
0
VERTEX
8
Halfen
62
7
10
 426
20
-62
30
0
0
VERTEX
8
Halfen
62
7
10
 426
20
-60
30
0
0
VERTEX
8
Halfen
62
7
10
 414
20
-60
30
0
0
VERTEX
8
Halfen
62
7
10
 414
20
-62
30
0
0
SEQEND
8
Halfen
0
POLYLINE
8
Halfen
62
7
66
1
10
0.0
20
0.0
30
0.0
70
1
0
VERTEX
8
Halfen
62
7
10
 425.25
20
-60
30
0
0
VERTEX
8
Halfen
62
7
10
 425.25
20
 60
30
0
0
VERTEX
8
Halfen
62
7
10
 414.75
20
 60
30
0
0
VERTEX
8
Halfen
62
7
10
 414.75
20
-60
30
0
0
SEQEND
8
Halfen
0
POLYLINE
8
Halfen
62
7
66
1
10
0.0
20
0.0
30
0.0
70
1
0
VERTEX
8
Halfen
62
7
10
 426
20
 60
30
0
0
VERTEX
8
Halfen
62
7
10
 426
20
 62
30
0
0
VERTEX
8
Halfen
62
7
10
 414
20
 62
30
0
0
VERTEX
8
Halfen
62
7
10
 414
20
 60
30
0
0
SEQEND
8
Halfen
0
POLYLINE
8
Halfen
62
7
66
1
10
0.0
20
0.0
30
0.0
70
1
0
VERTEX
8
Halfen
62
7
10
 425.25
20
 62
30
0
0
VERTEX
8
Halfen
62
7
10
 425.25
20
 160
30
0
0
VERTEX
8
Halfen
62
7
10
 414.75
20
 160
30
0
0
VERTEX
8
Halfen
62
7
10
 414.75
20
 62
30
0
0
SEQEND
8
Halfen
0
POLYLINE
8
Halfen
62
7
66
1
10
0.0
20
0.0
30
0.0
70
1
0
VERTEX
8
Halfen
62
7
10
 426
20
 160
30
0
0
VERTEX
8
Halfen
62
7
10
 426
20
 775
30
0
0
VERTEX
8
Halfen
62
7
10
 414
20
 775
30
0
0
VERTEX
8
Halfen
62
7
10
 414
20
 160
30
0
0
SEQEND
8
Halfen
0
POLYLINE
8
Halfen
62
7
66
1
10
0.0
20
0.0
30
0.0
70
1
0
VERTEX
8
Halfen
62
7
10
 950
20
-60
30
0
0
VERTEX
8
Halfen
62
7
10
 950
20
 60
30
0
0
VERTEX
8
Halfen
62
7
10
 936.5
20
 73.5
30
0
0
VERTEX
8
Halfen
62
7
10
 936.5
20
 60
30
0
0
VERTEX
8
Halfen
62
7
10
 750
20
 60
30
0
0
VERTEX
8
Halfen
62
7
10
 750
20
-60
30
0
0
VERTEX
8
Halfen
62
7
10
 936.5
20
-60
30
0
0
VERTEX
8
Halfen
62
7
10
 936.5
20
-73.5
30
0
0
SEQEND
8
Halfen
0
POLYLINE
8
Halfen
62
7
66
1
10
0.0
20
0.0
30
0.0
70
1
0
VERTEX
8
Halfen
62
7
10
 750
20
-60
30
0
0
VERTEX
8
Halfen
62
7
10
 750
20
 60
30
0
0
VERTEX
8
Halfen
62
7
10
 713.5
20
 60
30
0
0
VERTEX
8
Halfen
62
7
10
 713.5
20
 73.5
30
0
0
VERTEX
8
Halfen
62
7
10
 700
20
 60
30
0
0
VERTEX
8
Halfen
62
7
10
 700
20
-60
30
0
0
VERTEX
8
Halfen
62
7
10
 713.5
20
-73.5
30
0
0
VERTEX
8
Halfen
62
7
10
 713.5
20
-60
30
0
0
SEQEND
8
Halfen
0
POLYLINE
8
Halfen
62
7
66
1
10
0.0
20
0.0
30
0.0
70
1
0
VERTEX
8
Halfen
62
7
10
 947.5
20
-58.75
30
0
0
VERTEX
8
Halfen
62
7
10
 947.5
20
 58.75
30
0
0
VERTEX
8
Halfen
62
7
10
 939
20
 67.25
30
0
0
VERTEX
8
Halfen
62
7
10
 939
20
 58
30
0
0
VERTEX
8
Halfen
62
7
10
 752
20
 58
30
0
0
VERTEX
8
Halfen
62
7
10
 752
20
-58
30
0
0
VERTEX
8
Halfen
62
7
10
 939
20
-58
30
0
0
VERTEX
8
Halfen
62
7
10
 939
20
-67.25
30
0
0
SEQEND
8
Halfen
0
POLYLINE
8
Halfen
62
7
66
1
10
0.0
20
0.0
30
0.0
70
1
0
VERTEX
8
Halfen
62
7
10
 748
20
-58
30
0
0
VERTEX
8
Halfen
62
7
10
 748
20
 58
30
0
0
VERTEX
8
Halfen
62
7
10
 711
20
 58
30
0
0
VERTEX
8
Halfen
62
7
10
 711
20
 67.25
30
0
0
VERTEX
8
Halfen
62
7
10
 702.5
20
 58.75
30
0
0
VERTEX
8
Halfen
62
7
10
 702.5
20
-58.75
30
0
0
VERTEX
8
Halfen
62
7
10
 711
20
-67.25
30
0
0
VERTEX
8
Halfen
62
7
10
 711
20
-58
30
0
0
SEQEND
8
Halfen
0
POLYLINE
8
Halfen
62
7
66
1
10
0.0
20
0.0
30
0.0
70
1
0
VERTEX
8
Halfen
62
7
10
 935
20
-81.8
30
0
0
VERTEX
8
Halfen
62
7
10
 935
20
 81.8
30
0
0
VERTEX
8
Halfen
62
7
10
 931
20
 81.8
30
0
0
VERTEX
8
Halfen
62
7
10
 930.846
20
 81.797
30
0
0
VERTEX
8
Halfen
62
7
10
 930.691
20
 81.786
30
0
0
VERTEX
8
Halfen
62
7
10
 930.538
20
 81.769
30
0
0
VERTEX
8
Halfen
62
7
10
 930.385
20
 81.746
30
0
0
VERTEX
8
Halfen
62
7
10
 930.234
20
 81.715
30
0
0
VERTEX
8
Halfen
62
7
10
 930.084
20
 81.678
30
0
0
VERTEX
8
Halfen
62
7
10
 929.936
20
 81.634
30
0
0
VERTEX
8
Halfen
62
7
10
 929.789
20
 81.584
30
0
0
VERTEX
8
Halfen
62
7
10
 929.646
20
 81.527
30
0
0
VERTEX
8
Halfen
62
7
10
 929.505
20
 81.464
30
0
0
VERTEX
8
Halfen
62
7
10
 929.366
20
 81.395
30
0
0
VERTEX
8
Halfen
62
7
10
 929.231
20
 81.32
30
0
0
VERTEX
8
Halfen
62
7
10
 929.1
20
 81.239
30
0
0
VERTEX
8
Halfen
62
7
10
 928.972
20
 81.153
30
0
0
VERTEX
8
Halfen
62
7
10
 928.848
20
 81.06
30
0
0
VERTEX
8
Halfen
62
7
10
 928.728
20
 80.963
30
0
0
VERTEX
8
Halfen
62
7
10
 928.613
20
 80.86
30
0
0
VERTEX
8
Halfen
62
7
10
 928.502
20
 80.752
30
0
0
VERTEX
8
Halfen
62
7
10
 928.397
20
 80.639
30
0
0
VERTEX
8
Halfen
62
7
10
 928.296
20
 80.522
30
0
0
VERTEX
8
Halfen
62
7
10
 927.41
20
 79.491
30
0
0
VERTEX
8
Halfen
62
7
10
 926.479
20
 78.5
30
0
0
VERTEX
8
Halfen
62
7
10
 925.505
20
 77.551
30
0
0
VERTEX
8
Halfen
62
7
10
 924.491
20
 76.646
30
0
0
VERTEX
8
Halfen
62
7
10
 923.437
20
 75.787
30
0
0
VERTEX
8
Halfen
62
7
10
 922.347
20
 74.975
30
0
0
VERTEX
8
Halfen
62
7
10
 921.222
20
 74.211
30
0
0
VERTEX
8
Halfen
62
7
10
 920.064
20
 73.499
30
0
0
VERTEX
8
Halfen
62
7
10
 918.876
20
 72.838
30
0
0
VERTEX
8
Halfen
62
7
10
 917.66
20
 72.23
30
0
0
VERTEX
8
Halfen
62
7
10
 916.418
20
 71.676
30
0
0
VERTEX
8
Halfen
62
7
10
 915.153
20
 71.178
30
0
0
VERTEX
8
Halfen
62
7
10
 913.867
20
 70.736
30
0
0
VERTEX
8
Halfen
62
7
10
 912.563
20
 70.351
30
0
0
VERTEX
8
Halfen
62
7
10
 911.243
20
 70.024
30
0
0
VERTEX
8
Halfen
62
7
10
 909.911
20
 69.756
30
0
0
VERTEX
8
Halfen
62
7
10
 908.567
20
 69.547
30
0
0
VERTEX
8
Halfen
62
7
10
 907.216
20
 69.397
30
0
0
VERTEX
8
Halfen
62
7
10
 905.859
20
 69.307
30
0
0
VERTEX
8
Halfen
62
7
10
 904.5
20
 69.277
30
0
0
VERTEX
8
Halfen
62
7
10
 882.5
20
 69.277
30
0
0
VERTEX
8
Halfen
62
7
10
 881.141
20
 69.307
30
0
0
VERTEX
8
Halfen
62
7
10
 879.784
20
 69.397
30
0
0
VERTEX
8
Halfen
62
7
10
 878.433
20
 69.547
30
0
0
VERTEX
8
Halfen
62
7
10
 877.089
20
 69.756
30
0
0
VERTEX
8
Halfen
62
7
10
 875.757
20
 70.024
30
0
0
VERTEX
8
Halfen
62
7
10
 874.437
20
 70.351
30
0
0
VERTEX
8
Halfen
62
7
10
 873.133
20
 70.736
30
0
0
VERTEX
8
Halfen
62
7
10
 871.847
20
 71.178
30
0
0
VERTEX
8
Halfen
62
7
10
 870.582
20
 71.676
30
0
0
VERTEX
8
Halfen
62
7
10
 869.34
20
 72.23
30
0
0
VERTEX
8
Halfen
62
7
10
 868.124
20
 72.838
30
0
0
VERTEX
8
Halfen
62
7
10
 866.936
20
 73.499
30
0
0
VERTEX
8
Halfen
62
7
10
 865.778
20
 74.211
30
0
0
VERTEX
8
Halfen
62
7
10
 864.653
20
 74.975
30
0
0
VERTEX
8
Halfen
62
7
10
 863.563
20
 75.787
30
0
0
VERTEX
8
Halfen
62
7
10
 862.509
20
 76.646
30
0
0
VERTEX
8
Halfen
62
7
10
 861.495
20
 77.551
30
0
0
VERTEX
8
Halfen
62
7
10
 860.521
20
 78.5
30
0
0
VERTEX
8
Halfen
62
7
10
 859.59
20
 79.491
30
0
0
VERTEX
8
Halfen
62
7
10
 858.704
20
 80.522
30
0
0
VERTEX
8
Halfen
62
7
10
 858.603
20
 80.639
30
0
0
VERTEX
8
Halfen
62
7
10
 858.498
20
 80.752
30
0
0
VERTEX
8
Halfen
62
7
10
 858.387
20
 80.86
30
0
0
VERTEX
8
Halfen
62
7
10
 858.272
20
 80.963
30
0
0
VERTEX
8
Halfen
62
7
10
 858.152
20
 81.06
30
0
0
VERTEX
8
Halfen
62
7
10
 858.028
20
 81.153
30
0
0
VERTEX
8
Halfen
62
7
10
 857.9
20
 81.239
30
0
0
VERTEX
8
Halfen
62
7
10
 857.769
20
 81.32
30
0
0
VERTEX
8
Halfen
62
7
10
 857.634
20
 81.395
30
0
0
VERTEX
8
Halfen
62
7
10
 857.495
20
 81.464
30
0
0
VERTEX
8
Halfen
62
7
10
 857.354
20
 81.527
30
0
0
VERTEX
8
Halfen
62
7
10
 857.211
20
 81.584
30
0
0
VERTEX
8
Halfen
62
7
10
 857.064
20
 81.634
30
0
0
VERTEX
8
Halfen
62
7
10
 856.916
20
 81.678
30
0
0
VERTEX
8
Halfen
62
7
10
 856.766
20
 81.715
30
0
0
VERTEX
8
Halfen
62
7
10
 856.615
20
 81.746
30
0
0
VERTEX
8
Halfen
62
7
10
 856.462
20
 81.769
30
0
0
VERTEX
8
Halfen
62
7
10
 856.309
20
 81.786
30
0
0
VERTEX
8
Halfen
62
7
10
 856.154
20
 81.797
30
0
0
VERTEX
8
Halfen
62
7
10
 856
20
 81.8
30
0
0
VERTEX
8
Halfen
62
7
10
 852
20
 81.8
30
0
0
VERTEX
8
Halfen
62
7
10
 852
20
-81.8
30
0
0
VERTEX
8
Halfen
62
7
10
 856
20
-81.8
30
0
0
VERTEX
8
Halfen
62
7
10
 856.154
20
-81.797
30
0
0
VERTEX
8
Halfen
62
7
10
 856.309
20
-81.786
30
0
0
VERTEX
8
Halfen
62
7
10
 856.462
20
-81.769
30
0
0
VERTEX
8
Halfen
62
7
10
 856.615
20
-81.746
30
0
0
VERTEX
8
Halfen
62
7
10
 856.766
20
-81.715
30
0
0
VERTEX
8
Halfen
62
7
10
 856.916
20
-81.678
30
0
0
VERTEX
8
Halfen
62
7
10
 857.064
20
-81.634
30
0
0
VERTEX
8
Halfen
62
7
10
 857.211
20
-81.584
30
0
0
VERTEX
8
Halfen
62
7
10
 857.354
20
-81.527
30
0
0
VERTEX
8
Halfen
62
7
10
 857.495
20
-81.464
30
0
0
VERTEX
8
Halfen
62
7
10
 857.634
20
-81.395
30
0
0
VERTEX
8
Halfen
62
7
10
 857.769
20
-81.32
30
0
0
VERTEX
8
Halfen
62
7
10
 857.9
20
-81.239
30
0
0
VERTEX
8
Halfen
62
7
10
 858.028
20
-81.153
30
0
0
VERTEX
8
Halfen
62
7
10
 858.152
20
-81.06
30
0
0
VERTEX
8
Halfen
62
7
10
 858.272
20
-80.963
30
0
0
VERTEX
8
Halfen
62
7
10
 858.387
20
-80.86
30
0
0
VERTEX
8
Halfen
62
7
10
 858.498
20
-80.752
30
0
0
VERTEX
8
Halfen
62
7
10
 858.603
20
-80.639
30
0
0
VERTEX
8
Halfen
62
7
10
 858.704
20
-80.522
30
0
0
VERTEX
8
Halfen
62
7
10
 859.59
20
-79.491
30
0
0
VERTEX
8
Halfen
62
7
10
 860.521
20
-78.5
30
0
0
VERTEX
8
Halfen
62
7
10
 861.495
20
-77.551
30
0
0
VERTEX
8
Halfen
62
7
10
 862.509
20
-76.646
30
0
0
VERTEX
8
Halfen
62
7
10
 863.563
20
-75.787
30
0
0
VERTEX
8
Halfen
62
7
10
 864.653
20
-74.975
30
0
0
VERTEX
8
Halfen
62
7
10
 865.778
20
-74.211
30
0
0
VERTEX
8
Halfen
62
7
10
 866.936
20
-73.499
30
0
0
VERTEX
8
Halfen
62
7
10
 868.124
20
-72.838
30
0
0
VERTEX
8
Halfen
62
7
10
 869.34
20
-72.23
30
0
0
VERTEX
8
Halfen
62
7
10
 870.582
20
-71.676
30
0
0
VERTEX
8
Halfen
62
7
10
 871.847
20
-71.178
30
0
0
VERTEX
8
Halfen
62
7
10
 873.133
20
-70.736
30
0
0
VERTEX
8
Halfen
62
7
10
 874.437
20
-70.351
30
0
0
VERTEX
8
Halfen
62
7
10
 875.757
20
-70.024
30
0
0
VERTEX
8
Halfen
62
7
10
 877.089
20
-69.756
30
0
0
VERTEX
8
Halfen
62
7
10
 878.433
20
-69.547
30
0
0
VERTEX
8
Halfen
62
7
10
 879.784
20
-69.397
30
0
0
VERTEX
8
Halfen
62
7
10
 881.141
20
-69.307
30
0
0
VERTEX
8
Halfen
62
7
10
 882.5
20
-69.277
30
0
0
VERTEX
8
Halfen
62
7
10
 904.5
20
-69.277
30
0
0
VERTEX
8
Halfen
62
7
10
 905.859
20
-69.307
30
0
0
VERTEX
8
Halfen
62
7
10
 907.216
20
-69.397
30
0
0
VERTEX
8
Halfen
62
7
10
 908.567
20
-69.547
30
0
0
VERTEX
8
Halfen
62
7
10
 909.911
20
-69.756
30
0
0
VERTEX
8
Halfen
62
7
10
 911.243
20
-70.024
30
0
0
VERTEX
8
Halfen
62
7
10
 912.563
20
-70.351
30
0
0
VERTEX
8
Halfen
62
7
10
 913.867
20
-70.736
30
0
0
VERTEX
8
Halfen
62
7
10
 915.153
20
-71.178
30
0
0
VERTEX
8
Halfen
62
7
10
 916.418
20
-71.676
30
0
0
VERTEX
8
Halfen
62
7
10
 917.66
20
-72.23
30
0
0
VERTEX
8
Halfen
62
7
10
 918.876
20
-72.838
30
0
0
VERTEX
8
Halfen
62
7
10
 920.064
20
-73.499
30
0
0
VERTEX
8
Halfen
62
7
10
 921.222
20
-74.211
30
0
0
VERTEX
8
Halfen
62
7
10
 922.347
20
-74.975
30
0
0
VERTEX
8
Halfen
62
7
10
 923.437
20
-75.787
30
0
0
VERTEX
8
Halfen
62
7
10
 924.491
20
-76.646
30
0
0
VERTEX
8
Halfen
62
7
10
 925.505
20
-77.551
30
0
0
VERTEX
8
Halfen
62
7
10
 926.479
20
-78.5
30
0
0
VERTEX
8
Halfen
62
7
10
 927.41
20
-79.491
30
0
0
VERTEX
8
Halfen
62
7
10
 928.296
20
-80.522
30
0
0
VERTEX
8
Halfen
62
7
10
 928.397
20
-80.639
30
0
0
VERTEX
8
Halfen
62
7
10
 928.502
20
-80.752
30
0
0
VERTEX
8
Halfen
62
7
10
 928.613
20
-80.86
30
0
0
VERTEX
8
Halfen
62
7
10
 928.728
20
-80.963
30
0
0
VERTEX
8
Halfen
62
7
10
 928.848
20
-81.06
30
0
0
VERTEX
8
Halfen
62
7
10
 928.972
20
-81.153
30
0
0
VERTEX
8
Halfen
62
7
10
 929.1
20
-81.239
30
0
0
VERTEX
8
Halfen
62
7
10
 929.231
20
-81.32
30
0
0
VERTEX
8
Halfen
62
7
10
 929.366
20
-81.395
30
0
0
VERTEX
8
Halfen
62
7
10
 929.505
20
-81.464
30
0
0
VERTEX
8
Halfen
62
7
10
 929.646
20
-81.527
30
0
0
VERTEX
8
Halfen
62
7
10
 929.789
20
-81.584
30
0
0
VERTEX
8
Halfen
62
7
10
 929.936
20
-81.634
30
0
0
VERTEX
8
Halfen
62
7
10
 930.084
20
-81.678
30
0
0
VERTEX
8
Halfen
62
7
10
 930.234
20
-81.715
30
0
0
VERTEX
8
Halfen
62
7
10
 930.385
20
-81.746
30
0
0
VERTEX
8
Halfen
62
7
10
 930.538
20
-81.769
30
0
0
VERTEX
8
Halfen
62
7
10
 930.691
20
-81.786
30
0
0
VERTEX
8
Halfen
62
7
10
 930.846
20
-81.797
30
0
0
VERTEX
8
Halfen
62
7
10
 931
20
-81.8
30
0
0
SEQEND
8
Halfen
0
POLYLINE
8
Halfen
62
7
66
1
10
0.0
20
0.0
30
0.0
70
1
0
VERTEX
8
Halfen
62
7
10
 742
20
-775
30
0
0
VERTEX
8
Halfen
62
7
10
 742
20
-160
30
0
0
VERTEX
8
Halfen
62
7
10
 730
20
-160
30
0
0
VERTEX
8
Halfen
62
7
10
 730
20
-775
30
0
0
SEQEND
8
Halfen
0
POLYLINE
8
Halfen
62
7
66
1
10
0.0
20
0.0
30
0.0
70
1
0
VERTEX
8
Halfen
62
7
10
 741.25
20
-160
30
0
0
VERTEX
8
Halfen
62
7
10
 741.25
20
-62
30
0
0
VERTEX
8
Halfen
62
7
10
 730.75
20
-62
30
0
0
VERTEX
8
Halfen
62
7
10
 730.75
20
-160
30
0
0
SEQEND
8
Halfen
0
POLYLINE
8
Halfen
62
7
66
1
10
0.0
20
0.0
30
0.0
70
1
0
VERTEX
8
Halfen
62
7
10
 742
20
-62
30
0
0
VERTEX
8
Halfen
62
7
10
 742
20
-60
30
0
0
VERTEX
8
Halfen
62
7
10
 730
20
-60
30
0
0
VERTEX
8
Halfen
62
7
10
 730
20
-62
30
0
0
SEQEND
8
Halfen
0
POLYLINE
8
Halfen
62
7
66
1
10
0.0
20
0.0
30
0.0
70
1
0
VERTEX
8
Halfen
62
7
10
 741.25
20
-60
30
0
0
VERTEX
8
Halfen
62
7
10
 741.25
20
 60
30
0
0
VERTEX
8
Halfen
62
7
10
 730.75
20
 60
30
0
0
VERTEX
8
Halfen
62
7
10
 730.75
20
-60
30
0
0
SEQEND
8
Halfen
0
POLYLINE
8
Halfen
62
7
66
1
10
0.0
20
0.0
30
0.0
70
1
0
VERTEX
8
Halfen
62
7
10
 742
20
 60
30
0
0
VERTEX
8
Halfen
62
7
10
 742
20
 62
30
0
0
VERTEX
8
Halfen
62
7
10
 730
20
 62
30
0
0
VERTEX
8
Halfen
62
7
10
 730
20
 60
30
0
0
SEQEND
8
Halfen
0
POLYLINE
8
Halfen
62
7
66
1
10
0.0
20
0.0
30
0.0
70
1
0
VERTEX
8
Halfen
62
7
10
 741.25
20
 62
30
0
0
VERTEX
8
Halfen
62
7
10
 741.25
20
 160
30
0
0
VERTEX
8
Halfen
62
7
10
 730.75
20
 160
30
0
0
VERTEX
8
Halfen
62
7
10
 730.75
20
 62
30
0
0
SEQEND
8
Halfen
0
POLYLINE
8
Halfen
62
7
66
1
10
0.0
20
0.0
30
0.0
70
1
0
VERTEX
8
Halfen
62
7
10
 742
20
 160
30
0
0
VERTEX
8
Halfen
62
7
10
 742
20
 775
30
0
0
VERTEX
8
Halfen
62
7
10
 730
20
 775
30
0
0
VERTEX
8
Halfen
62
7
10
 730
20
 160
30
0
0
SEQEND
8
Halfen
0
ENDSEC
0
EOF
