0
SECTION
2
HEADER
9
$EXTMIN
10
 0
20
 100
30
0.0
9
$EXTMAX
10
 0
20
 100
30
0.0
9
$LIMMIN
10
 100
20
 0
9
$LIMMAX
10
 0
20
 100
9
$PSLTSCALE
70
1
0
ENDSEC
0
SECTION
2
TABLES
0
TABLE
2
LAYER
70
2
0
LAYER
2
0
70
0
62
7
6
CONTINUOUS
0
LAYER
2
Halfen
70
0
62
7
6
CONTINUOUS
0
ENDTAB
0
ENDSEC
0
SECTION
2
ENTITIES
0
POLYLINE
8
Halfen
62
7
66
1
10
0.0
20
0.0
30
0.0
70
1
0
VERTEX
8
Halfen
62
7
10
 0
20
-73.5
30
0
0
VERTEX
8
Halfen
62
7
10
 1000
20
-73.5
30
0
0
VERTEX
8
Halfen
62
7
10
 1000
20
 73.5
30
0
0
VERTEX
8
Halfen
62
7
10
 0
20
 73.5
30
0
0
SEQEND
8
Halfen
0
POLYLINE
8
Halfen
62
7
66
1
10
0.0
20
0.0
30
0.0
70
1
0
VERTEX
8
Halfen
62
7
10
 0
20
-60
30
0
0
VERTEX
8
Halfen
62
7
10
 1000
20
-60
30
0
0
VERTEX
8
Halfen
62
7
10
 1000
20
 60
30
0
0
VERTEX
8
Halfen
62
7
10
 0
20
 60
30
0
0
SEQEND
8
Halfen
0
POLYLINE
8
Halfen
62
7
66
1
10
0.0
20
0.0
30
0.0
70
1
0
VERTEX
8
Halfen
62
7
10
 20
20
-32.5
30
0
0
VERTEX
8
Halfen
62
7
10
 37
20
-1.5
30
0
0
VERTEX
8
Halfen
62
7
10
 28
20
-1.5
30
0
0
VERTEX
8
Halfen
62
7
10
 28
20
 32.5
30
0
0
VERTEX
8
Halfen
62
7
10
 12
20
 32.5
30
0
0
VERTEX
8
Halfen
62
7
10
 12
20
-1.5
30
0
0
VERTEX
8
Halfen
62
7
10
 3
20
-1.5
30
0
0
SEQEND
8
Halfen
0
POLYLINE
8
Halfen
62
7
66
1
10
0.0
20
0.0
30
0.0
70
1
0
VERTEX
8
Halfen
62
7
10
 980
20
-32.5
30
0
0
VERTEX
8
Halfen
62
7
10
 997
20
-1.5
30
0
0
VERTEX
8
Halfen
62
7
10
 988
20
-1.5
30
0
0
VERTEX
8
Halfen
62
7
10
 988
20
 32.5
30
0
0
VERTEX
8
Halfen
62
7
10
 972
20
 32.5
30
0
0
VERTEX
8
Halfen
62
7
10
 972
20
-1.5
30
0
0
VERTEX
8
Halfen
62
7
10
 963
20
-1.5
30
0
0
SEQEND
8
Halfen
0
POLYLINE
8
Halfen
62
7
66
1
10
0.0
20
0.0
30
0.0
70
1
0
VERTEX
8
Halfen
62
7
10
 75
20
-702.262
30
0
0
VERTEX
8
Halfen
62
7
10
 75
20
 700.922
30
0
0
VERTEX
8
Halfen
62
7
10
 65
20
 700.922
30
0
0
VERTEX
8
Halfen
62
7
10
 65
20
-702.262
30
0
0
SEQEND
8
Halfen
0
POLYLINE
8
Halfen
62
7
66
1
10
0.0
20
0.0
30
0.0
70
1
0
VERTEX
8
Halfen
62
7
10
 195
20
-702.262
30
0
0
VERTEX
8
Halfen
62
7
10
 195
20
 700.922
30
0
0
VERTEX
8
Halfen
62
7
10
 185
20
 700.922
30
0
0
VERTEX
8
Halfen
62
7
10
 185
20
-702.262
30
0
0
SEQEND
8
Halfen
0
POLYLINE
8
Halfen
62
7
66
1
10
0.0
20
0.0
30
0.0
70
1
0
VERTEX
8
Halfen
62
7
10
 325
20
-702.262
30
0
0
VERTEX
8
Halfen
62
7
10
 325
20
 700.922
30
0
0
VERTEX
8
Halfen
62
7
10
 315
20
 700.922
30
0
0
VERTEX
8
Halfen
62
7
10
 315
20
-702.262
30
0
0
SEQEND
8
Halfen
0
POLYLINE
8
Halfen
62
7
66
1
10
0.0
20
0.0
30
0.0
70
1
0
VERTEX
8
Halfen
62
7
10
 575
20
-702.262
30
0
0
VERTEX
8
Halfen
62
7
10
 575
20
 700.922
30
0
0
VERTEX
8
Halfen
62
7
10
 565
20
 700.922
30
0
0
VERTEX
8
Halfen
62
7
10
 565
20
-702.262
30
0
0
SEQEND
8
Halfen
0
POLYLINE
8
Halfen
62
7
66
1
10
0.0
20
0.0
30
0.0
70
1
0
VERTEX
8
Halfen
62
7
10
 695
20
-702.262
30
0
0
VERTEX
8
Halfen
62
7
10
 695
20
 700.922
30
0
0
VERTEX
8
Halfen
62
7
10
 685
20
 700.922
30
0
0
VERTEX
8
Halfen
62
7
10
 685
20
-702.262
30
0
0
SEQEND
8
Halfen
0
POLYLINE
8
Halfen
62
7
66
1
10
0.0
20
0.0
30
0.0
70
1
0
VERTEX
8
Halfen
62
7
10
 825
20
-702.262
30
0
0
VERTEX
8
Halfen
62
7
10
 825
20
 700.922
30
0
0
VERTEX
8
Halfen
62
7
10
 815
20
 700.922
30
0
0
VERTEX
8
Halfen
62
7
10
 815
20
-702.262
30
0
0
SEQEND
8
Halfen
0
POLYLINE
8
Halfen
62
7
66
1
10
0.0
20
0.0
30
0.0
70
1
0
VERTEX
8
Halfen
62
7
10
 935
20
-702.262
30
0
0
VERTEX
8
Halfen
62
7
10
 935
20
 700.922
30
0
0
VERTEX
8
Halfen
62
7
10
 925
20
 700.922
30
0
0
VERTEX
8
Halfen
62
7
10
 925
20
-702.262
30
0
0
SEQEND
8
Halfen
0
POLYLINE
8
Halfen
62
7
66
1
10
0.0
20
0.0
30
0.0
70
1
0
VERTEX
8
Halfen
62
7
10
 815
20
-702.262
30
0
0
VERTEX
8
Halfen
62
7
10
 815
20
 700.922
30
0
0
VERTEX
8
Halfen
62
7
10
 805
20
 700.922
30
0
0
VERTEX
8
Halfen
62
7
10
 805
20
-702.262
30
0
0
SEQEND
8
Halfen
0
POLYLINE
8
Halfen
62
7
66
1
10
0.0
20
0.0
30
0.0
70
1
0
VERTEX
8
Halfen
62
7
10
 685
20
-702.262
30
0
0
VERTEX
8
Halfen
62
7
10
 685
20
 700.922
30
0
0
VERTEX
8
Halfen
62
7
10
 675
20
 700.922
30
0
0
VERTEX
8
Halfen
62
7
10
 675
20
-702.262
30
0
0
SEQEND
8
Halfen
0
POLYLINE
8
Halfen
62
7
66
1
10
0.0
20
0.0
30
0.0
70
1
0
VERTEX
8
Halfen
62
7
10
 435
20
-702.262
30
0
0
VERTEX
8
Halfen
62
7
10
 435
20
 700.922
30
0
0
VERTEX
8
Halfen
62
7
10
 425
20
 700.922
30
0
0
VERTEX
8
Halfen
62
7
10
 425
20
-702.262
30
0
0
SEQEND
8
Halfen
0
POLYLINE
8
Halfen
62
7
66
1
10
0.0
20
0.0
30
0.0
70
1
0
VERTEX
8
Halfen
62
7
10
 315
20
-702.262
30
0
0
VERTEX
8
Halfen
62
7
10
 315
20
 700.922
30
0
0
VERTEX
8
Halfen
62
7
10
 305
20
 700.922
30
0
0
VERTEX
8
Halfen
62
7
10
 305
20
-702.262
30
0
0
SEQEND
8
Halfen
0
POLYLINE
8
Halfen
62
7
66
1
10
0.0
20
0.0
30
0.0
70
1
0
VERTEX
8
Halfen
62
7
10
 185
20
-702.262
30
0
0
VERTEX
8
Halfen
62
7
10
 185
20
 700.922
30
0
0
VERTEX
8
Halfen
62
7
10
 175
20
 700.922
30
0
0
VERTEX
8
Halfen
62
7
10
 175
20
-702.262
30
0
0
SEQEND
8
Halfen
0
POLYLINE
8
Halfen
62
7
66
1
10
0.0
20
0.0
30
0.0
70
1
0
VERTEX
8
Halfen
62
7
10
 1380
20
-60
30
0
0
VERTEX
8
Halfen
62
7
10
 1380
20
 60
30
0
0
VERTEX
8
Halfen
62
7
10
 1366.5
20
 73.5
30
0
0
VERTEX
8
Halfen
62
7
10
 1366.5
20
 60
30
0
0
VERTEX
8
Halfen
62
7
10
 1250
20
 60
30
0
0
VERTEX
8
Halfen
62
7
10
 1250
20
-60
30
0
0
VERTEX
8
Halfen
62
7
10
 1366.5
20
-60
30
0
0
VERTEX
8
Halfen
62
7
10
 1366.5
20
-73.5
30
0
0
SEQEND
8
Halfen
0
POLYLINE
8
Halfen
62
7
66
1
10
0.0
20
0.0
30
0.0
70
1
0
VERTEX
8
Halfen
62
7
10
 1250
20
-60
30
0
0
VERTEX
8
Halfen
62
7
10
 1250
20
 60
30
0
0
VERTEX
8
Halfen
62
7
10
 1213.5
20
 60
30
0
0
VERTEX
8
Halfen
62
7
10
 1213.5
20
 73.5
30
0
0
VERTEX
8
Halfen
62
7
10
 1200
20
 60
30
0
0
VERTEX
8
Halfen
62
7
10
 1200
20
-60
30
0
0
VERTEX
8
Halfen
62
7
10
 1213.5
20
-73.5
30
0
0
VERTEX
8
Halfen
62
7
10
 1213.5
20
-60
30
0
0
SEQEND
8
Halfen
0
POLYLINE
8
Halfen
62
7
66
1
10
0.0
20
0.0
30
0.0
70
1
0
VERTEX
8
Halfen
62
7
10
 1377.5
20
-58.75
30
0
0
VERTEX
8
Halfen
62
7
10
 1377.5
20
 58.75
30
0
0
VERTEX
8
Halfen
62
7
10
 1369
20
 67.25
30
0
0
VERTEX
8
Halfen
62
7
10
 1369
20
 58
30
0
0
VERTEX
8
Halfen
62
7
10
 1252
20
 58
30
0
0
VERTEX
8
Halfen
62
7
10
 1252
20
-58
30
0
0
VERTEX
8
Halfen
62
7
10
 1369
20
-58
30
0
0
VERTEX
8
Halfen
62
7
10
 1369
20
-67.25
30
0
0
SEQEND
8
Halfen
0
POLYLINE
8
Halfen
62
7
66
1
10
0.0
20
0.0
30
0.0
70
1
0
VERTEX
8
Halfen
62
7
10
 1248
20
-58
30
0
0
VERTEX
8
Halfen
62
7
10
 1248
20
 58
30
0
0
VERTEX
8
Halfen
62
7
10
 1211
20
 58
30
0
0
VERTEX
8
Halfen
62
7
10
 1211
20
 67.25
30
0
0
VERTEX
8
Halfen
62
7
10
 1202.5
20
 58.75
30
0
0
VERTEX
8
Halfen
62
7
10
 1202.5
20
-58.75
30
0
0
VERTEX
8
Halfen
62
7
10
 1211
20
-67.25
30
0
0
VERTEX
8
Halfen
62
7
10
 1211
20
-58
30
0
0
SEQEND
8
Halfen
0
POLYLINE
8
Halfen
62
7
66
1
10
0.0
20
0.0
30
0.0
70
1
0
VERTEX
8
Halfen
62
7
10
 1350
20
-702.262
30
0
0
VERTEX
8
Halfen
62
7
10
 1350
20
-92.321
30
0
0
VERTEX
8
Halfen
62
7
10
 1349.392
20
-85.375
30
0
0
VERTEX
8
Halfen
62
7
10
 1347.588
20
-78.64
30
0
0
VERTEX
8
Halfen
62
7
10
 1344.641
20
-72.321
30
0
0
VERTEX
8
Halfen
62
7
10
 1259.019
20
 75.981
30
0
0
VERTEX
8
Halfen
62
7
10
 1256.809
20
 80.72
30
0
0
VERTEX
8
Halfen
62
7
10
 1255.456
20
 85.771
30
0
0
VERTEX
8
Halfen
62
7
10
 1255
20
 90.981
30
0
0
VERTEX
8
Halfen
62
7
10
 1255
20
 161.922
30
0
0
VERTEX
8
Halfen
62
7
10
 1255
20
 700.922
30
0
0
VERTEX
8
Halfen
62
7
10
 1245
20
 700.922
30
0
0
VERTEX
8
Halfen
62
7
10
 1245
20
 161.922
30
0
0
VERTEX
8
Halfen
62
7
10
 1245
20
 90.981
30
0
0
VERTEX
8
Halfen
62
7
10
 1245.608
20
 84.035
30
0
0
VERTEX
8
Halfen
62
7
10
 1247.412
20
 77.3
30
0
0
VERTEX
8
Halfen
62
7
10
 1250.359
20
 70.981
30
0
0
VERTEX
8
Halfen
62
7
10
 1335.981
20
-77.321
30
0
0
VERTEX
8
Halfen
62
7
10
 1338.191
20
-82.06
30
0
0
VERTEX
8
Halfen
62
7
10
 1339.544
20
-87.111
30
0
0
VERTEX
8
Halfen
62
7
10
 1340
20
-92.321
30
0
0
VERTEX
8
Halfen
62
7
10
 1340
20
-702.262
30
0
0
SEQEND
8
Halfen
0
POLYLINE
8
Halfen
62
7
66
1
10
0.0
20
0.0
30
0.0
70
1
0
VERTEX
8
Halfen
62
7
10
 1245
20
-702.262
30
0
0
VERTEX
8
Halfen
62
7
10
 1245
20
-92.321
30
0
0
VERTEX
8
Halfen
62
7
10
 1245.608
20
-85.375
30
0
0
VERTEX
8
Halfen
62
7
10
 1247.412
20
-78.64
30
0
0
VERTEX
8
Halfen
62
7
10
 1250.359
20
-72.321
30
0
0
VERTEX
8
Halfen
62
7
10
 1335.981
20
 75.981
30
0
0
VERTEX
8
Halfen
62
7
10
 1338.191
20
 80.72
30
0
0
VERTEX
8
Halfen
62
7
10
 1339.544
20
 85.771
30
0
0
VERTEX
8
Halfen
62
7
10
 1340
20
 90.981
30
0
0
VERTEX
8
Halfen
62
7
10
 1340
20
 161.922
30
0
0
VERTEX
8
Halfen
62
7
10
 1340
20
 700.922
30
0
0
VERTEX
8
Halfen
62
7
10
 1350
20
 700.922
30
0
0
VERTEX
8
Halfen
62
7
10
 1350
20
 161.922
30
0
0
VERTEX
8
Halfen
62
7
10
 1350
20
 90.981
30
0
0
VERTEX
8
Halfen
62
7
10
 1349.392
20
 84.035
30
0
0
VERTEX
8
Halfen
62
7
10
 1347.588
20
 77.3
30
0
0
VERTEX
8
Halfen
62
7
10
 1344.641
20
 70.981
30
0
0
VERTEX
8
Halfen
62
7
10
 1259.019
20
-77.321
30
0
0
VERTEX
8
Halfen
62
7
10
 1256.809
20
-82.06
30
0
0
VERTEX
8
Halfen
62
7
10
 1255.456
20
-87.111
30
0
0
VERTEX
8
Halfen
62
7
10
 1255
20
-92.321
30
0
0
VERTEX
8
Halfen
62
7
10
 1255
20
-702.262
30
0
0
SEQEND
8
Halfen
0
ENDSEC
0
EOF
