0
SECTION
2
HEADER
9
$EXTMIN
10
 0
20
 100
30
0.0
9
$EXTMAX
10
 0
20
 100
30
0.0
9
$LIMMIN
10
 100
20
 0
9
$LIMMAX
10
 0
20
 100
9
$PSLTSCALE
70
1
0
ENDSEC
0
SECTION
2
TABLES
0
TABLE
2
LAYER
70
2
0
LAYER
2
0
70
0
62
7
6
CONTINUOUS
0
LAYER
2
Halfen
70
0
62
7
6
CONTINUOUS
0
ENDTAB
0
ENDSEC
0
SECTION
2
ENTITIES
0
POLYLINE
8
Halfen
62
7
66
1
10
0.0
20
0.0
30
0.0
70
1
0
VERTEX
8
Halfen
62
7
10
 0
20
-73.5
30
0
0
VERTEX
8
Halfen
62
7
10
 250
20
-73.5
30
0
0
VERTEX
8
Halfen
62
7
10
 250
20
 73.5
30
0
0
VERTEX
8
Halfen
62
7
10
 0
20
 73.5
30
0
0
SEQEND
8
Halfen
0
POLYLINE
8
Halfen
62
7
66
1
10
0.0
20
0.0
30
0.0
70
1
0
VERTEX
8
Halfen
62
7
10
 0
20
-60
30
0
0
VERTEX
8
Halfen
62
7
10
 250
20
-60
30
0
0
VERTEX
8
Halfen
62
7
10
 250
20
 60
30
0
0
VERTEX
8
Halfen
62
7
10
 0
20
 60
30
0
0
SEQEND
8
Halfen
0
POLYLINE
8
Halfen
62
7
66
1
10
0.0
20
0.0
30
0.0
70
1
0
VERTEX
8
Halfen
62
7
10
 20
20
-32.5
30
0
0
VERTEX
8
Halfen
62
7
10
 37
20
-1.5
30
0
0
VERTEX
8
Halfen
62
7
10
 28
20
-1.5
30
0
0
VERTEX
8
Halfen
62
7
10
 28
20
 32.5
30
0
0
VERTEX
8
Halfen
62
7
10
 12
20
 32.5
30
0
0
VERTEX
8
Halfen
62
7
10
 12
20
-1.5
30
0
0
VERTEX
8
Halfen
62
7
10
 3
20
-1.5
30
0
0
SEQEND
8
Halfen
0
POLYLINE
8
Halfen
62
7
66
1
10
0.0
20
0.0
30
0.0
70
1
0
VERTEX
8
Halfen
62
7
10
 230
20
-32.5
30
0
0
VERTEX
8
Halfen
62
7
10
 247
20
-1.5
30
0
0
VERTEX
8
Halfen
62
7
10
 238
20
-1.5
30
0
0
VERTEX
8
Halfen
62
7
10
 238
20
 32.5
30
0
0
VERTEX
8
Halfen
62
7
10
 222
20
 32.5
30
0
0
VERTEX
8
Halfen
62
7
10
 222
20
-1.5
30
0
0
VERTEX
8
Halfen
62
7
10
 213
20
-1.5
30
0
0
SEQEND
8
Halfen
0
POLYLINE
8
Halfen
62
7
66
1
10
0.0
20
0.0
30
0.0
70
1
0
VERTEX
8
Halfen
62
7
10
 73
20
-456.927
30
0
0
VERTEX
8
Halfen
62
7
10
 73
20
 214.971
30
0
0
VERTEX
8
Halfen
62
7
10
 67
20
 214.971
30
0
0
VERTEX
8
Halfen
62
7
10
 67
20
-456.927
30
0
0
SEQEND
8
Halfen
0
POLYLINE
8
Halfen
62
7
66
1
10
0.0
20
0.0
30
0.0
70
1
0
VERTEX
8
Halfen
62
7
10
 193
20
-456.927
30
0
0
VERTEX
8
Halfen
62
7
10
 193
20
 214.971
30
0
0
VERTEX
8
Halfen
62
7
10
 187
20
 214.971
30
0
0
VERTEX
8
Halfen
62
7
10
 187
20
-456.927
30
0
0
SEQEND
8
Halfen
0
POLYLINE
8
Halfen
62
7
66
1
10
0.0
20
0.0
30
0.0
70
1
0
VERTEX
8
Halfen
62
7
10
 630
20
-60
30
0
0
VERTEX
8
Halfen
62
7
10
 630
20
 60
30
0
0
VERTEX
8
Halfen
62
7
10
 616.5
20
 73.5
30
0
0
VERTEX
8
Halfen
62
7
10
 616.5
20
 60
30
0
0
VERTEX
8
Halfen
62
7
10
 500
20
 60
30
0
0
VERTEX
8
Halfen
62
7
10
 500
20
-60
30
0
0
VERTEX
8
Halfen
62
7
10
 616.5
20
-60
30
0
0
VERTEX
8
Halfen
62
7
10
 616.5
20
-73.5
30
0
0
SEQEND
8
Halfen
0
POLYLINE
8
Halfen
62
7
66
1
10
0.0
20
0.0
30
0.0
70
1
0
VERTEX
8
Halfen
62
7
10
 500
20
-60
30
0
0
VERTEX
8
Halfen
62
7
10
 500
20
 60
30
0
0
VERTEX
8
Halfen
62
7
10
 463.5
20
 60
30
0
0
VERTEX
8
Halfen
62
7
10
 463.5
20
 73.5
30
0
0
VERTEX
8
Halfen
62
7
10
 450
20
 60
30
0
0
VERTEX
8
Halfen
62
7
10
 450
20
-60
30
0
0
VERTEX
8
Halfen
62
7
10
 463.5
20
-73.5
30
0
0
VERTEX
8
Halfen
62
7
10
 463.5
20
-60
30
0
0
SEQEND
8
Halfen
0
POLYLINE
8
Halfen
62
7
66
1
10
0.0
20
0.0
30
0.0
70
1
0
VERTEX
8
Halfen
62
7
10
 627.5
20
-58.75
30
0
0
VERTEX
8
Halfen
62
7
10
 627.5
20
 58.75
30
0
0
VERTEX
8
Halfen
62
7
10
 619
20
 67.25
30
0
0
VERTEX
8
Halfen
62
7
10
 619
20
 58
30
0
0
VERTEX
8
Halfen
62
7
10
 502
20
 58
30
0
0
VERTEX
8
Halfen
62
7
10
 502
20
-58
30
0
0
VERTEX
8
Halfen
62
7
10
 619
20
-58
30
0
0
VERTEX
8
Halfen
62
7
10
 619
20
-67.25
30
0
0
SEQEND
8
Halfen
0
POLYLINE
8
Halfen
62
7
66
1
10
0.0
20
0.0
30
0.0
70
1
0
VERTEX
8
Halfen
62
7
10
 498
20
-58
30
0
0
VERTEX
8
Halfen
62
7
10
 498
20
 58
30
0
0
VERTEX
8
Halfen
62
7
10
 461
20
 58
30
0
0
VERTEX
8
Halfen
62
7
10
 461
20
 67.25
30
0
0
VERTEX
8
Halfen
62
7
10
 452.5
20
 58.75
30
0
0
VERTEX
8
Halfen
62
7
10
 452.5
20
-58.75
30
0
0
VERTEX
8
Halfen
62
7
10
 461
20
-67.25
30
0
0
VERTEX
8
Halfen
62
7
10
 461
20
-58
30
0
0
SEQEND
8
Halfen
0
POLYLINE
8
Halfen
62
7
66
1
10
0.0
20
0.0
30
0.0
70
1
0
VERTEX
8
Halfen
62
7
10
 600
20
-456.927
30
0
0
VERTEX
8
Halfen
62
7
10
 600
20
-79.715
30
0
0
VERTEX
8
Halfen
62
7
10
 599.766
20
-76.375
30
0
0
VERTEX
8
Halfen
62
7
10
 599.07
20
-73.1
30
0
0
VERTEX
8
Halfen
62
7
10
 597.925
20
-69.953
30
0
0
VERTEX
8
Halfen
62
7
10
 596.353
20
-66.997
30
0
0
VERTEX
8
Halfen
62
7
10
 508.735
20
 73.221
30
0
0
VERTEX
8
Halfen
62
7
10
 507.556
20
 75.438
30
0
0
VERTEX
8
Halfen
62
7
10
 506.697
20
 77.798
30
0
0
VERTEX
8
Halfen
62
7
10
 506.175
20
 80.255
30
0
0
VERTEX
8
Halfen
62
7
10
 506
20
 82.76
30
0
0
VERTEX
8
Halfen
62
7
10
 506
20
 190.971
30
0
0
VERTEX
8
Halfen
62
7
10
 506.222
20
 193.787
30
0
0
VERTEX
8
Halfen
62
7
10
 506.881
20
 196.534
30
0
0
VERTEX
8
Halfen
62
7
10
 507.962
20
 199.143
30
0
0
VERTEX
8
Halfen
62
7
10
 509.438
20
 201.551
30
0
0
VERTEX
8
Halfen
62
7
10
 511.272
20
 203.699
30
0
0
VERTEX
8
Halfen
62
7
10
 513.42
20
 205.534
30
0
0
VERTEX
8
Halfen
62
7
10
 515.828
20
 207.009
30
0
0
VERTEX
8
Halfen
62
7
10
 518.438
20
 208.09
30
0
0
VERTEX
8
Halfen
62
7
10
 521.184
20
 208.75
30
0
0
VERTEX
8
Halfen
62
7
10
 524
20
 208.971
30
0
0
VERTEX
8
Halfen
62
7
10
 546
20
 208.971
30
0
0
VERTEX
8
Halfen
62
7
10
 548.816
20
 208.75
30
0
0
VERTEX
8
Halfen
62
7
10
 551.562
20
 208.09
30
0
0
VERTEX
8
Halfen
62
7
10
 554.172
20
 207.009
30
0
0
VERTEX
8
Halfen
62
7
10
 556.58
20
 205.534
30
0
0
VERTEX
8
Halfen
62
7
10
 558.728
20
 203.699
30
0
0
VERTEX
8
Halfen
62
7
10
 560.562
20
 201.551
30
0
0
VERTEX
8
Halfen
62
7
10
 562.038
20
 199.143
30
0
0
VERTEX
8
Halfen
62
7
10
 563.119
20
 196.534
30
0
0
VERTEX
8
Halfen
62
7
10
 563.778
20
 193.787
30
0
0
VERTEX
8
Halfen
62
7
10
 564
20
 190.971
30
0
0
VERTEX
8
Halfen
62
7
10
 564
20
 138.971
30
0
0
VERTEX
8
Halfen
62
7
10
 570
20
 138.971
30
0
0
VERTEX
8
Halfen
62
7
10
 570
20
 190.971
30
0
0
VERTEX
8
Halfen
62
7
10
 569.705
20
 194.726
30
0
0
VERTEX
8
Halfen
62
7
10
 568.825
20
 198.388
30
0
0
VERTEX
8
Halfen
62
7
10
 567.384
20
 201.867
30
0
0
VERTEX
8
Halfen
62
7
10
 565.416
20
 205.078
30
0
0
VERTEX
8
Halfen
62
7
10
 562.971
20
 207.942
30
0
0
VERTEX
8
Halfen
62
7
10
 560.107
20
 210.388
30
0
0
VERTEX
8
Halfen
62
7
10
 556.896
20
 212.355
30
0
0
VERTEX
8
Halfen
62
7
10
 553.416
20
 213.797
30
0
0
VERTEX
8
Halfen
62
7
10
 549.754
20
 214.676
30
0
0
VERTEX
8
Halfen
62
7
10
 546
20
 214.971
30
0
0
VERTEX
8
Halfen
62
7
10
 524
20
 214.971
30
0
0
VERTEX
8
Halfen
62
7
10
 520.246
20
 214.676
30
0
0
VERTEX
8
Halfen
62
7
10
 516.584
20
 213.797
30
0
0
VERTEX
8
Halfen
62
7
10
 513.104
20
 212.355
30
0
0
VERTEX
8
Halfen
62
7
10
 509.893
20
 210.388
30
0
0
VERTEX
8
Halfen
62
7
10
 507.029
20
 207.942
30
0
0
VERTEX
8
Halfen
62
7
10
 504.584
20
 205.078
30
0
0
VERTEX
8
Halfen
62
7
10
 502.616
20
 201.867
30
0
0
VERTEX
8
Halfen
62
7
10
 501.175
20
 198.388
30
0
0
VERTEX
8
Halfen
62
7
10
 500.295
20
 194.726
30
0
0
VERTEX
8
Halfen
62
7
10
 500
20
 190.971
30
0
0
VERTEX
8
Halfen
62
7
10
 500
20
 82.76
30
0
0
VERTEX
8
Halfen
62
7
10
 500.234
20
 79.419
30
0
0
VERTEX
8
Halfen
62
7
10
 500.93
20
 76.144
30
0
0
VERTEX
8
Halfen
62
7
10
 502.075
20
 72.998
30
0
0
VERTEX
8
Halfen
62
7
10
 503.647
20
 70.042
30
0
0
VERTEX
8
Halfen
62
7
10
 591.265
20
-70.177
30
0
0
VERTEX
8
Halfen
62
7
10
 592.444
20
-72.394
30
0
0
VERTEX
8
Halfen
62
7
10
 593.303
20
-74.754
30
0
0
VERTEX
8
Halfen
62
7
10
 593.825
20
-77.21
30
0
0
VERTEX
8
Halfen
62
7
10
 594
20
-79.715
30
0
0
VERTEX
8
Halfen
62
7
10
 594
20
-456.927
30
0
0
SEQEND
8
Halfen
0
ENDSEC
0
EOF
