  0
SECTION
  2
HEADER
  9
$ACADVER
  1
AC1032
  9
$ACADMAINTVER
 90
4
  9
$DWGCODEPAGE
  3
ANSI_1252
  9
$LASTSAVEDBY
  1
ezdxf
  9
$REQUIREDVERSIONS
160
0
  9
$INSBASE
 10
0.0
 20
0.0
 30
0.0
  9
$EXTMIN
 10
1e+20
 20
1e+20
 30
1e+20
  9
$EXTMAX
 10
-1e+20
 20
-1e+20
 30
-1e+20
  9
$LIMMIN
 10
0.0
 20
0.0
  9
$LIMMAX
 10
420.0
 20
297.0
  9
$ORTHOMODE
 70
0
  9
$REGENMODE
 70
1
  9
$FILLMODE
 70
1
  9
$QTEXTMODE
 70
0
  9
$MIRRTEXT
 70
1
  9
$LTSCALE
 40
1.0
  9
$ATTMODE
 70
1
  9
$TEXTSIZE
 40
2.5
  9
$TRACEWID
 40
1.0
  9
$TEXTSTYLE
  7
Standard
  9
$CLAYER
  8
0
  9
$CELTYPE
  6
ByLayer
  9
$CECOLOR
 62
256
  9
$CELTSCALE
 40
1.0
  9
$DISPSILH
 70
0
  9
$DIMSCALE
 40
1.0
  9
$DIMASZ
 40
2.5
  9
$DIMEXO
 40
0.625
  9
$DIMDLI
 40
3.75
  9
$DIMRND
 40
0.0
  9
$DIMDLE
 40
0.0
  9
$DIMEXE
 40
1.25
  9
$DIMTP
 40
0.0
  9
$DIMTM
 40
0.0
  9
$DIMTXT
 40
2.5
  9
$DIMCEN
 40
2.5
  9
$DIMTSZ
 40
0.0
  9
$DIMTOL
 70
0
  9
$DIMLIM
 70
0
  9
$DIMTIH
 70
0
  9
$DIMTOH
 70
0
  9
$DIMSE1
 70
0
  9
$DIMSE2
 70
0
  9
$DIMTAD
 70
1
  9
$DIMZIN
 70
8
  9
$DIMBLK
  1

  9
$DIMASO
 70
1
  9
$DIMSHO
 70
1
  9
$DIMPOST
  1

  9
$DIMAPOST
  1

  9
$DIMALT
 70
0
  9
$DIMALTD
 70
3
  9
$DIMALTF
 40
0.03937007874
  9
$DIMLFAC
 40
1.0
  9
$DIMTOFL
 70
1
  9
$DIMTVP
 40
0.0
  9
$DIMTIX
 70
0
  9
$DIMSOXD
 70
0
  9
$DIMSAH
 70
0
  9
$DIMBLK1
  1

  9
$DIMBLK2
  1

  9
$DIMSTYLE
  2
ISO-25
  9
$DIMCLRD
 70
0
  9
$DIMCLRE
 70
0
  9
$DIMCLRT
 70
0
  9
$DIMTFAC
 40
1.0
  9
$DIMGAP
 40
0.625
  9
$DIMJUST
 70
0
  9
$DIMSD1
 70
0
  9
$DIMSD2
 70
0
  9
$DIMTOLJ
 70
0
  9
$DIMTZIN
 70
8
  9
$DIMALTZ
 70
0
  9
$DIMALTTZ
 70
0
  9
$DIMUPT
 70
0
  9
$DIMDEC
 70
2
  9
$DIMTDEC
 70
2
  9
$DIMALTU
 70
2
  9
$DIMALTTD
 70
3
  9
$DIMTXSTY
  7
Standard
  9
$DIMAUNIT
 70
0
  9
$DIMADEC
 70
0
  9
$DIMALTRND
 40
0.0
  9
$DIMAZIN
 70
0
  9
$DIMDSEP
 70
44
  9
$DIMATFIT
 70
3
  9
$DIMFRAC
 70
0
  9
$DIMLDRBLK
  1

  9
$DIMLUNIT
 70
2
  9
$DIMLWD
 70
-2
  9
$DIMLWE
 70
-2
  9
$DIMTMOVE
 70
0
  9
$DIMFXL
 40
1.0
  9
$DIMFXLON
 70
0
  9
$DIMJOGANG
 40
0.785398163397
  9
$DIMTFILL
 70
0
  9
$DIMTFILLCLR
 70
0
  9
$DIMARCSYM
 70
0
  9
$DIMLTYPE
  6

  9
$DIMLTEX1
  6

  9
$DIMLTEX2
  6

  9
$DIMTXTDIRECTION
 70
0
  9
$LUNITS
 70
2
  9
$LUPREC
 70
4
  9
$SKETCHINC
 40
1.0
  9
$FILLETRAD
 40
10.0
  9
$AUNITS
 70
0
  9
$AUPREC
 70
2
  9
$MENU
  1
.
  9
$ELEVATION
 40
0.0
  9
$PELEVATION
 40
0.0
  9
$THICKNESS
 40
0.0
  9
$LIMCHECK
 70
0
  9
$CHAMFERA
 40
0.0
  9
$CHAMFERB
 40
0.0
  9
$CHAMFERC
 40
0.0
  9
$CHAMFERD
 40
0.0
  9
$SKPOLY
 70
0
  9
$TDCREATE
 40
2461085.2459143517
  9
$TDUCREATE
 40
2458532.153996898
  9
$TDUPDATE
 40
2461085.2459143517
  9
$TDUUPDATE
 40
2458532.1544311
  9
$TDINDWG
 40
0.0
  9
$TDUSRTIMER
 40
0.0
  9
$USRTIMER
 70
1
  9
$ANGBASE
 50
0.0
  9
$ANGDIR
 70
0
  9
$PDMODE
 70
0
  9
$PDSIZE
 40
0.0
  9
$PLINEWID
 40
0.0
  9
$SPLFRAME
 70
0
  9
$SPLINETYPE
 70
6
  9
$SPLINESEGS
 70
8
  9
$HANDSEED
  5
EF
  9
$SURFTAB1
 70
6
  9
$SURFTAB2
 70
6
  9
$SURFTYPE
 70
6
  9
$SURFU
 70
6
  9
$SURFV
 70
6
  9
$UCSBASE
  2

  9
$UCSNAME
  2

  9
$UCSORG
 10
0.0
 20
0.0
 30
0.0
  9
$UCSXDIR
 10
1.0
 20
0.0
 30
0.0
  9
$UCSYDIR
 10
0.0
 20
1.0
 30
0.0
  9
$UCSORTHOREF
  2

  9
$UCSORTHOVIEW
 70
0
  9
$UCSORGTOP
 10
0.0
 20
0.0
 30
0.0
  9
$UCSORGBOTTOM
 10
0.0
 20
0.0
 30
0.0
  9
$UCSORGLEFT
 10
0.0
 20
0.0
 30
0.0
  9
$UCSORGRIGHT
 10
0.0
 20
0.0
 30
0.0
  9
$UCSORGFRONT
 10
0.0
 20
0.0
 30
0.0
  9
$UCSORGBACK
 10
0.0
 20
0.0
 30
0.0
  9
$PUCSBASE
  2

  9
$PUCSNAME
  2

  9
$PUCSORG
 10
0.0
 20
0.0
 30
0.0
  9
$PUCSXDIR
 10
1.0
 20
0.0
 30
0.0
  9
$PUCSYDIR
 10
0.0
 20
1.0
 30
0.0
  9
$PUCSORTHOREF
  2

  9
$PUCSORTHOVIEW
 70
0
  9
$PUCSORGTOP
 10
0.0
 20
0.0
 30
0.0
  9
$PUCSORGBOTTOM
 10
0.0
 20
0.0
 30
0.0
  9
$PUCSORGLEFT
 10
0.0
 20
0.0
 30
0.0
  9
$PUCSORGRIGHT
 10
0.0
 20
0.0
 30
0.0
  9
$PUCSORGFRONT
 10
0.0
 20
0.0
 30
0.0
  9
$PUCSORGBACK
 10
0.0
 20
0.0
 30
0.0
  9
$USERI1
 70
0
  9
$USERI2
 70
0
  9
$USERI3
 70
0
  9
$USERI4
 70
0
  9
$USERI5
 70
0
  9
$USERR1
 40
0.0
  9
$USERR2
 40
0.0
  9
$USERR3
 40
0.0
  9
$USERR4
 40
0.0
  9
$USERR5
 40
0.0
  9
$WORLDVIEW
 70
1
  9
$SHADEDGE
 70
3
  9
$SHADEDIF
 70
70
  9
$TILEMODE
 70
1
  9
$MAXACTVP
 70
64
  9
$PINSBASE
 10
0.0
 20
0.0
 30
0.0
  9
$PLIMCHECK
 70
0
  9
$PEXTMIN
 10
1e+20
 20
1e+20
 30
1e+20
  9
$PEXTMAX
 10
-1e+20
 20
-1e+20
 30
-1e+20
  9
$PLIMMIN
 10
0.0
 20
0.0
  9
$PLIMMAX
 10
420.0
 20
297.0
  9
$UNITMODE
 70
0
  9
$VISRETAIN
 70
1
  9
$PLINEGEN
 70
0
  9
$PSLTSCALE
 70
1
  9
$TREEDEPTH
 70
3020
  9
$CMLSTYLE
  2
Standard
  9
$CMLJUST
 70
0
  9
$CMLSCALE
 40
20.0
  9
$PROXYGRAPHICS
 70
1
  9
$MEASUREMENT
 70
1
  9
$CELWEIGHT
370
-1
  9
$ENDCAPS
280
0
  9
$JOINSTYLE
280
0
  9
$LWDISPLAY
290
0
  9
$INSUNITS
 70
6
  9
$HYPERLINKBASE
  1

  9
$STYLESHEET
  1

  9
$XEDIT
290
1
  9
$CEPSNTYPE
380
0
  9
$PSTYLEMODE
290
1
  9
$FINGERPRINTGUID
  2
{BF3EB648-2A4A-41C5-B53E-DA0F495E3078}
  9
$VERSIONGUID
  2
{862C1B08-3EC4-4F0C-9002-AD9AFF7E91FF}
  9
$EXTNAMES
290
1
  9
$PSVPSCALE
 40
0.0
  9
$OLESTARTUP
290
0
  9
$SORTENTS
280
127
  9
$INDEXCTL
280
0
  9
$HIDETEXT
280
1
  9
$XCLIPFRAME
280
1
  9
$HALOGAP
280
0
  9
$OBSCOLOR
 70
257
  9
$OBSLTYPE
280
0
  9
$INTERSECTIONDISPLAY
280
0
  9
$INTERSECTIONCOLOR
 70
257
  9
$DIMASSOC
280
2
  9
$PROJECTNAME
  1

  9
$CAMERADISPLAY
290
0
  9
$LENSLENGTH
 40
50.0
  9
$CAMERAHEIGHT
 40
0.0
  9
$STEPSPERSEC
 40
24.0
  9
$STEPSIZE
 40
100.0
  9
$3DDWFPREC
 40
2.0
  9
$PSOLWIDTH
 40
0.005
  9
$PSOLHEIGHT
 40
0.08
  9
$LOFTANG1
 40
1.570796326795
  9
$LOFTANG2
 40
1.570796326795
  9
$LOFTMAG1
 40
0.0
  9
$LOFTMAG2
 40
0.0
  9
$LOFTPARAM
 70
7
  9
$LOFTNORMALS
280
1
  9
$LATITUDE
 40
37.795
  9
$LONGITUDE
 40
-122.394
  9
$NORTHDIRECTION
 40
0.0
  9
$TIMEZONE
 70
-8000
  9
$LIGHTGLYPHDISPLAY
280
1
  9
$TILEMODELIGHTSYNCH
280
1
  9
$CMATERIAL
347
20
  9
$SOLIDHIST
280
0
  9
$SHOWHIST
280
1
  9
$DWFFRAME
280
2
  9
$DGNFRAME
280
2
  9
$REALWORLDSCALE
290
1
  9
$INTERFERECOLOR
 62
256
  9
$CSHADOW
280
0
  9
$SHADOWPLANELOCATION
 40
0.0
  0
ENDSEC
  0
SECTION
  2
CLASSES
  0
CLASS
  1
ACDBDICTIONARYWDFLT
  2
AcDbDictionaryWithDefault
  3
ObjectDBX Classes
 90
0
 91
0
280
0
281
0
  0
CLASS
  1
SUN
  2
AcDbSun
  3
SCENEOE
 90
1153
 91
0
280
0
281
0
  0
CLASS
  1
VISUALSTYLE
  2
AcDbVisualStyle
  3
ObjectDBX Classes
 90
4095
 91
0
280
0
281
0
  0
CLASS
  1
MATERIAL
  2
AcDbMaterial
  3
ObjectDBX Classes
 90
1153
 91
0
280
0
281
0
  0
CLASS
  1
SCALE
  2
AcDbScale
  3
ObjectDBX Classes
 90
1153
 91
0
280
0
281
0
  0
CLASS
  1
TABLESTYLE
  2
AcDbTableStyle
  3
ObjectDBX Classes
 90
4095
 91
0
280
0
281
0
  0
CLASS
  1
MLEADERSTYLE
  2
AcDbMLeaderStyle
  3
ACDB_MLEADERSTYLE_CLASS
 90
4095
 91
0
280
0
281
0
  0
CLASS
  1
DICTIONARYVAR
  2
AcDbDictionaryVar
  3
ObjectDBX Classes
 90
0
 91
0
280
0
281
0
  0
CLASS
  1
CELLSTYLEMAP
  2
AcDbCellStyleMap
  3
ObjectDBX Classes
 90
1152
 91
0
280
0
281
0
  0
CLASS
  1
MENTALRAYRENDERSETTINGS
  2
AcDbMentalRayRenderSettings
  3
SCENEOE
 90
1024
 91
0
280
0
281
0
  0
CLASS
  1
ACDBDETAILVIEWSTYLE
  2
AcDbDetailViewStyle
  3
ObjectDBX Classes
 90
1025
 91
0
280
0
281
0
  0
CLASS
  1
ACDBSECTIONVIEWSTYLE
  2
AcDbSectionViewStyle
  3
ObjectDBX Classes
 90
1025
 91
0
280
0
281
0
  0
CLASS
  1
RASTERVARIABLES
  2
AcDbRasterVariables
  3
ISM
 90
0
 91
0
280
0
281
0
  0
CLASS
  1
LAYOUT
  2
AcDbLayout
  3
ObjectDBX Classes
 90
0
 91
0
280
0
281
0
  0
CLASS
  1
ACDBPLACEHOLDER
  2
AcDbPlaceHolder
  3
ObjectDBX Classes
 90
0
 91
0
280
0
281
0
  0
ENDSEC
  0
SECTION
  2
TABLES
  0
TABLE
  2
VPORT
  5
8
330
0
100
AcDbSymbolTable
 70
1
  0
VPORT
  5
23
330
8
100
AcDbSymbolTableRecord
100
AcDbViewportTableRecord
  2
*Active
 70
0
 10
0.0
 20
0.0
 11
1.0
 21
1.0
 12
0.0
 22
0.0
 13
0.0
 23
0.0
 14
0.5
 24
0.5
 15
0.5
 25
0.5
 16
0.0
 26
0.0
 36
1.0
 17
0.0
 27
0.0
 37
0.0
 40
1000.0
 41
1.34
 42
50.0
 43
0.0
 44
0.0
 50
0.0
 51
0.0
 71
0
 72
1000
 73
1
 74
3
 75
0
 76
0
 77
0
 78
0
281
0
 65
0
146
0.0
  0
ENDTAB
  0
TABLE
  2
LTYPE
  5
2
330
0
100
AcDbSymbolTable
 70
3
  0
LTYPE
  5
24
330
2
100
AcDbSymbolTableRecord
100
AcDbLinetypeTableRecord
  2
ByBlock
 70
0
  3

 72
65
 73
0
 40
0.0
  0
LTYPE
  5
25
330
2
100
AcDbSymbolTableRecord
100
AcDbLinetypeTableRecord
  2
ByLayer
 70
0
  3

 72
65
 73
0
 40
0.0
  0
LTYPE
  5
26
330
2
100
AcDbSymbolTableRecord
100
AcDbLinetypeTableRecord
  2
Continuous
 70
0
  3

 72
65
 73
0
 40
0.0
  0
ENDTAB
  0
TABLE
  2
LAYER
  5
1
330
0
100
AcDbSymbolTable
 70
3
  0
LAYER
  5
27
330
1
100
AcDbSymbolTableRecord
100
AcDbLayerTableRecord
  2
0
 70
0
 62
7
  6
Continuous
370
-3
390
13
347
21
  0
LAYER
  5
28
330
1
100
AcDbSymbolTableRecord
100
AcDbLayerTableRecord
  2
Defpoints
 70
0
 62
7
  6
Continuous
290
0
370
-3
390
13
347
21
  0
LAYER
  5
E9
330
1
100
AcDbSymbolTableRecord
100
AcDbLayerTableRecord
  2
A-DETL-GENF
 70
0
 62
92
  6
Continuous
370
18
390
13
347
21
348
0
  0
ENDTAB
  0
TABLE
  2
STYLE
  5
5
330
0
100
AcDbSymbolTable
 70
1
  0
STYLE
  5
29
330
5
100
AcDbSymbolTableRecord
100
AcDbTextStyleTableRecord
  2
Standard
 70
0
 40
0.0
 41
1.0
 50
0.0
 71
0
 42
2.5
  3
txt
  4

  0
ENDTAB
  0
TABLE
  2
VIEW
  5
7
330
0
100
AcDbSymbolTable
 70
0
  0
ENDTAB
  0
TABLE
  2
UCS
  5
6
330
0
100
AcDbSymbolTable
 70
0
  0
ENDTAB
  0
TABLE
  2
APPID
  5
3
330
0
100
AcDbSymbolTable
 70
3
  0
APPID
  5
2A
330
3
100
AcDbSymbolTableRecord
100
AcDbRegAppTableRecord
  2
ACAD
 70
0
  0
APPID
  5
EC
330
3
100
AcDbSymbolTableRecord
100
AcDbRegAppTableRecord
  2
HATCHBACKGROUNDCOLOR
 70
0
  0
APPID
  5
ED
330
3
100
AcDbSymbolTableRecord
100
AcDbRegAppTableRecord
  2
EZDXF
 70
0
  0
ENDTAB
  0
TABLE
  2
DIMSTYLE
  5
4
330
0
100
AcDbSymbolTable
 70
1
100
AcDbDimStyleTable
  0
DIMSTYLE
105
2B
330
4
100
AcDbSymbolTableRecord
100
AcDbDimStyleTableRecord
  2
Standard
 70
0
 40
1.0
 41
2.5
 42
0.625
 43
3.75
 44
1.25
 45
0.0
 46
0.0
 47
0.0
 48
0.0
 49
2.5
140
2.5
141
2.5
142
0.0
143
0.03937007874
144
1.0
145
0.0
146
1.0
147
0.625
148
0.0
 69
0
 70
0
 71
0
 72
0
 73
0
 74
0
 75
0
 76
0
 77
1
 78
8
 79
3
170
0
171
3
172
1
173
0
174
0
175
0
176
0
177
0
178
0
179
2
271
2
272
2
273
2
274
3
275
0
276
0
277
2
278
44
279
0
280
0
281
0
282
0
283
0
284
8
285
0
286
0
288
0
289
3
290
0
371
-2
372
-2
  0
ENDTAB
  0
TABLE
  2
BLOCK_RECORD
  5
9
330
0
100
AcDbSymbolTable
 70
3
  0
BLOCK_RECORD
  5
17
330
9
100
AcDbSymbolTableRecord
100
AcDbBlockTableRecord
  2
*Model_Space
340
1A
 70
0
280
1
281
0
  0
BLOCK_RECORD
  5
1B
330
9
100
AcDbSymbolTableRecord
100
AcDbBlockTableRecord
  2
*Paper_Space
340
1E
 70
0
280
1
281
0
  0
BLOCK_RECORD
  5
2F
330
9
100
AcDbSymbolTableRecord
100
AcDbBlockTableRecord
  2
23 HODY-plaat - HODY146-4404981-00_0 Basismaterialen
340
0
 70
0
280
1
281
0
  0
ENDTAB
  0
ENDSEC
  0
SECTION
  2
BLOCKS
  0
BLOCK
  5
18
330
17
100
AcDbEntity
  8
0
100
AcDbBlockBegin
  2
*Model_Space
 70
0
 10
0.0
 20
0.0
 30
0.0
  3
*Model_Space
  1

  0
ENDBLK
  5
19
330
17
100
AcDbEntity
  8
0
100
AcDbBlockEnd
  0
BLOCK
  5
1C
330
1B
100
AcDbEntity
  8
0
100
AcDbBlockBegin
  2
*Paper_Space
 70
0
 10
0.0
 20
0.0
 30
0.0
  3
*Paper_Space
  1

  0
ENDBLK
  5
1D
330
1B
100
AcDbEntity
  8
0
100
AcDbBlockEnd
  0
BLOCK
  5
30
330
2F
100
AcDbEntity
  8
0
100
AcDbBlockBegin
  2
23 HODY-plaat - HODY146-4404981-00_0 Basismaterialen
 70
0
 10
0.0
 20
0.0
 30
0.0
  3
23 HODY-plaat - HODY146-4404981-00_0 Basismaterialen
  1

  0
HATCH
  5
32
330
2F
100
AcDbEntity
  8
A-DETL-GENF
100
AcDbHatch
 10
0.0
 20
0.0
 30
0.0
210
0.0
220
0.0
230
1.0
  2
SOLID
 70
1
 71
0
 91
1
 92
1
 93
453
 72
1
 10
177.3488904575118
 20
-160.0002917289033
 11
199.4187057894346
 21
-159.9988518286154
 72
1
 10
199.4187057894346
 20
-159.9988518286154
 11
200.537233274355
 21
-159.8121944548316
 72
1
 10
200.537233274355
 20
-159.8121944548316
 11
201.4582266244917
 21
-159.3796591504155
 72
1
 10
201.4582266244917
 20
-159.3796591504155
 11
202.0525737567797
 21
-158.9389958428991
 72
1
 10
202.0525737567797
 20
-158.9389958428991
 11
202.6588306933866
 21
-158.1852733878088
 72
1
 10
202.6588306933866
 20
-158.1852733878088
 11
203.0549910544045
 21
-157.3028324657951
 72
1
 10
203.0549910544045
 20
-157.3028324657951
 11
203.2153501068413
 21
-156.3489299619778
 72
1
 10
203.2153501068413
 20
-156.3489299619778
 11
203.1295030070361
 21
-155.385459522399
 72
1
 10
203.1295030070361
 20
-155.385459522399
 11
202.8035913147153
 21
-154.4746444482898
 72
1
 10
202.8035913147153
 20
-154.4746444482898
 11
199.7436941594957
 21
-148.4687218073077
 72
1
 10
199.7436941594957
 20
-148.4687218073077
 11
199.548935596182
 21
-147.9275973465608
 72
1
 10
199.548935596182
 20
-147.9275973465608
 11
199.4951659483862
 21
-147.3550107548737
 72
1
 10
199.4951659483862
 20
-147.3550107548737
 11
199.5857776957388
 21
-146.787088144614
 72
1
 10
199.5857776957388
 20
-146.787088144614
 11
199.9336681600231
 21
-146.1074303453034
 72
1
 10
199.9336681600231
 20
-146.1074303453034
 11
200.168528834054
 21
-145.8060072657798
 72
1
 10
200.168528834054
 20
-145.8060072657798
 11
200.8275025129699
 21
-145.3674187435188
 72
1
 10
200.8275025129699
 20
-145.3674187435188
 11
201.1524390823147
 21
-145.228046018464
 72
1
 10
201.1524390823147
 20
-145.228046018464
 11
201.7828447834969
 21
-145.140204084338
 72
1
 10
201.7828447834969
 20
-145.140204084338
 11
226.9485031417007
 21
-145.140204084338
 72
1
 10
226.9485031417007
 20
-145.140204084338
 11
227.9205029764518
 21
-145.0000956481673
 72
1
 10
227.9205029764518
 20
-145.0000956481673
 11
228.5628658598154
 21
-144.7810027266284
 72
1
 10
228.5628658598154
 20
-144.7810027266284
 11
229.2728740964899
 21
-144.3474228754377
 72
1
 10
229.2728740964899
 20
-144.3474228754377
 11
229.9633123896051
 21
-143.6304481397997
 72
1
 10
229.9633123896051
 20
-143.6304481397997
 11
230.3297823316703
 21
-143.0753625060253
 72
1
 10
230.3297823316703
 20
-143.0753625060253
 11
230.7240469862876
 21
-141.9204292191988
 72
1
 10
230.7240469862876
 20
-141.9204292191988
 11
266.9436930222448
 21
-2.754919544982328
 72
1
 10
266.9436930222448
 20
-2.754919544982334
 11
267.3635558673804
 21
-2.198999113203916
 72
1
 10
267.3635558673804
 20
-2.198999113203916
 11
267.5825335558996
 21
-1.988064855842679
 72
1
 10
267.5825335558996
 20
-1.988064855842679
 11
268.1501353063916
 21
-1.679276160454452
 72
1
 10
268.1501353063916
 20
-1.679276160454452
 11
268.4863564073742
 21
-1.564641197029442
 72
1
 10
268.4863564073742
 20
-1.564641197029442
 11
268.9854004631487
 21
-1.509755802258223
 72
1
 10
268.9854004631487
 20
-1.509755802258223
 11
323.916063503421
 21
-1.56512577948722
 72
1
 10
323.916063503421
 20
-1.56512577948722
 11
324.3911297275181
 21
-1.72845945960525
 72
1
 10
324.3911297275181
 20
-1.72845945960525
 11
324.8193683113476
 21
-1.991095183876581
 72
1
 10
324.8193683113476
 20
-1.991095183876581
 11
325.1803253365576
 21
-2.340488707423435
 72
1
 10
325.1803253365576
 20
-2.340488707423435
 11
325.4875090931847
 21
-2.840733397437884
 72
1
 10
325.4875090931847
 20
-2.840733397437884
 11
325.6354703002647
 21
-3.22945022037569
 72
1
 10
325.6354703002647
 20
-3.22945022037569
 11
361.7712290777325
 21
-142.2950713016128
 72
1
 10
361.7712290777325
 20
-142.2950713016128
 11
362.0669771060126
 21
-143.0725370487531
 72
1
 10
362.0669771060126
 20
-143.0725370487531
 11
362.5249162870527
 21
-143.7669516156191
 72
1
 10
362.5249162870527
 20
-143.7669516156191
 11
363.2338051413264
 21
-144.4127002446804
 72
1
 10
363.2338051413264
 20
-144.4127002446804
 11
364.0536537131037
 21
-144.8544145032966
 72
1
 10
364.0536537131037
 20
-144.8544145032966
 11
364.6198618584353
 21
-145.0479100649716
 72
1
 10
364.6198618584353
 20
-145.0479100649716
 11
365.4589080093566
 21
-145.1390573655239
 72
1
 10
365.4589080093566
 20
-145.1390573655239
 11
390.6163232499861
 21
-145.1405782079467
 72
1
 10
390.6163232499861
 20
-145.1405782079467
 11
391.1914372659995
 21
-145.2147336637984
 72
1
 10
391.1914372659995
 20
-145.2147336637984
 11
391.7319245757797
 21
-145.4327464502407
 72
1
 10
391.7319245757797
 20
-145.4327464502407
 11
392.1998826888778
 21
-145.7801242150475
 72
1
 10
392.1998826888778
 20
-145.7801242150475
 11
392.5650071166223
 21
-146.2343711295676
 72
1
 10
392.5650071166223
 20
-146.2343711295676
 11
392.8036527746455
 21
-146.7660706283458
 72
1
 10
392.8036527746455
 20
-146.7660706283458
 11
392.9003652142668
 21
-147.3407903958078
 72
1
 10
392.9003652142668
 20
-147.3407903958078
 11
392.8488814368591
 21
-147.921312167798
 72
1
 10
392.8488814368591
 20
-147.921312167798
 11
392.473129709426
 21
-148.82244242952
 72
1
 10
392.473129709426
 20
-148.82244242952
 11
389.5932101477242
 21
-154.4751084587714
 72
1
 10
389.5932101477242
 20
-154.4751084587714
 11
389.267863705643
 21
-155.3855693596694
 72
1
 10
389.267863705643
 20
-155.3855693596694
 11
389.1828217530925
 21
-156.3486670835487
 72
1
 10
389.1828217530925
 20
-156.3486670835487
 11
389.3435897805213
 21
-157.3020521058758
 72
1
 10
389.3435897805213
 20
-157.3020521058758
 11
389.7397599032139
 21
-158.1840036880629
 72
1
 10
389.7397599032139
 20
-158.1840036880629
 11
390.3456846524052
 21
-158.9374255869666
 72
1
 10
390.3456846524052
 20
-158.9374255869666
 11
391.1221373545517
 21
-159.5135423813516
 72
1
 10
391.1221373545517
 20
-159.5135423813516
 11
392.0188516082092
 21
-159.8750571206394
 72
1
 10
392.0188516082092
 20
-159.8750571206394
 11
392.9777754566898
 21
-159.9988526821204
 72
1
 10
392.9777754566898
 20
-159.9988526821204
 11
415.1225069727844
 21
-159.9888983905835
 72
1
 10
415.1225069727844
 20
-159.9888983905835
 11
415.9717373476776
 21
-159.883437255711
 72
1
 10
415.9717373476776
 20
-159.883437255711
 11
416.8446646415311
 21
-159.5442024811909
 72
1
 10
416.8446646415311
 20
-159.5442024811909
 11
417.6081010230654
 21
-159.0017569226762
 72
1
 10
417.6081010230654
 20
-159.0017569226762
 11
418.2156676160436
 21
-158.2890542303196
 72
1
 10
418.2156676160436
 20
-158.2890542303196
 11
418.630454657575
 21
-157.4493912010167
 72
1
 10
418.630454657575
 20
-157.4493912010167
 11
418.8272637718356
 21
-156.5337774914528
 72
1
 10
418.8272637718356
 20
-156.5337774914528
 11
419.4205886821059
 21
-155.0161418112081
 72
1
 10
419.4205886821059
 20
-155.0161418112081
 11
420.3813946118591
 21
-153.5187824996702
 72
1
 10
420.3813946118591
 20
-153.5187824996702
 11
421.3938259348457
 21
-152.4119275299788
 72
1
 10
421.3938259348457
 20
-152.4119275299788
 11
422.9629160775264
 21
-151.2930905353603
 72
1
 10
422.9629160775264
 20
-151.2930905353603
 11
424.1729929376218
 21
-150.6939491660356
 72
1
 10
424.1729929376218
 20
-150.6939491660356
 11
425.7504355088519
 21
-150.2436610138841
 72
1
 10
425.7504355088519
 20
-150.2436610138841
 11
427.3909037039437
 21
-150.0922528057451
 72
1
 10
427.3909037039437
 20
-150.0922528057451
 11
429.3111536037259
 21
-150.3239223348436
 72
1
 10
429.3111536037259
 20
-150.3239223348436
 11
430.6106794746845
 21
-150.6925151273334
 72
1
 10
430.6106794746845
 20
-150.6925151273334
 11
432.0791351046268
 21
-151.4238748649024
 72
1
 10
432.0791351046268
 20
-151.4238748649024
 11
433.3898464774606
 21
-152.4104934912767
 72
1
 10
433.3898464774606
 20
-152.4104934912767
 11
434.4969243547096
 21
-153.6208221550137
 72
1
 10
434.4969243547096
 20
-153.6208221550137
 11
435.3630837301961
 21
-155.0147077725125
 72
1
 10
435.3630837301961
 20
-155.0147077725125
 11
435.9630049181604
 21
-156.554890053152
 72
1
 10
435.9630049181604
 20
-156.554890053152
 11
436.1615525267555
 21
-157.4659752538009
 72
1
 10
436.1615525267555
 20
-157.4659752538009
 11
436.7165294563045
 21
-158.4646888455211
 72
1
 10
436.7165294563045
 20
-158.4646888455211
 11
437.1827294480104
 21
-159.0095360127526
 72
1
 10
437.1827294480104
 20
-159.0095360127526
 11
437.9435741870243
 21
-159.5486210513471
 72
1
 10
437.9435741870243
 20
-159.5486210513471
 11
438.8129964496926
 21
-159.8856704911916
 72
1
 10
438.8129964496926
 20
-159.8856704911916
 11
439.7383933200081
 21
-160.0002916920208
 72
1
 10
439.7383933200081
 20
-160.0002916920208
 11
461.8082086262149
 21
-159.9984548599257
 72
1
 10
461.8082086262149
 20
-159.9984548599257
 11
462.7645705722979
 21
-159.8761835887965
 72
1
 10
462.7645705722979
 20
-159.8761835887965
 11
463.6619248040932
 21
-159.5150837020956
 72
1
 10
463.6619248040932
 20
-159.5150837020956
 11
464.4389353594442
 21
-158.9389827193184
 72
1
 10
464.4389353594442
 20
-158.9389827193184
 11
465.0451865590124
 21
-158.1852604704059
 72
1
 10
465.0451865590124
 20
-158.1852604704059
 11
465.4413423012858
 21
-157.3028215924338
 72
1
 10
465.4413423012858
 20
-157.3028215924338
 11
465.5963170511143
 21
-156.2885285396553
 72
1
 10
465.5963170511143
 20
-156.2885285396553
 11
465.5158501448265
 21
-155.3854558236195
 72
1
 10
465.5158501448265
 20
-155.3854558236195
 11
465.1903946459405
 21
-154.4744124090849
 72
1
 10
465.1903946459405
 20
-154.4744124090849
 11
462.1306157265443
 21
-148.4687218073142
 72
1
 10
462.1306157265443
 20
-148.4687218073142
 11
461.9358571632869
 21
-147.9275973468749
 72
1
 10
461.9358571632869
 20
-147.9275973468749
 11
461.8820875154001
 21
-147.3550107555061
 72
1
 10
461.8820875154001
 20
-147.3550107555061
 11
461.972699262497
 21
-146.7870881455193
 72
1
 10
461.972699262497
 20
-146.7870881455193
 11
462.3231709967558
 21
-146.1041175120296
 72
1
 10
462.3231709967558
 20
-146.1041175120296
 11
462.5554503999502
 21
-145.8060072668713
 72
1
 10
462.5554503999502
 20
-145.8060072668713
 11
463.2170053496939
 21
-145.3663115779081
 72
1
 10
463.2170053496939
 20
-145.3663115779081
 11
463.5393606471974
 21
-145.2280460190206
 72
1
 10
463.5393606471974
 20
-145.2280460190206
 11
464.1077182583463
 21
-145.1402040843402
 72
1
 10
464.1077182583463
 20
-145.1402040843402
 11
489.3338472753155
 21
-145.140204084338
 72
1
 10
489.3338472753155
 20
-145.140204084338
 11
490.1608217742839
 21
-145.0495599386816
 72
1
 10
490.1608217742839
 20
-145.0495599386816
 11
490.9482099928369
 21
-144.7810027262039
 72
1
 10
490.9482099928369
 20
-144.7810027262039
 11
491.6582182292038
 21
-144.3474228749807
 72
1
 10
491.6582182292038
 20
-144.3474228749807
 11
492.3486565217646
 21
-143.6304481397997
 72
1
 10
492.3486565217646
 20
-143.6304481397997
 11
492.7451410808867
 21
-142.9969937889482
 72
1
 10
492.7451410808867
 20
-142.9969937889482
 11
493.0128735538987
 21
-142.2979393787225
 72
1
 10
493.0128735538987
 20
-142.2979393787225
 11
529.3308622849268
 21
-2.757374836806775
 72
1
 10
529.3308622849268
 20
-2.757374836806781
 11
529.6050007131238
 21
-2.340509984010446
 72
1
 10
529.6050007131238
 20
-2.340509984010446
 11
529.9629183199033
 21
-1.992913709477039
 72
1
 10
529.9629183199033
 20
-1.992913709477039
 11
530.3924482815538
 21
-1.729412292495692
 72
1
 10
530.3924482815538
 20
-1.729412292495692
 11
530.8589564359037
 21
-1.567459433176225
 72
1
 10
530.8589564359037
 20
-1.567459433176225
 11
531.3616770403362
 21
-1.509798420202861
 72
1
 10
531.3616770403362
 20
-1.509798420202861
 11
584.253538179928
 21
-1.5091344032334
 72
1
 10
584.253538179928
 20
-1.5091344032334
 11
584.8326843089767
 21
-1.58383429872145
 72
1
 10
584.8326843089767
 20
-1.58383429872145
 11
585.3756469813634
 21
-1.80376492861277
 72
1
 10
585.3756469813634
 20
-1.80376492861277
 11
585.8450211330465
 21
-2.154287183684374
 72
1
 10
585.8450211330465
 20
-2.154287183684374
 11
586.2794049811731
 21
-2.769303620451188
 72
1
 10
586.2794049811731
 20
-2.769303620451188
 11
586.4469058634064
 21
-3.148257560853517
 72
1
 10
586.4469058634064
 20
-3.148257560853517
 11
586.5400082726969
 21
-3.726625857834375
 72
1
 10
586.5400082726969
 20
-3.726625857834375
 11
586.483286057114
 21
-4.309687206092286
 72
1
 10
586.483286057114
 20
-4.309687206092286
 11
581.6891183902458
 21
-23.53637094945399
 72
1
 10
581.6891183902458
 20
-23.53637094945399
 11
581.5766091083019
 21
-24.5125276106622
 72
1
 10
581.5766091083019
 20
-24.5125276106622
 11
581.7761444118911
 21
-25.62003937756418
 72
1
 10
581.7761444118911
 20
-25.62003937756418
 11
582.1047798652457
 21
-26.38830771550521
 72
1
 10
582.1047798652457
 20
-26.38830771550521
 11
582.7100975598304
 21
-27.16234302114145
 72
1
 10
582.7100975598304
 20
-27.16234302114145
 11
583.4937512527463
 21
-27.7551558544486
 72
1
 10
583.4937512527463
 20
-27.7551558544486
 11
584.4032733824223
 21
-28.12705592351641
 72
1
 10
584.4032733824223
 20
-28.12705592351641
 11
585.3777691827694
 21
-28.25400401801303
 72
1
 10
585.3777691827694
 20
-28.25400401801303
 11
609.4025063519073
 21
-28.2540040180152
 72
1
 10
609.4025063519073
 20
-28.2540040180152
 11
610.3712826567763
 21
-28.1277171817779
 72
1
 10
610.3712826567763
 20
-28.1277171817779
 11
611.2759275216939
 21
-27.75880857212067
 72
1
 10
611.2759275216939
 20
-27.75880857212067
 11
612.0567507278421
 21
-27.17161949299941
 72
1
 10
612.0567507278421
 20
-27.17161949299941
 11
612.6622320490729
 21
-26.40489381615143
 72
1
 10
612.6622320490729
 20
-26.40489381615143
 11
613.052420656115
 21
-25.50922158546044
 72
1
 10
613.052420656115
 20
-25.50922158546044
 11
613.2015711496153
 21
-24.54370098796573
 72
1
 10
613.2015711496153
 20
-24.54370098796573
 11
613.2007012541444
 21
-16.36668360895732
 72
1
 10
613.2007012541444
 20
-16.36668360895732
 11
611.6920925405686
 21
-16.36668360895732
 72
1
 10
611.6920925405686
 20
-16.36668360895732
 11
611.6912321654185
 21
-24.45490534745883
 72
1
 10
611.6912321654185
 20
-24.45490534745883
 11
611.6131736586372
 21
-25.04737213858097
 72
1
 10
611.6131736586372
 20
-25.04737213858097
 11
611.3844430297557
 21
-25.59945214045992
 72
1
 10
611.3844430297557
 20
-25.59945214045992
 11
611.0206257940802
 21
-26.07352707978034
 72
1
 10
611.0206257940802
 20
-26.07352707978034
 11
610.5465121562333
 21
-26.43729388346623
 72
1
 10
610.5465121562333
 20
-26.43729388346623
 11
609.9944078261503
 21
-26.66596578330214
 72
1
 10
609.9944078261503
 20
-26.66596578330214
 11
609.4019327348775
 21
-26.74396126573734
 72
1
 10
609.4019327348775
 20
-26.74396126573734
 11
585.3769094127427
 21
-26.74396126573734
 72
1
 10
585.3769094127427
 20
-26.74396126573734
 11
584.7897706610906
 21
-26.66709774519712
 72
1
 10
584.7897706610906
 20
-26.66709774519712
 11
584.2417231853736
 21
-26.44324943162088
 72
1
 10
584.2417231853736
 20
-26.44324943162088
 11
583.7694699982123
 21
-26.0862605937799
 72
1
 10
583.7694699982123
 20
-26.0862605937799
 11
583.4046386937982
 21
-25.62003937756418
 72
1
 10
583.4046386937982
 20
-25.62003937756418
 11
583.1538119770216
 21
-24.9535339376288
 72
1
 10
583.1538119770216
 20
-24.9535339376288
 11
583.0861446406591
 21
-24.49001867985567
 72
1
 10
583.0861446406591
 20
-24.49001867985567
 11
583.1538119770216
 21
-23.89844592639376
 72
1
 10
583.1538119770216
 20
-23.89844592639376
 11
587.9369716103231
 21
-4.709281187953319
 72
1
 10
587.9369716103231
 20
-4.70928118795332
 11
588.0492999019764
 21
-3.741272840742357
 72
1
 10
588.0492999019764
 20
-3.741272840742357
 11
587.9084729702133
 21
-2.769303620451188
 72
1
 10
587.9084729702133
 20
-2.769303620451188
 11
587.5230126428384
 21
-1.865988221715923
 72
1
 10
587.5230126428384
 20
-1.865988221715923
 11
586.9186970197773
 21
-1.091787378601782
 72
1
 10
586.9186970197773
 20
-1.091787378601782
 11
586.1360738143693
 21
-0.4985199257789816
 72
1
 10
586.1360738143693
 20
-0.4985199257789816
 11
585.2273272605574
 21
-0.1258944586529594
 72
1
 10
585.2273272605574
 20
-0.1258944586529594
 11
584.2040224250014
 21
0.0011473170396755
 72
1
 10
584.2040224250014
 20
0.0011473170396755
 11
531.3616770403362
 21
-5.59082349696e-05
 72
1
 10
531.3616770403362
 20
-5.59082349696e-05
 11
530.3924482815538
 21
-0.1259110025518566
 72
1
 10
530.3924482815538
 20
-0.1259110025518566
 11
529.4874882963243
 21
-0.4950875412972551
 72
1
 10
529.4874882963243
 20
-0.4950875412972551
 11
528.7067988974424
 21
-1.083107910075989
 72
1
 10
528.7067988974424
 20
-1.083107910075989
 11
528.1021423505584
 21
-1.850984431353515
 72
1
 10
528.1021423505584
 20
-1.850984431353515
 11
527.6894631597579
 21
-2.840733397435718
 72
1
 10
527.6894631597579
 20
-2.840733397435718
 11
491.5262277760303
 21
-142.0184586287007
 72
1
 10
491.5262277760303
 20
-142.0184586287007
 11
491.285387054301
 21
-142.5464490468001
 72
1
 10
491.285387054301
 20
-142.5464490468001
 11
490.9196172220762
 21
-142.996993788946
 72
1
 10
490.9196172220762
 20
-142.996993788946
 11
490.4523832808063
 21
-143.3411893423314
 72
1
 10
490.4523832808063
 20
-143.3411893423314
 11
489.9136593949716
 21
-143.5569547466021
 72
1
 10
489.9136593949716
 20
-143.5569547466021
 11
489.3380059784116
 21
-143.6304481397997
 72
1
 10
489.3380059784116
 20
-143.6304481397997
 11
464.1723476201993
 21
-143.6307349475414
 72
1
 10
464.1723476201993
 20
-143.6307349475414
 11
463.2170053496939
 21
-143.753309417928
 72
1
 10
463.2170053496939
 20
-143.753309417928
 11
462.3231709967558
 21
-144.1121457373296
 72
1
 10
462.3231709967558
 20
-144.1121457373296
 11
461.548271438298
 21
-144.6841894672282
 72
1
 10
461.548271438298
 20
-144.6841894672282
 11
460.9420922541715
 21
-145.432688065324
 72
1
 10
460.9420922541715
 20
-145.432688065324
 11
460.5435791139909
 21
-146.3095521549692
 72
1
 10
460.5435791139909
 20
-146.3095521549692
 11
460.3783356041019
 21
-147.2584451610836
 72
1
 10
460.3783356041019
 20
-147.2584451610836
 11
460.456978253936
 21
-148.2184028102794
 72
1
 10
460.456978253936
 20
-148.2184028102794
 11
460.9420922541715
 21
-149.4567411099149
 72
1
 10
460.9420922541715
 20
-149.4567411099149
 11
463.8478105641953
 21
-155.1593152872036
 72
1
 10
463.8478105641953
 20
-155.1593152872036
 11
464.0437423511378
 21
-155.7079975071088
 72
1
 10
464.0437423511378
 20
-155.7079975071088
 11
464.095223476409
 21
-156.2885285396488
 72
1
 10
464.095223476409
 20
-156.2885285396488
 11
463.9985038584961
 21
-156.8632562156078
 72
1
 10
463.9985038584961
 20
-156.8632562156078
 11
463.7598471541452
 21
-157.3949606104268
 72
1
 10
463.7598471541452
 20
-157.3949606104268
 11
463.3947090041785
 21
-157.8492080291709
 72
1
 10
463.3947090041785
 20
-157.8492080291709
 11
462.9267361111267
 21
-158.1965809661901
 72
1
 10
462.9267361111267
 20
-158.1965809661901
 11
462.3862348557461
 21
-158.4145832114515
 72
1
 10
462.3862348557461
 20
-158.4145832114515
 11
461.8082086262279
 21
-158.4890967270328
 72
1
 10
461.8082086262279
 20
-158.4890967270328
 11
439.658911753552
 21
-158.4882302113286
 72
1
 10
439.658911753552
 20
-158.4882302113286
 11
439.1014575230817
 21
-158.3496375379485
 72
1
 10
439.1014575230817
 20
-158.3496375379485
 11
438.5827410958963
 21
-158.0958612120029
 72
1
 10
438.5827410958963
 20
-158.0958612120029
 11
438.1554061378398
 21
-157.7337000341638
 72
1
 10
438.1554061378398
 20
-157.7337000341638
 11
437.8060967243361
 21
-157.2830707583159
 72
1
 10
437.8060967243361
 20
-157.2830707583159
 11
437.5651641196069
 21
-156.7663161834909
 72
1
 10
437.5651641196069
 20
-156.7663161834909
 11
437.4168568515217
 21
-156.137933934785
 72
1
 10
437.4168568515217
 20
-156.137933934785
 11
436.7165294563045
 21
-154.3395623520183
 72
1
 10
436.7165294563045
 20
-154.3395623520183
 11
435.7040981333179
 21
-152.7104943875462
 72
1
 10
435.7040981333179
 20
-152.7104943875462
 11
434.4105952249139
 21
-151.2936641508438
 72
1
 10
434.4105952249139
 20
-151.2936641508438
 11
432.8761738147085
 21
-150.1378289577377
 72
1
 10
432.8761738147085
 20
-150.1378289577377
 11
431.1581954507739
 21
-149.2831418918725
 72
1
 10
431.1581954507739
 20
-149.2831418918725
 11
429.3049881624914
 21
-148.7605781891854
 72
1
 10
429.3049881624914
 20
-148.7605781891854
 11
427.3909037039437
 21
-148.5824971021035
 72
1
 10
427.3909037039437
 20
-148.5824971021035
 11
425.4779681556385
 21
-148.7605781891854
 72
1
 10
425.4779681556385
 20
-148.7605781891854
 11
423.6309263085948
 21
-149.2854363537933
 72
1
 10
423.6309263085948
 20
-149.2854363537933
 11
421.9129479446516
 21
-150.1401234196586
 72
1
 10
421.9129479446516
 20
-150.1401234196586
 11
420.3813946118591
 21
-151.2930905353603
 72
1
 10
420.3813946118591
 20
-151.2930905353603
 11
419.0850236260465
 21
-152.709920772065
 72
1
 10
419.0850236260465
 20
-152.709920772065
 11
418.0725923030557
 21
-154.3418568139434
 72
1
 10
418.0725923030557
 20
-154.3418568139434
 11
417.3254179025151
 21
-156.3000325895351
 72
1
 10
417.3254179025151
 20
-156.3000325895351
 11
417.1985092592892
 21
-156.8182040965142
 72
1
 10
417.1985092592892
 20
-156.8182040965142
 11
416.9066052439772
 21
-157.3781435791782
 72
1
 10
416.9066052439772
 20
-157.3781435791782
 11
416.5490689718461
 21
-157.8269408060568
 72
1
 10
416.5490689718461
 20
-157.8269408060568
 11
416.1161168225646
 21
-158.1628790345906
 72
1
 10
416.1161168225646
 20
-158.1628790345906
 11
415.4073321426947
 21
-158.4187940523995
 72
1
 10
415.4073321426947
 20
-158.4187940523995
 11
415.0137877535664
 21
-158.48909673758
 72
1
 10
415.0137877535664
 20
-158.48909673758
 11
392.918021829162
 21
-158.48909673758
 72
1
 10
392.918021829162
 20
-158.48909673758
 11
392.3496485679452
 21
-158.4012503157667
 72
1
 10
392.3496485679452
 20
-158.4012503157667
 11
391.8210978626007
 21
-158.1745361570323
 72
1
 10
391.8210978626007
 20
-158.1745361570323
 11
391.3657193496413
 21
-157.8232591042354
 72
1
 10
391.3657193496413
 20
-157.8232591042354
 11
390.9409784461614
 21
-157.2056258309117
 72
1
 10
390.9409784461614
 20
-157.2056258309117
 11
390.782980012711
 21
-156.8421345390261
 72
1
 10
390.782980012711
 20
-156.8421345390261
 11
390.6923879317892
 21
-156.2741924356724
 72
1
 10
390.6923879317892
 20
-156.2741924356724
 11
390.782980012711
 21
-155.5993089393567
 72
1
 10
390.782980012711
 20
-155.5993089393567
 11
391.0122457650563
 21
-155.0202912644164
 72
1
 10
391.0122457650563
 20
-155.0202912644164
 11
394.1417312512307
 21
-148.7605781891854
 72
1
 10
394.1417312512307
 20
-148.7605781891854
 11
394.3270124568629
 21
-148.2438526303287
 72
1
 10
394.3270124568629
 20
-148.2438526303287
 11
394.4128629507418
 21
-147.280394046094
 72
1
 10
394.4128629507418
 20
-147.280394046094
 11
394.25251309186
 21
-146.3265016655879
 72
1
 10
394.25251309186
 20
-146.3265016655879
 11
393.8563668798222
 21
-145.4440670053855
 72
1
 10
393.8563668798222
 20
-145.4440670053855
 11
393.2501275180015
 21
-144.6903451820246
 72
1
 10
393.2501275180015
 20
-144.6903451820246
 11
392.4731297094303
 21
-144.1142400212212
 72
1
 10
392.4731297094303
 20
-144.1142400212212
 11
391.5757874984304
 21
-143.7531310249331
 72
1
 10
391.5757874984304
 20
-143.7531310249331
 11
390.6163232499991
 21
-143.6304480725645
 72
1
 10
390.6163232499991
 20
-143.6304480725645
 11
364.9590159368003
 21
-143.5772253286901
 72
1
 10
364.9590159368003
 20
-143.5772253286901
 11
364.483012960656
 21
-143.4149539443748
 72
1
 10
364.483012960656
 20
-143.4149539443748
 11
364.0536537131037
 21
-143.1531114879073
 72
1
 10
364.0536537131037
 20
-143.1531114879073
 11
363.6914630904982
 21
-142.8042149583099
 72
1
 10
363.6914630904982
 20
-142.8042149583099
 11
363.4137550904679
 21
-142.384942848356
 72
1
 10
363.4137550904679
 20
-142.384942848356
 11
363.2338051413264
 21
-141.9153378534188
 72
1
 10
363.2338051413264
 20
-141.9153378534188
 11
327.0559606204161
 21
-2.747804375264109
 72
1
 10
327.0559606204161
 20
-2.747804375264115
 11
326.6541587601799
 21
-1.850984431355681
 72
1
 10
326.6541587601799
 20
-1.850984431355681
 11
326.3361782343268
 21
-1.369836854650208
 72
1
 10
326.3361782343268
 20
-1.369836854650208
 11
325.7374867001378
 21
-0.7921843398956128
 72
1
 10
325.7374867001378
 20
-0.7921843398956128
 11
325.0274693241427
 21
-0.3586070034299269
 72
1
 10
325.0274693241427
 20
-0.3586070034299269
 11
324.240134749021
 21
-0.0898724732053666
 72
1
 10
324.240134749021
 20
-0.0898724732053666
 11
323.4131949817468
 21
0.0011472406369023
 72
1
 10
323.4131949817468
 20
0.0011472406369023
 11
268.5285533613315
 21
-0.049334497016298
 72
1
 10
268.5285533613315
 20
-0.049334497016298
 11
268.1501353063916
 21
-0.0914227450394378
 72
1
 10
268.1501353063916
 20
-0.0914227450394378
 11
267.3635558673804
 21
-0.3600642124739181
 72
1
 10
267.3635558673804
 20
-0.3600642124739181
 11
266.6543215810784
 21
-0.7934838900910677
 72
1
 10
266.6543215810784
 20
-0.7934838900910677
 11
266.0560738978826
 21
-1.371447903675363
 72
1
 10
266.0560738978826
 20
-1.371447903675363
 11
265.5979679445583
 21
-2.066208054246936
 72
1
 10
265.5979679445583
 20
-2.066208054246936
 11
265.3019484955152
 21
-2.844119773286257
 72
1
 10
265.3019484955152
 20
-2.844119773286257
 11
228.9855177223258
 21
-142.3881537656386
 72
1
 10
228.9855177223258
 20
-142.3881537656386
 11
228.7089014341578
 21
-142.8057466380647
 72
1
 10
228.7089014341578
 20
-142.8057466380647
 11
228.3481492993462
 21
-143.1532495520282
 72
1
 10
228.3481492993462
 20
-143.1532495520282
 11
227.9205029764518
 21
-143.4140540774871
 72
1
 10
227.9205029764518
 20
-143.4140540774871
 11
227.4464012409562
 21
-143.5756954161961
 72
1
 10
227.4464012409562
 20
-143.5756954161961
 11
226.9485031417007
 21
-143.6304481397997
 72
1
 10
226.9485031417007
 20
-143.6304481397997
 11
201.7828447834969
 21
-143.6307349475436
 72
1
 10
201.7828447834969
 20
-143.6307349475436
 11
200.8275025129699
 21
-143.7533094179302
 72
1
 10
200.8275025129699
 20
-143.7533094179302
 11
199.9336681600231
 21
-144.1121457373426
 72
1
 10
199.9336681600231
 20
-144.1121457373426
 11
199.1587686015566
 21
-144.6841894672564
 72
1
 10
199.1587686015566
 20
-144.6841894672564
 11
198.5525894174345
 21
-145.4326880653695
 72
1
 10
198.5525894174345
 20
-145.4326880653695
 11
198.1540762772583
 21
-146.3095521550385
 72
1
 10
198.1540762772583
 20
-146.3095521550385
 11
197.9888327673909
 21
-147.2584451611723
 72
1
 10
197.9888327673909
 20
-147.2584451611723
 11
198.0674754172466
 21
-148.2184028103747
 72
1
 10
198.0674754172466
 20
-148.2184028103747
 11
198.5525894174345
 21
-149.4567411098629
 72
1
 10
198.5525894174345
 20
-149.4567411098629
 11
201.6090010217765
 21
-155.5813128853556
 72
1
 10
201.6090010217765
 20
-155.5813128853556
 11
201.6542395144268
 21
-155.7079975071196
 72
1
 10
201.6542395144268
 20
-155.7079975071196
 11
201.7057206397023
 21
-156.2885285396748
 72
1
 10
201.7057206397023
 20
-156.2885285396748
 11
201.6090010217765
 21
-156.8632562156468
 72
1
 10
201.6090010217765
 20
-156.8632562156468
 11
201.3703443174082
 21
-157.3949606104723
 72
1
 10
201.3703443174082
 20
-157.3949606104723
 11
201.0052061674156
 21
-157.8492080292186
 72
1
 10
201.0052061674156
 20
-157.8492080292186
 11
200.5372332743464
 21
-158.1965809662291
 72
1
 10
200.5372332743464
 20
-158.1965809662291
 11
199.9967320189484
 21
-158.4145832114731
 72
1
 10
199.9967320189484
 20
-158.4145832114731
 11
199.4187057894216
 21
-158.4890967270328
 72
1
 10
199.4187057894216
 20
-158.4890967270328
 11
177.2605798194679
 21
-158.4882298659157
 72
1
 10
177.2605798194679
 20
-158.4882298659157
 11
176.706835085716
 21
-158.3505594369981
 72
1
 10
176.706835085716
 20
-158.3505594369981
 11
176.1915703801367
 21
-158.0984718280122
 72
1
 10
176.1915703801367
 20
-158.0984718280122
 11
175.7670790592903
 21
-157.7387205981168
 72
1
 10
175.7670790592903
 20
-157.7387205981168
 11
175.420094073569
 21
-157.2910899680775
 72
1
 10
175.420094073569
 20
-157.2910899680775
 11
175.1807647191901
 21
-156.7777740600571
 72
1
 10
175.1807647191901
 20
-156.7777740600571
 11
175.0334443398655
 21
-156.1535732879985
 72
1
 10
175.0334443398655
 20
-156.1535732879985
 11
174.3270266196021
 21
-154.3395623520161
 72
1
 10
174.3270266196021
 20
-154.3395623520161
 11
173.3145952966112
 21
-152.7104943875484
 72
1
 10
173.3145952966112
 20
-152.7104943875484
 11
172.0210923881985
 21
-151.2936641508438
 72
1
 10
172.0210923881985
 20
-151.2936641508438
 11
170.4866709779975
 21
-150.1378289577377
 72
1
 10
170.4866709779975
 20
-150.1378289577377
 11
168.7686926140629
 21
-149.2831418918703
 72
1
 10
168.7686926140629
 20
-149.2831418918703
 11
166.9154853257847
 21
-148.7605781891832
 72
1
 10
166.9154853257847
 20
-148.7605781891832
 11
165.0014008672326
 21
-148.5824971021035
 72
1
 10
165.0014008672326
 20
-148.5824971021035
 11
163.0884653189275
 21
-148.7605781891832
 72
1
 10
163.0884653189275
 20
-148.7605781891832
 11
161.2414234718838
 21
-149.2854363537955
 72
1
 10
161.2414234718838
 20
-149.2854363537955
 11
159.5234451079406
 21
-150.1401234196607
 72
1
 10
159.5234451079406
 20
-150.1401234196607
 11
157.9918917751438
 21
-151.2930905353625
 72
1
 10
157.9918917751438
 20
-151.2930905353625
 11
156.6955207893399
 21
-152.709920772065
 72
1
 10
156.6955207893399
 20
-152.709920772065
 11
155.6830894663533
 21
-154.3418568139412
 72
1
 10
155.6830894663533
 20
-154.3418568139412
 11
154.9359150658083
 21
-156.3000325895351
 72
1
 10
154.9359150658083
 20
-156.3000325895351
 11
154.8089556851074
 21
-156.8183129412264
 72
1
 10
154.8089556851074
 20
-156.8183129412264
 11
154.5170912964994
 21
-157.3781579144548
 72
1
 10
154.5170912964994
 20
-157.3781579144548
 11
154.1595661351394
 21
-157.8269408060568
 72
1
 10
154.1595661351394
 20
-157.8269408060568
 11
153.7266139858493
 21
-158.1628790345885
 72
1
 10
153.7266139858493
 20
-158.1628790345885
 11
153.0178293060183
 21
-158.418794052393
 72
1
 10
153.0178293060183
 20
-158.418794052393
 11
152.6242849168554
 21
-158.48909673758
 72
1
 10
152.6242849168554
 20
-158.48909673758
 11
130.5285189924553
 21
-158.48909673758
 72
1
 10
130.5285189924553
 20
-158.48909673758
 11
129.9601457312342
 21
-158.4012503157688
 72
1
 10
129.9601457312342
 20
-158.4012503157688
 11
129.4315950258983
 21
-158.1745361570323
 72
1
 10
129.4315950258983
 20
-158.1745361570323
 11
128.9762165129302
 21
-157.8232591042332
 72
1
 10
128.9762165129302
 20
-157.8232591042332
 11
128.5514756094503
 21
-157.2056258308944
 72
1
 10
128.5514756094503
 20
-157.2056258308944
 11
128.3934771760086
 21
-156.8421345390282
 72
1
 10
128.3934771760086
 20
-156.8421345390282
 11
128.3028850950738
 21
-156.2741924356702
 72
1
 10
128.3028850950738
 20
-156.2741924356702
 11
128.3566827179925
 21
-155.7015922490996
 72
1
 10
128.3566827179925
 20
-155.7015922490996
 11
128.5514756094503
 21
-155.1601871141502
 72
1
 10
128.5514756094503
 20
-155.1601871141502
 11
131.7522284145197
 21
-148.7605781891832
 72
1
 10
131.7522284145197
 20
-148.7605781891832
 11
131.9375096201518
 21
-148.2438526303265
 72
1
 10
131.9375096201518
 20
-148.2438526303265
 11
132.0233601140264
 21
-147.2803940460918
 72
1
 10
132.0233601140264
 20
-147.2803940460918
 11
131.8630102551489
 21
-146.3265016655858
 72
1
 10
131.8630102551489
 20
-146.3265016655858
 11
131.4668640431154
 21
-145.4440670053877
 72
1
 10
131.4668640431154
 20
-145.4440670053877
 11
130.8606246812905
 21
-144.6903451820246
 72
1
 10
130.8606246812905
 20
-144.6903451820246
 11
130.0836268727193
 21
-144.114240021219
 72
1
 10
130.0836268727193
 20
-144.114240021219
 11
129.186284661728
 21
-143.7531310249331
 72
1
 10
129.186284661728
 20
-143.7531310249331
 11
128.2268204132967
 21
-143.6304480725645
 72
1
 10
128.2268204132967
 20
-143.6304480725645
 11
102.5695131000546
 21
-143.5772253286835
 72
1
 10
102.5695131000546
 20
-143.5772253286835
 11
102.09351012388
 21
-143.4149539443424
 72
1
 10
102.09351012388
 20
-143.4149539443424
 11
101.664150876306
 21
-143.1531114878401
 72
1
 10
101.664150876306
 20
-143.1531114878401
 11
101.3019602536919
 21
-142.8042149581951
 72
1
 10
101.3019602536919
 20
-142.8042149581951
 11
101.0242522536745
 21
-142.3849428481893
 72
1
 10
101.0242522536745
 20
-142.3849428481893
 11
100.8443023045634
 21
-141.9153378531979
 72
1
 10
100.8443023045634
 20
-141.9153378531979
 11
64.70587676083271
 21
-2.841117387737682
 72
1
 10
64.70587676083271
 20
-2.841117387737682
 11
64.40948406786536
 21
-2.064353001151567
 72
1
 10
64.40948406786536
 20
-2.064353001151567
 11
63.95130903097068
 21
-1.370614618404221
 72
1
 10
63.95130903097068
 20
-1.370614618404221
 11
63.35338995095228
 21
-0.793170586286459
 72
1
 10
63.35338995095228
 20
-0.793170586286459
 11
62.64310846211373
 21
-0.3590685816901442
 72
1
 10
62.64310846211373
 20
-0.3590685816901442
 11
61.85535910668434
 21
-0.0899990781621227
 72
1
 10
61.85535910668434
 20
-0.0899990781621227
 11
61.02792953450723
 21
0.0011477692384915
 72
1
 10
61.02792953450723
 20
0.0011477692384915
 11
8.456044405188663
 21
0.0011477692384915
 72
1
 10
8.456044405188663
 20
0.0011477692384915
 11
7.491420635339705
 21
-0.1233805231325675
 72
1
 10
7.491420635339705
 20
-0.1233805231325675
 11
6.590046785643596
 21
-0.4888001395490278
 72
1
 10
6.590046785643596
 20
-0.4888001395490278
 11
5.811025509212868
 21
-1.071150690186999
 72
1
 10
5.811025509212868
 20
-1.071150690186999
 11
5.205436859285931
 21
-1.83224772740308
 72
1
 10
5.205436859285931
 20
-1.83224772740308
 11
4.812988994602051
 21
-2.722186481740084
 72
1
 10
4.812988994602051
 20
-2.722186481740084
 11
4.659414534321058
 21
-3.682614093858006
 72
1
 10
4.659414534321058
 20
-3.682614093858006
 11
4.754783282498453
 21
-4.650555783651651
 72
1
 10
4.754783282498453
 20
-4.650555783651651
 11
8.427957325030617
 21
-21.93440573569035
 72
1
 10
8.427957325030617
 20
-21.93440573569035
 11
8.491874840963815
 21
-22.52078197766482
 72
1
 10
8.491874840963815
 20
-22.52078197766482
 11
8.403851698637391
 21
-23.10402675682053
 72
1
 10
8.403851698637391
 20
-23.10402675682053
 11
8.169731044021876
 21
-23.64542315972654
 72
1
 10
8.169731044021876
 20
-23.64542315972654
 11
7.805054257756137
 21
-24.10903224888935
 72
1
 10
7.805054257756137
 20
-24.10903224888935
 11
7.334029288310603
 21
-24.46407875873936
 72
1
 10
7.334029288310603
 20
-24.46407875873936
 11
6.7879236816981
 21
-24.68699401712483
 72
1
 10
6.7879236816981
 20
-24.68699401712483
 11
6.202989173610933
 21
-24.76298047922928
 72
1
 10
6.202989173610933
 20
-24.76298047922928
 11
-6.706586306599956
 21
-24.70891128198628
 72
1
 10
-6.706586306599956
 20
-24.70891128198628
 11
-7.263939240632817
 21
-24.50470625703971
 72
1
 10
-7.263939240632817
 20
-24.50470625703971
 11
-7.750069208024616
 21
-24.16408969829415
 72
1
 10
-7.750069208024616
 20
-24.16408969829415
 11
-8.13230353412432
 21
-23.709954360272
 72
1
 10
-8.13230353412432
 20
-23.709954360272
 11
-8.384952344570298
 21
-23.1728225665133
 72
1
 10
-8.384952344570298
 20
-23.1728225665133
 11
-8.491035175426555
 21
-22.58879481179008
 72
1
 10
-8.491035175426555
 20
-22.58879481179008
 11
-8.443970843937326
 21
-21.99700635729039
 72
1
 10
-8.443970843937326
 20
-21.99700635729039
 11
-7.153336012937529
 21
-15.92815457415374
 72
1
 10
-7.153336012937529
 20
-15.92815457415374
 11
-8.629822259609023
 21
-15.61467371409026
 72
1
 10
-8.629822259609023
 20
-15.61467371409026
 11
-9.919883475134032
 21
-21.68352549722474
 72
1
 10
-9.919883475134032
 20
-21.68352549722474
 11
-9.99926233823104
 21
-22.64403061640424
 72
1
 10
-9.99926233823104
 20
-22.64403061640424
 11
-9.83434070989016
 21
-23.59359469764852
 72
1
 10
-9.83434070989016
 20
-23.59359469764852
 11
-9.435736549183105
 21
-24.47108305138787
 72
1
 10
-9.435736549183105
 20
-24.47108305138787
 11
-8.829112728265704
 21
-25.22000135653137
 72
1
 10
-8.829112728265704
 20
-25.22000135653137
 11
-8.053524809274984
 21
-25.7921328692098
 72
1
 10
-8.053524809274984
 20
-25.7921328692098
 11
-7.158906575085222
 21
-26.15064270580272
 72
1
 10
-7.158906575085222
 20
-26.15064270580272
 11
-6.202855200133194
 21
-26.27244934080435
 72
1
 10
-6.202855200133194
 20
-26.27244934080435
 11
6.202988981432339
 21
-26.27243216146603
 72
1
 10
6.202988981432338
 20
-26.27243216146603
 11
7.169682080872417
 21
-26.14736579838502
 72
1
 10
7.169682080872417
 20
-26.14736579838502
 11
8.07284356437808
 21
-25.78035152505248
 72
1
 10
8.07284356437808
 20
-25.78035152505248
 11
8.85286660973178
 21
-25.1955744813634
 72
1
 10
8.85286660973178
 20
-25.1955744813634
 11
9.458386822729029
 21
-24.43154214319199
 72
1
 10
9.458386822729029
 20
-24.43154214319199
 11
9.849530793059898
 21
-23.53856591921707
 72
1
 10
9.849530793059898
 20
-23.53856591921707
 11
9.994957764001118
 21
-22.52078197766482
 72
1
 10
9.994957764001118
 20
-22.52078197766482
 11
9.901475652146644
 21
-21.60560999603141
 72
1
 10
9.901475652146644
 20
-21.60560999603141
 11
6.22864457481088
 21
-4.323373841401782
 72
1
 10
6.22864457481088
 20
-4.323373841401781
 11
6.168336482690278
 21
-3.738705157893832
 72
1
 10
6.168336482690278
 20
-3.738705157893832
 11
6.25892638824032
 21
-3.157957360254016
 72
1
 10
6.25892638824032
 20
-3.157957360254016
 11
6.494439485094881
 21
-2.619433343463236
 72
1
 10
6.494439485094881
 20
-2.619433343463236
 11
6.859342639172393
 21
-2.158651156743303
 72
1
 10
6.859342639172393
 20
-2.158651156743303
 11
7.329568867774128
 21
-1.806001430546939
 72
1
 10
7.329568867774128
 20
-1.806001430546939
 11
7.874104663960793
 21
-1.584742979599712
 72
1
 10
7.874104663960793
 20
-1.584742979599712
 11
8.457035671972426
 21
-1.50889543439788
 72
1
 10
8.457035671972426
 20
-1.50889543439788
 11
61.52662565140727
 21
-1.562798240465184
 72
1
 10
61.52662565140727
 20
-1.562798240465184
 11
62.0015698704329
 21
-1.724136073270454
 72
1
 10
62.0015698704329
 20
-1.724136073270454
 11
62.42991064912001
 21
-1.985145814072319
 72
1
 10
62.42991064912001
 20
-1.985145814072319
 11
62.79103744456661
 21
-2.333268414733709
 72
1
 10
62.79103744456661
 20
-2.333268414733709
 11
63.1027775677991
 21
-2.844119773288423
 72
1
 10
63.1027775677991
 20
-2.844119773288423
 11
63.24621374784747
 21
-3.220463879645808
 72
1
 10
63.24621374784747
 20
-3.220463879645808
 11
99.38588494564223
 21
-142.2950713017081
 72
1
 10
99.38588494564223
 20
-142.2950713017081
 11
99.68163297393107
 21
-143.0725370488246
 72
1
 10
99.68163297393107
 20
-143.0725370488246
 11
100.1395721549668
 21
-143.7669516156711
 72
1
 10
100.1395721549668
 20
-143.7669516156711
 11
100.8443023045634
 21
-144.4101573968242
 72
1
 10
100.8443023045634
 20
-144.4101573968242
 11
101.4473940478699
 21
-144.7789189889487
 72
1
 10
101.4473940478699
 20
-144.7789189889487
 11
102.234517726332
 21
-145.0479100649781
 72
1
 10
102.234517726332
 20
-145.0479100649781
 11
103.0694051726542
 21
-145.1390572216953
 72
1
 10
103.0694051726542
 20
-145.1390572216953
 11
128.2267655285791
 21
-145.1402041266543
 72
1
 10
128.2267655285791
 20
-145.1402041266543
 11
128.8047839873864
 21
-145.2147288201684
 72
1
 10
128.8047839873864
 20
-145.2147288201684
 11
129.3452755047205
 21
-145.4327384262927
 72
1
 10
129.3452755047205
 20
-145.4327384262927
 11
129.8132380770784
 21
-145.7801147345632
 72
1
 10
129.8132380770784
 20
-145.7801147345632
 11
130.1783666449401
 21
-146.2343618012542
 72
1
 10
130.1783666449401
 20
-146.2343618012542
 11
130.4170156357296
 21
-146.7660627772451
 72
1
 10
130.4170156357296
 20
-146.7660627772451
 11
130.5137302410938
 21
-147.3407849307896
 72
1
 10
130.5137302410938
 20
-147.3407849307896
 11
130.4622472638382
 21
-147.921309496785
 72
1
 10
130.4622472638382
 20
-147.921309496785
 11
130.0836268727193
 21
-148.8280718519154
 72
1
 10
130.0836268727193
 20
-148.8280718519154
 11
127.2065753884131
 21
-154.4751084587757
 72
1
 10
127.2065753884131
 20
-154.4751084587757
 11
126.8812289463275
 21
-155.3855693596672
 72
1
 10
126.8812289463275
 20
-155.3855693596672
 11
126.796186993777
 21
-156.3486670835466
 72
1
 10
126.796186993777
 20
-156.3486670835466
 11
126.9569550212015
 21
-157.3020521058693
 72
1
 10
126.9569550212015
 20
-157.3020521058693
 11
127.3531251438941
 21
-158.1840036880521
 72
1
 10
127.3531251438941
 20
-158.1840036880521
 11
127.9590498930941
 21
-158.9374255869493
 72
1
 10
127.9590498930941
 20
-158.9374255869493
 11
128.7355025952362
 21
-159.5135423813235
 72
1
 10
128.7355025952362
 20
-159.5135423813235
 11
129.6322168489067
 21
-159.8750571205961
 72
1
 10
129.6322168489067
 20
-159.8750571205961
 11
130.591140697383
 21
-159.9988526821183
 72
1
 10
130.591140697383
 20
-159.9988526821183
 11
152.733004136069
 21
-159.9889171659207
 72
1
 10
152.733004136069
 20
-159.9889171659207
 11
153.580534640835
 21
-159.8838656462075
 72
1
 10
153.580534640835
 20
-159.8838656462075
 11
154.4520745143628
 21
-159.5458640901984
 72
1
 10
154.4520745143628
 20
-159.5458640901984
 11
155.2147167331079
 21
-159.0053054447225
 72
1
 10
155.2147167331079
 20
-159.0053054447225
 11
155.8223026329703
 21
-158.294906840211
 72
1
 10
155.8223026329703
 20
-158.294906840211
 11
156.2380582814808
 21
-157.4576649135571
 72
1
 10
156.2380582814808
 20
-157.4576649135571
 11
156.4368202076556
 21
-156.5442534511215
 72
1
 10
156.4368202076556
 20
-156.5442534511215
 11
157.0336671150574
 21
-155.0161418112059
 72
1
 10
157.0336671150574
 20
-155.0161418112059
 11
157.9918917751438
 21
-153.5216045095093
 72
1
 10
157.9918917751438
 20
-153.5216045095093
 11
159.0069043678059
 21
-152.4119275299745
 72
1
 10
159.0069043678059
 20
-152.4119275299745
 11
160.3176157406268
 21
-151.4224408262003
 72
1
 10
160.3176157406268
 20
-151.4224408262003
 11
161.7860713705689
 21
-150.6939491660377
 72
1
 10
161.7860713705689
 20
-150.6939491660377
 11
163.3663820192077
 21
-150.2436610138819
 72
1
 10
163.3663820192077
 20
-150.2436610138819
 11
165.0014008672326
 21
-150.0922541218921
 72
1
 10
165.0014008672326
 20
-150.0922541218921
 11
166.9216507670193
 21
-150.3231901929011
 72
1
 10
166.9216507670193
 20
-150.3231901929011
 11
168.2237579076361
 21
-150.6925151273313
 72
1
 10
168.2237579076361
 20
-150.6925151273313
 11
169.6950816149782
 21
-151.4238748649003
 72
1
 10
169.6950816149782
 20
-151.4238748649003
 11
171.0029249104078
 21
-152.4104934912745
 72
1
 10
171.0029249104078
 20
-152.4104934912745
 11
172.1128708650783
 21
-153.6208221550158
 72
1
 10
172.1128708650783
 20
-153.6208221550158
 11
172.976162163139
 21
-155.0147077725038
 72
1
 10
172.976162163139
 20
-155.0147077725038
 11
173.5727222628077
 21
-156.546261105307
 72
1
 10
173.5727222628077
 20
-156.546261105307
 11
173.7696628799327
 21
-157.4591610796773
 72
1
 10
173.7696628799327
 20
-157.4591610796773
 11
174.3270266196021
 21
-158.4640418995599
 72
1
 10
174.3270266196021
 20
-158.4640418995599
 11
174.7900283953162
 21
-159.0066139848809
 72
1
 10
174.7900283953162
 20
-159.0066139848809
 11
175.5515279143216
 21
-159.5472529146975
 72
1
 10
175.5515279143216
 20
-159.5472529146975
 11
176.422093301088
 21
-159.8853178156268
 72
1
 10
176.422093301088
 20
-159.8853178156268
 11
177.2605798194679
 21
-159.9893363439294
 72
1
 10
177.2605798194679
 20
-159.9893363439294
 11
177.3488904575118
 21
-160.0002917289033
 97
0
 75
0
 76
1
 98
1
 10
0.0
 20
0.0
450
0
451
0
460
0.0
461
0.0
452
0
462
0.0
453
0
470

  0
LINE
  5
33
330
2F
100
AcDbEntity
  8
A-DETL-GENF
100
AcDbLine
 10
8.457035671975675
 20
-1.508895434388167
 30
0.0
 11
61.02793096025983
 21
-1.508895434388167
 31
0.0
  0
ARC
  5
34
330
2F
100
AcDbEntity
  8
A-DETL-GENF
100
AcDbCircle
 10
61.03302896300029
 20
-3.795577999367499
 30
0.0
 40
2.286688247796885
100
AcDbArc
 50
14.56660353919187
 51
90.12773681905381
  0
LINE
  5
35
330
2F
100
AcDbEntity
  8
A-DETL-GENF
100
AcDbLine
 10
63.24621374785198
 20
-3.220463879636325
 30
0.0
 11
99.38588494564164
 21
-142.2950713016899
 31
0.0
  0
ARC
  5
36
330
2F
100
AcDbEntity
  8
A-DETL-GENF
100
AcDbCircle
 10
103.0614992482242
 20
-141.3418515059634
 30
0.0
 40
3.797205351349182
100
AcDbArc
 50
194.5385850017949
 51
269.9973879289028
  0
LINE
  5
37
330
2F
100
AcDbEntity
  8
A-DETL-GENF
100
AcDbLine
 10
103.0613261365146
 20
-145.1390568533663
 30
0.0
 11
128.2267655285717
 21
-145.1402041266468
 31
0.0
  0
ARC
  5
38
330
2F
100
AcDbEntity
  8
A-DETL-GENF
100
AcDbCircle
 10
128.2253030573515
 20
-147.430384222072
 30
0.0
 40
2.290180562380154
100
AcDbArc
 50
333.001754653817
 51
89.9634118652863
  0
LINE
  5
39
330
2F
100
AcDbEntity
  8
A-DETL-GENF
100
AcDbLine
 10
130.2660080408224
 20
-148.4700966337854
 30
0.0
 11
127.2062357472581
 21
-154.474935605397
 31
0.0
  0
ARC
  5
3A
330
2F
100
AcDbEntity
  8
A-DETL-GENF
100
AcDbCircle
 10
130.5931531128157
 20
-156.1986373787569
 30
0.0
 40
3.79992902847161
100
AcDbArc
 50
153.0271195221939
 51
269.9696565605797
  0
LINE
  5
3B
330
2F
100
AcDbEntity
  8
A-DETL-GENF
100
AcDbLine
 10
130.5911406973836
 20
-159.9988526821092
 30
0.0
 11
152.6528467706079
 21
-159.9988526821092
 31
0.0
  0
ARC
  5
3C
330
2F
100
AcDbEntity
  8
A-DETL-GENF
100
AcDbCircle
 10
152.6528467706079
 20
-156.1991773704867
 30
0.0
 40
3.799675311622308
100
AcDbArc
 50
269.9999999999992
 51
354.7893751121913
  0
LINE
  5
3D
330
2F
100
AcDbEntity
  8
A-DETL-GENF
100
AcDbLine
 10
156.4368202076621
 20
-156.5442534511124
 30
0.0
 11
157.0336671150625
 21
-155.016141811199
 31
0.0
  0
LINE
  5
3E
330
2F
100
AcDbEntity
  8
A-DETL-GENF
100
AcDbLine
 10
157.0336671150625
 20
-155.016141811199
 30
0.0
 11
157.8998264905417
 21
-153.6222561937135
 31
0.0
  0
LINE
  5
3F
330
2F
100
AcDbEntity
  8
A-DETL-GENF
100
AcDbLine
 10
157.8998264905417
 20
-153.6222561937135
 30
0.0
 11
159.0069043678118
 21
-152.4119275299655
 31
0.0
  0
LINE
  5
40
330
2F
100
AcDbEntity
  8
A-DETL-GENF
100
AcDbLine
 10
159.0069043678118
 20
-152.4119275299655
 30
0.0
 11
160.317615740629
 21
-151.4224408261938
 31
0.0
  0
LINE
  5
41
330
2F
100
AcDbEntity
  8
A-DETL-GENF
100
AcDbLine
 10
160.317615740629
 20
-151.4224408261938
 30
0.0
 11
161.7860713705744
 21
-150.6939491660278
 31
0.0
  0
LINE
  5
42
330
2F
100
AcDbEntity
  8
A-DETL-GENF
100
AcDbLine
 10
161.7860713705744
 20
-150.6939491660279
 30
0.0
 11
163.3663820192137
 21
-150.2436610138745
 31
0.0
  0
LINE
  5
43
330
2F
100
AcDbEntity
  8
A-DETL-GENF
100
AcDbLine
 10
163.3663820192137
 20
-150.2436610138745
 30
0.0
 11
164.9966263531547
 21
-150.0918104871597
 31
0.0
  0
LINE
  5
44
330
2F
100
AcDbEntity
  8
A-DETL-GENF
100
AcDbLine
 10
164.9966263531546
 20
-150.0918104871597
 30
0.0
 11
166.6463153364134
 21
-150.2450950525744
 31
0.0
  0
LINE
  5
45
330
2F
100
AcDbEntity
  8
A-DETL-GENF
100
AcDbLine
 10
166.6463153364134
 20
-150.2450950525744
 30
0.0
 11
168.2237579076446
 21
-150.6925151273246
 31
0.0
  0
LINE
  5
46
330
2F
100
AcDbEntity
  8
A-DETL-GENF
100
AcDbLine
 10
168.2237579076446
 20
-150.6925151273246
 30
0.0
 11
169.6950816149864
 21
-151.4238748648932
 31
0.0
  0
LINE
  5
47
330
2F
100
AcDbEntity
  8
A-DETL-GENF
100
AcDbLine
 10
169.6950816149864
 20
-151.4238748648932
 30
0.0
 11
171.0029249104105
 21
-152.410493491265
 31
0.0
  0
LINE
  5
48
330
2F
100
AcDbEntity
  8
A-DETL-GENF
100
AcDbLine
 10
171.0029249104104
 20
-152.4104934912649
 30
0.0
 11
172.1128708650802
 21
-153.6208221550094
 31
0.0
  0
LINE
  5
49
330
2F
100
AcDbEntity
  8
A-DETL-GENF
100
AcDbLine
 10
172.1128708650802
 20
-153.6208221550094
 30
0.0
 11
172.9761621631474
 21
-155.0147077724947
 31
0.0
  0
LINE
  5
4A
330
2F
100
AcDbEntity
  8
A-DETL-GENF
100
AcDbLine
 10
172.9761621631474
 20
-155.0147077724947
 30
0.0
 11
173.5727222628153
 21
-156.5462611052958
 31
0.0
  0
ARC
  5
4B
330
2F
100
AcDbEntity
  8
A-DETL-GENF
100
AcDbCircle
 10
177.3486432762672
 20
-156.209371809341
 30
0.0
 40
3.790919927610826
100
AcDbArc
 50
185.0984542924757
 51
270.0037358853573
  0
LINE
  5
4C
330
2F
100
AcDbEntity
  8
A-DETL-GENF
100
AcDbLine
 10
177.3488904575144
 20
-160.0002917288934
 30
0.0
 11
199.4187184926224
 21
-159.9988526988596
 31
0.0
  0
ARC
  5
4D
330
2F
100
AcDbEntity
  8
A-DETL-GENF
100
AcDbCircle
 10
199.4208303118402
 20
-156.2014693022157
 30
0.0
 40
3.797383983861458
100
AcDbArc
 50
269.9681363970564
 51
27.04331587656019
  0
LINE
  5
4E
330
2F
100
AcDbEntity
  8
A-DETL-GENF
100
AcDbLine
 10
202.8035913147234
 20
-154.47464444828
 30
0.0
 11
199.743354942765
 21
-148.4688947173657
 31
0.0
  0
ARC
  5
4F
330
2F
100
AcDbEntity
  8
A-DETL-GENF
100
AcDbCircle
 10
201.7835619458465
 20
-147.4289332738838
 30
0.0
 40
2.289589653186815
100
AcDbArc
 50
91.57086428192456
 51
207.0094535291866
  0
LINE
  5
50
330
2F
100
AcDbEntity
  8
A-DETL-GENF
100
AcDbLine
 10
201.7207966938762
 20
-145.1402040843279
 30
0.0
 11
226.9485031417068
 21
-145.1402040843279
 31
0.0
  0
ARC
  5
51
330
2F
100
AcDbEntity
  8
A-DETL-GENF
100
AcDbCircle
 10
226.9507431135493
 20
-141.3429462393659
 30
0.0
 40
3.797258505632642
100
AcDbArc
 50
269.9662016846986
 51
345.4339786491118
  0
LINE
  5
52
330
2F
100
AcDbEntity
  8
A-DETL-GENF
100
AcDbLine
 10
230.6259519868494
 20
-142.2979393787186
 30
0.0
 11
266.7640140627888
 21
-3.223718913238259
 31
0.0
  0
ARC
  5
53
330
2F
100
AcDbEntity
  8
A-DETL-GENF
100
AcDbCircle
 10
268.9854367633709
 20
-3.806301249669141
 30
0.0
 40
2.296545447706767
100
AcDbArc
 50
90.00090564257412
 51
165.3047540007703
  0
LINE
  5
54
330
2F
100
AcDbEntity
  8
A-DETL-GENF
100
AcDbLine
 10
268.9854004631521
 20
-1.509755802249152
 30
0.0
 11
323.416860181484
 21
-1.508895434388132
 31
0.0
  0
ARC
  5
55
330
2F
100
AcDbEntity
  8
A-DETL-GENF
100
AcDbCircle
 10
323.4107111098941
 20
-3.807521575241119
 30
0.0
 40
2.298634365551464
100
AcDbArc
 50
14.56538599628125
 51
89.84672800706633
  0
LINE
  5
56
330
2F
100
AcDbEntity
  8
A-DETL-GENF
100
AcDbLine
 10
325.6354703002724
 20
-3.229450220368635
 30
0.0
 11
361.7696516274542
 21
-142.295071301325
 31
0.0
  0
ARC
  5
57
330
2F
100
AcDbEntity
  8
A-DETL-GENF
100
AcDbCircle
 10
365.4468433803442
 20
-141.3418515059625
 30
0.0
 40
3.797205351349213
100
AcDbArc
 50
194.5385850003597
 51
269.9973879289032
  0
LINE
  5
58
330
2F
100
AcDbEntity
  8
A-DETL-GENF
100
AcDbLine
 10
365.4466702686368
 20
-145.1390568076029
 30
0.0
 11
390.6134221647471
 21
-145.1402041407195
 31
0.0
  0
ARC
  5
59
330
2F
100
AcDbEntity
  8
A-DETL-GENF
100
AcDbCircle
 10
390.6119378165739
 20
-147.430384222057
 30
0.0
 40
2.290180562367249
100
AcDbArc
 50
333.0017546544675
 51
89.96286454750263
  0
LINE
  5
5A
330
2F
100
AcDbEntity
  8
A-DETL-GENF
100
AcDbLine
 10
392.6526428001278
 20
-148.4700966337835
 30
0.0
 11
389.5928705065715
 21
-154.474935605397
 31
0.0
  0
ARC
  5
5B
330
2F
100
AcDbEntity
  8
A-DETL-GENF
100
AcDbCircle
 10
392.9797878721972
 20
-156.198637378751
 30
0.0
 40
3.79992902853422
100
AcDbArc
 50
153.0271195227427
 51
269.969656559484
  0
LINE
  5
5C
330
2F
100
AcDbEntity
  8
A-DETL-GENF
100
AcDbLine
 10
392.9777754566925
 20
-159.9988526821092
 30
0.0
 11
415.0423496073157
 21
-159.9988526821092
 31
0.0
  0
ARC
  5
5D
330
2F
100
AcDbEntity
  8
A-DETL-GENF
100
AcDbCircle
 10
415.0423496073157
 20
-156.1991773704857
 30
0.0
 40
3.799675311622365
100
AcDbArc
 50
269.9999999999997
 51
354.9479791036162
  0
LINE
  5
5E
330
2F
100
AcDbEntity
  8
A-DETL-GENF
100
AcDbLine
 10
418.8272637718388
 20
-156.533777491442
 30
0.0
 11
419.4205886821105
 21
-155.0161418111987
 31
0.0
  0
LINE
  5
5F
330
2F
100
AcDbEntity
  8
A-DETL-GENF
100
AcDbLine
 10
419.4205886821107
 20
-155.0161418111985
 30
0.0
 11
420.2867480575839
 21
-153.6222561937129
 31
0.0
  0
LINE
  5
60
330
2F
100
AcDbEntity
  8
A-DETL-GENF
100
AcDbLine
 10
420.2867480575839
 20
-153.622256193713
 30
0.0
 11
421.3938259348497
 21
-152.4119275299697
 31
0.0
  0
LINE
  5
61
330
2F
100
AcDbEntity
  8
A-DETL-GENF
100
AcDbLine
 10
421.3938259348497
 20
-152.4119275299697
 30
0.0
 11
422.7016692302771
 21
-151.4224408261929
 31
0.0
  0
LINE
  5
62
330
2F
100
AcDbEntity
  8
A-DETL-GENF
100
AcDbLine
 10
422.7016692302771
 20
-151.4224408261929
 30
0.0
 11
424.1729929376242
 21
-150.6939491660273
 31
0.0
  0
LINE
  5
63
330
2F
100
AcDbEntity
  8
A-DETL-GENF
100
AcDbLine
 10
424.1729929376242
 20
-150.6939491660273
 30
0.0
 11
425.7504355088559
 21
-150.2436610138745
 31
0.0
  0
LINE
  5
64
330
2F
100
AcDbEntity
  8
A-DETL-GENF
100
AcDbLine
 10
425.7504355088559
 20
-150.2436610138745
 30
0.0
 11
427.3848484780868
 21
-150.0916892816448
 31
0.0
  0
LINE
  5
65
330
2F
100
AcDbEntity
  8
A-DETL-GENF
100
AcDbLine
 10
427.3848484780868
 20
-150.0916892816448
 30
0.0
 11
429.0332369034553
 21
-150.2450950525743
 31
0.0
  0
LINE
  5
66
330
2F
100
AcDbEntity
  8
A-DETL-GENF
100
AcDbLine
 10
429.0332369034553
 20
-150.2450950525743
 30
0.0
 11
430.6106794746855
 21
-150.6925151273241
 31
0.0
  0
LINE
  5
67
330
2F
100
AcDbEntity
  8
A-DETL-GENF
100
AcDbLine
 10
430.6106794746855
 20
-150.6925151273241
 30
0.0
 11
432.0791351046294
 21
-151.4238748648936
 31
0.0
  0
LINE
  5
68
330
2F
100
AcDbEntity
  8
A-DETL-GENF
100
AcDbLine
 10
432.0791351046293
 20
-151.4238748648936
 30
0.0
 11
433.3898464774621
 21
-152.4104934912674
 31
0.0
  0
LINE
  5
69
330
2F
100
AcDbEntity
  8
A-DETL-GENF
100
AcDbLine
 10
433.3898464774621
 20
-152.4104934912674
 30
0.0
 11
434.4969243547161
 21
-153.6208221550046
 31
0.0
  0
LINE
  5
6A
330
2F
100
AcDbEntity
  8
A-DETL-GENF
100
AcDbLine
 10
434.4969243547161
 20
-153.6208221550047
 30
0.0
 11
435.363083730199
 21
-155.0147077725004
 31
0.0
  0
LINE
  5
6B
330
2F
100
AcDbEntity
  8
A-DETL-GENF
100
AcDbLine
 10
435.363083730199
 20
-155.0147077725003
 30
0.0
 11
435.9630049181644
 21
-156.5548900531435
 31
0.0
  0
ARC
  5
6C
330
2F
100
AcDbEntity
  8
A-DETL-GENF
100
AcDbCircle
 10
439.738146112975
 20
-156.2093718093402
 30
0.0
 40
3.790919927610779
100
AcDbArc
 50
185.2294033072022
 51
270.0037362751478
  0
LINE
  5
6D
330
2F
100
AcDbEntity
  8
A-DETL-GENF
100
AcDbLine
 10
439.7383933200098
 20
-160.0002916920086
 30
0.0
 11
461.8050967421395
 21
-159.9988527155885
 31
0.0
  0
ARC
  5
6E
330
2F
100
AcDbEntity
  8
A-DETL-GENF
100
AcDbCircle
 10
461.8071782634973
 20
-156.2014693022397
 30
0.0
 40
3.797383983837769
100
AcDbArc
 50
269.9685935378997
 51
27.04331587750754
  0
LINE
  5
6F
330
2F
100
AcDbEntity
  8
A-DETL-GENF
100
AcDbLine
 10
465.1903946459434
 20
-154.4744124090767
 30
0.0
 11
462.130276509816
 21
-148.4688947173657
 31
0.0
  0
ARC
  5
70
330
2F
100
AcDbEntity
  8
A-DETL-GENF
100
AcDbCircle
 10
464.1704835129253
 20
-147.4289332738567
 30
0.0
 40
2.289589653231065
100
AcDbArc
 50
91.57086434703896
 51
207.0094535294829
  0
LINE
  5
71
330
2F
100
AcDbEntity
  8
A-DETL-GENF
100
AcDbLine
 10
464.1077182583527
 20
-145.1402040843279
 30
0.0
 11
489.3338472753183
 21
-145.1402040843279
 31
0.0
  0
ARC
  5
72
330
2F
100
AcDbEntity
  8
A-DETL-GENF
100
AcDbCircle
 10
489.3360872456693
 20
-141.3429462393651
 30
0.0
 40
3.797258505632558
100
AcDbArc
 50
269.9662017072041
 51
345.4339786491118
  0
LINE
  5
73
330
2F
100
AcDbEntity
  8
A-DETL-GENF
100
AcDbLine
 10
493.0128735539025
 20
-142.2979393787118
 30
0.0
 11
529.153516899512
 21
-3.223718913186925
 31
0.0
  0
ARC
  5
74
330
2F
100
AcDbEntity
  8
A-DETL-GENF
100
AcDbCircle
 10
531.369817986296
 20
-3.799659924078913
 30
0.0
 40
2.289912346641786
100
AcDbArc
 50
90.38226406760037
 51
165.4329824844366
  0
LINE
  5
75
330
2F
100
AcDbEntity
  8
A-DETL-GENF
100
AcDbLine
 10
531.3545403389453
 20
-1.50979854207483
 30
0.0
 11
584.2516833863752
 21
-1.508895166737942
 31
0.0
  0
ARC
  5
76
330
2F
100
AcDbEntity
  8
A-DETL-GENF
100
AcDbCircle
 10
584.2517224847973
 20
-3.798303277602865
 30
0.0
 40
2.289408111198857
100
AcDbArc
 50
347.0929830210431
 51
90.00097849507733
  0
LINE
  5
77
330
2F
100
AcDbEntity
  8
A-DETL-GENF
100
AcDbLine
 10
586.4832860571197
 20
-4.309687206081397
 30
0.0
 11
581.6888480280088
 21
-23.53630349906314
 31
0.0
  0
ARC
  5
78
330
2F
100
AcDbEntity
  8
A-DETL-GENF
100
AcDbCircle
 10
585.3737178903402
 20
-24.45561041432345
 30
0.0
 40
3.797535341486163
100
AcDbArc
 50
165.9917194811262
 51
270.0611243822837
  0
LINE
  5
79
330
2F
100
AcDbEntity
  8
A-DETL-GENF
100
AcDbLine
 10
585.3777691827717
 20
-28.25400401800427
 30
0.0
 11
609.4025063519073
 21
-28.25400401800427
 31
0.0
  0
ARC
  5
7A
330
2F
100
AcDbEntity
  8
A-DETL-GENF
100
AcDbCircle
 10
609.3993281389304
 20
-24.45062324863215
 30
0.0
 40
3.803382097274487
100
AcDbArc
 50
270.0478779692659
 51
358.597697009557
  0
LINE
  5
7B
330
2F
100
AcDbEntity
  8
A-DETL-GENF
100
AcDbLine
 10
613.2015711496165
 20
-24.54370098795595
 30
0.0
 11
613.2007012541476
 21
-16.36668360894588
 31
0.0
  0
LINE
  5
7C
330
2F
100
AcDbEntity
  8
A-DETL-GENF
100
AcDbLine
 10
613.2007012541476
 20
-16.36668360894588
 30
0.0
 11
611.6920925405691
 21
-16.36668360894588
 31
0.0
  0
LINE
  5
7D
330
2F
100
AcDbEntity
  8
A-DETL-GENF
100
AcDbLine
 10
611.6920925405691
 20
-16.36668360894588
 30
0.0
 11
611.691232152471
 21
-24.45490534744794
 31
0.0
  0
ARC
  5
7E
330
2F
100
AcDbEntity
  8
A-DETL-GENF
100
AcDbCircle
 10
609.4019327348799
 20
-24.45466182222884
 30
0.0
 40
2.289299443496684
100
AcDbArc
 50
269.9999999999968
 51
359.9939051366098
  0
LINE
  5
7F
330
2F
100
AcDbEntity
  8
A-DETL-GENF
100
AcDbLine
 10
609.4019327348798
 20
-26.74396126572553
 30
0.0
 11
599.9999999999958
 21
-26.74396126572553
 31
0.0
  0
LINE
  5
80
330
2F
100
AcDbEntity
  8
A-DETL-GENF
100
AcDbLine
 10
584.2534517406262
 20
0.0011484425606616
 30
0.0
 11
531.3616770403415
 21
-5.59082262168e-05
 31
0.0
  0
SPLINE
  5
81
330
2F
100
AcDbEntity
  8
A-DETL-GENF
100
AcDbSpline
 70
8
 71
3
 72
10
 73
6
 74
0
 42
1e-09
 40
0.0
 40
0.0
 40
0.0
 40
0.0
 40
0.3333333333333333
 40
0.6666666666666666
 40
1.0
 40
1.0
 40
1.0
 40
1.0
 10
439.7671573628067
 20
-158.4882344460552
 30
0.0
 10
439.3491297736384
 20
-158.4564568279968
 30
0.0
 10
438.617663320578
 20
-158.2399903364166
 30
0.0
 10
437.8342298168182
 20
-157.4565568326565
 30
0.0
 10
437.5211182648645
 20
-156.6284453192233
 30
0.0
 10
437.4168568515261
 20
-156.137933934775
 30
0.0
  0
SPLINE
  5
82
330
2F
100
AcDbEntity
  8
A-DETL-GENF
100
AcDbSpline
 70
8
 71
3
 72
10
 73
6
 74
0
 42
1e-09
 40
0.1666666666666666
 40
0.1666666666666666
 40
0.1666666666666666
 40
0.1666666666666666
 40
0.3333333333333333
 40
0.6666666666666666
 40
1.0
 40
1.0
 40
1.0
 40
1.0
 10
439.1793367510329
 20
-158.3832262981688
 30
0.0
 10
438.9964701377678
 20
-158.3291096752738
 30
0.0
 10
438.4870910699515
 20
-158.1094180857899
 30
0.0
 10
437.8342298168182
 20
-157.4565568326565
 30
0.0
 10
437.5211182648645
 20
-156.6284453192233
 30
0.0
 10
437.4168568515261
 20
-156.137933934775
 30
0.0
  0
SPLINE
  5
83
330
2F
100
AcDbEntity
  8
A-DETL-GENF
100
AcDbSpline
 70
8
 71
3
 72
9
 73
5
 74
0
 42
1e-09
 40
0.3333333333333333
 40
0.3333333333333333
 40
0.3333333333333333
 40
0.3333333333333333
 40
0.6666666666666666
 40
1.0
 40
1.0
 40
1.0
 40
1.0
 10
438.6699576832165
 20
-158.1635347086849
 30
0.0
 10
438.3565188193248
 20
-157.9788458351632
 30
0.0
 10
437.8342298168182
 20
-157.4565568326565
 30
0.0
 10
437.5211182648645
 20
-156.6284453192233
 30
0.0
 10
437.4168568515261
 20
-156.137933934775
 30
0.0
  0
SPLINE
  5
84
330
2F
100
AcDbEntity
  8
A-DETL-GENF
100
AcDbSpline
 70
8
 71
3
 72
9
 73
5
 74
0
 42
1e-09
 40
0.5
 40
0.5
 40
0.5
 40
0.5
 40
0.6666666666666666
 40
1.0
 40
1.0
 40
1.0
 40
1.0
 10
438.2390201593577
 20
-157.8291596776036
 30
0.0
 10
438.108447908731
 20
-157.698587426977
 30
0.0
 10
437.7559519288298
 20
-157.2495289542982
 30
0.0
 10
437.5211182648645
 20
-156.6284453192233
 30
0.0
 10
437.4168568515261
 20
-156.137933934775
 30
0.0
  0
SPLINE
  5
85
330
2F
100
AcDbEntity
  8
A-DETL-GENF
100
AcDbSpline
 70
8
 71
3
 72
8
 73
4
 74
0
 42
1e-09
 40
0.6666666666666666
 40
0.6666666666666666
 40
0.6666666666666666
 40
0.6666666666666666
 40
1.0
 40
1.0
 40
1.0
 40
1.0
 10
437.8865241794564
 20
-157.3801012049249
 30
0.0
 10
437.6776740408413
 20
-157.0425010759399
 30
0.0
 10
437.5211182648645
 20
-156.6284453192233
 30
0.0
 10
437.4168568515261
 20
-156.137933934775
 30
0.0
  0
SPLINE
  5
86
330
2F
100
AcDbEntity
  8
A-DETL-GENF
100
AcDbSpline
 70
8
 71
3
 72
9
 73
5
 74
0
 42
1e-09
 40
0.3333333333333333
 40
0.3333333333333333
 40
0.3333333333333333
 40
0.3333333333333333
 40
0.6666666666666666
 40
1.0
 40
1.0
 40
1.0
 40
1.0
 10
416.9032128643237
 20
-157.3757829928246
 30
0.0
 10
416.6933863549456
 20
-157.7149613965368
 30
0.0
 10
416.1686556604423
 20
-158.23969209104
 30
0.0
 10
415.433769614445
 20
-158.4571705597008
 30
0.0
 10
415.0137877535729
 20
-158.4890967375707
 30
0.0
  0
SPLINE
  5
87
330
2F
100
AcDbEntity
  8
A-DETL-GENF
100
AcDbSpline
 70
8
 71
3
 72
9
 73
5
 74
0
 42
1e-09
 40
0.4645373963161581
 40
0.4645373963161581
 40
0.4645373963161581
 40
0.4645373963161581
 40
0.6666666666666666
 40
1.0
 40
1.0
 40
1.0
 40
1.0
 10
416.6310224353785
 20
-157.7405951861396
 30
0.0
 10
416.4787060863477
 20
-157.9096011043178
 30
0.0
 10
416.024025607846
 20
-158.2824931790893
 30
0.0
 10
415.433769614445
 20
-158.4571705597008
 30
0.0
 10
415.0137877535729
 20
-158.4890967375707
 30
0.0
  0
SPLINE
  5
88
330
2F
100
AcDbEntity
  8
A-DETL-GENF
100
AcDbSpline
 70
8
 71
3
 72
8
 73
4
 74
0
 42
1e-09
 40
0.6666666666666666
 40
0.6666666666666666
 40
0.6666666666666666
 40
0.6666666666666666
 40
1.0
 40
1.0
 40
1.0
 40
1.0
 10
416.1161168225688
 20
-158.1628790345794
 30
0.0
 10
415.8012126374437
 20
-158.3484313253704
 30
0.0
 10
415.433769614445
 20
-158.4571705597008
 30
0.0
 10
415.0137877535729
 20
-158.4890967375707
 30
0.0
  0
SPLINE
  5
89
330
2F
100
AcDbEntity
  8
A-DETL-GENF
100
AcDbSpline
 70
8
 71
3
 72
8
 73
4
 74
0
 42
1e-09
 40
0.8091236358517337
 40
0.8091236358517337
 40
0.8091236358517337
 40
0.8091236358517337
 40
1.0
 40
1.0
 40
1.0
 40
1.0
 10
415.6835861515766
 20
-158.3586892195349
 30
0.0
 10
415.4775477180753
 20
-158.4273457066333
 30
0.0
 10
415.2542815854074
 20
-158.4708148793119
 30
0.0
 10
415.0137877535729
 20
-158.4890967375707
 30
0.0
  0
SPLINE
  5
8A
330
2F
100
AcDbEntity
  8
A-DETL-GENF
100
AcDbSpline
 70
8
 71
3
 72
10
 73
6
 74
0
 42
1e-09
 40
0.0
 40
0.0
 40
0.0
 40
0.0
 40
0.3333333333333333
 40
0.6666666666666666
 40
1.0
 40
1.0
 40
1.0
 40
1.0
 10
417.3750758788375
 20
-156.1278086123064
 30
0.0
 10
417.2703270452063
 20
-156.6206131289397
 30
0.0
 10
416.9557517021972
 20
-157.4525960492852
 30
0.0
 10
416.1686556604423
 20
-158.23969209104
 30
0.0
 10
415.433769614445
 20
-158.4571705597008
 30
0.0
 10
415.0137877535729
 20
-158.4890967375707
 30
0.0
  0
LINE
  5
8B
330
2F
100
AcDbEntity
  8
A-DETL-GENF
100
AcDbLine
 10
323.413194981751
 20
0.0011472406476118
 30
0.0
 11
268.9804642791618
 21
8.69319987e-08
 31
0.0
  0
SPLINE
  5
8C
330
2F
100
AcDbEntity
  8
A-DETL-GENF
100
AcDbSpline
 70
8
 71
3
 72
10
 73
6
 74
0
 42
1e-09
 40
0.0
 40
0.0
 40
0.0
 40
0.0
 40
0.3333333333333333
 40
0.6666666666666666
 40
1.0
 40
1.0
 40
1.0
 40
1.0
 10
177.3681051243435
 20
-158.4882340724682
 30
0.0
 10
176.9528592378805
 20
-158.4566679138645
 30
0.0
 10
176.2262602200427
 20
-158.2416418665058
 30
0.0
 10
175.4480399585505
 20
-157.4634216050135
 30
0.0
 10
175.1370119610656
 20
-156.640820637049
 30
0.0
 10
175.0334443398671
 20
-156.1535732879913
 30
0.0
  0
SPLINE
  5
8D
330
2F
100
AcDbEntity
  8
A-DETL-GENF
100
AcDbSpline
 70
8
 71
3
 72
10
 73
6
 74
0
 42
1e-09
 40
0.1666666666666666
 40
0.1666666666666666
 40
0.1666666666666666
 40
0.1666666666666666
 40
0.3333333333333333
 40
0.6666666666666666
 40
1.0
 40
1.0
 40
1.0
 40
1.0
 10
176.7841960778071
 20
-158.3839246857559
 30
0.0
 10
176.6025463233476
 20
-158.3301681739162
 30
0.0
 10
176.0965568431273
 20
-158.1119384895904
 30
0.0
 10
175.4480399585505
 20
-157.4634216050135
 30
0.0
 10
175.1370119610656
 20
-156.640820637049
 30
0.0
 10
175.0334443398671
 20
-156.1535732879913
 30
0.0
  0
SPLINE
  5
8E
330
2F
100
AcDbEntity
  8
A-DETL-GENF
100
AcDbSpline
 70
8
 71
3
 72
9
 73
5
 74
0
 42
1e-09
 40
0.3333333333333333
 40
0.3333333333333333
 40
0.3333333333333333
 40
0.3333333333333333
 40
0.6666666666666666
 40
1.0
 40
1.0
 40
1.0
 40
1.0
 10
176.2782065975868
 20
-158.1656950014301
 30
0.0
 10
175.9668534662119
 20
-157.9822351126751
 30
0.0
 10
175.4480399585505
 20
-157.4634216050135
 30
0.0
 10
175.1370119610656
 20
-156.640820637049
 30
0.0
 10
175.0334443398671
 20
-156.1535732879913
 30
0.0
  0
SPLINE
  5
8F
330
2F
100
AcDbEntity
  8
A-DETL-GENF
100
AcDbSpline
 70
8
 71
3
 72
9
 73
5
 74
0
 42
1e-09
 40
0.5
 40
0.5
 40
0.5
 40
0.5
 40
0.6666666666666666
 40
1.0
 40
1.0
 40
1.0
 40
1.0
 10
175.8501366836826
 20
-157.8335450194908
 30
0.0
 10
175.7204333067673
 20
-157.7038416425754
 30
0.0
 10
175.3702829591793
 20
-157.2577713630224
 30
0.0
 10
175.1370119610656
 20
-156.640820637049
 30
0.0
 10
175.0334443398671
 20
-156.1535732879913
 30
0.0
  0
SPLINE
  5
90
330
2F
100
AcDbEntity
  8
A-DETL-GENF
100
AcDbSpline
 70
8
 71
3
 72
8
 73
4
 74
0
 42
1e-09
 40
0.6666666666666666
 40
0.6666666666666666
 40
0.6666666666666666
 40
0.6666666666666666
 40
1.0
 40
1.0
 40
1.0
 40
1.0
 10
175.4999863360947
 20
-157.3874747399378
 30
0.0
 10
175.2925259598081
 20
-157.0521211210313
 30
0.0
 10
175.1370119610656
 20
-156.640820637049
 30
0.0
 10
175.0334443398671
 20
-156.1535732879913
 30
0.0
  0
SPLINE
  5
91
330
2F
100
AcDbEntity
  8
A-DETL-GENF
100
AcDbSpline
 70
8
 71
3
 72
9
 73
5
 74
0
 42
1e-09
 40
0.3333333333333333
 40
0.3333333333333333
 40
0.3333333333333333
 40
0.3333333333333333
 40
0.6666666666666666
 40
1.0
 40
1.0
 40
1.0
 40
1.0
 10
154.5137100276137
 20
-157.3757829928254
 30
0.0
 10
154.3038835182355
 20
-157.7149613965376
 30
0.0
 10
153.7791528237321
 20
-158.2396920910408
 30
0.0
 10
153.0442667777347
 20
-158.4571705597016
 30
0.0
 10
152.6242849168624
 20
-158.4890967375715
 30
0.0
  0
SPLINE
  5
92
330
2F
100
AcDbEntity
  8
A-DETL-GENF
100
AcDbSpline
 70
8
 71
3
 72
9
 73
5
 74
0
 42
1e-09
 40
0.4645373963158919
 40
0.4645373963158919
 40
0.4645373963158919
 40
0.4645373963158919
 40
0.6666666666666666
 40
1.0
 40
1.0
 40
1.0
 40
1.0
 10
154.241519598669
 20
-157.7405951861398
 30
0.0
 10
154.089203249638
 20
-157.9096011043183
 30
0.0
 10
153.6345227711361
 20
-158.2824931790901
 30
0.0
 10
153.0442667777347
 20
-158.4571705597016
 30
0.0
 10
152.6242849168624
 20
-158.4890967375715
 30
0.0
  0
SPLINE
  5
93
330
2F
100
AcDbEntity
  8
A-DETL-GENF
100
AcDbSpline
 70
8
 71
3
 72
8
 73
4
 74
0
 42
1e-09
 40
0.6666666666666666
 40
0.6666666666666666
 40
0.6666666666666666
 40
0.6666666666666666
 40
1.0
 40
1.0
 40
1.0
 40
1.0
 10
153.7266139858586
 20
-158.1628790345803
 30
0.0
 10
153.4117098007334
 20
-158.3484313253713
 30
0.0
 10
153.0442667777347
 20
-158.4571705597016
 30
0.0
 10
152.6242849168624
 20
-158.4890967375715
 30
0.0
  0
SPLINE
  5
94
330
2F
100
AcDbEntity
  8
A-DETL-GENF
100
AcDbSpline
 70
8
 71
3
 72
8
 73
4
 74
0
 42
1e-09
 40
0.8091236358495271
 40
0.8091236358495271
 40
0.8091236358495271
 40
0.8091236358495271
 40
1.0
 40
1.0
 40
1.0
 40
1.0
 10
153.2940833148735
 20
-158.3586892195333
 30
0.0
 10
153.0880448813701
 20
-158.4273457066331
 30
0.0
 10
152.8647787486997
 20
-158.4708148793124
 30
0.0
 10
152.6242849168624
 20
-158.4890967375715
 30
0.0
  0
SPLINE
  5
95
330
2F
100
AcDbEntity
  8
A-DETL-GENF
100
AcDbSpline
 70
8
 71
3
 72
10
 73
6
 74
0
 42
1e-09
 40
0.0
 40
0.0
 40
0.0
 40
0.0
 40
0.3333333333333333
 40
0.6666666666666666
 40
1.0
 40
1.0
 40
1.0
 40
1.0
 10
154.9855730421276
 20
-156.1278086123072
 30
0.0
 10
154.8808242084964
 20
-156.6206131289405
 30
0.0
 10
154.5662488654872
 20
-157.452596049286
 30
0.0
 10
153.7791528237321
 20
-158.2396920910408
 30
0.0
 10
153.0442667777347
 20
-158.4571705597016
 30
0.0
 10
152.6242849168624
 20
-158.4890967375715
 30
0.0
  0
LINE
  5
96
330
2F
100
AcDbEntity
  8
A-DETL-GENF
100
AcDbLine
 10
61.02792953451154
 20
0.0011477692483388
 30
0.0
 11
8.456044405194053
 21
0.0011477692483388
 31
0.0
  0
LINE
  5
97
330
2F
100
AcDbEntity
  8
A-DETL-GENF
100
AcDbLine
 10
1.2785e-12
 20
-24.76298020399958
 30
0.0
 11
-6.115469958526509
 21
-24.76298020399958
 31
0.0
  0
ARC
  5
98
330
2F
100
AcDbEntity
  8
A-DETL-GENF
100
AcDbCircle
 10
-6.204227453552333
 20
-22.47506726446272
 30
0.0
 40
2.289633925286636
100
AcDbArc
 50
167.9513328959434
 51
272.2216234366496
  0
LINE
  5
99
330
2F
100
AcDbEntity
  8
A-DETL-GENF
100
AcDbLine
 10
-8.443970843935478
 20
-21.99700635728229
 30
0.0
 11
-7.153336012930937
 21
-15.92815457414438
 31
0.0
  0
LINE
  5
9A
330
2F
100
AcDbEntity
  8
A-DETL-GENF
100
AcDbLine
 10
-7.153336012930937
 20
-15.92815457414438
 30
0.0
 11
-8.629822259602912
 21
-15.61467371407941
 31
0.0
  0
LINE
  5
9B
330
2F
100
AcDbEntity
  8
A-DETL-GENF
100
AcDbLine
 10
-8.629822259602912
 20
-15.6146737140794
 30
0.0
 11
-9.920432270473029
 21
-21.68340878742967
 31
0.0
  0
ARC
  5
9C
330
2F
100
AcDbEntity
  8
A-DETL-GENF
100
AcDbCircle
 10
-6.204706851784815
 20
-22.47409082096888
 30
0.0
 40
3.798358971155474
100
AcDbArc
 50
167.9870135623079
 51
270.0279309643993
  0
LINE
  5
9D
330
2F
100
AcDbEntity
  8
A-DETL-GENF
100
AcDbLine
 10
-6.202855200129146
 20
-26.27244934079603
 30
0.0
 11
6.202855200129945
 21
-26.27244934079603
 31
0.0
  0
ARC
  5
9E
330
2F
100
AcDbEntity
  8
A-DETL-GENF
100
AcDbCircle
 10
6.202855200129941
 20
-22.47339187162982
 30
0.0
 40
3.799057597844749
100
AcDbArc
 50
269.9999999999997
 51
13.20408602083007
  0
LINE
  5
9F
330
2F
100
AcDbEntity
  8
A-DETL-GENF
100
AcDbLine
 10
9.901475652151648
 20
-21.60560999602474
 30
0.0
 11
6.228644574810188
 21
-4.323373841393096
 31
0.0
  0
ARC
  5
A0
330
2F
100
AcDbEntity
  8
A-DETL-GENF
100
AcDbCircle
 10
8.456249181226537
 20
-3.79815355818577
 30
0.0
 40
2.288684912437646
100
AcDbArc
 50
89.98031563226094
 51
193.2667901296765
  0
ARC
  5
A1
330
2F
100
AcDbEntity
  8
A-DETL-GENF
100
AcDbCircle
 10
103.0692478750516
 20
-141.3320318250403
 30
0.0
 40
2.300136672916178
100
AcDbArc
 50
194.6904221158735
 51
270.0039182406108
  0
LINE
  5
A2
330
2F
100
AcDbEntity
  8
A-DETL-GENF
100
AcDbLine
 10
103.0694051726569
 20
-143.6321684925778
 30
0.0
 11
128.2268204132857
 21
-143.6304480725564
 31
0.0
  0
ARC
  5
A3
330
2F
100
AcDbEntity
  8
A-DETL-GENF
100
AcDbCircle
 10
128.2288394180028
 20
-147.4278315197318
 30
0.0
 40
3.797383983910655
100
AcDbArc
 50
332.9566841239917
 51
90.03046319650085
  0
LINE
  5
A4
330
2F
100
AcDbEntity
  8
A-DETL-GENF
100
AcDbLine
 10
131.611600420873
 20
-149.15465637362
 30
0.0
 11
128.5513640489086
 21
-155.1604061045309
 31
0.0
  0
ARC
  5
A5
330
2F
100
AcDbEntity
  8
A-DETL-GENF
100
AcDbCircle
 10
130.5912842442555
 20
-156.2003675480126
 30
0.0
 40
2.289589653185049
100
AcDbArc
 50
152.9872872074349
 51
268.4291357224126
  0
LINE
  5
A6
330
2F
100
AcDbEntity
  8
A-DETL-GENF
100
AcDbLine
 10
130.5285189924586
 20
-158.4890967375715
 30
0.0
 11
152.733004136078
 21
-158.4890967375715
 31
0.0
  0
ARC
  5
A7
330
2F
100
AcDbEntity
  8
A-DETL-GENF
100
AcDbCircle
 10
152.3984556602836
 20
-155.9383906836082
 30
0.0
 40
2.572552051248212
100
AcDbArc
 50
277.4722139123589
 51
354.1861008649062
  0
LINE
  5
A8
330
2F
100
AcDbEntity
  8
A-DETL-GENF
100
AcDbLine
 10
154.9577749275982
 20
-156.19898413006
 30
0.0
 11
155.6830894663539
 21
-154.3418568139327
 31
0.0
  0
LINE
  5
A9
330
2F
100
AcDbEntity
  8
A-DETL-GENF
100
AcDbLine
 10
155.6830894663539
 20
-154.3418568139327
 30
0.0
 11
156.6955207893426
 21
-152.7099207720565
 31
0.0
  0
LINE
  5
AA
330
2F
100
AcDbEntity
  8
A-DETL-GENF
100
AcDbLine
 10
156.6955207893426
 20
-152.7099207720565
 30
0.0
 11
157.9918917751511
 21
-151.2930905353521
 31
0.0
  0
LINE
  5
AB
330
2F
100
AcDbEntity
  8
A-DETL-GENF
100
AcDbLine
 10
157.9918917751511
 20
-151.2930905353522
 30
0.0
 11
159.5234451079485
 21
-150.1401234196526
 31
0.0
  0
LINE
  5
AC
330
2F
100
AcDbEntity
  8
A-DETL-GENF
100
AcDbLine
 10
159.5234451079485
 20
-150.1401234196526
 30
0.0
 11
161.2414234718905
 21
-149.2854363537854
 31
0.0
  0
LINE
  5
AD
330
2F
100
AcDbEntity
  8
A-DETL-GENF
100
AcDbLine
 10
161.2414234718905
 20
-149.2854363537854
 30
0.0
 11
163.0884653189316
 21
-148.7605781891744
 31
0.0
  0
LINE
  5
AE
330
2F
100
AcDbEntity
  8
A-DETL-GENF
100
AcDbLine
 10
163.0884653189316
 20
-148.7605781891744
 30
0.0
 11
165.0014008672372
 21
-148.5824971020957
 31
0.0
  0
LINE
  5
AF
330
2F
100
AcDbEntity
  8
A-DETL-GENF
100
AcDbLine
 10
165.0014008672372
 20
-148.5824971020957
 30
0.0
 11
166.9216507670234
 21
-148.7611518046569
 31
0.0
  0
LINE
  5
B0
330
2F
100
AcDbEntity
  8
A-DETL-GENF
100
AcDbLine
 10
166.9216507670234
 20
-148.7611518046569
 30
0.0
 11
168.7686926140653
 21
-149.2831418918625
 31
0.0
  0
LINE
  5
B1
330
2F
100
AcDbEntity
  8
A-DETL-GENF
100
AcDbLine
 10
168.7686926140653
 20
-149.2831418918625
 30
0.0
 11
170.4866709780051
 21
-150.1378289577285
 31
0.0
  0
LINE
  5
B2
330
2F
100
AcDbEntity
  8
A-DETL-GENF
100
AcDbLine
 10
170.4866709780051
 20
-150.1378289577285
 30
0.0
 11
172.0210923882033
 21
-151.2936641508345
 31
0.0
  0
LINE
  5
B3
330
2F
100
AcDbEntity
  8
A-DETL-GENF
100
AcDbLine
 10
172.0210923882033
 20
-151.2936641508345
 30
0.0
 11
173.3145952966142
 21
-152.7104943875412
 31
0.0
  0
LINE
  5
B4
330
2F
100
AcDbEntity
  8
A-DETL-GENF
100
AcDbLine
 10
173.3145952966143
 20
-152.7104943875413
 30
0.0
 11
174.3270266196035
 21
-154.3395623520076
 31
0.0
  0
LINE
  5
B5
330
2F
100
AcDbEntity
  8
A-DETL-GENF
100
AcDbLine
 10
174.3270266196035
 20
-154.3395623520077
 30
0.0
 11
175.0609572639731
 21
-156.2242237597719
 31
0.0
  0
ARC
  5
B6
330
2F
100
AcDbEntity
  8
A-DETL-GENF
100
AcDbCircle
 10
177.5913877909867
 20
-155.9662913526459
 30
0.0
 40
2.543542368172418
100
AcDbArc
 50
185.820184103275
 51
262.5270574780265
  0
LINE
  5
B7
330
2F
100
AcDbEntity
  8
A-DETL-GENF
100
AcDbLine
 10
177.2605798194736
 20
-158.4882298659074
 30
0.0
 11
199.4187057894409
 21
-158.4890967270244
 31
0.0
  0
ARC
  5
B8
330
2F
100
AcDbEntity
  8
A-DETL-GENF
100
AcDbCircle
 10
199.4172939511896
 20
-156.1989165997883
 30
0.0
 40
2.290180562417312
100
AcDbArc
 50
270.0353213976553
 51
26.99824534518028
  0
LINE
  5
B9
330
2F
100
AcDbEntity
  8
A-DETL-GENF
100
AcDbLine
 10
201.4582266244997
 20
-155.1590881685122
 30
0.0
 11
198.3849516108044
 21
-149.1277499504432
 31
0.0
  0
ARC
  5
BA
330
2F
100
AcDbEntity
  8
A-DETL-GENF
100
AcDbCircle
 10
201.7848571989391
 20
-147.4306634431364
 30
0.0
 40
3.799929028483671
100
AcDbArc
 50
90.03034343953345
 51
206.5263956311486
  0
LINE
  5
BB
330
2F
100
AcDbEntity
  8
A-DETL-GENF
100
AcDbLine
 10
201.7828447834994
 20
-143.6304481397903
 30
0.0
 11
226.9485031417064
 21
-143.6304481397903
 31
0.0
  0
ARC
  5
BC
330
2F
100
AcDbEntity
  8
A-DETL-GENF
100
AcDbCircle
 10
226.9485031417064
 20
-141.3392344660674
 30
0.0
 40
2.291213673722921
100
AcDbArc
 50
269.9999999999997
 51
345.3056596399319
  0
LINE
  5
BD
330
2F
100
AcDbEntity
  8
A-DETL-GENF
100
AcDbLine
 10
229.1647776638712
 20
-141.9204292191906
 30
0.0
 11
265.3027286263677
 21
-2.841117387725737
 31
0.0
  0
ARC
  5
BE
330
2F
100
AcDbEntity
  8
A-DETL-GENF
100
AcDbCircle
 10
268.9764193349046
 20
-3.79567815545061
 30
0.0
 40
3.79568039767187
100
AcDbArc
 50
90.00120749162328
 51
165.4345320778213
  0
ARC
  5
BF
330
2F
100
AcDbEntity
  8
A-DETL-GENF
100
AcDbCircle
 10
61.02792953451139
 20
-3.80012163537731
 30
0.0
 40
3.801269404625649
100
AcDbArc
 50
14.56602135088679
 51
89.99999999999957
  0
LINE
  5
C0
330
2F
100
AcDbEntity
  8
A-DETL-GENF
100
AcDbLine
 10
64.7070203904445
 20
-2.844119773280048
 30
0.0
 11
100.8443023045657
 21
-141.9153378531843
 31
0.0
  0
ARC
  5
C1
330
2F
100
AcDbEntity
  8
A-DETL-GENF
100
AcDbCircle
 10
365.4587507117605
 20
-141.3320318250396
 30
0.0
 40
2.300136672916111
100
AcDbArc
 50
194.690422121643
 51
270.0039182406118
  0
LINE
  5
C2
330
2F
100
AcDbEntity
  8
A-DETL-GENF
100
AcDbLine
 10
365.4589080093659
 20
-143.632168492577
 30
0.0
 11
390.6163232499935
 21
-143.6304480725556
 31
0.0
  0
ARC
  5
C3
330
2F
100
AcDbEntity
  8
A-DETL-GENF
100
AcDbCircle
 10
390.6183422547128
 20
-147.427831519731
 30
0.0
 40
3.797383983910657
100
AcDbArc
 50
332.9566841239917
 51
90.03046319653645
  0
LINE
  5
C4
330
2F
100
AcDbEntity
  8
A-DETL-GENF
100
AcDbLine
 10
394.0011032575825
 20
-149.1546563736189
 30
0.0
 11
390.9408668856181
 21
-155.16040610453
 31
0.0
  0
ARC
  5
C5
330
2F
100
AcDbEntity
  8
A-DETL-GENF
100
AcDbCircle
 10
392.9807870809644
 20
-156.2003675480117
 30
0.0
 40
2.289589653185012
100
AcDbArc
 50
152.9872872074343
 51
268.4291357224631
  0
LINE
  5
C6
330
2F
100
AcDbEntity
  8
A-DETL-GENF
100
AcDbLine
 10
392.9180218291695
 20
-158.4890967375707
 30
0.0
 11
415.1225069727884
 21
-158.4890967375707
 31
0.0
  0
ARC
  5
C7
330
2F
100
AcDbEntity
  8
A-DETL-GENF
100
AcDbCircle
 10
414.7879584969938
 20
-155.9383906836077
 30
0.0
 40
2.572552051247921
100
AcDbArc
 50
277.4722139123629
 51
354.1861008649583
  0
LINE
  5
C8
330
2F
100
AcDbEntity
  8
A-DETL-GENF
100
AcDbLine
 10
417.3472777643084
 20
-156.198984130057
 30
0.0
 11
418.0725923030625
 21
-154.3418568139339
 31
0.0
  0
LINE
  5
C9
330
2F
100
AcDbEntity
  8
A-DETL-GENF
100
AcDbLine
 10
418.0725923030625
 20
-154.3418568139338
 30
0.0
 11
419.0850236260525
 21
-152.7099207720555
 31
0.0
  0
LINE
  5
CA
330
2F
100
AcDbEntity
  8
A-DETL-GENF
100
AcDbLine
 10
419.0850236260525
 20
-152.7099207720554
 30
0.0
 11
420.3813946118608
 21
-151.2930905353515
 31
0.0
  0
LINE
  5
CB
330
2F
100
AcDbEntity
  8
A-DETL-GENF
100
AcDbLine
 10
420.3813946118608
 20
-151.2930905353515
 30
0.0
 11
421.9129479446597
 21
-150.1401234196507
 31
0.0
  0
LINE
  5
CC
330
2F
100
AcDbEntity
  8
A-DETL-GENF
100
AcDbLine
 10
421.9129479446597
 20
-150.1401234196507
 30
0.0
 11
423.6309263085995
 21
-149.2854363537847
 31
0.0
  0
LINE
  5
CD
330
2F
100
AcDbEntity
  8
A-DETL-GENF
100
AcDbLine
 10
423.6309263085995
 20
-149.2854363537847
 30
0.0
 11
425.4779681556412
 21
-148.7605781891736
 31
0.0
  0
LINE
  5
CE
330
2F
100
AcDbEntity
  8
A-DETL-GENF
100
AcDbLine
 10
425.4779681556411
 20
-148.7605781891736
 30
0.0
 11
427.3909037039464
 21
-148.5824971020948
 31
0.0
  0
LINE
  5
CF
330
2F
100
AcDbEntity
  8
A-DETL-GENF
100
AcDbLine
 10
427.3909037039464
 20
-148.5824971020948
 30
0.0
 11
429.3111536037327
 21
-148.761151804656
 31
0.0
  0
LINE
  5
D0
330
2F
100
AcDbEntity
  8
A-DETL-GENF
100
AcDbLine
 10
429.3111536037327
 20
-148.761151804656
 30
0.0
 11
431.1581954507763
 21
-149.2831418918621
 31
0.0
  0
LINE
  5
D1
330
2F
100
AcDbEntity
  8
A-DETL-GENF
100
AcDbLine
 10
431.1581954507763
 20
-149.2831418918621
 30
0.0
 11
432.8761738147131
 21
-150.1378289577266
 31
0.0
  0
LINE
  5
D2
330
2F
100
AcDbEntity
  8
A-DETL-GENF
100
AcDbLine
 10
432.8761738147131
 20
-150.1378289577266
 30
0.0
 11
434.4105952249143
 21
-151.2936641508349
 31
0.0
  0
LINE
  5
D3
330
2F
100
AcDbEntity
  8
A-DETL-GENF
100
AcDbLine
 10
434.4105952249143
 20
-151.2936641508349
 30
0.0
 11
435.7040981333225
 21
-152.7104943875386
 31
0.0
  0
LINE
  5
D4
330
2F
100
AcDbEntity
  8
A-DETL-GENF
100
AcDbLine
 10
435.7040981333225
 20
-152.7104943875386
 30
0.0
 11
436.7165294563143
 21
-154.3395623520091
 31
0.0
  0
LINE
  5
D5
330
2F
100
AcDbEntity
  8
A-DETL-GENF
100
AcDbLine
 10
436.7165294563143
 20
-154.3395623520092
 30
0.0
 11
437.4445540827567
 21
-156.2090576890465
 31
0.0
  0
ARC
  5
D6
330
2F
100
AcDbEntity
  8
A-DETL-GENF
100
AcDbCircle
 10
439.991935784178
 20
-155.949397411043
 30
0.0
 40
2.560581377872871
100
AcDbArc
 50
185.8201841032432
 51
262.5270574780017
  0
LINE
  5
D7
330
2F
100
AcDbEntity
  8
A-DETL-GENF
100
AcDbLine
 10
439.6589117535541
 20
-158.4882302113148
 30
0.0
 11
461.8082086262216
 21
-158.4890967270235
 31
0.0
  0
ARC
  5
D8
330
2F
100
AcDbEntity
  8
A-DETL-GENF
100
AcDbCircle
 10
461.8067967878984
 20
-156.1989165997875
 30
0.0
 40
2.290180562417269
100
AcDbArc
 50
270.0353213993903
 51
26.99824534518308
  0
LINE
  5
D9
330
2F
100
AcDbEntity
  8
A-DETL-GENF
100
AcDbLine
 10
463.8477294612097
 20
-155.1590881685114
 30
0.0
 11
460.7744544474634
 21
-149.1277499503423
 31
0.0
  0
ARC
  5
DA
330
2F
100
AcDbEntity
  8
A-DETL-GENF
100
AcDbCircle
 10
464.174360035648
 20
-147.4306634431355
 30
0.0
 40
3.799929028483659
100
AcDbArc
 50
90.03034343953387
 51
206.5263956294321
  0
LINE
  5
DB
330
2F
100
AcDbEntity
  8
A-DETL-GENF
100
AcDbLine
 10
464.1723476202092
 20
-143.6304481397895
 30
0.0
 11
489.3380059784154
 21
-143.6304481397895
 31
0.0
  0
ARC
  5
DC
330
2F
100
AcDbEntity
  8
A-DETL-GENF
100
AcDbCircle
 10
489.3380059784152
 20
-141.3392344660665
 30
0.0
 40
2.291213673722904
100
AcDbArc
 50
270.0000000000017
 51
342.7556544284245
  0
LINE
  5
DD
330
2F
100
AcDbEntity
  8
A-DETL-GENF
100
AcDbLine
 10
491.526227776031
 20
-142.018458628692
 30
0.0
 11
527.713609366331
 21
-2.747804375252796
 31
0.0
  0
ARC
  5
DE
330
2F
100
AcDbEntity
  8
A-DETL-GENF
100
AcDbCircle
 10
531.3617634683485
 20
-3.795736304914086
 30
0.0
 40
3.795680397671878
100
AcDbArc
 50
90.00130463040063
 51
163.9732928209288
  0
ARC
  5
DF
330
2F
100
AcDbEntity
  8
A-DETL-GENF
100
AcDbCircle
 10
323.4132750923787
 20
-3.800122086734248
 30
0.0
 40
3.801269404625685
100
AcDbArc
 50
14.61279055100733
 51
90.00120749162328
  0
LINE
  5
E0
330
2F
100
AcDbEntity
  8
A-DETL-GENF
100
AcDbLine
 10
327.093062009705
 20
-2.840733397430778
 30
0.0
 11
363.2338051413358
 21
-141.9153378534172
 31
0.0
  0
LINE
  5
E1
330
2F
100
AcDbEntity
  8
A-DETL-GENF
100
AcDbLine
 10
587.9369716103262
 20
-4.717058797516342
 30
0.0
 11
583.153001541857
 21
-23.90169656010641
 31
0.0
  0
ARC
  5
E2
330
2F
100
AcDbEntity
  8
A-DETL-GENF
100
AcDbCircle
 10
585.3734594190665
 20
-24.45523742752197
 30
0.0
 40
2.287579207599323
100
AcDbArc
 50
166.0019789698461
 51
270.0863938289177
  0
LINE
  5
E3
330
2F
100
AcDbEntity
  8
A-DETL-GENF
100
AcDbLine
 10
585.37690875955
 20
-26.74396126572553
 30
0.0
 11
600.0000000000005
 21
-26.74396126572553
 31
0.0
  0
ARC
  5
E4
330
2F
100
AcDbEntity
  8
A-DETL-GENF
100
AcDbCircle
 10
584.2535381799303
 20
-3.79502808675258
 30
0.0
 40
3.796176530297297
100
AcDbArc
 50
345.9465823251176
 51
90.00000000000142
  0
LINE
  5
E5
330
2F
100
AcDbEntity
  8
A-DETL-GENF
100
AcDbLine
 10
8.427957325034914
 20
-21.9344057356805
 30
0.0
 11
4.754783282505273
 21
-4.650555783640129
 31
0.0
  0
ARC
  5
E6
330
2F
100
AcDbEntity
  8
A-DETL-GENF
100
AcDbCircle
 10
8.456044405193923
 20
-3.797211201879448
 30
0.0
 40
3.798358971127756
100
AcDbArc
 50
90.0
 51
192.9829671046584
  0
LINE
  5
E7
330
2F
100
AcDbEntity
  8
A-DETL-GENF
100
AcDbLine
 10
4.061e-13
 20
-24.76298020399962
 30
0.0
 11
6.202988981437584
 21
-24.76298020399962
 31
0.0
  0
ARC
  5
E8
330
2F
100
AcDbEntity
  8
A-DETL-GENF
100
AcDbCircle
 10
6.2029889814376
 20
-22.47360855447582
 30
0.0
 40
2.289371924744215
100
AcDbArc
 50
269.9999999999996
 51
13.62253301397457
  0
ENDBLK
  5
31
330
2F
100
AcDbEntity
  8
0
100
AcDbBlockEnd
  0
ENDSEC
  0
SECTION
  2
ENTITIES
  0
INSERT
  5
EA
330
17
100
AcDbEntity
  8
0
100
AcDbBlockReference
  2
23 HODY-plaat - HODY146-4404981-00_0 Basismaterialen
 10
0.0
 20
0.0
 30
0.0
  0
ENDSEC
  0
SECTION
  2
OBJECTS
  0
DICTIONARY
  5
A
330
0
100
AcDbDictionary
281
1
  3
ACAD_COLOR
350
B
  3
ACAD_GROUP
350
C
  3
ACAD_LAYOUT
350
D
  3
ACAD_MATERIAL
350
E
  3
ACAD_MLEADERSTYLE
350
F
  3
ACAD_MLINESTYLE
350
10
  3
ACAD_PLOTSETTINGS
350
11
  3
ACAD_PLOTSTYLENAME
350
12
  3
ACAD_SCALELIST
350
14
  3
ACAD_TABLESTYLE
350
15
  3
ACAD_VISUALSTYLE
350
16
  3
EZDXF_META
350
2D
  0
DICTIONARY
  5
B
330
A
100
AcDbDictionary
281
1
  0
DICTIONARY
  5
C
330
A
100
AcDbDictionary
281
1
  0
DICTIONARY
  5
D
330
A
100
AcDbDictionary
281
1
  3
Model
350
1A
  3
Layout1
350
1E
  0
DICTIONARY
  5
E
330
A
100
AcDbDictionary
281
1
  3
ByBlock
350
1F
  3
ByLayer
350
20
  3
Global
350
21
  0
DICTIONARY
  5
F
330
A
100
AcDbDictionary
281
1
  3
Standard
350
2C
  0
DICTIONARY
  5
10
330
A
100
AcDbDictionary
281
1
  3
Standard
350
22
  0
DICTIONARY
  5
11
330
A
100
AcDbDictionary
281
1
  0
ACDBDICTIONARYWDFLT
  5
12
330
A
100
AcDbDictionary
281
1
  3
Normal
350
13
100
AcDbDictionaryWithDefault
340
13
  0
ACDBPLACEHOLDER
  5
13
330
12
  0
DICTIONARY
  5
14
330
A
100
AcDbDictionary
281
1
  0
DICTIONARY
  5
15
330
A
100
AcDbDictionary
281
1
  0
DICTIONARY
  5
16
330
A
100
AcDbDictionary
281
1
  0
LAYOUT
  5
1A
330
D
100
AcDbPlotSettings
  1

  4
A3
  6

 40
7.5
 41
20.0
 42
7.5
 43
20.0
 44
420.0
 45
297.0
 46
0.0
 47
0.0
 48
0.0
 49
0.0
140
0.0
141
0.0
142
1.0
143
1.0
 70
1024
 72
1
 73
0
 74
5
  7

 75
16
 76
0
 77
2
 78
300
147
1.0
148
0.0
149
0.0
100
AcDbLayout
  1
Model
 70
1
 71
0
 10
0.0
 20
0.0
 11
420.0
 21
297.0
 12
0.0
 22
0.0
 32
0.0
 14
1e+20
 24
1e+20
 34
1e+20
 15
-1e+20
 25
-1e+20
 35
-1e+20
146
0.0
 13
0.0
 23
0.0
 33
0.0
 16
1.0
 26
0.0
 36
0.0
 17
0.0
 27
1.0
 37
0.0
 76
1
330
17
  0
LAYOUT
  5
1E
330
D
100
AcDbPlotSettings
  1

  4
A3
  6

 40
7.5
 41
20.0
 42
7.5
 43
20.0
 44
420.0
 45
297.0
 46
0.0
 47
0.0
 48
0.0
 49
0.0
140
0.0
141
0.0
142
1.0
143
1.0
 70
0
 72
1
 73
0
 74
5
  7

 75
16
 76
0
 77
2
 78
300
147
1.0
148
0.0
149
0.0
100
AcDbLayout
  1
Layout1
 70
1
 71
1
 10
0.0
 20
0.0
 11
420.0
 21
297.0
 12
0.0
 22
0.0
 32
0.0
 14
1e+20
 24
1e+20
 34
1e+20
 15
-1e+20
 25
-1e+20
 35
-1e+20
146
0.0
 13
0.0
 23
0.0
 33
0.0
 16
1.0
 26
0.0
 36
0.0
 17
0.0
 27
1.0
 37
0.0
 76
1
330
1B
  0
MATERIAL
  5
1F
102
{ACAD_REACTORS
330
E
102
}
330
E
100
AcDbMaterial
  1
ByBlock
  2

 70
0
 40
1.0
 71
1
 41
1.0
 91
-1023410177
 42
1.0
 72
1
  3

 73
1
 74
1
 75
1
 44
0.5
 73
0
 45
1.0
 46
1.0
 77
1
  4

 78
1
 79
1
170
1
 48
1.0
171
1
  6

172
1
173
1
174
1
140
1.0
141
1.0
175
1
  7

176
1
177
1
178
1
143
1.0
179
1
  8

270
1
271
1
272
1
145
1.0
146
1.0
273
1
  9

274
1
275
1
276
1
 42
1.0
 72
1
  3

 73
1
 74
1
 75
1
 94
63
  0
MATERIAL
  5
20
102
{ACAD_REACTORS
330
E
102
}
330
E
100
AcDbMaterial
  1
ByLayer
  2

 70
0
 40
1.0
 71
1
 41
1.0
 91
-1023410177
 42
1.0
 72
1
  3

 73
1
 74
1
 75
1
 44
0.5
 73
0
 45
1.0
 46
1.0
 77
1
  4

 78
1
 79
1
170
1
 48
1.0
171
1
  6

172
1
173
1
174
1
140
1.0
141
1.0
175
1
  7

176
1
177
1
178
1
143
1.0
179
1
  8

270
1
271
1
272
1
145
1.0
146
1.0
273
1
  9

274
1
275
1
276
1
 42
1.0
 72
1
  3

 73
1
 74
1
 75
1
 94
63
  0
MATERIAL
  5
21
102
{ACAD_REACTORS
330
E
102
}
330
E
100
AcDbMaterial
  1
Global
  2

 70
0
 40
1.0
 71
1
 41
1.0
 91
-1023410177
 42
1.0
 72
1
  3

 73
1
 74
1
 75
1
 44
0.5
 73
0
 45
1.0
 46
1.0
 77
1
  4

 78
1
 79
1
170
1
 48
1.0
171
1
  6

172
1
173
1
174
1
140
1.0
141
1.0
175
1
  7

176
1
177
1
178
1
143
1.0
179
1
  8

270
1
271
1
272
1
145
1.0
146
1.0
273
1
  9

274
1
275
1
276
1
 42
1.0
 72
1
  3

 73
1
 74
1
 75
1
 94
63
  0
MLINESTYLE
  5
22
102
{ACAD_REACTORS
330
10
102
}
330
10
100
AcDbMlineStyle
  2
Standard
 70
0
  3

 62
256
 51
90.0
 52
90.0
 71
2
 49
0.5
 62
256
  6
BYLAYER
 49
-0.5
 62
256
  6
BYLAYER
  0
MLEADERSTYLE
  5
2C
102
{ACAD_REACTORS
330
F
102
}
330
F
100
AcDbMLeaderStyle
179
2
170
2
171
1
172
0
 90
2
 40
0.0
 41
0.0
173
1
 91
-1056964608
 92
-2
290
1
 42
2.0
291
1
 43
8.0
  3
Standard
 44
4.0
300

342
29
174
1
175
1
176
0
178
1
 93
-1056964608
 45
4.0
292
0
297
0
 46
4.0
 94
-1056964608
 47
1.0
 49
1.0
140
1.0
294
1
141
0.0
177
0
142
1.0
295
0
296
0
143
3.75
271
0
272
9
273
9
  0
DICTIONARY
  5
2D
330
A
100
AcDbDictionary
280
1
281
1
  3
CREATED_BY_EZDXF
350
2E
  3
WRITTEN_BY_EZDXF
350
EE
  0
DICTIONARYVAR
  5
2E
330
2D
100
DictionaryVariables
280
0
  1
1.4.3 @ 2026-02-13T04:54:07.343914+00:00
  0
DICTIONARYVAR
  5
EE
330
2D
100
DictionaryVariables
280
0
  1
1.4.3 @ 2026-02-13T04:54:07.360033+00:00
  0
ENDSEC
  0
EOF
