  0
SECTION
  2
HEADER
  9
$ACADVER
  1
AC1032
  9
$ACADMAINTVER
 90
4
  9
$DWGCODEPAGE
  3
ANSI_1252
  9
$LASTSAVEDBY
  1
ezdxf
  9
$REQUIREDVERSIONS
160
0
  9
$INSBASE
 10
0.0
 20
0.0
 30
0.0
  9
$EXTMIN
 10
1e+20
 20
1e+20
 30
1e+20
  9
$EXTMAX
 10
-1e+20
 20
-1e+20
 30
-1e+20
  9
$LIMMIN
 10
0.0
 20
0.0
  9
$LIMMAX
 10
420.0
 20
297.0
  9
$ORTHOMODE
 70
0
  9
$REGENMODE
 70
1
  9
$FILLMODE
 70
1
  9
$QTEXTMODE
 70
0
  9
$MIRRTEXT
 70
1
  9
$LTSCALE
 40
1.0
  9
$ATTMODE
 70
1
  9
$TEXTSIZE
 40
2.5
  9
$TRACEWID
 40
1.0
  9
$TEXTSTYLE
  7
Standard
  9
$CLAYER
  8
0
  9
$CELTYPE
  6
ByLayer
  9
$CECOLOR
 62
256
  9
$CELTSCALE
 40
1.0
  9
$DISPSILH
 70
0
  9
$DIMSCALE
 40
1.0
  9
$DIMASZ
 40
2.5
  9
$DIMEXO
 40
0.625
  9
$DIMDLI
 40
3.75
  9
$DIMRND
 40
0.0
  9
$DIMDLE
 40
0.0
  9
$DIMEXE
 40
1.25
  9
$DIMTP
 40
0.0
  9
$DIMTM
 40
0.0
  9
$DIMTXT
 40
2.5
  9
$DIMCEN
 40
2.5
  9
$DIMTSZ
 40
0.0
  9
$DIMTOL
 70
0
  9
$DIMLIM
 70
0
  9
$DIMTIH
 70
0
  9
$DIMTOH
 70
0
  9
$DIMSE1
 70
0
  9
$DIMSE2
 70
0
  9
$DIMTAD
 70
1
  9
$DIMZIN
 70
8
  9
$DIMBLK
  1

  9
$DIMASO
 70
1
  9
$DIMSHO
 70
1
  9
$DIMPOST
  1

  9
$DIMAPOST
  1

  9
$DIMALT
 70
0
  9
$DIMALTD
 70
3
  9
$DIMALTF
 40
0.03937007874
  9
$DIMLFAC
 40
1.0
  9
$DIMTOFL
 70
1
  9
$DIMTVP
 40
0.0
  9
$DIMTIX
 70
0
  9
$DIMSOXD
 70
0
  9
$DIMSAH
 70
0
  9
$DIMBLK1
  1

  9
$DIMBLK2
  1

  9
$DIMSTYLE
  2
ISO-25
  9
$DIMCLRD
 70
0
  9
$DIMCLRE
 70
0
  9
$DIMCLRT
 70
0
  9
$DIMTFAC
 40
1.0
  9
$DIMGAP
 40
0.625
  9
$DIMJUST
 70
0
  9
$DIMSD1
 70
0
  9
$DIMSD2
 70
0
  9
$DIMTOLJ
 70
0
  9
$DIMTZIN
 70
8
  9
$DIMALTZ
 70
0
  9
$DIMALTTZ
 70
0
  9
$DIMUPT
 70
0
  9
$DIMDEC
 70
2
  9
$DIMTDEC
 70
2
  9
$DIMALTU
 70
2
  9
$DIMALTTD
 70
3
  9
$DIMTXSTY
  7
Standard
  9
$DIMAUNIT
 70
0
  9
$DIMADEC
 70
0
  9
$DIMALTRND
 40
0.0
  9
$DIMAZIN
 70
0
  9
$DIMDSEP
 70
44
  9
$DIMATFIT
 70
3
  9
$DIMFRAC
 70
0
  9
$DIMLDRBLK
  1

  9
$DIMLUNIT
 70
2
  9
$DIMLWD
 70
-2
  9
$DIMLWE
 70
-2
  9
$DIMTMOVE
 70
0
  9
$DIMFXL
 40
1.0
  9
$DIMFXLON
 70
0
  9
$DIMJOGANG
 40
0.785398163397
  9
$DIMTFILL
 70
0
  9
$DIMTFILLCLR
 70
0
  9
$DIMARCSYM
 70
0
  9
$DIMLTYPE
  6

  9
$DIMLTEX1
  6

  9
$DIMLTEX2
  6

  9
$DIMTXTDIRECTION
 70
0
  9
$LUNITS
 70
2
  9
$LUPREC
 70
4
  9
$SKETCHINC
 40
1.0
  9
$FILLETRAD
 40
10.0
  9
$AUNITS
 70
0
  9
$AUPREC
 70
2
  9
$MENU
  1
.
  9
$ELEVATION
 40
0.0
  9
$PELEVATION
 40
0.0
  9
$THICKNESS
 40
0.0
  9
$LIMCHECK
 70
0
  9
$CHAMFERA
 40
0.0
  9
$CHAMFERB
 40
0.0
  9
$CHAMFERC
 40
0.0
  9
$CHAMFERD
 40
0.0
  9
$SKPOLY
 70
0
  9
$TDCREATE
 40
2461085.2459143517
  9
$TDUCREATE
 40
2458532.153996898
  9
$TDUPDATE
 40
2461085.2459143517
  9
$TDUUPDATE
 40
2458532.1544311
  9
$TDINDWG
 40
0.0
  9
$TDUSRTIMER
 40
0.0
  9
$USRTIMER
 70
1
  9
$ANGBASE
 50
0.0
  9
$ANGDIR
 70
0
  9
$PDMODE
 70
0
  9
$PDSIZE
 40
0.0
  9
$PLINEWID
 40
0.0
  9
$SPLFRAME
 70
0
  9
$SPLINETYPE
 70
6
  9
$SPLINESEGS
 70
8
  9
$HANDSEED
  5
83
  9
$SURFTAB1
 70
6
  9
$SURFTAB2
 70
6
  9
$SURFTYPE
 70
6
  9
$SURFU
 70
6
  9
$SURFV
 70
6
  9
$UCSBASE
  2

  9
$UCSNAME
  2

  9
$UCSORG
 10
0.0
 20
0.0
 30
0.0
  9
$UCSXDIR
 10
1.0
 20
0.0
 30
0.0
  9
$UCSYDIR
 10
0.0
 20
1.0
 30
0.0
  9
$UCSORTHOREF
  2

  9
$UCSORTHOVIEW
 70
0
  9
$UCSORGTOP
 10
0.0
 20
0.0
 30
0.0
  9
$UCSORGBOTTOM
 10
0.0
 20
0.0
 30
0.0
  9
$UCSORGLEFT
 10
0.0
 20
0.0
 30
0.0
  9
$UCSORGRIGHT
 10
0.0
 20
0.0
 30
0.0
  9
$UCSORGFRONT
 10
0.0
 20
0.0
 30
0.0
  9
$UCSORGBACK
 10
0.0
 20
0.0
 30
0.0
  9
$PUCSBASE
  2

  9
$PUCSNAME
  2

  9
$PUCSORG
 10
0.0
 20
0.0
 30
0.0
  9
$PUCSXDIR
 10
1.0
 20
0.0
 30
0.0
  9
$PUCSYDIR
 10
0.0
 20
1.0
 30
0.0
  9
$PUCSORTHOREF
  2

  9
$PUCSORTHOVIEW
 70
0
  9
$PUCSORGTOP
 10
0.0
 20
0.0
 30
0.0
  9
$PUCSORGBOTTOM
 10
0.0
 20
0.0
 30
0.0
  9
$PUCSORGLEFT
 10
0.0
 20
0.0
 30
0.0
  9
$PUCSORGRIGHT
 10
0.0
 20
0.0
 30
0.0
  9
$PUCSORGFRONT
 10
0.0
 20
0.0
 30
0.0
  9
$PUCSORGBACK
 10
0.0
 20
0.0
 30
0.0
  9
$USERI1
 70
0
  9
$USERI2
 70
0
  9
$USERI3
 70
0
  9
$USERI4
 70
0
  9
$USERI5
 70
0
  9
$USERR1
 40
0.0
  9
$USERR2
 40
0.0
  9
$USERR3
 40
0.0
  9
$USERR4
 40
0.0
  9
$USERR5
 40
0.0
  9
$WORLDVIEW
 70
1
  9
$SHADEDGE
 70
3
  9
$SHADEDIF
 70
70
  9
$TILEMODE
 70
1
  9
$MAXACTVP
 70
64
  9
$PINSBASE
 10
0.0
 20
0.0
 30
0.0
  9
$PLIMCHECK
 70
0
  9
$PEXTMIN
 10
1e+20
 20
1e+20
 30
1e+20
  9
$PEXTMAX
 10
-1e+20
 20
-1e+20
 30
-1e+20
  9
$PLIMMIN
 10
0.0
 20
0.0
  9
$PLIMMAX
 10
420.0
 20
297.0
  9
$UNITMODE
 70
0
  9
$VISRETAIN
 70
1
  9
$PLINEGEN
 70
0
  9
$PSLTSCALE
 70
1
  9
$TREEDEPTH
 70
3020
  9
$CMLSTYLE
  2
Standard
  9
$CMLJUST
 70
0
  9
$CMLSCALE
 40
20.0
  9
$PROXYGRAPHICS
 70
1
  9
$MEASUREMENT
 70
1
  9
$CELWEIGHT
370
-1
  9
$ENDCAPS
280
0
  9
$JOINSTYLE
280
0
  9
$LWDISPLAY
290
0
  9
$INSUNITS
 70
6
  9
$HYPERLINKBASE
  1

  9
$STYLESHEET
  1

  9
$XEDIT
290
1
  9
$CEPSNTYPE
380
0
  9
$PSTYLEMODE
290
1
  9
$FINGERPRINTGUID
  2
{A39BCBA0-F893-47CF-A63A-53462D7AEEB8}
  9
$VERSIONGUID
  2
{459525A8-6902-4BE0-AB3C-B19B73BE6FDD}
  9
$EXTNAMES
290
1
  9
$PSVPSCALE
 40
0.0
  9
$OLESTARTUP
290
0
  9
$SORTENTS
280
127
  9
$INDEXCTL
280
0
  9
$HIDETEXT
280
1
  9
$XCLIPFRAME
280
1
  9
$HALOGAP
280
0
  9
$OBSCOLOR
 70
257
  9
$OBSLTYPE
280
0
  9
$INTERSECTIONDISPLAY
280
0
  9
$INTERSECTIONCOLOR
 70
257
  9
$DIMASSOC
280
2
  9
$PROJECTNAME
  1

  9
$CAMERADISPLAY
290
0
  9
$LENSLENGTH
 40
50.0
  9
$CAMERAHEIGHT
 40
0.0
  9
$STEPSPERSEC
 40
24.0
  9
$STEPSIZE
 40
100.0
  9
$3DDWFPREC
 40
2.0
  9
$PSOLWIDTH
 40
0.005
  9
$PSOLHEIGHT
 40
0.08
  9
$LOFTANG1
 40
1.570796326795
  9
$LOFTANG2
 40
1.570796326795
  9
$LOFTMAG1
 40
0.0
  9
$LOFTMAG2
 40
0.0
  9
$LOFTPARAM
 70
7
  9
$LOFTNORMALS
280
1
  9
$LATITUDE
 40
37.795
  9
$LONGITUDE
 40
-122.394
  9
$NORTHDIRECTION
 40
0.0
  9
$TIMEZONE
 70
-8000
  9
$LIGHTGLYPHDISPLAY
280
1
  9
$TILEMODELIGHTSYNCH
280
1
  9
$CMATERIAL
347
20
  9
$SOLIDHIST
280
0
  9
$SHOWHIST
280
1
  9
$DWFFRAME
280
2
  9
$DGNFRAME
280
2
  9
$REALWORLDSCALE
290
1
  9
$INTERFERECOLOR
 62
256
  9
$CSHADOW
280
0
  9
$SHADOWPLANELOCATION
 40
0.0
  0
ENDSEC
  0
SECTION
  2
CLASSES
  0
CLASS
  1
ACDBDICTIONARYWDFLT
  2
AcDbDictionaryWithDefault
  3
ObjectDBX Classes
 90
0
 91
0
280
0
281
0
  0
CLASS
  1
SUN
  2
AcDbSun
  3
SCENEOE
 90
1153
 91
0
280
0
281
0
  0
CLASS
  1
VISUALSTYLE
  2
AcDbVisualStyle
  3
ObjectDBX Classes
 90
4095
 91
0
280
0
281
0
  0
CLASS
  1
MATERIAL
  2
AcDbMaterial
  3
ObjectDBX Classes
 90
1153
 91
0
280
0
281
0
  0
CLASS
  1
SCALE
  2
AcDbScale
  3
ObjectDBX Classes
 90
1153
 91
0
280
0
281
0
  0
CLASS
  1
TABLESTYLE
  2
AcDbTableStyle
  3
ObjectDBX Classes
 90
4095
 91
0
280
0
281
0
  0
CLASS
  1
MLEADERSTYLE
  2
AcDbMLeaderStyle
  3
ACDB_MLEADERSTYLE_CLASS
 90
4095
 91
0
280
0
281
0
  0
CLASS
  1
DICTIONARYVAR
  2
AcDbDictionaryVar
  3
ObjectDBX Classes
 90
0
 91
0
280
0
281
0
  0
CLASS
  1
CELLSTYLEMAP
  2
AcDbCellStyleMap
  3
ObjectDBX Classes
 90
1152
 91
0
280
0
281
0
  0
CLASS
  1
MENTALRAYRENDERSETTINGS
  2
AcDbMentalRayRenderSettings
  3
SCENEOE
 90
1024
 91
0
280
0
281
0
  0
CLASS
  1
ACDBDETAILVIEWSTYLE
  2
AcDbDetailViewStyle
  3
ObjectDBX Classes
 90
1025
 91
0
280
0
281
0
  0
CLASS
  1
ACDBSECTIONVIEWSTYLE
  2
AcDbSectionViewStyle
  3
ObjectDBX Classes
 90
1025
 91
0
280
0
281
0
  0
CLASS
  1
RASTERVARIABLES
  2
AcDbRasterVariables
  3
ISM
 90
0
 91
0
280
0
281
0
  0
CLASS
  1
LAYOUT
  2
AcDbLayout
  3
ObjectDBX Classes
 90
0
 91
0
280
0
281
0
  0
CLASS
  1
ACDBPLACEHOLDER
  2
AcDbPlaceHolder
  3
ObjectDBX Classes
 90
0
 91
0
280
0
281
0
  0
ENDSEC
  0
SECTION
  2
TABLES
  0
TABLE
  2
VPORT
  5
8
330
0
100
AcDbSymbolTable
 70
1
  0
VPORT
  5
23
330
8
100
AcDbSymbolTableRecord
100
AcDbViewportTableRecord
  2
*Active
 70
0
 10
0.0
 20
0.0
 11
1.0
 21
1.0
 12
0.0
 22
0.0
 13
0.0
 23
0.0
 14
0.5
 24
0.5
 15
0.5
 25
0.5
 16
0.0
 26
0.0
 36
1.0
 17
0.0
 27
0.0
 37
0.0
 40
1000.0
 41
1.34
 42
50.0
 43
0.0
 44
0.0
 50
0.0
 51
0.0
 71
0
 72
1000
 73
1
 74
3
 75
0
 76
0
 77
0
 78
0
281
0
 65
0
146
0.0
  0
ENDTAB
  0
TABLE
  2
LTYPE
  5
2
330
0
100
AcDbSymbolTable
 70
3
  0
LTYPE
  5
24
330
2
100
AcDbSymbolTableRecord
100
AcDbLinetypeTableRecord
  2
ByBlock
 70
0
  3

 72
65
 73
0
 40
0.0
  0
LTYPE
  5
25
330
2
100
AcDbSymbolTableRecord
100
AcDbLinetypeTableRecord
  2
ByLayer
 70
0
  3

 72
65
 73
0
 40
0.0
  0
LTYPE
  5
26
330
2
100
AcDbSymbolTableRecord
100
AcDbLinetypeTableRecord
  2
Continuous
 70
0
  3

 72
65
 73
0
 40
0.0
  0
ENDTAB
  0
TABLE
  2
LAYER
  5
1
330
0
100
AcDbSymbolTable
 70
3
  0
LAYER
  5
27
330
1
100
AcDbSymbolTableRecord
100
AcDbLayerTableRecord
  2
0
 70
0
 62
7
  6
Continuous
370
-3
390
13
347
21
  0
LAYER
  5
28
330
1
100
AcDbSymbolTableRecord
100
AcDbLayerTableRecord
  2
Defpoints
 70
0
 62
7
  6
Continuous
290
0
370
-3
390
13
347
21
  0
LAYER
  5
7D
330
1
100
AcDbSymbolTableRecord
100
AcDbLayerTableRecord
  2
A-DETL-GENF
 70
0
 62
92
  6
Continuous
370
18
390
13
347
21
348
0
  0
ENDTAB
  0
TABLE
  2
STYLE
  5
5
330
0
100
AcDbSymbolTable
 70
1
  0
STYLE
  5
29
330
5
100
AcDbSymbolTableRecord
100
AcDbTextStyleTableRecord
  2
Standard
 70
0
 40
0.0
 41
1.0
 50
0.0
 71
0
 42
2.5
  3
txt
  4

  0
ENDTAB
  0
TABLE
  2
VIEW
  5
7
330
0
100
AcDbSymbolTable
 70
0
  0
ENDTAB
  0
TABLE
  2
UCS
  5
6
330
0
100
AcDbSymbolTable
 70
0
  0
ENDTAB
  0
TABLE
  2
APPID
  5
3
330
0
100
AcDbSymbolTable
 70
3
  0
APPID
  5
2A
330
3
100
AcDbSymbolTableRecord
100
AcDbRegAppTableRecord
  2
ACAD
 70
0
  0
APPID
  5
80
330
3
100
AcDbSymbolTableRecord
100
AcDbRegAppTableRecord
  2
HATCHBACKGROUNDCOLOR
 70
0
  0
APPID
  5
81
330
3
100
AcDbSymbolTableRecord
100
AcDbRegAppTableRecord
  2
EZDXF
 70
0
  0
ENDTAB
  0
TABLE
  2
DIMSTYLE
  5
4
330
0
100
AcDbSymbolTable
 70
1
100
AcDbDimStyleTable
  0
DIMSTYLE
105
2B
330
4
100
AcDbSymbolTableRecord
100
AcDbDimStyleTableRecord
  2
Standard
 70
0
 40
1.0
 41
2.5
 42
0.625
 43
3.75
 44
1.25
 45
0.0
 46
0.0
 47
0.0
 48
0.0
 49
2.5
140
2.5
141
2.5
142
0.0
143
0.03937007874
144
1.0
145
0.0
146
1.0
147
0.625
148
0.0
 69
0
 70
0
 71
0
 72
0
 73
0
 74
0
 75
0
 76
0
 77
1
 78
8
 79
3
170
0
171
3
172
1
173
0
174
0
175
0
176
0
177
0
178
0
179
2
271
2
272
2
273
2
274
3
275
0
276
0
277
2
278
44
279
0
280
0
281
0
282
0
283
0
284
8
285
0
286
0
288
0
289
3
290
0
371
-2
372
-2
  0
ENDTAB
  0
TABLE
  2
BLOCK_RECORD
  5
9
330
0
100
AcDbSymbolTable
 70
3
  0
BLOCK_RECORD
  5
17
330
9
100
AcDbSymbolTableRecord
100
AcDbBlockTableRecord
  2
*Model_Space
340
1A
 70
0
280
1
281
0
  0
BLOCK_RECORD
  5
1B
330
9
100
AcDbSymbolTableRecord
100
AcDbBlockTableRecord
  2
*Paper_Space
340
1E
 70
0
280
1
281
0
  0
BLOCK_RECORD
  5
2F
330
9
100
AcDbSymbolTableRecord
100
AcDbBlockTableRecord
  2
23 kanaalplaat_320 - std-3345150-00_0 Basismaterialen
340
0
 70
0
280
1
281
0
  0
ENDTAB
  0
ENDSEC
  0
SECTION
  2
BLOCKS
  0
BLOCK
  5
18
330
17
100
AcDbEntity
  8
0
100
AcDbBlockBegin
  2
*Model_Space
 70
0
 10
0.0
 20
0.0
 30
0.0
  3
*Model_Space
  1

  0
ENDBLK
  5
19
330
17
100
AcDbEntity
  8
0
100
AcDbBlockEnd
  0
BLOCK
  5
1C
330
1B
100
AcDbEntity
  8
0
100
AcDbBlockBegin
  2
*Paper_Space
 70
0
 10
0.0
 20
0.0
 30
0.0
  3
*Paper_Space
  1

  0
ENDBLK
  5
1D
330
1B
100
AcDbEntity
  8
0
100
AcDbBlockEnd
  0
BLOCK
  5
30
330
2F
100
AcDbEntity
  8
0
100
AcDbBlockBegin
  2
23 kanaalplaat_320 - std-3345150-00_0 Basismaterialen
 70
0
 10
0.0
 20
0.0
 30
0.0
  3
23 kanaalplaat_320 - std-3345150-00_0 Basismaterialen
  1

  0
HATCH
  5
32
330
2F
100
AcDbEntity
  8
A-DETL-GENF
370
13
100
AcDbHatch
 10
0.0
 20
0.0
 30
0.0
210
0.0
220
0.0
230
1.0
  2
FP_723
 70
0
 71
0
 91
8
 92
1
 93
20
 72
1
 10
959.9012444012242
 20
-1.73259e-11
 11
1189.99999999998
 21
-1.73259e-11
 72
1
 10
1189.99999999998
 20
-1.73259e-11
 11
1199.999999999978
 21
9.999999999984732
 72
1
 10
1199.999999999978
 20
9.999999999984732
 11
1199.999999999978
 21
19.99999999998246
 72
1
 10
1199.999999999978
 20
19.99999999998246
 11
1194.999999999979
 21
19.99999999998246
 72
1
 10
1194.999999999979
 20
19.99999999998246
 11
1182.669649888455
 21
180.2945514498261
 72
1
 10
1182.669649888455
 20
180.2945514498261
 11
1169.631245078047
 21
193.33295626023
 72
1
 10
1169.631245078047
 20
193.33295626023
 11
1163.824224448203
 21
268.8242244482073
 72
1
 10
1163.824224448203
 20
268.8242244482073
 11
1174.99999999998
 21
279.999999999984
 72
1
 10
1174.99999999998
 20
279.999999999984
 11
1174.99999999998
 21
319.9999999999793
 72
1
 10
1174.99999999998
 20
319.9999999999793
 11
24.99999999997704
 21
319.9999999999836
 72
1
 10
24.99999999997699
 20
319.9999999999836
 11
24.99999999997699
 21
279.999999999984
 72
1
 10
24.99999999997699
 20
279.999999999984
 11
36.17577555175361
 21
268.8242244482073
 72
1
 10
36.17577555175361
 20
268.8242244482073
 11
30.36875492190953
 21
193.33295626023
 72
1
 10
30.36875492190953
 20
193.33295626023
 11
17.33035011150131
 21
180.2945514498261
 72
1
 10
17.33035011150131
 20
180.2945514498261
 11
4.999999999977205
 21
19.99999999998246
 72
1
 10
4.999999999977205
 20
19.99999999998246
 11
-1.73257e-11
 21
19.99999999998246
 72
1
 10
-1.73259e-11
 20
19.99999999998246
 11
-1.73259e-11
 21
9.999999999984732
 72
1
 10
-1.73259e-11
 20
9.999999999984732
 11
9.999999999980401
 21
-1.29941e-11
 72
1
 10
9.999999999980401
 20
-1.29944e-11
 11
721.1109196235475
 21
-1.73259e-11
 72
1
 10
721.1109196235475
 20
-1.73259e-11
 11
959.9012444012242
 21
-1.73259e-11
 97
0
 92
1
 93
60
 72
1
 10
913.9999999999828
 20
44.99999635676994
 11
910.0332902108711
 21
45.25225559460396
 72
1
 10
910.0332902108711
 20
45.25225559460396
 11
906.1282881562541
 21
45.99345747501853
 72
1
 10
906.1282881562541
 20
45.99345747501853
 11
902.3486365217825
 21
47.2233577946136
 72
1
 10
902.3486365217825
 20
47.2233577946136
 11
898.7502381884665
 21
48.91153749738843
 72
1
 10
898.7502381884665
 20
48.91153749738843
 11
895.4198499045488
 21
51.02368356907255
 72
1
 10
895.4198499045488
 20
51.02368356907255
 11
892.328552753948
 21
53.57123368107937
 72
1
 10
892.328552753948
 20
53.57123368107937
 11
862.7397319843661
 21
81.3166019250372
 72
1
 10
862.7397319843661
 20
81.3166019250372
 11
860.7324508744804
 21
83.6268231806518
 72
1
 10
860.7324508744804
 20
83.6268231806518
 11
859.2358432834561
 21
86.29636722832234
 72
1
 10
859.2358432834561
 20
86.29636722832234
 11
858.3122099901171
 21
89.21410629195333
 72
1
 10
858.3122099901171
 20
89.21410629195333
 11
857.9999999999825
 21
92.25858073362855
 72
1
 10
857.9999999999825
 20
92.25858073362855
 11
857.9999999999825
 21
223.9999999999794
 72
1
 10
857.9999999999825
 20
223.9999999999794
 11
858.2264656945378
 21
228.9410369587287
 72
1
 10
858.2264656945378
 20
228.9410369587287
 11
858.8625169371384
 21
233.7723258006393
 72
1
 10
858.8625169371384
 20
233.7723258006393
 11
859.908153727793
 21
238.4938665257242
 72
1
 10
859.908153727793
 20
238.4938665257242
 11
861.3774964638027
 21
243.1397487886513
 72
1
 10
861.3774964638027
 20
243.1397487886513
 11
863.2564247478576
 21
247.6758829347485
 72
1
 10
863.2564247478576
 20
247.6758829347485
 11
865.5025773880542
 21
251.9999999999817
 72
1
 10
865.5025773880542
 20
251.9999999999817
 11
868.1242962953826
 21
256.1072837797799
 72
1
 10
868.1242962953826
 20
256.1072837797799
 11
871.1132395588482
 21
260.0025504787097
 72
1
 10
871.1132395588482
 20
260.0025504787097
 11
874.4020202535335
 21
263.5979797464287
 72
1
 10
874.4020202535335
 20
263.5979797464287
 11
877.9974495212481
 21
266.8867604411096
 72
1
 10
877.9974495212481
 20
266.8867604411096
 11
881.8927162201779
 21
269.8757037045796
 72
1
 10
881.8927162201779
 20
269.8757037045796
 11
885.9999999999804
 21
272.4974226119124
 72
1
 10
885.9999999999804
 20
272.4974226119124
 11
890.3241170652092
 21
274.7435752521003
 72
1
 10
890.3241170652092
 20
274.7435752521003
 11
894.8602512113108
 21
276.6225035361595
 72
1
 10
894.8602512113108
 20
276.6225035361595
 11
899.5061334742423
 21
278.0918462721692
 72
1
 10
899.5061334742423
 20
278.0918462721692
 11
904.264256904933
 21
279.142299267386
 72
1
 10
904.264256904933
 20
279.142299267386
 11
909.1321284524578
 21
279.783166714549
 72
1
 10
909.1321284524578
 20
279.783166714549
 11
913.9999999999785
 21
279.999999999984
 72
1
 10
913.9999999999785
 20
279.999999999984
 11
918.8678715475035
 21
279.783166714549
 72
1
 10
918.8678715475035
 20
279.783166714549
 11
923.7357430950282
 21
279.142299267386
 72
1
 10
923.7357430950282
 20
279.142299267386
 11
928.4938665257232
 21
278.0918462721692
 72
1
 10
928.4938665257232
 20
278.0918462721692
 11
933.1397487886503
 21
276.6225035361638
 72
1
 10
933.1397487886503
 20
276.6225035361638
 11
937.6758829347519
 21
274.7435752521003
 72
1
 10
937.6758829347519
 20
274.7435752521003
 11
941.9999999999808
 21
272.4974226119124
 72
1
 10
941.9999999999808
 20
272.4974226119124
 11
946.1072837797832
 21
269.8757037045796
 72
1
 10
946.1072837797832
 20
269.8757037045796
 11
950.0025504787131
 21
266.8867604411096
 72
1
 10
950.0025504787131
 20
266.8867604411096
 11
953.5979797464277
 21
263.5979797464287
 72
1
 10
953.5979797464277
 20
263.5979797464287
 11
956.886760441113
 21
260.0025504787141
 72
1
 10
956.886760441113
 20
260.0025504787141
 11
959.9012444012242
 21
256.0672707605481
 72
1
 10
959.9012444012242
 20
256.0672707605481
 11
962.4974226119114
 21
251.9999999999817
 72
1
 10
962.4974226119114
 20
251.9999999999817
 11
964.7435752521035
 21
247.6758829347485
 72
1
 10
964.7435752521035
 20
247.6758829347485
 11
966.6225035361629
 21
243.1397487886513
 72
1
 10
966.6225035361629
 20
243.1397487886513
 11
968.0918462721683
 21
238.4938665257242
 72
1
 10
968.0918462721683
 20
238.4938665257242
 11
969.1374830628228
 21
233.7723258006393
 72
1
 10
969.1374830628228
 20
233.7723258006393
 11
969.7735343054233
 21
228.9410369587287
 72
1
 10
969.7735343054233
 20
228.9410369587287
 11
969.999999999983
 21
223.9999999999794
 72
1
 10
969.999999999983
 20
223.9999999999794
 11
969.999999999983
 21
92.25858073362858
 72
1
 10
969.999999999983
 20
92.25858073362855
 11
969.6877900098485
 21
89.214106291949
 72
1
 10
969.6877900098485
 20
89.214106291949
 11
968.7641567165094
 21
86.29636722832234
 72
1
 10
968.7641567165094
 20
86.29636722832234
 11
967.2675491254809
 21
83.6268231806518
 72
1
 10
967.2675491254809
 20
83.6268231806518
 11
965.2602680155993
 21
81.3166019250372
 72
1
 10
965.2602680155993
 20
81.3166019250372
 11
935.6714472460131
 21
53.57123368107937
 72
1
 10
935.6714472460131
 20
53.57123368107937
 11
932.5801500954169
 21
51.02368356906822
 72
1
 10
932.5801500954169
 20
51.02368356906822
 11
929.2497618114991
 21
48.91153749738843
 72
1
 10
929.2497618114991
 20
48.91153749738843
 11
925.6513634781788
 21
47.2233577946136
 72
1
 10
925.6513634781788
 20
47.2233577946136
 11
921.8717118437071
 21
45.99345747501853
 72
1
 10
921.8717118437071
 20
45.99345747501853
 11
917.96670978909
 21
45.25225559460396
 72
1
 10
917.96670978909
 20
45.25225559460396
 11
913.9999999999828
 21
44.99999635676994
 97
0
 92
1
 93
60
 72
1
 10
1070.999999999981
 20
44.99999635676994
 11
1067.03329021087
 21
45.25225559460396
 72
1
 10
1067.03329021087
 20
45.25225559460396
 11
1063.128288156253
 21
45.99345747501853
 72
1
 10
1063.128288156253
 20
45.99345747501853
 11
1059.348636521781
 21
47.2233577946136
 72
1
 10
1059.348636521781
 20
47.2233577946136
 11
1055.750238188466
 21
48.91153749738843
 72
1
 10
1055.750238188466
 20
48.91153749738843
 11
1052.419849904548
 21
51.02368356906822
 72
1
 10
1052.419849904548
 20
51.02368356906822
 11
1049.328552753947
 21
53.57123368107937
 72
1
 10
1049.328552753947
 20
53.57123368107937
 11
1019.739731984365
 21
81.3166019250372
 72
1
 10
1019.739731984365
 20
81.3166019250372
 11
1017.732450874484
 21
83.6268231806518
 72
1
 10
1017.732450874484
 20
83.6268231806518
 11
1016.235843283455
 21
86.29636722832234
 72
1
 10
1016.235843283455
 20
86.29636722832234
 11
1015.312209990111
 21
89.21410629195333
 72
1
 10
1015.312209990111
 20
89.21410629195333
 11
1014.999999999981
 21
92.25858073362855
 72
1
 10
1014.999999999981
 20
92.25858073362855
 11
1014.999999999981
 21
223.9999999999794
 72
1
 10
1014.999999999981
 20
223.9999999999794
 11
1015.226465694537
 21
228.9410369587287
 72
1
 10
1015.226465694537
 20
228.9410369587287
 11
1015.862516937137
 21
233.7723258006393
 72
1
 10
1015.862516937137
 20
233.7723258006393
 11
1016.908153727792
 21
238.4938665257242
 72
1
 10
1016.908153727792
 20
238.4938665257242
 11
1018.377496463801
 21
243.1397487886513
 72
1
 10
1018.377496463801
 20
243.1397487886513
 11
1020.256424747861
 21
247.6758829347485
 72
1
 10
1020.256424747861
 20
247.6758829347485
 11
1022.502577388053
 21
251.9999999999817
 72
1
 10
1022.502577388053
 20
251.9999999999817
 11
1025.124296295381
 21
256.1072837797799
 72
1
 10
1025.124296295381
 20
256.1072837797799
 11
1028.113239558851
 21
260.0025504787097
 72
1
 10
1028.113239558851
 20
260.0025504787097
 11
1031.402020253537
 21
263.5979797464287
 72
1
 10
1031.402020253537
 20
263.5979797464287
 11
1034.997449521247
 21
266.8867604411096
 72
1
 10
1034.997449521247
 20
266.8867604411096
 11
1038.892716220181
 21
269.8757037045753
 72
1
 10
1038.892716220181
 20
269.8757037045753
 11
1042.999999999979
 21
272.4974226119081
 72
1
 10
1042.999999999979
 20
272.4974226119081
 11
1047.324117065213
 21
274.7435752521003
 72
1
 10
1047.324117065213
 20
274.7435752521003
 11
1051.860251211309
 21
276.6225035361595
 72
1
 10
1051.860251211309
 20
276.6225035361595
 11
1056.506133474241
 21
278.0918462721692
 72
1
 10
1056.506133474241
 20
278.0918462721692
 11
1061.264256904932
 21
279.142299267386
 72
1
 10
1061.264256904932
 20
279.142299267386
 11
1066.132128452457
 21
279.783166714549
 72
1
 10
1066.132128452457
 20
279.783166714549
 11
1070.999999999981
 21
279.9999999999796
 72
1
 10
1070.999999999981
 20
279.9999999999796
 11
1075.867871547502
 21
279.783166714549
 72
1
 10
1075.867871547502
 20
279.783166714549
 11
1080.735743095027
 21
279.142299267386
 72
1
 10
1080.735743095027
 20
279.142299267386
 11
1085.493866525722
 21
278.0918462721692
 72
1
 10
1085.493866525722
 20
278.0918462721692
 11
1090.139748788649
 21
276.6225035361595
 72
1
 10
1090.139748788649
 20
276.6225035361595
 11
1094.675882934751
 21
274.7435752521003
 72
1
 10
1094.675882934751
 20
274.7435752521003
 11
1098.999999999984
 21
272.4974226119081
 72
1
 10
1098.999999999984
 20
272.4974226119081
 11
1103.107283779782
 21
269.8757037045753
 72
1
 10
1103.107283779782
 20
269.8757037045753
 11
1107.002550478712
 21
266.8867604411096
 72
1
 10
1107.002550478712
 20
266.8867604411096
 11
1110.597979746427
 21
263.5979797464287
 72
1
 10
1110.597979746427
 20
263.5979797464287
 11
1113.886760441112
 21
260.0025504787097
 72
1
 10
1113.886760441112
 20
260.0025504787097
 11
1116.875703704578
 21
256.1072837797799
 72
1
 10
1116.875703704578
 20
256.1072837797799
 11
1119.49742261191
 21
251.9999999999817
 72
1
 10
1119.49742261191
 20
251.9999999999817
 11
1121.743575252102
 21
247.6758829347485
 72
1
 10
1121.743575252102
 20
247.6758829347485
 11
1123.622503536162
 21
243.1397487886513
 72
1
 10
1123.622503536162
 20
243.1397487886513
 11
1125.091846272171
 21
238.4938665257242
 72
1
 10
1125.091846272171
 20
238.4938665257242
 11
1126.137483062821
 21
233.7723258006393
 72
1
 10
1126.137483062821
 20
233.7723258006393
 11
1126.773534305427
 21
228.9410369587287
 72
1
 10
1126.773534305427
 20
228.9410369587287
 11
1126.999999999982
 21
223.9999999999794
 72
1
 10
1126.999999999982
 20
223.9999999999794
 11
1126.999999999982
 21
92.25858073362858
 72
1
 10
1126.999999999982
 20
92.25858073362855
 11
1126.687790009847
 21
89.214106291949
 72
1
 10
1126.687790009847
 20
89.214106291949
 11
1125.764156716508
 21
86.29636722832234
 72
1
 10
1125.764156716508
 20
86.29636722832234
 11
1124.26754912548
 21
83.6268231806518
 72
1
 10
1124.26754912548
 20
83.6268231806518
 11
1122.260268015598
 21
81.3166019250372
 72
1
 10
1122.260268015598
 20
81.3166019250372
 11
1092.671447246012
 21
53.57123368107937
 72
1
 10
1092.671447246012
 20
53.57123368107937
 11
1089.580150095416
 21
51.02368356906822
 72
1
 10
1089.580150095416
 20
51.02368356906822
 11
1086.249761811498
 21
48.91153749738843
 72
1
 10
1086.249761811498
 20
48.91153749738843
 11
1082.651363478182
 21
47.2233577946136
 72
1
 10
1082.651363478182
 20
47.2233577946136
 11
1078.871711843706
 21
45.99345747501853
 72
1
 10
1078.871711843706
 20
45.99345747501853
 11
1074.966709789089
 21
45.25225559460396
 72
1
 10
1074.966709789089
 20
45.25225559460396
 11
1070.999999999981
 21
44.99999635676994
 97
0
 92
1
 93
60
 72
1
 10
285.9999999999826
 20
44.99999635677427
 11
282.0332902108666
 21
45.25225559460829
 72
1
 10
282.0332902108666
 20
45.25225559460829
 11
278.1282881562497
 21
45.99345747502286
 72
1
 10
278.1282881562497
 20
45.99345747502286
 11
274.3486365217824
 21
47.22335779461793
 72
1
 10
274.3486365217824
 20
47.22335779461793
 11
270.7502381884621
 21
48.91153749739276
 72
1
 10
270.7502381884621
 20
48.91153749739276
 11
267.4198499045485
 21
51.02368356907255
 72
1
 10
267.4198499045485
 20
51.02368356907255
 11
264.3285527539479
 21
53.5712336810837
 72
1
 10
264.3285527539479
 20
53.5712336810837
 11
234.7397319843616
 21
81.3166019250372
 72
1
 10
234.7397319843616
 20
81.3166019250372
 11
232.7324508744802
 21
83.6268231806518
 72
1
 10
232.7324508744802
 20
83.6268231806518
 11
231.2358432834516
 21
86.29636722832234
 72
1
 10
231.2358432834516
 20
86.29636722832234
 11
230.3122099901126
 21
89.21410629195333
 72
1
 10
230.3122099901126
 20
89.21410629195333
 11
229.999999999978
 21
92.2585807336329
 72
1
 10
229.999999999978
 20
92.2585807336329
 11
229.999999999978
 21
223.9999999999837
 72
1
 10
229.999999999978
 20
223.9999999999837
 11
230.2264656945334
 21
228.9410369587287
 72
1
 10
230.2264656945334
 20
228.9410369587287
 11
230.8625169371383
 21
233.7723258006436
 72
1
 10
230.8625169371383
 20
233.7723258006436
 11
231.9081537277928
 21
238.4938665257242
 72
1
 10
231.9081537277928
 20
238.4938665257242
 11
233.3774964637982
 21
243.1397487886513
 72
1
 10
233.3774964637982
 20
243.1397487886513
 11
235.2564247478575
 21
247.6758829347529
 72
1
 10
235.2564247478575
 20
247.6758829347529
 11
237.5025773880496
 21
251.9999999999817
 72
1
 10
237.5025773880496
 20
251.9999999999817
 11
240.1242962953824
 21
256.1072837797842
 72
1
 10
240.1242962953824
 20
256.1072837797842
 11
243.5339081126617
 21
260.4624425088627
 72
1
 10
243.5339081126617
 20
260.4624425088627
 11
246.4020202535333
 21
263.5979797464287
 72
1
 10
246.4020202535333
 20
263.5979797464287
 11
249.9974495212479
 21
266.8867604411139
 72
1
 10
249.9974495212479
 20
266.8867604411139
 11
253.8927162201821
 21
269.8757037045796
 72
1
 10
253.8927162201821
 20
269.8757037045796
 11
257.9999999999803
 21
272.4974226119124
 72
1
 10
257.9999999999803
 20
272.4974226119124
 11
262.3241170652135
 21
274.7435752521046
 72
1
 10
262.3241170652135
 20
274.7435752521046
 11
266.8602512113063
 21
276.6225035361638
 72
1
 10
266.8602512113063
 20
276.6225035361638
 11
271.5061334742379
 21
278.0918462721692
 72
1
 10
271.5061334742379
 20
278.0918462721692
 11
276.2642569049285
 21
279.142299267386
 72
1
 10
276.2642569049285
 20
279.142299267386
 11
281.1321284524534
 21
279.7831667145533
 72
1
 10
281.1321284524534
 20
279.7831667145533
 11
285.9999999999826
 21
279.999999999984
 72
1
 10
285.9999999999826
 20
279.999999999984
 11
290.8678715475032
 21
279.7831667145533
 72
1
 10
290.8678715475032
 20
279.7831667145533
 11
295.7357430950282
 21
279.142299267386
 72
1
 10
295.7357430950282
 20
279.142299267386
 11
300.4938665257188
 21
278.0918462721692
 72
1
 10
300.4938665257188
 20
278.0918462721692
 11
305.1397487886502
 21
276.6225035361638
 72
1
 10
305.1397487886502
 20
276.6225035361638
 11
309.6758829347518
 21
274.7435752521046
 72
1
 10
309.6758829347518
 20
274.7435752521046
 11
313.9999999999762
 21
272.4974226119124
 72
1
 10
313.9999999999762
 20
272.4974226119124
 11
318.1072837797831
 21
269.8757037045796
 72
1
 10
318.1072837797831
 20
269.8757037045796
 11
322.002550478713
 21
266.8867604411139
 72
1
 10
322.002550478713
 20
266.8867604411139
 11
325.5979797464276
 21
263.5979797464287
 72
1
 10
325.5979797464276
 20
263.5979797464287
 11
328.8867604411129
 21
260.0025504787141
 72
1
 10
328.8867604411129
 20
260.0025504787141
 11
331.8757037045785
 21
256.1072837797842
 72
1
 10
331.8757037045785
 20
256.1072837797842
 11
334.4974226119069
 21
251.9999999999817
 72
1
 10
334.4974226119069
 20
251.9999999999817
 11
336.7435752521035
 21
247.6758829347529
 72
1
 10
336.7435752521035
 20
247.6758829347529
 11
338.6225035361584
 21
243.1397487886513
 72
1
 10
338.6225035361584
 20
243.1397487886513
 11
340.091846272168
 21
238.4938665257242
 72
1
 10
340.091846272168
 20
238.4938665257242
 11
341.1374830628226
 21
233.7723258006436
 72
1
 10
341.1374830628226
 20
233.7723258006436
 11
341.7735343054275
 21
228.9410369587287
 72
1
 10
341.7735343054275
 20
228.9410369587287
 11
341.9999999999786
 21
223.9999999999837
 72
1
 10
341.9999999999786
 20
223.9999999999837
 11
341.9999999999786
 21
92.25858073362858
 72
1
 10
341.9999999999786
 20
92.25858073362855
 11
341.6877900098484
 21
89.21410629195333
 72
1
 10
341.6877900098484
 20
89.21410629195333
 11
340.7641567165093
 21
86.29636722832234
 72
1
 10
340.7641567165093
 20
86.29636722832234
 11
339.2675491254808
 21
83.6268231806518
 72
1
 10
339.2675491254808
 20
83.6268231806518
 11
337.2602680155993
 21
81.3166019250372
 72
1
 10
337.2602680155993
 20
81.3166019250372
 11
307.671447246013
 21
53.5712336810837
 72
1
 10
307.671447246013
 20
53.5712336810837
 11
304.5801500954124
 21
51.02368356907255
 72
1
 10
304.5801500954124
 20
51.02368356907255
 11
301.2497618114988
 21
48.91153749739276
 72
1
 10
301.2497618114988
 20
48.91153749739276
 11
297.6513634781785
 21
47.22335779461793
 72
1
 10
297.6513634781785
 20
47.22335779461793
 11
293.8717118437069
 21
45.99345747502286
 72
1
 10
293.8717118437069
 20
45.99345747502286
 11
289.96670978909
 21
45.25225559460829
 72
1
 10
289.96670978909
 20
45.25225559460829
 11
285.9999999999826
 21
44.99999635677427
 97
0
 92
1
 93
60
 72
1
 10
756.9999999999795
 20
44.99999635677427
 11
753.0332902108721
 21
45.25225559460829
 72
1
 10
753.0332902108721
 20
45.25225559460829
 11
749.1282881562552
 21
45.99345747501853
 72
1
 10
749.1282881562552
 20
45.99345747501853
 11
745.3486365217836
 21
47.2233577946136
 72
1
 10
745.3486365217836
 20
47.2233577946136
 11
741.7502381884633
 21
48.91153749739276
 72
1
 10
741.7502381884633
 20
48.91153749739276
 11
738.4198499045497
 21
51.02368356907255
 72
1
 10
738.4198499045497
 20
51.02368356907255
 11
735.328552753949
 21
53.57123368107937
 72
1
 10
735.328552753949
 20
53.57123368107937
 11
705.7397319843672
 21
81.3166019250372
 72
1
 10
705.7397319843672
 20
81.3166019250372
 11
703.7324508744814
 21
83.6268231806518
 72
1
 10
703.7324508744814
 20
83.6268231806518
 11
702.2358432834528
 21
86.29636722832234
 72
1
 10
702.2358432834528
 20
86.29636722832234
 11
701.3122099901138
 21
89.21410629195333
 72
1
 10
701.3122099901138
 20
89.21410629195333
 11
700.9999999999836
 21
92.25858073362855
 72
1
 10
700.9999999999836
 20
92.25858073362855
 11
700.9999999999836
 21
223.9999999999794
 72
1
 10
700.9999999999836
 20
223.9999999999794
 11
701.2264656945346
 21
228.9410369587287
 72
1
 10
701.2264656945346
 20
228.9410369587287
 11
701.8625169371395
 21
233.7723258006393
 72
1
 10
701.8625169371395
 20
233.7723258006393
 11
702.908153727794
 21
238.4938665257242
 72
1
 10
702.908153727794
 20
238.4938665257242
 11
704.3774964638036
 21
243.1397487886513
 72
1
 10
704.3774964638036
 20
243.1397487886513
 11
706.2564247478587
 21
247.6758829347485
 72
1
 10
706.2564247478587
 20
247.6758829347485
 11
708.5025773880552
 21
251.9999999999817
 72
1
 10
708.5025773880552
 20
251.9999999999817
 11
711.1242962953836
 21
256.1072837797799
 72
1
 10
711.1242962953836
 20
256.1072837797799
 11
714.1132395588492
 21
260.0025504787141
 72
1
 10
714.1132395588492
 20
260.0025504787141
 11
717.4020202535346
 21
263.5979797464287
 72
1
 10
717.4020202535346
 20
263.5979797464287
 11
721.1109196235475
 21
266.9738291129322
 72
1
 10
721.1109196235475
 20
266.9738291129322
 11
724.892716220179
 21
269.8757037045796
 72
1
 10
724.892716220179
 20
269.8757037045796
 11
728.9999999999816
 21
272.4974226119124
 72
1
 10
728.9999999999816
 20
272.4974226119124
 11
733.3241170652104
 21
274.7435752521003
 72
1
 10
733.3241170652104
 20
274.7435752521003
 11
737.8602512113118
 21
276.6225035361638
 72
1
 10
737.8602512113118
 20
276.6225035361638
 11
742.506133474239
 21
278.0918462721692
 72
1
 10
742.506133474239
 20
278.0918462721692
 11
747.2642569049339
 21
279.142299267386
 72
1
 10
747.2642569049339
 20
279.142299267386
 11
752.1321284524546
 21
279.783166714549
 72
1
 10
752.1321284524546
 20
279.783166714549
 11
756.9999999999795
 21
279.999999999984
 72
1
 10
756.9999999999795
 20
279.999999999984
 11
761.8678715475044
 21
279.783166714549
 72
1
 10
761.8678715475044
 20
279.783166714549
 11
766.7357430950294
 21
279.142299267386
 72
1
 10
766.7357430950294
 20
279.142299267386
 11
771.4938665257245
 21
278.0918462721692
 72
1
 10
771.4938665257245
 20
278.0918462721692
 11
776.1397487886514
 21
276.6225035361638
 72
1
 10
776.1397487886514
 20
276.6225035361638
 11
780.6758829347486
 21
274.7435752521003
 72
1
 10
780.6758829347486
 20
274.7435752521003
 11
784.9999999999818
 21
272.4974226119124
 72
1
 10
784.9999999999818
 20
272.4974226119124
 11
789.10728377978
 21
269.8757037045796
 72
1
 10
789.10728377978
 20
269.8757037045796
 11
793.0025504787098
 21
266.8867604411096
 72
1
 10
793.0025504787098
 20
266.8867604411096
 11
796.5979797464288
 21
263.5979797464287
 72
1
 10
796.5979797464288
 20
263.5979797464287
 11
799.8867604411096
 21
260.0025504787141
 72
1
 10
799.8867604411096
 20
260.0025504787141
 11
802.8757037045798
 21
256.1072837797799
 72
1
 10
802.8757037045798
 20
256.1072837797799
 11
805.4974226119124
 21
251.9999999999817
 72
1
 10
805.4974226119124
 20
251.9999999999817
 11
807.7435752521003
 21
247.6758829347485
 72
1
 10
807.7435752521003
 20
247.6758829347485
 11
809.6225035361639
 21
243.1397487886513
 72
1
 10
809.6225035361639
 20
243.1397487886513
 11
811.0918462721693
 21
238.4938665257242
 72
1
 10
811.0918462721693
 20
238.4938665257242
 11
812.1374830628195
 21
233.7723258006436
 72
1
 10
812.1374830628195
 20
233.7723258006436
 11
812.7735343054244
 21
228.9410369587287
 72
1
 10
812.7735343054244
 20
228.9410369587287
 11
812.999999999984
 21
223.9999999999794
 72
1
 10
812.999999999984
 20
223.9999999999794
 11
812.999999999984
 21
92.25858073362858
 72
1
 10
812.999999999984
 20
92.25858073362855
 11
812.6877900098496
 21
89.21410629195333
 72
1
 10
812.6877900098496
 20
89.21410629195333
 11
811.7641567165105
 21
86.29636722832234
 72
1
 10
811.7641567165105
 20
86.29636722832234
 11
810.2675491254819
 21
83.6268231806518
 72
1
 10
810.2675491254819
 20
83.6268231806518
 11
808.2602680156004
 21
81.3166019250372
 72
1
 10
808.2602680156004
 20
81.3166019250372
 11
778.6714472460142
 21
53.57123368107937
 72
1
 10
778.6714472460142
 20
53.57123368107937
 11
775.5801500954135
 21
51.02368356907255
 72
1
 10
775.5801500954135
 20
51.02368356907255
 11
772.2497618115
 21
48.91153749739276
 72
1
 10
772.2497618115
 20
48.91153749739276
 11
768.6513634781797
 21
47.2233577946136
 72
1
 10
768.6513634781797
 20
47.2233577946136
 11
764.8717118437124
 21
45.99345747501853
 72
1
 10
764.8717118437124
 20
45.99345747501853
 11
760.9667097890912
 21
45.25225559460829
 72
1
 10
760.9667097890912
 20
45.25225559460829
 11
756.9999999999795
 21
44.99999635677427
 97
0
 92
1
 93
60
 72
1
 10
442.9999999999815
 20
44.99999635677427
 11
439.0332902108698
 21
45.25225559460829
 72
1
 10
439.0332902108698
 20
45.25225559460829
 11
435.1282881562529
 21
45.99345747501853
 72
1
 10
435.1282881562529
 20
45.99345747501853
 11
431.3486365217813
 21
47.2233577946136
 72
1
 10
431.3486365217813
 20
47.2233577946136
 11
427.750238188461
 21
48.91153749739276
 72
1
 10
427.750238188461
 20
48.91153749739276
 11
424.4198499045475
 21
51.02368356907255
 72
1
 10
424.4198499045475
 20
51.02368356907255
 11
421.3285527539512
 21
53.5712336810837
 72
1
 10
421.3285527539512
 20
53.5712336810837
 11
391.7397319843649
 21
81.3166019250372
 72
1
 10
391.7397319843649
 20
81.3166019250372
 11
389.7324508744791
 21
83.6268231806518
 72
1
 10
389.7324508744791
 20
83.6268231806518
 11
388.235843283455
 21
86.29636722832234
 72
1
 10
388.235843283455
 20
86.29636722832234
 11
387.3122099901116
 21
89.21410629195333
 72
1
 10
387.3122099901116
 20
89.21410629195333
 11
386.9999999999813
 21
92.2585807336329
 72
1
 10
386.9999999999813
 20
92.2585807336329
 11
386.9999999999813
 21
223.9999999999794
 72
1
 10
386.9999999999813
 20
223.9999999999794
 11
387.2264656945323
 21
228.9410369587287
 72
1
 10
387.2264656945323
 20
228.9410369587287
 11
387.8625169371373
 21
233.7723258006436
 72
1
 10
387.8625169371373
 20
233.7723258006436
 11
388.9081537277962
 21
238.4938665257242
 72
1
 10
388.9081537277962
 20
238.4938665257242
 11
390.3774964638015
 21
243.1397487886513
 72
1
 10
390.3774964638015
 20
243.1397487886513
 11
392.2564247478564
 21
247.6758829347485
 72
1
 10
392.2564247478564
 20
247.6758829347485
 11
394.502577388053
 21
251.9999999999817
 72
1
 10
394.502577388053
 20
251.9999999999817
 11
397.1242962953856
 21
256.1072837797799
 72
1
 10
397.1242962953856
 20
256.1072837797799
 11
400.1132395588469
 21
260.0025504787141
 72
1
 10
400.1132395588469
 20
260.0025504787141
 11
403.4020202535322
 21
263.5979797464287
 72
1
 10
403.4020202535322
 20
263.5979797464287
 11
406.9974495212468
 21
266.8867604411139
 72
1
 10
406.9974495212468
 20
266.8867604411139
 11
410.8927162201811
 21
269.8757037045796
 72
1
 10
410.8927162201811
 20
269.8757037045796
 11
414.9999999999793
 21
272.4974226119124
 72
1
 10
414.9999999999793
 20
272.4974226119124
 11
419.3241170652081
 21
274.7435752521046
 72
1
 10
419.3241170652081
 20
274.7435752521046
 11
423.8602512113096
 21
276.6225035361638
 72
1
 10
423.8602512113096
 20
276.6225035361638
 11
428.5061334742367
 21
278.0918462721692
 72
1
 10
428.5061334742367
 20
278.0918462721692
 11
433.2642569049316
 21
279.142299267386
 72
1
 10
433.2642569049316
 20
279.142299267386
 11
438.1321284524566
 21
279.7831667145533
 72
1
 10
438.1321284524566
 20
279.7831667145533
 11
442.9999999999815
 21
279.999999999984
 72
1
 10
442.9999999999815
 20
279.999999999984
 11
447.8678715475065
 21
279.7831667145533
 72
1
 10
447.8678715475065
 20
279.7831667145533
 11
452.7357430950271
 21
279.142299267386
 72
1
 10
452.7357430950271
 20
279.142299267386
 11
457.493866525722
 21
278.0918462721692
 72
1
 10
457.493866525722
 20
278.0918462721692
 11
462.1397487886535
 21
276.6225035361638
 72
1
 10
462.1397487886535
 20
276.6225035361638
 11
466.6758829347506
 21
274.7435752521046
 72
1
 10
466.6758829347506
 20
274.7435752521046
 11
470.9999999999795
 21
272.4974226119124
 72
1
 10
470.9999999999795
 20
272.4974226119124
 11
475.1072837797777
 21
269.8757037045796
 72
1
 10
475.1072837797777
 20
269.8757037045796
 11
479.0025504787119
 21
266.8867604411139
 72
1
 10
479.0025504787119
 20
266.8867604411139
 11
482.5979797464265
 21
263.5979797464287
 72
1
 10
482.5979797464265
 20
263.5979797464287
 11
485.8867604411118
 21
260.0025504787141
 72
1
 10
485.8867604411118
 20
260.0025504787141
 11
488.8757037045775
 21
256.1072837797842
 72
1
 10
488.8757037045775
 20
256.1072837797842
 11
491.4974226119102
 21
251.9999999999817
 72
1
 10
491.4974226119102
 20
251.9999999999817
 11
493.7435752521024
 21
247.6758829347529
 72
1
 10
493.7435752521024
 20
247.6758829347529
 11
495.6225035361616
 21
243.1397487886513
 72
1
 10
495.6225035361616
 20
243.1397487886513
 11
497.091846272167
 21
238.4938665257242
 72
1
 10
497.091846272167
 20
238.4938665257242
 11
498.1374830628215
 21
233.7723258006436
 72
1
 10
498.1374830628215
 20
233.7723258006436
 11
498.7735343054264
 21
228.9410369587287
 72
1
 10
498.7735343054264
 20
228.9410369587287
 11
498.9999999999819
 21
223.9999999999837
 72
1
 10
498.9999999999819
 20
223.9999999999837
 11
498.9999999999819
 21
92.25858073362858
 72
1
 10
498.9999999999819
 20
92.25858073362855
 11
498.6877900098472
 21
89.21410629195333
 72
1
 10
498.6877900098472
 20
89.21410629195333
 11
497.7641567165082
 21
86.29636722832234
 72
1
 10
497.7641567165082
 20
86.29636722832234
 11
496.267549125484
 21
83.6268231806518
 72
1
 10
496.267549125484
 20
83.6268231806518
 11
494.2602680155982
 21
81.3166019250372
 72
1
 10
494.2602680155982
 20
81.3166019250372
 11
464.6714472460119
 21
53.5712336810837
 72
1
 10
464.6714472460119
 20
53.5712336810837
 11
461.5801500954113
 21
51.02368356907255
 72
1
 10
461.5801500954113
 20
51.02368356907255
 11
458.2497618114977
 21
48.91153749739276
 72
1
 10
458.2497618114977
 20
48.91153749739276
 11
454.6513634781774
 21
47.2233577946136
 72
1
 10
454.6513634781774
 20
47.2233577946136
 11
450.8717118437102
 21
45.99345747501853
 72
1
 10
450.8717118437102
 20
45.99345747501853
 11
446.9667097890932
 21
45.25225559460829
 72
1
 10
446.9667097890932
 20
45.25225559460829
 11
442.9999999999815
 21
44.99999635677427
 97
0
 92
1
 93
60
 72
1
 10
599.9999999999804
 20
44.99999635677427
 11
596.0332902108688
 21
45.25225559460829
 72
1
 10
596.0332902108688
 20
45.25225559460829
 11
592.1282881562519
 21
45.99345747501853
 72
1
 10
592.1282881562519
 20
45.99345747501853
 11
588.3486365217846
 21
47.2233577946136
 72
1
 10
588.3486365217846
 20
47.2233577946136
 11
584.7502381884643
 21
48.91153749739276
 72
1
 10
584.7502381884643
 20
48.91153749739276
 11
581.4198499045464
 21
51.02368356907255
 72
1
 10
581.4198499045464
 20
51.02368356907255
 11
578.3285527539501
 21
53.57123368107937
 72
1
 10
578.3285527539501
 20
53.57123368107937
 11
548.7397319843637
 21
81.3166019250372
 72
1
 10
548.7397319843637
 20
81.3166019250372
 11
546.7324508744824
 21
83.6268231806518
 72
1
 10
546.7324508744824
 20
83.6268231806518
 11
545.2358432834538
 21
86.29636722832234
 72
1
 10
545.2358432834538
 20
86.29636722832234
 11
544.3122099901148
 21
89.21410629195333
 72
1
 10
544.3122099901148
 20
89.21410629195333
 11
543.9999999999803
 21
92.25858073362855
 72
1
 10
543.9999999999803
 20
92.25858073362855
 11
543.9999999999803
 21
223.9999999999794
 72
1
 10
543.9999999999803
 20
223.9999999999794
 11
544.2264656945355
 21
228.9410369587287
 72
1
 10
544.2264656945355
 20
228.9410369587287
 11
544.8625169371362
 21
233.7723258006436
 72
1
 10
544.8625169371362
 20
233.7723258006436
 11
545.9081537277951
 21
238.4938665257242
 72
1
 10
545.9081537277951
 20
238.4938665257242
 11
547.3774964638003
 21
243.1397487886513
 72
1
 10
547.3774964638003
 20
243.1397487886513
 11
549.2564247478552
 21
247.6758829347485
 72
1
 10
549.2564247478552
 20
247.6758829347485
 11
551.5025773880519
 21
251.9999999999817
 72
1
 10
551.5025773880519
 20
251.9999999999817
 11
554.1242962953803
 21
256.1072837797799
 72
1
 10
554.1242962953803
 20
256.1072837797799
 11
557.113239558846
 21
260.0025504787141
 72
1
 10
557.113239558846
 20
260.0025504787141
 11
560.4020202535356
 21
263.5979797464287
 72
1
 10
560.4020202535356
 20
263.5979797464287
 11
563.9974495212458
 21
266.8867604411139
 72
1
 10
563.9974495212458
 20
266.8867604411139
 11
567.8927162201801
 21
269.8757037045796
 72
1
 10
567.8927162201801
 20
269.8757037045796
 11
571.9999999999826
 21
272.4974226119124
 72
1
 10
571.9999999999826
 20
272.4974226119124
 11
576.3241170652115
 21
274.7435752521046
 72
1
 10
576.3241170652115
 20
274.7435752521046
 11
580.8602512113085
 21
276.6225035361638
 72
1
 10
580.8602512113085
 20
276.6225035361638
 11
585.50613347424
 21
278.0918462721692
 72
1
 10
585.50613347424
 20
278.0918462721692
 11
590.2642569049306
 21
279.142299267386
 72
1
 10
590.2642569049306
 20
279.142299267386
 11
595.1321284524555
 21
279.783166714549
 72
1
 10
595.1321284524555
 20
279.783166714549
 11
599.9999999999804
 21
279.999999999984
 72
1
 10
599.9999999999804
 20
279.999999999984
 11
604.8678715475054
 21
279.783166714549
 72
1
 10
604.8678715475054
 20
279.783166714549
 11
609.7357430950304
 21
279.142299267386
 72
1
 10
609.7357430950304
 20
279.142299267386
 11
614.493866525721
 21
278.0918462721692
 72
1
 10
614.493866525721
 20
278.0918462721692
 11
619.1397487886525
 21
276.6225035361638
 72
1
 10
619.1397487886525
 20
276.6225035361638
 11
623.6758829347496
 21
274.7435752521046
 72
1
 10
623.6758829347496
 20
274.7435752521046
 11
627.9999999999785
 21
272.4974226119124
 72
1
 10
627.9999999999785
 20
272.4974226119124
 11
632.107283779781
 21
269.8757037045796
 72
1
 10
632.107283779781
 20
269.8757037045796
 11
636.0025504787109
 21
266.8867604411139
 72
1
 10
636.0025504787109
 20
266.8867604411139
 11
639.5979797464298
 21
263.5979797464287
 72
1
 10
639.5979797464298
 20
263.5979797464287
 11
642.8867604411108
 21
260.0025504787141
 72
1
 10
642.8867604411108
 20
260.0025504787141
 11
645.8757037045764
 21
256.1072837797799
 72
1
 10
645.8757037045764
 20
256.1072837797799
 11
648.4974226119092
 21
251.9999999999817
 72
1
 10
648.4974226119092
 20
251.9999999999817
 11
650.7435752521014
 21
247.6758829347485
 72
1
 10
650.7435752521014
 20
247.6758829347485
 11
652.6225035361606
 21
243.1397487886513
 72
1
 10
652.6225035361606
 20
243.1397487886513
 11
654.0918462721659
 21
238.4938665257242
 72
1
 10
654.0918462721659
 20
238.4938665257242
 11
655.1374830628205
 21
233.7723258006436
 72
1
 10
655.1374830628205
 20
233.7723258006436
 11
655.7735343054254
 21
228.9410369587287
 72
1
 10
655.7735343054254
 20
228.9410369587287
 11
655.9999999999807
 21
223.9999999999794
 72
1
 10
655.9999999999807
 20
223.9999999999794
 11
655.9999999999807
 21
92.25858073362858
 72
1
 10
655.9999999999807
 20
92.25858073362855
 11
655.6877900098463
 21
89.21410629195333
 72
1
 10
655.6877900098463
 20
89.21410629195333
 11
654.7641567165072
 21
86.29636722832234
 72
1
 10
654.7641567165072
 20
86.29636722832234
 11
653.2675491254829
 21
83.6268231806518
 72
1
 10
653.2675491254829
 20
83.6268231806518
 11
651.2602680155971
 21
81.3166019250372
 72
1
 10
651.2602680155971
 20
81.3166019250372
 11
621.6714472460109
 21
53.57123368107937
 72
1
 10
621.6714472460109
 20
53.57123368107937
 11
618.5801500954146
 21
51.02368356907255
 72
1
 10
618.5801500954146
 20
51.02368356907255
 11
615.2497618114968
 21
48.91153749739276
 72
1
 10
615.2497618114968
 20
48.91153749739276
 11
611.6513634781807
 21
47.2233577946136
 72
1
 10
611.6513634781807
 20
47.2233577946136
 11
607.8717118437091
 21
45.99345747501853
 72
1
 10
607.8717118437091
 20
45.99345747501853
 11
603.9667097890921
 21
45.25225559460829
 72
1
 10
603.9667097890921
 20
45.25225559460829
 11
599.9999999999804
 21
44.99999635677427
 97
0
 92
1
 93
60
 72
1
 10
128.9999999999793
 20
44.99999635677427
 11
125.0332902108719
 21
45.25225559460829
 72
1
 10
125.0332902108719
 20
45.25225559460829
 11
121.1282881562507
 21
45.99345747502286
 72
1
 10
121.1282881562507
 20
45.99345747502286
 11
117.3486365217791
 21
47.22335779461793
 72
1
 10
117.3486365217791
 20
47.22335779461793
 11
113.7502381884631
 21
48.91153749739276
 72
1
 10
113.7502381884631
 20
48.91153749739276
 11
110.4198499045452
 21
51.02368356907255
 72
1
 10
110.4198499045452
 20
51.02368356907255
 11
107.3285527539489
 21
53.5712336810837
 72
1
 10
107.3285527539489
 20
53.5712336810837
 11
77.73973198436268
 21
81.3166019250372
 72
1
 10
77.73973198436268
 20
81.3166019250372
 11
75.73245087447688
 21
83.6268231806518
 72
1
 10
75.73245087447688
 20
83.6268231806518
 11
74.23584328345267
 21
86.29636722832667
 72
1
 10
74.23584328345267
 20
86.29636722832667
 11
73.31220999011363
 21
89.21410629195333
 72
1
 10
73.31220999011363
 20
89.21410629195333
 11
72.99999999997907
 21
92.2585807336329
 72
1
 10
72.99999999997907
 20
92.2585807336329
 11
72.99999999997907
 21
223.9999999999837
 72
1
 10
72.99999999997907
 20
223.9999999999837
 11
73.22646569453444
 21
228.9410369587287
 72
1
 10
73.22646569453444
 20
228.9410369587287
 11
73.86251693713938
 21
233.7723258006436
 72
1
 10
73.86251693713938
 20
233.7723258006436
 11
74.90815372779392
 21
238.4938665257242
 72
1
 10
74.90815372779392
 20
238.4938665257242
 11
76.37749646379925
 21
243.1397487886513
 72
1
 10
76.37749646379925
 20
243.1397487886513
 11
78.25642474785849
 21
247.6758829347529
 72
1
 10
78.25642474785849
 20
247.6758829347529
 11
80.5025773880507
 21
251.999999999986
 72
1
 10
80.5025773880507
 20
251.999999999986
 11
83.12429629538342
 21
256.1072837797842
 72
1
 10
83.12429629538342
 20
256.1072837797842
 11
86.11323955884912
 21
260.0025504787141
 72
1
 10
86.11323955884912
 20
260.0025504787141
 11
89.40202025353004
 21
263.5979797464287
 72
1
 10
89.40202025353004
 20
263.5979797464287
 11
92.99744952124898
 21
266.8867604411139
 72
1
 10
92.99744952124898
 20
266.8867604411139
 11
96.89271622017885
 21
269.8757037045796
 72
1
 10
96.89271622017885
 20
269.8757037045796
 11
100.9999999999813
 21
272.4974226119124
 72
1
 10
100.9999999999813
 20
272.4974226119124
 11
105.3241170652102
 21
274.7435752521046
 72
1
 10
105.3241170652102
 20
274.7435752521046
 11
109.8602512113074
 21
276.6225035361638
 72
1
 10
109.8602512113074
 20
276.6225035361638
 11
114.5061334742389
 21
278.0918462721735
 72
1
 10
114.5061334742389
 20
278.0918462721735
 11
119.2642569049294
 21
279.142299267386
 72
1
 10
119.2642569049294
 20
279.142299267386
 11
124.1321284524544
 21
279.7831667145533
 72
1
 10
124.1321284524544
 20
279.7831667145533
 11
128.9999999999793
 21
279.999999999984
 72
1
 10
128.9999999999793
 20
279.999999999984
 11
133.8678715475043
 21
279.7831667145533
 72
1
 10
133.8678715475043
 20
279.7831667145533
 11
138.7357430950292
 21
279.142299267386
 72
1
 10
138.7357430950292
 20
279.142299267386
 11
143.4938665257198
 21
278.0918462721735
 72
1
 10
143.4938665257198
 20
278.0918462721735
 11
148.1397487886513
 21
276.6225035361638
 72
1
 10
148.1397487886513
 20
276.6225035361638
 11
152.6758829347484
 21
274.7435752521046
 72
1
 10
152.6758829347484
 20
274.7435752521046
 11
156.9999999999773
 21
272.4974226119124
 72
1
 10
156.9999999999773
 20
272.4974226119124
 11
161.1072837797798
 21
269.8757037045796
 72
1
 10
161.1072837797798
 20
269.8757037045796
 11
165.002550478714
 21
266.8867604411139
 72
1
 10
165.002550478714
 20
266.8867604411139
 11
168.5979797464243
 21
263.5979797464287
 72
1
 10
168.5979797464243
 20
263.5979797464287
 11
171.8867604411139
 21
260.0025504787141
 72
1
 10
171.8867604411139
 20
260.0025504787141
 11
174.8757037045796
 21
256.1072837797842
 72
1
 10
174.8757037045796
 20
256.1072837797842
 11
177.497422611908
 21
251.999999999986
 72
1
 10
177.497422611908
 20
251.999999999986
 11
179.7435752521045
 21
247.6758829347529
 72
1
 10
179.7435752521045
 20
247.6758829347529
 11
181.6225035361594
 21
243.1397487886513
 72
1
 10
181.6225035361594
 20
243.1397487886513
 11
183.091846272169
 21
238.4938665257242
 72
1
 10
183.091846272169
 20
238.4938665257242
 11
184.1374830628236
 21
233.7723258006436
 72
1
 10
184.1374830628236
 20
233.7723258006436
 11
184.7735343054242
 21
228.9410369587287
 72
1
 10
184.7735343054242
 20
228.9410369587287
 11
184.9999999999796
 21
223.9999999999837
 72
1
 10
184.9999999999796
 20
223.9999999999837
 11
184.9999999999796
 21
92.25858073362858
 72
1
 10
184.9999999999796
 20
92.25858073362855
 11
184.687790009845
 21
89.21410629195333
 72
1
 10
184.687790009845
 20
89.21410629195333
 11
183.764156716506
 21
86.29636722832234
 72
1
 10
183.764156716506
 20
86.29636722832234
 11
182.2675491254818
 21
83.6268231806518
 72
1
 10
182.2675491254818
 20
83.6268231806518
 11
180.260268015596
 21
81.3166019250372
 72
1
 10
180.260268015596
 20
81.3166019250372
 11
150.671447246014
 21
53.5712336810837
 72
1
 10
150.671447246014
 20
53.5712336810837
 11
147.5801500954134
 21
51.02368356907255
 72
1
 10
147.5801500954134
 20
51.02368356907255
 11
144.2497618114955
 21
48.91153749739276
 72
1
 10
144.2497618114955
 20
48.91153749739276
 11
140.6513634781752
 21
47.22335779461793
 72
1
 10
140.6513634781752
 20
47.22335779461793
 11
136.8717118437079
 21
45.99345747502286
 72
1
 10
136.8717118437079
 20
45.99345747502286
 11
132.966709789091
 21
45.25225559460829
 72
1
 10
132.966709789091
 20
45.25225559460829
 11
128.9999999999793
 21
44.99999635677427
 97
0
 75
0
 76
2
 52
0.0
 41
1.0
 77
0
 78
20
 53
45.0
 43
12252.786
 44
12434.54
 45
-21.21320343559643
 46
21.21320343559643
 79
0
 53
50.0
 43
12252.786
 44
12434.54
 45
35.8628059355529
 46
-3.137112116082581
 79
2
 49
3.75
 49
-41.25
 53
355.0
 43
12252.786
 44
12434.54
 45
-6.93749278969262
 46
37.60975882391381
 79
2
 49
3.0
 49
-33.0
 53
100.451
 43
12255.774
 44
12434.278
 45
28.92585883244663
 46
34.4718682523209
 79
2
 49
3.186999999999999
 49
-35.057
 53
46.184
 43
12252.786
 44
12444.54
 45
53.36178341619348
 46
-8.276083351637912
 79
2
 49
5.625
 49
-61.875
 53
96.636
 43
12257.232
 44
12443.85
 45
46.73258838951883
 46
48.70578946507088
 79
2
 49
4.781
 49
-52.58600000000001
 53
351.184
 43
12252.786
 44
12444.54
 45
46.73289898260853
 46
48.70606386972063
 79
2
 49
4.5
 49
-49.5
 53
21.0
 43
12257.786
 44
12442.04
 45
29.84541469088208
 46
-20.13041340681508
 79
2
 49
3.75
 49
-41.25
 53
326.0
 43
12257.786
 44
12442.04
 45
12.16590498097535
 46
36.25759949298738
 79
2
 49
3.0
 49
-33.0
 53
71.45100000000001
 43
12260.273
 44
12440.362
 45
42.01141953737944
 46
16.12624067953512
 79
2
 49
3.186999999999999
 49
-35.057
 53
37.5
 43
12252.786
 44
12434.54
 45
0.6079927658645313
 46
16.64469269156557
 79
5
 49
0.16764
 49
-32.432
 49
0.16764
 49
-33.332
 49
-33.125
 53
37.5
 43
12252.786
 44
12434.54
 45
0.6079927658645313
 46
16.64469269156557
 79
3
 49
-66.1
 49
0.16764
 49
-32.957
 53
7.499999999999999
 43
12252.786
 44
12434.54
 45
13.15347687210743
 46
19.72058559411801
 79
5
 49
0.16764
 49
-18.932
 49
0.16764
 49
-31.682
 49
-12.625
 53
7.499999999999999
 43
12252.786
 44
12434.54
 45
13.15347687210743
 46
19.72058559411801
 79
3
 49
-50.95
 49
0.16764
 49
-12.457
 53
327.5
 43
12241.636
 44
12434.54
 45
26.69112180862045
 46
-1.127743586718983
 79
5
 49
0.16764
 49
-12.332
 49
0.16764
 49
-38.832
 49
-51.75
 53
327.5
 43
12241.636
 44
12434.54
 45
26.69112180862045
 46
-1.127743586718983
 79
3
 49
-51.5
 49
0.16764
 49
-51.582
 53
317.5
 43
12236.636
 44
12434.54
 45
29.15930846711931
 46
5.005249116615885
 79
5
 49
0.16764
 49
-16.082
 49
0.16764
 49
-25.732
 49
-36.75
 53
317.5
 43
12236.636
 44
12434.54
 45
29.15930846711931
 46
5.005249116615885
 79
3
 49
-42.14999999999999
 49
0.16764
 49
-36.582
 53
317.5
 43
12236.636
 44
12434.54
 45
29.15930846711931
 46
5.005249116615885
 79
5
 49
0.16764
 49
-16.082
 49
0.16764
 49
-25.732
 49
-36.75
 53
317.5
 43
12236.636
 44
12434.54
 45
29.15930846711931
 46
5.005249116615885
 79
3
 49
-42.14999999999999
 49
0.16764
 49
-36.582
 98
1
 10
0.0
 20
0.0
  0
LINE
  5
33
330
2F
100
AcDbEntity
  8
A-DETL-GENF
370
25
100
AcDbLine
 10
1174.999999999998
 20
319.9999999999946
 30
0.0
 11
24.99999999999797
 21
319.9999999999985
 31
0.0
  0
LINE
  5
34
330
2F
100
AcDbEntity
  8
A-DETL-GENF
370
25
100
AcDbLine
 10
24.99999999999797
 20
319.9999999999985
 30
0.0
 11
24.99999999999784
 21
279.9999999999981
 31
0.0
  0
LINE
  5
35
330
2F
100
AcDbEntity
  8
A-DETL-GENF
370
25
100
AcDbLine
 10
24.99999999999784
 20
279.9999999999981
 30
0.0
 11
36.17577555177311
 21
268.8242244482228
 31
0.0
  0
LINE
  5
36
330
2F
100
AcDbEntity
  8
A-DETL-GENF
370
25
100
AcDbLine
 10
36.17577555177311
 20
268.8242244482228
 30
0.0
 11
30.36875492192876
 21
193.3329562602449
 31
0.0
  0
LINE
  5
37
330
2F
100
AcDbEntity
  8
A-DETL-GENF
370
25
100
AcDbLine
 10
30.36875492192876
 20
193.3329562602449
 30
0.0
 11
17.33035011152377
 21
180.2945514498398
 31
0.0
  0
LINE
  5
38
330
2F
100
AcDbEntity
  8
A-DETL-GENF
370
25
100
AcDbLine
 10
17.33035011152377
 20
180.29455144984
 30
0.0
 11
4.99999999999778
 21
19.99999999999789
 31
0.0
  0
LINE
  5
39
330
2F
100
AcDbEntity
  8
A-DETL-GENF
370
25
100
AcDbLine
 10
4.99999999999778
 20
19.99999999999789
 30
0.0
 11
-2.707e-13
 21
19.99999999999789
 31
0.0
  0
LINE
  5
3A
330
2F
100
AcDbEntity
  8
A-DETL-GENF
370
25
100
AcDbLine
 10
-2.707e-13
 20
19.99999999999789
 30
0.0
 11
-2.707e-13
 21
9.999999999999892
 31
0.0
  0
LINE
  5
3B
330
2F
100
AcDbEntity
  8
A-DETL-GENF
370
25
100
AcDbLine
 10
-2.707e-13
 20
9.999999999999892
 30
0.0
 11
9.999999999997726
 21
1.8273e-12
 31
0.0
  0
LINE
  5
3C
330
2F
100
AcDbEntity
  8
A-DETL-GENF
370
25
100
AcDbLine
 10
9.999999999997861
 20
1.895e-12
 30
0.0
 11
1189.999999999998
 21
-1.895e-12
 31
0.0
  0
LINE
  5
3D
330
2F
100
AcDbEntity
  8
A-DETL-GENF
370
25
100
AcDbLine
 10
1189.999999999998
 20
-1.895e-12
 30
0.0
 11
1199.999999999998
 21
9.999999999997998
 31
0.0
  0
LINE
  5
3E
330
2F
100
AcDbEntity
  8
A-DETL-GENF
370
25
100
AcDbLine
 10
1199.999999999998
 20
9.999999999997998
 30
0.0
 11
1199.999999999998
 21
19.99999999999789
 31
0.0
  0
LINE
  5
3F
330
2F
100
AcDbEntity
  8
A-DETL-GENF
370
25
100
AcDbLine
 10
1199.999999999998
 20
19.99999999999789
 30
0.0
 11
1194.999999999997
 21
19.99999999999789
 31
0.0
  0
LINE
  5
40
330
2F
100
AcDbEntity
  8
A-DETL-GENF
370
25
100
AcDbLine
 10
1194.999999999997
 20
19.99999999999782
 30
0.0
 11
1182.669649888471
 21
180.2945514498399
 31
0.0
  0
LINE
  5
41
330
2F
100
AcDbEntity
  8
A-DETL-GENF
370
25
100
AcDbLine
 10
1182.669649888471
 20
180.2945514498399
 30
0.0
 11
1169.631245078065
 21
193.3329562602454
 31
0.0
  0
LINE
  5
42
330
2F
100
AcDbEntity
  8
A-DETL-GENF
370
25
100
AcDbLine
 10
1169.631245078065
 20
193.3329562602454
 30
0.0
 11
1163.824224448222
 21
268.8242244482228
 31
0.0
  0
LINE
  5
43
330
2F
100
AcDbEntity
  8
A-DETL-GENF
370
25
100
AcDbLine
 10
1163.824224448222
 20
268.8242244482228
 30
0.0
 11
1174.999999999998
 21
279.9999999999983
 31
0.0
  0
LINE
  5
44
330
2F
100
AcDbEntity
  8
A-DETL-GENF
370
25
100
AcDbLine
 10
1174.999999999998
 20
279.9999999999983
 30
0.0
 11
1174.999999999998
 21
319.9999999999946
 31
0.0
  0
ARC
  5
45
330
2F
100
AcDbEntity
  8
A-DETL-GENF
370
25
100
AcDbCircle
 10
128.9999999999992
 20
223.9999999999992
 30
0.0
 40
55.9999999999998
100
AcDbArc
 50
6.616e-13
 51
180.0000000000004
  0
LINE
  5
46
330
2F
100
AcDbEntity
  8
A-DETL-GENF
370
25
100
AcDbLine
 10
184.9999999999991
 20
223.9999999999994
 30
0.0
 11
184.9999999999988
 21
92.25858073364758
 31
0.0
  0
ARC
  5
47
330
2F
100
AcDbEntity
  8
A-DETL-GENF
370
25
100
AcDbCircle
 10
170.0000000000011
 20
92.2585807336471
 30
0.0
 40
14.9999999999977
100
AcDbArc
 50
313.1584168806397
 51
1.8702e-12
  0
LINE
  5
48
330
2F
100
AcDbEntity
  8
A-DETL-GENF
370
25
100
AcDbLine
 10
180.2602680156165
 20
81.31660192505537
 30
0.0
 11
150.6714472460311
 21
53.57123368109781
 31
0.0
  0
ARC
  5
49
330
2F
100
AcDbEntity
  8
A-DETL-GENF
370
25
100
AcDbCircle
 10
128.999999999999
 20
76.68257113901826
 30
0.0
 40
31.68257478222732
100
AcDbArc
 50
226.8415831193593
 51
313.1584168806398
  0
LINE
  5
4A
330
2F
100
AcDbEntity
  8
A-DETL-GENF
370
25
100
AcDbLine
 10
107.3285527539668
 20
53.57123368109792
 30
0.0
 11
77.73973198438298
 21
81.31660192505417
 31
0.0
  0
ARC
  5
4B
330
2F
100
AcDbEntity
  8
A-DETL-GENF
370
25
100
AcDbCircle
 10
88.0000000000011
 20
92.25858073364907
 30
0.0
 40
15.00000000000181
100
AcDbArc
 50
179.999999999999
 51
226.8415831193603
  0
LINE
  5
4C
330
2F
100
AcDbEntity
  8
A-DETL-GENF
370
25
100
AcDbLine
 10
72.9999999999991
 20
92.25858073364934
 30
0.0
 11
72.99999999999937
 21
223.9999999999989
 31
0.0
  0
ARC
  5
4D
330
2F
100
AcDbEntity
  8
A-DETL-GENF
370
25
100
AcDbCircle
 10
285.9999999999991
 20
223.9999999999986
 30
0.0
 40
55.99999999999985
100
AcDbArc
 50
7.252e-13
 51
180.0000000000004
  0
LINE
  5
4E
330
2F
100
AcDbEntity
  8
A-DETL-GENF
370
25
100
AcDbLine
 10
341.999999999999
 20
223.9999999999989
 30
0.0
 11
341.9999999999989
 21
92.25858073364704
 31
0.0
  0
ARC
  5
4F
330
2F
100
AcDbEntity
  8
A-DETL-GENF
370
25
100
AcDbCircle
 10
327.0000000000006
 20
92.25858073364697
 30
0.0
 40
14.99999999999821
100
AcDbArc
 50
313.15841688064
 51
3.499e-13
  0
LINE
  5
50
330
2F
100
AcDbEntity
  8
A-DETL-GENF
370
25
100
AcDbLine
 10
337.2602680156166
 20
81.31660192505481
 30
0.0
 11
307.671447246031
 21
53.57123368109727
 31
0.0
  0
ARC
  5
51
330
2F
100
AcDbEntity
  8
A-DETL-GENF
370
25
100
AcDbCircle
 10
285.999999999999
 20
76.68257113901763
 30
0.0
 40
31.68257478222719
100
AcDbArc
 50
226.8415831193591
 51
313.1584168806398
  0
LINE
  5
52
330
2F
100
AcDbEntity
  8
A-DETL-GENF
370
25
100
AcDbLine
 10
264.3285527539668
 20
53.57123368109736
 30
0.0
 11
234.7397319843829
 21
81.31660192505367
 31
0.0
  0
ARC
  5
53
330
2F
100
AcDbEntity
  8
A-DETL-GENF
370
25
100
AcDbCircle
 10
245.0000000000018
 20
92.25858073364888
 30
0.0
 40
15.00000000000261
100
AcDbArc
 50
180.0
 51
226.841583119359
  0
LINE
  5
54
330
2F
100
AcDbEntity
  8
A-DETL-GENF
370
25
100
AcDbLine
 10
229.999999999999
 20
92.2585807336488
 30
0.0
 11
229.9999999999993
 21
223.9999999999984
 31
0.0
  0
ARC
  5
55
330
2F
100
AcDbEntity
  8
A-DETL-GENF
370
25
100
AcDbCircle
 10
442.9999999999993
 20
223.9999999999981
 30
0.0
 40
55.9999999999998
100
AcDbArc
 50
6.425e-13
 51
180.0000000000004
  0
LINE
  5
56
330
2F
100
AcDbEntity
  8
A-DETL-GENF
370
25
100
AcDbLine
 10
498.9999999999992
 20
223.9999999999984
 30
0.0
 11
498.9999999999989
 21
92.2585807336465
 31
0.0
  0
ARC
  5
57
330
2F
100
AcDbEntity
  8
A-DETL-GENF
370
25
100
AcDbCircle
 10
484.0000000000004
 20
92.25858073364653
 30
0.0
 40
14.99999999999862
100
AcDbArc
 50
313.1584168806406
 51
359.9999999999996
  0
LINE
  5
58
330
2F
100
AcDbEntity
  8
A-DETL-GENF
370
25
100
AcDbLine
 10
494.2602680156166
 20
81.31660192505426
 30
0.0
 11
464.6714472460311
 21
53.57123368109669
 31
0.0
  0
ARC
  5
59
330
2F
100
AcDbEntity
  8
A-DETL-GENF
370
25
100
AcDbCircle
 10
442.999999999999
 20
76.68257113901718
 30
0.0
 40
31.68257478222735
100
AcDbArc
 50
226.8415831193594
 51
313.1584168806399
  0
LINE
  5
5A
330
2F
100
AcDbEntity
  8
A-DETL-GENF
370
25
100
AcDbLine
 10
421.3285527539668
 20
53.57123368109679
 30
0.0
 11
391.7397319843831
 21
81.31660192505313
 31
0.0
  0
ARC
  5
5B
330
2F
100
AcDbEntity
  8
A-DETL-GENF
370
25
100
AcDbCircle
 10
402.000000000002
 20
92.2585807336485
 30
0.0
 40
15.00000000000271
100
AcDbArc
 50
180.0000000000006
 51
226.8415831193593
  0
LINE
  5
5C
330
2F
100
AcDbEntity
  8
A-DETL-GENF
370
25
100
AcDbLine
 10
386.9999999999992
 20
92.25858073364824
 30
0.0
 11
386.9999999999995
 21
223.9999999999978
 31
0.0
  0
ARC
  5
5D
330
2F
100
AcDbEntity
  8
A-DETL-GENF
370
25
100
AcDbCircle
 10
599.9999999999992
 20
223.9999999999976
 30
0.0
 40
55.99999999999975
100
AcDbArc
 50
5.979e-13
 51
180.0000000000004
  0
LINE
  5
5E
330
2F
100
AcDbEntity
  8
A-DETL-GENF
370
25
100
AcDbLine
 10
655.9999999999992
 20
223.9999999999978
 30
0.0
 11
655.9999999999989
 21
92.25858073364596
 31
0.0
  0
ARC
  5
5F
330
2F
100
AcDbEntity
  8
A-DETL-GENF
370
25
100
AcDbCircle
 10
641.0000000000009
 20
92.25858073364586
 30
0.0
 40
14.99999999999818
100
AcDbArc
 50
313.1584168806399
 51
4.039e-13
  0
LINE
  5
60
330
2F
100
AcDbEntity
  8
A-DETL-GENF
370
25
100
AcDbLine
 10
651.2602680156167
 20
81.31660192505373
 30
0.0
 11
621.6714472460312
 21
53.57123368109618
 31
0.0
  0
ARC
  5
61
330
2F
100
AcDbEntity
  8
A-DETL-GENF
370
25
100
AcDbCircle
 10
599.9999999999992
 20
76.68257113901657
 30
0.0
 40
31.68257478222727
100
AcDbArc
 50
226.8415831193593
 51
313.1584168806398
  0
LINE
  5
62
330
2F
100
AcDbEntity
  8
A-DETL-GENF
370
25
100
AcDbLine
 10
578.328552753967
 20
53.57123368109625
 30
0.0
 11
548.7397319843831
 21
81.31660192505258
 31
0.0
  0
ARC
  5
63
330
2F
100
AcDbEntity
  8
A-DETL-GENF
370
25
100
AcDbCircle
 10
559.000000000002
 20
92.25858073364795
 30
0.0
 40
15.00000000000275
100
AcDbArc
 50
180.0000000000005
 51
226.8415831193592
  0
LINE
  5
64
330
2F
100
AcDbEntity
  8
A-DETL-GENF
370
25
100
AcDbLine
 10
543.9999999999992
 20
92.25858073364772
 30
0.0
 11
543.9999999999995
 21
223.9999999999973
 31
0.0
  0
ARC
  5
65
330
2F
100
AcDbEntity
  8
A-DETL-GENF
370
25
100
AcDbCircle
 10
756.9999999999994
 20
223.999999999997
 30
0.0
 40
55.99999999999978
100
AcDbArc
 50
6.488e-13
 51
180.0000000000004
  0
LINE
  5
66
330
2F
100
AcDbEntity
  8
A-DETL-GENF
370
25
100
AcDbLine
 10
812.9999999999993
 20
223.9999999999973
 30
0.0
 11
812.999999999999
 21
92.25858073364542
 31
0.0
  0
ARC
  5
67
330
2F
100
AcDbEntity
  8
A-DETL-GENF
370
25
100
AcDbCircle
 10
798.0000000000009
 20
92.25858073364532
 30
0.0
 40
14.99999999999818
100
AcDbArc
 50
313.1584168806399
 51
4.039e-13
  0
LINE
  5
68
330
2F
100
AcDbEntity
  8
A-DETL-GENF
370
25
100
AcDbLine
 10
808.2602680156167
 20
81.3166019250532
 30
0.0
 11
778.6714472460312
 21
53.57123368109564
 31
0.0
  0
ARC
  5
69
330
2F
100
AcDbEntity
  8
A-DETL-GENF
370
25
100
AcDbCircle
 10
756.9999999999993
 20
76.68257113901603
 30
0.0
 40
31.68257478222719
100
AcDbArc
 50
226.8415831193591
 51
313.1584168806397
  0
LINE
  5
6A
330
2F
100
AcDbEntity
  8
A-DETL-GENF
370
25
100
AcDbLine
 10
735.3285527539671
 20
53.57123368109568
 30
0.0
 11
705.7397319843832
 21
81.31660192505197
 31
0.0
  0
ARC
  5
6B
330
2F
100
AcDbEntity
  8
A-DETL-GENF
370
25
100
AcDbCircle
 10
716.000000000002
 20
92.25858073364728
 30
0.0
 40
15.00000000000267
100
AcDbArc
 50
180.0
 51
226.8415831193594
  0
LINE
  5
6C
330
2F
100
AcDbEntity
  8
A-DETL-GENF
370
25
100
AcDbLine
 10
700.9999999999993
 20
92.25858073364716
 30
0.0
 11
700.9999999999995
 21
223.9999999999967
 31
0.0
  0
ARC
  5
6D
330
2F
100
AcDbEntity
  8
A-DETL-GENF
370
25
100
AcDbCircle
 10
913.9999999999995
 20
223.9999999999965
 30
0.0
 40
55.99999999999984
100
AcDbArc
 50
6.043e-13
 51
180.0000000000003
  0
LINE
  5
6E
330
2F
100
AcDbEntity
  8
A-DETL-GENF
370
25
100
AcDbLine
 10
969.9999999999993
 20
223.9999999999967
 30
0.0
 11
969.999999999999
 21
92.25858073364488
 31
0.0
  0
ARC
  5
6F
330
2F
100
AcDbEntity
  8
A-DETL-GENF
370
25
100
AcDbCircle
 10
955.0000000000009
 20
92.25858073364476
 30
0.0
 40
14.99999999999816
100
AcDbArc
 50
313.15841688064
 51
6.234e-13
  0
LINE
  5
70
330
2F
100
AcDbEntity
  8
A-DETL-GENF
370
25
100
AcDbLine
 10
965.2602680156167
 20
81.31660192505265
 30
0.0
 11
935.6714472460312
 21
53.5712336810951
 31
0.0
  0
ARC
  5
71
330
2F
100
AcDbEntity
  8
A-DETL-GENF
370
25
100
AcDbCircle
 10
913.9999999999993
 20
76.6825711390155
 30
0.0
 40
31.68257478222727
100
AcDbArc
 50
226.8415831193593
 51
313.1584168806397
  0
LINE
  5
72
330
2F
100
AcDbEntity
  8
A-DETL-GENF
370
25
100
AcDbLine
 10
892.3285527539672
 20
53.57123368109514
 30
0.0
 11
862.7397319843831
 21
81.31660192505142
 31
0.0
  0
ARC
  5
73
330
2F
100
AcDbEntity
  8
A-DETL-GENF
370
25
100
AcDbCircle
 10
873.0000000000023
 20
92.25858073364674
 30
0.0
 40
15.00000000000283
100
AcDbArc
 50
180.0
 51
226.8415831193588
  0
LINE
  5
74
330
2F
100
AcDbEntity
  8
A-DETL-GENF
370
25
100
AcDbLine
 10
857.9999999999992
 20
92.25858073364664
 30
0.0
 11
857.9999999999995
 21
223.9999999999962
 31
0.0
  0
ARC
  5
75
330
2F
100
AcDbEntity
  8
A-DETL-GENF
370
25
100
AcDbCircle
 10
1070.999999999999
 20
223.9999999999959
 30
0.0
 40
55.99999999999981
100
AcDbArc
 50
6.488e-13
 51
180.0000000000004
  0
LINE
  5
76
330
2F
100
AcDbEntity
  8
A-DETL-GENF
370
25
100
AcDbLine
 10
1126.999999999999
 20
223.9999999999962
 30
0.0
 11
1126.999999999999
 21
92.25858073364434
 31
0.0
  0
ARC
  5
77
330
2F
100
AcDbEntity
  8
A-DETL-GENF
370
25
100
AcDbCircle
 10
1112.0
 20
92.25858073364424
 30
0.0
 40
14.99999999999813
100
AcDbArc
 50
313.1584168806399
 51
6.234e-13
  0
LINE
  5
78
330
2F
100
AcDbEntity
  8
A-DETL-GENF
370
25
100
AcDbLine
 10
1122.260268015616
 20
81.31660192505211
 30
0.0
 11
1092.671447246031
 21
53.57123368109456
 31
0.0
  0
ARC
  5
79
330
2F
100
AcDbEntity
  8
A-DETL-GENF
370
25
100
AcDbCircle
 10
1070.999999999999
 20
76.68257113901491
 30
0.0
 40
31.68257478222719
100
AcDbArc
 50
226.8415831193592
 51
313.1584168806397
  0
LINE
  5
7A
330
2F
100
AcDbEntity
  8
A-DETL-GENF
370
25
100
AcDbLine
 10
1049.328552753967
 20
53.57123368109459
 30
0.0
 11
1019.739731984383
 21
81.31660192505089
 31
0.0
  0
ARC
  5
7B
330
2F
100
AcDbEntity
  8
A-DETL-GENF
370
25
100
AcDbCircle
 10
1030.000000000002
 20
92.25858073364618
 30
0.0
 40
15.00000000000283
100
AcDbArc
 50
180.0
 51
226.8415831193588
  0
LINE
  5
7C
330
2F
100
AcDbEntity
  8
A-DETL-GENF
370
25
100
AcDbLine
 10
1014.999999999999
 20
92.2585807336461
 30
0.0
 11
1014.999999999999
 21
223.9999999999957
 31
0.0
  0
ENDBLK
  5
31
330
2F
100
AcDbEntity
  8
0
100
AcDbBlockEnd
  0
ENDSEC
  0
SECTION
  2
ENTITIES
  0
INSERT
  5
7E
330
17
100
AcDbEntity
  8
0
100
AcDbBlockReference
  2
23 kanaalplaat_320 - std-3345150-00_0 Basismaterialen
 10
0.0
 20
0.0
 30
0.0
  0
ENDSEC
  0
SECTION
  2
OBJECTS
  0
DICTIONARY
  5
A
330
0
100
AcDbDictionary
281
1
  3
ACAD_COLOR
350
B
  3
ACAD_GROUP
350
C
  3
ACAD_LAYOUT
350
D
  3
ACAD_MATERIAL
350
E
  3
ACAD_MLEADERSTYLE
350
F
  3
ACAD_MLINESTYLE
350
10
  3
ACAD_PLOTSETTINGS
350
11
  3
ACAD_PLOTSTYLENAME
350
12
  3
ACAD_SCALELIST
350
14
  3
ACAD_TABLESTYLE
350
15
  3
ACAD_VISUALSTYLE
350
16
  3
EZDXF_META
350
2D
  0
DICTIONARY
  5
B
330
A
100
AcDbDictionary
281
1
  0
DICTIONARY
  5
C
330
A
100
AcDbDictionary
281
1
  0
DICTIONARY
  5
D
330
A
100
AcDbDictionary
281
1
  3
Model
350
1A
  3
Layout1
350
1E
  0
DICTIONARY
  5
E
330
A
100
AcDbDictionary
281
1
  3
ByBlock
350
1F
  3
ByLayer
350
20
  3
Global
350
21
  0
DICTIONARY
  5
F
330
A
100
AcDbDictionary
281
1
  3
Standard
350
2C
  0
DICTIONARY
  5
10
330
A
100
AcDbDictionary
281
1
  3
Standard
350
22
  0
DICTIONARY
  5
11
330
A
100
AcDbDictionary
281
1
  0
ACDBDICTIONARYWDFLT
  5
12
330
A
100
AcDbDictionary
281
1
  3
Normal
350
13
100
AcDbDictionaryWithDefault
340
13
  0
ACDBPLACEHOLDER
  5
13
330
12
  0
DICTIONARY
  5
14
330
A
100
AcDbDictionary
281
1
  0
DICTIONARY
  5
15
330
A
100
AcDbDictionary
281
1
  0
DICTIONARY
  5
16
330
A
100
AcDbDictionary
281
1
  0
LAYOUT
  5
1A
330
D
100
AcDbPlotSettings
  1

  4
A3
  6

 40
7.5
 41
20.0
 42
7.5
 43
20.0
 44
420.0
 45
297.0
 46
0.0
 47
0.0
 48
0.0
 49
0.0
140
0.0
141
0.0
142
1.0
143
1.0
 70
1024
 72
1
 73
0
 74
5
  7

 75
16
 76
0
 77
2
 78
300
147
1.0
148
0.0
149
0.0
100
AcDbLayout
  1
Model
 70
1
 71
0
 10
0.0
 20
0.0
 11
420.0
 21
297.0
 12
0.0
 22
0.0
 32
0.0
 14
1e+20
 24
1e+20
 34
1e+20
 15
-1e+20
 25
-1e+20
 35
-1e+20
146
0.0
 13
0.0
 23
0.0
 33
0.0
 16
1.0
 26
0.0
 36
0.0
 17
0.0
 27
1.0
 37
0.0
 76
1
330
17
  0
LAYOUT
  5
1E
330
D
100
AcDbPlotSettings
  1

  4
A3
  6

 40
7.5
 41
20.0
 42
7.5
 43
20.0
 44
420.0
 45
297.0
 46
0.0
 47
0.0
 48
0.0
 49
0.0
140
0.0
141
0.0
142
1.0
143
1.0
 70
0
 72
1
 73
0
 74
5
  7

 75
16
 76
0
 77
2
 78
300
147
1.0
148
0.0
149
0.0
100
AcDbLayout
  1
Layout1
 70
1
 71
1
 10
0.0
 20
0.0
 11
420.0
 21
297.0
 12
0.0
 22
0.0
 32
0.0
 14
1e+20
 24
1e+20
 34
1e+20
 15
-1e+20
 25
-1e+20
 35
-1e+20
146
0.0
 13
0.0
 23
0.0
 33
0.0
 16
1.0
 26
0.0
 36
0.0
 17
0.0
 27
1.0
 37
0.0
 76
1
330
1B
  0
MATERIAL
  5
1F
102
{ACAD_REACTORS
330
E
102
}
330
E
100
AcDbMaterial
  1
ByBlock
  2

 70
0
 40
1.0
 71
1
 41
1.0
 91
-1023410177
 42
1.0
 72
1
  3

 73
1
 74
1
 75
1
 44
0.5
 73
0
 45
1.0
 46
1.0
 77
1
  4

 78
1
 79
1
170
1
 48
1.0
171
1
  6

172
1
173
1
174
1
140
1.0
141
1.0
175
1
  7

176
1
177
1
178
1
143
1.0
179
1
  8

270
1
271
1
272
1
145
1.0
146
1.0
273
1
  9

274
1
275
1
276
1
 42
1.0
 72
1
  3

 73
1
 74
1
 75
1
 94
63
  0
MATERIAL
  5
20
102
{ACAD_REACTORS
330
E
102
}
330
E
100
AcDbMaterial
  1
ByLayer
  2

 70
0
 40
1.0
 71
1
 41
1.0
 91
-1023410177
 42
1.0
 72
1
  3

 73
1
 74
1
 75
1
 44
0.5
 73
0
 45
1.0
 46
1.0
 77
1
  4

 78
1
 79
1
170
1
 48
1.0
171
1
  6

172
1
173
1
174
1
140
1.0
141
1.0
175
1
  7

176
1
177
1
178
1
143
1.0
179
1
  8

270
1
271
1
272
1
145
1.0
146
1.0
273
1
  9

274
1
275
1
276
1
 42
1.0
 72
1
  3

 73
1
 74
1
 75
1
 94
63
  0
MATERIAL
  5
21
102
{ACAD_REACTORS
330
E
102
}
330
E
100
AcDbMaterial
  1
Global
  2

 70
0
 40
1.0
 71
1
 41
1.0
 91
-1023410177
 42
1.0
 72
1
  3

 73
1
 74
1
 75
1
 44
0.5
 73
0
 45
1.0
 46
1.0
 77
1
  4

 78
1
 79
1
170
1
 48
1.0
171
1
  6

172
1
173
1
174
1
140
1.0
141
1.0
175
1
  7

176
1
177
1
178
1
143
1.0
179
1
  8

270
1
271
1
272
1
145
1.0
146
1.0
273
1
  9

274
1
275
1
276
1
 42
1.0
 72
1
  3

 73
1
 74
1
 75
1
 94
63
  0
MLINESTYLE
  5
22
102
{ACAD_REACTORS
330
10
102
}
330
10
100
AcDbMlineStyle
  2
Standard
 70
0
  3

 62
256
 51
90.0
 52
90.0
 71
2
 49
0.5
 62
256
  6
BYLAYER
 49
-0.5
 62
256
  6
BYLAYER
  0
MLEADERSTYLE
  5
2C
102
{ACAD_REACTORS
330
F
102
}
330
F
100
AcDbMLeaderStyle
179
2
170
2
171
1
172
0
 90
2
 40
0.0
 41
0.0
173
1
 91
-1056964608
 92
-2
290
1
 42
2.0
291
1
 43
8.0
  3
Standard
 44
4.0
300

342
29
174
1
175
1
176
0
178
1
 93
-1056964608
 45
4.0
292
0
297
0
 46
4.0
 94
-1056964608
 47
1.0
 49
1.0
140
1.0
294
1
141
0.0
177
0
142
1.0
295
0
296
0
143
3.75
271
0
272
9
273
9
  0
DICTIONARY
  5
2D
330
A
100
AcDbDictionary
280
1
281
1
  3
CREATED_BY_EZDXF
350
2E
  3
WRITTEN_BY_EZDXF
350
82
  0
DICTIONARYVAR
  5
2E
330
2D
100
DictionaryVariables
280
0
  1
1.4.3 @ 2026-02-13T04:54:07.644474+00:00
  0
DICTIONARYVAR
  5
82
330
2D
100
DictionaryVariables
280
0
  1
1.4.3 @ 2026-02-13T04:54:07.651149+00:00
  0
ENDSEC
  0
EOF
