  0
SECTION
  2
HEADER
  9
$ACADVER
  1
AC1032
  9
$ACADMAINTVER
 90
4
  9
$DWGCODEPAGE
  3
ANSI_1252
  9
$LASTSAVEDBY
  1
ezdxf
  9
$REQUIREDVERSIONS
160
0
  9
$INSBASE
 10
0.0
 20
0.0
 30
0.0
  9
$EXTMIN
 10
1e+20
 20
1e+20
 30
1e+20
  9
$EXTMAX
 10
-1e+20
 20
-1e+20
 30
-1e+20
  9
$LIMMIN
 10
0.0
 20
0.0
  9
$LIMMAX
 10
420.0
 20
297.0
  9
$ORTHOMODE
 70
0
  9
$REGENMODE
 70
1
  9
$FILLMODE
 70
1
  9
$QTEXTMODE
 70
0
  9
$MIRRTEXT
 70
1
  9
$LTSCALE
 40
1.0
  9
$ATTMODE
 70
1
  9
$TEXTSIZE
 40
2.5
  9
$TRACEWID
 40
1.0
  9
$TEXTSTYLE
  7
Standard
  9
$CLAYER
  8
0
  9
$CELTYPE
  6
ByLayer
  9
$CECOLOR
 62
256
  9
$CELTSCALE
 40
1.0
  9
$DISPSILH
 70
0
  9
$DIMSCALE
 40
1.0
  9
$DIMASZ
 40
2.5
  9
$DIMEXO
 40
0.625
  9
$DIMDLI
 40
3.75
  9
$DIMRND
 40
0.0
  9
$DIMDLE
 40
0.0
  9
$DIMEXE
 40
1.25
  9
$DIMTP
 40
0.0
  9
$DIMTM
 40
0.0
  9
$DIMTXT
 40
2.5
  9
$DIMCEN
 40
2.5
  9
$DIMTSZ
 40
0.0
  9
$DIMTOL
 70
0
  9
$DIMLIM
 70
0
  9
$DIMTIH
 70
0
  9
$DIMTOH
 70
0
  9
$DIMSE1
 70
0
  9
$DIMSE2
 70
0
  9
$DIMTAD
 70
1
  9
$DIMZIN
 70
8
  9
$DIMBLK
  1

  9
$DIMASO
 70
1
  9
$DIMSHO
 70
1
  9
$DIMPOST
  1

  9
$DIMAPOST
  1

  9
$DIMALT
 70
0
  9
$DIMALTD
 70
3
  9
$DIMALTF
 40
0.03937007874
  9
$DIMLFAC
 40
1.0
  9
$DIMTOFL
 70
1
  9
$DIMTVP
 40
0.0
  9
$DIMTIX
 70
0
  9
$DIMSOXD
 70
0
  9
$DIMSAH
 70
0
  9
$DIMBLK1
  1

  9
$DIMBLK2
  1

  9
$DIMSTYLE
  2
ISO-25
  9
$DIMCLRD
 70
0
  9
$DIMCLRE
 70
0
  9
$DIMCLRT
 70
0
  9
$DIMTFAC
 40
1.0
  9
$DIMGAP
 40
0.625
  9
$DIMJUST
 70
0
  9
$DIMSD1
 70
0
  9
$DIMSD2
 70
0
  9
$DIMTOLJ
 70
0
  9
$DIMTZIN
 70
8
  9
$DIMALTZ
 70
0
  9
$DIMALTTZ
 70
0
  9
$DIMUPT
 70
0
  9
$DIMDEC
 70
2
  9
$DIMTDEC
 70
2
  9
$DIMALTU
 70
2
  9
$DIMALTTD
 70
3
  9
$DIMTXSTY
  7
Standard
  9
$DIMAUNIT
 70
0
  9
$DIMADEC
 70
0
  9
$DIMALTRND
 40
0.0
  9
$DIMAZIN
 70
0
  9
$DIMDSEP
 70
44
  9
$DIMATFIT
 70
3
  9
$DIMFRAC
 70
0
  9
$DIMLDRBLK
  1

  9
$DIMLUNIT
 70
2
  9
$DIMLWD
 70
-2
  9
$DIMLWE
 70
-2
  9
$DIMTMOVE
 70
0
  9
$DIMFXL
 40
1.0
  9
$DIMFXLON
 70
0
  9
$DIMJOGANG
 40
0.785398163397
  9
$DIMTFILL
 70
0
  9
$DIMTFILLCLR
 70
0
  9
$DIMARCSYM
 70
0
  9
$DIMLTYPE
  6

  9
$DIMLTEX1
  6

  9
$DIMLTEX2
  6

  9
$DIMTXTDIRECTION
 70
0
  9
$LUNITS
 70
2
  9
$LUPREC
 70
4
  9
$SKETCHINC
 40
1.0
  9
$FILLETRAD
 40
10.0
  9
$AUNITS
 70
0
  9
$AUPREC
 70
2
  9
$MENU
  1
.
  9
$ELEVATION
 40
0.0
  9
$PELEVATION
 40
0.0
  9
$THICKNESS
 40
0.0
  9
$LIMCHECK
 70
0
  9
$CHAMFERA
 40
0.0
  9
$CHAMFERB
 40
0.0
  9
$CHAMFERC
 40
0.0
  9
$CHAMFERD
 40
0.0
  9
$SKPOLY
 70
0
  9
$TDCREATE
 40
2461085.2459143517
  9
$TDUCREATE
 40
2458532.153996898
  9
$TDUPDATE
 40
2461085.2459143517
  9
$TDUUPDATE
 40
2458532.1544311
  9
$TDINDWG
 40
0.0
  9
$TDUSRTIMER
 40
0.0
  9
$USRTIMER
 70
1
  9
$ANGBASE
 50
0.0
  9
$ANGDIR
 70
0
  9
$PDMODE
 70
0
  9
$PDSIZE
 40
0.0
  9
$PLINEWID
 40
0.0
  9
$SPLFRAME
 70
0
  9
$SPLINETYPE
 70
6
  9
$SPLINESEGS
 70
8
  9
$HANDSEED
  5
77
  9
$SURFTAB1
 70
6
  9
$SURFTAB2
 70
6
  9
$SURFTYPE
 70
6
  9
$SURFU
 70
6
  9
$SURFV
 70
6
  9
$UCSBASE
  2

  9
$UCSNAME
  2

  9
$UCSORG
 10
0.0
 20
0.0
 30
0.0
  9
$UCSXDIR
 10
1.0
 20
0.0
 30
0.0
  9
$UCSYDIR
 10
0.0
 20
1.0
 30
0.0
  9
$UCSORTHOREF
  2

  9
$UCSORTHOVIEW
 70
0
  9
$UCSORGTOP
 10
0.0
 20
0.0
 30
0.0
  9
$UCSORGBOTTOM
 10
0.0
 20
0.0
 30
0.0
  9
$UCSORGLEFT
 10
0.0
 20
0.0
 30
0.0
  9
$UCSORGRIGHT
 10
0.0
 20
0.0
 30
0.0
  9
$UCSORGFRONT
 10
0.0
 20
0.0
 30
0.0
  9
$UCSORGBACK
 10
0.0
 20
0.0
 30
0.0
  9
$PUCSBASE
  2

  9
$PUCSNAME
  2

  9
$PUCSORG
 10
0.0
 20
0.0
 30
0.0
  9
$PUCSXDIR
 10
1.0
 20
0.0
 30
0.0
  9
$PUCSYDIR
 10
0.0
 20
1.0
 30
0.0
  9
$PUCSORTHOREF
  2

  9
$PUCSORTHOVIEW
 70
0
  9
$PUCSORGTOP
 10
0.0
 20
0.0
 30
0.0
  9
$PUCSORGBOTTOM
 10
0.0
 20
0.0
 30
0.0
  9
$PUCSORGLEFT
 10
0.0
 20
0.0
 30
0.0
  9
$PUCSORGRIGHT
 10
0.0
 20
0.0
 30
0.0
  9
$PUCSORGFRONT
 10
0.0
 20
0.0
 30
0.0
  9
$PUCSORGBACK
 10
0.0
 20
0.0
 30
0.0
  9
$USERI1
 70
0
  9
$USERI2
 70
0
  9
$USERI3
 70
0
  9
$USERI4
 70
0
  9
$USERI5
 70
0
  9
$USERR1
 40
0.0
  9
$USERR2
 40
0.0
  9
$USERR3
 40
0.0
  9
$USERR4
 40
0.0
  9
$USERR5
 40
0.0
  9
$WORLDVIEW
 70
1
  9
$SHADEDGE
 70
3
  9
$SHADEDIF
 70
70
  9
$TILEMODE
 70
1
  9
$MAXACTVP
 70
64
  9
$PINSBASE
 10
0.0
 20
0.0
 30
0.0
  9
$PLIMCHECK
 70
0
  9
$PEXTMIN
 10
1e+20
 20
1e+20
 30
1e+20
  9
$PEXTMAX
 10
-1e+20
 20
-1e+20
 30
-1e+20
  9
$PLIMMIN
 10
0.0
 20
0.0
  9
$PLIMMAX
 10
420.0
 20
297.0
  9
$UNITMODE
 70
0
  9
$VISRETAIN
 70
1
  9
$PLINEGEN
 70
0
  9
$PSLTSCALE
 70
1
  9
$TREEDEPTH
 70
3020
  9
$CMLSTYLE
  2
Standard
  9
$CMLJUST
 70
0
  9
$CMLSCALE
 40
20.0
  9
$PROXYGRAPHICS
 70
1
  9
$MEASUREMENT
 70
1
  9
$CELWEIGHT
370
-1
  9
$ENDCAPS
280
0
  9
$JOINSTYLE
280
0
  9
$LWDISPLAY
290
0
  9
$INSUNITS
 70
6
  9
$HYPERLINKBASE
  1

  9
$STYLESHEET
  1

  9
$XEDIT
290
1
  9
$CEPSNTYPE
380
0
  9
$PSTYLEMODE
290
1
  9
$FINGERPRINTGUID
  2
{18CC3858-C19B-4046-BC5F-681EBB6081C8}
  9
$VERSIONGUID
  2
{C652866C-B68F-4F81-8A1F-3915EBE8104A}
  9
$EXTNAMES
290
1
  9
$PSVPSCALE
 40
0.0
  9
$OLESTARTUP
290
0
  9
$SORTENTS
280
127
  9
$INDEXCTL
280
0
  9
$HIDETEXT
280
1
  9
$XCLIPFRAME
280
1
  9
$HALOGAP
280
0
  9
$OBSCOLOR
 70
257
  9
$OBSLTYPE
280
0
  9
$INTERSECTIONDISPLAY
280
0
  9
$INTERSECTIONCOLOR
 70
257
  9
$DIMASSOC
280
2
  9
$PROJECTNAME
  1

  9
$CAMERADISPLAY
290
0
  9
$LENSLENGTH
 40
50.0
  9
$CAMERAHEIGHT
 40
0.0
  9
$STEPSPERSEC
 40
24.0
  9
$STEPSIZE
 40
100.0
  9
$3DDWFPREC
 40
2.0
  9
$PSOLWIDTH
 40
0.005
  9
$PSOLHEIGHT
 40
0.08
  9
$LOFTANG1
 40
1.570796326795
  9
$LOFTANG2
 40
1.570796326795
  9
$LOFTMAG1
 40
0.0
  9
$LOFTMAG2
 40
0.0
  9
$LOFTPARAM
 70
7
  9
$LOFTNORMALS
280
1
  9
$LATITUDE
 40
37.795
  9
$LONGITUDE
 40
-122.394
  9
$NORTHDIRECTION
 40
0.0
  9
$TIMEZONE
 70
-8000
  9
$LIGHTGLYPHDISPLAY
280
1
  9
$TILEMODELIGHTSYNCH
280
1
  9
$CMATERIAL
347
20
  9
$SOLIDHIST
280
0
  9
$SHOWHIST
280
1
  9
$DWFFRAME
280
2
  9
$DGNFRAME
280
2
  9
$REALWORLDSCALE
290
1
  9
$INTERFERECOLOR
 62
256
  9
$CSHADOW
280
0
  9
$SHADOWPLANELOCATION
 40
0.0
  0
ENDSEC
  0
SECTION
  2
CLASSES
  0
CLASS
  1
ACDBDICTIONARYWDFLT
  2
AcDbDictionaryWithDefault
  3
ObjectDBX Classes
 90
0
 91
0
280
0
281
0
  0
CLASS
  1
SUN
  2
AcDbSun
  3
SCENEOE
 90
1153
 91
0
280
0
281
0
  0
CLASS
  1
VISUALSTYLE
  2
AcDbVisualStyle
  3
ObjectDBX Classes
 90
4095
 91
0
280
0
281
0
  0
CLASS
  1
MATERIAL
  2
AcDbMaterial
  3
ObjectDBX Classes
 90
1153
 91
0
280
0
281
0
  0
CLASS
  1
SCALE
  2
AcDbScale
  3
ObjectDBX Classes
 90
1153
 91
0
280
0
281
0
  0
CLASS
  1
TABLESTYLE
  2
AcDbTableStyle
  3
ObjectDBX Classes
 90
4095
 91
0
280
0
281
0
  0
CLASS
  1
MLEADERSTYLE
  2
AcDbMLeaderStyle
  3
ACDB_MLEADERSTYLE_CLASS
 90
4095
 91
0
280
0
281
0
  0
CLASS
  1
DICTIONARYVAR
  2
AcDbDictionaryVar
  3
ObjectDBX Classes
 90
0
 91
0
280
0
281
0
  0
CLASS
  1
CELLSTYLEMAP
  2
AcDbCellStyleMap
  3
ObjectDBX Classes
 90
1152
 91
0
280
0
281
0
  0
CLASS
  1
MENTALRAYRENDERSETTINGS
  2
AcDbMentalRayRenderSettings
  3
SCENEOE
 90
1024
 91
0
280
0
281
0
  0
CLASS
  1
ACDBDETAILVIEWSTYLE
  2
AcDbDetailViewStyle
  3
ObjectDBX Classes
 90
1025
 91
0
280
0
281
0
  0
CLASS
  1
ACDBSECTIONVIEWSTYLE
  2
AcDbSectionViewStyle
  3
ObjectDBX Classes
 90
1025
 91
0
280
0
281
0
  0
CLASS
  1
RASTERVARIABLES
  2
AcDbRasterVariables
  3
ISM
 90
0
 91
0
280
0
281
0
  0
CLASS
  1
LAYOUT
  2
AcDbLayout
  3
ObjectDBX Classes
 90
0
 91
0
280
0
281
0
  0
CLASS
  1
ACDBPLACEHOLDER
  2
AcDbPlaceHolder
  3
ObjectDBX Classes
 90
0
 91
0
280
0
281
0
  0
ENDSEC
  0
SECTION
  2
TABLES
  0
TABLE
  2
VPORT
  5
8
330
0
100
AcDbSymbolTable
 70
1
  0
VPORT
  5
23
330
8
100
AcDbSymbolTableRecord
100
AcDbViewportTableRecord
  2
*Active
 70
0
 10
0.0
 20
0.0
 11
1.0
 21
1.0
 12
0.0
 22
0.0
 13
0.0
 23
0.0
 14
0.5
 24
0.5
 15
0.5
 25
0.5
 16
0.0
 26
0.0
 36
1.0
 17
0.0
 27
0.0
 37
0.0
 40
1000.0
 41
1.34
 42
50.0
 43
0.0
 44
0.0
 50
0.0
 51
0.0
 71
0
 72
1000
 73
1
 74
3
 75
0
 76
0
 77
0
 78
0
281
0
 65
0
146
0.0
  0
ENDTAB
  0
TABLE
  2
LTYPE
  5
2
330
0
100
AcDbSymbolTable
 70
3
  0
LTYPE
  5
24
330
2
100
AcDbSymbolTableRecord
100
AcDbLinetypeTableRecord
  2
ByBlock
 70
0
  3

 72
65
 73
0
 40
0.0
  0
LTYPE
  5
25
330
2
100
AcDbSymbolTableRecord
100
AcDbLinetypeTableRecord
  2
ByLayer
 70
0
  3

 72
65
 73
0
 40
0.0
  0
LTYPE
  5
26
330
2
100
AcDbSymbolTableRecord
100
AcDbLinetypeTableRecord
  2
Continuous
 70
0
  3

 72
65
 73
0
 40
0.0
  0
ENDTAB
  0
TABLE
  2
LAYER
  5
1
330
0
100
AcDbSymbolTable
 70
3
  0
LAYER
  5
27
330
1
100
AcDbSymbolTableRecord
100
AcDbLayerTableRecord
  2
0
 70
0
 62
7
  6
Continuous
370
-3
390
13
347
21
  0
LAYER
  5
28
330
1
100
AcDbSymbolTableRecord
100
AcDbLayerTableRecord
  2
Defpoints
 70
0
 62
7
  6
Continuous
290
0
370
-3
390
13
347
21
  0
LAYER
  5
71
330
1
100
AcDbSymbolTableRecord
100
AcDbLayerTableRecord
  2
A-DETL-GENF
 70
0
 62
92
  6
Continuous
370
18
390
13
347
21
348
0
  0
ENDTAB
  0
TABLE
  2
STYLE
  5
5
330
0
100
AcDbSymbolTable
 70
1
  0
STYLE
  5
29
330
5
100
AcDbSymbolTableRecord
100
AcDbTextStyleTableRecord
  2
Standard
 70
0
 40
0.0
 41
1.0
 50
0.0
 71
0
 42
2.5
  3
txt
  4

  0
ENDTAB
  0
TABLE
  2
VIEW
  5
7
330
0
100
AcDbSymbolTable
 70
0
  0
ENDTAB
  0
TABLE
  2
UCS
  5
6
330
0
100
AcDbSymbolTable
 70
0
  0
ENDTAB
  0
TABLE
  2
APPID
  5
3
330
0
100
AcDbSymbolTable
 70
3
  0
APPID
  5
2A
330
3
100
AcDbSymbolTableRecord
100
AcDbRegAppTableRecord
  2
ACAD
 70
0
  0
APPID
  5
74
330
3
100
AcDbSymbolTableRecord
100
AcDbRegAppTableRecord
  2
HATCHBACKGROUNDCOLOR
 70
0
  0
APPID
  5
75
330
3
100
AcDbSymbolTableRecord
100
AcDbRegAppTableRecord
  2
EZDXF
 70
0
  0
ENDTAB
  0
TABLE
  2
DIMSTYLE
  5
4
330
0
100
AcDbSymbolTable
 70
1
100
AcDbDimStyleTable
  0
DIMSTYLE
105
2B
330
4
100
AcDbSymbolTableRecord
100
AcDbDimStyleTableRecord
  2
Standard
 70
0
 40
1.0
 41
2.5
 42
0.625
 43
3.75
 44
1.25
 45
0.0
 46
0.0
 47
0.0
 48
0.0
 49
2.5
140
2.5
141
2.5
142
0.0
143
0.03937007874
144
1.0
145
0.0
146
1.0
147
0.625
148
0.0
 69
0
 70
0
 71
0
 72
0
 73
0
 74
0
 75
0
 76
0
 77
1
 78
8
 79
3
170
0
171
3
172
1
173
0
174
0
175
0
176
0
177
0
178
0
179
2
271
2
272
2
273
2
274
3
275
0
276
0
277
2
278
44
279
0
280
0
281
0
282
0
283
0
284
8
285
0
286
0
288
0
289
3
290
0
371
-2
372
-2
  0
ENDTAB
  0
TABLE
  2
BLOCK_RECORD
  5
9
330
0
100
AcDbSymbolTable
 70
3
  0
BLOCK_RECORD
  5
17
330
9
100
AcDbSymbolTableRecord
100
AcDbBlockTableRecord
  2
*Model_Space
340
1A
 70
0
280
1
281
0
  0
BLOCK_RECORD
  5
1B
330
9
100
AcDbSymbolTableRecord
100
AcDbBlockTableRecord
  2
*Paper_Space
340
1E
 70
0
280
1
281
0
  0
BLOCK_RECORD
  5
2F
330
9
100
AcDbSymbolTableRecord
100
AcDbBlockTableRecord
  2
23 VBI kanaalplaat - KPV150-3537654-00_0 Basismaterialen
340
0
 70
0
280
1
281
0
  0
ENDTAB
  0
ENDSEC
  0
SECTION
  2
BLOCKS
  0
BLOCK
  5
18
330
17
100
AcDbEntity
  8
0
100
AcDbBlockBegin
  2
*Model_Space
 70
0
 10
0.0
 20
0.0
 30
0.0
  3
*Model_Space
  1

  0
ENDBLK
  5
19
330
17
100
AcDbEntity
  8
0
100
AcDbBlockEnd
  0
BLOCK
  5
1C
330
1B
100
AcDbEntity
  8
0
100
AcDbBlockBegin
  2
*Paper_Space
 70
0
 10
0.0
 20
0.0
 30
0.0
  3
*Paper_Space
  1

  0
ENDBLK
  5
1D
330
1B
100
AcDbEntity
  8
0
100
AcDbBlockEnd
  0
BLOCK
  5
30
330
2F
100
AcDbEntity
  8
0
100
AcDbBlockBegin
  2
23 VBI kanaalplaat - KPV150-3537654-00_0 Basismaterialen
 70
0
 10
0.0
 20
0.0
 30
0.0
  3
23 VBI kanaalplaat - KPV150-3537654-00_0 Basismaterialen
  1

  0
HATCH
  5
32
330
2F
100
AcDbEntity
  8
A-DETL-GENF
370
5
100
AcDbHatch
 10
0.0
 20
0.0
 30
0.0
210
0.0
220
0.0
230
1.0
  2
FP_578
 70
0
 71
0
 91
12
 92
1
 93
20
 72
1
 10
807.6417694084204
 20
-1.08287e-11
 11
1189.99999999998
 21
-1.08287e-11
 72
1
 10
1189.99999999998
 20
-1.08287e-11
 11
1199.999999999978
 21
9.999999999986898
 72
1
 10
1199.999999999978
 20
9.999999999986898
 11
1199.999999999978
 21
19.99999999998895
 72
1
 10
1199.999999999978
 20
19.99999999998895
 11
1194.992208706766
 21
19.99999999998895
 72
1
 10
1194.992208706766
 20
19.99999999998895
 11
1188.009999999978
 21
51.42999999998917
 72
1
 10
1188.009999999978
 20
51.42999999998917
 11
1174.989999999982
 21
54.6799999999906
 72
1
 10
1174.989999999982
 20
54.6799999999906
 11
1164.936270298568
 21
99.93627029857426
 72
1
 10
1164.936270298568
 20
99.93627029857426
 11
1174.99999999998
 21
109.9999999999901
 72
1
 10
1174.99999999998
 20
109.9999999999901
 11
1174.99999999998
 21
149.9999999999854
 72
1
 10
1174.99999999998
 20
149.9999999999854
 11
24.99999999997704
 21
149.9999999999875
 72
1
 10
24.99999999997699
 20
149.9999999999875
 11
24.99999999997699
 21
109.9999999999901
 72
1
 10
24.99999999997699
 20
109.9999999999901
 11
35.41999999997809
 21
101.5399999999903
 72
1
 10
35.41999999997809
 20
101.5399999999903
 11
25.00999999997872
 21
54.6799999999906
 72
1
 10
25.00999999997872
 20
54.6799999999906
 11
11.98999999997821
 21
51.42999999998917
 72
1
 10
11.98999999997821
 20
51.42999999998917
 11
4.999999999977205
 21
19.99999999998895
 72
1
 10
4.999999999977205
 20
19.99999999998895
 11
-1.73257e-11
 21
19.99999999998895
 72
1
 10
-1.73259e-11
 20
19.99999999998895
 11
-1.73259e-11
 21
9.99999999999123
 72
1
 10
-1.73259e-11
 20
9.99999999999123
 11
9.999999999980401
 21
-8.6633e-12
 72
1
 10
9.999999999980401
 20
-8.6629e-12
 11
568.8532636529774
 21
-8.6629e-12
 72
1
 10
568.8532636529774
 20
-8.6629e-12
 11
807.6417694084204
 21
-1.08287e-11
 97
0
 92
1
 93
50
 72
1
 10
899.9999999999817
 20
34.99999999998555
 11
895.758363146335
 21
35.28156942422711
 72
1
 10
895.758363146335
 20
35.28156942422711
 11
891.5883810341497
 21
36.10741064559087
 72
1
 10
891.5883810341497
 20
36.10741064559087
 11
887.564149980986
 21
37.47720222449003
 72
1
 10
887.564149980986
 20
37.47720222449003
 11
883.749999999981
 21
39.35417437699329
 72
1
 10
883.749999999981
 20
39.35417437699329
 11
880.2174194432131
 21
41.71883907813655
 72
1
 10
880.2174194432131
 20
41.71883907813655
 11
877.0190296114176
 21
44.51902961142493
 72
1
 10
877.0190296114176
 20
44.51902961142493
 11
874.218839078127
 21
47.71741944322267
 72
1
 10
874.218839078127
 20
47.71741944322267
 11
871.8541743769838
 21
51.24999999998834
 72
1
 10
871.8541743769838
 20
51.24999999998834
 11
869.9772022244848
 21
55.06414998099127
 72
1
 10
869.9772022244848
 20
55.06414998099127
 11
868.6074106455857
 21
59.08838103415274
 72
1
 10
868.6074106455857
 20
59.08838103415274
 11
867.7862861870556
 21
63.22253577561188
 72
1
 10
867.7862861870556
 20
63.22253577561188
 11
867.4999999999803
 21
67.49999999998465
 72
1
 10
867.4999999999803
 20
67.49999999998465
 11
867.4999999999803
 21
82.49999999998558
 72
1
 10
867.4999999999803
 20
82.49999999998558
 11
867.7862861870556
 21
86.77746422436051
 72
1
 10
867.7862861870556
 20
86.77746422436051
 11
868.6074106455857
 21
90.91161896581748
 72
1
 10
868.6074106455857
 20
90.91161896581748
 11
869.9772022244848
 21
94.93585001898113
 72
1
 10
869.9772022244848
 20
94.93585001898113
 11
871.8541743769838
 21
98.74999999998622
 72
1
 10
871.8541743769838
 20
98.74999999998622
 11
874.218839078127
 21
102.2825805567519
 72
1
 10
874.218839078127
 20
102.2825805567519
 11
877.0190296114176
 21
105.4809703885496
 72
1
 10
877.0190296114176
 20
105.4809703885496
 11
880.2174194432131
 21
108.281160921838
 72
1
 10
880.2174194432131
 20
108.281160921838
 11
883.749999999981
 21
110.6458256229812
 72
1
 10
883.749999999981
 20
110.6458256229812
 11
887.564149980986
 21
112.5227977754802
 72
1
 10
887.564149980986
 20
112.5227977754802
 11
891.5883810341497
 21
113.8925893543815
 72
1
 10
891.5883810341497
 20
113.8925893543815
 11
895.758363146335
 21
114.7184305757474
 72
1
 10
895.758363146335
 20
114.7184305757474
 11
899.9999999999817
 21
114.9999999999847
 72
1
 10
899.9999999999817
 20
114.9999999999847
 11
904.2416368536238
 21
114.7184305757474
 72
1
 10
904.2416368536238
 20
114.7184305757474
 11
908.4116189658135
 21
113.8925893543815
 72
1
 10
908.4116189658135
 20
113.8925893543815
 11
912.4358500189728
 21
112.5227977754845
 72
1
 10
912.4358500189728
 20
112.5227977754845
 11
916.249999999978
 21
110.6458256229812
 72
1
 10
916.249999999978
 20
110.6458256229812
 11
919.7825805567458
 21
108.281160921838
 72
1
 10
919.7825805567458
 20
108.281160921838
 11
922.9809703885413
 21
105.4809703885496
 72
1
 10
922.9809703885413
 20
105.4809703885496
 11
925.7811609218318
 21
102.2825805567519
 72
1
 10
925.7811609218318
 20
102.2825805567519
 11
928.1458256229752
 21
98.74999999998622
 72
1
 10
928.1458256229752
 20
98.74999999998622
 11
930.0227977754785
 21
94.93585001898113
 72
1
 10
930.0227977754785
 20
94.93585001898113
 11
931.3925893543732
 21
90.91161896581748
 72
1
 10
931.3925893543732
 20
90.91161896581748
 11
932.2137138129033
 21
86.77746422436051
 72
1
 10
932.2137138129033
 20
86.77746422436051
 11
932.4999999999786
 21
82.49999999998558
 72
1
 10
932.4999999999786
 20
82.49999999998558
 11
932.4840322572352
 21
67.26142248060015
 72
1
 10
932.4840322572352
 20
67.26142248060015
 11
932.2137138129033
 21
63.22253577561188
 72
1
 10
932.2137138129033
 20
63.22253577561188
 11
931.3925893543732
 21
59.08838103415708
 72
1
 10
931.3925893543732
 20
59.08838103415708
 11
930.0227977754785
 21
55.06414998099127
 72
1
 10
930.0227977754785
 20
55.06414998099127
 11
928.1458256229752
 21
51.24999999998834
 72
1
 10
928.1458256229752
 20
51.24999999998834
 11
925.7811609218318
 21
47.71741944322267
 72
1
 10
925.7811609218318
 20
47.71741944322267
 11
922.9809703885413
 21
44.51902961142493
 72
1
 10
922.9809703885413
 20
44.51902961142493
 11
919.7825805567458
 21
41.71883907813655
 72
1
 10
919.7825805567458
 20
41.71883907813655
 11
916.249999999978
 21
39.35417437699329
 72
1
 10
916.249999999978
 20
39.35417437699329
 11
912.4358500189728
 21
37.47720222449003
 72
1
 10
912.4358500189728
 20
37.47720222449003
 11
908.4116189658135
 21
36.10741064559087
 72
1
 10
908.4116189658135
 20
36.10741064559087
 11
904.2416368536238
 21
35.28156942422711
 72
1
 10
904.2416368536238
 20
35.28156942422711
 11
899.9999999999817
 21
34.99999999998555
 97
0
 92
1
 93
50
 72
1
 10
999.9999999999806
 20
34.99999999998555
 11
995.7583631463341
 21
35.28156942422711
 72
1
 10
995.7583631463341
 20
35.28156942422711
 11
991.5883810341487
 21
36.10741064559087
 72
1
 10
991.5883810341487
 20
36.10741064559087
 11
987.564149980985
 21
37.47720222449003
 72
1
 10
987.564149980985
 20
37.47720222449003
 11
983.7499999999799
 21
39.35417437699329
 72
1
 10
983.7499999999799
 20
39.35417437699329
 11
980.2174194432163
 21
41.71883907813655
 72
1
 10
980.2174194432163
 20
41.71883907813655
 11
977.0190296114165
 21
44.51902961142493
 72
1
 10
977.0190296114165
 20
44.51902961142493
 11
974.218839078126
 21
47.71741944322267
 72
1
 10
974.218839078126
 20
47.71741944322267
 11
971.8541743769828
 21
51.24999999998834
 72
1
 10
971.8541743769828
 20
51.24999999998834
 11
969.9772022244838
 21
55.06414998099127
 72
1
 10
969.9772022244838
 20
55.06414998099127
 11
968.6074106455889
 21
59.08838103415274
 72
1
 10
968.6074106455889
 20
59.08838103415274
 11
967.786286187059
 21
63.22253577561188
 72
1
 10
967.786286187059
 20
63.22253577561188
 11
967.4999999999792
 21
67.49999999998465
 72
1
 10
967.4999999999792
 20
67.49999999998465
 11
967.4999999999792
 21
82.49999999998558
 72
1
 10
967.4999999999792
 20
82.49999999998558
 11
967.786286187059
 21
86.77746422436051
 72
1
 10
967.786286187059
 20
86.77746422436051
 11
968.6074106455889
 21
90.91161896581748
 72
1
 10
968.6074106455889
 20
90.91161896581748
 11
969.9772022244838
 21
94.93585001898113
 72
1
 10
969.9772022244838
 20
94.93585001898113
 11
971.8541743769828
 21
98.74999999998622
 72
1
 10
971.8541743769828
 20
98.74999999998622
 11
974.218839078126
 21
102.2825805567519
 72
1
 10
974.218839078126
 20
102.2825805567519
 11
977.0190296114165
 21
105.4809703885496
 72
1
 10
977.0190296114165
 20
105.4809703885496
 11
980.2174194432163
 21
108.281160921838
 72
1
 10
980.2174194432163
 20
108.281160921838
 11
983.7499999999799
 21
110.6458256229812
 72
1
 10
983.7499999999799
 20
110.6458256229812
 11
987.564149980985
 21
112.5227977754802
 72
1
 10
987.564149980985
 20
112.5227977754802
 11
991.5883810341487
 21
113.8925893543815
 72
1
 10
991.5883810341487
 20
113.8925893543815
 11
995.7583631463341
 21
114.7184305757474
 72
1
 10
995.7583631463341
 20
114.7184305757474
 11
999.9999999999806
 21
114.9999999999847
 72
1
 10
999.9999999999806
 20
114.9999999999847
 11
1004.241636853627
 21
114.7184305757474
 72
1
 10
1004.241636853627
 20
114.7184305757474
 11
1008.411618965812
 21
113.8925893543815
 72
1
 10
1008.411618965812
 20
113.8925893543815
 11
1012.435850018976
 21
112.5227977754802
 72
1
 10
1012.435850018976
 20
112.5227977754802
 11
1016.249999999977
 21
110.6458256229812
 72
1
 10
1016.249999999977
 20
110.6458256229812
 11
1019.782580556745
 21
108.281160921838
 72
1
 10
1019.782580556745
 20
108.281160921838
 11
1022.98097038854
 21
105.4809703885496
 72
1
 10
1022.98097038854
 20
105.4809703885496
 11
1025.781160921831
 21
102.2825805567519
 72
1
 10
1025.781160921831
 20
102.2825805567519
 11
1028.145825622974
 21
98.74999999998622
 72
1
 10
1028.145825622974
 20
98.74999999998622
 11
1030.022797775477
 21
94.93585001898113
 72
1
 10
1030.022797775477
 20
94.93585001898113
 11
1031.392589354376
 21
90.91161896581748
 72
1
 10
1031.392589354376
 20
90.91161896581748
 11
1032.213713812902
 21
86.77746422436051
 72
1
 10
1032.213713812902
 20
86.77746422436051
 11
1032.499999999981
 21
82.49999999998558
 72
1
 10
1032.499999999981
 20
82.49999999998558
 11
1032.484032257234
 21
67.26142248060015
 72
1
 10
1032.484032257234
 20
67.26142248060015
 11
1032.213713812902
 21
63.22253577561188
 72
1
 10
1032.213713812902
 20
63.22253577561188
 11
1031.392589354376
 21
59.08838103415274
 72
1
 10
1031.392589354376
 20
59.08838103415274
 11
1030.022797775477
 21
55.06414998099127
 72
1
 10
1030.022797775477
 20
55.06414998099127
 11
1028.145825622974
 21
51.24999999998834
 72
1
 10
1028.145825622974
 20
51.24999999998834
 11
1025.781160921835
 21
47.71741944322267
 72
1
 10
1025.781160921835
 20
47.71741944322267
 11
1022.98097038854
 21
44.51902961142493
 72
1
 10
1022.98097038854
 20
44.51902961142493
 11
1019.782580556745
 21
41.71883907813655
 72
1
 10
1019.782580556745
 20
41.71883907813655
 11
1016.249999999977
 21
39.35417437699329
 72
1
 10
1016.249999999977
 20
39.35417437699329
 11
1012.435850018976
 21
37.47720222449003
 72
1
 10
1012.435850018976
 20
37.47720222449003
 11
1008.411618965812
 21
36.10741064559087
 72
1
 10
1008.411618965812
 20
36.10741064559087
 11
1004.241636853627
 21
35.28156942422711
 72
1
 10
1004.241636853627
 20
35.28156942422711
 11
999.9999999999806
 21
34.99999999998555
 97
0
 92
1
 93
50
 72
1
 10
599.9999999999804
 20
34.99999999998555
 11
595.7583631463339
 21
35.28156942422711
 72
1
 10
595.7583631463339
 20
35.28156942422711
 11
591.5883810341486
 21
36.10741064559087
 72
1
 10
591.5883810341486
 20
36.10741064559087
 11
587.564149980985
 21
37.47720222449003
 72
1
 10
587.564149980985
 20
37.47720222449003
 11
583.7499999999798
 21
39.35417437699329
 72
1
 10
583.7499999999798
 20
39.35417437699329
 11
580.2174194432163
 21
41.71883907813655
 72
1
 10
580.2174194432163
 20
41.71883907813655
 11
577.0190296114164
 21
44.51902961142493
 72
1
 10
577.0190296114164
 20
44.51902961142493
 11
574.2188390781301
 21
47.71741944322267
 72
1
 10
574.2188390781301
 20
47.71741944322267
 11
571.8541743769869
 21
51.24999999998834
 72
1
 10
571.8541743769869
 20
51.24999999998834
 11
569.9772022244838
 21
55.06414998099127
 72
1
 10
569.9772022244838
 20
55.06414998099127
 11
568.6074106455845
 21
59.08838103415708
 72
1
 10
568.6074106455845
 20
59.08838103415708
 11
567.7862861870587
 21
63.22253577561188
 72
1
 10
567.7862861870587
 20
63.22253577561188
 11
567.4999999999792
 21
67.49999999998899
 72
1
 10
567.4999999999792
 20
67.49999999998899
 11
567.4999999999792
 21
82.49999999998774
 72
1
 10
567.4999999999792
 20
82.49999999998774
 11
567.7862861870587
 21
86.77746422436051
 72
1
 10
567.7862861870587
 20
86.77746422436051
 11
568.6074106455845
 21
90.91161896581748
 72
1
 10
568.6074106455845
 20
90.91161896581748
 11
569.9772022244838
 21
94.93585001898113
 72
1
 10
569.9772022244838
 20
94.93585001898113
 11
571.8541743769869
 21
98.74999999998622
 72
1
 10
571.8541743769869
 20
98.74999999998622
 11
574.2188390781301
 21
102.2825805567519
 72
1
 10
574.2188390781301
 20
102.2825805567519
 11
577.0190296114164
 21
105.4809703885496
 72
1
 10
577.0190296114164
 20
105.4809703885496
 11
580.2174194432163
 21
108.281160921838
 72
1
 10
580.2174194432163
 20
108.281160921838
 11
583.7499999999798
 21
110.6458256229812
 72
1
 10
583.7499999999798
 20
110.6458256229812
 11
587.564149980985
 21
112.5227977754845
 72
1
 10
587.564149980985
 20
112.5227977754845
 11
591.5883810341486
 21
113.8925893543815
 72
1
 10
591.5883810341486
 20
113.8925893543815
 11
595.7583631463339
 21
114.7184305757474
 72
1
 10
595.7583631463339
 20
114.7184305757474
 11
599.9999999999804
 21
114.999999999989
 72
1
 10
599.9999999999804
 20
114.999999999989
 11
604.241636853627
 21
114.7184305757474
 72
1
 10
604.241636853627
 20
114.7184305757474
 11
608.4116189658124
 21
113.8925893543815
 72
1
 10
608.4116189658124
 20
113.8925893543815
 11
612.4358500189761
 21
112.5227977754845
 72
1
 10
612.4358500189761
 20
112.5227977754845
 11
616.2499999999812
 21
110.6458256229812
 72
1
 10
616.2499999999812
 20
110.6458256229812
 11
619.7825805567447
 21
108.281160921838
 72
1
 10
619.7825805567447
 20
108.281160921838
 11
622.9809703885446
 21
105.4809703885496
 72
1
 10
622.9809703885446
 20
105.4809703885496
 11
625.7811609218307
 21
102.2825805567519
 72
1
 10
625.7811609218307
 20
102.2825805567519
 11
628.145825622974
 21
98.74999999998622
 72
1
 10
628.145825622974
 20
98.74999999998622
 11
630.022797775473
 21
94.93585001898113
 72
1
 10
630.022797775473
 20
94.93585001898113
 11
631.3925893543764
 21
90.91161896581748
 72
1
 10
631.3925893543764
 20
90.91161896581748
 11
632.2137138129021
 21
86.77746422436051
 72
1
 10
632.2137138129021
 20
86.77746422436051
 11
632.4999999999775
 21
82.49999999998774
 72
1
 10
632.4999999999775
 20
82.49999999998774
 11
632.4840322572343
 21
67.26142248060015
 72
1
 10
632.4840322572343
 20
67.26142248060015
 11
632.2137138129021
 21
63.22253577561188
 72
1
 10
632.2137138129021
 20
63.22253577561188
 11
631.3925893543764
 21
59.08838103415708
 72
1
 10
631.3925893543764
 20
59.08838103415708
 11
630.022797775473
 21
55.06414998099127
 72
1
 10
630.022797775473
 20
55.06414998099127
 11
628.145825622974
 21
51.24999999998834
 72
1
 10
628.145825622974
 20
51.24999999998834
 11
625.7811609218307
 21
47.71741944322267
 72
1
 10
625.7811609218307
 20
47.71741944322267
 11
622.9809703885446
 21
44.51902961142493
 72
1
 10
622.9809703885446
 20
44.51902961142493
 11
619.7825805567447
 21
41.71883907813655
 72
1
 10
619.7825805567447
 20
41.71883907813655
 11
616.2499999999812
 21
39.35417437699329
 72
1
 10
616.2499999999812
 20
39.35417437699329
 11
612.4358500189761
 21
37.47720222449003
 72
1
 10
612.4358500189761
 20
37.47720222449003
 11
608.4116189658124
 21
36.10741064559087
 72
1
 10
608.4116189658124
 20
36.10741064559087
 11
604.241636853627
 21
35.28156942422711
 72
1
 10
604.241636853627
 20
35.28156942422711
 11
599.9999999999804
 21
34.99999999998555
 97
0
 92
1
 93
50
 72
1
 10
699.9999999999793
 20
34.99999999998555
 11
695.7583631463372
 21
35.28156942422711
 72
1
 10
695.7583631463372
 20
35.28156942422711
 11
691.5883810341475
 21
36.10741064559087
 72
1
 10
691.5883810341475
 20
36.10741064559087
 11
687.5641499809838
 21
37.47720222449003
 72
1
 10
687.5641499809838
 20
37.47720222449003
 11
683.7499999999789
 21
39.35417437699329
 72
1
 10
683.7499999999789
 20
39.35417437699329
 11
680.2174194432152
 21
41.71883907813655
 72
1
 10
680.2174194432152
 20
41.71883907813655
 11
677.0190296114154
 21
44.51902961142493
 72
1
 10
677.0190296114154
 20
44.51902961142493
 11
674.2188390781292
 21
47.71741944322267
 72
1
 10
674.2188390781292
 20
47.71741944322267
 11
671.854174376986
 21
51.24999999998834
 72
1
 10
671.854174376986
 20
51.24999999998834
 11
669.9772022244827
 21
55.06414998099127
 72
1
 10
669.9772022244827
 20
55.06414998099127
 11
668.6074106455834
 21
59.08838103415708
 72
1
 10
668.6074106455834
 20
59.08838103415708
 11
667.7862861870578
 21
63.22253577561188
 72
1
 10
667.7862861870578
 20
63.22253577561188
 11
667.4999999999782
 21
67.49999999998465
 72
1
 10
667.4999999999782
 20
67.49999999998465
 11
667.4999999999782
 21
82.49999999998774
 72
1
 10
667.4999999999782
 20
82.49999999998774
 11
667.7862861870578
 21
86.77746422436051
 72
1
 10
667.7862861870578
 20
86.77746422436051
 11
668.6074106455834
 21
90.91161896581748
 72
1
 10
668.6074106455834
 20
90.91161896581748
 11
669.9772022244827
 21
94.93585001898113
 72
1
 10
669.9772022244827
 20
94.93585001898113
 11
671.854174376986
 21
98.74999999998622
 72
1
 10
671.854174376986
 20
98.74999999998622
 11
674.2188390781292
 21
102.2825805567519
 72
1
 10
674.2188390781292
 20
102.2825805567519
 11
677.0190296114154
 21
105.4809703885496
 72
1
 10
677.0190296114154
 20
105.4809703885496
 11
680.2174194432152
 21
108.281160921838
 72
1
 10
680.2174194432152
 20
108.281160921838
 11
683.7499999999789
 21
110.6458256229812
 72
1
 10
683.7499999999789
 20
110.6458256229812
 11
687.5641499809838
 21
112.5227977754845
 72
1
 10
687.5641499809838
 20
112.5227977754845
 11
691.5883810341475
 21
113.8925893543815
 72
1
 10
691.5883810341475
 20
113.8925893543815
 11
695.7583631463372
 21
114.7184305757474
 72
1
 10
695.7583631463372
 20
114.7184305757474
 11
699.9999999999793
 21
114.999999999989
 72
1
 10
699.9999999999793
 20
114.999999999989
 11
704.241636853626
 21
114.7184305757474
 72
1
 10
704.241636853626
 20
114.7184305757474
 11
708.4116189658113
 21
113.8925893543815
 72
1
 10
708.4116189658113
 20
113.8925893543815
 11
712.435850018975
 21
112.5227977754845
 72
1
 10
712.435850018975
 20
112.5227977754845
 11
716.2499999999801
 21
110.6458256229812
 72
1
 10
716.2499999999801
 20
110.6458256229812
 11
719.7825805567435
 21
108.281160921838
 72
1
 10
719.7825805567435
 20
108.281160921838
 11
722.9809703885434
 21
105.4809703885496
 72
1
 10
722.9809703885434
 20
105.4809703885496
 11
725.7811609218297
 21
102.2825805567519
 72
1
 10
725.7811609218297
 20
102.2825805567519
 11
728.145825622973
 21
98.74999999998622
 72
1
 10
728.145825622973
 20
98.74999999998622
 11
730.0227977754762
 21
94.93585001898113
 72
1
 10
730.0227977754762
 20
94.93585001898113
 11
731.3925893543754
 21
90.91161896581748
 72
1
 10
731.3925893543754
 20
90.91161896581748
 11
732.2137138129011
 21
86.77746422436051
 72
1
 10
732.2137138129011
 20
86.77746422436051
 11
732.4999999999808
 21
82.49999999998774
 72
1
 10
732.4999999999808
 20
82.49999999998774
 11
732.4840322572331
 21
67.26142248060015
 72
1
 10
732.4840322572331
 20
67.26142248060015
 11
732.2137138129011
 21
63.22253577561188
 72
1
 10
732.2137138129011
 20
63.22253577561188
 11
731.3925893543754
 21
59.08838103415708
 72
1
 10
731.3925893543754
 20
59.08838103415708
 11
730.0227977754762
 21
55.06414998099127
 72
1
 10
730.0227977754762
 20
55.06414998099127
 11
728.145825622973
 21
51.24999999998834
 72
1
 10
728.145825622973
 20
51.24999999998834
 11
725.7811609218297
 21
47.71741944322267
 72
1
 10
725.7811609218297
 20
47.71741944322267
 11
722.9809703885434
 21
44.51902961142493
 72
1
 10
722.9809703885434
 20
44.51902961142493
 11
719.7825805567435
 21
41.71883907813655
 72
1
 10
719.7825805567435
 20
41.71883907813655
 11
716.2499999999801
 21
39.35417437699329
 72
1
 10
716.2499999999801
 20
39.35417437699329
 11
712.435850018975
 21
37.47720222449003
 72
1
 10
712.435850018975
 20
37.47720222449003
 11
708.4116189658113
 21
36.10741064559087
 72
1
 10
708.4116189658113
 20
36.10741064559087
 11
704.241636853626
 21
35.28156942422711
 72
1
 10
704.241636853626
 20
35.28156942422711
 11
699.9999999999793
 21
34.99999999998555
 97
0
 92
1
 93
50
 72
1
 10
799.9999999999827
 20
34.99999999998555
 11
795.7583631463363
 21
35.28156942422711
 72
1
 10
795.7583631463363
 20
35.28156942422711
 11
791.5883810341508
 21
36.10741064559087
 72
1
 10
791.5883810341508
 20
36.10741064559087
 11
787.5641499809828
 21
37.47720222449003
 72
1
 10
787.5641499809828
 20
37.47720222449003
 11
783.7499999999777
 21
39.35417437699329
 72
1
 10
783.7499999999777
 20
39.35417437699329
 11
780.2174194432142
 21
41.71883907813655
 72
1
 10
780.2174194432142
 20
41.71883907813655
 11
777.0190296114185
 21
44.51902961142493
 72
1
 10
777.0190296114185
 20
44.51902961142493
 11
774.218839078128
 21
47.71741944322267
 72
1
 10
774.218839078128
 20
47.71741944322267
 11
771.8541743769848
 21
51.24999999998834
 72
1
 10
771.8541743769848
 20
51.24999999998834
 11
769.9772022244816
 21
55.06414998099127
 72
1
 10
769.9772022244816
 20
55.06414998099127
 11
768.6074106455825
 21
59.08838103415708
 72
1
 10
768.6074106455825
 20
59.08838103415708
 11
767.7862861870567
 21
63.22253577561188
 72
1
 10
767.7862861870567
 20
63.22253577561188
 11
767.4999999999815
 21
67.49999999998465
 72
1
 10
767.4999999999815
 20
67.49999999998465
 11
767.4999999999771
 21
82.49999999998558
 72
1
 10
767.4999999999771
 20
82.49999999998558
 11
767.7862861870567
 21
86.77746422436051
 72
1
 10
767.7862861870567
 20
86.77746422436051
 11
768.6074106455825
 21
90.91161896581748
 72
1
 10
768.6074106455825
 20
90.91161896581748
 11
769.9772022244816
 21
94.93585001898113
 72
1
 10
769.9772022244816
 20
94.93585001898113
 11
771.8541743769848
 21
98.74999999998622
 72
1
 10
771.8541743769848
 20
98.74999999998622
 11
774.218839078128
 21
102.2825805567519
 72
1
 10
774.218839078128
 20
102.2825805567519
 11
777.0190296114185
 21
105.4809703885496
 72
1
 10
777.0190296114185
 20
105.4809703885496
 11
780.2174194432142
 21
108.281160921838
 72
1
 10
780.2174194432142
 20
108.281160921838
 11
783.7499999999777
 21
110.6458256229812
 72
1
 10
783.7499999999777
 20
110.6458256229812
 11
787.5641499809828
 21
112.5227977754845
 72
1
 10
787.5641499809828
 20
112.5227977754845
 11
791.5883810341508
 21
113.8925893543815
 72
1
 10
791.5883810341508
 20
113.8925893543815
 11
795.7583631463363
 21
114.7184305757474
 72
1
 10
795.7583631463363
 20
114.7184305757474
 11
799.9999999999827
 21
114.999999999989
 72
1
 10
799.9999999999827
 20
114.999999999989
 11
804.2416368536248
 21
114.7184305757474
 72
1
 10
804.2416368536248
 20
114.7184305757474
 11
808.4116189658102
 21
113.8925893543815
 72
1
 10
808.4116189658102
 20
113.8925893543815
 11
812.435850018974
 21
112.5227977754845
 72
1
 10
812.435850018974
 20
112.5227977754845
 11
816.2499999999791
 21
110.6458256229812
 72
1
 10
816.2499999999791
 20
110.6458256229812
 11
819.7825805567426
 21
108.281160921838
 72
1
 10
819.7825805567426
 20
108.281160921838
 11
822.9809703885423
 21
105.4809703885496
 72
1
 10
822.9809703885423
 20
105.4809703885496
 11
825.7811609218286
 21
102.2825805567519
 72
1
 10
825.7811609218286
 20
102.2825805567519
 11
828.1458256229718
 21
98.74999999998622
 72
1
 10
828.1458256229718
 20
98.74999999998622
 11
830.022797775475
 21
94.93585001898113
 72
1
 10
830.022797775475
 20
94.93585001898113
 11
831.3925893543743
 21
90.91161896581748
 72
1
 10
831.3925893543743
 20
90.91161896581748
 11
832.2137138128999
 21
86.77746422436051
 72
1
 10
832.2137138128999
 20
86.77746422436051
 11
832.4999999999797
 21
82.49999999998558
 72
1
 10
832.4999999999797
 20
82.49999999998558
 11
832.4840322572365
 21
67.26142248060015
 72
1
 10
832.4840322572365
 20
67.26142248060015
 11
832.2137138128999
 21
63.22253577561188
 72
1
 10
832.2137138128999
 20
63.22253577561188
 11
831.3925893543743
 21
59.08838103415708
 72
1
 10
831.3925893543743
 20
59.08838103415708
 11
830.022797775475
 21
55.06414998099127
 72
1
 10
830.022797775475
 20
55.06414998099127
 11
828.1458256229718
 21
51.24999999998834
 72
1
 10
828.1458256229718
 20
51.24999999998834
 11
825.7811609218286
 21
47.71741944322267
 72
1
 10
825.7811609218286
 20
47.71741944322267
 11
822.9809703885423
 21
44.51902961142493
 72
1
 10
822.9809703885423
 20
44.51902961142493
 11
819.7825805567426
 21
41.71883907813655
 72
1
 10
819.7825805567426
 20
41.71883907813655
 11
816.2499999999791
 21
39.35417437699329
 72
1
 10
816.2499999999791
 20
39.35417437699329
 11
812.435850018974
 21
37.47720222449003
 72
1
 10
812.435850018974
 20
37.47720222449003
 11
808.4116189658102
 21
36.10741064559087
 72
1
 10
808.4116189658102
 20
36.10741064559087
 11
804.2416368536248
 21
35.28156942422711
 72
1
 10
804.2416368536248
 20
35.28156942422711
 11
799.9999999999827
 21
34.99999999998555
 97
0
 92
1
 93
50
 72
1
 10
1099.999999999979
 20
34.99999999998555
 11
1095.758363146333
 21
35.28156942422711
 72
1
 10
1095.758363146333
 20
35.28156942422711
 11
1091.588381034148
 21
36.10741064559087
 72
1
 10
1091.588381034148
 20
36.10741064559087
 11
1087.564149980984
 21
37.47720222449003
 72
1
 10
1087.564149980984
 20
37.47720222449003
 11
1083.749999999979
 21
39.35417437699329
 72
1
 10
1083.749999999979
 20
39.35417437699329
 11
1080.217419443215
 21
41.71883907813655
 72
1
 10
1080.217419443215
 20
41.71883907813655
 11
1077.019029611419
 21
44.51902961142493
 72
1
 10
1077.019029611419
 20
44.51902961142493
 11
1074.218839078129
 21
47.71741944321834
 72
1
 10
1074.218839078129
 20
47.71741944321834
 11
1071.854174376986
 21
51.24999999998834
 72
1
 10
1071.854174376986
 20
51.24999999998834
 11
1069.977202224483
 21
55.0641499809891
 72
1
 10
1069.977202224483
 20
55.0641499809891
 11
1068.607410645588
 21
59.08838103415274
 72
1
 10
1068.607410645588
 20
59.08838103415274
 11
1067.786286187057
 21
63.22253577561188
 72
1
 10
1067.786286187057
 20
63.22253577561188
 11
1067.499999999982
 21
67.49999999998465
 72
1
 10
1067.499999999982
 20
67.49999999998465
 11
1067.499999999982
 21
82.49999999998558
 72
1
 10
1067.499999999982
 20
82.49999999998558
 11
1067.786286187057
 21
86.77746422436051
 72
1
 10
1067.786286187057
 20
86.77746422436051
 11
1068.607410645588
 21
90.91161896581748
 72
1
 10
1068.607410645588
 20
90.91161896581748
 11
1069.977202224483
 21
94.93585001898113
 72
1
 10
1069.977202224483
 20
94.93585001898113
 11
1071.854174376986
 21
98.74999999998622
 72
1
 10
1071.854174376986
 20
98.74999999998622
 11
1074.218839078129
 21
102.2825805567519
 72
1
 10
1074.218839078129
 20
102.2825805567519
 11
1077.019029611419
 21
105.4809703885496
 72
1
 10
1077.019029611419
 20
105.4809703885496
 11
1080.217419443215
 21
108.281160921838
 72
1
 10
1080.217419443215
 20
108.281160921838
 11
1083.749999999979
 21
110.6458256229812
 72
1
 10
1083.749999999979
 20
110.6458256229812
 11
1087.564149980984
 21
112.5227977754802
 72
1
 10
1087.564149980984
 20
112.5227977754802
 11
1091.588381034148
 21
113.8925893543794
 72
1
 10
1091.588381034148
 20
113.8925893543794
 11
1095.758363146333
 21
114.7184305757453
 72
1
 10
1095.758363146333
 20
114.7184305757453
 11
1099.999999999979
 21
114.9999999999847
 72
1
 10
1099.999999999979
 20
114.9999999999847
 11
1104.241636853626
 21
114.7184305757453
 72
1
 10
1104.241636853626
 20
114.7184305757453
 11
1108.411618965811
 21
113.8925893543794
 72
1
 10
1108.411618965811
 20
113.8925893543794
 11
1112.435850018975
 21
112.5227977754802
 72
1
 10
1112.435850018975
 20
112.5227977754802
 11
1116.24999999998
 21
110.6458256229812
 72
1
 10
1116.24999999998
 20
110.6458256229812
 11
1119.782580556748
 21
108.281160921838
 72
1
 10
1119.782580556748
 20
108.281160921838
 11
1122.980970388543
 21
105.4809703885496
 72
1
 10
1122.980970388543
 20
105.4809703885496
 11
1125.781160921834
 21
102.2825805567519
 72
1
 10
1125.781160921834
 20
102.2825805567519
 11
1128.145825622977
 21
98.74999999998622
 72
1
 10
1128.145825622977
 20
98.74999999998622
 11
1130.022797775476
 21
94.93585001898113
 72
1
 10
1130.022797775476
 20
94.93585001898113
 11
1131.392589354375
 21
90.91161896581748
 72
1
 10
1131.392589354375
 20
90.91161896581748
 11
1132.213713812901
 21
86.77746422436051
 72
1
 10
1132.213713812901
 20
86.77746422436051
 11
1132.49999999998
 21
82.49999999998558
 72
1
 10
1132.49999999998
 20
82.49999999998558
 11
1132.484032257233
 21
67.26142248060015
 72
1
 10
1132.484032257233
 20
67.26142248060015
 11
1132.213713812901
 21
63.22253577561188
 72
1
 10
1132.213713812901
 20
63.22253577561188
 11
1131.392589354375
 21
59.08838103415274
 72
1
 10
1131.392589354375
 20
59.08838103415274
 11
1130.022797775476
 21
55.0641499809891
 72
1
 10
1130.022797775476
 20
55.0641499809891
 11
1128.145825622977
 21
51.24999999998834
 72
1
 10
1128.145825622977
 20
51.24999999998834
 11
1125.781160921834
 21
47.71741944321834
 72
1
 10
1125.781160921834
 20
47.71741944321834
 11
1122.980970388543
 21
44.51902961142493
 72
1
 10
1122.980970388543
 20
44.51902961142493
 11
1119.782580556748
 21
41.71883907813655
 72
1
 10
1119.782580556748
 20
41.71883907813655
 11
1116.24999999998
 21
39.35417437699329
 72
1
 10
1116.24999999998
 20
39.35417437699329
 11
1112.435850018975
 21
37.47720222449003
 72
1
 10
1112.435850018975
 20
37.47720222449003
 11
1108.411618965811
 21
36.10741064559087
 72
1
 10
1108.411618965811
 20
36.10741064559087
 11
1104.241636853626
 21
35.28156942422711
 72
1
 10
1104.241636853626
 20
35.28156942422711
 11
1099.999999999979
 21
34.99999999998555
 97
0
 92
1
 93
50
 72
1
 10
299.9999999999794
 20
34.99999999998987
 11
295.7583631463329
 21
35.28156942422928
 72
1
 10
295.7583631463329
 20
35.28156942422928
 11
291.5883810341475
 21
36.10741064559519
 72
1
 10
291.5883810341475
 20
36.10741064559519
 11
287.5641499809839
 21
37.47720222449436
 72
1
 10
287.5641499809839
 20
37.47720222449436
 11
283.7499999999788
 21
39.35417437699329
 72
1
 10
283.7499999999788
 20
39.35417437699329
 11
280.2174194432153
 21
41.71883907813655
 72
1
 10
280.2174194432153
 20
41.71883907813655
 11
277.0190296114154
 21
44.51902961142493
 72
1
 10
277.0190296114154
 20
44.51902961142493
 11
274.2188390781292
 21
47.71741944322267
 72
1
 10
274.2188390781292
 20
47.71741944322267
 11
271.8541743769859
 21
51.24999999998834
 72
1
 10
271.8541743769859
 20
51.24999999998834
 11
269.9772022244827
 21
55.06414998099127
 72
1
 10
269.9772022244827
 20
55.06414998099127
 11
268.6074106455878
 21
59.08838103415708
 72
1
 10
268.6074106455878
 20
59.08838103415708
 11
267.7862861870579
 21
63.22253577561188
 72
1
 10
267.7862861870579
 20
63.22253577561188
 11
267.4999999999782
 21
67.49999999998899
 72
1
 10
267.4999999999782
 20
67.49999999998899
 11
267.4999999999782
 21
82.49999999998774
 72
1
 10
267.4999999999782
 20
82.49999999998774
 11
267.7862861870579
 21
86.77746422436051
 72
1
 10
267.7862861870579
 20
86.77746422436051
 11
268.6074106455878
 21
90.91161896582182
 72
1
 10
268.6074106455878
 20
90.91161896582182
 11
269.9772022244827
 21
94.93585001898546
 72
1
 10
269.9772022244827
 20
94.93585001898546
 11
271.8541743769859
 21
98.74999999998622
 72
1
 10
271.8541743769859
 20
98.74999999998622
 11
274.2188390781292
 21
102.282580556754
 72
1
 10
274.2188390781292
 20
102.282580556754
 11
277.0190296114154
 21
105.4809703885496
 72
1
 10
277.0190296114154
 20
105.4809703885496
 11
280.2174194432153
 21
108.281160921838
 72
1
 10
280.2174194432153
 20
108.281160921838
 11
283.7499999999788
 21
110.6458256229812
 72
1
 10
283.7499999999788
 20
110.6458256229812
 11
287.5641499809839
 21
112.5227977754845
 72
1
 10
287.5641499809839
 20
112.5227977754845
 11
291.5883810341475
 21
113.8925893543815
 72
1
 10
291.5883810341475
 20
113.8925893543815
 11
295.7583631463329
 21
114.7184305757474
 72
1
 10
295.7583631463329
 20
114.7184305757474
 11
299.9999999999794
 21
114.999999999989
 72
1
 10
299.9999999999794
 20
114.999999999989
 11
304.2416368536216
 21
114.7184305757474
 72
1
 10
304.2416368536216
 20
114.7184305757474
 11
308.4116189658113
 21
113.8925893543815
 72
1
 10
308.4116189658113
 20
113.8925893543815
 11
312.435850018975
 21
112.5227977754845
 72
1
 10
312.435850018975
 20
112.5227977754845
 11
316.2499999999801
 21
110.6458256229812
 72
1
 10
316.2499999999801
 20
110.6458256229812
 11
319.7825805567436
 21
108.281160921838
 72
1
 10
319.7825805567436
 20
108.281160921838
 11
322.9809703885392
 21
105.4809703885496
 72
1
 10
322.9809703885392
 20
105.4809703885496
 11
325.7811609218297
 21
102.282580556754
 72
1
 10
325.7811609218297
 20
102.282580556754
 11
328.145825622973
 21
98.74999999999054
 72
1
 10
328.145825622973
 20
98.74999999999054
 11
330.0647578975344
 21
94.81257781554345
 72
1
 10
330.0647578975344
 20
94.81257781554345
 11
331.3925893543754
 21
90.91161896582182
 72
1
 10
331.3925893543754
 20
90.91161896582182
 11
332.2137138129011
 21
86.77746422436051
 72
1
 10
332.2137138129011
 20
86.77746422436051
 11
332.4999999999807
 21
82.49999999998774
 72
1
 10
332.4999999999807
 20
82.49999999998774
 11
332.4840322572288
 21
67.26142248060015
 72
1
 10
332.4840322572288
 20
67.26142248060015
 11
332.2137138129011
 21
63.22253577561188
 72
1
 10
332.2137138129011
 20
63.22253577561188
 11
331.3925893543754
 21
59.08838103415708
 72
1
 10
331.3925893543754
 20
59.08838103415708
 11
330.0227977754762
 21
55.06414998099127
 72
1
 10
330.0227977754762
 20
55.06414998099127
 11
328.145825622973
 21
51.24999999998834
 72
1
 10
328.145825622973
 20
51.24999999998834
 11
325.7811609218297
 21
47.71741944322267
 72
1
 10
325.7811609218297
 20
47.71741944322267
 11
322.9809703885392
 21
44.51902961142493
 72
1
 10
322.9809703885392
 20
44.51902961142493
 11
319.7825805567479
 21
41.71883907813655
 72
1
 10
319.7825805567479
 20
41.71883907813655
 11
316.2499999999801
 21
39.35417437699329
 72
1
 10
316.2499999999801
 20
39.35417437699329
 11
312.435850018975
 21
37.47720222449436
 72
1
 10
312.435850018975
 20
37.47720222449436
 11
308.4116189658113
 21
36.10741064559519
 72
1
 10
308.4116189658113
 20
36.10741064559519
 11
304.2416368536216
 21
35.28156942422928
 72
1
 10
304.2416368536216
 20
35.28156942422928
 11
299.9999999999794
 21
34.99999999998987
 97
0
 92
1
 93
50
 72
1
 10
399.9999999999784
 20
34.99999999998987
 11
395.7583631463318
 21
35.28156942422711
 72
1
 10
395.7583631463318
 20
35.28156942422711
 11
391.5883810341465
 21
36.10741064559087
 72
1
 10
391.5883810341465
 20
36.10741064559087
 11
387.5641499809828
 21
37.47720222449436
 72
1
 10
387.5641499809828
 20
37.47720222449436
 11
383.7499999999777
 21
39.35417437699329
 72
1
 10
383.7499999999777
 20
39.35417437699329
 11
380.2174194432142
 21
41.71883907813655
 72
1
 10
380.2174194432142
 20
41.71883907813655
 11
377.0190296114187
 21
44.51902961142493
 72
1
 10
377.0190296114187
 20
44.51902961142493
 11
374.2188390781281
 21
47.71741944322267
 72
1
 10
374.2188390781281
 20
47.71741944322267
 11
371.8541743769848
 21
51.24999999998834
 72
1
 10
371.8541743769848
 20
51.24999999998834
 11
369.9772022244859
 21
55.06414998099127
 72
1
 10
369.9772022244859
 20
55.06414998099127
 11
368.6074106455868
 21
59.08838103415708
 72
1
 10
368.6074106455868
 20
59.08838103415708
 11
367.7862861870611
 21
63.22253577561188
 72
1
 10
367.7862861870611
 20
63.22253577561188
 11
367.4999999999814
 21
67.49999999998899
 72
1
 10
367.4999999999814
 20
67.49999999998899
 11
367.4999999999814
 21
82.49999999998774
 72
1
 10
367.4999999999814
 20
82.49999999998774
 11
367.7862861870611
 21
86.77746422436051
 72
1
 10
367.7862861870611
 20
86.77746422436051
 11
368.6074106455868
 21
90.91161896582182
 72
1
 10
368.6074106455868
 20
90.91161896582182
 11
369.9772022244859
 21
94.93585001898113
 72
1
 10
369.9772022244859
 20
94.93585001898113
 11
371.8541743769848
 21
98.74999999998622
 72
1
 10
371.8541743769848
 20
98.74999999998622
 11
374.2188390781281
 21
102.2825805567519
 72
1
 10
374.2188390781281
 20
102.2825805567519
 11
377.0190296114187
 21
105.4809703885496
 72
1
 10
377.0190296114187
 20
105.4809703885496
 11
380.2174194432142
 21
108.281160921838
 72
1
 10
380.2174194432142
 20
108.281160921838
 11
383.7499999999777
 21
110.6458256229812
 72
1
 10
383.7499999999777
 20
110.6458256229812
 11
387.5641499809828
 21
112.5227977754845
 72
1
 10
387.5641499809828
 20
112.5227977754845
 11
391.5883810341465
 21
113.8925893543815
 72
1
 10
391.5883810341465
 20
113.8925893543815
 11
395.7583631463318
 21
114.7184305757474
 72
1
 10
395.7583631463318
 20
114.7184305757474
 11
399.9999999999784
 21
114.999999999989
 72
1
 10
399.9999999999784
 20
114.999999999989
 11
404.2416368536248
 21
114.7184305757474
 72
1
 10
404.2416368536248
 20
114.7184305757474
 11
408.4116189658102
 21
113.8925893543815
 72
1
 10
408.4116189658102
 20
113.8925893543815
 11
412.4358500189739
 21
112.5227977754845
 72
1
 10
412.4358500189739
 20
112.5227977754845
 11
416.249999999979
 21
110.6458256229812
 72
1
 10
416.249999999979
 20
110.6458256229812
 11
419.7825805567468
 21
108.281160921838
 72
1
 10
419.7825805567468
 20
108.281160921838
 11
422.9809703885424
 21
105.4809703885496
 72
1
 10
422.9809703885424
 20
105.4809703885496
 11
425.7811609218329
 21
102.2825805567519
 72
1
 10
425.7811609218329
 20
102.2825805567519
 11
428.1458256229762
 21
98.74999999998622
 72
1
 10
428.1458256229762
 20
98.74999999998622
 11
430.0227977754751
 21
94.93585001898113
 72
1
 10
430.0227977754751
 20
94.93585001898113
 11
431.3925893543743
 21
90.91161896582182
 72
1
 10
431.3925893543743
 20
90.91161896582182
 11
432.2137138129
 21
86.77746422436051
 72
1
 10
432.2137138129
 20
86.77746422436051
 11
432.4999999999796
 21
82.49999999998774
 72
1
 10
432.4999999999796
 20
82.49999999998774
 11
432.4840322572277
 21
67.26142248060015
 72
1
 10
432.4840322572277
 20
67.26142248060015
 11
432.2137138129
 21
63.22253577561188
 72
1
 10
432.2137138129
 20
63.22253577561188
 11
431.3925893543743
 21
59.08838103415708
 72
1
 10
431.3925893543743
 20
59.08838103415708
 11
430.0227977754751
 21
55.06414998099127
 72
1
 10
430.0227977754751
 20
55.06414998099127
 11
428.1458256229762
 21
51.24999999998834
 72
1
 10
428.1458256229762
 20
51.24999999998834
 11
425.7811609218329
 21
47.71741944322267
 72
1
 10
425.7811609218329
 20
47.71741944322267
 11
422.9809703885424
 21
44.51902961142493
 72
1
 10
422.9809703885424
 20
44.51902961142493
 11
419.7825805567468
 21
41.71883907813655
 72
1
 10
419.7825805567468
 20
41.71883907813655
 11
416.249999999979
 21
39.35417437699329
 72
1
 10
416.249999999979
 20
39.35417437699329
 11
412.4358500189739
 21
37.47720222449436
 72
1
 10
412.4358500189739
 20
37.47720222449436
 11
408.4116189658102
 21
36.10741064559087
 72
1
 10
408.4116189658102
 20
36.10741064559087
 11
404.2416368536248
 21
35.28156942422711
 72
1
 10
404.2416368536248
 20
35.28156942422711
 11
399.9999999999784
 21
34.99999999998987
 97
0
 92
1
 93
50
 72
1
 10
99.9999999999816
 20
34.99999999998987
 11
95.75836314633507
 21
35.28156942422928
 72
1
 10
95.75836314633507
 20
35.28156942422928
 11
91.27443311985787
 21
36.21427409441798
 72
1
 10
91.27443311985787
 20
36.21427409441798
 11
87.56414998098604
 21
37.47720222449436
 72
1
 10
87.56414998098604
 20
37.47720222449436
 11
83.74999999998094
 21
39.35417437699329
 72
1
 10
83.74999999998094
 20
39.35417437699329
 11
80.2174194432131
 21
41.71883907813655
 72
1
 10
80.2174194432131
 20
41.71883907813655
 11
77.01902961141755
 21
44.51902961142709
 72
1
 10
77.01902961141755
 20
44.51902961142709
 11
74.218839078127
 21
47.71741944322267
 72
1
 10
74.218839078127
 20
47.71741944322267
 11
71.85417437698374
 21
51.24999999998834
 72
1
 10
71.85417437698374
 20
51.24999999998834
 11
69.97720222448048
 21
55.06414998099127
 72
1
 10
69.97720222448048
 20
55.06414998099127
 11
68.60741064558131
 21
59.08838103415708
 72
1
 10
68.60741064558131
 20
59.08838103415708
 11
67.78628618705564
 21
63.22253577561622
 72
1
 10
67.78628618705564
 20
63.22253577561622
 11
67.4999999999803
 21
67.49999999998899
 72
1
 10
67.4999999999803
 20
67.49999999998899
 11
67.4999999999803
 21
82.49999999998774
 72
1
 10
67.4999999999803
 20
82.49999999998774
 11
67.78628618705564
 21
86.77746422436051
 72
1
 10
67.78628618705564
 20
86.77746422436051
 11
68.60741064558131
 21
90.91161896582182
 72
1
 10
68.60741064558131
 20
90.91161896582182
 11
69.97720222448048
 21
94.93585001898546
 72
1
 10
69.97720222448048
 20
94.93585001898546
 11
71.85417437698374
 21
98.74999999999054
 72
1
 10
71.85417437698374
 20
98.74999999999054
 11
74.218839078127
 21
102.282580556754
 72
1
 10
74.218839078127
 20
102.282580556754
 11
77.01902961141755
 21
105.4809703885539
 72
1
 10
77.01902961141755
 20
105.4809703885539
 11
80.2174194432131
 21
108.2811609218401
 72
1
 10
80.2174194432131
 20
108.2811609218401
 11
83.74999999998094
 21
110.6458256229834
 72
1
 10
83.74999999998094
 20
110.6458256229834
 11
87.56414998098604
 21
112.5227977754845
 72
1
 10
87.56414998098604
 20
112.5227977754845
 11
91.5883810341497
 21
113.8925893543815
 72
1
 10
91.5883810341497
 20
113.8925893543815
 11
95.75836314633507
 21
114.7184305757474
 72
1
 10
95.75836314633507
 20
114.7184305757474
 11
99.9999999999816
 21
114.999999999989
 72
1
 10
99.9999999999816
 20
114.999999999989
 11
104.2416368536238
 21
114.7184305757474
 72
1
 10
104.2416368536238
 20
114.7184305757474
 11
108.4116189658091
 21
113.8925893543815
 72
1
 10
108.4116189658091
 20
113.8925893543815
 11
112.4358500189728
 21
112.5227977754845
 72
1
 10
112.4358500189728
 20
112.5227977754845
 11
116.2499999999779
 21
110.6458256229834
 72
1
 10
116.2499999999779
 20
110.6458256229834
 11
119.7825805567414
 21
108.2811609218401
 72
1
 10
119.7825805567414
 20
108.2811609218401
 11
122.9809703885413
 21
105.4809703885539
 72
1
 10
122.9809703885413
 20
105.4809703885539
 11
125.7811609218318
 21
102.282580556754
 72
1
 10
125.7811609218318
 20
102.282580556754
 11
128.1458256229708
 21
98.74999999999054
 72
1
 10
128.1458256229708
 20
98.74999999999054
 11
130.022797775474
 21
94.93585001898546
 72
1
 10
130.022797775474
 20
94.93585001898546
 11
131.3925893543732
 21
90.91161896582182
 72
1
 10
131.3925893543732
 20
90.91161896582182
 11
132.2137138128989
 21
86.77746422436483
 72
1
 10
132.2137138128989
 20
86.77746422436483
 11
132.4999999999785
 21
82.49999999998774
 72
1
 10
132.4999999999785
 20
82.49999999998774
 11
132.4840322572309
 21
67.26142248060015
 72
1
 10
132.4840322572309
 20
67.26142248060015
 11
132.2137138128989
 21
63.22253577561622
 72
1
 10
132.2137138128989
 20
63.22253577561622
 11
131.3925893543732
 21
59.08838103415708
 72
1
 10
131.3925893543732
 20
59.08838103415708
 11
130.022797775474
 21
55.06414998099127
 72
1
 10
130.022797775474
 20
55.06414998099127
 11
128.1458256229708
 21
51.24999999998834
 72
1
 10
128.1458256229708
 20
51.24999999998834
 11
125.7811609218318
 21
47.71741944322267
 72
1
 10
125.7811609218318
 20
47.71741944322267
 11
122.9809703885413
 21
44.51902961142709
 72
1
 10
122.9809703885413
 20
44.51902961142709
 11
119.7825805567414
 21
41.71883907813655
 72
1
 10
119.7825805567414
 20
41.71883907813655
 11
116.2499999999779
 21
39.35417437699329
 72
1
 10
116.2499999999779
 20
39.35417437699329
 11
112.4358500189728
 21
37.47720222449436
 72
1
 10
112.4358500189728
 20
37.47720222449436
 11
108.4116189658091
 21
36.10741064559519
 72
1
 10
108.4116189658091
 20
36.10741064559519
 11
104.2416368536238
 21
35.28156942422928
 72
1
 10
104.2416368536238
 20
35.28156942422928
 11
99.9999999999816
 21
34.99999999998987
 97
0
 92
1
 93
50
 72
1
 10
199.9999999999805
 20
34.99999999998987
 11
195.758363146334
 21
35.28156942422928
 72
1
 10
195.758363146334
 20
35.28156942422928
 11
191.5883810341486
 21
36.10741064559519
 72
1
 10
191.5883810341486
 20
36.10741064559519
 11
187.564149980985
 21
37.47720222449436
 72
1
 10
187.564149980985
 20
37.47720222449436
 11
183.7499999999798
 21
39.35417437699329
 72
1
 10
183.7499999999798
 20
39.35417437699329
 11
180.217419443212
 21
41.71883907813655
 72
1
 10
180.217419443212
 20
41.71883907813655
 11
177.0190296114164
 21
44.51902961142493
 72
1
 10
177.0190296114164
 20
44.51902961142493
 11
174.2188390781259
 21
47.71741944322267
 72
1
 10
174.2188390781259
 20
47.71741944322267
 11
171.8541743769826
 21
51.24999999998834
 72
1
 10
171.8541743769826
 20
51.24999999998834
 11
169.9772022244837
 21
55.06414998099127
 72
1
 10
169.9772022244837
 20
55.06414998099127
 11
168.6074106455845
 21
59.08838103415708
 72
1
 10
168.6074106455845
 20
59.08838103415708
 11
167.7862861870545
 21
63.22253577561622
 72
1
 10
167.7862861870545
 20
63.22253577561622
 11
167.4999999999792
 21
67.49999999998899
 72
1
 10
167.4999999999792
 20
67.49999999998899
 11
167.4999999999792
 21
82.49999999998774
 72
1
 10
167.4999999999792
 20
82.49999999998774
 11
167.7862861870545
 21
86.77746422436051
 72
1
 10
167.7862861870545
 20
86.77746422436051
 11
168.6074106455845
 21
90.91161896582182
 72
1
 10
168.6074106455845
 20
90.91161896582182
 11
169.9772022244837
 21
94.93585001898546
 72
1
 10
169.9772022244837
 20
94.93585001898546
 11
171.8541743769826
 21
98.74999999998622
 72
1
 10
171.8541743769826
 20
98.74999999998622
 11
174.2188390781259
 21
102.282580556754
 72
1
 10
174.2188390781259
 20
102.282580556754
 11
177.0190296114164
 21
105.4809703885496
 72
1
 10
177.0190296114164
 20
105.4809703885496
 11
180.217419443212
 21
108.2811609218401
 72
1
 10
180.217419443212
 20
108.2811609218401
 11
183.7499999999798
 21
110.6458256229834
 72
1
 10
183.7499999999798
 20
110.6458256229834
 11
187.564149980985
 21
112.5227977754845
 72
1
 10
187.564149980985
 20
112.5227977754845
 11
191.5883810341486
 21
113.8925893543815
 72
1
 10
191.5883810341486
 20
113.8925893543815
 11
195.758363146334
 21
114.7184305757474
 72
1
 10
195.758363146334
 20
114.7184305757474
 11
199.9999999999805
 21
114.999999999989
 72
1
 10
199.9999999999805
 20
114.999999999989
 11
204.2416368536227
 21
114.7184305757474
 72
1
 10
204.2416368536227
 20
114.7184305757474
 11
208.4116189658081
 21
113.8925893543815
 72
1
 10
208.4116189658081
 20
113.8925893543815
 11
212.4358500189717
 21
112.5227977754845
 72
1
 10
212.4358500189717
 20
112.5227977754845
 11
216.2499999999768
 21
110.6458256229834
 72
1
 10
216.2499999999768
 20
110.6458256229834
 11
219.7825805567447
 21
108.2811609218401
 72
1
 10
219.7825805567447
 20
108.2811609218401
 11
222.9809703885402
 21
105.4809703885539
 72
1
 10
222.9809703885402
 20
105.4809703885539
 11
225.7811609218308
 21
102.282580556754
 72
1
 10
225.7811609218308
 20
102.282580556754
 11
228.1458256229741
 21
98.74999999999054
 72
1
 10
228.1458256229741
 20
98.74999999999054
 11
230.0227977754773
 21
94.93585001898546
 72
1
 10
230.0227977754773
 20
94.93585001898546
 11
231.3925893543721
 21
90.91161896582182
 72
1
 10
231.3925893543721
 20
90.91161896582182
 11
232.2137138129022
 21
86.77746422436051
 72
1
 10
232.2137138129022
 20
86.77746422436051
 11
232.4999999999818
 21
82.49999999998774
 72
1
 10
232.4999999999818
 20
82.49999999998774
 11
232.4840322572299
 21
67.26142248060015
 72
1
 10
232.4840322572299
 20
67.26142248060015
 11
232.2137138129022
 21
63.22253577561622
 72
1
 10
232.2137138129022
 20
63.22253577561622
 11
231.3925893543721
 21
59.08838103415708
 72
1
 10
231.3925893543721
 20
59.08838103415708
 11
230.0227977754773
 21
55.06414998099127
 72
1
 10
230.0227977754773
 20
55.06414998099127
 11
228.1458256229741
 21
51.24999999998834
 72
1
 10
228.1458256229741
 20
51.24999999998834
 11
225.7811609218308
 21
47.71741944322267
 72
1
 10
225.7811609218308
 20
47.71741944322267
 11
222.9809703885402
 21
44.51902961142493
 72
1
 10
222.9809703885402
 20
44.51902961142493
 11
219.7825805567447
 21
41.71883907813655
 72
1
 10
219.7825805567447
 20
41.71883907813655
 11
216.2499999999768
 21
39.35417437699329
 72
1
 10
216.2499999999768
 20
39.35417437699329
 11
212.4358500189717
 21
37.47720222449436
 72
1
 10
212.4358500189717
 20
37.47720222449436
 11
208.4116189658081
 21
36.10741064559519
 72
1
 10
208.4116189658081
 20
36.10741064559519
 11
204.2416368536227
 21
35.28156942422928
 72
1
 10
204.2416368536227
 20
35.28156942422928
 11
199.9999999999805
 21
34.99999999998987
 97
0
 92
1
 93
50
 72
1
 10
499.9999999999773
 20
34.99999999998987
 11
495.7583631463351
 21
35.28156942422711
 72
1
 10
495.7583631463351
 20
35.28156942422711
 11
491.5883810341454
 21
36.10741064559087
 72
1
 10
491.5883810341454
 20
36.10741064559087
 11
487.564149980986
 21
37.47720222449003
 72
1
 10
487.564149980986
 20
37.47720222449003
 11
483.749999999981
 21
39.35417437699329
 72
1
 10
483.749999999981
 20
39.35417437699329
 11
480.2174194432175
 21
41.71883907813655
 72
1
 10
480.2174194432175
 20
41.71883907813655
 11
477.0190296114176
 21
44.51902961142493
 72
1
 10
477.0190296114176
 20
44.51902961142493
 11
474.2188390781313
 21
47.71741944322267
 72
1
 10
474.2188390781313
 20
47.71741944322267
 11
471.8541743769881
 21
51.24999999998834
 72
1
 10
471.8541743769881
 20
51.24999999998834
 11
469.9772022244848
 21
55.06414998099127
 72
1
 10
469.9772022244848
 20
55.06414998099127
 11
468.6074106455857
 21
59.08838103415708
 72
1
 10
468.6074106455857
 20
59.08838103415708
 11
467.7862861870599
 21
63.22253577561188
 72
1
 10
467.7862861870599
 20
63.22253577561188
 11
467.4999999999803
 21
67.49999999998899
 72
1
 10
467.4999999999803
 20
67.49999999998899
 11
467.4999999999803
 21
82.49999999998774
 72
1
 10
467.4999999999803
 20
82.49999999998774
 11
467.7862861870599
 21
86.77746422436051
 72
1
 10
467.7862861870599
 20
86.77746422436051
 11
468.6074106455857
 21
90.91161896581748
 72
1
 10
468.6074106455857
 20
90.91161896581748
 11
469.9772022244848
 21
94.93585001898113
 72
1
 10
469.9772022244848
 20
94.93585001898113
 11
471.8541743769881
 21
98.74999999998622
 72
1
 10
471.8541743769881
 20
98.74999999998622
 11
474.2188390781313
 21
102.2825805567519
 72
1
 10
474.2188390781313
 20
102.2825805567519
 11
477.0190296114176
 21
105.4809703885496
 72
1
 10
477.0190296114176
 20
105.4809703885496
 11
480.2174194432175
 21
108.281160921838
 72
1
 10
480.2174194432175
 20
108.281160921838
 11
483.749999999981
 21
110.6458256229812
 72
1
 10
483.749999999981
 20
110.6458256229812
 11
487.564149980986
 21
112.5227977754845
 72
1
 10
487.564149980986
 20
112.5227977754845
 11
491.5883810341454
 21
113.8925893543815
 72
1
 10
491.5883810341454
 20
113.8925893543815
 11
495.7583631463351
 21
114.7184305757474
 72
1
 10
495.7583631463351
 20
114.7184305757474
 11
499.9999999999773
 21
114.999999999989
 72
1
 10
499.9999999999773
 20
114.999999999989
 11
504.2416368536238
 21
114.7184305757474
 72
1
 10
504.2416368536238
 20
114.7184305757474
 11
508.4116189658135
 21
113.8925893543815
 72
1
 10
508.4116189658135
 20
113.8925893543815
 11
512.4358500189771
 21
112.5227977754845
 72
1
 10
512.4358500189771
 20
112.5227977754845
 11
516.2499999999822
 21
110.6458256229812
 72
1
 10
516.2499999999822
 20
110.6458256229812
 11
519.7825805567458
 21
108.281160921838
 72
1
 10
519.7825805567458
 20
108.281160921838
 11
522.9809703885456
 21
105.4809703885496
 72
1
 10
522.9809703885456
 20
105.4809703885496
 11
525.7811609218318
 21
102.2825805567519
 72
1
 10
525.7811609218318
 20
102.2825805567519
 11
528.145825622975
 21
98.74999999998622
 72
1
 10
528.145825622975
 20
98.74999999998622
 11
530.022797775474
 21
94.93585001898113
 72
1
 10
530.022797775474
 20
94.93585001898113
 11
531.3925893543732
 21
90.91161896582182
 72
1
 10
531.3925893543732
 20
90.91161896582182
 11
532.2137138129033
 21
86.77746422436051
 72
1
 10
532.2137138129033
 20
86.77746422436051
 11
532.4999999999785
 21
82.49999999998774
 72
1
 10
532.4999999999785
 20
82.49999999998774
 11
532.484032257231
 21
67.26142248060015
 72
1
 10
532.484032257231
 20
67.26142248060015
 11
532.2137138129033
 21
63.22253577561188
 72
1
 10
532.2137138129033
 20
63.22253577561188
 11
531.3925893543732
 21
59.08838103415708
 72
1
 10
531.3925893543732
 20
59.08838103415708
 11
530.022797775474
 21
55.06414998099127
 72
1
 10
530.022797775474
 20
55.06414998099127
 11
528.145825622975
 21
51.24999999998834
 72
1
 10
528.145825622975
 20
51.24999999998834
 11
525.7811609218318
 21
47.71741944322267
 72
1
 10
525.7811609218318
 20
47.71741944322267
 11
522.9809703885456
 21
44.51902961142493
 72
1
 10
522.9809703885456
 20
44.51902961142493
 11
519.7825805567458
 21
41.71883907813655
 72
1
 10
519.7825805567458
 20
41.71883907813655
 11
516.2499999999822
 21
39.35417437699329
 72
1
 10
516.2499999999822
 20
39.35417437699329
 11
512.4358500189771
 21
37.47720222449003
 72
1
 10
512.4358500189771
 20
37.47720222449003
 11
508.4116189658135
 21
36.10741064559087
 72
1
 10
508.4116189658135
 20
36.10741064559087
 11
504.2416368536238
 21
35.28156942422711
 72
1
 10
504.2416368536238
 20
35.28156942422711
 11
499.9999999999773
 21
34.99999999998987
 97
0
 75
0
 76
2
 52
0.0
 41
1.0
 77
0
 78
1
 53
45.0
 43
12339.317
 44
7592.384
 45
-7.071067811865475
 46
7.071067811865475
 79
0
 98
1
 10
0.0
 20
0.0
  0
LINE
  5
33
330
2F
100
AcDbEntity
  8
A-DETL-GENF
100
AcDbLine
 10
1174.999999999998
 20
149.9999999999936
 30
0.0
 11
24.99999999999784
 21
149.9999999999973
 31
0.0
  0
LINE
  5
34
330
2F
100
AcDbEntity
  8
A-DETL-GENF
100
AcDbLine
 10
24.99999999999784
 20
149.9999999999973
 30
0.0
 11
24.99999999999784
 21
109.9999999999966
 31
0.0
  0
LINE
  5
35
330
2F
100
AcDbEntity
  8
A-DETL-GENF
100
AcDbLine
 10
24.99999999999784
 20
109.9999999999966
 30
0.0
 11
35.41999999999785
 21
101.5399999999968
 31
0.0
  0
LINE
  5
36
330
2F
100
AcDbEntity
  8
A-DETL-GENF
100
AcDbLine
 10
35.41999999999785
 20
101.5399999999968
 30
0.0
 11
25.00999999999848
 21
54.6799999999971
 31
0.0
  0
LINE
  5
37
330
2F
100
AcDbEntity
  8
A-DETL-GENF
100
AcDbLine
 10
25.00999999999848
 20
54.6799999999971
 30
0.0
 11
11.98999999999798
 21
51.42999999999675
 31
0.0
  0
LINE
  5
38
330
2F
100
AcDbEntity
  8
A-DETL-GENF
100
AcDbLine
 10
11.98999999999798
 20
51.42999999999675
 30
0.0
 11
4.999999999998051
 21
19.99999999999652
 31
0.0
  0
LINE
  5
39
330
2F
100
AcDbEntity
  8
A-DETL-GENF
100
AcDbLine
 10
4.999999999998051
 20
19.99999999999652
 30
0.0
 11
1.354e-13
 21
19.99999999999653
 31
0.0
  0
LINE
  5
3A
330
2F
100
AcDbEntity
  8
A-DETL-GENF
100
AcDbLine
 10
1.354e-13
 20
19.99999999999653
 30
0.0
 11
0.0
 21
9.999999999998657
 31
0.0
  0
LINE
  5
3B
330
2F
100
AcDbEntity
  8
A-DETL-GENF
100
AcDbLine
 10
0.0
 20
9.999999999998657
 30
0.0
 11
9.999999999997998
 21
6.26e-13
 31
0.0
  0
LINE
  5
3C
330
2F
100
AcDbEntity
  8
A-DETL-GENF
100
AcDbLine
 10
9.999999999997998
 20
5.584e-13
 30
0.0
 11
1189.999999999998
 21
-3.2486e-12
 31
0.0
  0
LINE
  5
3D
330
2F
100
AcDbEntity
  8
A-DETL-GENF
100
AcDbLine
 10
1189.999999999998
 20
-3.2486e-12
 30
0.0
 11
1199.999999999998
 21
9.999999999996644
 31
0.0
  0
LINE
  5
3E
330
2F
100
AcDbEntity
  8
A-DETL-GENF
100
AcDbLine
 10
1199.999999999998
 20
9.999999999996644
 30
0.0
 11
1199.999999999998
 21
19.99999999999652
 31
0.0
  0
LINE
  5
3F
330
2F
100
AcDbEntity
  8
A-DETL-GENF
100
AcDbLine
 10
1199.999999999998
 20
19.99999999999652
 30
0.0
 11
1194.992208706784
 21
19.99999999999653
 31
0.0
  0
LINE
  5
40
330
2F
100
AcDbEntity
  8
A-DETL-GENF
100
AcDbLine
 10
1194.992208706784
 20
19.99999999999653
 30
0.0
 11
1188.009999999998
 21
51.42999999999672
 31
0.0
  0
LINE
  5
41
330
2F
100
AcDbEntity
  8
A-DETL-GENF
100
AcDbLine
 10
1188.009999999998
 20
51.42999999999672
 30
0.0
 11
1174.989999999997
 21
54.6799999999971
 31
0.0
  0
LINE
  5
42
330
2F
100
AcDbEntity
  8
A-DETL-GENF
100
AcDbLine
 10
1174.989999999997
 20
54.6799999999971
 30
0.0
 11
1164.936270298584
 21
99.93627029858207
 31
0.0
  0
LINE
  5
43
330
2F
100
AcDbEntity
  8
A-DETL-GENF
100
AcDbLine
 10
1164.936270298584
 20
99.9362702985821
 30
0.0
 11
1174.999999999998
 21
109.9999999999966
 31
0.0
  0
LINE
  5
44
330
2F
100
AcDbEntity
  8
A-DETL-GENF
100
AcDbLine
 10
1174.999999999998
 20
109.9999999999966
 30
0.0
 11
1174.999999999998
 21
149.9999999999936
 31
0.0
  0
ARC
  5
45
330
2F
100
AcDbEntity
  8
A-DETL-GENF
100
AcDbCircle
 10
99.99999999999811
 20
82.49999999999626
 30
0.0
 40
32.49999999999998
100
AcDbArc
 50
4.071e-13
 51
180.0000000000003
  0
LINE
  5
46
330
2F
100
AcDbEntity
  8
A-DETL-GENF
100
AcDbLine
 10
132.4999999999981
 20
82.49999999999646
 30
0.0
 11
132.4999999999981
 21
67.49999999999653
 31
0.0
  0
ARC
  5
47
330
2F
100
AcDbEntity
  8
A-DETL-GENF
100
AcDbCircle
 10
99.99999999999811
 20
67.4999999999966
 30
0.0
 40
32.50000000000002
100
AcDbArc
 50
180.0000000000004
 51
359.9999999999996
  0
LINE
  5
48
330
2F
100
AcDbEntity
  8
A-DETL-GENF
100
AcDbLine
 10
67.4999999999982
 20
67.49999999999642
 30
0.0
 11
67.4999999999982
 21
82.49999999999612
 31
0.0
  0
ARC
  5
49
330
2F
100
AcDbEntity
  8
A-DETL-GENF
100
AcDbCircle
 10
199.9999999999981
 20
82.49999999999598
 30
0.0
 40
32.49999999999997
100
AcDbArc
 50
4.58e-13
 51
180.0000000000003
  0
LINE
  5
4A
330
2F
100
AcDbEntity
  8
A-DETL-GENF
100
AcDbLine
 10
232.4999999999982
 20
82.49999999999619
 30
0.0
 11
232.4999999999982
 21
67.49999999999626
 31
0.0
  0
ARC
  5
4B
330
2F
100
AcDbEntity
  8
A-DETL-GENF
100
AcDbCircle
 10
199.9999999999981
 20
67.49999999999625
 30
0.0
 40
32.49999999999996
100
AcDbArc
 50
180.0000000000002
 51
1.018e-13
  0
LINE
  5
4C
330
2F
100
AcDbEntity
  8
A-DETL-GENF
100
AcDbLine
 10
167.4999999999982
 20
67.49999999999615
 30
0.0
 11
167.4999999999982
 21
82.49999999999586
 31
0.0
  0
ARC
  5
4D
330
2F
100
AcDbEntity
  8
A-DETL-GENF
100
AcDbCircle
 10
299.9999999999981
 20
82.49999999999571
 30
0.0
 40
32.49999999999996
100
AcDbArc
 50
4.516e-13
 51
180.0000000000003
  0
LINE
  5
4E
330
2F
100
AcDbEntity
  8
A-DETL-GENF
100
AcDbLine
 10
332.4999999999982
 20
82.49999999999591
 30
0.0
 11
332.4999999999982
 21
67.49999999999599
 31
0.0
  0
ARC
  5
4F
330
2F
100
AcDbEntity
  8
A-DETL-GENF
100
AcDbCircle
 10
299.9999999999981
 20
67.49999999999598
 30
0.0
 40
32.49999999999996
100
AcDbArc
 50
180.0000000000002
 51
1.527e-13
  0
LINE
  5
50
330
2F
100
AcDbEntity
  8
A-DETL-GENF
100
AcDbLine
 10
267.4999999999982
 20
67.49999999999586
 30
0.0
 11
267.4999999999982
 21
82.49999999999557
 31
0.0
  0
ARC
  5
51
330
2F
100
AcDbEntity
  8
A-DETL-GENF
100
AcDbCircle
 10
399.9999999999981
 20
82.49999999999535
 30
0.0
 40
32.49999999999988
100
AcDbArc
 50
3.403e-13
 51
180.0000000000001
  0
LINE
  5
52
330
2F
100
AcDbEntity
  8
A-DETL-GENF
100
AcDbLine
 10
432.4999999999981
 20
82.4999999999955
 30
0.0
 11
432.4999999999981
 21
67.49999999999558
 31
0.0
  0
ARC
  5
53
330
2F
100
AcDbEntity
  8
A-DETL-GENF
100
AcDbCircle
 10
399.9999999999981
 20
67.49999999999555
 30
0.0
 40
32.49999999999995
100
AcDbArc
 50
180.0000000000004
 51
2.036e-13
  0
LINE
  5
54
330
2F
100
AcDbEntity
  8
A-DETL-GENF
100
AcDbLine
 10
367.4999999999982
 20
67.49999999999547
 30
0.0
 11
367.4999999999982
 21
82.49999999999515
 31
0.0
  0
ARC
  5
55
330
2F
100
AcDbEntity
  8
A-DETL-GENF
100
AcDbCircle
 10
499.9999999999981
 20
82.49999999999513
 30
0.0
 40
32.49999999999988
100
AcDbArc
 50
2.576e-13
 51
180.0000000000001
  0
LINE
  5
56
330
2F
100
AcDbEntity
  8
A-DETL-GENF
100
AcDbLine
 10
532.4999999999981
 20
82.49999999999523
 30
0.0
 11
532.4999999999981
 21
67.49999999999531
 31
0.0
  0
ARC
  5
57
330
2F
100
AcDbEntity
  8
A-DETL-GENF
100
AcDbCircle
 10
499.9999999999981
 20
67.49999999999528
 30
0.0
 40
32.49999999999996
100
AcDbArc
 50
180.0000000000004
 51
2.544e-13
  0
LINE
  5
58
330
2F
100
AcDbEntity
  8
A-DETL-GENF
100
AcDbLine
 10
467.4999999999982
 20
67.4999999999952
 30
0.0
 11
467.4999999999982
 21
82.4999999999949
 31
0.0
  0
ARC
  5
59
330
2F
100
AcDbEntity
  8
A-DETL-GENF
100
AcDbCircle
 10
599.9999999999982
 20
82.49999999999477
 30
0.0
 40
32.49999999999994
100
AcDbArc
 50
4.898e-13
 51
180.0000000000001
  0
LINE
  5
5A
330
2F
100
AcDbEntity
  8
A-DETL-GENF
100
AcDbLine
 10
632.499999999998
 20
82.49999999999497
 30
0.0
 11
632.499999999998
 21
67.49999999999491
 31
0.0
  0
ARC
  5
5B
330
2F
100
AcDbEntity
  8
A-DETL-GENF
100
AcDbCircle
 10
599.9999999999982
 20
67.49999999999496
 30
0.0
 40
32.5
100
AcDbArc
 50
180.0
 51
0.0
  0
LINE
  5
5C
330
2F
100
AcDbEntity
  8
A-DETL-GENF
100
AcDbLine
 10
567.4999999999982
 20
67.49999999999478
 30
0.0
 11
567.4999999999982
 21
82.49999999999463
 31
0.0
  0
ARC
  5
5D
330
2F
100
AcDbEntity
  8
A-DETL-GENF
100
AcDbCircle
 10
699.9999999999982
 20
82.49999999999434
 30
0.0
 40
32.50000000000001
100
AcDbArc
 50
4.326e-13
 51
180.0
  0
LINE
  5
5E
330
2F
100
AcDbEntity
  8
A-DETL-GENF
100
AcDbLine
 10
732.499999999998
 20
82.49999999999456
 30
0.0
 11
732.499999999998
 21
67.49999999999464
 31
0.0
  0
ARC
  5
5F
330
2F
100
AcDbEntity
  8
A-DETL-GENF
100
AcDbCircle
 10
699.9999999999982
 20
67.49999999999473
 30
0.0
 40
32.49999999999999
100
AcDbArc
 50
180.0000000000001
 51
359.9999999999996
  0
LINE
  5
60
330
2F
100
AcDbEntity
  8
A-DETL-GENF
100
AcDbLine
 10
667.4999999999982
 20
67.49999999999451
 30
0.0
 11
667.4999999999982
 21
82.49999999999422
 31
0.0
  0
ARC
  5
61
330
2F
100
AcDbEntity
  8
A-DETL-GENF
100
AcDbCircle
 10
799.9999999999982
 20
82.49999999999407
 30
0.0
 40
32.50000000000003
100
AcDbArc
 50
4.198e-13
 51
180.0
  0
LINE
  5
62
330
2F
100
AcDbEntity
  8
A-DETL-GENF
100
AcDbLine
 10
832.4999999999981
 20
82.49999999999429
 30
0.0
 11
832.4999999999981
 21
67.49999999999437
 31
0.0
  0
ARC
  5
63
330
2F
100
AcDbEntity
  8
A-DETL-GENF
100
AcDbCircle
 10
799.9999999999982
 20
67.49999999999444
 30
0.0
 40
32.49999999999999
100
AcDbArc
 50
180.0000000000001
 51
359.9999999999996
  0
LINE
  5
64
330
2F
100
AcDbEntity
  8
A-DETL-GENF
100
AcDbLine
 10
767.4999999999982
 20
67.49999999999424
 30
0.0
 11
767.4999999999982
 21
82.49999999999395
 31
0.0
  0
ARC
  5
65
330
2F
100
AcDbEntity
  8
A-DETL-GENF
100
AcDbCircle
 10
899.9999999999982
 20
82.49999999999365
 30
0.0
 40
32.50000000000003
100
AcDbArc
 50
4.707e-13
 51
180.0
  0
LINE
  5
66
330
2F
100
AcDbEntity
  8
A-DETL-GENF
100
AcDbLine
 10
932.4999999999981
 20
82.49999999999388
 30
0.0
 11
932.4999999999981
 21
67.49999999999396
 31
0.0
  0
ARC
  5
67
330
2F
100
AcDbEntity
  8
A-DETL-GENF
100
AcDbCircle
 10
899.9999999999982
 20
67.49999999999403
 30
0.0
 40
32.5
100
AcDbArc
 50
180.0000000000001
 51
359.9999999999996
  0
LINE
  5
68
330
2F
100
AcDbEntity
  8
A-DETL-GENF
100
AcDbLine
 10
867.4999999999982
 20
67.49999999999385
 30
0.0
 11
867.4999999999982
 21
82.49999999999355
 31
0.0
  0
ARC
  5
69
330
2F
100
AcDbEntity
  8
A-DETL-GENF
100
AcDbCircle
 10
999.9999999999982
 20
82.49999999999339
 30
0.0
 40
32.50000000000003
100
AcDbArc
 50
4.453e-13
 51
180.0
  0
LINE
  5
6A
330
2F
100
AcDbEntity
  8
A-DETL-GENF
100
AcDbLine
 10
1032.499999999998
 20
82.49999999999362
 30
0.0
 11
1032.499999999998
 21
67.49999999999369
 31
0.0
  0
ARC
  5
6B
330
2F
100
AcDbEntity
  8
A-DETL-GENF
100
AcDbCircle
 10
999.9999999999982
 20
67.49999999999376
 30
0.0
 40
32.5
100
AcDbArc
 50
180.0000000000001
 51
359.9999999999996
  0
LINE
  5
6C
330
2F
100
AcDbEntity
  8
A-DETL-GENF
100
AcDbLine
 10
967.4999999999982
 20
67.49999999999358
 30
0.0
 11
967.4999999999982
 21
82.49999999999328
 31
0.0
  0
ARC
  5
6D
330
2F
100
AcDbEntity
  8
A-DETL-GENF
100
AcDbCircle
 10
1099.999999999998
 20
82.49999999999312
 30
0.0
 40
32.5
100
AcDbArc
 50
4.453e-13
 51
180.0
  0
LINE
  5
6E
330
2F
100
AcDbEntity
  8
A-DETL-GENF
100
AcDbLine
 10
1132.499999999998
 20
82.49999999999335
 30
0.0
 11
1132.499999999998
 21
67.49999999999328
 31
0.0
  0
ARC
  5
6F
330
2F
100
AcDbEntity
  8
A-DETL-GENF
100
AcDbCircle
 10
1099.999999999998
 20
67.49999999999336
 30
0.0
 40
32.5
100
AcDbArc
 50
180.0000000000001
 51
359.9999999999996
  0
LINE
  5
70
330
2F
100
AcDbEntity
  8
A-DETL-GENF
100
AcDbLine
 10
1067.499999999998
 20
67.49999999999316
 30
0.0
 11
1067.499999999998
 21
82.49999999999301
 31
0.0
  0
ENDBLK
  5
31
330
2F
100
AcDbEntity
  8
0
100
AcDbBlockEnd
  0
ENDSEC
  0
SECTION
  2
ENTITIES
  0
INSERT
  5
72
330
17
100
AcDbEntity
  8
0
100
AcDbBlockReference
  2
23 VBI kanaalplaat - KPV150-3537654-00_0 Basismaterialen
 10
0.0
 20
0.0
 30
0.0
  0
ENDSEC
  0
SECTION
  2
OBJECTS
  0
DICTIONARY
  5
A
330
0
100
AcDbDictionary
281
1
  3
ACAD_COLOR
350
B
  3
ACAD_GROUP
350
C
  3
ACAD_LAYOUT
350
D
  3
ACAD_MATERIAL
350
E
  3
ACAD_MLEADERSTYLE
350
F
  3
ACAD_MLINESTYLE
350
10
  3
ACAD_PLOTSETTINGS
350
11
  3
ACAD_PLOTSTYLENAME
350
12
  3
ACAD_SCALELIST
350
14
  3
ACAD_TABLESTYLE
350
15
  3
ACAD_VISUALSTYLE
350
16
  3
EZDXF_META
350
2D
  0
DICTIONARY
  5
B
330
A
100
AcDbDictionary
281
1
  0
DICTIONARY
  5
C
330
A
100
AcDbDictionary
281
1
  0
DICTIONARY
  5
D
330
A
100
AcDbDictionary
281
1
  3
Model
350
1A
  3
Layout1
350
1E
  0
DICTIONARY
  5
E
330
A
100
AcDbDictionary
281
1
  3
ByBlock
350
1F
  3
ByLayer
350
20
  3
Global
350
21
  0
DICTIONARY
  5
F
330
A
100
AcDbDictionary
281
1
  3
Standard
350
2C
  0
DICTIONARY
  5
10
330
A
100
AcDbDictionary
281
1
  3
Standard
350
22
  0
DICTIONARY
  5
11
330
A
100
AcDbDictionary
281
1
  0
ACDBDICTIONARYWDFLT
  5
12
330
A
100
AcDbDictionary
281
1
  3
Normal
350
13
100
AcDbDictionaryWithDefault
340
13
  0
ACDBPLACEHOLDER
  5
13
330
12
  0
DICTIONARY
  5
14
330
A
100
AcDbDictionary
281
1
  0
DICTIONARY
  5
15
330
A
100
AcDbDictionary
281
1
  0
DICTIONARY
  5
16
330
A
100
AcDbDictionary
281
1
  0
LAYOUT
  5
1A
330
D
100
AcDbPlotSettings
  1

  4
A3
  6

 40
7.5
 41
20.0
 42
7.5
 43
20.0
 44
420.0
 45
297.0
 46
0.0
 47
0.0
 48
0.0
 49
0.0
140
0.0
141
0.0
142
1.0
143
1.0
 70
1024
 72
1
 73
0
 74
5
  7

 75
16
 76
0
 77
2
 78
300
147
1.0
148
0.0
149
0.0
100
AcDbLayout
  1
Model
 70
1
 71
0
 10
0.0
 20
0.0
 11
420.0
 21
297.0
 12
0.0
 22
0.0
 32
0.0
 14
1e+20
 24
1e+20
 34
1e+20
 15
-1e+20
 25
-1e+20
 35
-1e+20
146
0.0
 13
0.0
 23
0.0
 33
0.0
 16
1.0
 26
0.0
 36
0.0
 17
0.0
 27
1.0
 37
0.0
 76
1
330
17
  0
LAYOUT
  5
1E
330
D
100
AcDbPlotSettings
  1

  4
A3
  6

 40
7.5
 41
20.0
 42
7.5
 43
20.0
 44
420.0
 45
297.0
 46
0.0
 47
0.0
 48
0.0
 49
0.0
140
0.0
141
0.0
142
1.0
143
1.0
 70
0
 72
1
 73
0
 74
5
  7

 75
16
 76
0
 77
2
 78
300
147
1.0
148
0.0
149
0.0
100
AcDbLayout
  1
Layout1
 70
1
 71
1
 10
0.0
 20
0.0
 11
420.0
 21
297.0
 12
0.0
 22
0.0
 32
0.0
 14
1e+20
 24
1e+20
 34
1e+20
 15
-1e+20
 25
-1e+20
 35
-1e+20
146
0.0
 13
0.0
 23
0.0
 33
0.0
 16
1.0
 26
0.0
 36
0.0
 17
0.0
 27
1.0
 37
0.0
 76
1
330
1B
  0
MATERIAL
  5
1F
102
{ACAD_REACTORS
330
E
102
}
330
E
100
AcDbMaterial
  1
ByBlock
  2

 70
0
 40
1.0
 71
1
 41
1.0
 91
-1023410177
 42
1.0
 72
1
  3

 73
1
 74
1
 75
1
 44
0.5
 73
0
 45
1.0
 46
1.0
 77
1
  4

 78
1
 79
1
170
1
 48
1.0
171
1
  6

172
1
173
1
174
1
140
1.0
141
1.0
175
1
  7

176
1
177
1
178
1
143
1.0
179
1
  8

270
1
271
1
272
1
145
1.0
146
1.0
273
1
  9

274
1
275
1
276
1
 42
1.0
 72
1
  3

 73
1
 74
1
 75
1
 94
63
  0
MATERIAL
  5
20
102
{ACAD_REACTORS
330
E
102
}
330
E
100
AcDbMaterial
  1
ByLayer
  2

 70
0
 40
1.0
 71
1
 41
1.0
 91
-1023410177
 42
1.0
 72
1
  3

 73
1
 74
1
 75
1
 44
0.5
 73
0
 45
1.0
 46
1.0
 77
1
  4

 78
1
 79
1
170
1
 48
1.0
171
1
  6

172
1
173
1
174
1
140
1.0
141
1.0
175
1
  7

176
1
177
1
178
1
143
1.0
179
1
  8

270
1
271
1
272
1
145
1.0
146
1.0
273
1
  9

274
1
275
1
276
1
 42
1.0
 72
1
  3

 73
1
 74
1
 75
1
 94
63
  0
MATERIAL
  5
21
102
{ACAD_REACTORS
330
E
102
}
330
E
100
AcDbMaterial
  1
Global
  2

 70
0
 40
1.0
 71
1
 41
1.0
 91
-1023410177
 42
1.0
 72
1
  3

 73
1
 74
1
 75
1
 44
0.5
 73
0
 45
1.0
 46
1.0
 77
1
  4

 78
1
 79
1
170
1
 48
1.0
171
1
  6

172
1
173
1
174
1
140
1.0
141
1.0
175
1
  7

176
1
177
1
178
1
143
1.0
179
1
  8

270
1
271
1
272
1
145
1.0
146
1.0
273
1
  9

274
1
275
1
276
1
 42
1.0
 72
1
  3

 73
1
 74
1
 75
1
 94
63
  0
MLINESTYLE
  5
22
102
{ACAD_REACTORS
330
10
102
}
330
10
100
AcDbMlineStyle
  2
Standard
 70
0
  3

 62
256
 51
90.0
 52
90.0
 71
2
 49
0.5
 62
256
  6
BYLAYER
 49
-0.5
 62
256
  6
BYLAYER
  0
MLEADERSTYLE
  5
2C
102
{ACAD_REACTORS
330
F
102
}
330
F
100
AcDbMLeaderStyle
179
2
170
2
171
1
172
0
 90
2
 40
0.0
 41
0.0
173
1
 91
-1056964608
 92
-2
290
1
 42
2.0
291
1
 43
8.0
  3
Standard
 44
4.0
300

342
29
174
1
175
1
176
0
178
1
 93
-1056964608
 45
4.0
292
0
297
0
 46
4.0
 94
-1056964608
 47
1.0
 49
1.0
140
1.0
294
1
141
0.0
177
0
142
1.0
295
0
296
0
143
3.75
271
0
272
9
273
9
  0
DICTIONARY
  5
2D
330
A
100
AcDbDictionary
280
1
281
1
  3
CREATED_BY_EZDXF
350
2E
  3
WRITTEN_BY_EZDXF
350
76
  0
DICTIONARYVAR
  5
2E
330
2D
100
DictionaryVariables
280
0
  1
1.4.3 @ 2026-02-13T04:54:07.531309+00:00
  0
DICTIONARYVAR
  5
76
330
2D
100
DictionaryVariables
280
0
  1
1.4.3 @ 2026-02-13T04:54:07.537686+00:00
  0
ENDSEC
  0
EOF
