  0
SECTION
  2
HEADER
  9
$ACADVER
  1
AC1032
  9
$ACADMAINTVER
 90
4
  9
$DWGCODEPAGE
  3
ANSI_1252
  9
$LASTSAVEDBY
  1
ezdxf
  9
$REQUIREDVERSIONS
160
0
  9
$INSBASE
 10
0.0
 20
0.0
 30
0.0
  9
$EXTMIN
 10
1e+20
 20
1e+20
 30
1e+20
  9
$EXTMAX
 10
-1e+20
 20
-1e+20
 30
-1e+20
  9
$LIMMIN
 10
0.0
 20
0.0
  9
$LIMMAX
 10
420.0
 20
297.0
  9
$ORTHOMODE
 70
0
  9
$REGENMODE
 70
1
  9
$FILLMODE
 70
1
  9
$QTEXTMODE
 70
0
  9
$MIRRTEXT
 70
1
  9
$LTSCALE
 40
1.0
  9
$ATTMODE
 70
1
  9
$TEXTSIZE
 40
2.5
  9
$TRACEWID
 40
1.0
  9
$TEXTSTYLE
  7
Standard
  9
$CLAYER
  8
0
  9
$CELTYPE
  6
ByLayer
  9
$CECOLOR
 62
256
  9
$CELTSCALE
 40
1.0
  9
$DISPSILH
 70
0
  9
$DIMSCALE
 40
1.0
  9
$DIMASZ
 40
2.5
  9
$DIMEXO
 40
0.625
  9
$DIMDLI
 40
3.75
  9
$DIMRND
 40
0.0
  9
$DIMDLE
 40
0.0
  9
$DIMEXE
 40
1.25
  9
$DIMTP
 40
0.0
  9
$DIMTM
 40
0.0
  9
$DIMTXT
 40
2.5
  9
$DIMCEN
 40
2.5
  9
$DIMTSZ
 40
0.0
  9
$DIMTOL
 70
0
  9
$DIMLIM
 70
0
  9
$DIMTIH
 70
0
  9
$DIMTOH
 70
0
  9
$DIMSE1
 70
0
  9
$DIMSE2
 70
0
  9
$DIMTAD
 70
1
  9
$DIMZIN
 70
8
  9
$DIMBLK
  1

  9
$DIMASO
 70
1
  9
$DIMSHO
 70
1
  9
$DIMPOST
  1

  9
$DIMAPOST
  1

  9
$DIMALT
 70
0
  9
$DIMALTD
 70
3
  9
$DIMALTF
 40
0.03937007874
  9
$DIMLFAC
 40
1.0
  9
$DIMTOFL
 70
1
  9
$DIMTVP
 40
0.0
  9
$DIMTIX
 70
0
  9
$DIMSOXD
 70
0
  9
$DIMSAH
 70
0
  9
$DIMBLK1
  1

  9
$DIMBLK2
  1

  9
$DIMSTYLE
  2
ISO-25
  9
$DIMCLRD
 70
0
  9
$DIMCLRE
 70
0
  9
$DIMCLRT
 70
0
  9
$DIMTFAC
 40
1.0
  9
$DIMGAP
 40
0.625
  9
$DIMJUST
 70
0
  9
$DIMSD1
 70
0
  9
$DIMSD2
 70
0
  9
$DIMTOLJ
 70
0
  9
$DIMTZIN
 70
8
  9
$DIMALTZ
 70
0
  9
$DIMALTTZ
 70
0
  9
$DIMUPT
 70
0
  9
$DIMDEC
 70
2
  9
$DIMTDEC
 70
2
  9
$DIMALTU
 70
2
  9
$DIMALTTD
 70
3
  9
$DIMTXSTY
  7
Standard
  9
$DIMAUNIT
 70
0
  9
$DIMADEC
 70
0
  9
$DIMALTRND
 40
0.0
  9
$DIMAZIN
 70
0
  9
$DIMDSEP
 70
44
  9
$DIMATFIT
 70
3
  9
$DIMFRAC
 70
0
  9
$DIMLDRBLK
  1

  9
$DIMLUNIT
 70
2
  9
$DIMLWD
 70
-2
  9
$DIMLWE
 70
-2
  9
$DIMTMOVE
 70
0
  9
$DIMFXL
 40
1.0
  9
$DIMFXLON
 70
0
  9
$DIMJOGANG
 40
0.785398163397
  9
$DIMTFILL
 70
0
  9
$DIMTFILLCLR
 70
0
  9
$DIMARCSYM
 70
0
  9
$DIMLTYPE
  6

  9
$DIMLTEX1
  6

  9
$DIMLTEX2
  6

  9
$DIMTXTDIRECTION
 70
0
  9
$LUNITS
 70
2
  9
$LUPREC
 70
4
  9
$SKETCHINC
 40
1.0
  9
$FILLETRAD
 40
10.0
  9
$AUNITS
 70
0
  9
$AUPREC
 70
2
  9
$MENU
  1
.
  9
$ELEVATION
 40
0.0
  9
$PELEVATION
 40
0.0
  9
$THICKNESS
 40
0.0
  9
$LIMCHECK
 70
0
  9
$CHAMFERA
 40
0.0
  9
$CHAMFERB
 40
0.0
  9
$CHAMFERC
 40
0.0
  9
$CHAMFERD
 40
0.0
  9
$SKPOLY
 70
0
  9
$TDCREATE
 40
2461085.2459143517
  9
$TDUCREATE
 40
2458532.153996898
  9
$TDUPDATE
 40
2461085.2459143517
  9
$TDUUPDATE
 40
2458532.1544311
  9
$TDINDWG
 40
0.0
  9
$TDUSRTIMER
 40
0.0
  9
$USRTIMER
 70
1
  9
$ANGBASE
 50
0.0
  9
$ANGDIR
 70
0
  9
$PDMODE
 70
0
  9
$PDSIZE
 40
0.0
  9
$PLINEWID
 40
0.0
  9
$SPLFRAME
 70
0
  9
$SPLINETYPE
 70
6
  9
$SPLINESEGS
 70
8
  9
$HANDSEED
  5
6F
  9
$SURFTAB1
 70
6
  9
$SURFTAB2
 70
6
  9
$SURFTYPE
 70
6
  9
$SURFU
 70
6
  9
$SURFV
 70
6
  9
$UCSBASE
  2

  9
$UCSNAME
  2

  9
$UCSORG
 10
0.0
 20
0.0
 30
0.0
  9
$UCSXDIR
 10
1.0
 20
0.0
 30
0.0
  9
$UCSYDIR
 10
0.0
 20
1.0
 30
0.0
  9
$UCSORTHOREF
  2

  9
$UCSORTHOVIEW
 70
0
  9
$UCSORGTOP
 10
0.0
 20
0.0
 30
0.0
  9
$UCSORGBOTTOM
 10
0.0
 20
0.0
 30
0.0
  9
$UCSORGLEFT
 10
0.0
 20
0.0
 30
0.0
  9
$UCSORGRIGHT
 10
0.0
 20
0.0
 30
0.0
  9
$UCSORGFRONT
 10
0.0
 20
0.0
 30
0.0
  9
$UCSORGBACK
 10
0.0
 20
0.0
 30
0.0
  9
$PUCSBASE
  2

  9
$PUCSNAME
  2

  9
$PUCSORG
 10
0.0
 20
0.0
 30
0.0
  9
$PUCSXDIR
 10
1.0
 20
0.0
 30
0.0
  9
$PUCSYDIR
 10
0.0
 20
1.0
 30
0.0
  9
$PUCSORTHOREF
  2

  9
$PUCSORTHOVIEW
 70
0
  9
$PUCSORGTOP
 10
0.0
 20
0.0
 30
0.0
  9
$PUCSORGBOTTOM
 10
0.0
 20
0.0
 30
0.0
  9
$PUCSORGLEFT
 10
0.0
 20
0.0
 30
0.0
  9
$PUCSORGRIGHT
 10
0.0
 20
0.0
 30
0.0
  9
$PUCSORGFRONT
 10
0.0
 20
0.0
 30
0.0
  9
$PUCSORGBACK
 10
0.0
 20
0.0
 30
0.0
  9
$USERI1
 70
0
  9
$USERI2
 70
0
  9
$USERI3
 70
0
  9
$USERI4
 70
0
  9
$USERI5
 70
0
  9
$USERR1
 40
0.0
  9
$USERR2
 40
0.0
  9
$USERR3
 40
0.0
  9
$USERR4
 40
0.0
  9
$USERR5
 40
0.0
  9
$WORLDVIEW
 70
1
  9
$SHADEDGE
 70
3
  9
$SHADEDIF
 70
70
  9
$TILEMODE
 70
1
  9
$MAXACTVP
 70
64
  9
$PINSBASE
 10
0.0
 20
0.0
 30
0.0
  9
$PLIMCHECK
 70
0
  9
$PEXTMIN
 10
1e+20
 20
1e+20
 30
1e+20
  9
$PEXTMAX
 10
-1e+20
 20
-1e+20
 30
-1e+20
  9
$PLIMMIN
 10
0.0
 20
0.0
  9
$PLIMMAX
 10
420.0
 20
297.0
  9
$UNITMODE
 70
0
  9
$VISRETAIN
 70
1
  9
$PLINEGEN
 70
0
  9
$PSLTSCALE
 70
1
  9
$TREEDEPTH
 70
3020
  9
$CMLSTYLE
  2
Standard
  9
$CMLJUST
 70
0
  9
$CMLSCALE
 40
20.0
  9
$PROXYGRAPHICS
 70
1
  9
$MEASUREMENT
 70
1
  9
$CELWEIGHT
370
-1
  9
$ENDCAPS
280
0
  9
$JOINSTYLE
280
0
  9
$LWDISPLAY
290
0
  9
$INSUNITS
 70
6
  9
$HYPERLINKBASE
  1

  9
$STYLESHEET
  1

  9
$XEDIT
290
1
  9
$CEPSNTYPE
380
0
  9
$PSTYLEMODE
290
1
  9
$FINGERPRINTGUID
  2
{5238533E-4496-4CB0-A16D-1E0A13C905FF}
  9
$VERSIONGUID
  2
{123D49F2-CBB3-475B-A9BA-334E1C4EF397}
  9
$EXTNAMES
290
1
  9
$PSVPSCALE
 40
0.0
  9
$OLESTARTUP
290
0
  9
$SORTENTS
280
127
  9
$INDEXCTL
280
0
  9
$HIDETEXT
280
1
  9
$XCLIPFRAME
280
1
  9
$HALOGAP
280
0
  9
$OBSCOLOR
 70
257
  9
$OBSLTYPE
280
0
  9
$INTERSECTIONDISPLAY
280
0
  9
$INTERSECTIONCOLOR
 70
257
  9
$DIMASSOC
280
2
  9
$PROJECTNAME
  1

  9
$CAMERADISPLAY
290
0
  9
$LENSLENGTH
 40
50.0
  9
$CAMERAHEIGHT
 40
0.0
  9
$STEPSPERSEC
 40
24.0
  9
$STEPSIZE
 40
100.0
  9
$3DDWFPREC
 40
2.0
  9
$PSOLWIDTH
 40
0.005
  9
$PSOLHEIGHT
 40
0.08
  9
$LOFTANG1
 40
1.570796326795
  9
$LOFTANG2
 40
1.570796326795
  9
$LOFTMAG1
 40
0.0
  9
$LOFTMAG2
 40
0.0
  9
$LOFTPARAM
 70
7
  9
$LOFTNORMALS
280
1
  9
$LATITUDE
 40
37.795
  9
$LONGITUDE
 40
-122.394
  9
$NORTHDIRECTION
 40
0.0
  9
$TIMEZONE
 70
-8000
  9
$LIGHTGLYPHDISPLAY
280
1
  9
$TILEMODELIGHTSYNCH
280
1
  9
$CMATERIAL
347
20
  9
$SOLIDHIST
280
0
  9
$SHOWHIST
280
1
  9
$DWFFRAME
280
2
  9
$DGNFRAME
280
2
  9
$REALWORLDSCALE
290
1
  9
$INTERFERECOLOR
 62
256
  9
$CSHADOW
280
0
  9
$SHADOWPLANELOCATION
 40
0.0
  0
ENDSEC
  0
SECTION
  2
CLASSES
  0
CLASS
  1
ACDBDICTIONARYWDFLT
  2
AcDbDictionaryWithDefault
  3
ObjectDBX Classes
 90
0
 91
0
280
0
281
0
  0
CLASS
  1
SUN
  2
AcDbSun
  3
SCENEOE
 90
1153
 91
0
280
0
281
0
  0
CLASS
  1
VISUALSTYLE
  2
AcDbVisualStyle
  3
ObjectDBX Classes
 90
4095
 91
0
280
0
281
0
  0
CLASS
  1
MATERIAL
  2
AcDbMaterial
  3
ObjectDBX Classes
 90
1153
 91
0
280
0
281
0
  0
CLASS
  1
SCALE
  2
AcDbScale
  3
ObjectDBX Classes
 90
1153
 91
0
280
0
281
0
  0
CLASS
  1
TABLESTYLE
  2
AcDbTableStyle
  3
ObjectDBX Classes
 90
4095
 91
0
280
0
281
0
  0
CLASS
  1
MLEADERSTYLE
  2
AcDbMLeaderStyle
  3
ACDB_MLEADERSTYLE_CLASS
 90
4095
 91
0
280
0
281
0
  0
CLASS
  1
DICTIONARYVAR
  2
AcDbDictionaryVar
  3
ObjectDBX Classes
 90
0
 91
0
280
0
281
0
  0
CLASS
  1
CELLSTYLEMAP
  2
AcDbCellStyleMap
  3
ObjectDBX Classes
 90
1152
 91
0
280
0
281
0
  0
CLASS
  1
MENTALRAYRENDERSETTINGS
  2
AcDbMentalRayRenderSettings
  3
SCENEOE
 90
1024
 91
0
280
0
281
0
  0
CLASS
  1
ACDBDETAILVIEWSTYLE
  2
AcDbDetailViewStyle
  3
ObjectDBX Classes
 90
1025
 91
0
280
0
281
0
  0
CLASS
  1
ACDBSECTIONVIEWSTYLE
  2
AcDbSectionViewStyle
  3
ObjectDBX Classes
 90
1025
 91
0
280
0
281
0
  0
CLASS
  1
RASTERVARIABLES
  2
AcDbRasterVariables
  3
ISM
 90
0
 91
0
280
0
281
0
  0
CLASS
  1
LAYOUT
  2
AcDbLayout
  3
ObjectDBX Classes
 90
0
 91
0
280
0
281
0
  0
CLASS
  1
ACDBPLACEHOLDER
  2
AcDbPlaceHolder
  3
ObjectDBX Classes
 90
0
 91
0
280
0
281
0
  0
ENDSEC
  0
SECTION
  2
TABLES
  0
TABLE
  2
VPORT
  5
8
330
0
100
AcDbSymbolTable
 70
1
  0
VPORT
  5
23
330
8
100
AcDbSymbolTableRecord
100
AcDbViewportTableRecord
  2
*Active
 70
0
 10
0.0
 20
0.0
 11
1.0
 21
1.0
 12
0.0
 22
0.0
 13
0.0
 23
0.0
 14
0.5
 24
0.5
 15
0.5
 25
0.5
 16
0.0
 26
0.0
 36
1.0
 17
0.0
 27
0.0
 37
0.0
 40
1000.0
 41
1.34
 42
50.0
 43
0.0
 44
0.0
 50
0.0
 51
0.0
 71
0
 72
1000
 73
1
 74
3
 75
0
 76
0
 77
0
 78
0
281
0
 65
0
146
0.0
  0
ENDTAB
  0
TABLE
  2
LTYPE
  5
2
330
0
100
AcDbSymbolTable
 70
3
  0
LTYPE
  5
24
330
2
100
AcDbSymbolTableRecord
100
AcDbLinetypeTableRecord
  2
ByBlock
 70
0
  3

 72
65
 73
0
 40
0.0
  0
LTYPE
  5
25
330
2
100
AcDbSymbolTableRecord
100
AcDbLinetypeTableRecord
  2
ByLayer
 70
0
  3

 72
65
 73
0
 40
0.0
  0
LTYPE
  5
26
330
2
100
AcDbSymbolTableRecord
100
AcDbLinetypeTableRecord
  2
Continuous
 70
0
  3

 72
65
 73
0
 40
0.0
  0
ENDTAB
  0
TABLE
  2
LAYER
  5
1
330
0
100
AcDbSymbolTable
 70
3
  0
LAYER
  5
27
330
1
100
AcDbSymbolTableRecord
100
AcDbLayerTableRecord
  2
0
 70
0
 62
7
  6
Continuous
370
-3
390
13
347
21
  0
LAYER
  5
28
330
1
100
AcDbSymbolTableRecord
100
AcDbLayerTableRecord
  2
Defpoints
 70
0
 62
7
  6
Continuous
290
0
370
-3
390
13
347
21
  0
LAYER
  5
69
330
1
100
AcDbSymbolTableRecord
100
AcDbLayerTableRecord
  2
A-DETL-GENF
 70
0
 62
92
  6
Continuous
370
18
390
13
347
21
348
0
  0
ENDTAB
  0
TABLE
  2
STYLE
  5
5
330
0
100
AcDbSymbolTable
 70
1
  0
STYLE
  5
29
330
5
100
AcDbSymbolTableRecord
100
AcDbTextStyleTableRecord
  2
Standard
 70
0
 40
0.0
 41
1.0
 50
0.0
 71
0
 42
2.5
  3
txt
  4

  0
ENDTAB
  0
TABLE
  2
VIEW
  5
7
330
0
100
AcDbSymbolTable
 70
0
  0
ENDTAB
  0
TABLE
  2
UCS
  5
6
330
0
100
AcDbSymbolTable
 70
0
  0
ENDTAB
  0
TABLE
  2
APPID
  5
3
330
0
100
AcDbSymbolTable
 70
3
  0
APPID
  5
2A
330
3
100
AcDbSymbolTableRecord
100
AcDbRegAppTableRecord
  2
ACAD
 70
0
  0
APPID
  5
6C
330
3
100
AcDbSymbolTableRecord
100
AcDbRegAppTableRecord
  2
HATCHBACKGROUNDCOLOR
 70
0
  0
APPID
  5
6D
330
3
100
AcDbSymbolTableRecord
100
AcDbRegAppTableRecord
  2
EZDXF
 70
0
  0
ENDTAB
  0
TABLE
  2
DIMSTYLE
  5
4
330
0
100
AcDbSymbolTable
 70
1
100
AcDbDimStyleTable
  0
DIMSTYLE
105
2B
330
4
100
AcDbSymbolTableRecord
100
AcDbDimStyleTableRecord
  2
Standard
 70
0
 40
1.0
 41
2.5
 42
0.625
 43
3.75
 44
1.25
 45
0.0
 46
0.0
 47
0.0
 48
0.0
 49
2.5
140
2.5
141
2.5
142
0.0
143
0.03937007874
144
1.0
145
0.0
146
1.0
147
0.625
148
0.0
 69
0
 70
0
 71
0
 72
0
 73
0
 74
0
 75
0
 76
0
 77
1
 78
8
 79
3
170
0
171
3
172
1
173
0
174
0
175
0
176
0
177
0
178
0
179
2
271
2
272
2
273
2
274
3
275
0
276
0
277
2
278
44
279
0
280
0
281
0
282
0
283
0
284
8
285
0
286
0
288
0
289
3
290
0
371
-2
372
-2
  0
ENDTAB
  0
TABLE
  2
BLOCK_RECORD
  5
9
330
0
100
AcDbSymbolTable
 70
3
  0
BLOCK_RECORD
  5
17
330
9
100
AcDbSymbolTableRecord
100
AcDbBlockTableRecord
  2
*Model_Space
340
1A
 70
0
280
1
281
0
  0
BLOCK_RECORD
  5
1B
330
9
100
AcDbSymbolTableRecord
100
AcDbBlockTableRecord
  2
*Paper_Space
340
1E
 70
0
280
1
281
0
  0
BLOCK_RECORD
  5
2F
330
9
100
AcDbSymbolTableRecord
100
AcDbBlockTableRecord
  2
23 VBI_PS-combinatie - RC 6_5 630-3540195-00_0 Basismaterialen
340
0
 70
0
280
1
281
0
  0
ENDTAB
  0
ENDSEC
  0
SECTION
  2
BLOCKS
  0
BLOCK
  5
18
330
17
100
AcDbEntity
  8
0
100
AcDbBlockBegin
  2
*Model_Space
 70
0
 10
0.0
 20
0.0
 30
0.0
  3
*Model_Space
  1

  0
ENDBLK
  5
19
330
17
100
AcDbEntity
  8
0
100
AcDbBlockEnd
  0
BLOCK
  5
1C
330
1B
100
AcDbEntity
  8
0
100
AcDbBlockBegin
  2
*Paper_Space
 70
0
 10
0.0
 20
0.0
 30
0.0
  3
*Paper_Space
  1

  0
ENDBLK
  5
1D
330
1B
100
AcDbEntity
  8
0
100
AcDbBlockEnd
  0
BLOCK
  5
30
330
2F
100
AcDbEntity
  8
0
100
AcDbBlockBegin
  2
23 VBI_PS-combinatie - RC 6_5 630-3540195-00_0 Basismaterialen
 70
0
 10
0.0
 20
0.0
 30
0.0
  3
23 VBI_PS-combinatie - RC 6_5 630-3540195-00_0 Basismaterialen
  1

  0
HATCH
  5
32
330
2F
100
AcDbEntity
  8
A-DETL-GENF
370
5
100
AcDbHatch
 10
0.0
 20
0.0
 30
0.0
210
0.0
220
0.0
230
1.0
  2
FP_134
 70
0
 71
0
 91
1
 92
1
 93
34
 72
1
 10
-58.00000000002146
 20
-8.6629e-12
 11
57.9999999999868
 21
-8.6629e-12
 72
1
 10
57.99999999998681
 20
-8.6629e-12
 11
57.99999999998681
 21
46.15731421018284
 72
1
 10
57.99999999998681
 20
46.15731421018284
 11
57.87795248569484
 21
47.25511410498495
 72
1
 10
57.87795248569484
 20
47.25511410498495
 11
57.51777020751394
 21
48.29930227348711
 72
1
 10
57.51777020751394
 20
48.29930227348711
 11
56.93704288629596
 21
49.23888515070196
 72
1
 10
56.93704288629596
 20
49.23888515070196
 11
56.16413069436294
 21
50.02797763471394
 72
1
 10
56.16413069436294
 20
50.02797763471394
 11
55.23677926923706
 21
50.62804391361492
 72
1
 10
55.23677926923706
 20
50.62804391361492
 11
54.20027638239579
 21
51.00977938529549
 72
1
 10
54.20027638239579
 20
51.00977938529549
 11
41.88755613800443
 21
54.27865554314811
 72
1
 10
41.88755613800443
 20
54.27865554314811
 11
34.99999999998338
 21
55.99999988329318
 72
1
 10
34.99999999998338
 20
55.99999988329318
 11
32.28447144149251
 21
57.06419322908182
 72
1
 10
32.28447144149251
 20
57.06419322908182
 11
29.92894551877552
 21
58.78410615030737
 72
1
 10
29.92894551877552
 20
58.78410615030737
 11
28.08837031239347
 21
61.04660161745212
 72
1
 10
28.08837031239347
 20
61.04660161745212
 11
26.88382009819325
 21
63.70285115593626
 72
1
 10
26.88382009819325
 20
63.70285115593626
 11
26.39453099998468
 21
66.5781248833506
 72
1
 10
26.39453099998468
 20
66.5781248833506
 11
29.99999999998885
 21
140.0000000000418
 72
1
 10
29.99999999998885
 20
140.0000000000418
 11
29.99999999998885
 21
169.9999999999916
 72
1
 10
29.99999999998885
 20
169.9999999999916
 11
-30.00000000001483
 21
169.9999999999916
 72
1
 10
-30.00000000001484
 20
169.9999999999916
 11
-30.00000000001484
 21
139.9999999999985
 72
1
 10
-30.00000000001484
 20
139.9999999999985
 11
-26.36798124952298
 21
66.01397329796451
 72
1
 10
-26.36798124952298
 20
66.01397329796451
 11
-26.72956080345029
 21
63.43722732414827
 72
1
 10
-26.72956080345029
 20
63.43722732414827
 11
-27.74242944698765
 21
61.04046769950191
 72
1
 10
-27.74242944698765
 20
61.04046769950191
 11
-29.3382823836516
 21
58.98532464074906
 72
1
 10
-29.3382823836516
 20
58.98532464074906
 11
-31.40950012028654
 21
57.41039077711273
 72
1
 10
-31.40950012028654
 20
57.41039077711273
 11
-33.81640600004445
 21
56.42187488276112
 72
1
 10
-33.81640600004445
 20
56.42187488276112
 11
-54.28417997094157
 21
50.98828189049599
 72
1
 10
-54.28417997094157
 20
50.98828189049599
 11
-55.30110457301507
 21
50.59530272057227
 72
1
 10
-55.30110457301507
 20
50.59530272057227
 11
-56.20863482619809
 21
49.99118591576692
 72
1
 10
-56.20863482619809
 20
49.99118591576692
 11
-56.96359491091291
 21
49.20467237819969
 72
1
 10
-56.96359491091291
 20
49.20467237819969
 11
-57.53006754474324
 21
48.27318054816682
 72
1
 10
-57.53006754474324
 20
48.27318054816682
 11
-57.8811027498093
 21
47.2410262190627
 72
1
 10
-57.8811027498093
 20
47.2410262190627
 11
-58.00000000002146
 21
46.15731421018284
 72
1
 10
-58.00000000002146
 20
46.15731421018284
 11
-58.00000000002146
 21
39.13237364818292
 72
1
 10
-58.00000000002146
 20
39.13237364818292
 11
-58.00000000002146
 21
-8.6615e-12
 97
0
 75
0
 76
2
 52
0.0
 41
1.0
 77
0
 78
1
 53
45.0
 43
9504.826999999997
 44
8524.384000000002
 45
-7.071067811865475
 46
7.071067811865475
 79
0
 98
1
 10
0.0
 20
0.0
  0
ARC
  5
33
330
2F
100
AcDbEntity
  8
A-DETL-GENF
370
25
100
AcDbCircle
 10
53.00169990392168
 20
46.15731421019233
 30
0.0
 40
4.998300096080031
100
AcDbArc
 50
3.5e-14
 51
76.12545105200128
  0
LINE
  5
34
330
2F
100
AcDbEntity
  8
A-DETL-GENF
370
25
100
AcDbLine
 10
54.20027638241642
 20
51.00977938530413
 30
0.0
 11
41.88755613803122
 21
54.27865554315639
 31
0.0
  0
LINE
  5
35
330
2F
100
AcDbEntity
  8
A-DETL-GENF
370
25
100
AcDbLine
 10
41.88755613802327
 20
54.27865554315837
 30
0.0
 11
35.00000000000385
 21
55.99999988330161
 31
0.0
  0
ARC
  5
36
330
2F
100
AcDbEntity
  8
A-DETL-GENF
370
25
100
AcDbCircle
 10
37.75724359693841
 20
67.032464229454
 30
0.0
 40
11.37179237420208
100
AcDbArc
 50
182.2897584369804
 51
255.968021242052
  0
LINE
  5
37
330
2F
100
AcDbEntity
  8
A-DETL-GENF
370
25
100
AcDbLine
 10
26.39453100000314
 20
66.57812488335989
 30
0.0
 11
30.0000000000056
 21
140.000000000055
 31
0.0
  0
LINE
  5
38
330
2F
100
AcDbEntity
  8
A-DETL-GENF
370
25
100
AcDbLine
 10
30.0000000000054
 20
140.0000000000482
 30
0.0
 11
30.0000000000054
 21
170.0000000000004
 31
0.0
  0
LINE
  5
39
330
2F
100
AcDbEntity
  8
A-DETL-GENF
370
25
100
AcDbLine
 10
30.0000000000054
 20
170.0000000000004
 30
0.0
 11
-29.99999999999456
 21
170.0000000000004
 31
0.0
  0
LINE
  5
3A
330
2F
100
AcDbEntity
  8
A-DETL-GENF
370
25
100
AcDbLine
 10
-29.99999999999456
 20
170.0000000000004
 30
0.0
 11
-29.99999999999456
 21
140.0000000000072
 31
0.0
  0
LINE
  5
3B
330
2F
100
AcDbEntity
  8
A-DETL-GENF
370
25
100
AcDbLine
 10
-29.99999999999456
 20
140.0000000000072
 30
0.0
 11
-26.36798124950491
 21
66.01397329797277
 31
0.0
  0
ARC
  5
3C
330
2F
100
AcDbEntity
  8
A-DETL-GENF
370
25
100
AcDbCircle
 10
-36.38730565808169
 20
66.1061838065066
 30
0.0
 40
10.01974871851516
100
AcDbArc
 50
284.8674202322909
 51
359.4727065824709
  0
LINE
  5
3D
330
2F
100
AcDbEntity
  8
A-DETL-GENF
370
25
100
AcDbLine
 10
-33.81640600002575
 20
56.42187488276846
 30
0.0
 11
-54.28417997092452
 21
50.98828189050379
 31
0.0
  0
ARC
  5
3E
330
2F
100
AcDbEntity
  8
A-DETL-GENF
370
25
100
AcDbCircle
 10
-53.0016999039217
 20
46.15731421019235
 30
0.0
 40
4.998300096080004
100
AcDbArc
 50
104.8674202322908
 51
179.9999999999996
  0
LINE
  5
3F
330
2F
100
AcDbEntity
  8
A-DETL-GENF
370
25
100
AcDbLine
 10
-58.00000000000173
 20
46.15731421019238
 30
0.0
 11
-58.00000000000173
 21
-1.69e-14
 31
0.0
  0
LINE
  5
40
330
2F
100
AcDbEntity
  8
A-DETL-GENF
370
25
100
AcDbLine
 10
-58.00000000000173
 20
-1.69e-14
 30
0.0
 11
58.00000000000171
 21
-1.69e-14
 31
0.0
  0
LINE
  5
41
330
2F
100
AcDbEntity
  8
A-DETL-GENF
370
25
100
AcDbLine
 10
58.00000000000171
 20
-1.69e-14
 30
0.0
 11
58.00000000000171
 21
46.15731421019234
 31
0.0
  0
ARC
  5
42
330
2F
100
AcDbEntity
  8
A-DETL-GENF
100
AcDbCircle
 10
562.5000000000003
 20
18.279846745543
 30
0.0
 40
5.000000000000965
100
AcDbArc
 50
106.6992442339978
 51
180.0000000000054
  0
LINE
  5
43
330
2F
100
AcDbEntity
  8
A-DETL-GENF
100
AcDbLine
 10
561.0632605721682
 20
23.06897817164874
 30
0.0
 11
567.5000000000014
 21
24.99999999999922
 31
0.0
  0
LINE
  5
44
330
2F
100
AcDbEntity
  8
A-DETL-GENF
100
AcDbLine
 10
567.5000000000014
 20
24.99999999999922
 30
0.0
 11
567.5000000000014
 21
53.03456515516741
 31
0.0
  0
ARC
  5
45
330
2F
100
AcDbEntity
  8
A-DETL-GENF
100
AcDbCircle
 10
574.500000000002
 20
53.03456515516743
 30
0.0
 40
7.000000000002698
100
AcDbArc
 50
104.0362434679268
 51
180.0000000000007
  0
LINE
  5
46
330
2F
100
AcDbEntity
  8
A-DETL-GENF
100
AcDbLine
 10
572.8022506247474
 20
59.82556265618567
 30
0.0
 11
597.5000000000011
 21
65.9999999999991
 31
0.0
  0
LINE
  5
47
330
2F
100
AcDbEntity
  8
A-DETL-GENF
100
AcDbLine
 10
597.5000000000011
 20
65.9999999999991
 30
0.0
 11
597.5000000000011
 21
114.999999999999
 31
0.0
  0
LINE
  5
48
330
2F
100
AcDbEntity
  8
A-DETL-GENF
100
AcDbLine
 10
597.5000000000011
 20
114.999999999999
 30
0.0
 11
446.5000000000008
 21
169.9999999999993
 31
0.0
  0
LINE
  5
49
330
2F
100
AcDbEntity
  8
A-DETL-GENF
100
AcDbLine
 10
446.5000000000008
 20
169.9999999999993
 30
0.0
 11
183.5000000000025
 21
169.9999999999993
 31
0.0
  0
LINE
  5
4A
330
2F
100
AcDbEntity
  8
A-DETL-GENF
100
AcDbLine
 10
183.5000000000025
 20
169.9999999999994
 30
0.0
 11
32.50000000000405
 21
114.999999999999
 31
0.0
  0
LINE
  5
4B
330
2F
100
AcDbEntity
  8
A-DETL-GENF
100
AcDbLine
 10
32.50000000000405
 20
114.999999999999
 30
0.0
 11
32.50000000000405
 21
65.9999999999991
 31
0.0
  0
LINE
  5
4C
330
2F
100
AcDbEntity
  8
A-DETL-GENF
100
AcDbLine
 10
32.50000000000405
 20
65.9999999999991
 30
0.0
 11
57.19774937525506
 21
59.82556265618635
 31
0.0
  0
ARC
  5
4D
330
2F
100
AcDbEntity
  8
A-DETL-GENF
100
AcDbCircle
 10
55.50000000000105
 20
53.03456515516987
 30
0.0
 40
7.000000000000548
100
AcDbArc
 50
1.745e-13
 51
75.96375653207453
  0
LINE
  5
4E
330
2F
100
AcDbEntity
  8
A-DETL-GENF
100
AcDbLine
 10
62.50000000000156
 20
53.03456515516984
 30
0.0
 11
62.50000000000156
 21
24.99999999999922
 31
0.0
  0
LINE
  5
4F
330
2F
100
AcDbEntity
  8
A-DETL-GENF
100
AcDbLine
 10
62.50000000000156
 20
24.99999999999922
 30
0.0
 11
68.93673942783184
 21
23.0689781716504
 31
0.0
  0
ARC
  5
50
330
2F
100
AcDbEntity
  8
A-DETL-GENF
100
AcDbCircle
 10
67.50000000000036
 20
18.27984674554481
 30
0.0
 40
5.000000000001076
100
AcDbArc
 50
8.142e-13
 51
73.30075576600824
  0
LINE
  5
51
330
2F
100
AcDbEntity
  8
A-DETL-GENF
100
AcDbLine
 10
72.50000000000145
 20
18.27984674554485
 30
0.0
 11
72.50000000000145
 21
4.999999999999167
 31
0.0
  0
ARC
  5
52
330
2F
100
AcDbEntity
  8
A-DETL-GENF
100
AcDbCircle
 10
62.50000000000156
 20
4.999999999999161
 30
0.0
 40
9.99999999999988
100
AcDbArc
 50
270.0
 51
4.453e-13
  0
LINE
  5
53
330
2F
100
AcDbEntity
  8
A-DETL-GENF
100
AcDbLine
 10
62.50000000000156
 20
-5.000000000000722
 30
0.0
 11
-102.4999999999978
 21
-5.000000000000722
 31
0.0
  0
LINE
  5
54
330
2F
100
AcDbEntity
  8
A-DETL-GENF
100
AcDbLine
 10
-102.4999999999978
 20
-5.000000000000722
 30
0.0
 11
-102.4999999999978
 21
-85.00000000000095
 31
0.0
  0
LINE
  5
55
330
2F
100
AcDbEntity
  8
A-DETL-GENF
100
AcDbLine
 10
-102.4999999999978
 20
-85.00000000000095
 30
0.0
 11
-80.49999999999633
 21
-107.0000000000008
 31
0.0
  0
LINE
  5
56
330
2F
100
AcDbEntity
  8
A-DETL-GENF
100
AcDbLine
 10
-80.49999999999633
 20
-107.0000000000008
 30
0.0
 11
92.0090909090929
 21
-107.0000000000008
 31
0.0
  0
LINE
  5
57
330
2F
100
AcDbEntity
  8
A-DETL-GENF
100
AcDbLine
 10
92.00909090909283
 20
-107.0000000000008
 30
0.0
 11
132.5000000000027
 21
-92.25165562914039
 31
0.0
  0
LINE
  5
58
330
2F
100
AcDbEntity
  8
A-DETL-GENF
100
AcDbLine
 10
132.500000000003
 20
-92.25165562914027
 30
0.0
 11
180.9336988065988
 21
-58.77385031197327
 31
0.0
  0
ARC
  5
59
330
2F
100
AcDbEntity
  8
A-DETL-GENF
100
AcDbCircle
 10
186.6196869625986
 20
-66.99999999999787
 30
0.0
 40
9.999999999995435
100
AcDbArc
 50
90.0
 51
124.6525745919944
  0
LINE
  5
5A
330
2F
100
AcDbEntity
  8
A-DETL-GENF
100
AcDbLine
 10
186.6196869625986
 20
-57.00000000000081
 30
0.0
 11
443.2500553188471
 21
-57.00000000000081
 31
0.0
  0
ARC
  5
5B
330
2F
100
AcDbEntity
  8
A-DETL-GENF
100
AcDbCircle
 10
443.250055318847
 20
-67.00000000000117
 30
0.0
 40
10.00000000000011
100
AcDbArc
 50
53.99225013652347
 51
90.00000000000006
  0
LINE
  5
5C
330
2F
100
AcDbEntity
  8
A-DETL-GENF
100
AcDbLine
 10
449.129002069517
 20
-58.91062517231652
 30
0.0
 11
492.5000000000012
 21
-90.43046357615988
 31
0.0
  0
LINE
  5
5D
330
2F
100
AcDbEntity
  8
A-DETL-GENF
100
AcDbLine
 10
492.5000000000011
 20
-90.43046357615982
 30
0.0
 11
522.5000000000009
 21
-101.3576158940403
 31
0.0
  0
LINE
  5
5E
330
2F
100
AcDbEntity
  8
A-DETL-GENF
100
AcDbLine
 10
522.5000000000009
 20
-101.3576158940403
 30
0.0
 11
522.5000000000009
 21
-5.000000000002822
 31
0.0
  0
LINE
  5
5F
330
2F
100
AcDbEntity
  8
A-DETL-GENF
100
AcDbLine
 10
522.5000000000009
 20
-5.00000000000282
 30
0.0
 11
557.5000000000036
 21
-5.00000000000282
 31
0.0
  0
LINE
  5
60
330
2F
100
AcDbEntity
  8
A-DETL-GENF
100
AcDbLine
 10
557.5000000000036
 20
-5.00000000000282
 30
0.0
 11
557.5000000000016
 21
18.27984674554254
 31
0.0
  0
LINE
  5
61
330
2F
100
AcDbEntity
  8
A-DETL-GENF
100
AcDbLine
 10
-102.4999999999978
 20
-5.000000000000727
 30
0.0
 11
-43.6102725426562
 21
-107.0000000000008
 31
0.0
  0
LINE
  5
62
330
2F
100
AcDbEntity
  8
A-DETL-GENF
100
AcDbLine
 10
-43.6102725426562
 20
-107.0000000000008
 30
0.0
 11
15.27945491468577
 21
-5.000000000000724
 31
0.0
  0
LINE
  5
63
330
2F
100
AcDbEntity
  8
A-DETL-GENF
100
AcDbLine
 10
15.27945491468577
 20
-5.000000000000709
 30
0.0
 11
74.16918237202697
 21
-107.0000000000008
 31
0.0
  0
LINE
  5
64
330
2F
100
AcDbEntity
  8
A-DETL-GENF
100
AcDbLine
 10
74.16918237202697
 20
-107.0000000000008
 30
0.0
 11
234.0952069375537
 21
169.9999999999992
 31
0.0
  0
LINE
  5
65
330
2F
100
AcDbEntity
  8
A-DETL-GENF
100
AcDbLine
 10
234.0952069375537
 20
169.9999999999992
 30
0.0
 11
365.1537180435972
 21
-57.00000000000084
 31
0.0
  0
LINE
  5
66
330
2F
100
AcDbEntity
  8
A-DETL-GENF
100
AcDbLine
 10
365.1537180435972
 20
-57.00000000000082
 30
0.0
 11
487.5745358505747
 21
155.0390763458168
 31
0.0
  0
LINE
  5
67
330
2F
100
AcDbEntity
  8
A-DETL-GENF
100
AcDbLine
 10
487.5745358505747
 20
155.0390763458167
 30
0.0
 11
563.3682684762402
 21
23.76048054287045
 31
0.0
  0
LINE
  5
68
330
2F
100
AcDbEntity
  8
A-DETL-GENF
100
AcDbLine
 10
563.3682684762402
 20
23.76048054287049
 30
0.0
 11
567.5000000000014
 21
30.91684946525872
 31
0.0
  0
ENDBLK
  5
31
330
2F
100
AcDbEntity
  8
0
100
AcDbBlockEnd
  0
ENDSEC
  0
SECTION
  2
ENTITIES
  0
INSERT
  5
6A
330
17
100
AcDbEntity
  8
0
100
AcDbBlockReference
  2
23 VBI_PS-combinatie - RC 6_5 630-3540195-00_0 Basismaterialen
 10
0.0
 20
0.0
 30
0.0
  0
ENDSEC
  0
SECTION
  2
OBJECTS
  0
DICTIONARY
  5
A
330
0
100
AcDbDictionary
281
1
  3
ACAD_COLOR
350
B
  3
ACAD_GROUP
350
C
  3
ACAD_LAYOUT
350
D
  3
ACAD_MATERIAL
350
E
  3
ACAD_MLEADERSTYLE
350
F
  3
ACAD_MLINESTYLE
350
10
  3
ACAD_PLOTSETTINGS
350
11
  3
ACAD_PLOTSTYLENAME
350
12
  3
ACAD_SCALELIST
350
14
  3
ACAD_TABLESTYLE
350
15
  3
ACAD_VISUALSTYLE
350
16
  3
EZDXF_META
350
2D
  0
DICTIONARY
  5
B
330
A
100
AcDbDictionary
281
1
  0
DICTIONARY
  5
C
330
A
100
AcDbDictionary
281
1
  0
DICTIONARY
  5
D
330
A
100
AcDbDictionary
281
1
  3
Model
350
1A
  3
Layout1
350
1E
  0
DICTIONARY
  5
E
330
A
100
AcDbDictionary
281
1
  3
ByBlock
350
1F
  3
ByLayer
350
20
  3
Global
350
21
  0
DICTIONARY
  5
F
330
A
100
AcDbDictionary
281
1
  3
Standard
350
2C
  0
DICTIONARY
  5
10
330
A
100
AcDbDictionary
281
1
  3
Standard
350
22
  0
DICTIONARY
  5
11
330
A
100
AcDbDictionary
281
1
  0
ACDBDICTIONARYWDFLT
  5
12
330
A
100
AcDbDictionary
281
1
  3
Normal
350
13
100
AcDbDictionaryWithDefault
340
13
  0
ACDBPLACEHOLDER
  5
13
330
12
  0
DICTIONARY
  5
14
330
A
100
AcDbDictionary
281
1
  0
DICTIONARY
  5
15
330
A
100
AcDbDictionary
281
1
  0
DICTIONARY
  5
16
330
A
100
AcDbDictionary
281
1
  0
LAYOUT
  5
1A
330
D
100
AcDbPlotSettings
  1

  4
A3
  6

 40
7.5
 41
20.0
 42
7.5
 43
20.0
 44
420.0
 45
297.0
 46
0.0
 47
0.0
 48
0.0
 49
0.0
140
0.0
141
0.0
142
1.0
143
1.0
 70
1024
 72
1
 73
0
 74
5
  7

 75
16
 76
0
 77
2
 78
300
147
1.0
148
0.0
149
0.0
100
AcDbLayout
  1
Model
 70
1
 71
0
 10
0.0
 20
0.0
 11
420.0
 21
297.0
 12
0.0
 22
0.0
 32
0.0
 14
1e+20
 24
1e+20
 34
1e+20
 15
-1e+20
 25
-1e+20
 35
-1e+20
146
0.0
 13
0.0
 23
0.0
 33
0.0
 16
1.0
 26
0.0
 36
0.0
 17
0.0
 27
1.0
 37
0.0
 76
1
330
17
  0
LAYOUT
  5
1E
330
D
100
AcDbPlotSettings
  1

  4
A3
  6

 40
7.5
 41
20.0
 42
7.5
 43
20.0
 44
420.0
 45
297.0
 46
0.0
 47
0.0
 48
0.0
 49
0.0
140
0.0
141
0.0
142
1.0
143
1.0
 70
0
 72
1
 73
0
 74
5
  7

 75
16
 76
0
 77
2
 78
300
147
1.0
148
0.0
149
0.0
100
AcDbLayout
  1
Layout1
 70
1
 71
1
 10
0.0
 20
0.0
 11
420.0
 21
297.0
 12
0.0
 22
0.0
 32
0.0
 14
1e+20
 24
1e+20
 34
1e+20
 15
-1e+20
 25
-1e+20
 35
-1e+20
146
0.0
 13
0.0
 23
0.0
 33
0.0
 16
1.0
 26
0.0
 36
0.0
 17
0.0
 27
1.0
 37
0.0
 76
1
330
1B
  0
MATERIAL
  5
1F
102
{ACAD_REACTORS
330
E
102
}
330
E
100
AcDbMaterial
  1
ByBlock
  2

 70
0
 40
1.0
 71
1
 41
1.0
 91
-1023410177
 42
1.0
 72
1
  3

 73
1
 74
1
 75
1
 44
0.5
 73
0
 45
1.0
 46
1.0
 77
1
  4

 78
1
 79
1
170
1
 48
1.0
171
1
  6

172
1
173
1
174
1
140
1.0
141
1.0
175
1
  7

176
1
177
1
178
1
143
1.0
179
1
  8

270
1
271
1
272
1
145
1.0
146
1.0
273
1
  9

274
1
275
1
276
1
 42
1.0
 72
1
  3

 73
1
 74
1
 75
1
 94
63
  0
MATERIAL
  5
20
102
{ACAD_REACTORS
330
E
102
}
330
E
100
AcDbMaterial
  1
ByLayer
  2

 70
0
 40
1.0
 71
1
 41
1.0
 91
-1023410177
 42
1.0
 72
1
  3

 73
1
 74
1
 75
1
 44
0.5
 73
0
 45
1.0
 46
1.0
 77
1
  4

 78
1
 79
1
170
1
 48
1.0
171
1
  6

172
1
173
1
174
1
140
1.0
141
1.0
175
1
  7

176
1
177
1
178
1
143
1.0
179
1
  8

270
1
271
1
272
1
145
1.0
146
1.0
273
1
  9

274
1
275
1
276
1
 42
1.0
 72
1
  3

 73
1
 74
1
 75
1
 94
63
  0
MATERIAL
  5
21
102
{ACAD_REACTORS
330
E
102
}
330
E
100
AcDbMaterial
  1
Global
  2

 70
0
 40
1.0
 71
1
 41
1.0
 91
-1023410177
 42
1.0
 72
1
  3

 73
1
 74
1
 75
1
 44
0.5
 73
0
 45
1.0
 46
1.0
 77
1
  4

 78
1
 79
1
170
1
 48
1.0
171
1
  6

172
1
173
1
174
1
140
1.0
141
1.0
175
1
  7

176
1
177
1
178
1
143
1.0
179
1
  8

270
1
271
1
272
1
145
1.0
146
1.0
273
1
  9

274
1
275
1
276
1
 42
1.0
 72
1
  3

 73
1
 74
1
 75
1
 94
63
  0
MLINESTYLE
  5
22
102
{ACAD_REACTORS
330
10
102
}
330
10
100
AcDbMlineStyle
  2
Standard
 70
0
  3

 62
256
 51
90.0
 52
90.0
 71
2
 49
0.5
 62
256
  6
BYLAYER
 49
-0.5
 62
256
  6
BYLAYER
  0
MLEADERSTYLE
  5
2C
102
{ACAD_REACTORS
330
F
102
}
330
F
100
AcDbMLeaderStyle
179
2
170
2
171
1
172
0
 90
2
 40
0.0
 41
0.0
173
1
 91
-1056964608
 92
-2
290
1
 42
2.0
291
1
 43
8.0
  3
Standard
 44
4.0
300

342
29
174
1
175
1
176
0
178
1
 93
-1056964608
 45
4.0
292
0
297
0
 46
4.0
 94
-1056964608
 47
1.0
 49
1.0
140
1.0
294
1
141
0.0
177
0
142
1.0
295
0
296
0
143
3.75
271
0
272
9
273
9
  0
DICTIONARY
  5
2D
330
A
100
AcDbDictionary
280
1
281
1
  3
CREATED_BY_EZDXF
350
2E
  3
WRITTEN_BY_EZDXF
350
6E
  0
DICTIONARYVAR
  5
2E
330
2D
100
DictionaryVariables
280
0
  1
1.4.3 @ 2026-02-13T04:54:07.088945+00:00
  0
DICTIONARYVAR
  5
6E
330
2D
100
DictionaryVariables
280
0
  1
1.4.3 @ 2026-02-13T04:54:07.092992+00:00
  0
ENDSEC
  0
EOF
