  0
SECTION
  2
HEADER
  9
$ACADVER
  1
AC1032
  9
$ACADMAINTVER
 90
4
  9
$DWGCODEPAGE
  3
ANSI_1252
  9
$LASTSAVEDBY
  1
ezdxf
  9
$REQUIREDVERSIONS
160
0
  9
$INSBASE
 10
0.0
 20
0.0
 30
0.0
  9
$EXTMIN
 10
1e+20
 20
1e+20
 30
1e+20
  9
$EXTMAX
 10
-1e+20
 20
-1e+20
 30
-1e+20
  9
$LIMMIN
 10
0.0
 20
0.0
  9
$LIMMAX
 10
420.0
 20
297.0
  9
$ORTHOMODE
 70
0
  9
$REGENMODE
 70
1
  9
$FILLMODE
 70
1
  9
$QTEXTMODE
 70
0
  9
$MIRRTEXT
 70
1
  9
$LTSCALE
 40
1.0
  9
$ATTMODE
 70
1
  9
$TEXTSIZE
 40
2.5
  9
$TRACEWID
 40
1.0
  9
$TEXTSTYLE
  7
Standard
  9
$CLAYER
  8
0
  9
$CELTYPE
  6
ByLayer
  9
$CECOLOR
 62
256
  9
$CELTSCALE
 40
1.0
  9
$DISPSILH
 70
0
  9
$DIMSCALE
 40
1.0
  9
$DIMASZ
 40
2.5
  9
$DIMEXO
 40
0.625
  9
$DIMDLI
 40
3.75
  9
$DIMRND
 40
0.0
  9
$DIMDLE
 40
0.0
  9
$DIMEXE
 40
1.25
  9
$DIMTP
 40
0.0
  9
$DIMTM
 40
0.0
  9
$DIMTXT
 40
2.5
  9
$DIMCEN
 40
2.5
  9
$DIMTSZ
 40
0.0
  9
$DIMTOL
 70
0
  9
$DIMLIM
 70
0
  9
$DIMTIH
 70
0
  9
$DIMTOH
 70
0
  9
$DIMSE1
 70
0
  9
$DIMSE2
 70
0
  9
$DIMTAD
 70
1
  9
$DIMZIN
 70
8
  9
$DIMBLK
  1

  9
$DIMASO
 70
1
  9
$DIMSHO
 70
1
  9
$DIMPOST
  1

  9
$DIMAPOST
  1

  9
$DIMALT
 70
0
  9
$DIMALTD
 70
3
  9
$DIMALTF
 40
0.03937007874
  9
$DIMLFAC
 40
1.0
  9
$DIMTOFL
 70
1
  9
$DIMTVP
 40
0.0
  9
$DIMTIX
 70
0
  9
$DIMSOXD
 70
0
  9
$DIMSAH
 70
0
  9
$DIMBLK1
  1

  9
$DIMBLK2
  1

  9
$DIMSTYLE
  2
ISO-25
  9
$DIMCLRD
 70
0
  9
$DIMCLRE
 70
0
  9
$DIMCLRT
 70
0
  9
$DIMTFAC
 40
1.0
  9
$DIMGAP
 40
0.625
  9
$DIMJUST
 70
0
  9
$DIMSD1
 70
0
  9
$DIMSD2
 70
0
  9
$DIMTOLJ
 70
0
  9
$DIMTZIN
 70
8
  9
$DIMALTZ
 70
0
  9
$DIMALTTZ
 70
0
  9
$DIMUPT
 70
0
  9
$DIMDEC
 70
2
  9
$DIMTDEC
 70
2
  9
$DIMALTU
 70
2
  9
$DIMALTTD
 70
3
  9
$DIMTXSTY
  7
Standard
  9
$DIMAUNIT
 70
0
  9
$DIMADEC
 70
0
  9
$DIMALTRND
 40
0.0
  9
$DIMAZIN
 70
0
  9
$DIMDSEP
 70
44
  9
$DIMATFIT
 70
3
  9
$DIMFRAC
 70
0
  9
$DIMLDRBLK
  1

  9
$DIMLUNIT
 70
2
  9
$DIMLWD
 70
-2
  9
$DIMLWE
 70
-2
  9
$DIMTMOVE
 70
0
  9
$DIMFXL
 40
1.0
  9
$DIMFXLON
 70
0
  9
$DIMJOGANG
 40
0.785398163397
  9
$DIMTFILL
 70
0
  9
$DIMTFILLCLR
 70
0
  9
$DIMARCSYM
 70
0
  9
$DIMLTYPE
  6

  9
$DIMLTEX1
  6

  9
$DIMLTEX2
  6

  9
$DIMTXTDIRECTION
 70
0
  9
$LUNITS
 70
2
  9
$LUPREC
 70
4
  9
$SKETCHINC
 40
1.0
  9
$FILLETRAD
 40
10.0
  9
$AUNITS
 70
0
  9
$AUPREC
 70
2
  9
$MENU
  1
.
  9
$ELEVATION
 40
0.0
  9
$PELEVATION
 40
0.0
  9
$THICKNESS
 40
0.0
  9
$LIMCHECK
 70
0
  9
$CHAMFERA
 40
0.0
  9
$CHAMFERB
 40
0.0
  9
$CHAMFERC
 40
0.0
  9
$CHAMFERD
 40
0.0
  9
$SKPOLY
 70
0
  9
$TDCREATE
 40
2461085.2459143517
  9
$TDUCREATE
 40
2458532.153996898
  9
$TDUPDATE
 40
2461085.2459143517
  9
$TDUUPDATE
 40
2458532.1544311
  9
$TDINDWG
 40
0.0
  9
$TDUSRTIMER
 40
0.0
  9
$USRTIMER
 70
1
  9
$ANGBASE
 50
0.0
  9
$ANGDIR
 70
0
  9
$PDMODE
 70
0
  9
$PDSIZE
 40
0.0
  9
$PLINEWID
 40
0.0
  9
$SPLFRAME
 70
0
  9
$SPLINETYPE
 70
6
  9
$SPLINESEGS
 70
8
  9
$HANDSEED
  5
83
  9
$SURFTAB1
 70
6
  9
$SURFTAB2
 70
6
  9
$SURFTYPE
 70
6
  9
$SURFU
 70
6
  9
$SURFV
 70
6
  9
$UCSBASE
  2

  9
$UCSNAME
  2

  9
$UCSORG
 10
0.0
 20
0.0
 30
0.0
  9
$UCSXDIR
 10
1.0
 20
0.0
 30
0.0
  9
$UCSYDIR
 10
0.0
 20
1.0
 30
0.0
  9
$UCSORTHOREF
  2

  9
$UCSORTHOVIEW
 70
0
  9
$UCSORGTOP
 10
0.0
 20
0.0
 30
0.0
  9
$UCSORGBOTTOM
 10
0.0
 20
0.0
 30
0.0
  9
$UCSORGLEFT
 10
0.0
 20
0.0
 30
0.0
  9
$UCSORGRIGHT
 10
0.0
 20
0.0
 30
0.0
  9
$UCSORGFRONT
 10
0.0
 20
0.0
 30
0.0
  9
$UCSORGBACK
 10
0.0
 20
0.0
 30
0.0
  9
$PUCSBASE
  2

  9
$PUCSNAME
  2

  9
$PUCSORG
 10
0.0
 20
0.0
 30
0.0
  9
$PUCSXDIR
 10
1.0
 20
0.0
 30
0.0
  9
$PUCSYDIR
 10
0.0
 20
1.0
 30
0.0
  9
$PUCSORTHOREF
  2

  9
$PUCSORTHOVIEW
 70
0
  9
$PUCSORGTOP
 10
0.0
 20
0.0
 30
0.0
  9
$PUCSORGBOTTOM
 10
0.0
 20
0.0
 30
0.0
  9
$PUCSORGLEFT
 10
0.0
 20
0.0
 30
0.0
  9
$PUCSORGRIGHT
 10
0.0
 20
0.0
 30
0.0
  9
$PUCSORGFRONT
 10
0.0
 20
0.0
 30
0.0
  9
$PUCSORGBACK
 10
0.0
 20
0.0
 30
0.0
  9
$USERI1
 70
0
  9
$USERI2
 70
0
  9
$USERI3
 70
0
  9
$USERI4
 70
0
  9
$USERI5
 70
0
  9
$USERR1
 40
0.0
  9
$USERR2
 40
0.0
  9
$USERR3
 40
0.0
  9
$USERR4
 40
0.0
  9
$USERR5
 40
0.0
  9
$WORLDVIEW
 70
1
  9
$SHADEDGE
 70
3
  9
$SHADEDIF
 70
70
  9
$TILEMODE
 70
1
  9
$MAXACTVP
 70
64
  9
$PINSBASE
 10
0.0
 20
0.0
 30
0.0
  9
$PLIMCHECK
 70
0
  9
$PEXTMIN
 10
1e+20
 20
1e+20
 30
1e+20
  9
$PEXTMAX
 10
-1e+20
 20
-1e+20
 30
-1e+20
  9
$PLIMMIN
 10
0.0
 20
0.0
  9
$PLIMMAX
 10
420.0
 20
297.0
  9
$UNITMODE
 70
0
  9
$VISRETAIN
 70
1
  9
$PLINEGEN
 70
0
  9
$PSLTSCALE
 70
1
  9
$TREEDEPTH
 70
3020
  9
$CMLSTYLE
  2
Standard
  9
$CMLJUST
 70
0
  9
$CMLSCALE
 40
20.0
  9
$PROXYGRAPHICS
 70
1
  9
$MEASUREMENT
 70
1
  9
$CELWEIGHT
370
-1
  9
$ENDCAPS
280
0
  9
$JOINSTYLE
280
0
  9
$LWDISPLAY
290
0
  9
$INSUNITS
 70
6
  9
$HYPERLINKBASE
  1

  9
$STYLESHEET
  1

  9
$XEDIT
290
1
  9
$CEPSNTYPE
380
0
  9
$PSTYLEMODE
290
1
  9
$FINGERPRINTGUID
  2
{EAF7C2A8-2F24-4CF0-88D4-309EF9C076D4}
  9
$VERSIONGUID
  2
{0167A6A5-3F13-430D-BEE9-207183104956}
  9
$EXTNAMES
290
1
  9
$PSVPSCALE
 40
0.0
  9
$OLESTARTUP
290
0
  9
$SORTENTS
280
127
  9
$INDEXCTL
280
0
  9
$HIDETEXT
280
1
  9
$XCLIPFRAME
280
1
  9
$HALOGAP
280
0
  9
$OBSCOLOR
 70
257
  9
$OBSLTYPE
280
0
  9
$INTERSECTIONDISPLAY
280
0
  9
$INTERSECTIONCOLOR
 70
257
  9
$DIMASSOC
280
2
  9
$PROJECTNAME
  1

  9
$CAMERADISPLAY
290
0
  9
$LENSLENGTH
 40
50.0
  9
$CAMERAHEIGHT
 40
0.0
  9
$STEPSPERSEC
 40
24.0
  9
$STEPSIZE
 40
100.0
  9
$3DDWFPREC
 40
2.0
  9
$PSOLWIDTH
 40
0.005
  9
$PSOLHEIGHT
 40
0.08
  9
$LOFTANG1
 40
1.570796326795
  9
$LOFTANG2
 40
1.570796326795
  9
$LOFTMAG1
 40
0.0
  9
$LOFTMAG2
 40
0.0
  9
$LOFTPARAM
 70
7
  9
$LOFTNORMALS
280
1
  9
$LATITUDE
 40
37.795
  9
$LONGITUDE
 40
-122.394
  9
$NORTHDIRECTION
 40
0.0
  9
$TIMEZONE
 70
-8000
  9
$LIGHTGLYPHDISPLAY
280
1
  9
$TILEMODELIGHTSYNCH
280
1
  9
$CMATERIAL
347
20
  9
$SOLIDHIST
280
0
  9
$SHOWHIST
280
1
  9
$DWFFRAME
280
2
  9
$DGNFRAME
280
2
  9
$REALWORLDSCALE
290
1
  9
$INTERFERECOLOR
 62
256
  9
$CSHADOW
280
0
  9
$SHADOWPLANELOCATION
 40
0.0
  0
ENDSEC
  0
SECTION
  2
CLASSES
  0
CLASS
  1
ACDBDICTIONARYWDFLT
  2
AcDbDictionaryWithDefault
  3
ObjectDBX Classes
 90
0
 91
0
280
0
281
0
  0
CLASS
  1
SUN
  2
AcDbSun
  3
SCENEOE
 90
1153
 91
0
280
0
281
0
  0
CLASS
  1
VISUALSTYLE
  2
AcDbVisualStyle
  3
ObjectDBX Classes
 90
4095
 91
0
280
0
281
0
  0
CLASS
  1
MATERIAL
  2
AcDbMaterial
  3
ObjectDBX Classes
 90
1153
 91
0
280
0
281
0
  0
CLASS
  1
SCALE
  2
AcDbScale
  3
ObjectDBX Classes
 90
1153
 91
0
280
0
281
0
  0
CLASS
  1
TABLESTYLE
  2
AcDbTableStyle
  3
ObjectDBX Classes
 90
4095
 91
0
280
0
281
0
  0
CLASS
  1
MLEADERSTYLE
  2
AcDbMLeaderStyle
  3
ACDB_MLEADERSTYLE_CLASS
 90
4095
 91
0
280
0
281
0
  0
CLASS
  1
DICTIONARYVAR
  2
AcDbDictionaryVar
  3
ObjectDBX Classes
 90
0
 91
0
280
0
281
0
  0
CLASS
  1
CELLSTYLEMAP
  2
AcDbCellStyleMap
  3
ObjectDBX Classes
 90
1152
 91
0
280
0
281
0
  0
CLASS
  1
MENTALRAYRENDERSETTINGS
  2
AcDbMentalRayRenderSettings
  3
SCENEOE
 90
1024
 91
0
280
0
281
0
  0
CLASS
  1
ACDBDETAILVIEWSTYLE
  2
AcDbDetailViewStyle
  3
ObjectDBX Classes
 90
1025
 91
0
280
0
281
0
  0
CLASS
  1
ACDBSECTIONVIEWSTYLE
  2
AcDbSectionViewStyle
  3
ObjectDBX Classes
 90
1025
 91
0
280
0
281
0
  0
CLASS
  1
RASTERVARIABLES
  2
AcDbRasterVariables
  3
ISM
 90
0
 91
0
280
0
281
0
  0
CLASS
  1
LAYOUT
  2
AcDbLayout
  3
ObjectDBX Classes
 90
0
 91
0
280
0
281
0
  0
CLASS
  1
ACDBPLACEHOLDER
  2
AcDbPlaceHolder
  3
ObjectDBX Classes
 90
0
 91
0
280
0
281
0
  0
ENDSEC
  0
SECTION
  2
TABLES
  0
TABLE
  2
VPORT
  5
8
330
0
100
AcDbSymbolTable
 70
1
  0
VPORT
  5
23
330
8
100
AcDbSymbolTableRecord
100
AcDbViewportTableRecord
  2
*Active
 70
0
 10
0.0
 20
0.0
 11
1.0
 21
1.0
 12
0.0
 22
0.0
 13
0.0
 23
0.0
 14
0.5
 24
0.5
 15
0.5
 25
0.5
 16
0.0
 26
0.0
 36
1.0
 17
0.0
 27
0.0
 37
0.0
 40
1000.0
 41
1.34
 42
50.0
 43
0.0
 44
0.0
 50
0.0
 51
0.0
 71
0
 72
1000
 73
1
 74
3
 75
0
 76
0
 77
0
 78
0
281
0
 65
0
146
0.0
  0
ENDTAB
  0
TABLE
  2
LTYPE
  5
2
330
0
100
AcDbSymbolTable
 70
3
  0
LTYPE
  5
24
330
2
100
AcDbSymbolTableRecord
100
AcDbLinetypeTableRecord
  2
ByBlock
 70
0
  3

 72
65
 73
0
 40
0.0
  0
LTYPE
  5
25
330
2
100
AcDbSymbolTableRecord
100
AcDbLinetypeTableRecord
  2
ByLayer
 70
0
  3

 72
65
 73
0
 40
0.0
  0
LTYPE
  5
26
330
2
100
AcDbSymbolTableRecord
100
AcDbLinetypeTableRecord
  2
Continuous
 70
0
  3

 72
65
 73
0
 40
0.0
  0
ENDTAB
  0
TABLE
  2
LAYER
  5
1
330
0
100
AcDbSymbolTable
 70
3
  0
LAYER
  5
27
330
1
100
AcDbSymbolTableRecord
100
AcDbLayerTableRecord
  2
0
 70
0
 62
7
  6
Continuous
370
-3
390
13
347
21
  0
LAYER
  5
28
330
1
100
AcDbSymbolTableRecord
100
AcDbLayerTableRecord
  2
Defpoints
 70
0
 62
7
  6
Continuous
290
0
370
-3
390
13
347
21
  0
LAYER
  5
7D
330
1
100
AcDbSymbolTableRecord
100
AcDbLayerTableRecord
  2
A-DETL-GENF
 70
0
 62
92
  6
Continuous
370
18
390
13
347
21
348
0
  0
ENDTAB
  0
TABLE
  2
STYLE
  5
5
330
0
100
AcDbSymbolTable
 70
1
  0
STYLE
  5
29
330
5
100
AcDbSymbolTableRecord
100
AcDbTextStyleTableRecord
  2
Standard
 70
0
 40
0.0
 41
1.0
 50
0.0
 71
0
 42
2.5
  3
txt
  4

  0
ENDTAB
  0
TABLE
  2
VIEW
  5
7
330
0
100
AcDbSymbolTable
 70
0
  0
ENDTAB
  0
TABLE
  2
UCS
  5
6
330
0
100
AcDbSymbolTable
 70
0
  0
ENDTAB
  0
TABLE
  2
APPID
  5
3
330
0
100
AcDbSymbolTable
 70
3
  0
APPID
  5
2A
330
3
100
AcDbSymbolTableRecord
100
AcDbRegAppTableRecord
  2
ACAD
 70
0
  0
APPID
  5
80
330
3
100
AcDbSymbolTableRecord
100
AcDbRegAppTableRecord
  2
HATCHBACKGROUNDCOLOR
 70
0
  0
APPID
  5
81
330
3
100
AcDbSymbolTableRecord
100
AcDbRegAppTableRecord
  2
EZDXF
 70
0
  0
ENDTAB
  0
TABLE
  2
DIMSTYLE
  5
4
330
0
100
AcDbSymbolTable
 70
1
100
AcDbDimStyleTable
  0
DIMSTYLE
105
2B
330
4
100
AcDbSymbolTableRecord
100
AcDbDimStyleTableRecord
  2
Standard
 70
0
 40
1.0
 41
2.5
 42
0.625
 43
3.75
 44
1.25
 45
0.0
 46
0.0
 47
0.0
 48
0.0
 49
2.5
140
2.5
141
2.5
142
0.0
143
0.03937007874
144
1.0
145
0.0
146
1.0
147
0.625
148
0.0
 69
0
 70
0
 71
0
 72
0
 73
0
 74
0
 75
0
 76
0
 77
1
 78
8
 79
3
170
0
171
3
172
1
173
0
174
0
175
0
176
0
177
0
178
0
179
2
271
2
272
2
273
2
274
3
275
0
276
0
277
2
278
44
279
0
280
0
281
0
282
0
283
0
284
8
285
0
286
0
288
0
289
3
290
0
371
-2
372
-2
  0
ENDTAB
  0
TABLE
  2
BLOCK_RECORD
  5
9
330
0
100
AcDbSymbolTable
 70
3
  0
BLOCK_RECORD
  5
17
330
9
100
AcDbSymbolTableRecord
100
AcDbBlockTableRecord
  2
*Model_Space
340
1A
 70
0
280
1
281
0
  0
BLOCK_RECORD
  5
1B
330
9
100
AcDbSymbolTableRecord
100
AcDbBlockTableRecord
  2
*Paper_Space
340
1E
 70
0
280
1
281
0
  0
BLOCK_RECORD
  5
2F
330
9
100
AcDbSymbolTableRecord
100
AcDbBlockTableRecord
  2
23 VBI kanaalplaat - KPV260-3537658-00_0 Basismaterialen
340
0
 70
0
280
1
281
0
  0
ENDTAB
  0
ENDSEC
  0
SECTION
  2
BLOCKS
  0
BLOCK
  5
18
330
17
100
AcDbEntity
  8
0
100
AcDbBlockBegin
  2
*Model_Space
 70
0
 10
0.0
 20
0.0
 30
0.0
  3
*Model_Space
  1

  0
ENDBLK
  5
19
330
17
100
AcDbEntity
  8
0
100
AcDbBlockEnd
  0
BLOCK
  5
1C
330
1B
100
AcDbEntity
  8
0
100
AcDbBlockBegin
  2
*Paper_Space
 70
0
 10
0.0
 20
0.0
 30
0.0
  3
*Paper_Space
  1

  0
ENDBLK
  5
1D
330
1B
100
AcDbEntity
  8
0
100
AcDbBlockEnd
  0
BLOCK
  5
30
330
2F
100
AcDbEntity
  8
0
100
AcDbBlockBegin
  2
23 VBI kanaalplaat - KPV260-3537658-00_0 Basismaterialen
 70
0
 10
0.0
 20
0.0
 30
0.0
  3
23 VBI kanaalplaat - KPV260-3537658-00_0 Basismaterialen
  1

  0
HATCH
  5
32
330
2F
100
AcDbEntity
  8
A-DETL-GENF
370
5
100
AcDbHatch
 10
0.0
 20
0.0
 30
0.0
210
0.0
220
0.0
230
1.0
  2
FP_138
 70
0
 71
0
 91
8
 92
1
 93
19
 72
1
 10
1189.99999999998
 20
-1.29944e-11
 11
1199.999999999978
 21
9.999999999984732
 72
1
 10
1199.999999999978
 20
9.999999999984732
 11
1199.999999999978
 21
19.99999999998679
 72
1
 10
1199.999999999978
 20
19.99999999998679
 11
1194.999999999984
 21
19.99999999998679
 72
1
 10
1194.999999999984
 20
19.99999999998679
 11
1184.950371999978
 21
120.4962809999862
 72
1
 10
1184.950371999978
 20
120.4962809999862
 11
1171.550537999981
 21
133.8961149999867
 72
1
 10
1171.550537999981
 20
133.8961149999867
 11
1164.03649899998
 21
209.0364989999854
 72
1
 10
1164.03649899998
 20
209.0364989999854
 11
1174.99999999998
 21
219.9999999999846
 72
1
 10
1174.99999999998
 20
219.9999999999846
 11
1174.99999999998
 21
259.9999999999842
 72
1
 10
1174.99999999998
 20
259.9999999999842
 11
24.99999999997704
 21
259.9999999999885
 72
1
 10
24.99999999997699
 20
259.9999999999885
 11
24.99999999997699
 21
219.9999999999846
 72
1
 10
24.99999999997699
 20
219.9999999999846
 11
35.91224085303081
 21
208.5239042730896
 72
1
 10
35.91224085303081
 20
208.5239042730896
 11
28.44946199997965
 21
133.8961149999867
 72
1
 10
28.44946199997965
 20
133.8961149999867
 11
15.04962799997913
 21
120.4962809999862
 72
1
 10
15.04962799997913
 20
120.4962809999862
 11
4.999999999977205
 21
19.99999999998678
 72
1
 10
4.999999999977205
 20
19.99999999998679
 11
-1.73257e-11
 21
19.99999999998679
 72
1
 10
-1.73259e-11
 20
19.99999999998679
 11
-1.73259e-11
 21
9.999999999989061
 72
1
 10
-1.73259e-11
 20
9.999999999989061
 11
9.999999999980401
 21
-8.6633e-12
 72
1
 10
9.999999999980401
 20
-8.6629e-12
 11
1046.432094186097
 21
-1.29944e-11
 72
1
 10
1046.432094186097
 20
-1.29944e-11
 11
1189.99999999998
 21
-1.29944e-11
 97
0
 92
1
 93
60
 72
1
 10
913.9999999999785
 20
44.9999963567786
 11
910.0332902108711
 21
45.25225559461262
 72
1
 10
910.0332902108711
 20
45.25225559461262
 11
906.1282881562541
 21
45.99345747502286
 72
1
 10
906.1282881562541
 20
45.99345747502286
 11
902.3486365217825
 21
47.22335779461793
 72
1
 10
902.3486365217825
 20
47.22335779461793
 11
898.7502381884622
 21
48.91153749739276
 72
1
 10
898.7502381884622
 20
48.91153749739276
 11
895.4198499045488
 21
51.02368356907255
 72
1
 10
895.4198499045488
 20
51.02368356907255
 11
892.328552753948
 21
53.57123368107937
 72
1
 10
892.328552753948
 20
53.57123368107937
 11
860.2397319843623
 21
83.6608460958362
 72
1
 10
860.2397319843623
 20
83.6608460958362
 11
858.232450874481
 21
85.9710673514508
 72
1
 10
858.232450874481
 20
85.9710673514508
 11
856.7358432834524
 21
88.64061139912566
 72
1
 10
856.7358432834524
 20
88.64061139912566
 11
855.8122099901133
 21
91.55835046275234
 72
1
 10
855.8122099901133
 20
91.55835046275234
 11
855.499999999983
 21
94.60282490443188
 72
1
 10
855.499999999983
 20
94.60282490443188
 11
855.499999999983
 21
166.4999999999838
 72
1
 10
855.499999999983
 20
166.4999999999838
 11
855.7365757701843
 21
171.6616189658121
 72
1
 10
855.7365757701843
 20
171.6616189658121
 11
856.4010221575484
 21
176.7085903453156
 72
1
 10
856.4010221575484
 20
176.7085903453156
 11
857.4933391620666
 21
181.6409141384812
 72
1
 10
857.4933391620666
 20
181.6409141384812
 11
859.0282775559355
 21
186.4942018595779
 72
1
 10
859.0282775559355
 20
186.4942018595779
 11
860.9910865669588
 21
191.2328419943411
 72
1
 10
860.9910865669588
 20
191.2328419943411
 11
863.3375138785901
 21
195.7499999999858
 72
1
 10
863.3375138785901
 20
195.7499999999858
 11
866.0762738085706
 21
200.0406446628121
 72
1
 10
866.0762738085706
 20
200.0406446628121
 11
869.1986520391548
 21
204.1098071965155
 72
1
 10
869.1986520391548
 20
204.1098071965155
 11
872.6342533005684
 21
207.8657466993939
 72
1
 10
872.6342533005684
 20
207.8657466993939
 11
876.3901928034467
 21
211.3013479608075
 72
1
 10
876.3901928034467
 20
211.3013479608075
 11
880.4593553371544
 21
214.423726191396
 72
1
 10
880.4593553371544
 20
214.423726191396
 11
884.7499999999808
 21
217.1624861213722
 72
1
 10
884.7499999999808
 20
217.1624861213722
 11
889.2671580056211
 21
219.5089134330034
 72
1
 10
889.2671580056211
 20
219.5089134330034
 11
894.0057981403844
 21
221.471722444031
 72
1
 10
894.0057981403844
 20
221.471722444031
 11
898.859085861481
 21
223.0066608378913
 72
1
 10
898.859085861481
 20
223.0066608378913
 11
903.8296255167592
 21
224.1040090561096
 72
1
 10
903.8296255167592
 20
224.1040090561096
 11
908.914812758371
 21
224.7734866571693
 72
1
 10
908.914812758371
 20
224.7734866571693
 11
913.9999999999785
 21
224.9999999999835
 72
1
 10
913.9999999999785
 20
224.9999999999835
 11
919.0851872415903
 21
224.7734866571693
 72
1
 10
919.0851872415903
 20
224.7734866571693
 11
924.170374483202
 21
224.1040090561096
 72
1
 10
924.170374483202
 20
224.1040090561096
 11
929.1409141384759
 21
223.0066608378913
 72
1
 10
929.1409141384759
 20
223.0066608378913
 11
933.994201859577
 21
221.471722444031
 72
1
 10
933.994201859577
 20
221.471722444031
 11
938.7328419943358
 21
219.5089134330034
 72
1
 10
938.7328419943358
 20
219.5089134330034
 11
943.2499999999803
 21
217.1624861213722
 72
1
 10
943.2499999999803
 20
217.1624861213722
 11
947.5406446628067
 21
214.423726191396
 72
1
 10
947.5406446628067
 20
214.423726191396
 11
951.6098071965145
 21
211.3013479608075
 72
1
 10
951.6098071965145
 20
211.3013479608075
 11
955.3657466993928
 21
207.8657466993982
 72
1
 10
955.3657466993928
 20
207.8657466993982
 11
958.801347960802
 21
204.1098071965155
 72
1
 10
958.801347960802
 20
204.1098071965155
 11
961.9237261913908
 21
200.0406446628121
 72
1
 10
961.9237261913908
 20
200.0406446628121
 11
964.6624861213711
 21
195.7499999999858
 72
1
 10
964.6624861213711
 20
195.7499999999858
 11
967.0089134330022
 21
191.2328419943411
 72
1
 10
967.0089134330022
 20
191.2328419943411
 11
968.9717224440255
 21
186.4942018595779
 72
1
 10
968.9717224440255
 20
186.4942018595779
 11
970.5066608378903
 21
181.6409141384812
 72
1
 10
970.5066608378903
 20
181.6409141384812
 11
971.5989778424129
 21
176.7085903453156
 72
1
 10
971.5989778424129
 20
176.7085903453156
 11
972.263424229777
 21
171.6616189658164
 72
1
 10
972.263424229777
 20
171.6616189658164
 11
972.4999999999825
 21
166.4999999999838
 72
1
 10
972.4999999999825
 20
166.4999999999838
 11
972.4999999999781
 21
94.60282490443188
 72
1
 10
972.4999999999781
 20
94.60282490443188
 11
972.187790009848
 21
91.55835046275234
 72
1
 10
972.187790009848
 20
91.55835046275234
 11
971.2641567165089
 21
88.64061139912566
 72
1
 10
971.2641567165089
 20
88.64061139912566
 11
969.7675491254804
 21
85.9710673514508
 72
1
 10
969.7675491254804
 20
85.9710673514508
 11
967.7602680155946
 21
83.6608460958362
 72
1
 10
967.7602680155946
 20
83.6608460958362
 11
935.6714472460089
 21
53.57123368107937
 72
1
 10
935.6714472460089
 20
53.57123368107937
 11
932.5801500954126
 21
51.02368356907255
 72
1
 10
932.5801500954126
 20
51.02368356907255
 11
929.2497618114991
 21
48.91153749739276
 72
1
 10
929.2497618114991
 20
48.91153749739276
 11
925.6513634781788
 21
47.22335779461793
 72
1
 10
925.6513634781788
 20
47.22335779461793
 11
921.8717118437071
 21
45.99345747502286
 72
1
 10
921.8717118437071
 20
45.99345747502286
 11
917.96670978909
 21
45.25225559461262
 72
1
 10
917.96670978909
 20
45.25225559461262
 11
913.9999999999785
 21
44.9999963567786
 97
0
 92
1
 93
60
 72
1
 10
599.9999999999804
 20
44.9999963567786
 11
596.0332902108688
 21
45.25225559461262
 72
1
 10
596.0332902108688
 20
45.25225559461262
 11
592.1282881562519
 21
45.99345747502286
 72
1
 10
592.1282881562519
 20
45.99345747502286
 11
588.3486365217846
 21
47.22335779461793
 72
1
 10
588.3486365217846
 20
47.22335779461793
 11
584.7502381884643
 21
48.91153749739276
 72
1
 10
584.7502381884643
 20
48.91153749739276
 11
581.4198499045464
 21
51.02368356907255
 72
1
 10
581.4198499045464
 20
51.02368356907255
 11
578.3285527539501
 21
53.5712336810837
 72
1
 10
578.3285527539501
 20
53.5712336810837
 11
546.2397319843644
 21
83.66084609584055
 72
1
 10
546.2397319843644
 20
83.66084609584055
 11
544.2324508744786
 21
85.9710673514508
 72
1
 10
544.2324508744786
 20
85.9710673514508
 11
542.7358432834544
 21
88.64061139912566
 72
1
 10
542.7358432834544
 20
88.64061139912566
 11
541.8122099901154
 21
91.55835046275234
 72
1
 10
541.8122099901154
 20
91.55835046275234
 11
541.4999999999809
 21
94.60282490443188
 72
1
 10
541.4999999999809
 20
94.60282490443188
 11
541.4999999999809
 21
166.4999999999838
 72
1
 10
541.4999999999809
 20
166.4999999999838
 11
541.736575770182
 21
171.6616189658164
 72
1
 10
541.736575770182
 20
171.6616189658164
 11
542.4010221575461
 21
176.7085903453156
 72
1
 10
542.4010221575461
 20
176.7085903453156
 11
543.4933391620687
 21
181.6409141384812
 72
1
 10
543.4933391620687
 20
181.6409141384812
 11
545.0282775559334
 21
186.4942018595822
 72
1
 10
545.0282775559334
 20
186.4942018595822
 11
546.9910865669609
 21
191.2328419943411
 72
1
 10
546.9910865669609
 20
191.2328419943411
 11
549.3375138785921
 21
195.7499999999858
 72
1
 10
549.3375138785921
 20
195.7499999999858
 11
552.0762738085683
 21
200.0406446628121
 72
1
 10
552.0762738085683
 20
200.0406446628121
 11
555.1986520391569
 21
204.1098071965155
 72
1
 10
555.1986520391569
 20
204.1098071965155
 11
558.6342533005661
 21
207.8657466993982
 72
1
 10
558.6342533005661
 20
207.8657466993982
 11
562.3901928034488
 21
211.3013479608075
 72
1
 10
562.3901928034488
 20
211.3013479608075
 11
566.4593553371521
 21
214.423726191396
 72
1
 10
566.4593553371521
 20
214.423726191396
 11
570.7499999999785
 21
217.1624861213765
 72
1
 10
570.7499999999785
 20
217.1624861213765
 11
575.267158005619
 21
219.5089134330034
 72
1
 10
575.267158005619
 20
219.5089134330034
 11
580.0057981403864
 21
221.471722444031
 72
1
 10
580.0057981403864
 20
221.471722444031
 11
584.8590858614787
 21
223.0066608378956
 72
1
 10
584.8590858614787
 20
223.0066608378956
 11
589.8296255167569
 21
224.1040090561096
 72
1
 10
589.8296255167569
 20
224.1040090561096
 11
594.9148127583688
 21
224.7734866571693
 72
1
 10
594.9148127583688
 20
224.7734866571693
 11
599.9999999999804
 21
224.9999999999835
 72
1
 10
599.9999999999804
 20
224.9999999999835
 11
605.0851872415923
 21
224.7734866571693
 72
1
 10
605.0851872415923
 20
224.7734866571693
 11
610.1703744831996
 21
224.1040090561096
 72
1
 10
610.1703744831996
 20
224.1040090561096
 11
615.140914138478
 21
223.0066608378956
 72
1
 10
615.140914138478
 20
223.0066608378956
 11
619.9942018595747
 21
221.471722444031
 72
1
 10
619.9942018595747
 20
221.471722444031
 11
624.7328419943378
 21
219.5089134330034
 72
1
 10
624.7328419943378
 20
219.5089134330034
 11
629.2499999999782
 21
217.1624861213765
 72
1
 10
629.2499999999782
 20
217.1624861213765
 11
633.5406446628089
 21
214.423726191396
 72
1
 10
633.5406446628089
 20
214.423726191396
 11
637.6098071965123
 21
211.3013479608075
 72
1
 10
637.6098071965123
 20
211.3013479608075
 11
641.3657466993907
 21
207.8657466993982
 72
1
 10
641.3657466993907
 20
207.8657466993982
 11
644.8013479608042
 21
204.1098071965198
 72
1
 10
644.8013479608042
 20
204.1098071965198
 11
647.9237261913883
 21
200.0406446628121
 72
1
 10
647.9237261913883
 20
200.0406446628121
 11
650.6624861213689
 21
195.7499999999858
 72
1
 10
650.6624861213689
 20
195.7499999999858
 11
653.0089134330002
 21
191.2328419943411
 72
1
 10
653.0089134330002
 20
191.2328419943411
 11
654.9717224440277
 21
186.4942018595822
 72
1
 10
654.9717224440277
 20
186.4942018595822
 11
656.5066608378924
 21
181.6409141384812
 72
1
 10
656.5066608378924
 20
181.6409141384812
 11
657.5989778424107
 21
176.7085903453156
 72
1
 10
657.5989778424107
 20
176.7085903453156
 11
658.2634242297747
 21
171.6616189658164
 72
1
 10
658.2634242297747
 20
171.6616189658164
 11
658.4999999999801
 21
166.4999999999838
 72
1
 10
658.4999999999801
 20
166.4999999999838
 11
658.4999999999801
 21
94.60282490443622
 72
1
 10
658.4999999999801
 20
94.60282490443622
 11
658.1877900098456
 21
91.55835046275234
 72
1
 10
658.1877900098456
 20
91.55835046275234
 11
657.2641567165066
 21
88.64061139912566
 72
1
 10
657.2641567165066
 20
88.64061139912566
 11
655.7675491254781
 21
85.9710673514508
 72
1
 10
655.7675491254781
 20
85.9710673514508
 11
653.7602680155966
 21
83.66084609584055
 72
1
 10
653.7602680155966
 20
83.66084609584055
 11
621.6714472460109
 21
53.5712336810837
 72
1
 10
621.6714472460109
 20
53.5712336810837
 11
618.5801500954103
 21
51.02368356907255
 72
1
 10
618.5801500954103
 20
51.02368356907255
 11
615.2497618114968
 21
48.91153749739276
 72
1
 10
615.2497618114968
 20
48.91153749739276
 11
611.6513634781764
 21
47.22335779461793
 72
1
 10
611.6513634781764
 20
47.22335779461793
 11
607.8717118437091
 21
45.99345747502286
 72
1
 10
607.8717118437091
 20
45.99345747502286
 11
603.9667097890921
 21
45.25225559461262
 72
1
 10
603.9667097890921
 20
45.25225559461262
 11
599.9999999999804
 21
44.9999963567786
 97
0
 92
1
 93
60
 72
1
 10
756.9999999999795
 20
44.9999963567786
 11
753.0332902108678
 21
45.25225559461262
 72
1
 10
753.0332902108678
 20
45.25225559461262
 11
749.1282881562508
 21
45.99345747502286
 72
1
 10
749.1282881562508
 20
45.99345747502286
 11
745.3486365217836
 21
47.22335779461793
 72
1
 10
745.3486365217836
 20
47.22335779461793
 11
741.7502381884633
 21
48.91153749739276
 72
1
 10
741.7502381884633
 20
48.91153749739276
 11
738.4198499045497
 21
51.02368356907255
 72
1
 10
738.4198499045497
 20
51.02368356907255
 11
735.328552753949
 21
53.5712336810837
 72
1
 10
735.328552753949
 20
53.5712336810837
 11
703.2397319843633
 21
83.66084609584055
 72
1
 10
703.2397319843633
 20
83.66084609584055
 11
701.232450874482
 21
85.9710673514508
 72
1
 10
701.232450874482
 20
85.9710673514508
 11
699.7358432834533
 21
88.64061139912566
 72
1
 10
699.7358432834533
 20
88.64061139912566
 11
698.8122099901143
 21
91.55835046275234
 72
1
 10
698.8122099901143
 20
91.55835046275234
 11
698.4999999999797
 21
94.60282490443188
 72
1
 10
698.4999999999797
 20
94.60282490443188
 11
698.4999999999797
 21
166.4999999999838
 72
1
 10
698.4999999999797
 20
166.4999999999838
 11
698.7365757701853
 21
171.6616189658164
 72
1
 10
698.7365757701853
 20
171.6616189658164
 11
699.4010221575494
 21
176.7085903453156
 72
1
 10
699.4010221575494
 20
176.7085903453156
 11
700.4933391620676
 21
181.6409141384812
 72
1
 10
700.4933391620676
 20
181.6409141384812
 11
702.0282775559324
 21
186.4942018595779
 72
1
 10
702.0282775559324
 20
186.4942018595779
 11
703.9910865669599
 21
191.2328419943411
 72
1
 10
703.9910865669599
 20
191.2328419943411
 11
706.3375138785912
 21
195.7499999999858
 72
1
 10
706.3375138785912
 20
195.7499999999858
 11
709.0762738085715
 21
200.0406446628121
 72
1
 10
709.0762738085715
 20
200.0406446628121
 11
712.1986520391558
 21
204.1098071965155
 72
1
 10
712.1986520391558
 20
204.1098071965155
 11
715.6342533005694
 21
207.8657466993982
 72
1
 10
715.6342533005694
 20
207.8657466993982
 11
719.3901928034478
 21
211.3013479608075
 72
1
 10
719.3901928034478
 20
211.3013479608075
 11
723.4593553371512
 21
214.423726191396
 72
1
 10
723.4593553371512
 20
214.423726191396
 11
727.7499999999775
 21
217.1624861213722
 72
1
 10
727.7499999999775
 20
217.1624861213722
 11
732.2671580056223
 21
219.5089134330034
 72
1
 10
732.2671580056223
 20
219.5089134330034
 11
737.0057981403854
 21
221.471722444031
 72
1
 10
737.0057981403854
 20
221.471722444031
 11
741.8590858614821
 21
223.0066608378913
 72
1
 10
741.8590858614821
 20
223.0066608378913
 11
746.8296255167603
 21
224.1040090561096
 72
1
 10
746.8296255167603
 20
224.1040090561096
 11
751.9148127583677
 21
224.7734866571693
 72
1
 10
751.9148127583677
 20
224.7734866571693
 11
756.9999999999795
 21
224.9999999999835
 72
1
 10
756.9999999999795
 20
224.9999999999835
 11
762.0851872415913
 21
224.7734866571693
 72
1
 10
762.0851872415913
 20
224.7734866571693
 11
767.1703744832029
 21
224.1040090561096
 72
1
 10
767.1703744832029
 20
224.1040090561096
 11
772.1409141384769
 21
223.0066608378956
 72
1
 10
772.1409141384769
 20
223.0066608378956
 11
776.9942018595736
 21
221.471722444031
 72
1
 10
776.9942018595736
 20
221.471722444031
 11
781.7328419943367
 21
219.5089134330034
 72
1
 10
781.7328419943367
 20
219.5089134330034
 11
786.2499999999815
 21
217.1624861213722
 72
1
 10
786.2499999999815
 20
217.1624861213722
 11
790.5406446628077
 21
214.423726191396
 72
1
 10
790.5406446628077
 20
214.423726191396
 11
794.6098071965112
 21
211.3013479608075
 72
1
 10
794.6098071965112
 20
211.3013479608075
 11
798.365746699394
 21
207.8657466993982
 72
1
 10
798.365746699394
 20
207.8657466993982
 11
801.8013479608031
 21
204.1098071965155
 72
1
 10
801.8013479608031
 20
204.1098071965155
 11
804.9237261913916
 21
200.0406446628121
 72
1
 10
804.9237261913916
 20
200.0406446628121
 11
807.6624861213678
 21
195.7499999999858
 72
1
 10
807.6624861213678
 20
195.7499999999858
 11
810.0089134329991
 21
191.2328419943411
 72
1
 10
810.0089134329991
 20
191.2328419943411
 11
811.9717224440266
 21
186.4942018595822
 72
1
 10
811.9717224440266
 20
186.4942018595822
 11
813.506660837887
 21
181.6409141384812
 72
1
 10
813.506660837887
 20
181.6409141384812
 11
814.5989778424139
 21
176.7085903453156
 72
1
 10
814.5989778424139
 20
176.7085903453156
 11
815.263424229778
 21
171.6616189658164
 72
1
 10
815.263424229778
 20
171.6616189658164
 11
815.4999999999791
 21
166.4999999999838
 72
1
 10
815.4999999999791
 20
166.4999999999838
 11
815.4999999999791
 21
94.60282490443188
 72
1
 10
815.4999999999791
 20
94.60282490443188
 11
815.1877900098445
 21
91.55835046275234
 72
1
 10
815.1877900098445
 20
91.55835046275234
 11
814.2641567165055
 21
88.64061139912566
 72
1
 10
814.2641567165055
 20
88.64061139912566
 11
812.7675491254814
 21
85.9710673514508
 72
1
 10
812.7675491254814
 20
85.9710673514508
 11
810.7602680155956
 21
83.6608460958362
 72
1
 10
810.7602680155956
 20
83.6608460958362
 11
778.6714472460098
 21
53.5712336810837
 72
1
 10
778.6714472460098
 20
53.5712336810837
 11
775.5801500954135
 21
51.02368356907255
 72
1
 10
775.5801500954135
 20
51.02368356907255
 11
772.2497618114958
 21
48.91153749739276
 72
1
 10
772.2497618114958
 20
48.91153749739276
 11
768.6513634781754
 21
47.22335779461793
 72
1
 10
768.6513634781754
 20
47.22335779461793
 11
764.8717118437081
 21
45.99345747502286
 72
1
 10
764.8717118437081
 20
45.99345747502286
 11
760.9667097890912
 21
45.25225559461262
 72
1
 10
760.9667097890912
 20
45.25225559461262
 11
756.9999999999795
 21
44.9999963567786
 97
0
 92
1
 93
60
 72
1
 10
442.9999999999815
 20
44.9999963567786
 11
439.0332902108698
 21
45.25225559461262
 72
1
 10
439.0332902108698
 20
45.25225559461262
 11
435.1282881562529
 21
45.99345747502286
 72
1
 10
435.1282881562529
 20
45.99345747502286
 11
431.3486365217813
 21
47.22335779461793
 72
1
 10
431.3486365217813
 20
47.22335779461793
 11
427.750238188461
 21
48.91153749739276
 72
1
 10
427.750238188461
 20
48.91153749739276
 11
424.4198499045475
 21
51.02368356907255
 72
1
 10
424.4198499045475
 20
51.02368356907255
 11
421.3285527539512
 21
53.5712336810837
 72
1
 10
421.3285527539512
 20
53.5712336810837
 11
389.2397319843612
 21
83.66084609584055
 72
1
 10
389.2397319843612
 20
83.66084609584055
 11
387.2324508744797
 21
85.97106735145513
 72
1
 10
387.2324508744797
 20
85.97106735145513
 11
385.7358432834512
 21
88.64061139912566
 72
1
 10
385.7358432834512
 20
88.64061139912566
 11
384.8122099901122
 21
91.55835046275234
 72
1
 10
384.8122099901122
 20
91.55835046275234
 11
384.4999999999775
 21
94.60282490443622
 72
1
 10
384.4999999999775
 20
94.60282490443622
 11
384.4999999999819
 21
166.4999999999838
 72
1
 10
384.4999999999819
 20
166.4999999999838
 11
384.736575770183
 21
171.6616189658164
 72
1
 10
384.736575770183
 20
171.6616189658164
 11
385.4010221575471
 21
176.7085903453156
 72
1
 10
385.4010221575471
 20
176.7085903453156
 11
386.4933391620697
 21
181.6409141384812
 72
1
 10
386.4933391620697
 20
181.6409141384812
 11
388.0282775559344
 21
186.4942018595822
 72
1
 10
388.0282775559344
 20
186.4942018595822
 11
389.9910865669577
 21
191.2328419943411
 72
1
 10
389.9910865669577
 20
191.2328419943411
 11
392.3375138785889
 21
195.7499999999858
 72
1
 10
392.3375138785889
 20
195.7499999999858
 11
395.0762738085694
 21
200.0406446628121
 72
1
 10
395.0762738085694
 20
200.0406446628121
 11
398.1986520391579
 21
204.1098071965198
 72
1
 10
398.1986520391579
 20
204.1098071965198
 11
401.6342533005671
 21
207.8657466993982
 72
1
 10
401.6342533005671
 20
207.8657466993982
 11
405.3901928034455
 21
211.3013479608075
 72
1
 10
405.3901928034455
 20
211.3013479608075
 11
409.459355337149
 21
214.423726191396
 72
1
 10
409.459355337149
 20
214.423726191396
 11
413.7499999999795
 21
217.1624861213765
 72
1
 10
413.7499999999795
 20
217.1624861213765
 11
418.2671580056199
 21
219.5089134330078
 72
1
 10
418.2671580056199
 20
219.5089134330078
 11
423.0057981403831
 21
221.471722444031
 72
1
 10
423.0057981403831
 20
221.471722444031
 11
427.8590858614798
 21
223.0066608378956
 72
1
 10
427.8590858614798
 20
223.0066608378956
 11
432.8296255167581
 21
224.1040090561096
 72
1
 10
432.8296255167581
 20
224.1040090561096
 11
437.9148127583698
 21
224.7734866571693
 72
1
 10
437.9148127583698
 20
224.7734866571693
 11
442.9999999999815
 21
224.9999999999835
 72
1
 10
442.9999999999815
 20
224.9999999999835
 11
448.085187241589
 21
224.7734866571693
 72
1
 10
448.085187241589
 20
224.7734866571693
 11
453.1703744832007
 21
224.1040090561096
 72
1
 10
453.1703744832007
 20
224.1040090561096
 11
458.140914138479
 21
223.0066608378956
 72
1
 10
458.140914138479
 20
223.0066608378956
 11
462.9942018595714
 21
221.471722444031
 72
1
 10
462.9942018595714
 20
221.471722444031
 11
467.7328419943389
 21
219.5089134330078
 72
1
 10
467.7328419943389
 20
219.5089134330078
 11
472.2499999999792
 21
217.1624861213765
 72
1
 10
472.2499999999792
 20
217.1624861213765
 11
476.5406446628055
 21
214.423726191396
 72
1
 10
476.5406446628055
 20
214.423726191396
 11
480.6098071965132
 21
211.3013479608118
 72
1
 10
480.6098071965132
 20
211.3013479608118
 11
484.3657466993916
 21
207.8657466993982
 72
1
 10
484.3657466993916
 20
207.8657466993982
 11
487.8013479608052
 21
204.1098071965198
 72
1
 10
487.8013479608052
 20
204.1098071965198
 11
490.9237261913894
 21
200.0406446628164
 72
1
 10
490.9237261913894
 20
200.0406446628164
 11
493.6624861213656
 21
195.7499999999858
 72
1
 10
493.6624861213656
 20
195.7499999999858
 11
496.0089134329968
 21
191.2328419943411
 72
1
 10
496.0089134329968
 20
191.2328419943411
 11
497.9717224440244
 21
186.4942018595822
 72
1
 10
497.9717224440244
 20
186.4942018595822
 11
499.5066608378934
 21
181.6409141384812
 72
1
 10
499.5066608378934
 20
181.6409141384812
 11
500.5989778424117
 21
176.7085903453156
 72
1
 10
500.5989778424117
 20
176.7085903453156
 11
501.2634242297758
 21
171.6616189658164
 72
1
 10
501.2634242297758
 20
171.6616189658164
 11
501.4999999999769
 21
166.4999999999838
 72
1
 10
501.4999999999769
 20
166.4999999999838
 11
501.4999999999769
 21
94.60282490443622
 72
1
 10
501.4999999999769
 20
94.60282490443622
 11
501.1877900098467
 21
91.55835046275234
 72
1
 10
501.1877900098467
 20
91.55835046275234
 11
500.2641567165033
 21
88.64061139912566
 72
1
 10
500.2641567165033
 20
88.64061139912566
 11
498.7675491254791
 21
85.9710673514508
 72
1
 10
498.7675491254791
 20
85.9710673514508
 11
496.7602680155933
 21
83.66084609584055
 72
1
 10
496.7602680155933
 20
83.66084609584055
 11
464.6714472460119
 21
53.5712336810837
 72
1
 10
464.6714472460119
 20
53.5712336810837
 11
461.5801500954113
 21
51.02368356907255
 72
1
 10
461.5801500954113
 20
51.02368356907255
 11
458.2497618114977
 21
48.91153749739276
 72
1
 10
458.2497618114977
 20
48.91153749739276
 11
454.6513634781774
 21
47.22335779461793
 72
1
 10
454.6513634781774
 20
47.22335779461793
 11
450.8717118437058
 21
45.99345747502286
 72
1
 10
450.8717118437058
 20
45.99345747502286
 11
446.9667097890889
 21
45.25225559461262
 72
1
 10
446.9667097890889
 20
45.25225559461262
 11
442.9999999999815
 21
44.9999963567786
 97
0
 92
1
 93
60
 72
1
 10
1070.999999999981
 20
44.9999963567786
 11
1067.03329021087
 21
45.25225559461262
 72
1
 10
1067.03329021087
 20
45.25225559461262
 11
1063.128288156253
 21
45.99345747502286
 72
1
 10
1063.128288156253
 20
45.99345747502286
 11
1059.348636521781
 21
47.22335779461793
 72
1
 10
1059.348636521781
 20
47.22335779461793
 11
1055.750238188466
 21
48.91153749739276
 72
1
 10
1055.750238188466
 20
48.91153749739276
 11
1052.419849904548
 21
51.02368356907255
 72
1
 10
1052.419849904548
 20
51.02368356907255
 11
1049.328552753947
 21
53.57123368107937
 72
1
 10
1049.328552753947
 20
53.57123368107937
 11
1017.239731984361
 21
83.6608460958362
 72
1
 10
1017.239731984361
 20
83.6608460958362
 11
1015.23245087448
 21
85.9710673514508
 72
1
 10
1015.23245087448
 20
85.9710673514508
 11
1013.735843283451
 21
88.64061139912566
 72
1
 10
1013.735843283451
 20
88.64061139912566
 11
1012.812209990112
 21
91.55835046275234
 72
1
 10
1012.812209990112
 20
91.55835046275234
 11
1012.499999999977
 21
94.60282490443188
 72
1
 10
1012.499999999977
 20
94.60282490443188
 11
1012.499999999977
 21
166.4999999999838
 72
1
 10
1012.499999999977
 20
166.4999999999838
 11
1012.736575770187
 21
171.6616189658121
 72
1
 10
1012.736575770187
 20
171.6616189658121
 11
1013.401022157547
 21
176.7085903453156
 72
1
 10
1013.401022157547
 20
176.7085903453156
 11
1014.49333916207
 21
181.6409141384812
 72
1
 10
1014.49333916207
 20
181.6409141384812
 11
1016.028277555934
 21
186.4942018595779
 72
1
 10
1016.028277555934
 20
186.4942018595779
 11
1017.991086566958
 21
191.2328419943411
 72
1
 10
1017.991086566958
 20
191.2328419943411
 11
1020.337513878589
 21
195.7499999999858
 72
1
 10
1020.337513878589
 20
195.7499999999858
 11
1023.076273808569
 21
200.0406446628121
 72
1
 10
1023.076273808569
 20
200.0406446628121
 11
1026.198652039154
 21
204.1098071965155
 72
1
 10
1026.198652039154
 20
204.1098071965155
 11
1029.634253300567
 21
207.8657466993939
 72
1
 10
1029.634253300567
 20
207.8657466993939
 11
1033.390192803445
 21
211.3013479608075
 72
1
 10
1033.390192803445
 20
211.3013479608075
 11
1037.459355337153
 21
214.4237261913916
 72
1
 10
1037.459355337153
 20
214.4237261913916
 11
1041.749999999979
 21
217.1624861213722
 72
1
 10
1041.749999999979
 20
217.1624861213722
 11
1046.432094186097
 21
219.5772322358794
 72
1
 10
1046.432094186097
 20
219.5772322358794
 11
1051.005798140387
 21
221.471722444031
 72
1
 10
1051.005798140387
 20
221.471722444031
 11
1055.859085861484
 21
223.0066608378913
 72
1
 10
1055.859085861484
 20
223.0066608378913
 11
1060.829625516762
 21
224.1040090561096
 72
1
 10
1060.829625516762
 20
224.1040090561096
 11
1065.91481275837
 21
224.7734866571693
 72
1
 10
1065.91481275837
 20
224.7734866571693
 11
1070.999999999977
 21
224.9999999999835
 72
1
 10
1070.999999999977
 20
224.9999999999835
 11
1076.085187241589
 21
224.7734866571693
 72
1
 10
1076.085187241589
 20
224.7734866571693
 11
1081.170374483201
 21
224.1040090561096
 72
1
 10
1081.170374483201
 20
224.1040090561096
 11
1086.140914138475
 21
223.0066608378913
 72
1
 10
1086.140914138475
 20
223.0066608378913
 11
1090.994201859571
 21
221.471722444031
 72
1
 10
1090.994201859571
 20
221.471722444031
 11
1095.732841994334
 21
219.5089134330034
 72
1
 10
1095.732841994334
 20
219.5089134330034
 11
1100.249999999979
 21
217.1624861213722
 72
1
 10
1100.249999999979
 20
217.1624861213722
 11
1104.54064466281
 21
214.423726191396
 72
1
 10
1104.54064466281
 20
214.423726191396
 11
1108.609807196513
 21
211.3013479608075
 72
1
 10
1108.609807196513
 20
211.3013479608075
 11
1112.365746699392
 21
207.8657466993939
 72
1
 10
1112.365746699392
 20
207.8657466993939
 11
1115.801347960805
 21
204.1098071965155
 72
1
 10
1115.801347960805
 20
204.1098071965155
 11
1118.923726191394
 21
200.0406446628121
 72
1
 10
1118.923726191394
 20
200.0406446628121
 11
1121.66248612137
 21
195.7499999999858
 72
1
 10
1121.66248612137
 20
195.7499999999858
 11
1124.008913433001
 21
191.2328419943411
 72
1
 10
1124.008913433001
 20
191.2328419943411
 11
1125.971722444024
 21
186.4942018595779
 72
1
 10
1125.971722444024
 20
186.4942018595779
 11
1127.506660837889
 21
181.6409141384812
 72
1
 10
1127.506660837889
 20
181.6409141384812
 11
1128.598977842416
 21
176.7085903453156
 72
1
 10
1128.598977842416
 20
176.7085903453156
 11
1129.263424229776
 21
171.6616189658121
 72
1
 10
1129.263424229776
 20
171.6616189658121
 11
1129.499999999981
 21
166.4999999999838
 72
1
 10
1129.499999999981
 20
166.4999999999838
 11
1129.499999999981
 21
94.60282490443188
 72
1
 10
1129.499999999981
 20
94.60282490443188
 11
1129.187790009847
 21
91.55835046275234
 72
1
 10
1129.187790009847
 20
91.55835046275234
 11
1128.264156716508
 21
88.64061139912566
 72
1
 10
1128.264156716508
 20
88.64061139912566
 11
1126.767549125483
 21
85.9710673514508
 72
1
 10
1126.767549125483
 20
85.9710673514508
 11
1124.760268015598
 21
83.6608460958362
 72
1
 10
1124.760268015598
 20
83.6608460958362
 11
1092.671447246012
 21
53.57123368107937
 72
1
 10
1092.671447246012
 20
53.57123368107937
 11
1089.580150095416
 21
51.02368356907255
 72
1
 10
1089.580150095416
 20
51.02368356907255
 11
1086.249761811498
 21
48.91153749739276
 72
1
 10
1086.249761811498
 20
48.91153749739276
 11
1082.651363478178
 21
47.22335779461793
 72
1
 10
1082.651363478178
 20
47.22335779461793
 11
1078.87171184371
 21
45.99345747502286
 72
1
 10
1078.87171184371
 20
45.99345747502286
 11
1074.966709789089
 21
45.25225559461262
 72
1
 10
1074.966709789089
 20
45.25225559461262
 11
1070.999999999981
 21
44.9999963567786
 97
0
 92
1
 93
60
 72
1
 10
285.9999999999783
 20
44.9999963567786
 11
282.0332902108709
 21
45.25225559461262
 72
1
 10
282.0332902108709
 20
45.25225559461262
 11
278.1282881562497
 21
45.99345747502286
 72
1
 10
278.1282881562497
 20
45.99345747502286
 11
274.3486365217824
 21
47.22335779461793
 72
1
 10
274.3486365217824
 20
47.22335779461793
 11
270.7502381884621
 21
48.91153749739276
 72
1
 10
270.7502381884621
 20
48.91153749739276
 11
267.4198499045442
 21
51.02368356907689
 72
1
 10
267.4198499045442
 20
51.02368356907689
 11
264.3285527539479
 21
53.5712336810837
 72
1
 10
264.3285527539479
 20
53.5712336810837
 11
232.2397319843622
 21
83.66084609584055
 72
1
 10
232.2397319843622
 20
83.66084609584055
 11
230.2324508744764
 21
85.97106735145513
 72
1
 10
230.2324508744764
 20
85.97106735145513
 11
228.7358432834522
 21
88.64061139912566
 72
1
 10
228.7358432834522
 20
88.64061139912566
 11
227.8122099901132
 21
91.55835046275234
 72
1
 10
227.8122099901132
 20
91.55835046275234
 11
227.4999999999786
 21
94.60282490443622
 72
1
 10
227.4999999999786
 20
94.60282490443622
 11
227.4999999999786
 21
166.4999999999838
 72
1
 10
227.4999999999786
 20
166.4999999999838
 11
227.7365757701841
 21
171.6616189658164
 72
1
 10
227.7365757701841
 20
171.6616189658164
 11
228.4010221575482
 21
176.7085903453156
 72
1
 10
228.4010221575482
 20
176.7085903453156
 11
229.4933391620708
 21
181.6409141384812
 72
1
 10
229.4933391620708
 20
181.6409141384812
 11
231.0282775559354
 21
186.4942018595822
 72
1
 10
231.0282775559354
 20
186.4942018595822
 11
232.9910865669587
 21
191.2328419943411
 72
1
 10
232.9910865669587
 20
191.2328419943411
 11
235.3375138785899
 21
195.7499999999858
 72
1
 10
235.3375138785899
 20
195.7499999999858
 11
238.0762738085661
 21
200.0406446628164
 72
1
 10
238.0762738085661
 20
200.0406446628164
 11
241.1986520391546
 21
204.1098071965198
 72
1
 10
241.1986520391546
 20
204.1098071965198
 11
244.6342533005682
 21
207.8657466993982
 72
1
 10
244.6342533005682
 20
207.8657466993982
 11
248.3901928034466
 21
211.3013479608118
 72
1
 10
248.3901928034466
 20
211.3013479608118
 11
252.45935533715
 21
214.423726191396
 72
1
 10
252.45935533715
 20
214.423726191396
 11
256.7499999999763
 21
217.1624861213765
 72
1
 10
256.7499999999763
 20
217.1624861213765
 11
261.2671580056253
 21
219.5089134330078
 72
1
 10
261.2671580056253
 20
219.5089134330078
 11
266.0057981403842
 21
221.471722444031
 72
1
 10
266.0057981403842
 20
221.471722444031
 11
270.8590858614809
 21
223.0066608378956
 72
1
 10
270.8590858614809
 20
223.0066608378956
 11
275.8296255167591
 21
224.1040090561096
 72
1
 10
275.8296255167591
 20
224.1040090561096
 11
280.9148127583709
 21
224.7734866571693
 72
1
 10
280.9148127583709
 20
224.7734866571693
 11
285.9999999999783
 21
224.9999999999878
 72
1
 10
285.9999999999783
 20
224.9999999999878
 11
291.08518724159
 21
224.7734866571693
 72
1
 10
291.08518724159
 20
224.7734866571693
 11
296.1703744831975
 21
224.1040090561096
 72
1
 10
296.1703744831975
 20
224.1040090561096
 11
301.1409141384758
 21
223.0066608378956
 72
1
 10
301.1409141384758
 20
223.0066608378956
 11
305.9942018595724
 21
221.471722444031
 72
1
 10
305.9942018595724
 20
221.471722444031
 11
310.7328419943356
 21
219.5089134330078
 72
1
 10
310.7328419943356
 20
219.5089134330078
 11
315.2499999999804
 21
217.1624861213765
 72
1
 10
315.2499999999804
 20
217.1624861213765
 11
319.5406446628065
 21
214.423726191396
 72
1
 10
319.5406446628065
 20
214.423726191396
 11
323.6098071965143
 21
211.3013479608118
 72
1
 10
323.6098071965143
 20
211.3013479608118
 11
327.3657466993928
 21
207.8657466993982
 72
1
 10
327.3657466993928
 20
207.8657466993982
 11
330.8013479608063
 21
204.1098071965198
 72
1
 10
330.8013479608063
 20
204.1098071965198
 11
333.9237261913905
 21
200.0406446628164
 72
1
 10
333.9237261913905
 20
200.0406446628164
 11
336.6624861213667
 21
195.7499999999858
 72
1
 10
336.6624861213667
 20
195.7499999999858
 11
339.0089134329979
 21
191.2328419943411
 72
1
 10
339.0089134329979
 20
191.2328419943411
 11
340.9717224440255
 21
186.4942018595822
 72
1
 10
340.9717224440255
 20
186.4942018595822
 11
342.5066608378902
 21
181.6409141384812
 72
1
 10
342.5066608378902
 20
181.6409141384812
 11
343.5989778424128
 21
176.7085903453156
 72
1
 10
343.5989778424128
 20
176.7085903453156
 11
344.2634242297725
 21
171.6616189658164
 72
1
 10
344.2634242297725
 20
171.6616189658164
 11
344.499999999978
 21
166.4999999999838
 72
1
 10
344.499999999978
 20
166.4999999999838
 11
344.499999999978
 21
94.60282490443622
 72
1
 10
344.499999999978
 20
94.60282490443622
 11
344.1877900098478
 21
91.55835046275234
 72
1
 10
344.1877900098478
 20
91.55835046275234
 11
343.2641567165088
 21
88.64061139912566
 72
1
 10
343.2641567165088
 20
88.64061139912566
 11
341.7675491254802
 21
85.97106735145513
 72
1
 10
341.7675491254802
 20
85.97106735145513
 11
339.7602680155987
 21
83.66084609584055
 72
1
 10
339.7602680155987
 20
83.66084609584055
 11
307.671447246013
 21
53.5712336810837
 72
1
 10
307.671447246013
 20
53.5712336810837
 11
304.5801500954124
 21
51.02368356907255
 72
1
 10
304.5801500954124
 20
51.02368356907255
 11
301.2497618114945
 21
48.91153749739276
 72
1
 10
301.2497618114945
 20
48.91153749739276
 11
297.6513634781785
 21
47.22335779461793
 72
1
 10
297.6513634781785
 20
47.22335779461793
 11
293.8717118437069
 21
45.99345747502286
 72
1
 10
293.8717118437069
 20
45.99345747502286
 11
289.96670978909
 21
45.25225559461262
 72
1
 10
289.96670978909
 20
45.25225559461262
 11
285.9999999999783
 21
44.9999963567786
 97
0
 92
1
 93
60
 72
1
 10
128.9999999999793
 20
44.9999963567786
 11
125.0332902108719
 21
45.25225559461262
 72
1
 10
125.0332902108719
 20
45.25225559461262
 11
121.1282881562507
 21
45.99345747502286
 72
1
 10
121.1282881562507
 20
45.99345747502286
 11
117.3486365217791
 21
47.22335779461793
 72
1
 10
117.3486365217791
 20
47.22335779461793
 11
113.7502381884631
 21
48.91153749739709
 72
1
 10
113.7502381884631
 20
48.91153749739709
 11
110.4198499045452
 21
51.02368356907689
 72
1
 10
110.4198499045452
 20
51.02368356907689
 11
107.3285527539489
 21
53.5712336810837
 72
1
 10
107.3285527539489
 20
53.5712336810837
 11
75.23973198436325
 21
83.66084609584055
 72
1
 10
75.23973198436325
 20
83.66084609584055
 11
73.23245087447745
 21
85.97106735145513
 72
1
 10
73.23245087447745
 20
85.97106735145513
 11
71.7358432834489
 21
88.64061139912566
 72
1
 10
71.7358432834489
 20
88.64061139912566
 11
70.81220999010986
 21
91.55835046275665
 72
1
 10
70.81220999010986
 20
91.55835046275665
 11
70.49999999997964
 21
94.60282490443622
 72
1
 10
70.49999999997964
 20
94.60282490443622
 11
70.49999999997964
 21
166.4999999999838
 72
1
 10
70.49999999997964
 20
166.4999999999838
 11
70.7365757701808
 21
171.6616189658164
 72
1
 10
70.7365757701808
 20
171.6616189658164
 11
71.40102215754487
 21
176.7085903453156
 72
1
 10
71.40102215754487
 20
176.7085903453156
 11
72.49333916206749
 21
181.6409141384812
 72
1
 10
72.49333916206749
 20
181.6409141384812
 11
74.0282775559365
 21
186.4942018595822
 72
1
 10
74.0282775559365
 20
186.4942018595822
 11
75.99108656695974
 21
191.2328419943411
 72
1
 10
75.99108656695974
 20
191.2328419943411
 11
78.33751387858665
 21
195.7499999999858
 72
1
 10
78.33751387858665
 20
195.7499999999858
 11
81.07627380856717
 21
200.0406446628164
 72
1
 10
81.07627380856717
 20
200.0406446628164
 11
84.19865203915568
 21
204.1098071965198
 72
1
 10
84.19865203915568
 20
204.1098071965198
 11
87.6342533005649
 21
207.8657466993982
 72
1
 10
87.6342533005649
 20
207.8657466993982
 11
91.39019280344763
 21
211.3013479608118
 72
1
 10
91.39019280344763
 20
211.3013479608118
 11
95.45935533715107
 21
214.423726191396
 72
1
 10
95.45935533715107
 20
214.423726191396
 11
99.74999999997733
 21
217.1624861213765
 72
1
 10
99.74999999997733
 20
217.1624861213765
 11
104.267158005622
 21
219.5089134330078
 72
1
 10
104.267158005622
 20
219.5089134330078
 11
109.0057981403852
 21
221.471722444031
 72
1
 10
109.0057981403852
 20
221.471722444031
 11
113.8590858614819
 21
223.0066608378956
 72
1
 10
113.8590858614819
 20
223.0066608378956
 11
118.8296255167601
 21
224.1040090561139
 72
1
 10
118.8296255167601
 20
224.1040090561139
 11
123.9148127583719
 21
224.7734866571737
 72
1
 10
123.9148127583719
 20
224.7734866571737
 11
128.9999999999793
 21
224.9999999999878
 72
1
 10
128.9999999999793
 20
224.9999999999878
 11
134.0851872415868
 21
224.7734866571737
 72
1
 10
134.0851872415868
 20
224.7734866571737
 11
139.1703744831985
 21
224.1040090561139
 72
1
 10
139.1703744831985
 20
224.1040090561139
 11
144.1409141384768
 21
223.0066608378956
 72
1
 10
144.1409141384768
 20
223.0066608378956
 11
148.9942018595734
 21
221.471722444031
 72
1
 10
148.9942018595734
 20
221.471722444031
 11
153.7328419943366
 21
219.5089134330078
 72
1
 10
153.7328419943366
 20
219.5089134330078
 11
158.249999999977
 21
217.1624861213765
 72
1
 10
158.249999999977
 20
217.1624861213765
 11
162.5406446628032
 21
214.423726191396
 72
1
 10
162.5406446628032
 20
214.423726191396
 11
166.6098071965153
 21
211.3013479608118
 72
1
 10
166.6098071965153
 20
211.3013479608118
 11
170.3657466993937
 21
207.8657466993982
 72
1
 10
170.3657466993937
 20
207.8657466993982
 11
173.801347960803
 21
204.1098071965198
 72
1
 10
173.801347960803
 20
204.1098071965198
 11
176.9237261913872
 21
200.0406446628164
 72
1
 10
176.9237261913872
 20
200.0406446628164
 11
179.662486121372
 21
195.7499999999858
 72
1
 10
179.662486121372
 20
195.7499999999858
 11
182.0089134329989
 21
191.2328419943411
 72
1
 10
182.0089134329989
 20
191.2328419943411
 11
183.9717224440221
 21
186.4942018595822
 72
1
 10
183.9717224440221
 20
186.4942018595822
 11
185.5066608378912
 21
181.6409141384812
 72
1
 10
185.5066608378912
 20
181.6409141384812
 11
186.5989778424138
 21
176.7085903453199
 72
1
 10
186.5989778424138
 20
176.7085903453199
 11
187.2634242297735
 21
171.6616189658164
 72
1
 10
187.2634242297735
 20
171.6616189658164
 11
187.499999999979
 21
166.4999999999881
 72
1
 10
187.499999999979
 20
166.4999999999881
 11
187.499999999979
 21
94.60282490443622
 72
1
 10
187.499999999979
 20
94.60282490443622
 11
187.1877900098488
 21
91.55835046275665
 72
1
 10
187.1877900098488
 20
91.55835046275665
 11
186.2641567165097
 21
88.64061139912566
 72
1
 10
186.2641567165097
 20
88.64061139912566
 11
184.7675491254812
 21
85.97106735145513
 72
1
 10
184.7675491254812
 20
85.97106735145513
 11
182.7602680155954
 21
83.66084609584055
 72
1
 10
182.7602680155954
 20
83.66084609584055
 11
150.6714472460097
 21
53.5712336810837
 72
1
 10
150.6714472460097
 20
53.5712336810837
 11
147.5801500954134
 21
51.02368356907689
 72
1
 10
147.5801500954134
 20
51.02368356907689
 11
144.2497618114955
 21
48.91153749739709
 72
1
 10
144.2497618114955
 20
48.91153749739709
 11
140.6513634781795
 21
47.22335779461793
 72
1
 10
140.6513634781795
 20
47.22335779461793
 11
136.8717118437036
 21
45.99345747502286
 72
1
 10
136.8717118437036
 20
45.99345747502286
 11
132.9667097890867
 21
45.25225559461262
 72
1
 10
132.9667097890867
 20
45.25225559461262
 11
128.9999999999793
 21
44.9999963567786
 97
0
 75
0
 76
2
 52
0.0
 41
1.0
 77
0
 78
1
 53
45.0
 43
12339.317
 44
8429.54
 45
-7.071067811865475
 46
7.071067811865475
 79
0
 98
1
 10
0.0
 20
0.0
  0
LINE
  5
33
330
2F
100
AcDbEntity
  8
A-DETL-GENF
100
AcDbLine
 10
1174.999999999998
 20
259.9999999999931
 30
0.0
 11
24.99999999999811
 21
259.9999999999967
 31
0.0
  0
LINE
  5
34
330
2F
100
AcDbEntity
  8
A-DETL-GENF
100
AcDbLine
 10
24.99999999999811
 20
259.9999999999967
 30
0.0
 11
24.99999999999811
 21
219.9999999999967
 31
0.0
  0
LINE
  5
35
330
2F
100
AcDbEntity
  8
A-DETL-GENF
100
AcDbLine
 10
24.99999999999811
 20
219.9999999999967
 30
0.0
 11
35.91224085304948
 21
208.5239042730989
 31
0.0
  0
LINE
  5
36
330
2F
100
AcDbEntity
  8
A-DETL-GENF
100
AcDbLine
 10
35.91224085304948
 20
208.5239042730989
 30
0.0
 11
28.44946199999846
 21
133.8961149999971
 31
0.0
  0
LINE
  5
37
330
2F
100
AcDbEntity
  8
A-DETL-GENF
100
AcDbLine
 10
28.4494619999986
 20
133.8961149999971
 30
0.0
 11
15.04962799999808
 21
120.4962809999967
 31
0.0
  0
LINE
  5
38
330
2F
100
AcDbEntity
  8
A-DETL-GENF
100
AcDbLine
 10
15.04962799999808
 20
120.4962809999967
 30
0.0
 11
4.999999999998051
 21
19.99999999999667
 31
0.0
  0
LINE
  5
39
330
2F
100
AcDbEntity
  8
A-DETL-GENF
100
AcDbLine
 10
4.999999999998051
 20
19.99999999999667
 30
0.0
 11
0.0
 21
19.99999999999667
 31
0.0
  0
LINE
  5
3A
330
2F
100
AcDbEntity
  8
A-DETL-GENF
100
AcDbLine
 10
0.0
 20
19.99999999999667
 30
0.0
 11
0.0
 21
9.999999999998844
 31
0.0
  0
LINE
  5
3B
330
2F
100
AcDbEntity
  8
A-DETL-GENF
100
AcDbLine
 10
0.0
 20
9.999999999998844
 30
0.0
 11
9.999999999998133
 21
6.43e-13
 31
0.0
  0
LINE
  5
3C
330
2F
100
AcDbEntity
  8
A-DETL-GENF
100
AcDbLine
 10
9.999999999998133
 20
6.768e-13
 30
0.0
 11
1189.999999999998
 21
-3.1132e-12
 31
0.0
  0
LINE
  5
3D
330
2F
100
AcDbEntity
  8
A-DETL-GENF
100
AcDbLine
 10
1189.999999999998
 20
-3.1132e-12
 30
0.0
 11
1199.999999999998
 21
9.99999999999678
 31
0.0
  0
LINE
  5
3E
330
2F
100
AcDbEntity
  8
A-DETL-GENF
100
AcDbLine
 10
1199.999999999998
 20
9.99999999999678
 30
0.0
 11
1199.999999999998
 21
19.99999999999667
 31
0.0
  0
LINE
  5
3F
330
2F
100
AcDbEntity
  8
A-DETL-GENF
100
AcDbLine
 10
1199.999999999998
 20
19.99999999999667
 30
0.0
 11
1194.999999999998
 21
19.99999999999667
 31
0.0
  0
LINE
  5
40
330
2F
100
AcDbEntity
  8
A-DETL-GENF
100
AcDbLine
 10
1194.999999999998
 20
19.99999999999667
 30
0.0
 11
1184.950371999998
 21
120.4962809999966
 31
0.0
  0
LINE
  5
41
330
2F
100
AcDbEntity
  8
A-DETL-GENF
100
AcDbLine
 10
1184.950371999998
 20
120.4962809999966
 30
0.0
 11
1171.550537999998
 21
133.8961149999962
 31
0.0
  0
LINE
  5
42
330
2F
100
AcDbEntity
  8
A-DETL-GENF
100
AcDbLine
 10
1171.550537999998
 20
133.8961149999961
 30
0.0
 11
1164.036498999998
 21
209.036498999997
 31
0.0
  0
LINE
  5
43
330
2F
100
AcDbEntity
  8
A-DETL-GENF
100
AcDbLine
 10
1164.036498999998
 20
209.036498999997
 30
0.0
 11
1174.999999999998
 21
219.9999999999966
 31
0.0
  0
LINE
  5
44
330
2F
100
AcDbEntity
  8
A-DETL-GENF
100
AcDbLine
 10
1174.999999999998
 20
219.9999999999966
 30
0.0
 11
1174.999999999998
 21
259.9999999999931
 31
0.0
  0
ARC
  5
45
330
2F
100
AcDbEntity
  8
A-DETL-GENF
100
AcDbCircle
 10
128.999999999998
 20
166.4999999999965
 30
0.0
 40
58.49999999999994
100
AcDbArc
 50
3.753e-13
 51
180.0000000000003
  0
LINE
  5
46
330
2F
100
AcDbEntity
  8
A-DETL-GENF
100
AcDbLine
 10
187.499999999998
 20
166.4999999999968
 30
0.0
 11
187.499999999998
 21
94.60282490444457
 31
0.0
  0
ARC
  5
47
330
2F
100
AcDbEntity
  8
A-DETL-GENF
100
AcDbCircle
 10
172.4999999999958
 20
94.60282490444489
 30
0.0
 40
15.00000000000217
100
AcDbArc
 50
313.1584168806398
 51
359.9999999999984
  0
LINE
  5
48
330
2F
100
AcDbEntity
  8
A-DETL-GENF
100
AcDbLine
 10
182.7602680156143
 20
83.66084609584993
 30
0.0
 11
150.6714472460293
 21
53.57123368109551
 31
0.0
  0
ARC
  5
49
330
2F
100
AcDbEntity
  8
A-DETL-GENF
100
AcDbCircle
 10
128.999999999998
 20
76.68257113901562
 30
0.0
 40
31.68257478222655
100
AcDbArc
 50
226.84158311936
 51
313.1584168806392
  0
LINE
  5
4A
330
2F
100
AcDbEntity
  8
A-DETL-GENF
100
AcDbLine
 10
107.3285527539665
 20
53.57123368109551
 30
0.0
 11
75.23973198438111
 21
83.66084609585049
 31
0.0
  0
ARC
  5
4B
330
2F
100
AcDbEntity
  8
A-DETL-GENF
100
AcDbCircle
 10
85.49999999999844
 20
94.6028249044443
 30
0.0
 40
15.00000000000057
100
AcDbArc
 50
180.0000000000003
 51
226.8415831193599
  0
LINE
  5
4C
330
2F
100
AcDbEntity
  8
A-DETL-GENF
100
AcDbLine
 10
70.49999999999805
 20
94.60282490444413
 30
0.0
 11
70.49999999999805
 21
166.4999999999962
 31
0.0
  0
ARC
  5
4D
330
2F
100
AcDbEntity
  8
A-DETL-GENF
100
AcDbCircle
 10
285.9999999999982
 20
166.499999999996
 30
0.0
 40
58.49999999999995
100
AcDbArc
 50
3.817e-13
 51
180.0000000000004
  0
LINE
  5
4E
330
2F
100
AcDbEntity
  8
A-DETL-GENF
100
AcDbLine
 10
344.4999999999982
 20
166.4999999999962
 30
0.0
 11
344.499999999998
 21
94.60282490444403
 31
0.0
  0
ARC
  5
4F
330
2F
100
AcDbEntity
  8
A-DETL-GENF
100
AcDbCircle
 10
329.4999999999961
 20
94.6028249044441
 30
0.0
 40
15.00000000000182
100
AcDbArc
 50
313.1584168806397
 51
359.9999999999996
  0
LINE
  5
50
330
2F
100
AcDbEntity
  8
A-DETL-GENF
100
AcDbLine
 10
339.7602680156144
 20
83.66084609584937
 30
0.0
 11
307.6714472460294
 21
53.57123368109493
 31
0.0
  0
ARC
  5
51
330
2F
100
AcDbEntity
  8
A-DETL-GENF
100
AcDbCircle
 10
285.9999999999981
 20
76.68257113901508
 30
0.0
 40
31.6825747822266
100
AcDbArc
 50
226.84158311936
 51
313.1584168806392
  0
LINE
  5
52
330
2F
100
AcDbEntity
  8
A-DETL-GENF
100
AcDbLine
 10
264.3285527539667
 20
53.571233681095
 30
0.0
 11
232.2397319843813
 21
83.66084609584993
 31
0.0
  0
ARC
  5
53
330
2F
100
AcDbEntity
  8
A-DETL-GENF
100
AcDbCircle
 10
242.4999999999971
 20
94.60282490444312
 30
0.0
 40
14.99999999999902
100
AcDbArc
 50
179.9999999999982
 51
226.8415831193623
  0
LINE
  5
54
330
2F
100
AcDbEntity
  8
A-DETL-GENF
100
AcDbLine
 10
227.4999999999981
 20
94.6028249044436
 30
0.0
 11
227.4999999999981
 21
166.4999999999956
 31
0.0
  0
ARC
  5
55
330
2F
100
AcDbEntity
  8
A-DETL-GENF
100
AcDbCircle
 10
442.9999999999981
 20
166.4999999999954
 30
0.0
 40
58.49999999999989
100
AcDbArc
 50
3.817e-13
 51
180.0000000000004
  0
LINE
  5
56
330
2F
100
AcDbEntity
  8
A-DETL-GENF
100
AcDbLine
 10
501.4999999999981
 20
166.4999999999957
 30
0.0
 11
501.4999999999981
 21
94.6028249044435
 31
0.0
  0
ARC
  5
57
330
2F
100
AcDbEntity
  8
A-DETL-GENF
100
AcDbCircle
 10
486.4999999999967
 20
94.6028249044433
 30
0.0
 40
15.00000000000119
100
AcDbArc
 50
313.1584168806385
 51
8.685e-13
  0
LINE
  5
58
330
2F
100
AcDbEntity
  8
A-DETL-GENF
100
AcDbLine
 10
496.7602680156143
 20
83.66084609584884
 30
0.0
 11
464.6714472460294
 21
53.57123368109446
 31
0.0
  0
ARC
  5
59
330
2F
100
AcDbEntity
  8
A-DETL-GENF
100
AcDbCircle
 10
442.9999999999981
 20
76.68257113901468
 30
0.0
 40
31.68257478222668
100
AcDbArc
 50
226.8415831193599
 51
313.1584168806389
  0
LINE
  5
5A
330
2F
100
AcDbEntity
  8
A-DETL-GENF
100
AcDbLine
 10
421.3285527539666
 20
53.57123368109446
 30
0.0
 11
389.2397319843812
 21
83.66084609584941
 31
0.0
  0
ARC
  5
5B
330
2F
100
AcDbEntity
  8
A-DETL-GENF
100
AcDbCircle
 10
399.4999999999978
 20
94.60282490444278
 30
0.0
 40
14.99999999999975
100
AcDbArc
 50
179.999999999999
 51
226.8415831193606
  0
LINE
  5
5C
330
2F
100
AcDbEntity
  8
A-DETL-GENF
100
AcDbLine
 10
384.499999999998
 20
94.60282490444305
 30
0.0
 11
384.4999999999981
 21
166.4999999999951
 31
0.0
  0
ARC
  5
5D
330
2F
100
AcDbEntity
  8
A-DETL-GENF
100
AcDbCircle
 10
599.9999999999982
 20
166.4999999999949
 30
0.0
 40
58.49999999999989
100
AcDbArc
 50
6.552e-13
 51
180.0000000000004
  0
LINE
  5
5E
330
2F
100
AcDbEntity
  8
A-DETL-GENF
100
AcDbLine
 10
658.499999999998
 20
166.4999999999951
 30
0.0
 11
658.499999999998
 21
94.60282490444295
 31
0.0
  0
ARC
  5
5F
330
2F
100
AcDbEntity
  8
A-DETL-GENF
100
AcDbCircle
 10
643.4999999999968
 20
94.60282490444276
 30
0.0
 40
15.00000000000113
100
AcDbArc
 50
313.1584168806384
 51
8.142e-13
  0
LINE
  5
60
330
2F
100
AcDbEntity
  8
A-DETL-GENF
100
AcDbLine
 10
653.7602680156143
 20
83.66084609584836
 30
0.0
 11
621.6714472460292
 21
53.57123368109398
 31
0.0
  0
ARC
  5
61
330
2F
100
AcDbEntity
  8
A-DETL-GENF
100
AcDbCircle
 10
599.9999999999982
 20
76.68257113901403
 30
0.0
 40
31.68257478222664
100
AcDbArc
 50
226.8415831193602
 51
313.1584168806391
  0
LINE
  5
62
330
2F
100
AcDbEntity
  8
A-DETL-GENF
100
AcDbLine
 10
578.3285527539667
 20
53.57123368109385
 30
0.0
 11
546.2397319843813
 21
83.66084609584885
 31
0.0
  0
ARC
  5
63
330
2F
100
AcDbEntity
  8
A-DETL-GENF
100
AcDbCircle
 10
556.4999999999995
 20
94.60282490444322
 30
0.0
 40
15.00000000000162
100
AcDbArc
 50
180.0000000000023
 51
226.8415831193586
  0
LINE
  5
64
330
2F
100
AcDbEntity
  8
A-DETL-GENF
100
AcDbLine
 10
541.499999999998
 20
94.60282490444251
 30
0.0
 11
541.4999999999982
 21
166.4999999999946
 31
0.0
  0
ARC
  5
65
330
2F
100
AcDbEntity
  8
A-DETL-GENF
100
AcDbCircle
 10
756.9999999999981
 20
166.4999999999944
 30
0.0
 40
58.49999999999988
100
AcDbArc
 50
6.488e-13
 51
180.0000000000004
  0
LINE
  5
66
330
2F
100
AcDbEntity
  8
A-DETL-GENF
100
AcDbLine
 10
815.4999999999981
 20
166.4999999999946
 30
0.0
 11
815.4999999999981
 21
94.60282490444241
 31
0.0
  0
ARC
  5
67
330
2F
100
AcDbEntity
  8
A-DETL-GENF
100
AcDbCircle
 10
800.4999999999968
 20
94.60282490444222
 30
0.0
 40
15.00000000000116
100
AcDbArc
 50
313.1584168806385
 51
8.142e-13
  0
LINE
  5
68
330
2F
100
AcDbEntity
  8
A-DETL-GENF
100
AcDbLine
 10
810.7602680156144
 20
83.66084609584782
 30
0.0
 11
778.6714472460293
 21
53.57123368109345
 31
0.0
  0
ARC
  5
69
330
2F
100
AcDbEntity
  8
A-DETL-GENF
100
AcDbCircle
 10
756.9999999999981
 20
76.68257113901346
 30
0.0
 40
31.68257478222655
100
AcDbArc
 50
226.84158311936
 51
313.1584168806392
  0
LINE
  5
6A
330
2F
100
AcDbEntity
  8
A-DETL-GENF
100
AcDbLine
 10
735.3285527539667
 20
53.57123368109327
 30
0.0
 11
703.2397319843813
 21
83.66084609584833
 31
0.0
  0
ARC
  5
6B
330
2F
100
AcDbEntity
  8
A-DETL-GENF
100
AcDbCircle
 10
713.4999999999974
 20
94.6028249044416
 30
0.0
 40
14.99999999999939
100
AcDbArc
 50
179.9999999999986
 51
226.8415831193614
  0
LINE
  5
6C
330
2F
100
AcDbEntity
  8
A-DETL-GENF
100
AcDbLine
 10
698.499999999998
 20
94.60282490444197
 30
0.0
 11
698.499999999998
 21
166.499999999994
 31
0.0
  0
ARC
  5
6D
330
2F
100
AcDbEntity
  8
A-DETL-GENF
100
AcDbCircle
 10
913.9999999999982
 20
166.4999999999938
 30
0.0
 40
58.49999999999988
100
AcDbArc
 50
6.043e-13
 51
180.0000000000004
  0
LINE
  5
6E
330
2F
100
AcDbEntity
  8
A-DETL-GENF
100
AcDbLine
 10
972.4999999999981
 20
166.4999999999941
 30
0.0
 11
972.499999999998
 21
94.60282490444187
 31
0.0
  0
ARC
  5
6F
330
2F
100
AcDbEntity
  8
A-DETL-GENF
100
AcDbCircle
 10
957.4999999999969
 20
94.60282490444166
 30
0.0
 40
15.00000000000112
100
AcDbArc
 50
313.1584168806385
 51
1.0559e-12
  0
LINE
  5
70
330
2F
100
AcDbEntity
  8
A-DETL-GENF
100
AcDbLine
 10
967.7602680156144
 20
83.66084609584728
 30
0.0
 11
935.6714472460295
 21
53.57123368109291
 31
0.0
  0
ARC
  5
71
330
2F
100
AcDbEntity
  8
A-DETL-GENF
100
AcDbCircle
 10
913.9999999999982
 20
76.68257113901292
 30
0.0
 40
31.68257478222655
100
AcDbArc
 50
226.84158311936
 51
313.1584168806392
  0
LINE
  5
72
330
2F
100
AcDbEntity
  8
A-DETL-GENF
100
AcDbLine
 10
892.3285527539666
 20
53.57123368109274
 30
0.0
 11
860.2397319843813
 21
83.66084609584779
 31
0.0
  0
ARC
  5
73
330
2F
100
AcDbEntity
  8
A-DETL-GENF
100
AcDbCircle
 10
870.4999999999976
 20
94.60282490444106
 30
0.0
 40
14.99999999999939
100
AcDbArc
 50
179.9999999999986
 51
226.8415831193614
  0
LINE
  5
74
330
2F
100
AcDbEntity
  8
A-DETL-GENF
100
AcDbLine
 10
855.499999999998
 20
94.60282490444143
 30
0.0
 11
855.4999999999981
 21
166.4999999999935
 31
0.0
  0
ARC
  5
75
330
2F
100
AcDbEntity
  8
A-DETL-GENF
100
AcDbCircle
 10
1070.999999999998
 20
166.4999999999933
 30
0.0
 40
58.49999999999995
100
AcDbArc
 50
2.163e-13
 51
180.0000000000002
  0
LINE
  5
76
330
2F
100
AcDbEntity
  8
A-DETL-GENF
100
AcDbLine
 10
1129.499999999998
 20
166.4999999999935
 30
0.0
 11
1129.499999999998
 21
94.60282490444133
 31
0.0
  0
ARC
  5
77
330
2F
100
AcDbEntity
  8
A-DETL-GENF
100
AcDbCircle
 10
1114.499999999996
 20
94.60282490444114
 30
0.0
 40
15.0000000000011
100
AcDbArc
 50
313.1584168806382
 51
1.2722e-12
  0
LINE
  5
78
330
2F
100
AcDbEntity
  8
A-DETL-GENF
100
AcDbLine
 10
1124.760268015614
 20
83.66084609584674
 30
0.0
 11
1092.671447246029
 21
53.57123368109236
 31
0.0
  0
ARC
  5
79
330
2F
100
AcDbEntity
  8
A-DETL-GENF
100
AcDbCircle
 10
1070.999999999998
 20
76.68257113901238
 30
0.0
 40
31.68257478222655
100
AcDbArc
 50
226.8415831193602
 51
313.1584168806393
  0
LINE
  5
7A
330
2F
100
AcDbEntity
  8
A-DETL-GENF
100
AcDbLine
 10
1049.328552753967
 20
53.5712336810922
 30
0.0
 11
1017.239731984381
 21
83.66084609584723
 31
0.0
  0
ARC
  5
7B
330
2F
100
AcDbEntity
  8
A-DETL-GENF
100
AcDbCircle
 10
1027.499999999997
 20
94.60282490444051
 30
0.0
 40
14.99999999999923
100
AcDbArc
 50
179.9999999999985
 51
226.8415831193614
  0
LINE
  5
7C
330
2F
100
AcDbEntity
  8
A-DETL-GENF
100
AcDbLine
 10
1012.499999999998
 20
94.6028249044409
 30
0.0
 11
1012.499999999998
 21
166.499999999993
 31
0.0
  0
ENDBLK
  5
31
330
2F
100
AcDbEntity
  8
0
100
AcDbBlockEnd
  0
ENDSEC
  0
SECTION
  2
ENTITIES
  0
INSERT
  5
7E
330
17
100
AcDbEntity
  8
0
100
AcDbBlockReference
  2
23 VBI kanaalplaat - KPV260-3537658-00_0 Basismaterialen
 10
0.0
 20
0.0
 30
0.0
  0
ENDSEC
  0
SECTION
  2
OBJECTS
  0
DICTIONARY
  5
A
330
0
100
AcDbDictionary
281
1
  3
ACAD_COLOR
350
B
  3
ACAD_GROUP
350
C
  3
ACAD_LAYOUT
350
D
  3
ACAD_MATERIAL
350
E
  3
ACAD_MLEADERSTYLE
350
F
  3
ACAD_MLINESTYLE
350
10
  3
ACAD_PLOTSETTINGS
350
11
  3
ACAD_PLOTSTYLENAME
350
12
  3
ACAD_SCALELIST
350
14
  3
ACAD_TABLESTYLE
350
15
  3
ACAD_VISUALSTYLE
350
16
  3
EZDXF_META
350
2D
  0
DICTIONARY
  5
B
330
A
100
AcDbDictionary
281
1
  0
DICTIONARY
  5
C
330
A
100
AcDbDictionary
281
1
  0
DICTIONARY
  5
D
330
A
100
AcDbDictionary
281
1
  3
Model
350
1A
  3
Layout1
350
1E
  0
DICTIONARY
  5
E
330
A
100
AcDbDictionary
281
1
  3
ByBlock
350
1F
  3
ByLayer
350
20
  3
Global
350
21
  0
DICTIONARY
  5
F
330
A
100
AcDbDictionary
281
1
  3
Standard
350
2C
  0
DICTIONARY
  5
10
330
A
100
AcDbDictionary
281
1
  3
Standard
350
22
  0
DICTIONARY
  5
11
330
A
100
AcDbDictionary
281
1
  0
ACDBDICTIONARYWDFLT
  5
12
330
A
100
AcDbDictionary
281
1
  3
Normal
350
13
100
AcDbDictionaryWithDefault
340
13
  0
ACDBPLACEHOLDER
  5
13
330
12
  0
DICTIONARY
  5
14
330
A
100
AcDbDictionary
281
1
  0
DICTIONARY
  5
15
330
A
100
AcDbDictionary
281
1
  0
DICTIONARY
  5
16
330
A
100
AcDbDictionary
281
1
  0
LAYOUT
  5
1A
330
D
100
AcDbPlotSettings
  1

  4
A3
  6

 40
7.5
 41
20.0
 42
7.5
 43
20.0
 44
420.0
 45
297.0
 46
0.0
 47
0.0
 48
0.0
 49
0.0
140
0.0
141
0.0
142
1.0
143
1.0
 70
1024
 72
1
 73
0
 74
5
  7

 75
16
 76
0
 77
2
 78
300
147
1.0
148
0.0
149
0.0
100
AcDbLayout
  1
Model
 70
1
 71
0
 10
0.0
 20
0.0
 11
420.0
 21
297.0
 12
0.0
 22
0.0
 32
0.0
 14
1e+20
 24
1e+20
 34
1e+20
 15
-1e+20
 25
-1e+20
 35
-1e+20
146
0.0
 13
0.0
 23
0.0
 33
0.0
 16
1.0
 26
0.0
 36
0.0
 17
0.0
 27
1.0
 37
0.0
 76
1
330
17
  0
LAYOUT
  5
1E
330
D
100
AcDbPlotSettings
  1

  4
A3
  6

 40
7.5
 41
20.0
 42
7.5
 43
20.0
 44
420.0
 45
297.0
 46
0.0
 47
0.0
 48
0.0
 49
0.0
140
0.0
141
0.0
142
1.0
143
1.0
 70
0
 72
1
 73
0
 74
5
  7

 75
16
 76
0
 77
2
 78
300
147
1.0
148
0.0
149
0.0
100
AcDbLayout
  1
Layout1
 70
1
 71
1
 10
0.0
 20
0.0
 11
420.0
 21
297.0
 12
0.0
 22
0.0
 32
0.0
 14
1e+20
 24
1e+20
 34
1e+20
 15
-1e+20
 25
-1e+20
 35
-1e+20
146
0.0
 13
0.0
 23
0.0
 33
0.0
 16
1.0
 26
0.0
 36
0.0
 17
0.0
 27
1.0
 37
0.0
 76
1
330
1B
  0
MATERIAL
  5
1F
102
{ACAD_REACTORS
330
E
102
}
330
E
100
AcDbMaterial
  1
ByBlock
  2

 70
0
 40
1.0
 71
1
 41
1.0
 91
-1023410177
 42
1.0
 72
1
  3

 73
1
 74
1
 75
1
 44
0.5
 73
0
 45
1.0
 46
1.0
 77
1
  4

 78
1
 79
1
170
1
 48
1.0
171
1
  6

172
1
173
1
174
1
140
1.0
141
1.0
175
1
  7

176
1
177
1
178
1
143
1.0
179
1
  8

270
1
271
1
272
1
145
1.0
146
1.0
273
1
  9

274
1
275
1
276
1
 42
1.0
 72
1
  3

 73
1
 74
1
 75
1
 94
63
  0
MATERIAL
  5
20
102
{ACAD_REACTORS
330
E
102
}
330
E
100
AcDbMaterial
  1
ByLayer
  2

 70
0
 40
1.0
 71
1
 41
1.0
 91
-1023410177
 42
1.0
 72
1
  3

 73
1
 74
1
 75
1
 44
0.5
 73
0
 45
1.0
 46
1.0
 77
1
  4

 78
1
 79
1
170
1
 48
1.0
171
1
  6

172
1
173
1
174
1
140
1.0
141
1.0
175
1
  7

176
1
177
1
178
1
143
1.0
179
1
  8

270
1
271
1
272
1
145
1.0
146
1.0
273
1
  9

274
1
275
1
276
1
 42
1.0
 72
1
  3

 73
1
 74
1
 75
1
 94
63
  0
MATERIAL
  5
21
102
{ACAD_REACTORS
330
E
102
}
330
E
100
AcDbMaterial
  1
Global
  2

 70
0
 40
1.0
 71
1
 41
1.0
 91
-1023410177
 42
1.0
 72
1
  3

 73
1
 74
1
 75
1
 44
0.5
 73
0
 45
1.0
 46
1.0
 77
1
  4

 78
1
 79
1
170
1
 48
1.0
171
1
  6

172
1
173
1
174
1
140
1.0
141
1.0
175
1
  7

176
1
177
1
178
1
143
1.0
179
1
  8

270
1
271
1
272
1
145
1.0
146
1.0
273
1
  9

274
1
275
1
276
1
 42
1.0
 72
1
  3

 73
1
 74
1
 75
1
 94
63
  0
MLINESTYLE
  5
22
102
{ACAD_REACTORS
330
10
102
}
330
10
100
AcDbMlineStyle
  2
Standard
 70
0
  3

 62
256
 51
90.0
 52
90.0
 71
2
 49
0.5
 62
256
  6
BYLAYER
 49
-0.5
 62
256
  6
BYLAYER
  0
MLEADERSTYLE
  5
2C
102
{ACAD_REACTORS
330
F
102
}
330
F
100
AcDbMLeaderStyle
179
2
170
2
171
1
172
0
 90
2
 40
0.0
 41
0.0
173
1
 91
-1056964608
 92
-2
290
1
 42
2.0
291
1
 43
8.0
  3
Standard
 44
4.0
300

342
29
174
1
175
1
176
0
178
1
 93
-1056964608
 45
4.0
292
0
297
0
 46
4.0
 94
-1056964608
 47
1.0
 49
1.0
140
1.0
294
1
141
0.0
177
0
142
1.0
295
0
296
0
143
3.75
271
0
272
9
273
9
  0
DICTIONARY
  5
2D
330
A
100
AcDbDictionary
280
1
281
1
  3
CREATED_BY_EZDXF
350
2E
  3
WRITTEN_BY_EZDXF
350
82
  0
DICTIONARYVAR
  5
2E
330
2D
100
DictionaryVariables
280
0
  1
1.4.3 @ 2026-02-13T04:54:07.133524+00:00
  0
DICTIONARYVAR
  5
82
330
2D
100
DictionaryVariables
280
0
  1
1.4.3 @ 2026-02-13T04:54:07.142847+00:00
  0
ENDSEC
  0
EOF
