0
SECTION
2
HEADER
9
$EXTMIN
10
 0
20
 100
30
0.0
9
$EXTMAX
10
 0
20
 100
30
0.0
9
$LIMMIN
10
 100
20
 0
9
$LIMMAX
10
 0
20
 100
9
$PSLTSCALE
70
1
0
ENDSEC
0
SECTION
2
TABLES
0
TABLE
2
LAYER
70
2
0
LAYER
2
0
70
0
62
7
6
CONTINUOUS
0
LAYER
2
Halfen
70
0
62
7
6
CONTINUOUS
0
ENDTAB
0
ENDSEC
0
SECTION
2
ENTITIES
0
POLYLINE
8
Halfen
62
7
66
1
10
0.0
20
0.0
30
0.0
70
1
0
VERTEX
8
Halfen
62
7
10
 0
20
-73.5
30
0
0
VERTEX
8
Halfen
62
7
10
 500
20
-73.5
30
0
0
VERTEX
8
Halfen
62
7
10
 500
20
 73.5
30
0
0
VERTEX
8
Halfen
62
7
10
 0
20
 73.5
30
0
0
SEQEND
8
Halfen
0
POLYLINE
8
Halfen
62
7
66
1
10
0.0
20
0.0
30
0.0
70
1
0
VERTEX
8
Halfen
62
7
10
 0
20
-60
30
0
0
VERTEX
8
Halfen
62
7
10
 500
20
-60
30
0
0
VERTEX
8
Halfen
62
7
10
 500
20
 60
30
0
0
VERTEX
8
Halfen
62
7
10
 0
20
 60
30
0
0
SEQEND
8
Halfen
0
POLYLINE
8
Halfen
62
7
66
1
10
0.0
20
0.0
30
0.0
70
1
0
VERTEX
8
Halfen
62
7
10
 20
20
-32.5
30
0
0
VERTEX
8
Halfen
62
7
10
 37
20
-1.5
30
0
0
VERTEX
8
Halfen
62
7
10
 28
20
-1.5
30
0
0
VERTEX
8
Halfen
62
7
10
 28
20
 32.5
30
0
0
VERTEX
8
Halfen
62
7
10
 12
20
 32.5
30
0
0
VERTEX
8
Halfen
62
7
10
 12
20
-1.5
30
0
0
VERTEX
8
Halfen
62
7
10
 3
20
-1.5
30
0
0
SEQEND
8
Halfen
0
POLYLINE
8
Halfen
62
7
66
1
10
0.0
20
0.0
30
0.0
70
1
0
VERTEX
8
Halfen
62
7
10
 480
20
-32.5
30
0
0
VERTEX
8
Halfen
62
7
10
 497
20
-1.5
30
0
0
VERTEX
8
Halfen
62
7
10
 488
20
-1.5
30
0
0
VERTEX
8
Halfen
62
7
10
 488
20
 32.5
30
0
0
VERTEX
8
Halfen
62
7
10
 472
20
 32.5
30
0
0
VERTEX
8
Halfen
62
7
10
 472
20
-1.5
30
0
0
VERTEX
8
Halfen
62
7
10
 463
20
-1.5
30
0
0
SEQEND
8
Halfen
0
POLYLINE
8
Halfen
62
7
66
1
10
0.0
20
0.0
30
0.0
70
1
0
VERTEX
8
Halfen
62
7
10
 89
20
-702.262
30
0
0
VERTEX
8
Halfen
62
7
10
 89
20
 700.922
30
0
0
VERTEX
8
Halfen
62
7
10
 79
20
 700.922
30
0
0
VERTEX
8
Halfen
62
7
10
 79
20
-702.262
30
0
0
SEQEND
8
Halfen
0
POLYLINE
8
Halfen
62
7
66
1
10
0.0
20
0.0
30
0.0
70
1
0
VERTEX
8
Halfen
62
7
10
 175
20
-702.262
30
0
0
VERTEX
8
Halfen
62
7
10
 175
20
 700.922
30
0
0
VERTEX
8
Halfen
62
7
10
 165
20
 700.922
30
0
0
VERTEX
8
Halfen
62
7
10
 165
20
-702.262
30
0
0
SEQEND
8
Halfen
0
POLYLINE
8
Halfen
62
7
66
1
10
0.0
20
0.0
30
0.0
70
1
0
VERTEX
8
Halfen
62
7
10
 261
20
-702.262
30
0
0
VERTEX
8
Halfen
62
7
10
 261
20
 700.922
30
0
0
VERTEX
8
Halfen
62
7
10
 251
20
 700.922
30
0
0
VERTEX
8
Halfen
62
7
10
 251
20
-702.262
30
0
0
SEQEND
8
Halfen
0
POLYLINE
8
Halfen
62
7
66
1
10
0.0
20
0.0
30
0.0
70
1
0
VERTEX
8
Halfen
62
7
10
 347
20
-702.262
30
0
0
VERTEX
8
Halfen
62
7
10
 347
20
 700.922
30
0
0
VERTEX
8
Halfen
62
7
10
 337
20
 700.922
30
0
0
VERTEX
8
Halfen
62
7
10
 337
20
-702.262
30
0
0
SEQEND
8
Halfen
0
POLYLINE
8
Halfen
62
7
66
1
10
0.0
20
0.0
30
0.0
70
1
0
VERTEX
8
Halfen
62
7
10
 433
20
-702.262
30
0
0
VERTEX
8
Halfen
62
7
10
 433
20
 700.922
30
0
0
VERTEX
8
Halfen
62
7
10
 423
20
 700.922
30
0
0
VERTEX
8
Halfen
62
7
10
 423
20
-702.262
30
0
0
SEQEND
8
Halfen
0
POLYLINE
8
Halfen
62
7
66
1
10
0.0
20
0.0
30
0.0
70
1
0
VERTEX
8
Halfen
62
7
10
 880
20
-60
30
0
0
VERTEX
8
Halfen
62
7
10
 880
20
 60
30
0
0
VERTEX
8
Halfen
62
7
10
 866.5
20
 73.5
30
0
0
VERTEX
8
Halfen
62
7
10
 866.5
20
 60
30
0
0
VERTEX
8
Halfen
62
7
10
 750
20
 60
30
0
0
VERTEX
8
Halfen
62
7
10
 750
20
-60
30
0
0
VERTEX
8
Halfen
62
7
10
 866.5
20
-60
30
0
0
VERTEX
8
Halfen
62
7
10
 866.5
20
-73.5
30
0
0
SEQEND
8
Halfen
0
POLYLINE
8
Halfen
62
7
66
1
10
0.0
20
0.0
30
0.0
70
1
0
VERTEX
8
Halfen
62
7
10
 750
20
-60
30
0
0
VERTEX
8
Halfen
62
7
10
 750
20
 60
30
0
0
VERTEX
8
Halfen
62
7
10
 713.5
20
 60
30
0
0
VERTEX
8
Halfen
62
7
10
 713.5
20
 73.5
30
0
0
VERTEX
8
Halfen
62
7
10
 700
20
 60
30
0
0
VERTEX
8
Halfen
62
7
10
 700
20
-60
30
0
0
VERTEX
8
Halfen
62
7
10
 713.5
20
-73.5
30
0
0
VERTEX
8
Halfen
62
7
10
 713.5
20
-60
30
0
0
SEQEND
8
Halfen
0
POLYLINE
8
Halfen
62
7
66
1
10
0.0
20
0.0
30
0.0
70
1
0
VERTEX
8
Halfen
62
7
10
 877.5
20
-58.75
30
0
0
VERTEX
8
Halfen
62
7
10
 877.5
20
 58.75
30
0
0
VERTEX
8
Halfen
62
7
10
 869
20
 67.25
30
0
0
VERTEX
8
Halfen
62
7
10
 869
20
 58
30
0
0
VERTEX
8
Halfen
62
7
10
 752
20
 58
30
0
0
VERTEX
8
Halfen
62
7
10
 752
20
-58
30
0
0
VERTEX
8
Halfen
62
7
10
 869
20
-58
30
0
0
VERTEX
8
Halfen
62
7
10
 869
20
-67.25
30
0
0
SEQEND
8
Halfen
0
POLYLINE
8
Halfen
62
7
66
1
10
0.0
20
0.0
30
0.0
70
1
0
VERTEX
8
Halfen
62
7
10
 748
20
-58
30
0
0
VERTEX
8
Halfen
62
7
10
 748
20
 58
30
0
0
VERTEX
8
Halfen
62
7
10
 711
20
 58
30
0
0
VERTEX
8
Halfen
62
7
10
 711
20
 67.25
30
0
0
VERTEX
8
Halfen
62
7
10
 702.5
20
 58.75
30
0
0
VERTEX
8
Halfen
62
7
10
 702.5
20
-58.75
30
0
0
VERTEX
8
Halfen
62
7
10
 711
20
-67.25
30
0
0
VERTEX
8
Halfen
62
7
10
 711
20
-58
30
0
0
SEQEND
8
Halfen
0
POLYLINE
8
Halfen
62
7
66
1
10
0.0
20
0.0
30
0.0
70
1
0
VERTEX
8
Halfen
62
7
10
 850
20
-702.262
30
0
0
VERTEX
8
Halfen
62
7
10
 850
20
-92.321
30
0
0
VERTEX
8
Halfen
62
7
10
 849.392
20
-85.375
30
0
0
VERTEX
8
Halfen
62
7
10
 847.588
20
-78.64
30
0
0
VERTEX
8
Halfen
62
7
10
 844.641
20
-72.321
30
0
0
VERTEX
8
Halfen
62
7
10
 759.019
20
 75.981
30
0
0
VERTEX
8
Halfen
62
7
10
 756.809
20
 80.72
30
0
0
VERTEX
8
Halfen
62
7
10
 755.456
20
 85.771
30
0
0
VERTEX
8
Halfen
62
7
10
 755
20
 90.981
30
0
0
VERTEX
8
Halfen
62
7
10
 755
20
 161.922
30
0
0
VERTEX
8
Halfen
62
7
10
 755
20
 700.922
30
0
0
VERTEX
8
Halfen
62
7
10
 745
20
 700.922
30
0
0
VERTEX
8
Halfen
62
7
10
 745
20
 161.922
30
0
0
VERTEX
8
Halfen
62
7
10
 745
20
 90.981
30
0
0
VERTEX
8
Halfen
62
7
10
 745.608
20
 84.035
30
0
0
VERTEX
8
Halfen
62
7
10
 747.412
20
 77.3
30
0
0
VERTEX
8
Halfen
62
7
10
 750.359
20
 70.981
30
0
0
VERTEX
8
Halfen
62
7
10
 835.981
20
-77.321
30
0
0
VERTEX
8
Halfen
62
7
10
 838.191
20
-82.06
30
0
0
VERTEX
8
Halfen
62
7
10
 839.544
20
-87.111
30
0
0
VERTEX
8
Halfen
62
7
10
 840
20
-92.321
30
0
0
VERTEX
8
Halfen
62
7
10
 840
20
-702.262
30
0
0
SEQEND
8
Halfen
0
ENDSEC
0
EOF
