0
SECTION
2
HEADER
9
$EXTMIN
10
 0
20
 100
30
0.0
9
$EXTMAX
10
 0
20
 100
30
0.0
9
$LIMMIN
10
 100
20
 0
9
$LIMMAX
10
 0
20
 100
9
$PSLTSCALE
70
1
0
ENDSEC
0
SECTION
2
TABLES
0
TABLE
2
LAYER
70
2
0
LAYER
2
0
70
0
62
7
6
CONTINUOUS
0
LAYER
2
Halfen
70
0
62
7
6
CONTINUOUS
0
ENDTAB
0
ENDSEC
0
SECTION
2
ENTITIES
0
POLYLINE
8
Halfen
62
7
66
1
10
0.0
20
0.0
30
0.0
70
1
0
VERTEX
8
Halfen
62
7
10
 0
20
-73.5
30
0
0
VERTEX
8
Halfen
62
7
10
 500
20
-73.5
30
0
0
VERTEX
8
Halfen
62
7
10
 500
20
 73.5
30
0
0
VERTEX
8
Halfen
62
7
10
 0
20
 73.5
30
0
0
SEQEND
8
Halfen
0
POLYLINE
8
Halfen
62
7
66
1
10
0.0
20
0.0
30
0.0
70
1
0
VERTEX
8
Halfen
62
7
10
 0
20
-60
30
0
0
VERTEX
8
Halfen
62
7
10
 500
20
-60
30
0
0
VERTEX
8
Halfen
62
7
10
 500
20
 60
30
0
0
VERTEX
8
Halfen
62
7
10
 0
20
 60
30
0
0
SEQEND
8
Halfen
0
POLYLINE
8
Halfen
62
7
66
1
10
0.0
20
0.0
30
0.0
70
1
0
VERTEX
8
Halfen
62
7
10
 20
20
-32.5
30
0
0
VERTEX
8
Halfen
62
7
10
 37
20
-1.5
30
0
0
VERTEX
8
Halfen
62
7
10
 28
20
-1.5
30
0
0
VERTEX
8
Halfen
62
7
10
 28
20
 32.5
30
0
0
VERTEX
8
Halfen
62
7
10
 12
20
 32.5
30
0
0
VERTEX
8
Halfen
62
7
10
 12
20
-1.5
30
0
0
VERTEX
8
Halfen
62
7
10
 3
20
-1.5
30
0
0
SEQEND
8
Halfen
0
POLYLINE
8
Halfen
62
7
66
1
10
0.0
20
0.0
30
0.0
70
1
0
VERTEX
8
Halfen
62
7
10
 480
20
-32.5
30
0
0
VERTEX
8
Halfen
62
7
10
 497
20
-1.5
30
0
0
VERTEX
8
Halfen
62
7
10
 488
20
-1.5
30
0
0
VERTEX
8
Halfen
62
7
10
 488
20
 32.5
30
0
0
VERTEX
8
Halfen
62
7
10
 472
20
 32.5
30
0
0
VERTEX
8
Halfen
62
7
10
 472
20
-1.5
30
0
0
VERTEX
8
Halfen
62
7
10
 463
20
-1.5
30
0
0
SEQEND
8
Halfen
0
POLYLINE
8
Halfen
62
7
66
1
10
0.0
20
0.0
30
0.0
70
1
0
VERTEX
8
Halfen
62
7
10
 68
20
-775
30
0
0
VERTEX
8
Halfen
62
7
10
 68
20
-160
30
0
0
VERTEX
8
Halfen
62
7
10
 56
20
-160
30
0
0
VERTEX
8
Halfen
62
7
10
 56
20
-775
30
0
0
SEQEND
8
Halfen
0
POLYLINE
8
Halfen
62
7
66
1
10
0.0
20
0.0
30
0.0
70
1
0
VERTEX
8
Halfen
62
7
10
 67.25
20
-160
30
0
0
VERTEX
8
Halfen
62
7
10
 67.25
20
-62
30
0
0
VERTEX
8
Halfen
62
7
10
 56.75
20
-62
30
0
0
VERTEX
8
Halfen
62
7
10
 56.75
20
-160
30
0
0
SEQEND
8
Halfen
0
POLYLINE
8
Halfen
62
7
66
1
10
0.0
20
0.0
30
0.0
70
1
0
VERTEX
8
Halfen
62
7
10
 68
20
-62
30
0
0
VERTEX
8
Halfen
62
7
10
 68
20
-60
30
0
0
VERTEX
8
Halfen
62
7
10
 56
20
-60
30
0
0
VERTEX
8
Halfen
62
7
10
 56
20
-62
30
0
0
SEQEND
8
Halfen
0
POLYLINE
8
Halfen
62
7
66
1
10
0.0
20
0.0
30
0.0
70
1
0
VERTEX
8
Halfen
62
7
10
 67.25
20
-60
30
0
0
VERTEX
8
Halfen
62
7
10
 67.25
20
 60
30
0
0
VERTEX
8
Halfen
62
7
10
 56.75
20
 60
30
0
0
VERTEX
8
Halfen
62
7
10
 56.75
20
-60
30
0
0
SEQEND
8
Halfen
0
POLYLINE
8
Halfen
62
7
66
1
10
0.0
20
0.0
30
0.0
70
1
0
VERTEX
8
Halfen
62
7
10
 68
20
 60
30
0
0
VERTEX
8
Halfen
62
7
10
 68
20
 62
30
0
0
VERTEX
8
Halfen
62
7
10
 56
20
 62
30
0
0
VERTEX
8
Halfen
62
7
10
 56
20
 60
30
0
0
SEQEND
8
Halfen
0
POLYLINE
8
Halfen
62
7
66
1
10
0.0
20
0.0
30
0.0
70
1
0
VERTEX
8
Halfen
62
7
10
 67.25
20
 62
30
0
0
VERTEX
8
Halfen
62
7
10
 67.25
20
 160
30
0
0
VERTEX
8
Halfen
62
7
10
 56.75
20
 160
30
0
0
VERTEX
8
Halfen
62
7
10
 56.75
20
 62
30
0
0
SEQEND
8
Halfen
0
POLYLINE
8
Halfen
62
7
66
1
10
0.0
20
0.0
30
0.0
70
1
0
VERTEX
8
Halfen
62
7
10
 68
20
 160
30
0
0
VERTEX
8
Halfen
62
7
10
 68
20
 775
30
0
0
VERTEX
8
Halfen
62
7
10
 56
20
 775
30
0
0
VERTEX
8
Halfen
62
7
10
 56
20
 160
30
0
0
SEQEND
8
Halfen
0
POLYLINE
8
Halfen
62
7
66
1
10
0.0
20
0.0
30
0.0
70
1
0
VERTEX
8
Halfen
62
7
10
 152
20
-775
30
0
0
VERTEX
8
Halfen
62
7
10
 152
20
-160
30
0
0
VERTEX
8
Halfen
62
7
10
 140
20
-160
30
0
0
VERTEX
8
Halfen
62
7
10
 140
20
-775
30
0
0
SEQEND
8
Halfen
0
POLYLINE
8
Halfen
62
7
66
1
10
0.0
20
0.0
30
0.0
70
1
0
VERTEX
8
Halfen
62
7
10
 151.25
20
-160
30
0
0
VERTEX
8
Halfen
62
7
10
 151.25
20
-62
30
0
0
VERTEX
8
Halfen
62
7
10
 140.75
20
-62
30
0
0
VERTEX
8
Halfen
62
7
10
 140.75
20
-160
30
0
0
SEQEND
8
Halfen
0
POLYLINE
8
Halfen
62
7
66
1
10
0.0
20
0.0
30
0.0
70
1
0
VERTEX
8
Halfen
62
7
10
 152
20
-62
30
0
0
VERTEX
8
Halfen
62
7
10
 152
20
-60
30
0
0
VERTEX
8
Halfen
62
7
10
 140
20
-60
30
0
0
VERTEX
8
Halfen
62
7
10
 140
20
-62
30
0
0
SEQEND
8
Halfen
0
POLYLINE
8
Halfen
62
7
66
1
10
0.0
20
0.0
30
0.0
70
1
0
VERTEX
8
Halfen
62
7
10
 151.25
20
-60
30
0
0
VERTEX
8
Halfen
62
7
10
 151.25
20
 60
30
0
0
VERTEX
8
Halfen
62
7
10
 140.75
20
 60
30
0
0
VERTEX
8
Halfen
62
7
10
 140.75
20
-60
30
0
0
SEQEND
8
Halfen
0
POLYLINE
8
Halfen
62
7
66
1
10
0.0
20
0.0
30
0.0
70
1
0
VERTEX
8
Halfen
62
7
10
 152
20
 60
30
0
0
VERTEX
8
Halfen
62
7
10
 152
20
 62
30
0
0
VERTEX
8
Halfen
62
7
10
 140
20
 62
30
0
0
VERTEX
8
Halfen
62
7
10
 140
20
 60
30
0
0
SEQEND
8
Halfen
0
POLYLINE
8
Halfen
62
7
66
1
10
0.0
20
0.0
30
0.0
70
1
0
VERTEX
8
Halfen
62
7
10
 151.25
20
 62
30
0
0
VERTEX
8
Halfen
62
7
10
 151.25
20
 160
30
0
0
VERTEX
8
Halfen
62
7
10
 140.75
20
 160
30
0
0
VERTEX
8
Halfen
62
7
10
 140.75
20
 62
30
0
0
SEQEND
8
Halfen
0
POLYLINE
8
Halfen
62
7
66
1
10
0.0
20
0.0
30
0.0
70
1
0
VERTEX
8
Halfen
62
7
10
 152
20
 160
30
0
0
VERTEX
8
Halfen
62
7
10
 152
20
 775
30
0
0
VERTEX
8
Halfen
62
7
10
 140
20
 775
30
0
0
VERTEX
8
Halfen
62
7
10
 140
20
 160
30
0
0
SEQEND
8
Halfen
0
POLYLINE
8
Halfen
62
7
66
1
10
0.0
20
0.0
30
0.0
70
1
0
VERTEX
8
Halfen
62
7
10
 416
20
-775
30
0
0
VERTEX
8
Halfen
62
7
10
 416
20
-160
30
0
0
VERTEX
8
Halfen
62
7
10
 404
20
-160
30
0
0
VERTEX
8
Halfen
62
7
10
 404
20
-775
30
0
0
SEQEND
8
Halfen
0
POLYLINE
8
Halfen
62
7
66
1
10
0.0
20
0.0
30
0.0
70
1
0
VERTEX
8
Halfen
62
7
10
 415.25
20
-160
30
0
0
VERTEX
8
Halfen
62
7
10
 415.25
20
-62
30
0
0
VERTEX
8
Halfen
62
7
10
 404.75
20
-62
30
0
0
VERTEX
8
Halfen
62
7
10
 404.75
20
-160
30
0
0
SEQEND
8
Halfen
0
POLYLINE
8
Halfen
62
7
66
1
10
0.0
20
0.0
30
0.0
70
1
0
VERTEX
8
Halfen
62
7
10
 416
20
-62
30
0
0
VERTEX
8
Halfen
62
7
10
 416
20
-60
30
0
0
VERTEX
8
Halfen
62
7
10
 404
20
-60
30
0
0
VERTEX
8
Halfen
62
7
10
 404
20
-62
30
0
0
SEQEND
8
Halfen
0
POLYLINE
8
Halfen
62
7
66
1
10
0.0
20
0.0
30
0.0
70
1
0
VERTEX
8
Halfen
62
7
10
 415.25
20
-60
30
0
0
VERTEX
8
Halfen
62
7
10
 415.25
20
 60
30
0
0
VERTEX
8
Halfen
62
7
10
 404.75
20
 60
30
0
0
VERTEX
8
Halfen
62
7
10
 404.75
20
-60
30
0
0
SEQEND
8
Halfen
0
POLYLINE
8
Halfen
62
7
66
1
10
0.0
20
0.0
30
0.0
70
1
0
VERTEX
8
Halfen
62
7
10
 416
20
 60
30
0
0
VERTEX
8
Halfen
62
7
10
 416
20
 62
30
0
0
VERTEX
8
Halfen
62
7
10
 404
20
 62
30
0
0
VERTEX
8
Halfen
62
7
10
 404
20
 60
30
0
0
SEQEND
8
Halfen
0
POLYLINE
8
Halfen
62
7
66
1
10
0.0
20
0.0
30
0.0
70
1
0
VERTEX
8
Halfen
62
7
10
 415.25
20
 62
30
0
0
VERTEX
8
Halfen
62
7
10
 415.25
20
 160
30
0
0
VERTEX
8
Halfen
62
7
10
 404.75
20
 160
30
0
0
VERTEX
8
Halfen
62
7
10
 404.75
20
 62
30
0
0
SEQEND
8
Halfen
0
POLYLINE
8
Halfen
62
7
66
1
10
0.0
20
0.0
30
0.0
70
1
0
VERTEX
8
Halfen
62
7
10
 416
20
 160
30
0
0
VERTEX
8
Halfen
62
7
10
 416
20
 775
30
0
0
VERTEX
8
Halfen
62
7
10
 404
20
 775
30
0
0
VERTEX
8
Halfen
62
7
10
 404
20
 160
30
0
0
SEQEND
8
Halfen
0
POLYLINE
8
Halfen
62
7
66
1
10
0.0
20
0.0
30
0.0
70
1
0
VERTEX
8
Halfen
62
7
10
 98
20
-819.108
30
0
0
VERTEX
8
Halfen
62
7
10
 98
20
 163.766
30
0
0
VERTEX
8
Halfen
62
7
10
 86
20
 163.766
30
0
0
VERTEX
8
Halfen
62
7
10
 86
20
-819.108
30
0
0
SEQEND
8
Halfen
0
POLYLINE
8
Halfen
62
7
66
1
10
0.0
20
0.0
30
0.0
70
1
0
VERTEX
8
Halfen
62
7
10
 98
20
 163.766
30
0
0
VERTEX
8
Halfen
62
7
10
 98
20
 824.766
30
0
0
VERTEX
8
Halfen
62
7
10
 86
20
 824.766
30
0
0
VERTEX
8
Halfen
62
7
10
 86
20
 163.766
30
0
0
SEQEND
8
Halfen
0
POLYLINE
8
Halfen
62
7
66
1
10
0.0
20
0.0
30
0.0
70
1
0
VERTEX
8
Halfen
62
7
10
 110
20
-824.767
30
0
0
VERTEX
8
Halfen
62
7
10
 110
20
 158.108
30
0
0
VERTEX
8
Halfen
62
7
10
 98
20
 158.108
30
0
0
VERTEX
8
Halfen
62
7
10
 98
20
-824.767
30
0
0
SEQEND
8
Halfen
0
POLYLINE
8
Halfen
62
7
66
1
10
0.0
20
0.0
30
0.0
70
1
0
VERTEX
8
Halfen
62
7
10
 110
20
 158.108
30
0
0
VERTEX
8
Halfen
62
7
10
 110
20
 819.108
30
0
0
VERTEX
8
Halfen
62
7
10
 98
20
 819.108
30
0
0
VERTEX
8
Halfen
62
7
10
 98
20
 158.108
30
0
0
SEQEND
8
Halfen
0
POLYLINE
8
Halfen
62
7
66
1
10
0.0
20
0.0
30
0.0
70
1
0
VERTEX
8
Halfen
62
7
10
 362
20
-819.108
30
0
0
VERTEX
8
Halfen
62
7
10
 362
20
 163.766
30
0
0
VERTEX
8
Halfen
62
7
10
 350
20
 163.766
30
0
0
VERTEX
8
Halfen
62
7
10
 350
20
-819.108
30
0
0
SEQEND
8
Halfen
0
POLYLINE
8
Halfen
62
7
66
1
10
0.0
20
0.0
30
0.0
70
1
0
VERTEX
8
Halfen
62
7
10
 362
20
 163.766
30
0
0
VERTEX
8
Halfen
62
7
10
 362
20
 824.766
30
0
0
VERTEX
8
Halfen
62
7
10
 350
20
 824.766
30
0
0
VERTEX
8
Halfen
62
7
10
 350
20
 163.766
30
0
0
SEQEND
8
Halfen
0
POLYLINE
8
Halfen
62
7
66
1
10
0.0
20
0.0
30
0.0
70
1
0
VERTEX
8
Halfen
62
7
10
 374
20
-824.767
30
0
0
VERTEX
8
Halfen
62
7
10
 374
20
 158.108
30
0
0
VERTEX
8
Halfen
62
7
10
 362
20
 158.108
30
0
0
VERTEX
8
Halfen
62
7
10
 362
20
-824.767
30
0
0
SEQEND
8
Halfen
0
POLYLINE
8
Halfen
62
7
66
1
10
0.0
20
0.0
30
0.0
70
1
0
VERTEX
8
Halfen
62
7
10
 374
20
 158.108
30
0
0
VERTEX
8
Halfen
62
7
10
 374
20
 819.108
30
0
0
VERTEX
8
Halfen
62
7
10
 362
20
 819.108
30
0
0
VERTEX
8
Halfen
62
7
10
 362
20
 158.108
30
0
0
SEQEND
8
Halfen
0
POLYLINE
8
Halfen
62
7
66
1
10
0.0
20
0.0
30
0.0
70
1
0
VERTEX
8
Halfen
62
7
10
 1010
20
-60
30
0
0
VERTEX
8
Halfen
62
7
10
 1010
20
 60
30
0
0
VERTEX
8
Halfen
62
7
10
 996.5
20
 73.5
30
0
0
VERTEX
8
Halfen
62
7
10
 996.5
20
 60
30
0
0
VERTEX
8
Halfen
62
7
10
 750
20
 60
30
0
0
VERTEX
8
Halfen
62
7
10
 750
20
-60
30
0
0
VERTEX
8
Halfen
62
7
10
 996.5
20
-60
30
0
0
VERTEX
8
Halfen
62
7
10
 996.5
20
-73.5
30
0
0
SEQEND
8
Halfen
0
POLYLINE
8
Halfen
62
7
66
1
10
0.0
20
0.0
30
0.0
70
1
0
VERTEX
8
Halfen
62
7
10
 750
20
-60
30
0
0
VERTEX
8
Halfen
62
7
10
 750
20
 60
30
0
0
VERTEX
8
Halfen
62
7
10
 713.5
20
 60
30
0
0
VERTEX
8
Halfen
62
7
10
 713.5
20
 73.5
30
0
0
VERTEX
8
Halfen
62
7
10
 700
20
 60
30
0
0
VERTEX
8
Halfen
62
7
10
 700
20
-60
30
0
0
VERTEX
8
Halfen
62
7
10
 713.5
20
-73.5
30
0
0
VERTEX
8
Halfen
62
7
10
 713.5
20
-60
30
0
0
SEQEND
8
Halfen
0
POLYLINE
8
Halfen
62
7
66
1
10
0.0
20
0.0
30
0.0
70
1
0
VERTEX
8
Halfen
62
7
10
 1007.5
20
-58.75
30
0
0
VERTEX
8
Halfen
62
7
10
 1007.5
20
 58.75
30
0
0
VERTEX
8
Halfen
62
7
10
 999
20
 67.25
30
0
0
VERTEX
8
Halfen
62
7
10
 999
20
 58
30
0
0
VERTEX
8
Halfen
62
7
10
 752
20
 58
30
0
0
VERTEX
8
Halfen
62
7
10
 752
20
-58
30
0
0
VERTEX
8
Halfen
62
7
10
 999
20
-58
30
0
0
VERTEX
8
Halfen
62
7
10
 999
20
-67.25
30
0
0
SEQEND
8
Halfen
0
POLYLINE
8
Halfen
62
7
66
1
10
0.0
20
0.0
30
0.0
70
1
0
VERTEX
8
Halfen
62
7
10
 748
20
-58
30
0
0
VERTEX
8
Halfen
62
7
10
 748
20
 58
30
0
0
VERTEX
8
Halfen
62
7
10
 711
20
 58
30
0
0
VERTEX
8
Halfen
62
7
10
 711
20
 67.25
30
0
0
VERTEX
8
Halfen
62
7
10
 702.5
20
 58.75
30
0
0
VERTEX
8
Halfen
62
7
10
 702.5
20
-58.75
30
0
0
VERTEX
8
Halfen
62
7
10
 711
20
-67.25
30
0
0
VERTEX
8
Halfen
62
7
10
 711
20
-58
30
0
0
SEQEND
8
Halfen
0
POLYLINE
8
Halfen
62
7
66
1
10
0.0
20
0.0
30
0.0
70
1
0
VERTEX
8
Halfen
62
7
10
 742
20
-775
30
0
0
VERTEX
8
Halfen
62
7
10
 742
20
-160
30
0
0
VERTEX
8
Halfen
62
7
10
 730
20
-160
30
0
0
VERTEX
8
Halfen
62
7
10
 730
20
-775
30
0
0
SEQEND
8
Halfen
0
POLYLINE
8
Halfen
62
7
66
1
10
0.0
20
0.0
30
0.0
70
1
0
VERTEX
8
Halfen
62
7
10
 741.25
20
-160
30
0
0
VERTEX
8
Halfen
62
7
10
 741.25
20
-62
30
0
0
VERTEX
8
Halfen
62
7
10
 730.75
20
-62
30
0
0
VERTEX
8
Halfen
62
7
10
 730.75
20
-160
30
0
0
SEQEND
8
Halfen
0
POLYLINE
8
Halfen
62
7
66
1
10
0.0
20
0.0
30
0.0
70
1
0
VERTEX
8
Halfen
62
7
10
 742
20
-62
30
0
0
VERTEX
8
Halfen
62
7
10
 742
20
-60
30
0
0
VERTEX
8
Halfen
62
7
10
 730
20
-60
30
0
0
VERTEX
8
Halfen
62
7
10
 730
20
-62
30
0
0
SEQEND
8
Halfen
0
POLYLINE
8
Halfen
62
7
66
1
10
0.0
20
0.0
30
0.0
70
1
0
VERTEX
8
Halfen
62
7
10
 741.25
20
-60
30
0
0
VERTEX
8
Halfen
62
7
10
 741.25
20
 60
30
0
0
VERTEX
8
Halfen
62
7
10
 730.75
20
 60
30
0
0
VERTEX
8
Halfen
62
7
10
 730.75
20
-60
30
0
0
SEQEND
8
Halfen
0
POLYLINE
8
Halfen
62
7
66
1
10
0.0
20
0.0
30
0.0
70
1
0
VERTEX
8
Halfen
62
7
10
 742
20
 60
30
0
0
VERTEX
8
Halfen
62
7
10
 742
20
 62
30
0
0
VERTEX
8
Halfen
62
7
10
 730
20
 62
30
0
0
VERTEX
8
Halfen
62
7
10
 730
20
 60
30
0
0
SEQEND
8
Halfen
0
POLYLINE
8
Halfen
62
7
66
1
10
0.0
20
0.0
30
0.0
70
1
0
VERTEX
8
Halfen
62
7
10
 741.25
20
 62
30
0
0
VERTEX
8
Halfen
62
7
10
 741.25
20
 160
30
0
0
VERTEX
8
Halfen
62
7
10
 730.75
20
 160
30
0
0
VERTEX
8
Halfen
62
7
10
 730.75
20
 62
30
0
0
SEQEND
8
Halfen
0
POLYLINE
8
Halfen
62
7
66
1
10
0.0
20
0.0
30
0.0
70
1
0
VERTEX
8
Halfen
62
7
10
 742
20
 160
30
0
0
VERTEX
8
Halfen
62
7
10
 742
20
 775
30
0
0
VERTEX
8
Halfen
62
7
10
 730
20
 775
30
0
0
VERTEX
8
Halfen
62
7
10
 730
20
 160
30
0
0
SEQEND
8
Halfen
0
POLYLINE
8
Halfen
62
7
66
1
10
0.0
20
0.0
30
0.0
70
1
0
VERTEX
8
Halfen
62
7
10
 980
20
-775
30
0
0
VERTEX
8
Halfen
62
7
10
 980
20
-160
30
0
0
VERTEX
8
Halfen
62
7
10
 968
20
-160
30
0
0
VERTEX
8
Halfen
62
7
10
 968
20
-775
30
0
0
SEQEND
8
Halfen
0
POLYLINE
8
Halfen
62
7
66
1
10
0.0
20
0.0
30
0.0
70
1
0
VERTEX
8
Halfen
62
7
10
 979.25
20
-160
30
0
0
VERTEX
8
Halfen
62
7
10
 979.25
20
-62
30
0
0
VERTEX
8
Halfen
62
7
10
 968.75
20
-62
30
0
0
VERTEX
8
Halfen
62
7
10
 968.75
20
-160
30
0
0
SEQEND
8
Halfen
0
POLYLINE
8
Halfen
62
7
66
1
10
0.0
20
0.0
30
0.0
70
1
0
VERTEX
8
Halfen
62
7
10
 980
20
-62
30
0
0
VERTEX
8
Halfen
62
7
10
 980
20
-60
30
0
0
VERTEX
8
Halfen
62
7
10
 968
20
-60
30
0
0
VERTEX
8
Halfen
62
7
10
 968
20
-62
30
0
0
SEQEND
8
Halfen
0
POLYLINE
8
Halfen
62
7
66
1
10
0.0
20
0.0
30
0.0
70
1
0
VERTEX
8
Halfen
62
7
10
 979.25
20
-60
30
0
0
VERTEX
8
Halfen
62
7
10
 979.25
20
 60
30
0
0
VERTEX
8
Halfen
62
7
10
 968.75
20
 60
30
0
0
VERTEX
8
Halfen
62
7
10
 968.75
20
-60
30
0
0
SEQEND
8
Halfen
0
POLYLINE
8
Halfen
62
7
66
1
10
0.0
20
0.0
30
0.0
70
1
0
VERTEX
8
Halfen
62
7
10
 980
20
 60
30
0
0
VERTEX
8
Halfen
62
7
10
 980
20
 62
30
0
0
VERTEX
8
Halfen
62
7
10
 968
20
 62
30
0
0
VERTEX
8
Halfen
62
7
10
 968
20
 60
30
0
0
SEQEND
8
Halfen
0
POLYLINE
8
Halfen
62
7
66
1
10
0.0
20
0.0
30
0.0
70
1
0
VERTEX
8
Halfen
62
7
10
 979.25
20
 62
30
0
0
VERTEX
8
Halfen
62
7
10
 979.25
20
 160
30
0
0
VERTEX
8
Halfen
62
7
10
 968.75
20
 160
30
0
0
VERTEX
8
Halfen
62
7
10
 968.75
20
 62
30
0
0
SEQEND
8
Halfen
0
POLYLINE
8
Halfen
62
7
66
1
10
0.0
20
0.0
30
0.0
70
1
0
VERTEX
8
Halfen
62
7
10
 980
20
 160
30
0
0
VERTEX
8
Halfen
62
7
10
 980
20
 775
30
0
0
VERTEX
8
Halfen
62
7
10
 968
20
 775
30
0
0
VERTEX
8
Halfen
62
7
10
 968
20
 160
30
0
0
SEQEND
8
Halfen
0
POLYLINE
8
Halfen
62
7
66
1
10
0.0
20
0.0
30
0.0
70
1
0
VERTEX
8
Halfen
62
7
10
 980
20
-819.108
30
0
0
VERTEX
8
Halfen
62
7
10
 980
20
-104.608
30
0
0
VERTEX
8
Halfen
62
7
10
 979.359
20
-96.789
30
0
0
VERTEX
8
Halfen
62
7
10
 977.453
20
-89.179
30
0
0
VERTEX
8
Halfen
62
7
10
 974.332
20
-81.981
30
0
0
VERTEX
8
Halfen
62
7
10
 970.081
20
-75.388
30
0
0
VERTEX
8
Halfen
62
7
10
 844.439
20
 88.352
30
0
0
VERTEX
8
Halfen
62
7
10
 841.251
20
 93.297
30
0
0
VERTEX
8
Halfen
62
7
10
 838.911
20
 98.695
30
0
0
VERTEX
8
Halfen
62
7
10
 837.481
20
 104.403
30
0
0
VERTEX
8
Halfen
62
7
10
 837
20
 110.267
30
0
0
VERTEX
8
Halfen
62
7
10
 837
20
 163.766
30
0
0
VERTEX
8
Halfen
62
7
10
 825
20
 163.766
30
0
0
VERTEX
8
Halfen
62
7
10
 825
20
 110.267
30
0
0
VERTEX
8
Halfen
62
7
10
 825.641
20
 102.448
30
0
0
VERTEX
8
Halfen
62
7
10
 827.547
20
 94.838
30
0
0
VERTEX
8
Halfen
62
7
10
 830.668
20
 87.64
30
0
0
VERTEX
8
Halfen
62
7
10
 834.919
20
 81.046
30
0
0
VERTEX
8
Halfen
62
7
10
 960.561
20
-82.693
30
0
0
VERTEX
8
Halfen
62
7
10
 963.749
20
-87.638
30
0
0
VERTEX
8
Halfen
62
7
10
 966.089
20
-93.037
30
0
0
VERTEX
8
Halfen
62
7
10
 967.519
20
-98.744
30
0
0
VERTEX
8
Halfen
62
7
10
 968
20
-104.608
30
0
0
VERTEX
8
Halfen
62
7
10
 968
20
-819.108
30
0
0
SEQEND
8
Halfen
0
POLYLINE
8
Halfen
62
7
66
1
10
0.0
20
0.0
30
0.0
70
1
0
VERTEX
8
Halfen
62
7
10
 837
20
 163.766
30
0
0
VERTEX
8
Halfen
62
7
10
 837
20
 824.766
30
0
0
VERTEX
8
Halfen
62
7
10
 825
20
 824.766
30
0
0
VERTEX
8
Halfen
62
7
10
 825
20
 163.766
30
0
0
SEQEND
8
Halfen
0
POLYLINE
8
Halfen
62
7
66
1
10
0.0
20
0.0
30
0.0
70
1
0
VERTEX
8
Halfen
62
7
10
 825
20
-824.767
30
0
0
VERTEX
8
Halfen
62
7
10
 825
20
-110.267
30
0
0
VERTEX
8
Halfen
62
7
10
 825.641
20
-102.448
30
0
0
VERTEX
8
Halfen
62
7
10
 827.547
20
-94.838
30
0
0
VERTEX
8
Halfen
62
7
10
 830.668
20
-87.64
30
0
0
VERTEX
8
Halfen
62
7
10
 834.919
20
-81.046
30
0
0
VERTEX
8
Halfen
62
7
10
 960.561
20
 82.693
30
0
0
VERTEX
8
Halfen
62
7
10
 963.749
20
 87.638
30
0
0
VERTEX
8
Halfen
62
7
10
 966.089
20
 93.037
30
0
0
VERTEX
8
Halfen
62
7
10
 967.519
20
 98.744
30
0
0
VERTEX
8
Halfen
62
7
10
 968
20
 104.608
30
0
0
VERTEX
8
Halfen
62
7
10
 968
20
 158.108
30
0
0
VERTEX
8
Halfen
62
7
10
 980
20
 158.108
30
0
0
VERTEX
8
Halfen
62
7
10
 980
20
 104.608
30
0
0
VERTEX
8
Halfen
62
7
10
 979.359
20
 96.789
30
0
0
VERTEX
8
Halfen
62
7
10
 977.453
20
 89.179
30
0
0
VERTEX
8
Halfen
62
7
10
 974.332
20
 81.981
30
0
0
VERTEX
8
Halfen
62
7
10
 970.081
20
 75.388
30
0
0
VERTEX
8
Halfen
62
7
10
 844.439
20
-88.352
30
0
0
VERTEX
8
Halfen
62
7
10
 841.251
20
-93.297
30
0
0
VERTEX
8
Halfen
62
7
10
 838.911
20
-98.695
30
0
0
VERTEX
8
Halfen
62
7
10
 837.481
20
-104.403
30
0
0
VERTEX
8
Halfen
62
7
10
 837
20
-110.267
30
0
0
VERTEX
8
Halfen
62
7
10
 837
20
-824.767
30
0
0
SEQEND
8
Halfen
0
POLYLINE
8
Halfen
62
7
66
1
10
0.0
20
0.0
30
0.0
70
1
0
VERTEX
8
Halfen
62
7
10
 968
20
 158.108
30
0
0
VERTEX
8
Halfen
62
7
10
 968
20
 819.108
30
0
0
VERTEX
8
Halfen
62
7
10
 980
20
 819.108
30
0
0
VERTEX
8
Halfen
62
7
10
 980
20
 158.108
30
0
0
SEQEND
8
Halfen
0
ENDSEC
0
EOF
