0
SECTION
2
HEADER
9
$EXTMIN
10
 0
20
 100
30
0.0
9
$EXTMAX
10
 0
20
 100
30
0.0
9
$LIMMIN
10
 100
20
 0
9
$LIMMAX
10
 0
20
 100
9
$PSLTSCALE
70
1
0
ENDSEC
0
SECTION
2
TABLES
0
TABLE
2
LAYER
70
2
0
LAYER
2
0
70
0
62
7
6
CONTINUOUS
0
LAYER
2
Halfen
70
0
62
7
6
CONTINUOUS
0
ENDTAB
0
ENDSEC
0
SECTION
2
ENTITIES
0
POLYLINE
8
Halfen
62
7
66
1
10
0.0
20
0.0
30
0.0
70
1
0
VERTEX
8
Halfen
62
7
10
 0
20
-73.5
30
0
0
VERTEX
8
Halfen
62
7
10
 500
20
-73.5
30
0
0
VERTEX
8
Halfen
62
7
10
 500
20
 73.5
30
0
0
VERTEX
8
Halfen
62
7
10
 0
20
 73.5
30
0
0
SEQEND
8
Halfen
0
POLYLINE
8
Halfen
62
7
66
1
10
0.0
20
0.0
30
0.0
70
1
0
VERTEX
8
Halfen
62
7
10
 0
20
-60
30
0
0
VERTEX
8
Halfen
62
7
10
 500
20
-60
30
0
0
VERTEX
8
Halfen
62
7
10
 500
20
 60
30
0
0
VERTEX
8
Halfen
62
7
10
 0
20
 60
30
0
0
SEQEND
8
Halfen
0
POLYLINE
8
Halfen
62
7
66
1
10
0.0
20
0.0
30
0.0
70
1
0
VERTEX
8
Halfen
62
7
10
 20
20
-32.5
30
0
0
VERTEX
8
Halfen
62
7
10
 37
20
-1.5
30
0
0
VERTEX
8
Halfen
62
7
10
 28
20
-1.5
30
0
0
VERTEX
8
Halfen
62
7
10
 28
20
 32.5
30
0
0
VERTEX
8
Halfen
62
7
10
 12
20
 32.5
30
0
0
VERTEX
8
Halfen
62
7
10
 12
20
-1.5
30
0
0
VERTEX
8
Halfen
62
7
10
 3
20
-1.5
30
0
0
SEQEND
8
Halfen
0
POLYLINE
8
Halfen
62
7
66
1
10
0.0
20
0.0
30
0.0
70
1
0
VERTEX
8
Halfen
62
7
10
 480
20
-32.5
30
0
0
VERTEX
8
Halfen
62
7
10
 497
20
-1.5
30
0
0
VERTEX
8
Halfen
62
7
10
 488
20
-1.5
30
0
0
VERTEX
8
Halfen
62
7
10
 488
20
 32.5
30
0
0
VERTEX
8
Halfen
62
7
10
 472
20
 32.5
30
0
0
VERTEX
8
Halfen
62
7
10
 472
20
-1.5
30
0
0
VERTEX
8
Halfen
62
7
10
 463
20
-1.5
30
0
0
SEQEND
8
Halfen
0
POLYLINE
8
Halfen
62
7
66
1
10
0.0
20
0.0
30
0.0
70
1
0
VERTEX
8
Halfen
62
7
10
 68
20
-775
30
0
0
VERTEX
8
Halfen
62
7
10
 68
20
-160
30
0
0
VERTEX
8
Halfen
62
7
10
 56
20
-160
30
0
0
VERTEX
8
Halfen
62
7
10
 56
20
-775
30
0
0
SEQEND
8
Halfen
0
POLYLINE
8
Halfen
62
7
66
1
10
0.0
20
0.0
30
0.0
70
1
0
VERTEX
8
Halfen
62
7
10
 67.25
20
-160
30
0
0
VERTEX
8
Halfen
62
7
10
 67.25
20
-62
30
0
0
VERTEX
8
Halfen
62
7
10
 56.75
20
-62
30
0
0
VERTEX
8
Halfen
62
7
10
 56.75
20
-160
30
0
0
SEQEND
8
Halfen
0
POLYLINE
8
Halfen
62
7
66
1
10
0.0
20
0.0
30
0.0
70
1
0
VERTEX
8
Halfen
62
7
10
 68
20
-62
30
0
0
VERTEX
8
Halfen
62
7
10
 68
20
-60
30
0
0
VERTEX
8
Halfen
62
7
10
 56
20
-60
30
0
0
VERTEX
8
Halfen
62
7
10
 56
20
-62
30
0
0
SEQEND
8
Halfen
0
POLYLINE
8
Halfen
62
7
66
1
10
0.0
20
0.0
30
0.0
70
1
0
VERTEX
8
Halfen
62
7
10
 67.25
20
-60
30
0
0
VERTEX
8
Halfen
62
7
10
 67.25
20
 60
30
0
0
VERTEX
8
Halfen
62
7
10
 56.75
20
 60
30
0
0
VERTEX
8
Halfen
62
7
10
 56.75
20
-60
30
0
0
SEQEND
8
Halfen
0
POLYLINE
8
Halfen
62
7
66
1
10
0.0
20
0.0
30
0.0
70
1
0
VERTEX
8
Halfen
62
7
10
 68
20
 60
30
0
0
VERTEX
8
Halfen
62
7
10
 68
20
 62
30
0
0
VERTEX
8
Halfen
62
7
10
 56
20
 62
30
0
0
VERTEX
8
Halfen
62
7
10
 56
20
 60
30
0
0
SEQEND
8
Halfen
0
POLYLINE
8
Halfen
62
7
66
1
10
0.0
20
0.0
30
0.0
70
1
0
VERTEX
8
Halfen
62
7
10
 67.25
20
 62
30
0
0
VERTEX
8
Halfen
62
7
10
 67.25
20
 160
30
0
0
VERTEX
8
Halfen
62
7
10
 56.75
20
 160
30
0
0
VERTEX
8
Halfen
62
7
10
 56.75
20
 62
30
0
0
SEQEND
8
Halfen
0
POLYLINE
8
Halfen
62
7
66
1
10
0.0
20
0.0
30
0.0
70
1
0
VERTEX
8
Halfen
62
7
10
 68
20
 160
30
0
0
VERTEX
8
Halfen
62
7
10
 68
20
 775
30
0
0
VERTEX
8
Halfen
62
7
10
 56
20
 775
30
0
0
VERTEX
8
Halfen
62
7
10
 56
20
 160
30
0
0
SEQEND
8
Halfen
0
POLYLINE
8
Halfen
62
7
66
1
10
0.0
20
0.0
30
0.0
70
1
0
VERTEX
8
Halfen
62
7
10
 152
20
-775
30
0
0
VERTEX
8
Halfen
62
7
10
 152
20
-160
30
0
0
VERTEX
8
Halfen
62
7
10
 140
20
-160
30
0
0
VERTEX
8
Halfen
62
7
10
 140
20
-775
30
0
0
SEQEND
8
Halfen
0
POLYLINE
8
Halfen
62
7
66
1
10
0.0
20
0.0
30
0.0
70
1
0
VERTEX
8
Halfen
62
7
10
 151.25
20
-160
30
0
0
VERTEX
8
Halfen
62
7
10
 151.25
20
-62
30
0
0
VERTEX
8
Halfen
62
7
10
 140.75
20
-62
30
0
0
VERTEX
8
Halfen
62
7
10
 140.75
20
-160
30
0
0
SEQEND
8
Halfen
0
POLYLINE
8
Halfen
62
7
66
1
10
0.0
20
0.0
30
0.0
70
1
0
VERTEX
8
Halfen
62
7
10
 152
20
-62
30
0
0
VERTEX
8
Halfen
62
7
10
 152
20
-60
30
0
0
VERTEX
8
Halfen
62
7
10
 140
20
-60
30
0
0
VERTEX
8
Halfen
62
7
10
 140
20
-62
30
0
0
SEQEND
8
Halfen
0
POLYLINE
8
Halfen
62
7
66
1
10
0.0
20
0.0
30
0.0
70
1
0
VERTEX
8
Halfen
62
7
10
 151.25
20
-60
30
0
0
VERTEX
8
Halfen
62
7
10
 151.25
20
 60
30
0
0
VERTEX
8
Halfen
62
7
10
 140.75
20
 60
30
0
0
VERTEX
8
Halfen
62
7
10
 140.75
20
-60
30
0
0
SEQEND
8
Halfen
0
POLYLINE
8
Halfen
62
7
66
1
10
0.0
20
0.0
30
0.0
70
1
0
VERTEX
8
Halfen
62
7
10
 152
20
 60
30
0
0
VERTEX
8
Halfen
62
7
10
 152
20
 62
30
0
0
VERTEX
8
Halfen
62
7
10
 140
20
 62
30
0
0
VERTEX
8
Halfen
62
7
10
 140
20
 60
30
0
0
SEQEND
8
Halfen
0
POLYLINE
8
Halfen
62
7
66
1
10
0.0
20
0.0
30
0.0
70
1
0
VERTEX
8
Halfen
62
7
10
 151.25
20
 62
30
0
0
VERTEX
8
Halfen
62
7
10
 151.25
20
 160
30
0
0
VERTEX
8
Halfen
62
7
10
 140.75
20
 160
30
0
0
VERTEX
8
Halfen
62
7
10
 140.75
20
 62
30
0
0
SEQEND
8
Halfen
0
POLYLINE
8
Halfen
62
7
66
1
10
0.0
20
0.0
30
0.0
70
1
0
VERTEX
8
Halfen
62
7
10
 152
20
 160
30
0
0
VERTEX
8
Halfen
62
7
10
 152
20
 775
30
0
0
VERTEX
8
Halfen
62
7
10
 140
20
 775
30
0
0
VERTEX
8
Halfen
62
7
10
 140
20
 160
30
0
0
SEQEND
8
Halfen
0
POLYLINE
8
Halfen
62
7
66
1
10
0.0
20
0.0
30
0.0
70
1
0
VERTEX
8
Halfen
62
7
10
 332
20
-775
30
0
0
VERTEX
8
Halfen
62
7
10
 332
20
-160
30
0
0
VERTEX
8
Halfen
62
7
10
 320
20
-160
30
0
0
VERTEX
8
Halfen
62
7
10
 320
20
-775
30
0
0
SEQEND
8
Halfen
0
POLYLINE
8
Halfen
62
7
66
1
10
0.0
20
0.0
30
0.0
70
1
0
VERTEX
8
Halfen
62
7
10
 331.25
20
-160
30
0
0
VERTEX
8
Halfen
62
7
10
 331.25
20
-62
30
0
0
VERTEX
8
Halfen
62
7
10
 320.75
20
-62
30
0
0
VERTEX
8
Halfen
62
7
10
 320.75
20
-160
30
0
0
SEQEND
8
Halfen
0
POLYLINE
8
Halfen
62
7
66
1
10
0.0
20
0.0
30
0.0
70
1
0
VERTEX
8
Halfen
62
7
10
 332
20
-62
30
0
0
VERTEX
8
Halfen
62
7
10
 332
20
-60
30
0
0
VERTEX
8
Halfen
62
7
10
 320
20
-60
30
0
0
VERTEX
8
Halfen
62
7
10
 320
20
-62
30
0
0
SEQEND
8
Halfen
0
POLYLINE
8
Halfen
62
7
66
1
10
0.0
20
0.0
30
0.0
70
1
0
VERTEX
8
Halfen
62
7
10
 331.25
20
-60
30
0
0
VERTEX
8
Halfen
62
7
10
 331.25
20
 60
30
0
0
VERTEX
8
Halfen
62
7
10
 320.75
20
 60
30
0
0
VERTEX
8
Halfen
62
7
10
 320.75
20
-60
30
0
0
SEQEND
8
Halfen
0
POLYLINE
8
Halfen
62
7
66
1
10
0.0
20
0.0
30
0.0
70
1
0
VERTEX
8
Halfen
62
7
10
 332
20
 60
30
0
0
VERTEX
8
Halfen
62
7
10
 332
20
 62
30
0
0
VERTEX
8
Halfen
62
7
10
 320
20
 62
30
0
0
VERTEX
8
Halfen
62
7
10
 320
20
 60
30
0
0
SEQEND
8
Halfen
0
POLYLINE
8
Halfen
62
7
66
1
10
0.0
20
0.0
30
0.0
70
1
0
VERTEX
8
Halfen
62
7
10
 331.25
20
 62
30
0
0
VERTEX
8
Halfen
62
7
10
 331.25
20
 160
30
0
0
VERTEX
8
Halfen
62
7
10
 320.75
20
 160
30
0
0
VERTEX
8
Halfen
62
7
10
 320.75
20
 62
30
0
0
SEQEND
8
Halfen
0
POLYLINE
8
Halfen
62
7
66
1
10
0.0
20
0.0
30
0.0
70
1
0
VERTEX
8
Halfen
62
7
10
 332
20
 160
30
0
0
VERTEX
8
Halfen
62
7
10
 332
20
 775
30
0
0
VERTEX
8
Halfen
62
7
10
 320
20
 775
30
0
0
VERTEX
8
Halfen
62
7
10
 320
20
 160
30
0
0
SEQEND
8
Halfen
0
POLYLINE
8
Halfen
62
7
66
1
10
0.0
20
0.0
30
0.0
70
1
0
VERTEX
8
Halfen
62
7
10
 416
20
-775
30
0
0
VERTEX
8
Halfen
62
7
10
 416
20
-160
30
0
0
VERTEX
8
Halfen
62
7
10
 404
20
-160
30
0
0
VERTEX
8
Halfen
62
7
10
 404
20
-775
30
0
0
SEQEND
8
Halfen
0
POLYLINE
8
Halfen
62
7
66
1
10
0.0
20
0.0
30
0.0
70
1
0
VERTEX
8
Halfen
62
7
10
 415.25
20
-160
30
0
0
VERTEX
8
Halfen
62
7
10
 415.25
20
-62
30
0
0
VERTEX
8
Halfen
62
7
10
 404.75
20
-62
30
0
0
VERTEX
8
Halfen
62
7
10
 404.75
20
-160
30
0
0
SEQEND
8
Halfen
0
POLYLINE
8
Halfen
62
7
66
1
10
0.0
20
0.0
30
0.0
70
1
0
VERTEX
8
Halfen
62
7
10
 416
20
-62
30
0
0
VERTEX
8
Halfen
62
7
10
 416
20
-60
30
0
0
VERTEX
8
Halfen
62
7
10
 404
20
-60
30
0
0
VERTEX
8
Halfen
62
7
10
 404
20
-62
30
0
0
SEQEND
8
Halfen
0
POLYLINE
8
Halfen
62
7
66
1
10
0.0
20
0.0
30
0.0
70
1
0
VERTEX
8
Halfen
62
7
10
 415.25
20
-60
30
0
0
VERTEX
8
Halfen
62
7
10
 415.25
20
 60
30
0
0
VERTEX
8
Halfen
62
7
10
 404.75
20
 60
30
0
0
VERTEX
8
Halfen
62
7
10
 404.75
20
-60
30
0
0
SEQEND
8
Halfen
0
POLYLINE
8
Halfen
62
7
66
1
10
0.0
20
0.0
30
0.0
70
1
0
VERTEX
8
Halfen
62
7
10
 416
20
 60
30
0
0
VERTEX
8
Halfen
62
7
10
 416
20
 62
30
0
0
VERTEX
8
Halfen
62
7
10
 404
20
 62
30
0
0
VERTEX
8
Halfen
62
7
10
 404
20
 60
30
0
0
SEQEND
8
Halfen
0
POLYLINE
8
Halfen
62
7
66
1
10
0.0
20
0.0
30
0.0
70
1
0
VERTEX
8
Halfen
62
7
10
 415.25
20
 62
30
0
0
VERTEX
8
Halfen
62
7
10
 415.25
20
 160
30
0
0
VERTEX
8
Halfen
62
7
10
 404.75
20
 160
30
0
0
VERTEX
8
Halfen
62
7
10
 404.75
20
 62
30
0
0
SEQEND
8
Halfen
0
POLYLINE
8
Halfen
62
7
66
1
10
0.0
20
0.0
30
0.0
70
1
0
VERTEX
8
Halfen
62
7
10
 416
20
 160
30
0
0
VERTEX
8
Halfen
62
7
10
 416
20
 775
30
0
0
VERTEX
8
Halfen
62
7
10
 404
20
 775
30
0
0
VERTEX
8
Halfen
62
7
10
 404
20
 160
30
0
0
SEQEND
8
Halfen
0
POLYLINE
8
Halfen
62
7
66
1
10
0.0
20
0.0
30
0.0
70
1
0
VERTEX
8
Halfen
62
7
10
 98
20
-579.398
30
0
0
VERTEX
8
Halfen
62
7
10
 98
20
 592.368
30
0
0
VERTEX
8
Halfen
62
7
10
 90
20
 592.368
30
0
0
VERTEX
8
Halfen
62
7
10
 90
20
-579.398
30
0
0
SEQEND
8
Halfen
0
POLYLINE
8
Halfen
62
7
66
1
10
0.0
20
0.0
30
0.0
70
1
0
VERTEX
8
Halfen
62
7
10
 106
20
-592.368
30
0
0
VERTEX
8
Halfen
62
7
10
 106
20
 579.398
30
0
0
VERTEX
8
Halfen
62
7
10
 98
20
 579.398
30
0
0
VERTEX
8
Halfen
62
7
10
 98
20
-592.368
30
0
0
SEQEND
8
Halfen
0
POLYLINE
8
Halfen
62
7
66
1
10
0.0
20
0.0
30
0.0
70
1
0
VERTEX
8
Halfen
62
7
10
 230
20
-579.398
30
0
0
VERTEX
8
Halfen
62
7
10
 230
20
 592.368
30
0
0
VERTEX
8
Halfen
62
7
10
 222
20
 592.368
30
0
0
VERTEX
8
Halfen
62
7
10
 222
20
-579.398
30
0
0
SEQEND
8
Halfen
0
POLYLINE
8
Halfen
62
7
66
1
10
0.0
20
0.0
30
0.0
70
1
0
VERTEX
8
Halfen
62
7
10
 238
20
-592.368
30
0
0
VERTEX
8
Halfen
62
7
10
 238
20
 579.398
30
0
0
VERTEX
8
Halfen
62
7
10
 230
20
 579.398
30
0
0
VERTEX
8
Halfen
62
7
10
 230
20
-592.368
30
0
0
SEQEND
8
Halfen
0
POLYLINE
8
Halfen
62
7
66
1
10
0.0
20
0.0
30
0.0
70
1
0
VERTEX
8
Halfen
62
7
10
 362
20
-579.398
30
0
0
VERTEX
8
Halfen
62
7
10
 362
20
 592.368
30
0
0
VERTEX
8
Halfen
62
7
10
 354
20
 592.368
30
0
0
VERTEX
8
Halfen
62
7
10
 354
20
-579.398
30
0
0
SEQEND
8
Halfen
0
POLYLINE
8
Halfen
62
7
66
1
10
0.0
20
0.0
30
0.0
70
1
0
VERTEX
8
Halfen
62
7
10
 370
20
-592.368
30
0
0
VERTEX
8
Halfen
62
7
10
 370
20
 579.398
30
0
0
VERTEX
8
Halfen
62
7
10
 362
20
 579.398
30
0
0
VERTEX
8
Halfen
62
7
10
 362
20
-592.368
30
0
0
SEQEND
8
Halfen
0
POLYLINE
8
Halfen
62
7
66
1
10
0.0
20
0.0
30
0.0
70
1
0
VERTEX
8
Halfen
62
7
10
 1010
20
-60
30
0
0
VERTEX
8
Halfen
62
7
10
 1010
20
 60
30
0
0
VERTEX
8
Halfen
62
7
10
 996.5
20
 73.5
30
0
0
VERTEX
8
Halfen
62
7
10
 996.5
20
 60
30
0
0
VERTEX
8
Halfen
62
7
10
 750
20
 60
30
0
0
VERTEX
8
Halfen
62
7
10
 750
20
-60
30
0
0
VERTEX
8
Halfen
62
7
10
 996.5
20
-60
30
0
0
VERTEX
8
Halfen
62
7
10
 996.5
20
-73.5
30
0
0
SEQEND
8
Halfen
0
POLYLINE
8
Halfen
62
7
66
1
10
0.0
20
0.0
30
0.0
70
1
0
VERTEX
8
Halfen
62
7
10
 750
20
-60
30
0
0
VERTEX
8
Halfen
62
7
10
 750
20
 60
30
0
0
VERTEX
8
Halfen
62
7
10
 713.5
20
 60
30
0
0
VERTEX
8
Halfen
62
7
10
 713.5
20
 73.5
30
0
0
VERTEX
8
Halfen
62
7
10
 700
20
 60
30
0
0
VERTEX
8
Halfen
62
7
10
 700
20
-60
30
0
0
VERTEX
8
Halfen
62
7
10
 713.5
20
-73.5
30
0
0
VERTEX
8
Halfen
62
7
10
 713.5
20
-60
30
0
0
SEQEND
8
Halfen
0
POLYLINE
8
Halfen
62
7
66
1
10
0.0
20
0.0
30
0.0
70
1
0
VERTEX
8
Halfen
62
7
10
 1007.5
20
-58.75
30
0
0
VERTEX
8
Halfen
62
7
10
 1007.5
20
 58.75
30
0
0
VERTEX
8
Halfen
62
7
10
 999
20
 67.25
30
0
0
VERTEX
8
Halfen
62
7
10
 999
20
 58
30
0
0
VERTEX
8
Halfen
62
7
10
 752
20
 58
30
0
0
VERTEX
8
Halfen
62
7
10
 752
20
-58
30
0
0
VERTEX
8
Halfen
62
7
10
 999
20
-58
30
0
0
VERTEX
8
Halfen
62
7
10
 999
20
-67.25
30
0
0
SEQEND
8
Halfen
0
POLYLINE
8
Halfen
62
7
66
1
10
0.0
20
0.0
30
0.0
70
1
0
VERTEX
8
Halfen
62
7
10
 748
20
-58
30
0
0
VERTEX
8
Halfen
62
7
10
 748
20
 58
30
0
0
VERTEX
8
Halfen
62
7
10
 711
20
 58
30
0
0
VERTEX
8
Halfen
62
7
10
 711
20
 67.25
30
0
0
VERTEX
8
Halfen
62
7
10
 702.5
20
 58.75
30
0
0
VERTEX
8
Halfen
62
7
10
 702.5
20
-58.75
30
0
0
VERTEX
8
Halfen
62
7
10
 711
20
-67.25
30
0
0
VERTEX
8
Halfen
62
7
10
 711
20
-58
30
0
0
SEQEND
8
Halfen
0
POLYLINE
8
Halfen
62
7
66
1
10
0.0
20
0.0
30
0.0
70
1
0
VERTEX
8
Halfen
62
7
10
 742
20
-775
30
0
0
VERTEX
8
Halfen
62
7
10
 742
20
-160
30
0
0
VERTEX
8
Halfen
62
7
10
 730
20
-160
30
0
0
VERTEX
8
Halfen
62
7
10
 730
20
-775
30
0
0
SEQEND
8
Halfen
0
POLYLINE
8
Halfen
62
7
66
1
10
0.0
20
0.0
30
0.0
70
1
0
VERTEX
8
Halfen
62
7
10
 741.25
20
-160
30
0
0
VERTEX
8
Halfen
62
7
10
 741.25
20
-62
30
0
0
VERTEX
8
Halfen
62
7
10
 730.75
20
-62
30
0
0
VERTEX
8
Halfen
62
7
10
 730.75
20
-160
30
0
0
SEQEND
8
Halfen
0
POLYLINE
8
Halfen
62
7
66
1
10
0.0
20
0.0
30
0.0
70
1
0
VERTEX
8
Halfen
62
7
10
 742
20
-62
30
0
0
VERTEX
8
Halfen
62
7
10
 742
20
-60
30
0
0
VERTEX
8
Halfen
62
7
10
 730
20
-60
30
0
0
VERTEX
8
Halfen
62
7
10
 730
20
-62
30
0
0
SEQEND
8
Halfen
0
POLYLINE
8
Halfen
62
7
66
1
10
0.0
20
0.0
30
0.0
70
1
0
VERTEX
8
Halfen
62
7
10
 741.25
20
-60
30
0
0
VERTEX
8
Halfen
62
7
10
 741.25
20
 60
30
0
0
VERTEX
8
Halfen
62
7
10
 730.75
20
 60
30
0
0
VERTEX
8
Halfen
62
7
10
 730.75
20
-60
30
0
0
SEQEND
8
Halfen
0
POLYLINE
8
Halfen
62
7
66
1
10
0.0
20
0.0
30
0.0
70
1
0
VERTEX
8
Halfen
62
7
10
 742
20
 60
30
0
0
VERTEX
8
Halfen
62
7
10
 742
20
 62
30
0
0
VERTEX
8
Halfen
62
7
10
 730
20
 62
30
0
0
VERTEX
8
Halfen
62
7
10
 730
20
 60
30
0
0
SEQEND
8
Halfen
0
POLYLINE
8
Halfen
62
7
66
1
10
0.0
20
0.0
30
0.0
70
1
0
VERTEX
8
Halfen
62
7
10
 741.25
20
 62
30
0
0
VERTEX
8
Halfen
62
7
10
 741.25
20
 160
30
0
0
VERTEX
8
Halfen
62
7
10
 730.75
20
 160
30
0
0
VERTEX
8
Halfen
62
7
10
 730.75
20
 62
30
0
0
SEQEND
8
Halfen
0
POLYLINE
8
Halfen
62
7
66
1
10
0.0
20
0.0
30
0.0
70
1
0
VERTEX
8
Halfen
62
7
10
 742
20
 160
30
0
0
VERTEX
8
Halfen
62
7
10
 742
20
 775
30
0
0
VERTEX
8
Halfen
62
7
10
 730
20
 775
30
0
0
VERTEX
8
Halfen
62
7
10
 730
20
 160
30
0
0
SEQEND
8
Halfen
0
POLYLINE
8
Halfen
62
7
66
1
10
0.0
20
0.0
30
0.0
70
1
0
VERTEX
8
Halfen
62
7
10
 980
20
-775
30
0
0
VERTEX
8
Halfen
62
7
10
 980
20
-160
30
0
0
VERTEX
8
Halfen
62
7
10
 968
20
-160
30
0
0
VERTEX
8
Halfen
62
7
10
 968
20
-775
30
0
0
SEQEND
8
Halfen
0
POLYLINE
8
Halfen
62
7
66
1
10
0.0
20
0.0
30
0.0
70
1
0
VERTEX
8
Halfen
62
7
10
 979.25
20
-160
30
0
0
VERTEX
8
Halfen
62
7
10
 979.25
20
-62
30
0
0
VERTEX
8
Halfen
62
7
10
 968.75
20
-62
30
0
0
VERTEX
8
Halfen
62
7
10
 968.75
20
-160
30
0
0
SEQEND
8
Halfen
0
POLYLINE
8
Halfen
62
7
66
1
10
0.0
20
0.0
30
0.0
70
1
0
VERTEX
8
Halfen
62
7
10
 980
20
-62
30
0
0
VERTEX
8
Halfen
62
7
10
 980
20
-60
30
0
0
VERTEX
8
Halfen
62
7
10
 968
20
-60
30
0
0
VERTEX
8
Halfen
62
7
10
 968
20
-62
30
0
0
SEQEND
8
Halfen
0
POLYLINE
8
Halfen
62
7
66
1
10
0.0
20
0.0
30
0.0
70
1
0
VERTEX
8
Halfen
62
7
10
 979.25
20
-60
30
0
0
VERTEX
8
Halfen
62
7
10
 979.25
20
 60
30
0
0
VERTEX
8
Halfen
62
7
10
 968.75
20
 60
30
0
0
VERTEX
8
Halfen
62
7
10
 968.75
20
-60
30
0
0
SEQEND
8
Halfen
0
POLYLINE
8
Halfen
62
7
66
1
10
0.0
20
0.0
30
0.0
70
1
0
VERTEX
8
Halfen
62
7
10
 980
20
 60
30
0
0
VERTEX
8
Halfen
62
7
10
 980
20
 62
30
0
0
VERTEX
8
Halfen
62
7
10
 968
20
 62
30
0
0
VERTEX
8
Halfen
62
7
10
 968
20
 60
30
0
0
SEQEND
8
Halfen
0
POLYLINE
8
Halfen
62
7
66
1
10
0.0
20
0.0
30
0.0
70
1
0
VERTEX
8
Halfen
62
7
10
 979.25
20
 62
30
0
0
VERTEX
8
Halfen
62
7
10
 979.25
20
 160
30
0
0
VERTEX
8
Halfen
62
7
10
 968.75
20
 160
30
0
0
VERTEX
8
Halfen
62
7
10
 968.75
20
 62
30
0
0
SEQEND
8
Halfen
0
POLYLINE
8
Halfen
62
7
66
1
10
0.0
20
0.0
30
0.0
70
1
0
VERTEX
8
Halfen
62
7
10
 980
20
 160
30
0
0
VERTEX
8
Halfen
62
7
10
 980
20
 775
30
0
0
VERTEX
8
Halfen
62
7
10
 968
20
 775
30
0
0
VERTEX
8
Halfen
62
7
10
 968
20
 160
30
0
0
SEQEND
8
Halfen
0
POLYLINE
8
Halfen
62
7
66
1
10
0.0
20
0.0
30
0.0
70
1
0
VERTEX
8
Halfen
62
7
10
 980
20
-579.398
30
0
0
VERTEX
8
Halfen
62
7
10
 980
20
-91.113
30
0
0
VERTEX
8
Halfen
62
7
10
 979.606
20
-86.107
30
0
0
VERTEX
8
Halfen
62
7
10
 978.434
20
-81.224
30
0
0
VERTEX
8
Halfen
62
7
10
 976.512
20
-76.585
30
0
0
VERTEX
8
Halfen
62
7
10
 973.889
20
-72.304
30
0
0
VERTEX
8
Halfen
62
7
10
 970.627
20
-68.485
30
0
0
VERTEX
8
Halfen
62
7
10
 815.029
20
 87.113
30
0
0
VERTEX
8
Halfen
62
7
10
 812.584
20
 89.976
30
0
0
VERTEX
8
Halfen
62
7
10
 810.616
20
 93.187
30
0
0
VERTEX
8
Halfen
62
7
10
 809.175
20
 96.667
30
0
0
VERTEX
8
Halfen
62
7
10
 808.295
20
 100.329
30
0
0
VERTEX
8
Halfen
62
7
10
 808
20
 104.083
30
0
0
VERTEX
8
Halfen
62
7
10
 808
20
 592.368
30
0
0
VERTEX
8
Halfen
62
7
10
 800
20
 592.368
30
0
0
VERTEX
8
Halfen
62
7
10
 800
20
 104.083
30
0
0
VERTEX
8
Halfen
62
7
10
 800.394
20
 99.077
30
0
0
VERTEX
8
Halfen
62
7
10
 801.566
20
 94.195
30
0
0
VERTEX
8
Halfen
62
7
10
 803.488
20
 89.556
30
0
0
VERTEX
8
Halfen
62
7
10
 806.111
20
 85.274
30
0
0
VERTEX
8
Halfen
62
7
10
 809.373
20
 81.456
30
0
0
VERTEX
8
Halfen
62
7
10
 964.971
20
-74.142
30
0
0
VERTEX
8
Halfen
62
7
10
 967.416
20
-77.006
30
0
0
VERTEX
8
Halfen
62
7
10
 969.384
20
-80.217
30
0
0
VERTEX
8
Halfen
62
7
10
 970.825
20
-83.696
30
0
0
VERTEX
8
Halfen
62
7
10
 971.705
20
-87.358
30
0
0
VERTEX
8
Halfen
62
7
10
 972
20
-91.113
30
0
0
VERTEX
8
Halfen
62
7
10
 972
20
-579.398
30
0
0
SEQEND
8
Halfen
0
POLYLINE
8
Halfen
62
7
66
1
10
0.0
20
0.0
30
0.0
70
1
0
VERTEX
8
Halfen
62
7
10
 800
20
-592.368
30
0
0
VERTEX
8
Halfen
62
7
10
 800
20
-104.083
30
0
0
VERTEX
8
Halfen
62
7
10
 800.394
20
-99.077
30
0
0
VERTEX
8
Halfen
62
7
10
 801.566
20
-94.195
30
0
0
VERTEX
8
Halfen
62
7
10
 803.488
20
-89.556
30
0
0
VERTEX
8
Halfen
62
7
10
 806.111
20
-85.274
30
0
0
VERTEX
8
Halfen
62
7
10
 809.373
20
-81.456
30
0
0
VERTEX
8
Halfen
62
7
10
 964.971
20
 74.142
30
0
0
VERTEX
8
Halfen
62
7
10
 967.416
20
 77.006
30
0
0
VERTEX
8
Halfen
62
7
10
 969.384
20
 80.217
30
0
0
VERTEX
8
Halfen
62
7
10
 970.825
20
 83.696
30
0
0
VERTEX
8
Halfen
62
7
10
 971.705
20
 87.358
30
0
0
VERTEX
8
Halfen
62
7
10
 972
20
 91.113
30
0
0
VERTEX
8
Halfen
62
7
10
 972
20
 579.398
30
0
0
VERTEX
8
Halfen
62
7
10
 980
20
 579.398
30
0
0
VERTEX
8
Halfen
62
7
10
 980
20
 91.113
30
0
0
VERTEX
8
Halfen
62
7
10
 979.606
20
 86.107
30
0
0
VERTEX
8
Halfen
62
7
10
 978.434
20
 81.224
30
0
0
VERTEX
8
Halfen
62
7
10
 976.512
20
 76.585
30
0
0
VERTEX
8
Halfen
62
7
10
 973.889
20
 72.304
30
0
0
VERTEX
8
Halfen
62
7
10
 970.627
20
 68.485
30
0
0
VERTEX
8
Halfen
62
7
10
 815.029
20
-87.113
30
0
0
VERTEX
8
Halfen
62
7
10
 812.584
20
-89.976
30
0
0
VERTEX
8
Halfen
62
7
10
 810.616
20
-93.187
30
0
0
VERTEX
8
Halfen
62
7
10
 809.175
20
-96.667
30
0
0
VERTEX
8
Halfen
62
7
10
 808.295
20
-100.329
30
0
0
VERTEX
8
Halfen
62
7
10
 808
20
-104.083
30
0
0
VERTEX
8
Halfen
62
7
10
 808
20
-592.368
30
0
0
SEQEND
8
Halfen
0
ENDSEC
0
EOF
