0
SECTION
2
HEADER
9
$EXTMIN
10
 0
20
 100
30
0.0
9
$EXTMAX
10
 0
20
 100
30
0.0
9
$LIMMIN
10
 100
20
 0
9
$LIMMAX
10
 0
20
 100
9
$PSLTSCALE
70
1
0
ENDSEC
0
SECTION
2
TABLES
0
TABLE
2
LAYER
70
2
0
LAYER
2
0
70
0
62
7
6
CONTINUOUS
0
LAYER
2
Halfen
70
0
62
7
6
CONTINUOUS
0
ENDTAB
0
ENDSEC
0
SECTION
2
ENTITIES
0
POLYLINE
8
Halfen
62
7
66
1
10
0.0
20
0.0
30
0.0
70
1
0
VERTEX
8
Halfen
62
7
10
 0
20
-73.5
30
0
0
VERTEX
8
Halfen
62
7
10
 1000
20
-73.5
30
0
0
VERTEX
8
Halfen
62
7
10
 1000
20
 73.5
30
0
0
VERTEX
8
Halfen
62
7
10
 0
20
 73.5
30
0
0
SEQEND
8
Halfen
0
POLYLINE
8
Halfen
62
7
66
1
10
0.0
20
0.0
30
0.0
70
1
0
VERTEX
8
Halfen
62
7
10
 0
20
-60
30
0
0
VERTEX
8
Halfen
62
7
10
 1000
20
-60
30
0
0
VERTEX
8
Halfen
62
7
10
 1000
20
 60
30
0
0
VERTEX
8
Halfen
62
7
10
 0
20
 60
30
0
0
SEQEND
8
Halfen
0
POLYLINE
8
Halfen
62
7
66
1
10
0.0
20
0.0
30
0.0
70
1
0
VERTEX
8
Halfen
62
7
10
 20
20
-32.5
30
0
0
VERTEX
8
Halfen
62
7
10
 37
20
-1.5
30
0
0
VERTEX
8
Halfen
62
7
10
 28
20
-1.5
30
0
0
VERTEX
8
Halfen
62
7
10
 28
20
 32.5
30
0
0
VERTEX
8
Halfen
62
7
10
 12
20
 32.5
30
0
0
VERTEX
8
Halfen
62
7
10
 12
20
-1.5
30
0
0
VERTEX
8
Halfen
62
7
10
 3
20
-1.5
30
0
0
SEQEND
8
Halfen
0
POLYLINE
8
Halfen
62
7
66
1
10
0.0
20
0.0
30
0.0
70
1
0
VERTEX
8
Halfen
62
7
10
 980
20
-32.5
30
0
0
VERTEX
8
Halfen
62
7
10
 997
20
-1.5
30
0
0
VERTEX
8
Halfen
62
7
10
 988
20
-1.5
30
0
0
VERTEX
8
Halfen
62
7
10
 988
20
 32.5
30
0
0
VERTEX
8
Halfen
62
7
10
 972
20
 32.5
30
0
0
VERTEX
8
Halfen
62
7
10
 972
20
-1.5
30
0
0
VERTEX
8
Halfen
62
7
10
 963
20
-1.5
30
0
0
SEQEND
8
Halfen
0
POLYLINE
8
Halfen
62
7
66
1
10
0.0
20
0.0
30
0.0
70
1
0
VERTEX
8
Halfen
62
7
10
 90
20
-815.455
30
0
0
VERTEX
8
Halfen
62
7
10
 90
20
 913.129
30
0
0
VERTEX
8
Halfen
62
7
10
 78
20
 913.129
30
0
0
VERTEX
8
Halfen
62
7
10
 78
20
-815.455
30
0
0
SEQEND
8
Halfen
0
POLYLINE
8
Halfen
62
7
66
1
10
0.0
20
0.0
30
0.0
70
1
0
VERTEX
8
Halfen
62
7
10
 162
20
-815.455
30
0
0
VERTEX
8
Halfen
62
7
10
 162
20
 913.129
30
0
0
VERTEX
8
Halfen
62
7
10
 150
20
 913.129
30
0
0
VERTEX
8
Halfen
62
7
10
 150
20
-815.455
30
0
0
SEQEND
8
Halfen
0
POLYLINE
8
Halfen
62
7
66
1
10
0.0
20
0.0
30
0.0
70
1
0
VERTEX
8
Halfen
62
7
10
 234
20
-815.455
30
0
0
VERTEX
8
Halfen
62
7
10
 234
20
 913.129
30
0
0
VERTEX
8
Halfen
62
7
10
 222
20
 913.129
30
0
0
VERTEX
8
Halfen
62
7
10
 222
20
-815.455
30
0
0
SEQEND
8
Halfen
0
POLYLINE
8
Halfen
62
7
66
1
10
0.0
20
0.0
30
0.0
70
1
0
VERTEX
8
Halfen
62
7
10
 290
20
-815.455
30
0
0
VERTEX
8
Halfen
62
7
10
 290
20
 913.129
30
0
0
VERTEX
8
Halfen
62
7
10
 278
20
 913.129
30
0
0
VERTEX
8
Halfen
62
7
10
 278
20
-815.455
30
0
0
SEQEND
8
Halfen
0
POLYLINE
8
Halfen
62
7
66
1
10
0.0
20
0.0
30
0.0
70
1
0
VERTEX
8
Halfen
62
7
10
 362
20
-815.455
30
0
0
VERTEX
8
Halfen
62
7
10
 362
20
 913.129
30
0
0
VERTEX
8
Halfen
62
7
10
 350
20
 913.129
30
0
0
VERTEX
8
Halfen
62
7
10
 350
20
-815.455
30
0
0
SEQEND
8
Halfen
0
POLYLINE
8
Halfen
62
7
66
1
10
0.0
20
0.0
30
0.0
70
1
0
VERTEX
8
Halfen
62
7
10
 434
20
-815.455
30
0
0
VERTEX
8
Halfen
62
7
10
 434
20
 913.129
30
0
0
VERTEX
8
Halfen
62
7
10
 422
20
 913.129
30
0
0
VERTEX
8
Halfen
62
7
10
 422
20
-815.455
30
0
0
SEQEND
8
Halfen
0
POLYLINE
8
Halfen
62
7
66
1
10
0.0
20
0.0
30
0.0
70
1
0
VERTEX
8
Halfen
62
7
10
 590
20
-815.455
30
0
0
VERTEX
8
Halfen
62
7
10
 590
20
 913.129
30
0
0
VERTEX
8
Halfen
62
7
10
 578
20
 913.129
30
0
0
VERTEX
8
Halfen
62
7
10
 578
20
-815.455
30
0
0
SEQEND
8
Halfen
0
POLYLINE
8
Halfen
62
7
66
1
10
0.0
20
0.0
30
0.0
70
1
0
VERTEX
8
Halfen
62
7
10
 662
20
-815.455
30
0
0
VERTEX
8
Halfen
62
7
10
 662
20
 913.129
30
0
0
VERTEX
8
Halfen
62
7
10
 650
20
 913.129
30
0
0
VERTEX
8
Halfen
62
7
10
 650
20
-815.455
30
0
0
SEQEND
8
Halfen
0
POLYLINE
8
Halfen
62
7
66
1
10
0.0
20
0.0
30
0.0
70
1
0
VERTEX
8
Halfen
62
7
10
 734
20
-815.455
30
0
0
VERTEX
8
Halfen
62
7
10
 734
20
 913.129
30
0
0
VERTEX
8
Halfen
62
7
10
 722
20
 913.129
30
0
0
VERTEX
8
Halfen
62
7
10
 722
20
-815.455
30
0
0
SEQEND
8
Halfen
0
POLYLINE
8
Halfen
62
7
66
1
10
0.0
20
0.0
30
0.0
70
1
0
VERTEX
8
Halfen
62
7
10
 790
20
-815.455
30
0
0
VERTEX
8
Halfen
62
7
10
 790
20
 913.129
30
0
0
VERTEX
8
Halfen
62
7
10
 778
20
 913.129
30
0
0
VERTEX
8
Halfen
62
7
10
 778
20
-815.455
30
0
0
SEQEND
8
Halfen
0
POLYLINE
8
Halfen
62
7
66
1
10
0.0
20
0.0
30
0.0
70
1
0
VERTEX
8
Halfen
62
7
10
 862
20
-815.455
30
0
0
VERTEX
8
Halfen
62
7
10
 862
20
 913.129
30
0
0
VERTEX
8
Halfen
62
7
10
 850
20
 913.129
30
0
0
VERTEX
8
Halfen
62
7
10
 850
20
-815.455
30
0
0
SEQEND
8
Halfen
0
POLYLINE
8
Halfen
62
7
66
1
10
0.0
20
0.0
30
0.0
70
1
0
VERTEX
8
Halfen
62
7
10
 934
20
-815.455
30
0
0
VERTEX
8
Halfen
62
7
10
 934
20
 913.129
30
0
0
VERTEX
8
Halfen
62
7
10
 922
20
 913.129
30
0
0
VERTEX
8
Halfen
62
7
10
 922
20
-815.455
30
0
0
SEQEND
8
Halfen
0
POLYLINE
8
Halfen
62
7
66
1
10
0.0
20
0.0
30
0.0
70
1
0
VERTEX
8
Halfen
62
7
10
 922
20
-815.455
30
0
0
VERTEX
8
Halfen
62
7
10
 922
20
 913.129
30
0
0
VERTEX
8
Halfen
62
7
10
 910
20
 913.129
30
0
0
VERTEX
8
Halfen
62
7
10
 910
20
-815.455
30
0
0
SEQEND
8
Halfen
0
POLYLINE
8
Halfen
62
7
66
1
10
0.0
20
0.0
30
0.0
70
1
0
VERTEX
8
Halfen
62
7
10
 850
20
-815.455
30
0
0
VERTEX
8
Halfen
62
7
10
 850
20
 913.129
30
0
0
VERTEX
8
Halfen
62
7
10
 838
20
 913.129
30
0
0
VERTEX
8
Halfen
62
7
10
 838
20
-815.455
30
0
0
SEQEND
8
Halfen
0
POLYLINE
8
Halfen
62
7
66
1
10
0.0
20
0.0
30
0.0
70
1
0
VERTEX
8
Halfen
62
7
10
 778
20
-815.455
30
0
0
VERTEX
8
Halfen
62
7
10
 778
20
 913.129
30
0
0
VERTEX
8
Halfen
62
7
10
 766
20
 913.129
30
0
0
VERTEX
8
Halfen
62
7
10
 766
20
-815.455
30
0
0
SEQEND
8
Halfen
0
POLYLINE
8
Halfen
62
7
66
1
10
0.0
20
0.0
30
0.0
70
1
0
VERTEX
8
Halfen
62
7
10
 722
20
-815.455
30
0
0
VERTEX
8
Halfen
62
7
10
 722
20
 913.129
30
0
0
VERTEX
8
Halfen
62
7
10
 710
20
 913.129
30
0
0
VERTEX
8
Halfen
62
7
10
 710
20
-815.455
30
0
0
SEQEND
8
Halfen
0
POLYLINE
8
Halfen
62
7
66
1
10
0.0
20
0.0
30
0.0
70
1
0
VERTEX
8
Halfen
62
7
10
 650
20
-815.455
30
0
0
VERTEX
8
Halfen
62
7
10
 650
20
 913.129
30
0
0
VERTEX
8
Halfen
62
7
10
 638
20
 913.129
30
0
0
VERTEX
8
Halfen
62
7
10
 638
20
-815.455
30
0
0
SEQEND
8
Halfen
0
POLYLINE
8
Halfen
62
7
66
1
10
0.0
20
0.0
30
0.0
70
1
0
VERTEX
8
Halfen
62
7
10
 578
20
-815.455
30
0
0
VERTEX
8
Halfen
62
7
10
 578
20
 913.129
30
0
0
VERTEX
8
Halfen
62
7
10
 566
20
 913.129
30
0
0
VERTEX
8
Halfen
62
7
10
 566
20
-815.455
30
0
0
SEQEND
8
Halfen
0
POLYLINE
8
Halfen
62
7
66
1
10
0.0
20
0.0
30
0.0
70
1
0
VERTEX
8
Halfen
62
7
10
 422
20
-815.455
30
0
0
VERTEX
8
Halfen
62
7
10
 422
20
 913.129
30
0
0
VERTEX
8
Halfen
62
7
10
 410
20
 913.129
30
0
0
VERTEX
8
Halfen
62
7
10
 410
20
-815.455
30
0
0
SEQEND
8
Halfen
0
POLYLINE
8
Halfen
62
7
66
1
10
0.0
20
0.0
30
0.0
70
1
0
VERTEX
8
Halfen
62
7
10
 350
20
-815.455
30
0
0
VERTEX
8
Halfen
62
7
10
 350
20
 913.129
30
0
0
VERTEX
8
Halfen
62
7
10
 338
20
 913.129
30
0
0
VERTEX
8
Halfen
62
7
10
 338
20
-815.455
30
0
0
SEQEND
8
Halfen
0
POLYLINE
8
Halfen
62
7
66
1
10
0.0
20
0.0
30
0.0
70
1
0
VERTEX
8
Halfen
62
7
10
 278
20
-815.455
30
0
0
VERTEX
8
Halfen
62
7
10
 278
20
 913.129
30
0
0
VERTEX
8
Halfen
62
7
10
 266
20
 913.129
30
0
0
VERTEX
8
Halfen
62
7
10
 266
20
-815.455
30
0
0
SEQEND
8
Halfen
0
POLYLINE
8
Halfen
62
7
66
1
10
0.0
20
0.0
30
0.0
70
1
0
VERTEX
8
Halfen
62
7
10
 222
20
-815.455
30
0
0
VERTEX
8
Halfen
62
7
10
 222
20
 913.129
30
0
0
VERTEX
8
Halfen
62
7
10
 210
20
 913.129
30
0
0
VERTEX
8
Halfen
62
7
10
 210
20
-815.455
30
0
0
SEQEND
8
Halfen
0
POLYLINE
8
Halfen
62
7
66
1
10
0.0
20
0.0
30
0.0
70
1
0
VERTEX
8
Halfen
62
7
10
 150
20
-815.455
30
0
0
VERTEX
8
Halfen
62
7
10
 150
20
 913.129
30
0
0
VERTEX
8
Halfen
62
7
10
 138
20
 913.129
30
0
0
VERTEX
8
Halfen
62
7
10
 138
20
-815.455
30
0
0
SEQEND
8
Halfen
0
POLYLINE
8
Halfen
62
7
66
1
10
0.0
20
0.0
30
0.0
70
1
0
VERTEX
8
Halfen
62
7
10
 78
20
-815.455
30
0
0
VERTEX
8
Halfen
62
7
10
 78
20
 913.129
30
0
0
VERTEX
8
Halfen
62
7
10
 66
20
 913.129
30
0
0
VERTEX
8
Halfen
62
7
10
 66
20
-815.455
30
0
0
SEQEND
8
Halfen
0
POLYLINE
8
Halfen
62
7
66
1
10
0.0
20
0.0
30
0.0
70
1
0
VERTEX
8
Halfen
62
7
10
 1510
20
-60
30
0
0
VERTEX
8
Halfen
62
7
10
 1510
20
 60
30
0
0
VERTEX
8
Halfen
62
7
10
 1496.5
20
 73.5
30
0
0
VERTEX
8
Halfen
62
7
10
 1496.5
20
 60
30
0
0
VERTEX
8
Halfen
62
7
10
 1250
20
 60
30
0
0
VERTEX
8
Halfen
62
7
10
 1250
20
-60
30
0
0
VERTEX
8
Halfen
62
7
10
 1496.5
20
-60
30
0
0
VERTEX
8
Halfen
62
7
10
 1496.5
20
-73.5
30
0
0
SEQEND
8
Halfen
0
POLYLINE
8
Halfen
62
7
66
1
10
0.0
20
0.0
30
0.0
70
1
0
VERTEX
8
Halfen
62
7
10
 1250
20
-60
30
0
0
VERTEX
8
Halfen
62
7
10
 1250
20
 60
30
0
0
VERTEX
8
Halfen
62
7
10
 1213.5
20
 60
30
0
0
VERTEX
8
Halfen
62
7
10
 1213.5
20
 73.5
30
0
0
VERTEX
8
Halfen
62
7
10
 1200
20
 60
30
0
0
VERTEX
8
Halfen
62
7
10
 1200
20
-60
30
0
0
VERTEX
8
Halfen
62
7
10
 1213.5
20
-73.5
30
0
0
VERTEX
8
Halfen
62
7
10
 1213.5
20
-60
30
0
0
SEQEND
8
Halfen
0
POLYLINE
8
Halfen
62
7
66
1
10
0.0
20
0.0
30
0.0
70
1
0
VERTEX
8
Halfen
62
7
10
 1507.5
20
-58.75
30
0
0
VERTEX
8
Halfen
62
7
10
 1507.5
20
 58.75
30
0
0
VERTEX
8
Halfen
62
7
10
 1499
20
 67.25
30
0
0
VERTEX
8
Halfen
62
7
10
 1499
20
 58
30
0
0
VERTEX
8
Halfen
62
7
10
 1252
20
 58
30
0
0
VERTEX
8
Halfen
62
7
10
 1252
20
-58
30
0
0
VERTEX
8
Halfen
62
7
10
 1499
20
-58
30
0
0
VERTEX
8
Halfen
62
7
10
 1499
20
-67.25
30
0
0
SEQEND
8
Halfen
0
POLYLINE
8
Halfen
62
7
66
1
10
0.0
20
0.0
30
0.0
70
1
0
VERTEX
8
Halfen
62
7
10
 1248
20
-58
30
0
0
VERTEX
8
Halfen
62
7
10
 1248
20
 58
30
0
0
VERTEX
8
Halfen
62
7
10
 1211
20
 58
30
0
0
VERTEX
8
Halfen
62
7
10
 1211
20
 67.25
30
0
0
VERTEX
8
Halfen
62
7
10
 1202.5
20
 58.75
30
0
0
VERTEX
8
Halfen
62
7
10
 1202.5
20
-58.75
30
0
0
VERTEX
8
Halfen
62
7
10
 1211
20
-67.25
30
0
0
VERTEX
8
Halfen
62
7
10
 1211
20
-58
30
0
0
SEQEND
8
Halfen
0
POLYLINE
8
Halfen
62
7
66
1
10
0.0
20
0.0
30
0.0
70
1
0
VERTEX
8
Halfen
62
7
10
 1480
20
-815.455
30
0
0
VERTEX
8
Halfen
62
7
10
 1480
20
-100.956
30
0
0
VERTEX
8
Halfen
62
7
10
 1479.359
20
-93.137
30
0
0
VERTEX
8
Halfen
62
7
10
 1477.453
20
-85.527
30
0
0
VERTEX
8
Halfen
62
7
10
 1474.332
20
-78.329
30
0
0
VERTEX
8
Halfen
62
7
10
 1470.081
20
-71.735
30
0
0
VERTEX
8
Halfen
62
7
10
 1279.439
20
 176.714
30
0
0
VERTEX
8
Halfen
62
7
10
 1276.251
20
 181.659
30
0
0
VERTEX
8
Halfen
62
7
10
 1273.911
20
 187.057
30
0
0
VERTEX
8
Halfen
62
7
10
 1272.481
20
 192.765
30
0
0
VERTEX
8
Halfen
62
7
10
 1272
20
 198.629
30
0
0
VERTEX
8
Halfen
62
7
10
 1272
20
 252.129
30
0
0
VERTEX
8
Halfen
62
7
10
 1272
20
 913.129
30
0
0
VERTEX
8
Halfen
62
7
10
 1260
20
 913.129
30
0
0
VERTEX
8
Halfen
62
7
10
 1260
20
 252.129
30
0
0
VERTEX
8
Halfen
62
7
10
 1260
20
 198.629
30
0
0
VERTEX
8
Halfen
62
7
10
 1260.641
20
 190.81
30
0
0
VERTEX
8
Halfen
62
7
10
 1262.547
20
 183.2
30
0
0
VERTEX
8
Halfen
62
7
10
 1265.668
20
 176.002
30
0
0
VERTEX
8
Halfen
62
7
10
 1269.919
20
 169.409
30
0
0
VERTEX
8
Halfen
62
7
10
 1460.561
20
-79.04
30
0
0
VERTEX
8
Halfen
62
7
10
 1463.749
20
-83.986
30
0
0
VERTEX
8
Halfen
62
7
10
 1466.089
20
-89.384
30
0
0
VERTEX
8
Halfen
62
7
10
 1467.519
20
-95.092
30
0
0
VERTEX
8
Halfen
62
7
10
 1468
20
-100.956
30
0
0
VERTEX
8
Halfen
62
7
10
 1468
20
-815.455
30
0
0
SEQEND
8
Halfen
0
POLYLINE
8
Halfen
62
7
66
1
10
0.0
20
0.0
30
0.0
70
1
0
VERTEX
8
Halfen
62
7
10
 1260
20
-815.455
30
0
0
VERTEX
8
Halfen
62
7
10
 1260
20
-100.956
30
0
0
VERTEX
8
Halfen
62
7
10
 1260.641
20
-93.137
30
0
0
VERTEX
8
Halfen
62
7
10
 1262.547
20
-85.527
30
0
0
VERTEX
8
Halfen
62
7
10
 1265.668
20
-78.329
30
0
0
VERTEX
8
Halfen
62
7
10
 1269.919
20
-71.735
30
0
0
VERTEX
8
Halfen
62
7
10
 1460.561
20
 176.714
30
0
0
VERTEX
8
Halfen
62
7
10
 1463.749
20
 181.659
30
0
0
VERTEX
8
Halfen
62
7
10
 1466.089
20
 187.057
30
0
0
VERTEX
8
Halfen
62
7
10
 1467.519
20
 192.765
30
0
0
VERTEX
8
Halfen
62
7
10
 1468
20
 198.629
30
0
0
VERTEX
8
Halfen
62
7
10
 1468
20
 252.129
30
0
0
VERTEX
8
Halfen
62
7
10
 1468
20
 913.129
30
0
0
VERTEX
8
Halfen
62
7
10
 1480
20
 913.129
30
0
0
VERTEX
8
Halfen
62
7
10
 1480
20
 252.129
30
0
0
VERTEX
8
Halfen
62
7
10
 1480
20
 198.629
30
0
0
VERTEX
8
Halfen
62
7
10
 1479.359
20
 190.81
30
0
0
VERTEX
8
Halfen
62
7
10
 1477.453
20
 183.2
30
0
0
VERTEX
8
Halfen
62
7
10
 1474.332
20
 176.002
30
0
0
VERTEX
8
Halfen
62
7
10
 1470.081
20
 169.409
30
0
0
VERTEX
8
Halfen
62
7
10
 1279.439
20
-79.04
30
0
0
VERTEX
8
Halfen
62
7
10
 1276.251
20
-83.986
30
0
0
VERTEX
8
Halfen
62
7
10
 1273.911
20
-89.384
30
0
0
VERTEX
8
Halfen
62
7
10
 1272.481
20
-95.092
30
0
0
VERTEX
8
Halfen
62
7
10
 1272
20
-100.956
30
0
0
VERTEX
8
Halfen
62
7
10
 1272
20
-815.455
30
0
0
SEQEND
8
Halfen
0
ENDSEC
0
EOF
