0
SECTION
2
HEADER
9
$EXTMIN
10
 0
20
 100
30
0.0
9
$EXTMAX
10
 0
20
 100
30
0.0
9
$LIMMIN
10
 100
20
 0
9
$LIMMAX
10
 0
20
 100
9
$PSLTSCALE
70
1
0
ENDSEC
0
SECTION
2
TABLES
0
TABLE
2
LAYER
70
2
0
LAYER
2
0
70
0
62
7
6
CONTINUOUS
0
LAYER
2
Halfen
70
0
62
7
6
CONTINUOUS
0
ENDTAB
0
ENDSEC
0
SECTION
2
ENTITIES
0
POLYLINE
8
Halfen
62
7
66
1
10
0.0
20
0.0
30
0.0
70
1
0
VERTEX
8
Halfen
62
7
10
 0
20
-73.5
30
0
0
VERTEX
8
Halfen
62
7
10
 250
20
-73.5
30
0
0
VERTEX
8
Halfen
62
7
10
 250
20
 73.5
30
0
0
VERTEX
8
Halfen
62
7
10
 0
20
 73.5
30
0
0
SEQEND
8
Halfen
0
POLYLINE
8
Halfen
62
7
66
1
10
0.0
20
0.0
30
0.0
70
1
0
VERTEX
8
Halfen
62
7
10
 0
20
-60
30
0
0
VERTEX
8
Halfen
62
7
10
 250
20
-60
30
0
0
VERTEX
8
Halfen
62
7
10
 250
20
 60
30
0
0
VERTEX
8
Halfen
62
7
10
 0
20
 60
30
0
0
SEQEND
8
Halfen
0
POLYLINE
8
Halfen
62
7
66
1
10
0.0
20
0.0
30
0.0
70
1
0
VERTEX
8
Halfen
62
7
10
 20
20
-32.5
30
0
0
VERTEX
8
Halfen
62
7
10
 37
20
-1.5
30
0
0
VERTEX
8
Halfen
62
7
10
 28
20
-1.5
30
0
0
VERTEX
8
Halfen
62
7
10
 28
20
 32.5
30
0
0
VERTEX
8
Halfen
62
7
10
 12
20
 32.5
30
0
0
VERTEX
8
Halfen
62
7
10
 12
20
-1.5
30
0
0
VERTEX
8
Halfen
62
7
10
 3
20
-1.5
30
0
0
SEQEND
8
Halfen
0
POLYLINE
8
Halfen
62
7
66
1
10
0.0
20
0.0
30
0.0
70
1
0
VERTEX
8
Halfen
62
7
10
 230
20
-32.5
30
0
0
VERTEX
8
Halfen
62
7
10
 247
20
-1.5
30
0
0
VERTEX
8
Halfen
62
7
10
 238
20
-1.5
30
0
0
VERTEX
8
Halfen
62
7
10
 238
20
 32.5
30
0
0
VERTEX
8
Halfen
62
7
10
 222
20
 32.5
30
0
0
VERTEX
8
Halfen
62
7
10
 222
20
-1.5
30
0
0
VERTEX
8
Halfen
62
7
10
 213
20
-1.5
30
0
0
SEQEND
8
Halfen
0
POLYLINE
8
Halfen
62
7
66
1
10
0.0
20
0.0
30
0.0
70
1
0
VERTEX
8
Halfen
62
7
10
 140
20
-69.3
30
0
0
VERTEX
8
Halfen
62
7
10
 140
20
-56.8
30
0
0
VERTEX
8
Halfen
62
7
10
 140
20
 69.3
30
0
0
VERTEX
8
Halfen
62
7
10
 139.958
20
 70.359
30
0
0
VERTEX
8
Halfen
62
7
10
 139.834
20
 71.412
30
0
0
VERTEX
8
Halfen
62
7
10
 139.627
20
 72.452
30
0
0
VERTEX
8
Halfen
62
7
10
 139.339
20
 73.472
30
0
0
VERTEX
8
Halfen
62
7
10
 138.972
20
 74.466
30
0
0
VERTEX
8
Halfen
62
7
10
 138.529
20
 75.429
30
0
0
VERTEX
8
Halfen
62
7
10
 138.011
20
 76.354
30
0
0
VERTEX
8
Halfen
62
7
10
 137.422
20
 77.235
30
0
0
VERTEX
8
Halfen
62
7
10
 136.765
20
 78.068
30
0
0
VERTEX
8
Halfen
62
7
10
 136.046
20
 78.846
30
0
0
VERTEX
8
Halfen
62
7
10
 135.268
20
 79.565
30
0
0
VERTEX
8
Halfen
62
7
10
 134.435
20
 80.222
30
0
0
VERTEX
8
Halfen
62
7
10
 133.554
20
 80.811
30
0
0
VERTEX
8
Halfen
62
7
10
 132.629
20
 81.329
30
0
0
VERTEX
8
Halfen
62
7
10
 131.666
20
 81.772
30
0
0
VERTEX
8
Halfen
62
7
10
 130.672
20
 82.139
30
0
0
VERTEX
8
Halfen
62
7
10
 129.652
20
 82.427
30
0
0
VERTEX
8
Halfen
62
7
10
 128.612
20
 82.634
30
0
0
VERTEX
8
Halfen
62
7
10
 127.559
20
 82.758
30
0
0
VERTEX
8
Halfen
62
7
10
 126.5
20
 82.8
30
0
0
VERTEX
8
Halfen
62
7
10
 123.5
20
 82.8
30
0
0
VERTEX
8
Halfen
62
7
10
 122.441
20
 82.758
30
0
0
VERTEX
8
Halfen
62
7
10
 121.388
20
 82.634
30
0
0
VERTEX
8
Halfen
62
7
10
 120.348
20
 82.427
30
0
0
VERTEX
8
Halfen
62
7
10
 119.328
20
 82.139
30
0
0
VERTEX
8
Halfen
62
7
10
 118.334
20
 81.772
30
0
0
VERTEX
8
Halfen
62
7
10
 117.371
20
 81.329
30
0
0
VERTEX
8
Halfen
62
7
10
 116.446
20
 80.811
30
0
0
VERTEX
8
Halfen
62
7
10
 115.565
20
 80.222
30
0
0
VERTEX
8
Halfen
62
7
10
 114.732
20
 79.565
30
0
0
VERTEX
8
Halfen
62
7
10
 113.954
20
 78.846
30
0
0
VERTEX
8
Halfen
62
7
10
 113.235
20
 78.068
30
0
0
VERTEX
8
Halfen
62
7
10
 112.578
20
 77.235
30
0
0
VERTEX
8
Halfen
62
7
10
 111.989
20
 76.354
30
0
0
VERTEX
8
Halfen
62
7
10
 111.471
20
 75.429
30
0
0
VERTEX
8
Halfen
62
7
10
 111.028
20
 74.466
30
0
0
VERTEX
8
Halfen
62
7
10
 110.661
20
 73.472
30
0
0
VERTEX
8
Halfen
62
7
10
 110.373
20
 72.452
30
0
0
VERTEX
8
Halfen
62
7
10
 110.166
20
 71.412
30
0
0
VERTEX
8
Halfen
62
7
10
 110.042
20
 70.359
30
0
0
VERTEX
8
Halfen
62
7
10
 110
20
 69.3
30
0
0
VERTEX
8
Halfen
62
7
10
 110
20
-56.8
30
0
0
VERTEX
8
Halfen
62
7
10
 110
20
-69.3
30
0
0
VERTEX
8
Halfen
62
7
10
 110.042
20
-70.359
30
0
0
VERTEX
8
Halfen
62
7
10
 110.166
20
-71.412
30
0
0
VERTEX
8
Halfen
62
7
10
 110.373
20
-72.452
30
0
0
VERTEX
8
Halfen
62
7
10
 110.661
20
-73.472
30
0
0
VERTEX
8
Halfen
62
7
10
 111.028
20
-74.466
30
0
0
VERTEX
8
Halfen
62
7
10
 111.471
20
-75.429
30
0
0
VERTEX
8
Halfen
62
7
10
 111.989
20
-76.354
30
0
0
VERTEX
8
Halfen
62
7
10
 112.578
20
-77.235
30
0
0
VERTEX
8
Halfen
62
7
10
 113.235
20
-78.068
30
0
0
VERTEX
8
Halfen
62
7
10
 113.954
20
-78.846
30
0
0
VERTEX
8
Halfen
62
7
10
 114.732
20
-79.565
30
0
0
VERTEX
8
Halfen
62
7
10
 115.565
20
-80.222
30
0
0
VERTEX
8
Halfen
62
7
10
 116.446
20
-80.811
30
0
0
VERTEX
8
Halfen
62
7
10
 117.371
20
-81.329
30
0
0
VERTEX
8
Halfen
62
7
10
 118.334
20
-81.772
30
0
0
VERTEX
8
Halfen
62
7
10
 119.328
20
-82.139
30
0
0
VERTEX
8
Halfen
62
7
10
 120.348
20
-82.427
30
0
0
VERTEX
8
Halfen
62
7
10
 121.388
20
-82.634
30
0
0
VERTEX
8
Halfen
62
7
10
 122.441
20
-82.758
30
0
0
VERTEX
8
Halfen
62
7
10
 123.5
20
-82.8
30
0
0
VERTEX
8
Halfen
62
7
10
 126.5
20
-82.8
30
0
0
VERTEX
8
Halfen
62
7
10
 127.559
20
-82.758
30
0
0
VERTEX
8
Halfen
62
7
10
 128.612
20
-82.634
30
0
0
VERTEX
8
Halfen
62
7
10
 129.652
20
-82.427
30
0
0
VERTEX
8
Halfen
62
7
10
 130.672
20
-82.139
30
0
0
VERTEX
8
Halfen
62
7
10
 131.666
20
-81.772
30
0
0
VERTEX
8
Halfen
62
7
10
 132.629
20
-81.329
30
0
0
VERTEX
8
Halfen
62
7
10
 133.554
20
-80.811
30
0
0
VERTEX
8
Halfen
62
7
10
 134.435
20
-80.222
30
0
0
VERTEX
8
Halfen
62
7
10
 135.268
20
-79.565
30
0
0
VERTEX
8
Halfen
62
7
10
 136.046
20
-78.846
30
0
0
VERTEX
8
Halfen
62
7
10
 136.765
20
-78.068
30
0
0
VERTEX
8
Halfen
62
7
10
 137.422
20
-77.235
30
0
0
VERTEX
8
Halfen
62
7
10
 138.011
20
-76.354
30
0
0
VERTEX
8
Halfen
62
7
10
 138.529
20
-75.429
30
0
0
VERTEX
8
Halfen
62
7
10
 138.972
20
-74.466
30
0
0
VERTEX
8
Halfen
62
7
10
 139.339
20
-73.472
30
0
0
VERTEX
8
Halfen
62
7
10
 139.627
20
-72.452
30
0
0
VERTEX
8
Halfen
62
7
10
 139.834
20
-71.412
30
0
0
VERTEX
8
Halfen
62
7
10
 139.958
20
-70.359
30
0
0
VERTEX
8
Halfen
62
7
10
 140
20
-69.3
30
0
0
SEQEND
8
Halfen
0
POLYLINE
8
Halfen
62
7
66
1
10
0.0
20
0.0
30
0.0
70
1
0
VERTEX
8
Halfen
62
7
10
 75
20
-696.961
30
0
0
VERTEX
8
Halfen
62
7
10
 75
20
 705.246
30
0
0
VERTEX
8
Halfen
62
7
10
 65
20
 705.246
30
0
0
VERTEX
8
Halfen
62
7
10
 65
20
-696.961
30
0
0
SEQEND
8
Halfen
0
POLYLINE
8
Halfen
62
7
66
1
10
0.0
20
0.0
30
0.0
70
1
0
VERTEX
8
Halfen
62
7
10
 195
20
-696.961
30
0
0
VERTEX
8
Halfen
62
7
10
 195
20
 705.246
30
0
0
VERTEX
8
Halfen
62
7
10
 185
20
 705.246
30
0
0
VERTEX
8
Halfen
62
7
10
 185
20
-696.961
30
0
0
SEQEND
8
Halfen
0
POLYLINE
8
Halfen
62
7
66
1
10
0.0
20
0.0
30
0.0
70
1
0
VERTEX
8
Halfen
62
7
10
 720
20
-60
30
0
0
VERTEX
8
Halfen
62
7
10
 720
20
 60
30
0
0
VERTEX
8
Halfen
62
7
10
 706.5
20
 73.5
30
0
0
VERTEX
8
Halfen
62
7
10
 706.5
20
 60
30
0
0
VERTEX
8
Halfen
62
7
10
 500
20
 60
30
0
0
VERTEX
8
Halfen
62
7
10
 500
20
-60
30
0
0
VERTEX
8
Halfen
62
7
10
 706.5
20
-60
30
0
0
VERTEX
8
Halfen
62
7
10
 706.5
20
-73.5
30
0
0
SEQEND
8
Halfen
0
POLYLINE
8
Halfen
62
7
66
1
10
0.0
20
0.0
30
0.0
70
1
0
VERTEX
8
Halfen
62
7
10
 500
20
-60
30
0
0
VERTEX
8
Halfen
62
7
10
 500
20
 60
30
0
0
VERTEX
8
Halfen
62
7
10
 463.5
20
 60
30
0
0
VERTEX
8
Halfen
62
7
10
 463.5
20
 73.5
30
0
0
VERTEX
8
Halfen
62
7
10
 450
20
 60
30
0
0
VERTEX
8
Halfen
62
7
10
 450
20
-60
30
0
0
VERTEX
8
Halfen
62
7
10
 463.5
20
-73.5
30
0
0
VERTEX
8
Halfen
62
7
10
 463.5
20
-60
30
0
0
SEQEND
8
Halfen
0
POLYLINE
8
Halfen
62
7
66
1
10
0.0
20
0.0
30
0.0
70
1
0
VERTEX
8
Halfen
62
7
10
 717.5
20
-58.75
30
0
0
VERTEX
8
Halfen
62
7
10
 717.5
20
 58.75
30
0
0
VERTEX
8
Halfen
62
7
10
 709
20
 67.25
30
0
0
VERTEX
8
Halfen
62
7
10
 709
20
 58
30
0
0
VERTEX
8
Halfen
62
7
10
 502
20
 58
30
0
0
VERTEX
8
Halfen
62
7
10
 502
20
-58
30
0
0
VERTEX
8
Halfen
62
7
10
 709
20
-58
30
0
0
VERTEX
8
Halfen
62
7
10
 709
20
-67.25
30
0
0
SEQEND
8
Halfen
0
POLYLINE
8
Halfen
62
7
66
1
10
0.0
20
0.0
30
0.0
70
1
0
VERTEX
8
Halfen
62
7
10
 498
20
-58
30
0
0
VERTEX
8
Halfen
62
7
10
 498
20
 58
30
0
0
VERTEX
8
Halfen
62
7
10
 461
20
 58
30
0
0
VERTEX
8
Halfen
62
7
10
 461
20
 67.25
30
0
0
VERTEX
8
Halfen
62
7
10
 452.5
20
 58.75
30
0
0
VERTEX
8
Halfen
62
7
10
 452.5
20
-58.75
30
0
0
VERTEX
8
Halfen
62
7
10
 461
20
-67.25
30
0
0
VERTEX
8
Halfen
62
7
10
 461
20
-58
30
0
0
SEQEND
8
Halfen
0
POLYLINE
8
Halfen
62
7
66
1
10
0.0
20
0.0
30
0.0
70
1
0
VERTEX
8
Halfen
62
7
10
 705
20
-81.8
30
0
0
VERTEX
8
Halfen
62
7
10
 705
20
 81.8
30
0
0
VERTEX
8
Halfen
62
7
10
 701
20
 81.8
30
0
0
VERTEX
8
Halfen
62
7
10
 700.846
20
 81.797
30
0
0
VERTEX
8
Halfen
62
7
10
 700.691
20
 81.786
30
0
0
VERTEX
8
Halfen
62
7
10
 700.538
20
 81.769
30
0
0
VERTEX
8
Halfen
62
7
10
 700.385
20
 81.746
30
0
0
VERTEX
8
Halfen
62
7
10
 700.234
20
 81.715
30
0
0
VERTEX
8
Halfen
62
7
10
 700.084
20
 81.678
30
0
0
VERTEX
8
Halfen
62
7
10
 699.936
20
 81.634
30
0
0
VERTEX
8
Halfen
62
7
10
 699.789
20
 81.584
30
0
0
VERTEX
8
Halfen
62
7
10
 699.646
20
 81.527
30
0
0
VERTEX
8
Halfen
62
7
10
 699.505
20
 81.464
30
0
0
VERTEX
8
Halfen
62
7
10
 699.366
20
 81.395
30
0
0
VERTEX
8
Halfen
62
7
10
 699.231
20
 81.32
30
0
0
VERTEX
8
Halfen
62
7
10
 699.1
20
 81.239
30
0
0
VERTEX
8
Halfen
62
7
10
 698.972
20
 81.153
30
0
0
VERTEX
8
Halfen
62
7
10
 698.848
20
 81.06
30
0
0
VERTEX
8
Halfen
62
7
10
 698.728
20
 80.963
30
0
0
VERTEX
8
Halfen
62
7
10
 698.613
20
 80.86
30
0
0
VERTEX
8
Halfen
62
7
10
 698.502
20
 80.752
30
0
0
VERTEX
8
Halfen
62
7
10
 698.397
20
 80.639
30
0
0
VERTEX
8
Halfen
62
7
10
 698.296
20
 80.522
30
0
0
VERTEX
8
Halfen
62
7
10
 697.41
20
 79.491
30
0
0
VERTEX
8
Halfen
62
7
10
 696.479
20
 78.5
30
0
0
VERTEX
8
Halfen
62
7
10
 695.505
20
 77.551
30
0
0
VERTEX
8
Halfen
62
7
10
 694.491
20
 76.646
30
0
0
VERTEX
8
Halfen
62
7
10
 693.437
20
 75.787
30
0
0
VERTEX
8
Halfen
62
7
10
 692.347
20
 74.975
30
0
0
VERTEX
8
Halfen
62
7
10
 691.222
20
 74.211
30
0
0
VERTEX
8
Halfen
62
7
10
 690.064
20
 73.499
30
0
0
VERTEX
8
Halfen
62
7
10
 688.876
20
 72.838
30
0
0
VERTEX
8
Halfen
62
7
10
 687.66
20
 72.23
30
0
0
VERTEX
8
Halfen
62
7
10
 686.418
20
 71.676
30
0
0
VERTEX
8
Halfen
62
7
10
 685.153
20
 71.178
30
0
0
VERTEX
8
Halfen
62
7
10
 683.867
20
 70.736
30
0
0
VERTEX
8
Halfen
62
7
10
 682.563
20
 70.351
30
0
0
VERTEX
8
Halfen
62
7
10
 681.243
20
 70.024
30
0
0
VERTEX
8
Halfen
62
7
10
 679.911
20
 69.756
30
0
0
VERTEX
8
Halfen
62
7
10
 678.567
20
 69.547
30
0
0
VERTEX
8
Halfen
62
7
10
 677.216
20
 69.397
30
0
0
VERTEX
8
Halfen
62
7
10
 675.859
20
 69.307
30
0
0
VERTEX
8
Halfen
62
7
10
 674.5
20
 69.277
30
0
0
VERTEX
8
Halfen
62
7
10
 652.5
20
 69.277
30
0
0
VERTEX
8
Halfen
62
7
10
 651.141
20
 69.307
30
0
0
VERTEX
8
Halfen
62
7
10
 649.784
20
 69.397
30
0
0
VERTEX
8
Halfen
62
7
10
 648.433
20
 69.547
30
0
0
VERTEX
8
Halfen
62
7
10
 647.089
20
 69.756
30
0
0
VERTEX
8
Halfen
62
7
10
 645.757
20
 70.024
30
0
0
VERTEX
8
Halfen
62
7
10
 644.437
20
 70.351
30
0
0
VERTEX
8
Halfen
62
7
10
 643.133
20
 70.736
30
0
0
VERTEX
8
Halfen
62
7
10
 641.847
20
 71.178
30
0
0
VERTEX
8
Halfen
62
7
10
 640.582
20
 71.676
30
0
0
VERTEX
8
Halfen
62
7
10
 639.34
20
 72.23
30
0
0
VERTEX
8
Halfen
62
7
10
 638.124
20
 72.838
30
0
0
VERTEX
8
Halfen
62
7
10
 636.936
20
 73.499
30
0
0
VERTEX
8
Halfen
62
7
10
 635.778
20
 74.211
30
0
0
VERTEX
8
Halfen
62
7
10
 634.653
20
 74.975
30
0
0
VERTEX
8
Halfen
62
7
10
 633.563
20
 75.787
30
0
0
VERTEX
8
Halfen
62
7
10
 632.509
20
 76.646
30
0
0
VERTEX
8
Halfen
62
7
10
 631.495
20
 77.551
30
0
0
VERTEX
8
Halfen
62
7
10
 630.521
20
 78.5
30
0
0
VERTEX
8
Halfen
62
7
10
 629.59
20
 79.491
30
0
0
VERTEX
8
Halfen
62
7
10
 628.704
20
 80.522
30
0
0
VERTEX
8
Halfen
62
7
10
 628.603
20
 80.639
30
0
0
VERTEX
8
Halfen
62
7
10
 628.498
20
 80.752
30
0
0
VERTEX
8
Halfen
62
7
10
 628.387
20
 80.86
30
0
0
VERTEX
8
Halfen
62
7
10
 628.272
20
 80.963
30
0
0
VERTEX
8
Halfen
62
7
10
 628.152
20
 81.06
30
0
0
VERTEX
8
Halfen
62
7
10
 628.028
20
 81.153
30
0
0
VERTEX
8
Halfen
62
7
10
 627.9
20
 81.239
30
0
0
VERTEX
8
Halfen
62
7
10
 627.769
20
 81.32
30
0
0
VERTEX
8
Halfen
62
7
10
 627.634
20
 81.395
30
0
0
VERTEX
8
Halfen
62
7
10
 627.495
20
 81.464
30
0
0
VERTEX
8
Halfen
62
7
10
 627.354
20
 81.527
30
0
0
VERTEX
8
Halfen
62
7
10
 627.211
20
 81.584
30
0
0
VERTEX
8
Halfen
62
7
10
 627.064
20
 81.634
30
0
0
VERTEX
8
Halfen
62
7
10
 626.916
20
 81.678
30
0
0
VERTEX
8
Halfen
62
7
10
 626.766
20
 81.715
30
0
0
VERTEX
8
Halfen
62
7
10
 626.615
20
 81.746
30
0
0
VERTEX
8
Halfen
62
7
10
 626.462
20
 81.769
30
0
0
VERTEX
8
Halfen
62
7
10
 626.309
20
 81.786
30
0
0
VERTEX
8
Halfen
62
7
10
 626.154
20
 81.797
30
0
0
VERTEX
8
Halfen
62
7
10
 626
20
 81.8
30
0
0
VERTEX
8
Halfen
62
7
10
 622
20
 81.8
30
0
0
VERTEX
8
Halfen
62
7
10
 622
20
-81.8
30
0
0
VERTEX
8
Halfen
62
7
10
 626
20
-81.8
30
0
0
VERTEX
8
Halfen
62
7
10
 626.154
20
-81.797
30
0
0
VERTEX
8
Halfen
62
7
10
 626.309
20
-81.786
30
0
0
VERTEX
8
Halfen
62
7
10
 626.462
20
-81.769
30
0
0
VERTEX
8
Halfen
62
7
10
 626.615
20
-81.746
30
0
0
VERTEX
8
Halfen
62
7
10
 626.766
20
-81.715
30
0
0
VERTEX
8
Halfen
62
7
10
 626.916
20
-81.678
30
0
0
VERTEX
8
Halfen
62
7
10
 627.064
20
-81.634
30
0
0
VERTEX
8
Halfen
62
7
10
 627.211
20
-81.584
30
0
0
VERTEX
8
Halfen
62
7
10
 627.354
20
-81.527
30
0
0
VERTEX
8
Halfen
62
7
10
 627.495
20
-81.464
30
0
0
VERTEX
8
Halfen
62
7
10
 627.634
20
-81.395
30
0
0
VERTEX
8
Halfen
62
7
10
 627.769
20
-81.32
30
0
0
VERTEX
8
Halfen
62
7
10
 627.9
20
-81.239
30
0
0
VERTEX
8
Halfen
62
7
10
 628.028
20
-81.153
30
0
0
VERTEX
8
Halfen
62
7
10
 628.152
20
-81.06
30
0
0
VERTEX
8
Halfen
62
7
10
 628.272
20
-80.963
30
0
0
VERTEX
8
Halfen
62
7
10
 628.387
20
-80.86
30
0
0
VERTEX
8
Halfen
62
7
10
 628.498
20
-80.752
30
0
0
VERTEX
8
Halfen
62
7
10
 628.603
20
-80.639
30
0
0
VERTEX
8
Halfen
62
7
10
 628.704
20
-80.522
30
0
0
VERTEX
8
Halfen
62
7
10
 629.59
20
-79.491
30
0
0
VERTEX
8
Halfen
62
7
10
 630.521
20
-78.5
30
0
0
VERTEX
8
Halfen
62
7
10
 631.495
20
-77.551
30
0
0
VERTEX
8
Halfen
62
7
10
 632.509
20
-76.646
30
0
0
VERTEX
8
Halfen
62
7
10
 633.563
20
-75.787
30
0
0
VERTEX
8
Halfen
62
7
10
 634.653
20
-74.975
30
0
0
VERTEX
8
Halfen
62
7
10
 635.778
20
-74.211
30
0
0
VERTEX
8
Halfen
62
7
10
 636.936
20
-73.499
30
0
0
VERTEX
8
Halfen
62
7
10
 638.124
20
-72.838
30
0
0
VERTEX
8
Halfen
62
7
10
 639.34
20
-72.23
30
0
0
VERTEX
8
Halfen
62
7
10
 640.582
20
-71.676
30
0
0
VERTEX
8
Halfen
62
7
10
 641.847
20
-71.178
30
0
0
VERTEX
8
Halfen
62
7
10
 643.133
20
-70.736
30
0
0
VERTEX
8
Halfen
62
7
10
 644.437
20
-70.351
30
0
0
VERTEX
8
Halfen
62
7
10
 645.757
20
-70.024
30
0
0
VERTEX
8
Halfen
62
7
10
 647.089
20
-69.756
30
0
0
VERTEX
8
Halfen
62
7
10
 648.433
20
-69.547
30
0
0
VERTEX
8
Halfen
62
7
10
 649.784
20
-69.397
30
0
0
VERTEX
8
Halfen
62
7
10
 651.141
20
-69.307
30
0
0
VERTEX
8
Halfen
62
7
10
 652.5
20
-69.277
30
0
0
VERTEX
8
Halfen
62
7
10
 674.5
20
-69.277
30
0
0
VERTEX
8
Halfen
62
7
10
 675.859
20
-69.307
30
0
0
VERTEX
8
Halfen
62
7
10
 677.216
20
-69.397
30
0
0
VERTEX
8
Halfen
62
7
10
 678.567
20
-69.547
30
0
0
VERTEX
8
Halfen
62
7
10
 679.911
20
-69.756
30
0
0
VERTEX
8
Halfen
62
7
10
 681.243
20
-70.024
30
0
0
VERTEX
8
Halfen
62
7
10
 682.563
20
-70.351
30
0
0
VERTEX
8
Halfen
62
7
10
 683.867
20
-70.736
30
0
0
VERTEX
8
Halfen
62
7
10
 685.153
20
-71.178
30
0
0
VERTEX
8
Halfen
62
7
10
 686.418
20
-71.676
30
0
0
VERTEX
8
Halfen
62
7
10
 687.66
20
-72.23
30
0
0
VERTEX
8
Halfen
62
7
10
 688.876
20
-72.838
30
0
0
VERTEX
8
Halfen
62
7
10
 690.064
20
-73.499
30
0
0
VERTEX
8
Halfen
62
7
10
 691.222
20
-74.211
30
0
0
VERTEX
8
Halfen
62
7
10
 692.347
20
-74.975
30
0
0
VERTEX
8
Halfen
62
7
10
 693.437
20
-75.787
30
0
0
VERTEX
8
Halfen
62
7
10
 694.491
20
-76.646
30
0
0
VERTEX
8
Halfen
62
7
10
 695.505
20
-77.551
30
0
0
VERTEX
8
Halfen
62
7
10
 696.479
20
-78.5
30
0
0
VERTEX
8
Halfen
62
7
10
 697.41
20
-79.491
30
0
0
VERTEX
8
Halfen
62
7
10
 698.296
20
-80.522
30
0
0
VERTEX
8
Halfen
62
7
10
 698.397
20
-80.639
30
0
0
VERTEX
8
Halfen
62
7
10
 698.502
20
-80.752
30
0
0
VERTEX
8
Halfen
62
7
10
 698.613
20
-80.86
30
0
0
VERTEX
8
Halfen
62
7
10
 698.728
20
-80.963
30
0
0
VERTEX
8
Halfen
62
7
10
 698.848
20
-81.06
30
0
0
VERTEX
8
Halfen
62
7
10
 698.972
20
-81.153
30
0
0
VERTEX
8
Halfen
62
7
10
 699.1
20
-81.239
30
0
0
VERTEX
8
Halfen
62
7
10
 699.231
20
-81.32
30
0
0
VERTEX
8
Halfen
62
7
10
 699.366
20
-81.395
30
0
0
VERTEX
8
Halfen
62
7
10
 699.505
20
-81.464
30
0
0
VERTEX
8
Halfen
62
7
10
 699.646
20
-81.527
30
0
0
VERTEX
8
Halfen
62
7
10
 699.789
20
-81.584
30
0
0
VERTEX
8
Halfen
62
7
10
 699.936
20
-81.634
30
0
0
VERTEX
8
Halfen
62
7
10
 700.084
20
-81.678
30
0
0
VERTEX
8
Halfen
62
7
10
 700.234
20
-81.715
30
0
0
VERTEX
8
Halfen
62
7
10
 700.385
20
-81.746
30
0
0
VERTEX
8
Halfen
62
7
10
 700.538
20
-81.769
30
0
0
VERTEX
8
Halfen
62
7
10
 700.691
20
-81.786
30
0
0
VERTEX
8
Halfen
62
7
10
 700.846
20
-81.797
30
0
0
VERTEX
8
Halfen
62
7
10
 701
20
-81.8
30
0
0
SEQEND
8
Halfen
0
POLYLINE
8
Halfen
62
7
66
1
10
0.0
20
0.0
30
0.0
70
1
0
VERTEX
8
Halfen
62
7
10
 690
20
-696.961
30
0
0
VERTEX
8
Halfen
62
7
10
 690
20
-95.355
30
0
0
VERTEX
8
Halfen
62
7
10
 689.508
20
-89.098
30
0
0
VERTEX
8
Halfen
62
7
10
 688.042
20
-82.995
30
0
0
VERTEX
8
Halfen
62
7
10
 685.64
20
-77.196
30
0
0
VERTEX
8
Halfen
62
7
10
 682.361
20
-71.844
30
0
0
VERTEX
8
Halfen
62
7
10
 678.284
20
-67.071
30
0
0
VERTEX
8
Halfen
62
7
10
 528.787
20
 82.426
30
0
0
VERTEX
8
Halfen
62
7
10
 525.729
20
 86.006
30
0
0
VERTEX
8
Halfen
62
7
10
 523.27
20
 90.02
30
0
0
VERTEX
8
Halfen
62
7
10
 521.468
20
 94.369
30
0
0
VERTEX
8
Halfen
62
7
10
 520.369
20
 98.947
30
0
0
VERTEX
8
Halfen
62
7
10
 520
20
 103.64
30
0
0
VERTEX
8
Halfen
62
7
10
 520
20
 166.246
30
0
0
VERTEX
8
Halfen
62
7
10
 520
20
 705.246
30
0
0
VERTEX
8
Halfen
62
7
10
 510
20
 705.246
30
0
0
VERTEX
8
Halfen
62
7
10
 510
20
 166.246
30
0
0
VERTEX
8
Halfen
62
7
10
 510
20
 103.64
30
0
0
VERTEX
8
Halfen
62
7
10
 510.492
20
 97.382
30
0
0
VERTEX
8
Halfen
62
7
10
 511.958
20
 91.279
30
0
0
VERTEX
8
Halfen
62
7
10
 514.36
20
 85.48
30
0
0
VERTEX
8
Halfen
62
7
10
 517.639
20
 80.128
30
0
0
VERTEX
8
Halfen
62
7
10
 521.716
20
 75.355
30
0
0
VERTEX
8
Halfen
62
7
10
 671.213
20
-74.142
30
0
0
VERTEX
8
Halfen
62
7
10
 674.271
20
-77.722
30
0
0
VERTEX
8
Halfen
62
7
10
 676.73
20
-81.736
30
0
0
VERTEX
8
Halfen
62
7
10
 678.532
20
-86.085
30
0
0
VERTEX
8
Halfen
62
7
10
 679.631
20
-90.662
30
0
0
VERTEX
8
Halfen
62
7
10
 680
20
-95.355
30
0
0
VERTEX
8
Halfen
62
7
10
 680
20
-696.961
30
0
0
SEQEND
8
Halfen
0
ENDSEC
0
EOF
