0
SECTION
2
HEADER
9
$EXTMIN
10
 0
20
 100
30
0.0
9
$EXTMAX
10
 0
20
 100
30
0.0
9
$LIMMIN
10
 100
20
 0
9
$LIMMAX
10
 0
20
 100
9
$PSLTSCALE
70
1
0
ENDSEC
0
SECTION
2
TABLES
0
TABLE
2
LAYER
70
2
0
LAYER
2
0
70
0
62
7
6
CONTINUOUS
0
LAYER
2
Halfen
70
0
62
7
6
CONTINUOUS
0
ENDTAB
0
ENDSEC
0
SECTION
2
ENTITIES
0
POLYLINE
8
Halfen
62
7
66
1
10
0.0
20
0.0
30
0.0
70
1
0
VERTEX
8
Halfen
62
7
10
 0
20
-73.5
30
0
0
VERTEX
8
Halfen
62
7
10
 250
20
-73.5
30
0
0
VERTEX
8
Halfen
62
7
10
 250
20
 73.5
30
0
0
VERTEX
8
Halfen
62
7
10
 0
20
 73.5
30
0
0
SEQEND
8
Halfen
0
POLYLINE
8
Halfen
62
7
66
1
10
0.0
20
0.0
30
0.0
70
1
0
VERTEX
8
Halfen
62
7
10
 0
20
-60
30
0
0
VERTEX
8
Halfen
62
7
10
 250
20
-60
30
0
0
VERTEX
8
Halfen
62
7
10
 250
20
 60
30
0
0
VERTEX
8
Halfen
62
7
10
 0
20
 60
30
0
0
SEQEND
8
Halfen
0
POLYLINE
8
Halfen
62
7
66
1
10
0.0
20
0.0
30
0.0
70
1
0
VERTEX
8
Halfen
62
7
10
 20
20
-32.5
30
0
0
VERTEX
8
Halfen
62
7
10
 37
20
-1.5
30
0
0
VERTEX
8
Halfen
62
7
10
 28
20
-1.5
30
0
0
VERTEX
8
Halfen
62
7
10
 28
20
 32.5
30
0
0
VERTEX
8
Halfen
62
7
10
 12
20
 32.5
30
0
0
VERTEX
8
Halfen
62
7
10
 12
20
-1.5
30
0
0
VERTEX
8
Halfen
62
7
10
 3
20
-1.5
30
0
0
SEQEND
8
Halfen
0
POLYLINE
8
Halfen
62
7
66
1
10
0.0
20
0.0
30
0.0
70
1
0
VERTEX
8
Halfen
62
7
10
 230
20
-32.5
30
0
0
VERTEX
8
Halfen
62
7
10
 247
20
-1.5
30
0
0
VERTEX
8
Halfen
62
7
10
 238
20
-1.5
30
0
0
VERTEX
8
Halfen
62
7
10
 238
20
 32.5
30
0
0
VERTEX
8
Halfen
62
7
10
 222
20
 32.5
30
0
0
VERTEX
8
Halfen
62
7
10
 222
20
-1.5
30
0
0
VERTEX
8
Halfen
62
7
10
 213
20
-1.5
30
0
0
SEQEND
8
Halfen
0
POLYLINE
8
Halfen
62
7
66
1
10
0.0
20
0.0
30
0.0
70
1
0
VERTEX
8
Halfen
62
7
10
 68
20
-775
30
0
0
VERTEX
8
Halfen
62
7
10
 68
20
-160
30
0
0
VERTEX
8
Halfen
62
7
10
 56
20
-160
30
0
0
VERTEX
8
Halfen
62
7
10
 56
20
-775
30
0
0
SEQEND
8
Halfen
0
POLYLINE
8
Halfen
62
7
66
1
10
0.0
20
0.0
30
0.0
70
1
0
VERTEX
8
Halfen
62
7
10
 67.25
20
-160
30
0
0
VERTEX
8
Halfen
62
7
10
 67.25
20
-62
30
0
0
VERTEX
8
Halfen
62
7
10
 56.75
20
-62
30
0
0
VERTEX
8
Halfen
62
7
10
 56.75
20
-160
30
0
0
SEQEND
8
Halfen
0
POLYLINE
8
Halfen
62
7
66
1
10
0.0
20
0.0
30
0.0
70
1
0
VERTEX
8
Halfen
62
7
10
 68
20
-62
30
0
0
VERTEX
8
Halfen
62
7
10
 68
20
-60
30
0
0
VERTEX
8
Halfen
62
7
10
 56
20
-60
30
0
0
VERTEX
8
Halfen
62
7
10
 56
20
-62
30
0
0
SEQEND
8
Halfen
0
POLYLINE
8
Halfen
62
7
66
1
10
0.0
20
0.0
30
0.0
70
1
0
VERTEX
8
Halfen
62
7
10
 67.25
20
-60
30
0
0
VERTEX
8
Halfen
62
7
10
 67.25
20
 60
30
0
0
VERTEX
8
Halfen
62
7
10
 56.75
20
 60
30
0
0
VERTEX
8
Halfen
62
7
10
 56.75
20
-60
30
0
0
SEQEND
8
Halfen
0
POLYLINE
8
Halfen
62
7
66
1
10
0.0
20
0.0
30
0.0
70
1
0
VERTEX
8
Halfen
62
7
10
 68
20
 60
30
0
0
VERTEX
8
Halfen
62
7
10
 68
20
 62
30
0
0
VERTEX
8
Halfen
62
7
10
 56
20
 62
30
0
0
VERTEX
8
Halfen
62
7
10
 56
20
 60
30
0
0
SEQEND
8
Halfen
0
POLYLINE
8
Halfen
62
7
66
1
10
0.0
20
0.0
30
0.0
70
1
0
VERTEX
8
Halfen
62
7
10
 67.25
20
 62
30
0
0
VERTEX
8
Halfen
62
7
10
 67.25
20
 160
30
0
0
VERTEX
8
Halfen
62
7
10
 56.75
20
 160
30
0
0
VERTEX
8
Halfen
62
7
10
 56.75
20
 62
30
0
0
SEQEND
8
Halfen
0
POLYLINE
8
Halfen
62
7
66
1
10
0.0
20
0.0
30
0.0
70
1
0
VERTEX
8
Halfen
62
7
10
 68
20
 160
30
0
0
VERTEX
8
Halfen
62
7
10
 68
20
 775
30
0
0
VERTEX
8
Halfen
62
7
10
 56
20
 775
30
0
0
VERTEX
8
Halfen
62
7
10
 56
20
 160
30
0
0
SEQEND
8
Halfen
0
POLYLINE
8
Halfen
62
7
66
1
10
0.0
20
0.0
30
0.0
70
1
0
VERTEX
8
Halfen
62
7
10
 152
20
-775
30
0
0
VERTEX
8
Halfen
62
7
10
 152
20
-160
30
0
0
VERTEX
8
Halfen
62
7
10
 140
20
-160
30
0
0
VERTEX
8
Halfen
62
7
10
 140
20
-775
30
0
0
SEQEND
8
Halfen
0
POLYLINE
8
Halfen
62
7
66
1
10
0.0
20
0.0
30
0.0
70
1
0
VERTEX
8
Halfen
62
7
10
 151.25
20
-160
30
0
0
VERTEX
8
Halfen
62
7
10
 151.25
20
-62
30
0
0
VERTEX
8
Halfen
62
7
10
 140.75
20
-62
30
0
0
VERTEX
8
Halfen
62
7
10
 140.75
20
-160
30
0
0
SEQEND
8
Halfen
0
POLYLINE
8
Halfen
62
7
66
1
10
0.0
20
0.0
30
0.0
70
1
0
VERTEX
8
Halfen
62
7
10
 152
20
-62
30
0
0
VERTEX
8
Halfen
62
7
10
 152
20
-60
30
0
0
VERTEX
8
Halfen
62
7
10
 140
20
-60
30
0
0
VERTEX
8
Halfen
62
7
10
 140
20
-62
30
0
0
SEQEND
8
Halfen
0
POLYLINE
8
Halfen
62
7
66
1
10
0.0
20
0.0
30
0.0
70
1
0
VERTEX
8
Halfen
62
7
10
 151.25
20
-60
30
0
0
VERTEX
8
Halfen
62
7
10
 151.25
20
 60
30
0
0
VERTEX
8
Halfen
62
7
10
 140.75
20
 60
30
0
0
VERTEX
8
Halfen
62
7
10
 140.75
20
-60
30
0
0
SEQEND
8
Halfen
0
POLYLINE
8
Halfen
62
7
66
1
10
0.0
20
0.0
30
0.0
70
1
0
VERTEX
8
Halfen
62
7
10
 152
20
 60
30
0
0
VERTEX
8
Halfen
62
7
10
 152
20
 62
30
0
0
VERTEX
8
Halfen
62
7
10
 140
20
 62
30
0
0
VERTEX
8
Halfen
62
7
10
 140
20
 60
30
0
0
SEQEND
8
Halfen
0
POLYLINE
8
Halfen
62
7
66
1
10
0.0
20
0.0
30
0.0
70
1
0
VERTEX
8
Halfen
62
7
10
 151.25
20
 62
30
0
0
VERTEX
8
Halfen
62
7
10
 151.25
20
 160
30
0
0
VERTEX
8
Halfen
62
7
10
 140.75
20
 160
30
0
0
VERTEX
8
Halfen
62
7
10
 140.75
20
 62
30
0
0
SEQEND
8
Halfen
0
POLYLINE
8
Halfen
62
7
66
1
10
0.0
20
0.0
30
0.0
70
1
0
VERTEX
8
Halfen
62
7
10
 152
20
 160
30
0
0
VERTEX
8
Halfen
62
7
10
 152
20
 775
30
0
0
VERTEX
8
Halfen
62
7
10
 140
20
 775
30
0
0
VERTEX
8
Halfen
62
7
10
 140
20
 160
30
0
0
SEQEND
8
Halfen
0
POLYLINE
8
Halfen
62
7
66
1
10
0.0
20
0.0
30
0.0
70
1
0
VERTEX
8
Halfen
62
7
10
 98
20
-579.398
30
0
0
VERTEX
8
Halfen
62
7
10
 98
20
 592.368
30
0
0
VERTEX
8
Halfen
62
7
10
 90
20
 592.368
30
0
0
VERTEX
8
Halfen
62
7
10
 90
20
-579.398
30
0
0
SEQEND
8
Halfen
0
POLYLINE
8
Halfen
62
7
66
1
10
0.0
20
0.0
30
0.0
70
1
0
VERTEX
8
Halfen
62
7
10
 106
20
-592.368
30
0
0
VERTEX
8
Halfen
62
7
10
 106
20
 579.398
30
0
0
VERTEX
8
Halfen
62
7
10
 98
20
 579.398
30
0
0
VERTEX
8
Halfen
62
7
10
 98
20
-592.368
30
0
0
SEQEND
8
Halfen
0
POLYLINE
8
Halfen
62
7
66
1
10
0.0
20
0.0
30
0.0
70
1
0
VERTEX
8
Halfen
62
7
10
 720
20
-60
30
0
0
VERTEX
8
Halfen
62
7
10
 720
20
 60
30
0
0
VERTEX
8
Halfen
62
7
10
 706.5
20
 73.5
30
0
0
VERTEX
8
Halfen
62
7
10
 706.5
20
 60
30
0
0
VERTEX
8
Halfen
62
7
10
 520
20
 60
30
0
0
VERTEX
8
Halfen
62
7
10
 520
20
-60
30
0
0
VERTEX
8
Halfen
62
7
10
 706.5
20
-60
30
0
0
VERTEX
8
Halfen
62
7
10
 706.5
20
-73.5
30
0
0
SEQEND
8
Halfen
0
POLYLINE
8
Halfen
62
7
66
1
10
0.0
20
0.0
30
0.0
70
1
0
VERTEX
8
Halfen
62
7
10
 520
20
-60
30
0
0
VERTEX
8
Halfen
62
7
10
 520
20
 60
30
0
0
VERTEX
8
Halfen
62
7
10
 463.5
20
 60
30
0
0
VERTEX
8
Halfen
62
7
10
 463.5
20
 73.5
30
0
0
VERTEX
8
Halfen
62
7
10
 450
20
 60
30
0
0
VERTEX
8
Halfen
62
7
10
 450
20
-60
30
0
0
VERTEX
8
Halfen
62
7
10
 463.5
20
-73.5
30
0
0
VERTEX
8
Halfen
62
7
10
 463.5
20
-60
30
0
0
SEQEND
8
Halfen
0
POLYLINE
8
Halfen
62
7
66
1
10
0.0
20
0.0
30
0.0
70
1
0
VERTEX
8
Halfen
62
7
10
 717.5
20
-58.75
30
0
0
VERTEX
8
Halfen
62
7
10
 717.5
20
 58.75
30
0
0
VERTEX
8
Halfen
62
7
10
 709
20
 67.25
30
0
0
VERTEX
8
Halfen
62
7
10
 709
20
 58
30
0
0
VERTEX
8
Halfen
62
7
10
 522
20
 58
30
0
0
VERTEX
8
Halfen
62
7
10
 522
20
-58
30
0
0
VERTEX
8
Halfen
62
7
10
 709
20
-58
30
0
0
VERTEX
8
Halfen
62
7
10
 709
20
-67.25
30
0
0
SEQEND
8
Halfen
0
POLYLINE
8
Halfen
62
7
66
1
10
0.0
20
0.0
30
0.0
70
1
0
VERTEX
8
Halfen
62
7
10
 518
20
-58
30
0
0
VERTEX
8
Halfen
62
7
10
 518
20
 58
30
0
0
VERTEX
8
Halfen
62
7
10
 461
20
 58
30
0
0
VERTEX
8
Halfen
62
7
10
 461
20
 67.25
30
0
0
VERTEX
8
Halfen
62
7
10
 452.5
20
 58.75
30
0
0
VERTEX
8
Halfen
62
7
10
 452.5
20
-58.75
30
0
0
VERTEX
8
Halfen
62
7
10
 461
20
-67.25
30
0
0
VERTEX
8
Halfen
62
7
10
 461
20
-58
30
0
0
SEQEND
8
Halfen
0
POLYLINE
8
Halfen
62
7
66
1
10
0.0
20
0.0
30
0.0
70
1
0
VERTEX
8
Halfen
62
7
10
 512
20
-775
30
0
0
VERTEX
8
Halfen
62
7
10
 512
20
-160
30
0
0
VERTEX
8
Halfen
62
7
10
 500
20
-160
30
0
0
VERTEX
8
Halfen
62
7
10
 500
20
-775
30
0
0
SEQEND
8
Halfen
0
POLYLINE
8
Halfen
62
7
66
1
10
0.0
20
0.0
30
0.0
70
1
0
VERTEX
8
Halfen
62
7
10
 511.25
20
-160
30
0
0
VERTEX
8
Halfen
62
7
10
 511.25
20
-62
30
0
0
VERTEX
8
Halfen
62
7
10
 500.75
20
-62
30
0
0
VERTEX
8
Halfen
62
7
10
 500.75
20
-160
30
0
0
SEQEND
8
Halfen
0
POLYLINE
8
Halfen
62
7
66
1
10
0.0
20
0.0
30
0.0
70
1
0
VERTEX
8
Halfen
62
7
10
 512
20
-62
30
0
0
VERTEX
8
Halfen
62
7
10
 512
20
-60
30
0
0
VERTEX
8
Halfen
62
7
10
 500
20
-60
30
0
0
VERTEX
8
Halfen
62
7
10
 500
20
-62
30
0
0
SEQEND
8
Halfen
0
POLYLINE
8
Halfen
62
7
66
1
10
0.0
20
0.0
30
0.0
70
1
0
VERTEX
8
Halfen
62
7
10
 511.25
20
-60
30
0
0
VERTEX
8
Halfen
62
7
10
 511.25
20
 60
30
0
0
VERTEX
8
Halfen
62
7
10
 500.75
20
 60
30
0
0
VERTEX
8
Halfen
62
7
10
 500.75
20
-60
30
0
0
SEQEND
8
Halfen
0
POLYLINE
8
Halfen
62
7
66
1
10
0.0
20
0.0
30
0.0
70
1
0
VERTEX
8
Halfen
62
7
10
 512
20
 60
30
0
0
VERTEX
8
Halfen
62
7
10
 512
20
 62
30
0
0
VERTEX
8
Halfen
62
7
10
 500
20
 62
30
0
0
VERTEX
8
Halfen
62
7
10
 500
20
 60
30
0
0
SEQEND
8
Halfen
0
POLYLINE
8
Halfen
62
7
66
1
10
0.0
20
0.0
30
0.0
70
1
0
VERTEX
8
Halfen
62
7
10
 511.25
20
 62
30
0
0
VERTEX
8
Halfen
62
7
10
 511.25
20
 160
30
0
0
VERTEX
8
Halfen
62
7
10
 500.75
20
 160
30
0
0
VERTEX
8
Halfen
62
7
10
 500.75
20
 62
30
0
0
SEQEND
8
Halfen
0
POLYLINE
8
Halfen
62
7
66
1
10
0.0
20
0.0
30
0.0
70
1
0
VERTEX
8
Halfen
62
7
10
 512
20
 160
30
0
0
VERTEX
8
Halfen
62
7
10
 512
20
 775
30
0
0
VERTEX
8
Halfen
62
7
10
 500
20
 775
30
0
0
VERTEX
8
Halfen
62
7
10
 500
20
 160
30
0
0
SEQEND
8
Halfen
0
POLYLINE
8
Halfen
62
7
66
1
10
0.0
20
0.0
30
0.0
70
1
0
VERTEX
8
Halfen
62
7
10
 690
20
-775
30
0
0
VERTEX
8
Halfen
62
7
10
 690
20
-160
30
0
0
VERTEX
8
Halfen
62
7
10
 678
20
-160
30
0
0
VERTEX
8
Halfen
62
7
10
 678
20
-775
30
0
0
SEQEND
8
Halfen
0
POLYLINE
8
Halfen
62
7
66
1
10
0.0
20
0.0
30
0.0
70
1
0
VERTEX
8
Halfen
62
7
10
 689.25
20
-160
30
0
0
VERTEX
8
Halfen
62
7
10
 689.25
20
-62
30
0
0
VERTEX
8
Halfen
62
7
10
 678.75
20
-62
30
0
0
VERTEX
8
Halfen
62
7
10
 678.75
20
-160
30
0
0
SEQEND
8
Halfen
0
POLYLINE
8
Halfen
62
7
66
1
10
0.0
20
0.0
30
0.0
70
1
0
VERTEX
8
Halfen
62
7
10
 690
20
-62
30
0
0
VERTEX
8
Halfen
62
7
10
 690
20
-60
30
0
0
VERTEX
8
Halfen
62
7
10
 678
20
-60
30
0
0
VERTEX
8
Halfen
62
7
10
 678
20
-62
30
0
0
SEQEND
8
Halfen
0
POLYLINE
8
Halfen
62
7
66
1
10
0.0
20
0.0
30
0.0
70
1
0
VERTEX
8
Halfen
62
7
10
 689.25
20
-60
30
0
0
VERTEX
8
Halfen
62
7
10
 689.25
20
 60
30
0
0
VERTEX
8
Halfen
62
7
10
 678.75
20
 60
30
0
0
VERTEX
8
Halfen
62
7
10
 678.75
20
-60
30
0
0
SEQEND
8
Halfen
0
POLYLINE
8
Halfen
62
7
66
1
10
0.0
20
0.0
30
0.0
70
1
0
VERTEX
8
Halfen
62
7
10
 690
20
 60
30
0
0
VERTEX
8
Halfen
62
7
10
 690
20
 62
30
0
0
VERTEX
8
Halfen
62
7
10
 678
20
 62
30
0
0
VERTEX
8
Halfen
62
7
10
 678
20
 60
30
0
0
SEQEND
8
Halfen
0
POLYLINE
8
Halfen
62
7
66
1
10
0.0
20
0.0
30
0.0
70
1
0
VERTEX
8
Halfen
62
7
10
 689.25
20
 62
30
0
0
VERTEX
8
Halfen
62
7
10
 689.25
20
 160
30
0
0
VERTEX
8
Halfen
62
7
10
 678.75
20
 160
30
0
0
VERTEX
8
Halfen
62
7
10
 678.75
20
 62
30
0
0
SEQEND
8
Halfen
0
POLYLINE
8
Halfen
62
7
66
1
10
0.0
20
0.0
30
0.0
70
1
0
VERTEX
8
Halfen
62
7
10
 690
20
 160
30
0
0
VERTEX
8
Halfen
62
7
10
 690
20
 775
30
0
0
VERTEX
8
Halfen
62
7
10
 678
20
 775
30
0
0
VERTEX
8
Halfen
62
7
10
 678
20
 160
30
0
0
SEQEND
8
Halfen
0
POLYLINE
8
Halfen
62
7
66
1
10
0.0
20
0.0
30
0.0
70
1
0
VERTEX
8
Halfen
62
7
10
 690
20
-579.398
30
0
0
VERTEX
8
Halfen
62
7
10
 690
20
-91.113
30
0
0
VERTEX
8
Halfen
62
7
10
 689.606
20
-86.107
30
0
0
VERTEX
8
Halfen
62
7
10
 688.434
20
-81.224
30
0
0
VERTEX
8
Halfen
62
7
10
 686.512
20
-76.585
30
0
0
VERTEX
8
Halfen
62
7
10
 683.889
20
-72.304
30
0
0
VERTEX
8
Halfen
62
7
10
 680.627
20
-68.485
30
0
0
VERTEX
8
Halfen
62
7
10
 525.029
20
 87.113
30
0
0
VERTEX
8
Halfen
62
7
10
 522.584
20
 89.976
30
0
0
VERTEX
8
Halfen
62
7
10
 520.616
20
 93.187
30
0
0
VERTEX
8
Halfen
62
7
10
 519.175
20
 96.667
30
0
0
VERTEX
8
Halfen
62
7
10
 518.295
20
 100.329
30
0
0
VERTEX
8
Halfen
62
7
10
 518
20
 104.083
30
0
0
VERTEX
8
Halfen
62
7
10
 518
20
 592.368
30
0
0
VERTEX
8
Halfen
62
7
10
 510
20
 592.368
30
0
0
VERTEX
8
Halfen
62
7
10
 510
20
 104.083
30
0
0
VERTEX
8
Halfen
62
7
10
 510.394
20
 99.077
30
0
0
VERTEX
8
Halfen
62
7
10
 511.566
20
 94.195
30
0
0
VERTEX
8
Halfen
62
7
10
 513.488
20
 89.556
30
0
0
VERTEX
8
Halfen
62
7
10
 516.111
20
 85.274
30
0
0
VERTEX
8
Halfen
62
7
10
 519.373
20
 81.456
30
0
0
VERTEX
8
Halfen
62
7
10
 674.971
20
-74.142
30
0
0
VERTEX
8
Halfen
62
7
10
 677.416
20
-77.006
30
0
0
VERTEX
8
Halfen
62
7
10
 679.384
20
-80.217
30
0
0
VERTEX
8
Halfen
62
7
10
 680.825
20
-83.696
30
0
0
VERTEX
8
Halfen
62
7
10
 681.705
20
-87.358
30
0
0
VERTEX
8
Halfen
62
7
10
 682
20
-91.113
30
0
0
VERTEX
8
Halfen
62
7
10
 682
20
-579.398
30
0
0
SEQEND
8
Halfen
0
POLYLINE
8
Halfen
62
7
66
1
10
0.0
20
0.0
30
0.0
70
1
0
VERTEX
8
Halfen
62
7
10
 510
20
-592.368
30
0
0
VERTEX
8
Halfen
62
7
10
 510
20
-104.083
30
0
0
VERTEX
8
Halfen
62
7
10
 510.394
20
-99.077
30
0
0
VERTEX
8
Halfen
62
7
10
 511.566
20
-94.195
30
0
0
VERTEX
8
Halfen
62
7
10
 513.488
20
-89.556
30
0
0
VERTEX
8
Halfen
62
7
10
 516.111
20
-85.274
30
0
0
VERTEX
8
Halfen
62
7
10
 519.373
20
-81.456
30
0
0
VERTEX
8
Halfen
62
7
10
 674.971
20
 74.142
30
0
0
VERTEX
8
Halfen
62
7
10
 677.416
20
 77.006
30
0
0
VERTEX
8
Halfen
62
7
10
 679.384
20
 80.217
30
0
0
VERTEX
8
Halfen
62
7
10
 680.825
20
 83.696
30
0
0
VERTEX
8
Halfen
62
7
10
 681.705
20
 87.358
30
0
0
VERTEX
8
Halfen
62
7
10
 682
20
 91.113
30
0
0
VERTEX
8
Halfen
62
7
10
 682
20
 579.398
30
0
0
VERTEX
8
Halfen
62
7
10
 690
20
 579.398
30
0
0
VERTEX
8
Halfen
62
7
10
 690
20
 91.113
30
0
0
VERTEX
8
Halfen
62
7
10
 689.606
20
 86.107
30
0
0
VERTEX
8
Halfen
62
7
10
 688.434
20
 81.224
30
0
0
VERTEX
8
Halfen
62
7
10
 686.512
20
 76.585
30
0
0
VERTEX
8
Halfen
62
7
10
 683.889
20
 72.304
30
0
0
VERTEX
8
Halfen
62
7
10
 680.627
20
 68.485
30
0
0
VERTEX
8
Halfen
62
7
10
 525.029
20
-87.113
30
0
0
VERTEX
8
Halfen
62
7
10
 522.584
20
-89.976
30
0
0
VERTEX
8
Halfen
62
7
10
 520.616
20
-93.187
30
0
0
VERTEX
8
Halfen
62
7
10
 519.175
20
-96.667
30
0
0
VERTEX
8
Halfen
62
7
10
 518.295
20
-100.329
30
0
0
VERTEX
8
Halfen
62
7
10
 518
20
-104.083
30
0
0
VERTEX
8
Halfen
62
7
10
 518
20
-592.368
30
0
0
SEQEND
8
Halfen
0
ENDSEC
0
EOF
