0
SECTION
2
HEADER
9
$EXTMIN
10
 0
20
 100
30
0.0
9
$EXTMAX
10
 0
20
 100
30
0.0
9
$LIMMIN
10
 100
20
 0
9
$LIMMAX
10
 0
20
 100
9
$PSLTSCALE
70
1
0
ENDSEC
0
SECTION
2
TABLES
0
TABLE
2
LAYER
70
2
0
LAYER
2
0
70
0
62
7
6
CONTINUOUS
0
LAYER
2
Halfen
70
0
62
7
6
CONTINUOUS
0
ENDTAB
0
ENDSEC
0
SECTION
2
ENTITIES
0
POLYLINE
8
Halfen
62
7
66
1
10
0.0
20
0.0
30
0.0
70
1
0
VERTEX
8
Halfen
62
7
10
 0
20
-73.5
30
0
0
VERTEX
8
Halfen
62
7
10
 500
20
-73.5
30
0
0
VERTEX
8
Halfen
62
7
10
 500
20
 73.5
30
0
0
VERTEX
8
Halfen
62
7
10
 0
20
 73.5
30
0
0
SEQEND
8
Halfen
0
POLYLINE
8
Halfen
62
7
66
1
10
0.0
20
0.0
30
0.0
70
1
0
VERTEX
8
Halfen
62
7
10
 0
20
-60
30
0
0
VERTEX
8
Halfen
62
7
10
 500
20
-60
30
0
0
VERTEX
8
Halfen
62
7
10
 500
20
 60
30
0
0
VERTEX
8
Halfen
62
7
10
 0
20
 60
30
0
0
SEQEND
8
Halfen
0
POLYLINE
8
Halfen
62
7
66
1
10
0.0
20
0.0
30
0.0
70
1
0
VERTEX
8
Halfen
62
7
10
 20
20
-32.5
30
0
0
VERTEX
8
Halfen
62
7
10
 37
20
-1.5
30
0
0
VERTEX
8
Halfen
62
7
10
 28
20
-1.5
30
0
0
VERTEX
8
Halfen
62
7
10
 28
20
 32.5
30
0
0
VERTEX
8
Halfen
62
7
10
 12
20
 32.5
30
0
0
VERTEX
8
Halfen
62
7
10
 12
20
-1.5
30
0
0
VERTEX
8
Halfen
62
7
10
 3
20
-1.5
30
0
0
SEQEND
8
Halfen
0
POLYLINE
8
Halfen
62
7
66
1
10
0.0
20
0.0
30
0.0
70
1
0
VERTEX
8
Halfen
62
7
10
 480
20
-32.5
30
0
0
VERTEX
8
Halfen
62
7
10
 497
20
-1.5
30
0
0
VERTEX
8
Halfen
62
7
10
 488
20
-1.5
30
0
0
VERTEX
8
Halfen
62
7
10
 488
20
 32.5
30
0
0
VERTEX
8
Halfen
62
7
10
 472
20
 32.5
30
0
0
VERTEX
8
Halfen
62
7
10
 472
20
-1.5
30
0
0
VERTEX
8
Halfen
62
7
10
 463
20
-1.5
30
0
0
SEQEND
8
Halfen
0
POLYLINE
8
Halfen
62
7
66
1
10
0.0
20
0.0
30
0.0
70
1
0
VERTEX
8
Halfen
62
7
10
 87
20
-456.177
30
0
0
VERTEX
8
Halfen
62
7
10
 87
20
 216.147
30
0
0
VERTEX
8
Halfen
62
7
10
 81
20
 216.147
30
0
0
VERTEX
8
Halfen
62
7
10
 81
20
-456.177
30
0
0
SEQEND
8
Halfen
0
POLYLINE
8
Halfen
62
7
66
1
10
0.0
20
0.0
30
0.0
70
1
0
VERTEX
8
Halfen
62
7
10
 173
20
-456.177
30
0
0
VERTEX
8
Halfen
62
7
10
 173
20
 216.147
30
0
0
VERTEX
8
Halfen
62
7
10
 167
20
 216.147
30
0
0
VERTEX
8
Halfen
62
7
10
 167
20
-456.177
30
0
0
SEQEND
8
Halfen
0
POLYLINE
8
Halfen
62
7
66
1
10
0.0
20
0.0
30
0.0
70
1
0
VERTEX
8
Halfen
62
7
10
 259
20
-456.177
30
0
0
VERTEX
8
Halfen
62
7
10
 259
20
 216.147
30
0
0
VERTEX
8
Halfen
62
7
10
 253
20
 216.147
30
0
0
VERTEX
8
Halfen
62
7
10
 253
20
-456.177
30
0
0
SEQEND
8
Halfen
0
POLYLINE
8
Halfen
62
7
66
1
10
0.0
20
0.0
30
0.0
70
1
0
VERTEX
8
Halfen
62
7
10
 345
20
-456.177
30
0
0
VERTEX
8
Halfen
62
7
10
 345
20
 216.147
30
0
0
VERTEX
8
Halfen
62
7
10
 339
20
 216.147
30
0
0
VERTEX
8
Halfen
62
7
10
 339
20
-456.177
30
0
0
SEQEND
8
Halfen
0
POLYLINE
8
Halfen
62
7
66
1
10
0.0
20
0.0
30
0.0
70
1
0
VERTEX
8
Halfen
62
7
10
 431
20
-456.177
30
0
0
VERTEX
8
Halfen
62
7
10
 431
20
 216.147
30
0
0
VERTEX
8
Halfen
62
7
10
 425
20
 216.147
30
0
0
VERTEX
8
Halfen
62
7
10
 425
20
-456.177
30
0
0
SEQEND
8
Halfen
0
POLYLINE
8
Halfen
62
7
66
1
10
0.0
20
0.0
30
0.0
70
1
0
VERTEX
8
Halfen
62
7
10
 970
20
-60
30
0
0
VERTEX
8
Halfen
62
7
10
 970
20
 60
30
0
0
VERTEX
8
Halfen
62
7
10
 956.5
20
 73.5
30
0
0
VERTEX
8
Halfen
62
7
10
 956.5
20
 60
30
0
0
VERTEX
8
Halfen
62
7
10
 750
20
 60
30
0
0
VERTEX
8
Halfen
62
7
10
 750
20
-60
30
0
0
VERTEX
8
Halfen
62
7
10
 956.5
20
-60
30
0
0
VERTEX
8
Halfen
62
7
10
 956.5
20
-73.5
30
0
0
SEQEND
8
Halfen
0
POLYLINE
8
Halfen
62
7
66
1
10
0.0
20
0.0
30
0.0
70
1
0
VERTEX
8
Halfen
62
7
10
 750
20
-60
30
0
0
VERTEX
8
Halfen
62
7
10
 750
20
 60
30
0
0
VERTEX
8
Halfen
62
7
10
 713.5
20
 60
30
0
0
VERTEX
8
Halfen
62
7
10
 713.5
20
 73.5
30
0
0
VERTEX
8
Halfen
62
7
10
 700
20
 60
30
0
0
VERTEX
8
Halfen
62
7
10
 700
20
-60
30
0
0
VERTEX
8
Halfen
62
7
10
 713.5
20
-73.5
30
0
0
VERTEX
8
Halfen
62
7
10
 713.5
20
-60
30
0
0
SEQEND
8
Halfen
0
POLYLINE
8
Halfen
62
7
66
1
10
0.0
20
0.0
30
0.0
70
1
0
VERTEX
8
Halfen
62
7
10
 967.5
20
-58.75
30
0
0
VERTEX
8
Halfen
62
7
10
 967.5
20
 58.75
30
0
0
VERTEX
8
Halfen
62
7
10
 959
20
 67.25
30
0
0
VERTEX
8
Halfen
62
7
10
 959
20
 58
30
0
0
VERTEX
8
Halfen
62
7
10
 752
20
 58
30
0
0
VERTEX
8
Halfen
62
7
10
 752
20
-58
30
0
0
VERTEX
8
Halfen
62
7
10
 959
20
-58
30
0
0
VERTEX
8
Halfen
62
7
10
 959
20
-67.25
30
0
0
SEQEND
8
Halfen
0
POLYLINE
8
Halfen
62
7
66
1
10
0.0
20
0.0
30
0.0
70
1
0
VERTEX
8
Halfen
62
7
10
 748
20
-58
30
0
0
VERTEX
8
Halfen
62
7
10
 748
20
 58
30
0
0
VERTEX
8
Halfen
62
7
10
 711
20
 58
30
0
0
VERTEX
8
Halfen
62
7
10
 711
20
 67.25
30
0
0
VERTEX
8
Halfen
62
7
10
 702.5
20
 58.75
30
0
0
VERTEX
8
Halfen
62
7
10
 702.5
20
-58.75
30
0
0
VERTEX
8
Halfen
62
7
10
 711
20
-67.25
30
0
0
VERTEX
8
Halfen
62
7
10
 711
20
-58
30
0
0
SEQEND
8
Halfen
0
POLYLINE
8
Halfen
62
7
66
1
10
0.0
20
0.0
30
0.0
70
1
0
VERTEX
8
Halfen
62
7
10
 940
20
-456.177
30
0
0
VERTEX
8
Halfen
62
7
10
 940
20
-81.213
30
0
0
VERTEX
8
Halfen
62
7
10
 939.705
20
-77.459
30
0
0
VERTEX
8
Halfen
62
7
10
 938.825
20
-73.797
30
0
0
VERTEX
8
Halfen
62
7
10
 937.384
20
-70.317
30
0
0
VERTEX
8
Halfen
62
7
10
 935.416
20
-67.106
30
0
0
VERTEX
8
Halfen
62
7
10
 932.971
20
-64.243
30
0
0
VERTEX
8
Halfen
62
7
10
 791.272
20
 77.456
30
0
0
VERTEX
8
Halfen
62
7
10
 789.438
20
 79.604
30
0
0
VERTEX
8
Halfen
62
7
10
 787.962
20
 82.012
30
0
0
VERTEX
8
Halfen
62
7
10
 786.881
20
 84.621
30
0
0
VERTEX
8
Halfen
62
7
10
 786.222
20
 87.368
30
0
0
VERTEX
8
Halfen
62
7
10
 786
20
 90.184
30
0
0
VERTEX
8
Halfen
62
7
10
 786
20
 192.147
30
0
0
VERTEX
8
Halfen
62
7
10
 786.222
20
 194.963
30
0
0
VERTEX
8
Halfen
62
7
10
 786.881
20
 197.71
30
0
0
VERTEX
8
Halfen
62
7
10
 787.962
20
 200.319
30
0
0
VERTEX
8
Halfen
62
7
10
 789.438
20
 202.728
30
0
0
VERTEX
8
Halfen
62
7
10
 791.272
20
 204.875
30
0
0
VERTEX
8
Halfen
62
7
10
 793.42
20
 206.71
30
0
0
VERTEX
8
Halfen
62
7
10
 795.828
20
 208.186
30
0
0
VERTEX
8
Halfen
62
7
10
 798.438
20
 209.266
30
0
0
VERTEX
8
Halfen
62
7
10
 801.184
20
 209.926
30
0
0
VERTEX
8
Halfen
62
7
10
 804
20
 210.147
30
0
0
VERTEX
8
Halfen
62
7
10
 875
20
 210.147
30
0
0
VERTEX
8
Halfen
62
7
10
 875
20
 216.147
30
0
0
VERTEX
8
Halfen
62
7
10
 804
20
 216.147
30
0
0
VERTEX
8
Halfen
62
7
10
 800.246
20
 215.852
30
0
0
VERTEX
8
Halfen
62
7
10
 796.584
20
 214.973
30
0
0
VERTEX
8
Halfen
62
7
10
 793.104
20
 213.532
30
0
0
VERTEX
8
Halfen
62
7
10
 789.893
20
 211.564
30
0
0
VERTEX
8
Halfen
62
7
10
 787.029
20
 209.118
30
0
0
VERTEX
8
Halfen
62
7
10
 784.584
20
 206.254
30
0
0
VERTEX
8
Halfen
62
7
10
 782.616
20
 203.043
30
0
0
VERTEX
8
Halfen
62
7
10
 781.175
20
 199.564
30
0
0
VERTEX
8
Halfen
62
7
10
 780.295
20
 195.902
30
0
0
VERTEX
8
Halfen
62
7
10
 780
20
 192.147
30
0
0
VERTEX
8
Halfen
62
7
10
 780
20
 90.184
30
0
0
VERTEX
8
Halfen
62
7
10
 780.295
20
 86.429
30
0
0
VERTEX
8
Halfen
62
7
10
 781.175
20
 82.767
30
0
0
VERTEX
8
Halfen
62
7
10
 782.616
20
 79.288
30
0
0
VERTEX
8
Halfen
62
7
10
 784.584
20
 76.077
30
0
0
VERTEX
8
Halfen
62
7
10
 787.029
20
 73.213
30
0
0
VERTEX
8
Halfen
62
7
10
 928.728
20
-68.485
30
0
0
VERTEX
8
Halfen
62
7
10
 930.562
20
-70.633
30
0
0
VERTEX
8
Halfen
62
7
10
 932.038
20
-73.041
30
0
0
VERTEX
8
Halfen
62
7
10
 933.119
20
-75.651
30
0
0
VERTEX
8
Halfen
62
7
10
 933.778
20
-78.397
30
0
0
VERTEX
8
Halfen
62
7
10
 934
20
-81.213
30
0
0
VERTEX
8
Halfen
62
7
10
 934
20
-456.177
30
0
0
SEQEND
8
Halfen
0
ENDSEC
0
EOF
