0
SECTION
2
HEADER
9
$EXTMIN
10
 0
20
 100
30
0.0
9
$EXTMAX
10
 0
20
 100
30
0.0
9
$LIMMIN
10
 100
20
 0
9
$LIMMAX
10
 0
20
 100
9
$PSLTSCALE
70
1
0
ENDSEC
0
SECTION
2
TABLES
0
TABLE
2
LAYER
70
2
0
LAYER
2
0
70
0
62
7
6
CONTINUOUS
0
LAYER
2
Halfen
70
0
62
7
6
CONTINUOUS
0
ENDTAB
0
ENDSEC
0
SECTION
2
ENTITIES
0
POLYLINE
8
Halfen
62
7
66
1
10
0.0
20
0.0
30
0.0
70
1
0
VERTEX
8
Halfen
62
7
10
 0
20
-73.5
30
0
0
VERTEX
8
Halfen
62
7
10
 500
20
-73.5
30
0
0
VERTEX
8
Halfen
62
7
10
 500
20
 73.5
30
0
0
VERTEX
8
Halfen
62
7
10
 0
20
 73.5
30
0
0
SEQEND
8
Halfen
0
POLYLINE
8
Halfen
62
7
66
1
10
0.0
20
0.0
30
0.0
70
1
0
VERTEX
8
Halfen
62
7
10
 0
20
-60
30
0
0
VERTEX
8
Halfen
62
7
10
 500
20
-60
30
0
0
VERTEX
8
Halfen
62
7
10
 500
20
 60
30
0
0
VERTEX
8
Halfen
62
7
10
 0
20
 60
30
0
0
SEQEND
8
Halfen
0
POLYLINE
8
Halfen
62
7
66
1
10
0.0
20
0.0
30
0.0
70
1
0
VERTEX
8
Halfen
62
7
10
 20
20
-32.5
30
0
0
VERTEX
8
Halfen
62
7
10
 37
20
-1.5
30
0
0
VERTEX
8
Halfen
62
7
10
 28
20
-1.5
30
0
0
VERTEX
8
Halfen
62
7
10
 28
20
 32.5
30
0
0
VERTEX
8
Halfen
62
7
10
 12
20
 32.5
30
0
0
VERTEX
8
Halfen
62
7
10
 12
20
-1.5
30
0
0
VERTEX
8
Halfen
62
7
10
 3
20
-1.5
30
0
0
SEQEND
8
Halfen
0
POLYLINE
8
Halfen
62
7
66
1
10
0.0
20
0.0
30
0.0
70
1
0
VERTEX
8
Halfen
62
7
10
 480
20
-32.5
30
0
0
VERTEX
8
Halfen
62
7
10
 497
20
-1.5
30
0
0
VERTEX
8
Halfen
62
7
10
 488
20
-1.5
30
0
0
VERTEX
8
Halfen
62
7
10
 488
20
 32.5
30
0
0
VERTEX
8
Halfen
62
7
10
 472
20
 32.5
30
0
0
VERTEX
8
Halfen
62
7
10
 472
20
-1.5
30
0
0
VERTEX
8
Halfen
62
7
10
 463
20
-1.5
30
0
0
SEQEND
8
Halfen
0
POLYLINE
8
Halfen
62
7
66
1
10
0.0
20
0.0
30
0.0
70
1
0
VERTEX
8
Halfen
62
7
10
 97
20
-69.3
30
0
0
VERTEX
8
Halfen
62
7
10
 97
20
-56.8
30
0
0
VERTEX
8
Halfen
62
7
10
 97
20
 69.3
30
0
0
VERTEX
8
Halfen
62
7
10
 96.958
20
 70.359
30
0
0
VERTEX
8
Halfen
62
7
10
 96.834
20
 71.412
30
0
0
VERTEX
8
Halfen
62
7
10
 96.627
20
 72.452
30
0
0
VERTEX
8
Halfen
62
7
10
 96.339
20
 73.472
30
0
0
VERTEX
8
Halfen
62
7
10
 95.972
20
 74.466
30
0
0
VERTEX
8
Halfen
62
7
10
 95.529
20
 75.429
30
0
0
VERTEX
8
Halfen
62
7
10
 95.011
20
 76.354
30
0
0
VERTEX
8
Halfen
62
7
10
 94.422
20
 77.235
30
0
0
VERTEX
8
Halfen
62
7
10
 93.765
20
 78.068
30
0
0
VERTEX
8
Halfen
62
7
10
 93.046
20
 78.846
30
0
0
VERTEX
8
Halfen
62
7
10
 92.268
20
 79.565
30
0
0
VERTEX
8
Halfen
62
7
10
 91.435
20
 80.222
30
0
0
VERTEX
8
Halfen
62
7
10
 90.554
20
 80.811
30
0
0
VERTEX
8
Halfen
62
7
10
 89.629
20
 81.329
30
0
0
VERTEX
8
Halfen
62
7
10
 88.666
20
 81.772
30
0
0
VERTEX
8
Halfen
62
7
10
 87.672
20
 82.139
30
0
0
VERTEX
8
Halfen
62
7
10
 86.652
20
 82.427
30
0
0
VERTEX
8
Halfen
62
7
10
 85.612
20
 82.634
30
0
0
VERTEX
8
Halfen
62
7
10
 84.559
20
 82.758
30
0
0
VERTEX
8
Halfen
62
7
10
 83.5
20
 82.8
30
0
0
VERTEX
8
Halfen
62
7
10
 80.5
20
 82.8
30
0
0
VERTEX
8
Halfen
62
7
10
 79.441
20
 82.758
30
0
0
VERTEX
8
Halfen
62
7
10
 78.388
20
 82.634
30
0
0
VERTEX
8
Halfen
62
7
10
 77.348
20
 82.427
30
0
0
VERTEX
8
Halfen
62
7
10
 76.328
20
 82.139
30
0
0
VERTEX
8
Halfen
62
7
10
 75.334
20
 81.772
30
0
0
VERTEX
8
Halfen
62
7
10
 74.371
20
 81.329
30
0
0
VERTEX
8
Halfen
62
7
10
 73.446
20
 80.811
30
0
0
VERTEX
8
Halfen
62
7
10
 72.565
20
 80.222
30
0
0
VERTEX
8
Halfen
62
7
10
 71.732
20
 79.565
30
0
0
VERTEX
8
Halfen
62
7
10
 70.954
20
 78.846
30
0
0
VERTEX
8
Halfen
62
7
10
 70.235
20
 78.068
30
0
0
VERTEX
8
Halfen
62
7
10
 69.578
20
 77.235
30
0
0
VERTEX
8
Halfen
62
7
10
 68.989
20
 76.354
30
0
0
VERTEX
8
Halfen
62
7
10
 68.471
20
 75.429
30
0
0
VERTEX
8
Halfen
62
7
10
 68.028
20
 74.466
30
0
0
VERTEX
8
Halfen
62
7
10
 67.661
20
 73.472
30
0
0
VERTEX
8
Halfen
62
7
10
 67.373
20
 72.452
30
0
0
VERTEX
8
Halfen
62
7
10
 67.166
20
 71.412
30
0
0
VERTEX
8
Halfen
62
7
10
 67.042
20
 70.359
30
0
0
VERTEX
8
Halfen
62
7
10
 67
20
 69.3
30
0
0
VERTEX
8
Halfen
62
7
10
 67
20
-56.8
30
0
0
VERTEX
8
Halfen
62
7
10
 67
20
-69.3
30
0
0
VERTEX
8
Halfen
62
7
10
 67.042
20
-70.359
30
0
0
VERTEX
8
Halfen
62
7
10
 67.166
20
-71.412
30
0
0
VERTEX
8
Halfen
62
7
10
 67.373
20
-72.452
30
0
0
VERTEX
8
Halfen
62
7
10
 67.661
20
-73.472
30
0
0
VERTEX
8
Halfen
62
7
10
 68.028
20
-74.466
30
0
0
VERTEX
8
Halfen
62
7
10
 68.471
20
-75.429
30
0
0
VERTEX
8
Halfen
62
7
10
 68.989
20
-76.354
30
0
0
VERTEX
8
Halfen
62
7
10
 69.578
20
-77.235
30
0
0
VERTEX
8
Halfen
62
7
10
 70.235
20
-78.068
30
0
0
VERTEX
8
Halfen
62
7
10
 70.954
20
-78.846
30
0
0
VERTEX
8
Halfen
62
7
10
 71.732
20
-79.565
30
0
0
VERTEX
8
Halfen
62
7
10
 72.565
20
-80.222
30
0
0
VERTEX
8
Halfen
62
7
10
 73.446
20
-80.811
30
0
0
VERTEX
8
Halfen
62
7
10
 74.371
20
-81.329
30
0
0
VERTEX
8
Halfen
62
7
10
 75.334
20
-81.772
30
0
0
VERTEX
8
Halfen
62
7
10
 76.328
20
-82.139
30
0
0
VERTEX
8
Halfen
62
7
10
 77.348
20
-82.427
30
0
0
VERTEX
8
Halfen
62
7
10
 78.388
20
-82.634
30
0
0
VERTEX
8
Halfen
62
7
10
 79.441
20
-82.758
30
0
0
VERTEX
8
Halfen
62
7
10
 80.5
20
-82.8
30
0
0
VERTEX
8
Halfen
62
7
10
 83.5
20
-82.8
30
0
0
VERTEX
8
Halfen
62
7
10
 84.559
20
-82.758
30
0
0
VERTEX
8
Halfen
62
7
10
 85.612
20
-82.634
30
0
0
VERTEX
8
Halfen
62
7
10
 86.652
20
-82.427
30
0
0
VERTEX
8
Halfen
62
7
10
 87.672
20
-82.139
30
0
0
VERTEX
8
Halfen
62
7
10
 88.666
20
-81.772
30
0
0
VERTEX
8
Halfen
62
7
10
 89.629
20
-81.329
30
0
0
VERTEX
8
Halfen
62
7
10
 90.554
20
-80.811
30
0
0
VERTEX
8
Halfen
62
7
10
 91.435
20
-80.222
30
0
0
VERTEX
8
Halfen
62
7
10
 92.268
20
-79.565
30
0
0
VERTEX
8
Halfen
62
7
10
 93.046
20
-78.846
30
0
0
VERTEX
8
Halfen
62
7
10
 93.765
20
-78.068
30
0
0
VERTEX
8
Halfen
62
7
10
 94.422
20
-77.235
30
0
0
VERTEX
8
Halfen
62
7
10
 95.011
20
-76.354
30
0
0
VERTEX
8
Halfen
62
7
10
 95.529
20
-75.429
30
0
0
VERTEX
8
Halfen
62
7
10
 95.972
20
-74.466
30
0
0
VERTEX
8
Halfen
62
7
10
 96.339
20
-73.472
30
0
0
VERTEX
8
Halfen
62
7
10
 96.627
20
-72.452
30
0
0
VERTEX
8
Halfen
62
7
10
 96.834
20
-71.412
30
0
0
VERTEX
8
Halfen
62
7
10
 96.958
20
-70.359
30
0
0
VERTEX
8
Halfen
62
7
10
 97
20
-69.3
30
0
0
SEQEND
8
Halfen
0
POLYLINE
8
Halfen
62
7
66
1
10
0.0
20
0.0
30
0.0
70
1
0
VERTEX
8
Halfen
62
7
10
 183
20
-69.3
30
0
0
VERTEX
8
Halfen
62
7
10
 183
20
-56.8
30
0
0
VERTEX
8
Halfen
62
7
10
 183
20
 69.3
30
0
0
VERTEX
8
Halfen
62
7
10
 182.958
20
 70.359
30
0
0
VERTEX
8
Halfen
62
7
10
 182.834
20
 71.412
30
0
0
VERTEX
8
Halfen
62
7
10
 182.627
20
 72.452
30
0
0
VERTEX
8
Halfen
62
7
10
 182.339
20
 73.472
30
0
0
VERTEX
8
Halfen
62
7
10
 181.972
20
 74.466
30
0
0
VERTEX
8
Halfen
62
7
10
 181.529
20
 75.429
30
0
0
VERTEX
8
Halfen
62
7
10
 181.011
20
 76.354
30
0
0
VERTEX
8
Halfen
62
7
10
 180.422
20
 77.235
30
0
0
VERTEX
8
Halfen
62
7
10
 179.765
20
 78.068
30
0
0
VERTEX
8
Halfen
62
7
10
 179.046
20
 78.846
30
0
0
VERTEX
8
Halfen
62
7
10
 178.268
20
 79.565
30
0
0
VERTEX
8
Halfen
62
7
10
 177.435
20
 80.222
30
0
0
VERTEX
8
Halfen
62
7
10
 176.554
20
 80.811
30
0
0
VERTEX
8
Halfen
62
7
10
 175.629
20
 81.329
30
0
0
VERTEX
8
Halfen
62
7
10
 174.666
20
 81.772
30
0
0
VERTEX
8
Halfen
62
7
10
 173.672
20
 82.139
30
0
0
VERTEX
8
Halfen
62
7
10
 172.652
20
 82.427
30
0
0
VERTEX
8
Halfen
62
7
10
 171.612
20
 82.634
30
0
0
VERTEX
8
Halfen
62
7
10
 170.559
20
 82.758
30
0
0
VERTEX
8
Halfen
62
7
10
 169.5
20
 82.8
30
0
0
VERTEX
8
Halfen
62
7
10
 166.5
20
 82.8
30
0
0
VERTEX
8
Halfen
62
7
10
 165.441
20
 82.758
30
0
0
VERTEX
8
Halfen
62
7
10
 164.388
20
 82.634
30
0
0
VERTEX
8
Halfen
62
7
10
 163.348
20
 82.427
30
0
0
VERTEX
8
Halfen
62
7
10
 162.328
20
 82.139
30
0
0
VERTEX
8
Halfen
62
7
10
 161.334
20
 81.772
30
0
0
VERTEX
8
Halfen
62
7
10
 160.371
20
 81.329
30
0
0
VERTEX
8
Halfen
62
7
10
 159.446
20
 80.811
30
0
0
VERTEX
8
Halfen
62
7
10
 158.565
20
 80.222
30
0
0
VERTEX
8
Halfen
62
7
10
 157.732
20
 79.565
30
0
0
VERTEX
8
Halfen
62
7
10
 156.954
20
 78.846
30
0
0
VERTEX
8
Halfen
62
7
10
 156.235
20
 78.068
30
0
0
VERTEX
8
Halfen
62
7
10
 155.578
20
 77.235
30
0
0
VERTEX
8
Halfen
62
7
10
 154.989
20
 76.354
30
0
0
VERTEX
8
Halfen
62
7
10
 154.471
20
 75.429
30
0
0
VERTEX
8
Halfen
62
7
10
 154.028
20
 74.466
30
0
0
VERTEX
8
Halfen
62
7
10
 153.661
20
 73.472
30
0
0
VERTEX
8
Halfen
62
7
10
 153.373
20
 72.452
30
0
0
VERTEX
8
Halfen
62
7
10
 153.166
20
 71.412
30
0
0
VERTEX
8
Halfen
62
7
10
 153.042
20
 70.359
30
0
0
VERTEX
8
Halfen
62
7
10
 153
20
 69.3
30
0
0
VERTEX
8
Halfen
62
7
10
 153
20
-56.8
30
0
0
VERTEX
8
Halfen
62
7
10
 153
20
-69.3
30
0
0
VERTEX
8
Halfen
62
7
10
 153.042
20
-70.359
30
0
0
VERTEX
8
Halfen
62
7
10
 153.166
20
-71.412
30
0
0
VERTEX
8
Halfen
62
7
10
 153.373
20
-72.452
30
0
0
VERTEX
8
Halfen
62
7
10
 153.661
20
-73.472
30
0
0
VERTEX
8
Halfen
62
7
10
 154.028
20
-74.466
30
0
0
VERTEX
8
Halfen
62
7
10
 154.471
20
-75.429
30
0
0
VERTEX
8
Halfen
62
7
10
 154.989
20
-76.354
30
0
0
VERTEX
8
Halfen
62
7
10
 155.578
20
-77.235
30
0
0
VERTEX
8
Halfen
62
7
10
 156.235
20
-78.068
30
0
0
VERTEX
8
Halfen
62
7
10
 156.954
20
-78.846
30
0
0
VERTEX
8
Halfen
62
7
10
 157.732
20
-79.565
30
0
0
VERTEX
8
Halfen
62
7
10
 158.565
20
-80.222
30
0
0
VERTEX
8
Halfen
62
7
10
 159.446
20
-80.811
30
0
0
VERTEX
8
Halfen
62
7
10
 160.371
20
-81.329
30
0
0
VERTEX
8
Halfen
62
7
10
 161.334
20
-81.772
30
0
0
VERTEX
8
Halfen
62
7
10
 162.328
20
-82.139
30
0
0
VERTEX
8
Halfen
62
7
10
 163.348
20
-82.427
30
0
0
VERTEX
8
Halfen
62
7
10
 164.388
20
-82.634
30
0
0
VERTEX
8
Halfen
62
7
10
 165.441
20
-82.758
30
0
0
VERTEX
8
Halfen
62
7
10
 166.5
20
-82.8
30
0
0
VERTEX
8
Halfen
62
7
10
 169.5
20
-82.8
30
0
0
VERTEX
8
Halfen
62
7
10
 170.559
20
-82.758
30
0
0
VERTEX
8
Halfen
62
7
10
 171.612
20
-82.634
30
0
0
VERTEX
8
Halfen
62
7
10
 172.652
20
-82.427
30
0
0
VERTEX
8
Halfen
62
7
10
 173.672
20
-82.139
30
0
0
VERTEX
8
Halfen
62
7
10
 174.666
20
-81.772
30
0
0
VERTEX
8
Halfen
62
7
10
 175.629
20
-81.329
30
0
0
VERTEX
8
Halfen
62
7
10
 176.554
20
-80.811
30
0
0
VERTEX
8
Halfen
62
7
10
 177.435
20
-80.222
30
0
0
VERTEX
8
Halfen
62
7
10
 178.268
20
-79.565
30
0
0
VERTEX
8
Halfen
62
7
10
 179.046
20
-78.846
30
0
0
VERTEX
8
Halfen
62
7
10
 179.765
20
-78.068
30
0
0
VERTEX
8
Halfen
62
7
10
 180.422
20
-77.235
30
0
0
VERTEX
8
Halfen
62
7
10
 181.011
20
-76.354
30
0
0
VERTEX
8
Halfen
62
7
10
 181.529
20
-75.429
30
0
0
VERTEX
8
Halfen
62
7
10
 181.972
20
-74.466
30
0
0
VERTEX
8
Halfen
62
7
10
 182.339
20
-73.472
30
0
0
VERTEX
8
Halfen
62
7
10
 182.627
20
-72.452
30
0
0
VERTEX
8
Halfen
62
7
10
 182.834
20
-71.412
30
0
0
VERTEX
8
Halfen
62
7
10
 182.958
20
-70.359
30
0
0
VERTEX
8
Halfen
62
7
10
 183
20
-69.3
30
0
0
SEQEND
8
Halfen
0
POLYLINE
8
Halfen
62
7
66
1
10
0.0
20
0.0
30
0.0
70
1
0
VERTEX
8
Halfen
62
7
10
 347
20
-69.3
30
0
0
VERTEX
8
Halfen
62
7
10
 347
20
-56.8
30
0
0
VERTEX
8
Halfen
62
7
10
 347
20
 69.3
30
0
0
VERTEX
8
Halfen
62
7
10
 346.958
20
 70.359
30
0
0
VERTEX
8
Halfen
62
7
10
 346.834
20
 71.412
30
0
0
VERTEX
8
Halfen
62
7
10
 346.627
20
 72.452
30
0
0
VERTEX
8
Halfen
62
7
10
 346.339
20
 73.472
30
0
0
VERTEX
8
Halfen
62
7
10
 345.972
20
 74.466
30
0
0
VERTEX
8
Halfen
62
7
10
 345.529
20
 75.429
30
0
0
VERTEX
8
Halfen
62
7
10
 345.011
20
 76.354
30
0
0
VERTEX
8
Halfen
62
7
10
 344.422
20
 77.235
30
0
0
VERTEX
8
Halfen
62
7
10
 343.765
20
 78.068
30
0
0
VERTEX
8
Halfen
62
7
10
 343.046
20
 78.846
30
0
0
VERTEX
8
Halfen
62
7
10
 342.268
20
 79.565
30
0
0
VERTEX
8
Halfen
62
7
10
 341.435
20
 80.222
30
0
0
VERTEX
8
Halfen
62
7
10
 340.554
20
 80.811
30
0
0
VERTEX
8
Halfen
62
7
10
 339.629
20
 81.329
30
0
0
VERTEX
8
Halfen
62
7
10
 338.666
20
 81.772
30
0
0
VERTEX
8
Halfen
62
7
10
 337.672
20
 82.139
30
0
0
VERTEX
8
Halfen
62
7
10
 336.652
20
 82.427
30
0
0
VERTEX
8
Halfen
62
7
10
 335.612
20
 82.634
30
0
0
VERTEX
8
Halfen
62
7
10
 334.559
20
 82.758
30
0
0
VERTEX
8
Halfen
62
7
10
 333.5
20
 82.8
30
0
0
VERTEX
8
Halfen
62
7
10
 330.5
20
 82.8
30
0
0
VERTEX
8
Halfen
62
7
10
 329.441
20
 82.758
30
0
0
VERTEX
8
Halfen
62
7
10
 328.388
20
 82.634
30
0
0
VERTEX
8
Halfen
62
7
10
 327.348
20
 82.427
30
0
0
VERTEX
8
Halfen
62
7
10
 326.328
20
 82.139
30
0
0
VERTEX
8
Halfen
62
7
10
 325.334
20
 81.772
30
0
0
VERTEX
8
Halfen
62
7
10
 324.371
20
 81.329
30
0
0
VERTEX
8
Halfen
62
7
10
 323.446
20
 80.811
30
0
0
VERTEX
8
Halfen
62
7
10
 322.565
20
 80.222
30
0
0
VERTEX
8
Halfen
62
7
10
 321.732
20
 79.565
30
0
0
VERTEX
8
Halfen
62
7
10
 320.954
20
 78.846
30
0
0
VERTEX
8
Halfen
62
7
10
 320.235
20
 78.068
30
0
0
VERTEX
8
Halfen
62
7
10
 319.578
20
 77.235
30
0
0
VERTEX
8
Halfen
62
7
10
 318.989
20
 76.354
30
0
0
VERTEX
8
Halfen
62
7
10
 318.471
20
 75.429
30
0
0
VERTEX
8
Halfen
62
7
10
 318.028
20
 74.466
30
0
0
VERTEX
8
Halfen
62
7
10
 317.661
20
 73.472
30
0
0
VERTEX
8
Halfen
62
7
10
 317.373
20
 72.452
30
0
0
VERTEX
8
Halfen
62
7
10
 317.166
20
 71.412
30
0
0
VERTEX
8
Halfen
62
7
10
 317.042
20
 70.359
30
0
0
VERTEX
8
Halfen
62
7
10
 317
20
 69.3
30
0
0
VERTEX
8
Halfen
62
7
10
 317
20
-56.8
30
0
0
VERTEX
8
Halfen
62
7
10
 317
20
-69.3
30
0
0
VERTEX
8
Halfen
62
7
10
 317.042
20
-70.359
30
0
0
VERTEX
8
Halfen
62
7
10
 317.166
20
-71.412
30
0
0
VERTEX
8
Halfen
62
7
10
 317.373
20
-72.452
30
0
0
VERTEX
8
Halfen
62
7
10
 317.661
20
-73.472
30
0
0
VERTEX
8
Halfen
62
7
10
 318.028
20
-74.466
30
0
0
VERTEX
8
Halfen
62
7
10
 318.471
20
-75.429
30
0
0
VERTEX
8
Halfen
62
7
10
 318.989
20
-76.354
30
0
0
VERTEX
8
Halfen
62
7
10
 319.578
20
-77.235
30
0
0
VERTEX
8
Halfen
62
7
10
 320.235
20
-78.068
30
0
0
VERTEX
8
Halfen
62
7
10
 320.954
20
-78.846
30
0
0
VERTEX
8
Halfen
62
7
10
 321.732
20
-79.565
30
0
0
VERTEX
8
Halfen
62
7
10
 322.565
20
-80.222
30
0
0
VERTEX
8
Halfen
62
7
10
 323.446
20
-80.811
30
0
0
VERTEX
8
Halfen
62
7
10
 324.371
20
-81.329
30
0
0
VERTEX
8
Halfen
62
7
10
 325.334
20
-81.772
30
0
0
VERTEX
8
Halfen
62
7
10
 326.328
20
-82.139
30
0
0
VERTEX
8
Halfen
62
7
10
 327.348
20
-82.427
30
0
0
VERTEX
8
Halfen
62
7
10
 328.388
20
-82.634
30
0
0
VERTEX
8
Halfen
62
7
10
 329.441
20
-82.758
30
0
0
VERTEX
8
Halfen
62
7
10
 330.5
20
-82.8
30
0
0
VERTEX
8
Halfen
62
7
10
 333.5
20
-82.8
30
0
0
VERTEX
8
Halfen
62
7
10
 334.559
20
-82.758
30
0
0
VERTEX
8
Halfen
62
7
10
 335.612
20
-82.634
30
0
0
VERTEX
8
Halfen
62
7
10
 336.652
20
-82.427
30
0
0
VERTEX
8
Halfen
62
7
10
 337.672
20
-82.139
30
0
0
VERTEX
8
Halfen
62
7
10
 338.666
20
-81.772
30
0
0
VERTEX
8
Halfen
62
7
10
 339.629
20
-81.329
30
0
0
VERTEX
8
Halfen
62
7
10
 340.554
20
-80.811
30
0
0
VERTEX
8
Halfen
62
7
10
 341.435
20
-80.222
30
0
0
VERTEX
8
Halfen
62
7
10
 342.268
20
-79.565
30
0
0
VERTEX
8
Halfen
62
7
10
 343.046
20
-78.846
30
0
0
VERTEX
8
Halfen
62
7
10
 343.765
20
-78.068
30
0
0
VERTEX
8
Halfen
62
7
10
 344.422
20
-77.235
30
0
0
VERTEX
8
Halfen
62
7
10
 345.011
20
-76.354
30
0
0
VERTEX
8
Halfen
62
7
10
 345.529
20
-75.429
30
0
0
VERTEX
8
Halfen
62
7
10
 345.972
20
-74.466
30
0
0
VERTEX
8
Halfen
62
7
10
 346.339
20
-73.472
30
0
0
VERTEX
8
Halfen
62
7
10
 346.627
20
-72.452
30
0
0
VERTEX
8
Halfen
62
7
10
 346.834
20
-71.412
30
0
0
VERTEX
8
Halfen
62
7
10
 346.958
20
-70.359
30
0
0
VERTEX
8
Halfen
62
7
10
 347
20
-69.3
30
0
0
SEQEND
8
Halfen
0
POLYLINE
8
Halfen
62
7
66
1
10
0.0
20
0.0
30
0.0
70
1
0
VERTEX
8
Halfen
62
7
10
 433
20
-69.3
30
0
0
VERTEX
8
Halfen
62
7
10
 433
20
-56.8
30
0
0
VERTEX
8
Halfen
62
7
10
 433
20
 69.3
30
0
0
VERTEX
8
Halfen
62
7
10
 432.958
20
 70.359
30
0
0
VERTEX
8
Halfen
62
7
10
 432.834
20
 71.412
30
0
0
VERTEX
8
Halfen
62
7
10
 432.627
20
 72.452
30
0
0
VERTEX
8
Halfen
62
7
10
 432.339
20
 73.472
30
0
0
VERTEX
8
Halfen
62
7
10
 431.972
20
 74.466
30
0
0
VERTEX
8
Halfen
62
7
10
 431.529
20
 75.429
30
0
0
VERTEX
8
Halfen
62
7
10
 431.011
20
 76.354
30
0
0
VERTEX
8
Halfen
62
7
10
 430.422
20
 77.235
30
0
0
VERTEX
8
Halfen
62
7
10
 429.765
20
 78.068
30
0
0
VERTEX
8
Halfen
62
7
10
 429.046
20
 78.846
30
0
0
VERTEX
8
Halfen
62
7
10
 428.268
20
 79.565
30
0
0
VERTEX
8
Halfen
62
7
10
 427.435
20
 80.222
30
0
0
VERTEX
8
Halfen
62
7
10
 426.554
20
 80.811
30
0
0
VERTEX
8
Halfen
62
7
10
 425.629
20
 81.329
30
0
0
VERTEX
8
Halfen
62
7
10
 424.666
20
 81.772
30
0
0
VERTEX
8
Halfen
62
7
10
 423.672
20
 82.139
30
0
0
VERTEX
8
Halfen
62
7
10
 422.652
20
 82.427
30
0
0
VERTEX
8
Halfen
62
7
10
 421.612
20
 82.634
30
0
0
VERTEX
8
Halfen
62
7
10
 420.559
20
 82.758
30
0
0
VERTEX
8
Halfen
62
7
10
 419.5
20
 82.8
30
0
0
VERTEX
8
Halfen
62
7
10
 416.5
20
 82.8
30
0
0
VERTEX
8
Halfen
62
7
10
 415.441
20
 82.758
30
0
0
VERTEX
8
Halfen
62
7
10
 414.388
20
 82.634
30
0
0
VERTEX
8
Halfen
62
7
10
 413.348
20
 82.427
30
0
0
VERTEX
8
Halfen
62
7
10
 412.328
20
 82.139
30
0
0
VERTEX
8
Halfen
62
7
10
 411.334
20
 81.772
30
0
0
VERTEX
8
Halfen
62
7
10
 410.371
20
 81.329
30
0
0
VERTEX
8
Halfen
62
7
10
 409.446
20
 80.811
30
0
0
VERTEX
8
Halfen
62
7
10
 408.565
20
 80.222
30
0
0
VERTEX
8
Halfen
62
7
10
 407.732
20
 79.565
30
0
0
VERTEX
8
Halfen
62
7
10
 406.954
20
 78.846
30
0
0
VERTEX
8
Halfen
62
7
10
 406.235
20
 78.068
30
0
0
VERTEX
8
Halfen
62
7
10
 405.578
20
 77.235
30
0
0
VERTEX
8
Halfen
62
7
10
 404.989
20
 76.354
30
0
0
VERTEX
8
Halfen
62
7
10
 404.471
20
 75.429
30
0
0
VERTEX
8
Halfen
62
7
10
 404.028
20
 74.466
30
0
0
VERTEX
8
Halfen
62
7
10
 403.661
20
 73.472
30
0
0
VERTEX
8
Halfen
62
7
10
 403.373
20
 72.452
30
0
0
VERTEX
8
Halfen
62
7
10
 403.166
20
 71.412
30
0
0
VERTEX
8
Halfen
62
7
10
 403.042
20
 70.359
30
0
0
VERTEX
8
Halfen
62
7
10
 403
20
 69.3
30
0
0
VERTEX
8
Halfen
62
7
10
 403
20
-56.8
30
0
0
VERTEX
8
Halfen
62
7
10
 403
20
-69.3
30
0
0
VERTEX
8
Halfen
62
7
10
 403.042
20
-70.359
30
0
0
VERTEX
8
Halfen
62
7
10
 403.166
20
-71.412
30
0
0
VERTEX
8
Halfen
62
7
10
 403.373
20
-72.452
30
0
0
VERTEX
8
Halfen
62
7
10
 403.661
20
-73.472
30
0
0
VERTEX
8
Halfen
62
7
10
 404.028
20
-74.466
30
0
0
VERTEX
8
Halfen
62
7
10
 404.471
20
-75.429
30
0
0
VERTEX
8
Halfen
62
7
10
 404.989
20
-76.354
30
0
0
VERTEX
8
Halfen
62
7
10
 405.578
20
-77.235
30
0
0
VERTEX
8
Halfen
62
7
10
 406.235
20
-78.068
30
0
0
VERTEX
8
Halfen
62
7
10
 406.954
20
-78.846
30
0
0
VERTEX
8
Halfen
62
7
10
 407.732
20
-79.565
30
0
0
VERTEX
8
Halfen
62
7
10
 408.565
20
-80.222
30
0
0
VERTEX
8
Halfen
62
7
10
 409.446
20
-80.811
30
0
0
VERTEX
8
Halfen
62
7
10
 410.371
20
-81.329
30
0
0
VERTEX
8
Halfen
62
7
10
 411.334
20
-81.772
30
0
0
VERTEX
8
Halfen
62
7
10
 412.328
20
-82.139
30
0
0
VERTEX
8
Halfen
62
7
10
 413.348
20
-82.427
30
0
0
VERTEX
8
Halfen
62
7
10
 414.388
20
-82.634
30
0
0
VERTEX
8
Halfen
62
7
10
 415.441
20
-82.758
30
0
0
VERTEX
8
Halfen
62
7
10
 416.5
20
-82.8
30
0
0
VERTEX
8
Halfen
62
7
10
 419.5
20
-82.8
30
0
0
VERTEX
8
Halfen
62
7
10
 420.559
20
-82.758
30
0
0
VERTEX
8
Halfen
62
7
10
 421.612
20
-82.634
30
0
0
VERTEX
8
Halfen
62
7
10
 422.652
20
-82.427
30
0
0
VERTEX
8
Halfen
62
7
10
 423.672
20
-82.139
30
0
0
VERTEX
8
Halfen
62
7
10
 424.666
20
-81.772
30
0
0
VERTEX
8
Halfen
62
7
10
 425.629
20
-81.329
30
0
0
VERTEX
8
Halfen
62
7
10
 426.554
20
-80.811
30
0
0
VERTEX
8
Halfen
62
7
10
 427.435
20
-80.222
30
0
0
VERTEX
8
Halfen
62
7
10
 428.268
20
-79.565
30
0
0
VERTEX
8
Halfen
62
7
10
 429.046
20
-78.846
30
0
0
VERTEX
8
Halfen
62
7
10
 429.765
20
-78.068
30
0
0
VERTEX
8
Halfen
62
7
10
 430.422
20
-77.235
30
0
0
VERTEX
8
Halfen
62
7
10
 431.011
20
-76.354
30
0
0
VERTEX
8
Halfen
62
7
10
 431.529
20
-75.429
30
0
0
VERTEX
8
Halfen
62
7
10
 431.972
20
-74.466
30
0
0
VERTEX
8
Halfen
62
7
10
 432.339
20
-73.472
30
0
0
VERTEX
8
Halfen
62
7
10
 432.627
20
-72.452
30
0
0
VERTEX
8
Halfen
62
7
10
 432.834
20
-71.412
30
0
0
VERTEX
8
Halfen
62
7
10
 432.958
20
-70.359
30
0
0
VERTEX
8
Halfen
62
7
10
 433
20
-69.3
30
0
0
SEQEND
8
Halfen
0
POLYLINE
8
Halfen
62
7
66
1
10
0.0
20
0.0
30
0.0
70
1
0
VERTEX
8
Halfen
62
7
10
 131
20
-775
30
0
0
VERTEX
8
Halfen
62
7
10
 131
20
-160
30
0
0
VERTEX
8
Halfen
62
7
10
 119
20
-160
30
0
0
VERTEX
8
Halfen
62
7
10
 119
20
-775
30
0
0
SEQEND
8
Halfen
0
POLYLINE
8
Halfen
62
7
66
1
10
0.0
20
0.0
30
0.0
70
1
0
VERTEX
8
Halfen
62
7
10
 130.25
20
-160
30
0
0
VERTEX
8
Halfen
62
7
10
 130.25
20
-62
30
0
0
VERTEX
8
Halfen
62
7
10
 119.75
20
-62
30
0
0
VERTEX
8
Halfen
62
7
10
 119.75
20
-160
30
0
0
SEQEND
8
Halfen
0
POLYLINE
8
Halfen
62
7
66
1
10
0.0
20
0.0
30
0.0
70
1
0
VERTEX
8
Halfen
62
7
10
 131
20
-62
30
0
0
VERTEX
8
Halfen
62
7
10
 131
20
-60
30
0
0
VERTEX
8
Halfen
62
7
10
 119
20
-60
30
0
0
VERTEX
8
Halfen
62
7
10
 119
20
-62
30
0
0
SEQEND
8
Halfen
0
POLYLINE
8
Halfen
62
7
66
1
10
0.0
20
0.0
30
0.0
70
1
0
VERTEX
8
Halfen
62
7
10
 130.25
20
-60
30
0
0
VERTEX
8
Halfen
62
7
10
 130.25
20
 60
30
0
0
VERTEX
8
Halfen
62
7
10
 119.75
20
 60
30
0
0
VERTEX
8
Halfen
62
7
10
 119.75
20
-60
30
0
0
SEQEND
8
Halfen
0
POLYLINE
8
Halfen
62
7
66
1
10
0.0
20
0.0
30
0.0
70
1
0
VERTEX
8
Halfen
62
7
10
 131
20
 60
30
0
0
VERTEX
8
Halfen
62
7
10
 131
20
 62
30
0
0
VERTEX
8
Halfen
62
7
10
 119
20
 62
30
0
0
VERTEX
8
Halfen
62
7
10
 119
20
 60
30
0
0
SEQEND
8
Halfen
0
POLYLINE
8
Halfen
62
7
66
1
10
0.0
20
0.0
30
0.0
70
1
0
VERTEX
8
Halfen
62
7
10
 130.25
20
 62
30
0
0
VERTEX
8
Halfen
62
7
10
 130.25
20
 160
30
0
0
VERTEX
8
Halfen
62
7
10
 119.75
20
 160
30
0
0
VERTEX
8
Halfen
62
7
10
 119.75
20
 62
30
0
0
SEQEND
8
Halfen
0
POLYLINE
8
Halfen
62
7
66
1
10
0.0
20
0.0
30
0.0
70
1
0
VERTEX
8
Halfen
62
7
10
 131
20
 160
30
0
0
VERTEX
8
Halfen
62
7
10
 131
20
 775
30
0
0
VERTEX
8
Halfen
62
7
10
 119
20
 775
30
0
0
VERTEX
8
Halfen
62
7
10
 119
20
 160
30
0
0
SEQEND
8
Halfen
0
POLYLINE
8
Halfen
62
7
66
1
10
0.0
20
0.0
30
0.0
70
1
0
VERTEX
8
Halfen
62
7
10
 381
20
-775
30
0
0
VERTEX
8
Halfen
62
7
10
 381
20
-160
30
0
0
VERTEX
8
Halfen
62
7
10
 369
20
-160
30
0
0
VERTEX
8
Halfen
62
7
10
 369
20
-775
30
0
0
SEQEND
8
Halfen
0
POLYLINE
8
Halfen
62
7
66
1
10
0.0
20
0.0
30
0.0
70
1
0
VERTEX
8
Halfen
62
7
10
 380.25
20
-160
30
0
0
VERTEX
8
Halfen
62
7
10
 380.25
20
-62
30
0
0
VERTEX
8
Halfen
62
7
10
 369.75
20
-62
30
0
0
VERTEX
8
Halfen
62
7
10
 369.75
20
-160
30
0
0
SEQEND
8
Halfen
0
POLYLINE
8
Halfen
62
7
66
1
10
0.0
20
0.0
30
0.0
70
1
0
VERTEX
8
Halfen
62
7
10
 381
20
-62
30
0
0
VERTEX
8
Halfen
62
7
10
 381
20
-60
30
0
0
VERTEX
8
Halfen
62
7
10
 369
20
-60
30
0
0
VERTEX
8
Halfen
62
7
10
 369
20
-62
30
0
0
SEQEND
8
Halfen
0
POLYLINE
8
Halfen
62
7
66
1
10
0.0
20
0.0
30
0.0
70
1
0
VERTEX
8
Halfen
62
7
10
 380.25
20
-60
30
0
0
VERTEX
8
Halfen
62
7
10
 380.25
20
 60
30
0
0
VERTEX
8
Halfen
62
7
10
 369.75
20
 60
30
0
0
VERTEX
8
Halfen
62
7
10
 369.75
20
-60
30
0
0
SEQEND
8
Halfen
0
POLYLINE
8
Halfen
62
7
66
1
10
0.0
20
0.0
30
0.0
70
1
0
VERTEX
8
Halfen
62
7
10
 381
20
 60
30
0
0
VERTEX
8
Halfen
62
7
10
 381
20
 62
30
0
0
VERTEX
8
Halfen
62
7
10
 369
20
 62
30
0
0
VERTEX
8
Halfen
62
7
10
 369
20
 60
30
0
0
SEQEND
8
Halfen
0
POLYLINE
8
Halfen
62
7
66
1
10
0.0
20
0.0
30
0.0
70
1
0
VERTEX
8
Halfen
62
7
10
 380.25
20
 62
30
0
0
VERTEX
8
Halfen
62
7
10
 380.25
20
 160
30
0
0
VERTEX
8
Halfen
62
7
10
 369.75
20
 160
30
0
0
VERTEX
8
Halfen
62
7
10
 369.75
20
 62
30
0
0
SEQEND
8
Halfen
0
POLYLINE
8
Halfen
62
7
66
1
10
0.0
20
0.0
30
0.0
70
1
0
VERTEX
8
Halfen
62
7
10
 381
20
 160
30
0
0
VERTEX
8
Halfen
62
7
10
 381
20
 775
30
0
0
VERTEX
8
Halfen
62
7
10
 369
20
 775
30
0
0
VERTEX
8
Halfen
62
7
10
 369
20
 160
30
0
0
SEQEND
8
Halfen
0
POLYLINE
8
Halfen
62
7
66
1
10
0.0
20
0.0
30
0.0
70
1
0
VERTEX
8
Halfen
62
7
10
 870
20
-60
30
0
0
VERTEX
8
Halfen
62
7
10
 870
20
 60
30
0
0
VERTEX
8
Halfen
62
7
10
 856.5
20
 73.5
30
0
0
VERTEX
8
Halfen
62
7
10
 856.5
20
 60
30
0
0
VERTEX
8
Halfen
62
7
10
 750
20
 60
30
0
0
VERTEX
8
Halfen
62
7
10
 750
20
-60
30
0
0
VERTEX
8
Halfen
62
7
10
 856.5
20
-60
30
0
0
VERTEX
8
Halfen
62
7
10
 856.5
20
-73.5
30
0
0
SEQEND
8
Halfen
0
POLYLINE
8
Halfen
62
7
66
1
10
0.0
20
0.0
30
0.0
70
1
0
VERTEX
8
Halfen
62
7
10
 750
20
-60
30
0
0
VERTEX
8
Halfen
62
7
10
 750
20
 60
30
0
0
VERTEX
8
Halfen
62
7
10
 713.5
20
 60
30
0
0
VERTEX
8
Halfen
62
7
10
 713.5
20
 73.5
30
0
0
VERTEX
8
Halfen
62
7
10
 700
20
 60
30
0
0
VERTEX
8
Halfen
62
7
10
 700
20
-60
30
0
0
VERTEX
8
Halfen
62
7
10
 713.5
20
-73.5
30
0
0
VERTEX
8
Halfen
62
7
10
 713.5
20
-60
30
0
0
SEQEND
8
Halfen
0
POLYLINE
8
Halfen
62
7
66
1
10
0.0
20
0.0
30
0.0
70
1
0
VERTEX
8
Halfen
62
7
10
 867.5
20
-58.75
30
0
0
VERTEX
8
Halfen
62
7
10
 867.5
20
 58.75
30
0
0
VERTEX
8
Halfen
62
7
10
 859
20
 67.25
30
0
0
VERTEX
8
Halfen
62
7
10
 859
20
 58
30
0
0
VERTEX
8
Halfen
62
7
10
 752
20
 58
30
0
0
VERTEX
8
Halfen
62
7
10
 752
20
-58
30
0
0
VERTEX
8
Halfen
62
7
10
 859
20
-58
30
0
0
VERTEX
8
Halfen
62
7
10
 859
20
-67.25
30
0
0
SEQEND
8
Halfen
0
POLYLINE
8
Halfen
62
7
66
1
10
0.0
20
0.0
30
0.0
70
1
0
VERTEX
8
Halfen
62
7
10
 748
20
-58
30
0
0
VERTEX
8
Halfen
62
7
10
 748
20
 58
30
0
0
VERTEX
8
Halfen
62
7
10
 711
20
 58
30
0
0
VERTEX
8
Halfen
62
7
10
 711
20
 67.25
30
0
0
VERTEX
8
Halfen
62
7
10
 702.5
20
 58.75
30
0
0
VERTEX
8
Halfen
62
7
10
 702.5
20
-58.75
30
0
0
VERTEX
8
Halfen
62
7
10
 711
20
-67.25
30
0
0
VERTEX
8
Halfen
62
7
10
 711
20
-58
30
0
0
SEQEND
8
Halfen
0
POLYLINE
8
Halfen
62
7
66
1
10
0.0
20
0.0
30
0.0
70
1
0
VERTEX
8
Halfen
62
7
10
 855
20
-81.8
30
0
0
VERTEX
8
Halfen
62
7
10
 855
20
 81.8
30
0
0
VERTEX
8
Halfen
62
7
10
 851
20
 81.8
30
0
0
VERTEX
8
Halfen
62
7
10
 850.846
20
 81.797
30
0
0
VERTEX
8
Halfen
62
7
10
 850.691
20
 81.786
30
0
0
VERTEX
8
Halfen
62
7
10
 850.538
20
 81.769
30
0
0
VERTEX
8
Halfen
62
7
10
 850.385
20
 81.746
30
0
0
VERTEX
8
Halfen
62
7
10
 850.234
20
 81.715
30
0
0
VERTEX
8
Halfen
62
7
10
 850.084
20
 81.678
30
0
0
VERTEX
8
Halfen
62
7
10
 849.936
20
 81.634
30
0
0
VERTEX
8
Halfen
62
7
10
 849.789
20
 81.584
30
0
0
VERTEX
8
Halfen
62
7
10
 849.646
20
 81.527
30
0
0
VERTEX
8
Halfen
62
7
10
 849.505
20
 81.464
30
0
0
VERTEX
8
Halfen
62
7
10
 849.366
20
 81.395
30
0
0
VERTEX
8
Halfen
62
7
10
 849.231
20
 81.32
30
0
0
VERTEX
8
Halfen
62
7
10
 849.1
20
 81.239
30
0
0
VERTEX
8
Halfen
62
7
10
 848.972
20
 81.153
30
0
0
VERTEX
8
Halfen
62
7
10
 848.848
20
 81.06
30
0
0
VERTEX
8
Halfen
62
7
10
 848.728
20
 80.963
30
0
0
VERTEX
8
Halfen
62
7
10
 848.613
20
 80.86
30
0
0
VERTEX
8
Halfen
62
7
10
 848.502
20
 80.752
30
0
0
VERTEX
8
Halfen
62
7
10
 848.397
20
 80.639
30
0
0
VERTEX
8
Halfen
62
7
10
 848.296
20
 80.522
30
0
0
VERTEX
8
Halfen
62
7
10
 847.41
20
 79.491
30
0
0
VERTEX
8
Halfen
62
7
10
 846.479
20
 78.5
30
0
0
VERTEX
8
Halfen
62
7
10
 845.505
20
 77.551
30
0
0
VERTEX
8
Halfen
62
7
10
 844.491
20
 76.646
30
0
0
VERTEX
8
Halfen
62
7
10
 843.437
20
 75.787
30
0
0
VERTEX
8
Halfen
62
7
10
 842.347
20
 74.975
30
0
0
VERTEX
8
Halfen
62
7
10
 841.222
20
 74.211
30
0
0
VERTEX
8
Halfen
62
7
10
 840.064
20
 73.499
30
0
0
VERTEX
8
Halfen
62
7
10
 838.876
20
 72.838
30
0
0
VERTEX
8
Halfen
62
7
10
 837.66
20
 72.23
30
0
0
VERTEX
8
Halfen
62
7
10
 836.418
20
 71.676
30
0
0
VERTEX
8
Halfen
62
7
10
 835.153
20
 71.178
30
0
0
VERTEX
8
Halfen
62
7
10
 833.867
20
 70.736
30
0
0
VERTEX
8
Halfen
62
7
10
 832.563
20
 70.351
30
0
0
VERTEX
8
Halfen
62
7
10
 831.243
20
 70.024
30
0
0
VERTEX
8
Halfen
62
7
10
 829.911
20
 69.756
30
0
0
VERTEX
8
Halfen
62
7
10
 828.567
20
 69.547
30
0
0
VERTEX
8
Halfen
62
7
10
 827.216
20
 69.397
30
0
0
VERTEX
8
Halfen
62
7
10
 825.859
20
 69.307
30
0
0
VERTEX
8
Halfen
62
7
10
 824.5
20
 69.277
30
0
0
VERTEX
8
Halfen
62
7
10
 802.5
20
 69.277
30
0
0
VERTEX
8
Halfen
62
7
10
 801.141
20
 69.307
30
0
0
VERTEX
8
Halfen
62
7
10
 799.784
20
 69.397
30
0
0
VERTEX
8
Halfen
62
7
10
 798.433
20
 69.547
30
0
0
VERTEX
8
Halfen
62
7
10
 797.089
20
 69.756
30
0
0
VERTEX
8
Halfen
62
7
10
 795.757
20
 70.024
30
0
0
VERTEX
8
Halfen
62
7
10
 794.437
20
 70.351
30
0
0
VERTEX
8
Halfen
62
7
10
 793.133
20
 70.736
30
0
0
VERTEX
8
Halfen
62
7
10
 791.847
20
 71.178
30
0
0
VERTEX
8
Halfen
62
7
10
 790.582
20
 71.676
30
0
0
VERTEX
8
Halfen
62
7
10
 789.34
20
 72.23
30
0
0
VERTEX
8
Halfen
62
7
10
 788.124
20
 72.838
30
0
0
VERTEX
8
Halfen
62
7
10
 786.936
20
 73.499
30
0
0
VERTEX
8
Halfen
62
7
10
 785.778
20
 74.211
30
0
0
VERTEX
8
Halfen
62
7
10
 784.653
20
 74.975
30
0
0
VERTEX
8
Halfen
62
7
10
 783.563
20
 75.787
30
0
0
VERTEX
8
Halfen
62
7
10
 782.509
20
 76.646
30
0
0
VERTEX
8
Halfen
62
7
10
 781.495
20
 77.551
30
0
0
VERTEX
8
Halfen
62
7
10
 780.521
20
 78.5
30
0
0
VERTEX
8
Halfen
62
7
10
 779.59
20
 79.491
30
0
0
VERTEX
8
Halfen
62
7
10
 778.704
20
 80.522
30
0
0
VERTEX
8
Halfen
62
7
10
 778.603
20
 80.639
30
0
0
VERTEX
8
Halfen
62
7
10
 778.498
20
 80.752
30
0
0
VERTEX
8
Halfen
62
7
10
 778.387
20
 80.86
30
0
0
VERTEX
8
Halfen
62
7
10
 778.272
20
 80.963
30
0
0
VERTEX
8
Halfen
62
7
10
 778.152
20
 81.06
30
0
0
VERTEX
8
Halfen
62
7
10
 778.028
20
 81.153
30
0
0
VERTEX
8
Halfen
62
7
10
 777.9
20
 81.239
30
0
0
VERTEX
8
Halfen
62
7
10
 777.769
20
 81.32
30
0
0
VERTEX
8
Halfen
62
7
10
 777.634
20
 81.395
30
0
0
VERTEX
8
Halfen
62
7
10
 777.495
20
 81.464
30
0
0
VERTEX
8
Halfen
62
7
10
 777.354
20
 81.527
30
0
0
VERTEX
8
Halfen
62
7
10
 777.211
20
 81.584
30
0
0
VERTEX
8
Halfen
62
7
10
 777.064
20
 81.634
30
0
0
VERTEX
8
Halfen
62
7
10
 776.916
20
 81.678
30
0
0
VERTEX
8
Halfen
62
7
10
 776.766
20
 81.715
30
0
0
VERTEX
8
Halfen
62
7
10
 776.615
20
 81.746
30
0
0
VERTEX
8
Halfen
62
7
10
 776.462
20
 81.769
30
0
0
VERTEX
8
Halfen
62
7
10
 776.309
20
 81.786
30
0
0
VERTEX
8
Halfen
62
7
10
 776.154
20
 81.797
30
0
0
VERTEX
8
Halfen
62
7
10
 776
20
 81.8
30
0
0
VERTEX
8
Halfen
62
7
10
 772
20
 81.8
30
0
0
VERTEX
8
Halfen
62
7
10
 772
20
-81.8
30
0
0
VERTEX
8
Halfen
62
7
10
 776
20
-81.8
30
0
0
VERTEX
8
Halfen
62
7
10
 776.154
20
-81.797
30
0
0
VERTEX
8
Halfen
62
7
10
 776.309
20
-81.786
30
0
0
VERTEX
8
Halfen
62
7
10
 776.462
20
-81.769
30
0
0
VERTEX
8
Halfen
62
7
10
 776.615
20
-81.746
30
0
0
VERTEX
8
Halfen
62
7
10
 776.766
20
-81.715
30
0
0
VERTEX
8
Halfen
62
7
10
 776.916
20
-81.678
30
0
0
VERTEX
8
Halfen
62
7
10
 777.064
20
-81.634
30
0
0
VERTEX
8
Halfen
62
7
10
 777.211
20
-81.584
30
0
0
VERTEX
8
Halfen
62
7
10
 777.354
20
-81.527
30
0
0
VERTEX
8
Halfen
62
7
10
 777.495
20
-81.464
30
0
0
VERTEX
8
Halfen
62
7
10
 777.634
20
-81.395
30
0
0
VERTEX
8
Halfen
62
7
10
 777.769
20
-81.32
30
0
0
VERTEX
8
Halfen
62
7
10
 777.9
20
-81.239
30
0
0
VERTEX
8
Halfen
62
7
10
 778.028
20
-81.153
30
0
0
VERTEX
8
Halfen
62
7
10
 778.152
20
-81.06
30
0
0
VERTEX
8
Halfen
62
7
10
 778.272
20
-80.963
30
0
0
VERTEX
8
Halfen
62
7
10
 778.387
20
-80.86
30
0
0
VERTEX
8
Halfen
62
7
10
 778.498
20
-80.752
30
0
0
VERTEX
8
Halfen
62
7
10
 778.603
20
-80.639
30
0
0
VERTEX
8
Halfen
62
7
10
 778.704
20
-80.522
30
0
0
VERTEX
8
Halfen
62
7
10
 779.59
20
-79.491
30
0
0
VERTEX
8
Halfen
62
7
10
 780.521
20
-78.5
30
0
0
VERTEX
8
Halfen
62
7
10
 781.495
20
-77.551
30
0
0
VERTEX
8
Halfen
62
7
10
 782.509
20
-76.646
30
0
0
VERTEX
8
Halfen
62
7
10
 783.563
20
-75.787
30
0
0
VERTEX
8
Halfen
62
7
10
 784.653
20
-74.975
30
0
0
VERTEX
8
Halfen
62
7
10
 785.778
20
-74.211
30
0
0
VERTEX
8
Halfen
62
7
10
 786.936
20
-73.499
30
0
0
VERTEX
8
Halfen
62
7
10
 788.124
20
-72.838
30
0
0
VERTEX
8
Halfen
62
7
10
 789.34
20
-72.23
30
0
0
VERTEX
8
Halfen
62
7
10
 790.582
20
-71.676
30
0
0
VERTEX
8
Halfen
62
7
10
 791.847
20
-71.178
30
0
0
VERTEX
8
Halfen
62
7
10
 793.133
20
-70.736
30
0
0
VERTEX
8
Halfen
62
7
10
 794.437
20
-70.351
30
0
0
VERTEX
8
Halfen
62
7
10
 795.757
20
-70.024
30
0
0
VERTEX
8
Halfen
62
7
10
 797.089
20
-69.756
30
0
0
VERTEX
8
Halfen
62
7
10
 798.433
20
-69.547
30
0
0
VERTEX
8
Halfen
62
7
10
 799.784
20
-69.397
30
0
0
VERTEX
8
Halfen
62
7
10
 801.141
20
-69.307
30
0
0
VERTEX
8
Halfen
62
7
10
 802.5
20
-69.277
30
0
0
VERTEX
8
Halfen
62
7
10
 824.5
20
-69.277
30
0
0
VERTEX
8
Halfen
62
7
10
 825.859
20
-69.307
30
0
0
VERTEX
8
Halfen
62
7
10
 827.216
20
-69.397
30
0
0
VERTEX
8
Halfen
62
7
10
 828.567
20
-69.547
30
0
0
VERTEX
8
Halfen
62
7
10
 829.911
20
-69.756
30
0
0
VERTEX
8
Halfen
62
7
10
 831.243
20
-70.024
30
0
0
VERTEX
8
Halfen
62
7
10
 832.563
20
-70.351
30
0
0
VERTEX
8
Halfen
62
7
10
 833.867
20
-70.736
30
0
0
VERTEX
8
Halfen
62
7
10
 835.153
20
-71.178
30
0
0
VERTEX
8
Halfen
62
7
10
 836.418
20
-71.676
30
0
0
VERTEX
8
Halfen
62
7
10
 837.66
20
-72.23
30
0
0
VERTEX
8
Halfen
62
7
10
 838.876
20
-72.838
30
0
0
VERTEX
8
Halfen
62
7
10
 840.064
20
-73.499
30
0
0
VERTEX
8
Halfen
62
7
10
 841.222
20
-74.211
30
0
0
VERTEX
8
Halfen
62
7
10
 842.347
20
-74.975
30
0
0
VERTEX
8
Halfen
62
7
10
 843.437
20
-75.787
30
0
0
VERTEX
8
Halfen
62
7
10
 844.491
20
-76.646
30
0
0
VERTEX
8
Halfen
62
7
10
 845.505
20
-77.551
30
0
0
VERTEX
8
Halfen
62
7
10
 846.479
20
-78.5
30
0
0
VERTEX
8
Halfen
62
7
10
 847.41
20
-79.491
30
0
0
VERTEX
8
Halfen
62
7
10
 848.296
20
-80.522
30
0
0
VERTEX
8
Halfen
62
7
10
 848.397
20
-80.639
30
0
0
VERTEX
8
Halfen
62
7
10
 848.502
20
-80.752
30
0
0
VERTEX
8
Halfen
62
7
10
 848.613
20
-80.86
30
0
0
VERTEX
8
Halfen
62
7
10
 848.728
20
-80.963
30
0
0
VERTEX
8
Halfen
62
7
10
 848.848
20
-81.06
30
0
0
VERTEX
8
Halfen
62
7
10
 848.972
20
-81.153
30
0
0
VERTEX
8
Halfen
62
7
10
 849.1
20
-81.239
30
0
0
VERTEX
8
Halfen
62
7
10
 849.231
20
-81.32
30
0
0
VERTEX
8
Halfen
62
7
10
 849.366
20
-81.395
30
0
0
VERTEX
8
Halfen
62
7
10
 849.505
20
-81.464
30
0
0
VERTEX
8
Halfen
62
7
10
 849.646
20
-81.527
30
0
0
VERTEX
8
Halfen
62
7
10
 849.789
20
-81.584
30
0
0
VERTEX
8
Halfen
62
7
10
 849.936
20
-81.634
30
0
0
VERTEX
8
Halfen
62
7
10
 850.084
20
-81.678
30
0
0
VERTEX
8
Halfen
62
7
10
 850.234
20
-81.715
30
0
0
VERTEX
8
Halfen
62
7
10
 850.385
20
-81.746
30
0
0
VERTEX
8
Halfen
62
7
10
 850.538
20
-81.769
30
0
0
VERTEX
8
Halfen
62
7
10
 850.691
20
-81.786
30
0
0
VERTEX
8
Halfen
62
7
10
 850.846
20
-81.797
30
0
0
VERTEX
8
Halfen
62
7
10
 851
20
-81.8
30
0
0
SEQEND
8
Halfen
0
POLYLINE
8
Halfen
62
7
66
1
10
0.0
20
0.0
30
0.0
70
1
0
VERTEX
8
Halfen
62
7
10
 747
20
-775
30
0
0
VERTEX
8
Halfen
62
7
10
 747
20
-160
30
0
0
VERTEX
8
Halfen
62
7
10
 735
20
-160
30
0
0
VERTEX
8
Halfen
62
7
10
 735
20
-775
30
0
0
SEQEND
8
Halfen
0
POLYLINE
8
Halfen
62
7
66
1
10
0.0
20
0.0
30
0.0
70
1
0
VERTEX
8
Halfen
62
7
10
 746.25
20
-160
30
0
0
VERTEX
8
Halfen
62
7
10
 746.25
20
-62
30
0
0
VERTEX
8
Halfen
62
7
10
 735.75
20
-62
30
0
0
VERTEX
8
Halfen
62
7
10
 735.75
20
-160
30
0
0
SEQEND
8
Halfen
0
POLYLINE
8
Halfen
62
7
66
1
10
0.0
20
0.0
30
0.0
70
1
0
VERTEX
8
Halfen
62
7
10
 747
20
-62
30
0
0
VERTEX
8
Halfen
62
7
10
 747
20
-60
30
0
0
VERTEX
8
Halfen
62
7
10
 735
20
-60
30
0
0
VERTEX
8
Halfen
62
7
10
 735
20
-62
30
0
0
SEQEND
8
Halfen
0
POLYLINE
8
Halfen
62
7
66
1
10
0.0
20
0.0
30
0.0
70
1
0
VERTEX
8
Halfen
62
7
10
 746.25
20
-60
30
0
0
VERTEX
8
Halfen
62
7
10
 746.25
20
 60
30
0
0
VERTEX
8
Halfen
62
7
10
 735.75
20
 60
30
0
0
VERTEX
8
Halfen
62
7
10
 735.75
20
-60
30
0
0
SEQEND
8
Halfen
0
POLYLINE
8
Halfen
62
7
66
1
10
0.0
20
0.0
30
0.0
70
1
0
VERTEX
8
Halfen
62
7
10
 747
20
 60
30
0
0
VERTEX
8
Halfen
62
7
10
 747
20
 62
30
0
0
VERTEX
8
Halfen
62
7
10
 735
20
 62
30
0
0
VERTEX
8
Halfen
62
7
10
 735
20
 60
30
0
0
SEQEND
8
Halfen
0
POLYLINE
8
Halfen
62
7
66
1
10
0.0
20
0.0
30
0.0
70
1
0
VERTEX
8
Halfen
62
7
10
 746.25
20
 62
30
0
0
VERTEX
8
Halfen
62
7
10
 746.25
20
 160
30
0
0
VERTEX
8
Halfen
62
7
10
 735.75
20
 160
30
0
0
VERTEX
8
Halfen
62
7
10
 735.75
20
 62
30
0
0
SEQEND
8
Halfen
0
POLYLINE
8
Halfen
62
7
66
1
10
0.0
20
0.0
30
0.0
70
1
0
VERTEX
8
Halfen
62
7
10
 747
20
 160
30
0
0
VERTEX
8
Halfen
62
7
10
 747
20
 775
30
0
0
VERTEX
8
Halfen
62
7
10
 735
20
 775
30
0
0
VERTEX
8
Halfen
62
7
10
 735
20
 160
30
0
0
SEQEND
8
Halfen
0
ENDSEC
0
EOF
