0
SECTION
2
HEADER
9
$EXTMIN
10
 0
20
 100
30
0.0
9
$EXTMAX
10
 0
20
 100
30
0.0
9
$LIMMIN
10
 100
20
 0
9
$LIMMAX
10
 0
20
 100
9
$PSLTSCALE
70
1
0
ENDSEC
0
SECTION
2
TABLES
0
TABLE
2
LAYER
70
2
0
LAYER
2
0
70
0
62
7
6
CONTINUOUS
0
LAYER
2
Halfen
70
0
62
7
6
CONTINUOUS
0
ENDTAB
0
ENDSEC
0
SECTION
2
ENTITIES
0
POLYLINE
8
Halfen
62
7
66
1
10
0.0
20
0.0
30
0.0
70
1
0
VERTEX
8
Halfen
62
7
10
 0
20
-73.5
30
0
0
VERTEX
8
Halfen
62
7
10
 500
20
-73.5
30
0
0
VERTEX
8
Halfen
62
7
10
 500
20
 73.5
30
0
0
VERTEX
8
Halfen
62
7
10
 0
20
 73.5
30
0
0
SEQEND
8
Halfen
0
POLYLINE
8
Halfen
62
7
66
1
10
0.0
20
0.0
30
0.0
70
1
0
VERTEX
8
Halfen
62
7
10
 0
20
-60
30
0
0
VERTEX
8
Halfen
62
7
10
 500
20
-60
30
0
0
VERTEX
8
Halfen
62
7
10
 500
20
 60
30
0
0
VERTEX
8
Halfen
62
7
10
 0
20
 60
30
0
0
SEQEND
8
Halfen
0
POLYLINE
8
Halfen
62
7
66
1
10
0.0
20
0.0
30
0.0
70
1
0
VERTEX
8
Halfen
62
7
10
 20
20
-32.5
30
0
0
VERTEX
8
Halfen
62
7
10
 37
20
-1.5
30
0
0
VERTEX
8
Halfen
62
7
10
 28
20
-1.5
30
0
0
VERTEX
8
Halfen
62
7
10
 28
20
 32.5
30
0
0
VERTEX
8
Halfen
62
7
10
 12
20
 32.5
30
0
0
VERTEX
8
Halfen
62
7
10
 12
20
-1.5
30
0
0
VERTEX
8
Halfen
62
7
10
 3
20
-1.5
30
0
0
SEQEND
8
Halfen
0
POLYLINE
8
Halfen
62
7
66
1
10
0.0
20
0.0
30
0.0
70
1
0
VERTEX
8
Halfen
62
7
10
 480
20
-32.5
30
0
0
VERTEX
8
Halfen
62
7
10
 497
20
-1.5
30
0
0
VERTEX
8
Halfen
62
7
10
 488
20
-1.5
30
0
0
VERTEX
8
Halfen
62
7
10
 488
20
 32.5
30
0
0
VERTEX
8
Halfen
62
7
10
 472
20
 32.5
30
0
0
VERTEX
8
Halfen
62
7
10
 472
20
-1.5
30
0
0
VERTEX
8
Halfen
62
7
10
 463
20
-1.5
30
0
0
SEQEND
8
Halfen
0
POLYLINE
8
Halfen
62
7
66
1
10
0.0
20
0.0
30
0.0
70
1
0
VERTEX
8
Halfen
62
7
10
 140
20
-69.3
30
0
0
VERTEX
8
Halfen
62
7
10
 140
20
-56.8
30
0
0
VERTEX
8
Halfen
62
7
10
 140
20
 69.3
30
0
0
VERTEX
8
Halfen
62
7
10
 139.958
20
 70.359
30
0
0
VERTEX
8
Halfen
62
7
10
 139.834
20
 71.412
30
0
0
VERTEX
8
Halfen
62
7
10
 139.627
20
 72.452
30
0
0
VERTEX
8
Halfen
62
7
10
 139.339
20
 73.472
30
0
0
VERTEX
8
Halfen
62
7
10
 138.972
20
 74.466
30
0
0
VERTEX
8
Halfen
62
7
10
 138.529
20
 75.429
30
0
0
VERTEX
8
Halfen
62
7
10
 138.011
20
 76.354
30
0
0
VERTEX
8
Halfen
62
7
10
 137.422
20
 77.235
30
0
0
VERTEX
8
Halfen
62
7
10
 136.765
20
 78.068
30
0
0
VERTEX
8
Halfen
62
7
10
 136.046
20
 78.846
30
0
0
VERTEX
8
Halfen
62
7
10
 135.268
20
 79.565
30
0
0
VERTEX
8
Halfen
62
7
10
 134.435
20
 80.222
30
0
0
VERTEX
8
Halfen
62
7
10
 133.554
20
 80.811
30
0
0
VERTEX
8
Halfen
62
7
10
 132.629
20
 81.329
30
0
0
VERTEX
8
Halfen
62
7
10
 131.666
20
 81.772
30
0
0
VERTEX
8
Halfen
62
7
10
 130.672
20
 82.139
30
0
0
VERTEX
8
Halfen
62
7
10
 129.652
20
 82.427
30
0
0
VERTEX
8
Halfen
62
7
10
 128.612
20
 82.634
30
0
0
VERTEX
8
Halfen
62
7
10
 127.559
20
 82.758
30
0
0
VERTEX
8
Halfen
62
7
10
 126.5
20
 82.8
30
0
0
VERTEX
8
Halfen
62
7
10
 123.5
20
 82.8
30
0
0
VERTEX
8
Halfen
62
7
10
 122.441
20
 82.758
30
0
0
VERTEX
8
Halfen
62
7
10
 121.388
20
 82.634
30
0
0
VERTEX
8
Halfen
62
7
10
 120.348
20
 82.427
30
0
0
VERTEX
8
Halfen
62
7
10
 119.328
20
 82.139
30
0
0
VERTEX
8
Halfen
62
7
10
 118.334
20
 81.772
30
0
0
VERTEX
8
Halfen
62
7
10
 117.371
20
 81.329
30
0
0
VERTEX
8
Halfen
62
7
10
 116.446
20
 80.811
30
0
0
VERTEX
8
Halfen
62
7
10
 115.565
20
 80.222
30
0
0
VERTEX
8
Halfen
62
7
10
 114.732
20
 79.565
30
0
0
VERTEX
8
Halfen
62
7
10
 113.954
20
 78.846
30
0
0
VERTEX
8
Halfen
62
7
10
 113.235
20
 78.068
30
0
0
VERTEX
8
Halfen
62
7
10
 112.578
20
 77.235
30
0
0
VERTEX
8
Halfen
62
7
10
 111.989
20
 76.354
30
0
0
VERTEX
8
Halfen
62
7
10
 111.471
20
 75.429
30
0
0
VERTEX
8
Halfen
62
7
10
 111.028
20
 74.466
30
0
0
VERTEX
8
Halfen
62
7
10
 110.661
20
 73.472
30
0
0
VERTEX
8
Halfen
62
7
10
 110.373
20
 72.452
30
0
0
VERTEX
8
Halfen
62
7
10
 110.166
20
 71.412
30
0
0
VERTEX
8
Halfen
62
7
10
 110.042
20
 70.359
30
0
0
VERTEX
8
Halfen
62
7
10
 110
20
 69.3
30
0
0
VERTEX
8
Halfen
62
7
10
 110
20
-56.8
30
0
0
VERTEX
8
Halfen
62
7
10
 110
20
-69.3
30
0
0
VERTEX
8
Halfen
62
7
10
 110.042
20
-70.359
30
0
0
VERTEX
8
Halfen
62
7
10
 110.166
20
-71.412
30
0
0
VERTEX
8
Halfen
62
7
10
 110.373
20
-72.452
30
0
0
VERTEX
8
Halfen
62
7
10
 110.661
20
-73.472
30
0
0
VERTEX
8
Halfen
62
7
10
 111.028
20
-74.466
30
0
0
VERTEX
8
Halfen
62
7
10
 111.471
20
-75.429
30
0
0
VERTEX
8
Halfen
62
7
10
 111.989
20
-76.354
30
0
0
VERTEX
8
Halfen
62
7
10
 112.578
20
-77.235
30
0
0
VERTEX
8
Halfen
62
7
10
 113.235
20
-78.068
30
0
0
VERTEX
8
Halfen
62
7
10
 113.954
20
-78.846
30
0
0
VERTEX
8
Halfen
62
7
10
 114.732
20
-79.565
30
0
0
VERTEX
8
Halfen
62
7
10
 115.565
20
-80.222
30
0
0
VERTEX
8
Halfen
62
7
10
 116.446
20
-80.811
30
0
0
VERTEX
8
Halfen
62
7
10
 117.371
20
-81.329
30
0
0
VERTEX
8
Halfen
62
7
10
 118.334
20
-81.772
30
0
0
VERTEX
8
Halfen
62
7
10
 119.328
20
-82.139
30
0
0
VERTEX
8
Halfen
62
7
10
 120.348
20
-82.427
30
0
0
VERTEX
8
Halfen
62
7
10
 121.388
20
-82.634
30
0
0
VERTEX
8
Halfen
62
7
10
 122.441
20
-82.758
30
0
0
VERTEX
8
Halfen
62
7
10
 123.5
20
-82.8
30
0
0
VERTEX
8
Halfen
62
7
10
 126.5
20
-82.8
30
0
0
VERTEX
8
Halfen
62
7
10
 127.559
20
-82.758
30
0
0
VERTEX
8
Halfen
62
7
10
 128.612
20
-82.634
30
0
0
VERTEX
8
Halfen
62
7
10
 129.652
20
-82.427
30
0
0
VERTEX
8
Halfen
62
7
10
 130.672
20
-82.139
30
0
0
VERTEX
8
Halfen
62
7
10
 131.666
20
-81.772
30
0
0
VERTEX
8
Halfen
62
7
10
 132.629
20
-81.329
30
0
0
VERTEX
8
Halfen
62
7
10
 133.554
20
-80.811
30
0
0
VERTEX
8
Halfen
62
7
10
 134.435
20
-80.222
30
0
0
VERTEX
8
Halfen
62
7
10
 135.268
20
-79.565
30
0
0
VERTEX
8
Halfen
62
7
10
 136.046
20
-78.846
30
0
0
VERTEX
8
Halfen
62
7
10
 136.765
20
-78.068
30
0
0
VERTEX
8
Halfen
62
7
10
 137.422
20
-77.235
30
0
0
VERTEX
8
Halfen
62
7
10
 138.011
20
-76.354
30
0
0
VERTEX
8
Halfen
62
7
10
 138.529
20
-75.429
30
0
0
VERTEX
8
Halfen
62
7
10
 138.972
20
-74.466
30
0
0
VERTEX
8
Halfen
62
7
10
 139.339
20
-73.472
30
0
0
VERTEX
8
Halfen
62
7
10
 139.627
20
-72.452
30
0
0
VERTEX
8
Halfen
62
7
10
 139.834
20
-71.412
30
0
0
VERTEX
8
Halfen
62
7
10
 139.958
20
-70.359
30
0
0
VERTEX
8
Halfen
62
7
10
 140
20
-69.3
30
0
0
SEQEND
8
Halfen
0
POLYLINE
8
Halfen
62
7
66
1
10
0.0
20
0.0
30
0.0
70
1
0
VERTEX
8
Halfen
62
7
10
 390
20
-69.3
30
0
0
VERTEX
8
Halfen
62
7
10
 390
20
-56.8
30
0
0
VERTEX
8
Halfen
62
7
10
 390
20
 69.3
30
0
0
VERTEX
8
Halfen
62
7
10
 389.958
20
 70.359
30
0
0
VERTEX
8
Halfen
62
7
10
 389.834
20
 71.412
30
0
0
VERTEX
8
Halfen
62
7
10
 389.627
20
 72.452
30
0
0
VERTEX
8
Halfen
62
7
10
 389.339
20
 73.472
30
0
0
VERTEX
8
Halfen
62
7
10
 388.972
20
 74.466
30
0
0
VERTEX
8
Halfen
62
7
10
 388.529
20
 75.429
30
0
0
VERTEX
8
Halfen
62
7
10
 388.011
20
 76.354
30
0
0
VERTEX
8
Halfen
62
7
10
 387.422
20
 77.235
30
0
0
VERTEX
8
Halfen
62
7
10
 386.765
20
 78.068
30
0
0
VERTEX
8
Halfen
62
7
10
 386.046
20
 78.846
30
0
0
VERTEX
8
Halfen
62
7
10
 385.268
20
 79.565
30
0
0
VERTEX
8
Halfen
62
7
10
 384.435
20
 80.222
30
0
0
VERTEX
8
Halfen
62
7
10
 383.554
20
 80.811
30
0
0
VERTEX
8
Halfen
62
7
10
 382.629
20
 81.329
30
0
0
VERTEX
8
Halfen
62
7
10
 381.666
20
 81.772
30
0
0
VERTEX
8
Halfen
62
7
10
 380.672
20
 82.139
30
0
0
VERTEX
8
Halfen
62
7
10
 379.652
20
 82.427
30
0
0
VERTEX
8
Halfen
62
7
10
 378.612
20
 82.634
30
0
0
VERTEX
8
Halfen
62
7
10
 377.559
20
 82.758
30
0
0
VERTEX
8
Halfen
62
7
10
 376.5
20
 82.8
30
0
0
VERTEX
8
Halfen
62
7
10
 373.5
20
 82.8
30
0
0
VERTEX
8
Halfen
62
7
10
 372.441
20
 82.758
30
0
0
VERTEX
8
Halfen
62
7
10
 371.388
20
 82.634
30
0
0
VERTEX
8
Halfen
62
7
10
 370.348
20
 82.427
30
0
0
VERTEX
8
Halfen
62
7
10
 369.328
20
 82.139
30
0
0
VERTEX
8
Halfen
62
7
10
 368.334
20
 81.772
30
0
0
VERTEX
8
Halfen
62
7
10
 367.371
20
 81.329
30
0
0
VERTEX
8
Halfen
62
7
10
 366.446
20
 80.811
30
0
0
VERTEX
8
Halfen
62
7
10
 365.565
20
 80.222
30
0
0
VERTEX
8
Halfen
62
7
10
 364.732
20
 79.565
30
0
0
VERTEX
8
Halfen
62
7
10
 363.954
20
 78.846
30
0
0
VERTEX
8
Halfen
62
7
10
 363.235
20
 78.068
30
0
0
VERTEX
8
Halfen
62
7
10
 362.578
20
 77.235
30
0
0
VERTEX
8
Halfen
62
7
10
 361.989
20
 76.354
30
0
0
VERTEX
8
Halfen
62
7
10
 361.471
20
 75.429
30
0
0
VERTEX
8
Halfen
62
7
10
 361.028
20
 74.466
30
0
0
VERTEX
8
Halfen
62
7
10
 360.661
20
 73.472
30
0
0
VERTEX
8
Halfen
62
7
10
 360.373
20
 72.452
30
0
0
VERTEX
8
Halfen
62
7
10
 360.166
20
 71.412
30
0
0
VERTEX
8
Halfen
62
7
10
 360.042
20
 70.359
30
0
0
VERTEX
8
Halfen
62
7
10
 360
20
 69.3
30
0
0
VERTEX
8
Halfen
62
7
10
 360
20
-56.8
30
0
0
VERTEX
8
Halfen
62
7
10
 360
20
-69.3
30
0
0
VERTEX
8
Halfen
62
7
10
 360.042
20
-70.359
30
0
0
VERTEX
8
Halfen
62
7
10
 360.166
20
-71.412
30
0
0
VERTEX
8
Halfen
62
7
10
 360.373
20
-72.452
30
0
0
VERTEX
8
Halfen
62
7
10
 360.661
20
-73.472
30
0
0
VERTEX
8
Halfen
62
7
10
 361.028
20
-74.466
30
0
0
VERTEX
8
Halfen
62
7
10
 361.471
20
-75.429
30
0
0
VERTEX
8
Halfen
62
7
10
 361.989
20
-76.354
30
0
0
VERTEX
8
Halfen
62
7
10
 362.578
20
-77.235
30
0
0
VERTEX
8
Halfen
62
7
10
 363.235
20
-78.068
30
0
0
VERTEX
8
Halfen
62
7
10
 363.954
20
-78.846
30
0
0
VERTEX
8
Halfen
62
7
10
 364.732
20
-79.565
30
0
0
VERTEX
8
Halfen
62
7
10
 365.565
20
-80.222
30
0
0
VERTEX
8
Halfen
62
7
10
 366.446
20
-80.811
30
0
0
VERTEX
8
Halfen
62
7
10
 367.371
20
-81.329
30
0
0
VERTEX
8
Halfen
62
7
10
 368.334
20
-81.772
30
0
0
VERTEX
8
Halfen
62
7
10
 369.328
20
-82.139
30
0
0
VERTEX
8
Halfen
62
7
10
 370.348
20
-82.427
30
0
0
VERTEX
8
Halfen
62
7
10
 371.388
20
-82.634
30
0
0
VERTEX
8
Halfen
62
7
10
 372.441
20
-82.758
30
0
0
VERTEX
8
Halfen
62
7
10
 373.5
20
-82.8
30
0
0
VERTEX
8
Halfen
62
7
10
 376.5
20
-82.8
30
0
0
VERTEX
8
Halfen
62
7
10
 377.559
20
-82.758
30
0
0
VERTEX
8
Halfen
62
7
10
 378.612
20
-82.634
30
0
0
VERTEX
8
Halfen
62
7
10
 379.652
20
-82.427
30
0
0
VERTEX
8
Halfen
62
7
10
 380.672
20
-82.139
30
0
0
VERTEX
8
Halfen
62
7
10
 381.666
20
-81.772
30
0
0
VERTEX
8
Halfen
62
7
10
 382.629
20
-81.329
30
0
0
VERTEX
8
Halfen
62
7
10
 383.554
20
-80.811
30
0
0
VERTEX
8
Halfen
62
7
10
 384.435
20
-80.222
30
0
0
VERTEX
8
Halfen
62
7
10
 385.268
20
-79.565
30
0
0
VERTEX
8
Halfen
62
7
10
 386.046
20
-78.846
30
0
0
VERTEX
8
Halfen
62
7
10
 386.765
20
-78.068
30
0
0
VERTEX
8
Halfen
62
7
10
 387.422
20
-77.235
30
0
0
VERTEX
8
Halfen
62
7
10
 388.011
20
-76.354
30
0
0
VERTEX
8
Halfen
62
7
10
 388.529
20
-75.429
30
0
0
VERTEX
8
Halfen
62
7
10
 388.972
20
-74.466
30
0
0
VERTEX
8
Halfen
62
7
10
 389.339
20
-73.472
30
0
0
VERTEX
8
Halfen
62
7
10
 389.627
20
-72.452
30
0
0
VERTEX
8
Halfen
62
7
10
 389.834
20
-71.412
30
0
0
VERTEX
8
Halfen
62
7
10
 389.958
20
-70.359
30
0
0
VERTEX
8
Halfen
62
7
10
 390
20
-69.3
30
0
0
SEQEND
8
Halfen
0
POLYLINE
8
Halfen
62
7
66
1
10
0.0
20
0.0
30
0.0
70
1
0
VERTEX
8
Halfen
62
7
10
 131
20
-775
30
0
0
VERTEX
8
Halfen
62
7
10
 131
20
-160
30
0
0
VERTEX
8
Halfen
62
7
10
 119
20
-160
30
0
0
VERTEX
8
Halfen
62
7
10
 119
20
-775
30
0
0
SEQEND
8
Halfen
0
POLYLINE
8
Halfen
62
7
66
1
10
0.0
20
0.0
30
0.0
70
1
0
VERTEX
8
Halfen
62
7
10
 130.25
20
-160
30
0
0
VERTEX
8
Halfen
62
7
10
 130.25
20
-62
30
0
0
VERTEX
8
Halfen
62
7
10
 119.75
20
-62
30
0
0
VERTEX
8
Halfen
62
7
10
 119.75
20
-160
30
0
0
SEQEND
8
Halfen
0
POLYLINE
8
Halfen
62
7
66
1
10
0.0
20
0.0
30
0.0
70
1
0
VERTEX
8
Halfen
62
7
10
 131
20
-62
30
0
0
VERTEX
8
Halfen
62
7
10
 131
20
-60
30
0
0
VERTEX
8
Halfen
62
7
10
 119
20
-60
30
0
0
VERTEX
8
Halfen
62
7
10
 119
20
-62
30
0
0
SEQEND
8
Halfen
0
POLYLINE
8
Halfen
62
7
66
1
10
0.0
20
0.0
30
0.0
70
1
0
VERTEX
8
Halfen
62
7
10
 130.25
20
-60
30
0
0
VERTEX
8
Halfen
62
7
10
 130.25
20
 60
30
0
0
VERTEX
8
Halfen
62
7
10
 119.75
20
 60
30
0
0
VERTEX
8
Halfen
62
7
10
 119.75
20
-60
30
0
0
SEQEND
8
Halfen
0
POLYLINE
8
Halfen
62
7
66
1
10
0.0
20
0.0
30
0.0
70
1
0
VERTEX
8
Halfen
62
7
10
 131
20
 60
30
0
0
VERTEX
8
Halfen
62
7
10
 131
20
 62
30
0
0
VERTEX
8
Halfen
62
7
10
 119
20
 62
30
0
0
VERTEX
8
Halfen
62
7
10
 119
20
 60
30
0
0
SEQEND
8
Halfen
0
POLYLINE
8
Halfen
62
7
66
1
10
0.0
20
0.0
30
0.0
70
1
0
VERTEX
8
Halfen
62
7
10
 130.25
20
 62
30
0
0
VERTEX
8
Halfen
62
7
10
 130.25
20
 160
30
0
0
VERTEX
8
Halfen
62
7
10
 119.75
20
 160
30
0
0
VERTEX
8
Halfen
62
7
10
 119.75
20
 62
30
0
0
SEQEND
8
Halfen
0
POLYLINE
8
Halfen
62
7
66
1
10
0.0
20
0.0
30
0.0
70
1
0
VERTEX
8
Halfen
62
7
10
 131
20
 160
30
0
0
VERTEX
8
Halfen
62
7
10
 131
20
 775
30
0
0
VERTEX
8
Halfen
62
7
10
 119
20
 775
30
0
0
VERTEX
8
Halfen
62
7
10
 119
20
 160
30
0
0
SEQEND
8
Halfen
0
POLYLINE
8
Halfen
62
7
66
1
10
0.0
20
0.0
30
0.0
70
1
0
VERTEX
8
Halfen
62
7
10
 381
20
-775
30
0
0
VERTEX
8
Halfen
62
7
10
 381
20
-160
30
0
0
VERTEX
8
Halfen
62
7
10
 369
20
-160
30
0
0
VERTEX
8
Halfen
62
7
10
 369
20
-775
30
0
0
SEQEND
8
Halfen
0
POLYLINE
8
Halfen
62
7
66
1
10
0.0
20
0.0
30
0.0
70
1
0
VERTEX
8
Halfen
62
7
10
 380.25
20
-160
30
0
0
VERTEX
8
Halfen
62
7
10
 380.25
20
-62
30
0
0
VERTEX
8
Halfen
62
7
10
 369.75
20
-62
30
0
0
VERTEX
8
Halfen
62
7
10
 369.75
20
-160
30
0
0
SEQEND
8
Halfen
0
POLYLINE
8
Halfen
62
7
66
1
10
0.0
20
0.0
30
0.0
70
1
0
VERTEX
8
Halfen
62
7
10
 381
20
-62
30
0
0
VERTEX
8
Halfen
62
7
10
 381
20
-60
30
0
0
VERTEX
8
Halfen
62
7
10
 369
20
-60
30
0
0
VERTEX
8
Halfen
62
7
10
 369
20
-62
30
0
0
SEQEND
8
Halfen
0
POLYLINE
8
Halfen
62
7
66
1
10
0.0
20
0.0
30
0.0
70
1
0
VERTEX
8
Halfen
62
7
10
 380.25
20
-60
30
0
0
VERTEX
8
Halfen
62
7
10
 380.25
20
 60
30
0
0
VERTEX
8
Halfen
62
7
10
 369.75
20
 60
30
0
0
VERTEX
8
Halfen
62
7
10
 369.75
20
-60
30
0
0
SEQEND
8
Halfen
0
POLYLINE
8
Halfen
62
7
66
1
10
0.0
20
0.0
30
0.0
70
1
0
VERTEX
8
Halfen
62
7
10
 381
20
 60
30
0
0
VERTEX
8
Halfen
62
7
10
 381
20
 62
30
0
0
VERTEX
8
Halfen
62
7
10
 369
20
 62
30
0
0
VERTEX
8
Halfen
62
7
10
 369
20
 60
30
0
0
SEQEND
8
Halfen
0
POLYLINE
8
Halfen
62
7
66
1
10
0.0
20
0.0
30
0.0
70
1
0
VERTEX
8
Halfen
62
7
10
 380.25
20
 62
30
0
0
VERTEX
8
Halfen
62
7
10
 380.25
20
 160
30
0
0
VERTEX
8
Halfen
62
7
10
 369.75
20
 160
30
0
0
VERTEX
8
Halfen
62
7
10
 369.75
20
 62
30
0
0
SEQEND
8
Halfen
0
POLYLINE
8
Halfen
62
7
66
1
10
0.0
20
0.0
30
0.0
70
1
0
VERTEX
8
Halfen
62
7
10
 381
20
 160
30
0
0
VERTEX
8
Halfen
62
7
10
 381
20
 775
30
0
0
VERTEX
8
Halfen
62
7
10
 369
20
 775
30
0
0
VERTEX
8
Halfen
62
7
10
 369
20
 160
30
0
0
SEQEND
8
Halfen
0
POLYLINE
8
Halfen
62
7
66
1
10
0.0
20
0.0
30
0.0
70
1
0
VERTEX
8
Halfen
62
7
10
 970
20
-60
30
0
0
VERTEX
8
Halfen
62
7
10
 970
20
 60
30
0
0
VERTEX
8
Halfen
62
7
10
 956.5
20
 73.5
30
0
0
VERTEX
8
Halfen
62
7
10
 956.5
20
 60
30
0
0
VERTEX
8
Halfen
62
7
10
 750
20
 60
30
0
0
VERTEX
8
Halfen
62
7
10
 750
20
-60
30
0
0
VERTEX
8
Halfen
62
7
10
 956.5
20
-60
30
0
0
VERTEX
8
Halfen
62
7
10
 956.5
20
-73.5
30
0
0
SEQEND
8
Halfen
0
POLYLINE
8
Halfen
62
7
66
1
10
0.0
20
0.0
30
0.0
70
1
0
VERTEX
8
Halfen
62
7
10
 750
20
-60
30
0
0
VERTEX
8
Halfen
62
7
10
 750
20
 60
30
0
0
VERTEX
8
Halfen
62
7
10
 713.5
20
 60
30
0
0
VERTEX
8
Halfen
62
7
10
 713.5
20
 73.5
30
0
0
VERTEX
8
Halfen
62
7
10
 700
20
 60
30
0
0
VERTEX
8
Halfen
62
7
10
 700
20
-60
30
0
0
VERTEX
8
Halfen
62
7
10
 713.5
20
-73.5
30
0
0
VERTEX
8
Halfen
62
7
10
 713.5
20
-60
30
0
0
SEQEND
8
Halfen
0
POLYLINE
8
Halfen
62
7
66
1
10
0.0
20
0.0
30
0.0
70
1
0
VERTEX
8
Halfen
62
7
10
 967.5
20
-58.75
30
0
0
VERTEX
8
Halfen
62
7
10
 967.5
20
 58.75
30
0
0
VERTEX
8
Halfen
62
7
10
 959
20
 67.25
30
0
0
VERTEX
8
Halfen
62
7
10
 959
20
 58
30
0
0
VERTEX
8
Halfen
62
7
10
 752
20
 58
30
0
0
VERTEX
8
Halfen
62
7
10
 752
20
-58
30
0
0
VERTEX
8
Halfen
62
7
10
 959
20
-58
30
0
0
VERTEX
8
Halfen
62
7
10
 959
20
-67.25
30
0
0
SEQEND
8
Halfen
0
POLYLINE
8
Halfen
62
7
66
1
10
0.0
20
0.0
30
0.0
70
1
0
VERTEX
8
Halfen
62
7
10
 748
20
-58
30
0
0
VERTEX
8
Halfen
62
7
10
 748
20
 58
30
0
0
VERTEX
8
Halfen
62
7
10
 711
20
 58
30
0
0
VERTEX
8
Halfen
62
7
10
 711
20
 67.25
30
0
0
VERTEX
8
Halfen
62
7
10
 702.5
20
 58.75
30
0
0
VERTEX
8
Halfen
62
7
10
 702.5
20
-58.75
30
0
0
VERTEX
8
Halfen
62
7
10
 711
20
-67.25
30
0
0
VERTEX
8
Halfen
62
7
10
 711
20
-58
30
0
0
SEQEND
8
Halfen
0
POLYLINE
8
Halfen
62
7
66
1
10
0.0
20
0.0
30
0.0
70
1
0
VERTEX
8
Halfen
62
7
10
 955
20
-81.8
30
0
0
VERTEX
8
Halfen
62
7
10
 955
20
 81.8
30
0
0
VERTEX
8
Halfen
62
7
10
 951
20
 81.8
30
0
0
VERTEX
8
Halfen
62
7
10
 950.846
20
 81.797
30
0
0
VERTEX
8
Halfen
62
7
10
 950.691
20
 81.786
30
0
0
VERTEX
8
Halfen
62
7
10
 950.538
20
 81.769
30
0
0
VERTEX
8
Halfen
62
7
10
 950.385
20
 81.746
30
0
0
VERTEX
8
Halfen
62
7
10
 950.234
20
 81.715
30
0
0
VERTEX
8
Halfen
62
7
10
 950.084
20
 81.678
30
0
0
VERTEX
8
Halfen
62
7
10
 949.936
20
 81.634
30
0
0
VERTEX
8
Halfen
62
7
10
 949.789
20
 81.584
30
0
0
VERTEX
8
Halfen
62
7
10
 949.646
20
 81.527
30
0
0
VERTEX
8
Halfen
62
7
10
 949.505
20
 81.464
30
0
0
VERTEX
8
Halfen
62
7
10
 949.366
20
 81.395
30
0
0
VERTEX
8
Halfen
62
7
10
 949.231
20
 81.32
30
0
0
VERTEX
8
Halfen
62
7
10
 949.1
20
 81.239
30
0
0
VERTEX
8
Halfen
62
7
10
 948.972
20
 81.153
30
0
0
VERTEX
8
Halfen
62
7
10
 948.848
20
 81.06
30
0
0
VERTEX
8
Halfen
62
7
10
 948.728
20
 80.963
30
0
0
VERTEX
8
Halfen
62
7
10
 948.613
20
 80.86
30
0
0
VERTEX
8
Halfen
62
7
10
 948.502
20
 80.752
30
0
0
VERTEX
8
Halfen
62
7
10
 948.397
20
 80.639
30
0
0
VERTEX
8
Halfen
62
7
10
 948.296
20
 80.522
30
0
0
VERTEX
8
Halfen
62
7
10
 947.41
20
 79.491
30
0
0
VERTEX
8
Halfen
62
7
10
 946.479
20
 78.5
30
0
0
VERTEX
8
Halfen
62
7
10
 945.505
20
 77.551
30
0
0
VERTEX
8
Halfen
62
7
10
 944.491
20
 76.646
30
0
0
VERTEX
8
Halfen
62
7
10
 943.437
20
 75.787
30
0
0
VERTEX
8
Halfen
62
7
10
 942.347
20
 74.975
30
0
0
VERTEX
8
Halfen
62
7
10
 941.222
20
 74.211
30
0
0
VERTEX
8
Halfen
62
7
10
 940.064
20
 73.499
30
0
0
VERTEX
8
Halfen
62
7
10
 938.876
20
 72.838
30
0
0
VERTEX
8
Halfen
62
7
10
 937.66
20
 72.23
30
0
0
VERTEX
8
Halfen
62
7
10
 936.418
20
 71.676
30
0
0
VERTEX
8
Halfen
62
7
10
 935.153
20
 71.178
30
0
0
VERTEX
8
Halfen
62
7
10
 933.867
20
 70.736
30
0
0
VERTEX
8
Halfen
62
7
10
 932.563
20
 70.351
30
0
0
VERTEX
8
Halfen
62
7
10
 931.243
20
 70.024
30
0
0
VERTEX
8
Halfen
62
7
10
 929.911
20
 69.756
30
0
0
VERTEX
8
Halfen
62
7
10
 928.567
20
 69.547
30
0
0
VERTEX
8
Halfen
62
7
10
 927.216
20
 69.397
30
0
0
VERTEX
8
Halfen
62
7
10
 925.859
20
 69.307
30
0
0
VERTEX
8
Halfen
62
7
10
 924.5
20
 69.277
30
0
0
VERTEX
8
Halfen
62
7
10
 902.5
20
 69.277
30
0
0
VERTEX
8
Halfen
62
7
10
 901.141
20
 69.307
30
0
0
VERTEX
8
Halfen
62
7
10
 899.784
20
 69.397
30
0
0
VERTEX
8
Halfen
62
7
10
 898.433
20
 69.547
30
0
0
VERTEX
8
Halfen
62
7
10
 897.089
20
 69.756
30
0
0
VERTEX
8
Halfen
62
7
10
 895.757
20
 70.024
30
0
0
VERTEX
8
Halfen
62
7
10
 894.437
20
 70.351
30
0
0
VERTEX
8
Halfen
62
7
10
 893.133
20
 70.736
30
0
0
VERTEX
8
Halfen
62
7
10
 891.847
20
 71.178
30
0
0
VERTEX
8
Halfen
62
7
10
 890.582
20
 71.676
30
0
0
VERTEX
8
Halfen
62
7
10
 889.34
20
 72.23
30
0
0
VERTEX
8
Halfen
62
7
10
 888.124
20
 72.838
30
0
0
VERTEX
8
Halfen
62
7
10
 886.936
20
 73.499
30
0
0
VERTEX
8
Halfen
62
7
10
 885.778
20
 74.211
30
0
0
VERTEX
8
Halfen
62
7
10
 884.653
20
 74.975
30
0
0
VERTEX
8
Halfen
62
7
10
 883.563
20
 75.787
30
0
0
VERTEX
8
Halfen
62
7
10
 882.509
20
 76.646
30
0
0
VERTEX
8
Halfen
62
7
10
 881.495
20
 77.551
30
0
0
VERTEX
8
Halfen
62
7
10
 880.521
20
 78.5
30
0
0
VERTEX
8
Halfen
62
7
10
 879.59
20
 79.491
30
0
0
VERTEX
8
Halfen
62
7
10
 878.704
20
 80.522
30
0
0
VERTEX
8
Halfen
62
7
10
 878.603
20
 80.639
30
0
0
VERTEX
8
Halfen
62
7
10
 878.498
20
 80.752
30
0
0
VERTEX
8
Halfen
62
7
10
 878.387
20
 80.86
30
0
0
VERTEX
8
Halfen
62
7
10
 878.272
20
 80.963
30
0
0
VERTEX
8
Halfen
62
7
10
 878.152
20
 81.06
30
0
0
VERTEX
8
Halfen
62
7
10
 878.028
20
 81.153
30
0
0
VERTEX
8
Halfen
62
7
10
 877.9
20
 81.239
30
0
0
VERTEX
8
Halfen
62
7
10
 877.769
20
 81.32
30
0
0
VERTEX
8
Halfen
62
7
10
 877.634
20
 81.395
30
0
0
VERTEX
8
Halfen
62
7
10
 877.495
20
 81.464
30
0
0
VERTEX
8
Halfen
62
7
10
 877.354
20
 81.527
30
0
0
VERTEX
8
Halfen
62
7
10
 877.211
20
 81.584
30
0
0
VERTEX
8
Halfen
62
7
10
 877.064
20
 81.634
30
0
0
VERTEX
8
Halfen
62
7
10
 876.916
20
 81.678
30
0
0
VERTEX
8
Halfen
62
7
10
 876.766
20
 81.715
30
0
0
VERTEX
8
Halfen
62
7
10
 876.615
20
 81.746
30
0
0
VERTEX
8
Halfen
62
7
10
 876.462
20
 81.769
30
0
0
VERTEX
8
Halfen
62
7
10
 876.309
20
 81.786
30
0
0
VERTEX
8
Halfen
62
7
10
 876.154
20
 81.797
30
0
0
VERTEX
8
Halfen
62
7
10
 876
20
 81.8
30
0
0
VERTEX
8
Halfen
62
7
10
 872
20
 81.8
30
0
0
VERTEX
8
Halfen
62
7
10
 872
20
-81.8
30
0
0
VERTEX
8
Halfen
62
7
10
 876
20
-81.8
30
0
0
VERTEX
8
Halfen
62
7
10
 876.154
20
-81.797
30
0
0
VERTEX
8
Halfen
62
7
10
 876.309
20
-81.786
30
0
0
VERTEX
8
Halfen
62
7
10
 876.462
20
-81.769
30
0
0
VERTEX
8
Halfen
62
7
10
 876.615
20
-81.746
30
0
0
VERTEX
8
Halfen
62
7
10
 876.766
20
-81.715
30
0
0
VERTEX
8
Halfen
62
7
10
 876.916
20
-81.678
30
0
0
VERTEX
8
Halfen
62
7
10
 877.064
20
-81.634
30
0
0
VERTEX
8
Halfen
62
7
10
 877.211
20
-81.584
30
0
0
VERTEX
8
Halfen
62
7
10
 877.354
20
-81.527
30
0
0
VERTEX
8
Halfen
62
7
10
 877.495
20
-81.464
30
0
0
VERTEX
8
Halfen
62
7
10
 877.634
20
-81.395
30
0
0
VERTEX
8
Halfen
62
7
10
 877.769
20
-81.32
30
0
0
VERTEX
8
Halfen
62
7
10
 877.9
20
-81.239
30
0
0
VERTEX
8
Halfen
62
7
10
 878.028
20
-81.153
30
0
0
VERTEX
8
Halfen
62
7
10
 878.152
20
-81.06
30
0
0
VERTEX
8
Halfen
62
7
10
 878.272
20
-80.963
30
0
0
VERTEX
8
Halfen
62
7
10
 878.387
20
-80.86
30
0
0
VERTEX
8
Halfen
62
7
10
 878.498
20
-80.752
30
0
0
VERTEX
8
Halfen
62
7
10
 878.603
20
-80.639
30
0
0
VERTEX
8
Halfen
62
7
10
 878.704
20
-80.522
30
0
0
VERTEX
8
Halfen
62
7
10
 879.59
20
-79.491
30
0
0
VERTEX
8
Halfen
62
7
10
 880.521
20
-78.5
30
0
0
VERTEX
8
Halfen
62
7
10
 881.495
20
-77.551
30
0
0
VERTEX
8
Halfen
62
7
10
 882.509
20
-76.646
30
0
0
VERTEX
8
Halfen
62
7
10
 883.563
20
-75.787
30
0
0
VERTEX
8
Halfen
62
7
10
 884.653
20
-74.975
30
0
0
VERTEX
8
Halfen
62
7
10
 885.778
20
-74.211
30
0
0
VERTEX
8
Halfen
62
7
10
 886.936
20
-73.499
30
0
0
VERTEX
8
Halfen
62
7
10
 888.124
20
-72.838
30
0
0
VERTEX
8
Halfen
62
7
10
 889.34
20
-72.23
30
0
0
VERTEX
8
Halfen
62
7
10
 890.582
20
-71.676
30
0
0
VERTEX
8
Halfen
62
7
10
 891.847
20
-71.178
30
0
0
VERTEX
8
Halfen
62
7
10
 893.133
20
-70.736
30
0
0
VERTEX
8
Halfen
62
7
10
 894.437
20
-70.351
30
0
0
VERTEX
8
Halfen
62
7
10
 895.757
20
-70.024
30
0
0
VERTEX
8
Halfen
62
7
10
 897.089
20
-69.756
30
0
0
VERTEX
8
Halfen
62
7
10
 898.433
20
-69.547
30
0
0
VERTEX
8
Halfen
62
7
10
 899.784
20
-69.397
30
0
0
VERTEX
8
Halfen
62
7
10
 901.141
20
-69.307
30
0
0
VERTEX
8
Halfen
62
7
10
 902.5
20
-69.277
30
0
0
VERTEX
8
Halfen
62
7
10
 924.5
20
-69.277
30
0
0
VERTEX
8
Halfen
62
7
10
 925.859
20
-69.307
30
0
0
VERTEX
8
Halfen
62
7
10
 927.216
20
-69.397
30
0
0
VERTEX
8
Halfen
62
7
10
 928.567
20
-69.547
30
0
0
VERTEX
8
Halfen
62
7
10
 929.911
20
-69.756
30
0
0
VERTEX
8
Halfen
62
7
10
 931.243
20
-70.024
30
0
0
VERTEX
8
Halfen
62
7
10
 932.563
20
-70.351
30
0
0
VERTEX
8
Halfen
62
7
10
 933.867
20
-70.736
30
0
0
VERTEX
8
Halfen
62
7
10
 935.153
20
-71.178
30
0
0
VERTEX
8
Halfen
62
7
10
 936.418
20
-71.676
30
0
0
VERTEX
8
Halfen
62
7
10
 937.66
20
-72.23
30
0
0
VERTEX
8
Halfen
62
7
10
 938.876
20
-72.838
30
0
0
VERTEX
8
Halfen
62
7
10
 940.064
20
-73.499
30
0
0
VERTEX
8
Halfen
62
7
10
 941.222
20
-74.211
30
0
0
VERTEX
8
Halfen
62
7
10
 942.347
20
-74.975
30
0
0
VERTEX
8
Halfen
62
7
10
 943.437
20
-75.787
30
0
0
VERTEX
8
Halfen
62
7
10
 944.491
20
-76.646
30
0
0
VERTEX
8
Halfen
62
7
10
 945.505
20
-77.551
30
0
0
VERTEX
8
Halfen
62
7
10
 946.479
20
-78.5
30
0
0
VERTEX
8
Halfen
62
7
10
 947.41
20
-79.491
30
0
0
VERTEX
8
Halfen
62
7
10
 948.296
20
-80.522
30
0
0
VERTEX
8
Halfen
62
7
10
 948.397
20
-80.639
30
0
0
VERTEX
8
Halfen
62
7
10
 948.502
20
-80.752
30
0
0
VERTEX
8
Halfen
62
7
10
 948.613
20
-80.86
30
0
0
VERTEX
8
Halfen
62
7
10
 948.728
20
-80.963
30
0
0
VERTEX
8
Halfen
62
7
10
 948.848
20
-81.06
30
0
0
VERTEX
8
Halfen
62
7
10
 948.972
20
-81.153
30
0
0
VERTEX
8
Halfen
62
7
10
 949.1
20
-81.239
30
0
0
VERTEX
8
Halfen
62
7
10
 949.231
20
-81.32
30
0
0
VERTEX
8
Halfen
62
7
10
 949.366
20
-81.395
30
0
0
VERTEX
8
Halfen
62
7
10
 949.505
20
-81.464
30
0
0
VERTEX
8
Halfen
62
7
10
 949.646
20
-81.527
30
0
0
VERTEX
8
Halfen
62
7
10
 949.789
20
-81.584
30
0
0
VERTEX
8
Halfen
62
7
10
 949.936
20
-81.634
30
0
0
VERTEX
8
Halfen
62
7
10
 950.084
20
-81.678
30
0
0
VERTEX
8
Halfen
62
7
10
 950.234
20
-81.715
30
0
0
VERTEX
8
Halfen
62
7
10
 950.385
20
-81.746
30
0
0
VERTEX
8
Halfen
62
7
10
 950.538
20
-81.769
30
0
0
VERTEX
8
Halfen
62
7
10
 950.691
20
-81.786
30
0
0
VERTEX
8
Halfen
62
7
10
 950.846
20
-81.797
30
0
0
VERTEX
8
Halfen
62
7
10
 951
20
-81.8
30
0
0
SEQEND
8
Halfen
0
POLYLINE
8
Halfen
62
7
66
1
10
0.0
20
0.0
30
0.0
70
1
0
VERTEX
8
Halfen
62
7
10
 747
20
-775
30
0
0
VERTEX
8
Halfen
62
7
10
 747
20
-160
30
0
0
VERTEX
8
Halfen
62
7
10
 735
20
-160
30
0
0
VERTEX
8
Halfen
62
7
10
 735
20
-775
30
0
0
SEQEND
8
Halfen
0
POLYLINE
8
Halfen
62
7
66
1
10
0.0
20
0.0
30
0.0
70
1
0
VERTEX
8
Halfen
62
7
10
 746.25
20
-160
30
0
0
VERTEX
8
Halfen
62
7
10
 746.25
20
-62
30
0
0
VERTEX
8
Halfen
62
7
10
 735.75
20
-62
30
0
0
VERTEX
8
Halfen
62
7
10
 735.75
20
-160
30
0
0
SEQEND
8
Halfen
0
POLYLINE
8
Halfen
62
7
66
1
10
0.0
20
0.0
30
0.0
70
1
0
VERTEX
8
Halfen
62
7
10
 747
20
-62
30
0
0
VERTEX
8
Halfen
62
7
10
 747
20
-60
30
0
0
VERTEX
8
Halfen
62
7
10
 735
20
-60
30
0
0
VERTEX
8
Halfen
62
7
10
 735
20
-62
30
0
0
SEQEND
8
Halfen
0
POLYLINE
8
Halfen
62
7
66
1
10
0.0
20
0.0
30
0.0
70
1
0
VERTEX
8
Halfen
62
7
10
 746.25
20
-60
30
0
0
VERTEX
8
Halfen
62
7
10
 746.25
20
 60
30
0
0
VERTEX
8
Halfen
62
7
10
 735.75
20
 60
30
0
0
VERTEX
8
Halfen
62
7
10
 735.75
20
-60
30
0
0
SEQEND
8
Halfen
0
POLYLINE
8
Halfen
62
7
66
1
10
0.0
20
0.0
30
0.0
70
1
0
VERTEX
8
Halfen
62
7
10
 747
20
 60
30
0
0
VERTEX
8
Halfen
62
7
10
 747
20
 62
30
0
0
VERTEX
8
Halfen
62
7
10
 735
20
 62
30
0
0
VERTEX
8
Halfen
62
7
10
 735
20
 60
30
0
0
SEQEND
8
Halfen
0
POLYLINE
8
Halfen
62
7
66
1
10
0.0
20
0.0
30
0.0
70
1
0
VERTEX
8
Halfen
62
7
10
 746.25
20
 62
30
0
0
VERTEX
8
Halfen
62
7
10
 746.25
20
 160
30
0
0
VERTEX
8
Halfen
62
7
10
 735.75
20
 160
30
0
0
VERTEX
8
Halfen
62
7
10
 735.75
20
 62
30
0
0
SEQEND
8
Halfen
0
POLYLINE
8
Halfen
62
7
66
1
10
0.0
20
0.0
30
0.0
70
1
0
VERTEX
8
Halfen
62
7
10
 747
20
 160
30
0
0
VERTEX
8
Halfen
62
7
10
 747
20
 775
30
0
0
VERTEX
8
Halfen
62
7
10
 735
20
 775
30
0
0
VERTEX
8
Halfen
62
7
10
 735
20
 160
30
0
0
SEQEND
8
Halfen
0
ENDSEC
0
EOF
