0
SECTION
2
HEADER
9
$EXTMIN
10
 0
20
 100
30
0.0
9
$EXTMAX
10
 0
20
 100
30
0.0
9
$LIMMIN
10
 100
20
 0
9
$LIMMAX
10
 0
20
 100
9
$PSLTSCALE
70
1
0
ENDSEC
0
SECTION
2
TABLES
0
TABLE
2
LAYER
70
2
0
LAYER
2
0
70
0
62
7
6
CONTINUOUS
0
LAYER
2
Halfen
70
0
62
7
6
CONTINUOUS
0
ENDTAB
0
ENDSEC
0
SECTION
2
ENTITIES
0
POLYLINE
8
Halfen
62
7
66
1
10
0.0
20
0.0
30
0.0
70
1
0
VERTEX
8
Halfen
62
7
10
 0
20
-73.5
30
0
0
VERTEX
8
Halfen
62
7
10
 250
20
-73.5
30
0
0
VERTEX
8
Halfen
62
7
10
 250
20
 73.5
30
0
0
VERTEX
8
Halfen
62
7
10
 0
20
 73.5
30
0
0
SEQEND
8
Halfen
0
POLYLINE
8
Halfen
62
7
66
1
10
0.0
20
0.0
30
0.0
70
1
0
VERTEX
8
Halfen
62
7
10
 0
20
-60
30
0
0
VERTEX
8
Halfen
62
7
10
 250
20
-60
30
0
0
VERTEX
8
Halfen
62
7
10
 250
20
 60
30
0
0
VERTEX
8
Halfen
62
7
10
 0
20
 60
30
0
0
SEQEND
8
Halfen
0
POLYLINE
8
Halfen
62
7
66
1
10
0.0
20
0.0
30
0.0
70
1
0
VERTEX
8
Halfen
62
7
10
 20
20
-32.5
30
0
0
VERTEX
8
Halfen
62
7
10
 37
20
-1.5
30
0
0
VERTEX
8
Halfen
62
7
10
 28
20
-1.5
30
0
0
VERTEX
8
Halfen
62
7
10
 28
20
 32.5
30
0
0
VERTEX
8
Halfen
62
7
10
 12
20
 32.5
30
0
0
VERTEX
8
Halfen
62
7
10
 12
20
-1.5
30
0
0
VERTEX
8
Halfen
62
7
10
 3
20
-1.5
30
0
0
SEQEND
8
Halfen
0
POLYLINE
8
Halfen
62
7
66
1
10
0.0
20
0.0
30
0.0
70
1
0
VERTEX
8
Halfen
62
7
10
 230
20
-32.5
30
0
0
VERTEX
8
Halfen
62
7
10
 247
20
-1.5
30
0
0
VERTEX
8
Halfen
62
7
10
 238
20
-1.5
30
0
0
VERTEX
8
Halfen
62
7
10
 238
20
 32.5
30
0
0
VERTEX
8
Halfen
62
7
10
 222
20
 32.5
30
0
0
VERTEX
8
Halfen
62
7
10
 222
20
-1.5
30
0
0
VERTEX
8
Halfen
62
7
10
 213
20
-1.5
30
0
0
SEQEND
8
Halfen
0
POLYLINE
8
Halfen
62
7
66
1
10
0.0
20
0.0
30
0.0
70
1
0
VERTEX
8
Halfen
62
7
10
 152
20
-775
30
0
0
VERTEX
8
Halfen
62
7
10
 152
20
-160
30
0
0
VERTEX
8
Halfen
62
7
10
 140
20
-160
30
0
0
VERTEX
8
Halfen
62
7
10
 140
20
-775
30
0
0
SEQEND
8
Halfen
0
POLYLINE
8
Halfen
62
7
66
1
10
0.0
20
0.0
30
0.0
70
1
0
VERTEX
8
Halfen
62
7
10
 151.25
20
-160
30
0
0
VERTEX
8
Halfen
62
7
10
 151.25
20
-62
30
0
0
VERTEX
8
Halfen
62
7
10
 140.75
20
-62
30
0
0
VERTEX
8
Halfen
62
7
10
 140.75
20
-160
30
0
0
SEQEND
8
Halfen
0
POLYLINE
8
Halfen
62
7
66
1
10
0.0
20
0.0
30
0.0
70
1
0
VERTEX
8
Halfen
62
7
10
 152
20
-62
30
0
0
VERTEX
8
Halfen
62
7
10
 152
20
-60
30
0
0
VERTEX
8
Halfen
62
7
10
 140
20
-60
30
0
0
VERTEX
8
Halfen
62
7
10
 140
20
-62
30
0
0
SEQEND
8
Halfen
0
POLYLINE
8
Halfen
62
7
66
1
10
0.0
20
0.0
30
0.0
70
1
0
VERTEX
8
Halfen
62
7
10
 151.25
20
-60
30
0
0
VERTEX
8
Halfen
62
7
10
 151.25
20
 60
30
0
0
VERTEX
8
Halfen
62
7
10
 140.75
20
 60
30
0
0
VERTEX
8
Halfen
62
7
10
 140.75
20
-60
30
0
0
SEQEND
8
Halfen
0
POLYLINE
8
Halfen
62
7
66
1
10
0.0
20
0.0
30
0.0
70
1
0
VERTEX
8
Halfen
62
7
10
 152
20
 60
30
0
0
VERTEX
8
Halfen
62
7
10
 152
20
 62
30
0
0
VERTEX
8
Halfen
62
7
10
 140
20
 62
30
0
0
VERTEX
8
Halfen
62
7
10
 140
20
 60
30
0
0
SEQEND
8
Halfen
0
POLYLINE
8
Halfen
62
7
66
1
10
0.0
20
0.0
30
0.0
70
1
0
VERTEX
8
Halfen
62
7
10
 151.25
20
 62
30
0
0
VERTEX
8
Halfen
62
7
10
 151.25
20
 160
30
0
0
VERTEX
8
Halfen
62
7
10
 140.75
20
 160
30
0
0
VERTEX
8
Halfen
62
7
10
 140.75
20
 62
30
0
0
SEQEND
8
Halfen
0
POLYLINE
8
Halfen
62
7
66
1
10
0.0
20
0.0
30
0.0
70
1
0
VERTEX
8
Halfen
62
7
10
 152
20
 160
30
0
0
VERTEX
8
Halfen
62
7
10
 152
20
 775
30
0
0
VERTEX
8
Halfen
62
7
10
 140
20
 775
30
0
0
VERTEX
8
Halfen
62
7
10
 140
20
 160
30
0
0
SEQEND
8
Halfen
0
POLYLINE
8
Halfen
62
7
66
1
10
0.0
20
0.0
30
0.0
70
1
0
VERTEX
8
Halfen
62
7
10
 98
20
-700.923
30
0
0
VERTEX
8
Halfen
62
7
10
 98
20
 160.757
30
0
0
VERTEX
8
Halfen
62
7
10
 88
20
 160.757
30
0
0
VERTEX
8
Halfen
62
7
10
 88
20
-700.923
30
0
0
SEQEND
8
Halfen
0
POLYLINE
8
Halfen
62
7
66
1
10
0.0
20
0.0
30
0.0
70
1
0
VERTEX
8
Halfen
62
7
10
 98
20
 160.757
30
0
0
VERTEX
8
Halfen
62
7
10
 98
20
 699.757
30
0
0
VERTEX
8
Halfen
62
7
10
 88
20
 699.757
30
0
0
VERTEX
8
Halfen
62
7
10
 88
20
 160.757
30
0
0
SEQEND
8
Halfen
0
POLYLINE
8
Halfen
62
7
66
1
10
0.0
20
0.0
30
0.0
70
1
0
VERTEX
8
Halfen
62
7
10
 108
20
-699.757
30
0
0
VERTEX
8
Halfen
62
7
10
 108
20
 161.923
30
0
0
VERTEX
8
Halfen
62
7
10
 98
20
 161.923
30
0
0
VERTEX
8
Halfen
62
7
10
 98
20
-699.757
30
0
0
SEQEND
8
Halfen
0
POLYLINE
8
Halfen
62
7
66
1
10
0.0
20
0.0
30
0.0
70
1
0
VERTEX
8
Halfen
62
7
10
 108
20
 161.923
30
0
0
VERTEX
8
Halfen
62
7
10
 108
20
 700.923
30
0
0
VERTEX
8
Halfen
62
7
10
 98
20
 700.923
30
0
0
VERTEX
8
Halfen
62
7
10
 98
20
 161.923
30
0
0
SEQEND
8
Halfen
0
POLYLINE
8
Halfen
62
7
66
1
10
0.0
20
0.0
30
0.0
70
1
0
VERTEX
8
Halfen
62
7
10
 680
20
-60
30
0
0
VERTEX
8
Halfen
62
7
10
 680
20
 60
30
0
0
VERTEX
8
Halfen
62
7
10
 666.5
20
 73.5
30
0
0
VERTEX
8
Halfen
62
7
10
 666.5
20
 60
30
0
0
VERTEX
8
Halfen
62
7
10
 500
20
 60
30
0
0
VERTEX
8
Halfen
62
7
10
 500
20
-60
30
0
0
VERTEX
8
Halfen
62
7
10
 666.5
20
-60
30
0
0
VERTEX
8
Halfen
62
7
10
 666.5
20
-73.5
30
0
0
SEQEND
8
Halfen
0
POLYLINE
8
Halfen
62
7
66
1
10
0.0
20
0.0
30
0.0
70
1
0
VERTEX
8
Halfen
62
7
10
 500
20
-60
30
0
0
VERTEX
8
Halfen
62
7
10
 500
20
 60
30
0
0
VERTEX
8
Halfen
62
7
10
 463.5
20
 60
30
0
0
VERTEX
8
Halfen
62
7
10
 463.5
20
 73.5
30
0
0
VERTEX
8
Halfen
62
7
10
 450
20
 60
30
0
0
VERTEX
8
Halfen
62
7
10
 450
20
-60
30
0
0
VERTEX
8
Halfen
62
7
10
 463.5
20
-73.5
30
0
0
VERTEX
8
Halfen
62
7
10
 463.5
20
-60
30
0
0
SEQEND
8
Halfen
0
POLYLINE
8
Halfen
62
7
66
1
10
0.0
20
0.0
30
0.0
70
1
0
VERTEX
8
Halfen
62
7
10
 677.5
20
-58.75
30
0
0
VERTEX
8
Halfen
62
7
10
 677.5
20
 58.75
30
0
0
VERTEX
8
Halfen
62
7
10
 669
20
 67.25
30
0
0
VERTEX
8
Halfen
62
7
10
 669
20
 58
30
0
0
VERTEX
8
Halfen
62
7
10
 502
20
 58
30
0
0
VERTEX
8
Halfen
62
7
10
 502
20
-58
30
0
0
VERTEX
8
Halfen
62
7
10
 669
20
-58
30
0
0
VERTEX
8
Halfen
62
7
10
 669
20
-67.25
30
0
0
SEQEND
8
Halfen
0
POLYLINE
8
Halfen
62
7
66
1
10
0.0
20
0.0
30
0.0
70
1
0
VERTEX
8
Halfen
62
7
10
 498
20
-58
30
0
0
VERTEX
8
Halfen
62
7
10
 498
20
 58
30
0
0
VERTEX
8
Halfen
62
7
10
 461
20
 58
30
0
0
VERTEX
8
Halfen
62
7
10
 461
20
 67.25
30
0
0
VERTEX
8
Halfen
62
7
10
 452.5
20
 58.75
30
0
0
VERTEX
8
Halfen
62
7
10
 452.5
20
-58.75
30
0
0
VERTEX
8
Halfen
62
7
10
 461
20
-67.25
30
0
0
VERTEX
8
Halfen
62
7
10
 461
20
-58
30
0
0
SEQEND
8
Halfen
0
POLYLINE
8
Halfen
62
7
66
1
10
0.0
20
0.0
30
0.0
70
1
0
VERTEX
8
Halfen
62
7
10
 497
20
-775
30
0
0
VERTEX
8
Halfen
62
7
10
 497
20
-160
30
0
0
VERTEX
8
Halfen
62
7
10
 485
20
-160
30
0
0
VERTEX
8
Halfen
62
7
10
 485
20
-775
30
0
0
SEQEND
8
Halfen
0
POLYLINE
8
Halfen
62
7
66
1
10
0.0
20
0.0
30
0.0
70
1
0
VERTEX
8
Halfen
62
7
10
 496.25
20
-160
30
0
0
VERTEX
8
Halfen
62
7
10
 496.25
20
-62
30
0
0
VERTEX
8
Halfen
62
7
10
 485.75
20
-62
30
0
0
VERTEX
8
Halfen
62
7
10
 485.75
20
-160
30
0
0
SEQEND
8
Halfen
0
POLYLINE
8
Halfen
62
7
66
1
10
0.0
20
0.0
30
0.0
70
1
0
VERTEX
8
Halfen
62
7
10
 497
20
-62
30
0
0
VERTEX
8
Halfen
62
7
10
 497
20
-60
30
0
0
VERTEX
8
Halfen
62
7
10
 485
20
-60
30
0
0
VERTEX
8
Halfen
62
7
10
 485
20
-62
30
0
0
SEQEND
8
Halfen
0
POLYLINE
8
Halfen
62
7
66
1
10
0.0
20
0.0
30
0.0
70
1
0
VERTEX
8
Halfen
62
7
10
 496.25
20
-60
30
0
0
VERTEX
8
Halfen
62
7
10
 496.25
20
 60
30
0
0
VERTEX
8
Halfen
62
7
10
 485.75
20
 60
30
0
0
VERTEX
8
Halfen
62
7
10
 485.75
20
-60
30
0
0
SEQEND
8
Halfen
0
POLYLINE
8
Halfen
62
7
66
1
10
0.0
20
0.0
30
0.0
70
1
0
VERTEX
8
Halfen
62
7
10
 497
20
 60
30
0
0
VERTEX
8
Halfen
62
7
10
 497
20
 62
30
0
0
VERTEX
8
Halfen
62
7
10
 485
20
 62
30
0
0
VERTEX
8
Halfen
62
7
10
 485
20
 60
30
0
0
SEQEND
8
Halfen
0
POLYLINE
8
Halfen
62
7
66
1
10
0.0
20
0.0
30
0.0
70
1
0
VERTEX
8
Halfen
62
7
10
 496.25
20
 62
30
0
0
VERTEX
8
Halfen
62
7
10
 496.25
20
 160
30
0
0
VERTEX
8
Halfen
62
7
10
 485.75
20
 160
30
0
0
VERTEX
8
Halfen
62
7
10
 485.75
20
 62
30
0
0
SEQEND
8
Halfen
0
POLYLINE
8
Halfen
62
7
66
1
10
0.0
20
0.0
30
0.0
70
1
0
VERTEX
8
Halfen
62
7
10
 497
20
 160
30
0
0
VERTEX
8
Halfen
62
7
10
 497
20
 775
30
0
0
VERTEX
8
Halfen
62
7
10
 485
20
 775
30
0
0
VERTEX
8
Halfen
62
7
10
 485
20
 160
30
0
0
SEQEND
8
Halfen
0
POLYLINE
8
Halfen
62
7
66
1
10
0.0
20
0.0
30
0.0
70
1
0
VERTEX
8
Halfen
62
7
10
 650
20
-775
30
0
0
VERTEX
8
Halfen
62
7
10
 650
20
-160
30
0
0
VERTEX
8
Halfen
62
7
10
 638
20
-160
30
0
0
VERTEX
8
Halfen
62
7
10
 638
20
-775
30
0
0
SEQEND
8
Halfen
0
POLYLINE
8
Halfen
62
7
66
1
10
0.0
20
0.0
30
0.0
70
1
0
VERTEX
8
Halfen
62
7
10
 649.25
20
-160
30
0
0
VERTEX
8
Halfen
62
7
10
 649.25
20
-62
30
0
0
VERTEX
8
Halfen
62
7
10
 638.75
20
-62
30
0
0
VERTEX
8
Halfen
62
7
10
 638.75
20
-160
30
0
0
SEQEND
8
Halfen
0
POLYLINE
8
Halfen
62
7
66
1
10
0.0
20
0.0
30
0.0
70
1
0
VERTEX
8
Halfen
62
7
10
 650
20
-62
30
0
0
VERTEX
8
Halfen
62
7
10
 650
20
-60
30
0
0
VERTEX
8
Halfen
62
7
10
 638
20
-60
30
0
0
VERTEX
8
Halfen
62
7
10
 638
20
-62
30
0
0
SEQEND
8
Halfen
0
POLYLINE
8
Halfen
62
7
66
1
10
0.0
20
0.0
30
0.0
70
1
0
VERTEX
8
Halfen
62
7
10
 649.25
20
-60
30
0
0
VERTEX
8
Halfen
62
7
10
 649.25
20
 60
30
0
0
VERTEX
8
Halfen
62
7
10
 638.75
20
 60
30
0
0
VERTEX
8
Halfen
62
7
10
 638.75
20
-60
30
0
0
SEQEND
8
Halfen
0
POLYLINE
8
Halfen
62
7
66
1
10
0.0
20
0.0
30
0.0
70
1
0
VERTEX
8
Halfen
62
7
10
 650
20
 60
30
0
0
VERTEX
8
Halfen
62
7
10
 650
20
 62
30
0
0
VERTEX
8
Halfen
62
7
10
 638
20
 62
30
0
0
VERTEX
8
Halfen
62
7
10
 638
20
 60
30
0
0
SEQEND
8
Halfen
0
POLYLINE
8
Halfen
62
7
66
1
10
0.0
20
0.0
30
0.0
70
1
0
VERTEX
8
Halfen
62
7
10
 649.25
20
 62
30
0
0
VERTEX
8
Halfen
62
7
10
 649.25
20
 160
30
0
0
VERTEX
8
Halfen
62
7
10
 638.75
20
 160
30
0
0
VERTEX
8
Halfen
62
7
10
 638.75
20
 62
30
0
0
SEQEND
8
Halfen
0
POLYLINE
8
Halfen
62
7
66
1
10
0.0
20
0.0
30
0.0
70
1
0
VERTEX
8
Halfen
62
7
10
 650
20
 160
30
0
0
VERTEX
8
Halfen
62
7
10
 650
20
 775
30
0
0
VERTEX
8
Halfen
62
7
10
 638
20
 775
30
0
0
VERTEX
8
Halfen
62
7
10
 638
20
 160
30
0
0
SEQEND
8
Halfen
0
POLYLINE
8
Halfen
62
7
66
1
10
0.0
20
0.0
30
0.0
70
1
0
VERTEX
8
Halfen
62
7
10
 650
20
-700.923
30
0
0
VERTEX
8
Halfen
62
7
10
 650
20
-97.174
30
0
0
VERTEX
8
Halfen
62
7
10
 649.466
20
-90.658
30
0
0
VERTEX
8
Halfen
62
7
10
 647.877
20
-84.316
30
0
0
VERTEX
8
Halfen
62
7
10
 645.277
20
-78.318
30
0
0
VERTEX
8
Halfen
62
7
10
 641.734
20
-72.823
30
0
0
VERTEX
8
Halfen
62
7
10
 526.199
20
 77.745
30
0
0
VERTEX
8
Halfen
62
7
10
 523.542
20
 81.865
30
0
0
VERTEX
8
Halfen
62
7
10
 521.592
20
 86.364
30
0
0
VERTEX
8
Halfen
62
7
10
 520.401
20
 91.121
30
0
0
VERTEX
8
Halfen
62
7
10
 520
20
 96.007
30
0
0
VERTEX
8
Halfen
62
7
10
 520
20
 160.757
30
0
0
VERTEX
8
Halfen
62
7
10
 510
20
 160.757
30
0
0
VERTEX
8
Halfen
62
7
10
 510
20
 96.007
30
0
0
VERTEX
8
Halfen
62
7
10
 510.534
20
 89.492
30
0
0
VERTEX
8
Halfen
62
7
10
 512.123
20
 83.15
30
0
0
VERTEX
8
Halfen
62
7
10
 514.723
20
 77.152
30
0
0
VERTEX
8
Halfen
62
7
10
 518.266
20
 71.657
30
0
0
VERTEX
8
Halfen
62
7
10
 633.801
20
-78.911
30
0
0
VERTEX
8
Halfen
62
7
10
 636.458
20
-83.032
30
0
0
VERTEX
8
Halfen
62
7
10
 638.408
20
-87.531
30
0
0
VERTEX
8
Halfen
62
7
10
 639.599
20
-92.287
30
0
0
VERTEX
8
Halfen
62
7
10
 640
20
-97.174
30
0
0
VERTEX
8
Halfen
62
7
10
 640
20
-700.923
30
0
0
SEQEND
8
Halfen
0
POLYLINE
8
Halfen
62
7
66
1
10
0.0
20
0.0
30
0.0
70
1
0
VERTEX
8
Halfen
62
7
10
 520
20
 160.757
30
0
0
VERTEX
8
Halfen
62
7
10
 520
20
 699.757
30
0
0
VERTEX
8
Halfen
62
7
10
 510
20
 699.757
30
0
0
VERTEX
8
Halfen
62
7
10
 510
20
 160.757
30
0
0
SEQEND
8
Halfen
0
POLYLINE
8
Halfen
62
7
66
1
10
0.0
20
0.0
30
0.0
70
1
0
VERTEX
8
Halfen
62
7
10
 510
20
-699.757
30
0
0
VERTEX
8
Halfen
62
7
10
 510
20
-96.007
30
0
0
VERTEX
8
Halfen
62
7
10
 510.534
20
-89.492
30
0
0
VERTEX
8
Halfen
62
7
10
 512.123
20
-83.15
30
0
0
VERTEX
8
Halfen
62
7
10
 514.723
20
-77.152
30
0
0
VERTEX
8
Halfen
62
7
10
 518.266
20
-71.657
30
0
0
VERTEX
8
Halfen
62
7
10
 633.801
20
 78.911
30
0
0
VERTEX
8
Halfen
62
7
10
 636.458
20
 83.032
30
0
0
VERTEX
8
Halfen
62
7
10
 638.408
20
 87.53
30
0
0
VERTEX
8
Halfen
62
7
10
 639.599
20
 92.287
30
0
0
VERTEX
8
Halfen
62
7
10
 640
20
 97.174
30
0
0
VERTEX
8
Halfen
62
7
10
 640
20
 161.923
30
0
0
VERTEX
8
Halfen
62
7
10
 650
20
 161.923
30
0
0
VERTEX
8
Halfen
62
7
10
 650
20
 97.174
30
0
0
VERTEX
8
Halfen
62
7
10
 649.466
20
 90.658
30
0
0
VERTEX
8
Halfen
62
7
10
 647.877
20
 84.316
30
0
0
VERTEX
8
Halfen
62
7
10
 645.277
20
 78.318
30
0
0
VERTEX
8
Halfen
62
7
10
 641.734
20
 72.823
30
0
0
VERTEX
8
Halfen
62
7
10
 526.199
20
-77.745
30
0
0
VERTEX
8
Halfen
62
7
10
 523.542
20
-81.866
30
0
0
VERTEX
8
Halfen
62
7
10
 521.592
20
-86.364
30
0
0
VERTEX
8
Halfen
62
7
10
 520.401
20
-91.121
30
0
0
VERTEX
8
Halfen
62
7
10
 520
20
-96.007
30
0
0
VERTEX
8
Halfen
62
7
10
 520
20
-699.757
30
0
0
SEQEND
8
Halfen
0
POLYLINE
8
Halfen
62
7
66
1
10
0.0
20
0.0
30
0.0
70
1
0
VERTEX
8
Halfen
62
7
10
 640
20
 161.923
30
0
0
VERTEX
8
Halfen
62
7
10
 640
20
 700.923
30
0
0
VERTEX
8
Halfen
62
7
10
 650
20
 700.923
30
0
0
VERTEX
8
Halfen
62
7
10
 650
20
 161.923
30
0
0
SEQEND
8
Halfen
0
ENDSEC
0
EOF
