  0
SECTION
  2
HEADER
  9
$ACADVER
  1
AC1032
  9
$ACADMAINTVER
 90
4
  9
$DWGCODEPAGE
  3
ANSI_1252
  9
$LASTSAVEDBY
  1
ezdxf
  9
$REQUIREDVERSIONS
160
0
  9
$INSBASE
 10
0.0
 20
0.0
 30
0.0
  9
$EXTMIN
 10
1e+20
 20
1e+20
 30
1e+20
  9
$EXTMAX
 10
-1e+20
 20
-1e+20
 30
-1e+20
  9
$LIMMIN
 10
0.0
 20
0.0
  9
$LIMMAX
 10
420.0
 20
297.0
  9
$ORTHOMODE
 70
0
  9
$REGENMODE
 70
1
  9
$FILLMODE
 70
1
  9
$QTEXTMODE
 70
0
  9
$MIRRTEXT
 70
1
  9
$LTSCALE
 40
1.0
  9
$ATTMODE
 70
1
  9
$TEXTSIZE
 40
2.5
  9
$TRACEWID
 40
1.0
  9
$TEXTSTYLE
  7
Standard
  9
$CLAYER
  8
0
  9
$CELTYPE
  6
ByLayer
  9
$CECOLOR
 62
256
  9
$CELTSCALE
 40
1.0
  9
$DISPSILH
 70
0
  9
$DIMSCALE
 40
1.0
  9
$DIMASZ
 40
2.5
  9
$DIMEXO
 40
0.625
  9
$DIMDLI
 40
3.75
  9
$DIMRND
 40
0.0
  9
$DIMDLE
 40
0.0
  9
$DIMEXE
 40
1.25
  9
$DIMTP
 40
0.0
  9
$DIMTM
 40
0.0
  9
$DIMTXT
 40
2.5
  9
$DIMCEN
 40
2.5
  9
$DIMTSZ
 40
0.0
  9
$DIMTOL
 70
0
  9
$DIMLIM
 70
0
  9
$DIMTIH
 70
0
  9
$DIMTOH
 70
0
  9
$DIMSE1
 70
0
  9
$DIMSE2
 70
0
  9
$DIMTAD
 70
1
  9
$DIMZIN
 70
8
  9
$DIMBLK
  1

  9
$DIMASO
 70
1
  9
$DIMSHO
 70
1
  9
$DIMPOST
  1

  9
$DIMAPOST
  1

  9
$DIMALT
 70
0
  9
$DIMALTD
 70
3
  9
$DIMALTF
 40
0.03937007874
  9
$DIMLFAC
 40
1.0
  9
$DIMTOFL
 70
1
  9
$DIMTVP
 40
0.0
  9
$DIMTIX
 70
0
  9
$DIMSOXD
 70
0
  9
$DIMSAH
 70
0
  9
$DIMBLK1
  1

  9
$DIMBLK2
  1

  9
$DIMSTYLE
  2
ISO-25
  9
$DIMCLRD
 70
0
  9
$DIMCLRE
 70
0
  9
$DIMCLRT
 70
0
  9
$DIMTFAC
 40
1.0
  9
$DIMGAP
 40
0.625
  9
$DIMJUST
 70
0
  9
$DIMSD1
 70
0
  9
$DIMSD2
 70
0
  9
$DIMTOLJ
 70
0
  9
$DIMTZIN
 70
8
  9
$DIMALTZ
 70
0
  9
$DIMALTTZ
 70
0
  9
$DIMUPT
 70
0
  9
$DIMDEC
 70
2
  9
$DIMTDEC
 70
2
  9
$DIMALTU
 70
2
  9
$DIMALTTD
 70
3
  9
$DIMTXSTY
  7
Standard
  9
$DIMAUNIT
 70
0
  9
$DIMADEC
 70
0
  9
$DIMALTRND
 40
0.0
  9
$DIMAZIN
 70
0
  9
$DIMDSEP
 70
44
  9
$DIMATFIT
 70
3
  9
$DIMFRAC
 70
0
  9
$DIMLDRBLK
  1

  9
$DIMLUNIT
 70
2
  9
$DIMLWD
 70
-2
  9
$DIMLWE
 70
-2
  9
$DIMTMOVE
 70
0
  9
$DIMFXL
 40
1.0
  9
$DIMFXLON
 70
0
  9
$DIMJOGANG
 40
0.785398163397
  9
$DIMTFILL
 70
0
  9
$DIMTFILLCLR
 70
0
  9
$DIMARCSYM
 70
0
  9
$DIMLTYPE
  6

  9
$DIMLTEX1
  6

  9
$DIMLTEX2
  6

  9
$DIMTXTDIRECTION
 70
0
  9
$LUNITS
 70
2
  9
$LUPREC
 70
4
  9
$SKETCHINC
 40
1.0
  9
$FILLETRAD
 40
10.0
  9
$AUNITS
 70
0
  9
$AUPREC
 70
2
  9
$MENU
  1
.
  9
$ELEVATION
 40
0.0
  9
$PELEVATION
 40
0.0
  9
$THICKNESS
 40
0.0
  9
$LIMCHECK
 70
0
  9
$CHAMFERA
 40
0.0
  9
$CHAMFERB
 40
0.0
  9
$CHAMFERC
 40
0.0
  9
$CHAMFERD
 40
0.0
  9
$SKPOLY
 70
0
  9
$TDCREATE
 40
2461085.245983796
  9
$TDUCREATE
 40
2458532.153996898
  9
$TDUPDATE
 40
2461085.245983796
  9
$TDUUPDATE
 40
2458532.1544311
  9
$TDINDWG
 40
0.0
  9
$TDUSRTIMER
 40
0.0
  9
$USRTIMER
 70
1
  9
$ANGBASE
 50
0.0
  9
$ANGDIR
 70
0
  9
$PDMODE
 70
0
  9
$PDSIZE
 40
0.0
  9
$PLINEWID
 40
0.0
  9
$SPLFRAME
 70
0
  9
$SPLINETYPE
 70
6
  9
$SPLINESEGS
 70
8
  9
$HANDSEED
  5
75
  9
$SURFTAB1
 70
6
  9
$SURFTAB2
 70
6
  9
$SURFTYPE
 70
6
  9
$SURFU
 70
6
  9
$SURFV
 70
6
  9
$UCSBASE
  2

  9
$UCSNAME
  2

  9
$UCSORG
 10
0.0
 20
0.0
 30
0.0
  9
$UCSXDIR
 10
1.0
 20
0.0
 30
0.0
  9
$UCSYDIR
 10
0.0
 20
1.0
 30
0.0
  9
$UCSORTHOREF
  2

  9
$UCSORTHOVIEW
 70
0
  9
$UCSORGTOP
 10
0.0
 20
0.0
 30
0.0
  9
$UCSORGBOTTOM
 10
0.0
 20
0.0
 30
0.0
  9
$UCSORGLEFT
 10
0.0
 20
0.0
 30
0.0
  9
$UCSORGRIGHT
 10
0.0
 20
0.0
 30
0.0
  9
$UCSORGFRONT
 10
0.0
 20
0.0
 30
0.0
  9
$UCSORGBACK
 10
0.0
 20
0.0
 30
0.0
  9
$PUCSBASE
  2

  9
$PUCSNAME
  2

  9
$PUCSORG
 10
0.0
 20
0.0
 30
0.0
  9
$PUCSXDIR
 10
1.0
 20
0.0
 30
0.0
  9
$PUCSYDIR
 10
0.0
 20
1.0
 30
0.0
  9
$PUCSORTHOREF
  2

  9
$PUCSORTHOVIEW
 70
0
  9
$PUCSORGTOP
 10
0.0
 20
0.0
 30
0.0
  9
$PUCSORGBOTTOM
 10
0.0
 20
0.0
 30
0.0
  9
$PUCSORGLEFT
 10
0.0
 20
0.0
 30
0.0
  9
$PUCSORGRIGHT
 10
0.0
 20
0.0
 30
0.0
  9
$PUCSORGFRONT
 10
0.0
 20
0.0
 30
0.0
  9
$PUCSORGBACK
 10
0.0
 20
0.0
 30
0.0
  9
$USERI1
 70
0
  9
$USERI2
 70
0
  9
$USERI3
 70
0
  9
$USERI4
 70
0
  9
$USERI5
 70
0
  9
$USERR1
 40
0.0
  9
$USERR2
 40
0.0
  9
$USERR3
 40
0.0
  9
$USERR4
 40
0.0
  9
$USERR5
 40
0.0
  9
$WORLDVIEW
 70
1
  9
$SHADEDGE
 70
3
  9
$SHADEDIF
 70
70
  9
$TILEMODE
 70
1
  9
$MAXACTVP
 70
64
  9
$PINSBASE
 10
0.0
 20
0.0
 30
0.0
  9
$PLIMCHECK
 70
0
  9
$PEXTMIN
 10
1e+20
 20
1e+20
 30
1e+20
  9
$PEXTMAX
 10
-1e+20
 20
-1e+20
 30
-1e+20
  9
$PLIMMIN
 10
0.0
 20
0.0
  9
$PLIMMAX
 10
420.0
 20
297.0
  9
$UNITMODE
 70
0
  9
$VISRETAIN
 70
1
  9
$PLINEGEN
 70
0
  9
$PSLTSCALE
 70
1
  9
$TREEDEPTH
 70
3020
  9
$CMLSTYLE
  2
Standard
  9
$CMLJUST
 70
0
  9
$CMLSCALE
 40
20.0
  9
$PROXYGRAPHICS
 70
1
  9
$MEASUREMENT
 70
1
  9
$CELWEIGHT
370
-1
  9
$ENDCAPS
280
0
  9
$JOINSTYLE
280
0
  9
$LWDISPLAY
290
0
  9
$INSUNITS
 70
6
  9
$HYPERLINKBASE
  1

  9
$STYLESHEET
  1

  9
$XEDIT
290
1
  9
$CEPSNTYPE
380
0
  9
$PSTYLEMODE
290
1
  9
$FINGERPRINTGUID
  2
{71E1DB40-EA2C-43D6-9B1F-C860A2BBD881}
  9
$VERSIONGUID
  2
{748A8563-BC06-4AE5-A40C-0F311E7FB2F8}
  9
$EXTNAMES
290
1
  9
$PSVPSCALE
 40
0.0
  9
$OLESTARTUP
290
0
  9
$SORTENTS
280
127
  9
$INDEXCTL
280
0
  9
$HIDETEXT
280
1
  9
$XCLIPFRAME
280
1
  9
$HALOGAP
280
0
  9
$OBSCOLOR
 70
257
  9
$OBSLTYPE
280
0
  9
$INTERSECTIONDISPLAY
280
0
  9
$INTERSECTIONCOLOR
 70
257
  9
$DIMASSOC
280
2
  9
$PROJECTNAME
  1

  9
$CAMERADISPLAY
290
0
  9
$LENSLENGTH
 40
50.0
  9
$CAMERAHEIGHT
 40
0.0
  9
$STEPSPERSEC
 40
24.0
  9
$STEPSIZE
 40
100.0
  9
$3DDWFPREC
 40
2.0
  9
$PSOLWIDTH
 40
0.005
  9
$PSOLHEIGHT
 40
0.08
  9
$LOFTANG1
 40
1.570796326795
  9
$LOFTANG2
 40
1.570796326795
  9
$LOFTMAG1
 40
0.0
  9
$LOFTMAG2
 40
0.0
  9
$LOFTPARAM
 70
7
  9
$LOFTNORMALS
280
1
  9
$LATITUDE
 40
37.795
  9
$LONGITUDE
 40
-122.394
  9
$NORTHDIRECTION
 40
0.0
  9
$TIMEZONE
 70
-8000
  9
$LIGHTGLYPHDISPLAY
280
1
  9
$TILEMODELIGHTSYNCH
280
1
  9
$CMATERIAL
347
20
  9
$SOLIDHIST
280
0
  9
$SHOWHIST
280
1
  9
$DWFFRAME
280
2
  9
$DGNFRAME
280
2
  9
$REALWORLDSCALE
290
1
  9
$INTERFERECOLOR
 62
256
  9
$CSHADOW
280
0
  9
$SHADOWPLANELOCATION
 40
0.0
  0
ENDSEC
  0
SECTION
  2
CLASSES
  0
CLASS
  1
ACDBDICTIONARYWDFLT
  2
AcDbDictionaryWithDefault
  3
ObjectDBX Classes
 90
0
 91
0
280
0
281
0
  0
CLASS
  1
SUN
  2
AcDbSun
  3
SCENEOE
 90
1153
 91
0
280
0
281
0
  0
CLASS
  1
VISUALSTYLE
  2
AcDbVisualStyle
  3
ObjectDBX Classes
 90
4095
 91
0
280
0
281
0
  0
CLASS
  1
MATERIAL
  2
AcDbMaterial
  3
ObjectDBX Classes
 90
1153
 91
0
280
0
281
0
  0
CLASS
  1
SCALE
  2
AcDbScale
  3
ObjectDBX Classes
 90
1153
 91
0
280
0
281
0
  0
CLASS
  1
TABLESTYLE
  2
AcDbTableStyle
  3
ObjectDBX Classes
 90
4095
 91
0
280
0
281
0
  0
CLASS
  1
MLEADERSTYLE
  2
AcDbMLeaderStyle
  3
ACDB_MLEADERSTYLE_CLASS
 90
4095
 91
0
280
0
281
0
  0
CLASS
  1
DICTIONARYVAR
  2
AcDbDictionaryVar
  3
ObjectDBX Classes
 90
0
 91
0
280
0
281
0
  0
CLASS
  1
CELLSTYLEMAP
  2
AcDbCellStyleMap
  3
ObjectDBX Classes
 90
1152
 91
0
280
0
281
0
  0
CLASS
  1
MENTALRAYRENDERSETTINGS
  2
AcDbMentalRayRenderSettings
  3
SCENEOE
 90
1024
 91
0
280
0
281
0
  0
CLASS
  1
ACDBDETAILVIEWSTYLE
  2
AcDbDetailViewStyle
  3
ObjectDBX Classes
 90
1025
 91
0
280
0
281
0
  0
CLASS
  1
ACDBSECTIONVIEWSTYLE
  2
AcDbSectionViewStyle
  3
ObjectDBX Classes
 90
1025
 91
0
280
0
281
0
  0
CLASS
  1
RASTERVARIABLES
  2
AcDbRasterVariables
  3
ISM
 90
0
 91
0
280
0
281
0
  0
CLASS
  1
LAYOUT
  2
AcDbLayout
  3
ObjectDBX Classes
 90
0
 91
0
280
0
281
0
  0
CLASS
  1
ACDBPLACEHOLDER
  2
AcDbPlaceHolder
  3
ObjectDBX Classes
 90
0
 91
0
280
0
281
0
  0
ENDSEC
  0
SECTION
  2
TABLES
  0
TABLE
  2
VPORT
  5
8
330
0
100
AcDbSymbolTable
 70
1
  0
VPORT
  5
23
330
8
100
AcDbSymbolTableRecord
100
AcDbViewportTableRecord
  2
*Active
 70
0
 10
0.0
 20
0.0
 11
1.0
 21
1.0
 12
0.0
 22
0.0
 13
0.0
 23
0.0
 14
0.5
 24
0.5
 15
0.5
 25
0.5
 16
0.0
 26
0.0
 36
1.0
 17
0.0
 27
0.0
 37
0.0
 40
1000.0
 41
1.34
 42
50.0
 43
0.0
 44
0.0
 50
0.0
 51
0.0
 71
0
 72
1000
 73
1
 74
3
 75
0
 76
0
 77
0
 78
0
281
0
 65
0
146
0.0
  0
ENDTAB
  0
TABLE
  2
LTYPE
  5
2
330
0
100
AcDbSymbolTable
 70
3
  0
LTYPE
  5
24
330
2
100
AcDbSymbolTableRecord
100
AcDbLinetypeTableRecord
  2
ByBlock
 70
0
  3

 72
65
 73
0
 40
0.0
  0
LTYPE
  5
25
330
2
100
AcDbSymbolTableRecord
100
AcDbLinetypeTableRecord
  2
ByLayer
 70
0
  3

 72
65
 73
0
 40
0.0
  0
LTYPE
  5
26
330
2
100
AcDbSymbolTableRecord
100
AcDbLinetypeTableRecord
  2
Continuous
 70
0
  3

 72
65
 73
0
 40
0.0
  0
ENDTAB
  0
TABLE
  2
LAYER
  5
1
330
0
100
AcDbSymbolTable
 70
3
  0
LAYER
  5
27
330
1
100
AcDbSymbolTableRecord
100
AcDbLayerTableRecord
  2
0
 70
0
 62
7
  6
Continuous
370
-3
390
13
347
21
  0
LAYER
  5
28
330
1
100
AcDbSymbolTableRecord
100
AcDbLayerTableRecord
  2
Defpoints
 70
0
 62
7
  6
Continuous
290
0
370
-3
390
13
347
21
  0
LAYER
  5
6F
330
1
100
AcDbSymbolTableRecord
100
AcDbLayerTableRecord
  2
A-DETL-GENF
 70
0
 62
92
  6
Continuous
370
18
390
13
347
21
348
0
  0
ENDTAB
  0
TABLE
  2
STYLE
  5
5
330
0
100
AcDbSymbolTable
 70
1
  0
STYLE
  5
29
330
5
100
AcDbSymbolTableRecord
100
AcDbTextStyleTableRecord
  2
Standard
 70
0
 40
0.0
 41
1.0
 50
0.0
 71
0
 42
2.5
  3
txt
  4

  0
ENDTAB
  0
TABLE
  2
VIEW
  5
7
330
0
100
AcDbSymbolTable
 70
0
  0
ENDTAB
  0
TABLE
  2
UCS
  5
6
330
0
100
AcDbSymbolTable
 70
0
  0
ENDTAB
  0
TABLE
  2
APPID
  5
3
330
0
100
AcDbSymbolTable
 70
3
  0
APPID
  5
2A
330
3
100
AcDbSymbolTableRecord
100
AcDbRegAppTableRecord
  2
ACAD
 70
0
  0
APPID
  5
72
330
3
100
AcDbSymbolTableRecord
100
AcDbRegAppTableRecord
  2
HATCHBACKGROUNDCOLOR
 70
0
  0
APPID
  5
73
330
3
100
AcDbSymbolTableRecord
100
AcDbRegAppTableRecord
  2
EZDXF
 70
0
  0
ENDTAB
  0
TABLE
  2
DIMSTYLE
  5
4
330
0
100
AcDbSymbolTable
 70
1
100
AcDbDimStyleTable
  0
DIMSTYLE
105
2B
330
4
100
AcDbSymbolTableRecord
100
AcDbDimStyleTableRecord
  2
Standard
 70
0
 40
1.0
 41
2.5
 42
0.625
 43
3.75
 44
1.25
 45
0.0
 46
0.0
 47
0.0
 48
0.0
 49
2.5
140
2.5
141
2.5
142
0.0
143
0.03937007874
144
1.0
145
0.0
146
1.0
147
0.625
148
0.0
 69
0
 70
0
 71
0
 72
0
 73
0
 74
0
 75
0
 76
0
 77
1
 78
8
 79
3
170
0
171
3
172
1
173
0
174
0
175
0
176
0
177
0
178
0
179
2
271
2
272
2
273
2
274
3
275
0
276
0
277
2
278
44
279
0
280
0
281
0
282
0
283
0
284
8
285
0
286
0
288
0
289
3
290
0
371
-2
372
-2
  0
ENDTAB
  0
TABLE
  2
BLOCK_RECORD
  5
9
330
0
100
AcDbSymbolTable
 70
3
  0
BLOCK_RECORD
  5
17
330
9
100
AcDbSymbolTableRecord
100
AcDbBlockTableRecord
  2
*Model_Space
340
1A
 70
0
280
1
281
0
  0
BLOCK_RECORD
  5
1B
330
9
100
AcDbSymbolTableRecord
100
AcDbBlockTableRecord
  2
*Paper_Space
340
1E
 70
0
280
1
281
0
  0
BLOCK_RECORD
  5
2F
330
9
100
AcDbSymbolTableRecord
100
AcDbBlockTableRecord
  2
41 roval muurafdeksysteem type D - Type 1-4961327-00_0 Basismaterialen
340
0
 70
0
280
1
281
0
  0
ENDTAB
  0
ENDSEC
  0
SECTION
  2
BLOCKS
  0
BLOCK
  5
18
330
17
100
AcDbEntity
  8
0
100
AcDbBlockBegin
  2
*Model_Space
 70
0
 10
0.0
 20
0.0
 30
0.0
  3
*Model_Space
  1

  0
ENDBLK
  5
19
330
17
100
AcDbEntity
  8
0
100
AcDbBlockEnd
  0
BLOCK
  5
1C
330
1B
100
AcDbEntity
  8
0
100
AcDbBlockBegin
  2
*Paper_Space
 70
0
 10
0.0
 20
0.0
 30
0.0
  3
*Paper_Space
  1

  0
ENDBLK
  5
1D
330
1B
100
AcDbEntity
  8
0
100
AcDbBlockEnd
  0
BLOCK
  5
30
330
2F
100
AcDbEntity
  8
0
100
AcDbBlockBegin
  2
41 roval muurafdeksysteem type D - Type 1-4961327-00_0 Basismaterialen
 70
0
 10
0.0
 20
0.0
 30
0.0
  3
41 roval muurafdeksysteem type D - Type 1-4961327-00_0 Basismaterialen
  1

  0
HATCH
  5
32
330
2F
100
AcDbEntity
  8
A-DETL-GENF
100
AcDbHatch
 10
0.0
 20
0.0
 30
0.0
210
0.0
220
0.0
230
1.0
  2
SOLID
 70
1
 71
0
 91
1
 92
1
 93
21
 72
1
 10
-27.0866049120467
 20
-40.69997264496733
 11
-24.38738616204657
 21
-40.69997264496733
 72
1
 10
-24.38738616204657
 20
-40.69997264496733
 11
-24.38738616204657
 21
-2.000753894968894
 72
1
 10
-24.38738616204657
 20
-2.000753894968892
 11
-24.08750681294078
 21
0.2770559043126752
 72
1
 10
-24.08750681294078
 20
0.2770559043126752
 11
-23.2083050476973
 21
2.399636730032983
 72
1
 10
-23.2083050476973
 20
2.399636730032983
 11
-21.80969701365921
 21
4.222338206647504
 72
1
 10
-21.80969701365921
 20
4.222338206647504
 11
-19.98699553704469
 21
5.620946240681258
 72
1
 10
-19.98699553704469
 20
5.620946240681258
 11
-17.86441471132655
 21
6.500148005929071
 72
1
 10
-17.86441471132655
 20
6.500148005929071
 11
-15.58660491204498
 21
6.800027355030528
 72
1
 10
-15.58660491204498
 20
6.800027355030528
 11
239.0693818720623
 21
6.800027355030528
 72
1
 10
239.0693818720623
 20
6.800027355030528
 11
239.0693818720623
 21
9.999246105030545
 72
1
 10
239.0693818720623
 20
9.999246105030545
 11
-15.58660491204497
 21
9.99924610503271
 72
1
 10
-15.58660491204498
 20
9.99924610503271
 11
-18.69243345327539
 21
9.590356020500648
 72
1
 10
-18.69243345327539
 20
9.590356020500648
 11
-21.58660491204578
 21
8.391550950445936
 72
1
 10
-21.58660491204578
 20
8.391550950445936
 11
-24.07188628628412
 21
6.484527479270241
 72
1
 10
-24.07188628628412
 20
6.484527479270241
 11
-25.97890975745981
 21
3.999246105031909
 72
1
 10
-25.97890975745981
 20
3.999246105031909
 11
-27.17771482751452
 21
1.105074646261516
 72
1
 10
-27.17771482751452
 20
1.105074646261516
 11
-27.58660491204442
 21
-2.000753894968892
 72
1
 10
-27.58660491204442
 20
-2.000753894968892
 11
-27.58660491204442
 21
-40.19997264496961
 72
1
 10
-27.58660491204442
 20
-40.19997264496961
 11
-27.44015830263756
 21
-40.55352603556264
 72
1
 10
-27.44015830263756
 20
-40.55352603556264
 11
-27.21601443459679
 21
-40.68293555811274
 72
1
 10
-27.21601443459679
 20
-40.68293555811274
 11
-27.0866049120467
 21
-40.69997264496733
 97
0
 75
0
 76
1
 98
1
 10
0.0
 20
0.0
450
0
451
0
460
0.0
461
0.0
452
0
462
0.0
453
0
470

  0
HATCH
  5
33
330
2F
100
AcDbEntity
  8
A-DETL-GENF
370
13
100
AcDbHatch
 10
0.0
 20
0.0
 30
0.0
210
0.0
220
0.0
230
1.0
  2
FP_20
 70
0
 71
0
 91
1
 92
1
 93
41
 72
1
 10
-14.58660491204304
 20
-42.69997264496904
 11
-14.58660491204304
 21
-40.69997264496733
 72
1
 10
-14.58660491204304
 20
-40.69997264496733
 11
-27.21601443459246
 21
-40.68293555811274
 72
1
 10
-27.21601443459246
 20
-40.68293555811274
 11
-27.44015830263756
 21
-40.55352603556047
 72
1
 10
-27.44015830263756
 20
-40.55352603556047
 11
-27.56956782518765
 21
-40.32938216751971
 72
1
 10
-27.56956782518765
 20
-40.32938216751971
 11
-27.58660491204442
 21
-40.19997264496961
 72
1
 10
-27.58660491204442
 20
-40.19997264496961
 11
-27.58660491204442
 21
9.999246105028384
 72
1
 10
-27.58660491204442
 20
9.99924610502838
 11
262.255429103497
 21
9.99924610502838
 72
1
 10
262.255429103497
 20
9.99924610502838
 11
262.2528802601218
 21
-35.69834502831231
 72
1
 10
262.2528802601218
 20
-35.69834502831231
 11
249.2529726956077
 21
-35.71485261050987
 72
1
 10
249.2529726956077
 20
-35.71485261050987
 11
249.2525924169325
 21
-37.69898076201553
 72
1
 10
249.2525924169325
 20
-37.69898076201553
 11
261.755716750985
 21
-37.70146108924072
 72
1
 10
261.755716750985
 20
-37.70146108924072
 11
262.3124926950433
 21
-37.63839455319498
 72
1
 10
262.3124926950433
 20
-37.63839455319498
 11
262.8412649778076
 21
-37.45298497190178
 72
1
 10
262.8412649778076
 20
-37.45298497190178
 11
263.3155054176802
 21
-37.15453423050581
 72
1
 10
263.3155054176802
 20
-37.15453423050581
 11
263.7114216622393
 21
-36.75801541991743
 72
1
 10
263.7114216622393
 20
-36.75801541991743
 11
264.0091508359597
 21
-36.28332164602895
 72
1
 10
264.0091508359597
 20
-36.28332164602895
 11
264.1937560485406
 21
-35.75426800475713
 72
1
 10
264.1937560485406
 20
-35.75426800475713
 11
264.2559757695142
 21
-35.19739679327581
 72
1
 10
264.2559757695142
 20
-35.19739679327581
 11
264.2554291035053
 21
9.999246105028384
 72
1
 10
264.2554291035053
 20
9.99924610502838
 11
264.1872807560825
 21
10.51688419523308
 72
1
 10
264.1872807560825
 20
10.51688419523308
 11
263.9874799110752
 21
10.99924610503032
 72
1
 10
263.9874799110752
 20
10.99924610503032
 11
263.6696426658778
 21
11.41345966740265
 72
1
 10
263.6696426658778
 20
11.41345966740265
 11
263.2554291035012
 21
11.73129691260004
 72
1
 10
263.2554291035012
 20
11.73129691260004
 11
262.7730671937061
 21
11.93109775761169
 72
1
 10
262.7730671937061
 20
11.93109775761169
 11
262.255429103497
 21
11.99924610503225
 72
1
 10
262.255429103497
 20
11.99924610503225
 11
-27.58660491204228
 21
11.99924610503442
 72
1
 10
-27.58660491204226
 20
11.99924610503442
 11
-28.10424300224696
 21
11.93109775761169
 72
1
 10
-28.10424300224696
 20
11.93109775761169
 11
-28.58660491204203
 21
11.73129691260221
 72
1
 10
-28.58660491204203
 20
11.73129691260221
 11
-29.0008184744187
 21
11.41345966740481
 72
1
 10
-29.0008184744187
 20
11.41345966740481
 11
-29.31865571961392
 21
10.99924610503248
 72
1
 10
-29.31865571961392
 20
10.99924610503248
 11
-29.5184565646234
 21
10.51688419523525
 72
1
 10
-29.5184565646234
 20
10.51688419523525
 11
-29.58660491204613
 21
9.99924610502838
 72
1
 10
-29.58660491204613
 20
9.99924610502838
 11
-29.58660491204397
 21
-40.19997264496746
 72
1
 10
-29.58660491204397
 20
-40.19997264496745
 11
-29.50141947776663
 21
-40.84702025772442
 72
1
 10
-29.50141947776663
 20
-40.84702025772442
 11
-29.25166842150424
 21
-41.44997264496717
 72
1
 10
-29.25166842150424
 20
-41.44997264496717
 11
-28.85437186500967
 21
-41.96773959793474
 72
1
 10
-28.85437186500967
 20
-41.96773959793474
 11
-28.33660491204425
 21
-42.36503615442932
 72
1
 10
-28.33660491204425
 20
-42.36503615442932
 11
-27.58660491204442
 21
-42.63414639617459
 72
1
 10
-27.58660491204442
 20
-42.63414639617459
 11
-27.0866049120467
 21
-42.69997264496904
 72
1
 10
-27.0866049120467
 20
-42.69997264496904
 11
-17.58660491204669
 21
-42.69997264496904
 72
1
 10
-17.58660491204669
 20
-42.69997264496904
 11
-14.58660491204304
 21
-42.69997264496904
 97
0
 75
0
 76
2
 52
0.0
 41
1.0
 77
0
 78
3
 53
45.0
 43
13939.73
 44
2929.544
 45
-22.45064030267288
 46
22.45064030267288
 79
0
 53
45.0
 43
13947.667
 44
2929.544
 45
0.0
 46
44.90128060534576
 79
0
 53
45.0
 43
13931.792
 44
2929.544
 45
0.0
 46
44.90128060534576
 79
0
 98
1
 10
0.0
 20
0.0
  0
LINE
  5
34
330
2F
100
AcDbEntity
  8
A-DETL-GENF
100
AcDbLine
 10
-27.58660491202324
 20
9.9992461050303
 30
0.0
 11
-15.58660491202283
 21
9.9992461050303
 31
0.0
  0
LINE
  5
35
330
2F
100
AcDbEntity
  8
A-DETL-GENF
100
AcDbLine
 10
239.0693818720862
 20
9.9992461050303
 30
0.0
 11
262.2554291035212
 21
9.9992461050303
 31
0.0
  0
LINE
  5
36
330
2F
100
AcDbEntity
  8
A-DETL-GENF
100
AcDbLine
 10
262.2554291035212
 20
9.9992461050303
 30
0.0
 11
262.252880260141
 21
-35.69834502831029
 31
0.0
  0
LINE
  5
37
330
2F
100
AcDbEntity
  8
A-DETL-GENF
100
AcDbLine
 10
262.252880260141
 20
-35.69834502831029
 30
0.0
 11
256.7681781576102
 21
-35.69886759069668
 31
0.0
  0
LINE
  5
38
330
2F
100
AcDbEntity
  8
A-DETL-GENF
100
AcDbLine
 10
256.0897685481312
 20
-35.69893222708675
 30
0.0
 11
249.2529756220863
 21
-35.69958361174901
 31
0.0
  0
LINE
  5
39
330
2F
100
AcDbEntity
  8
A-DETL-GENF
100
AcDbLine
 10
249.2529756220863
 20
-35.69958361174901
 30
0.0
 11
249.252592416954
 21
-37.69898076201324
 31
0.0
  0
LINE
  5
3A
330
2F
100
AcDbEntity
  8
A-DETL-GENF
100
AcDbLine
 10
249.252592416954
 20
-37.69898076201324
 30
0.0
 11
261.7557167510033
 21
-37.70146108923792
 31
0.0
  0
ARC
  5
3B
330
2F
100
AcDbEntity
  8
A-DETL-GENF
100
AcDbCircle
 10
261.7543104517836
 20
-35.1997950172277
 30
0.0
 40
2.501666467282256
100
AcDbArc
 50
270.0322085359171
 51
0.0549266394237764
  0
LINE
  5
3C
330
2F
100
AcDbEntity
  8
A-DETL-GENF
100
AcDbLine
 10
264.2559757695362
 20
-35.1973967932725
 30
0.0
 11
264.2559757695362
 21
9.9992461050303
 31
0.0
  0
ARC
  5
3D
330
2F
100
AcDbEntity
  8
A-DETL-GENF
100
AcDbCircle
 10
262.2554291035212
 20
9.999246105030291
 30
0.0
 40
2.000000000006025
100
AcDbArc
 50
0.0
 51
90.0
  0
LINE
  5
3E
330
2F
100
AcDbEntity
  8
A-DETL-GENF
100
AcDbLine
 10
262.2554291035212
 20
11.99924610503634
 30
0.0
 11
-27.58660491201569
 21
11.99924610503634
 31
0.0
  0
ARC
  5
3F
330
2F
100
AcDbEntity
  8
A-DETL-GENF
100
AcDbCircle
 10
-27.5866049120187
 20
9.999246105031354
 30
0.0
 40
2.00000000000604
100
AcDbArc
 50
89.99999999999994
 51
180.0
  0
LINE
  5
40
330
2F
100
AcDbEntity
  8
A-DETL-GENF
100
AcDbLine
 10
-29.5866049120248
 20
9.999246105031354
 30
0.0
 11
-29.5866049120248
 21
-40.19997264496516
 31
0.0
  0
ARC
  5
41
330
2F
100
AcDbEntity
  8
A-DETL-GENF
100
AcDbCircle
 10
-27.08660491202166
 20
-40.19997264496461
 30
0.0
 40
2.499999999999992
100
AcDbArc
 50
179.9999999999997
 51
269.9999999999993
  0
LINE
  5
42
330
2F
100
AcDbEntity
  8
A-DETL-GENF
100
AcDbLine
 10
-27.0866049120232
 20
-42.69997264496441
 30
0.0
 11
-14.58660491202387
 21
-42.69997264496441
 31
0.0
  0
LINE
  5
43
330
2F
100
AcDbEntity
  8
A-DETL-GENF
100
AcDbLine
 10
-14.58660491202387
 20
-42.69997264496441
 30
0.0
 11
-14.58660491202387
 21
-40.69997264496486
 31
0.0
  0
LINE
  5
44
330
2F
100
AcDbEntity
  8
A-DETL-GENF
100
AcDbLine
 10
-14.58660491202387
 20
-40.69997264496486
 30
0.0
 11
-17.58660491202574
 21
-40.69997264496486
 31
0.0
  0
LINE
  5
45
330
2F
100
AcDbEntity
  8
A-DETL-GENF
100
AcDbLine
 10
-21.78777678702152
 20
-40.69997264496486
 30
0.0
 11
-24.38738616202317
 21
-40.69997264496486
 31
0.0
  0
ARC
  5
46
330
2F
100
AcDbEntity
  8
A-DETL-GENF
100
AcDbCircle
 10
-27.08660491202166
 20
-40.19997264496461
 30
0.0
 40
0.4999999999999991
100
AcDbArc
 50
209.9999999999991
 51
224.9999999999993
  0
ARC
  5
47
330
2F
100
AcDbEntity
  8
A-DETL-GENF
100
AcDbCircle
 10
-27.08660491202166
 20
-40.19997264496461
 30
0.0
 40
0.5000000000000023
100
AcDbArc
 50
180.0
 51
194.9999999999988
  0
LINE
  5
48
330
2F
100
AcDbEntity
  8
A-DETL-GENF
100
AcDbLine
 10
-27.58660491202308
 20
-2.00075389496396
 30
0.0
 11
-27.58660491202308
 21
9.99924610503128
 31
0.0
  0
LINE
  5
49
330
2F
100
AcDbEntity
  8
A-DETL-GENF
100
AcDbLine
 10
239.0693818720845
 20
4.200417980034719
 30
0.0
 11
-15.58660491202251
 21
4.200417980034719
 31
0.0
  0
ARC
  5
4A
330
2F
100
AcDbEntity
  8
A-DETL-GENF
100
AcDbCircle
 10
-15.58660491202302
 20
-2.000753894965184
 30
0.0
 40
6.201171874999979
100
AcDbArc
 50
89.99999999999964
 51
180.0000000000001
  0
LINE
  5
4B
330
2F
100
AcDbEntity
  8
A-DETL-GENF
100
AcDbLine
 10
-21.78777678702249
 20
-2.000753894965186
 30
0.0
 11
-21.78777678702249
 21
-40.69997264496486
 31
0.0
  0
LINE
  5
4C
330
2F
100
AcDbEntity
  8
A-DETL-GENF
100
AcDbLine
 10
-21.78777678702249
 20
-40.69997264496486
 30
0.0
 11
-17.58660491202348
 21
-40.69997264496486
 31
0.0
  0
LINE
  5
4D
330
2F
100
AcDbEntity
  8
A-DETL-GENF
100
AcDbLine
 10
-17.58660491202348
 20
-40.69997264496486
 30
0.0
 11
-17.58660491202348
 21
-2.000753894965195
 31
0.0
  0
ARC
  5
4E
330
2F
100
AcDbEntity
  8
A-DETL-GENF
100
AcDbCircle
 10
-15.58660491202302
 20
-2.00075389496518
 30
0.0
 40
1.999999999999983
100
AcDbArc
 50
89.99999999999996
 51
180.000000000001
  0
LINE
  5
4F
330
2F
100
AcDbEntity
  8
A-DETL-GENF
100
AcDbLine
 10
-15.58660491202251
 20
-0.0007538949647489
 30
0.0
 11
239.0693818720845
 21
-0.0007538949647489
 31
0.0
  0
LINE
  5
50
330
2F
100
AcDbEntity
  8
A-DETL-GENF
100
AcDbLine
 10
239.0693818720845
 20
-0.0007538949647489
 30
0.0
 11
239.0693818720845
 21
0.2594855685323766
 31
0.0
  0
LINE
  5
51
330
2F
100
AcDbEntity
  8
A-DETL-GENF
100
AcDbLine
 10
239.0693818720845
 20
1.077930580983077
 30
0.0
 11
239.0693818720845
 21
4.200417980034719
 31
0.0
  0
LINE
  5
52
330
2F
100
AcDbEntity
  8
A-DETL-GENF
100
AcDbLine
 10
-27.58660491202336
 20
-2.000753894964696
 30
0.0
 11
-27.58660491202336
 21
-40.19997264496467
 31
0.0
  0
ARC
  5
53
330
2F
100
AcDbEntity
  8
A-DETL-GENF
100
AcDbCircle
 10
-27.08660491202345
 20
-40.19997264496577
 30
0.0
 40
0.5000000000000249
100
AcDbArc
 50
180.0
 51
269.9999999999988
  0
LINE
  5
54
330
2F
100
AcDbEntity
  8
A-DETL-GENF
100
AcDbLine
 10
-27.08660491202347
 20
-40.69997264496437
 30
0.0
 11
-24.38738616202347
 21
-40.69997264496437
 31
0.0
  0
LINE
  5
55
330
2F
100
AcDbEntity
  8
A-DETL-GENF
100
AcDbLine
 10
-24.38738616202347
 20
-40.69997264496437
 30
0.0
 11
-24.38738616202347
 21
-2.000753894964738
 31
0.0
  0
ARC
  5
56
330
2F
100
AcDbEntity
  8
A-DETL-GENF
100
AcDbCircle
 10
-15.58660491202358
 20
-2.00075389496469
 30
0.0
 40
8.80078125000004
100
AcDbArc
 50
90.00000000000026
 51
180.0000000000003
  0
LINE
  5
57
330
2F
100
AcDbEntity
  8
A-DETL-GENF
100
AcDbLine
 10
-15.5866049120237
 20
6.800027355035194
 30
0.0
 11
239.0693818720845
 21
6.800027355035194
 31
0.0
  0
LINE
  5
58
330
2F
100
AcDbEntity
  8
A-DETL-GENF
100
AcDbLine
 10
239.0693818720845
 20
6.800027355035194
 30
0.0
 11
239.0693818720845
 21
9.999246105034915
 31
0.0
  0
LINE
  5
59
330
2F
100
AcDbEntity
  8
A-DETL-GENF
100
AcDbLine
 10
239.0693818720845
 20
9.999246105034915
 30
0.0
 11
-15.5866049120237
 21
9.999246105034915
 31
0.0
  0
ARC
  5
5A
330
2F
100
AcDbEntity
  8
A-DETL-GENF
100
AcDbCircle
 10
-15.58660491202357
 20
-2.000753894964706
 30
0.0
 40
12.00000000000002
100
AcDbArc
 50
89.99999999999952
 51
179.9999999999995
  0
LINE
  5
5B
330
2F
100
AcDbEntity
  8
A-DETL-GENF
100
AcDbLine
 10
239.0693818720845
 20
1.077930580983363
 30
0.0
 11
239.0693818720845
 21
0.2594855685322581
 31
0.0
  0
LINE
  5
5C
330
2F
100
AcDbEntity
  8
A-DETL-GENF
100
AcDbLine
 10
239.0693818720845
 20
0.2594855685322581
 30
0.0
 11
242.5775830038913
 21
-0.4864187554063129
 31
0.0
  0
ARC
  5
5D
330
2F
100
AcDbEntity
  8
A-DETL-GENF
100
AcDbCircle
 10
241.7041474970822
 20
-4.59443547445187
 30
0.0
 40
4.199844157645904
100
AcDbArc
 50
35.00018398064245
 51
77.99666930799097
  0
LINE
  5
5E
330
2F
100
AcDbEntity
  8
A-DETL-GENF
100
AcDbLine
 10
245.1444506892521
 20
-2.185492782219775
 30
0.0
 11
260.6913433662039
 21
-24.3882849991654
 31
0.0
  0
ARC
  5
5F
330
2F
100
AcDbEntity
  8
A-DETL-GENF
100
AcDbCircle
 10
257.2510224397465
 20
-26.79724025031103
 30
0.0
 40
4.199865888221036
100
AcDbArc
 50
330.9939259029976
 51
35.00018555797102
  0
LINE
  5
60
330
2F
100
AcDbEntity
  8
A-DETL-GENF
100
AcDbLine
 10
260.924092035482
 20
-28.83376504120509
 30
0.0
 11
258.2082825501882
 21
-33.73198986920117
 31
0.0
  0
ARC
  5
61
330
2F
100
AcDbEntity
  8
A-DETL-GENF
100
AcDbCircle
 10
256.1982880647444
 20
-32.6175521557001
 30
0.0
 40
2.298270925889322
100
AcDbArc
 50
268.0124731228913
 51
330.9939040432738
  0
LINE
  5
62
330
2F
100
AcDbEntity
  8
A-DETL-GENF
100
AcDbLine
 10
256.1185795900852
 20
-34.91444044376628
 30
0.0
 11
251.2221784512487
 21
-34.74452136049148
 31
0.0
  0
ARC
  5
63
330
2F
100
AcDbEntity
  8
A-DETL-GENF
100
AcDbCircle
 10
251.2568818184566
 20
-33.74450554093913
 30
0.0
 40
1.000617790692586
100
AcDbArc
 50
178.0051988766587
 51
268.0124725726608
  0
LINE
  5
64
330
2F
100
AcDbEntity
  8
A-DETL-GENF
100
AcDbLine
 10
250.2568704125531
 20
-33.70967522205867
 30
0.0
 11
250.5283662495309
 21
-25.91442775031135
 31
0.0
  0
LINE
  5
65
330
2F
100
AcDbEntity
  8
A-DETL-GENF
100
AcDbLine
 10
250.5283662495309
 20
-25.91442775031135
 30
0.0
 11
249.7295381245309
 21
-25.88708400031134
 31
0.0
  0
LINE
  5
66
330
2F
100
AcDbEntity
  8
A-DETL-GENF
100
AcDbLine
 10
249.7295381245309
 20
-25.88708400031134
 30
0.0
 11
249.4580589695897
 21
-33.68185542737576
 31
0.0
  0
ARC
  5
67
330
2F
100
AcDbEntity
  8
A-DETL-GENF
100
AcDbCircle
 10
251.2568818184566
 20
-33.74450554093913
 30
0.0
 40
1.799913519682364
100
AcDbArc
 50
178.0052862122125
 51
267.9933593180755
  0
LINE
  5
68
330
2F
100
AcDbEntity
  8
A-DETL-GENF
100
AcDbLine
 10
251.1938572568633
 20
-35.54331530936139
 30
0.0
 11
256.0897685481319
 21
-35.71485261050756
 31
0.0
  0
ARC
  5
69
330
2F
100
AcDbEntity
  8
A-DETL-GENF
100
AcDbCircle
 10
256.1982880647444
 20
-32.61755215570006
 30
0.0
 40
3.09920096038263
100
AcDbArc
 50
267.9933596954398
 51
331.0066143153406
  0
LINE
  5
6A
330
2F
100
AcDbEntity
  8
A-DETL-GENF
100
AcDbLine
 10
258.9090837365833
 20
-34.11976166784402
 30
0.0
 11
261.6240116973183
 21
-29.22056693486029
 31
0.0
  0
ARC
  5
6B
330
2F
100
AcDbEntity
  8
A-DETL-GENF
100
AcDbCircle
 10
257.2510224397445
 20
-26.7972402503114
 30
0.0
 40
4.999554706861645
100
AcDbArc
 50
331.0066238234671
 51
34.99523974842084
  0
LINE
  5
6C
330
2F
100
AcDbEntity
  8
A-DETL-GENF
100
AcDbLine
 10
261.3466561326191
 20
-23.92995374200898
 30
0.0
 11
245.8016797891068
 21
-1.72581987774767
 31
0.0
  0
ARC
  5
6D
330
2F
100
AcDbEntity
  8
A-DETL-GENF
100
AcDbCircle
 10
241.7041474970803
 20
-4.594435474451821
 30
0.0
 40
5.00187228204137
100
AcDbArc
 50
34.99523890413481
 51
78.0192162391373
  0
LINE
  5
6E
330
2F
100
AcDbEntity
  8
A-DETL-GENF
100
AcDbLine
 10
242.7424542596196
 20
0.2984824068046176
 30
0.0
 11
239.0693818720845
 21
1.077930580983363
 31
0.0
  0
ENDBLK
  5
31
330
2F
100
AcDbEntity
  8
0
100
AcDbBlockEnd
  0
ENDSEC
  0
SECTION
  2
ENTITIES
  0
INSERT
  5
70
330
17
100
AcDbEntity
  8
0
100
AcDbBlockReference
  2
41 roval muurafdeksysteem type D - Type 1-4961327-00_0 Basismaterialen
 10
0.0
 20
0.0
 30
0.0
  0
ENDSEC
  0
SECTION
  2
OBJECTS
  0
DICTIONARY
  5
A
330
0
100
AcDbDictionary
281
1
  3
ACAD_COLOR
350
B
  3
ACAD_GROUP
350
C
  3
ACAD_LAYOUT
350
D
  3
ACAD_MATERIAL
350
E
  3
ACAD_MLEADERSTYLE
350
F
  3
ACAD_MLINESTYLE
350
10
  3
ACAD_PLOTSETTINGS
350
11
  3
ACAD_PLOTSTYLENAME
350
12
  3
ACAD_SCALELIST
350
14
  3
ACAD_TABLESTYLE
350
15
  3
ACAD_VISUALSTYLE
350
16
  3
EZDXF_META
350
2D
  0
DICTIONARY
  5
B
330
A
100
AcDbDictionary
281
1
  0
DICTIONARY
  5
C
330
A
100
AcDbDictionary
281
1
  0
DICTIONARY
  5
D
330
A
100
AcDbDictionary
281
1
  3
Model
350
1A
  3
Layout1
350
1E
  0
DICTIONARY
  5
E
330
A
100
AcDbDictionary
281
1
  3
ByBlock
350
1F
  3
ByLayer
350
20
  3
Global
350
21
  0
DICTIONARY
  5
F
330
A
100
AcDbDictionary
281
1
  3
Standard
350
2C
  0
DICTIONARY
  5
10
330
A
100
AcDbDictionary
281
1
  3
Standard
350
22
  0
DICTIONARY
  5
11
330
A
100
AcDbDictionary
281
1
  0
ACDBDICTIONARYWDFLT
  5
12
330
A
100
AcDbDictionary
281
1
  3
Normal
350
13
100
AcDbDictionaryWithDefault
340
13
  0
ACDBPLACEHOLDER
  5
13
330
12
  0
DICTIONARY
  5
14
330
A
100
AcDbDictionary
281
1
  0
DICTIONARY
  5
15
330
A
100
AcDbDictionary
281
1
  0
DICTIONARY
  5
16
330
A
100
AcDbDictionary
281
1
  0
LAYOUT
  5
1A
330
D
100
AcDbPlotSettings
  1

  4
A3
  6

 40
7.5
 41
20.0
 42
7.5
 43
20.0
 44
420.0
 45
297.0
 46
0.0
 47
0.0
 48
0.0
 49
0.0
140
0.0
141
0.0
142
1.0
143
1.0
 70
1024
 72
1
 73
0
 74
5
  7

 75
16
 76
0
 77
2
 78
300
147
1.0
148
0.0
149
0.0
100
AcDbLayout
  1
Model
 70
1
 71
0
 10
0.0
 20
0.0
 11
420.0
 21
297.0
 12
0.0
 22
0.0
 32
0.0
 14
1e+20
 24
1e+20
 34
1e+20
 15
-1e+20
 25
-1e+20
 35
-1e+20
146
0.0
 13
0.0
 23
0.0
 33
0.0
 16
1.0
 26
0.0
 36
0.0
 17
0.0
 27
1.0
 37
0.0
 76
1
330
17
  0
LAYOUT
  5
1E
330
D
100
AcDbPlotSettings
  1

  4
A3
  6

 40
7.5
 41
20.0
 42
7.5
 43
20.0
 44
420.0
 45
297.0
 46
0.0
 47
0.0
 48
0.0
 49
0.0
140
0.0
141
0.0
142
1.0
143
1.0
 70
0
 72
1
 73
0
 74
5
  7

 75
16
 76
0
 77
2
 78
300
147
1.0
148
0.0
149
0.0
100
AcDbLayout
  1
Layout1
 70
1
 71
1
 10
0.0
 20
0.0
 11
420.0
 21
297.0
 12
0.0
 22
0.0
 32
0.0
 14
1e+20
 24
1e+20
 34
1e+20
 15
-1e+20
 25
-1e+20
 35
-1e+20
146
0.0
 13
0.0
 23
0.0
 33
0.0
 16
1.0
 26
0.0
 36
0.0
 17
0.0
 27
1.0
 37
0.0
 76
1
330
1B
  0
MATERIAL
  5
1F
102
{ACAD_REACTORS
330
E
102
}
330
E
100
AcDbMaterial
  1
ByBlock
  2

 70
0
 40
1.0
 71
1
 41
1.0
 91
-1023410177
 42
1.0
 72
1
  3

 73
1
 74
1
 75
1
 44
0.5
 73
0
 45
1.0
 46
1.0
 77
1
  4

 78
1
 79
1
170
1
 48
1.0
171
1
  6

172
1
173
1
174
1
140
1.0
141
1.0
175
1
  7

176
1
177
1
178
1
143
1.0
179
1
  8

270
1
271
1
272
1
145
1.0
146
1.0
273
1
  9

274
1
275
1
276
1
 42
1.0
 72
1
  3

 73
1
 74
1
 75
1
 94
63
  0
MATERIAL
  5
20
102
{ACAD_REACTORS
330
E
102
}
330
E
100
AcDbMaterial
  1
ByLayer
  2

 70
0
 40
1.0
 71
1
 41
1.0
 91
-1023410177
 42
1.0
 72
1
  3

 73
1
 74
1
 75
1
 44
0.5
 73
0
 45
1.0
 46
1.0
 77
1
  4

 78
1
 79
1
170
1
 48
1.0
171
1
  6

172
1
173
1
174
1
140
1.0
141
1.0
175
1
  7

176
1
177
1
178
1
143
1.0
179
1
  8

270
1
271
1
272
1
145
1.0
146
1.0
273
1
  9

274
1
275
1
276
1
 42
1.0
 72
1
  3

 73
1
 74
1
 75
1
 94
63
  0
MATERIAL
  5
21
102
{ACAD_REACTORS
330
E
102
}
330
E
100
AcDbMaterial
  1
Global
  2

 70
0
 40
1.0
 71
1
 41
1.0
 91
-1023410177
 42
1.0
 72
1
  3

 73
1
 74
1
 75
1
 44
0.5
 73
0
 45
1.0
 46
1.0
 77
1
  4

 78
1
 79
1
170
1
 48
1.0
171
1
  6

172
1
173
1
174
1
140
1.0
141
1.0
175
1
  7

176
1
177
1
178
1
143
1.0
179
1
  8

270
1
271
1
272
1
145
1.0
146
1.0
273
1
  9

274
1
275
1
276
1
 42
1.0
 72
1
  3

 73
1
 74
1
 75
1
 94
63
  0
MLINESTYLE
  5
22
102
{ACAD_REACTORS
330
10
102
}
330
10
100
AcDbMlineStyle
  2
Standard
 70
0
  3

 62
256
 51
90.0
 52
90.0
 71
2
 49
0.5
 62
256
  6
BYLAYER
 49
-0.5
 62
256
  6
BYLAYER
  0
MLEADERSTYLE
  5
2C
102
{ACAD_REACTORS
330
F
102
}
330
F
100
AcDbMLeaderStyle
179
2
170
2
171
1
172
0
 90
2
 40
0.0
 41
0.0
173
1
 91
-1056964608
 92
-2
290
1
 42
2.0
291
1
 43
8.0
  3
Standard
 44
4.0
300

342
29
174
1
175
1
176
0
178
1
 93
-1056964608
 45
4.0
292
0
297
0
 46
4.0
 94
-1056964608
 47
1.0
 49
1.0
140
1.0
294
1
141
0.0
177
0
142
1.0
295
0
296
0
143
3.75
271
0
272
9
273
9
  0
DICTIONARY
  5
2D
330
A
100
AcDbDictionary
280
1
281
1
  3
CREATED_BY_EZDXF
350
2E
  3
WRITTEN_BY_EZDXF
350
74
  0
DICTIONARYVAR
  5
2E
330
2D
100
DictionaryVariables
280
0
  1
1.4.3 @ 2026-02-13T04:54:13.684615+00:00
  0
DICTIONARYVAR
  5
74
330
2D
100
DictionaryVariables
280
0
  1
1.4.3 @ 2026-02-13T04:54:13.689193+00:00
  0
ENDSEC
  0
EOF
