0
SECTION
2
HEADER
9
$EXTMIN
10
 0
20
 100
30
0.0
9
$EXTMAX
10
 0
20
 100
30
0.0
9
$LIMMIN
10
 100
20
 0
9
$LIMMAX
10
 0
20
 100
9
$PSLTSCALE
70
1
0
ENDSEC
0
SECTION
2
TABLES
0
TABLE
2
LAYER
70
2
0
LAYER
2
0
70
0
62
7
6
CONTINUOUS
0
LAYER
2
Halfen
70
0
62
7
6
CONTINUOUS
0
ENDTAB
0
ENDSEC
0
SECTION
2
ENTITIES
0
POLYLINE
8
Halfen
62
7
66
1
10
0.0
20
0.0
30
0.0
70
1
0
VERTEX
8
Halfen
62
7
10
 0
20
-73.5
30
0
0
VERTEX
8
Halfen
62
7
10
 1000
20
-73.5
30
0
0
VERTEX
8
Halfen
62
7
10
 1000
20
 73.5
30
0
0
VERTEX
8
Halfen
62
7
10
 0
20
 73.5
30
0
0
SEQEND
8
Halfen
0
POLYLINE
8
Halfen
62
7
66
1
10
0.0
20
0.0
30
0.0
70
1
0
VERTEX
8
Halfen
62
7
10
 0
20
-60
30
0
0
VERTEX
8
Halfen
62
7
10
 1000
20
-60
30
0
0
VERTEX
8
Halfen
62
7
10
 1000
20
 60
30
0
0
VERTEX
8
Halfen
62
7
10
 0
20
 60
30
0
0
SEQEND
8
Halfen
0
POLYLINE
8
Halfen
62
7
66
1
10
0.0
20
0.0
30
0.0
70
1
0
VERTEX
8
Halfen
62
7
10
 20
20
-32.5
30
0
0
VERTEX
8
Halfen
62
7
10
 37
20
-1.5
30
0
0
VERTEX
8
Halfen
62
7
10
 28
20
-1.5
30
0
0
VERTEX
8
Halfen
62
7
10
 28
20
 32.5
30
0
0
VERTEX
8
Halfen
62
7
10
 12
20
 32.5
30
0
0
VERTEX
8
Halfen
62
7
10
 12
20
-1.5
30
0
0
VERTEX
8
Halfen
62
7
10
 3
20
-1.5
30
0
0
SEQEND
8
Halfen
0
POLYLINE
8
Halfen
62
7
66
1
10
0.0
20
0.0
30
0.0
70
1
0
VERTEX
8
Halfen
62
7
10
 980
20
-32.5
30
0
0
VERTEX
8
Halfen
62
7
10
 997
20
-1.5
30
0
0
VERTEX
8
Halfen
62
7
10
 988
20
-1.5
30
0
0
VERTEX
8
Halfen
62
7
10
 988
20
 32.5
30
0
0
VERTEX
8
Halfen
62
7
10
 972
20
 32.5
30
0
0
VERTEX
8
Halfen
62
7
10
 972
20
-1.5
30
0
0
VERTEX
8
Halfen
62
7
10
 963
20
-1.5
30
0
0
SEQEND
8
Halfen
0
POLYLINE
8
Halfen
62
7
66
1
10
0.0
20
0.0
30
0.0
70
1
0
VERTEX
8
Halfen
62
7
10
 88
20
-576.569
30
0
0
VERTEX
8
Halfen
62
7
10
 88
20
 635.197
30
0
0
VERTEX
8
Halfen
62
7
10
 80
20
 635.197
30
0
0
VERTEX
8
Halfen
62
7
10
 80
20
-576.569
30
0
0
SEQEND
8
Halfen
0
POLYLINE
8
Halfen
62
7
66
1
10
0.0
20
0.0
30
0.0
70
1
0
VERTEX
8
Halfen
62
7
10
 174
20
-576.569
30
0
0
VERTEX
8
Halfen
62
7
10
 174
20
 635.197
30
0
0
VERTEX
8
Halfen
62
7
10
 166
20
 635.197
30
0
0
VERTEX
8
Halfen
62
7
10
 166
20
-576.569
30
0
0
SEQEND
8
Halfen
0
POLYLINE
8
Halfen
62
7
66
1
10
0.0
20
0.0
30
0.0
70
1
0
VERTEX
8
Halfen
62
7
10
 260
20
-576.569
30
0
0
VERTEX
8
Halfen
62
7
10
 260
20
 635.197
30
0
0
VERTEX
8
Halfen
62
7
10
 252
20
 635.197
30
0
0
VERTEX
8
Halfen
62
7
10
 252
20
-576.569
30
0
0
SEQEND
8
Halfen
0
POLYLINE
8
Halfen
62
7
66
1
10
0.0
20
0.0
30
0.0
70
1
0
VERTEX
8
Halfen
62
7
10
 346
20
-576.569
30
0
0
VERTEX
8
Halfen
62
7
10
 346
20
 635.197
30
0
0
VERTEX
8
Halfen
62
7
10
 338
20
 635.197
30
0
0
VERTEX
8
Halfen
62
7
10
 338
20
-576.569
30
0
0
SEQEND
8
Halfen
0
POLYLINE
8
Halfen
62
7
66
1
10
0.0
20
0.0
30
0.0
70
1
0
VERTEX
8
Halfen
62
7
10
 432
20
-576.569
30
0
0
VERTEX
8
Halfen
62
7
10
 432
20
 635.197
30
0
0
VERTEX
8
Halfen
62
7
10
 424
20
 635.197
30
0
0
VERTEX
8
Halfen
62
7
10
 424
20
-576.569
30
0
0
SEQEND
8
Halfen
0
POLYLINE
8
Halfen
62
7
66
1
10
0.0
20
0.0
30
0.0
70
1
0
VERTEX
8
Halfen
62
7
10
 510
20
-576.569
30
0
0
VERTEX
8
Halfen
62
7
10
 510
20
 635.197
30
0
0
VERTEX
8
Halfen
62
7
10
 502
20
 635.197
30
0
0
VERTEX
8
Halfen
62
7
10
 502
20
-576.569
30
0
0
SEQEND
8
Halfen
0
POLYLINE
8
Halfen
62
7
66
1
10
0.0
20
0.0
30
0.0
70
1
0
VERTEX
8
Halfen
62
7
10
 588
20
-576.569
30
0
0
VERTEX
8
Halfen
62
7
10
 588
20
 635.197
30
0
0
VERTEX
8
Halfen
62
7
10
 580
20
 635.197
30
0
0
VERTEX
8
Halfen
62
7
10
 580
20
-576.569
30
0
0
SEQEND
8
Halfen
0
POLYLINE
8
Halfen
62
7
66
1
10
0.0
20
0.0
30
0.0
70
1
0
VERTEX
8
Halfen
62
7
10
 674
20
-576.569
30
0
0
VERTEX
8
Halfen
62
7
10
 674
20
 635.197
30
0
0
VERTEX
8
Halfen
62
7
10
 666
20
 635.197
30
0
0
VERTEX
8
Halfen
62
7
10
 666
20
-576.569
30
0
0
SEQEND
8
Halfen
0
POLYLINE
8
Halfen
62
7
66
1
10
0.0
20
0.0
30
0.0
70
1
0
VERTEX
8
Halfen
62
7
10
 760
20
-576.569
30
0
0
VERTEX
8
Halfen
62
7
10
 760
20
 635.197
30
0
0
VERTEX
8
Halfen
62
7
10
 752
20
 635.197
30
0
0
VERTEX
8
Halfen
62
7
10
 752
20
-576.569
30
0
0
SEQEND
8
Halfen
0
POLYLINE
8
Halfen
62
7
66
1
10
0.0
20
0.0
30
0.0
70
1
0
VERTEX
8
Halfen
62
7
10
 846
20
-576.569
30
0
0
VERTEX
8
Halfen
62
7
10
 846
20
 635.197
30
0
0
VERTEX
8
Halfen
62
7
10
 838
20
 635.197
30
0
0
VERTEX
8
Halfen
62
7
10
 838
20
-576.569
30
0
0
SEQEND
8
Halfen
0
POLYLINE
8
Halfen
62
7
66
1
10
0.0
20
0.0
30
0.0
70
1
0
VERTEX
8
Halfen
62
7
10
 932
20
-576.569
30
0
0
VERTEX
8
Halfen
62
7
10
 932
20
 635.197
30
0
0
VERTEX
8
Halfen
62
7
10
 924
20
 635.197
30
0
0
VERTEX
8
Halfen
62
7
10
 924
20
-576.569
30
0
0
SEQEND
8
Halfen
0
POLYLINE
8
Halfen
62
7
66
1
10
0.0
20
0.0
30
0.0
70
1
0
VERTEX
8
Halfen
62
7
10
 1540
20
-60
30
0
0
VERTEX
8
Halfen
62
7
10
 1540
20
 60
30
0
0
VERTEX
8
Halfen
62
7
10
 1526.5
20
 73.5
30
0
0
VERTEX
8
Halfen
62
7
10
 1526.5
20
 60
30
0
0
VERTEX
8
Halfen
62
7
10
 1250
20
 60
30
0
0
VERTEX
8
Halfen
62
7
10
 1250
20
-60
30
0
0
VERTEX
8
Halfen
62
7
10
 1526.5
20
-60
30
0
0
VERTEX
8
Halfen
62
7
10
 1526.5
20
-73.5
30
0
0
SEQEND
8
Halfen
0
POLYLINE
8
Halfen
62
7
66
1
10
0.0
20
0.0
30
0.0
70
1
0
VERTEX
8
Halfen
62
7
10
 1250
20
-60
30
0
0
VERTEX
8
Halfen
62
7
10
 1250
20
 60
30
0
0
VERTEX
8
Halfen
62
7
10
 1213.5
20
 60
30
0
0
VERTEX
8
Halfen
62
7
10
 1213.5
20
 73.5
30
0
0
VERTEX
8
Halfen
62
7
10
 1200
20
 60
30
0
0
VERTEX
8
Halfen
62
7
10
 1200
20
-60
30
0
0
VERTEX
8
Halfen
62
7
10
 1213.5
20
-73.5
30
0
0
VERTEX
8
Halfen
62
7
10
 1213.5
20
-60
30
0
0
SEQEND
8
Halfen
0
POLYLINE
8
Halfen
62
7
66
1
10
0.0
20
0.0
30
0.0
70
1
0
VERTEX
8
Halfen
62
7
10
 1537.5
20
-58.75
30
0
0
VERTEX
8
Halfen
62
7
10
 1537.5
20
 58.75
30
0
0
VERTEX
8
Halfen
62
7
10
 1529
20
 67.25
30
0
0
VERTEX
8
Halfen
62
7
10
 1529
20
 58
30
0
0
VERTEX
8
Halfen
62
7
10
 1252
20
 58
30
0
0
VERTEX
8
Halfen
62
7
10
 1252
20
-58
30
0
0
VERTEX
8
Halfen
62
7
10
 1529
20
-58
30
0
0
VERTEX
8
Halfen
62
7
10
 1529
20
-67.25
30
0
0
SEQEND
8
Halfen
0
POLYLINE
8
Halfen
62
7
66
1
10
0.0
20
0.0
30
0.0
70
1
0
VERTEX
8
Halfen
62
7
10
 1248
20
-58
30
0
0
VERTEX
8
Halfen
62
7
10
 1248
20
 58
30
0
0
VERTEX
8
Halfen
62
7
10
 1211
20
 58
30
0
0
VERTEX
8
Halfen
62
7
10
 1211
20
 67.25
30
0
0
VERTEX
8
Halfen
62
7
10
 1202.5
20
 58.75
30
0
0
VERTEX
8
Halfen
62
7
10
 1202.5
20
-58.75
30
0
0
VERTEX
8
Halfen
62
7
10
 1211
20
-67.25
30
0
0
VERTEX
8
Halfen
62
7
10
 1211
20
-58
30
0
0
SEQEND
8
Halfen
0
POLYLINE
8
Halfen
62
7
66
1
10
0.0
20
0.0
30
0.0
70
1
0
VERTEX
8
Halfen
62
7
10
 1510
20
-576.569
30
0
0
VERTEX
8
Halfen
62
7
10
 1510
20
-88.284
30
0
0
VERTEX
8
Halfen
62
7
10
 1509.606
20
-83.278
30
0
0
VERTEX
8
Halfen
62
7
10
 1508.434
20
-78.396
30
0
0
VERTEX
8
Halfen
62
7
10
 1506.512
20
-73.757
30
0
0
VERTEX
8
Halfen
62
7
10
 1503.889
20
-69.475
30
0
0
VERTEX
8
Halfen
62
7
10
 1500.627
20
-65.657
30
0
0
VERTEX
8
Halfen
62
7
10
 1305.029
20
 129.941
30
0
0
VERTEX
8
Halfen
62
7
10
 1302.584
20
 132.805
30
0
0
VERTEX
8
Halfen
62
7
10
 1300.616
20
 136.016
30
0
0
VERTEX
8
Halfen
62
7
10
 1299.175
20
 139.495
30
0
0
VERTEX
8
Halfen
62
7
10
 1298.295
20
 143.157
30
0
0
VERTEX
8
Halfen
62
7
10
 1298
20
 146.912
30
0
0
VERTEX
8
Halfen
62
7
10
 1298
20
 635.197
30
0
0
VERTEX
8
Halfen
62
7
10
 1290
20
 635.197
30
0
0
VERTEX
8
Halfen
62
7
10
 1290
20
 146.912
30
0
0
VERTEX
8
Halfen
62
7
10
 1290.394
20
 141.906
30
0
0
VERTEX
8
Halfen
62
7
10
 1291.566
20
 137.023
30
0
0
VERTEX
8
Halfen
62
7
10
 1293.488
20
 132.384
30
0
0
VERTEX
8
Halfen
62
7
10
 1296.111
20
 128.103
30
0
0
VERTEX
8
Halfen
62
7
10
 1299.373
20
 124.284
30
0
0
VERTEX
8
Halfen
62
7
10
 1494.971
20
-71.314
30
0
0
VERTEX
8
Halfen
62
7
10
 1497.416
20
-74.177
30
0
0
VERTEX
8
Halfen
62
7
10
 1499.384
20
-77.388
30
0
0
VERTEX
8
Halfen
62
7
10
 1500.825
20
-80.868
30
0
0
VERTEX
8
Halfen
62
7
10
 1501.705
20
-84.53
30
0
0
VERTEX
8
Halfen
62
7
10
 1502
20
-88.284
30
0
0
VERTEX
8
Halfen
62
7
10
 1502
20
-576.569
30
0
0
SEQEND
8
Halfen
0
ENDSEC
0
EOF
