0
SECTION
2
HEADER
9
$EXTMIN
10
 0
20
 100
30
0.0
9
$EXTMAX
10
 0
20
 100
30
0.0
9
$LIMMIN
10
 100
20
 0
9
$LIMMAX
10
 0
20
 100
9
$PSLTSCALE
70
1
0
ENDSEC
0
SECTION
2
TABLES
0
TABLE
2
LAYER
70
2
0
LAYER
2
0
70
0
62
7
6
CONTINUOUS
0
LAYER
2
Halfen
70
0
62
7
6
CONTINUOUS
0
ENDTAB
0
ENDSEC
0
SECTION
2
ENTITIES
0
POLYLINE
8
Halfen
62
7
66
1
10
0.0
20
0.0
30
0.0
70
1
0
VERTEX
8
Halfen
62
7
10
 0
20
-73.5
30
0
0
VERTEX
8
Halfen
62
7
10
 1000
20
-73.5
30
0
0
VERTEX
8
Halfen
62
7
10
 1000
20
 73.5
30
0
0
VERTEX
8
Halfen
62
7
10
 0
20
 73.5
30
0
0
SEQEND
8
Halfen
0
POLYLINE
8
Halfen
62
7
66
1
10
0.0
20
0.0
30
0.0
70
1
0
VERTEX
8
Halfen
62
7
10
 0
20
-60
30
0
0
VERTEX
8
Halfen
62
7
10
 1000
20
-60
30
0
0
VERTEX
8
Halfen
62
7
10
 1000
20
 60
30
0
0
VERTEX
8
Halfen
62
7
10
 0
20
 60
30
0
0
SEQEND
8
Halfen
0
POLYLINE
8
Halfen
62
7
66
1
10
0.0
20
0.0
30
0.0
70
1
0
VERTEX
8
Halfen
62
7
10
 20
20
-32.5
30
0
0
VERTEX
8
Halfen
62
7
10
 37
20
-1.5
30
0
0
VERTEX
8
Halfen
62
7
10
 28
20
-1.5
30
0
0
VERTEX
8
Halfen
62
7
10
 28
20
 32.5
30
0
0
VERTEX
8
Halfen
62
7
10
 12
20
 32.5
30
0
0
VERTEX
8
Halfen
62
7
10
 12
20
-1.5
30
0
0
VERTEX
8
Halfen
62
7
10
 3
20
-1.5
30
0
0
SEQEND
8
Halfen
0
POLYLINE
8
Halfen
62
7
66
1
10
0.0
20
0.0
30
0.0
70
1
0
VERTEX
8
Halfen
62
7
10
 980
20
-32.5
30
0
0
VERTEX
8
Halfen
62
7
10
 997
20
-1.5
30
0
0
VERTEX
8
Halfen
62
7
10
 988
20
-1.5
30
0
0
VERTEX
8
Halfen
62
7
10
 988
20
 32.5
30
0
0
VERTEX
8
Halfen
62
7
10
 972
20
 32.5
30
0
0
VERTEX
8
Halfen
62
7
10
 972
20
-1.5
30
0
0
VERTEX
8
Halfen
62
7
10
 963
20
-1.5
30
0
0
SEQEND
8
Halfen
0
POLYLINE
8
Halfen
62
7
66
1
10
0.0
20
0.0
30
0.0
70
1
0
VERTEX
8
Halfen
62
7
10
 68
20
-775
30
0
0
VERTEX
8
Halfen
62
7
10
 68
20
-160
30
0
0
VERTEX
8
Halfen
62
7
10
 56
20
-160
30
0
0
VERTEX
8
Halfen
62
7
10
 56
20
-775
30
0
0
SEQEND
8
Halfen
0
POLYLINE
8
Halfen
62
7
66
1
10
0.0
20
0.0
30
0.0
70
1
0
VERTEX
8
Halfen
62
7
10
 67.25
20
-160
30
0
0
VERTEX
8
Halfen
62
7
10
 67.25
20
-62
30
0
0
VERTEX
8
Halfen
62
7
10
 56.75
20
-62
30
0
0
VERTEX
8
Halfen
62
7
10
 56.75
20
-160
30
0
0
SEQEND
8
Halfen
0
POLYLINE
8
Halfen
62
7
66
1
10
0.0
20
0.0
30
0.0
70
1
0
VERTEX
8
Halfen
62
7
10
 68
20
-62
30
0
0
VERTEX
8
Halfen
62
7
10
 68
20
-60
30
0
0
VERTEX
8
Halfen
62
7
10
 56
20
-60
30
0
0
VERTEX
8
Halfen
62
7
10
 56
20
-62
30
0
0
SEQEND
8
Halfen
0
POLYLINE
8
Halfen
62
7
66
1
10
0.0
20
0.0
30
0.0
70
1
0
VERTEX
8
Halfen
62
7
10
 67.25
20
-60
30
0
0
VERTEX
8
Halfen
62
7
10
 67.25
20
 60
30
0
0
VERTEX
8
Halfen
62
7
10
 56.75
20
 60
30
0
0
VERTEX
8
Halfen
62
7
10
 56.75
20
-60
30
0
0
SEQEND
8
Halfen
0
POLYLINE
8
Halfen
62
7
66
1
10
0.0
20
0.0
30
0.0
70
1
0
VERTEX
8
Halfen
62
7
10
 68
20
 60
30
0
0
VERTEX
8
Halfen
62
7
10
 68
20
 62
30
0
0
VERTEX
8
Halfen
62
7
10
 56
20
 62
30
0
0
VERTEX
8
Halfen
62
7
10
 56
20
 60
30
0
0
SEQEND
8
Halfen
0
POLYLINE
8
Halfen
62
7
66
1
10
0.0
20
0.0
30
0.0
70
1
0
VERTEX
8
Halfen
62
7
10
 67.25
20
 62
30
0
0
VERTEX
8
Halfen
62
7
10
 67.25
20
 160
30
0
0
VERTEX
8
Halfen
62
7
10
 56.75
20
 160
30
0
0
VERTEX
8
Halfen
62
7
10
 56.75
20
 62
30
0
0
SEQEND
8
Halfen
0
POLYLINE
8
Halfen
62
7
66
1
10
0.0
20
0.0
30
0.0
70
1
0
VERTEX
8
Halfen
62
7
10
 68
20
 160
30
0
0
VERTEX
8
Halfen
62
7
10
 68
20
 775
30
0
0
VERTEX
8
Halfen
62
7
10
 56
20
 775
30
0
0
VERTEX
8
Halfen
62
7
10
 56
20
 160
30
0
0
SEQEND
8
Halfen
0
POLYLINE
8
Halfen
62
7
66
1
10
0.0
20
0.0
30
0.0
70
1
0
VERTEX
8
Halfen
62
7
10
 152
20
-775
30
0
0
VERTEX
8
Halfen
62
7
10
 152
20
-160
30
0
0
VERTEX
8
Halfen
62
7
10
 140
20
-160
30
0
0
VERTEX
8
Halfen
62
7
10
 140
20
-775
30
0
0
SEQEND
8
Halfen
0
POLYLINE
8
Halfen
62
7
66
1
10
0.0
20
0.0
30
0.0
70
1
0
VERTEX
8
Halfen
62
7
10
 151.25
20
-160
30
0
0
VERTEX
8
Halfen
62
7
10
 151.25
20
-62
30
0
0
VERTEX
8
Halfen
62
7
10
 140.75
20
-62
30
0
0
VERTEX
8
Halfen
62
7
10
 140.75
20
-160
30
0
0
SEQEND
8
Halfen
0
POLYLINE
8
Halfen
62
7
66
1
10
0.0
20
0.0
30
0.0
70
1
0
VERTEX
8
Halfen
62
7
10
 152
20
-62
30
0
0
VERTEX
8
Halfen
62
7
10
 152
20
-60
30
0
0
VERTEX
8
Halfen
62
7
10
 140
20
-60
30
0
0
VERTEX
8
Halfen
62
7
10
 140
20
-62
30
0
0
SEQEND
8
Halfen
0
POLYLINE
8
Halfen
62
7
66
1
10
0.0
20
0.0
30
0.0
70
1
0
VERTEX
8
Halfen
62
7
10
 151.25
20
-60
30
0
0
VERTEX
8
Halfen
62
7
10
 151.25
20
 60
30
0
0
VERTEX
8
Halfen
62
7
10
 140.75
20
 60
30
0
0
VERTEX
8
Halfen
62
7
10
 140.75
20
-60
30
0
0
SEQEND
8
Halfen
0
POLYLINE
8
Halfen
62
7
66
1
10
0.0
20
0.0
30
0.0
70
1
0
VERTEX
8
Halfen
62
7
10
 152
20
 60
30
0
0
VERTEX
8
Halfen
62
7
10
 152
20
 62
30
0
0
VERTEX
8
Halfen
62
7
10
 140
20
 62
30
0
0
VERTEX
8
Halfen
62
7
10
 140
20
 60
30
0
0
SEQEND
8
Halfen
0
POLYLINE
8
Halfen
62
7
66
1
10
0.0
20
0.0
30
0.0
70
1
0
VERTEX
8
Halfen
62
7
10
 151.25
20
 62
30
0
0
VERTEX
8
Halfen
62
7
10
 151.25
20
 160
30
0
0
VERTEX
8
Halfen
62
7
10
 140.75
20
 160
30
0
0
VERTEX
8
Halfen
62
7
10
 140.75
20
 62
30
0
0
SEQEND
8
Halfen
0
POLYLINE
8
Halfen
62
7
66
1
10
0.0
20
0.0
30
0.0
70
1
0
VERTEX
8
Halfen
62
7
10
 152
20
 160
30
0
0
VERTEX
8
Halfen
62
7
10
 152
20
 775
30
0
0
VERTEX
8
Halfen
62
7
10
 140
20
 775
30
0
0
VERTEX
8
Halfen
62
7
10
 140
20
 160
30
0
0
SEQEND
8
Halfen
0
POLYLINE
8
Halfen
62
7
66
1
10
0.0
20
0.0
30
0.0
70
1
0
VERTEX
8
Halfen
62
7
10
 200
20
-775
30
0
0
VERTEX
8
Halfen
62
7
10
 200
20
-160
30
0
0
VERTEX
8
Halfen
62
7
10
 188
20
-160
30
0
0
VERTEX
8
Halfen
62
7
10
 188
20
-775
30
0
0
SEQEND
8
Halfen
0
POLYLINE
8
Halfen
62
7
66
1
10
0.0
20
0.0
30
0.0
70
1
0
VERTEX
8
Halfen
62
7
10
 199.25
20
-160
30
0
0
VERTEX
8
Halfen
62
7
10
 199.25
20
-62
30
0
0
VERTEX
8
Halfen
62
7
10
 188.75
20
-62
30
0
0
VERTEX
8
Halfen
62
7
10
 188.75
20
-160
30
0
0
SEQEND
8
Halfen
0
POLYLINE
8
Halfen
62
7
66
1
10
0.0
20
0.0
30
0.0
70
1
0
VERTEX
8
Halfen
62
7
10
 200
20
-62
30
0
0
VERTEX
8
Halfen
62
7
10
 200
20
-60
30
0
0
VERTEX
8
Halfen
62
7
10
 188
20
-60
30
0
0
VERTEX
8
Halfen
62
7
10
 188
20
-62
30
0
0
SEQEND
8
Halfen
0
POLYLINE
8
Halfen
62
7
66
1
10
0.0
20
0.0
30
0.0
70
1
0
VERTEX
8
Halfen
62
7
10
 199.25
20
-60
30
0
0
VERTEX
8
Halfen
62
7
10
 199.25
20
 60
30
0
0
VERTEX
8
Halfen
62
7
10
 188.75
20
 60
30
0
0
VERTEX
8
Halfen
62
7
10
 188.75
20
-60
30
0
0
SEQEND
8
Halfen
0
POLYLINE
8
Halfen
62
7
66
1
10
0.0
20
0.0
30
0.0
70
1
0
VERTEX
8
Halfen
62
7
10
 200
20
 60
30
0
0
VERTEX
8
Halfen
62
7
10
 200
20
 62
30
0
0
VERTEX
8
Halfen
62
7
10
 188
20
 62
30
0
0
VERTEX
8
Halfen
62
7
10
 188
20
 60
30
0
0
SEQEND
8
Halfen
0
POLYLINE
8
Halfen
62
7
66
1
10
0.0
20
0.0
30
0.0
70
1
0
VERTEX
8
Halfen
62
7
10
 199.25
20
 62
30
0
0
VERTEX
8
Halfen
62
7
10
 199.25
20
 160
30
0
0
VERTEX
8
Halfen
62
7
10
 188.75
20
 160
30
0
0
VERTEX
8
Halfen
62
7
10
 188.75
20
 62
30
0
0
SEQEND
8
Halfen
0
POLYLINE
8
Halfen
62
7
66
1
10
0.0
20
0.0
30
0.0
70
1
0
VERTEX
8
Halfen
62
7
10
 200
20
 160
30
0
0
VERTEX
8
Halfen
62
7
10
 200
20
 775
30
0
0
VERTEX
8
Halfen
62
7
10
 188
20
 775
30
0
0
VERTEX
8
Halfen
62
7
10
 188
20
 160
30
0
0
SEQEND
8
Halfen
0
POLYLINE
8
Halfen
62
7
66
1
10
0.0
20
0.0
30
0.0
70
1
0
VERTEX
8
Halfen
62
7
10
 284
20
-775
30
0
0
VERTEX
8
Halfen
62
7
10
 284
20
-160
30
0
0
VERTEX
8
Halfen
62
7
10
 272
20
-160
30
0
0
VERTEX
8
Halfen
62
7
10
 272
20
-775
30
0
0
SEQEND
8
Halfen
0
POLYLINE
8
Halfen
62
7
66
1
10
0.0
20
0.0
30
0.0
70
1
0
VERTEX
8
Halfen
62
7
10
 283.25
20
-160
30
0
0
VERTEX
8
Halfen
62
7
10
 283.25
20
-62
30
0
0
VERTEX
8
Halfen
62
7
10
 272.75
20
-62
30
0
0
VERTEX
8
Halfen
62
7
10
 272.75
20
-160
30
0
0
SEQEND
8
Halfen
0
POLYLINE
8
Halfen
62
7
66
1
10
0.0
20
0.0
30
0.0
70
1
0
VERTEX
8
Halfen
62
7
10
 284
20
-62
30
0
0
VERTEX
8
Halfen
62
7
10
 284
20
-60
30
0
0
VERTEX
8
Halfen
62
7
10
 272
20
-60
30
0
0
VERTEX
8
Halfen
62
7
10
 272
20
-62
30
0
0
SEQEND
8
Halfen
0
POLYLINE
8
Halfen
62
7
66
1
10
0.0
20
0.0
30
0.0
70
1
0
VERTEX
8
Halfen
62
7
10
 283.25
20
-60
30
0
0
VERTEX
8
Halfen
62
7
10
 283.25
20
 60
30
0
0
VERTEX
8
Halfen
62
7
10
 272.75
20
 60
30
0
0
VERTEX
8
Halfen
62
7
10
 272.75
20
-60
30
0
0
SEQEND
8
Halfen
0
POLYLINE
8
Halfen
62
7
66
1
10
0.0
20
0.0
30
0.0
70
1
0
VERTEX
8
Halfen
62
7
10
 284
20
 60
30
0
0
VERTEX
8
Halfen
62
7
10
 284
20
 62
30
0
0
VERTEX
8
Halfen
62
7
10
 272
20
 62
30
0
0
VERTEX
8
Halfen
62
7
10
 272
20
 60
30
0
0
SEQEND
8
Halfen
0
POLYLINE
8
Halfen
62
7
66
1
10
0.0
20
0.0
30
0.0
70
1
0
VERTEX
8
Halfen
62
7
10
 283.25
20
 62
30
0
0
VERTEX
8
Halfen
62
7
10
 283.25
20
 160
30
0
0
VERTEX
8
Halfen
62
7
10
 272.75
20
 160
30
0
0
VERTEX
8
Halfen
62
7
10
 272.75
20
 62
30
0
0
SEQEND
8
Halfen
0
POLYLINE
8
Halfen
62
7
66
1
10
0.0
20
0.0
30
0.0
70
1
0
VERTEX
8
Halfen
62
7
10
 284
20
 160
30
0
0
VERTEX
8
Halfen
62
7
10
 284
20
 775
30
0
0
VERTEX
8
Halfen
62
7
10
 272
20
 775
30
0
0
VERTEX
8
Halfen
62
7
10
 272
20
 160
30
0
0
SEQEND
8
Halfen
0
POLYLINE
8
Halfen
62
7
66
1
10
0.0
20
0.0
30
0.0
70
1
0
VERTEX
8
Halfen
62
7
10
 332
20
-775
30
0
0
VERTEX
8
Halfen
62
7
10
 332
20
-160
30
0
0
VERTEX
8
Halfen
62
7
10
 320
20
-160
30
0
0
VERTEX
8
Halfen
62
7
10
 320
20
-775
30
0
0
SEQEND
8
Halfen
0
POLYLINE
8
Halfen
62
7
66
1
10
0.0
20
0.0
30
0.0
70
1
0
VERTEX
8
Halfen
62
7
10
 331.25
20
-160
30
0
0
VERTEX
8
Halfen
62
7
10
 331.25
20
-62
30
0
0
VERTEX
8
Halfen
62
7
10
 320.75
20
-62
30
0
0
VERTEX
8
Halfen
62
7
10
 320.75
20
-160
30
0
0
SEQEND
8
Halfen
0
POLYLINE
8
Halfen
62
7
66
1
10
0.0
20
0.0
30
0.0
70
1
0
VERTEX
8
Halfen
62
7
10
 332
20
-62
30
0
0
VERTEX
8
Halfen
62
7
10
 332
20
-60
30
0
0
VERTEX
8
Halfen
62
7
10
 320
20
-60
30
0
0
VERTEX
8
Halfen
62
7
10
 320
20
-62
30
0
0
SEQEND
8
Halfen
0
POLYLINE
8
Halfen
62
7
66
1
10
0.0
20
0.0
30
0.0
70
1
0
VERTEX
8
Halfen
62
7
10
 331.25
20
-60
30
0
0
VERTEX
8
Halfen
62
7
10
 331.25
20
 60
30
0
0
VERTEX
8
Halfen
62
7
10
 320.75
20
 60
30
0
0
VERTEX
8
Halfen
62
7
10
 320.75
20
-60
30
0
0
SEQEND
8
Halfen
0
POLYLINE
8
Halfen
62
7
66
1
10
0.0
20
0.0
30
0.0
70
1
0
VERTEX
8
Halfen
62
7
10
 332
20
 60
30
0
0
VERTEX
8
Halfen
62
7
10
 332
20
 62
30
0
0
VERTEX
8
Halfen
62
7
10
 320
20
 62
30
0
0
VERTEX
8
Halfen
62
7
10
 320
20
 60
30
0
0
SEQEND
8
Halfen
0
POLYLINE
8
Halfen
62
7
66
1
10
0.0
20
0.0
30
0.0
70
1
0
VERTEX
8
Halfen
62
7
10
 331.25
20
 62
30
0
0
VERTEX
8
Halfen
62
7
10
 331.25
20
 160
30
0
0
VERTEX
8
Halfen
62
7
10
 320.75
20
 160
30
0
0
VERTEX
8
Halfen
62
7
10
 320.75
20
 62
30
0
0
SEQEND
8
Halfen
0
POLYLINE
8
Halfen
62
7
66
1
10
0.0
20
0.0
30
0.0
70
1
0
VERTEX
8
Halfen
62
7
10
 332
20
 160
30
0
0
VERTEX
8
Halfen
62
7
10
 332
20
 775
30
0
0
VERTEX
8
Halfen
62
7
10
 320
20
 775
30
0
0
VERTEX
8
Halfen
62
7
10
 320
20
 160
30
0
0
SEQEND
8
Halfen
0
POLYLINE
8
Halfen
62
7
66
1
10
0.0
20
0.0
30
0.0
70
1
0
VERTEX
8
Halfen
62
7
10
 416
20
-775
30
0
0
VERTEX
8
Halfen
62
7
10
 416
20
-160
30
0
0
VERTEX
8
Halfen
62
7
10
 404
20
-160
30
0
0
VERTEX
8
Halfen
62
7
10
 404
20
-775
30
0
0
SEQEND
8
Halfen
0
POLYLINE
8
Halfen
62
7
66
1
10
0.0
20
0.0
30
0.0
70
1
0
VERTEX
8
Halfen
62
7
10
 415.25
20
-160
30
0
0
VERTEX
8
Halfen
62
7
10
 415.25
20
-62
30
0
0
VERTEX
8
Halfen
62
7
10
 404.75
20
-62
30
0
0
VERTEX
8
Halfen
62
7
10
 404.75
20
-160
30
0
0
SEQEND
8
Halfen
0
POLYLINE
8
Halfen
62
7
66
1
10
0.0
20
0.0
30
0.0
70
1
0
VERTEX
8
Halfen
62
7
10
 416
20
-62
30
0
0
VERTEX
8
Halfen
62
7
10
 416
20
-60
30
0
0
VERTEX
8
Halfen
62
7
10
 404
20
-60
30
0
0
VERTEX
8
Halfen
62
7
10
 404
20
-62
30
0
0
SEQEND
8
Halfen
0
POLYLINE
8
Halfen
62
7
66
1
10
0.0
20
0.0
30
0.0
70
1
0
VERTEX
8
Halfen
62
7
10
 415.25
20
-60
30
0
0
VERTEX
8
Halfen
62
7
10
 415.25
20
 60
30
0
0
VERTEX
8
Halfen
62
7
10
 404.75
20
 60
30
0
0
VERTEX
8
Halfen
62
7
10
 404.75
20
-60
30
0
0
SEQEND
8
Halfen
0
POLYLINE
8
Halfen
62
7
66
1
10
0.0
20
0.0
30
0.0
70
1
0
VERTEX
8
Halfen
62
7
10
 416
20
 60
30
0
0
VERTEX
8
Halfen
62
7
10
 416
20
 62
30
0
0
VERTEX
8
Halfen
62
7
10
 404
20
 62
30
0
0
VERTEX
8
Halfen
62
7
10
 404
20
 60
30
0
0
SEQEND
8
Halfen
0
POLYLINE
8
Halfen
62
7
66
1
10
0.0
20
0.0
30
0.0
70
1
0
VERTEX
8
Halfen
62
7
10
 415.25
20
 62
30
0
0
VERTEX
8
Halfen
62
7
10
 415.25
20
 160
30
0
0
VERTEX
8
Halfen
62
7
10
 404.75
20
 160
30
0
0
VERTEX
8
Halfen
62
7
10
 404.75
20
 62
30
0
0
SEQEND
8
Halfen
0
POLYLINE
8
Halfen
62
7
66
1
10
0.0
20
0.0
30
0.0
70
1
0
VERTEX
8
Halfen
62
7
10
 416
20
 160
30
0
0
VERTEX
8
Halfen
62
7
10
 416
20
 775
30
0
0
VERTEX
8
Halfen
62
7
10
 404
20
 775
30
0
0
VERTEX
8
Halfen
62
7
10
 404
20
 160
30
0
0
SEQEND
8
Halfen
0
POLYLINE
8
Halfen
62
7
66
1
10
0.0
20
0.0
30
0.0
70
1
0
VERTEX
8
Halfen
62
7
10
 464
20
-775
30
0
0
VERTEX
8
Halfen
62
7
10
 464
20
-160
30
0
0
VERTEX
8
Halfen
62
7
10
 452
20
-160
30
0
0
VERTEX
8
Halfen
62
7
10
 452
20
-775
30
0
0
SEQEND
8
Halfen
0
POLYLINE
8
Halfen
62
7
66
1
10
0.0
20
0.0
30
0.0
70
1
0
VERTEX
8
Halfen
62
7
10
 463.25
20
-160
30
0
0
VERTEX
8
Halfen
62
7
10
 463.25
20
-62
30
0
0
VERTEX
8
Halfen
62
7
10
 452.75
20
-62
30
0
0
VERTEX
8
Halfen
62
7
10
 452.75
20
-160
30
0
0
SEQEND
8
Halfen
0
POLYLINE
8
Halfen
62
7
66
1
10
0.0
20
0.0
30
0.0
70
1
0
VERTEX
8
Halfen
62
7
10
 464
20
-62
30
0
0
VERTEX
8
Halfen
62
7
10
 464
20
-60
30
0
0
VERTEX
8
Halfen
62
7
10
 452
20
-60
30
0
0
VERTEX
8
Halfen
62
7
10
 452
20
-62
30
0
0
SEQEND
8
Halfen
0
POLYLINE
8
Halfen
62
7
66
1
10
0.0
20
0.0
30
0.0
70
1
0
VERTEX
8
Halfen
62
7
10
 463.25
20
-60
30
0
0
VERTEX
8
Halfen
62
7
10
 463.25
20
 60
30
0
0
VERTEX
8
Halfen
62
7
10
 452.75
20
 60
30
0
0
VERTEX
8
Halfen
62
7
10
 452.75
20
-60
30
0
0
SEQEND
8
Halfen
0
POLYLINE
8
Halfen
62
7
66
1
10
0.0
20
0.0
30
0.0
70
1
0
VERTEX
8
Halfen
62
7
10
 464
20
 60
30
0
0
VERTEX
8
Halfen
62
7
10
 464
20
 62
30
0
0
VERTEX
8
Halfen
62
7
10
 452
20
 62
30
0
0
VERTEX
8
Halfen
62
7
10
 452
20
 60
30
0
0
SEQEND
8
Halfen
0
POLYLINE
8
Halfen
62
7
66
1
10
0.0
20
0.0
30
0.0
70
1
0
VERTEX
8
Halfen
62
7
10
 463.25
20
 62
30
0
0
VERTEX
8
Halfen
62
7
10
 463.25
20
 160
30
0
0
VERTEX
8
Halfen
62
7
10
 452.75
20
 160
30
0
0
VERTEX
8
Halfen
62
7
10
 452.75
20
 62
30
0
0
SEQEND
8
Halfen
0
POLYLINE
8
Halfen
62
7
66
1
10
0.0
20
0.0
30
0.0
70
1
0
VERTEX
8
Halfen
62
7
10
 464
20
 160
30
0
0
VERTEX
8
Halfen
62
7
10
 464
20
 775
30
0
0
VERTEX
8
Halfen
62
7
10
 452
20
 775
30
0
0
VERTEX
8
Halfen
62
7
10
 452
20
 160
30
0
0
SEQEND
8
Halfen
0
POLYLINE
8
Halfen
62
7
66
1
10
0.0
20
0.0
30
0.0
70
1
0
VERTEX
8
Halfen
62
7
10
 548
20
-775
30
0
0
VERTEX
8
Halfen
62
7
10
 548
20
-160
30
0
0
VERTEX
8
Halfen
62
7
10
 536
20
-160
30
0
0
VERTEX
8
Halfen
62
7
10
 536
20
-775
30
0
0
SEQEND
8
Halfen
0
POLYLINE
8
Halfen
62
7
66
1
10
0.0
20
0.0
30
0.0
70
1
0
VERTEX
8
Halfen
62
7
10
 547.25
20
-160
30
0
0
VERTEX
8
Halfen
62
7
10
 547.25
20
-62
30
0
0
VERTEX
8
Halfen
62
7
10
 536.75
20
-62
30
0
0
VERTEX
8
Halfen
62
7
10
 536.75
20
-160
30
0
0
SEQEND
8
Halfen
0
POLYLINE
8
Halfen
62
7
66
1
10
0.0
20
0.0
30
0.0
70
1
0
VERTEX
8
Halfen
62
7
10
 548
20
-62
30
0
0
VERTEX
8
Halfen
62
7
10
 548
20
-60
30
0
0
VERTEX
8
Halfen
62
7
10
 536
20
-60
30
0
0
VERTEX
8
Halfen
62
7
10
 536
20
-62
30
0
0
SEQEND
8
Halfen
0
POLYLINE
8
Halfen
62
7
66
1
10
0.0
20
0.0
30
0.0
70
1
0
VERTEX
8
Halfen
62
7
10
 547.25
20
-60
30
0
0
VERTEX
8
Halfen
62
7
10
 547.25
20
 60
30
0
0
VERTEX
8
Halfen
62
7
10
 536.75
20
 60
30
0
0
VERTEX
8
Halfen
62
7
10
 536.75
20
-60
30
0
0
SEQEND
8
Halfen
0
POLYLINE
8
Halfen
62
7
66
1
10
0.0
20
0.0
30
0.0
70
1
0
VERTEX
8
Halfen
62
7
10
 548
20
 60
30
0
0
VERTEX
8
Halfen
62
7
10
 548
20
 62
30
0
0
VERTEX
8
Halfen
62
7
10
 536
20
 62
30
0
0
VERTEX
8
Halfen
62
7
10
 536
20
 60
30
0
0
SEQEND
8
Halfen
0
POLYLINE
8
Halfen
62
7
66
1
10
0.0
20
0.0
30
0.0
70
1
0
VERTEX
8
Halfen
62
7
10
 547.25
20
 62
30
0
0
VERTEX
8
Halfen
62
7
10
 547.25
20
 160
30
0
0
VERTEX
8
Halfen
62
7
10
 536.75
20
 160
30
0
0
VERTEX
8
Halfen
62
7
10
 536.75
20
 62
30
0
0
SEQEND
8
Halfen
0
POLYLINE
8
Halfen
62
7
66
1
10
0.0
20
0.0
30
0.0
70
1
0
VERTEX
8
Halfen
62
7
10
 548
20
 160
30
0
0
VERTEX
8
Halfen
62
7
10
 548
20
 775
30
0
0
VERTEX
8
Halfen
62
7
10
 536
20
 775
30
0
0
VERTEX
8
Halfen
62
7
10
 536
20
 160
30
0
0
SEQEND
8
Halfen
0
POLYLINE
8
Halfen
62
7
66
1
10
0.0
20
0.0
30
0.0
70
1
0
VERTEX
8
Halfen
62
7
10
 596
20
-775
30
0
0
VERTEX
8
Halfen
62
7
10
 596
20
-160
30
0
0
VERTEX
8
Halfen
62
7
10
 584
20
-160
30
0
0
VERTEX
8
Halfen
62
7
10
 584
20
-775
30
0
0
SEQEND
8
Halfen
0
POLYLINE
8
Halfen
62
7
66
1
10
0.0
20
0.0
30
0.0
70
1
0
VERTEX
8
Halfen
62
7
10
 595.25
20
-160
30
0
0
VERTEX
8
Halfen
62
7
10
 595.25
20
-62
30
0
0
VERTEX
8
Halfen
62
7
10
 584.75
20
-62
30
0
0
VERTEX
8
Halfen
62
7
10
 584.75
20
-160
30
0
0
SEQEND
8
Halfen
0
POLYLINE
8
Halfen
62
7
66
1
10
0.0
20
0.0
30
0.0
70
1
0
VERTEX
8
Halfen
62
7
10
 596
20
-62
30
0
0
VERTEX
8
Halfen
62
7
10
 596
20
-60
30
0
0
VERTEX
8
Halfen
62
7
10
 584
20
-60
30
0
0
VERTEX
8
Halfen
62
7
10
 584
20
-62
30
0
0
SEQEND
8
Halfen
0
POLYLINE
8
Halfen
62
7
66
1
10
0.0
20
0.0
30
0.0
70
1
0
VERTEX
8
Halfen
62
7
10
 595.25
20
-60
30
0
0
VERTEX
8
Halfen
62
7
10
 595.25
20
 60
30
0
0
VERTEX
8
Halfen
62
7
10
 584.75
20
 60
30
0
0
VERTEX
8
Halfen
62
7
10
 584.75
20
-60
30
0
0
SEQEND
8
Halfen
0
POLYLINE
8
Halfen
62
7
66
1
10
0.0
20
0.0
30
0.0
70
1
0
VERTEX
8
Halfen
62
7
10
 596
20
 60
30
0
0
VERTEX
8
Halfen
62
7
10
 596
20
 62
30
0
0
VERTEX
8
Halfen
62
7
10
 584
20
 62
30
0
0
VERTEX
8
Halfen
62
7
10
 584
20
 60
30
0
0
SEQEND
8
Halfen
0
POLYLINE
8
Halfen
62
7
66
1
10
0.0
20
0.0
30
0.0
70
1
0
VERTEX
8
Halfen
62
7
10
 595.25
20
 62
30
0
0
VERTEX
8
Halfen
62
7
10
 595.25
20
 160
30
0
0
VERTEX
8
Halfen
62
7
10
 584.75
20
 160
30
0
0
VERTEX
8
Halfen
62
7
10
 584.75
20
 62
30
0
0
SEQEND
8
Halfen
0
POLYLINE
8
Halfen
62
7
66
1
10
0.0
20
0.0
30
0.0
70
1
0
VERTEX
8
Halfen
62
7
10
 596
20
 160
30
0
0
VERTEX
8
Halfen
62
7
10
 596
20
 775
30
0
0
VERTEX
8
Halfen
62
7
10
 584
20
 775
30
0
0
VERTEX
8
Halfen
62
7
10
 584
20
 160
30
0
0
SEQEND
8
Halfen
0
POLYLINE
8
Halfen
62
7
66
1
10
0.0
20
0.0
30
0.0
70
1
0
VERTEX
8
Halfen
62
7
10
 680
20
-775
30
0
0
VERTEX
8
Halfen
62
7
10
 680
20
-160
30
0
0
VERTEX
8
Halfen
62
7
10
 668
20
-160
30
0
0
VERTEX
8
Halfen
62
7
10
 668
20
-775
30
0
0
SEQEND
8
Halfen
0
POLYLINE
8
Halfen
62
7
66
1
10
0.0
20
0.0
30
0.0
70
1
0
VERTEX
8
Halfen
62
7
10
 679.25
20
-160
30
0
0
VERTEX
8
Halfen
62
7
10
 679.25
20
-62
30
0
0
VERTEX
8
Halfen
62
7
10
 668.75
20
-62
30
0
0
VERTEX
8
Halfen
62
7
10
 668.75
20
-160
30
0
0
SEQEND
8
Halfen
0
POLYLINE
8
Halfen
62
7
66
1
10
0.0
20
0.0
30
0.0
70
1
0
VERTEX
8
Halfen
62
7
10
 680
20
-62
30
0
0
VERTEX
8
Halfen
62
7
10
 680
20
-60
30
0
0
VERTEX
8
Halfen
62
7
10
 668
20
-60
30
0
0
VERTEX
8
Halfen
62
7
10
 668
20
-62
30
0
0
SEQEND
8
Halfen
0
POLYLINE
8
Halfen
62
7
66
1
10
0.0
20
0.0
30
0.0
70
1
0
VERTEX
8
Halfen
62
7
10
 679.25
20
-60
30
0
0
VERTEX
8
Halfen
62
7
10
 679.25
20
 60
30
0
0
VERTEX
8
Halfen
62
7
10
 668.75
20
 60
30
0
0
VERTEX
8
Halfen
62
7
10
 668.75
20
-60
30
0
0
SEQEND
8
Halfen
0
POLYLINE
8
Halfen
62
7
66
1
10
0.0
20
0.0
30
0.0
70
1
0
VERTEX
8
Halfen
62
7
10
 680
20
 60
30
0
0
VERTEX
8
Halfen
62
7
10
 680
20
 62
30
0
0
VERTEX
8
Halfen
62
7
10
 668
20
 62
30
0
0
VERTEX
8
Halfen
62
7
10
 668
20
 60
30
0
0
SEQEND
8
Halfen
0
POLYLINE
8
Halfen
62
7
66
1
10
0.0
20
0.0
30
0.0
70
1
0
VERTEX
8
Halfen
62
7
10
 679.25
20
 62
30
0
0
VERTEX
8
Halfen
62
7
10
 679.25
20
 160
30
0
0
VERTEX
8
Halfen
62
7
10
 668.75
20
 160
30
0
0
VERTEX
8
Halfen
62
7
10
 668.75
20
 62
30
0
0
SEQEND
8
Halfen
0
POLYLINE
8
Halfen
62
7
66
1
10
0.0
20
0.0
30
0.0
70
1
0
VERTEX
8
Halfen
62
7
10
 680
20
 160
30
0
0
VERTEX
8
Halfen
62
7
10
 680
20
 775
30
0
0
VERTEX
8
Halfen
62
7
10
 668
20
 775
30
0
0
VERTEX
8
Halfen
62
7
10
 668
20
 160
30
0
0
SEQEND
8
Halfen
0
POLYLINE
8
Halfen
62
7
66
1
10
0.0
20
0.0
30
0.0
70
1
0
VERTEX
8
Halfen
62
7
10
 728
20
-775
30
0
0
VERTEX
8
Halfen
62
7
10
 728
20
-160
30
0
0
VERTEX
8
Halfen
62
7
10
 716
20
-160
30
0
0
VERTEX
8
Halfen
62
7
10
 716
20
-775
30
0
0
SEQEND
8
Halfen
0
POLYLINE
8
Halfen
62
7
66
1
10
0.0
20
0.0
30
0.0
70
1
0
VERTEX
8
Halfen
62
7
10
 727.25
20
-160
30
0
0
VERTEX
8
Halfen
62
7
10
 727.25
20
-62
30
0
0
VERTEX
8
Halfen
62
7
10
 716.75
20
-62
30
0
0
VERTEX
8
Halfen
62
7
10
 716.75
20
-160
30
0
0
SEQEND
8
Halfen
0
POLYLINE
8
Halfen
62
7
66
1
10
0.0
20
0.0
30
0.0
70
1
0
VERTEX
8
Halfen
62
7
10
 728
20
-62
30
0
0
VERTEX
8
Halfen
62
7
10
 728
20
-60
30
0
0
VERTEX
8
Halfen
62
7
10
 716
20
-60
30
0
0
VERTEX
8
Halfen
62
7
10
 716
20
-62
30
0
0
SEQEND
8
Halfen
0
POLYLINE
8
Halfen
62
7
66
1
10
0.0
20
0.0
30
0.0
70
1
0
VERTEX
8
Halfen
62
7
10
 727.25
20
-60
30
0
0
VERTEX
8
Halfen
62
7
10
 727.25
20
 60
30
0
0
VERTEX
8
Halfen
62
7
10
 716.75
20
 60
30
0
0
VERTEX
8
Halfen
62
7
10
 716.75
20
-60
30
0
0
SEQEND
8
Halfen
0
POLYLINE
8
Halfen
62
7
66
1
10
0.0
20
0.0
30
0.0
70
1
0
VERTEX
8
Halfen
62
7
10
 728
20
 60
30
0
0
VERTEX
8
Halfen
62
7
10
 728
20
 62
30
0
0
VERTEX
8
Halfen
62
7
10
 716
20
 62
30
0
0
VERTEX
8
Halfen
62
7
10
 716
20
 60
30
0
0
SEQEND
8
Halfen
0
POLYLINE
8
Halfen
62
7
66
1
10
0.0
20
0.0
30
0.0
70
1
0
VERTEX
8
Halfen
62
7
10
 727.25
20
 62
30
0
0
VERTEX
8
Halfen
62
7
10
 727.25
20
 160
30
0
0
VERTEX
8
Halfen
62
7
10
 716.75
20
 160
30
0
0
VERTEX
8
Halfen
62
7
10
 716.75
20
 62
30
0
0
SEQEND
8
Halfen
0
POLYLINE
8
Halfen
62
7
66
1
10
0.0
20
0.0
30
0.0
70
1
0
VERTEX
8
Halfen
62
7
10
 728
20
 160
30
0
0
VERTEX
8
Halfen
62
7
10
 728
20
 775
30
0
0
VERTEX
8
Halfen
62
7
10
 716
20
 775
30
0
0
VERTEX
8
Halfen
62
7
10
 716
20
 160
30
0
0
SEQEND
8
Halfen
0
POLYLINE
8
Halfen
62
7
66
1
10
0.0
20
0.0
30
0.0
70
1
0
VERTEX
8
Halfen
62
7
10
 812
20
-775
30
0
0
VERTEX
8
Halfen
62
7
10
 812
20
-160
30
0
0
VERTEX
8
Halfen
62
7
10
 800
20
-160
30
0
0
VERTEX
8
Halfen
62
7
10
 800
20
-775
30
0
0
SEQEND
8
Halfen
0
POLYLINE
8
Halfen
62
7
66
1
10
0.0
20
0.0
30
0.0
70
1
0
VERTEX
8
Halfen
62
7
10
 811.25
20
-160
30
0
0
VERTEX
8
Halfen
62
7
10
 811.25
20
-62
30
0
0
VERTEX
8
Halfen
62
7
10
 800.75
20
-62
30
0
0
VERTEX
8
Halfen
62
7
10
 800.75
20
-160
30
0
0
SEQEND
8
Halfen
0
POLYLINE
8
Halfen
62
7
66
1
10
0.0
20
0.0
30
0.0
70
1
0
VERTEX
8
Halfen
62
7
10
 812
20
-62
30
0
0
VERTEX
8
Halfen
62
7
10
 812
20
-60
30
0
0
VERTEX
8
Halfen
62
7
10
 800
20
-60
30
0
0
VERTEX
8
Halfen
62
7
10
 800
20
-62
30
0
0
SEQEND
8
Halfen
0
POLYLINE
8
Halfen
62
7
66
1
10
0.0
20
0.0
30
0.0
70
1
0
VERTEX
8
Halfen
62
7
10
 811.25
20
-60
30
0
0
VERTEX
8
Halfen
62
7
10
 811.25
20
 60
30
0
0
VERTEX
8
Halfen
62
7
10
 800.75
20
 60
30
0
0
VERTEX
8
Halfen
62
7
10
 800.75
20
-60
30
0
0
SEQEND
8
Halfen
0
POLYLINE
8
Halfen
62
7
66
1
10
0.0
20
0.0
30
0.0
70
1
0
VERTEX
8
Halfen
62
7
10
 812
20
 60
30
0
0
VERTEX
8
Halfen
62
7
10
 812
20
 62
30
0
0
VERTEX
8
Halfen
62
7
10
 800
20
 62
30
0
0
VERTEX
8
Halfen
62
7
10
 800
20
 60
30
0
0
SEQEND
8
Halfen
0
POLYLINE
8
Halfen
62
7
66
1
10
0.0
20
0.0
30
0.0
70
1
0
VERTEX
8
Halfen
62
7
10
 811.25
20
 62
30
0
0
VERTEX
8
Halfen
62
7
10
 811.25
20
 160
30
0
0
VERTEX
8
Halfen
62
7
10
 800.75
20
 160
30
0
0
VERTEX
8
Halfen
62
7
10
 800.75
20
 62
30
0
0
SEQEND
8
Halfen
0
POLYLINE
8
Halfen
62
7
66
1
10
0.0
20
0.0
30
0.0
70
1
0
VERTEX
8
Halfen
62
7
10
 812
20
 160
30
0
0
VERTEX
8
Halfen
62
7
10
 812
20
 775
30
0
0
VERTEX
8
Halfen
62
7
10
 800
20
 775
30
0
0
VERTEX
8
Halfen
62
7
10
 800
20
 160
30
0
0
SEQEND
8
Halfen
0
POLYLINE
8
Halfen
62
7
66
1
10
0.0
20
0.0
30
0.0
70
1
0
VERTEX
8
Halfen
62
7
10
 860
20
-775
30
0
0
VERTEX
8
Halfen
62
7
10
 860
20
-160
30
0
0
VERTEX
8
Halfen
62
7
10
 848
20
-160
30
0
0
VERTEX
8
Halfen
62
7
10
 848
20
-775
30
0
0
SEQEND
8
Halfen
0
POLYLINE
8
Halfen
62
7
66
1
10
0.0
20
0.0
30
0.0
70
1
0
VERTEX
8
Halfen
62
7
10
 859.25
20
-160
30
0
0
VERTEX
8
Halfen
62
7
10
 859.25
20
-62
30
0
0
VERTEX
8
Halfen
62
7
10
 848.75
20
-62
30
0
0
VERTEX
8
Halfen
62
7
10
 848.75
20
-160
30
0
0
SEQEND
8
Halfen
0
POLYLINE
8
Halfen
62
7
66
1
10
0.0
20
0.0
30
0.0
70
1
0
VERTEX
8
Halfen
62
7
10
 860
20
-62
30
0
0
VERTEX
8
Halfen
62
7
10
 860
20
-60
30
0
0
VERTEX
8
Halfen
62
7
10
 848
20
-60
30
0
0
VERTEX
8
Halfen
62
7
10
 848
20
-62
30
0
0
SEQEND
8
Halfen
0
POLYLINE
8
Halfen
62
7
66
1
10
0.0
20
0.0
30
0.0
70
1
0
VERTEX
8
Halfen
62
7
10
 859.25
20
-60
30
0
0
VERTEX
8
Halfen
62
7
10
 859.25
20
 60
30
0
0
VERTEX
8
Halfen
62
7
10
 848.75
20
 60
30
0
0
VERTEX
8
Halfen
62
7
10
 848.75
20
-60
30
0
0
SEQEND
8
Halfen
0
POLYLINE
8
Halfen
62
7
66
1
10
0.0
20
0.0
30
0.0
70
1
0
VERTEX
8
Halfen
62
7
10
 860
20
 60
30
0
0
VERTEX
8
Halfen
62
7
10
 860
20
 62
30
0
0
VERTEX
8
Halfen
62
7
10
 848
20
 62
30
0
0
VERTEX
8
Halfen
62
7
10
 848
20
 60
30
0
0
SEQEND
8
Halfen
0
POLYLINE
8
Halfen
62
7
66
1
10
0.0
20
0.0
30
0.0
70
1
0
VERTEX
8
Halfen
62
7
10
 859.25
20
 62
30
0
0
VERTEX
8
Halfen
62
7
10
 859.25
20
 160
30
0
0
VERTEX
8
Halfen
62
7
10
 848.75
20
 160
30
0
0
VERTEX
8
Halfen
62
7
10
 848.75
20
 62
30
0
0
SEQEND
8
Halfen
0
POLYLINE
8
Halfen
62
7
66
1
10
0.0
20
0.0
30
0.0
70
1
0
VERTEX
8
Halfen
62
7
10
 860
20
 160
30
0
0
VERTEX
8
Halfen
62
7
10
 860
20
 775
30
0
0
VERTEX
8
Halfen
62
7
10
 848
20
 775
30
0
0
VERTEX
8
Halfen
62
7
10
 848
20
 160
30
0
0
SEQEND
8
Halfen
0
POLYLINE
8
Halfen
62
7
66
1
10
0.0
20
0.0
30
0.0
70
1
0
VERTEX
8
Halfen
62
7
10
 944
20
-775
30
0
0
VERTEX
8
Halfen
62
7
10
 944
20
-160
30
0
0
VERTEX
8
Halfen
62
7
10
 932
20
-160
30
0
0
VERTEX
8
Halfen
62
7
10
 932
20
-775
30
0
0
SEQEND
8
Halfen
0
POLYLINE
8
Halfen
62
7
66
1
10
0.0
20
0.0
30
0.0
70
1
0
VERTEX
8
Halfen
62
7
10
 943.25
20
-160
30
0
0
VERTEX
8
Halfen
62
7
10
 943.25
20
-62
30
0
0
VERTEX
8
Halfen
62
7
10
 932.75
20
-62
30
0
0
VERTEX
8
Halfen
62
7
10
 932.75
20
-160
30
0
0
SEQEND
8
Halfen
0
POLYLINE
8
Halfen
62
7
66
1
10
0.0
20
0.0
30
0.0
70
1
0
VERTEX
8
Halfen
62
7
10
 944
20
-62
30
0
0
VERTEX
8
Halfen
62
7
10
 944
20
-60
30
0
0
VERTEX
8
Halfen
62
7
10
 932
20
-60
30
0
0
VERTEX
8
Halfen
62
7
10
 932
20
-62
30
0
0
SEQEND
8
Halfen
0
POLYLINE
8
Halfen
62
7
66
1
10
0.0
20
0.0
30
0.0
70
1
0
VERTEX
8
Halfen
62
7
10
 943.25
20
-60
30
0
0
VERTEX
8
Halfen
62
7
10
 943.25
20
 60
30
0
0
VERTEX
8
Halfen
62
7
10
 932.75
20
 60
30
0
0
VERTEX
8
Halfen
62
7
10
 932.75
20
-60
30
0
0
SEQEND
8
Halfen
0
POLYLINE
8
Halfen
62
7
66
1
10
0.0
20
0.0
30
0.0
70
1
0
VERTEX
8
Halfen
62
7
10
 944
20
 60
30
0
0
VERTEX
8
Halfen
62
7
10
 944
20
 62
30
0
0
VERTEX
8
Halfen
62
7
10
 932
20
 62
30
0
0
VERTEX
8
Halfen
62
7
10
 932
20
 60
30
0
0
SEQEND
8
Halfen
0
POLYLINE
8
Halfen
62
7
66
1
10
0.0
20
0.0
30
0.0
70
1
0
VERTEX
8
Halfen
62
7
10
 943.25
20
 62
30
0
0
VERTEX
8
Halfen
62
7
10
 943.25
20
 160
30
0
0
VERTEX
8
Halfen
62
7
10
 932.75
20
 160
30
0
0
VERTEX
8
Halfen
62
7
10
 932.75
20
 62
30
0
0
SEQEND
8
Halfen
0
POLYLINE
8
Halfen
62
7
66
1
10
0.0
20
0.0
30
0.0
70
1
0
VERTEX
8
Halfen
62
7
10
 944
20
 160
30
0
0
VERTEX
8
Halfen
62
7
10
 944
20
 775
30
0
0
VERTEX
8
Halfen
62
7
10
 932
20
 775
30
0
0
VERTEX
8
Halfen
62
7
10
 932
20
 160
30
0
0
SEQEND
8
Halfen
0
POLYLINE
8
Halfen
62
7
66
1
10
0.0
20
0.0
30
0.0
70
1
0
VERTEX
8
Halfen
62
7
10
 98
20
-454.298
30
0
0
VERTEX
8
Halfen
62
7
10
 98
20
 459.026
30
0
0
VERTEX
8
Halfen
62
7
10
 92
20
 459.026
30
0
0
VERTEX
8
Halfen
62
7
10
 92
20
-454.298
30
0
0
SEQEND
8
Halfen
0
POLYLINE
8
Halfen
62
7
66
1
10
0.0
20
0.0
30
0.0
70
1
0
VERTEX
8
Halfen
62
7
10
 104
20
-459.026
30
0
0
VERTEX
8
Halfen
62
7
10
 104
20
 454.298
30
0
0
VERTEX
8
Halfen
62
7
10
 98
20
 454.298
30
0
0
VERTEX
8
Halfen
62
7
10
 98
20
-459.026
30
0
0
SEQEND
8
Halfen
0
POLYLINE
8
Halfen
62
7
66
1
10
0.0
20
0.0
30
0.0
70
1
0
VERTEX
8
Halfen
62
7
10
 230
20
-454.298
30
0
0
VERTEX
8
Halfen
62
7
10
 230
20
 459.026
30
0
0
VERTEX
8
Halfen
62
7
10
 224
20
 459.026
30
0
0
VERTEX
8
Halfen
62
7
10
 224
20
-454.298
30
0
0
SEQEND
8
Halfen
0
POLYLINE
8
Halfen
62
7
66
1
10
0.0
20
0.0
30
0.0
70
1
0
VERTEX
8
Halfen
62
7
10
 236
20
-459.026
30
0
0
VERTEX
8
Halfen
62
7
10
 236
20
 454.298
30
0
0
VERTEX
8
Halfen
62
7
10
 230
20
 454.298
30
0
0
VERTEX
8
Halfen
62
7
10
 230
20
-459.026
30
0
0
SEQEND
8
Halfen
0
POLYLINE
8
Halfen
62
7
66
1
10
0.0
20
0.0
30
0.0
70
1
0
VERTEX
8
Halfen
62
7
10
 362
20
-454.298
30
0
0
VERTEX
8
Halfen
62
7
10
 362
20
 459.026
30
0
0
VERTEX
8
Halfen
62
7
10
 356
20
 459.026
30
0
0
VERTEX
8
Halfen
62
7
10
 356
20
-454.298
30
0
0
SEQEND
8
Halfen
0
POLYLINE
8
Halfen
62
7
66
1
10
0.0
20
0.0
30
0.0
70
1
0
VERTEX
8
Halfen
62
7
10
 368
20
-459.026
30
0
0
VERTEX
8
Halfen
62
7
10
 368
20
 454.298
30
0
0
VERTEX
8
Halfen
62
7
10
 362
20
 454.298
30
0
0
VERTEX
8
Halfen
62
7
10
 362
20
-459.026
30
0
0
SEQEND
8
Halfen
0
POLYLINE
8
Halfen
62
7
66
1
10
0.0
20
0.0
30
0.0
70
1
0
VERTEX
8
Halfen
62
7
10
 494
20
-454.298
30
0
0
VERTEX
8
Halfen
62
7
10
 494
20
 459.026
30
0
0
VERTEX
8
Halfen
62
7
10
 488
20
 459.026
30
0
0
VERTEX
8
Halfen
62
7
10
 488
20
-454.298
30
0
0
SEQEND
8
Halfen
0
POLYLINE
8
Halfen
62
7
66
1
10
0.0
20
0.0
30
0.0
70
1
0
VERTEX
8
Halfen
62
7
10
 500
20
-459.026
30
0
0
VERTEX
8
Halfen
62
7
10
 500
20
 454.298
30
0
0
VERTEX
8
Halfen
62
7
10
 494
20
 454.298
30
0
0
VERTEX
8
Halfen
62
7
10
 494
20
-459.026
30
0
0
SEQEND
8
Halfen
0
POLYLINE
8
Halfen
62
7
66
1
10
0.0
20
0.0
30
0.0
70
1
0
VERTEX
8
Halfen
62
7
10
 626
20
-454.298
30
0
0
VERTEX
8
Halfen
62
7
10
 626
20
 459.026
30
0
0
VERTEX
8
Halfen
62
7
10
 620
20
 459.026
30
0
0
VERTEX
8
Halfen
62
7
10
 620
20
-454.298
30
0
0
SEQEND
8
Halfen
0
POLYLINE
8
Halfen
62
7
66
1
10
0.0
20
0.0
30
0.0
70
1
0
VERTEX
8
Halfen
62
7
10
 632
20
-459.026
30
0
0
VERTEX
8
Halfen
62
7
10
 632
20
 454.298
30
0
0
VERTEX
8
Halfen
62
7
10
 626
20
 454.298
30
0
0
VERTEX
8
Halfen
62
7
10
 626
20
-459.026
30
0
0
SEQEND
8
Halfen
0
POLYLINE
8
Halfen
62
7
66
1
10
0.0
20
0.0
30
0.0
70
1
0
VERTEX
8
Halfen
62
7
10
 758
20
-454.298
30
0
0
VERTEX
8
Halfen
62
7
10
 758
20
 459.026
30
0
0
VERTEX
8
Halfen
62
7
10
 752
20
 459.026
30
0
0
VERTEX
8
Halfen
62
7
10
 752
20
-454.298
30
0
0
SEQEND
8
Halfen
0
POLYLINE
8
Halfen
62
7
66
1
10
0.0
20
0.0
30
0.0
70
1
0
VERTEX
8
Halfen
62
7
10
 764
20
-459.026
30
0
0
VERTEX
8
Halfen
62
7
10
 764
20
 454.298
30
0
0
VERTEX
8
Halfen
62
7
10
 758
20
 454.298
30
0
0
VERTEX
8
Halfen
62
7
10
 758
20
-459.026
30
0
0
SEQEND
8
Halfen
0
POLYLINE
8
Halfen
62
7
66
1
10
0.0
20
0.0
30
0.0
70
1
0
VERTEX
8
Halfen
62
7
10
 890
20
-454.298
30
0
0
VERTEX
8
Halfen
62
7
10
 890
20
 459.026
30
0
0
VERTEX
8
Halfen
62
7
10
 884
20
 459.026
30
0
0
VERTEX
8
Halfen
62
7
10
 884
20
-454.298
30
0
0
SEQEND
8
Halfen
0
POLYLINE
8
Halfen
62
7
66
1
10
0.0
20
0.0
30
0.0
70
1
0
VERTEX
8
Halfen
62
7
10
 896
20
-459.026
30
0
0
VERTEX
8
Halfen
62
7
10
 896
20
 454.298
30
0
0
VERTEX
8
Halfen
62
7
10
 890
20
 454.298
30
0
0
VERTEX
8
Halfen
62
7
10
 890
20
-459.026
30
0
0
SEQEND
8
Halfen
0
POLYLINE
8
Halfen
62
7
66
1
10
0.0
20
0.0
30
0.0
70
1
0
VERTEX
8
Halfen
62
7
10
 1550
20
-60
30
0
0
VERTEX
8
Halfen
62
7
10
 1550
20
 60
30
0
0
VERTEX
8
Halfen
62
7
10
 1536.5
20
 73.5
30
0
0
VERTEX
8
Halfen
62
7
10
 1536.5
20
 60
30
0
0
VERTEX
8
Halfen
62
7
10
 1270
20
 60
30
0
0
VERTEX
8
Halfen
62
7
10
 1270
20
-60
30
0
0
VERTEX
8
Halfen
62
7
10
 1536.5
20
-60
30
0
0
VERTEX
8
Halfen
62
7
10
 1536.5
20
-73.5
30
0
0
SEQEND
8
Halfen
0
POLYLINE
8
Halfen
62
7
66
1
10
0.0
20
0.0
30
0.0
70
1
0
VERTEX
8
Halfen
62
7
10
 1270
20
-60
30
0
0
VERTEX
8
Halfen
62
7
10
 1270
20
 60
30
0
0
VERTEX
8
Halfen
62
7
10
 1213.5
20
 60
30
0
0
VERTEX
8
Halfen
62
7
10
 1213.5
20
 73.5
30
0
0
VERTEX
8
Halfen
62
7
10
 1200
20
 60
30
0
0
VERTEX
8
Halfen
62
7
10
 1200
20
-60
30
0
0
VERTEX
8
Halfen
62
7
10
 1213.5
20
-73.5
30
0
0
VERTEX
8
Halfen
62
7
10
 1213.5
20
-60
30
0
0
SEQEND
8
Halfen
0
POLYLINE
8
Halfen
62
7
66
1
10
0.0
20
0.0
30
0.0
70
1
0
VERTEX
8
Halfen
62
7
10
 1547.5
20
-58.75
30
0
0
VERTEX
8
Halfen
62
7
10
 1547.5
20
 58.75
30
0
0
VERTEX
8
Halfen
62
7
10
 1539
20
 67.25
30
0
0
VERTEX
8
Halfen
62
7
10
 1539
20
 58
30
0
0
VERTEX
8
Halfen
62
7
10
 1272
20
 58
30
0
0
VERTEX
8
Halfen
62
7
10
 1272
20
-58
30
0
0
VERTEX
8
Halfen
62
7
10
 1539
20
-58
30
0
0
VERTEX
8
Halfen
62
7
10
 1539
20
-67.25
30
0
0
SEQEND
8
Halfen
0
POLYLINE
8
Halfen
62
7
66
1
10
0.0
20
0.0
30
0.0
70
1
0
VERTEX
8
Halfen
62
7
10
 1268
20
-58
30
0
0
VERTEX
8
Halfen
62
7
10
 1268
20
 58
30
0
0
VERTEX
8
Halfen
62
7
10
 1211
20
 58
30
0
0
VERTEX
8
Halfen
62
7
10
 1211
20
 67.25
30
0
0
VERTEX
8
Halfen
62
7
10
 1202.5
20
 58.75
30
0
0
VERTEX
8
Halfen
62
7
10
 1202.5
20
-58.75
30
0
0
VERTEX
8
Halfen
62
7
10
 1211
20
-67.25
30
0
0
VERTEX
8
Halfen
62
7
10
 1211
20
-58
30
0
0
SEQEND
8
Halfen
0
POLYLINE
8
Halfen
62
7
66
1
10
0.0
20
0.0
30
0.0
70
1
0
VERTEX
8
Halfen
62
7
10
 1262
20
-775
30
0
0
VERTEX
8
Halfen
62
7
10
 1262
20
-160
30
0
0
VERTEX
8
Halfen
62
7
10
 1250
20
-160
30
0
0
VERTEX
8
Halfen
62
7
10
 1250
20
-775
30
0
0
SEQEND
8
Halfen
0
POLYLINE
8
Halfen
62
7
66
1
10
0.0
20
0.0
30
0.0
70
1
0
VERTEX
8
Halfen
62
7
10
 1261.25
20
-160
30
0
0
VERTEX
8
Halfen
62
7
10
 1261.25
20
-62
30
0
0
VERTEX
8
Halfen
62
7
10
 1250.75
20
-62
30
0
0
VERTEX
8
Halfen
62
7
10
 1250.75
20
-160
30
0
0
SEQEND
8
Halfen
0
POLYLINE
8
Halfen
62
7
66
1
10
0.0
20
0.0
30
0.0
70
1
0
VERTEX
8
Halfen
62
7
10
 1262
20
-62
30
0
0
VERTEX
8
Halfen
62
7
10
 1262
20
-60
30
0
0
VERTEX
8
Halfen
62
7
10
 1250
20
-60
30
0
0
VERTEX
8
Halfen
62
7
10
 1250
20
-62
30
0
0
SEQEND
8
Halfen
0
POLYLINE
8
Halfen
62
7
66
1
10
0.0
20
0.0
30
0.0
70
1
0
VERTEX
8
Halfen
62
7
10
 1261.25
20
-60
30
0
0
VERTEX
8
Halfen
62
7
10
 1261.25
20
 60
30
0
0
VERTEX
8
Halfen
62
7
10
 1250.75
20
 60
30
0
0
VERTEX
8
Halfen
62
7
10
 1250.75
20
-60
30
0
0
SEQEND
8
Halfen
0
POLYLINE
8
Halfen
62
7
66
1
10
0.0
20
0.0
30
0.0
70
1
0
VERTEX
8
Halfen
62
7
10
 1262
20
 60
30
0
0
VERTEX
8
Halfen
62
7
10
 1262
20
 62
30
0
0
VERTEX
8
Halfen
62
7
10
 1250
20
 62
30
0
0
VERTEX
8
Halfen
62
7
10
 1250
20
 60
30
0
0
SEQEND
8
Halfen
0
POLYLINE
8
Halfen
62
7
66
1
10
0.0
20
0.0
30
0.0
70
1
0
VERTEX
8
Halfen
62
7
10
 1261.25
20
 62
30
0
0
VERTEX
8
Halfen
62
7
10
 1261.25
20
 160
30
0
0
VERTEX
8
Halfen
62
7
10
 1250.75
20
 160
30
0
0
VERTEX
8
Halfen
62
7
10
 1250.75
20
 62
30
0
0
SEQEND
8
Halfen
0
POLYLINE
8
Halfen
62
7
66
1
10
0.0
20
0.0
30
0.0
70
1
0
VERTEX
8
Halfen
62
7
10
 1262
20
 160
30
0
0
VERTEX
8
Halfen
62
7
10
 1262
20
 775
30
0
0
VERTEX
8
Halfen
62
7
10
 1250
20
 775
30
0
0
VERTEX
8
Halfen
62
7
10
 1250
20
 160
30
0
0
SEQEND
8
Halfen
0
POLYLINE
8
Halfen
62
7
66
1
10
0.0
20
0.0
30
0.0
70
1
0
VERTEX
8
Halfen
62
7
10
 1520
20
-775
30
0
0
VERTEX
8
Halfen
62
7
10
 1520
20
-160
30
0
0
VERTEX
8
Halfen
62
7
10
 1508
20
-160
30
0
0
VERTEX
8
Halfen
62
7
10
 1508
20
-775
30
0
0
SEQEND
8
Halfen
0
POLYLINE
8
Halfen
62
7
66
1
10
0.0
20
0.0
30
0.0
70
1
0
VERTEX
8
Halfen
62
7
10
 1519.25
20
-160
30
0
0
VERTEX
8
Halfen
62
7
10
 1519.25
20
-62
30
0
0
VERTEX
8
Halfen
62
7
10
 1508.75
20
-62
30
0
0
VERTEX
8
Halfen
62
7
10
 1508.75
20
-160
30
0
0
SEQEND
8
Halfen
0
POLYLINE
8
Halfen
62
7
66
1
10
0.0
20
0.0
30
0.0
70
1
0
VERTEX
8
Halfen
62
7
10
 1520
20
-62
30
0
0
VERTEX
8
Halfen
62
7
10
 1520
20
-60
30
0
0
VERTEX
8
Halfen
62
7
10
 1508
20
-60
30
0
0
VERTEX
8
Halfen
62
7
10
 1508
20
-62
30
0
0
SEQEND
8
Halfen
0
POLYLINE
8
Halfen
62
7
66
1
10
0.0
20
0.0
30
0.0
70
1
0
VERTEX
8
Halfen
62
7
10
 1519.25
20
-60
30
0
0
VERTEX
8
Halfen
62
7
10
 1519.25
20
 60
30
0
0
VERTEX
8
Halfen
62
7
10
 1508.75
20
 60
30
0
0
VERTEX
8
Halfen
62
7
10
 1508.75
20
-60
30
0
0
SEQEND
8
Halfen
0
POLYLINE
8
Halfen
62
7
66
1
10
0.0
20
0.0
30
0.0
70
1
0
VERTEX
8
Halfen
62
7
10
 1520
20
 60
30
0
0
VERTEX
8
Halfen
62
7
10
 1520
20
 62
30
0
0
VERTEX
8
Halfen
62
7
10
 1508
20
 62
30
0
0
VERTEX
8
Halfen
62
7
10
 1508
20
 60
30
0
0
SEQEND
8
Halfen
0
POLYLINE
8
Halfen
62
7
66
1
10
0.0
20
0.0
30
0.0
70
1
0
VERTEX
8
Halfen
62
7
10
 1519.25
20
 62
30
0
0
VERTEX
8
Halfen
62
7
10
 1519.25
20
 160
30
0
0
VERTEX
8
Halfen
62
7
10
 1508.75
20
 160
30
0
0
VERTEX
8
Halfen
62
7
10
 1508.75
20
 62
30
0
0
SEQEND
8
Halfen
0
POLYLINE
8
Halfen
62
7
66
1
10
0.0
20
0.0
30
0.0
70
1
0
VERTEX
8
Halfen
62
7
10
 1520
20
 160
30
0
0
VERTEX
8
Halfen
62
7
10
 1520
20
 775
30
0
0
VERTEX
8
Halfen
62
7
10
 1508
20
 775
30
0
0
VERTEX
8
Halfen
62
7
10
 1508
20
 160
30
0
0
SEQEND
8
Halfen
0
POLYLINE
8
Halfen
62
7
66
1
10
0.0
20
0.0
30
0.0
70
1
0
VERTEX
8
Halfen
62
7
10
 1520
20
-454.298
30
0
0
VERTEX
8
Halfen
62
7
10
 1520
20
-83.335
30
0
0
VERTEX
8
Halfen
62
7
10
 1519.705
20
-79.58
30
0
0
VERTEX
8
Halfen
62
7
10
 1518.825
20
-75.918
30
0
0
VERTEX
8
Halfen
62
7
10
 1517.384
20
-72.439
30
0
0
VERTEX
8
Halfen
62
7
10
 1515.416
20
-69.228
30
0
0
VERTEX
8
Halfen
62
7
10
 1512.971
20
-66.364
30
0
0
VERTEX
8
Halfen
62
7
10
 1371.272
20
 75.335
30
0
0
VERTEX
8
Halfen
62
7
10
 1369.438
20
 77.482
30
0
0
VERTEX
8
Halfen
62
7
10
 1367.962
20
 79.891
30
0
0
VERTEX
8
Halfen
62
7
10
 1366.881
20
 82.5
30
0
0
VERTEX
8
Halfen
62
7
10
 1366.222
20
 85.247
30
0
0
VERTEX
8
Halfen
62
7
10
 1366
20
 88.062
30
0
0
VERTEX
8
Halfen
62
7
10
 1366
20
 459.026
30
0
0
VERTEX
8
Halfen
62
7
10
 1360
20
 459.026
30
0
0
VERTEX
8
Halfen
62
7
10
 1360
20
 88.062
30
0
0
VERTEX
8
Halfen
62
7
10
 1360.295
20
 84.308
30
0
0
VERTEX
8
Halfen
62
7
10
 1361.175
20
 80.646
30
0
0
VERTEX
8
Halfen
62
7
10
 1362.616
20
 77.167
30
0
0
VERTEX
8
Halfen
62
7
10
 1364.584
20
 73.956
30
0
0
VERTEX
8
Halfen
62
7
10
 1367.029
20
 71.092
30
0
0
VERTEX
8
Halfen
62
7
10
 1508.728
20
-70.607
30
0
0
VERTEX
8
Halfen
62
7
10
 1510.562
20
-72.754
30
0
0
VERTEX
8
Halfen
62
7
10
 1512.038
20
-75.163
30
0
0
VERTEX
8
Halfen
62
7
10
 1513.119
20
-77.772
30
0
0
VERTEX
8
Halfen
62
7
10
 1513.778
20
-80.519
30
0
0
VERTEX
8
Halfen
62
7
10
 1514
20
-83.335
30
0
0
VERTEX
8
Halfen
62
7
10
 1514
20
-454.298
30
0
0
SEQEND
8
Halfen
0
POLYLINE
8
Halfen
62
7
66
1
10
0.0
20
0.0
30
0.0
70
1
0
VERTEX
8
Halfen
62
7
10
 1360
20
-459.026
30
0
0
VERTEX
8
Halfen
62
7
10
 1360
20
-88.062
30
0
0
VERTEX
8
Halfen
62
7
10
 1360.295
20
-84.308
30
0
0
VERTEX
8
Halfen
62
7
10
 1361.175
20
-80.646
30
0
0
VERTEX
8
Halfen
62
7
10
 1362.616
20
-77.167
30
0
0
VERTEX
8
Halfen
62
7
10
 1364.584
20
-73.956
30
0
0
VERTEX
8
Halfen
62
7
10
 1367.029
20
-71.092
30
0
0
VERTEX
8
Halfen
62
7
10
 1508.728
20
 70.607
30
0
0
VERTEX
8
Halfen
62
7
10
 1510.562
20
 72.754
30
0
0
VERTEX
8
Halfen
62
7
10
 1512.038
20
 75.163
30
0
0
VERTEX
8
Halfen
62
7
10
 1513.119
20
 77.772
30
0
0
VERTEX
8
Halfen
62
7
10
 1513.778
20
 80.519
30
0
0
VERTEX
8
Halfen
62
7
10
 1514
20
 83.335
30
0
0
VERTEX
8
Halfen
62
7
10
 1514
20
 454.298
30
0
0
VERTEX
8
Halfen
62
7
10
 1520
20
 454.298
30
0
0
VERTEX
8
Halfen
62
7
10
 1520
20
 83.335
30
0
0
VERTEX
8
Halfen
62
7
10
 1519.705
20
 79.58
30
0
0
VERTEX
8
Halfen
62
7
10
 1518.825
20
 75.918
30
0
0
VERTEX
8
Halfen
62
7
10
 1517.384
20
 72.439
30
0
0
VERTEX
8
Halfen
62
7
10
 1515.416
20
 69.228
30
0
0
VERTEX
8
Halfen
62
7
10
 1512.971
20
 66.364
30
0
0
VERTEX
8
Halfen
62
7
10
 1371.272
20
-75.334
30
0
0
VERTEX
8
Halfen
62
7
10
 1369.438
20
-77.482
30
0
0
VERTEX
8
Halfen
62
7
10
 1367.962
20
-79.891
30
0
0
VERTEX
8
Halfen
62
7
10
 1366.881
20
-82.5
30
0
0
VERTEX
8
Halfen
62
7
10
 1366.222
20
-85.247
30
0
0
VERTEX
8
Halfen
62
7
10
 1366
20
-88.062
30
0
0
VERTEX
8
Halfen
62
7
10
 1366
20
-459.026
30
0
0
SEQEND
8
Halfen
0
ENDSEC
0
EOF
