0
SECTION
2
HEADER
9
$EXTMIN
10
 0
20
 100
30
0.0
9
$EXTMAX
10
 0
20
 100
30
0.0
9
$LIMMIN
10
 100
20
 0
9
$LIMMAX
10
 0
20
 100
9
$PSLTSCALE
70
1
0
ENDSEC
0
SECTION
2
TABLES
0
TABLE
2
LAYER
70
2
0
LAYER
2
0
70
0
62
7
6
CONTINUOUS
0
LAYER
2
Halfen
70
0
62
7
6
CONTINUOUS
0
ENDTAB
0
ENDSEC
0
SECTION
2
ENTITIES
0
POLYLINE
8
Halfen
62
7
66
1
10
0.0
20
0.0
30
0.0
70
1
0
VERTEX
8
Halfen
62
7
10
 0
20
-73.5
30
0
0
VERTEX
8
Halfen
62
7
10
 1000
20
-73.5
30
0
0
VERTEX
8
Halfen
62
7
10
 1000
20
 73.5
30
0
0
VERTEX
8
Halfen
62
7
10
 0
20
 73.5
30
0
0
SEQEND
8
Halfen
0
POLYLINE
8
Halfen
62
7
66
1
10
0.0
20
0.0
30
0.0
70
1
0
VERTEX
8
Halfen
62
7
10
 0
20
-60
30
0
0
VERTEX
8
Halfen
62
7
10
 1000
20
-60
30
0
0
VERTEX
8
Halfen
62
7
10
 1000
20
 60
30
0
0
VERTEX
8
Halfen
62
7
10
 0
20
 60
30
0
0
SEQEND
8
Halfen
0
POLYLINE
8
Halfen
62
7
66
1
10
0.0
20
0.0
30
0.0
70
1
0
VERTEX
8
Halfen
62
7
10
 20
20
-32.5
30
0
0
VERTEX
8
Halfen
62
7
10
 37
20
-1.5
30
0
0
VERTEX
8
Halfen
62
7
10
 28
20
-1.5
30
0
0
VERTEX
8
Halfen
62
7
10
 28
20
 32.5
30
0
0
VERTEX
8
Halfen
62
7
10
 12
20
 32.5
30
0
0
VERTEX
8
Halfen
62
7
10
 12
20
-1.5
30
0
0
VERTEX
8
Halfen
62
7
10
 3
20
-1.5
30
0
0
SEQEND
8
Halfen
0
POLYLINE
8
Halfen
62
7
66
1
10
0.0
20
0.0
30
0.0
70
1
0
VERTEX
8
Halfen
62
7
10
 980
20
-32.5
30
0
0
VERTEX
8
Halfen
62
7
10
 997
20
-1.5
30
0
0
VERTEX
8
Halfen
62
7
10
 988
20
-1.5
30
0
0
VERTEX
8
Halfen
62
7
10
 988
20
 32.5
30
0
0
VERTEX
8
Halfen
62
7
10
 972
20
 32.5
30
0
0
VERTEX
8
Halfen
62
7
10
 972
20
-1.5
30
0
0
VERTEX
8
Halfen
62
7
10
 963
20
-1.5
30
0
0
SEQEND
8
Halfen
0
POLYLINE
8
Halfen
62
7
66
1
10
0.0
20
0.0
30
0.0
70
1
0
VERTEX
8
Halfen
62
7
10
 68
20
-775
30
0
0
VERTEX
8
Halfen
62
7
10
 68
20
-160
30
0
0
VERTEX
8
Halfen
62
7
10
 56
20
-160
30
0
0
VERTEX
8
Halfen
62
7
10
 56
20
-775
30
0
0
SEQEND
8
Halfen
0
POLYLINE
8
Halfen
62
7
66
1
10
0.0
20
0.0
30
0.0
70
1
0
VERTEX
8
Halfen
62
7
10
 67.25
20
-160
30
0
0
VERTEX
8
Halfen
62
7
10
 67.25
20
-62
30
0
0
VERTEX
8
Halfen
62
7
10
 56.75
20
-62
30
0
0
VERTEX
8
Halfen
62
7
10
 56.75
20
-160
30
0
0
SEQEND
8
Halfen
0
POLYLINE
8
Halfen
62
7
66
1
10
0.0
20
0.0
30
0.0
70
1
0
VERTEX
8
Halfen
62
7
10
 68
20
-62
30
0
0
VERTEX
8
Halfen
62
7
10
 68
20
-60
30
0
0
VERTEX
8
Halfen
62
7
10
 56
20
-60
30
0
0
VERTEX
8
Halfen
62
7
10
 56
20
-62
30
0
0
SEQEND
8
Halfen
0
POLYLINE
8
Halfen
62
7
66
1
10
0.0
20
0.0
30
0.0
70
1
0
VERTEX
8
Halfen
62
7
10
 67.25
20
-60
30
0
0
VERTEX
8
Halfen
62
7
10
 67.25
20
 60
30
0
0
VERTEX
8
Halfen
62
7
10
 56.75
20
 60
30
0
0
VERTEX
8
Halfen
62
7
10
 56.75
20
-60
30
0
0
SEQEND
8
Halfen
0
POLYLINE
8
Halfen
62
7
66
1
10
0.0
20
0.0
30
0.0
70
1
0
VERTEX
8
Halfen
62
7
10
 68
20
 60
30
0
0
VERTEX
8
Halfen
62
7
10
 68
20
 62
30
0
0
VERTEX
8
Halfen
62
7
10
 56
20
 62
30
0
0
VERTEX
8
Halfen
62
7
10
 56
20
 60
30
0
0
SEQEND
8
Halfen
0
POLYLINE
8
Halfen
62
7
66
1
10
0.0
20
0.0
30
0.0
70
1
0
VERTEX
8
Halfen
62
7
10
 67.25
20
 62
30
0
0
VERTEX
8
Halfen
62
7
10
 67.25
20
 160
30
0
0
VERTEX
8
Halfen
62
7
10
 56.75
20
 160
30
0
0
VERTEX
8
Halfen
62
7
10
 56.75
20
 62
30
0
0
SEQEND
8
Halfen
0
POLYLINE
8
Halfen
62
7
66
1
10
0.0
20
0.0
30
0.0
70
1
0
VERTEX
8
Halfen
62
7
10
 68
20
 160
30
0
0
VERTEX
8
Halfen
62
7
10
 68
20
 775
30
0
0
VERTEX
8
Halfen
62
7
10
 56
20
 775
30
0
0
VERTEX
8
Halfen
62
7
10
 56
20
 160
30
0
0
SEQEND
8
Halfen
0
POLYLINE
8
Halfen
62
7
66
1
10
0.0
20
0.0
30
0.0
70
1
0
VERTEX
8
Halfen
62
7
10
 152
20
-775
30
0
0
VERTEX
8
Halfen
62
7
10
 152
20
-160
30
0
0
VERTEX
8
Halfen
62
7
10
 140
20
-160
30
0
0
VERTEX
8
Halfen
62
7
10
 140
20
-775
30
0
0
SEQEND
8
Halfen
0
POLYLINE
8
Halfen
62
7
66
1
10
0.0
20
0.0
30
0.0
70
1
0
VERTEX
8
Halfen
62
7
10
 151.25
20
-160
30
0
0
VERTEX
8
Halfen
62
7
10
 151.25
20
-62
30
0
0
VERTEX
8
Halfen
62
7
10
 140.75
20
-62
30
0
0
VERTEX
8
Halfen
62
7
10
 140.75
20
-160
30
0
0
SEQEND
8
Halfen
0
POLYLINE
8
Halfen
62
7
66
1
10
0.0
20
0.0
30
0.0
70
1
0
VERTEX
8
Halfen
62
7
10
 152
20
-62
30
0
0
VERTEX
8
Halfen
62
7
10
 152
20
-60
30
0
0
VERTEX
8
Halfen
62
7
10
 140
20
-60
30
0
0
VERTEX
8
Halfen
62
7
10
 140
20
-62
30
0
0
SEQEND
8
Halfen
0
POLYLINE
8
Halfen
62
7
66
1
10
0.0
20
0.0
30
0.0
70
1
0
VERTEX
8
Halfen
62
7
10
 151.25
20
-60
30
0
0
VERTEX
8
Halfen
62
7
10
 151.25
20
 60
30
0
0
VERTEX
8
Halfen
62
7
10
 140.75
20
 60
30
0
0
VERTEX
8
Halfen
62
7
10
 140.75
20
-60
30
0
0
SEQEND
8
Halfen
0
POLYLINE
8
Halfen
62
7
66
1
10
0.0
20
0.0
30
0.0
70
1
0
VERTEX
8
Halfen
62
7
10
 152
20
 60
30
0
0
VERTEX
8
Halfen
62
7
10
 152
20
 62
30
0
0
VERTEX
8
Halfen
62
7
10
 140
20
 62
30
0
0
VERTEX
8
Halfen
62
7
10
 140
20
 60
30
0
0
SEQEND
8
Halfen
0
POLYLINE
8
Halfen
62
7
66
1
10
0.0
20
0.0
30
0.0
70
1
0
VERTEX
8
Halfen
62
7
10
 151.25
20
 62
30
0
0
VERTEX
8
Halfen
62
7
10
 151.25
20
 160
30
0
0
VERTEX
8
Halfen
62
7
10
 140.75
20
 160
30
0
0
VERTEX
8
Halfen
62
7
10
 140.75
20
 62
30
0
0
SEQEND
8
Halfen
0
POLYLINE
8
Halfen
62
7
66
1
10
0.0
20
0.0
30
0.0
70
1
0
VERTEX
8
Halfen
62
7
10
 152
20
 160
30
0
0
VERTEX
8
Halfen
62
7
10
 152
20
 775
30
0
0
VERTEX
8
Halfen
62
7
10
 140
20
 775
30
0
0
VERTEX
8
Halfen
62
7
10
 140
20
 160
30
0
0
SEQEND
8
Halfen
0
POLYLINE
8
Halfen
62
7
66
1
10
0.0
20
0.0
30
0.0
70
1
0
VERTEX
8
Halfen
62
7
10
 416
20
-775
30
0
0
VERTEX
8
Halfen
62
7
10
 416
20
-160
30
0
0
VERTEX
8
Halfen
62
7
10
 404
20
-160
30
0
0
VERTEX
8
Halfen
62
7
10
 404
20
-775
30
0
0
SEQEND
8
Halfen
0
POLYLINE
8
Halfen
62
7
66
1
10
0.0
20
0.0
30
0.0
70
1
0
VERTEX
8
Halfen
62
7
10
 415.25
20
-160
30
0
0
VERTEX
8
Halfen
62
7
10
 415.25
20
-62
30
0
0
VERTEX
8
Halfen
62
7
10
 404.75
20
-62
30
0
0
VERTEX
8
Halfen
62
7
10
 404.75
20
-160
30
0
0
SEQEND
8
Halfen
0
POLYLINE
8
Halfen
62
7
66
1
10
0.0
20
0.0
30
0.0
70
1
0
VERTEX
8
Halfen
62
7
10
 416
20
-62
30
0
0
VERTEX
8
Halfen
62
7
10
 416
20
-60
30
0
0
VERTEX
8
Halfen
62
7
10
 404
20
-60
30
0
0
VERTEX
8
Halfen
62
7
10
 404
20
-62
30
0
0
SEQEND
8
Halfen
0
POLYLINE
8
Halfen
62
7
66
1
10
0.0
20
0.0
30
0.0
70
1
0
VERTEX
8
Halfen
62
7
10
 415.25
20
-60
30
0
0
VERTEX
8
Halfen
62
7
10
 415.25
20
 60
30
0
0
VERTEX
8
Halfen
62
7
10
 404.75
20
 60
30
0
0
VERTEX
8
Halfen
62
7
10
 404.75
20
-60
30
0
0
SEQEND
8
Halfen
0
POLYLINE
8
Halfen
62
7
66
1
10
0.0
20
0.0
30
0.0
70
1
0
VERTEX
8
Halfen
62
7
10
 416
20
 60
30
0
0
VERTEX
8
Halfen
62
7
10
 416
20
 62
30
0
0
VERTEX
8
Halfen
62
7
10
 404
20
 62
30
0
0
VERTEX
8
Halfen
62
7
10
 404
20
 60
30
0
0
SEQEND
8
Halfen
0
POLYLINE
8
Halfen
62
7
66
1
10
0.0
20
0.0
30
0.0
70
1
0
VERTEX
8
Halfen
62
7
10
 415.25
20
 62
30
0
0
VERTEX
8
Halfen
62
7
10
 415.25
20
 160
30
0
0
VERTEX
8
Halfen
62
7
10
 404.75
20
 160
30
0
0
VERTEX
8
Halfen
62
7
10
 404.75
20
 62
30
0
0
SEQEND
8
Halfen
0
POLYLINE
8
Halfen
62
7
66
1
10
0.0
20
0.0
30
0.0
70
1
0
VERTEX
8
Halfen
62
7
10
 416
20
 160
30
0
0
VERTEX
8
Halfen
62
7
10
 416
20
 775
30
0
0
VERTEX
8
Halfen
62
7
10
 404
20
 775
30
0
0
VERTEX
8
Halfen
62
7
10
 404
20
 160
30
0
0
SEQEND
8
Halfen
0
POLYLINE
8
Halfen
62
7
66
1
10
0.0
20
0.0
30
0.0
70
1
0
VERTEX
8
Halfen
62
7
10
 548
20
-775
30
0
0
VERTEX
8
Halfen
62
7
10
 548
20
-160
30
0
0
VERTEX
8
Halfen
62
7
10
 536
20
-160
30
0
0
VERTEX
8
Halfen
62
7
10
 536
20
-775
30
0
0
SEQEND
8
Halfen
0
POLYLINE
8
Halfen
62
7
66
1
10
0.0
20
0.0
30
0.0
70
1
0
VERTEX
8
Halfen
62
7
10
 547.25
20
-160
30
0
0
VERTEX
8
Halfen
62
7
10
 547.25
20
-62
30
0
0
VERTEX
8
Halfen
62
7
10
 536.75
20
-62
30
0
0
VERTEX
8
Halfen
62
7
10
 536.75
20
-160
30
0
0
SEQEND
8
Halfen
0
POLYLINE
8
Halfen
62
7
66
1
10
0.0
20
0.0
30
0.0
70
1
0
VERTEX
8
Halfen
62
7
10
 548
20
-62
30
0
0
VERTEX
8
Halfen
62
7
10
 548
20
-60
30
0
0
VERTEX
8
Halfen
62
7
10
 536
20
-60
30
0
0
VERTEX
8
Halfen
62
7
10
 536
20
-62
30
0
0
SEQEND
8
Halfen
0
POLYLINE
8
Halfen
62
7
66
1
10
0.0
20
0.0
30
0.0
70
1
0
VERTEX
8
Halfen
62
7
10
 547.25
20
-60
30
0
0
VERTEX
8
Halfen
62
7
10
 547.25
20
 60
30
0
0
VERTEX
8
Halfen
62
7
10
 536.75
20
 60
30
0
0
VERTEX
8
Halfen
62
7
10
 536.75
20
-60
30
0
0
SEQEND
8
Halfen
0
POLYLINE
8
Halfen
62
7
66
1
10
0.0
20
0.0
30
0.0
70
1
0
VERTEX
8
Halfen
62
7
10
 548
20
 60
30
0
0
VERTEX
8
Halfen
62
7
10
 548
20
 62
30
0
0
VERTEX
8
Halfen
62
7
10
 536
20
 62
30
0
0
VERTEX
8
Halfen
62
7
10
 536
20
 60
30
0
0
SEQEND
8
Halfen
0
POLYLINE
8
Halfen
62
7
66
1
10
0.0
20
0.0
30
0.0
70
1
0
VERTEX
8
Halfen
62
7
10
 547.25
20
 62
30
0
0
VERTEX
8
Halfen
62
7
10
 547.25
20
 160
30
0
0
VERTEX
8
Halfen
62
7
10
 536.75
20
 160
30
0
0
VERTEX
8
Halfen
62
7
10
 536.75
20
 62
30
0
0
SEQEND
8
Halfen
0
POLYLINE
8
Halfen
62
7
66
1
10
0.0
20
0.0
30
0.0
70
1
0
VERTEX
8
Halfen
62
7
10
 548
20
 160
30
0
0
VERTEX
8
Halfen
62
7
10
 548
20
 775
30
0
0
VERTEX
8
Halfen
62
7
10
 536
20
 775
30
0
0
VERTEX
8
Halfen
62
7
10
 536
20
 160
30
0
0
SEQEND
8
Halfen
0
POLYLINE
8
Halfen
62
7
66
1
10
0.0
20
0.0
30
0.0
70
1
0
VERTEX
8
Halfen
62
7
10
 596
20
-775
30
0
0
VERTEX
8
Halfen
62
7
10
 596
20
-160
30
0
0
VERTEX
8
Halfen
62
7
10
 584
20
-160
30
0
0
VERTEX
8
Halfen
62
7
10
 584
20
-775
30
0
0
SEQEND
8
Halfen
0
POLYLINE
8
Halfen
62
7
66
1
10
0.0
20
0.0
30
0.0
70
1
0
VERTEX
8
Halfen
62
7
10
 595.25
20
-160
30
0
0
VERTEX
8
Halfen
62
7
10
 595.25
20
-62
30
0
0
VERTEX
8
Halfen
62
7
10
 584.75
20
-62
30
0
0
VERTEX
8
Halfen
62
7
10
 584.75
20
-160
30
0
0
SEQEND
8
Halfen
0
POLYLINE
8
Halfen
62
7
66
1
10
0.0
20
0.0
30
0.0
70
1
0
VERTEX
8
Halfen
62
7
10
 596
20
-62
30
0
0
VERTEX
8
Halfen
62
7
10
 596
20
-60
30
0
0
VERTEX
8
Halfen
62
7
10
 584
20
-60
30
0
0
VERTEX
8
Halfen
62
7
10
 584
20
-62
30
0
0
SEQEND
8
Halfen
0
POLYLINE
8
Halfen
62
7
66
1
10
0.0
20
0.0
30
0.0
70
1
0
VERTEX
8
Halfen
62
7
10
 595.25
20
-60
30
0
0
VERTEX
8
Halfen
62
7
10
 595.25
20
 60
30
0
0
VERTEX
8
Halfen
62
7
10
 584.75
20
 60
30
0
0
VERTEX
8
Halfen
62
7
10
 584.75
20
-60
30
0
0
SEQEND
8
Halfen
0
POLYLINE
8
Halfen
62
7
66
1
10
0.0
20
0.0
30
0.0
70
1
0
VERTEX
8
Halfen
62
7
10
 596
20
 60
30
0
0
VERTEX
8
Halfen
62
7
10
 596
20
 62
30
0
0
VERTEX
8
Halfen
62
7
10
 584
20
 62
30
0
0
VERTEX
8
Halfen
62
7
10
 584
20
 60
30
0
0
SEQEND
8
Halfen
0
POLYLINE
8
Halfen
62
7
66
1
10
0.0
20
0.0
30
0.0
70
1
0
VERTEX
8
Halfen
62
7
10
 595.25
20
 62
30
0
0
VERTEX
8
Halfen
62
7
10
 595.25
20
 160
30
0
0
VERTEX
8
Halfen
62
7
10
 584.75
20
 160
30
0
0
VERTEX
8
Halfen
62
7
10
 584.75
20
 62
30
0
0
SEQEND
8
Halfen
0
POLYLINE
8
Halfen
62
7
66
1
10
0.0
20
0.0
30
0.0
70
1
0
VERTEX
8
Halfen
62
7
10
 596
20
 160
30
0
0
VERTEX
8
Halfen
62
7
10
 596
20
 775
30
0
0
VERTEX
8
Halfen
62
7
10
 584
20
 775
30
0
0
VERTEX
8
Halfen
62
7
10
 584
20
 160
30
0
0
SEQEND
8
Halfen
0
POLYLINE
8
Halfen
62
7
66
1
10
0.0
20
0.0
30
0.0
70
1
0
VERTEX
8
Halfen
62
7
10
 680
20
-775
30
0
0
VERTEX
8
Halfen
62
7
10
 680
20
-160
30
0
0
VERTEX
8
Halfen
62
7
10
 668
20
-160
30
0
0
VERTEX
8
Halfen
62
7
10
 668
20
-775
30
0
0
SEQEND
8
Halfen
0
POLYLINE
8
Halfen
62
7
66
1
10
0.0
20
0.0
30
0.0
70
1
0
VERTEX
8
Halfen
62
7
10
 679.25
20
-160
30
0
0
VERTEX
8
Halfen
62
7
10
 679.25
20
-62
30
0
0
VERTEX
8
Halfen
62
7
10
 668.75
20
-62
30
0
0
VERTEX
8
Halfen
62
7
10
 668.75
20
-160
30
0
0
SEQEND
8
Halfen
0
POLYLINE
8
Halfen
62
7
66
1
10
0.0
20
0.0
30
0.0
70
1
0
VERTEX
8
Halfen
62
7
10
 680
20
-62
30
0
0
VERTEX
8
Halfen
62
7
10
 680
20
-60
30
0
0
VERTEX
8
Halfen
62
7
10
 668
20
-60
30
0
0
VERTEX
8
Halfen
62
7
10
 668
20
-62
30
0
0
SEQEND
8
Halfen
0
POLYLINE
8
Halfen
62
7
66
1
10
0.0
20
0.0
30
0.0
70
1
0
VERTEX
8
Halfen
62
7
10
 679.25
20
-60
30
0
0
VERTEX
8
Halfen
62
7
10
 679.25
20
 60
30
0
0
VERTEX
8
Halfen
62
7
10
 668.75
20
 60
30
0
0
VERTEX
8
Halfen
62
7
10
 668.75
20
-60
30
0
0
SEQEND
8
Halfen
0
POLYLINE
8
Halfen
62
7
66
1
10
0.0
20
0.0
30
0.0
70
1
0
VERTEX
8
Halfen
62
7
10
 680
20
 60
30
0
0
VERTEX
8
Halfen
62
7
10
 680
20
 62
30
0
0
VERTEX
8
Halfen
62
7
10
 668
20
 62
30
0
0
VERTEX
8
Halfen
62
7
10
 668
20
 60
30
0
0
SEQEND
8
Halfen
0
POLYLINE
8
Halfen
62
7
66
1
10
0.0
20
0.0
30
0.0
70
1
0
VERTEX
8
Halfen
62
7
10
 679.25
20
 62
30
0
0
VERTEX
8
Halfen
62
7
10
 679.25
20
 160
30
0
0
VERTEX
8
Halfen
62
7
10
 668.75
20
 160
30
0
0
VERTEX
8
Halfen
62
7
10
 668.75
20
 62
30
0
0
SEQEND
8
Halfen
0
POLYLINE
8
Halfen
62
7
66
1
10
0.0
20
0.0
30
0.0
70
1
0
VERTEX
8
Halfen
62
7
10
 680
20
 160
30
0
0
VERTEX
8
Halfen
62
7
10
 680
20
 775
30
0
0
VERTEX
8
Halfen
62
7
10
 668
20
 775
30
0
0
VERTEX
8
Halfen
62
7
10
 668
20
 160
30
0
0
SEQEND
8
Halfen
0
POLYLINE
8
Halfen
62
7
66
1
10
0.0
20
0.0
30
0.0
70
1
0
VERTEX
8
Halfen
62
7
10
 944
20
-775
30
0
0
VERTEX
8
Halfen
62
7
10
 944
20
-160
30
0
0
VERTEX
8
Halfen
62
7
10
 932
20
-160
30
0
0
VERTEX
8
Halfen
62
7
10
 932
20
-775
30
0
0
SEQEND
8
Halfen
0
POLYLINE
8
Halfen
62
7
66
1
10
0.0
20
0.0
30
0.0
70
1
0
VERTEX
8
Halfen
62
7
10
 943.25
20
-160
30
0
0
VERTEX
8
Halfen
62
7
10
 943.25
20
-62
30
0
0
VERTEX
8
Halfen
62
7
10
 932.75
20
-62
30
0
0
VERTEX
8
Halfen
62
7
10
 932.75
20
-160
30
0
0
SEQEND
8
Halfen
0
POLYLINE
8
Halfen
62
7
66
1
10
0.0
20
0.0
30
0.0
70
1
0
VERTEX
8
Halfen
62
7
10
 944
20
-62
30
0
0
VERTEX
8
Halfen
62
7
10
 944
20
-60
30
0
0
VERTEX
8
Halfen
62
7
10
 932
20
-60
30
0
0
VERTEX
8
Halfen
62
7
10
 932
20
-62
30
0
0
SEQEND
8
Halfen
0
POLYLINE
8
Halfen
62
7
66
1
10
0.0
20
0.0
30
0.0
70
1
0
VERTEX
8
Halfen
62
7
10
 943.25
20
-60
30
0
0
VERTEX
8
Halfen
62
7
10
 943.25
20
 60
30
0
0
VERTEX
8
Halfen
62
7
10
 932.75
20
 60
30
0
0
VERTEX
8
Halfen
62
7
10
 932.75
20
-60
30
0
0
SEQEND
8
Halfen
0
POLYLINE
8
Halfen
62
7
66
1
10
0.0
20
0.0
30
0.0
70
1
0
VERTEX
8
Halfen
62
7
10
 944
20
 60
30
0
0
VERTEX
8
Halfen
62
7
10
 944
20
 62
30
0
0
VERTEX
8
Halfen
62
7
10
 932
20
 62
30
0
0
VERTEX
8
Halfen
62
7
10
 932
20
 60
30
0
0
SEQEND
8
Halfen
0
POLYLINE
8
Halfen
62
7
66
1
10
0.0
20
0.0
30
0.0
70
1
0
VERTEX
8
Halfen
62
7
10
 943.25
20
 62
30
0
0
VERTEX
8
Halfen
62
7
10
 943.25
20
 160
30
0
0
VERTEX
8
Halfen
62
7
10
 932.75
20
 160
30
0
0
VERTEX
8
Halfen
62
7
10
 932.75
20
 62
30
0
0
SEQEND
8
Halfen
0
POLYLINE
8
Halfen
62
7
66
1
10
0.0
20
0.0
30
0.0
70
1
0
VERTEX
8
Halfen
62
7
10
 944
20
 160
30
0
0
VERTEX
8
Halfen
62
7
10
 944
20
 775
30
0
0
VERTEX
8
Halfen
62
7
10
 932
20
 775
30
0
0
VERTEX
8
Halfen
62
7
10
 932
20
 160
30
0
0
SEQEND
8
Halfen
0
POLYLINE
8
Halfen
62
7
66
1
10
0.0
20
0.0
30
0.0
70
1
0
VERTEX
8
Halfen
62
7
10
 98
20
-700.923
30
0
0
VERTEX
8
Halfen
62
7
10
 98
20
 160.757
30
0
0
VERTEX
8
Halfen
62
7
10
 88
20
 160.757
30
0
0
VERTEX
8
Halfen
62
7
10
 88
20
-700.923
30
0
0
SEQEND
8
Halfen
0
POLYLINE
8
Halfen
62
7
66
1
10
0.0
20
0.0
30
0.0
70
1
0
VERTEX
8
Halfen
62
7
10
 98
20
 160.757
30
0
0
VERTEX
8
Halfen
62
7
10
 98
20
 699.757
30
0
0
VERTEX
8
Halfen
62
7
10
 88
20
 699.757
30
0
0
VERTEX
8
Halfen
62
7
10
 88
20
 160.757
30
0
0
SEQEND
8
Halfen
0
POLYLINE
8
Halfen
62
7
66
1
10
0.0
20
0.0
30
0.0
70
1
0
VERTEX
8
Halfen
62
7
10
 108
20
-699.757
30
0
0
VERTEX
8
Halfen
62
7
10
 108
20
 161.923
30
0
0
VERTEX
8
Halfen
62
7
10
 98
20
 161.923
30
0
0
VERTEX
8
Halfen
62
7
10
 98
20
-699.757
30
0
0
SEQEND
8
Halfen
0
POLYLINE
8
Halfen
62
7
66
1
10
0.0
20
0.0
30
0.0
70
1
0
VERTEX
8
Halfen
62
7
10
 108
20
 161.923
30
0
0
VERTEX
8
Halfen
62
7
10
 108
20
 700.923
30
0
0
VERTEX
8
Halfen
62
7
10
 98
20
 700.923
30
0
0
VERTEX
8
Halfen
62
7
10
 98
20
 161.923
30
0
0
SEQEND
8
Halfen
0
POLYLINE
8
Halfen
62
7
66
1
10
0.0
20
0.0
30
0.0
70
1
0
VERTEX
8
Halfen
62
7
10
 230
20
-700.923
30
0
0
VERTEX
8
Halfen
62
7
10
 230
20
 160.757
30
0
0
VERTEX
8
Halfen
62
7
10
 220
20
 160.757
30
0
0
VERTEX
8
Halfen
62
7
10
 220
20
-700.923
30
0
0
SEQEND
8
Halfen
0
POLYLINE
8
Halfen
62
7
66
1
10
0.0
20
0.0
30
0.0
70
1
0
VERTEX
8
Halfen
62
7
10
 230
20
 160.757
30
0
0
VERTEX
8
Halfen
62
7
10
 230
20
 699.757
30
0
0
VERTEX
8
Halfen
62
7
10
 220
20
 699.757
30
0
0
VERTEX
8
Halfen
62
7
10
 220
20
 160.757
30
0
0
SEQEND
8
Halfen
0
POLYLINE
8
Halfen
62
7
66
1
10
0.0
20
0.0
30
0.0
70
1
0
VERTEX
8
Halfen
62
7
10
 240
20
-699.757
30
0
0
VERTEX
8
Halfen
62
7
10
 240
20
 161.923
30
0
0
VERTEX
8
Halfen
62
7
10
 230
20
 161.923
30
0
0
VERTEX
8
Halfen
62
7
10
 230
20
-699.757
30
0
0
SEQEND
8
Halfen
0
POLYLINE
8
Halfen
62
7
66
1
10
0.0
20
0.0
30
0.0
70
1
0
VERTEX
8
Halfen
62
7
10
 240
20
 161.923
30
0
0
VERTEX
8
Halfen
62
7
10
 240
20
 700.923
30
0
0
VERTEX
8
Halfen
62
7
10
 230
20
 700.923
30
0
0
VERTEX
8
Halfen
62
7
10
 230
20
 161.923
30
0
0
SEQEND
8
Halfen
0
POLYLINE
8
Halfen
62
7
66
1
10
0.0
20
0.0
30
0.0
70
1
0
VERTEX
8
Halfen
62
7
10
 362
20
-700.923
30
0
0
VERTEX
8
Halfen
62
7
10
 362
20
 160.757
30
0
0
VERTEX
8
Halfen
62
7
10
 352
20
 160.757
30
0
0
VERTEX
8
Halfen
62
7
10
 352
20
-700.923
30
0
0
SEQEND
8
Halfen
0
POLYLINE
8
Halfen
62
7
66
1
10
0.0
20
0.0
30
0.0
70
1
0
VERTEX
8
Halfen
62
7
10
 362
20
 160.757
30
0
0
VERTEX
8
Halfen
62
7
10
 362
20
 699.757
30
0
0
VERTEX
8
Halfen
62
7
10
 352
20
 699.757
30
0
0
VERTEX
8
Halfen
62
7
10
 352
20
 160.757
30
0
0
SEQEND
8
Halfen
0
POLYLINE
8
Halfen
62
7
66
1
10
0.0
20
0.0
30
0.0
70
1
0
VERTEX
8
Halfen
62
7
10
 372
20
-699.757
30
0
0
VERTEX
8
Halfen
62
7
10
 372
20
 161.923
30
0
0
VERTEX
8
Halfen
62
7
10
 362
20
 161.923
30
0
0
VERTEX
8
Halfen
62
7
10
 362
20
-699.757
30
0
0
SEQEND
8
Halfen
0
POLYLINE
8
Halfen
62
7
66
1
10
0.0
20
0.0
30
0.0
70
1
0
VERTEX
8
Halfen
62
7
10
 372
20
 161.923
30
0
0
VERTEX
8
Halfen
62
7
10
 372
20
 700.923
30
0
0
VERTEX
8
Halfen
62
7
10
 362
20
 700.923
30
0
0
VERTEX
8
Halfen
62
7
10
 362
20
 161.923
30
0
0
SEQEND
8
Halfen
0
POLYLINE
8
Halfen
62
7
66
1
10
0.0
20
0.0
30
0.0
70
1
0
VERTEX
8
Halfen
62
7
10
 626
20
-700.923
30
0
0
VERTEX
8
Halfen
62
7
10
 626
20
 160.757
30
0
0
VERTEX
8
Halfen
62
7
10
 616
20
 160.757
30
0
0
VERTEX
8
Halfen
62
7
10
 616
20
-700.923
30
0
0
SEQEND
8
Halfen
0
POLYLINE
8
Halfen
62
7
66
1
10
0.0
20
0.0
30
0.0
70
1
0
VERTEX
8
Halfen
62
7
10
 626
20
 160.757
30
0
0
VERTEX
8
Halfen
62
7
10
 626
20
 699.757
30
0
0
VERTEX
8
Halfen
62
7
10
 616
20
 699.757
30
0
0
VERTEX
8
Halfen
62
7
10
 616
20
 160.757
30
0
0
SEQEND
8
Halfen
0
POLYLINE
8
Halfen
62
7
66
1
10
0.0
20
0.0
30
0.0
70
1
0
VERTEX
8
Halfen
62
7
10
 636
20
-699.757
30
0
0
VERTEX
8
Halfen
62
7
10
 636
20
 161.923
30
0
0
VERTEX
8
Halfen
62
7
10
 626
20
 161.923
30
0
0
VERTEX
8
Halfen
62
7
10
 626
20
-699.757
30
0
0
SEQEND
8
Halfen
0
POLYLINE
8
Halfen
62
7
66
1
10
0.0
20
0.0
30
0.0
70
1
0
VERTEX
8
Halfen
62
7
10
 636
20
 161.923
30
0
0
VERTEX
8
Halfen
62
7
10
 636
20
 700.923
30
0
0
VERTEX
8
Halfen
62
7
10
 626
20
 700.923
30
0
0
VERTEX
8
Halfen
62
7
10
 626
20
 161.923
30
0
0
SEQEND
8
Halfen
0
POLYLINE
8
Halfen
62
7
66
1
10
0.0
20
0.0
30
0.0
70
1
0
VERTEX
8
Halfen
62
7
10
 758
20
-700.923
30
0
0
VERTEX
8
Halfen
62
7
10
 758
20
 160.757
30
0
0
VERTEX
8
Halfen
62
7
10
 748
20
 160.757
30
0
0
VERTEX
8
Halfen
62
7
10
 748
20
-700.923
30
0
0
SEQEND
8
Halfen
0
POLYLINE
8
Halfen
62
7
66
1
10
0.0
20
0.0
30
0.0
70
1
0
VERTEX
8
Halfen
62
7
10
 758
20
 160.757
30
0
0
VERTEX
8
Halfen
62
7
10
 758
20
 699.757
30
0
0
VERTEX
8
Halfen
62
7
10
 748
20
 699.757
30
0
0
VERTEX
8
Halfen
62
7
10
 748
20
 160.757
30
0
0
SEQEND
8
Halfen
0
POLYLINE
8
Halfen
62
7
66
1
10
0.0
20
0.0
30
0.0
70
1
0
VERTEX
8
Halfen
62
7
10
 768
20
-699.757
30
0
0
VERTEX
8
Halfen
62
7
10
 768
20
 161.923
30
0
0
VERTEX
8
Halfen
62
7
10
 758
20
 161.923
30
0
0
VERTEX
8
Halfen
62
7
10
 758
20
-699.757
30
0
0
SEQEND
8
Halfen
0
POLYLINE
8
Halfen
62
7
66
1
10
0.0
20
0.0
30
0.0
70
1
0
VERTEX
8
Halfen
62
7
10
 768
20
 161.923
30
0
0
VERTEX
8
Halfen
62
7
10
 768
20
 700.923
30
0
0
VERTEX
8
Halfen
62
7
10
 758
20
 700.923
30
0
0
VERTEX
8
Halfen
62
7
10
 758
20
 161.923
30
0
0
SEQEND
8
Halfen
0
POLYLINE
8
Halfen
62
7
66
1
10
0.0
20
0.0
30
0.0
70
1
0
VERTEX
8
Halfen
62
7
10
 890
20
-700.923
30
0
0
VERTEX
8
Halfen
62
7
10
 890
20
 160.757
30
0
0
VERTEX
8
Halfen
62
7
10
 880
20
 160.757
30
0
0
VERTEX
8
Halfen
62
7
10
 880
20
-700.923
30
0
0
SEQEND
8
Halfen
0
POLYLINE
8
Halfen
62
7
66
1
10
0.0
20
0.0
30
0.0
70
1
0
VERTEX
8
Halfen
62
7
10
 890
20
 160.757
30
0
0
VERTEX
8
Halfen
62
7
10
 890
20
 699.757
30
0
0
VERTEX
8
Halfen
62
7
10
 880
20
 699.757
30
0
0
VERTEX
8
Halfen
62
7
10
 880
20
 160.757
30
0
0
SEQEND
8
Halfen
0
POLYLINE
8
Halfen
62
7
66
1
10
0.0
20
0.0
30
0.0
70
1
0
VERTEX
8
Halfen
62
7
10
 900
20
-699.757
30
0
0
VERTEX
8
Halfen
62
7
10
 900
20
 161.923
30
0
0
VERTEX
8
Halfen
62
7
10
 890
20
 161.923
30
0
0
VERTEX
8
Halfen
62
7
10
 890
20
-699.757
30
0
0
SEQEND
8
Halfen
0
POLYLINE
8
Halfen
62
7
66
1
10
0.0
20
0.0
30
0.0
70
1
0
VERTEX
8
Halfen
62
7
10
 900
20
 161.923
30
0
0
VERTEX
8
Halfen
62
7
10
 900
20
 700.923
30
0
0
VERTEX
8
Halfen
62
7
10
 890
20
 700.923
30
0
0
VERTEX
8
Halfen
62
7
10
 890
20
 161.923
30
0
0
SEQEND
8
Halfen
0
POLYLINE
8
Halfen
62
7
66
1
10
0.0
20
0.0
30
0.0
70
1
0
VERTEX
8
Halfen
62
7
10
 1440
20
-60
30
0
0
VERTEX
8
Halfen
62
7
10
 1440
20
 60
30
0
0
VERTEX
8
Halfen
62
7
10
 1426.5
20
 73.5
30
0
0
VERTEX
8
Halfen
62
7
10
 1426.5
20
 60
30
0
0
VERTEX
8
Halfen
62
7
10
 1250
20
 60
30
0
0
VERTEX
8
Halfen
62
7
10
 1250
20
-60
30
0
0
VERTEX
8
Halfen
62
7
10
 1426.5
20
-60
30
0
0
VERTEX
8
Halfen
62
7
10
 1426.5
20
-73.5
30
0
0
SEQEND
8
Halfen
0
POLYLINE
8
Halfen
62
7
66
1
10
0.0
20
0.0
30
0.0
70
1
0
VERTEX
8
Halfen
62
7
10
 1250
20
-60
30
0
0
VERTEX
8
Halfen
62
7
10
 1250
20
 60
30
0
0
VERTEX
8
Halfen
62
7
10
 1213.5
20
 60
30
0
0
VERTEX
8
Halfen
62
7
10
 1213.5
20
 73.5
30
0
0
VERTEX
8
Halfen
62
7
10
 1200
20
 60
30
0
0
VERTEX
8
Halfen
62
7
10
 1200
20
-60
30
0
0
VERTEX
8
Halfen
62
7
10
 1213.5
20
-73.5
30
0
0
VERTEX
8
Halfen
62
7
10
 1213.5
20
-60
30
0
0
SEQEND
8
Halfen
0
POLYLINE
8
Halfen
62
7
66
1
10
0.0
20
0.0
30
0.0
70
1
0
VERTEX
8
Halfen
62
7
10
 1437.5
20
-58.75
30
0
0
VERTEX
8
Halfen
62
7
10
 1437.5
20
 58.75
30
0
0
VERTEX
8
Halfen
62
7
10
 1429
20
 67.25
30
0
0
VERTEX
8
Halfen
62
7
10
 1429
20
 58
30
0
0
VERTEX
8
Halfen
62
7
10
 1252
20
 58
30
0
0
VERTEX
8
Halfen
62
7
10
 1252
20
-58
30
0
0
VERTEX
8
Halfen
62
7
10
 1429
20
-58
30
0
0
VERTEX
8
Halfen
62
7
10
 1429
20
-67.25
30
0
0
SEQEND
8
Halfen
0
POLYLINE
8
Halfen
62
7
66
1
10
0.0
20
0.0
30
0.0
70
1
0
VERTEX
8
Halfen
62
7
10
 1248
20
-58
30
0
0
VERTEX
8
Halfen
62
7
10
 1248
20
 58
30
0
0
VERTEX
8
Halfen
62
7
10
 1211
20
 58
30
0
0
VERTEX
8
Halfen
62
7
10
 1211
20
 67.25
30
0
0
VERTEX
8
Halfen
62
7
10
 1202.5
20
 58.75
30
0
0
VERTEX
8
Halfen
62
7
10
 1202.5
20
-58.75
30
0
0
VERTEX
8
Halfen
62
7
10
 1211
20
-67.25
30
0
0
VERTEX
8
Halfen
62
7
10
 1211
20
-58
30
0
0
SEQEND
8
Halfen
0
POLYLINE
8
Halfen
62
7
66
1
10
0.0
20
0.0
30
0.0
70
1
0
VERTEX
8
Halfen
62
7
10
 1242
20
-775
30
0
0
VERTEX
8
Halfen
62
7
10
 1242
20
-160
30
0
0
VERTEX
8
Halfen
62
7
10
 1230
20
-160
30
0
0
VERTEX
8
Halfen
62
7
10
 1230
20
-775
30
0
0
SEQEND
8
Halfen
0
POLYLINE
8
Halfen
62
7
66
1
10
0.0
20
0.0
30
0.0
70
1
0
VERTEX
8
Halfen
62
7
10
 1241.25
20
-160
30
0
0
VERTEX
8
Halfen
62
7
10
 1241.25
20
-62
30
0
0
VERTEX
8
Halfen
62
7
10
 1230.75
20
-62
30
0
0
VERTEX
8
Halfen
62
7
10
 1230.75
20
-160
30
0
0
SEQEND
8
Halfen
0
POLYLINE
8
Halfen
62
7
66
1
10
0.0
20
0.0
30
0.0
70
1
0
VERTEX
8
Halfen
62
7
10
 1242
20
-62
30
0
0
VERTEX
8
Halfen
62
7
10
 1242
20
-60
30
0
0
VERTEX
8
Halfen
62
7
10
 1230
20
-60
30
0
0
VERTEX
8
Halfen
62
7
10
 1230
20
-62
30
0
0
SEQEND
8
Halfen
0
POLYLINE
8
Halfen
62
7
66
1
10
0.0
20
0.0
30
0.0
70
1
0
VERTEX
8
Halfen
62
7
10
 1241.25
20
-60
30
0
0
VERTEX
8
Halfen
62
7
10
 1241.25
20
 60
30
0
0
VERTEX
8
Halfen
62
7
10
 1230.75
20
 60
30
0
0
VERTEX
8
Halfen
62
7
10
 1230.75
20
-60
30
0
0
SEQEND
8
Halfen
0
POLYLINE
8
Halfen
62
7
66
1
10
0.0
20
0.0
30
0.0
70
1
0
VERTEX
8
Halfen
62
7
10
 1242
20
 60
30
0
0
VERTEX
8
Halfen
62
7
10
 1242
20
 62
30
0
0
VERTEX
8
Halfen
62
7
10
 1230
20
 62
30
0
0
VERTEX
8
Halfen
62
7
10
 1230
20
 60
30
0
0
SEQEND
8
Halfen
0
POLYLINE
8
Halfen
62
7
66
1
10
0.0
20
0.0
30
0.0
70
1
0
VERTEX
8
Halfen
62
7
10
 1241.25
20
 62
30
0
0
VERTEX
8
Halfen
62
7
10
 1241.25
20
 160
30
0
0
VERTEX
8
Halfen
62
7
10
 1230.75
20
 160
30
0
0
VERTEX
8
Halfen
62
7
10
 1230.75
20
 62
30
0
0
SEQEND
8
Halfen
0
POLYLINE
8
Halfen
62
7
66
1
10
0.0
20
0.0
30
0.0
70
1
0
VERTEX
8
Halfen
62
7
10
 1242
20
 160
30
0
0
VERTEX
8
Halfen
62
7
10
 1242
20
 775
30
0
0
VERTEX
8
Halfen
62
7
10
 1230
20
 775
30
0
0
VERTEX
8
Halfen
62
7
10
 1230
20
 160
30
0
0
SEQEND
8
Halfen
0
POLYLINE
8
Halfen
62
7
66
1
10
0.0
20
0.0
30
0.0
70
1
0
VERTEX
8
Halfen
62
7
10
 1410
20
-775
30
0
0
VERTEX
8
Halfen
62
7
10
 1410
20
-160
30
0
0
VERTEX
8
Halfen
62
7
10
 1398
20
-160
30
0
0
VERTEX
8
Halfen
62
7
10
 1398
20
-775
30
0
0
SEQEND
8
Halfen
0
POLYLINE
8
Halfen
62
7
66
1
10
0.0
20
0.0
30
0.0
70
1
0
VERTEX
8
Halfen
62
7
10
 1409.25
20
-160
30
0
0
VERTEX
8
Halfen
62
7
10
 1409.25
20
-62
30
0
0
VERTEX
8
Halfen
62
7
10
 1398.75
20
-62
30
0
0
VERTEX
8
Halfen
62
7
10
 1398.75
20
-160
30
0
0
SEQEND
8
Halfen
0
POLYLINE
8
Halfen
62
7
66
1
10
0.0
20
0.0
30
0.0
70
1
0
VERTEX
8
Halfen
62
7
10
 1410
20
-62
30
0
0
VERTEX
8
Halfen
62
7
10
 1410
20
-60
30
0
0
VERTEX
8
Halfen
62
7
10
 1398
20
-60
30
0
0
VERTEX
8
Halfen
62
7
10
 1398
20
-62
30
0
0
SEQEND
8
Halfen
0
POLYLINE
8
Halfen
62
7
66
1
10
0.0
20
0.0
30
0.0
70
1
0
VERTEX
8
Halfen
62
7
10
 1409.25
20
-60
30
0
0
VERTEX
8
Halfen
62
7
10
 1409.25
20
 60
30
0
0
VERTEX
8
Halfen
62
7
10
 1398.75
20
 60
30
0
0
VERTEX
8
Halfen
62
7
10
 1398.75
20
-60
30
0
0
SEQEND
8
Halfen
0
POLYLINE
8
Halfen
62
7
66
1
10
0.0
20
0.0
30
0.0
70
1
0
VERTEX
8
Halfen
62
7
10
 1410
20
 60
30
0
0
VERTEX
8
Halfen
62
7
10
 1410
20
 62
30
0
0
VERTEX
8
Halfen
62
7
10
 1398
20
 62
30
0
0
VERTEX
8
Halfen
62
7
10
 1398
20
 60
30
0
0
SEQEND
8
Halfen
0
POLYLINE
8
Halfen
62
7
66
1
10
0.0
20
0.0
30
0.0
70
1
0
VERTEX
8
Halfen
62
7
10
 1409.25
20
 62
30
0
0
VERTEX
8
Halfen
62
7
10
 1409.25
20
 160
30
0
0
VERTEX
8
Halfen
62
7
10
 1398.75
20
 160
30
0
0
VERTEX
8
Halfen
62
7
10
 1398.75
20
 62
30
0
0
SEQEND
8
Halfen
0
POLYLINE
8
Halfen
62
7
66
1
10
0.0
20
0.0
30
0.0
70
1
0
VERTEX
8
Halfen
62
7
10
 1410
20
 160
30
0
0
VERTEX
8
Halfen
62
7
10
 1410
20
 775
30
0
0
VERTEX
8
Halfen
62
7
10
 1398
20
 775
30
0
0
VERTEX
8
Halfen
62
7
10
 1398
20
 160
30
0
0
SEQEND
8
Halfen
0
POLYLINE
8
Halfen
62
7
66
1
10
0.0
20
0.0
30
0.0
70
1
0
VERTEX
8
Halfen
62
7
10
 1410
20
-700.923
30
0
0
VERTEX
8
Halfen
62
7
10
 1410
20
-97.174
30
0
0
VERTEX
8
Halfen
62
7
10
 1409.466
20
-90.658
30
0
0
VERTEX
8
Halfen
62
7
10
 1407.877
20
-84.316
30
0
0
VERTEX
8
Halfen
62
7
10
 1405.277
20
-78.318
30
0
0
VERTEX
8
Halfen
62
7
10
 1401.734
20
-72.823
30
0
0
VERTEX
8
Halfen
62
7
10
 1286.199
20
 77.745
30
0
0
VERTEX
8
Halfen
62
7
10
 1283.542
20
 81.865
30
0
0
VERTEX
8
Halfen
62
7
10
 1281.592
20
 86.364
30
0
0
VERTEX
8
Halfen
62
7
10
 1280.401
20
 91.121
30
0
0
VERTEX
8
Halfen
62
7
10
 1280
20
 96.007
30
0
0
VERTEX
8
Halfen
62
7
10
 1280
20
 160.757
30
0
0
VERTEX
8
Halfen
62
7
10
 1270
20
 160.757
30
0
0
VERTEX
8
Halfen
62
7
10
 1270
20
 96.007
30
0
0
VERTEX
8
Halfen
62
7
10
 1270.534
20
 89.492
30
0
0
VERTEX
8
Halfen
62
7
10
 1272.123
20
 83.15
30
0
0
VERTEX
8
Halfen
62
7
10
 1274.723
20
 77.152
30
0
0
VERTEX
8
Halfen
62
7
10
 1278.266
20
 71.657
30
0
0
VERTEX
8
Halfen
62
7
10
 1393.801
20
-78.911
30
0
0
VERTEX
8
Halfen
62
7
10
 1396.458
20
-83.032
30
0
0
VERTEX
8
Halfen
62
7
10
 1398.408
20
-87.531
30
0
0
VERTEX
8
Halfen
62
7
10
 1399.599
20
-92.287
30
0
0
VERTEX
8
Halfen
62
7
10
 1400
20
-97.174
30
0
0
VERTEX
8
Halfen
62
7
10
 1400
20
-700.923
30
0
0
SEQEND
8
Halfen
0
POLYLINE
8
Halfen
62
7
66
1
10
0.0
20
0.0
30
0.0
70
1
0
VERTEX
8
Halfen
62
7
10
 1280
20
 160.757
30
0
0
VERTEX
8
Halfen
62
7
10
 1280
20
 699.757
30
0
0
VERTEX
8
Halfen
62
7
10
 1270
20
 699.757
30
0
0
VERTEX
8
Halfen
62
7
10
 1270
20
 160.757
30
0
0
SEQEND
8
Halfen
0
POLYLINE
8
Halfen
62
7
66
1
10
0.0
20
0.0
30
0.0
70
1
0
VERTEX
8
Halfen
62
7
10
 1270
20
-699.757
30
0
0
VERTEX
8
Halfen
62
7
10
 1270
20
-96.007
30
0
0
VERTEX
8
Halfen
62
7
10
 1270.534
20
-89.492
30
0
0
VERTEX
8
Halfen
62
7
10
 1272.123
20
-83.15
30
0
0
VERTEX
8
Halfen
62
7
10
 1274.723
20
-77.152
30
0
0
VERTEX
8
Halfen
62
7
10
 1278.266
20
-71.657
30
0
0
VERTEX
8
Halfen
62
7
10
 1393.801
20
 78.911
30
0
0
VERTEX
8
Halfen
62
7
10
 1396.458
20
 83.032
30
0
0
VERTEX
8
Halfen
62
7
10
 1398.408
20
 87.53
30
0
0
VERTEX
8
Halfen
62
7
10
 1399.599
20
 92.287
30
0
0
VERTEX
8
Halfen
62
7
10
 1400
20
 97.174
30
0
0
VERTEX
8
Halfen
62
7
10
 1400
20
 161.923
30
0
0
VERTEX
8
Halfen
62
7
10
 1410
20
 161.923
30
0
0
VERTEX
8
Halfen
62
7
10
 1410
20
 97.174
30
0
0
VERTEX
8
Halfen
62
7
10
 1409.466
20
 90.658
30
0
0
VERTEX
8
Halfen
62
7
10
 1407.877
20
 84.316
30
0
0
VERTEX
8
Halfen
62
7
10
 1405.277
20
 78.318
30
0
0
VERTEX
8
Halfen
62
7
10
 1401.734
20
 72.823
30
0
0
VERTEX
8
Halfen
62
7
10
 1286.199
20
-77.745
30
0
0
VERTEX
8
Halfen
62
7
10
 1283.542
20
-81.866
30
0
0
VERTEX
8
Halfen
62
7
10
 1281.592
20
-86.364
30
0
0
VERTEX
8
Halfen
62
7
10
 1280.401
20
-91.121
30
0
0
VERTEX
8
Halfen
62
7
10
 1280
20
-96.007
30
0
0
VERTEX
8
Halfen
62
7
10
 1280
20
-699.757
30
0
0
SEQEND
8
Halfen
0
POLYLINE
8
Halfen
62
7
66
1
10
0.0
20
0.0
30
0.0
70
1
0
VERTEX
8
Halfen
62
7
10
 1400
20
 161.923
30
0
0
VERTEX
8
Halfen
62
7
10
 1400
20
 700.923
30
0
0
VERTEX
8
Halfen
62
7
10
 1410
20
 700.923
30
0
0
VERTEX
8
Halfen
62
7
10
 1410
20
 161.923
30
0
0
SEQEND
8
Halfen
0
ENDSEC
0
EOF
