0
SECTION
2
HEADER
9
$EXTMIN
10
 0
20
 100
30
0.0
9
$EXTMAX
10
 0
20
 100
30
0.0
9
$LIMMIN
10
 100
20
 0
9
$LIMMAX
10
 0
20
 100
9
$PSLTSCALE
70
1
0
ENDSEC
0
SECTION
2
TABLES
0
TABLE
2
LAYER
70
2
0
LAYER
2
0
70
0
62
7
6
CONTINUOUS
0
LAYER
2
Halfen
70
0
62
7
6
CONTINUOUS
0
ENDTAB
0
ENDSEC
0
SECTION
2
ENTITIES
0
POLYLINE
8
Halfen
62
7
66
1
10
0.0
20
0.0
30
0.0
70
1
0
VERTEX
8
Halfen
62
7
10
 0
20
-73.5
30
0
0
VERTEX
8
Halfen
62
7
10
 250
20
-73.5
30
0
0
VERTEX
8
Halfen
62
7
10
 250
20
 73.5
30
0
0
VERTEX
8
Halfen
62
7
10
 0
20
 73.5
30
0
0
SEQEND
8
Halfen
0
POLYLINE
8
Halfen
62
7
66
1
10
0.0
20
0.0
30
0.0
70
1
0
VERTEX
8
Halfen
62
7
10
 0
20
-60
30
0
0
VERTEX
8
Halfen
62
7
10
 250
20
-60
30
0
0
VERTEX
8
Halfen
62
7
10
 250
20
 60
30
0
0
VERTEX
8
Halfen
62
7
10
 0
20
 60
30
0
0
SEQEND
8
Halfen
0
POLYLINE
8
Halfen
62
7
66
1
10
0.0
20
0.0
30
0.0
70
1
0
VERTEX
8
Halfen
62
7
10
 20
20
-32.5
30
0
0
VERTEX
8
Halfen
62
7
10
 37
20
-1.5
30
0
0
VERTEX
8
Halfen
62
7
10
 28
20
-1.5
30
0
0
VERTEX
8
Halfen
62
7
10
 28
20
 32.5
30
0
0
VERTEX
8
Halfen
62
7
10
 12
20
 32.5
30
0
0
VERTEX
8
Halfen
62
7
10
 12
20
-1.5
30
0
0
VERTEX
8
Halfen
62
7
10
 3
20
-1.5
30
0
0
SEQEND
8
Halfen
0
POLYLINE
8
Halfen
62
7
66
1
10
0.0
20
0.0
30
0.0
70
1
0
VERTEX
8
Halfen
62
7
10
 230
20
-32.5
30
0
0
VERTEX
8
Halfen
62
7
10
 247
20
-1.5
30
0
0
VERTEX
8
Halfen
62
7
10
 238
20
-1.5
30
0
0
VERTEX
8
Halfen
62
7
10
 238
20
 32.5
30
0
0
VERTEX
8
Halfen
62
7
10
 222
20
 32.5
30
0
0
VERTEX
8
Halfen
62
7
10
 222
20
-1.5
30
0
0
VERTEX
8
Halfen
62
7
10
 213
20
-1.5
30
0
0
SEQEND
8
Halfen
0
POLYLINE
8
Halfen
62
7
66
1
10
0.0
20
0.0
30
0.0
70
1
0
VERTEX
8
Halfen
62
7
10
 97
20
-69.3
30
0
0
VERTEX
8
Halfen
62
7
10
 97
20
-56.8
30
0
0
VERTEX
8
Halfen
62
7
10
 97
20
 69.3
30
0
0
VERTEX
8
Halfen
62
7
10
 96.958
20
 70.359
30
0
0
VERTEX
8
Halfen
62
7
10
 96.834
20
 71.412
30
0
0
VERTEX
8
Halfen
62
7
10
 96.627
20
 72.452
30
0
0
VERTEX
8
Halfen
62
7
10
 96.339
20
 73.472
30
0
0
VERTEX
8
Halfen
62
7
10
 95.972
20
 74.466
30
0
0
VERTEX
8
Halfen
62
7
10
 95.529
20
 75.429
30
0
0
VERTEX
8
Halfen
62
7
10
 95.011
20
 76.354
30
0
0
VERTEX
8
Halfen
62
7
10
 94.422
20
 77.235
30
0
0
VERTEX
8
Halfen
62
7
10
 93.765
20
 78.068
30
0
0
VERTEX
8
Halfen
62
7
10
 93.046
20
 78.846
30
0
0
VERTEX
8
Halfen
62
7
10
 92.268
20
 79.565
30
0
0
VERTEX
8
Halfen
62
7
10
 91.435
20
 80.222
30
0
0
VERTEX
8
Halfen
62
7
10
 90.554
20
 80.811
30
0
0
VERTEX
8
Halfen
62
7
10
 89.629
20
 81.329
30
0
0
VERTEX
8
Halfen
62
7
10
 88.666
20
 81.772
30
0
0
VERTEX
8
Halfen
62
7
10
 87.672
20
 82.139
30
0
0
VERTEX
8
Halfen
62
7
10
 86.652
20
 82.427
30
0
0
VERTEX
8
Halfen
62
7
10
 85.612
20
 82.634
30
0
0
VERTEX
8
Halfen
62
7
10
 84.559
20
 82.758
30
0
0
VERTEX
8
Halfen
62
7
10
 83.5
20
 82.8
30
0
0
VERTEX
8
Halfen
62
7
10
 80.5
20
 82.8
30
0
0
VERTEX
8
Halfen
62
7
10
 79.441
20
 82.758
30
0
0
VERTEX
8
Halfen
62
7
10
 78.388
20
 82.634
30
0
0
VERTEX
8
Halfen
62
7
10
 77.348
20
 82.427
30
0
0
VERTEX
8
Halfen
62
7
10
 76.328
20
 82.139
30
0
0
VERTEX
8
Halfen
62
7
10
 75.334
20
 81.772
30
0
0
VERTEX
8
Halfen
62
7
10
 74.371
20
 81.329
30
0
0
VERTEX
8
Halfen
62
7
10
 73.446
20
 80.811
30
0
0
VERTEX
8
Halfen
62
7
10
 72.565
20
 80.222
30
0
0
VERTEX
8
Halfen
62
7
10
 71.732
20
 79.565
30
0
0
VERTEX
8
Halfen
62
7
10
 70.954
20
 78.846
30
0
0
VERTEX
8
Halfen
62
7
10
 70.235
20
 78.068
30
0
0
VERTEX
8
Halfen
62
7
10
 69.578
20
 77.235
30
0
0
VERTEX
8
Halfen
62
7
10
 68.989
20
 76.354
30
0
0
VERTEX
8
Halfen
62
7
10
 68.471
20
 75.429
30
0
0
VERTEX
8
Halfen
62
7
10
 68.028
20
 74.466
30
0
0
VERTEX
8
Halfen
62
7
10
 67.661
20
 73.472
30
0
0
VERTEX
8
Halfen
62
7
10
 67.373
20
 72.452
30
0
0
VERTEX
8
Halfen
62
7
10
 67.166
20
 71.412
30
0
0
VERTEX
8
Halfen
62
7
10
 67.042
20
 70.359
30
0
0
VERTEX
8
Halfen
62
7
10
 67
20
 69.3
30
0
0
VERTEX
8
Halfen
62
7
10
 67
20
-56.8
30
0
0
VERTEX
8
Halfen
62
7
10
 67
20
-69.3
30
0
0
VERTEX
8
Halfen
62
7
10
 67.042
20
-70.359
30
0
0
VERTEX
8
Halfen
62
7
10
 67.166
20
-71.412
30
0
0
VERTEX
8
Halfen
62
7
10
 67.373
20
-72.452
30
0
0
VERTEX
8
Halfen
62
7
10
 67.661
20
-73.472
30
0
0
VERTEX
8
Halfen
62
7
10
 68.028
20
-74.466
30
0
0
VERTEX
8
Halfen
62
7
10
 68.471
20
-75.429
30
0
0
VERTEX
8
Halfen
62
7
10
 68.989
20
-76.354
30
0
0
VERTEX
8
Halfen
62
7
10
 69.578
20
-77.235
30
0
0
VERTEX
8
Halfen
62
7
10
 70.235
20
-78.068
30
0
0
VERTEX
8
Halfen
62
7
10
 70.954
20
-78.846
30
0
0
VERTEX
8
Halfen
62
7
10
 71.732
20
-79.565
30
0
0
VERTEX
8
Halfen
62
7
10
 72.565
20
-80.222
30
0
0
VERTEX
8
Halfen
62
7
10
 73.446
20
-80.811
30
0
0
VERTEX
8
Halfen
62
7
10
 74.371
20
-81.329
30
0
0
VERTEX
8
Halfen
62
7
10
 75.334
20
-81.772
30
0
0
VERTEX
8
Halfen
62
7
10
 76.328
20
-82.139
30
0
0
VERTEX
8
Halfen
62
7
10
 77.348
20
-82.427
30
0
0
VERTEX
8
Halfen
62
7
10
 78.388
20
-82.634
30
0
0
VERTEX
8
Halfen
62
7
10
 79.441
20
-82.758
30
0
0
VERTEX
8
Halfen
62
7
10
 80.5
20
-82.8
30
0
0
VERTEX
8
Halfen
62
7
10
 83.5
20
-82.8
30
0
0
VERTEX
8
Halfen
62
7
10
 84.559
20
-82.758
30
0
0
VERTEX
8
Halfen
62
7
10
 85.612
20
-82.634
30
0
0
VERTEX
8
Halfen
62
7
10
 86.652
20
-82.427
30
0
0
VERTEX
8
Halfen
62
7
10
 87.672
20
-82.139
30
0
0
VERTEX
8
Halfen
62
7
10
 88.666
20
-81.772
30
0
0
VERTEX
8
Halfen
62
7
10
 89.629
20
-81.329
30
0
0
VERTEX
8
Halfen
62
7
10
 90.554
20
-80.811
30
0
0
VERTEX
8
Halfen
62
7
10
 91.435
20
-80.222
30
0
0
VERTEX
8
Halfen
62
7
10
 92.268
20
-79.565
30
0
0
VERTEX
8
Halfen
62
7
10
 93.046
20
-78.846
30
0
0
VERTEX
8
Halfen
62
7
10
 93.765
20
-78.068
30
0
0
VERTEX
8
Halfen
62
7
10
 94.422
20
-77.235
30
0
0
VERTEX
8
Halfen
62
7
10
 95.011
20
-76.354
30
0
0
VERTEX
8
Halfen
62
7
10
 95.529
20
-75.429
30
0
0
VERTEX
8
Halfen
62
7
10
 95.972
20
-74.466
30
0
0
VERTEX
8
Halfen
62
7
10
 96.339
20
-73.472
30
0
0
VERTEX
8
Halfen
62
7
10
 96.627
20
-72.452
30
0
0
VERTEX
8
Halfen
62
7
10
 96.834
20
-71.412
30
0
0
VERTEX
8
Halfen
62
7
10
 96.958
20
-70.359
30
0
0
VERTEX
8
Halfen
62
7
10
 97
20
-69.3
30
0
0
SEQEND
8
Halfen
0
POLYLINE
8
Halfen
62
7
66
1
10
0.0
20
0.0
30
0.0
70
1
0
VERTEX
8
Halfen
62
7
10
 183
20
-69.3
30
0
0
VERTEX
8
Halfen
62
7
10
 183
20
-56.8
30
0
0
VERTEX
8
Halfen
62
7
10
 183
20
 69.3
30
0
0
VERTEX
8
Halfen
62
7
10
 182.958
20
 70.359
30
0
0
VERTEX
8
Halfen
62
7
10
 182.834
20
 71.412
30
0
0
VERTEX
8
Halfen
62
7
10
 182.627
20
 72.452
30
0
0
VERTEX
8
Halfen
62
7
10
 182.339
20
 73.472
30
0
0
VERTEX
8
Halfen
62
7
10
 181.972
20
 74.466
30
0
0
VERTEX
8
Halfen
62
7
10
 181.529
20
 75.429
30
0
0
VERTEX
8
Halfen
62
7
10
 181.011
20
 76.354
30
0
0
VERTEX
8
Halfen
62
7
10
 180.422
20
 77.235
30
0
0
VERTEX
8
Halfen
62
7
10
 179.765
20
 78.068
30
0
0
VERTEX
8
Halfen
62
7
10
 179.046
20
 78.846
30
0
0
VERTEX
8
Halfen
62
7
10
 178.268
20
 79.565
30
0
0
VERTEX
8
Halfen
62
7
10
 177.435
20
 80.222
30
0
0
VERTEX
8
Halfen
62
7
10
 176.554
20
 80.811
30
0
0
VERTEX
8
Halfen
62
7
10
 175.629
20
 81.329
30
0
0
VERTEX
8
Halfen
62
7
10
 174.666
20
 81.772
30
0
0
VERTEX
8
Halfen
62
7
10
 173.672
20
 82.139
30
0
0
VERTEX
8
Halfen
62
7
10
 172.652
20
 82.427
30
0
0
VERTEX
8
Halfen
62
7
10
 171.612
20
 82.634
30
0
0
VERTEX
8
Halfen
62
7
10
 170.559
20
 82.758
30
0
0
VERTEX
8
Halfen
62
7
10
 169.5
20
 82.8
30
0
0
VERTEX
8
Halfen
62
7
10
 166.5
20
 82.8
30
0
0
VERTEX
8
Halfen
62
7
10
 165.441
20
 82.758
30
0
0
VERTEX
8
Halfen
62
7
10
 164.388
20
 82.634
30
0
0
VERTEX
8
Halfen
62
7
10
 163.348
20
 82.427
30
0
0
VERTEX
8
Halfen
62
7
10
 162.328
20
 82.139
30
0
0
VERTEX
8
Halfen
62
7
10
 161.334
20
 81.772
30
0
0
VERTEX
8
Halfen
62
7
10
 160.371
20
 81.329
30
0
0
VERTEX
8
Halfen
62
7
10
 159.446
20
 80.811
30
0
0
VERTEX
8
Halfen
62
7
10
 158.565
20
 80.222
30
0
0
VERTEX
8
Halfen
62
7
10
 157.732
20
 79.565
30
0
0
VERTEX
8
Halfen
62
7
10
 156.954
20
 78.846
30
0
0
VERTEX
8
Halfen
62
7
10
 156.235
20
 78.068
30
0
0
VERTEX
8
Halfen
62
7
10
 155.578
20
 77.235
30
0
0
VERTEX
8
Halfen
62
7
10
 154.989
20
 76.354
30
0
0
VERTEX
8
Halfen
62
7
10
 154.471
20
 75.429
30
0
0
VERTEX
8
Halfen
62
7
10
 154.028
20
 74.466
30
0
0
VERTEX
8
Halfen
62
7
10
 153.661
20
 73.472
30
0
0
VERTEX
8
Halfen
62
7
10
 153.373
20
 72.452
30
0
0
VERTEX
8
Halfen
62
7
10
 153.166
20
 71.412
30
0
0
VERTEX
8
Halfen
62
7
10
 153.042
20
 70.359
30
0
0
VERTEX
8
Halfen
62
7
10
 153
20
 69.3
30
0
0
VERTEX
8
Halfen
62
7
10
 153
20
-56.8
30
0
0
VERTEX
8
Halfen
62
7
10
 153
20
-69.3
30
0
0
VERTEX
8
Halfen
62
7
10
 153.042
20
-70.359
30
0
0
VERTEX
8
Halfen
62
7
10
 153.166
20
-71.412
30
0
0
VERTEX
8
Halfen
62
7
10
 153.373
20
-72.452
30
0
0
VERTEX
8
Halfen
62
7
10
 153.661
20
-73.472
30
0
0
VERTEX
8
Halfen
62
7
10
 154.028
20
-74.466
30
0
0
VERTEX
8
Halfen
62
7
10
 154.471
20
-75.429
30
0
0
VERTEX
8
Halfen
62
7
10
 154.989
20
-76.354
30
0
0
VERTEX
8
Halfen
62
7
10
 155.578
20
-77.235
30
0
0
VERTEX
8
Halfen
62
7
10
 156.235
20
-78.068
30
0
0
VERTEX
8
Halfen
62
7
10
 156.954
20
-78.846
30
0
0
VERTEX
8
Halfen
62
7
10
 157.732
20
-79.565
30
0
0
VERTEX
8
Halfen
62
7
10
 158.565
20
-80.222
30
0
0
VERTEX
8
Halfen
62
7
10
 159.446
20
-80.811
30
0
0
VERTEX
8
Halfen
62
7
10
 160.371
20
-81.329
30
0
0
VERTEX
8
Halfen
62
7
10
 161.334
20
-81.772
30
0
0
VERTEX
8
Halfen
62
7
10
 162.328
20
-82.139
30
0
0
VERTEX
8
Halfen
62
7
10
 163.348
20
-82.427
30
0
0
VERTEX
8
Halfen
62
7
10
 164.388
20
-82.634
30
0
0
VERTEX
8
Halfen
62
7
10
 165.441
20
-82.758
30
0
0
VERTEX
8
Halfen
62
7
10
 166.5
20
-82.8
30
0
0
VERTEX
8
Halfen
62
7
10
 169.5
20
-82.8
30
0
0
VERTEX
8
Halfen
62
7
10
 170.559
20
-82.758
30
0
0
VERTEX
8
Halfen
62
7
10
 171.612
20
-82.634
30
0
0
VERTEX
8
Halfen
62
7
10
 172.652
20
-82.427
30
0
0
VERTEX
8
Halfen
62
7
10
 173.672
20
-82.139
30
0
0
VERTEX
8
Halfen
62
7
10
 174.666
20
-81.772
30
0
0
VERTEX
8
Halfen
62
7
10
 175.629
20
-81.329
30
0
0
VERTEX
8
Halfen
62
7
10
 176.554
20
-80.811
30
0
0
VERTEX
8
Halfen
62
7
10
 177.435
20
-80.222
30
0
0
VERTEX
8
Halfen
62
7
10
 178.268
20
-79.565
30
0
0
VERTEX
8
Halfen
62
7
10
 179.046
20
-78.846
30
0
0
VERTEX
8
Halfen
62
7
10
 179.765
20
-78.068
30
0
0
VERTEX
8
Halfen
62
7
10
 180.422
20
-77.235
30
0
0
VERTEX
8
Halfen
62
7
10
 181.011
20
-76.354
30
0
0
VERTEX
8
Halfen
62
7
10
 181.529
20
-75.429
30
0
0
VERTEX
8
Halfen
62
7
10
 181.972
20
-74.466
30
0
0
VERTEX
8
Halfen
62
7
10
 182.339
20
-73.472
30
0
0
VERTEX
8
Halfen
62
7
10
 182.627
20
-72.452
30
0
0
VERTEX
8
Halfen
62
7
10
 182.834
20
-71.412
30
0
0
VERTEX
8
Halfen
62
7
10
 182.958
20
-70.359
30
0
0
VERTEX
8
Halfen
62
7
10
 183
20
-69.3
30
0
0
SEQEND
8
Halfen
0
POLYLINE
8
Halfen
62
7
66
1
10
0.0
20
0.0
30
0.0
70
1
0
VERTEX
8
Halfen
62
7
10
 71
20
-775
30
0
0
VERTEX
8
Halfen
62
7
10
 71
20
-160
30
0
0
VERTEX
8
Halfen
62
7
10
 59
20
-160
30
0
0
VERTEX
8
Halfen
62
7
10
 59
20
-775
30
0
0
SEQEND
8
Halfen
0
POLYLINE
8
Halfen
62
7
66
1
10
0.0
20
0.0
30
0.0
70
1
0
VERTEX
8
Halfen
62
7
10
 70.25
20
-160
30
0
0
VERTEX
8
Halfen
62
7
10
 70.25
20
-62
30
0
0
VERTEX
8
Halfen
62
7
10
 59.75
20
-62
30
0
0
VERTEX
8
Halfen
62
7
10
 59.75
20
-160
30
0
0
SEQEND
8
Halfen
0
POLYLINE
8
Halfen
62
7
66
1
10
0.0
20
0.0
30
0.0
70
1
0
VERTEX
8
Halfen
62
7
10
 71
20
-62
30
0
0
VERTEX
8
Halfen
62
7
10
 71
20
-60
30
0
0
VERTEX
8
Halfen
62
7
10
 59
20
-60
30
0
0
VERTEX
8
Halfen
62
7
10
 59
20
-62
30
0
0
SEQEND
8
Halfen
0
POLYLINE
8
Halfen
62
7
66
1
10
0.0
20
0.0
30
0.0
70
1
0
VERTEX
8
Halfen
62
7
10
 70.25
20
-60
30
0
0
VERTEX
8
Halfen
62
7
10
 70.25
20
 60
30
0
0
VERTEX
8
Halfen
62
7
10
 59.75
20
 60
30
0
0
VERTEX
8
Halfen
62
7
10
 59.75
20
-60
30
0
0
SEQEND
8
Halfen
0
POLYLINE
8
Halfen
62
7
66
1
10
0.0
20
0.0
30
0.0
70
1
0
VERTEX
8
Halfen
62
7
10
 71
20
 60
30
0
0
VERTEX
8
Halfen
62
7
10
 71
20
 62
30
0
0
VERTEX
8
Halfen
62
7
10
 59
20
 62
30
0
0
VERTEX
8
Halfen
62
7
10
 59
20
 60
30
0
0
SEQEND
8
Halfen
0
POLYLINE
8
Halfen
62
7
66
1
10
0.0
20
0.0
30
0.0
70
1
0
VERTEX
8
Halfen
62
7
10
 70.25
20
 62
30
0
0
VERTEX
8
Halfen
62
7
10
 70.25
20
 160
30
0
0
VERTEX
8
Halfen
62
7
10
 59.75
20
 160
30
0
0
VERTEX
8
Halfen
62
7
10
 59.75
20
 62
30
0
0
SEQEND
8
Halfen
0
POLYLINE
8
Halfen
62
7
66
1
10
0.0
20
0.0
30
0.0
70
1
0
VERTEX
8
Halfen
62
7
10
 71
20
 160
30
0
0
VERTEX
8
Halfen
62
7
10
 71
20
 775
30
0
0
VERTEX
8
Halfen
62
7
10
 59
20
 775
30
0
0
VERTEX
8
Halfen
62
7
10
 59
20
 160
30
0
0
SEQEND
8
Halfen
0
POLYLINE
8
Halfen
62
7
66
1
10
0.0
20
0.0
30
0.0
70
1
0
VERTEX
8
Halfen
62
7
10
 131
20
-775
30
0
0
VERTEX
8
Halfen
62
7
10
 131
20
-160
30
0
0
VERTEX
8
Halfen
62
7
10
 119
20
-160
30
0
0
VERTEX
8
Halfen
62
7
10
 119
20
-775
30
0
0
SEQEND
8
Halfen
0
POLYLINE
8
Halfen
62
7
66
1
10
0.0
20
0.0
30
0.0
70
1
0
VERTEX
8
Halfen
62
7
10
 130.25
20
-160
30
0
0
VERTEX
8
Halfen
62
7
10
 130.25
20
-62
30
0
0
VERTEX
8
Halfen
62
7
10
 119.75
20
-62
30
0
0
VERTEX
8
Halfen
62
7
10
 119.75
20
-160
30
0
0
SEQEND
8
Halfen
0
POLYLINE
8
Halfen
62
7
66
1
10
0.0
20
0.0
30
0.0
70
1
0
VERTEX
8
Halfen
62
7
10
 131
20
-62
30
0
0
VERTEX
8
Halfen
62
7
10
 131
20
-60
30
0
0
VERTEX
8
Halfen
62
7
10
 119
20
-60
30
0
0
VERTEX
8
Halfen
62
7
10
 119
20
-62
30
0
0
SEQEND
8
Halfen
0
POLYLINE
8
Halfen
62
7
66
1
10
0.0
20
0.0
30
0.0
70
1
0
VERTEX
8
Halfen
62
7
10
 130.25
20
-60
30
0
0
VERTEX
8
Halfen
62
7
10
 130.25
20
 60
30
0
0
VERTEX
8
Halfen
62
7
10
 119.75
20
 60
30
0
0
VERTEX
8
Halfen
62
7
10
 119.75
20
-60
30
0
0
SEQEND
8
Halfen
0
POLYLINE
8
Halfen
62
7
66
1
10
0.0
20
0.0
30
0.0
70
1
0
VERTEX
8
Halfen
62
7
10
 131
20
 60
30
0
0
VERTEX
8
Halfen
62
7
10
 131
20
 62
30
0
0
VERTEX
8
Halfen
62
7
10
 119
20
 62
30
0
0
VERTEX
8
Halfen
62
7
10
 119
20
 60
30
0
0
SEQEND
8
Halfen
0
POLYLINE
8
Halfen
62
7
66
1
10
0.0
20
0.0
30
0.0
70
1
0
VERTEX
8
Halfen
62
7
10
 130.25
20
 62
30
0
0
VERTEX
8
Halfen
62
7
10
 130.25
20
 160
30
0
0
VERTEX
8
Halfen
62
7
10
 119.75
20
 160
30
0
0
VERTEX
8
Halfen
62
7
10
 119.75
20
 62
30
0
0
SEQEND
8
Halfen
0
POLYLINE
8
Halfen
62
7
66
1
10
0.0
20
0.0
30
0.0
70
1
0
VERTEX
8
Halfen
62
7
10
 131
20
 160
30
0
0
VERTEX
8
Halfen
62
7
10
 131
20
 775
30
0
0
VERTEX
8
Halfen
62
7
10
 119
20
 775
30
0
0
VERTEX
8
Halfen
62
7
10
 119
20
 160
30
0
0
SEQEND
8
Halfen
0
POLYLINE
8
Halfen
62
7
66
1
10
0.0
20
0.0
30
0.0
70
1
0
VERTEX
8
Halfen
62
7
10
 191
20
-775
30
0
0
VERTEX
8
Halfen
62
7
10
 191
20
-160
30
0
0
VERTEX
8
Halfen
62
7
10
 179
20
-160
30
0
0
VERTEX
8
Halfen
62
7
10
 179
20
-775
30
0
0
SEQEND
8
Halfen
0
POLYLINE
8
Halfen
62
7
66
1
10
0.0
20
0.0
30
0.0
70
1
0
VERTEX
8
Halfen
62
7
10
 190.25
20
-160
30
0
0
VERTEX
8
Halfen
62
7
10
 190.25
20
-62
30
0
0
VERTEX
8
Halfen
62
7
10
 179.75
20
-62
30
0
0
VERTEX
8
Halfen
62
7
10
 179.75
20
-160
30
0
0
SEQEND
8
Halfen
0
POLYLINE
8
Halfen
62
7
66
1
10
0.0
20
0.0
30
0.0
70
1
0
VERTEX
8
Halfen
62
7
10
 191
20
-62
30
0
0
VERTEX
8
Halfen
62
7
10
 191
20
-60
30
0
0
VERTEX
8
Halfen
62
7
10
 179
20
-60
30
0
0
VERTEX
8
Halfen
62
7
10
 179
20
-62
30
0
0
SEQEND
8
Halfen
0
POLYLINE
8
Halfen
62
7
66
1
10
0.0
20
0.0
30
0.0
70
1
0
VERTEX
8
Halfen
62
7
10
 190.25
20
-60
30
0
0
VERTEX
8
Halfen
62
7
10
 190.25
20
 60
30
0
0
VERTEX
8
Halfen
62
7
10
 179.75
20
 60
30
0
0
VERTEX
8
Halfen
62
7
10
 179.75
20
-60
30
0
0
SEQEND
8
Halfen
0
POLYLINE
8
Halfen
62
7
66
1
10
0.0
20
0.0
30
0.0
70
1
0
VERTEX
8
Halfen
62
7
10
 191
20
 60
30
0
0
VERTEX
8
Halfen
62
7
10
 191
20
 62
30
0
0
VERTEX
8
Halfen
62
7
10
 179
20
 62
30
0
0
VERTEX
8
Halfen
62
7
10
 179
20
 60
30
0
0
SEQEND
8
Halfen
0
POLYLINE
8
Halfen
62
7
66
1
10
0.0
20
0.0
30
0.0
70
1
0
VERTEX
8
Halfen
62
7
10
 190.25
20
 62
30
0
0
VERTEX
8
Halfen
62
7
10
 190.25
20
 160
30
0
0
VERTEX
8
Halfen
62
7
10
 179.75
20
 160
30
0
0
VERTEX
8
Halfen
62
7
10
 179.75
20
 62
30
0
0
SEQEND
8
Halfen
0
POLYLINE
8
Halfen
62
7
66
1
10
0.0
20
0.0
30
0.0
70
1
0
VERTEX
8
Halfen
62
7
10
 191
20
 160
30
0
0
VERTEX
8
Halfen
62
7
10
 191
20
 775
30
0
0
VERTEX
8
Halfen
62
7
10
 179
20
 775
30
0
0
VERTEX
8
Halfen
62
7
10
 179
20
 160
30
0
0
SEQEND
8
Halfen
0
POLYLINE
8
Halfen
62
7
66
1
10
0.0
20
0.0
30
0.0
70
1
0
VERTEX
8
Halfen
62
7
10
 700
20
-60
30
0
0
VERTEX
8
Halfen
62
7
10
 700
20
 60
30
0
0
VERTEX
8
Halfen
62
7
10
 686.5
20
 73.5
30
0
0
VERTEX
8
Halfen
62
7
10
 686.5
20
 60
30
0
0
VERTEX
8
Halfen
62
7
10
 520
20
 60
30
0
0
VERTEX
8
Halfen
62
7
10
 520
20
-60
30
0
0
VERTEX
8
Halfen
62
7
10
 686.5
20
-60
30
0
0
VERTEX
8
Halfen
62
7
10
 686.5
20
-73.5
30
0
0
SEQEND
8
Halfen
0
POLYLINE
8
Halfen
62
7
66
1
10
0.0
20
0.0
30
0.0
70
1
0
VERTEX
8
Halfen
62
7
10
 520
20
-60
30
0
0
VERTEX
8
Halfen
62
7
10
 520
20
 60
30
0
0
VERTEX
8
Halfen
62
7
10
 463.5
20
 60
30
0
0
VERTEX
8
Halfen
62
7
10
 463.5
20
 73.5
30
0
0
VERTEX
8
Halfen
62
7
10
 450
20
 60
30
0
0
VERTEX
8
Halfen
62
7
10
 450
20
-60
30
0
0
VERTEX
8
Halfen
62
7
10
 463.5
20
-73.5
30
0
0
VERTEX
8
Halfen
62
7
10
 463.5
20
-60
30
0
0
SEQEND
8
Halfen
0
POLYLINE
8
Halfen
62
7
66
1
10
0.0
20
0.0
30
0.0
70
1
0
VERTEX
8
Halfen
62
7
10
 697.5
20
-58.75
30
0
0
VERTEX
8
Halfen
62
7
10
 697.5
20
 58.75
30
0
0
VERTEX
8
Halfen
62
7
10
 689
20
 67.25
30
0
0
VERTEX
8
Halfen
62
7
10
 689
20
 58
30
0
0
VERTEX
8
Halfen
62
7
10
 522
20
 58
30
0
0
VERTEX
8
Halfen
62
7
10
 522
20
-58
30
0
0
VERTEX
8
Halfen
62
7
10
 689
20
-58
30
0
0
VERTEX
8
Halfen
62
7
10
 689
20
-67.25
30
0
0
SEQEND
8
Halfen
0
POLYLINE
8
Halfen
62
7
66
1
10
0.0
20
0.0
30
0.0
70
1
0
VERTEX
8
Halfen
62
7
10
 518
20
-58
30
0
0
VERTEX
8
Halfen
62
7
10
 518
20
 58
30
0
0
VERTEX
8
Halfen
62
7
10
 461
20
 58
30
0
0
VERTEX
8
Halfen
62
7
10
 461
20
 67.25
30
0
0
VERTEX
8
Halfen
62
7
10
 452.5
20
 58.75
30
0
0
VERTEX
8
Halfen
62
7
10
 452.5
20
-58.75
30
0
0
VERTEX
8
Halfen
62
7
10
 461
20
-67.25
30
0
0
VERTEX
8
Halfen
62
7
10
 461
20
-58
30
0
0
SEQEND
8
Halfen
0
POLYLINE
8
Halfen
62
7
66
1
10
0.0
20
0.0
30
0.0
70
1
0
VERTEX
8
Halfen
62
7
10
 685
20
-81.8
30
0
0
VERTEX
8
Halfen
62
7
10
 685
20
 81.8
30
0
0
VERTEX
8
Halfen
62
7
10
 681
20
 81.8
30
0
0
VERTEX
8
Halfen
62
7
10
 680.846
20
 81.797
30
0
0
VERTEX
8
Halfen
62
7
10
 680.691
20
 81.786
30
0
0
VERTEX
8
Halfen
62
7
10
 680.538
20
 81.769
30
0
0
VERTEX
8
Halfen
62
7
10
 680.385
20
 81.746
30
0
0
VERTEX
8
Halfen
62
7
10
 680.234
20
 81.715
30
0
0
VERTEX
8
Halfen
62
7
10
 680.084
20
 81.678
30
0
0
VERTEX
8
Halfen
62
7
10
 679.936
20
 81.634
30
0
0
VERTEX
8
Halfen
62
7
10
 679.789
20
 81.584
30
0
0
VERTEX
8
Halfen
62
7
10
 679.646
20
 81.527
30
0
0
VERTEX
8
Halfen
62
7
10
 679.505
20
 81.464
30
0
0
VERTEX
8
Halfen
62
7
10
 679.366
20
 81.395
30
0
0
VERTEX
8
Halfen
62
7
10
 679.231
20
 81.32
30
0
0
VERTEX
8
Halfen
62
7
10
 679.1
20
 81.239
30
0
0
VERTEX
8
Halfen
62
7
10
 678.972
20
 81.153
30
0
0
VERTEX
8
Halfen
62
7
10
 678.848
20
 81.06
30
0
0
VERTEX
8
Halfen
62
7
10
 678.728
20
 80.963
30
0
0
VERTEX
8
Halfen
62
7
10
 678.613
20
 80.86
30
0
0
VERTEX
8
Halfen
62
7
10
 678.502
20
 80.752
30
0
0
VERTEX
8
Halfen
62
7
10
 678.397
20
 80.639
30
0
0
VERTEX
8
Halfen
62
7
10
 678.296
20
 80.522
30
0
0
VERTEX
8
Halfen
62
7
10
 677.41
20
 79.491
30
0
0
VERTEX
8
Halfen
62
7
10
 676.479
20
 78.5
30
0
0
VERTEX
8
Halfen
62
7
10
 675.505
20
 77.551
30
0
0
VERTEX
8
Halfen
62
7
10
 674.491
20
 76.646
30
0
0
VERTEX
8
Halfen
62
7
10
 673.437
20
 75.787
30
0
0
VERTEX
8
Halfen
62
7
10
 672.347
20
 74.975
30
0
0
VERTEX
8
Halfen
62
7
10
 671.222
20
 74.211
30
0
0
VERTEX
8
Halfen
62
7
10
 670.064
20
 73.499
30
0
0
VERTEX
8
Halfen
62
7
10
 668.876
20
 72.838
30
0
0
VERTEX
8
Halfen
62
7
10
 667.66
20
 72.23
30
0
0
VERTEX
8
Halfen
62
7
10
 666.418
20
 71.676
30
0
0
VERTEX
8
Halfen
62
7
10
 665.153
20
 71.178
30
0
0
VERTEX
8
Halfen
62
7
10
 663.867
20
 70.736
30
0
0
VERTEX
8
Halfen
62
7
10
 662.563
20
 70.351
30
0
0
VERTEX
8
Halfen
62
7
10
 661.243
20
 70.024
30
0
0
VERTEX
8
Halfen
62
7
10
 659.911
20
 69.756
30
0
0
VERTEX
8
Halfen
62
7
10
 658.567
20
 69.547
30
0
0
VERTEX
8
Halfen
62
7
10
 657.216
20
 69.397
30
0
0
VERTEX
8
Halfen
62
7
10
 655.859
20
 69.307
30
0
0
VERTEX
8
Halfen
62
7
10
 654.5
20
 69.277
30
0
0
VERTEX
8
Halfen
62
7
10
 632.5
20
 69.277
30
0
0
VERTEX
8
Halfen
62
7
10
 631.141
20
 69.307
30
0
0
VERTEX
8
Halfen
62
7
10
 629.784
20
 69.397
30
0
0
VERTEX
8
Halfen
62
7
10
 628.433
20
 69.547
30
0
0
VERTEX
8
Halfen
62
7
10
 627.089
20
 69.756
30
0
0
VERTEX
8
Halfen
62
7
10
 625.757
20
 70.024
30
0
0
VERTEX
8
Halfen
62
7
10
 624.437
20
 70.351
30
0
0
VERTEX
8
Halfen
62
7
10
 623.133
20
 70.736
30
0
0
VERTEX
8
Halfen
62
7
10
 621.847
20
 71.178
30
0
0
VERTEX
8
Halfen
62
7
10
 620.582
20
 71.676
30
0
0
VERTEX
8
Halfen
62
7
10
 619.34
20
 72.23
30
0
0
VERTEX
8
Halfen
62
7
10
 618.124
20
 72.838
30
0
0
VERTEX
8
Halfen
62
7
10
 616.936
20
 73.499
30
0
0
VERTEX
8
Halfen
62
7
10
 615.778
20
 74.211
30
0
0
VERTEX
8
Halfen
62
7
10
 614.653
20
 74.975
30
0
0
VERTEX
8
Halfen
62
7
10
 613.563
20
 75.787
30
0
0
VERTEX
8
Halfen
62
7
10
 612.509
20
 76.646
30
0
0
VERTEX
8
Halfen
62
7
10
 611.495
20
 77.551
30
0
0
VERTEX
8
Halfen
62
7
10
 610.521
20
 78.5
30
0
0
VERTEX
8
Halfen
62
7
10
 609.59
20
 79.491
30
0
0
VERTEX
8
Halfen
62
7
10
 608.704
20
 80.522
30
0
0
VERTEX
8
Halfen
62
7
10
 608.603
20
 80.639
30
0
0
VERTEX
8
Halfen
62
7
10
 608.498
20
 80.752
30
0
0
VERTEX
8
Halfen
62
7
10
 608.387
20
 80.86
30
0
0
VERTEX
8
Halfen
62
7
10
 608.272
20
 80.963
30
0
0
VERTEX
8
Halfen
62
7
10
 608.152
20
 81.06
30
0
0
VERTEX
8
Halfen
62
7
10
 608.028
20
 81.153
30
0
0
VERTEX
8
Halfen
62
7
10
 607.9
20
 81.239
30
0
0
VERTEX
8
Halfen
62
7
10
 607.769
20
 81.32
30
0
0
VERTEX
8
Halfen
62
7
10
 607.634
20
 81.395
30
0
0
VERTEX
8
Halfen
62
7
10
 607.495
20
 81.464
30
0
0
VERTEX
8
Halfen
62
7
10
 607.354
20
 81.527
30
0
0
VERTEX
8
Halfen
62
7
10
 607.211
20
 81.584
30
0
0
VERTEX
8
Halfen
62
7
10
 607.064
20
 81.634
30
0
0
VERTEX
8
Halfen
62
7
10
 606.916
20
 81.678
30
0
0
VERTEX
8
Halfen
62
7
10
 606.766
20
 81.715
30
0
0
VERTEX
8
Halfen
62
7
10
 606.615
20
 81.746
30
0
0
VERTEX
8
Halfen
62
7
10
 606.462
20
 81.769
30
0
0
VERTEX
8
Halfen
62
7
10
 606.309
20
 81.786
30
0
0
VERTEX
8
Halfen
62
7
10
 606.154
20
 81.797
30
0
0
VERTEX
8
Halfen
62
7
10
 606
20
 81.8
30
0
0
VERTEX
8
Halfen
62
7
10
 602
20
 81.8
30
0
0
VERTEX
8
Halfen
62
7
10
 602
20
-81.8
30
0
0
VERTEX
8
Halfen
62
7
10
 606
20
-81.8
30
0
0
VERTEX
8
Halfen
62
7
10
 606.154
20
-81.797
30
0
0
VERTEX
8
Halfen
62
7
10
 606.309
20
-81.786
30
0
0
VERTEX
8
Halfen
62
7
10
 606.462
20
-81.769
30
0
0
VERTEX
8
Halfen
62
7
10
 606.615
20
-81.746
30
0
0
VERTEX
8
Halfen
62
7
10
 606.766
20
-81.715
30
0
0
VERTEX
8
Halfen
62
7
10
 606.916
20
-81.678
30
0
0
VERTEX
8
Halfen
62
7
10
 607.064
20
-81.634
30
0
0
VERTEX
8
Halfen
62
7
10
 607.211
20
-81.584
30
0
0
VERTEX
8
Halfen
62
7
10
 607.354
20
-81.527
30
0
0
VERTEX
8
Halfen
62
7
10
 607.495
20
-81.464
30
0
0
VERTEX
8
Halfen
62
7
10
 607.634
20
-81.395
30
0
0
VERTEX
8
Halfen
62
7
10
 607.769
20
-81.32
30
0
0
VERTEX
8
Halfen
62
7
10
 607.9
20
-81.239
30
0
0
VERTEX
8
Halfen
62
7
10
 608.028
20
-81.153
30
0
0
VERTEX
8
Halfen
62
7
10
 608.152
20
-81.06
30
0
0
VERTEX
8
Halfen
62
7
10
 608.272
20
-80.963
30
0
0
VERTEX
8
Halfen
62
7
10
 608.387
20
-80.86
30
0
0
VERTEX
8
Halfen
62
7
10
 608.498
20
-80.752
30
0
0
VERTEX
8
Halfen
62
7
10
 608.603
20
-80.639
30
0
0
VERTEX
8
Halfen
62
7
10
 608.704
20
-80.522
30
0
0
VERTEX
8
Halfen
62
7
10
 609.59
20
-79.491
30
0
0
VERTEX
8
Halfen
62
7
10
 610.521
20
-78.5
30
0
0
VERTEX
8
Halfen
62
7
10
 611.495
20
-77.551
30
0
0
VERTEX
8
Halfen
62
7
10
 612.509
20
-76.646
30
0
0
VERTEX
8
Halfen
62
7
10
 613.563
20
-75.787
30
0
0
VERTEX
8
Halfen
62
7
10
 614.653
20
-74.975
30
0
0
VERTEX
8
Halfen
62
7
10
 615.778
20
-74.211
30
0
0
VERTEX
8
Halfen
62
7
10
 616.936
20
-73.499
30
0
0
VERTEX
8
Halfen
62
7
10
 618.124
20
-72.838
30
0
0
VERTEX
8
Halfen
62
7
10
 619.34
20
-72.23
30
0
0
VERTEX
8
Halfen
62
7
10
 620.582
20
-71.676
30
0
0
VERTEX
8
Halfen
62
7
10
 621.847
20
-71.178
30
0
0
VERTEX
8
Halfen
62
7
10
 623.133
20
-70.736
30
0
0
VERTEX
8
Halfen
62
7
10
 624.437
20
-70.351
30
0
0
VERTEX
8
Halfen
62
7
10
 625.757
20
-70.024
30
0
0
VERTEX
8
Halfen
62
7
10
 627.089
20
-69.756
30
0
0
VERTEX
8
Halfen
62
7
10
 628.433
20
-69.547
30
0
0
VERTEX
8
Halfen
62
7
10
 629.784
20
-69.397
30
0
0
VERTEX
8
Halfen
62
7
10
 631.141
20
-69.307
30
0
0
VERTEX
8
Halfen
62
7
10
 632.5
20
-69.277
30
0
0
VERTEX
8
Halfen
62
7
10
 654.5
20
-69.277
30
0
0
VERTEX
8
Halfen
62
7
10
 655.859
20
-69.307
30
0
0
VERTEX
8
Halfen
62
7
10
 657.216
20
-69.397
30
0
0
VERTEX
8
Halfen
62
7
10
 658.567
20
-69.547
30
0
0
VERTEX
8
Halfen
62
7
10
 659.911
20
-69.756
30
0
0
VERTEX
8
Halfen
62
7
10
 661.243
20
-70.024
30
0
0
VERTEX
8
Halfen
62
7
10
 662.563
20
-70.351
30
0
0
VERTEX
8
Halfen
62
7
10
 663.867
20
-70.736
30
0
0
VERTEX
8
Halfen
62
7
10
 665.153
20
-71.178
30
0
0
VERTEX
8
Halfen
62
7
10
 666.418
20
-71.676
30
0
0
VERTEX
8
Halfen
62
7
10
 667.66
20
-72.23
30
0
0
VERTEX
8
Halfen
62
7
10
 668.876
20
-72.838
30
0
0
VERTEX
8
Halfen
62
7
10
 670.064
20
-73.499
30
0
0
VERTEX
8
Halfen
62
7
10
 671.222
20
-74.211
30
0
0
VERTEX
8
Halfen
62
7
10
 672.347
20
-74.975
30
0
0
VERTEX
8
Halfen
62
7
10
 673.437
20
-75.787
30
0
0
VERTEX
8
Halfen
62
7
10
 674.491
20
-76.646
30
0
0
VERTEX
8
Halfen
62
7
10
 675.505
20
-77.551
30
0
0
VERTEX
8
Halfen
62
7
10
 676.479
20
-78.5
30
0
0
VERTEX
8
Halfen
62
7
10
 677.41
20
-79.491
30
0
0
VERTEX
8
Halfen
62
7
10
 678.296
20
-80.522
30
0
0
VERTEX
8
Halfen
62
7
10
 678.397
20
-80.639
30
0
0
VERTEX
8
Halfen
62
7
10
 678.502
20
-80.752
30
0
0
VERTEX
8
Halfen
62
7
10
 678.613
20
-80.86
30
0
0
VERTEX
8
Halfen
62
7
10
 678.728
20
-80.963
30
0
0
VERTEX
8
Halfen
62
7
10
 678.848
20
-81.06
30
0
0
VERTEX
8
Halfen
62
7
10
 678.972
20
-81.153
30
0
0
VERTEX
8
Halfen
62
7
10
 679.1
20
-81.239
30
0
0
VERTEX
8
Halfen
62
7
10
 679.231
20
-81.32
30
0
0
VERTEX
8
Halfen
62
7
10
 679.366
20
-81.395
30
0
0
VERTEX
8
Halfen
62
7
10
 679.505
20
-81.464
30
0
0
VERTEX
8
Halfen
62
7
10
 679.646
20
-81.527
30
0
0
VERTEX
8
Halfen
62
7
10
 679.789
20
-81.584
30
0
0
VERTEX
8
Halfen
62
7
10
 679.936
20
-81.634
30
0
0
VERTEX
8
Halfen
62
7
10
 680.084
20
-81.678
30
0
0
VERTEX
8
Halfen
62
7
10
 680.234
20
-81.715
30
0
0
VERTEX
8
Halfen
62
7
10
 680.385
20
-81.746
30
0
0
VERTEX
8
Halfen
62
7
10
 680.538
20
-81.769
30
0
0
VERTEX
8
Halfen
62
7
10
 680.691
20
-81.786
30
0
0
VERTEX
8
Halfen
62
7
10
 680.846
20
-81.797
30
0
0
VERTEX
8
Halfen
62
7
10
 681
20
-81.8
30
0
0
SEQEND
8
Halfen
0
POLYLINE
8
Halfen
62
7
66
1
10
0.0
20
0.0
30
0.0
70
1
0
VERTEX
8
Halfen
62
7
10
 512
20
-775
30
0
0
VERTEX
8
Halfen
62
7
10
 512
20
-160
30
0
0
VERTEX
8
Halfen
62
7
10
 500
20
-160
30
0
0
VERTEX
8
Halfen
62
7
10
 500
20
-775
30
0
0
SEQEND
8
Halfen
0
POLYLINE
8
Halfen
62
7
66
1
10
0.0
20
0.0
30
0.0
70
1
0
VERTEX
8
Halfen
62
7
10
 511.25
20
-160
30
0
0
VERTEX
8
Halfen
62
7
10
 511.25
20
-62
30
0
0
VERTEX
8
Halfen
62
7
10
 500.75
20
-62
30
0
0
VERTEX
8
Halfen
62
7
10
 500.75
20
-160
30
0
0
SEQEND
8
Halfen
0
POLYLINE
8
Halfen
62
7
66
1
10
0.0
20
0.0
30
0.0
70
1
0
VERTEX
8
Halfen
62
7
10
 512
20
-62
30
0
0
VERTEX
8
Halfen
62
7
10
 512
20
-60
30
0
0
VERTEX
8
Halfen
62
7
10
 500
20
-60
30
0
0
VERTEX
8
Halfen
62
7
10
 500
20
-62
30
0
0
SEQEND
8
Halfen
0
POLYLINE
8
Halfen
62
7
66
1
10
0.0
20
0.0
30
0.0
70
1
0
VERTEX
8
Halfen
62
7
10
 511.25
20
-60
30
0
0
VERTEX
8
Halfen
62
7
10
 511.25
20
 60
30
0
0
VERTEX
8
Halfen
62
7
10
 500.75
20
 60
30
0
0
VERTEX
8
Halfen
62
7
10
 500.75
20
-60
30
0
0
SEQEND
8
Halfen
0
POLYLINE
8
Halfen
62
7
66
1
10
0.0
20
0.0
30
0.0
70
1
0
VERTEX
8
Halfen
62
7
10
 512
20
 60
30
0
0
VERTEX
8
Halfen
62
7
10
 512
20
 62
30
0
0
VERTEX
8
Halfen
62
7
10
 500
20
 62
30
0
0
VERTEX
8
Halfen
62
7
10
 500
20
 60
30
0
0
SEQEND
8
Halfen
0
POLYLINE
8
Halfen
62
7
66
1
10
0.0
20
0.0
30
0.0
70
1
0
VERTEX
8
Halfen
62
7
10
 511.25
20
 62
30
0
0
VERTEX
8
Halfen
62
7
10
 511.25
20
 160
30
0
0
VERTEX
8
Halfen
62
7
10
 500.75
20
 160
30
0
0
VERTEX
8
Halfen
62
7
10
 500.75
20
 62
30
0
0
SEQEND
8
Halfen
0
POLYLINE
8
Halfen
62
7
66
1
10
0.0
20
0.0
30
0.0
70
1
0
VERTEX
8
Halfen
62
7
10
 512
20
 160
30
0
0
VERTEX
8
Halfen
62
7
10
 512
20
 775
30
0
0
VERTEX
8
Halfen
62
7
10
 500
20
 775
30
0
0
VERTEX
8
Halfen
62
7
10
 500
20
 160
30
0
0
SEQEND
8
Halfen
0
ENDSEC
0
EOF
