  0
SECTION
  2
HEADER
  9
$ACADVER
  1
AC1032
  9
$ACADMAINTVER
 90
4
  9
$DWGCODEPAGE
  3
ANSI_1252
  9
$LASTSAVEDBY
  1
ezdxf
  9
$REQUIREDVERSIONS
160
0
  9
$INSBASE
 10
0.0
 20
0.0
 30
0.0
  9
$EXTMIN
 10
1e+20
 20
1e+20
 30
1e+20
  9
$EXTMAX
 10
-1e+20
 20
-1e+20
 30
-1e+20
  9
$LIMMIN
 10
0.0
 20
0.0
  9
$LIMMAX
 10
420.0
 20
297.0
  9
$ORTHOMODE
 70
0
  9
$REGENMODE
 70
1
  9
$FILLMODE
 70
1
  9
$QTEXTMODE
 70
0
  9
$MIRRTEXT
 70
1
  9
$LTSCALE
 40
1.0
  9
$ATTMODE
 70
1
  9
$TEXTSIZE
 40
2.5
  9
$TRACEWID
 40
1.0
  9
$TEXTSTYLE
  7
Standard
  9
$CLAYER
  8
0
  9
$CELTYPE
  6
ByLayer
  9
$CECOLOR
 62
256
  9
$CELTSCALE
 40
1.0
  9
$DISPSILH
 70
0
  9
$DIMSCALE
 40
1.0
  9
$DIMASZ
 40
2.5
  9
$DIMEXO
 40
0.625
  9
$DIMDLI
 40
3.75
  9
$DIMRND
 40
0.0
  9
$DIMDLE
 40
0.0
  9
$DIMEXE
 40
1.25
  9
$DIMTP
 40
0.0
  9
$DIMTM
 40
0.0
  9
$DIMTXT
 40
2.5
  9
$DIMCEN
 40
2.5
  9
$DIMTSZ
 40
0.0
  9
$DIMTOL
 70
0
  9
$DIMLIM
 70
0
  9
$DIMTIH
 70
0
  9
$DIMTOH
 70
0
  9
$DIMSE1
 70
0
  9
$DIMSE2
 70
0
  9
$DIMTAD
 70
1
  9
$DIMZIN
 70
8
  9
$DIMBLK
  1

  9
$DIMASO
 70
1
  9
$DIMSHO
 70
1
  9
$DIMPOST
  1

  9
$DIMAPOST
  1

  9
$DIMALT
 70
0
  9
$DIMALTD
 70
3
  9
$DIMALTF
 40
0.03937007874
  9
$DIMLFAC
 40
1.0
  9
$DIMTOFL
 70
1
  9
$DIMTVP
 40
0.0
  9
$DIMTIX
 70
0
  9
$DIMSOXD
 70
0
  9
$DIMSAH
 70
0
  9
$DIMBLK1
  1

  9
$DIMBLK2
  1

  9
$DIMSTYLE
  2
ISO-25
  9
$DIMCLRD
 70
0
  9
$DIMCLRE
 70
0
  9
$DIMCLRT
 70
0
  9
$DIMTFAC
 40
1.0
  9
$DIMGAP
 40
0.625
  9
$DIMJUST
 70
0
  9
$DIMSD1
 70
0
  9
$DIMSD2
 70
0
  9
$DIMTOLJ
 70
0
  9
$DIMTZIN
 70
8
  9
$DIMALTZ
 70
0
  9
$DIMALTTZ
 70
0
  9
$DIMUPT
 70
0
  9
$DIMDEC
 70
2
  9
$DIMTDEC
 70
2
  9
$DIMALTU
 70
2
  9
$DIMALTTD
 70
3
  9
$DIMTXSTY
  7
Standard
  9
$DIMAUNIT
 70
0
  9
$DIMADEC
 70
0
  9
$DIMALTRND
 40
0.0
  9
$DIMAZIN
 70
0
  9
$DIMDSEP
 70
44
  9
$DIMATFIT
 70
3
  9
$DIMFRAC
 70
0
  9
$DIMLDRBLK
  1

  9
$DIMLUNIT
 70
2
  9
$DIMLWD
 70
-2
  9
$DIMLWE
 70
-2
  9
$DIMTMOVE
 70
0
  9
$DIMFXL
 40
1.0
  9
$DIMFXLON
 70
0
  9
$DIMJOGANG
 40
0.785398163397
  9
$DIMTFILL
 70
0
  9
$DIMTFILLCLR
 70
0
  9
$DIMARCSYM
 70
0
  9
$DIMLTYPE
  6

  9
$DIMLTEX1
  6

  9
$DIMLTEX2
  6

  9
$DIMTXTDIRECTION
 70
0
  9
$LUNITS
 70
2
  9
$LUPREC
 70
4
  9
$SKETCHINC
 40
1.0
  9
$FILLETRAD
 40
10.0
  9
$AUNITS
 70
0
  9
$AUPREC
 70
2
  9
$MENU
  1
.
  9
$ELEVATION
 40
0.0
  9
$PELEVATION
 40
0.0
  9
$THICKNESS
 40
0.0
  9
$LIMCHECK
 70
0
  9
$CHAMFERA
 40
0.0
  9
$CHAMFERB
 40
0.0
  9
$CHAMFERC
 40
0.0
  9
$CHAMFERD
 40
0.0
  9
$SKPOLY
 70
0
  9
$TDCREATE
 40
2461085.24599537
  9
$TDUCREATE
 40
2458532.153996898
  9
$TDUPDATE
 40
2461085.24599537
  9
$TDUUPDATE
 40
2458532.1544311
  9
$TDINDWG
 40
0.0
  9
$TDUSRTIMER
 40
0.0
  9
$USRTIMER
 70
1
  9
$ANGBASE
 50
0.0
  9
$ANGDIR
 70
0
  9
$PDMODE
 70
0
  9
$PDSIZE
 40
0.0
  9
$PLINEWID
 40
0.0
  9
$SPLFRAME
 70
0
  9
$SPLINETYPE
 70
6
  9
$SPLINESEGS
 70
8
  9
$HANDSEED
  5
75
  9
$SURFTAB1
 70
6
  9
$SURFTAB2
 70
6
  9
$SURFTYPE
 70
6
  9
$SURFU
 70
6
  9
$SURFV
 70
6
  9
$UCSBASE
  2

  9
$UCSNAME
  2

  9
$UCSORG
 10
0.0
 20
0.0
 30
0.0
  9
$UCSXDIR
 10
1.0
 20
0.0
 30
0.0
  9
$UCSYDIR
 10
0.0
 20
1.0
 30
0.0
  9
$UCSORTHOREF
  2

  9
$UCSORTHOVIEW
 70
0
  9
$UCSORGTOP
 10
0.0
 20
0.0
 30
0.0
  9
$UCSORGBOTTOM
 10
0.0
 20
0.0
 30
0.0
  9
$UCSORGLEFT
 10
0.0
 20
0.0
 30
0.0
  9
$UCSORGRIGHT
 10
0.0
 20
0.0
 30
0.0
  9
$UCSORGFRONT
 10
0.0
 20
0.0
 30
0.0
  9
$UCSORGBACK
 10
0.0
 20
0.0
 30
0.0
  9
$PUCSBASE
  2

  9
$PUCSNAME
  2

  9
$PUCSORG
 10
0.0
 20
0.0
 30
0.0
  9
$PUCSXDIR
 10
1.0
 20
0.0
 30
0.0
  9
$PUCSYDIR
 10
0.0
 20
1.0
 30
0.0
  9
$PUCSORTHOREF
  2

  9
$PUCSORTHOVIEW
 70
0
  9
$PUCSORGTOP
 10
0.0
 20
0.0
 30
0.0
  9
$PUCSORGBOTTOM
 10
0.0
 20
0.0
 30
0.0
  9
$PUCSORGLEFT
 10
0.0
 20
0.0
 30
0.0
  9
$PUCSORGRIGHT
 10
0.0
 20
0.0
 30
0.0
  9
$PUCSORGFRONT
 10
0.0
 20
0.0
 30
0.0
  9
$PUCSORGBACK
 10
0.0
 20
0.0
 30
0.0
  9
$USERI1
 70
0
  9
$USERI2
 70
0
  9
$USERI3
 70
0
  9
$USERI4
 70
0
  9
$USERI5
 70
0
  9
$USERR1
 40
0.0
  9
$USERR2
 40
0.0
  9
$USERR3
 40
0.0
  9
$USERR4
 40
0.0
  9
$USERR5
 40
0.0
  9
$WORLDVIEW
 70
1
  9
$SHADEDGE
 70
3
  9
$SHADEDIF
 70
70
  9
$TILEMODE
 70
1
  9
$MAXACTVP
 70
64
  9
$PINSBASE
 10
0.0
 20
0.0
 30
0.0
  9
$PLIMCHECK
 70
0
  9
$PEXTMIN
 10
1e+20
 20
1e+20
 30
1e+20
  9
$PEXTMAX
 10
-1e+20
 20
-1e+20
 30
-1e+20
  9
$PLIMMIN
 10
0.0
 20
0.0
  9
$PLIMMAX
 10
420.0
 20
297.0
  9
$UNITMODE
 70
0
  9
$VISRETAIN
 70
1
  9
$PLINEGEN
 70
0
  9
$PSLTSCALE
 70
1
  9
$TREEDEPTH
 70
3020
  9
$CMLSTYLE
  2
Standard
  9
$CMLJUST
 70
0
  9
$CMLSCALE
 40
20.0
  9
$PROXYGRAPHICS
 70
1
  9
$MEASUREMENT
 70
1
  9
$CELWEIGHT
370
-1
  9
$ENDCAPS
280
0
  9
$JOINSTYLE
280
0
  9
$LWDISPLAY
290
0
  9
$INSUNITS
 70
6
  9
$HYPERLINKBASE
  1

  9
$STYLESHEET
  1

  9
$XEDIT
290
1
  9
$CEPSNTYPE
380
0
  9
$PSTYLEMODE
290
1
  9
$FINGERPRINTGUID
  2
{8F76AA2A-E7F7-47AE-BF90-FFE87DD31FDA}
  9
$VERSIONGUID
  2
{7307C27C-8CD7-4907-B2A4-FB1F70C8C6A1}
  9
$EXTNAMES
290
1
  9
$PSVPSCALE
 40
0.0
  9
$OLESTARTUP
290
0
  9
$SORTENTS
280
127
  9
$INDEXCTL
280
0
  9
$HIDETEXT
280
1
  9
$XCLIPFRAME
280
1
  9
$HALOGAP
280
0
  9
$OBSCOLOR
 70
257
  9
$OBSLTYPE
280
0
  9
$INTERSECTIONDISPLAY
280
0
  9
$INTERSECTIONCOLOR
 70
257
  9
$DIMASSOC
280
2
  9
$PROJECTNAME
  1

  9
$CAMERADISPLAY
290
0
  9
$LENSLENGTH
 40
50.0
  9
$CAMERAHEIGHT
 40
0.0
  9
$STEPSPERSEC
 40
24.0
  9
$STEPSIZE
 40
100.0
  9
$3DDWFPREC
 40
2.0
  9
$PSOLWIDTH
 40
0.005
  9
$PSOLHEIGHT
 40
0.08
  9
$LOFTANG1
 40
1.570796326795
  9
$LOFTANG2
 40
1.570796326795
  9
$LOFTMAG1
 40
0.0
  9
$LOFTMAG2
 40
0.0
  9
$LOFTPARAM
 70
7
  9
$LOFTNORMALS
280
1
  9
$LATITUDE
 40
37.795
  9
$LONGITUDE
 40
-122.394
  9
$NORTHDIRECTION
 40
0.0
  9
$TIMEZONE
 70
-8000
  9
$LIGHTGLYPHDISPLAY
280
1
  9
$TILEMODELIGHTSYNCH
280
1
  9
$CMATERIAL
347
20
  9
$SOLIDHIST
280
0
  9
$SHOWHIST
280
1
  9
$DWFFRAME
280
2
  9
$DGNFRAME
280
2
  9
$REALWORLDSCALE
290
1
  9
$INTERFERECOLOR
 62
256
  9
$CSHADOW
280
0
  9
$SHADOWPLANELOCATION
 40
0.0
  0
ENDSEC
  0
SECTION
  2
CLASSES
  0
CLASS
  1
ACDBDICTIONARYWDFLT
  2
AcDbDictionaryWithDefault
  3
ObjectDBX Classes
 90
0
 91
0
280
0
281
0
  0
CLASS
  1
SUN
  2
AcDbSun
  3
SCENEOE
 90
1153
 91
0
280
0
281
0
  0
CLASS
  1
VISUALSTYLE
  2
AcDbVisualStyle
  3
ObjectDBX Classes
 90
4095
 91
0
280
0
281
0
  0
CLASS
  1
MATERIAL
  2
AcDbMaterial
  3
ObjectDBX Classes
 90
1153
 91
0
280
0
281
0
  0
CLASS
  1
SCALE
  2
AcDbScale
  3
ObjectDBX Classes
 90
1153
 91
0
280
0
281
0
  0
CLASS
  1
TABLESTYLE
  2
AcDbTableStyle
  3
ObjectDBX Classes
 90
4095
 91
0
280
0
281
0
  0
CLASS
  1
MLEADERSTYLE
  2
AcDbMLeaderStyle
  3
ACDB_MLEADERSTYLE_CLASS
 90
4095
 91
0
280
0
281
0
  0
CLASS
  1
DICTIONARYVAR
  2
AcDbDictionaryVar
  3
ObjectDBX Classes
 90
0
 91
0
280
0
281
0
  0
CLASS
  1
CELLSTYLEMAP
  2
AcDbCellStyleMap
  3
ObjectDBX Classes
 90
1152
 91
0
280
0
281
0
  0
CLASS
  1
MENTALRAYRENDERSETTINGS
  2
AcDbMentalRayRenderSettings
  3
SCENEOE
 90
1024
 91
0
280
0
281
0
  0
CLASS
  1
ACDBDETAILVIEWSTYLE
  2
AcDbDetailViewStyle
  3
ObjectDBX Classes
 90
1025
 91
0
280
0
281
0
  0
CLASS
  1
ACDBSECTIONVIEWSTYLE
  2
AcDbSectionViewStyle
  3
ObjectDBX Classes
 90
1025
 91
0
280
0
281
0
  0
CLASS
  1
RASTERVARIABLES
  2
AcDbRasterVariables
  3
ISM
 90
0
 91
0
280
0
281
0
  0
CLASS
  1
LAYOUT
  2
AcDbLayout
  3
ObjectDBX Classes
 90
0
 91
0
280
0
281
0
  0
CLASS
  1
ACDBPLACEHOLDER
  2
AcDbPlaceHolder
  3
ObjectDBX Classes
 90
0
 91
0
280
0
281
0
  0
ENDSEC
  0
SECTION
  2
TABLES
  0
TABLE
  2
VPORT
  5
8
330
0
100
AcDbSymbolTable
 70
1
  0
VPORT
  5
23
330
8
100
AcDbSymbolTableRecord
100
AcDbViewportTableRecord
  2
*Active
 70
0
 10
0.0
 20
0.0
 11
1.0
 21
1.0
 12
0.0
 22
0.0
 13
0.0
 23
0.0
 14
0.5
 24
0.5
 15
0.5
 25
0.5
 16
0.0
 26
0.0
 36
1.0
 17
0.0
 27
0.0
 37
0.0
 40
1000.0
 41
1.34
 42
50.0
 43
0.0
 44
0.0
 50
0.0
 51
0.0
 71
0
 72
1000
 73
1
 74
3
 75
0
 76
0
 77
0
 78
0
281
0
 65
0
146
0.0
  0
ENDTAB
  0
TABLE
  2
LTYPE
  5
2
330
0
100
AcDbSymbolTable
 70
3
  0
LTYPE
  5
24
330
2
100
AcDbSymbolTableRecord
100
AcDbLinetypeTableRecord
  2
ByBlock
 70
0
  3

 72
65
 73
0
 40
0.0
  0
LTYPE
  5
25
330
2
100
AcDbSymbolTableRecord
100
AcDbLinetypeTableRecord
  2
ByLayer
 70
0
  3

 72
65
 73
0
 40
0.0
  0
LTYPE
  5
26
330
2
100
AcDbSymbolTableRecord
100
AcDbLinetypeTableRecord
  2
Continuous
 70
0
  3

 72
65
 73
0
 40
0.0
  0
ENDTAB
  0
TABLE
  2
LAYER
  5
1
330
0
100
AcDbSymbolTable
 70
3
  0
LAYER
  5
27
330
1
100
AcDbSymbolTableRecord
100
AcDbLayerTableRecord
  2
0
 70
0
 62
7
  6
Continuous
370
-3
390
13
347
21
  0
LAYER
  5
28
330
1
100
AcDbSymbolTableRecord
100
AcDbLayerTableRecord
  2
Defpoints
 70
0
 62
7
  6
Continuous
290
0
370
-3
390
13
347
21
  0
LAYER
  5
6F
330
1
100
AcDbSymbolTableRecord
100
AcDbLayerTableRecord
  2
A-DETL-GENF
 70
0
 62
92
  6
Continuous
370
18
390
13
347
21
348
0
  0
ENDTAB
  0
TABLE
  2
STYLE
  5
5
330
0
100
AcDbSymbolTable
 70
1
  0
STYLE
  5
29
330
5
100
AcDbSymbolTableRecord
100
AcDbTextStyleTableRecord
  2
Standard
 70
0
 40
0.0
 41
1.0
 50
0.0
 71
0
 42
2.5
  3
txt
  4

  0
ENDTAB
  0
TABLE
  2
VIEW
  5
7
330
0
100
AcDbSymbolTable
 70
0
  0
ENDTAB
  0
TABLE
  2
UCS
  5
6
330
0
100
AcDbSymbolTable
 70
0
  0
ENDTAB
  0
TABLE
  2
APPID
  5
3
330
0
100
AcDbSymbolTable
 70
3
  0
APPID
  5
2A
330
3
100
AcDbSymbolTableRecord
100
AcDbRegAppTableRecord
  2
ACAD
 70
0
  0
APPID
  5
72
330
3
100
AcDbSymbolTableRecord
100
AcDbRegAppTableRecord
  2
HATCHBACKGROUNDCOLOR
 70
0
  0
APPID
  5
73
330
3
100
AcDbSymbolTableRecord
100
AcDbRegAppTableRecord
  2
EZDXF
 70
0
  0
ENDTAB
  0
TABLE
  2
DIMSTYLE
  5
4
330
0
100
AcDbSymbolTable
 70
1
100
AcDbDimStyleTable
  0
DIMSTYLE
105
2B
330
4
100
AcDbSymbolTableRecord
100
AcDbDimStyleTableRecord
  2
Standard
 70
0
 40
1.0
 41
2.5
 42
0.625
 43
3.75
 44
1.25
 45
0.0
 46
0.0
 47
0.0
 48
0.0
 49
2.5
140
2.5
141
2.5
142
0.0
143
0.03937007874
144
1.0
145
0.0
146
1.0
147
0.625
148
0.0
 69
0
 70
0
 71
0
 72
0
 73
0
 74
0
 75
0
 76
0
 77
1
 78
8
 79
3
170
0
171
3
172
1
173
0
174
0
175
0
176
0
177
0
178
0
179
2
271
2
272
2
273
2
274
3
275
0
276
0
277
2
278
44
279
0
280
0
281
0
282
0
283
0
284
8
285
0
286
0
288
0
289
3
290
0
371
-2
372
-2
  0
ENDTAB
  0
TABLE
  2
BLOCK_RECORD
  5
9
330
0
100
AcDbSymbolTable
 70
3
  0
BLOCK_RECORD
  5
17
330
9
100
AcDbSymbolTableRecord
100
AcDbBlockTableRecord
  2
*Model_Space
340
1A
 70
0
280
1
281
0
  0
BLOCK_RECORD
  5
1B
330
9
100
AcDbSymbolTableRecord
100
AcDbBlockTableRecord
  2
*Paper_Space
340
1E
 70
0
280
1
281
0
  0
BLOCK_RECORD
  5
2F
330
9
100
AcDbSymbolTableRecord
100
AcDbBlockTableRecord
  2
47 dakpan OVH-pan hor - standaard-1591657-00_0 Basismaterialen
340
0
 70
0
280
1
281
0
  0
ENDTAB
  0
ENDSEC
  0
SECTION
  2
BLOCKS
  0
BLOCK
  5
18
330
17
100
AcDbEntity
  8
0
100
AcDbBlockBegin
  2
*Model_Space
 70
0
 10
0.0
 20
0.0
 30
0.0
  3
*Model_Space
  1

  0
ENDBLK
  5
19
330
17
100
AcDbEntity
  8
0
100
AcDbBlockEnd
  0
BLOCK
  5
1C
330
1B
100
AcDbEntity
  8
0
100
AcDbBlockBegin
  2
*Paper_Space
 70
0
 10
0.0
 20
0.0
 30
0.0
  3
*Paper_Space
  1

  0
ENDBLK
  5
1D
330
1B
100
AcDbEntity
  8
0
100
AcDbBlockEnd
  0
BLOCK
  5
30
330
2F
100
AcDbEntity
  8
0
100
AcDbBlockBegin
  2
47 dakpan OVH-pan hor - standaard-1591657-00_0 Basismaterialen
 70
0
 10
0.0
 20
0.0
 30
0.0
  3
47 dakpan OVH-pan hor - standaard-1591657-00_0 Basismaterialen
  1

  0
HATCH
  5
32
330
2F
100
AcDbEntity
  8
A-DETL-GENF
370
13
100
AcDbHatch
 10
0.0
 20
0.0
 30
0.0
210
0.0
220
0.0
230
1.0
  2
FP_120
 70
0
 71
0
 91
1
 92
1
 93
193
 72
1
 10
23.92772708986365
 20
-2.64717698e-08
 11
24.58917829771374
 21
0.0738311548535819
 72
1
 10
24.58917829771374
 20
0.0738311548535819
 11
25.21807100792913
 21
0.291690519448656
 72
1
 10
25.21807100792913
 20
0.291690519448656
 11
25.78344934413164
 21
0.6428544137437883
 72
1
 10
25.78344934413164
 20
0.6428544137437883
 11
26.25748378692425
 21
1.110037558507178
 72
1
 10
26.25748378692425
 20
1.110037558507178
 11
26.61684102145775
 21
1.670243879153747
 72
1
 10
26.61684102145775
 20
1.670243879153747
 11
26.84383246915062
 21
2.295898437499596
 72
1
 10
26.84383246915062
 20
2.295898437499596
 11
28.37561763638862
 21
8.641056064972998
 72
1
 10
28.37561763638862
 20
8.641056064972998
 11
28.90216344470274
 21
9.924781177872678
 72
1
 10
28.90216344470274
 20
9.924781177872678
 11
29.7065962041259
 21
11.05530698001269
 72
1
 10
29.7065962041259
 20
11.05530698001269
 11
30.87465740478413
 21
12.04233189117534
 72
1
 10
30.87465740478413
 20
12.04233189117534
 11
31.9684964557153
 21
12.63135224598613
 72
1
 10
31.9684964557153
 20
12.63135224598613
 11
39.38718613372901
 21
15.98501401309141
 72
1
 10
39.38718613372901
 20
15.98501401309141
 11
46.39502492717191
 21
19.89279996008087
 72
1
 10
46.39502492717191
 20
19.89279996008087
 11
52.99201283605702
 21
24.35471008695236
 72
1
 10
52.99201283605702
 20
24.35471008695236
 11
59.17814986037999
 21
29.37074439371018
 72
1
 10
59.17814986037999
 20
29.37074439371018
 11
64.95343600014515
 21
34.94090288035004
 72
1
 10
64.95343600014515
 20
34.94090288035004
 11
70.31787125534383
 21
41.06518554687624
 72
1
 10
70.31787125534383
 20
41.06518554687624
 11
73.07981601543598
 21
44.39398722891513
 72
1
 10
73.07981601543598
 20
44.39398722891513
 11
76.15400262440195
 21
47.3607099930991
 72
1
 10
76.15400262440195
 20
47.3607099930991
 11
79.56240878448844
 21
49.98038969351657
 72
1
 10
79.56240878448844
 20
49.98038969351657
 11
83.23910138894674
 21
52.20791876790659
 72
1
 10
83.23910138894674
 20
52.20791876790659
 11
87.11814733101086
 21
53.99818965401038
 72
1
 10
87.11814733101086
 20
53.99818965401038
 11
91.22152431293613
 21
55.36623820591419
 72
1
 10
91.22152431293613
 20
55.36623820591419
 11
91.99824271052346
 21
55.47113329251947
 72
1
 10
91.99824271052346
 20
55.47113329251947
 11
92.77564391665825
 21
55.37142465174667
 72
1
 10
92.77564391665825
 20
55.37142465174667
 11
93.50074932386057
 21
55.07390726268672
 72
1
 10
93.50074932386057
 20
55.07390726268672
 11
94.12414419692082
 21
54.59885644373029
 72
1
 10
94.12414419692082
 20
54.59885644373029
 11
94.60334520545034
 21
53.97864612313326
 72
1
 10
94.60334520545034
 20
53.97864612313326
 11
94.90569559263304
 21
53.25554260929806
 72
1
 10
94.90569559263304
 20
53.25554260929806
 11
97.23004510527136
 21
43.36132812499776
 72
1
 10
97.23004510527136
 20
43.36132812499776
 11
97.4628745189489
 21
42.73515896159469
 72
1
 10
97.4628745189489
 20
42.73515896159469
 11
97.82709511769222
 21
42.17512261230994
 72
1
 10
97.82709511769222
 20
42.17512261230994
 11
98.30504891826502
 21
41.70837051366852
 72
1
 10
98.30504891826502
 20
41.70837051366852
 11
98.87356397425322
 21
41.35753153609416
 72
1
 10
98.87356397425322
 20
41.35753153609416
 11
99.50507778818678
 21
41.13961490093713
 72
1
 10
99.50507778818678
 20
41.13961490093713
 11
100.1689735844691
 21
41.06518554687407
 72
1
 10
100.1689735844691
 20
41.06518554687407
 11
103.1193413605547
 21
41.06518554687407
 72
1
 10
103.1193413605547
 20
41.06518554687407
 11
103.8548426586578
 21
41.23690993190372
 72
1
 10
103.8548426586578
 20
41.23690993190372
 11
104.5303527781587
 21
41.57475235430531
 72
1
 10
104.5303527781587
 20
41.57475235430531
 11
105.1089326231762
 21
42.06023848887066
 72
1
 10
105.1089326231762
 20
42.06023848887066
 11
105.5589435613036
 21
42.66682037080111
 72
1
 10
105.5589435613036
 20
42.66682037080111
 11
105.8557775271481
 21
43.36132812499992
 72
1
 10
105.8557775271481
 20
43.36132812499992
 11
108.3000633419589
 21
53.33649751408017
 72
1
 10
108.3000633419589
 20
53.33649751408017
 11
108.5196524371624
 21
53.92495816514662
 72
1
 10
108.5196524371624
 20
53.92495816514662
 11
108.8695502781303
 21
54.44656799008479
 72
1
 10
108.8695502781303
 20
54.44656799008479
 11
109.3307327874978
 21
54.8729668663044
 72
1
 10
109.3307327874978
 20
54.8729668663044
 11
109.8781252985683
 21
55.18097132634999
 72
1
 10
109.8781252985683
 20
55.18097132634999
 11
110.4819658744078
 21
55.35383505174715
 72
1
 10
110.4819658744078
 20
55.35383505174715
 11
111.1094234755307
 21
55.38215937666032
 72
1
 10
111.1094234755307
 20
55.38215937666032
 11
111.7263829958937
 21
55.26440429687375
 72
1
 10
111.7263829958937
 20
55.26440429687375
 11
116.2552568235216
 21
53.49595832988347
 72
1
 10
116.2552568235216
 20
53.49595832988347
 11
120.4467413885609
 21
51.19792341212512
 72
1
 10
120.4467413885609
 20
51.19792341212512
 11
124.3322284438593
 21
48.34395873536433
 72
1
 10
124.3322284438593
 20
48.34395873536433
 11
127.8175427308605
 21
45.01308672432158
 72
1
 10
127.8175427308605
 20
45.01308672432158
 11
130.8085089909999
 21
41.28432980372607
 72
1
 10
130.8085089909999
 20
41.28432980372607
 11
133.3365189771252
 21
37.13134716533475
 72
1
 10
133.3365189771252
 20
37.13134716533475
 11
133.6711294616491
 21
36.45106229588983
 72
1
 10
133.6711294616491
 20
36.45106229588983
 11
134.1621908806526
 21
35.8734721620417
 72
1
 10
134.1621908806526
 20
35.8734721620417
 11
134.7797798853826
 21
35.4337728316107
 72
1
 10
134.7797798853826
 20
35.4337728316107
 11
135.4862630343794
 21
35.15875784995778
 72
1
 10
135.4862630343794
 20
35.15875784995778
 11
136.2385900271489
 21
35.06518554687544
 72
1
 10
136.2385900271489
 20
35.06518554687544
 11
145.5427892458985
 21
35.06518554687544
 72
1
 10
145.5427892458985
 20
35.06518554687544
 11
145.5427892458985
 21
45.094975935045
 72
1
 10
145.5427892458985
 20
45.094975935045
 11
141.6363685342154
 21
50.15757512908717
 72
1
 10
141.6363685342154
 20
50.15757512908717
 11
137.2151585371659
 21
54.64713852256751
 72
1
 10
137.2151585371659
 20
54.64713852256751
 11
132.240780978941
 21
58.59049125434662
 72
1
 10
132.240780978941
 20
58.59049125434662
 11
126.8283706869763
 21
61.90715790784704
 72
1
 10
126.8283706869763
 20
61.90715790784704
 11
121.049344676884
 21
64.5334330712006
 72
1
 10
121.049344676884
 20
64.5334330712006
 11
114.9964781083396
 21
66.44583186915084
 72
1
 10
114.9964781083396
 20
66.44583186915084
 11
108.7544516050593
 21
67.5997677388396
 72
1
 10
108.7544516050593
 20
67.5997677388396
 11
102.418965790554
 21
67.9948403312038
 72
1
 10
102.418965790554
 20
67.9948403312038
 11
96.08295869626569
 21
67.60821782781426
 72
1
 10
96.08295869626569
 20
67.60821782781426
 11
89.83939872212947
 21
66.46260807387003
 72
1
 10
89.83939872212947
 20
66.46260807387003
 11
83.7839869404871
 21
64.55828378064744
 72
1
 10
83.7839869404871
 20
64.55828378064744
 11
78.00146336554387
 21
61.93971853145962
 72
1
 10
78.00146336554387
 20
61.93971853145962
 11
72.58463439662202
 21
58.63027344497997
 72
1
 10
72.58463439662202
 20
58.63027344497997
 11
67.60500195072082
 21
54.69355862641044
 72
1
 10
67.60500195072082
 20
54.69355862641044
 11
63.1778080842141
 21
50.20989586362122
 72
1
 10
63.1778080842141
 20
50.20989586362122
 11
59.26463877831348
 21
45.15251122731575
 72
1
 10
59.26463877831348
 20
45.15251122731575
 11
53.68293107547085
 21
39.56699332441654
 72
1
 10
53.68293107547085
 20
39.56699332441654
 11
47.75023077727052
 21
34.51456754803403
 72
1
 10
47.75023077727052
 20
34.51456754803403
 11
41.46653788370817
 21
29.99523389816607
 72
1
 10
41.46653788370817
 20
29.99523389816607
 11
34.78498707839376
 21
25.98582598536944
 72
1
 10
34.78498707839376
 20
25.98582598536944
 11
27.75244367772166
 21
22.50951019908952
 72
1
 10
27.75244367772166
 20
22.50951019908952
 11
20.45523806624899
 21
19.61934788999177
 72
1
 10
20.45523806624899
 20
19.61934788999177
 11
13.05193242887367
 21
17.3767804525535
 72
1
 10
13.05193242887367
 20
17.3767804525535
 11
5.383964580702115
 21
15.72036649229739
 72
1
 10
5.383964580702115
 20
15.72036649229739
 11
-2.341100437724741
 21
14.69965917075134
 72
1
 10
-2.341100437724742
 20
14.69965917075134
 11
-10.12441178197088
 21
14.32745291920516
 72
1
 10
-10.12441178197088
 20
14.32745291920516
 11
-17.96482029647665
 21
14.59095330636904
 72
1
 10
-17.96482029647665
 20
14.59095330636904
 11
-25.70557903860484
 21
15.48489238223944
 72
1
 10
-25.70557903860484
 20
15.48489238223944
 11
-33.34468242576181
 21
17.02195855368895
 72
1
 10
-33.34468242576181
 20
17.02195855368895
 11
-40.88413604054987
 21
19.18946341384714
 72
1
 10
-40.88413604054987
 20
19.18946341384714
 11
-48.17320968809531
 21
21.94407379207975
 72
1
 10
-48.17320968809531
 20
21.94407379207975
 11
-55.20686414260756
 21
25.29760595827495
 72
1
 10
-55.20686414260756
 20
25.29760595827495
 11
-61.9901386298772
 21
29.2382436425424
 72
1
 10
-61.9901386298772
 20
29.2382436425424
 11
-68.38742063239796
 21
33.68720486460281
 72
1
 10
-68.38742063239796
 20
33.68720486460281
 11
-74.3535059776721
 21
38.61822896435516
 72
1
 10
-74.3535059776721
 20
38.61822896435516
 11
-79.93359883819736
 21
44.05757660189614
 72
1
 10
-79.93359883819736
 20
44.05757660189614
 11
-86.05429272992232
 21
50.99046977278975
 72
1
 10
-86.05429272992232
 20
50.99046977278975
 11
-86.65495566089287
 21
51.30984791843569
 72
1
 10
-86.65495566089287
 20
51.30984791843569
 11
-87.3105203213539
 21
51.49159866124999
 72
1
 10
-87.3105203213539
 20
51.49159866124999
 11
-87.98988623103826
 21
51.52709960937496
 72
1
 10
-87.98988623103826
 20
51.52709960937496
 11
-91.22011139371433
 21
51.48552385666118
 72
1
 10
-91.22011139371433
 20
51.48552385666118
 11
-91.8944528229578
 21
51.28661820533974
 72
1
 10
-91.8944528229578
 20
51.28661820533974
 11
-92.50650178346898
 21
50.9406472654413
 72
1
 10
-92.50650178346898
 20
50.9406472654413
 11
-93.02467323049623
 21
50.46546501324232
 72
1
 10
-93.02467323049623
 20
50.46546501324232
 11
-93.4222267079593
 21
49.88559342929145
 72
1
 10
-93.4222267079593
 20
49.88559342929145
 11
-93.6786463009765
 21
49.23095703125343
 72
1
 10
-93.6786463009765
 20
49.23095703125343
 11
-95.94964239472571
 21
39.82299804687557
 72
1
 10
-95.94964239472571
 20
39.82299804687557
 11
-96.18636022493584
 21
39.17762178808349
 72
1
 10
-96.18636022493584
 20
39.17762178808349
 11
-96.56362423365067
 21
38.60297605871822
 72
1
 10
-96.56362423365067
 20
38.60297605871822
 11
-97.06167007107187
 21
38.1291657692741
 72
1
 10
-97.06167007107187
 20
38.1291657692741
 11
-97.6544057911584
 21
37.78101319828325
 72
1
 10
-97.6544057911584
 20
37.78101319828325
 11
-98.31077877333807
 21
37.57675758681973
 72
1
 10
-98.31077877333807
 20
37.57675758681973
 11
-98.99640252717599
 21
37.52709960937597
 72
1
 10
-98.99640252717599
 20
37.52709960937597
 11
-105.0035974728512
 21
37.52709960937597
 72
1
 10
-105.0035974728512
 20
37.52709960937597
 11
-105.7624751081103
 21
37.64699211233001
 72
1
 10
-105.7624751081103
 20
37.64699211233001
 11
-106.4697479967479
 21
37.94704967105366
 72
1
 10
-106.4697479967479
 20
37.94704967105366
 11
-107.0833316485756
 21
38.40941811695979
 72
1
 10
-107.0833316485756
 20
38.40941811695979
 11
-107.5667163152164
 21
39.00658538130864
 72
1
 10
-107.5667163152164
 20
39.00658538130864
 11
-107.8911394107081
 21
39.70301853148694
 72
1
 10
-107.8911394107081
 20
39.70301853148694
 11
-110.1963663751908
 21
49.25278428899609
 72
1
 10
-110.1963663751908
 20
49.25278428899609
 11
-110.5064694563466
 21
49.97693535789525
 72
1
 10
-110.5064694563466
 20
49.97693535789525
 11
-110.9870168946701
 21
50.60114113409943
 72
1
 10
-110.9870168946701
 20
50.60114113409943
 11
-111.6077766817502
 21
51.08613183325998
 72
1
 10
-111.6077766817502
 20
51.08613183325998
 11
-112.3296958259252
 21
51.40139591431303
 72
1
 10
-112.3296958259252
 20
51.40139591431303
 11
-113.1073572384777
 21
51.52709960937496
 72
1
 10
-113.1073572384777
 20
51.52709960937496
 11
-116.2511753452465
 21
51.47889854360038
 72
1
 10
-116.2511753452465
 20
51.47889854360038
 11
-116.9304388728021
 21
51.27020375967767
 72
1
 10
-116.9304388728021
 20
51.27020375967767
 11
-117.5441658906805
 21
50.91202559139543
 72
1
 10
-117.5441658906805
 20
50.91202559139543
 11
-118.0599773465764
 21
50.42326082724649
 72
1
 10
-118.0599773465764
 20
50.42326082724649
 11
-118.4506600241472
 21
49.82969575233484
 72
1
 10
-118.4506600241472
 20
49.82969575233484
 11
-118.6956022597709
 21
49.16264571379394
 72
1
 10
-118.6956022597709
 20
49.16264571379394
 11
-120.7407221428828
 21
40.68883284092304
 72
1
 10
-120.7407221428828
 20
40.68883284092304
 11
-121.3110050965694
 21
37.8469169051937
 72
1
 10
-121.3110050965694
 20
37.8469169051937
 11
-121.5038416134759
 21
34.95466000111827
 72
1
 10
-121.5038416134759
 20
34.95466000111827
 11
-121.5038416134759
 21
29.63801377394672
 72
1
 10
-121.5038416134759
 20
29.63801377394672
 11
-121.3978397838314
 21
28.83284994047651
 72
1
 10
-121.3978397838314
 20
28.83284994047651
 11
-121.0870581444206
 21
28.08255669166151
 72
1
 10
-121.0870581444206
 20
28.08255669166151
 11
-120.5926759503634
 21
27.43826527248886
 72
1
 10
-120.5926759503634
 20
27.43826527248886
 11
-119.9483845311907
 21
26.94388307843591
 72
1
 10
-119.9483845311907
 20
26.94388307843591
 11
-119.1980912823779
 21
26.63310143901865
 72
1
 10
-119.1980912823779
 20
26.63310143901865
 11
-118.3929274489055
 21
26.52709960937415
 72
1
 10
-118.3929274489055
 20
26.52709960937415
 11
-80.4305994259939
 21
26.52709960937415
 72
1
 10
-80.4305994259939
 20
26.52709960937415
 11
-78.10658911263462
 21
26.24938831944831
 72
1
 10
-78.10658911263462
 20
26.24938831944831
 11
-75.90719693001338
 21
25.44887503149988
 72
1
 10
-75.90719693001338
 20
25.44887503149988
 11
-73.94839236747313
 21
24.16776918772925
 72
1
 10
-73.94839236747313
 20
24.16776918772925
 11
-66.2252972289259
 21
18.91347486125258
 72
1
 10
-66.2252972289259
 20
18.91347486125258
 11
-58.04046270722956
 21
14.41210937500143
 72
1
 10
-58.04046270722956
 20
14.41210937500143
 11
-56.82925870363405
 21
13.82363970931518
 72
1
 10
-56.82925870363405
 20
13.82363970931518
 11
-55.80740607573333
 21
12.94663977053644
 72
1
 10
-55.80740607573333
 20
12.94663977053644
 11
-55.04202311926601
 21
11.8387135023643
 72
1
 10
-55.04202311926601
 20
11.8387135023643
 11
-54.58338244517858
 21
10.5726327712011
 72
1
 10
-54.58338244517858
 20
10.5726327712011
 11
-52.48551323398131
 21
2.295898437510425
 72
1
 10
-52.48551323398131
 20
2.295898437510424
 11
-52.24718965437141
 21
1.647284437513178
 72
1
 10
-52.24718965437141
 20
1.647284437513178
 11
-51.86698632336589
 21
1.070271719550828
 72
1
 10
-51.86698632336589
 20
1.070271719550828
 11
-51.36501356868639
 21
0.5953805708123128
 72
1
 10
-51.36501356868639
 20
0.5953805708123128
 11
-50.76782254275673
 21
0.2477296997577071
 72
1
 10
-50.76782254275673
 20
0.2477296997577071
 11
-50.10700083637431
 21
0.0457076168896208
 72
1
 10
-50.10700083637431
 20
0.0457076168896208
 11
-49.41750169688898
 21
0.0
 72
1
 10
-49.41750169688898
 20
0.0
 11
-44.21083465645849
 21
0.0143584906949684
 72
1
 10
-44.21083465645849
 20
0.0143584906949684
 11
-43.43769516580313
 21
0.2177249025146921
 72
1
 10
-43.43769516580313
 20
0.2177249025146921
 11
-42.73477094488303
 21
0.5985137010731991
 72
1
 10
-42.73477094488303
 20
0.5985137010731991
 11
-42.14210672211662
 21
1.13503181681213
 72
1
 10
-42.14210672211662
 20
1.13503181681213
 11
-41.6934658494201
 21
1.796714472476577
 72
1
 10
-41.6934658494201
 20
1.796714472476577
 11
-41.41440684557362
 21
2.545866420906395
 72
1
 10
-41.41440684557362
 20
2.545866420906395
 11
-40.92345363730912
 21
4.578902253167314
 72
1
 10
-40.92345363730912
 20
4.578902253167314
 11
-40.6235317672511
 21
5.237757821721061
 72
1
 10
-40.6235317672511
 20
5.237757821721061
 11
-40.17988017058658
 21
5.809786710089741
 72
1
 10
-40.17988017058658
 20
5.809786710089741
 11
-39.61637030937061
 21
6.264209888042569
 72
1
 10
-39.61637030937061
 20
6.264209888042569
 11
-38.96332283244226
 21
6.576576309467992
 72
1
 10
-38.96332283244226
 20
6.576576309467992
 11
-38.25587611907968
 21
6.730078544311186
 72
1
 10
-38.25587611907968
 20
6.730078544311186
 11
-37.53209559607201
 21
6.716457132217806
 72
1
 10
-37.53209559607201
 20
6.716457132217806
 11
-36.83092555985422
 21
6.536444997456328
 72
1
 10
-36.83092555985422
 20
6.536444997456328
 11
-28.82061746147213
 21
4.851882422103989
 72
1
 10
-28.82061746147213
 20
4.851882422103989
 11
-20.79952721853034
 21
3.785028494676964
 72
1
 10
-20.79952721853034
 20
3.785028494676964
 11
-12.76765483103753
 21
3.335883215177421
 72
1
 10
-12.76765483103753
 20
3.335883215177421
 11
-4.725000298985037
 21
3.504446583607523
 72
1
 10
-4.725000298985037
 20
3.504446583607523
 11
3.328436377622812
 21
4.290718599960775
 72
1
 10
3.328436377622813
 20
4.290718599960775
 11
12.17108937114184
 21
5.832292260139604
 72
1
 10
12.17108937114184
 20
5.832292260139604
 11
12.95962221820289
 21
5.776546925662876
 72
1
 10
12.95962221820289
 20
5.776546925662876
 11
13.71095666222126
 21
5.530806928018438
 72
1
 10
13.71095666222126
 20
5.530806928018438
 11
14.38002682706047
 21
5.109812025756144
 72
1
 10
14.38002682706047
 20
5.109812025756144
 11
14.92670113961012
 21
4.53881396164748
 72
1
 10
14.92670113961012
 20
4.53881396164748
 11
15.31818946617984
 21
3.852061835064677
 72
1
 10
15.31818946617984
 20
3.852061835064677
 11
15.8026266063689
 21
2.209085697535215
 72
1
 10
15.8026266063689
 20
2.209085697535215
 11
16.280701622681
 21
1.420068599339077
 72
1
 10
16.280701622681
 20
1.420068599339077
 11
16.93647073699338
 21
0.7711690915691009
 72
1
 10
16.93647073699338
 20
0.7711690915691009
 11
17.7304784622477
 21
0.3014293394702065
 72
1
 10
17.7304784622477
 20
0.3014293394702065
 11
18.61495194541968
 21
0.0391120506090204
 72
1
 10
18.61495194541968
 20
0.0391120506090204
 11
20.45523806624899
 21
-5.5377825e-09
 72
1
 10
20.45523806624899
 20
-5.5377825e-09
 11
23.92772708986365
 21
-2.64717698e-08
 97
0
 75
0
 76
2
 52
0.0
 41
1.0
 77
0
 78
1
 53
45.0
 43
8209.076
 44
1502.079
 45
-10.60660171779821
 46
10.60660171779821
 79
0
 98
1
 10
0.0
 20
0.0
  0
ARC
  5
33
330
2F
100
AcDbEntity
  8
A-DETL-GENF
370
35
100
AcDbCircle
 10
102.3842093779477
 20
15.87519550976671
 30
0.0
 40
52.1196564102339
100
AcDbArc
 50
34.0992946071322
 51
145.8242890832072
  0
ARC
  5
34
330
2F
100
AcDbEntity
  8
A-DETL-GENF
370
35
100
AcDbCircle
 10
-10.85192425479723
 20
109.4571957914825
 30
0.0
 40
95.13897659989225
100
AcDbArc
 50
218.6745407238487
 51
317.4757160576834
  0
ARC
  5
35
330
2F
100
AcDbEntity
  8
A-DETL-GENF
370
35
100
AcDbCircle
 10
-87.81222504524413
 20
48.40881035138611
 30
0.0
 40
3.12334618533144
100
AcDbArc
 50
30.73915962925357
 51
93.2608403707308
  0
LINE
  5
36
330
2F
100
AcDbEntity
  8
A-DETL-GENF
370
35
100
AcDbLine
 10
-87.98988623102323
 20
51.52709960937549
 30
0.0
 11
-90.51827716960882
 21
51.52709960937549
 31
0.0
  0
ARC
  5
37
330
2F
100
AcDbEntity
  8
A-DETL-GENF
370
35
100
AcDbCircle
 10
-90.6873612697489
 20
48.43681515157917
 30
0.0
 40
3.094906696980969
100
AcDbArc
 50
86.86819925086108
 51
165.1318007491152
  0
LINE
  5
38
330
2F
100
AcDbEntity
  8
A-DETL-GENF
370
35
100
AcDbLine
 10
-93.67864630096336
 20
49.23095703125191
 30
0.0
 11
-95.94964239471336
 21
39.82299804687585
 31
0.0
  0
ARC
  5
39
330
2F
100
AcDbEntity
  8
A-DETL-GENF
370
35
100
AcDbCircle
 10
-98.8691206099002
 20
40.52773364717851
 30
0.0
 40
3.003332368434144
100
AcDbArc
 50
267.5710642066822
 51
346.4289357933715
  0
LINE
  5
3A
330
2F
100
AcDbEntity
  8
A-DETL-GENF
370
35
100
AcDbLine
 10
-98.9964025271617
 20
37.52709960937544
 30
0.0
 11
-105.0035974728384
 21
37.52709960937544
 31
0.0
  0
ARC
  5
3B
330
2F
100
AcDbEntity
  8
A-DETL-GENF
370
35
100
AcDbCircle
 10
-104.8952045761954
 20
40.67485009054249
 30
0.0
 40
3.149616184827949
100
AcDbArc
 50
197.9722028673114
 51
268.0277971326851
  0
LINE
  5
3C
330
2F
100
AcDbEntity
  8
A-DETL-GENF
370
35
100
AcDbLine
 10
-107.8911394106927
 20
39.70301853148731
 30
0.0
 11
-110.1963663751754
 21
49.25278428899706
 31
0.0
  0
ARC
  5
3D
330
2F
100
AcDbEntity
  8
A-DETL-GENF
370
35
100
AcDbCircle
 10
-113.2157370016558
 20
48.38827297976035
 30
0.0
 40
3.140697181176624
100
AcDbArc
 50
15.9775660475115
 51
88.02243395251556
  0
LINE
  5
3E
330
2F
100
AcDbEntity
  8
A-DETL-GENF
370
35
100
AcDbLine
 10
-113.1073572384636
 20
51.52709960937549
 30
0.0
 11
-115.5422119399937
 21
51.52709960937549
 31
0.0
  0
ARC
  5
3F
330
2F
100
AcDbEntity
  8
A-DETL-GENF
370
35
100
AcDbCircle
 10
-115.6882305997324
 20
48.43682893330872
 30
0.0
 40
3.09371852312877
100
AcDbArc
 50
87.29472405857679
 51
166.4313752178838
  0
LINE
  5
40
330
2F
100
AcDbEntity
  8
A-DETL-GENF
370
35
100
AcDbLine
 10
-118.6956022597565
 20
49.16264571379413
 30
0.0
 11
-120.7407221428687
 21
40.68883284092322
 31
0.0
  0
ARC
  5
41
330
2F
100
AcDbEntity
  8
A-DETL-GENF
370
35
100
AcDbCircle
 10
-99.53163167823888
 20
34.95466000111787
 30
0.0
 40
21.97057706328203
100
AcDbArc
 50
164.8709923343776
 51
179.9999999999993
  0
LINE
  5
42
330
2F
100
AcDbEntity
  8
A-DETL-GENF
370
35
100
AcDbLine
 10
-121.5038416134637
 20
34.954660001118
 30
0.0
 11
-121.5038416134637
 21
29.63801377394726
 31
0.0
  0
ARC
  5
43
330
2F
100
AcDbEntity
  8
A-DETL-GENF
370
35
100
AcDbCircle
 10
-118.3929274488919
 20
29.63801377394727
 30
0.0
 40
3.110914164571783
100
AcDbArc
 50
180.0000000000001
 51
269.9999999999989
  0
LINE
  5
44
330
2F
100
AcDbEntity
  8
A-DETL-GENF
370
35
100
AcDbLine
 10
-118.3929274488919
 20
26.52709960937563
 30
0.0
 11
-80.43059942598111
 21
26.5270996093755
 31
0.0
  0
ARC
  5
45
330
2F
100
AcDbEntity
  8
A-DETL-GENF
370
35
100
AcDbCircle
 10
-80.47000507756447
 20
16.33430949984917
 30
0.0
 40
10.19286628099449
100
AcDbArc
 50
50.22150620714441
 51
89.77849379295269
  0
ARC
  5
46
330
2F
100
AcDbEntity
  8
A-DETL-GENF
370
35
100
AcDbCircle
 10
-14.58030812811875
 20
103.1276510103262
 30
0.0
 40
98.7888271197103
100
AcDbArc
 50
233.0613522129797
 51
243.9005941812311
  0
ARC
  5
47
330
2F
100
AcDbEntity
  8
A-DETL-GENF
370
35
100
AcDbCircle
 10
-59.7120673141377
 20
9.43086699985289
 30
0.0
 40
5.254239960437573
100
AcDbArc
 50
12.55071536672232
 51
71.44928463329607
  0
LINE
  5
48
330
2F
100
AcDbEntity
  8
A-DETL-GENF
370
35
100
AcDbLine
 10
-54.58338244516414
 20
10.57263277120033
 30
0.0
 11
-52.48551323396547
 21
2.295898437511025
 31
0.0
  0
ARC
  5
49
330
2F
100
AcDbEntity
  8
A-DETL-GENF
370
35
100
AcDbCircle
 10
-49.56482888630999
 20
3.000969286820291
 30
0.0
 40
3.00458349213089
100
AcDbArc
 50
193.5718816814296
 51
272.8105767259614
  0
LINE
  5
4A
330
2F
100
AcDbEntity
  8
A-DETL-GENF
370
35
100
AcDbLine
 10
-49.41750169687521
 20
0.0
 30
0.0
 11
-45.0101446108442
 21
0.0
 31
0.0
  0
ARC
  5
4B
330
2F
100
AcDbEntity
  8
A-DETL-GENF
370
35
100
AcDbCircle
 10
-44.67021729106121
 20
3.332104694900904
 30
0.0
 40
3.349398793890548
100
AcDbArc
 50
264.1750766415327
 51
346.4236957763977
  0
LINE
  5
4C
330
2F
100
AcDbEntity
  8
A-DETL-GENF
370
35
100
AcDbLine
 10
-41.41440684556177
 20
2.545866420906996
 30
0.0
 11
-40.92345363729548
 21
4.578902253168252
 31
0.0
  0
ARC
  5
4D
330
2F
100
AcDbEntity
  8
A-DETL-GENF
370
35
100
AcDbCircle
 10
-37.95231194229704
 20
3.624082245231734
 30
0.0
 40
3.120795446567134
100
AcDbArc
 50
68.94112321464206
 51
162.184428923816
  0
ARC
  5
4E
330
2F
100
AcDbEntity
  8
A-DETL-GENF
370
35
100
AcDbCircle
 10
-10.91801118696467
 20
109.3018966137768
 30
0.0
 40
105.9821549941402
100
AcDbArc
 50
255.8475580784942
 51
282.1524419215038
  0
ARC
  5
4F
330
2F
100
AcDbEntity
  8
A-DETL-GENF
370
35
100
AcDbCircle
 10
12.33945361470548
 20
2.608972102751032
 30
0.0
 40
3.227714261754589
100
AcDbArc
 50
8.58417183396231
 51
107.0576650724798
  0
ARC
  5
50
330
2F
100
AcDbEntity
  8
A-DETL-GENF
370
35
100
AcDbCircle
 10
19.2340627385616
 20
3.748890140820242
 30
0.0
 40
3.761083840168682
100
AcDbArc
 50
190.0779257267467
 51
274.6149422264791
  0
LINE
  5
51
330
2F
100
AcDbEntity
  8
A-DETL-GENF
370
35
100
AcDbLine
 10
19.53667530412817
 20
0.0
 30
0.0
 11
23.92772708987744
 21
0.0
 31
0.0
  0
ARC
  5
52
330
2F
100
AcDbEntity
  8
A-DETL-GENF
370
35
100
AcDbCircle
 10
23.92772708987746
 20
2.999875742453499
 30
0.0
 40
2.999875768925351
100
AcDbArc
 50
269.9999999999993
 51
346.4278983798875
  0
LINE
  5
53
330
2F
100
AcDbEntity
  8
A-DETL-GENF
370
35
100
AcDbLine
 10
26.84383246916236
 20
2.29589843749919
 30
0.0
 11
28.37561763640314
 21
8.641056064973792
 31
0.0
  0
ARC
  5
54
330
2F
100
AcDbEntity
  8
A-DETL-GENF
370
35
100
AcDbCircle
 10
34.21532102085588
 20
6.99563292041668
 30
0.0
 40
6.067087682161278
100
AcDbArc
 50
111.7359705080427
 51
164.2640294919638
  0
ARC
  5
55
330
2F
100
AcDbEntity
  8
A-DETL-GENF
370
35
100
AcDbCircle
 10
-2.594223048877971
 20
99.32516416166642
 30
0.0
 40
93.32951625303654
100
AcDbArc
 50
291.735970508035
 51
321.3736031506305
  0
ARC
  5
56
330
2F
100
AcDbEntity
  8
A-DETL-GENF
370
35
100
AcDbCircle
 10
101.3188755514938
 20
18.17925981174526
 30
0.0
 40
38.53346421129149
100
AcDbArc
 50
105.1912081625277
 51
143.564078910427
  0
ARC
  5
57
330
2F
100
AcDbEntity
  8
A-DETL-GENF
370
35
100
AcDbCircle
 10
92.00826215449142
 20
52.46880476775604
 30
0.0
 40
3.002345243283699
100
AcDbArc
 50
15.19120816253096
 51
105.1912081625322
  0
LINE
  5
58
330
2F
100
AcDbEntity
  8
A-DETL-GENF
370
35
100
AcDbLine
 10
94.90569559264917
 20
53.25554260929767
 30
0.0
 11
97.23004510528673
 21
43.36132812499672
 31
0.0
  0
ARC
  5
59
330
2F
100
AcDbEntity
  8
A-DETL-GENF
370
35
100
AcDbCircle
 10
100.173001459941
 20
44.09924073870851
 30
0.0
 40
3.034057865446039
100
AcDbArc
 50
194.0760632600053
 51
269.9239367401316
  0
LINE
  5
5A
330
2F
100
AcDbEntity
  8
A-DETL-GENF
370
35
100
AcDbLine
 10
100.1689735844841
 20
41.0651855468746
 30
0.0
 11
103.1193413605715
 21
41.0651855468746
 31
0.0
  0
ARC
  5
5B
330
2F
100
AcDbEntity
  8
A-DETL-GENF
370
35
100
AcDbCircle
 10
102.7577760611941
 20
44.27473239664688
 30
0.0
 40
3.229848362786852
100
AcDbArc
 50
276.4274471208626
 51
343.5725528791198
  0
LINE
  5
5C
330
2F
100
AcDbEntity
  8
A-DETL-GENF
370
35
100
AcDbLine
 10
105.855777527161
 20
43.36132812499953
 30
0.0
 11
108.3000633419719
 21
53.33649751407989
 31
0.0
  0
ARC
  5
5D
330
2F
100
AcDbEntity
  8
A-DETL-GENF
370
35
100
AcDbCircle
 10
110.9163389059337
 20
52.69541313754505
 30
0.0
 40
2.693675371016403
100
AcDbArc
 50
72.49910155649354
 51
166.2316981680886
  0
ARC
  5
5E
330
2F
100
AcDbEntity
  8
A-DETL-GENF
370
35
100
AcDbCircle
 10
100.6419439224456
 20
20.11097704737262
 30
0.0
 40
36.85957456291929
100
AcDbArc
 50
27.50089844351279
 51
72.4991015564888
  0
ARC
  5
5F
330
2F
100
AcDbEntity
  8
A-DETL-GENF
370
35
100
AcDbCircle
 10
136.2385900271614
 20
38.13634902692096
 30
0.0
 40
3.071163480046251
100
AcDbArc
 50
199.1012280185483
 51
269.9999999999997
  0
LINE
  5
60
330
2F
100
AcDbEntity
  8
A-DETL-GENF
370
35
100
AcDbLine
 10
136.2385900271614
 20
35.06518554687489
 30
0.0
 11
145.542789245911
 21
35.06518554687489
 31
0.0
  0
LINE
  5
61
330
2F
100
AcDbEntity
  8
A-DETL-GENF
370
35
100
AcDbLine
 10
145.542789245911
 20
35.06518554687489
 30
0.0
 11
145.542789245911
 21
45.09497593504529
 31
0.0
  0
ARC
  5
62
330
2F
100
AcDbEntity
  8
A-DETL-GENF
100
AcDbCircle
 10
-10.85192425479705
 20
129.4822462784526
 30
0.0
 40
95.13897659989227
100
AcDbArc
 50
240.1812820030528
 51
317.4757160576838
  0
ARC
  5
63
330
2F
100
AcDbEntity
  8
A-DETL-GENF
100
AcDbCircle
 10
102.3842093779479
 20
35.90024599673657
 30
0.0
 40
52.11965641023397
100
AcDbArc
 50
34.09929460713229
 51
145.8242890832061
  0
LINE
  5
64
330
2F
100
AcDbEntity
  8
A-DETL-GENF
100
AcDbLine
 10
145.5427892459112
 20
47.83560301038287
 30
0.0
 11
145.5427892459112
 21
65.12002642201497
 31
0.0
  0
LINE
  5
65
330
2F
100
AcDbEntity
  8
A-DETL-GENF
100
AcDbLine
 10
-38.92075331654588
 20
1.11e-14
 30
0.0
 11
-36.57808566388814
 21
-9.704240898922047
 31
0.0
  0
LINE
  5
66
330
2F
100
AcDbEntity
  8
A-DETL-GENF
100
AcDbLine
 10
-33.66185718101755
 20
-12.00024414062458
 30
0.0
 11
-23.25237912059355
 21
-12.00024414062458
 31
0.0
  0
LINE
  5
67
330
2F
100
AcDbEntity
  8
A-DETL-GENF
100
AcDbLine
 10
-20.33612871532891
 20
-9.704150081637536
 30
0.0
 11
-17.99380280167772
 21
-2.1e-15
 31
0.0
  0
LINE
  5
68
330
2F
100
AcDbEntity
  8
A-DETL-GENF
100
AcDbLine
 10
-5.505028679858558
 20
-9.704240898922174
 30
0.0
 11
-7.847696332516688
 21
-8.5e-15
 31
0.0
  0
LINE
  5
69
330
2F
100
AcDbEntity
  8
A-DETL-GENF
100
AcDbLine
 10
7.820677860340379
 20
-12.00024414062458
 30
0.0
 11
-2.588800196987856
 21
-12.00024414062458
 31
0.0
  0
LINE
  5
6A
330
2F
100
AcDbEntity
  8
A-DETL-GENF
100
AcDbLine
 10
13.07957399586924
 20
8.2e-15
 30
0.0
 11
10.7369063432111
 21
-9.704240898922192
 31
0.0
  0
ARC
  5
6B
330
2F
100
AcDbEntity
  8
A-DETL-GENF
100
AcDbCircle
 10
-33.66185718101752
 20
-9.000244140624456
 30
0.0
 40
3.000000000000001
100
AcDbArc
 50
193.5719110456201
 51
269.9999999999993
  0
ARC
  5
6C
330
2F
100
AcDbEntity
  8
A-DETL-GENF
100
AcDbCircle
 10
-23.25237912059352
 20
-9.000244140624456
 30
0.0
 40
2.999999999999997
100
AcDbArc
 50
269.9999999999992
 51
346.4298732547457
  0
ARC
  5
6D
330
2F
100
AcDbEntity
  8
A-DETL-GENF
100
AcDbCircle
 10
-2.588800196987837
 20
-9.000244140624456
 30
0.0
 40
2.999999999999999
100
AcDbArc
 50
193.571911045622
 51
269.9999999999993
  0
ARC
  5
6E
330
2F
100
AcDbEntity
  8
A-DETL-GENF
100
AcDbCircle
 10
7.820677860340379
 20
-9.000244140624456
 30
0.0
 40
2.999999999999997
100
AcDbArc
 50
269.9999999999997
 51
346.4280889543768
  0
ENDBLK
  5
31
330
2F
100
AcDbEntity
  8
0
100
AcDbBlockEnd
  0
ENDSEC
  0
SECTION
  2
ENTITIES
  0
INSERT
  5
70
330
17
100
AcDbEntity
  8
0
100
AcDbBlockReference
  2
47 dakpan OVH-pan hor - standaard-1591657-00_0 Basismaterialen
 10
0.0
 20
0.0
 30
0.0
  0
ENDSEC
  0
SECTION
  2
OBJECTS
  0
DICTIONARY
  5
A
330
0
100
AcDbDictionary
281
1
  3
ACAD_COLOR
350
B
  3
ACAD_GROUP
350
C
  3
ACAD_LAYOUT
350
D
  3
ACAD_MATERIAL
350
E
  3
ACAD_MLEADERSTYLE
350
F
  3
ACAD_MLINESTYLE
350
10
  3
ACAD_PLOTSETTINGS
350
11
  3
ACAD_PLOTSTYLENAME
350
12
  3
ACAD_SCALELIST
350
14
  3
ACAD_TABLESTYLE
350
15
  3
ACAD_VISUALSTYLE
350
16
  3
EZDXF_META
350
2D
  0
DICTIONARY
  5
B
330
A
100
AcDbDictionary
281
1
  0
DICTIONARY
  5
C
330
A
100
AcDbDictionary
281
1
  0
DICTIONARY
  5
D
330
A
100
AcDbDictionary
281
1
  3
Model
350
1A
  3
Layout1
350
1E
  0
DICTIONARY
  5
E
330
A
100
AcDbDictionary
281
1
  3
ByBlock
350
1F
  3
ByLayer
350
20
  3
Global
350
21
  0
DICTIONARY
  5
F
330
A
100
AcDbDictionary
281
1
  3
Standard
350
2C
  0
DICTIONARY
  5
10
330
A
100
AcDbDictionary
281
1
  3
Standard
350
22
  0
DICTIONARY
  5
11
330
A
100
AcDbDictionary
281
1
  0
ACDBDICTIONARYWDFLT
  5
12
330
A
100
AcDbDictionary
281
1
  3
Normal
350
13
100
AcDbDictionaryWithDefault
340
13
  0
ACDBPLACEHOLDER
  5
13
330
12
  0
DICTIONARY
  5
14
330
A
100
AcDbDictionary
281
1
  0
DICTIONARY
  5
15
330
A
100
AcDbDictionary
281
1
  0
DICTIONARY
  5
16
330
A
100
AcDbDictionary
281
1
  0
LAYOUT
  5
1A
330
D
100
AcDbPlotSettings
  1

  4
A3
  6

 40
7.5
 41
20.0
 42
7.5
 43
20.0
 44
420.0
 45
297.0
 46
0.0
 47
0.0
 48
0.0
 49
0.0
140
0.0
141
0.0
142
1.0
143
1.0
 70
1024
 72
1
 73
0
 74
5
  7

 75
16
 76
0
 77
2
 78
300
147
1.0
148
0.0
149
0.0
100
AcDbLayout
  1
Model
 70
1
 71
0
 10
0.0
 20
0.0
 11
420.0
 21
297.0
 12
0.0
 22
0.0
 32
0.0
 14
1e+20
 24
1e+20
 34
1e+20
 15
-1e+20
 25
-1e+20
 35
-1e+20
146
0.0
 13
0.0
 23
0.0
 33
0.0
 16
1.0
 26
0.0
 36
0.0
 17
0.0
 27
1.0
 37
0.0
 76
1
330
17
  0
LAYOUT
  5
1E
330
D
100
AcDbPlotSettings
  1

  4
A3
  6

 40
7.5
 41
20.0
 42
7.5
 43
20.0
 44
420.0
 45
297.0
 46
0.0
 47
0.0
 48
0.0
 49
0.0
140
0.0
141
0.0
142
1.0
143
1.0
 70
0
 72
1
 73
0
 74
5
  7

 75
16
 76
0
 77
2
 78
300
147
1.0
148
0.0
149
0.0
100
AcDbLayout
  1
Layout1
 70
1
 71
1
 10
0.0
 20
0.0
 11
420.0
 21
297.0
 12
0.0
 22
0.0
 32
0.0
 14
1e+20
 24
1e+20
 34
1e+20
 15
-1e+20
 25
-1e+20
 35
-1e+20
146
0.0
 13
0.0
 23
0.0
 33
0.0
 16
1.0
 26
0.0
 36
0.0
 17
0.0
 27
1.0
 37
0.0
 76
1
330
1B
  0
MATERIAL
  5
1F
102
{ACAD_REACTORS
330
E
102
}
330
E
100
AcDbMaterial
  1
ByBlock
  2

 70
0
 40
1.0
 71
1
 41
1.0
 91
-1023410177
 42
1.0
 72
1
  3

 73
1
 74
1
 75
1
 44
0.5
 73
0
 45
1.0
 46
1.0
 77
1
  4

 78
1
 79
1
170
1
 48
1.0
171
1
  6

172
1
173
1
174
1
140
1.0
141
1.0
175
1
  7

176
1
177
1
178
1
143
1.0
179
1
  8

270
1
271
1
272
1
145
1.0
146
1.0
273
1
  9

274
1
275
1
276
1
 42
1.0
 72
1
  3

 73
1
 74
1
 75
1
 94
63
  0
MATERIAL
  5
20
102
{ACAD_REACTORS
330
E
102
}
330
E
100
AcDbMaterial
  1
ByLayer
  2

 70
0
 40
1.0
 71
1
 41
1.0
 91
-1023410177
 42
1.0
 72
1
  3

 73
1
 74
1
 75
1
 44
0.5
 73
0
 45
1.0
 46
1.0
 77
1
  4

 78
1
 79
1
170
1
 48
1.0
171
1
  6

172
1
173
1
174
1
140
1.0
141
1.0
175
1
  7

176
1
177
1
178
1
143
1.0
179
1
  8

270
1
271
1
272
1
145
1.0
146
1.0
273
1
  9

274
1
275
1
276
1
 42
1.0
 72
1
  3

 73
1
 74
1
 75
1
 94
63
  0
MATERIAL
  5
21
102
{ACAD_REACTORS
330
E
102
}
330
E
100
AcDbMaterial
  1
Global
  2

 70
0
 40
1.0
 71
1
 41
1.0
 91
-1023410177
 42
1.0
 72
1
  3

 73
1
 74
1
 75
1
 44
0.5
 73
0
 45
1.0
 46
1.0
 77
1
  4

 78
1
 79
1
170
1
 48
1.0
171
1
  6

172
1
173
1
174
1
140
1.0
141
1.0
175
1
  7

176
1
177
1
178
1
143
1.0
179
1
  8

270
1
271
1
272
1
145
1.0
146
1.0
273
1
  9

274
1
275
1
276
1
 42
1.0
 72
1
  3

 73
1
 74
1
 75
1
 94
63
  0
MLINESTYLE
  5
22
102
{ACAD_REACTORS
330
10
102
}
330
10
100
AcDbMlineStyle
  2
Standard
 70
0
  3

 62
256
 51
90.0
 52
90.0
 71
2
 49
0.5
 62
256
  6
BYLAYER
 49
-0.5
 62
256
  6
BYLAYER
  0
MLEADERSTYLE
  5
2C
102
{ACAD_REACTORS
330
F
102
}
330
F
100
AcDbMLeaderStyle
179
2
170
2
171
1
172
0
 90
2
 40
0.0
 41
0.0
173
1
 91
-1056964608
 92
-2
290
1
 42
2.0
291
1
 43
8.0
  3
Standard
 44
4.0
300

342
29
174
1
175
1
176
0
178
1
 93
-1056964608
 45
4.0
292
0
297
0
 46
4.0
 94
-1056964608
 47
1.0
 49
1.0
140
1.0
294
1
141
0.0
177
0
142
1.0
295
0
296
0
143
3.75
271
0
272
9
273
9
  0
DICTIONARY
  5
2D
330
A
100
AcDbDictionary
280
1
281
1
  3
CREATED_BY_EZDXF
350
2E
  3
WRITTEN_BY_EZDXF
350
74
  0
DICTIONARYVAR
  5
2E
330
2D
100
DictionaryVariables
280
0
  1
1.4.3 @ 2026-02-13T04:54:14.808272+00:00
  0
DICTIONARYVAR
  5
74
330
2D
100
DictionaryVariables
280
0
  1
1.4.3 @ 2026-02-13T04:54:14.812857+00:00
  0
ENDSEC
  0
EOF
