  0
SECTION
  2
HEADER
  9
$ACADVER
  1
AC1032
  9
$ACADMAINTVER
 90
4
  9
$DWGCODEPAGE
  3
ANSI_1252
  9
$LASTSAVEDBY
  1
ezdxf
  9
$REQUIREDVERSIONS
160
0
  9
$INSBASE
 10
0.0
 20
0.0
 30
0.0
  9
$EXTMIN
 10
1e+20
 20
1e+20
 30
1e+20
  9
$EXTMAX
 10
-1e+20
 20
-1e+20
 30
-1e+20
  9
$LIMMIN
 10
0.0
 20
0.0
  9
$LIMMAX
 10
420.0
 20
297.0
  9
$ORTHOMODE
 70
0
  9
$REGENMODE
 70
1
  9
$FILLMODE
 70
1
  9
$QTEXTMODE
 70
0
  9
$MIRRTEXT
 70
1
  9
$LTSCALE
 40
1.0
  9
$ATTMODE
 70
1
  9
$TEXTSIZE
 40
2.5
  9
$TRACEWID
 40
1.0
  9
$TEXTSTYLE
  7
Standard
  9
$CLAYER
  8
0
  9
$CELTYPE
  6
ByLayer
  9
$CECOLOR
 62
256
  9
$CELTSCALE
 40
1.0
  9
$DISPSILH
 70
0
  9
$DIMSCALE
 40
1.0
  9
$DIMASZ
 40
2.5
  9
$DIMEXO
 40
0.625
  9
$DIMDLI
 40
3.75
  9
$DIMRND
 40
0.0
  9
$DIMDLE
 40
0.0
  9
$DIMEXE
 40
1.25
  9
$DIMTP
 40
0.0
  9
$DIMTM
 40
0.0
  9
$DIMTXT
 40
2.5
  9
$DIMCEN
 40
2.5
  9
$DIMTSZ
 40
0.0
  9
$DIMTOL
 70
0
  9
$DIMLIM
 70
0
  9
$DIMTIH
 70
0
  9
$DIMTOH
 70
0
  9
$DIMSE1
 70
0
  9
$DIMSE2
 70
0
  9
$DIMTAD
 70
1
  9
$DIMZIN
 70
8
  9
$DIMBLK
  1

  9
$DIMASO
 70
1
  9
$DIMSHO
 70
1
  9
$DIMPOST
  1

  9
$DIMAPOST
  1

  9
$DIMALT
 70
0
  9
$DIMALTD
 70
3
  9
$DIMALTF
 40
0.03937007874
  9
$DIMLFAC
 40
1.0
  9
$DIMTOFL
 70
1
  9
$DIMTVP
 40
0.0
  9
$DIMTIX
 70
0
  9
$DIMSOXD
 70
0
  9
$DIMSAH
 70
0
  9
$DIMBLK1
  1

  9
$DIMBLK2
  1

  9
$DIMSTYLE
  2
ISO-25
  9
$DIMCLRD
 70
0
  9
$DIMCLRE
 70
0
  9
$DIMCLRT
 70
0
  9
$DIMTFAC
 40
1.0
  9
$DIMGAP
 40
0.625
  9
$DIMJUST
 70
0
  9
$DIMSD1
 70
0
  9
$DIMSD2
 70
0
  9
$DIMTOLJ
 70
0
  9
$DIMTZIN
 70
8
  9
$DIMALTZ
 70
0
  9
$DIMALTTZ
 70
0
  9
$DIMUPT
 70
0
  9
$DIMDEC
 70
2
  9
$DIMTDEC
 70
2
  9
$DIMALTU
 70
2
  9
$DIMALTTD
 70
3
  9
$DIMTXSTY
  7
Standard
  9
$DIMAUNIT
 70
0
  9
$DIMADEC
 70
0
  9
$DIMALTRND
 40
0.0
  9
$DIMAZIN
 70
0
  9
$DIMDSEP
 70
44
  9
$DIMATFIT
 70
3
  9
$DIMFRAC
 70
0
  9
$DIMLDRBLK
  1

  9
$DIMLUNIT
 70
2
  9
$DIMLWD
 70
-2
  9
$DIMLWE
 70
-2
  9
$DIMTMOVE
 70
0
  9
$DIMFXL
 40
1.0
  9
$DIMFXLON
 70
0
  9
$DIMJOGANG
 40
0.785398163397
  9
$DIMTFILL
 70
0
  9
$DIMTFILLCLR
 70
0
  9
$DIMARCSYM
 70
0
  9
$DIMLTYPE
  6

  9
$DIMLTEX1
  6

  9
$DIMLTEX2
  6

  9
$DIMTXTDIRECTION
 70
0
  9
$LUNITS
 70
2
  9
$LUPREC
 70
4
  9
$SKETCHINC
 40
1.0
  9
$FILLETRAD
 40
10.0
  9
$AUNITS
 70
0
  9
$AUPREC
 70
2
  9
$MENU
  1
.
  9
$ELEVATION
 40
0.0
  9
$PELEVATION
 40
0.0
  9
$THICKNESS
 40
0.0
  9
$LIMCHECK
 70
0
  9
$CHAMFERA
 40
0.0
  9
$CHAMFERB
 40
0.0
  9
$CHAMFERC
 40
0.0
  9
$CHAMFERD
 40
0.0
  9
$SKPOLY
 70
0
  9
$TDCREATE
 40
2461085.24599537
  9
$TDUCREATE
 40
2458532.153996898
  9
$TDUPDATE
 40
2461085.24599537
  9
$TDUUPDATE
 40
2458532.1544311
  9
$TDINDWG
 40
0.0
  9
$TDUSRTIMER
 40
0.0
  9
$USRTIMER
 70
1
  9
$ANGBASE
 50
0.0
  9
$ANGDIR
 70
0
  9
$PDMODE
 70
0
  9
$PDSIZE
 40
0.0
  9
$PLINEWID
 40
0.0
  9
$SPLFRAME
 70
0
  9
$SPLINETYPE
 70
6
  9
$SPLINESEGS
 70
8
  9
$HANDSEED
  5
7B
  9
$SURFTAB1
 70
6
  9
$SURFTAB2
 70
6
  9
$SURFTYPE
 70
6
  9
$SURFU
 70
6
  9
$SURFV
 70
6
  9
$UCSBASE
  2

  9
$UCSNAME
  2

  9
$UCSORG
 10
0.0
 20
0.0
 30
0.0
  9
$UCSXDIR
 10
1.0
 20
0.0
 30
0.0
  9
$UCSYDIR
 10
0.0
 20
1.0
 30
0.0
  9
$UCSORTHOREF
  2

  9
$UCSORTHOVIEW
 70
0
  9
$UCSORGTOP
 10
0.0
 20
0.0
 30
0.0
  9
$UCSORGBOTTOM
 10
0.0
 20
0.0
 30
0.0
  9
$UCSORGLEFT
 10
0.0
 20
0.0
 30
0.0
  9
$UCSORGRIGHT
 10
0.0
 20
0.0
 30
0.0
  9
$UCSORGFRONT
 10
0.0
 20
0.0
 30
0.0
  9
$UCSORGBACK
 10
0.0
 20
0.0
 30
0.0
  9
$PUCSBASE
  2

  9
$PUCSNAME
  2

  9
$PUCSORG
 10
0.0
 20
0.0
 30
0.0
  9
$PUCSXDIR
 10
1.0
 20
0.0
 30
0.0
  9
$PUCSYDIR
 10
0.0
 20
1.0
 30
0.0
  9
$PUCSORTHOREF
  2

  9
$PUCSORTHOVIEW
 70
0
  9
$PUCSORGTOP
 10
0.0
 20
0.0
 30
0.0
  9
$PUCSORGBOTTOM
 10
0.0
 20
0.0
 30
0.0
  9
$PUCSORGLEFT
 10
0.0
 20
0.0
 30
0.0
  9
$PUCSORGRIGHT
 10
0.0
 20
0.0
 30
0.0
  9
$PUCSORGFRONT
 10
0.0
 20
0.0
 30
0.0
  9
$PUCSORGBACK
 10
0.0
 20
0.0
 30
0.0
  9
$USERI1
 70
0
  9
$USERI2
 70
0
  9
$USERI3
 70
0
  9
$USERI4
 70
0
  9
$USERI5
 70
0
  9
$USERR1
 40
0.0
  9
$USERR2
 40
0.0
  9
$USERR3
 40
0.0
  9
$USERR4
 40
0.0
  9
$USERR5
 40
0.0
  9
$WORLDVIEW
 70
1
  9
$SHADEDGE
 70
3
  9
$SHADEDIF
 70
70
  9
$TILEMODE
 70
1
  9
$MAXACTVP
 70
64
  9
$PINSBASE
 10
0.0
 20
0.0
 30
0.0
  9
$PLIMCHECK
 70
0
  9
$PEXTMIN
 10
1e+20
 20
1e+20
 30
1e+20
  9
$PEXTMAX
 10
-1e+20
 20
-1e+20
 30
-1e+20
  9
$PLIMMIN
 10
0.0
 20
0.0
  9
$PLIMMAX
 10
420.0
 20
297.0
  9
$UNITMODE
 70
0
  9
$VISRETAIN
 70
1
  9
$PLINEGEN
 70
0
  9
$PSLTSCALE
 70
1
  9
$TREEDEPTH
 70
3020
  9
$CMLSTYLE
  2
Standard
  9
$CMLJUST
 70
0
  9
$CMLSCALE
 40
20.0
  9
$PROXYGRAPHICS
 70
1
  9
$MEASUREMENT
 70
1
  9
$CELWEIGHT
370
-1
  9
$ENDCAPS
280
0
  9
$JOINSTYLE
280
0
  9
$LWDISPLAY
290
0
  9
$INSUNITS
 70
6
  9
$HYPERLINKBASE
  1

  9
$STYLESHEET
  1

  9
$XEDIT
290
1
  9
$CEPSNTYPE
380
0
  9
$PSTYLEMODE
290
1
  9
$FINGERPRINTGUID
  2
{D71FC032-1C82-4BF1-AD5A-12DDD1CD319D}
  9
$VERSIONGUID
  2
{7F45E725-3D7A-4541-906A-BB8F0E07FA09}
  9
$EXTNAMES
290
1
  9
$PSVPSCALE
 40
0.0
  9
$OLESTARTUP
290
0
  9
$SORTENTS
280
127
  9
$INDEXCTL
280
0
  9
$HIDETEXT
280
1
  9
$XCLIPFRAME
280
1
  9
$HALOGAP
280
0
  9
$OBSCOLOR
 70
257
  9
$OBSLTYPE
280
0
  9
$INTERSECTIONDISPLAY
280
0
  9
$INTERSECTIONCOLOR
 70
257
  9
$DIMASSOC
280
2
  9
$PROJECTNAME
  1

  9
$CAMERADISPLAY
290
0
  9
$LENSLENGTH
 40
50.0
  9
$CAMERAHEIGHT
 40
0.0
  9
$STEPSPERSEC
 40
24.0
  9
$STEPSIZE
 40
100.0
  9
$3DDWFPREC
 40
2.0
  9
$PSOLWIDTH
 40
0.005
  9
$PSOLHEIGHT
 40
0.08
  9
$LOFTANG1
 40
1.570796326795
  9
$LOFTANG2
 40
1.570796326795
  9
$LOFTMAG1
 40
0.0
  9
$LOFTMAG2
 40
0.0
  9
$LOFTPARAM
 70
7
  9
$LOFTNORMALS
280
1
  9
$LATITUDE
 40
37.795
  9
$LONGITUDE
 40
-122.394
  9
$NORTHDIRECTION
 40
0.0
  9
$TIMEZONE
 70
-8000
  9
$LIGHTGLYPHDISPLAY
280
1
  9
$TILEMODELIGHTSYNCH
280
1
  9
$CMATERIAL
347
20
  9
$SOLIDHIST
280
0
  9
$SHOWHIST
280
1
  9
$DWFFRAME
280
2
  9
$DGNFRAME
280
2
  9
$REALWORLDSCALE
290
1
  9
$INTERFERECOLOR
 62
256
  9
$CSHADOW
280
0
  9
$SHADOWPLANELOCATION
 40
0.0
  0
ENDSEC
  0
SECTION
  2
CLASSES
  0
CLASS
  1
ACDBDICTIONARYWDFLT
  2
AcDbDictionaryWithDefault
  3
ObjectDBX Classes
 90
0
 91
0
280
0
281
0
  0
CLASS
  1
SUN
  2
AcDbSun
  3
SCENEOE
 90
1153
 91
0
280
0
281
0
  0
CLASS
  1
VISUALSTYLE
  2
AcDbVisualStyle
  3
ObjectDBX Classes
 90
4095
 91
0
280
0
281
0
  0
CLASS
  1
MATERIAL
  2
AcDbMaterial
  3
ObjectDBX Classes
 90
1153
 91
0
280
0
281
0
  0
CLASS
  1
SCALE
  2
AcDbScale
  3
ObjectDBX Classes
 90
1153
 91
0
280
0
281
0
  0
CLASS
  1
TABLESTYLE
  2
AcDbTableStyle
  3
ObjectDBX Classes
 90
4095
 91
0
280
0
281
0
  0
CLASS
  1
MLEADERSTYLE
  2
AcDbMLeaderStyle
  3
ACDB_MLEADERSTYLE_CLASS
 90
4095
 91
0
280
0
281
0
  0
CLASS
  1
DICTIONARYVAR
  2
AcDbDictionaryVar
  3
ObjectDBX Classes
 90
0
 91
0
280
0
281
0
  0
CLASS
  1
CELLSTYLEMAP
  2
AcDbCellStyleMap
  3
ObjectDBX Classes
 90
1152
 91
0
280
0
281
0
  0
CLASS
  1
MENTALRAYRENDERSETTINGS
  2
AcDbMentalRayRenderSettings
  3
SCENEOE
 90
1024
 91
0
280
0
281
0
  0
CLASS
  1
ACDBDETAILVIEWSTYLE
  2
AcDbDetailViewStyle
  3
ObjectDBX Classes
 90
1025
 91
0
280
0
281
0
  0
CLASS
  1
ACDBSECTIONVIEWSTYLE
  2
AcDbSectionViewStyle
  3
ObjectDBX Classes
 90
1025
 91
0
280
0
281
0
  0
CLASS
  1
RASTERVARIABLES
  2
AcDbRasterVariables
  3
ISM
 90
0
 91
0
280
0
281
0
  0
CLASS
  1
LAYOUT
  2
AcDbLayout
  3
ObjectDBX Classes
 90
0
 91
0
280
0
281
0
  0
CLASS
  1
ACDBPLACEHOLDER
  2
AcDbPlaceHolder
  3
ObjectDBX Classes
 90
0
 91
0
280
0
281
0
  0
ENDSEC
  0
SECTION
  2
TABLES
  0
TABLE
  2
VPORT
  5
8
330
0
100
AcDbSymbolTable
 70
1
  0
VPORT
  5
23
330
8
100
AcDbSymbolTableRecord
100
AcDbViewportTableRecord
  2
*Active
 70
0
 10
0.0
 20
0.0
 11
1.0
 21
1.0
 12
0.0
 22
0.0
 13
0.0
 23
0.0
 14
0.5
 24
0.5
 15
0.5
 25
0.5
 16
0.0
 26
0.0
 36
1.0
 17
0.0
 27
0.0
 37
0.0
 40
1000.0
 41
1.34
 42
50.0
 43
0.0
 44
0.0
 50
0.0
 51
0.0
 71
0
 72
1000
 73
1
 74
3
 75
0
 76
0
 77
0
 78
0
281
0
 65
0
146
0.0
  0
ENDTAB
  0
TABLE
  2
LTYPE
  5
2
330
0
100
AcDbSymbolTable
 70
3
  0
LTYPE
  5
24
330
2
100
AcDbSymbolTableRecord
100
AcDbLinetypeTableRecord
  2
ByBlock
 70
0
  3

 72
65
 73
0
 40
0.0
  0
LTYPE
  5
25
330
2
100
AcDbSymbolTableRecord
100
AcDbLinetypeTableRecord
  2
ByLayer
 70
0
  3

 72
65
 73
0
 40
0.0
  0
LTYPE
  5
26
330
2
100
AcDbSymbolTableRecord
100
AcDbLinetypeTableRecord
  2
Continuous
 70
0
  3

 72
65
 73
0
 40
0.0
  0
ENDTAB
  0
TABLE
  2
LAYER
  5
1
330
0
100
AcDbSymbolTable
 70
3
  0
LAYER
  5
27
330
1
100
AcDbSymbolTableRecord
100
AcDbLayerTableRecord
  2
0
 70
0
 62
7
  6
Continuous
370
-3
390
13
347
21
  0
LAYER
  5
28
330
1
100
AcDbSymbolTableRecord
100
AcDbLayerTableRecord
  2
Defpoints
 70
0
 62
7
  6
Continuous
290
0
370
-3
390
13
347
21
  0
LAYER
  5
75
330
1
100
AcDbSymbolTableRecord
100
AcDbLayerTableRecord
  2
A-DETL-GENF
 70
0
 62
92
  6
Continuous
370
18
390
13
347
21
348
0
  0
ENDTAB
  0
TABLE
  2
STYLE
  5
5
330
0
100
AcDbSymbolTable
 70
1
  0
STYLE
  5
29
330
5
100
AcDbSymbolTableRecord
100
AcDbTextStyleTableRecord
  2
Standard
 70
0
 40
0.0
 41
1.0
 50
0.0
 71
0
 42
2.5
  3
txt
  4

  0
ENDTAB
  0
TABLE
  2
VIEW
  5
7
330
0
100
AcDbSymbolTable
 70
0
  0
ENDTAB
  0
TABLE
  2
UCS
  5
6
330
0
100
AcDbSymbolTable
 70
0
  0
ENDTAB
  0
TABLE
  2
APPID
  5
3
330
0
100
AcDbSymbolTable
 70
3
  0
APPID
  5
2A
330
3
100
AcDbSymbolTableRecord
100
AcDbRegAppTableRecord
  2
ACAD
 70
0
  0
APPID
  5
78
330
3
100
AcDbSymbolTableRecord
100
AcDbRegAppTableRecord
  2
HATCHBACKGROUNDCOLOR
 70
0
  0
APPID
  5
79
330
3
100
AcDbSymbolTableRecord
100
AcDbRegAppTableRecord
  2
EZDXF
 70
0
  0
ENDTAB
  0
TABLE
  2
DIMSTYLE
  5
4
330
0
100
AcDbSymbolTable
 70
1
100
AcDbDimStyleTable
  0
DIMSTYLE
105
2B
330
4
100
AcDbSymbolTableRecord
100
AcDbDimStyleTableRecord
  2
Standard
 70
0
 40
1.0
 41
2.5
 42
0.625
 43
3.75
 44
1.25
 45
0.0
 46
0.0
 47
0.0
 48
0.0
 49
2.5
140
2.5
141
2.5
142
0.0
143
0.03937007874
144
1.0
145
0.0
146
1.0
147
0.625
148
0.0
 69
0
 70
0
 71
0
 72
0
 73
0
 74
0
 75
0
 76
0
 77
1
 78
8
 79
3
170
0
171
3
172
1
173
0
174
0
175
0
176
0
177
0
178
0
179
2
271
2
272
2
273
2
274
3
275
0
276
0
277
2
278
44
279
0
280
0
281
0
282
0
283
0
284
8
285
0
286
0
288
0
289
3
290
0
371
-2
372
-2
  0
ENDTAB
  0
TABLE
  2
BLOCK_RECORD
  5
9
330
0
100
AcDbSymbolTable
 70
3
  0
BLOCK_RECORD
  5
17
330
9
100
AcDbSymbolTableRecord
100
AcDbBlockTableRecord
  2
*Model_Space
340
1A
 70
0
280
1
281
0
  0
BLOCK_RECORD
  5
1B
330
9
100
AcDbSymbolTableRecord
100
AcDbBlockTableRecord
  2
*Paper_Space
340
1E
 70
0
280
1
281
0
  0
BLOCK_RECORD
  5
2F
330
9
100
AcDbSymbolTableRecord
100
AcDbBlockTableRecord
  2
47 dakpan F12U hor - dubbele welpan-1591651-00_0 Basismaterialen
340
0
 70
0
280
1
281
0
  0
ENDTAB
  0
ENDSEC
  0
SECTION
  2
BLOCKS
  0
BLOCK
  5
18
330
17
100
AcDbEntity
  8
0
100
AcDbBlockBegin
  2
*Model_Space
 70
0
 10
0.0
 20
0.0
 30
0.0
  3
*Model_Space
  1

  0
ENDBLK
  5
19
330
17
100
AcDbEntity
  8
0
100
AcDbBlockEnd
  0
BLOCK
  5
1C
330
1B
100
AcDbEntity
  8
0
100
AcDbBlockBegin
  2
*Paper_Space
 70
0
 10
0.0
 20
0.0
 30
0.0
  3
*Paper_Space
  1

  0
ENDBLK
  5
1D
330
1B
100
AcDbEntity
  8
0
100
AcDbBlockEnd
  0
BLOCK
  5
30
330
2F
100
AcDbEntity
  8
0
100
AcDbBlockBegin
  2
47 dakpan F12U hor - dubbele welpan-1591651-00_0 Basismaterialen
 70
0
 10
0.0
 20
0.0
 30
0.0
  3
47 dakpan F12U hor - dubbele welpan-1591651-00_0 Basismaterialen
  1

  0
HATCH
  5
32
330
2F
100
AcDbEntity
  8
A-DETL-GENF
370
13
100
AcDbHatch
 10
0.0
 20
0.0
 30
0.0
210
0.0
220
0.0
230
1.0
  2
FP_114
 70
0
 71
0
 91
1
 92
1
 93
155
 72
1
 10
-23.85508098746994
 20
-0.0156250080156497
 11
-17.35508098746709
 21
-0.0156250080156497
 72
1
 10
-17.35508098746709
 20
-0.0156250080156497
 11
-16.62851848746658
 21
2.687499991982923
 72
1
 10
-16.62851848746658
 20
2.687499991982923
 11
34.24684851507934
 21
2.687499991982923
 72
1
 10
34.24684851507934
 20
2.687499991982923
 11
39.74266170549426
 21
3.187338826067662
 72
1
 10
39.74266170549426
 20
3.187338826067662
 11
45.14651985068724
 21
4.117403032433213
 72
1
 10
45.14651985068724
 20
4.117403032433213
 11
50.4584229506713
 21
5.477692611083909
 72
1
 10
50.4584229506713
 20
5.477692611083909
 11
55.67837091867844
 21
7.268207785157517
 72
1
 10
55.67837091867844
 20
7.268207785157517
 11
56.53370002729765
 21
7.487389115577002
 72
1
 10
56.53370002729765
 20
7.487389115577002
 11
57.41661296134722
 21
7.497037459347064
 72
1
 10
57.41661296134722
 20
7.497037459347064
 11
58.27652760221621
 21
7.296600062451983
 72
1
 10
58.27652760221621
 20
7.296600062451983
 11
59.06417940445025
 21
6.897559991676184
 72
1
 10
59.06417940445025
 20
6.897559991676184
 11
59.73444376363201
 21
6.322778269227501
 72
1
 10
59.73444376363201
 20
6.322778269227501
 11
60.24892120681972
 21
5.605184163829505
 72
1
 10
60.24892120681972
 20
5.605184163829505
 11
60.57813729994395
 21
4.785888671543142
 72
1
 10
60.57813729994395
 20
4.785888671543142
 11
61.66592993633795
 21
0.9376070464281101
 72
1
 10
61.66592993633795
 20
0.9376070464281099
 11
61.93942218132165
 21
0.5678695490686323
 72
1
 10
61.93942218132165
 20
0.5678695490686323
 11
62.29590687287579
 21
0.2773140643323643
 72
1
 10
62.29590687287579
 20
0.2773140643323643
 11
62.71320729325165
 21
0.0840158900665643
 72
1
 10
62.71320729325165
 20
0.0840158900665642
 11
63.16536341146378
 21
2.1657e-12
 72
1
 10
63.16536341146378
 20
2.1657e-12
 11
68.11224204493533
 21
0.0496018439031218
 72
1
 10
68.11224204493533
 20
0.0496018439031218
 11
68.51373466917252
 21
0.1957334234021744
 72
1
 10
68.51373466917252
 20
0.1957334234021744
 11
68.8707046723027
 21
0.4305166909286357
 72
1
 10
68.8707046723027
 20
0.4305166909286357
 11
69.16390765715296
 21
0.741294385621211
 72
1
 10
69.16390765715296
 20
0.741294385621211
 11
69.3775369322867
 21
1.111312356333041
 72
1
 10
69.3775369322867
 20
1.111312356333041
 11
69.50007562153804
 21
1.520622790958344
 72
1
 10
69.50007562153804
 20
1.520622790958344
 11
70.68265565146991
 21
8.227442073404303
 72
1
 10
70.68265565146991
 20
8.227442073404303
 11
72.0597548538325
 21
12.97927088636918
 72
1
 10
72.0597548538325
 20
12.97927088636918
 11
74.41933551228608
 21
17.32767960647939
 72
1
 10
74.41933551228608
 20
17.32767960647939
 11
77.65265365143786
 21
21.07226677415482
 72
1
 10
77.65265365143786
 20
21.07226677415482
 11
81.00583402340729
 21
24.42631025601642
 72
1
 10
81.00583402340729
 20
24.42631025601642
 11
84.11953738860392
 21
28.00377830459309
 72
1
 10
84.11953738860392
 20
28.00377830459309
 11
89.40846104831036
 21
33.30058129207689
 72
1
 10
89.40846104831036
 20
33.30058129207689
 11
95.66892095086
 21
37.4036870882929
 72
1
 10
95.66892095086
 20
37.4036870882929
 11
102.6362364167115
 21
40.13962395996336
 72
1
 10
102.6362364167115
 20
40.13962395996336
 11
110.0158422180254
 21
41.39272156338708
 72
1
 10
110.0158422180254
 20
41.39272156338708
 11
110.9101664342243
 21
41.34207088249158
 72
1
 10
110.9101664342243
 20
41.34207088249158
 11
111.7658770851034
 21
41.07723021884603
 72
1
 10
111.7658770851034
 20
41.07723021884603
 11
112.5324575308831
 21
40.61383436721778
 72
1
 10
112.5324575308831
 20
40.61383436721778
 11
113.1646529085781
 21
39.97923977256273
 72
1
 10
113.1646529085781
 20
39.97923977256273
 11
113.6251417402709
 21
39.21090954991094
 72
1
 10
113.6251417402709
 20
39.21090954991094
 11
113.8867391958197
 21
38.35420185977792
 72
1
 10
113.8867391958197
 20
38.35420185977792
 11
116.6816488042015
 21
22.7787002238037
 72
1
 10
116.6816488042015
 20
22.7787002238037
 11
116.8868458392162
 21
22.41572716355579
 72
1
 10
116.8868458392162
 20
22.41572716355579
 11
117.1683566690062
 21
22.10814478701817
 72
1
 10
117.1683566690062
 20
22.10814478701817
 11
117.5117832674607
 21
21.87168456389414
 72
1
 10
117.5117832674607
 20
21.87168456389414
 11
117.899560892449
 21
21.71844038225663
 72
1
 10
117.899560892449
 20
21.71844038225663
 11
118.3118564442079
 21
21.65624999999995
 72
1
 10
118.3118564442079
 20
21.65624999999995
 11
121.4255579773363
 21
21.70510793799966
 72
1
 10
121.4255579773363
 20
21.70510793799966
 11
121.8246708298859
 21
21.84909034284275
 72
1
 10
121.8246708298859
 20
21.84909034284275
 11
122.1802599671897
 21
22.08056035690181
 72
1
 10
122.1802599671897
 20
22.08056035690181
 11
122.4734648849621
 21
22.38724077390012
 72
1
 10
122.4734648849621
 20
22.38724077390012
 11
122.6887339478342
 21
22.75286521584472
 72
1
 10
122.6887339478342
 20
22.75286521584472
 11
122.8146492505424
 21
23.15804090430613
 72
1
 10
122.8146492505424
 20
23.15804090430613
 11
124.7682343104419
 21
34.23749489962631
 72
1
 10
124.7682343104419
 20
34.23749489962631
 11
125.022176726799
 21
35.07695333838321
 72
1
 10
125.022176726799
 20
35.07695333838321
 11
125.4672106194542
 21
35.83267951605014
 72
1
 10
125.4672106194542
 20
35.83267951605014
 11
126.0781519225942
 21
36.46190757116567
 72
1
 10
126.0781519225942
 20
36.46190757116567
 11
126.8204280199616
 21
36.92903005670552
 72
1
 10
126.8204280199616
 20
36.92903005670552
 11
127.6520341779928
 21
37.20761293334169
 72
1
 10
127.6520341779928
 20
37.20761293334169
 11
128.525910555697
 21
37.28189144783399
 72
1
 10
128.525910555697
 20
37.28189144783399
 11
129.3926052785629
 21
37.14766224617128
 72
1
 10
129.3926052785629
 20
37.14766224617128
 11
130.2030728729052
 21
36.81252123306146
 72
1
 10
130.2030728729052
 20
36.81252123306146
 11
136.2383996741595
 21
32.56871685401614
 72
1
 10
136.2383996741595
 20
32.56871685401614
 11
141.2940353023006
 21
27.19511530560805
 72
1
 10
141.2940353023006
 20
27.19511530560805
 11
145.4921394419976
 21
20.38916056251252
 72
1
 10
145.4921394419976
 20
20.38916056251252
 11
145.9300286658342
 21
19.95223388012206
 72
1
 10
145.9300286658342
 20
19.95223388012206
 11
146.4540611209333
 21
19.62353662710292
 72
1
 10
146.4540611209333
 20
19.62353662710292
 11
147.0380328964569
 21
19.4195051012892
 72
1
 10
147.0380328964569
 20
19.4195051012892
 11
147.6527428538535
 21
19.35034179687582
 72
1
 10
147.6527428538535
 20
19.35034179687582
 11
152.4645854578412
 21
19.40048597280495
 72
1
 10
152.4645854578412
 20
19.40048597280495
 11
152.8873110640882
 21
19.54840406216028
 72
1
 10
152.8873110640882
 20
19.54840406216028
 11
153.2665231846797
 21
19.78667883408339
 72
1
 10
153.2665231846797
 20
19.78667883408339
 11
153.5832065399054
 21
20.10336219622863
 72
1
 10
153.5832065399054
 20
20.10336219622863
 11
153.8214813035403
 21
20.48257432202439
 72
1
 10
153.8214813035403
 20
20.48257432202439
 11
153.9693993836523
 21
20.90529993150486
 72
1
 10
153.9693993836523
 20
20.90529993150486
 11
154.0212525342324
 21
21.35034179687537
 72
1
 10
154.0212525342324
 20
21.35034179687537
 11
154.0212525342324
 21
24.8807373046843
 72
1
 10
154.0212525342324
 20
24.8807373046843
 11
148.7879207816307
 21
32.19952378290005
 72
1
 10
148.7879207816307
 20
32.19952378290005
 11
142.5510432609024
 21
38.67622750903336
 72
1
 10
142.5510432609024
 20
38.67622750903336
 11
138.4373278675818
 21
41.95251910935254
 72
1
 10
138.4373278675818
 20
41.95251910935254
 11
134.034874996027
 21
44.70014149126829
 72
1
 10
134.034874996027
 20
44.70014149126829
 11
129.3114341114713
 21
46.93213089163882
 72
1
 10
129.3114341114713
 20
46.93213089163882
 11
124.3637568181934
 21
48.60937859988732
 72
1
 10
124.3637568181934
 20
48.60937859988732
 11
119.2542134909869
 21
49.69806471657468
 72
1
 10
119.2542134909869
 20
49.69806471657468
 11
114.0536972835279
 21
50.19535904515891
 72
1
 10
114.0536972835279
 20
50.19535904515891
 11
108.8306743920514
 21
50.08265434983148
 72
1
 10
108.8306743920514
 20
50.08265434983148
 11
103.6547960636953
 21
49.37346184897452
 72
1
 10
103.6547960636953
 20
49.37346184897452
 11
98.5969712594139
 21
48.06537977110544
 72
1
 10
98.5969712594139
 20
48.06537977110544
 11
93.72189303397936
 21
46.18753985003371
 72
1
 10
93.72189303397936
 20
46.18753985003371
 11
89.09912972114768
 21
43.75387392661692
 72
1
 10
89.09912972114768
 20
43.75387392661692
 11
84.78496444494338
 21
40.80757990821942
 72
1
 10
84.78496444494338
 20
40.80757990821942
 11
80.8688038450553
 21
37.40247988094548
 72
1
 10
80.8688038450553
 20
37.40247988094548
 11
75.08874552907871
 21
31.01316723262623
 72
1
 10
75.08874552907871
 20
31.01316723262623
 11
73.8087853277024
 21
29.57530319999785
 72
1
 10
73.8087853277024
 20
29.57530319999785
 11
70.0312192443751
 21
25.99578631307418
 72
1
 10
70.0312192443751
 20
25.99578631307418
 11
65.98814746429407
 21
22.78208248375424
 72
1
 10
65.98814746429407
 20
22.78208248375424
 11
61.64506332043476
 21
19.91546703520475
 72
1
 10
61.64506332043476
 20
19.91546703520475
 11
57.03647347982606
 21
17.41466464426116
 72
1
 10
57.03647347982606
 20
17.41466464426116
 11
52.26589794356351
 21
15.33584934141677
 72
1
 10
52.26589794356351
 20
15.33584934141677
 11
47.36784337868039
 21
13.69774580350487
 72
1
 10
47.36784337868039
 20
13.69774580350487
 11
42.30780311815207
 21
12.48162935369435
 72
1
 10
42.30780311815207
 20
12.48162935369435
 11
37.0857771619699
 21
11.68749999198304
 72
1
 10
37.0857771619699
 20
11.68749999198304
 11
-23.17624681385929
 21
11.68749997849701
 72
1
 10
-23.17624681385929
 20
11.68749997849701
 11
-28.93357737336116
 21
12.30850546102733
 72
1
 10
-28.93357737336116
 20
12.30850546102733
 11
-34.46277012542617
 21
14.16482495919941
 72
1
 10
-34.46277012542617
 20
14.16482495919941
 11
-39.4010076995737
 21
17.10645534104536
 72
1
 10
-39.4010076995737
 20
17.10645534104536
 11
-43.6295756728581
 21
21.06268029369374
 72
1
 10
-43.6295756728581
 20
21.06268029369374
 11
-46.91723186785902
 21
25.8296310671164
 72
1
 10
-46.91723186785902
 20
25.8296310671164
 11
-50.17990105638406
 21
31.03072118782132
 72
1
 10
-50.17990105638406
 20
31.03072118782132
 11
-54.00067131124546
 21
35.71478822363319
 72
1
 10
-54.00067131124546
 20
35.71478822363319
 11
-58.41600122583926
 21
39.91242512959494
 72
1
 10
-58.41600122583926
 20
39.91242512959494
 11
-63.31651501995134
 21
43.53185304056695
 72
1
 10
-63.31651501995134
 20
43.53185304056695
 11
-68.63574931350058
 21
46.50187667335434
 72
1
 10
-68.63574931350058
 20
46.50187667335434
 11
-74.28142549946232
 21
48.79133823718315
 72
1
 10
-74.28142549946232
 20
48.79133823718315
 11
-80.17148550485626
 21
50.34777229676996
 72
1
 10
-80.17148550485626
 20
50.34777229676996
 11
-86.20880434746371
 21
51.16390650245252
 72
1
 10
-86.20880434746371
 20
51.16390650245252
 11
-92.3008675561366
 21
51.20929053618308
 72
1
 10
-92.3008675561366
 20
51.20929053618308
 11
-98.35178552467823
 21
50.50099286784114
 72
1
 10
-98.35178552467823
 20
50.50099286784114
 11
-104.2643804349974
 21
49.03248502807322
 72
1
 10
-104.2643804349974
 20
49.03248502807322
 11
-109.9500024516208
 21
46.84410751651979
 72
1
 10
-109.9500024516208
 20
46.84410751651979
 11
-115.3128954691968
 21
43.95366251080919
 72
1
 10
-115.3128954691968
 20
43.95366251080919
 11
-120.277200479277
 21
40.42223650763732
 72
1
 10
-120.277200479277
 20
40.42223650763732
 11
-124.7545791244245
 21
36.29084759868767
 72
1
 10
-124.7545791244245
 20
36.29084759868767
 11
-128.686713346262
 21
31.63750317661494
 72
1
 10
-128.686713346262
 20
31.63750317661494
 11
-131.9748684450911
 21
26.56534334253534
 72
1
 10
-131.9748684450911
 20
26.56534334253534
 11
-134.6519559874694
 21
21.03998806274347
 72
1
 10
-134.6519559874694
 20
21.03998806274347
 11
-134.6519559874694
 21
17.98437499198242
 72
1
 10
-134.6519559874694
 20
17.98437499198242
 11
-133.7535184874681
 21
17.98437499198242
 72
1
 10
-133.7535184874681
 20
17.98437499198242
 11
-133.1207059874692
 21
14.39062499198378
 72
1
 10
-133.1207059874692
 20
14.39062499198378
 11
-124.7535184874701
 21
14.39062499198378
 72
1
 10
-124.7535184874701
 20
14.39062499198378
 11
-121.6280819942197
 21
26.04850311180288
 72
1
 10
-121.6280819942197
 20
26.04850311180288
 11
-118.4122541922198
 21
29.90445963629998
 72
1
 10
-118.4122541922198
 20
29.90445963629998
 11
-114.7999677503239
 21
33.27815600966128
 72
1
 10
-114.7999677503239
 20
33.27815600966128
 11
-110.7580611882479
 21
36.19048327296042
 72
1
 10
-110.7580611882479
 20
36.19048327296042
 11
-106.3860189468571
 21
38.57876830296566
 72
1
 10
-106.3860189468571
 20
38.57876830296566
 11
-101.7460049786319
 21
40.39230879596718
 72
1
 10
-101.7460049786319
 20
40.39230879596718
 11
-96.91681926839972
 21
41.61608333449222
 72
1
 10
-96.91681926839972
 20
41.61608333449222
 11
-91.97129721513315
 21
42.21647517796737
 72
1
 10
-91.97129721513315
 20
42.21647517796737
 11
-86.9894965288593
 21
42.19856799199117
 72
1
 10
-86.9894965288593
 20
42.19856799199117
 11
-82.05033105415043
 21
41.54795047107969
 72
1
 10
-82.05033105415043
 20
41.54795047107969
 11
-77.23006778635242
 21
40.28949078790472
 72
1
 10
-77.23006778635242
 20
40.28949078790472
 11
-72.60872270790487
 21
38.42889184912385
 72
1
 10
-72.60872270790487
 20
38.42889184912385
 11
-68.25396270208141
 21
36.00923814729355
 72
1
 10
-68.25396270208141
 20
36.00923814729355
 11
-64.24186008065784
 21
33.0559871758697
 72
1
 10
-64.24186008065784
 20
33.0559871758697
 11
-60.62721454058018
 21
29.62772283882488
 72
1
 10
-60.62721454058018
 20
29.62772283882488
 11
-57.50020285783506
 21
25.79989858816854
 72
1
 10
-57.50020285783506
 20
25.79989858816854
 11
-52.51133098746613
 21
17.82812499198408
 72
1
 10
-52.51133098746613
 20
17.82812499198408
 11
-50.4722684874735
 21
15.21874999198495
 72
1
 10
-50.4722684874735
 20
15.21874999198495
 11
-47.42539348746688
 21
12.07812499198322
 72
1
 10
-47.42539348746688
 20
12.07812499198322
 11
-43.99570598746996
 21
9.320312491982634
 72
1
 10
-43.99570598746996
 20
9.320312491982634
 11
-40.46445598747022
 21
7.10937499198273
 72
1
 10
-40.46445598747022
 20
7.10937499198273
 11
-37.31601848746946
 21
5.578124991982536
 72
1
 10
-37.31601848746946
 20
5.578124991982536
 11
-32.7613309874663
 21
3.984374991983441
 72
1
 10
-32.7613309874663
 20
3.984374991983441
 11
-25.0425809874686
 21
2.92968749198165
 72
1
 10
-25.0425809874686
 20
2.92968749198165
 11
-23.85508098746994
 21
-0.0156250080156495
 97
0
 75
0
 76
2
 52
0.0
 41
1.0
 77
0
 78
1
 53
45.0
 43
8144.316999999999
 44
1367.04
 45
-10.60660171779821
 46
10.60660171779821
 79
0
 98
1
 10
0.0
 20
0.0
  0
LINE
  5
33
330
2F
100
AcDbEntity
  8
A-DETL-GENF
370
35
100
AcDbLine
 10
-134.6519559874571
 20
21.03998806274563
 30
0.0
 11
-134.6519559874571
 21
17.98437499198371
 31
0.0
  0
LINE
  5
34
330
2F
100
AcDbEntity
  8
A-DETL-GENF
370
35
100
AcDbLine
 10
-134.6519559874571
 20
17.98437499198371
 30
0.0
 11
-133.753518487458
 21
17.98437499198371
 31
0.0
  0
LINE
  5
35
330
2F
100
AcDbEntity
  8
A-DETL-GENF
370
35
100
AcDbLine
 10
-133.753518487458
 20
17.98437499198371
 30
0.0
 11
-133.1207059874569
 21
14.39062499198399
 31
0.0
  0
LINE
  5
36
330
2F
100
AcDbEntity
  8
A-DETL-GENF
370
35
100
AcDbLine
 10
-133.1207059874569
 20
14.39062499198399
 30
0.0
 11
-124.7535184874579
 21
14.39062499198399
 31
0.0
  0
LINE
  5
37
330
2F
100
AcDbEntity
  8
A-DETL-GENF
370
35
100
AcDbLine
 10
-124.7535184874579
 20
14.39062499198399
 30
0.0
 11
-121.6280819942074
 21
26.04850311180276
 31
0.0
  0
ARC
  5
38
330
2F
100
AcDbEntity
  8
A-DETL-GENF
370
35
100
AcDbCircle
 10
-89.65194457714696
 20
2.687601949227774
 30
0.0
 40
39.6005690267492
100
AcDbArc
 50
28.44075272596872
 51
143.849146191436
  0
LINE
  5
39
330
2F
100
AcDbEntity
  8
A-DETL-GENF
370
35
100
AcDbLine
 10
-54.83076610708618
 20
21.54736327323464
 30
0.0
 11
-52.51133098745607
 21
17.82812499198379
 31
0.0
  0
LINE
  5
3A
330
2F
100
AcDbEntity
  8
A-DETL-GENF
370
35
100
AcDbLine
 10
-52.51133098745605
 20
17.82812499198378
 30
0.0
 11
-50.47226848745793
 21
15.21874999198512
 31
0.0
  0
LINE
  5
3B
330
2F
100
AcDbEntity
  8
A-DETL-GENF
370
35
100
AcDbLine
 10
-50.47226848745795
 20
15.21874999198516
 30
0.0
 11
-47.42539348745673
 21
12.07812499198392
 31
0.0
  0
LINE
  5
3C
330
2F
100
AcDbEntity
  8
A-DETL-GENF
370
35
100
AcDbLine
 10
-47.42539348745676
 20
12.07812499198396
 30
0.0
 11
-43.99570598745771
 21
9.320312491983938
 31
0.0
  0
LINE
  5
3D
330
2F
100
AcDbEntity
  8
A-DETL-GENF
370
35
100
AcDbLine
 10
-43.99570598745764
 20
9.32031249198389
 30
0.0
 11
-40.46445598745791
 21
7.10937499198399
 31
0.0
  0
LINE
  5
3E
330
2F
100
AcDbEntity
  8
A-DETL-GENF
370
35
100
AcDbLine
 10
-40.46445598745794
 20
7.109374991984012
 30
0.0
 11
-37.31601848745523
 21
5.578124991983138
 31
0.0
  0
LINE
  5
3F
330
2F
100
AcDbEntity
  8
A-DETL-GENF
370
35
100
AcDbLine
 10
-37.3160184874552
 20
5.578124991983131
 30
0.0
 11
-32.7613309874562
 21
3.984374991983646
 31
0.0
  0
LINE
  5
40
330
2F
100
AcDbEntity
  8
A-DETL-GENF
370
35
100
AcDbLine
 10
-32.76133098745621
 20
3.98437499198365
 30
0.0
 11
-25.04258098745621
 21
2.929687491983737
 31
0.0
  0
LINE
  5
41
330
2F
100
AcDbEntity
  8
A-DETL-GENF
370
35
100
AcDbLine
 10
-25.04258098745621
 20
2.929687491983737
 30
0.0
 11
-23.85508098745768
 21
-0.0156250080159838
 31
0.0
  0
LINE
  5
42
330
2F
100
AcDbEntity
  8
A-DETL-GENF
370
35
100
AcDbLine
 10
-23.85508098745768
 20
-0.0156250080159838
 30
0.0
 11
-17.35508098745699
 21
-0.0156250080159838
 31
0.0
  0
LINE
  5
43
330
2F
100
AcDbEntity
  8
A-DETL-GENF
370
35
100
AcDbLine
 10
-17.35508098745699
 20
-0.0156250080159838
 30
0.0
 11
-16.62851848745654
 21
2.687499991983672
 31
0.0
  0
LINE
  5
44
330
2F
100
AcDbEntity
  8
A-DETL-GENF
370
35
100
AcDbLine
 10
-16.62851848745654
 20
2.687499991983672
 30
0.0
 11
34.24684851509039
 21
2.687499991983672
 31
0.0
  0
ARC
  5
45
330
2F
100
AcDbEntity
  8
A-DETL-GENF
370
35
100
AcDbCircle
 10
30.79292084606917
 20
71.27285340385514
 30
0.0
 40
68.6722674663808
100
AcDbArc
 50
272.8829542931127
 51
291.2464266195438
  0
ARC
  5
46
330
2F
100
AcDbEntity
  8
A-DETL-GENF
370
35
100
AcDbCircle
 10
57.01517682013353
 20
3.829982326783546
 30
0.0
 40
3.688962499232726
100
AcDbArc
 50
15.01821239669841
 51
111.2464266195441
  0
LINE
  5
47
330
2F
100
AcDbEntity
  8
A-DETL-GENF
370
35
100
AcDbLine
 10
60.5781372999579
 20
4.785888671545003
 30
0.0
 11
61.49244394096309
 21
1.363525388872018
 31
0.0
  0
ARC
  5
48
330
2F
100
AcDbEntity
  8
A-DETL-GENF
370
35
100
AcDbCircle
 10
63.27350313294751
 20
1.840698813920273
 30
0.0
 40
1.84387264281576
100
AcDbArc
 50
194.998200699316
 51
266.6377791283398
  0
LINE
  5
49
330
2F
100
AcDbEntity
  8
A-DETL-GENF
370
35
100
AcDbLine
 10
63.16536341147504
 20
8.841e-13
 30
0.0
 11
67.68787142927431
 21
8.841e-13
 31
0.0
  0
ARC
  5
4A
330
2F
100
AcDbEntity
  8
A-DETL-GENF
370
35
100
AcDbCircle
 10
67.68787142927431
 20
1.840159750391589
 30
0.0
 40
1.840159785434861
100
AcDbArc
 50
269.9999999999996
 51
350.0001083707587
  0
LINE
  5
4B
330
2F
100
AcDbEntity
  8
A-DETL-GENF
370
35
100
AcDbLine
 10
69.50007562155248
 20
1.520622790959719
 30
0.0
 11
70.6826557333791
 21
8.22744205896346
 31
0.0
  0
ARC
  5
4C
330
2F
100
AcDbEntity
  8
A-DETL-GENF
370
35
100
AcDbCircle
 10
93.3781198089429
 20
4.225663664176569
 30
0.0
 40
23.04557058870821
100
AcDbArc
 50
133.0286464118214
 51
170.0001083707589
  0
ARC
  5
4D
330
2F
100
AcDbEntity
  8
A-DETL-GENF
370
35
100
AcDbCircle
 10
30.7889029016636
 20
71.27713836394685
 30
0.0
 40
68.67852841817303
100
AcDbArc
 50
313.0286464118213
 51
320.9435528793767
  0
ARC
  5
4E
330
2F
100
AcDbEntity
  8
A-DETL-GENF
370
35
100
AcDbCircle
 10
112.3880895672093
 20
5.066206896545016
 30
0.0
 40
36.40389023680235
100
AcDbArc
 50
93.73630785417868
 51
140.9435528793775
  0
ARC
  5
4F
330
2F
100
AcDbEntity
  8
A-DETL-GENF
370
35
100
AcDbCircle
 10
110.2560841507104
 20
37.71386737736216
 30
0.0
 40
3.686690156259328
100
AcDbArc
 50
10.00232699907771
 51
93.73630785417868
  0
LINE
  5
50
330
2F
100
AcDbEntity
  8
A-DETL-GENF
370
35
100
AcDbLine
 10
113.8867391958342
 20
38.3542018597772
 30
0.0
 11
116.5632604813049
 21
23.1784995114899
 31
0.0
  0
ARC
  5
51
330
2F
100
AcDbEntity
  8
A-DETL-GENF
370
35
100
AcDbCircle
 10
118.3789364580232
 20
23.49872820915887
 30
0.0
 40
1.843698912369966
100
AcDbArc
 50
190.0023269990767
 51
267.9149252019873
  0
LINE
  5
52
330
2F
100
AcDbEntity
  8
A-DETL-GENF
370
35
100
AcDbLine
 10
118.3118564442186
 20
21.65625000000083
 30
0.0
 11
121.0040904185898
 21
21.65625000000083
 31
0.0
  0
ARC
  5
53
330
2F
100
AcDbEntity
  8
A-DETL-GENF
370
35
100
AcDbCircle
 10
121.0040904185898
 20
23.4985501360753
 30
0.0
 40
1.842300144091225
100
AcDbArc
 50
269.9999999999995
 51
349.348877031211
  0
LINE
  5
54
330
2F
100
AcDbEntity
  8
A-DETL-GENF
370
35
100
AcDbLine
 10
122.8146492505524
 20
23.15804090430527
 30
0.0
 11
124.7682343138287
 21
34.23749489903209
 31
0.0
  0
ARC
  5
55
330
2F
100
AcDbEntity
  8
A-DETL-GENF
370
35
100
AcDbCircle
 10
128.3990017463522
 20
33.59729972084157
 30
0.0
 40
3.686776646410785
100
AcDbArc
 50
60.70307696831356
 51
170.0001083707567
  0
ARC
  5
56
330
2F
100
AcDbEntity
  8
A-DETL-GENF
370
35
100
AcDbCircle
 10
112.3905039973127
 20
5.066902230891875
 30
0.0
 40
36.40153754691006
100
AcDbArc
 50
25.80434472798906
 51
60.70307696831347
  0
ARC
  5
57
330
2F
100
AcDbEntity
  8
A-DETL-GENF
370
35
100
AcDbCircle
 10
147.6527428538636
 20
22.11663345989308
 30
0.0
 40
2.766291690060153
100
AcDbArc
 50
205.804344727988
 51
269.9999999999997
  0
LINE
  5
58
330
2F
100
AcDbEntity
  8
A-DETL-GENF
370
35
100
AcDbLine
 10
147.6527428538636
 20
19.35034179687617
 30
0.0
 11
152.019543593581
 21
19.35034179687617
 31
0.0
  0
ARC
  5
59
330
2F
100
AcDbEntity
  8
A-DETL-GENF
370
35
100
AcDbCircle
 10
152.019543593581
 20
21.35034175316451
 30
0.0
 40
1.999999956288631
100
AcDbArc
 50
269.9999999999988
 51
1.2522415995e-06
  0
LINE
  5
5A
330
2F
100
AcDbEntity
  8
A-DETL-GENF
370
35
100
AcDbLine
 10
154.0212525342446
 20
21.35034179687572
 30
0.0
 11
154.0212525342446
 21
24.88073730468642
 31
0.0
  0
ARC
  5
5B
330
2F
100
AcDbEntity
  8
A-DETL-GENF
370
35
100
AcDbCircle
 10
101.305098922023
 20
-7.283737352591263
 30
0.0
 40
61.75391713604895
100
AcDbArc
 50
31.38922740854595
 51
48.09966599928141
  0
ARC
  5
5C
330
2F
100
AcDbEntity
  8
A-DETL-GENF
370
35
100
AcDbCircle
 10
112.3886116444552
 20
5.066515828205311
 30
0.0
 40
45.15955048808562
100
AcDbArc
 50
48.09418095163553
 51
140.9439949776612
  0
ARC
  5
5D
330
2F
100
AcDbEntity
  8
A-DETL-GENF
370
35
100
AcDbCircle
 10
30.79364030302304
 20
71.27298280402756
 30
0.0
 40
59.91678185780863
100
AcDbArc
 50
276.0280077086402
 51
320.9439949776609
  0
LINE
  5
5E
330
2F
100
AcDbEntity
  8
A-DETL-GENF
370
35
100
AcDbLine
 10
37.08577716198173
 20
11.68749999198379
 30
0.0
 11
0.3480440125425048
 21
11.68749999198379
 31
0.0
  0
LINE
  5
5F
330
2F
100
AcDbEntity
  8
A-DETL-GENF
370
35
100
AcDbLine
 10
0.3480440125425048
 20
11.68749999198379
 30
0.0
 11
-23.17624681384919
 21
11.68749999198379
 31
0.0
  0
ARC
  5
60
330
2F
100
AcDbEntity
  8
A-DETL-GENF
370
35
100
AcDbCircle
 10
-23.17624681384916
 20
38.68605629085922
 30
0.0
 40
26.99855631236089
100
AcDbArc
 50
208.4368173984755
 51
269.9999999999996
  0
ARC
  5
61
330
2F
100
AcDbEntity
  8
A-DETL-GENF
370
35
100
AcDbCircle
 10
-89.65195281823362
 20
2.687552374652322
 30
0.0
 40
48.59847920373356
100
AcDbArc
 50
28.43681739847542
 51
157.8127991000966
  0
ARC
  5
62
330
2F
100
AcDbEntity
  8
A-DETL-GENF
100
AcDbCircle
 10
-89.62355536120668
 20
32.68557617710127
 30
0.0
 40
48.60020182936779
100
AcDbArc
 50
28.43676740181151
 51
48.62888819143456
  0
ARC
  5
63
330
2F
100
AcDbEntity
  8
A-DETL-GENF
100
AcDbCircle
 10
-89.62355536120668
 20
32.68557617710127
 30
0.0
 40
48.60020182936779
100
AcDbArc
 50
73.80715493739328
 51
157.8077924177681
  0
ARC
  5
64
330
2F
100
AcDbEntity
  8
A-DETL-GENF
100
AcDbCircle
 10
-23.145062179386
 20
68.68551440891397
 30
0.0
 40
26.99996754194425
100
AcDbArc
 50
208.4367674018112
 51
270.1722904586922
  0
LINE
  5
65
330
2F
100
AcDbEntity
  8
A-DETL-GENF
100
AcDbLine
 10
28.8764503170249
 20
41.68566893729696
 30
0.0
 11
-23.06387243344834
 21
41.68566893729696
 31
0.0
  0
ARC
  5
66
330
2F
100
AcDbEntity
  8
A-DETL-GENF
100
AcDbCircle
 10
42.89750826840622
 20
68.68552861233174
 30
0.0
 40
26.99985967505119
100
AcDbArc
 50
269.9999999999997
 51
331.5632226024265
  0
ARC
  5
67
330
2F
100
AcDbEntity
  8
A-DETL-GENF
100
AcDbCircle
 10
109.3760293495145
 20
32.6855602734389
 30
0.0
 40
48.60034856468254
100
AcDbArc
 50
22.19129998622945
 51
151.5632226024268
  0
LINE
  5
68
330
2F
100
AcDbEntity
  8
A-DETL-GENF
100
AcDbLine
 10
42.89750826840622
 20
41.68566893729696
 30
0.0
 11
28.8764503170249
 21
41.68566893729696
 31
0.0
  0
LINE
  5
69
330
2F
100
AcDbEntity
  8
A-DETL-GENF
100
AcDbLine
 10
9.642075317025212
 20
-0.0156250080155778
 30
0.0
 11
4.4625695765787
 21
-15.94475352199555
 31
0.0
  0
ARC
  5
6A
330
2F
100
AcDbEntity
  8
A-DETL-GENF
100
AcDbCircle
 10
1.611609622188086
 20
-15.01773711701208
 30
0.0
 40
2.997887993598143
100
AcDbArc
 50
269.9999999999997
 51
341.9875787645854
  0
LINE
  5
6B
330
2F
100
AcDbEntity
  8
A-DETL-GENF
100
AcDbLine
 10
1.611609622188086
 20
-18.01562500801555
 30
0.0
 11
-14.53045472425102
 21
-18.01562500801555
 31
0.0
  0
ARC
  5
6C
330
2F
100
AcDbEntity
  8
A-DETL-GENF
100
AcDbCircle
 10
-14.53045472425101
 20
-15.01633623590801
 30
0.0
 40
2.999288843637722
100
AcDbArc
 50
202.002144629307
 51
269.9999999999996
  0
LINE
  5
6D
330
2F
100
AcDbEntity
  8
A-DETL-GENF
100
AcDbLine
 10
-17.31130478609006
 20
-16.13999367368615
 30
0.0
 11
-23.8266746829753
 21
-0.0156250080155778
 31
0.0
  0
LINE
  5
6E
330
2F
100
AcDbEntity
  8
A-DETL-GENF
100
AcDbLine
 10
32.11082531702607
 20
-0.0156250080155778
 30
0.0
 11
37.29033111273992
 21
-15.9447536919722
 31
0.0
  0
ARC
  5
6F
330
2F
100
AcDbEntity
  8
A-DETL-GENF
100
AcDbCircle
 10
40.14129083323992
 20
-15.01773736304084
 30
0.0
 40
2.997887747616042
100
AcDbArc
 50
198.0124212354068
 51
269.9999999999997
  0
LINE
  5
70
330
2F
100
AcDbEntity
  8
A-DETL-GENF
100
AcDbLine
 10
40.14129083323992
 20
-18.01562500801555
 30
0.0
 11
56.27498315097462
 21
-18.01562500801555
 31
0.0
  0
ARC
  5
71
330
2F
100
AcDbEntity
  8
A-DETL-GENF
100
AcDbCircle
 10
56.27498315097461
 20
-15.01550600337466
 30
0.0
 40
3.000119006155577
100
AcDbArc
 50
269.9999999999998
 51
337.9739960312201
  0
LINE
  5
72
330
2F
100
AcDbEntity
  8
A-DETL-GENF
100
AcDbLine
 10
59.05613469746082
 20
-16.14063271912852
 30
0.0
 11
65.5795753170244
 21
-0.0156250080155756
 31
0.0
  0
LINE
  5
73
330
2F
100
AcDbEntity
  8
A-DETL-GENF
100
AcDbLine
 10
-134.6235496829747
 20
51.0425946958076
 30
0.0
 11
-134.6235496829747
 21
21.10948648459269
 31
0.0
  0
LINE
  5
74
330
2F
100
AcDbEntity
  8
A-DETL-GENF
100
AcDbLine
 10
154.3764503170245
 20
51.04192138765564
 30
0.0
 11
154.3764503170245
 21
20.97010615662488
 31
0.0
  0
ENDBLK
  5
31
330
2F
100
AcDbEntity
  8
0
100
AcDbBlockEnd
  0
ENDSEC
  0
SECTION
  2
ENTITIES
  0
INSERT
  5
76
330
17
100
AcDbEntity
  8
0
100
AcDbBlockReference
  2
47 dakpan F12U hor - dubbele welpan-1591651-00_0 Basismaterialen
 10
0.0
 20
0.0
 30
0.0
  0
ENDSEC
  0
SECTION
  2
OBJECTS
  0
DICTIONARY
  5
A
330
0
100
AcDbDictionary
281
1
  3
ACAD_COLOR
350
B
  3
ACAD_GROUP
350
C
  3
ACAD_LAYOUT
350
D
  3
ACAD_MATERIAL
350
E
  3
ACAD_MLEADERSTYLE
350
F
  3
ACAD_MLINESTYLE
350
10
  3
ACAD_PLOTSETTINGS
350
11
  3
ACAD_PLOTSTYLENAME
350
12
  3
ACAD_SCALELIST
350
14
  3
ACAD_TABLESTYLE
350
15
  3
ACAD_VISUALSTYLE
350
16
  3
EZDXF_META
350
2D
  0
DICTIONARY
  5
B
330
A
100
AcDbDictionary
281
1
  0
DICTIONARY
  5
C
330
A
100
AcDbDictionary
281
1
  0
DICTIONARY
  5
D
330
A
100
AcDbDictionary
281
1
  3
Model
350
1A
  3
Layout1
350
1E
  0
DICTIONARY
  5
E
330
A
100
AcDbDictionary
281
1
  3
ByBlock
350
1F
  3
ByLayer
350
20
  3
Global
350
21
  0
DICTIONARY
  5
F
330
A
100
AcDbDictionary
281
1
  3
Standard
350
2C
  0
DICTIONARY
  5
10
330
A
100
AcDbDictionary
281
1
  3
Standard
350
22
  0
DICTIONARY
  5
11
330
A
100
AcDbDictionary
281
1
  0
ACDBDICTIONARYWDFLT
  5
12
330
A
100
AcDbDictionary
281
1
  3
Normal
350
13
100
AcDbDictionaryWithDefault
340
13
  0
ACDBPLACEHOLDER
  5
13
330
12
  0
DICTIONARY
  5
14
330
A
100
AcDbDictionary
281
1
  0
DICTIONARY
  5
15
330
A
100
AcDbDictionary
281
1
  0
DICTIONARY
  5
16
330
A
100
AcDbDictionary
281
1
  0
LAYOUT
  5
1A
330
D
100
AcDbPlotSettings
  1

  4
A3
  6

 40
7.5
 41
20.0
 42
7.5
 43
20.0
 44
420.0
 45
297.0
 46
0.0
 47
0.0
 48
0.0
 49
0.0
140
0.0
141
0.0
142
1.0
143
1.0
 70
1024
 72
1
 73
0
 74
5
  7

 75
16
 76
0
 77
2
 78
300
147
1.0
148
0.0
149
0.0
100
AcDbLayout
  1
Model
 70
1
 71
0
 10
0.0
 20
0.0
 11
420.0
 21
297.0
 12
0.0
 22
0.0
 32
0.0
 14
1e+20
 24
1e+20
 34
1e+20
 15
-1e+20
 25
-1e+20
 35
-1e+20
146
0.0
 13
0.0
 23
0.0
 33
0.0
 16
1.0
 26
0.0
 36
0.0
 17
0.0
 27
1.0
 37
0.0
 76
1
330
17
  0
LAYOUT
  5
1E
330
D
100
AcDbPlotSettings
  1

  4
A3
  6

 40
7.5
 41
20.0
 42
7.5
 43
20.0
 44
420.0
 45
297.0
 46
0.0
 47
0.0
 48
0.0
 49
0.0
140
0.0
141
0.0
142
1.0
143
1.0
 70
0
 72
1
 73
0
 74
5
  7

 75
16
 76
0
 77
2
 78
300
147
1.0
148
0.0
149
0.0
100
AcDbLayout
  1
Layout1
 70
1
 71
1
 10
0.0
 20
0.0
 11
420.0
 21
297.0
 12
0.0
 22
0.0
 32
0.0
 14
1e+20
 24
1e+20
 34
1e+20
 15
-1e+20
 25
-1e+20
 35
-1e+20
146
0.0
 13
0.0
 23
0.0
 33
0.0
 16
1.0
 26
0.0
 36
0.0
 17
0.0
 27
1.0
 37
0.0
 76
1
330
1B
  0
MATERIAL
  5
1F
102
{ACAD_REACTORS
330
E
102
}
330
E
100
AcDbMaterial
  1
ByBlock
  2

 70
0
 40
1.0
 71
1
 41
1.0
 91
-1023410177
 42
1.0
 72
1
  3

 73
1
 74
1
 75
1
 44
0.5
 73
0
 45
1.0
 46
1.0
 77
1
  4

 78
1
 79
1
170
1
 48
1.0
171
1
  6

172
1
173
1
174
1
140
1.0
141
1.0
175
1
  7

176
1
177
1
178
1
143
1.0
179
1
  8

270
1
271
1
272
1
145
1.0
146
1.0
273
1
  9

274
1
275
1
276
1
 42
1.0
 72
1
  3

 73
1
 74
1
 75
1
 94
63
  0
MATERIAL
  5
20
102
{ACAD_REACTORS
330
E
102
}
330
E
100
AcDbMaterial
  1
ByLayer
  2

 70
0
 40
1.0
 71
1
 41
1.0
 91
-1023410177
 42
1.0
 72
1
  3

 73
1
 74
1
 75
1
 44
0.5
 73
0
 45
1.0
 46
1.0
 77
1
  4

 78
1
 79
1
170
1
 48
1.0
171
1
  6

172
1
173
1
174
1
140
1.0
141
1.0
175
1
  7

176
1
177
1
178
1
143
1.0
179
1
  8

270
1
271
1
272
1
145
1.0
146
1.0
273
1
  9

274
1
275
1
276
1
 42
1.0
 72
1
  3

 73
1
 74
1
 75
1
 94
63
  0
MATERIAL
  5
21
102
{ACAD_REACTORS
330
E
102
}
330
E
100
AcDbMaterial
  1
Global
  2

 70
0
 40
1.0
 71
1
 41
1.0
 91
-1023410177
 42
1.0
 72
1
  3

 73
1
 74
1
 75
1
 44
0.5
 73
0
 45
1.0
 46
1.0
 77
1
  4

 78
1
 79
1
170
1
 48
1.0
171
1
  6

172
1
173
1
174
1
140
1.0
141
1.0
175
1
  7

176
1
177
1
178
1
143
1.0
179
1
  8

270
1
271
1
272
1
145
1.0
146
1.0
273
1
  9

274
1
275
1
276
1
 42
1.0
 72
1
  3

 73
1
 74
1
 75
1
 94
63
  0
MLINESTYLE
  5
22
102
{ACAD_REACTORS
330
10
102
}
330
10
100
AcDbMlineStyle
  2
Standard
 70
0
  3

 62
256
 51
90.0
 52
90.0
 71
2
 49
0.5
 62
256
  6
BYLAYER
 49
-0.5
 62
256
  6
BYLAYER
  0
MLEADERSTYLE
  5
2C
102
{ACAD_REACTORS
330
F
102
}
330
F
100
AcDbMLeaderStyle
179
2
170
2
171
1
172
0
 90
2
 40
0.0
 41
0.0
173
1
 91
-1056964608
 92
-2
290
1
 42
2.0
291
1
 43
8.0
  3
Standard
 44
4.0
300

342
29
174
1
175
1
176
0
178
1
 93
-1056964608
 45
4.0
292
0
297
0
 46
4.0
 94
-1056964608
 47
1.0
 49
1.0
140
1.0
294
1
141
0.0
177
0
142
1.0
295
0
296
0
143
3.75
271
0
272
9
273
9
  0
DICTIONARY
  5
2D
330
A
100
AcDbDictionary
280
1
281
1
  3
CREATED_BY_EZDXF
350
2E
  3
WRITTEN_BY_EZDXF
350
7A
  0
DICTIONARYVAR
  5
2E
330
2D
100
DictionaryVariables
280
0
  1
1.4.3 @ 2026-02-13T04:54:14.766220+00:00
  0
DICTIONARYVAR
  5
7A
330
2D
100
DictionaryVariables
280
0
  1
1.4.3 @ 2026-02-13T04:54:14.771861+00:00
  0
ENDSEC
  0
EOF
