  0
SECTION
  2
HEADER
  9
$ACADVER
  1
AC1032
  9
$ACADMAINTVER
 90
4
  9
$DWGCODEPAGE
  3
ANSI_1252
  9
$LASTSAVEDBY
  1
ezdxf
  9
$REQUIREDVERSIONS
160
0
  9
$INSBASE
 10
0.0
 20
0.0
 30
0.0
  9
$EXTMIN
 10
1e+20
 20
1e+20
 30
1e+20
  9
$EXTMAX
 10
-1e+20
 20
-1e+20
 30
-1e+20
  9
$LIMMIN
 10
0.0
 20
0.0
  9
$LIMMAX
 10
420.0
 20
297.0
  9
$ORTHOMODE
 70
0
  9
$REGENMODE
 70
1
  9
$FILLMODE
 70
1
  9
$QTEXTMODE
 70
0
  9
$MIRRTEXT
 70
1
  9
$LTSCALE
 40
1.0
  9
$ATTMODE
 70
1
  9
$TEXTSIZE
 40
2.5
  9
$TRACEWID
 40
1.0
  9
$TEXTSTYLE
  7
Standard
  9
$CLAYER
  8
0
  9
$CELTYPE
  6
ByLayer
  9
$CECOLOR
 62
256
  9
$CELTSCALE
 40
1.0
  9
$DISPSILH
 70
0
  9
$DIMSCALE
 40
1.0
  9
$DIMASZ
 40
2.5
  9
$DIMEXO
 40
0.625
  9
$DIMDLI
 40
3.75
  9
$DIMRND
 40
0.0
  9
$DIMDLE
 40
0.0
  9
$DIMEXE
 40
1.25
  9
$DIMTP
 40
0.0
  9
$DIMTM
 40
0.0
  9
$DIMTXT
 40
2.5
  9
$DIMCEN
 40
2.5
  9
$DIMTSZ
 40
0.0
  9
$DIMTOL
 70
0
  9
$DIMLIM
 70
0
  9
$DIMTIH
 70
0
  9
$DIMTOH
 70
0
  9
$DIMSE1
 70
0
  9
$DIMSE2
 70
0
  9
$DIMTAD
 70
1
  9
$DIMZIN
 70
8
  9
$DIMBLK
  1

  9
$DIMASO
 70
1
  9
$DIMSHO
 70
1
  9
$DIMPOST
  1

  9
$DIMAPOST
  1

  9
$DIMALT
 70
0
  9
$DIMALTD
 70
3
  9
$DIMALTF
 40
0.03937007874
  9
$DIMLFAC
 40
1.0
  9
$DIMTOFL
 70
1
  9
$DIMTVP
 40
0.0
  9
$DIMTIX
 70
0
  9
$DIMSOXD
 70
0
  9
$DIMSAH
 70
0
  9
$DIMBLK1
  1

  9
$DIMBLK2
  1

  9
$DIMSTYLE
  2
ISO-25
  9
$DIMCLRD
 70
0
  9
$DIMCLRE
 70
0
  9
$DIMCLRT
 70
0
  9
$DIMTFAC
 40
1.0
  9
$DIMGAP
 40
0.625
  9
$DIMJUST
 70
0
  9
$DIMSD1
 70
0
  9
$DIMSD2
 70
0
  9
$DIMTOLJ
 70
0
  9
$DIMTZIN
 70
8
  9
$DIMALTZ
 70
0
  9
$DIMALTTZ
 70
0
  9
$DIMUPT
 70
0
  9
$DIMDEC
 70
2
  9
$DIMTDEC
 70
2
  9
$DIMALTU
 70
2
  9
$DIMALTTD
 70
3
  9
$DIMTXSTY
  7
Standard
  9
$DIMAUNIT
 70
0
  9
$DIMADEC
 70
0
  9
$DIMALTRND
 40
0.0
  9
$DIMAZIN
 70
0
  9
$DIMDSEP
 70
44
  9
$DIMATFIT
 70
3
  9
$DIMFRAC
 70
0
  9
$DIMLDRBLK
  1

  9
$DIMLUNIT
 70
2
  9
$DIMLWD
 70
-2
  9
$DIMLWE
 70
-2
  9
$DIMTMOVE
 70
0
  9
$DIMFXL
 40
1.0
  9
$DIMFXLON
 70
0
  9
$DIMJOGANG
 40
0.785398163397
  9
$DIMTFILL
 70
0
  9
$DIMTFILLCLR
 70
0
  9
$DIMARCSYM
 70
0
  9
$DIMLTYPE
  6

  9
$DIMLTEX1
  6

  9
$DIMLTEX2
  6

  9
$DIMTXTDIRECTION
 70
0
  9
$LUNITS
 70
2
  9
$LUPREC
 70
4
  9
$SKETCHINC
 40
1.0
  9
$FILLETRAD
 40
10.0
  9
$AUNITS
 70
0
  9
$AUPREC
 70
2
  9
$MENU
  1
.
  9
$ELEVATION
 40
0.0
  9
$PELEVATION
 40
0.0
  9
$THICKNESS
 40
0.0
  9
$LIMCHECK
 70
0
  9
$CHAMFERA
 40
0.0
  9
$CHAMFERB
 40
0.0
  9
$CHAMFERC
 40
0.0
  9
$CHAMFERD
 40
0.0
  9
$SKPOLY
 70
0
  9
$TDCREATE
 40
2461085.24599537
  9
$TDUCREATE
 40
2458532.153996898
  9
$TDUPDATE
 40
2461085.24599537
  9
$TDUUPDATE
 40
2458532.1544311
  9
$TDINDWG
 40
0.0
  9
$TDUSRTIMER
 40
0.0
  9
$USRTIMER
 70
1
  9
$ANGBASE
 50
0.0
  9
$ANGDIR
 70
0
  9
$PDMODE
 70
0
  9
$PDSIZE
 40
0.0
  9
$PLINEWID
 40
0.0
  9
$SPLFRAME
 70
0
  9
$SPLINETYPE
 70
6
  9
$SPLINESEGS
 70
8
  9
$HANDSEED
  5
6E
  9
$SURFTAB1
 70
6
  9
$SURFTAB2
 70
6
  9
$SURFTYPE
 70
6
  9
$SURFU
 70
6
  9
$SURFV
 70
6
  9
$UCSBASE
  2

  9
$UCSNAME
  2

  9
$UCSORG
 10
0.0
 20
0.0
 30
0.0
  9
$UCSXDIR
 10
1.0
 20
0.0
 30
0.0
  9
$UCSYDIR
 10
0.0
 20
1.0
 30
0.0
  9
$UCSORTHOREF
  2

  9
$UCSORTHOVIEW
 70
0
  9
$UCSORGTOP
 10
0.0
 20
0.0
 30
0.0
  9
$UCSORGBOTTOM
 10
0.0
 20
0.0
 30
0.0
  9
$UCSORGLEFT
 10
0.0
 20
0.0
 30
0.0
  9
$UCSORGRIGHT
 10
0.0
 20
0.0
 30
0.0
  9
$UCSORGFRONT
 10
0.0
 20
0.0
 30
0.0
  9
$UCSORGBACK
 10
0.0
 20
0.0
 30
0.0
  9
$PUCSBASE
  2

  9
$PUCSNAME
  2

  9
$PUCSORG
 10
0.0
 20
0.0
 30
0.0
  9
$PUCSXDIR
 10
1.0
 20
0.0
 30
0.0
  9
$PUCSYDIR
 10
0.0
 20
1.0
 30
0.0
  9
$PUCSORTHOREF
  2

  9
$PUCSORTHOVIEW
 70
0
  9
$PUCSORGTOP
 10
0.0
 20
0.0
 30
0.0
  9
$PUCSORGBOTTOM
 10
0.0
 20
0.0
 30
0.0
  9
$PUCSORGLEFT
 10
0.0
 20
0.0
 30
0.0
  9
$PUCSORGRIGHT
 10
0.0
 20
0.0
 30
0.0
  9
$PUCSORGFRONT
 10
0.0
 20
0.0
 30
0.0
  9
$PUCSORGBACK
 10
0.0
 20
0.0
 30
0.0
  9
$USERI1
 70
0
  9
$USERI2
 70
0
  9
$USERI3
 70
0
  9
$USERI4
 70
0
  9
$USERI5
 70
0
  9
$USERR1
 40
0.0
  9
$USERR2
 40
0.0
  9
$USERR3
 40
0.0
  9
$USERR4
 40
0.0
  9
$USERR5
 40
0.0
  9
$WORLDVIEW
 70
1
  9
$SHADEDGE
 70
3
  9
$SHADEDIF
 70
70
  9
$TILEMODE
 70
1
  9
$MAXACTVP
 70
64
  9
$PINSBASE
 10
0.0
 20
0.0
 30
0.0
  9
$PLIMCHECK
 70
0
  9
$PEXTMIN
 10
1e+20
 20
1e+20
 30
1e+20
  9
$PEXTMAX
 10
-1e+20
 20
-1e+20
 30
-1e+20
  9
$PLIMMIN
 10
0.0
 20
0.0
  9
$PLIMMAX
 10
420.0
 20
297.0
  9
$UNITMODE
 70
0
  9
$VISRETAIN
 70
1
  9
$PLINEGEN
 70
0
  9
$PSLTSCALE
 70
1
  9
$TREEDEPTH
 70
3020
  9
$CMLSTYLE
  2
Standard
  9
$CMLJUST
 70
0
  9
$CMLSCALE
 40
20.0
  9
$PROXYGRAPHICS
 70
1
  9
$MEASUREMENT
 70
1
  9
$CELWEIGHT
370
-1
  9
$ENDCAPS
280
0
  9
$JOINSTYLE
280
0
  9
$LWDISPLAY
290
0
  9
$INSUNITS
 70
6
  9
$HYPERLINKBASE
  1

  9
$STYLESHEET
  1

  9
$XEDIT
290
1
  9
$CEPSNTYPE
380
0
  9
$PSTYLEMODE
290
1
  9
$FINGERPRINTGUID
  2
{EFAAEA9C-2FBB-4A07-83BB-54649A1AF632}
  9
$VERSIONGUID
  2
{56AD103A-808E-4AEC-8660-D76ECA1156D7}
  9
$EXTNAMES
290
1
  9
$PSVPSCALE
 40
0.0
  9
$OLESTARTUP
290
0
  9
$SORTENTS
280
127
  9
$INDEXCTL
280
0
  9
$HIDETEXT
280
1
  9
$XCLIPFRAME
280
1
  9
$HALOGAP
280
0
  9
$OBSCOLOR
 70
257
  9
$OBSLTYPE
280
0
  9
$INTERSECTIONDISPLAY
280
0
  9
$INTERSECTIONCOLOR
 70
257
  9
$DIMASSOC
280
2
  9
$PROJECTNAME
  1

  9
$CAMERADISPLAY
290
0
  9
$LENSLENGTH
 40
50.0
  9
$CAMERAHEIGHT
 40
0.0
  9
$STEPSPERSEC
 40
24.0
  9
$STEPSIZE
 40
100.0
  9
$3DDWFPREC
 40
2.0
  9
$PSOLWIDTH
 40
0.005
  9
$PSOLHEIGHT
 40
0.08
  9
$LOFTANG1
 40
1.570796326795
  9
$LOFTANG2
 40
1.570796326795
  9
$LOFTMAG1
 40
0.0
  9
$LOFTMAG2
 40
0.0
  9
$LOFTPARAM
 70
7
  9
$LOFTNORMALS
280
1
  9
$LATITUDE
 40
37.795
  9
$LONGITUDE
 40
-122.394
  9
$NORTHDIRECTION
 40
0.0
  9
$TIMEZONE
 70
-8000
  9
$LIGHTGLYPHDISPLAY
280
1
  9
$TILEMODELIGHTSYNCH
280
1
  9
$CMATERIAL
347
20
  9
$SOLIDHIST
280
0
  9
$SHOWHIST
280
1
  9
$DWFFRAME
280
2
  9
$DGNFRAME
280
2
  9
$REALWORLDSCALE
290
1
  9
$INTERFERECOLOR
 62
256
  9
$CSHADOW
280
0
  9
$SHADOWPLANELOCATION
 40
0.0
  0
ENDSEC
  0
SECTION
  2
CLASSES
  0
CLASS
  1
ACDBDICTIONARYWDFLT
  2
AcDbDictionaryWithDefault
  3
ObjectDBX Classes
 90
0
 91
0
280
0
281
0
  0
CLASS
  1
SUN
  2
AcDbSun
  3
SCENEOE
 90
1153
 91
0
280
0
281
0
  0
CLASS
  1
VISUALSTYLE
  2
AcDbVisualStyle
  3
ObjectDBX Classes
 90
4095
 91
0
280
0
281
0
  0
CLASS
  1
MATERIAL
  2
AcDbMaterial
  3
ObjectDBX Classes
 90
1153
 91
0
280
0
281
0
  0
CLASS
  1
SCALE
  2
AcDbScale
  3
ObjectDBX Classes
 90
1153
 91
0
280
0
281
0
  0
CLASS
  1
TABLESTYLE
  2
AcDbTableStyle
  3
ObjectDBX Classes
 90
4095
 91
0
280
0
281
0
  0
CLASS
  1
MLEADERSTYLE
  2
AcDbMLeaderStyle
  3
ACDB_MLEADERSTYLE_CLASS
 90
4095
 91
0
280
0
281
0
  0
CLASS
  1
DICTIONARYVAR
  2
AcDbDictionaryVar
  3
ObjectDBX Classes
 90
0
 91
0
280
0
281
0
  0
CLASS
  1
CELLSTYLEMAP
  2
AcDbCellStyleMap
  3
ObjectDBX Classes
 90
1152
 91
0
280
0
281
0
  0
CLASS
  1
MENTALRAYRENDERSETTINGS
  2
AcDbMentalRayRenderSettings
  3
SCENEOE
 90
1024
 91
0
280
0
281
0
  0
CLASS
  1
ACDBDETAILVIEWSTYLE
  2
AcDbDetailViewStyle
  3
ObjectDBX Classes
 90
1025
 91
0
280
0
281
0
  0
CLASS
  1
ACDBSECTIONVIEWSTYLE
  2
AcDbSectionViewStyle
  3
ObjectDBX Classes
 90
1025
 91
0
280
0
281
0
  0
CLASS
  1
RASTERVARIABLES
  2
AcDbRasterVariables
  3
ISM
 90
0
 91
0
280
0
281
0
  0
CLASS
  1
LAYOUT
  2
AcDbLayout
  3
ObjectDBX Classes
 90
0
 91
0
280
0
281
0
  0
CLASS
  1
ACDBPLACEHOLDER
  2
AcDbPlaceHolder
  3
ObjectDBX Classes
 90
0
 91
0
280
0
281
0
  0
ENDSEC
  0
SECTION
  2
TABLES
  0
TABLE
  2
VPORT
  5
8
330
0
100
AcDbSymbolTable
 70
1
  0
VPORT
  5
23
330
8
100
AcDbSymbolTableRecord
100
AcDbViewportTableRecord
  2
*Active
 70
0
 10
0.0
 20
0.0
 11
1.0
 21
1.0
 12
0.0
 22
0.0
 13
0.0
 23
0.0
 14
0.5
 24
0.5
 15
0.5
 25
0.5
 16
0.0
 26
0.0
 36
1.0
 17
0.0
 27
0.0
 37
0.0
 40
1000.0
 41
1.34
 42
50.0
 43
0.0
 44
0.0
 50
0.0
 51
0.0
 71
0
 72
1000
 73
1
 74
3
 75
0
 76
0
 77
0
 78
0
281
0
 65
0
146
0.0
  0
ENDTAB
  0
TABLE
  2
LTYPE
  5
2
330
0
100
AcDbSymbolTable
 70
3
  0
LTYPE
  5
24
330
2
100
AcDbSymbolTableRecord
100
AcDbLinetypeTableRecord
  2
ByBlock
 70
0
  3

 72
65
 73
0
 40
0.0
  0
LTYPE
  5
25
330
2
100
AcDbSymbolTableRecord
100
AcDbLinetypeTableRecord
  2
ByLayer
 70
0
  3

 72
65
 73
0
 40
0.0
  0
LTYPE
  5
26
330
2
100
AcDbSymbolTableRecord
100
AcDbLinetypeTableRecord
  2
Continuous
 70
0
  3

 72
65
 73
0
 40
0.0
  0
ENDTAB
  0
TABLE
  2
LAYER
  5
1
330
0
100
AcDbSymbolTable
 70
3
  0
LAYER
  5
27
330
1
100
AcDbSymbolTableRecord
100
AcDbLayerTableRecord
  2
0
 70
0
 62
7
  6
Continuous
370
-3
390
13
347
21
  0
LAYER
  5
28
330
1
100
AcDbSymbolTableRecord
100
AcDbLayerTableRecord
  2
Defpoints
 70
0
 62
7
  6
Continuous
290
0
370
-3
390
13
347
21
  0
LAYER
  5
68
330
1
100
AcDbSymbolTableRecord
100
AcDbLayerTableRecord
  2
A-DETL-GENF
 70
0
 62
92
  6
Continuous
370
18
390
13
347
21
348
0
  0
ENDTAB
  0
TABLE
  2
STYLE
  5
5
330
0
100
AcDbSymbolTable
 70
1
  0
STYLE
  5
29
330
5
100
AcDbSymbolTableRecord
100
AcDbTextStyleTableRecord
  2
Standard
 70
0
 40
0.0
 41
1.0
 50
0.0
 71
0
 42
2.5
  3
txt
  4

  0
ENDTAB
  0
TABLE
  2
VIEW
  5
7
330
0
100
AcDbSymbolTable
 70
0
  0
ENDTAB
  0
TABLE
  2
UCS
  5
6
330
0
100
AcDbSymbolTable
 70
0
  0
ENDTAB
  0
TABLE
  2
APPID
  5
3
330
0
100
AcDbSymbolTable
 70
3
  0
APPID
  5
2A
330
3
100
AcDbSymbolTableRecord
100
AcDbRegAppTableRecord
  2
ACAD
 70
0
  0
APPID
  5
6B
330
3
100
AcDbSymbolTableRecord
100
AcDbRegAppTableRecord
  2
HATCHBACKGROUNDCOLOR
 70
0
  0
APPID
  5
6C
330
3
100
AcDbSymbolTableRecord
100
AcDbRegAppTableRecord
  2
EZDXF
 70
0
  0
ENDTAB
  0
TABLE
  2
DIMSTYLE
  5
4
330
0
100
AcDbSymbolTable
 70
1
100
AcDbDimStyleTable
  0
DIMSTYLE
105
2B
330
4
100
AcDbSymbolTableRecord
100
AcDbDimStyleTableRecord
  2
Standard
 70
0
 40
1.0
 41
2.5
 42
0.625
 43
3.75
 44
1.25
 45
0.0
 46
0.0
 47
0.0
 48
0.0
 49
2.5
140
2.5
141
2.5
142
0.0
143
0.03937007874
144
1.0
145
0.0
146
1.0
147
0.625
148
0.0
 69
0
 70
0
 71
0
 72
0
 73
0
 74
0
 75
0
 76
0
 77
1
 78
8
 79
3
170
0
171
3
172
1
173
0
174
0
175
0
176
0
177
0
178
0
179
2
271
2
272
2
273
2
274
3
275
0
276
0
277
2
278
44
279
0
280
0
281
0
282
0
283
0
284
8
285
0
286
0
288
0
289
3
290
0
371
-2
372
-2
  0
ENDTAB
  0
TABLE
  2
BLOCK_RECORD
  5
9
330
0
100
AcDbSymbolTable
 70
3
  0
BLOCK_RECORD
  5
17
330
9
100
AcDbSymbolTableRecord
100
AcDbBlockTableRecord
  2
*Model_Space
340
1A
 70
0
280
1
281
0
  0
BLOCK_RECORD
  5
1B
330
9
100
AcDbSymbolTableRecord
100
AcDbBlockTableRecord
  2
*Paper_Space
340
1E
 70
0
280
1
281
0
  0
BLOCK_RECORD
  5
2F
330
9
100
AcDbSymbolTableRecord
100
AcDbBlockTableRecord
  2
47 dakpan OVH-pan hor - gevelpan rechts-1591656-00_0 Basismaterialen
340
0
 70
0
280
1
281
0
  0
ENDTAB
  0
ENDSEC
  0
SECTION
  2
BLOCKS
  0
BLOCK
  5
18
330
17
100
AcDbEntity
  8
0
100
AcDbBlockBegin
  2
*Model_Space
 70
0
 10
0.0
 20
0.0
 30
0.0
  3
*Model_Space
  1

  0
ENDBLK
  5
19
330
17
100
AcDbEntity
  8
0
100
AcDbBlockEnd
  0
BLOCK
  5
1C
330
1B
100
AcDbEntity
  8
0
100
AcDbBlockBegin
  2
*Paper_Space
 70
0
 10
0.0
 20
0.0
 30
0.0
  3
*Paper_Space
  1

  0
ENDBLK
  5
1D
330
1B
100
AcDbEntity
  8
0
100
AcDbBlockEnd
  0
BLOCK
  5
30
330
2F
100
AcDbEntity
  8
0
100
AcDbBlockBegin
  2
47 dakpan OVH-pan hor - gevelpan rechts-1591656-00_0 Basismaterialen
 70
0
 10
0.0
 20
0.0
 30
0.0
  3
47 dakpan OVH-pan hor - gevelpan rechts-1591656-00_0 Basismaterialen
  1

  0
HATCH
  5
32
330
2F
100
AcDbEntity
  8
A-DETL-GENF
370
13
100
AcDbHatch
 10
0.0
 20
0.0
 30
0.0
210
0.0
220
0.0
230
1.0
  2
FP_121
 70
0
 71
0
 91
1
 92
1
 93
175
 72
1
 10
136.3981585011864
 20
-61.00000000000129
 11
148.3610937209907
 21
-61.00000000000129
 72
1
 10
148.3610937209907
 20
-61.00000000000129
 11
148.3610937209907
 21
22.45647923186732
 72
1
 10
148.3610937209907
 20
22.45647923186732
 11
147.959971429788
 21
28.44973467930921
 72
1
 10
147.959971429788
 20
28.44973467930921
 11
146.8094746924783
 21
34.24219584909148
 72
1
 10
146.8094746924783
 20
34.24219584909148
 11
144.8902275845039
 21
39.88064036107694
 72
1
 10
144.8902275845039
 20
39.88064036107694
 11
142.260357879551
 21
45.22473535566637
 72
1
 10
142.260357879551
 20
45.22473535566637
 11
138.9471707064726
 21
50.17431682609038
 72
1
 10
138.9471707064726
 20
50.17431682609038
 11
135.0237580752541
 21
54.65565583372884
 72
1
 10
135.0237580752541
 20
54.65565583372884
 11
130.5424190676135
 21
58.57906846494946
 72
1
 10
130.5424190676135
 20
58.57906846494946
 11
125.5928375971852
 21
61.89225563802574
 72
1
 10
125.5928375971852
 20
61.89225563802574
 11
120.2487426025957
 21
64.52212534297426
 72
1
 10
120.2487426025957
 20
64.52212534297426
 11
114.6102980906081
 21
66.4413724509465
 72
1
 10
114.6102980906081
 20
66.4413724509465
 11
108.817836920828
 21
67.59186918825186
 72
1
 10
108.817836920828
 20
67.59186918825186
 11
102.824581473384
 21
67.99299147945673
 72
1
 10
102.824581473384
 20
67.99299147945673
 11
96.38776824913904
 21
67.64431697407665
 72
1
 10
96.38776824913904
 20
67.64431697407665
 11
90.1348829208875
 21
66.53496836426382
 72
1
 10
90.1348829208875
 20
66.53496836426382
 11
84.02105217090589
 21
64.6480506828342
 72
1
 10
84.02105217090589
 20
64.6480506828342
 11
78.180895952356
 21
62.03424883134203
 72
1
 10
78.180895952356
 20
62.03424883134203
 11
72.70961779587257
 21
58.71694569321289
 72
1
 10
72.70961779587257
 20
58.71694569321289
 11
67.68059365132194
 21
54.76115235565735
 72
1
 10
67.68059365132194
 20
54.76115235565735
 11
63.21207278631559
 21
50.24877487306786
 72
1
 10
63.21207278631559
 20
50.24877487306786
 11
59.26463877831348
 21
45.15251122731575
 72
1
 10
59.26463877831348
 20
45.15251122731575
 11
53.68293107547085
 21
39.56699332441654
 72
1
 10
53.68293107547085
 20
39.56699332441654
 11
47.75023077727052
 21
34.51456754803403
 72
1
 10
47.75023077727052
 20
34.51456754803403
 11
41.46653788370817
 21
29.9952338981639
 72
1
 10
41.46653788370817
 20
29.9952338981639
 11
34.7849870783981
 21
25.98582598536728
 72
1
 10
34.7849870783981
 20
25.98582598536728
 11
27.75244367772166
 21
22.50951019908952
 72
1
 10
27.75244367772166
 20
22.50951019908952
 11
20.45523806624899
 21
19.61934788999177
 72
1
 10
20.45523806624899
 20
19.61934788999177
 11
13.05193242887367
 21
17.37678045255133
 72
1
 10
13.05193242887367
 20
17.37678045255133
 11
5.383964580702115
 21
15.72036649229523
 72
1
 10
5.383964580702115
 20
15.72036649229523
 11
-2.341100437724741
 21
14.69965917074917
 72
1
 10
-2.341100437724742
 20
14.69965917074917
 11
-10.12441178197088
 21
14.327452919203
 72
1
 10
-10.12441178197088
 20
14.327452919203
 11
-17.96482029647665
 21
14.59095330636688
 72
1
 10
-17.96482029647665
 20
14.59095330636688
 11
-25.7055790386005
 21
15.48489238223944
 72
1
 10
-25.7055790386005
 20
15.48489238223944
 11
-33.34468242576181
 21
17.02195855368895
 72
1
 10
-33.34468242576181
 20
17.02195855368895
 11
-40.88413604054987
 21
19.18946341384714
 72
1
 10
-40.88413604054987
 20
19.18946341384714
 11
-48.17320968809531
 21
21.94407379207975
 72
1
 10
-48.17320968809531
 20
21.94407379207975
 11
-55.20686414260756
 21
25.29760595827279
 72
1
 10
-55.20686414260756
 20
25.29760595827279
 11
-61.9901386298772
 21
29.2382436425424
 72
1
 10
-61.9901386298772
 20
29.2382436425424
 11
-68.38742063239796
 21
33.68720486460065
 72
1
 10
-68.38742063239796
 20
33.68720486460065
 11
-74.3535059776721
 21
38.61822896435299
 72
1
 10
-74.3535059776721
 20
38.61822896435299
 11
-79.93359883820168
 21
44.05757660189397
 72
1
 10
-79.93359883820168
 20
44.05757660189397
 11
-86.05429272992232
 21
50.99046977278758
 72
1
 10
-86.05429272992232
 20
50.99046977278758
 11
-86.65495566089287
 21
51.30984791843352
 72
1
 10
-86.65495566089287
 20
51.30984791843352
 11
-87.3105203213539
 21
51.49159866124999
 72
1
 10
-87.3105203213539
 20
51.49159866124999
 11
-87.98988623103826
 21
51.52709960937496
 72
1
 10
-87.98988623103826
 20
51.52709960937496
 11
-91.22011139371867
 21
51.48552385665901
 72
1
 10
-91.22011139371867
 20
51.48552385665901
 11
-91.89445282296214
 21
51.28661820533757
 72
1
 10
-91.89445282296214
 20
51.28661820533757
 11
-92.5065017834733
 21
50.94064726543697
 72
1
 10
-92.5065017834733
 20
50.94064726543697
 11
-93.02467323050057
 21
50.46546501323582
 72
1
 10
-93.02467323050057
 20
50.46546501323582
 11
-93.42222670796797
 21
49.88559342928062
 72
1
 10
-93.42222670796797
 20
49.88559342928062
 11
-93.67864630098083
 21
49.23095703123827
 72
1
 10
-93.67864630098083
 20
49.23095703123827
 11
-95.94964239472571
 21
39.82299804687557
 72
1
 10
-95.94964239472571
 20
39.82299804687557
 11
-96.18636022493584
 21
39.17762178808132
 72
1
 10
-96.18636022493584
 20
39.17762178808132
 11
-96.563624233655
 21
38.60297605871605
 72
1
 10
-96.563624233655
 20
38.60297605871605
 11
-97.06167007107187
 21
38.12916576927193
 72
1
 10
-97.06167007107187
 20
38.12916576927193
 11
-97.6544057911584
 21
37.78101319828325
 72
1
 10
-97.6544057911584
 20
37.78101319828325
 11
-98.31077877333807
 21
37.57675758681756
 72
1
 10
-98.31077877333807
 20
37.57675758681756
 11
-98.99640252717599
 21
37.52709960937381
 72
1
 10
-98.99640252717599
 20
37.52709960937381
 11
-105.0035974728512
 21
37.52709960937381
 72
1
 10
-105.0035974728512
 20
37.52709960937381
 11
-105.7624751081103
 21
37.64699211232784
 72
1
 10
-105.7624751081103
 20
37.64699211232784
 11
-106.4697479967479
 21
37.9470496710515
 72
1
 10
-106.4697479967479
 20
37.9470496710515
 11
-107.0833316485756
 21
38.40941811695979
 72
1
 10
-107.0833316485756
 20
38.40941811695979
 11
-107.5667163152164
 21
39.00658538130647
 72
1
 10
-107.5667163152164
 20
39.00658538130647
 11
-107.8911394107081
 21
39.70301853148478
 72
1
 10
-107.8911394107081
 20
39.70301853148478
 11
-110.1963663751908
 21
49.25278428899609
 72
1
 10
-110.1963663751908
 20
49.25278428899609
 11
-110.5064694563466
 21
49.97693535789308
 72
1
 10
-110.5064694563466
 20
49.97693535789308
 11
-110.9870168946658
 21
50.60114113410159
 72
1
 10
-110.9870168946658
 20
50.60114113410159
 11
-111.6077766817502
 21
51.08613183325782
 72
1
 10
-111.6077766817502
 20
51.08613183325782
 11
-112.3296958259252
 21
51.40139591431086
 72
1
 10
-112.3296958259252
 20
51.40139591431086
 11
-113.1073572384777
 21
51.52709960937496
 72
1
 10
-113.1073572384777
 20
51.52709960937496
 11
-116.2511753452421
 21
51.47889854360038
 72
1
 10
-116.2511753452421
 20
51.47889854360038
 11
-116.9304388728021
 21
51.2702037596755
 72
1
 10
-116.9304388728021
 20
51.2702037596755
 11
-117.5441658906805
 21
50.91202559139326
 72
1
 10
-117.5441658906805
 20
50.91202559139326
 11
-118.0599773465764
 21
50.42326082724432
 72
1
 10
-118.0599773465764
 20
50.42326082724432
 11
-118.4506600241472
 21
49.82969575233267
 72
1
 10
-118.4506600241472
 20
49.82969575233267
 11
-118.6956022597709
 21
49.16264571379394
 72
1
 10
-118.6956022597709
 20
49.16264571379394
 11
-120.7407221428871
 21
40.68883284091222
 72
1
 10
-120.7407221428871
 20
40.68883284091222
 11
-121.3110050965694
 21
37.84691690518721
 72
1
 10
-121.3110050965694
 20
37.84691690518721
 11
-121.5038416134759
 21
34.95466000111827
 72
1
 10
-121.5038416134759
 20
34.95466000111827
 11
-121.5038416134759
 21
29.63801377394455
 72
1
 10
-121.5038416134759
 20
29.63801377394455
 11
-121.3978397838314
 21
28.83284994047434
 72
1
 10
-121.3978397838314
 20
28.83284994047434
 11
-121.0870581444206
 21
28.08255669165935
 72
1
 10
-121.0870581444206
 20
28.08255669165935
 11
-120.5926759503634
 21
27.43826527248669
 72
1
 10
-120.5926759503634
 20
27.43826527248669
 11
-119.9483845311907
 21
26.94388307843374
 72
1
 10
-119.9483845311907
 20
26.94388307843374
 11
-119.1980912823779
 21
26.63310143901648
 72
1
 10
-119.1980912823779
 20
26.63310143901648
 11
-118.3929274489055
 21
26.52709960937415
 72
1
 10
-118.3929274489055
 20
26.52709960937415
 11
-80.4305994259939
 21
26.52709960937415
 72
1
 10
-80.4305994259939
 20
26.52709960937415
 11
-78.10658911263462
 21
26.24938831944831
 72
1
 10
-78.10658911263462
 20
26.24938831944831
 11
-75.90719693001773
 21
25.44887503149771
 72
1
 10
-75.90719693001773
 20
25.44887503149771
 11
-73.94839236747313
 21
24.16776918772925
 72
1
 10
-73.94839236747313
 20
24.16776918772925
 11
-66.2252972289259
 21
18.91347486125258
 72
1
 10
-66.2252972289259
 20
18.91347486125258
 11
-58.04046270723389
 21
14.41210937499926
 72
1
 10
-58.04046270723389
 20
14.41210937499926
 11
-56.82925870363405
 21
13.82363970931302
 72
1
 10
-56.82925870363405
 20
13.82363970931302
 11
-55.80740607573333
 21
12.94663977053428
 72
1
 10
-55.80740607573333
 20
12.94663977053428
 11
-55.04202311926601
 21
11.8387135023643
 72
1
 10
-55.04202311926601
 20
11.8387135023643
 11
-54.58338244517426
 21
10.57263277119027
 72
1
 10
-54.58338244517426
 20
10.57263277119027
 11
-52.48551323398131
 21
2.29589843750826
 72
1
 10
-52.48551323398131
 20
2.295898437508259
 11
-52.24718965437141
 21
1.647284437511012
 72
1
 10
-52.24718965437141
 20
1.647284437511012
 11
-51.86698632336589
 21
1.070271719548662
 72
1
 10
-51.86698632336589
 20
1.070271719548662
 11
-51.36501356868639
 21
0.5953805708123128
 72
1
 10
-51.36501356868639
 20
0.5953805708123128
 11
-50.76782254275673
 21
0.2477296997555414
 72
1
 10
-50.76782254275673
 20
0.2477296997555413
 11
-50.10700083637431
 21
0.0457076168874551
 72
1
 10
-50.10700083637431
 20
0.0457076168874551
 11
-49.41750169688898
 21
-2.1657e-12
 72
1
 10
-49.41750169688898
 20
-2.1657e-12
 11
-44.21083465645849
 21
0.0143584906928027
 72
1
 10
-44.21083465645849
 20
0.0143584906928027
 11
-43.43769516580313
 21
0.2177249025125263
 72
1
 10
-43.43769516580313
 20
0.2177249025125263
 11
-42.73477094488303
 21
0.5985137010731991
 72
1
 10
-42.73477094488303
 20
0.5985137010731991
 11
-42.14210672211662
 21
1.135031816809964
 72
1
 10
-42.14210672211662
 20
1.135031816809964
 11
-41.6934658494201
 21
1.796714472474411
 72
1
 10
-41.6934658494201
 20
1.796714472474411
 11
-41.41440684557362
 21
2.545866420906395
 72
1
 10
-41.41440684557362
 20
2.545866420906395
 11
-40.92345363730912
 21
4.578902253167314
 72
1
 10
-40.92345363730912
 20
4.578902253167314
 11
-40.6235317672511
 21
5.237757821718895
 72
1
 10
-40.6235317672511
 20
5.237757821718895
 11
-40.17988017058658
 21
5.809786710087576
 72
1
 10
-40.17988017058658
 20
5.809786710087576
 11
-39.61637030937061
 21
6.264209888042569
 72
1
 10
-39.61637030937061
 20
6.264209888042569
 11
-38.96332283244226
 21
6.576576309465827
 72
1
 10
-38.96332283244226
 20
6.576576309465827
 11
-38.25587611907968
 21
6.730078544311186
 72
1
 10
-38.25587611907968
 20
6.730078544311186
 11
-37.53209559607201
 21
6.71645713221564
 72
1
 10
-37.53209559607201
 20
6.71645713221564
 11
-36.83092555985422
 21
6.536444997456328
 72
1
 10
-36.83092555985422
 20
6.536444997456328
 11
-28.82061746147213
 21
4.851882422101823
 72
1
 10
-28.82061746147213
 20
4.851882422101823
 11
-20.79952721853034
 21
3.785028494674799
 72
1
 10
-20.79952721853034
 20
3.785028494674799
 11
-12.76765483103753
 21
3.335883215177421
 72
1
 10
-12.76765483103753
 20
3.335883215177421
 11
-4.725000298985037
 21
3.504446583605357
 72
1
 10
-4.725000298985037
 20
3.504446583605357
 11
3.328436377622812
 21
4.290718599958609
 72
1
 10
3.328436377622813
 20
4.290718599958609
 11
12.17108937114184
 21
5.832292260137438
 72
1
 10
12.17108937114184
 20
5.832292260137438
 11
12.95962221820289
 21
5.77654692566071
 72
1
 10
12.95962221820289
 20
5.77654692566071
 11
13.71095666222126
 21
5.530806928016272
 72
1
 10
13.71095666222126
 20
5.530806928016272
 11
14.38002682706047
 21
5.109812025753979
 72
1
 10
14.38002682706047
 20
5.109812025753979
 11
14.92670113961012
 21
4.53881396164748
 72
1
 10
14.92670113961012
 20
4.53881396164748
 11
15.31818946617984
 21
3.852061835062511
 72
1
 10
15.31818946617984
 20
3.852061835062511
 11
15.8026266063689
 21
2.209085697533049
 72
1
 10
15.8026266063689
 20
2.209085697533049
 11
16.280701622681
 21
1.420068599336912
 72
1
 10
16.280701622681
 20
1.420068599336912
 11
16.93647073699338
 21
0.7711690915669351
 72
1
 10
16.93647073699338
 20
0.7711690915669351
 11
17.7304784622477
 21
0.3014293394702065
 72
1
 10
17.7304784622477
 20
0.3014293394702065
 11
18.61495194541968
 21
0.0391120506068546
 72
1
 10
18.61495194541968
 20
0.0391120506068546
 11
20.45523806624899
 21
-5.5399482e-09
 72
1
 10
20.45523806624899
 20
-5.5399482e-09
 11
23.92772708986365
 21
-2.64739356e-08
 72
1
 10
23.92772708986365
 20
-2.64739356e-08
 11
24.58917829771374
 21
0.0738311548535819
 72
1
 10
24.58917829771374
 20
0.0738311548535819
 11
25.21807100792913
 21
0.2916905194464903
 72
1
 10
25.21807100792913
 20
0.2916905194464903
 11
25.78344934413164
 21
0.6428544137416226
 72
1
 10
25.78344934413164
 20
0.6428544137416226
 11
26.25748378692425
 21
1.110037558507178
 72
1
 10
26.25748378692425
 20
1.110037558507178
 11
26.61684102145775
 21
1.670243879153747
 72
1
 10
26.61684102145775
 20
1.670243879153747
 11
26.84383246915062
 21
2.29589843749743
 72
1
 10
26.84383246915062
 20
2.29589843749743
 11
28.37561763638862
 21
8.641056064964335
 72
1
 10
28.37561763638862
 20
8.641056064964335
 11
28.90216344469841
 21
9.92478117786618
 72
1
 10
28.90216344469841
 20
9.92478117786618
 11
29.7065962041259
 21
11.05530698000836
 72
1
 10
29.7065962041259
 20
11.05530698000836
 11
30.74684274748725
 21
11.97350509739023
 72
1
 10
30.74684274748725
 20
11.97350509739023
 11
31.9684964557153
 21
12.63135224598396
 72
1
 10
31.9684964557153
 20
12.63135224598396
 11
39.38718613372468
 21
15.98501401308924
 72
1
 10
39.38718613372468
 20
15.98501401308924
 11
46.39502492717191
 21
19.89279996007871
 72
1
 10
46.39502492717191
 20
19.89279996007871
 11
52.99201283605269
 21
24.35471008695019
 72
1
 10
52.99201283605269
 20
24.35471008695019
 11
59.17814986037566
 21
29.37074439370802
 72
1
 10
59.17814986037566
 20
29.37074439370802
 11
64.95343600014081
 21
34.9409028803457
 72
1
 10
64.95343600014081
 20
34.9409028803457
 11
70.31787125533951
 21
41.06518554686974
 72
1
 10
70.31787125533951
 20
41.06518554686974
 11
73.28392118414106
 21
44.61118064525588
 72
1
 10
73.28392118414106
 20
44.61118064525588
 11
76.59958188140779
 21
47.73910393473644
 72
1
 10
76.59958188140779
 20
47.73910393473644
 11
80.29200890094198
 21
50.46664022595064
 72
1
 10
80.29200890094198
 20
50.46664022595064
 11
84.27973558133219
 21
52.74073508697863
 72
1
 10
84.27973558133219
 20
52.74073508697863
 11
88.51185917261107
 21
54.51910552719151
 72
1
 10
88.51185917261107
 20
54.51910552719151
 11
92.9238434942615
 21
55.78712203337524
 72
1
 10
92.9238434942615
 20
55.78712203337524
 11
97.423996811977
 21
56.51247028167878
 72
1
 10
97.423996811977
 20
56.51247028167878
 11
102.0428830371973
 21
56.70592171338654
 72
1
 10
102.0428830371973
 20
56.70592171338654
 11
109.2811076204126
 21
55.73536778781797
 72
1
 10
109.2811076204126
 20
55.73536778781797
 11
116.1100401248978
 21
53.14701872158146
 72
1
 10
116.1100401248978
 20
53.14701872158146
 11
122.1731138452241
 21
49.07602288500275
 72
1
 10
122.1731138452241
 20
49.07602288500275
 11
127.1537507188769
 21
43.73494374569847
 72
1
 10
127.1537507188769
 20
43.73494374569847
 11
130.7918911714256
 21
37.40266105404149
 72
1
 10
130.7918911714256
 20
37.40266105404149
 11
132.8975728984773
 21
30.40980938223783
 72
1
 10
132.8975728984773
 20
30.40980938223783
 11
133.36084958037
 21
23.12151433088751
 72
1
 10
133.36084958037
 20
23.12151433088751
 11
133.36084958037
 21
-57.96269107918057
 72
1
 10
133.36084958037
 20
-57.96269107918057
 11
133.4643433721524
 21
-58.74880447374785
 72
1
 10
133.4643433721524
 20
-58.74880447374785
 11
133.7677718166155
 21
-59.48134553959093
 72
1
 10
133.7677718166155
 20
-59.48134553959093
 11
134.2504567667175
 21
-60.1103928136495
 72
1
 10
134.2504567667175
 20
-60.1103928136495
 11
134.8795040407782
 21
-60.59307776375151
 72
1
 10
134.8795040407782
 20
-60.59307776375151
 11
135.6120451066213
 21
-60.89650620821895
 72
1
 10
135.6120451066213
 20
-60.89650620821895
 11
136.3981585011864
 21
-61.00000000000129
 97
0
 75
0
 76
2
 52
0.0
 41
1.0
 77
0
 78
1
 53
45.0
 43
8209.076
 44
1577.079
 45
-10.60660171779821
 46
10.60660171779821
 79
0
 98
1
 10
0.0
 20
0.0
  0
ARC
  5
33
330
2F
100
AcDbEntity
  8
A-DETL-GENF
370
35
100
AcDbCircle
 10
102.3842093779479
 20
15.87519550976698
 30
0.0
 40
52.11965641023383
100
AcDbArc
 50
89.5158877773957
 51
145.8242890832052
  0
ARC
  5
34
330
2F
100
AcDbEntity
  8
A-DETL-GENF
370
35
100
AcDbCircle
 10
-10.85192425479728
 20
109.4571957914826
 30
0.0
 40
95.13897659989222
100
AcDbArc
 50
218.6745407238483
 51
317.4757160576844
  0
ARC
  5
35
330
2F
100
AcDbEntity
  8
A-DETL-GENF
370
35
100
AcDbCircle
 10
-87.81222504524428
 20
48.40881035138631
 30
0.0
 40
3.123346185331397
100
AcDbArc
 50
30.73915962926022
 51
93.26084037073107
  0
LINE
  5
36
330
2F
100
AcDbEntity
  8
A-DETL-GENF
370
35
100
AcDbLine
 10
-87.98988623102338
 20
51.52709960937567
 30
0.0
 11
-90.5182771696087
 21
51.52709960937567
 31
0.0
  0
ARC
  5
37
330
2F
100
AcDbEntity
  8
A-DETL-GENF
370
35
100
AcDbCircle
 10
-90.68736126974878
 20
48.43681515157935
 30
0.0
 40
3.094906696980969
100
AcDbArc
 50
86.86819925086108
 51
165.1318007493324
  0
LINE
  5
38
330
2F
100
AcDbEntity
  8
A-DETL-GENF
370
35
100
AcDbLine
 10
-93.67864630096621
 20
49.23095703124088
 30
0.0
 11
-95.94964239471352
 21
39.82299804687602
 31
0.0
  0
ARC
  5
39
330
2F
100
AcDbEntity
  8
A-DETL-GENF
370
35
100
AcDbCircle
 10
-98.86912060990036
 20
40.5277336471787
 30
0.0
 40
3.003332368434161
100
AcDbArc
 50
267.5710642066828
 51
346.4289357933716
  0
LINE
  5
3A
330
2F
100
AcDbEntity
  8
A-DETL-GENF
370
35
100
AcDbLine
 10
-98.99640252716185
 20
37.5270996093756
 30
0.0
 11
-105.0035974728383
 21
37.5270996093756
 31
0.0
  0
ARC
  5
3B
330
2F
100
AcDbEntity
  8
A-DETL-GENF
370
35
100
AcDbCircle
 10
-104.8952045761953
 20
40.67485009054266
 30
0.0
 40
3.149616184827934
100
AcDbArc
 50
197.9722028673113
 51
268.0277971326853
  0
LINE
  5
3C
330
2F
100
AcDbEntity
  8
A-DETL-GENF
370
35
100
AcDbLine
 10
-107.8911394106926
 20
39.70301853148747
 30
0.0
 11
-110.1963663751752
 21
49.25278428899723
 31
0.0
  0
ARC
  5
3D
330
2F
100
AcDbEntity
  8
A-DETL-GENF
370
35
100
AcDbCircle
 10
-113.2157370016557
 20
48.38827297976052
 30
0.0
 40
3.140697181176615
100
AcDbArc
 50
15.97756604751164
 51
88.02243395251529
  0
LINE
  5
3E
330
2F
100
AcDbEntity
  8
A-DETL-GENF
370
35
100
AcDbLine
 10
-113.1073572384634
 20
51.52709960937567
 30
0.0
 11
-115.5422119399935
 21
51.52709960937567
 31
0.0
  0
ARC
  5
3F
330
2F
100
AcDbEntity
  8
A-DETL-GENF
370
35
100
AcDbCircle
 10
-115.6882305997323
 20
48.43682893330889
 30
0.0
 40
3.093718523128784
100
AcDbArc
 50
87.29472405857707
 51
166.4313752178838
  0
LINE
  5
40
330
2F
100
AcDbEntity
  8
A-DETL-GENF
370
35
100
AcDbLine
 10
-118.6956022597566
 20
49.16264571379436
 30
0.0
 11
-120.7407221428711
 21
40.68883284091394
 31
0.0
  0
ARC
  5
41
330
2F
100
AcDbEntity
  8
A-DETL-GENF
370
35
100
AcDbCircle
 10
-99.53163167823944
 20
34.95466000111808
 30
0.0
 40
21.97057706328134
100
AcDbArc
 50
164.8709923344027
 51
179.9999999999994
  0
LINE
  5
42
330
2F
100
AcDbEntity
  8
A-DETL-GENF
370
35
100
AcDbLine
 10
-121.5038416134638
 20
34.95466000111817
 30
0.0
 11
-121.5038416134638
 21
29.63801377394743
 31
0.0
  0
ARC
  5
43
330
2F
100
AcDbEntity
  8
A-DETL-GENF
370
35
100
AcDbCircle
 10
-118.3929274488918
 20
29.63801377394743
 30
0.0
 40
3.110914164571752
100
AcDbArc
 50
180.0
 51
269.9999999999992
  0
LINE
  5
44
330
2F
100
AcDbEntity
  8
A-DETL-GENF
370
35
100
AcDbLine
 10
-118.3929274488918
 20
26.5270996093758
 30
0.0
 11
-80.43059942598123
 21
26.52709960937567
 31
0.0
  0
ARC
  5
45
330
2F
100
AcDbEntity
  8
A-DETL-GENF
370
35
100
AcDbCircle
 10
-80.47000507756468
 20
16.33430949984919
 30
0.0
 40
10.19286628099465
100
AcDbArc
 50
50.22150620714882
 51
89.7784937929522
  0
ARC
  5
46
330
2F
100
AcDbEntity
  8
A-DETL-GENF
370
35
100
AcDbCircle
 10
-14.58030812811825
 20
103.1276510103273
 30
0.0
 40
98.78882711971137
100
AcDbArc
 50
233.0613522129792
 51
243.9005941812306
  0
ARC
  5
47
330
2F
100
AcDbEntity
  8
A-DETL-GENF
370
35
100
AcDbCircle
 10
-59.7120673141375
 20
9.430866999853055
 30
0.0
 40
5.254239960437578
100
AcDbArc
 50
12.55071536672236
 51
71.44928463330663
  0
LINE
  5
48
330
2F
100
AcDbEntity
  8
A-DETL-GENF
370
35
100
AcDbLine
 10
-54.58338244516197
 20
10.57263277119173
 30
0.0
 11
-52.48551323396554
 21
2.295898437511195
 31
0.0
  0
ARC
  5
49
330
2F
100
AcDbEntity
  8
A-DETL-GENF
370
35
100
AcDbCircle
 10
-49.56482888631004
 20
3.000969286820461
 30
0.0
 40
3.004583492130888
100
AcDbArc
 50
193.5718816814296
 51
272.810576725961
  0
LINE
  5
4A
330
2F
100
AcDbEntity
  8
A-DETL-GENF
370
35
100
AcDbLine
 10
-49.41750169687528
 20
1.692e-13
 30
0.0
 11
-45.01014461084397
 21
1.692e-13
 31
0.0
  0
ARC
  5
4B
330
2F
100
AcDbEntity
  8
A-DETL-GENF
370
35
100
AcDbCircle
 10
-44.67021729106099
 20
3.332104694901074
 30
0.0
 40
3.349398793890556
100
AcDbArc
 50
264.1750766415325
 51
346.4236957763977
  0
LINE
  5
4C
330
2F
100
AcDbEntity
  8
A-DETL-GENF
370
35
100
AcDbLine
 10
-41.4144068455618
 20
2.545866420907224
 30
0.0
 11
-40.92345363729555
 21
4.578902253168422
 31
0.0
  0
ARC
  5
4D
330
2F
100
AcDbEntity
  8
A-DETL-GENF
370
35
100
AcDbCircle
 10
-37.9523119422971
 20
3.624082245231903
 30
0.0
 40
3.120795446567139
100
AcDbArc
 50
68.9411232146422
 51
162.184428923816
  0
ARC
  5
4E
330
2F
100
AcDbEntity
  8
A-DETL-GENF
370
35
100
AcDbCircle
 10
-10.91801118696475
 20
109.3018966137769
 30
0.0
 40
105.9821549941402
100
AcDbArc
 50
255.8475580784943
 51
282.1524419215038
  0
ARC
  5
4F
330
2F
100
AcDbEntity
  8
A-DETL-GENF
370
35
100
AcDbCircle
 10
12.33945361470541
 20
2.608972102751201
 30
0.0
 40
3.227714261754589
100
AcDbArc
 50
8.584171833962309
 51
107.0576650724798
  0
ARC
  5
50
330
2F
100
AcDbEntity
  8
A-DETL-GENF
370
35
100
AcDbCircle
 10
19.23406273856154
 20
3.748890140820411
 30
0.0
 40
3.761083840168679
100
AcDbArc
 50
190.0779257267467
 51
274.6149422264791
  0
LINE
  5
51
330
2F
100
AcDbEntity
  8
A-DETL-GENF
370
35
100
AcDbLine
 10
19.53667530412811
 20
1.692e-13
 30
0.0
 11
23.92772708987738
 21
1.692e-13
 31
0.0
  0
ARC
  5
52
330
2F
100
AcDbEntity
  8
A-DETL-GENF
370
35
100
AcDbCircle
 10
23.92772708987739
 20
2.999875742453668
 30
0.0
 40
2.999875768925351
100
AcDbArc
 50
269.9999999999993
 51
346.4278983798875
  0
LINE
  5
53
330
2F
100
AcDbEntity
  8
A-DETL-GENF
370
35
100
AcDbLine
 10
26.84383246916229
 20
2.295898437499359
 30
0.0
 11
28.37561763640146
 21
8.641056064967254
 31
0.0
  0
ARC
  5
54
330
2F
100
AcDbEntity
  8
A-DETL-GENF
370
35
100
AcDbCircle
 10
34.21532102085596
 20
6.995632920416984
 30
0.0
 40
6.06708768216111
100
AcDbArc
 50
111.735970508042
 51
164.2640294920305
  0
ARC
  5
55
330
2F
100
AcDbEntity
  8
A-DETL-GENF
370
35
100
AcDbCircle
 10
-2.594223048877954
 20
99.32516416166683
 30
0.0
 40
93.32951625303681
100
AcDbArc
 50
291.735970508035
 51
321.3736031506266
  0
ARC
  5
56
330
2F
100
AcDbEntity
  8
A-DETL-GENF
370
35
100
AcDbCircle
 10
101.3188755514937
 20
18.17925981174557
 30
0.0
 40
38.53346421129132
100
AcDbArc
 50
88.92340293662097
 51
143.5640789104339
  0
ARC
  5
57
330
2F
100
AcDbEntity
  8
A-DETL-GENF
370
35
100
AcDbCircle
 10
101.442383651839
 20
24.75150515173346
 30
0.0
 40
31.96005846846354
100
AcDbArc
 50
357.0765970633738
 51
88.92340293662106
  0
LINE
  5
58
330
2F
100
AcDbEntity
  8
A-DETL-GENF
370
35
100
AcDbLine
 10
133.3608495803821
 20
23.12151433088831
 30
0.0
 11
133.3608495803819
 21
-57.96269107917877
 31
0.0
  0
ARC
  5
59
330
2F
100
AcDbEntity
  8
A-DETL-GENF
370
35
100
AcDbCircle
 10
136.3981585012023
 20
-57.96269107917877
 30
0.0
 40
3.037308920820494
100
AcDbArc
 50
179.9999999999995
 51
269.9999999999997
  0
LINE
  5
5A
330
2F
100
AcDbEntity
  8
A-DETL-GENF
370
35
100
AcDbLine
 10
136.3981585012023
 20
-60.99999999999923
 30
0.0
 11
148.3610937210072
 21
-60.99999999999923
 31
0.0
  0
LINE
  5
5B
330
2F
100
AcDbEntity
  8
A-DETL-GENF
370
35
100
AcDbLine
 10
148.3610937210072
 20
-60.99999999999923
 30
0.0
 11
148.3610937210072
 21
22.45647923186915
 31
0.0
  0
ARC
  5
5C
330
2F
100
AcDbEntity
  8
A-DETL-GENF
370
35
100
AcDbCircle
 10
102.8245814734177
 20
22.45647923186878
 30
0.0
 40
45.53651224758961
100
AcDbArc
 50
3.18e-14
 51
90.00000000002223
  0
ARC
  5
5D
330
2F
100
AcDbEntity
  8
A-DETL-GENF
100
AcDbCircle
 10
-10.85192425479824
 20
129.4822462784528
 30
0.0
 40
95.13897659989227
100
AcDbArc
 50
240.1812820030528
 51
317.4757160576838
  0
ARC
  5
5E
330
2F
100
AcDbEntity
  8
A-DETL-GENF
100
AcDbCircle
 10
102.3842093779467
 20
35.90024599673672
 30
0.0
 40
52.119656410234
100
AcDbArc
 50
87.12609679487397
 51
145.824289083206
  0
LINE
  5
5F
330
2F
100
AcDbEntity
  8
A-DETL-GENF
100
AcDbLine
 10
145.5427892459099
 20
47.83560301038303
 30
0.0
 11
145.5427892459099
 21
65.12002642201514
 31
0.0
  0
LINE
  5
60
330
2F
100
AcDbEntity
  8
A-DETL-GENF
100
AcDbLine
 10
-38.92075331654709
 20
1.634e-13
 30
0.0
 11
-36.57808566388933
 21
-9.704240898921926
 31
0.0
  0
LINE
  5
61
330
2F
100
AcDbEntity
  8
A-DETL-GENF
100
AcDbLine
 10
-33.6618571810186
 20
-12.00024414062443
 30
0.0
 11
7.820677860339181
 21
-12.00024414062443
 31
0.0
  0
LINE
  5
62
330
2F
100
AcDbEntity
  8
A-DETL-GENF
100
AcDbLine
 10
7.820677860339181
 20
-12.00024414062443
 30
0.0
 11
-2.588800196989169
 21
-12.00024414062443
 31
0.0
  0
LINE
  5
63
330
2F
100
AcDbEntity
  8
A-DETL-GENF
100
AcDbLine
 10
13.07957399586804
 20
1.605e-13
 30
0.0
 11
10.7369063432099
 21
-9.704240898922043
 31
0.0
  0
ARC
  5
64
330
2F
100
AcDbEntity
  8
A-DETL-GENF
100
AcDbCircle
 10
-33.66185718101859
 20
-9.000244140624304
 30
0.0
 40
2.999999999999996
100
AcDbArc
 50
193.5719110456201
 51
269.9999999999993
  0
ARC
  5
65
330
2F
100
AcDbEntity
  8
A-DETL-GENF
100
AcDbCircle
 10
7.820677860339181
 20
-9.000244140624304
 30
0.0
 40
2.999999999999999
100
AcDbArc
 50
269.9999999999996
 51
346.4280889543768
  0
ARC
  5
66
330
2F
100
AcDbEntity
  8
A-DETL-GENF
100
AcDbCircle
 10
102.3157062315347
 20
41.98404713110119
 30
0.0
 40
46.04845582926897
100
AcDbArc
 50
359.3385694767217
 51
86.66143052326315
  0
LINE
  5
67
330
2F
100
AcDbEntity
  8
A-DETL-GENF
100
AcDbLine
 10
148.3610937210073
 20
41.4524690987704
 30
0.0
 11
148.3610937210073
 21
23.9665380914614
 31
0.0
  0
ENDBLK
  5
31
330
2F
100
AcDbEntity
  8
0
100
AcDbBlockEnd
  0
ENDSEC
  0
SECTION
  2
ENTITIES
  0
INSERT
  5
69
330
17
100
AcDbEntity
  8
0
100
AcDbBlockReference
  2
47 dakpan OVH-pan hor - gevelpan rechts-1591656-00_0 Basismaterialen
 10
0.0
 20
0.0
 30
0.0
  0
ENDSEC
  0
SECTION
  2
OBJECTS
  0
DICTIONARY
  5
A
330
0
100
AcDbDictionary
281
1
  3
ACAD_COLOR
350
B
  3
ACAD_GROUP
350
C
  3
ACAD_LAYOUT
350
D
  3
ACAD_MATERIAL
350
E
  3
ACAD_MLEADERSTYLE
350
F
  3
ACAD_MLINESTYLE
350
10
  3
ACAD_PLOTSETTINGS
350
11
  3
ACAD_PLOTSTYLENAME
350
12
  3
ACAD_SCALELIST
350
14
  3
ACAD_TABLESTYLE
350
15
  3
ACAD_VISUALSTYLE
350
16
  3
EZDXF_META
350
2D
  0
DICTIONARY
  5
B
330
A
100
AcDbDictionary
281
1
  0
DICTIONARY
  5
C
330
A
100
AcDbDictionary
281
1
  0
DICTIONARY
  5
D
330
A
100
AcDbDictionary
281
1
  3
Model
350
1A
  3
Layout1
350
1E
  0
DICTIONARY
  5
E
330
A
100
AcDbDictionary
281
1
  3
ByBlock
350
1F
  3
ByLayer
350
20
  3
Global
350
21
  0
DICTIONARY
  5
F
330
A
100
AcDbDictionary
281
1
  3
Standard
350
2C
  0
DICTIONARY
  5
10
330
A
100
AcDbDictionary
281
1
  3
Standard
350
22
  0
DICTIONARY
  5
11
330
A
100
AcDbDictionary
281
1
  0
ACDBDICTIONARYWDFLT
  5
12
330
A
100
AcDbDictionary
281
1
  3
Normal
350
13
100
AcDbDictionaryWithDefault
340
13
  0
ACDBPLACEHOLDER
  5
13
330
12
  0
DICTIONARY
  5
14
330
A
100
AcDbDictionary
281
1
  0
DICTIONARY
  5
15
330
A
100
AcDbDictionary
281
1
  0
DICTIONARY
  5
16
330
A
100
AcDbDictionary
281
1
  0
LAYOUT
  5
1A
330
D
100
AcDbPlotSettings
  1

  4
A3
  6

 40
7.5
 41
20.0
 42
7.5
 43
20.0
 44
420.0
 45
297.0
 46
0.0
 47
0.0
 48
0.0
 49
0.0
140
0.0
141
0.0
142
1.0
143
1.0
 70
1024
 72
1
 73
0
 74
5
  7

 75
16
 76
0
 77
2
 78
300
147
1.0
148
0.0
149
0.0
100
AcDbLayout
  1
Model
 70
1
 71
0
 10
0.0
 20
0.0
 11
420.0
 21
297.0
 12
0.0
 22
0.0
 32
0.0
 14
1e+20
 24
1e+20
 34
1e+20
 15
-1e+20
 25
-1e+20
 35
-1e+20
146
0.0
 13
0.0
 23
0.0
 33
0.0
 16
1.0
 26
0.0
 36
0.0
 17
0.0
 27
1.0
 37
0.0
 76
1
330
17
  0
LAYOUT
  5
1E
330
D
100
AcDbPlotSettings
  1

  4
A3
  6

 40
7.5
 41
20.0
 42
7.5
 43
20.0
 44
420.0
 45
297.0
 46
0.0
 47
0.0
 48
0.0
 49
0.0
140
0.0
141
0.0
142
1.0
143
1.0
 70
0
 72
1
 73
0
 74
5
  7

 75
16
 76
0
 77
2
 78
300
147
1.0
148
0.0
149
0.0
100
AcDbLayout
  1
Layout1
 70
1
 71
1
 10
0.0
 20
0.0
 11
420.0
 21
297.0
 12
0.0
 22
0.0
 32
0.0
 14
1e+20
 24
1e+20
 34
1e+20
 15
-1e+20
 25
-1e+20
 35
-1e+20
146
0.0
 13
0.0
 23
0.0
 33
0.0
 16
1.0
 26
0.0
 36
0.0
 17
0.0
 27
1.0
 37
0.0
 76
1
330
1B
  0
MATERIAL
  5
1F
102
{ACAD_REACTORS
330
E
102
}
330
E
100
AcDbMaterial
  1
ByBlock
  2

 70
0
 40
1.0
 71
1
 41
1.0
 91
-1023410177
 42
1.0
 72
1
  3

 73
1
 74
1
 75
1
 44
0.5
 73
0
 45
1.0
 46
1.0
 77
1
  4

 78
1
 79
1
170
1
 48
1.0
171
1
  6

172
1
173
1
174
1
140
1.0
141
1.0
175
1
  7

176
1
177
1
178
1
143
1.0
179
1
  8

270
1
271
1
272
1
145
1.0
146
1.0
273
1
  9

274
1
275
1
276
1
 42
1.0
 72
1
  3

 73
1
 74
1
 75
1
 94
63
  0
MATERIAL
  5
20
102
{ACAD_REACTORS
330
E
102
}
330
E
100
AcDbMaterial
  1
ByLayer
  2

 70
0
 40
1.0
 71
1
 41
1.0
 91
-1023410177
 42
1.0
 72
1
  3

 73
1
 74
1
 75
1
 44
0.5
 73
0
 45
1.0
 46
1.0
 77
1
  4

 78
1
 79
1
170
1
 48
1.0
171
1
  6

172
1
173
1
174
1
140
1.0
141
1.0
175
1
  7

176
1
177
1
178
1
143
1.0
179
1
  8

270
1
271
1
272
1
145
1.0
146
1.0
273
1
  9

274
1
275
1
276
1
 42
1.0
 72
1
  3

 73
1
 74
1
 75
1
 94
63
  0
MATERIAL
  5
21
102
{ACAD_REACTORS
330
E
102
}
330
E
100
AcDbMaterial
  1
Global
  2

 70
0
 40
1.0
 71
1
 41
1.0
 91
-1023410177
 42
1.0
 72
1
  3

 73
1
 74
1
 75
1
 44
0.5
 73
0
 45
1.0
 46
1.0
 77
1
  4

 78
1
 79
1
170
1
 48
1.0
171
1
  6

172
1
173
1
174
1
140
1.0
141
1.0
175
1
  7

176
1
177
1
178
1
143
1.0
179
1
  8

270
1
271
1
272
1
145
1.0
146
1.0
273
1
  9

274
1
275
1
276
1
 42
1.0
 72
1
  3

 73
1
 74
1
 75
1
 94
63
  0
MLINESTYLE
  5
22
102
{ACAD_REACTORS
330
10
102
}
330
10
100
AcDbMlineStyle
  2
Standard
 70
0
  3

 62
256
 51
90.0
 52
90.0
 71
2
 49
0.5
 62
256
  6
BYLAYER
 49
-0.5
 62
256
  6
BYLAYER
  0
MLEADERSTYLE
  5
2C
102
{ACAD_REACTORS
330
F
102
}
330
F
100
AcDbMLeaderStyle
179
2
170
2
171
1
172
0
 90
2
 40
0.0
 41
0.0
173
1
 91
-1056964608
 92
-2
290
1
 42
2.0
291
1
 43
8.0
  3
Standard
 44
4.0
300

342
29
174
1
175
1
176
0
178
1
 93
-1056964608
 45
4.0
292
0
297
0
 46
4.0
 94
-1056964608
 47
1.0
 49
1.0
140
1.0
294
1
141
0.0
177
0
142
1.0
295
0
296
0
143
3.75
271
0
272
9
273
9
  0
DICTIONARY
  5
2D
330
A
100
AcDbDictionary
280
1
281
1
  3
CREATED_BY_EZDXF
350
2E
  3
WRITTEN_BY_EZDXF
350
6D
  0
DICTIONARYVAR
  5
2E
330
2D
100
DictionaryVariables
280
0
  1
1.4.3 @ 2026-02-13T04:54:14.817084+00:00
  0
DICTIONARYVAR
  5
6D
330
2D
100
DictionaryVariables
280
0
  1
1.4.3 @ 2026-02-13T04:54:14.822580+00:00
  0
ENDSEC
  0
EOF
