0
SECTION
2
HEADER
9
$EXTMIN
10
 0
20
 100
30
0.0
9
$EXTMAX
10
 0
20
 100
30
0.0
9
$LIMMIN
10
 100
20
 0
9
$LIMMAX
10
 0
20
 100
9
$PSLTSCALE
70
1
0
ENDSEC
0
SECTION
2
TABLES
0
TABLE
2
LAYER
70
2
0
LAYER
2
0
70
0
62
7
6
CONTINUOUS
0
LAYER
2
Halfen
70
0
62
7
6
CONTINUOUS
0
ENDTAB
0
ENDSEC
0
SECTION
2
ENTITIES
0
POLYLINE
8
Halfen
62
7
66
1
10
0.0
20
0.0
30
0.0
70
1
0
VERTEX
8
Halfen
62
7
10
 0
20
-73.5
30
0
0
VERTEX
8
Halfen
62
7
10
 500
20
-73.5
30
0
0
VERTEX
8
Halfen
62
7
10
 500
20
 73.5
30
0
0
VERTEX
8
Halfen
62
7
10
 0
20
 73.5
30
0
0
SEQEND
8
Halfen
0
POLYLINE
8
Halfen
62
7
66
1
10
0.0
20
0.0
30
0.0
70
1
0
VERTEX
8
Halfen
62
7
10
 0
20
-60
30
0
0
VERTEX
8
Halfen
62
7
10
 500
20
-60
30
0
0
VERTEX
8
Halfen
62
7
10
 500
20
 60
30
0
0
VERTEX
8
Halfen
62
7
10
 0
20
 60
30
0
0
SEQEND
8
Halfen
0
POLYLINE
8
Halfen
62
7
66
1
10
0.0
20
0.0
30
0.0
70
1
0
VERTEX
8
Halfen
62
7
10
 20
20
-32.5
30
0
0
VERTEX
8
Halfen
62
7
10
 37
20
-1.5
30
0
0
VERTEX
8
Halfen
62
7
10
 28
20
-1.5
30
0
0
VERTEX
8
Halfen
62
7
10
 28
20
 32.5
30
0
0
VERTEX
8
Halfen
62
7
10
 12
20
 32.5
30
0
0
VERTEX
8
Halfen
62
7
10
 12
20
-1.5
30
0
0
VERTEX
8
Halfen
62
7
10
 3
20
-1.5
30
0
0
SEQEND
8
Halfen
0
POLYLINE
8
Halfen
62
7
66
1
10
0.0
20
0.0
30
0.0
70
1
0
VERTEX
8
Halfen
62
7
10
 480
20
-32.5
30
0
0
VERTEX
8
Halfen
62
7
10
 497
20
-1.5
30
0
0
VERTEX
8
Halfen
62
7
10
 488
20
-1.5
30
0
0
VERTEX
8
Halfen
62
7
10
 488
20
 32.5
30
0
0
VERTEX
8
Halfen
62
7
10
 472
20
 32.5
30
0
0
VERTEX
8
Halfen
62
7
10
 472
20
-1.5
30
0
0
VERTEX
8
Halfen
62
7
10
 463
20
-1.5
30
0
0
SEQEND
8
Halfen
0
POLYLINE
8
Halfen
62
7
66
1
10
0.0
20
0.0
30
0.0
70
1
0
VERTEX
8
Halfen
62
7
10
 73
20
-456.177
30
0
0
VERTEX
8
Halfen
62
7
10
 73
20
 216.147
30
0
0
VERTEX
8
Halfen
62
7
10
 67
20
 216.147
30
0
0
VERTEX
8
Halfen
62
7
10
 67
20
-456.177
30
0
0
SEQEND
8
Halfen
0
POLYLINE
8
Halfen
62
7
66
1
10
0.0
20
0.0
30
0.0
70
1
0
VERTEX
8
Halfen
62
7
10
 133
20
-456.177
30
0
0
VERTEX
8
Halfen
62
7
10
 133
20
 216.147
30
0
0
VERTEX
8
Halfen
62
7
10
 127
20
 216.147
30
0
0
VERTEX
8
Halfen
62
7
10
 127
20
-456.177
30
0
0
SEQEND
8
Halfen
0
POLYLINE
8
Halfen
62
7
66
1
10
0.0
20
0.0
30
0.0
70
1
0
VERTEX
8
Halfen
62
7
10
 193
20
-456.177
30
0
0
VERTEX
8
Halfen
62
7
10
 193
20
 216.147
30
0
0
VERTEX
8
Halfen
62
7
10
 187
20
 216.147
30
0
0
VERTEX
8
Halfen
62
7
10
 187
20
-456.177
30
0
0
SEQEND
8
Halfen
0
POLYLINE
8
Halfen
62
7
66
1
10
0.0
20
0.0
30
0.0
70
1
0
VERTEX
8
Halfen
62
7
10
 323
20
-456.177
30
0
0
VERTEX
8
Halfen
62
7
10
 323
20
 216.147
30
0
0
VERTEX
8
Halfen
62
7
10
 317
20
 216.147
30
0
0
VERTEX
8
Halfen
62
7
10
 317
20
-456.177
30
0
0
SEQEND
8
Halfen
0
POLYLINE
8
Halfen
62
7
66
1
10
0.0
20
0.0
30
0.0
70
1
0
VERTEX
8
Halfen
62
7
10
 383
20
-456.177
30
0
0
VERTEX
8
Halfen
62
7
10
 383
20
 216.147
30
0
0
VERTEX
8
Halfen
62
7
10
 377
20
 216.147
30
0
0
VERTEX
8
Halfen
62
7
10
 377
20
-456.177
30
0
0
SEQEND
8
Halfen
0
POLYLINE
8
Halfen
62
7
66
1
10
0.0
20
0.0
30
0.0
70
1
0
VERTEX
8
Halfen
62
7
10
 443
20
-456.177
30
0
0
VERTEX
8
Halfen
62
7
10
 443
20
 216.147
30
0
0
VERTEX
8
Halfen
62
7
10
 437
20
 216.147
30
0
0
VERTEX
8
Halfen
62
7
10
 437
20
-456.177
30
0
0
SEQEND
8
Halfen
0
POLYLINE
8
Halfen
62
7
66
1
10
0.0
20
0.0
30
0.0
70
1
0
VERTEX
8
Halfen
62
7
10
 433
20
-456.177
30
0
0
VERTEX
8
Halfen
62
7
10
 433
20
 216.147
30
0
0
VERTEX
8
Halfen
62
7
10
 427
20
 216.147
30
0
0
VERTEX
8
Halfen
62
7
10
 427
20
-456.177
30
0
0
SEQEND
8
Halfen
0
POLYLINE
8
Halfen
62
7
66
1
10
0.0
20
0.0
30
0.0
70
1
0
VERTEX
8
Halfen
62
7
10
 373
20
-456.177
30
0
0
VERTEX
8
Halfen
62
7
10
 373
20
 216.147
30
0
0
VERTEX
8
Halfen
62
7
10
 367
20
 216.147
30
0
0
VERTEX
8
Halfen
62
7
10
 367
20
-456.177
30
0
0
SEQEND
8
Halfen
0
POLYLINE
8
Halfen
62
7
66
1
10
0.0
20
0.0
30
0.0
70
1
0
VERTEX
8
Halfen
62
7
10
 313
20
-456.177
30
0
0
VERTEX
8
Halfen
62
7
10
 313
20
 216.147
30
0
0
VERTEX
8
Halfen
62
7
10
 307
20
 216.147
30
0
0
VERTEX
8
Halfen
62
7
10
 307
20
-456.177
30
0
0
SEQEND
8
Halfen
0
POLYLINE
8
Halfen
62
7
66
1
10
0.0
20
0.0
30
0.0
70
1
0
VERTEX
8
Halfen
62
7
10
 183
20
-456.177
30
0
0
VERTEX
8
Halfen
62
7
10
 183
20
 216.147
30
0
0
VERTEX
8
Halfen
62
7
10
 177
20
 216.147
30
0
0
VERTEX
8
Halfen
62
7
10
 177
20
-456.177
30
0
0
SEQEND
8
Halfen
0
POLYLINE
8
Halfen
62
7
66
1
10
0.0
20
0.0
30
0.0
70
1
0
VERTEX
8
Halfen
62
7
10
 123
20
-456.177
30
0
0
VERTEX
8
Halfen
62
7
10
 123
20
 216.147
30
0
0
VERTEX
8
Halfen
62
7
10
 117
20
 216.147
30
0
0
VERTEX
8
Halfen
62
7
10
 117
20
-456.177
30
0
0
SEQEND
8
Halfen
0
POLYLINE
8
Halfen
62
7
66
1
10
0.0
20
0.0
30
0.0
70
1
0
VERTEX
8
Halfen
62
7
10
 63
20
-456.177
30
0
0
VERTEX
8
Halfen
62
7
10
 63
20
 216.147
30
0
0
VERTEX
8
Halfen
62
7
10
 57
20
 216.147
30
0
0
VERTEX
8
Halfen
62
7
10
 57
20
-456.177
30
0
0
SEQEND
8
Halfen
0
POLYLINE
8
Halfen
62
7
66
1
10
0.0
20
0.0
30
0.0
70
1
0
VERTEX
8
Halfen
62
7
10
 960
20
-60
30
0
0
VERTEX
8
Halfen
62
7
10
 960
20
 60
30
0
0
VERTEX
8
Halfen
62
7
10
 946.5
20
 73.5
30
0
0
VERTEX
8
Halfen
62
7
10
 946.5
20
 60
30
0
0
VERTEX
8
Halfen
62
7
10
 750
20
 60
30
0
0
VERTEX
8
Halfen
62
7
10
 750
20
-60
30
0
0
VERTEX
8
Halfen
62
7
10
 946.5
20
-60
30
0
0
VERTEX
8
Halfen
62
7
10
 946.5
20
-73.5
30
0
0
SEQEND
8
Halfen
0
POLYLINE
8
Halfen
62
7
66
1
10
0.0
20
0.0
30
0.0
70
1
0
VERTEX
8
Halfen
62
7
10
 750
20
-60
30
0
0
VERTEX
8
Halfen
62
7
10
 750
20
 60
30
0
0
VERTEX
8
Halfen
62
7
10
 713.5
20
 60
30
0
0
VERTEX
8
Halfen
62
7
10
 713.5
20
 73.5
30
0
0
VERTEX
8
Halfen
62
7
10
 700
20
 60
30
0
0
VERTEX
8
Halfen
62
7
10
 700
20
-60
30
0
0
VERTEX
8
Halfen
62
7
10
 713.5
20
-73.5
30
0
0
VERTEX
8
Halfen
62
7
10
 713.5
20
-60
30
0
0
SEQEND
8
Halfen
0
POLYLINE
8
Halfen
62
7
66
1
10
0.0
20
0.0
30
0.0
70
1
0
VERTEX
8
Halfen
62
7
10
 957.5
20
-58.75
30
0
0
VERTEX
8
Halfen
62
7
10
 957.5
20
 58.75
30
0
0
VERTEX
8
Halfen
62
7
10
 949
20
 67.25
30
0
0
VERTEX
8
Halfen
62
7
10
 949
20
 58
30
0
0
VERTEX
8
Halfen
62
7
10
 752
20
 58
30
0
0
VERTEX
8
Halfen
62
7
10
 752
20
-58
30
0
0
VERTEX
8
Halfen
62
7
10
 949
20
-58
30
0
0
VERTEX
8
Halfen
62
7
10
 949
20
-67.25
30
0
0
SEQEND
8
Halfen
0
POLYLINE
8
Halfen
62
7
66
1
10
0.0
20
0.0
30
0.0
70
1
0
VERTEX
8
Halfen
62
7
10
 748
20
-58
30
0
0
VERTEX
8
Halfen
62
7
10
 748
20
 58
30
0
0
VERTEX
8
Halfen
62
7
10
 711
20
 58
30
0
0
VERTEX
8
Halfen
62
7
10
 711
20
 67.25
30
0
0
VERTEX
8
Halfen
62
7
10
 702.5
20
 58.75
30
0
0
VERTEX
8
Halfen
62
7
10
 702.5
20
-58.75
30
0
0
VERTEX
8
Halfen
62
7
10
 711
20
-67.25
30
0
0
VERTEX
8
Halfen
62
7
10
 711
20
-58
30
0
0
SEQEND
8
Halfen
0
POLYLINE
8
Halfen
62
7
66
1
10
0.0
20
0.0
30
0.0
70
1
0
VERTEX
8
Halfen
62
7
10
 930
20
-456.177
30
0
0
VERTEX
8
Halfen
62
7
10
 930
20
-81.213
30
0
0
VERTEX
8
Halfen
62
7
10
 929.705
20
-77.459
30
0
0
VERTEX
8
Halfen
62
7
10
 928.825
20
-73.797
30
0
0
VERTEX
8
Halfen
62
7
10
 927.384
20
-70.317
30
0
0
VERTEX
8
Halfen
62
7
10
 925.416
20
-67.106
30
0
0
VERTEX
8
Halfen
62
7
10
 922.971
20
-64.243
30
0
0
VERTEX
8
Halfen
62
7
10
 781.272
20
 77.456
30
0
0
VERTEX
8
Halfen
62
7
10
 779.438
20
 79.604
30
0
0
VERTEX
8
Halfen
62
7
10
 777.962
20
 82.012
30
0
0
VERTEX
8
Halfen
62
7
10
 776.881
20
 84.621
30
0
0
VERTEX
8
Halfen
62
7
10
 776.222
20
 87.368
30
0
0
VERTEX
8
Halfen
62
7
10
 776
20
 90.184
30
0
0
VERTEX
8
Halfen
62
7
10
 776
20
 192.147
30
0
0
VERTEX
8
Halfen
62
7
10
 776.222
20
 194.963
30
0
0
VERTEX
8
Halfen
62
7
10
 776.881
20
 197.71
30
0
0
VERTEX
8
Halfen
62
7
10
 777.962
20
 200.319
30
0
0
VERTEX
8
Halfen
62
7
10
 779.438
20
 202.728
30
0
0
VERTEX
8
Halfen
62
7
10
 781.272
20
 204.875
30
0
0
VERTEX
8
Halfen
62
7
10
 783.42
20
 206.71
30
0
0
VERTEX
8
Halfen
62
7
10
 785.828
20
 208.186
30
0
0
VERTEX
8
Halfen
62
7
10
 788.438
20
 209.266
30
0
0
VERTEX
8
Halfen
62
7
10
 791.184
20
 209.926
30
0
0
VERTEX
8
Halfen
62
7
10
 794
20
 210.147
30
0
0
VERTEX
8
Halfen
62
7
10
 865
20
 210.147
30
0
0
VERTEX
8
Halfen
62
7
10
 865
20
 216.147
30
0
0
VERTEX
8
Halfen
62
7
10
 794
20
 216.147
30
0
0
VERTEX
8
Halfen
62
7
10
 790.246
20
 215.852
30
0
0
VERTEX
8
Halfen
62
7
10
 786.584
20
 214.973
30
0
0
VERTEX
8
Halfen
62
7
10
 783.104
20
 213.532
30
0
0
VERTEX
8
Halfen
62
7
10
 779.893
20
 211.564
30
0
0
VERTEX
8
Halfen
62
7
10
 777.029
20
 209.118
30
0
0
VERTEX
8
Halfen
62
7
10
 774.584
20
 206.254
30
0
0
VERTEX
8
Halfen
62
7
10
 772.616
20
 203.043
30
0
0
VERTEX
8
Halfen
62
7
10
 771.175
20
 199.564
30
0
0
VERTEX
8
Halfen
62
7
10
 770.295
20
 195.902
30
0
0
VERTEX
8
Halfen
62
7
10
 770
20
 192.147
30
0
0
VERTEX
8
Halfen
62
7
10
 770
20
 90.184
30
0
0
VERTEX
8
Halfen
62
7
10
 770.295
20
 86.429
30
0
0
VERTEX
8
Halfen
62
7
10
 771.175
20
 82.767
30
0
0
VERTEX
8
Halfen
62
7
10
 772.616
20
 79.288
30
0
0
VERTEX
8
Halfen
62
7
10
 774.584
20
 76.077
30
0
0
VERTEX
8
Halfen
62
7
10
 777.029
20
 73.213
30
0
0
VERTEX
8
Halfen
62
7
10
 918.728
20
-68.485
30
0
0
VERTEX
8
Halfen
62
7
10
 920.562
20
-70.633
30
0
0
VERTEX
8
Halfen
62
7
10
 922.038
20
-73.041
30
0
0
VERTEX
8
Halfen
62
7
10
 923.119
20
-75.651
30
0
0
VERTEX
8
Halfen
62
7
10
 923.778
20
-78.397
30
0
0
VERTEX
8
Halfen
62
7
10
 924
20
-81.213
30
0
0
VERTEX
8
Halfen
62
7
10
 924
20
-456.177
30
0
0
SEQEND
8
Halfen
0
POLYLINE
8
Halfen
62
7
66
1
10
0.0
20
0.0
30
0.0
70
1
0
VERTEX
8
Halfen
62
7
10
 770
20
-457.324
30
0
0
VERTEX
8
Halfen
62
7
10
 770
20
-82.361
30
0
0
VERTEX
8
Halfen
62
7
10
 770.295
20
-78.606
30
0
0
VERTEX
8
Halfen
62
7
10
 771.175
20
-74.944
30
0
0
VERTEX
8
Halfen
62
7
10
 772.616
20
-71.465
30
0
0
VERTEX
8
Halfen
62
7
10
 774.584
20
-68.254
30
0
0
VERTEX
8
Halfen
62
7
10
 777.029
20
-65.39
30
0
0
VERTEX
8
Halfen
62
7
10
 918.728
20
 76.308
30
0
0
VERTEX
8
Halfen
62
7
10
 920.562
20
 78.456
30
0
0
VERTEX
8
Halfen
62
7
10
 922.038
20
 80.865
30
0
0
VERTEX
8
Halfen
62
7
10
 923.119
20
 83.474
30
0
0
VERTEX
8
Halfen
62
7
10
 923.778
20
 86.221
30
0
0
VERTEX
8
Halfen
62
7
10
 924
20
 89.036
30
0
0
VERTEX
8
Halfen
62
7
10
 924
20
 191
30
0
0
VERTEX
8
Halfen
62
7
10
 923.778
20
 193.816
30
0
0
VERTEX
8
Halfen
62
7
10
 923.119
20
 196.562
30
0
0
VERTEX
8
Halfen
62
7
10
 922.038
20
 199.172
30
0
0
VERTEX
8
Halfen
62
7
10
 920.562
20
 201.58
30
0
0
VERTEX
8
Halfen
62
7
10
 918.728
20
 203.728
30
0
0
VERTEX
8
Halfen
62
7
10
 916.58
20
 205.562
30
0
0
VERTEX
8
Halfen
62
7
10
 914.172
20
 207.038
30
0
0
VERTEX
8
Halfen
62
7
10
 911.562
20
 208.119
30
0
0
VERTEX
8
Halfen
62
7
10
 908.816
20
 208.778
30
0
0
VERTEX
8
Halfen
62
7
10
 906
20
 209
30
0
0
VERTEX
8
Halfen
62
7
10
 835
20
 209
30
0
0
VERTEX
8
Halfen
62
7
10
 835
20
 215
30
0
0
VERTEX
8
Halfen
62
7
10
 906
20
 215
30
0
0
VERTEX
8
Halfen
62
7
10
 909.754
20
 214.705
30
0
0
VERTEX
8
Halfen
62
7
10
 913.416
20
 213.825
30
0
0
VERTEX
8
Halfen
62
7
10
 916.896
20
 212.384
30
0
0
VERTEX
8
Halfen
62
7
10
 920.107
20
 210.416
30
0
0
VERTEX
8
Halfen
62
7
10
 922.971
20
 207.971
30
0
0
VERTEX
8
Halfen
62
7
10
 925.416
20
 205.107
30
0
0
VERTEX
8
Halfen
62
7
10
 927.384
20
 201.896
30
0
0
VERTEX
8
Halfen
62
7
10
 928.825
20
 198.416
30
0
0
VERTEX
8
Halfen
62
7
10
 929.705
20
 194.754
30
0
0
VERTEX
8
Halfen
62
7
10
 930
20
 191
30
0
0
VERTEX
8
Halfen
62
7
10
 930
20
 89.036
30
0
0
VERTEX
8
Halfen
62
7
10
 929.705
20
 85.282
30
0
0
VERTEX
8
Halfen
62
7
10
 928.825
20
 81.62
30
0
0
VERTEX
8
Halfen
62
7
10
 927.384
20
 78.141
30
0
0
VERTEX
8
Halfen
62
7
10
 925.416
20
 74.929
30
0
0
VERTEX
8
Halfen
62
7
10
 922.971
20
 72.066
30
0
0
VERTEX
8
Halfen
62
7
10
 781.272
20
-69.633
30
0
0
VERTEX
8
Halfen
62
7
10
 779.438
20
-71.78
30
0
0
VERTEX
8
Halfen
62
7
10
 777.962
20
-74.189
30
0
0
VERTEX
8
Halfen
62
7
10
 776.881
20
-76.798
30
0
0
VERTEX
8
Halfen
62
7
10
 776.222
20
-79.545
30
0
0
VERTEX
8
Halfen
62
7
10
 776
20
-82.361
30
0
0
VERTEX
8
Halfen
62
7
10
 776
20
-457.324
30
0
0
SEQEND
8
Halfen
0
ENDSEC
0
EOF
