0
SECTION
2
HEADER
9
$EXTMIN
10
 0
20
 100
30
0.0
9
$EXTMAX
10
 0
20
 100
30
0.0
9
$LIMMIN
10
 100
20
 0
9
$LIMMAX
10
 0
20
 100
9
$PSLTSCALE
70
1
0
ENDSEC
0
SECTION
2
TABLES
0
TABLE
2
LAYER
70
2
0
LAYER
2
0
70
0
62
7
6
CONTINUOUS
0
LAYER
2
Halfen
70
0
62
7
6
CONTINUOUS
0
ENDTAB
0
ENDSEC
0
SECTION
2
ENTITIES
0
POLYLINE
8
Halfen
62
7
66
1
10
0.0
20
0.0
30
0.0
70
1
0
VERTEX
8
Halfen
62
7
10
 0
20
-73.5
30
0
0
VERTEX
8
Halfen
62
7
10
 1000
20
-73.5
30
0
0
VERTEX
8
Halfen
62
7
10
 1000
20
 73.5
30
0
0
VERTEX
8
Halfen
62
7
10
 0
20
 73.5
30
0
0
SEQEND
8
Halfen
0
POLYLINE
8
Halfen
62
7
66
1
10
0.0
20
0.0
30
0.0
70
1
0
VERTEX
8
Halfen
62
7
10
 0
20
-60
30
0
0
VERTEX
8
Halfen
62
7
10
 1000
20
-60
30
0
0
VERTEX
8
Halfen
62
7
10
 1000
20
 60
30
0
0
VERTEX
8
Halfen
62
7
10
 0
20
 60
30
0
0
SEQEND
8
Halfen
0
POLYLINE
8
Halfen
62
7
66
1
10
0.0
20
0.0
30
0.0
70
1
0
VERTEX
8
Halfen
62
7
10
 20
20
-32.5
30
0
0
VERTEX
8
Halfen
62
7
10
 37
20
-1.5
30
0
0
VERTEX
8
Halfen
62
7
10
 28
20
-1.5
30
0
0
VERTEX
8
Halfen
62
7
10
 28
20
 32.5
30
0
0
VERTEX
8
Halfen
62
7
10
 12
20
 32.5
30
0
0
VERTEX
8
Halfen
62
7
10
 12
20
-1.5
30
0
0
VERTEX
8
Halfen
62
7
10
 3
20
-1.5
30
0
0
SEQEND
8
Halfen
0
POLYLINE
8
Halfen
62
7
66
1
10
0.0
20
0.0
30
0.0
70
1
0
VERTEX
8
Halfen
62
7
10
 980
20
-32.5
30
0
0
VERTEX
8
Halfen
62
7
10
 997
20
-1.5
30
0
0
VERTEX
8
Halfen
62
7
10
 988
20
-1.5
30
0
0
VERTEX
8
Halfen
62
7
10
 988
20
 32.5
30
0
0
VERTEX
8
Halfen
62
7
10
 972
20
 32.5
30
0
0
VERTEX
8
Halfen
62
7
10
 972
20
-1.5
30
0
0
VERTEX
8
Halfen
62
7
10
 963
20
-1.5
30
0
0
SEQEND
8
Halfen
0
POLYLINE
8
Halfen
62
7
66
1
10
0.0
20
0.0
30
0.0
70
1
0
VERTEX
8
Halfen
62
7
10
 265
20
-69.3
30
0
0
VERTEX
8
Halfen
62
7
10
 265
20
-56.8
30
0
0
VERTEX
8
Halfen
62
7
10
 265
20
 69.3
30
0
0
VERTEX
8
Halfen
62
7
10
 264.958
20
 70.359
30
0
0
VERTEX
8
Halfen
62
7
10
 264.834
20
 71.412
30
0
0
VERTEX
8
Halfen
62
7
10
 264.627
20
 72.452
30
0
0
VERTEX
8
Halfen
62
7
10
 264.339
20
 73.472
30
0
0
VERTEX
8
Halfen
62
7
10
 263.972
20
 74.466
30
0
0
VERTEX
8
Halfen
62
7
10
 263.529
20
 75.429
30
0
0
VERTEX
8
Halfen
62
7
10
 263.011
20
 76.354
30
0
0
VERTEX
8
Halfen
62
7
10
 262.422
20
 77.235
30
0
0
VERTEX
8
Halfen
62
7
10
 261.765
20
 78.068
30
0
0
VERTEX
8
Halfen
62
7
10
 261.046
20
 78.846
30
0
0
VERTEX
8
Halfen
62
7
10
 260.268
20
 79.565
30
0
0
VERTEX
8
Halfen
62
7
10
 259.435
20
 80.222
30
0
0
VERTEX
8
Halfen
62
7
10
 258.554
20
 80.811
30
0
0
VERTEX
8
Halfen
62
7
10
 257.629
20
 81.329
30
0
0
VERTEX
8
Halfen
62
7
10
 256.666
20
 81.772
30
0
0
VERTEX
8
Halfen
62
7
10
 255.672
20
 82.139
30
0
0
VERTEX
8
Halfen
62
7
10
 254.652
20
 82.427
30
0
0
VERTEX
8
Halfen
62
7
10
 253.612
20
 82.634
30
0
0
VERTEX
8
Halfen
62
7
10
 252.559
20
 82.758
30
0
0
VERTEX
8
Halfen
62
7
10
 251.5
20
 82.8
30
0
0
VERTEX
8
Halfen
62
7
10
 248.5
20
 82.8
30
0
0
VERTEX
8
Halfen
62
7
10
 247.441
20
 82.758
30
0
0
VERTEX
8
Halfen
62
7
10
 246.388
20
 82.634
30
0
0
VERTEX
8
Halfen
62
7
10
 245.348
20
 82.427
30
0
0
VERTEX
8
Halfen
62
7
10
 244.328
20
 82.139
30
0
0
VERTEX
8
Halfen
62
7
10
 243.334
20
 81.772
30
0
0
VERTEX
8
Halfen
62
7
10
 242.371
20
 81.329
30
0
0
VERTEX
8
Halfen
62
7
10
 241.446
20
 80.811
30
0
0
VERTEX
8
Halfen
62
7
10
 240.565
20
 80.222
30
0
0
VERTEX
8
Halfen
62
7
10
 239.732
20
 79.565
30
0
0
VERTEX
8
Halfen
62
7
10
 238.954
20
 78.846
30
0
0
VERTEX
8
Halfen
62
7
10
 238.235
20
 78.068
30
0
0
VERTEX
8
Halfen
62
7
10
 237.578
20
 77.235
30
0
0
VERTEX
8
Halfen
62
7
10
 236.989
20
 76.354
30
0
0
VERTEX
8
Halfen
62
7
10
 236.471
20
 75.429
30
0
0
VERTEX
8
Halfen
62
7
10
 236.028
20
 74.466
30
0
0
VERTEX
8
Halfen
62
7
10
 235.661
20
 73.472
30
0
0
VERTEX
8
Halfen
62
7
10
 235.373
20
 72.452
30
0
0
VERTEX
8
Halfen
62
7
10
 235.166
20
 71.412
30
0
0
VERTEX
8
Halfen
62
7
10
 235.042
20
 70.359
30
0
0
VERTEX
8
Halfen
62
7
10
 235
20
 69.3
30
0
0
VERTEX
8
Halfen
62
7
10
 235
20
-56.8
30
0
0
VERTEX
8
Halfen
62
7
10
 235
20
-69.3
30
0
0
VERTEX
8
Halfen
62
7
10
 235.042
20
-70.359
30
0
0
VERTEX
8
Halfen
62
7
10
 235.166
20
-71.412
30
0
0
VERTEX
8
Halfen
62
7
10
 235.373
20
-72.452
30
0
0
VERTEX
8
Halfen
62
7
10
 235.661
20
-73.472
30
0
0
VERTEX
8
Halfen
62
7
10
 236.028
20
-74.466
30
0
0
VERTEX
8
Halfen
62
7
10
 236.471
20
-75.429
30
0
0
VERTEX
8
Halfen
62
7
10
 236.989
20
-76.354
30
0
0
VERTEX
8
Halfen
62
7
10
 237.578
20
-77.235
30
0
0
VERTEX
8
Halfen
62
7
10
 238.235
20
-78.068
30
0
0
VERTEX
8
Halfen
62
7
10
 238.954
20
-78.846
30
0
0
VERTEX
8
Halfen
62
7
10
 239.732
20
-79.565
30
0
0
VERTEX
8
Halfen
62
7
10
 240.565
20
-80.222
30
0
0
VERTEX
8
Halfen
62
7
10
 241.446
20
-80.811
30
0
0
VERTEX
8
Halfen
62
7
10
 242.371
20
-81.329
30
0
0
VERTEX
8
Halfen
62
7
10
 243.334
20
-81.772
30
0
0
VERTEX
8
Halfen
62
7
10
 244.328
20
-82.139
30
0
0
VERTEX
8
Halfen
62
7
10
 245.348
20
-82.427
30
0
0
VERTEX
8
Halfen
62
7
10
 246.388
20
-82.634
30
0
0
VERTEX
8
Halfen
62
7
10
 247.441
20
-82.758
30
0
0
VERTEX
8
Halfen
62
7
10
 248.5
20
-82.8
30
0
0
VERTEX
8
Halfen
62
7
10
 251.5
20
-82.8
30
0
0
VERTEX
8
Halfen
62
7
10
 252.559
20
-82.758
30
0
0
VERTEX
8
Halfen
62
7
10
 253.612
20
-82.634
30
0
0
VERTEX
8
Halfen
62
7
10
 254.652
20
-82.427
30
0
0
VERTEX
8
Halfen
62
7
10
 255.672
20
-82.139
30
0
0
VERTEX
8
Halfen
62
7
10
 256.666
20
-81.772
30
0
0
VERTEX
8
Halfen
62
7
10
 257.629
20
-81.329
30
0
0
VERTEX
8
Halfen
62
7
10
 258.554
20
-80.811
30
0
0
VERTEX
8
Halfen
62
7
10
 259.435
20
-80.222
30
0
0
VERTEX
8
Halfen
62
7
10
 260.268
20
-79.565
30
0
0
VERTEX
8
Halfen
62
7
10
 261.046
20
-78.846
30
0
0
VERTEX
8
Halfen
62
7
10
 261.765
20
-78.068
30
0
0
VERTEX
8
Halfen
62
7
10
 262.422
20
-77.235
30
0
0
VERTEX
8
Halfen
62
7
10
 263.011
20
-76.354
30
0
0
VERTEX
8
Halfen
62
7
10
 263.529
20
-75.429
30
0
0
VERTEX
8
Halfen
62
7
10
 263.972
20
-74.466
30
0
0
VERTEX
8
Halfen
62
7
10
 264.339
20
-73.472
30
0
0
VERTEX
8
Halfen
62
7
10
 264.627
20
-72.452
30
0
0
VERTEX
8
Halfen
62
7
10
 264.834
20
-71.412
30
0
0
VERTEX
8
Halfen
62
7
10
 264.958
20
-70.359
30
0
0
VERTEX
8
Halfen
62
7
10
 265
20
-69.3
30
0
0
SEQEND
8
Halfen
0
POLYLINE
8
Halfen
62
7
66
1
10
0.0
20
0.0
30
0.0
70
1
0
VERTEX
8
Halfen
62
7
10
 765
20
-69.3
30
0
0
VERTEX
8
Halfen
62
7
10
 765
20
-56.8
30
0
0
VERTEX
8
Halfen
62
7
10
 765
20
 69.3
30
0
0
VERTEX
8
Halfen
62
7
10
 764.958
20
 70.359
30
0
0
VERTEX
8
Halfen
62
7
10
 764.834
20
 71.412
30
0
0
VERTEX
8
Halfen
62
7
10
 764.627
20
 72.452
30
0
0
VERTEX
8
Halfen
62
7
10
 764.339
20
 73.472
30
0
0
VERTEX
8
Halfen
62
7
10
 763.972
20
 74.466
30
0
0
VERTEX
8
Halfen
62
7
10
 763.529
20
 75.429
30
0
0
VERTEX
8
Halfen
62
7
10
 763.011
20
 76.354
30
0
0
VERTEX
8
Halfen
62
7
10
 762.422
20
 77.235
30
0
0
VERTEX
8
Halfen
62
7
10
 761.765
20
 78.068
30
0
0
VERTEX
8
Halfen
62
7
10
 761.046
20
 78.846
30
0
0
VERTEX
8
Halfen
62
7
10
 760.268
20
 79.565
30
0
0
VERTEX
8
Halfen
62
7
10
 759.435
20
 80.222
30
0
0
VERTEX
8
Halfen
62
7
10
 758.554
20
 80.811
30
0
0
VERTEX
8
Halfen
62
7
10
 757.629
20
 81.329
30
0
0
VERTEX
8
Halfen
62
7
10
 756.666
20
 81.772
30
0
0
VERTEX
8
Halfen
62
7
10
 755.672
20
 82.139
30
0
0
VERTEX
8
Halfen
62
7
10
 754.652
20
 82.427
30
0
0
VERTEX
8
Halfen
62
7
10
 753.612
20
 82.634
30
0
0
VERTEX
8
Halfen
62
7
10
 752.559
20
 82.758
30
0
0
VERTEX
8
Halfen
62
7
10
 751.5
20
 82.8
30
0
0
VERTEX
8
Halfen
62
7
10
 748.5
20
 82.8
30
0
0
VERTEX
8
Halfen
62
7
10
 747.441
20
 82.758
30
0
0
VERTEX
8
Halfen
62
7
10
 746.388
20
 82.634
30
0
0
VERTEX
8
Halfen
62
7
10
 745.348
20
 82.427
30
0
0
VERTEX
8
Halfen
62
7
10
 744.328
20
 82.139
30
0
0
VERTEX
8
Halfen
62
7
10
 743.334
20
 81.772
30
0
0
VERTEX
8
Halfen
62
7
10
 742.371
20
 81.329
30
0
0
VERTEX
8
Halfen
62
7
10
 741.446
20
 80.811
30
0
0
VERTEX
8
Halfen
62
7
10
 740.565
20
 80.222
30
0
0
VERTEX
8
Halfen
62
7
10
 739.732
20
 79.565
30
0
0
VERTEX
8
Halfen
62
7
10
 738.954
20
 78.846
30
0
0
VERTEX
8
Halfen
62
7
10
 738.235
20
 78.068
30
0
0
VERTEX
8
Halfen
62
7
10
 737.578
20
 77.235
30
0
0
VERTEX
8
Halfen
62
7
10
 736.989
20
 76.354
30
0
0
VERTEX
8
Halfen
62
7
10
 736.471
20
 75.429
30
0
0
VERTEX
8
Halfen
62
7
10
 736.028
20
 74.466
30
0
0
VERTEX
8
Halfen
62
7
10
 735.661
20
 73.472
30
0
0
VERTEX
8
Halfen
62
7
10
 735.373
20
 72.452
30
0
0
VERTEX
8
Halfen
62
7
10
 735.166
20
 71.412
30
0
0
VERTEX
8
Halfen
62
7
10
 735.042
20
 70.359
30
0
0
VERTEX
8
Halfen
62
7
10
 735
20
 69.3
30
0
0
VERTEX
8
Halfen
62
7
10
 735
20
-56.8
30
0
0
VERTEX
8
Halfen
62
7
10
 735
20
-69.3
30
0
0
VERTEX
8
Halfen
62
7
10
 735.042
20
-70.359
30
0
0
VERTEX
8
Halfen
62
7
10
 735.166
20
-71.412
30
0
0
VERTEX
8
Halfen
62
7
10
 735.373
20
-72.452
30
0
0
VERTEX
8
Halfen
62
7
10
 735.661
20
-73.472
30
0
0
VERTEX
8
Halfen
62
7
10
 736.028
20
-74.466
30
0
0
VERTEX
8
Halfen
62
7
10
 736.471
20
-75.429
30
0
0
VERTEX
8
Halfen
62
7
10
 736.989
20
-76.354
30
0
0
VERTEX
8
Halfen
62
7
10
 737.578
20
-77.235
30
0
0
VERTEX
8
Halfen
62
7
10
 738.235
20
-78.068
30
0
0
VERTEX
8
Halfen
62
7
10
 738.954
20
-78.846
30
0
0
VERTEX
8
Halfen
62
7
10
 739.732
20
-79.565
30
0
0
VERTEX
8
Halfen
62
7
10
 740.565
20
-80.222
30
0
0
VERTEX
8
Halfen
62
7
10
 741.446
20
-80.811
30
0
0
VERTEX
8
Halfen
62
7
10
 742.371
20
-81.329
30
0
0
VERTEX
8
Halfen
62
7
10
 743.334
20
-81.772
30
0
0
VERTEX
8
Halfen
62
7
10
 744.328
20
-82.139
30
0
0
VERTEX
8
Halfen
62
7
10
 745.348
20
-82.427
30
0
0
VERTEX
8
Halfen
62
7
10
 746.388
20
-82.634
30
0
0
VERTEX
8
Halfen
62
7
10
 747.441
20
-82.758
30
0
0
VERTEX
8
Halfen
62
7
10
 748.5
20
-82.8
30
0
0
VERTEX
8
Halfen
62
7
10
 751.5
20
-82.8
30
0
0
VERTEX
8
Halfen
62
7
10
 752.559
20
-82.758
30
0
0
VERTEX
8
Halfen
62
7
10
 753.612
20
-82.634
30
0
0
VERTEX
8
Halfen
62
7
10
 754.652
20
-82.427
30
0
0
VERTEX
8
Halfen
62
7
10
 755.672
20
-82.139
30
0
0
VERTEX
8
Halfen
62
7
10
 756.666
20
-81.772
30
0
0
VERTEX
8
Halfen
62
7
10
 757.629
20
-81.329
30
0
0
VERTEX
8
Halfen
62
7
10
 758.554
20
-80.811
30
0
0
VERTEX
8
Halfen
62
7
10
 759.435
20
-80.222
30
0
0
VERTEX
8
Halfen
62
7
10
 760.268
20
-79.565
30
0
0
VERTEX
8
Halfen
62
7
10
 761.046
20
-78.846
30
0
0
VERTEX
8
Halfen
62
7
10
 761.765
20
-78.068
30
0
0
VERTEX
8
Halfen
62
7
10
 762.422
20
-77.235
30
0
0
VERTEX
8
Halfen
62
7
10
 763.011
20
-76.354
30
0
0
VERTEX
8
Halfen
62
7
10
 763.529
20
-75.429
30
0
0
VERTEX
8
Halfen
62
7
10
 763.972
20
-74.466
30
0
0
VERTEX
8
Halfen
62
7
10
 764.339
20
-73.472
30
0
0
VERTEX
8
Halfen
62
7
10
 764.627
20
-72.452
30
0
0
VERTEX
8
Halfen
62
7
10
 764.834
20
-71.412
30
0
0
VERTEX
8
Halfen
62
7
10
 764.958
20
-70.359
30
0
0
VERTEX
8
Halfen
62
7
10
 765
20
-69.3
30
0
0
SEQEND
8
Halfen
0
POLYLINE
8
Halfen
62
7
66
1
10
0.0
20
0.0
30
0.0
70
1
0
VERTEX
8
Halfen
62
7
10
 195
20
-697.88
30
0
0
VERTEX
8
Halfen
62
7
10
 195
20
 702.801
30
0
0
VERTEX
8
Halfen
62
7
10
 185
20
 702.801
30
0
0
VERTEX
8
Halfen
62
7
10
 185
20
-697.88
30
0
0
SEQEND
8
Halfen
0
POLYLINE
8
Halfen
62
7
66
1
10
0.0
20
0.0
30
0.0
70
1
0
VERTEX
8
Halfen
62
7
10
 325
20
-697.88
30
0
0
VERTEX
8
Halfen
62
7
10
 325
20
 702.801
30
0
0
VERTEX
8
Halfen
62
7
10
 315
20
 702.801
30
0
0
VERTEX
8
Halfen
62
7
10
 315
20
-697.88
30
0
0
SEQEND
8
Halfen
0
POLYLINE
8
Halfen
62
7
66
1
10
0.0
20
0.0
30
0.0
70
1
0
VERTEX
8
Halfen
62
7
10
 575
20
-697.88
30
0
0
VERTEX
8
Halfen
62
7
10
 575
20
 702.801
30
0
0
VERTEX
8
Halfen
62
7
10
 565
20
 702.801
30
0
0
VERTEX
8
Halfen
62
7
10
 565
20
-697.88
30
0
0
SEQEND
8
Halfen
0
POLYLINE
8
Halfen
62
7
66
1
10
0.0
20
0.0
30
0.0
70
1
0
VERTEX
8
Halfen
62
7
10
 695
20
-697.88
30
0
0
VERTEX
8
Halfen
62
7
10
 695
20
 702.801
30
0
0
VERTEX
8
Halfen
62
7
10
 685
20
 702.801
30
0
0
VERTEX
8
Halfen
62
7
10
 685
20
-697.88
30
0
0
SEQEND
8
Halfen
0
POLYLINE
8
Halfen
62
7
66
1
10
0.0
20
0.0
30
0.0
70
1
0
VERTEX
8
Halfen
62
7
10
 825
20
-697.88
30
0
0
VERTEX
8
Halfen
62
7
10
 825
20
 702.801
30
0
0
VERTEX
8
Halfen
62
7
10
 815
20
 702.801
30
0
0
VERTEX
8
Halfen
62
7
10
 815
20
-697.88
30
0
0
SEQEND
8
Halfen
0
POLYLINE
8
Halfen
62
7
66
1
10
0.0
20
0.0
30
0.0
70
1
0
VERTEX
8
Halfen
62
7
10
 1440
20
-60
30
0
0
VERTEX
8
Halfen
62
7
10
 1440
20
 60
30
0
0
VERTEX
8
Halfen
62
7
10
 1426.5
20
 73.5
30
0
0
VERTEX
8
Halfen
62
7
10
 1426.5
20
 60
30
0
0
VERTEX
8
Halfen
62
7
10
 1250
20
 60
30
0
0
VERTEX
8
Halfen
62
7
10
 1250
20
-60
30
0
0
VERTEX
8
Halfen
62
7
10
 1426.5
20
-60
30
0
0
VERTEX
8
Halfen
62
7
10
 1426.5
20
-73.5
30
0
0
SEQEND
8
Halfen
0
POLYLINE
8
Halfen
62
7
66
1
10
0.0
20
0.0
30
0.0
70
1
0
VERTEX
8
Halfen
62
7
10
 1250
20
-60
30
0
0
VERTEX
8
Halfen
62
7
10
 1250
20
 60
30
0
0
VERTEX
8
Halfen
62
7
10
 1213.5
20
 60
30
0
0
VERTEX
8
Halfen
62
7
10
 1213.5
20
 73.5
30
0
0
VERTEX
8
Halfen
62
7
10
 1200
20
 60
30
0
0
VERTEX
8
Halfen
62
7
10
 1200
20
-60
30
0
0
VERTEX
8
Halfen
62
7
10
 1213.5
20
-73.5
30
0
0
VERTEX
8
Halfen
62
7
10
 1213.5
20
-60
30
0
0
SEQEND
8
Halfen
0
POLYLINE
8
Halfen
62
7
66
1
10
0.0
20
0.0
30
0.0
70
1
0
VERTEX
8
Halfen
62
7
10
 1437.5
20
-58.75
30
0
0
VERTEX
8
Halfen
62
7
10
 1437.5
20
 58.75
30
0
0
VERTEX
8
Halfen
62
7
10
 1429
20
 67.25
30
0
0
VERTEX
8
Halfen
62
7
10
 1429
20
 58
30
0
0
VERTEX
8
Halfen
62
7
10
 1252
20
 58
30
0
0
VERTEX
8
Halfen
62
7
10
 1252
20
-58
30
0
0
VERTEX
8
Halfen
62
7
10
 1429
20
-58
30
0
0
VERTEX
8
Halfen
62
7
10
 1429
20
-67.25
30
0
0
SEQEND
8
Halfen
0
POLYLINE
8
Halfen
62
7
66
1
10
0.0
20
0.0
30
0.0
70
1
0
VERTEX
8
Halfen
62
7
10
 1248
20
-58
30
0
0
VERTEX
8
Halfen
62
7
10
 1248
20
 58
30
0
0
VERTEX
8
Halfen
62
7
10
 1211
20
 58
30
0
0
VERTEX
8
Halfen
62
7
10
 1211
20
 67.25
30
0
0
VERTEX
8
Halfen
62
7
10
 1202.5
20
 58.75
30
0
0
VERTEX
8
Halfen
62
7
10
 1202.5
20
-58.75
30
0
0
VERTEX
8
Halfen
62
7
10
 1211
20
-67.25
30
0
0
VERTEX
8
Halfen
62
7
10
 1211
20
-58
30
0
0
SEQEND
8
Halfen
0
POLYLINE
8
Halfen
62
7
66
1
10
0.0
20
0.0
30
0.0
70
1
0
VERTEX
8
Halfen
62
7
10
 1425
20
-81.8
30
0
0
VERTEX
8
Halfen
62
7
10
 1425
20
 81.8
30
0
0
VERTEX
8
Halfen
62
7
10
 1421
20
 81.8
30
0
0
VERTEX
8
Halfen
62
7
10
 1420.846
20
 81.797
30
0
0
VERTEX
8
Halfen
62
7
10
 1420.691
20
 81.786
30
0
0
VERTEX
8
Halfen
62
7
10
 1420.538
20
 81.769
30
0
0
VERTEX
8
Halfen
62
7
10
 1420.385
20
 81.746
30
0
0
VERTEX
8
Halfen
62
7
10
 1420.234
20
 81.715
30
0
0
VERTEX
8
Halfen
62
7
10
 1420.084
20
 81.678
30
0
0
VERTEX
8
Halfen
62
7
10
 1419.936
20
 81.634
30
0
0
VERTEX
8
Halfen
62
7
10
 1419.789
20
 81.584
30
0
0
VERTEX
8
Halfen
62
7
10
 1419.646
20
 81.527
30
0
0
VERTEX
8
Halfen
62
7
10
 1419.505
20
 81.464
30
0
0
VERTEX
8
Halfen
62
7
10
 1419.366
20
 81.395
30
0
0
VERTEX
8
Halfen
62
7
10
 1419.231
20
 81.32
30
0
0
VERTEX
8
Halfen
62
7
10
 1419.1
20
 81.239
30
0
0
VERTEX
8
Halfen
62
7
10
 1418.972
20
 81.153
30
0
0
VERTEX
8
Halfen
62
7
10
 1418.848
20
 81.06
30
0
0
VERTEX
8
Halfen
62
7
10
 1418.728
20
 80.963
30
0
0
VERTEX
8
Halfen
62
7
10
 1418.613
20
 80.86
30
0
0
VERTEX
8
Halfen
62
7
10
 1418.502
20
 80.752
30
0
0
VERTEX
8
Halfen
62
7
10
 1418.397
20
 80.639
30
0
0
VERTEX
8
Halfen
62
7
10
 1418.296
20
 80.522
30
0
0
VERTEX
8
Halfen
62
7
10
 1417.41
20
 79.491
30
0
0
VERTEX
8
Halfen
62
7
10
 1416.479
20
 78.5
30
0
0
VERTEX
8
Halfen
62
7
10
 1415.505
20
 77.551
30
0
0
VERTEX
8
Halfen
62
7
10
 1414.491
20
 76.646
30
0
0
VERTEX
8
Halfen
62
7
10
 1413.437
20
 75.787
30
0
0
VERTEX
8
Halfen
62
7
10
 1412.347
20
 74.975
30
0
0
VERTEX
8
Halfen
62
7
10
 1411.222
20
 74.211
30
0
0
VERTEX
8
Halfen
62
7
10
 1410.064
20
 73.499
30
0
0
VERTEX
8
Halfen
62
7
10
 1408.876
20
 72.838
30
0
0
VERTEX
8
Halfen
62
7
10
 1407.66
20
 72.23
30
0
0
VERTEX
8
Halfen
62
7
10
 1406.418
20
 71.676
30
0
0
VERTEX
8
Halfen
62
7
10
 1405.153
20
 71.178
30
0
0
VERTEX
8
Halfen
62
7
10
 1403.867
20
 70.736
30
0
0
VERTEX
8
Halfen
62
7
10
 1402.563
20
 70.351
30
0
0
VERTEX
8
Halfen
62
7
10
 1401.243
20
 70.024
30
0
0
VERTEX
8
Halfen
62
7
10
 1399.911
20
 69.756
30
0
0
VERTEX
8
Halfen
62
7
10
 1398.567
20
 69.547
30
0
0
VERTEX
8
Halfen
62
7
10
 1397.216
20
 69.397
30
0
0
VERTEX
8
Halfen
62
7
10
 1395.859
20
 69.307
30
0
0
VERTEX
8
Halfen
62
7
10
 1394.5
20
 69.277
30
0
0
VERTEX
8
Halfen
62
7
10
 1372.5
20
 69.277
30
0
0
VERTEX
8
Halfen
62
7
10
 1371.141
20
 69.307
30
0
0
VERTEX
8
Halfen
62
7
10
 1369.784
20
 69.397
30
0
0
VERTEX
8
Halfen
62
7
10
 1368.433
20
 69.547
30
0
0
VERTEX
8
Halfen
62
7
10
 1367.089
20
 69.756
30
0
0
VERTEX
8
Halfen
62
7
10
 1365.757
20
 70.024
30
0
0
VERTEX
8
Halfen
62
7
10
 1364.437
20
 70.351
30
0
0
VERTEX
8
Halfen
62
7
10
 1363.133
20
 70.736
30
0
0
VERTEX
8
Halfen
62
7
10
 1361.847
20
 71.178
30
0
0
VERTEX
8
Halfen
62
7
10
 1360.582
20
 71.676
30
0
0
VERTEX
8
Halfen
62
7
10
 1359.34
20
 72.23
30
0
0
VERTEX
8
Halfen
62
7
10
 1358.124
20
 72.838
30
0
0
VERTEX
8
Halfen
62
7
10
 1356.936
20
 73.499
30
0
0
VERTEX
8
Halfen
62
7
10
 1355.778
20
 74.211
30
0
0
VERTEX
8
Halfen
62
7
10
 1354.653
20
 74.975
30
0
0
VERTEX
8
Halfen
62
7
10
 1353.563
20
 75.787
30
0
0
VERTEX
8
Halfen
62
7
10
 1352.509
20
 76.646
30
0
0
VERTEX
8
Halfen
62
7
10
 1351.495
20
 77.551
30
0
0
VERTEX
8
Halfen
62
7
10
 1350.521
20
 78.5
30
0
0
VERTEX
8
Halfen
62
7
10
 1349.59
20
 79.491
30
0
0
VERTEX
8
Halfen
62
7
10
 1348.704
20
 80.522
30
0
0
VERTEX
8
Halfen
62
7
10
 1348.603
20
 80.639
30
0
0
VERTEX
8
Halfen
62
7
10
 1348.498
20
 80.752
30
0
0
VERTEX
8
Halfen
62
7
10
 1348.387
20
 80.86
30
0
0
VERTEX
8
Halfen
62
7
10
 1348.272
20
 80.963
30
0
0
VERTEX
8
Halfen
62
7
10
 1348.152
20
 81.06
30
0
0
VERTEX
8
Halfen
62
7
10
 1348.028
20
 81.153
30
0
0
VERTEX
8
Halfen
62
7
10
 1347.9
20
 81.239
30
0
0
VERTEX
8
Halfen
62
7
10
 1347.769
20
 81.32
30
0
0
VERTEX
8
Halfen
62
7
10
 1347.634
20
 81.395
30
0
0
VERTEX
8
Halfen
62
7
10
 1347.495
20
 81.464
30
0
0
VERTEX
8
Halfen
62
7
10
 1347.354
20
 81.527
30
0
0
VERTEX
8
Halfen
62
7
10
 1347.211
20
 81.584
30
0
0
VERTEX
8
Halfen
62
7
10
 1347.064
20
 81.634
30
0
0
VERTEX
8
Halfen
62
7
10
 1346.916
20
 81.678
30
0
0
VERTEX
8
Halfen
62
7
10
 1346.766
20
 81.715
30
0
0
VERTEX
8
Halfen
62
7
10
 1346.615
20
 81.746
30
0
0
VERTEX
8
Halfen
62
7
10
 1346.462
20
 81.769
30
0
0
VERTEX
8
Halfen
62
7
10
 1346.309
20
 81.786
30
0
0
VERTEX
8
Halfen
62
7
10
 1346.154
20
 81.797
30
0
0
VERTEX
8
Halfen
62
7
10
 1346
20
 81.8
30
0
0
VERTEX
8
Halfen
62
7
10
 1342
20
 81.8
30
0
0
VERTEX
8
Halfen
62
7
10
 1342
20
-81.8
30
0
0
VERTEX
8
Halfen
62
7
10
 1346
20
-81.8
30
0
0
VERTEX
8
Halfen
62
7
10
 1346.154
20
-81.797
30
0
0
VERTEX
8
Halfen
62
7
10
 1346.309
20
-81.786
30
0
0
VERTEX
8
Halfen
62
7
10
 1346.462
20
-81.769
30
0
0
VERTEX
8
Halfen
62
7
10
 1346.615
20
-81.746
30
0
0
VERTEX
8
Halfen
62
7
10
 1346.766
20
-81.715
30
0
0
VERTEX
8
Halfen
62
7
10
 1346.916
20
-81.678
30
0
0
VERTEX
8
Halfen
62
7
10
 1347.064
20
-81.634
30
0
0
VERTEX
8
Halfen
62
7
10
 1347.211
20
-81.584
30
0
0
VERTEX
8
Halfen
62
7
10
 1347.354
20
-81.527
30
0
0
VERTEX
8
Halfen
62
7
10
 1347.495
20
-81.464
30
0
0
VERTEX
8
Halfen
62
7
10
 1347.634
20
-81.395
30
0
0
VERTEX
8
Halfen
62
7
10
 1347.769
20
-81.32
30
0
0
VERTEX
8
Halfen
62
7
10
 1347.9
20
-81.239
30
0
0
VERTEX
8
Halfen
62
7
10
 1348.028
20
-81.153
30
0
0
VERTEX
8
Halfen
62
7
10
 1348.152
20
-81.06
30
0
0
VERTEX
8
Halfen
62
7
10
 1348.272
20
-80.963
30
0
0
VERTEX
8
Halfen
62
7
10
 1348.387
20
-80.86
30
0
0
VERTEX
8
Halfen
62
7
10
 1348.498
20
-80.752
30
0
0
VERTEX
8
Halfen
62
7
10
 1348.603
20
-80.639
30
0
0
VERTEX
8
Halfen
62
7
10
 1348.704
20
-80.522
30
0
0
VERTEX
8
Halfen
62
7
10
 1349.59
20
-79.491
30
0
0
VERTEX
8
Halfen
62
7
10
 1350.521
20
-78.5
30
0
0
VERTEX
8
Halfen
62
7
10
 1351.495
20
-77.551
30
0
0
VERTEX
8
Halfen
62
7
10
 1352.509
20
-76.646
30
0
0
VERTEX
8
Halfen
62
7
10
 1353.563
20
-75.787
30
0
0
VERTEX
8
Halfen
62
7
10
 1354.653
20
-74.975
30
0
0
VERTEX
8
Halfen
62
7
10
 1355.778
20
-74.211
30
0
0
VERTEX
8
Halfen
62
7
10
 1356.936
20
-73.499
30
0
0
VERTEX
8
Halfen
62
7
10
 1358.124
20
-72.838
30
0
0
VERTEX
8
Halfen
62
7
10
 1359.34
20
-72.23
30
0
0
VERTEX
8
Halfen
62
7
10
 1360.582
20
-71.676
30
0
0
VERTEX
8
Halfen
62
7
10
 1361.847
20
-71.178
30
0
0
VERTEX
8
Halfen
62
7
10
 1363.133
20
-70.736
30
0
0
VERTEX
8
Halfen
62
7
10
 1364.437
20
-70.351
30
0
0
VERTEX
8
Halfen
62
7
10
 1365.757
20
-70.024
30
0
0
VERTEX
8
Halfen
62
7
10
 1367.089
20
-69.756
30
0
0
VERTEX
8
Halfen
62
7
10
 1368.433
20
-69.547
30
0
0
VERTEX
8
Halfen
62
7
10
 1369.784
20
-69.397
30
0
0
VERTEX
8
Halfen
62
7
10
 1371.141
20
-69.307
30
0
0
VERTEX
8
Halfen
62
7
10
 1372.5
20
-69.277
30
0
0
VERTEX
8
Halfen
62
7
10
 1394.5
20
-69.277
30
0
0
VERTEX
8
Halfen
62
7
10
 1395.859
20
-69.307
30
0
0
VERTEX
8
Halfen
62
7
10
 1397.216
20
-69.397
30
0
0
VERTEX
8
Halfen
62
7
10
 1398.567
20
-69.547
30
0
0
VERTEX
8
Halfen
62
7
10
 1399.911
20
-69.756
30
0
0
VERTEX
8
Halfen
62
7
10
 1401.243
20
-70.024
30
0
0
VERTEX
8
Halfen
62
7
10
 1402.563
20
-70.351
30
0
0
VERTEX
8
Halfen
62
7
10
 1403.867
20
-70.736
30
0
0
VERTEX
8
Halfen
62
7
10
 1405.153
20
-71.178
30
0
0
VERTEX
8
Halfen
62
7
10
 1406.418
20
-71.676
30
0
0
VERTEX
8
Halfen
62
7
10
 1407.66
20
-72.23
30
0
0
VERTEX
8
Halfen
62
7
10
 1408.876
20
-72.838
30
0
0
VERTEX
8
Halfen
62
7
10
 1410.064
20
-73.499
30
0
0
VERTEX
8
Halfen
62
7
10
 1411.222
20
-74.211
30
0
0
VERTEX
8
Halfen
62
7
10
 1412.347
20
-74.975
30
0
0
VERTEX
8
Halfen
62
7
10
 1413.437
20
-75.787
30
0
0
VERTEX
8
Halfen
62
7
10
 1414.491
20
-76.646
30
0
0
VERTEX
8
Halfen
62
7
10
 1415.505
20
-77.551
30
0
0
VERTEX
8
Halfen
62
7
10
 1416.479
20
-78.5
30
0
0
VERTEX
8
Halfen
62
7
10
 1417.41
20
-79.491
30
0
0
VERTEX
8
Halfen
62
7
10
 1418.296
20
-80.522
30
0
0
VERTEX
8
Halfen
62
7
10
 1418.397
20
-80.639
30
0
0
VERTEX
8
Halfen
62
7
10
 1418.502
20
-80.752
30
0
0
VERTEX
8
Halfen
62
7
10
 1418.613
20
-80.86
30
0
0
VERTEX
8
Halfen
62
7
10
 1418.728
20
-80.963
30
0
0
VERTEX
8
Halfen
62
7
10
 1418.848
20
-81.06
30
0
0
VERTEX
8
Halfen
62
7
10
 1418.972
20
-81.153
30
0
0
VERTEX
8
Halfen
62
7
10
 1419.1
20
-81.239
30
0
0
VERTEX
8
Halfen
62
7
10
 1419.231
20
-81.32
30
0
0
VERTEX
8
Halfen
62
7
10
 1419.366
20
-81.395
30
0
0
VERTEX
8
Halfen
62
7
10
 1419.505
20
-81.464
30
0
0
VERTEX
8
Halfen
62
7
10
 1419.646
20
-81.527
30
0
0
VERTEX
8
Halfen
62
7
10
 1419.789
20
-81.584
30
0
0
VERTEX
8
Halfen
62
7
10
 1419.936
20
-81.634
30
0
0
VERTEX
8
Halfen
62
7
10
 1420.084
20
-81.678
30
0
0
VERTEX
8
Halfen
62
7
10
 1420.234
20
-81.715
30
0
0
VERTEX
8
Halfen
62
7
10
 1420.385
20
-81.746
30
0
0
VERTEX
8
Halfen
62
7
10
 1420.538
20
-81.769
30
0
0
VERTEX
8
Halfen
62
7
10
 1420.691
20
-81.786
30
0
0
VERTEX
8
Halfen
62
7
10
 1420.846
20
-81.797
30
0
0
VERTEX
8
Halfen
62
7
10
 1421
20
-81.8
30
0
0
SEQEND
8
Halfen
0
POLYLINE
8
Halfen
62
7
66
1
10
0.0
20
0.0
30
0.0
70
1
0
VERTEX
8
Halfen
62
7
10
 1410
20
-697.88
30
0
0
VERTEX
8
Halfen
62
7
10
 1410
20
-94.13
30
0
0
VERTEX
8
Halfen
62
7
10
 1409.466
20
-87.614
30
0
0
VERTEX
8
Halfen
62
7
10
 1407.877
20
-81.272
30
0
0
VERTEX
8
Halfen
62
7
10
 1405.277
20
-75.274
30
0
0
VERTEX
8
Halfen
62
7
10
 1401.734
20
-69.779
30
0
0
VERTEX
8
Halfen
62
7
10
 1286.199
20
 80.788
30
0
0
VERTEX
8
Halfen
62
7
10
 1283.542
20
 84.909
30
0
0
VERTEX
8
Halfen
62
7
10
 1281.592
20
 89.408
30
0
0
VERTEX
8
Halfen
62
7
10
 1280.401
20
 94.164
30
0
0
VERTEX
8
Halfen
62
7
10
 1280
20
 99.051
30
0
0
VERTEX
8
Halfen
62
7
10
 1280
20
 163.801
30
0
0
VERTEX
8
Halfen
62
7
10
 1280
20
 702.801
30
0
0
VERTEX
8
Halfen
62
7
10
 1270
20
 702.801
30
0
0
VERTEX
8
Halfen
62
7
10
 1270
20
 163.801
30
0
0
VERTEX
8
Halfen
62
7
10
 1270
20
 99.051
30
0
0
VERTEX
8
Halfen
62
7
10
 1270.534
20
 92.535
30
0
0
VERTEX
8
Halfen
62
7
10
 1272.123
20
 86.194
30
0
0
VERTEX
8
Halfen
62
7
10
 1274.723
20
 80.195
30
0
0
VERTEX
8
Halfen
62
7
10
 1278.266
20
 74.701
30
0
0
VERTEX
8
Halfen
62
7
10
 1393.801
20
-75.867
30
0
0
VERTEX
8
Halfen
62
7
10
 1396.458
20
-79.988
30
0
0
VERTEX
8
Halfen
62
7
10
 1398.408
20
-84.487
30
0
0
VERTEX
8
Halfen
62
7
10
 1399.599
20
-89.243
30
0
0
VERTEX
8
Halfen
62
7
10
 1400
20
-94.13
30
0
0
VERTEX
8
Halfen
62
7
10
 1400
20
-697.88
30
0
0
SEQEND
8
Halfen
0
ENDSEC
0
EOF
