0
SECTION
2
HEADER
9
$EXTMIN
10
 0
20
 100
30
0.0
9
$EXTMAX
10
 0
20
 100
30
0.0
9
$LIMMIN
10
 100
20
 0
9
$LIMMAX
10
 0
20
 100
9
$PSLTSCALE
70
1
0
ENDSEC
0
SECTION
2
TABLES
0
TABLE
2
LAYER
70
2
0
LAYER
2
0
70
0
62
7
6
CONTINUOUS
0
LAYER
2
Halfen
70
0
62
7
6
CONTINUOUS
0
ENDTAB
0
ENDSEC
0
SECTION
2
ENTITIES
0
POLYLINE
8
Halfen
62
7
66
1
10
0.0
20
0.0
30
0.0
70
1
0
VERTEX
8
Halfen
62
7
10
 0
20
-73.5
30
0
0
VERTEX
8
Halfen
62
7
10
 1000
20
-73.5
30
0
0
VERTEX
8
Halfen
62
7
10
 1000
20
 73.5
30
0
0
VERTEX
8
Halfen
62
7
10
 0
20
 73.5
30
0
0
SEQEND
8
Halfen
0
POLYLINE
8
Halfen
62
7
66
1
10
0.0
20
0.0
30
0.0
70
1
0
VERTEX
8
Halfen
62
7
10
 0
20
-60
30
0
0
VERTEX
8
Halfen
62
7
10
 1000
20
-60
30
0
0
VERTEX
8
Halfen
62
7
10
 1000
20
 60
30
0
0
VERTEX
8
Halfen
62
7
10
 0
20
 60
30
0
0
SEQEND
8
Halfen
0
POLYLINE
8
Halfen
62
7
66
1
10
0.0
20
0.0
30
0.0
70
1
0
VERTEX
8
Halfen
62
7
10
 20
20
-32.5
30
0
0
VERTEX
8
Halfen
62
7
10
 37
20
-1.5
30
0
0
VERTEX
8
Halfen
62
7
10
 28
20
-1.5
30
0
0
VERTEX
8
Halfen
62
7
10
 28
20
 32.5
30
0
0
VERTEX
8
Halfen
62
7
10
 12
20
 32.5
30
0
0
VERTEX
8
Halfen
62
7
10
 12
20
-1.5
30
0
0
VERTEX
8
Halfen
62
7
10
 3
20
-1.5
30
0
0
SEQEND
8
Halfen
0
POLYLINE
8
Halfen
62
7
66
1
10
0.0
20
0.0
30
0.0
70
1
0
VERTEX
8
Halfen
62
7
10
 980
20
-32.5
30
0
0
VERTEX
8
Halfen
62
7
10
 997
20
-1.5
30
0
0
VERTEX
8
Halfen
62
7
10
 988
20
-1.5
30
0
0
VERTEX
8
Halfen
62
7
10
 988
20
 32.5
30
0
0
VERTEX
8
Halfen
62
7
10
 972
20
 32.5
30
0
0
VERTEX
8
Halfen
62
7
10
 972
20
-1.5
30
0
0
VERTEX
8
Halfen
62
7
10
 963
20
-1.5
30
0
0
SEQEND
8
Halfen
0
POLYLINE
8
Halfen
62
7
66
1
10
0.0
20
0.0
30
0.0
70
1
0
VERTEX
8
Halfen
62
7
10
 195
20
-696.961
30
0
0
VERTEX
8
Halfen
62
7
10
 195
20
 705.246
30
0
0
VERTEX
8
Halfen
62
7
10
 185
20
 705.246
30
0
0
VERTEX
8
Halfen
62
7
10
 185
20
-696.961
30
0
0
SEQEND
8
Halfen
0
POLYLINE
8
Halfen
62
7
66
1
10
0.0
20
0.0
30
0.0
70
1
0
VERTEX
8
Halfen
62
7
10
 325
20
-696.961
30
0
0
VERTEX
8
Halfen
62
7
10
 325
20
 705.246
30
0
0
VERTEX
8
Halfen
62
7
10
 315
20
 705.246
30
0
0
VERTEX
8
Halfen
62
7
10
 315
20
-696.961
30
0
0
SEQEND
8
Halfen
0
POLYLINE
8
Halfen
62
7
66
1
10
0.0
20
0.0
30
0.0
70
1
0
VERTEX
8
Halfen
62
7
10
 575
20
-696.961
30
0
0
VERTEX
8
Halfen
62
7
10
 575
20
 705.246
30
0
0
VERTEX
8
Halfen
62
7
10
 565
20
 705.246
30
0
0
VERTEX
8
Halfen
62
7
10
 565
20
-696.961
30
0
0
SEQEND
8
Halfen
0
POLYLINE
8
Halfen
62
7
66
1
10
0.0
20
0.0
30
0.0
70
1
0
VERTEX
8
Halfen
62
7
10
 695
20
-696.961
30
0
0
VERTEX
8
Halfen
62
7
10
 695
20
 705.246
30
0
0
VERTEX
8
Halfen
62
7
10
 685
20
 705.246
30
0
0
VERTEX
8
Halfen
62
7
10
 685
20
-696.961
30
0
0
SEQEND
8
Halfen
0
POLYLINE
8
Halfen
62
7
66
1
10
0.0
20
0.0
30
0.0
70
1
0
VERTEX
8
Halfen
62
7
10
 825
20
-696.961
30
0
0
VERTEX
8
Halfen
62
7
10
 825
20
 705.246
30
0
0
VERTEX
8
Halfen
62
7
10
 815
20
 705.246
30
0
0
VERTEX
8
Halfen
62
7
10
 815
20
-696.961
30
0
0
SEQEND
8
Halfen
0
POLYLINE
8
Halfen
62
7
66
1
10
0.0
20
0.0
30
0.0
70
1
0
VERTEX
8
Halfen
62
7
10
 1450
20
-60
30
0
0
VERTEX
8
Halfen
62
7
10
 1450
20
 60
30
0
0
VERTEX
8
Halfen
62
7
10
 1436.5
20
 73.5
30
0
0
VERTEX
8
Halfen
62
7
10
 1436.5
20
 60
30
0
0
VERTEX
8
Halfen
62
7
10
 1250
20
 60
30
0
0
VERTEX
8
Halfen
62
7
10
 1250
20
-60
30
0
0
VERTEX
8
Halfen
62
7
10
 1436.5
20
-60
30
0
0
VERTEX
8
Halfen
62
7
10
 1436.5
20
-73.5
30
0
0
SEQEND
8
Halfen
0
POLYLINE
8
Halfen
62
7
66
1
10
0.0
20
0.0
30
0.0
70
1
0
VERTEX
8
Halfen
62
7
10
 1250
20
-60
30
0
0
VERTEX
8
Halfen
62
7
10
 1250
20
 60
30
0
0
VERTEX
8
Halfen
62
7
10
 1213.5
20
 60
30
0
0
VERTEX
8
Halfen
62
7
10
 1213.5
20
 73.5
30
0
0
VERTEX
8
Halfen
62
7
10
 1200
20
 60
30
0
0
VERTEX
8
Halfen
62
7
10
 1200
20
-60
30
0
0
VERTEX
8
Halfen
62
7
10
 1213.5
20
-73.5
30
0
0
VERTEX
8
Halfen
62
7
10
 1213.5
20
-60
30
0
0
SEQEND
8
Halfen
0
POLYLINE
8
Halfen
62
7
66
1
10
0.0
20
0.0
30
0.0
70
1
0
VERTEX
8
Halfen
62
7
10
 1447.5
20
-58.75
30
0
0
VERTEX
8
Halfen
62
7
10
 1447.5
20
 58.75
30
0
0
VERTEX
8
Halfen
62
7
10
 1439
20
 67.25
30
0
0
VERTEX
8
Halfen
62
7
10
 1439
20
 58
30
0
0
VERTEX
8
Halfen
62
7
10
 1252
20
 58
30
0
0
VERTEX
8
Halfen
62
7
10
 1252
20
-58
30
0
0
VERTEX
8
Halfen
62
7
10
 1439
20
-58
30
0
0
VERTEX
8
Halfen
62
7
10
 1439
20
-67.25
30
0
0
SEQEND
8
Halfen
0
POLYLINE
8
Halfen
62
7
66
1
10
0.0
20
0.0
30
0.0
70
1
0
VERTEX
8
Halfen
62
7
10
 1248
20
-58
30
0
0
VERTEX
8
Halfen
62
7
10
 1248
20
 58
30
0
0
VERTEX
8
Halfen
62
7
10
 1211
20
 58
30
0
0
VERTEX
8
Halfen
62
7
10
 1211
20
 67.25
30
0
0
VERTEX
8
Halfen
62
7
10
 1202.5
20
 58.75
30
0
0
VERTEX
8
Halfen
62
7
10
 1202.5
20
-58.75
30
0
0
VERTEX
8
Halfen
62
7
10
 1211
20
-67.25
30
0
0
VERTEX
8
Halfen
62
7
10
 1211
20
-58
30
0
0
SEQEND
8
Halfen
0
POLYLINE
8
Halfen
62
7
66
1
10
0.0
20
0.0
30
0.0
70
1
0
VERTEX
8
Halfen
62
7
10
 1420
20
-696.961
30
0
0
VERTEX
8
Halfen
62
7
10
 1420
20
-95.355
30
0
0
VERTEX
8
Halfen
62
7
10
 1419.508
20
-89.098
30
0
0
VERTEX
8
Halfen
62
7
10
 1418.042
20
-82.995
30
0
0
VERTEX
8
Halfen
62
7
10
 1415.64
20
-77.196
30
0
0
VERTEX
8
Halfen
62
7
10
 1412.361
20
-71.844
30
0
0
VERTEX
8
Halfen
62
7
10
 1408.284
20
-67.071
30
0
0
VERTEX
8
Halfen
62
7
10
 1258.787
20
 82.426
30
0
0
VERTEX
8
Halfen
62
7
10
 1255.729
20
 86.006
30
0
0
VERTEX
8
Halfen
62
7
10
 1253.27
20
 90.02
30
0
0
VERTEX
8
Halfen
62
7
10
 1251.468
20
 94.369
30
0
0
VERTEX
8
Halfen
62
7
10
 1250.369
20
 98.947
30
0
0
VERTEX
8
Halfen
62
7
10
 1250
20
 103.64
30
0
0
VERTEX
8
Halfen
62
7
10
 1250
20
 166.246
30
0
0
VERTEX
8
Halfen
62
7
10
 1250
20
 705.246
30
0
0
VERTEX
8
Halfen
62
7
10
 1240
20
 705.246
30
0
0
VERTEX
8
Halfen
62
7
10
 1240
20
 166.246
30
0
0
VERTEX
8
Halfen
62
7
10
 1240
20
 103.64
30
0
0
VERTEX
8
Halfen
62
7
10
 1240.492
20
 97.382
30
0
0
VERTEX
8
Halfen
62
7
10
 1241.958
20
 91.279
30
0
0
VERTEX
8
Halfen
62
7
10
 1244.36
20
 85.48
30
0
0
VERTEX
8
Halfen
62
7
10
 1247.639
20
 80.128
30
0
0
VERTEX
8
Halfen
62
7
10
 1251.716
20
 75.355
30
0
0
VERTEX
8
Halfen
62
7
10
 1401.213
20
-74.142
30
0
0
VERTEX
8
Halfen
62
7
10
 1404.271
20
-77.722
30
0
0
VERTEX
8
Halfen
62
7
10
 1406.73
20
-81.736
30
0
0
VERTEX
8
Halfen
62
7
10
 1408.532
20
-86.085
30
0
0
VERTEX
8
Halfen
62
7
10
 1409.631
20
-90.662
30
0
0
VERTEX
8
Halfen
62
7
10
 1410
20
-95.355
30
0
0
VERTEX
8
Halfen
62
7
10
 1410
20
-696.961
30
0
0
SEQEND
8
Halfen
0
ENDSEC
0
EOF
