0
SECTION
2
HEADER
9
$EXTMIN
10
 0
20
 100
30
0.0
9
$EXTMAX
10
 0
20
 100
30
0.0
9
$LIMMIN
10
 100
20
 0
9
$LIMMAX
10
 0
20
 100
9
$PSLTSCALE
70
1
0
ENDSEC
0
SECTION
2
TABLES
0
TABLE
2
LAYER
70
2
0
LAYER
2
0
70
0
62
7
6
CONTINUOUS
0
LAYER
2
Halfen
70
0
62
7
6
CONTINUOUS
0
ENDTAB
0
ENDSEC
0
SECTION
2
ENTITIES
0
POLYLINE
8
Halfen
62
7
66
1
10
0.0
20
0.0
30
0.0
70
1
0
VERTEX
8
Halfen
62
7
10
 0
20
-73.5
30
0
0
VERTEX
8
Halfen
62
7
10
 1000
20
-73.5
30
0
0
VERTEX
8
Halfen
62
7
10
 1000
20
 73.5
30
0
0
VERTEX
8
Halfen
62
7
10
 0
20
 73.5
30
0
0
SEQEND
8
Halfen
0
POLYLINE
8
Halfen
62
7
66
1
10
0.0
20
0.0
30
0.0
70
1
0
VERTEX
8
Halfen
62
7
10
 0
20
-60
30
0
0
VERTEX
8
Halfen
62
7
10
 1000
20
-60
30
0
0
VERTEX
8
Halfen
62
7
10
 1000
20
 60
30
0
0
VERTEX
8
Halfen
62
7
10
 0
20
 60
30
0
0
SEQEND
8
Halfen
0
POLYLINE
8
Halfen
62
7
66
1
10
0.0
20
0.0
30
0.0
70
1
0
VERTEX
8
Halfen
62
7
10
 20
20
-32.5
30
0
0
VERTEX
8
Halfen
62
7
10
 37
20
-1.5
30
0
0
VERTEX
8
Halfen
62
7
10
 28
20
-1.5
30
0
0
VERTEX
8
Halfen
62
7
10
 28
20
 32.5
30
0
0
VERTEX
8
Halfen
62
7
10
 12
20
 32.5
30
0
0
VERTEX
8
Halfen
62
7
10
 12
20
-1.5
30
0
0
VERTEX
8
Halfen
62
7
10
 3
20
-1.5
30
0
0
SEQEND
8
Halfen
0
POLYLINE
8
Halfen
62
7
66
1
10
0.0
20
0.0
30
0.0
70
1
0
VERTEX
8
Halfen
62
7
10
 980
20
-32.5
30
0
0
VERTEX
8
Halfen
62
7
10
 997
20
-1.5
30
0
0
VERTEX
8
Halfen
62
7
10
 988
20
-1.5
30
0
0
VERTEX
8
Halfen
62
7
10
 988
20
 32.5
30
0
0
VERTEX
8
Halfen
62
7
10
 972
20
 32.5
30
0
0
VERTEX
8
Halfen
62
7
10
 972
20
-1.5
30
0
0
VERTEX
8
Halfen
62
7
10
 963
20
-1.5
30
0
0
SEQEND
8
Halfen
0
POLYLINE
8
Halfen
62
7
66
1
10
0.0
20
0.0
30
0.0
70
1
0
VERTEX
8
Halfen
62
7
10
 87
20
-454.728
30
0
0
VERTEX
8
Halfen
62
7
10
 87
20
 216.629
30
0
0
VERTEX
8
Halfen
62
7
10
 81
20
 216.629
30
0
0
VERTEX
8
Halfen
62
7
10
 81
20
-454.728
30
0
0
SEQEND
8
Halfen
0
POLYLINE
8
Halfen
62
7
66
1
10
0.0
20
0.0
30
0.0
70
1
0
VERTEX
8
Halfen
62
7
10
 173
20
-454.728
30
0
0
VERTEX
8
Halfen
62
7
10
 173
20
 216.629
30
0
0
VERTEX
8
Halfen
62
7
10
 167
20
 216.629
30
0
0
VERTEX
8
Halfen
62
7
10
 167
20
-454.728
30
0
0
SEQEND
8
Halfen
0
POLYLINE
8
Halfen
62
7
66
1
10
0.0
20
0.0
30
0.0
70
1
0
VERTEX
8
Halfen
62
7
10
 259
20
-454.728
30
0
0
VERTEX
8
Halfen
62
7
10
 259
20
 216.629
30
0
0
VERTEX
8
Halfen
62
7
10
 253
20
 216.629
30
0
0
VERTEX
8
Halfen
62
7
10
 253
20
-454.728
30
0
0
SEQEND
8
Halfen
0
POLYLINE
8
Halfen
62
7
66
1
10
0.0
20
0.0
30
0.0
70
1
0
VERTEX
8
Halfen
62
7
10
 345
20
-454.728
30
0
0
VERTEX
8
Halfen
62
7
10
 345
20
 216.629
30
0
0
VERTEX
8
Halfen
62
7
10
 339
20
 216.629
30
0
0
VERTEX
8
Halfen
62
7
10
 339
20
-454.728
30
0
0
SEQEND
8
Halfen
0
POLYLINE
8
Halfen
62
7
66
1
10
0.0
20
0.0
30
0.0
70
1
0
VERTEX
8
Halfen
62
7
10
 431
20
-454.728
30
0
0
VERTEX
8
Halfen
62
7
10
 431
20
 216.629
30
0
0
VERTEX
8
Halfen
62
7
10
 425
20
 216.629
30
0
0
VERTEX
8
Halfen
62
7
10
 425
20
-454.728
30
0
0
SEQEND
8
Halfen
0
POLYLINE
8
Halfen
62
7
66
1
10
0.0
20
0.0
30
0.0
70
1
0
VERTEX
8
Halfen
62
7
10
 509
20
-454.728
30
0
0
VERTEX
8
Halfen
62
7
10
 509
20
 216.629
30
0
0
VERTEX
8
Halfen
62
7
10
 503
20
 216.629
30
0
0
VERTEX
8
Halfen
62
7
10
 503
20
-454.728
30
0
0
SEQEND
8
Halfen
0
POLYLINE
8
Halfen
62
7
66
1
10
0.0
20
0.0
30
0.0
70
1
0
VERTEX
8
Halfen
62
7
10
 587
20
-454.728
30
0
0
VERTEX
8
Halfen
62
7
10
 587
20
 216.629
30
0
0
VERTEX
8
Halfen
62
7
10
 581
20
 216.629
30
0
0
VERTEX
8
Halfen
62
7
10
 581
20
-454.728
30
0
0
SEQEND
8
Halfen
0
POLYLINE
8
Halfen
62
7
66
1
10
0.0
20
0.0
30
0.0
70
1
0
VERTEX
8
Halfen
62
7
10
 673
20
-454.728
30
0
0
VERTEX
8
Halfen
62
7
10
 673
20
 216.629
30
0
0
VERTEX
8
Halfen
62
7
10
 667
20
 216.629
30
0
0
VERTEX
8
Halfen
62
7
10
 667
20
-454.728
30
0
0
SEQEND
8
Halfen
0
POLYLINE
8
Halfen
62
7
66
1
10
0.0
20
0.0
30
0.0
70
1
0
VERTEX
8
Halfen
62
7
10
 759
20
-454.728
30
0
0
VERTEX
8
Halfen
62
7
10
 759
20
 216.629
30
0
0
VERTEX
8
Halfen
62
7
10
 753
20
 216.629
30
0
0
VERTEX
8
Halfen
62
7
10
 753
20
-454.728
30
0
0
SEQEND
8
Halfen
0
POLYLINE
8
Halfen
62
7
66
1
10
0.0
20
0.0
30
0.0
70
1
0
VERTEX
8
Halfen
62
7
10
 845
20
-454.728
30
0
0
VERTEX
8
Halfen
62
7
10
 845
20
 216.629
30
0
0
VERTEX
8
Halfen
62
7
10
 839
20
 216.629
30
0
0
VERTEX
8
Halfen
62
7
10
 839
20
-454.728
30
0
0
SEQEND
8
Halfen
0
POLYLINE
8
Halfen
62
7
66
1
10
0.0
20
0.0
30
0.0
70
1
0
VERTEX
8
Halfen
62
7
10
 931
20
-454.728
30
0
0
VERTEX
8
Halfen
62
7
10
 931
20
 216.629
30
0
0
VERTEX
8
Halfen
62
7
10
 925
20
 216.629
30
0
0
VERTEX
8
Halfen
62
7
10
 925
20
-454.728
30
0
0
SEQEND
8
Halfen
0
POLYLINE
8
Halfen
62
7
66
1
10
0.0
20
0.0
30
0.0
70
1
0
VERTEX
8
Halfen
62
7
10
 1410
20
-60
30
0
0
VERTEX
8
Halfen
62
7
10
 1410
20
 60
30
0
0
VERTEX
8
Halfen
62
7
10
 1396.5
20
 73.5
30
0
0
VERTEX
8
Halfen
62
7
10
 1396.5
20
 60
30
0
0
VERTEX
8
Halfen
62
7
10
 1250
20
 60
30
0
0
VERTEX
8
Halfen
62
7
10
 1250
20
-60
30
0
0
VERTEX
8
Halfen
62
7
10
 1396.5
20
-60
30
0
0
VERTEX
8
Halfen
62
7
10
 1396.5
20
-73.5
30
0
0
SEQEND
8
Halfen
0
POLYLINE
8
Halfen
62
7
66
1
10
0.0
20
0.0
30
0.0
70
1
0
VERTEX
8
Halfen
62
7
10
 1250
20
-60
30
0
0
VERTEX
8
Halfen
62
7
10
 1250
20
 60
30
0
0
VERTEX
8
Halfen
62
7
10
 1213.5
20
 60
30
0
0
VERTEX
8
Halfen
62
7
10
 1213.5
20
 73.5
30
0
0
VERTEX
8
Halfen
62
7
10
 1200
20
 60
30
0
0
VERTEX
8
Halfen
62
7
10
 1200
20
-60
30
0
0
VERTEX
8
Halfen
62
7
10
 1213.5
20
-73.5
30
0
0
VERTEX
8
Halfen
62
7
10
 1213.5
20
-60
30
0
0
SEQEND
8
Halfen
0
POLYLINE
8
Halfen
62
7
66
1
10
0.0
20
0.0
30
0.0
70
1
0
VERTEX
8
Halfen
62
7
10
 1407.5
20
-58.75
30
0
0
VERTEX
8
Halfen
62
7
10
 1407.5
20
 58.75
30
0
0
VERTEX
8
Halfen
62
7
10
 1399
20
 67.25
30
0
0
VERTEX
8
Halfen
62
7
10
 1399
20
 58
30
0
0
VERTEX
8
Halfen
62
7
10
 1252
20
 58
30
0
0
VERTEX
8
Halfen
62
7
10
 1252
20
-58
30
0
0
VERTEX
8
Halfen
62
7
10
 1399
20
-58
30
0
0
VERTEX
8
Halfen
62
7
10
 1399
20
-67.25
30
0
0
SEQEND
8
Halfen
0
POLYLINE
8
Halfen
62
7
66
1
10
0.0
20
0.0
30
0.0
70
1
0
VERTEX
8
Halfen
62
7
10
 1248
20
-58
30
0
0
VERTEX
8
Halfen
62
7
10
 1248
20
 58
30
0
0
VERTEX
8
Halfen
62
7
10
 1211
20
 58
30
0
0
VERTEX
8
Halfen
62
7
10
 1211
20
 67.25
30
0
0
VERTEX
8
Halfen
62
7
10
 1202.5
20
 58.75
30
0
0
VERTEX
8
Halfen
62
7
10
 1202.5
20
-58.75
30
0
0
VERTEX
8
Halfen
62
7
10
 1211
20
-67.25
30
0
0
VERTEX
8
Halfen
62
7
10
 1211
20
-58
30
0
0
SEQEND
8
Halfen
0
POLYLINE
8
Halfen
62
7
66
1
10
0.0
20
0.0
30
0.0
70
1
0
VERTEX
8
Halfen
62
7
10
 1380
20
-454.728
30
0
0
VERTEX
8
Halfen
62
7
10
 1380
20
-80.478
30
0
0
VERTEX
8
Halfen
62
7
10
 1379.679
20
-76.568
30
0
0
VERTEX
8
Halfen
62
7
10
 1378.726
20
-72.763
30
0
0
VERTEX
8
Halfen
62
7
10
 1377.166
20
-69.164
30
0
0
VERTEX
8
Halfen
62
7
10
 1375.04
20
-65.868
30
0
0
VERTEX
8
Halfen
62
7
10
 1259.72
20
 84.421
30
0
0
VERTEX
8
Halfen
62
7
10
 1258.125
20
 86.894
30
0
0
VERTEX
8
Halfen
62
7
10
 1256.955
20
 89.593
30
0
0
VERTEX
8
Halfen
62
7
10
 1256.24
20
 92.447
30
0
0
VERTEX
8
Halfen
62
7
10
 1256
20
 95.379
30
0
0
VERTEX
8
Halfen
62
7
10
 1256
20
 192.629
30
0
0
VERTEX
8
Halfen
62
7
10
 1256.222
20
 195.445
30
0
0
VERTEX
8
Halfen
62
7
10
 1256.881
20
 198.191
30
0
0
VERTEX
8
Halfen
62
7
10
 1257.962
20
 200.801
30
0
0
VERTEX
8
Halfen
62
7
10
 1259.438
20
 203.209
30
0
0
VERTEX
8
Halfen
62
7
10
 1261.272
20
 205.357
30
0
0
VERTEX
8
Halfen
62
7
10
 1263.42
20
 207.191
30
0
0
VERTEX
8
Halfen
62
7
10
 1265.828
20
 208.667
30
0
0
VERTEX
8
Halfen
62
7
10
 1268.438
20
 209.748
30
0
0
VERTEX
8
Halfen
62
7
10
 1271.184
20
 210.407
30
0
0
VERTEX
8
Halfen
62
7
10
 1274
20
 210.629
30
0
0
VERTEX
8
Halfen
62
7
10
 1345
20
 210.629
30
0
0
VERTEX
8
Halfen
62
7
10
 1345
20
 216.629
30
0
0
VERTEX
8
Halfen
62
7
10
 1274
20
 216.629
30
0
0
VERTEX
8
Halfen
62
7
10
 1270.246
20
 216.333
30
0
0
VERTEX
8
Halfen
62
7
10
 1266.584
20
 215.454
30
0
0
VERTEX
8
Halfen
62
7
10
 1263.104
20
 214.013
30
0
0
VERTEX
8
Halfen
62
7
10
 1259.893
20
 212.045
30
0
0
VERTEX
8
Halfen
62
7
10
 1257.029
20
 209.599
30
0
0
VERTEX
8
Halfen
62
7
10
 1254.584
20
 206.736
30
0
0
VERTEX
8
Halfen
62
7
10
 1252.616
20
 203.525
30
0
0
VERTEX
8
Halfen
62
7
10
 1251.175
20
 200.045
30
0
0
VERTEX
8
Halfen
62
7
10
 1250.295
20
 196.383
30
0
0
VERTEX
8
Halfen
62
7
10
 1250
20
 192.629
30
0
0
VERTEX
8
Halfen
62
7
10
 1250
20
 95.379
30
0
0
VERTEX
8
Halfen
62
7
10
 1250.321
20
 91.47
30
0
0
VERTEX
8
Halfen
62
7
10
 1251.274
20
 87.665
30
0
0
VERTEX
8
Halfen
62
7
10
 1252.834
20
 84.066
30
0
0
VERTEX
8
Halfen
62
7
10
 1254.96
20
 80.769
30
0
0
VERTEX
8
Halfen
62
7
10
 1370.28
20
-69.52
30
0
0
VERTEX
8
Halfen
62
7
10
 1371.875
20
-71.993
30
0
0
VERTEX
8
Halfen
62
7
10
 1373.045
20
-74.692
30
0
0
VERTEX
8
Halfen
62
7
10
 1373.76
20
-77.546
30
0
0
VERTEX
8
Halfen
62
7
10
 1374
20
-80.478
30
0
0
VERTEX
8
Halfen
62
7
10
 1374
20
-454.728
30
0
0
SEQEND
8
Halfen
0
ENDSEC
0
EOF
