  0
SECTION
  2
HEADER
  9
$ACADVER
  1
AC1032
  9
$ACADMAINTVER
 90
4
  9
$DWGCODEPAGE
  3
ANSI_1252
  9
$LASTSAVEDBY
  1
ezdxf
  9
$REQUIREDVERSIONS
160
0
  9
$INSBASE
 10
0.0
 20
0.0
 30
0.0
  9
$EXTMIN
 10
1e+20
 20
1e+20
 30
1e+20
  9
$EXTMAX
 10
-1e+20
 20
-1e+20
 30
-1e+20
  9
$LIMMIN
 10
0.0
 20
0.0
  9
$LIMMAX
 10
420.0
 20
297.0
  9
$ORTHOMODE
 70
0
  9
$REGENMODE
 70
1
  9
$FILLMODE
 70
1
  9
$QTEXTMODE
 70
0
  9
$MIRRTEXT
 70
1
  9
$LTSCALE
 40
1.0
  9
$ATTMODE
 70
1
  9
$TEXTSIZE
 40
2.5
  9
$TRACEWID
 40
1.0
  9
$TEXTSTYLE
  7
Standard
  9
$CLAYER
  8
0
  9
$CELTYPE
  6
ByLayer
  9
$CECOLOR
 62
256
  9
$CELTSCALE
 40
1.0
  9
$DISPSILH
 70
0
  9
$DIMSCALE
 40
1.0
  9
$DIMASZ
 40
2.5
  9
$DIMEXO
 40
0.625
  9
$DIMDLI
 40
3.75
  9
$DIMRND
 40
0.0
  9
$DIMDLE
 40
0.0
  9
$DIMEXE
 40
1.25
  9
$DIMTP
 40
0.0
  9
$DIMTM
 40
0.0
  9
$DIMTXT
 40
2.5
  9
$DIMCEN
 40
2.5
  9
$DIMTSZ
 40
0.0
  9
$DIMTOL
 70
0
  9
$DIMLIM
 70
0
  9
$DIMTIH
 70
0
  9
$DIMTOH
 70
0
  9
$DIMSE1
 70
0
  9
$DIMSE2
 70
0
  9
$DIMTAD
 70
1
  9
$DIMZIN
 70
8
  9
$DIMBLK
  1

  9
$DIMASO
 70
1
  9
$DIMSHO
 70
1
  9
$DIMPOST
  1

  9
$DIMAPOST
  1

  9
$DIMALT
 70
0
  9
$DIMALTD
 70
3
  9
$DIMALTF
 40
0.03937007874
  9
$DIMLFAC
 40
1.0
  9
$DIMTOFL
 70
1
  9
$DIMTVP
 40
0.0
  9
$DIMTIX
 70
0
  9
$DIMSOXD
 70
0
  9
$DIMSAH
 70
0
  9
$DIMBLK1
  1

  9
$DIMBLK2
  1

  9
$DIMSTYLE
  2
ISO-25
  9
$DIMCLRD
 70
0
  9
$DIMCLRE
 70
0
  9
$DIMCLRT
 70
0
  9
$DIMTFAC
 40
1.0
  9
$DIMGAP
 40
0.625
  9
$DIMJUST
 70
0
  9
$DIMSD1
 70
0
  9
$DIMSD2
 70
0
  9
$DIMTOLJ
 70
0
  9
$DIMTZIN
 70
8
  9
$DIMALTZ
 70
0
  9
$DIMALTTZ
 70
0
  9
$DIMUPT
 70
0
  9
$DIMDEC
 70
2
  9
$DIMTDEC
 70
2
  9
$DIMALTU
 70
2
  9
$DIMALTTD
 70
3
  9
$DIMTXSTY
  7
Standard
  9
$DIMAUNIT
 70
0
  9
$DIMADEC
 70
0
  9
$DIMALTRND
 40
0.0
  9
$DIMAZIN
 70
0
  9
$DIMDSEP
 70
44
  9
$DIMATFIT
 70
3
  9
$DIMFRAC
 70
0
  9
$DIMLDRBLK
  1

  9
$DIMLUNIT
 70
2
  9
$DIMLWD
 70
-2
  9
$DIMLWE
 70
-2
  9
$DIMTMOVE
 70
0
  9
$DIMFXL
 40
1.0
  9
$DIMFXLON
 70
0
  9
$DIMJOGANG
 40
0.785398163397
  9
$DIMTFILL
 70
0
  9
$DIMTFILLCLR
 70
0
  9
$DIMARCSYM
 70
0
  9
$DIMLTYPE
  6

  9
$DIMLTEX1
  6

  9
$DIMLTEX2
  6

  9
$DIMTXTDIRECTION
 70
0
  9
$LUNITS
 70
2
  9
$LUPREC
 70
4
  9
$SKETCHINC
 40
1.0
  9
$FILLETRAD
 40
10.0
  9
$AUNITS
 70
0
  9
$AUPREC
 70
2
  9
$MENU
  1
.
  9
$ELEVATION
 40
0.0
  9
$PELEVATION
 40
0.0
  9
$THICKNESS
 40
0.0
  9
$LIMCHECK
 70
0
  9
$CHAMFERA
 40
0.0
  9
$CHAMFERB
 40
0.0
  9
$CHAMFERC
 40
0.0
  9
$CHAMFERD
 40
0.0
  9
$SKPOLY
 70
0
  9
$TDCREATE
 40
2461085.245972222
  9
$TDUCREATE
 40
2458532.153996898
  9
$TDUPDATE
 40
2461085.245972222
  9
$TDUUPDATE
 40
2458532.1544311
  9
$TDINDWG
 40
0.0
  9
$TDUSRTIMER
 40
0.0
  9
$USRTIMER
 70
1
  9
$ANGBASE
 50
0.0
  9
$ANGDIR
 70
0
  9
$PDMODE
 70
0
  9
$PDSIZE
 40
0.0
  9
$PLINEWID
 40
0.0
  9
$SPLFRAME
 70
0
  9
$SPLINETYPE
 70
6
  9
$SPLINESEGS
 70
8
  9
$HANDSEED
  5
92
  9
$SURFTAB1
 70
6
  9
$SURFTAB2
 70
6
  9
$SURFTYPE
 70
6
  9
$SURFU
 70
6
  9
$SURFV
 70
6
  9
$UCSBASE
  2

  9
$UCSNAME
  2

  9
$UCSORG
 10
0.0
 20
0.0
 30
0.0
  9
$UCSXDIR
 10
1.0
 20
0.0
 30
0.0
  9
$UCSYDIR
 10
0.0
 20
1.0
 30
0.0
  9
$UCSORTHOREF
  2

  9
$UCSORTHOVIEW
 70
0
  9
$UCSORGTOP
 10
0.0
 20
0.0
 30
0.0
  9
$UCSORGBOTTOM
 10
0.0
 20
0.0
 30
0.0
  9
$UCSORGLEFT
 10
0.0
 20
0.0
 30
0.0
  9
$UCSORGRIGHT
 10
0.0
 20
0.0
 30
0.0
  9
$UCSORGFRONT
 10
0.0
 20
0.0
 30
0.0
  9
$UCSORGBACK
 10
0.0
 20
0.0
 30
0.0
  9
$PUCSBASE
  2

  9
$PUCSNAME
  2

  9
$PUCSORG
 10
0.0
 20
0.0
 30
0.0
  9
$PUCSXDIR
 10
1.0
 20
0.0
 30
0.0
  9
$PUCSYDIR
 10
0.0
 20
1.0
 30
0.0
  9
$PUCSORTHOREF
  2

  9
$PUCSORTHOVIEW
 70
0
  9
$PUCSORGTOP
 10
0.0
 20
0.0
 30
0.0
  9
$PUCSORGBOTTOM
 10
0.0
 20
0.0
 30
0.0
  9
$PUCSORGLEFT
 10
0.0
 20
0.0
 30
0.0
  9
$PUCSORGRIGHT
 10
0.0
 20
0.0
 30
0.0
  9
$PUCSORGFRONT
 10
0.0
 20
0.0
 30
0.0
  9
$PUCSORGBACK
 10
0.0
 20
0.0
 30
0.0
  9
$USERI1
 70
0
  9
$USERI2
 70
0
  9
$USERI3
 70
0
  9
$USERI4
 70
0
  9
$USERI5
 70
0
  9
$USERR1
 40
0.0
  9
$USERR2
 40
0.0
  9
$USERR3
 40
0.0
  9
$USERR4
 40
0.0
  9
$USERR5
 40
0.0
  9
$WORLDVIEW
 70
1
  9
$SHADEDGE
 70
3
  9
$SHADEDIF
 70
70
  9
$TILEMODE
 70
1
  9
$MAXACTVP
 70
64
  9
$PINSBASE
 10
0.0
 20
0.0
 30
0.0
  9
$PLIMCHECK
 70
0
  9
$PEXTMIN
 10
1e+20
 20
1e+20
 30
1e+20
  9
$PEXTMAX
 10
-1e+20
 20
-1e+20
 30
-1e+20
  9
$PLIMMIN
 10
0.0
 20
0.0
  9
$PLIMMAX
 10
420.0
 20
297.0
  9
$UNITMODE
 70
0
  9
$VISRETAIN
 70
1
  9
$PLINEGEN
 70
0
  9
$PSLTSCALE
 70
1
  9
$TREEDEPTH
 70
3020
  9
$CMLSTYLE
  2
Standard
  9
$CMLJUST
 70
0
  9
$CMLSCALE
 40
20.0
  9
$PROXYGRAPHICS
 70
1
  9
$MEASUREMENT
 70
1
  9
$CELWEIGHT
370
-1
  9
$ENDCAPS
280
0
  9
$JOINSTYLE
280
0
  9
$LWDISPLAY
290
0
  9
$INSUNITS
 70
6
  9
$HYPERLINKBASE
  1

  9
$STYLESHEET
  1

  9
$XEDIT
290
1
  9
$CEPSNTYPE
380
0
  9
$PSTYLEMODE
290
1
  9
$FINGERPRINTGUID
  2
{C8F1B2B4-9922-4941-842A-94F210BB3D1B}
  9
$VERSIONGUID
  2
{B6C53F05-E9AB-431C-9DDD-D4DFE521E438}
  9
$EXTNAMES
290
1
  9
$PSVPSCALE
 40
0.0
  9
$OLESTARTUP
290
0
  9
$SORTENTS
280
127
  9
$INDEXCTL
280
0
  9
$HIDETEXT
280
1
  9
$XCLIPFRAME
280
1
  9
$HALOGAP
280
0
  9
$OBSCOLOR
 70
257
  9
$OBSLTYPE
280
0
  9
$INTERSECTIONDISPLAY
280
0
  9
$INTERSECTIONCOLOR
 70
257
  9
$DIMASSOC
280
2
  9
$PROJECTNAME
  1

  9
$CAMERADISPLAY
290
0
  9
$LENSLENGTH
 40
50.0
  9
$CAMERAHEIGHT
 40
0.0
  9
$STEPSPERSEC
 40
24.0
  9
$STEPSIZE
 40
100.0
  9
$3DDWFPREC
 40
2.0
  9
$PSOLWIDTH
 40
0.005
  9
$PSOLHEIGHT
 40
0.08
  9
$LOFTANG1
 40
1.570796326795
  9
$LOFTANG2
 40
1.570796326795
  9
$LOFTMAG1
 40
0.0
  9
$LOFTMAG2
 40
0.0
  9
$LOFTPARAM
 70
7
  9
$LOFTNORMALS
280
1
  9
$LATITUDE
 40
37.795
  9
$LONGITUDE
 40
-122.394
  9
$NORTHDIRECTION
 40
0.0
  9
$TIMEZONE
 70
-8000
  9
$LIGHTGLYPHDISPLAY
280
1
  9
$TILEMODELIGHTSYNCH
280
1
  9
$CMATERIAL
347
20
  9
$SOLIDHIST
280
0
  9
$SHOWHIST
280
1
  9
$DWFFRAME
280
2
  9
$DGNFRAME
280
2
  9
$REALWORLDSCALE
290
1
  9
$INTERFERECOLOR
 62
256
  9
$CSHADOW
280
0
  9
$SHADOWPLANELOCATION
 40
0.0
  0
ENDSEC
  0
SECTION
  2
CLASSES
  0
CLASS
  1
ACDBDICTIONARYWDFLT
  2
AcDbDictionaryWithDefault
  3
ObjectDBX Classes
 90
0
 91
0
280
0
281
0
  0
CLASS
  1
SUN
  2
AcDbSun
  3
SCENEOE
 90
1153
 91
0
280
0
281
0
  0
CLASS
  1
VISUALSTYLE
  2
AcDbVisualStyle
  3
ObjectDBX Classes
 90
4095
 91
0
280
0
281
0
  0
CLASS
  1
MATERIAL
  2
AcDbMaterial
  3
ObjectDBX Classes
 90
1153
 91
0
280
0
281
0
  0
CLASS
  1
SCALE
  2
AcDbScale
  3
ObjectDBX Classes
 90
1153
 91
0
280
0
281
0
  0
CLASS
  1
TABLESTYLE
  2
AcDbTableStyle
  3
ObjectDBX Classes
 90
4095
 91
0
280
0
281
0
  0
CLASS
  1
MLEADERSTYLE
  2
AcDbMLeaderStyle
  3
ACDB_MLEADERSTYLE_CLASS
 90
4095
 91
0
280
0
281
0
  0
CLASS
  1
DICTIONARYVAR
  2
AcDbDictionaryVar
  3
ObjectDBX Classes
 90
0
 91
0
280
0
281
0
  0
CLASS
  1
CELLSTYLEMAP
  2
AcDbCellStyleMap
  3
ObjectDBX Classes
 90
1152
 91
0
280
0
281
0
  0
CLASS
  1
MENTALRAYRENDERSETTINGS
  2
AcDbMentalRayRenderSettings
  3
SCENEOE
 90
1024
 91
0
280
0
281
0
  0
CLASS
  1
ACDBDETAILVIEWSTYLE
  2
AcDbDetailViewStyle
  3
ObjectDBX Classes
 90
1025
 91
0
280
0
281
0
  0
CLASS
  1
ACDBSECTIONVIEWSTYLE
  2
AcDbSectionViewStyle
  3
ObjectDBX Classes
 90
1025
 91
0
280
0
281
0
  0
CLASS
  1
RASTERVARIABLES
  2
AcDbRasterVariables
  3
ISM
 90
0
 91
0
280
0
281
0
  0
CLASS
  1
LAYOUT
  2
AcDbLayout
  3
ObjectDBX Classes
 90
0
 91
0
280
0
281
0
  0
CLASS
  1
ACDBPLACEHOLDER
  2
AcDbPlaceHolder
  3
ObjectDBX Classes
 90
0
 91
0
280
0
281
0
  0
ENDSEC
  0
SECTION
  2
TABLES
  0
TABLE
  2
VPORT
  5
8
330
0
100
AcDbSymbolTable
 70
1
  0
VPORT
  5
23
330
8
100
AcDbSymbolTableRecord
100
AcDbViewportTableRecord
  2
*Active
 70
0
 10
0.0
 20
0.0
 11
1.0
 21
1.0
 12
0.0
 22
0.0
 13
0.0
 23
0.0
 14
0.5
 24
0.5
 15
0.5
 25
0.5
 16
0.0
 26
0.0
 36
1.0
 17
0.0
 27
0.0
 37
0.0
 40
1000.0
 41
1.34
 42
50.0
 43
0.0
 44
0.0
 50
0.0
 51
0.0
 71
0
 72
1000
 73
1
 74
3
 75
0
 76
0
 77
0
 78
0
281
0
 65
0
146
0.0
  0
ENDTAB
  0
TABLE
  2
LTYPE
  5
2
330
0
100
AcDbSymbolTable
 70
3
  0
LTYPE
  5
24
330
2
100
AcDbSymbolTableRecord
100
AcDbLinetypeTableRecord
  2
ByBlock
 70
0
  3

 72
65
 73
0
 40
0.0
  0
LTYPE
  5
25
330
2
100
AcDbSymbolTableRecord
100
AcDbLinetypeTableRecord
  2
ByLayer
 70
0
  3

 72
65
 73
0
 40
0.0
  0
LTYPE
  5
26
330
2
100
AcDbSymbolTableRecord
100
AcDbLinetypeTableRecord
  2
Continuous
 70
0
  3

 72
65
 73
0
 40
0.0
  0
ENDTAB
  0
TABLE
  2
LAYER
  5
1
330
0
100
AcDbSymbolTable
 70
3
  0
LAYER
  5
27
330
1
100
AcDbSymbolTableRecord
100
AcDbLayerTableRecord
  2
0
 70
0
 62
7
  6
Continuous
370
-3
390
13
347
21
  0
LAYER
  5
28
330
1
100
AcDbSymbolTableRecord
100
AcDbLayerTableRecord
  2
Defpoints
 70
0
 62
7
  6
Continuous
290
0
370
-3
390
13
347
21
  0
LAYER
  5
8C
330
1
100
AcDbSymbolTableRecord
100
AcDbLayerTableRecord
  2
A-DETL-GENF
 70
0
 62
92
  6
Continuous
370
18
390
13
347
21
348
0
  0
ENDTAB
  0
TABLE
  2
STYLE
  5
5
330
0
100
AcDbSymbolTable
 70
1
  0
STYLE
  5
29
330
5
100
AcDbSymbolTableRecord
100
AcDbTextStyleTableRecord
  2
Standard
 70
0
 40
0.0
 41
1.0
 50
0.0
 71
0
 42
2.5
  3
txt
  4

  0
ENDTAB
  0
TABLE
  2
VIEW
  5
7
330
0
100
AcDbSymbolTable
 70
0
  0
ENDTAB
  0
TABLE
  2
UCS
  5
6
330
0
100
AcDbSymbolTable
 70
0
  0
ENDTAB
  0
TABLE
  2
APPID
  5
3
330
0
100
AcDbSymbolTable
 70
3
  0
APPID
  5
2A
330
3
100
AcDbSymbolTableRecord
100
AcDbRegAppTableRecord
  2
ACAD
 70
0
  0
APPID
  5
8F
330
3
100
AcDbSymbolTableRecord
100
AcDbRegAppTableRecord
  2
HATCHBACKGROUNDCOLOR
 70
0
  0
APPID
  5
90
330
3
100
AcDbSymbolTableRecord
100
AcDbRegAppTableRecord
  2
EZDXF
 70
0
  0
ENDTAB
  0
TABLE
  2
DIMSTYLE
  5
4
330
0
100
AcDbSymbolTable
 70
1
100
AcDbDimStyleTable
  0
DIMSTYLE
105
2B
330
4
100
AcDbSymbolTableRecord
100
AcDbDimStyleTableRecord
  2
Standard
 70
0
 40
1.0
 41
2.5
 42
0.625
 43
3.75
 44
1.25
 45
0.0
 46
0.0
 47
0.0
 48
0.0
 49
2.5
140
2.5
141
2.5
142
0.0
143
0.03937007874
144
1.0
145
0.0
146
1.0
147
0.625
148
0.0
 69
0
 70
0
 71
0
 72
0
 73
0
 74
0
 75
0
 76
0
 77
1
 78
8
 79
3
170
0
171
3
172
1
173
0
174
0
175
0
176
0
177
0
178
0
179
2
271
2
272
2
273
2
274
3
275
0
276
0
277
2
278
44
279
0
280
0
281
0
282
0
283
0
284
8
285
0
286
0
288
0
289
3
290
0
371
-2
372
-2
  0
ENDTAB
  0
TABLE
  2
BLOCK_RECORD
  5
9
330
0
100
AcDbSymbolTable
 70
3
  0
BLOCK_RECORD
  5
17
330
9
100
AcDbSymbolTableRecord
100
AcDbBlockTableRecord
  2
*Model_Space
340
1A
 70
0
280
1
281
0
  0
BLOCK_RECORD
  5
1B
330
9
100
AcDbSymbolTableRecord
100
AcDbBlockTableRecord
  2
*Paper_Space
340
1E
 70
0
280
1
281
0
  0
BLOCK_RECORD
  5
2F
330
9
100
AcDbSymbolTableRecord
100
AcDbBlockTableRecord
  2
31 Schuco voeg glas - 31 g Schuco voeg glas e-1414640-00_0 Basismaterialen
340
0
 70
0
280
1
281
0
  0
ENDTAB
  0
ENDSEC
  0
SECTION
  2
BLOCKS
  0
BLOCK
  5
18
330
17
100
AcDbEntity
  8
0
100
AcDbBlockBegin
  2
*Model_Space
 70
0
 10
0.0
 20
0.0
 30
0.0
  3
*Model_Space
  1

  0
ENDBLK
  5
19
330
17
100
AcDbEntity
  8
0
100
AcDbBlockEnd
  0
BLOCK
  5
1C
330
1B
100
AcDbEntity
  8
0
100
AcDbBlockBegin
  2
*Paper_Space
 70
0
 10
0.0
 20
0.0
 30
0.0
  3
*Paper_Space
  1

  0
ENDBLK
  5
1D
330
1B
100
AcDbEntity
  8
0
100
AcDbBlockEnd
  0
BLOCK
  5
30
330
2F
100
AcDbEntity
  8
0
100
AcDbBlockBegin
  2
31 Schuco voeg glas - 31 g Schuco voeg glas e-1414640-00_0 Basismaterialen
 70
0
 10
0.0
 20
0.0
 30
0.0
  3
31 Schuco voeg glas - 31 g Schuco voeg glas e-1414640-00_0 Basismaterialen
  1

  0
HATCH
  5
32
330
2F
100
AcDbEntity
  8
A-DETL-GENF
100
AcDbHatch
 10
0.0
 20
0.0
 30
0.0
210
0.0
220
0.0
230
1.0
  2
SOLID
 70
1
 71
0
 91
1
 92
1
 93
57
 72
1
 10
8.213774262477228
 20
-9.486574176679955
 11
8.462871791404416
 21
-9.472405979068089
 72
1
 10
8.462871791404416
 20
-9.472405979068089
 11
8.700708627207883
 21
-9.397013961760155
 72
1
 10
8.700708627207883
 20
-9.397013961760155
 11
8.912479132326496
 21
-9.265091371194018
 72
1
 10
8.912479132326496
 20
-9.265091371194018
 11
9.085000330562185
 21
-9.084850552008465
 72
1
 10
9.085000330562185
 20
-9.084850552008465
 11
9.207532563664405
 21
-8.867511718406837
 72
1
 10
9.207532563664405
 20
-8.867511718406837
 11
10.79403385912402
 21
-4.989054342385702
 72
1
 10
10.79403385912402
 20
-4.989054342385702
 11
10.82414768459056
 21
-3.140435303669369
 72
1
 10
10.82414768459056
 20
-3.140435303669369
 11
10.91267547603101
 21
-2.911545633562212
 72
1
 10
10.91267547603101
 20
-2.911545633562212
 11
11.05428541252105
 21
-2.711110415034119
 72
1
 10
11.05428541252105
 20
-2.711110415034119
 11
11.24044866023149
 21
-2.55120139045967
 72
1
 10
11.24044866023149
 20
-2.55120139045967
 11
11.45995304406928
 21
-2.441449504758276
 72
1
 10
11.45995304406928
 20
-2.441449504758276
 11
11.69957833061892
 21
-2.388464856185624
 72
1
 10
11.69957833061892
 20
-2.388464856185624
 11
11.94489245177071
 21
-2.395438585665249
 72
1
 10
11.94489245177071
 20
-2.395438585665249
 11
12.36481036600159
 21
-2.567243106418607
 72
1
 10
12.36481036600159
 20
-2.567243106418607
 11
13.1295084241741
 21
-2.998532683962997
 72
1
 10
13.1295084241741
 20
-2.998532683962997
 11
13.94693834861049
 21
-3.209648266777481
 72
1
 10
13.94693834861049
 20
-3.209648266777481
 11
14.7911649394778
 21
-3.203095866991685
 72
1
 10
14.7911649394778
 20
-3.203095866991685
 11
15.60521946906836
 21
-2.979317642997449
 72
1
 10
15.60521946906836
 20
-2.979317642997449
 11
16.33416923169342
 21
-2.553414233477485
 72
1
 10
16.33416923169342
 20
-2.553414233477485
 11
16.92882442335005
 21
-1.954125760612152
 72
1
 10
16.92882442335005
 20
-1.954125760612152
 11
17.34905748815695
 21
-1.221892435833263
 72
1
 10
17.34905748815695
 20
-1.221892435833263
 11
17.56651094093121
 21
-0.4061256391623715
 72
1
 10
17.56651094093121
 20
-0.4061256391623715
 11
17.56651094093121
 21
0.4381263792963296
 72
1
 10
17.56651094093121
 20
0.4381263792963296
 11
17.34905748815695
 21
1.25389317596722
 72
1
 10
17.34905748815695
 20
1.25389317596722
 11
16.92882442335005
 21
1.986126500743944
 72
1
 10
16.92882442335005
 20
1.986126500743944
 11
16.2961918464633
 21
2.607604016921982
 72
1
 10
16.2961918464633
 20
2.607604016921982
 11
15.60521946906836
 21
3.011318383131407
 72
1
 10
15.60521946906836
 20
3.011318383131407
 11
14.79116493948213
 21
3.235096607125643
 72
1
 10
14.79116493948213
 20
3.235096607125643
 11
13.94693834861049
 21
3.241649006913604
 72
1
 10
13.94693834861049
 20
3.241649006913604
 11
12.94579692137848
 21
2.926987389422447
 72
1
 10
12.94579692137848
 20
2.926987389422447
 11
11.94489245177504
 21
2.427439325799207
 72
1
 10
11.94489245177504
 20
2.427439325799207
 11
11.69957833062325
 21
2.420465596321747
 72
1
 10
11.69957833062325
 20
2.420465596321747
 11
11.45995304406928
 21
2.473450244892234
 72
1
 10
11.45995304406928
 20
2.473450244892234
 11
11.24044866023582
 21
2.583202130595793
 72
1
 10
11.24044866023582
 20
2.583202130595793
 11
11.05428541252105
 21
2.743111155168077
 72
1
 10
11.05428541252105
 20
2.743111155168077
 11
10.91267547603535
 21
2.943546373698336
 72
1
 10
10.91267547603535
 20
2.943546373698336
 11
10.82414768459489
 21
3.172436043805493
 72
1
 10
10.82414768459489
 20
3.172436043805493
 11
10.79403385912402
 21
3.415994678334652
 72
1
 10
10.79403385912402
 20
3.415994678334652
 11
10.79403385912402
 21
5.02105508251966
 72
1
 10
10.79403385912402
 20
5.02105508251966
 11
9.08499932522401
 21
9.116853033459904
 72
1
 10
9.08499932522401
 20
9.116853033459904
 11
8.912476692163386
 21
9.297095262445334
 72
1
 10
8.912476692163386
 20
9.297095262445334
 11
8.700704426129562
 21
9.429018828822024
 72
1
 10
8.700704426129562
 20
9.429018828822024
 11
8.462865630223973
 21
9.504411316440809
 72
1
 10
8.462865630223973
 20
9.504411316440809
 11
8.213766083443193
 21
9.51857944342375
 72
1
 10
8.213766083443193
 20
9.51857944342375
 11
7.968912561397167
 21
9.470641225168936
 72
1
 10
7.968912561397167
 20
9.470641225168936
 11
7.743547519050139
 21
9.363580879038347
 72
1
 10
7.743547519050139
 20
9.363580879038347
 11
7.551700227761876
 21
9.204063052901226
 72
1
 10
7.551700227761876
 20
9.204063052901226
 11
7.405313434674781
 21
9.002017942006006
 72
1
 10
7.405313434674781
 20
9.002017942006006
 11
7.313499910886992
 21
8.770023121209324
 72
1
 10
7.313499910886992
 20
8.770023121209324
 11
6.482619670261408
 21
4.393010421942455
 72
1
 10
6.482619670261408
 20
4.393010421942455
 11
6.205661995357774
 21
0.0159981792773412
 72
1
 10
6.205661995357774
 20
0.0159981792773408
 11
6.482626886184755
 21
-4.361013606792517
 72
1
 10
6.482626886184755
 20
-4.361013606792517
 11
7.405327489991248
 21
-8.970017743766915
 72
1
 10
7.405327489991248
 20
-8.970017743766915
 11
7.551713386563983
 21
-9.172061021370252
 72
1
 10
7.551713386563983
 20
-9.172061021370252
 11
7.743559329097923
 21
-9.331577324842417
 72
1
 10
7.743559329097923
 20
-9.331577324842417
 11
7.968922670091763
 21
-9.43863656674091
 72
1
 10
7.968922670091763
 20
-9.43863656674091
 11
8.213774262477228
 21
-9.486574176679955
 97
0
 75
0
 76
1
 98
1
 10
0.0
 20
0.0
450
0
451
0
460
0.0
461
0.0
452
0
462
0.0
453
0
470

  0
ARC
  5
33
330
2F
100
AcDbEntity
  8
A-DETL-GENF
100
AcDbCircle
 10
41.34606895322058
 20
0.0160271454402715
 30
0.0
 40
35.14040695785879
100
AcDbArc
 50
165.5748623138369
 51
194.4252321437464
  0
ARC
  5
34
330
2F
100
AcDbEntity
  8
A-DETL-GENF
100
AcDbCircle
 10
8.281980721490157
 20
-8.488910368880452
 30
0.0
 40
0.9999925971933691
100
AcDbArc
 50
194.4252321437459
 51
337.7527525938251
  0
LINE
  5
35
330
2F
100
AcDbEntity
  8
A-DETL-GENF
100
AcDbLine
 10
9.20753256367917
 20
-8.867511718407831
 30
0.0
 11
10.79403385913702
 21
-4.989054342385998
 31
0.0
  0
LINE
  5
36
330
2F
100
AcDbEntity
  8
A-DETL-GENF
100
AcDbLine
 10
10.79403385913702
 20
-4.989054342385998
 30
0.0
 11
10.79403385913701
 21
-3.38399393820069
 31
0.0
  0
ARC
  5
37
330
2F
100
AcDbEntity
  8
A-DETL-GENF
100
AcDbCircle
 10
11.79403385913679
 20
-3.383993938200694
 30
0.0
 40
1.000000000000136
100
AcDbArc
 50
53.12997446716067
 51
180.0000000000001
  0
ARC
  5
38
330
2F
100
AcDbEntity
  8
A-DETL-GENF
100
AcDbCircle
 10
14.34404144809862
 20
0.016000370066979
 30
0.0
 40
3.249999999999908
100
AcDbArc
 50
233.1299744671596
 51
126.8700255328156
  0
ARC
  5
39
330
2F
100
AcDbEntity
  8
A-DETL-GENF
100
AcDbCircle
 10
11.79403385913895
 20
3.415994678334652
 30
0.0
 40
1.00000000000036
100
AcDbArc
 50
180.0000000000001
 51
306.8700255328164
  0
LINE
  5
3A
330
2F
100
AcDbEntity
  8
A-DETL-GENF
100
AcDbLine
 10
10.79403385913702
 20
3.41599467833465
 30
0.0
 11
10.79403385913701
 21
5.021055082519994
 31
0.0
  0
LINE
  5
3B
330
2F
100
AcDbEntity
  8
A-DETL-GENF
100
AcDbLine
 10
10.79403385913701
 20
5.021055082519988
 30
0.0
 11
9.207532563679152
 21
8.899512458541803
 31
0.0
  0
ARC
  5
3C
330
2F
100
AcDbEntity
  8
A-DETL-GENF
100
AcDbCircle
 10
8.281973869758849
 20
8.520908306281399
 30
0.0
 40
1.000000000000069
100
AcDbArc
 50
22.247247406174
 51
165.5748623138497
  0
ARC
  5
3D
330
2F
100
AcDbEntity
  8
A-DETL-GENF
100
AcDbCircle
 10
21.50323235718708
 20
3.010240994833322
 30
0.0
 40
2.000000000000023
100
AcDbArc
 50
87.795575112177
 51
115.0007600007172
  0
LINE
  5
3E
330
2F
100
AcDbEntity
  8
A-DETL-GENF
100
AcDbLine
 10
20.65797179031443
 20
4.822845357093554
 30
0.0
 11
18.25660635426228
 21
3.703031484851307
 31
0.0
  0
LINE
  5
3F
330
2F
100
AcDbEntity
  8
A-DETL-GENF
100
AcDbLine
 10
18.25660635426228
 20
3.703031484851306
 30
0.0
 11
17.64702343842015
 21
5.010240996002363
 31
0.0
  0
LINE
  5
40
330
2F
100
AcDbEntity
  8
A-DETL-GENF
100
AcDbLine
 10
17.64702343842015
 20
5.010240996002363
 30
0.0
 11
11.89832116342961
 21
5.010240996002364
 31
0.0
  0
ARC
  5
41
330
2F
100
AcDbEntity
  8
A-DETL-GENF
100
AcDbCircle
 10
11.94909787907611
 20
4.008553955771737
 30
0.0
 40
1.002973180806865
100
AcDbArc
 50
92.90190780101481
 51
190.0195483727715
  0
ARC
  5
42
330
2F
100
AcDbEntity
  8
A-DETL-GENF
100
AcDbCircle
 10
11.9460257765731
 20
3.659829271654307
 30
0.0
 40
0.9998995599934886
100
AcDbArc
 50
169.9655236300705
 51
270.0057556557176
  0
LINE
  5
43
330
2F
100
AcDbEntity
  8
A-DETL-GENF
100
AcDbLine
 10
11.94612622162611
 20
2.659929716705928
 30
0.0
 11
12.36481036601676
 21
3.710726225495204
 31
0.0
  0
LINE
  5
44
330
2F
100
AcDbEntity
  8
A-DETL-GENF
100
AcDbLine
 10
12.36481036601676
 20
3.710726225495204
 30
0.0
 11
15.58908734284785
 21
3.710726225495204
 31
0.0
  0
ARC
  5
45
330
2F
100
AcDbEntity
  8
A-DETL-GENF
100
AcDbCircle
 10
15.58908734284785
 20
2.71072622549543
 30
0.0
 40
1.000000000000008
100
AcDbArc
 50
45.00018454665751
 51
90.00000000000006
  0
LINE
  5
46
330
2F
100
AcDbEntity
  8
A-DETL-GENF
100
AcDbLine
 10
16.29619184647842
 20
3.41783528423264
 30
0.0
 11
18.99818692945486
 21
0.7158576071649434
 31
0.0
  0
ARC
  5
47
330
2F
100
AcDbEntity
  8
A-DETL-GENF
100
AcDbCircle
 10
18.29144572066899
 20
0.0091118456127504
 30
0.0
 40
0.9994863522874553
100
AcDbArc
 50
314.9998153657457
 51
45.00018454665752
  0
LINE
  5
48
330
2F
100
AcDbEntity
  8
A-DETL-GENF
100
AcDbLine
 10
18.9981869283749
 20
-0.6976339170204936
 30
0.0
 11
16.29747358367925
 21
-3.398329855806307
 31
0.0
  0
ARC
  5
49
330
2F
100
AcDbEntity
  8
A-DETL-GENF
100
AcDbCircle
 10
15.59036908113082
 20
-2.691220795989123
 30
0.0
 40
0.9999999999999989
100
AcDbArc
 50
269.9999999999997
 51
314.9998153657459
  0
LINE
  5
4A
330
2F
100
AcDbEntity
  8
A-DETL-GENF
100
AcDbLine
 10
15.59036908113082
 20
-3.691220795988897
 30
0.0
 11
12.3562826905154
 21
-3.691220795988896
 31
0.0
  0
LINE
  5
4B
330
2F
100
AcDbEntity
  8
A-DETL-GENF
100
AcDbLine
 10
12.3562826905154
 20
-3.691220795988896
 30
0.0
 11
11.9461262216233
 21
-2.640424287200148
 31
0.0
  0
ARC
  5
4C
330
2F
100
AcDbEntity
  8
A-DETL-GENF
100
AcDbCircle
 10
11.9460317180333
 20
-3.640329783610372
 30
0.0
 40
0.9999055008761112
100
AcDbArc
 50
89.99458483140779
 51
190.0979967868309
  0
ARC
  5
4D
330
2F
100
AcDbEntity
  8
A-DETL-GENF
100
AcDbCircle
 10
11.94607944023242
 20
-3.990965453357678
 30
0.0
 40
0.9999532197017833
100
AcDbArc
 50
169.9022458876574
 51
269.9999999999993
  0
LINE
  5
4E
330
2F
100
AcDbEntity
  8
A-DETL-GENF
100
AcDbLine
 10
11.94607944023241
 20
-4.990918671966288
 30
0.0
 11
17.64702343842015
 21
-4.990918671966291
 31
0.0
  0
LINE
  5
4F
330
2F
100
AcDbEntity
  8
A-DETL-GENF
100
AcDbLine
 10
17.64702343842015
 20
-4.990918671966291
 30
0.0
 11
18.37038688400642
 21
-3.73801869293201
 31
0.0
  0
LINE
  5
50
330
2F
100
AcDbEntity
  8
A-DETL-GENF
100
AcDbLine
 10
18.37038688400642
 20
-3.73801869293201
 30
0.0
 11
20.65878662175228
 21
-4.803902583539551
 31
0.0
  0
ARC
  5
51
330
2F
100
AcDbEntity
  8
A-DETL-GENF
100
AcDbCircle
 10
21.50323277451541
 20
-2.990918663290824
 30
0.0
 40
2.000000000000001
100
AcDbArc
 50
245.0249806443002
 51
269.9999999999998
  0
LINE
  5
52
330
2F
100
AcDbEntity
  8
A-DETL-GENF
100
AcDbLine
 10
21.50323277451541
 20
-4.990918662246473
 30
0.0
 11
27.63880335588996
 21
-4.990918662246476
 31
0.0
  0
LINE
  5
53
330
2F
100
AcDbEntity
  8
A-DETL-GENF
100
AcDbLine
 10
27.63880335588996
 20
-4.990918662246476
 30
0.0
 11
27.63880335588996
 21
-3.418218633869234
 31
0.0
  0
ARC
  5
54
330
2F
100
AcDbEntity
  8
A-DETL-GENF
100
AcDbCircle
 10
29.13880335588962
 20
-3.41821863386922
 30
0.0
 40
1.499999999999999
100
AcDbArc
 50
85.68585428190826
 51
180.0000000000002
  0
ARC
  5
55
330
2F
100
AcDbEntity
  8
A-DETL-GENF
100
AcDbCircle
 10
33.01288668098425
 20
47.93586083786983
 30
0.0
 40
49.99999999999508
100
AcDbArc
 50
265.6858542819074
 51
271.4998222596735
  0
ARC
  5
56
330
2F
100
AcDbEntity
  8
A-DETL-GENF
100
AcDbCircle
 10
33.01288668098467
 20
47.93586083786979
 30
0.0
 40
49.99999999999548
100
AcDbArc
 50
271.4998222596721
 51
275.0305850693216
  0
LINE
  5
57
330
2F
100
AcDbEntity
  8
A-DETL-GENF
100
AcDbLine
 10
37.39726213886117
 20
-1.871540739043627
 30
0.0
 11
39.13880140122902
 21
-0.8660638179378977
 31
0.0
  0
ARC
  5
58
330
2F
100
AcDbEntity
  8
A-DETL-GENF
100
AcDbCircle
 10
38.6388018640041
 20
-3.81469703484e-05
 30
0.0
 40
0.9999999999999946
100
AcDbArc
 50
299.9999693830538
 51
60.00003061694356
  0
LINE
  5
59
330
2F
100
AcDbEntity
  8
A-DETL-GENF
100
AcDbLine
 10
39.13880140122905
 20
0.8659875239971814
 30
0.0
 11
37.39710622200526
 21
1.871554463630669
 31
0.0
  0
ARC
  5
5A
330
2F
100
AcDbEntity
  8
A-DETL-GENF
100
AcDbCircle
 10
33.01288668098342
 20
-47.93586083788299
 30
0.0
 40
50.00000000001333
100
AcDbArc
 50
84.96959428909271
 51
88.33524491789527
  0
ARC
  5
5B
330
2F
100
AcDbEntity
  8
A-DETL-GENF
100
AcDbCircle
 10
33.01288668098429
 20
-47.93586083787082
 30
0.0
 40
50.00000000000151
100
AcDbArc
 50
88.335244917896
 51
94.31414571809161
  0
ARC
  5
5C
330
2F
100
AcDbEntity
  8
A-DETL-GENF
100
AcDbCircle
 10
29.13880335588963
 20
3.418218633875725
 30
0.0
 40
1.5
100
AcDbArc
 50
179.9999999999998
 51
274.314145718091
  0
LINE
  5
5D
330
2F
100
AcDbEntity
  8
A-DETL-GENF
100
AcDbLine
 10
27.63880335588996
 20
3.418218633875712
 30
0.0
 11
27.63880335588996
 21
5.008760892401108
 31
0.0
  0
LINE
  5
5E
330
2F
100
AcDbEntity
  8
A-DETL-GENF
100
AcDbLine
 10
27.63880335588996
 20
5.008760892401108
 30
0.0
 11
21.58016231900783
 21
5.008760892401109
 31
0.0
  0
ARC
  5
5F
330
2F
100
AcDbEntity
  8
A-DETL-GENF
100
AcDbCircle
 10
25.64683342483407
 20
3.010493487299712
 30
0.0
 40
0.4997475724883024
100
AcDbArc
 50
3.053e-13
 51
90.00000000000006
  0
LINE
  5
60
330
2F
100
AcDbEntity
  8
A-DETL-GENF
100
AcDbLine
 10
26.14658093353706
 20
3.010493487299715
 30
0.0
 11
26.14658093353706
 21
1.664352365966445
 31
0.0
  0
LINE
  5
61
330
2F
100
AcDbEntity
  8
A-DETL-GENF
100
AcDbLine
 10
26.14658093353706
 20
1.664352365966444
 30
0.0
 11
26.81308483968456
 21
0.5099358204006746
 31
0.0
  0
ARC
  5
62
330
2F
100
AcDbEntity
  8
A-DETL-GENF
100
AcDbCircle
 10
25.94462401757166
 20
0.0102409960034994
 30
0.0
 40
1.001957642355371
100
AcDbArc
 50
330.0847463731942
 51
29.91525358496589
  0
LINE
  5
63
330
2F
100
AcDbEntity
  8
A-DETL-GENF
100
AcDbLine
 10
26.81308483931953
 20
-0.4894538290280922
 30
0.0
 11
26.14658093353706
 21
-1.643870373958898
 31
0.0
  0
LINE
  5
64
330
2F
100
AcDbEntity
  8
A-DETL-GENF
100
AcDbLine
 10
26.14658093353706
 20
-1.643870373958897
 30
0.0
 11
26.14658093353706
 21
-2.989889424980668
 31
0.0
  0
ARC
  5
65
330
2F
100
AcDbEntity
  8
A-DETL-GENF
100
AcDbCircle
 10
25.64683342483406
 20
-2.989889424980665
 30
0.0
 40
0.4997475724883041
100
AcDbArc
 50
270.0000000000002
 51
359.9999999999991
  0
LINE
  5
66
330
2F
100
AcDbEntity
  8
A-DETL-GENF
100
AcDbLine
 10
25.64683342483407
 20
-3.489636933683658
 30
0.0
 11
22.66273191912171
 21
-3.489636933683657
 31
0.0
  0
LINE
  5
67
330
2F
100
AcDbEntity
  8
A-DETL-GENF
100
AcDbLine
 10
22.66273191912171
 20
-3.489636933683658
 30
0.0
 11
22.14363903933604
 21
-2.590543314602155
 31
0.0
  0
LINE
  5
68
330
2F
100
AcDbEntity
  8
A-DETL-GENF
100
AcDbLine
 10
22.14363903933604
 20
-2.590543314602155
 30
0.0
 11
20.45975653250849
 21
-2.590543314602153
 31
0.0
  0
ARC
  5
69
330
2F
100
AcDbEntity
  8
A-DETL-GENF
100
AcDbCircle
 10
20.44365329097237
 20
-2.090821768006765
 30
0.0
 40
0.499980938156304
100
AcDbArc
 50
135.0000000000002
 51
271.8456850984533
  0
LINE
  5
6A
330
2F
100
AcDbEntity
  8
A-DETL-GENF
100
AcDbLine
 10
20.09011337917627
 20
-1.737281856210665
 30
0.0
 11
20.77640164712903
 21
-1.050993588257899
 31
0.0
  0
ARC
  5
6B
330
2F
100
AcDbEntity
  8
A-DETL-GENF
100
AcDbCircle
 10
19.71629621325838
 20
0.0091118456127504
 30
0.0
 40
1.499215682617236
100
AcDbArc
 50
314.9999999999995
 51
44.99999999990961
  0
LINE
  5
6C
330
2F
100
AcDbEntity
  8
A-DETL-GENF
100
AcDbLine
 10
20.77640164712962
 20
1.069217279480641
 30
0.0
 11
20.09016636380803
 21
1.755452562804395
 31
0.0
  0
ARC
  5
6D
330
2F
100
AcDbEntity
  8
A-DETL-GENF
100
AcDbCircle
 10
20.44377878619823
 20
2.109064985193469
 30
0.0
 40
0.500083490342805
100
AcDbArc
 50
90.0000000000004
 51
224.9999999999092
  0
LINE
  5
6E
330
2F
100
AcDbEntity
  8
A-DETL-GENF
100
AcDbLine
 10
20.44377878619823
 20
2.609148466705772
 30
0.0
 11
22.14373059141168
 21
2.609148466705772
 31
0.0
  0
LINE
  5
6F
330
2F
100
AcDbEntity
  8
A-DETL-GENF
100
AcDbLine
 10
22.14373059141168
 20
2.609148466705772
 30
0.0
 11
22.66397754463273
 21
3.510240996002704
 31
0.0
  0
LINE
  5
70
330
2F
100
AcDbEntity
  8
A-DETL-GENF
100
AcDbLine
 10
22.66397754463273
 20
3.510240996002704
 30
0.0
 11
25.64683342483407
 21
3.510240996002704
 31
0.0
  0
LINE
  5
71
330
2F
100
AcDbEntity
  8
A-DETL-GENF
100
AcDbLine
 10
36.6327950888947
 20
1.331331725928502
 30
0.0
 11
38.18880214010246
 21
0.4329754166470647
 31
0.0
  0
ARC
  5
72
330
2F
100
AcDbEntity
  8
A-DETL-GENF
100
AcDbCircle
 10
37.93880297295332
 20
-3.81469703484e-05
 30
0.0
 40
0.5000003305788729
100
AcDbArc
 50
299.9998679754006
 51
60.00013202458312
  0
LINE
  5
73
330
2F
100
AcDbEntity
  8
A-DETL-GENF
100
AcDbLine
 10
38.18880214010235
 20
-0.4330517105878303
 30
0.0
 11
36.63294650463786
 21
-1.331320600413748
 31
0.0
  0
ARC
  5
74
330
2F
100
AcDbEntity
  8
A-DETL-GENF
100
AcDbCircle
 10
33.01288668098432
 20
47.93586083787241
 30
0.0
 40
49.39999999999836
100
AcDbArc
 50
265.2649501047129
 51
274.202433939152
  0
ARC
  5
75
330
2F
100
AcDbEntity
  8
A-DETL-GENF
100
AcDbCircle
 10
28.93434422208522
 20
2.1657e-12
 30
0.0
 40
1.29554086619457
100
AcDbArc
 50
89.97068976105182
 51
270.0293102391332
  0
ARC
  5
76
330
2F
100
AcDbEntity
  8
A-DETL-GENF
100
AcDbCircle
 10
33.01288668098433
 20
-47.93586083786846
 30
0.0
 40
49.39999999999908
100
AcDbArc
 50
85.79774215133635
 51
94.7350498952916
  0
ARC
  5
77
330
2F
100
AcDbEntity
  8
A-DETL-GENF
100
AcDbCircle
 10
-53.19358782129994
 20
-0.4895782127934733
 30
0.0
 40
53.19358782264855
100
AcDbArc
 50
348.6158872920647
 51
11.38492868668817
  0
ARC
  5
78
330
2F
100
AcDbEntity
  8
A-DETL-GENF
100
AcDbCircle
 10
-41.11620414160825
 20
-0.4058996063208933
 30
0.0
 40
42.64855775229298
100
AcDbArc
 50
347.0144981899557
 51
14.13723511947504
  0
ARC
  5
79
330
2F
100
AcDbEntity
  8
A-DETL-GENF
100
AcDbCircle
 10
-37.17549517320908
 20
-0.5753462426739002
 30
0.0
 40
40.24545554727832
100
AcDbArc
 50
346.4725304644115
 51
15.25050688464048
  0
ARC
  5
7A
330
2F
100
AcDbEntity
  8
A-DETL-GENF
100
AcDbCircle
 10
-29.13367080012319
 20
-0.2149900967825014
 30
0.0
 40
33.7789879699583
100
AcDbArc
 50
343.1804551374216
 51
17.62144328352835
  0
ARC
  5
7B
330
2F
100
AcDbEntity
  8
A-DETL-GENF
100
AcDbCircle
 10
-27.70367080012265
 20
-0.2149900967825014
 30
0.0
 40
33.7789879699583
100
AcDbArc
 50
343.1804551374216
 51
17.62144328352835
  0
LINE
  5
7C
330
2F
100
AcDbEntity
  8
A-DETL-GENF
100
AcDbLine
 10
14.95331686409083
 20
5.260810219757339
 30
0.0
 11
23.95331686409098
 21
6.510810219757057
 31
0.0
  0
LINE
  5
7D
330
2F
100
AcDbEntity
  8
A-DETL-GENF
100
AcDbLine
 10
11.75331228645269
 20
5.260810219757339
 30
0.0
 11
14.95331686409083
 21
5.260810219757338
 31
0.0
  0
ARC
  5
7E
330
2F
100
AcDbEntity
  8
A-DETL-GENF
100
AcDbCircle
 10
11.75331228645269
 20
4.460807167999719
 30
0.0
 40
0.8000030517578135
100
AcDbArc
 50
90.0
 51
179.7497712565142
  0
LINE
  5
7F
330
2F
100
AcDbEntity
  8
A-DETL-GENF
100
AcDbLine
 10
10.95331686408957
 20
3.660811745647432
 30
0.0
 11
10.95331686408957
 21
5.710814797393938
 31
0.0
  0
LINE
  5
80
330
2F
100
AcDbEntity
  8
A-DETL-GENF
100
AcDbLine
 10
11.75331228645269
 20
6.510810219757055
 30
0.0
 11
28.35331076058084
 21
6.510810219757051
 31
0.0
  0
ARC
  5
81
330
2F
100
AcDbEntity
  8
A-DETL-GENF
100
AcDbCircle
 10
11.75331228645269
 20
5.710814797393938
 30
0.0
 40
0.7999954223632769
100
AcDbArc
 50
89.99999999999994
 51
180.0000000000001
  0
LINE
  5
82
330
2F
100
AcDbEntity
  8
A-DETL-GENF
100
AcDbLine
 10
28.35331076058084
 20
6.510810219757051
 30
0.0
 11
28.35331076058084
 21
5.293656245786174
 31
0.0
  0
LINE
  5
83
330
2F
100
AcDbEntity
  8
A-DETL-GENF
100
AcDbLine
 10
28.35331076058084
 20
5.293656245786174
 30
0.0
 11
27.95331686409004
 21
4.435866566599164
 31
0.0
  0
LINE
  5
84
330
2F
100
AcDbEntity
  8
A-DETL-GENF
100
AcDbLine
 10
14.95331686409082
 20
-5.260810219758126
 30
0.0
 11
23.95331686409097
 21
-6.510810219757906
 31
0.0
  0
LINE
  5
85
330
2F
100
AcDbEntity
  8
A-DETL-GENF
100
AcDbLine
 10
11.75331228645265
 20
-5.260810219758105
 30
0.0
 11
14.95331686409082
 21
-5.260810219758126
 31
0.0
  0
ARC
  5
86
330
2F
100
AcDbEntity
  8
A-DETL-GENF
100
AcDbCircle
 10
11.75331228645266
 20
-4.460807168000485
 30
0.0
 40
0.8000030517578114
100
AcDbArc
 50
180.2502287435413
 51
269.9999999999993
  0
LINE
  5
87
330
2F
100
AcDbEntity
  8
A-DETL-GENF
100
AcDbLine
 10
10.95331686408955
 20
-3.660811745648189
 30
0.0
 11
10.95331686408954
 21
-5.710814797394698
 31
0.0
  0
LINE
  5
88
330
2F
100
AcDbEntity
  8
A-DETL-GENF
100
AcDbLine
 10
11.75331228645264
 20
-6.510810219757821
 30
0.0
 11
28.35331076058079
 21
-6.510810219757932
 31
0.0
  0
ARC
  5
89
330
2F
100
AcDbEntity
  8
A-DETL-GENF
100
AcDbCircle
 10
11.75331228645265
 20
-5.710814797394704
 30
0.0
 40
0.7999954223632786
100
AcDbArc
 50
179.9999999999996
 51
269.9999999999992
  0
LINE
  5
8A
330
2F
100
AcDbEntity
  8
A-DETL-GENF
100
AcDbLine
 10
28.35331076058079
 20
-6.510810219757932
 30
0.0
 11
28.35331076058081
 21
-5.29365624578705
 31
0.0
  0
LINE
  5
8B
330
2F
100
AcDbEntity
  8
A-DETL-GENF
100
AcDbLine
 10
28.35331076058081
 20
-5.29365624578705
 30
0.0
 11
27.95331686409
 21
-4.435866566600036
 31
0.0
  0
ENDBLK
  5
31
330
2F
100
AcDbEntity
  8
0
100
AcDbBlockEnd
  0
ENDSEC
  0
SECTION
  2
ENTITIES
  0
INSERT
  5
8D
330
17
100
AcDbEntity
  8
0
100
AcDbBlockReference
  2
31 Schuco voeg glas - 31 g Schuco voeg glas e-1414640-00_0 Basismaterialen
 10
0.0
 20
0.0
 30
0.0
  0
ENDSEC
  0
SECTION
  2
OBJECTS
  0
DICTIONARY
  5
A
330
0
100
AcDbDictionary
281
1
  3
ACAD_COLOR
350
B
  3
ACAD_GROUP
350
C
  3
ACAD_LAYOUT
350
D
  3
ACAD_MATERIAL
350
E
  3
ACAD_MLEADERSTYLE
350
F
  3
ACAD_MLINESTYLE
350
10
  3
ACAD_PLOTSETTINGS
350
11
  3
ACAD_PLOTSTYLENAME
350
12
  3
ACAD_SCALELIST
350
14
  3
ACAD_TABLESTYLE
350
15
  3
ACAD_VISUALSTYLE
350
16
  3
EZDXF_META
350
2D
  0
DICTIONARY
  5
B
330
A
100
AcDbDictionary
281
1
  0
DICTIONARY
  5
C
330
A
100
AcDbDictionary
281
1
  0
DICTIONARY
  5
D
330
A
100
AcDbDictionary
281
1
  3
Model
350
1A
  3
Layout1
350
1E
  0
DICTIONARY
  5
E
330
A
100
AcDbDictionary
281
1
  3
ByBlock
350
1F
  3
ByLayer
350
20
  3
Global
350
21
  0
DICTIONARY
  5
F
330
A
100
AcDbDictionary
281
1
  3
Standard
350
2C
  0
DICTIONARY
  5
10
330
A
100
AcDbDictionary
281
1
  3
Standard
350
22
  0
DICTIONARY
  5
11
330
A
100
AcDbDictionary
281
1
  0
ACDBDICTIONARYWDFLT
  5
12
330
A
100
AcDbDictionary
281
1
  3
Normal
350
13
100
AcDbDictionaryWithDefault
340
13
  0
ACDBPLACEHOLDER
  5
13
330
12
  0
DICTIONARY
  5
14
330
A
100
AcDbDictionary
281
1
  0
DICTIONARY
  5
15
330
A
100
AcDbDictionary
281
1
  0
DICTIONARY
  5
16
330
A
100
AcDbDictionary
281
1
  0
LAYOUT
  5
1A
330
D
100
AcDbPlotSettings
  1

  4
A3
  6

 40
7.5
 41
20.0
 42
7.5
 43
20.0
 44
420.0
 45
297.0
 46
0.0
 47
0.0
 48
0.0
 49
0.0
140
0.0
141
0.0
142
1.0
143
1.0
 70
1024
 72
1
 73
0
 74
5
  7

 75
16
 76
0
 77
2
 78
300
147
1.0
148
0.0
149
0.0
100
AcDbLayout
  1
Model
 70
1
 71
0
 10
0.0
 20
0.0
 11
420.0
 21
297.0
 12
0.0
 22
0.0
 32
0.0
 14
1e+20
 24
1e+20
 34
1e+20
 15
-1e+20
 25
-1e+20
 35
-1e+20
146
0.0
 13
0.0
 23
0.0
 33
0.0
 16
1.0
 26
0.0
 36
0.0
 17
0.0
 27
1.0
 37
0.0
 76
1
330
17
  0
LAYOUT
  5
1E
330
D
100
AcDbPlotSettings
  1

  4
A3
  6

 40
7.5
 41
20.0
 42
7.5
 43
20.0
 44
420.0
 45
297.0
 46
0.0
 47
0.0
 48
0.0
 49
0.0
140
0.0
141
0.0
142
1.0
143
1.0
 70
0
 72
1
 73
0
 74
5
  7

 75
16
 76
0
 77
2
 78
300
147
1.0
148
0.0
149
0.0
100
AcDbLayout
  1
Layout1
 70
1
 71
1
 10
0.0
 20
0.0
 11
420.0
 21
297.0
 12
0.0
 22
0.0
 32
0.0
 14
1e+20
 24
1e+20
 34
1e+20
 15
-1e+20
 25
-1e+20
 35
-1e+20
146
0.0
 13
0.0
 23
0.0
 33
0.0
 16
1.0
 26
0.0
 36
0.0
 17
0.0
 27
1.0
 37
0.0
 76
1
330
1B
  0
MATERIAL
  5
1F
102
{ACAD_REACTORS
330
E
102
}
330
E
100
AcDbMaterial
  1
ByBlock
  2

 70
0
 40
1.0
 71
1
 41
1.0
 91
-1023410177
 42
1.0
 72
1
  3

 73
1
 74
1
 75
1
 44
0.5
 73
0
 45
1.0
 46
1.0
 77
1
  4

 78
1
 79
1
170
1
 48
1.0
171
1
  6

172
1
173
1
174
1
140
1.0
141
1.0
175
1
  7

176
1
177
1
178
1
143
1.0
179
1
  8

270
1
271
1
272
1
145
1.0
146
1.0
273
1
  9

274
1
275
1
276
1
 42
1.0
 72
1
  3

 73
1
 74
1
 75
1
 94
63
  0
MATERIAL
  5
20
102
{ACAD_REACTORS
330
E
102
}
330
E
100
AcDbMaterial
  1
ByLayer
  2

 70
0
 40
1.0
 71
1
 41
1.0
 91
-1023410177
 42
1.0
 72
1
  3

 73
1
 74
1
 75
1
 44
0.5
 73
0
 45
1.0
 46
1.0
 77
1
  4

 78
1
 79
1
170
1
 48
1.0
171
1
  6

172
1
173
1
174
1
140
1.0
141
1.0
175
1
  7

176
1
177
1
178
1
143
1.0
179
1
  8

270
1
271
1
272
1
145
1.0
146
1.0
273
1
  9

274
1
275
1
276
1
 42
1.0
 72
1
  3

 73
1
 74
1
 75
1
 94
63
  0
MATERIAL
  5
21
102
{ACAD_REACTORS
330
E
102
}
330
E
100
AcDbMaterial
  1
Global
  2

 70
0
 40
1.0
 71
1
 41
1.0
 91
-1023410177
 42
1.0
 72
1
  3

 73
1
 74
1
 75
1
 44
0.5
 73
0
 45
1.0
 46
1.0
 77
1
  4

 78
1
 79
1
170
1
 48
1.0
171
1
  6

172
1
173
1
174
1
140
1.0
141
1.0
175
1
  7

176
1
177
1
178
1
143
1.0
179
1
  8

270
1
271
1
272
1
145
1.0
146
1.0
273
1
  9

274
1
275
1
276
1
 42
1.0
 72
1
  3

 73
1
 74
1
 75
1
 94
63
  0
MLINESTYLE
  5
22
102
{ACAD_REACTORS
330
10
102
}
330
10
100
AcDbMlineStyle
  2
Standard
 70
0
  3

 62
256
 51
90.0
 52
90.0
 71
2
 49
0.5
 62
256
  6
BYLAYER
 49
-0.5
 62
256
  6
BYLAYER
  0
MLEADERSTYLE
  5
2C
102
{ACAD_REACTORS
330
F
102
}
330
F
100
AcDbMLeaderStyle
179
2
170
2
171
1
172
0
 90
2
 40
0.0
 41
0.0
173
1
 91
-1056964608
 92
-2
290
1
 42
2.0
291
1
 43
8.0
  3
Standard
 44
4.0
300

342
29
174
1
175
1
176
0
178
1
 93
-1056964608
 45
4.0
292
0
297
0
 46
4.0
 94
-1056964608
 47
1.0
 49
1.0
140
1.0
294
1
141
0.0
177
0
142
1.0
295
0
296
0
143
3.75
271
0
272
9
273
9
  0
DICTIONARY
  5
2D
330
A
100
AcDbDictionary
280
1
281
1
  3
CREATED_BY_EZDXF
350
2E
  3
WRITTEN_BY_EZDXF
350
91
  0
DICTIONARYVAR
  5
2E
330
2D
100
DictionaryVariables
280
0
  1
1.4.3 @ 2026-02-13T04:54:12.475800+00:00
  0
DICTIONARYVAR
  5
91
330
2D
100
DictionaryVariables
280
0
  1
1.4.3 @ 2026-02-13T04:54:12.482371+00:00
  0
ENDSEC
  0
EOF
