0
SECTION
2
HEADER
9
$EXTMIN
10
 0
20
 100
30
0.0
9
$EXTMAX
10
 0
20
 100
30
0.0
9
$LIMMIN
10
 100
20
 0
9
$LIMMAX
10
 0
20
 100
9
$PSLTSCALE
70
1
0
ENDSEC
0
SECTION
2
TABLES
0
TABLE
2
LAYER
70
2
0
LAYER
2
0
70
0
62
7
6
CONTINUOUS
0
LAYER
2
Halfen
70
0
62
7
6
CONTINUOUS
0
ENDTAB
0
ENDSEC
0
SECTION
2
ENTITIES
0
POLYLINE
8
Halfen
62
7
66
1
10
0.0
20
0.0
30
0.0
70
1
0
VERTEX
8
Halfen
62
7
10
 0
20
-73.5
30
0
0
VERTEX
8
Halfen
62
7
10
 250
20
-73.5
30
0
0
VERTEX
8
Halfen
62
7
10
 250
20
 73.5
30
0
0
VERTEX
8
Halfen
62
7
10
 0
20
 73.5
30
0
0
SEQEND
8
Halfen
0
POLYLINE
8
Halfen
62
7
66
1
10
0.0
20
0.0
30
0.0
70
1
0
VERTEX
8
Halfen
62
7
10
 0
20
-60
30
0
0
VERTEX
8
Halfen
62
7
10
 250
20
-60
30
0
0
VERTEX
8
Halfen
62
7
10
 250
20
 60
30
0
0
VERTEX
8
Halfen
62
7
10
 0
20
 60
30
0
0
SEQEND
8
Halfen
0
POLYLINE
8
Halfen
62
7
66
1
10
0.0
20
0.0
30
0.0
70
1
0
VERTEX
8
Halfen
62
7
10
 20
20
-32.5
30
0
0
VERTEX
8
Halfen
62
7
10
 37
20
-1.5
30
0
0
VERTEX
8
Halfen
62
7
10
 28
20
-1.5
30
0
0
VERTEX
8
Halfen
62
7
10
 28
20
 32.5
30
0
0
VERTEX
8
Halfen
62
7
10
 12
20
 32.5
30
0
0
VERTEX
8
Halfen
62
7
10
 12
20
-1.5
30
0
0
VERTEX
8
Halfen
62
7
10
 3
20
-1.5
30
0
0
SEQEND
8
Halfen
0
POLYLINE
8
Halfen
62
7
66
1
10
0.0
20
0.0
30
0.0
70
1
0
VERTEX
8
Halfen
62
7
10
 230
20
-32.5
30
0
0
VERTEX
8
Halfen
62
7
10
 247
20
-1.5
30
0
0
VERTEX
8
Halfen
62
7
10
 238
20
-1.5
30
0
0
VERTEX
8
Halfen
62
7
10
 238
20
 32.5
30
0
0
VERTEX
8
Halfen
62
7
10
 222
20
 32.5
30
0
0
VERTEX
8
Halfen
62
7
10
 222
20
-1.5
30
0
0
VERTEX
8
Halfen
62
7
10
 213
20
-1.5
30
0
0
SEQEND
8
Halfen
0
POLYLINE
8
Halfen
62
7
66
1
10
0.0
20
0.0
30
0.0
70
1
0
VERTEX
8
Halfen
62
7
10
 75
20
-696.961
30
0
0
VERTEX
8
Halfen
62
7
10
 75
20
 745.246
30
0
0
VERTEX
8
Halfen
62
7
10
 65
20
 745.246
30
0
0
VERTEX
8
Halfen
62
7
10
 65
20
-696.961
30
0
0
SEQEND
8
Halfen
0
POLYLINE
8
Halfen
62
7
66
1
10
0.0
20
0.0
30
0.0
70
1
0
VERTEX
8
Halfen
62
7
10
 195
20
-696.961
30
0
0
VERTEX
8
Halfen
62
7
10
 195
20
 745.246
30
0
0
VERTEX
8
Halfen
62
7
10
 185
20
 745.246
30
0
0
VERTEX
8
Halfen
62
7
10
 185
20
-696.961
30
0
0
SEQEND
8
Halfen
0
POLYLINE
8
Halfen
62
7
66
1
10
0.0
20
0.0
30
0.0
70
1
0
VERTEX
8
Halfen
62
7
10
 185
20
-696.961
30
0
0
VERTEX
8
Halfen
62
7
10
 185
20
 745.246
30
0
0
VERTEX
8
Halfen
62
7
10
 175
20
 745.246
30
0
0
VERTEX
8
Halfen
62
7
10
 175
20
-696.961
30
0
0
SEQEND
8
Halfen
0
POLYLINE
8
Halfen
62
7
66
1
10
0.0
20
0.0
30
0.0
70
1
0
VERTEX
8
Halfen
62
7
10
 65
20
-696.961
30
0
0
VERTEX
8
Halfen
62
7
10
 65
20
 745.246
30
0
0
VERTEX
8
Halfen
62
7
10
 55
20
 745.246
30
0
0
VERTEX
8
Halfen
62
7
10
 55
20
-696.961
30
0
0
SEQEND
8
Halfen
0
POLYLINE
8
Halfen
62
7
66
1
10
0.0
20
0.0
30
0.0
70
1
0
VERTEX
8
Halfen
62
7
10
 750
20
-60
30
0
0
VERTEX
8
Halfen
62
7
10
 750
20
 60
30
0
0
VERTEX
8
Halfen
62
7
10
 736.5
20
 73.5
30
0
0
VERTEX
8
Halfen
62
7
10
 736.5
20
 60
30
0
0
VERTEX
8
Halfen
62
7
10
 500
20
 60
30
0
0
VERTEX
8
Halfen
62
7
10
 500
20
-60
30
0
0
VERTEX
8
Halfen
62
7
10
 736.5
20
-60
30
0
0
VERTEX
8
Halfen
62
7
10
 736.5
20
-73.5
30
0
0
SEQEND
8
Halfen
0
POLYLINE
8
Halfen
62
7
66
1
10
0.0
20
0.0
30
0.0
70
1
0
VERTEX
8
Halfen
62
7
10
 500
20
-60
30
0
0
VERTEX
8
Halfen
62
7
10
 500
20
 60
30
0
0
VERTEX
8
Halfen
62
7
10
 463.5
20
 60
30
0
0
VERTEX
8
Halfen
62
7
10
 463.5
20
 73.5
30
0
0
VERTEX
8
Halfen
62
7
10
 450
20
 60
30
0
0
VERTEX
8
Halfen
62
7
10
 450
20
-60
30
0
0
VERTEX
8
Halfen
62
7
10
 463.5
20
-73.5
30
0
0
VERTEX
8
Halfen
62
7
10
 463.5
20
-60
30
0
0
SEQEND
8
Halfen
0
POLYLINE
8
Halfen
62
7
66
1
10
0.0
20
0.0
30
0.0
70
1
0
VERTEX
8
Halfen
62
7
10
 747.5
20
-58.75
30
0
0
VERTEX
8
Halfen
62
7
10
 747.5
20
 58.75
30
0
0
VERTEX
8
Halfen
62
7
10
 739
20
 67.25
30
0
0
VERTEX
8
Halfen
62
7
10
 739
20
 58
30
0
0
VERTEX
8
Halfen
62
7
10
 502
20
 58
30
0
0
VERTEX
8
Halfen
62
7
10
 502
20
-58
30
0
0
VERTEX
8
Halfen
62
7
10
 739
20
-58
30
0
0
VERTEX
8
Halfen
62
7
10
 739
20
-67.25
30
0
0
SEQEND
8
Halfen
0
POLYLINE
8
Halfen
62
7
66
1
10
0.0
20
0.0
30
0.0
70
1
0
VERTEX
8
Halfen
62
7
10
 498
20
-58
30
0
0
VERTEX
8
Halfen
62
7
10
 498
20
 58
30
0
0
VERTEX
8
Halfen
62
7
10
 461
20
 58
30
0
0
VERTEX
8
Halfen
62
7
10
 461
20
 67.25
30
0
0
VERTEX
8
Halfen
62
7
10
 452.5
20
 58.75
30
0
0
VERTEX
8
Halfen
62
7
10
 452.5
20
-58.75
30
0
0
VERTEX
8
Halfen
62
7
10
 461
20
-67.25
30
0
0
VERTEX
8
Halfen
62
7
10
 461
20
-58
30
0
0
SEQEND
8
Halfen
0
POLYLINE
8
Halfen
62
7
66
1
10
0.0
20
0.0
30
0.0
70
1
0
VERTEX
8
Halfen
62
7
10
 720
20
-696.961
30
0
0
VERTEX
8
Halfen
62
7
10
 720
20
-95.355
30
0
0
VERTEX
8
Halfen
62
7
10
 719.508
20
-89.098
30
0
0
VERTEX
8
Halfen
62
7
10
 718.042
20
-82.995
30
0
0
VERTEX
8
Halfen
62
7
10
 715.64
20
-77.196
30
0
0
VERTEX
8
Halfen
62
7
10
 712.361
20
-71.844
30
0
0
VERTEX
8
Halfen
62
7
10
 708.284
20
-67.071
30
0
0
VERTEX
8
Halfen
62
7
10
 518.787
20
 122.426
30
0
0
VERTEX
8
Halfen
62
7
10
 515.729
20
 126.006
30
0
0
VERTEX
8
Halfen
62
7
10
 513.27
20
 130.02
30
0
0
VERTEX
8
Halfen
62
7
10
 511.468
20
 134.369
30
0
0
VERTEX
8
Halfen
62
7
10
 510.369
20
 138.947
30
0
0
VERTEX
8
Halfen
62
7
10
 510
20
 143.64
30
0
0
VERTEX
8
Halfen
62
7
10
 510
20
 206.246
30
0
0
VERTEX
8
Halfen
62
7
10
 510
20
 745.246
30
0
0
VERTEX
8
Halfen
62
7
10
 500
20
 745.246
30
0
0
VERTEX
8
Halfen
62
7
10
 500
20
 206.246
30
0
0
VERTEX
8
Halfen
62
7
10
 500
20
 143.64
30
0
0
VERTEX
8
Halfen
62
7
10
 500.492
20
 137.382
30
0
0
VERTEX
8
Halfen
62
7
10
 501.958
20
 131.279
30
0
0
VERTEX
8
Halfen
62
7
10
 504.36
20
 125.48
30
0
0
VERTEX
8
Halfen
62
7
10
 507.639
20
 120.128
30
0
0
VERTEX
8
Halfen
62
7
10
 511.716
20
 115.355
30
0
0
VERTEX
8
Halfen
62
7
10
 701.213
20
-74.142
30
0
0
VERTEX
8
Halfen
62
7
10
 704.271
20
-77.722
30
0
0
VERTEX
8
Halfen
62
7
10
 706.73
20
-81.736
30
0
0
VERTEX
8
Halfen
62
7
10
 708.532
20
-86.085
30
0
0
VERTEX
8
Halfen
62
7
10
 709.631
20
-90.662
30
0
0
VERTEX
8
Halfen
62
7
10
 710
20
-95.355
30
0
0
VERTEX
8
Halfen
62
7
10
 710
20
-696.961
30
0
0
SEQEND
8
Halfen
0
POLYLINE
8
Halfen
62
7
66
1
10
0.0
20
0.0
30
0.0
70
1
0
VERTEX
8
Halfen
62
7
10
 500
20
-696.961
30
0
0
VERTEX
8
Halfen
62
7
10
 500
20
-95.355
30
0
0
VERTEX
8
Halfen
62
7
10
 500.492
20
-89.098
30
0
0
VERTEX
8
Halfen
62
7
10
 501.958
20
-82.995
30
0
0
VERTEX
8
Halfen
62
7
10
 504.36
20
-77.196
30
0
0
VERTEX
8
Halfen
62
7
10
 507.639
20
-71.844
30
0
0
VERTEX
8
Halfen
62
7
10
 511.716
20
-67.071
30
0
0
VERTEX
8
Halfen
62
7
10
 701.213
20
 122.426
30
0
0
VERTEX
8
Halfen
62
7
10
 704.271
20
 126.006
30
0
0
VERTEX
8
Halfen
62
7
10
 706.73
20
 130.02
30
0
0
VERTEX
8
Halfen
62
7
10
 708.532
20
 134.369
30
0
0
VERTEX
8
Halfen
62
7
10
 709.631
20
 138.947
30
0
0
VERTEX
8
Halfen
62
7
10
 710
20
 143.64
30
0
0
VERTEX
8
Halfen
62
7
10
 710
20
 206.246
30
0
0
VERTEX
8
Halfen
62
7
10
 710
20
 745.246
30
0
0
VERTEX
8
Halfen
62
7
10
 720
20
 745.246
30
0
0
VERTEX
8
Halfen
62
7
10
 720
20
 206.246
30
0
0
VERTEX
8
Halfen
62
7
10
 720
20
 143.64
30
0
0
VERTEX
8
Halfen
62
7
10
 719.508
20
 137.382
30
0
0
VERTEX
8
Halfen
62
7
10
 718.042
20
 131.279
30
0
0
VERTEX
8
Halfen
62
7
10
 715.64
20
 125.48
30
0
0
VERTEX
8
Halfen
62
7
10
 712.361
20
 120.128
30
0
0
VERTEX
8
Halfen
62
7
10
 708.284
20
 115.355
30
0
0
VERTEX
8
Halfen
62
7
10
 518.787
20
-74.142
30
0
0
VERTEX
8
Halfen
62
7
10
 515.729
20
-77.722
30
0
0
VERTEX
8
Halfen
62
7
10
 513.27
20
-81.736
30
0
0
VERTEX
8
Halfen
62
7
10
 511.468
20
-86.085
30
0
0
VERTEX
8
Halfen
62
7
10
 510.369
20
-90.662
30
0
0
VERTEX
8
Halfen
62
7
10
 510
20
-95.355
30
0
0
VERTEX
8
Halfen
62
7
10
 510
20
-696.961
30
0
0
SEQEND
8
Halfen
0
ENDSEC
0
EOF
