0
SECTION
2
HEADER
9
$EXTMIN
10
 0
20
 100
30
0.0
9
$EXTMAX
10
 0
20
 100
30
0.0
9
$LIMMIN
10
 100
20
 0
9
$LIMMAX
10
 0
20
 100
9
$PSLTSCALE
70
1
0
ENDSEC
0
SECTION
2
TABLES
0
TABLE
2
LAYER
70
2
0
LAYER
2
0
70
0
62
7
6
CONTINUOUS
0
LAYER
2
Halfen
70
0
62
7
6
CONTINUOUS
0
ENDTAB
0
ENDSEC
0
SECTION
2
ENTITIES
0
POLYLINE
8
Halfen
62
7
66
1
10
0.0
20
0.0
30
0.0
70
1
0
VERTEX
8
Halfen
62
7
10
 0
20
-73.5
30
0
0
VERTEX
8
Halfen
62
7
10
 500
20
-73.5
30
0
0
VERTEX
8
Halfen
62
7
10
 500
20
 73.5
30
0
0
VERTEX
8
Halfen
62
7
10
 0
20
 73.5
30
0
0
SEQEND
8
Halfen
0
POLYLINE
8
Halfen
62
7
66
1
10
0.0
20
0.0
30
0.0
70
1
0
VERTEX
8
Halfen
62
7
10
 0
20
-60
30
0
0
VERTEX
8
Halfen
62
7
10
 500
20
-60
30
0
0
VERTEX
8
Halfen
62
7
10
 500
20
 60
30
0
0
VERTEX
8
Halfen
62
7
10
 0
20
 60
30
0
0
SEQEND
8
Halfen
0
POLYLINE
8
Halfen
62
7
66
1
10
0.0
20
0.0
30
0.0
70
1
0
VERTEX
8
Halfen
62
7
10
 20
20
-32.5
30
0
0
VERTEX
8
Halfen
62
7
10
 37
20
-1.5
30
0
0
VERTEX
8
Halfen
62
7
10
 28
20
-1.5
30
0
0
VERTEX
8
Halfen
62
7
10
 28
20
 32.5
30
0
0
VERTEX
8
Halfen
62
7
10
 12
20
 32.5
30
0
0
VERTEX
8
Halfen
62
7
10
 12
20
-1.5
30
0
0
VERTEX
8
Halfen
62
7
10
 3
20
-1.5
30
0
0
SEQEND
8
Halfen
0
POLYLINE
8
Halfen
62
7
66
1
10
0.0
20
0.0
30
0.0
70
1
0
VERTEX
8
Halfen
62
7
10
 480
20
-32.5
30
0
0
VERTEX
8
Halfen
62
7
10
 497
20
-1.5
30
0
0
VERTEX
8
Halfen
62
7
10
 488
20
-1.5
30
0
0
VERTEX
8
Halfen
62
7
10
 488
20
 32.5
30
0
0
VERTEX
8
Halfen
62
7
10
 472
20
 32.5
30
0
0
VERTEX
8
Halfen
62
7
10
 472
20
-1.5
30
0
0
VERTEX
8
Halfen
62
7
10
 463
20
-1.5
30
0
0
SEQEND
8
Halfen
0
POLYLINE
8
Halfen
62
7
66
1
10
0.0
20
0.0
30
0.0
70
1
0
VERTEX
8
Halfen
62
7
10
 75
20
-696.961
30
0
0
VERTEX
8
Halfen
62
7
10
 75
20
 745.246
30
0
0
VERTEX
8
Halfen
62
7
10
 65
20
 745.246
30
0
0
VERTEX
8
Halfen
62
7
10
 65
20
-696.961
30
0
0
SEQEND
8
Halfen
0
POLYLINE
8
Halfen
62
7
66
1
10
0.0
20
0.0
30
0.0
70
1
0
VERTEX
8
Halfen
62
7
10
 195
20
-696.961
30
0
0
VERTEX
8
Halfen
62
7
10
 195
20
 745.246
30
0
0
VERTEX
8
Halfen
62
7
10
 185
20
 745.246
30
0
0
VERTEX
8
Halfen
62
7
10
 185
20
-696.961
30
0
0
SEQEND
8
Halfen
0
POLYLINE
8
Halfen
62
7
66
1
10
0.0
20
0.0
30
0.0
70
1
0
VERTEX
8
Halfen
62
7
10
 325
20
-696.961
30
0
0
VERTEX
8
Halfen
62
7
10
 325
20
 745.246
30
0
0
VERTEX
8
Halfen
62
7
10
 315
20
 745.246
30
0
0
VERTEX
8
Halfen
62
7
10
 315
20
-696.961
30
0
0
SEQEND
8
Halfen
0
POLYLINE
8
Halfen
62
7
66
1
10
0.0
20
0.0
30
0.0
70
1
0
VERTEX
8
Halfen
62
7
10
 445
20
-696.961
30
0
0
VERTEX
8
Halfen
62
7
10
 445
20
 745.246
30
0
0
VERTEX
8
Halfen
62
7
10
 435
20
 745.246
30
0
0
VERTEX
8
Halfen
62
7
10
 435
20
-696.961
30
0
0
SEQEND
8
Halfen
0
POLYLINE
8
Halfen
62
7
66
1
10
0.0
20
0.0
30
0.0
70
1
0
VERTEX
8
Halfen
62
7
10
 1040
20
-60
30
0
0
VERTEX
8
Halfen
62
7
10
 1040
20
 60
30
0
0
VERTEX
8
Halfen
62
7
10
 1026.5
20
 73.5
30
0
0
VERTEX
8
Halfen
62
7
10
 1026.5
20
 60
30
0
0
VERTEX
8
Halfen
62
7
10
 750
20
 60
30
0
0
VERTEX
8
Halfen
62
7
10
 750
20
-60
30
0
0
VERTEX
8
Halfen
62
7
10
 1026.5
20
-60
30
0
0
VERTEX
8
Halfen
62
7
10
 1026.5
20
-73.5
30
0
0
SEQEND
8
Halfen
0
POLYLINE
8
Halfen
62
7
66
1
10
0.0
20
0.0
30
0.0
70
1
0
VERTEX
8
Halfen
62
7
10
 750
20
-60
30
0
0
VERTEX
8
Halfen
62
7
10
 750
20
 60
30
0
0
VERTEX
8
Halfen
62
7
10
 713.5
20
 60
30
0
0
VERTEX
8
Halfen
62
7
10
 713.5
20
 73.5
30
0
0
VERTEX
8
Halfen
62
7
10
 700
20
 60
30
0
0
VERTEX
8
Halfen
62
7
10
 700
20
-60
30
0
0
VERTEX
8
Halfen
62
7
10
 713.5
20
-73.5
30
0
0
VERTEX
8
Halfen
62
7
10
 713.5
20
-60
30
0
0
SEQEND
8
Halfen
0
POLYLINE
8
Halfen
62
7
66
1
10
0.0
20
0.0
30
0.0
70
1
0
VERTEX
8
Halfen
62
7
10
 1037.5
20
-58.75
30
0
0
VERTEX
8
Halfen
62
7
10
 1037.5
20
 58.75
30
0
0
VERTEX
8
Halfen
62
7
10
 1029
20
 67.25
30
0
0
VERTEX
8
Halfen
62
7
10
 1029
20
 58
30
0
0
VERTEX
8
Halfen
62
7
10
 752
20
 58
30
0
0
VERTEX
8
Halfen
62
7
10
 752
20
-58
30
0
0
VERTEX
8
Halfen
62
7
10
 1029
20
-58
30
0
0
VERTEX
8
Halfen
62
7
10
 1029
20
-67.25
30
0
0
SEQEND
8
Halfen
0
POLYLINE
8
Halfen
62
7
66
1
10
0.0
20
0.0
30
0.0
70
1
0
VERTEX
8
Halfen
62
7
10
 748
20
-58
30
0
0
VERTEX
8
Halfen
62
7
10
 748
20
 58
30
0
0
VERTEX
8
Halfen
62
7
10
 711
20
 58
30
0
0
VERTEX
8
Halfen
62
7
10
 711
20
 67.25
30
0
0
VERTEX
8
Halfen
62
7
10
 702.5
20
 58.75
30
0
0
VERTEX
8
Halfen
62
7
10
 702.5
20
-58.75
30
0
0
VERTEX
8
Halfen
62
7
10
 711
20
-67.25
30
0
0
VERTEX
8
Halfen
62
7
10
 711
20
-58
30
0
0
SEQEND
8
Halfen
0
POLYLINE
8
Halfen
62
7
66
1
10
0.0
20
0.0
30
0.0
70
1
0
VERTEX
8
Halfen
62
7
10
 1010
20
-696.961
30
0
0
VERTEX
8
Halfen
62
7
10
 1010
20
-95.355
30
0
0
VERTEX
8
Halfen
62
7
10
 1009.508
20
-89.098
30
0
0
VERTEX
8
Halfen
62
7
10
 1008.042
20
-82.995
30
0
0
VERTEX
8
Halfen
62
7
10
 1005.64
20
-77.196
30
0
0
VERTEX
8
Halfen
62
7
10
 1002.361
20
-71.844
30
0
0
VERTEX
8
Halfen
62
7
10
 998.284
20
-67.071
30
0
0
VERTEX
8
Halfen
62
7
10
 808.787
20
 122.426
30
0
0
VERTEX
8
Halfen
62
7
10
 805.729
20
 126.006
30
0
0
VERTEX
8
Halfen
62
7
10
 803.27
20
 130.02
30
0
0
VERTEX
8
Halfen
62
7
10
 801.468
20
 134.369
30
0
0
VERTEX
8
Halfen
62
7
10
 800.369
20
 138.947
30
0
0
VERTEX
8
Halfen
62
7
10
 800
20
 143.64
30
0
0
VERTEX
8
Halfen
62
7
10
 800
20
 206.246
30
0
0
VERTEX
8
Halfen
62
7
10
 800
20
 745.246
30
0
0
VERTEX
8
Halfen
62
7
10
 790
20
 745.246
30
0
0
VERTEX
8
Halfen
62
7
10
 790
20
 206.246
30
0
0
VERTEX
8
Halfen
62
7
10
 790
20
 143.64
30
0
0
VERTEX
8
Halfen
62
7
10
 790.492
20
 137.382
30
0
0
VERTEX
8
Halfen
62
7
10
 791.958
20
 131.279
30
0
0
VERTEX
8
Halfen
62
7
10
 794.36
20
 125.48
30
0
0
VERTEX
8
Halfen
62
7
10
 797.639
20
 120.128
30
0
0
VERTEX
8
Halfen
62
7
10
 801.716
20
 115.355
30
0
0
VERTEX
8
Halfen
62
7
10
 991.213
20
-74.142
30
0
0
VERTEX
8
Halfen
62
7
10
 994.271
20
-77.722
30
0
0
VERTEX
8
Halfen
62
7
10
 996.73
20
-81.736
30
0
0
VERTEX
8
Halfen
62
7
10
 998.532
20
-86.085
30
0
0
VERTEX
8
Halfen
62
7
10
 999.631
20
-90.662
30
0
0
VERTEX
8
Halfen
62
7
10
 1000
20
-95.355
30
0
0
VERTEX
8
Halfen
62
7
10
 1000
20
-696.961
30
0
0
SEQEND
8
Halfen
0
ENDSEC
0
EOF
