0
SECTION
2
HEADER
9
$EXTMIN
10
 0
20
 100
30
0.0
9
$EXTMAX
10
 0
20
 100
30
0.0
9
$LIMMIN
10
 100
20
 0
9
$LIMMAX
10
 0
20
 100
9
$PSLTSCALE
70
1
0
ENDSEC
0
SECTION
2
TABLES
0
TABLE
2
LAYER
70
2
0
LAYER
2
0
70
0
62
7
6
CONTINUOUS
0
LAYER
2
Halfen
70
0
62
7
6
CONTINUOUS
0
ENDTAB
0
ENDSEC
0
SECTION
2
ENTITIES
0
POLYLINE
8
Halfen
62
7
66
1
10
0.0
20
0.0
30
0.0
70
1
0
VERTEX
8
Halfen
62
7
10
 0
20
-73.5
30
0
0
VERTEX
8
Halfen
62
7
10
 500
20
-73.5
30
0
0
VERTEX
8
Halfen
62
7
10
 500
20
 73.5
30
0
0
VERTEX
8
Halfen
62
7
10
 0
20
 73.5
30
0
0
SEQEND
8
Halfen
0
POLYLINE
8
Halfen
62
7
66
1
10
0.0
20
0.0
30
0.0
70
1
0
VERTEX
8
Halfen
62
7
10
 0
20
-60
30
0
0
VERTEX
8
Halfen
62
7
10
 500
20
-60
30
0
0
VERTEX
8
Halfen
62
7
10
 500
20
 60
30
0
0
VERTEX
8
Halfen
62
7
10
 0
20
 60
30
0
0
SEQEND
8
Halfen
0
POLYLINE
8
Halfen
62
7
66
1
10
0.0
20
0.0
30
0.0
70
1
0
VERTEX
8
Halfen
62
7
10
 20
20
-32.5
30
0
0
VERTEX
8
Halfen
62
7
10
 37
20
-1.5
30
0
0
VERTEX
8
Halfen
62
7
10
 28
20
-1.5
30
0
0
VERTEX
8
Halfen
62
7
10
 28
20
 32.5
30
0
0
VERTEX
8
Halfen
62
7
10
 12
20
 32.5
30
0
0
VERTEX
8
Halfen
62
7
10
 12
20
-1.5
30
0
0
VERTEX
8
Halfen
62
7
10
 3
20
-1.5
30
0
0
SEQEND
8
Halfen
0
POLYLINE
8
Halfen
62
7
66
1
10
0.0
20
0.0
30
0.0
70
1
0
VERTEX
8
Halfen
62
7
10
 480
20
-32.5
30
0
0
VERTEX
8
Halfen
62
7
10
 497
20
-1.5
30
0
0
VERTEX
8
Halfen
62
7
10
 488
20
-1.5
30
0
0
VERTEX
8
Halfen
62
7
10
 488
20
 32.5
30
0
0
VERTEX
8
Halfen
62
7
10
 472
20
 32.5
30
0
0
VERTEX
8
Halfen
62
7
10
 472
20
-1.5
30
0
0
VERTEX
8
Halfen
62
7
10
 463
20
-1.5
30
0
0
SEQEND
8
Halfen
0
POLYLINE
8
Halfen
62
7
66
1
10
0.0
20
0.0
30
0.0
70
1
0
VERTEX
8
Halfen
62
7
10
 88
20
-576.569
30
0
0
VERTEX
8
Halfen
62
7
10
 88
20
 635.197
30
0
0
VERTEX
8
Halfen
62
7
10
 80
20
 635.197
30
0
0
VERTEX
8
Halfen
62
7
10
 80
20
-576.569
30
0
0
SEQEND
8
Halfen
0
POLYLINE
8
Halfen
62
7
66
1
10
0.0
20
0.0
30
0.0
70
1
0
VERTEX
8
Halfen
62
7
10
 174
20
-576.569
30
0
0
VERTEX
8
Halfen
62
7
10
 174
20
 635.197
30
0
0
VERTEX
8
Halfen
62
7
10
 166
20
 635.197
30
0
0
VERTEX
8
Halfen
62
7
10
 166
20
-576.569
30
0
0
SEQEND
8
Halfen
0
POLYLINE
8
Halfen
62
7
66
1
10
0.0
20
0.0
30
0.0
70
1
0
VERTEX
8
Halfen
62
7
10
 260
20
-576.569
30
0
0
VERTEX
8
Halfen
62
7
10
 260
20
 635.197
30
0
0
VERTEX
8
Halfen
62
7
10
 252
20
 635.197
30
0
0
VERTEX
8
Halfen
62
7
10
 252
20
-576.569
30
0
0
SEQEND
8
Halfen
0
POLYLINE
8
Halfen
62
7
66
1
10
0.0
20
0.0
30
0.0
70
1
0
VERTEX
8
Halfen
62
7
10
 346
20
-576.569
30
0
0
VERTEX
8
Halfen
62
7
10
 346
20
 635.197
30
0
0
VERTEX
8
Halfen
62
7
10
 338
20
 635.197
30
0
0
VERTEX
8
Halfen
62
7
10
 338
20
-576.569
30
0
0
SEQEND
8
Halfen
0
POLYLINE
8
Halfen
62
7
66
1
10
0.0
20
0.0
30
0.0
70
1
0
VERTEX
8
Halfen
62
7
10
 432
20
-576.569
30
0
0
VERTEX
8
Halfen
62
7
10
 432
20
 635.197
30
0
0
VERTEX
8
Halfen
62
7
10
 424
20
 635.197
30
0
0
VERTEX
8
Halfen
62
7
10
 424
20
-576.569
30
0
0
SEQEND
8
Halfen
0
POLYLINE
8
Halfen
62
7
66
1
10
0.0
20
0.0
30
0.0
70
1
0
VERTEX
8
Halfen
62
7
10
 420
20
-576.569
30
0
0
VERTEX
8
Halfen
62
7
10
 420
20
 635.197
30
0
0
VERTEX
8
Halfen
62
7
10
 412
20
 635.197
30
0
0
VERTEX
8
Halfen
62
7
10
 412
20
-576.569
30
0
0
SEQEND
8
Halfen
0
POLYLINE
8
Halfen
62
7
66
1
10
0.0
20
0.0
30
0.0
70
1
0
VERTEX
8
Halfen
62
7
10
 334
20
-576.569
30
0
0
VERTEX
8
Halfen
62
7
10
 334
20
 635.197
30
0
0
VERTEX
8
Halfen
62
7
10
 326
20
 635.197
30
0
0
VERTEX
8
Halfen
62
7
10
 326
20
-576.569
30
0
0
SEQEND
8
Halfen
0
POLYLINE
8
Halfen
62
7
66
1
10
0.0
20
0.0
30
0.0
70
1
0
VERTEX
8
Halfen
62
7
10
 248
20
-576.569
30
0
0
VERTEX
8
Halfen
62
7
10
 248
20
 635.197
30
0
0
VERTEX
8
Halfen
62
7
10
 240
20
 635.197
30
0
0
VERTEX
8
Halfen
62
7
10
 240
20
-576.569
30
0
0
SEQEND
8
Halfen
0
POLYLINE
8
Halfen
62
7
66
1
10
0.0
20
0.0
30
0.0
70
1
0
VERTEX
8
Halfen
62
7
10
 162
20
-576.569
30
0
0
VERTEX
8
Halfen
62
7
10
 162
20
 635.197
30
0
0
VERTEX
8
Halfen
62
7
10
 154
20
 635.197
30
0
0
VERTEX
8
Halfen
62
7
10
 154
20
-576.569
30
0
0
SEQEND
8
Halfen
0
POLYLINE
8
Halfen
62
7
66
1
10
0.0
20
0.0
30
0.0
70
1
0
VERTEX
8
Halfen
62
7
10
 76
20
-576.569
30
0
0
VERTEX
8
Halfen
62
7
10
 76
20
 635.197
30
0
0
VERTEX
8
Halfen
62
7
10
 68
20
 635.197
30
0
0
VERTEX
8
Halfen
62
7
10
 68
20
-576.569
30
0
0
SEQEND
8
Halfen
0
POLYLINE
8
Halfen
62
7
66
1
10
0.0
20
0.0
30
0.0
70
1
0
VERTEX
8
Halfen
62
7
10
 1040
20
-60
30
0
0
VERTEX
8
Halfen
62
7
10
 1040
20
 60
30
0
0
VERTEX
8
Halfen
62
7
10
 1026.5
20
 73.5
30
0
0
VERTEX
8
Halfen
62
7
10
 1026.5
20
 60
30
0
0
VERTEX
8
Halfen
62
7
10
 750
20
 60
30
0
0
VERTEX
8
Halfen
62
7
10
 750
20
-60
30
0
0
VERTEX
8
Halfen
62
7
10
 1026.5
20
-60
30
0
0
VERTEX
8
Halfen
62
7
10
 1026.5
20
-73.5
30
0
0
SEQEND
8
Halfen
0
POLYLINE
8
Halfen
62
7
66
1
10
0.0
20
0.0
30
0.0
70
1
0
VERTEX
8
Halfen
62
7
10
 750
20
-60
30
0
0
VERTEX
8
Halfen
62
7
10
 750
20
 60
30
0
0
VERTEX
8
Halfen
62
7
10
 713.5
20
 60
30
0
0
VERTEX
8
Halfen
62
7
10
 713.5
20
 73.5
30
0
0
VERTEX
8
Halfen
62
7
10
 700
20
 60
30
0
0
VERTEX
8
Halfen
62
7
10
 700
20
-60
30
0
0
VERTEX
8
Halfen
62
7
10
 713.5
20
-73.5
30
0
0
VERTEX
8
Halfen
62
7
10
 713.5
20
-60
30
0
0
SEQEND
8
Halfen
0
POLYLINE
8
Halfen
62
7
66
1
10
0.0
20
0.0
30
0.0
70
1
0
VERTEX
8
Halfen
62
7
10
 1037.5
20
-58.75
30
0
0
VERTEX
8
Halfen
62
7
10
 1037.5
20
 58.75
30
0
0
VERTEX
8
Halfen
62
7
10
 1029
20
 67.25
30
0
0
VERTEX
8
Halfen
62
7
10
 1029
20
 58
30
0
0
VERTEX
8
Halfen
62
7
10
 752
20
 58
30
0
0
VERTEX
8
Halfen
62
7
10
 752
20
-58
30
0
0
VERTEX
8
Halfen
62
7
10
 1029
20
-58
30
0
0
VERTEX
8
Halfen
62
7
10
 1029
20
-67.25
30
0
0
SEQEND
8
Halfen
0
POLYLINE
8
Halfen
62
7
66
1
10
0.0
20
0.0
30
0.0
70
1
0
VERTEX
8
Halfen
62
7
10
 748
20
-58
30
0
0
VERTEX
8
Halfen
62
7
10
 748
20
 58
30
0
0
VERTEX
8
Halfen
62
7
10
 711
20
 58
30
0
0
VERTEX
8
Halfen
62
7
10
 711
20
 67.25
30
0
0
VERTEX
8
Halfen
62
7
10
 702.5
20
 58.75
30
0
0
VERTEX
8
Halfen
62
7
10
 702.5
20
-58.75
30
0
0
VERTEX
8
Halfen
62
7
10
 711
20
-67.25
30
0
0
VERTEX
8
Halfen
62
7
10
 711
20
-58
30
0
0
SEQEND
8
Halfen
0
POLYLINE
8
Halfen
62
7
66
1
10
0.0
20
0.0
30
0.0
70
1
0
VERTEX
8
Halfen
62
7
10
 1010
20
-576.569
30
0
0
VERTEX
8
Halfen
62
7
10
 1010
20
-88.284
30
0
0
VERTEX
8
Halfen
62
7
10
 1009.606
20
-83.278
30
0
0
VERTEX
8
Halfen
62
7
10
 1008.434
20
-78.396
30
0
0
VERTEX
8
Halfen
62
7
10
 1006.512
20
-73.757
30
0
0
VERTEX
8
Halfen
62
7
10
 1003.889
20
-69.475
30
0
0
VERTEX
8
Halfen
62
7
10
 1000.627
20
-65.657
30
0
0
VERTEX
8
Halfen
62
7
10
 805.029
20
 129.941
30
0
0
VERTEX
8
Halfen
62
7
10
 802.584
20
 132.805
30
0
0
VERTEX
8
Halfen
62
7
10
 800.616
20
 136.016
30
0
0
VERTEX
8
Halfen
62
7
10
 799.175
20
 139.495
30
0
0
VERTEX
8
Halfen
62
7
10
 798.295
20
 143.157
30
0
0
VERTEX
8
Halfen
62
7
10
 798
20
 146.912
30
0
0
VERTEX
8
Halfen
62
7
10
 798
20
 635.197
30
0
0
VERTEX
8
Halfen
62
7
10
 790
20
 635.197
30
0
0
VERTEX
8
Halfen
62
7
10
 790
20
 146.912
30
0
0
VERTEX
8
Halfen
62
7
10
 790.394
20
 141.906
30
0
0
VERTEX
8
Halfen
62
7
10
 791.566
20
 137.023
30
0
0
VERTEX
8
Halfen
62
7
10
 793.488
20
 132.384
30
0
0
VERTEX
8
Halfen
62
7
10
 796.111
20
 128.103
30
0
0
VERTEX
8
Halfen
62
7
10
 799.373
20
 124.284
30
0
0
VERTEX
8
Halfen
62
7
10
 994.971
20
-71.314
30
0
0
VERTEX
8
Halfen
62
7
10
 997.416
20
-74.177
30
0
0
VERTEX
8
Halfen
62
7
10
 999.384
20
-77.388
30
0
0
VERTEX
8
Halfen
62
7
10
 1000.825
20
-80.868
30
0
0
VERTEX
8
Halfen
62
7
10
 1001.705
20
-84.53
30
0
0
VERTEX
8
Halfen
62
7
10
 1002
20
-88.284
30
0
0
VERTEX
8
Halfen
62
7
10
 1002
20
-576.569
30
0
0
SEQEND
8
Halfen
0
POLYLINE
8
Halfen
62
7
66
1
10
0.0
20
0.0
30
0.0
70
1
0
VERTEX
8
Halfen
62
7
10
 790
20
-576.569
30
0
0
VERTEX
8
Halfen
62
7
10
 790
20
-88.284
30
0
0
VERTEX
8
Halfen
62
7
10
 790.394
20
-83.278
30
0
0
VERTEX
8
Halfen
62
7
10
 791.566
20
-78.396
30
0
0
VERTEX
8
Halfen
62
7
10
 793.488
20
-73.757
30
0
0
VERTEX
8
Halfen
62
7
10
 796.111
20
-69.475
30
0
0
VERTEX
8
Halfen
62
7
10
 799.373
20
-65.657
30
0
0
VERTEX
8
Halfen
62
7
10
 994.971
20
 129.941
30
0
0
VERTEX
8
Halfen
62
7
10
 997.416
20
 132.805
30
0
0
VERTEX
8
Halfen
62
7
10
 999.384
20
 136.016
30
0
0
VERTEX
8
Halfen
62
7
10
 1000.825
20
 139.495
30
0
0
VERTEX
8
Halfen
62
7
10
 1001.705
20
 143.157
30
0
0
VERTEX
8
Halfen
62
7
10
 1002
20
 146.912
30
0
0
VERTEX
8
Halfen
62
7
10
 1002
20
 635.197
30
0
0
VERTEX
8
Halfen
62
7
10
 1010
20
 635.197
30
0
0
VERTEX
8
Halfen
62
7
10
 1010
20
 146.912
30
0
0
VERTEX
8
Halfen
62
7
10
 1009.606
20
 141.906
30
0
0
VERTEX
8
Halfen
62
7
10
 1008.434
20
 137.023
30
0
0
VERTEX
8
Halfen
62
7
10
 1006.512
20
 132.384
30
0
0
VERTEX
8
Halfen
62
7
10
 1003.889
20
 128.103
30
0
0
VERTEX
8
Halfen
62
7
10
 1000.627
20
 124.284
30
0
0
VERTEX
8
Halfen
62
7
10
 805.029
20
-71.314
30
0
0
VERTEX
8
Halfen
62
7
10
 802.584
20
-74.177
30
0
0
VERTEX
8
Halfen
62
7
10
 800.616
20
-77.388
30
0
0
VERTEX
8
Halfen
62
7
10
 799.175
20
-80.868
30
0
0
VERTEX
8
Halfen
62
7
10
 798.295
20
-84.53
30
0
0
VERTEX
8
Halfen
62
7
10
 798
20
-88.284
30
0
0
VERTEX
8
Halfen
62
7
10
 798
20
-576.569
30
0
0
SEQEND
8
Halfen
0
ENDSEC
0
EOF
