  0
SECTION
  2
HEADER
  9
$ACADVER
  1
AC1018
  9
$ACADMAINTVER
 70
    39
  9
$DWGCODEPAGE
  3
ANSI_1252
  9
$LASTSAVEDBY
  1
uhlaender
  9
$INSBASE
 10
692.927212860398
 20
2197.626564608782
 30
0.0
  9
$EXTMIN
 10
551.836165285056
 20
1891.369829233295
 30
0.0
  9
$EXTMAX
 10
872.2500000000019
 20
2575.073328785804
 30
0.0
  9
$LIMMIN
 10
0.0
 20
0.0
  9
$LIMMAX
 10
841.0
 20
1189.0
  9
$ORTHOMODE
 70
     1
  9
$REGENMODE
 70
     1
  9
$FILLMODE
 70
     1
  9
$QTEXTMODE
 70
     0
  9
$MIRRTEXT
 70
     1
  9
$LTSCALE
 40
5.0
  9
$ATTMODE
 70
     1
  9
$TEXTSIZE
 40
3.5
  9
$TRACEWID
 40
0.05
  9
$TEXTSTYLE
  7
ARIAL50
  9
$CLAYER
  8
HALFEN
  9
$CELTYPE
  6
BYLAYER
  9
$CECOLOR
 62
   256
  9
$CELTSCALE
 40
1.0
  9
$DISPSILH
 70
     0
  9
$DIMSCALE
 40
1.0
  9
$DIMASZ
 40
2.5
  9
$DIMEXO
 40
1.0
  9
$DIMDLI
 40
10.0
  9
$DIMRND
 40
0.0
  9
$DIMDLE
 40
0.0
  9
$DIMEXE
 40
1.0
  9
$DIMTP
 40
0.1
  9
$DIMTM
 40
0.1
  9
$DIMTXT
 40
3.5
  9
$DIMCEN
 40
0.09
  9
$DIMTSZ
 40
0.0
  9
$DIMTOL
 70
     0
  9
$DIMLIM
 70
     0
  9
$DIMTIH
 70
     0
  9
$DIMTOH
 70
     0
  9
$DIMSE1
 70
     0
  9
$DIMSE2
 70
     0
  9
$DIMTAD
 70
     1
  9
$DIMZIN
 70
     8
  9
$DIMBLK
  1

  9
$DIMASO
 70
     1
  9
$DIMSHO
 70
     1
  9
$DIMPOST
  1

  9
$DIMAPOST
  1

  9
$DIMALT
 70
     0
  9
$DIMALTD
 70
     2
  9
$DIMALTF
 40
0.0393701
  9
$DIMLFAC
 40
1.0
  9
$DIMTOFL
 70
     1
  9
$DIMTVP
 40
0.0
  9
$DIMTIX
 70
     0
  9
$DIMSOXD
 70
     0
  9
$DIMSAH
 70
     0
  9
$DIMBLK1
  1

  9
$DIMBLK2
  1

  9
$DIMSTYLE
  2
GEN-ISO
  9
$DIMCLRD
 70
     1
  9
$DIMCLRE
 70
     1
  9
$DIMCLRT
 70
     7
  9
$DIMTFAC
 40
0.71
  9
$DIMGAP
 40
3.0
  9
$DIMJUST
 70
     0
  9
$DIMSD1
 70
     0
  9
$DIMSD2
 70
     0
  9
$DIMTOLJ
 70
     0
  9
$DIMTZIN
 70
     0
  9
$DIMALTZ
 70
     0
  9
$DIMALTTZ
 70
     0
  9
$DIMUPT
 70
     0
  9
$DIMDEC
 70
     1
  9
$DIMTDEC
 70
     3
  9
$DIMALTU
 70
     2
  9
$DIMALTTD
 70
     4
  9
$DIMTXSTY
  7
STANDARD
  9
$DIMAUNIT
 70
     0
  9
$DIMADEC
 70
     0
  9
$DIMALTRND
 40
0.0
  9
$DIMAZIN
 70
     0
  9
$DIMDSEP
 70
    46
  9
$DIMATFIT
 70
     3
  9
$DIMFRAC
 70
     0
  9
$DIMLDRBLK
  1

  9
$DIMLUNIT
 70
     2
  9
$DIMLWD
 70
    -2
  9
$DIMLWE
 70
    -2
  9
$DIMTMOVE
 70
     0
  9
$LUNITS
 70
     2
  9
$LUPREC
 70
     2
  9
$SKETCHINC
 40
0.1
  9
$FILLETRAD
 40
0.0
  9
$AUNITS
 70
     0
  9
$AUPREC
 70
     0
  9
$MENU
  1
.
  9
$ELEVATION
 40
0.0
  9
$PELEVATION
 40
0.0
  9
$THICKNESS
 40
0.0
  9
$LIMCHECK
 70
     0
  9
$CHAMFERA
 40
2.5
  9
$CHAMFERB
 40
2.5
  9
$CHAMFERC
 40
1.0
  9
$CHAMFERD
 40
0.0
  9
$SKPOLY
 70
     0
  9
$TDCREATE
 40
2451438.371298843
  9
$TDUCREATE
 40
2451438.287965509
  9
$TDUPDATE
 40
2453935.357000324
  9
$TDUUPDATE
 40
2453935.273666991
  9
$TDINDWG
 40
1.1877014120
  9
$TDUSRTIMER
 40
1.1877014120
  9
$USRTIMER
 70
     1
  9
$ANGBASE
 50
0.0
  9
$ANGDIR
 70
     0
  9
$PDMODE
 70
     0
  9
$PDSIZE
 40
0.0
  9
$PLINEWID
 40
0.0
  9
$SPLFRAME
 70
     0
  9
$SPLINETYPE
 70
     6
  9
$SPLINESEGS
 70
     8
  9
$HANDSEED
  5
2D5
  9
$SURFTAB1
 70
     6
  9
$SURFTAB2
 70
     6
  9
$SURFTYPE
 70
     6
  9
$SURFU
 70
     6
  9
$SURFV
 70
     6
  9
$UCSBASE
  2

  9
$UCSNAME
  2

  9
$UCSORG
 10
0.0
 20
0.0
 30
0.0
  9
$UCSXDIR
 10
1.0
 20
0.0
 30
0.0
  9
$UCSYDIR
 10
0.0
 20
1.0
 30
0.0
  9
$UCSORTHOREF
  2

  9
$UCSORTHOVIEW
 70
     0
  9
$UCSORGTOP
 10
0.0
 20
0.0
 30
0.0
  9
$UCSORGBOTTOM
 10
0.0
 20
0.0
 30
0.0
  9
$UCSORGLEFT
 10
0.0
 20
0.0
 30
0.0
  9
$UCSORGRIGHT
 10
0.0
 20
0.0
 30
0.0
  9
$UCSORGFRONT
 10
0.0
 20
0.0
 30
0.0
  9
$UCSORGBACK
 10
0.0
 20
0.0
 30
0.0
  9
$PUCSBASE
  2

  9
$PUCSNAME
  2

  9
$PUCSORG
 10
0.0
 20
0.0
 30
0.0
  9
$PUCSXDIR
 10
1.0
 20
0.0
 30
0.0
  9
$PUCSYDIR
 10
0.0
 20
1.0
 30
0.0
  9
$PUCSORTHOREF
  2

  9
$PUCSORTHOVIEW
 70
     0
  9
$PUCSORGTOP
 10
0.0
 20
0.0
 30
0.0
  9
$PUCSORGBOTTOM
 10
0.0
 20
0.0
 30
0.0
  9
$PUCSORGLEFT
 10
0.0
 20
0.0
 30
0.0
  9
$PUCSORGRIGHT
 10
0.0
 20
0.0
 30
0.0
  9
$PUCSORGFRONT
 10
0.0
 20
0.0
 30
0.0
  9
$PUCSORGBACK
 10
0.0
 20
0.0
 30
0.0
  9
$USERI1
 70
     0
  9
$USERI2
 70
     0
  9
$USERI3
 70
     0
  9
$USERI4
 70
     0
  9
$USERI5
 70
     0
  9
$USERR1
 40
0.0
  9
$USERR2
 40
0.0
  9
$USERR3
 40
0.0
  9
$USERR4
 40
0.0
  9
$USERR5
 40
0.0
  9
$WORLDVIEW
 70
     1
  9
$SHADEDGE
 70
     3
  9
$SHADEDIF
 70
    70
  9
$TILEMODE
 70
     1
  9
$MAXACTVP
 70
    48
  9
$PINSBASE
 10
0.0
 20
0.0
 30
0.0
  9
$PLIMCHECK
 70
     0
  9
$PEXTMIN
 10
1.000000000000000E+20
 20
1.000000000000000E+20
 30
1.000000000000000E+20
  9
$PEXTMAX
 10
-1.000000000000000E+20
 20
-1.000000000000000E+20
 30
-1.000000000000000E+20
  9
$PLIMMIN
 10
0.0
 20
0.0
  9
$PLIMMAX
 10
12.0
 20
9.0
  9
$UNITMODE
 70
     0
  9
$VISRETAIN
 70
     1
  9
$PLINEGEN
 70
     0
  9
$PSLTSCALE
 70
     1
  9
$TREEDEPTH
 70
  3020
  9
$CMLSTYLE
  2
STANDARD
  9
$CMLJUST
 70
     0
  9
$CMLSCALE
 40
1.0
  9
$PROXYGRAPHICS
 70
     1
  9
$MEASUREMENT
 70
     1
  9
$CELWEIGHT
370
    -1
  9
$ENDCAPS
280
     0
  9
$JOINSTYLE
280
     0
  9
$LWDISPLAY
290
     0
  9
$INSUNITS
 70
     4
  9
$HYPERLINKBASE
  1

  9
$STYLESHEET
  1

  9
$XEDIT
290
     1
  9
$CEPSNTYPE
380
     0
  9
$PSTYLEMODE
290
     1
  9
$FINGERPRINTGUID
  2
{D156280A-E459-466F-A654-7C679188E2AC}
  9
$VERSIONGUID
  2
{DFF53414-1C25-4C86-8B3A-DC197A43CC25}
  9
$EXTNAMES
290
     1
  9
$PSVPSCALE
 40
0.0
  9
$OLESTARTUP
290
     0
  9
$SORTENTS
280
   127
  9
$INDEXCTL
280
     0
  9
$HIDETEXT
280
     1
  9
$XCLIPFRAME
290
     0
  9
$HALOGAP
280
     0
  9
$OBSCOLOR
 70
   257
  9
$OBSLTYPE
280
     0
  9
$INTERSECTIONDISPLAY
280
     0
  9
$INTERSECTIONCOLOR
 70
   257
  9
$DIMASSOC
280
     1
  9
$PROJECTNAME
  1

  0
ENDSEC
  0
SECTION
  2
CLASSES
  0
CLASS
  1
ACDBDICTIONARYWDFLT
  2
AcDbDictionaryWithDefault
  3
ObjectDBX Classes
 90
        0
 91
        1
280
     0
281
     0
  0
CLASS
  1
TABLESTYLE
  2
AcDbTableStyle
  3
ObjectDBX Classes
 90
     2047
 91
        1
280
     0
281
     0
  0
CLASS
  1
DICTIONARYVAR
  2
AcDbDictionaryVar
  3
ObjectDBX Classes
 90
        0
 91
        4
280
     0
281
     0
  0
ENDSEC
  0
SECTION
  2
TABLES
  0
TABLE
  2
VPORT
  5
19
330
0
100
AcDbSymbolTable
 70
     2
  0
VPORT
  5
2D4
330
19
100
AcDbSymbolTableRecord
100
AcDbViewportTableRecord
  2
*Active
 70
     0
 10
0.0
 20
0.0
 11
1.0
 21
1.0
 12
747.4448990869596
 22
2233.239399817701
 13
0.0
 23
0.0
 14
273.4512969780281
 24
273.4512969780281
 15
10.0
 25
10.0
 16
0.0
 26
0.0
 36
1.0
 17
0.0
 27
0.0
 37
0.0
 40
689.1896841209481
 41
1.656732891832229
 42
50.0
 43
0.0
 44
0.0
 50
0.0
 51
0.0
 71
     0
 72
   100
 73
     1
 74
     1
 75
     0
 76
     0
 77
     0
 78
     1
281
     0
 65
     1
110
0.0
120
0.0
130
0.0
111
1.0
121
0.0
131
0.0
112
0.0
122
1.0
132
0.0
 79
     0
146
0.0
  0
ENDTAB
  0
TABLE
  2
LTYPE
  5
14
330
0
100
AcDbSymbolTable
 70
     3
  0
LTYPE
  5
15
330
14
100
AcDbSymbolTableRecord
100
AcDbLinetypeTableRecord
  2
BYBLOCK
 70
     0
  3

 72
    65
 73
     0
 40
0.0
  0
LTYPE
  5
16
330
14
100
AcDbSymbolTableRecord
100
AcDbLinetypeTableRecord
  2
BYLAYER
 70
     0
  3

 72
    65
 73
     0
 40
0.0
  0
LTYPE
  5
8
330
14
100
AcDbSymbolTableRecord
100
AcDbLinetypeTableRecord
  2
CONTINUOUS
 70
     0
  3
Solid line
 72
    65
 73
     0
 40
0.0
  0
LTYPE
  5
3B
330
14
100
AcDbSymbolTableRecord
100
AcDbLinetypeTableRecord
  2
MITTE2
 70
     0
  3
Mitte (.5x) ___ _ ___ _ ___ _ ___ _ ___ _ ___
 72
    65
 73
     4
 40
1.125
 49
0.75
 74
     0
 49
-0.125
 74
     0
 49
0.125
 74
     0
 49
-0.125
 74
     0
  0
LTYPE
  5
289
330
14
100
AcDbSymbolTableRecord
100
AcDbLinetypeTableRecord
  2
VERDECKT
 70
     0
  3
Verdeckt __ __ __ __ __ __ __ __ __ __ __ __ __
 72
    65
 73
     2
 40
0.375
 49
0.25
 74
     0
 49
-0.125
 74
     0
  0
ENDTAB
  0
TABLE
  2
LAYER
  5
10
330
0
100
AcDbSymbolTable
 70
     2
  0
LAYER
  5
4
330
10
100
AcDbSymbolTableRecord
100
AcDbLayerTableRecord
  2
0
 70
     0
 62
     7
  6
CONTINUOUS
370
    -3
390
5
  0
LAYER
  5
25
330
10
100
AcDbSymbolTableRecord
100
AcDbLayerTableRecord
  2
HALFEN
 70
     0
 62
     2
  6
CONTINUOUS
370
    -3
390
5
  0
ENDTAB
  0
TABLE
  2
STYLE
  5
11
330
0
100
AcDbSymbolTable
 70
     2
  0
STYLE
  5
12
330
11
100
AcDbSymbolTableRecord
100
AcDbTextStyleTableRecord
  2
STANDARD
 70
     0
 40
0.0
 41
1.0
 50
0.0
 71
     0
 42
0.2
  3
geniso.shx
  4

  0
STYLE
  5
26
330
11
100
AcDbSymbolTableRecord
100
AcDbTextStyleTableRecord
  2
ARIAL50
 70
     0
 40
5.0
 41
1.0
 50
0.0
 71
     0
 42
3.5
  3
ARIAL.TTF
  4

1001
ACAD
1000
Arial
1071
       34
  0
ENDTAB
  0
TABLE
  2
VIEW
  5
17
330
0
100
AcDbSymbolTable
 70
     0
  0
ENDTAB
  0
TABLE
  2
UCS
  5
18
330
0
100
AcDbSymbolTable
 70
     0
  0
ENDTAB
  0
TABLE
  2
APPID
  5
1B
330
0
100
AcDbSymbolTable
 70
     3
  0
APPID
  5
1C
330
1B
100
AcDbSymbolTableRecord
100
AcDbRegAppTableRecord
  2
ACAD
 70
     0
  0
APPID
  5
56
330
1B
100
AcDbSymbolTableRecord
100
AcDbRegAppTableRecord
  2
AME_SOL
 70
     0
  0
APPID
  5
2BF
330
1B
100
AcDbSymbolTableRecord
100
AcDbRegAppTableRecord
  2
DCO15
 70
     0
  0
ENDTAB
  0
TABLE
  2
DIMSTYLE
  5
1D
330
0
100
AcDbSymbolTable
 70
     1
100
AcDbDimStyleTable
 71
     0
  0
DIMSTYLE
105
29
330
1D
100
AcDbSymbolTableRecord
100
AcDbDimStyleTableRecord
  2
GEN-ISO
 70
     0
 41
2.5
 42
1.0
 43
10.0
 44
1.0
 47
0.1
 48
0.1
 73
     0
 74
     0
 77
     1
 78
     8
140
3.5
141
0.0
143
0.0393701
146
0.71
147
3.0
172
     1
176
     1
177
     1
178
     7
271
     1
272
     3
274
     4
283
     0
340
12
  0
ENDTAB
  0
TABLE
  2
BLOCK_RECORD
  5
1
330
0
100
AcDbSymbolTable
 70
     0
  0
BLOCK_RECORD
  5
2
330
1
100
AcDbSymbolTableRecord
100
AcDbBlockTableRecord
  2
*MODEL_SPACE
340
A
  0
BLOCK_RECORD
  5
C
330
1
100
AcDbSymbolTableRecord
100
AcDbBlockTableRecord
  2
*PAPER_SPACE
340
F
  0
ENDTAB
  0
ENDSEC
  0
SECTION
  2
BLOCKS
  0
BLOCK
  5
3
330
2
100
AcDbEntity
  8
0
100
AcDbBlockBegin
  2
*MODEL_SPACE
 70
     0
 10
0.0
 20
0.0
 30
0.0
  3
*MODEL_SPACE
  1

  0
ENDBLK
  5
9
330
2
100
AcDbEntity
  8
0
100
AcDbBlockEnd
  0
BLOCK
  5
D
330
C
100
AcDbEntity
 67
     1
  8
0
100
AcDbBlockBegin
  2
*PAPER_SPACE
 70
     0
 10
0.0
 20
0.0
 30
0.0
  3
*PAPER_SPACE
  1

  0
ENDBLK
  5
E
330
C
100
AcDbEntity
 67
     1
  8
0
100
AcDbBlockEnd
  0
ENDSEC
  0
SECTION
  2
ENTITIES
  0
LINE
  5
2A
330
2
100
AcDbEntity
  8
HALFEN
100
AcDbLine
 10
552.250000000002
 20
1986.551996913942
 30
0.0
 11
702.250000000002
 21
1986.551996913942
 31
0.0
  0
LINE
  5
2B
330
2
100
AcDbEntity
  8
HALFEN
100
AcDbLine
 10
552.250000000002
 20
1976.551996913942
 30
0.0
 11
702.250000000002
 21
1976.551996913942
 31
0.0
  0
LINE
  5
2C
330
2
100
AcDbEntity
  8
HALFEN
100
AcDbLine
 10
552.250000000002
 20
1966.551996913942
 30
0.0
 11
702.250000000002
 21
1966.551996913942
 31
0.0
  0
TEXT
  5
2D
330
2
100
AcDbEntity
  8
HALFEN
100
AcDbText
 10
557.250000000002
 20
1979.051996913942
 30
0.0
 40
5.0
  1
Benennung
  7
ARIAL50
100
AcDbText
  0
TEXT
  5
2E
330
2
100
AcDbEntity
  8
HALFEN
100
AcDbText
 10
557.250000000002
 20
1969.051996913942
 30
0.0
 40
5.0
  1
Id. Nr.
  7
ARIAL50
100
AcDbText
  0
LINE
  5
2F
330
2
100
AcDbEntity
  8
HALFEN
100
AcDbLine
 10
553.693375672976
 20
1937.551996913942
 30
0.0
 11
585.506624327028
 21
1937.551996913942
 31
0.0
  0
LINE
  5
30
330
2
100
AcDbEntity
  8
HALFEN
100
AcDbLine
 10
553.250000000002
 20
1946.551996913942
 30
0.0
 11
585.9500000000021
 21
1946.551996913942
 31
0.0
  0
LINE
  5
31
330
2
100
AcDbEntity
  8
HALFEN
100
AcDbLine
 10
586.950000000002
 20
1939.051996913942
 30
0.0
 11
552.250000000002
 21
1939.051996913942
 31
0.0
  0
LINE
  5
32
330
2
100
AcDbEntity
  8
HALFEN
100
AcDbLine
 10
571.6241666666688
 20
1915.089746528186
 30
0.0
 11
586.950000000002
 21
1915.089746528186
 31
0.0
  0
LINE
  5
33
330
2
100
AcDbEntity
  8
HALFEN
100
AcDbLine
 10
585.2739174872141
 20
1897.149933989951
 30
0.0
 11
553.4203823671572
 21
1891.642118119048
 31
0.0
  0
LINE
  5
34
330
2
100
AcDbEntity
  8
HALFEN
100
AcDbLine
 10
552.250000000002
 20
1897.089746528186
 30
0.0
 11
584.9258333333355
 21
1897.089746528186
 31
0.0
  0
LINE
  5
35
330
2
100
AcDbEntity
  8
HALFEN
100
AcDbLine
 10
562.9491666666689
 20
1913.589746528186
 30
0.0
 11
585.4500000000021
 21
1913.589746528186
 31
0.0
  0
LINE
  5
36
330
2
100
AcDbEntity
  8
HALFEN
100
AcDbLine
 10
555.7741666666686
 20
1910.589746528186
 30
0.0
 11
564.3084973778727
 21
1910.589746528186
 31
0.0
  0
LINE
  5
37
330
2
100
AcDbEntity
  8
HALFEN
100
AcDbLine
 10
554.2741666666688
 20
1912.089746528186
 30
0.0
 11
566.8161178185869
 21
1912.089746528186
 31
0.0
  0
LINE
  5
38
330
2
100
AcDbEntity
  8
HALFEN
100
AcDbLine
 10
585.7796176328467
 20
1917.537374937323
 30
0.0
 11
553.9260825127899
 21
1912.02955906642
 31
0.0
  0
LINE
  5
39
330
2
100
AcDbEntity
  8
HALFEN
100
AcDbLine
 10
553.750000000002
 20
1895.589746528186
 30
0.0
 11
576.2508333333354
 21
1895.589746528186
 31
0.0
  0
LINE
  5
3A
330
2
100
AcDbEntity
  8
HALFEN
  6
MITTE2
 62
     1
100
AcDbLine
 10
577.6000000000019
 20
1904.589746528186
 30
0.0
 11
561.600000000002
 21
1904.589746528186
 31
0.0
  0
LINE
  5
3C
330
2
100
AcDbEntity
  8
HALFEN
100
AcDbLine
 10
574.891502622131
 20
1898.589746528186
 30
0.0
 11
583.4258333333354
 21
1898.589746528186
 31
0.0
  0
LINE
  5
3D
330
2
100
AcDbEntity
  8
HALFEN
100
AcDbLine
 10
569.6000000000021
 20
2043.514247299698
 30
0.0
 11
583.4258333333354
 21
2043.514247299698
 31
0.0
  0
LINE
  5
3E
330
2
100
AcDbEntity
  8
HALFEN
  6
MITTE2
 62
     1
100
AcDbLine
 10
575.600000000002
 20
2049.514247299699
 30
0.0
 11
563.600000000002
 21
2049.514247299699
 31
0.0
  0
LINE
  5
3F
330
2
100
AcDbEntity
  8
HALFEN
100
AcDbLine
 10
553.750000000002
 20
2040.514247299698
 30
0.0
 11
576.2508333333354
 21
2040.514247299698
 31
0.0
  0
LINE
  5
40
330
2
100
AcDbEntity
  8
HALFEN
100
AcDbLine
 10
585.7796176328467
 20
2062.461875708836
 30
0.0
 11
553.9260825127899
 21
2056.954059837933
 31
0.0
  0
LINE
  5
41
330
2
100
AcDbEntity
  8
HALFEN
100
AcDbLine
 10
554.2741666666688
 20
2057.014247299699
 30
0.0
 11
586.950000000002
 21
2057.014247299699
 31
0.0
  0
LINE
  5
42
330
2
100
AcDbEntity
  8
HALFEN
100
AcDbLine
 10
555.7741666666686
 20
2055.514247299699
 30
0.0
 11
585.4500000000021
 21
2055.514247299699
 31
0.0
  0
LINE
  5
43
330
2
100
AcDbEntity
  8
HALFEN
100
AcDbLine
 10
562.9491666666689
 20
2058.514247299699
 30
0.0
 11
585.4500000000021
 21
2058.514247299699
 31
0.0
  0
LINE
  5
44
330
2
100
AcDbEntity
  8
HALFEN
100
AcDbLine
 10
552.250000000002
 20
2042.014247299698
 30
0.0
 11
584.9258333333355
 21
2042.014247299698
 31
0.0
  0
LINE
  5
45
330
2
100
AcDbEntity
  8
HALFEN
100
AcDbLine
 10
585.2739174872141
 20
2042.074434761464
 30
0.0
 11
553.4203823671572
 21
2036.566618890561
 31
0.0
  0
LINE
  5
46
330
2
100
AcDbEntity
  8
HALFEN
100
AcDbLine
 10
571.6241666666688
 20
2060.014247299699
 30
0.0
 11
586.950000000002
 21
2060.014247299699
 31
0.0
  0
LINE
  5
47
330
2
100
AcDbEntity
  8
HALFEN
100
AcDbLine
 10
586.950000000002
 20
2083.976497685455
 30
0.0
 11
552.250000000002
 21
2083.976497685455
 31
0.0
  0
LINE
  5
48
330
2
100
AcDbEntity
  8
HALFEN
100
AcDbLine
 10
553.250000000002
 20
2091.476497685455
 30
0.0
 11
585.9500000000021
 21
2091.476497685455
 31
0.0
  0
LINE
  5
49
330
2
100
AcDbEntity
  8
HALFEN
100
AcDbLine
 10
553.693375672976
 20
2082.476497685455
 30
0.0
 11
585.506624327028
 21
2082.476497685455
 31
0.0
  0
TEXT
  5
4A
330
2
100
AcDbEntity
  8
HALFEN
100
AcDbText
 10
552.250000000002
 20
1989.051996913942
 30
0.0
 40
5.0
  1
gv 8.8
  7
ARIAL50
100
AcDbText
  0
LINE
  5
4B
330
2
100
AcDbEntity
  8
HALFEN
100
AcDbLine
 10
553.750000000002
 20
1898.589746528186
 30
0.0
 11
564.3084973778726
 21
1898.589746528186
 31
0.0
  0
LINE
  5
4C
330
2
100
AcDbEntity
  8
HALFEN
100
AcDbLine
 10
552.250000000002
 20
1894.089746528186
 30
0.0
 11
567.5758333333353
 21
1894.089746528186
 31
0.0
  0
LINE
  5
4D
330
2
100
AcDbEntity
  8
HALFEN
100
AcDbLine
 10
553.750000000002
 20
1892.589746528186
 30
0.0
 11
558.9008333333354
 21
1892.589746528186
 31
0.0
  0
LINE
  5
4E
330
2
100
AcDbEntity
  8
HALFEN
100
AcDbLine
 10
553.7500000000021
 20
1901.589746528186
 30
0.0
 11
562.1838015129063
 21
1901.589746528185
 31
0.0
  0
LINE
  5
4F
330
2
100
AcDbEntity
  8
HALFEN
100
AcDbLine
 10
552.250000000002
 20
1900.089746528186
 30
0.0
 11
562.9856217223403
 21
1900.089746528186
 31
0.0
  0
LINE
  5
50
330
2
100
AcDbEntity
  8
HALFEN
100
AcDbLine
 10
554.3437325158635
 20
1907.589746528186
 30
0.0
 11
562.1838015129061
 21
1907.589746528186
 31
0.0
  0
LINE
  5
51
330
2
100
AcDbEntity
  8
HALFEN
100
AcDbLine
 10
553.8149631183521
 20
1904.589746528186
 30
0.0
 11
561.600000000002
 21
1904.589746528186
 31
0.0
  0
LINE
  5
52
330
2
100
AcDbEntity
  8
HALFEN
100
AcDbLine
 10
552.3149631183521
 20
1906.089746528186
 30
0.0
 11
561.7418831772511
 21
1906.089746528186
 31
0.0
  0
LINE
  5
53
330
2
100
AcDbEntity
  8
HALFEN
100
AcDbLine
 10
552.250000000002
 20
1903.089746528186
 30
0.0
 11
561.7418831772511
 21
1903.089746528186
 31
0.0
  0
LINE
  5
54
330
2
100
AcDbEntity
  8
HALFEN
100
AcDbLine
 10
552.8437325158635
 20
1909.089746528186
 30
0.0
 11
562.9856217223404
 21
1909.089746528186
 31
0.0
  0
LINE
  5
55
330
2
100
AcDbEntity
  8
HALFEN
100
AcDbLine
 10
553.693375672976
 20
1937.551996913942
 30
0.0
 11
559.4437426345234
 21
1937.551996913942
 31
0.0
1001
AME_SOL
1070
     0
1071
        0
  0
LINE
  5
57
330
2
100
AcDbEntity
  8
HALFEN
100
AcDbLine
 10
555.7741666666686
 20
1910.589746528186
 30
0.0
 11
554.2741666666686
 21
1912.089746528186
 31
0.0
  0
LINE
  5
58
330
2
100
AcDbEntity
  8
HALFEN
100
AcDbLine
 10
552.8437325158635
 20
1909.089746528186
 30
0.0
 11
555.7741666666686
 21
1910.589746528186
 31
0.0
  0
LINE
  5
59
330
2
100
AcDbEntity
  8
HALFEN
100
AcDbLine
 10
552.250000000002
 20
1945.551996913942
 30
0.0
 11
552.250000000002
 21
1939.051996913942
 31
0.0
  0
LINE
  5
5A
330
2
100
AcDbEntity
  8
HALFEN
100
AcDbLine
 10
553.9260825127899
 20
1939.051996913942
 30
0.0
 11
553.9260825127899
 21
1945.551996913942
 31
0.0
  0
ARC
  5
5B
330
2
100
AcDbEntity
  8
HALFEN
100
AcDbCircle
 10
569.6000000000021
 20
1904.589746528186
 30
0.0
 40
17.34999999999998
100
AcDbArc
 50
154.6080863011853
 51
180.0
  0
LINE
  5
5C
330
2
100
AcDbEntity
  8
HALFEN
100
AcDbLine
 10
554.3437325158635
 20
1907.589746528186
 30
0.0
 11
552.8437325158635
 21
1909.089746528186
 31
0.0
  0
LINE
  5
5D
330
2
100
AcDbEntity
  8
HALFEN
100
AcDbLine
 10
553.750000000002
 20
1901.589746528186
 30
0.0
 11
552.250000000002
 21
1903.089746528186
 31
0.0
  0
LINE
  5
5E
330
2
100
AcDbEntity
  8
HALFEN
100
AcDbLine
 10
553.750000000002
 20
1898.589746528186
 30
0.0
 11
552.250000000002
 21
1900.089746528186
 31
0.0
  0
LINE
  5
5F
330
2
100
AcDbEntity
  8
HALFEN
100
AcDbLine
 10
552.250000000002
 20
1900.089746528186
 30
0.0
 11
553.750000000002
 21
1901.589746528186
 31
0.0
  0
LINE
  5
60
330
2
100
AcDbEntity
  8
HALFEN
100
AcDbLine
 10
552.250000000002
 20
1903.089746528186
 30
0.0
 11
553.8149631183521
 21
1904.589746528186
 31
0.0
  0
LINE
  5
61
330
2
100
AcDbEntity
  8
HALFEN
100
AcDbLine
 10
553.8149631183521
 20
1904.589746528186
 30
0.0
 11
552.3149631183521
 21
1906.089746528186
 31
0.0
  0
LINE
  5
62
330
2
100
AcDbEntity
  8
HALFEN
100
AcDbLine
 10
552.3149631183521
 20
1906.089746528186
 30
0.0
 11
554.3437325158635
 21
1907.589746528186
 31
0.0
  0
LINE
  5
63
330
2
100
AcDbEntity
  8
HALFEN
100
AcDbLine
 10
553.693375672976
 20
1937.551996913942
 30
0.0
 11
552.250000000002
 21
1939.051996913942
 31
0.0
  0
LINE
  5
64
330
2
100
AcDbEntity
  8
HALFEN
100
AcDbLine
 10
555.369458185764
 20
1937.551996913942
 30
0.0
 11
553.9260825127899
 21
1939.051996913942
 31
0.0
  0
LINE
  5
65
330
2
100
AcDbEntity
  8
HALFEN
100
AcDbLine
 10
553.750000000002
 20
1895.589746528186
 30
0.0
 11
552.250000000002
 21
1897.089746528186
 31
0.0
  0
ARC
  5
66
330
2
100
AcDbEntity
  8
HALFEN
100
AcDbCircle
 10
553.250000000002
 20
1892.62749614243
 30
0.0
 40
1.0
100
AcDbArc
 50
180.0
 51
279.8100514277674
  0
LINE
  5
67
330
2
100
AcDbEntity
  8
HALFEN
100
AcDbLine
 10
552.250000000002
 20
1894.089746528186
 30
0.0
 11
553.750000000002
 21
1895.589746528186
 31
0.0
  0
LINE
  5
68
330
2
100
AcDbEntity
  8
HALFEN
100
AcDbLine
 10
553.750000000002
 20
1892.589746528186
 30
0.0
 11
552.250000000002
 21
1894.089746528186
 31
0.0
  0
LINE
  5
69
330
2
100
AcDbEntity
  8
HALFEN
100
AcDbLine
 10
552.250000000002
 20
1892.62749614243
 30
0.0
 11
552.250000000002
 21
1904.589746528186
 31
0.0
  0
LINE
  5
6A
330
2
100
AcDbEntity
  8
HALFEN
100
AcDbLine
 10
552.250000000002
 20
1897.089746528186
 30
0.0
 11
553.750000000002
 21
1898.589746528186
 31
0.0
  0
LINE
  5
6B
330
2
100
AcDbEntity
  8
HALFEN
100
AcDbLine
 10
552.250000000002
 20
1966.551996913942
 30
0.0
 11
552.250000000002
 21
1986.551996913942
 31
0.0
  0
ARC
  5
6C
330
2
100
AcDbEntity
  8
HALFEN
100
AcDbCircle
 10
553.250000000002
 20
1945.551996913942
 30
0.0
 40
1.0
100
AcDbArc
 50
90.00000000000003
 51
180.0
  0
ARC
  5
6D
330
2
100
AcDbEntity
  8
HALFEN
100
AcDbCircle
 10
554.92608251279
 20
1945.551996913942
 30
0.0
 40
1.0
100
AcDbArc
 50
90.0
 51
180.0
  0
LINE
  5
6E
330
2
100
AcDbEntity
  8
HALFEN
  6
MITTE2
 62
     1
100
AcDbLine
 10
569.6000000000021
 20
1937.551996913942
 30
0.0
 11
569.6000000000021
 21
1946.551996913943
 31
0.0
  0
LINE
  5
6F
330
2
100
AcDbEntity
  8
HALFEN
  6
MITTE2
 62
     1
100
AcDbLine
 10
569.6000000000021
 20
1914.739746528186
 30
0.0
 11
569.6000000000019
 21
1894.439746528186
 31
0.0
  0
LINE
  5
70
330
2
100
AcDbEntity
  8
HALFEN
100
AcDbLine
 10
552.8437325158635
 20
2054.014247299699
 30
0.0
 11
555.7741666666686
 21
2055.514247299699
 31
0.0
  0
LINE
  5
71
330
2
100
AcDbEntity
  8
HALFEN
100
AcDbLine
 10
555.7741666666686
 20
2055.514247299699
 30
0.0
 11
554.2741666666686
 21
2057.014247299699
 31
0.0
  0
LINE
  5
72
330
2
100
AcDbEntity
  8
HALFEN
100
AcDbLine
 10
553.693375672976
 20
2082.476497685455
 30
0.0
 11
559.4437426345234
 21
2082.476497685455
 31
0.0
1001
AME_SOL
1070
     0
1071
        0
  0
LINE
  5
73
330
2
100
AcDbEntity
  8
HALFEN
100
AcDbLine
 10
552.8437325158635
 20
2054.014247299699
 30
0.0
 11
565.6313730334052
 21
2054.014247299699
 31
0.0
  0
LINE
  5
74
330
2
100
AcDbEntity
  8
HALFEN
100
AcDbLine
 10
552.250000000002
 20
2048.014247299699
 30
0.0
 11
563.790524980691
 21
2048.014247299699
 31
0.0
  0
LINE
  5
75
330
2
100
AcDbEntity
  8
HALFEN
100
AcDbLine
 10
552.3149631183521
 20
2051.014247299699
 30
0.0
 11
563.790524980691
 21
2051.014247299699
 31
0.0
  0
LINE
  5
76
330
2
100
AcDbEntity
  8
HALFEN
100
AcDbLine
 10
553.8149631183521
 20
2049.514247299699
 30
0.0
 11
563.600000000002
 21
2049.514247299699
 31
0.0
  0
LINE
  5
77
330
2
100
AcDbEntity
  8
HALFEN
100
AcDbLine
 10
554.3437325158635
 20
2052.514247299699
 30
0.0
 11
564.4038475772954
 21
2052.514247299699
 31
0.0
  0
LINE
  5
78
330
2
100
AcDbEntity
  8
HALFEN
100
AcDbLine
 10
552.250000000002
 20
2045.014247299699
 30
0.0
 11
565.631373033405
 21
2045.014247299699
 31
0.0
  0
LINE
  5
79
330
2
100
AcDbEntity
  8
HALFEN
100
AcDbLine
 10
553.7500000000021
 20
2046.514247299699
 30
0.0
 11
564.4038475772954
 21
2046.514247299699
 31
0.0
  0
LINE
  5
7A
330
2
100
AcDbEntity
  8
HALFEN
100
AcDbLine
 10
553.750000000002
 20
2037.514247299699
 30
0.0
 11
558.9008333333354
 21
2037.514247299699
 31
0.0
  0
LINE
  5
7B
330
2
100
AcDbEntity
  8
HALFEN
100
AcDbLine
 10
552.250000000002
 20
2039.014247299698
 30
0.0
 11
567.5758333333353
 21
2039.014247299698
 31
0.0
  0
LINE
  5
7C
330
2
100
AcDbEntity
  8
HALFEN
100
AcDbLine
 10
553.750000000002
 20
2043.514247299698
 30
0.0
 11
569.6000000000021
 21
2043.514247299698
 31
0.0
  0
LINE
  5
7D
330
2
100
AcDbEntity
  8
HALFEN
100
AcDbLine
 10
552.250000000002
 20
2042.014247299698
 30
0.0
 11
553.750000000002
 21
2043.514247299698
 31
0.0
  0
LINE
  5
7E
330
2
100
AcDbEntity
  8
HALFEN
100
AcDbLine
 10
552.250000000002
 20
2037.551996913942
 30
0.0
 11
552.250000000002
 21
2049.514247299699
 31
0.0
  0
LINE
  5
7F
330
2
100
AcDbEntity
  8
HALFEN
100
AcDbLine
 10
553.750000000002
 20
2037.514247299699
 30
0.0
 11
552.250000000002
 21
2039.014247299698
 31
0.0
  0
LINE
  5
80
330
2
100
AcDbEntity
  8
HALFEN
100
AcDbLine
 10
552.250000000002
 20
2039.014247299698
 30
0.0
 11
553.750000000002
 21
2040.514247299698
 31
0.0
  0
ARC
  5
81
330
2
100
AcDbEntity
  8
HALFEN
100
AcDbCircle
 10
553.250000000002
 20
2037.551996913942
 30
0.0
 40
1.0
100
AcDbArc
 50
180.0
 51
279.8100514277674
  0
LINE
  5
82
330
2
100
AcDbEntity
  8
HALFEN
100
AcDbLine
 10
553.750000000002
 20
2040.514247299698
 30
0.0
 11
552.250000000002
 21
2042.014247299698
 31
0.0
  0
ARC
  5
83
330
2
100
AcDbEntity
  8
HALFEN
100
AcDbCircle
 10
554.92608251279
 20
2090.476497685455
 30
0.0
 40
1.0
100
AcDbArc
 50
90.0
 51
180.0
  0
LINE
  5
84
330
2
100
AcDbEntity
  8
HALFEN
100
AcDbLine
 10
555.369458185764
 20
2082.476497685455
 30
0.0
 11
553.9260825127899
 21
2083.976497685455
 31
0.0
  0
LINE
  5
85
330
2
100
AcDbEntity
  8
HALFEN
100
AcDbLine
 10
553.9260825127899
 20
2083.976497685455
 30
0.0
 11
553.9260825127899
 21
2090.476497685455
 31
0.0
  0
ARC
  5
86
330
2
100
AcDbEntity
  8
HALFEN
100
AcDbCircle
 10
553.250000000002
 20
2090.476497685455
 30
0.0
 40
1.0
100
AcDbArc
 50
90.00000000000003
 51
180.0
  0
LINE
  5
87
330
2
100
AcDbEntity
  8
HALFEN
100
AcDbLine
 10
552.250000000002
 20
2090.476497685455
 30
0.0
 11
552.250000000002
 21
2083.976497685455
 31
0.0
  0
LINE
  5
88
330
2
100
AcDbEntity
  8
HALFEN
100
AcDbLine
 10
553.693375672976
 20
2082.476497685455
 30
0.0
 11
552.250000000002
 21
2083.976497685455
 31
0.0
  0
LINE
  5
89
330
2
100
AcDbEntity
  8
HALFEN
100
AcDbLine
 10
552.3149631183521
 20
2051.014247299699
 30
0.0
 11
554.3437325158635
 21
2052.514247299699
 31
0.0
  0
LINE
  5
8A
330
2
100
AcDbEntity
  8
HALFEN
100
AcDbLine
 10
553.8149631183521
 20
2049.514247299699
 30
0.0
 11
552.3149631183521
 21
2051.014247299699
 31
0.0
  0
LINE
  5
8B
330
2
100
AcDbEntity
  8
HALFEN
100
AcDbLine
 10
552.250000000002
 20
2048.014247299699
 30
0.0
 11
553.8149631183521
 21
2049.514247299699
 31
0.0
  0
LINE
  5
8C
330
2
100
AcDbEntity
  8
HALFEN
100
AcDbLine
 10
552.250000000002
 20
2045.014247299699
 30
0.0
 11
553.750000000002
 21
2046.514247299699
 31
0.0
  0
LINE
  5
8D
330
2
100
AcDbEntity
  8
HALFEN
100
AcDbLine
 10
553.750000000002
 20
2043.514247299698
 30
0.0
 11
552.250000000002
 21
2045.014247299699
 31
0.0
  0
LINE
  5
8E
330
2
100
AcDbEntity
  8
HALFEN
100
AcDbLine
 10
553.750000000002
 20
2046.514247299699
 30
0.0
 11
552.250000000002
 21
2048.014247299699
 31
0.0
  0
LINE
  5
8F
330
2
100
AcDbEntity
  8
HALFEN
100
AcDbLine
 10
554.3437325158635
 20
2052.514247299699
 30
0.0
 11
552.8437325158635
 21
2054.014247299699
 31
0.0
  0
ARC
  5
90
330
2
100
AcDbEntity
  8
HALFEN
100
AcDbCircle
 10
569.6000000000021
 20
2049.514247299699
 30
0.0
 40
17.34999999999998
100
AcDbArc
 50
154.6080863011853
 51
180.0
  0
LINE
  5
91
330
2
100
AcDbEntity
  8
HALFEN
  6
MITTE2
 62
     1
100
AcDbLine
 10
569.6000000000021
 20
2059.664247299699
 30
0.0
 11
569.6000000000019
 21
2039.364247299698
 31
0.0
  0
LINE
  5
92
330
2
100
AcDbEntity
  8
HALFEN
  6
MITTE2
 62
     1
100
AcDbLine
 10
569.6000000000021
 20
2082.476497685455
 30
0.0
 11
569.6000000000021
 21
2091.476497685455
 31
0.0
  0
TEXT
  5
93
330
2
100
AcDbEntity
  8
HALFEN
100
AcDbText
 10
607.250000000002
 20
1979.051996913942
 30
0.0
 40
5.0
  1
GWP 41/22 - gv8.8 - M 16
  7
ARIAL50
100
AcDbText
  0
LINE
  5
94
330
2
100
AcDbEntity
  8
HALFEN
100
AcDbLine
 10
586.950000000002
 20
1945.551996913942
 30
0.0
 11
586.950000000002
 21
1939.051996913942
 31
0.0
  0
LINE
  5
95
330
2
100
AcDbEntity
  8
HALFEN
100
AcDbLine
 10
580.2991666666687
 20
1916.589746528186
 30
0.0
 11
585.4500000000021
 21
1916.589746528186
 31
0.0
  0
LINE
  5
96
330
2
100
AcDbEntity
  8
HALFEN
100
AcDbLine
 10
577.0161984870976
 20
1901.589746528186
 30
0.0
 11
584.8562674841405
 21
1901.589746528186
 31
0.0
  0
LINE
  5
97
330
2
100
AcDbEntity
  8
HALFEN
100
AcDbLine
 10
576.2143782776633
 20
1900.089746528186
 30
0.0
 11
586.3562674841406
 21
1900.089746528186
 31
0.0
  0
LINE
  5
98
330
2
100
AcDbEntity
  8
HALFEN
100
AcDbLine
 10
577.0161984870975
 20
1907.589746528186
 30
0.0
 11
585.4500000000021
 21
1907.589746528186
 31
0.0
  0
LINE
  5
99
330
2
100
AcDbEntity
  8
HALFEN
100
AcDbLine
 10
577.6000000000019
 20
1904.589746528186
 30
0.0
 11
585.3850368816519
 21
1904.589746528186
 31
0.0
  0
LINE
  5
9A
330
2
100
AcDbEntity
  8
HALFEN
100
AcDbLine
 10
577.4581168227528
 20
1903.089746528186
 30
0.0
 11
586.885036881652
 21
1903.089746528186
 31
0.0
  0
LINE
  5
9B
330
2
100
AcDbEntity
  8
HALFEN
100
AcDbLine
 10
577.4581168227528
 20
1906.089746528186
 30
0.0
 11
586.950000000002
 21
1906.089746528186
 31
0.0
  0
LINE
  5
9C
330
2
100
AcDbEntity
  8
HALFEN
100
AcDbLine
 10
576.2143782776635
 20
1909.089746528186
 30
0.0
 11
586.950000000002
 21
1909.089746528186
 31
0.0
  0
LINE
  5
9D
330
2
100
AcDbEntity
  8
HALFEN
100
AcDbLine
 10
586.3562674841406
 20
1900.089746528186
 30
0.0
 11
583.4258333333354
 21
1898.589746528186
 31
0.0
  0
LINE
  5
9E
330
2
100
AcDbEntity
  8
HALFEN
100
AcDbLine
 10
586.950000000002
 20
1909.089746528186
 30
0.0
 11
585.4500000000021
 21
1907.589746528186
 31
0.0
  0
LINE
  5
9F
330
2
100
AcDbEntity
  8
HALFEN
100
AcDbLine
 10
586.950000000002
 20
1904.589746528186
 30
0.0
 11
586.950000000002
 21
1916.551996913942
 31
0.0
  0
LINE
  5
A0
330
2
100
AcDbEntity
  8
HALFEN
100
AcDbLine
 10
586.885036881652
 20
1903.089746528186
 30
0.0
 11
584.8562674841406
 21
1901.589746528186
 31
0.0
  0
LINE
  5
A1
330
2
100
AcDbEntity
  8
HALFEN
100
AcDbLine
 10
584.8562674841406
 20
1901.589746528186
 30
0.0
 11
586.3562674841406
 21
1900.089746528186
 31
0.0
  0
LINE
  5
A2
330
2
100
AcDbEntity
  8
HALFEN
100
AcDbLine
 10
586.950000000002
 20
1906.089746528186
 30
0.0
 11
585.3850368816519
 21
1904.589746528186
 31
0.0
  0
LINE
  5
A3
330
2
100
AcDbEntity
  8
HALFEN
100
AcDbLine
 10
585.3850368816519
 20
1904.589746528186
 30
0.0
 11
586.885036881652
 21
1903.089746528186
 31
0.0
  0
LINE
  5
A4
330
2
100
AcDbEntity
  8
HALFEN
100
AcDbLine
 10
585.4500000000021
 20
1907.589746528186
 30
0.0
 11
586.950000000002
 21
1906.089746528186
 31
0.0
  0
LINE
  5
A5
330
2
100
AcDbEntity
  8
HALFEN
100
AcDbLine
 10
586.950000000002
 20
1939.051996913942
 30
0.0
 11
585.506624327028
 21
1937.551996913942
 31
0.0
  0
ARC
  5
A6
330
2
100
AcDbEntity
  8
HALFEN
100
AcDbCircle
 10
585.9500000000021
 20
1916.551996913942
 30
0.0
 40
1.0
100
AcDbArc
 50
0.0
 51
99.81005142776737
  0
LINE
  5
A7
330
2
100
AcDbEntity
  8
HALFEN
100
AcDbLine
 10
585.4500000000021
 20
1916.589746528186
 30
0.0
 11
586.950000000002
 21
1915.089746528186
 31
0.0
  0
LINE
  5
A8
330
2
100
AcDbEntity
  8
HALFEN
100
AcDbLine
 10
586.950000000002
 20
1912.089746528186
 30
0.0
 11
585.4500000000021
 21
1910.589746528186
 31
0.0
  0
LINE
  5
A9
330
2
100
AcDbEntity
  8
HALFEN
100
AcDbLine
 10
585.4500000000021
 20
1910.589746528186
 30
0.0
 11
586.950000000002
 21
1909.089746528186
 31
0.0
  0
LINE
  5
AA
330
2
100
AcDbEntity
  8
HALFEN
100
AcDbLine
 10
585.4500000000021
 20
1913.589746528186
 30
0.0
 11
586.950000000002
 21
1912.089746528186
 31
0.0
  0
LINE
  5
AB
330
2
100
AcDbEntity
  8
HALFEN
100
AcDbLine
 10
586.950000000002
 20
1915.089746528186
 30
0.0
 11
585.4500000000021
 21
1913.589746528186
 31
0.0
  0
LINE
  5
AC
330
2
100
AcDbEntity
  8
HALFEN
100
AcDbLine
 10
583.4258333333354
 20
1898.589746528186
 30
0.0
 11
584.9258333333355
 21
1897.089746528186
 31
0.0
  0
ARC
  5
AD
330
2
100
AcDbEntity
  8
HALFEN
100
AcDbCircle
 10
569.6000000000021
 20
1904.589746528186
 30
0.0
 40
17.34999999999998
100
AcDbArc
 50
334.6080863011853
 51
0.0
  0
ARC
  5
AE
330
2
100
AcDbEntity
  8
HALFEN
100
AcDbCircle
 10
585.9500000000021
 20
1945.551996913942
 30
0.0
 40
1.0
100
AcDbArc
 50
0.0
 51
90.0
  0
LINE
  5
AF
330
2
100
AcDbEntity
  8
HALFEN
100
AcDbLine
 10
602.250000000002
 20
1966.551996913942
 30
0.0
 11
602.250000000002
 21
1986.551996913942
 31
0.0
  0
ARC
  5
B0
330
2
100
AcDbEntity
  8
HALFEN
100
AcDbCircle
 10
569.6000000000021
 20
2049.514247299699
 30
0.0
 40
17.34999999999998
100
AcDbArc
 50
334.6080863011853
 51
0.0
  0
LINE
  5
B1
330
2
100
AcDbEntity
  8
HALFEN
100
AcDbLine
 10
583.4258333333354
 20
2043.514247299698
 30
0.0
 11
584.9258333333355
 21
2042.014247299698
 31
0.0
  0
LINE
  5
B2
330
2
100
AcDbEntity
  8
HALFEN
100
AcDbLine
 10
573.568626966599
 20
2054.014247299699
 30
0.0
 11
586.950000000002
 21
2054.014247299699
 31
0.0
  0
LINE
  5
B3
330
2
100
AcDbEntity
  8
HALFEN
100
AcDbLine
 10
575.4094750193131
 20
2051.014247299699
 30
0.0
 11
586.950000000002
 21
2051.014247299699
 31
0.0
  0
LINE
  5
B4
330
2
100
AcDbEntity
  8
HALFEN
100
AcDbLine
 10
575.4094750193131
 20
2048.014247299699
 30
0.0
 11
586.885036881652
 21
2048.014247299699
 31
0.0
  0
LINE
  5
B5
330
2
100
AcDbEntity
  8
HALFEN
100
AcDbLine
 10
575.600000000002
 20
2049.514247299699
 30
0.0
 11
585.3850368816519
 21
2049.514247299699
 31
0.0
  0
LINE
  5
B6
330
2
100
AcDbEntity
  8
HALFEN
100
AcDbLine
 10
574.7961524227086
 20
2052.514247299699
 30
0.0
 11
585.4500000000021
 21
2052.514247299699
 31
0.0
  0
LINE
  5
B7
330
2
100
AcDbEntity
  8
HALFEN
100
AcDbLine
 10
573.568626966599
 20
2045.014247299699
 30
0.0
 11
586.3562674841406
 21
2045.014247299699
 31
0.0
  0
LINE
  5
B8
330
2
100
AcDbEntity
  8
HALFEN
100
AcDbLine
 10
574.7961524227086
 20
2046.514247299699
 30
0.0
 11
584.8562674841405
 21
2046.514247299699
 31
0.0
  0
LINE
  5
B9
330
2
100
AcDbEntity
  8
HALFEN
100
AcDbLine
 10
580.2991666666687
 20
2061.514247299699
 30
0.0
 11
585.4500000000021
 21
2061.514247299699
 31
0.0
  0
LINE
  5
BA
330
2
100
AcDbEntity
  8
HALFEN
100
AcDbLine
 10
586.950000000002
 20
2060.014247299699
 30
0.0
 11
585.4500000000021
 21
2058.514247299699
 31
0.0
  0
LINE
  5
BB
330
2
100
AcDbEntity
  8
HALFEN
100
AcDbLine
 10
585.4500000000021
 20
2058.514247299699
 30
0.0
 11
586.950000000002
 21
2057.014247299699
 31
0.0
  0
LINE
  5
BC
330
2
100
AcDbEntity
  8
HALFEN
100
AcDbLine
 10
585.4500000000021
 20
2055.514247299699
 30
0.0
 11
586.950000000002
 21
2054.014247299699
 31
0.0
  0
LINE
  5
BD
330
2
100
AcDbEntity
  8
HALFEN
100
AcDbLine
 10
586.950000000002
 20
2057.014247299699
 30
0.0
 11
585.4500000000021
 21
2055.514247299699
 31
0.0
  0
LINE
  5
BE
330
2
100
AcDbEntity
  8
HALFEN
100
AcDbLine
 10
585.4500000000021
 20
2061.514247299699
 30
0.0
 11
586.950000000002
 21
2060.014247299699
 31
0.0
  0
ARC
  5
BF
330
2
100
AcDbEntity
  8
HALFEN
100
AcDbCircle
 10
585.9500000000021
 20
2061.476497685455
 30
0.0
 40
1.0
100
AcDbArc
 50
0.0
 51
99.81005142776737
  0
LINE
  5
C0
330
2
100
AcDbEntity
  8
HALFEN
100
AcDbLine
 10
586.950000000002
 20
2090.476497685455
 30
0.0
 11
586.950000000002
 21
2083.976497685455
 31
0.0
  0
LINE
  5
C1
330
2
100
AcDbEntity
  8
HALFEN
100
AcDbLine
 10
586.950000000002
 20
2083.976497685455
 30
0.0
 11
585.506624327028
 21
2082.476497685455
 31
0.0
  0
ARC
  5
C2
330
2
100
AcDbEntity
  8
HALFEN
100
AcDbCircle
 10
585.9500000000021
 20
2090.476497685455
 30
0.0
 40
1.0
100
AcDbArc
 50
0.0
 51
90.0
  0
LINE
  5
C3
330
2
100
AcDbEntity
  8
HALFEN
100
AcDbLine
 10
585.4500000000021
 20
2052.514247299699
 30
0.0
 11
586.950000000002
 21
2051.014247299699
 31
0.0
  0
LINE
  5
C4
330
2
100
AcDbEntity
  8
HALFEN
100
AcDbLine
 10
585.3850368816519
 20
2049.514247299699
 30
0.0
 11
586.885036881652
 21
2048.014247299699
 31
0.0
  0
LINE
  5
C5
330
2
100
AcDbEntity
  8
HALFEN
100
AcDbLine
 10
586.950000000002
 20
2051.014247299699
 30
0.0
 11
585.3850368816519
 21
2049.514247299699
 31
0.0
  0
LINE
  5
C6
330
2
100
AcDbEntity
  8
HALFEN
100
AcDbLine
 10
584.8562674841406
 20
2046.514247299699
 30
0.0
 11
586.3562674841406
 21
2045.014247299699
 31
0.0
  0
LINE
  5
C7
330
2
100
AcDbEntity
  8
HALFEN
100
AcDbLine
 10
586.885036881652
 20
2048.014247299699
 30
0.0
 11
584.8562674841406
 21
2046.514247299699
 31
0.0
  0
LINE
  5
C8
330
2
100
AcDbEntity
  8
HALFEN
100
AcDbLine
 10
586.950000000002
 20
2049.514247299699
 30
0.0
 11
586.950000000002
 21
2061.476497685455
 31
0.0
  0
LINE
  5
C9
330
2
100
AcDbEntity
  8
HALFEN
100
AcDbLine
 10
586.950000000002
 20
2054.014247299699
 30
0.0
 11
585.4500000000021
 21
2052.514247299699
 31
0.0
  0
LINE
  5
CA
330
2
100
AcDbEntity
  8
HALFEN
100
AcDbLine
 10
586.3562674841406
 20
2045.014247299699
 30
0.0
 11
583.4258333333354
 21
2043.514247299698
 31
0.0
  0
TEXT
  5
CB
330
2
100
AcDbEntity
  8
HALFEN
100
AcDbText
 10
607.250000000002
 20
1969.051996913942
 30
0.0
 40
5.0
  1
0380.060-00005
  7
ARIAL50
100
AcDbText
  0
LINE
  5
CC
330
2
100
AcDbEntity
  8
HALFEN
100
AcDbLine
 10
607.950000000002
 20
1946.551996913942
 30
0.0
 11
632.0622503857582
 21
1946.551996913942
 31
0.0
  0
LINE
  5
CD
330
2
100
AcDbEntity
  8
HALFEN
100
AcDbLine
 10
606.950000000002
 20
1939.051996913942
 30
0.0
 11
633.0622503857584
 21
1939.051996913942
 31
0.0
  0
LINE
  5
CE
330
2
100
AcDbEntity
  8
HALFEN
100
AcDbLine
 10
622.9122503857582
 20
1937.551996913942
 30
0.0
 11
624.4122503857583
 21
1939.051996913942
 31
0.0
  0
LINE
  5
CF
330
2
100
AcDbEntity
  8
HALFEN
100
AcDbLine
 10
606.950000000002
 20
1945.551996913942
 30
0.0
 11
606.950000000002
 21
1939.051996913942
 31
0.0
  0
ARC
  5
D0
330
2
100
AcDbEntity
  8
HALFEN
 62
     1
100
AcDbCircle
 10
569.6000000000019
 20
1904.589746528186
 30
0.0
 40
8.0
100
AcDbArc
 50
280.0000000000001
 51
210.0
  0
CIRCLE
  5
D1
330
2
100
AcDbEntity
  8
HALFEN
100
AcDbCircle
 10
569.6000000000019
 20
1904.589746528186
 30
0.0
 40
6.917500000000001
  0
LINE
  5
D2
330
2
100
AcDbEntity
  8
HALFEN
100
AcDbLine
 10
613.9122503857582
 20
1937.551996913942
 30
0.0
 11
615.4122503857583
 21
1939.051996913942
 31
0.0
  0
LINE
  5
D3
330
2
100
AcDbEntity
  8
HALFEN
100
AcDbLine
 10
607.9122503857583
 20
1937.551996913942
 30
0.0
 11
609.4122503857582
 21
1939.051996913942
 31
0.0
  0
LINE
  5
D4
330
2
100
AcDbEntity
  8
HALFEN
100
AcDbLine
 10
606.950000000002
 20
1939.051996913942
 30
0.0
 11
607.9122503857583
 21
1937.551996913942
 31
0.0
  0
LINE
  5
D5
330
2
100
AcDbEntity
  8
HALFEN
100
AcDbLine
 10
609.4122503857582
 20
1939.051996913942
 30
0.0
 11
610.9122503857583
 21
1937.551996913942
 31
0.0
  0
LINE
  5
D6
330
2
100
AcDbEntity
  8
HALFEN
100
AcDbLine
 10
610.9122503857583
 20
1937.551996913942
 30
0.0
 11
612.4122503857583
 21
1939.051996913942
 31
0.0
  0
LINE
  5
D7
330
2
100
AcDbEntity
  8
HALFEN
100
AcDbLine
 10
612.4122503857583
 20
1939.051996913942
 30
0.0
 11
613.9122503857582
 21
1937.551996913942
 31
0.0
  0
LINE
  5
D8
330
2
100
AcDbEntity
  8
HALFEN
100
AcDbLine
 10
616.9122503857582
 20
1937.551996913942
 30
0.0
 11
618.4122503857582
 21
1939.051996913942
 31
0.0
  0
LINE
  5
D9
330
2
100
AcDbEntity
  8
HALFEN
100
AcDbLine
 10
615.4122503857583
 20
1939.051996913942
 30
0.0
 11
616.9122503857582
 21
1937.551996913942
 31
0.0
  0
LINE
  5
DA
330
2
100
AcDbEntity
  8
HALFEN
100
AcDbLine
 10
621.4122503857582
 20
1939.051996913942
 30
0.0
 11
622.9122503857582
 21
1937.551996913942
 31
0.0
  0
LINE
  5
DB
330
2
100
AcDbEntity
  8
HALFEN
100
AcDbLine
 10
618.4122503857582
 20
1939.051996913942
 30
0.0
 11
619.9122503857583
 21
1937.551996913942
 31
0.0
  0
LINE
  5
DC
330
2
100
AcDbEntity
  8
HALFEN
100
AcDbLine
 10
619.9122503857583
 20
1937.551996913942
 30
0.0
 11
621.4122503857582
 21
1939.051996913942
 31
0.0
  0
ARC
  5
DD
330
2
100
AcDbEntity
  8
HALFEN
100
AcDbCircle
 10
607.950000000002
 20
1945.551996913942
 30
0.0
 40
1.0
100
AcDbArc
 50
90.00000000000005
 51
180.0
  0
LINE
  5
DE
330
2
100
AcDbEntity
  8
HALFEN
100
AcDbLine
 10
633.0622503857583
 20
1945.551996913942
 30
0.0
 11
633.0622503857584
 21
1939.051996913942
 31
0.0
  0
LINE
  5
DF
330
2
100
AcDbEntity
  8
HALFEN
100
AcDbLine
 10
627.4459377311143
 20
1945.551996913942
 30
0.0
 11
627.4459377311144
 21
1939.051996913942
 31
0.0
  0
LINE
  5
E0
330
2
100
AcDbEntity
  8
HALFEN
100
AcDbLine
 10
631.9122503857581
 20
1937.551996913942
 30
0.0
 11
633.0622503857583
 21
1939.051996913942
 31
0.0
  0
LINE
  5
E1
330
2
100
AcDbEntity
  8
HALFEN
100
AcDbLine
 10
624.4122503857584
 20
1939.051996913942
 30
0.0
 11
625.9122503857582
 21
1937.551996913942
 31
0.0
  0
LINE
  5
E2
330
2
100
AcDbEntity
  8
HALFEN
100
AcDbLine
 10
631.9122503857581
 20
1937.551996913942
 30
0.0
 11
630.4122503857581
 21
1939.051996913942
 31
0.0
  0
LINE
  5
E3
330
2
100
AcDbEntity
  8
HALFEN
100
AcDbLine
 10
628.9122503857583
 20
1937.551996913942
 30
0.0
 11
630.4122503857581
 21
1939.051996913942
 31
0.0
  0
LINE
  5
E4
330
2
100
AcDbEntity
  8
HALFEN
100
AcDbLine
 10
625.9122503857583
 20
1937.551996913942
 30
0.0
 11
627.4459377311144
 21
1939.051996913942
 31
0.0
  0
LINE
  5
E5
330
2
100
AcDbEntity
  8
HALFEN
100
AcDbLine
 10
627.4459377311144
 20
1939.051996913942
 30
0.0
 11
628.9122503857583
 21
1937.551996913942
 31
0.0
  0
ARC
  5
E6
330
2
100
AcDbEntity
  8
HALFEN
100
AcDbCircle
 10
626.4459377311143
 20
1945.551996913942
 30
0.0
 40
1.0
100
AcDbArc
 50
0.0
 51
90.0000000000001
  0
ARC
  5
E7
330
2
100
AcDbEntity
  8
HALFEN
100
AcDbCircle
 10
632.0622503857582
 20
1945.551996913942
 30
0.0
 40
1.0
100
AcDbArc
 50
0.0
 51
90.0000000000001
  0
ARC
  5
E8
330
2
100
AcDbEntity
  8
HALFEN
 62
     1
100
AcDbCircle
 10
569.6000000000021
 20
2049.514247299699
 30
0.0
 40
6.0
100
AcDbArc
 50
280.0000000000001
 51
210.0
  0
CIRCLE
  5
E9
330
2
100
AcDbEntity
  8
HALFEN
100
AcDbCircle
 10
569.6000000000021
 20
2049.514247299699
 30
0.0
 40
5.052999999999999
  0
LINE
  5
EA
330
2
100
AcDbEntity
  8
HALFEN
100
AcDbLine
 10
622.9122503857582
 20
2082.476497685455
 30
0.0
 11
624.4122503857583
 21
2083.976497685455
 31
0.0
  0
LINE
  5
EB
330
2
100
AcDbEntity
  8
HALFEN
100
AcDbLine
 10
606.950000000002
 20
2083.976497685455
 30
0.0
 11
633.0622503857584
 21
2083.976497685455
 31
0.0
  0
LINE
  5
EC
330
2
100
AcDbEntity
  8
HALFEN
100
AcDbLine
 10
607.950000000002
 20
2091.476497685455
 30
0.0
 11
632.0622503857582
 21
2091.476497685455
 31
0.0
  0
LINE
  5
ED
330
2
100
AcDbEntity
  8
HALFEN
100
AcDbLine
 10
613.9122503857582
 20
2082.476497685455
 30
0.0
 11
615.4122503857583
 21
2083.976497685455
 31
0.0
  0
LINE
  5
EE
330
2
100
AcDbEntity
  8
HALFEN
100
AcDbLine
 10
612.4122503857583
 20
2083.976497685455
 30
0.0
 11
613.9122503857582
 21
2082.476497685455
 31
0.0
  0
LINE
  5
EF
330
2
100
AcDbEntity
  8
HALFEN
100
AcDbLine
 10
610.9122503857583
 20
2082.476497685455
 30
0.0
 11
612.4122503857583
 21
2083.976497685455
 31
0.0
  0
LINE
  5
F0
330
2
100
AcDbEntity
  8
HALFEN
100
AcDbLine
 10
609.4122503857582
 20
2083.976497685455
 30
0.0
 11
610.9122503857583
 21
2082.476497685455
 31
0.0
  0
LINE
  5
F1
330
2
100
AcDbEntity
  8
HALFEN
100
AcDbLine
 10
606.950000000002
 20
2090.476497685455
 30
0.0
 11
606.950000000002
 21
2083.976497685455
 31
0.0
  0
LINE
  5
F2
330
2
100
AcDbEntity
  8
HALFEN
100
AcDbLine
 10
606.950000000002
 20
2083.976497685455
 30
0.0
 11
607.9122503857583
 21
2082.476497685455
 31
0.0
  0
ARC
  5
F3
330
2
100
AcDbEntity
  8
HALFEN
100
AcDbCircle
 10
607.950000000002
 20
2090.476497685455
 30
0.0
 40
1.0
100
AcDbArc
 50
90.00000000000005
 51
180.0
  0
LINE
  5
F4
330
2
100
AcDbEntity
  8
HALFEN
100
AcDbLine
 10
607.9122503857583
 20
2082.476497685455
 30
0.0
 11
609.4122503857582
 21
2083.976497685455
 31
0.0
  0
LINE
  5
F5
330
2
100
AcDbEntity
  8
HALFEN
100
AcDbLine
 10
619.9122503857583
 20
2082.476497685455
 30
0.0
 11
621.4122503857582
 21
2083.976497685455
 31
0.0
  0
LINE
  5
F6
330
2
100
AcDbEntity
  8
HALFEN
100
AcDbLine
 10
618.4122503857582
 20
2083.976497685455
 30
0.0
 11
619.9122503857583
 21
2082.476497685455
 31
0.0
  0
LINE
  5
F7
330
2
100
AcDbEntity
  8
HALFEN
100
AcDbLine
 10
621.4122503857582
 20
2083.976497685455
 30
0.0
 11
622.9122503857582
 21
2082.476497685455
 31
0.0
  0
LINE
  5
F8
330
2
100
AcDbEntity
  8
HALFEN
100
AcDbLine
 10
615.4122503857583
 20
2083.976497685455
 30
0.0
 11
616.9122503857582
 21
2082.476497685455
 31
0.0
  0
LINE
  5
F9
330
2
100
AcDbEntity
  8
HALFEN
100
AcDbLine
 10
616.9122503857582
 20
2082.476497685455
 30
0.0
 11
618.4122503857582
 21
2083.976497685455
 31
0.0
  0
LINE
  5
FA
330
2
100
AcDbEntity
  8
HALFEN
100
AcDbLine
 10
631.9122503857581
 20
2082.476497685455
 30
0.0
 11
633.0622503857583
 21
2083.976497685455
 31
0.0
  0
LINE
  5
FB
330
2
100
AcDbEntity
  8
HALFEN
100
AcDbLine
 10
627.4459377311144
 20
2083.976497685455
 30
0.0
 11
628.9122503857583
 21
2082.476497685455
 31
0.0
  0
LINE
  5
FC
330
2
100
AcDbEntity
  8
HALFEN
100
AcDbLine
 10
627.4459377311143
 20
2090.476497685455
 30
0.0
 11
627.4459377311144
 21
2083.976497685455
 31
0.0
  0
LINE
  5
FD
330
2
100
AcDbEntity
  8
HALFEN
100
AcDbLine
 10
625.9122503857583
 20
2082.476497685455
 30
0.0
 11
627.4459377311144
 21
2083.976497685455
 31
0.0
  0
ARC
  5
FE
330
2
100
AcDbEntity
  8
HALFEN
100
AcDbCircle
 10
626.4459377311143
 20
2090.476497685455
 30
0.0
 40
1.0
100
AcDbArc
 50
0.0
 51
90.0000000000001
  0
LINE
  5
FF
330
2
100
AcDbEntity
  8
HALFEN
100
AcDbLine
 10
628.9122503857583
 20
2082.476497685455
 30
0.0
 11
630.4122503857581
 21
2083.976497685455
 31
0.0
  0
LINE
  5
100
330
2
100
AcDbEntity
  8
HALFEN
100
AcDbLine
 10
631.9122503857581
 20
2082.476497685455
 30
0.0
 11
630.4122503857581
 21
2083.976497685455
 31
0.0
  0
LINE
  5
101
330
2
100
AcDbEntity
  8
HALFEN
100
AcDbLine
 10
624.4122503857584
 20
2083.976497685455
 30
0.0
 11
625.9122503857582
 21
2082.476497685455
 31
0.0
  0
LINE
  5
102
330
2
100
AcDbEntity
  8
HALFEN
100
AcDbLine
 10
633.0622503857583
 20
2090.476497685455
 30
0.0
 11
633.0622503857584
 21
2083.976497685455
 31
0.0
  0
ARC
  5
103
330
2
100
AcDbEntity
  8
HALFEN
100
AcDbCircle
 10
632.0622503857582
 20
2090.476497685455
 30
0.0
 40
1.0
100
AcDbArc
 50
0.0
 51
90.0000000000001
  0
LINE
  5
104
330
2
100
AcDbEntity
  8
HALFEN
100
AcDbLine
 10
702.250000000002
 20
1966.551996913942
 30
0.0
 11
702.250000000002
 21
1986.551996913942
 31
0.0
  0
TEXT
  5
105
330
2
100
AcDbEntity
  8
HALFEN
100
AcDbText
 10
557.2500000000019
 20
2548.749999999993
 30
0.0
 40
5.0
  1
Id. Nr.
  7
ARIAL50
100
AcDbText
  0
LINE
  5
106
330
2
100
AcDbEntity
  8
HALFEN
100
AcDbLine
 10
553.693375672976
 20
2517.249999999993
 30
0.0
 11
585.5066243270279
 21
2517.249999999993
 31
0.0
  0
LINE
  5
107
330
2
100
AcDbEntity
  8
HALFEN
100
AcDbLine
 10
553.2500000000019
 20
2526.249999999993
 30
0.0
 11
585.950000000002
 21
2526.249999999993
 31
0.0
  0
LINE
  5
108
330
2
100
AcDbEntity
  8
HALFEN
100
AcDbLine
 10
586.9500000000019
 20
2518.749999999993
 30
0.0
 11
552.2500000000019
 21
2518.749999999993
 31
0.0
  0
LINE
  5
109
330
2
100
AcDbEntity
  8
HALFEN
100
AcDbLine
 10
571.6241666666686
 20
2494.787749614236
 30
0.0
 11
586.9500000000019
 21
2494.787749614236
 31
0.0
  0
TEXT
  5
10A
330
2
100
AcDbEntity
  8
HALFEN
100
AcDbText
 10
557.2500000000019
 20
2558.749999999993
 30
0.0
 40
5.0
  1
Benennung
  7
ARIAL50
100
AcDbText
  0
LINE
  5
10B
330
2
100
AcDbEntity
  8
HALFEN
100
AcDbLine
 10
569.6000000000019
 20
2478.287749614237
 30
0.0
 11
583.4258333333353
 21
2478.287749614237
 31
0.0
  0
TEXT
  5
10C
330
2
100
AcDbEntity
  8
HALFEN
100
AcDbText
 10
557.2500000000019
 20
2403.82549922848
 30
0.0
 40
5.0
  1
Id. Nr.
  7
ARIAL50
100
AcDbText
  0
LINE
  5
10D
330
2
100
AcDbEntity
  8
HALFEN
100
AcDbLine
 10
553.7500000000019
 20
2475.287749614237
 30
0.0
 11
576.2508333333353
 21
2475.287749614237
 31
0.0
  0
LINE
  5
10E
330
2
100
AcDbEntity
  8
HALFEN
  6
MITTE2
 62
     1
100
AcDbLine
 10
572.6000000000019
 20
2484.287749614237
 30
0.0
 11
566.6000000000019
 21
2484.287749614237
 31
0.0
  0
LINE
  5
10F
330
2
100
AcDbEntity
  8
HALFEN
100
AcDbLine
 10
569.6000000000019
 20
2333.363248842724
 30
0.0
 11
583.4258333333353
 21
2333.363248842724
 31
0.0
  0
LINE
  5
110
330
2
100
AcDbEntity
  8
HALFEN
100
AcDbLine
 10
553.7500000000019
 20
2330.363248842724
 30
0.0
 11
576.2508333333353
 21
2330.363248842724
 31
0.0
  0
LINE
  5
111
330
2
100
AcDbEntity
  8
HALFEN
  6
MITTE2
 62
     1
100
AcDbLine
 10
573.6000000000019
 20
2339.363248842724
 30
0.0
 11
565.6000000000019
 21
2339.363248842724
 31
0.0
  0
LINE
  5
112
330
2
100
AcDbEntity
  8
HALFEN
100
AcDbLine
 10
553.693375672976
 20
2372.32549922848
 30
0.0
 11
585.5066243270279
 21
2372.32549922848
 31
0.0
  0
LINE
  5
113
330
2
100
AcDbEntity
  8
HALFEN
100
AcDbLine
 10
553.2500000000019
 20
2381.32549922848
 30
0.0
 11
585.950000000002
 21
2381.32549922848
 31
0.0
  0
LINE
  5
114
330
2
100
AcDbEntity
  8
HALFEN
100
AcDbLine
 10
586.9500000000019
 20
2373.82549922848
 30
0.0
 11
552.2500000000019
 21
2373.82549922848
 31
0.0
  0
LINE
  5
115
330
2
100
AcDbEntity
  8
HALFEN
100
AcDbLine
 10
571.6241666666686
 20
2349.863248842724
 30
0.0
 11
586.9500000000019
 21
2349.863248842724
 31
0.0
  0
TEXT
  5
116
330
2
100
AcDbEntity
  8
HALFEN
100
AcDbText
 10
557.2500000000019
 20
2413.82549922848
 30
0.0
 40
5.0
  1
Benennung
  7
ARIAL50
100
AcDbText
  0
LINE
  5
117
330
2
100
AcDbEntity
  8
HALFEN
100
AcDbLine
 10
585.273917487214
 20
2331.92343630449
 30
0.0
 11
553.4203823671571
 21
2326.415620433587
 31
0.0
  0
LINE
  5
118
330
2
100
AcDbEntity
  8
HALFEN
100
AcDbLine
 10
552.2500000000019
 20
2331.863248842724
 30
0.0
 11
584.9258333333353
 21
2331.863248842724
 31
0.0
  0
LINE
  5
119
330
2
100
AcDbEntity
  8
HALFEN
100
AcDbLine
 10
562.9491666666687
 20
2348.363248842724
 30
0.0
 11
585.450000000002
 21
2348.363248842724
 31
0.0
  0
LINE
  5
11A
330
2
100
AcDbEntity
  8
HALFEN
100
AcDbLine
 10
555.7741666666685
 20
2345.363248842724
 30
0.0
 11
585.450000000002
 21
2345.363248842724
 31
0.0
  0
LINE
  5
11B
330
2
100
AcDbEntity
  8
HALFEN
100
AcDbLine
 10
554.2741666666687
 20
2346.863248842724
 30
0.0
 11
586.9500000000019
 21
2346.863248842724
 31
0.0
  0
LINE
  5
11C
330
2
100
AcDbEntity
  8
HALFEN
100
AcDbLine
 10
585.7796176328466
 20
2352.310877251861
 30
0.0
 11
553.9260825127898
 21
2346.803061380958
 31
0.0
  0
LINE
  5
11D
330
2
100
AcDbEntity
  8
HALFEN
100
AcDbLine
 10
585.273917487214
 20
2476.847937076002
 30
0.0
 11
553.4203823671571
 21
2471.340121205099
 31
0.0
  0
LINE
  5
11E
330
2
100
AcDbEntity
  8
HALFEN
100
AcDbLine
 10
552.2500000000019
 20
2476.787749614237
 30
0.0
 11
584.9258333333353
 21
2476.787749614237
 31
0.0
  0
LINE
  5
11F
330
2
100
AcDbEntity
  8
HALFEN
100
AcDbLine
 10
562.9491666666687
 20
2493.287749614236
 30
0.0
 11
585.450000000002
 21
2493.287749614236
 31
0.0
  0
LINE
  5
120
330
2
100
AcDbEntity
  8
HALFEN
100
AcDbLine
 10
555.7741666666685
 20
2490.287749614237
 30
0.0
 11
585.450000000002
 21
2490.287749614237
 31
0.0
  0
LINE
  5
121
330
2
100
AcDbEntity
  8
HALFEN
100
AcDbLine
 10
554.2741666666687
 20
2491.787749614236
 30
0.0
 11
586.9500000000019
 21
2491.787749614236
 31
0.0
  0
TEXT
  5
122
330
2
100
AcDbEntity
  8
HALFEN
100
AcDbText
 10
557.2500000000019
 20
2258.900998456967
 30
0.0
 40
5.0
  1
Id. Nr.
  7
ARIAL50
100
AcDbText
  0
LINE
  5
123
330
2
100
AcDbEntity
  8
HALFEN
  6
MITTE2
 62
     1
100
AcDbLine
 10
574.6000000000019
 20
2194.438748071211
 30
0.0
 11
564.6000000000019
 21
2194.438748071211
 31
0.0
  0
LINE
  5
124
330
2
100
AcDbEntity
  8
HALFEN
100
AcDbLine
 10
569.6000000000019
 20
2188.438748071211
 30
0.0
 11
583.4258333333353
 21
2188.438748071211
 31
0.0
  0
TEXT
  5
125
330
2
100
AcDbEntity
  8
HALFEN
100
AcDbText
 10
557.250000000002
 20
2113.976497685455
 30
0.0
 40
5.0
  1
Id. Nr.
  7
ARIAL50
100
AcDbText
  0
LINE
  5
126
330
2
100
AcDbEntity
  8
HALFEN
100
AcDbLine
 10
553.7500000000019
 20
2185.438748071211
 30
0.0
 11
576.2508333333353
 21
2185.438748071211
 31
0.0
  0
TEXT
  5
127
330
2
100
AcDbEntity
  8
HALFEN
100
AcDbText
 10
557.250000000002
 20
2123.976497685455
 30
0.0
 40
5.0
  1
Benennung
  7
ARIAL50
100
AcDbText
  0
LINE
  5
128
330
2
100
AcDbEntity
  8
HALFEN
100
AcDbLine
 10
585.7796176328466
 20
2207.386376480349
 30
0.0
 11
553.9260825127898
 21
2201.878560609445
 31
0.0
  0
LINE
  5
129
330
2
100
AcDbEntity
  8
HALFEN
100
AcDbLine
 10
554.2741666666687
 20
2201.938748071211
 30
0.0
 11
586.9500000000019
 21
2201.938748071211
 31
0.0
  0
LINE
  5
12A
330
2
100
AcDbEntity
  8
HALFEN
100
AcDbLine
 10
555.7741666666685
 20
2200.438748071211
 30
0.0
 11
585.450000000002
 21
2200.438748071211
 31
0.0
  0
LINE
  5
12B
330
2
100
AcDbEntity
  8
HALFEN
100
AcDbLine
 10
562.9491666666687
 20
2203.438748071211
 30
0.0
 11
585.450000000002
 21
2203.438748071211
 31
0.0
  0
LINE
  5
12C
330
2
100
AcDbEntity
  8
HALFEN
100
AcDbLine
 10
552.2500000000019
 20
2186.938748071211
 30
0.0
 11
584.9258333333353
 21
2186.938748071211
 31
0.0
  0
LINE
  5
12D
330
2
100
AcDbEntity
  8
HALFEN
100
AcDbLine
 10
585.273917487214
 20
2186.998935532977
 30
0.0
 11
553.4203823671571
 21
2181.491119662074
 31
0.0
  0
TEXT
  5
12E
330
2
100
AcDbEntity
  8
HALFEN
100
AcDbText
 10
557.2500000000019
 20
2268.900998456968
 30
0.0
 40
5.0
  1
Benennung
  7
ARIAL50
100
AcDbText
  0
LINE
  5
12F
330
2
100
AcDbEntity
  8
HALFEN
100
AcDbLine
 10
571.6241666666686
 20
2204.938748071211
 30
0.0
 11
586.9500000000019
 21
2204.938748071211
 31
0.0
  0
LINE
  5
130
330
2
100
AcDbEntity
  8
HALFEN
100
AcDbLine
 10
586.9500000000019
 20
2228.900998456968
 30
0.0
 11
552.2500000000019
 21
2228.900998456968
 31
0.0
  0
LINE
  5
131
330
2
100
AcDbEntity
  8
HALFEN
100
AcDbLine
 10
553.2500000000019
 20
2236.400998456968
 30
0.0
 11
585.950000000002
 21
2236.400998456968
 31
0.0
  0
LINE
  5
132
330
2
100
AcDbEntity
  8
HALFEN
100
AcDbLine
 10
553.693375672976
 20
2227.400998456968
 30
0.0
 11
585.5066243270279
 21
2227.400998456968
 31
0.0
  0
LINE
  5
133
330
2
100
AcDbEntity
  8
HALFEN
100
AcDbLine
 10
585.7796176328466
 20
2497.235378023374
 30
0.0
 11
553.9260825127898
 21
2491.727562152471
 31
0.0
  0
LINE
  5
134
330
2
100
AcDbEntity
  8
HALFEN
100
AcDbLine
 10
552.250000000002
 20
2111.476497685455
 30
0.0
 11
702.250000000002
 21
2111.476497685455
 31
0.0
  0
LINE
  5
135
330
2
100
AcDbEntity
  8
HALFEN
100
AcDbLine
 10
552.250000000002
 20
2121.476497685455
 30
0.0
 11
702.250000000002
 21
2121.476497685455
 31
0.0
  0
LINE
  5
136
330
2
100
AcDbEntity
  8
HALFEN
100
AcDbLine
 10
552.250000000002
 20
2131.476497685455
 30
0.0
 11
702.250000000002
 21
2131.476497685455
 31
0.0
  0
LINE
  5
137
330
2
100
AcDbEntity
  8
HALFEN
100
AcDbLine
 10
552.2500000000019
 20
2256.400998456967
 30
0.0
 11
702.2500000000019
 21
2256.400998456967
 31
0.0
  0
LINE
  5
138
330
2
100
AcDbEntity
  8
HALFEN
100
AcDbLine
 10
552.2500000000019
 20
2266.400998456967
 30
0.0
 11
702.2500000000019
 21
2266.400998456967
 31
0.0
  0
LINE
  5
139
330
2
100
AcDbEntity
  8
HALFEN
100
AcDbLine
 10
552.2500000000019
 20
2276.400998456967
 30
0.0
 11
702.2500000000019
 21
2276.400998456967
 31
0.0
  0
LINE
  5
13A
330
2
100
AcDbEntity
  8
HALFEN
100
AcDbLine
 10
552.2500000000019
 20
2421.32549922848
 30
0.0
 11
702.2500000000019
 21
2421.32549922848
 31
0.0
  0
LINE
  5
13B
330
2
100
AcDbEntity
  8
HALFEN
100
AcDbLine
 10
552.2500000000019
 20
2411.32549922848
 30
0.0
 11
702.2500000000019
 21
2411.32549922848
 31
0.0
  0
LINE
  5
13C
330
2
100
AcDbEntity
  8
HALFEN
100
AcDbLine
 10
552.2500000000019
 20
2401.32549922848
 30
0.0
 11
702.2500000000019
 21
2401.32549922848
 31
0.0
  0
LINE
  5
13D
330
2
100
AcDbEntity
  8
HALFEN
100
AcDbLine
 10
552.2500000000019
 20
2566.249999999993
 30
0.0
 11
702.2500000000019
 21
2566.249999999993
 31
0.0
  0
LINE
  5
13E
330
2
100
AcDbEntity
  8
HALFEN
100
AcDbLine
 10
552.2500000000019
 20
2556.249999999993
 30
0.0
 11
702.2500000000019
 21
2556.249999999993
 31
0.0
  0
LINE
  5
13F
330
2
100
AcDbEntity
  8
HALFEN
100
AcDbLine
 10
552.2500000000019
 20
2546.249999999993
 30
0.0
 11
702.2500000000019
 21
2546.249999999993
 31
0.0
  0
LINE
  5
140
330
2
100
AcDbEntity
  8
HALFEN
  6
MITTE2
 62
     1
100
AcDbLine
 10
569.6000000000019
 20
2204.588748071211
 30
0.0
 11
569.6000000000018
 21
2184.288748071211
 31
0.0
  0
LINE
  5
141
330
2
100
AcDbEntity
  8
HALFEN
100
AcDbLine
 10
552.2500000000019
 20
2182.476497685455
 30
0.0
 11
552.2500000000019
 21
2194.438748071211
 31
0.0
  0
LINE
  5
142
330
2
100
AcDbEntity
  8
HALFEN
100
AcDbLine
 10
553.7500000000019
 20
2191.438748071211
 30
0.0
 11
552.2500000000019
 21
2192.938748071211
 31
0.0
  0
LINE
  5
143
330
2
100
AcDbEntity
  8
HALFEN
100
AcDbLine
 10
553.7500000000019
 20
2182.438748071211
 30
0.0
 11
558.9008333333352
 21
2182.438748071211
 31
0.0
  0
LINE
  5
144
330
2
100
AcDbEntity
  8
HALFEN
100
AcDbLine
 10
552.2500000000019
 20
2183.938748071211
 30
0.0
 11
567.5758333333353
 21
2183.938748071211
 31
0.0
  0
TEXT
  5
145
330
2
100
AcDbEntity
  8
HALFEN
100
AcDbText
 10
552.250000000002
 20
2133.976497685455
 30
0.0
 40
5.0
  1
gv 8.8
  7
ARIAL50
100
AcDbText
  0
LINE
  5
146
330
2
100
AcDbEntity
  8
HALFEN
100
AcDbLine
 10
553.7500000000019
 20
2188.438748071211
 30
0.0
 11
569.6000000000019
 21
2188.438748071211
 31
0.0
  0
LINE
  5
147
330
2
100
AcDbEntity
  8
HALFEN
100
AcDbLine
 10
552.250000000002
 20
2111.476497685455
 30
0.0
 11
552.250000000002
 21
2131.476497685455
 31
0.0
  0
LINE
  5
148
330
2
100
AcDbEntity
  8
HALFEN
100
AcDbLine
 10
552.2500000000019
 20
2189.938748071211
 30
0.0
 11
553.7500000000019
 21
2191.438748071211
 31
0.0
  0
LINE
  5
149
330
2
100
AcDbEntity
  8
HALFEN
100
AcDbLine
 10
553.7500000000019
 20
2185.438748071211
 30
0.0
 11
552.2500000000019
 21
2186.938748071211
 31
0.0
  0
LINE
  5
14A
330
2
100
AcDbEntity
  8
HALFEN
100
AcDbLine
 10
553.7500000000019
 20
2188.438748071211
 30
0.0
 11
552.2500000000019
 21
2189.938748071211
 31
0.0
  0
LINE
  5
14B
330
2
100
AcDbEntity
  8
HALFEN
100
AcDbLine
 10
552.2500000000019
 20
2186.938748071211
 30
0.0
 11
553.7500000000019
 21
2188.438748071211
 31
0.0
  0
LINE
  5
14C
330
2
100
AcDbEntity
  8
HALFEN
100
AcDbLine
 10
553.7500000000019
 20
2182.438748071211
 30
0.0
 11
552.2500000000019
 21
2183.938748071211
 31
0.0
  0
LINE
  5
14D
330
2
100
AcDbEntity
  8
HALFEN
100
AcDbLine
 10
552.2500000000019
 20
2183.938748071211
 30
0.0
 11
553.7500000000019
 21
2185.438748071211
 31
0.0
  0
ARC
  5
14E
330
2
100
AcDbEntity
  8
HALFEN
100
AcDbCircle
 10
553.2500000000019
 20
2182.476497685455
 30
0.0
 40
1.0
100
AcDbArc
 50
180.0
 51
279.8100514277674
  0
LINE
  5
14F
330
2
100
AcDbEntity
  8
HALFEN
100
AcDbLine
 10
552.8437325158633
 20
2198.938748071211
 30
0.0
 11
555.7741666666685
 21
2200.438748071211
 31
0.0
  0
LINE
  5
150
330
2
100
AcDbEntity
  8
HALFEN
100
AcDbLine
 10
555.7741666666685
 20
2200.438748071211
 30
0.0
 11
554.2741666666684
 21
2201.938748071211
 31
0.0
  0
LINE
  5
151
330
2
100
AcDbEntity
  8
HALFEN
100
AcDbLine
 10
553.693375672976
 20
2227.400998456968
 30
0.0
 11
559.4437426345233
 21
2227.400998456968
 31
0.0
1001
AME_SOL
1070
     0
1071
        0
  0
LINE
  5
152
330
2
100
AcDbEntity
  8
HALFEN
100
AcDbLine
 10
552.8437325158633
 20
2198.938748071211
 30
0.0
 11
567.4205505282318
 21
2198.938748071211
 31
0.0
  0
LINE
  5
153
330
2
100
AcDbEntity
  8
HALFEN
100
AcDbLine
 10
552.2500000000019
 20
2192.938748071211
 30
0.0
 11
564.8303039929173
 21
2192.938748071211
 31
0.0
  0
LINE
  5
154
330
2
100
AcDbEntity
  8
HALFEN
100
AcDbLine
 10
552.314963118352
 20
2195.938748071212
 30
0.0
 11
564.8303039929173
 21
2195.938748071212
 31
0.0
  0
LINE
  5
155
330
2
100
AcDbEntity
  8
HALFEN
100
AcDbLine
 10
553.814963118352
 20
2194.438748071211
 30
0.0
 11
564.6000000000019
 21
2194.438748071211
 31
0.0
  0
LINE
  5
156
330
2
100
AcDbEntity
  8
HALFEN
100
AcDbLine
 10
554.3437325158634
 20
2197.438748071212
 30
0.0
 11
565.6000000000021
 21
2197.438748071212
 31
0.0
  0
TEXT
  5
157
330
2
100
AcDbEntity
  8
HALFEN
100
AcDbText
 10
552.2500000000019
 20
2278.900998456967
 30
0.0
 40
5.0
  1
gv 8.8
  7
ARIAL50
100
AcDbText
  0
ARC
  5
158
330
2
100
AcDbEntity
  8
HALFEN
100
AcDbCircle
 10
554.9260825127898
 20
2235.400998456968
 30
0.0
 40
1.0
100
AcDbArc
 50
90.0
 51
180.0
  0
LINE
  5
159
330
2
100
AcDbEntity
  8
HALFEN
100
AcDbLine
 10
555.3694581857639
 20
2227.400998456968
 30
0.0
 11
553.9260825127898
 21
2228.900998456968
 31
0.0
  0
LINE
  5
15A
330
2
100
AcDbEntity
  8
HALFEN
100
AcDbLine
 10
553.9260825127898
 20
2228.900998456968
 30
0.0
 11
553.9260825127898
 21
2235.400998456968
 31
0.0
  0
ARC
  5
15B
330
2
100
AcDbEntity
  8
HALFEN
100
AcDbCircle
 10
553.2500000000019
 20
2235.400998456968
 30
0.0
 40
1.0
100
AcDbArc
 50
90.00000000000003
 51
180.0
  0
LINE
  5
15C
330
2
100
AcDbEntity
  8
HALFEN
100
AcDbLine
 10
552.2500000000019
 20
2235.400998456968
 30
0.0
 11
552.2500000000019
 21
2228.900998456968
 31
0.0
  0
LINE
  5
15D
330
2
100
AcDbEntity
  8
HALFEN
100
AcDbLine
 10
553.693375672976
 20
2227.400998456968
 30
0.0
 11
552.2500000000019
 21
2228.900998456968
 31
0.0
  0
LINE
  5
15E
330
2
100
AcDbEntity
  8
HALFEN
100
AcDbLine
 10
552.314963118352
 20
2195.938748071212
 30
0.0
 11
554.3437325158634
 21
2197.438748071212
 31
0.0
  0
LINE
  5
15F
330
2
100
AcDbEntity
  8
HALFEN
100
AcDbLine
 10
553.814963118352
 20
2194.438748071211
 30
0.0
 11
552.314963118352
 21
2195.938748071212
 31
0.0
  0
LINE
  5
160
330
2
100
AcDbEntity
  8
HALFEN
100
AcDbLine
 10
552.2500000000019
 20
2192.938748071211
 30
0.0
 11
553.814963118352
 21
2194.438748071211
 31
0.0
  0
LINE
  5
161
330
2
100
AcDbEntity
  8
HALFEN
100
AcDbLine
 10
554.3437325158634
 20
2197.438748071212
 30
0.0
 11
552.8437325158633
 21
2198.938748071211
 31
0.0
  0
ARC
  5
162
330
2
100
AcDbEntity
  8
HALFEN
100
AcDbCircle
 10
569.6000000000019
 20
2194.438748071211
 30
0.0
 40
17.34999999999998
100
AcDbArc
 50
154.6080863011853
 51
180.0
  0
LINE
  5
163
330
2
100
AcDbEntity
  8
HALFEN
100
AcDbLine
 10
552.2500000000019
 20
2256.400998456967
 30
0.0
 11
552.2500000000019
 21
2276.400998456967
 31
0.0
  0
LINE
  5
164
330
2
100
AcDbEntity
  8
HALFEN
  6
MITTE2
 62
     1
100
AcDbLine
 10
569.6000000000019
 20
2227.400998456968
 30
0.0
 11
569.6000000000019
 21
2236.400998456968
 31
0.0
  0
LINE
  5
165
330
2
100
AcDbEntity
  8
HALFEN
100
AcDbLine
 10
553.693375672976
 20
2372.32549922848
 30
0.0
 11
559.4437426345233
 21
2372.32549922848
 31
0.0
1001
AME_SOL
1070
     0
1071
        0
  0
LINE
  5
166
330
2
100
AcDbEntity
  8
HALFEN
100
AcDbLine
 10
555.7741666666685
 20
2345.363248842724
 30
0.0
 11
554.2741666666684
 21
2346.863248842724
 31
0.0
  0
LINE
  5
167
330
2
100
AcDbEntity
  8
HALFEN
100
AcDbLine
 10
552.8437325158633
 20
2343.863248842724
 30
0.0
 11
555.7741666666685
 21
2345.363248842724
 31
0.0
  0
LINE
  5
168
330
2
100
AcDbEntity
  8
HALFEN
100
AcDbLine
 10
553.7500000000019
 20
2327.363248842724
 30
0.0
 11
558.9008333333352
 21
2327.363248842724
 31
0.0
  0
LINE
  5
169
330
2
100
AcDbEntity
  8
HALFEN
100
AcDbLine
 10
552.2500000000019
 20
2328.863248842724
 30
0.0
 11
567.5758333333353
 21
2328.863248842724
 31
0.0
  0
LINE
  5
16A
330
2
100
AcDbEntity
  8
HALFEN
100
AcDbLine
 10
554.3437325158634
 20
2342.363248842724
 30
0.0
 11
566.9542486889371
 21
2342.363248842723
 31
0.0
  0
LINE
  5
16B
330
2
100
AcDbEntity
  8
HALFEN
100
AcDbLine
 10
553.814963118352
 20
2339.363248842724
 30
0.0
 11
565.6000000000019
 21
2339.363248842724
 31
0.0
  0
LINE
  5
16C
330
2
100
AcDbEntity
  8
HALFEN
100
AcDbLine
 10
552.314963118352
 20
2340.863248842724
 30
0.0
 11
565.8919007564541
 21
2340.863248842724
 31
0.0
  0
LINE
  5
16D
330
2
100
AcDbEntity
  8
HALFEN
100
AcDbLine
 10
552.2500000000019
 20
2337.863248842724
 30
0.0
 11
565.8919007564541
 21
2337.863248842724
 31
0.0
  0
LINE
  5
16E
330
2
100
AcDbEntity
  8
HALFEN
100
AcDbLine
 10
553.7500000000019
 20
2333.363248842724
 30
0.0
 11
569.6000000000019
 21
2333.363248842724
 31
0.0
  0
LINE
  5
16F
330
2
100
AcDbEntity
  8
HALFEN
100
AcDbLine
 10
554.3437325158634
 20
2342.363248842724
 30
0.0
 11
552.8437325158633
 21
2343.863248842724
 31
0.0
  0
ARC
  5
170
330
2
100
AcDbEntity
  8
HALFEN
100
AcDbCircle
 10
569.6000000000019
 20
2339.363248842724
 30
0.0
 40
17.34999999999998
100
AcDbArc
 50
154.6080863011853
 51
180.0
  0
LINE
  5
171
330
2
100
AcDbEntity
  8
HALFEN
100
AcDbLine
 10
553.7500000000019
 20
2336.363248842724
 30
0.0
 11
552.2500000000019
 21
2337.863248842724
 31
0.0
  0
LINE
  5
172
330
2
100
AcDbEntity
  8
HALFEN
100
AcDbLine
 10
552.2500000000019
 20
2327.400998456968
 30
0.0
 11
552.2500000000019
 21
2339.363248842724
 31
0.0
  0
ARC
  5
173
330
2
100
AcDbEntity
  8
HALFEN
100
AcDbCircle
 10
553.2500000000019
 20
2327.400998456968
 30
0.0
 40
1.0
100
AcDbArc
 50
180.0
 51
279.8100514277674
  0
LINE
  5
174
330
2
100
AcDbEntity
  8
HALFEN
100
AcDbLine
 10
552.2500000000019
 20
2328.863248842724
 30
0.0
 11
553.7500000000019
 21
2330.363248842724
 31
0.0
  0
LINE
  5
175
330
2
100
AcDbEntity
  8
HALFEN
100
AcDbLine
 10
553.7500000000019
 20
2327.363248842724
 30
0.0
 11
552.2500000000019
 21
2328.863248842724
 31
0.0
  0
LINE
  5
176
330
2
100
AcDbEntity
  8
HALFEN
100
AcDbLine
 10
552.2500000000019
 20
2331.863248842724
 30
0.0
 11
553.7500000000019
 21
2333.363248842724
 31
0.0
  0
LINE
  5
177
330
2
100
AcDbEntity
  8
HALFEN
100
AcDbLine
 10
553.7500000000019
 20
2333.363248842724
 30
0.0
 11
552.2500000000019
 21
2334.863248842724
 31
0.0
  0
LINE
  5
178
330
2
100
AcDbEntity
  8
HALFEN
100
AcDbLine
 10
553.7500000000019
 20
2330.363248842724
 30
0.0
 11
552.2500000000019
 21
2331.863248842724
 31
0.0
  0
LINE
  5
179
330
2
100
AcDbEntity
  8
HALFEN
100
AcDbLine
 10
552.2500000000019
 20
2334.863248842724
 30
0.0
 11
553.7500000000019
 21
2336.363248842724
 31
0.0
  0
LINE
  5
17A
330
2
100
AcDbEntity
  8
HALFEN
100
AcDbLine
 10
552.2500000000019
 20
2337.863248842724
 30
0.0
 11
553.814963118352
 21
2339.363248842724
 31
0.0
  0
LINE
  5
17B
330
2
100
AcDbEntity
  8
HALFEN
100
AcDbLine
 10
553.814963118352
 20
2339.363248842724
 30
0.0
 11
552.314963118352
 21
2340.863248842724
 31
0.0
  0
LINE
  5
17C
330
2
100
AcDbEntity
  8
HALFEN
100
AcDbLine
 10
552.314963118352
 20
2340.863248842724
 30
0.0
 11
554.3437325158634
 21
2342.363248842724
 31
0.0
  0
LINE
  5
17D
330
2
100
AcDbEntity
  8
HALFEN
100
AcDbLine
 10
553.693375672976
 20
2372.32549922848
 30
0.0
 11
552.2500000000019
 21
2373.82549922848
 31
0.0
  0
LINE
  5
17E
330
2
100
AcDbEntity
  8
HALFEN
100
AcDbLine
 10
552.2500000000019
 20
2380.32549922848
 30
0.0
 11
552.2500000000019
 21
2373.82549922848
 31
0.0
  0
ARC
  5
17F
330
2
100
AcDbEntity
  8
HALFEN
100
AcDbCircle
 10
553.2500000000019
 20
2380.32549922848
 30
0.0
 40
1.0
100
AcDbArc
 50
90.00000000000003
 51
180.0
  0
LINE
  5
180
330
2
100
AcDbEntity
  8
HALFEN
100
AcDbLine
 10
553.9260825127898
 20
2373.82549922848
 30
0.0
 11
553.9260825127898
 21
2380.32549922848
 31
0.0
  0
LINE
  5
181
330
2
100
AcDbEntity
  8
HALFEN
100
AcDbLine
 10
555.3694581857639
 20
2372.32549922848
 30
0.0
 11
553.9260825127898
 21
2373.82549922848
 31
0.0
  0
ARC
  5
182
330
2
100
AcDbEntity
  8
HALFEN
100
AcDbCircle
 10
554.9260825127898
 20
2380.32549922848
 30
0.0
 40
1.0
100
AcDbArc
 50
90.0
 51
180.0
  0
LINE
  5
183
330
2
100
AcDbEntity
  8
HALFEN
  6
MITTE2
 62
     1
100
AcDbLine
 10
569.6000000000019
 20
2349.513248842724
 30
0.0
 11
569.6000000000018
 21
2329.213248842724
 31
0.0
  0
LINE
  5
184
330
2
100
AcDbEntity
  8
HALFEN
  6
MITTE2
 62
     1
100
AcDbLine
 10
569.6000000000019
 20
2372.32549922848
 30
0.0
 11
569.6000000000019
 21
2381.325499228481
 31
0.0
  0
LINE
  5
185
330
2
100
AcDbEntity
  8
HALFEN
100
AcDbLine
 10
553.7500000000019
 20
2472.287749614237
 30
0.0
 11
558.9008333333352
 21
2472.287749614237
 31
0.0
  0
LINE
  5
186
330
2
100
AcDbEntity
  8
HALFEN
100
AcDbLine
 10
555.7741666666685
 20
2490.287749614237
 30
0.0
 11
554.2741666666684
 21
2491.787749614236
 31
0.0
  0
LINE
  5
187
330
2
100
AcDbEntity
  8
HALFEN
100
AcDbLine
 10
552.8437325158633
 20
2488.787749614237
 30
0.0
 11
555.7741666666685
 21
2490.287749614237
 31
0.0
  0
LINE
  5
188
330
2
100
AcDbEntity
  8
HALFEN
100
AcDbLine
 10
553.750000000002
 20
2481.287749614236
 30
0.0
 11
584.8562674841399
 21
2481.287749614236
 31
0.0
  0
LINE
  5
189
330
2
100
AcDbEntity
  8
HALFEN
100
AcDbLine
 10
552.2500000000019
 20
2473.787749614237
 30
0.0
 11
567.5758333333353
 21
2473.787749614237
 31
0.0
  0
LINE
  5
18A
330
2
100
AcDbEntity
  8
HALFEN
100
AcDbLine
 10
552.2500000000019
 20
2479.787749614237
 30
0.0
 11
586.3562674841404
 21
2479.787749614237
 31
0.0
  0
LINE
  5
18B
330
2
100
AcDbEntity
  8
HALFEN
100
AcDbLine
 10
554.3437325158634
 20
2487.287749614237
 30
0.0
 11
585.450000000002
 21
2487.287749614237
 31
0.0
  0
LINE
  5
18C
330
2
100
AcDbEntity
  8
HALFEN
100
AcDbLine
 10
553.814963118352
 20
2484.287749614237
 30
0.0
 11
566.6000000000019
 21
2484.287749614237
 31
0.0
  0
LINE
  5
18D
330
2
100
AcDbEntity
  8
HALFEN
100
AcDbLine
 10
552.8437325158633
 20
2488.787749614237
 30
0.0
 11
586.9500000000022
 21
2488.787749614237
 31
0.0
  0
LINE
  5
18E
330
2
100
AcDbEntity
  8
HALFEN
100
AcDbLine
 10
552.314963118352
 20
2485.787749614237
 30
0.0
 11
567.0019237886485
 21
2485.787749614237
 31
0.0
  0
TEXT
  5
18F
330
2
100
AcDbEntity
  8
HALFEN
100
AcDbText
 10
552.2500000000019
 20
2423.82549922848
 30
0.0
 40
5.0
  1
gv 8.8
  7
ARIAL50
100
AcDbText
  0
LINE
  5
190
330
2
100
AcDbEntity
  8
HALFEN
100
AcDbLine
 10
553.7500000000019
 20
2478.287749614237
 30
0.0
 11
569.6000000000019
 21
2478.287749614237
 31
0.0
  0
LINE
  5
191
330
2
100
AcDbEntity
  8
HALFEN
100
AcDbLine
 10
552.2500000000019
 20
2401.32549922848
 30
0.0
 11
552.2500000000019
 21
2421.32549922848
 31
0.0
  0
LINE
  5
192
330
2
100
AcDbEntity
  8
HALFEN
100
AcDbLine
 10
553.7500000000019
 20
2481.287749614236
 30
0.0
 11
552.2500000000019
 21
2482.787749614236
 31
0.0
  0
LINE
  5
193
330
2
100
AcDbEntity
  8
HALFEN
100
AcDbLine
 10
552.2500000000019
 20
2472.32549922848
 30
0.0
 11
552.2500000000019
 21
2484.287749614237
 31
0.0
  0
ARC
  5
194
330
2
100
AcDbEntity
  8
HALFEN
100
AcDbCircle
 10
553.2500000000019
 20
2472.32549922848
 30
0.0
 40
1.0
100
AcDbArc
 50
180.0
 51
279.8100514277674
  0
LINE
  5
195
330
2
100
AcDbEntity
  8
HALFEN
100
AcDbLine
 10
552.2500000000019
 20
2473.787749614237
 30
0.0
 11
553.7500000000019
 21
2475.287749614237
 31
0.0
  0
LINE
  5
196
330
2
100
AcDbEntity
  8
HALFEN
100
AcDbLine
 10
553.7500000000019
 20
2472.287749614237
 30
0.0
 11
552.2500000000019
 21
2473.787749614237
 31
0.0
  0
LINE
  5
197
330
2
100
AcDbEntity
  8
HALFEN
100
AcDbLine
 10
552.2500000000019
 20
2476.787749614237
 30
0.0
 11
553.7500000000019
 21
2478.287749614237
 31
0.0
  0
LINE
  5
198
330
2
100
AcDbEntity
  8
HALFEN
100
AcDbLine
 10
553.7500000000019
 20
2478.287749614237
 30
0.0
 11
552.2500000000019
 21
2479.787749614237
 31
0.0
  0
LINE
  5
199
330
2
100
AcDbEntity
  8
HALFEN
100
AcDbLine
 10
553.7500000000019
 20
2475.287749614237
 30
0.0
 11
552.2500000000019
 21
2476.787749614237
 31
0.0
  0
LINE
  5
19A
330
2
100
AcDbEntity
  8
HALFEN
100
AcDbLine
 10
552.2500000000019
 20
2479.787749614237
 30
0.0
 11
553.7500000000019
 21
2481.287749614236
 31
0.0
  0
LINE
  5
19B
330
2
100
AcDbEntity
  8
HALFEN
100
AcDbLine
 10
552.2500000000019
 20
2482.787749614236
 30
0.0
 11
553.814963118352
 21
2484.287749614237
 31
0.0
  0
LINE
  5
19C
330
2
100
AcDbEntity
  8
HALFEN
100
AcDbLine
 10
553.814963118352
 20
2484.287749614237
 30
0.0
 11
552.314963118352
 21
2485.787749614237
 31
0.0
  0
LINE
  5
19D
330
2
100
AcDbEntity
  8
HALFEN
100
AcDbLine
 10
552.314963118352
 20
2485.787749614237
 30
0.0
 11
554.3437325158634
 21
2487.287749614237
 31
0.0
  0
LINE
  5
19E
330
2
100
AcDbEntity
  8
HALFEN
100
AcDbLine
 10
554.3437325158634
 20
2487.287749614237
 30
0.0
 11
552.8437325158633
 21
2488.787749614237
 31
0.0
  0
ARC
  5
19F
330
2
100
AcDbEntity
  8
HALFEN
100
AcDbCircle
 10
569.6000000000019
 20
2484.287749614237
 30
0.0
 40
17.34999999999998
100
AcDbArc
 50
154.6080863011853
 51
180.0
  0
LINE
  5
1A0
330
2
100
AcDbEntity
  8
HALFEN
  6
MITTE2
 62
     1
100
AcDbLine
 10
569.6000000000019
 20
2494.437749614237
 30
0.0
 11
569.6000000000018
 21
2474.137749614236
 31
0.0
  0
LINE
  5
1A1
330
2
100
AcDbEntity
  8
HALFEN
100
AcDbLine
 10
553.693375672976
 20
2517.249999999993
 30
0.0
 11
559.4437426345233
 21
2517.249999999993
 31
0.0
1001
AME_SOL
1070
     0
1071
        0
  0
TEXT
  5
1A2
330
2
100
AcDbEntity
  8
HALFEN
100
AcDbText
 10
552.2500000000019
 20
2568.749999999993
 30
0.0
 40
5.0
  1
gv 8.8
  7
ARIAL50
100
AcDbText
  0
LINE
  5
1A3
330
2
100
AcDbEntity
  8
HALFEN
100
AcDbLine
 10
553.693375672976
 20
2517.249999999993
 30
0.0
 11
552.2500000000019
 21
2518.749999999993
 31
0.0
  0
LINE
  5
1A4
330
2
100
AcDbEntity
  8
HALFEN
100
AcDbLine
 10
552.2500000000019
 20
2525.249999999993
 30
0.0
 11
552.2500000000019
 21
2518.749999999993
 31
0.0
  0
ARC
  5
1A5
330
2
100
AcDbEntity
  8
HALFEN
100
AcDbCircle
 10
553.2500000000019
 20
2525.249999999993
 30
0.0
 40
1.0
100
AcDbArc
 50
90.00000000000003
 51
180.0
  0
LINE
  5
1A6
330
2
100
AcDbEntity
  8
HALFEN
100
AcDbLine
 10
553.9260825127898
 20
2518.749999999993
 30
0.0
 11
553.9260825127898
 21
2525.249999999993
 31
0.0
  0
LINE
  5
1A7
330
2
100
AcDbEntity
  8
HALFEN
100
AcDbLine
 10
555.3694581857639
 20
2517.249999999993
 30
0.0
 11
553.9260825127898
 21
2518.749999999993
 31
0.0
  0
ARC
  5
1A8
330
2
100
AcDbEntity
  8
HALFEN
100
AcDbCircle
 10
554.9260825127898
 20
2525.249999999993
 30
0.0
 40
1.0
100
AcDbArc
 50
90.0
 51
180.0
  0
LINE
  5
1A9
330
2
100
AcDbEntity
  8
HALFEN
100
AcDbLine
 10
552.2500000000019
 20
2546.249999999993
 30
0.0
 11
552.2500000000019
 21
2566.249999999993
 31
0.0
  0
LINE
  5
1AA
330
2
100
AcDbEntity
  8
HALFEN
  6
MITTE2
 62
     1
100
AcDbLine
 10
569.6000000000019
 20
2517.249999999993
 30
0.0
 11
569.6000000000019
 21
2526.249999999993
 31
0.0
  0
LINE
  5
1AB
330
2
100
AcDbEntity
  8
HALFEN
100
AcDbLine
 10
586.9500000000019
 20
2494.787749614236
 30
0.0
 11
585.450000000002
 21
2493.287749614236
 31
0.0
  0
LINE
  5
1AC
330
2
100
AcDbEntity
  8
HALFEN
100
AcDbLine
 10
586.9500000000019
 20
2484.287749614237
 30
0.0
 11
586.9500000000019
 21
2496.249999999993
 31
0.0
  0
ARC
  5
1AD
330
2
100
AcDbEntity
  8
HALFEN
 62
     1
100
AcDbCircle
 10
569.6000000000019
 20
2484.287749614237
 30
0.0
 40
3.0
100
AcDbArc
 50
280.0000000000001
 51
210.0
  0
CIRCLE
  5
1AE
330
2
100
AcDbEntity
  8
HALFEN
100
AcDbCircle
 10
569.6000000000019
 20
2484.287749614237
 30
0.0
 40
2.458499999999999
  0
TEXT
  5
1AF
330
2
100
AcDbEntity
  8
HALFEN
100
AcDbText
 10
607.250000000002
 20
2123.976497685455
 30
0.0
 40
5.0
  1
GWP 41/22 - gv8.8 - M 12
  7
ARIAL50
100
AcDbText
  0
TEXT
  5
1B0
330
2
100
AcDbEntity
  8
HALFEN
100
AcDbText
 10
607.2500000000019
 20
2268.900998456968
 30
0.0
 40
5.0
  1
GWP 41/22 - gv8.8 - M 10
  7
ARIAL50
100
AcDbText
  0
TEXT
  5
1B1
330
2
100
AcDbEntity
  8
HALFEN
100
AcDbText
 10
607.2500000000019
 20
2413.82549922848
 30
0.0
 40
5.0
  1
GWP 41/22 - gv8.8 - M 8
  7
ARIAL50
100
AcDbText
  0
ARC
  5
1B2
330
2
100
AcDbEntity
  8
HALFEN
100
AcDbCircle
 10
569.6000000000019
 20
2194.438748071211
 30
0.0
 40
17.34999999999998
100
AcDbArc
 50
334.6080863011853
 51
0.0
  0
LINE
  5
1B3
330
2
100
AcDbEntity
  8
HALFEN
100
AcDbLine
 10
586.8850368816518
 20
2192.938748071211
 30
0.0
 11
584.8562674841405
 21
2191.438748071211
 31
0.0
  0
LINE
  5
1B4
330
2
100
AcDbEntity
  8
HALFEN
100
AcDbLine
 10
571.779449471772
 20
2189.938748071211
 30
0.0
 11
586.3562674841404
 21
2189.938748071211
 31
0.0
  0
LINE
  5
1B5
330
2
100
AcDbEntity
  8
HALFEN
100
AcDbLine
 10
573.6000000000018
 20
2191.438748071211
 30
0.0
 11
584.8562674841404
 21
2191.438748071211
 31
0.0
  0
LINE
  5
1B6
330
2
100
AcDbEntity
  8
HALFEN
100
AcDbLine
 10
584.8562674841405
 20
2191.438748071211
 30
0.0
 11
586.3562674841404
 21
2189.938748071211
 31
0.0
  0
LINE
  5
1B7
330
2
100
AcDbEntity
  8
HALFEN
100
AcDbLine
 10
586.3562674841404
 20
2189.938748071211
 30
0.0
 11
583.4258333333353
 21
2188.438748071211
 31
0.0
  0
LINE
  5
1B8
330
2
100
AcDbEntity
  8
HALFEN
100
AcDbLine
 10
583.4258333333353
 20
2188.438748071211
 30
0.0
 11
584.9258333333353
 21
2186.938748071211
 31
0.0
  0
LINE
  5
1B9
330
2
100
AcDbEntity
  8
HALFEN
100
AcDbLine
 10
602.250000000002
 20
2111.476497685455
 30
0.0
 11
602.250000000002
 21
2131.476497685455
 31
0.0
  0
LINE
  5
1BA
330
2
100
AcDbEntity
  8
HALFEN
100
AcDbLine
 10
571.7794494717724
 20
2198.938748071211
 30
0.0
 11
586.9500000000019
 21
2198.938748071211
 31
0.0
  0
LINE
  5
1BB
330
2
100
AcDbEntity
  8
HALFEN
100
AcDbLine
 10
574.3696960070866
 20
2195.938748071212
 30
0.0
 11
586.9500000000019
 21
2195.938748071212
 31
0.0
  0
LINE
  5
1BC
330
2
100
AcDbEntity
  8
HALFEN
100
AcDbLine
 10
574.3696960070866
 20
2192.938748071211
 30
0.0
 11
586.8850368816518
 21
2192.938748071211
 31
0.0
  0
LINE
  5
1BD
330
2
100
AcDbEntity
  8
HALFEN
100
AcDbLine
 10
574.6000000000019
 20
2194.438748071211
 30
0.0
 11
585.3850368816519
 21
2194.438748071211
 31
0.0
  0
LINE
  5
1BE
330
2
100
AcDbEntity
  8
HALFEN
100
AcDbLine
 10
573.6000000000018
 20
2197.438748071212
 30
0.0
 11
585.450000000002
 21
2197.438748071212
 31
0.0
  0
LINE
  5
1BF
330
2
100
AcDbEntity
  8
HALFEN
100
AcDbLine
 10
580.2991666666685
 20
2206.438748071211
 30
0.0
 11
585.450000000002
 21
2206.438748071211
 31
0.0
  0
LINE
  5
1C0
330
2
100
AcDbEntity
  8
HALFEN
100
AcDbLine
 10
586.9500000000019
 20
2204.938748071211
 30
0.0
 11
585.450000000002
 21
2203.438748071211
 31
0.0
  0
LINE
  5
1C1
330
2
100
AcDbEntity
  8
HALFEN
100
AcDbLine
 10
585.450000000002
 20
2203.438748071211
 30
0.0
 11
586.9500000000019
 21
2201.938748071211
 31
0.0
  0
LINE
  5
1C2
330
2
100
AcDbEntity
  8
HALFEN
100
AcDbLine
 10
585.450000000002
 20
2200.438748071211
 30
0.0
 11
586.9500000000019
 21
2198.938748071211
 31
0.0
  0
LINE
  5
1C3
330
2
100
AcDbEntity
  8
HALFEN
100
AcDbLine
 10
586.9500000000019
 20
2201.938748071211
 30
0.0
 11
585.450000000002
 21
2200.438748071211
 31
0.0
  0
LINE
  5
1C4
330
2
100
AcDbEntity
  8
HALFEN
100
AcDbLine
 10
585.450000000002
 20
2206.438748071211
 30
0.0
 11
586.9500000000019
 21
2204.938748071211
 31
0.0
  0
ARC
  5
1C5
330
2
100
AcDbEntity
  8
HALFEN
100
AcDbCircle
 10
585.950000000002
 20
2206.400998456968
 30
0.0
 40
1.0
100
AcDbArc
 50
0.0
 51
99.81005142776737
  0
LINE
  5
1C6
330
2
100
AcDbEntity
  8
HALFEN
100
AcDbLine
 10
586.9500000000019
 20
2235.400998456968
 30
0.0
 11
586.9500000000019
 21
2228.900998456968
 31
0.0
  0
LINE
  5
1C7
330
2
100
AcDbEntity
  8
HALFEN
100
AcDbLine
 10
586.9500000000019
 20
2228.900998456968
 30
0.0
 11
585.5066243270279
 21
2227.400998456968
 31
0.0
  0
ARC
  5
1C8
330
2
100
AcDbEntity
  8
HALFEN
100
AcDbCircle
 10
585.950000000002
 20
2235.400998456968
 30
0.0
 40
1.0
100
AcDbArc
 50
0.0
 51
90.0
  0
LINE
  5
1C9
330
2
100
AcDbEntity
  8
HALFEN
100
AcDbLine
 10
585.450000000002
 20
2197.438748071212
 30
0.0
 11
586.9500000000019
 21
2195.938748071212
 31
0.0
  0
LINE
  5
1CA
330
2
100
AcDbEntity
  8
HALFEN
100
AcDbLine
 10
585.3850368816519
 20
2194.438748071211
 30
0.0
 11
586.8850368816518
 21
2192.938748071211
 31
0.0
  0
LINE
  5
1CB
330
2
100
AcDbEntity
  8
HALFEN
100
AcDbLine
 10
586.9500000000019
 20
2195.938748071212
 30
0.0
 11
585.3850368816519
 21
2194.438748071211
 31
0.0
  0
LINE
  5
1CC
330
2
100
AcDbEntity
  8
HALFEN
100
AcDbLine
 10
586.9500000000019
 20
2194.438748071211
 30
0.0
 11
586.9500000000019
 21
2206.400998456968
 31
0.0
  0
LINE
  5
1CD
330
2
100
AcDbEntity
  8
HALFEN
100
AcDbLine
 10
586.9500000000019
 20
2198.938748071211
 30
0.0
 11
585.450000000002
 21
2197.438748071212
 31
0.0
  0
LINE
  5
1CE
330
2
100
AcDbEntity
  8
HALFEN
100
AcDbLine
 10
602.2500000000019
 20
2256.400998456967
 30
0.0
 11
602.2500000000019
 21
2276.400998456967
 31
0.0
  0
ARC
  5
1CF
330
2
100
AcDbEntity
  8
HALFEN
 62
     1
100
AcDbCircle
 10
569.6000000000019
 20
2194.438748071211
 30
0.0
 40
5.0
100
AcDbArc
 50
280.0000000000001
 51
210.0
  0
CIRCLE
  5
1D0
330
2
100
AcDbEntity
  8
HALFEN
100
AcDbCircle
 10
569.6000000000019
 20
2194.438748071211
 30
0.0
 40
4.187999999999999
  0
TEXT
  5
1D1
330
2
100
AcDbEntity
  8
HALFEN
100
AcDbText
 10
607.250000000002
 20
2113.976497685455
 30
0.0
 40
5.0
  1
0380.060-00004
  7
ARIAL50
100
AcDbText
  0
TEXT
  5
1D2
330
2
100
AcDbEntity
  8
HALFEN
100
AcDbText
 10
607.2500000000019
 20
2258.900998456967
 30
0.0
 40
5.0
  1
0380.060-00003
  7
ARIAL50
100
AcDbText
  0
LINE
  5
1D3
330
2
100
AcDbEntity
  8
HALFEN
100
AcDbLine
 10
622.9122503857581
 20
2227.400998456968
 30
0.0
 11
624.4122503857582
 21
2228.900998456968
 31
0.0
  0
LINE
  5
1D4
330
2
100
AcDbEntity
  8
HALFEN
100
AcDbLine
 10
606.950000000002
 20
2228.900998456968
 30
0.0
 11
633.0622503857583
 21
2228.900998456968
 31
0.0
  0
LINE
  5
1D5
330
2
100
AcDbEntity
  8
HALFEN
100
AcDbLine
 10
607.9500000000019
 20
2236.400998456968
 30
0.0
 11
632.0622503857581
 21
2236.400998456968
 31
0.0
  0
LINE
  5
1D6
330
2
100
AcDbEntity
  8
HALFEN
100
AcDbLine
 10
613.9122503857581
 20
2227.400998456968
 30
0.0
 11
615.4122503857581
 21
2228.900998456968
 31
0.0
  0
LINE
  5
1D7
330
2
100
AcDbEntity
  8
HALFEN
100
AcDbLine
 10
612.4122503857582
 20
2228.900998456968
 30
0.0
 11
613.9122503857581
 21
2227.400998456968
 31
0.0
  0
LINE
  5
1D8
330
2
100
AcDbEntity
  8
HALFEN
100
AcDbLine
 10
610.9122503857581
 20
2227.400998456968
 30
0.0
 11
612.4122503857582
 21
2228.900998456968
 31
0.0
  0
LINE
  5
1D9
330
2
100
AcDbEntity
  8
HALFEN
100
AcDbLine
 10
609.4122503857581
 20
2228.900998456968
 30
0.0
 11
610.9122503857581
 21
2227.400998456968
 31
0.0
  0
LINE
  5
1DA
330
2
100
AcDbEntity
  8
HALFEN
100
AcDbLine
 10
606.950000000002
 20
2235.400998456968
 30
0.0
 11
606.950000000002
 21
2228.900998456968
 31
0.0
  0
LINE
  5
1DB
330
2
100
AcDbEntity
  8
HALFEN
100
AcDbLine
 10
606.950000000002
 20
2228.900998456968
 30
0.0
 11
607.9122503857582
 21
2227.400998456968
 31
0.0
  0
ARC
  5
1DC
330
2
100
AcDbEntity
  8
HALFEN
100
AcDbCircle
 10
607.9500000000019
 20
2235.400998456968
 30
0.0
 40
1.0
100
AcDbArc
 50
90.00000000000005
 51
180.0
  0
LINE
  5
1DD
330
2
100
AcDbEntity
  8
HALFEN
100
AcDbLine
 10
607.9122503857582
 20
2227.400998456968
 30
0.0
 11
609.4122503857581
 21
2228.900998456968
 31
0.0
  0
LINE
  5
1DE
330
2
100
AcDbEntity
  8
HALFEN
100
AcDbLine
 10
619.9122503857581
 20
2227.400998456968
 30
0.0
 11
621.4122503857582
 21
2228.900998456968
 31
0.0
  0
LINE
  5
1DF
330
2
100
AcDbEntity
  8
HALFEN
100
AcDbLine
 10
618.4122503857581
 20
2228.900998456968
 30
0.0
 11
619.9122503857581
 21
2227.400998456968
 31
0.0
  0
LINE
  5
1E0
330
2
100
AcDbEntity
  8
HALFEN
100
AcDbLine
 10
621.4122503857582
 20
2228.900998456968
 30
0.0
 11
622.9122503857581
 21
2227.400998456968
 31
0.0
  0
LINE
  5
1E1
330
2
100
AcDbEntity
  8
HALFEN
100
AcDbLine
 10
615.4122503857581
 20
2228.900998456968
 30
0.0
 11
616.9122503857582
 21
2227.400998456968
 31
0.0
  0
LINE
  5
1E2
330
2
100
AcDbEntity
  8
HALFEN
100
AcDbLine
 10
616.9122503857582
 20
2227.400998456968
 30
0.0
 11
618.4122503857581
 21
2228.900998456968
 31
0.0
  0
LINE
  5
1E3
330
2
100
AcDbEntity
  8
HALFEN
100
AcDbLine
 10
631.912250385758
 20
2227.400998456968
 30
0.0
 11
633.0622503857581
 21
2228.900998456968
 31
0.0
  0
LINE
  5
1E4
330
2
100
AcDbEntity
  8
HALFEN
100
AcDbLine
 10
627.4459377311143
 20
2228.900998456968
 30
0.0
 11
628.9122503857582
 21
2227.400998456968
 31
0.0
  0
LINE
  5
1E5
330
2
100
AcDbEntity
  8
HALFEN
100
AcDbLine
 10
627.4459377311142
 20
2235.400998456968
 30
0.0
 11
627.4459377311143
 21
2228.900998456968
 31
0.0
  0
LINE
  5
1E6
330
2
100
AcDbEntity
  8
HALFEN
100
AcDbLine
 10
625.9122503857582
 20
2227.400998456968
 30
0.0
 11
627.4459377311143
 21
2228.900998456968
 31
0.0
  0
ARC
  5
1E7
330
2
100
AcDbEntity
  8
HALFEN
100
AcDbCircle
 10
626.4459377311141
 20
2235.400998456968
 30
0.0
 40
1.0
100
AcDbArc
 50
0.0
 51
90.0000000000001
  0
LINE
  5
1E8
330
2
100
AcDbEntity
  8
HALFEN
100
AcDbLine
 10
628.9122503857582
 20
2227.400998456968
 30
0.0
 11
630.412250385758
 21
2228.900998456968
 31
0.0
  0
LINE
  5
1E9
330
2
100
AcDbEntity
  8
HALFEN
100
AcDbLine
 10
631.912250385758
 20
2227.400998456968
 30
0.0
 11
630.412250385758
 21
2228.900998456968
 31
0.0
  0
LINE
  5
1EA
330
2
100
AcDbEntity
  8
HALFEN
100
AcDbLine
 10
624.4122503857583
 20
2228.900998456968
 30
0.0
 11
625.9122503857581
 21
2227.400998456968
 31
0.0
  0
LINE
  5
1EB
330
2
100
AcDbEntity
  8
HALFEN
100
AcDbLine
 10
633.0622503857581
 20
2235.400998456968
 30
0.0
 11
633.0622503857583
 21
2228.900998456968
 31
0.0
  0
ARC
  5
1EC
330
2
100
AcDbEntity
  8
HALFEN
100
AcDbCircle
 10
632.0622503857581
 20
2235.400998456968
 30
0.0
 40
1.0
100
AcDbArc
 50
0.0
 51
90.0000000000001
  0
LINE
  5
1ED
330
2
100
AcDbEntity
  8
HALFEN
100
AcDbLine
 10
586.9500000000019
 20
2343.863248842724
 30
0.0
 11
585.450000000002
 21
2342.363248842724
 31
0.0
  0
LINE
  5
1EE
330
2
100
AcDbEntity
  8
HALFEN
100
AcDbLine
 10
586.9500000000019
 20
2339.363248842724
 30
0.0
 11
586.9500000000019
 21
2351.32549922848
 31
0.0
  0
LINE
  5
1EF
330
2
100
AcDbEntity
  8
HALFEN
100
AcDbLine
 10
572.2457513110663
 20
2336.363248842724
 30
0.0
 11
584.8562674841404
 21
2336.363248842724
 31
0.0
  0
LINE
  5
1F0
330
2
100
AcDbEntity
  8
HALFEN
100
AcDbLine
 10
552.2500000000018
 20
2334.863248842724
 30
0.0
 11
586.3562674841404
 21
2334.863248842724
 31
0.0
  0
LINE
  5
1F1
330
2
100
AcDbEntity
  8
HALFEN
100
AcDbLine
 10
572.2457513110667
 20
2342.363248842724
 30
0.0
 11
585.450000000002
 21
2342.363248842724
 31
0.0
  0
LINE
  5
1F2
330
2
100
AcDbEntity
  8
HALFEN
100
AcDbLine
 10
573.6000000000019
 20
2339.363248842724
 30
0.0
 11
585.3850368816519
 21
2339.363248842724
 31
0.0
  0
LINE
  5
1F3
330
2
100
AcDbEntity
  8
HALFEN
100
AcDbLine
 10
573.3080992435498
 20
2337.863248842724
 30
0.0
 11
586.8850368816518
 21
2337.863248842724
 31
0.0
  0
LINE
  5
1F4
330
2
100
AcDbEntity
  8
HALFEN
100
AcDbLine
 10
573.3080992435496
 20
2340.863248842724
 30
0.0
 11
586.9500000000019
 21
2340.863248842724
 31
0.0
  0
LINE
  5
1F5
330
2
100
AcDbEntity
  8
HALFEN
100
AcDbLine
 10
586.8850368816518
 20
2337.863248842724
 30
0.0
 11
584.8562674841405
 21
2336.363248842724
 31
0.0
  0
ARC
  5
1F6
330
2
100
AcDbEntity
  8
HALFEN
100
AcDbCircle
 10
569.6000000000019
 20
2339.363248842724
 30
0.0
 40
17.34999999999998
100
AcDbArc
 50
334.6080863011853
 51
0.0
  0
LINE
  5
1F7
330
2
100
AcDbEntity
  8
HALFEN
100
AcDbLine
 10
584.8562674841405
 20
2336.363248842724
 30
0.0
 11
586.3562674841404
 21
2334.863248842724
 31
0.0
  0
LINE
  5
1F8
330
2
100
AcDbEntity
  8
HALFEN
100
AcDbLine
 10
586.9500000000019
 20
2340.863248842724
 30
0.0
 11
585.3850368816519
 21
2339.363248842724
 31
0.0
  0
LINE
  5
1F9
330
2
100
AcDbEntity
  8
HALFEN
100
AcDbLine
 10
585.3850368816519
 20
2339.363248842724
 30
0.0
 11
586.8850368816518
 21
2337.863248842724
 31
0.0
  0
LINE
  5
1FA
330
2
100
AcDbEntity
  8
HALFEN
100
AcDbLine
 10
585.450000000002
 20
2342.363248842724
 30
0.0
 11
586.9500000000019
 21
2340.863248842724
 31
0.0
  0
LINE
  5
1FB
330
2
100
AcDbEntity
  8
HALFEN
100
AcDbLine
 10
583.4258333333353
 20
2333.363248842724
 30
0.0
 11
584.9258333333353
 21
2331.863248842724
 31
0.0
  0
LINE
  5
1FC
330
2
100
AcDbEntity
  8
HALFEN
100
AcDbLine
 10
586.3562674841404
 20
2334.863248842724
 30
0.0
 11
583.4258333333353
 21
2333.363248842724
 31
0.0
  0
LINE
  5
1FD
330
2
100
AcDbEntity
  8
HALFEN
100
AcDbLine
 10
580.2991666666685
 20
2351.363248842724
 30
0.0
 11
585.450000000002
 21
2351.363248842724
 31
0.0
  0
LINE
  5
1FE
330
2
100
AcDbEntity
  8
HALFEN
100
AcDbLine
 10
552.8437325158632
 20
2343.863248842724
 30
0.0
 11
586.9500000000019
 21
2343.863248842724
 31
0.0
  0
ARC
  5
1FF
330
2
100
AcDbEntity
  8
HALFEN
100
AcDbCircle
 10
585.950000000002
 20
2380.32549922848
 30
0.0
 40
1.0
100
AcDbArc
 50
0.0
 51
90.0
  0
LINE
  5
200
330
2
100
AcDbEntity
  8
HALFEN
100
AcDbLine
 10
586.9500000000019
 20
2373.82549922848
 30
0.0
 11
585.5066243270279
 21
2372.32549922848
 31
0.0
  0
LINE
  5
201
330
2
100
AcDbEntity
  8
HALFEN
100
AcDbLine
 10
586.9500000000019
 20
2380.32549922848
 30
0.0
 11
586.9500000000019
 21
2373.82549922848
 31
0.0
  0
ARC
  5
202
330
2
100
AcDbEntity
  8
HALFEN
100
AcDbCircle
 10
585.950000000002
 20
2351.32549922848
 30
0.0
 40
1.0
100
AcDbArc
 50
0.0
 51
99.81005142776737
  0
LINE
  5
203
330
2
100
AcDbEntity
  8
HALFEN
100
AcDbLine
 10
585.450000000002
 20
2351.363248842724
 30
0.0
 11
586.9500000000019
 21
2349.863248842724
 31
0.0
  0
LINE
  5
204
330
2
100
AcDbEntity
  8
HALFEN
100
AcDbLine
 10
586.9500000000019
 20
2346.863248842724
 30
0.0
 11
585.450000000002
 21
2345.363248842724
 31
0.0
  0
LINE
  5
205
330
2
100
AcDbEntity
  8
HALFEN
100
AcDbLine
 10
585.450000000002
 20
2345.363248842724
 30
0.0
 11
586.9500000000019
 21
2343.863248842724
 31
0.0
  0
LINE
  5
206
330
2
100
AcDbEntity
  8
HALFEN
100
AcDbLine
 10
585.450000000002
 20
2348.363248842724
 30
0.0
 11
586.9500000000019
 21
2346.863248842724
 31
0.0
  0
LINE
  5
207
330
2
100
AcDbEntity
  8
HALFEN
100
AcDbLine
 10
586.9500000000019
 20
2349.863248842724
 30
0.0
 11
585.450000000002
 21
2348.363248842724
 31
0.0
  0
LINE
  5
208
330
2
100
AcDbEntity
  8
HALFEN
100
AcDbLine
 10
572.6000000000019
 20
2484.287749614237
 30
0.0
 11
585.3850368816519
 21
2484.287749614237
 31
0.0
  0
LINE
  5
209
330
2
100
AcDbEntity
  8
HALFEN
100
AcDbLine
 10
572.1980762113552
 20
2482.787749614236
 30
0.0
 11
586.8850368816518
 21
2482.787749614236
 31
0.0
  0
LINE
  5
20A
330
2
100
AcDbEntity
  8
HALFEN
100
AcDbLine
 10
572.1980762113552
 20
2485.787749614237
 30
0.0
 11
586.9500000000019
 21
2485.787749614237
 31
0.0
  0
LINE
  5
20B
330
2
100
AcDbEntity
  8
HALFEN
100
AcDbLine
 10
586.8850368816518
 20
2482.787749614236
 30
0.0
 11
584.8562674841405
 21
2481.287749614236
 31
0.0
  0
ARC
  5
20C
330
2
100
AcDbEntity
  8
HALFEN
100
AcDbCircle
 10
569.6000000000019
 20
2484.287749614237
 30
0.0
 40
17.34999999999998
100
AcDbArc
 50
334.6080863011853
 51
0.0
  0
LINE
  5
20D
330
2
100
AcDbEntity
  8
HALFEN
100
AcDbLine
 10
584.8562674841405
 20
2481.287749614236
 30
0.0
 11
586.3562674841404
 21
2479.787749614237
 31
0.0
  0
LINE
  5
20E
330
2
100
AcDbEntity
  8
HALFEN
100
AcDbLine
 10
586.9500000000019
 20
2491.787749614236
 30
0.0
 11
585.450000000002
 21
2490.287749614237
 31
0.0
  0
LINE
  5
20F
330
2
100
AcDbEntity
  8
HALFEN
100
AcDbLine
 10
586.9500000000019
 20
2488.787749614237
 30
0.0
 11
585.450000000002
 21
2487.287749614237
 31
0.0
  0
LINE
  5
210
330
2
100
AcDbEntity
  8
HALFEN
100
AcDbLine
 10
585.450000000002
 20
2490.287749614237
 30
0.0
 11
586.9500000000019
 21
2488.787749614237
 31
0.0
  0
LINE
  5
211
330
2
100
AcDbEntity
  8
HALFEN
100
AcDbLine
 10
586.9500000000019
 20
2485.787749614237
 30
0.0
 11
585.3850368816519
 21
2484.287749614237
 31
0.0
  0
LINE
  5
212
330
2
100
AcDbEntity
  8
HALFEN
100
AcDbLine
 10
585.3850368816519
 20
2484.287749614237
 30
0.0
 11
586.8850368816518
 21
2482.787749614236
 31
0.0
  0
LINE
  5
213
330
2
100
AcDbEntity
  8
HALFEN
100
AcDbLine
 10
585.450000000002
 20
2487.287749614237
 30
0.0
 11
586.9500000000019
 21
2485.787749614237
 31
0.0
  0
LINE
  5
214
330
2
100
AcDbEntity
  8
HALFEN
100
AcDbLine
 10
585.450000000002
 20
2493.287749614236
 30
0.0
 11
586.9500000000019
 21
2491.787749614236
 31
0.0
  0
LINE
  5
215
330
2
100
AcDbEntity
  8
HALFEN
100
AcDbLine
 10
583.4258333333353
 20
2478.287749614237
 30
0.0
 11
584.9258333333353
 21
2476.787749614237
 31
0.0
  0
LINE
  5
216
330
2
100
AcDbEntity
  8
HALFEN
100
AcDbLine
 10
586.3562674841404
 20
2479.787749614237
 30
0.0
 11
583.4258333333353
 21
2478.287749614237
 31
0.0
  0
LINE
  5
217
330
2
100
AcDbEntity
  8
HALFEN
100
AcDbLine
 10
602.2500000000019
 20
2401.32549922848
 30
0.0
 11
602.2500000000019
 21
2421.32549922848
 31
0.0
  0
ARC
  5
218
330
2
100
AcDbEntity
  8
HALFEN
 62
     1
100
AcDbCircle
 10
569.6000000000019
 20
2339.363248842724
 30
0.0
 40
4.0
100
AcDbArc
 50
280.0000000000001
 51
210.0
  0
CIRCLE
  5
219
330
2
100
AcDbEntity
  8
HALFEN
100
AcDbCircle
 10
569.6000000000019
 20
2339.363248842724
 30
0.0
 40
3.3235
  0
LINE
  5
21A
330
2
100
AcDbEntity
  8
HALFEN
100
AcDbLine
 10
622.9122503857581
 20
2372.32549922848
 30
0.0
 11
624.4122503857582
 21
2373.82549922848
 31
0.0
  0
LINE
  5
21B
330
2
100
AcDbEntity
  8
HALFEN
100
AcDbLine
 10
607.9500000000019
 20
2381.32549922848
 30
0.0
 11
632.0622503857581
 21
2381.32549922848
 31
0.0
  0
LINE
  5
21C
330
2
100
AcDbEntity
  8
HALFEN
100
AcDbLine
 10
606.950000000002
 20
2373.82549922848
 30
0.0
 11
633.0622503857583
 21
2373.82549922848
 31
0.0
  0
LINE
  5
21D
330
2
100
AcDbEntity
  8
HALFEN
100
AcDbLine
 10
613.9122503857581
 20
2372.32549922848
 30
0.0
 11
615.4122503857581
 21
2373.82549922848
 31
0.0
  0
LINE
  5
21E
330
2
100
AcDbEntity
  8
HALFEN
100
AcDbLine
 10
609.4122503857581
 20
2373.82549922848
 30
0.0
 11
610.9122503857581
 21
2372.32549922848
 31
0.0
  0
LINE
  5
21F
330
2
100
AcDbEntity
  8
HALFEN
100
AcDbLine
 10
610.9122503857581
 20
2372.32549922848
 30
0.0
 11
612.4122503857582
 21
2373.82549922848
 31
0.0
  0
LINE
  5
220
330
2
100
AcDbEntity
  8
HALFEN
100
AcDbLine
 10
612.4122503857582
 20
2373.82549922848
 30
0.0
 11
613.9122503857581
 21
2372.32549922848
 31
0.0
  0
ARC
  5
221
330
2
100
AcDbEntity
  8
HALFEN
100
AcDbCircle
 10
607.9500000000019
 20
2380.32549922848
 30
0.0
 40
1.0
100
AcDbArc
 50
90.00000000000005
 51
180.0
  0
LINE
  5
222
330
2
100
AcDbEntity
  8
HALFEN
100
AcDbLine
 10
606.950000000002
 20
2373.82549922848
 30
0.0
 11
607.9122503857582
 21
2372.32549922848
 31
0.0
  0
LINE
  5
223
330
2
100
AcDbEntity
  8
HALFEN
100
AcDbLine
 10
606.950000000002
 20
2380.32549922848
 30
0.0
 11
606.950000000002
 21
2373.82549922848
 31
0.0
  0
LINE
  5
224
330
2
100
AcDbEntity
  8
HALFEN
100
AcDbLine
 10
607.9122503857582
 20
2372.32549922848
 30
0.0
 11
609.4122503857581
 21
2373.82549922848
 31
0.0
  0
LINE
  5
225
330
2
100
AcDbEntity
  8
HALFEN
100
AcDbLine
 10
621.4122503857582
 20
2373.82549922848
 30
0.0
 11
622.9122503857581
 21
2372.32549922848
 31
0.0
  0
LINE
  5
226
330
2
100
AcDbEntity
  8
HALFEN
100
AcDbLine
 10
618.4122503857581
 20
2373.82549922848
 30
0.0
 11
619.9122503857581
 21
2372.32549922848
 31
0.0
  0
LINE
  5
227
330
2
100
AcDbEntity
  8
HALFEN
100
AcDbLine
 10
619.9122503857581
 20
2372.32549922848
 30
0.0
 11
621.4122503857582
 21
2373.82549922848
 31
0.0
  0
LINE
  5
228
330
2
100
AcDbEntity
  8
HALFEN
100
AcDbLine
 10
615.4122503857581
 20
2373.82549922848
 30
0.0
 11
616.9122503857582
 21
2372.32549922848
 31
0.0
  0
LINE
  5
229
330
2
100
AcDbEntity
  8
HALFEN
100
AcDbLine
 10
616.9122503857582
 20
2372.32549922848
 30
0.0
 11
618.4122503857581
 21
2373.82549922848
 31
0.0
  0
LINE
  5
22A
330
2
100
AcDbEntity
  8
HALFEN
100
AcDbLine
 10
631.912250385758
 20
2372.32549922848
 30
0.0
 11
633.0622503857581
 21
2373.82549922848
 31
0.0
  0
LINE
  5
22B
330
2
100
AcDbEntity
  8
HALFEN
100
AcDbLine
 10
631.912250385758
 20
2372.32549922848
 30
0.0
 11
630.412250385758
 21
2373.82549922848
 31
0.0
  0
LINE
  5
22C
330
2
100
AcDbEntity
  8
HALFEN
100
AcDbLine
 10
628.9122503857582
 20
2372.32549922848
 30
0.0
 11
630.412250385758
 21
2373.82549922848
 31
0.0
  0
ARC
  5
22D
330
2
100
AcDbEntity
  8
HALFEN
100
AcDbCircle
 10
626.4459377311141
 20
2380.32549922848
 30
0.0
 40
1.0
100
AcDbArc
 50
0.0
 51
90.0000000000001
  0
LINE
  5
22E
330
2
100
AcDbEntity
  8
HALFEN
100
AcDbLine
 10
625.9122503857582
 20
2372.32549922848
 30
0.0
 11
627.4459377311143
 21
2373.82549922848
 31
0.0
  0
LINE
  5
22F
330
2
100
AcDbEntity
  8
HALFEN
100
AcDbLine
 10
627.4459377311142
 20
2380.32549922848
 30
0.0
 11
627.4459377311143
 21
2373.82549922848
 31
0.0
  0
LINE
  5
230
330
2
100
AcDbEntity
  8
HALFEN
100
AcDbLine
 10
627.4459377311143
 20
2373.82549922848
 30
0.0
 11
628.9122503857582
 21
2372.32549922848
 31
0.0
  0
LINE
  5
231
330
2
100
AcDbEntity
  8
HALFEN
100
AcDbLine
 10
624.4122503857583
 20
2373.82549922848
 30
0.0
 11
625.9122503857581
 21
2372.32549922848
 31
0.0
  0
ARC
  5
232
330
2
100
AcDbEntity
  8
HALFEN
100
AcDbCircle
 10
632.0622503857581
 20
2380.32549922848
 30
0.0
 40
1.0
100
AcDbArc
 50
0.0
 51
90.0000000000001
  0
LINE
  5
233
330
2
100
AcDbEntity
  8
HALFEN
100
AcDbLine
 10
633.0622503857581
 20
2380.32549922848
 30
0.0
 11
633.0622503857583
 21
2373.82549922848
 31
0.0
  0
TEXT
  5
234
330
2
100
AcDbEntity
  8
HALFEN
100
AcDbText
 10
607.2500000000019
 20
2403.82549922848
 30
0.0
 40
5.0
  1
0380.060-00002
  7
ARIAL50
100
AcDbText
  0
LINE
  5
235
330
2
100
AcDbEntity
  8
HALFEN
100
AcDbLine
 10
702.250000000002
 20
2111.476497685455
 30
0.0
 11
702.250000000002
 21
2131.476497685455
 31
0.0
  0
LINE
  5
236
330
2
100
AcDbEntity
  8
HALFEN
100
AcDbLine
 10
702.2500000000019
 20
2256.400998456967
 30
0.0
 11
702.2500000000019
 21
2276.400998456967
 31
0.0
  0
LINE
  5
237
330
2
100
AcDbEntity
  8
HALFEN
100
AcDbLine
 10
702.2500000000019
 20
2401.32549922848
 30
0.0
 11
702.2500000000019
 21
2421.32549922848
 31
0.0
  0
TEXT
  5
238
330
2
100
AcDbEntity
  8
HALFEN
100
AcDbText
 10
607.2500000000019
 20
2558.749999999993
 30
0.0
 40
5.0
  1
GWP 41/22 - gv8.8 - M 6
  7
ARIAL50
100
AcDbText
  0
LINE
  5
239
330
2
100
AcDbEntity
  8
HALFEN
100
AcDbLine
 10
580.2991666666685
 20
2496.287749614237
 30
0.0
 11
585.450000000002
 21
2496.287749614237
 31
0.0
  0
ARC
  5
23A
330
2
100
AcDbEntity
  8
HALFEN
100
AcDbCircle
 10
585.950000000002
 20
2525.249999999993
 30
0.0
 40
1.0
100
AcDbArc
 50
0.0
 51
90.0
  0
LINE
  5
23B
330
2
100
AcDbEntity
  8
HALFEN
100
AcDbLine
 10
586.9500000000019
 20
2518.749999999993
 30
0.0
 11
585.5066243270279
 21
2517.249999999993
 31
0.0
  0
LINE
  5
23C
330
2
100
AcDbEntity
  8
HALFEN
100
AcDbLine
 10
586.9500000000019
 20
2525.249999999993
 30
0.0
 11
586.9500000000019
 21
2518.749999999993
 31
0.0
  0
ARC
  5
23D
330
2
100
AcDbEntity
  8
HALFEN
100
AcDbCircle
 10
585.950000000002
 20
2496.249999999993
 30
0.0
 40
1.0
100
AcDbArc
 50
0.0
 51
99.81005142776737
  0
LINE
  5
23E
330
2
100
AcDbEntity
  8
HALFEN
100
AcDbLine
 10
585.450000000002
 20
2496.287749614237
 30
0.0
 11
586.9500000000019
 21
2494.787749614236
 31
0.0
  0
LINE
  5
23F
330
2
100
AcDbEntity
  8
HALFEN
100
AcDbLine
 10
602.2500000000019
 20
2546.249999999993
 30
0.0
 11
602.2500000000019
 21
2566.249999999993
 31
0.0
  0
LINE
  5
240
330
2
100
AcDbEntity
  8
HALFEN
100
AcDbLine
 10
622.9122503857581
 20
2517.249999999993
 30
0.0
 11
624.4122503857582
 21
2518.749999999993
 31
0.0
  0
LINE
  5
241
330
2
100
AcDbEntity
  8
HALFEN
100
AcDbLine
 10
607.9500000000019
 20
2526.249999999993
 30
0.0
 11
632.0622503857581
 21
2526.249999999993
 31
0.0
  0
LINE
  5
242
330
2
100
AcDbEntity
  8
HALFEN
100
AcDbLine
 10
606.950000000002
 20
2518.749999999993
 30
0.0
 11
633.0622503857583
 21
2518.749999999993
 31
0.0
  0
TEXT
  5
243
330
2
100
AcDbEntity
  8
HALFEN
100
AcDbText
 10
607.2500000000019
 20
2548.749999999993
 30
0.0
 40
5.0
  1
0380.060-00001
  7
ARIAL50
100
AcDbText
  0
LINE
  5
244
330
2
100
AcDbEntity
  8
HALFEN
100
AcDbLine
 10
613.9122503857581
 20
2517.249999999993
 30
0.0
 11
615.4122503857581
 21
2518.749999999993
 31
0.0
  0
LINE
  5
245
330
2
100
AcDbEntity
  8
HALFEN
100
AcDbLine
 10
609.4122503857581
 20
2518.749999999993
 30
0.0
 11
610.9122503857581
 21
2517.249999999993
 31
0.0
  0
LINE
  5
246
330
2
100
AcDbEntity
  8
HALFEN
100
AcDbLine
 10
610.9122503857581
 20
2517.249999999993
 30
0.0
 11
612.4122503857582
 21
2518.749999999993
 31
0.0
  0
LINE
  5
247
330
2
100
AcDbEntity
  8
HALFEN
100
AcDbLine
 10
612.4122503857582
 20
2518.749999999993
 30
0.0
 11
613.9122503857581
 21
2517.249999999993
 31
0.0
  0
ARC
  5
248
330
2
100
AcDbEntity
  8
HALFEN
100
AcDbCircle
 10
607.9500000000019
 20
2525.249999999993
 30
0.0
 40
1.0
100
AcDbArc
 50
90.00000000000005
 51
180.0
  0
LINE
  5
249
330
2
100
AcDbEntity
  8
HALFEN
100
AcDbLine
 10
606.950000000002
 20
2518.749999999993
 30
0.0
 11
607.9122503857582
 21
2517.249999999993
 31
0.0
  0
LINE
  5
24A
330
2
100
AcDbEntity
  8
HALFEN
100
AcDbLine
 10
606.950000000002
 20
2525.249999999993
 30
0.0
 11
606.950000000002
 21
2518.749999999993
 31
0.0
  0
LINE
  5
24B
330
2
100
AcDbEntity
  8
HALFEN
100
AcDbLine
 10
607.9122503857582
 20
2517.249999999993
 30
0.0
 11
609.4122503857581
 21
2518.749999999993
 31
0.0
  0
LINE
  5
24C
330
2
100
AcDbEntity
  8
HALFEN
100
AcDbLine
 10
621.4122503857582
 20
2518.749999999993
 30
0.0
 11
622.9122503857581
 21
2517.249999999993
 31
0.0
  0
LINE
  5
24D
330
2
100
AcDbEntity
  8
HALFEN
100
AcDbLine
 10
618.4122503857581
 20
2518.749999999993
 30
0.0
 11
619.9122503857581
 21
2517.249999999993
 31
0.0
  0
LINE
  5
24E
330
2
100
AcDbEntity
  8
HALFEN
100
AcDbLine
 10
619.9122503857581
 20
2517.249999999993
 30
0.0
 11
621.4122503857582
 21
2518.749999999993
 31
0.0
  0
LINE
  5
24F
330
2
100
AcDbEntity
  8
HALFEN
100
AcDbLine
 10
615.4122503857581
 20
2518.749999999993
 30
0.0
 11
616.9122503857582
 21
2517.249999999993
 31
0.0
  0
LINE
  5
250
330
2
100
AcDbEntity
  8
HALFEN
100
AcDbLine
 10
616.9122503857582
 20
2517.249999999993
 30
0.0
 11
618.4122503857581
 21
2518.749999999993
 31
0.0
  0
LINE
  5
251
330
2
100
AcDbEntity
  8
HALFEN
100
AcDbLine
 10
631.912250385758
 20
2517.249999999993
 30
0.0
 11
633.0622503857581
 21
2518.749999999993
 31
0.0
  0
LINE
  5
252
330
2
100
AcDbEntity
  8
HALFEN
100
AcDbLine
 10
631.912250385758
 20
2517.249999999993
 30
0.0
 11
630.412250385758
 21
2518.749999999993
 31
0.0
  0
LINE
  5
253
330
2
100
AcDbEntity
  8
HALFEN
100
AcDbLine
 10
628.9122503857582
 20
2517.249999999993
 30
0.0
 11
630.412250385758
 21
2518.749999999993
 31
0.0
  0
ARC
  5
254
330
2
100
AcDbEntity
  8
HALFEN
100
AcDbCircle
 10
626.4459377311141
 20
2525.249999999993
 30
0.0
 40
1.0
100
AcDbArc
 50
0.0
 51
90.0000000000001
  0
LINE
  5
255
330
2
100
AcDbEntity
  8
HALFEN
100
AcDbLine
 10
625.9122503857582
 20
2517.249999999993
 30
0.0
 11
627.4459377311143
 21
2518.749999999993
 31
0.0
  0
LINE
  5
256
330
2
100
AcDbEntity
  8
HALFEN
100
AcDbLine
 10
627.4459377311142
 20
2525.249999999993
 30
0.0
 11
627.4459377311143
 21
2518.749999999993
 31
0.0
  0
LINE
  5
257
330
2
100
AcDbEntity
  8
HALFEN
100
AcDbLine
 10
627.4459377311143
 20
2518.749999999993
 30
0.0
 11
628.9122503857582
 21
2517.249999999993
 31
0.0
  0
LINE
  5
258
330
2
100
AcDbEntity
  8
HALFEN
100
AcDbLine
 10
624.4122503857583
 20
2518.749999999993
 30
0.0
 11
625.9122503857581
 21
2517.249999999993
 31
0.0
  0
ARC
  5
259
330
2
100
AcDbEntity
  8
HALFEN
100
AcDbCircle
 10
632.0622503857581
 20
2525.249999999993
 30
0.0
 40
1.0
100
AcDbArc
 50
0.0
 51
90.0000000000001
  0
LINE
  5
25A
330
2
100
AcDbEntity
  8
HALFEN
100
AcDbLine
 10
633.0622503857581
 20
2525.249999999993
 30
0.0
 11
633.0622503857583
 21
2518.749999999993
 31
0.0
  0
LINE
  5
25B
330
2
100
AcDbEntity
  8
HALFEN
100
AcDbLine
 10
702.2500000000019
 20
2546.249999999993
 30
0.0
 11
702.2500000000019
 21
2566.249999999993
 31
0.0
  0
TEXT
  5
25C
330
2
100
AcDbEntity
  8
HALFEN
100
AcDbText
 10
777.2500000000019
 20
1979.051996913942
 30
0.0
 40
5.0
  1
GWP 41/22 - A4 - M16
  7
ARIAL50
100
AcDbText
  0
LINE
  5
25D
330
2
100
AcDbEntity
  8
HALFEN
100
AcDbLine
 10
722.2500000000019
 20
1986.551996913942
 30
0.0
 11
872.2500000000019
 21
1986.551996913942
 31
0.0
  0
LINE
  5
25E
330
2
100
AcDbEntity
  8
HALFEN
100
AcDbLine
 10
722.2500000000019
 20
1976.551996913942
 30
0.0
 11
872.2500000000019
 21
1976.551996913942
 31
0.0
  0
LINE
  5
25F
330
2
100
AcDbEntity
  8
HALFEN
100
AcDbLine
 10
722.2500000000019
 20
1966.551996913942
 30
0.0
 11
872.2500000000019
 21
1966.551996913942
 31
0.0
  0
TEXT
  5
260
330
2
100
AcDbEntity
  8
HALFEN
100
AcDbText
 10
727.2500000000019
 20
1979.051996913942
 30
0.0
 40
5.0
  1
Benennung
  7
ARIAL50
100
AcDbText
  0
TEXT
  5
261
330
2
100
AcDbEntity
  8
HALFEN
100
AcDbText
 10
727.2500000000019
 20
1969.051996913942
 30
0.0
 40
5.0
  1
Id. Nr.
  7
ARIAL50
100
AcDbText
  0
TEXT
  5
262
330
2
100
AcDbEntity
  8
HALFEN
100
AcDbText
 10
722.2500000000019
 20
1989.051996913942
 30
0.0
 40
5.0
  1
A4
  7
ARIAL50
100
AcDbText
  0
LINE
  5
263
330
2
100
AcDbEntity
  8
HALFEN
100
AcDbLine
 10
722.2500000000019
 20
1966.551996913942
 30
0.0
 11
722.2500000000019
 21
1986.551996913942
 31
0.0
  0
LINE
  5
264
330
2
100
AcDbEntity
  8
HALFEN
100
AcDbLine
 10
772.2500000000019
 20
1966.551996913942
 30
0.0
 11
772.2500000000019
 21
1986.551996913942
 31
0.0
  0
TEXT
  5
265
330
2
100
AcDbEntity
  8
HALFEN
100
AcDbText
 10
777.2500000000019
 20
1969.051996913942
 30
0.0
 40
5.0
  1
0380.060-00009
  7
ARIAL50
100
AcDbText
  0
LINE
  5
266
330
2
100
AcDbEntity
  8
HALFEN
100
AcDbLine
 10
872.2500000000019
 20
1966.551996913942
 30
0.0
 11
872.2500000000019
 21
1986.551996913942
 31
0.0
  0
TEXT
  5
267
330
2
100
AcDbEntity
  8
HALFEN
100
AcDbText
 10
777.2500000000019
 20
2123.976497685455
 30
0.0
 40
5.0
  1
GWP 41/22 - A4 - M12
  7
ARIAL50
100
AcDbText
  0
LINE
  5
268
330
2
100
AcDbEntity
  8
HALFEN
100
AcDbLine
 10
722.2500000000019
 20
2111.476497685455
 30
0.0
 11
872.2500000000019
 21
2111.476497685455
 31
0.0
  0
LINE
  5
269
330
2
100
AcDbEntity
  8
HALFEN
100
AcDbLine
 10
722.2500000000019
 20
2121.476497685455
 30
0.0
 11
872.2500000000019
 21
2121.476497685455
 31
0.0
  0
LINE
  5
26A
330
2
100
AcDbEntity
  8
HALFEN
100
AcDbLine
 10
722.2500000000019
 20
2131.476497685455
 30
0.0
 11
872.2500000000019
 21
2131.476497685455
 31
0.0
  0
TEXT
  5
26B
330
2
100
AcDbEntity
  8
HALFEN
100
AcDbText
 10
777.2500000000019
 20
2268.900998456968
 30
0.0
 40
5.0
  1
GWP 41/22 - A4 - M10
  7
ARIAL50
100
AcDbText
  0
LINE
  5
26C
330
2
100
AcDbEntity
  8
HALFEN
100
AcDbLine
 10
722.2500000000019
 20
2276.400998456967
 30
0.0
 11
872.2500000000019
 21
2276.400998456967
 31
0.0
  0
LINE
  5
26D
330
2
100
AcDbEntity
  8
HALFEN
100
AcDbLine
 10
722.2500000000019
 20
2266.400998456967
 30
0.0
 11
872.2500000000019
 21
2266.400998456967
 31
0.0
  0
LINE
  5
26E
330
2
100
AcDbEntity
  8
HALFEN
100
AcDbLine
 10
722.2500000000019
 20
2256.400998456967
 30
0.0
 11
872.2500000000019
 21
2256.400998456967
 31
0.0
  0
TEXT
  5
26F
330
2
100
AcDbEntity
  8
HALFEN
100
AcDbText
 10
777.2500000000019
 20
2413.82549922848
 30
0.0
 40
5.0
  1
GWP 41/22 - A4 - M 8
  7
ARIAL50
100
AcDbText
  0
LINE
  5
270
330
2
100
AcDbEntity
  8
HALFEN
100
AcDbLine
 10
722.2500000000019
 20
2401.32549922848
 30
0.0
 11
872.2500000000019
 21
2401.32549922848
 31
0.0
  0
LINE
  5
271
330
2
100
AcDbEntity
  8
HALFEN
100
AcDbLine
 10
722.2500000000019
 20
2411.32549922848
 30
0.0
 11
872.2500000000019
 21
2411.32549922848
 31
0.0
  0
LINE
  5
272
330
2
100
AcDbEntity
  8
HALFEN
100
AcDbLine
 10
722.2500000000019
 20
2421.32549922848
 30
0.0
 11
872.2500000000019
 21
2421.32549922848
 31
0.0
  0
TEXT
  5
273
330
2
100
AcDbEntity
  8
HALFEN
100
AcDbText
 10
727.2500000000019
 20
2113.976497685455
 30
0.0
 40
5.0
  1
Id. Nr.
  7
ARIAL50
100
AcDbText
  0
TEXT
  5
274
330
2
100
AcDbEntity
  8
HALFEN
100
AcDbText
 10
727.2500000000019
 20
2123.976497685455
 30
0.0
 40
5.0
  1
Benennung
  7
ARIAL50
100
AcDbText
  0
TEXT
  5
275
330
2
100
AcDbEntity
  8
HALFEN
100
AcDbText
 10
727.2500000000019
 20
2268.900998456968
 30
0.0
 40
5.0
  1
Benennung
  7
ARIAL50
100
AcDbText
  0
TEXT
  5
276
330
2
100
AcDbEntity
  8
HALFEN
100
AcDbText
 10
727.2500000000019
 20
2258.900998456967
 30
0.0
 40
5.0
  1
Id. Nr.
  7
ARIAL50
100
AcDbText
  0
TEXT
  5
277
330
2
100
AcDbEntity
  8
HALFEN
100
AcDbText
 10
722.2500000000019
 20
2133.976497685455
 30
0.0
 40
5.0
  1
A4
  7
ARIAL50
100
AcDbText
  0
LINE
  5
278
330
2
100
AcDbEntity
  8
HALFEN
100
AcDbLine
 10
722.2500000000019
 20
2111.476497685455
 30
0.0
 11
722.2500000000019
 21
2131.476497685455
 31
0.0
  0
TEXT
  5
279
330
2
100
AcDbEntity
  8
HALFEN
100
AcDbText
 10
722.2500000000019
 20
2278.900998456967
 30
0.0
 40
5.0
  1
A4
  7
ARIAL50
100
AcDbText
  0
LINE
  5
27A
330
2
100
AcDbEntity
  8
HALFEN
100
AcDbLine
 10
722.2500000000019
 20
2256.400998456967
 30
0.0
 11
722.2500000000019
 21
2276.400998456967
 31
0.0
  0
LINE
  5
27B
330
2
100
AcDbEntity
  8
HALFEN
100
AcDbLine
 10
772.2500000000019
 20
2111.476497685455
 30
0.0
 11
772.2500000000019
 21
2131.476497685455
 31
0.0
  0
LINE
  5
27C
330
2
100
AcDbEntity
  8
HALFEN
100
AcDbLine
 10
772.2500000000019
 20
2256.400998456967
 30
0.0
 11
772.2500000000019
 21
2276.400998456967
 31
0.0
  0
TEXT
  5
27D
330
2
100
AcDbEntity
  8
HALFEN
100
AcDbText
 10
727.2500000000019
 20
2403.82549922848
 30
0.0
 40
5.0
  1
Id. Nr.
  7
ARIAL50
100
AcDbText
  0
TEXT
  5
27E
330
2
100
AcDbEntity
  8
HALFEN
100
AcDbText
 10
727.2500000000019
 20
2413.82549922848
 30
0.0
 40
5.0
  1
Benennung
  7
ARIAL50
100
AcDbText
  0
TEXT
  5
27F
330
2
100
AcDbEntity
  8
HALFEN
100
AcDbText
 10
722.2500000000019
 20
2423.82549922848
 30
0.0
 40
5.0
  1
A4
  7
ARIAL50
100
AcDbText
  0
LINE
  5
280
330
2
100
AcDbEntity
  8
HALFEN
100
AcDbLine
 10
722.2500000000019
 20
2401.32549922848
 30
0.0
 11
722.2500000000019
 21
2421.32549922848
 31
0.0
  0
LINE
  5
281
330
2
100
AcDbEntity
  8
HALFEN
100
AcDbLine
 10
772.2500000000019
 20
2401.32549922848
 30
0.0
 11
772.2500000000019
 21
2421.32549922848
 31
0.0
  0
TEXT
  5
282
330
2
100
AcDbEntity
  8
HALFEN
100
AcDbText
 10
777.2500000000019
 20
2113.976497685455
 30
0.0
 40
5.0
  1
0380.060-00008
  7
ARIAL50
100
AcDbText
  0
TEXT
  5
283
330
2
100
AcDbEntity
  8
HALFEN
100
AcDbText
 10
777.2500000000019
 20
2258.900998456967
 30
0.0
 40
5.0
  1
0380.060-00007
  7
ARIAL50
100
AcDbText
  0
TEXT
  5
284
330
2
100
AcDbEntity
  8
HALFEN
100
AcDbText
 10
777.2500000000019
 20
2403.82549922848
 30
0.0
 40
5.0
  1
0380.060-00006
  7
ARIAL50
100
AcDbText
  0
LINE
  5
285
330
2
100
AcDbEntity
  8
HALFEN
100
AcDbLine
 10
872.2500000000019
 20
2111.476497685455
 30
0.0
 11
872.2500000000019
 21
2131.476497685455
 31
0.0
  0
LINE
  5
286
330
2
100
AcDbEntity
  8
HALFEN
100
AcDbLine
 10
872.2500000000019
 20
2256.400998456967
 30
0.0
 11
872.2500000000019
 21
2276.400998456967
 31
0.0
  0
LINE
  5
287
330
2
100
AcDbEntity
  8
HALFEN
100
AcDbLine
 10
872.2500000000019
 20
2401.32549922848
 30
0.0
 11
872.2500000000019
 21
2421.32549922848
 31
0.0
  0
LINE
  5
288
330
2
100
AcDbEntity
  8
HALFEN
  6
VERDECKT
 62
     1
100
AcDbLine
 10
572.6000000000019
 20
2517.249999999993
 30
0.0
 11
572.6000000000019
 21
2526.249999999993
 31
0.0
  0
LINE
  5
28A
330
2
100
AcDbEntity
  8
HALFEN
  6
VERDECKT
 62
     1
100
AcDbLine
 10
566.6000000000019
 20
2517.249999999993
 30
0.0
 11
566.6000000000019
 21
2526.249999999993
 31
0.0
  0
LINE
  5
28B
330
2
100
AcDbEntity
  8
HALFEN
  6
VERDECKT
 62
     1
100
AcDbLine
 10
572.0585000000019
 20
2517.249999999993
 30
0.0
 11
572.0585000000019
 21
2526.249999999993
 31
0.0
  0
LINE
  5
28C
330
2
100
AcDbEntity
  8
HALFEN
  6
VERDECKT
 62
     1
100
AcDbLine
 10
567.141500000002
 20
2517.249999999993
 30
0.0
 11
567.141500000002
 21
2526.249999999993
 31
0.0
  0
LINE
  5
28D
330
2
100
AcDbEntity
  8
HALFEN
  6
VERDECKT
 62
     1
100
AcDbLine
 10
622.3707503857583
 20
2517.791499999992
 30
0.0
 11
622.3707503857582
 21
2526.249999999993
 31
0.0
  0
LINE
  5
28E
330
2
100
AcDbEntity
  8
HALFEN
  6
VERDECKT
 62
     1
100
AcDbLine
 10
622.9122503857582
 20
2517.249999999993
 30
0.0
 11
622.9122503857582
 21
2526.249999999993
 31
0.0
  0
LINE
  5
28F
330
2
100
AcDbEntity
  8
HALFEN
  6
VERDECKT
 62
     1
100
AcDbLine
 10
616.9122503857582
 20
2517.249999999993
 30
0.0
 11
616.9122503857582
 21
2526.249999999993
 31
0.0
  0
LINE
  5
290
330
2
100
AcDbEntity
  8
HALFEN
  6
VERDECKT
 62
     1
100
AcDbLine
 10
617.4537503857583
 20
2517.791499999993
 30
0.0
 11
617.4537503857583
 21
2526.249999999993
 31
0.0
  0
LINE
  5
291
330
2
100
AcDbEntity
  8
HALFEN
  6
MITTE2
 62
     1
100
AcDbLine
 10
619.9122503857583
 20
2517.249999999993
 30
0.0
 11
619.9122503857583
 21
2526.249999999993
 31
0.0
  0
LINE
  5
292
330
2
100
AcDbEntity
  8
HALFEN
100
AcDbLine
 10
567.0019237886485
 20
2482.787749614236
 30
0.0
 11
552.314963118352
 21
2482.787749614236
 31
0.0
  0
LINE
  5
293
330
2
100
AcDbEntity
  8
HALFEN
  6
VERDECKT
 62
     1
100
AcDbLine
 10
573.6000000000018
 20
2372.32549922848
 30
0.0
 11
573.6000000000019
 21
2381.32549922848
 31
0.0
  0
LINE
  5
294
330
2
100
AcDbEntity
  8
HALFEN
  6
VERDECKT
 62
     1
100
AcDbLine
 10
566.2765000000019
 20
2372.32549922848
 30
0.0
 11
566.2765000000019
 21
2381.32549922848
 31
0.0
  0
LINE
  5
295
330
2
100
AcDbEntity
  8
HALFEN
  6
VERDECKT
 62
     1
100
AcDbLine
 10
565.6000000000019
 20
2372.32549922848
 30
0.0
 11
565.6000000000019
 21
2381.32549922848
 31
0.0
  0
LINE
  5
296
330
2
100
AcDbEntity
  8
HALFEN
  6
VERDECKT
 62
     1
100
AcDbLine
 10
572.923500000002
 20
2372.32549922848
 30
0.0
 11
572.923500000002
 21
2381.32549922848
 31
0.0
  0
LINE
  5
297
330
2
100
AcDbEntity
  8
HALFEN
  6
VERDECKT
 62
     1
100
AcDbLine
 10
623.912250385758
 20
2373.32549922848
 30
0.0
 11
623.9122503857581
 21
2381.32549922848
 31
0.0
  0
LINE
  5
298
330
2
100
AcDbEntity
  8
HALFEN
  6
VERDECKT
 62
     1
100
AcDbLine
 10
623.2357503857582
 20
2372.64899922848
 30
0.0
 11
623.2357503857582
 21
2381.32549922848
 31
0.0
  0
LINE
  5
299
330
2
100
AcDbEntity
  8
HALFEN
  6
VERDECKT
 62
     1
100
AcDbLine
 10
616.5887503857581
 20
2372.64899922848
 30
0.0
 11
616.5887503857581
 21
2381.32549922848
 31
0.0
  0
LINE
  5
29A
330
2
100
AcDbEntity
  8
HALFEN
  6
VERDECKT
 62
     1
100
AcDbLine
 10
615.9122503857581
 20
2373.32549922848
 30
0.0
 11
615.9122503857581
 21
2381.32549922848
 31
0.0
  0
LINE
  5
29B
330
2
100
AcDbEntity
  8
HALFEN
  6
MITTE2
 62
     1
100
AcDbLine
 10
619.9122503857581
 20
2372.32549922848
 30
0.0
 11
619.9122503857581
 21
2381.325499228481
 31
0.0
  0
LINE
  5
29C
330
2
100
AcDbEntity
  8
HALFEN
  6
VERDECKT
 62
     1
100
AcDbLine
 10
574.600000000002
 20
2227.400998456968
 30
0.0
 11
574.6000000000018
 21
2236.400998456968
 31
0.0
  0
LINE
  5
29D
330
2
100
AcDbEntity
  8
HALFEN
  6
VERDECKT
 62
     1
100
AcDbLine
 10
573.7880000000019
 20
2227.400998456968
 30
0.0
 11
573.7880000000018
 21
2236.400998456968
 31
0.0
  0
LINE
  5
29E
330
2
100
AcDbEntity
  8
HALFEN
  6
VERDECKT
 62
     1
100
AcDbLine
 10
565.4120000000018
 20
2227.400998456967
 30
0.0
 11
565.4120000000019
 21
2236.400998456968
 31
0.0
  0
LINE
  5
29F
330
2
100
AcDbEntity
  8
HALFEN
  6
VERDECKT
 62
     1
100
AcDbLine
 10
564.6000000000019
 20
2227.400998456968
 30
0.0
 11
564.6000000000021
 21
2236.400998456968
 31
0.0
  0
LINE
  5
2A0
330
2
100
AcDbEntity
  8
HALFEN
  6
VERDECKT
 62
     1
100
AcDbLine
 10
614.9122503857581
 20
2228.400998456967
 30
0.0
 11
614.9122503857583
 21
2236.400998456968
 31
0.0
  0
LINE
  5
2A1
330
2
100
AcDbEntity
  8
HALFEN
  6
VERDECKT
 62
     1
100
AcDbLine
 10
615.724250385758
 20
2228.588998456967
 30
0.0
 11
615.7242503857581
 21
2236.400998456968
 31
0.0
  0
LINE
  5
2A2
330
2
100
AcDbEntity
  8
HALFEN
  6
VERDECKT
 62
     1
100
AcDbLine
 10
624.1002503857581
 20
2228.588998456967
 30
0.0
 11
624.100250385758
 21
2236.400998456968
 31
0.0
  0
LINE
  5
2A3
330
2
100
AcDbEntity
  8
HALFEN
  6
VERDECKT
 62
     1
100
AcDbLine
 10
624.9122503857582
 20
2228.400998456967
 30
0.0
 11
624.912250385758
 21
2236.400998456968
 31
0.0
  0
LINE
  5
2A4
330
2
100
AcDbEntity
  8
HALFEN
  6
MITTE2
 62
     1
100
AcDbLine
 10
619.9122503857581
 20
2227.400998456968
 30
0.0
 11
619.9122503857581
 21
2236.400998456968
 31
0.0
  0
LINE
  5
2A5
330
2
100
AcDbEntity
  8
HALFEN
100
AcDbLine
 10
565.6000000000021
 20
2191.438748071211
 30
0.0
 11
553.750000000002
 21
2191.438748071211
 31
0.0
  0
LINE
  5
2A6
330
2
100
AcDbEntity
  8
HALFEN
100
AcDbLine
 10
567.4205505282318
 20
2189.938748071211
 30
0.0
 11
552.2500000000018
 21
2189.938748071211
 31
0.0
  0
LINE
  5
2A7
330
2
100
AcDbEntity
  8
HALFEN
100
AcDbLine
 10
566.9542486889375
 20
2336.363248842724
 30
0.0
 11
553.750000000002
 21
2336.363248842724
 31
0.0
  0
LINE
  5
2A8
330
2
100
AcDbEntity
  8
HALFEN
  6
VERDECKT
 62
     1
100
AcDbLine
 10
575.600000000002
 20
2082.476497685455
 30
0.0
 11
575.600000000002
 21
2091.476497685455
 31
0.0
  0
LINE
  5
2A9
330
2
100
AcDbEntity
  8
HALFEN
  6
VERDECKT
 62
     1
100
AcDbLine
 10
574.653000000002
 20
2082.476497685455
 30
0.0
 11
574.653000000002
 21
2091.476497685455
 31
0.0
  0
LINE
  5
2AA
330
2
100
AcDbEntity
  8
HALFEN
  6
VERDECKT
 62
     1
100
AcDbLine
 10
564.547000000002
 20
2082.476497685455
 30
0.0
 11
564.547000000002
 21
2091.476497685455
 31
0.0
  0
LINE
  5
2AB
330
2
100
AcDbEntity
  8
HALFEN
  6
VERDECKT
 62
     1
100
AcDbLine
 10
563.600000000002
 20
2082.476497685455
 30
0.0
 11
563.6000000000022
 21
2091.476497685455
 31
0.0
  0
LINE
  5
2AC
330
2
100
AcDbEntity
  8
HALFEN
  6
VERDECKT
 62
     1
100
AcDbLine
 10
613.9122503857582
 20
2082.476497685455
 30
0.0
 11
613.9122503857584
 21
2091.476497685455
 31
0.0
  0
LINE
  5
2AD
330
2
100
AcDbEntity
  8
HALFEN
  6
VERDECKT
 62
     1
100
AcDbLine
 10
614.8592503857583
 20
2083.423497685455
 30
0.0
 11
614.8592503857583
 21
2091.476497685455
 31
0.0
  0
LINE
  5
2AE
330
2
100
AcDbEntity
  8
HALFEN
  6
VERDECKT
 62
     1
100
AcDbLine
 10
624.9652503857581
 20
2083.423497685455
 30
0.0
 11
624.9652503857582
 21
2091.476497685455
 31
0.0
  0
LINE
  5
2AF
330
2
100
AcDbEntity
  8
HALFEN
  6
VERDECKT
 62
     1
100
AcDbLine
 10
625.9122503857582
 20
2082.476497685455
 30
0.0
 11
625.9122503857582
 21
2091.476497685455
 31
0.0
  0
LINE
  5
2B0
330
2
100
AcDbEntity
  8
HALFEN
  6
MITTE2
 62
     1
100
AcDbLine
 10
619.9122503857583
 20
2082.476497685455
 30
0.0
 11
619.9122503857583
 21
2091.476497685455
 31
0.0
  0
LINE
  5
2B1
330
2
100
AcDbEntity
  8
HALFEN
  6
VERDECKT
 62
     1
100
AcDbLine
 10
577.6000000000019
 20
1937.551996913942
 30
0.0
 11
577.6000000000019
 21
1946.551996913942
 31
0.0
  0
LINE
  5
2B2
330
2
100
AcDbEntity
  8
HALFEN
  6
VERDECKT
 62
     1
100
AcDbLine
 10
576.5175000000019
 20
1937.551996913942
 30
0.0
 11
576.5175000000019
 21
1946.551996913942
 31
0.0
  0
LINE
  5
2B3
330
2
100
AcDbEntity
  8
HALFEN
  6
VERDECKT
 62
     1
100
AcDbLine
 10
562.6825000000019
 20
1937.551996913942
 30
0.0
 11
562.6825000000019
 21
1946.551996913942
 31
0.0
  0
LINE
  5
2B4
330
2
100
AcDbEntity
  8
HALFEN
  6
VERDECKT
 62
     1
100
AcDbLine
 10
561.600000000002
 20
1937.551996913942
 30
0.0
 11
561.6000000000018
 21
1946.551996913942
 31
0.0
  0
LINE
  5
2B5
330
2
100
AcDbEntity
  8
HALFEN
100
AcDbLine
 10
574.8915026221311
 20
1910.589746528186
 30
0.0
 11
585.4500000000021
 21
1910.589746528186
 31
0.0
  0
LINE
  5
2B6
330
2
100
AcDbEntity
  8
HALFEN
100
AcDbLine
 10
572.383882181417
 20
1912.089746528186
 30
0.0
 11
586.950000000002
 21
1912.089746528186
 31
0.0
  0
LINE
  5
2B7
330
2
100
AcDbEntity
  8
HALFEN
  6
VERDECKT
 62
     1
100
AcDbLine
 10
611.9122503857582
 20
1937.551996913942
 30
0.0
 11
611.912250385758
 21
1946.551996913942
 31
0.0
  0
LINE
  5
2B8
330
2
100
AcDbEntity
  8
HALFEN
  6
VERDECKT
 62
     1
100
AcDbLine
 10
612.9947503857581
 20
1937.551996913942
 30
0.0
 11
612.9947503857581
 21
1946.551996913942
 31
0.0
  0
LINE
  5
2B9
330
2
100
AcDbEntity
  8
HALFEN
  6
VERDECKT
 62
     1
100
AcDbLine
 10
627.9122503857581
 20
1937.551996913942
 30
0.0
 11
627.9122503857581
 21
1946.551996913942
 31
0.0
  0
LINE
  5
2BA
330
2
100
AcDbEntity
  8
HALFEN
  6
VERDECKT
 62
     1
100
AcDbLine
 10
626.8297503857581
 20
1937.551996913942
 30
0.0
 11
626.8297503857581
 21
1946.551996913942
 31
0.0
  0
LINE
  5
2BB
330
2
100
AcDbEntity
  8
HALFEN
  6
MITTE2
 62
     1
100
AcDbLine
 10
619.9122503857583
 20
1937.551996913942
 30
0.0
 11
619.9122503857583
 21
1946.551996913943
 31
0.0
  0
ENDSEC
  0
SECTION
  2
OBJECTS
  0
DICTIONARY
  5
7
330
0
100
AcDbDictionary
281
     1
  3
ACAD_COLOR
350
23
  3
ACAD_GROUP
350
1F
  3
ACAD_LAYOUT
350
B
  3
ACAD_MATERIAL
350
22
  3
ACAD_MLINESTYLE
350
20
  3
ACAD_PLOTSETTINGS
350
21
  3
ACAD_PLOTSTYLENAME
350
6
  3
ACAD_TABLESTYLE
350
24
  3
AcDbVariableDictionary
350
2C1
  3
ASE_INDEX_DICTIONARY
350
2BE
  0
DICTIONARY
  5
23
102
{ACAD_REACTORS
330
7
102
}
330
7
100
AcDbDictionary
281
     1
  0
DICTIONARY
  5
1F
102
{ACAD_REACTORS
330
7
102
}
330
7
100
AcDbDictionary
281
     1
  0
DICTIONARY
  5
B
102
{ACAD_REACTORS
330
7
102
}
330
7
100
AcDbDictionary
281
     1
  3
Layout1
350
F
  3
Model
350
A
  0
DICTIONARY
  5
22
102
{ACAD_REACTORS
330
7
102
}
330
7
100
AcDbDictionary
281
     1
  0
DICTIONARY
  5
20
102
{ACAD_REACTORS
330
7
102
}
330
7
100
AcDbDictionary
281
     1
  3
STANDARD
350
27
  0
DICTIONARY
  5
21
102
{ACAD_REACTORS
330
7
102
}
330
7
100
AcDbDictionary
281
     1
  0
ACDBDICTIONARYWDFLT
  5
6
102
{ACAD_REACTORS
330
7
102
}
330
7
100
AcDbDictionary
281
     1
  3
Normal
350
5
100
AcDbDictionaryWithDefault
340
5
  0
DICTIONARY
  5
24
102
{ACAD_REACTORS
330
7
102
}
330
7
100
AcDbDictionary
281
     1
  3
Standard
350
28
  0
DICTIONARY
  5
2C1
102
{ACAD_REACTORS
330
7
102
}
330
7
100
AcDbDictionary
281
     1
  3
CTABLESTYLE
350
2C2
  3
DIMASSOC
350
2CF
  3
HIDETEXT
350
2CE
  3
PROJECTNAME
350
2D0
  0
DICTIONARY
  5
2BE
102
{ACAD_REACTORS
330
7
102
}
330
7
100
AcDbDictionary
281
     1
  3
ASEBlockHierarchyIndexRecord
350
2C0
1001
DCO15
1040
1565414378.312
  0
LAYOUT
  5
F
102
{ACAD_REACTORS
330
B
102
}
330
B
100
AcDbPlotSettings
  1

  2
\\DLANT038\DLAKBHL013
  4

  6

 40
0.0
 41
0.0
 42
0.0
 43
0.0
 44
0.0
 45
0.0
 46
0.0
 47
0.0
 48
0.0
 49
0.0
140
0.0
141
0.0
142
1.0
143
1.0
 70
   688
 72
     0
 73
     0
 74
     5
  7

 75
    16
147
1.0
 76
     0
 77
     2
 78
   300
148
0.0
149
0.0
100
AcDbLayout
  1
Layout1
 70
     1
 71
     1
 10
0.0
 20
0.0
 11
12.0
 21
9.0
 12
0.0
 22
0.0
 32
0.0
 14
1.000000000000000E+20
 24
1.000000000000000E+20
 34
1.000000000000000E+20
 15
-1.000000000000000E+20
 25
-1.000000000000000E+20
 35
-1.000000000000000E+20
146
0.0
 13
0.0
 23
0.0
 33
0.0
 16
1.0
 26
0.0
 36
0.0
 17
0.0
 27
1.0
 37
0.0
 76
     0
330
C
  0
LAYOUT
  5
A
102
{ACAD_REACTORS
330
B
102
}
330
B
100
AcDbPlotSettings
  1

  2
\\DLANT038\DLAKBHL013
  4

  6

 40
0.0
 41
0.0
 42
0.0
 43
0.0
 44
0.0
 45
0.0
 46
0.0
 47
0.0
 48
0.0
 49
0.0
140
0.0
141
0.0
142
1.0
143
1.0
 70
  1712
 72
     0
 73
     0
 74
     0
  7

 75
     0
147
1.0
 76
     0
 77
     2
 78
   300
148
0.0
149
0.0
100
AcDbLayout
  1
Model
 70
     1
 71
     0
 10
0.0
 20
0.0
 11
12.0
 21
9.0
 12
0.0
 22
0.0
 32
0.0
 14
0.0
 24
0.0
 34
0.0
 15
0.0
 25
0.0
 35
0.0
146
0.0
 13
0.0
 23
0.0
 33
0.0
 16
1.0
 26
0.0
 36
0.0
 17
0.0
 27
1.0
 37
0.0
 76
     0
330
2
  0
MLINESTYLE
  5
27
102
{ACAD_REACTORS
330
20
102
}
330
20
100
AcDbMlineStyle
  2
STANDARD
 70
     0
  3

 62
     0
 51
90.0
 52
90.0
 71
     2
 49
0.5
 62
   256
  6
BYLAYER
 49
-0.5
 62
   256
  6
BYLAYER
  0
ACDBPLACEHOLDER
  5
5
102
{ACAD_REACTORS
330
6
102
}
330
6
  0
TABLESTYLE
  5
28
102
{ACAD_REACTORS
330
24
102
}
330
24
100
AcDbTableStyle
  3
Standard
 70
     0
 71
     0
 40
1.5
 41
1.5
280
     0
281
     0
  7
STANDARD
140
4.5
170
     2
 62
     0
 63
     7
283
     0
274
    -2
284
     1
 64
     0
275
    -2
285
     1
 65
     0
276
    -2
286
     1
 66
     0
277
    -2
287
     1
 67
     0
278
    -2
288
     1
 68
     0
279
    -2
289
     1
 69
     0
  7
STANDARD
140
6.0
170
     5
 62
     0
 63
     7
283
     0
274
    -2
284
     1
 64
     0
275
    -2
285
     1
 65
     0
276
    -2
286
     1
 66
     0
277
    -2
287
     1
 67
     0
278
    -2
288
     1
 68
     0
279
    -2
289
     1
 69
     0
  7
STANDARD
140
4.5
170
     5
 62
     0
 63
     7
283
     0
274
    -2
284
     1
 64
     0
275
    -2
285
     1
 65
     0
276
    -2
286
     1
 66
     0
277
    -2
287
     1
 67
     0
278
    -2
288
     1
 68
     0
279
    -2
289
     1
 69
     0
  0
DICTIONARYVAR
  5
2C2
102
{ACAD_REACTORS
330
2C1
102
}
330
2C1
100
DictionaryVariables
280
     0
  1
STANDARD
  0
DICTIONARYVAR
  5
2CF
102
{ACAD_REACTORS
330
2C1
102
}
330
2C1
100
DictionaryVariables
280
     0
  1
1
  0
DICTIONARYVAR
  5
2CE
102
{ACAD_REACTORS
330
2C1
102
}
330
2C1
100
DictionaryVariables
280
     0
  1
1
  0
DICTIONARYVAR
  5
2D0
102
{ACAD_REACTORS
330
2C1
102
}
330
2C1
100
DictionaryVariables
280
     0
  1

  0
XRECORD
  5
2C0
102
{ACAD_REACTORS
330
2BE
102
}
330
2BE
100
AcDbXrecord
280
     1
  0
ENDSEC
  0
EOF
