0
SECTION
2
HEADER
9
$EXTMIN
10
 0
20
 100
30
0.0
9
$EXTMAX
10
 0
20
 100
30
0.0
9
$LIMMIN
10
 100
20
 0
9
$LIMMAX
10
 0
20
 100
9
$PSLTSCALE
70
1
0
ENDSEC
0
SECTION
2
TABLES
0
TABLE
2
LAYER
70
2
0
LAYER
2
0
70
0
62
7
6
CONTINUOUS
0
LAYER
2
Halfen
70
0
62
7
6
CONTINUOUS
0
ENDTAB
0
ENDSEC
0
SECTION
2
ENTITIES
0
POLYLINE
8
Halfen
62
7
66
1
10
0.0
20
0.0
30
0.0
70
1
0
VERTEX
8
Halfen
62
7
10
 0
20
-73.5
30
0
0
VERTEX
8
Halfen
62
7
10
 500
20
-73.5
30
0
0
VERTEX
8
Halfen
62
7
10
 500
20
 73.5
30
0
0
VERTEX
8
Halfen
62
7
10
 0
20
 73.5
30
0
0
SEQEND
8
Halfen
0
POLYLINE
8
Halfen
62
7
66
1
10
0.0
20
0.0
30
0.0
70
1
0
VERTEX
8
Halfen
62
7
10
 0
20
-60
30
0
0
VERTEX
8
Halfen
62
7
10
 500
20
-60
30
0
0
VERTEX
8
Halfen
62
7
10
 500
20
 60
30
0
0
VERTEX
8
Halfen
62
7
10
 0
20
 60
30
0
0
SEQEND
8
Halfen
0
POLYLINE
8
Halfen
62
7
66
1
10
0.0
20
0.0
30
0.0
70
1
0
VERTEX
8
Halfen
62
7
10
 20
20
-32.5
30
0
0
VERTEX
8
Halfen
62
7
10
 37
20
-1.5
30
0
0
VERTEX
8
Halfen
62
7
10
 28
20
-1.5
30
0
0
VERTEX
8
Halfen
62
7
10
 28
20
 32.5
30
0
0
VERTEX
8
Halfen
62
7
10
 12
20
 32.5
30
0
0
VERTEX
8
Halfen
62
7
10
 12
20
-1.5
30
0
0
VERTEX
8
Halfen
62
7
10
 3
20
-1.5
30
0
0
SEQEND
8
Halfen
0
POLYLINE
8
Halfen
62
7
66
1
10
0.0
20
0.0
30
0.0
70
1
0
VERTEX
8
Halfen
62
7
10
 480
20
-32.5
30
0
0
VERTEX
8
Halfen
62
7
10
 497
20
-1.5
30
0
0
VERTEX
8
Halfen
62
7
10
 488
20
-1.5
30
0
0
VERTEX
8
Halfen
62
7
10
 488
20
 32.5
30
0
0
VERTEX
8
Halfen
62
7
10
 472
20
 32.5
30
0
0
VERTEX
8
Halfen
62
7
10
 472
20
-1.5
30
0
0
VERTEX
8
Halfen
62
7
10
 463
20
-1.5
30
0
0
SEQEND
8
Halfen
0
POLYLINE
8
Halfen
62
7
66
1
10
0.0
20
0.0
30
0.0
70
1
0
VERTEX
8
Halfen
62
7
10
 196
20
-815.455
30
0
0
VERTEX
8
Halfen
62
7
10
 196
20
 913.129
30
0
0
VERTEX
8
Halfen
62
7
10
 184
20
 913.129
30
0
0
VERTEX
8
Halfen
62
7
10
 184
20
-815.455
30
0
0
SEQEND
8
Halfen
0
POLYLINE
8
Halfen
62
7
66
1
10
0.0
20
0.0
30
0.0
70
1
0
VERTEX
8
Halfen
62
7
10
 326
20
-815.455
30
0
0
VERTEX
8
Halfen
62
7
10
 326
20
 913.129
30
0
0
VERTEX
8
Halfen
62
7
10
 314
20
 913.129
30
0
0
VERTEX
8
Halfen
62
7
10
 314
20
-815.455
30
0
0
SEQEND
8
Halfen
0
POLYLINE
8
Halfen
62
7
66
1
10
0.0
20
0.0
30
0.0
70
1
0
VERTEX
8
Halfen
62
7
10
 316
20
-815.455
30
0
0
VERTEX
8
Halfen
62
7
10
 316
20
 913.129
30
0
0
VERTEX
8
Halfen
62
7
10
 304
20
 913.129
30
0
0
VERTEX
8
Halfen
62
7
10
 304
20
-815.455
30
0
0
SEQEND
8
Halfen
0
POLYLINE
8
Halfen
62
7
66
1
10
0.0
20
0.0
30
0.0
70
1
0
VERTEX
8
Halfen
62
7
10
 186
20
-815.455
30
0
0
VERTEX
8
Halfen
62
7
10
 186
20
 913.129
30
0
0
VERTEX
8
Halfen
62
7
10
 174
20
 913.129
30
0
0
VERTEX
8
Halfen
62
7
10
 174
20
-815.455
30
0
0
SEQEND
8
Halfen
0
POLYLINE
8
Halfen
62
7
66
1
10
0.0
20
0.0
30
0.0
70
1
0
VERTEX
8
Halfen
62
7
10
 1010
20
-60
30
0
0
VERTEX
8
Halfen
62
7
10
 1010
20
 60
30
0
0
VERTEX
8
Halfen
62
7
10
 996.5
20
 73.5
30
0
0
VERTEX
8
Halfen
62
7
10
 996.5
20
 60
30
0
0
VERTEX
8
Halfen
62
7
10
 750
20
 60
30
0
0
VERTEX
8
Halfen
62
7
10
 750
20
-60
30
0
0
VERTEX
8
Halfen
62
7
10
 996.5
20
-60
30
0
0
VERTEX
8
Halfen
62
7
10
 996.5
20
-73.5
30
0
0
SEQEND
8
Halfen
0
POLYLINE
8
Halfen
62
7
66
1
10
0.0
20
0.0
30
0.0
70
1
0
VERTEX
8
Halfen
62
7
10
 750
20
-60
30
0
0
VERTEX
8
Halfen
62
7
10
 750
20
 60
30
0
0
VERTEX
8
Halfen
62
7
10
 713.5
20
 60
30
0
0
VERTEX
8
Halfen
62
7
10
 713.5
20
 73.5
30
0
0
VERTEX
8
Halfen
62
7
10
 700
20
 60
30
0
0
VERTEX
8
Halfen
62
7
10
 700
20
-60
30
0
0
VERTEX
8
Halfen
62
7
10
 713.5
20
-73.5
30
0
0
VERTEX
8
Halfen
62
7
10
 713.5
20
-60
30
0
0
SEQEND
8
Halfen
0
POLYLINE
8
Halfen
62
7
66
1
10
0.0
20
0.0
30
0.0
70
1
0
VERTEX
8
Halfen
62
7
10
 1007.5
20
-58.75
30
0
0
VERTEX
8
Halfen
62
7
10
 1007.5
20
 58.75
30
0
0
VERTEX
8
Halfen
62
7
10
 999
20
 67.25
30
0
0
VERTEX
8
Halfen
62
7
10
 999
20
 58
30
0
0
VERTEX
8
Halfen
62
7
10
 752
20
 58
30
0
0
VERTEX
8
Halfen
62
7
10
 752
20
-58
30
0
0
VERTEX
8
Halfen
62
7
10
 999
20
-58
30
0
0
VERTEX
8
Halfen
62
7
10
 999
20
-67.25
30
0
0
SEQEND
8
Halfen
0
POLYLINE
8
Halfen
62
7
66
1
10
0.0
20
0.0
30
0.0
70
1
0
VERTEX
8
Halfen
62
7
10
 748
20
-58
30
0
0
VERTEX
8
Halfen
62
7
10
 748
20
 58
30
0
0
VERTEX
8
Halfen
62
7
10
 711
20
 58
30
0
0
VERTEX
8
Halfen
62
7
10
 711
20
 67.25
30
0
0
VERTEX
8
Halfen
62
7
10
 702.5
20
 58.75
30
0
0
VERTEX
8
Halfen
62
7
10
 702.5
20
-58.75
30
0
0
VERTEX
8
Halfen
62
7
10
 711
20
-67.25
30
0
0
VERTEX
8
Halfen
62
7
10
 711
20
-58
30
0
0
SEQEND
8
Halfen
0
POLYLINE
8
Halfen
62
7
66
1
10
0.0
20
0.0
30
0.0
70
1
0
VERTEX
8
Halfen
62
7
10
 980
20
-815.455
30
0
0
VERTEX
8
Halfen
62
7
10
 980
20
-100.956
30
0
0
VERTEX
8
Halfen
62
7
10
 979.359
20
-93.137
30
0
0
VERTEX
8
Halfen
62
7
10
 977.453
20
-85.527
30
0
0
VERTEX
8
Halfen
62
7
10
 974.332
20
-78.329
30
0
0
VERTEX
8
Halfen
62
7
10
 970.081
20
-71.735
30
0
0
VERTEX
8
Halfen
62
7
10
 779.439
20
 176.714
30
0
0
VERTEX
8
Halfen
62
7
10
 776.251
20
 181.659
30
0
0
VERTEX
8
Halfen
62
7
10
 773.911
20
 187.057
30
0
0
VERTEX
8
Halfen
62
7
10
 772.481
20
 192.765
30
0
0
VERTEX
8
Halfen
62
7
10
 772
20
 198.629
30
0
0
VERTEX
8
Halfen
62
7
10
 772
20
 252.129
30
0
0
VERTEX
8
Halfen
62
7
10
 772
20
 913.129
30
0
0
VERTEX
8
Halfen
62
7
10
 760
20
 913.129
30
0
0
VERTEX
8
Halfen
62
7
10
 760
20
 252.129
30
0
0
VERTEX
8
Halfen
62
7
10
 760
20
 198.629
30
0
0
VERTEX
8
Halfen
62
7
10
 760.641
20
 190.81
30
0
0
VERTEX
8
Halfen
62
7
10
 762.547
20
 183.2
30
0
0
VERTEX
8
Halfen
62
7
10
 765.668
20
 176.002
30
0
0
VERTEX
8
Halfen
62
7
10
 769.919
20
 169.409
30
0
0
VERTEX
8
Halfen
62
7
10
 960.561
20
-79.04
30
0
0
VERTEX
8
Halfen
62
7
10
 963.749
20
-83.986
30
0
0
VERTEX
8
Halfen
62
7
10
 966.089
20
-89.384
30
0
0
VERTEX
8
Halfen
62
7
10
 967.519
20
-95.092
30
0
0
VERTEX
8
Halfen
62
7
10
 968
20
-100.956
30
0
0
VERTEX
8
Halfen
62
7
10
 968
20
-815.455
30
0
0
SEQEND
8
Halfen
0
POLYLINE
8
Halfen
62
7
66
1
10
0.0
20
0.0
30
0.0
70
1
0
VERTEX
8
Halfen
62
7
10
 760
20
-815.455
30
0
0
VERTEX
8
Halfen
62
7
10
 760
20
-100.956
30
0
0
VERTEX
8
Halfen
62
7
10
 760.641
20
-93.137
30
0
0
VERTEX
8
Halfen
62
7
10
 762.547
20
-85.527
30
0
0
VERTEX
8
Halfen
62
7
10
 765.668
20
-78.329
30
0
0
VERTEX
8
Halfen
62
7
10
 769.919
20
-71.735
30
0
0
VERTEX
8
Halfen
62
7
10
 960.561
20
 176.714
30
0
0
VERTEX
8
Halfen
62
7
10
 963.749
20
 181.659
30
0
0
VERTEX
8
Halfen
62
7
10
 966.089
20
 187.057
30
0
0
VERTEX
8
Halfen
62
7
10
 967.519
20
 192.765
30
0
0
VERTEX
8
Halfen
62
7
10
 968
20
 198.629
30
0
0
VERTEX
8
Halfen
62
7
10
 968
20
 252.129
30
0
0
VERTEX
8
Halfen
62
7
10
 968
20
 913.129
30
0
0
VERTEX
8
Halfen
62
7
10
 980
20
 913.129
30
0
0
VERTEX
8
Halfen
62
7
10
 980
20
 252.129
30
0
0
VERTEX
8
Halfen
62
7
10
 980
20
 198.629
30
0
0
VERTEX
8
Halfen
62
7
10
 979.359
20
 190.81
30
0
0
VERTEX
8
Halfen
62
7
10
 977.453
20
 183.2
30
0
0
VERTEX
8
Halfen
62
7
10
 974.332
20
 176.002
30
0
0
VERTEX
8
Halfen
62
7
10
 970.081
20
 169.409
30
0
0
VERTEX
8
Halfen
62
7
10
 779.439
20
-79.04
30
0
0
VERTEX
8
Halfen
62
7
10
 776.251
20
-83.986
30
0
0
VERTEX
8
Halfen
62
7
10
 773.911
20
-89.384
30
0
0
VERTEX
8
Halfen
62
7
10
 772.481
20
-95.092
30
0
0
VERTEX
8
Halfen
62
7
10
 772
20
-100.956
30
0
0
VERTEX
8
Halfen
62
7
10
 772
20
-815.455
30
0
0
SEQEND
8
Halfen
0
ENDSEC
0
EOF
