  0
SECTION
  2
HEADER
  9
$ACADVER
  1
AC1018
  9
$ACADMAINTVER
 70
    39
  9
$DWGCODEPAGE
  3
ANSI_1252
  9
$LASTSAVEDBY
  1
uhlaender
  9
$INSBASE
 10
639.2678615927015
 20
-739.1328014827463
 30
0.0
  9
$EXTMIN
 10
3.306074118856486
 20
-2573.103094977507
 30
-0.0015258207003583
  9
$EXTMAX
 10
873.682873146811
 20
272.1074434527891
 30
0.0000000349246037
  9
$LIMMIN
 10
0.0
 20
0.0
  9
$LIMMAX
 10
12.0
 20
9.0
  9
$ORTHOMODE
 70
     1
  9
$REGENMODE
 70
     1
  9
$FILLMODE
 70
     1
  9
$QTEXTMODE
 70
     0
  9
$MIRRTEXT
 70
     1
  9
$LTSCALE
 40
1.0
  9
$ATTMODE
 70
     1
  9
$TEXTSIZE
 40
5.625
  9
$TRACEWID
 40
0.05
  9
$TEXTSTYLE
  7
STANDARD
  9
$CLAYER
  8
HALFEN-KONSOLANKER
  9
$CELTYPE
  6
BYLAYER
  9
$CECOLOR
 62
   256
  9
$CELTSCALE
 40
1.0
  9
$DISPSILH
 70
     0
  9
$DIMSCALE
 40
1.0
  9
$DIMASZ
 40
0.18
  9
$DIMEXO
 40
0.0625
  9
$DIMDLI
 40
0.38
  9
$DIMRND
 40
0.0
  9
$DIMDLE
 40
0.0
  9
$DIMEXE
 40
0.18
  9
$DIMTP
 40
0.0
  9
$DIMTM
 40
0.0
  9
$DIMTXT
 40
0.18
  9
$DIMCEN
 40
0.09
  9
$DIMTSZ
 40
0.0
  9
$DIMTOL
 70
     0
  9
$DIMLIM
 70
     0
  9
$DIMTIH
 70
     1
  9
$DIMTOH
 70
     1
  9
$DIMSE1
 70
     0
  9
$DIMSE2
 70
     0
  9
$DIMTAD
 70
     0
  9
$DIMZIN
 70
     0
  9
$DIMBLK
  1

  9
$DIMASO
 70
     1
  9
$DIMSHO
 70
     1
  9
$DIMPOST
  1

  9
$DIMAPOST
  1

  9
$DIMALT
 70
     0
  9
$DIMALTD
 70
     2
  9
$DIMALTF
 40
25.4
  9
$DIMLFAC
 40
1.0
  9
$DIMTOFL
 70
     0
  9
$DIMTVP
 40
0.0
  9
$DIMTIX
 70
     0
  9
$DIMSOXD
 70
     0
  9
$DIMSAH
 70
     0
  9
$DIMBLK1
  1

  9
$DIMBLK2
  1

  9
$DIMSTYLE
  2
STANDARD
  9
$DIMCLRD
 70
     0
  9
$DIMCLRE
 70
     0
  9
$DIMCLRT
 70
     7
  9
$DIMTFAC
 40
1.0
  9
$DIMGAP
 40
0.09
  9
$DIMJUST
 70
     0
  9
$DIMSD1
 70
     0
  9
$DIMSD2
 70
     0
  9
$DIMTOLJ
 70
     1
  9
$DIMTZIN
 70
     0
  9
$DIMALTZ
 70
     0
  9
$DIMALTTZ
 70
     0
  9
$DIMUPT
 70
     0
  9
$DIMDEC
 70
     4
  9
$DIMTDEC
 70
     4
  9
$DIMALTU
 70
     2
  9
$DIMALTTD
 70
     2
  9
$DIMTXSTY
  7
STANDARD
  9
$DIMAUNIT
 70
     0
  9
$DIMADEC
 70
     0
  9
$DIMALTRND
 40
0.0
  9
$DIMAZIN
 70
     0
  9
$DIMDSEP
 70
    46
  9
$DIMATFIT
 70
     3
  9
$DIMFRAC
 70
     0
  9
$DIMLDRBLK
  1

  9
$DIMLUNIT
 70
     2
  9
$DIMLWD
 70
    -2
  9
$DIMLWE
 70
    -2
  9
$DIMTMOVE
 70
     2
  9
$LUNITS
 70
     2
  9
$LUPREC
 70
     4
  9
$SKETCHINC
 40
0.1
  9
$FILLETRAD
 40
0.0
  9
$AUNITS
 70
     0
  9
$AUPREC
 70
     0
  9
$MENU
  1
acad
  9
$ELEVATION
 40
0.0
  9
$PELEVATION
 40
0.0
  9
$THICKNESS
 40
0.0
  9
$LIMCHECK
 70
     0
  9
$CHAMFERA
 40
0.0
  9
$CHAMFERB
 40
0.0
  9
$CHAMFERC
 40
0.0
  9
$CHAMFERD
 40
0.0
  9
$SKPOLY
 70
     0
  9
$TDCREATE
 40
2450035.601165857
  9
$TDUCREATE
 40
2450035.517832523
  9
$TDUPDATE
 40
2453941.423389028
  9
$TDUUPDATE
 40
2453941.340055695
  9
$TDINDWG
 40
0.2081027546
  9
$TDUSRTIMER
 40
0.2081027546
  9
$USRTIMER
 70
     1
  9
$ANGBASE
 50
0.0
  9
$ANGDIR
 70
     0
  9
$PDMODE
 70
     0
  9
$PDSIZE
 40
0.0
  9
$PLINEWID
 40
0.0
  9
$SPLFRAME
 70
     0
  9
$SPLINETYPE
 70
     6
  9
$SPLINESEGS
 70
     8
  9
$HANDSEED
  5
1EC
  9
$SURFTAB1
 70
     6
  9
$SURFTAB2
 70
     6
  9
$SURFTYPE
 70
     6
  9
$SURFU
 70
     6
  9
$SURFV
 70
     6
  9
$UCSBASE
  2

  9
$UCSNAME
  2

  9
$UCSORG
 10
0.0
 20
0.0
 30
0.0
  9
$UCSXDIR
 10
1.0
 20
0.0
 30
0.0
  9
$UCSYDIR
 10
0.0
 20
1.0
 30
0.0
  9
$UCSORTHOREF
  2

  9
$UCSORTHOVIEW
 70
     0
  9
$UCSORGTOP
 10
0.0
 20
0.0
 30
0.0
  9
$UCSORGBOTTOM
 10
0.0
 20
0.0
 30
0.0
  9
$UCSORGLEFT
 10
0.0
 20
0.0
 30
0.0
  9
$UCSORGRIGHT
 10
0.0
 20
0.0
 30
0.0
  9
$UCSORGFRONT
 10
0.0
 20
0.0
 30
0.0
  9
$UCSORGBACK
 10
0.0
 20
0.0
 30
0.0
  9
$PUCSBASE
  2

  9
$PUCSNAME
  2

  9
$PUCSORG
 10
0.0
 20
0.0
 30
0.0
  9
$PUCSXDIR
 10
1.0
 20
0.0
 30
0.0
  9
$PUCSYDIR
 10
0.0
 20
1.0
 30
0.0
  9
$PUCSORTHOREF
  2

  9
$PUCSORTHOVIEW
 70
     0
  9
$PUCSORGTOP
 10
0.0
 20
0.0
 30
0.0
  9
$PUCSORGBOTTOM
 10
0.0
 20
0.0
 30
0.0
  9
$PUCSORGLEFT
 10
0.0
 20
0.0
 30
0.0
  9
$PUCSORGRIGHT
 10
0.0
 20
0.0
 30
0.0
  9
$PUCSORGFRONT
 10
0.0
 20
0.0
 30
0.0
  9
$PUCSORGBACK
 10
0.0
 20
0.0
 30
0.0
  9
$USERI1
 70
     0
  9
$USERI2
 70
     0
  9
$USERI3
 70
     0
  9
$USERI4
 70
     0
  9
$USERI5
 70
     0
  9
$USERR1
 40
0.0
  9
$USERR2
 40
0.0
  9
$USERR3
 40
0.0
  9
$USERR4
 40
0.0
  9
$USERR5
 40
0.0
  9
$WORLDVIEW
 70
     1
  9
$SHADEDGE
 70
     3
  9
$SHADEDIF
 70
    70
  9
$TILEMODE
 70
     1
  9
$MAXACTVP
 70
    16
  9
$PINSBASE
 10
0.0
 20
0.0
 30
0.0
  9
$PLIMCHECK
 70
     0
  9
$PEXTMIN
 10
1.000000000000000E+20
 20
1.000000000000000E+20
 30
1.000000000000000E+20
  9
$PEXTMAX
 10
-1.000000000000000E+20
 20
-1.000000000000000E+20
 30
-1.000000000000000E+20
  9
$PLIMMIN
 10
0.0
 20
0.0
  9
$PLIMMAX
 10
12.0
 20
9.0
  9
$UNITMODE
 70
     0
  9
$VISRETAIN
 70
     0
  9
$PLINEGEN
 70
     0
  9
$PSLTSCALE
 70
     1
  9
$TREEDEPTH
 70
  3020
  9
$CMLSTYLE
  2
STANDARD
  9
$CMLJUST
 70
     0
  9
$CMLSCALE
 40
1.0
  9
$PROXYGRAPHICS
 70
     1
  9
$MEASUREMENT
 70
     1
  9
$CELWEIGHT
370
    -1
  9
$ENDCAPS
280
     0
  9
$JOINSTYLE
280
     0
  9
$LWDISPLAY
290
     0
  9
$INSUNITS
 70
     4
  9
$HYPERLINKBASE
  1

  9
$STYLESHEET
  1

  9
$XEDIT
290
     1
  9
$CEPSNTYPE
380
     0
  9
$PSTYLEMODE
290
     1
  9
$FINGERPRINTGUID
  2
{7F65D0CB-7958-4AE4-B2F2-208776B1EE09}
  9
$VERSIONGUID
  2
{0273F643-11A0-45CE-B689-7D15615041F1}
  9
$EXTNAMES
290
     1
  9
$PSVPSCALE
 40
0.0
  9
$OLESTARTUP
290
     0
  9
$SORTENTS
280
   127
  9
$INDEXCTL
280
     0
  9
$HIDETEXT
280
     1
  9
$XCLIPFRAME
290
     0
  9
$HALOGAP
280
     0
  9
$OBSCOLOR
 70
   257
  9
$OBSLTYPE
280
     0
  9
$INTERSECTIONDISPLAY
280
     0
  9
$INTERSECTIONCOLOR
 70
   257
  9
$DIMASSOC
280
     1
  9
$PROJECTNAME
  1

  0
ENDSEC
  0
SECTION
  2
CLASSES
  0
CLASS
  1
DICTIONARYVAR
  2
AcDbDictionaryVar
  3
ObjectDBX Classes
 90
        0
 91
        4
280
     0
281
     0
  0
CLASS
  1
ACDBDICTIONARYWDFLT
  2
AcDbDictionaryWithDefault
  3
ObjectDBX Classes
 90
        0
 91
        1
280
     0
281
     0
  0
CLASS
  1
TABLESTYLE
  2
AcDbTableStyle
  3
ObjectDBX Classes
 90
     2047
 91
        1
280
     0
281
     0
  0
ENDSEC
  0
SECTION
  2
TABLES
  0
TABLE
  2
VPORT
  5
19
330
0
100
AcDbSymbolTable
 70
     3
  0
VPORT
  5
1EB
330
19
100
AcDbSymbolTableRecord
100
AcDbViewportTableRecord
  2
*Active
 70
     0
 10
0.0
 20
0.0
 11
1.0
 21
1.0
 12
438.4944736328343
 22
-1150.497825762359
 13
0.0
 23
0.0
 14
1.0
 24
1.0
 15
0.0
 25
0.0
 16
0.0
 26
0.0
 36
1.0
 17
0.0
 27
0.0
 37
0.0
 40
2864.032217846594
 41
1.656732891832229
 42
50.0
 43
0.0
 44
0.0
 50
0.0
 51
0.0
 71
     0
 72
   100
 73
     1
 74
     0
 75
     0
 76
     0
 77
     0
 78
     0
281
     0
 65
     1
110
0.0
120
0.0
130
0.0
111
1.0
121
0.0
131
0.0
112
0.0
122
1.0
132
0.0
 79
     0
146
0.0
  0
ENDTAB
  0
TABLE
  2
LTYPE
  5
14
330
0
100
AcDbSymbolTable
 70
     1
  0
LTYPE
  5
15
330
14
100
AcDbSymbolTableRecord
100
AcDbLinetypeTableRecord
  2
BYBLOCK
 70
     0
  3

 72
    65
 73
     0
 40
0.0
  0
LTYPE
  5
16
330
14
100
AcDbSymbolTableRecord
100
AcDbLinetypeTableRecord
  2
BYLAYER
 70
     0
  3

 72
    65
 73
     0
 40
0.0
  0
LTYPE
  5
8
330
14
100
AcDbSymbolTableRecord
100
AcDbLinetypeTableRecord
  2
CONTINUOUS
 70
     0
  3
Durchgezogene Linie
 72
    65
 73
     0
 40
0.0
  0
ENDTAB
  0
TABLE
  2
LAYER
  5
10
330
0
100
AcDbSymbolTable
 70
     2
  0
LAYER
  5
4
330
10
100
AcDbSymbolTableRecord
100
AcDbLayerTableRecord
  2
0
 70
     0
 62
    -7
  6
CONTINUOUS
370
    -3
390
5
  0
LAYER
  5
25
330
10
100
AcDbSymbolTableRecord
100
AcDbLayerTableRecord
  2
HALFEN-KONSOLANKER
 70
     0
 62
     2
  6
CONTINUOUS
370
    -3
390
5
  0
ENDTAB
  0
TABLE
  2
STYLE
  5
11
330
0
100
AcDbSymbolTable
 70
     2
  0
STYLE
  5
12
330
11
100
AcDbSymbolTableRecord
100
AcDbTextStyleTableRecord
  2
STANDARD
 70
     0
 40
0.0
 41
1.0
 50
0.0
 71
     0
 42
5.625
  3
txt
  4

  0
STYLE
  5
2D
330
11
100
AcDbSymbolTableRecord
100
AcDbTextStyleTableRecord
  2
ARIAL50
 70
     0
 40
5.0
 41
1.0
 50
0.0
 71
     0
 42
3.5
  3
ARIAL.TTF
  4

1001
ACAD
1000
Arial
1071
       34
  0
ENDTAB
  0
TABLE
  2
VIEW
  5
17
330
0
100
AcDbSymbolTable
 70
     0
  0
ENDTAB
  0
TABLE
  2
UCS
  5
18
330
0
100
AcDbSymbolTable
 70
     0
  0
ENDTAB
  0
TABLE
  2
APPID
  5
1B
330
0
100
AcDbSymbolTable
 70
     2
  0
APPID
  5
1C
330
1B
100
AcDbSymbolTableRecord
100
AcDbRegAppTableRecord
  2
ACAD
 70
     0
  0
APPID
  5
1CD
330
1B
100
AcDbSymbolTableRecord
100
AcDbRegAppTableRecord
  2
DCO15
 70
     0
  0
ENDTAB
  0
TABLE
  2
DIMSTYLE
  5
1D
330
0
100
AcDbSymbolTable
 70
     1
100
AcDbDimStyleTable
 71
     0
  0
DIMSTYLE
105
28
330
1D
100
AcDbSymbolTableRecord
100
AcDbDimStyleTableRecord
  2
STANDARD
 70
     0
340
12
  0
ENDTAB
  0
TABLE
  2
BLOCK_RECORD
  5
1
330
0
100
AcDbSymbolTable
 70
     0
  0
BLOCK_RECORD
  5
2
330
1
100
AcDbSymbolTableRecord
100
AcDbBlockTableRecord
  2
*MODEL_SPACE
340
A
  0
BLOCK_RECORD
  5
C
330
1
100
AcDbSymbolTableRecord
100
AcDbBlockTableRecord
  2
*PAPER_SPACE
340
F
  0
ENDTAB
  0
ENDSEC
  0
SECTION
  2
BLOCKS
  0
BLOCK
  5
3
330
2
100
AcDbEntity
  8
0
100
AcDbBlockBegin
  2
*MODEL_SPACE
 70
     0
 10
0.0
 20
0.0
 30
0.0
  3
*MODEL_SPACE
  1

  0
ENDBLK
  5
9
330
2
100
AcDbEntity
  8
0
100
AcDbBlockEnd
  0
BLOCK
  5
D
330
C
100
AcDbEntity
 67
     1
  8
0
100
AcDbBlockBegin
  2
*PAPER_SPACE
 70
     0
 10
0.0
 20
0.0
 30
0.0
  3
*PAPER_SPACE
  1

  0
ENDBLK
  5
E
330
C
100
AcDbEntity
 67
     1
  8
0
100
AcDbBlockEnd
  0
ENDSEC
  0
SECTION
  2
ENTITIES
  0
LINE
  5
29
330
2
100
AcDbEntity
  8
HALFEN-KONSOLANKER
100
AcDbLine
 10
3.379513944382892
 20
243.1972844071639
 30
0.0
 11
208.3795139443829
 21
243.1972844071639
 31
0.0
  0
LINE
  5
2A
330
2
100
AcDbEntity
  8
HALFEN-KONSOLANKER
100
AcDbLine
 10
3.379513944382892
 20
253.1972844071639
 30
0.0
 11
208.3795139443829
 21
253.1972844071639
 31
0.0
  0
LINE
  5
2B
330
2
100
AcDbEntity
  8
HALFEN-KONSOLANKER
100
AcDbLine
 10
3.379513944382892
 20
263.1972844071639
 30
0.0
 11
208.3795139443829
 21
263.1972844071639
 31
0.0
  0
TEXT
  5
2C
330
2
100
AcDbEntity
  8
HALFEN-KONSOLANKER
100
AcDbText
 10
58.37951394438289
 20
255.6972844071639
 30
0.0
 40
5.0
  1
Halfen Einmörtelkonsolen KM - E - 110
  7
ARIAL50
100
AcDbText
  0
TEXT
  5
2E
330
2
100
AcDbEntity
  8
HALFEN-KONSOLANKER
100
AcDbText
 10
8.379513944382892
 20
245.6972844071639
 30
0.0
 40
5.0
  1
Id. Nr.
  7
ARIAL50
100
AcDbText
  0
TEXT
  5
2F
330
2
100
AcDbEntity
  8
HALFEN-KONSOLANKER
100
AcDbText
 10
8.379513944382892
 20
255.6972844071639
 30
0.0
 40
5.0
  1
Benennung
  7
ARIAL50
100
AcDbText
  0
TEXT
  5
30
330
2
100
AcDbEntity
  8
HALFEN-KONSOLANKER
100
AcDbText
 10
3.379513944382892
 20
265.6972844071639
 30
0.0
 40
5.0
  1
A4
  7
ARIAL50
100
AcDbText
  0
LINE
  5
31
330
2
100
AcDbEntity
  8
HALFEN-KONSOLANKER
100
AcDbLine
 10
3.379513944382892
 20
243.1972844071639
 30
0.0
 11
3.379513944382892
 21
263.1972844071639
 31
0.0
  0
LINE
  5
32
330
2
100
AcDbEntity
  8
HALFEN-KONSOLANKER
100
AcDbLine
 10
53.37951394438289
 20
243.1972844071639
 30
0.0
 11
53.37951394438289
 21
263.1972844071639
 31
0.0
  0
LINE
  5
33
330
2
100
AcDbEntity
  8
HALFEN-KONSOLANKER
100
AcDbLine
 10
208.3795139443829
 20
243.1972844071639
 30
0.0
 11
208.3795139443829
 21
263.1972844071639
 31
0.0
  0
TEXT
  5
34
330
2
100
AcDbEntity
  8
HALFEN-KONSOLANKER
100
AcDbText
 10
58.3795139443829
 20
245.6972844071639
 30
0.0
 40
5.0
  1
0102.050-00001
  7
ARIAL50
100
AcDbText
  0
LINE
  5
35
330
2
100
AcDbEntity
  8
HALFEN-KONSOLANKER
100
AcDbLine
 10
200.1562092410196
 20
218.1972844071639
 30
0.0
 11
665.1562092410196
 21
218.1972844071639
 31
0.0
  0
LINE
  5
36
330
2
100
AcDbEntity
  8
HALFEN-KONSOLANKER
100
AcDbLine
 10
665.1562092410196
 20
218.1972844071639
 30
0.0
 11
665.1562092410196
 21
168.1972844071639
 31
0.0
  0
LINE
  5
37
330
2
100
AcDbEntity
  8
HALFEN-KONSOLANKER
100
AcDbLine
 10
667.6562092410196
 20
168.1972844071639
 30
0.0
 11
200.1562092410196
 21
168.1972844071639
 31
0.0
  0
LINE
  5
38
330
2
100
AcDbEntity
  8
HALFEN-KONSOLANKER
100
AcDbLine
 10
200.1562092410196
 20
168.1972844071639
 30
0.0
 11
200.1562092410196
 21
223.1972844071639
 31
0.0
  0
LINE
  5
39
330
2
100
AcDbEntity
  8
HALFEN-KONSOLANKER
100
AcDbLine
 10
667.6562092410196
 20
168.1972844071639
 30
0.0
 11
667.6562092410196
 21
164.1972844071639
 31
0.0
  0
LINE
  5
3A
330
2
100
AcDbEntity
  8
HALFEN-KONSOLANKER
100
AcDbLine
 10
667.6562092410196
 20
164.1972844071639
 30
0.0
 11
490.8795139443827
 21
164.1972844071639
 31
0.0
  0
LINE
  5
3B
330
2
100
AcDbEntity
  8
HALFEN-KONSOLANKER
100
AcDbLine
 10
490.8795139443827
 20
164.1972844071639
 30
0.0
 11
490.8795139443827
 21
168.1972844071639
 31
0.0
  0
LINE
  5
3C
330
2
100
AcDbEntity
  8
HALFEN-KONSOLANKER
100
AcDbLine
 10
200.1562092410196
 20
223.1972844071639
 30
0.0
 11
220.1562092410196
 21
223.1972844071639
 31
0.0
  0
LINE
  5
3D
330
2
100
AcDbEntity
  8
HALFEN-KONSOLANKER
100
AcDbLine
 10
220.1562092410196
 20
223.1972844071639
 30
0.0
 11
220.1562092410196
 21
218.1972844071639
 31
0.0
  0
LINE
  5
3E
330
2
100
AcDbEntity
  8
HALFEN-KONSOLANKER
100
AcDbLine
 10
480.1562092410196
 20
218.1972844071639
 30
0.0
 11
480.1562092410196
 21
223.1972844071639
 31
0.0
  0
LINE
  5
3F
330
2
100
AcDbEntity
  8
HALFEN-KONSOLANKER
100
AcDbLine
 10
480.1562092410196
 20
223.1972844071639
 30
0.0
 11
415.1562092410196
 21
223.1972844071639
 31
0.0
  0
LINE
  5
40
330
2
100
AcDbEntity
  8
HALFEN-KONSOLANKER
100
AcDbLine
 10
415.1562092410196
 20
223.1972844071639
 30
0.0
 11
415.1562092410196
 21
218.1972844071639
 31
0.0
  0
LINE
  5
41
330
2
100
AcDbEntity
  8
HALFEN-KONSOLANKER
100
AcDbLine
 10
3.379513944382892
 20
168.1972844071639
 30
0.0
 11
3.379513944382892
 21
164.1972844071639
 31
0.0
  0
LINE
  5
42
330
2
100
AcDbEntity
  8
HALFEN-KONSOLANKER
100
AcDbLine
 10
180.1562092410196
 20
164.1972844071639
 30
0.0
 11
3.379513944382892
 21
164.1972844071639
 31
0.0
  0
LINE
  5
43
330
2
100
AcDbEntity
  8
HALFEN-KONSOLANKER
100
AcDbLine
 10
180.1562092410196
 20
168.1972844071639
 30
0.0
 11
3.379513944382892
 21
168.1972844071639
 31
0.0
  0
LINE
  5
44
330
2
100
AcDbEntity
  8
HALFEN-KONSOLANKER
100
AcDbLine
 10
180.1562092410196
 20
168.1972844071639
 30
0.0
 11
180.1562092410196
 21
164.1972844071639
 31
0.0
  0
LINE
  5
45
330
2
100
AcDbEntity
  8
HALFEN-KONSOLANKER
100
AcDbLine
 10
88.76786159270125
 20
168.1972844071639
 30
0.0
 11
88.76786159270125
 21
218.1972844071639
 31
0.0
  0
LINE
  5
46
330
2
100
AcDbEntity
  8
HALFEN-KONSOLANKER
100
AcDbLine
 10
94.76786159270124
 20
168.1972844071639
 30
0.0
 11
94.76786159270124
 21
218.1972844071639
 31
0.0
  0
LINE
  5
47
330
2
100
AcDbEntity
  8
HALFEN-KONSOLANKER
100
AcDbLine
 10
111.7678615927012
 20
218.197284407164
 30
0.0
 11
71.76786159270125
 21
218.1972844071637
 31
0.0
  0
LINE
  5
48
330
2
100
AcDbEntity
  8
HALFEN-KONSOLANKER
100
AcDbLine
 10
111.7678615927012
 20
223.197284407164
 30
0.0
 11
71.76786159270122
 21
223.1972844071638
 31
0.0
  0
LINE
  5
49
330
2
100
AcDbEntity
  8
HALFEN-KONSOLANKER
100
AcDbLine
 10
111.7678615927012
 20
223.197284407164
 30
0.0
 11
111.7678615927012
 21
218.197284407164
 31
0.0
  0
LINE
  5
4A
330
2
100
AcDbEntity
  8
HALFEN-KONSOLANKER
100
AcDbLine
 10
71.76786159270125
 20
218.1972844071637
 30
0.0
 11
71.76786159270122
 21
223.1972844071638
 31
0.0
  0
LINE
  5
4B
330
2
100
AcDbEntity
  8
HALFEN-KONSOLANKER
100
AcDbLine
 10
665.1562092410196
 20
58.3089367588456
 30
0.0
 11
480.1562092410196
 21
58.3089367588456
 31
0.0
  0
LINE
  5
4C
330
2
100
AcDbEntity
  8
HALFEN-KONSOLANKER
100
AcDbLine
 10
665.1562092410196
 20
53.30893675884559
 30
0.0
 11
480.1562092410196
 21
53.30893675884556
 31
0.0
  0
LINE
  5
4D
330
2
100
AcDbEntity
  8
HALFEN-KONSOLANKER
100
AcDbLine
 10
665.1562092410196
 20
58.30893675884557
 30
0.0
 11
665.1562092410196
 21
53.30893675884559
 31
0.0
  0
LINE
  5
4E
330
2
100
AcDbEntity
  8
HALFEN-KONSOLANKER
100
AcDbLine
 10
480.1562092410196
 20
75.80893675884559
 30
0.0
 11
480.1562092410196
 21
35.80893675884559
 31
0.0
  0
LINE
  5
4F
330
2
100
AcDbEntity
  8
HALFEN-KONSOLANKER
100
AcDbLine
 10
415.1562092410196
 20
75.80893675884559
 30
0.0
 11
415.1562092410196
 21
35.80893675884559
 31
0.0
  0
LINE
  5
50
330
2
100
AcDbEntity
  8
HALFEN-KONSOLANKER
100
AcDbLine
 10
220.1562092410196
 20
65.8089367588456
 30
0.0
 11
220.1562092410196
 21
45.80893675884559
 31
0.0
  0
LINE
  5
51
330
2
100
AcDbEntity
  8
HALFEN-KONSOLANKER
100
AcDbLine
 10
200.1562092410196
 20
65.80893675884559
 30
0.0
 11
200.1562092410196
 21
45.80893675884559
 31
0.0
  0
LINE
  5
52
330
2
100
AcDbEntity
  8
HALFEN-KONSOLANKER
100
AcDbLine
 10
220.1562092410196
 20
65.80893675884557
 30
0.0
 11
200.1562092410196
 21
65.80893675884559
 31
0.0
  0
LINE
  5
53
330
2
100
AcDbEntity
  8
HALFEN-KONSOLANKER
100
AcDbLine
 10
220.1562092410196
 20
45.80893675884559
 30
0.0
 11
200.1562092410196
 21
45.80893675884559
 31
0.0
  0
LINE
  5
54
330
2
100
AcDbEntity
  8
HALFEN-KONSOLANKER
100
AcDbLine
 10
480.1562092410196
 20
75.80893675884559
 30
0.0
 11
415.1562092410196
 21
75.80893675884559
 31
0.0
  0
LINE
  5
55
330
2
100
AcDbEntity
  8
HALFEN-KONSOLANKER
100
AcDbLine
 10
480.1562092410196
 20
35.80893675884559
 30
0.0
 11
415.1562092410196
 21
35.80893675884559
 31
0.0
  0
LINE
  5
56
330
2
100
AcDbEntity
  8
HALFEN-KONSOLANKER
100
AcDbLine
 10
415.1562092410195
 20
53.3089367588456
 30
0.0
 11
220.1562092410196
 21
53.30893675884556
 31
0.0
  0
LINE
  5
57
330
2
100
AcDbEntity
  8
HALFEN-KONSOLANKER
100
AcDbLine
 10
415.1562092410195
 20
58.30893675884556
 30
0.0
 11
220.1562092410196
 21
58.30893675884559
 31
0.0
  0
LINE
  5
58
330
2
100
AcDbEntity
  8
HALFEN-KONSOLANKER
100
AcDbLine
 10
91.76786159270125
 20
168.1972844071639
 30
0.0
 11
91.76786159270125
 21
164.1972844071639
 31
0.0
  0
LINE
  5
59
330
2
100
AcDbEntity
  8
HALFEN-KONSOLANKER
100
AcDbLine
 10
667.6562092410196
 20
55.80893675884556
 30
0.0
 11
579.2678615927012
 21
144.1972844071639
 31
0.0
  0
LINE
  5
5A
330
2
100
AcDbEntity
  8
HALFEN-KONSOLANKER
100
AcDbLine
 10
579.2678615927012
 20
144.1972844071639
 30
0.0
 11
493.3795139443828
 21
58.30893675884562
 31
0.0
  0
LINE
  5
5B
330
2
100
AcDbEntity
  8
HALFEN-KONSOLANKER
100
AcDbLine
 10
493.3795139443828
 20
53.30893675884556
 30
0.0
 11
579.2678615927012
 21
-32.57941088947286
 31
0.0
  0
LINE
  5
5C
330
2
100
AcDbEntity
  8
HALFEN-KONSOLANKER
100
AcDbLine
 10
579.2678615927012
 20
-32.57941088947286
 30
0.0
 11
667.6562092410196
 21
55.80893675884556
 31
0.0
  0
LINE
  5
5D
330
2
100
AcDbEntity
  8
HALFEN-KONSOLANKER
100
AcDbLine
 10
579.2678615927012
 20
164.1972844071639
 30
0.0
 11
579.2678615927012
 21
168.1972844071639
 31
0.0
  0
LINE
  5
5E
330
2
100
AcDbEntity
  8
HALFEN-KONSOLANKER
100
AcDbLine
 10
410.1562092410197
 20
-297.4677585377912
 30
0.0
 11
225.1562092410197
 21
-297.4677585377912
 31
0.0
  0
LINE
  5
5F
330
2
100
AcDbEntity
  8
HALFEN-KONSOLANKER
100
AcDbLine
 10
410.1562092410197
 20
-292.4677585377912
 30
0.0
 11
225.1562092410197
 21
-292.4677585377911
 31
0.0
  0
LINE
  5
60
330
2
100
AcDbEntity
  8
HALFEN-KONSOLANKER
100
AcDbLine
 10
200.1562092410197
 20
-127.5794108894728
 30
0.0
 11
695.1562092410197
 21
-127.5794108894728
 31
0.0
  0
LINE
  5
61
330
2
100
AcDbEntity
  8
HALFEN-KONSOLANKER
100
AcDbLine
 10
697.6562092410197
 20
-182.5794108894728
 30
0.0
 11
200.1562092410197
 21
-182.5794108894728
 31
0.0
  0
TEXT
  5
62
330
2
100
AcDbEntity
  8
HALFEN-KONSOLANKER
100
AcDbText
 10
58.37951394438301
 20
-90.07941088947285
 30
0.0
 40
5.0
  1
Halfen Einmörtelkonsolen KM - E - 130
  7
ARIAL50
100
AcDbText
  0
LINE
  5
63
330
2
100
AcDbEntity
  8
HALFEN-KONSOLANKER
100
AcDbLine
 10
180.1562092410197
 20
-186.5794108894728
 30
0.0
 11
3.379513944383006
 21
-186.5794108894728
 31
0.0
  0
LINE
  5
64
330
2
100
AcDbEntity
  8
HALFEN-KONSOLANKER
100
AcDbLine
 10
180.1562092410197
 20
-182.5794108894728
 30
0.0
 11
3.379513944383006
 21
-182.5794108894729
 31
0.0
  0
LINE
  5
65
330
2
100
AcDbEntity
  8
HALFEN-KONSOLANKER
100
AcDbLine
 10
111.7678615927014
 20
-127.5794108894728
 30
0.0
 11
71.76786159270136
 21
-127.579410889473
 31
0.0
  0
LINE
  5
66
330
2
100
AcDbEntity
  8
HALFEN-KONSOLANKER
100
AcDbLine
 10
111.7678615927013
 20
-122.5794108894728
 30
0.0
 11
71.76786159270133
 21
-122.579410889473
 31
0.0
  0
LINE
  5
67
330
2
100
AcDbEntity
  8
HALFEN-KONSOLANKER
100
AcDbLine
 10
3.379513944383006
 20
-82.57941088947285
 30
0.0
 11
208.379513944383
 21
-82.57941088947285
 31
0.0
  0
LINE
  5
68
330
2
100
AcDbEntity
  8
HALFEN-KONSOLANKER
100
AcDbLine
 10
3.379513944383006
 20
-92.57941088947285
 30
0.0
 11
208.379513944383
 21
-92.57941088947285
 31
0.0
  0
LINE
  5
69
330
2
100
AcDbEntity
  8
HALFEN-KONSOLANKER
100
AcDbLine
 10
3.379513944383006
 20
-102.5794108894728
 30
0.0
 11
208.379513944383
 21
-102.5794108894728
 31
0.0
  0
TEXT
  5
6A
330
2
100
AcDbEntity
  8
HALFEN-KONSOLANKER
100
AcDbText
 10
8.379513944383006
 20
-90.07941088947285
 30
0.0
 40
5.0
  1
Benennung
  7
ARIAL50
100
AcDbText
  0
TEXT
  5
6B
330
2
100
AcDbEntity
  8
HALFEN-KONSOLANKER
100
AcDbText
 10
8.379513944383006
 20
-100.0794108894728
 30
0.0
 40
5.0
  1
Id. Nr.
  7
ARIAL50
100
AcDbText
  0
LINE
  5
6C
330
2
100
AcDbEntity
  8
HALFEN-KONSOLANKER
100
AcDbLine
 10
3.379513944383006
 20
-182.5794108894729
 30
0.0
 11
3.379513944383006
 21
-186.5794108894728
 31
0.0
  0
TEXT
  5
6D
330
2
100
AcDbEntity
  8
HALFEN-KONSOLANKER
100
AcDbText
 10
3.379513944383006
 20
-80.07941088947285
 30
0.0
 40
5.0
  1
A4
  7
ARIAL50
100
AcDbText
  0
LINE
  5
6E
330
2
100
AcDbEntity
  8
HALFEN-KONSOLANKER
100
AcDbLine
 10
3.379513944383006
 20
-102.5794108894728
 30
0.0
 11
3.379513944383006
 21
-82.57941088947285
 31
0.0
  0
LINE
  5
6F
330
2
100
AcDbEntity
  8
HALFEN-KONSOLANKER
100
AcDbLine
 10
94.76786159270137
 20
-182.5794108894728
 30
0.0
 11
94.76786159270137
 21
-127.5794108894728
 31
0.0
  0
LINE
  5
70
330
2
100
AcDbEntity
  8
HALFEN-KONSOLANKER
100
AcDbLine
 10
88.76786159270137
 20
-182.5794108894728
 30
0.0
 11
88.76786159270137
 21
-127.5794108894728
 31
0.0
  0
LINE
  5
71
330
2
100
AcDbEntity
  8
HALFEN-KONSOLANKER
100
AcDbLine
 10
91.76786159270136
 20
-182.5794108894728
 30
0.0
 11
91.76786159270136
 21
-186.5794108894728
 31
0.0
  0
TEXT
  5
72
330
2
100
AcDbEntity
  8
HALFEN-KONSOLANKER
100
AcDbText
 10
58.37951394438301
 20
-100.0794108894728
 30
0.0
 40
5.0
  1
0102.050-00002
  7
ARIAL50
100
AcDbText
  0
LINE
  5
73
330
2
100
AcDbEntity
  8
HALFEN-KONSOLANKER
100
AcDbLine
 10
53.37951394438301
 20
-102.5794108894728
 30
0.0
 11
53.37951394438301
 21
-82.57941088947285
 31
0.0
  0
LINE
  5
74
330
2
100
AcDbEntity
  8
HALFEN-KONSOLANKER
100
AcDbLine
 10
71.76786159270136
 20
-127.579410889473
 30
0.0
 11
71.76786159270133
 21
-122.579410889473
 31
0.0
  0
LINE
  5
75
330
2
100
AcDbEntity
  8
HALFEN-KONSOLANKER
100
AcDbLine
 10
180.1562092410197
 20
-182.5794108894728
 30
0.0
 11
180.1562092410197
 21
-186.5794108894728
 31
0.0
  0
LINE
  5
76
330
2
100
AcDbEntity
  8
HALFEN-KONSOLANKER
100
AcDbLine
 10
111.7678615927013
 20
-122.5794108894728
 30
0.0
 11
111.7678615927014
 21
-127.5794108894728
 31
0.0
  0
LINE
  5
77
330
2
100
AcDbEntity
  8
HALFEN-KONSOLANKER
100
AcDbLine
 10
200.1562092410197
 20
-182.5794108894728
 30
0.0
 11
200.1562092410197
 21
-122.5794108894728
 31
0.0
  0
LINE
  5
78
330
2
100
AcDbEntity
  8
HALFEN-KONSOLANKER
100
AcDbLine
 10
225.1562092410197
 20
-284.9677585377912
 30
0.0
 11
225.1562092410197
 21
-304.9677585377911
 31
0.0
  0
LINE
  5
79
330
2
100
AcDbEntity
  8
HALFEN-KONSOLANKER
100
AcDbLine
 10
200.1562092410197
 20
-284.9677585377912
 30
0.0
 11
200.1562092410197
 21
-304.9677585377911
 31
0.0
  0
LINE
  5
7A
330
2
100
AcDbEntity
  8
HALFEN-KONSOLANKER
100
AcDbLine
 10
225.1562092410197
 20
-304.9677585377911
 30
0.0
 11
200.1562092410197
 21
-304.9677585377911
 31
0.0
  0
LINE
  5
7B
330
2
100
AcDbEntity
  8
HALFEN-KONSOLANKER
100
AcDbLine
 10
225.1562092410197
 20
-284.9677585377912
 30
0.0
 11
200.1562092410197
 21
-284.9677585377912
 31
0.0
  0
LINE
  5
7C
330
2
100
AcDbEntity
  8
HALFEN-KONSOLANKER
100
AcDbLine
 10
200.1562092410197
 20
-122.5794108894728
 30
0.0
 11
225.1562092410197
 21
-122.5794108894728
 31
0.0
  0
LINE
  5
7D
330
2
100
AcDbEntity
  8
HALFEN-KONSOLANKER
100
AcDbLine
 10
208.379513944383
 20
-102.5794108894728
 30
0.0
 11
208.379513944383
 21
-82.57941088947285
 31
0.0
  0
LINE
  5
7E
330
2
100
AcDbEntity
  8
HALFEN-KONSOLANKER
100
AcDbLine
 10
225.1562092410197
 20
-122.5794108894728
 30
0.0
 11
225.1562092410197
 21
-127.5794108894728
 31
0.0
  0
LINE
  5
7F
330
2
100
AcDbEntity
  8
HALFEN-KONSOLANKER
100
AcDbLine
 10
695.1562092410197
 20
-297.4677585377912
 30
0.0
 11
480.1562092410197
 21
-297.4677585377912
 31
0.0
  0
LINE
  5
80
330
2
100
AcDbEntity
  8
HALFEN-KONSOLANKER
100
AcDbLine
 10
695.1562092410197
 20
-292.4677585377911
 30
0.0
 11
480.1562092410197
 21
-292.4677585377911
 31
0.0
  0
LINE
  5
81
330
2
100
AcDbEntity
  8
HALFEN-KONSOLANKER
100
AcDbLine
 10
609.2678615927013
 20
-383.3561061861096
 30
0.0
 11
697.6562092410197
 21
-294.9677585377912
 31
0.0
  0
LINE
  5
82
330
2
100
AcDbEntity
  8
HALFEN-KONSOLANKER
100
AcDbLine
 10
697.6562092410197
 20
-294.9677585377912
 30
0.0
 11
609.2678615927013
 21
-206.5794108894729
 31
0.0
  0
LINE
  5
83
330
2
100
AcDbEntity
  8
HALFEN-KONSOLANKER
100
AcDbLine
 10
697.6562092410197
 20
-186.5794108894728
 30
0.0
 11
520.8795139443829
 21
-186.5794108894728
 31
0.0
  0
LINE
  5
84
330
2
100
AcDbEntity
  8
HALFEN-KONSOLANKER
100
AcDbLine
 10
480.1562092410197
 20
-274.9677585377912
 30
0.0
 11
410.1562092410197
 21
-274.9677585377912
 31
0.0
  0
LINE
  5
85
330
2
100
AcDbEntity
  8
HALFEN-KONSOLANKER
100
AcDbLine
 10
480.1562092410197
 20
-314.9677585377911
 30
0.0
 11
410.1562092410197
 21
-314.9677585377911
 31
0.0
  0
LINE
  5
86
330
2
100
AcDbEntity
  8
HALFEN-KONSOLANKER
100
AcDbLine
 10
480.1562092410197
 20
-122.5794108894728
 30
0.0
 11
410.1562092410197
 21
-122.5794108894728
 31
0.0
  0
LINE
  5
87
330
2
100
AcDbEntity
  8
HALFEN-KONSOLANKER
100
AcDbLine
 10
410.1562092410197
 20
-274.9677585377912
 30
0.0
 11
410.1562092410197
 21
-314.9677585377911
 31
0.0
  0
LINE
  5
88
330
2
100
AcDbEntity
  8
HALFEN-KONSOLANKER
100
AcDbLine
 10
410.1562092410197
 20
-122.5794108894728
 30
0.0
 11
410.1562092410197
 21
-127.5794108894728
 31
0.0
  0
LINE
  5
89
330
2
100
AcDbEntity
  8
HALFEN-KONSOLANKER
100
AcDbLine
 10
609.2678615927013
 20
-206.5794108894729
 30
0.0
 11
523.379513944383
 21
-292.4677585377911
 31
0.0
  0
LINE
  5
8A
330
2
100
AcDbEntity
  8
HALFEN-KONSOLANKER
100
AcDbLine
 10
523.379513944383
 20
-297.4677585377912
 30
0.0
 11
609.2678615927013
 21
-383.3561061861096
 31
0.0
  0
LINE
  5
8B
330
2
100
AcDbEntity
  8
HALFEN-KONSOLANKER
100
AcDbLine
 10
480.1562092410197
 20
-274.9677585377912
 30
0.0
 11
480.1562092410197
 21
-314.9677585377911
 31
0.0
  0
LINE
  5
8C
330
2
100
AcDbEntity
  8
HALFEN-KONSOLANKER
100
AcDbLine
 10
520.8795139443829
 20
-186.5794108894728
 30
0.0
 11
520.8795139443829
 21
-182.5794108894728
 31
0.0
  0
LINE
  5
8D
330
2
100
AcDbEntity
  8
HALFEN-KONSOLANKER
100
AcDbLine
 10
480.1562092410197
 20
-127.5794108894728
 30
0.0
 11
480.1562092410197
 21
-122.5794108894728
 31
0.0
  0
LINE
  5
8E
330
2
100
AcDbEntity
  8
HALFEN-KONSOLANKER
100
AcDbLine
 10
609.2678615927013
 20
-186.5794108894728
 30
0.0
 11
609.2678615927013
 21
-182.5794108894728
 31
0.0
  0
LINE
  5
8F
330
2
100
AcDbEntity
  8
HALFEN-KONSOLANKER
100
AcDbLine
 10
695.1562092410197
 20
-127.5794108894728
 30
0.0
 11
695.1562092410197
 21
-182.5794108894728
 31
0.0
  0
LINE
  5
90
330
2
100
AcDbEntity
  8
HALFEN-KONSOLANKER
100
AcDbLine
 10
695.1562092410197
 20
-292.4677585377912
 30
0.0
 11
695.1562092410197
 21
-297.4677585377912
 31
0.0
  0
LINE
  5
91
330
2
100
AcDbEntity
  8
HALFEN-KONSOLANKER
100
AcDbLine
 10
697.6562092410197
 20
-182.5794108894728
 30
0.0
 11
697.6562092410197
 21
-186.5794108894728
 31
0.0
  0
LINE
  5
92
330
2
100
AcDbEntity
  8
HALFEN-KONSOLANKER
100
AcDbLine
 10
405.1562092410198
 20
-648.244453834428
 30
0.0
 11
230.1562092410198
 21
-648.244453834428
 31
0.0
  0
LINE
  5
93
330
2
100
AcDbEntity
  8
HALFEN-KONSOLANKER
100
AcDbLine
 10
405.1562092410198
 20
-653.244453834428
 30
0.0
 11
230.1562092410198
 21
-653.244453834428
 31
0.0
  0
LINE
  5
94
330
2
100
AcDbEntity
  8
HALFEN-KONSOLANKER
100
AcDbLine
 10
727.6562092410198
 20
-538.3561061861096
 30
0.0
 11
200.1562092410198
 21
-538.3561061861096
 31
0.0
  0
LINE
  5
95
330
2
100
AcDbEntity
  8
HALFEN-KONSOLANKER
100
AcDbLine
 10
200.1562092410198
 20
-478.3561061861097
 30
0.0
 11
725.1562092410198
 21
-478.3561061861097
 31
0.0
  0
LINE
  5
96
330
2
100
AcDbEntity
  8
HALFEN-KONSOLANKER
100
AcDbLine
 10
180.1562092410198
 20
-538.3561061861096
 30
0.0
 11
3.37951394438312
 21
-538.3561061861096
 31
0.0
  0
LINE
  5
97
330
2
100
AcDbEntity
  8
HALFEN-KONSOLANKER
100
AcDbLine
 10
180.1562092410198
 20
-542.3561061861096
 30
0.0
 11
3.37951394438312
 21
-542.3561061861096
 31
0.0
  0
TEXT
  5
98
330
2
100
AcDbEntity
  8
HALFEN-KONSOLANKER
100
AcDbText
 10
58.37951394438312
 20
-440.8561061861096
 30
0.0
 40
5.0
  1
Halfen Einmörtelkonsolen KM - E - 150
  7
ARIAL50
100
AcDbText
  0
LINE
  5
99
330
2
100
AcDbEntity
  8
HALFEN-KONSOLANKER
100
AcDbLine
 10
3.37951394438312
 20
-433.3561061861096
 30
0.0
 11
208.3795139443831
 21
-433.3561061861096
 31
0.0
  0
LINE
  5
9A
330
2
100
AcDbEntity
  8
HALFEN-KONSOLANKER
100
AcDbLine
 10
3.37951394438312
 20
-443.3561061861096
 30
0.0
 11
208.3795139443831
 21
-443.3561061861096
 31
0.0
  0
LINE
  5
9B
330
2
100
AcDbEntity
  8
HALFEN-KONSOLANKER
100
AcDbLine
 10
111.7678615927015
 20
-478.3561061861095
 30
0.0
 11
71.76786159270148
 21
-478.3561061861098
 31
0.0
  0
LINE
  5
9C
330
2
100
AcDbEntity
  8
HALFEN-KONSOLANKER
100
AcDbLine
 10
111.7678615927014
 20
-473.3561061861095
 30
0.0
 11
71.76786159270145
 21
-473.3561061861098
 31
0.0
  0
LINE
  5
9D
330
2
100
AcDbEntity
  8
HALFEN-KONSOLANKER
100
AcDbLine
 10
3.37951394438312
 20
-453.3561061861096
 30
0.0
 11
208.3795139443831
 21
-453.3561061861096
 31
0.0
  0
TEXT
  5
9E
330
2
100
AcDbEntity
  8
HALFEN-KONSOLANKER
100
AcDbText
 10
8.37951394438312
 20
-440.8561061861096
 30
0.0
 40
5.0
  1
Benennung
  7
ARIAL50
100
AcDbText
  0
LINE
  5
9F
330
2
100
AcDbEntity
  8
HALFEN-KONSOLANKER
100
AcDbLine
 10
53.37951394438312
 20
-453.3561061861096
 30
0.0
 11
53.37951394438312
 21
-433.3561061861096
 31
0.0
  0
LINE
  5
A0
330
2
100
AcDbEntity
  8
HALFEN-KONSOLANKER
100
AcDbLine
 10
3.37951394438312
 20
-453.3561061861096
 30
0.0
 11
3.37951394438312
 21
-433.3561061861096
 31
0.0
  0
TEXT
  5
A1
330
2
100
AcDbEntity
  8
HALFEN-KONSOLANKER
100
AcDbText
 10
8.37951394438312
 20
-450.8561061861096
 30
0.0
 40
5.0
  1
Id. Nr.
  7
ARIAL50
100
AcDbText
  0
LINE
  5
A2
330
2
100
AcDbEntity
  8
HALFEN-KONSOLANKER
100
AcDbLine
 10
3.37951394438312
 20
-538.3561061861096
 30
0.0
 11
3.37951394438312
 21
-542.3561061861096
 31
0.0
  0
TEXT
  5
A3
330
2
100
AcDbEntity
  8
HALFEN-KONSOLANKER
100
AcDbText
 10
58.37951394438312
 20
-450.8561061861096
 30
0.0
 40
5.0
  1
0102.050-00003
  7
ARIAL50
100
AcDbText
  0
LINE
  5
A4
330
2
100
AcDbEntity
  8
HALFEN-KONSOLANKER
100
AcDbLine
 10
71.76786159270148
 20
-478.3561061861098
 30
0.0
 11
71.76786159270145
 21
-473.3561061861098
 31
0.0
  0
LINE
  5
A5
330
2
100
AcDbEntity
  8
HALFEN-KONSOLANKER
100
AcDbLine
 10
88.76786159270148
 20
-538.3561061861096
 30
0.0
 11
88.76786159270148
 21
-478.3561061861097
 31
0.0
  0
LINE
  5
A6
330
2
100
AcDbEntity
  8
HALFEN-KONSOLANKER
100
AcDbLine
 10
94.76786159270147
 20
-538.3561061861096
 30
0.0
 11
94.76786159270147
 21
-478.3561061861097
 31
0.0
  0
LINE
  5
A7
330
2
100
AcDbEntity
  8
HALFEN-KONSOLANKER
100
AcDbLine
 10
91.76786159270148
 20
-538.3561061861096
 30
0.0
 11
91.76786159270148
 21
-542.3561061861096
 31
0.0
  0
TEXT
  5
A8
330
2
100
AcDbEntity
  8
HALFEN-KONSOLANKER
100
AcDbText
 10
3.37951394438312
 20
-430.8561061861096
 30
0.0
 40
5.0
  1
A4
  7
ARIAL50
100
AcDbText
  0
LINE
  5
A9
330
2
100
AcDbEntity
  8
HALFEN-KONSOLANKER
100
AcDbLine
 10
208.3795139443831
 20
-453.3561061861096
 30
0.0
 11
208.3795139443831
 21
-433.3561061861096
 31
0.0
  0
LINE
  5
AA
330
2
100
AcDbEntity
  8
HALFEN-KONSOLANKER
100
AcDbLine
 10
111.7678615927014
 20
-473.3561061861095
 30
0.0
 11
111.7678615927015
 21
-478.3561061861095
 31
0.0
  0
LINE
  5
AB
330
2
100
AcDbEntity
  8
HALFEN-KONSOLANKER
100
AcDbLine
 10
180.1562092410198
 20
-538.3561061861096
 30
0.0
 11
180.1562092410198
 21
-542.3561061861096
 31
0.0
  0
LINE
  5
AC
330
2
100
AcDbEntity
  8
HALFEN-KONSOLANKER
100
AcDbLine
 10
230.1562092410198
 20
-638.2444538344279
 30
0.0
 11
200.1562092410198
 21
-638.2444538344279
 31
0.0
  0
LINE
  5
AD
330
2
100
AcDbEntity
  8
HALFEN-KONSOLANKER
100
AcDbLine
 10
230.1562092410198
 20
-663.2444538344279
 30
0.0
 11
200.1562092410198
 21
-663.2444538344279
 31
0.0
  0
LINE
  5
AE
330
2
100
AcDbEntity
  8
HALFEN-KONSOLANKER
100
AcDbLine
 10
200.1562092410198
 20
-638.2444538344279
 30
0.0
 11
200.1562092410198
 21
-663.2444538344279
 31
0.0
  0
LINE
  5
AF
330
2
100
AcDbEntity
  8
HALFEN-KONSOLANKER
100
AcDbLine
 10
230.1562092410198
 20
-638.2444538344279
 30
0.0
 11
230.1562092410198
 21
-663.2444538344279
 31
0.0
  0
LINE
  5
B0
330
2
100
AcDbEntity
  8
HALFEN-KONSOLANKER
100
AcDbLine
 10
200.1562092410198
 20
-473.3561061861096
 30
0.0
 11
230.1562092410198
 21
-473.3561061861096
 31
0.0
  0
LINE
  5
B1
330
2
100
AcDbEntity
  8
HALFEN-KONSOLANKER
100
AcDbLine
 10
200.1562092410198
 20
-538.3561061861096
 30
0.0
 11
200.1562092410198
 21
-473.3561061861096
 31
0.0
  0
LINE
  5
B2
330
2
100
AcDbEntity
  8
HALFEN-KONSOLANKER
100
AcDbLine
 10
230.1562092410198
 20
-473.3561061861096
 30
0.0
 11
230.1562092410198
 21
-478.3561061861097
 31
0.0
  0
LINE
  5
B3
330
2
100
AcDbEntity
  8
HALFEN-KONSOLANKER
100
AcDbLine
 10
725.1562092410198
 20
-653.244453834428
 30
0.0
 11
480.1562092410198
 21
-653.244453834428
 31
0.0
  0
LINE
  5
B4
330
2
100
AcDbEntity
  8
HALFEN-KONSOLANKER
100
AcDbLine
 10
725.1562092410198
 20
-648.244453834428
 30
0.0
 11
480.1562092410198
 21
-648.244453834428
 31
0.0
  0
LINE
  5
B5
330
2
100
AcDbEntity
  8
HALFEN-KONSOLANKER
100
AcDbLine
 10
639.2678615927015
 20
-739.1328014827463
 30
0.0
 11
727.6562092410198
 21
-650.7444538344279
 31
0.0
  0
LINE
  5
B6
330
2
100
AcDbEntity
  8
HALFEN-KONSOLANKER
100
AcDbLine
 10
727.6562092410198
 20
-650.7444538344279
 30
0.0
 11
639.2678615927015
 21
-562.3561061861096
 31
0.0
  0
LINE
  5
B7
330
2
100
AcDbEntity
  8
HALFEN-KONSOLANKER
100
AcDbLine
 10
727.6562092410198
 20
-542.3561061861096
 30
0.0
 11
550.8795139443829
 21
-542.3561061861096
 31
0.0
  0
LINE
  5
B8
330
2
100
AcDbEntity
  8
HALFEN-KONSOLANKER
100
AcDbLine
 10
480.1562092410198
 20
-473.3561061861096
 30
0.0
 11
405.1562092410198
 21
-473.3561061861096
 31
0.0
  0
LINE
  5
B9
330
2
100
AcDbEntity
  8
HALFEN-KONSOLANKER
100
AcDbLine
 10
480.1562092410198
 20
-630.7444538344279
 30
0.0
 11
405.1562092410198
 21
-630.7444538344279
 31
0.0
  0
LINE
  5
BA
330
2
100
AcDbEntity
  8
HALFEN-KONSOLANKER
100
AcDbLine
 10
480.1562092410198
 20
-670.744453834428
 30
0.0
 11
405.1562092410198
 21
-670.744453834428
 31
0.0
  0
LINE
  5
BB
330
2
100
AcDbEntity
  8
HALFEN-KONSOLANKER
100
AcDbLine
 10
405.1562092410198
 20
-630.7444538344279
 30
0.0
 11
405.1562092410198
 21
-670.744453834428
 31
0.0
  0
LINE
  5
BC
330
2
100
AcDbEntity
  8
HALFEN-KONSOLANKER
100
AcDbLine
 10
405.1562092410198
 20
-473.3561061861096
 30
0.0
 11
405.1562092410198
 21
-478.3561061861097
 31
0.0
  0
LINE
  5
BD
330
2
100
AcDbEntity
  8
HALFEN-KONSOLANKER
100
AcDbLine
 10
639.2678615927015
 20
-562.3561061861096
 30
0.0
 11
553.3795139443831
 21
-648.244453834428
 31
0.0
  0
LINE
  5
BE
330
2
100
AcDbEntity
  8
HALFEN-KONSOLANKER
100
AcDbLine
 10
553.3795139443831
 20
-653.244453834428
 30
0.0
 11
639.2678615927015
 21
-739.1328014827463
 31
0.0
  0
LINE
  5
BF
330
2
100
AcDbEntity
  8
HALFEN-KONSOLANKER
100
AcDbLine
 10
480.1562092410198
 20
-630.7444538344279
 30
0.0
 11
480.1562092410198
 21
-670.744453834428
 31
0.0
  0
LINE
  5
C0
330
2
100
AcDbEntity
  8
HALFEN-KONSOLANKER
100
AcDbLine
 10
480.1562092410198
 20
-478.3561061861097
 30
0.0
 11
480.1562092410198
 21
-473.3561061861096
 31
0.0
  0
LINE
  5
C1
330
2
100
AcDbEntity
  8
HALFEN-KONSOLANKER
100
AcDbLine
 10
550.8795139443829
 20
-542.3561061861096
 30
0.0
 11
550.8795139443829
 21
-538.3561061861096
 31
0.0
  0
LINE
  5
C2
330
2
100
AcDbEntity
  8
HALFEN-KONSOLANKER
100
AcDbLine
 10
639.2678615927015
 20
-542.3561061861096
 30
0.0
 11
639.2678615927015
 21
-538.3561061861096
 31
0.0
  0
LINE
  5
C3
330
2
100
AcDbEntity
  8
HALFEN-KONSOLANKER
100
AcDbLine
 10
725.1562092410198
 20
-648.244453834428
 30
0.0
 11
725.1562092410198
 21
-653.244453834428
 31
0.0
  0
LINE
  5
C4
330
2
100
AcDbEntity
  8
HALFEN-KONSOLANKER
100
AcDbLine
 10
725.1562092410198
 20
-478.3561061861097
 30
0.0
 11
725.1562092410198
 21
-538.3561061861096
 31
0.0
  0
LINE
  5
C5
330
2
100
AcDbEntity
  8
HALFEN-KONSOLANKER
100
AcDbLine
 10
727.6562092410198
 20
-538.3561061861096
 30
0.0
 11
727.6562092410198
 21
-542.3561061861096
 31
0.0
  0
LINE
  5
C6
330
2
100
AcDbEntity
  8
HALFEN-KONSOLANKER
100
AcDbLine
 10
400.1562092410199
 20
-1014.021149131065
 30
0.0
 11
235.1562092410199
 21
-1014.021149131065
 31
0.0
  0
LINE
  5
C7
330
2
100
AcDbEntity
  8
HALFEN-KONSOLANKER
100
AcDbLine
 10
400.1562092410199
 20
-1009.021149131064
 30
0.0
 11
235.1562092410199
 21
-1009.021149131064
 31
0.0
  0
LINE
  5
C8
330
2
100
AcDbEntity
  8
HALFEN-KONSOLANKER
100
AcDbLine
 10
752.6562092410199
 20
-899.1328014827463
 30
0.0
 11
200.1562092410199
 21
-899.1328014827463
 31
0.0
  0
LINE
  5
C9
330
2
100
AcDbEntity
  8
HALFEN-KONSOLANKER
100
AcDbLine
 10
200.1562092410199
 20
-834.1328014827464
 30
0.0
 11
750.1562092410199
 21
-834.1328014827464
 31
0.0
  0
LINE
  5
CA
330
2
100
AcDbEntity
  8
HALFEN-KONSOLANKER
100
AcDbLine
 10
180.1562092410199
 20
-903.1328014827463
 30
0.0
 11
3.379513944383234
 21
-903.1328014827463
 31
0.0
  0
LINE
  5
CB
330
2
100
AcDbEntity
  8
HALFEN-KONSOLANKER
100
AcDbLine
 10
180.1562092410199
 20
-899.1328014827463
 30
0.0
 11
3.379513944383234
 21
-899.1328014827463
 31
0.0
  0
TEXT
  5
CC
330
2
100
AcDbEntity
  8
HALFEN-KONSOLANKER
100
AcDbText
 10
58.37951394438324
 20
-796.6328014827463
 30
0.0
 40
5.0
  1
Halfen Einmörtelkonsolen KM - E - 170
  7
ARIAL50
100
AcDbText
  0
LINE
  5
CD
330
2
100
AcDbEntity
  8
HALFEN-KONSOLANKER
100
AcDbLine
 10
3.379513944383234
 20
-789.1328014827463
 30
0.0
 11
208.3795139443832
 21
-789.1328014827463
 31
0.0
  0
LINE
  5
CE
330
2
100
AcDbEntity
  8
HALFEN-KONSOLANKER
100
AcDbLine
 10
3.379513944383234
 20
-799.1328014827463
 30
0.0
 11
208.3795139443832
 21
-799.1328014827463
 31
0.0
  0
LINE
  5
CF
330
2
100
AcDbEntity
  8
HALFEN-KONSOLANKER
100
AcDbLine
 10
111.7678615927016
 20
-834.1328014827464
 30
0.0
 11
71.76786159270159
 21
-834.1328014827466
 31
0.0
  0
LINE
  5
D0
330
2
100
AcDbEntity
  8
HALFEN-KONSOLANKER
100
AcDbLine
 10
111.7678615927016
 20
-829.1328014827463
 30
0.0
 11
71.76786159270159
 21
-829.1328014827465
 31
0.0
  0
LINE
  5
D1
330
2
100
AcDbEntity
  8
HALFEN-KONSOLANKER
100
AcDbLine
 10
3.379513944383234
 20
-809.1328014827464
 30
0.0
 11
208.3795139443832
 21
-809.1328014827464
 31
0.0
  0
TEXT
  5
D2
330
2
100
AcDbEntity
  8
HALFEN-KONSOLANKER
100
AcDbText
 10
8.379513944383234
 20
-796.6328014827463
 30
0.0
 40
5.0
  1
Benennung
  7
ARIAL50
100
AcDbText
  0
TEXT
  5
D3
330
2
100
AcDbEntity
  8
HALFEN-KONSOLANKER
100
AcDbText
 10
8.379513944383234
 20
-806.6328014827464
 30
0.0
 40
5.0
  1
Id. Nr.
  7
ARIAL50
100
AcDbText
  0
LINE
  5
D4
330
2
100
AcDbEntity
  8
HALFEN-KONSOLANKER
100
AcDbLine
 10
3.379513944383234
 20
-899.1328014827463
 30
0.0
 11
3.379513944383234
 21
-903.1328014827463
 31
0.0
  0
TEXT
  5
D5
330
2
100
AcDbEntity
  8
HALFEN-KONSOLANKER
100
AcDbText
 10
3.379513944383234
 20
-786.6328014827463
 30
0.0
 40
5.0
  1
A4
  7
ARIAL50
100
AcDbText
  0
LINE
  5
D6
330
2
100
AcDbEntity
  8
HALFEN-KONSOLANKER
100
AcDbLine
 10
3.379513944383234
 20
-809.1328014827464
 30
0.0
 11
3.379513944383234
 21
-789.1328014827463
 31
0.0
  0
TEXT
  5
D7
330
2
100
AcDbEntity
  8
HALFEN-KONSOLANKER
100
AcDbText
 10
58.37951394438324
 20
-806.6328014827464
 30
0.0
 40
5.0
  1
0102.050-00004
  7
ARIAL50
100
AcDbText
  0
LINE
  5
D8
330
2
100
AcDbEntity
  8
HALFEN-KONSOLANKER
100
AcDbLine
 10
53.37951394438324
 20
-809.1328014827464
 30
0.0
 11
53.37951394438324
 21
-789.1328014827463
 31
0.0
  0
LINE
  5
D9
330
2
100
AcDbEntity
  8
HALFEN-KONSOLANKER
100
AcDbLine
 10
94.7678615927016
 20
-899.1328014827463
 30
0.0
 11
94.7678615927016
 21
-834.1328014827464
 31
0.0
  0
LINE
  5
DA
330
2
100
AcDbEntity
  8
HALFEN-KONSOLANKER
100
AcDbLine
 10
88.76786159270158
 20
-899.1328014827463
 30
0.0
 11
88.76786159270158
 21
-834.1328014827464
 31
0.0
  0
LINE
  5
DB
330
2
100
AcDbEntity
  8
HALFEN-KONSOLANKER
100
AcDbLine
 10
91.76786159270159
 20
-899.1328014827463
 30
0.0
 11
91.76786159270159
 21
-903.1328014827463
 31
0.0
  0
LINE
  5
DC
330
2
100
AcDbEntity
  8
HALFEN-KONSOLANKER
100
AcDbLine
 10
71.76786159270159
 20
-834.1328014827466
 30
0.0
 11
71.76786159270159
 21
-829.1328014827465
 31
0.0
  0
LINE
  5
DD
330
2
100
AcDbEntity
  8
HALFEN-KONSOLANKER
100
AcDbLine
 10
111.7678615927016
 20
-829.1328014827463
 30
0.0
 11
111.7678615927016
 21
-834.1328014827464
 31
0.0
  0
LINE
  5
DE
330
2
100
AcDbEntity
  8
HALFEN-KONSOLANKER
100
AcDbLine
 10
180.1562092410199
 20
-899.1328014827463
 30
0.0
 11
180.1562092410199
 21
-903.1328014827463
 31
0.0
  0
LINE
  5
DF
330
2
100
AcDbEntity
  8
HALFEN-KONSOLANKER
100
AcDbLine
 10
200.1562092410199
 20
-899.1328014827463
 30
0.0
 11
200.1562092410199
 21
-829.1328014827463
 31
0.0
  0
LINE
  5
E0
330
2
100
AcDbEntity
  8
HALFEN-KONSOLANKER
100
AcDbLine
 10
235.1562092410199
 20
-1024.021149131065
 30
0.0
 11
200.1562092410199
 21
-1024.021149131065
 31
0.0
  0
LINE
  5
E1
330
2
100
AcDbEntity
  8
HALFEN-KONSOLANKER
100
AcDbLine
 10
235.1562092410199
 20
-999.0211491310647
 30
0.0
 11
200.1562092410199
 21
-999.0211491310647
 31
0.0
  0
LINE
  5
E2
330
2
100
AcDbEntity
  8
HALFEN-KONSOLANKER
100
AcDbLine
 10
200.1562092410199
 20
-999.0211491310647
 30
0.0
 11
200.1562092410199
 21
-1024.021149131065
 31
0.0
  0
LINE
  5
E3
330
2
100
AcDbEntity
  8
HALFEN-KONSOLANKER
100
AcDbLine
 10
235.1562092410199
 20
-999.0211491310647
 30
0.0
 11
235.1562092410199
 21
-1024.021149131065
 31
0.0
  0
LINE
  5
E4
330
2
100
AcDbEntity
  8
HALFEN-KONSOLANKER
100
AcDbLine
 10
200.1562092410199
 20
-829.1328014827463
 30
0.0
 11
235.1562092410199
 21
-829.1328014827463
 31
0.0
  0
LINE
  5
E5
330
2
100
AcDbEntity
  8
HALFEN-KONSOLANKER
100
AcDbLine
 10
208.3795139443832
 20
-809.1328014827464
 30
0.0
 11
208.3795139443832
 21
-789.1328014827463
 31
0.0
  0
LINE
  5
E6
330
2
100
AcDbEntity
  8
HALFEN-KONSOLANKER
100
AcDbLine
 10
235.1562092410199
 20
-829.1328014827463
 30
0.0
 11
235.1562092410199
 21
-834.1328014827464
 31
0.0
  0
LINE
  5
E7
330
2
100
AcDbEntity
  8
HALFEN-KONSOLANKER
100
AcDbLine
 10
664.2678615927016
 20
-1099.909496779383
 30
0.0
 11
752.6562092410199
 21
-1011.521149131064
 31
0.0
  0
LINE
  5
E8
330
2
100
AcDbEntity
  8
HALFEN-KONSOLANKER
100
AcDbLine
 10
578.3795139443832
 20
-1014.021149131065
 30
0.0
 11
664.2678615927016
 21
-1099.909496779383
 31
0.0
  0
LINE
  5
E9
330
2
100
AcDbEntity
  8
HALFEN-KONSOLANKER
100
AcDbLine
 10
750.1562092410199
 20
-1014.021149131065
 30
0.0
 11
480.15620924102
 21
-1014.021149131065
 31
0.0
  0
LINE
  5
EA
330
2
100
AcDbEntity
  8
HALFEN-KONSOLANKER
100
AcDbLine
 10
750.1562092410199
 20
-1009.021149131064
 30
0.0
 11
480.15620924102
 21
-1009.021149131064
 31
0.0
  0
LINE
  5
EB
330
2
100
AcDbEntity
  8
HALFEN-KONSOLANKER
100
AcDbLine
 10
752.6562092410199
 20
-903.1328014827463
 30
0.0
 11
575.8795139443831
 21
-903.1328014827463
 31
0.0
  0
LINE
  5
EC
330
2
100
AcDbEntity
  8
HALFEN-KONSOLANKER
100
AcDbLine
 10
664.2678615927016
 20
-923.1328014827463
 30
0.0
 11
578.3795139443832
 21
-1009.021149131064
 31
0.0
  0
LINE
  5
ED
330
2
100
AcDbEntity
  8
HALFEN-KONSOLANKER
100
AcDbLine
 10
480.15620924102
 20
-829.1328014827463
 30
0.0
 11
400.1562092410199
 21
-829.1328014827463
 31
0.0
  0
LINE
  5
EE
330
2
100
AcDbEntity
  8
HALFEN-KONSOLANKER
100
AcDbLine
 10
480.15620924102
 20
-991.5211491310646
 30
0.0
 11
400.1562092410199
 21
-991.5211491310646
 31
0.0
  0
LINE
  5
EF
330
2
100
AcDbEntity
  8
HALFEN-KONSOLANKER
100
AcDbLine
 10
480.15620924102
 20
-1031.521149131064
 30
0.0
 11
400.1562092410199
 21
-1031.521149131064
 31
0.0
  0
LINE
  5
F0
330
2
100
AcDbEntity
  8
HALFEN-KONSOLANKER
100
AcDbLine
 10
400.1562092410199
 20
-991.5211491310646
 30
0.0
 11
400.1562092410199
 21
-1031.521149131064
 31
0.0
  0
LINE
  5
F1
330
2
100
AcDbEntity
  8
HALFEN-KONSOLANKER
100
AcDbLine
 10
400.1562092410199
 20
-829.1328014827463
 30
0.0
 11
400.1562092410199
 21
-834.1328014827464
 31
0.0
  0
LINE
  5
F2
330
2
100
AcDbEntity
  8
HALFEN-KONSOLANKER
100
AcDbLine
 10
480.15620924102
 20
-991.5211491310646
 30
0.0
 11
480.15620924102
 21
-1031.521149131064
 31
0.0
  0
LINE
  5
F3
330
2
100
AcDbEntity
  8
HALFEN-KONSOLANKER
100
AcDbLine
 10
480.15620924102
 20
-834.1328014827464
 30
0.0
 11
480.15620924102
 21
-829.1328014827463
 31
0.0
  0
LINE
  5
F4
330
2
100
AcDbEntity
  8
HALFEN-KONSOLANKER
100
AcDbLine
 10
575.8795139443831
 20
-903.1328014827463
 30
0.0
 11
575.8795139443831
 21
-899.1328014827463
 31
0.0
  0
LINE
  5
F5
330
2
100
AcDbEntity
  8
HALFEN-KONSOLANKER
100
AcDbLine
 10
752.6562092410199
 20
-1011.521149131064
 30
0.0
 11
664.2678615927016
 21
-923.1328014827463
 31
0.0
  0
LINE
  5
F6
330
2
100
AcDbEntity
  8
HALFEN-KONSOLANKER
100
AcDbLine
 10
664.2678615927016
 20
-903.1328014827463
 30
0.0
 11
664.2678615927016
 21
-899.1328014827463
 31
0.0
  0
LINE
  5
F7
330
2
100
AcDbEntity
  8
HALFEN-KONSOLANKER
100
AcDbLine
 10
750.1562092410199
 20
-834.1328014827464
 30
0.0
 11
750.1562092410199
 21
-899.1328014827463
 31
0.0
  0
LINE
  5
F8
330
2
100
AcDbEntity
  8
HALFEN-KONSOLANKER
100
AcDbLine
 10
750.1562092410199
 20
-1009.021149131064
 30
0.0
 11
750.1562092410199
 21
-1014.021149131065
 31
0.0
  0
LINE
  5
F9
330
2
100
AcDbEntity
  8
HALFEN-KONSOLANKER
100
AcDbLine
 10
752.6562092410199
 20
-899.1328014827463
 30
0.0
 11
752.6562092410199
 21
-903.1328014827463
 31
0.0
  0
LINE
  5
FA
330
2
100
AcDbEntity
  8
HALFEN-KONSOLANKER
100
AcDbLine
 10
200.1562092410201
 20
-1194.909496779383
 30
0.0
 11
780.15620924102
 21
-1194.909496779383
 31
0.0
  0
LINE
  5
FB
330
2
100
AcDbEntity
  8
HALFEN-KONSOLANKER
100
AcDbLine
 10
783.6562092410201
 20
-1259.909496779383
 30
0.0
 11
200.1562092410201
 21
-1259.909496779383
 31
0.0
  0
LINE
  5
FC
330
2
100
AcDbEntity
  8
HALFEN-KONSOLANKER
100
AcDbLine
 10
395.1562092410201
 20
-1375.797844427701
 30
0.0
 11
245.1562092410201
 21
-1375.797844427701
 31
0.0
  0
LINE
  5
FD
330
2
100
AcDbEntity
  8
HALFEN-KONSOLANKER
100
AcDbLine
 10
395.1562092410201
 20
-1368.797844427701
 30
0.0
 11
245.1562092410201
 21
-1368.797844427701
 31
0.0
  0
LINE
  5
FE
330
2
100
AcDbEntity
  8
HALFEN-KONSOLANKER
100
AcDbLine
 10
180.15620924102
 20
-1263.909496779383
 30
0.0
 11
3.379513944383347
 21
-1263.909496779383
 31
0.0
  0
LINE
  5
FF
330
2
100
AcDbEntity
  8
HALFEN-KONSOLANKER
100
AcDbLine
 10
180.15620924102
 20
-1259.909496779383
 30
0.0
 11
3.379513944383347
 21
-1259.909496779383
 31
0.0
  0
TEXT
  5
100
330
2
100
AcDbEntity
  8
HALFEN-KONSOLANKER
100
AcDbText
 10
58.37951394438334
 20
-1157.409496779383
 30
0.0
 40
5.0
  1
Halfen Einmörtelkonsolen KM - E - 190
  7
ARIAL50
100
AcDbText
  0
LINE
  5
101
330
2
100
AcDbEntity
  8
HALFEN-KONSOLANKER
100
AcDbLine
 10
3.379513944383347
 20
-1169.909496779383
 30
0.0
 11
208.3795139443834
 21
-1169.909496779383
 31
0.0
  0
LINE
  5
102
330
2
100
AcDbEntity
  8
HALFEN-KONSOLANKER
100
AcDbLine
 10
114.2678615927017
 20
-1188.909496779383
 30
0.0
 11
69.26786159270171
 21
-1188.909496779383
 31
0.0
  0
LINE
  5
103
330
2
100
AcDbEntity
  8
HALFEN-KONSOLANKER
100
AcDbLine
 10
114.2678615927017
 20
-1194.909496779383
 30
0.0
 11
69.26786159270171
 21
-1194.909496779383
 31
0.0
  0
LINE
  5
104
330
2
100
AcDbEntity
  8
HALFEN-KONSOLANKER
100
AcDbLine
 10
3.379513944383347
 20
-1159.909496779383
 30
0.0
 11
208.3795139443834
 21
-1159.909496779383
 31
0.0
  0
LINE
  5
105
330
2
100
AcDbEntity
  8
HALFEN-KONSOLANKER
100
AcDbLine
 10
3.379513944383347
 20
-1149.909496779383
 30
0.0
 11
208.3795139443834
 21
-1149.909496779383
 31
0.0
  0
TEXT
  5
106
330
2
100
AcDbEntity
  8
HALFEN-KONSOLANKER
100
AcDbText
 10
8.379513944383347
 20
-1167.409496779383
 30
0.0
 40
5.0
  1
Id. Nr.
  7
ARIAL50
100
AcDbText
  0
TEXT
  5
107
330
2
100
AcDbEntity
  8
HALFEN-KONSOLANKER
100
AcDbText
 10
8.379513944383347
 20
-1157.409496779383
 30
0.0
 40
5.0
  1
Benennung
  7
ARIAL50
100
AcDbText
  0
LINE
  5
108
330
2
100
AcDbEntity
  8
HALFEN-KONSOLANKER
100
AcDbLine
 10
3.379513944383347
 20
-1259.909496779383
 30
0.0
 11
3.379513944383347
 21
-1263.909496779383
 31
0.0
  0
TEXT
  5
109
330
2
100
AcDbEntity
  8
HALFEN-KONSOLANKER
100
AcDbText
 10
3.379513944383347
 20
-1147.409496779383
 30
0.0
 40
5.0
  1
A4
  7
ARIAL50
100
AcDbText
  0
LINE
  5
10A
330
2
100
AcDbEntity
  8
HALFEN-KONSOLANKER
100
AcDbLine
 10
3.379513944383347
 20
-1169.909496779383
 30
0.0
 11
3.379513944383347
 21
-1149.909496779383
 31
0.0
  0
TEXT
  5
10B
330
2
100
AcDbEntity
  8
HALFEN-KONSOLANKER
100
AcDbText
 10
58.37951394438334
 20
-1167.409496779383
 30
0.0
 40
5.0
  1
0102.050-00005
  7
ARIAL50
100
AcDbText
  0
LINE
  5
10C
330
2
100
AcDbEntity
  8
HALFEN-KONSOLANKER
100
AcDbLine
 10
53.37951394438334
 20
-1169.909496779383
 30
0.0
 11
53.37951394438334
 21
-1149.909496779383
 31
0.0
  0
LINE
  5
10D
330
2
100
AcDbEntity
  8
HALFEN-KONSOLANKER
100
AcDbLine
 10
95.7678615927017
 20
-1259.909496779383
 30
0.0
 11
95.7678615927017
 21
-1194.909496779383
 31
0.0
  0
LINE
  5
10E
330
2
100
AcDbEntity
  8
HALFEN-KONSOLANKER
100
AcDbLine
 10
87.76786159270171
 20
-1259.909496779383
 30
0.0
 11
87.76786159270171
 21
-1194.909496779383
 31
0.0
  0
LINE
  5
10F
330
2
100
AcDbEntity
  8
HALFEN-KONSOLANKER
100
AcDbLine
 10
91.7678615927017
 20
-1259.909496779383
 30
0.0
 11
91.7678615927017
 21
-1263.909496779383
 31
0.0
  0
LINE
  5
110
330
2
100
AcDbEntity
  8
HALFEN-KONSOLANKER
100
AcDbLine
 10
69.26786159270171
 20
-1194.909496779383
 30
0.0
 11
69.26786159270171
 21
-1188.909496779383
 31
0.0
  0
LINE
  5
111
330
2
100
AcDbEntity
  8
HALFEN-KONSOLANKER
100
AcDbLine
 10
114.2678615927017
 20
-1188.909496779383
 30
0.0
 11
114.2678615927017
 21
-1194.909496779383
 31
0.0
  0
LINE
  5
112
330
2
100
AcDbEntity
  8
HALFEN-KONSOLANKER
100
AcDbLine
 10
180.15620924102
 20
-1259.909496779383
 30
0.0
 11
180.15620924102
 21
-1263.909496779383
 31
0.0
  0
LINE
  5
113
330
2
100
AcDbEntity
  8
HALFEN-KONSOLANKER
100
AcDbLine
 10
245.1562092410201
 20
-1359.797844427701
 30
0.0
 11
200.1562092410201
 21
-1359.797844427701
 31
0.0
  0
LINE
  5
114
330
2
100
AcDbEntity
  8
HALFEN-KONSOLANKER
100
AcDbLine
 10
245.1562092410201
 20
-1384.797844427701
 30
0.0
 11
200.1562092410201
 21
-1384.797844427701
 31
0.0
  0
LINE
  5
115
330
2
100
AcDbEntity
  8
HALFEN-KONSOLANKER
100
AcDbLine
 10
200.1562092410201
 20
-1359.797844427701
 30
0.0
 11
200.1562092410201
 21
-1384.797844427701
 31
0.0
  0
LINE
  5
116
330
2
100
AcDbEntity
  8
HALFEN-KONSOLANKER
100
AcDbLine
 10
245.1562092410201
 20
-1359.797844427701
 30
0.0
 11
245.1562092410201
 21
-1384.797844427701
 31
0.0
  0
LINE
  5
117
330
2
100
AcDbEntity
  8
HALFEN-KONSOLANKER
100
AcDbLine
 10
200.1562092410201
 20
-1259.909496779383
 30
0.0
 11
200.1562092410201
 21
-1189.909496779383
 31
0.0
  0
LINE
  5
118
330
2
100
AcDbEntity
  8
HALFEN-KONSOLANKER
100
AcDbLine
 10
200.1562092410201
 20
-1189.909496779383
 30
0.0
 11
245.1562092410201
 21
-1189.909496779383
 31
0.0
  0
LINE
  5
119
330
2
100
AcDbEntity
  8
HALFEN-KONSOLANKER
100
AcDbLine
 10
208.3795139443834
 20
-1169.909496779383
 30
0.0
 11
208.3795139443834
 21
-1149.909496779383
 31
0.0
  0
LINE
  5
11A
330
2
100
AcDbEntity
  8
HALFEN-KONSOLANKER
100
AcDbLine
 10
245.1562092410201
 20
-1189.909496779383
 30
0.0
 11
245.1562092410201
 21
-1194.909496779383
 31
0.0
  0
LINE
  5
11B
330
2
100
AcDbEntity
  8
HALFEN-KONSOLANKER
100
AcDbLine
 10
610.3795139443833
 20
-1375.797844427701
 30
0.0
 11
695.2678615927018
 21
-1460.68619207602
 31
0.0
  0
LINE
  5
11C
330
2
100
AcDbEntity
  8
HALFEN-KONSOLANKER
100
AcDbLine
 10
780.15620924102
 20
-1375.797844427701
 30
0.0
 11
480.15620924102
 21
-1375.797844427701
 31
0.0
  0
LINE
  5
11D
330
2
100
AcDbEntity
  8
HALFEN-KONSOLANKER
100
AcDbLine
 10
780.1562092410201
 20
-1368.797844427701
 30
0.0
 11
480.15620924102
 21
-1368.797844427701
 31
0.0
  0
LINE
  5
11E
330
2
100
AcDbEntity
  8
HALFEN-KONSOLANKER
100
AcDbLine
 10
783.6562092410201
 20
-1263.909496779383
 30
0.0
 11
606.8795139443834
 21
-1263.909496779383
 31
0.0
  0
LINE
  5
11F
330
2
100
AcDbEntity
  8
HALFEN-KONSOLANKER
100
AcDbLine
 10
695.2678615927018
 20
-1283.909496779383
 30
0.0
 11
610.3795139443835
 21
-1368.797844427701
 31
0.0
  0
LINE
  5
120
330
2
100
AcDbEntity
  8
HALFEN-KONSOLANKER
100
AcDbLine
 10
480.15620924102
 20
-1188.909496779383
 30
0.0
 11
395.1562092410201
 21
-1188.909496779383
 31
0.0
  0
LINE
  5
121
330
2
100
AcDbEntity
  8
HALFEN-KONSOLANKER
100
AcDbLine
 10
480.15620924102
 20
-1394.797844427701
 30
0.0
 11
395.1562092410201
 21
-1394.797844427701
 31
0.0
  0
LINE
  5
122
330
2
100
AcDbEntity
  8
HALFEN-KONSOLANKER
100
AcDbLine
 10
480.15620924102
 20
-1349.797844427701
 30
0.0
 11
395.1562092410201
 21
-1349.797844427701
 31
0.0
  0
LINE
  5
123
330
2
100
AcDbEntity
  8
HALFEN-KONSOLANKER
100
AcDbLine
 10
395.1562092410201
 20
-1349.797844427701
 30
0.0
 11
395.1562092410201
 21
-1394.797844427701
 31
0.0
  0
LINE
  5
124
330
2
100
AcDbEntity
  8
HALFEN-KONSOLANKER
100
AcDbLine
 10
395.1562092410201
 20
-1188.909496779383
 30
0.0
 11
395.1562092410201
 21
-1194.909496779383
 31
0.0
  0
LINE
  5
125
330
2
100
AcDbEntity
  8
HALFEN-KONSOLANKER
100
AcDbLine
 10
480.15620924102
 20
-1349.797844427701
 30
0.0
 11
480.15620924102
 21
-1394.797844427701
 31
0.0
  0
LINE
  5
126
330
2
100
AcDbEntity
  8
HALFEN-KONSOLANKER
100
AcDbLine
 10
480.15620924102
 20
-1194.909496779383
 30
0.0
 11
480.15620924102
 21
-1188.909496779383
 31
0.0
  0
LINE
  5
127
330
2
100
AcDbEntity
  8
HALFEN-KONSOLANKER
100
AcDbLine
 10
606.8795139443834
 20
-1263.909496779383
 30
0.0
 11
606.8795139443834
 21
-1259.909496779383
 31
0.0
  0
LINE
  5
128
330
2
100
AcDbEntity
  8
HALFEN-KONSOLANKER
100
AcDbLine
 10
695.2678615927018
 20
-1460.68619207602
 30
0.0
 11
783.6562092410201
 21
-1372.297844427701
 31
0.0
  0
LINE
  5
129
330
2
100
AcDbEntity
  8
HALFEN-KONSOLANKER
100
AcDbLine
 10
783.6562092410201
 20
-1372.297844427701
 30
0.0
 11
695.2678615927018
 21
-1283.909496779383
 31
0.0
  0
LINE
  5
12A
330
2
100
AcDbEntity
  8
HALFEN-KONSOLANKER
100
AcDbLine
 10
695.2678615927018
 20
-1263.909496779383
 30
0.0
 11
695.2678615927018
 21
-1259.909496779383
 31
0.0
  0
LINE
  5
12B
330
2
100
AcDbEntity
  8
HALFEN-KONSOLANKER
100
AcDbLine
 10
780.1562092410201
 20
-1368.797844427701
 30
0.0
 11
780.15620924102
 21
-1375.797844427701
 31
0.0
  0
LINE
  5
12C
330
2
100
AcDbEntity
  8
HALFEN-KONSOLANKER
100
AcDbLine
 10
780.15620924102
 20
-1194.909496779383
 30
0.0
 11
780.15620924102
 21
-1259.909496779383
 31
0.0
  0
LINE
  5
12D
330
2
100
AcDbEntity
  8
HALFEN-KONSOLANKER
100
AcDbLine
 10
783.6562092410201
 20
-1259.909496779383
 30
0.0
 11
783.6562092410201
 21
-1263.909496779383
 31
0.0
  0
LINE
  5
12E
330
2
100
AcDbEntity
  8
HALFEN-KONSOLANKER
100
AcDbLine
 10
395.1562092410202
 20
-1741.574539724338
 30
0.0
 11
245.1562092410202
 21
-1741.574539724338
 31
0.0
  0
LINE
  5
12F
330
2
100
AcDbEntity
  8
HALFEN-KONSOLANKER
100
AcDbLine
 10
395.1562092410202
 20
-1734.574539724338
 30
0.0
 11
245.1562092410202
 21
-1734.574539724338
 31
0.0
  0
LINE
  5
130
330
2
100
AcDbEntity
  8
HALFEN-KONSOLANKER
100
AcDbLine
 10
813.6562092410203
 20
-1625.68619207602
 30
0.0
 11
200.1562092410202
 21
-1625.68619207602
 31
0.0
  0
LINE
  5
131
330
2
100
AcDbEntity
  8
HALFEN-KONSOLANKER
100
AcDbLine
 10
200.1562092410202
 20
-1555.68619207602
 30
0.0
 11
810.1562092410201
 21
-1555.68619207602
 31
0.0
  0
LINE
  5
132
330
2
100
AcDbEntity
  8
HALFEN-KONSOLANKER
100
AcDbLine
 10
114.2678615927018
 20
-1549.68619207602
 30
0.0
 11
69.26786159270182
 21
-1549.68619207602
 31
0.0
  0
LINE
  5
133
330
2
100
AcDbEntity
  8
HALFEN-KONSOLANKER
100
AcDbLine
 10
114.2678615927018
 20
-1555.68619207602
 30
0.0
 11
69.26786159270182
 21
-1555.68619207602
 31
0.0
  0
TEXT
  5
134
330
2
100
AcDbEntity
  8
HALFEN-KONSOLANKER
100
AcDbText
 10
58.37951394438346
 20
-1518.18619207602
 30
0.0
 40
5.0
  1
Halfen Einmörtelkonsolen KM - E - 210
  7
ARIAL50
100
AcDbText
  0
LINE
  5
135
330
2
100
AcDbEntity
  8
HALFEN-KONSOLANKER
100
AcDbLine
 10
180.1562092410201
 20
-1629.686192076019
 30
0.0
 11
3.379513944383461
 21
-1629.686192076019
 31
0.0
  0
LINE
  5
136
330
2
100
AcDbEntity
  8
HALFEN-KONSOLANKER
100
AcDbLine
 10
180.1562092410201
 20
-1625.68619207602
 30
0.0
 11
3.379513944383461
 21
-1625.68619207602
 31
0.0
  0
LINE
  5
137
330
2
100
AcDbEntity
  8
HALFEN-KONSOLANKER
100
AcDbLine
 10
3.379513944383461
 20
-1530.68619207602
 30
0.0
 11
208.3795139443834
 21
-1530.68619207602
 31
0.0
  0
LINE
  5
138
330
2
100
AcDbEntity
  8
HALFEN-KONSOLANKER
100
AcDbLine
 10
3.379513944383461
 20
-1520.68619207602
 30
0.0
 11
208.3795139443834
 21
-1520.68619207602
 31
0.0
  0
LINE
  5
139
330
2
100
AcDbEntity
  8
HALFEN-KONSOLANKER
100
AcDbLine
 10
3.379513944383461
 20
-1510.686192076019
 30
0.0
 11
208.3795139443834
 21
-1510.686192076019
 31
0.0
  0
TEXT
  5
13A
330
2
100
AcDbEntity
  8
HALFEN-KONSOLANKER
100
AcDbText
 10
8.379513944383461
 20
-1528.186192076019
 30
0.0
 40
5.0
  1
Id. Nr.
  7
ARIAL50
100
AcDbText
  0
TEXT
  5
13B
330
2
100
AcDbEntity
  8
HALFEN-KONSOLANKER
100
AcDbText
 10
8.379513944383461
 20
-1518.18619207602
 30
0.0
 40
5.0
  1
Benennung
  7
ARIAL50
100
AcDbText
  0
LINE
  5
13C
330
2
100
AcDbEntity
  8
HALFEN-KONSOLANKER
100
AcDbLine
 10
3.379513944383461
 20
-1625.68619207602
 30
0.0
 11
3.379513944383461
 21
-1629.686192076019
 31
0.0
  0
TEXT
  5
13D
330
2
100
AcDbEntity
  8
HALFEN-KONSOLANKER
100
AcDbText
 10
3.379513944383461
 20
-1508.18619207602
 30
0.0
 40
5.0
  1
A4
  7
ARIAL50
100
AcDbText
  0
LINE
  5
13E
330
2
100
AcDbEntity
  8
HALFEN-KONSOLANKER
100
AcDbLine
 10
3.379513944383461
 20
-1530.68619207602
 30
0.0
 11
3.379513944383461
 21
-1510.686192076019
 31
0.0
  0
TEXT
  5
13F
330
2
100
AcDbEntity
  8
HALFEN-KONSOLANKER
100
AcDbText
 10
58.37951394438346
 20
-1528.186192076019
 30
0.0
 40
5.0
  1
0102.050-00006
  7
ARIAL50
100
AcDbText
  0
LINE
  5
140
330
2
100
AcDbEntity
  8
HALFEN-KONSOLANKER
100
AcDbLine
 10
53.37951394438346
 20
-1530.68619207602
 30
0.0
 11
53.37951394438346
 21
-1510.686192076019
 31
0.0
  0
LINE
  5
141
330
2
100
AcDbEntity
  8
HALFEN-KONSOLANKER
100
AcDbLine
 10
69.26786159270182
 20
-1555.68619207602
 30
0.0
 11
69.26786159270182
 21
-1549.68619207602
 31
0.0
  0
LINE
  5
142
330
2
100
AcDbEntity
  8
HALFEN-KONSOLANKER
100
AcDbLine
 10
87.76786159270182
 20
-1625.68619207602
 30
0.0
 11
87.76786159270182
 21
-1555.68619207602
 31
0.0
  0
LINE
  5
143
330
2
100
AcDbEntity
  8
HALFEN-KONSOLANKER
100
AcDbLine
 10
95.76786159270183
 20
-1625.68619207602
 30
0.0
 11
95.76786159270183
 21
-1555.68619207602
 31
0.0
  0
LINE
  5
144
330
2
100
AcDbEntity
  8
HALFEN-KONSOLANKER
100
AcDbLine
 10
91.76786159270182
 20
-1625.68619207602
 30
0.0
 11
91.76786159270182
 21
-1629.686192076019
 31
0.0
  0
LINE
  5
145
330
2
100
AcDbEntity
  8
HALFEN-KONSOLANKER
100
AcDbLine
 10
245.1562092410202
 20
-1753.074539724338
 30
0.0
 11
200.1562092410202
 21
-1753.074539724338
 31
0.0
  0
LINE
  5
146
330
2
100
AcDbEntity
  8
HALFEN-KONSOLANKER
100
AcDbLine
 10
245.1562092410202
 20
-1723.074539724338
 30
0.0
 11
200.1562092410202
 21
-1723.074539724338
 31
0.0
  0
LINE
  5
147
330
2
100
AcDbEntity
  8
HALFEN-KONSOLANKER
100
AcDbLine
 10
200.1562092410202
 20
-1723.074539724338
 30
0.0
 11
200.1562092410202
 21
-1753.074539724338
 31
0.0
  0
LINE
  5
148
330
2
100
AcDbEntity
  8
HALFEN-KONSOLANKER
100
AcDbLine
 10
245.1562092410202
 20
-1723.074539724338
 30
0.0
 11
245.1562092410202
 21
-1753.074539724338
 31
0.0
  0
LINE
  5
149
330
2
100
AcDbEntity
  8
HALFEN-KONSOLANKER
100
AcDbLine
 10
114.2678615927018
 20
-1549.68619207602
 30
0.0
 11
114.2678615927018
 21
-1555.68619207602
 31
0.0
  0
LINE
  5
14A
330
2
100
AcDbEntity
  8
HALFEN-KONSOLANKER
100
AcDbLine
 10
180.1562092410201
 20
-1625.68619207602
 30
0.0
 11
180.1562092410201
 21
-1629.686192076019
 31
0.0
  0
LINE
  5
14B
330
2
100
AcDbEntity
  8
HALFEN-KONSOLANKER
100
AcDbLine
 10
200.1562092410202
 20
-1550.686192076019
 30
0.0
 11
245.1562092410202
 21
-1550.686192076019
 31
0.0
  0
LINE
  5
14C
330
2
100
AcDbEntity
  8
HALFEN-KONSOLANKER
100
AcDbLine
 10
200.1562092410202
 20
-1625.68619207602
 30
0.0
 11
200.1562092410202
 21
-1550.686192076019
 31
0.0
  0
LINE
  5
14D
330
2
100
AcDbEntity
  8
HALFEN-KONSOLANKER
100
AcDbLine
 10
208.3795139443834
 20
-1530.68619207602
 30
0.0
 11
208.3795139443834
 21
-1510.686192076019
 31
0.0
  0
LINE
  5
14E
330
2
100
AcDbEntity
  8
HALFEN-KONSOLANKER
100
AcDbLine
 10
245.1562092410202
 20
-1550.686192076019
 30
0.0
 11
245.1562092410202
 21
-1555.68619207602
 31
0.0
  0
LINE
  5
14F
330
2
100
AcDbEntity
  8
HALFEN-KONSOLANKER
100
AcDbLine
 10
813.6562092410203
 20
-1629.686192076019
 30
0.0
 11
636.8795139443835
 21
-1629.686192076019
 31
0.0
  0
LINE
  5
150
330
2
100
AcDbEntity
  8
HALFEN-KONSOLANKER
100
AcDbLine
 10
640.3795139443834
 20
-1741.574539724338
 30
0.0
 11
725.2678615927019
 21
-1826.462887372656
 31
0.0
  0
LINE
  5
151
330
2
100
AcDbEntity
  8
HALFEN-KONSOLANKER
100
AcDbLine
 10
725.2678615927019
 20
-1649.68619207602
 30
0.0
 11
640.3795139443836
 21
-1734.574539724338
 31
0.0
  0
LINE
  5
152
330
2
100
AcDbEntity
  8
HALFEN-KONSOLANKER
100
AcDbLine
 10
810.1562092410201
 20
-1741.574539724338
 30
0.0
 11
480.1562092410201
 21
-1741.574539724338
 31
0.0
  0
LINE
  5
153
330
2
100
AcDbEntity
  8
HALFEN-KONSOLANKER
100
AcDbLine
 10
810.1562092410203
 20
-1734.574539724338
 30
0.0
 11
480.1562092410201
 21
-1734.574539724338
 31
0.0
  0
LINE
  5
154
330
2
100
AcDbEntity
  8
HALFEN-KONSOLANKER
100
AcDbLine
 10
480.1562092410201
 20
-1549.68619207602
 30
0.0
 11
395.1562092410202
 21
-1549.68619207602
 31
0.0
  0
LINE
  5
155
330
2
100
AcDbEntity
  8
HALFEN-KONSOLANKER
100
AcDbLine
 10
480.1562092410201
 20
-1760.574539724338
 30
0.0
 11
395.1562092410202
 21
-1760.574539724338
 31
0.0
  0
LINE
  5
156
330
2
100
AcDbEntity
  8
HALFEN-KONSOLANKER
100
AcDbLine
 10
480.1562092410201
 20
-1715.574539724338
 30
0.0
 11
395.1562092410202
 21
-1715.574539724338
 31
0.0
  0
LINE
  5
157
330
2
100
AcDbEntity
  8
HALFEN-KONSOLANKER
100
AcDbLine
 10
395.1562092410202
 20
-1715.574539724338
 30
0.0
 11
395.1562092410202
 21
-1760.574539724338
 31
0.0
  0
LINE
  5
158
330
2
100
AcDbEntity
  8
HALFEN-KONSOLANKER
100
AcDbLine
 10
395.1562092410202
 20
-1549.68619207602
 30
0.0
 11
395.1562092410202
 21
-1555.68619207602
 31
0.0
  0
LINE
  5
159
330
2
100
AcDbEntity
  8
HALFEN-KONSOLANKER
100
AcDbLine
 10
480.1562092410201
 20
-1715.574539724338
 30
0.0
 11
480.1562092410201
 21
-1760.574539724338
 31
0.0
  0
LINE
  5
15A
330
2
100
AcDbEntity
  8
HALFEN-KONSOLANKER
100
AcDbLine
 10
480.1562092410201
 20
-1555.68619207602
 30
0.0
 11
480.1562092410201
 21
-1549.68619207602
 31
0.0
  0
LINE
  5
15B
330
2
100
AcDbEntity
  8
HALFEN-KONSOLANKER
100
AcDbLine
 10
636.8795139443835
 20
-1629.686192076019
 30
0.0
 11
636.8795139443835
 21
-1625.68619207602
 31
0.0
  0
LINE
  5
15C
330
2
100
AcDbEntity
  8
HALFEN-KONSOLANKER
100
AcDbLine
 10
813.6562092410203
 20
-1738.074539724338
 30
0.0
 11
725.2678615927019
 21
-1649.68619207602
 31
0.0
  0
LINE
  5
15D
330
2
100
AcDbEntity
  8
HALFEN-KONSOLANKER
100
AcDbLine
 10
725.2678615927019
 20
-1826.462887372656
 30
0.0
 11
813.6562092410203
 21
-1738.074539724338
 31
0.0
  0
LINE
  5
15E
330
2
100
AcDbEntity
  8
HALFEN-KONSOLANKER
100
AcDbLine
 10
810.1562092410203
 20
-1734.574539724338
 30
0.0
 11
810.1562092410201
 21
-1741.574539724338
 31
0.0
  0
LINE
  5
15F
330
2
100
AcDbEntity
  8
HALFEN-KONSOLANKER
100
AcDbLine
 10
725.2678615927019
 20
-1629.686192076019
 30
0.0
 11
725.2678615927019
 21
-1625.68619207602
 31
0.0
  0
LINE
  5
160
330
2
100
AcDbEntity
  8
HALFEN-KONSOLANKER
100
AcDbLine
 10
810.1562092410201
 20
-1555.68619207602
 30
0.0
 11
810.1562092410201
 21
-1625.68619207602
 31
0.0
  0
LINE
  5
161
330
2
100
AcDbEntity
  8
HALFEN-KONSOLANKER
100
AcDbLine
 10
813.6562092410203
 20
-1625.68619207602
 30
0.0
 11
813.6562092410203
 21
-1629.686192076019
 31
0.0
  0
LINE
  5
162
330
2
100
AcDbEntity
  8
HALFEN-KONSOLANKER
100
AcDbLine
 10
395.1562092410203
 20
-2105.351235020975
 30
0.0
 11
255.1562092410203
 21
-2105.351235020975
 31
0.0
  0
LINE
  5
163
330
2
100
AcDbEntity
  8
HALFEN-KONSOLANKER
100
AcDbLine
 10
395.1562092410203
 20
-2112.351235020975
 30
0.0
 11
255.1562092410203
 21
-2112.351235020975
 31
0.0
  0
LINE
  5
164
330
2
100
AcDbEntity
  8
HALFEN-KONSOLANKER
100
AcDbLine
 10
843.6562092410204
 20
-1996.462887372656
 30
0.0
 11
200.1562092410203
 21
-1996.462887372656
 31
0.0
  0
LINE
  5
165
330
2
100
AcDbEntity
  8
HALFEN-KONSOLANKER
100
AcDbLine
 10
200.1562092410203
 20
-1921.462887372656
 30
0.0
 11
840.1562092410202
 21
-1921.462887372656
 31
0.0
  0
LINE
  5
166
330
2
100
AcDbEntity
  8
HALFEN-KONSOLANKER
100
AcDbLine
 10
180.1562092410203
 20
-1996.462887372656
 30
0.0
 11
3.379513944383575
 21
-1996.462887372656
 31
0.0
  0
LINE
  5
167
330
2
100
AcDbEntity
  8
HALFEN-KONSOLANKER
100
AcDbLine
 10
180.1562092410203
 20
-2000.462887372657
 30
0.0
 11
3.379513944383575
 21
-2000.462887372657
 31
0.0
  0
TEXT
  5
168
330
2
100
AcDbEntity
  8
HALFEN-KONSOLANKER
100
AcDbText
 10
58.37951394438357
 20
-1883.962887372656
 30
0.0
 40
5.0
  1
Halfen Einmörtelkonsolen KM - E - 230
  7
ARIAL50
100
AcDbText
  0
LINE
  5
169
330
2
100
AcDbEntity
  8
HALFEN-KONSOLANKER
100
AcDbLine
 10
114.2678615927019
 20
-1913.462887372656
 30
0.0
 11
69.26786159270193
 21
-1913.462887372656
 31
0.0
  0
LINE
  5
16A
330
2
100
AcDbEntity
  8
HALFEN-KONSOLANKER
100
AcDbLine
 10
114.2678615927019
 20
-1921.462887372656
 30
0.0
 11
69.26786159270193
 21
-1921.462887372657
 31
0.0
  0
LINE
  5
16B
330
2
100
AcDbEntity
  8
HALFEN-KONSOLANKER
100
AcDbLine
 10
3.379513944383575
 20
-1896.462887372656
 30
0.0
 11
208.3795139443836
 21
-1896.462887372656
 31
0.0
  0
LINE
  5
16C
330
2
100
AcDbEntity
  8
HALFEN-KONSOLANKER
100
AcDbLine
 10
3.379513944383575
 20
-1886.462887372656
 30
0.0
 11
208.3795139443836
 21
-1886.462887372656
 31
0.0
  0
LINE
  5
16D
330
2
100
AcDbEntity
  8
HALFEN-KONSOLANKER
100
AcDbLine
 10
3.379513944383575
 20
-1876.462887372656
 30
0.0
 11
208.3795139443836
 21
-1876.462887372656
 31
0.0
  0
TEXT
  5
16E
330
2
100
AcDbEntity
  8
HALFEN-KONSOLANKER
100
AcDbText
 10
8.379513944383575
 20
-1893.962887372656
 30
0.0
 40
5.0
  1
Id. Nr.
  7
ARIAL50
100
AcDbText
  0
TEXT
  5
16F
330
2
100
AcDbEntity
  8
HALFEN-KONSOLANKER
100
AcDbText
 10
8.379513944383575
 20
-1883.962887372656
 30
0.0
 40
5.0
  1
Benennung
  7
ARIAL50
100
AcDbText
  0
LINE
  5
170
330
2
100
AcDbEntity
  8
HALFEN-KONSOLANKER
100
AcDbLine
 10
3.379513944383575
 20
-1996.462887372656
 30
0.0
 11
3.379513944383575
 21
-2000.462887372657
 31
0.0
  0
LINE
  5
171
330
2
100
AcDbEntity
  8
HALFEN-KONSOLANKER
100
AcDbLine
 10
3.379513944383575
 20
-1896.462887372656
 30
0.0
 11
3.379513944383575
 21
-1876.462887372656
 31
0.0
  0
TEXT
  5
172
330
2
100
AcDbEntity
  8
HALFEN-KONSOLANKER
100
AcDbText
 10
3.379513944383575
 20
-1873.962887372656
 30
0.0
 40
5.0
  1
A4
  7
ARIAL50
100
AcDbText
  0
LINE
  5
173
330
2
100
AcDbEntity
  8
HALFEN-KONSOLANKER
100
AcDbLine
 10
95.76786159270193
 20
-1996.462887372656
 30
0.0
 11
95.76786159270193
 21
-1921.462887372656
 31
0.0
  0
LINE
  5
174
330
2
100
AcDbEntity
  8
HALFEN-KONSOLANKER
100
AcDbLine
 10
87.76786159270193
 20
-1996.462887372656
 30
0.0
 11
87.76786159270193
 21
-1921.462887372656
 31
0.0
  0
LINE
  5
175
330
2
100
AcDbEntity
  8
HALFEN-KONSOLANKER
100
AcDbLine
 10
91.76786159270193
 20
-1996.462887372656
 30
0.0
 11
91.76786159270193
 21
-2000.462887372657
 31
0.0
  0
TEXT
  5
176
330
2
100
AcDbEntity
  8
HALFEN-KONSOLANKER
100
AcDbText
 10
58.37951394438357
 20
-1893.962887372656
 30
0.0
 40
5.0
  1
0102.050-00007
  7
ARIAL50
100
AcDbText
  0
LINE
  5
177
330
2
100
AcDbEntity
  8
HALFEN-KONSOLANKER
100
AcDbLine
 10
53.37951394438357
 20
-1896.462887372656
 30
0.0
 11
53.37951394438357
 21
-1876.462887372656
 31
0.0
  0
LINE
  5
178
330
2
100
AcDbEntity
  8
HALFEN-KONSOLANKER
100
AcDbLine
 10
69.26786159270193
 20
-1921.462887372657
 30
0.0
 11
69.26786159270193
 21
-1913.462887372656
 31
0.0
  0
LINE
  5
179
330
2
100
AcDbEntity
  8
HALFEN-KONSOLANKER
100
AcDbLine
 10
180.1562092410203
 20
-1996.462887372656
 30
0.0
 11
180.1562092410203
 21
-2000.462887372657
 31
0.0
  0
LINE
  5
17A
330
2
100
AcDbEntity
  8
HALFEN-KONSOLANKER
100
AcDbLine
 10
114.2678615927019
 20
-1913.462887372656
 30
0.0
 11
114.2678615927019
 21
-1921.462887372656
 31
0.0
  0
LINE
  5
17B
330
2
100
AcDbEntity
  8
HALFEN-KONSOLANKER
100
AcDbLine
 10
200.1562092410203
 20
-1996.462887372656
 30
0.0
 11
200.1562092410203
 21
-1916.462887372657
 31
0.0
  0
LINE
  5
17C
330
2
100
AcDbEntity
  8
HALFEN-KONSOLANKER
100
AcDbLine
 10
255.1562092410203
 20
-2123.851235020975
 30
0.0
 11
200.1562092410203
 21
-2123.851235020975
 31
0.0
  0
LINE
  5
17D
330
2
100
AcDbEntity
  8
HALFEN-KONSOLANKER
100
AcDbLine
 10
255.1562092410203
 20
-2093.851235020975
 30
0.0
 11
200.1562092410203
 21
-2093.851235020975
 31
0.0
  0
LINE
  5
17E
330
2
100
AcDbEntity
  8
HALFEN-KONSOLANKER
100
AcDbLine
 10
200.1562092410203
 20
-2093.851235020975
 30
0.0
 11
200.1562092410203
 21
-2123.851235020975
 31
0.0
  0
LINE
  5
17F
330
2
100
AcDbEntity
  8
HALFEN-KONSOLANKER
100
AcDbLine
 10
255.1562092410203
 20
-2093.851235020975
 30
0.0
 11
255.1562092410203
 21
-2123.851235020975
 31
0.0
  0
LINE
  5
180
330
2
100
AcDbEntity
  8
HALFEN-KONSOLANKER
100
AcDbLine
 10
200.1562092410203
 20
-1916.462887372657
 30
0.0
 11
255.1562092410203
 21
-1916.462887372657
 31
0.0
  0
LINE
  5
181
330
2
100
AcDbEntity
  8
HALFEN-KONSOLANKER
100
AcDbLine
 10
208.3795139443836
 20
-1896.462887372656
 30
0.0
 11
208.3795139443836
 21
-1876.462887372656
 31
0.0
  0
LINE
  5
182
330
2
100
AcDbEntity
  8
HALFEN-KONSOLANKER
100
AcDbLine
 10
255.1562092410203
 20
-1916.462887372657
 30
0.0
 11
255.1562092410203
 21
-1921.462887372656
 31
0.0
  0
LINE
  5
183
330
2
100
AcDbEntity
  8
HALFEN-KONSOLANKER
100
AcDbLine
 10
840.1562092410202
 20
-2112.351235020975
 30
0.0
 11
480.1562092410202
 21
-2112.351235020975
 31
0.0
  0
LINE
  5
184
330
2
100
AcDbEntity
  8
HALFEN-KONSOLANKER
100
AcDbLine
 10
840.1562092410204
 20
-2105.351235020975
 30
0.0
 11
480.1562092410202
 21
-2105.351235020975
 31
0.0
  0
LINE
  5
185
330
2
100
AcDbEntity
  8
HALFEN-KONSOLANKER
100
AcDbLine
 10
480.1562092410202
 20
-2086.351235020975
 30
0.0
 11
395.1562092410203
 21
-2086.351235020975
 31
0.0
  0
LINE
  5
186
330
2
100
AcDbEntity
  8
HALFEN-KONSOLANKER
100
AcDbLine
 10
480.1562092410202
 20
-2131.351235020975
 30
0.0
 11
395.1562092410203
 21
-2131.351235020975
 31
0.0
  0
LINE
  5
187
330
2
100
AcDbEntity
  8
HALFEN-KONSOLANKER
100
AcDbLine
 10
480.1562092410202
 20
-1913.462887372656
 30
0.0
 11
395.1562092410203
 21
-1913.462887372656
 31
0.0
  0
LINE
  5
188
330
2
100
AcDbEntity
  8
HALFEN-KONSOLANKER
100
AcDbLine
 10
395.1562092410203
 20
-2086.351235020975
 30
0.0
 11
395.1562092410203
 21
-2131.351235020975
 31
0.0
  0
LINE
  5
189
330
2
100
AcDbEntity
  8
HALFEN-KONSOLANKER
100
AcDbLine
 10
395.1562092410203
 20
-1913.462887372656
 30
0.0
 11
395.1562092410203
 21
-1921.462887372656
 31
0.0
  0
LINE
  5
18A
330
2
100
AcDbEntity
  8
HALFEN-KONSOLANKER
100
AcDbLine
 10
480.1562092410202
 20
-2086.351235020975
 30
0.0
 11
480.1562092410202
 21
-2131.351235020975
 31
0.0
  0
LINE
  5
18B
330
2
100
AcDbEntity
  8
HALFEN-KONSOLANKER
100
AcDbLine
 10
480.1562092410202
 20
-1921.462887372656
 30
0.0
 11
480.1562092410202
 21
-1913.462887372656
 31
0.0
  0
LINE
  5
18C
330
2
100
AcDbEntity
  8
HALFEN-KONSOLANKER
100
AcDbLine
 10
843.6562092410204
 20
-2000.462887372657
 30
0.0
 11
666.8795139443837
 21
-2000.462887372657
 31
0.0
  0
LINE
  5
18D
330
2
100
AcDbEntity
  8
HALFEN-KONSOLANKER
100
AcDbLine
 10
843.6562092410204
 20
-2108.851235020975
 30
0.0
 11
755.267861592702
 21
-2020.462887372657
 31
0.0
  0
LINE
  5
18E
330
2
100
AcDbEntity
  8
HALFEN-KONSOLANKER
100
AcDbLine
 10
755.267861592702
 20
-2197.239582669293
 30
0.0
 11
843.6562092410204
 21
-2108.851235020975
 31
0.0
  0
LINE
  5
18F
330
2
100
AcDbEntity
  8
HALFEN-KONSOLANKER
100
AcDbLine
 10
670.3795139443835
 20
-2112.351235020974
 30
0.0
 11
755.267861592702
 21
-2197.239582669293
 31
0.0
  0
LINE
  5
190
330
2
100
AcDbEntity
  8
HALFEN-KONSOLANKER
100
AcDbLine
 10
755.267861592702
 20
-2020.462887372657
 30
0.0
 11
670.3795139443838
 21
-2105.351235020975
 31
0.0
  0
LINE
  5
191
330
2
100
AcDbEntity
  8
HALFEN-KONSOLANKER
100
AcDbLine
 10
666.8795139443837
 20
-2000.462887372657
 30
0.0
 11
666.8795139443837
 21
-1996.462887372656
 31
0.0
  0
LINE
  5
192
330
2
100
AcDbEntity
  8
HALFEN-KONSOLANKER
100
AcDbLine
 10
755.267861592702
 20
-2000.462887372657
 30
0.0
 11
755.267861592702
 21
-1996.462887372656
 31
0.0
  0
LINE
  5
193
330
2
100
AcDbEntity
  8
HALFEN-KONSOLANKER
100
AcDbLine
 10
840.1562092410202
 20
-1921.462887372656
 30
0.0
 11
840.1562092410202
 21
-1996.462887372656
 31
0.0
  0
LINE
  5
194
330
2
100
AcDbEntity
  8
HALFEN-KONSOLANKER
100
AcDbLine
 10
840.1562092410204
 20
-2105.351235020975
 30
0.0
 11
840.1562092410202
 21
-2112.351235020975
 31
0.0
  0
LINE
  5
195
330
2
100
AcDbEntity
  8
HALFEN-KONSOLANKER
100
AcDbLine
 10
843.6562092410204
 20
-1996.462887372656
 30
0.0
 11
843.6562092410204
 21
-2000.462887372657
 31
0.0
  0
LINE
  5
196
330
2
100
AcDbEntity
  8
HALFEN-KONSOLANKER
100
AcDbLine
 10
395.1562092410204
 20
-2481.127930317612
 30
0.0
 11
260.1562092410204
 21
-2481.127930317612
 31
0.0
  0
LINE
  5
197
330
2
100
AcDbEntity
  8
HALFEN-KONSOLANKER
100
AcDbLine
 10
395.1562092410204
 20
-2488.127930317612
 30
0.0
 11
260.1562092410204
 21
-2488.127930317612
 31
0.0
  0
LINE
  5
198
330
2
100
AcDbEntity
  8
HALFEN-KONSOLANKER
100
AcDbLine
 10
873.6562092410204
 20
-2372.239582669293
 30
0.0
 11
200.1562092410204
 21
-2372.239582669293
 31
0.0
  0
LINE
  5
199
330
2
100
AcDbEntity
  8
HALFEN-KONSOLANKER
100
AcDbLine
 10
200.1562092410204
 20
-2292.239582669293
 30
0.0
 11
870.1562092410204
 21
-2292.239582669293
 31
0.0
  0
LINE
  5
19A
330
2
100
AcDbEntity
  8
HALFEN-KONSOLANKER
100
AcDbLine
 10
3.379513944383688
 20
-2267.239582669293
 30
0.0
 11
3.379513944383688
 21
-2247.239582669293
 31
0.0
  0
LINE
  5
19B
330
2
100
AcDbEntity
  8
HALFEN-KONSOLANKER
100
AcDbLine
 10
53.37951394438369
 20
-2267.239582669293
 30
0.0
 11
53.37951394438369
 21
-2247.239582669293
 31
0.0
  0
LINE
  5
19C
330
2
100
AcDbEntity
  8
HALFEN-KONSOLANKER
100
AcDbLine
 10
208.3795139443837
 20
-2267.239582669293
 30
0.0
 11
208.3795139443837
 21
-2247.239582669293
 31
0.0
  0
LINE
  5
19D
330
2
100
AcDbEntity
  8
HALFEN-KONSOLANKER
100
AcDbLine
 10
114.267861592702
 20
-2284.239582669293
 30
0.0
 11
69.26786159270204
 21
-2284.239582669294
 31
0.0
  0
LINE
  5
19E
330
2
100
AcDbEntity
  8
HALFEN-KONSOLANKER
100
AcDbLine
 10
180.1562092410204
 20
-2376.239582669294
 30
0.0
 11
3.379513944383688
 21
-2376.239582669294
 31
0.0
  0
LINE
  5
19F
330
2
100
AcDbEntity
  8
HALFEN-KONSOLANKER
100
AcDbLine
 10
180.1562092410204
 20
-2372.239582669293
 30
0.0
 11
3.379513944383688
 21
-2372.239582669293
 31
0.0
  0
LINE
  5
1A0
330
2
100
AcDbEntity
  8
HALFEN-KONSOLANKER
100
AcDbLine
 10
114.267861592702
 20
-2292.239582669293
 30
0.0
 11
69.26786159270204
 21
-2292.239582669294
 31
0.0
  0
LINE
  5
1A1
330
2
100
AcDbEntity
  8
HALFEN-KONSOLANKER
100
AcDbLine
 10
3.379513944383688
 20
-2267.239582669293
 30
0.0
 11
208.3795139443837
 21
-2267.239582669293
 31
0.0
  0
TEXT
  5
1A2
330
2
100
AcDbEntity
  8
HALFEN-KONSOLANKER
100
AcDbText
 10
8.379513944383688
 20
-2264.739582669293
 30
0.0
 40
5.0
  1
Id. Nr.
  7
ARIAL50
100
AcDbText
  0
LINE
  5
1A3
330
2
100
AcDbEntity
  8
HALFEN-KONSOLANKER
100
AcDbLine
 10
3.379513944383688
 20
-2372.239582669293
 30
0.0
 11
3.379513944383688
 21
-2376.239582669294
 31
0.0
  0
TEXT
  5
1A4
330
2
100
AcDbEntity
  8
HALFEN-KONSOLANKER
100
AcDbText
 10
58.37951394438369
 20
-2264.739582669293
 30
0.0
 40
5.0
  1
0102.050-00008
  7
ARIAL50
100
AcDbText
  0
LINE
  5
1A5
330
2
100
AcDbEntity
  8
HALFEN-KONSOLANKER
100
AcDbLine
 10
69.26786159270204
 20
-2292.239582669294
 30
0.0
 11
69.26786159270204
 21
-2284.239582669294
 31
0.0
  0
LINE
  5
1A6
330
2
100
AcDbEntity
  8
HALFEN-KONSOLANKER
100
AcDbLine
 10
87.76786159270205
 20
-2372.239582669293
 30
0.0
 11
87.76786159270205
 21
-2292.239582669293
 31
0.0
  0
LINE
  5
1A7
330
2
100
AcDbEntity
  8
HALFEN-KONSOLANKER
100
AcDbLine
 10
95.76786159270204
 20
-2372.239582669293
 30
0.0
 11
95.76786159270204
 21
-2292.239582669293
 31
0.0
  0
LINE
  5
1A8
330
2
100
AcDbEntity
  8
HALFEN-KONSOLANKER
100
AcDbLine
 10
91.76786159270205
 20
-2372.239582669293
 30
0.0
 11
91.76786159270205
 21
-2376.239582669294
 31
0.0
  0
LINE
  5
1A9
330
2
100
AcDbEntity
  8
HALFEN-KONSOLANKER
100
AcDbLine
 10
114.267861592702
 20
-2284.239582669293
 30
0.0
 11
114.267861592702
 21
-2292.239582669293
 31
0.0
  0
LINE
  5
1AA
330
2
100
AcDbEntity
  8
HALFEN-KONSOLANKER
100
AcDbLine
 10
180.1562092410204
 20
-2372.239582669293
 30
0.0
 11
180.1562092410204
 21
-2376.239582669294
 31
0.0
  0
LINE
  5
1AB
330
2
100
AcDbEntity
  8
HALFEN-KONSOLANKER
100
AcDbLine
 10
200.1562092410204
 20
-2287.239582669293
 30
0.0
 11
260.1562092410204
 21
-2287.239582669293
 31
0.0
  0
LINE
  5
1AC
330
2
100
AcDbEntity
  8
HALFEN-KONSOLANKER
100
AcDbLine
 10
260.1562092410204
 20
-2499.627930317612
 30
0.0
 11
200.1562092410204
 21
-2499.627930317612
 31
0.0
  0
LINE
  5
1AD
330
2
100
AcDbEntity
  8
HALFEN-KONSOLANKER
100
AcDbLine
 10
260.1562092410204
 20
-2469.627930317612
 30
0.0
 11
200.1562092410204
 21
-2469.627930317612
 31
0.0
  0
LINE
  5
1AE
330
2
100
AcDbEntity
  8
HALFEN-KONSOLANKER
100
AcDbLine
 10
200.1562092410204
 20
-2469.627930317612
 30
0.0
 11
200.1562092410204
 21
-2499.627930317612
 31
0.0
  0
LINE
  5
1AF
330
2
100
AcDbEntity
  8
HALFEN-KONSOLANKER
100
AcDbLine
 10
200.1562092410204
 20
-2372.239582669293
 30
0.0
 11
200.1562092410204
 21
-2287.239582669293
 31
0.0
  0
LINE
  5
1B0
330
2
100
AcDbEntity
  8
HALFEN-KONSOLANKER
100
AcDbLine
 10
260.1562092410204
 20
-2469.627930317612
 30
0.0
 11
260.1562092410204
 21
-2499.627930317612
 31
0.0
  0
LINE
  5
1B1
330
2
100
AcDbEntity
  8
HALFEN-KONSOLANKER
100
AcDbLine
 10
260.1562092410204
 20
-2287.239582669293
 30
0.0
 11
260.1562092410204
 21
-2292.239582669293
 31
0.0
  0
TEXT
  5
1B2
330
2
100
AcDbEntity
  8
HALFEN-KONSOLANKER
100
AcDbText
 10
58.37951394438369
 20
-2254.739582669293
 30
0.0
 40
5.0
  1
Halfen Einmörtelkonsolen KM - E - 250
  7
ARIAL50
100
AcDbText
  0
LINE
  5
1B3
330
2
100
AcDbEntity
  8
HALFEN-KONSOLANKER
100
AcDbLine
 10
3.379513944383688
 20
-2257.239582669293
 30
0.0
 11
208.3795139443837
 21
-2257.239582669293
 31
0.0
  0
LINE
  5
1B4
330
2
100
AcDbEntity
  8
HALFEN-KONSOLANKER
100
AcDbLine
 10
3.379513944383688
 20
-2247.239582669293
 30
0.0
 11
208.3795139443837
 21
-2247.239582669293
 31
0.0
  0
TEXT
  5
1B5
330
2
100
AcDbEntity
  8
HALFEN-KONSOLANKER
100
AcDbText
 10
8.379513944383688
 20
-2254.739582669293
 30
0.0
 40
5.0
  1
Benennung
  7
ARIAL50
100
AcDbText
  0
TEXT
  5
1B6
330
2
100
AcDbEntity
  8
HALFEN-KONSOLANKER
100
AcDbText
 10
3.379513944383688
 20
-2244.739582669293
 30
0.0
 40
5.0
  1
A4
  7
ARIAL50
100
AcDbText
  0
LINE
  5
1B7
330
2
100
AcDbEntity
  8
HALFEN-KONSOLANKER
100
AcDbLine
 10
870.1562092410203
 20
-2488.127930317612
 30
0.0
 11
480.1562092410204
 21
-2488.127930317612
 31
0.0
  0
LINE
  5
1B8
330
2
100
AcDbEntity
  8
HALFEN-KONSOLANKER
100
AcDbLine
 10
870.1562092410204
 20
-2481.127930317612
 30
0.0
 11
480.1562092410204
 21
-2481.127930317612
 31
0.0
  0
LINE
  5
1B9
330
2
100
AcDbEntity
  8
HALFEN-KONSOLANKER
100
AcDbLine
 10
480.1562092410204
 20
-2284.239582669293
 30
0.0
 11
395.1562092410204
 21
-2284.239582669293
 31
0.0
  0
LINE
  5
1BA
330
2
100
AcDbEntity
  8
HALFEN-KONSOLANKER
100
AcDbLine
 10
480.1562092410204
 20
-2507.127930317612
 30
0.0
 11
395.1562092410204
 21
-2507.127930317612
 31
0.0
  0
LINE
  5
1BB
330
2
100
AcDbEntity
  8
HALFEN-KONSOLANKER
100
AcDbLine
 10
480.1562092410204
 20
-2462.127930317612
 30
0.0
 11
395.1562092410204
 21
-2462.127930317612
 31
0.0
  0
LINE
  5
1BC
330
2
100
AcDbEntity
  8
HALFEN-KONSOLANKER
100
AcDbLine
 10
395.1562092410204
 20
-2462.127930317612
 30
0.0
 11
395.1562092410204
 21
-2507.127930317612
 31
0.0
  0
LINE
  5
1BD
330
2
100
AcDbEntity
  8
HALFEN-KONSOLANKER
100
AcDbLine
 10
395.1562092410204
 20
-2284.239582669293
 30
0.0
 11
395.1562092410204
 21
-2292.239582669293
 31
0.0
  0
LINE
  5
1BE
330
2
100
AcDbEntity
  8
HALFEN-KONSOLANKER
100
AcDbLine
 10
480.1562092410204
 20
-2462.127930317612
 30
0.0
 11
480.1562092410204
 21
-2507.127930317612
 31
0.0
  0
LINE
  5
1BF
330
2
100
AcDbEntity
  8
HALFEN-KONSOLANKER
100
AcDbLine
 10
480.1562092410204
 20
-2292.239582669293
 30
0.0
 11
480.1562092410204
 21
-2284.239582669293
 31
0.0
  0
LINE
  5
1C0
330
2
100
AcDbEntity
  8
HALFEN-KONSOLANKER
100
AcDbLine
 10
873.6562092410204
 20
-2376.239582669294
 30
0.0
 11
696.8795139443837
 21
-2376.239582669294
 31
0.0
  0
LINE
  5
1C1
330
2
100
AcDbEntity
  8
HALFEN-KONSOLANKER
100
AcDbLine
 10
873.6562092410204
 20
-2484.627930317612
 30
0.0
 11
785.2678615927021
 21
-2396.239582669293
 31
0.0
  0
LINE
  5
1C2
330
2
100
AcDbEntity
  8
HALFEN-KONSOLANKER
100
AcDbLine
 10
785.2678615927021
 20
-2573.01627796593
 30
0.0
 11
873.6562092410204
 21
-2484.627930317612
 31
0.0
  0
LINE
  5
1C3
330
2
100
AcDbEntity
  8
HALFEN-KONSOLANKER
100
AcDbLine
 10
700.3795139443837
 20
-2488.127930317611
 30
0.0
 11
785.2678615927021
 21
-2573.01627796593
 31
0.0
  0
LINE
  5
1C4
330
2
100
AcDbEntity
  8
HALFEN-KONSOLANKER
100
AcDbLine
 10
785.2678615927021
 20
-2396.239582669293
 30
0.0
 11
700.3795139443838
 21
-2481.127930317612
 31
0.0
  0
LINE
  5
1C5
330
2
100
AcDbEntity
  8
HALFEN-KONSOLANKER
100
AcDbLine
 10
696.8795139443837
 20
-2376.239582669294
 30
0.0
 11
696.8795139443837
 21
-2372.239582669293
 31
0.0
  0
LINE
  5
1C6
330
2
100
AcDbEntity
  8
HALFEN-KONSOLANKER
100
AcDbLine
 10
785.2678615927021
 20
-2376.239582669294
 30
0.0
 11
785.2678615927021
 21
-2372.239582669293
 31
0.0
  0
LINE
  5
1C7
330
2
100
AcDbEntity
  8
HALFEN-KONSOLANKER
100
AcDbLine
 10
870.1562092410204
 20
-2481.127930317612
 30
0.0
 11
870.1562092410203
 21
-2488.127930317612
 31
0.0
  0
LINE
  5
1C8
330
2
100
AcDbEntity
  8
HALFEN-KONSOLANKER
100
AcDbLine
 10
870.1562092410204
 20
-2292.239582669293
 30
0.0
 11
870.1562092410204
 21
-2372.239582669293
 31
0.0
  0
LINE
  5
1C9
330
2
100
AcDbEntity
  8
HALFEN-KONSOLANKER
100
AcDbLine
 10
873.6562092410204
 20
-2372.239582669293
 30
0.0
 11
873.6562092410204
 21
-2376.239582669294
 31
0.0
  0
ENDSEC
  0
SECTION
  2
OBJECTS
  0
DICTIONARY
  5
7
330
0
100
AcDbDictionary
281
     1
  3
ACAD_COLOR
350
23
  3
ACAD_GROUP
350
1F
  3
ACAD_LAYOUT
350
B
  3
ACAD_MATERIAL
350
22
  3
ACAD_MLINESTYLE
350
20
  3
ACAD_PLOTSETTINGS
350
21
  3
ACAD_PLOTSTYLENAME
350
6
  3
ACAD_TABLESTYLE
350
24
  3
AcDbVariableDictionary
350
1CF
  3
ASE_INDEX_DICTIONARY
350
1CC
  0
DICTIONARY
  5
23
102
{ACAD_REACTORS
330
7
102
}
330
7
100
AcDbDictionary
281
     1
  0
DICTIONARY
  5
1F
102
{ACAD_REACTORS
330
7
102
}
330
7
100
AcDbDictionary
281
     1
  0
DICTIONARY
  5
B
102
{ACAD_REACTORS
330
7
102
}
330
7
100
AcDbDictionary
281
     1
  3
Layout1
350
F
  3
Model
350
A
  0
DICTIONARY
  5
22
102
{ACAD_REACTORS
330
7
102
}
330
7
100
AcDbDictionary
281
     1
  0
DICTIONARY
  5
20
102
{ACAD_REACTORS
330
7
102
}
330
7
100
AcDbDictionary
281
     1
  3
STANDARD
350
26
  0
DICTIONARY
  5
21
102
{ACAD_REACTORS
330
7
102
}
330
7
100
AcDbDictionary
281
     1
  0
ACDBDICTIONARYWDFLT
  5
6
102
{ACAD_REACTORS
330
7
102
}
330
7
100
AcDbDictionary
281
     1
  3
Normal
350
5
100
AcDbDictionaryWithDefault
340
5
  0
DICTIONARY
  5
24
102
{ACAD_REACTORS
330
7
102
}
330
7
100
AcDbDictionary
281
     1
  3
Standard
350
27
  0
DICTIONARY
  5
1CF
102
{ACAD_REACTORS
330
7
102
}
330
7
100
AcDbDictionary
281
     1
  3
CTABLESTYLE
350
1D0
  3
DIMASSOC
350
1DE
  3
HIDETEXT
350
1DD
  3
PROJECTNAME
350
1DF
  0
DICTIONARY
  5
1CC
102
{ACAD_REACTORS
330
7
102
}
330
7
100
AcDbDictionary
281
     1
  3
ASEBlockHierarchyIndexRecord
350
1CE
1001
DCO15
1040
1565417149.828
  0
LAYOUT
  5
F
102
{ACAD_REACTORS
330
B
102
}
330
B
100
AcDbPlotSettings
  1

  2
\\DLANT038\DLAKBHL013
  4

  6

 40
0.0
 41
0.0
 42
0.0
 43
0.0
 44
0.0
 45
0.0
 46
0.0
 47
0.0
 48
0.0
 49
0.0
140
0.0
141
0.0
142
1.0
143
1.0
 70
   688
 72
     0
 73
     0
 74
     5
  7

 75
    16
147
1.0
 76
     0
 77
     2
 78
   300
148
0.0
149
0.0
100
AcDbLayout
  1
Layout1
 70
     1
 71
     1
 10
0.0
 20
0.0
 11
12.0
 21
9.0
 12
0.0
 22
0.0
 32
0.0
 14
1.000000000000000E+20
 24
1.000000000000000E+20
 34
1.000000000000000E+20
 15
-1.000000000000000E+20
 25
-1.000000000000000E+20
 35
-1.000000000000000E+20
146
0.0
 13
0.0
 23
0.0
 33
0.0
 16
1.0
 26
0.0
 36
0.0
 17
0.0
 27
1.0
 37
0.0
 76
     0
330
C
  0
LAYOUT
  5
A
102
{ACAD_REACTORS
330
B
102
}
330
B
100
AcDbPlotSettings
  1

  2
\\DLANT038\DLAKBHL013
  4

  6

 40
0.0
 41
0.0
 42
0.0
 43
0.0
 44
0.0
 45
0.0
 46
0.0
 47
0.0
 48
0.0
 49
0.0
140
0.0
141
0.0
142
1.0
143
1.0
 70
  1712
 72
     0
 73
     0
 74
     0
  7

 75
     0
147
1.0
 76
     0
 77
     2
 78
   300
148
0.0
149
0.0
100
AcDbLayout
  1
Model
 70
     1
 71
     0
 10
0.0
 20
0.0
 11
12.0
 21
9.0
 12
0.0
 22
0.0
 32
0.0
 14
0.0
 24
0.0
 34
0.0
 15
0.0
 25
0.0
 35
0.0
146
0.0
 13
0.0
 23
0.0
 33
0.0
 16
1.0
 26
0.0
 36
0.0
 17
0.0
 27
1.0
 37
0.0
 76
     0
330
2
  0
MLINESTYLE
  5
26
102
{ACAD_REACTORS
330
20
102
}
330
20
100
AcDbMlineStyle
  2
STANDARD
 70
     0
  3

 62
   256
 51
90.0
 52
90.0
 71
     2
 49
0.5
 62
   256
  6
BYLAYER
 49
-0.5
 62
   256
  6
BYLAYER
  0
ACDBPLACEHOLDER
  5
5
102
{ACAD_REACTORS
330
6
102
}
330
6
  0
TABLESTYLE
  5
27
102
{ACAD_REACTORS
330
24
102
}
330
24
100
AcDbTableStyle
  3
Standard
 70
     0
 71
     0
 40
1.5
 41
1.5
280
     0
281
     0
  7
STANDARD
140
4.5
170
     2
 62
     0
 63
     7
283
     0
274
    -2
284
     1
 64
     0
275
    -2
285
     1
 65
     0
276
    -2
286
     1
 66
     0
277
    -2
287
     1
 67
     0
278
    -2
288
     1
 68
     0
279
    -2
289
     1
 69
     0
  7
STANDARD
140
6.0
170
     5
 62
     0
 63
     7
283
     0
274
    -2
284
     1
 64
     0
275
    -2
285
     1
 65
     0
276
    -2
286
     1
 66
     0
277
    -2
287
     1
 67
     0
278
    -2
288
     1
 68
     0
279
    -2
289
     1
 69
     0
  7
STANDARD
140
4.5
170
     5
 62
     0
 63
     7
283
     0
274
    -2
284
     1
 64
     0
275
    -2
285
     1
 65
     0
276
    -2
286
     1
 66
     0
277
    -2
287
     1
 67
     0
278
    -2
288
     1
 68
     0
279
    -2
289
     1
 69
     0
  0
DICTIONARYVAR
  5
1D0
102
{ACAD_REACTORS
330
1CF
102
}
330
1CF
100
DictionaryVariables
280
     0
  1
STANDARD
  0
DICTIONARYVAR
  5
1DE
102
{ACAD_REACTORS
330
1CF
102
}
330
1CF
100
DictionaryVariables
280
     0
  1
1
  0
DICTIONARYVAR
  5
1DD
102
{ACAD_REACTORS
330
1CF
102
}
330
1CF
100
DictionaryVariables
280
     0
  1
1
  0
DICTIONARYVAR
  5
1DF
102
{ACAD_REACTORS
330
1CF
102
}
330
1CF
100
DictionaryVariables
280
     0
  1

  0
XRECORD
  5
1CE
102
{ACAD_REACTORS
330
1CC
102
}
330
1CC
100
AcDbXrecord
280
     1
  0
ENDSEC
  0
EOF
