  0
SECTION
  2
HEADER
  9
$ACADVER
  1
AC1032
  9
$ACADMAINTVER
 90
4
  9
$DWGCODEPAGE
  3
ANSI_1252
  9
$LASTSAVEDBY
  1
ezdxf
  9
$REQUIREDVERSIONS
160
0
  9
$INSBASE
 10
0.0
 20
0.0
 30
0.0
  9
$EXTMIN
 10
1e+20
 20
1e+20
 30
1e+20
  9
$EXTMAX
 10
-1e+20
 20
-1e+20
 30
-1e+20
  9
$LIMMIN
 10
0.0
 20
0.0
  9
$LIMMAX
 10
420.0
 20
297.0
  9
$ORTHOMODE
 70
0
  9
$REGENMODE
 70
1
  9
$FILLMODE
 70
1
  9
$QTEXTMODE
 70
0
  9
$MIRRTEXT
 70
1
  9
$LTSCALE
 40
1.0
  9
$ATTMODE
 70
1
  9
$TEXTSIZE
 40
2.5
  9
$TRACEWID
 40
1.0
  9
$TEXTSTYLE
  7
Standard
  9
$CLAYER
  8
0
  9
$CELTYPE
  6
ByLayer
  9
$CECOLOR
 62
256
  9
$CELTSCALE
 40
1.0
  9
$DISPSILH
 70
0
  9
$DIMSCALE
 40
1.0
  9
$DIMASZ
 40
2.5
  9
$DIMEXO
 40
0.625
  9
$DIMDLI
 40
3.75
  9
$DIMRND
 40
0.0
  9
$DIMDLE
 40
0.0
  9
$DIMEXE
 40
1.25
  9
$DIMTP
 40
0.0
  9
$DIMTM
 40
0.0
  9
$DIMTXT
 40
2.5
  9
$DIMCEN
 40
2.5
  9
$DIMTSZ
 40
0.0
  9
$DIMTOL
 70
0
  9
$DIMLIM
 70
0
  9
$DIMTIH
 70
0
  9
$DIMTOH
 70
0
  9
$DIMSE1
 70
0
  9
$DIMSE2
 70
0
  9
$DIMTAD
 70
1
  9
$DIMZIN
 70
8
  9
$DIMBLK
  1

  9
$DIMASO
 70
1
  9
$DIMSHO
 70
1
  9
$DIMPOST
  1

  9
$DIMAPOST
  1

  9
$DIMALT
 70
0
  9
$DIMALTD
 70
3
  9
$DIMALTF
 40
0.03937007874
  9
$DIMLFAC
 40
1.0
  9
$DIMTOFL
 70
1
  9
$DIMTVP
 40
0.0
  9
$DIMTIX
 70
0
  9
$DIMSOXD
 70
0
  9
$DIMSAH
 70
0
  9
$DIMBLK1
  1

  9
$DIMBLK2
  1

  9
$DIMSTYLE
  2
ISO-25
  9
$DIMCLRD
 70
0
  9
$DIMCLRE
 70
0
  9
$DIMCLRT
 70
0
  9
$DIMTFAC
 40
1.0
  9
$DIMGAP
 40
0.625
  9
$DIMJUST
 70
0
  9
$DIMSD1
 70
0
  9
$DIMSD2
 70
0
  9
$DIMTOLJ
 70
0
  9
$DIMTZIN
 70
8
  9
$DIMALTZ
 70
0
  9
$DIMALTTZ
 70
0
  9
$DIMUPT
 70
0
  9
$DIMDEC
 70
2
  9
$DIMTDEC
 70
2
  9
$DIMALTU
 70
2
  9
$DIMALTTD
 70
3
  9
$DIMTXSTY
  7
Standard
  9
$DIMAUNIT
 70
0
  9
$DIMADEC
 70
0
  9
$DIMALTRND
 40
0.0
  9
$DIMAZIN
 70
0
  9
$DIMDSEP
 70
44
  9
$DIMATFIT
 70
3
  9
$DIMFRAC
 70
0
  9
$DIMLDRBLK
  1

  9
$DIMLUNIT
 70
2
  9
$DIMLWD
 70
-2
  9
$DIMLWE
 70
-2
  9
$DIMTMOVE
 70
0
  9
$DIMFXL
 40
1.0
  9
$DIMFXLON
 70
0
  9
$DIMJOGANG
 40
0.785398163397
  9
$DIMTFILL
 70
0
  9
$DIMTFILLCLR
 70
0
  9
$DIMARCSYM
 70
0
  9
$DIMLTYPE
  6

  9
$DIMLTEX1
  6

  9
$DIMLTEX2
  6

  9
$DIMTXTDIRECTION
 70
0
  9
$LUNITS
 70
2
  9
$LUPREC
 70
4
  9
$SKETCHINC
 40
1.0
  9
$FILLETRAD
 40
10.0
  9
$AUNITS
 70
0
  9
$AUPREC
 70
2
  9
$MENU
  1
.
  9
$ELEVATION
 40
0.0
  9
$PELEVATION
 40
0.0
  9
$THICKNESS
 40
0.0
  9
$LIMCHECK
 70
0
  9
$CHAMFERA
 40
0.0
  9
$CHAMFERB
 40
0.0
  9
$CHAMFERC
 40
0.0
  9
$CHAMFERD
 40
0.0
  9
$SKPOLY
 70
0
  9
$TDCREATE
 40
2461085.246006944
  9
$TDUCREATE
 40
2458532.153996898
  9
$TDUPDATE
 40
2461085.246006944
  9
$TDUUPDATE
 40
2458532.1544311
  9
$TDINDWG
 40
0.0
  9
$TDUSRTIMER
 40
0.0
  9
$USRTIMER
 70
1
  9
$ANGBASE
 50
0.0
  9
$ANGDIR
 70
0
  9
$PDMODE
 70
0
  9
$PDSIZE
 40
0.0
  9
$PLINEWID
 40
0.0
  9
$SPLFRAME
 70
0
  9
$SPLINETYPE
 70
6
  9
$SPLINESEGS
 70
8
  9
$HANDSEED
  5
3D
  9
$SURFTAB1
 70
6
  9
$SURFTAB2
 70
6
  9
$SURFTYPE
 70
6
  9
$SURFU
 70
6
  9
$SURFV
 70
6
  9
$UCSBASE
  2

  9
$UCSNAME
  2

  9
$UCSORG
 10
0.0
 20
0.0
 30
0.0
  9
$UCSXDIR
 10
1.0
 20
0.0
 30
0.0
  9
$UCSYDIR
 10
0.0
 20
1.0
 30
0.0
  9
$UCSORTHOREF
  2

  9
$UCSORTHOVIEW
 70
0
  9
$UCSORGTOP
 10
0.0
 20
0.0
 30
0.0
  9
$UCSORGBOTTOM
 10
0.0
 20
0.0
 30
0.0
  9
$UCSORGLEFT
 10
0.0
 20
0.0
 30
0.0
  9
$UCSORGRIGHT
 10
0.0
 20
0.0
 30
0.0
  9
$UCSORGFRONT
 10
0.0
 20
0.0
 30
0.0
  9
$UCSORGBACK
 10
0.0
 20
0.0
 30
0.0
  9
$PUCSBASE
  2

  9
$PUCSNAME
  2

  9
$PUCSORG
 10
0.0
 20
0.0
 30
0.0
  9
$PUCSXDIR
 10
1.0
 20
0.0
 30
0.0
  9
$PUCSYDIR
 10
0.0
 20
1.0
 30
0.0
  9
$PUCSORTHOREF
  2

  9
$PUCSORTHOVIEW
 70
0
  9
$PUCSORGTOP
 10
0.0
 20
0.0
 30
0.0
  9
$PUCSORGBOTTOM
 10
0.0
 20
0.0
 30
0.0
  9
$PUCSORGLEFT
 10
0.0
 20
0.0
 30
0.0
  9
$PUCSORGRIGHT
 10
0.0
 20
0.0
 30
0.0
  9
$PUCSORGFRONT
 10
0.0
 20
0.0
 30
0.0
  9
$PUCSORGBACK
 10
0.0
 20
0.0
 30
0.0
  9
$USERI1
 70
0
  9
$USERI2
 70
0
  9
$USERI3
 70
0
  9
$USERI4
 70
0
  9
$USERI5
 70
0
  9
$USERR1
 40
0.0
  9
$USERR2
 40
0.0
  9
$USERR3
 40
0.0
  9
$USERR4
 40
0.0
  9
$USERR5
 40
0.0
  9
$WORLDVIEW
 70
1
  9
$SHADEDGE
 70
3
  9
$SHADEDIF
 70
70
  9
$TILEMODE
 70
1
  9
$MAXACTVP
 70
64
  9
$PINSBASE
 10
0.0
 20
0.0
 30
0.0
  9
$PLIMCHECK
 70
0
  9
$PEXTMIN
 10
1e+20
 20
1e+20
 30
1e+20
  9
$PEXTMAX
 10
-1e+20
 20
-1e+20
 30
-1e+20
  9
$PLIMMIN
 10
0.0
 20
0.0
  9
$PLIMMAX
 10
420.0
 20
297.0
  9
$UNITMODE
 70
0
  9
$VISRETAIN
 70
1
  9
$PLINEGEN
 70
0
  9
$PSLTSCALE
 70
1
  9
$TREEDEPTH
 70
3020
  9
$CMLSTYLE
  2
Standard
  9
$CMLJUST
 70
0
  9
$CMLSCALE
 40
20.0
  9
$PROXYGRAPHICS
 70
1
  9
$MEASUREMENT
 70
1
  9
$CELWEIGHT
370
-1
  9
$ENDCAPS
280
0
  9
$JOINSTYLE
280
0
  9
$LWDISPLAY
290
0
  9
$INSUNITS
 70
6
  9
$HYPERLINKBASE
  1

  9
$STYLESHEET
  1

  9
$XEDIT
290
1
  9
$CEPSNTYPE
380
0
  9
$PSTYLEMODE
290
1
  9
$FINGERPRINTGUID
  2
{CBDDDC78-4FC9-49F0-943F-A7F08529B663}
  9
$VERSIONGUID
  2
{29633236-F07F-4825-8503-AAEFEC0659E1}
  9
$EXTNAMES
290
1
  9
$PSVPSCALE
 40
0.0
  9
$OLESTARTUP
290
0
  9
$SORTENTS
280
127
  9
$INDEXCTL
280
0
  9
$HIDETEXT
280
1
  9
$XCLIPFRAME
280
1
  9
$HALOGAP
280
0
  9
$OBSCOLOR
 70
257
  9
$OBSLTYPE
280
0
  9
$INTERSECTIONDISPLAY
280
0
  9
$INTERSECTIONCOLOR
 70
257
  9
$DIMASSOC
280
2
  9
$PROJECTNAME
  1

  9
$CAMERADISPLAY
290
0
  9
$LENSLENGTH
 40
50.0
  9
$CAMERAHEIGHT
 40
0.0
  9
$STEPSPERSEC
 40
24.0
  9
$STEPSIZE
 40
100.0
  9
$3DDWFPREC
 40
2.0
  9
$PSOLWIDTH
 40
0.005
  9
$PSOLHEIGHT
 40
0.08
  9
$LOFTANG1
 40
1.570796326795
  9
$LOFTANG2
 40
1.570796326795
  9
$LOFTMAG1
 40
0.0
  9
$LOFTMAG2
 40
0.0
  9
$LOFTPARAM
 70
7
  9
$LOFTNORMALS
280
1
  9
$LATITUDE
 40
37.795
  9
$LONGITUDE
 40
-122.394
  9
$NORTHDIRECTION
 40
0.0
  9
$TIMEZONE
 70
-8000
  9
$LIGHTGLYPHDISPLAY
280
1
  9
$TILEMODELIGHTSYNCH
280
1
  9
$CMATERIAL
347
20
  9
$SOLIDHIST
280
0
  9
$SHOWHIST
280
1
  9
$DWFFRAME
280
2
  9
$DGNFRAME
280
2
  9
$REALWORLDSCALE
290
1
  9
$INTERFERECOLOR
 62
256
  9
$CSHADOW
280
0
  9
$SHADOWPLANELOCATION
 40
0.0
  0
ENDSEC
  0
SECTION
  2
CLASSES
  0
CLASS
  1
ACDBDICTIONARYWDFLT
  2
AcDbDictionaryWithDefault
  3
ObjectDBX Classes
 90
0
 91
0
280
0
281
0
  0
CLASS
  1
SUN
  2
AcDbSun
  3
SCENEOE
 90
1153
 91
0
280
0
281
0
  0
CLASS
  1
VISUALSTYLE
  2
AcDbVisualStyle
  3
ObjectDBX Classes
 90
4095
 91
0
280
0
281
0
  0
CLASS
  1
MATERIAL
  2
AcDbMaterial
  3
ObjectDBX Classes
 90
1153
 91
0
280
0
281
0
  0
CLASS
  1
SCALE
  2
AcDbScale
  3
ObjectDBX Classes
 90
1153
 91
0
280
0
281
0
  0
CLASS
  1
TABLESTYLE
  2
AcDbTableStyle
  3
ObjectDBX Classes
 90
4095
 91
0
280
0
281
0
  0
CLASS
  1
MLEADERSTYLE
  2
AcDbMLeaderStyle
  3
ACDB_MLEADERSTYLE_CLASS
 90
4095
 91
0
280
0
281
0
  0
CLASS
  1
DICTIONARYVAR
  2
AcDbDictionaryVar
  3
ObjectDBX Classes
 90
0
 91
0
280
0
281
0
  0
CLASS
  1
CELLSTYLEMAP
  2
AcDbCellStyleMap
  3
ObjectDBX Classes
 90
1152
 91
0
280
0
281
0
  0
CLASS
  1
MENTALRAYRENDERSETTINGS
  2
AcDbMentalRayRenderSettings
  3
SCENEOE
 90
1024
 91
0
280
0
281
0
  0
CLASS
  1
ACDBDETAILVIEWSTYLE
  2
AcDbDetailViewStyle
  3
ObjectDBX Classes
 90
1025
 91
0
280
0
281
0
  0
CLASS
  1
ACDBSECTIONVIEWSTYLE
  2
AcDbSectionViewStyle
  3
ObjectDBX Classes
 90
1025
 91
0
280
0
281
0
  0
CLASS
  1
RASTERVARIABLES
  2
AcDbRasterVariables
  3
ISM
 90
0
 91
0
280
0
281
0
  0
CLASS
  1
LAYOUT
  2
AcDbLayout
  3
ObjectDBX Classes
 90
0
 91
0
280
0
281
0
  0
CLASS
  1
ACDBPLACEHOLDER
  2
AcDbPlaceHolder
  3
ObjectDBX Classes
 90
0
 91
0
280
0
281
0
  0
ENDSEC
  0
SECTION
  2
TABLES
  0
TABLE
  2
VPORT
  5
8
330
0
100
AcDbSymbolTable
 70
1
  0
VPORT
  5
23
330
8
100
AcDbSymbolTableRecord
100
AcDbViewportTableRecord
  2
*Active
 70
0
 10
0.0
 20
0.0
 11
1.0
 21
1.0
 12
0.0
 22
0.0
 13
0.0
 23
0.0
 14
0.5
 24
0.5
 15
0.5
 25
0.5
 16
0.0
 26
0.0
 36
1.0
 17
0.0
 27
0.0
 37
0.0
 40
1000.0
 41
1.34
 42
50.0
 43
0.0
 44
0.0
 50
0.0
 51
0.0
 71
0
 72
1000
 73
1
 74
3
 75
0
 76
0
 77
0
 78
0
281
0
 65
0
146
0.0
  0
ENDTAB
  0
TABLE
  2
LTYPE
  5
2
330
0
100
AcDbSymbolTable
 70
3
  0
LTYPE
  5
24
330
2
100
AcDbSymbolTableRecord
100
AcDbLinetypeTableRecord
  2
ByBlock
 70
0
  3

 72
65
 73
0
 40
0.0
  0
LTYPE
  5
25
330
2
100
AcDbSymbolTableRecord
100
AcDbLinetypeTableRecord
  2
ByLayer
 70
0
  3

 72
65
 73
0
 40
0.0
  0
LTYPE
  5
26
330
2
100
AcDbSymbolTableRecord
100
AcDbLinetypeTableRecord
  2
Continuous
 70
0
  3

 72
65
 73
0
 40
0.0
  0
ENDTAB
  0
TABLE
  2
LAYER
  5
1
330
0
100
AcDbSymbolTable
 70
3
  0
LAYER
  5
27
330
1
100
AcDbSymbolTableRecord
100
AcDbLayerTableRecord
  2
0
 70
0
 62
7
  6
Continuous
370
-3
390
13
347
21
  0
LAYER
  5
28
330
1
100
AcDbSymbolTableRecord
100
AcDbLayerTableRecord
  2
Defpoints
 70
0
 62
7
  6
Continuous
290
0
370
-3
390
13
347
21
  0
LAYER
  5
37
330
1
100
AcDbSymbolTableRecord
100
AcDbLayerTableRecord
  2
G-IMPT
 70
0
 62
8
  6
Continuous
370
13
390
13
347
21
348
0
  0
ENDTAB
  0
TABLE
  2
STYLE
  5
5
330
0
100
AcDbSymbolTable
 70
1
  0
STYLE
  5
29
330
5
100
AcDbSymbolTableRecord
100
AcDbTextStyleTableRecord
  2
Standard
 70
0
 40
0.0
 41
1.0
 50
0.0
 71
0
 42
2.5
  3
txt
  4

  0
ENDTAB
  0
TABLE
  2
VIEW
  5
7
330
0
100
AcDbSymbolTable
 70
0
  0
ENDTAB
  0
TABLE
  2
UCS
  5
6
330
0
100
AcDbSymbolTable
 70
0
  0
ENDTAB
  0
TABLE
  2
APPID
  5
3
330
0
100
AcDbSymbolTable
 70
3
  0
APPID
  5
2A
330
3
100
AcDbSymbolTableRecord
100
AcDbRegAppTableRecord
  2
ACAD
 70
0
  0
APPID
  5
3A
330
3
100
AcDbSymbolTableRecord
100
AcDbRegAppTableRecord
  2
HATCHBACKGROUNDCOLOR
 70
0
  0
APPID
  5
3B
330
3
100
AcDbSymbolTableRecord
100
AcDbRegAppTableRecord
  2
EZDXF
 70
0
  0
ENDTAB
  0
TABLE
  2
DIMSTYLE
  5
4
330
0
100
AcDbSymbolTable
 70
1
100
AcDbDimStyleTable
  0
DIMSTYLE
105
2B
330
4
100
AcDbSymbolTableRecord
100
AcDbDimStyleTableRecord
  2
Standard
 70
0
 40
1.0
 41
2.5
 42
0.625
 43
3.75
 44
1.25
 45
0.0
 46
0.0
 47
0.0
 48
0.0
 49
2.5
140
2.5
141
2.5
142
0.0
143
0.03937007874
144
1.0
145
0.0
146
1.0
147
0.625
148
0.0
 69
0
 70
0
 71
0
 72
0
 73
0
 74
0
 75
0
 76
0
 77
1
 78
8
 79
3
170
0
171
3
172
1
173
0
174
0
175
0
176
0
177
0
178
0
179
2
271
2
272
2
273
2
274
3
275
0
276
0
277
2
278
44
279
0
280
0
281
0
282
0
283
0
284
8
285
0
286
0
288
0
289
3
290
0
371
-2
372
-2
  0
ENDTAB
  0
TABLE
  2
BLOCK_RECORD
  5
9
330
0
100
AcDbSymbolTable
 70
3
  0
BLOCK_RECORD
  5
17
330
9
100
AcDbSymbolTableRecord
100
AcDbBlockTableRecord
  2
*Model_Space
340
1A
 70
0
280
1
281
0
  0
BLOCK_RECORD
  5
1B
330
9
100
AcDbSymbolTableRecord
100
AcDbBlockTableRecord
  2
*Paper_Space
340
1E
 70
0
280
1
281
0
  0
BLOCK_RECORD
  5
2F
330
9
100
AcDbSymbolTableRecord
100
AcDbBlockTableRecord
  2
90 boom_1e_orde - tree 4 plan_dwg-5047597-00_0 Basismaterialen
340
0
 70
0
280
1
281
0
  0
ENDTAB
  0
ENDSEC
  0
SECTION
  2
BLOCKS
  0
BLOCK
  5
18
330
17
100
AcDbEntity
  8
0
100
AcDbBlockBegin
  2
*Model_Space
 70
0
 10
0.0
 20
0.0
 30
0.0
  3
*Model_Space
  1

  0
ENDBLK
  5
19
330
17
100
AcDbEntity
  8
0
100
AcDbBlockEnd
  0
BLOCK
  5
1C
330
1B
100
AcDbEntity
  8
0
100
AcDbBlockBegin
  2
*Paper_Space
 70
0
 10
0.0
 20
0.0
 30
0.0
  3
*Paper_Space
  1

  0
ENDBLK
  5
1D
330
1B
100
AcDbEntity
  8
0
100
AcDbBlockEnd
  0
BLOCK
  5
30
330
2F
100
AcDbEntity
  8
0
100
AcDbBlockBegin
  2
90 boom_1e_orde - tree 4 plan_dwg-5047597-00_0 Basismaterialen
 70
0
 10
0.0
 20
0.0
 30
0.0
  3
90 boom_1e_orde - tree 4 plan_dwg-5047597-00_0 Basismaterialen
  1

  0
LWPOLYLINE
  5
32
330
2F
100
AcDbEntity
  8
G-IMPT
100
AcDbPolyline
 90
4
 70
128
 10
224.4171917353328
 20
65.36584016865594
 10
224.4212805853267
 20
65.41881235721318
 10
224.3614674431524
 20
65.45136398957688
 10
224.4677608337906
 20
65.44272400120587
  0
LWPOLYLINE
  5
33
330
2F
100
AcDbEntity
  8
G-IMPT
100
AcDbPolyline
 90
23
 70
128
 10
223.8194051478084
 20
66.03613927898111
 10
223.8102030706939
 20
65.9896365313488
 10
223.6610592719727
 20
65.95851546030893
 10
223.6607651682089
 20
65.95830172149256
 10
223.7649521273207
 20
66.01689790535434
 10
223.6965433034749
 20
65.98376287995848
 10
223.7281154610358
 20
65.95733657405205
 10
223.7218010295236
 20
65.99845213378467
 10
223.7312726767918
 20
65.89272640875794
 10
223.7881025604013
 20
65.93384196849055
 10
223.7691592658648
 20
65.8574845004157
 10
223.7005000738705
 20
65.81453406529236
 10
223.6744530438828
 20
65.87620227954103
 10
223.6113087287612
 20
65.83105819450927
 10
223.5702649239321
 20
65.83105819450927
 10
223.5505425761571
 20
65.82848526868207
 10
223.5892082184686
 20
65.77525338095046
 10
223.5323783348592
 20
65.78406898338628
 10
223.56395049242
 20
65.80756358894779
 10
223.5060719107758
 20
65.77790221079395
 10
223.5179355660293
 20
65.7996313951874
 10
223.5533937933406
 20
65.85302900775677
 10
223.7817881288891
 20
65.75763242677932
  0
LWPOLYLINE
  5
34
330
2F
100
AcDbEntity
  8
G-IMPT
100
AcDbPolyline
 90
16
 70
128
 10
223.721045340586
 20
65.22619549596388
 10
223.6687955574262
 20
65.2597092598674
 10
223.6654210289802
 20
65.20807595382416
 10
223.6173392777791
 20
65.16480255931793
 10
223.5976439027962
 20
65.22614211250406
 10
223.721045340586
 20
65.22614211250406
 10
223.7202079341734
 20
65.14752777647743
 10
223.7275900373371
 20
65.08797132970109
 10
223.579336375811
 20
65.20022370973392
 10
223.5939493707068
 20
65.1845016041137
 10
223.6173015459567
 20
65.16188223751898
 10
223.6708413992419
 20
65.11935033892836
 10
223.6948120433468
 20
65.10374896969147
 10
223.7274384258737
 20
65.0853810051651
 10
223.6601261359746
 20
65.1269607260153
 10
223.6484467392315
 20
65.13400286292763
  0
LWPOLYLINE
  5
35
330
2F
100
AcDbEntity
  8
G-IMPT
100
AcDbPolyline
 90
1311
 70
128
 10
223.9364814502366
 20
66.04544134490764
 10
223.9527401751498
 20
66.03702310575163
 10
223.967495040293
 20
66.02937271581847
 10
223.9808517508899
 20
66.02246523515383
 10
223.9929160121641
 20
66.0162757238034
 10
224.0037935293393
 20
66.01077924181283
 10
224.013590007639
 20
66.00595084922777
 10
224.0224111522869
 20
66.00176560609393
 10
224.0303626685065
 20
65.99819857245693
 10
224.0375502615217
 20
65.99522480836247
 10
224.0440796365559
 20
65.9928193738562
 10
224.0500528256651
 20
65.99095340809085
 10
224.0555571682345
 20
65.98958236664737
 10
224.0606763304817
 20
65.98865778421377
 10
224.0654939786242
 20
65.98813119547803
 10
224.0700937788794
 20
65.98795413512816
 10
224.0745593974651
 20
65.98807813785221
 10
224.0789745005987
 20
65.98845473833813
 10
224.0834227544977
 20
65.98903547127394
 10
224.0879878253797
 20
65.98977187134764
 10
224.0927533794622
 20
65.99061547324725
 10
224.0977812438453
 20
65.99152148482843
 10
224.1030458891594
 20
65.99245980661762
 10
224.1084999469175
 20
65.9934040123089
 10
224.1140960486325
 20
65.99432767559637
 10
224.1197868258174
 20
65.9952043701741
 10
224.1255249099851
 20
65.99600766973622
 10
224.1312629326486
 20
65.9967111479768
 10
224.1369535253209
 20
65.99728837858993
 10
224.1425493195149
 20
65.99771293526972
 10
224.1480029467436
 20
65.99795839171026
 10
224.1532670436452
 20
65.99800468216527
 10
224.1582942673595
 20
65.99785718312725
 10
224.1630372801516
 20
65.99752763164821
 10
224.1674487442865
 20
65.99702776478024
 10
224.1714813220292
 20
65.99636931957544
 10
224.1750876756449
 20
65.99556403308588
 10
224.1782204673986
 20
65.99462364236365
 10
224.1808323595554
 20
65.99355988446081
 10
224.1828760143802
 20
65.99238449642945
 10
224.1843040941382
 20
65.99110921532164
 10
224.1850913564794
 20
65.98974088518845
 10
224.1853009405935
 20
65.98826677807673
 10
224.1850180810553
 20
65.9866692730323
 10
224.1843280124394
 20
65.98493074910101
 10
224.1833159693206
 20
65.98303358532866
 10
224.1820671862736
 20
65.98096016076111
 10
224.1806668978731
 20
65.97869285444418
 10
224.1792003386938
 20
65.97621404542369
 10
224.1777527433105
 20
65.97350611274547
 10
224.1764093462979
 20
65.97055143545535
 10
224.175238545455
 20
65.96734707843608
 10
224.1742413914787
 20
65.96394884991814
 10
224.1734020982902
 20
65.9604272439689
 10
224.1727048798107
 20
65.95685275465573
 10
224.1721339499615
 20
65.95329587604604
 10
224.1716735226637
 20
65.94982710220721
 10
224.1713078118386
 20
65.94651692720662
 10
224.1710210314074
 20
65.94343584511164
 10
224.1707973952914
 20
65.94065434998969
 10
224.1706211174117
 20
65.93824293590812
 10
224.1704853571341
 20
65.93624908923705
 10
224.1704190556033
 20
65.93462826555742
 10
224.1704600994081
 20
65.9333129127529
 10
224.1706463751377
 20
65.93223547870713
 10
224.1710157693812
 20
65.9313284113038
 10
224.1716061687276
 20
65.93052415842654
 10
224.1724554597659
 20
65.92975516795902
 10
224.1736015290854
 20
65.9289538877849
 10
224.175082263275
 20
65.92805276578785
 10
224.1769355489239
 20
65.92698424985153
 10
224.1791819079343
 20
65.92570232628981
 10
224.1817724034622
 20
65.92424713513742
 10
224.1846407339766
 20
65.92268035485931
 10
224.1877205979466
 20
65.92106366392044
 10
224.1909456938415
 20
65.91945874078574
 10
224.1942497201302
 20
65.91792726392019
 10
224.197566375282
 20
65.91653091178868
 10
224.2008293577659
 20
65.91533136285625
 10
224.2039723660511
 20
65.91439029558776
 10
224.2069290986067
 20
65.91376938844823
 10
224.209651144791
 20
65.91351220691477
 10
224.2121616575197
 20
65.91358986451336
 10
224.2145016805976
 20
65.91395536178217
 10
224.2167122578295
 20
65.9145616992594
 10
224.2188344330202
 20
65.9153618774832
 10
224.2209092499746
 20
65.91630889699178
 10
224.2229777524974
 20
65.91735575832328
 10
224.2250809843936
 20
65.91845546201588
 10
224.2272599894679
 20
65.9195610086078
 10
224.2295558115252
 20
65.92062539863717
 10
224.2320037061414
 20
65.92160310361768
 10
224.234615775977
 20
65.9224544789652
 10
224.2373983354633
 20
65.92314135107095
 10
224.240357699032
 20
65.92362554632629
 10
224.2435001811146
 20
65.92386889112251
 10
224.2468320961425
 20
65.92383321185095
 10
224.2503597585473
 20
65.9234803349029
 10
224.2540894827605
 20
65.9227720866697
 10
224.2580275832136
 20
65.92167029354262
 10
224.2621803743381
 20
65.92013678191302
 10
224.2665478544256
 20
65.91814463514977
 10
224.2711047572077
 20
65.91571196453226
 10
224.2758195002762
 20
65.91286813831742
 10
224.2806605012229
 20
65.9096425247622
 10
224.2855961776395
 20
65.90606449212358
 10
224.2905949471176
 20
65.90216340865847
 10
224.2956252272491
 20
65.89796864262385
 10
224.3006554356258
 20
65.89350956227665
 10
224.3056539898392
 20
65.88881553587385
 10
224.3105893074813
 20
65.88391593167238
 10
224.3154277064584
 20
65.87884256613818
 10
224.3201271059368
 20
65.87363704857303
 10
224.324643325397
 20
65.86834343648772
 10
224.32893218432
 20
65.86300578739304
 10
224.3329495021867
 20
65.85766815879978
 10
224.3366510984777
 20
65.85237460821868
 10
224.3399927926739
 20
65.84716919316054
 10
224.3429304042561
 20
65.84209597113613
 10
224.3454197527052
 20
65.83719899965625
 10
224.3474166575019
 20
65.83252233623165
 10
224.3488927190806
 20
65.82809926659534
 10
224.349882661689
 20
65.82391998936917
 10
224.3504369905288
 20
65.81996393139725
 10
224.3506062108012
 20
65.81621051952365
 10
224.3504408277076
 20
65.81263918059244
 10
224.3499913464496
 20
65.80922934144772
 10
224.3493082722284
 20
65.80596042893356
 10
224.3484421102454
 20
65.80281186989406
 10
224.3474433657021
 20
65.79976309117329
 10
224.3463625437998
 20
65.79679351961533
 10
224.34524646803
 20
65.7938869932824
 10
224.3441272350445
 20
65.79104499510915
 10
224.343033259785
 20
65.78827341924837
 10
224.3419929571934
 20
65.78557815985288
 10
224.3410347422114
 20
65.78296511107546
 10
224.3401870297809
 20
65.78044016706887
 10
224.3394782348437
 20
65.77800922198594
 10
224.3389367723416
 20
65.77567816997944
 10
224.3385910572162
 20
65.77345290520219
 10
224.3384695044096
 20
65.77133932180696
 10
224.3385952668372
 20
65.76934330711273
 10
224.3389704493095
 20
65.76747072110331
 10
224.3395918946109
 20
65.76572741692868
 10
224.3404564455254
 20
65.76411924773882
 10
224.3415609448375
 20
65.76265206668374
 10
224.3429022353311
 20
65.76133172691343
 10
224.3444771597908
 20
65.76016408157784
 10
224.3462825610007
 20
65.75915498382702
 10
224.348315281745
 20
65.7583102868109
 10
224.3505721648079
 20
65.75763584367951
 10
224.353044264745
 20
65.75712576711385
 10
224.3556994831958
 20
65.75672720791898
 10
224.3584999335714
 20
65.75637557643105
 10
224.3614077292828
 20
65.75600628298615
 10
224.3643849837408
 20
65.75555473792038
 10
224.3673938103563
 20
65.75495635156985
 10
224.3703963225403
 20
65.75414653427066
 10
224.3733546337038
 20
65.75306069635892
 10
224.3762308572576
 20
65.75163424817076
 10
224.3789871066126
 20
65.74980260004226
 10
224.3815960192324
 20
65.7475207343137
 10
224.3840723287904
 20
65.74482192134204
 10
224.3864412930127
 20
65.74175900348835
 10
224.3887281696254
 20
65.7383848231138
 10
224.3909582163544
 20
65.73475222257947
 10
224.3931566909259
 20
65.73091404424648
 10
224.3953488510659
 20
65.72692313047592
 10
224.3975599545004
 20
65.72283232362894
 10
224.3998152589555
 20
65.71869446606662
 10
224.4021400221572
 20
65.7145624001501
 10
224.404550556387
 20
65.71047820671338
 10
224.4070273921476
 20
65.7064409204822
 10
224.4095421144974
 20
65.70243881465515
 10
224.4120663084943
 20
65.69846016243086
 10
224.4145715591968
 20
65.69449323700795
 10
224.4170294516629
 20
65.69052631158503
 10
224.4194115709509
 20
65.68654765936074
 10
224.4216895021189
 20
65.68254555353369
 10
224.4238348302252
 20
65.6785082673025
 10
224.4258191403279
 20
65.6744240738658
 10
224.4276161222957
 20
65.67028858250686
 10
224.4292078852394
 20
65.66612674684761
 10
224.4305786430802
 20
65.66197085659465
 10
224.4317126097393
 20
65.65785320145459
 10
224.4325939991378
 20
65.65380607113401
 10
224.4332070251971
 20
65.64986175533951
 10
224.4335359018383
 20
65.6460525437777
 10
224.4335648429828
 20
65.64241072615516
 10
224.4332780625516
 20
65.6389685921785
 10
224.432659774466
 20
65.6357584315543
 10
224.4317015594841
 20
65.63280372692897
 10
224.4304244657107
 20
65.6300927327082
 10
224.4288569080879
 20
65.62760489623744
 10
224.4270273015572
 20
65.62531966486223
 10
224.4249640610606
 20
65.62321648592801
 10
224.4226956015399
 20
65.62127480678026
 10
224.4202503379368
 20
65.61947407476448
 10
224.4176566851932
 20
65.61779373722618
 10
224.4149430582508
 20
65.61621324151079
 10
224.4121378720515
 20
65.61471203496383
 10
224.4092705939424
 20
65.61326956493076
 10
224.4063749008915
 20
65.6118652787571
 10
224.403485522272
 20
65.6104786237883
 10
224.4006371874573
 20
65.60908904736985
 10
224.3978646258209
 20
65.60767599684723
 10
224.3952025667359
 20
65.60621891956596
 10
224.3926857395757
 20
65.60469726287148
 10
224.3903488737135
 20
65.6030904741093
 10
224.3882266985229
 20
65.60137800062489
 10
224.3863539433768
 20
65.59953928976374
 10
224.3847584970148
 20
65.5975630862567
 10
224.3834408856392
 20
65.59547532437604
 10
224.3823947948187
 20
65.5933112357794
 10
224.3816139101217
 20
65.59110605212443
 10
224.3810919171167
 20
65.58889500506878
 10
224.3808225013722
 20
65.58671332627007
 10
224.3807993484566
 20
65.58459624738596
 10
224.3810161439386
 20
65.58257900007409
 10
224.3814665733864
 20
65.58069681599208
 10
224.3821443223687
 20
65.5789849267976
 10
224.3830441288592
 20
65.57746828782103
 10
224.3841649404526
 20
65.5761307490837
 10
224.385506757149
 20
65.57494588427973
 10
224.3870695789482
 20
65.5738872671032
 10
224.3888534058504
 20
65.57292847124819
 10
224.3908582378555
 20
65.57204307040882
 10
224.3930840749635
 20
65.57120463827917
 10
224.3955309171745
 20
65.57038674855335
 10
224.3981987644884
 20
65.56956297492542
 10
224.4010876169052
 20
65.56870689108949
 10
224.4041874765751
 20
65.5677886435888
 10
224.4074483542485
 20
65.56676467036309
 10
224.4108102628261
 20
65.5655879822012
 10
224.4142132152085
 20
65.56421158989205
 10
224.4175972242964
 20
65.56258850422452
 10
224.4209023029904
 20
65.56067173598746
 10
224.4240684641911
 20
65.55841429596977
 10
224.4270357207992
 20
65.55576919496029
 10
224.4297440857153
 20
65.55268944374794
 10
224.43213357184
 20
65.54912805312158
 10
224.4341573471396
 20
65.54506201709236
 10
224.4358211998431
 20
65.54056426256062
 10
224.4371440732449
 20
65.5357316996489
 10
224.4381449106396
 20
65.53066123847984
 10
224.4388426553217
 20
65.52544978917601
 10
224.4392562505857
 20
65.52019426185998
 10
224.4394046397263
 20
65.51499156665439
 10
224.4393067660378
 20
65.50993861368178
 10
224.4389815728149
 20
65.50513231306478
 10
224.4384480033522
 20
65.50066957492596
 10
224.4377239485388
 20
65.49662675502495
 10
224.4368230896431
 20
65.49299799166948
 10
224.435758055528
 20
65.48975686880442
 10
224.4345414750567
 20
65.4868769703745
 10
224.4331859770921
 20
65.48433188032453
 10
224.4317041904972
 20
65.4820951825993
 10
224.4301087441352
 20
65.48014046114362
 10
224.4284122668689
 20
65.47844129990226
 10
224.4266273875615
 20
65.47697128282005
 10
224.4247667350759
 20
65.47570399384173
 10
224.4228366238437
 20
65.47461741617111
 10
224.4208181105702
 20
65.47370713004783
 10
224.4186859375297
 20
65.47297311497044
 10
224.4164148469958
 20
65.47241535043757
 10
224.4139795812426
 20
65.47203381594781
 10
224.411354882544
 20
65.47182849099975
 10
224.4085154931741
 20
65.47179935509202
 10
224.4054361554066
 20
65.47194638772316
 10
224.4020916115157
 20
65.47226956839187
 10
224.3984566037752
 20
65.47276887659665
 10
224.3945227129431
 20
65.47344282940287
 10
224.3903488737135
 20
65.47428409414276
 10
224.3860108592647
 20
65.47528387571528
 10
224.3815844427746
 20
65.47643337901941
 10
224.3771453974216
 20
65.4777238089541
 10
224.3727694963836
 20
65.47914637041833
 10
224.368532512839
 20
65.48069226831105
 10
224.3645102199657
 20
65.48235270753123
 10
224.360778390942
 20
65.48411889297785
 10
224.357412798946
 20
65.48598202954986
 10
224.3544665921515
 20
65.48792744507791
 10
224.351902418714
 20
65.48991695911958
 10
224.3496603017852
 20
65.49190651416404
 10
224.3476802645161
 20
65.49385205270052
 10
224.3459023300583
 20
65.49570951721824
 10
224.344266521563
 20
65.49743485020645
 10
224.3427128621815
 20
65.49898399415432
 10
224.3411813750653
 20
65.50031289155112
 10
224.3396120833655
 20
65.50137748488605
 10
224.3379450102337
 20
65.50213371664833
 10
224.3361328025587
 20
65.50254829939652
 10
224.3341786021803
 20
65.50263102596652
 10
224.3320981746758
 20
65.50240245926352
 10
224.3299072856227
 20
65.50188316219275
 10
224.3276217005983
 20
65.50109369765941
 10
224.32525718518
 20
65.50005462856875
 10
224.3228295049452
 20
65.49878651782596
 10
224.3203544254712
 20
65.49730992833626
 10
224.3178477123355
 20
65.49564542300487
 10
224.3153251311154
 20
65.49381356473701
 10
224.3128082407425
 20
65.4918358919629
 10
224.3103417735654
 20
65.48973784521272
 10
224.307976255287
 20
65.48754584054171
 10
224.3057622116098
 20
65.48528629400506
 10
224.3037501682369
 20
65.48298562165797
 10
224.301990650871
 20
65.48067023955566
 10
224.3005341852148
 20
65.47836656375333
 10
224.2994312969713
 20
65.47610101030617
 10
224.2987325118431
 20
65.4738999952694
 10
224.298488355533
 20
65.47178993469825
 10
224.2987293546273
 20
65.46978990856323
 10
224.2994060392452
 20
65.46788965249623
 10
224.3004489403894
 20
65.4660715660445
 10
224.3017885890626
 20
65.46431804875526
 10
224.3033555162674
 20
65.46261150017574
 10
224.3050802530065
 20
65.46093431985318
 10
224.3068933302826
 20
65.4592689073348
 10
224.3087252790983
 20
65.45759766216781
 10
224.3105066304563
 20
65.4559029838995
 10
224.3121679153593
 20
65.45416727207704
 10
224.3136507218989
 20
65.45237732550665
 10
224.3149408665224
 20
65.4505375400304
 10
224.3160352227663
 20
65.44865671074932
 10
224.3169306641668
 20
65.44674363276444
 10
224.3176240642603
 20
65.4448071011768
 10
224.3181122965832
 20
65.44285591108745
 10
224.3183922346718
 20
65.44089885759738
 10
224.3184607520624
 20
65.43894473580768
 10
224.3183147222915
 20
65.43700234081936
 10
224.3179510188952
 20
65.43508046773344
 10
224.3173780799087
 20
65.43318644580081
 10
224.3166506013614
 20
65.43132174087162
 10
224.3158348437813
 20
65.42948635294589
 10
224.3149970676964
 20
65.4276802820236
 10
224.314203533635
 20
65.42590352810477
 10
224.313520502125
 20
65.42415609118937
 10
224.3130142336946
 20
65.42243797127745
 10
224.3127509888718
 20
65.42074916836896
 10
224.3127970281847
 20
65.4190896824639
 10
224.3132186121613
 20
65.41745951356232
 10
224.3140609651839
 20
65.41586233483186
 10
224.3152851670511
 20
65.41431651211094
 10
224.3168312614155
 20
65.41284408440565
 10
224.3186392919301
 20
65.41146709072207
 10
224.3206493022474
 20
65.4102075700663
 10
224.3228013360202
 20
65.40908756144442
 10
224.3250354369013
 20
65.40812910386256
 10
224.3272916485434
 20
65.40735423632675
 10
224.3295100145992
 20
65.40678499784312
 10
224.3316305787215
 20
65.40644342741773
 10
224.3336067451265
 20
65.40633962747418
 10
224.3354453602846
 20
65.40643595410609
 10
224.3371666312295
 20
65.40668282682455
 10
224.3387907649952
 20
65.40703066514067
 10
224.3403379686154
 20
65.40742988856553
 10
224.3418284491241
 20
65.40783091661027
 10
224.3432824135551
 20
65.40818416878597
 10
224.3447200689421
 20
65.40844006460372
 10
224.3461616223191
 20
65.40854902357465
 10
224.3476272807199
 20
65.40846146520985
 10
224.3491324358023
 20
65.40814036170495
 10
224.3506732177197
 20
65.40759889599367
 10
224.3522409412494
 20
65.40686280369421
 10
224.3538269211689
 20
65.40595782042483
 10
224.3554224722555
 20
65.40490968180376
 10
224.3570189092866
 20
65.40374412344921
 10
224.3586075470394
 20
65.40248688097944
 10
224.3601797002915
 20
65.40116369001267
 10
224.3617266838201
 20
65.3998002861671
 10
224.3632398124027
 20
65.39842240506103
 10
224.3647109567795
 20
65.39705063865516
 10
224.3661342115423
 20
65.39568500428038
 10
224.367504227246
 20
65.39432037561009
 10
224.3688156544454
 20
65.39295162631768
 10
224.3700631436952
 20
65.39157363007656
 10
224.3712413455504
 20
65.39018126056014
 10
224.3723449105656
 20
65.38876939144178
 10
224.3733684892956
 20
65.38733289639491
 10
224.3743067322954
 20
65.3858666490929
 10
224.3751542901195
 20
65.3843655232092
 10
224.3759068378896
 20
65.38282538020759
 10
224.3765641489944
 20
65.38124603271378
 10
224.3771270213889
 20
65.37962828114384
 10
224.3775962530286
 20
65.37797292591391
 10
224.3779726418688
 20
65.37628076744008
 10
224.3782569858648
 20
65.37455260613845
 10
224.3784500829718
 20
65.37278924242516
 10
224.3785527311452
 20
65.37099147671627
 10
224.3785657283402
 20
65.36916010942792
 10
224.3784898725122
 20
65.36729594097623
 10
224.3783262834088
 20
65.36540194814721
 10
224.3780773679465
 20
65.3634898132066
 10
224.3777458548342
 20
65.36157339479006
 10
224.3773344727808
 20
65.35966655153327
 10
224.3768459504952
 20
65.35778314207188
 10
224.3762830166862
 20
65.35593702504158
 10
224.3756484000625
 20
65.35414205907801
 10
224.3749448293332
 20
65.35241210281684
 10
224.3741750332072
 20
65.35076101489376
 10
224.3733417403931
 20
65.3492026539444
 10
224.3724491318287
 20
65.34774450072052
 10
224.3715071973665
 20
65.34636852443826
 10
224.3705273790876
 20
65.34505031642979
 10
224.3695211190733
 20
65.34376546802731
 10
224.3684998594049
 20
65.34248957056307
 10
224.3674750421636
 20
65.34119821536923
 10
224.3664581094306
 20
65.33986699377797
 10
224.3654605032872
 20
65.33847149712155
 10
224.3644936658146
 20
65.33698731673212
 10
224.3635690390939
 20
65.33539004394191
 10
224.3626994736002
 20
65.33366260882079
 10
224.3619034533824
 20
65.33181729638932
 10
224.3612008708833
 20
65.32987373040575
 10
224.3606116185456
 20
65.32785153462837
 10
224.3601555888121
 20
65.32577033281537
 10
224.3598526741255
 20
65.32364974872503
 10
224.3597227669285
 20
65.32150940611561
 10
224.3597857596637
 20
65.31936892874535
 10
224.3600615447741
 20
65.31724794037248
 10
224.3605700147022
 20
65.31516606475527
 10
224.3613182748364
 20
65.31313720681662
 10
224.3622622823474
 20
65.31115239613806
 10
224.3633452073517
 20
65.30919694346574
 10
224.3645102199657
 20
65.30725615954583
 10
224.3657004903058
 20
65.30531535512455
 10
224.3668591884882
 20
65.30335984094802
 10
224.3679294846296
 20
65.30137492776244
 10
224.3688545488461
 20
65.29934592631398
 10
224.3695775512542
 20
65.29725814734883
 10
224.3700416619704
 20
65.29509690161312
 10
224.3702037323792
 20
65.2928509287124
 10
224.3700753389385
 20
65.29052268368939
 10
224.3696817393742
 20
65.28811805044622
 10
224.3690481914125
 20
65.28564291288495
 10
224.3681999527793
 20
65.28310315490769
 10
224.3671622812009
 20
65.28050466041654
 10
224.365960434403
 20
65.27785331331356
 10
224.3646196701119
 20
65.27515499750086
 10
224.3631652460537
 20
65.27241559688053
 10
224.3616224199542
 20
65.26964099535466
 10
224.3600111892218
 20
65.26684294876829
 10
224.3583305099935
 20
65.2640567007382
 10
224.3565740780884
 20
65.26132336682413
 10
224.3547355893257
 20
65.2586840625858
 10
224.3528087395247
 20
65.25617990358295
 10
224.3507872245046
 20
65.25385200537531
 10
224.3486647400844
 20
65.25174148352262
 10
224.3464349820834
 20
65.24988945358461
 10
224.3440916463208
 20
65.24833703112103
 10
224.3416284286158
 20
65.24712533169156
 10
224.3390437554858
 20
65.24628225257769
 10
224.3363549762415
 20
65.24578281794759
 10
224.3335841708917
 20
65.2455888336912
 10
224.3307534194453
 20
65.24566210569843
 10
224.3278848019113
 20
65.24596443985918
 10
224.3250003982985
 20
65.24645764206336
 10
224.3221222886158
 20
65.24710351820089
 10
224.3192725528721
 20
65.24786387416168
 10
224.3164732710763
 20
65.24870051583564
 10
224.3137465232373
 20
65.24957524911268
 10
224.3111117634762
 20
65.25045233321704
 10
224.308577942363
 20
65.25130584071024
 10
224.3061513845799
 20
65.25211229748811
 10
224.3038384148091
 20
65.25284822944649
 10
224.3016453577328
 20
65.25349016248123
 10
224.2995785380333
 20
65.25401462248816
 10
224.2976442803928
 20
65.25439813536312
 10
224.2958489094934
 20
65.25461722700194
 10
224.2941987500173
 20
65.25464842330048
 10
224.2927001266469
 20
65.25446825015457
 10
224.2913583099505
 20
65.25406056954472
 10
224.2901743540421
 20
65.25343858779007
 10
224.2891482589213
 20
65.25262284729445
 10
224.2882800245884
 20
65.25163389046166
 10
224.2875696510433
 20
65.25049225969552
 10
224.2870171382859
 20
65.24921849739985
 10
224.2866224863164
 20
65.24783314597846
 10
224.2863856951347
 20
65.24635674783516
 10
224.2863067647408
 20
65.2448098453738
 10
224.2863856951347
 20
65.24321298099815
 10
224.2866182766954
 20
65.2415832733781
 10
224.2869834613179
 20
65.23992414624757
 10
224.2874559912761
 20
65.2382355996066
 10
224.2880106088438
 20
65.23651763345516
 10
224.2886220562953
 20
65.23477024779328
 10
224.2892650759043
 20
65.23299344262094
 10
224.2899144099448
 20
65.23118721793814
 10
224.2905448006907
 20
65.22935157374489
 10
224.2911309904161
 20
65.2274865100412
 10
224.2916477213948
 20
65.22559202682704
 10
224.2920749979272
 20
65.22366910475277
 10
224.2924138724183
 20
65.22172264707015
 10
224.2926706592998
 20
65.21975853768124
 10
224.2928516730032
 20
65.21778266048817
 10
224.2929632279599
 20
65.215800899393
 10
224.2930116386014
 20
65.21381913829784
 10
224.2930032193594
 20
65.21184326110475
 10
224.2929442846653
 20
65.20987915171585
 10
224.2928411489506
 20
65.20793269403323
 10
224.2927001266469
 20
65.20600977195896
 10
224.292521217754
 20
65.2041152887448
 10
224.2922791645461
 20
65.2022502250411
 10
224.2919423948654
 20
65.20041458084786
 10
224.2914793365545
 20
65.19860835616507
 10
224.2908584174558
 20
65.19683155099273
 10
224.2900480654117
 20
65.19508416533084
 10
224.2890167082648
 20
65.19336619917941
 10
224.2877327738573
 20
65.19167765253843
 10
224.2861646900318
 20
65.19001852540791
 10
224.2842808846306
 20
65.18838881778782
 10
224.2820624143594
 20
65.1867899955284
 10
224.2795408513755
 20
65.18522938788045
 10
224.2767603966997
 20
65.18371578994503
 10
224.2737652513524
 20
65.18225799682315
 10
224.2705996163543
 20
65.18086480361588
 10
224.267307692726
 20
65.17954500542423
 10
224.263933681488
 20
65.17830739734924
 10
224.2605217836609
 20
65.17716077449195
 10
224.2571162002653
 20
65.17611393195341
 10
224.2537611323219
 20
65.17517566483463
 10
224.2504923616091
 20
65.17435379442009
 10
224.2473119929375
 20
65.17365224672811
 10
224.2442137118755
 20
65.17307397396041
 10
224.2411912039917
 20
65.17262192831878
 10
224.2382381548545
 20
65.17229906200491
 10
224.2353482500325
 20
65.17210832722058
 10
224.2325151750939
 20
65.17205267616752
 10
224.2297326156076
 20
65.1721350610475
 10
224.2269942571418
 20
65.17235843406225
 10
224.2242937852651
 20
65.1727257474135
 10
224.2216269903565
 20
65.173233587618
 10
224.218998082037
 20
65.17385307845244
 10
224.216413374738
 20
65.17454897800843
 10
224.2138791828911
 20
65.17528604437767
 10
224.2114018209278
 20
65.17602903565181
 10
224.2089876032796
 20
65.17674270992248
 10
224.2066428443781
 20
65.17739182528138
 10
224.2043738586548
 20
65.17794113982013
 10
224.2021869605411
 20
65.1783554116304
 10
224.2000884644685
 20
65.17859939880388
 10
224.198088368287
 20
65.17864519893374
 10
224.19621140352
 20
65.17849426761948
 10
224.1944859851094
 20
65.17815539996212
 10
224.1929405279967
 20
65.1776373910627
 10
224.191603447124
 20
65.1769490360223
 10
224.190503157433
 20
65.17609912994187
 10
224.1896680738655
 20
65.1750964679225
 10
224.1891266113634
 20
65.17394984506522
 10
224.1889071848683
 20
65.17266805647105
 10
224.1890382093222
 20
65.17125989724104
 10
224.1895275777643
 20
65.16973710442726
 10
224.1903010956246
 20
65.16812318288596
 10
224.1912640464303
 20
65.16644457942446
 10
224.1923217137085
 20
65.16472774085011
 10
224.1933793809868
 20
65.16299911397014
 10
224.1943423317924
 20
65.1612851455919
 10
224.1951158496526
 20
65.15961228252272
 10
224.1956052180948
 20
65.15800697156985
 10
224.1957157206463
 20
65.15649565954062
 10
224.1953526408343
 20
65.15510479324237
 10
224.1944481002287
 20
65.15385787923978
 10
224.1930415725685
 20
65.1527666631272
 10
224.1911993696354
 20
65.15183995025633
 10
224.1889878032109
 20
65.15108654597891
 10
224.1864731850766
 20
65.15051525564674
 10
224.1837218270141
 20
65.15013488461149
 10
224.1808000408051
 20
65.1499542382249
 10
224.1777741382309
 20
65.14998212183873
 10
224.1747104310733
 20
65.1502273408047
 10
224.1716752311138
 20
65.15069870047456
 10
224.168721689943
 20
65.15139374922242
 10
224.1658503183874
 20
65.152265007512
 10
224.1630484670827
 20
65.15325373882936
 10
224.1603034866644
 20
65.15430120666066
 10
224.1576027277681
 20
65.15534867449195
 10
224.1549335410294
 20
65.15633740580932
 10
224.1522832770837
 20
65.15720866409889
 10
224.1496392865669
 20
65.15790371284676
 10
224.1469889201142
 20
65.158363815539
 10
224.1443195283614
 20
65.15853023566171
 10
224.1416263601088
 20
65.15835892253796
 10
224.1389362568157
 20
65.15786456883842
 10
224.136283958106
 20
65.15707655307077
 10
224.1337042036039
 20
65.15602425374264
 10
224.1312317329332
 20
65.15473704936169
 10
224.128901285718
 20
65.15324431843561
 10
224.1267476015824
 20
65.15157543947201
 10
224.1248054201503
 20
65.14975979097854
 10
224.1231094810459
 20
65.14782675146289
 10
224.1216945238929
 20
65.14580569943267
 10
224.1205837101495
 20
65.14372111356072
 10
224.1197538886082
 20
65.14157787318045
 10
224.119170329896
 20
65.1393759577905
 10
224.1187983046394
 20
65.13711534688944
 10
224.1186030834651
 20
65.13479601997588
 10
224.1185499369999
 20
65.13241795654842
 10
224.1186041358704
 20
65.12998113610566
 10
224.1187309507032
 20
65.12748553814617
 10
224.1188956521252
 20
65.1249311421686
 10
224.1190635107629
 20
65.12231792767152
 10
224.1192013758509
 20
65.11964930472128
 10
224.1192824110553
 20
65.11694240565537
 10
224.1192824110553
 20
65.11421779337897
 10
224.1191729609091
 20
65.11149603079731
 10
224.1189319601064
 20
65.10879768081561
 10
224.1185330985159
 20
65.10614330633909
 10
224.1179511184115
 20
65.10355347027296
 10
224.1171607620672
 20
65.10104873552243
 10
224.116136771757
 20
65.09864966499273
 10
224.1148538897548
 20
65.09637682158908
 10
224.1132931727661
 20
65.09424587521562
 10
224.1114609352222
 20
65.09225292377239
 10
224.1093698059865
 20
65.09038917215835
 10
224.1070324139217
 20
65.08864582527248
 10
224.104461387891
 20
65.0870140880137
 10
224.1016693567574
 20
65.08548516528101
 10
224.0986689493839
 20
65.08405026197339
 10
224.0954727946335
 20
65.08270058298974
 10
224.0920935213692
 20
65.08142733322912
 10
224.0885437584541
 20
65.08022171759042
 10
224.0848366609538
 20
65.07908031917349
 10
224.0809874887446
 20
65.07802123388163
 10
224.077012027905
 20
65.077067935819
 10
224.072926064514
 20
65.07624389908976
 10
224.0687453846504
 20
65.07557259779807
 10
224.0644857743928
 20
65.0750775060481
 10
224.0601630198201
 20
65.074782097944
 10
224.055792907011
 20
65.07470984758993
 10
224.0513912220444
 20
65.07488422909005
 10
224.046973750999
 20
65.07532871654853
 10
224.0425594371694
 20
65.07605798042621
 10
224.0381798527131
 20
65.07705147661089
 10
224.0338697270034
 20
65.07827985734697
 10
224.0296637894136
 20
65.07971377487891
 10
224.0255967693172
 20
65.08132388145115
 10
224.0217033960873
 20
65.08308082930816
 10
224.0180183990974
 20
65.08495527069438
 10
224.0145765077206
 20
65.08691785785426
 10
224.0114124513304
 20
65.08893924303221
 10
224.0085609593
 20
65.09099007847277
 10
224.0060409766325
 20
65.09304198852841
 10
224.0038083108494
 20
65.0950704859841
 10
224.0018029851022
 20
65.09705205573286
 10
223.9999650225422
 20
65.09896318266773
 10
223.9982344463207
 20
65.10078035168176
 10
223.996551279589
 20
65.102480047668
 10
223.9948555454986
 20
65.10403875551945
 10
223.9930872672006
 20
65.10543296012918
 10
223.9911864678465
 20
65.10663914639021
 10
223.9890931705875
 20
65.10763379919558
 10
223.9867621271233
 20
65.10839830498162
 10
223.984207003346
 20
65.10893365635783
 10
223.981456193696
 20
65.10924574747702
 10
223.9785380926138
 20
65.10934047249195
 10
223.9754810945396
 20
65.10922372555542
 10
223.972313593914
 20
65.10890140082024
 10
223.9690639851774
 20
65.10837939243919
 10
223.9657606627701
 20
65.10766359456505
 10
223.9624320211325
 20
65.10675990135061
 10
223.9591064547051
 20
65.1056742069487
 10
223.9558139416615
 20
65.10441386794534
 10
223.9525907951082
 20
65.10299209065971
 10
223.9494749118851
 20
65.10142354384422
 10
223.9465041888317
 20
65.0997228962513
 10
223.9437165227881
 20
65.09790481663336
 10
223.9411498105938
 20
65.09598397374285
 10
223.9388419490888
 20
65.09397503633218
 10
223.9368308351127
 20
65.0918926731538
 10
223.9351543655054
 20
65.08975155296008
 10
223.9338504371065
 20
65.08756634450351
 10
223.9329427375767
 20
65.0853512296282
 10
223.9323981178587
 20
65.08311844254521
 10
223.9321692197165
 20
65.08087973055734
 10
223.9322086849135
 20
65.07864684096737
 10
223.9324691552133
 20
65.07643152107804
 10
223.9329032723797
 20
65.07424551819217
 10
223.9334636781764
 20
65.07210057961254
 10
223.934103014367
 20
65.0700084526419
 10
223.9347739227152
 20
65.06798088458306
 10
223.9354290449846
 20
65.06602962273881
 10
223.9360215491414
 20
65.06416445823655
 10
223.9365067079627
 20
65.06238735750235
 10
223.9368403204275
 20
65.06069833078689
 10
223.9369781855156
 20
65.0590973883409
 10
223.9368761022061
 20
65.05758454041506
 10
223.9364898694787
 20
65.05615979726008
 10
223.9357752863125
 20
65.05482316912665
 10
223.9346881516872
 20
65.05357466626548
 10
223.933184264582
 20
65.05241429892726
 10
223.9312194239765
 20
65.0513420773627
 10
223.9287625839156
 20
65.05036094693973
 10
223.9258353187072
 20
65.04948559349532
 10
223.9224723577243
 20
65.0487336379836
 10
223.9187084303404
 20
65.04812270135875
 10
223.9145782659288
 20
65.04767040457494
 10
223.9101165938628
 20
65.04739436858634
 10
223.9053581435158
 20
65.04731221434713
 10
223.900337644261
 20
65.04744156281147
 10
223.8950898254718
 20
65.04780003493354
 10
223.8896494165214
 20
65.04840525166752
 10
223.8840543057075
 20
65.04926748934065
 10
223.8783550170243
 20
65.05036764577252
 10
223.8726052333904
 20
65.05167927415587
 10
223.8668586377243
 20
65.05317592768337
 10
223.8611689129447
 20
65.05483115954769
 10
223.8555897419701
 20
65.05661852294155
 10
223.8501748077189
 20
65.05851157105764
 10
223.8449777931098
 20
65.06048385708864
 10
223.8400523810614
 20
65.06250893422725
 10
223.8354522544921
 20
65.06456035566617
 10
223.831221619548
 20
65.06661559549103
 10
223.8273667752844
 20
65.06866781135923
 10
223.8238845439842
 20
65.07071408182112
 10
223.8207717479304
 20
65.07275148542712
 10
223.8180252094056
 20
65.0747771007275
 10
223.8156417506928
 20
65.07678800627266
 10
223.8136181940747
 20
65.07878128061296
 10
223.8119513618343
 20
65.08075400229873
 10
223.8106380762544
 20
65.08270324988034
 10
223.8096751596178
 20
65.08462610190816
 10
223.809046284267
 20
65.0865206124575
 10
223.8086825227835
 20
65.08838873770377
 10
223.8085017978082
 20
65.09023340934726
 10
223.8084220319823
 20
65.09205755908833
 10
223.8083611479466
 20
65.09386411862735
 10
223.8082370683423
 20
65.09565601966463
 10
223.8079677158104
 20
65.09743619390053
 10
223.807471012992
 20
65.09920757303541
 10
223.8066648825281
 20
65.10097308876959
 10
223.8054672470598
 20
65.10273567280343
 10
223.8038197066377
 20
65.10449483139485
 10
223.8017585709516
 20
65.10623636903209
 10
223.7993438271008
 20
65.107942664761
 10
223.7966354621847
 20
65.10959609762739
 10
223.7936934633027
 20
65.1111790466771
 10
223.790577817554
 20
65.11267389095595
 10
223.7873485120382
 20
65.11406300950976
 10
223.7840655338545
 20
65.11532878138439
 10
223.7807888701023
 20
65.11645358562565
 10
223.777578507881
 20
65.11741980127935
 10
223.7744828578322
 20
65.11822267392267
 10
223.7715040247663
 20
65.11890891525803
 10
223.7686325370361
 20
65.1195381035191
 10
223.7658589229944
 20
65.1201698169397
 10
223.7631737109939
 20
65.12086363375349
 10
223.7605674293872
 20
65.12167913219423
 10
223.7580306065272
 20
65.12267589049564
 10
223.7555537707666
 20
65.12391348689145
 10
223.753127450458
 20
65.12545149961544
 10
223.7507421739543
 20
65.12734950690127
 10
223.74839645536
 20
65.12964964399823
 10
223.7461207517875
 20
65.13232427421765
 10
223.7439535061006
 20
65.13532831788638
 10
223.7419331611637
 20
65.13861669533125
 10
223.7400981598408
 20
65.14214432687913
 10
223.738486944996
 20
65.1458661328569
 10
223.7371379594934
 20
65.14973703359136
 10
223.7360896461972
 20
65.15371194940938
 10
223.7353804479714
 20
65.15774580063784
 10
223.7350488076802
 20
65.16179350760356
 10
223.7351172714478
 20
65.1658228786057
 10
223.7355447984392
 20
65.16985327383259
 10
223.7362744510794
 20
65.17391694144489
 10
223.7372492917938
 20
65.17804612960322
 10
223.7384123830072
 20
65.18227308646824
 10
223.739706787145
 20
65.1866300602006
 10
223.7410755666321
 20
65.1911492989609
 10
223.7424617838937
 20
65.19586305090984
 10
223.7438085013549
 20
65.200803564208
 10
223.7450587814409
 20
65.20600308701607
 10
223.7461633390011
 20
65.2114771661582
 10
223.7471034985827
 20
65.21717454311268
 10
223.7478682371573
 20
65.22302725802135
 10
223.7484465316964
 20
65.22896735102603
 10
223.7488273591717
 20
65.23492686226855
 10
223.7489996965546
 20
65.24083783189073
 10
223.7489525208168
 20
65.2466323000344
 10
223.7486748089297
 20
65.2522423068414
 10
223.748155537865
 20
65.25759989245353
 10
223.7473836845942
 20
65.26263709701263
 10
223.7463514504391
 20
65.26729867405561
 10
223.7450639341216
 20
65.2715802306996
 10
223.7435294587142
 20
65.27549008745684
 10
223.741756347289
 20
65.27903656483957
 10
223.7397529229183
 20
65.28222798336
 10
223.7375275086744
 20
65.28507266353037
 10
223.7350884276295
 20
65.28757892586289
 10
223.7324440028558
 20
65.28975509086979
 10
223.7296025574257
 20
65.2916094790633
 10
223.7265724144114
 20
65.29315041095565
 10
223.7233658283316
 20
65.2943912929205
 10
223.7200107794908
 20
65.29536587477723
 10
223.71653917964
 20
65.29611299220667
 10
223.7129829405302
 20
65.29667148088966
 10
223.7093739739122
 20
65.297080176507
 10
223.7057441915372
 20
65.29737791473951
 10
223.702125505156
 20
65.29760353126805
 10
223.6985498265196
 20
65.29779586177342
 10
223.6950490673791
 20
65.29799374193645
 10
223.6916551394852
 20
65.29823600743796
 10
223.68839047371
 20
65.29855340302633
 10
223.6852395774082
 20
65.29894430972026
 10
223.6821774770558
 20
65.29939901760594
 10
223.6791791991284
 20
65.2999078167696
 10
223.6762197701018
 20
65.30046099729749
 10
223.673274216452
 20
65.30104884927584
 10
223.6703175646545
 20
65.30166166279086
 10
223.6673248411852
 20
65.3022897279288
 10
223.6642710725199
 20
65.30292333477585
 10
223.6611312851344
 20
65.30355277341829
 10
223.6578898662969
 20
65.30416223677828
 10
223.654568646446
 20
65.30471152912185
 10
223.651198816813
 20
65.30515435755096
 10
223.6478115686287
 20
65.3054444291676
 10
223.6444380931244
 20
65.30553545107377
 10
223.6411095815311
 20
65.30538113037142
 10
223.6378572250798
 20
65.30493517416252
 10
223.6347122150018
 20
65.30415128954911
 10
223.6317057425282
 20
65.30298318363312
 10
223.6288689988899
 20
65.30138456351652
 10
223.6262222608887
 20
65.2993313304836
 10
223.6237421476078
 20
65.2968881625476
 10
223.6213943637013
 20
65.29414193190419
 10
223.6191446138229
 20
65.29117951074888
 10
223.6169586026266
 20
65.28808777127725
 10
223.6148020347664
 20
65.28495358568487
 10
223.612640614896
 20
65.28186382616735
 10
223.6104400476694
 20
65.27890536492025
 10
223.6081660377406
 20
65.27616507413912
 10
223.6057842897633
 20
65.27372982601958
 10
223.6032733273294
 20
65.27166352596826
 10
223.6006629497822
 20
65.2699382122363
 10
223.5979957754031
 20
65.26850295628589
 10
223.5953144224732
 20
65.26730682957923
 10
223.5926615092738
 20
65.26629890357854
 10
223.5900796540862
 20
65.26542824974602
 10
223.5876114751916
 20
65.26464393954387
 10
223.5852995908712
 20
65.2638950444343
 10
223.5831866194065
 20
65.26313063587953
 10
223.5813151790785
 20
65.26229978534175
 10
223.5797113134744
 20
65.26136445504866
 10
223.5783347674047
 20
65.26033817028997
 10
223.5771287109859
 20
65.25924734712089
 10
223.5760363143342
 20
65.25811840159663
 10
223.5750007475663
 20
65.25697774977237
 10
223.5739651807983
 20
65.25585180770338
 10
223.5728727841467
 20
65.2547669914448
 10
223.5716667277278
 20
65.25374971705186
 10
223.5702901816582
 20
65.25282640057976
 10
223.5686863160541
 20
65.25202345808371
 10
223.5668140871107
 20
65.25136535115203
 10
223.5646955953384
 20
65.25086872350543
 10
223.5623687273261
 20
65.25054826439774
 10
223.5598713696631
 20
65.25041866308278
 10
223.5572414089383
 20
65.25049460881438
 10
223.5545167317408
 20
65.25079079084638
 10
223.5517352246596
 20
65.25132189843258
 10
223.548934774284
 20
65.25210262082683
 10
223.5461532672029
 20
65.25314764728294
 10
223.5434285900054
 20
65.25447166705474
 10
223.5407933672544
 20
65.25608349403623
 10
223.5382591754074
 20
65.25796844068202
 10
223.5358323288962
 20
65.26010594408687
 10
223.5335191421523
 20
65.26247544134561
 10
223.5313259296071
 20
65.26505636955302
 10
223.5292590056921
 20
65.26782816580385
 10
223.5273246848389
 20
65.27077026719289
 10
223.5255292814789
 20
65.27386211081495
 10
223.5238791100437
 20
65.27708313376478
 10
223.5223804849648
 20
65.28041277313719
 10
223.5210376158633
 20
65.28383144838574
 10
223.519846293118
 20
65.28732350839923
 10
223.5188002022975
 20
65.29087428442521
 10
223.5178930289702
 20
65.2944691077113
 10
223.5171184587047
 20
65.298093309505
 10
223.5164701770695
 20
65.30173222105395
 10
223.5159418696329
 20
65.3053711736057
 10
223.5155272219636
 20
65.30899549840782
 10
223.5152199196301
 20
65.3125905267079
 10
223.5150136482006
 20
65.3161415897535
 10
223.514902093244
 20
65.31963548122549
 10
223.5148789403284
 20
65.32306484453775
 10
223.5149378750226
 20
65.32642378553757
 10
223.5150725828948
 20
65.3297064100721
 10
223.5152767495137
 20
65.33290682398858
 10
223.5155440604477
 20
65.33601913313419
 10
223.5158682012653
 20
65.33903744335613
 10
223.5162428575351
 20
65.34195586050168
 10
223.5166617148253
 20
65.34476849041798
 10
223.5171184587047
 20
65.34746943895225
 10
223.5176046699312
 20
65.35005624422793
 10
223.5181035100207
 20
65.35254017347333
 10
223.5185960356786
 20
65.35493592619297
 10
223.5190633036105
 20
65.35725820189137
 10
223.5194863705218
 20
65.35952170007307
 10
223.519846293118
 20
65.3617411202426
 10
223.5201241281046
 20
65.36393116190446
 10
223.5203009321869
 20
65.36610652456321
 10
223.5203577620705
 20
65.36828190772334
 10
223.5202756744608
 20
65.37047201088942
 10
223.5200388832791
 20
65.37268271967196
 10
223.5196442313096
 20
65.37488466410556
 10
223.5190917185523
 20
65.37703966033085
 10
223.5183813450072
 20
65.37910952448843
 10
223.5175131106743
 20
65.38105607271892
 10
223.5164870155535
 20
65.38284112116291
 10
223.515303059645
 20
65.38442648596101
 10
223.5139612429486
 20
65.3857739832539
 10
223.5124615654645
 20
65.38684542918212
 10
223.5108040271926
 20
65.38760263988631
 10
223.5089907346518
 20
65.38802407351935
 10
223.5070322204369
 20
65.3881547562832
 10
223.5049411236617
 20
65.38805635639214
 10
223.5027300834398
 20
65.3877905420604
 10
223.5004117388851
 20
65.38741898150222
 10
223.4979987291111
 20
65.38700334293188
 10
223.4955036932317
 20
65.38660529456361
 10
223.4929392703606
 20
65.38628650461165
 10
223.4903180996115
 20
65.38610864129025
 10
223.4876528200981
 20
65.38613337281367
 10
223.4849565920113
 20
65.38641160245217
 10
223.4822446598514
 20
65.3869511737001
 10
223.4795327891958
 20
65.3877491651078
 10
223.4768367456217
 20
65.38880265522563
 10
223.4741722947066
 20
65.39010872260396
 10
223.4715552020278
 20
65.39166444579311
 10
223.4690012331628
 20
65.39346690334347
 10
223.4665261536888
 20
65.39551317380537
 10
223.4641457291833
 20
65.3978003357292
 10
223.4618757252237
 20
65.40032546766528
 10
223.4597266504864
 20
65.40308857986433
 10
223.4576879860443
 20
65.40610140937842
 10
223.4557439560692
 20
65.40937862495998
 10
223.4538787847331
 20
65.41293489536145
 10
223.452076696208
 20
65.41678488933522
 10
223.4503219146657
 20
65.42094327563375
 10
223.4485986642782
 20
65.42542472300944
 10
223.4468911692173
 20
65.43024390021473
 10
223.445183653655
 20
65.43541547600206
 10
223.4434603417633
 20
65.44095411912382
 10
223.4417154538554
 20
65.4468544325862
 10
223.4399831948106
 20
65.45303075641044
 10
223.4383077656494
 20
65.4593773648715
 10
223.4367333673923
 20
65.46578853224435
 10
223.4353042010601
 20
65.47215853280396
 10
223.4340644676732
 20
65.4783816408253
 10
223.4330583682523
 20
65.48435213058337
 10
223.4323301038179
 20
65.48996427635312
 10
223.4319238753906
 20
65.49511235240952
 10
223.431883883991
 20
65.49969063302756
 10
223.4322395969662
 20
65.50362031594707
 10
223.4329615469691
 20
65.50693029276746
 10
223.4340055329791
 20
65.50967637855297
 10
223.4353273539757
 20
65.51191438836786
 10
223.4368828089382
 20
65.51370013727637
 10
223.438627696846
 20
65.5150894403428
 10
223.4405178166787
 20
65.51613811263142
 10
223.4425089674155
 20
65.51690196920643
 10
223.444556948036
 20
65.51743682513212
 10
223.4466175575194
 20
65.51779849547276
 10
223.448653433771
 20
65.51803495863204
 10
223.4506545703986
 20
65.51816284637157
 10
223.4526177999357
 20
65.51819095379236
 10
223.4545399549159
 20
65.51812807599545
 10
223.4564178678727
 20
65.51798300808187
 10
223.4582483713396
 20
65.51776454515267
 10
223.4600282978502
 20
65.51748148230888
 10
223.4617544799381
 20
65.51714261465153
 10
223.4634237501368
 20
65.51675673728165
 10
223.4650329409798
 20
65.51633264530028
 10
223.4665809949365
 20
65.51588060478397
 10
223.4680752942198
 20
65.5154167657114
 10
223.4695253309783
 20
65.51495874903671
 10
223.4709405973606
 20
65.51452417571407
 10
223.4723305855156
 20
65.51413066669768
 10
223.4737047875916
 20
65.51379584294168
 10
223.4750726957377
 20
65.51353732540024
 10
223.4764438021023
 20
65.51337273502756
 10
223.4778275988341
 20
65.51331969277778
 10
223.4792335780818
 20
65.5133958196051
 10
223.480663860032
 20
65.5136162916716
 10
223.4820910770227
 20
65.5139865059711
 10
223.4834804894299
 20
65.51450941470536
 10
223.4847973576297
 20
65.51518797007608
 10
223.4860069419979
 20
65.51602512428508
 10
223.4870745029106
 20
65.51702382953405
 10
223.4879653007438
 20
65.51818703802476
 10
223.4886445958734
 20
65.51951770195895
 10
223.4890776486755
 20
65.52101877353836
 10
223.4892297195259
 20
65.52269320496474
 10
223.489075543865
 20
65.52453904860498
 10
223.4886277573894
 20
65.52653475748664
 10
223.4879084708602
 20
65.52865388480241
 10
223.4869397950383
 20
65.53086998374496
 10
223.4857438406849
 20
65.53315660750701
 10
223.4843427185608
 20
65.53548730928122
 10
223.482758539427
 20
65.53783564226032
 10
223.4810134140446
 20
65.54017515963697
 10
223.4791294531745
 20
65.54247941460387
 10
223.4771287675777
 20
65.54472196035375
 10
223.4750334628899
 20
65.54688369470617
 10
223.4728656242454
 20
65.5489748939884
 10
223.4706473316529
 20
65.55101317915462
 10
223.4684006651214
 20
65.55301617115899
 10
223.4661477046599
 20
65.55500149095569
 10
223.4639105302771
 20
65.55698675949888
 10
223.4617112219819
 20
65.55898959774275
 10
223.4595718597834
 20
65.56102762664145
 10
223.4575145236903
 20
65.56311846714917
 10
223.4555612937115
 20
65.56527974022006
 10
223.4537289929551
 20
65.56752466413245
 10
223.4520134169253
 20
65.56984884646114
 10
223.4504051042257
 20
65.57224349210513
 10
223.4488945934596
 20
65.57469980596336
 10
223.4474724232304
 20
65.57720899293481
 10
223.4461291321416
 20
65.57976225791843
 10
223.4448552587967
 20
65.5823508058132
 10
223.4436413417991
 20
65.58496584151807
 10
223.4424779197521
 20
65.58759856993203
 10
223.4413555312593
 20
65.59024019595402
 10
223.4402705014444
 20
65.592886323742
 10
223.4392423015132
 20
65.59555015448973
 10
223.4382961891916
 20
65.59824928865001
 10
223.4374574222058
 20
65.60100132667561
 10
223.4367512582816
 20
65.60382386901931
 10
223.4362029551454
 20
65.60673451613384
 10
223.4358377705229
 20
65.60975086847202
 10
223.4356809621403
 20
65.61289052648658
 10
223.4357577877237
 20
65.61617109063032
 10
223.4360935049991
 20
65.61961016135596
 10
223.4367060031473
 20
65.62321457588081
 10
223.4375836971684
 20
65.62694811847994
 10
223.438707633517
 20
65.63076381019293
 10
223.4400588586479
 20
65.63461467205936
 10
223.441618419016
 20
65.6384537251188
 10
223.4433673610759
 20
65.64223399041082
 10
223.4452867312824
 20
65.64590848897504
 10
223.4473575760904
 20
65.649430241851
 10
223.4495609419544
 20
65.65275227007827
 10
223.4518778753294
 20
65.65582759469645
 10
223.4542894277955
 20
65.65862049372272
 10
223.456776671434
 20
65.66114027308468
 10
223.459320683452
 20
65.66340749568758
 10
223.4619025410562
 20
65.66544272443659
 10
223.4645033214536
 20
65.66726652223696
 10
223.467104101851
 20
65.66889945199388
 10
223.4696859594552
 20
65.67036207661259
 10
223.4722299714732
 20
65.6716749589983
 10
223.4747172151117
 20
65.67285866205621
 10
223.4771287675777
 20
65.67393374869155
 10
223.4794478057632
 20
65.67492224936817
 10
223.4816659053008
 20
65.6758520647844
 10
223.4837767415083
 20
65.67675256319716
 10
223.4857739897035
 20
65.67765311286342
 10
223.4876513252042
 20
65.67858308204015
 10
223.4894024233281
 20
65.67957183898427
 10
223.4910209593931
 20
65.68064875195277
 10
223.4925006087169
 20
65.68184318920255
 10
223.4938350466173
 20
65.68318451899063
 10
223.4950179484121
 20
65.6847021095739
 10
223.4960482531539
 20
65.68641700564054
 10
223.4969459548338
 20
65.6883169576034
 10
223.4977363111781
 20
65.69038139230662
 10
223.4984445799128
 20
65.69258973659424
 10
223.4990960187637
 20
65.69492141731037
 10
223.4997158854572
 20
65.69735586129906
 10
223.5003294377191
 20
65.69987249540443
 10
223.5009619332756
 20
65.70245074647055
 10
223.5016386298526
 20
65.70507004134149
 10
223.5023847851763
 20
65.70770980686133
 10
223.5032246045674
 20
65.71035045394143
 10
223.5041780837258
 20
65.7129763297621
 10
223.5052641659459
 20
65.7155727655709
 10
223.5065017945223
 20
65.71812509261542
 10
223.5079099127495
 20
65.72061864214325
 10
223.5095074639221
 20
65.72303874540194
 10
223.5113133913345
 20
65.72537073363908
 10
223.5133466382814
 20
65.72759993810223
 10
223.5156261480574
 20
65.72971169003898
 10
223.5181708639567
 20
65.7316913206969
 10
223.5209902576269
 20
65.73352464823184
 10
223.5240559141261
 20
65.73519943843272
 10
223.5273299468651
 20
65.7367039439968
 10
223.530774469255
 20
65.73802641762128
 10
223.5343515947066
 20
65.73915511200339
 10
223.538023436631
 20
65.74007827984032
 10
223.5417521084389
 20
65.74078417382933
 10
223.5454997235414
 20
65.74126104666759
 10
223.5492283953493
 20
65.74149715105237
 10
223.5529002372737
 20
65.74148073968085
 10
223.5564857819673
 20
65.74121132051944
 10
223.5599892390513
 20
65.74073342261111
 10
223.5634232373886
 20
65.74010283026803
 10
223.5668004058425
 20
65.73937532780236
 10
223.5701333732756
 20
65.73860669952627
 10
223.5734347685512
 20
65.73785272975189
 10
223.5767172205323
 20
65.7371692027914
 10
223.5799933580819
 20
65.73661190295695
 10
223.583275810063
 20
65.7362366145607
 10
223.5865772053386
 20
65.7360991219148
 10
223.5899080662528
 20
65.736233677735
 10
223.5932704890739
 20
65.7365884083514
 10
223.5966644635511
 20
65.73708990849762
 10
223.6000899794338
 20
65.73766477290741
 10
223.6035470264712
 20
65.73823959631437
 10
223.6070355944128
 20
65.73874097345221
 10
223.6105556730076
 20
65.73909549905459
 10
223.6141072520052
 20
65.73922976785516
 10
223.6176903211546
 20
65.73907037458764
 10
223.6213048702054
 20
65.73854391398567
 10
223.6249498416268
 20
65.73759802547106
 10
223.6286199887686
 20
65.73626452721818
 10
223.6323090177008
 20
65.73459628208957
 10
223.6360106344932
 20
65.73264615294771
 10
223.6397185452156
 20
65.73046700265513
 10
223.6434264559381
 20
65.72811169407434
 10
223.6471280727306
 20
65.72563309006786
 10
223.6508171016627
 20
65.72308405349818
 10
223.6544872488046
 20
65.72051744722783
 10
223.658132220226
 20
65.71798613411934
 10
223.6617457168715
 20
65.71554199638489
 10
223.6653214191842
 20
65.71323299363519
 10
223.6688530024819
 20
65.71110610483069
 10
223.6723341420825
 20
65.70920830893182
 10
223.6757585133037
 20
65.70758658489899
 10
223.6791197914631
 20
65.70628791169264
 10
223.6824116518788
 20
65.70535926827318
 10
223.6856277698684
 20
65.70484763360103
 10
223.6887618207498
 20
65.70479998663663
 10
223.6918074798408
 20
65.70526330634038
 10
223.6947510573307
 20
65.7062649945432
 10
223.6975494028958
 20
65.70775414455792
 10
223.7001520010841
 20
65.70966027256786
 10
223.7025083364434
 20
65.71191289475631
 10
223.7045678935216
 20
65.71444152730662
 10
223.7062801568666
 20
65.71717568640209
 10
223.7075946110264
 20
65.72004488822604
 10
223.7084607405488
 20
65.72297864896177
 10
223.7088280299818
 20
65.72590648479262
 10
223.7086459638732
 20
65.72875791190188
 10
223.7078829700654
 20
65.73147664369309
 10
223.7065832495792
 20
65.73406318245056
 10
223.7048099467296
 20
65.73653222767882
 10
223.7026262058316
 20
65.73889847888239
 10
223.7000951712004
 20
65.74117663556582
 10
223.6972799871513
 20
65.7433813972336
 10
223.6942437979992
 20
65.7455274633903
 10
223.6910497480593
 20
65.74762953354043
 10
223.6877609816467
 20
65.7497023071885
 10
223.6844406430765
 20
65.75176048383905
 10
223.6811502980561
 20
65.75381435177849
 10
223.677945197861
 20
65.75585655442075
 10
223.6748790151593
 20
65.75787532396164
 10
223.6720054226186
 20
65.75985889259701
 10
223.669378092907
 20
65.76179549252265
 10
223.6670506986921
 20
65.76367335593439
 10
223.6650769126419
 20
65.76548071502803
 10
223.6635104074243
 20
65.76720580199941
 10
223.662404855707
 20
65.76883684904433
 10
223.661813930158
 20
65.77036208835865
 10
223.6617765697716
 20
65.77177024758868
 10
223.6622727788479
 20
65.77305203618283
 10
223.6632678280137
 20
65.77419865904012
 10
223.6647269878956
 20
65.77520132105948
 10
223.6666155291204
 20
65.7760512271399
 10
223.6688987223146
 20
65.77673958218034
 10
223.6715418381052
 20
65.77725759107975
 10
223.6745101471185
 20
65.7775964587371
 10
223.6777689199814
 20
65.77774739005135
 10
223.6812834273205
 20
65.77770158992149
 10
223.6850226231809
 20
65.77745515453906
 10
223.6889701952813
 20
65.77702374526598
 10
223.6931135147585
 20
65.77642791475678
 10
223.6974399527496
 20
65.77568821566595
 10
223.7019368803915
 20
65.77482520064804
 10
223.7065916688212
 20
65.77385942235755
 10
223.7113916891757
 20
65.772811433449
 10
223.716324312592
 20
65.77170178657688
 10
223.721376910207
 20
65.77055103439572
 10
223.7265368531577
 20
65.76937972956009
 10
223.7317894060621
 20
65.76821038431667
 10
223.7371114074624
 20
65.76707334928126
 10
223.742477589382
 20
65.76600093466185
 10
223.747862683844
 20
65.76502545066643
 10
223.7532414228716
 20
65.76417920750299
 10
223.7585885384882
 20
65.76349451537953
 10
223.763878762717
 20
65.76300368450407
 10
223.7690868275812
 20
65.76273902508458
 10
223.7741874651041
 20
65.76273902508458
 10
223.779155407309
 20
65.76301746144556
 10
223.7839727581811
 20
65.76361538480612
 10
223.7886511095544
 20
65.76450996343932
 10
223.7932094252248
 20
65.76567475053793
 10
223.7976666689881
 20
65.76708329929455
 10
223.8020418046404
 20
65.76870916290194
 10
223.8063537959776
 20
65.77052589455273
 10
223.8106216067956
 20
65.77250704743969
 10
223.8148642008903
 20
65.77462617475545
 10
223.8191005420578
 20
65.77685682969273
 10
223.8233495940938
 20
65.77917256544421
 10
223.8276255798454
 20
65.78154987715364
 10
223.8319237583637
 20
65.78397702776893
 10
223.8362346477505
 20
65.78644522218906
 10
223.8405487661081
 20
65.78894566531297
 10
223.8448566315383
 20
65.79146956203962
 10
223.8491487621432
 20
65.79400811726804
 10
223.8534156760249
 20
65.79655253589712
 10
223.8576478912854
 20
65.79909402282587
 10
223.8618359260267
 20
65.80162378295323
 10
223.8659702983508
 20
65.80413302117817
 10
223.8700310040158
 20
65.80661245036606
 10
223.8739559494032
 20
65.8090508152477
 10
223.8776725185508
 20
65.81143636852033
 10
223.881108095496
 20
65.81375736288118
 10
223.8841900642766
 20
65.81600205102745
 10
223.88684580893
 20
65.81815868565636
 10
223.8890027134941
 20
65.82021551946515
 10
223.8905881620063
 20
65.82216080515101
 10
223.8915295385042
 20
65.82398279541118
 10
223.8917542270255
 20
65.82566974294286
 10
223.8912106614213
 20
65.82721773027006
 10
223.8899314747966
 20
65.82865415922363
 10
223.88797035007
 20
65.83001426146122
 10
223.8853809701601
 20
65.83133326864046
 10
223.8822170179853
 20
65.83264641241902
 10
223.8785321764643
 20
65.83398892445456
 10
223.8743801285155
 20
65.83539603640467
 10
223.8698145570577
 20
65.83690297992702
 10
223.8648891450092
 20
65.83854498667924
 10
223.8596575752888
 20
65.84035728831898
 10
223.8541787877157
 20
65.84236630773526
 10
223.8485327497132
 20
65.84456323274252
 10
223.8428046856052
 20
65.8469304423866
 10
223.8370798197158
 20
65.84945031571331
 10
223.8314433763689
 20
65.85210523176852
 10
223.8259805798886
 20
65.85487756959802
 10
223.820776654599
 20
65.85774970824765
 10
223.8159168248239
 20
65.86070402676326
 10
223.8114863148875
 20
65.86372290419065
 10
223.8075703491137
 20
65.86678871957567
 10
223.8042352119489
 20
65.8698853212312
 10
223.801471428329
 20
65.87300243453845
 10
223.7992505833121
 20
65.87613125414568
 10
223.7975442619565
 20
65.87926297470115
 10
223.7963240493202
 20
65.88238879085313
 10
223.7955615304617
 20
65.88549989724989
 10
223.7952282904388
 20
65.88858748853967
 10
223.7952959143101
 20
65.89164275937075
 10
223.7957359871336
 20
65.89465690439143
 10
223.7965200939674
 20
65.89762111824992
 10
223.7976214018946
 20
65.9005265955945
 10
223.7990194060973
 20
65.90336453107345
 10
223.8006951837824
 20
65.90612611933503
 10
223.8026298121567
 20
65.90880255502748
 10
223.804804368427
 20
65.9113850327991
 10
223.8071999298002
 20
65.91386474729815
 10
223.8097975734832
 20
65.91623289317286
 10
223.8125783766829
 20
65.91848066507154
 10
223.8155234166061
 20
65.92059925764242
 10
223.8186137704596
 20
65.92257986553379
 10
223.821832088933
 20
65.92441710883631
 10
223.8251673166456
 20
65.92611930941035
 10
223.8286099716995
 20
65.92769821455872
 10
223.8321505721968
 20
65.92916557158416
 10
223.8357796362395
 20
65.93053312778947
 10
223.8394876819296
 20
65.93181263047742
 10
223.8432652273691
 20
65.9330158269508
 10
223.8471027906601
 20
65.93415446451237
 10
223.8509908899045
 20
65.93524029046498
 10
223.8549200432045
 20
65.93628505211133
 10
223.8588765607495
 20
65.9373009836625
 10
223.8628299210787
 20
65.93830226696265
 10
223.8667453948189
 20
65.9393035707642
 10
223.8705882525966
 20
65.94031956381957
 10
223.8743237650387
 20
65.9413649148812
 10
223.8779172027718
 20
65.94245429270151
 10
223.8813338364225
 20
65.94360236603292
 10
223.8845389366175
 20
65.94482380362786
 10
223.8874977739836
 20
65.94613327423873
 10
223.8901756191474
 20
65.947545446618
 10
223.8925408999513
 20
65.949071569201
 10
223.8945746731009
 20
65.95070920915481
 10
223.8962611525173
 20
65.95245251332943
 10
223.8975845521217
 20
65.95429562857491
 10
223.8985290858354
 20
65.95623270174121
 10
223.8990789675796
 20
65.95825787967838
 10
223.8992184112755
 20
65.96036530923642
 10
223.8989316308443
 20
65.96254913726534
 10
223.8982028402073
 20
65.96480351061514
 10
223.8970162532856
 20
65.96712257613584
 10
223.8953745010925
 20
65.9695056128615
 10
223.8933538830086
 20
65.9719724285624
 10
223.8910491155067
 20
65.97454796319288
 10
223.8885549150593
 20
65.97725715670725
 10
223.8859659981393
 20
65.98012494905987
 10
223.8833770812194
 20
65.98317628020507
 10
223.880882880772
 20
65.98643609009717
 10
223.8785781132701
 20
65.98992931869053
 10
223.8765574951862
 20
65.99368090593944
 10
223.874915742993
 20
65.99771579179826
 10
223.8737855110059
 20
66.0020442816379
 10
223.8734512049103
 20
66.00661814249555
 10
223.8742351682343
 20
66.01137450682505
 10
223.8764597445062
 20
66.01625050708014
 10
223.880447277254
 20
66.02118327571466
 10
223.8865201100059
 20
66.02610994518236
 10
223.89500058629
 20
66.03096764793708
 10
223.9062110496345
 20
66.03569351643256
 10
223.9204738435676
 20
66.04022468312262
 10
223.9381113116172
 20
66.04449828046104
  0
CIRCLE
  5
36
330
2F
100
AcDbEntity
  8
G-IMPT
100
AcDbCircle
 10
223.963354429839
 20
65.5426720264753
 30
0.0
 40
0.0133013240747175
  0
ENDBLK
  5
31
330
2F
100
AcDbEntity
  8
0
100
AcDbBlockEnd
  0
ENDSEC
  0
SECTION
  2
ENTITIES
  0
INSERT
  5
38
330
17
100
AcDbEntity
  8
0
100
AcDbBlockReference
  2
90 boom_1e_orde - tree 4 plan_dwg-5047597-00_0 Basismaterialen
 10
0.0
 20
0.0
 30
0.0
  0
ENDSEC
  0
SECTION
  2
OBJECTS
  0
DICTIONARY
  5
A
330
0
100
AcDbDictionary
281
1
  3
ACAD_COLOR
350
B
  3
ACAD_GROUP
350
C
  3
ACAD_LAYOUT
350
D
  3
ACAD_MATERIAL
350
E
  3
ACAD_MLEADERSTYLE
350
F
  3
ACAD_MLINESTYLE
350
10
  3
ACAD_PLOTSETTINGS
350
11
  3
ACAD_PLOTSTYLENAME
350
12
  3
ACAD_SCALELIST
350
14
  3
ACAD_TABLESTYLE
350
15
  3
ACAD_VISUALSTYLE
350
16
  3
EZDXF_META
350
2D
  0
DICTIONARY
  5
B
330
A
100
AcDbDictionary
281
1
  0
DICTIONARY
  5
C
330
A
100
AcDbDictionary
281
1
  0
DICTIONARY
  5
D
330
A
100
AcDbDictionary
281
1
  3
Model
350
1A
  3
Layout1
350
1E
  0
DICTIONARY
  5
E
330
A
100
AcDbDictionary
281
1
  3
ByBlock
350
1F
  3
ByLayer
350
20
  3
Global
350
21
  0
DICTIONARY
  5
F
330
A
100
AcDbDictionary
281
1
  3
Standard
350
2C
  0
DICTIONARY
  5
10
330
A
100
AcDbDictionary
281
1
  3
Standard
350
22
  0
DICTIONARY
  5
11
330
A
100
AcDbDictionary
281
1
  0
ACDBDICTIONARYWDFLT
  5
12
330
A
100
AcDbDictionary
281
1
  3
Normal
350
13
100
AcDbDictionaryWithDefault
340
13
  0
ACDBPLACEHOLDER
  5
13
330
12
  0
DICTIONARY
  5
14
330
A
100
AcDbDictionary
281
1
  0
DICTIONARY
  5
15
330
A
100
AcDbDictionary
281
1
  0
DICTIONARY
  5
16
330
A
100
AcDbDictionary
281
1
  0
LAYOUT
  5
1A
330
D
100
AcDbPlotSettings
  1

  4
A3
  6

 40
7.5
 41
20.0
 42
7.5
 43
20.0
 44
420.0
 45
297.0
 46
0.0
 47
0.0
 48
0.0
 49
0.0
140
0.0
141
0.0
142
1.0
143
1.0
 70
1024
 72
1
 73
0
 74
5
  7

 75
16
 76
0
 77
2
 78
300
147
1.0
148
0.0
149
0.0
100
AcDbLayout
  1
Model
 70
1
 71
0
 10
0.0
 20
0.0
 11
420.0
 21
297.0
 12
0.0
 22
0.0
 32
0.0
 14
1e+20
 24
1e+20
 34
1e+20
 15
-1e+20
 25
-1e+20
 35
-1e+20
146
0.0
 13
0.0
 23
0.0
 33
0.0
 16
1.0
 26
0.0
 36
0.0
 17
0.0
 27
1.0
 37
0.0
 76
1
330
17
  0
LAYOUT
  5
1E
330
D
100
AcDbPlotSettings
  1

  4
A3
  6

 40
7.5
 41
20.0
 42
7.5
 43
20.0
 44
420.0
 45
297.0
 46
0.0
 47
0.0
 48
0.0
 49
0.0
140
0.0
141
0.0
142
1.0
143
1.0
 70
0
 72
1
 73
0
 74
5
  7

 75
16
 76
0
 77
2
 78
300
147
1.0
148
0.0
149
0.0
100
AcDbLayout
  1
Layout1
 70
1
 71
1
 10
0.0
 20
0.0
 11
420.0
 21
297.0
 12
0.0
 22
0.0
 32
0.0
 14
1e+20
 24
1e+20
 34
1e+20
 15
-1e+20
 25
-1e+20
 35
-1e+20
146
0.0
 13
0.0
 23
0.0
 33
0.0
 16
1.0
 26
0.0
 36
0.0
 17
0.0
 27
1.0
 37
0.0
 76
1
330
1B
  0
MATERIAL
  5
1F
102
{ACAD_REACTORS
330
E
102
}
330
E
100
AcDbMaterial
  1
ByBlock
  2

 70
0
 40
1.0
 71
1
 41
1.0
 91
-1023410177
 42
1.0
 72
1
  3

 73
1
 74
1
 75
1
 44
0.5
 73
0
 45
1.0
 46
1.0
 77
1
  4

 78
1
 79
1
170
1
 48
1.0
171
1
  6

172
1
173
1
174
1
140
1.0
141
1.0
175
1
  7

176
1
177
1
178
1
143
1.0
179
1
  8

270
1
271
1
272
1
145
1.0
146
1.0
273
1
  9

274
1
275
1
276
1
 42
1.0
 72
1
  3

 73
1
 74
1
 75
1
 94
63
  0
MATERIAL
  5
20
102
{ACAD_REACTORS
330
E
102
}
330
E
100
AcDbMaterial
  1
ByLayer
  2

 70
0
 40
1.0
 71
1
 41
1.0
 91
-1023410177
 42
1.0
 72
1
  3

 73
1
 74
1
 75
1
 44
0.5
 73
0
 45
1.0
 46
1.0
 77
1
  4

 78
1
 79
1
170
1
 48
1.0
171
1
  6

172
1
173
1
174
1
140
1.0
141
1.0
175
1
  7

176
1
177
1
178
1
143
1.0
179
1
  8

270
1
271
1
272
1
145
1.0
146
1.0
273
1
  9

274
1
275
1
276
1
 42
1.0
 72
1
  3

 73
1
 74
1
 75
1
 94
63
  0
MATERIAL
  5
21
102
{ACAD_REACTORS
330
E
102
}
330
E
100
AcDbMaterial
  1
Global
  2

 70
0
 40
1.0
 71
1
 41
1.0
 91
-1023410177
 42
1.0
 72
1
  3

 73
1
 74
1
 75
1
 44
0.5
 73
0
 45
1.0
 46
1.0
 77
1
  4

 78
1
 79
1
170
1
 48
1.0
171
1
  6

172
1
173
1
174
1
140
1.0
141
1.0
175
1
  7

176
1
177
1
178
1
143
1.0
179
1
  8

270
1
271
1
272
1
145
1.0
146
1.0
273
1
  9

274
1
275
1
276
1
 42
1.0
 72
1
  3

 73
1
 74
1
 75
1
 94
63
  0
MLINESTYLE
  5
22
102
{ACAD_REACTORS
330
10
102
}
330
10
100
AcDbMlineStyle
  2
Standard
 70
0
  3

 62
256
 51
90.0
 52
90.0
 71
2
 49
0.5
 62
256
  6
BYLAYER
 49
-0.5
 62
256
  6
BYLAYER
  0
MLEADERSTYLE
  5
2C
102
{ACAD_REACTORS
330
F
102
}
330
F
100
AcDbMLeaderStyle
179
2
170
2
171
1
172
0
 90
2
 40
0.0
 41
0.0
173
1
 91
-1056964608
 92
-2
290
1
 42
2.0
291
1
 43
8.0
  3
Standard
 44
4.0
300

342
29
174
1
175
1
176
0
178
1
 93
-1056964608
 45
4.0
292
0
297
0
 46
4.0
 94
-1056964608
 47
1.0
 49
1.0
140
1.0
294
1
141
0.0
177
0
142
1.0
295
0
296
0
143
3.75
271
0
272
9
273
9
  0
DICTIONARY
  5
2D
330
A
100
AcDbDictionary
280
1
281
1
  3
CREATED_BY_EZDXF
350
2E
  3
WRITTEN_BY_EZDXF
350
3C
  0
DICTIONARYVAR
  5
2E
330
2D
100
DictionaryVariables
280
0
  1
1.4.3 @ 2026-02-13T04:54:15.087433+00:00
  0
DICTIONARYVAR
  5
3C
330
2D
100
DictionaryVariables
280
0
  1
1.4.3 @ 2026-02-13T04:54:15.089349+00:00
  0
ENDSEC
  0
EOF
