  0
SECTION
  2
HEADER
  9
$ACADVER
  1
AC1032
  9
$ACADMAINTVER
 90
4
  9
$DWGCODEPAGE
  3
ANSI_1252
  9
$LASTSAVEDBY
  1
ezdxf
  9
$REQUIREDVERSIONS
160
0
  9
$INSBASE
 10
0.0
 20
0.0
 30
0.0
  9
$EXTMIN
 10
1e+20
 20
1e+20
 30
1e+20
  9
$EXTMAX
 10
-1e+20
 20
-1e+20
 30
-1e+20
  9
$LIMMIN
 10
0.0
 20
0.0
  9
$LIMMAX
 10
420.0
 20
297.0
  9
$ORTHOMODE
 70
0
  9
$REGENMODE
 70
1
  9
$FILLMODE
 70
1
  9
$QTEXTMODE
 70
0
  9
$MIRRTEXT
 70
1
  9
$LTSCALE
 40
1.0
  9
$ATTMODE
 70
1
  9
$TEXTSIZE
 40
2.5
  9
$TRACEWID
 40
1.0
  9
$TEXTSTYLE
  7
Standard
  9
$CLAYER
  8
0
  9
$CELTYPE
  6
ByLayer
  9
$CECOLOR
 62
256
  9
$CELTSCALE
 40
1.0
  9
$DISPSILH
 70
0
  9
$DIMSCALE
 40
1.0
  9
$DIMASZ
 40
2.5
  9
$DIMEXO
 40
0.625
  9
$DIMDLI
 40
3.75
  9
$DIMRND
 40
0.0
  9
$DIMDLE
 40
0.0
  9
$DIMEXE
 40
1.25
  9
$DIMTP
 40
0.0
  9
$DIMTM
 40
0.0
  9
$DIMTXT
 40
2.5
  9
$DIMCEN
 40
2.5
  9
$DIMTSZ
 40
0.0
  9
$DIMTOL
 70
0
  9
$DIMLIM
 70
0
  9
$DIMTIH
 70
0
  9
$DIMTOH
 70
0
  9
$DIMSE1
 70
0
  9
$DIMSE2
 70
0
  9
$DIMTAD
 70
1
  9
$DIMZIN
 70
8
  9
$DIMBLK
  1

  9
$DIMASO
 70
1
  9
$DIMSHO
 70
1
  9
$DIMPOST
  1

  9
$DIMAPOST
  1

  9
$DIMALT
 70
0
  9
$DIMALTD
 70
3
  9
$DIMALTF
 40
0.03937007874
  9
$DIMLFAC
 40
1.0
  9
$DIMTOFL
 70
1
  9
$DIMTVP
 40
0.0
  9
$DIMTIX
 70
0
  9
$DIMSOXD
 70
0
  9
$DIMSAH
 70
0
  9
$DIMBLK1
  1

  9
$DIMBLK2
  1

  9
$DIMSTYLE
  2
ISO-25
  9
$DIMCLRD
 70
0
  9
$DIMCLRE
 70
0
  9
$DIMCLRT
 70
0
  9
$DIMTFAC
 40
1.0
  9
$DIMGAP
 40
0.625
  9
$DIMJUST
 70
0
  9
$DIMSD1
 70
0
  9
$DIMSD2
 70
0
  9
$DIMTOLJ
 70
0
  9
$DIMTZIN
 70
8
  9
$DIMALTZ
 70
0
  9
$DIMALTTZ
 70
0
  9
$DIMUPT
 70
0
  9
$DIMDEC
 70
2
  9
$DIMTDEC
 70
2
  9
$DIMALTU
 70
2
  9
$DIMALTTD
 70
3
  9
$DIMTXSTY
  7
Standard
  9
$DIMAUNIT
 70
0
  9
$DIMADEC
 70
0
  9
$DIMALTRND
 40
0.0
  9
$DIMAZIN
 70
0
  9
$DIMDSEP
 70
44
  9
$DIMATFIT
 70
3
  9
$DIMFRAC
 70
0
  9
$DIMLDRBLK
  1

  9
$DIMLUNIT
 70
2
  9
$DIMLWD
 70
-2
  9
$DIMLWE
 70
-2
  9
$DIMTMOVE
 70
0
  9
$DIMFXL
 40
1.0
  9
$DIMFXLON
 70
0
  9
$DIMJOGANG
 40
0.785398163397
  9
$DIMTFILL
 70
0
  9
$DIMTFILLCLR
 70
0
  9
$DIMARCSYM
 70
0
  9
$DIMLTYPE
  6

  9
$DIMLTEX1
  6

  9
$DIMLTEX2
  6

  9
$DIMTXTDIRECTION
 70
0
  9
$LUNITS
 70
2
  9
$LUPREC
 70
4
  9
$SKETCHINC
 40
1.0
  9
$FILLETRAD
 40
10.0
  9
$AUNITS
 70
0
  9
$AUPREC
 70
2
  9
$MENU
  1
.
  9
$ELEVATION
 40
0.0
  9
$PELEVATION
 40
0.0
  9
$THICKNESS
 40
0.0
  9
$LIMCHECK
 70
0
  9
$CHAMFERA
 40
0.0
  9
$CHAMFERB
 40
0.0
  9
$CHAMFERC
 40
0.0
  9
$CHAMFERD
 40
0.0
  9
$SKPOLY
 70
0
  9
$TDCREATE
 40
2461085.246006944
  9
$TDUCREATE
 40
2458532.153996898
  9
$TDUPDATE
 40
2461085.246006944
  9
$TDUUPDATE
 40
2458532.1544311
  9
$TDINDWG
 40
0.0
  9
$TDUSRTIMER
 40
0.0
  9
$USRTIMER
 70
1
  9
$ANGBASE
 50
0.0
  9
$ANGDIR
 70
0
  9
$PDMODE
 70
0
  9
$PDSIZE
 40
0.0
  9
$PLINEWID
 40
0.0
  9
$SPLFRAME
 70
0
  9
$SPLINETYPE
 70
6
  9
$SPLINESEGS
 70
8
  9
$HANDSEED
  5
4F
  9
$SURFTAB1
 70
6
  9
$SURFTAB2
 70
6
  9
$SURFTYPE
 70
6
  9
$SURFU
 70
6
  9
$SURFV
 70
6
  9
$UCSBASE
  2

  9
$UCSNAME
  2

  9
$UCSORG
 10
0.0
 20
0.0
 30
0.0
  9
$UCSXDIR
 10
1.0
 20
0.0
 30
0.0
  9
$UCSYDIR
 10
0.0
 20
1.0
 30
0.0
  9
$UCSORTHOREF
  2

  9
$UCSORTHOVIEW
 70
0
  9
$UCSORGTOP
 10
0.0
 20
0.0
 30
0.0
  9
$UCSORGBOTTOM
 10
0.0
 20
0.0
 30
0.0
  9
$UCSORGLEFT
 10
0.0
 20
0.0
 30
0.0
  9
$UCSORGRIGHT
 10
0.0
 20
0.0
 30
0.0
  9
$UCSORGFRONT
 10
0.0
 20
0.0
 30
0.0
  9
$UCSORGBACK
 10
0.0
 20
0.0
 30
0.0
  9
$PUCSBASE
  2

  9
$PUCSNAME
  2

  9
$PUCSORG
 10
0.0
 20
0.0
 30
0.0
  9
$PUCSXDIR
 10
1.0
 20
0.0
 30
0.0
  9
$PUCSYDIR
 10
0.0
 20
1.0
 30
0.0
  9
$PUCSORTHOREF
  2

  9
$PUCSORTHOVIEW
 70
0
  9
$PUCSORGTOP
 10
0.0
 20
0.0
 30
0.0
  9
$PUCSORGBOTTOM
 10
0.0
 20
0.0
 30
0.0
  9
$PUCSORGLEFT
 10
0.0
 20
0.0
 30
0.0
  9
$PUCSORGRIGHT
 10
0.0
 20
0.0
 30
0.0
  9
$PUCSORGFRONT
 10
0.0
 20
0.0
 30
0.0
  9
$PUCSORGBACK
 10
0.0
 20
0.0
 30
0.0
  9
$USERI1
 70
0
  9
$USERI2
 70
0
  9
$USERI3
 70
0
  9
$USERI4
 70
0
  9
$USERI5
 70
0
  9
$USERR1
 40
0.0
  9
$USERR2
 40
0.0
  9
$USERR3
 40
0.0
  9
$USERR4
 40
0.0
  9
$USERR5
 40
0.0
  9
$WORLDVIEW
 70
1
  9
$SHADEDGE
 70
3
  9
$SHADEDIF
 70
70
  9
$TILEMODE
 70
1
  9
$MAXACTVP
 70
64
  9
$PINSBASE
 10
0.0
 20
0.0
 30
0.0
  9
$PLIMCHECK
 70
0
  9
$PEXTMIN
 10
1e+20
 20
1e+20
 30
1e+20
  9
$PEXTMAX
 10
-1e+20
 20
-1e+20
 30
-1e+20
  9
$PLIMMIN
 10
0.0
 20
0.0
  9
$PLIMMAX
 10
420.0
 20
297.0
  9
$UNITMODE
 70
0
  9
$VISRETAIN
 70
1
  9
$PLINEGEN
 70
0
  9
$PSLTSCALE
 70
1
  9
$TREEDEPTH
 70
3020
  9
$CMLSTYLE
  2
Standard
  9
$CMLJUST
 70
0
  9
$CMLSCALE
 40
20.0
  9
$PROXYGRAPHICS
 70
1
  9
$MEASUREMENT
 70
1
  9
$CELWEIGHT
370
-1
  9
$ENDCAPS
280
0
  9
$JOINSTYLE
280
0
  9
$LWDISPLAY
290
0
  9
$INSUNITS
 70
6
  9
$HYPERLINKBASE
  1

  9
$STYLESHEET
  1

  9
$XEDIT
290
1
  9
$CEPSNTYPE
380
0
  9
$PSTYLEMODE
290
1
  9
$FINGERPRINTGUID
  2
{972DAEB6-BC2B-43E3-AC98-E685CDC075C7}
  9
$VERSIONGUID
  2
{09F80816-D183-44FF-A1C4-2A5514F1CB28}
  9
$EXTNAMES
290
1
  9
$PSVPSCALE
 40
0.0
  9
$OLESTARTUP
290
0
  9
$SORTENTS
280
127
  9
$INDEXCTL
280
0
  9
$HIDETEXT
280
1
  9
$XCLIPFRAME
280
1
  9
$HALOGAP
280
0
  9
$OBSCOLOR
 70
257
  9
$OBSLTYPE
280
0
  9
$INTERSECTIONDISPLAY
280
0
  9
$INTERSECTIONCOLOR
 70
257
  9
$DIMASSOC
280
2
  9
$PROJECTNAME
  1

  9
$CAMERADISPLAY
290
0
  9
$LENSLENGTH
 40
50.0
  9
$CAMERAHEIGHT
 40
0.0
  9
$STEPSPERSEC
 40
24.0
  9
$STEPSIZE
 40
100.0
  9
$3DDWFPREC
 40
2.0
  9
$PSOLWIDTH
 40
0.005
  9
$PSOLHEIGHT
 40
0.08
  9
$LOFTANG1
 40
1.570796326795
  9
$LOFTANG2
 40
1.570796326795
  9
$LOFTMAG1
 40
0.0
  9
$LOFTMAG2
 40
0.0
  9
$LOFTPARAM
 70
7
  9
$LOFTNORMALS
280
1
  9
$LATITUDE
 40
37.795
  9
$LONGITUDE
 40
-122.394
  9
$NORTHDIRECTION
 40
0.0
  9
$TIMEZONE
 70
-8000
  9
$LIGHTGLYPHDISPLAY
280
1
  9
$TILEMODELIGHTSYNCH
280
1
  9
$CMATERIAL
347
20
  9
$SOLIDHIST
280
0
  9
$SHOWHIST
280
1
  9
$DWFFRAME
280
2
  9
$DGNFRAME
280
2
  9
$REALWORLDSCALE
290
1
  9
$INTERFERECOLOR
 62
256
  9
$CSHADOW
280
0
  9
$SHADOWPLANELOCATION
 40
0.0
  0
ENDSEC
  0
SECTION
  2
CLASSES
  0
CLASS
  1
ACDBDICTIONARYWDFLT
  2
AcDbDictionaryWithDefault
  3
ObjectDBX Classes
 90
0
 91
0
280
0
281
0
  0
CLASS
  1
SUN
  2
AcDbSun
  3
SCENEOE
 90
1153
 91
0
280
0
281
0
  0
CLASS
  1
VISUALSTYLE
  2
AcDbVisualStyle
  3
ObjectDBX Classes
 90
4095
 91
0
280
0
281
0
  0
CLASS
  1
MATERIAL
  2
AcDbMaterial
  3
ObjectDBX Classes
 90
1153
 91
0
280
0
281
0
  0
CLASS
  1
SCALE
  2
AcDbScale
  3
ObjectDBX Classes
 90
1153
 91
0
280
0
281
0
  0
CLASS
  1
TABLESTYLE
  2
AcDbTableStyle
  3
ObjectDBX Classes
 90
4095
 91
0
280
0
281
0
  0
CLASS
  1
MLEADERSTYLE
  2
AcDbMLeaderStyle
  3
ACDB_MLEADERSTYLE_CLASS
 90
4095
 91
0
280
0
281
0
  0
CLASS
  1
DICTIONARYVAR
  2
AcDbDictionaryVar
  3
ObjectDBX Classes
 90
0
 91
0
280
0
281
0
  0
CLASS
  1
CELLSTYLEMAP
  2
AcDbCellStyleMap
  3
ObjectDBX Classes
 90
1152
 91
0
280
0
281
0
  0
CLASS
  1
MENTALRAYRENDERSETTINGS
  2
AcDbMentalRayRenderSettings
  3
SCENEOE
 90
1024
 91
0
280
0
281
0
  0
CLASS
  1
ACDBDETAILVIEWSTYLE
  2
AcDbDetailViewStyle
  3
ObjectDBX Classes
 90
1025
 91
0
280
0
281
0
  0
CLASS
  1
ACDBSECTIONVIEWSTYLE
  2
AcDbSectionViewStyle
  3
ObjectDBX Classes
 90
1025
 91
0
280
0
281
0
  0
CLASS
  1
RASTERVARIABLES
  2
AcDbRasterVariables
  3
ISM
 90
0
 91
0
280
0
281
0
  0
CLASS
  1
LAYOUT
  2
AcDbLayout
  3
ObjectDBX Classes
 90
0
 91
0
280
0
281
0
  0
CLASS
  1
ACDBPLACEHOLDER
  2
AcDbPlaceHolder
  3
ObjectDBX Classes
 90
0
 91
0
280
0
281
0
  0
ENDSEC
  0
SECTION
  2
TABLES
  0
TABLE
  2
VPORT
  5
8
330
0
100
AcDbSymbolTable
 70
1
  0
VPORT
  5
23
330
8
100
AcDbSymbolTableRecord
100
AcDbViewportTableRecord
  2
*Active
 70
0
 10
0.0
 20
0.0
 11
1.0
 21
1.0
 12
0.0
 22
0.0
 13
0.0
 23
0.0
 14
0.5
 24
0.5
 15
0.5
 25
0.5
 16
0.0
 26
0.0
 36
1.0
 17
0.0
 27
0.0
 37
0.0
 40
1000.0
 41
1.34
 42
50.0
 43
0.0
 44
0.0
 50
0.0
 51
0.0
 71
0
 72
1000
 73
1
 74
3
 75
0
 76
0
 77
0
 78
0
281
0
 65
0
146
0.0
  0
ENDTAB
  0
TABLE
  2
LTYPE
  5
2
330
0
100
AcDbSymbolTable
 70
3
  0
LTYPE
  5
24
330
2
100
AcDbSymbolTableRecord
100
AcDbLinetypeTableRecord
  2
ByBlock
 70
0
  3

 72
65
 73
0
 40
0.0
  0
LTYPE
  5
25
330
2
100
AcDbSymbolTableRecord
100
AcDbLinetypeTableRecord
  2
ByLayer
 70
0
  3

 72
65
 73
0
 40
0.0
  0
LTYPE
  5
26
330
2
100
AcDbSymbolTableRecord
100
AcDbLinetypeTableRecord
  2
Continuous
 70
0
  3

 72
65
 73
0
 40
0.0
  0
ENDTAB
  0
TABLE
  2
LAYER
  5
1
330
0
100
AcDbSymbolTable
 70
3
  0
LAYER
  5
27
330
1
100
AcDbSymbolTableRecord
100
AcDbLayerTableRecord
  2
0
 70
0
 62
7
  6
Continuous
370
-3
390
13
347
21
  0
LAYER
  5
28
330
1
100
AcDbSymbolTableRecord
100
AcDbLayerTableRecord
  2
Defpoints
 70
0
 62
7
  6
Continuous
290
0
370
-3
390
13
347
21
  0
LAYER
  5
49
330
1
100
AcDbSymbolTableRecord
100
AcDbLayerTableRecord
  2
G-IMPT
 70
0
 62
8
  6
Continuous
370
13
390
13
347
21
348
0
  0
ENDTAB
  0
TABLE
  2
STYLE
  5
5
330
0
100
AcDbSymbolTable
 70
1
  0
STYLE
  5
29
330
5
100
AcDbSymbolTableRecord
100
AcDbTextStyleTableRecord
  2
Standard
 70
0
 40
0.0
 41
1.0
 50
0.0
 71
0
 42
2.5
  3
txt
  4

  0
ENDTAB
  0
TABLE
  2
VIEW
  5
7
330
0
100
AcDbSymbolTable
 70
0
  0
ENDTAB
  0
TABLE
  2
UCS
  5
6
330
0
100
AcDbSymbolTable
 70
0
  0
ENDTAB
  0
TABLE
  2
APPID
  5
3
330
0
100
AcDbSymbolTable
 70
3
  0
APPID
  5
2A
330
3
100
AcDbSymbolTableRecord
100
AcDbRegAppTableRecord
  2
ACAD
 70
0
  0
APPID
  5
4C
330
3
100
AcDbSymbolTableRecord
100
AcDbRegAppTableRecord
  2
HATCHBACKGROUNDCOLOR
 70
0
  0
APPID
  5
4D
330
3
100
AcDbSymbolTableRecord
100
AcDbRegAppTableRecord
  2
EZDXF
 70
0
  0
ENDTAB
  0
TABLE
  2
DIMSTYLE
  5
4
330
0
100
AcDbSymbolTable
 70
1
100
AcDbDimStyleTable
  0
DIMSTYLE
105
2B
330
4
100
AcDbSymbolTableRecord
100
AcDbDimStyleTableRecord
  2
Standard
 70
0
 40
1.0
 41
2.5
 42
0.625
 43
3.75
 44
1.25
 45
0.0
 46
0.0
 47
0.0
 48
0.0
 49
2.5
140
2.5
141
2.5
142
0.0
143
0.03937007874
144
1.0
145
0.0
146
1.0
147
0.625
148
0.0
 69
0
 70
0
 71
0
 72
0
 73
0
 74
0
 75
0
 76
0
 77
1
 78
8
 79
3
170
0
171
3
172
1
173
0
174
0
175
0
176
0
177
0
178
0
179
2
271
2
272
2
273
2
274
3
275
0
276
0
277
2
278
44
279
0
280
0
281
0
282
0
283
0
284
8
285
0
286
0
288
0
289
3
290
0
371
-2
372
-2
  0
ENDTAB
  0
TABLE
  2
BLOCK_RECORD
  5
9
330
0
100
AcDbSymbolTable
 70
3
  0
BLOCK_RECORD
  5
17
330
9
100
AcDbSymbolTableRecord
100
AcDbBlockTableRecord
  2
*Model_Space
340
1A
 70
0
280
1
281
0
  0
BLOCK_RECORD
  5
1B
330
9
100
AcDbSymbolTableRecord
100
AcDbBlockTableRecord
  2
*Paper_Space
340
1E
 70
0
280
1
281
0
  0
BLOCK_RECORD
  5
2F
330
9
100
AcDbSymbolTableRecord
100
AcDbBlockTableRecord
  2
90 boom_1e_orde - tree 4 plan_dwg-5047598-00_0 Basismaterialen
340
0
 70
0
280
1
281
0
  0
ENDTAB
  0
ENDSEC
  0
SECTION
  2
BLOCKS
  0
BLOCK
  5
18
330
17
100
AcDbEntity
  8
0
100
AcDbBlockBegin
  2
*Model_Space
 70
0
 10
0.0
 20
0.0
 30
0.0
  3
*Model_Space
  1

  0
ENDBLK
  5
19
330
17
100
AcDbEntity
  8
0
100
AcDbBlockEnd
  0
BLOCK
  5
1C
330
1B
100
AcDbEntity
  8
0
100
AcDbBlockBegin
  2
*Paper_Space
 70
0
 10
0.0
 20
0.0
 30
0.0
  3
*Paper_Space
  1

  0
ENDBLK
  5
1D
330
1B
100
AcDbEntity
  8
0
100
AcDbBlockEnd
  0
BLOCK
  5
30
330
2F
100
AcDbEntity
  8
0
100
AcDbBlockBegin
  2
90 boom_1e_orde - tree 4 plan_dwg-5047598-00_0 Basismaterialen
 70
0
 10
0.0
 20
0.0
 30
0.0
  3
90 boom_1e_orde - tree 4 plan_dwg-5047598-00_0 Basismaterialen
  1

  0
LINE
  5
32
330
2F
100
AcDbEntity
  8
G-IMPT
100
AcDbLine
 10
1570530.272102067
 20
458159.5479270382
 30
0.0
 11
1571274.325836534
 21
458099.0680084411
 31
0.0
  0
LINE
  5
33
330
2F
100
AcDbEntity
  8
G-IMPT
100
AcDbLine
 10
1570118.885835788
 20
458381.3283861334
 30
0.0
 11
1570948.964097287
 21
457931.6865004923
 31
0.0
  0
LINE
  5
34
330
2F
100
AcDbEntity
  8
G-IMPT
100
AcDbLine
 10
1570341.676186478
 20
458259.7606383546
 30
0.0
 11
1570920.342147329
 21
457560.8811805915
 31
0.0
  0
LWPOLYLINE
  5
35
330
2F
100
AcDbEntity
  8
G-IMPT
100
AcDbPolyline
 90
3
 70
128
 10
1565903.500517094
 20
460701.7384570466
 10
1565721.17130718
 20
461133.4159567873
 10
1565627.414903809
 20
461709.6082221625
  0
LWPOLYLINE
  5
36
330
2F
100
AcDbEntity
  8
G-IMPT
100
AcDbPolyline
 90
4
 70
128
 10
1565770.897455338
 20
460799.3968807746
 10
1565279.161101329
 20
460817.4073615649
 10
1564991.854467525
 20
460817.4073615649
 10
1564853.798033099
 20
460799.3968807746
  0
LWPOLYLINE
  5
37
330
2F
100
AcDbEntity
  8
G-IMPT
100
AcDbPolyline
 90
4
 70
128
 10
1566693.52200515
 20
460406.2517642387
 10
1566384.114861054
 20
461002.3915029098
 10
1566516.717922809
 20
461536.8937794339
 10
1566052.607206665
 20
461989.1649364927
  0
LWPOLYLINE
  5
38
330
2F
100
AcDbEntity
  8
G-IMPT
100
AcDbPolyline
 90
3
 70
128
 10
1566384.114861054
 20
461002.3915029098
 10
1566118.908737543
 20
461249.0848613056
 10
1565625.356177462
 20
461708.1120504479
  0
LWPOLYLINE
  5
39
330
2F
100
AcDbEntity
  8
G-IMPT
100
AcDbPolyline
 90
4
 70
128
 10
1565345.462632206
 20
460221.1958679903
 10
1565124.457529281
 20
460426.7736666533
 10
1564726.648344014
 20
460488.482883704
 10
1564542.50337543
 20
460445.3154755578
  0
LINE
  5
3A
330
2F
100
AcDbEntity
  8
G-IMPT
100
AcDbLine
 10
1565124.457529281
 20
460426.7736666533
 30
0.0
 11
1564947.65344694
 21
460652.9451226346
 31
0.0
  0
LWPOLYLINE
  5
3B
330
2F
100
AcDbEntity
  8
G-IMPT
100
AcDbPolyline
 90
3
 70
128
 10
1566141.009247835
 20
461249.0848613056
 10
1566096.80822725
 20
461701.3560183644
 10
1565875.803124324
 20
461886.3401597093
  0
LWPOLYLINE
  5
3C
330
2F
100
AcDbEntity
  8
G-IMPT
100
AcDbPolyline
 90
5
 70
128
 10
1566258.414350761
 20
456818.0374014087
 10
1566047.317384102
 20
456583.3684717471
 10
1566041.455539214
 20
456032.6944353421
 10
1566093.13026136
 20
455615.7993079076
 10
1566092.068981116
 20
455597.6670361558
  0
LWPOLYLINE
  5
3D
330
2F
100
AcDbEntity
  8
G-IMPT
100
AcDbPolyline
 90
5
 70
128
 10
1565539.127174621
 20
455938.0200404935
 10
1565657.947202861
 20
456456.5316767692
 10
1565681.568901983
 20
456817.9648190719
 10
1565183.507319574
 20
456582.9947875285
 10
1565055.354630677
 20
456401.5659681374
  0
LWPOLYLINE
  5
3E
330
2F
100
AcDbEntity
  8
G-IMPT
100
AcDbPolyline
 90
3
 70
128
 10
1565643.982164289
 20
456473.6608989602
 10
1565321.374944453
 20
456153.6179152255
 10
1565321.110821697
 20
456133.1756626329
  0
LINE
  5
3F
330
2F
100
AcDbEntity
  8
G-IMPT
100
AcDbLine
 10
1565797.175714124
 20
457085.3678586756
 30
0.0
 11
1565681.568901983
 21
456817.9648190719
 31
0.0
  0
LINE
  5
40
330
2F
100
AcDbEntity
  8
G-IMPT
100
AcDbLine
 10
1564726.648344014
 20
460488.482883704
 30
0.0
 11
1564625.548962204
 21
460597.4197663118
 31
0.0
  0
LINE
  5
41
330
2F
100
AcDbEntity
  8
G-IMPT
100
AcDbLine
 10
1564991.854467525
 20
460817.4073615649
 30
0.0
 11
1564873.756553384
 21
460971.2030542975
 31
0.0
  0
LINE
  5
42
330
2F
100
AcDbEntity
  8
G-IMPT
100
AcDbLine
 10
1566472.516902224
 20
460303.4269874554
 30
0.0
 11
1565115.818590409
 21
461258.1743718193
 31
0.0
  0
LWPOLYLINE
  5
43
330
2F
100
AcDbEntity
  8
G-IMPT
100
AcDbPolyline
 90
4
 70
128
 10
1566735.836034658
 20
462252.9749528679
 10
1566671.421494858
 20
461927.4557194415
 10
1566516.717922809
 20
461536.8937794339
 10
1566354.664891245
 20
462118.2853374803
  0
LINE
  5
44
330
2F
100
AcDbEntity
  8
G-IMPT
100
AcDbLine
 10
1565183.507319574
 20
456582.9947875285
 30
0.0
 11
1565157.645594947
 21
456291.5112287959
 31
0.0
  0
LWPOLYLINE
  5
45
330
2F
100
AcDbEntity
  8
G-IMPT
100
AcDbPolyline
 90
3
 70
128
 10
1565863.684303427
 20
455726.2427878402
 10
1566041.455539214
 20
456032.6944353421
 10
1565695.889794693
 20
455835.4523724985
  0
LINE
  5
46
330
2F
100
AcDbEntity
  8
G-IMPT
100
AcDbLine
 10
1566047.317384102
 20
456583.3684717471
 30
0.0
 11
1565620.882951822
 21
455888.7250821071
 31
0.0
  0
LWPOLYLINE
  5
47
330
2F
100
AcDbEntity
  8
G-IMPT
100
AcDbPolyline
 90
1311
 70
128
 10
1567555.370151656
 20
462318.0894143535
 10
1567669.181226048
 20
462259.1617402615
 10
1567772.465282051
 20
462205.6090107292
 10
1567865.962256229
 20
462157.2566460769
 10
1567950.412085149
 20
462113.9300666238
 10
1568026.554705375
 20
462075.4546926899
 10
1568095.130053473
 20
462041.6559445945
 10
1568156.878066008
 20
462012.3592426575
 10
1568212.538679546
 20
461987.3900071985
 10
1568262.851830652
 20
461966.5736585373
 10
1568308.557455891
 20
461949.7356169934
 10
1568350.369779656
 20
461936.6738566359
 10
1568388.900177641
 20
461927.0765665316
 10
1568424.734313372
 20
461920.6044894964
 10
1568458.457850369
 20
461916.9183683463
 10
1568490.656452156
 20
461915.6789458973
 10
1568521.915782256
 20
461916.5469649655
 10
1568552.821504191
 20
461919.183168367
 10
1568583.959281484
 20
461923.2482989175
 10
1568615.914777658
 20
461928.4030994335
 10
1568649.273656235
 20
461934.3083127307
 10
1568684.468706917
 20
461940.650393799
 10
1568721.321224116
 20
461947.2186463233
 10
1568759.499628422
 20
461953.8280861624
 10
1568798.672340428
 20
461960.2937291745
 10
1568838.507780722
 20
461966.4305912187
 10
1568878.674369896
 20
461972.0536881536
 10
1568918.840528541
 20
461976.9780358375
 10
1568958.674677246
 20
461981.0186501296
 10
1568997.845236604
 20
461983.9905468881
 10
1569036.020627205
 20
461985.7087419718
 10
1569072.869305516
 20
461986.032775157
 10
1569108.059871516
 20
461985.0002818908
 10
1569141.260961061
 20
461982.6934215375
 10
1569172.141210005
 20
461979.1943534617
 10
1569200.369254205
 20
461974.5852370281
 10
1569225.613729514
 20
461968.9482316012
 10
1569247.54327179
 20
461962.3654965455
 10
1569265.826516887
 20
461954.9191912256
 10
1569280.132100661
 20
461946.6914750062
 10
1569290.128658967
 20
461937.7645072517
 10
1569295.639495355
 20
461928.1861963193
 10
1569297.106584154
 20
461917.8674465372
 10
1569295.126567386
 20
461906.6849112261
 10
1569290.296087075
 20
461894.5152437071
 10
1569283.211785244
 20
461881.2350973007
 10
1569274.470303915
 20
461866.7211253279
 10
1569264.668285112
 20
461850.8499811093
 10
1569254.402370857
 20
461833.4983179658
 10
1569244.269203174
 20
461814.5427892183
 10
1569234.865424085
 20
461793.8600481875
 10
1569226.669818185
 20
461771.4295490525
 10
1569219.689740351
 20
461747.641949427
 10
1569213.814688031
 20
461722.9907077823
 10
1569208.934158675
 20
461697.9692825902
 10
1569204.93764973
 20
461673.0711323223
 10
1569201.714658646
 20
461648.7897154505
 10
1569199.15468287
 20
461625.6184904464
 10
1569197.147219852
 20
461604.0509157815
 10
1569195.58176704
 20
461584.5804499278
 10
1569194.347821881
 20
461567.7005513568
 10
1569193.397499939
 20
461553.7436246594
 10
1569192.933389223
 20
461542.397858902
 10
1569193.220695857
 20
461533.1903892703
 10
1569194.524625964
 20
461525.6483509499
 10
1569197.110385668
 20
461519.2988791267
 10
1569201.243181093
 20
461513.6691089857
 10
1569207.188218362
 20
461508.2861757132
 10
1569215.210703598
 20
461502.6772144942
 10
1569225.575842925
 20
461496.369360515
 10
1569238.548842467
 20
461488.8897489607
 10
1569254.27335554
 20
461479.9162840287
 10
1569272.406824235
 20
461469.729945962
 10
1569292.485137836
 20
461458.7624840152
 10
1569314.044185626
 20
461447.4456474431
 10
1569336.61985689
 20
461436.2111855002
 10
1569359.748040911
 20
461425.4908474413
 10
1569382.964626974
 20
461415.716382521
 10
1569405.805504361
 20
461407.3195399938
 10
1569427.806562357
 20
461400.7320691144
 10
1569448.503690246
 20
461396.3857191376
 10
1569467.558013537
 20
461394.5854484034
 10
1569485.131602638
 20
461395.1290515935
 10
1569501.511764183
 20
461397.6875324753
 10
1569516.985804806
 20
461401.9318948159
 10
1569531.841031141
 20
461407.5331423824
 10
1569546.364749822
 20
461414.1622789425
 10
1569560.844267482
 20
461421.490308263
 10
1569575.566890755
 20
461429.1882341112
 10
1569590.819926276
 20
461436.9270602547
 10
1569606.890680676
 20
461444.3777904603
 10
1569624.02594299
 20
461451.2217253239
 10
1569642.310431838
 20
461457.1813527564
 10
1569661.788348243
 20
461461.9894574967
 10
1569682.503893224
 20
461465.3788242841
 10
1569704.501267802
 20
461467.0822378577
 10
1569727.824672998
 20
461466.8324829567
 10
1569752.518309831
 20
461464.3623443203
 10
1569778.626379323
 20
461459.4046066879
 10
1569806.193082495
 20
461451.6920547983
 10
1569835.262620366
 20
461440.9574733911
 10
1569865.834980979
 20
461427.0124460484
 10
1569897.733300454
 20
461409.9837517258
 10
1569930.736501933
 20
461390.076968222
 10
1569964.62350856
 20
461367.4976733355
 10
1569999.173243476
 20
461342.4514448651
 10
1570034.164629823
 20
461315.1438606093
 10
1570069.376590744
 20
461285.7804983669
 10
1570104.58804938
 20
461254.5669359366
 10
1570139.577928875
 20
461221.708751117
 10
1570174.125152369
 20
461187.4115217067
 10
1570207.993945208
 20
461151.8979629672
 10
1570240.889741557
 20
461115.4593400113
 10
1570272.503277779
 20
461078.4040554141
 10
1570302.52529024
 20
461041.0405117514
 10
1570330.646515307
 20
461003.6771115985
 10
1570356.557689344
 20
460966.6222575309
 10
1570379.949548717
 20
460930.1843521238
 10
1570400.512829793
 20
460894.671797953
 10
1570417.938268936
 20
460860.3929975938
 10
1570431.916602513
 20
460827.6563536215
 10
1570442.249033564
 20
460796.6948661675
 10
1570449.178631823
 20
460767.4399255842
 10
1570453.058933701
 20
460739.7475197808
 10
1570454.243475608
 20
460713.4736366655
 10
1570453.085793953
 20
460688.4742641471
 10
1570449.939425147
 20
460664.6053901341
 10
1570445.157905599
 20
460641.7230025349
 10
1570439.094771718
 20
460619.6830892584
 10
1570432.103559914
 20
460598.341638213
 10
1570424.537806599
 20
460577.5546373074
 10
1570416.72527621
 20
460557.2089529768
 10
1570408.890645311
 20
460537.3149657641
 10
1570401.232818495
 20
460517.9139347386
 10
1570393.950700354
 20
460499.0471189702
 10
1570387.24319548
 20
460480.7557775282
 10
1570381.309208466
 20
460463.0811694821
 10
1570376.347643906
 20
460446.0645539016
 10
1570372.557406391
 20
460429.7471898562
 10
1570370.137400513
 20
460414.1703364154
 10
1570369.286530867
 20
460399.3752526488
 10
1570370.16686786
 20
460385.4031497892
 10
1570372.793145167
 20
460372.2950477233
 10
1570377.143262276
 20
460360.0919185008
 10
1570383.195118678
 20
460348.8347341717
 10
1570390.926613862
 20
460338.5644667862
 10
1570400.315647318
 20
460329.322088394
 10
1570411.340118536
 20
460321.1485710449
 10
1570423.977927005
 20
460314.0848867892
 10
1570438.206972214
 20
460308.1720076763
 10
1570454.005153655
 20
460303.4509057566
 10
1570471.309853215
 20
460299.880369797
 10
1570489.89638237
 20
460297.090455433
 10
1570509.499535
 20
460294.6290350174
 10
1570529.854104979
 20
460292.0439809031
 10
1570550.694886185
 20
460288.8831654427
 10
1570571.756672494
 20
460284.6944609889
 10
1570592.774257782
 20
460279.0257398946
 10
1570613.482435927
 20
460271.4248745125
 10
1570633.616000803
 20
460261.4397371953
 10
1570652.909746288
 20
460248.6182002958
 10
1570671.172134627
 20
460232.6451401959
 10
1570688.506301533
 20
460213.7534493944
 10
1570705.089051089
 20
460192.3130244185
 10
1570721.097187378
 20
460168.6937617966
 10
1570736.707514481
 20
460143.2655580564
 10
1570752.096836481
 20
460116.3983097253
 10
1570767.441957461
 20
460088.4619133315
 10
1570782.919681502
 20
460059.8262654026
 10
1570798.706812688
 20
460030.8612624664
 10
1570814.980155101
 20
460001.9368010507
 10
1570831.853894709
 20
459973.3474469938
 10
1570849.191745034
 20
459945.0864433754
 10
1570866.794801482
 20
459917.0717025861
 10
1570884.46415946
 20
459889.2211370161
 10
1570902.000914378
 20
459861.4526590557
 10
1570919.20616164
 20
459833.6841810953
 10
1570935.880996656
 20
459805.8336155252
 10
1570951.826514832
 20
459777.8188747358
 10
1570966.843811576
 20
459749.5578711176
 10
1570980.733982295
 20
459720.9685170606
 10
1570993.31285607
 20
459692.0200775481
 10
1571004.455196676
 20
459662.8872279334
 10
1571014.050501561
 20
459633.7959961625
 10
1571021.988268175
 20
459604.9724101821
 10
1571028.157993965
 20
459576.6424979381
 10
1571032.449176379
 20
459549.0322873766
 10
1571034.751312869
 20
459522.3678064439
 10
1571034.953900879
 20
459496.8750830861
 10
1571032.946437861
 20
459472.7801452495
 10
1571028.618421262
 20
459450.3090208801
 10
1571021.910916388
 20
459429.6260885029
 10
1571012.971259975
 20
459410.6491289575
 10
1571001.998356615
 20
459393.2342736622
 10
1570989.1911109
 20
459377.2376540356
 10
1570974.748427424
 20
459362.5154014961
 10
1570958.869210779
 20
459348.9236474619
 10
1570941.752365557
 20
459336.3185233515
 10
1570923.596796352
 20
459324.5561605832
 10
1570904.601407756
 20
459313.4926905755
 10
1570884.965104361
 20
459302.9842447468
 10
1570864.894157597
 20
459292.8869545153
 10
1570844.62430624
 20
459283.0569512996
 10
1570824.398655904
 20
459273.3503665182
 10
1570804.460312201
 20
459263.6233315889
 10
1570785.052380746
 20
459253.7319779307
 10
1570766.417967151
 20
459243.5324369617
 10
1570748.80017703
 20
459232.8808401004
 10
1570732.442115995
 20
459221.6333187651
 10
1570717.58688966
 20
459209.6460043743
 10
1570704.477603638
 20
459196.7750283462
 10
1570693.309479103
 20
459182.941603797
 10
1570684.086199475
 20
459168.3272706323
 10
1570676.763563731
 20
459153.1786504559
 10
1570671.297370852
 20
459137.7423648711
 10
1570667.643419817
 20
459122.2650354814
 10
1570665.757509605
 20
459106.9932838905
 10
1570665.595439196
 20
459092.1737317017
 10
1570667.11300757
 20
459078.0530005186
 10
1570670.266013705
 20
459064.8777119446
 10
1570675.010256581
 20
459052.8944875832
 10
1570681.308902015
 20
459042.2780147473
 10
1570689.154583168
 20
459032.9152435859
 10
1570698.547300043
 20
459024.6211899581
 10
1570709.487052637
 20
459017.2108697224
 10
1570721.973840953
 20
459010.4992987374
 10
1570736.007664988
 20
459004.3014928617
 10
1570751.588524745
 20
458998.4324679543
 10
1570768.716420221
 20
458992.7072398734
 10
1570787.391351419
 20
458986.9408244779
 10
1570807.613318337
 20
458980.9482376264
 10
1570829.312336025
 20
458974.5205051217
 10
1570852.138479739
 20
458967.3526925416
 10
1570875.671839782
 20
458959.1158754084
 10
1570899.492506459
 20
458949.4811292445
 10
1570923.180570074
 20
458938.1195295717
 10
1570946.316120933
 20
458924.7021519122
 10
1570968.479249337
 20
458908.9000717883
 10
1570989.250045594
 20
458890.384364722
 10
1571008.208600007
 20
458868.8261062356
 10
1571024.93500288
 20
458843.8963718511
 10
1571039.101429978
 20
458815.4341196466
 10
1571050.748398902
 20
458783.9498379244
 10
1571060.008512714
 20
458750.1218975424
 10
1571067.014374477
 20
458714.6286693588
 10
1571071.898587252
 20
458678.1485242321
 10
1571074.7937541
 20
458641.35983302
 10
1571075.832478084
 20
458604.9409665807
 10
1571075.147362265
 20
458569.5702957725
 10
1571072.871009705
 20
458535.9261914535
 10
1571069.136023465
 20
458504.6870244818
 10
1571064.067639771
 20
458476.3872851747
 10
1571057.761627502
 20
458450.9859416865
 10
1571050.306388696
 20
458428.298081631
 10
1571041.790325397
 20
458408.1387926215
 10
1571032.301839645
 20
458390.3231622717
 10
1571021.929333481
 20
458374.666278195
 10
1571010.761208946
 20
458360.9832280053
 10
1570998.885868082
 20
458349.0890993158
 10
1570986.39171293
 20
458338.7989797404
 10
1570973.367145531
 20
458329.9279568922
 10
1570959.856366905
 20
458322.3219131979
 10
1570945.726773992
 20
458315.9499103348
 10
1570930.801562707
 20
458310.8118047932
 10
1570914.90392897
 20
458306.907453063
 10
1570897.857068698
 20
458304.2367116347
 10
1570879.484177808
 20
458302.7994369984
 10
1570859.608452218
 20
458302.5954856441
 10
1570838.053087847
 20
458303.6247140622
 10
1570814.64128061
 20
458305.8869787431
 10
1570789.196226426
 20
458309.3821361766
 10
1570761.658990602
 20
458314.09980582
 10
1570732.442115995
 20
458319.9886589993
 10
1570702.076014853
 20
458326.987130007
 10
1570671.091099422
 20
458335.0336531359
 10
1570640.017781951
 20
458344.0666626787
 10
1570609.386474686
 20
458354.0245929284
 10
1570579.727589873
 20
458364.8458781774
 10
1570551.57153976
 20
458376.4689527187
 10
1570525.448736594
 20
458388.832250845
 10
1570501.889592622
 20
458401.874206849
 10
1570481.26614506
 20
458415.4921155455
 10
1570463.316930998
 20
458429.4187138371
 10
1570447.622112496
 20
458443.3455991484
 10
1570433.761851613
 20
458456.9643689037
 10
1570421.316310408
 20
458469.9666205278
 10
1570409.865650941
 20
458482.0439514452
 10
1570398.99003527
 20
458492.8879590803
 10
1570388.269625457
 20
458502.1902408579
 10
1570377.284583559
 20
458509.6423942023
 10
1570365.615071636
 20
458514.9360165384
 10
1570352.929617911
 20
458517.8380957756
 10
1570339.250215262
 20
458518.4171817657
 10
1570324.68722273
 20
458516.8172148446
 10
1570309.350999359
 20
458513.1821353493
 10
1570293.351904188
 20
458507.6558836159
 10
1570276.80029626
 20
458500.3823999813
 10
1570259.806534616
 20
458491.5056247817
 10
1570242.480978299
 20
458481.1694983538
 10
1570224.933986348
 20
458469.5179610341
 10
1570207.275917808
 20
458456.6949531591
 10
1570189.657685197
 20
458442.8512437403
 10
1570172.392414958
 20
458428.1649164892
 10
1570155.833787009
 20
458412.820883792
 10
1570140.335481269
 20
458397.0040580355
 10
1570126.251177658
 20
458380.8993516059
 10
1570113.934556097
 20
458364.6916768897
 10
1570103.739296504
 20
458348.5659462733
 10
1570096.019078799
 20
458332.7070721432
 10
1570091.127582901
 20
458317.2999668859
 10
1570089.418488731
 20
458302.5295428877
 10
1570091.105482391
 20
458288.5293599427
 10
1570095.842274716
 20
458275.2275674736
 10
1570103.142582726
 20
458262.5009623115
 10
1570112.520123438
 20
458250.2263412869
 10
1570123.488613871
 20
458238.2805012302
 10
1570135.561771046
 20
458226.5402389722
 10
1570148.253311978
 20
458214.8823513437
 10
1570161.076953688
 20
458203.1836351748
 10
1570173.546413194
 20
458191.3208872966
 10
1570185.175407515
 20
458179.1709045393
 10
1570195.555053292
 20
458166.6412785465
 10
1570204.586065657
 20
458153.7627802128
 10
1570212.246559364
 20
458140.5969752452
 10
1570218.514649168
 20
458127.2054293511
 10
1570223.368449822
 20
458113.6497082376
 10
1570226.786076083
 20
458099.9913776121
 10
1570228.745642703
 20
458086.2920031818
 10
1570229.225264437
 20
458072.6131506539
 10
1570228.20305604
 20
458059.0163857356
 10
1570225.657132267
 20
458045.5632741342
 10
1570221.646559361
 20
458032.3051206057
 10
1570216.554209529
 20
458019.2521861014
 10
1570210.843906469
 20
458006.4044706213
 10
1570204.979473875
 20
457993.7619741652
 10
1570199.424735445
 20
457981.3246967334
 10
1570194.643514875
 20
457969.0926383256
 10
1570191.099635862
 20
457957.0657989422
 10
1570189.256922102
 20
457945.2441785828
 10
1570189.579197293
 20
457933.6277772473
 10
1570192.530285129
 20
457922.2165949363
 10
1570198.426756287
 20
457911.0363438231
 10
1570206.996169357
 20
457900.2155847766
 10
1570217.818829909
 20
457889.9085908395
 10
1570230.475043511
 20
457880.2696350545
 10
1570244.545115732
 20
457871.4529904641
 10
1570259.609352141
 20
457863.6129301111
 10
1570275.248058309
 20
457856.903727038
 10
1570291.041539804
 20
457851.4796542872
 10
1570306.570102195
 20
457847.4949849018
 10
1570321.41405105
 20
457845.1039919241
 10
1570335.247215886
 20
457844.3773923193
 10
1570348.117521992
 20
457845.0516787426
 10
1570360.166418606
 20
457846.7797877719
 10
1570371.535354966
 20
457849.2146559847
 10
1570382.365780308
 20
457852.0092199587
 10
1570392.799143868
 20
457854.8164162719
 10
1570402.976894885
 20
457857.2891815017
 10
1570413.040482594
 20
457859.080452226
 10
1570423.131356234
 20
457859.8431650227
 10
1570433.390965039
 20
457859.230256469
 10
1570443.927050616
 20
457856.9825319347
 10
1570454.712524037
 20
457853.1922719557
 10
1570465.686588746
 20
457848.0396258595
 10
1570476.788448182
 20
457841.7047429739
 10
1570487.957305788
 20
457834.3677726263
 10
1570499.132365006
 20
457826.2088641445
 10
1570510.252829276
 20
457817.4081668561
 10
1570521.25790204
 20
457808.1458300887
 10
1570532.086786741
 20
457798.6020031698
 10
1570542.678686819
 20
457788.9568354271
 10
1570552.976697456
 20
457779.3544705861
 10
1570562.939480796
 20
457769.7950299627
 10
1570572.529590722
 20
457760.2426292706
 10
1570581.709581118
 20
457750.6613842238
 10
1570590.442005867
 20
457741.015410536
 10
1570598.689418853
 20
457731.268823921
 10
1570606.414373959
 20
457721.3857400925
 10
1570613.579425069
 20
457711.3302747644
 10
1570620.147126067
 20
457701.0665436503
 10
1570626.080030836
 20
457690.5586624644
 10
1570631.347865227
 20
457679.7776614531
 10
1570635.94904296
 20
457668.7222289964
 10
1570639.889149722
 20
457657.3979680069
 10
1570643.1737712
 20
457645.8104813974
 10
1570645.808493082
 20
457633.9653720806
 10
1570647.798901053
 20
457621.8682429693
 10
1570649.150580802
 20
457609.5246969761
 10
1570649.869118016
 20
457596.9403370139
 10
1570649.960098381
 20
457584.1207659956
 10
1570649.429107586
 20
457571.0715868336
 10
1570648.283983862
 20
457557.8136370305
 10
1570646.541575626
 20
457544.4286924462
 10
1570644.22098384
 20
457531.0137635304
 10
1570641.341309466
 20
457517.6658607329
 10
1570637.921653466
 20
457504.4819945032
 10
1570633.981116803
 20
457491.5591752911
 10
1570629.538800438
 20
457478.9944135462
 10
1570624.613805333
 20
457466.8847197179
 10
1570619.22523245
 20
457455.3271042564
 10
1570613.392182752
 20
457444.4185776108
 10
1570607.143922801
 20
457434.2115050437
 10
1570600.550381565
 20
457424.5796710679
 10
1570593.691653613
 20
457415.3522150086
 10
1570586.647833513
 20
457406.3582761914
 10
1570579.499015835
 20
457397.4269939415
 10
1570572.325295145
 20
457388.3875075846
 10
1570565.206766014
 20
457379.068956446
 10
1570558.22352301
 20
457369.3004798509
 10
1570551.455660701
 20
457358.9112171248
 10
1570544.983273657
 20
457347.7303075934
 10
1570538.896315201
 20
457335.6382617455
 10
1570533.324173676
 20
457322.7210747253
 10
1570528.406096183
 20
457309.1161128402
 10
1570524.281329819
 20
457294.9607423986
 10
1570521.089121685
 20
457280.3923297075
 10
1570518.968718879
 20
457265.5482410752
 10
1570518.059368499
 20
457250.5658428093
 10
1570518.500317646
 20
457235.5825012174
 10
1570520.430813418
 20
457220.7355826074
 10
1570523.990102915
 20
457206.1624532869
 10
1570529.227923854
 20
457191.9604477163
 10
1570535.835976432
 20
457178.0667729664
 10
1570543.416451462
 20
457164.3786042602
 10
1570551.57153976
 20
457150.7931168208
 10
1570559.903432141
 20
457137.2074858719
 10
1570568.014319418
 20
457123.5188866362
 10
1570575.506392407
 20
457109.6244943372
 10
1570581.981841923
 20
457095.4214841978
 10
1570587.04285878
 20
457080.8070314418
 10
1570590.291633793
 20
457065.6783112919
 10
1570591.426126654
 20
457049.9565009868
 10
1570590.527372569
 20
457033.6587858257
 10
1570587.772175619
 20
457016.8263531235
 10
1570583.337339887
 20
456999.5003901946
 10
1570577.399669456
 20
456981.7220843539
 10
1570570.135968406
 20
456963.5326229158
 10
1570561.723040821
 20
456944.9731931949
 10
1570552.337690783
 20
456926.084982506
 10
1570542.156722376
 20
456906.9091781638
 10
1570531.356939679
 20
456887.4869674827
 10
1570520.078324553
 20
456867.9006413781
 10
1570508.313569954
 20
456848.3969051674
 10
1570496.018546618
 20
456829.2635677689
 10
1570483.14912528
 20
456810.7884381006
 10
1570469.661176673
 20
456793.2593250807
 10
1570455.510571532
 20
456776.9640376272
 10
1570440.653180591
 20
456762.1903846585
 10
1570425.044874584
 20
456749.2261750923
 10
1570408.641524245
 20
456738.3592178472
 10
1570391.399000311
 20
456729.877321841
 10
1570373.3062884
 20
456723.9757680439
 10
1570354.48483369
 20
456720.4797256333
 10
1570335.089196241
 20
456719.1218358384
 10
1570315.273936117
 20
456719.6347398891
 10
1570295.193613379
 20
456721.7510790142
 10
1570275.00278809
 20
456725.2034944435
 10
1570254.856020311
 20
456729.7246274063
 10
1570234.907870105
 20
456735.0471191319
 10
1570215.312897534
 20
456740.9036108495
 10
1570196.225662662
 20
456747.0267437888
 10
1570177.782344333
 20
456753.1663325193
 10
1570160.045596541
 20
456759.1408849717
 10
1570143.059692059
 20
456764.7860824169
 10
1570126.868903663
 20
456769.9376061255
 10
1570111.51750413
 20
456774.4311373687
 10
1570097.049766233
 20
456778.1023574172
 10
1570083.509962749
 20
456780.7869475418
 10
1570070.942366454
 20
456782.3205890137
 10
1570059.391250121
 20
456782.5389631035
 10
1570048.900886528
 20
456781.2777510821
 10
1570039.508169654
 20
456778.4239868131
 10
1570031.220478294
 20
456774.0701145305
 10
1570024.037812449
 20
456768.3599310611
 10
1570017.960172118
 20
456761.4372332317
 10
1570012.987557303
 20
456753.4458178687
 10
1570009.119968001
 20
456744.529481799
 10
1570006.357404215
 20
456734.8320218492
 10
1570004.699865943
 20
456724.4972348463
 10
1570004.147353186
 20
456713.6689176166
 10
1570004.699865943
 20
456702.490866987
 10
1570006.327936868
 20
456691.0829136467
 10
1570008.884229225
 20
456679.4690237331
 10
1570012.191938932
 20
456667.6491972462
 10
1570016.074261907
 20
456655.6234341862
 10
1570020.354394067
 20
456643.391734553
 10
1570024.85553133
 20
456630.9540983466
 10
1570029.400869613
 20
456618.310525567
 10
1570033.813604835
 20
456605.4610162143
 10
1570037.916932913
 20
456592.4055702885
 10
1570041.534049764
 20
456579.1441877893
 10
1570044.52498549
 20
456565.6837332695
 10
1570046.897106928
 20
456552.0585294911
 10
1570048.694615099
 20
456538.3097637687
 10
1570049.961711022
 20
456524.4786234172
 10
1570050.742595719
 20
456510.606295751
 10
1570051.08147021
 20
456496.7339680849
 10
1570051.022535516
 20
456482.9028277332
 10
1570050.609992657
 20
456469.154062011
 10
1570049.888042654
 20
456455.5288582327
 10
1570048.900886528
 20
456442.0684037127
 10
1570047.648524278
 20
456428.8070212136
 10
1570045.954151822
 20
456415.7515752877
 10
1570043.596764058
 20
456402.9020659351
 10
1570040.355355882
 20
456390.2584931556
 10
1570036.008922191
 20
456377.820856949
 10
1570030.336457882
 20
456365.5891573159
 10
1570023.116957853
 20
456353.5633942559
 10
1570014.129417001
 20
456341.7435677691
 10
1570003.152830222
 20
456330.1296778553
 10
1569989.966192415
 20
456318.7217245149
 10
1569974.436900516
 20
456307.5299686988
 10
1569956.785959629
 20
456296.6057151633
 10
1569937.322776898
 20
456286.0105296151
 10
1569916.356759466
 20
456275.805977762
 10
1569894.19731448
 20
456266.0536253112
 10
1569871.153849082
 20
456256.8150379695
 10
1569847.535770416
 20
456248.1517814447
 10
1569823.652485626
 20
456240.1254214437
 10
1569799.813401857
 20
456232.797523674
 10
1569776.327926253
 20
456226.2296538424
 10
1569753.446531263
 20
456220.4765609407
 10
1569731.183950562
 20
456215.5657270968
 10
1569709.495983128
 20
456211.5178177229
 10
1569688.338427942
 20
456208.3534982314
 10
1569667.667083981
 20
456206.0934340343
 10
1569647.437750227
 20
456204.7582905441
 10
1569627.606225657
 20
456204.3687331726
 10
1569608.128309253
 20
456204.9454273325
 10
1569588.959799992
 20
456206.5090384357
 10
1569570.056496856
 20
456209.0802318945
 10
1569551.388932495
 20
456212.6351133261
 10
1569532.986574259
 20
456216.9715491672
 10
1569514.893623165
 20
456221.8428460591
 10
1569497.154280238
 20
456227.0023106438
 10
1569479.812746494
 20
456232.2032495626
 10
1569462.913222957
 20
456237.1989694574
 10
1569446.499910647
 20
456241.7427769697
 10
1569430.617010583
 20
456245.5879787409
 10
1569415.308723787
 20
456248.4878814128
 10
1569400.619251279
 20
456250.1957916271
 10
1569386.618578009
 20
456250.5163925361
 10
1569373.47982464
 20
456249.4598733365
 10
1569361.401895765
 20
456247.0877997349
 10
1569350.583695977
 20
456243.4617374391
 10
1569341.224129868
 20
456238.6432521561
 10
1569333.522102031
 20
456232.6939095931
 10
1569327.676517059
 20
456225.6752754575
 10
1569323.886279543
 20
456217.6489154566
 10
1569322.350294078
 20
456208.6763952974
 10
1569323.267465255
 20
456198.8192806873
 10
1569326.69304435
 20
456188.1597309908
 10
1569332.107669372
 20
456176.8622802017
 10
1569338.848325011
 20
456165.1120559714
 10
1569346.25199596
 20
456153.0941859508
 10
1569353.655666907
 20
456140.993797791
 10
1569360.396322547
 20
456128.9960191435
 10
1569365.810947568
 20
456117.285977659
 10
1569369.236526664
 20
456106.048800989
 10
1569370.010044524
 20
456095.4696167844
 10
1569367.46848584
 20
456085.7335526967
 10
1569361.136701601
 20
456077.0051546785
 10
1569351.291007979
 20
456069.3666418904
 10
1569338.395587447
 20
456062.8796517944
 10
1569322.914622476
 20
456057.6058218525
 10
1569305.312295536
 20
456053.6067895273
 10
1569286.052789099
 20
456050.9441922805
 10
1569265.600285635
 20
456049.6796675744
 10
1569244.418967617
 20
456049.8748528711
 10
1569222.973017513
 20
456051.591385633
 10
1569201.726617796
 20
456054.890903322
 10
1569181.051829601
 20
456059.756244557
 10
1569160.952228712
 20
456065.855052584
 10
1569141.339269579
 20
456072.7761718056
 10
1569122.124406651
 20
456080.1084466246
 10
1569103.219094377
 20
456087.4407214436
 10
1569084.534787205
 20
456094.3618406652
 10
1569065.982939586
 20
456100.4606486922
 10
1569047.475005968
 20
456105.3259899273
 10
1569028.922440799
 20
456108.546708773
 10
1569010.23669853
 20
456109.7116496322
 10
1568991.384520762
 20
456108.5124577657
 10
1568972.55379771
 20
456105.051981869
 10
1568953.987706742
 20
456099.5358714954
 10
1568935.929425227
 20
456092.1697761986
 10
1568918.622130532
 20
456083.1593455319
 10
1568902.309000026
 20
456072.7102290492
 10
1568887.233211077
 20
456061.028076304
 10
1568873.637941052
 20
456048.3185368499
 10
1568861.766367321
 20
456034.7872602402
 10
1568851.861667251
 20
456020.6398960287
 10
1568844.085971046
 20
456006.047794925
 10
1568838.277220257
 20
455991.0451122632
 10
1568834.192309272
 20
455975.6317045336
 10
1568831.588132475
 20
455959.8074282262
 10
1568830.221584256
 20
455943.5721398312
 10
1568829.849558999
 20
455926.925695839
 10
1568830.228951093
 20
455909.8679527397
 10
1568831.116654923
 20
455892.3987670232
 10
1568832.269564877
 20
455874.5179951802
 10
1568833.44457534
 20
455856.2254937007
 10
1568834.409630956
 20
455837.545133049
 10
1568834.976877387
 20
455818.5968395876
 10
1568834.976877387
 20
455799.5245536528
 10
1568834.210726364
 20
455780.4722155811
 10
1568832.523720745
 20
455761.5837657093
 10
1568829.731689611
 20
455743.0031443737
 10
1568825.65782888
 20
455724.8742919107
 10
1568820.12533447
 20
455707.3411486571
 10
1568812.957402299
 20
455690.5476549491
 10
1568803.977228284
 20
455674.6377511235
 10
1568793.052209362
 20
455659.7211265094
 10
1568780.226546556
 20
455645.7704664068
 10
1568765.588641905
 20
455632.7242051085
 10
1568749.226897452
 20
455620.5207769074
 10
1568731.229715237
 20
455609.0986160959
 10
1568711.685497301
 20
455598.3961569671
 10
1568690.682645687
 20
455588.3518338137
 10
1568668.309562434
 20
455578.9040809282
 10
1568644.654649584
 20
455569.9913326039
 10
1568619.806309178
 20
455561.552023133
 10
1568593.856626677
 20
455553.5622342143
 10
1568566.912421212
 20
455546.1486371714
 10
1568539.084195335
 20
455539.4755507331
 10
1568510.482451598
 20
455533.7072936283
 10
1568481.217692552
 20
455529.0081845865
 10
1568451.400420749
 20
455525.5425423367
 10
1568421.14113874
 20
455523.474685608
 10
1568390.550349077
 20
455522.9689331295
 10
1568359.738554311
 20
455524.1896036303
 10
1568328.816256993
 20
455527.3010158397
 10
1568297.916060186
 20
455532.4058629836
 10
1568267.258968991
 20
455539.3603362762
 10
1568237.088089024
 20
455547.9590014289
 10
1568207.646525896
 20
455557.9964241524
 10
1568179.17738522
 20
455569.2671701581
 10
1568151.923772611
 20
455581.5658051572
 10
1568126.128793681
 20
455594.6868948606
 10
1568102.035554044
 20
455608.4250049798
 10
1568079.887159312
 20
455622.5747012256
 10
1568059.9267151
 20
455636.9305493094
 10
1568042.286836427
 20
455651.293919699
 10
1568026.658175946
 20
455665.4934018887
 10
1568012.620895715
 20
455679.36439013
 10
1567999.755157795
 20
455692.7422786741
 10
1567987.641124245
 20
455705.4624617723
 10
1567975.858957124
 20
455717.360333676
 10
1567963.98881849
 20
455728.2712886362
 10
1567951.610870404
 20
455738.0307209043
 10
1567938.305274925
 20
455746.4740247315
 10
1567923.652194113
 20
455753.4365943691
 10
1567907.334889863
 20
455758.7881348714
 10
1567889.449023422
 20
455762.5355945048
 10
1567870.193355872
 20
455764.7202323392
 10
1567849.766648296
 20
455765.3833074437
 10
1567828.367661777
 20
455764.566078888
 10
1567806.195157398
 20
455762.3098057417
 10
1567783.447896242
 20
455758.6557470744
 10
1567760.324639391
 20
455753.6451619554
 10
1567737.024147928
 20
455747.3193094544
 10
1567713.745182936
 20
455739.719448641
 10
1567690.69759163
 20
455730.8970756174
 10
1567668.135565758
 20
455720.944634618
 10
1567646.324383195
 20
455709.9648069096
 10
1567625.529321822
 20
455698.0602737591
 10
1567606.015659517
 20
455685.3337164335
 10
1567588.048674157
 20
455671.8878162
 10
1567571.893643622
 20
455657.8252543252
 10
1567557.815845789
 20
455643.2487120765
 10
1567546.080558538
 20
455628.2608707205
 10
1567536.953059746
 20
455612.9644115246
 10
1567530.599163037
 20
455597.4586073975
 10
1567526.786825012
 20
455581.8290978165
 10
1567525.184538015
 20
455566.1581139014
 10
1567525.460794394
 20
455550.5278867715
 10
1567527.284086493
 20
455535.0206475463
 10
1567530.322906658
 20
455519.7186273452
 10
1567534.245747235
 20
455504.7040572879
 10
1567538.721100569
 20
455490.0591684932
 10
1567543.417459006
 20
455475.8661920814
 10
1567548.003314892
 20
455462.2073591717
 10
1567552.15084399
 20
455449.1512076558
 10
1567555.546955738
 20
455436.7115025164
 10
1567557.882242993
 20
455424.8883155082
 10
1567558.847298609
 20
455413.6817183864
 10
1567558.132715443
 20
455403.0917829055
 10
1567555.429086351
 20
455393.1185808206
 10
1567550.427004187
 20
455383.7621838866
 10
1567542.81706181
 20
455375.0226638583
 10
1567532.289852074
 20
455366.9000924909
 10
1567518.535967836
 20
455359.394541539
 10
1567501.338087409
 20
455352.5266285783
 10
1567480.84723095
 20
455346.3991544673
 10
1567457.30650407
 20
455341.1354658852
 10
1567430.959012383
 20
455336.8589095113
 10
1567402.047861502
 20
455333.6928320247
 10
1567370.81615704
 20
455331.7605801043
 10
1567337.507004611
 20
455331.18550043
 10
1567302.363509827
 20
455332.0909396804
 10
1567265.628778302
 20
455334.6002445349
 10
1567227.54591565
 20
455338.8367616726
 10
1567188.380139952
 20
455344.8724253846
 10
1567148.48511917
 20
455352.5735204077
 10
1567108.236633733
 20
455361.7549190911
 10
1567068.01046407
 20
455372.2314937837
 10
1567028.182390613
 20
455383.8181168337
 10
1566989.128193791
 20
455396.3296605909
 10
1566951.223654032
 20
455409.5809974035
 10
1566914.844551769
 20
455423.3869996205
 10
1566880.36666743
 20
455437.5625395908
 10
1566848.165781445
 20
455451.9224896632
 10
1566818.551336836
 20
455466.3091684373
 10
1566791.567426991
 20
455480.6746795146
 10
1566767.19180789
 20
455494.998572748
 10
1566745.402235513
 20
455509.2603979899
 10
1566726.176465839
 20
455523.4397050925
 10
1566709.492254849
 20
455537.5160439086
 10
1566695.327358523
 20
455551.4689642907
 10
1566683.659532841
 20
455565.2780160911
 10
1566674.466533781
 20
455578.9227491624
 10
1566667.726117325
 20
455592.3827133571
 10
1566663.323989869
 20
455605.6442872026
 10
1566660.777659485
 20
455618.7211639264
 10
1566659.512584658
 20
455631.6338654308
 10
1566658.954223876
 20
455644.4029136184
 10
1566658.528035626
 20
455657.0488303915
 10
1566657.659478396
 20
455669.5921376524
 10
1566655.774010673
 20
455682.0533573038
 10
1566652.297090944
 20
455694.4530112479
 10
1566646.654177696
 20
455706.8116213872
 10
1566638.270729418
 20
455719.1497096241
 10
1566626.737946464
 20
455731.4638197639
 10
1566612.309996661
 20
455743.6545832246
 10
1566595.406789706
 20
455755.5986533269
 10
1566576.448235293
 20
455767.1726833918
 10
1566555.854243119
 20
455778.2533267397
 10
1566534.044722878
 20
455788.7172366917
 10
1566511.439584267
 20
455798.4410665683
 10
1566488.458736982
 20
455807.3014696907
 10
1566465.522090716
 20
455815.1750993796
 10
1566443.049555167
 20
455821.9386089557
 10
1566421.380004825
 20
455827.5587174589
 10
1566400.528173364
 20
455832.3624068062
 10
1566380.427759253
 20
455836.7667246338
 10
1566361.012460961
 20
455841.1887185779
 10
1566342.215976957
 20
455846.0454362744
 10
1566323.97200571
 20
455851.7539253597
 10
1566306.214245691
 20
455858.7312334695
 10
1566288.876395366
 20
455867.3944082403
 10
1566271.892153206
 20
455878.1604973081
 10
1566255.19521768
 20
455891.4465483089
 10
1566238.77518752
 20
455907.5475079877
 10
1566222.845262512
 20
455926.2699195236
 10
1566207.674542704
 20
455947.2982252047
 10
1566193.532128146
 20
455970.3168673188
 10
1566180.687118885
 20
455995.0102881541
 10
1566169.408614972
 20
456021.0629299983
 10
1566159.965716454
 20
456048.1592351396
 10
1566152.62752338
 20
456075.9836458658
 10
1566147.6631358
 20
456104.2206044649
 10
1566145.341653761
 20
456132.5545532249
 10
1566145.820900134
 20
456160.7601502399
 10
1566148.813589074
 20
456188.9729168281
 10
1566153.921157556
 20
456217.4185901142
 10
1566160.745042556
 20
456246.3229072226
 10
1566168.886681051
 20
456275.9116052777
 10
1566177.947510015
 20
456306.4104214042
 10
1566187.528966425
 20
456338.0450927264
 10
1566197.232487256
 20
456371.0413563689
 10
1566206.659509484
 20
456405.624949456
 10
1566215.411470086
 20
456442.0216091125
 10
1566223.143373007
 20
456480.3401631074
 10
1566229.724490079
 20
456520.2218017888
 10
1566235.077660101
 20
456561.1908061494
 10
1566239.125721875
 20
456602.7714571822
 10
1566241.791514202
 20
456644.4880358799
 10
1566242.997875882
 20
456685.8648232351
 10
1566242.667645717
 20
456726.4261002408
 10
1566240.723662508
 20
456765.6961478898
 10
1566237.088765055
 20
456803.1992471747
 10
1566231.685792159
 20
456838.4596790884
 10
1566224.460153073
 20
456871.0907183893
 10
1566215.447538851
 20
456901.0616148972
 10
1566204.706210999
 20
456928.4306121979
 10
1566192.294431023
 20
456953.255953877
 10
1566178.270460428
 20
456975.5958835201
 10
1566162.69256072
 20
456995.5086447126
 10
1566145.618993406
 20
457013.0524810402
 10
1566127.108019991
 20
457028.2856360885
 10
1566107.21790198
 20
457041.2663534431
 10
1566086.00690088
 20
457052.0528766896
 10
1566063.560798322
 20
457060.7390504434
 10
1566040.075456436
 20
457067.5611234407
 10
1566015.77425748
 20
457072.7909454467
 10
1565990.880583711
 20
457076.7003662275
 10
1565965.617817385
 20
457079.561235549
 10
1565940.20934076
 20
457081.6454031767
 10
1565914.878536092
 20
457083.2247188763
 10
1565889.848785637
 20
457084.571032414
 10
1565865.343471653
 20
457085.9561935551
 10
1565841.585976397
 20
457087.6520520658
 10
1565818.73331597
 20
457089.8738211844
 10
1565796.677041857
 20
457092.6101680418
 10
1565775.24233939
 20
457095.7931232416
 10
1565754.254393899
 20
457099.3547173872
 10
1565733.538390713
 20
457103.2269810824
 10
1565712.919515164
 20
457107.341944931
 10
1565692.222952581
 20
457111.631639536
 10
1565671.273888296
 20
457116.0280955016
 10
1565649.897507639
 20
457120.463343431
 10
1565627.91899594
 20
457124.869413928
 10
1565605.229064078
 20
457129.1356574479
 10
1565581.980525122
 20
457132.9807038529
 10
1565558.391717691
 20
457136.0805028567
 10
1565534.680980401
 20
457138.1110041733
 10
1565511.06665187
 20
457138.7481575164
 10
1565487.767070717
 20
457137.6679125999
 10
1565465.000575559
 20
457134.5462191378
 10
1565442.985505013
 20
457129.0590268438
 10
1565421.940197697
 20
457120.8822854319
 10
1565402.082992229
 20
457109.6919446157
 10
1565383.555826221
 20
457095.3193133852
 10
1565366.195033254
 20
457078.2171378334
 10
1565349.760545909
 20
457058.9935233294
 10
1565334.01229676
 20
457038.2565752422
 10
1565318.710218386
 20
457016.6143989407
 10
1565303.614243364
 20
456994.6750997941
 10
1565288.484304272
 20
456973.0467831715
 10
1565273.080333686
 20
456952.3375544418
 10
1565257.162264184
 20
456933.1555189738
 10
1565240.490028343
 20
456916.1087821371
 10
1565222.913291305
 20
456901.6446817779
 10
1565204.640648476
 20
456889.567485654
 10
1565185.970427821
 20
456879.5206940012
 10
1565167.200957312
 20
456871.1478070546
 10
1565148.630564916
 20
456864.0923250498
 10
1565130.557578603
 20
456857.9977482221
 10
1565113.280326341
 20
456852.5075768071
 10
1565097.097136098
 20
456847.2653110402
 10
1565082.306335845
 20
456841.9144511568
 10
1565069.206253549
 20
456836.0984973923
 10
1565057.97919432
 20
456829.5511853406
 10
1565048.343371833
 20
456822.3671920298
 10
1565039.900976901
 20
456814.7314298463
 10
1565032.25420034
 20
456806.8288111764
 10
1565025.005232964
 20
456798.8442484067
 10
1565017.756265588
 20
456790.9626539237
 10
1565010.109489027
 20
456783.3689401136
 10
1565001.667094095
 20
456776.248019363
 10
1564992.031271607
 20
456769.7848040583
 10
1564980.804212378
 20
456764.164206586
 10
1564967.698609775
 20
456759.5574580643
 10
1564952.869167369
 20
456756.0810645381
 10
1564936.581091283
 20
456753.8378507841
 10
1564919.099587642
 20
456752.9306415795
 10
1564900.689862568
 20
456753.4622617007
 10
1564881.617122185
 20
456755.5355359246
 10
1564862.146572617
 20
456759.253289028
 10
1564842.543419988
 20
456764.7183457878
 10
1564823.07287042
 20
456772.0335309807
 10
1564804.000130038
 20
456781.3016693832
 10
1564785.553570781
 20
456792.5844582537
 10
1564767.814227852
 20
456805.7790847742
 10
1564750.826302274
 20
456820.7416086082
 10
1564734.633995066
 20
456837.3280894195
 10
1564719.281507249
 20
456855.3945868712
 10
1564704.813039845
 20
456874.797160627
 10
1564691.272793872
 20
456895.3918703502
 10
1564678.704970352
 20
456917.0347757046
 10
1564667.153770306
 20
456939.5819363534
 10
1564656.663394754
 20
456962.8894119603
 10
1564647.263311043
 20
456986.8201387002
 10
1564638.924051825
 20
457011.2645587946
 10
1564631.601416082
 20
457036.1199909767
 10
1564625.251202791
 20
457061.2837539791
 10
1564619.829210933
 20
457086.653166535
 10
1564615.291239486
 20
457112.1255473777
 10
1564611.593087431
 20
457137.59821524
 10
1564608.690553746
 20
457162.9684888548
 10
1564606.53943741
 20
457188.1336869554
 10
1564605.095537405
 20
457212.9911282745
 10
1564604.314652708
 20
457237.4483685784
 10
1564604.152582299
 20
457261.4539117644
 10
1564604.565125158
 20
457284.966498763
 10
1564605.508080263
 20
457307.9448705047
 10
1564606.937246596
 20
457330.3477679201
 10
1564608.808423133
 20
457352.1339319393
 10
1564611.077408857
 20
457373.262103493
 10
1564613.700002745
 20
457393.6910235118
 10
1564616.632003777
 20
457413.3794329259
 10
1564619.829210933
 20
457432.2860726657
 10
1564623.232689518
 20
457450.3937095956
 10
1564626.724570144
 20
457467.7812143134
 10
1564630.17224975
 20
457484.5514833508
 10
1564633.443125273
 20
457500.8074132396
 10
1564636.404593652
 20
457516.6519005115
 10
1564638.924051826
 20
457532.1878416981
 10
1564640.868896732
 20
457547.5181333312
 10
1564642.106525308
 20
457562.7456719425
 10
1564642.504334493
 20
457577.9733540635
 10
1564641.929721226
 20
457593.304076226
 10
1564640.272182954
 20
457608.7790377036
 10
1564637.509619167
 20
457624.192648739
 10
1564633.642029866
 20
457639.277622316
 10
1564628.66941505
 20
457653.766671419
 10
1564622.59177472
 20
457667.3925090324
 10
1564615.409108874
 20
457679.8878481404
 10
1564607.121417515
 20
457690.9854017272
 10
1564597.72870064
 20
457700.4178827773
 10
1564587.230958251
 20
457707.9180042749
 10
1564575.628190348
 20
457713.2184792042
 10
1564562.935142562
 20
457716.1685146355
 10
1564549.225543058
 20
457717.0832939824
 10
1564534.587865631
 20
457716.394494745
 10
1564519.110584079
 20
457714.5337944228
 10
1564502.882172195
 20
457711.9328705156
 10
1564485.991103778
 20
457709.0234005232
 10
1564468.525852622
 20
457706.2370619453
 10
1564450.574892524
 20
457704.0055322816
 10
1564432.22669728
 20
457702.7604890317
 10
1564413.569740686
 20
457702.9336096957
 10
1564394.696144079
 20
457704.8812171653
 10
1564375.71261896
 20
457708.6582159007
 10
1564356.72952437
 20
457714.2441557547
 10
1564337.857219352
 20
457721.6185865794
 10
1564319.206062946
 20
457730.7610582277
 10
1564300.886414194
 20
457741.6511205518
 10
1564283.008632139
 20
457754.2683234043
 10
1564265.683075822
 20
457768.5922166375
 10
1564249.020104283
 20
457784.6023501044
 10
1564233.130076566
 20
457802.278273657
 10
1564218.086553405
 20
457821.6200590503
 10
1564203.81590231
 20
457842.7098656489
 10
1564190.207692484
 20
457865.65037472
 10
1564177.151493132
 20
457890.5442675301
 10
1564164.536873456
 20
457917.4942253465
 10
1564152.25340266
 20
457946.6029294362
 10
1564140.190649947
 20
457977.9730610662
 10
1564128.238184521
 20
458011.7073015031
 10
1564116.285575585
 20
458047.9083320144
 10
1564104.222392343
 20
458086.6788338667
 10
1564092.008176988
 20
458127.9810281034
 10
1564079.882363674
 20
458171.2152948731
 10
1564068.154359546
 20
458215.6415541005
 10
1564057.133571746
 20
458260.5197257104
 10
1564047.129407421
 20
458305.1097296277
 10
1564038.451273712
 20
458348.6714857772
 10
1564031.408577766
 20
458390.4649140836
 10
1564026.310726725
 20
458429.7499344719
 10
1564023.467127734
 20
458465.7864668666
 10
1564023.187187937
 20
458497.8344311929
 10
1564025.677178764
 20
458525.3422116295
 10
1564030.730828784
 20
458548.5120493722
 10
1564038.038730854
 20
458567.7346498708
 10
1564047.29147783
 20
458583.400718575
 10
1564058.179662567
 20
458595.9009609347
 10
1564070.393877922
 20
458605.6260823997
 10
1564083.624716751
 20
458612.96678842
 10
1564097.562771908
 20
458618.313784445
 10
1564111.898636251
 20
458622.0577759248
 10
1564126.322902636
 20
458624.5894683094
 10
1564140.574036397
 20
458626.2447104243
 10
1564154.58199279
 20
458627.139924601
 10
1564168.32459955
 20
458627.3366765466
 10
1564181.779684411
 20
458626.8965319682
 10
1564194.925075109
 20
458625.8810565731
 10
1564207.738599377
 20
458624.3518160687
 10
1564220.198084951
 20
458622.3703761622
 10
1564232.281359567
 20
458619.9983025607
 10
1564243.966250957
 20
458617.2971609715
 10
1564255.230586858
 20
458614.328517102
 10
1564266.066964555
 20
458611.164233488
 10
1564276.527059538
 20
458607.91735998
 10
1564286.677316848
 20
458604.7112432569
 10
1564296.584181524
 20
458601.6692299985
 10
1564306.314098609
 20
458598.9146668838
 10
1564315.933513142
 20
458596.5709005917
 10
1564325.508870164
 20
458594.7612778016
 10
1564335.106614716
 20
458593.6091451929
 10
1564344.793191839
 20
458593.2378494445
 10
1564354.635046572
 20
458593.7707372357
 10
1564364.647020223
 20
458595.3140417012
 10
1564374.637539158
 20
458597.9055417977
 10
1564384.363426009
 20
458601.5659029375
 10
1564393.581503407
 20
458606.3157905328
 10
1564402.048593985
 20
458612.1758699955
 10
1564409.521520374
 20
458619.1668067384
 10
1564415.757105207
 20
458627.3092661733
 10
1564420.512171114
 20
458636.6239137126
 10
1564423.543540728
 20
458647.1314147686
 10
1564424.608036682
 20
458658.8524347532
 10
1564423.528807055
 20
458671.7733402348
 10
1564420.394301726
 20
458685.7433024065
 10
1564415.359296021
 20
458700.5771936168
 10
1564408.578565269
 20
458716.0898862147
 10
1564400.206884794
 20
458732.0962525491
 10
1564390.399029925
 20
458748.4111649685
 10
1564379.309775989
 20
458764.8494958222
 10
1564367.093898312
 20
458781.2261174589
 10
1564353.906172222
 20
458797.3559022272
 10
1564339.901373044
 20
458813.0537224763
 10
1564325.23424023
 20
458828.1858629432
 10
1564310.059369718
 20
458842.8242579188
 10
1564294.53132157
 20
458857.0922540823
 10
1564278.80465585
 20
458871.113198113
 10
1564263.033932619
 20
458885.0104366898
 10
1564247.37371194
 20
458898.9073164921
 10
1564231.978553873
 20
458912.9271841993
 10
1564217.003018484
 20
458927.1933864901
 10
1564202.601665832
 20
458941.8292700442
 10
1564188.929055981
 20
458956.9581815405
 10
1564176.102950686
 20
458972.6726489272
 10
1564164.093918477
 20
458988.9419252281
 10
1564152.835729579
 20
459005.7044447359
 10
1564142.262154217
 20
459022.8986417435
 10
1564132.306962613
 20
459040.4629505438
 10
1564122.903924991
 20
459058.3358054291
 10
1564113.986811577
 20
459076.4556406925
 10
1564105.489392593
 20
459094.7608906264
 10
1564097.345438265
 20
459113.1899895242
 10
1564089.488718815
 20
459131.6813716782
 10
1564081.893510111
 20
459150.2042661939
 10
1564074.696110592
 20
459168.8510814281
 10
1564068.073324341
 20
459187.74502055
 10
1564062.20195544
 20
459207.0092867293
 10
1564057.258807971
 20
459226.7670831351
 10
1564053.420686017
 20
459247.1416129369
 10
1564050.86439366
 20
459268.2560793042
 10
1564049.766734982
 20
459290.2336854061
 10
1564050.304514066
 20
459313.1976344123
 10
1564052.654534994
 20
459337.2711294919
 10
1564056.942022031
 20
459362.5020311657
 10
1564063.085880178
 20
459388.6368293596
 10
1564070.953434619
 20
459415.3466713506
 10
1564080.412010536
 20
459442.3027044155
 10
1564091.328933112
 20
459469.1760758315
 10
1564103.571527531
 20
459495.6379328759
 10
1564117.007118977
 20
459521.3594228253
 10
1564131.503032633
 20
459546.0116929571
 10
1564146.926593681
 20
459569.2658905479
 10
1564163.145127306
 20
459590.7931628752
 10
1564180.025994568
 20
459610.3434560592
 10
1564197.436700038
 20
459627.9819115929
 10
1564215.244784164
 20
459643.8524698131
 10
1564233.317787393
 20
459658.0990710562
 10
1564251.523250175
 20
459670.8656556588
 10
1564269.728712957
 20
459682.2961639572
 10
1564287.801716186
 20
459692.5345362882
 10
1564305.609800312
 20
459701.7247129882
 10
1564323.020505782
 20
459710.0106343936
 10
1564339.901373044
 20
459717.5362408409
 10
1564356.134640342
 20
459724.4557455772
 10
1564371.661337105
 20
459730.9644534908
 10
1564386.437190558
 20
459737.2679423801
 10
1564400.417927925
 20
459743.5717900441
 10
1564413.559276429
 20
459750.0815742811
 10
1564425.816963297
 20
459757.0028728901
 10
1564437.146715752
 20
459764.5412636695
 10
1564447.504261018
 20
459772.902324418
 10
1564456.845326321
 20
459782.2916329344
 10
1564465.125638885
 20
459792.9147670174
 10
1564472.337772077
 20
459804.9190394838
 10
1564478.621683836
 20
459818.2187032239
 10
1564484.154178247
 20
459832.6697461464
 10
1564489.112059389
 20
459848.1281561597
 10
1564493.672131346
 20
459864.4499211726
 10
1564498.0111982
 20
459881.4910290935
 10
1564502.306064034
 20
459899.1074678311
 10
1564506.733532929
 20
459917.1552252938
 10
1564511.470408968
 20
459935.4902893904
 10
1564516.693496234
 20
459953.9686480293
 10
1564522.572231972
 20
459972.45317759
 10
1564529.24658608
 20
459990.8343083348
 10
1564536.849161621
 20
460009.0093589963
 10
1564545.512561656
 20
460026.875648308
 10
1564555.369389246
 20
460044.3304950029
 10
1564566.552247454
 20
460061.2712178135
 10
1564579.193739342
 20
460077.5951354736
 10
1564593.42646797
 20
460093.1995667156
 10
1564609.383036402
 20
460107.9818302729
 10
1564627.196047697
 20
460121.8392448783
 10
1564646.931803388
 20
460134.6725376228
 10
1564668.391398882
 20
460146.3960690291
 10
1564691.309628056
 20
460156.9276079777
 10
1564715.421284785
 20
460166.1849233489
 10
1564740.461162946
 20
460174.0857840237
 10
1564766.164056417
 20
460180.5479588823
 10
1564792.264759072
 20
460185.4892168053
 10
1564818.49806479
 20
460188.8273266731
 10
1564844.598767445
 20
460190.4800573666
 10
1564870.301660915
 20
460190.365177766
 10
1564895.400473771
 20
460188.4792436361
 10
1564919.924673359
 20
460185.1339582778
 10
1564943.962661721
 20
460180.7198118762
 10
1564967.602840897
 20
460175.6272946166
 10
1564990.933612929
 20
460170.2468966839
 10
1565014.043379858
 20
460164.9691082632
 10
1565037.020543726
 20
460160.1844195399
 10
1565059.953506573
 20
460156.2833206986
 10
1565082.930670441
 20
460153.6563019249
 10
1565106.04043737
 20
460152.6938534036
 10
1565129.35646377
 20
460153.635744145
 10
1565152.893423517
 20
460156.1188584597
 10
1565176.651244858
 20
460159.6293594835
 10
1565200.629856037
 20
460163.6534103518
 10
1565224.829185299
 20
460167.6771742006
 10
1565249.249160889
 20
460171.1868141655
 10
1565273.889711053
 20
460173.6684933821
 10
1565298.750764036
 20
460174.6083749863
 10
1565323.832248082
 20
460173.4926221135
 10
1565349.134091438
 20
460169.8073978996
 10
1565374.648891387
 20
460163.1861782975
 10
1565400.33992138
 20
460153.8516905273
 10
1565426.163123906
 20
460142.173974627
 10
1565452.074441452
 20
460128.523070634
 10
1565478.02981651
 20
460113.269018586
 10
1565503.985191567
 20
460096.7818585204
 10
1565529.896509114
 20
460079.431630475
 10
1565555.719711639
 20
460061.5883744873
 10
1565581.410741632
 20
460043.622130595
 10
1565606.925541582
 20
460025.9029388356
 10
1565632.2200181
 20
460008.7939746942
 10
1565657.249934289
 20
459992.6309554463
 10
1565681.971017373
 20
459977.7427338149
 10
1565706.338994577
 20
459964.4581625227
 10
1565730.309593125
 20
459953.106094293
 10
1565753.838540242
 20
459944.0153818485
 10
1565776.881563152
 20
459937.5148779123
 10
1565799.394389079
 20
459933.9334352072
 10
1565821.332745249
 20
459933.5999064564
 10
1565842.652358885
 20
459936.8431443827
 10
1565863.257401315
 20
459943.8549618025
 10
1565882.845820271
 20
459954.2790119055
 10
1565901.064007588
 20
459967.6219079751
 10
1565917.558355103
 20
459983.3902632942
 10
1565931.975254651
 20
460001.0906911463
 10
1565943.961098066
 20
460020.2298048146
 10
1565953.162277185
 20
460040.3142175823
 10
1565959.225183842
 20
460060.8505427324
 10
1565961.796209872
 20
460081.3453935483
 10
1565960.521747112
 20
460101.3053833131
 10
1565955.180790458
 20
460120.3365058516
 10
1565946.082747054
 20
460138.4422771539
 10
1565933.669627107
 20
460155.7255937517
 10
1565918.383440821
 20
460172.2893521768
 10
1565900.666198403
 20
460188.2364489607
 10
1565880.959910059
 20
460203.6697806353
 10
1565859.706585994
 20
460218.6922437321
 10
1565837.348236415
 20
460233.4067347831
 10
1565814.326871527
 20
460247.9161503195
 10
1565791.084501536
 20
460262.3233868734
 10
1565768.052086393
 20
460276.7004624495
 10
1565745.616385027
 20
460290.9958809452
 10
1565724.153106115
 20
460305.1272677315
 10
1565704.03795833
 20
460319.0122481791
 10
1565685.646650349
 20
460332.5684476586
 10
1565669.354890845
 20
460345.7134915407
 10
1565655.538388493
 20
460358.3650051963
 10
1565644.57285197
 20
460370.4406139959
 10
1565636.833989949
 20
460381.8579433105
 10
1565632.697511106
 20
460392.5346185106
 10
1565632.435988401
 20
460402.3917331208
 10
1565635.909451935
 20
460411.3642532798
 10
1565642.874796096
 20
460419.3906132809
 10
1565653.088915269
 20
460426.4092474164
 10
1565666.308703843
 20
460432.3585899794
 10
1565682.291056202
 20
460437.1770752623
 10
1565700.792866736
 20
460440.8031375583
 10
1565721.571029829
 20
460443.1752111596
 10
1565744.38243987
 20
460444.2317303596
 10
1565768.983991243
 20
460443.9111294505
 10
1565795.158362267
 20
460442.1860817733
 10
1565822.79136697
 20
460439.1662168619
 10
1565851.794603309
 20
460434.9954032975
 10
1565882.079669247
 20
460429.8175096617
 10
1565913.558162741
 20
460423.7764045364
 10
1565946.141681749
 20
460417.0159565028
 10
1565979.74182423
 20
460409.6800341429
 10
1566014.270188144
 20
460401.9125060382
 10
1566049.638371449
 20
460393.8572407701
 10
1566085.757972103
 20
460385.6581069207
 10
1566122.525842435
 20
460377.4726902167
 10
1566159.779852237
 20
460369.5134449688
 10
1566197.343125674
 20
460362.006542633
 10
1566235.038786907
 20
460355.178154665
 10
1566272.689960101
 20
460349.2544525209
 10
1566310.119769417
 20
460344.4616076568
 10
1566347.151339019
 20
460341.0257915284
 10
1566383.607793068
 20
460339.1731755921
 10
1566419.312255729
 20
460339.1731755921
 10
1566454.087851163
 20
460341.1222301189
 10
1566487.809307268
 20
460345.3076936427
 10
1566520.557766881
 20
460351.5697440754
 10
1566552.465976573
 20
460359.7232537655
 10
1566583.666682917
 20
460369.5830950619
 10
1566614.292632483
 20
460380.9641403136
 10
1566644.476571843
 20
460393.6812618693
 10
1566674.351247569
 20
460407.5493320778
 10
1566704.049406232
 20
460422.3832232882
 10
1566733.703794404
 20
460437.9978078491
 10
1566763.447158657
 20
460454.2079581095
 10
1566793.379058918
 20
460470.8491400756
 10
1566823.466308546
 20
460487.8391943826
 10
1566853.642534254
 20
460505.1165553234
 10
1566883.841362757
 20
460522.6196571908
 10
1566913.996420768
 20
460540.2869342775
 10
1566944.041335002
 20
460558.0568208763
 10
1566973.909732174
 20
460575.8677512798
 10
1567003.535238998
 20
460593.6581597812
 10
1567032.851482187
 20
460611.3664806726
 10
1567061.792088456
 20
460628.9311482473
 10
1567090.21702811
 20
460646.2871525624
 10
1567117.691645822
 20
460663.3557067339
 10
1567143.707629855
 20
460680.0545796423
 10
1567167.756668472
 20
460696.3015401682
 10
1567189.330449935
 20
460712.0143571922
 10
1567207.92066251
 20
460727.1107995945
 10
1567223.018994459
 20
460741.5086362561
 10
1567234.117134043
 20
460755.1256360571
 10
1567240.706769529
 20
460767.8795678782
 10
1567242.279589178
 20
460779.6882006002
 10
1567238.474629949
 20
460790.5241118905
 10
1567229.520323576
 20
460800.5791145655
 10
1567215.79245049
 20
460810.0998302285
 10
1567197.66679112
 20
460819.3328804834
 10
1567175.519125896
 20
460828.5248869332
 10
1567149.72523525
 20
460837.922471182
 10
1567120.660899608
 20
460847.7722548327
 10
1567088.701899404
 20
460858.3208594892
 10
1567054.224015065
 20
460869.8149067547
 10
1567017.603027021
 20
460882.501018233
 10
1566979.25151401
 20
460896.5641541469
 10
1566939.729247992
 20
460911.9426291977
 10
1566899.632799236
 20
460928.5130967061
 10
1566859.55873801
 20
460946.1522099932
 10
1566820.103634582
 20
460964.7366223796
 10
1566781.864059221
 20
460984.1429871861
 10
1566745.436582193
 20
461004.2479577336
 10
1566711.417773768
 20
461024.9281873428
 10
1566680.404204213
 20
461046.0603293346
 10
1566652.992443796
 20
461067.5210370297
 10
1566629.646483643
 20
461089.1972486184
 10
1566610.299998303
 20
461111.0170417691
 10
1566594.754083185
 20
461132.9187790198
 10
1566582.809833695
 20
461154.8408229081
 10
1566574.268345242
 20
461176.7215359718
 10
1566568.930713231
 20
461198.4992807492
 10
1566566.598033072
 20
461220.1124197777
 10
1566567.07140017
 20
461241.4993155954
 10
1566570.151909935
 20
461262.59833074
 10
1566575.640657772
 20
461283.3478277495
 10
1566583.349813263
 20
461303.6861691615
 10
1566593.135842682
 20
461323.5517175142
 10
1566604.866286477
 20
461342.8828353452
 10
1566618.408685096
 20
461361.6178851923
 10
1566633.630578989
 20
461379.6952295937
 10
1566650.399508601
 20
461397.0532310871
 10
1566668.583014382
 20
461413.63025221
 10
1566688.04863678
 20
461429.3646555008
 10
1566708.663916242
 20
461444.194803497
 10
1566730.296393217
 20
461458.0590587366
 10
1566752.824622531
 20
461470.9197618542
 10
1566776.171216519
 20
461482.8351658726
 10
1566800.269801897
 20
461493.887501911
 10
1566825.054005378
 20
461504.1590010892
 10
1566850.457453676
 20
461513.7318945263
 10
1566876.413773507
 20
461522.688413342
 10
1566902.856591583
 20
461531.1107886557
 10
1566929.71953462
 20
461539.0812515867
 10
1566956.936229331
 20
461546.6820332549
 10
1566984.440302431
 20
461553.9953647793
 10
1567012.135925246
 20
461561.1068856375
 10
1567039.809447551
 20
461568.1158687386
 10
1567067.217763732
 20
461575.1249953493
 10
1567094.117768177
 20
461582.236946737
 10
1567120.266355271
 20
461589.5544041684
 10
1567145.420419402
 20
461597.1800489106
 10
1567169.336854957
 20
461605.2165622305
 10
1567191.772556323
 20
461613.766625395
 10
1567212.484417885
 20
461622.9329196712
 10
1567231.229334032
 20
461632.8181263261
 10
1567247.786299659
 20
461643.500984407
 10
1567262.022711706
 20
461654.9644640837
 10
1567273.828067621
 20
461667.1675933061
 10
1567283.091864851
 20
461680.0694000244
 10
1567289.703600848
 20
461693.6289121887
 10
1567293.552773057
 20
461707.8051577488
 10
1567294.528878928
 20
461722.557164655
 10
1567292.52141591
 20
461737.8439608574
 10
1567287.419881451
 20
461753.624574306
 10
1567279.113772999
 20
461769.8580329508
 10
1567267.621507647
 20
461786.5392900305
 10
1567253.47718106
 20
461803.8069999367
 10
1567237.343808546
 20
461821.8357423502
 10
1567219.884405415
 20
461840.8000969508
 10
1567201.761986975
 20
461860.8746434191
 10
1567183.639568535
 20
461882.2339614355
 10
1567166.180165404
 20
461905.0526306803
 10
1567150.046792891
 20
461929.5052308337
 10
1567135.902466303
 20
461955.766341576
 10
1567124.410200951
 20
461984.0105425878
 10
1567116.498577041
 20
462014.3099714653
 10
1567114.158434371
 20
462046.3269974689
 10
1567119.64617764
 20
462079.6215477754
 10
1567135.218211543
 20
462113.753549561
 10
1567163.130940778
 20
462148.2829300027
 10
1567205.640770041
 20
462182.7696162767
 10
1567265.00410403
 20
462216.7735355595
 10
1567343.477347442
 20
462249.8546150279
 10
1567443.316904973
 20
462281.5727818584
 10
1567566.77918132
 20
462311.4879632273
  0
CIRCLE
  5
48
330
2F
100
AcDbEntity
  8
G-IMPT
100
AcDbCircle
 10
1567743.481008873
 20
458798.7041853271
 30
0.0
 40
93.10926852305418
  0
ENDBLK
  5
31
330
2F
100
AcDbEntity
  8
0
100
AcDbBlockEnd
  0
ENDSEC
  0
SECTION
  2
ENTITIES
  0
INSERT
  5
4A
330
17
100
AcDbEntity
  8
0
100
AcDbBlockReference
  2
90 boom_1e_orde - tree 4 plan_dwg-5047598-00_0 Basismaterialen
 10
0.0
 20
0.0
 30
0.0
  0
ENDSEC
  0
SECTION
  2
OBJECTS
  0
DICTIONARY
  5
A
330
0
100
AcDbDictionary
281
1
  3
ACAD_COLOR
350
B
  3
ACAD_GROUP
350
C
  3
ACAD_LAYOUT
350
D
  3
ACAD_MATERIAL
350
E
  3
ACAD_MLEADERSTYLE
350
F
  3
ACAD_MLINESTYLE
350
10
  3
ACAD_PLOTSETTINGS
350
11
  3
ACAD_PLOTSTYLENAME
350
12
  3
ACAD_SCALELIST
350
14
  3
ACAD_TABLESTYLE
350
15
  3
ACAD_VISUALSTYLE
350
16
  3
EZDXF_META
350
2D
  0
DICTIONARY
  5
B
330
A
100
AcDbDictionary
281
1
  0
DICTIONARY
  5
C
330
A
100
AcDbDictionary
281
1
  0
DICTIONARY
  5
D
330
A
100
AcDbDictionary
281
1
  3
Model
350
1A
  3
Layout1
350
1E
  0
DICTIONARY
  5
E
330
A
100
AcDbDictionary
281
1
  3
ByBlock
350
1F
  3
ByLayer
350
20
  3
Global
350
21
  0
DICTIONARY
  5
F
330
A
100
AcDbDictionary
281
1
  3
Standard
350
2C
  0
DICTIONARY
  5
10
330
A
100
AcDbDictionary
281
1
  3
Standard
350
22
  0
DICTIONARY
  5
11
330
A
100
AcDbDictionary
281
1
  0
ACDBDICTIONARYWDFLT
  5
12
330
A
100
AcDbDictionary
281
1
  3
Normal
350
13
100
AcDbDictionaryWithDefault
340
13
  0
ACDBPLACEHOLDER
  5
13
330
12
  0
DICTIONARY
  5
14
330
A
100
AcDbDictionary
281
1
  0
DICTIONARY
  5
15
330
A
100
AcDbDictionary
281
1
  0
DICTIONARY
  5
16
330
A
100
AcDbDictionary
281
1
  0
LAYOUT
  5
1A
330
D
100
AcDbPlotSettings
  1

  4
A3
  6

 40
7.5
 41
20.0
 42
7.5
 43
20.0
 44
420.0
 45
297.0
 46
0.0
 47
0.0
 48
0.0
 49
0.0
140
0.0
141
0.0
142
1.0
143
1.0
 70
1024
 72
1
 73
0
 74
5
  7

 75
16
 76
0
 77
2
 78
300
147
1.0
148
0.0
149
0.0
100
AcDbLayout
  1
Model
 70
1
 71
0
 10
0.0
 20
0.0
 11
420.0
 21
297.0
 12
0.0
 22
0.0
 32
0.0
 14
1e+20
 24
1e+20
 34
1e+20
 15
-1e+20
 25
-1e+20
 35
-1e+20
146
0.0
 13
0.0
 23
0.0
 33
0.0
 16
1.0
 26
0.0
 36
0.0
 17
0.0
 27
1.0
 37
0.0
 76
1
330
17
  0
LAYOUT
  5
1E
330
D
100
AcDbPlotSettings
  1

  4
A3
  6

 40
7.5
 41
20.0
 42
7.5
 43
20.0
 44
420.0
 45
297.0
 46
0.0
 47
0.0
 48
0.0
 49
0.0
140
0.0
141
0.0
142
1.0
143
1.0
 70
0
 72
1
 73
0
 74
5
  7

 75
16
 76
0
 77
2
 78
300
147
1.0
148
0.0
149
0.0
100
AcDbLayout
  1
Layout1
 70
1
 71
1
 10
0.0
 20
0.0
 11
420.0
 21
297.0
 12
0.0
 22
0.0
 32
0.0
 14
1e+20
 24
1e+20
 34
1e+20
 15
-1e+20
 25
-1e+20
 35
-1e+20
146
0.0
 13
0.0
 23
0.0
 33
0.0
 16
1.0
 26
0.0
 36
0.0
 17
0.0
 27
1.0
 37
0.0
 76
1
330
1B
  0
MATERIAL
  5
1F
102
{ACAD_REACTORS
330
E
102
}
330
E
100
AcDbMaterial
  1
ByBlock
  2

 70
0
 40
1.0
 71
1
 41
1.0
 91
-1023410177
 42
1.0
 72
1
  3

 73
1
 74
1
 75
1
 44
0.5
 73
0
 45
1.0
 46
1.0
 77
1
  4

 78
1
 79
1
170
1
 48
1.0
171
1
  6

172
1
173
1
174
1
140
1.0
141
1.0
175
1
  7

176
1
177
1
178
1
143
1.0
179
1
  8

270
1
271
1
272
1
145
1.0
146
1.0
273
1
  9

274
1
275
1
276
1
 42
1.0
 72
1
  3

 73
1
 74
1
 75
1
 94
63
  0
MATERIAL
  5
20
102
{ACAD_REACTORS
330
E
102
}
330
E
100
AcDbMaterial
  1
ByLayer
  2

 70
0
 40
1.0
 71
1
 41
1.0
 91
-1023410177
 42
1.0
 72
1
  3

 73
1
 74
1
 75
1
 44
0.5
 73
0
 45
1.0
 46
1.0
 77
1
  4

 78
1
 79
1
170
1
 48
1.0
171
1
  6

172
1
173
1
174
1
140
1.0
141
1.0
175
1
  7

176
1
177
1
178
1
143
1.0
179
1
  8

270
1
271
1
272
1
145
1.0
146
1.0
273
1
  9

274
1
275
1
276
1
 42
1.0
 72
1
  3

 73
1
 74
1
 75
1
 94
63
  0
MATERIAL
  5
21
102
{ACAD_REACTORS
330
E
102
}
330
E
100
AcDbMaterial
  1
Global
  2

 70
0
 40
1.0
 71
1
 41
1.0
 91
-1023410177
 42
1.0
 72
1
  3

 73
1
 74
1
 75
1
 44
0.5
 73
0
 45
1.0
 46
1.0
 77
1
  4

 78
1
 79
1
170
1
 48
1.0
171
1
  6

172
1
173
1
174
1
140
1.0
141
1.0
175
1
  7

176
1
177
1
178
1
143
1.0
179
1
  8

270
1
271
1
272
1
145
1.0
146
1.0
273
1
  9

274
1
275
1
276
1
 42
1.0
 72
1
  3

 73
1
 74
1
 75
1
 94
63
  0
MLINESTYLE
  5
22
102
{ACAD_REACTORS
330
10
102
}
330
10
100
AcDbMlineStyle
  2
Standard
 70
0
  3

 62
256
 51
90.0
 52
90.0
 71
2
 49
0.5
 62
256
  6
BYLAYER
 49
-0.5
 62
256
  6
BYLAYER
  0
MLEADERSTYLE
  5
2C
102
{ACAD_REACTORS
330
F
102
}
330
F
100
AcDbMLeaderStyle
179
2
170
2
171
1
172
0
 90
2
 40
0.0
 41
0.0
173
1
 91
-1056964608
 92
-2
290
1
 42
2.0
291
1
 43
8.0
  3
Standard
 44
4.0
300

342
29
174
1
175
1
176
0
178
1
 93
-1056964608
 45
4.0
292
0
297
0
 46
4.0
 94
-1056964608
 47
1.0
 49
1.0
140
1.0
294
1
141
0.0
177
0
142
1.0
295
0
296
0
143
3.75
271
0
272
9
273
9
  0
DICTIONARY
  5
2D
330
A
100
AcDbDictionary
280
1
281
1
  3
CREATED_BY_EZDXF
350
2E
  3
WRITTEN_BY_EZDXF
350
4E
  0
DICTIONARYVAR
  5
2E
330
2D
100
DictionaryVariables
280
0
  1
1.4.3 @ 2026-02-13T04:54:15.076328+00:00
  0
DICTIONARYVAR
  5
4E
330
2D
100
DictionaryVariables
280
0
  1
1.4.3 @ 2026-02-13T04:54:15.079332+00:00
  0
ENDSEC
  0
EOF
