  0
SECTION
  2
HEADER
  9
$ACADVER
  1
AC1032
  9
$ACADMAINTVER
 90
4
  9
$DWGCODEPAGE
  3
ANSI_1252
  9
$LASTSAVEDBY
  1
ezdxf
  9
$REQUIREDVERSIONS
160
0
  9
$INSBASE
 10
0.0
 20
0.0
 30
0.0
  9
$EXTMIN
 10
1e+20
 20
1e+20
 30
1e+20
  9
$EXTMAX
 10
-1e+20
 20
-1e+20
 30
-1e+20
  9
$LIMMIN
 10
0.0
 20
0.0
  9
$LIMMAX
 10
420.0
 20
297.0
  9
$ORTHOMODE
 70
0
  9
$REGENMODE
 70
1
  9
$FILLMODE
 70
1
  9
$QTEXTMODE
 70
0
  9
$MIRRTEXT
 70
1
  9
$LTSCALE
 40
1.0
  9
$ATTMODE
 70
1
  9
$TEXTSIZE
 40
2.5
  9
$TRACEWID
 40
1.0
  9
$TEXTSTYLE
  7
Standard
  9
$CLAYER
  8
0
  9
$CELTYPE
  6
ByLayer
  9
$CECOLOR
 62
256
  9
$CELTSCALE
 40
1.0
  9
$DISPSILH
 70
0
  9
$DIMSCALE
 40
1.0
  9
$DIMASZ
 40
2.5
  9
$DIMEXO
 40
0.625
  9
$DIMDLI
 40
3.75
  9
$DIMRND
 40
0.0
  9
$DIMDLE
 40
0.0
  9
$DIMEXE
 40
1.25
  9
$DIMTP
 40
0.0
  9
$DIMTM
 40
0.0
  9
$DIMTXT
 40
2.5
  9
$DIMCEN
 40
2.5
  9
$DIMTSZ
 40
0.0
  9
$DIMTOL
 70
0
  9
$DIMLIM
 70
0
  9
$DIMTIH
 70
0
  9
$DIMTOH
 70
0
  9
$DIMSE1
 70
0
  9
$DIMSE2
 70
0
  9
$DIMTAD
 70
1
  9
$DIMZIN
 70
8
  9
$DIMBLK
  1

  9
$DIMASO
 70
1
  9
$DIMSHO
 70
1
  9
$DIMPOST
  1

  9
$DIMAPOST
  1

  9
$DIMALT
 70
0
  9
$DIMALTD
 70
3
  9
$DIMALTF
 40
0.03937007874
  9
$DIMLFAC
 40
1.0
  9
$DIMTOFL
 70
1
  9
$DIMTVP
 40
0.0
  9
$DIMTIX
 70
0
  9
$DIMSOXD
 70
0
  9
$DIMSAH
 70
0
  9
$DIMBLK1
  1

  9
$DIMBLK2
  1

  9
$DIMSTYLE
  2
ISO-25
  9
$DIMCLRD
 70
0
  9
$DIMCLRE
 70
0
  9
$DIMCLRT
 70
0
  9
$DIMTFAC
 40
1.0
  9
$DIMGAP
 40
0.625
  9
$DIMJUST
 70
0
  9
$DIMSD1
 70
0
  9
$DIMSD2
 70
0
  9
$DIMTOLJ
 70
0
  9
$DIMTZIN
 70
8
  9
$DIMALTZ
 70
0
  9
$DIMALTTZ
 70
0
  9
$DIMUPT
 70
0
  9
$DIMDEC
 70
2
  9
$DIMTDEC
 70
2
  9
$DIMALTU
 70
2
  9
$DIMALTTD
 70
3
  9
$DIMTXSTY
  7
Standard
  9
$DIMAUNIT
 70
0
  9
$DIMADEC
 70
0
  9
$DIMALTRND
 40
0.0
  9
$DIMAZIN
 70
0
  9
$DIMDSEP
 70
44
  9
$DIMATFIT
 70
3
  9
$DIMFRAC
 70
0
  9
$DIMLDRBLK
  1

  9
$DIMLUNIT
 70
2
  9
$DIMLWD
 70
-2
  9
$DIMLWE
 70
-2
  9
$DIMTMOVE
 70
0
  9
$DIMFXL
 40
1.0
  9
$DIMFXLON
 70
0
  9
$DIMJOGANG
 40
0.785398163397
  9
$DIMTFILL
 70
0
  9
$DIMTFILLCLR
 70
0
  9
$DIMARCSYM
 70
0
  9
$DIMLTYPE
  6

  9
$DIMLTEX1
  6

  9
$DIMLTEX2
  6

  9
$DIMTXTDIRECTION
 70
0
  9
$LUNITS
 70
2
  9
$LUPREC
 70
4
  9
$SKETCHINC
 40
1.0
  9
$FILLETRAD
 40
10.0
  9
$AUNITS
 70
0
  9
$AUPREC
 70
2
  9
$MENU
  1
.
  9
$ELEVATION
 40
0.0
  9
$PELEVATION
 40
0.0
  9
$THICKNESS
 40
0.0
  9
$LIMCHECK
 70
0
  9
$CHAMFERA
 40
0.0
  9
$CHAMFERB
 40
0.0
  9
$CHAMFERC
 40
0.0
  9
$CHAMFERD
 40
0.0
  9
$SKPOLY
 70
0
  9
$TDCREATE
 40
2461085.245972222
  9
$TDUCREATE
 40
2458532.153996898
  9
$TDUPDATE
 40
2461085.245972222
  9
$TDUUPDATE
 40
2458532.1544311
  9
$TDINDWG
 40
0.0
  9
$TDUSRTIMER
 40
0.0
  9
$USRTIMER
 70
1
  9
$ANGBASE
 50
0.0
  9
$ANGDIR
 70
0
  9
$PDMODE
 70
0
  9
$PDSIZE
 40
0.0
  9
$PLINEWID
 40
0.0
  9
$SPLFRAME
 70
0
  9
$SPLINETYPE
 70
6
  9
$SPLINESEGS
 70
8
  9
$HANDSEED
  5
79
  9
$SURFTAB1
 70
6
  9
$SURFTAB2
 70
6
  9
$SURFTYPE
 70
6
  9
$SURFU
 70
6
  9
$SURFV
 70
6
  9
$UCSBASE
  2

  9
$UCSNAME
  2

  9
$UCSORG
 10
0.0
 20
0.0
 30
0.0
  9
$UCSXDIR
 10
1.0
 20
0.0
 30
0.0
  9
$UCSYDIR
 10
0.0
 20
1.0
 30
0.0
  9
$UCSORTHOREF
  2

  9
$UCSORTHOVIEW
 70
0
  9
$UCSORGTOP
 10
0.0
 20
0.0
 30
0.0
  9
$UCSORGBOTTOM
 10
0.0
 20
0.0
 30
0.0
  9
$UCSORGLEFT
 10
0.0
 20
0.0
 30
0.0
  9
$UCSORGRIGHT
 10
0.0
 20
0.0
 30
0.0
  9
$UCSORGFRONT
 10
0.0
 20
0.0
 30
0.0
  9
$UCSORGBACK
 10
0.0
 20
0.0
 30
0.0
  9
$PUCSBASE
  2

  9
$PUCSNAME
  2

  9
$PUCSORG
 10
0.0
 20
0.0
 30
0.0
  9
$PUCSXDIR
 10
1.0
 20
0.0
 30
0.0
  9
$PUCSYDIR
 10
0.0
 20
1.0
 30
0.0
  9
$PUCSORTHOREF
  2

  9
$PUCSORTHOVIEW
 70
0
  9
$PUCSORGTOP
 10
0.0
 20
0.0
 30
0.0
  9
$PUCSORGBOTTOM
 10
0.0
 20
0.0
 30
0.0
  9
$PUCSORGLEFT
 10
0.0
 20
0.0
 30
0.0
  9
$PUCSORGRIGHT
 10
0.0
 20
0.0
 30
0.0
  9
$PUCSORGFRONT
 10
0.0
 20
0.0
 30
0.0
  9
$PUCSORGBACK
 10
0.0
 20
0.0
 30
0.0
  9
$USERI1
 70
0
  9
$USERI2
 70
0
  9
$USERI3
 70
0
  9
$USERI4
 70
0
  9
$USERI5
 70
0
  9
$USERR1
 40
0.0
  9
$USERR2
 40
0.0
  9
$USERR3
 40
0.0
  9
$USERR4
 40
0.0
  9
$USERR5
 40
0.0
  9
$WORLDVIEW
 70
1
  9
$SHADEDGE
 70
3
  9
$SHADEDIF
 70
70
  9
$TILEMODE
 70
1
  9
$MAXACTVP
 70
64
  9
$PINSBASE
 10
0.0
 20
0.0
 30
0.0
  9
$PLIMCHECK
 70
0
  9
$PEXTMIN
 10
1e+20
 20
1e+20
 30
1e+20
  9
$PEXTMAX
 10
-1e+20
 20
-1e+20
 30
-1e+20
  9
$PLIMMIN
 10
0.0
 20
0.0
  9
$PLIMMAX
 10
420.0
 20
297.0
  9
$UNITMODE
 70
0
  9
$VISRETAIN
 70
1
  9
$PLINEGEN
 70
0
  9
$PSLTSCALE
 70
1
  9
$TREEDEPTH
 70
3020
  9
$CMLSTYLE
  2
Standard
  9
$CMLJUST
 70
0
  9
$CMLSCALE
 40
20.0
  9
$PROXYGRAPHICS
 70
1
  9
$MEASUREMENT
 70
1
  9
$CELWEIGHT
370
-1
  9
$ENDCAPS
280
0
  9
$JOINSTYLE
280
0
  9
$LWDISPLAY
290
0
  9
$INSUNITS
 70
6
  9
$HYPERLINKBASE
  1

  9
$STYLESHEET
  1

  9
$XEDIT
290
1
  9
$CEPSNTYPE
380
0
  9
$PSTYLEMODE
290
1
  9
$FINGERPRINTGUID
  2
{237B97EA-0105-4DA8-A57F-3F652E1F8897}
  9
$VERSIONGUID
  2
{1A28D836-DC9F-44B7-9F23-6EBC6D2AD1D3}
  9
$EXTNAMES
290
1
  9
$PSVPSCALE
 40
0.0
  9
$OLESTARTUP
290
0
  9
$SORTENTS
280
127
  9
$INDEXCTL
280
0
  9
$HIDETEXT
280
1
  9
$XCLIPFRAME
280
1
  9
$HALOGAP
280
0
  9
$OBSCOLOR
 70
257
  9
$OBSLTYPE
280
0
  9
$INTERSECTIONDISPLAY
280
0
  9
$INTERSECTIONCOLOR
 70
257
  9
$DIMASSOC
280
2
  9
$PROJECTNAME
  1

  9
$CAMERADISPLAY
290
0
  9
$LENSLENGTH
 40
50.0
  9
$CAMERAHEIGHT
 40
0.0
  9
$STEPSPERSEC
 40
24.0
  9
$STEPSIZE
 40
100.0
  9
$3DDWFPREC
 40
2.0
  9
$PSOLWIDTH
 40
0.005
  9
$PSOLHEIGHT
 40
0.08
  9
$LOFTANG1
 40
1.570796326795
  9
$LOFTANG2
 40
1.570796326795
  9
$LOFTMAG1
 40
0.0
  9
$LOFTMAG2
 40
0.0
  9
$LOFTPARAM
 70
7
  9
$LOFTNORMALS
280
1
  9
$LATITUDE
 40
37.795
  9
$LONGITUDE
 40
-122.394
  9
$NORTHDIRECTION
 40
0.0
  9
$TIMEZONE
 70
-8000
  9
$LIGHTGLYPHDISPLAY
280
1
  9
$TILEMODELIGHTSYNCH
280
1
  9
$CMATERIAL
347
20
  9
$SOLIDHIST
280
0
  9
$SHOWHIST
280
1
  9
$DWFFRAME
280
2
  9
$DGNFRAME
280
2
  9
$REALWORLDSCALE
290
1
  9
$INTERFERECOLOR
 62
256
  9
$CSHADOW
280
0
  9
$SHADOWPLANELOCATION
 40
0.0
  0
ENDSEC
  0
SECTION
  2
CLASSES
  0
CLASS
  1
ACDBDICTIONARYWDFLT
  2
AcDbDictionaryWithDefault
  3
ObjectDBX Classes
 90
0
 91
0
280
0
281
0
  0
CLASS
  1
SUN
  2
AcDbSun
  3
SCENEOE
 90
1153
 91
0
280
0
281
0
  0
CLASS
  1
VISUALSTYLE
  2
AcDbVisualStyle
  3
ObjectDBX Classes
 90
4095
 91
0
280
0
281
0
  0
CLASS
  1
MATERIAL
  2
AcDbMaterial
  3
ObjectDBX Classes
 90
1153
 91
0
280
0
281
0
  0
CLASS
  1
SCALE
  2
AcDbScale
  3
ObjectDBX Classes
 90
1153
 91
0
280
0
281
0
  0
CLASS
  1
TABLESTYLE
  2
AcDbTableStyle
  3
ObjectDBX Classes
 90
4095
 91
0
280
0
281
0
  0
CLASS
  1
MLEADERSTYLE
  2
AcDbMLeaderStyle
  3
ACDB_MLEADERSTYLE_CLASS
 90
4095
 91
0
280
0
281
0
  0
CLASS
  1
DICTIONARYVAR
  2
AcDbDictionaryVar
  3
ObjectDBX Classes
 90
0
 91
0
280
0
281
0
  0
CLASS
  1
CELLSTYLEMAP
  2
AcDbCellStyleMap
  3
ObjectDBX Classes
 90
1152
 91
0
280
0
281
0
  0
CLASS
  1
MENTALRAYRENDERSETTINGS
  2
AcDbMentalRayRenderSettings
  3
SCENEOE
 90
1024
 91
0
280
0
281
0
  0
CLASS
  1
ACDBDETAILVIEWSTYLE
  2
AcDbDetailViewStyle
  3
ObjectDBX Classes
 90
1025
 91
0
280
0
281
0
  0
CLASS
  1
ACDBSECTIONVIEWSTYLE
  2
AcDbSectionViewStyle
  3
ObjectDBX Classes
 90
1025
 91
0
280
0
281
0
  0
CLASS
  1
RASTERVARIABLES
  2
AcDbRasterVariables
  3
ISM
 90
0
 91
0
280
0
281
0
  0
CLASS
  1
LAYOUT
  2
AcDbLayout
  3
ObjectDBX Classes
 90
0
 91
0
280
0
281
0
  0
CLASS
  1
ACDBPLACEHOLDER
  2
AcDbPlaceHolder
  3
ObjectDBX Classes
 90
0
 91
0
280
0
281
0
  0
ENDSEC
  0
SECTION
  2
TABLES
  0
TABLE
  2
VPORT
  5
8
330
0
100
AcDbSymbolTable
 70
1
  0
VPORT
  5
23
330
8
100
AcDbSymbolTableRecord
100
AcDbViewportTableRecord
  2
*Active
 70
0
 10
0.0
 20
0.0
 11
1.0
 21
1.0
 12
0.0
 22
0.0
 13
0.0
 23
0.0
 14
0.5
 24
0.5
 15
0.5
 25
0.5
 16
0.0
 26
0.0
 36
1.0
 17
0.0
 27
0.0
 37
0.0
 40
1000.0
 41
1.34
 42
50.0
 43
0.0
 44
0.0
 50
0.0
 51
0.0
 71
0
 72
1000
 73
1
 74
3
 75
0
 76
0
 77
0
 78
0
281
0
 65
0
146
0.0
  0
ENDTAB
  0
TABLE
  2
LTYPE
  5
2
330
0
100
AcDbSymbolTable
 70
3
  0
LTYPE
  5
24
330
2
100
AcDbSymbolTableRecord
100
AcDbLinetypeTableRecord
  2
ByBlock
 70
0
  3

 72
65
 73
0
 40
0.0
  0
LTYPE
  5
25
330
2
100
AcDbSymbolTableRecord
100
AcDbLinetypeTableRecord
  2
ByLayer
 70
0
  3

 72
65
 73
0
 40
0.0
  0
LTYPE
  5
26
330
2
100
AcDbSymbolTableRecord
100
AcDbLinetypeTableRecord
  2
Continuous
 70
0
  3

 72
65
 73
0
 40
0.0
  0
ENDTAB
  0
TABLE
  2
LAYER
  5
1
330
0
100
AcDbSymbolTable
 70
3
  0
LAYER
  5
27
330
1
100
AcDbSymbolTableRecord
100
AcDbLayerTableRecord
  2
0
 70
0
 62
7
  6
Continuous
370
-3
390
13
347
21
  0
LAYER
  5
28
330
1
100
AcDbSymbolTableRecord
100
AcDbLayerTableRecord
  2
Defpoints
 70
0
 62
7
  6
Continuous
290
0
370
-3
390
13
347
21
  0
LAYER
  5
73
330
1
100
AcDbSymbolTableRecord
100
AcDbLayerTableRecord
  2
A-DETL-GENF
 70
0
 62
92
  6
Continuous
370
18
390
13
347
21
348
0
  0
ENDTAB
  0
TABLE
  2
STYLE
  5
5
330
0
100
AcDbSymbolTable
 70
1
  0
STYLE
  5
29
330
5
100
AcDbSymbolTableRecord
100
AcDbTextStyleTableRecord
  2
Standard
 70
0
 40
0.0
 41
1.0
 50
0.0
 71
0
 42
2.5
  3
txt
  4

  0
ENDTAB
  0
TABLE
  2
VIEW
  5
7
330
0
100
AcDbSymbolTable
 70
0
  0
ENDTAB
  0
TABLE
  2
UCS
  5
6
330
0
100
AcDbSymbolTable
 70
0
  0
ENDTAB
  0
TABLE
  2
APPID
  5
3
330
0
100
AcDbSymbolTable
 70
3
  0
APPID
  5
2A
330
3
100
AcDbSymbolTableRecord
100
AcDbRegAppTableRecord
  2
ACAD
 70
0
  0
APPID
  5
76
330
3
100
AcDbSymbolTableRecord
100
AcDbRegAppTableRecord
  2
HATCHBACKGROUNDCOLOR
 70
0
  0
APPID
  5
77
330
3
100
AcDbSymbolTableRecord
100
AcDbRegAppTableRecord
  2
EZDXF
 70
0
  0
ENDTAB
  0
TABLE
  2
DIMSTYLE
  5
4
330
0
100
AcDbSymbolTable
 70
1
100
AcDbDimStyleTable
  0
DIMSTYLE
105
2B
330
4
100
AcDbSymbolTableRecord
100
AcDbDimStyleTableRecord
  2
Standard
 70
0
 40
1.0
 41
2.5
 42
0.625
 43
3.75
 44
1.25
 45
0.0
 46
0.0
 47
0.0
 48
0.0
 49
2.5
140
2.5
141
2.5
142
0.0
143
0.03937007874
144
1.0
145
0.0
146
1.0
147
0.625
148
0.0
 69
0
 70
0
 71
0
 72
0
 73
0
 74
0
 75
0
 76
0
 77
1
 78
8
 79
3
170
0
171
3
172
1
173
0
174
0
175
0
176
0
177
0
178
0
179
2
271
2
272
2
273
2
274
3
275
0
276
0
277
2
278
44
279
0
280
0
281
0
282
0
283
0
284
8
285
0
286
0
288
0
289
3
290
0
371
-2
372
-2
  0
ENDTAB
  0
TABLE
  2
BLOCK_RECORD
  5
9
330
0
100
AcDbSymbolTable
 70
3
  0
BLOCK_RECORD
  5
17
330
9
100
AcDbSymbolTableRecord
100
AcDbBlockTableRecord
  2
*Model_Space
340
1A
 70
0
280
1
281
0
  0
BLOCK_RECORD
  5
1B
330
9
100
AcDbSymbolTableRecord
100
AcDbBlockTableRecord
  2
*Paper_Space
340
1E
 70
0
280
1
281
0
  0
BLOCK_RECORD
  5
2F
330
9
100
AcDbSymbolTableRecord
100
AcDbBlockTableRecord
  2
31 Solarlux ko_02 - 31Solarlux ko_02-971079-00_0 Basismaterialen
340
0
 70
0
280
1
281
0
  0
ENDTAB
  0
ENDSEC
  0
SECTION
  2
BLOCKS
  0
BLOCK
  5
18
330
17
100
AcDbEntity
  8
0
100
AcDbBlockBegin
  2
*Model_Space
 70
0
 10
0.0
 20
0.0
 30
0.0
  3
*Model_Space
  1

  0
ENDBLK
  5
19
330
17
100
AcDbEntity
  8
0
100
AcDbBlockEnd
  0
BLOCK
  5
1C
330
1B
100
AcDbEntity
  8
0
100
AcDbBlockBegin
  2
*Paper_Space
 70
0
 10
0.0
 20
0.0
 30
0.0
  3
*Paper_Space
  1

  0
ENDBLK
  5
1D
330
1B
100
AcDbEntity
  8
0
100
AcDbBlockEnd
  0
BLOCK
  5
30
330
2F
100
AcDbEntity
  8
0
100
AcDbBlockBegin
  2
31 Solarlux ko_02 - 31Solarlux ko_02-971079-00_0 Basismaterialen
 70
0
 10
0.0
 20
0.0
 30
0.0
  3
31 Solarlux ko_02 - 31Solarlux ko_02-971079-00_0 Basismaterialen
  1

  0
HATCH
  5
32
330
2F
100
AcDbEntity
  8
A-DETL-GENF
100
AcDbHatch
 10
0.0
 20
0.0
 30
0.0
210
0.0
220
0.0
230
1.0
  2
SOLID
 70
1
 71
0
 91
1
 92
1
 93
30
 72
1
 10
10.18125000004154
 20
2.1657e-12
 11
10.18125000004154
 21
0.8157772228274779
 72
1
 10
10.18125000004154
 20
0.8157772228274779
 11
8.867865889933103
 21
3.090625231367124
 72
1
 10
8.867865889933103
 20
3.090625231367124
 11
12.17500000003405
 21
4.999999999998863
 72
1
 10
12.17500000003405
 20
4.999999999998863
 11
12.17500000003405
 21
15.00000000000525
 72
1
 10
12.17500000003405
 20
15.00000000000525
 11
8.867865889985081
 21
16.90937476873661
 72
1
 10
8.867865889985081
 20
16.90937476873661
 11
10.18125000004154
 21
19.18422277718963
 72
1
 10
10.18125000004154
 20
19.18422277718963
 11
10.18125000004154
 21
20.00000000000628
 72
1
 10
10.18125000004154
 20
20.00000000000628
 11
6.018750000024079
 21
20.00000000000628
 72
1
 10
6.018750000024079
 20
20.00000000000628
 11
6.018750000024079
 21
19.18422277718963
 72
1
 10
6.018750000024079
 20
19.18422277718963
 11
7.100000000033037
 21
17.31144284150874
 72
1
 10
7.100000000033037
 20
17.31144284150874
 11
7.134074173742237
 21
16.05465281731056
 72
1
 10
7.134074173742237
 20
16.05465281731056
 11
7.293327545343629
 21
15.73612159319348
 72
1
 10
7.293327545343629
 20
15.73612159319348
 11
7.392893218833762
 21
15.60636508123552
 72
1
 10
7.392893218833762
 20
15.60636508123552
 11
7.600000000045918
 21
15.4474464587018
 72
1
 10
7.600000000045918
 20
15.4474464587018
 11
10.08210678123806
 21
13.97505597367595
 72
1
 10
10.08210678123806
 20
13.97505597367595
 11
10.2410254038281
 21
13.76794919249195
 72
1
 10
10.2410254038281
 20
13.76794919249195
 11
10.34092582632526
 21
13.52676823760091
 72
1
 10
10.34092582632526
 20
13.52676823760091
 11
10.37500000003879
 21
13.26794919250505
 72
1
 10
10.37500000003879
 20
13.26794919250505
 11
10.34092582632526
 21
6.47323176250066
 72
1
 10
10.34092582632526
 20
6.47323176250066
 11
10.24102540381943
 21
6.232050807603127
 72
1
 10
10.24102540381943
 20
6.232050807603127
 11
10.08210678122074
 21
6.02494402641696
 72
1
 10
10.08210678122074
 20
6.02494402641696
 11
9.875000000038902
 21
5.866025403807435
 72
1
 10
9.875000000038902
 20
5.866025403807435
 11
7.392893218846757
 21
4.393634918792412
 72
1
 10
7.392893218846757
 20
4.393634918792412
 11
7.233974596252392
 21
4.186528137606245
 72
1
 10
7.233974596252392
 20
4.186528137606245
 11
7.134074173742237
 21
3.945347182708712
 72
1
 10
7.134074173742237
 20
3.945347182708712
 11
7.100000000033037
 21
3.686528137604193
 72
1
 10
7.100000000033037
 20
3.686528137604193
 11
7.100000000033037
 21
2.688557158506205
 72
1
 10
7.100000000033037
 20
2.688557158506205
 11
6.018750000024079
 21
0.8157772228274779
 72
1
 10
6.018750000024079
 20
0.8157772228274779
 11
6.018750000024079
 21
2.1657e-12
 72
1
 10
6.018750000024079
 20
2.1657e-12
 11
10.18125000004154
 21
2.1657e-12
 97
0
 75
0
 76
1
 98
1
 10
0.0
 20
0.0
450
0
451
0
460
0.0
461
0.0
452
0
462
0.0
453
0
470

  0
HATCH
  5
33
330
2F
100
AcDbEntity
  8
A-DETL-GENF
100
AcDbHatch
 10
0.0
 20
0.0
 30
0.0
210
0.0
220
0.0
230
1.0
  2
SOLID
 70
1
 71
0
 91
1
 92
1
 93
30
 72
1
 10
-10.1812500000632
 20
2.1657e-12
 11
-6.018750000045736
 21
2.1657e-12
 72
1
 10
-6.018750000045736
 20
2.1657e-12
 11
-6.018750000045736
 21
0.8157772228274779
 72
1
 10
-6.018750000045736
 20
0.8157772228274779
 11
-7.100000000054694
 21
2.688557158506205
 72
1
 10
-7.100000000054694
 20
2.688557158506205
 11
-7.134074173763894
 21
3.945347182708712
 72
1
 10
-7.134074173763894
 20
3.945347182708712
 11
-7.293327545356624
 21
4.263878406812795
 72
1
 10
-7.293327545356624
 20
4.263878406812795
 11
-7.392893218868414
 21
4.393634918792412
 72
1
 10
-7.392893218868414
 20
4.393634918792412
 11
-7.60000000005025
 21
4.552553541404103
 72
1
 10
-7.60000000005025
 20
4.552553541404103
 11
-10.08210678123806
 21
6.02494402641696
 72
1
 10
-10.08210678123806
 20
6.02494402641696
 11
-10.24102540384109
 21
6.232050807603127
 72
1
 10
-10.24102540384109
 20
6.232050807603127
 11
-10.34092582634258
 21
6.47323176250066
 72
1
 10
-10.34092582634258
 20
6.47323176250066
 11
-10.37500000005612
 21
6.732050807605179
 72
1
 10
-10.37500000005612
 20
6.732050807605179
 11
-10.34092582634691
 21
13.52676823760091
 72
1
 10
-10.34092582634691
 20
13.52676823760091
 11
-10.24102540384542
 21
13.76794919249195
 72
1
 10
-10.24102540384542
 20
13.76794919249195
 11
-10.08210678125972
 21
13.97505597367595
 72
1
 10
-10.08210678125972
 20
13.97505597367595
 11
-9.875000000047567
 21
14.13397459620967
 72
1
 10
-9.875000000047567
 20
14.13397459620967
 11
-7.392893218851089
 21
15.60636508123552
 72
1
 10
-7.392893218851089
 20
15.60636508123552
 11
-7.233974596261055
 21
15.81347186241953
 72
1
 10
-7.233974596261055
 20
15.81347186241953
 11
-7.134074173763894
 21
16.05465281731056
 72
1
 10
-7.134074173763894
 20
16.05465281731056
 11
-7.100000000054694
 21
16.31347186240425
 72
1
 10
-7.100000000054694
 20
16.31347186240425
 11
-7.100000000054694
 21
17.31144284150874
 72
1
 10
-7.100000000054694
 20
17.31144284150874
 11
-6.018750000045736
 21
19.18422277718963
 72
1
 10
-6.018750000045736
 20
19.18422277718963
 11
-6.018750000045736
 21
20.00000000000628
 72
1
 10
-6.018750000045736
 20
20.00000000000628
 11
-10.1812500000632
 21
20.00000000000628
 72
1
 10
-10.1812500000632
 20
20.00000000000628
 11
-10.1812500000632
 21
19.18422277718963
 72
1
 10
-10.1812500000632
 20
19.18422277718963
 11
-8.867865890002406
 21
16.90937476873661
 72
1
 10
-8.867865890002406
 20
16.90937476873661
 11
-12.17500000005571
 21
15.00000000000525
 72
1
 10
-12.17500000005571
 20
15.00000000000525
 11
-12.17500000005571
 21
4.999999999998863
 72
1
 10
-12.17500000005571
 20
4.999999999998863
 11
-8.867865889950428
 21
3.090625231367124
 72
1
 10
-8.867865889950428
 20
3.090625231367124
 11
-10.1812500000632
 21
0.8157772228274779
 72
1
 10
-10.1812500000632
 20
0.8157772228274779
 11
-10.1812500000632
 21
2.1657e-12
 97
0
 75
0
 76
1
 98
1
 10
0.0
 20
0.0
450
0
451
0
460
0.0
461
0.0
452
0
462
0.0
453
0
470

  0
HATCH
  5
34
330
2F
100
AcDbEntity
  8
A-DETL-GENF
100
AcDbHatch
 10
0.0
 20
0.0
 30
0.0
210
0.0
220
0.0
230
1.0
  2
SOLID
 70
1
 71
0
 91
1
 92
1
 93
44
 72
1
 10
3.144188761735267
 20
2.1657e-12
 11
4.746483057253681
 21
2.707106781192095
 72
1
 10
4.746483057253681
 20
2.707106781192095
 11
4.953589838439848
 21
2.86602540378646
 72
1
 10
4.953589838439848
 20
2.86602540378646
 11
5.194770793335215
 21
2.965925826290117
 72
1
 10
5.194770793335215
 20
2.965925826290117
 11
5.453589838435402
 21
3.000000000001483
 72
1
 10
5.453589838435402
 20
3.000000000001483
 11
7.100000000033037
 21
3.000000000001483
 72
1
 10
7.100000000033037
 20
3.000000000001483
 11
7.100000000033037
 21
4.263878406812795
 72
1
 10
7.100000000033037
 20
4.263878406812795
 11
10.08210678122074
 21
6.02494402641696
 72
1
 10
10.08210678122074
 20
6.02494402641696
 11
10.24102540381943
 21
6.232050807603127
 72
1
 10
10.24102540381943
 20
6.232050807603127
 11
10.34092582632526
 21
6.47323176250066
 72
1
 10
10.34092582632526
 20
6.47323176250066
 11
10.37500000003879
 21
6.732050807605179
 72
1
 10
10.37500000003879
 20
6.732050807605179
 11
10.34092582632526
 21
13.52676823750562
 72
1
 10
10.34092582632526
 20
13.52676823750562
 11
10.24102540381943
 21
13.76794919240532
 72
1
 10
10.24102540381943
 20
13.76794919240532
 11
10.08210678122074
 21
13.97505597358932
 72
1
 10
10.08210678122074
 20
13.97505597358932
 11
9.875000000043235
 21
14.13397459619884
 72
1
 10
9.875000000043235
 20
14.13397459619884
 11
7.100000000033037
 21
15.73612159319348
 72
1
 10
7.100000000033037
 20
15.73612159319348
 11
7.100000000033037
 21
17.00000000000696
 72
1
 10
7.100000000033037
 20
17.00000000000696
 11
5.194770793335215
 21
17.03407417371616
 72
1
 10
5.194770793335215
 20
17.03407417371616
 11
4.953589838439848
 21
17.13397459621982
 72
1
 10
4.953589838439848
 20
17.13397459621982
 11
4.746483057253681
 21
17.29289321881635
 72
1
 10
4.746483057253681
 20
17.29289321881635
 11
4.587564434719957
 21
17.500000000035
 72
1
 10
4.587564434719957
 20
17.500000000035
 11
3.144188761735267
 21
20.00000000000628
 72
1
 10
3.144188761735267
 20
20.00000000000628
 11
-3.144188761761256
 21
20.00000000000628
 72
1
 10
-3.144188761761256
 20
20.00000000000628
 11
-4.746483057266675
 21
17.29289321883151
 72
1
 10
-4.746483057266675
 20
17.29289321883151
 11
-4.953589838457173
 21
17.13397459622632
 72
1
 10
-4.953589838457173
 20
17.13397459622632
 11
-5.194770793356872
 21
17.03407417371833
 72
1
 10
-5.194770793356872
 20
17.03407417371833
 11
-5.453589838465723
 21
17.00000000000696
 72
1
 10
-5.453589838465723
 20
17.00000000000696
 11
-7.100000000059026
 21
17.00000000000696
 72
1
 10
-7.100000000059026
 20
17.00000000000696
 11
-7.100000000059026
 21
15.73612159319348
 72
1
 10
-7.100000000059026
 20
15.73612159319348
 11
-10.08210678124672
 21
13.97505597358715
 72
1
 10
-10.08210678124672
 20
13.97505597358715
 11
-10.24102540384542
 21
13.76794919240315
 72
1
 10
-10.24102540384542
 20
13.76794919240315
 11
-10.34092582635125
 21
13.52676823750778
 72
1
 10
-10.34092582635125
 20
13.52676823750778
 11
-10.37500000006045
 21
13.2679491924076
 72
1
 10
-10.37500000006045
 20
13.2679491924076
 11
-10.34092582635125
 21
6.47323176250066
 72
1
 10
-10.34092582635125
 20
6.47323176250066
 11
-10.24102540384542
 21
6.232050807605292
 72
1
 10
-10.24102540384542
 20
6.232050807605292
 11
-10.08210678124672
 21
6.024944026421292
 72
1
 10
-10.08210678124672
 20
6.024944026421292
 11
-9.875000000073555
 21
5.866025403811767
 72
1
 10
-9.875000000073555
 20
5.866025403811767
 11
-7.100000000059026
 21
4.263878406812795
 72
1
 10
-7.100000000059026
 20
4.263878406812795
 11
-7.100000000059026
 21
3.000000000001483
 72
1
 10
-7.100000000059026
 20
3.000000000001483
 11
-5.194770793356872
 21
2.965925826287951
 72
1
 10
-5.194770793356872
 20
2.965925826287951
 11
-4.953589838457173
 21
2.866025403779963
 72
1
 10
-4.953589838457173
 20
2.866025403779963
 11
-4.746483057266675
 21
2.707106781174769
 72
1
 10
-4.746483057266675
 20
2.707106781174769
 11
-4.587564434663647
 21
2.499999999988602
 72
1
 10
-4.587564434663647
 20
2.499999999988602
 11
-3.144188761761256
 21
2.1658e-12
 72
1
 10
-3.144188761761256
 20
2.1657e-12
 11
3.144188761735268
 21
2.1657e-12
 97
0
 75
0
 76
1
 98
1
 10
0.0
 20
0.0
450
0
451
0
460
0.0
461
0.0
452
0
462
0.0
453
0
470

  0
ARC
  5
35
330
2F
100
AcDbEntity
  8
A-DETL-GENF
100
AcDbCircle
 10
8.100000000047977
 20
3.686528137604189
 30
0.0
 40
1.000000000000009
100
AcDbArc
 50
119.9999999998425
 51
179.9999999999994
  0
LINE
  5
36
330
2F
100
AcDbEntity
  8
A-DETL-GENF
100
AcDbLine
 10
7.100000000048197
 20
2.999999999999919
 30
0.0
 11
7.100000000048197
 21
2.688557158506205
 31
0.0
  0
LINE
  5
37
330
2F
100
AcDbEntity
  8
A-DETL-GENF
100
AcDbLine
 10
7.100000000048198
 20
2.688557158506205
 30
0.0
 11
6.018750000039239
 21
0.8157772228249591
 31
0.0
  0
LINE
  5
38
330
2F
100
AcDbEntity
  8
A-DETL-GENF
100
AcDbLine
 10
6.018750000039239
 20
0.8157772228249591
 30
0.0
 11
6.018750000039239
 21
0.0
 31
0.0
  0
LINE
  5
39
330
2F
100
AcDbEntity
  8
A-DETL-GENF
100
AcDbLine
 10
6.018750000039239
 20
0.0
 30
0.0
 11
10.1812500000567
 21
0.0
 31
0.0
  0
LINE
  5
3A
330
2F
100
AcDbEntity
  8
A-DETL-GENF
100
AcDbLine
 10
10.1812500000567
 20
0.0
 30
0.0
 11
10.1812500000567
 21
0.8157772228249569
 31
0.0
  0
LINE
  5
3B
330
2F
100
AcDbEntity
  8
A-DETL-GENF
100
AcDbLine
 10
10.1812500000567
 20
0.8157772228249569
 30
0.0
 11
8.867865889947366
 21
3.090625231365957
 31
0.0
  0
LINE
  5
3C
330
2F
100
AcDbEntity
  8
A-DETL-GENF
100
AcDbLine
 10
8.867865889947366
 20
3.090625231365957
 30
0.0
 11
12.17500000004921
 21
4.999999999997648
 31
0.0
  0
LINE
  5
3D
330
2F
100
AcDbEntity
  8
A-DETL-GENF
100
AcDbLine
 10
12.1750000000492
 20
4.999999999997647
 30
0.0
 11
12.17500000004921
 21
15.00000000000545
 31
0.0
  0
LINE
  5
3E
330
2F
100
AcDbEntity
  8
A-DETL-GENF
100
AcDbLine
 10
12.17500000004921
 20
15.00000000000546
 30
0.0
 11
8.867865889998583
 21
16.90937476873553
 31
0.0
  0
LINE
  5
3F
330
2F
100
AcDbEntity
  8
A-DETL-GENF
100
AcDbLine
 10
8.867865889998582
 20
16.90937476873553
 30
0.0
 11
10.1812500000567
 21
19.18422277718782
 31
0.0
  0
LINE
  5
40
330
2F
100
AcDbEntity
  8
A-DETL-GENF
100
AcDbLine
 10
10.1812500000567
 20
19.18422277718782
 30
0.0
 11
10.1812500000567
 21
20.00000000000412
 31
0.0
  0
LINE
  5
41
330
2F
100
AcDbEntity
  8
A-DETL-GENF
100
AcDbLine
 10
10.1812500000567
 20
20.00000000000412
 30
0.0
 11
6.018750000039239
 21
20.00000000000412
 31
0.0
  0
LINE
  5
42
330
2F
100
AcDbEntity
  8
A-DETL-GENF
100
AcDbLine
 10
6.018750000039239
 20
20.00000000000412
 30
0.0
 11
6.018750000039239
 21
19.18422277718782
 31
0.0
  0
LINE
  5
43
330
2F
100
AcDbEntity
  8
A-DETL-GENF
100
AcDbLine
 10
6.018750000039239
 20
19.18422277718782
 30
0.0
 11
7.100000000048197
 21
17.31144284150657
 31
0.0
  0
LINE
  5
44
330
2F
100
AcDbEntity
  8
A-DETL-GENF
100
AcDbLine
 10
7.100000000048197
 20
17.31144284150657
 30
0.0
 11
7.100000000048197
 21
17.00000000000462
 31
0.0
  0
ARC
  5
45
330
2F
100
AcDbEntity
  8
A-DETL-GENF
100
AcDbCircle
 10
8.10000000004797
 20
16.31347186240425
 30
0.0
 40
1.000000000000001
100
AcDbArc
 50
179.9999999999995
 51
239.9999999981935
  0
ARC
  5
46
330
2F
100
AcDbEntity
  8
A-DETL-GENF
100
AcDbCircle
 10
-8.10000000003931
 20
16.31347186240425
 30
0.0
 40
1.000000000000004
100
AcDbArc
 50
300.0000000018056
 51
0.0
  0
LINE
  5
47
330
2F
100
AcDbEntity
  8
A-DETL-GENF
100
AcDbLine
 10
-7.100000000039535
 20
17.00000000000462
 30
0.0
 11
-7.100000000039535
 21
17.31144284150657
 31
0.0
  0
LINE
  5
48
330
2F
100
AcDbEntity
  8
A-DETL-GENF
100
AcDbLine
 10
-7.100000000039535
 20
17.31144284150657
 30
0.0
 11
-6.018750000030576
 21
19.18422277718782
 31
0.0
  0
LINE
  5
49
330
2F
100
AcDbEntity
  8
A-DETL-GENF
100
AcDbLine
 10
-6.018750000030576
 20
19.18422277718782
 30
0.0
 11
-6.018750000030576
 21
20.00000000000412
 31
0.0
  0
LINE
  5
4A
330
2F
100
AcDbEntity
  8
A-DETL-GENF
100
AcDbLine
 10
-6.018750000030576
 20
20.00000000000412
 30
0.0
 11
-10.18125000004804
 21
20.00000000000412
 31
0.0
  0
LINE
  5
4B
330
2F
100
AcDbEntity
  8
A-DETL-GENF
100
AcDbLine
 10
-10.18125000004804
 20
20.00000000000412
 30
0.0
 11
-10.18125000004804
 21
19.18422277718782
 31
0.0
  0
LINE
  5
4C
330
2F
100
AcDbEntity
  8
A-DETL-GENF
100
AcDbLine
 10
-10.18125000004804
 20
19.18422277718782
 30
0.0
 11
-8.867865889989918
 21
16.90937476873553
 31
0.0
  0
LINE
  5
4D
330
2F
100
AcDbEntity
  8
A-DETL-GENF
100
AcDbLine
 10
-8.86786588998992
 20
16.90937476873553
 30
0.0
 11
-12.17500000004055
 21
15.00000000000545
 31
0.0
  0
LINE
  5
4E
330
2F
100
AcDbEntity
  8
A-DETL-GENF
100
AcDbLine
 10
-12.17500000004055
 20
15.00000000000545
 30
0.0
 11
-12.17500000004054
 21
4.999999999997647
 31
0.0
  0
LINE
  5
4F
330
2F
100
AcDbEntity
  8
A-DETL-GENF
100
AcDbLine
 10
-12.17500000004054
 20
4.999999999997645
 30
0.0
 11
-8.867865889938704
 21
3.090625231365955
 31
0.0
  0
LINE
  5
50
330
2F
100
AcDbEntity
  8
A-DETL-GENF
100
AcDbLine
 10
-8.867865889938704
 20
3.090625231365955
 30
0.0
 11
-10.18125000004804
 21
0.8157772228249569
 31
0.0
  0
LINE
  5
51
330
2F
100
AcDbEntity
  8
A-DETL-GENF
100
AcDbLine
 10
-10.18125000004804
 20
0.8157772228249569
 30
0.0
 11
-10.18125000004804
 21
0.0
 31
0.0
  0
LINE
  5
52
330
2F
100
AcDbEntity
  8
A-DETL-GENF
100
AcDbLine
 10
-10.18125000004804
 20
0.0
 30
0.0
 11
-6.018750000030576
 21
0.0
 31
0.0
  0
LINE
  5
53
330
2F
100
AcDbEntity
  8
A-DETL-GENF
100
AcDbLine
 10
-6.018750000030576
 20
0.0
 30
0.0
 11
-6.018750000030576
 21
0.8157772228249591
 31
0.0
  0
LINE
  5
54
330
2F
100
AcDbEntity
  8
A-DETL-GENF
100
AcDbLine
 10
-6.018750000030576
 20
0.8157772228249591
 30
0.0
 11
-7.100000000039536
 21
2.688557158506205
 31
0.0
  0
LINE
  5
55
330
2F
100
AcDbEntity
  8
A-DETL-GENF
100
AcDbLine
 10
-7.100000000039535
 20
2.688557158506205
 30
0.0
 11
-7.100000000039535
 21
2.999999999999921
 31
0.0
  0
ARC
  5
56
330
2F
100
AcDbEntity
  8
A-DETL-GENF
100
AcDbCircle
 10
-8.100000000039305
 20
3.686528137604193
 30
0.0
 40
0.9999999999999992
100
AcDbArc
 50
359.9999999999996
 51
60.00000000015785
  0
LINE
  5
57
330
2F
100
AcDbEntity
  8
A-DETL-GENF
100
AcDbLine
 10
-7.100000000043865
 20
2.999999999999317
 30
0.0
 11
-5.453589838450563
 21
2.999999999999317
 31
0.0
  0
ARC
  5
58
330
2F
100
AcDbEntity
  8
A-DETL-GENF
100
AcDbCircle
 10
-5.453589838450564
 20
1.999999999999543
 30
0.0
 40
1.000000000000004
100
AcDbArc
 50
29.99999999882861
 51
90.0000000000003
  0
LINE
  5
59
330
2F
100
AcDbEntity
  8
A-DETL-GENF
100
AcDbLine
 10
-4.587564434648347
 20
2.499999999986193
 30
0.0
 11
-3.144188761750427
 21
0.0
 31
0.0
  0
LINE
  5
5A
330
2F
100
AcDbEntity
  8
A-DETL-GENF
100
AcDbLine
 10
-3.144188761750427
 20
0.0
 30
0.0
 11
3.144188761750427
 21
0.0
 31
0.0
  0
LINE
  5
5B
330
2F
100
AcDbEntity
  8
A-DETL-GENF
100
AcDbLine
 10
3.144188761750427
 20
0.0
 30
0.0
 11
4.587564434731415
 21
2.499999999970204
 31
0.0
  0
ARC
  5
5C
330
2F
100
AcDbEntity
  8
A-DETL-GENF
100
AcDbCircle
 10
5.453589838450564
 20
1.999999999999541
 30
0.0
 40
1.000000000000003
100
AcDbArc
 50
90.00000000000045
 51
149.9999999995855
  0
LINE
  5
5D
330
2F
100
AcDbEntity
  8
A-DETL-GENF
100
AcDbLine
 10
5.453589838450563
 20
2.999999999999317
 30
0.0
 11
7.100000000048197
 21
2.999999999999317
 31
0.0
  0
LINE
  5
5E
330
2F
100
AcDbEntity
  8
A-DETL-GENF
100
AcDbLine
 10
7.100000000048197
 20
2.999999999999317
 30
0.0
 11
7.100000000048197
 21
4.263878406811676
 31
0.0
  0
LINE
  5
5F
330
2F
100
AcDbEntity
  8
A-DETL-GENF
100
AcDbLine
 10
7.100000000048197
 20
4.263878406811673
 30
0.0
 11
9.875000000054088
 21
5.866025403805283
 31
0.0
  0
ARC
  5
60
330
2F
100
AcDbEntity
  8
A-DETL-GENF
100
AcDbCircle
 10
9.375000000049855
 20
6.732050807603009
 30
0.0
 40
0.9999999999999925
100
AcDbArc
 50
299.9999999998286
 51
359.9999999999996
  0
LINE
  5
61
330
2F
100
AcDbEntity
  8
A-DETL-GENF
100
AcDbLine
 10
10.37500000004962
 20
6.732050807603013
 30
0.0
 11
10.37500000004962
 21
13.2679491924011
 31
0.0
  0
ARC
  5
62
330
2F
100
AcDbEntity
  8
A-DETL-GENF
100
AcDbCircle
 10
9.375000000049843
 20
13.2679491924011
 30
0.0
 40
1.000000000000004
100
AcDbArc
 50
1.018e-13
 51
60.00000000017021
  0
LINE
  5
63
330
2F
100
AcDbEntity
  8
A-DETL-GENF
100
AcDbLine
 10
9.875000000054088
 20
14.13397459619883
 30
0.0
 11
7.100000000048197
 21
15.73612159319244
 31
0.0
  0
LINE
  5
64
330
2F
100
AcDbEntity
  8
A-DETL-GENF
100
AcDbLine
 10
7.100000000048197
 20
15.73612159319244
 30
0.0
 11
7.100000000048197
 21
17.0000000000048
 31
0.0
  0
LINE
  5
65
330
2F
100
AcDbEntity
  8
A-DETL-GENF
100
AcDbLine
 10
7.100000000048197
 20
17.0000000000048
 30
0.0
 11
5.453589838450563
 21
17.0000000000048
 31
0.0
  0
ARC
  5
66
330
2F
100
AcDbEntity
  8
A-DETL-GENF
100
AcDbCircle
 10
5.453589838450563
 20
18.00000000000457
 30
0.0
 40
1.000000000000004
100
AcDbArc
 50
210.0000000004149
 51
269.9999999999998
  0
LINE
  5
67
330
2F
100
AcDbEntity
  8
A-DETL-GENF
100
AcDbLine
 10
4.587564434731415
 20
17.50000000003391
 30
0.0
 11
3.144188761750427
 21
20.00000000000412
 31
0.0
  0
LINE
  5
68
330
2F
100
AcDbEntity
  8
A-DETL-GENF
100
AcDbLine
 10
3.144188761750427
 20
20.00000000000412
 30
0.0
 11
-3.144188761750427
 21
20.00000000000412
 31
0.0
  0
LINE
  5
69
330
2F
100
AcDbEntity
  8
A-DETL-GENF
100
AcDbLine
 10
-3.144188761750427
 20
20.00000000000412
 30
0.0
 11
-4.587564434648347
 21
17.50000000001792
 31
0.0
  0
ARC
  5
6A
330
2F
100
AcDbEntity
  8
A-DETL-GENF
100
AcDbCircle
 10
-5.453589838450559
 20
18.00000000000456
 30
0.0
 40
0.9999999999999943
100
AcDbArc
 50
269.9999999999994
 51
330.0000000011717
  0
LINE
  5
6B
330
2F
100
AcDbEntity
  8
A-DETL-GENF
100
AcDbLine
 10
-5.453589838450563
 20
17.0000000000048
 30
0.0
 11
-7.100000000043865
 21
17.0000000000048
 31
0.0
  0
LINE
  5
6C
330
2F
100
AcDbEntity
  8
A-DETL-GENF
100
AcDbLine
 10
-7.100000000043865
 20
17.0000000000048
 30
0.0
 11
-7.100000000043865
 21
15.73612159319244
 31
0.0
  0
LINE
  5
6D
330
2F
100
AcDbEntity
  8
A-DETL-GENF
100
AcDbLine
 10
-7.100000000043865
 20
15.73612159319244
 30
0.0
 11
-9.875000000057625
 21
14.13397459619429
 31
0.0
  0
ARC
  5
6E
330
2F
100
AcDbEntity
  8
A-DETL-GENF
100
AcDbCircle
 10
-9.375000000058513
 20
13.26794919240543
 30
0.0
 40
0.9999999999878024
100
AcDbArc
 50
119.9999999998295
 51
179.9999999999998
  0
LINE
  5
6F
330
2F
100
AcDbEntity
  8
A-DETL-GENF
100
AcDbLine
 10
-10.37500000004529
 20
13.26794919240543
 30
0.0
 11
-10.37500000004529
 21
6.732050807598682
 31
0.0
  0
ARC
  5
70
330
2F
100
AcDbEntity
  8
A-DETL-GENF
100
AcDbCircle
 10
-9.375000000058513
 20
6.73205080759868
 30
0.0
 40
0.9999999999878031
100
AcDbArc
 50
179.9999999999994
 51
240.0000000001698
  0
LINE
  5
71
330
2F
100
AcDbEntity
  8
A-DETL-GENF
100
AcDbLine
 10
-9.875000000057629
 20
5.866025403809827
 30
0.0
 11
-7.100000000043865
 21
4.263878406811673
 31
0.0
  0
LINE
  5
72
330
2F
100
AcDbEntity
  8
A-DETL-GENF
100
AcDbLine
 10
-7.100000000043865
 20
4.263878406811673
 30
0.0
 11
-7.100000000043865
 21
2.999999999999317
 31
0.0
  0
ENDBLK
  5
31
330
2F
100
AcDbEntity
  8
0
100
AcDbBlockEnd
  0
ENDSEC
  0
SECTION
  2
ENTITIES
  0
INSERT
  5
74
330
17
100
AcDbEntity
  8
0
100
AcDbBlockReference
  2
31 Solarlux ko_02 - 31Solarlux ko_02-971079-00_0 Basismaterialen
 10
0.0
 20
0.0
 30
0.0
  0
ENDSEC
  0
SECTION
  2
OBJECTS
  0
DICTIONARY
  5
A
330
0
100
AcDbDictionary
281
1
  3
ACAD_COLOR
350
B
  3
ACAD_GROUP
350
C
  3
ACAD_LAYOUT
350
D
  3
ACAD_MATERIAL
350
E
  3
ACAD_MLEADERSTYLE
350
F
  3
ACAD_MLINESTYLE
350
10
  3
ACAD_PLOTSETTINGS
350
11
  3
ACAD_PLOTSTYLENAME
350
12
  3
ACAD_SCALELIST
350
14
  3
ACAD_TABLESTYLE
350
15
  3
ACAD_VISUALSTYLE
350
16
  3
EZDXF_META
350
2D
  0
DICTIONARY
  5
B
330
A
100
AcDbDictionary
281
1
  0
DICTIONARY
  5
C
330
A
100
AcDbDictionary
281
1
  0
DICTIONARY
  5
D
330
A
100
AcDbDictionary
281
1
  3
Model
350
1A
  3
Layout1
350
1E
  0
DICTIONARY
  5
E
330
A
100
AcDbDictionary
281
1
  3
ByBlock
350
1F
  3
ByLayer
350
20
  3
Global
350
21
  0
DICTIONARY
  5
F
330
A
100
AcDbDictionary
281
1
  3
Standard
350
2C
  0
DICTIONARY
  5
10
330
A
100
AcDbDictionary
281
1
  3
Standard
350
22
  0
DICTIONARY
  5
11
330
A
100
AcDbDictionary
281
1
  0
ACDBDICTIONARYWDFLT
  5
12
330
A
100
AcDbDictionary
281
1
  3
Normal
350
13
100
AcDbDictionaryWithDefault
340
13
  0
ACDBPLACEHOLDER
  5
13
330
12
  0
DICTIONARY
  5
14
330
A
100
AcDbDictionary
281
1
  0
DICTIONARY
  5
15
330
A
100
AcDbDictionary
281
1
  0
DICTIONARY
  5
16
330
A
100
AcDbDictionary
281
1
  0
LAYOUT
  5
1A
330
D
100
AcDbPlotSettings
  1

  4
A3
  6

 40
7.5
 41
20.0
 42
7.5
 43
20.0
 44
420.0
 45
297.0
 46
0.0
 47
0.0
 48
0.0
 49
0.0
140
0.0
141
0.0
142
1.0
143
1.0
 70
1024
 72
1
 73
0
 74
5
  7

 75
16
 76
0
 77
2
 78
300
147
1.0
148
0.0
149
0.0
100
AcDbLayout
  1
Model
 70
1
 71
0
 10
0.0
 20
0.0
 11
420.0
 21
297.0
 12
0.0
 22
0.0
 32
0.0
 14
1e+20
 24
1e+20
 34
1e+20
 15
-1e+20
 25
-1e+20
 35
-1e+20
146
0.0
 13
0.0
 23
0.0
 33
0.0
 16
1.0
 26
0.0
 36
0.0
 17
0.0
 27
1.0
 37
0.0
 76
1
330
17
  0
LAYOUT
  5
1E
330
D
100
AcDbPlotSettings
  1

  4
A3
  6

 40
7.5
 41
20.0
 42
7.5
 43
20.0
 44
420.0
 45
297.0
 46
0.0
 47
0.0
 48
0.0
 49
0.0
140
0.0
141
0.0
142
1.0
143
1.0
 70
0
 72
1
 73
0
 74
5
  7

 75
16
 76
0
 77
2
 78
300
147
1.0
148
0.0
149
0.0
100
AcDbLayout
  1
Layout1
 70
1
 71
1
 10
0.0
 20
0.0
 11
420.0
 21
297.0
 12
0.0
 22
0.0
 32
0.0
 14
1e+20
 24
1e+20
 34
1e+20
 15
-1e+20
 25
-1e+20
 35
-1e+20
146
0.0
 13
0.0
 23
0.0
 33
0.0
 16
1.0
 26
0.0
 36
0.0
 17
0.0
 27
1.0
 37
0.0
 76
1
330
1B
  0
MATERIAL
  5
1F
102
{ACAD_REACTORS
330
E
102
}
330
E
100
AcDbMaterial
  1
ByBlock
  2

 70
0
 40
1.0
 71
1
 41
1.0
 91
-1023410177
 42
1.0
 72
1
  3

 73
1
 74
1
 75
1
 44
0.5
 73
0
 45
1.0
 46
1.0
 77
1
  4

 78
1
 79
1
170
1
 48
1.0
171
1
  6

172
1
173
1
174
1
140
1.0
141
1.0
175
1
  7

176
1
177
1
178
1
143
1.0
179
1
  8

270
1
271
1
272
1
145
1.0
146
1.0
273
1
  9

274
1
275
1
276
1
 42
1.0
 72
1
  3

 73
1
 74
1
 75
1
 94
63
  0
MATERIAL
  5
20
102
{ACAD_REACTORS
330
E
102
}
330
E
100
AcDbMaterial
  1
ByLayer
  2

 70
0
 40
1.0
 71
1
 41
1.0
 91
-1023410177
 42
1.0
 72
1
  3

 73
1
 74
1
 75
1
 44
0.5
 73
0
 45
1.0
 46
1.0
 77
1
  4

 78
1
 79
1
170
1
 48
1.0
171
1
  6

172
1
173
1
174
1
140
1.0
141
1.0
175
1
  7

176
1
177
1
178
1
143
1.0
179
1
  8

270
1
271
1
272
1
145
1.0
146
1.0
273
1
  9

274
1
275
1
276
1
 42
1.0
 72
1
  3

 73
1
 74
1
 75
1
 94
63
  0
MATERIAL
  5
21
102
{ACAD_REACTORS
330
E
102
}
330
E
100
AcDbMaterial
  1
Global
  2

 70
0
 40
1.0
 71
1
 41
1.0
 91
-1023410177
 42
1.0
 72
1
  3

 73
1
 74
1
 75
1
 44
0.5
 73
0
 45
1.0
 46
1.0
 77
1
  4

 78
1
 79
1
170
1
 48
1.0
171
1
  6

172
1
173
1
174
1
140
1.0
141
1.0
175
1
  7

176
1
177
1
178
1
143
1.0
179
1
  8

270
1
271
1
272
1
145
1.0
146
1.0
273
1
  9

274
1
275
1
276
1
 42
1.0
 72
1
  3

 73
1
 74
1
 75
1
 94
63
  0
MLINESTYLE
  5
22
102
{ACAD_REACTORS
330
10
102
}
330
10
100
AcDbMlineStyle
  2
Standard
 70
0
  3

 62
256
 51
90.0
 52
90.0
 71
2
 49
0.5
 62
256
  6
BYLAYER
 49
-0.5
 62
256
  6
BYLAYER
  0
MLEADERSTYLE
  5
2C
102
{ACAD_REACTORS
330
F
102
}
330
F
100
AcDbMLeaderStyle
179
2
170
2
171
1
172
0
 90
2
 40
0.0
 41
0.0
173
1
 91
-1056964608
 92
-2
290
1
 42
2.0
291
1
 43
8.0
  3
Standard
 44
4.0
300

342
29
174
1
175
1
176
0
178
1
 93
-1056964608
 45
4.0
292
0
297
0
 46
4.0
 94
-1056964608
 47
1.0
 49
1.0
140
1.0
294
1
141
0.0
177
0
142
1.0
295
0
296
0
143
3.75
271
0
272
9
273
9
  0
DICTIONARY
  5
2D
330
A
100
AcDbDictionary
280
1
281
1
  3
CREATED_BY_EZDXF
350
2E
  3
WRITTEN_BY_EZDXF
350
78
  0
DICTIONARYVAR
  5
2E
330
2D
100
DictionaryVariables
280
0
  1
1.4.3 @ 2026-02-13T04:54:12.510137+00:00
  0
DICTIONARYVAR
  5
78
330
2D
100
DictionaryVariables
280
0
  1
1.4.3 @ 2026-02-13T04:54:12.514647+00:00
  0
ENDSEC
  0
EOF
