0
SECTION
2
HEADER
9
$EXTMIN
10
-74
20
-574
30
0.0
9
$EXTMAX
10
 871
20
 871
30
0.0
9
$LIMMIN
10
-574
20
-74
9
$LIMMAX
10
 871
20
 871
9
$PSLTSCALE
70
1
0
ENDSEC
0
SECTION
2
TABLES
0
TABLE
2
VPORT
70
1
0
VPORT
2
*ACTIVE
70
0
10
0.0
20
0.0
11
1.0
21
1.0
12
 398.5
22
 148.5
13
0.0
23
0.0
14
1.0
24
1.0
15
0.0
25
0.0
16
0.0
26
0.0
36
1.0
17
0.0
27
0.0
37
0.0
40
 1517.25
41
2.0
42
50.0
43
0.0
44
0.0
50
0.0
51
0.0
71
0
72
100
73
1
74
1
75
 0
76
0
77
0
78
0
0
ENDTAB
0
ENDSEC
0
SECTION
2
TABLES
0
TABLE
2
LAYER
70
2
0
LAYER
2
0
70
0
62
7
6
CONTINUOUS
0
LAYER
2
Halfen
70
0
62
7
6
CONTINUOUS
0
ENDTAB
0
ENDSEC
0
SECTION
2
ENTITIES
0
POLYLINE
8
Halfen
62
7
66
1
10
0.0
20
0.0
30
0.0
70
1
0
VERTEX
8
Halfen
62
7
10
 0
20
 0
30
0
0
VERTEX
8
Halfen
62
7
10
 250
20
 0
30
0
0
VERTEX
8
Halfen
62
7
10
 250
20
 120
30
0
0
VERTEX
8
Halfen
62
7
10
 0
20
 120
30
0
0
SEQEND
8
Halfen
0
POLYLINE
8
Halfen
62
7
66
1
10
0.0
20
0.0
30
0.0
70
1
0
VERTEX
8
Halfen
62
7
10
 25
20
-15
30
0
0
VERTEX
8
Halfen
62
7
10
 225
20
-15
30
0
0
VERTEX
8
Halfen
62
7
10
 225
20
 0
30
0
0
VERTEX
8
Halfen
62
7
10
 25
20
 0
30
0
0
SEQEND
8
Halfen
0
POLYLINE
8
Halfen
62
7
66
1
10
0.0
20
0.0
30
0.0
0
VERTEX
8
Halfen
62
7
10
 25
20
-15
30
0
0
VERTEX
8
Halfen
62
7
10
 25.077
20
-14.22
30
0
0
VERTEX
8
Halfen
62
7
10
 25.304
20
-13.469
30
0
0
VERTEX
8
Halfen
62
7
10
 25.674
20
-12.778
30
0
0
VERTEX
8
Halfen
62
7
10
 26.172
20
-12.172
30
0
0
VERTEX
8
Halfen
62
7
10
 26.778
20
-11.674
30
0
0
VERTEX
8
Halfen
62
7
10
 27.469
20
-11.304
30
0
0
VERTEX
8
Halfen
62
7
10
 28.22
20
-11.077
30
0
0
VERTEX
8
Halfen
62
7
10
 29
20
-11
30
0
0
VERTEX
8
Halfen
62
7
10
 221
20
-11
30
0
0
VERTEX
8
Halfen
62
7
10
 221.78
20
-11.077
30
0
0
VERTEX
8
Halfen
62
7
10
 222.531
20
-11.304
30
0
0
VERTEX
8
Halfen
62
7
10
 223.222
20
-11.674
30
0
0
VERTEX
8
Halfen
62
7
10
 223.828
20
-12.172
30
0
0
VERTEX
8
Halfen
62
7
10
 224.326
20
-12.778
30
0
0
VERTEX
8
Halfen
62
7
10
 224.696
20
-13.469
30
0
0
VERTEX
8
Halfen
62
7
10
 224.923
20
-14.22
30
0
0
VERTEX
8
Halfen
62
7
10
 225
20
-15
30
0
0
SEQEND
8
Halfen
0
POLYLINE
8
Halfen
62
7
66
1
10
0.0
20
0.0
30
0.0
70
1
0
VERTEX
8
Halfen
62
7
10
 60.5
20
 221
30
0
0
VERTEX
8
Halfen
62
7
10
 60.5
20
 120
30
0
0
VERTEX
8
Halfen
62
7
10
 74.5
20
 120
30
0
0
VERTEX
8
Halfen
62
7
10
 74.5
20
 221
30
0
0
SEQEND
8
Halfen
0
POLYLINE
8
Halfen
62
7
66
1
10
0.0
20
0.0
30
0.0
70
1
0
VERTEX
8
Halfen
62
7
10
 60.5
20
-15
30
0
0
VERTEX
8
Halfen
62
7
10
 60.5
20
-33
30
0
0
VERTEX
8
Halfen
62
7
10
 74.5
20
-33
30
0
0
VERTEX
8
Halfen
62
7
10
 74.5
20
-15
30
0
0
SEQEND
8
Halfen
0
POLYLINE
8
Halfen
62
7
66
1
10
0.0
20
0.0
30
0.0
70
1
0
VERTEX
8
Halfen
62
7
10
 60.5
20
-55.8
30
0
0
VERTEX
8
Halfen
62
7
10
 60.5
20
-74
30
0
0
VERTEX
8
Halfen
62
7
10
 74.5
20
-74
30
0
0
VERTEX
8
Halfen
62
7
10
 74.5
20
-55.8
30
0
0
SEQEND
8
Halfen
0
POLYLINE
8
Halfen
62
7
66
1
10
0.0
20
0.0
30
0.0
70
1
0
VERTEX
8
Halfen
62
7
10
 74.5
20
 221
30
0
0
VERTEX
8
Halfen
62
7
10
 74.5
20
 871
30
0
0
VERTEX
8
Halfen
62
7
10
 60.5
20
 871
30
0
0
VERTEX
8
Halfen
62
7
10
 60.5
20
 221
30
0
0
SEQEND
8
Halfen
0
POLYLINE
8
Halfen
62
7
66
1
10
0.0
20
0.0
30
0.0
70
1
0
VERTEX
8
Halfen
62
7
10
 50
20
-41
30
0
0
VERTEX
8
Halfen
62
7
10
 85
20
-41
30
0
0
VERTEX
8
Halfen
62
7
10
 85
20
-33
30
0
0
VERTEX
8
Halfen
62
7
10
 50
20
-33
30
0
0
SEQEND
8
Halfen
0
POLYLINE
8
Halfen
62
7
66
1
10
0.0
20
0.0
30
0.0
70
1
0
VERTEX
8
Halfen
62
7
10
 55.5
20
-55.8
30
0
0
VERTEX
8
Halfen
62
7
10
 79.5
20
-55.8
30
0
0
VERTEX
8
Halfen
62
7
10
 79.5
20
-41
30
0
0
VERTEX
8
Halfen
62
7
10
 55.5
20
-41
30
0
0
SEQEND
8
Halfen
0
LINE
8
Halfen
62
7
10
 67.5
20
-55.8
30
 0
11
 67.5
21
-41
31
 0
0
ARC
8
Halfen
62
7
10
 61.5
20
-54.375
30
0
40
 13.375
50
 63.3462219238281
51
 116.653778076172
0
ARC
8
Halfen
62
7
10
 73.5
20
-54.375
30
0
40
 13.375
50
 63.3462219238281
51
 116.653778076172
0
ARC
8
Halfen
62
7
10
 61.5
20
-42.425
30
0
40
 13.375
50
 243.346221923828
51
 296.653778076172
0
ARC
8
Halfen
62
7
10
 73.5
20
-42.425
30
0
40
 13.375
50
 243.346221923828
51
 296.653778076172
0
POLYLINE
8
Halfen
62
7
66
1
10
0.0
20
0.0
30
0.0
70
1
0
VERTEX
8
Halfen
62
7
10
 175.5
20
 221
30
0
0
VERTEX
8
Halfen
62
7
10
 175.5
20
 120
30
0
0
VERTEX
8
Halfen
62
7
10
 189.5
20
 120
30
0
0
VERTEX
8
Halfen
62
7
10
 189.5
20
 221
30
0
0
SEQEND
8
Halfen
0
POLYLINE
8
Halfen
62
7
66
1
10
0.0
20
0.0
30
0.0
70
1
0
VERTEX
8
Halfen
62
7
10
 175.5
20
-15
30
0
0
VERTEX
8
Halfen
62
7
10
 175.5
20
-33
30
0
0
VERTEX
8
Halfen
62
7
10
 189.5
20
-33
30
0
0
VERTEX
8
Halfen
62
7
10
 189.5
20
-15
30
0
0
SEQEND
8
Halfen
0
POLYLINE
8
Halfen
62
7
66
1
10
0.0
20
0.0
30
0.0
70
1
0
VERTEX
8
Halfen
62
7
10
 175.5
20
-55.8
30
0
0
VERTEX
8
Halfen
62
7
10
 175.5
20
-74
30
0
0
VERTEX
8
Halfen
62
7
10
 189.5
20
-74
30
0
0
VERTEX
8
Halfen
62
7
10
 189.5
20
-55.8
30
0
0
SEQEND
8
Halfen
0
POLYLINE
8
Halfen
62
7
66
1
10
0.0
20
0.0
30
0.0
70
1
0
VERTEX
8
Halfen
62
7
10
 189.5
20
 221
30
0
0
VERTEX
8
Halfen
62
7
10
 189.5
20
 871
30
0
0
VERTEX
8
Halfen
62
7
10
 175.5
20
 871
30
0
0
VERTEX
8
Halfen
62
7
10
 175.5
20
 221
30
0
0
SEQEND
8
Halfen
0
POLYLINE
8
Halfen
62
7
66
1
10
0.0
20
0.0
30
0.0
70
1
0
VERTEX
8
Halfen
62
7
10
 165
20
-41
30
0
0
VERTEX
8
Halfen
62
7
10
 200
20
-41
30
0
0
VERTEX
8
Halfen
62
7
10
 200
20
-33
30
0
0
VERTEX
8
Halfen
62
7
10
 165
20
-33
30
0
0
SEQEND
8
Halfen
0
POLYLINE
8
Halfen
62
7
66
1
10
0.0
20
0.0
30
0.0
70
1
0
VERTEX
8
Halfen
62
7
10
 170.5
20
-55.8
30
0
0
VERTEX
8
Halfen
62
7
10
 194.5
20
-55.8
30
0
0
VERTEX
8
Halfen
62
7
10
 194.5
20
-41
30
0
0
VERTEX
8
Halfen
62
7
10
 170.5
20
-41
30
0
0
SEQEND
8
Halfen
0
LINE
8
Halfen
62
7
10
 182.5
20
-55.8
30
 0
11
 182.5
21
-41
31
 0
0
ARC
8
Halfen
62
7
10
 176.5
20
-54.375
30
0
40
 13.375
50
 63.3462219238281
51
 116.653778076172
0
ARC
8
Halfen
62
7
10
 188.5
20
-54.375
30
0
40
 13.375
50
 63.3462219238281
51
 116.653778076172
0
ARC
8
Halfen
62
7
10
 176.5
20
-42.425
30
0
40
 13.375
50
 243.346221923828
51
 296.653778076172
0
ARC
8
Halfen
62
7
10
 188.5
20
-42.425
30
0
40
 13.375
50
 243.346221923828
51
 296.653778076172
0
POLYLINE
8
Halfen
62
7
66
1
10
0.0
20
0.0
30
0.0
70
1
0
VERTEX
8
Halfen
62
7
10
 23
20
 729.473
30
0
0
VERTEX
8
Halfen
62
7
10
 23
20
 120
30
0
0
VERTEX
8
Halfen
62
7
10
 33
20
 120
30
0
0
VERTEX
8
Halfen
62
7
10
 33
20
 729.473
30
0
0
SEQEND
8
Halfen
0
POLYLINE
8
Halfen
62
7
66
1
10
0.0
20
0.0
30
0.0
70
1
0
VERTEX
8
Halfen
62
7
10
 217
20
 729.473
30
0
0
VERTEX
8
Halfen
62
7
10
 217
20
 120
30
0
0
VERTEX
8
Halfen
62
7
10
 227
20
 120
30
0
0
VERTEX
8
Halfen
62
7
10
 227
20
 729.473
30
0
0
SEQEND
8
Halfen
0
POLYLINE
8
Halfen
62
7
66
1
10
0.0
20
0.0
30
0.0
70
1
0
VERTEX
8
Halfen
62
7
10
 83
20
 221
30
0
0
VERTEX
8
Halfen
62
7
10
 83
20
 120
30
0
0
VERTEX
8
Halfen
62
7
10
 97
20
 120
30
0
0
VERTEX
8
Halfen
62
7
10
 97
20
 221
30
0
0
SEQEND
8
Halfen
0
POLYLINE
8
Halfen
62
7
66
1
10
0.0
20
0.0
30
0.0
70
1
0
VERTEX
8
Halfen
62
7
10
 83
20
 0
30
0
0
VERTEX
8
Halfen
62
7
10
 83
20
-7
30
0
0
VERTEX
8
Halfen
62
7
10
 97
20
-7
30
0
0
VERTEX
8
Halfen
62
7
10
 97
20
 0
30
0
0
SEQEND
8
Halfen
0
POLYLINE
8
Halfen
62
7
66
1
10
0.0
20
0.0
30
0.0
70
1
0
VERTEX
8
Halfen
62
7
10
 83
20
-15
30
0
0
VERTEX
8
Halfen
62
7
10
 83
20
-33
30
0
0
VERTEX
8
Halfen
62
7
10
 97
20
-33
30
0
0
VERTEX
8
Halfen
62
7
10
 97
20
-15
30
0
0
SEQEND
8
Halfen
0
POLYLINE
8
Halfen
62
7
66
1
10
0.0
20
0.0
30
0.0
70
1
0
VERTEX
8
Halfen
62
7
10
 83
20
-55.8
30
0
0
VERTEX
8
Halfen
62
7
10
 83
20
-74
30
0
0
VERTEX
8
Halfen
62
7
10
 97
20
-74
30
0
0
VERTEX
8
Halfen
62
7
10
 97
20
-55.8
30
0
0
SEQEND
8
Halfen
0
POLYLINE
8
Halfen
62
7
66
1
10
0.0
20
0.0
30
0.0
70
1
0
VERTEX
8
Halfen
62
7
10
 97
20
 221
30
0
0
VERTEX
8
Halfen
62
7
10
 97
20
 871
30
0
0
VERTEX
8
Halfen
62
7
10
 83
20
 871
30
0
0
VERTEX
8
Halfen
62
7
10
 83
20
 221
30
0
0
SEQEND
8
Halfen
0
POLYLINE
8
Halfen
62
7
66
1
10
0.0
20
0.0
30
0.0
70
1
0
VERTEX
8
Halfen
62
7
10
 72.5
20
-41
30
0
0
VERTEX
8
Halfen
62
7
10
 107.5
20
-41
30
0
0
VERTEX
8
Halfen
62
7
10
 107.5
20
-33
30
0
0
VERTEX
8
Halfen
62
7
10
 72.5
20
-33
30
0
0
SEQEND
8
Halfen
0
POLYLINE
8
Halfen
62
7
66
1
10
0.0
20
0.0
30
0.0
70
1
0
VERTEX
8
Halfen
62
7
10
 78
20
-55.8
30
0
0
VERTEX
8
Halfen
62
7
10
 102
20
-55.8
30
0
0
VERTEX
8
Halfen
62
7
10
 102
20
-41
30
0
0
VERTEX
8
Halfen
62
7
10
 78
20
-41
30
0
0
SEQEND
8
Halfen
0
LINE
8
Halfen
62
7
10
 90
20
-55.8
30
 0
11
 90
21
-41
31
 0
0
ARC
8
Halfen
62
7
10
 84
20
-54.375
30
0
40
 13.375
50
 63.3462219238281
51
 116.653778076172
0
ARC
8
Halfen
62
7
10
 96
20
-54.375
30
0
40
 13.375
50
 63.3462219238281
51
 116.653778076172
0
ARC
8
Halfen
62
7
10
 84
20
-42.425
30
0
40
 13.375
50
 243.346221923828
51
 296.653778076172
0
ARC
8
Halfen
62
7
10
 96
20
-42.425
30
0
40
 13.375
50
 243.346221923828
51
 296.653778076172
0
POLYLINE
8
Halfen
62
7
66
1
10
0.0
20
0.0
30
0.0
70
1
0
VERTEX
8
Halfen
62
7
10
 78
20
-15
30
0
0
VERTEX
8
Halfen
62
7
10
 102
20
-15
30
0
0
VERTEX
8
Halfen
62
7
10
 102
20
-7
30
0
0
VERTEX
8
Halfen
62
7
10
 78
20
-7
30
0
0
SEQEND
8
Halfen
0
LINE
8
Halfen
62
7
10
 90
20
-15
30
 0
11
 90
21
-7
31
 0
0
ARC
8
Halfen
62
7
10
 84
20
-20.375
30
0
40
 13.375
50
 63.3462219238281
51
 116.653778076172
0
ARC
8
Halfen
62
7
10
 96
20
-20.375
30
0
40
 13.375
50
 63.3462219238281
51
 116.653778076172
0
ARC
8
Halfen
62
7
10
 84
20
-1.625
30
0
40
 13.375
50
 243.346221923828
51
 296.653778076172
0
ARC
8
Halfen
62
7
10
 96
20
-1.625
30
0
40
 13.375
50
 243.346221923828
51
 296.653778076172
0
POLYLINE
8
Halfen
62
7
66
1
10
0.0
20
0.0
30
0.0
70
1
0
VERTEX
8
Halfen
62
7
10
 153
20
 221
30
0
0
VERTEX
8
Halfen
62
7
10
 153
20
 120
30
0
0
VERTEX
8
Halfen
62
7
10
 167
20
 120
30
0
0
VERTEX
8
Halfen
62
7
10
 167
20
 221
30
0
0
SEQEND
8
Halfen
0
POLYLINE
8
Halfen
62
7
66
1
10
0.0
20
0.0
30
0.0
70
1
0
VERTEX
8
Halfen
62
7
10
 153
20
 0
30
0
0
VERTEX
8
Halfen
62
7
10
 153
20
-7
30
0
0
VERTEX
8
Halfen
62
7
10
 167
20
-7
30
0
0
VERTEX
8
Halfen
62
7
10
 167
20
 0
30
0
0
SEQEND
8
Halfen
0
POLYLINE
8
Halfen
62
7
66
1
10
0.0
20
0.0
30
0.0
70
1
0
VERTEX
8
Halfen
62
7
10
 153
20
-15
30
0
0
VERTEX
8
Halfen
62
7
10
 153
20
-33
30
0
0
VERTEX
8
Halfen
62
7
10
 167
20
-33
30
0
0
VERTEX
8
Halfen
62
7
10
 167
20
-15
30
0
0
SEQEND
8
Halfen
0
POLYLINE
8
Halfen
62
7
66
1
10
0.0
20
0.0
30
0.0
70
1
0
VERTEX
8
Halfen
62
7
10
 153
20
-55.8
30
0
0
VERTEX
8
Halfen
62
7
10
 153
20
-74
30
0
0
VERTEX
8
Halfen
62
7
10
 167
20
-74
30
0
0
VERTEX
8
Halfen
62
7
10
 167
20
-55.8
30
0
0
SEQEND
8
Halfen
0
POLYLINE
8
Halfen
62
7
66
1
10
0.0
20
0.0
30
0.0
70
1
0
VERTEX
8
Halfen
62
7
10
 167
20
 221
30
0
0
VERTEX
8
Halfen
62
7
10
 167
20
 871
30
0
0
VERTEX
8
Halfen
62
7
10
 153
20
 871
30
0
0
VERTEX
8
Halfen
62
7
10
 153
20
 221
30
0
0
SEQEND
8
Halfen
0
POLYLINE
8
Halfen
62
7
66
1
10
0.0
20
0.0
30
0.0
70
1
0
VERTEX
8
Halfen
62
7
10
 142.5
20
-41
30
0
0
VERTEX
8
Halfen
62
7
10
 177.5
20
-41
30
0
0
VERTEX
8
Halfen
62
7
10
 177.5
20
-33
30
0
0
VERTEX
8
Halfen
62
7
10
 142.5
20
-33
30
0
0
SEQEND
8
Halfen
0
POLYLINE
8
Halfen
62
7
66
1
10
0.0
20
0.0
30
0.0
70
1
0
VERTEX
8
Halfen
62
7
10
 148
20
-55.8
30
0
0
VERTEX
8
Halfen
62
7
10
 172
20
-55.8
30
0
0
VERTEX
8
Halfen
62
7
10
 172
20
-41
30
0
0
VERTEX
8
Halfen
62
7
10
 148
20
-41
30
0
0
SEQEND
8
Halfen
0
LINE
8
Halfen
62
7
10
 160
20
-55.8
30
 0
11
 160
21
-41
31
 0
0
ARC
8
Halfen
62
7
10
 154
20
-54.375
30
0
40
 13.375
50
 63.3462219238281
51
 116.653778076172
0
ARC
8
Halfen
62
7
10
 166
20
-54.375
30
0
40
 13.375
50
 63.3462219238281
51
 116.653778076172
0
ARC
8
Halfen
62
7
10
 154
20
-42.425
30
0
40
 13.375
50
 243.346221923828
51
 296.653778076172
0
ARC
8
Halfen
62
7
10
 166
20
-42.425
30
0
40
 13.375
50
 243.346221923828
51
 296.653778076172
0
POLYLINE
8
Halfen
62
7
66
1
10
0.0
20
0.0
30
0.0
70
1
0
VERTEX
8
Halfen
62
7
10
 148
20
-15
30
0
0
VERTEX
8
Halfen
62
7
10
 172
20
-15
30
0
0
VERTEX
8
Halfen
62
7
10
 172
20
-7
30
0
0
VERTEX
8
Halfen
62
7
10
 148
20
-7
30
0
0
SEQEND
8
Halfen
0
LINE
8
Halfen
62
7
10
 160
20
-15
30
 0
11
 160
21
-7
31
 0
0
ARC
8
Halfen
62
7
10
 154
20
-20.375
30
0
40
 13.375
50
 63.3462219238281
51
 116.653778076172
0
ARC
8
Halfen
62
7
10
 166
20
-20.375
30
0
40
 13.375
50
 63.3462219238281
51
 116.653778076172
0
ARC
8
Halfen
62
7
10
 154
20
-1.625
30
0
40
 13.375
50
 243.346221923828
51
 296.653778076172
0
ARC
8
Halfen
62
7
10
 166
20
-1.625
30
0
40
 13.375
50
 243.346221923828
51
 296.653778076172
0
POLYLINE
8
Halfen
62
7
66
1
10
0.0
20
0.0
30
0.0
70
1
0
VERTEX
8
Halfen
62
7
10
 0
20
-324
30
0
0
VERTEX
8
Halfen
62
7
10
 120
20
-324
30
0
0
VERTEX
8
Halfen
62
7
10
 120
20
-124
30
0
0
VERTEX
8
Halfen
62
7
10
 0
20
-124
30
0
0
SEQEND
8
Halfen
0
POLYLINE
8
Halfen
62
7
66
1
10
0.0
20
0.0
30
0.0
70
1
0
VERTEX
8
Halfen
62
7
10
-15
20
-306
30
0
0
VERTEX
8
Halfen
62
7
10
 0
20
-306
30
0
0
VERTEX
8
Halfen
62
7
10
 0
20
-252
30
0
0
VERTEX
8
Halfen
62
7
10
-11
20
-252
30
0
0
VERTEX
8
Halfen
62
7
10
-15
20
-256
30
0
0
SEQEND
8
Halfen
0
POLYLINE
8
Halfen
62
7
66
1
10
0.0
20
0.0
30
0.0
70
1
0
VERTEX
8
Halfen
62
7
10
 221
20
-277
30
0
0
VERTEX
8
Halfen
62
7
10
 120
20
-277
30
0
0
VERTEX
8
Halfen
62
7
10
 120
20
-291
30
0
0
VERTEX
8
Halfen
62
7
10
 221
20
-291
30
0
0
SEQEND
8
Halfen
0
POLYLINE
8
Halfen
62
7
66
1
10
0.0
20
0.0
30
0.0
70
1
0
VERTEX
8
Halfen
62
7
10
-15
20
-277
30
0
0
VERTEX
8
Halfen
62
7
10
-33
20
-277
30
0
0
VERTEX
8
Halfen
62
7
10
-33
20
-291
30
0
0
VERTEX
8
Halfen
62
7
10
-15
20
-291
30
0
0
SEQEND
8
Halfen
0
POLYLINE
8
Halfen
62
7
66
1
10
0.0
20
0.0
30
0.0
70
1
0
VERTEX
8
Halfen
62
7
10
-55.8
20
-277
30
0
0
VERTEX
8
Halfen
62
7
10
-74
20
-277
30
0
0
VERTEX
8
Halfen
62
7
10
-74
20
-291
30
0
0
VERTEX
8
Halfen
62
7
10
-55.8
20
-291
30
0
0
SEQEND
8
Halfen
0
POLYLINE
8
Halfen
62
7
66
1
10
0.0
20
0.0
30
0.0
70
1
0
VERTEX
8
Halfen
62
7
10
 221
20
-291
30
0
0
VERTEX
8
Halfen
62
7
10
 871
20
-291
30
0
0
VERTEX
8
Halfen
62
7
10
 871
20
-277
30
0
0
VERTEX
8
Halfen
62
7
10
 221
20
-277
30
0
0
SEQEND
8
Halfen
0
POLYLINE
8
Halfen
62
7
66
1
10
0.0
20
0.0
30
0.0
70
1
0
VERTEX
8
Halfen
62
7
10
-41
20
-301.5
30
0
0
VERTEX
8
Halfen
62
7
10
-33
20
-301.5
30
0
0
VERTEX
8
Halfen
62
7
10
-33
20
-266.5
30
0
0
VERTEX
8
Halfen
62
7
10
-41
20
-266.5
30
0
0
SEQEND
8
Halfen
0
POLYLINE
8
Halfen
62
7
66
1
10
0.0
20
0.0
30
0.0
70
1
0
VERTEX
8
Halfen
62
7
10
-54.566
20
-297.375
30
0
0
VERTEX
8
Halfen
62
7
10
-42.234
20
-297.375
30
0
0
VERTEX
8
Halfen
62
7
10
-41
20
-296.141
30
0
0
VERTEX
8
Halfen
62
7
10
-41
20
-271.859
30
0
0
VERTEX
8
Halfen
62
7
10
-42.234
20
-270.625
30
0
0
VERTEX
8
Halfen
62
7
10
-54.566
20
-270.625
30
0
0
VERTEX
8
Halfen
62
7
10
-55.8
20
-271.859
30
0
0
VERTEX
8
Halfen
62
7
10
-55.8
20
-296.141
30
0
0
SEQEND
8
Halfen
0
LINE
8
Halfen
62
7
10
-55.8
20
-277.072
30
 0
11
-41
21
-277.072
31
 0
0
LINE
8
Halfen
62
7
10
-55.8
20
-290.928
30
 0
11
-41
21
-290.928
31
 0
0
ARC
8
Halfen
62
7
10
-61.062
20
-284
30
0
40
 20.062
50
-20.2019958496094
51
 20.2020034790039
0
ARC
8
Halfen
62
7
10
-35.738
20
-284
30
0
40
 20.062
50
 159.798004150391
51
 200.201995849609
0
ARC
8
Halfen
62
7
10
-46.478
20
-274.089
30
0
40
 5.478
50
-39.2209777832031
51
 39.2209815979004
0
ARC
8
Halfen
62
7
10
-46.478
20
-293.911
30
0
40
 5.478
50
-39.2209777832031
51
 39.2209815979004
0
ARC
8
Halfen
62
7
10
-50.322
20
-293.911
30
0
40
 5.478
50
 140.779022216797
51
 219.220977783203
0
ARC
8
Halfen
62
7
10
-50.322
20
-274.089
30
0
40
 5.478
50
 140.779022216797
51
 219.220977783203
0
POLYLINE
8
Halfen
62
7
66
1
10
0.0
20
0.0
30
0.0
70
1
0
VERTEX
8
Halfen
62
7
10
 221
20
-144
30
0
0
VERTEX
8
Halfen
62
7
10
 120
20
-144
30
0
0
VERTEX
8
Halfen
62
7
10
 120
20
-158
30
0
0
VERTEX
8
Halfen
62
7
10
 221
20
-158
30
0
0
SEQEND
8
Halfen
0
POLYLINE
8
Halfen
62
7
66
1
10
0.0
20
0.0
30
0.0
70
1
0
VERTEX
8
Halfen
62
7
10
 0
20
-144
30
0
0
VERTEX
8
Halfen
62
7
10
-7
20
-144
30
0
0
VERTEX
8
Halfen
62
7
10
-7
20
-158
30
0
0
VERTEX
8
Halfen
62
7
10
 0
20
-158
30
0
0
SEQEND
8
Halfen
0
POLYLINE
8
Halfen
62
7
66
1
10
0.0
20
0.0
30
0.0
70
1
0
VERTEX
8
Halfen
62
7
10
-15
20
-144
30
0
0
VERTEX
8
Halfen
62
7
10
-33
20
-144
30
0
0
VERTEX
8
Halfen
62
7
10
-33
20
-158
30
0
0
VERTEX
8
Halfen
62
7
10
-15
20
-158
30
0
0
SEQEND
8
Halfen
0
POLYLINE
8
Halfen
62
7
66
1
10
0.0
20
0.0
30
0.0
70
1
0
VERTEX
8
Halfen
62
7
10
-55.8
20
-144
30
0
0
VERTEX
8
Halfen
62
7
10
-74
20
-144
30
0
0
VERTEX
8
Halfen
62
7
10
-74
20
-158
30
0
0
VERTEX
8
Halfen
62
7
10
-55.8
20
-158
30
0
0
SEQEND
8
Halfen
0
POLYLINE
8
Halfen
62
7
66
1
10
0.0
20
0.0
30
0.0
70
1
0
VERTEX
8
Halfen
62
7
10
 221
20
-158
30
0
0
VERTEX
8
Halfen
62
7
10
 871
20
-158
30
0
0
VERTEX
8
Halfen
62
7
10
 871
20
-144
30
0
0
VERTEX
8
Halfen
62
7
10
 221
20
-144
30
0
0
SEQEND
8
Halfen
0
POLYLINE
8
Halfen
62
7
66
1
10
0.0
20
0.0
30
0.0
70
1
0
VERTEX
8
Halfen
62
7
10
-41
20
-168.5
30
0
0
VERTEX
8
Halfen
62
7
10
-33
20
-168.5
30
0
0
VERTEX
8
Halfen
62
7
10
-33
20
-133.5
30
0
0
VERTEX
8
Halfen
62
7
10
-41
20
-133.5
30
0
0
SEQEND
8
Halfen
0
POLYLINE
8
Halfen
62
7
66
1
10
0.0
20
0.0
30
0.0
70
1
0
VERTEX
8
Halfen
62
7
10
-54.566
20
-164.375
30
0
0
VERTEX
8
Halfen
62
7
10
-42.234
20
-164.375
30
0
0
VERTEX
8
Halfen
62
7
10
-41
20
-163.141
30
0
0
VERTEX
8
Halfen
62
7
10
-41
20
-138.859
30
0
0
VERTEX
8
Halfen
62
7
10
-42.234
20
-137.625
30
0
0
VERTEX
8
Halfen
62
7
10
-54.566
20
-137.625
30
0
0
VERTEX
8
Halfen
62
7
10
-55.8
20
-138.859
30
0
0
VERTEX
8
Halfen
62
7
10
-55.8
20
-163.141
30
0
0
SEQEND
8
Halfen
0
LINE
8
Halfen
62
7
10
-55.8
20
-144.072
30
 0
11
-41
21
-144.072
31
 0
0
LINE
8
Halfen
62
7
10
-55.8
20
-157.928
30
 0
11
-41
21
-157.928
31
 0
0
ARC
8
Halfen
62
7
10
-61.062
20
-151
30
0
40
 20.062
50
-20.2019958496094
51
 20.2020034790039
0
ARC
8
Halfen
62
7
10
-35.738
20
-151
30
0
40
 20.062
50
 159.798004150391
51
 200.201995849609
0
ARC
8
Halfen
62
7
10
-46.478
20
-141.089
30
0
40
 5.478
50
-39.2209777832031
51
 39.2209815979004
0
ARC
8
Halfen
62
7
10
-46.478
20
-160.911
30
0
40
 5.478
50
-39.2209777832031
51
 39.2209815979004
0
ARC
8
Halfen
62
7
10
-50.322
20
-160.911
30
0
40
 5.478
50
 140.779022216797
51
 219.220977783203
0
ARC
8
Halfen
62
7
10
-50.322
20
-141.089
30
0
40
 5.478
50
 140.779022216797
51
 219.220977783203
0
POLYLINE
8
Halfen
62
7
66
1
10
0.0
20
0.0
30
0.0
70
1
0
VERTEX
8
Halfen
62
7
10
-13.766
20
-164.375
30
0
0
VERTEX
8
Halfen
62
7
10
-8.234
20
-164.375
30
0
0
VERTEX
8
Halfen
62
7
10
-7
20
-163.141
30
0
0
VERTEX
8
Halfen
62
7
10
-7
20
-138.859
30
0
0
VERTEX
8
Halfen
62
7
10
-8.234
20
-137.625
30
0
0
VERTEX
8
Halfen
62
7
10
-13.766
20
-137.625
30
0
0
VERTEX
8
Halfen
62
7
10
-15
20
-138.859
30
0
0
VERTEX
8
Halfen
62
7
10
-15
20
-163.141
30
0
0
SEQEND
8
Halfen
0
LINE
8
Halfen
62
7
10
-15
20
-144.072
30
 0
11
-7
21
-144.072
31
 0
0
LINE
8
Halfen
62
7
10
-15
20
-157.928
30
 0
11
-7
21
-157.928
31
 0
0
ARC
8
Halfen
62
7
10
-27.062
20
-151
30
0
40
 20.062
50
-20.2019958496094
51
 20.2020034790039
0
ARC
8
Halfen
62
7
10
 5.062
20
-151
30
0
40
 20.062
50
 159.798004150391
51
 200.201995849609
0
ARC
8
Halfen
62
7
10
-12.478
20
-141.089
30
0
40
 5.478
50
-39.2209777832031
51
 39.2209815979004
0
ARC
8
Halfen
62
7
10
-12.478
20
-160.911
30
0
40
 5.478
50
-39.2209777832031
51
 39.2209815979004
0
ARC
8
Halfen
62
7
10
-9.522
20
-160.911
30
0
40
 5.478
50
 140.779022216797
51
 219.220977783203
0
ARC
8
Halfen
62
7
10
-9.522
20
-141.089
30
0
40
 5.478
50
 140.779022216797
51
 219.220977783203
0
POLYLINE
8
Halfen
62
7
66
1
10
0.0
20
0.0
30
0.0
70
1
0
VERTEX
8
Halfen
62
7
10
 729.473
20
-151.83
30
0
0
VERTEX
8
Halfen
62
7
10
 200.212
20
-151.83
30
0
0
VERTEX
8
Halfen
62
7
10
 193.266
20
-152.438
30
0
0
VERTEX
8
Halfen
62
7
10
 186.531
20
-154.243
30
0
0
VERTEX
8
Halfen
62
7
10
 180.212
20
-157.189
30
0
0
VERTEX
8
Halfen
62
7
10
 174.5
20
-161.188
30
0
0
VERTEX
8
Halfen
62
7
10
 120
20
-206.919
30
0
0
VERTEX
8
Halfen
62
7
10
 120
20
-219.973
30
0
0
VERTEX
8
Halfen
62
7
10
 180.928
20
-168.849
30
0
0
VERTEX
8
Halfen
62
7
10
 185.212
20
-165.849
30
0
0
VERTEX
8
Halfen
62
7
10
 189.951
20
-163.639
30
0
0
VERTEX
8
Halfen
62
7
10
 195.002
20
-162.286
30
0
0
VERTEX
8
Halfen
62
7
10
 200.212
20
-161.83
30
0
0
VERTEX
8
Halfen
62
7
10
 729.473
20
-161.83
30
0
0
SEQEND
8
Halfen
0
POLYLINE
8
Halfen
62
7
66
1
10
0.0
20
0.0
30
0.0
70
1
0
VERTEX
8
Halfen
62
7
10
 0
20
-574
30
0
0
VERTEX
8
Halfen
62
7
10
 250
20
-574
30
0
0
VERTEX
8
Halfen
62
7
10
 250
20
-374
30
0
0
VERTEX
8
Halfen
62
7
10
 0
20
-374
30
0
0
SEQEND
8
Halfen
0
POLYLINE
8
Halfen
62
7
66
1
10
0.0
20
0.0
30
0.0
70
1
0
VERTEX
8
Halfen
62
7
10
 25
20
-551
30
0
0
VERTEX
8
Halfen
62
7
10
 25.096
20
-551.975
30
0
0
VERTEX
8
Halfen
62
7
10
 25.381
20
-552.913
30
0
0
VERTEX
8
Halfen
62
7
10
 25.843
20
-553.778
30
0
0
VERTEX
8
Halfen
62
7
10
 26.464
20
-554.536
30
0
0
VERTEX
8
Halfen
62
7
10
 27.222
20
-555.157
30
0
0
VERTEX
8
Halfen
62
7
10
 28.087
20
-555.619
30
0
0
VERTEX
8
Halfen
62
7
10
 29.025
20
-555.904
30
0
0
VERTEX
8
Halfen
62
7
10
 30
20
-556
30
0
0
VERTEX
8
Halfen
62
7
10
 220
20
-556
30
0
0
VERTEX
8
Halfen
62
7
10
 220.975
20
-555.904
30
0
0
VERTEX
8
Halfen
62
7
10
 221.913
20
-555.619
30
0
0
VERTEX
8
Halfen
62
7
10
 222.778
20
-555.157
30
0
0
VERTEX
8
Halfen
62
7
10
 223.536
20
-554.536
30
0
0
VERTEX
8
Halfen
62
7
10
 224.157
20
-553.778
30
0
0
VERTEX
8
Halfen
62
7
10
 224.619
20
-552.913
30
0
0
VERTEX
8
Halfen
62
7
10
 224.904
20
-551.975
30
0
0
VERTEX
8
Halfen
62
7
10
 225
20
-551
30
0
0
VERTEX
8
Halfen
62
7
10
 225
20
-507
30
0
0
VERTEX
8
Halfen
62
7
10
 224.904
20
-506.025
30
0
0
VERTEX
8
Halfen
62
7
10
 224.619
20
-505.087
30
0
0
VERTEX
8
Halfen
62
7
10
 224.157
20
-504.222
30
0
0
VERTEX
8
Halfen
62
7
10
 223.536
20
-503.464
30
0
0
VERTEX
8
Halfen
62
7
10
 222.778
20
-502.843
30
0
0
VERTEX
8
Halfen
62
7
10
 221.913
20
-502.381
30
0
0
VERTEX
8
Halfen
62
7
10
 220.975
20
-502.096
30
0
0
VERTEX
8
Halfen
62
7
10
 220
20
-502
30
0
0
VERTEX
8
Halfen
62
7
10
 30
20
-502
30
0
0
VERTEX
8
Halfen
62
7
10
 29.025
20
-502.096
30
0
0
VERTEX
8
Halfen
62
7
10
 28.087
20
-502.381
30
0
0
VERTEX
8
Halfen
62
7
10
 27.222
20
-502.843
30
0
0
VERTEX
8
Halfen
62
7
10
 26.464
20
-503.464
30
0
0
VERTEX
8
Halfen
62
7
10
 25.843
20
-504.222
30
0
0
VERTEX
8
Halfen
62
7
10
 25.381
20
-505.087
30
0
0
VERTEX
8
Halfen
62
7
10
 25.096
20
-506.025
30
0
0
VERTEX
8
Halfen
62
7
10
 25
20
-507
30
0
0
SEQEND
8
Halfen
0
LINE
8
Halfen
62
7
10
 25.101
20
-506
30
 0
11
 224.899
21
-506
31
 0
0
POLYLINE
8
Halfen
62
7
66
1
10
0.0
20
0.0
30
0.0
70
1
0
VERTEX
8
Halfen
62
7
10
 47.896
20
-520.76
30
0
0
VERTEX
8
Halfen
62
7
10
 46.281
20
-520.841
30
0
0
VERTEX
8
Halfen
62
7
10
 44.712
20
-521.235
30
0
0
VERTEX
8
Halfen
62
7
10
 43.251
20
-521.928
30
0
0
VERTEX
8
Halfen
62
7
10
 41.953
20
-522.893
30
0
0
VERTEX
8
Halfen
62
7
10
 40.868
20
-524.093
30
0
0
VERTEX
8
Halfen
62
7
10
 40.038
20
-525.481
30
0
0
VERTEX
8
Halfen
62
7
10
 39.495
20
-527.004
30
0
0
VERTEX
8
Halfen
62
7
10
 39.26
20
-528.604
30
0
0
VERTEX
8
Halfen
62
7
10
 39.341
20
-530.219
30
0
0
VERTEX
8
Halfen
62
7
10
 39.735
20
-531.788
30
0
0
VERTEX
8
Halfen
62
7
10
 40.428
20
-533.249
30
0
0
VERTEX
8
Halfen
62
7
10
 41.393
20
-534.547
30
0
0
VERTEX
8
Halfen
62
7
10
 42.593
20
-535.632
30
0
0
VERTEX
8
Halfen
62
7
10
 43.981
20
-536.462
30
0
0
VERTEX
8
Halfen
62
7
10
 45.504
20
-537.005
30
0
0
VERTEX
8
Halfen
62
7
10
 50.549
20
-538.263
30
0
0
VERTEX
8
Halfen
62
7
10
 50.336
20
-537.414
30
0
0
VERTEX
8
Halfen
62
7
10
 50.084
20
-535.715
30
0
0
VERTEX
8
Halfen
62
7
10
 50
20
-534
30
0
0
VERTEX
8
Halfen
62
7
10
 50.084
20
-532.285
30
0
0
VERTEX
8
Halfen
62
7
10
 50.336
20
-530.586
30
0
0
VERTEX
8
Halfen
62
7
10
 50.754
20
-528.92
30
0
0
VERTEX
8
Halfen
62
7
10
 51.332
20
-527.303
30
0
0
VERTEX
8
Halfen
62
7
10
 52.066
20
-525.751
30
0
0
VERTEX
8
Halfen
62
7
10
 52.949
20
-524.278
30
0
0
VERTEX
8
Halfen
62
7
10
 53.972
20
-522.898
30
0
0
VERTEX
8
Halfen
62
7
10
 54.554
20
-522.256
30
0
0
VERTEX
8
Halfen
62
7
10
 49.496
20
-520.995
30
0
0
SEQEND
8
Halfen
0
POLYLINE
8
Halfen
62
7
66
1
10
0.0
20
0.0
30
0.0
70
1
0
VERTEX
8
Halfen
62
7
10
 84.444
20
-529.709
30
0
0
VERTEX
8
Halfen
62
7
10
 84.664
20
-530.586
30
0
0
VERTEX
8
Halfen
62
7
10
 84.916
20
-532.285
30
0
0
VERTEX
8
Halfen
62
7
10
 85
20
-534
30
0
0
VERTEX
8
Halfen
62
7
10
 84.916
20
-535.715
30
0
0
VERTEX
8
Halfen
62
7
10
 84.664
20
-537.414
30
0
0
VERTEX
8
Halfen
62
7
10
 84.246
20
-539.08
30
0
0
VERTEX
8
Halfen
62
7
10
 83.668
20
-540.697
30
0
0
VERTEX
8
Halfen
62
7
10
 82.934
20
-542.249
30
0
0
VERTEX
8
Halfen
62
7
10
 82.051
20
-543.722
30
0
0
VERTEX
8
Halfen
62
7
10
 81.028
20
-545.102
30
0
0
VERTEX
8
Halfen
62
7
10
 80.466
20
-545.722
30
0
0
VERTEX
8
Halfen
62
7
10
 85.504
20
-546.978
30
0
0
VERTEX
8
Halfen
62
7
10
 87.104
20
-547.214
30
0
0
VERTEX
8
Halfen
62
7
10
 88.719
20
-547.133
30
0
0
VERTEX
8
Halfen
62
7
10
 90.288
20
-546.738
30
0
0
VERTEX
8
Halfen
62
7
10
 91.749
20
-546.045
30
0
0
VERTEX
8
Halfen
62
7
10
 93.047
20
-545.08
30
0
0
VERTEX
8
Halfen
62
7
10
 94.132
20
-543.88
30
0
0
VERTEX
8
Halfen
62
7
10
 94.962
20
-542.492
30
0
0
VERTEX
8
Halfen
62
7
10
 95.505
20
-540.969
30
0
0
VERTEX
8
Halfen
62
7
10
 95.741
20
-539.369
30
0
0
VERTEX
8
Halfen
62
7
10
 95.659
20
-537.754
30
0
0
VERTEX
8
Halfen
62
7
10
 95.265
20
-536.185
30
0
0
VERTEX
8
Halfen
62
7
10
 94.572
20
-534.724
30
0
0
VERTEX
8
Halfen
62
7
10
 93.607
20
-533.426
30
0
0
VERTEX
8
Halfen
62
7
10
 92.407
20
-532.341
30
0
0
VERTEX
8
Halfen
62
7
10
 91.019
20
-531.511
30
0
0
VERTEX
8
Halfen
62
7
10
 89.496
20
-530.968
30
0
0
SEQEND
8
Halfen
0
POLYLINE
8
Halfen
62
7
66
1
10
0.0
20
0.0
30
0.0
70
1
0
VERTEX
8
Halfen
62
7
10
 162.896
20
-520.76
30
0
0
VERTEX
8
Halfen
62
7
10
 161.281
20
-520.841
30
0
0
VERTEX
8
Halfen
62
7
10
 159.712
20
-521.235
30
0
0
VERTEX
8
Halfen
62
7
10
 158.251
20
-521.928
30
0
0
VERTEX
8
Halfen
62
7
10
 156.953
20
-522.893
30
0
0
VERTEX
8
Halfen
62
7
10
 155.868
20
-524.093
30
0
0
VERTEX
8
Halfen
62
7
10
 155.038
20
-525.481
30
0
0
VERTEX
8
Halfen
62
7
10
 154.495
20
-527.004
30
0
0
VERTEX
8
Halfen
62
7
10
 154.26
20
-528.604
30
0
0
VERTEX
8
Halfen
62
7
10
 154.341
20
-530.219
30
0
0
VERTEX
8
Halfen
62
7
10
 154.735
20
-531.788
30
0
0
VERTEX
8
Halfen
62
7
10
 155.428
20
-533.249
30
0
0
VERTEX
8
Halfen
62
7
10
 156.393
20
-534.547
30
0
0
VERTEX
8
Halfen
62
7
10
 157.593
20
-535.632
30
0
0
VERTEX
8
Halfen
62
7
10
 158.981
20
-536.462
30
0
0
VERTEX
8
Halfen
62
7
10
 160.504
20
-537.005
30
0
0
VERTEX
8
Halfen
62
7
10
 165.549
20
-538.263
30
0
0
VERTEX
8
Halfen
62
7
10
 165.336
20
-537.414
30
0
0
VERTEX
8
Halfen
62
7
10
 165.084
20
-535.715
30
0
0
VERTEX
8
Halfen
62
7
10
 165
20
-534
30
0
0
VERTEX
8
Halfen
62
7
10
 165.084
20
-532.285
30
0
0
VERTEX
8
Halfen
62
7
10
 165.336
20
-530.586
30
0
0
VERTEX
8
Halfen
62
7
10
 165.754
20
-528.92
30
0
0
VERTEX
8
Halfen
62
7
10
 166.332
20
-527.303
30
0
0
VERTEX
8
Halfen
62
7
10
 167.066
20
-525.751
30
0
0
VERTEX
8
Halfen
62
7
10
 167.949
20
-524.278
30
0
0
VERTEX
8
Halfen
62
7
10
 168.972
20
-522.898
30
0
0
VERTEX
8
Halfen
62
7
10
 169.554
20
-522.256
30
0
0
VERTEX
8
Halfen
62
7
10
 164.496
20
-520.995
30
0
0
SEQEND
8
Halfen
0
POLYLINE
8
Halfen
62
7
66
1
10
0.0
20
0.0
30
0.0
70
1
0
VERTEX
8
Halfen
62
7
10
 199.444
20
-529.709
30
0
0
VERTEX
8
Halfen
62
7
10
 199.664
20
-530.586
30
0
0
VERTEX
8
Halfen
62
7
10
 199.916
20
-532.285
30
0
0
VERTEX
8
Halfen
62
7
10
 200
20
-534
30
0
0
VERTEX
8
Halfen
62
7
10
 199.916
20
-535.715
30
0
0
VERTEX
8
Halfen
62
7
10
 199.664
20
-537.414
30
0
0
VERTEX
8
Halfen
62
7
10
 199.246
20
-539.08
30
0
0
VERTEX
8
Halfen
62
7
10
 198.668
20
-540.697
30
0
0
VERTEX
8
Halfen
62
7
10
 197.934
20
-542.249
30
0
0
VERTEX
8
Halfen
62
7
10
 197.051
20
-543.722
30
0
0
VERTEX
8
Halfen
62
7
10
 196.028
20
-545.102
30
0
0
VERTEX
8
Halfen
62
7
10
 195.466
20
-545.722
30
0
0
VERTEX
8
Halfen
62
7
10
 200.504
20
-546.978
30
0
0
VERTEX
8
Halfen
62
7
10
 202.104
20
-547.214
30
0
0
VERTEX
8
Halfen
62
7
10
 203.719
20
-547.133
30
0
0
VERTEX
8
Halfen
62
7
10
 205.288
20
-546.738
30
0
0
VERTEX
8
Halfen
62
7
10
 206.749
20
-546.045
30
0
0
VERTEX
8
Halfen
62
7
10
 208.047
20
-545.08
30
0
0
VERTEX
8
Halfen
62
7
10
 209.132
20
-543.88
30
0
0
VERTEX
8
Halfen
62
7
10
 209.962
20
-542.492
30
0
0
VERTEX
8
Halfen
62
7
10
 210.505
20
-540.969
30
0
0
VERTEX
8
Halfen
62
7
10
 210.74
20
-539.369
30
0
0
VERTEX
8
Halfen
62
7
10
 210.659
20
-537.754
30
0
0
VERTEX
8
Halfen
62
7
10
 210.265
20
-536.185
30
0
0
VERTEX
8
Halfen
62
7
10
 209.572
20
-534.724
30
0
0
VERTEX
8
Halfen
62
7
10
 208.607
20
-533.426
30
0
0
VERTEX
8
Halfen
62
7
10
 207.407
20
-532.341
30
0
0
VERTEX
8
Halfen
62
7
10
 206.019
20
-531.511
30
0
0
VERTEX
8
Halfen
62
7
10
 204.496
20
-530.968
30
0
0
SEQEND
8
Halfen
0
POLYLINE
8
Halfen
62
7
66
1
10
0.0
20
0.0
30
0.0
70
1
0
VERTEX
8
Halfen
62
7
10
 114.5
20
-539
30
0
0
VERTEX
8
Halfen
62
7
10
 123
20
-539
30
0
0
VERTEX
8
Halfen
62
7
10
 123
20
-537
30
0
0
VERTEX
8
Halfen
62
7
10
 116.5
20
-537
30
0
0
VERTEX
8
Halfen
62
7
10
 116.5
20
-521
30
0
0
VERTEX
8
Halfen
62
7
10
 133.5
20
-521
30
0
0
VERTEX
8
Halfen
62
7
10
 133.5
20
-537
30
0
0
VERTEX
8
Halfen
62
7
10
 127
20
-537
30
0
0
VERTEX
8
Halfen
62
7
10
 127
20
-539
30
0
0
VERTEX
8
Halfen
62
7
10
 135.5
20
-539
30
0
0
VERTEX
8
Halfen
62
7
10
 135.5
20
-519
30
0
0
VERTEX
8
Halfen
62
7
10
 114.5
20
-519
30
0
0
SEQEND
8
Halfen
0
POLYLINE
8
Halfen
62
7
66
1
10
0.0
20
0.0
30
0.0
70
1
0
VERTEX
8
Halfen
62
7
10
 118.5
20
-535
30
0
0
VERTEX
8
Halfen
62
7
10
 123
20
-535
30
0
0
VERTEX
8
Halfen
62
7
10
 123
20
-531
30
0
0
VERTEX
8
Halfen
62
7
10
 127
20
-531
30
0
0
VERTEX
8
Halfen
62
7
10
 127
20
-535
30
0
0
VERTEX
8
Halfen
62
7
10
 131.5
20
-535
30
0
0
VERTEX
8
Halfen
62
7
10
 131.5
20
-523
30
0
0
VERTEX
8
Halfen
62
7
10
 127
20
-523
30
0
0
VERTEX
8
Halfen
62
7
10
 127
20
-527
30
0
0
VERTEX
8
Halfen
62
7
10
 123
20
-527
30
0
0
VERTEX
8
Halfen
62
7
10
 123
20
-523
30
0
0
VERTEX
8
Halfen
62
7
10
 118.5
20
-523
30
0
0
SEQEND
8
Halfen
0
POLYLINE
8
Halfen
62
7
66
1
10
0.0
20
0.0
30
0.0
70
1
0
VERTEX
8
Halfen
62
7
10
 85
20
-534
30
0
0
VERTEX
8
Halfen
62
7
10
 84.664
20
-530.586
30
0
0
VERTEX
8
Halfen
62
7
10
 83.668
20
-527.303
30
0
0
VERTEX
8
Halfen
62
7
10
 82.051
20
-524.278
30
0
0
VERTEX
8
Halfen
62
7
10
 79.874
20
-521.626
30
0
0
VERTEX
8
Halfen
62
7
10
 77.222
20
-519.449
30
0
0
VERTEX
8
Halfen
62
7
10
 74.197
20
-517.832
30
0
0
VERTEX
8
Halfen
62
7
10
 70.914
20
-516.836
30
0
0
VERTEX
8
Halfen
62
7
10
 67.5
20
-516.5
30
0
0
VERTEX
8
Halfen
62
7
10
 64.086
20
-516.836
30
0
0
VERTEX
8
Halfen
62
7
10
 60.803
20
-517.832
30
0
0
VERTEX
8
Halfen
62
7
10
 57.778
20
-519.449
30
0
0
VERTEX
8
Halfen
62
7
10
 55.126
20
-521.626
30
0
0
VERTEX
8
Halfen
62
7
10
 52.949
20
-524.278
30
0
0
VERTEX
8
Halfen
62
7
10
 51.332
20
-527.303
30
0
0
VERTEX
8
Halfen
62
7
10
 50.336
20
-530.586
30
0
0
VERTEX
8
Halfen
62
7
10
 50
20
-534
30
0
0
VERTEX
8
Halfen
62
7
10
 50.336
20
-537.414
30
0
0
VERTEX
8
Halfen
62
7
10
 51.332
20
-540.697
30
0
0
VERTEX
8
Halfen
62
7
10
 52.949
20
-543.722
30
0
0
VERTEX
8
Halfen
62
7
10
 55.126
20
-546.374
30
0
0
VERTEX
8
Halfen
62
7
10
 57.778
20
-548.551
30
0
0
VERTEX
8
Halfen
62
7
10
 60.803
20
-550.168
30
0
0
VERTEX
8
Halfen
62
7
10
 64.086
20
-551.164
30
0
0
VERTEX
8
Halfen
62
7
10
 67.5
20
-551.5
30
0
0
VERTEX
8
Halfen
62
7
10
 70.914
20
-551.164
30
0
0
VERTEX
8
Halfen
62
7
10
 74.197
20
-550.168
30
0
0
VERTEX
8
Halfen
62
7
10
 77.222
20
-548.551
30
0
0
VERTEX
8
Halfen
62
7
10
 79.874
20
-546.374
30
0
0
VERTEX
8
Halfen
62
7
10
 82.051
20
-543.722
30
0
0
VERTEX
8
Halfen
62
7
10
 83.668
20
-540.697
30
0
0
VERTEX
8
Halfen
62
7
10
 84.664
20
-537.414
30
0
0
SEQEND
8
Halfen
0
POLYLINE
8
Halfen
62
7
66
1
10
0.0
20
0.0
30
0.0
70
1
0
VERTEX
8
Halfen
62
7
10
 67.5
20
-547.375
30
0
0
VERTEX
8
Halfen
62
7
10
 79.083
20
-540.688
30
0
0
VERTEX
8
Halfen
62
7
10
 79.083
20
-527.312
30
0
0
VERTEX
8
Halfen
62
7
10
 67.5
20
-520.625
30
0
0
VERTEX
8
Halfen
62
7
10
 55.917
20
-527.312
30
0
0
VERTEX
8
Halfen
62
7
10
 55.917
20
-540.688
30
0
0
SEQEND
8
Halfen
0
CIRCLE
8
Halfen
62
7
10
 67.5
20
-534
30
0
40
 11.5
0
CIRCLE
8
Halfen
62
7
10
 67.5
20
-534
30
0
40
 8
0
POLYLINE
8
Halfen
62
7
66
1
10
0.0
20
0.0
30
0.0
70
1
0
VERTEX
8
Halfen
62
7
10
 200
20
-534
30
0
0
VERTEX
8
Halfen
62
7
10
 199.664
20
-530.586
30
0
0
VERTEX
8
Halfen
62
7
10
 198.668
20
-527.303
30
0
0
VERTEX
8
Halfen
62
7
10
 197.051
20
-524.278
30
0
0
VERTEX
8
Halfen
62
7
10
 194.874
20
-521.626
30
0
0
VERTEX
8
Halfen
62
7
10
 192.222
20
-519.449
30
0
0
VERTEX
8
Halfen
62
7
10
 189.197
20
-517.832
30
0
0
VERTEX
8
Halfen
62
7
10
 185.914
20
-516.836
30
0
0
VERTEX
8
Halfen
62
7
10
 182.5
20
-516.5
30
0
0
VERTEX
8
Halfen
62
7
10
 179.086
20
-516.836
30
0
0
VERTEX
8
Halfen
62
7
10
 175.803
20
-517.832
30
0
0
VERTEX
8
Halfen
62
7
10
 172.778
20
-519.449
30
0
0
VERTEX
8
Halfen
62
7
10
 170.126
20
-521.626
30
0
0
VERTEX
8
Halfen
62
7
10
 167.949
20
-524.278
30
0
0
VERTEX
8
Halfen
62
7
10
 166.332
20
-527.303
30
0
0
VERTEX
8
Halfen
62
7
10
 165.336
20
-530.586
30
0
0
VERTEX
8
Halfen
62
7
10
 165
20
-534
30
0
0
VERTEX
8
Halfen
62
7
10
 165.336
20
-537.414
30
0
0
VERTEX
8
Halfen
62
7
10
 166.332
20
-540.697
30
0
0
VERTEX
8
Halfen
62
7
10
 167.949
20
-543.722
30
0
0
VERTEX
8
Halfen
62
7
10
 170.126
20
-546.374
30
0
0
VERTEX
8
Halfen
62
7
10
 172.778
20
-548.551
30
0
0
VERTEX
8
Halfen
62
7
10
 175.803
20
-550.168
30
0
0
VERTEX
8
Halfen
62
7
10
 179.086
20
-551.164
30
0
0
VERTEX
8
Halfen
62
7
10
 182.5
20
-551.5
30
0
0
VERTEX
8
Halfen
62
7
10
 185.914
20
-551.164
30
0
0
VERTEX
8
Halfen
62
7
10
 189.197
20
-550.168
30
0
0
VERTEX
8
Halfen
62
7
10
 192.222
20
-548.551
30
0
0
VERTEX
8
Halfen
62
7
10
 194.874
20
-546.374
30
0
0
VERTEX
8
Halfen
62
7
10
 197.051
20
-543.722
30
0
0
VERTEX
8
Halfen
62
7
10
 198.668
20
-540.697
30
0
0
VERTEX
8
Halfen
62
7
10
 199.664
20
-537.414
30
0
0
SEQEND
8
Halfen
0
POLYLINE
8
Halfen
62
7
66
1
10
0.0
20
0.0
30
0.0
70
1
0
VERTEX
8
Halfen
62
7
10
 182.5
20
-547.375
30
0
0
VERTEX
8
Halfen
62
7
10
 194.083
20
-540.688
30
0
0
VERTEX
8
Halfen
62
7
10
 194.083
20
-527.312
30
0
0
VERTEX
8
Halfen
62
7
10
 182.5
20
-520.625
30
0
0
VERTEX
8
Halfen
62
7
10
 170.917
20
-527.312
30
0
0
VERTEX
8
Halfen
62
7
10
 170.917
20
-540.688
30
0
0
SEQEND
8
Halfen
0
CIRCLE
8
Halfen
62
7
10
 182.5
20
-534
30
0
40
 11.5
0
CIRCLE
8
Halfen
62
7
10
 182.5
20
-534
30
0
40
 8
0
POLYLINE
8
Halfen
62
7
66
1
10
0.0
20
0.0
30
0.0
70
1
0
VERTEX
8
Halfen
62
7
10
 107.5
20
-401
30
0
0
VERTEX
8
Halfen
62
7
10
 107.164
20
-397.586
30
0
0
VERTEX
8
Halfen
62
7
10
 106.168
20
-394.303
30
0
0
VERTEX
8
Halfen
62
7
10
 104.551
20
-391.278
30
0
0
VERTEX
8
Halfen
62
7
10
 102.374
20
-388.626
30
0
0
VERTEX
8
Halfen
62
7
10
 99.722
20
-386.449
30
0
0
VERTEX
8
Halfen
62
7
10
 96.697
20
-384.832
30
0
0
VERTEX
8
Halfen
62
7
10
 93.414
20
-383.836
30
0
0
VERTEX
8
Halfen
62
7
10
 90
20
-383.5
30
0
0
VERTEX
8
Halfen
62
7
10
 86.586
20
-383.836
30
0
0
VERTEX
8
Halfen
62
7
10
 83.303
20
-384.832
30
0
0
VERTEX
8
Halfen
62
7
10
 80.278
20
-386.449
30
0
0
VERTEX
8
Halfen
62
7
10
 77.626
20
-388.626
30
0
0
VERTEX
8
Halfen
62
7
10
 75.449
20
-391.278
30
0
0
VERTEX
8
Halfen
62
7
10
 73.832
20
-394.303
30
0
0
VERTEX
8
Halfen
62
7
10
 72.836
20
-397.586
30
0
0
VERTEX
8
Halfen
62
7
10
 72.5
20
-401
30
0
0
VERTEX
8
Halfen
62
7
10
 72.836
20
-404.414
30
0
0
VERTEX
8
Halfen
62
7
10
 73.832
20
-407.697
30
0
0
VERTEX
8
Halfen
62
7
10
 75.449
20
-410.722
30
0
0
VERTEX
8
Halfen
62
7
10
 77.626
20
-413.374
30
0
0
VERTEX
8
Halfen
62
7
10
 80.278
20
-415.551
30
0
0
VERTEX
8
Halfen
62
7
10
 83.303
20
-417.168
30
0
0
VERTEX
8
Halfen
62
7
10
 86.586
20
-418.164
30
0
0
VERTEX
8
Halfen
62
7
10
 90
20
-418.5
30
0
0
VERTEX
8
Halfen
62
7
10
 93.414
20
-418.164
30
0
0
VERTEX
8
Halfen
62
7
10
 96.697
20
-417.168
30
0
0
VERTEX
8
Halfen
62
7
10
 99.722
20
-415.551
30
0
0
VERTEX
8
Halfen
62
7
10
 102.374
20
-413.374
30
0
0
VERTEX
8
Halfen
62
7
10
 104.551
20
-410.722
30
0
0
VERTEX
8
Halfen
62
7
10
 106.168
20
-407.697
30
0
0
VERTEX
8
Halfen
62
7
10
 107.164
20
-404.414
30
0
0
SEQEND
8
Halfen
0
POLYLINE
8
Halfen
62
7
66
1
10
0.0
20
0.0
30
0.0
70
1
0
VERTEX
8
Halfen
62
7
10
 90
20
-414.375
30
0
0
VERTEX
8
Halfen
62
7
10
 101.583
20
-407.688
30
0
0
VERTEX
8
Halfen
62
7
10
 101.583
20
-394.312
30
0
0
VERTEX
8
Halfen
62
7
10
 90
20
-387.625
30
0
0
VERTEX
8
Halfen
62
7
10
 78.417
20
-394.312
30
0
0
VERTEX
8
Halfen
62
7
10
 78.417
20
-407.688
30
0
0
SEQEND
8
Halfen
0
CIRCLE
8
Halfen
62
7
10
 90
20
-401
30
0
40
 11.5
0
CIRCLE
8
Halfen
62
7
10
 90
20
-401
30
0
40
 8
0
POLYLINE
8
Halfen
62
7
66
1
10
0.0
20
0.0
30
0.0
70
1
0
VERTEX
8
Halfen
62
7
10
 177.5
20
-401
30
0
0
VERTEX
8
Halfen
62
7
10
 177.164
20
-397.586
30
0
0
VERTEX
8
Halfen
62
7
10
 176.168
20
-394.303
30
0
0
VERTEX
8
Halfen
62
7
10
 174.551
20
-391.278
30
0
0
VERTEX
8
Halfen
62
7
10
 172.374
20
-388.626
30
0
0
VERTEX
8
Halfen
62
7
10
 169.722
20
-386.449
30
0
0
VERTEX
8
Halfen
62
7
10
 166.697
20
-384.832
30
0
0
VERTEX
8
Halfen
62
7
10
 163.414
20
-383.836
30
0
0
VERTEX
8
Halfen
62
7
10
 160
20
-383.5
30
0
0
VERTEX
8
Halfen
62
7
10
 156.586
20
-383.836
30
0
0
VERTEX
8
Halfen
62
7
10
 153.303
20
-384.832
30
0
0
VERTEX
8
Halfen
62
7
10
 150.278
20
-386.449
30
0
0
VERTEX
8
Halfen
62
7
10
 147.626
20
-388.626
30
0
0
VERTEX
8
Halfen
62
7
10
 145.449
20
-391.278
30
0
0
VERTEX
8
Halfen
62
7
10
 143.832
20
-394.303
30
0
0
VERTEX
8
Halfen
62
7
10
 142.836
20
-397.586
30
0
0
VERTEX
8
Halfen
62
7
10
 142.5
20
-401
30
0
0
VERTEX
8
Halfen
62
7
10
 142.836
20
-404.414
30
0
0
VERTEX
8
Halfen
62
7
10
 143.832
20
-407.697
30
0
0
VERTEX
8
Halfen
62
7
10
 145.449
20
-410.722
30
0
0
VERTEX
8
Halfen
62
7
10
 147.626
20
-413.374
30
0
0
VERTEX
8
Halfen
62
7
10
 150.278
20
-415.551
30
0
0
VERTEX
8
Halfen
62
7
10
 153.303
20
-417.168
30
0
0
VERTEX
8
Halfen
62
7
10
 156.586
20
-418.164
30
0
0
VERTEX
8
Halfen
62
7
10
 160
20
-418.5
30
0
0
VERTEX
8
Halfen
62
7
10
 163.414
20
-418.164
30
0
0
VERTEX
8
Halfen
62
7
10
 166.697
20
-417.168
30
0
0
VERTEX
8
Halfen
62
7
10
 169.722
20
-415.551
30
0
0
VERTEX
8
Halfen
62
7
10
 172.374
20
-413.374
30
0
0
VERTEX
8
Halfen
62
7
10
 174.551
20
-410.722
30
0
0
VERTEX
8
Halfen
62
7
10
 176.168
20
-407.697
30
0
0
VERTEX
8
Halfen
62
7
10
 177.164
20
-404.414
30
0
0
SEQEND
8
Halfen
0
POLYLINE
8
Halfen
62
7
66
1
10
0.0
20
0.0
30
0.0
70
1
0
VERTEX
8
Halfen
62
7
10
 160
20
-414.375
30
0
0
VERTEX
8
Halfen
62
7
10
 171.583
20
-407.688
30
0
0
VERTEX
8
Halfen
62
7
10
 171.583
20
-394.312
30
0
0
VERTEX
8
Halfen
62
7
10
 160
20
-387.625
30
0
0
VERTEX
8
Halfen
62
7
10
 148.417
20
-394.312
30
0
0
VERTEX
8
Halfen
62
7
10
 148.417
20
-407.688
30
0
0
SEQEND
8
Halfen
0
CIRCLE
8
Halfen
62
7
10
 160
20
-401
30
0
40
 11.5
0
CIRCLE
8
Halfen
62
7
10
 160
20
-401
30
0
40
 8
0
ENDSEC
0
EOF
