0
SECTION
2
HEADER
9
$EXTMIN
10
-89
20
-549
30
0.0
9
$EXTMAX
10
 1846
20
 1846
30
0.0
9
$LIMMIN
10
-549
20
-89
9
$LIMMAX
10
 1846
20
 1846
9
$PSLTSCALE
70
1
0
ENDSEC
0
SECTION
2
TABLES
0
TABLE
2
VPORT
70
1
0
VPORT
2
*ACTIVE
70
0
10
0.0
20
0.0
11
1.0
21
1.0
12
 878.5
22
 648.5
13
0.0
23
0.0
14
1.0
24
1.0
15
0.0
25
0.0
16
0.0
26
0.0
36
1.0
17
0.0
27
0.0
37
0.0
40
 2514.75
41
2.0
42
50.0
43
0.0
44
0.0
50
0.0
51
0.0
71
0
72
100
73
1
74
1
75
 0
76
0
77
0
78
0
0
ENDTAB
0
ENDSEC
0
SECTION
2
TABLES
0
TABLE
2
LAYER
70
2
0
LAYER
2
0
70
0
62
7
6
CONTINUOUS
0
LAYER
2
Halfen
70
0
62
7
6
CONTINUOUS
0
ENDTAB
0
ENDSEC
0
SECTION
2
ENTITIES
0
POLYLINE
8
Halfen
62
7
66
1
10
0.0
20
0.0
30
0.0
70
1
0
VERTEX
8
Halfen
62
7
10
 0
20
 0
30
0
0
VERTEX
8
Halfen
62
7
10
 250
20
 0
30
0
0
VERTEX
8
Halfen
62
7
10
 250
20
 120
30
0
0
VERTEX
8
Halfen
62
7
10
 0
20
 120
30
0
0
SEQEND
8
Halfen
0
POLYLINE
8
Halfen
62
7
66
1
10
0.0
20
0.0
30
0.0
70
1
0
VERTEX
8
Halfen
62
7
10
 25
20
-15
30
0
0
VERTEX
8
Halfen
62
7
10
 225
20
-15
30
0
0
VERTEX
8
Halfen
62
7
10
 225
20
 0
30
0
0
VERTEX
8
Halfen
62
7
10
 25
20
 0
30
0
0
SEQEND
8
Halfen
0
POLYLINE
8
Halfen
62
7
66
1
10
0.0
20
0.0
30
0.0
0
VERTEX
8
Halfen
62
7
10
 25
20
-15
30
0
0
VERTEX
8
Halfen
62
7
10
 25.077
20
-14.22
30
0
0
VERTEX
8
Halfen
62
7
10
 25.304
20
-13.469
30
0
0
VERTEX
8
Halfen
62
7
10
 25.674
20
-12.778
30
0
0
VERTEX
8
Halfen
62
7
10
 26.172
20
-12.172
30
0
0
VERTEX
8
Halfen
62
7
10
 26.778
20
-11.674
30
0
0
VERTEX
8
Halfen
62
7
10
 27.469
20
-11.304
30
0
0
VERTEX
8
Halfen
62
7
10
 28.22
20
-11.077
30
0
0
VERTEX
8
Halfen
62
7
10
 29
20
-11
30
0
0
VERTEX
8
Halfen
62
7
10
 221
20
-11
30
0
0
VERTEX
8
Halfen
62
7
10
 221.78
20
-11.077
30
0
0
VERTEX
8
Halfen
62
7
10
 222.531
20
-11.304
30
0
0
VERTEX
8
Halfen
62
7
10
 223.222
20
-11.674
30
0
0
VERTEX
8
Halfen
62
7
10
 223.828
20
-12.172
30
0
0
VERTEX
8
Halfen
62
7
10
 224.326
20
-12.778
30
0
0
VERTEX
8
Halfen
62
7
10
 224.696
20
-13.469
30
0
0
VERTEX
8
Halfen
62
7
10
 224.923
20
-14.22
30
0
0
VERTEX
8
Halfen
62
7
10
 225
20
-15
30
0
0
SEQEND
8
Halfen
0
POLYLINE
8
Halfen
62
7
66
1
10
0.0
20
0.0
30
0.0
70
1
0
VERTEX
8
Halfen
62
7
10
 57.5
20
 221
30
0
0
VERTEX
8
Halfen
62
7
10
 57.5
20
 120
30
0
0
VERTEX
8
Halfen
62
7
10
 77.5
20
 120
30
0
0
VERTEX
8
Halfen
62
7
10
 77.5
20
 221
30
0
0
SEQEND
8
Halfen
0
POLYLINE
8
Halfen
62
7
66
1
10
0.0
20
0.0
30
0.0
70
1
0
VERTEX
8
Halfen
62
7
10
 57.5
20
-15
30
0
0
VERTEX
8
Halfen
62
7
10
 57.5
20
-33
30
0
0
VERTEX
8
Halfen
62
7
10
 77.5
20
-33
30
0
0
VERTEX
8
Halfen
62
7
10
 77.5
20
-15
30
0
0
SEQEND
8
Halfen
0
POLYLINE
8
Halfen
62
7
66
1
10
0.0
20
0.0
30
0.0
70
1
0
VERTEX
8
Halfen
62
7
10
 57.5
20
-60.4
30
0
0
VERTEX
8
Halfen
62
7
10
 57.5
20
-89
30
0
0
VERTEX
8
Halfen
62
7
10
 77.5
20
-89
30
0
0
VERTEX
8
Halfen
62
7
10
 77.5
20
-60.4
30
0
0
SEQEND
8
Halfen
0
POLYLINE
8
Halfen
62
7
66
1
10
0.0
20
0.0
30
0.0
70
1
0
VERTEX
8
Halfen
62
7
10
 77.5
20
 221
30
0
0
VERTEX
8
Halfen
62
7
10
 77.5
20
 1091
30
0
0
VERTEX
8
Halfen
62
7
10
 57.5
20
 1091
30
0
0
VERTEX
8
Halfen
62
7
10
 57.5
20
 221
30
0
0
SEQEND
8
Halfen
0
POLYLINE
8
Halfen
62
7
66
1
10
0.0
20
0.0
30
0.0
70
1
0
VERTEX
8
Halfen
62
7
10
 47
20
-41
30
0
0
VERTEX
8
Halfen
62
7
10
 88
20
-41
30
0
0
VERTEX
8
Halfen
62
7
10
 88
20
-33
30
0
0
VERTEX
8
Halfen
62
7
10
 47
20
-33
30
0
0
SEQEND
8
Halfen
0
POLYLINE
8
Halfen
62
7
66
1
10
0.0
20
0.0
30
0.0
70
1
0
VERTEX
8
Halfen
62
7
10
 50.5
20
-60.4
30
0
0
VERTEX
8
Halfen
62
7
10
 84.5
20
-60.4
30
0
0
VERTEX
8
Halfen
62
7
10
 84.5
20
-41
30
0
0
VERTEX
8
Halfen
62
7
10
 50.5
20
-41
30
0
0
SEQEND
8
Halfen
0
LINE
8
Halfen
62
7
10
 67.5
20
-60.4
30
 0
11
 67.5
21
-41
31
 0
0
ARC
8
Halfen
62
7
10
 59
20
-59.645
30
0
40
 18.645
50
 62.8780250549316
51
 117.121971130371
0
ARC
8
Halfen
62
7
10
 76
20
-59.645
30
0
40
 18.645
50
 62.8780250549316
51
 117.121971130371
0
ARC
8
Halfen
62
7
10
 59
20
-41.755
30
0
40
 18.645
50
 242.878021240234
51
 297.121978759766
0
ARC
8
Halfen
62
7
10
 76
20
-41.755
30
0
40
 18.645
50
 242.878021240234
51
 297.121978759766
0
POLYLINE
8
Halfen
62
7
66
1
10
0.0
20
0.0
30
0.0
70
1
0
VERTEX
8
Halfen
62
7
10
 172.5
20
 221
30
0
0
VERTEX
8
Halfen
62
7
10
 172.5
20
 120
30
0
0
VERTEX
8
Halfen
62
7
10
 192.5
20
 120
30
0
0
VERTEX
8
Halfen
62
7
10
 192.5
20
 221
30
0
0
SEQEND
8
Halfen
0
POLYLINE
8
Halfen
62
7
66
1
10
0.0
20
0.0
30
0.0
70
1
0
VERTEX
8
Halfen
62
7
10
 172.5
20
-15
30
0
0
VERTEX
8
Halfen
62
7
10
 172.5
20
-33
30
0
0
VERTEX
8
Halfen
62
7
10
 192.5
20
-33
30
0
0
VERTEX
8
Halfen
62
7
10
 192.5
20
-15
30
0
0
SEQEND
8
Halfen
0
POLYLINE
8
Halfen
62
7
66
1
10
0.0
20
0.0
30
0.0
70
1
0
VERTEX
8
Halfen
62
7
10
 172.5
20
-60.4
30
0
0
VERTEX
8
Halfen
62
7
10
 172.5
20
-89
30
0
0
VERTEX
8
Halfen
62
7
10
 192.5
20
-89
30
0
0
VERTEX
8
Halfen
62
7
10
 192.5
20
-60.4
30
0
0
SEQEND
8
Halfen
0
POLYLINE
8
Halfen
62
7
66
1
10
0.0
20
0.0
30
0.0
70
1
0
VERTEX
8
Halfen
62
7
10
 192.5
20
 221
30
0
0
VERTEX
8
Halfen
62
7
10
 192.5
20
 1091
30
0
0
VERTEX
8
Halfen
62
7
10
 172.5
20
 1091
30
0
0
VERTEX
8
Halfen
62
7
10
 172.5
20
 221
30
0
0
SEQEND
8
Halfen
0
POLYLINE
8
Halfen
62
7
66
1
10
0.0
20
0.0
30
0.0
70
1
0
VERTEX
8
Halfen
62
7
10
 162
20
-41
30
0
0
VERTEX
8
Halfen
62
7
10
 203
20
-41
30
0
0
VERTEX
8
Halfen
62
7
10
 203
20
-33
30
0
0
VERTEX
8
Halfen
62
7
10
 162
20
-33
30
0
0
SEQEND
8
Halfen
0
POLYLINE
8
Halfen
62
7
66
1
10
0.0
20
0.0
30
0.0
70
1
0
VERTEX
8
Halfen
62
7
10
 165.5
20
-60.4
30
0
0
VERTEX
8
Halfen
62
7
10
 199.5
20
-60.4
30
0
0
VERTEX
8
Halfen
62
7
10
 199.5
20
-41
30
0
0
VERTEX
8
Halfen
62
7
10
 165.5
20
-41
30
0
0
SEQEND
8
Halfen
0
LINE
8
Halfen
62
7
10
 182.5
20
-60.4
30
 0
11
 182.5
21
-41
31
 0
0
ARC
8
Halfen
62
7
10
 174
20
-59.645
30
0
40
 18.645
50
 62.8780250549316
51
 117.121971130371
0
ARC
8
Halfen
62
7
10
 191
20
-59.645
30
0
40
 18.645
50
 62.8780250549316
51
 117.121971130371
0
ARC
8
Halfen
62
7
10
 174
20
-41.755
30
0
40
 18.645
50
 242.878021240234
51
 297.121978759766
0
ARC
8
Halfen
62
7
10
 191
20
-41.755
30
0
40
 18.645
50
 242.878021240234
51
 297.121978759766
0
POLYLINE
8
Halfen
62
7
66
1
10
0.0
20
0.0
30
0.0
70
1
0
VERTEX
8
Halfen
62
7
10
 21
20
 851.725
30
0
0
VERTEX
8
Halfen
62
7
10
 21
20
 120
30
0
0
VERTEX
8
Halfen
62
7
10
 33
20
 120
30
0
0
VERTEX
8
Halfen
62
7
10
 33
20
 851.725
30
0
0
SEQEND
8
Halfen
0
POLYLINE
8
Halfen
62
7
66
1
10
0.0
20
0.0
30
0.0
70
1
0
VERTEX
8
Halfen
62
7
10
 217
20
 851.725
30
0
0
VERTEX
8
Halfen
62
7
10
 217
20
 120
30
0
0
VERTEX
8
Halfen
62
7
10
 229
20
 120
30
0
0
VERTEX
8
Halfen
62
7
10
 229
20
 851.725
30
0
0
SEQEND
8
Halfen
0
POLYLINE
8
Halfen
62
7
66
1
10
0.0
20
0.0
30
0.0
70
1
0
VERTEX
8
Halfen
62
7
10
 80
20
 221
30
0
0
VERTEX
8
Halfen
62
7
10
 80
20
 120
30
0
0
VERTEX
8
Halfen
62
7
10
 100
20
 120
30
0
0
VERTEX
8
Halfen
62
7
10
 100
20
 221
30
0
0
SEQEND
8
Halfen
0
POLYLINE
8
Halfen
62
7
66
1
10
0.0
20
0.0
30
0.0
70
1
0
VERTEX
8
Halfen
62
7
10
 80
20
 0
30
0
0
VERTEX
8
Halfen
62
7
10
 80
20
-5
30
0
0
VERTEX
8
Halfen
62
7
10
 100
20
-5
30
0
0
VERTEX
8
Halfen
62
7
10
 100
20
 0
30
0
0
SEQEND
8
Halfen
0
POLYLINE
8
Halfen
62
7
66
1
10
0.0
20
0.0
30
0.0
70
1
0
VERTEX
8
Halfen
62
7
10
 80
20
-15
30
0
0
VERTEX
8
Halfen
62
7
10
 80
20
-33
30
0
0
VERTEX
8
Halfen
62
7
10
 100
20
-33
30
0
0
VERTEX
8
Halfen
62
7
10
 100
20
-15
30
0
0
SEQEND
8
Halfen
0
POLYLINE
8
Halfen
62
7
66
1
10
0.0
20
0.0
30
0.0
70
1
0
VERTEX
8
Halfen
62
7
10
 80
20
-60.4
30
0
0
VERTEX
8
Halfen
62
7
10
 80
20
-89
30
0
0
VERTEX
8
Halfen
62
7
10
 100
20
-89
30
0
0
VERTEX
8
Halfen
62
7
10
 100
20
-60.4
30
0
0
SEQEND
8
Halfen
0
POLYLINE
8
Halfen
62
7
66
1
10
0.0
20
0.0
30
0.0
70
1
0
VERTEX
8
Halfen
62
7
10
 100
20
 221
30
0
0
VERTEX
8
Halfen
62
7
10
 100
20
 1846
30
0
0
VERTEX
8
Halfen
62
7
10
 80
20
 1846
30
0
0
VERTEX
8
Halfen
62
7
10
 80
20
 221
30
0
0
SEQEND
8
Halfen
0
POLYLINE
8
Halfen
62
7
66
1
10
0.0
20
0.0
30
0.0
70
1
0
VERTEX
8
Halfen
62
7
10
 69.5
20
-41
30
0
0
VERTEX
8
Halfen
62
7
10
 110.5
20
-41
30
0
0
VERTEX
8
Halfen
62
7
10
 110.5
20
-33
30
0
0
VERTEX
8
Halfen
62
7
10
 69.5
20
-33
30
0
0
SEQEND
8
Halfen
0
POLYLINE
8
Halfen
62
7
66
1
10
0.0
20
0.0
30
0.0
70
1
0
VERTEX
8
Halfen
62
7
10
 73
20
-60.4
30
0
0
VERTEX
8
Halfen
62
7
10
 107
20
-60.4
30
0
0
VERTEX
8
Halfen
62
7
10
 107
20
-41
30
0
0
VERTEX
8
Halfen
62
7
10
 73
20
-41
30
0
0
SEQEND
8
Halfen
0
LINE
8
Halfen
62
7
10
 90
20
-60.4
30
 0
11
 90
21
-41
31
 0
0
ARC
8
Halfen
62
7
10
 81.5
20
-59.645
30
0
40
 18.645
50
 62.8780250549316
51
 117.121971130371
0
ARC
8
Halfen
62
7
10
 98.5
20
-59.645
30
0
40
 18.645
50
 62.8780250549316
51
 117.121971130371
0
ARC
8
Halfen
62
7
10
 81.5
20
-41.755
30
0
40
 18.645
50
 242.878021240234
51
 297.121978759766
0
ARC
8
Halfen
62
7
10
 98.5
20
-41.755
30
0
40
 18.645
50
 242.878021240234
51
 297.121978759766
0
POLYLINE
8
Halfen
62
7
66
1
10
0.0
20
0.0
30
0.0
70
1
0
VERTEX
8
Halfen
62
7
10
 73
20
-15
30
0
0
VERTEX
8
Halfen
62
7
10
 107
20
-15
30
0
0
VERTEX
8
Halfen
62
7
10
 107
20
-5
30
0
0
VERTEX
8
Halfen
62
7
10
 73
20
-5
30
0
0
SEQEND
8
Halfen
0
LINE
8
Halfen
62
7
10
 90
20
-15
30
 0
11
 90
21
-5
31
 0
0
ARC
8
Halfen
62
7
10
 81.5
20
-22.515
30
0
40
 17.515
50
 60.9679794311523
51
 119.032020568848
0
ARC
8
Halfen
62
7
10
 98.5
20
-22.515
30
0
40
 17.515
50
 60.9679794311523
51
 119.032020568848
0
ARC
8
Halfen
62
7
10
 81.5
20
 2.515
30
0
40
 17.515
50
 240.967987060547
51
 299.032012939453
0
ARC
8
Halfen
62
7
10
 98.5
20
 2.515
30
0
40
 17.515
50
 240.967987060547
51
 299.032012939453
0
POLYLINE
8
Halfen
62
7
66
1
10
0.0
20
0.0
30
0.0
70
1
0
VERTEX
8
Halfen
62
7
10
 150
20
 221
30
0
0
VERTEX
8
Halfen
62
7
10
 150
20
 120
30
0
0
VERTEX
8
Halfen
62
7
10
 170
20
 120
30
0
0
VERTEX
8
Halfen
62
7
10
 170
20
 221
30
0
0
SEQEND
8
Halfen
0
POLYLINE
8
Halfen
62
7
66
1
10
0.0
20
0.0
30
0.0
70
1
0
VERTEX
8
Halfen
62
7
10
 150
20
 0
30
0
0
VERTEX
8
Halfen
62
7
10
 150
20
-5
30
0
0
VERTEX
8
Halfen
62
7
10
 170
20
-5
30
0
0
VERTEX
8
Halfen
62
7
10
 170
20
 0
30
0
0
SEQEND
8
Halfen
0
POLYLINE
8
Halfen
62
7
66
1
10
0.0
20
0.0
30
0.0
70
1
0
VERTEX
8
Halfen
62
7
10
 150
20
-15
30
0
0
VERTEX
8
Halfen
62
7
10
 150
20
-33
30
0
0
VERTEX
8
Halfen
62
7
10
 170
20
-33
30
0
0
VERTEX
8
Halfen
62
7
10
 170
20
-15
30
0
0
SEQEND
8
Halfen
0
POLYLINE
8
Halfen
62
7
66
1
10
0.0
20
0.0
30
0.0
70
1
0
VERTEX
8
Halfen
62
7
10
 150
20
-60.4
30
0
0
VERTEX
8
Halfen
62
7
10
 150
20
-89
30
0
0
VERTEX
8
Halfen
62
7
10
 170
20
-89
30
0
0
VERTEX
8
Halfen
62
7
10
 170
20
-60.4
30
0
0
SEQEND
8
Halfen
0
POLYLINE
8
Halfen
62
7
66
1
10
0.0
20
0.0
30
0.0
70
1
0
VERTEX
8
Halfen
62
7
10
 170
20
 221
30
0
0
VERTEX
8
Halfen
62
7
10
 170
20
 1846
30
0
0
VERTEX
8
Halfen
62
7
10
 150
20
 1846
30
0
0
VERTEX
8
Halfen
62
7
10
 150
20
 221
30
0
0
SEQEND
8
Halfen
0
POLYLINE
8
Halfen
62
7
66
1
10
0.0
20
0.0
30
0.0
70
1
0
VERTEX
8
Halfen
62
7
10
 139.5
20
-41
30
0
0
VERTEX
8
Halfen
62
7
10
 180.5
20
-41
30
0
0
VERTEX
8
Halfen
62
7
10
 180.5
20
-33
30
0
0
VERTEX
8
Halfen
62
7
10
 139.5
20
-33
30
0
0
SEQEND
8
Halfen
0
POLYLINE
8
Halfen
62
7
66
1
10
0.0
20
0.0
30
0.0
70
1
0
VERTEX
8
Halfen
62
7
10
 143
20
-60.4
30
0
0
VERTEX
8
Halfen
62
7
10
 177
20
-60.4
30
0
0
VERTEX
8
Halfen
62
7
10
 177
20
-41
30
0
0
VERTEX
8
Halfen
62
7
10
 143
20
-41
30
0
0
SEQEND
8
Halfen
0
LINE
8
Halfen
62
7
10
 160
20
-60.4
30
 0
11
 160
21
-41
31
 0
0
ARC
8
Halfen
62
7
10
 151.5
20
-59.645
30
0
40
 18.645
50
 62.8780250549316
51
 117.121971130371
0
ARC
8
Halfen
62
7
10
 168.5
20
-59.645
30
0
40
 18.645
50
 62.8780250549316
51
 117.121971130371
0
ARC
8
Halfen
62
7
10
 151.5
20
-41.755
30
0
40
 18.645
50
 242.878021240234
51
 297.121978759766
0
ARC
8
Halfen
62
7
10
 168.5
20
-41.755
30
0
40
 18.645
50
 242.878021240234
51
 297.121978759766
0
POLYLINE
8
Halfen
62
7
66
1
10
0.0
20
0.0
30
0.0
70
1
0
VERTEX
8
Halfen
62
7
10
 143
20
-15
30
0
0
VERTEX
8
Halfen
62
7
10
 177
20
-15
30
0
0
VERTEX
8
Halfen
62
7
10
 177
20
-5
30
0
0
VERTEX
8
Halfen
62
7
10
 143
20
-5
30
0
0
SEQEND
8
Halfen
0
LINE
8
Halfen
62
7
10
 160
20
-15
30
 0
11
 160
21
-5
31
 0
0
ARC
8
Halfen
62
7
10
 151.5
20
-22.515
30
0
40
 17.515
50
 60.9679794311523
51
 119.032020568848
0
ARC
8
Halfen
62
7
10
 168.5
20
-22.515
30
0
40
 17.515
50
 60.9679794311523
51
 119.032020568848
0
ARC
8
Halfen
62
7
10
 151.5
20
 2.515
30
0
40
 17.515
50
 240.967987060547
51
 299.032012939453
0
ARC
8
Halfen
62
7
10
 168.5
20
 2.515
30
0
40
 17.515
50
 240.967987060547
51
 299.032012939453
0
POLYLINE
8
Halfen
62
7
66
1
10
0.0
20
0.0
30
0.0
70
1
0
VERTEX
8
Halfen
62
7
10
 0
20
-319
30
0
0
VERTEX
8
Halfen
62
7
10
 120
20
-319
30
0
0
VERTEX
8
Halfen
62
7
10
 120
20
-139
30
0
0
VERTEX
8
Halfen
62
7
10
 0
20
-139
30
0
0
SEQEND
8
Halfen
0
POLYLINE
8
Halfen
62
7
66
1
10
0.0
20
0.0
30
0.0
70
1
0
VERTEX
8
Halfen
62
7
10
-15
20
-305
30
0
0
VERTEX
8
Halfen
62
7
10
 0
20
-305
30
0
0
VERTEX
8
Halfen
62
7
10
 0
20
-251
30
0
0
VERTEX
8
Halfen
62
7
10
-11
20
-251
30
0
0
VERTEX
8
Halfen
62
7
10
-15
20
-255
30
0
0
SEQEND
8
Halfen
0
POLYLINE
8
Halfen
62
7
66
1
10
0.0
20
0.0
30
0.0
70
1
0
VERTEX
8
Halfen
62
7
10
 221
20
-273
30
0
0
VERTEX
8
Halfen
62
7
10
 120
20
-273
30
0
0
VERTEX
8
Halfen
62
7
10
 120
20
-293
30
0
0
VERTEX
8
Halfen
62
7
10
 221
20
-293
30
0
0
SEQEND
8
Halfen
0
POLYLINE
8
Halfen
62
7
66
1
10
0.0
20
0.0
30
0.0
70
1
0
VERTEX
8
Halfen
62
7
10
-15
20
-273
30
0
0
VERTEX
8
Halfen
62
7
10
-33
20
-273
30
0
0
VERTEX
8
Halfen
62
7
10
-33
20
-293
30
0
0
VERTEX
8
Halfen
62
7
10
-15
20
-293
30
0
0
SEQEND
8
Halfen
0
POLYLINE
8
Halfen
62
7
66
1
10
0.0
20
0.0
30
0.0
70
1
0
VERTEX
8
Halfen
62
7
10
-60.4
20
-273
30
0
0
VERTEX
8
Halfen
62
7
10
-89
20
-273
30
0
0
VERTEX
8
Halfen
62
7
10
-89
20
-293
30
0
0
VERTEX
8
Halfen
62
7
10
-60.4
20
-293
30
0
0
SEQEND
8
Halfen
0
POLYLINE
8
Halfen
62
7
66
1
10
0.0
20
0.0
30
0.0
70
1
0
VERTEX
8
Halfen
62
7
10
 221
20
-293
30
0
0
VERTEX
8
Halfen
62
7
10
 1091
20
-293
30
0
0
VERTEX
8
Halfen
62
7
10
 1091
20
-273
30
0
0
VERTEX
8
Halfen
62
7
10
 221
20
-273
30
0
0
SEQEND
8
Halfen
0
POLYLINE
8
Halfen
62
7
66
1
10
0.0
20
0.0
30
0.0
70
1
0
VERTEX
8
Halfen
62
7
10
-41
20
-303.5
30
0
0
VERTEX
8
Halfen
62
7
10
-33
20
-303.5
30
0
0
VERTEX
8
Halfen
62
7
10
-33
20
-262.5
30
0
0
VERTEX
8
Halfen
62
7
10
-41
20
-262.5
30
0
0
SEQEND
8
Halfen
0
POLYLINE
8
Halfen
62
7
66
1
10
0.0
20
0.0
30
0.0
70
1
0
VERTEX
8
Halfen
62
7
10
-58.621
20
-301.645
30
0
0
VERTEX
8
Halfen
62
7
10
-42.779
20
-301.645
30
0
0
VERTEX
8
Halfen
62
7
10
-41
20
-299.866
30
0
0
VERTEX
8
Halfen
62
7
10
-41
20
-266.134
30
0
0
VERTEX
8
Halfen
62
7
10
-42.779
20
-264.355
30
0
0
VERTEX
8
Halfen
62
7
10
-58.621
20
-264.355
30
0
0
VERTEX
8
Halfen
62
7
10
-60.4
20
-266.134
30
0
0
VERTEX
8
Halfen
62
7
10
-60.4
20
-299.866
30
0
0
SEQEND
8
Halfen
0
LINE
8
Halfen
62
7
10
-60.4
20
-273.185
30
 0
11
-41
21
-273.185
31
 0
0
LINE
8
Halfen
62
7
10
-60.4
20
-292.815
30
 0
11
-41
21
-292.815
31
 0
0
ARC
8
Halfen
62
7
10
-68.968
20
-283
30
0
40
 27.968
50
-20.544921875
51
 20.5449085235596
0
ARC
8
Halfen
62
7
10
-32.432
20
-283
30
0
40
 27.968
50
 159.455093383789
51
 200.544906616211
0
ARC
8
Halfen
62
7
10
-48.659
20
-269.262
30
0
40
 7.659
50
-39.8479614257813
51
 39.8479614257813
0
ARC
8
Halfen
62
7
10
-48.659
20
-296.738
30
0
40
 7.659
50
-39.8479614257813
51
 39.8479614257813
0
ARC
8
Halfen
62
7
10
-52.741
20
-296.738
30
0
40
 7.659
50
 140.152038574219
51
 219.847961425781
0
ARC
8
Halfen
62
7
10
-52.741
20
-269.262
30
0
40
 7.659
50
 140.152038574219
51
 219.847961425781
0
POLYLINE
8
Halfen
62
7
66
1
10
0.0
20
0.0
30
0.0
70
1
0
VERTEX
8
Halfen
62
7
10
 221
20
-165
30
0
0
VERTEX
8
Halfen
62
7
10
 120
20
-165
30
0
0
VERTEX
8
Halfen
62
7
10
 120
20
-185
30
0
0
VERTEX
8
Halfen
62
7
10
 221
20
-185
30
0
0
SEQEND
8
Halfen
0
POLYLINE
8
Halfen
62
7
66
1
10
0.0
20
0.0
30
0.0
70
1
0
VERTEX
8
Halfen
62
7
10
 0
20
-165
30
0
0
VERTEX
8
Halfen
62
7
10
-5
20
-165
30
0
0
VERTEX
8
Halfen
62
7
10
-5
20
-185
30
0
0
VERTEX
8
Halfen
62
7
10
 0
20
-185
30
0
0
SEQEND
8
Halfen
0
POLYLINE
8
Halfen
62
7
66
1
10
0.0
20
0.0
30
0.0
70
1
0
VERTEX
8
Halfen
62
7
10
-15
20
-165
30
0
0
VERTEX
8
Halfen
62
7
10
-33
20
-165
30
0
0
VERTEX
8
Halfen
62
7
10
-33
20
-185
30
0
0
VERTEX
8
Halfen
62
7
10
-15
20
-185
30
0
0
SEQEND
8
Halfen
0
POLYLINE
8
Halfen
62
7
66
1
10
0.0
20
0.0
30
0.0
70
1
0
VERTEX
8
Halfen
62
7
10
-60.4
20
-165
30
0
0
VERTEX
8
Halfen
62
7
10
-89
20
-165
30
0
0
VERTEX
8
Halfen
62
7
10
-89
20
-185
30
0
0
VERTEX
8
Halfen
62
7
10
-60.4
20
-185
30
0
0
SEQEND
8
Halfen
0
POLYLINE
8
Halfen
62
7
66
1
10
0.0
20
0.0
30
0.0
70
1
0
VERTEX
8
Halfen
62
7
10
 221
20
-185
30
0
0
VERTEX
8
Halfen
62
7
10
 1846
20
-185
30
0
0
VERTEX
8
Halfen
62
7
10
 1846
20
-165
30
0
0
VERTEX
8
Halfen
62
7
10
 221
20
-165
30
0
0
SEQEND
8
Halfen
0
POLYLINE
8
Halfen
62
7
66
1
10
0.0
20
0.0
30
0.0
70
1
0
VERTEX
8
Halfen
62
7
10
-41
20
-195.5
30
0
0
VERTEX
8
Halfen
62
7
10
-33
20
-195.5
30
0
0
VERTEX
8
Halfen
62
7
10
-33
20
-154.5
30
0
0
VERTEX
8
Halfen
62
7
10
-41
20
-154.5
30
0
0
SEQEND
8
Halfen
0
POLYLINE
8
Halfen
62
7
66
1
10
0.0
20
0.0
30
0.0
70
1
0
VERTEX
8
Halfen
62
7
10
-58.621
20
-193.645
30
0
0
VERTEX
8
Halfen
62
7
10
-42.779
20
-193.645
30
0
0
VERTEX
8
Halfen
62
7
10
-41
20
-191.866
30
0
0
VERTEX
8
Halfen
62
7
10
-41
20
-158.134
30
0
0
VERTEX
8
Halfen
62
7
10
-42.779
20
-156.355
30
0
0
VERTEX
8
Halfen
62
7
10
-58.621
20
-156.355
30
0
0
VERTEX
8
Halfen
62
7
10
-60.4
20
-158.134
30
0
0
VERTEX
8
Halfen
62
7
10
-60.4
20
-191.866
30
0
0
SEQEND
8
Halfen
0
LINE
8
Halfen
62
7
10
-60.4
20
-165.185
30
 0
11
-41
21
-165.185
31
 0
0
LINE
8
Halfen
62
7
10
-60.4
20
-184.815
30
 0
11
-41
21
-184.815
31
 0
0
ARC
8
Halfen
62
7
10
-68.968
20
-175
30
0
40
 27.968
50
-20.544921875
51
 20.5449085235596
0
ARC
8
Halfen
62
7
10
-32.432
20
-175
30
0
40
 27.968
50
 159.455093383789
51
 200.544906616211
0
ARC
8
Halfen
62
7
10
-48.659
20
-161.262
30
0
40
 7.659
50
-39.8479614257813
51
 39.8479614257813
0
ARC
8
Halfen
62
7
10
-48.659
20
-188.738
30
0
40
 7.659
50
-39.8479614257813
51
 39.8479614257813
0
ARC
8
Halfen
62
7
10
-52.741
20
-188.738
30
0
40
 7.659
50
 140.152038574219
51
 219.847961425781
0
ARC
8
Halfen
62
7
10
-52.741
20
-161.262
30
0
40
 7.659
50
 140.152038574219
51
 219.847961425781
0
POLYLINE
8
Halfen
62
7
66
1
10
0.0
20
0.0
30
0.0
70
1
0
VERTEX
8
Halfen
62
7
10
-13.098
20
-192.515
30
0
0
VERTEX
8
Halfen
62
7
10
-6.902
20
-192.515
30
0
0
VERTEX
8
Halfen
62
7
10
-5
20
-190.613
30
0
0
VERTEX
8
Halfen
62
7
10
-5
20
-159.387
30
0
0
VERTEX
8
Halfen
62
7
10
-6.902
20
-157.485
30
0
0
VERTEX
8
Halfen
62
7
10
-13.098
20
-157.485
30
0
0
VERTEX
8
Halfen
62
7
10
-15
20
-159.387
30
0
0
VERTEX
8
Halfen
62
7
10
-15
20
-190.613
30
0
0
SEQEND
8
Halfen
0
LINE
8
Halfen
62
7
10
-15
20
-165.185
30
 0
11
-5
21
-165.185
31
 0
0
LINE
8
Halfen
62
7
10
-15
20
-184.815
30
 0
11
-5
21
-184.815
31
 0
0
ARC
8
Halfen
62
7
10
-31.272
20
-175
30
0
40
 26.272
50
-21.9367370605469
51
 21.9367485046387
0
ARC
8
Halfen
62
7
10
 11.272
20
-175
30
0
40
 26.272
50
 158.063247680664
51
 201.936752319336
0
ARC
8
Halfen
62
7
10
-12.281
20
-162.392
30
0
40
 7.281
50
-42.3741760253906
51
 42.3741645812988
0
ARC
8
Halfen
62
7
10
-12.281
20
-187.608
30
0
40
 7.281
50
-42.3741760253906
51
 42.3741645812988
0
ARC
8
Halfen
62
7
10
-7.719
20
-187.608
30
0
40
 7.281
50
 137.625839233398
51
 222.374160766602
0
ARC
8
Halfen
62
7
10
-7.719
20
-162.392
30
0
40
 7.281
50
 137.625839233398
51
 222.374160766602
0
POLYLINE
8
Halfen
62
7
66
1
10
0.0
20
0.0
30
0.0
70
1
0
VERTEX
8
Halfen
62
7
10
 851.725
20
-166.596
30
0
0
VERTEX
8
Halfen
62
7
10
 178.011
20
-166.596
30
0
0
VERTEX
8
Halfen
62
7
10
 169.676
20
-167.326
30
0
0
VERTEX
8
Halfen
62
7
10
 161.594
20
-169.491
30
0
0
VERTEX
8
Halfen
62
7
10
 154.011
20
-173.027
30
0
0
VERTEX
8
Halfen
62
7
10
 147.158
20
-177.826
30
0
0
VERTEX
8
Halfen
62
7
10
 120
20
-200.614
30
0
0
VERTEX
8
Halfen
62
7
10
 120
20
-216.279
30
0
0
VERTEX
8
Halfen
62
7
10
 154.871
20
-187.019
30
0
0
VERTEX
8
Halfen
62
7
10
 160.011
20
-183.419
30
0
0
VERTEX
8
Halfen
62
7
10
 165.699
20
-180.767
30
0
0
VERTEX
8
Halfen
62
7
10
 171.76
20
-179.143
30
0
0
VERTEX
8
Halfen
62
7
10
 178.011
20
-178.596
30
0
0
VERTEX
8
Halfen
62
7
10
 851.725
20
-178.596
30
0
0
SEQEND
8
Halfen
0
POLYLINE
8
Halfen
62
7
66
1
10
0.0
20
0.0
30
0.0
70
1
0
VERTEX
8
Halfen
62
7
10
 0
20
-549
30
0
0
VERTEX
8
Halfen
62
7
10
 250
20
-549
30
0
0
VERTEX
8
Halfen
62
7
10
 250
20
-369
30
0
0
VERTEX
8
Halfen
62
7
10
 0
20
-369
30
0
0
SEQEND
8
Halfen
0
POLYLINE
8
Halfen
62
7
66
1
10
0.0
20
0.0
30
0.0
70
1
0
VERTEX
8
Halfen
62
7
10
 25
20
-530
30
0
0
VERTEX
8
Halfen
62
7
10
 25.096
20
-530.975
30
0
0
VERTEX
8
Halfen
62
7
10
 25.381
20
-531.913
30
0
0
VERTEX
8
Halfen
62
7
10
 25.843
20
-532.778
30
0
0
VERTEX
8
Halfen
62
7
10
 26.464
20
-533.536
30
0
0
VERTEX
8
Halfen
62
7
10
 27.222
20
-534.157
30
0
0
VERTEX
8
Halfen
62
7
10
 28.087
20
-534.619
30
0
0
VERTEX
8
Halfen
62
7
10
 29.025
20
-534.904
30
0
0
VERTEX
8
Halfen
62
7
10
 30
20
-535
30
0
0
VERTEX
8
Halfen
62
7
10
 220
20
-535
30
0
0
VERTEX
8
Halfen
62
7
10
 220.975
20
-534.904
30
0
0
VERTEX
8
Halfen
62
7
10
 221.913
20
-534.619
30
0
0
VERTEX
8
Halfen
62
7
10
 222.778
20
-534.157
30
0
0
VERTEX
8
Halfen
62
7
10
 223.536
20
-533.536
30
0
0
VERTEX
8
Halfen
62
7
10
 224.157
20
-532.778
30
0
0
VERTEX
8
Halfen
62
7
10
 224.619
20
-531.913
30
0
0
VERTEX
8
Halfen
62
7
10
 224.904
20
-530.975
30
0
0
VERTEX
8
Halfen
62
7
10
 225
20
-530
30
0
0
VERTEX
8
Halfen
62
7
10
 225
20
-486
30
0
0
VERTEX
8
Halfen
62
7
10
 224.904
20
-485.025
30
0
0
VERTEX
8
Halfen
62
7
10
 224.619
20
-484.087
30
0
0
VERTEX
8
Halfen
62
7
10
 224.157
20
-483.222
30
0
0
VERTEX
8
Halfen
62
7
10
 223.536
20
-482.464
30
0
0
VERTEX
8
Halfen
62
7
10
 222.778
20
-481.843
30
0
0
VERTEX
8
Halfen
62
7
10
 221.913
20
-481.381
30
0
0
VERTEX
8
Halfen
62
7
10
 220.975
20
-481.096
30
0
0
VERTEX
8
Halfen
62
7
10
 220
20
-481
30
0
0
VERTEX
8
Halfen
62
7
10
 30
20
-481
30
0
0
VERTEX
8
Halfen
62
7
10
 29.025
20
-481.096
30
0
0
VERTEX
8
Halfen
62
7
10
 28.087
20
-481.381
30
0
0
VERTEX
8
Halfen
62
7
10
 27.222
20
-481.843
30
0
0
VERTEX
8
Halfen
62
7
10
 26.464
20
-482.464
30
0
0
VERTEX
8
Halfen
62
7
10
 25.843
20
-483.222
30
0
0
VERTEX
8
Halfen
62
7
10
 25.381
20
-484.087
30
0
0
VERTEX
8
Halfen
62
7
10
 25.096
20
-485.025
30
0
0
VERTEX
8
Halfen
62
7
10
 25
20
-486
30
0
0
SEQEND
8
Halfen
0
LINE
8
Halfen
62
7
10
 25.101
20
-485
30
 0
11
 224.899
21
-485
31
 0
0
POLYLINE
8
Halfen
62
7
66
1
10
0.0
20
0.0
30
0.0
70
1
0
VERTEX
8
Halfen
62
7
10
 48.04
20
-496.763
30
0
0
VERTEX
8
Halfen
62
7
10
 45.837
20
-496.874
30
0
0
VERTEX
8
Halfen
62
7
10
 43.698
20
-497.412
30
0
0
VERTEX
8
Halfen
62
7
10
 41.706
20
-498.357
30
0
0
VERTEX
8
Halfen
62
7
10
 39.936
20
-499.673
30
0
0
VERTEX
8
Halfen
62
7
10
 38.457
20
-501.308
30
0
0
VERTEX
8
Halfen
62
7
10
 37.325
20
-503.201
30
0
0
VERTEX
8
Halfen
62
7
10
 36.584
20
-505.278
30
0
0
VERTEX
8
Halfen
62
7
10
 36.263
20
-507.46
30
0
0
VERTEX
8
Halfen
62
7
10
 36.374
20
-509.663
30
0
0
VERTEX
8
Halfen
62
7
10
 36.912
20
-511.802
30
0
0
VERTEX
8
Halfen
62
7
10
 37.857
20
-513.794
30
0
0
VERTEX
8
Halfen
62
7
10
 39.173
20
-515.564
30
0
0
VERTEX
8
Halfen
62
7
10
 40.808
20
-517.043
30
0
0
VERTEX
8
Halfen
62
7
10
 42.701
20
-518.175
30
0
0
VERTEX
8
Halfen
62
7
10
 44.778
20
-518.916
30
0
0
VERTEX
8
Halfen
62
7
10
 48.173
20
-519.762
30
0
0
VERTEX
8
Halfen
62
7
10
 47.883
20
-518.951
30
0
0
VERTEX
8
Halfen
62
7
10
 47.394
20
-516.999
30
0
0
VERTEX
8
Halfen
62
7
10
 47.099
20
-515.009
30
0
0
VERTEX
8
Halfen
62
7
10
 47
20
-513
30
0
0
VERTEX
8
Halfen
62
7
10
 47.099
20
-510.991
30
0
0
VERTEX
8
Halfen
62
7
10
 47.394
20
-509.001
30
0
0
VERTEX
8
Halfen
62
7
10
 47.883
20
-507.049
30
0
0
VERTEX
8
Halfen
62
7
10
 48.56
20
-505.155
30
0
0
VERTEX
8
Halfen
62
7
10
 49.421
20
-503.336
30
0
0
VERTEX
8
Halfen
62
7
10
 50.455
20
-501.611
30
0
0
VERTEX
8
Halfen
62
7
10
 51.653
20
-499.995
30
0
0
VERTEX
8
Halfen
62
7
10
 53.004
20
-498.504
30
0
0
VERTEX
8
Halfen
62
7
10
 53.633
20
-497.935
30
0
0
VERTEX
8
Halfen
62
7
10
 50.222
20
-497.084
30
0
0
SEQEND
8
Halfen
0
POLYLINE
8
Halfen
62
7
66
1
10
0.0
20
0.0
30
0.0
70
1
0
VERTEX
8
Halfen
62
7
10
 86.816
20
-506.208
30
0
0
VERTEX
8
Halfen
62
7
10
 87.117
20
-507.049
30
0
0
VERTEX
8
Halfen
62
7
10
 87.606
20
-509.001
30
0
0
VERTEX
8
Halfen
62
7
10
 87.901
20
-510.991
30
0
0
VERTEX
8
Halfen
62
7
10
 88
20
-513
30
0
0
VERTEX
8
Halfen
62
7
10
 87.901
20
-515.009
30
0
0
VERTEX
8
Halfen
62
7
10
 87.606
20
-516.999
30
0
0
VERTEX
8
Halfen
62
7
10
 87.117
20
-518.951
30
0
0
VERTEX
8
Halfen
62
7
10
 86.44
20
-520.845
30
0
0
VERTEX
8
Halfen
62
7
10
 85.579
20
-522.664
30
0
0
VERTEX
8
Halfen
62
7
10
 84.545
20
-524.389
30
0
0
VERTEX
8
Halfen
62
7
10
 83.347
20
-526.005
30
0
0
VERTEX
8
Halfen
62
7
10
 81.996
20
-527.496
30
0
0
VERTEX
8
Halfen
62
7
10
 81.39
20
-528.044
30
0
0
VERTEX
8
Halfen
62
7
10
 84.778
20
-528.889
30
0
0
VERTEX
8
Halfen
62
7
10
 86.96
20
-529.21
30
0
0
VERTEX
8
Halfen
62
7
10
 89.163
20
-529.1
30
0
0
VERTEX
8
Halfen
62
7
10
 91.302
20
-528.561
30
0
0
VERTEX
8
Halfen
62
7
10
 93.294
20
-527.616
30
0
0
VERTEX
8
Halfen
62
7
10
 95.064
20
-526.301
30
0
0
VERTEX
8
Halfen
62
7
10
 96.543
20
-524.665
30
0
0
VERTEX
8
Halfen
62
7
10
 97.675
20
-522.772
30
0
0
VERTEX
8
Halfen
62
7
10
 98.416
20
-520.695
30
0
0
VERTEX
8
Halfen
62
7
10
 98.737
20
-518.513
30
0
0
VERTEX
8
Halfen
62
7
10
 98.626
20
-516.31
30
0
0
VERTEX
8
Halfen
62
7
10
 98.088
20
-514.172
30
0
0
VERTEX
8
Halfen
62
7
10
 97.143
20
-512.179
30
0
0
VERTEX
8
Halfen
62
7
10
 95.827
20
-510.409
30
0
0
VERTEX
8
Halfen
62
7
10
 94.192
20
-508.93
30
0
0
VERTEX
8
Halfen
62
7
10
 92.299
20
-507.798
30
0
0
VERTEX
8
Halfen
62
7
10
 90.222
20
-507.057
30
0
0
SEQEND
8
Halfen
0
POLYLINE
8
Halfen
62
7
66
1
10
0.0
20
0.0
30
0.0
70
1
0
VERTEX
8
Halfen
62
7
10
 163.04
20
-496.763
30
0
0
VERTEX
8
Halfen
62
7
10
 160.837
20
-496.874
30
0
0
VERTEX
8
Halfen
62
7
10
 158.698
20
-497.412
30
0
0
VERTEX
8
Halfen
62
7
10
 156.706
20
-498.357
30
0
0
VERTEX
8
Halfen
62
7
10
 154.936
20
-499.673
30
0
0
VERTEX
8
Halfen
62
7
10
 153.457
20
-501.308
30
0
0
VERTEX
8
Halfen
62
7
10
 152.325
20
-503.201
30
0
0
VERTEX
8
Halfen
62
7
10
 151.584
20
-505.278
30
0
0
VERTEX
8
Halfen
62
7
10
 151.263
20
-507.46
30
0
0
VERTEX
8
Halfen
62
7
10
 151.374
20
-509.663
30
0
0
VERTEX
8
Halfen
62
7
10
 151.912
20
-511.802
30
0
0
VERTEX
8
Halfen
62
7
10
 152.857
20
-513.794
30
0
0
VERTEX
8
Halfen
62
7
10
 154.173
20
-515.564
30
0
0
VERTEX
8
Halfen
62
7
10
 155.808
20
-517.043
30
0
0
VERTEX
8
Halfen
62
7
10
 157.701
20
-518.175
30
0
0
VERTEX
8
Halfen
62
7
10
 159.778
20
-518.916
30
0
0
VERTEX
8
Halfen
62
7
10
 163.173
20
-519.762
30
0
0
VERTEX
8
Halfen
62
7
10
 162.883
20
-518.951
30
0
0
VERTEX
8
Halfen
62
7
10
 162.394
20
-516.999
30
0
0
VERTEX
8
Halfen
62
7
10
 162.099
20
-515.009
30
0
0
VERTEX
8
Halfen
62
7
10
 162
20
-513
30
0
0
VERTEX
8
Halfen
62
7
10
 162.099
20
-510.991
30
0
0
VERTEX
8
Halfen
62
7
10
 162.394
20
-509.001
30
0
0
VERTEX
8
Halfen
62
7
10
 162.883
20
-507.049
30
0
0
VERTEX
8
Halfen
62
7
10
 163.56
20
-505.155
30
0
0
VERTEX
8
Halfen
62
7
10
 164.421
20
-503.336
30
0
0
VERTEX
8
Halfen
62
7
10
 165.455
20
-501.611
30
0
0
VERTEX
8
Halfen
62
7
10
 166.653
20
-499.995
30
0
0
VERTEX
8
Halfen
62
7
10
 168.004
20
-498.504
30
0
0
VERTEX
8
Halfen
62
7
10
 168.633
20
-497.935
30
0
0
VERTEX
8
Halfen
62
7
10
 165.222
20
-497.084
30
0
0
SEQEND
8
Halfen
0
POLYLINE
8
Halfen
62
7
66
1
10
0.0
20
0.0
30
0.0
70
1
0
VERTEX
8
Halfen
62
7
10
 201.816
20
-506.208
30
0
0
VERTEX
8
Halfen
62
7
10
 202.117
20
-507.049
30
0
0
VERTEX
8
Halfen
62
7
10
 202.606
20
-509.001
30
0
0
VERTEX
8
Halfen
62
7
10
 202.901
20
-510.991
30
0
0
VERTEX
8
Halfen
62
7
10
 203
20
-513
30
0
0
VERTEX
8
Halfen
62
7
10
 202.901
20
-515.009
30
0
0
VERTEX
8
Halfen
62
7
10
 202.606
20
-516.999
30
0
0
VERTEX
8
Halfen
62
7
10
 202.117
20
-518.951
30
0
0
VERTEX
8
Halfen
62
7
10
 201.44
20
-520.845
30
0
0
VERTEX
8
Halfen
62
7
10
 200.579
20
-522.664
30
0
0
VERTEX
8
Halfen
62
7
10
 199.545
20
-524.389
30
0
0
VERTEX
8
Halfen
62
7
10
 198.347
20
-526.005
30
0
0
VERTEX
8
Halfen
62
7
10
 196.996
20
-527.496
30
0
0
VERTEX
8
Halfen
62
7
10
 196.39
20
-528.044
30
0
0
VERTEX
8
Halfen
62
7
10
 199.778
20
-528.889
30
0
0
VERTEX
8
Halfen
62
7
10
 201.96
20
-529.21
30
0
0
VERTEX
8
Halfen
62
7
10
 204.163
20
-529.1
30
0
0
VERTEX
8
Halfen
62
7
10
 206.302
20
-528.561
30
0
0
VERTEX
8
Halfen
62
7
10
 208.294
20
-527.616
30
0
0
VERTEX
8
Halfen
62
7
10
 210.064
20
-526.301
30
0
0
VERTEX
8
Halfen
62
7
10
 211.543
20
-524.665
30
0
0
VERTEX
8
Halfen
62
7
10
 212.675
20
-522.772
30
0
0
VERTEX
8
Halfen
62
7
10
 213.416
20
-520.695
30
0
0
VERTEX
8
Halfen
62
7
10
 213.737
20
-518.513
30
0
0
VERTEX
8
Halfen
62
7
10
 213.626
20
-516.31
30
0
0
VERTEX
8
Halfen
62
7
10
 213.088
20
-514.172
30
0
0
VERTEX
8
Halfen
62
7
10
 212.143
20
-512.179
30
0
0
VERTEX
8
Halfen
62
7
10
 210.827
20
-510.409
30
0
0
VERTEX
8
Halfen
62
7
10
 209.192
20
-508.93
30
0
0
VERTEX
8
Halfen
62
7
10
 207.299
20
-507.798
30
0
0
VERTEX
8
Halfen
62
7
10
 205.222
20
-507.057
30
0
0
SEQEND
8
Halfen
0
POLYLINE
8
Halfen
62
7
66
1
10
0.0
20
0.0
30
0.0
70
1
0
VERTEX
8
Halfen
62
7
10
 114.5
20
-518
30
0
0
VERTEX
8
Halfen
62
7
10
 123
20
-518
30
0
0
VERTEX
8
Halfen
62
7
10
 123
20
-516
30
0
0
VERTEX
8
Halfen
62
7
10
 116.5
20
-516
30
0
0
VERTEX
8
Halfen
62
7
10
 116.5
20
-500
30
0
0
VERTEX
8
Halfen
62
7
10
 133.5
20
-500
30
0
0
VERTEX
8
Halfen
62
7
10
 133.5
20
-516
30
0
0
VERTEX
8
Halfen
62
7
10
 127
20
-516
30
0
0
VERTEX
8
Halfen
62
7
10
 127
20
-518
30
0
0
VERTEX
8
Halfen
62
7
10
 135.5
20
-518
30
0
0
VERTEX
8
Halfen
62
7
10
 135.5
20
-498
30
0
0
VERTEX
8
Halfen
62
7
10
 114.5
20
-498
30
0
0
SEQEND
8
Halfen
0
POLYLINE
8
Halfen
62
7
66
1
10
0.0
20
0.0
30
0.0
70
1
0
VERTEX
8
Halfen
62
7
10
 118.5
20
-514
30
0
0
VERTEX
8
Halfen
62
7
10
 123
20
-514
30
0
0
VERTEX
8
Halfen
62
7
10
 123
20
-510
30
0
0
VERTEX
8
Halfen
62
7
10
 127
20
-510
30
0
0
VERTEX
8
Halfen
62
7
10
 127
20
-514
30
0
0
VERTEX
8
Halfen
62
7
10
 131.5
20
-514
30
0
0
VERTEX
8
Halfen
62
7
10
 131.5
20
-502
30
0
0
VERTEX
8
Halfen
62
7
10
 127
20
-502
30
0
0
VERTEX
8
Halfen
62
7
10
 127
20
-506
30
0
0
VERTEX
8
Halfen
62
7
10
 123
20
-506
30
0
0
VERTEX
8
Halfen
62
7
10
 123
20
-502
30
0
0
VERTEX
8
Halfen
62
7
10
 118.5
20
-502
30
0
0
SEQEND
8
Halfen
0
POLYLINE
8
Halfen
62
7
66
1
10
0.0
20
0.0
30
0.0
70
1
0
VERTEX
8
Halfen
62
7
10
 88
20
-513
30
0
0
VERTEX
8
Halfen
62
7
10
 87.606
20
-509.001
30
0
0
VERTEX
8
Halfen
62
7
10
 86.44
20
-505.155
30
0
0
VERTEX
8
Halfen
62
7
10
 84.545
20
-501.611
30
0
0
VERTEX
8
Halfen
62
7
10
 81.996
20
-498.504
30
0
0
VERTEX
8
Halfen
62
7
10
 78.889
20
-495.955
30
0
0
VERTEX
8
Halfen
62
7
10
 75.345
20
-494.06
30
0
0
VERTEX
8
Halfen
62
7
10
 71.499
20
-492.894
30
0
0
VERTEX
8
Halfen
62
7
10
 67.5
20
-492.5
30
0
0
VERTEX
8
Halfen
62
7
10
 63.501
20
-492.894
30
0
0
VERTEX
8
Halfen
62
7
10
 59.655
20
-494.06
30
0
0
VERTEX
8
Halfen
62
7
10
 56.111
20
-495.955
30
0
0
VERTEX
8
Halfen
62
7
10
 53.004
20
-498.504
30
0
0
VERTEX
8
Halfen
62
7
10
 50.455
20
-501.611
30
0
0
VERTEX
8
Halfen
62
7
10
 48.56
20
-505.155
30
0
0
VERTEX
8
Halfen
62
7
10
 47.394
20
-509.001
30
0
0
VERTEX
8
Halfen
62
7
10
 47
20
-513
30
0
0
VERTEX
8
Halfen
62
7
10
 47.394
20
-516.999
30
0
0
VERTEX
8
Halfen
62
7
10
 48.56
20
-520.845
30
0
0
VERTEX
8
Halfen
62
7
10
 50.455
20
-524.389
30
0
0
VERTEX
8
Halfen
62
7
10
 53.004
20
-527.496
30
0
0
VERTEX
8
Halfen
62
7
10
 56.111
20
-530.045
30
0
0
VERTEX
8
Halfen
62
7
10
 59.655
20
-531.94
30
0
0
VERTEX
8
Halfen
62
7
10
 63.501
20
-533.106
30
0
0
VERTEX
8
Halfen
62
7
10
 67.5
20
-533.5
30
0
0
VERTEX
8
Halfen
62
7
10
 71.499
20
-533.106
30
0
0
VERTEX
8
Halfen
62
7
10
 75.345
20
-531.94
30
0
0
VERTEX
8
Halfen
62
7
10
 78.889
20
-530.045
30
0
0
VERTEX
8
Halfen
62
7
10
 81.996
20
-527.496
30
0
0
VERTEX
8
Halfen
62
7
10
 84.545
20
-524.389
30
0
0
VERTEX
8
Halfen
62
7
10
 86.44
20
-520.845
30
0
0
VERTEX
8
Halfen
62
7
10
 87.606
20
-516.999
30
0
0
SEQEND
8
Halfen
0
POLYLINE
8
Halfen
62
7
66
1
10
0.0
20
0.0
30
0.0
70
1
0
VERTEX
8
Halfen
62
7
10
 67.5
20
-531.645
30
0
0
VERTEX
8
Halfen
62
7
10
 83.647
20
-522.322
30
0
0
VERTEX
8
Halfen
62
7
10
 83.647
20
-503.678
30
0
0
VERTEX
8
Halfen
62
7
10
 67.5
20
-494.355
30
0
0
VERTEX
8
Halfen
62
7
10
 51.353
20
-503.678
30
0
0
VERTEX
8
Halfen
62
7
10
 51.353
20
-522.322
30
0
0
SEQEND
8
Halfen
0
CIRCLE
8
Halfen
62
7
10
 67.5
20
-513
30
0
40
 16.5
0
CIRCLE
8
Halfen
62
7
10
 67.5
20
-513
30
0
40
 11
0
POLYLINE
8
Halfen
62
7
66
1
10
0.0
20
0.0
30
0.0
70
1
0
VERTEX
8
Halfen
62
7
10
 203
20
-513
30
0
0
VERTEX
8
Halfen
62
7
10
 202.606
20
-509.001
30
0
0
VERTEX
8
Halfen
62
7
10
 201.44
20
-505.155
30
0
0
VERTEX
8
Halfen
62
7
10
 199.545
20
-501.611
30
0
0
VERTEX
8
Halfen
62
7
10
 196.996
20
-498.504
30
0
0
VERTEX
8
Halfen
62
7
10
 193.889
20
-495.955
30
0
0
VERTEX
8
Halfen
62
7
10
 190.345
20
-494.06
30
0
0
VERTEX
8
Halfen
62
7
10
 186.499
20
-492.894
30
0
0
VERTEX
8
Halfen
62
7
10
 182.5
20
-492.5
30
0
0
VERTEX
8
Halfen
62
7
10
 178.501
20
-492.894
30
0
0
VERTEX
8
Halfen
62
7
10
 174.655
20
-494.06
30
0
0
VERTEX
8
Halfen
62
7
10
 171.111
20
-495.955
30
0
0
VERTEX
8
Halfen
62
7
10
 168.004
20
-498.504
30
0
0
VERTEX
8
Halfen
62
7
10
 165.455
20
-501.611
30
0
0
VERTEX
8
Halfen
62
7
10
 163.56
20
-505.155
30
0
0
VERTEX
8
Halfen
62
7
10
 162.394
20
-509.001
30
0
0
VERTEX
8
Halfen
62
7
10
 162
20
-513
30
0
0
VERTEX
8
Halfen
62
7
10
 162.394
20
-516.999
30
0
0
VERTEX
8
Halfen
62
7
10
 163.56
20
-520.845
30
0
0
VERTEX
8
Halfen
62
7
10
 165.455
20
-524.389
30
0
0
VERTEX
8
Halfen
62
7
10
 168.004
20
-527.496
30
0
0
VERTEX
8
Halfen
62
7
10
 171.111
20
-530.045
30
0
0
VERTEX
8
Halfen
62
7
10
 174.655
20
-531.94
30
0
0
VERTEX
8
Halfen
62
7
10
 178.501
20
-533.106
30
0
0
VERTEX
8
Halfen
62
7
10
 182.5
20
-533.5
30
0
0
VERTEX
8
Halfen
62
7
10
 186.499
20
-533.106
30
0
0
VERTEX
8
Halfen
62
7
10
 190.345
20
-531.94
30
0
0
VERTEX
8
Halfen
62
7
10
 193.889
20
-530.045
30
0
0
VERTEX
8
Halfen
62
7
10
 196.996
20
-527.496
30
0
0
VERTEX
8
Halfen
62
7
10
 199.545
20
-524.389
30
0
0
VERTEX
8
Halfen
62
7
10
 201.44
20
-520.845
30
0
0
VERTEX
8
Halfen
62
7
10
 202.606
20
-516.999
30
0
0
SEQEND
8
Halfen
0
POLYLINE
8
Halfen
62
7
66
1
10
0.0
20
0.0
30
0.0
70
1
0
VERTEX
8
Halfen
62
7
10
 182.5
20
-531.645
30
0
0
VERTEX
8
Halfen
62
7
10
 198.647
20
-522.322
30
0
0
VERTEX
8
Halfen
62
7
10
 198.647
20
-503.678
30
0
0
VERTEX
8
Halfen
62
7
10
 182.5
20
-494.355
30
0
0
VERTEX
8
Halfen
62
7
10
 166.353
20
-503.678
30
0
0
VERTEX
8
Halfen
62
7
10
 166.353
20
-522.322
30
0
0
SEQEND
8
Halfen
0
CIRCLE
8
Halfen
62
7
10
 182.5
20
-513
30
0
40
 16.5
0
CIRCLE
8
Halfen
62
7
10
 182.5
20
-513
30
0
40
 11
0
POLYLINE
8
Halfen
62
7
66
1
10
0.0
20
0.0
30
0.0
70
1
0
VERTEX
8
Halfen
62
7
10
 110.5
20
-405
30
0
0
VERTEX
8
Halfen
62
7
10
 110.106
20
-401.001
30
0
0
VERTEX
8
Halfen
62
7
10
 108.94
20
-397.155
30
0
0
VERTEX
8
Halfen
62
7
10
 107.045
20
-393.611
30
0
0
VERTEX
8
Halfen
62
7
10
 104.496
20
-390.504
30
0
0
VERTEX
8
Halfen
62
7
10
 101.389
20
-387.955
30
0
0
VERTEX
8
Halfen
62
7
10
 97.845
20
-386.06
30
0
0
VERTEX
8
Halfen
62
7
10
 93.999
20
-384.894
30
0
0
VERTEX
8
Halfen
62
7
10
 90
20
-384.5
30
0
0
VERTEX
8
Halfen
62
7
10
 86.001
20
-384.894
30
0
0
VERTEX
8
Halfen
62
7
10
 82.155
20
-386.06
30
0
0
VERTEX
8
Halfen
62
7
10
 78.611
20
-387.955
30
0
0
VERTEX
8
Halfen
62
7
10
 75.504
20
-390.504
30
0
0
VERTEX
8
Halfen
62
7
10
 72.955
20
-393.611
30
0
0
VERTEX
8
Halfen
62
7
10
 71.06
20
-397.155
30
0
0
VERTEX
8
Halfen
62
7
10
 69.894
20
-401.001
30
0
0
VERTEX
8
Halfen
62
7
10
 69.5
20
-405
30
0
0
VERTEX
8
Halfen
62
7
10
 69.894
20
-408.999
30
0
0
VERTEX
8
Halfen
62
7
10
 71.06
20
-412.845
30
0
0
VERTEX
8
Halfen
62
7
10
 72.955
20
-416.389
30
0
0
VERTEX
8
Halfen
62
7
10
 75.504
20
-419.496
30
0
0
VERTEX
8
Halfen
62
7
10
 78.611
20
-422.045
30
0
0
VERTEX
8
Halfen
62
7
10
 82.155
20
-423.94
30
0
0
VERTEX
8
Halfen
62
7
10
 86.001
20
-425.106
30
0
0
VERTEX
8
Halfen
62
7
10
 90
20
-425.5
30
0
0
VERTEX
8
Halfen
62
7
10
 93.999
20
-425.106
30
0
0
VERTEX
8
Halfen
62
7
10
 97.845
20
-423.94
30
0
0
VERTEX
8
Halfen
62
7
10
 101.389
20
-422.045
30
0
0
VERTEX
8
Halfen
62
7
10
 104.496
20
-419.496
30
0
0
VERTEX
8
Halfen
62
7
10
 107.045
20
-416.389
30
0
0
VERTEX
8
Halfen
62
7
10
 108.94
20
-412.845
30
0
0
VERTEX
8
Halfen
62
7
10
 110.106
20
-408.999
30
0
0
SEQEND
8
Halfen
0
POLYLINE
8
Halfen
62
7
66
1
10
0.0
20
0.0
30
0.0
70
1
0
VERTEX
8
Halfen
62
7
10
 90
20
-423.645
30
0
0
VERTEX
8
Halfen
62
7
10
 106.147
20
-414.322
30
0
0
VERTEX
8
Halfen
62
7
10
 106.147
20
-395.678
30
0
0
VERTEX
8
Halfen
62
7
10
 90
20
-386.355
30
0
0
VERTEX
8
Halfen
62
7
10
 73.853
20
-395.678
30
0
0
VERTEX
8
Halfen
62
7
10
 73.853
20
-414.322
30
0
0
SEQEND
8
Halfen
0
CIRCLE
8
Halfen
62
7
10
 90
20
-405
30
0
40
 16.5
0
CIRCLE
8
Halfen
62
7
10
 90
20
-405
30
0
40
 11
0
POLYLINE
8
Halfen
62
7
66
1
10
0.0
20
0.0
30
0.0
70
1
0
VERTEX
8
Halfen
62
7
10
 180.5
20
-405
30
0
0
VERTEX
8
Halfen
62
7
10
 180.106
20
-401.001
30
0
0
VERTEX
8
Halfen
62
7
10
 178.94
20
-397.155
30
0
0
VERTEX
8
Halfen
62
7
10
 177.045
20
-393.611
30
0
0
VERTEX
8
Halfen
62
7
10
 174.496
20
-390.504
30
0
0
VERTEX
8
Halfen
62
7
10
 171.389
20
-387.955
30
0
0
VERTEX
8
Halfen
62
7
10
 167.845
20
-386.06
30
0
0
VERTEX
8
Halfen
62
7
10
 163.999
20
-384.894
30
0
0
VERTEX
8
Halfen
62
7
10
 160
20
-384.5
30
0
0
VERTEX
8
Halfen
62
7
10
 156.001
20
-384.894
30
0
0
VERTEX
8
Halfen
62
7
10
 152.155
20
-386.06
30
0
0
VERTEX
8
Halfen
62
7
10
 148.611
20
-387.955
30
0
0
VERTEX
8
Halfen
62
7
10
 145.504
20
-390.504
30
0
0
VERTEX
8
Halfen
62
7
10
 142.955
20
-393.611
30
0
0
VERTEX
8
Halfen
62
7
10
 141.06
20
-397.155
30
0
0
VERTEX
8
Halfen
62
7
10
 139.894
20
-401.001
30
0
0
VERTEX
8
Halfen
62
7
10
 139.5
20
-405
30
0
0
VERTEX
8
Halfen
62
7
10
 139.894
20
-408.999
30
0
0
VERTEX
8
Halfen
62
7
10
 141.06
20
-412.845
30
0
0
VERTEX
8
Halfen
62
7
10
 142.955
20
-416.389
30
0
0
VERTEX
8
Halfen
62
7
10
 145.504
20
-419.496
30
0
0
VERTEX
8
Halfen
62
7
10
 148.611
20
-422.045
30
0
0
VERTEX
8
Halfen
62
7
10
 152.155
20
-423.94
30
0
0
VERTEX
8
Halfen
62
7
10
 156.001
20
-425.106
30
0
0
VERTEX
8
Halfen
62
7
10
 160
20
-425.5
30
0
0
VERTEX
8
Halfen
62
7
10
 163.999
20
-425.106
30
0
0
VERTEX
8
Halfen
62
7
10
 167.845
20
-423.94
30
0
0
VERTEX
8
Halfen
62
7
10
 171.389
20
-422.045
30
0
0
VERTEX
8
Halfen
62
7
10
 174.496
20
-419.496
30
0
0
VERTEX
8
Halfen
62
7
10
 177.045
20
-416.389
30
0
0
VERTEX
8
Halfen
62
7
10
 178.94
20
-412.845
30
0
0
VERTEX
8
Halfen
62
7
10
 180.106
20
-408.999
30
0
0
SEQEND
8
Halfen
0
POLYLINE
8
Halfen
62
7
66
1
10
0.0
20
0.0
30
0.0
70
1
0
VERTEX
8
Halfen
62
7
10
 160
20
-423.645
30
0
0
VERTEX
8
Halfen
62
7
10
 176.147
20
-414.322
30
0
0
VERTEX
8
Halfen
62
7
10
 176.147
20
-395.678
30
0
0
VERTEX
8
Halfen
62
7
10
 160
20
-386.355
30
0
0
VERTEX
8
Halfen
62
7
10
 143.853
20
-395.678
30
0
0
VERTEX
8
Halfen
62
7
10
 143.853
20
-414.322
30
0
0
SEQEND
8
Halfen
0
CIRCLE
8
Halfen
62
7
10
 160
20
-405
30
0
40
 16.5
0
CIRCLE
8
Halfen
62
7
10
 160
20
-405
30
0
40
 11
0
ENDSEC
0
EOF
