0
SECTION
2
HEADER
9
$EXTMIN
10
 0
20
 100
30
0.0
9
$EXTMAX
10
 0
20
 100
30
0.0
9
$LIMMIN
10
 100
20
 0
9
$LIMMAX
10
 0
20
 100
9
$PSLTSCALE
70
1
0
ENDSEC
0
SECTION
2
TABLES
0
TABLE
2
LAYER
70
2
0
LAYER
2
0
70
0
62
7
6
CONTINUOUS
0
LAYER
2
Halfen
70
0
62
7
6
CONTINUOUS
0
ENDTAB
0
ENDSEC
0
SECTION
2
ENTITIES
0
POLYLINE
8
Halfen
62
7
66
1
10
0.0
20
0.0
30
0.0
70
1
0
VERTEX
8
Halfen
62
7
10
 0
20
-73.5
30
0
0
VERTEX
8
Halfen
62
7
10
 1000
20
-73.5
30
0
0
VERTEX
8
Halfen
62
7
10
 1000
20
 73.5
30
0
0
VERTEX
8
Halfen
62
7
10
 0
20
 73.5
30
0
0
SEQEND
8
Halfen
0
POLYLINE
8
Halfen
62
7
66
1
10
0.0
20
0.0
30
0.0
70
1
0
VERTEX
8
Halfen
62
7
10
 0
20
-60
30
0
0
VERTEX
8
Halfen
62
7
10
 1000
20
-60
30
0
0
VERTEX
8
Halfen
62
7
10
 1000
20
 60
30
0
0
VERTEX
8
Halfen
62
7
10
 0
20
 60
30
0
0
SEQEND
8
Halfen
0
POLYLINE
8
Halfen
62
7
66
1
10
0.0
20
0.0
30
0.0
70
1
0
VERTEX
8
Halfen
62
7
10
 20
20
-32.5
30
0
0
VERTEX
8
Halfen
62
7
10
 37
20
-1.5
30
0
0
VERTEX
8
Halfen
62
7
10
 28
20
-1.5
30
0
0
VERTEX
8
Halfen
62
7
10
 28
20
 32.5
30
0
0
VERTEX
8
Halfen
62
7
10
 12
20
 32.5
30
0
0
VERTEX
8
Halfen
62
7
10
 12
20
-1.5
30
0
0
VERTEX
8
Halfen
62
7
10
 3
20
-1.5
30
0
0
SEQEND
8
Halfen
0
POLYLINE
8
Halfen
62
7
66
1
10
0.0
20
0.0
30
0.0
70
1
0
VERTEX
8
Halfen
62
7
10
 980
20
-32.5
30
0
0
VERTEX
8
Halfen
62
7
10
 997
20
-1.5
30
0
0
VERTEX
8
Halfen
62
7
10
 988
20
-1.5
30
0
0
VERTEX
8
Halfen
62
7
10
 988
20
 32.5
30
0
0
VERTEX
8
Halfen
62
7
10
 972
20
 32.5
30
0
0
VERTEX
8
Halfen
62
7
10
 972
20
-1.5
30
0
0
VERTEX
8
Halfen
62
7
10
 963
20
-1.5
30
0
0
SEQEND
8
Halfen
0
POLYLINE
8
Halfen
62
7
66
1
10
0.0
20
0.0
30
0.0
70
1
0
VERTEX
8
Halfen
62
7
10
 68
20
-775
30
0
0
VERTEX
8
Halfen
62
7
10
 68
20
-160
30
0
0
VERTEX
8
Halfen
62
7
10
 56
20
-160
30
0
0
VERTEX
8
Halfen
62
7
10
 56
20
-775
30
0
0
SEQEND
8
Halfen
0
POLYLINE
8
Halfen
62
7
66
1
10
0.0
20
0.0
30
0.0
70
1
0
VERTEX
8
Halfen
62
7
10
 67.25
20
-160
30
0
0
VERTEX
8
Halfen
62
7
10
 67.25
20
-62
30
0
0
VERTEX
8
Halfen
62
7
10
 56.75
20
-62
30
0
0
VERTEX
8
Halfen
62
7
10
 56.75
20
-160
30
0
0
SEQEND
8
Halfen
0
POLYLINE
8
Halfen
62
7
66
1
10
0.0
20
0.0
30
0.0
70
1
0
VERTEX
8
Halfen
62
7
10
 68
20
-62
30
0
0
VERTEX
8
Halfen
62
7
10
 68
20
-60
30
0
0
VERTEX
8
Halfen
62
7
10
 56
20
-60
30
0
0
VERTEX
8
Halfen
62
7
10
 56
20
-62
30
0
0
SEQEND
8
Halfen
0
POLYLINE
8
Halfen
62
7
66
1
10
0.0
20
0.0
30
0.0
70
1
0
VERTEX
8
Halfen
62
7
10
 67.25
20
-60
30
0
0
VERTEX
8
Halfen
62
7
10
 67.25
20
 60
30
0
0
VERTEX
8
Halfen
62
7
10
 56.75
20
 60
30
0
0
VERTEX
8
Halfen
62
7
10
 56.75
20
-60
30
0
0
SEQEND
8
Halfen
0
POLYLINE
8
Halfen
62
7
66
1
10
0.0
20
0.0
30
0.0
70
1
0
VERTEX
8
Halfen
62
7
10
 68
20
 60
30
0
0
VERTEX
8
Halfen
62
7
10
 68
20
 62
30
0
0
VERTEX
8
Halfen
62
7
10
 56
20
 62
30
0
0
VERTEX
8
Halfen
62
7
10
 56
20
 60
30
0
0
SEQEND
8
Halfen
0
POLYLINE
8
Halfen
62
7
66
1
10
0.0
20
0.0
30
0.0
70
1
0
VERTEX
8
Halfen
62
7
10
 67.25
20
 62
30
0
0
VERTEX
8
Halfen
62
7
10
 67.25
20
 160
30
0
0
VERTEX
8
Halfen
62
7
10
 56.75
20
 160
30
0
0
VERTEX
8
Halfen
62
7
10
 56.75
20
 62
30
0
0
SEQEND
8
Halfen
0
POLYLINE
8
Halfen
62
7
66
1
10
0.0
20
0.0
30
0.0
70
1
0
VERTEX
8
Halfen
62
7
10
 68
20
 160
30
0
0
VERTEX
8
Halfen
62
7
10
 68
20
 775
30
0
0
VERTEX
8
Halfen
62
7
10
 56
20
 775
30
0
0
VERTEX
8
Halfen
62
7
10
 56
20
 160
30
0
0
SEQEND
8
Halfen
0
POLYLINE
8
Halfen
62
7
66
1
10
0.0
20
0.0
30
0.0
70
1
0
VERTEX
8
Halfen
62
7
10
 152
20
-775
30
0
0
VERTEX
8
Halfen
62
7
10
 152
20
-160
30
0
0
VERTEX
8
Halfen
62
7
10
 140
20
-160
30
0
0
VERTEX
8
Halfen
62
7
10
 140
20
-775
30
0
0
SEQEND
8
Halfen
0
POLYLINE
8
Halfen
62
7
66
1
10
0.0
20
0.0
30
0.0
70
1
0
VERTEX
8
Halfen
62
7
10
 151.25
20
-160
30
0
0
VERTEX
8
Halfen
62
7
10
 151.25
20
-62
30
0
0
VERTEX
8
Halfen
62
7
10
 140.75
20
-62
30
0
0
VERTEX
8
Halfen
62
7
10
 140.75
20
-160
30
0
0
SEQEND
8
Halfen
0
POLYLINE
8
Halfen
62
7
66
1
10
0.0
20
0.0
30
0.0
70
1
0
VERTEX
8
Halfen
62
7
10
 152
20
-62
30
0
0
VERTEX
8
Halfen
62
7
10
 152
20
-60
30
0
0
VERTEX
8
Halfen
62
7
10
 140
20
-60
30
0
0
VERTEX
8
Halfen
62
7
10
 140
20
-62
30
0
0
SEQEND
8
Halfen
0
POLYLINE
8
Halfen
62
7
66
1
10
0.0
20
0.0
30
0.0
70
1
0
VERTEX
8
Halfen
62
7
10
 151.25
20
-60
30
0
0
VERTEX
8
Halfen
62
7
10
 151.25
20
 60
30
0
0
VERTEX
8
Halfen
62
7
10
 140.75
20
 60
30
0
0
VERTEX
8
Halfen
62
7
10
 140.75
20
-60
30
0
0
SEQEND
8
Halfen
0
POLYLINE
8
Halfen
62
7
66
1
10
0.0
20
0.0
30
0.0
70
1
0
VERTEX
8
Halfen
62
7
10
 152
20
 60
30
0
0
VERTEX
8
Halfen
62
7
10
 152
20
 62
30
0
0
VERTEX
8
Halfen
62
7
10
 140
20
 62
30
0
0
VERTEX
8
Halfen
62
7
10
 140
20
 60
30
0
0
SEQEND
8
Halfen
0
POLYLINE
8
Halfen
62
7
66
1
10
0.0
20
0.0
30
0.0
70
1
0
VERTEX
8
Halfen
62
7
10
 151.25
20
 62
30
0
0
VERTEX
8
Halfen
62
7
10
 151.25
20
 160
30
0
0
VERTEX
8
Halfen
62
7
10
 140.75
20
 160
30
0
0
VERTEX
8
Halfen
62
7
10
 140.75
20
 62
30
0
0
SEQEND
8
Halfen
0
POLYLINE
8
Halfen
62
7
66
1
10
0.0
20
0.0
30
0.0
70
1
0
VERTEX
8
Halfen
62
7
10
 152
20
 160
30
0
0
VERTEX
8
Halfen
62
7
10
 152
20
 775
30
0
0
VERTEX
8
Halfen
62
7
10
 140
20
 775
30
0
0
VERTEX
8
Halfen
62
7
10
 140
20
 160
30
0
0
SEQEND
8
Halfen
0
POLYLINE
8
Halfen
62
7
66
1
10
0.0
20
0.0
30
0.0
70
1
0
VERTEX
8
Halfen
62
7
10
 284
20
-775
30
0
0
VERTEX
8
Halfen
62
7
10
 284
20
-160
30
0
0
VERTEX
8
Halfen
62
7
10
 272
20
-160
30
0
0
VERTEX
8
Halfen
62
7
10
 272
20
-775
30
0
0
SEQEND
8
Halfen
0
POLYLINE
8
Halfen
62
7
66
1
10
0.0
20
0.0
30
0.0
70
1
0
VERTEX
8
Halfen
62
7
10
 283.25
20
-160
30
0
0
VERTEX
8
Halfen
62
7
10
 283.25
20
-62
30
0
0
VERTEX
8
Halfen
62
7
10
 272.75
20
-62
30
0
0
VERTEX
8
Halfen
62
7
10
 272.75
20
-160
30
0
0
SEQEND
8
Halfen
0
POLYLINE
8
Halfen
62
7
66
1
10
0.0
20
0.0
30
0.0
70
1
0
VERTEX
8
Halfen
62
7
10
 284
20
-62
30
0
0
VERTEX
8
Halfen
62
7
10
 284
20
-60
30
0
0
VERTEX
8
Halfen
62
7
10
 272
20
-60
30
0
0
VERTEX
8
Halfen
62
7
10
 272
20
-62
30
0
0
SEQEND
8
Halfen
0
POLYLINE
8
Halfen
62
7
66
1
10
0.0
20
0.0
30
0.0
70
1
0
VERTEX
8
Halfen
62
7
10
 283.25
20
-60
30
0
0
VERTEX
8
Halfen
62
7
10
 283.25
20
 60
30
0
0
VERTEX
8
Halfen
62
7
10
 272.75
20
 60
30
0
0
VERTEX
8
Halfen
62
7
10
 272.75
20
-60
30
0
0
SEQEND
8
Halfen
0
POLYLINE
8
Halfen
62
7
66
1
10
0.0
20
0.0
30
0.0
70
1
0
VERTEX
8
Halfen
62
7
10
 284
20
 60
30
0
0
VERTEX
8
Halfen
62
7
10
 284
20
 62
30
0
0
VERTEX
8
Halfen
62
7
10
 272
20
 62
30
0
0
VERTEX
8
Halfen
62
7
10
 272
20
 60
30
0
0
SEQEND
8
Halfen
0
POLYLINE
8
Halfen
62
7
66
1
10
0.0
20
0.0
30
0.0
70
1
0
VERTEX
8
Halfen
62
7
10
 283.25
20
 62
30
0
0
VERTEX
8
Halfen
62
7
10
 283.25
20
 160
30
0
0
VERTEX
8
Halfen
62
7
10
 272.75
20
 160
30
0
0
VERTEX
8
Halfen
62
7
10
 272.75
20
 62
30
0
0
SEQEND
8
Halfen
0
POLYLINE
8
Halfen
62
7
66
1
10
0.0
20
0.0
30
0.0
70
1
0
VERTEX
8
Halfen
62
7
10
 284
20
 160
30
0
0
VERTEX
8
Halfen
62
7
10
 284
20
 775
30
0
0
VERTEX
8
Halfen
62
7
10
 272
20
 775
30
0
0
VERTEX
8
Halfen
62
7
10
 272
20
 160
30
0
0
SEQEND
8
Halfen
0
POLYLINE
8
Halfen
62
7
66
1
10
0.0
20
0.0
30
0.0
70
1
0
VERTEX
8
Halfen
62
7
10
 332
20
-775
30
0
0
VERTEX
8
Halfen
62
7
10
 332
20
-160
30
0
0
VERTEX
8
Halfen
62
7
10
 320
20
-160
30
0
0
VERTEX
8
Halfen
62
7
10
 320
20
-775
30
0
0
SEQEND
8
Halfen
0
POLYLINE
8
Halfen
62
7
66
1
10
0.0
20
0.0
30
0.0
70
1
0
VERTEX
8
Halfen
62
7
10
 331.25
20
-160
30
0
0
VERTEX
8
Halfen
62
7
10
 331.25
20
-62
30
0
0
VERTEX
8
Halfen
62
7
10
 320.75
20
-62
30
0
0
VERTEX
8
Halfen
62
7
10
 320.75
20
-160
30
0
0
SEQEND
8
Halfen
0
POLYLINE
8
Halfen
62
7
66
1
10
0.0
20
0.0
30
0.0
70
1
0
VERTEX
8
Halfen
62
7
10
 332
20
-62
30
0
0
VERTEX
8
Halfen
62
7
10
 332
20
-60
30
0
0
VERTEX
8
Halfen
62
7
10
 320
20
-60
30
0
0
VERTEX
8
Halfen
62
7
10
 320
20
-62
30
0
0
SEQEND
8
Halfen
0
POLYLINE
8
Halfen
62
7
66
1
10
0.0
20
0.0
30
0.0
70
1
0
VERTEX
8
Halfen
62
7
10
 331.25
20
-60
30
0
0
VERTEX
8
Halfen
62
7
10
 331.25
20
 60
30
0
0
VERTEX
8
Halfen
62
7
10
 320.75
20
 60
30
0
0
VERTEX
8
Halfen
62
7
10
 320.75
20
-60
30
0
0
SEQEND
8
Halfen
0
POLYLINE
8
Halfen
62
7
66
1
10
0.0
20
0.0
30
0.0
70
1
0
VERTEX
8
Halfen
62
7
10
 332
20
 60
30
0
0
VERTEX
8
Halfen
62
7
10
 332
20
 62
30
0
0
VERTEX
8
Halfen
62
7
10
 320
20
 62
30
0
0
VERTEX
8
Halfen
62
7
10
 320
20
 60
30
0
0
SEQEND
8
Halfen
0
POLYLINE
8
Halfen
62
7
66
1
10
0.0
20
0.0
30
0.0
70
1
0
VERTEX
8
Halfen
62
7
10
 331.25
20
 62
30
0
0
VERTEX
8
Halfen
62
7
10
 331.25
20
 160
30
0
0
VERTEX
8
Halfen
62
7
10
 320.75
20
 160
30
0
0
VERTEX
8
Halfen
62
7
10
 320.75
20
 62
30
0
0
SEQEND
8
Halfen
0
POLYLINE
8
Halfen
62
7
66
1
10
0.0
20
0.0
30
0.0
70
1
0
VERTEX
8
Halfen
62
7
10
 332
20
 160
30
0
0
VERTEX
8
Halfen
62
7
10
 332
20
 775
30
0
0
VERTEX
8
Halfen
62
7
10
 320
20
 775
30
0
0
VERTEX
8
Halfen
62
7
10
 320
20
 160
30
0
0
SEQEND
8
Halfen
0
POLYLINE
8
Halfen
62
7
66
1
10
0.0
20
0.0
30
0.0
70
1
0
VERTEX
8
Halfen
62
7
10
 416
20
-775
30
0
0
VERTEX
8
Halfen
62
7
10
 416
20
-160
30
0
0
VERTEX
8
Halfen
62
7
10
 404
20
-160
30
0
0
VERTEX
8
Halfen
62
7
10
 404
20
-775
30
0
0
SEQEND
8
Halfen
0
POLYLINE
8
Halfen
62
7
66
1
10
0.0
20
0.0
30
0.0
70
1
0
VERTEX
8
Halfen
62
7
10
 415.25
20
-160
30
0
0
VERTEX
8
Halfen
62
7
10
 415.25
20
-62
30
0
0
VERTEX
8
Halfen
62
7
10
 404.75
20
-62
30
0
0
VERTEX
8
Halfen
62
7
10
 404.75
20
-160
30
0
0
SEQEND
8
Halfen
0
POLYLINE
8
Halfen
62
7
66
1
10
0.0
20
0.0
30
0.0
70
1
0
VERTEX
8
Halfen
62
7
10
 416
20
-62
30
0
0
VERTEX
8
Halfen
62
7
10
 416
20
-60
30
0
0
VERTEX
8
Halfen
62
7
10
 404
20
-60
30
0
0
VERTEX
8
Halfen
62
7
10
 404
20
-62
30
0
0
SEQEND
8
Halfen
0
POLYLINE
8
Halfen
62
7
66
1
10
0.0
20
0.0
30
0.0
70
1
0
VERTEX
8
Halfen
62
7
10
 415.25
20
-60
30
0
0
VERTEX
8
Halfen
62
7
10
 415.25
20
 60
30
0
0
VERTEX
8
Halfen
62
7
10
 404.75
20
 60
30
0
0
VERTEX
8
Halfen
62
7
10
 404.75
20
-60
30
0
0
SEQEND
8
Halfen
0
POLYLINE
8
Halfen
62
7
66
1
10
0.0
20
0.0
30
0.0
70
1
0
VERTEX
8
Halfen
62
7
10
 416
20
 60
30
0
0
VERTEX
8
Halfen
62
7
10
 416
20
 62
30
0
0
VERTEX
8
Halfen
62
7
10
 404
20
 62
30
0
0
VERTEX
8
Halfen
62
7
10
 404
20
 60
30
0
0
SEQEND
8
Halfen
0
POLYLINE
8
Halfen
62
7
66
1
10
0.0
20
0.0
30
0.0
70
1
0
VERTEX
8
Halfen
62
7
10
 415.25
20
 62
30
0
0
VERTEX
8
Halfen
62
7
10
 415.25
20
 160
30
0
0
VERTEX
8
Halfen
62
7
10
 404.75
20
 160
30
0
0
VERTEX
8
Halfen
62
7
10
 404.75
20
 62
30
0
0
SEQEND
8
Halfen
0
POLYLINE
8
Halfen
62
7
66
1
10
0.0
20
0.0
30
0.0
70
1
0
VERTEX
8
Halfen
62
7
10
 416
20
 160
30
0
0
VERTEX
8
Halfen
62
7
10
 416
20
 775
30
0
0
VERTEX
8
Halfen
62
7
10
 404
20
 775
30
0
0
VERTEX
8
Halfen
62
7
10
 404
20
 160
30
0
0
SEQEND
8
Halfen
0
POLYLINE
8
Halfen
62
7
66
1
10
0.0
20
0.0
30
0.0
70
1
0
VERTEX
8
Halfen
62
7
10
 596
20
-775
30
0
0
VERTEX
8
Halfen
62
7
10
 596
20
-160
30
0
0
VERTEX
8
Halfen
62
7
10
 584
20
-160
30
0
0
VERTEX
8
Halfen
62
7
10
 584
20
-775
30
0
0
SEQEND
8
Halfen
0
POLYLINE
8
Halfen
62
7
66
1
10
0.0
20
0.0
30
0.0
70
1
0
VERTEX
8
Halfen
62
7
10
 595.25
20
-160
30
0
0
VERTEX
8
Halfen
62
7
10
 595.25
20
-62
30
0
0
VERTEX
8
Halfen
62
7
10
 584.75
20
-62
30
0
0
VERTEX
8
Halfen
62
7
10
 584.75
20
-160
30
0
0
SEQEND
8
Halfen
0
POLYLINE
8
Halfen
62
7
66
1
10
0.0
20
0.0
30
0.0
70
1
0
VERTEX
8
Halfen
62
7
10
 596
20
-62
30
0
0
VERTEX
8
Halfen
62
7
10
 596
20
-60
30
0
0
VERTEX
8
Halfen
62
7
10
 584
20
-60
30
0
0
VERTEX
8
Halfen
62
7
10
 584
20
-62
30
0
0
SEQEND
8
Halfen
0
POLYLINE
8
Halfen
62
7
66
1
10
0.0
20
0.0
30
0.0
70
1
0
VERTEX
8
Halfen
62
7
10
 595.25
20
-60
30
0
0
VERTEX
8
Halfen
62
7
10
 595.25
20
 60
30
0
0
VERTEX
8
Halfen
62
7
10
 584.75
20
 60
30
0
0
VERTEX
8
Halfen
62
7
10
 584.75
20
-60
30
0
0
SEQEND
8
Halfen
0
POLYLINE
8
Halfen
62
7
66
1
10
0.0
20
0.0
30
0.0
70
1
0
VERTEX
8
Halfen
62
7
10
 596
20
 60
30
0
0
VERTEX
8
Halfen
62
7
10
 596
20
 62
30
0
0
VERTEX
8
Halfen
62
7
10
 584
20
 62
30
0
0
VERTEX
8
Halfen
62
7
10
 584
20
 60
30
0
0
SEQEND
8
Halfen
0
POLYLINE
8
Halfen
62
7
66
1
10
0.0
20
0.0
30
0.0
70
1
0
VERTEX
8
Halfen
62
7
10
 595.25
20
 62
30
0
0
VERTEX
8
Halfen
62
7
10
 595.25
20
 160
30
0
0
VERTEX
8
Halfen
62
7
10
 584.75
20
 160
30
0
0
VERTEX
8
Halfen
62
7
10
 584.75
20
 62
30
0
0
SEQEND
8
Halfen
0
POLYLINE
8
Halfen
62
7
66
1
10
0.0
20
0.0
30
0.0
70
1
0
VERTEX
8
Halfen
62
7
10
 596
20
 160
30
0
0
VERTEX
8
Halfen
62
7
10
 596
20
 775
30
0
0
VERTEX
8
Halfen
62
7
10
 584
20
 775
30
0
0
VERTEX
8
Halfen
62
7
10
 584
20
 160
30
0
0
SEQEND
8
Halfen
0
POLYLINE
8
Halfen
62
7
66
1
10
0.0
20
0.0
30
0.0
70
1
0
VERTEX
8
Halfen
62
7
10
 680
20
-775
30
0
0
VERTEX
8
Halfen
62
7
10
 680
20
-160
30
0
0
VERTEX
8
Halfen
62
7
10
 668
20
-160
30
0
0
VERTEX
8
Halfen
62
7
10
 668
20
-775
30
0
0
SEQEND
8
Halfen
0
POLYLINE
8
Halfen
62
7
66
1
10
0.0
20
0.0
30
0.0
70
1
0
VERTEX
8
Halfen
62
7
10
 679.25
20
-160
30
0
0
VERTEX
8
Halfen
62
7
10
 679.25
20
-62
30
0
0
VERTEX
8
Halfen
62
7
10
 668.75
20
-62
30
0
0
VERTEX
8
Halfen
62
7
10
 668.75
20
-160
30
0
0
SEQEND
8
Halfen
0
POLYLINE
8
Halfen
62
7
66
1
10
0.0
20
0.0
30
0.0
70
1
0
VERTEX
8
Halfen
62
7
10
 680
20
-62
30
0
0
VERTEX
8
Halfen
62
7
10
 680
20
-60
30
0
0
VERTEX
8
Halfen
62
7
10
 668
20
-60
30
0
0
VERTEX
8
Halfen
62
7
10
 668
20
-62
30
0
0
SEQEND
8
Halfen
0
POLYLINE
8
Halfen
62
7
66
1
10
0.0
20
0.0
30
0.0
70
1
0
VERTEX
8
Halfen
62
7
10
 679.25
20
-60
30
0
0
VERTEX
8
Halfen
62
7
10
 679.25
20
 60
30
0
0
VERTEX
8
Halfen
62
7
10
 668.75
20
 60
30
0
0
VERTEX
8
Halfen
62
7
10
 668.75
20
-60
30
0
0
SEQEND
8
Halfen
0
POLYLINE
8
Halfen
62
7
66
1
10
0.0
20
0.0
30
0.0
70
1
0
VERTEX
8
Halfen
62
7
10
 680
20
 60
30
0
0
VERTEX
8
Halfen
62
7
10
 680
20
 62
30
0
0
VERTEX
8
Halfen
62
7
10
 668
20
 62
30
0
0
VERTEX
8
Halfen
62
7
10
 668
20
 60
30
0
0
SEQEND
8
Halfen
0
POLYLINE
8
Halfen
62
7
66
1
10
0.0
20
0.0
30
0.0
70
1
0
VERTEX
8
Halfen
62
7
10
 679.25
20
 62
30
0
0
VERTEX
8
Halfen
62
7
10
 679.25
20
 160
30
0
0
VERTEX
8
Halfen
62
7
10
 668.75
20
 160
30
0
0
VERTEX
8
Halfen
62
7
10
 668.75
20
 62
30
0
0
SEQEND
8
Halfen
0
POLYLINE
8
Halfen
62
7
66
1
10
0.0
20
0.0
30
0.0
70
1
0
VERTEX
8
Halfen
62
7
10
 680
20
 160
30
0
0
VERTEX
8
Halfen
62
7
10
 680
20
 775
30
0
0
VERTEX
8
Halfen
62
7
10
 668
20
 775
30
0
0
VERTEX
8
Halfen
62
7
10
 668
20
 160
30
0
0
SEQEND
8
Halfen
0
POLYLINE
8
Halfen
62
7
66
1
10
0.0
20
0.0
30
0.0
70
1
0
VERTEX
8
Halfen
62
7
10
 812
20
-775
30
0
0
VERTEX
8
Halfen
62
7
10
 812
20
-160
30
0
0
VERTEX
8
Halfen
62
7
10
 800
20
-160
30
0
0
VERTEX
8
Halfen
62
7
10
 800
20
-775
30
0
0
SEQEND
8
Halfen
0
POLYLINE
8
Halfen
62
7
66
1
10
0.0
20
0.0
30
0.0
70
1
0
VERTEX
8
Halfen
62
7
10
 811.25
20
-160
30
0
0
VERTEX
8
Halfen
62
7
10
 811.25
20
-62
30
0
0
VERTEX
8
Halfen
62
7
10
 800.75
20
-62
30
0
0
VERTEX
8
Halfen
62
7
10
 800.75
20
-160
30
0
0
SEQEND
8
Halfen
0
POLYLINE
8
Halfen
62
7
66
1
10
0.0
20
0.0
30
0.0
70
1
0
VERTEX
8
Halfen
62
7
10
 812
20
-62
30
0
0
VERTEX
8
Halfen
62
7
10
 812
20
-60
30
0
0
VERTEX
8
Halfen
62
7
10
 800
20
-60
30
0
0
VERTEX
8
Halfen
62
7
10
 800
20
-62
30
0
0
SEQEND
8
Halfen
0
POLYLINE
8
Halfen
62
7
66
1
10
0.0
20
0.0
30
0.0
70
1
0
VERTEX
8
Halfen
62
7
10
 811.25
20
-60
30
0
0
VERTEX
8
Halfen
62
7
10
 811.25
20
 60
30
0
0
VERTEX
8
Halfen
62
7
10
 800.75
20
 60
30
0
0
VERTEX
8
Halfen
62
7
10
 800.75
20
-60
30
0
0
SEQEND
8
Halfen
0
POLYLINE
8
Halfen
62
7
66
1
10
0.0
20
0.0
30
0.0
70
1
0
VERTEX
8
Halfen
62
7
10
 812
20
 60
30
0
0
VERTEX
8
Halfen
62
7
10
 812
20
 62
30
0
0
VERTEX
8
Halfen
62
7
10
 800
20
 62
30
0
0
VERTEX
8
Halfen
62
7
10
 800
20
 60
30
0
0
SEQEND
8
Halfen
0
POLYLINE
8
Halfen
62
7
66
1
10
0.0
20
0.0
30
0.0
70
1
0
VERTEX
8
Halfen
62
7
10
 811.25
20
 62
30
0
0
VERTEX
8
Halfen
62
7
10
 811.25
20
 160
30
0
0
VERTEX
8
Halfen
62
7
10
 800.75
20
 160
30
0
0
VERTEX
8
Halfen
62
7
10
 800.75
20
 62
30
0
0
SEQEND
8
Halfen
0
POLYLINE
8
Halfen
62
7
66
1
10
0.0
20
0.0
30
0.0
70
1
0
VERTEX
8
Halfen
62
7
10
 812
20
 160
30
0
0
VERTEX
8
Halfen
62
7
10
 812
20
 775
30
0
0
VERTEX
8
Halfen
62
7
10
 800
20
 775
30
0
0
VERTEX
8
Halfen
62
7
10
 800
20
 160
30
0
0
SEQEND
8
Halfen
0
POLYLINE
8
Halfen
62
7
66
1
10
0.0
20
0.0
30
0.0
70
1
0
VERTEX
8
Halfen
62
7
10
 860
20
-775
30
0
0
VERTEX
8
Halfen
62
7
10
 860
20
-160
30
0
0
VERTEX
8
Halfen
62
7
10
 848
20
-160
30
0
0
VERTEX
8
Halfen
62
7
10
 848
20
-775
30
0
0
SEQEND
8
Halfen
0
POLYLINE
8
Halfen
62
7
66
1
10
0.0
20
0.0
30
0.0
70
1
0
VERTEX
8
Halfen
62
7
10
 859.25
20
-160
30
0
0
VERTEX
8
Halfen
62
7
10
 859.25
20
-62
30
0
0
VERTEX
8
Halfen
62
7
10
 848.75
20
-62
30
0
0
VERTEX
8
Halfen
62
7
10
 848.75
20
-160
30
0
0
SEQEND
8
Halfen
0
POLYLINE
8
Halfen
62
7
66
1
10
0.0
20
0.0
30
0.0
70
1
0
VERTEX
8
Halfen
62
7
10
 860
20
-62
30
0
0
VERTEX
8
Halfen
62
7
10
 860
20
-60
30
0
0
VERTEX
8
Halfen
62
7
10
 848
20
-60
30
0
0
VERTEX
8
Halfen
62
7
10
 848
20
-62
30
0
0
SEQEND
8
Halfen
0
POLYLINE
8
Halfen
62
7
66
1
10
0.0
20
0.0
30
0.0
70
1
0
VERTEX
8
Halfen
62
7
10
 859.25
20
-60
30
0
0
VERTEX
8
Halfen
62
7
10
 859.25
20
 60
30
0
0
VERTEX
8
Halfen
62
7
10
 848.75
20
 60
30
0
0
VERTEX
8
Halfen
62
7
10
 848.75
20
-60
30
0
0
SEQEND
8
Halfen
0
POLYLINE
8
Halfen
62
7
66
1
10
0.0
20
0.0
30
0.0
70
1
0
VERTEX
8
Halfen
62
7
10
 860
20
 60
30
0
0
VERTEX
8
Halfen
62
7
10
 860
20
 62
30
0
0
VERTEX
8
Halfen
62
7
10
 848
20
 62
30
0
0
VERTEX
8
Halfen
62
7
10
 848
20
 60
30
0
0
SEQEND
8
Halfen
0
POLYLINE
8
Halfen
62
7
66
1
10
0.0
20
0.0
30
0.0
70
1
0
VERTEX
8
Halfen
62
7
10
 859.25
20
 62
30
0
0
VERTEX
8
Halfen
62
7
10
 859.25
20
 160
30
0
0
VERTEX
8
Halfen
62
7
10
 848.75
20
 160
30
0
0
VERTEX
8
Halfen
62
7
10
 848.75
20
 62
30
0
0
SEQEND
8
Halfen
0
POLYLINE
8
Halfen
62
7
66
1
10
0.0
20
0.0
30
0.0
70
1
0
VERTEX
8
Halfen
62
7
10
 860
20
 160
30
0
0
VERTEX
8
Halfen
62
7
10
 860
20
 775
30
0
0
VERTEX
8
Halfen
62
7
10
 848
20
 775
30
0
0
VERTEX
8
Halfen
62
7
10
 848
20
 160
30
0
0
SEQEND
8
Halfen
0
POLYLINE
8
Halfen
62
7
66
1
10
0.0
20
0.0
30
0.0
70
1
0
VERTEX
8
Halfen
62
7
10
 944
20
-775
30
0
0
VERTEX
8
Halfen
62
7
10
 944
20
-160
30
0
0
VERTEX
8
Halfen
62
7
10
 932
20
-160
30
0
0
VERTEX
8
Halfen
62
7
10
 932
20
-775
30
0
0
SEQEND
8
Halfen
0
POLYLINE
8
Halfen
62
7
66
1
10
0.0
20
0.0
30
0.0
70
1
0
VERTEX
8
Halfen
62
7
10
 943.25
20
-160
30
0
0
VERTEX
8
Halfen
62
7
10
 943.25
20
-62
30
0
0
VERTEX
8
Halfen
62
7
10
 932.75
20
-62
30
0
0
VERTEX
8
Halfen
62
7
10
 932.75
20
-160
30
0
0
SEQEND
8
Halfen
0
POLYLINE
8
Halfen
62
7
66
1
10
0.0
20
0.0
30
0.0
70
1
0
VERTEX
8
Halfen
62
7
10
 944
20
-62
30
0
0
VERTEX
8
Halfen
62
7
10
 944
20
-60
30
0
0
VERTEX
8
Halfen
62
7
10
 932
20
-60
30
0
0
VERTEX
8
Halfen
62
7
10
 932
20
-62
30
0
0
SEQEND
8
Halfen
0
POLYLINE
8
Halfen
62
7
66
1
10
0.0
20
0.0
30
0.0
70
1
0
VERTEX
8
Halfen
62
7
10
 943.25
20
-60
30
0
0
VERTEX
8
Halfen
62
7
10
 943.25
20
 60
30
0
0
VERTEX
8
Halfen
62
7
10
 932.75
20
 60
30
0
0
VERTEX
8
Halfen
62
7
10
 932.75
20
-60
30
0
0
SEQEND
8
Halfen
0
POLYLINE
8
Halfen
62
7
66
1
10
0.0
20
0.0
30
0.0
70
1
0
VERTEX
8
Halfen
62
7
10
 944
20
 60
30
0
0
VERTEX
8
Halfen
62
7
10
 944
20
 62
30
0
0
VERTEX
8
Halfen
62
7
10
 932
20
 62
30
0
0
VERTEX
8
Halfen
62
7
10
 932
20
 60
30
0
0
SEQEND
8
Halfen
0
POLYLINE
8
Halfen
62
7
66
1
10
0.0
20
0.0
30
0.0
70
1
0
VERTEX
8
Halfen
62
7
10
 943.25
20
 62
30
0
0
VERTEX
8
Halfen
62
7
10
 943.25
20
 160
30
0
0
VERTEX
8
Halfen
62
7
10
 932.75
20
 160
30
0
0
VERTEX
8
Halfen
62
7
10
 932.75
20
 62
30
0
0
SEQEND
8
Halfen
0
POLYLINE
8
Halfen
62
7
66
1
10
0.0
20
0.0
30
0.0
70
1
0
VERTEX
8
Halfen
62
7
10
 944
20
 160
30
0
0
VERTEX
8
Halfen
62
7
10
 944
20
 775
30
0
0
VERTEX
8
Halfen
62
7
10
 932
20
 775
30
0
0
VERTEX
8
Halfen
62
7
10
 932
20
 160
30
0
0
SEQEND
8
Halfen
0
POLYLINE
8
Halfen
62
7
66
1
10
0.0
20
0.0
30
0.0
70
1
0
VERTEX
8
Halfen
62
7
10
 98
20
-578.609
30
0
0
VERTEX
8
Halfen
62
7
10
 98
20
 577.25
30
0
0
VERTEX
8
Halfen
62
7
10
 90
20
 577.25
30
0
0
VERTEX
8
Halfen
62
7
10
 90
20
-578.609
30
0
0
SEQEND
8
Halfen
0
POLYLINE
8
Halfen
62
7
66
1
10
0.0
20
0.0
30
0.0
70
1
0
VERTEX
8
Halfen
62
7
10
 106
20
-577.251
30
0
0
VERTEX
8
Halfen
62
7
10
 106
20
 578.609
30
0
0
VERTEX
8
Halfen
62
7
10
 98
20
 578.609
30
0
0
VERTEX
8
Halfen
62
7
10
 98
20
-577.251
30
0
0
SEQEND
8
Halfen
0
POLYLINE
8
Halfen
62
7
66
1
10
0.0
20
0.0
30
0.0
70
1
0
VERTEX
8
Halfen
62
7
10
 230
20
-578.609
30
0
0
VERTEX
8
Halfen
62
7
10
 230
20
 577.25
30
0
0
VERTEX
8
Halfen
62
7
10
 222
20
 577.25
30
0
0
VERTEX
8
Halfen
62
7
10
 222
20
-578.609
30
0
0
SEQEND
8
Halfen
0
POLYLINE
8
Halfen
62
7
66
1
10
0.0
20
0.0
30
0.0
70
1
0
VERTEX
8
Halfen
62
7
10
 238
20
-577.251
30
0
0
VERTEX
8
Halfen
62
7
10
 238
20
 578.609
30
0
0
VERTEX
8
Halfen
62
7
10
 230
20
 578.609
30
0
0
VERTEX
8
Halfen
62
7
10
 230
20
-577.251
30
0
0
SEQEND
8
Halfen
0
POLYLINE
8
Halfen
62
7
66
1
10
0.0
20
0.0
30
0.0
70
1
0
VERTEX
8
Halfen
62
7
10
 362
20
-578.609
30
0
0
VERTEX
8
Halfen
62
7
10
 362
20
 577.25
30
0
0
VERTEX
8
Halfen
62
7
10
 354
20
 577.25
30
0
0
VERTEX
8
Halfen
62
7
10
 354
20
-578.609
30
0
0
SEQEND
8
Halfen
0
POLYLINE
8
Halfen
62
7
66
1
10
0.0
20
0.0
30
0.0
70
1
0
VERTEX
8
Halfen
62
7
10
 370
20
-577.251
30
0
0
VERTEX
8
Halfen
62
7
10
 370
20
 578.609
30
0
0
VERTEX
8
Halfen
62
7
10
 362
20
 578.609
30
0
0
VERTEX
8
Halfen
62
7
10
 362
20
-577.251
30
0
0
SEQEND
8
Halfen
0
POLYLINE
8
Halfen
62
7
66
1
10
0.0
20
0.0
30
0.0
70
1
0
VERTEX
8
Halfen
62
7
10
 626
20
-578.609
30
0
0
VERTEX
8
Halfen
62
7
10
 626
20
 577.25
30
0
0
VERTEX
8
Halfen
62
7
10
 618
20
 577.25
30
0
0
VERTEX
8
Halfen
62
7
10
 618
20
-578.609
30
0
0
SEQEND
8
Halfen
0
POLYLINE
8
Halfen
62
7
66
1
10
0.0
20
0.0
30
0.0
70
1
0
VERTEX
8
Halfen
62
7
10
 634
20
-577.251
30
0
0
VERTEX
8
Halfen
62
7
10
 634
20
 578.609
30
0
0
VERTEX
8
Halfen
62
7
10
 626
20
 578.609
30
0
0
VERTEX
8
Halfen
62
7
10
 626
20
-577.251
30
0
0
SEQEND
8
Halfen
0
POLYLINE
8
Halfen
62
7
66
1
10
0.0
20
0.0
30
0.0
70
1
0
VERTEX
8
Halfen
62
7
10
 758
20
-578.609
30
0
0
VERTEX
8
Halfen
62
7
10
 758
20
 577.25
30
0
0
VERTEX
8
Halfen
62
7
10
 750
20
 577.25
30
0
0
VERTEX
8
Halfen
62
7
10
 750
20
-578.609
30
0
0
SEQEND
8
Halfen
0
POLYLINE
8
Halfen
62
7
66
1
10
0.0
20
0.0
30
0.0
70
1
0
VERTEX
8
Halfen
62
7
10
 766
20
-577.251
30
0
0
VERTEX
8
Halfen
62
7
10
 766
20
 578.609
30
0
0
VERTEX
8
Halfen
62
7
10
 758
20
 578.609
30
0
0
VERTEX
8
Halfen
62
7
10
 758
20
-577.251
30
0
0
SEQEND
8
Halfen
0
POLYLINE
8
Halfen
62
7
66
1
10
0.0
20
0.0
30
0.0
70
1
0
VERTEX
8
Halfen
62
7
10
 890
20
-578.609
30
0
0
VERTEX
8
Halfen
62
7
10
 890
20
 577.25
30
0
0
VERTEX
8
Halfen
62
7
10
 882
20
 577.25
30
0
0
VERTEX
8
Halfen
62
7
10
 882
20
-578.609
30
0
0
SEQEND
8
Halfen
0
POLYLINE
8
Halfen
62
7
66
1
10
0.0
20
0.0
30
0.0
70
1
0
VERTEX
8
Halfen
62
7
10
 898
20
-577.251
30
0
0
VERTEX
8
Halfen
62
7
10
 898
20
 578.609
30
0
0
VERTEX
8
Halfen
62
7
10
 890
20
 578.609
30
0
0
VERTEX
8
Halfen
62
7
10
 890
20
-577.251
30
0
0
SEQEND
8
Halfen
0
POLYLINE
8
Halfen
62
7
66
1
10
0.0
20
0.0
30
0.0
70
1
0
VERTEX
8
Halfen
62
7
10
 1390
20
-60
30
0
0
VERTEX
8
Halfen
62
7
10
 1390
20
 60
30
0
0
VERTEX
8
Halfen
62
7
10
 1376.5
20
 73.5
30
0
0
VERTEX
8
Halfen
62
7
10
 1376.5
20
 60
30
0
0
VERTEX
8
Halfen
62
7
10
 1250
20
 60
30
0
0
VERTEX
8
Halfen
62
7
10
 1250
20
-60
30
0
0
VERTEX
8
Halfen
62
7
10
 1376.5
20
-60
30
0
0
VERTEX
8
Halfen
62
7
10
 1376.5
20
-73.5
30
0
0
SEQEND
8
Halfen
0
POLYLINE
8
Halfen
62
7
66
1
10
0.0
20
0.0
30
0.0
70
1
0
VERTEX
8
Halfen
62
7
10
 1250
20
-60
30
0
0
VERTEX
8
Halfen
62
7
10
 1250
20
 60
30
0
0
VERTEX
8
Halfen
62
7
10
 1213.5
20
 60
30
0
0
VERTEX
8
Halfen
62
7
10
 1213.5
20
 73.5
30
0
0
VERTEX
8
Halfen
62
7
10
 1200
20
 60
30
0
0
VERTEX
8
Halfen
62
7
10
 1200
20
-60
30
0
0
VERTEX
8
Halfen
62
7
10
 1213.5
20
-73.5
30
0
0
VERTEX
8
Halfen
62
7
10
 1213.5
20
-60
30
0
0
SEQEND
8
Halfen
0
POLYLINE
8
Halfen
62
7
66
1
10
0.0
20
0.0
30
0.0
70
1
0
VERTEX
8
Halfen
62
7
10
 1387.5
20
-58.75
30
0
0
VERTEX
8
Halfen
62
7
10
 1387.5
20
 58.75
30
0
0
VERTEX
8
Halfen
62
7
10
 1379
20
 67.25
30
0
0
VERTEX
8
Halfen
62
7
10
 1379
20
 58
30
0
0
VERTEX
8
Halfen
62
7
10
 1252
20
 58
30
0
0
VERTEX
8
Halfen
62
7
10
 1252
20
-58
30
0
0
VERTEX
8
Halfen
62
7
10
 1379
20
-58
30
0
0
VERTEX
8
Halfen
62
7
10
 1379
20
-67.25
30
0
0
SEQEND
8
Halfen
0
POLYLINE
8
Halfen
62
7
66
1
10
0.0
20
0.0
30
0.0
70
1
0
VERTEX
8
Halfen
62
7
10
 1248
20
-58
30
0
0
VERTEX
8
Halfen
62
7
10
 1248
20
 58
30
0
0
VERTEX
8
Halfen
62
7
10
 1211
20
 58
30
0
0
VERTEX
8
Halfen
62
7
10
 1211
20
 67.25
30
0
0
VERTEX
8
Halfen
62
7
10
 1202.5
20
 58.75
30
0
0
VERTEX
8
Halfen
62
7
10
 1202.5
20
-58.75
30
0
0
VERTEX
8
Halfen
62
7
10
 1211
20
-67.25
30
0
0
VERTEX
8
Halfen
62
7
10
 1211
20
-58
30
0
0
SEQEND
8
Halfen
0
POLYLINE
8
Halfen
62
7
66
1
10
0.0
20
0.0
30
0.0
70
1
0
VERTEX
8
Halfen
62
7
10
 1247
20
-775
30
0
0
VERTEX
8
Halfen
62
7
10
 1247
20
-160
30
0
0
VERTEX
8
Halfen
62
7
10
 1235
20
-160
30
0
0
VERTEX
8
Halfen
62
7
10
 1235
20
-775
30
0
0
SEQEND
8
Halfen
0
POLYLINE
8
Halfen
62
7
66
1
10
0.0
20
0.0
30
0.0
70
1
0
VERTEX
8
Halfen
62
7
10
 1246.25
20
-160
30
0
0
VERTEX
8
Halfen
62
7
10
 1246.25
20
-62
30
0
0
VERTEX
8
Halfen
62
7
10
 1235.75
20
-62
30
0
0
VERTEX
8
Halfen
62
7
10
 1235.75
20
-160
30
0
0
SEQEND
8
Halfen
0
POLYLINE
8
Halfen
62
7
66
1
10
0.0
20
0.0
30
0.0
70
1
0
VERTEX
8
Halfen
62
7
10
 1247
20
-62
30
0
0
VERTEX
8
Halfen
62
7
10
 1247
20
-60
30
0
0
VERTEX
8
Halfen
62
7
10
 1235
20
-60
30
0
0
VERTEX
8
Halfen
62
7
10
 1235
20
-62
30
0
0
SEQEND
8
Halfen
0
POLYLINE
8
Halfen
62
7
66
1
10
0.0
20
0.0
30
0.0
70
1
0
VERTEX
8
Halfen
62
7
10
 1246.25
20
-60
30
0
0
VERTEX
8
Halfen
62
7
10
 1246.25
20
 60
30
0
0
VERTEX
8
Halfen
62
7
10
 1235.75
20
 60
30
0
0
VERTEX
8
Halfen
62
7
10
 1235.75
20
-60
30
0
0
SEQEND
8
Halfen
0
POLYLINE
8
Halfen
62
7
66
1
10
0.0
20
0.0
30
0.0
70
1
0
VERTEX
8
Halfen
62
7
10
 1247
20
 60
30
0
0
VERTEX
8
Halfen
62
7
10
 1247
20
 62
30
0
0
VERTEX
8
Halfen
62
7
10
 1235
20
 62
30
0
0
VERTEX
8
Halfen
62
7
10
 1235
20
 60
30
0
0
SEQEND
8
Halfen
0
POLYLINE
8
Halfen
62
7
66
1
10
0.0
20
0.0
30
0.0
70
1
0
VERTEX
8
Halfen
62
7
10
 1246.25
20
 62
30
0
0
VERTEX
8
Halfen
62
7
10
 1246.25
20
 160
30
0
0
VERTEX
8
Halfen
62
7
10
 1235.75
20
 160
30
0
0
VERTEX
8
Halfen
62
7
10
 1235.75
20
 62
30
0
0
SEQEND
8
Halfen
0
POLYLINE
8
Halfen
62
7
66
1
10
0.0
20
0.0
30
0.0
70
1
0
VERTEX
8
Halfen
62
7
10
 1247
20
 160
30
0
0
VERTEX
8
Halfen
62
7
10
 1247
20
 775
30
0
0
VERTEX
8
Halfen
62
7
10
 1235
20
 775
30
0
0
VERTEX
8
Halfen
62
7
10
 1235
20
 160
30
0
0
SEQEND
8
Halfen
0
POLYLINE
8
Halfen
62
7
66
1
10
0.0
20
0.0
30
0.0
70
1
0
VERTEX
8
Halfen
62
7
10
 1360
20
-775
30
0
0
VERTEX
8
Halfen
62
7
10
 1360
20
-160
30
0
0
VERTEX
8
Halfen
62
7
10
 1348
20
-160
30
0
0
VERTEX
8
Halfen
62
7
10
 1348
20
-775
30
0
0
SEQEND
8
Halfen
0
POLYLINE
8
Halfen
62
7
66
1
10
0.0
20
0.0
30
0.0
70
1
0
VERTEX
8
Halfen
62
7
10
 1359.25
20
-160
30
0
0
VERTEX
8
Halfen
62
7
10
 1359.25
20
-62
30
0
0
VERTEX
8
Halfen
62
7
10
 1348.75
20
-62
30
0
0
VERTEX
8
Halfen
62
7
10
 1348.75
20
-160
30
0
0
SEQEND
8
Halfen
0
POLYLINE
8
Halfen
62
7
66
1
10
0.0
20
0.0
30
0.0
70
1
0
VERTEX
8
Halfen
62
7
10
 1360
20
-62
30
0
0
VERTEX
8
Halfen
62
7
10
 1360
20
-60
30
0
0
VERTEX
8
Halfen
62
7
10
 1348
20
-60
30
0
0
VERTEX
8
Halfen
62
7
10
 1348
20
-62
30
0
0
SEQEND
8
Halfen
0
POLYLINE
8
Halfen
62
7
66
1
10
0.0
20
0.0
30
0.0
70
1
0
VERTEX
8
Halfen
62
7
10
 1359.25
20
-60
30
0
0
VERTEX
8
Halfen
62
7
10
 1359.25
20
 60
30
0
0
VERTEX
8
Halfen
62
7
10
 1348.75
20
 60
30
0
0
VERTEX
8
Halfen
62
7
10
 1348.75
20
-60
30
0
0
SEQEND
8
Halfen
0
POLYLINE
8
Halfen
62
7
66
1
10
0.0
20
0.0
30
0.0
70
1
0
VERTEX
8
Halfen
62
7
10
 1360
20
 60
30
0
0
VERTEX
8
Halfen
62
7
10
 1360
20
 62
30
0
0
VERTEX
8
Halfen
62
7
10
 1348
20
 62
30
0
0
VERTEX
8
Halfen
62
7
10
 1348
20
 60
30
0
0
SEQEND
8
Halfen
0
POLYLINE
8
Halfen
62
7
66
1
10
0.0
20
0.0
30
0.0
70
1
0
VERTEX
8
Halfen
62
7
10
 1359.25
20
 62
30
0
0
VERTEX
8
Halfen
62
7
10
 1359.25
20
 160
30
0
0
VERTEX
8
Halfen
62
7
10
 1348.75
20
 160
30
0
0
VERTEX
8
Halfen
62
7
10
 1348.75
20
 62
30
0
0
SEQEND
8
Halfen
0
POLYLINE
8
Halfen
62
7
66
1
10
0.0
20
0.0
30
0.0
70
1
0
VERTEX
8
Halfen
62
7
10
 1360
20
 160
30
0
0
VERTEX
8
Halfen
62
7
10
 1360
20
 775
30
0
0
VERTEX
8
Halfen
62
7
10
 1348
20
 775
30
0
0
VERTEX
8
Halfen
62
7
10
 1348
20
 160
30
0
0
SEQEND
8
Halfen
0
POLYLINE
8
Halfen
62
7
66
1
10
0.0
20
0.0
30
0.0
70
1
0
VERTEX
8
Halfen
62
7
10
 1360
20
-578.609
30
0
0
VERTEX
8
Halfen
62
7
10
 1360
20
-87.856
30
0
0
VERTEX
8
Halfen
62
7
10
 1359.514
20
-82.3
30
0
0
VERTEX
8
Halfen
62
7
10
 1358.07
20
-76.912
30
0
0
VERTEX
8
Halfen
62
7
10
 1355.713
20
-71.856
30
0
0
VERTEX
8
Halfen
62
7
10
 1271.215
20
 74.497
30
0
0
VERTEX
8
Halfen
62
7
10
 1269.447
20
 78.289
30
0
0
VERTEX
8
Halfen
62
7
10
 1268.365
20
 82.33
30
0
0
VERTEX
8
Halfen
62
7
10
 1268
20
 86.497
30
0
0
VERTEX
8
Halfen
62
7
10
 1268
20
 577.25
30
0
0
VERTEX
8
Halfen
62
7
10
 1260
20
 577.25
30
0
0
VERTEX
8
Halfen
62
7
10
 1260
20
 86.497
30
0
0
VERTEX
8
Halfen
62
7
10
 1260.486
20
 80.941
30
0
0
VERTEX
8
Halfen
62
7
10
 1261.93
20
 75.553
30
0
0
VERTEX
8
Halfen
62
7
10
 1264.287
20
 70.497
30
0
0
VERTEX
8
Halfen
62
7
10
 1348.785
20
-75.856
30
0
0
VERTEX
8
Halfen
62
7
10
 1350.553
20
-79.648
30
0
0
VERTEX
8
Halfen
62
7
10
 1351.635
20
-83.689
30
0
0
VERTEX
8
Halfen
62
7
10
 1352
20
-87.856
30
0
0
VERTEX
8
Halfen
62
7
10
 1352
20
-578.609
30
0
0
SEQEND
8
Halfen
0
POLYLINE
8
Halfen
62
7
66
1
10
0.0
20
0.0
30
0.0
70
1
0
VERTEX
8
Halfen
62
7
10
 1260
20
-577.251
30
0
0
VERTEX
8
Halfen
62
7
10
 1260
20
-86.497
30
0
0
VERTEX
8
Halfen
62
7
10
 1260.486
20
-80.941
30
0
0
VERTEX
8
Halfen
62
7
10
 1261.93
20
-75.553
30
0
0
VERTEX
8
Halfen
62
7
10
 1264.287
20
-70.497
30
0
0
VERTEX
8
Halfen
62
7
10
 1348.785
20
 75.856
30
0
0
VERTEX
8
Halfen
62
7
10
 1350.553
20
 79.648
30
0
0
VERTEX
8
Halfen
62
7
10
 1351.635
20
 83.689
30
0
0
VERTEX
8
Halfen
62
7
10
 1352
20
 87.856
30
0
0
VERTEX
8
Halfen
62
7
10
 1352
20
 578.609
30
0
0
VERTEX
8
Halfen
62
7
10
 1360
20
 578.609
30
0
0
VERTEX
8
Halfen
62
7
10
 1360
20
 87.856
30
0
0
VERTEX
8
Halfen
62
7
10
 1359.514
20
 82.3
30
0
0
VERTEX
8
Halfen
62
7
10
 1358.07
20
 76.912
30
0
0
VERTEX
8
Halfen
62
7
10
 1355.713
20
 71.856
30
0
0
VERTEX
8
Halfen
62
7
10
 1271.215
20
-74.497
30
0
0
VERTEX
8
Halfen
62
7
10
 1269.447
20
-78.289
30
0
0
VERTEX
8
Halfen
62
7
10
 1268.365
20
-82.33
30
0
0
VERTEX
8
Halfen
62
7
10
 1268
20
-86.497
30
0
0
VERTEX
8
Halfen
62
7
10
 1268
20
-577.251
30
0
0
SEQEND
8
Halfen
0
ENDSEC
0
EOF
