0
SECTION
2
HEADER
9
$EXTMIN
10
 0
20
 100
30
0.0
9
$EXTMAX
10
 0
20
 100
30
0.0
9
$LIMMIN
10
 100
20
 0
9
$LIMMAX
10
 0
20
 100
9
$PSLTSCALE
70
1
0
ENDSEC
0
SECTION
2
TABLES
0
TABLE
2
LAYER
70
2
0
LAYER
2
0
70
0
62
7
6
CONTINUOUS
0
LAYER
2
Halfen
70
0
62
7
6
CONTINUOUS
0
ENDTAB
0
ENDSEC
0
SECTION
2
ENTITIES
0
POLYLINE
8
Halfen
62
7
66
1
10
0.0
20
0.0
30
0.0
70
1
0
VERTEX
8
Halfen
62
7
10
 0
20
-73.5
30
0
0
VERTEX
8
Halfen
62
7
10
 1000
20
-73.5
30
0
0
VERTEX
8
Halfen
62
7
10
 1000
20
 73.5
30
0
0
VERTEX
8
Halfen
62
7
10
 0
20
 73.5
30
0
0
SEQEND
8
Halfen
0
POLYLINE
8
Halfen
62
7
66
1
10
0.0
20
0.0
30
0.0
70
1
0
VERTEX
8
Halfen
62
7
10
 0
20
-60
30
0
0
VERTEX
8
Halfen
62
7
10
 1000
20
-60
30
0
0
VERTEX
8
Halfen
62
7
10
 1000
20
 60
30
0
0
VERTEX
8
Halfen
62
7
10
 0
20
 60
30
0
0
SEQEND
8
Halfen
0
POLYLINE
8
Halfen
62
7
66
1
10
0.0
20
0.0
30
0.0
70
1
0
VERTEX
8
Halfen
62
7
10
 20
20
-32.5
30
0
0
VERTEX
8
Halfen
62
7
10
 37
20
-1.5
30
0
0
VERTEX
8
Halfen
62
7
10
 28
20
-1.5
30
0
0
VERTEX
8
Halfen
62
7
10
 28
20
 32.5
30
0
0
VERTEX
8
Halfen
62
7
10
 12
20
 32.5
30
0
0
VERTEX
8
Halfen
62
7
10
 12
20
-1.5
30
0
0
VERTEX
8
Halfen
62
7
10
 3
20
-1.5
30
0
0
SEQEND
8
Halfen
0
POLYLINE
8
Halfen
62
7
66
1
10
0.0
20
0.0
30
0.0
70
1
0
VERTEX
8
Halfen
62
7
10
 980
20
-32.5
30
0
0
VERTEX
8
Halfen
62
7
10
 997
20
-1.5
30
0
0
VERTEX
8
Halfen
62
7
10
 988
20
-1.5
30
0
0
VERTEX
8
Halfen
62
7
10
 988
20
 32.5
30
0
0
VERTEX
8
Halfen
62
7
10
 972
20
 32.5
30
0
0
VERTEX
8
Halfen
62
7
10
 972
20
-1.5
30
0
0
VERTEX
8
Halfen
62
7
10
 963
20
-1.5
30
0
0
SEQEND
8
Halfen
0
POLYLINE
8
Halfen
62
7
66
1
10
0.0
20
0.0
30
0.0
70
1
0
VERTEX
8
Halfen
62
7
10
 87
20
-456.927
30
0
0
VERTEX
8
Halfen
62
7
10
 87
20
 214.971
30
0
0
VERTEX
8
Halfen
62
7
10
 81
20
 214.971
30
0
0
VERTEX
8
Halfen
62
7
10
 81
20
-456.927
30
0
0
SEQEND
8
Halfen
0
POLYLINE
8
Halfen
62
7
66
1
10
0.0
20
0.0
30
0.0
70
1
0
VERTEX
8
Halfen
62
7
10
 215
20
-456.927
30
0
0
VERTEX
8
Halfen
62
7
10
 215
20
 214.971
30
0
0
VERTEX
8
Halfen
62
7
10
 209
20
 214.971
30
0
0
VERTEX
8
Halfen
62
7
10
 209
20
-456.927
30
0
0
SEQEND
8
Halfen
0
POLYLINE
8
Halfen
62
7
66
1
10
0.0
20
0.0
30
0.0
70
1
0
VERTEX
8
Halfen
62
7
10
 303
20
-456.927
30
0
0
VERTEX
8
Halfen
62
7
10
 303
20
 214.971
30
0
0
VERTEX
8
Halfen
62
7
10
 297
20
 214.971
30
0
0
VERTEX
8
Halfen
62
7
10
 297
20
-456.927
30
0
0
SEQEND
8
Halfen
0
POLYLINE
8
Halfen
62
7
66
1
10
0.0
20
0.0
30
0.0
70
1
0
VERTEX
8
Halfen
62
7
10
 431
20
-456.927
30
0
0
VERTEX
8
Halfen
62
7
10
 431
20
 214.971
30
0
0
VERTEX
8
Halfen
62
7
10
 425
20
 214.971
30
0
0
VERTEX
8
Halfen
62
7
10
 425
20
-456.927
30
0
0
SEQEND
8
Halfen
0
POLYLINE
8
Halfen
62
7
66
1
10
0.0
20
0.0
30
0.0
70
1
0
VERTEX
8
Halfen
62
7
10
 509
20
-456.927
30
0
0
VERTEX
8
Halfen
62
7
10
 509
20
 214.971
30
0
0
VERTEX
8
Halfen
62
7
10
 503
20
 214.971
30
0
0
VERTEX
8
Halfen
62
7
10
 503
20
-456.927
30
0
0
SEQEND
8
Halfen
0
POLYLINE
8
Halfen
62
7
66
1
10
0.0
20
0.0
30
0.0
70
1
0
VERTEX
8
Halfen
62
7
10
 587
20
-456.927
30
0
0
VERTEX
8
Halfen
62
7
10
 587
20
 214.971
30
0
0
VERTEX
8
Halfen
62
7
10
 581
20
 214.971
30
0
0
VERTEX
8
Halfen
62
7
10
 581
20
-456.927
30
0
0
SEQEND
8
Halfen
0
POLYLINE
8
Halfen
62
7
66
1
10
0.0
20
0.0
30
0.0
70
1
0
VERTEX
8
Halfen
62
7
10
 715
20
-456.927
30
0
0
VERTEX
8
Halfen
62
7
10
 715
20
 214.971
30
0
0
VERTEX
8
Halfen
62
7
10
 709
20
 214.971
30
0
0
VERTEX
8
Halfen
62
7
10
 709
20
-456.927
30
0
0
SEQEND
8
Halfen
0
POLYLINE
8
Halfen
62
7
66
1
10
0.0
20
0.0
30
0.0
70
1
0
VERTEX
8
Halfen
62
7
10
 803
20
-456.927
30
0
0
VERTEX
8
Halfen
62
7
10
 803
20
 214.971
30
0
0
VERTEX
8
Halfen
62
7
10
 797
20
 214.971
30
0
0
VERTEX
8
Halfen
62
7
10
 797
20
-456.927
30
0
0
SEQEND
8
Halfen
0
POLYLINE
8
Halfen
62
7
66
1
10
0.0
20
0.0
30
0.0
70
1
0
VERTEX
8
Halfen
62
7
10
 931
20
-456.927
30
0
0
VERTEX
8
Halfen
62
7
10
 931
20
 214.971
30
0
0
VERTEX
8
Halfen
62
7
10
 925
20
 214.971
30
0
0
VERTEX
8
Halfen
62
7
10
 925
20
-456.927
30
0
0
SEQEND
8
Halfen
0
POLYLINE
8
Halfen
62
7
66
1
10
0.0
20
0.0
30
0.0
70
1
0
VERTEX
8
Halfen
62
7
10
 919
20
-456.927
30
0
0
VERTEX
8
Halfen
62
7
10
 919
20
 214.971
30
0
0
VERTEX
8
Halfen
62
7
10
 913
20
 214.971
30
0
0
VERTEX
8
Halfen
62
7
10
 913
20
-456.927
30
0
0
SEQEND
8
Halfen
0
POLYLINE
8
Halfen
62
7
66
1
10
0.0
20
0.0
30
0.0
70
1
0
VERTEX
8
Halfen
62
7
10
 791
20
-456.927
30
0
0
VERTEX
8
Halfen
62
7
10
 791
20
 214.971
30
0
0
VERTEX
8
Halfen
62
7
10
 785
20
 214.971
30
0
0
VERTEX
8
Halfen
62
7
10
 785
20
-456.927
30
0
0
SEQEND
8
Halfen
0
POLYLINE
8
Halfen
62
7
66
1
10
0.0
20
0.0
30
0.0
70
1
0
VERTEX
8
Halfen
62
7
10
 703
20
-456.927
30
0
0
VERTEX
8
Halfen
62
7
10
 703
20
 214.971
30
0
0
VERTEX
8
Halfen
62
7
10
 697
20
 214.971
30
0
0
VERTEX
8
Halfen
62
7
10
 697
20
-456.927
30
0
0
SEQEND
8
Halfen
0
POLYLINE
8
Halfen
62
7
66
1
10
0.0
20
0.0
30
0.0
70
1
0
VERTEX
8
Halfen
62
7
10
 575
20
-456.927
30
0
0
VERTEX
8
Halfen
62
7
10
 575
20
 214.971
30
0
0
VERTEX
8
Halfen
62
7
10
 569
20
 214.971
30
0
0
VERTEX
8
Halfen
62
7
10
 569
20
-456.927
30
0
0
SEQEND
8
Halfen
0
POLYLINE
8
Halfen
62
7
66
1
10
0.0
20
0.0
30
0.0
70
1
0
VERTEX
8
Halfen
62
7
10
 497
20
-456.927
30
0
0
VERTEX
8
Halfen
62
7
10
 497
20
 214.971
30
0
0
VERTEX
8
Halfen
62
7
10
 491
20
 214.971
30
0
0
VERTEX
8
Halfen
62
7
10
 491
20
-456.927
30
0
0
SEQEND
8
Halfen
0
POLYLINE
8
Halfen
62
7
66
1
10
0.0
20
0.0
30
0.0
70
1
0
VERTEX
8
Halfen
62
7
10
 419
20
-456.927
30
0
0
VERTEX
8
Halfen
62
7
10
 419
20
 214.971
30
0
0
VERTEX
8
Halfen
62
7
10
 413
20
 214.971
30
0
0
VERTEX
8
Halfen
62
7
10
 413
20
-456.927
30
0
0
SEQEND
8
Halfen
0
POLYLINE
8
Halfen
62
7
66
1
10
0.0
20
0.0
30
0.0
70
1
0
VERTEX
8
Halfen
62
7
10
 291
20
-456.927
30
0
0
VERTEX
8
Halfen
62
7
10
 291
20
 214.971
30
0
0
VERTEX
8
Halfen
62
7
10
 285
20
 214.971
30
0
0
VERTEX
8
Halfen
62
7
10
 285
20
-456.927
30
0
0
SEQEND
8
Halfen
0
POLYLINE
8
Halfen
62
7
66
1
10
0.0
20
0.0
30
0.0
70
1
0
VERTEX
8
Halfen
62
7
10
 203
20
-456.927
30
0
0
VERTEX
8
Halfen
62
7
10
 203
20
 214.971
30
0
0
VERTEX
8
Halfen
62
7
10
 197
20
 214.971
30
0
0
VERTEX
8
Halfen
62
7
10
 197
20
-456.927
30
0
0
SEQEND
8
Halfen
0
POLYLINE
8
Halfen
62
7
66
1
10
0.0
20
0.0
30
0.0
70
1
0
VERTEX
8
Halfen
62
7
10
 75
20
-456.927
30
0
0
VERTEX
8
Halfen
62
7
10
 75
20
 214.971
30
0
0
VERTEX
8
Halfen
62
7
10
 69
20
 214.971
30
0
0
VERTEX
8
Halfen
62
7
10
 69
20
-456.927
30
0
0
SEQEND
8
Halfen
0
POLYLINE
8
Halfen
62
7
66
1
10
0.0
20
0.0
30
0.0
70
1
0
VERTEX
8
Halfen
62
7
10
 1370
20
-60
30
0
0
VERTEX
8
Halfen
62
7
10
 1370
20
 60
30
0
0
VERTEX
8
Halfen
62
7
10
 1356.5
20
 73.5
30
0
0
VERTEX
8
Halfen
62
7
10
 1356.5
20
 60
30
0
0
VERTEX
8
Halfen
62
7
10
 1250
20
 60
30
0
0
VERTEX
8
Halfen
62
7
10
 1250
20
-60
30
0
0
VERTEX
8
Halfen
62
7
10
 1356.5
20
-60
30
0
0
VERTEX
8
Halfen
62
7
10
 1356.5
20
-73.5
30
0
0
SEQEND
8
Halfen
0
POLYLINE
8
Halfen
62
7
66
1
10
0.0
20
0.0
30
0.0
70
1
0
VERTEX
8
Halfen
62
7
10
 1250
20
-60
30
0
0
VERTEX
8
Halfen
62
7
10
 1250
20
 60
30
0
0
VERTEX
8
Halfen
62
7
10
 1213.5
20
 60
30
0
0
VERTEX
8
Halfen
62
7
10
 1213.5
20
 73.5
30
0
0
VERTEX
8
Halfen
62
7
10
 1200
20
 60
30
0
0
VERTEX
8
Halfen
62
7
10
 1200
20
-60
30
0
0
VERTEX
8
Halfen
62
7
10
 1213.5
20
-73.5
30
0
0
VERTEX
8
Halfen
62
7
10
 1213.5
20
-60
30
0
0
SEQEND
8
Halfen
0
POLYLINE
8
Halfen
62
7
66
1
10
0.0
20
0.0
30
0.0
70
1
0
VERTEX
8
Halfen
62
7
10
 1367.5
20
-58.75
30
0
0
VERTEX
8
Halfen
62
7
10
 1367.5
20
 58.75
30
0
0
VERTEX
8
Halfen
62
7
10
 1359
20
 67.25
30
0
0
VERTEX
8
Halfen
62
7
10
 1359
20
 58
30
0
0
VERTEX
8
Halfen
62
7
10
 1252
20
 58
30
0
0
VERTEX
8
Halfen
62
7
10
 1252
20
-58
30
0
0
VERTEX
8
Halfen
62
7
10
 1359
20
-58
30
0
0
VERTEX
8
Halfen
62
7
10
 1359
20
-67.25
30
0
0
SEQEND
8
Halfen
0
POLYLINE
8
Halfen
62
7
66
1
10
0.0
20
0.0
30
0.0
70
1
0
VERTEX
8
Halfen
62
7
10
 1248
20
-58
30
0
0
VERTEX
8
Halfen
62
7
10
 1248
20
 58
30
0
0
VERTEX
8
Halfen
62
7
10
 1211
20
 58
30
0
0
VERTEX
8
Halfen
62
7
10
 1211
20
 67.25
30
0
0
VERTEX
8
Halfen
62
7
10
 1202.5
20
 58.75
30
0
0
VERTEX
8
Halfen
62
7
10
 1202.5
20
-58.75
30
0
0
VERTEX
8
Halfen
62
7
10
 1211
20
-67.25
30
0
0
VERTEX
8
Halfen
62
7
10
 1211
20
-58
30
0
0
SEQEND
8
Halfen
0
POLYLINE
8
Halfen
62
7
66
1
10
0.0
20
0.0
30
0.0
70
1
0
VERTEX
8
Halfen
62
7
10
 1340
20
-456.927
30
0
0
VERTEX
8
Halfen
62
7
10
 1340
20
-79.715
30
0
0
VERTEX
8
Halfen
62
7
10
 1339.766
20
-76.375
30
0
0
VERTEX
8
Halfen
62
7
10
 1339.07
20
-73.1
30
0
0
VERTEX
8
Halfen
62
7
10
 1337.925
20
-69.953
30
0
0
VERTEX
8
Halfen
62
7
10
 1336.353
20
-66.997
30
0
0
VERTEX
8
Halfen
62
7
10
 1248.735
20
 73.221
30
0
0
VERTEX
8
Halfen
62
7
10
 1247.556
20
 75.438
30
0
0
VERTEX
8
Halfen
62
7
10
 1246.697
20
 77.798
30
0
0
VERTEX
8
Halfen
62
7
10
 1246.175
20
 80.255
30
0
0
VERTEX
8
Halfen
62
7
10
 1246
20
 82.76
30
0
0
VERTEX
8
Halfen
62
7
10
 1246
20
 190.971
30
0
0
VERTEX
8
Halfen
62
7
10
 1246.222
20
 193.787
30
0
0
VERTEX
8
Halfen
62
7
10
 1246.881
20
 196.534
30
0
0
VERTEX
8
Halfen
62
7
10
 1247.962
20
 199.143
30
0
0
VERTEX
8
Halfen
62
7
10
 1249.438
20
 201.551
30
0
0
VERTEX
8
Halfen
62
7
10
 1251.272
20
 203.699
30
0
0
VERTEX
8
Halfen
62
7
10
 1253.42
20
 205.534
30
0
0
VERTEX
8
Halfen
62
7
10
 1255.828
20
 207.009
30
0
0
VERTEX
8
Halfen
62
7
10
 1258.438
20
 208.09
30
0
0
VERTEX
8
Halfen
62
7
10
 1261.184
20
 208.75
30
0
0
VERTEX
8
Halfen
62
7
10
 1264
20
 208.971
30
0
0
VERTEX
8
Halfen
62
7
10
 1335
20
 208.971
30
0
0
VERTEX
8
Halfen
62
7
10
 1335
20
 214.971
30
0
0
VERTEX
8
Halfen
62
7
10
 1264
20
 214.971
30
0
0
VERTEX
8
Halfen
62
7
10
 1260.246
20
 214.676
30
0
0
VERTEX
8
Halfen
62
7
10
 1256.584
20
 213.797
30
0
0
VERTEX
8
Halfen
62
7
10
 1253.104
20
 212.355
30
0
0
VERTEX
8
Halfen
62
7
10
 1249.893
20
 210.388
30
0
0
VERTEX
8
Halfen
62
7
10
 1247.029
20
 207.942
30
0
0
VERTEX
8
Halfen
62
7
10
 1244.584
20
 205.078
30
0
0
VERTEX
8
Halfen
62
7
10
 1242.616
20
 201.867
30
0
0
VERTEX
8
Halfen
62
7
10
 1241.175
20
 198.388
30
0
0
VERTEX
8
Halfen
62
7
10
 1240.295
20
 194.726
30
0
0
VERTEX
8
Halfen
62
7
10
 1240
20
 190.971
30
0
0
VERTEX
8
Halfen
62
7
10
 1240
20
 82.76
30
0
0
VERTEX
8
Halfen
62
7
10
 1240.234
20
 79.419
30
0
0
VERTEX
8
Halfen
62
7
10
 1240.93
20
 76.144
30
0
0
VERTEX
8
Halfen
62
7
10
 1242.075
20
 72.998
30
0
0
VERTEX
8
Halfen
62
7
10
 1243.647
20
 70.042
30
0
0
VERTEX
8
Halfen
62
7
10
 1331.265
20
-70.177
30
0
0
VERTEX
8
Halfen
62
7
10
 1332.444
20
-72.394
30
0
0
VERTEX
8
Halfen
62
7
10
 1333.303
20
-74.754
30
0
0
VERTEX
8
Halfen
62
7
10
 1333.825
20
-77.21
30
0
0
VERTEX
8
Halfen
62
7
10
 1334
20
-79.715
30
0
0
VERTEX
8
Halfen
62
7
10
 1334
20
-456.927
30
0
0
SEQEND
8
Halfen
0
POLYLINE
8
Halfen
62
7
66
1
10
0.0
20
0.0
30
0.0
70
1
0
VERTEX
8
Halfen
62
7
10
 1240
20
-456.898
30
0
0
VERTEX
8
Halfen
62
7
10
 1240
20
-79.686
30
0
0
VERTEX
8
Halfen
62
7
10
 1240.234
20
-76.346
30
0
0
VERTEX
8
Halfen
62
7
10
 1240.93
20
-73.071
30
0
0
VERTEX
8
Halfen
62
7
10
 1242.075
20
-69.925
30
0
0
VERTEX
8
Halfen
62
7
10
 1243.647
20
-66.968
30
0
0
VERTEX
8
Halfen
62
7
10
 1331.265
20
 73.25
30
0
0
VERTEX
8
Halfen
62
7
10
 1332.444
20
 75.467
30
0
0
VERTEX
8
Halfen
62
7
10
 1333.303
20
 77.827
30
0
0
VERTEX
8
Halfen
62
7
10
 1333.825
20
 80.283
30
0
0
VERTEX
8
Halfen
62
7
10
 1334
20
 82.788
30
0
0
VERTEX
8
Halfen
62
7
10
 1334
20
 191
30
0
0
VERTEX
8
Halfen
62
7
10
 1333.778
20
 193.816
30
0
0
VERTEX
8
Halfen
62
7
10
 1333.119
20
 196.562
30
0
0
VERTEX
8
Halfen
62
7
10
 1332.038
20
 199.172
30
0
0
VERTEX
8
Halfen
62
7
10
 1330.562
20
 201.58
30
0
0
VERTEX
8
Halfen
62
7
10
 1328.728
20
 203.728
30
0
0
VERTEX
8
Halfen
62
7
10
 1326.58
20
 205.562
30
0
0
VERTEX
8
Halfen
62
7
10
 1324.172
20
 207.038
30
0
0
VERTEX
8
Halfen
62
7
10
 1321.562
20
 208.119
30
0
0
VERTEX
8
Halfen
62
7
10
 1318.816
20
 208.778
30
0
0
VERTEX
8
Halfen
62
7
10
 1316
20
 209
30
0
0
VERTEX
8
Halfen
62
7
10
 1245
20
 209
30
0
0
VERTEX
8
Halfen
62
7
10
 1245
20
 215
30
0
0
VERTEX
8
Halfen
62
7
10
 1316
20
 215
30
0
0
VERTEX
8
Halfen
62
7
10
 1319.754
20
 214.705
30
0
0
VERTEX
8
Halfen
62
7
10
 1323.416
20
 213.825
30
0
0
VERTEX
8
Halfen
62
7
10
 1326.896
20
 212.384
30
0
0
VERTEX
8
Halfen
62
7
10
 1330.107
20
 210.416
30
0
0
VERTEX
8
Halfen
62
7
10
 1332.971
20
 207.971
30
0
0
VERTEX
8
Halfen
62
7
10
 1335.416
20
 205.107
30
0
0
VERTEX
8
Halfen
62
7
10
 1337.384
20
 201.896
30
0
0
VERTEX
8
Halfen
62
7
10
 1338.825
20
 198.416
30
0
0
VERTEX
8
Halfen
62
7
10
 1339.705
20
 194.754
30
0
0
VERTEX
8
Halfen
62
7
10
 1340
20
 191
30
0
0
VERTEX
8
Halfen
62
7
10
 1340
20
 82.788
30
0
0
VERTEX
8
Halfen
62
7
10
 1339.766
20
 79.448
30
0
0
VERTEX
8
Halfen
62
7
10
 1339.07
20
 76.173
30
0
0
VERTEX
8
Halfen
62
7
10
 1337.925
20
 73.027
30
0
0
VERTEX
8
Halfen
62
7
10
 1336.353
20
 70.07
30
0
0
VERTEX
8
Halfen
62
7
10
 1248.735
20
-70.148
30
0
0
VERTEX
8
Halfen
62
7
10
 1247.556
20
-72.365
30
0
0
VERTEX
8
Halfen
62
7
10
 1246.697
20
-74.725
30
0
0
VERTEX
8
Halfen
62
7
10
 1246.175
20
-77.181
30
0
0
VERTEX
8
Halfen
62
7
10
 1246
20
-79.686
30
0
0
VERTEX
8
Halfen
62
7
10
 1246
20
-456.898
30
0
0
SEQEND
8
Halfen
0
ENDSEC
0
EOF
