  0
SECTION
  2
HEADER
  9
$ACADVER
  1
AC1018
  9
$ACADMAINTVER
 70
    39
  9
$DWGCODEPAGE
  3
ANSI_1252
  9
$LASTSAVEDBY
  1
uhlaender
  9
$INSBASE
 10
1301.750000000002
 20
2157.249999999993
 30
0.0
  9
$EXTMIN
 10
1065.978690920425
 20
1704.66976536892
 30
-0.0000000349181948
  9
$EXTMAX
 10
1642.345932490208
 20
2575.217177693044
 30
0.0000000814935746
  9
$LIMMIN
 10
0.0
 20
0.0
  9
$LIMMAX
 10
841.0
 20
1189.0
  9
$ORTHOMODE
 70
     1
  9
$REGENMODE
 70
     1
  9
$FILLMODE
 70
     1
  9
$QTEXTMODE
 70
     0
  9
$MIRRTEXT
 70
     1
  9
$LTSCALE
 40
5.0
  9
$ATTMODE
 70
     1
  9
$TEXTSIZE
 40
3.5
  9
$TRACEWID
 40
0.05
  9
$TEXTSTYLE
  7
ARIAL50
  9
$CLAYER
  8
HALFEN
  9
$CELTYPE
  6
BYLAYER
  9
$CECOLOR
 62
   256
  9
$CELTSCALE
 40
1.0
  9
$DISPSILH
 70
     0
  9
$DIMSCALE
 40
1.0
  9
$DIMASZ
 40
2.5
  9
$DIMEXO
 40
1.0
  9
$DIMDLI
 40
10.0
  9
$DIMRND
 40
0.0
  9
$DIMDLE
 40
0.0
  9
$DIMEXE
 40
1.0
  9
$DIMTP
 40
0.1
  9
$DIMTM
 40
0.1
  9
$DIMTXT
 40
3.5
  9
$DIMCEN
 40
0.09
  9
$DIMTSZ
 40
0.0
  9
$DIMTOL
 70
     0
  9
$DIMLIM
 70
     0
  9
$DIMTIH
 70
     0
  9
$DIMTOH
 70
     0
  9
$DIMSE1
 70
     0
  9
$DIMSE2
 70
     0
  9
$DIMTAD
 70
     1
  9
$DIMZIN
 70
     8
  9
$DIMBLK
  1

  9
$DIMASO
 70
     1
  9
$DIMSHO
 70
     1
  9
$DIMPOST
  1

  9
$DIMAPOST
  1

  9
$DIMALT
 70
     0
  9
$DIMALTD
 70
     2
  9
$DIMALTF
 40
0.0393701
  9
$DIMLFAC
 40
1.0
  9
$DIMTOFL
 70
     1
  9
$DIMTVP
 40
0.0
  9
$DIMTIX
 70
     0
  9
$DIMSOXD
 70
     0
  9
$DIMSAH
 70
     0
  9
$DIMBLK1
  1

  9
$DIMBLK2
  1

  9
$DIMSTYLE
  2
GEN-ISO
  9
$DIMCLRD
 70
     1
  9
$DIMCLRE
 70
     1
  9
$DIMCLRT
 70
     7
  9
$DIMTFAC
 40
0.71
  9
$DIMGAP
 40
3.0
  9
$DIMJUST
 70
     0
  9
$DIMSD1
 70
     0
  9
$DIMSD2
 70
     0
  9
$DIMTOLJ
 70
     0
  9
$DIMTZIN
 70
     0
  9
$DIMALTZ
 70
     0
  9
$DIMALTTZ
 70
     0
  9
$DIMUPT
 70
     0
  9
$DIMDEC
 70
     1
  9
$DIMTDEC
 70
     3
  9
$DIMALTU
 70
     2
  9
$DIMALTTD
 70
     4
  9
$DIMTXSTY
  7
STANDARD
  9
$DIMAUNIT
 70
     0
  9
$DIMADEC
 70
     0
  9
$DIMALTRND
 40
0.0
  9
$DIMAZIN
 70
     0
  9
$DIMDSEP
 70
    46
  9
$DIMATFIT
 70
     3
  9
$DIMFRAC
 70
     0
  9
$DIMLDRBLK
  1

  9
$DIMLUNIT
 70
     2
  9
$DIMLWD
 70
    -2
  9
$DIMLWE
 70
    -2
  9
$DIMTMOVE
 70
     0
  9
$LUNITS
 70
     2
  9
$LUPREC
 70
     2
  9
$SKETCHINC
 40
0.1
  9
$FILLETRAD
 40
0.0
  9
$AUNITS
 70
     0
  9
$AUPREC
 70
     0
  9
$MENU
  1
.
  9
$ELEVATION
 40
0.0
  9
$PELEVATION
 40
0.0
  9
$THICKNESS
 40
0.0
  9
$LIMCHECK
 70
     0
  9
$CHAMFERA
 40
2.5
  9
$CHAMFERB
 40
2.5
  9
$CHAMFERC
 40
1.0
  9
$CHAMFERD
 40
0.0
  9
$SKPOLY
 70
     0
  9
$TDCREATE
 40
2451438.371298843
  9
$TDUCREATE
 40
2451438.287965509
  9
$TDUPDATE
 40
2453937.348192628
  9
$TDUUPDATE
 40
2453937.264859294
  9
$TDINDWG
 40
1.3614755324
  9
$TDUSRTIMER
 40
1.3614755324
  9
$USRTIMER
 70
     1
  9
$ANGBASE
 50
0.0
  9
$ANGDIR
 70
     0
  9
$PDMODE
 70
     0
  9
$PDSIZE
 40
0.0
  9
$PLINEWID
 40
0.0
  9
$SPLFRAME
 70
     0
  9
$SPLINETYPE
 70
     6
  9
$SPLINESEGS
 70
     8
  9
$HANDSEED
  5
2C8
  9
$SURFTAB1
 70
     6
  9
$SURFTAB2
 70
     6
  9
$SURFTYPE
 70
     6
  9
$SURFU
 70
     6
  9
$SURFV
 70
     6
  9
$UCSBASE
  2

  9
$UCSNAME
  2

  9
$UCSORG
 10
0.0
 20
0.0
 30
0.0
  9
$UCSXDIR
 10
1.0
 20
0.0
 30
0.0
  9
$UCSYDIR
 10
0.0
 20
1.0
 30
0.0
  9
$UCSORTHOREF
  2

  9
$UCSORTHOVIEW
 70
     0
  9
$UCSORGTOP
 10
0.0
 20
0.0
 30
0.0
  9
$UCSORGBOTTOM
 10
0.0
 20
0.0
 30
0.0
  9
$UCSORGLEFT
 10
0.0
 20
0.0
 30
0.0
  9
$UCSORGRIGHT
 10
0.0
 20
0.0
 30
0.0
  9
$UCSORGFRONT
 10
0.0
 20
0.0
 30
0.0
  9
$UCSORGBACK
 10
0.0
 20
0.0
 30
0.0
  9
$PUCSBASE
  2

  9
$PUCSNAME
  2

  9
$PUCSORG
 10
0.0
 20
0.0
 30
0.0
  9
$PUCSXDIR
 10
1.0
 20
0.0
 30
0.0
  9
$PUCSYDIR
 10
0.0
 20
1.0
 30
0.0
  9
$PUCSORTHOREF
  2

  9
$PUCSORTHOVIEW
 70
     0
  9
$PUCSORGTOP
 10
0.0
 20
0.0
 30
0.0
  9
$PUCSORGBOTTOM
 10
0.0
 20
0.0
 30
0.0
  9
$PUCSORGLEFT
 10
0.0
 20
0.0
 30
0.0
  9
$PUCSORGRIGHT
 10
0.0
 20
0.0
 30
0.0
  9
$PUCSORGFRONT
 10
0.0
 20
0.0
 30
0.0
  9
$PUCSORGBACK
 10
0.0
 20
0.0
 30
0.0
  9
$USERI1
 70
     0
  9
$USERI2
 70
     0
  9
$USERI3
 70
     0
  9
$USERI4
 70
     0
  9
$USERI5
 70
     0
  9
$USERR1
 40
0.0
  9
$USERR2
 40
0.0
  9
$USERR3
 40
0.0
  9
$USERR4
 40
0.0
  9
$USERR5
 40
0.0
  9
$WORLDVIEW
 70
     1
  9
$SHADEDGE
 70
     3
  9
$SHADEDIF
 70
    70
  9
$TILEMODE
 70
     1
  9
$MAXACTVP
 70
    48
  9
$PINSBASE
 10
0.0
 20
0.0
 30
0.0
  9
$PLIMCHECK
 70
     0
  9
$PEXTMIN
 10
1.000000000000000E+20
 20
1.000000000000000E+20
 30
1.000000000000000E+20
  9
$PEXTMAX
 10
-1.000000000000000E+20
 20
-1.000000000000000E+20
 30
-1.000000000000000E+20
  9
$PLIMMIN
 10
0.0
 20
0.0
  9
$PLIMMAX
 10
12.0
 20
9.0
  9
$UNITMODE
 70
     0
  9
$VISRETAIN
 70
     1
  9
$PLINEGEN
 70
     0
  9
$PSLTSCALE
 70
     1
  9
$TREEDEPTH
 70
  3020
  9
$CMLSTYLE
  2
STANDARD
  9
$CMLJUST
 70
     0
  9
$CMLSCALE
 40
1.0
  9
$PROXYGRAPHICS
 70
     1
  9
$MEASUREMENT
 70
     1
  9
$CELWEIGHT
370
    -1
  9
$ENDCAPS
280
     0
  9
$JOINSTYLE
280
     0
  9
$LWDISPLAY
290
     0
  9
$INSUNITS
 70
     4
  9
$HYPERLINKBASE
  1

  9
$STYLESHEET
  1

  9
$XEDIT
290
     1
  9
$CEPSNTYPE
380
     0
  9
$PSTYLEMODE
290
     1
  9
$FINGERPRINTGUID
  2
{3280DB1E-C134-4866-8C8C-1739E499E5BD}
  9
$VERSIONGUID
  2
{453F7950-BABB-4778-A4C3-433B3A49DF2A}
  9
$EXTNAMES
290
     1
  9
$PSVPSCALE
 40
0.0
  9
$OLESTARTUP
290
     0
  9
$SORTENTS
280
   127
  9
$INDEXCTL
280
     0
  9
$HIDETEXT
280
     1
  9
$XCLIPFRAME
290
     0
  9
$HALOGAP
280
     0
  9
$OBSCOLOR
 70
   257
  9
$OBSLTYPE
280
     0
  9
$INTERSECTIONDISPLAY
280
     0
  9
$INTERSECTIONCOLOR
 70
   257
  9
$DIMASSOC
280
     1
  9
$PROJECTNAME
  1

  0
ENDSEC
  0
SECTION
  2
CLASSES
  0
CLASS
  1
ACDBDICTIONARYWDFLT
  2
AcDbDictionaryWithDefault
  3
ObjectDBX Classes
 90
        0
 91
        1
280
     0
281
     0
  0
CLASS
  1
TABLESTYLE
  2
AcDbTableStyle
  3
ObjectDBX Classes
 90
     2047
 91
        1
280
     0
281
     0
  0
CLASS
  1
DICTIONARYVAR
  2
AcDbDictionaryVar
  3
ObjectDBX Classes
 90
        0
 91
        4
280
     0
281
     0
  0
ENDSEC
  0
SECTION
  2
TABLES
  0
TABLE
  2
VPORT
  5
19
330
0
100
AcDbSymbolTable
 70
     3
  0
VPORT
  5
2C7
330
19
100
AcDbSymbolTableRecord
100
AcDbViewportTableRecord
  2
*Active
 70
     0
 10
0.0
 20
0.0
 11
1.0
 21
1.0
 12
1354.162311705316
 22
2139.943471530981
 13
0.0
 23
0.0
 14
273.4512969780281
 24
273.4512969780281
 15
10.0
 25
10.0
 16
0.0
 26
0.0
 36
1.0
 17
0.0
 27
0.0
 37
0.0
 40
876.3062706195423
 41
1.656732891832229
 42
50.0
 43
0.0
 44
0.0
 50
0.0
 51
0.0
 71
     0
 72
   100
 73
     1
 74
     1
 75
     0
 76
     1
 77
     0
 78
     1
281
     0
 65
     1
110
0.0
120
0.0
130
0.0
111
1.0
121
0.0
131
0.0
112
0.0
122
1.0
132
0.0
 79
     0
146
0.0
  0
ENDTAB
  0
TABLE
  2
LTYPE
  5
14
330
0
100
AcDbSymbolTable
 70
     3
  0
LTYPE
  5
15
330
14
100
AcDbSymbolTableRecord
100
AcDbLinetypeTableRecord
  2
BYBLOCK
 70
     0
  3

 72
    65
 73
     0
 40
0.0
  0
LTYPE
  5
16
330
14
100
AcDbSymbolTableRecord
100
AcDbLinetypeTableRecord
  2
BYLAYER
 70
     0
  3

 72
    65
 73
     0
 40
0.0
  0
LTYPE
  5
8
330
14
100
AcDbSymbolTableRecord
100
AcDbLinetypeTableRecord
  2
CONTINUOUS
 70
     0
  3
Solid line
 72
    65
 73
     0
 40
0.0
  0
LTYPE
  5
42
330
14
100
AcDbSymbolTableRecord
100
AcDbLinetypeTableRecord
  2
MITTE2
 70
     0
  3
Mitte (.5x) ___ _ ___ _ ___ _ ___ _ ___ _ ___
 72
    65
 73
     4
 40
1.125
 49
0.75
 74
     0
 49
-0.125
 74
     0
 49
0.125
 74
     0
 49
-0.125
 74
     0
  0
LTYPE
  5
63
330
14
100
AcDbSymbolTableRecord
100
AcDbLinetypeTableRecord
  2
VERDECKT
 70
     0
  3
Verdeckt __ __ __ __ __ __ __ __ __ __ __ __ __
 72
    65
 73
     2
 40
0.375
 49
0.25
 74
     0
 49
-0.125
 74
     0
  0
ENDTAB
  0
TABLE
  2
LAYER
  5
10
330
0
100
AcDbSymbolTable
 70
     2
  0
LAYER
  5
4
330
10
100
AcDbSymbolTableRecord
100
AcDbLayerTableRecord
  2
0
 70
     0
 62
     7
  6
CONTINUOUS
370
    -3
390
5
  0
LAYER
  5
25
330
10
100
AcDbSymbolTableRecord
100
AcDbLayerTableRecord
  2
HALFEN
 70
     0
 62
     2
  6
CONTINUOUS
370
    -3
390
5
  0
ENDTAB
  0
TABLE
  2
STYLE
  5
11
330
0
100
AcDbSymbolTable
 70
     2
  0
STYLE
  5
12
330
11
100
AcDbSymbolTableRecord
100
AcDbTextStyleTableRecord
  2
STANDARD
 70
     0
 40
0.0
 41
1.0
 50
0.0
 71
     0
 42
0.2
  3
geniso.shx
  4

  0
STYLE
  5
26
330
11
100
AcDbSymbolTableRecord
100
AcDbTextStyleTableRecord
  2
ARIAL50
 70
     0
 40
5.0
 41
1.0
 50
0.0
 71
     0
 42
3.5
  3
ARIAL.TTF
  4

1001
ACAD
1000
Arial
1071
       34
  0
ENDTAB
  0
TABLE
  2
VIEW
  5
17
330
0
100
AcDbSymbolTable
 70
     0
  0
ENDTAB
  0
TABLE
  2
UCS
  5
18
330
0
100
AcDbSymbolTable
 70
     0
  0
ENDTAB
  0
TABLE
  2
APPID
  5
1B
330
0
100
AcDbSymbolTable
 70
     2
  0
APPID
  5
1C
330
1B
100
AcDbSymbolTableRecord
100
AcDbRegAppTableRecord
  2
ACAD
 70
     0
  0
APPID
  5
2AA
330
1B
100
AcDbSymbolTableRecord
100
AcDbRegAppTableRecord
  2
DCO15
 70
     0
  0
ENDTAB
  0
TABLE
  2
DIMSTYLE
  5
1D
330
0
100
AcDbSymbolTable
 70
     1
100
AcDbDimStyleTable
 71
     0
  0
DIMSTYLE
105
29
330
1D
100
AcDbSymbolTableRecord
100
AcDbDimStyleTableRecord
  2
GEN-ISO
 70
     0
 41
2.5
 42
1.0
 43
10.0
 44
1.0
 47
0.1
 48
0.1
 73
     0
 74
     0
 77
     1
 78
     8
140
3.5
141
0.0
143
0.0393701
146
0.71
147
3.0
172
     1
176
     1
177
     1
178
     7
271
     1
272
     3
274
     4
283
     0
340
12
  0
ENDTAB
  0
TABLE
  2
BLOCK_RECORD
  5
1
330
0
100
AcDbSymbolTable
 70
     0
  0
BLOCK_RECORD
  5
2
330
1
100
AcDbSymbolTableRecord
100
AcDbBlockTableRecord
  2
*MODEL_SPACE
340
A
  0
BLOCK_RECORD
  5
C
330
1
100
AcDbSymbolTableRecord
100
AcDbBlockTableRecord
  2
*PAPER_SPACE
340
F
  0
ENDTAB
  0
ENDSEC
  0
SECTION
  2
BLOCKS
  0
BLOCK
  5
3
330
2
100
AcDbEntity
  8
0
100
AcDbBlockBegin
  2
*MODEL_SPACE
 70
     0
 10
0.0
 20
0.0
 30
0.0
  3
*MODEL_SPACE
  1

  0
ENDBLK
  5
9
330
2
100
AcDbEntity
  8
0
100
AcDbBlockEnd
  0
BLOCK
  5
D
330
C
100
AcDbEntity
 67
     1
  8
0
100
AcDbBlockBegin
  2
*PAPER_SPACE
 70
     0
 10
0.0
 20
0.0
 30
0.0
  3
*PAPER_SPACE
  1

  0
ENDBLK
  5
E
330
C
100
AcDbEntity
 67
     1
  8
0
100
AcDbBlockEnd
  0
ENDSEC
  0
SECTION
  2
ENTITIES
  0
TEXT
  5
2A
330
2
100
AcDbEntity
  8
HALFEN
100
AcDbText
 10
1147.250000000002
 20
2548.749999999993
 30
0.0
 40
5.0
  1
0032.010-00001
  7
ARIAL50
100
AcDbText
  0
TEXT
  5
2B
330
2
100
AcDbEntity
  8
HALFEN
100
AcDbText
 10
1147.250000000002
 20
2558.749999999993
 30
0.0
 40
5.0
  1
HNA - N 95 - fv
  7
ARIAL50
100
AcDbText
  0
LINE
  5
2C
330
2
100
AcDbEntity
  8
HALFEN
100
AcDbLine
 10
1092.250000000002
 20
2546.249999999993
 30
0.0
 11
1242.250000000002
 21
2546.249999999993
 31
0.0
  0
LINE
  5
2D
330
2
100
AcDbEntity
  8
HALFEN
100
AcDbLine
 10
1092.250000000002
 20
2556.249999999993
 30
0.0
 11
1242.250000000002
 21
2556.249999999993
 31
0.0
  0
LINE
  5
2E
330
2
100
AcDbEntity
  8
HALFEN
100
AcDbLine
 10
1092.250000000002
 20
2566.249999999993
 30
0.0
 11
1242.250000000002
 21
2566.249999999993
 31
0.0
  0
TEXT
  5
2F
330
2
100
AcDbEntity
  8
HALFEN
100
AcDbText
 10
1092.250000000002
 20
2568.749999999993
 30
0.0
 40
5.0
  1
fv
  7
ARIAL50
100
AcDbText
  0
LINE
  5
30
330
2
100
AcDbEntity
  8
HALFEN
100
AcDbLine
 10
1092.250000000002
 20
2546.249999999993
 30
0.0
 11
1092.250000000002
 21
2566.249999999993
 31
0.0
  0
TEXT
  5
31
330
2
100
AcDbEntity
  8
HALFEN
100
AcDbText
 10
1097.250000000002
 20
2558.749999999993
 30
0.0
 40
5.0
  1
Benennung
  7
ARIAL50
100
AcDbText
  0
TEXT
  5
32
330
2
100
AcDbEntity
  8
HALFEN
100
AcDbText
 10
1097.250000000002
 20
2548.749999999993
 30
0.0
 40
5.0
  1
Id. Nr.
  7
ARIAL50
100
AcDbText
  0
LINE
  5
33
330
2
100
AcDbEntity
  8
HALFEN
100
AcDbLine
 10
1142.250000000002
 20
2546.249999999993
 30
0.0
 11
1142.250000000002
 21
2566.249999999993
 31
0.0
  0
LINE
  5
34
330
2
100
AcDbEntity
  8
HALFEN
100
AcDbLine
 10
1242.250000000002
 20
2546.249999999993
 30
0.0
 11
1242.250000000002
 21
2566.249999999993
 31
0.0
  0
LINE
  5
35
330
2
100
AcDbEntity
  8
HALFEN
100
AcDbLine
 10
1092.250000000002
 20
2526.249999999993
 30
0.0
 11
1127.250000000002
 21
2526.249999999993
 31
0.0
  0
LINE
  5
36
330
2
100
AcDbEntity
  8
HALFEN
100
AcDbLine
 10
1127.250000000002
 20
2526.249999999993
 30
0.0
 11
1127.250000000002
 21
2432.249999999993
 31
0.0
  0
LINE
  5
37
330
2
100
AcDbEntity
  8
HALFEN
100
AcDbLine
 10
1092.250000000002
 20
2526.249999999993
 30
0.0
 11
1092.250000000002
 21
2432.249999999993
 31
0.0
  0
LINE
  5
38
330
2
100
AcDbEntity
  8
HALFEN
100
AcDbLine
 10
1092.250000000002
 20
2432.249999999993
 30
0.0
 11
1104.750000000002
 21
2431.249999999993
 31
0.0
  0
LINE
  5
39
330
2
100
AcDbEntity
  8
HALFEN
100
AcDbLine
 10
1127.250000000002
 20
2432.249999999993
 30
0.0
 11
1114.750000000002
 21
2431.249999999993
 31
0.0
  0
LINE
  5
3A
330
2
100
AcDbEntity
  8
HALFEN
100
AcDbLine
 10
1114.750000000002
 20
2431.249999999993
 30
0.0
 11
1114.750000000002
 21
2425.249999999993
 31
0.0
  0
LINE
  5
3B
330
2
100
AcDbEntity
  8
HALFEN
100
AcDbLine
 10
1114.750000000002
 20
2425.249999999993
 30
0.0
 11
1120.750000000002
 21
2425.249999999993
 31
0.0
  0
LINE
  5
3C
330
2
100
AcDbEntity
  8
HALFEN
100
AcDbLine
 10
1120.750000000002
 20
2425.249999999993
 30
0.0
 11
1120.750000000002
 21
2417.249999999993
 31
0.0
  0
LINE
  5
3D
330
2
100
AcDbEntity
  8
HALFEN
100
AcDbLine
 10
1120.750000000002
 20
2417.249999999993
 30
0.0
 11
1098.750000000002
 21
2417.249999999993
 31
0.0
  0
LINE
  5
3E
330
2
100
AcDbEntity
  8
HALFEN
100
AcDbLine
 10
1098.750000000002
 20
2417.249999999993
 30
0.0
 11
1098.750000000002
 21
2425.249999999993
 31
0.0
  0
LINE
  5
3F
330
2
100
AcDbEntity
  8
HALFEN
100
AcDbLine
 10
1098.750000000002
 20
2425.249999999993
 30
0.0
 11
1104.750000000002
 21
2425.249999999993
 31
0.0
  0
LINE
  5
40
330
2
100
AcDbEntity
  8
HALFEN
100
AcDbLine
 10
1104.750000000002
 20
2425.249999999993
 30
0.0
 11
1104.750000000002
 21
2431.249999999993
 31
0.0
  0
LINE
  5
41
330
2
100
AcDbEntity
  8
HALFEN
  6
MITTE2
 62
     1
100
AcDbLine
 10
1109.750000000002
 20
2526.249999999993
 30
0.0
 11
1109.750000000002
 21
2417.249999999993
 31
0.0
  0
LINE
  5
43
330
2
100
AcDbEntity
  8
HALFEN
  6
MITTE2
 62
     1
100
AcDbLine
 10
1099.750000000002
 20
2512.249999999993
 30
0.0
 11
1099.750000000002
 21
2505.249999999993
 31
0.0
  0
CIRCLE
  5
44
330
2
100
AcDbEntity
  8
HALFEN
100
AcDbCircle
 10
1099.750000000002
 20
2508.749999999993
 30
0.0
 40
2.5
  0
CIRCLE
  5
45
330
2
100
AcDbEntity
  8
HALFEN
100
AcDbCircle
 10
1119.750000000002
 20
2503.749999999993
 30
0.0
 40
2.5
  0
LINE
  5
46
330
2
100
AcDbEntity
  8
HALFEN
  6
MITTE2
 62
     1
100
AcDbLine
 10
1103.250000000002
 20
2508.749999999992
 30
0.0
 11
1096.250000000002
 21
2508.749999999992
 31
0.0
  0
LINE
  5
47
330
2
100
AcDbEntity
  8
HALFEN
  6
MITTE2
 62
     1
100
AcDbLine
 10
1123.250000000002
 20
2503.749999999993
 30
0.0
 11
1116.250000000002
 21
2503.749999999993
 31
0.0
  0
LINE
  5
48
330
2
100
AcDbEntity
  8
HALFEN
  6
MITTE2
 62
     1
100
AcDbLine
 10
1119.750000000002
 20
2507.249999999994
 30
0.0
 11
1119.750000000002
 21
2500.249999999994
 31
0.0
  0
LINE
  5
49
330
2
100
AcDbEntity
  8
HALFEN
  6
MITTE2
 62
     1
100
AcDbLine
 10
1119.750000000002
 20
2484.749999999993
 30
0.0
 11
1119.750000000002
 21
2477.749999999993
 31
0.0
  0
CIRCLE
  5
4A
330
2
100
AcDbEntity
  8
HALFEN
100
AcDbCircle
 10
1119.750000000002
 20
2481.249999999993
 30
0.0
 40
2.5
  0
LINE
  5
4B
330
2
100
AcDbEntity
  8
HALFEN
  6
MITTE2
 62
     1
100
AcDbLine
 10
1123.250000000002
 20
2481.249999999993
 30
0.0
 11
1116.250000000002
 21
2481.249999999993
 31
0.0
  0
LINE
  5
4C
330
2
100
AcDbEntity
  8
HALFEN
  6
MITTE2
 62
     1
100
AcDbLine
 10
1103.250000000002
 20
2486.249999999992
 30
0.0
 11
1096.250000000002
 21
2486.249999999992
 31
0.0
  0
LINE
  5
4D
330
2
100
AcDbEntity
  8
HALFEN
  6
MITTE2
 62
     1
100
AcDbLine
 10
1099.750000000002
 20
2489.749999999993
 30
0.0
 11
1099.750000000002
 21
2482.749999999993
 31
0.0
  0
CIRCLE
  5
4E
330
2
100
AcDbEntity
  8
HALFEN
100
AcDbCircle
 10
1099.750000000002
 20
2486.249999999993
 30
0.0
 40
2.5
  0
CIRCLE
  5
4F
330
2
100
AcDbEntity
  8
HALFEN
100
AcDbCircle
 10
1099.750000000002
 20
2463.749999999993
 30
0.0
 40
2.5
  0
LINE
  5
50
330
2
100
AcDbEntity
  8
HALFEN
  6
MITTE2
 62
     1
100
AcDbLine
 10
1099.750000000002
 20
2467.249999999993
 30
0.0
 11
1099.750000000002
 21
2460.249999999993
 31
0.0
  0
LINE
  5
51
330
2
100
AcDbEntity
  8
HALFEN
  6
MITTE2
 62
     1
100
AcDbLine
 10
1103.250000000002
 20
2463.749999999993
 30
0.0
 11
1096.250000000002
 21
2463.749999999993
 31
0.0
  0
LINE
  5
52
330
2
100
AcDbEntity
  8
HALFEN
  6
MITTE2
 62
     1
100
AcDbLine
 10
1123.250000000002
 20
2458.749999999993
 30
0.0
 11
1116.250000000002
 21
2458.749999999993
 31
0.0
  0
CIRCLE
  5
53
330
2
100
AcDbEntity
  8
HALFEN
100
AcDbCircle
 10
1119.750000000002
 20
2458.749999999993
 30
0.0
 40
2.5
  0
LINE
  5
54
330
2
100
AcDbEntity
  8
HALFEN
  6
MITTE2
 62
     1
100
AcDbLine
 10
1119.750000000002
 20
2462.249999999993
 30
0.0
 11
1119.750000000002
 21
2455.249999999993
 31
0.0
  0
LINE
  5
55
330
2
100
AcDbEntity
  8
HALFEN
100
AcDbLine
 10
1127.250000000002
 20
2397.249999999993
 30
0.0
 11
1127.250000000002
 21
2392.249999999993
 31
0.0
  0
LINE
  5
56
330
2
100
AcDbEntity
  8
HALFEN
100
AcDbLine
 10
1092.250000000002
 20
2397.249999999993
 30
0.0
 11
1092.250000000002
 21
2392.249999999993
 31
0.0
  0
LINE
  5
57
330
2
100
AcDbEntity
  8
HALFEN
  6
MITTE2
 62
     1
100
AcDbLine
 10
1109.750000000002
 20
2397.249999999993
 30
0.0
 11
1109.750000000002
 21
2392.249999999993
 31
0.0
  0
LINE
  5
58
330
2
100
AcDbEntity
  8
HALFEN
100
AcDbLine
 10
1092.250000000002
 20
2397.249999999993
 30
0.0
 11
1127.250000000002
 21
2397.249999999993
 31
0.0
  0
LINE
  5
59
330
2
100
AcDbEntity
  8
HALFEN
  6
MITTE2
 62
     1
100
AcDbLine
 10
1099.750000000002
 20
2397.749999999993
 30
0.0
 11
1099.750000000002
 21
2391.749999999993
 31
0.0
  0
LINE
  5
5A
330
2
100
AcDbEntity
  8
HALFEN
100
AcDbLine
 10
1147.250000000002
 20
2526.249999999993
 30
0.0
 11
1147.250000000002
 21
2417.249999999993
 31
0.0
  0
LINE
  5
5B
330
2
100
AcDbEntity
  8
HALFEN
100
AcDbLine
 10
1147.250000000002
 20
2526.249999999993
 30
0.0
 11
1151.250000000002
 21
2526.249999999993
 31
0.0
  0
LINE
  5
5C
330
2
100
AcDbEntity
  8
HALFEN
100
AcDbLine
 10
1147.250000000002
 20
2432.249999999994
 30
0.0
 11
1151.250000000002
 21
2432.249999999994
 31
0.0
  0
LINE
  5
5D
330
2
100
AcDbEntity
  8
HALFEN
100
AcDbLine
 10
1147.250000000002
 20
2431.249999999993
 30
0.0
 11
1151.250000000002
 21
2431.249999999993
 31
0.0
  0
LINE
  5
5E
330
2
100
AcDbEntity
  8
HALFEN
100
AcDbLine
 10
1147.250000000002
 20
2425.249999999993
 30
0.0
 11
1151.250000000002
 21
2425.249999999993
 31
0.0
  0
LINE
  5
5F
330
2
100
AcDbEntity
  8
HALFEN
100
AcDbLine
 10
1147.250000000002
 20
2417.249999999993
 30
0.0
 11
1151.250000000002
 21
2417.249999999993
 31
0.0
  0
LINE
  5
60
330
2
100
AcDbEntity
  8
HALFEN
100
AcDbLine
 10
1151.250000000002
 20
2526.249999999993
 30
0.0
 11
1151.250000000002
 21
2417.249999999993
 31
0.0
  0
LINE
  5
61
330
2
100
AcDbEntity
  8
HALFEN
  6
MITTE2
 62
     1
100
AcDbLine
 10
1152.250000000002
 20
2503.749999999993
 30
0.0
 11
1146.250000000001
 21
2503.749999999993
 31
0.0
  0
LINE
  5
62
330
2
100
AcDbEntity
  8
HALFEN
  6
VERDECKT
 62
     1
100
AcDbLine
 10
1151.250000000002
 20
2506.249999999993
 30
0.0
 11
1147.250000000002
 21
2506.249999999993
 31
0.0
  0
LINE
  5
64
330
2
100
AcDbEntity
  8
HALFEN
  6
VERDECKT
 62
     1
100
AcDbLine
 10
1151.250000000002
 20
2501.249999999993
 30
0.0
 11
1147.250000000002
 21
2501.249999999993
 31
0.0
  0
LINE
  5
65
330
2
100
AcDbEntity
  8
HALFEN
  6
MITTE2
 62
     1
100
AcDbLine
 10
1152.250000000002
 20
2481.249999999993
 30
0.0
 11
1146.250000000001
 21
2481.249999999993
 31
0.0
  0
LINE
  5
66
330
2
100
AcDbEntity
  8
HALFEN
  6
VERDECKT
 62
     1
100
AcDbLine
 10
1151.250000000002
 20
2478.749999999994
 30
0.0
 11
1147.250000000002
 21
2478.749999999994
 31
0.0
  0
LINE
  5
67
330
2
100
AcDbEntity
  8
HALFEN
  6
VERDECKT
 62
     1
100
AcDbLine
 10
1151.250000000002
 20
2483.749999999993
 30
0.0
 11
1147.250000000002
 21
2483.749999999993
 31
0.0
  0
LINE
  5
68
330
2
100
AcDbEntity
  8
HALFEN
  6
MITTE2
 62
     1
100
AcDbLine
 10
1152.250000000002
 20
2458.749999999993
 30
0.0
 11
1146.250000000001
 21
2458.749999999993
 31
0.0
  0
LINE
  5
69
330
2
100
AcDbEntity
  8
HALFEN
  6
VERDECKT
 62
     1
100
AcDbLine
 10
1151.250000000002
 20
2456.249999999993
 30
0.0
 11
1147.250000000002
 21
2456.249999999994
 31
0.0
  0
LINE
  5
6A
330
2
100
AcDbEntity
  8
HALFEN
  6
VERDECKT
 62
     1
100
AcDbLine
 10
1151.250000000002
 20
2461.249999999993
 30
0.0
 11
1147.250000000002
 21
2461.249999999993
 31
0.0
  0
LINE
  5
6B
330
2
100
AcDbEntity
  8
HALFEN
  6
MITTE2
 62
     1
100
AcDbLine
 10
1152.250000000002
 20
2508.749999999992
 30
0.0
 11
1146.250000000001
 21
2508.749999999992
 31
0.0
  0
LINE
  5
6C
330
2
100
AcDbEntity
  8
HALFEN
  6
VERDECKT
 62
     1
100
AcDbLine
 10
1151.250000000002
 20
2511.249999999992
 30
0.0
 11
1147.250000000002
 21
2511.249999999992
 31
0.0
  0
LINE
  5
6D
330
2
100
AcDbEntity
  8
HALFEN
  6
VERDECKT
 62
     1
100
AcDbLine
 10
1151.250000000002
 20
2488.749999999992
 30
0.0
 11
1147.250000000002
 21
2488.749999999992
 31
0.0
  0
LINE
  5
6E
330
2
100
AcDbEntity
  8
HALFEN
  6
MITTE2
 62
     1
100
AcDbLine
 10
1152.250000000002
 20
2486.249999999992
 30
0.0
 11
1146.250000000001
 21
2486.249999999992
 31
0.0
  0
LINE
  5
6F
330
2
100
AcDbEntity
  8
HALFEN
  6
MITTE2
 62
     1
100
AcDbLine
 10
1152.250000000002
 20
2463.749999999992
 30
0.0
 11
1146.250000000001
 21
2463.749999999992
 31
0.0
  0
LINE
  5
70
330
2
100
AcDbEntity
  8
HALFEN
  6
VERDECKT
 62
     1
100
AcDbLine
 10
1151.250000000002
 20
2466.249999999992
 30
0.0
 11
1147.250000000002
 21
2466.249999999992
 31
0.0
  0
LINE
  5
71
330
2
100
AcDbEntity
  8
HALFEN
100
AcDbLine
 10
1092.250000000002
 20
2392.249999999993
 30
0.0
 11
1127.250000000002
 21
2392.249999999993
 31
0.0
  0
LINE
  5
72
330
2
100
AcDbEntity
  8
HALFEN
100
AcDbLine
 10
1102.250000000002
 20
2392.249999999993
 30
0.0
 11
1102.250000000002
 21
2397.249999999993
 31
0.0
  0
LINE
  5
73
330
2
100
AcDbEntity
  8
HALFEN
100
AcDbLine
 10
1097.250000000002
 20
2392.249999999993
 30
0.0
 11
1097.250000000002
 21
2397.249999999992
 31
0.0
  0
LINE
  5
74
330
2
100
AcDbEntity
  8
HALFEN
100
AcDbLine
 10
1117.250000000002
 20
2392.249999999993
 30
0.0
 11
1117.250000000001
 21
2397.249999999992
 31
0.0
  0
LINE
  5
75
330
2
100
AcDbEntity
  8
HALFEN
100
AcDbLine
 10
1122.250000000001
 20
2392.249999999993
 30
0.0
 11
1122.250000000001
 21
2397.249999999993
 31
0.0
  0
LINE
  5
76
330
2
100
AcDbEntity
  8
HALFEN
100
AcDbLine
 10
1292.250000000002
 20
2566.249999999993
 30
0.0
 11
1442.250000000002
 21
2566.249999999993
 31
0.0
  0
LINE
  5
77
330
2
100
AcDbEntity
  8
HALFEN
100
AcDbLine
 10
1292.250000000002
 20
2556.249999999993
 30
0.0
 11
1442.250000000002
 21
2556.249999999993
 31
0.0
  0
LINE
  5
78
330
2
100
AcDbEntity
  8
HALFEN
100
AcDbLine
 10
1292.250000000002
 20
2546.249999999993
 30
0.0
 11
1442.250000000002
 21
2546.249999999993
 31
0.0
  0
LINE
  5
79
330
2
100
AcDbEntity
  8
HALFEN
100
AcDbLine
 10
1351.250000000002
 20
2526.249999999993
 30
0.0
 11
1351.250000000002
 21
2392.249999999993
 31
0.0
  0
LINE
  5
7A
330
2
100
AcDbEntity
  8
HALFEN
100
AcDbLine
 10
1347.250000000002
 20
2526.249999999993
 30
0.0
 11
1347.250000000002
 21
2392.249999999993
 31
0.0
  0
LINE
  5
7B
330
2
100
AcDbEntity
  8
HALFEN
  6
MITTE2
 62
     1
100
AcDbLine
 10
1309.750000000002
 20
2526.249999999993
 30
0.0
 11
1309.750000000002
 21
2392.249999999993
 31
0.0
  0
LINE
  5
7C
330
2
100
AcDbEntity
  8
HALFEN
100
AcDbLine
 10
1292.250000000002
 20
2526.249999999993
 30
0.0
 11
1292.250000000002
 21
2407.249999999993
 31
0.0
  0
LINE
  5
7D
330
2
100
AcDbEntity
  8
HALFEN
100
AcDbLine
 10
1327.250000000002
 20
2526.249999999993
 30
0.0
 11
1327.250000000002
 21
2407.249999999993
 31
0.0
  0
LINE
  5
7E
330
2
100
AcDbEntity
  8
HALFEN
100
AcDbLine
 10
1292.250000000002
 20
2367.249999999993
 30
0.0
 11
1327.250000000002
 21
2367.249999999993
 31
0.0
  0
LINE
  5
7F
330
2
100
AcDbEntity
  8
HALFEN
100
AcDbLine
 10
1292.250000000002
 20
2372.249999999993
 30
0.0
 11
1327.250000000002
 21
2372.249999999993
 31
0.0
  0
LINE
  5
80
330
2
100
AcDbEntity
  8
HALFEN
100
AcDbLine
 10
1320.750000000002
 20
2392.249999999993
 30
0.0
 11
1298.750000000002
 21
2392.249999999993
 31
0.0
  0
LINE
  5
81
330
2
100
AcDbEntity
  8
HALFEN
100
AcDbLine
 10
1297.250000000002
 20
2367.249999999993
 30
0.0
 11
1297.250000000002
 21
2372.249999999992
 31
0.0
  0
LINE
  5
82
330
2
100
AcDbEntity
  8
HALFEN
100
AcDbLine
 10
1302.250000000002
 20
2367.249999999993
 30
0.0
 11
1302.250000000002
 21
2372.249999999993
 31
0.0
  0
LINE
  5
83
330
2
100
AcDbEntity
  8
HALFEN
  6
MITTE2
 62
     1
100
AcDbLine
 10
1299.750000000002
 20
2372.749999999993
 30
0.0
 11
1299.750000000002
 21
2366.749999999993
 31
0.0
  0
LINE
  5
84
330
2
100
AcDbEntity
  8
HALFEN
100
AcDbLine
 10
1292.250000000002
 20
2372.249999999993
 30
0.0
 11
1292.250000000002
 21
2367.249999999993
 31
0.0
  0
LINE
  5
85
330
2
100
AcDbEntity
  8
HALFEN
100
AcDbLine
 10
1292.250000000002
 20
2407.249999999993
 30
0.0
 11
1304.750000000002
 21
2406.249999999993
 31
0.0
  0
LINE
  5
86
330
2
100
AcDbEntity
  8
HALFEN
100
AcDbLine
 10
1304.750000000002
 20
2400.249999999993
 30
0.0
 11
1304.750000000002
 21
2406.249999999993
 31
0.0
  0
LINE
  5
87
330
2
100
AcDbEntity
  8
HALFEN
100
AcDbLine
 10
1298.750000000002
 20
2400.249999999993
 30
0.0
 11
1304.750000000002
 21
2400.249999999993
 31
0.0
  0
LINE
  5
88
330
2
100
AcDbEntity
  8
HALFEN
100
AcDbLine
 10
1298.750000000002
 20
2392.249999999993
 30
0.0
 11
1298.750000000002
 21
2400.249999999993
 31
0.0
  0
LINE
  5
89
330
2
100
AcDbEntity
  8
HALFEN
  6
MITTE2
 62
     1
100
AcDbLine
 10
1303.250000000002
 20
2461.249999999993
 30
0.0
 11
1296.250000000002
 21
2461.249999999993
 31
0.0
  0
LINE
  5
8A
330
2
100
AcDbEntity
  8
HALFEN
  6
MITTE2
 62
     1
100
AcDbLine
 10
1299.750000000002
 20
2464.749999999993
 30
0.0
 11
1299.750000000002
 21
2457.749999999993
 31
0.0
  0
CIRCLE
  5
8B
330
2
100
AcDbEntity
  8
HALFEN
100
AcDbCircle
 10
1299.750000000002
 20
2461.249999999993
 30
0.0
 40
2.5
  0
CIRCLE
  5
8C
330
2
100
AcDbEntity
  8
HALFEN
100
AcDbCircle
 10
1299.750000000002
 20
2483.749999999993
 30
0.0
 40
2.5
  0
LINE
  5
8D
330
2
100
AcDbEntity
  8
HALFEN
  6
MITTE2
 62
     1
100
AcDbLine
 10
1299.750000000002
 20
2487.249999999993
 30
0.0
 11
1299.750000000002
 21
2480.249999999993
 31
0.0
  0
LINE
  5
8E
330
2
100
AcDbEntity
  8
HALFEN
  6
MITTE2
 62
     1
100
AcDbLine
 10
1303.250000000002
 20
2483.749999999993
 30
0.0
 11
1296.250000000002
 21
2483.749999999993
 31
0.0
  0
LINE
  5
8F
330
2
100
AcDbEntity
  8
HALFEN
100
AcDbLine
 10
1322.250000000002
 20
2367.249999999993
 30
0.0
 11
1322.250000000002
 21
2372.249999999993
 31
0.0
  0
LINE
  5
90
330
2
100
AcDbEntity
  8
HALFEN
100
AcDbLine
 10
1317.250000000002
 20
2367.249999999993
 30
0.0
 11
1317.250000000001
 21
2372.249999999992
 31
0.0
  0
LINE
  5
91
330
2
100
AcDbEntity
  8
HALFEN
  6
MITTE2
 62
     1
100
AcDbLine
 10
1309.750000000002
 20
2372.249999999993
 30
0.0
 11
1309.750000000002
 21
2367.249999999993
 31
0.0
  0
LINE
  5
92
330
2
100
AcDbEntity
  8
HALFEN
100
AcDbLine
 10
1327.250000000002
 20
2372.249999999993
 30
0.0
 11
1327.250000000002
 21
2367.249999999993
 31
0.0
  0
LINE
  5
93
330
2
100
AcDbEntity
  8
HALFEN
100
AcDbLine
 10
1314.750000000002
 20
2400.249999999993
 30
0.0
 11
1320.750000000002
 21
2400.249999999993
 31
0.0
  0
LINE
  5
94
330
2
100
AcDbEntity
  8
HALFEN
100
AcDbLine
 10
1327.250000000002
 20
2407.249999999993
 30
0.0
 11
1314.750000000002
 21
2406.249999999993
 31
0.0
  0
LINE
  5
95
330
2
100
AcDbEntity
  8
HALFEN
100
AcDbLine
 10
1314.750000000002
 20
2406.249999999993
 30
0.0
 11
1314.750000000002
 21
2400.249999999993
 31
0.0
  0
LINE
  5
96
330
2
100
AcDbEntity
  8
HALFEN
100
AcDbLine
 10
1320.750000000002
 20
2400.249999999993
 30
0.0
 11
1320.750000000002
 21
2392.249999999993
 31
0.0
  0
CIRCLE
  5
97
330
2
100
AcDbEntity
  8
HALFEN
100
AcDbCircle
 10
1319.750000000002
 20
2456.249999999993
 30
0.0
 40
2.5
  0
LINE
  5
98
330
2
100
AcDbEntity
  8
HALFEN
  6
MITTE2
 62
     1
100
AcDbLine
 10
1323.250000000002
 20
2456.249999999993
 30
0.0
 11
1316.250000000002
 21
2456.249999999993
 31
0.0
  0
LINE
  5
99
330
2
100
AcDbEntity
  8
HALFEN
  6
MITTE2
 62
     1
100
AcDbLine
 10
1323.250000000002
 20
2478.749999999993
 30
0.0
 11
1316.250000000002
 21
2478.749999999993
 31
0.0
  0
CIRCLE
  5
9A
330
2
100
AcDbEntity
  8
HALFEN
100
AcDbCircle
 10
1319.750000000002
 20
2478.749999999993
 30
0.0
 40
2.5
  0
LINE
  5
9B
330
2
100
AcDbEntity
  8
HALFEN
  6
MITTE2
 62
     1
100
AcDbLine
 10
1319.750000000002
 20
2459.749999999993
 30
0.0
 11
1319.750000000002
 21
2452.749999999993
 31
0.0
  0
LINE
  5
9C
330
2
100
AcDbEntity
  8
HALFEN
  6
MITTE2
 62
     1
100
AcDbLine
 10
1319.750000000002
 20
2482.249999999993
 30
0.0
 11
1319.750000000002
 21
2475.249999999994
 31
0.0
  0
LINE
  5
9D
330
2
100
AcDbEntity
  8
HALFEN
100
AcDbLine
 10
1347.250000000002
 20
2392.249999999993
 30
0.0
 11
1351.250000000002
 21
2392.249999999993
 31
0.0
  0
LINE
  5
9E
330
2
100
AcDbEntity
  8
HALFEN
100
AcDbLine
 10
1347.250000000002
 20
2400.249999999993
 30
0.0
 11
1351.250000000002
 21
2400.249999999993
 31
0.0
  0
LINE
  5
9F
330
2
100
AcDbEntity
  8
HALFEN
100
AcDbLine
 10
1347.250000000002
 20
2406.249999999993
 30
0.0
 11
1351.250000000002
 21
2406.249999999993
 31
0.0
  0
LINE
  5
A0
330
2
100
AcDbEntity
  8
HALFEN
100
AcDbLine
 10
1347.250000000002
 20
2407.249999999994
 30
0.0
 11
1351.250000000002
 21
2407.249999999994
 31
0.0
  0
LINE
  5
A1
330
2
100
AcDbEntity
  8
HALFEN
  6
VERDECKT
 62
     1
100
AcDbLine
 10
1351.250000000002
 20
2463.749999999992
 30
0.0
 11
1347.250000000002
 21
2463.749999999992
 31
0.0
  0
LINE
  5
A2
330
2
100
AcDbEntity
  8
HALFEN
  6
MITTE2
 62
     1
100
AcDbLine
 10
1352.250000000002
 20
2461.249999999992
 30
0.0
 11
1346.250000000002
 21
2461.249999999992
 31
0.0
  0
LINE
  5
A3
330
2
100
AcDbEntity
  8
HALFEN
  6
MITTE2
 62
     1
100
AcDbLine
 10
1352.250000000002
 20
2483.749999999993
 30
0.0
 11
1346.250000000002
 21
2483.749999999993
 31
0.0
  0
LINE
  5
A4
330
2
100
AcDbEntity
  8
HALFEN
  6
VERDECKT
 62
     1
100
AcDbLine
 10
1351.250000000002
 20
2486.249999999992
 30
0.0
 11
1347.250000000002
 21
2486.249999999992
 31
0.0
  0
LINE
  5
A5
330
2
100
AcDbEntity
  8
HALFEN
  6
VERDECKT
 62
     1
100
AcDbLine
 10
1351.250000000002
 20
2458.749999999993
 30
0.0
 11
1347.250000000002
 21
2458.749999999993
 31
0.0
  0
LINE
  5
A6
330
2
100
AcDbEntity
  8
HALFEN
  6
VERDECKT
 62
     1
100
AcDbLine
 10
1351.250000000002
 20
2453.749999999993
 30
0.0
 11
1347.250000000002
 21
2453.749999999994
 31
0.0
  0
LINE
  5
A7
330
2
100
AcDbEntity
  8
HALFEN
  6
MITTE2
 62
     1
100
AcDbLine
 10
1352.250000000002
 20
2456.249999999993
 30
0.0
 11
1346.250000000002
 21
2456.249999999993
 31
0.0
  0
LINE
  5
A8
330
2
100
AcDbEntity
  8
HALFEN
  6
VERDECKT
 62
     1
100
AcDbLine
 10
1351.250000000002
 20
2481.249999999993
 30
0.0
 11
1347.250000000002
 21
2481.249999999993
 31
0.0
  0
LINE
  5
A9
330
2
100
AcDbEntity
  8
HALFEN
  6
VERDECKT
 62
     1
100
AcDbLine
 10
1351.250000000002
 20
2476.249999999993
 30
0.0
 11
1347.250000000002
 21
2476.249999999994
 31
0.0
  0
LINE
  5
AA
330
2
100
AcDbEntity
  8
HALFEN
  6
MITTE2
 62
     1
100
AcDbLine
 10
1352.250000000002
 20
2478.749999999994
 30
0.0
 11
1346.250000000002
 21
2478.749999999994
 31
0.0
  0
LINE
  5
AB
330
2
100
AcDbEntity
  8
HALFEN
100
AcDbLine
 10
1292.250000000002
 20
2526.249999999993
 30
0.0
 11
1327.250000000002
 21
2526.249999999993
 31
0.0
  0
TEXT
  5
AC
330
2
100
AcDbEntity
  8
HALFEN
100
AcDbText
 10
1297.250000000002
 20
2548.749999999993
 30
0.0
 40
5.0
  1
Id. Nr.
  7
ARIAL50
100
AcDbText
  0
TEXT
  5
AD
330
2
100
AcDbEntity
  8
HALFEN
100
AcDbText
 10
1297.250000000002
 20
2558.749999999993
 30
0.0
 40
5.0
  1
Benennung
  7
ARIAL50
100
AcDbText
  0
LINE
  5
AE
330
2
100
AcDbEntity
  8
HALFEN
  6
MITTE2
 62
     1
100
AcDbLine
 10
1303.250000000002
 20
2506.249999999992
 30
0.0
 11
1296.250000000002
 21
2506.249999999992
 31
0.0
  0
CIRCLE
  5
AF
330
2
100
AcDbEntity
  8
HALFEN
100
AcDbCircle
 10
1299.750000000002
 20
2506.249999999993
 30
0.0
 40
2.5
  0
LINE
  5
B0
330
2
100
AcDbEntity
  8
HALFEN
  6
MITTE2
 62
     1
100
AcDbLine
 10
1299.750000000002
 20
2509.749999999993
 30
0.0
 11
1299.750000000002
 21
2502.749999999993
 31
0.0
  0
TEXT
  5
B1
330
2
100
AcDbEntity
  8
HALFEN
100
AcDbText
 10
1292.250000000002
 20
2568.749999999993
 30
0.0
 40
5.0
  1
fv
  7
ARIAL50
100
AcDbText
  0
LINE
  5
B2
330
2
100
AcDbEntity
  8
HALFEN
100
AcDbLine
 10
1292.250000000002
 20
2546.249999999993
 30
0.0
 11
1292.250000000002
 21
2566.249999999993
 31
0.0
  0
TEXT
  5
B3
330
2
100
AcDbEntity
  8
HALFEN
100
AcDbText
 10
1347.250000000002
 20
2558.749999999993
 30
0.0
 40
5.0
  1
HNA - N 120 - fv
  7
ARIAL50
100
AcDbText
  0
TEXT
  5
B4
330
2
100
AcDbEntity
  8
HALFEN
100
AcDbText
 10
1347.250000000002
 20
2548.749999999993
 30
0.0
 40
5.0
  1
0032.010-00002
  7
ARIAL50
100
AcDbText
  0
LINE
  5
B5
330
2
100
AcDbEntity
  8
HALFEN
  6
MITTE2
 62
     1
100
AcDbLine
 10
1323.250000000002
 20
2501.249999999993
 30
0.0
 11
1316.250000000002
 21
2501.249999999993
 31
0.0
  0
CIRCLE
  5
B6
330
2
100
AcDbEntity
  8
HALFEN
100
AcDbCircle
 10
1319.750000000002
 20
2501.249999999993
 30
0.0
 40
2.5
  0
LINE
  5
B7
330
2
100
AcDbEntity
  8
HALFEN
  6
MITTE2
 62
     1
100
AcDbLine
 10
1319.750000000002
 20
2504.749999999993
 30
0.0
 11
1319.750000000002
 21
2497.749999999993
 31
0.0
  0
LINE
  5
B8
330
2
100
AcDbEntity
  8
HALFEN
  6
VERDECKT
 62
     1
100
AcDbLine
 10
1351.250000000002
 20
2508.749999999992
 30
0.0
 11
1347.250000000002
 21
2508.749999999992
 31
0.0
  0
LINE
  5
B9
330
2
100
AcDbEntity
  8
HALFEN
  6
MITTE2
 62
     1
100
AcDbLine
 10
1352.250000000002
 20
2506.249999999992
 30
0.0
 11
1346.250000000002
 21
2506.249999999992
 31
0.0
  0
LINE
  5
BA
330
2
100
AcDbEntity
  8
HALFEN
  6
VERDECKT
 62
     1
100
AcDbLine
 10
1351.250000000002
 20
2498.749999999993
 30
0.0
 11
1347.250000000002
 21
2498.749999999994
 31
0.0
  0
LINE
  5
BB
330
2
100
AcDbEntity
  8
HALFEN
  6
VERDECKT
 62
     1
100
AcDbLine
 10
1351.250000000002
 20
2503.749999999993
 30
0.0
 11
1347.250000000002
 21
2503.749999999993
 31
0.0
  0
LINE
  5
BC
330
2
100
AcDbEntity
  8
HALFEN
  6
MITTE2
 62
     1
100
AcDbLine
 10
1352.250000000002
 20
2501.249999999993
 30
0.0
 11
1346.250000000002
 21
2501.249999999993
 31
0.0
  0
LINE
  5
BD
330
2
100
AcDbEntity
  8
HALFEN
100
AcDbLine
 10
1347.250000000002
 20
2526.249999999993
 30
0.0
 11
1351.250000000002
 21
2526.249999999993
 31
0.0
  0
LINE
  5
BE
330
2
100
AcDbEntity
  8
HALFEN
100
AcDbLine
 10
1342.250000000002
 20
2546.249999999993
 30
0.0
 11
1342.250000000002
 21
2566.249999999993
 31
0.0
  0
LINE
  5
BF
330
2
100
AcDbEntity
  8
HALFEN
100
AcDbLine
 10
1442.250000000002
 20
2546.249999999993
 30
0.0
 11
1442.250000000002
 21
2566.249999999993
 31
0.0
  0
LINE
  5
C0
330
2
100
AcDbEntity
  8
HALFEN
  6
MITTE2
 62
     1
100
AcDbLine
 10
1303.250000000002
 20
2438.749999999993
 30
0.0
 11
1296.250000000002
 21
2438.749999999993
 31
0.0
  0
CIRCLE
  5
C1
330
2
100
AcDbEntity
  8
HALFEN
100
AcDbCircle
 10
1299.750000000002
 20
2438.749999999993
 30
0.0
 40
2.5
  0
LINE
  5
C2
330
2
100
AcDbEntity
  8
HALFEN
  6
MITTE2
 62
     1
100
AcDbLine
 10
1299.750000000002
 20
2442.249999999993
 30
0.0
 11
1299.750000000002
 21
2435.249999999993
 31
0.0
  0
CIRCLE
  5
C3
330
2
100
AcDbEntity
  8
HALFEN
100
AcDbCircle
 10
1319.750000000002
 20
2433.749999999993
 30
0.0
 40
2.5
  0
LINE
  5
C4
330
2
100
AcDbEntity
  8
HALFEN
  6
MITTE2
 62
     1
100
AcDbLine
 10
1323.250000000002
 20
2433.749999999993
 30
0.0
 11
1316.250000000002
 21
2433.749999999993
 31
0.0
  0
LINE
  5
C5
330
2
100
AcDbEntity
  8
HALFEN
  6
MITTE2
 62
     1
100
AcDbLine
 10
1319.750000000002
 20
2437.249999999993
 30
0.0
 11
1319.750000000002
 21
2430.249999999993
 31
0.0
  0
TEXT
  5
C6
330
2
100
AcDbEntity
  8
HALFEN
100
AcDbText
 10
1120.999641443332
 20
1991.249999999993
 30
0.0
 40
5.0
  1
HNA - WN 120 - fv
  7
ARIAL50
100
AcDbText
  0
LINE
  5
C7
330
2
100
AcDbEntity
  8
HALFEN
100
AcDbLine
 10
1065.999641443331
 20
1978.749999999992
 30
0.0
 11
1215.999641443332
 21
1978.749999999992
 31
0.0
  0
LINE
  5
C8
330
2
100
AcDbEntity
  8
HALFEN
100
AcDbLine
 10
1065.999641443331
 20
1988.749999999993
 30
0.0
 11
1215.999641443332
 21
1988.749999999993
 31
0.0
  0
LINE
  5
C9
330
2
100
AcDbEntity
  8
HALFEN
100
AcDbLine
 10
1065.999641443331
 20
1998.749999999992
 30
0.0
 11
1215.999641443332
 21
1998.749999999992
 31
0.0
  0
LINE
  5
CA
330
2
100
AcDbEntity
  8
HALFEN
100
AcDbLine
 10
1123.999641443331
 20
1958.749999999993
 30
0.0
 11
1123.999641443332
 21
1842.749999999993
 31
0.0
  0
LINE
  5
CB
330
2
100
AcDbEntity
  8
HALFEN
100
AcDbLine
 10
1120.999641443332
 20
1958.749999999993
 30
0.0
 11
1120.999641443332
 21
1842.749999999992
 31
0.0
  0
LINE
  5
CC
330
2
100
AcDbEntity
  8
HALFEN
  6
MITTE2
 62
     1
100
AcDbLine
 10
1083.499641443331
 20
1958.749999999993
 30
0.0
 11
1083.499641443331
 21
1836.749999999992
 31
0.0
  0
LINE
  5
CD
330
2
100
AcDbEntity
  8
HALFEN
100
AcDbLine
 10
1065.999641443331
 20
1958.749999999993
 30
0.0
 11
1065.999641443331
 21
1838.749999999992
 31
0.0
  0
LINE
  5
CE
330
2
100
AcDbEntity
  8
HALFEN
100
AcDbLine
 10
1100.999641443332
 20
1958.749999999993
 30
0.0
 11
1100.999641443332
 21
1838.749999999992
 31
0.0
  0
CIRCLE
  5
CF
330
2
100
AcDbEntity
  8
HALFEN
100
AcDbCircle
 10
1073.499641443331
 20
1866.249999999993
 30
0.0
 40
2.5
  0
LINE
  5
D0
330
2
100
AcDbEntity
  8
HALFEN
  6
MITTE2
 62
     1
100
AcDbLine
 10
1076.999641443332
 20
1866.249999999992
 30
0.0
 11
1069.999641443331
 21
1866.249999999992
 31
0.0
  0
LINE
  5
D1
330
2
100
AcDbEntity
  8
HALFEN
  6
MITTE2
 62
     1
100
AcDbLine
 10
1076.999641443332
 20
1888.749999999992
 30
0.0
 11
1069.999641443331
 21
1888.749999999992
 31
0.0
  0
CIRCLE
  5
D2
330
2
100
AcDbEntity
  8
HALFEN
100
AcDbCircle
 10
1073.499641443331
 20
1888.749999999993
 30
0.0
 40
2.5
  0
CIRCLE
  5
D3
330
2
100
AcDbEntity
  8
HALFEN
100
AcDbCircle
 10
1073.499641443331
 20
1911.249999999992
 30
0.0
 40
2.5
  0
LINE
  5
D4
330
2
100
AcDbEntity
  8
HALFEN
  6
MITTE2
 62
     1
100
AcDbLine
 10
1076.999641443332
 20
1911.249999999992
 30
0.0
 11
1069.999641443331
 21
1911.249999999992
 31
0.0
  0
LINE
  5
D5
330
2
100
AcDbEntity
  8
HALFEN
100
AcDbLine
 10
1065.999641443331
 20
1800.749999999993
 30
0.0
 11
1100.999641443332
 21
1800.749999999993
 31
0.0
  0
LINE
  5
D6
330
2
100
AcDbEntity
  8
HALFEN
100
AcDbLine
 10
1065.999641443331
 20
1804.749999999993
 30
0.0
 11
1100.999641443332
 21
1804.749999999993
 31
0.0
  0
LINE
  5
D7
330
2
100
AcDbEntity
  8
HALFEN
100
AcDbLine
 10
1070.999641443332
 20
1800.749999999992
 30
0.0
 11
1070.999641443332
 21
1804.749999999992
 31
0.0
  0
LINE
  5
D8
330
2
100
AcDbEntity
  8
HALFEN
  6
MITTE2
 62
     1
100
AcDbLine
 10
1073.499641443331
 20
1805.249999999993
 30
0.0
 11
1073.499641443331
 21
1800.249999999993
 31
0.0
  0
LINE
  5
D9
330
2
100
AcDbEntity
  8
HALFEN
100
AcDbLine
 10
1065.999641443331
 20
1804.749999999993
 30
0.0
 11
1065.999641443331
 21
1769.749999999993
 31
0.0
  0
LINE
  5
DA
330
2
100
AcDbEntity
  8
HALFEN
  6
MITTE2
 62
     1
100
AcDbLine
 10
1073.499641443331
 20
1869.749999999992
 30
0.0
 11
1073.499641443331
 21
1862.749999999993
 31
0.0
  0
LINE
  5
DB
330
2
100
AcDbEntity
  8
HALFEN
  6
MITTE2
 62
     1
100
AcDbLine
 10
1073.499641443331
 20
1892.249999999993
 30
0.0
 11
1073.499641443331
 21
1885.249999999993
 31
0.0
  0
LINE
  5
DC
330
2
100
AcDbEntity
  8
HALFEN
  6
MITTE2
 62
     1
100
AcDbLine
 10
1073.499641443331
 20
1914.749999999992
 30
0.0
 11
1073.499641443331
 21
1907.749999999992
 31
0.0
  0
LINE
  5
DD
330
2
100
AcDbEntity
  8
HALFEN
  6
VERDECKT
 62
     1
100
AcDbLine
 10
1123.999641443331
 20
1891.249999999992
 30
0.0
 11
1120.999641443332
 21
1891.249999999992
 31
0.0
  0
LINE
  5
DE
330
2
100
AcDbEntity
  8
HALFEN
  6
MITTE2
 62
     1
100
AcDbLine
 10
1124.999641443332
 20
1888.749999999992
 30
0.0
 11
1119.999641443331
 21
1888.749999999992
 31
0.0
  0
LINE
  5
DF
330
2
100
AcDbEntity
  8
HALFEN
  6
MITTE2
 62
     1
100
AcDbLine
 10
1124.999641443332
 20
1911.249999999992
 30
0.0
 11
1119.999641443331
 21
1911.249999999992
 31
0.0
  0
LINE
  5
E0
330
2
100
AcDbEntity
  8
HALFEN
  6
VERDECKT
 62
     1
100
AcDbLine
 10
1123.999641443331
 20
1913.749999999992
 30
0.0
 11
1120.999641443332
 21
1913.749999999992
 31
0.0
  0
LINE
  5
E1
330
2
100
AcDbEntity
  8
HALFEN
  6
VERDECKT
 62
     1
100
AcDbLine
 10
1123.999641443331
 20
1886.249999999992
 30
0.0
 11
1120.999641443332
 21
1886.249999999992
 31
0.0
  0
LINE
  5
E2
330
2
100
AcDbEntity
  8
HALFEN
  6
VERDECKT
 62
     1
100
AcDbLine
 10
1123.999641443332
 20
1881.249999999993
 30
0.0
 11
1120.999641443332
 21
1881.249999999993
 31
0.0
  0
LINE
  5
E3
330
2
100
AcDbEntity
  8
HALFEN
  6
MITTE2
 62
     1
100
AcDbLine
 10
1124.999641443332
 20
1883.749999999993
 30
0.0
 11
1119.999641443331
 21
1883.749999999993
 31
0.0
  0
LINE
  5
E4
330
2
100
AcDbEntity
  8
HALFEN
  6
VERDECKT
 62
     1
100
AcDbLine
 10
1123.999641443331
 20
1908.749999999993
 30
0.0
 11
1120.999641443332
 21
1908.749999999993
 31
0.0
  0
LINE
  5
E5
330
2
100
AcDbEntity
  8
HALFEN
  6
VERDECKT
 62
     1
100
AcDbLine
 10
1123.999641443332
 20
1903.749999999993
 30
0.0
 11
1120.999641443332
 21
1903.749999999994
 31
0.0
  0
LINE
  5
E6
330
2
100
AcDbEntity
  8
HALFEN
  6
MITTE2
 62
     1
100
AcDbLine
 10
1124.999641443332
 20
1906.249999999993
 30
0.0
 11
1119.999641443331
 21
1906.249999999993
 31
0.0
  0
LINE
  5
E7
330
2
100
AcDbEntity
  8
HALFEN
100
AcDbLine
 10
1075.999641443332
 20
1800.749999999993
 30
0.0
 11
1075.999641443332
 21
1804.749999999993
 31
0.0
  0
LINE
  5
E8
330
2
100
AcDbEntity
  8
HALFEN
  6
MITTE2
 62
     1
100
AcDbLine
 10
1083.499641443331
 20
1804.749999999993
 30
0.0
 11
1083.499641443332
 21
1800.749999999993
 31
0.0
  0
LINE
  5
E9
330
2
100
AcDbEntity
  8
HALFEN
100
AcDbLine
 10
1095.999641443332
 20
1800.749999999992
 30
0.0
 11
1095.999641443332
 21
1804.749999999993
 31
0.0
  0
LINE
  5
EA
330
2
100
AcDbEntity
  8
HALFEN
100
AcDbLine
 10
1090.999641443332
 20
1800.749999999992
 30
0.0
 11
1090.999641443331
 21
1804.749999999992
 31
0.0
  0
LINE
  5
EB
330
2
100
AcDbEntity
  8
HALFEN
100
AcDbLine
 10
1100.999641443332
 20
1804.749999999993
 30
0.0
 11
1100.999641443332
 21
1769.749999999993
 31
0.0
  0
LINE
  5
EC
330
2
100
AcDbEntity
  8
HALFEN
  6
MITTE2
 62
     1
100
AcDbLine
 10
1093.499641443331
 20
1864.749999999993
 30
0.0
 11
1093.499641443331
 21
1857.749999999993
 31
0.0
  0
LINE
  5
ED
330
2
100
AcDbEntity
  8
HALFEN
  6
MITTE2
 62
     1
100
AcDbLine
 10
1096.999641443332
 20
1861.249999999992
 30
0.0
 11
1089.999641443331
 21
1861.249999999992
 31
0.0
  0
CIRCLE
  5
EE
330
2
100
AcDbEntity
  8
HALFEN
100
AcDbCircle
 10
1093.499641443331
 20
1861.249999999992
 30
0.0
 40
2.5
  0
CIRCLE
  5
EF
330
2
100
AcDbEntity
  8
HALFEN
100
AcDbCircle
 10
1093.499641443331
 20
1883.749999999993
 30
0.0
 40
2.5
  0
LINE
  5
F0
330
2
100
AcDbEntity
  8
HALFEN
  6
MITTE2
 62
     1
100
AcDbLine
 10
1096.999641443332
 20
1883.749999999993
 30
0.0
 11
1089.999641443331
 21
1883.749999999993
 31
0.0
  0
LINE
  5
F1
330
2
100
AcDbEntity
  8
HALFEN
  6
MITTE2
 62
     1
100
AcDbLine
 10
1096.999641443332
 20
1906.249999999993
 30
0.0
 11
1089.999641443331
 21
1906.249999999993
 31
0.0
  0
CIRCLE
  5
F2
330
2
100
AcDbEntity
  8
HALFEN
100
AcDbCircle
 10
1093.499641443331
 20
1906.249999999993
 30
0.0
 40
2.5
  0
LINE
  5
F3
330
2
100
AcDbEntity
  8
HALFEN
  6
MITTE2
 62
     1
100
AcDbLine
 10
1093.499641443331
 20
1887.249999999993
 30
0.0
 11
1093.499641443331
 21
1880.249999999993
 31
0.0
  0
LINE
  5
F4
330
2
100
AcDbEntity
  8
HALFEN
  6
MITTE2
 62
     1
100
AcDbLine
 10
1093.499641443331
 20
1909.749999999993
 30
0.0
 11
1093.499641443331
 21
1902.749999999993
 31
0.0
  0
LINE
  5
F5
330
2
100
AcDbEntity
  8
HALFEN
  6
MITTE2
 62
     1
100
AcDbLine
 10
1076.999641443332
 20
1938.749999999992
 30
0.0
 11
1069.999641443331
 21
1938.749999999992
 31
0.0
  0
CIRCLE
  5
F6
330
2
100
AcDbEntity
  8
HALFEN
100
AcDbCircle
 10
1073.499641443331
 20
1938.749999999993
 30
0.0
 40
2.5
  0
TEXT
  5
F7
330
2
100
AcDbEntity
  8
HALFEN
100
AcDbText
 10
1070.999641443332
 20
1991.249999999993
 30
0.0
 40
5.0
  1
Benennung
  7
ARIAL50
100
AcDbText
  0
TEXT
  5
F8
330
2
100
AcDbEntity
  8
HALFEN
100
AcDbText
 10
1070.999641443332
 20
1981.249999999993
 30
0.0
 40
5.0
  1
Id. Nr.
  7
ARIAL50
100
AcDbText
  0
LINE
  5
F9
330
2
100
AcDbEntity
  8
HALFEN
100
AcDbLine
 10
1065.999641443331
 20
1958.749999999993
 30
0.0
 11
1100.999641443332
 21
1958.749999999993
 31
0.0
  0
LINE
  5
FA
330
2
100
AcDbEntity
  8
HALFEN
  6
MITTE2
 62
     1
100
AcDbLine
 10
1073.499641443331
 20
1942.249999999993
 30
0.0
 11
1073.499641443331
 21
1935.249999999992
 31
0.0
  0
LINE
  5
FB
330
2
100
AcDbEntity
  8
HALFEN
100
AcDbLine
 10
1065.999641443331
 20
1978.749999999992
 30
0.0
 11
1065.999641443331
 21
1998.749999999992
 31
0.0
  0
TEXT
  5
FC
330
2
100
AcDbEntity
  8
HALFEN
100
AcDbText
 10
1065.999641443331
 20
2001.249999999993
 30
0.0
 40
5.0
  1
fv
  7
ARIAL50
100
AcDbText
  0
LINE
  5
FD
330
2
100
AcDbEntity
  8
HALFEN
  6
VERDECKT
 62
     1
100
AcDbLine
 10
1123.999641443331
 20
1941.249999999992
 30
0.0
 11
1120.999641443332
 21
1941.249999999992
 31
0.0
  0
LINE
  5
FE
330
2
100
AcDbEntity
  8
HALFEN
  6
MITTE2
 62
     1
100
AcDbLine
 10
1124.999641443332
 20
1938.749999999991
 30
0.0
 11
1119.999641443331
 21
1938.749999999991
 31
0.0
  0
LINE
  5
FF
330
2
100
AcDbEntity
  8
HALFEN
  6
VERDECKT
 62
     1
100
AcDbLine
 10
1123.999641443332
 20
1931.249999999993
 30
0.0
 11
1120.999641443332
 21
1931.249999999993
 31
0.0
  0
LINE
  5
100
330
2
100
AcDbEntity
  8
HALFEN
  6
VERDECKT
 62
     1
100
AcDbLine
 10
1123.999641443331
 20
1936.249999999992
 30
0.0
 11
1120.999641443332
 21
1936.249999999992
 31
0.0
  0
LINE
  5
101
330
2
100
AcDbEntity
  8
HALFEN
  6
MITTE2
 62
     1
100
AcDbLine
 10
1124.999641443332
 20
1933.749999999992
 30
0.0
 11
1119.999641443331
 21
1933.749999999992
 31
0.0
  0
TEXT
  5
102
330
2
100
AcDbEntity
  8
HALFEN
100
AcDbText
 10
1120.999641443332
 20
1981.249999999993
 30
0.0
 40
5.0
  1
0032.030-00001
  7
ARIAL50
100
AcDbText
  0
LINE
  5
103
330
2
100
AcDbEntity
  8
HALFEN
100
AcDbLine
 10
1120.999641443332
 20
1958.749999999993
 30
0.0
 11
1123.999641443331
 21
1958.749999999993
 31
0.0
  0
LINE
  5
104
330
2
100
AcDbEntity
  8
HALFEN
  6
MITTE2
 62
     1
100
AcDbLine
 10
1096.999641443332
 20
1933.749999999992
 30
0.0
 11
1089.999641443331
 21
1933.749999999992
 31
0.0
  0
CIRCLE
  5
105
330
2
100
AcDbEntity
  8
HALFEN
100
AcDbCircle
 10
1093.499641443331
 20
1933.749999999992
 30
0.0
 40
2.5
  0
LINE
  5
106
330
2
100
AcDbEntity
  8
HALFEN
  6
MITTE2
 62
     1
100
AcDbLine
 10
1093.499641443331
 20
1937.249999999993
 30
0.0
 11
1093.499641443331
 21
1930.249999999993
 31
0.0
  0
LINE
  5
107
330
2
100
AcDbEntity
  8
HALFEN
100
AcDbLine
 10
1115.999641443331
 20
1978.749999999992
 30
0.0
 11
1115.999641443331
 21
1998.749999999992
 31
0.0
  0
LINE
  5
108
330
2
100
AcDbEntity
  8
HALFEN
100
AcDbLine
 10
1215.999641443332
 20
1978.749999999992
 30
0.0
 11
1215.999641443332
 21
1998.749999999992
 31
0.0
  0
LINE
  5
109
330
2
100
AcDbEntity
  8
HALFEN
100
AcDbLine
 10
1065.999641443331
 20
1838.749999999992
 30
0.0
 11
1100.999641443332
 21
1838.749999999992
 31
0.0
  0
LINE
  5
10A
330
2
100
AcDbEntity
  8
HALFEN
100
AcDbLine
 10
1124.999641443332
 20
1838.749999999992
 30
0.0
 11
1155.999641443332
 21
1838.749999999993
 31
0.0
  0
LINE
  5
10B
330
2
100
AcDbEntity
  8
HALFEN
100
AcDbLine
 10
1065.999641443331
 20
1841.749999999992
 30
0.0
 11
1100.999641443332
 21
1841.749999999992
 31
0.0
  0
LINE
  5
10C
330
2
100
AcDbEntity
  8
HALFEN
100
AcDbLine
 10
1124.999641443332
 20
1841.749999999993
 30
0.0
 11
1155.999641443332
 21
1841.749999999993
 31
0.0
  0
LINE
  5
10D
330
2
100
AcDbEntity
  8
HALFEN
100
AcDbLine
 10
1155.999641443332
 20
1841.749999999993
 30
0.0
 11
1155.999641443332
 21
1838.749999999993
 31
0.0
  0
LINE
  5
10E
330
2
100
AcDbEntity
  8
HALFEN
100
AcDbLine
 10
1065.999641443331
 20
1769.749999999993
 30
0.0
 11
1100.999641443332
 21
1769.749999999993
 31
0.0
  0
ARC
  5
10F
330
2
100
AcDbEntity
  8
HALFEN
100
AcDbCircle
 10
1124.999641443332
 20
1842.749999999993
 30
0.0
 40
1.0
100
AcDbArc
 50
180.0000000000001
 51
270.0
  0
ARC
  5
110
330
2
100
AcDbEntity
  8
HALFEN
100
AcDbCircle
 10
1124.999641443332
 20
1842.749999999992
 30
0.0
 40
4.0
100
AcDbArc
 50
180.0000000000001
 51
270.0
  0
LINE
  5
111
330
2
100
AcDbEntity
  8
HALFEN
  6
MITTE2
 62
     1
100
AcDbLine
 10
1083.499641443331
 20
1804.749999999993
 30
0.0
 11
1083.499641443331
 21
1769.749999999992
 31
0.0
  0
LINE
  5
112
330
2
100
AcDbEntity
  8
HALFEN
  6
MITTE2
 62
     1
100
AcDbLine
 10
1093.499641443331
 20
1805.249999999993
 30
0.0
 11
1093.499641443331
 21
1800.249999999993
 31
0.0
  0
CIRCLE
  5
113
330
2
100
AcDbEntity
  8
HALFEN
100
AcDbCircle
 10
1083.499641443331
 20
1787.249999999993
 30
0.0
 40
6.5
  0
LINE
  5
114
330
2
100
AcDbEntity
  8
HALFEN
  6
MITTE2
 62
     1
100
AcDbLine
 10
1090.999641443332
 20
1787.249999999993
 30
0.0
 11
1075.999641443331
 21
1787.249999999993
 31
0.0
  0
LINE
  5
115
330
2
100
AcDbEntity
  8
HALFEN
  6
VERDECKT
 62
     1
100
AcDbLine
 10
1351.250000000002
 20
2441.249999999991
 30
0.0
 11
1347.250000000002
 21
2441.249999999991
 31
0.0
  0
LINE
  5
116
330
2
100
AcDbEntity
  8
HALFEN
  6
MITTE2
 62
     1
100
AcDbLine
 10
1352.250000000002
 20
2438.749999999992
 30
0.0
 11
1346.250000000002
 21
2438.749999999992
 31
0.0
  0
LINE
  5
117
330
2
100
AcDbEntity
  8
HALFEN
  6
VERDECKT
 62
     1
100
AcDbLine
 10
1351.250000000002
 20
2436.249999999992
 30
0.0
 11
1347.250000000002
 21
2436.249999999992
 31
0.0
  0
LINE
  5
118
330
2
100
AcDbEntity
  8
HALFEN
  6
VERDECKT
 62
     1
100
AcDbLine
 10
1351.250000000002
 20
2431.249999999992
 30
0.0
 11
1347.250000000002
 21
2431.249999999993
 31
0.0
  0
LINE
  5
119
330
2
100
AcDbEntity
  8
HALFEN
  6
MITTE2
 62
     1
100
AcDbLine
 10
1352.250000000002
 20
2433.749999999993
 30
0.0
 11
1346.250000000002
 21
2433.749999999993
 31
0.0
  0
LINE
  5
11A
330
2
100
AcDbEntity
  8
HALFEN
  6
VERDECKT
 62
     1
100
AcDbLine
 10
1123.999641443331
 20
1868.749999999992
 30
0.0
 11
1120.999641443332
 21
1868.749999999992
 31
0.0
  0
LINE
  5
11B
330
2
100
AcDbEntity
  8
HALFEN
  6
MITTE2
 62
     1
100
AcDbLine
 10
1124.999641443332
 20
1866.249999999992
 30
0.0
 11
1119.999641443331
 21
1866.249999999992
 31
0.0
  0
LINE
  5
11C
330
2
100
AcDbEntity
  8
HALFEN
  6
VERDECKT
 62
     1
100
AcDbLine
 10
1123.999641443331
 20
1863.749999999993
 30
0.0
 11
1120.999641443332
 21
1863.749999999993
 31
0.0
  0
LINE
  5
11D
330
2
100
AcDbEntity
  8
HALFEN
  6
VERDECKT
 62
     1
100
AcDbLine
 10
1123.999641443332
 20
1858.749999999993
 30
0.0
 11
1120.999641443332
 21
1858.749999999994
 31
0.0
  0
LINE
  5
11E
330
2
100
AcDbEntity
  8
HALFEN
  6
MITTE2
 62
     1
100
AcDbLine
 10
1124.999641443332
 20
1861.249999999993
 30
0.0
 11
1119.999641443331
 21
1861.249999999993
 31
0.0
  0
LINE
  5
11F
330
2
100
AcDbEntity
  8
HALFEN
  6
VERDECKT
 62
     1
100
AcDbLine
 10
1089.999641443331
 20
1838.749999999992
 30
0.0
 11
1089.999641443331
 21
1841.749999999992
 31
0.0
  0
LINE
  5
120
330
2
100
AcDbEntity
  8
HALFEN
  6
VERDECKT
 62
     1
100
AcDbLine
 10
1076.999641443332
 20
1838.749999999992
 30
0.0
 11
1076.999641443332
 21
1841.749999999992
 31
0.0
  0
LINE
  5
121
330
2
100
AcDbEntity
  8
HALFEN
  6
VERDECKT
 62
     1
100
AcDbLine
 10
1131.999641443332
 20
1838.749999999992
 30
0.0
 11
1131.999641443332
 21
1841.749999999992
 31
0.0
  0
LINE
  5
122
330
2
100
AcDbEntity
  8
HALFEN
  6
VERDECKT
 62
     1
100
AcDbLine
 10
1144.999641443332
 20
1838.749999999992
 30
0.0
 11
1144.999641443332
 21
1841.749999999992
 31
0.0
  0
LINE
  5
123
330
2
100
AcDbEntity
  8
HALFEN
  6
MITTE2
 62
     1
100
AcDbLine
 10
1138.499641443332
 20
1842.749999999993
 30
0.0
 11
1138.499641443332
 21
1836.749999999992
 31
0.0
  0
LINE
  5
124
330
2
100
AcDbEntity
  8
HALFEN
100
AcDbLine
 10
1292.250000000002
 20
2297.249999999993
 30
0.0
 11
1442.250000000002
 21
2297.249999999993
 31
0.0
  0
LINE
  5
125
330
2
100
AcDbEntity
  8
HALFEN
100
AcDbLine
 10
1292.250000000002
 20
2307.249999999993
 30
0.0
 11
1442.250000000002
 21
2307.249999999993
 31
0.0
  0
LINE
  5
126
330
2
100
AcDbEntity
  8
HALFEN
100
AcDbLine
 10
1292.250000000002
 20
2317.249999999993
 30
0.0
 11
1442.250000000002
 21
2317.249999999993
 31
0.0
  0
LINE
  5
127
330
2
100
AcDbEntity
  8
HALFEN
  6
MITTE2
 62
     1
100
AcDbLine
 10
1309.750000000002
 20
2277.249999999993
 30
0.0
 11
1309.750000000002
 21
2138.749999999993
 31
0.0
  0
LINE
  5
128
330
2
100
AcDbEntity
  8
HALFEN
100
AcDbLine
 10
1292.250000000002
 20
2277.249999999993
 30
0.0
 11
1292.250000000002
 21
2158.249999999993
 31
0.0
  0
LINE
  5
129
330
2
100
AcDbEntity
  8
HALFEN
100
AcDbLine
 10
1327.250000000002
 20
2277.249999999993
 30
0.0
 11
1327.250000000002
 21
2158.249999999993
 31
0.0
  0
LINE
  5
12A
330
2
100
AcDbEntity
  8
HALFEN
100
AcDbLine
 10
1151.250000000002
 20
2277.249999999993
 30
0.0
 11
1151.250000000002
 21
2163.749999999993
 31
0.0
  0
LINE
  5
12B
330
2
100
AcDbEntity
  8
HALFEN
100
AcDbLine
 10
1147.250000000002
 20
2277.249999999993
 30
0.0
 11
1147.250000000002
 21
2163.749999999993
 31
0.0
  0
LINE
  5
12C
330
2
100
AcDbEntity
  8
HALFEN
  6
MITTE2
 62
     1
100
AcDbLine
 10
1109.750000000002
 20
2277.249999999993
 30
0.0
 11
1109.750000000002
 21
2163.749999999993
 31
0.0
  0
LINE
  5
12D
330
2
100
AcDbEntity
  8
HALFEN
100
AcDbLine
 10
1092.250000000002
 20
2277.249999999993
 30
0.0
 11
1092.250000000002
 21
2183.249999999993
 31
0.0
  0
LINE
  5
12E
330
2
100
AcDbEntity
  8
HALFEN
100
AcDbLine
 10
1127.250000000002
 20
2277.249999999993
 30
0.0
 11
1127.250000000002
 21
2183.249999999993
 31
0.0
  0
LINE
  5
12F
330
2
100
AcDbEntity
  8
HALFEN
100
AcDbLine
 10
1122.250000000001
 20
2138.749999999992
 30
0.0
 11
1122.250000000001
 21
2143.749999999993
 31
0.0
  0
LINE
  5
130
330
2
100
AcDbEntity
  8
HALFEN
100
AcDbLine
 10
1117.250000000002
 20
2138.749999999992
 30
0.0
 11
1117.250000000001
 21
2143.749999999992
 31
0.0
  0
LINE
  5
131
330
2
100
AcDbEntity
  8
HALFEN
  6
MITTE2
 62
     1
100
AcDbLine
 10
1109.750000000002
 20
2143.749999999993
 30
0.0
 11
1109.750000000002
 21
2138.749999999993
 31
0.0
  0
LINE
  5
132
330
2
100
AcDbEntity
  8
HALFEN
100
AcDbLine
 10
1127.250000000002
 20
2143.749999999993
 30
0.0
 11
1127.250000000002
 21
2138.749999999993
 31
0.0
  0
LINE
  5
133
330
2
100
AcDbEntity
  8
HALFEN
100
AcDbLine
 10
1097.250000000002
 20
2138.749999999992
 30
0.0
 11
1097.250000000002
 21
2143.749999999992
 31
0.0
  0
LINE
  5
134
330
2
100
AcDbEntity
  8
HALFEN
100
AcDbLine
 10
1102.250000000002
 20
2138.749999999993
 30
0.0
 11
1102.250000000002
 21
2143.749999999993
 31
0.0
  0
LINE
  5
135
330
2
100
AcDbEntity
  8
HALFEN
  6
MITTE2
 62
     1
100
AcDbLine
 10
1099.750000000002
 20
2144.249999999993
 30
0.0
 11
1099.750000000002
 21
2138.249999999993
 31
0.0
  0
LINE
  5
136
330
2
100
AcDbEntity
  8
HALFEN
100
AcDbLine
 10
1092.250000000002
 20
2143.749999999993
 30
0.0
 11
1092.250000000002
 21
2138.749999999993
 31
0.0
  0
LINE
  5
137
330
2
100
AcDbEntity
  8
HALFEN
100
AcDbLine
 10
1092.250000000002
 20
2138.749999999993
 30
0.0
 11
1127.250000000002
 21
2138.749999999993
 31
0.0
  0
LINE
  5
138
330
2
100
AcDbEntity
  8
HALFEN
100
AcDbLine
 10
1092.250000000002
 20
2143.749999999993
 30
0.0
 11
1127.250000000002
 21
2143.749999999993
 31
0.0
  0
LINE
  5
139
330
2
100
AcDbEntity
  8
HALFEN
  6
MITTE2
 62
     1
100
AcDbLine
 10
1103.250000000002
 20
2212.249999999992
 30
0.0
 11
1096.250000000002
 21
2212.249999999992
 31
0.0
  0
LINE
  5
13A
330
2
100
AcDbEntity
  8
HALFEN
  6
MITTE2
 62
     1
100
AcDbLine
 10
1099.750000000002
 20
2215.749999999993
 30
0.0
 11
1099.750000000002
 21
2208.749999999993
 31
0.0
  0
CIRCLE
  5
13B
330
2
100
AcDbEntity
  8
HALFEN
100
AcDbCircle
 10
1099.750000000002
 20
2212.249999999993
 30
0.0
 40
2.5
  0
CIRCLE
  5
13C
330
2
100
AcDbEntity
  8
HALFEN
100
AcDbCircle
 10
1099.750000000002
 20
2234.749999999993
 30
0.0
 40
2.5
  0
LINE
  5
13D
330
2
100
AcDbEntity
  8
HALFEN
  6
MITTE2
 62
     1
100
AcDbLine
 10
1099.750000000002
 20
2238.249999999993
 30
0.0
 11
1099.750000000002
 21
2231.249999999993
 31
0.0
  0
LINE
  5
13E
330
2
100
AcDbEntity
  8
HALFEN
  6
MITTE2
 62
     1
100
AcDbLine
 10
1103.250000000002
 20
2234.749999999992
 30
0.0
 11
1096.250000000002
 21
2234.749999999992
 31
0.0
  0
LINE
  5
13F
330
2
100
AcDbEntity
  8
HALFEN
  6
MITTE2
 62
     1
100
AcDbLine
 10
1119.750000000002
 20
2210.749999999993
 30
0.0
 11
1119.750000000002
 21
2203.749999999994
 31
0.0
  0
LINE
  5
140
330
2
100
AcDbEntity
  8
HALFEN
  6
MITTE2
 62
     1
100
AcDbLine
 10
1119.750000000002
 20
2233.249999999993
 30
0.0
 11
1119.750000000002
 21
2226.249999999993
 31
0.0
  0
CIRCLE
  5
141
330
2
100
AcDbEntity
  8
HALFEN
100
AcDbCircle
 10
1119.750000000002
 20
2207.249999999993
 30
0.0
 40
2.5
  0
LINE
  5
142
330
2
100
AcDbEntity
  8
HALFEN
  6
MITTE2
 62
     1
100
AcDbLine
 10
1123.250000000002
 20
2207.249999999993
 30
0.0
 11
1116.250000000002
 21
2207.249999999993
 31
0.0
  0
LINE
  5
143
330
2
100
AcDbEntity
  8
HALFEN
  6
MITTE2
 62
     1
100
AcDbLine
 10
1123.250000000002
 20
2229.749999999993
 30
0.0
 11
1116.250000000002
 21
2229.749999999993
 31
0.0
  0
CIRCLE
  5
144
330
2
100
AcDbEntity
  8
HALFEN
100
AcDbCircle
 10
1119.750000000002
 20
2229.749999999993
 30
0.0
 40
2.5
  0
LINE
  5
145
330
2
100
AcDbEntity
  8
HALFEN
  6
VERDECKT
 62
     1
100
AcDbLine
 10
1151.250000000002
 20
2214.749999999992
 30
0.0
 11
1147.250000000002
 21
2214.749999999992
 31
0.0
  0
LINE
  5
146
330
2
100
AcDbEntity
  8
HALFEN
  6
MITTE2
 62
     1
100
AcDbLine
 10
1152.250000000002
 20
2212.249999999992
 30
0.0
 11
1146.250000000001
 21
2212.249999999992
 31
0.0
  0
LINE
  5
147
330
2
100
AcDbEntity
  8
HALFEN
  6
MITTE2
 62
     1
100
AcDbLine
 10
1152.250000000002
 20
2234.749999999992
 30
0.0
 11
1146.250000000001
 21
2234.749999999992
 31
0.0
  0
LINE
  5
148
330
2
100
AcDbEntity
  8
HALFEN
  6
VERDECKT
 62
     1
100
AcDbLine
 10
1151.250000000002
 20
2237.249999999992
 30
0.0
 11
1147.250000000002
 21
2237.249999999992
 31
0.0
  0
LINE
  5
149
330
2
100
AcDbEntity
  8
HALFEN
  6
VERDECKT
 62
     1
100
AcDbLine
 10
1151.250000000002
 20
2209.749999999993
 30
0.0
 11
1147.250000000002
 21
2209.749999999993
 31
0.0
  0
LINE
  5
14A
330
2
100
AcDbEntity
  8
HALFEN
  6
VERDECKT
 62
     1
100
AcDbLine
 10
1151.250000000002
 20
2204.749999999993
 30
0.0
 11
1147.250000000002
 21
2204.749999999993
 31
0.0
  0
LINE
  5
14B
330
2
100
AcDbEntity
  8
HALFEN
  6
MITTE2
 62
     1
100
AcDbLine
 10
1152.250000000002
 20
2207.249999999993
 30
0.0
 11
1146.250000000001
 21
2207.249999999993
 31
0.0
  0
LINE
  5
14C
330
2
100
AcDbEntity
  8
HALFEN
  6
VERDECKT
 62
     1
100
AcDbLine
 10
1151.250000000002
 20
2232.249999999993
 30
0.0
 11
1147.250000000002
 21
2232.249999999993
 31
0.0
  0
LINE
  5
14D
330
2
100
AcDbEntity
  8
HALFEN
  6
VERDECKT
 62
     1
100
AcDbLine
 10
1151.250000000002
 20
2227.249999999993
 30
0.0
 11
1147.250000000002
 21
2227.249999999994
 31
0.0
  0
LINE
  5
14E
330
2
100
AcDbEntity
  8
HALFEN
  6
MITTE2
 62
     1
100
AcDbLine
 10
1152.250000000002
 20
2229.749999999993
 30
0.0
 11
1146.250000000001
 21
2229.749999999993
 31
0.0
  0
LINE
  5
14F
330
2
100
AcDbEntity
  8
HALFEN
  6
MITTE2
 62
     1
100
AcDbLine
 10
1303.250000000002
 20
2187.249999999993
 30
0.0
 11
1296.250000000002
 21
2187.249999999993
 31
0.0
  0
LINE
  5
150
330
2
100
AcDbEntity
  8
HALFEN
  6
MITTE2
 62
     1
100
AcDbLine
 10
1303.250000000002
 20
2209.749999999992
 30
0.0
 11
1296.250000000002
 21
2209.749999999992
 31
0.0
  0
LINE
  5
151
330
2
100
AcDbEntity
  8
HALFEN
  6
MITTE2
 62
     1
100
AcDbLine
 10
1303.250000000002
 20
2232.249999999992
 30
0.0
 11
1296.250000000002
 21
2232.249999999992
 31
0.0
  0
LINE
  5
152
330
2
100
AcDbEntity
  8
HALFEN
  6
MITTE2
 62
     1
100
AcDbLine
 10
1299.750000000002
 20
2190.749999999993
 30
0.0
 11
1299.750000000002
 21
2183.749999999993
 31
0.0
  0
CIRCLE
  5
153
330
2
100
AcDbEntity
  8
HALFEN
100
AcDbCircle
 10
1299.750000000002
 20
2187.249999999993
 30
0.0
 40
2.5
  0
LINE
  5
154
330
2
100
AcDbEntity
  8
HALFEN
  6
MITTE2
 62
     1
100
AcDbLine
 10
1299.750000000002
 20
2213.249999999993
 30
0.0
 11
1299.750000000002
 21
2206.249999999993
 31
0.0
  0
LINE
  5
155
330
2
100
AcDbEntity
  8
HALFEN
  6
MITTE2
 62
     1
100
AcDbLine
 10
1299.750000000002
 20
2235.749999999993
 30
0.0
 11
1299.750000000002
 21
2228.749999999993
 31
0.0
  0
CIRCLE
  5
156
330
2
100
AcDbEntity
  8
HALFEN
100
AcDbCircle
 10
1299.750000000002
 20
2209.749999999993
 30
0.0
 40
2.5
  0
CIRCLE
  5
157
330
2
100
AcDbEntity
  8
HALFEN
100
AcDbCircle
 10
1299.750000000002
 20
2232.249999999993
 30
0.0
 40
2.5
  0
LINE
  5
158
330
2
100
AcDbEntity
  8
HALFEN
  6
MITTE2
 62
     1
100
AcDbLine
 10
1323.250000000002
 20
2182.249999999993
 30
0.0
 11
1316.250000000002
 21
2182.249999999993
 31
0.0
  0
CIRCLE
  5
159
330
2
100
AcDbEntity
  8
HALFEN
100
AcDbCircle
 10
1319.750000000002
 20
2182.249999999993
 30
0.0
 40
2.5
  0
LINE
  5
15A
330
2
100
AcDbEntity
  8
HALFEN
  6
MITTE2
 62
     1
100
AcDbLine
 10
1319.750000000002
 20
2185.749999999993
 30
0.0
 11
1319.750000000002
 21
2178.749999999993
 31
0.0
  0
CIRCLE
  5
15B
330
2
100
AcDbEntity
  8
HALFEN
100
AcDbCircle
 10
1319.750000000002
 20
2204.749999999993
 30
0.0
 40
2.5
  0
LINE
  5
15C
330
2
100
AcDbEntity
  8
HALFEN
  6
MITTE2
 62
     1
100
AcDbLine
 10
1323.250000000002
 20
2204.749999999993
 30
0.0
 11
1316.250000000002
 21
2204.749999999993
 31
0.0
  0
LINE
  5
15D
330
2
100
AcDbEntity
  8
HALFEN
  6
MITTE2
 62
     1
100
AcDbLine
 10
1323.250000000002
 20
2227.249999999993
 30
0.0
 11
1316.250000000002
 21
2227.249999999993
 31
0.0
  0
CIRCLE
  5
15E
330
2
100
AcDbEntity
  8
HALFEN
100
AcDbCircle
 10
1319.750000000002
 20
2227.249999999993
 30
0.0
 40
2.5
  0
LINE
  5
15F
330
2
100
AcDbEntity
  8
HALFEN
  6
MITTE2
 62
     1
100
AcDbLine
 10
1319.750000000002
 20
2208.249999999993
 30
0.0
 11
1319.750000000002
 21
2201.249999999993
 31
0.0
  0
LINE
  5
160
330
2
100
AcDbEntity
  8
HALFEN
  6
MITTE2
 62
     1
100
AcDbLine
 10
1319.750000000002
 20
2230.749999999993
 30
0.0
 11
1319.750000000002
 21
2223.749999999993
 31
0.0
  0
LINE
  5
161
330
2
100
AcDbEntity
  8
HALFEN
100
AcDbLine
 10
1092.250000000002
 20
2317.249999999993
 30
0.0
 11
1242.250000000002
 21
2317.249999999993
 31
0.0
  0
LINE
  5
162
330
2
100
AcDbEntity
  8
HALFEN
100
AcDbLine
 10
1092.250000000002
 20
2307.249999999993
 30
0.0
 11
1242.250000000002
 21
2307.249999999993
 31
0.0
  0
LINE
  5
163
330
2
100
AcDbEntity
  8
HALFEN
100
AcDbLine
 10
1092.250000000002
 20
2297.249999999993
 30
0.0
 11
1242.250000000002
 21
2297.249999999993
 31
0.0
  0
LINE
  5
164
330
2
100
AcDbEntity
  8
HALFEN
100
AcDbLine
 10
1092.250000000002
 20
2277.249999999993
 30
0.0
 11
1127.250000000002
 21
2277.249999999993
 31
0.0
  0
TEXT
  5
165
330
2
100
AcDbEntity
  8
HALFEN
100
AcDbText
 10
1097.250000000002
 20
2299.749999999993
 30
0.0
 40
5.0
  1
Id. Nr.
  7
ARIAL50
100
AcDbText
  0
TEXT
  5
166
330
2
100
AcDbEntity
  8
HALFEN
100
AcDbText
 10
1097.250000000002
 20
2309.749999999993
 30
0.0
 40
5.0
  1
Benennung
  7
ARIAL50
100
AcDbText
  0
LINE
  5
167
330
2
100
AcDbEntity
  8
HALFEN
  6
MITTE2
 62
     1
100
AcDbLine
 10
1103.250000000002
 20
2257.249999999992
 30
0.0
 11
1096.250000000002
 21
2257.249999999992
 31
0.0
  0
CIRCLE
  5
168
330
2
100
AcDbEntity
  8
HALFEN
100
AcDbCircle
 10
1099.750000000002
 20
2257.249999999993
 30
0.0
 40
2.5
  0
LINE
  5
169
330
2
100
AcDbEntity
  8
HALFEN
  6
MITTE2
 62
     1
100
AcDbLine
 10
1099.750000000002
 20
2260.749999999993
 30
0.0
 11
1099.750000000002
 21
2253.749999999993
 31
0.0
  0
TEXT
  5
16A
330
2
100
AcDbEntity
  8
HALFEN
100
AcDbText
 10
1092.250000000002
 20
2319.749999999993
 30
0.0
 40
5.0
  1
fv
  7
ARIAL50
100
AcDbText
  0
LINE
  5
16B
330
2
100
AcDbEntity
  8
HALFEN
100
AcDbLine
 10
1092.250000000002
 20
2297.249999999993
 30
0.0
 11
1092.250000000002
 21
2317.249999999993
 31
0.0
  0
LINE
  5
16C
330
2
100
AcDbEntity
  8
HALFEN
  6
MITTE2
 62
     1
100
AcDbLine
 10
1119.750000000002
 20
2255.749999999993
 30
0.0
 11
1119.750000000002
 21
2248.749999999994
 31
0.0
  0
LINE
  5
16D
330
2
100
AcDbEntity
  8
HALFEN
  6
MITTE2
 62
     1
100
AcDbLine
 10
1123.250000000002
 20
2252.249999999992
 30
0.0
 11
1116.250000000002
 21
2252.249999999992
 31
0.0
  0
CIRCLE
  5
16E
330
2
100
AcDbEntity
  8
HALFEN
100
AcDbCircle
 10
1119.750000000002
 20
2252.249999999992
 30
0.0
 40
2.5
  0
TEXT
  5
16F
330
2
100
AcDbEntity
  8
HALFEN
100
AcDbText
 10
1147.250000000002
 20
2309.749999999993
 30
0.0
 40
5.0
  1
HNA - BN 95 - fv
  7
ARIAL50
100
AcDbText
  0
LINE
  5
170
330
2
100
AcDbEntity
  8
HALFEN
  6
VERDECKT
 62
     1
100
AcDbLine
 10
1151.250000000002
 20
2259.749999999992
 30
0.0
 11
1147.250000000002
 21
2259.749999999992
 31
0.0
  0
LINE
  5
171
330
2
100
AcDbEntity
  8
HALFEN
  6
MITTE2
 62
     1
100
AcDbLine
 10
1152.250000000002
 20
2257.249999999992
 30
0.0
 11
1146.250000000001
 21
2257.249999999992
 31
0.0
  0
LINE
  5
172
330
2
100
AcDbEntity
  8
HALFEN
  6
VERDECKT
 62
     1
100
AcDbLine
 10
1151.250000000002
 20
2249.749999999993
 30
0.0
 11
1147.250000000002
 21
2249.749999999993
 31
0.0
  0
LINE
  5
173
330
2
100
AcDbEntity
  8
HALFEN
  6
VERDECKT
 62
     1
100
AcDbLine
 10
1151.250000000002
 20
2254.749999999993
 30
0.0
 11
1147.250000000002
 21
2254.749999999993
 31
0.0
  0
LINE
  5
174
330
2
100
AcDbEntity
  8
HALFEN
  6
MITTE2
 62
     1
100
AcDbLine
 10
1152.250000000002
 20
2252.249999999992
 30
0.0
 11
1146.250000000001
 21
2252.249999999992
 31
0.0
  0
LINE
  5
175
330
2
100
AcDbEntity
  8
HALFEN
100
AcDbLine
 10
1147.250000000002
 20
2277.249999999993
 30
0.0
 11
1151.250000000002
 21
2277.249999999993
 31
0.0
  0
TEXT
  5
176
330
2
100
AcDbEntity
  8
HALFEN
100
AcDbText
 10
1147.250000000002
 20
2299.749999999993
 30
0.0
 40
5.0
  1
0032.020-00001
  7
ARIAL50
100
AcDbText
  0
LINE
  5
177
330
2
100
AcDbEntity
  8
HALFEN
100
AcDbLine
 10
1142.250000000002
 20
2297.249999999993
 30
0.0
 11
1142.250000000002
 21
2317.249999999993
 31
0.0
  0
LINE
  5
178
330
2
100
AcDbEntity
  8
HALFEN
100
AcDbLine
 10
1242.250000000002
 20
2297.249999999993
 30
0.0
 11
1242.250000000002
 21
2317.249999999993
 31
0.0
  0
LINE
  5
179
330
2
100
AcDbEntity
  8
HALFEN
  6
MITTE2
 62
     1
100
AcDbLine
 10
1303.250000000002
 20
2254.749999999992
 30
0.0
 11
1296.250000000002
 21
2254.749999999992
 31
0.0
  0
TEXT
  5
17A
330
2
100
AcDbEntity
  8
HALFEN
100
AcDbText
 10
1297.250000000002
 20
2309.749999999993
 30
0.0
 40
5.0
  1
Benennung
  7
ARIAL50
100
AcDbText
  0
TEXT
  5
17B
330
2
100
AcDbEntity
  8
HALFEN
100
AcDbText
 10
1297.250000000002
 20
2299.749999999993
 30
0.0
 40
5.0
  1
Id. Nr.
  7
ARIAL50
100
AcDbText
  0
LINE
  5
17C
330
2
100
AcDbEntity
  8
HALFEN
100
AcDbLine
 10
1292.250000000002
 20
2277.249999999993
 30
0.0
 11
1327.250000000002
 21
2277.249999999993
 31
0.0
  0
LINE
  5
17D
330
2
100
AcDbEntity
  8
HALFEN
  6
MITTE2
 62
     1
100
AcDbLine
 10
1299.750000000002
 20
2258.249999999993
 30
0.0
 11
1299.750000000002
 21
2251.249999999993
 31
0.0
  0
CIRCLE
  5
17E
330
2
100
AcDbEntity
  8
HALFEN
100
AcDbCircle
 10
1299.750000000002
 20
2254.749999999993
 30
0.0
 40
2.5
  0
LINE
  5
17F
330
2
100
AcDbEntity
  8
HALFEN
100
AcDbLine
 10
1292.250000000002
 20
2297.249999999993
 30
0.0
 11
1292.250000000002
 21
2317.249999999993
 31
0.0
  0
TEXT
  5
180
330
2
100
AcDbEntity
  8
HALFEN
100
AcDbText
 10
1292.250000000002
 20
2319.749999999993
 30
0.0
 40
5.0
  1
fv
  7
ARIAL50
100
AcDbText
  0
LINE
  5
181
330
2
100
AcDbEntity
  8
HALFEN
  6
MITTE2
 62
     1
100
AcDbLine
 10
1323.250000000002
 20
2249.749999999993
 30
0.0
 11
1316.250000000002
 21
2249.749999999993
 31
0.0
  0
CIRCLE
  5
182
330
2
100
AcDbEntity
  8
HALFEN
100
AcDbCircle
 10
1319.750000000002
 20
2249.749999999993
 30
0.0
 40
2.5
  0
LINE
  5
183
330
2
100
AcDbEntity
  8
HALFEN
  6
MITTE2
 62
     1
100
AcDbLine
 10
1319.750000000002
 20
2253.249999999993
 30
0.0
 11
1319.750000000002
 21
2246.249999999993
 31
0.0
  0
LINE
  5
184
330
2
100
AcDbEntity
  8
HALFEN
100
AcDbLine
 10
1351.250000000002
 20
2277.249999999993
 30
0.0
 11
1351.250000000002
 21
2138.749999999993
 31
0.0
  0
LINE
  5
185
330
2
100
AcDbEntity
  8
HALFEN
100
AcDbLine
 10
1347.250000000002
 20
2277.249999999993
 30
0.0
 11
1347.250000000002
 21
2138.749999999993
 31
0.0
  0
LINE
  5
186
330
2
100
AcDbEntity
  8
HALFEN
  6
MITTE2
 62
     1
100
AcDbLine
 10
1352.250000000002
 20
2182.249999999992
 30
0.0
 11
1346.250000000002
 21
2182.249999999992
 31
0.0
  0
LINE
  5
187
330
2
100
AcDbEntity
  8
HALFEN
  6
VERDECKT
 62
     1
100
AcDbLine
 10
1351.250000000002
 20
2179.749999999993
 30
0.0
 11
1347.250000000002
 21
2179.749999999993
 31
0.0
  0
LINE
  5
188
330
2
100
AcDbEntity
  8
HALFEN
  6
VERDECKT
 62
     1
100
AcDbLine
 10
1351.250000000002
 20
2184.749999999992
 30
0.0
 11
1347.250000000002
 21
2184.749999999992
 31
0.0
  0
LINE
  5
189
330
2
100
AcDbEntity
  8
HALFEN
  6
MITTE2
 62
     1
100
AcDbLine
 10
1352.250000000002
 20
2187.249999999991
 30
0.0
 11
1346.250000000002
 21
2187.249999999991
 31
0.0
  0
LINE
  5
18A
330
2
100
AcDbEntity
  8
HALFEN
  6
VERDECKT
 62
     1
100
AcDbLine
 10
1351.250000000002
 20
2189.749999999992
 30
0.0
 11
1347.250000000002
 21
2189.749999999992
 31
0.0
  0
LINE
  5
18B
330
2
100
AcDbEntity
  8
HALFEN
  6
VERDECKT
 62
     1
100
AcDbLine
 10
1351.250000000002
 20
2212.249999999992
 30
0.0
 11
1347.250000000002
 21
2212.249999999992
 31
0.0
  0
LINE
  5
18C
330
2
100
AcDbEntity
  8
HALFEN
  6
MITTE2
 62
     1
100
AcDbLine
 10
1352.250000000002
 20
2209.749999999992
 30
0.0
 11
1346.250000000002
 21
2209.749999999992
 31
0.0
  0
LINE
  5
18D
330
2
100
AcDbEntity
  8
HALFEN
  6
MITTE2
 62
     1
100
AcDbLine
 10
1352.250000000002
 20
2232.249999999992
 30
0.0
 11
1346.250000000002
 21
2232.249999999992
 31
0.0
  0
LINE
  5
18E
330
2
100
AcDbEntity
  8
HALFEN
  6
VERDECKT
 62
     1
100
AcDbLine
 10
1351.250000000002
 20
2234.749999999992
 30
0.0
 11
1347.250000000002
 21
2234.749999999992
 31
0.0
  0
LINE
  5
18F
330
2
100
AcDbEntity
  8
HALFEN
  6
VERDECKT
 62
     1
100
AcDbLine
 10
1351.250000000002
 20
2207.249999999993
 30
0.0
 11
1347.250000000002
 21
2207.249999999993
 31
0.0
  0
LINE
  5
190
330
2
100
AcDbEntity
  8
HALFEN
  6
VERDECKT
 62
     1
100
AcDbLine
 10
1351.250000000002
 20
2202.249999999993
 30
0.0
 11
1347.250000000002
 21
2202.249999999994
 31
0.0
  0
LINE
  5
191
330
2
100
AcDbEntity
  8
HALFEN
  6
MITTE2
 62
     1
100
AcDbLine
 10
1352.250000000002
 20
2204.749999999993
 30
0.0
 11
1346.250000000002
 21
2204.749999999993
 31
0.0
  0
LINE
  5
192
330
2
100
AcDbEntity
  8
HALFEN
  6
VERDECKT
 62
     1
100
AcDbLine
 10
1351.250000000002
 20
2229.749999999993
 30
0.0
 11
1347.250000000002
 21
2229.749999999993
 31
0.0
  0
LINE
  5
193
330
2
100
AcDbEntity
  8
HALFEN
  6
VERDECKT
 62
     1
100
AcDbLine
 10
1351.250000000002
 20
2224.749999999993
 30
0.0
 11
1347.250000000002
 21
2224.749999999994
 31
0.0
  0
LINE
  5
194
330
2
100
AcDbEntity
  8
HALFEN
  6
MITTE2
 62
     1
100
AcDbLine
 10
1352.250000000002
 20
2227.249999999993
 30
0.0
 11
1346.250000000002
 21
2227.249999999993
 31
0.0
  0
TEXT
  5
195
330
2
100
AcDbEntity
  8
HALFEN
100
AcDbText
 10
1347.250000000002
 20
2299.749999999993
 30
0.0
 40
5.0
  1
0032.020-00002
  7
ARIAL50
100
AcDbText
  0
TEXT
  5
196
330
2
100
AcDbEntity
  8
HALFEN
100
AcDbText
 10
1347.250000000002
 20
2309.749999999993
 30
0.0
 40
5.0
  1
HNA - BN 120 - fv
  7
ARIAL50
100
AcDbText
  0
LINE
  5
197
330
2
100
AcDbEntity
  8
HALFEN
  6
VERDECKT
 62
     1
100
AcDbLine
 10
1351.250000000002
 20
2257.249999999992
 30
0.0
 11
1347.250000000002
 21
2257.249999999992
 31
0.0
  0
LINE
  5
198
330
2
100
AcDbEntity
  8
HALFEN
  6
MITTE2
 62
     1
100
AcDbLine
 10
1352.250000000002
 20
2254.749999999992
 30
0.0
 11
1346.250000000002
 21
2254.749999999992
 31
0.0
  0
LINE
  5
199
330
2
100
AcDbEntity
  8
HALFEN
  6
VERDECKT
 62
     1
100
AcDbLine
 10
1351.250000000002
 20
2247.249999999993
 30
0.0
 11
1347.250000000002
 21
2247.249999999993
 31
0.0
  0
LINE
  5
19A
330
2
100
AcDbEntity
  8
HALFEN
  6
VERDECKT
 62
     1
100
AcDbLine
 10
1351.250000000002
 20
2252.249999999992
 30
0.0
 11
1347.250000000002
 21
2252.249999999992
 31
0.0
  0
LINE
  5
19B
330
2
100
AcDbEntity
  8
HALFEN
  6
MITTE2
 62
     1
100
AcDbLine
 10
1352.250000000002
 20
2249.749999999993
 30
0.0
 11
1346.250000000002
 21
2249.749999999993
 31
0.0
  0
LINE
  5
19C
330
2
100
AcDbEntity
  8
HALFEN
100
AcDbLine
 10
1347.250000000002
 20
2277.249999999993
 30
0.0
 11
1351.250000000002
 21
2277.249999999993
 31
0.0
  0
LINE
  5
19D
330
2
100
AcDbEntity
  8
HALFEN
100
AcDbLine
 10
1342.250000000002
 20
2297.249999999993
 30
0.0
 11
1342.250000000002
 21
2317.249999999993
 31
0.0
  0
LINE
  5
19E
330
2
100
AcDbEntity
  8
HALFEN
100
AcDbLine
 10
1442.250000000002
 20
2297.249999999993
 30
0.0
 11
1442.250000000002
 21
2317.249999999993
 31
0.0
  0
LINE
  5
19F
330
2
100
AcDbEntity
  8
HALFEN
100
AcDbLine
 10
1492.250000000002
 20
2317.249999999993
 30
0.0
 11
1642.250000000001
 21
2317.249999999993
 31
0.0
  0
LINE
  5
1A0
330
2
100
AcDbEntity
  8
HALFEN
100
AcDbLine
 10
1492.250000000002
 20
2297.249999999993
 30
0.0
 11
1642.250000000001
 21
2297.249999999993
 31
0.0
  0
LINE
  5
1A1
330
2
100
AcDbEntity
  8
HALFEN
100
AcDbLine
 10
1492.250000000002
 20
2307.249999999993
 30
0.0
 11
1642.250000000001
 21
2307.249999999993
 31
0.0
  0
TEXT
  5
1A2
330
2
100
AcDbEntity
  8
HALFEN
100
AcDbText
 10
1497.250000000002
 20
2309.749999999993
 30
0.0
 40
5.0
  1
Benennung
  7
ARIAL50
100
AcDbText
  0
TEXT
  5
1A3
330
2
100
AcDbEntity
  8
HALFEN
100
AcDbText
 10
1497.250000000002
 20
2299.749999999993
 30
0.0
 40
5.0
  1
Id. Nr.
  7
ARIAL50
100
AcDbText
  0
LINE
  5
1A4
330
2
100
AcDbEntity
  8
HALFEN
100
AcDbLine
 10
1492.250000000002
 20
2297.249999999993
 30
0.0
 11
1492.250000000002
 21
2317.249999999993
 31
0.0
  0
TEXT
  5
1A5
330
2
100
AcDbEntity
  8
HALFEN
100
AcDbText
 10
1492.250000000002
 20
2319.749999999993
 30
0.0
 40
5.0
  1
fv
  7
ARIAL50
100
AcDbText
  0
TEXT
  5
1A6
330
2
100
AcDbEntity
  8
HALFEN
100
AcDbText
 10
1547.250000000001
 20
2309.749999999993
 30
0.0
 40
5.0
  1
HNA - BN 185 - fv
  7
ARIAL50
100
AcDbText
  0
TEXT
  5
1A7
330
2
100
AcDbEntity
  8
HALFEN
100
AcDbText
 10
1547.250000000001
 20
2299.749999999993
 30
0.0
 40
5.0
  1
0032.020-00003
  7
ARIAL50
100
AcDbText
  0
LINE
  5
1A8
330
2
100
AcDbEntity
  8
HALFEN
100
AcDbLine
 10
1542.250000000002
 20
2297.249999999993
 30
0.0
 11
1542.250000000002
 21
2317.249999999993
 31
0.0
  0
LINE
  5
1A9
330
2
100
AcDbEntity
  8
HALFEN
100
AcDbLine
 10
1642.250000000001
 20
2297.249999999993
 30
0.0
 11
1642.250000000001
 21
2317.249999999993
 31
0.0
  0
LINE
  5
1AA
330
2
100
AcDbEntity
  8
HALFEN
100
AcDbLine
 10
1117.750000000002
 20
2173.499999999993
 30
0.0
 11
1124.500000000002
 21
2173.499999999993
 31
0.0
  0
LINE
  5
1AB
330
2
100
AcDbEntity
  8
HALFEN
100
AcDbLine
 10
1095.000000000002
 20
2163.749999999993
 30
0.0
 11
1124.500000000002
 21
2163.749999999993
 31
0.0
  0
LINE
  5
1AC
330
2
100
AcDbEntity
  8
HALFEN
100
AcDbLine
 10
1127.250000000002
 20
2183.249999999993
 30
0.0
 11
1117.750000000002
 21
2182.249999999993
 31
0.0
  0
LINE
  5
1AD
330
2
100
AcDbEntity
  8
HALFEN
100
AcDbLine
 10
1117.750000000002
 20
2182.249999999993
 30
0.0
 11
1117.750000000002
 21
2173.499999999993
 31
0.0
  0
LINE
  5
1AE
330
2
100
AcDbEntity
  8
HALFEN
100
AcDbLine
 10
1124.500000000002
 20
2173.499999999993
 30
0.0
 11
1124.500000000002
 21
2163.749999999993
 31
0.0
  0
LINE
  5
1AF
330
2
100
AcDbEntity
  8
HALFEN
100
AcDbLine
 10
1092.250000000002
 20
2183.249999999993
 30
0.0
 11
1101.750000000002
 21
2182.249999999993
 31
0.0
  0
LINE
  5
1B0
330
2
100
AcDbEntity
  8
HALFEN
100
AcDbLine
 10
1095.000000000002
 20
2173.499999999993
 30
0.0
 11
1095.000000000002
 21
2163.749999999993
 31
0.0
  0
LINE
  5
1B1
330
2
100
AcDbEntity
  8
HALFEN
100
AcDbLine
 10
1101.750000000002
 20
2173.499999999993
 30
0.0
 11
1095.000000000002
 21
2173.499999999993
 31
0.0
  0
LINE
  5
1B2
330
2
100
AcDbEntity
  8
HALFEN
100
AcDbLine
 10
1101.750000000002
 20
2182.249999999993
 30
0.0
 11
1101.750000000002
 21
2173.499999999993
 31
0.0
  0
LINE
  5
1B3
330
2
100
AcDbEntity
  8
HALFEN
100
AcDbLine
 10
1147.250000000002
 20
2183.249999999993
 30
0.0
 11
1151.250000000002
 21
2183.249999999993
 31
0.0
  0
LINE
  5
1B4
330
2
100
AcDbEntity
  8
HALFEN
100
AcDbLine
 10
1147.250000000002
 20
2182.249999999993
 30
0.0
 11
1151.250000000002
 21
2182.249999999993
 31
0.0
  0
LINE
  5
1B5
330
2
100
AcDbEntity
  8
HALFEN
100
AcDbLine
 10
1147.250000000002
 20
2173.499999999993
 30
0.0
 11
1151.250000000002
 21
2173.499999999993
 31
0.0
  0
LINE
  5
1B6
330
2
100
AcDbEntity
  8
HALFEN
100
AcDbLine
 10
1147.250000000002
 20
2163.749999999993
 30
0.0
 11
1151.250000000002
 21
2163.749999999993
 31
0.0
  0
LINE
  5
1B7
330
2
100
AcDbEntity
  8
HALFEN
100
AcDbLine
 10
1292.250000000002
 20
2118.749999999993
 30
0.0
 11
1327.250000000002
 21
2118.749999999993
 31
0.0
  0
LINE
  5
1B8
330
2
100
AcDbEntity
  8
HALFEN
100
AcDbLine
 10
1292.250000000002
 20
2113.749999999993
 30
0.0
 11
1327.250000000002
 21
2113.749999999993
 31
0.0
  0
LINE
  5
1B9
330
2
100
AcDbEntity
  8
HALFEN
100
AcDbLine
 10
1294.500000000002
 20
2138.749999999993
 30
0.0
 11
1325.000000000002
 21
2138.749999999993
 31
0.0
  0
LINE
  5
1BA
330
2
100
AcDbEntity
  8
HALFEN
  6
MITTE2
 62
     1
100
AcDbLine
 10
1299.750000000002
 20
2119.249999999993
 30
0.0
 11
1299.750000000002
 21
2113.249999999993
 31
0.0
  0
LINE
  5
1BB
330
2
100
AcDbEntity
  8
HALFEN
100
AcDbLine
 10
1302.250000000002
 20
2113.749999999993
 30
0.0
 11
1302.250000000002
 21
2118.749999999993
 31
0.0
  0
LINE
  5
1BC
330
2
100
AcDbEntity
  8
HALFEN
100
AcDbLine
 10
1297.250000000002
 20
2113.749999999992
 30
0.0
 11
1297.250000000002
 21
2118.749999999992
 31
0.0
  0
LINE
  5
1BD
330
2
100
AcDbEntity
  8
HALFEN
  6
MITTE2
 62
     1
100
AcDbLine
 10
1309.750000000002
 20
2118.749999999993
 30
0.0
 11
1309.750000000002
 21
2113.749999999993
 31
0.0
  0
LINE
  5
1BE
330
2
100
AcDbEntity
  8
HALFEN
100
AcDbLine
 10
1292.250000000002
 20
2118.749999999993
 30
0.0
 11
1292.250000000002
 21
2113.749999999993
 31
0.0
  0
LINE
  5
1BF
330
2
100
AcDbEntity
  8
HALFEN
100
AcDbLine
 10
1292.250000000002
 20
2158.249999999993
 30
0.0
 11
1301.750000000002
 21
2157.249999999993
 31
0.0
  0
LINE
  5
1C0
330
2
100
AcDbEntity
  8
HALFEN
100
AcDbLine
 10
1294.500000000002
 20
2148.499999999993
 30
0.0
 11
1294.500000000002
 21
2138.749999999993
 31
0.0
  0
LINE
  5
1C1
330
2
100
AcDbEntity
  8
HALFEN
100
AcDbLine
 10
1301.750000000002
 20
2157.249999999993
 30
0.0
 11
1301.750000000002
 21
2148.499999999993
 31
0.0
  0
LINE
  5
1C2
330
2
100
AcDbEntity
  8
HALFEN
100
AcDbLine
 10
1301.750000000002
 20
2148.499999999993
 30
0.0
 11
1294.500000000002
 21
2148.499999999993
 31
0.0
  0
LINE
  5
1C3
330
2
100
AcDbEntity
  8
HALFEN
100
AcDbLine
 10
1327.250000000002
 20
2118.749999999993
 30
0.0
 11
1327.250000000002
 21
2113.749999999993
 31
0.0
  0
LINE
  5
1C4
330
2
100
AcDbEntity
  8
HALFEN
100
AcDbLine
 10
1317.250000000002
 20
2113.749999999992
 30
0.0
 11
1317.250000000001
 21
2118.749999999992
 31
0.0
  0
LINE
  5
1C5
330
2
100
AcDbEntity
  8
HALFEN
100
AcDbLine
 10
1322.250000000002
 20
2113.749999999992
 30
0.0
 11
1322.250000000002
 21
2118.749999999993
 31
0.0
  0
LINE
  5
1C6
330
2
100
AcDbEntity
  8
HALFEN
100
AcDbLine
 10
1327.250000000002
 20
2158.249999999993
 30
0.0
 11
1317.750000000002
 21
2157.249999999993
 31
0.0
  0
LINE
  5
1C7
330
2
100
AcDbEntity
  8
HALFEN
100
AcDbLine
 10
1325.000000000002
 20
2148.499999999993
 30
0.0
 11
1325.000000000002
 21
2138.749999999993
 31
0.0
  0
LINE
  5
1C8
330
2
100
AcDbEntity
  8
HALFEN
100
AcDbLine
 10
1317.750000000002
 20
2148.499999999993
 30
0.0
 11
1325.000000000002
 21
2148.499999999993
 31
0.0
  0
LINE
  5
1C9
330
2
100
AcDbEntity
  8
HALFEN
100
AcDbLine
 10
1317.750000000002
 20
2157.249999999993
 30
0.0
 11
1317.750000000002
 21
2148.499999999993
 31
0.0
  0
LINE
  5
1CA
330
2
100
AcDbEntity
  8
HALFEN
100
AcDbLine
 10
1347.250000000002
 20
2138.749999999993
 30
0.0
 11
1351.250000000002
 21
2138.749999999993
 31
0.0
  0
LINE
  5
1CB
330
2
100
AcDbEntity
  8
HALFEN
100
AcDbLine
 10
1347.250000000002
 20
2148.499999999993
 30
0.0
 11
1351.250000000002
 21
2148.499999999993
 31
0.0
  0
LINE
  5
1CC
330
2
100
AcDbEntity
  8
HALFEN
100
AcDbLine
 10
1347.250000000002
 20
2157.249999999993
 30
0.0
 11
1351.250000000002
 21
2157.249999999993
 31
0.0
  0
LINE
  5
1CD
330
2
100
AcDbEntity
  8
HALFEN
100
AcDbLine
 10
1347.250000000002
 20
2158.249999999993
 30
0.0
 11
1351.250000000002
 21
2158.249999999993
 31
0.0
  0
LINE
  5
1CE
330
2
100
AcDbEntity
  8
HALFEN
  6
MITTE2
 62
     1
100
AcDbLine
 10
1509.750000000002
 20
2277.249999999993
 30
0.0
 11
1509.750000000002
 21
2073.749999999993
 31
0.0
  0
LINE
  5
1CF
330
2
100
AcDbEntity
  8
HALFEN
100
AcDbLine
 10
1492.250000000002
 20
2277.249999999993
 30
0.0
 11
1492.250000000002
 21
2093.249999999993
 31
0.0
  0
LINE
  5
1D0
330
2
100
AcDbEntity
  8
HALFEN
100
AcDbLine
 10
1527.250000000002
 20
2277.249999999993
 30
0.0
 11
1527.250000000002
 21
2093.249999999993
 31
0.0
  0
LINE
  5
1D1
330
2
100
AcDbEntity
  8
HALFEN
100
AcDbLine
 10
1494.500000000002
 20
2073.749999999993
 30
0.0
 11
1525.000000000002
 21
2073.749999999993
 31
0.0
  0
LINE
  5
1D2
330
2
100
AcDbEntity
  8
HALFEN
100
AcDbLine
 10
1492.250000000002
 20
2048.749999999992
 30
0.0
 11
1527.250000000002
 21
2048.749999999992
 31
0.0
  0
LINE
  5
1D3
330
2
100
AcDbEntity
  8
HALFEN
100
AcDbLine
 10
1492.250000000002
 20
2053.749999999993
 30
0.0
 11
1527.250000000002
 21
2053.749999999993
 31
0.0
  0
LINE
  5
1D4
330
2
100
AcDbEntity
  8
HALFEN
100
AcDbLine
 10
1494.500000000002
 20
2083.499999999993
 30
0.0
 11
1494.500000000002
 21
2073.749999999993
 31
0.0
  0
LINE
  5
1D5
330
2
100
AcDbEntity
  8
HALFEN
100
AcDbLine
 10
1492.250000000002
 20
2053.749999999993
 30
0.0
 11
1492.250000000002
 21
2048.749999999992
 31
0.0
  0
LINE
  5
1D6
330
2
100
AcDbEntity
  8
HALFEN
100
AcDbLine
 10
1497.250000000002
 20
2048.749999999992
 30
0.0
 11
1497.250000000002
 21
2053.749999999992
 31
0.0
  0
LINE
  5
1D7
330
2
100
AcDbEntity
  8
HALFEN
100
AcDbLine
 10
1502.250000000002
 20
2048.749999999992
 30
0.0
 11
1502.250000000002
 21
2053.749999999993
 31
0.0
  0
LINE
  5
1D8
330
2
100
AcDbEntity
  8
HALFEN
  6
MITTE2
 62
     1
100
AcDbLine
 10
1499.750000000002
 20
2054.249999999993
 30
0.0
 11
1499.750000000002
 21
2048.249999999993
 31
0.0
  0
LINE
  5
1D9
330
2
100
AcDbEntity
  8
HALFEN
100
AcDbLine
 10
1501.750000000002
 20
2083.499999999993
 30
0.0
 11
1494.500000000002
 21
2083.499999999993
 31
0.0
  0
LINE
  5
1DA
330
2
100
AcDbEntity
  8
HALFEN
100
AcDbLine
 10
1501.750000000002
 20
2092.249999999993
 30
0.0
 11
1501.750000000002
 21
2083.499999999993
 31
0.0
  0
LINE
  5
1DB
330
2
100
AcDbEntity
  8
HALFEN
100
AcDbLine
 10
1492.250000000002
 20
2093.249999999993
 30
0.0
 11
1501.750000000002
 21
2092.249999999993
 31
0.0
  0
LINE
  5
1DC
330
2
100
AcDbEntity
  8
HALFEN
100
AcDbLine
 10
1525.000000000002
 20
2083.499999999993
 30
0.0
 11
1525.000000000002
 21
2073.749999999993
 31
0.0
  0
LINE
  5
1DD
330
2
100
AcDbEntity
  8
HALFEN
100
AcDbLine
 10
1517.250000000002
 20
2048.749999999992
 30
0.0
 11
1517.250000000001
 21
2053.749999999992
 31
0.0
  0
LINE
  5
1DE
330
2
100
AcDbEntity
  8
HALFEN
  6
MITTE2
 62
     1
100
AcDbLine
 10
1509.750000000002
 20
2053.749999999993
 30
0.0
 11
1509.750000000002
 21
2048.749999999992
 31
0.0
  0
LINE
  5
1DF
330
2
100
AcDbEntity
  8
HALFEN
100
AcDbLine
 10
1522.250000000002
 20
2048.749999999992
 30
0.0
 11
1522.250000000002
 21
2053.749999999993
 31
0.0
  0
LINE
  5
1E0
330
2
100
AcDbEntity
  8
HALFEN
100
AcDbLine
 10
1527.250000000002
 20
2053.749999999993
 30
0.0
 11
1527.250000000002
 21
2048.749999999992
 31
0.0
  0
LINE
  5
1E1
330
2
100
AcDbEntity
  8
HALFEN
100
AcDbLine
 10
1517.750000000002
 20
2083.499999999993
 30
0.0
 11
1525.000000000002
 21
2083.499999999993
 31
0.0
  0
LINE
  5
1E2
330
2
100
AcDbEntity
  8
HALFEN
100
AcDbLine
 10
1527.250000000002
 20
2093.249999999993
 30
0.0
 11
1517.750000000002
 21
2092.249999999993
 31
0.0
  0
LINE
  5
1E3
330
2
100
AcDbEntity
  8
HALFEN
100
AcDbLine
 10
1517.750000000002
 20
2092.249999999993
 30
0.0
 11
1517.750000000002
 21
2083.499999999993
 31
0.0
  0
LINE
  5
1E4
330
2
100
AcDbEntity
  8
HALFEN
  6
MITTE2
 62
     1
100
AcDbLine
 10
1516.250000000002
 20
2232.249999999992
 30
0.0
 11
1523.250000000001
 21
2232.249999999992
 31
0.0
  0
LINE
  5
1E5
330
2
100
AcDbEntity
  8
HALFEN
  6
MITTE2
 62
     1
100
AcDbLine
 10
1516.250000000002
 20
2209.749999999992
 30
0.0
 11
1523.250000000001
 21
2209.749999999992
 31
0.0
  0
LINE
  5
1E6
330
2
100
AcDbEntity
  8
HALFEN
  6
MITTE2
 62
     1
100
AcDbLine
 10
1516.250000000002
 20
2254.749999999992
 30
0.0
 11
1523.250000000001
 21
2254.749999999992
 31
0.0
  0
LINE
  5
1E7
330
2
100
AcDbEntity
  8
HALFEN
100
AcDbLine
 10
1492.250000000002
 20
2277.249999999993
 30
0.0
 11
1527.250000000002
 21
2277.249999999993
 31
0.0
  0
CIRCLE
  5
1E8
330
2
100
AcDbEntity
  8
HALFEN
100
AcDbCircle
 10
1519.750000000002
 20
2232.249999999993
 30
0.0
 40
2.5
  0
CIRCLE
  5
1E9
330
2
100
AcDbEntity
  8
HALFEN
100
AcDbCircle
 10
1519.750000000002
 20
2209.749999999993
 30
0.0
 40
2.5
  0
LINE
  5
1EA
330
2
100
AcDbEntity
  8
HALFEN
  6
MITTE2
 62
     1
100
AcDbLine
 10
1519.750000000002
 20
2235.749999999993
 30
0.0
 11
1519.750000000002
 21
2228.749999999993
 31
0.0
  0
LINE
  5
1EB
330
2
100
AcDbEntity
  8
HALFEN
  6
MITTE2
 62
     1
100
AcDbLine
 10
1519.750000000002
 20
2213.249999999993
 30
0.0
 11
1519.750000000002
 21
2206.249999999993
 31
0.0
  0
CIRCLE
  5
1EC
330
2
100
AcDbEntity
  8
HALFEN
100
AcDbCircle
 10
1519.750000000002
 20
2254.749999999993
 30
0.0
 40
2.5
  0
LINE
  5
1ED
330
2
100
AcDbEntity
  8
HALFEN
  6
MITTE2
 62
     1
100
AcDbLine
 10
1519.750000000002
 20
2258.249999999993
 30
0.0
 11
1519.750000000002
 21
2251.249999999993
 31
0.0
  0
CIRCLE
  5
1EE
330
2
100
AcDbEntity
  8
HALFEN
100
AcDbCircle
 10
1499.750000000002
 20
2227.249999999993
 30
0.0
 40
2.5
  0
LINE
  5
1EF
330
2
100
AcDbEntity
  8
HALFEN
  6
MITTE2
 62
     1
100
AcDbLine
 10
1496.250000000002
 20
2227.249999999993
 30
0.0
 11
1503.250000000002
 21
2227.249999999993
 31
0.0
  0
LINE
  5
1F0
330
2
100
AcDbEntity
  8
HALFEN
  6
MITTE2
 62
     1
100
AcDbLine
 10
1496.250000000002
 20
2204.749999999993
 30
0.0
 11
1503.250000000002
 21
2204.749999999993
 31
0.0
  0
CIRCLE
  5
1F1
330
2
100
AcDbEntity
  8
HALFEN
100
AcDbCircle
 10
1499.750000000002
 20
2204.749999999993
 30
0.0
 40
2.5
  0
LINE
  5
1F2
330
2
100
AcDbEntity
  8
HALFEN
  6
MITTE2
 62
     1
100
AcDbLine
 10
1499.750000000002
 20
2230.749999999993
 30
0.0
 11
1499.750000000002
 21
2223.749999999993
 31
0.0
  0
LINE
  5
1F3
330
2
100
AcDbEntity
  8
HALFEN
  6
MITTE2
 62
     1
100
AcDbLine
 10
1499.750000000002
 20
2208.249999999993
 30
0.0
 11
1499.750000000002
 21
2201.249999999993
 31
0.0
  0
CIRCLE
  5
1F4
330
2
100
AcDbEntity
  8
HALFEN
100
AcDbCircle
 10
1499.750000000002
 20
2249.749999999993
 30
0.0
 40
2.5
  0
LINE
  5
1F5
330
2
100
AcDbEntity
  8
HALFEN
  6
MITTE2
 62
     1
100
AcDbLine
 10
1496.250000000002
 20
2249.749999999993
 30
0.0
 11
1503.250000000002
 21
2249.749999999993
 31
0.0
  0
LINE
  5
1F6
330
2
100
AcDbEntity
  8
HALFEN
  6
MITTE2
 62
     1
100
AcDbLine
 10
1499.750000000002
 20
2253.249999999993
 30
0.0
 11
1499.750000000002
 21
2246.249999999993
 31
0.0
  0
LINE
  5
1F7
330
2
100
AcDbEntity
  8
HALFEN
100
AcDbLine
 10
1547.250000000001
 20
2277.249999999993
 30
0.0
 11
1547.250000000002
 21
2073.749999999993
 31
0.0
  0
LINE
  5
1F8
330
2
100
AcDbEntity
  8
HALFEN
100
AcDbLine
 10
1551.250000000002
 20
2277.249999999993
 30
0.0
 11
1551.250000000002
 21
2073.749999999993
 31
0.0
  0
LINE
  5
1F9
330
2
100
AcDbEntity
  8
HALFEN
100
AcDbLine
 10
1547.250000000002
 20
2073.749999999993
 30
0.0
 11
1551.250000000002
 21
2073.749999999993
 31
0.0
  0
LINE
  5
1FA
330
2
100
AcDbEntity
  8
HALFEN
100
AcDbLine
 10
1547.250000000002
 20
2093.249999999993
 30
0.0
 11
1551.250000000002
 21
2093.249999999993
 31
0.0
  0
LINE
  5
1FB
330
2
100
AcDbEntity
  8
HALFEN
100
AcDbLine
 10
1547.250000000002
 20
2092.249999999993
 30
0.0
 11
1551.250000000002
 21
2092.249999999993
 31
0.0
  0
LINE
  5
1FC
330
2
100
AcDbEntity
  8
HALFEN
100
AcDbLine
 10
1547.250000000002
 20
2083.499999999993
 30
0.0
 11
1551.250000000002
 21
2083.499999999993
 31
0.0
  0
LINE
  5
1FD
330
2
100
AcDbEntity
  8
HALFEN
  6
MITTE2
 62
     1
100
AcDbLine
 10
1552.250000000002
 20
2227.249999999993
 30
0.0
 11
1546.250000000002
 21
2227.249999999993
 31
0.0
  0
LINE
  5
1FE
330
2
100
AcDbEntity
  8
HALFEN
  6
VERDECKT
 62
     1
100
AcDbLine
 10
1551.250000000002
 20
2224.749999999993
 30
0.0
 11
1547.250000000002
 21
2224.749999999994
 31
0.0
  0
LINE
  5
1FF
330
2
100
AcDbEntity
  8
HALFEN
  6
VERDECKT
 62
     1
100
AcDbLine
 10
1551.250000000002
 20
2229.749999999993
 30
0.0
 11
1547.250000000001
 21
2229.749999999993
 31
0.0
  0
LINE
  5
200
330
2
100
AcDbEntity
  8
HALFEN
  6
MITTE2
 62
     1
100
AcDbLine
 10
1552.250000000002
 20
2204.749999999993
 30
0.0
 11
1546.250000000002
 21
2204.749999999993
 31
0.0
  0
LINE
  5
201
330
2
100
AcDbEntity
  8
HALFEN
  6
VERDECKT
 62
     1
100
AcDbLine
 10
1551.250000000002
 20
2202.249999999993
 30
0.0
 11
1547.250000000002
 21
2202.249999999994
 31
0.0
  0
LINE
  5
202
330
2
100
AcDbEntity
  8
HALFEN
  6
VERDECKT
 62
     1
100
AcDbLine
 10
1551.250000000002
 20
2207.249999999993
 30
0.0
 11
1547.250000000001
 21
2207.249999999993
 31
0.0
  0
LINE
  5
203
330
2
100
AcDbEntity
  8
HALFEN
  6
VERDECKT
 62
     1
100
AcDbLine
 10
1551.250000000002
 20
2234.749999999992
 30
0.0
 11
1547.250000000001
 21
2234.749999999992
 31
0.0
  0
LINE
  5
204
330
2
100
AcDbEntity
  8
HALFEN
  6
MITTE2
 62
     1
100
AcDbLine
 10
1552.250000000002
 20
2232.249999999992
 30
0.0
 11
1546.250000000002
 21
2232.249999999992
 31
0.0
  0
LINE
  5
205
330
2
100
AcDbEntity
  8
HALFEN
  6
MITTE2
 62
     1
100
AcDbLine
 10
1552.250000000002
 20
2209.749999999992
 30
0.0
 11
1546.250000000002
 21
2209.749999999992
 31
0.0
  0
LINE
  5
206
330
2
100
AcDbEntity
  8
HALFEN
  6
VERDECKT
 62
     1
100
AcDbLine
 10
1551.250000000002
 20
2212.249999999992
 30
0.0
 11
1547.250000000001
 21
2212.249999999992
 31
0.0
  0
LINE
  5
207
330
2
100
AcDbEntity
  8
HALFEN
  6
MITTE2
 62
     1
100
AcDbLine
 10
1552.250000000002
 20
2249.749999999993
 30
0.0
 11
1546.250000000002
 21
2249.749999999993
 31
0.0
  0
LINE
  5
208
330
2
100
AcDbEntity
  8
HALFEN
  6
VERDECKT
 62
     1
100
AcDbLine
 10
1551.250000000002
 20
2252.249999999992
 30
0.0
 11
1547.250000000001
 21
2252.249999999992
 31
0.0
  0
LINE
  5
209
330
2
100
AcDbEntity
  8
HALFEN
  6
VERDECKT
 62
     1
100
AcDbLine
 10
1551.250000000002
 20
2247.249999999993
 30
0.0
 11
1547.250000000002
 21
2247.249999999993
 31
0.0
  0
LINE
  5
20A
330
2
100
AcDbEntity
  8
HALFEN
  6
MITTE2
 62
     1
100
AcDbLine
 10
1552.250000000002
 20
2254.749999999992
 30
0.0
 11
1546.250000000002
 21
2254.749999999992
 31
0.0
  0
LINE
  5
20B
330
2
100
AcDbEntity
  8
HALFEN
  6
VERDECKT
 62
     1
100
AcDbLine
 10
1551.250000000002
 20
2257.249999999992
 30
0.0
 11
1547.250000000001
 21
2257.249999999992
 31
0.0
  0
LINE
  5
20C
330
2
100
AcDbEntity
  8
HALFEN
100
AcDbLine
 10
1547.250000000001
 20
2277.249999999993
 30
0.0
 11
1551.250000000002
 21
2277.249999999993
 31
0.0
  0
CIRCLE
  5
20D
330
2
100
AcDbEntity
  8
HALFEN
100
AcDbCircle
 10
1509.750000000002
 20
2184.749999999993
 30
0.0
 40
8.5
  0
LINE
  5
20E
330
2
100
AcDbEntity
  8
HALFEN
  6
MITTE2
 62
     1
100
AcDbLine
 10
1500.250000000002
 20
2184.749999999992
 30
0.0
 11
1519.250000000002
 21
2184.749999999992
 31
0.0
  0
LINE
  5
20F
330
2
100
AcDbEntity
  8
HALFEN
  6
VERDECKT
 62
     1
100
AcDbLine
 10
1551.250000000002
 20
2193.249999999993
 30
0.0
 11
1547.250000000001
 21
2193.249999999993
 31
0.0
  0
LINE
  5
210
330
2
100
AcDbEntity
  8
HALFEN
  6
MITTE2
 62
     1
100
AcDbLine
 10
1552.250000000002
 20
2184.749999999992
 30
0.0
 11
1546.250000000002
 21
2184.749999999992
 31
0.0
  0
LINE
  5
211
330
2
100
AcDbEntity
  8
HALFEN
  6
VERDECKT
 62
     1
100
AcDbLine
 10
1551.250000000002
 20
2176.249999999993
 30
0.0
 11
1547.250000000001
 21
2176.249999999993
 31
0.0
  0
LINE
  5
212
330
2
100
AcDbEntity
  8
HALFEN
  6
MITTE2
 62
     1
100
AcDbLine
 10
1496.250000000002
 20
2159.749999999993
 30
0.0
 11
1503.250000000002
 21
2159.749999999993
 31
0.0
  0
CIRCLE
  5
213
330
2
100
AcDbEntity
  8
HALFEN
100
AcDbCircle
 10
1499.750000000002
 20
2159.749999999993
 30
0.0
 40
2.5
  0
LINE
  5
214
330
2
100
AcDbEntity
  8
HALFEN
  6
MITTE2
 62
     1
100
AcDbLine
 10
1499.750000000002
 20
2163.249999999993
 30
0.0
 11
1499.750000000002
 21
2156.249999999993
 31
0.0
  0
LINE
  5
215
330
2
100
AcDbEntity
  8
HALFEN
  6
MITTE2
 62
     1
100
AcDbLine
 10
1516.250000000002
 20
2164.749999999992
 30
0.0
 11
1523.250000000001
 21
2164.749999999992
 31
0.0
  0
CIRCLE
  5
216
330
2
100
AcDbEntity
  8
HALFEN
100
AcDbCircle
 10
1519.750000000002
 20
2164.749999999993
 30
0.0
 40
2.5
  0
LINE
  5
217
330
2
100
AcDbEntity
  8
HALFEN
  6
MITTE2
 62
     1
100
AcDbLine
 10
1519.750000000002
 20
2168.249999999993
 30
0.0
 11
1519.750000000002
 21
2161.249999999993
 31
0.0
  0
LINE
  5
218
330
2
100
AcDbEntity
  8
HALFEN
  6
MITTE2
 62
     1
100
AcDbLine
 10
1499.750000000002
 20
2140.749999999993
 30
0.0
 11
1499.750000000002
 21
2133.749999999993
 31
0.0
  0
CIRCLE
  5
219
330
2
100
AcDbEntity
  8
HALFEN
100
AcDbCircle
 10
1499.750000000002
 20
2137.249999999993
 30
0.0
 40
2.5
  0
LINE
  5
21A
330
2
100
AcDbEntity
  8
HALFEN
  6
MITTE2
 62
     1
100
AcDbLine
 10
1496.250000000002
 20
2137.249999999993
 30
0.0
 11
1503.250000000002
 21
2137.249999999993
 31
0.0
  0
LINE
  5
21B
330
2
100
AcDbEntity
  8
HALFEN
  6
MITTE2
 62
     1
100
AcDbLine
 10
1519.750000000002
 20
2145.749999999993
 30
0.0
 11
1519.750000000002
 21
2138.749999999993
 31
0.0
  0
CIRCLE
  5
21C
330
2
100
AcDbEntity
  8
HALFEN
100
AcDbCircle
 10
1519.750000000002
 20
2142.249999999993
 30
0.0
 40
2.5
  0
LINE
  5
21D
330
2
100
AcDbEntity
  8
HALFEN
  6
MITTE2
 62
     1
100
AcDbLine
 10
1516.250000000002
 20
2142.249999999993
 30
0.0
 11
1523.250000000001
 21
2142.249999999993
 31
0.0
  0
CIRCLE
  5
21E
330
2
100
AcDbEntity
  8
HALFEN
100
AcDbCircle
 10
1519.750000000002
 20
2119.749999999993
 30
0.0
 40
2.5
  0
LINE
  5
21F
330
2
100
AcDbEntity
  8
HALFEN
  6
MITTE2
 62
     1
100
AcDbLine
 10
1519.750000000002
 20
2123.249999999993
 30
0.0
 11
1519.750000000002
 21
2116.249999999993
 31
0.0
  0
LINE
  5
220
330
2
100
AcDbEntity
  8
HALFEN
  6
MITTE2
 62
     1
100
AcDbLine
 10
1496.250000000002
 20
2114.749999999993
 30
0.0
 11
1503.250000000002
 21
2114.749999999993
 31
0.0
  0
CIRCLE
  5
221
330
2
100
AcDbEntity
  8
HALFEN
100
AcDbCircle
 10
1499.750000000002
 20
2114.749999999993
 30
0.0
 40
2.5
  0
LINE
  5
222
330
2
100
AcDbEntity
  8
HALFEN
  6
MITTE2
 62
     1
100
AcDbLine
 10
1499.750000000002
 20
2118.249999999993
 30
0.0
 11
1499.750000000002
 21
2111.249999999993
 31
0.0
  0
LINE
  5
223
330
2
100
AcDbEntity
  8
HALFEN
  6
MITTE2
 62
     1
100
AcDbLine
 10
1516.250000000002
 20
2119.749999999992
 30
0.0
 11
1523.250000000001
 21
2119.749999999992
 31
0.0
  0
LINE
  5
224
330
2
100
AcDbEntity
  8
HALFEN
  6
VERDECKT
 62
     1
100
AcDbLine
 10
1551.250000000002
 20
2167.249999999993
 30
0.0
 11
1547.250000000001
 21
2167.249999999993
 31
0.0
  0
LINE
  5
225
330
2
100
AcDbEntity
  8
HALFEN
  6
MITTE2
 62
     1
100
AcDbLine
 10
1552.250000000002
 20
2164.749999999992
 30
0.0
 11
1546.250000000002
 21
2164.749999999992
 31
0.0
  0
LINE
  5
226
330
2
100
AcDbEntity
  8
HALFEN
  6
VERDECKT
 62
     1
100
AcDbLine
 10
1551.250000000002
 20
2162.249999999993
 30
0.0
 11
1547.250000000001
 21
2162.249999999993
 31
0.0
  0
LINE
  5
227
330
2
100
AcDbEntity
  8
HALFEN
  6
VERDECKT
 62
     1
100
AcDbLine
 10
1551.250000000002
 20
2157.249999999993
 30
0.0
 11
1547.250000000002
 21
2157.249999999994
 31
0.0
  0
LINE
  5
228
330
2
100
AcDbEntity
  8
HALFEN
  6
MITTE2
 62
     1
100
AcDbLine
 10
1552.250000000002
 20
2159.749999999993
 30
0.0
 11
1546.250000000002
 21
2159.749999999993
 31
0.0
  0
LINE
  5
229
330
2
100
AcDbEntity
  8
HALFEN
  6
VERDECKT
 62
     1
100
AcDbLine
 10
1551.250000000002
 20
2144.749999999992
 30
0.0
 11
1547.250000000001
 21
2144.749999999992
 31
0.0
  0
LINE
  5
22A
330
2
100
AcDbEntity
  8
HALFEN
  6
MITTE2
 62
     1
100
AcDbLine
 10
1552.250000000002
 20
2142.249999999992
 30
0.0
 11
1546.250000000002
 21
2142.249999999992
 31
0.0
  0
LINE
  5
22B
330
2
100
AcDbEntity
  8
HALFEN
  6
VERDECKT
 62
     1
100
AcDbLine
 10
1551.250000000002
 20
2139.749999999993
 30
0.0
 11
1547.250000000001
 21
2139.749999999993
 31
0.0
  0
LINE
  5
22C
330
2
100
AcDbEntity
  8
HALFEN
  6
VERDECKT
 62
     1
100
AcDbLine
 10
1551.250000000002
 20
2134.749999999993
 30
0.0
 11
1547.250000000002
 21
2134.749999999993
 31
0.0
  0
LINE
  5
22D
330
2
100
AcDbEntity
  8
HALFEN
  6
MITTE2
 62
     1
100
AcDbLine
 10
1552.250000000002
 20
2137.249999999993
 30
0.0
 11
1546.250000000002
 21
2137.249999999993
 31
0.0
  0
LINE
  5
22E
330
2
100
AcDbEntity
  8
HALFEN
  6
VERDECKT
 62
     1
100
AcDbLine
 10
1551.250000000002
 20
2122.249999999992
 30
0.0
 11
1547.250000000001
 21
2122.249999999992
 31
0.0
  0
LINE
  5
22F
330
2
100
AcDbEntity
  8
HALFEN
  6
MITTE2
 62
     1
100
AcDbLine
 10
1552.250000000002
 20
2119.749999999992
 30
0.0
 11
1546.250000000002
 21
2119.749999999992
 31
0.0
  0
LINE
  5
230
330
2
100
AcDbEntity
  8
HALFEN
  6
VERDECKT
 62
     1
100
AcDbLine
 10
1551.250000000002
 20
2117.249999999993
 30
0.0
 11
1547.250000000001
 21
2117.249999999993
 31
0.0
  0
LINE
  5
231
330
2
100
AcDbEntity
  8
HALFEN
  6
VERDECKT
 62
     1
100
AcDbLine
 10
1551.250000000002
 20
2112.249999999993
 30
0.0
 11
1547.250000000002
 21
2112.249999999994
 31
0.0
  0
LINE
  5
232
330
2
100
AcDbEntity
  8
HALFEN
  6
MITTE2
 62
     1
100
AcDbLine
 10
1552.250000000002
 20
2114.749999999993
 30
0.0
 11
1546.250000000002
 21
2114.749999999993
 31
0.0
  0
LINE
  5
233
330
2
100
AcDbEntity
  8
HALFEN
100
AcDbLine
 10
1265.999641443332
 20
1998.749999999992
 30
0.0
 11
1415.999641443332
 21
1998.749999999992
 31
0.0
  0
LINE
  5
234
330
2
100
AcDbEntity
  8
HALFEN
100
AcDbLine
 10
1265.999641443332
 20
1988.749999999993
 30
0.0
 11
1415.999641443332
 21
1988.749999999993
 31
0.0
  0
LINE
  5
235
330
2
100
AcDbEntity
  8
HALFEN
100
AcDbLine
 10
1265.999641443332
 20
1978.749999999992
 30
0.0
 11
1415.999641443332
 21
1978.749999999992
 31
0.0
  0
TEXT
  5
236
330
2
100
AcDbEntity
  8
HALFEN
100
AcDbText
 10
1270.999641443332
 20
1991.249999999993
 30
0.0
 40
5.0
  1
Benennung
  7
ARIAL50
100
AcDbText
  0
LINE
  5
237
330
2
100
AcDbEntity
  8
HALFEN
100
AcDbLine
 10
1265.999641443332
 20
1704.749999999993
 30
0.0
 11
1300.999641443332
 21
1704.749999999993
 31
0.0
  0
LINE
  5
238
330
2
100
AcDbEntity
  8
HALFEN
100
AcDbLine
 10
1265.999641443332
 20
1773.749999999992
 30
0.0
 11
1300.999641443332
 21
1773.749999999992
 31
0.0
  0
LINE
  5
239
330
2
100
AcDbEntity
  8
HALFEN
100
AcDbLine
 10
1265.999641443332
 20
1776.749999999992
 30
0.0
 11
1300.999641443332
 21
1776.749999999992
 31
0.0
  0
LINE
  5
23A
330
2
100
AcDbEntity
  8
HALFEN
100
AcDbLine
 10
1265.999641443332
 20
1735.749999999993
 30
0.0
 11
1300.999641443332
 21
1735.749999999993
 31
0.0
  0
LINE
  5
23B
330
2
100
AcDbEntity
  8
HALFEN
100
AcDbLine
 10
1265.999641443332
 20
1739.749999999992
 30
0.0
 11
1300.999641443332
 21
1739.749999999992
 31
0.0
  0
LINE
  5
23C
330
2
100
AcDbEntity
  8
HALFEN
  6
MITTE2
 62
     1
100
AcDbLine
 10
1290.999641443332
 20
1722.249999999993
 30
0.0
 11
1275.999641443332
 21
1722.249999999993
 31
0.0
  0
CIRCLE
  5
23D
330
2
100
AcDbEntity
  8
HALFEN
100
AcDbCircle
 10
1283.499641443332
 20
1722.249999999993
 30
0.0
 40
6.5
  0
LINE
  5
23E
330
2
100
AcDbEntity
  8
HALFEN
100
AcDbLine
 10
1265.999641443332
 20
1958.749999999993
 30
0.0
 11
1300.999641443332
 21
1958.749999999993
 31
0.0
  0
TEXT
  5
23F
330
2
100
AcDbEntity
  8
HALFEN
100
AcDbText
 10
1270.999641443332
 20
1981.249999999993
 30
0.0
 40
5.0
  1
Id. Nr.
  7
ARIAL50
100
AcDbText
  0
LINE
  5
240
330
2
100
AcDbEntity
  8
HALFEN
  6
MITTE2
 62
     1
100
AcDbLine
 10
1293.499641443332
 20
1894.749999999993
 30
0.0
 11
1293.499641443332
 21
1887.749999999993
 31
0.0
  0
CIRCLE
  5
241
330
2
100
AcDbEntity
  8
HALFEN
100
AcDbCircle
 10
1293.499641443332
 20
1891.249999999993
 30
0.0
 40
2.5
  0
LINE
  5
242
330
2
100
AcDbEntity
  8
HALFEN
100
AcDbLine
 10
1265.999641443332
 20
1958.749999999993
 30
0.0
 11
1265.999641443332
 21
1773.749999999992
 31
0.0
  0
LINE
  5
243
330
2
100
AcDbEntity
  8
HALFEN
100
AcDbLine
 10
1265.999641443332
 20
1739.749999999992
 30
0.0
 11
1265.999641443332
 21
1704.749999999993
 31
0.0
  0
LINE
  5
244
330
2
100
AcDbEntity
  8
HALFEN
  6
VERDECKT
 62
     1
100
AcDbLine
 10
1276.999641443332
 20
1773.749999999992
 30
0.0
 11
1276.999641443332
 21
1776.749999999992
 31
0.0
  0
LINE
  5
245
330
2
100
AcDbEntity
  8
HALFEN
100
AcDbLine
 10
1270.999641443332
 20
1735.749999999992
 30
0.0
 11
1270.999641443332
 21
1739.749999999992
 31
0.0
  0
LINE
  5
246
330
2
100
AcDbEntity
  8
HALFEN
  6
MITTE2
 62
     1
100
AcDbLine
 10
1273.499641443331
 20
1740.249999999993
 30
0.0
 11
1273.499641443331
 21
1735.249999999993
 31
0.0
  0
LINE
  5
247
330
2
100
AcDbEntity
  8
HALFEN
100
AcDbLine
 10
1275.999641443332
 20
1735.749999999993
 30
0.0
 11
1275.999641443332
 21
1739.749999999992
 31
0.0
  0
LINE
  5
248
330
2
100
AcDbEntity
  8
HALFEN
  6
MITTE2
 62
     1
100
AcDbLine
 10
1289.999641443332
 20
1891.249999999992
 30
0.0
 11
1296.999641443332
 21
1891.249999999992
 31
0.0
  0
LINE
  5
249
330
2
100
AcDbEntity
  8
HALFEN
100
AcDbLine
 10
1265.999641443332
 20
1978.749999999992
 30
0.0
 11
1265.999641443332
 21
1998.749999999992
 31
0.0
  0
LINE
  5
24A
330
2
100
AcDbEntity
  8
HALFEN
  6
MITTE2
 62
     1
100
AcDbLine
 10
1293.499641443332
 20
1939.749999999992
 30
0.0
 11
1293.499641443332
 21
1932.749999999992
 31
0.0
  0
LINE
  5
24B
330
2
100
AcDbEntity
  8
HALFEN
  6
MITTE2
 62
     1
100
AcDbLine
 10
1289.999641443332
 20
1913.749999999992
 30
0.0
 11
1296.999641443332
 21
1913.749999999992
 31
0.0
  0
LINE
  5
24C
330
2
100
AcDbEntity
  8
HALFEN
  6
MITTE2
 62
     1
100
AcDbLine
 10
1289.999641443332
 20
1936.249999999992
 30
0.0
 11
1296.999641443332
 21
1936.249999999992
 31
0.0
  0
LINE
  5
24D
330
2
100
AcDbEntity
  8
HALFEN
  6
MITTE2
 62
     1
100
AcDbLine
 10
1293.499641443332
 20
1917.249999999993
 30
0.0
 11
1293.499641443332
 21
1910.249999999993
 31
0.0
  0
CIRCLE
  5
24E
330
2
100
AcDbEntity
  8
HALFEN
100
AcDbCircle
 10
1293.499641443332
 20
1913.749999999993
 30
0.0
 40
2.5
  0
CIRCLE
  5
24F
330
2
100
AcDbEntity
  8
HALFEN
100
AcDbCircle
 10
1293.499641443332
 20
1936.249999999992
 30
0.0
 40
2.5
  0
TEXT
  5
250
330
2
100
AcDbEntity
  8
HALFEN
100
AcDbText
 10
1265.999641443332
 20
2001.249999999993
 30
0.0
 40
5.0
  1
fv
  7
ARIAL50
100
AcDbText
  0
LINE
  5
251
330
2
100
AcDbEntity
  8
HALFEN
  6
MITTE2
 62
     1
100
AcDbLine
 10
1283.499641443332
 20
1958.749999999993
 30
0.0
 11
1283.499641443332
 21
1771.749999999992
 31
0.0
  0
LINE
  5
252
330
2
100
AcDbEntity
  8
HALFEN
100
AcDbLine
 10
1300.999641443332
 20
1958.749999999993
 30
0.0
 11
1300.999641443332
 21
1773.749999999992
 31
0.0
  0
LINE
  5
253
330
2
100
AcDbEntity
  8
HALFEN
100
AcDbLine
 10
1320.999641443332
 20
1958.749999999993
 30
0.0
 11
1320.999641443332
 21
1777.749999999992
 31
0.0
  0
LINE
  5
254
330
2
100
AcDbEntity
  8
HALFEN
100
AcDbLine
 10
1323.999641443332
 20
1958.749999999993
 30
0.0
 11
1323.999641443332
 21
1777.749999999993
 31
0.0
  0
LINE
  5
255
330
2
100
AcDbEntity
  8
HALFEN
100
AcDbLine
 10
1324.999641443332
 20
1773.749999999992
 30
0.0
 11
1355.999641443332
 21
1773.749999999992
 31
0.0
  0
LINE
  5
256
330
2
100
AcDbEntity
  8
HALFEN
100
AcDbLine
 10
1324.999641443332
 20
1776.749999999992
 30
0.0
 11
1355.999641443332
 21
1776.749999999992
 31
0.0
  0
LINE
  5
257
330
2
100
AcDbEntity
  8
HALFEN
  6
MITTE2
 62
     1
100
AcDbLine
 10
1283.499641443332
 20
1739.749999999992
 30
0.0
 11
1283.499641443331
 21
1704.749999999992
 31
0.0
  0
LINE
  5
258
330
2
100
AcDbEntity
  8
HALFEN
100
AcDbLine
 10
1300.999641443332
 20
1739.749999999992
 30
0.0
 11
1300.999641443332
 21
1704.749999999993
 31
0.0
  0
LINE
  5
259
330
2
100
AcDbEntity
  8
HALFEN
  6
VERDECKT
 62
     1
100
AcDbLine
 10
1289.999641443331
 20
1773.749999999992
 30
0.0
 11
1289.999641443332
 21
1776.749999999992
 31
0.0
  0
LINE
  5
25A
330
2
100
AcDbEntity
  8
HALFEN
  6
MITTE2
 62
     1
100
AcDbLine
 10
1283.499641443332
 20
1739.749999999992
 30
0.0
 11
1283.499641443332
 21
1735.749999999993
 31
0.0
  0
LINE
  5
25B
330
2
100
AcDbEntity
  8
HALFEN
100
AcDbLine
 10
1290.999641443332
 20
1735.749999999992
 30
0.0
 11
1290.999641443331
 21
1739.749999999992
 31
0.0
  0
LINE
  5
25C
330
2
100
AcDbEntity
  8
HALFEN
  6
MITTE2
 62
     1
100
AcDbLine
 10
1293.499641443332
 20
1740.249999999993
 30
0.0
 11
1293.499641443332
 21
1735.249999999993
 31
0.0
  0
LINE
  5
25D
330
2
100
AcDbEntity
  8
HALFEN
100
AcDbLine
 10
1295.999641443332
 20
1735.749999999992
 30
0.0
 11
1295.999641443332
 21
1739.749999999992
 31
0.0
  0
LINE
  5
25E
330
2
100
AcDbEntity
  8
HALFEN
  6
MITTE2
 62
     1
100
AcDbLine
 10
1269.999641443331
 20
1886.249999999992
 30
0.0
 11
1276.999641443332
 21
1886.249999999992
 31
0.0
  0
CIRCLE
  5
25F
330
2
100
AcDbEntity
  8
HALFEN
100
AcDbCircle
 10
1273.499641443331
 20
1886.249999999992
 30
0.0
 40
2.5
  0
LINE
  5
260
330
2
100
AcDbEntity
  8
HALFEN
  6
MITTE2
 62
     1
100
AcDbLine
 10
1273.499641443331
 20
1889.749999999993
 30
0.0
 11
1273.499641443331
 21
1882.749999999993
 31
0.0
  0
LINE
  5
261
330
2
100
AcDbEntity
  8
HALFEN
  6
MITTE2
 62
     1
100
AcDbLine
 10
1338.499641443332
 20
1777.749999999993
 30
0.0
 11
1338.499641443332
 21
1771.749999999992
 31
0.0
  0
LINE
  5
262
330
2
100
AcDbEntity
  8
HALFEN
  6
VERDECKT
 62
     1
100
AcDbLine
 10
1331.999641443332
 20
1773.749999999992
 30
0.0
 11
1331.999641443332
 21
1776.749999999992
 31
0.0
  0
ARC
  5
263
330
2
100
AcDbEntity
  8
HALFEN
100
AcDbCircle
 10
1324.999641443332
 20
1777.749999999992
 30
0.0
 40
4.0
100
AcDbArc
 50
180.0000000000001
 51
270.0
  0
LINE
  5
264
330
2
100
AcDbEntity
  8
HALFEN
  6
MITTE2
 62
     1
100
AcDbLine
 10
1324.999641443332
 20
1891.249999999992
 30
0.0
 11
1319.999641443331
 21
1891.249999999992
 31
0.0
  0
LINE
  5
265
330
2
100
AcDbEntity
  8
HALFEN
  6
VERDECKT
 62
     1
100
AcDbLine
 10
1323.999641443332
 20
1888.749999999993
 30
0.0
 11
1320.999641443332
 21
1888.749999999993
 31
0.0
  0
LINE
  5
266
330
2
100
AcDbEntity
  8
HALFEN
  6
VERDECKT
 62
     1
100
AcDbLine
 10
1323.999641443332
 20
1883.749999999993
 30
0.0
 11
1320.999641443332
 21
1883.749999999993
 31
0.0
  0
LINE
  5
267
330
2
100
AcDbEntity
  8
HALFEN
  6
MITTE2
 62
     1
100
AcDbLine
 10
1324.999641443332
 20
1886.249999999992
 30
0.0
 11
1319.999641443331
 21
1886.249999999992
 31
0.0
  0
ARC
  5
268
330
2
100
AcDbEntity
  8
HALFEN
100
AcDbCircle
 10
1324.999641443332
 20
1777.749999999993
 30
0.0
 40
1.0
100
AcDbArc
 50
180.0000000000001
 51
270.0
  0
LINE
  5
269
330
2
100
AcDbEntity
  8
HALFEN
  6
VERDECKT
 62
     1
100
AcDbLine
 10
1344.999641443332
 20
1773.749999999992
 30
0.0
 11
1344.999641443332
 21
1776.749999999992
 31
0.0
  0
LINE
  5
26A
330
2
100
AcDbEntity
  8
HALFEN
100
AcDbLine
 10
1355.999641443332
 20
1776.749999999992
 30
0.0
 11
1355.999641443332
 21
1773.749999999992
 31
0.0
  0
TEXT
  5
26B
330
2
100
AcDbEntity
  8
HALFEN
100
AcDbText
 10
1320.999641443332
 20
1991.249999999993
 30
0.0
 40
5.0
  1
HNA - WN 185 - fv
  7
ARIAL50
100
AcDbText
  0
TEXT
  5
26C
330
2
100
AcDbEntity
  8
HALFEN
100
AcDbText
 10
1320.999641443332
 20
1981.249999999993
 30
0.0
 40
5.0
  1
0032.030-00002
  7
ARIAL50
100
AcDbText
  0
LINE
  5
26D
330
2
100
AcDbEntity
  8
HALFEN
100
AcDbLine
 10
1315.999641443332
 20
1978.749999999992
 30
0.0
 11
1315.999641443332
 21
1998.749999999992
 31
0.0
  0
LINE
  5
26E
330
2
100
AcDbEntity
  8
HALFEN
  6
MITTE2
 62
     1
100
AcDbLine
 10
1269.999641443331
 20
1908.749999999993
 30
0.0
 11
1276.999641443332
 21
1908.749999999993
 31
0.0
  0
CIRCLE
  5
26F
330
2
100
AcDbEntity
  8
HALFEN
100
AcDbCircle
 10
1273.499641443331
 20
1931.249999999993
 30
0.0
 40
2.5
  0
LINE
  5
270
330
2
100
AcDbEntity
  8
HALFEN
  6
MITTE2
 62
     1
100
AcDbLine
 10
1269.999641443331
 20
1931.249999999993
 30
0.0
 11
1276.999641443332
 21
1931.249999999993
 31
0.0
  0
CIRCLE
  5
271
330
2
100
AcDbEntity
  8
HALFEN
100
AcDbCircle
 10
1273.499641443331
 20
1908.749999999993
 30
0.0
 40
2.5
  0
LINE
  5
272
330
2
100
AcDbEntity
  8
HALFEN
  6
MITTE2
 62
     1
100
AcDbLine
 10
1273.499641443331
 20
1934.749999999993
 30
0.0
 11
1273.499641443331
 21
1927.749999999993
 31
0.0
  0
LINE
  5
273
330
2
100
AcDbEntity
  8
HALFEN
  6
MITTE2
 62
     1
100
AcDbLine
 10
1273.499641443331
 20
1912.249999999993
 30
0.0
 11
1273.499641443331
 21
1905.249999999993
 31
0.0
  0
LINE
  5
274
330
2
100
AcDbEntity
  8
HALFEN
  6
MITTE2
 62
     1
100
AcDbLine
 10
1324.999641443332
 20
1913.749999999992
 30
0.0
 11
1319.999641443331
 21
1913.749999999992
 31
0.0
  0
LINE
  5
275
330
2
100
AcDbEntity
  8
HALFEN
  6
VERDECKT
 62
     1
100
AcDbLine
 10
1323.999641443332
 20
1916.249999999992
 30
0.0
 11
1320.999641443332
 21
1916.249999999992
 31
0.0
  0
LINE
  5
276
330
2
100
AcDbEntity
  8
HALFEN
  6
VERDECKT
 62
     1
100
AcDbLine
 10
1323.999641443332
 20
1911.249999999993
 30
0.0
 11
1320.999641443332
 21
1911.249999999993
 31
0.0
  0
LINE
  5
277
330
2
100
AcDbEntity
  8
HALFEN
  6
MITTE2
 62
     1
100
AcDbLine
 10
1324.999641443332
 20
1908.749999999993
 30
0.0
 11
1319.999641443331
 21
1908.749999999993
 31
0.0
  0
LINE
  5
278
330
2
100
AcDbEntity
  8
HALFEN
  6
VERDECKT
 62
     1
100
AcDbLine
 10
1323.999641443332
 20
1938.749999999991
 30
0.0
 11
1320.999641443332
 21
1938.749999999991
 31
0.0
  0
LINE
  5
279
330
2
100
AcDbEntity
  8
HALFEN
  6
MITTE2
 62
     1
100
AcDbLine
 10
1324.999641443332
 20
1936.249999999992
 30
0.0
 11
1319.999641443331
 21
1936.249999999992
 31
0.0
  0
LINE
  5
27A
330
2
100
AcDbEntity
  8
HALFEN
  6
VERDECKT
 62
     1
100
AcDbLine
 10
1323.999641443332
 20
1928.749999999993
 30
0.0
 11
1320.999641443332
 21
1928.749999999993
 31
0.0
  0
LINE
  5
27B
330
2
100
AcDbEntity
  8
HALFEN
  6
VERDECKT
 62
     1
100
AcDbLine
 10
1323.999641443332
 20
1933.749999999992
 30
0.0
 11
1320.999641443332
 21
1933.749999999992
 31
0.0
  0
LINE
  5
27C
330
2
100
AcDbEntity
  8
HALFEN
  6
MITTE2
 62
     1
100
AcDbLine
 10
1324.999641443332
 20
1931.249999999993
 30
0.0
 11
1319.999641443331
 21
1931.249999999993
 31
0.0
  0
LINE
  5
27D
330
2
100
AcDbEntity
  8
HALFEN
  6
VERDECKT
 62
     1
100
AcDbLine
 10
1323.999641443332
 20
1893.749999999992
 30
0.0
 11
1320.999641443332
 21
1893.749999999992
 31
0.0
  0
LINE
  5
27E
330
2
100
AcDbEntity
  8
HALFEN
  6
VERDECKT
 62
     1
100
AcDbLine
 10
1323.999641443332
 20
1906.249999999993
 30
0.0
 11
1320.999641443332
 21
1906.249999999993
 31
0.0
  0
LINE
  5
27F
330
2
100
AcDbEntity
  8
HALFEN
100
AcDbLine
 10
1320.999641443332
 20
1958.749999999993
 30
0.0
 11
1323.999641443332
 21
1958.749999999993
 31
0.0
  0
LINE
  5
280
330
2
100
AcDbEntity
  8
HALFEN
100
AcDbLine
 10
1415.999641443332
 20
1978.749999999992
 30
0.0
 11
1415.999641443332
 21
1998.749999999992
 31
0.0
  0
CIRCLE
  5
281
330
2
100
AcDbEntity
  8
HALFEN
100
AcDbCircle
 10
1283.499641443332
 20
1866.249999999993
 30
0.0
 40
8.5
  0
CIRCLE
  5
282
330
2
100
AcDbEntity
  8
HALFEN
100
AcDbCircle
 10
1293.499641443332
 20
1823.749999999992
 30
0.0
 40
2.5
  0
LINE
  5
283
330
2
100
AcDbEntity
  8
HALFEN
  6
MITTE2
 62
     1
100
AcDbLine
 10
1293.499641443332
 20
1827.249999999992
 30
0.0
 11
1293.499641443332
 21
1820.249999999992
 31
0.0
  0
LINE
  5
284
330
2
100
AcDbEntity
  8
HALFEN
  6
MITTE2
 62
     1
100
AcDbLine
 10
1273.499641443331
 20
1799.749999999993
 30
0.0
 11
1273.499641443331
 21
1792.749999999993
 31
0.0
  0
CIRCLE
  5
285
330
2
100
AcDbEntity
  8
HALFEN
100
AcDbCircle
 10
1273.499641443331
 20
1796.249999999993
 30
0.0
 40
2.5
  0
LINE
  5
286
330
2
100
AcDbEntity
  8
HALFEN
  6
MITTE2
 62
     1
100
AcDbLine
 10
1269.999641443331
 20
1796.249999999993
 30
0.0
 11
1276.999641443332
 21
1796.249999999993
 31
0.0
  0
LINE
  5
287
330
2
100
AcDbEntity
  8
HALFEN
  6
MITTE2
 62
     1
100
AcDbLine
 10
1269.999641443331
 20
1818.749999999993
 30
0.0
 11
1276.999641443332
 21
1818.749999999993
 31
0.0
  0
CIRCLE
  5
288
330
2
100
AcDbEntity
  8
HALFEN
100
AcDbCircle
 10
1273.499641443331
 20
1818.749999999993
 30
0.0
 40
2.5
  0
LINE
  5
289
330
2
100
AcDbEntity
  8
HALFEN
  6
MITTE2
 62
     1
100
AcDbLine
 10
1273.499641443331
 20
1822.249999999993
 30
0.0
 11
1273.499641443331
 21
1815.249999999993
 31
0.0
  0
LINE
  5
28A
330
2
100
AcDbEntity
  8
HALFEN
  6
MITTE2
 62
     1
100
AcDbLine
 10
1289.999641443332
 20
1801.249999999992
 30
0.0
 11
1296.999641443332
 21
1801.249999999992
 31
0.0
  0
LINE
  5
28B
330
2
100
AcDbEntity
  8
HALFEN
  6
MITTE2
 62
     1
100
AcDbLine
 10
1293.499641443332
 20
1804.749999999993
 30
0.0
 11
1293.499641443332
 21
1797.749999999993
 31
0.0
  0
CIRCLE
  5
28C
330
2
100
AcDbEntity
  8
HALFEN
100
AcDbCircle
 10
1293.499641443332
 20
1801.249999999993
 30
0.0
 40
2.5
  0
LINE
  5
28D
330
2
100
AcDbEntity
  8
HALFEN
  6
MITTE2
 62
     1
100
AcDbLine
 10
1289.999641443332
 20
1823.749999999992
 30
0.0
 11
1296.999641443332
 21
1823.749999999992
 31
0.0
  0
LINE
  5
28E
330
2
100
AcDbEntity
  8
HALFEN
  6
MITTE2
 62
     1
100
AcDbLine
 10
1273.999641443332
 20
1866.249999999992
 30
0.0
 11
1292.999641443332
 21
1866.249999999992
 31
0.0
  0
LINE
  5
28F
330
2
100
AcDbEntity
  8
HALFEN
  6
MITTE2
 62
     1
100
AcDbLine
 10
1273.499641443331
 20
1844.749999999993
 30
0.0
 11
1273.499641443331
 21
1837.749999999993
 31
0.0
  0
CIRCLE
  5
290
330
2
100
AcDbEntity
  8
HALFEN
100
AcDbCircle
 10
1273.499641443331
 20
1841.249999999993
 30
0.0
 40
2.5
  0
LINE
  5
291
330
2
100
AcDbEntity
  8
HALFEN
  6
MITTE2
 62
     1
100
AcDbLine
 10
1269.999641443331
 20
1841.249999999993
 30
0.0
 11
1276.999641443332
 21
1841.249999999993
 31
0.0
  0
LINE
  5
292
330
2
100
AcDbEntity
  8
HALFEN
  6
MITTE2
 62
     1
100
AcDbLine
 10
1293.499641443332
 20
1849.749999999993
 30
0.0
 11
1293.499641443332
 21
1842.749999999993
 31
0.0
  0
CIRCLE
  5
293
330
2
100
AcDbEntity
  8
HALFEN
100
AcDbCircle
 10
1293.499641443332
 20
1846.249999999993
 30
0.0
 40
2.5
  0
LINE
  5
294
330
2
100
AcDbEntity
  8
HALFEN
  6
MITTE2
 62
     1
100
AcDbLine
 10
1289.999641443332
 20
1846.249999999992
 30
0.0
 11
1296.999641443332
 21
1846.249999999992
 31
0.0
  0
LINE
  5
295
330
2
100
AcDbEntity
  8
HALFEN
  6
MITTE2
 62
     1
100
AcDbLine
 10
1325.999641443331
 20
1796.249999999993
 30
0.0
 11
1319.999641443331
 21
1796.249999999993
 31
0.0
  0
LINE
  5
296
330
2
100
AcDbEntity
  8
HALFEN
  6
VERDECKT
 62
     1
100
AcDbLine
 10
1324.999641443332
 20
1793.749999999993
 30
0.0
 11
1320.999641443332
 21
1793.749999999993
 31
0.0
  0
LINE
  5
297
330
2
100
AcDbEntity
  8
HALFEN
  6
VERDECKT
 62
     1
100
AcDbLine
 10
1324.999641443332
 20
1798.749999999993
 30
0.0
 11
1320.999641443332
 21
1798.749999999993
 31
0.0
  0
LINE
  5
298
330
2
100
AcDbEntity
  8
HALFEN
  6
MITTE2
 62
     1
100
AcDbLine
 10
1325.999641443331
 20
1801.249999999992
 30
0.0
 11
1319.999641443331
 21
1801.249999999992
 31
0.0
  0
LINE
  5
299
330
2
100
AcDbEntity
  8
HALFEN
  6
VERDECKT
 62
     1
100
AcDbLine
 10
1324.999641443332
 20
1803.749999999992
 30
0.0
 11
1320.999641443332
 21
1803.749999999992
 31
0.0
  0
LINE
  5
29A
330
2
100
AcDbEntity
  8
HALFEN
  6
MITTE2
 62
     1
100
AcDbLine
 10
1325.999641443331
 20
1818.749999999993
 30
0.0
 11
1319.999641443331
 21
1818.749999999993
 31
0.0
  0
LINE
  5
29B
330
2
100
AcDbEntity
  8
HALFEN
  6
VERDECKT
 62
     1
100
AcDbLine
 10
1324.999641443332
 20
1816.249999999993
 30
0.0
 11
1320.999641443332
 21
1816.249999999993
 31
0.0
  0
LINE
  5
29C
330
2
100
AcDbEntity
  8
HALFEN
  6
VERDECKT
 62
     1
100
AcDbLine
 10
1324.999641443332
 20
1821.249999999993
 30
0.0
 11
1320.999641443332
 21
1821.249999999993
 31
0.0
  0
LINE
  5
29D
330
2
100
AcDbEntity
  8
HALFEN
  6
MITTE2
 62
     1
100
AcDbLine
 10
1325.999641443331
 20
1823.749999999992
 30
0.0
 11
1319.999641443331
 21
1823.749999999992
 31
0.0
  0
LINE
  5
29E
330
2
100
AcDbEntity
  8
HALFEN
  6
VERDECKT
 62
     1
100
AcDbLine
 10
1324.999641443332
 20
1826.249999999992
 30
0.0
 11
1320.999641443332
 21
1826.249999999992
 31
0.0
  0
LINE
  5
29F
330
2
100
AcDbEntity
  8
HALFEN
  6
MITTE2
 62
     1
100
AcDbLine
 10
1325.999641443331
 20
1841.249999999993
 30
0.0
 11
1319.999641443331
 21
1841.249999999993
 31
0.0
  0
LINE
  5
2A0
330
2
100
AcDbEntity
  8
HALFEN
  6
VERDECKT
 62
     1
100
AcDbLine
 10
1324.999641443332
 20
1838.749999999993
 30
0.0
 11
1320.999641443332
 21
1838.749999999993
 31
0.0
  0
LINE
  5
2A1
330
2
100
AcDbEntity
  8
HALFEN
  6
VERDECKT
 62
     1
100
AcDbLine
 10
1324.999641443332
 20
1843.749999999993
 30
0.0
 11
1320.999641443332
 21
1843.749999999993
 31
0.0
  0
LINE
  5
2A2
330
2
100
AcDbEntity
  8
HALFEN
  6
MITTE2
 62
     1
100
AcDbLine
 10
1325.999641443331
 20
1846.249999999992
 30
0.0
 11
1319.999641443331
 21
1846.249999999992
 31
0.0
  0
LINE
  5
2A3
330
2
100
AcDbEntity
  8
HALFEN
  6
VERDECKT
 62
     1
100
AcDbLine
 10
1324.999641443332
 20
1848.749999999992
 30
0.0
 11
1320.999641443332
 21
1848.749999999992
 31
0.0
  0
LINE
  5
2A4
330
2
100
AcDbEntity
  8
HALFEN
  6
MITTE2
 62
     1
100
AcDbLine
 10
1325.999641443331
 20
1866.249999999992
 30
0.0
 11
1319.999641443331
 21
1866.249999999992
 31
0.0
  0
LINE
  5
2A5
330
2
100
AcDbEntity
  8
HALFEN
  6
VERDECKT
 62
     1
100
AcDbLine
 10
1324.999641443332
 20
1857.749999999992
 30
0.0
 11
1320.999641443332
 21
1857.749999999992
 31
0.0
  0
LINE
  5
2A6
330
2
100
AcDbEntity
  8
HALFEN
  6
VERDECKT
 62
     1
100
AcDbLine
 10
1324.999641443332
 20
1874.749999999993
 30
0.0
 11
1320.999641443332
 21
1874.749999999993
 31
0.0
  0
ENDSEC
  0
SECTION
  2
OBJECTS
  0
DICTIONARY
  5
7
330
0
100
AcDbDictionary
281
     1
  3
ACAD_COLOR
350
23
  3
ACAD_GROUP
350
1F
  3
ACAD_LAYOUT
350
B
  3
ACAD_MATERIAL
350
22
  3
ACAD_MLINESTYLE
350
20
  3
ACAD_PLOTSETTINGS
350
21
  3
ACAD_PLOTSTYLENAME
350
6
  3
ACAD_TABLESTYLE
350
24
  3
AcDbVariableDictionary
350
2AC
  3
ASE_INDEX_DICTIONARY
350
2A9
  0
DICTIONARY
  5
23
102
{ACAD_REACTORS
330
7
102
}
330
7
100
AcDbDictionary
281
     1
  0
DICTIONARY
  5
1F
102
{ACAD_REACTORS
330
7
102
}
330
7
100
AcDbDictionary
281
     1
  0
DICTIONARY
  5
B
102
{ACAD_REACTORS
330
7
102
}
330
7
100
AcDbDictionary
281
     1
  3
Layout1
350
F
  3
Model
350
A
  0
DICTIONARY
  5
22
102
{ACAD_REACTORS
330
7
102
}
330
7
100
AcDbDictionary
281
     1
  0
DICTIONARY
  5
20
102
{ACAD_REACTORS
330
7
102
}
330
7
100
AcDbDictionary
281
     1
  3
STANDARD
350
27
  0
DICTIONARY
  5
21
102
{ACAD_REACTORS
330
7
102
}
330
7
100
AcDbDictionary
281
     1
  0
ACDBDICTIONARYWDFLT
  5
6
102
{ACAD_REACTORS
330
7
102
}
330
7
100
AcDbDictionary
281
     1
  3
Normal
350
5
100
AcDbDictionaryWithDefault
340
5
  0
DICTIONARY
  5
24
102
{ACAD_REACTORS
330
7
102
}
330
7
100
AcDbDictionary
281
     1
  3
Standard
350
28
  0
DICTIONARY
  5
2AC
102
{ACAD_REACTORS
330
7
102
}
330
7
100
AcDbDictionary
281
     1
  3
CTABLESTYLE
350
2AD
  3
DIMASSOC
350
2BB
  3
HIDETEXT
350
2BA
  3
PROJECTNAME
350
2BC
  0
DICTIONARY
  5
2A9
102
{ACAD_REACTORS
330
7
102
}
330
7
100
AcDbDictionary
281
     1
  3
ASEBlockHierarchyIndexRecord
350
2AB
1001
DCO15
1040
1565416425.734
  0
LAYOUT
  5
F
102
{ACAD_REACTORS
330
B
102
}
330
B
100
AcDbPlotSettings
  1

  2
\\DLANT038\DLAKBHL013
  4

  6

 40
0.0
 41
0.0
 42
0.0
 43
0.0
 44
0.0
 45
0.0
 46
0.0
 47
0.0
 48
0.0
 49
0.0
140
0.0
141
0.0
142
1.0
143
1.0
 70
   688
 72
     0
 73
     0
 74
     5
  7

 75
    16
147
1.0
 76
     0
 77
     2
 78
   300
148
0.0
149
0.0
100
AcDbLayout
  1
Layout1
 70
     1
 71
     1
 10
0.0
 20
0.0
 11
12.0
 21
9.0
 12
0.0
 22
0.0
 32
0.0
 14
1.000000000000000E+20
 24
1.000000000000000E+20
 34
1.000000000000000E+20
 15
-1.000000000000000E+20
 25
-1.000000000000000E+20
 35
-1.000000000000000E+20
146
0.0
 13
0.0
 23
0.0
 33
0.0
 16
1.0
 26
0.0
 36
0.0
 17
0.0
 27
1.0
 37
0.0
 76
     0
330
C
  0
LAYOUT
  5
A
102
{ACAD_REACTORS
330
B
102
}
330
B
100
AcDbPlotSettings
  1

  2
\\DLANT038\DLAKBHL013
  4

  6

 40
0.0
 41
0.0
 42
0.0
 43
0.0
 44
0.0
 45
0.0
 46
0.0
 47
0.0
 48
0.0
 49
0.0
140
0.0
141
0.0
142
1.0
143
1.0
 70
  1712
 72
     0
 73
     0
 74
     0
  7

 75
     0
147
1.0
 76
     0
 77
     2
 78
   300
148
0.0
149
0.0
100
AcDbLayout
  1
Model
 70
     1
 71
     0
 10
0.0
 20
0.0
 11
12.0
 21
9.0
 12
0.0
 22
0.0
 32
0.0
 14
0.0
 24
0.0
 34
0.0
 15
0.0
 25
0.0
 35
0.0
146
0.0
 13
0.0
 23
0.0
 33
0.0
 16
1.0
 26
0.0
 36
0.0
 17
0.0
 27
1.0
 37
0.0
 76
     0
330
2
  0
MLINESTYLE
  5
27
102
{ACAD_REACTORS
330
20
102
}
330
20
100
AcDbMlineStyle
  2
STANDARD
 70
     0
  3

 62
     0
 51
90.0
 52
90.0
 71
     2
 49
0.5
 62
   256
  6
BYLAYER
 49
-0.5
 62
   256
  6
BYLAYER
  0
ACDBPLACEHOLDER
  5
5
102
{ACAD_REACTORS
330
6
102
}
330
6
  0
TABLESTYLE
  5
28
102
{ACAD_REACTORS
330
24
102
}
330
24
100
AcDbTableStyle
  3
Standard
 70
     0
 71
     0
 40
1.5
 41
1.5
280
     0
281
     0
  7
STANDARD
140
4.5
170
     2
 62
     0
 63
     7
283
     0
274
    -2
284
     1
 64
     0
275
    -2
285
     1
 65
     0
276
    -2
286
     1
 66
     0
277
    -2
287
     1
 67
     0
278
    -2
288
     1
 68
     0
279
    -2
289
     1
 69
     0
  7
STANDARD
140
6.0
170
     5
 62
     0
 63
     7
283
     0
274
    -2
284
     1
 64
     0
275
    -2
285
     1
 65
     0
276
    -2
286
     1
 66
     0
277
    -2
287
     1
 67
     0
278
    -2
288
     1
 68
     0
279
    -2
289
     1
 69
     0
  7
STANDARD
140
4.5
170
     5
 62
     0
 63
     7
283
     0
274
    -2
284
     1
 64
     0
275
    -2
285
     1
 65
     0
276
    -2
286
     1
 66
     0
277
    -2
287
     1
 67
     0
278
    -2
288
     1
 68
     0
279
    -2
289
     1
 69
     0
  0
DICTIONARYVAR
  5
2AD
102
{ACAD_REACTORS
330
2AC
102
}
330
2AC
100
DictionaryVariables
280
     0
  1
STANDARD
  0
DICTIONARYVAR
  5
2BB
102
{ACAD_REACTORS
330
2AC
102
}
330
2AC
100
DictionaryVariables
280
     0
  1
1
  0
DICTIONARYVAR
  5
2BA
102
{ACAD_REACTORS
330
2AC
102
}
330
2AC
100
DictionaryVariables
280
     0
  1
1
  0
DICTIONARYVAR
  5
2BC
102
{ACAD_REACTORS
330
2AC
102
}
330
2AC
100
DictionaryVariables
280
     0
  1

  0
XRECORD
  5
2AB
102
{ACAD_REACTORS
330
2A9
102
}
330
2A9
100
AcDbXrecord
280
     1
  0
ENDSEC
  0
EOF
